<svg width="461" height="132" viewBox="0 0 461 132" fill="none" xmlns="http://www.w3.org/2000/svg">
<g filter="url(#filter0_d)">
<path d="M40.7567 17.6C40.7207 17.024 40.7927 16.412 40.7927 15.836C40.7927 14.9 40.6847 13.64 39.4607 13.676C37.6607 13.712 35.8967 13.748 34.0967 13.748C33.1967 13.748 31.9727 13.856 31.9727 15.08C31.9727 16.196 32.5127 16.916 33.6647 16.916C35.0327 16.916 36.3647 16.736 37.6967 16.628C37.8407 18.356 38.3087 20.048 38.4167 21.74C38.5607 24.116 38.6687 26.492 38.6687 28.868C38.6687 30.164 38.5967 31.496 38.5247 32.792C38.4167 34.304 38.3447 37.184 36.2567 37.184C34.5647 37.184 33.9167 34.088 33.7007 32.828C32.5847 33.008 31.2167 32.936 31.2167 34.484C31.2167 35.348 31.5767 36.248 31.9727 37.04C32.8367 38.948 34.2767 40.532 36.5447 40.532C41.4047 40.532 41.3687 32.828 41.3687 29.444C41.3687 25.484 40.9727 21.56 40.7567 17.6ZM50.9841 10.976C50.0481 10.904 49.1481 10.688 48.2121 10.688C46.9161 10.688 46.7721 11.588 46.7721 12.632C46.7721 13.388 46.9161 14.144 46.9161 14.936C46.9881 17.672 46.9881 20.444 46.9881 23.18C46.9881 29.012 46.9521 34.808 46.9521 40.64C46.9521 41.324 46.7361 42.008 46.7361 42.692C46.7361 43.52 46.9521 43.556 47.7081 43.556C49.0761 43.556 50.4801 43.34 51.8481 43.124C52.3161 43.052 52.8561 43.052 52.8561 42.404C52.8561 41.792 52.8201 41.18 52.8201 40.568C52.8201 40.172 52.7481 39.992 52.3521 39.992C51.5961 39.992 50.9481 40.424 50.2281 40.424C49.7601 40.424 49.6521 39.992 49.6521 39.596C49.6521 38.948 49.8321 38.264 49.8321 37.58C49.8321 36.608 49.7961 35.6 49.7601 34.628C49.7241 33.476 49.4001 32.36 49.4001 31.208C49.4001 30.524 49.4721 29.588 50.3721 29.588C50.9481 29.588 51.4521 29.948 52.0281 29.948C52.3881 29.948 52.7121 29.66 52.7121 29.3C52.7121 28.904 52.5681 28.544 52.5321 28.148C52.4241 27.104 52.6761 26.924 51.3801 26.924C50.9121 26.924 50.4801 27.14 50.0121 27.14C49.5801 27.14 49.5441 26.456 49.5441 26.132C49.3281 23.936 49.4361 21.74 49.4361 19.544C49.4361 17.996 49.1481 16.448 49.1481 14.864C49.1481 14.396 49.2561 14.144 49.7961 14.144C50.7321 14.144 51.5601 14.792 52.4961 14.792C53.4321 14.792 53.4321 12.884 53.4321 12.236C53.4321 10.796 52.6041 11.012 51.5241 11.012L50.9841 10.976ZM74.3543 19.184C74.0663 18.392 73.8863 17.528 73.8863 16.664C73.8863 15.548 74.3543 13.892 75.7583 13.892C77.8823 13.892 77.3063 17.42 77.9903 17.708C78.4583 17.924 78.9623 17.924 79.4663 17.924C80.0783 17.924 80.2583 17.492 80.2583 16.952C80.2583 14.468 78.7823 11.732 75.9743 11.732C72.9863 11.732 71.4743 14.108 71.4743 16.88C71.4743 22.064 77.1983 26.096 78.5663 31.1C78.8903 32.396 78.9263 33.764 78.9263 35.096C78.9263 36.536 78.8903 40.82 76.8023 40.82C74.4983 40.82 74.5703 36.536 74.5703 34.952C74.5703 33.656 74.3183 33.044 72.8783 33.044C71.9783 33.044 71.7983 33.944 71.7983 34.628C71.7983 37.868 72.8423 42.476 76.8743 42.476C80.0783 42.476 81.8423 38.84 81.8423 36.032C81.8423 31.568 80.0423 27.284 77.4143 23.756C76.3343 22.28 75.0023 20.948 74.3543 19.184ZM95.6713 15.476V15.296C95.6713 14.648 95.7793 14 95.7793 13.352C95.7793 12.056 95.3833 11.804 94.1593 11.804C93.5833 11.804 92.7193 11.912 92.7193 12.668C92.7193 13.064 92.7913 13.496 92.8633 13.892C93.0433 15.26 93.0433 16.628 93.0433 17.996C93.0433 21.236 93.0073 24.44 93.0073 27.68C93.0073 29.372 92.7913 39.632 90.9913 39.632C90.5953 39.632 90.3793 39.2 90.1993 38.912C89.0113 36.644 89.2273 33.656 89.1553 31.172C89.0833 26.672 88.8673 22.208 88.8673 17.708C88.8673 16.232 88.8673 14.684 89.2273 13.244C89.2993 12.848 89.4433 12.416 89.4433 12.02C89.4433 11.552 88.9393 11.444 88.6153 11.444C86.5633 11.444 86.7433 12.236 86.7433 13.856C86.7433 15.44 86.5633 17.024 86.4553 18.572C86.2393 21.92 86.0953 25.304 86.0953 28.652C86.0953 31.784 86.1673 42.8 90.7033 42.8C90.8833 42.8 91.0273 42.8 91.2073 42.764C94.9153 41.792 95.1673 36.716 95.4553 33.62C95.8153 29.66 95.9233 25.7 95.9233 21.704C95.9233 19.616 95.7793 17.564 95.6713 15.476ZM107.304 38.84C106.332 38.012 106.404 32.576 106.368 31.172C106.296 27.464 106.26 23.756 105.9 20.048C105.756 18.788 105.468 17.528 105.468 16.268C105.468 15.872 105.54 15.368 106.008 15.368C106.404 15.368 106.8 15.512 107.196 15.512C107.628 15.512 107.664 15.188 107.664 14.864C107.664 14.108 107.52 13.388 107.448 12.632C106.26 12.776 105.072 12.848 103.848 12.848C103.308 12.848 102.768 12.74 102.228 12.74C101.04 12.74 100.932 13.352 100.932 14.36C100.932 14.792 100.968 15.728 101.58 15.728C102.048 15.728 102.516 15.548 103.02 15.476C103.092 22.172 103.596 28.868 104.1 35.564C104.172 36.428 104.244 37.328 104.244 38.192C104.244 39.236 103.272 39.02 102.588 39.02H102.264C102.264 39.704 102.156 41.612 103.164 41.612C104.532 41.612 105.9 41.54 107.304 41.432C108.312 41.36 108.924 41.324 108.924 40.1V39.92C108.924 39.704 108.924 38.84 108.6 38.84C108.312 38.84 108.096 38.984 107.844 38.984C107.628 38.984 107.448 38.948 107.268 38.84H107.304ZM115.825 19.184C115.537 18.392 115.357 17.528 115.357 16.664C115.357 15.548 115.825 13.892 117.229 13.892C119.353 13.892 118.777 17.42 119.461 17.708C119.929 17.924 120.433 17.924 120.937 17.924C121.549 17.924 121.729 17.492 121.729 16.952C121.729 14.468 120.253 11.732 117.445 11.732C114.457 11.732 112.945 14.108 112.945 16.88C112.945 22.064 118.669 26.096 120.037 31.1C120.361 32.396 120.397 33.764 120.397 35.096C120.397 36.536 120.361 40.82 118.273 40.82C115.969 40.82 116.041 36.536 116.041 34.952C116.041 33.656 115.789 33.044 114.349 33.044C113.449 33.044 113.269 33.944 113.269 34.628C113.269 37.868 114.313 42.476 118.345 42.476C121.549 42.476 123.313 38.84 123.313 36.032C123.313 31.568 121.513 27.284 118.885 23.756C117.805 22.28 116.473 20.948 115.825 19.184ZM144.161 39.236C143.945 39.272 143.729 39.272 143.513 39.272C142.901 39.272 142.865 38.912 142.865 38.408C142.865 37.472 142.901 36.536 142.901 35.6C142.901 30.38 142.793 25.16 142.721 19.94C142.685 18.5 142.577 17.096 142.577 15.656C142.577 14.9 142.757 14.144 142.757 13.352C142.757 12.488 142.505 12.524 141.785 12.344C141.497 12.236 141.209 12.164 140.885 12.164C140.057 12.164 140.021 13.172 140.021 13.784C140.021 19.544 140.237 25.304 140.237 31.028C140.237 33.692 139.913 36.356 139.913 38.984C139.913 39.848 139.913 41.972 141.173 41.972C141.569 41.972 141.965 41.936 142.361 41.936C144.197 41.936 145.997 42.08 147.833 42.08C148.445 42.08 148.445 41.108 148.445 40.676C148.445 40.172 148.409 39.668 148.373 39.164C148.085 38.804 147.617 38.732 147.221 38.732C146.177 38.732 145.169 39.092 144.161 39.236ZM159.489 15.188C159.381 14.252 159.489 13.352 159.489 12.416C159.489 11.228 158.805 11.228 157.833 11.228C157.329 11.228 156.753 11.228 156.321 11.516C155.817 11.84 155.853 14.648 155.781 15.332C155.133 21.848 154.089 28.292 153.369 34.772C153.189 36.68 152.901 38.552 152.649 40.46C152.469 42.224 152.325 42.764 153.837 42.872C154.053 42.908 154.305 42.98 154.557 42.98C155.313 42.98 155.241 42.044 155.241 41.504C155.241 39.992 155.457 38.516 155.493 37.04C155.529 36.284 155.529 35.42 156.321 35.024C156.501 34.952 158.013 35.024 158.229 35.024C159.201 34.988 159.237 37.04 159.453 38.444C159.633 39.74 159.309 42.908 160.101 42.908C160.857 42.908 161.505 42.836 162.081 42.44C162.441 42.188 162.117 38.984 161.937 37.58C161.073 30.128 160.713 22.604 159.489 15.188ZM156.825 5.648C156.609 5.504 156.321 5.36 156.069 5.36C155.637 5.36 154.701 6.44 154.701 6.836C154.701 7.412 156.285 8.672 156.753 9.104C157.185 9.464 158.265 9.86 158.841 9.86C159.237 9.86 160.317 9.644 160.317 9.14C160.317 8.636 157.365 5.972 156.825 5.648ZM158.553 32.432C158.337 32.576 158.049 32.648 157.797 32.648C157.005 32.648 156.285 32.756 156.321 32.18C156.357 30.848 157.185 23.396 157.401 22.028C157.797 25.7 158.589 28.472 158.589 31.748C158.589 31.964 158.589 32.216 158.553 32.432ZM157.437 21.884C157.437 21.812 157.437 21.812 157.437 21.776C157.437 21.812 157.437 21.848 157.437 21.884ZM183.24 10.256C182.88 10.328 182.556 10.292 182.232 10.292C181.188 10.292 180.36 10.4 180.36 11.66C180.36 12.884 180.54 14.072 180.54 15.296C180.54 23.756 180.936 32.252 180.936 40.712C180.936 41.36 180.828 42.008 180.828 42.656C180.828 43.664 181.08 43.592 181.908 43.808C182.268 43.88 182.592 44.024 182.988 44.024C183.528 44.024 183.528 43.52 183.528 43.124C183.528 42.044 183.456 40.928 183.456 39.848C183.456 37.76 183.528 35.708 183.528 33.62C183.528 30.668 183.312 27.716 183.312 24.764C183.312 23.288 184.68 23.72 185.616 23.36C188.172 22.352 189.324 19.22 189.324 16.7C189.324 13.568 187.668 10.184 184.14 10.184C183.816 10.184 183.528 10.22 183.24 10.256ZM184.5 21.164C184.284 21.272 184.032 21.344 183.816 21.344C183.06 21.344 183.096 19.472 183.096 19.004C183.096 18.284 183.168 17.564 183.168 16.844C183.168 15.944 182.988 15.044 182.988 14.108C182.988 13.82 183.096 12.524 183.492 12.524C185.976 12.524 186.696 14.72 186.696 16.808C186.696 18.464 186.156 20.48 184.5 21.164ZM202.498 38.732C208.582 38.732 210.202 31.208 210.202 26.42C210.202 21.488 208.654 15.26 202.57 15.26C196.99 15.26 194.65 21.272 194.65 26.024C194.65 30.992 196.126 38.732 202.498 38.732ZM202.57 18.14C206.314 18.14 207.538 23.324 207.538 26.276C207.538 29.516 206.89 35.924 202.498 35.924C197.674 35.924 197.494 29.804 197.494 26.312C197.494 23 198.322 18.14 202.57 18.14ZM224.617 15.476V15.296C224.617 14.648 224.725 14 224.725 13.352C224.725 12.056 224.329 11.804 223.105 11.804C222.529 11.804 221.665 11.912 221.665 12.668C221.665 13.064 221.737 13.496 221.809 13.892C221.989 15.26 221.989 16.628 221.989 17.996C221.989 21.236 221.953 24.44 221.953 27.68C221.953 29.372 221.737 39.632 219.937 39.632C219.541 39.632 219.325 39.2 219.145 38.912C217.957 36.644 218.173 33.656 218.101 31.172C218.029 26.672 217.813 22.208 217.813 17.708C217.813 16.232 217.813 14.684 218.173 13.244C218.245 12.848 218.389 12.416 218.389 12.02C218.389 11.552 217.885 11.444 217.561 11.444C215.509 11.444 215.689 12.236 215.689 13.856C215.689 15.44 215.509 17.024 215.401 18.572C215.185 21.92 215.041 25.304 215.041 28.652C215.041 31.784 215.113 42.8 219.649 42.8C219.829 42.8 219.973 42.8 220.153 42.764C223.861 41.792 224.113 36.716 224.401 33.62C224.761 29.66 224.869 25.7 224.869 21.704C224.869 19.616 224.725 17.564 224.617 15.476ZM236.646 27.428C236.394 26.384 235.818 25.412 235.818 24.332C235.818 24.008 235.926 23.684 236.142 23.432C236.43 23.18 237.15 23.036 237.546 22.856C238.806 22.136 239.706 19.58 239.706 18.176C239.706 14.684 235.854 12.992 232.83 12.992C232.038 12.992 231.282 13.136 231.282 14.072C231.282 14.792 231.462 15.476 231.462 16.196C231.462 19.004 231.354 21.848 231.354 24.656C231.354 29.624 231.426 34.628 231.426 39.596C231.426 41.144 231.426 41.252 233.01 41.252C233.694 41.252 234.054 41.108 234.054 40.352V34.232C234.054 31.244 233.766 28.256 233.766 25.268C233.766 24.98 233.766 24.656 233.838 24.368C234.45 25.628 236.754 35.24 237.042 37.076C237.15 37.544 237.258 39.704 237.906 39.704C238.446 39.704 239.778 39.308 239.778 38.624C239.778 37.976 239.382 37.328 239.166 36.716C238.05 33.728 237.33 30.524 236.646 27.428ZM233.946 21.2V19.292C233.946 18.32 233.73 17.384 233.73 16.448C233.73 15.872 233.982 15.188 234.63 15.188C236.034 15.188 237.222 16.844 237.222 18.14C237.222 18.752 237.042 19.328 236.682 19.832C236.358 20.3 234.774 21.488 234.198 21.488C234.054 21.488 233.946 21.38 233.946 21.2ZM266.693 12.2C265.433 12.344 265.613 13.064 265.613 14.036C265.613 17.24 264.821 22.028 264.461 25.34C264.245 27.356 263.993 29.372 263.741 31.388C263.633 32.288 263.597 33.188 263.453 34.088C263.453 34.16 263.381 34.736 263.309 34.736C263.237 34.736 263.237 34.664 263.201 34.592C262.985 34.088 263.093 33.08 262.985 32.504C262.841 31.208 262.517 29.912 262.265 28.616C261.833 26.384 261.545 24.08 261.113 21.848C260.753 19.868 260.249 17.924 259.925 15.944C259.745 15.008 259.781 14.036 259.457 13.172C259.133 12.308 259.241 12.56 258.377 12.38C258.017 12.272 257.621 12.164 257.225 12.164C256.793 12.164 256.649 12.416 256.649 12.812C256.649 14.432 257.549 17.168 257.873 18.896C258.665 23.216 259.097 27.608 260.249 31.856C260.645 33.404 260.933 34.988 261.221 36.536C261.437 37.868 261.113 42.08 262.949 42.08C264.713 42.08 264.857 42.152 265.109 40.46C266.009 33.836 266.729 27.212 267.449 20.552C267.593 18.968 267.773 17.384 268.025 15.836C268.169 14.828 268.781 13.676 268.781 12.668C268.781 12.2 267.701 12.164 267.377 12.164C267.161 12.164 266.909 12.164 266.693 12.2ZM282.127 38.732C288.211 38.732 289.831 31.208 289.831 26.42C289.831 21.488 288.283 15.26 282.199 15.26C276.619 15.26 274.279 21.272 274.279 26.024C274.279 30.992 275.755 38.732 282.127 38.732ZM282.199 18.14C285.943 18.14 287.167 23.324 287.167 26.276C287.167 29.516 286.519 35.924 282.127 35.924C277.303 35.924 277.123 29.804 277.123 26.312C277.123 23 277.951 18.14 282.199 18.14ZM304.246 15.476V15.296C304.246 14.648 304.354 14 304.354 13.352C304.354 12.056 303.958 11.804 302.734 11.804C302.158 11.804 301.294 11.912 301.294 12.668C301.294 13.064 301.366 13.496 301.438 13.892C301.618 15.26 301.618 16.628 301.618 17.996C301.618 21.236 301.582 24.44 301.582 27.68C301.582 29.372 301.366 39.632 299.566 39.632C299.17 39.632 298.954 39.2 298.774 38.912C297.586 36.644 297.802 33.656 297.73 31.172C297.658 26.672 297.442 22.208 297.442 17.708C297.442 16.232 297.442 14.684 297.802 13.244C297.874 12.848 298.018 12.416 298.018 12.02C298.018 11.552 297.514 11.444 297.19 11.444C295.138 11.444 295.318 12.236 295.318 13.856C295.318 15.44 295.138 17.024 295.03 18.572C294.814 21.92 294.67 25.304 294.67 28.652C294.67 31.784 294.742 42.8 299.278 42.8C299.458 42.8 299.602 42.8 299.782 42.764C303.49 41.792 303.742 36.716 304.03 33.62C304.39 29.66 304.498 25.7 304.498 21.704C304.498 19.616 304.354 17.564 304.246 15.476ZM313.107 19.184C312.819 18.392 312.639 17.528 312.639 16.664C312.639 15.548 313.107 13.892 314.511 13.892C316.635 13.892 316.059 17.42 316.743 17.708C317.211 17.924 317.715 17.924 318.219 17.924C318.831 17.924 319.011 17.492 319.011 16.952C319.011 14.468 317.535 11.732 314.727 11.732C311.739 11.732 310.227 14.108 310.227 16.88C310.227 22.064 315.951 26.096 317.319 31.1C317.643 32.396 317.679 33.764 317.679 35.096C317.679 36.536 317.643 40.82 315.555 40.82C313.251 40.82 313.323 36.536 313.323 34.952C313.323 33.656 313.071 33.044 311.631 33.044C310.731 33.044 310.551 33.944 310.551 34.628C310.551 37.868 311.595 42.476 315.627 42.476C318.831 42.476 320.595 38.84 320.595 36.032C320.595 31.568 318.795 27.284 316.167 23.756C315.087 22.28 313.755 20.948 313.107 19.184ZM344.143 15.188C344.035 14.252 344.143 13.352 344.143 12.416C344.143 11.228 343.459 11.228 342.487 11.228C341.983 11.228 341.407 11.228 340.975 11.516C340.471 11.84 340.507 14.648 340.435 15.332C339.787 21.848 338.743 28.292 338.023 34.772C337.843 36.68 337.555 38.552 337.303 40.46C337.123 42.224 336.979 42.764 338.491 42.872C338.707 42.908 338.959 42.98 339.211 42.98C339.967 42.98 339.895 42.044 339.895 41.504C339.895 39.992 340.111 38.516 340.147 37.04C340.183 36.284 340.183 35.42 340.975 35.024C341.155 34.952 342.667 35.024 342.883 35.024C343.855 34.988 343.891 37.04 344.107 38.444C344.287 39.74 343.963 42.908 344.755 42.908C345.511 42.908 346.159 42.836 346.735 42.44C347.095 42.188 346.771 38.984 346.591 37.58C345.727 30.128 345.367 22.604 344.143 15.188ZM343.207 32.432C342.991 32.576 342.703 32.648 342.451 32.648C341.659 32.648 340.939 32.756 340.975 32.18C341.011 30.848 341.839 23.396 342.055 22.028C342.451 25.7 343.243 28.472 343.243 31.748C343.243 31.964 343.243 32.216 343.207 32.432ZM342.091 21.884C342.091 21.812 342.091 21.812 342.091 21.776C342.091 21.812 342.091 21.848 342.091 21.884ZM358.334 38.84C357.362 38.012 357.434 32.576 357.398 31.172C357.326 27.464 357.29 23.756 356.93 20.048C356.786 18.788 356.498 17.528 356.498 16.268C356.498 15.872 356.57 15.368 357.038 15.368C357.434 15.368 357.83 15.512 358.226 15.512C358.658 15.512 358.694 15.188 358.694 14.864C358.694 14.108 358.55 13.388 358.478 12.632C357.29 12.776 356.102 12.848 354.878 12.848C354.338 12.848 353.798 12.74 353.258 12.74C352.07 12.74 351.962 13.352 351.962 14.36C351.962 14.792 351.998 15.728 352.61 15.728C353.078 15.728 353.546 15.548 354.05 15.476C354.122 22.172 354.626 28.868 355.13 35.564C355.202 36.428 355.274 37.328 355.274 38.192C355.274 39.236 354.302 39.02 353.618 39.02H353.294C353.294 39.704 353.186 41.612 354.194 41.612C355.562 41.612 356.93 41.54 358.334 41.432C359.342 41.36 359.954 41.324 359.954 40.1V39.92C359.954 39.704 359.954 38.84 359.63 38.84C359.342 38.84 359.126 38.984 358.874 38.984C358.658 38.984 358.478 38.948 358.298 38.84H358.334ZM372.398 17.384C370.994 14.252 367.862 11.948 364.406 11.948C363.902 11.948 363.506 12.056 363.506 12.668C363.506 13.064 363.578 13.46 363.614 13.892C363.758 15.368 363.758 16.808 363.794 18.284C363.974 24.476 364.406 30.668 364.658 36.86C364.73 38.3 364.838 39.704 364.838 41.144C364.838 41.936 365.018 42.26 365.882 42.26C372.434 42.26 374.378 35.708 374.378 30.524C374.378 26.096 374.198 21.488 372.398 17.384ZM368.006 38.948C367.466 38.948 367.466 38.264 367.466 37.904C367.466 35.816 367.286 33.836 367.142 31.748C366.89 28.184 366.71 24.62 366.422 21.056C366.386 20.588 365.918 14.936 366.098 14.936C369.122 14.936 371.426 22.352 371.426 27.716C371.426 29.696 371.462 38.948 368.006 38.948ZM383.97 10.976C383.034 10.904 382.134 10.688 381.198 10.688C379.902 10.688 379.758 11.588 379.758 12.632C379.758 13.388 379.902 14.144 379.902 14.936C379.974 17.672 379.974 20.444 379.974 23.18C379.974 29.012 379.938 34.808 379.938 40.64C379.938 41.324 379.722 42.008 379.722 42.692C379.722 43.52 379.938 43.556 380.694 43.556C382.062 43.556 383.466 43.34 384.834 43.124C385.302 43.052 385.842 43.052 385.842 42.404C385.842 41.792 385.806 41.18 385.806 40.568C385.806 40.172 385.734 39.992 385.338 39.992C384.582 39.992 383.934 40.424 383.214 40.424C382.746 40.424 382.638 39.992 382.638 39.596C382.638 38.948 382.818 38.264 382.818 37.58C382.818 36.608 382.782 35.6 382.746 34.628C382.71 33.476 382.386 32.36 382.386 31.208C382.386 30.524 382.458 29.588 383.358 29.588C383.934 29.588 384.438 29.948 385.014 29.948C385.374 29.948 385.698 29.66 385.698 29.3C385.698 28.904 385.554 28.544 385.518 28.148C385.41 27.104 385.662 26.924 384.366 26.924C383.898 26.924 383.466 27.14 382.998 27.14C382.566 27.14 382.53 26.456 382.53 26.132C382.314 23.936 382.422 21.74 382.422 19.544C382.422 17.996 382.134 16.448 382.134 14.864C382.134 14.396 382.242 14.144 382.782 14.144C383.718 14.144 384.546 14.792 385.482 14.792C386.418 14.792 386.418 12.884 386.418 12.236C386.418 10.796 385.59 11.012 384.51 11.012L383.97 10.976ZM402.157 34.412C401.653 32.252 401.005 30.092 400.573 27.896C400.393 26.888 400.213 25.88 399.925 24.872C399.781 24.332 399.493 23.792 399.493 23.216C399.493 22.244 401.329 20.084 401.329 17.924C401.329 13.532 397.837 12.848 394.237 12.848C392.725 12.848 391.717 12.92 391.717 14.756C391.717 15.98 392.005 17.168 392.077 18.392C392.401 22.82 392.725 27.248 392.905 31.676C392.977 33.98 393.337 36.284 393.337 38.588C393.337 39.2 393.229 39.812 393.229 40.424C393.229 40.892 393.409 41.36 393.985 41.36C394.525 41.36 396.073 41.396 396.073 40.604C396.073 40.1 395.929 39.596 395.857 39.056C395.569 36.968 395.713 34.844 395.569 32.72C395.461 30.596 395.353 28.472 395.029 26.384C394.957 25.916 394.813 25.448 394.813 24.944C394.813 24.512 395.029 24.152 395.497 24.152L395.713 24.188C396.865 24.404 397.405 27.68 397.693 28.652C398.953 32.576 400.285 36.464 401.653 40.316C401.833 40.856 401.761 41.036 402.337 41.216C402.517 41.252 402.877 41.216 403.057 41.216C403.309 41.216 403.741 41.324 403.885 41.036C403.093 38.876 402.661 36.68 402.157 34.412ZM398.881 18.356C398.809 20.264 397.153 22.604 395.101 22.604C394.741 22.604 394.813 21.812 394.777 21.596L394.525 18.392C394.453 17.492 394.273 16.592 394.273 15.692C394.273 14.9 394.381 14.36 395.353 14.36C397.693 14.36 398.881 15.728 398.881 18.032V18.356ZM48.4441 53.188C48.3361 52.252 48.4441 51.352 48.4441 50.416C48.4441 49.228 47.7601 49.228 46.7881 49.228C46.2841 49.228 45.7081 49.228 45.2761 49.516C44.7721 49.84 44.8081 52.648 44.7361 53.332C44.0881 59.848 43.0441 66.292 42.3241 72.772C42.1441 74.68 41.8561 76.552 41.6041 78.46C41.4241 80.224 41.2801 80.764 42.7921 80.872C43.0081 80.908 43.2601 80.98 43.5121 80.98C44.2681 80.98 44.1961 80.044 44.1961 79.504C44.1961 77.992 44.4121 76.516 44.4481 75.04C44.4841 74.284 44.4841 73.42 45.2761 73.024C45.4561 72.952 46.9681 73.024 47.1841 73.024C48.1561 72.988 48.1921 75.04 48.4081 76.444C48.5881 77.74 48.2641 80.908 49.0561 80.908C49.8121 80.908 50.4601 80.836 51.0361 80.44C51.3961 80.188 51.0721 76.984 50.8921 75.58C50.0281 68.128 49.6681 60.604 48.4441 53.188ZM45.7801 43.648C45.5641 43.504 45.2761 43.36 45.0241 43.36C44.5921 43.36 43.6561 44.44 43.6561 44.836C43.6561 45.412 45.2401 46.672 45.7081 47.104C46.1401 47.464 47.2201 47.86 47.7961 47.86C48.1921 47.86 49.2721 47.644 49.2721 47.14C49.2721 46.636 46.3201 43.972 45.7801 43.648ZM47.5081 70.432C47.2921 70.576 47.0041 70.648 46.7521 70.648C45.9601 70.648 45.2401 70.756 45.2761 70.18C45.3121 68.848 46.1401 61.396 46.3561 60.028C46.7521 63.7 47.5441 66.472 47.5441 69.748C47.5441 69.964 47.5441 70.216 47.5081 70.432ZM46.3921 59.884C46.3921 59.812 46.3921 59.812 46.3921 59.776C46.3921 59.812 46.3921 59.848 46.3921 59.884ZM77.4514 50.452C77.0194 50.272 76.5874 50.236 76.1554 50.236C75.3274 50.236 74.4994 50.38 73.6354 50.38C72.5914 50.38 71.5114 50.416 70.5034 50.164C70.1434 50.092 69.8194 49.912 69.4594 49.912C68.8834 49.912 68.7754 51.352 68.7754 51.784C68.7754 52.432 68.8834 53.188 69.7474 53.188C70.3954 53.188 70.9714 52.792 71.6194 52.792C72.7714 52.792 72.6994 53.692 72.6994 54.556C72.8794 61.684 73.3834 68.776 73.5994 75.904V76.012C73.5994 76.948 73.4914 77.884 73.4914 78.82C73.4914 79.864 73.6354 80.296 74.7874 80.296C75.5074 80.296 76.5514 80.188 76.5514 79.216C76.5514 78.64 76.3714 78.1 76.2994 77.56C76.2274 76.912 76.2634 76.3 76.2634 75.652C76.2634 75.076 76.2274 74.464 76.1914 73.852C75.9034 70.54 75.7234 67.228 75.5794 63.916C75.4354 60.712 75.4714 57.544 75.1474 54.376C75.1114 54.124 75.0754 53.872 75.0754 53.584C75.0754 53.332 75.0754 52.864 75.4354 52.864C75.9394 52.864 76.4074 53.296 76.9474 53.296C77.6674 53.296 78.1714 52.612 78.1714 51.928C78.1714 51.388 77.9554 50.74 77.4514 50.452ZM94.1815 72.412C93.6775 70.252 93.0295 68.092 92.5975 65.896C92.4175 64.888 92.2375 63.88 91.9495 62.872C91.8055 62.332 91.5175 61.792 91.5175 61.216C91.5175 60.244 93.3535 58.084 93.3535 55.924C93.3535 51.532 89.8615 50.848 86.2615 50.848C84.7495 50.848 83.7415 50.92 83.7415 52.756C83.7415 53.98 84.0295 55.168 84.1015 56.392C84.4255 60.82 84.7495 65.248 84.9295 69.676C85.0015 71.98 85.3615 74.284 85.3615 76.588C85.3615 77.2 85.2535 77.812 85.2535 78.424C85.2535 78.892 85.4335 79.36 86.0095 79.36C86.5495 79.36 88.0975 79.396 88.0975 78.604C88.0975 78.1 87.9535 77.596 87.8815 77.056C87.5935 74.968 87.7375 72.844 87.5935 70.72C87.4855 68.596 87.3775 66.472 87.0535 64.384C86.9815 63.916 86.8375 63.448 86.8375 62.944C86.8375 62.512 87.0535 62.152 87.5215 62.152L87.7375 62.188C88.8895 62.404 89.4295 65.68 89.7175 66.652C90.9775 70.576 92.3095 74.464 93.6775 78.316C93.8575 78.856 93.7855 79.036 94.3615 79.216C94.5415 79.252 94.9015 79.216 95.0815 79.216C95.3335 79.216 95.7655 79.324 95.9095 79.036C95.1175 76.876 94.6855 74.68 94.1815 72.412ZM90.9055 56.356C90.8335 58.264 89.1775 60.604 87.1255 60.604C86.7655 60.604 86.8375 59.812 86.8015 59.596L86.5495 56.392C86.4775 55.492 86.2975 54.592 86.2975 53.692C86.2975 52.9 86.4055 52.36 87.3775 52.36C89.7175 52.36 90.9055 53.728 90.9055 56.032V56.356ZM108.441 76.732C114.525 76.732 116.145 69.208 116.145 64.42C116.145 59.488 114.597 53.26 108.513 53.26C102.933 53.26 100.593 59.272 100.593 64.024C100.593 68.992 102.069 76.732 108.441 76.732ZM108.513 56.14C112.257 56.14 113.481 61.324 113.481 64.276C113.481 67.516 112.833 73.924 108.441 73.924C103.617 73.924 103.437 67.804 103.437 64.312C103.437 61 104.265 56.14 108.513 56.14ZM130.56 53.476V53.296C130.56 52.648 130.668 52 130.668 51.352C130.668 50.056 130.272 49.804 129.048 49.804C128.472 49.804 127.608 49.912 127.608 50.668C127.608 51.064 127.68 51.496 127.752 51.892C127.932 53.26 127.932 54.628 127.932 55.996C127.932 59.236 127.896 62.44 127.896 65.68C127.896 67.372 127.68 77.632 125.88 77.632C125.484 77.632 125.268 77.2 125.088 76.912C123.9 74.644 124.116 71.656 124.044 69.172C123.972 64.672 123.756 60.208 123.756 55.708C123.756 54.232 123.756 52.684 124.116 51.244C124.188 50.848 124.332 50.416 124.332 50.02C124.332 49.552 123.828 49.444 123.504 49.444C121.452 49.444 121.632 50.236 121.632 51.856C121.632 53.44 121.452 55.024 121.344 56.572C121.128 59.92 120.984 63.304 120.984 66.652C120.984 69.784 121.056 80.8 125.592 80.8C125.772 80.8 125.916 80.8 126.096 80.764C129.804 79.792 130.056 74.716 130.344 71.62C130.704 67.66 130.812 63.7 130.812 59.704C130.812 57.616 130.668 55.564 130.56 53.476ZM145.973 50.2C144.713 50.344 144.893 51.064 144.893 52.036C144.893 55.24 144.101 60.028 143.741 63.34C143.525 65.356 143.273 67.372 143.021 69.388C142.913 70.288 142.877 71.188 142.733 72.088C142.733 72.16 142.661 72.736 142.589 72.736C142.517 72.736 142.517 72.664 142.481 72.592C142.265 72.088 142.373 71.08 142.265 70.504C142.121 69.208 141.797 67.912 141.545 66.616C141.113 64.384 140.825 62.08 140.393 59.848C140.033 57.868 139.529 55.924 139.205 53.944C139.025 53.008 139.061 52.036 138.737 51.172C138.413 50.308 138.521 50.56 137.657 50.38C137.297 50.272 136.901 50.164 136.505 50.164C136.073 50.164 135.929 50.416 135.929 50.812C135.929 52.432 136.829 55.168 137.153 56.896C137.945 61.216 138.377 65.608 139.529 69.856C139.925 71.404 140.213 72.988 140.501 74.536C140.717 75.868 140.393 80.08 142.229 80.08C143.993 80.08 144.137 80.152 144.389 78.46C145.289 71.836 146.009 65.212 146.729 58.552C146.873 56.968 147.053 55.384 147.305 53.836C147.449 52.828 148.061 51.676 148.061 50.668C148.061 50.2 146.981 50.164 146.657 50.164C146.441 50.164 146.189 50.164 145.973 50.2ZM157.627 48.976C156.691 48.904 155.791 48.688 154.855 48.688C153.559 48.688 153.415 49.588 153.415 50.632C153.415 51.388 153.559 52.144 153.559 52.936C153.631 55.672 153.631 58.444 153.631 61.18C153.631 67.012 153.595 72.808 153.595 78.64C153.595 79.324 153.379 80.008 153.379 80.692C153.379 81.52 153.595 81.556 154.351 81.556C155.719 81.556 157.123 81.34 158.491 81.124C158.959 81.052 159.499 81.052 159.499 80.404C159.499 79.792 159.463 79.18 159.463 78.568C159.463 78.172 159.391 77.992 158.995 77.992C158.239 77.992 157.591 78.424 156.871 78.424C156.403 78.424 156.295 77.992 156.295 77.596C156.295 76.948 156.475 76.264 156.475 75.58C156.475 74.608 156.439 73.6 156.403 72.628C156.367 71.476 156.043 70.36 156.043 69.208C156.043 68.524 156.115 67.588 157.015 67.588C157.591 67.588 158.095 67.948 158.671 67.948C159.031 67.948 159.355 67.66 159.355 67.3C159.355 66.904 159.211 66.544 159.175 66.148C159.067 65.104 159.319 64.924 158.023 64.924C157.555 64.924 157.123 65.14 156.655 65.14C156.223 65.14 156.187 64.456 156.187 64.132C155.971 61.936 156.079 59.74 156.079 57.544C156.079 55.996 155.791 54.448 155.791 52.864C155.791 52.396 155.899 52.144 156.439 52.144C157.375 52.144 158.203 52.792 159.139 52.792C160.075 52.792 160.075 50.884 160.075 50.236C160.075 48.796 159.247 49.012 158.167 49.012L157.627 48.976ZM175.814 72.412C175.31 70.252 174.662 68.092 174.23 65.896C174.05 64.888 173.87 63.88 173.582 62.872C173.438 62.332 173.15 61.792 173.15 61.216C173.15 60.244 174.986 58.084 174.986 55.924C174.986 51.532 171.494 50.848 167.894 50.848C166.382 50.848 165.374 50.92 165.374 52.756C165.374 53.98 165.662 55.168 165.734 56.392C166.058 60.82 166.382 65.248 166.562 69.676C166.634 71.98 166.994 74.284 166.994 76.588C166.994 77.2 166.886 77.812 166.886 78.424C166.886 78.892 167.066 79.36 167.642 79.36C168.182 79.36 169.73 79.396 169.73 78.604C169.73 78.1 169.586 77.596 169.514 77.056C169.226 74.968 169.37 72.844 169.226 70.72C169.118 68.596 169.01 66.472 168.686 64.384C168.614 63.916 168.47 63.448 168.47 62.944C168.47 62.512 168.686 62.152 169.154 62.152L169.37 62.188C170.522 62.404 171.062 65.68 171.35 66.652C172.61 70.576 173.942 74.464 175.31 78.316C175.49 78.856 175.418 79.036 175.994 79.216C176.174 79.252 176.534 79.216 176.714 79.216C176.966 79.216 177.398 79.324 177.542 79.036C176.75 76.876 176.318 74.68 175.814 72.412ZM172.538 56.356C172.466 58.264 170.81 60.604 168.758 60.604C168.398 60.604 168.47 59.812 168.434 59.596L168.182 56.392C168.11 55.492 167.93 54.592 167.93 53.692C167.93 52.9 168.038 52.36 169.01 52.36C171.35 52.36 172.538 53.728 172.538 56.032V56.356ZM198.568 77.236C198.352 77.272 198.136 77.272 197.92 77.272C197.308 77.272 197.272 76.912 197.272 76.408C197.272 75.472 197.308 74.536 197.308 73.6C197.308 68.38 197.2 63.16 197.128 57.94C197.092 56.5 196.984 55.096 196.984 53.656C196.984 52.9 197.164 52.144 197.164 51.352C197.164 50.488 196.912 50.524 196.192 50.344C195.904 50.236 195.616 50.164 195.292 50.164C194.464 50.164 194.428 51.172 194.428 51.784C194.428 57.544 194.644 63.304 194.644 69.028C194.644 71.692 194.32 74.356 194.32 76.984C194.32 77.848 194.32 79.972 195.58 79.972C195.976 79.972 196.372 79.936 196.768 79.936C198.604 79.936 200.404 80.08 202.24 80.08C202.852 80.08 202.852 79.108 202.852 78.676C202.852 78.172 202.816 77.668 202.78 77.164C202.492 76.804 202.024 76.732 201.628 76.732C200.584 76.732 199.576 77.092 198.568 77.236ZM211.268 48.976C210.332 48.904 209.432 48.688 208.496 48.688C207.2 48.688 207.056 49.588 207.056 50.632C207.056 51.388 207.2 52.144 207.2 52.936C207.272 55.672 207.272 58.444 207.272 61.18C207.272 67.012 207.236 72.808 207.236 78.64C207.236 79.324 207.02 80.008 207.02 80.692C207.02 81.52 207.236 81.556 207.992 81.556C209.36 81.556 210.764 81.34 212.132 81.124C212.6 81.052 213.14 81.052 213.14 80.404C213.14 79.792 213.104 79.18 213.104 78.568C213.104 78.172 213.032 77.992 212.636 77.992C211.88 77.992 211.232 78.424 210.512 78.424C210.044 78.424 209.936 77.992 209.936 77.596C209.936 76.948 210.116 76.264 210.116 75.58C210.116 74.608 210.08 73.6 210.044 72.628C210.008 71.476 209.684 70.36 209.684 69.208C209.684 68.524 209.756 67.588 210.656 67.588C211.232 67.588 211.736 67.948 212.312 67.948C212.672 67.948 212.996 67.66 212.996 67.3C212.996 66.904 212.852 66.544 212.816 66.148C212.708 65.104 212.96 64.924 211.664 64.924C211.196 64.924 210.764 65.14 210.296 65.14C209.864 65.14 209.828 64.456 209.828 64.132C209.612 61.936 209.72 59.74 209.72 57.544C209.72 55.996 209.432 54.448 209.432 52.864C209.432 52.396 209.54 52.144 210.08 52.144C211.016 52.144 211.844 52.792 212.78 52.792C213.716 52.792 213.716 50.884 213.716 50.236C213.716 48.796 212.888 49.012 211.808 49.012L211.268 48.976ZM234.027 48.256C233.667 48.328 233.343 48.292 233.019 48.292C231.975 48.292 231.147 48.4 231.147 49.66C231.147 50.884 231.327 52.072 231.327 53.296C231.327 61.756 231.723 70.252 231.723 78.712C231.723 79.36 231.615 80.008 231.615 80.656C231.615 81.664 231.867 81.592 232.695 81.808C233.055 81.88 233.379 82.024 233.775 82.024C234.315 82.024 234.315 81.52 234.315 81.124C234.315 80.044 234.243 78.928 234.243 77.848C234.243 75.76 234.315 73.708 234.315 71.62C234.315 68.668 234.099 65.716 234.099 62.764C234.099 61.288 235.467 61.72 236.403 61.36C238.959 60.352 240.111 57.22 240.111 54.7C240.111 51.568 238.455 48.184 234.927 48.184C234.603 48.184 234.315 48.22 234.027 48.256ZM235.287 59.164C235.071 59.272 234.819 59.344 234.603 59.344C233.847 59.344 233.883 57.472 233.883 57.004C233.883 56.284 233.955 55.564 233.955 54.844C233.955 53.944 233.775 53.044 233.775 52.108C233.775 51.82 233.883 50.524 234.279 50.524C236.763 50.524 237.483 52.72 237.483 54.808C237.483 56.464 236.943 58.48 235.287 59.164ZM252.132 53.188C252.024 52.252 252.132 51.352 252.132 50.416C252.132 49.228 251.448 49.228 250.476 49.228C249.972 49.228 249.396 49.228 248.964 49.516C248.46 49.84 248.496 52.648 248.424 53.332C247.776 59.848 246.732 66.292 246.012 72.772C245.832 74.68 245.544 76.552 245.292 78.46C245.112 80.224 244.968 80.764 246.48 80.872C246.696 80.908 246.948 80.98 247.2 80.98C247.956 80.98 247.884 80.044 247.884 79.504C247.884 77.992 248.1 76.516 248.136 75.04C248.172 74.284 248.172 73.42 248.964 73.024C249.144 72.952 250.656 73.024 250.872 73.024C251.844 72.988 251.88 75.04 252.096 76.444C252.276 77.74 251.952 80.908 252.744 80.908C253.5 80.908 254.148 80.836 254.724 80.44C255.084 80.188 254.76 76.984 254.58 75.58C253.716 68.128 253.356 60.604 252.132 53.188ZM251.196 70.432C250.98 70.576 250.692 70.648 250.44 70.648C249.648 70.648 248.928 70.756 248.964 70.18C249 68.848 249.828 61.396 250.044 60.028C250.44 63.7 251.232 66.472 251.232 69.748C251.232 69.964 251.232 70.216 251.196 70.432ZM250.08 59.884C250.08 59.812 250.08 59.812 250.08 59.776C250.08 59.812 250.08 59.848 250.08 59.884ZM270.715 72.412C270.211 70.252 269.563 68.092 269.131 65.896C268.951 64.888 268.771 63.88 268.483 62.872C268.339 62.332 268.051 61.792 268.051 61.216C268.051 60.244 269.887 58.084 269.887 55.924C269.887 51.532 266.395 50.848 262.795 50.848C261.283 50.848 260.275 50.92 260.275 52.756C260.275 53.98 260.563 55.168 260.635 56.392C260.959 60.82 261.283 65.248 261.463 69.676C261.535 71.98 261.895 74.284 261.895 76.588C261.895 77.2 261.787 77.812 261.787 78.424C261.787 78.892 261.967 79.36 262.543 79.36C263.083 79.36 264.631 79.396 264.631 78.604C264.631 78.1 264.487 77.596 264.415 77.056C264.127 74.968 264.271 72.844 264.127 70.72C264.019 68.596 263.911 66.472 263.587 64.384C263.515 63.916 263.371 63.448 263.371 62.944C263.371 62.512 263.587 62.152 264.055 62.152L264.271 62.188C265.423 62.404 265.963 65.68 266.251 66.652C267.511 70.576 268.843 74.464 270.211 78.316C270.391 78.856 270.319 79.036 270.895 79.216C271.075 79.252 271.435 79.216 271.615 79.216C271.867 79.216 272.299 79.324 272.443 79.036C271.651 76.876 271.219 74.68 270.715 72.412ZM267.439 56.356C267.367 58.264 265.711 60.604 263.659 60.604C263.299 60.604 263.371 59.812 263.335 59.596L263.083 56.392C263.011 55.492 262.831 54.592 262.831 53.692C262.831 52.9 262.939 52.36 263.911 52.36C266.251 52.36 267.439 53.728 267.439 56.032V56.356ZM284.47 74.644C284.326 76.12 284.038 79 282.058 79C279.43 79 279.25 71.44 279.25 69.568C279.25 67.624 279.394 65.68 279.394 63.736C279.394 62.08 279.286 60.424 279.286 58.732C279.286 57.184 279.43 51.28 281.662 51.28C283.786 51.28 284.182 55.456 284.326 56.968C284.83 56.824 285.37 56.644 285.91 56.572C286.198 56.5 286.738 56.572 286.738 56.104C286.738 55.888 286.63 55.636 286.522 55.456C286.486 54.664 286.234 53.908 285.982 53.116C285.334 51.064 284.146 47.896 281.554 47.896C279.646 47.896 278.314 49.66 277.666 51.28C276.442 54.412 276.766 58.444 276.766 61.792C276.766 63.772 276.694 65.788 276.694 67.804C276.694 69.244 276.73 70.72 276.838 72.16C277.09 75.436 277.342 82.312 281.95 82.312C285.478 82.312 287.098 78.172 287.098 75.22C287.098 74.644 285.082 74.644 284.722 74.644H284.47ZM316.612 61.504C316.54 58.768 316.396 56.032 316.396 53.296C316.396 52.396 316.504 51.532 316.504 50.668C316.504 48.796 315.964 49.048 314.416 48.904C314.164 48.868 313.912 48.832 313.66 48.832C313.336 48.832 313.12 49.156 313.12 49.48C313.12 57.076 313.984 65.212 314.164 72.916C313.732 72.304 313.48 70.684 313.264 69.892C311.464 63.124 309.232 56.5 307.504 49.696C307.18 48.256 305.776 48.76 304.768 48.616C304.624 48.868 304.624 49.12 304.624 49.372C304.624 51.136 304.876 52.9 304.948 54.664C305.236 63.124 305.668 71.584 305.668 80.044C305.668 81.232 306.604 81.16 307.468 81.16C308.476 81.16 308.8 80.944 308.8 79.864C308.8 78.892 308.62 77.884 308.548 76.912C308.26 72.52 308.44 68.128 307.936 63.736C307.828 62.656 307.612 61.9 307.612 59.992C308.296 61.18 309.124 64.564 309.556 65.968C310.816 70.144 312.184 74.356 313.156 78.604C313.336 79.252 313.516 81.592 314.452 81.592C314.848 81.592 316.612 81.412 316.864 81.196C317.008 81.052 317.008 80.8 317.008 80.62C317.008 79.72 316.828 78.856 316.828 77.956C316.828 76.66 316.864 75.4 316.864 74.104C316.864 69.892 316.684 65.716 316.612 61.504ZM329.336 53.188C329.228 52.252 329.336 51.352 329.336 50.416C329.336 49.228 328.652 49.228 327.68 49.228C327.176 49.228 326.6 49.228 326.168 49.516C325.664 49.84 325.7 52.648 325.628 53.332C324.98 59.848 323.936 66.292 323.216 72.772C323.036 74.68 322.748 76.552 322.496 78.46C322.316 80.224 322.172 80.764 323.684 80.872C323.9 80.908 324.152 80.98 324.404 80.98C325.16 80.98 325.088 80.044 325.088 79.504C325.088 77.992 325.304 76.516 325.34 75.04C325.376 74.284 325.376 73.42 326.168 73.024C326.348 72.952 327.86 73.024 328.076 73.024C329.048 72.988 329.084 75.04 329.3 76.444C329.48 77.74 329.156 80.908 329.948 80.908C330.704 80.908 331.352 80.836 331.928 80.44C332.288 80.188 331.964 76.984 331.784 75.58C330.92 68.128 330.56 60.604 329.336 53.188ZM328.4 70.432C328.184 70.576 327.896 70.648 327.644 70.648C326.852 70.648 326.132 70.756 326.168 70.18C326.204 68.848 327.032 61.396 327.248 60.028C327.644 63.7 328.436 66.472 328.436 69.748C328.436 69.964 328.436 70.216 328.4 70.432ZM327.284 59.884C327.284 59.812 327.284 59.812 327.284 59.776C327.284 59.812 327.284 59.848 327.284 59.884ZM349.286 61.504C349.214 58.768 349.07 56.032 349.07 53.296C349.07 52.396 349.178 51.532 349.178 50.668C349.178 48.796 348.638 49.048 347.09 48.904C346.838 48.868 346.586 48.832 346.334 48.832C346.01 48.832 345.794 49.156 345.794 49.48C345.794 57.076 346.658 65.212 346.838 72.916C346.406 72.304 346.154 70.684 345.938 69.892C344.138 63.124 341.906 56.5 340.178 49.696C339.854 48.256 338.45 48.76 337.442 48.616C337.298 48.868 337.298 49.12 337.298 49.372C337.298 51.136 337.55 52.9 337.622 54.664C337.91 63.124 338.342 71.584 338.342 80.044C338.342 81.232 339.278 81.16 340.142 81.16C341.15 81.16 341.474 80.944 341.474 79.864C341.474 78.892 341.294 77.884 341.222 76.912C340.934 72.52 341.114 68.128 340.61 63.736C340.502 62.656 340.286 61.9 340.286 59.992C340.97 61.18 341.798 64.564 342.23 65.968C343.49 70.144 344.858 74.356 345.83 78.604C346.01 79.252 346.19 81.592 347.126 81.592C347.522 81.592 349.286 81.412 349.538 81.196C349.682 81.052 349.682 80.8 349.682 80.62C349.682 79.72 349.502 78.856 349.502 77.956C349.502 76.66 349.538 75.4 349.538 74.104C349.538 69.892 349.358 65.716 349.286 61.504ZM363.054 50.452C362.622 50.272 362.19 50.236 361.758 50.236C360.93 50.236 360.102 50.38 359.238 50.38C358.194 50.38 357.114 50.416 356.106 50.164C355.746 50.092 355.422 49.912 355.062 49.912C354.486 49.912 354.378 51.352 354.378 51.784C354.378 52.432 354.486 53.188 355.35 53.188C355.998 53.188 356.574 52.792 357.222 52.792C358.374 52.792 358.302 53.692 358.302 54.556C358.482 61.684 358.986 68.776 359.202 75.904V76.012C359.202 76.948 359.094 77.884 359.094 78.82C359.094 79.864 359.238 80.296 360.39 80.296C361.11 80.296 362.154 80.188 362.154 79.216C362.154 78.64 361.974 78.1 361.902 77.56C361.83 76.912 361.866 76.3 361.866 75.652C361.866 75.076 361.83 74.464 361.794 73.852C361.506 70.54 361.326 67.228 361.182 63.916C361.038 60.712 361.074 57.544 360.75 54.376C360.714 54.124 360.678 53.872 360.678 53.584C360.678 53.332 360.678 52.864 361.038 52.864C361.542 52.864 362.01 53.296 362.55 53.296C363.27 53.296 363.774 52.612 363.774 51.928C363.774 51.388 363.558 50.74 363.054 50.452ZM376.22 53.188C376.112 52.252 376.22 51.352 376.22 50.416C376.22 49.228 375.536 49.228 374.564 49.228C374.06 49.228 373.484 49.228 373.052 49.516C372.548 49.84 372.584 52.648 372.512 53.332C371.864 59.848 370.82 66.292 370.1 72.772C369.92 74.68 369.632 76.552 369.38 78.46C369.2 80.224 369.056 80.764 370.568 80.872C370.784 80.908 371.036 80.98 371.288 80.98C372.044 80.98 371.972 80.044 371.972 79.504C371.972 77.992 372.188 76.516 372.224 75.04C372.26 74.284 372.26 73.42 373.052 73.024C373.232 72.952 374.744 73.024 374.96 73.024C375.932 72.988 375.968 75.04 376.184 76.444C376.364 77.74 376.04 80.908 376.832 80.908C377.588 80.908 378.236 80.836 378.812 80.44C379.172 80.188 378.848 76.984 378.668 75.58C377.804 68.128 377.444 60.604 376.22 53.188ZM375.284 70.432C375.068 70.576 374.78 70.648 374.528 70.648C373.736 70.648 373.016 70.756 373.052 70.18C373.088 68.848 373.916 61.396 374.132 60.028C374.528 63.7 375.32 66.472 375.32 69.748C375.32 69.964 375.32 70.216 375.284 70.432ZM374.168 59.884C374.168 59.812 374.168 59.812 374.168 59.776C374.168 59.812 374.168 59.848 374.168 59.884ZM390.411 76.84C389.439 76.012 389.511 70.576 389.475 69.172C389.403 65.464 389.367 61.756 389.007 58.048C388.863 56.788 388.575 55.528 388.575 54.268C388.575 53.872 388.647 53.368 389.115 53.368C389.511 53.368 389.907 53.512 390.303 53.512C390.735 53.512 390.771 53.188 390.771 52.864C390.771 52.108 390.627 51.388 390.555 50.632C389.367 50.776 388.179 50.848 386.955 50.848C386.415 50.848 385.875 50.74 385.335 50.74C384.147 50.74 384.039 51.352 384.039 52.36C384.039 52.792 384.075 53.728 384.687 53.728C385.155 53.728 385.623 53.548 386.127 53.476C386.199 60.172 386.703 66.868 387.207 73.564C387.279 74.428 387.351 75.328 387.351 76.192C387.351 77.236 386.379 77.02 385.695 77.02H385.371C385.371 77.704 385.263 79.612 386.271 79.612C387.639 79.612 389.007 79.54 390.411 79.432C391.419 79.36 392.031 79.324 392.031 78.1V77.92C392.031 77.704 392.031 76.84 391.707 76.84C391.419 76.84 391.203 76.984 390.951 76.984C390.735 76.984 390.555 76.948 390.375 76.84H390.411ZM398.931 57.184C398.643 56.392 398.463 55.528 398.463 54.664C398.463 53.548 398.931 51.892 400.335 51.892C402.459 51.892 401.883 55.42 402.567 55.708C403.035 55.924 403.539 55.924 404.043 55.924C404.655 55.924 404.835 55.492 404.835 54.952C404.835 52.468 403.359 49.732 400.551 49.732C397.563 49.732 396.051 52.108 396.051 54.88C396.051 60.064 401.775 64.096 403.143 69.1C403.467 70.396 403.503 71.764 403.503 73.096C403.503 74.536 403.467 78.82 401.379 78.82C399.075 78.82 399.147 74.536 399.147 72.952C399.147 71.656 398.895 71.044 397.455 71.044C396.555 71.044 396.375 71.944 396.375 72.628C396.375 75.868 397.419 80.476 401.451 80.476C404.655 80.476 406.419 76.84 406.419 74.032C406.419 69.568 404.619 65.284 401.991 61.756C400.911 60.28 399.579 58.948 398.931 57.184ZM17.2519 112.392C17.2519 112.32 17.2519 112.248 17.2519 112.176C17.2519 111.312 17.6839 110.412 17.7919 109.548C18.0439 107.064 18.1879 104.544 18.1879 102.06C18.1879 98.64 17.8279 94.932 16.2439 91.836C15.4519 90.324 13.7239 88.56 11.8879 88.56C11.1319 88.56 10.4839 88.848 9.94394 89.316C7.78394 91.152 7.85594 94.968 7.78394 97.56C7.71194 99.576 7.63994 101.628 7.63994 103.68C7.63994 107.424 7.45994 116.244 12.9319 116.244C14.2639 116.244 15.4159 115.56 16.1719 114.516C16.8919 115.2 18.8359 117.684 19.7359 117.684C19.9159 117.684 20.2039 116.928 20.3119 116.784C20.3119 116.748 20.6719 116.244 20.6719 116.172C20.6719 115.092 17.5759 113.688 17.2519 112.392ZM13.1479 113.544C13.0039 113.58 12.8239 113.58 12.6799 113.58C10.0879 113.58 10.0879 107.64 10.0879 105.948C10.0879 104.832 10.1599 103.752 10.1599 102.636C10.1599 101.232 10.0519 99.864 10.0519 98.46C10.0519 96.876 10.0159 91.332 12.4279 91.332C15.6319 91.332 15.1639 100.224 15.1639 102.276C15.1639 103.896 15.3799 105.552 15.3799 107.208C15.3799 108.9 15.3079 113.004 13.1479 113.544ZM33.5748 91.476V91.296C33.5748 90.648 33.6828 90 33.6828 89.352C33.6828 88.056 33.2868 87.804 32.0628 87.804C31.4868 87.804 30.6228 87.912 30.6228 88.668C30.6228 89.064 30.6948 89.496 30.7668 89.892C30.9468 91.26 30.9468 92.628 30.9468 93.996C30.9468 97.236 30.9108 100.44 30.9108 103.68C30.9108 105.372 30.6948 115.632 28.8948 115.632C28.4988 115.632 28.2828 115.2 28.1028 114.912C26.9148 112.644 27.1308 109.656 27.0588 107.172C26.9868 102.672 26.7708 98.208 26.7708 93.708C26.7708 92.232 26.7708 90.684 27.1308 89.244C27.2028 88.848 27.3468 88.416 27.3468 88.02C27.3468 87.552 26.8428 87.444 26.5188 87.444C24.4668 87.444 24.6468 88.236 24.6468 89.856C24.6468 91.44 24.4668 93.024 24.3588 94.572C24.1428 97.92 23.9988 101.304 23.9988 104.652C23.9988 107.784 24.0708 118.8 28.6068 118.8C28.7868 118.8 28.9308 118.8 29.1108 118.764C32.8188 117.792 33.0708 112.716 33.3588 109.62C33.7188 105.66 33.8268 101.7 33.8268 97.704C33.8268 95.616 33.6828 93.564 33.5748 91.476ZM45.2079 114.84C44.2359 114.012 44.3079 108.576 44.2719 107.172C44.1999 103.464 44.1639 99.756 43.8039 96.048C43.6599 94.788 43.3719 93.528 43.3719 92.268C43.3719 91.872 43.4439 91.368 43.9119 91.368C44.3079 91.368 44.7039 91.512 45.0999 91.512C45.5319 91.512 45.5679 91.188 45.5679 90.864C45.5679 90.108 45.4239 89.388 45.3519 88.632C44.1639 88.776 42.9759 88.848 41.7519 88.848C41.2119 88.848 40.6719 88.74 40.1319 88.74C38.9439 88.74 38.8359 89.352 38.8359 90.36C38.8359 90.792 38.8719 91.728 39.4839 91.728C39.9519 91.728 40.4199 91.548 40.9239 91.476C40.9959 98.172 41.4999 104.868 42.0039 111.564C42.0759 112.428 42.1479 113.328 42.1479 114.192C42.1479 115.236 41.1759 115.02 40.4919 115.02H40.1679C40.1679 115.704 40.0599 117.612 41.0679 117.612C42.4359 117.612 43.8039 117.54 45.2079 117.432C46.2159 117.36 46.8279 117.324 46.8279 116.1V115.92C46.8279 115.704 46.8279 114.84 46.5039 114.84C46.2159 114.84 45.9999 114.984 45.7479 114.984C45.5319 114.984 45.3519 114.948 45.1719 114.84H45.2079ZM72.627 88.2C71.367 88.344 71.547 89.064 71.547 90.036C71.547 93.24 70.755 98.028 70.395 101.34C70.179 103.356 69.927 105.372 69.675 107.388C69.567 108.288 69.531 109.188 69.387 110.088C69.387 110.16 69.315 110.736 69.243 110.736C69.171 110.736 69.171 110.664 69.135 110.592C68.919 110.088 69.027 109.08 68.919 108.504C68.775 107.208 68.451 105.912 68.199 104.616C67.767 102.384 67.479 100.08 67.047 97.848C66.687 95.868 66.183 93.924 65.859 91.944C65.679 91.008 65.715 90.036 65.391 89.172C65.067 88.308 65.175 88.56 64.311 88.38C63.951 88.272 63.555 88.164 63.159 88.164C62.727 88.164 62.583 88.416 62.583 88.812C62.583 90.432 63.483 93.168 63.807 94.896C64.599 99.216 65.031 103.608 66.183 107.856C66.579 109.404 66.867 110.988 67.155 112.536C67.371 113.868 67.047 118.08 68.883 118.08C70.647 118.08 70.791 118.152 71.043 116.46C71.943 109.836 72.663 103.212 73.383 96.552C73.527 94.968 73.707 93.384 73.959 91.836C74.103 90.828 74.715 89.676 74.715 88.668C74.715 88.2 73.635 88.164 73.311 88.164C73.095 88.164 72.843 88.164 72.627 88.2ZM88.0606 114.732C94.1446 114.732 95.7646 107.208 95.7646 102.42C95.7646 97.488 94.2166 91.26 88.1326 91.26C82.5526 91.26 80.2126 97.272 80.2126 102.024C80.2126 106.992 81.6886 114.732 88.0606 114.732ZM88.1326 94.14C91.8766 94.14 93.1006 99.324 93.1006 102.276C93.1006 105.516 92.4526 111.924 88.0606 111.924C83.2366 111.924 83.0566 105.804 83.0566 102.312C83.0566 99 83.8846 94.14 88.1326 94.14ZM110.18 91.476V91.296C110.18 90.648 110.288 90 110.288 89.352C110.288 88.056 109.892 87.804 108.668 87.804C108.092 87.804 107.228 87.912 107.228 88.668C107.228 89.064 107.3 89.496 107.372 89.892C107.552 91.26 107.552 92.628 107.552 93.996C107.552 97.236 107.516 100.44 107.516 103.68C107.516 105.372 107.3 115.632 105.5 115.632C105.104 115.632 104.888 115.2 104.708 114.912C103.52 112.644 103.736 109.656 103.664 107.172C103.592 102.672 103.376 98.208 103.376 93.708C103.376 92.232 103.376 90.684 103.736 89.244C103.808 88.848 103.952 88.416 103.952 88.02C103.952 87.552 103.448 87.444 103.124 87.444C101.072 87.444 101.252 88.236 101.252 89.856C101.252 91.44 101.072 93.024 100.964 94.572C100.748 97.92 100.604 101.304 100.604 104.652C100.604 107.784 100.676 118.8 105.212 118.8C105.392 118.8 105.536 118.8 105.716 118.764C109.424 117.792 109.676 112.716 109.964 109.62C110.324 105.66 110.432 101.7 110.432 97.704C110.432 95.616 110.288 93.564 110.18 91.476ZM119.041 95.184C118.753 94.392 118.573 93.528 118.573 92.664C118.573 91.548 119.041 89.892 120.445 89.892C122.569 89.892 121.993 93.42 122.677 93.708C123.145 93.924 123.649 93.924 124.153 93.924C124.765 93.924 124.945 93.492 124.945 92.952C124.945 90.468 123.469 87.732 120.661 87.732C117.673 87.732 116.161 90.108 116.161 92.88C116.161 98.064 121.885 102.096 123.253 107.1C123.577 108.396 123.613 109.764 123.613 111.096C123.613 112.536 123.577 116.82 121.489 116.82C119.185 116.82 119.257 112.536 119.257 110.952C119.257 109.656 119.005 109.044 117.565 109.044C116.665 109.044 116.485 109.944 116.485 110.628C116.485 113.868 117.529 118.476 121.561 118.476C124.765 118.476 126.529 114.84 126.529 112.032C126.529 107.568 124.729 103.284 122.101 99.756C121.021 98.28 119.689 96.948 119.041 95.184ZM150.725 112.644C150.581 114.12 150.293 117 148.313 117C145.685 117 145.505 109.44 145.505 107.568C145.505 105.624 145.649 103.68 145.649 101.736C145.649 100.08 145.541 98.424 145.541 96.732C145.541 95.184 145.685 89.28 147.917 89.28C150.041 89.28 150.437 93.456 150.581 94.968C151.085 94.824 151.625 94.644 152.165 94.572C152.453 94.5 152.993 94.572 152.993 94.104C152.993 93.888 152.885 93.636 152.777 93.456C152.741 92.664 152.489 91.908 152.237 91.116C151.589 89.064 150.401 85.896 147.809 85.896C145.901 85.896 144.569 87.66 143.921 89.28C142.697 92.412 143.021 96.444 143.021 99.792C143.021 101.772 142.949 103.788 142.949 105.804C142.949 107.244 142.985 108.72 143.093 110.16C143.345 113.436 143.597 120.312 148.205 120.312C151.733 120.312 153.353 116.172 153.353 113.22C153.353 112.644 151.337 112.644 150.977 112.644H150.725ZM166.74 114.732C172.824 114.732 174.444 107.208 174.444 102.42C174.444 97.488 172.896 91.26 166.812 91.26C161.232 91.26 158.892 97.272 158.892 102.024C158.892 106.992 160.368 114.732 166.74 114.732ZM166.812 94.14C170.556 94.14 171.78 99.324 171.78 102.276C171.78 105.516 171.132 111.924 166.74 111.924C161.916 111.924 161.736 105.804 161.736 102.312C161.736 99 162.564 94.14 166.812 94.14ZM189.796 110.412C189.292 108.252 188.644 106.092 188.212 103.896C188.032 102.888 187.852 101.88 187.564 100.872C187.42 100.332 187.132 99.792 187.132 99.216C187.132 98.244 188.968 96.084 188.968 93.924C188.968 89.532 185.476 88.848 181.876 88.848C180.364 88.848 179.356 88.92 179.356 90.756C179.356 91.98 179.644 93.168 179.716 94.392C180.04 98.82 180.364 103.248 180.544 107.676C180.616 109.98 180.976 112.284 180.976 114.588C180.976 115.2 180.868 115.812 180.868 116.424C180.868 116.892 181.048 117.36 181.624 117.36C182.164 117.36 183.712 117.396 183.712 116.604C183.712 116.1 183.568 115.596 183.496 115.056C183.208 112.968 183.352 110.844 183.208 108.72C183.1 106.596 182.992 104.472 182.668 102.384C182.596 101.916 182.452 101.448 182.452 100.944C182.452 100.512 182.668 100.152 183.136 100.152L183.352 100.188C184.504 100.404 185.044 103.68 185.332 104.652C186.592 108.576 187.924 112.464 189.292 116.316C189.472 116.856 189.4 117.036 189.976 117.216C190.156 117.252 190.516 117.216 190.696 117.216C190.948 117.216 191.38 117.324 191.524 117.036C190.732 114.876 190.3 112.68 189.796 110.412ZM186.52 94.356C186.448 96.264 184.792 98.604 182.74 98.604C182.38 98.604 182.452 97.812 182.416 97.596L182.164 94.392C182.092 93.492 181.912 92.592 181.912 91.692C181.912 90.9 182.02 90.36 182.992 90.36C185.332 90.36 186.52 91.728 186.52 94.032V94.356ZM206.467 110.412C205.963 108.252 205.315 106.092 204.883 103.896C204.703 102.888 204.523 101.88 204.235 100.872C204.091 100.332 203.803 99.792 203.803 99.216C203.803 98.244 205.639 96.084 205.639 93.924C205.639 89.532 202.147 88.848 198.547 88.848C197.035 88.848 196.027 88.92 196.027 90.756C196.027 91.98 196.315 93.168 196.387 94.392C196.711 98.82 197.035 103.248 197.215 107.676C197.287 109.98 197.647 112.284 197.647 114.588C197.647 115.2 197.539 115.812 197.539 116.424C197.539 116.892 197.719 117.36 198.295 117.36C198.835 117.36 200.383 117.396 200.383 116.604C200.383 116.1 200.239 115.596 200.167 115.056C199.879 112.968 200.023 110.844 199.879 108.72C199.771 106.596 199.663 104.472 199.339 102.384C199.267 101.916 199.123 101.448 199.123 100.944C199.123 100.512 199.339 100.152 199.807 100.152L200.023 100.188C201.175 100.404 201.715 103.68 202.003 104.652C203.263 108.576 204.595 112.464 205.963 116.316C206.143 116.856 206.071 117.036 206.647 117.216C206.827 117.252 207.187 117.216 207.367 117.216C207.619 117.216 208.051 117.324 208.195 117.036C207.403 114.876 206.971 112.68 206.467 110.412ZM203.191 94.356C203.119 96.264 201.463 98.604 199.411 98.604C199.051 98.604 199.123 97.812 199.087 97.596L198.835 94.392C198.763 93.492 198.583 92.592 198.583 91.692C198.583 90.9 198.691 90.36 199.663 90.36C202.003 90.36 203.191 91.728 203.191 94.032V94.356ZM216.946 86.976C216.01 86.904 215.11 86.688 214.174 86.688C212.878 86.688 212.734 87.588 212.734 88.632C212.734 89.388 212.878 90.144 212.878 90.936C212.95 93.672 212.95 96.444 212.95 99.18C212.95 105.012 212.914 110.808 212.914 116.64C212.914 117.324 212.698 118.008 212.698 118.692C212.698 119.52 212.914 119.556 213.67 119.556C215.038 119.556 216.442 119.34 217.81 119.124C218.278 119.052 218.818 119.052 218.818 118.404C218.818 117.792 218.782 117.18 218.782 116.568C218.782 116.172 218.71 115.992 218.314 115.992C217.558 115.992 216.91 116.424 216.19 116.424C215.722 116.424 215.614 115.992 215.614 115.596C215.614 114.948 215.794 114.264 215.794 113.58C215.794 112.608 215.758 111.6 215.722 110.628C215.686 109.476 215.362 108.36 215.362 107.208C215.362 106.524 215.434 105.588 216.334 105.588C216.91 105.588 217.414 105.948 217.99 105.948C218.35 105.948 218.674 105.66 218.674 105.3C218.674 104.904 218.53 104.544 218.494 104.148C218.386 103.104 218.638 102.924 217.342 102.924C216.874 102.924 216.442 103.14 215.974 103.14C215.542 103.14 215.506 102.456 215.506 102.132C215.29 99.936 215.398 97.74 215.398 95.544C215.398 93.996 215.11 92.448 215.11 90.864C215.11 90.396 215.218 90.144 215.758 90.144C216.694 90.144 217.522 90.792 218.458 90.792C219.394 90.792 219.394 88.884 219.394 88.236C219.394 86.796 218.566 87.012 217.486 87.012L216.946 86.976ZM227.97 95.184C227.682 94.392 227.502 93.528 227.502 92.664C227.502 91.548 227.97 89.892 229.374 89.892C231.498 89.892 230.922 93.42 231.606 93.708C232.074 93.924 232.578 93.924 233.082 93.924C233.694 93.924 233.874 93.492 233.874 92.952C233.874 90.468 232.398 87.732 229.59 87.732C226.602 87.732 225.09 90.108 225.09 92.88C225.09 98.064 230.814 102.096 232.182 107.1C232.506 108.396 232.542 109.764 232.542 111.096C232.542 112.536 232.506 116.82 230.418 116.82C228.114 116.82 228.186 112.536 228.186 110.952C228.186 109.656 227.934 109.044 226.494 109.044C225.594 109.044 225.414 109.944 225.414 110.628C225.414 113.868 226.458 118.476 230.49 118.476C233.694 118.476 235.458 114.84 235.458 112.032C235.458 107.568 233.658 103.284 231.03 99.756C229.95 98.28 228.618 96.948 227.97 95.184ZM242.447 86.256C242.087 86.328 241.763 86.292 241.439 86.292C240.395 86.292 239.567 86.4 239.567 87.66C239.567 88.884 239.747 90.072 239.747 91.296C239.747 99.756 240.143 108.252 240.143 116.712C240.143 117.36 240.035 118.008 240.035 118.656C240.035 119.664 240.287 119.592 241.115 119.808C241.475 119.88 241.799 120.024 242.195 120.024C242.735 120.024 242.735 119.52 242.735 119.124C242.735 118.044 242.663 116.928 242.663 115.848C242.663 113.76 242.735 111.708 242.735 109.62C242.735 106.668 242.519 103.716 242.519 100.764C242.519 99.288 243.887 99.72 244.823 99.36C247.379 98.352 248.531 95.22 248.531 92.7C248.531 89.568 246.875 86.184 243.347 86.184C243.023 86.184 242.735 86.22 242.447 86.256ZM243.707 97.164C243.491 97.272 243.239 97.344 243.023 97.344C242.267 97.344 242.303 95.472 242.303 95.004C242.303 94.284 242.375 93.564 242.375 92.844C242.375 91.944 242.195 91.044 242.195 90.108C242.195 89.82 242.303 88.524 242.699 88.524C245.183 88.524 245.903 90.72 245.903 92.808C245.903 94.464 245.363 96.48 243.707 97.164ZM261.704 114.732C267.788 114.732 269.408 107.208 269.408 102.42C269.408 97.488 267.86 91.26 261.776 91.26C256.196 91.26 253.856 97.272 253.856 102.024C253.856 106.992 255.332 114.732 261.704 114.732ZM261.776 94.14C265.52 94.14 266.744 99.324 266.744 102.276C266.744 105.516 266.096 111.924 261.704 111.924C256.88 111.924 256.7 105.804 256.7 102.312C256.7 99 257.528 94.14 261.776 94.14ZM286.128 99.504C286.056 96.768 285.912 94.032 285.912 91.296C285.912 90.396 286.02 89.532 286.02 88.668C286.02 86.796 285.48 87.048 283.932 86.904C283.68 86.868 283.428 86.832 283.176 86.832C282.852 86.832 282.636 87.156 282.636 87.48C282.636 95.076 283.5 103.212 283.68 110.916C283.248 110.304 282.996 108.684 282.78 107.892C280.98 101.124 278.748 94.5 277.02 87.696C276.696 86.256 275.292 86.76 274.284 86.616C274.14 86.868 274.14 87.12 274.14 87.372C274.14 89.136 274.392 90.9 274.464 92.664C274.752 101.124 275.184 109.584 275.184 118.044C275.184 119.232 276.12 119.16 276.984 119.16C277.992 119.16 278.316 118.944 278.316 117.864C278.316 116.892 278.136 115.884 278.064 114.912C277.776 110.52 277.956 106.128 277.452 101.736C277.344 100.656 277.128 99.9 277.128 97.992C277.812 99.18 278.64 102.564 279.072 103.968C280.332 108.144 281.7 112.356 282.672 116.604C282.852 117.252 283.032 119.592 283.968 119.592C284.364 119.592 286.128 119.412 286.38 119.196C286.524 119.052 286.524 118.8 286.524 118.62C286.524 117.72 286.344 116.856 286.344 115.956C286.344 114.66 286.38 113.4 286.38 112.104C286.38 107.892 286.2 103.716 286.128 99.504ZM300.796 93.384C299.392 90.252 296.26 87.948 292.804 87.948C292.3 87.948 291.904 88.056 291.904 88.668C291.904 89.064 291.976 89.46 292.012 89.892C292.156 91.368 292.156 92.808 292.192 94.284C292.372 100.476 292.804 106.668 293.056 112.86C293.128 114.3 293.236 115.704 293.236 117.144C293.236 117.936 293.416 118.26 294.28 118.26C300.832 118.26 302.776 111.708 302.776 106.524C302.776 102.096 302.596 97.488 300.796 93.384ZM296.404 114.948C295.864 114.948 295.864 114.264 295.864 113.904C295.864 111.816 295.684 109.836 295.54 107.748C295.288 104.184 295.108 100.62 294.82 97.056C294.784 96.588 294.316 90.936 294.496 90.936C297.52 90.936 299.824 98.352 299.824 103.716C299.824 105.696 299.86 114.948 296.404 114.948ZM324.642 115.236C324.426 115.272 324.21 115.272 323.994 115.272C323.382 115.272 323.346 114.912 323.346 114.408C323.346 113.472 323.382 112.536 323.382 111.6C323.382 106.38 323.274 101.16 323.202 95.94C323.166 94.5 323.058 93.096 323.058 91.656C323.058 90.9 323.238 90.144 323.238 89.352C323.238 88.488 322.986 88.524 322.266 88.344C321.978 88.236 321.69 88.164 321.366 88.164C320.538 88.164 320.502 89.172 320.502 89.784C320.502 95.544 320.718 101.304 320.718 107.028C320.718 109.692 320.394 112.356 320.394 114.984C320.394 115.848 320.394 117.972 321.654 117.972C322.05 117.972 322.446 117.936 322.842 117.936C324.678 117.936 326.478 118.08 328.314 118.08C328.926 118.08 328.926 117.108 328.926 116.676C328.926 116.172 328.89 115.668 328.854 115.164C328.566 114.804 328.098 114.732 327.702 114.732C326.658 114.732 325.65 115.092 324.642 115.236ZM337.342 86.976C336.406 86.904 335.506 86.688 334.57 86.688C333.274 86.688 333.13 87.588 333.13 88.632C333.13 89.388 333.274 90.144 333.274 90.936C333.346 93.672 333.346 96.444 333.346 99.18C333.346 105.012 333.31 110.808 333.31 116.64C333.31 117.324 333.094 118.008 333.094 118.692C333.094 119.52 333.31 119.556 334.066 119.556C335.434 119.556 336.838 119.34 338.206 119.124C338.674 119.052 339.214 119.052 339.214 118.404C339.214 117.792 339.178 117.18 339.178 116.568C339.178 116.172 339.106 115.992 338.71 115.992C337.954 115.992 337.306 116.424 336.586 116.424C336.118 116.424 336.01 115.992 336.01 115.596C336.01 114.948 336.19 114.264 336.19 113.58C336.19 112.608 336.154 111.6 336.118 110.628C336.082 109.476 335.758 108.36 335.758 107.208C335.758 106.524 335.83 105.588 336.73 105.588C337.306 105.588 337.81 105.948 338.386 105.948C338.746 105.948 339.07 105.66 339.07 105.3C339.07 104.904 338.926 104.544 338.89 104.148C338.782 103.104 339.034 102.924 337.738 102.924C337.27 102.924 336.838 103.14 336.37 103.14C335.938 103.14 335.902 102.456 335.902 102.132C335.686 99.936 335.794 97.74 335.794 95.544C335.794 93.996 335.506 92.448 335.506 90.864C335.506 90.396 335.614 90.144 336.154 90.144C337.09 90.144 337.918 90.792 338.854 90.792C339.79 90.792 339.79 88.884 339.79 88.236C339.79 86.796 338.962 87.012 337.882 87.012L337.342 86.976ZM376.048 101.448C375.976 99.432 376.084 97.416 376.084 95.364C376.084 93.708 375.94 92.088 375.724 90.468C375.58 89.604 375.832 89.784 374.896 89.676C374.644 89.64 374.392 89.604 374.104 89.604C374.032 89.604 373.204 89.676 373.132 89.676C371.548 90.54 367.084 111.78 366.904 111.708C366.112 111.492 362.26 97.02 361.324 93.492C361.108 92.736 360.64 89.748 360.064 89.424C359.776 89.28 359.524 89.244 359.236 89.244C358.696 89.244 357.184 89.28 357.184 90.036C357.184 98.352 358.228 107.676 358.228 116.028C358.516 116.856 358.48 116.676 359.308 116.82C359.812 116.928 360.28 116.964 360.82 116.964C360.928 116.964 361.036 116.964 361.144 116.928C361.288 116.712 361.288 116.424 361.288 116.172C361.288 114.876 360.928 113.652 360.82 112.392C360.352 107.964 359.596 102.96 359.596 98.532C359.596 98.316 359.596 98.1 359.704 97.92C359.704 97.956 359.668 98.028 359.668 98.064C359.668 98.172 363.016 109.008 363.088 109.26C363.664 111.204 364.348 113.112 364.816 115.092C364.96 115.74 364.96 116.28 365.68 116.532C365.896 116.604 366.112 116.604 366.328 116.604C366.76 116.604 367.444 116.64 367.804 116.46C368.272 116.28 368.884 112.644 369.064 111.96C370.108 108.36 371.08 104.652 372.052 101.052C372.196 100.512 372.988 98.064 372.916 97.704C373.204 98.136 373.06 100.512 373.06 101.124C373.06 103.14 373.384 105.156 373.456 107.136C373.564 109.692 373.564 112.248 373.564 114.768C373.564 115.596 373.924 116.028 374.032 116.712C374.428 116.928 374.824 116.928 375.256 116.928C376.228 116.928 376.588 116.712 376.588 115.668C376.588 114.768 376.336 113.904 376.3 113.004C376.048 109.152 376.192 105.3 376.048 101.448ZM388.242 114.84C387.27 114.012 387.342 108.576 387.306 107.172C387.234 103.464 387.198 99.756 386.838 96.048C386.694 94.788 386.406 93.528 386.406 92.268C386.406 91.872 386.478 91.368 386.946 91.368C387.342 91.368 387.738 91.512 388.134 91.512C388.566 91.512 388.602 91.188 388.602 90.864C388.602 90.108 388.458 89.388 388.386 88.632C387.198 88.776 386.01 88.848 384.786 88.848C384.246 88.848 383.706 88.74 383.166 88.74C381.978 88.74 381.87 89.352 381.87 90.36C381.87 90.792 381.906 91.728 382.518 91.728C382.986 91.728 383.454 91.548 383.958 91.476C384.03 98.172 384.534 104.868 385.038 111.564C385.11 112.428 385.182 113.328 385.182 114.192C385.182 115.236 384.21 115.02 383.526 115.02H383.202C383.202 115.704 383.094 117.612 384.102 117.612C385.47 117.612 386.838 117.54 388.242 117.432C389.25 117.36 389.862 117.324 389.862 116.1V115.92C389.862 115.704 389.862 114.84 389.538 114.84C389.25 114.84 389.034 114.984 388.782 114.984C388.566 114.984 388.386 114.948 388.206 114.84H388.242ZM397.734 86.976C396.798 86.904 395.898 86.688 394.962 86.688C393.666 86.688 393.522 87.588 393.522 88.632C393.522 89.388 393.666 90.144 393.666 90.936C393.738 93.672 393.738 96.444 393.738 99.18C393.738 105.012 393.702 110.808 393.702 116.64C393.702 117.324 393.486 118.008 393.486 118.692C393.486 119.52 393.702 119.556 394.458 119.556C395.826 119.556 397.23 119.34 398.598 119.124C399.066 119.052 399.606 119.052 399.606 118.404C399.606 117.792 399.57 117.18 399.57 116.568C399.57 116.172 399.498 115.992 399.102 115.992C398.346 115.992 397.698 116.424 396.978 116.424C396.51 116.424 396.402 115.992 396.402 115.596C396.402 114.948 396.582 114.264 396.582 113.58C396.582 112.608 396.546 111.6 396.51 110.628C396.474 109.476 396.15 108.36 396.15 107.208C396.15 106.524 396.222 105.588 397.122 105.588C397.698 105.588 398.202 105.948 398.778 105.948C399.138 105.948 399.462 105.66 399.462 105.3C399.462 104.904 399.318 104.544 399.282 104.148C399.174 103.104 399.426 102.924 398.13 102.924C397.662 102.924 397.23 103.14 396.762 103.14C396.33 103.14 396.294 102.456 396.294 102.132C396.078 99.936 396.186 97.74 396.186 95.544C396.186 93.996 395.898 92.448 395.898 90.864C395.898 90.396 396.006 90.144 396.546 90.144C397.482 90.144 398.31 90.792 399.246 90.792C400.182 90.792 400.182 88.884 400.182 88.236C400.182 86.796 399.354 87.012 398.274 87.012L397.734 86.976ZM414.985 91.476V91.296C414.985 90.648 415.093 90 415.093 89.352C415.093 88.056 414.697 87.804 413.473 87.804C412.897 87.804 412.033 87.912 412.033 88.668C412.033 89.064 412.105 89.496 412.177 89.892C412.357 91.26 412.357 92.628 412.357 93.996C412.357 97.236 412.321 100.44 412.321 103.68C412.321 105.372 412.105 115.632 410.305 115.632C409.909 115.632 409.693 115.2 409.513 114.912C408.325 112.644 408.541 109.656 408.469 107.172C408.397 102.672 408.181 98.208 408.181 93.708C408.181 92.232 408.181 90.684 408.541 89.244C408.613 88.848 408.757 88.416 408.757 88.02C408.757 87.552 408.253 87.444 407.929 87.444C405.877 87.444 406.057 88.236 406.057 89.856C406.057 91.44 405.877 93.024 405.769 94.572C405.553 97.92 405.409 101.304 405.409 104.652C405.409 107.784 405.481 118.8 410.017 118.8C410.197 118.8 410.341 118.8 410.521 118.764C414.229 117.792 414.481 112.716 414.769 109.62C415.129 105.66 415.237 101.7 415.237 97.704C415.237 95.616 415.093 93.564 414.985 91.476ZM431.19 86.076C430.794 86.112 430.434 86.076 430.038 86.076C429.57 86.076 428.886 86.076 428.454 86.292C427.77 86.652 427.878 87.66 427.806 88.308C427.446 91.044 426.87 93.744 426.33 96.444C426.15 97.416 426.222 98.424 425.934 99.36C425.934 99.396 425.754 99.972 425.682 100.08C425.646 99.828 425.538 99.612 425.466 99.36C424.746 96.912 424.638 94.356 424.242 91.836C423.99 90.396 424.062 88.92 423.63 87.552C423.342 86.652 423.594 86.832 422.658 86.724C422.442 86.688 422.262 86.652 422.046 86.652C421.47 86.652 420.894 86.76 420.282 86.724C420.786 89.532 421.218 92.34 421.614 95.148C422.046 97.992 423.162 100.692 423.162 103.608C423.162 109.116 420.606 114.624 420.174 120.132C420.93 120.06 421.722 120.132 422.514 119.952C423.234 119.772 423.054 119.988 423.342 119.34C424.026 117.9 423.882 116.1 424.17 114.552C424.422 113.148 424.746 111.744 424.962 110.34C425.07 109.908 424.998 107.46 425.394 107.46C425.826 107.46 425.79 109.368 425.826 109.692C426.006 111.132 426.33 112.608 426.582 114.048C426.87 115.56 427.122 117.144 427.338 118.692C427.482 119.7 427.266 119.7 428.31 119.952C429.102 120.168 429.93 120.06 430.722 120.132C430.254 117.36 429.93 114.552 429.39 111.78C428.886 109.224 427.95 106.704 427.95 104.076C427.95 100.872 428.958 97.596 429.678 94.464C430.29 91.692 430.614 88.884 431.19 86.076ZM450.111 113.508C449.679 113.508 449.319 113.832 449.319 114.264C449.283 115.236 449.247 116.244 449.247 117.252C449.247 117.396 449.211 117.828 449.319 117.972C449.499 118.224 450.795 118.26 451.119 118.26C451.551 118.26 451.875 117.936 451.875 117.504C451.875 116.46 451.875 115.38 451.839 114.3C451.839 113.904 451.551 113.616 451.119 113.58C450.795 113.544 450.435 113.544 450.111 113.508ZM448.959 91.152C449.319 94.428 449.211 98.244 449.319 101.592C449.319 102.348 449.319 103.104 449.319 103.896C449.319 105.696 449.247 107.496 449.247 109.296C449.247 109.476 449.211 109.872 449.319 110.052C449.463 110.304 450.831 110.34 451.119 110.34C451.551 110.34 451.875 110.016 451.875 109.584C451.875 104.256 451.731 98.892 451.731 93.564C451.731 92.376 451.875 91.224 451.875 90.036C451.875 89.496 451.839 88.992 451.767 88.452C451.659 87.804 451.839 87.552 451.011 87.552C450.615 87.552 448.851 87.588 448.707 88.056C448.779 88.2 448.671 88.74 448.671 88.956C448.671 89.676 448.851 90.432 448.959 91.152Z" fill="white"/>
</g>
<defs>
<filter id="filter0_d" x="0.63916" y="0.359985" width="460.235" height="130.952" filterUnits="userSpaceOnUse" color-interpolation-filters="sRGB">
<feFlood flood-opacity="0" result="BackgroundImageFix"/>
<feColorMatrix in="SourceAlpha" type="matrix" values="0 0 0 0 0 0 0 0 0 0 0 0 0 0 0 0 0 0 127 0"/>
<feOffset dx="1" dy="3"/>
<feGaussianBlur stdDeviation="4"/>
<feColorMatrix type="matrix" values="0 0 0 0 0.0901961 0 0 0 0 0.117647 0 0 0 0 0.694118 0 0 0 1 0"/>
<feBlend mode="normal" in2="BackgroundImageFix" result="effect1_dropShadow"/>
<feBlend mode="normal" in="SourceGraphic" in2="effect1_dropShadow" result="shape"/>
</filter>
</defs>
</svg>
