<svg width="292" height="89" viewBox="0 0 292 89" fill="none" xmlns="http://www.w3.org/2000/svg">
<g filter="url(#filter0_d)">
<path d="M103.042 14.184C102.754 13.392 102.574 12.528 102.574 11.664C102.574 10.548 103.042 8.892 104.446 8.892C106.57 8.892 105.994 12.42 106.678 12.708C107.146 12.924 107.65 12.924 108.154 12.924C108.766 12.924 108.946 12.492 108.946 11.952C108.946 9.468 107.47 6.732 104.662 6.732C101.674 6.732 100.162 9.108 100.162 11.88C100.162 17.064 105.886 21.096 107.254 26.1C107.578 27.396 107.614 28.764 107.614 30.096C107.614 31.536 107.578 35.82 105.49 35.82C103.186 35.82 103.258 31.536 103.258 29.952C103.258 28.656 103.006 28.044 101.566 28.044C100.666 28.044 100.486 28.944 100.486 29.628C100.486 32.868 101.53 37.476 105.562 37.476C108.766 37.476 110.53 33.84 110.53 31.032C110.53 26.568 108.73 22.284 106.102 18.756C105.022 17.28 103.69 15.948 103.042 14.184ZM125.979 16.344C125.655 13.104 125.187 6.264 120.723 6.264C117.447 6.264 113.739 10.224 113.739 13.428C113.739 14.292 114.927 14.256 115.503 14.256C115.647 14.256 115.791 14.292 115.935 14.256C117.303 14.148 117.267 13.86 117.267 12.6C117.267 11.088 118.275 9.252 119.967 9.252C120.759 9.252 121.371 9.792 121.803 10.368C123.315 12.456 123.315 24.3 123.315 27.432C123.279 27.468 123.207 27.468 123.135 27.468C122.199 27.468 121.011 26.424 119.715 26.424C117.231 26.424 116.043 28.584 116.043 30.816C116.043 35.892 119.391 38.16 124.179 38.16C126.627 38.16 126.339 37.152 126.339 35.208C126.339 32.112 126.447 29.016 126.447 25.92C126.447 22.716 126.339 19.512 125.979 16.344ZM122.451 35.316C120.543 35.316 119.211 33.264 119.211 31.5C119.211 30.276 120.039 29.304 121.299 29.304C122.919 29.304 123.423 29.7 123.423 31.356C123.423 32.256 123.711 33.12 123.711 34.02C123.711 34.56 123.603 35.316 122.919 35.316H122.451ZM135.946 33.12C135.118 25.92 134.974 18.684 134.686 11.448C134.65 10.836 134.686 10.188 134.686 9.576C134.686 8.532 134.578 7.2 133.21 7.2C132.706 7.2 132.238 7.452 131.734 7.344C131.59 7.488 131.518 7.668 131.518 7.884C131.518 8.424 131.734 8.964 131.806 9.54C131.914 10.368 131.806 11.232 131.806 12.096C131.806 17.532 132.418 22.932 132.706 28.368C132.85 30.816 132.814 33.3 133.246 35.748C133.426 36.756 133.39 36.576 134.326 36.792C134.686 36.864 135.082 37.008 135.442 37.008C136.162 37.008 136.234 36.036 136.234 35.532C136.234 34.74 136.054 33.912 135.946 33.12ZM154.864 10.8H154.504C153.604 10.8 152.524 10.836 152.524 12.024C152.524 12.708 152.596 13.356 152.596 14.004C152.596 15.804 152.56 17.604 152.56 19.404C152.56 22.284 153.316 29.772 148.852 29.772C144.712 29.772 144.532 24.552 144.532 21.528C144.532 18.36 144.64 15.228 144.64 12.06C144.64 11.556 144.028 11.556 143.704 11.556C143.02 11.556 142.588 11.592 142.048 12.06C141.904 12.204 141.76 18.972 141.76 19.8C141.76 24.012 142.156 32.364 148.024 32.364C154.612 32.364 155.692 25.236 155.692 20.088C155.692 17.352 155.368 14.652 155.368 11.916C155.368 11.448 155.368 11.016 154.864 10.8ZM170.443 35.424C170.083 35.1 168.895 34.02 168.499 34.02C168.103 34.02 167.707 34.992 166.843 34.992C164.431 34.992 164.431 30.204 164.431 28.548C164.431 24.048 164.683 19.512 164.971 15.012C165.511 15.012 168.643 15.012 168.643 14.364C168.643 14.004 168.535 13.68 168.535 13.32C168.535 13.104 168.571 12.924 168.571 12.708C168.571 12.168 167.959 12.096 167.563 12.096C166.843 12.096 166.159 12.276 165.439 12.276H165.151C165.259 10.692 165.475 9.108 165.475 7.524C165.475 6.408 164.755 5.832 163.639 5.832C161.947 5.832 162.379 8.352 162.379 9.396C162.379 10.296 162.307 11.196 162.307 12.132H162.055C160.147 12.132 159.895 12.168 159.895 14.148C159.895 14.292 159.895 14.436 159.931 14.544C160.435 14.904 161.623 14.94 162.271 14.976C162.235 19.152 161.767 23.292 161.767 27.468C161.767 30.816 161.767 38.376 166.555 38.376C167.743 38.376 170.587 37.116 170.587 35.712C170.587 35.604 170.515 35.496 170.443 35.424ZM188.89 32.508C188.458 32.508 188.098 32.832 188.098 33.264C188.062 34.236 188.026 35.244 188.026 36.252C188.026 36.396 187.99 36.828 188.098 36.972C188.278 37.224 189.574 37.26 189.898 37.26C190.33 37.26 190.654 36.936 190.654 36.504C190.654 35.46 190.654 34.38 190.618 33.3C190.618 32.904 190.33 32.616 189.898 32.58C189.574 32.544 189.214 32.544 188.89 32.508ZM187.738 10.152C188.098 13.428 187.99 17.244 188.098 20.592C188.098 21.348 188.098 22.104 188.098 22.896C188.098 24.696 188.026 26.496 188.026 28.296C188.026 28.476 187.99 28.872 188.098 29.052C188.242 29.304 189.61 29.34 189.898 29.34C190.33 29.34 190.654 29.016 190.654 28.584C190.654 23.256 190.51 17.892 190.51 12.564C190.51 11.376 190.654 10.224 190.654 9.036C190.654 8.496 190.618 7.992 190.546 7.452C190.438 6.804 190.618 6.552 189.79 6.552C189.394 6.552 187.63 6.588 187.486 7.056C187.558 7.2 187.45 7.74 187.45 7.956C187.45 8.676 187.63 9.432 187.738 10.152ZM31.1812 62.696C31.1092 59.168 31.0372 55.676 31.0372 52.148C31.0372 51.32 30.8932 50.96 29.9932 50.96C29.5972 50.96 28.6612 50.96 28.3012 51.104C27.4732 51.464 26.6092 53.408 26.1412 54.2C24.6652 56.612 23.0092 58.916 21.5332 61.328C21.2452 61.76 19.6252 64.748 19.4092 64.748C18.6532 64.748 15.9532 59.744 15.4132 58.844C13.9012 56.54 12.3172 54.308 10.8052 52.004C9.86924 50.6 9.40124 50.636 7.78124 50.636C7.16924 50.636 7.16924 52.148 7.16924 52.58C7.16924 53.516 7.31324 54.488 7.31324 55.424C7.31324 58.772 7.34924 62.12 7.34924 65.504C7.34924 66.512 7.16924 67.556 7.16924 68.564C7.16924 68.816 7.24124 69.14 7.45724 69.284C7.49324 69.248 7.52924 69.248 7.56524 69.248C8.21324 69.248 8.86124 69.608 9.54524 69.608C10.1932 69.608 10.4812 69.572 10.4812 68.816C10.4812 66.62 10.1212 64.46 10.0852 62.264C10.0132 59.852 9.86924 57.44 9.83324 55.028C10.1932 55.316 10.4092 56.108 10.6252 56.504C11.0932 57.368 11.6332 58.16 12.1732 58.988C12.9292 60.176 13.6132 61.436 14.2972 62.66C15.1252 64.028 16.0252 65.36 16.8532 66.728C17.5012 67.808 17.5372 68.492 18.9412 68.708C19.0852 68.744 19.2652 68.744 19.4092 68.744C20.5612 68.744 20.8132 67.88 21.2812 67.016C22.1812 65.36 28.1212 55.532 28.5172 55.496C29.0212 55.892 28.7332 66.944 29.2012 68.636C29.4532 69.428 29.2372 69.14 29.9932 69.356C30.2812 69.464 30.5692 69.608 30.8572 69.608C31.3612 69.608 31.5772 69.248 31.5772 68.78C31.5772 68.096 31.3972 67.448 31.3612 66.8C31.2892 65.432 31.2172 64.064 31.1812 62.696ZM45.0578 71.732C51.1418 71.732 52.7618 64.208 52.7618 59.42C52.7618 54.488 51.2138 48.26 45.1298 48.26C39.5498 48.26 37.2098 54.272 37.2098 59.024C37.2098 63.992 38.6858 71.732 45.0578 71.732ZM45.1298 51.14C48.8738 51.14 50.0978 56.324 50.0978 59.276C50.0978 62.516 49.4498 68.924 45.0578 68.924C40.2338 68.924 40.0538 62.804 40.0538 59.312C40.0538 56 40.8818 51.14 45.1298 51.14ZM61.5976 72.02C61.6336 71.804 61.6696 71.588 61.6696 71.336C61.6696 70.256 61.3816 69.212 61.2736 68.132C60.9496 64.964 61.0216 61.796 61.0216 58.628C61.0216 57.8 60.9136 57.008 59.9056 57.008C58.2496 57.008 57.9256 57.512 57.9256 59.096C57.9256 60.428 58.2136 61.76 58.3576 63.128C58.6096 65.432 58.5376 67.808 58.5376 70.112C58.5376 72.2 58.7536 72.272 60.7696 72.272C61.0576 72.272 61.3816 72.272 61.5976 72.02ZM58.3576 53.948C58.7896 53.948 59.2216 54.056 59.6536 54.056C60.4096 54.056 60.6616 53.516 60.6616 52.832C60.6616 52.184 60.5176 51.572 60.4816 50.924C60.4816 50.384 60.5536 49.88 60.5536 49.34C60.5536 48.116 59.6536 47.936 58.6096 47.936C58.2856 47.936 57.9616 47.936 57.6736 48.008C57.5296 48.08 57.4936 48.26 57.4936 48.404C57.4936 48.908 57.7096 49.34 57.7816 49.808C57.9256 50.852 57.8536 51.896 57.8536 52.94C57.8536 53.264 57.8536 53.66 57.9616 53.984C58.1056 53.948 58.2136 53.948 58.3576 53.948ZM86.9734 43.328C86.3254 42.932 85.5694 42.752 84.8134 42.752C80.6014 42.752 79.5934 46.82 79.3054 50.24C79.0174 53.372 79.0534 56.54 79.0534 59.708C79.0534 64.28 79.1254 71.228 82.6894 74.576C83.4094 75.26 84.3454 75.692 85.3534 75.692C86.5774 75.692 87.6934 75.044 88.4854 74.108C90.2134 72.056 90.1054 69.068 90.2494 66.548C89.6734 66.656 89.0614 66.728 88.4494 66.764C87.6214 66.8 87.5494 66.692 87.3334 67.592C87.0814 68.456 87.2614 69.392 87.0454 70.256C86.8294 71.156 86.1094 72.524 85.0654 72.524C81.5734 72.524 81.8254 60.14 81.8254 57.656C81.8254 56.432 81.7534 55.208 81.7534 53.984C81.7534 52.04 81.7534 45.92 84.5974 45.92C88.1254 45.92 87.0454 52.904 87.6574 55.064C87.8734 55.892 88.0174 55.964 88.8814 55.964C89.3854 55.964 89.8894 55.928 90.3934 55.928C90.4294 55.532 90.4294 55.136 90.4294 54.74C90.4294 51.572 89.9614 45.164 86.9734 43.328ZM98.8632 44.696C98.6472 43.364 98.2152 43.472 97.5312 43.472C97.0272 43.472 96.4152 43.148 96.1272 44.048C96.0552 44.156 96.0552 44.3 96.0552 44.516C96.0192 45.488 95.9832 46.46 95.9472 47.396C95.9112 48.116 95.7672 50.276 96.0912 50.852C96.3432 51.392 96.4152 51.32 96.8112 51.284C97.3872 51.14 97.4952 51.068 98.1072 50.996C98.3592 50.924 98.6112 50.636 98.6472 50.132C98.7192 48.728 99.0792 46.064 98.8632 44.732V44.696ZM114.734 64.244H114.59C113.942 64.244 113.33 64.136 112.682 64.136C112.394 64.136 112.034 64.136 111.782 64.316C111.062 64.748 111.926 69.212 109.55 69.212C107.138 69.212 107.174 63.992 106.994 62.336C106.922 61.688 106.814 61.04 106.814 60.392C106.814 59.132 107.966 58.88 108.974 58.88C110.198 58.88 111.422 58.988 112.646 58.988C113.978 58.988 114.878 58.736 114.878 57.188C114.878 53.912 113.15 48.08 109.118 48.08C103.934 48.08 103.61 56.612 103.61 60.284C103.61 63.812 104.762 72.128 109.514 72.128C113.15 72.128 115.094 68.096 115.094 64.928C115.094 64.64 115.058 64.316 114.734 64.244ZM107.21 55.316V54.524C107.21 53.372 107.21 50.888 108.866 50.888C110.558 50.888 111.782 53.876 111.782 55.244C111.782 56.036 111.278 56.036 110.666 56.108C109.802 56.216 108.974 56.504 108.11 56.504C107.858 56.504 107.138 56.468 107.138 56.108C107.138 55.82 107.174 55.568 107.21 55.316ZM127.32 61.112C126.06 58.808 122.388 55.964 122.388 53.264C122.388 52.796 122.46 51.716 123.144 51.716C124.656 51.716 123.396 53.66 125.16 53.66C125.736 53.66 126.312 53.588 126.888 53.516C126.816 51.536 125.376 49.196 123.216 49.196C121.164 49.196 119.796 51.14 119.796 53.048C119.796 58.016 125.988 60.5 125.988 65.9C125.988 66.836 125.556 68.42 124.368 68.42C122.928 68.42 123.036 66.62 123.036 65.612C123.036 64.82 122.28 64.316 121.524 64.316C120.552 64.316 120.192 65.108 120.192 65.972C120.192 68.24 121.812 71.012 124.332 71.012C127.104 71.012 128.544 68.204 128.544 65.756C128.544 64.136 128.076 62.516 127.32 61.112ZM142.92 73.424C142.56 73.1 141.372 72.02 140.976 72.02C140.58 72.02 140.184 72.992 139.32 72.992C136.908 72.992 136.908 68.204 136.908 66.548C136.908 62.048 137.16 57.512 137.448 53.012C137.988 53.012 141.12 53.012 141.12 52.364C141.12 52.004 141.012 51.68 141.012 51.32C141.012 51.104 141.048 50.924 141.048 50.708C141.048 50.168 140.436 50.096 140.04 50.096C139.32 50.096 138.636 50.276 137.916 50.276H137.628C137.736 48.692 137.952 47.108 137.952 45.524C137.952 44.408 137.232 43.832 136.116 43.832C134.424 43.832 134.856 46.352 134.856 47.396C134.856 48.296 134.784 49.196 134.784 50.132H134.532C132.624 50.132 132.372 50.168 132.372 52.148C132.372 52.292 132.372 52.436 132.408 52.544C132.912 52.904 134.1 52.94 134.748 52.976C134.712 57.152 134.244 61.292 134.244 65.468C134.244 68.816 134.244 76.376 139.032 76.376C140.22 76.376 143.064 75.116 143.064 73.712C143.064 73.604 142.992 73.496 142.92 73.424ZM167.594 69.644C167.45 71.12 167.162 74 165.182 74C162.554 74 162.374 66.44 162.374 64.568C162.374 62.624 162.518 60.68 162.518 58.736C162.518 57.08 162.41 55.424 162.41 53.732C162.41 52.184 162.554 46.28 164.786 46.28C166.91 46.28 167.306 50.456 167.45 51.968C167.954 51.824 168.494 51.644 169.034 51.572C169.322 51.5 169.862 51.572 169.862 51.104C169.862 50.888 169.754 50.636 169.646 50.456C169.61 49.664 169.358 48.908 169.106 48.116C168.458 46.064 167.27 42.896 164.678 42.896C162.77 42.896 161.438 44.66 160.79 46.28C159.566 49.412 159.89 53.444 159.89 56.792C159.89 58.772 159.818 60.788 159.818 62.804C159.818 64.244 159.854 65.72 159.962 67.16C160.214 70.436 160.466 77.312 165.074 77.312C168.602 77.312 170.222 73.172 170.222 70.22C170.222 69.644 168.206 69.644 167.846 69.644H167.594ZM186.705 54.344C186.381 51.104 185.913 44.264 181.449 44.264C178.173 44.264 174.465 48.224 174.465 51.428C174.465 52.292 175.653 52.256 176.229 52.256C176.373 52.256 176.517 52.292 176.661 52.256C178.029 52.148 177.993 51.86 177.993 50.6C177.993 49.088 179.001 47.252 180.693 47.252C181.485 47.252 182.097 47.792 182.529 48.368C184.041 50.456 184.041 62.3 184.041 65.432C184.005 65.468 183.933 65.468 183.861 65.468C182.925 65.468 181.737 64.424 180.441 64.424C177.957 64.424 176.769 66.584 176.769 68.816C176.769 73.892 180.117 76.16 184.905 76.16C187.353 76.16 187.065 75.152 187.065 73.208C187.065 70.112 187.173 67.016 187.173 63.92C187.173 60.716 187.065 57.512 186.705 54.344ZM183.177 73.316C181.269 73.316 179.937 71.264 179.937 69.5C179.937 68.276 180.765 67.304 182.025 67.304C183.645 67.304 184.149 67.7 184.149 69.356C184.149 70.256 184.437 71.12 184.437 72.02C184.437 72.56 184.329 73.316 183.645 73.316H183.177ZM216.363 62.696C216.291 59.168 216.219 55.676 216.219 52.148C216.219 51.32 216.075 50.96 215.175 50.96C214.779 50.96 213.843 50.96 213.483 51.104C212.655 51.464 211.791 53.408 211.323 54.2C209.847 56.612 208.191 58.916 206.715 61.328C206.427 61.76 204.807 64.748 204.591 64.748C203.835 64.748 201.135 59.744 200.595 58.844C199.083 56.54 197.499 54.308 195.987 52.004C195.051 50.6 194.583 50.636 192.963 50.636C192.351 50.636 192.351 52.148 192.351 52.58C192.351 53.516 192.495 54.488 192.495 55.424C192.495 58.772 192.531 62.12 192.531 65.504C192.531 66.512 192.351 67.556 192.351 68.564C192.351 68.816 192.423 69.14 192.639 69.284C192.675 69.248 192.711 69.248 192.747 69.248C193.395 69.248 194.043 69.608 194.727 69.608C195.375 69.608 195.663 69.572 195.663 68.816C195.663 66.62 195.303 64.46 195.267 62.264C195.195 59.852 195.051 57.44 195.015 55.028C195.375 55.316 195.591 56.108 195.807 56.504C196.275 57.368 196.815 58.16 197.355 58.988C198.111 60.176 198.795 61.436 199.479 62.66C200.307 64.028 201.207 65.36 202.035 66.728C202.683 67.808 202.719 68.492 204.123 68.708C204.267 68.744 204.447 68.744 204.591 68.744C205.743 68.744 205.995 67.88 206.463 67.016C207.363 65.36 213.303 55.532 213.699 55.496C214.203 55.892 213.915 66.944 214.383 68.636C214.635 69.428 214.419 69.14 215.175 69.356C215.463 69.464 215.751 69.608 216.039 69.608C216.543 69.608 216.759 69.248 216.759 68.78C216.759 68.096 216.579 67.448 216.543 66.8C216.471 65.432 216.399 64.064 216.363 62.696ZM226.136 72.02C226.172 71.804 226.208 71.588 226.208 71.336C226.208 70.256 225.92 69.212 225.812 68.132C225.488 64.964 225.56 61.796 225.56 58.628C225.56 57.8 225.452 57.008 224.444 57.008C222.788 57.008 222.464 57.512 222.464 59.096C222.464 60.428 222.752 61.76 222.896 63.128C223.148 65.432 223.076 67.808 223.076 70.112C223.076 72.2 223.292 72.272 225.308 72.272C225.596 72.272 225.92 72.272 226.136 72.02ZM222.896 53.948C223.328 53.948 223.76 54.056 224.192 54.056C224.948 54.056 225.2 53.516 225.2 52.832C225.2 52.184 225.056 51.572 225.02 50.924C225.02 50.384 225.092 49.88 225.092 49.34C225.092 48.116 224.192 47.936 223.148 47.936C222.824 47.936 222.5 47.936 222.212 48.008C222.068 48.08 222.032 48.26 222.032 48.404C222.032 48.908 222.248 49.34 222.32 49.808C222.464 50.852 222.392 51.896 222.392 52.94C222.392 53.264 222.392 53.66 222.5 53.984C222.644 53.948 222.752 53.948 222.896 53.948ZM235.709 71.12C234.881 63.92 234.737 56.684 234.449 49.448C234.413 48.836 234.449 48.188 234.449 47.576C234.449 46.532 234.341 45.2 232.973 45.2C232.469 45.2 232.001 45.452 231.497 45.344C231.353 45.488 231.281 45.668 231.281 45.884C231.281 46.424 231.497 46.964 231.569 47.54C231.677 48.368 231.569 49.232 231.569 50.096C231.569 55.532 232.181 60.932 232.469 66.368C232.613 68.816 232.577 71.3 233.009 73.748C233.189 74.756 233.153 74.576 234.089 74.792C234.449 74.864 234.845 75.008 235.205 75.008C235.925 75.008 235.997 74.036 235.997 73.532C235.997 72.74 235.817 71.912 235.709 71.12ZM245.735 71.12C244.907 63.92 244.763 56.684 244.475 49.448C244.439 48.836 244.475 48.188 244.475 47.576C244.475 46.532 244.367 45.2 242.999 45.2C242.495 45.2 242.027 45.452 241.523 45.344C241.379 45.488 241.307 45.668 241.307 45.884C241.307 46.424 241.523 46.964 241.595 47.54C241.703 48.368 241.595 49.232 241.595 50.096C241.595 55.532 242.207 60.932 242.495 66.368C242.639 68.816 242.603 71.3 243.035 73.748C243.215 74.756 243.179 74.576 244.115 74.792C244.475 74.864 244.871 75.008 245.231 75.008C245.951 75.008 246.023 74.036 246.023 73.532C246.023 72.74 245.843 71.912 245.735 71.12ZM262.566 64.244H262.422C261.774 64.244 261.162 64.136 260.514 64.136C260.226 64.136 259.866 64.136 259.614 64.316C258.894 64.748 259.758 69.212 257.382 69.212C254.97 69.212 255.006 63.992 254.826 62.336C254.754 61.688 254.646 61.04 254.646 60.392C254.646 59.132 255.798 58.88 256.806 58.88C258.03 58.88 259.254 58.988 260.478 58.988C261.81 58.988 262.71 58.736 262.71 57.188C262.71 53.912 260.982 48.08 256.95 48.08C251.766 48.08 251.442 56.612 251.442 60.284C251.442 63.812 252.594 72.128 257.346 72.128C260.982 72.128 262.926 68.096 262.926 64.928C262.926 64.64 262.89 64.316 262.566 64.244ZM255.042 55.316V54.524C255.042 53.372 255.042 50.888 256.698 50.888C258.39 50.888 259.614 53.876 259.614 55.244C259.614 56.036 259.11 56.036 258.498 56.108C257.634 56.216 256.806 56.504 255.942 56.504C255.69 56.504 254.97 56.468 254.97 56.108C254.97 55.82 255.006 55.568 255.042 55.316ZM281.234 70.508C280.802 70.508 280.442 70.832 280.442 71.264C280.406 72.236 280.37 73.244 280.37 74.252C280.37 74.396 280.334 74.828 280.442 74.972C280.622 75.224 281.918 75.26 282.242 75.26C282.674 75.26 282.998 74.936 282.998 74.504C282.998 73.46 282.998 72.38 282.962 71.3C282.962 70.904 282.674 70.616 282.242 70.58C281.918 70.544 281.558 70.544 281.234 70.508ZM280.082 48.152C280.442 51.428 280.334 55.244 280.442 58.592C280.442 59.348 280.442 60.104 280.442 60.896C280.442 62.696 280.37 64.496 280.37 66.296C280.37 66.476 280.334 66.872 280.442 67.052C280.586 67.304 281.954 67.34 282.242 67.34C282.674 67.34 282.998 67.016 282.998 66.584C282.998 61.256 282.854 55.892 282.854 50.564C282.854 49.376 282.998 48.224 282.998 47.036C282.998 46.496 282.962 45.992 282.89 45.452C282.782 44.804 282.962 44.552 282.134 44.552C281.738 44.552 279.974 44.588 279.83 45.056C279.902 45.2 279.794 45.74 279.794 45.956C279.794 46.676 279.974 47.432 280.082 48.152Z" fill="white"/>
</g>
<defs>
<filter id="filter0_d" x="0.16925" y="0.831997" width="291.829" height="87.48" filterUnits="userSpaceOnUse" color-interpolation-filters="sRGB">
<feFlood flood-opacity="0" result="BackgroundImageFix"/>
<feColorMatrix in="SourceAlpha" type="matrix" values="0 0 0 0 0 0 0 0 0 0 0 0 0 0 0 0 0 0 127 0"/>
<feOffset dx="1" dy="3"/>
<feGaussianBlur stdDeviation="4"/>
<feColorMatrix type="matrix" values="0 0 0 0 0.243137 0 0 0 0 0.537255 0 0 0 0 0.780392 0 0 0 1 0"/>
<feBlend mode="normal" in2="BackgroundImageFix" result="effect1_dropShadow"/>
<feBlend mode="normal" in="SourceGraphic" in2="effect1_dropShadow" result="shape"/>
</filter>
</defs>
</svg>
