<svg width="101" height="30" viewBox="0 0 101 30" fill="none" xmlns="http://www.w3.org/2000/svg">
<g clip-path="url(#clip0)">
<path d="M72.7336 11.5275L73.0119 12.7683C73.0119 12.7683 70.4078 13.0485 66.2136 8.06515C64.6234 6.16388 64.1065 4.90304 64.0866 4.06248C60.8863 3.02179 56.2547 1.92105 50.4901 1.32065C53.2929 5.78363 57.2287 13.9891 52.2593 12.0078C46.8326 9.80631 46.3157 3.44207 46.3157 0.980425C43.0955 0.800305 39.597 0.780292 35.8599 1.00044C38.0863 5.7436 42.2805 15.8704 35.9792 13.0685C29.8568 10.3467 29.5984 4.36268 29.8568 1.5408C26.5371 1.92105 23.794 2.38136 21.508 2.86168C23.4561 7.10451 26.2787 14.4894 21.7466 13.2886C17.3336 12.1078 16.4789 7.08449 16.3795 4.20257C11.9865 5.62352 10.8733 6.90437 10.8733 6.90437L9.14392 13.9891L74.4232 15.8103C74.4232 15.8103 73.8666 13.809 72.7336 11.5275Z" fill="#DBBC3A"/>
<path d="M35.9791 13.0485C42.2804 15.8704 38.0861 5.72363 35.8598 0.980469C34.5677 1.06052 33.2558 1.16059 31.9041 1.30068C31.1885 1.38074 30.5126 1.44078 29.8567 1.52083C29.5983 4.34271 29.8765 10.3267 35.9791 13.0485Z" fill="#BCA133"/>
<path d="M21.7466 13.2487C26.2787 14.4695 23.4561 7.08462 21.508 2.82178C19.4407 3.26207 17.7511 3.70236 16.3795 4.14266C16.4789 7.04459 17.3337 12.0679 21.7466 13.2487Z" fill="#BCA133"/>
<path d="M52.2791 12.0078C57.2287 14.0092 53.3128 5.80368 50.51 1.3207C49.1782 1.1806 47.7867 1.06052 46.3356 0.980469C46.3157 3.44211 46.8326 9.80635 52.2791 12.0078Z" fill="#BCA133"/>
<path d="M73.0318 12.7682L72.7535 11.5274C71.5608 9.08573 69.7519 6.32389 67.3268 5.24317C66.5118 4.88293 65.4185 4.48266 64.1265 4.06238C64.1463 4.90294 64.6632 6.18379 66.2534 8.06505C70.4079 13.0284 73.0318 12.7682 73.0318 12.7682Z" fill="#BCA133"/>
<path d="M82.9907 15.6103C82.2751 11.8678 76.5303 6.3241 66.3926 3.30209C66.3926 3.30209 64.524 3.3221 64.9613 4.76306C65.2595 5.76373 68.0424 8.8658 69.7321 10.687C70.1495 11.1473 69.7321 11.8678 69.1357 11.7077C66.3131 10.9472 60.9659 8.62564 57.3083 1.48087C56.9704 0.840445 56.3144 0.440178 55.5988 0.440178H49.377C48.1446 0.440178 47.2302 1.58094 47.5085 2.80175C48.0253 5.08327 49.1584 8.48554 51.5636 10.3668C52.0407 10.727 51.7624 11.5076 51.166 11.4675C48.4428 11.2874 43.8112 9.70636 41.7836 1.40082C41.5849 0.580271 40.8692 0.0198975 40.0344 0.0198975L32.6398 0.580271C31.5664 0.580271 30.7315 1.5209 30.8507 2.60162C31.1489 5.38347 31.9043 9.00589 36.0389 11.4675C36.3569 11.6476 36.2178 12.148 35.86 12.128C33.2162 12.0479 27.4119 10.9272 24.8078 3.04191C24.5693 2.32143 23.8139 1.88114 23.0785 2.02123L18.3475 2.92183C17.4927 3.08194 16.9362 3.94251 17.1349 4.78307C17.5723 6.68434 18.6258 9.82644 20.9118 11.4075C21.2298 11.6276 21.0111 12.148 20.6335 12.0479C18.5264 11.5876 15.7037 10.1667 14.9086 6.0239C14.7695 5.28341 14.0737 4.80309 13.3382 4.90315C10.1776 5.34345 1.21268 6.96453 0.298292 12.2481C0.11939 13.2687 0.02 14.1493 0.00012207 14.9499C8.03083 17.1913 33.097 20.2734 82.9907 15.6103Z" fill="#E28A2B"/>
<path d="M4.21408 20.7338C6.75846 20.9339 78.1204 20.7338 78.1204 20.7338C78.1204 20.7338 82.4339 21.3342 83.0303 18.7525C83.1893 18.072 83.4477 16.3509 82.6327 14.4696C32.739 19.1327 8.03065 17.1914 -5.23413e-05 14.9499C-0.11932 19.4129 2.04738 20.5737 4.21408 20.7338Z" fill="#C67728"/>
<path d="M89.928 20.1535L90.2262 21.4744C90.2262 21.4744 87.4631 21.7545 83.0303 16.491C81.3407 14.4897 80.804 13.1488 80.7642 12.2482C77.3651 11.1475 72.4552 9.9867 66.3527 9.34628C69.3145 14.0694 73.4889 22.7752 68.2411 20.6538C62.4765 18.3323 61.9199 11.5878 61.9398 8.98604C58.5407 8.7859 54.8235 8.76589 50.8678 9.00605C53.2332 14.0294 57.666 24.7566 51.0069 21.7746C44.5267 18.8926 44.2484 12.5484 44.5068 9.56642C41.0083 9.96669 38.0862 10.447 35.6611 10.9674C37.7284 15.4704 40.7101 23.2956 35.9195 21.9947C31.2283 20.7339 30.3537 15.4303 30.2344 12.3683C25.583 13.8693 24.4102 15.2302 24.4102 15.2302L22.5615 22.7752L91.717 24.6965C91.717 24.6965 91.1207 22.5751 89.928 20.1535Z" fill="#FED93F"/>
<path d="M51.0068 21.7746C57.6858 24.7566 53.2332 14.0295 50.8677 9.0061C49.4961 9.08616 48.1047 9.18622 46.6734 9.32632C45.9181 9.40637 45.2025 9.48642 44.5067 9.56648C44.2483 12.5485 44.5266 18.8727 51.0068 21.7746Z" fill="#E2C23B"/>
<path d="M35.9196 21.9946C40.7102 23.2955 37.7285 15.4503 35.6612 10.9673C33.4746 11.4276 31.6856 11.9079 30.2345 12.3682C30.3538 15.4102 31.2284 20.7338 35.9196 21.9946Z" fill="#E2C23B"/>
<path d="M68.2411 20.6539C73.4889 22.7753 69.3344 14.0695 66.3527 9.34632C64.9414 9.20623 63.4704 9.08615 61.9199 8.98608C61.9398 11.5878 62.4964 18.3323 68.2411 20.6539Z" fill="#E2C23B"/>
<path d="M90.2261 21.4744L89.9279 20.1536C88.6756 17.5718 86.7475 14.6299 84.1832 13.5091C83.3086 13.1289 82.1755 12.6886 80.7841 12.2483C80.8039 13.1489 81.3605 14.4898 83.0501 16.4911C87.4631 21.7546 90.2261 21.4744 90.2261 21.4744Z" fill="#E2C23B"/>
<path d="M100.761 24.4963C100.006 20.5337 93.9234 14.6698 83.1893 11.4677C83.1893 11.4677 81.2015 11.4877 81.6786 13.0087C81.9966 14.0694 84.9585 17.3516 86.7276 19.2929C87.1649 19.7732 86.7077 20.5337 86.0915 20.3736C83.1098 19.5731 77.4446 17.1114 73.5684 9.54639C73.2305 8.86593 72.5149 8.44565 71.7595 8.44565H65.16C63.8679 8.44565 62.8939 9.66647 63.1722 10.9273C63.7089 13.3489 64.9215 16.9513 67.4658 18.9326C67.9628 19.3329 67.6646 20.1334 67.0285 20.0934C64.1462 19.9133 59.2364 18.2322 57.0895 9.42631C56.8709 8.56573 56.1155 7.96533 55.221 7.96533L47.3891 8.56573C46.2362 8.56573 45.3615 9.5664 45.4808 10.7072C45.7989 13.6491 46.594 17.4917 50.987 20.1134C51.3249 20.3136 51.1858 20.8339 50.7882 20.8139C47.9854 20.7338 41.8431 19.533 39.0801 11.1875C38.8217 10.407 38.0266 9.96667 37.2314 10.1068L32.2222 11.0674C31.3078 11.2475 30.7313 12.1481 30.9301 13.0487C31.4072 15.0701 32.5005 18.3923 34.9256 20.0734C35.2635 20.3136 35.025 20.8539 34.6274 20.7539C32.4409 20.2335 29.4592 18.7325 28.6044 14.3496C28.4454 13.5691 27.7099 13.0687 26.9347 13.1688C23.5952 13.6491 14.0935 15.3503 13.1195 20.934C12.9406 22.0147 12.8412 22.9553 12.8213 23.7959C21.3887 26.1575 47.9457 29.4196 100.761 24.4963Z" fill="#F79F2D"/>
<path d="M17.3542 29.9199C20.0576 30.1201 95.6336 29.9199 95.6336 29.9199C95.6336 29.9199 100.206 30.5404 100.822 27.8386C100.981 27.1181 101.259 25.2969 100.404 23.2955C47.5687 28.2188 21.4093 26.1775 12.9015 23.7959C12.7624 28.499 15.0682 29.7398 17.3542 29.9199Z" fill="#E0892B"/>
</g>
<defs>
<clipPath id="clip0">
<rect width="101" height="30" fill="white"/>
</clipPath>
</defs>
</svg>
