<svg width="126" height="76" viewBox="0 0 126 76" fill="none" xmlns="http://www.w3.org/2000/svg">
<g clip-path="url(#clip0)">
<path d="M100.593 22.9865L23.0518 44.0684L25.2371 52.1062L102.779 31.0243L100.593 22.9865Z" fill="#D6DCE5"/>
<path d="M24.8447 50.6628L9.27683 54.8953C7.85556 55.2817 6.38653 54.448 6.00299 53.0373C5.61944 51.6265 6.4641 50.1638 7.88536 49.7773L23.4532 45.5448L24.8447 50.6628Z" fill="#D6DCE5"/>
<path d="M117.987 25.3394L102.419 29.572L101.028 24.454L116.596 20.2214C118.017 19.835 119.486 20.6688 119.87 22.0795C120.253 23.4902 119.409 24.953 117.987 25.3394Z" fill="#D6DCE5"/>
<path d="M15.0045 56.5091L15.1697 56.4642C16.2605 56.1676 16.9121 55.0392 16.6177 53.9566L14.8159 47.3294C14.5216 46.2468 13.3883 45.6036 12.2976 45.9001L12.1323 45.9451C11.0416 46.2416 10.39 47.3701 10.6843 48.4527L12.4861 55.0798C12.7805 56.1625 13.9137 56.8057 15.0045 56.5091Z" fill="#3BC3D1"/>
<path d="M25.7774 24.1961C23.8604 24.7173 22.7261 26.6816 23.2434 28.5844L33.3673 65.8211C33.8846 67.7239 35.8573 68.8435 37.7744 68.3223L40.3525 67.6214L28.3555 23.4952L25.7774 24.1961Z" fill="#42DBFD"/>
<path d="M45.4646 62.5321L35.3408 25.2954C34.8235 23.3926 32.8508 22.273 30.9337 22.7942L28.3556 23.4951L40.3615 67.6542L42.9396 66.9532C44.8566 66.432 45.982 64.4349 45.4646 62.5321Z" fill="#3BC3D1"/>
<path d="M16.8544 30.6738C15.367 31.0782 14.4741 32.6245 14.8755 34.1009L23.3491 65.2681C23.7505 66.7444 25.3035 67.6258 26.7909 67.2214L28.6749 66.7092L18.7384 30.1615L16.8544 30.6738Z" fill="#42DBFD"/>
<path d="M20.6224 29.6493L18.7384 30.1615L28.6838 66.742L30.5678 66.2298C32.0552 65.8254 32.9481 64.279 32.5467 62.8027L24.0731 31.6354C23.6628 30.1263 22.1098 29.2449 20.6224 29.6493Z" fill="#3BC3D1"/>
<path d="M11.6101 38.0187C10.4863 38.3242 9.81054 39.4944 10.1138 40.6099L15.9651 62.1317C16.2684 63.2471 17.4436 63.9141 18.5674 63.6086L19.8895 63.2491L12.9322 37.6592L11.6101 38.0187Z" fill="#42DBFD"/>
<path d="M15.6682 37.4086L22.3758 62.0799C22.7404 61.5932 22.8773 60.9218 22.7079 60.2984L16.8566 38.7767C16.654 38.1623 16.2291 37.6436 15.6682 37.4086Z" fill="#42DBFD"/>
<path d="M14.2212 37.3088L12.899 37.6682L19.8564 63.2581L21.1785 62.8987C21.6743 62.7639 22.0924 62.4741 22.3757 62.0799L15.6681 37.4086C15.2243 37.2122 14.7169 37.174 14.2212 37.3088Z" fill="#3BC3D1"/>
<path d="M114.298 29.2666L114.133 29.3115C113.042 29.608 111.909 28.9649 111.615 27.8822L109.813 21.2551C109.519 20.1724 110.17 19.044 111.261 18.7474L111.426 18.7025C112.517 18.406 113.65 19.0491 113.945 20.1318L115.746 26.7589C116.041 27.8416 115.389 28.97 114.298 29.2666Z" fill="#3BC3D1"/>
<path d="M88.6475 6.85644C90.5645 6.33523 92.5372 7.45484 93.0546 9.35768L103.178 46.5943C103.696 48.4972 102.561 50.4615 100.644 50.9827L98.0663 51.6836L86.0693 7.55737L88.6475 6.85644Z" fill="#42DBFD"/>
<path d="M91.1141 49.8743L80.9903 12.6377C80.4729 10.7348 81.6072 8.77051 83.5242 8.24931L86.1024 7.54838L98.1082 51.7074L95.5301 52.4083C93.6131 52.9296 91.6314 51.7771 91.1141 49.8743Z" fill="#3BC3D1"/>
<path d="M99.6551 7.91552C101.142 7.51113 102.695 8.39252 103.097 9.86886L111.571 41.0361C111.972 42.5124 111.079 44.0588 109.592 44.4632L107.708 44.9754L97.7711 8.42773L99.6551 7.91552Z" fill="#42DBFD"/>
<path d="M95.8871 8.93995L97.7711 8.42773L107.717 45.0082L105.833 45.5204C104.345 45.9248 102.792 45.0434 102.391 43.5671L93.9171 12.3999C93.4738 10.8997 94.3667 9.35332 95.8871 8.93995Z" fill="#3BC3D1"/>
<path d="M107.896 11.5939C109.02 11.2884 110.195 11.9554 110.499 13.0708L116.35 34.5926C116.653 35.7081 115.977 36.8783 114.854 37.1838L113.532 37.5433L106.574 11.9534L107.896 11.5939Z" fill="#42DBFD"/>
<path d="M104.088 13.1227L110.796 37.794C110.235 37.5589 109.777 37.0492 109.607 36.4259L103.756 14.9041C103.586 14.2808 103.723 13.6094 104.088 13.1227Z" fill="#42DBFD"/>
<path d="M105.252 12.3128L106.574 11.9533L113.532 37.5433L112.21 37.9027C111.714 38.0375 111.206 37.9993 110.763 37.8029L104.055 13.1315C104.371 12.7284 104.756 12.4476 105.252 12.3128Z" fill="#3BC3D1"/>
</g>
<defs>
<clipPath id="clip0">
<rect width="118" height="46" fill="white" transform="translate(0 30.9578) rotate(-15.2098)"/>
</clipPath>
</defs>
</svg>
