<svg width="40" height="39" viewBox="0 0 40 39" fill="none" xmlns="http://www.w3.org/2000/svg">
<ellipse cx="19.9997" cy="19.4909" rx="14.5453" ry="11.8181" fill="white"/>
<path d="M20 34.8821C11.141 34.8821 3.94434 28.0484 3.94434 19.6579C3.94434 11.2675 11.1513 4.42395 20 4.42395C28.8486 4.42395 36.0556 11.2577 36.0556 19.6482C36.0556 28.0386 28.859 34.8821 20 34.8821ZM20 8.34014C13.4228 8.34014 8.0744 13.4116 8.0744 19.6482C8.0744 25.8847 13.4228 30.9659 20 30.9659C26.5771 30.9659 31.9255 25.8945 31.9255 19.6579C31.9255 13.4214 26.5771 8.34014 20 8.34014Z" fill="#1E6AFF"/>
<path d="M20.0001 12.6774C18.8643 12.6774 17.9351 11.7963 17.9351 10.7193V2.35824C17.9351 1.28129 18.8643 0.400146 20.0001 0.400146C21.1359 0.400146 22.0651 1.28129 22.0651 2.35824V10.7193C22.0651 11.7963 21.1462 12.6774 20.0001 12.6774Z" fill="#1E6AFF"/>
<path d="M20.0001 38.6222C18.8643 38.6222 17.9351 37.741 17.9351 36.6641V29.1842C17.9351 28.1072 18.8643 27.2261 20.0001 27.2261C21.1359 27.2261 22.0651 28.1072 22.0651 29.1842V36.6641C22.0651 37.741 21.1462 38.6222 20.0001 38.6222Z" fill="#1E6AFF"/>
<path d="M37.9349 21.6063H30.0465C28.9107 21.6063 27.9814 20.7252 27.9814 19.6482C27.9814 18.5713 28.9107 17.6901 30.0465 17.6901H37.9349C39.0707 17.6901 39.9999 18.5713 39.9999 19.6482C39.9999 20.7252 39.081 21.6063 37.9349 21.6063Z" fill="#1E6AFF"/>
<path d="M9.95346 21.6063H2.06503C0.929265 21.6063 0 20.7252 0 19.6482C0 18.5713 0.929265 17.6901 2.06503 17.6901H9.95346C11.0892 17.6901 12.0185 18.5713 12.0185 19.6482C12.0185 20.7252 11.0892 21.6063 9.95346 21.6063Z" fill="#1E6AFF"/>
</svg>
