<svg width="637" height="499" viewBox="0 0 637 499" fill="none" xmlns="http://www.w3.org/2000/svg">
<g clip-path="url(#clip0)">
<path d="M594.3 299.8C598.2 298.5 600.7 294.6 600 290.4C599.4 287 596.9 284.4 593.7 283.6C594.6 282 595.1 280 594.8 278C594 273.4 589.7 270.3 585.1 271C582.5 271.4 580.3 273.1 579.1 275.2C575.4 273.1 571 272.2 566.5 272.9C557.3 274.4 550.8 282.3 550.6 291.3C542.2 294.4 537 303.1 538.5 312.3C540.1 322.1 549 328.9 558.8 328.2C558.6 329.2 558.6 330.2 558.7 331.2C559.5 335.8 563.8 338.9 568.4 338.2C572.2 337.6 574.9 334.6 575.4 331C577.9 331.6 580.6 331.8 583.3 331.4C593.7 329.7 600.7 319.8 599 309.5C598.4 305.7 596.7 302.4 594.3 299.8Z" fill="#31A4AA"/>
<path d="M474.4 259C479.8 253.8 482.6 246.1 481.2 238.1C479.9 230.1 474.7 223.7 467.9 220.5C469.7 217.9 470.6 214.7 470 211.3C468.9 204.6 462.5 200 455.8 201.1C452.3 201.7 449.4 203.7 447.6 206.5C442.6 202.9 436.3 201.2 429.8 202.3C427.9 202.6 426.2 203.2 424.5 203.9C419.3 197.1 410.7 193.4 401.8 194.9C392.9 196.4 385.9 202.7 383.2 210.7C380.5 207.2 376.1 205.3 371.5 206.1C364.8 207.2 360.2 213.6 361.3 220.3C361.8 223.4 363.5 226 365.8 227.9C358 232.8 353.4 242.2 355.1 251.9C357.3 264.8 369.5 273.6 382.4 271.4C389.6 270.2 395.4 265.9 398.9 260.1C403.1 263.6 408.4 265.7 414.1 265.7C417.6 276.7 428.8 283.8 440.5 281.8C446.7 280.8 451.9 277.4 455.5 272.8C457.4 278.5 463.1 282.2 469.2 281.2C475.9 280.1 480.5 273.7 479.4 267C478.7 263.6 476.9 260.8 474.4 259Z" fill="#31A4AA"/>
<path d="M388.253 119.372C402.09 117.069 411.44 103.984 409.137 90.1468C406.833 76.3095 393.749 66.9595 379.911 69.2629C366.074 71.5663 356.724 84.6509 359.028 98.4882C361.331 112.325 374.416 121.675 388.253 119.372Z" fill="#F37789"/>
<path d="M355.563 91.06C369.4 88.7566 378.75 75.672 376.447 61.8348C374.143 47.9975 361.059 38.6475 347.222 40.9509C333.384 43.2543 324.034 56.3389 326.338 70.1761C328.641 84.0134 341.726 93.3634 355.563 91.06Z" fill="#31A4AA"/>
<path d="M388.258 70.8728C402.095 68.5694 411.445 55.4848 409.142 41.6475C406.838 27.8103 393.754 18.4602 379.916 20.7636C366.079 23.0671 356.729 36.1516 359.032 49.9889C361.336 63.8261 374.42 73.1762 388.258 70.8728Z" fill="#31A4AA"/>
<path d="M433.665 82.2614C447.502 79.958 456.852 66.8735 454.549 53.0362C452.245 39.199 439.161 29.8489 425.324 32.1523C411.486 34.4557 402.136 47.5403 404.44 61.3776C406.743 75.2148 419.828 84.5648 433.665 82.2614Z" fill="#31A4AA"/>
<path d="M432.057 121.869C445.894 119.566 455.244 106.481 452.94 92.6441C450.637 78.8069 437.552 69.4568 423.715 71.7602C409.878 74.0636 400.528 87.1482 402.831 100.985C405.135 114.823 418.219 124.173 432.057 121.869Z" fill="#F37789"/>
<path d="M410.866 149.469C424.703 147.166 434.053 134.081 431.75 120.244C429.446 106.407 416.362 97.0569 402.524 99.3603C388.687 101.664 379.337 114.748 381.64 128.586C383.944 142.423 397.028 151.773 410.866 149.469Z" fill="#31A4AA"/>
<path d="M480.759 156.973C494.596 154.67 503.946 141.585 501.643 127.748C499.339 113.911 486.255 104.561 472.417 106.864C458.58 109.167 449.23 122.252 451.533 136.089C453.837 149.926 466.921 159.277 480.759 156.973Z" fill="#31A4AA"/>
<path d="M460.661 147.269C474.498 144.966 483.848 131.882 481.544 118.044C479.241 104.207 466.156 94.857 452.319 97.1604C438.482 99.4638 429.132 112.548 431.435 126.386C433.739 140.223 446.823 149.573 460.661 147.269Z" fill="#F37789"/>
<path d="M467.261 101.763C481.098 99.46 490.448 86.3754 488.145 72.5382C485.841 58.7009 472.757 49.3509 458.919 51.6543C445.082 53.9577 435.732 67.0423 438.035 80.8795C440.339 94.7168 453.423 104.067 467.261 101.763Z" fill="#31A4AA"/>
<path d="M348.566 126.061C362.404 123.758 371.754 110.673 369.45 96.8358C367.147 82.9985 354.062 73.6485 340.225 75.9519C326.388 78.2553 317.038 91.3399 319.341 105.177C321.644 119.014 334.729 128.364 348.566 126.061Z" fill="#31A4AA"/>
<path d="M480.754 131.574C494.592 129.271 503.942 116.186 501.638 102.349C499.335 88.5117 486.25 79.1617 472.413 81.4651C458.576 83.7685 449.226 96.8531 451.529 110.69C453.832 124.528 466.917 133.878 480.754 131.574Z" fill="#31A4AA"/>
<path d="M400.063 101.774C413.901 99.4702 423.251 86.3857 420.947 72.5484C418.644 58.7112 405.559 49.3611 391.722 51.6645C377.885 53.9679 368.535 67.0525 370.838 80.8898C373.142 94.727 386.226 104.077 400.063 101.774Z" fill="#F37789"/>
<path d="M419.267 50.4697C433.104 48.1663 442.454 35.0817 440.15 21.2445C437.847 7.4072 424.762 -1.94283 410.925 0.360571C397.088 2.66397 387.738 15.7486 390.041 29.5858C392.345 43.4231 405.429 52.7731 419.267 50.4697Z" fill="#31A4AA"/>
<path d="M489 483.8C489 483.8 502.8 411 504.2 342.4C505.6 273.8 406.2 246.2 406.2 246.2C406.2 246.2 428.6 230.5 506.6 297.4C506.6 297.4 516.1 195.8 482.1 144.1C446.3 89.7 373.1 80.6 373.1 80.6C373.1 80.6 452.1 75.5 504.4 158.8C504.4 158.8 533.2 98.5 566.3 100.6C566.3 100.6 509.7 134.5 519.4 184.1C529.1 233.7 527.7 342.4 527.7 342.4C527.7 342.4 555.3 308.3 571.9 311.1C571.9 311.1 531.9 341.5 527.7 376C523.5 410.5 537.4 483.9 537.4 483.9H489V483.8Z" fill="#2F4458"/>
<path d="M567.025 125.518C579.119 123.505 587.291 112.069 585.278 99.9745C583.265 87.8806 571.829 79.7085 559.735 81.7217C547.641 83.7349 539.469 95.171 541.482 107.265C543.495 119.359 554.932 127.531 567.025 125.518Z" fill="#179B6E"/>
<path d="M633.3 94.7001C632.4 89.5 629.9 85.1001 626.3 81.8001C627.5 79.0001 628 75.8001 627.4 72.5001C625.9 63.4001 617.3 57.3001 608.2 58.8001C603.5 59.6001 599.5 62.3001 597.1 66.0001C592.7 63.4001 587.4 62.3001 581.9 63.2001C579.3 63.6001 577 64.5001 574.8 65.7001C570.5 57.1001 560.9 51.9001 550.9 53.6001C542.2 55.1001 535.5 61.3001 533 69.2001C531.4 69.1001 529.9 69.2001 528.3 69.5001C516 71.6001 507.6 83.2001 509.7 95.5001C509.7 95.7001 509.8 95.9001 509.8 96.1001C509.4 96.1001 509 96.2001 508.6 96.2001C496.3 98.3 487.9 109.9 490 122.2C492.1 134.5 503.7 142.9 516 140.8C518.4 140.4 520.7 139.6 522.7 138.5C527.5 145.6 536.1 149.6 545.1 148.1C551 147.1 556 143.9 559.4 139.4C563.1 140.9 567.3 141.5 571.6 140.8C580 139.4 586.6 133.5 589.2 126C593.5 124.4 597.2 121.6 599.8 118.1C604.1 120.6 609.3 121.6 614.6 120.7C627 118.7 635.3 107 633.3 94.7001Z" fill="#31A4AA"/>
<path d="M635.799 102.6C634.999 97.5 632.499 93.2 628.999 90C630.199 87.2 630.699 84.1 630.099 80.9C628.599 72 620.199 66 611.299 67.5C606.699 68.3 602.799 70.9 600.399 74.6C596.099 72 590.899 70.9 585.499 71.8C582.999 72.2 580.599 73.1 578.499 74.2C574.199 65.8 564.899 60.7 555.099 62.3C546.499 63.7 539.999 69.9 537.599 77.6C536.099 77.5 534.499 77.6 532.899 77.9C520.799 79.9 512.699 91.3 514.699 103.4C514.699 103.6 514.799 103.8 514.799 104C514.399 104 513.999 104.1 513.599 104.1C501.499 106.1 493.399 117.5 495.399 129.6C497.399 141.7 508.799 149.8 520.899 147.8C523.299 147.4 525.499 146.6 527.499 145.6C532.199 152.5 540.599 156.5 549.399 155C555.199 154 560.099 150.9 563.399 146.5C567.099 148 571.199 148.5 575.299 147.8C583.499 146.4 589.999 140.7 592.599 133.3C596.799 131.8 600.399 129 602.999 125.5C607.299 127.9 612.299 128.9 617.499 128.1C629.699 126.1 637.799 114.6 635.799 102.6Z" fill="#3BC3D1"/>
<path d="M595.2 309.3C598.6 308.2 600.7 304.8 600.1 301.2C599.6 298.3 597.4 296 594.7 295.3C595.5 293.9 595.9 292.2 595.6 290.5C594.9 286.5 591.2 283.9 587.2 284.5C584.9 284.9 583.1 286.3 582.1 288.1C578.9 286.3 575.2 285.5 571.3 286.2C563.4 287.5 557.8 294.3 557.6 302C550.4 304.7 545.9 312.2 547.2 320C548.6 328.4 556.2 334.3 564.6 333.6C564.4 334.4 564.4 335.3 564.5 336.2C565.2 340.2 568.9 342.8 572.9 342.2C576.1 341.7 578.5 339.1 578.9 336C581 336.6 583.3 336.7 585.7 336.3C594.6 334.8 600.6 326.4 599.1 317.5C598.6 314.3 597.2 311.5 595.2 309.3Z" fill="#3BC3D1"/>
<path d="M462.8 264.4C467.8 259.5 470.4 252.3 469.2 244.9C468 237.4 463.1 231.5 456.8 228.5C458.5 226.1 459.3 223 458.8 219.9C457.8 213.6 451.8 209.3 445.5 210.4C442.2 210.9 439.5 212.8 437.8 215.4C433.2 212.1 427.3 210.5 421.2 211.5C419.5 211.8 417.8 212.3 416.3 213C411.5 206.7 403.4 203.2 395 204.6C386.6 206 380.2 211.9 377.6 219.4C375.1 216.2 370.9 214.3 366.6 215.1C360.3 216.1 356 222.1 357.1 228.4C357.6 231.3 359.2 233.8 361.3 235.5C354 240.1 349.8 248.8 351.3 257.9C353.3 270 364.7 278.1 376.8 276.1C383.5 275 389 271 392.2 265.5C396.1 268.8 401.1 270.7 406.4 270.8C409.7 281.1 420.1 287.7 431.1 285.9C436.9 284.9 441.8 281.8 445.1 277.5C446.8 282.8 452.2 286.3 458 285.3C464.3 284.3 468.6 278.3 467.5 272C466.9 268.7 465.1 266.1 462.8 264.4Z" fill="#3BC3D1"/>
<path d="M482.1 121C484.8 116.3 486 110.7 485 104.9C483.6 96.7998 478.4 90.2998 471.5 86.9998C472.4 83.6998 472.7 80.0998 472.1 76.3998C469.9 63.1998 457.5 54.2998 444.3 56.4998C442.8 56.6998 441.4 57.0998 440.1 57.5998C438.6 49.0998 432.9 42.3998 425.4 39.3998C426.7 35.6998 427.1 31.5998 426.4 27.4998C424.2 14.2998 411.8 5.39983 398.6 7.59984C388.2 9.29984 380.4 17.4998 378.8 27.3998C375.7 26.6998 372.5 26.4998 369.1 26.9998C358.6 28.7998 350.8 37.0998 349.2 46.9998C345.7 45.8998 341.8 45.4998 337.9 46.1998C324.7 48.3998 315.8 60.7998 318 73.9998C318.6 77.3998 319.9 80.5998 321.7 83.2998C314.1 88.3998 309.8 97.6998 311.4 107.3C313.6 120.5 326 129.4 339.2 127.2C346.9 125.9 353.2 121.1 356.6 114.6C360.5 118.2 365.5 120.6 370.9 121.1C370.4 123.8 370.3 126.7 370.8 129.6C373 142.8 385.4 151.7 398.6 149.5C409.3 147.7 417.1 139.2 418.6 129.1C421.2 140.2 431.1 147.8 442.2 147.8C447.5 154.5 456.2 158.3 465.2 156.7C478.4 154.5 487.3 142.1 485.1 128.9C484.5 126.2 483.5 123.5 482.1 121Z" fill="#3BC3D1"/>
<path d="M440.8 154.6C440.8 154.6 444.9 159.6 453.1 160.1C461.3 160.6 450.7 167.6 443.3 162.4C436 157.1 436.4 151.3 440.8 154.6Z" fill="#3BC3D1"/>
<path d="M353.799 236.8C353.799 236.8 349.799 239.5 348.699 245.5C347.599 251.5 343.299 243.1 347.799 238.1C352.299 233.1 356.599 233.8 353.799 236.8Z" fill="#3BC3D1"/>
<path d="M613.3 131.1C613.3 131.1 617.4 132.2 623 130.2C628.6 128.2 623.5 134.3 617.2 133.9C610.8 133.6 609.5 130.8 613.3 131.1Z" fill="#3BC3D1"/>
<path d="M560.2 340.2C560.2 340.2 562 343.5 566.6 345.2C571.3 346.9 564.3 348.7 560.7 344.7C557.1 340.7 558.1 337.8 560.2 340.2Z" fill="#3BC3D1"/>
<path d="M223.9 430.2C232.3 419.5 235.5 405 231.2 391C226.9 376.9 216 366.7 203 362.6C205.7 357.5 206.4 351.4 204.6 345.5C201 333.6 188.4 327 176.5 330.6C170.3 332.5 165.6 336.8 163 342.2C153.2 336.9 141.4 335.4 130 339C126.7 340 123.7 341.4 120.8 343.1C109.9 332.2 93.4999 327.5 77.6999 332.3C61.9999 337.1 50.9999 350.2 47.9999 365.3C42.2999 359.7 33.8999 357.3 25.6999 359.8C13.7999 363.4 7.19989 376 10.7999 387.9C12.4999 393.4 16.0999 397.7 20.6999 400.5C7.89989 411.1 1.99989 429 7.19989 446C14.1999 468.8 38.2999 481.5 60.9999 474.6C73.5999 470.7 83.1999 461.6 87.9999 450.3C96.2999 455.7 106.5 458.1 116.7 456.8C125.7 475.8 147.5 485.8 168.2 479.5C179.1 476.2 187.7 468.8 193 459.6C197.7 469.5 209 474.7 219.8 471.4C231.7 467.8 238.3 455.2 234.7 443.3C232.9 437.5 228.9 432.9 223.9 430.2Z" fill="#31A4AA"/>
<path d="M204.3 442.8C212.2 432.8 215.2 419.2 211.1 406.1C207.1 393 196.9 383.4 184.7 379.5C187.2 374.8 187.9 369.1 186.2 363.5C182.8 352.4 171 346.2 159.9 349.6C154.1 351.4 149.7 355.4 147.2 360.5C138.1 355.6 127 354.2 116.3 357.5C113.2 358.4 110.4 359.7 107.7 361.3C97.4998 351.1 82.0998 346.7 67.3998 351.2C52.9998 355.7 42.6998 367.9 39.9998 382C34.6998 376.8 26.7998 374.5 19.1998 376.8C7.99982 380.3 1.79982 392 5.19982 403.1C6.79982 408.2 10.1998 412.3 14.4998 414.9C2.39982 425 -3.10018 441.7 1.79982 457.6C8.29982 478.9 30.8998 490.8 52.0998 484.3C63.8998 480.7 72.7998 472.1 77.2998 461.6C85.0998 466.6 94.5998 468.9 104.1 467.7C112.5 485.5 132.9 494.8 152.2 488.9C162.4 485.8 170.4 478.9 175.3 470.3C179.7 479.5 190.3 484.4 200.3 481.3C211.4 477.9 217.6 466.1 214.2 455C212.7 449.6 209 445.3 204.3 442.8Z" fill="#3BC3D1"/>
<path d="M193.3 489.4H183.3C181.3 489.4 179.7 487.8 179.7 485.8V300.9C179.7 298.9 181.3 297.3 183.3 297.3H193.3C195.3 297.3 196.9 298.9 196.9 300.9V485.8C196.9 487.8 195.3 489.4 193.3 489.4Z" fill="#93581D"/>
<path d="M453 489.4H443C441 489.4 439.4 487.8 439.4 485.8V300.9C439.4 298.9 441 297.3 443 297.3H453C455 297.3 456.6 298.9 456.6 300.9V485.8C456.6 487.8 455 489.4 453 489.4Z" fill="#93581D"/>
<path d="M500.7 427.7H134.9C132.3 427.7 130.1 425.6 130.1 422.9V414.8C130.1 412.2 132.2 410 134.9 410H500.8C503.4 410 505.6 412.1 505.6 414.8V422.9C505.5 425.6 503.4 427.7 500.7 427.7Z" fill="#F79F2D"/>
<path d="M161.1 498.2H151C149.3 498.2 148 496.8 148 495.2V426.4C148 424.7 149.4 423.4 151 423.4H161.1C162.8 423.4 164.1 424.8 164.1 426.4V495.2C164.1 496.8 162.8 498.2 161.1 498.2Z" fill="#F79F2D"/>
<path d="M485.4 498.2H475.3C473.6 498.2 472.3 496.8 472.3 495.2V426.4C472.3 424.7 473.7 423.4 475.3 423.4H485.4C487.1 423.4 488.4 424.8 488.4 426.4V495.2C488.4 496.8 487.1 498.2 485.4 498.2Z" fill="#F79F2D"/>
<path d="M134.9 410.1L179.6 404.1H476.3L500.7 410.1H134.9Z" fill="#D68329"/>
<path d="M488 326.1H147.8C145.9 326.1 144.4 324.6 144.4 322.7V314.5C144.4 312.6 145.9 311.1 147.8 311.1H488C489.9 311.1 491.4 312.6 491.4 314.5V322.7C491.4 324.5 489.9 326.1 488 326.1Z" fill="#F79F2D"/>
<path d="M488 345.3H147.8C145.9 345.3 144.4 343.8 144.4 341.9V333.7C144.4 331.8 145.9 330.3 147.8 330.3H488C489.9 330.3 491.4 331.8 491.4 333.7V341.9C491.4 343.7 489.9 345.3 488 345.3Z" fill="#F79F2D"/>
<path d="M488 364.5H147.8C145.9 364.5 144.4 363 144.4 361.1V352.9C144.4 351 145.9 349.5 147.8 349.5H488C489.9 349.5 491.4 351 491.4 352.9V361.1C491.4 362.9 489.9 364.5 488 364.5Z" fill="#F79F2D"/>
<path d="M488 383.7H147.8C145.9 383.7 144.4 382.2 144.4 380.3V372.1C144.4 370.2 145.9 368.7 147.8 368.7H488C489.9 368.7 491.4 370.2 491.4 372.1V380.3C491.4 382.1 489.9 383.7 488 383.7Z" fill="#F79F2D"/>
</g>
<defs>
<clipPath id="clip0">
<rect width="636.1" height="498.2" fill="white"/>
</clipPath>
</defs>
</svg>
