<svg width="352" height="350" viewBox="0 0 352 350" fill="none" xmlns="http://www.w3.org/2000/svg">
<g clip-path="url(#clip0)">
<g clip-path="url(#clip1)">
<path d="M490.217 238.237H83.5233C72.6515 238.237 63.74 229.338 63.74 218.454C63.74 207.582 72.6386 198.67 83.5233 198.67H490.217C501.089 198.67 510 207.569 510 218.454C510 229.338 501.101 238.237 490.217 238.237Z" fill="#A3AEF0"/>
<path d="M181.86 196.104H412.283C412.283 196.104 412.824 164.481 375.308 175.74C375.308 175.74 364.707 140.829 308.233 149.805C308.233 149.805 270.691 107.775 220.627 134.084C170.562 160.393 181.86 196.104 181.86 196.104Z" fill="#65ABA4"/>
<path d="M144.15 112.689H60C60 112.689 61.2639 100.669 74.5473 105.725C74.5473 105.725 81.821 90.8548 97.9546 98.7604C97.9546 98.7604 118.795 77.3521 137.56 95.7297C137.573 95.7426 143.853 101.043 144.15 112.689Z" fill="#9AF3F2"/>
<path d="M378.326 159.774H299.618V194.053H378.326V159.774Z" fill="#F7FAEA"/>
<path d="M442.86 194.053H299.618V195.807H442.86V194.053Z" fill="#E0BBC8"/>
<path d="M375.45 165.526H301.888V182.923H375.45V165.526Z" fill="#E0BBC8"/>
<path d="M378.326 182.923H299.502V186.199H378.326V182.923Z" fill="#3343A6"/>
<path d="M350.457 182.769H326.895V194.053H350.457V182.769Z" fill="#E0BBC8"/>
<path d="M328.274 238.147H360.335C362.85 235.812 362.553 206.589 343.376 208.007C325.089 209.361 328.274 238.147 328.274 238.147Z" fill="#65ABA4"/>
<path d="M331.473 238.147C331.473 238.147 329.693 215.049 340.681 208.446C340.681 208.446 325.876 210.084 328.287 238.147H331.473Z" fill="#9AF3F2"/>
<path d="M287.508 238.147H319.569C322.084 235.812 321.787 206.589 302.61 208.007C284.31 209.361 287.508 238.147 287.508 238.147Z" fill="#65ABA4"/>
<path d="M290.694 238.147C290.694 238.147 288.914 215.049 299.902 208.446C299.902 208.446 285.097 210.084 287.508 238.147H290.694Z" fill="#9AF3F2"/>
<path d="M168.396 117.022H151.076V148.979H168.396V117.022Z" fill="#F7FAEA"/>
<path d="M185.625 92.1313L167.944 117.022V148.979H203.294V117.022L185.625 92.1313Z" fill="#F4EFE1"/>
<path d="M167.944 117.022L185.625 92.1313H168.409L151.076 117.022H167.944Z" fill="#E0BBC8"/>
<path d="M161.367 120.968H158.194V127.533H161.367V120.968Z" fill="#E8B68E"/>
<path d="M160.09 120.968H158.182V127.533H160.09V120.968Z" fill="#E9D5C6"/>
<path d="M161.354 129.764H158.182V136.328H161.354V129.764Z" fill="#E8B68E"/>
<path d="M160.064 129.764H158.182V136.328H160.064V129.764Z" fill="#E9D5C6"/>
<path d="M178.984 120.968H175.811V127.533H178.984V120.968Z" fill="#E8B68E"/>
<path d="M177.694 120.968H175.811V127.533H177.694V120.968Z" fill="#E9D5C6"/>
<path d="M184.8 120.968H181.628V127.533H184.8V120.968Z" fill="#E8B68E"/>
<path d="M183.51 120.968H181.628V127.533H183.51V120.968Z" fill="#E9D5C6"/>
<path d="M190.5 120.968H187.328V127.533H190.5V120.968Z" fill="#E8B68E"/>
<path d="M189.211 120.968H187.328V127.533H189.211V120.968Z" fill="#E9D5C6"/>
<path d="M196.136 120.968H192.964V127.533H196.136V120.968Z" fill="#E8B68E"/>
<path d="M194.846 120.968H192.964V127.533H194.846V120.968Z" fill="#E9D5C6"/>
<path d="M178.984 129.854H175.811V136.418H178.984V129.854Z" fill="#E8B68E"/>
<path d="M177.694 129.854H175.811V136.418H177.694V129.854Z" fill="#E9D5C6"/>
<path d="M184.8 129.854H181.628V136.418H184.8V129.854Z" fill="#E8B68E"/>
<path d="M183.51 129.854H181.628V136.418H183.51V129.854Z" fill="#E9D5C6"/>
<path d="M190.5 129.854H187.328V136.418H190.5V129.854Z" fill="#E8B68E"/>
<path d="M189.211 129.854H187.328V136.418H189.211V129.854Z" fill="#E9D5C6"/>
<path d="M196.136 129.854H192.964V136.418H196.136V129.854Z" fill="#E8B68E"/>
<path d="M194.846 129.854H192.964V136.418H194.846V129.854Z" fill="#E9D5C6"/>
<path d="M178.984 138.675H175.811V145.239H178.984V138.675Z" fill="#E8B68E"/>
<path d="M177.694 138.675H175.811V145.239H177.694V138.675Z" fill="#E9D5C6"/>
<path d="M184.813 138.675H181.64V145.239H184.813V138.675Z" fill="#E8B68E"/>
<path d="M183.523 138.675H181.64V145.239H183.523V138.675Z" fill="#E9D5C6"/>
<path d="M190.5 138.675H187.328V145.239H190.5V138.675Z" fill="#E8B68E"/>
<path d="M189.211 138.675H187.328V145.239H189.211V138.675Z" fill="#E9D5C6"/>
<path d="M196.136 138.675H192.964V145.239H196.136V138.675Z" fill="#E8B68E"/>
<path d="M194.846 138.675H192.964V145.239H194.846V138.675Z" fill="#E9D5C6"/>
<path d="M161.47 138.469H158.298V145.033H161.47V138.469Z" fill="#E8B68E"/>
<path d="M160.181 138.469H158.298V145.033H160.181V138.469Z" fill="#E9D5C6"/>
<path d="M170.846 89.7456H168.963V92.1315H170.846V89.7456Z" fill="#A3AEF0"/>
<path d="M172.961 89.075H171.078V92.1185H172.961V89.075Z" fill="#A3AEF0"/>
<path d="M185.626 91.9895H168.409V92.1314H185.626V91.9895Z" fill="#A3AEF0"/>
<path d="M218.731 118.311H201.411V161.657H218.731V118.311Z" fill="#A3AEF0"/>
<path d="M235.871 93.4597L218.344 118.234L218.189 161.67H253.539V123.315L235.871 93.4597Z" fill="#90A2EE"/>
<path d="M218.267 118.311L235.948 93.4209H218.731L201.411 118.311H218.267Z" fill="#F7FAEA"/>
<path d="M214.617 122.245H211.444V128.809H214.617V122.245Z" fill="#68B0A4"/>
<path d="M213.34 122.245H211.432V128.809H213.34V122.245Z" fill="#9AF3F2"/>
<path d="M214.604 131.156H211.432V137.721H214.604V131.156Z" fill="#68B0A4"/>
<path d="M213.34 131.169H211.457V137.734H213.34V131.169Z" fill="#9AF3F2"/>
<path d="M229.306 122.245H226.134V128.809H229.306V122.245Z" fill="#68B0A4"/>
<path d="M228.017 122.245H226.134V128.809H228.017V122.245Z" fill="#9AF3F2"/>
<path d="M235.135 122.245H231.963V128.809H235.135V122.245Z" fill="#68B0A4"/>
<path d="M233.846 122.245H231.963V128.809H233.846V122.245Z" fill="#9AF3F2"/>
<path d="M240.823 122.245H237.65V128.809H240.823V122.245Z" fill="#68B0A4"/>
<path d="M239.533 122.245H237.65V128.809H239.533V122.245Z" fill="#9AF3F2"/>
<path d="M246.459 122.245H243.286V128.809H246.459V122.245Z" fill="#68B0A4"/>
<path d="M245.169 122.245H243.286V128.809H245.169V122.245Z" fill="#9AF3F2"/>
<path d="M229.306 131.144H226.134V137.708H229.306V131.144Z" fill="#68B0A4"/>
<path d="M228.017 131.144H226.134V137.708H228.017V131.144Z" fill="#9AF3F2"/>
<path d="M235.135 131.144H231.963V137.708H235.135V131.144Z" fill="#68B0A4"/>
<path d="M233.846 131.144H231.963V137.708H233.846V131.144Z" fill="#9AF3F2"/>
<path d="M240.823 131.144H237.65V137.708H240.823V131.144Z" fill="#68B0A4"/>
<path d="M239.533 131.144H237.65V137.708H239.533V131.144Z" fill="#9AF3F2"/>
<path d="M246.459 131.144H243.286V137.708H246.459V131.144Z" fill="#68B0A4"/>
<path d="M245.169 131.144H243.286V137.708H245.169V131.144Z" fill="#9AF3F2"/>
<path d="M229.306 139.965H226.134V146.529H229.306V139.965Z" fill="#68B0A4"/>
<path d="M228.017 139.965H226.134V146.529H228.017V139.965Z" fill="#9AF3F2"/>
<path d="M235.135 139.965H231.963V146.529H235.135V139.965Z" fill="#68B0A4"/>
<path d="M233.846 139.965H231.963V146.529H233.846V139.965Z" fill="#9AF3F2"/>
<path d="M240.823 139.965H237.65V146.529H240.823V139.965Z" fill="#68B0A4"/>
<path d="M239.533 139.965H237.65V146.529H239.533V139.965Z" fill="#9AF3F2"/>
<path d="M246.459 139.965H243.286V146.529H246.459V139.965Z" fill="#68B0A4"/>
<path d="M245.169 139.965H243.286V146.529H245.169V139.965Z" fill="#9AF3F2"/>
<path d="M214.63 139.978H211.457V146.542H214.63V139.978Z" fill="#68B0A4"/>
<path d="M213.34 139.978H211.457V146.542H213.34V139.978Z" fill="#9AF3F2"/>
<path d="M221.168 91.0352H219.286V93.421H221.168V91.0352Z" fill="#F5B37B"/>
<path d="M223.283 90.3645H221.401V93.4081H223.283V90.3645Z" fill="#F5B37B"/>
<path d="M235.948 93.2791H218.731V93.4209H235.948V93.2791Z" fill="#F5B37B"/>
<path d="M229.203 148.567H226.03V155.131H229.203V148.567Z" fill="#68B0A4"/>
<path d="M227.913 148.567H226.03V155.131H227.913V148.567Z" fill="#9AF3F2"/>
<path d="M235.032 148.567H231.86V155.131H235.032V148.567Z" fill="#68B0A4"/>
<path d="M233.743 148.567H231.86V155.131H233.743V148.567Z" fill="#9AF3F2"/>
<path d="M240.72 148.567H237.547V155.131H240.72V148.567Z" fill="#68B0A4"/>
<path d="M239.43 148.567H237.547V155.131H239.43V148.567Z" fill="#9AF3F2"/>
<path d="M246.368 148.567H243.196V155.131H246.368V148.567Z" fill="#68B0A4"/>
<path d="M245.079 148.567H243.196V155.131H245.079V148.567Z" fill="#9AF3F2"/>
<path d="M214.63 148.618H211.457V155.183H214.63V148.618Z" fill="#68B0A4"/>
<path d="M213.34 148.618H211.457V155.183H213.34V148.618Z" fill="#97DEDE"/>
<path d="M207.975 148.644H204.803V155.208H207.975V148.644Z" fill="#68B0A4"/>
<path d="M206.686 148.644H204.803V155.208H206.686V148.644Z" fill="#9AF3F2"/>
<path d="M207.975 139.9H204.803V146.464H207.975V139.9Z" fill="#68B0A4"/>
<path d="M206.686 139.9H204.803V146.464H206.686V139.9Z" fill="#9AF3F2"/>
<path d="M207.975 131.195H204.803V137.759H207.975V131.195Z" fill="#68B0A4"/>
<path d="M206.686 131.195H204.803V137.759H206.686V131.195Z" fill="#9AF3F2"/>
<path d="M207.975 122.193H204.803V128.757H207.975V122.193Z" fill="#68B0A4"/>
<path d="M206.686 122.193H204.803V128.757H206.686V122.193Z" fill="#9AF3F2"/>
<path d="M267.119 150.115H253.539V184.11H267.119V150.115Z" fill="#DEB5C4"/>
<path d="M280.57 130.628L266.822 150.063L266.706 184.123H294.421V154.048L280.57 130.628Z" fill="#D9A5BA"/>
<path d="M266.771 150.114L280.622 130.602H267.132L253.539 150.114H266.771Z" fill="#F5B37B"/>
<path d="M263.908 153.209H261.419V158.355H263.908V153.209Z" fill="#3542A5"/>
<path d="M262.902 153.209H261.406V158.355H262.902V153.209Z" fill="#90A2EE"/>
<path d="M263.895 160.187H261.406V165.332H263.895V160.187Z" fill="#3542A5"/>
<path d="M262.902 160.199H261.419V165.345H262.902V160.199Z" fill="#90A2EE"/>
<path d="M275.424 153.209H272.935V158.355H275.424V153.209Z" fill="#3542A5"/>
<path d="M274.418 153.209H272.935V158.355H274.418V153.209Z" fill="#90A2EE"/>
<path d="M279.99 153.209H277.501V158.355H279.99V153.209Z" fill="#3542A5"/>
<path d="M278.984 153.209H277.501V158.355H278.984V153.209Z" fill="#90A2EE"/>
<path d="M284.452 153.209H281.963V158.355H284.452V153.209Z" fill="#3542A5"/>
<path d="M283.446 153.209H281.963V158.355H283.446V153.209Z" fill="#90A2EE"/>
<path d="M288.875 153.209H286.386V158.355H288.875V153.209Z" fill="#3542A5"/>
<path d="M287.869 153.209H286.386V158.355H287.869V153.209Z" fill="#90A2EE"/>
<path d="M275.424 160.187H272.935V165.332H275.424V160.187Z" fill="#3542A5"/>
<path d="M274.418 160.187H272.935V165.332H274.418V160.187Z" fill="#90A2EE"/>
<path d="M279.99 160.187H277.501V165.332H279.99V160.187Z" fill="#3542A5"/>
<path d="M278.984 160.187H277.501V165.332H278.984V160.187Z" fill="#90A2EE"/>
<path d="M284.452 160.187H281.963V165.332H284.452V160.187Z" fill="#3542A5"/>
<path d="M283.446 160.187H281.963V165.332H283.446V160.187Z" fill="#90A2EE"/>
<path d="M288.875 160.187H286.386V165.332H288.875V160.187Z" fill="#3542A5"/>
<path d="M287.869 160.187H286.386V165.332H287.869V160.187Z" fill="#90A2EE"/>
<path d="M275.424 167.099H272.935V172.245H275.424V167.099Z" fill="#3542A5"/>
<path d="M274.418 167.099H272.935V172.245H274.418V167.099Z" fill="#90A2EE"/>
<path d="M279.99 167.099H277.501V172.245H279.99V167.099Z" fill="#3542A5"/>
<path d="M278.984 167.099H277.501V172.245H278.984V167.099Z" fill="#90A2EE"/>
<path d="M284.452 167.099H281.963V172.245H284.452V167.099Z" fill="#3542A5"/>
<path d="M283.446 167.099H281.963V172.245H283.446V167.099Z" fill="#90A2EE"/>
<path d="M288.875 167.099H286.386V172.245H288.875V167.099Z" fill="#3542A5"/>
<path d="M287.869 167.099H286.386V172.245H287.869V167.099Z" fill="#90A2EE"/>
<path d="M263.908 167.112H261.419V172.258H263.908V167.112Z" fill="#3542A5"/>
<path d="M262.902 167.112H261.419V172.258H262.902V167.112Z" fill="#90A2EE"/>
<path d="M269.028 128.732H267.557V130.602H269.028V128.732Z" fill="#F7FAEA"/>
<path d="M270.691 128.203H269.221V130.589H270.691V128.203Z" fill="#F7FAEA"/>
<path d="M280.635 130.486H267.132V130.602H280.635V130.486Z" fill="#F7FAEA"/>
<path d="M275.347 173.844H272.858V178.99H275.347V173.844Z" fill="#3542A5"/>
<path d="M274.341 173.844H272.858V178.99H274.341V173.844Z" fill="#90A2EE"/>
<path d="M279.912 173.844H277.423V178.99H279.912V173.844Z" fill="#3542A5"/>
<path d="M278.906 173.844H277.423V178.99H278.906V173.844Z" fill="#90A2EE"/>
<path d="M284.375 173.844H281.885V178.99H284.375V173.844Z" fill="#3542A5"/>
<path d="M283.369 173.844H281.885V178.99H283.369V173.844Z" fill="#90A2EE"/>
<path d="M288.798 173.844H286.309V178.99H288.798V173.844Z" fill="#3542A5"/>
<path d="M287.792 173.844H286.309V178.99H287.792V173.844Z" fill="#90A2EE"/>
<path d="M263.908 173.883H261.419V179.029H263.908V173.883Z" fill="#3542A5"/>
<path d="M262.902 173.883H261.419V179.029H262.902V173.883Z" fill="#90A2EE"/>
<path d="M258.697 173.896H256.208V179.041H258.697V173.896Z" fill="#3542A5"/>
<path d="M257.691 173.896H256.208V179.041H257.691V173.896Z" fill="#90A2EE"/>
<path d="M258.697 167.048H256.208V172.193H258.697V167.048Z" fill="#3542A5"/>
<path d="M257.691 167.048H256.208V172.193H257.691V167.048Z" fill="#90A2EE"/>
<path d="M258.697 160.225H256.208V165.371H258.697V160.225Z" fill="#3542A5"/>
<path d="M257.691 160.225H256.208V165.371H257.691V160.225Z" fill="#90A2EE"/>
<path d="M258.697 153.158H256.208V158.304H258.697V153.158Z" fill="#3542A5"/>
<path d="M257.691 153.158H256.208V158.304H257.691V153.158Z" fill="#90A2EE"/>
<path d="M68.6923 196.645L310.426 196.104C310.426 196.104 310.993 164.481 271.594 175.74C271.594 175.74 260.464 140.829 201.153 149.805C201.153 149.805 161.728 107.775 109.149 134.084C56.5695 160.393 68.6923 196.645 68.6923 196.645Z" fill="#9AF3F2"/>
<path d="M84.0134 198.567H496.265V195.601" fill="#66AEA5"/>
<path d="M497.864 199.263H69.8143C68.8599 199.263 68.0732 198.477 68.0732 197.522C68.0732 196.568 68.8599 195.781 69.8143 195.781H497.864C498.819 195.781 499.605 196.568 499.605 197.522C499.605 198.477 498.819 199.263 497.864 199.263Z" fill="#65ABA4"/>
<path d="M468.254 255.092H86.0123C85.1611 255.092 84.4647 254.396 84.4647 253.545C84.4647 252.694 85.1611 251.997 86.0123 251.997H468.254C469.105 251.997 469.801 252.694 469.801 253.545C469.814 254.383 469.105 255.092 468.254 255.092Z" fill="#65ABA4"/>
<path d="M469.208 251.972H85.5481C81.4083 251.972 78.0165 248.58 78.0165 244.44C78.0165 240.3 81.4083 236.908 85.5481 236.908H469.208C473.348 236.908 476.74 240.3 476.74 244.44C476.74 248.58 473.348 251.972 469.208 251.972Z" fill="#9AF3F2"/>
<path d="M126.327 246.8L179.771 246.89C179.771 246.89 182.621 218.337 159.136 218.002C138.63 217.718 137.625 231.363 137.625 231.363C137.625 231.363 122.845 232.188 126.327 246.8Z" fill="#F5B37B"/>
<path d="M140.294 231.595C140.294 231.595 143.054 221.226 153.823 220.672V231.608L140.294 231.595Z" fill="#F7FAEA"/>
<path d="M155.099 220.543C155.099 220.543 170.072 217.357 176.018 231.595L155.086 231.608L155.099 220.543Z" fill="#F7FAEA"/>
<path d="M179.577 239.784C180.225 239.784 180.751 238.849 180.751 237.695C180.751 236.541 180.225 235.606 179.577 235.606C178.929 235.606 178.403 236.541 178.403 237.695C178.403 238.849 178.929 239.784 179.577 239.784Z" fill="#F7FAEA"/>
<path d="M129.081 241.368C129.595 240.116 129.334 238.823 128.497 238.479C127.66 238.136 126.565 238.872 126.051 240.124C125.537 241.375 125.799 242.669 126.635 243.012C127.472 243.356 128.567 242.62 129.081 241.368Z" fill="#333E9C"/>
<path d="M128.682 241.266C129.063 240.337 128.865 239.376 128.239 239.119C127.613 238.862 126.797 239.406 126.415 240.335C126.034 241.264 126.232 242.226 126.858 242.483C127.484 242.74 128.3 242.195 128.682 241.266Z" fill="#F7FAEA"/>
<path d="M138.682 251.959C141.752 251.959 144.24 249.47 144.24 246.4C144.24 243.331 141.752 240.842 138.682 240.842C135.612 240.842 133.124 243.331 133.124 246.4C133.124 249.47 135.612 251.959 138.682 251.959Z" fill="#333E9C"/>
<path d="M138.63 248.786C139.948 248.786 141.016 247.718 141.016 246.401C141.016 245.083 139.948 244.015 138.63 244.015C137.313 244.015 136.245 245.083 136.245 246.401C136.245 247.718 137.313 248.786 138.63 248.786Z" fill="#F7FAEA"/>
<path d="M169.092 251.959C172.162 251.959 174.651 249.47 174.651 246.4C174.651 243.331 172.162 240.842 169.092 240.842C166.022 240.842 163.534 243.331 163.534 246.4C163.534 249.47 166.022 251.959 169.092 251.959Z" fill="#333E9C"/>
<path d="M169.041 248.786C170.358 248.786 171.426 247.718 171.426 246.401C171.426 245.083 170.358 244.015 169.041 244.015C167.723 244.015 166.655 245.083 166.655 246.401C166.655 247.718 167.723 248.786 169.041 248.786Z" fill="#F7FAEA"/>
<path d="M204.545 246.8L257.988 246.89C257.988 246.89 260.838 218.337 237.354 218.002C216.848 217.718 215.842 231.363 215.842 231.363C215.842 231.363 201.063 232.188 204.545 246.8Z" fill="#333E9C"/>
<path d="M218.512 231.595C218.512 231.595 221.272 221.226 232.04 220.672V231.608L218.512 231.595Z" fill="#F7FAEA"/>
<path d="M233.317 220.543C233.317 220.543 248.29 217.357 254.235 231.595L233.304 231.608L233.317 220.543Z" fill="#F7FAEA"/>
<path d="M257.795 239.784C258.443 239.784 258.968 238.849 258.968 237.695C258.968 236.541 258.443 235.606 257.795 235.606C257.147 235.606 256.621 236.541 256.621 237.695C256.621 238.849 257.147 239.784 257.795 239.784Z" fill="#F5B37B"/>
<path d="M207.301 241.371C207.815 240.119 207.553 238.826 206.717 238.482C205.88 238.138 204.785 238.874 204.271 240.126C203.756 241.378 204.018 242.671 204.855 243.015C205.691 243.359 206.787 242.622 207.301 241.371Z" fill="#F5B37B"/>
<path d="M206.901 241.269C207.283 240.34 207.085 239.378 206.459 239.121C205.833 238.864 205.016 239.409 204.635 240.338C204.253 241.267 204.451 242.228 205.077 242.485C205.703 242.743 206.52 242.198 206.901 241.269Z" fill="#E0BBC8"/>
<path d="M216.9 251.959C219.969 251.959 222.458 249.47 222.458 246.4C222.458 243.331 219.969 240.842 216.9 240.842C213.83 240.842 211.341 243.331 211.341 246.4C211.341 249.47 213.83 251.959 216.9 251.959Z" fill="#F5B37B"/>
<path d="M216.848 248.786C218.166 248.786 219.234 247.718 219.234 246.401C219.234 245.083 218.166 244.015 216.848 244.015C215.53 244.015 214.462 245.083 214.462 246.401C214.462 247.718 215.53 248.786 216.848 248.786Z" fill="#F7FAEA"/>
<path d="M247.31 251.959C250.38 251.959 252.868 249.47 252.868 246.4C252.868 243.331 250.38 240.842 247.31 240.842C244.24 240.842 241.751 243.331 241.751 246.4C241.751 249.47 244.24 251.959 247.31 251.959Z" fill="#F5B37B"/>
<path d="M247.258 248.786C248.576 248.786 249.644 247.718 249.644 246.401C249.644 245.083 248.576 244.015 247.258 244.015C245.94 244.015 244.872 245.083 244.872 246.401C244.872 247.718 245.94 248.786 247.258 248.786Z" fill="#F7FAEA"/>
<path d="M200.714 329.067C200.521 329.054 200.379 328.9 200.392 328.706L201.63 303.364C201.643 303.171 201.798 303.029 201.991 303.042C202.185 303.055 202.327 303.21 202.314 303.403L201.076 328.745C201.076 328.926 200.908 329.08 200.714 329.067Z" fill="#A3AEF0"/>
<path d="M205.344 306.24L202.404 306.099C201.94 306.073 201.579 305.686 201.604 305.222C201.63 304.757 202.017 304.396 202.481 304.422L205.422 304.564C205.886 304.59 206.247 304.977 206.221 305.441C206.195 305.905 205.809 306.266 205.344 306.24Z" fill="#E0BBC8"/>
<path d="M207.227 307.491L204.738 307.375C204.3 307.35 203.952 306.976 203.977 306.524C204.003 306.086 204.377 305.738 204.828 305.763L207.318 305.879C207.756 305.905 208.104 306.279 208.078 306.731C208.04 307.169 207.666 307.517 207.227 307.491Z" fill="#E0BBC8"/>
<path d="M209.703 308.588L206.814 308.446C206.389 308.42 206.066 308.059 206.092 307.646C206.118 307.221 206.479 306.898 206.892 306.924L209.781 307.066C210.206 307.092 210.529 307.453 210.503 307.866C210.49 308.291 210.129 308.614 209.703 308.588Z" fill="#E0BBC8"/>
<path d="M200.083 325.263C198.045 316.287 201.063 306.305 201.063 306.305L184.181 323.187L200.083 325.263Z" fill="#F5B37B"/>
<path d="M201.888 325.456L211.367 325.869C211.367 325.869 202.881 316.828 202.61 312.792L201.888 325.456Z" fill="#F5B37B"/>
<path d="M206.686 328.771L208.285 327.12L215.249 327.339L215.803 329.312L206.686 328.771Z" fill="#90A2EE"/>
<path d="M179.925 324.683C179.925 324.683 195.84 328.745 203.307 329.055C210.774 329.364 218.073 329.996 218.073 329.996L214.501 333.504L185.716 332.047L179.925 324.683Z" fill="#90A2EE"/>
<path d="M184.697 328.822C185.181 328.822 185.574 328.43 185.574 327.945C185.574 327.461 185.181 327.068 184.697 327.068C184.213 327.068 183.82 327.461 183.82 327.945C183.82 328.43 184.213 328.822 184.697 328.822Z" fill="#F7FAEA"/>
<path d="M144.279 336.831C144.279 336.831 151.088 321.084 164.823 333.181C164.823 333.181 168.86 337.334 175.282 333.439C181.421 329.712 184.8 325.74 194.331 332.446C196.252 333.8 198.651 334.42 200.959 333.929C201.166 333.891 201.372 333.839 201.579 333.775C202.855 333.414 204.016 332.73 205.022 331.879C207.189 330.06 213.663 325.637 220.807 330.37C222.406 331.428 223.761 332.846 224.883 334.407L226.894 337.205L144.279 336.831Z" fill="#9AF3F2"/>
<path d="M160.761 336.896C160.761 336.896 167.57 321.149 181.305 333.246C181.305 333.246 185.342 337.399 191.764 333.504C197.903 329.777 201.282 325.805 210.812 332.511C212.734 333.865 215.133 334.484 217.441 333.994C217.648 333.955 217.854 333.904 218.06 333.839C219.337 333.478 220.498 332.795 221.504 331.943C223.67 330.125 230.144 325.701 237.289 330.434C238.888 331.492 240.242 332.911 241.364 334.471L243.376 337.27L160.761 336.896Z" fill="#65ABA4"/>
<path d="M166.023 289.372C166.216 289.359 166.358 289.204 166.345 289.011L165.107 263.669C165.094 263.475 164.939 263.334 164.746 263.347C164.553 263.359 164.411 263.514 164.424 263.708L165.662 289.049C165.662 289.23 165.829 289.385 166.023 289.372Z" fill="#DEB5C4"/>
<path d="M161.393 266.545L164.333 266.403C164.798 266.377 165.159 265.99 165.133 265.526C165.107 265.062 164.72 264.701 164.256 264.726L161.316 264.868C160.851 264.894 160.49 265.281 160.516 265.745C160.542 266.209 160.929 266.571 161.393 266.545Z" fill="#F5B37B"/>
<path d="M159.51 267.796L161.999 267.68C162.438 267.654 162.786 267.28 162.76 266.829C162.734 266.39 162.36 266.042 161.909 266.068L159.42 266.184C158.981 266.21 158.633 266.584 158.659 267.035C158.698 267.474 159.072 267.822 159.51 267.796Z" fill="#F5B37B"/>
<path d="M157.034 268.892L159.923 268.75C160.348 268.724 160.671 268.363 160.645 267.951C160.619 267.525 160.258 267.203 159.845 267.228L156.956 267.37C156.531 267.396 156.208 267.757 156.234 268.17C156.247 268.583 156.608 268.918 157.034 268.892Z" fill="#F5B37B"/>
<path d="M166.655 285.567C168.692 276.591 165.675 266.609 165.675 266.609L182.556 283.504L166.655 285.567Z" fill="#F4EFE1"/>
<path d="M164.849 285.761L155.37 286.173C155.37 286.173 163.856 277.133 164.127 273.096L164.849 285.761Z" fill="#F4EFE1"/>
<path d="M160.052 289.075L158.452 287.424L151.488 287.644L150.934 289.617L160.052 289.075Z" fill="#D9A5BA"/>
<path d="M186.812 284.987C186.812 284.987 170.898 289.049 163.431 289.359C155.963 289.668 148.664 290.3 148.664 290.3L152.236 293.808L181.021 292.351L186.812 284.987Z" fill="#D9A5BA"/>
<path d="M182.04 289.127C182.525 289.127 182.917 288.734 182.917 288.25C182.917 287.765 182.525 287.373 182.04 287.373C181.556 287.373 181.163 287.765 181.163 288.25C181.163 288.734 181.556 289.127 182.04 289.127Z" fill="#90A2EE"/>
<path d="M103.152 299.483C103.152 299.483 112.309 278.281 130.802 294.569C130.802 294.569 136.232 300.166 144.885 294.904C153.152 289.875 157.704 284.535 170.537 293.563C173.129 295.382 176.366 296.22 179.461 295.549C179.732 295.485 180.016 295.42 180.299 295.343C182.015 294.853 183.575 293.937 184.942 292.789C187.857 290.339 196.575 284.381 206.196 290.765C208.349 292.196 210.168 294.092 211.677 296.194L214.385 299.96L103.152 299.483Z" fill="#9AF3F2"/>
<path d="M125.321 299.547C125.321 299.547 134.478 278.345 152.971 294.634C152.971 294.634 158.401 300.231 167.054 294.969C175.321 289.939 179.874 284.6 192.706 293.628C195.298 295.446 198.535 296.284 201.63 295.614C201.901 295.549 202.185 295.485 202.468 295.407C204.184 294.917 205.744 294.002 207.111 292.854C210.026 290.403 218.744 284.445 228.365 290.829C230.519 292.261 232.337 294.156 233.846 296.258L236.554 300.024L125.321 299.547Z" fill="#65ABA4"/>
<path d="M156.582 180.705C156.312 180.112 156.273 179.403 156.466 178.784L154.158 174.45L151.024 169.317L143.067 165.229L134.761 166.3L121.71 165.474L118.602 164.997L109.729 174.025L107.356 179.725C107.511 180.241 107.511 180.795 107.356 181.311C107.756 183.607 107.524 186.186 108.349 188.379C110.116 193.047 113.895 194.414 118.589 194.672C119.092 194.698 119.621 194.904 120.059 195.227L120.253 194.737L142.615 195.381C143.002 194.943 143.583 194.659 144.369 194.672C145.375 194.698 146.446 194.711 147.529 194.685C147.903 194.053 148.561 193.589 149.528 193.589C149.696 193.589 149.85 193.602 149.992 193.627C151.114 192.454 152.443 191.461 153.603 190.352C153.642 190.029 153.732 189.72 153.887 189.423C154.235 188.74 154.635 188.108 155.009 187.437C155.061 187.347 155.112 187.244 155.164 187.153C155.086 186.547 155.254 185.915 155.615 185.387C155.615 185.374 155.628 185.348 155.628 185.335C155.744 184.716 156.067 184.29 156.492 184.007C156.505 182.898 156.441 181.776 156.582 180.705Z" fill="white"/>
<path d="M142.719 195.549H142.628L120.395 194.904L120.162 195.498L119.969 195.356C119.543 195.046 119.066 194.866 118.602 194.84C114.81 194.633 110.206 193.718 108.207 188.43C107.679 187.037 107.575 185.49 107.472 183.994C107.408 183.104 107.356 182.188 107.201 181.324L107.188 181.285L107.201 181.247C107.343 180.77 107.343 180.241 107.201 179.764L107.188 179.699L107.214 179.635L109.613 173.883L118.55 164.791L121.749 165.281L134.787 166.106L143.105 165.036L143.157 165.062L151.153 169.176L154.313 174.347L156.66 178.758L156.634 178.835C156.453 179.428 156.492 180.086 156.737 180.628L156.763 180.679L156.75 180.731C156.647 181.518 156.66 182.356 156.673 183.168C156.673 183.439 156.686 183.723 156.686 183.994V184.097L156.608 184.149C156.183 184.432 155.925 184.845 155.821 185.361L155.783 185.49C155.447 185.967 155.293 186.547 155.357 187.128L155.37 187.179L155.306 187.308C155.267 187.386 155.228 187.45 155.19 187.527C155.048 187.785 154.893 188.056 154.738 188.314C154.506 188.701 154.274 189.101 154.068 189.501C153.926 189.771 153.835 190.068 153.81 190.378L153.797 190.442L153.745 190.494C153.255 190.958 152.726 191.409 152.223 191.848C151.514 192.454 150.792 193.086 150.147 193.756L150.082 193.821L149.992 193.808C149.837 193.782 149.696 193.769 149.554 193.769C148.741 193.769 148.096 194.13 147.709 194.775L147.658 194.866H147.555C146.497 194.891 145.453 194.878 144.382 194.853C143.699 194.84 143.157 195.059 142.77 195.498L142.719 195.549ZM120.15 194.53H120.278L142.564 195.175C143.015 194.698 143.673 194.466 144.408 194.479C145.44 194.504 146.446 194.517 147.464 194.492C147.98 193.679 148.883 193.279 149.966 193.434C150.611 192.776 151.321 192.157 152.004 191.564C152.494 191.138 152.997 190.7 153.474 190.261C153.526 189.939 153.616 189.63 153.771 189.333C153.977 188.92 154.222 188.508 154.442 188.121C154.596 187.863 154.738 187.605 154.893 187.347C154.932 187.282 154.97 187.205 154.996 187.141L155.009 187.115C154.944 186.47 155.112 185.825 155.486 185.296C155.602 184.716 155.899 184.239 156.35 183.903C156.35 183.658 156.35 183.426 156.337 183.181C156.324 182.382 156.312 181.543 156.415 180.744C156.157 180.151 156.118 179.454 156.286 178.809L154.016 174.541L150.921 169.459L143.067 165.41L134.8 166.467L121.71 165.642L118.679 165.178L109.897 174.115L107.562 179.725C107.704 180.241 107.704 180.795 107.562 181.311C107.717 182.175 107.769 183.091 107.833 183.968C107.936 185.438 108.04 186.96 108.543 188.301C110.052 192.273 113.16 194.182 118.615 194.479C119.079 194.504 119.556 194.659 119.982 194.93L120.15 194.53ZM155.525 185.296L155.564 185.322H155.654L155.525 185.296Z" fill="#50333C"/>
<path d="M107.833 182.124C107.833 182.124 130.428 202.797 155.912 182.124L153.629 190.339L148.638 193.653L145.104 193.873L137.895 194.466L134.168 195.007L129.448 194.492L127.075 194.724L122.045 194.014L115.081 194.659L113.173 193.241L107.833 187.553V182.124V182.124Z" fill="#FFD8B6"/>
<path d="M124.779 165.539L140.41 166.003L148.986 162.611L154.274 156.743L155.912 149.263L153.797 138.301L149.399 131.775L142.125 126.281L134.31 124.502L127.14 125.018L118.795 128.022L112.708 134.742L109.768 141.216L108.427 148.967L111.148 158.213L116.306 163.114L124.779 165.539Z" fill="white"/>
<path d="M140.436 166.184H140.397L124.741 165.719L116.177 163.243L110.993 158.317L108.246 148.98L108.259 148.941L109.613 141.151L112.579 134.626L118.744 127.855L127.14 124.837L134.336 124.321H134.362L142.254 126.127L149.567 131.659L154.003 138.25L156.118 149.25L154.454 156.821L149.077 162.766L140.436 166.184ZM124.818 165.358L140.384 165.822L148.896 162.456L154.119 156.653L155.744 149.25L153.655 138.366L149.283 131.892L142.074 126.449L134.323 124.682L127.204 125.198L118.924 128.177L112.876 134.845L109.961 141.28L108.633 148.967L111.328 158.123L116.41 162.959L124.818 165.358Z" fill="#50333C"/>
<path d="M119.685 128.023L125.076 124.902L123.915 117.963L121.181 109.942L116.913 101.649L110.877 96.4131L103.964 94.8655L98.2513 98.0767L94.9884 102.513L92.9637 109.555L92.6026 113.153L92.2415 117.68L93.1442 121.381L94.911 122.722L101.308 120.994L105.086 118.44L108.659 119.227L112.321 121.536L116.165 125.018L119.685 128.023Z" fill="white"/>
<path d="M119.66 128.242L116.036 125.147L112.192 121.665L108.581 119.382L105.112 118.621L101.346 121.149L94.8723 122.903L92.9765 121.471L92.048 117.68L92.4091 113.127L92.7702 109.529L94.8336 102.397L98.1481 97.9091L103.926 94.6592L110.98 96.2713L117.042 101.572L121.31 109.864L124.057 117.912L125.244 125.005L119.66 128.242ZM105.048 118.247L108.749 119.072L112.412 121.381L116.281 124.876L119.698 127.79L124.87 124.798L123.735 117.989L121.001 109.993L116.758 101.765L110.8 96.5808L104.003 95.059L98.3802 98.2186L95.1689 102.603L93.1442 109.606L92.796 113.179L92.4349 117.667L93.3247 121.278L94.9755 122.529L101.243 120.826L105.048 118.247Z" fill="#50333C"/>
<path d="M143.312 127.262L137.921 124.141L139.082 117.202L141.816 109.181L146.085 100.888L152.12 95.6523L159.02 94.1047L164.746 97.316L167.996 101.752L170.033 108.794L170.395 112.392L170.756 116.919L169.853 120.62L168.073 121.961L161.689 120.233L157.911 117.68L154.338 118.466L150.676 120.775L146.833 124.257L143.312 127.262Z" fill="white"/>
<path d="M121.929 126.785C121.929 126.785 115.7 109.4 109.639 106.06L108.581 112.843L107.137 116.635L106.918 117.525L110.374 118.789L116.461 123.805L119.157 127.803L121.929 126.785Z" fill="#FFD8B6"/>
<path d="M141.158 126.785C141.158 126.785 147.387 108.484 153.449 105.157L154.506 112.856L155.95 116.648L156.17 117.538L152.713 118.802L146.626 123.818L143.931 127.816L141.158 126.785Z" fill="#FFD8B6"/>
<path d="M156.131 145.356C156.041 144.93 156.054 144.479 156.183 144.053C155.267 143.137 154.944 141.938 154.661 140.674C154.274 138.92 153.552 137.231 152.804 135.593C151.656 133.065 150.25 130.357 147.477 129.544C150.444 133.207 153.603 139.578 153.152 149.908C152.43 165.797 126.469 164.726 117.648 163.901C118.731 164.404 119.904 164.817 121.065 164.933C121.813 165.01 122.497 165.345 122.909 165.9C123.167 165.939 123.399 166.003 123.606 166.106C123.722 166.093 123.851 166.08 123.98 166.08C124.38 166.08 124.728 166.171 125.012 166.325C127.152 166.106 129.267 166.558 131.395 166.596C131.576 166.596 131.744 166.622 131.898 166.661C132.014 166.648 132.13 166.635 132.246 166.635C133.562 166.622 134.877 166.545 136.193 166.532C136.451 166.416 136.76 166.351 137.096 166.351C137.315 166.351 137.508 166.377 137.689 166.429C137.921 166.338 138.192 166.287 138.488 166.287C138.656 166.287 138.811 166.3 138.953 166.325C141.094 165.577 143.221 164.894 145.453 164.572L149.438 162.637C149.618 161.631 150.353 160.754 151.656 160.754C151.656 160.754 151.656 160.754 151.656 160.741C152.829 158.974 154.454 157.285 155.048 155.222C155.177 154.783 155.383 154.448 155.641 154.19L156.44 148.257C155.783 147.484 155.667 146.258 156.131 145.356Z" fill="#FFD8B6"/>
<path d="M144.498 187.308C144.447 187.025 144.305 186.741 144.189 186.47C143.944 185.941 143.57 185.438 143.131 185.038C142.783 184.729 142.409 184.471 141.996 184.29C141.764 184.187 141.545 184.123 141.287 184.2C141.081 184.265 140.849 184.419 140.745 184.626C140.629 184.832 140.578 185.09 140.655 185.335C140.72 185.541 140.861 185.786 141.081 185.877C141.351 185.993 141.609 186.148 141.842 186.328C141.777 186.277 141.713 186.238 141.661 186.186C141.906 186.38 142.125 186.586 142.306 186.831C142.254 186.767 142.216 186.702 142.164 186.651C142.37 186.908 142.538 187.205 142.667 187.515C142.641 187.437 142.602 187.373 142.577 187.295C142.641 187.463 142.706 187.631 142.744 187.798C142.783 188.018 142.976 188.237 143.17 188.34C143.363 188.456 143.66 188.508 143.879 188.43C144.098 188.353 144.318 188.224 144.421 188.005C144.524 187.785 144.55 187.553 144.498 187.308Z" fill="#222122"/>
<path d="M120.008 187.798C120.046 187.618 120.111 187.45 120.175 187.295C120.15 187.373 120.111 187.437 120.085 187.514C120.214 187.205 120.382 186.921 120.588 186.65C120.536 186.715 120.498 186.779 120.446 186.831C120.64 186.586 120.846 186.38 121.091 186.186C121.026 186.238 120.962 186.276 120.91 186.328C121.143 186.147 121.4 185.993 121.671 185.877C121.865 185.786 122.032 185.528 122.097 185.335C122.161 185.116 122.136 184.819 122.007 184.626C121.878 184.432 121.697 184.265 121.465 184.2C121.388 184.187 121.297 184.174 121.22 184.161C121.052 184.161 120.898 184.2 120.756 184.29C119.582 184.806 118.705 185.864 118.318 187.076C118.292 187.153 118.267 187.231 118.254 187.308C118.202 187.553 118.215 187.798 118.344 188.017C118.46 188.211 118.666 188.391 118.886 188.443C119.118 188.495 119.376 188.482 119.595 188.353C119.788 188.211 119.969 188.03 120.008 187.798Z" fill="#222122"/>
<path d="M143.699 165.771C144.292 166.042 144.872 166.338 145.44 166.648C146.059 166.983 146.626 167.422 147.245 167.744C147.439 167.847 147.091 167.615 147.232 167.731C147.348 167.834 147.477 167.925 147.593 168.028C148.638 168.892 149.618 169.833 150.521 170.826C153.165 173.728 155.46 177.455 155.396 181.518C155.37 182.678 155.267 183.375 154.983 184.535C154.648 185.915 154.184 187.141 153.487 188.353C151.72 191.409 148.715 193.305 145.221 193.769C143.879 193.95 142.525 193.885 141.184 193.95C139.752 194.014 138.308 194.143 136.864 194.105C135.368 194.066 133.897 193.795 132.388 193.782C130.789 193.769 129.203 193.911 127.617 194.053C126.198 194.182 124.767 194.066 123.348 193.976C121.852 193.873 120.369 193.86 118.873 193.795C117.08 193.718 115.262 193.344 113.663 192.493C111.212 191.177 109.626 188.894 108.826 186.38C108.646 185.812 108.504 185.232 108.388 184.652C108.336 184.406 108.298 184.149 108.259 183.903C108.246 183.839 108.194 183.465 108.233 183.697C108.22 183.555 108.194 183.413 108.182 183.272C108.104 182.549 108.065 181.827 108.078 181.105C108.078 180.873 108.104 180.641 108.117 180.396C108.117 180.331 108.13 180.267 108.143 180.202C108.104 180.538 108.143 180.228 108.156 180.151C108.194 179.931 108.233 179.725 108.272 179.519C108.401 178.9 108.568 178.293 108.775 177.687C110.155 173.573 113.16 169.846 116.796 167.499C117.97 166.738 119.208 166.068 120.511 165.565C120.962 165.384 121.297 164.946 121.143 164.443C121.027 164.004 120.485 163.617 120.021 163.811C115.004 165.784 110.658 169.588 108.194 174.399C107.201 176.333 106.415 178.513 106.273 180.705C106.002 184.935 107.434 189.784 110.671 192.634C112.038 193.834 113.675 194.672 115.429 195.136C117.97 195.807 120.64 195.639 123.245 195.807C124.702 195.91 126.172 196.026 127.63 195.897C129.345 195.743 131.034 195.588 132.75 195.626C134.258 195.665 135.754 195.949 137.263 195.949C138.888 195.949 140.5 195.794 142.112 195.755C144.576 195.691 146.91 195.549 149.206 194.556C150.895 193.834 152.417 192.725 153.603 191.332C155.602 188.985 156.724 186.031 157.098 183.001C157.588 179.08 156.144 175.301 153.887 172.142C152.314 169.937 150.379 167.783 148.161 166.197C147.065 165.41 145.827 164.791 144.614 164.223C143.557 163.695 142.628 165.268 143.699 165.771Z" fill="#222122"/>
<path d="M154.996 148.077C154.983 152.229 154.003 156.472 151.076 159.555C148.329 162.456 144.46 163.888 140.604 164.571C138.295 164.984 135.948 165.139 133.601 165.139C131.137 165.152 128.661 165.152 126.211 164.894C122.252 164.481 118.073 163.411 114.888 160.896C111.728 158.394 110.039 154.667 109.626 150.708C109.11 145.82 110 140.803 112.412 136.496C114.681 132.446 118.189 129.209 122.406 127.262C124.509 126.294 126.804 125.663 129.113 125.43C131.499 125.185 134.039 125.185 136.425 125.572C141.029 126.32 145.311 128.5 148.587 131.827C151.927 135.232 154.042 139.668 154.751 144.375C154.932 145.601 154.996 146.839 154.996 148.077C154.996 149.25 156.827 149.25 156.827 148.077C156.84 142.841 155.319 137.605 152.223 133.349C149.27 129.274 145.104 126.204 140.307 124.657C137.882 123.87 135.303 123.483 132.75 123.509C130.144 123.535 127.617 123.676 125.089 124.386C120.279 125.727 115.958 128.616 112.876 132.549C109.639 136.689 107.859 141.796 107.679 147.045C107.524 151.688 108.452 156.447 111.457 160.109C114.178 163.424 118.267 165.268 122.381 166.158C124.792 166.674 127.256 166.919 129.719 166.983C132.324 167.048 134.968 167.06 137.573 166.828C141.983 166.441 146.575 165.41 150.199 162.753C153.758 160.148 155.886 156.253 156.531 151.92C156.724 150.656 156.815 149.379 156.815 148.103C156.827 146.903 154.996 146.89 154.996 148.077Z" fill="#222122"/>
<path d="M105.938 118.853C111.019 120.233 115.533 123.612 117.661 128.487C117.854 128.938 118.512 129.041 118.912 128.809C119.376 128.539 119.44 128.01 119.234 127.558C116.925 122.258 111.896 118.569 106.415 117.073C105.293 116.777 104.803 118.544 105.938 118.853Z" fill="#222122"/>
<path d="M126.263 125.018C125.837 120.065 124.573 115.049 122.78 110.419C121.284 106.575 119.311 102.861 116.526 99.779C113.353 96.284 108.71 93.292 103.81 94.0787C99.1926 94.8267 95.6074 98.8762 93.7761 102.939C92.3317 106.163 91.545 109.851 91.1065 113.346C90.7583 116.119 90.5132 119.807 92.538 122.051C95.156 124.94 99.9277 122.838 102.662 121.29C105.899 119.459 108.439 116.609 109.626 113.062C110.271 111.128 110.529 108.987 110.297 106.962C110.271 106.782 110.258 106.601 110.219 106.421C110.013 105.26 108.246 105.75 108.452 106.911C108.504 107.22 108.439 106.679 108.465 106.988C108.491 107.272 108.517 107.556 108.53 107.839C108.543 108.265 108.543 108.691 108.517 109.116C108.478 109.722 108.439 110.096 108.362 110.561C107.859 113.488 106.428 116.08 104.145 118.053C102.533 119.446 100.573 120.452 98.5607 121.149C97.7869 121.419 96.9873 121.626 96.2006 121.652C95.8782 121.664 95.5429 121.639 95.3624 121.613C95.2334 121.587 95.1044 121.561 94.9755 121.523C94.911 121.497 94.8336 121.484 94.7691 121.458C94.5112 121.368 94.911 121.536 94.6788 121.419C94.5499 121.355 94.4338 121.29 94.3177 121.213C94.1372 121.097 94.279 121.213 94.1501 121.084C93.9179 120.878 93.7632 120.697 93.6729 120.568C93.2989 120.027 93.1957 119.73 93.0281 119.098C92.6799 117.796 92.6799 116.416 92.7701 114.997C92.9636 112.095 93.6471 109.193 94.4596 106.395C95.6332 102.333 98.2641 98.0251 102.365 96.3743C106.673 94.6462 111.148 97.0449 114.23 100.037C116.964 102.681 118.937 106.021 120.446 109.49C121.8 112.611 122.768 115.9 123.49 119.214C123.748 120.414 123.98 121.613 124.16 122.825C124.199 123.057 124.225 123.289 124.264 123.522C124.276 123.625 124.289 123.728 124.302 123.831C124.276 123.599 124.302 123.818 124.315 123.921C124.354 124.192 124.38 124.463 124.405 124.734C124.418 124.824 124.431 124.927 124.431 125.018C124.534 126.178 126.366 126.191 126.263 125.018Z" fill="#222122"/>
<path d="M145.285 127.494C147.439 122.645 151.914 119.318 156.969 117.938C158.104 117.628 157.627 115.861 156.479 116.171C151.024 117.654 146.046 121.316 143.699 126.565C143.492 127.017 143.57 127.546 144.021 127.816C144.434 128.048 145.091 127.945 145.285 127.494Z" fill="#222122"/>
<path d="M152.7 105.531C151.849 110.329 154.016 115.565 157.691 118.621C159.51 120.143 161.638 121.239 163.869 122C165.416 122.529 167.222 122.864 168.795 122.232C171.671 121.071 172.084 117.551 172.007 114.842C171.903 111.631 171.194 108.433 170.317 105.35C169.04 100.85 166.371 96.3099 162.05 94.1433C159.987 93.1116 157.73 92.8021 155.473 93.2406C152.855 93.7435 150.482 95.175 148.47 96.8774C145.311 99.5341 143.002 103.106 141.287 106.821C138.837 112.134 137.302 117.976 136.683 123.793C136.67 123.896 136.657 123.999 136.657 124.102C136.554 125.276 138.385 125.263 138.488 124.102C138.514 123.741 138.566 123.38 138.617 123.006C138.63 122.941 138.669 122.619 138.63 122.916C138.643 122.812 138.656 122.709 138.669 122.606C138.708 122.374 138.734 122.142 138.772 121.91C138.862 121.355 138.953 120.801 139.056 120.233C139.636 117.099 140.436 114.017 141.519 111.025C142.796 107.517 144.485 104.061 146.845 101.146C149.489 97.8962 153.448 94.685 157.872 94.8655C162.115 95.0461 165.442 98.6571 167.222 102.217C168.047 103.88 168.55 105.673 169.002 107.465C169.376 108.949 169.698 110.457 169.917 111.979C170.137 113.424 170.253 114.958 170.162 116.441C170.124 117.099 170.059 117.602 169.866 118.286C169.698 118.879 169.582 119.201 169.195 119.73C169.182 119.756 169.092 119.859 169.195 119.743C169.156 119.795 169.105 119.846 169.066 119.898C168.976 119.988 168.899 120.065 168.808 120.156C168.628 120.323 168.821 120.169 168.615 120.31C168.486 120.388 168.357 120.465 168.215 120.53C168.073 120.594 168.421 120.452 168.163 120.555C168.112 120.581 168.06 120.594 167.996 120.607C167.854 120.646 167.712 120.684 167.557 120.71C167.338 120.749 167.016 120.762 166.667 120.749C164.772 120.672 162.76 119.73 161.109 118.789C158.22 117.138 155.963 114.571 154.983 111.451C154.609 110.264 154.454 109.335 154.39 108.226C154.351 107.517 154.377 106.821 154.442 106.111C154.467 105.802 154.403 106.343 154.454 106.034C154.661 104.86 152.907 104.37 152.7 105.531Z" fill="#222122"/>
<path d="M131.563 151.597C133.287 151.597 134.684 150.726 134.684 149.65C134.684 148.575 133.287 147.703 131.563 147.703C129.839 147.703 128.442 148.575 128.442 149.65C128.442 150.726 129.839 151.597 131.563 151.597Z" fill="#FFD8B6"/>
<path d="M124.418 158.304L132.053 156.344L137.882 156.898L138.85 158.962L136.541 159.581L132.053 160.161L128.713 159.748L125.914 159.4L124.728 159.026L123.58 158.252L124.418 158.304Z" fill="#FF3542"/>
<path d="M140.629 157.917C137.637 159.181 134.413 159.813 131.163 159.735C129.551 159.697 127.939 159.49 126.379 159.103C125.605 158.923 124.857 158.691 124.109 158.433C123.387 158.175 122.561 157.943 121.981 157.401C121.555 157.001 121.246 156.382 121.401 155.789C121.568 155.157 122.084 154.357 122.69 154.087C123.425 153.751 124.096 153.996 124.805 154.267C125.54 154.564 126.301 154.809 127.062 155.015C130.015 155.776 133.162 155.789 136.128 155.067C137.044 154.848 137.921 154.538 138.798 154.19C139.52 153.893 140.307 153.764 140.99 154.241C141.364 154.499 141.558 154.912 141.764 155.299C141.932 155.596 142.061 155.866 142.035 156.215C141.958 157.04 141.3 157.607 140.629 157.917C140.268 158.085 140.578 158.613 140.939 158.446C141.996 157.956 142.977 156.756 142.538 155.518C142.061 154.19 141.003 153.158 139.52 153.352C138.656 153.468 137.831 153.958 136.993 154.216C136.103 154.486 135.187 154.693 134.271 154.835C132.285 155.131 130.235 155.08 128.262 154.693C127.346 154.512 126.443 154.267 125.566 153.945C124.792 153.661 124.083 153.261 123.232 153.352C122.587 153.416 121.968 153.713 121.568 154.241C121.194 154.731 120.769 155.415 120.743 156.06C120.691 157.491 121.955 158.278 123.116 158.742C124.857 159.439 126.688 159.916 128.558 160.161C132.762 160.728 137.031 160.122 140.926 158.459C141.287 158.291 140.978 157.762 140.629 157.917Z" fill="#191919"/>
<path d="M124.212 158.781C124.212 158.781 130.647 156.305 138.605 158.781L140.152 158.33L141.519 157.375L142.074 156.279L141.906 155.286L141.313 154.461L140.655 153.906L138.837 154.035L136.773 154.551L133.369 155.286L128.145 154.964L125.592 154.138L123.67 153.906L122.161 154.138L121.272 155.041L121.413 156.24L121.646 157.233L123.4 158.652L124.212 158.781Z" fill="#222122"/>
<path d="M138.501 140.739C140.436 139.578 142.757 139.578 144.705 140.739C145.711 141.345 146.639 139.771 145.633 139.165C143.17 137.682 140.062 137.682 137.586 139.165C136.567 139.771 137.483 141.345 138.501 140.739Z" fill="#222122"/>
<path d="M119.402 140.739C121.336 139.578 123.657 139.578 125.605 140.739C126.611 141.345 127.539 139.771 126.533 139.165C124.07 137.682 120.962 137.682 118.486 139.165C117.467 139.771 118.383 141.345 119.402 140.739Z" fill="#222122"/>
<path d="M117.261 170.194L112.618 166.003L110.619 163.939H107.382L105.654 167.06L106.066 169.317L111.457 174.966L115.778 173.689L117.261 170.194Z" fill="white"/>
<path d="M147.568 170.194L152.21 166.003L154.209 163.939H157.446L159.175 167.06L158.762 169.317L153.371 174.966L149.038 173.689L147.568 170.194Z" fill="white"/>
<path d="M113.933 176.153C111.767 173.986 109.561 171.858 107.434 169.653C106.453 168.634 106.26 167.086 107.034 165.874C107.808 164.688 109.355 164.197 110.671 164.713C111.315 164.971 111.767 165.461 112.231 165.938C112.902 166.609 113.572 167.28 114.243 167.95C115.52 169.227 116.796 170.504 118.086 171.794C118.924 172.632 120.214 171.329 119.376 170.504C118.164 169.292 116.951 168.079 115.752 166.88C115.017 166.145 114.282 165.41 113.559 164.688C112.94 164.068 112.347 163.475 111.535 163.114C109.845 162.366 107.885 162.65 106.466 163.811C105.073 164.958 104.48 166.828 104.841 168.569C105.241 170.504 107.098 171.897 108.427 173.225C109.832 174.631 111.238 176.036 112.644 177.442C113.469 178.268 114.759 176.978 113.933 176.153Z" fill="#222122"/>
<path d="M152.546 177.442C153.745 176.243 154.945 175.043 156.131 173.857C156.879 173.109 157.627 172.361 158.362 171.626C158.93 171.058 159.51 170.517 159.884 169.807C160.709 168.221 160.632 166.222 159.574 164.752C158.517 163.282 156.737 162.495 154.932 162.753C152.83 163.05 151.45 164.855 150.044 166.274C148.625 167.692 147.207 169.111 145.788 170.53C144.95 171.368 146.252 172.658 147.078 171.819C149.231 169.666 151.334 167.447 153.552 165.345C154.622 164.339 156.337 164.249 157.485 165.165C158.581 166.042 158.955 167.628 158.298 168.879C158.001 169.446 157.524 169.859 157.085 170.298C156.402 170.981 155.718 171.665 155.035 172.348C153.771 173.612 152.507 174.876 151.23 176.153C150.418 176.978 151.708 178.268 152.546 177.442Z" fill="#222122"/>
<path d="M127.565 170.13C127.526 170.027 127.449 169.924 127.346 169.846C125.205 168.311 123.064 166.79 120.923 165.255C120.614 165.036 120.304 164.817 120.008 164.597C119.363 164.146 118.757 165.191 119.389 165.655C121.53 167.189 123.67 168.711 125.811 170.246C126.095 170.452 126.379 170.659 126.662 170.852C126.882 170.53 127.191 170.285 127.565 170.13Z" fill="#222122"/>
<path d="M144.344 164.842C144.176 164.546 143.724 164.391 143.428 164.597C141.068 166.287 138.708 167.976 136.335 169.653C135.999 169.898 135.651 170.143 135.316 170.375C135.2 170.452 135.11 170.568 135.058 170.697C135.548 170.813 135.948 171.046 136.244 171.355C138.527 169.73 140.797 168.105 143.08 166.48C143.415 166.235 143.763 165.99 144.098 165.758C144.395 165.552 144.537 165.178 144.344 164.842Z" fill="#222122"/>
<path d="M163.366 130.744C162.682 131.04 161.999 131.208 161.315 131.311C160.632 131.414 159.948 131.466 159.265 131.466C158.581 131.466 157.898 131.414 157.214 131.311C156.531 131.195 155.847 131.04 155.164 130.731C155.847 130.421 156.531 130.267 157.214 130.151C157.898 130.047 158.581 129.996 159.265 129.996C159.948 129.996 160.632 130.047 161.315 130.151C161.999 130.28 162.682 130.447 163.366 130.744Z" fill="#FFCA00"/>
<path d="M159.278 123.522C159.587 124.566 159.729 125.611 159.845 126.656C159.948 127.7 160 128.745 160 129.789C160 130.834 159.948 131.879 159.845 132.923C159.729 133.968 159.574 135.013 159.265 136.057C158.955 135.013 158.8 133.968 158.684 132.923C158.581 131.879 158.53 130.834 158.53 129.789C158.53 128.745 158.581 127.7 158.684 126.656C158.813 125.611 158.968 124.566 159.278 123.522Z" fill="#FFCA00"/>
<path d="M170.356 136.638C169.943 136.934 169.543 137.102 169.131 137.205C168.718 137.308 168.318 137.36 167.906 137.36C167.493 137.36 167.093 137.308 166.68 137.205C166.268 137.089 165.868 136.934 165.455 136.625C165.868 136.315 166.268 136.16 166.68 136.044C167.093 135.941 167.493 135.89 167.906 135.89C168.318 135.89 168.718 135.941 169.131 136.044C169.543 136.173 169.943 136.328 170.356 136.638Z" fill="#FFCA00"/>
<path d="M167.905 132.292C168.202 132.923 168.37 133.542 168.473 134.174C168.576 134.806 168.628 135.425 168.628 136.057C168.628 136.689 168.576 137.308 168.473 137.94C168.357 138.572 168.202 139.191 167.893 139.823C167.583 139.191 167.428 138.572 167.312 137.94C167.209 137.308 167.157 136.689 167.157 136.057C167.157 135.425 167.209 134.806 167.312 134.174C167.441 133.542 167.596 132.923 167.905 132.292Z" fill="#FFCA00"/>
<path d="M165.984 144.001C165.391 144.298 164.785 144.466 164.191 144.569C163.598 144.672 162.992 144.724 162.399 144.724C161.805 144.724 161.199 144.672 160.606 144.569C160.013 144.453 159.407 144.298 158.813 143.989C159.407 143.679 160.013 143.524 160.606 143.408C161.199 143.305 161.805 143.253 162.399 143.253C162.992 143.253 163.598 143.305 164.191 143.408C164.785 143.55 165.391 143.705 165.984 144.001Z" fill="#FFCA00"/>
<path d="M162.386 137.656C162.682 138.572 162.85 139.488 162.953 140.416C163.056 141.332 163.108 142.247 163.108 143.176C163.108 144.092 163.056 145.007 162.953 145.936C162.837 146.852 162.682 147.767 162.373 148.696C162.063 147.78 161.909 146.864 161.793 145.936C161.689 145.02 161.638 144.105 161.638 143.176C161.638 142.26 161.689 141.345 161.793 140.416C161.934 139.488 162.089 138.572 162.386 137.656Z" fill="#FFCA00"/>
<path d="M123.309 169.562V171.419C123.309 171.523 123.399 171.613 123.503 171.613H127.333C127.436 171.613 127.526 171.523 127.526 171.419V169.562C127.526 169.459 127.436 169.369 127.333 169.369H123.503C123.399 169.369 123.309 169.459 123.309 169.562Z" fill="#2D2D2D"/>
<path d="M127.346 171.871H123.516C123.271 171.871 123.064 171.665 123.064 171.42V169.562C123.064 169.317 123.271 169.111 123.516 169.111H127.346C127.591 169.111 127.797 169.317 127.797 169.562V171.42C127.784 171.665 127.591 171.871 127.346 171.871ZM123.567 171.355H127.281V169.627H123.567V171.355Z" fill="black"/>
<path d="M141.171 170.71H121.955C121.349 170.71 120.859 171.2 120.859 171.806V171.897V179.08V181.788C120.859 182.394 121.349 182.885 121.955 182.885H141.171C141.777 182.885 142.267 182.394 142.267 181.788V179.08V171.897V171.819C142.267 171.2 141.777 170.71 141.171 170.71Z" fill="white"/>
<path d="M142.28 174.012H120.859V181.453H142.28V174.012Z" fill="#2D2D2D"/>
<path d="M142.525 181.698H120.601V173.754H142.525V181.698ZM121.104 181.195H142.009V174.27H121.104V181.195Z" fill="black"/>
<path d="M134.826 182.588C137.54 182.588 139.739 180.388 139.739 177.674C139.739 174.961 137.54 172.761 134.826 172.761C132.112 172.761 129.912 174.961 129.912 177.674C129.912 180.388 132.112 182.588 134.826 182.588Z" fill="white"/>
<path d="M134.826 182.846C131.976 182.846 129.667 180.524 129.667 177.687C129.667 174.837 131.989 172.529 134.826 172.529C137.676 172.529 139.984 174.85 139.984 177.687C139.984 180.524 137.676 182.846 134.826 182.846ZM134.826 173.019C132.259 173.019 130.17 175.108 130.17 177.674C130.17 180.241 132.259 182.33 134.826 182.33C137.392 182.33 139.482 180.241 139.482 177.674C139.482 175.108 137.392 173.019 134.826 173.019Z" fill="black"/>
<path d="M134.826 181.518C136.948 181.518 138.669 179.797 138.669 177.674C138.669 175.552 136.948 173.831 134.826 173.831C132.703 173.831 130.983 175.552 130.983 177.674C130.983 179.797 132.703 181.518 134.826 181.518Z" fill="#2EACB5"/>
<path d="M134.826 181.776C132.569 181.776 130.738 179.944 130.738 177.687C130.738 175.43 132.569 173.599 134.826 173.599C137.083 173.599 138.914 175.43 138.914 177.687C138.914 179.931 137.083 181.776 134.826 181.776ZM134.826 174.102C132.853 174.102 131.241 175.714 131.241 177.687C131.241 179.661 132.853 181.273 134.826 181.273C136.799 181.273 138.411 179.661 138.411 177.687C138.411 175.701 136.799 174.102 134.826 174.102Z" fill="black"/>
<path d="M141.171 183.155H121.955C121.207 183.155 120.601 182.549 120.601 181.801V171.819C120.601 171.071 121.207 170.465 121.955 170.465H141.171C141.919 170.465 142.525 171.071 142.525 171.819V181.814C142.525 182.549 141.919 183.155 141.171 183.155ZM121.955 170.968C121.491 170.968 121.104 171.342 121.104 171.819V181.814C121.104 182.278 121.478 182.665 121.955 182.665H141.171C141.635 182.665 142.022 182.291 142.022 181.814V171.819C142.022 171.355 141.648 170.968 141.171 170.968H121.955V170.968Z" fill="black"/>
<path d="M134.826 179.054C135.588 179.054 136.206 178.436 136.206 177.674C136.206 176.912 135.588 176.294 134.826 176.294C134.064 176.294 133.446 176.912 133.446 177.674C133.446 178.436 134.064 179.054 134.826 179.054Z" fill="#2D2D2D"/>
<path d="M133.923 177.403C134.479 177.403 134.929 176.953 134.929 176.398C134.929 175.842 134.479 175.392 133.923 175.392C133.368 175.392 132.917 175.842 132.917 176.398C132.917 176.953 133.368 177.403 133.923 177.403Z" fill="#F6D3A6"/>
<path d="M116.474 194.182L113.056 196.993L113.482 197.754L114.63 198.683L126.92 198.335L128.945 198.064V196.684L125.992 194.994L122.961 193.976L116.474 194.182Z" fill="white"/>
<path d="M138.127 194.182L134.71 196.993L135.123 197.754L136.283 198.683L148.561 198.335L150.598 198.064V196.684L147.645 194.994L144.614 193.976L138.127 194.182Z" fill="white"/>
<path d="M128.945 196.749H113.663V198.67H128.945V196.749Z" fill="#FFD8B6"/>
<path d="M150.302 196.749H135.019V198.67H150.302V196.749Z" fill="#FFD8B6"/>
<path d="M121.297 192.957C119.053 192.97 116.706 193.395 114.759 194.569C113.276 195.459 112.025 196.865 111.986 198.67C111.973 199.16 112.412 199.586 112.902 199.586C117.802 199.586 122.69 199.586 127.591 199.586C128.3 199.586 129.009 199.586 129.719 199.586C130.209 199.586 130.647 199.173 130.634 198.67C130.596 196.865 129.345 195.459 127.862 194.569C125.889 193.408 123.541 192.983 121.297 192.957C120.124 192.944 120.124 194.775 121.297 194.788C123.129 194.801 125.024 195.111 126.637 195.988C127.655 196.542 128.764 197.432 128.79 198.67C129.1 198.361 129.396 198.064 129.706 197.754C124.805 197.754 119.917 197.754 115.017 197.754C114.307 197.754 113.598 197.754 112.889 197.754C113.198 198.064 113.495 198.361 113.804 198.67C113.83 197.432 114.939 196.542 115.958 195.988C117.583 195.098 119.479 194.801 121.297 194.788C122.471 194.775 122.471 192.957 121.297 192.957Z" fill="#222122"/>
<path d="M142.654 192.957C140.41 192.97 138.063 193.395 136.116 194.569C134.632 195.459 133.381 196.865 133.343 198.67C133.33 199.16 133.768 199.586 134.258 199.586C139.159 199.586 144.047 199.586 148.948 199.586C149.657 199.586 150.366 199.586 151.076 199.586C151.566 199.586 152.004 199.173 151.991 198.67C151.953 196.865 150.702 195.459 149.218 194.569C147.245 193.408 144.898 192.983 142.654 192.957C141.481 192.944 141.481 194.775 142.654 194.788C144.485 194.801 146.381 195.111 147.993 195.988C149.012 196.542 150.121 197.432 150.147 198.67C150.457 198.361 150.753 198.064 151.063 197.754C146.162 197.754 141.274 197.754 136.374 197.754C135.664 197.754 134.955 197.754 134.246 197.754C134.555 198.064 134.852 198.361 135.161 198.67C135.187 197.432 136.296 196.542 137.315 195.988C138.94 195.098 140.836 194.801 142.654 194.788C143.828 194.775 143.828 192.957 142.654 192.957Z" fill="#222122"/>
</g>
</g>
<defs>
<clipPath id="clip0">
<rect width="352" height="350" rx="20" fill="white"/>
</clipPath>
<clipPath id="clip1">
<rect width="450" height="265.244" fill="white" transform="translate(60 72)"/>
</clipPath>
</defs>
</svg>
