<svg width="375" height="318" viewBox="0 0 375 318" fill="none" xmlns="http://www.w3.org/2000/svg">
<g clip-path="url(#clip0)">
<path d="M355.542 163.849H-44.8382C-55.5408 163.849 -64.3098 155.105 -64.3098 144.402C-64.3098 133.713 -55.5544 124.955 -44.8382 124.955H355.542C366.245 124.955 375.014 133.7 375.014 144.402C375 155.105 366.245 163.849 355.542 163.849Z" fill="#A5B0F2"/>
<path d="M51.9615 122.412H278.813C278.813 122.412 279.344 91.324 242.416 102.394C242.416 102.394 231.986 68.0692 176.389 76.8952C176.389 76.8952 139.434 35.5669 90.1423 61.4328C40.8505 87.2987 51.9615 122.412 51.9615 122.412Z" fill="#65ADA6"/>
<path d="M220.807 35.1589H340.836C340.836 35.1589 339.025 18.0374 320.085 25.245C320.085 25.245 309.709 4.07086 286.697 15.3311C286.697 15.3311 256.972 -15.1586 230.202 11.0201C230.188 11.0065 221.229 18.5677 220.807 35.1589Z" fill="#9CF5F4"/>
<path d="M14.8429 40.4082H-68C-68 40.4082 -66.7609 28.5904 -53.6754 33.5678C-53.6754 33.5678 -46.5131 18.9485 -30.6363 26.7273C-30.6363 26.7273 -10.1162 5.68918 8.36147 23.7491C8.36147 23.7355 14.5434 28.9576 14.8429 40.4082Z" fill="#9CF5F4"/>
<path d="M245.371 86.7003H167.893V120.399H245.371V86.7003Z" fill="#F9FCEC"/>
<path d="M250.858 89.8553H245.371V120.399H250.858V89.8553Z" fill="#E2BDCA"/>
<path d="M308.742 86.7003H250.858V109.996H308.742V86.7003Z" fill="#F9FCEC"/>
<path d="M308.66 86.7003C308.66 86.7003 320.956 95.4038 324.728 110.05L308.729 109.928L308.66 86.7003Z" fill="#E2BDCA"/>
<path d="M324.728 109.452H306.019V112.593H324.728V109.452Z" fill="#3343A8"/>
<path d="M296.106 112.675H250.844V120.399H296.106V112.675Z" fill="#F9FCEC"/>
<path d="M306.168 112.607H324.728C324.728 112.607 324.918 114.66 323.543 116.02C322.168 117.38 320.33 119.298 320.33 119.298L306.019 121.025L306.168 112.607Z" fill="#F9FCEC"/>
<path d="M308.919 120.399H167.893V122.113H308.919V120.399Z" fill="#E2BDCA"/>
<path d="M324.878 114.171C324.878 114.171 321.8 120.685 308.81 120.399L308.824 122.113C308.824 122.113 324.592 122.983 324.986 114.171" fill="#E2BDCA"/>
<path d="M306.169 92.2216H253.622V109.588H306.169V92.2216Z" fill="#E2BDCA"/>
<path d="M242.538 92.3576H170.126V109.466H242.538V92.3576Z" fill="#E2BDCA"/>
<path d="M245.384 109.452H167.784V112.675H245.384V109.452Z" fill="#3343A8"/>
<path d="M217.933 109.316H194.744V120.399H217.933V109.316Z" fill="#E2BDCA"/>
<path d="M296.419 109.452H250.858V112.675H296.419V109.452Z" fill="#3343A8"/>
<path d="M306.168 109.452H296.106V120.399H306.168V109.452Z" fill="#FFB57C"/>
<path d="M236.125 163.754H267.688C270.167 161.456 269.867 132.734 250.994 134.121C232.98 135.454 236.125 163.754 236.125 163.754Z" fill="#65ADA6"/>
<path d="M239.27 163.754C239.27 163.754 237.514 141.043 248.325 134.543C248.325 134.543 233.756 136.147 236.125 163.754H239.27Z" fill="#9CF5F4"/>
<path d="M196.106 163.754H227.669C230.147 161.456 229.848 132.734 210.975 134.121C192.961 135.454 196.106 163.754 196.106 163.754Z" fill="#65ADA6"/>
<path d="M199.251 163.754C199.251 163.754 197.495 141.043 208.306 134.543C208.306 134.543 193.737 136.147 196.106 163.754H199.251Z" fill="#9CF5F4"/>
<path d="M155.965 163.754H187.528C190.006 161.456 189.706 132.734 170.834 134.121C152.819 135.454 155.965 163.754 155.965 163.754Z" fill="#65ADA6"/>
<path d="M159.11 163.754C159.11 163.754 157.354 141.043 168.165 134.543C168.165 134.543 153.595 136.147 155.965 163.754H159.11Z" fill="#9CF5F4"/>
<path d="M38.7127 44.6648H21.6648V76.0928H38.7127V44.6648Z" fill="#F9FCEC"/>
<path d="M55.6653 20.1996L38.2634 44.6648V76.0928H73.0673V44.6648L55.6653 20.1996Z" fill="#F6F1E3"/>
<path d="M38.2633 44.6648L55.6653 20.1996H38.7263L21.6648 44.6648H38.2633Z" fill="#E2BDCA"/>
<path d="M31.782 48.5406H28.6638V54.9867H31.782V48.5406Z" fill="#EAB890"/>
<path d="M30.5292 48.5406H28.6501V54.9867H30.5292V48.5406Z" fill="#EBD7C8"/>
<path d="M31.782 57.1898H28.6638V63.6358H31.782V57.1898Z" fill="#EAB890"/>
<path d="M30.5157 57.1898H28.6638V63.6358H30.5157V57.1898Z" fill="#EBD7C8"/>
<path d="M49.1294 48.5406H46.0112V54.9867H49.1294V48.5406Z" fill="#EAB890"/>
<path d="M47.8631 48.5406H46.0112V54.9867H47.8631V48.5406Z" fill="#EBD7C8"/>
<path d="M54.8618 48.5406H51.7437V54.9867H54.8618V48.5406Z" fill="#EAB890"/>
<path d="M53.5955 48.5406H51.7437V54.9867H53.5955V48.5406Z" fill="#EBD7C8"/>
<path d="M60.4719 48.5406H57.3538V54.9867H60.4719V48.5406Z" fill="#EAB890"/>
<path d="M59.2056 48.5406H57.3538V54.9867H59.2056V48.5406Z" fill="#EBD7C8"/>
<path d="M66.0137 48.5406H62.8955V54.9867H66.0137V48.5406Z" fill="#EAB890"/>
<path d="M64.7474 48.5406H62.8955V54.9867H64.7474V48.5406Z" fill="#EBD7C8"/>
<path d="M49.1294 57.285H46.0112V63.731H49.1294V57.285Z" fill="#EAB890"/>
<path d="M47.8631 57.285H46.0112V63.731H47.8631V57.285Z" fill="#EBD7C8"/>
<path d="M54.8618 57.285H51.7437V63.731H54.8618V57.285Z" fill="#EAB890"/>
<path d="M53.5955 57.285H51.7437V63.731H53.5955V57.285Z" fill="#EBD7C8"/>
<path d="M60.4719 57.285H57.3538V63.731H60.4719V57.285Z" fill="#EAB890"/>
<path d="M59.2056 57.285H57.3538V63.731H59.2056V57.285Z" fill="#EBD7C8"/>
<path d="M66.0137 57.285H62.8955V63.731H66.0137V57.285Z" fill="#EAB890"/>
<path d="M64.7474 57.285H62.8955V63.731H64.7474V57.285Z" fill="#EBD7C8"/>
<path d="M49.1294 65.9613H46.0112V72.4074H49.1294V65.9613Z" fill="#EAB890"/>
<path d="M47.8631 65.9613H46.0112V72.4074H47.8631V65.9613Z" fill="#EBD7C8"/>
<path d="M54.8618 65.9613H51.7437V72.4074H54.8618V65.9613Z" fill="#EAB890"/>
<path d="M53.5955 65.9613H51.7437V72.4074H53.5955V65.9613Z" fill="#EBD7C8"/>
<path d="M60.4719 65.9613H57.3538V72.4074H60.4719V65.9613Z" fill="#EAB890"/>
<path d="M59.2056 65.9613H57.3538V72.4074H59.2056V65.9613Z" fill="#EBD7C8"/>
<path d="M66.0274 65.9613H62.9092V72.4074H66.0274V65.9613Z" fill="#EAB890"/>
<path d="M64.761 65.9613H62.9092V72.4074H64.761V65.9613Z" fill="#EBD7C8"/>
<path d="M31.8909 65.7574H28.7727V72.2034H31.8909V65.7574Z" fill="#EAB890"/>
<path d="M30.6245 65.7574H28.7727V72.2034H30.6245V65.7574Z" fill="#EBD7C8"/>
<path d="M41.1228 17.847H39.271V20.1996H41.1228V17.847Z" fill="#A5B0F2"/>
<path d="M43.2061 17.1942H41.3542V20.1861H43.2061V17.1942Z" fill="#A5B0F2"/>
<path d="M55.6789 20.0501H38.7263V20.186H55.6789V20.0501Z" fill="#A5B0F2"/>
<path d="M88.2495 45.9296H71.2017V88.5498H88.2495V45.9296Z" fill="#A5B0F2"/>
<path d="M105.134 21.4916L87.882 45.8615L87.7322 88.5634H122.536V50.8525L105.134 21.4916Z" fill="#92A4F0"/>
<path d="M87.8138 45.9296L105.202 21.4644H88.2632L71.2017 45.9296H87.8138Z" fill="#F9FCEC"/>
<path d="M84.2054 49.8054H81.0872V56.2514H84.2054V49.8054Z" fill="#69B2A6"/>
<path d="M82.9663 49.8054H81.0872V56.2514H82.9663V49.8054Z" fill="#99E0E0"/>
<path d="M84.1919 58.5633H81.0737V65.0094H84.1919V58.5633Z" fill="#69B2A6"/>
<path d="M82.9527 58.5769H81.1008V65.023H82.9527V58.5769Z" fill="#99E0E0"/>
<path d="M98.666 49.8054H95.5479V56.2514H98.666V49.8054Z" fill="#69B2A6"/>
<path d="M97.3997 49.8054H95.5479V56.2514H97.3997V49.8054Z" fill="#99E0E0"/>
<path d="M104.399 49.8054H101.281V56.2514H104.399V49.8054Z" fill="#69B2A6"/>
<path d="M103.132 49.8054H101.281V56.2514H103.132V49.8054Z" fill="#99E0E0"/>
<path d="M110.009 49.8054H106.891V56.2514H110.009V49.8054Z" fill="#69B2A6"/>
<path d="M108.742 49.8054H106.891V56.2514H108.742V49.8054Z" fill="#99E0E0"/>
<path d="M115.564 49.8054H112.446V56.2514H115.564V49.8054Z" fill="#69B2A6"/>
<path d="M114.298 49.8054H112.446V56.2514H114.298V49.8054Z" fill="#99E0E0"/>
<path d="M98.666 58.5497H95.5479V64.9958H98.666V58.5497Z" fill="#69B2A6"/>
<path d="M97.3997 58.5497H95.5479V64.9958H97.3997V58.5497Z" fill="#99E0E0"/>
<path d="M104.399 58.5497H101.281V64.9958H104.399V58.5497Z" fill="#69B2A6"/>
<path d="M103.132 58.5497H101.281V64.9958H103.132V58.5497Z" fill="#99E0E0"/>
<path d="M110.009 58.5497H106.891V64.9958H110.009V58.5497Z" fill="#69B2A6"/>
<path d="M108.742 58.5497H106.891V64.9958H108.742V58.5497Z" fill="#99E0E0"/>
<path d="M115.564 58.5497H112.446V64.9958H115.564V58.5497Z" fill="#69B2A6"/>
<path d="M114.298 58.5497H112.446V64.9958H114.298V58.5497Z" fill="#99E0E0"/>
<path d="M98.666 67.2261H95.5479V73.6721H98.666V67.2261Z" fill="#69B2A6"/>
<path d="M97.3997 67.2261H95.5479V73.6721H97.3997V67.2261Z" fill="#99E0E0"/>
<path d="M104.399 67.2261H101.281V73.6721H104.399V67.2261Z" fill="#69B2A6"/>
<path d="M103.132 67.2261H101.281V73.6721H103.132V67.2261Z" fill="#99E0E0"/>
<path d="M110.009 67.2261H106.891V73.6721H110.009V67.2261Z" fill="#69B2A6"/>
<path d="M108.742 67.2261H106.891V73.6721H108.742V67.2261Z" fill="#99E0E0"/>
<path d="M115.564 67.2261H112.446V73.6721H115.564V67.2261Z" fill="#69B2A6"/>
<path d="M114.298 67.2261H112.446V73.6721H114.298V67.2261Z" fill="#99E0E0"/>
<path d="M84.219 67.2397H81.1008V73.6857H84.219V67.2397Z" fill="#69B2A6"/>
<path d="M82.9527 67.2397H81.1008V73.6857H82.9527V67.2397Z" fill="#99E0E0"/>
<path d="M90.6597 19.1117H88.8079V21.4644H90.6597V19.1117Z" fill="#E8AD7D"/>
<path d="M92.743 18.4589H90.8911V21.4508H92.743V18.4589Z" fill="#E8AD7D"/>
<path d="M105.216 21.3284H88.2632V21.4644H105.216V21.3284Z" fill="#E8AD7D"/>
<path d="M98.5708 75.6848H95.4526V82.1309H98.5708V75.6848Z" fill="#69B2A6"/>
<path d="M97.3045 75.6848H95.4526V82.1309H97.3045V75.6848Z" fill="#99E0E0"/>
<path d="M104.303 75.6848H101.185V82.1309H104.303V75.6848Z" fill="#69B2A6"/>
<path d="M103.037 75.6848H101.185V82.1309H103.037V75.6848Z" fill="#99E0E0"/>
<path d="M109.913 75.6848H106.795V82.1309H109.913V75.6848Z" fill="#69B2A6"/>
<path d="M108.647 75.6848H106.795V82.1309H108.647V75.6848Z" fill="#99E0E0"/>
<path d="M115.469 75.6848H112.351V82.1309H115.469V75.6848Z" fill="#69B2A6"/>
<path d="M114.203 75.6848H112.351V82.1309H114.203V75.6848Z" fill="#99E0E0"/>
<path d="M84.219 75.7256H81.1008V82.1717H84.219V75.7256Z" fill="#69B2A6"/>
<path d="M82.9527 75.7256H81.1008V82.1717H82.9527V75.7256Z" fill="#99E0E0"/>
<path d="M77.6694 75.7528H74.5513V82.1989H77.6694V75.7528Z" fill="#69B2A6"/>
<path d="M76.4031 75.7528H74.5513V82.1989H76.4031V75.7528Z" fill="#99E0E0"/>
<path d="M77.6694 67.1717H74.5513V73.6178H77.6694V67.1717Z" fill="#69B2A6"/>
<path d="M76.4031 67.1717H74.5513V73.6178H76.4031V67.1717Z" fill="#99E0E0"/>
<path d="M77.6694 58.6041H74.5513V65.0502H77.6694V58.6041Z" fill="#69B2A6"/>
<path d="M76.4031 58.6041H74.5513V65.0502H76.4031V58.6041Z" fill="#99E0E0"/>
<path d="M77.6694 49.751H74.5513V56.197H77.6694V49.751Z" fill="#69B2A6"/>
<path d="M76.4031 49.751H74.5513V56.197H76.4031V49.751Z" fill="#99E0E0"/>
<path d="M135.907 77.208H122.536V110.621H135.907V77.208Z" fill="#E0B7C6"/>
<path d="M149.143 58.0465L135.608 77.14L135.499 110.635H162.786V81.0702L149.143 58.0465Z" fill="#DBA7BC"/>
<path d="M135.553 77.208L149.197 58.0193H135.907L122.536 77.208H135.553Z" fill="#FFB57C"/>
<path d="M132.735 80.2406H130.284V85.2996H132.735V80.2406Z" fill="#3542A7"/>
<path d="M131.741 80.2406H130.27V85.2996H131.741V80.2406Z" fill="#92A4F0"/>
<path d="M132.721 87.1083H130.27V92.1672H132.721V87.1083Z" fill="#3542A7"/>
<path d="M131.741 87.1219H130.284V92.1808H131.741V87.1219Z" fill="#92A4F0"/>
<path d="M144.077 80.2406H141.626V85.2996H144.077V80.2406Z" fill="#3542A7"/>
<path d="M143.083 80.2406H141.626V85.2996H143.083V80.2406Z" fill="#92A4F0"/>
<path d="M148.571 80.2406H146.12V85.2996H148.571V80.2406Z" fill="#3542A7"/>
<path d="M147.577 80.2406H146.12V85.2996H147.577V80.2406Z" fill="#92A4F0"/>
<path d="M152.969 80.2406H150.518V85.2996H152.969V80.2406Z" fill="#3542A7"/>
<path d="M151.975 80.2406H150.518V85.2996H151.975V80.2406Z" fill="#92A4F0"/>
<path d="M157.313 80.2406H154.862V85.2996H157.313V80.2406Z" fill="#3542A7"/>
<path d="M156.319 80.2406H154.862V85.2996H156.319V80.2406Z" fill="#92A4F0"/>
<path d="M144.077 87.0947H141.626V92.1536H144.077V87.0947Z" fill="#3542A7"/>
<path d="M143.083 87.0947H141.626V92.1536H143.083V87.0947Z" fill="#92A4F0"/>
<path d="M148.571 87.0947H146.12V92.1536H148.571V87.0947Z" fill="#3542A7"/>
<path d="M147.577 87.0947H146.12V92.1536H147.577V87.0947Z" fill="#92A4F0"/>
<path d="M152.969 87.0947H150.518V92.1536H152.969V87.0947Z" fill="#3542A7"/>
<path d="M151.975 87.0947H150.518V92.1536H151.975V87.0947Z" fill="#92A4F0"/>
<path d="M157.313 87.0947H154.862V92.1536H157.313V87.0947Z" fill="#3542A7"/>
<path d="M156.319 87.0947H154.862V92.1536H156.319V87.0947Z" fill="#92A4F0"/>
<path d="M144.077 93.8943H141.626V98.9533H144.077V93.8943Z" fill="#3542A7"/>
<path d="M143.083 93.8943H141.626V98.9533H143.083V93.8943Z" fill="#92A4F0"/>
<path d="M148.571 93.8943H146.12V98.9533H148.571V93.8943Z" fill="#3542A7"/>
<path d="M147.577 93.8943H146.12V98.9533H147.577V93.8943Z" fill="#92A4F0"/>
<path d="M152.969 93.8943H150.518V98.9533H152.969V93.8943Z" fill="#3542A7"/>
<path d="M151.975 93.8943H150.518V98.9533H151.975V93.8943Z" fill="#92A4F0"/>
<path d="M157.313 93.8943H154.862V98.9533H157.313V93.8943Z" fill="#3542A7"/>
<path d="M156.319 93.8943H154.862V98.9533H156.319V93.8943Z" fill="#92A4F0"/>
<path d="M132.735 93.9079H130.284V98.9669H132.735V93.9079Z" fill="#3542A7"/>
<path d="M131.741 93.9079H130.284V98.9669H131.741V93.9079Z" fill="#92A4F0"/>
<path d="M137.787 56.1698H136.33V58.0057H137.787V56.1698Z" fill="#F9FCEC"/>
<path d="M139.42 55.6667H137.963V58.0193H139.42V55.6667Z" fill="#F9FCEC"/>
<path d="M149.197 57.9106H135.907V58.0193H149.197V57.9106Z" fill="#F9FCEC"/>
<path d="M143.995 100.531H141.544V105.59H143.995V100.531Z" fill="#3542A7"/>
<path d="M143.001 100.531H141.544V105.59H143.001V100.531Z" fill="#92A4F0"/>
<path d="M148.489 100.531H146.038V105.59H148.489V100.531Z" fill="#3542A7"/>
<path d="M147.495 100.531H146.038V105.59H147.495V100.531Z" fill="#92A4F0"/>
<path d="M152.887 100.531H150.436V105.59H152.887V100.531Z" fill="#3542A7"/>
<path d="M151.893 100.531H150.436V105.59H151.893V100.531Z" fill="#92A4F0"/>
<path d="M157.244 100.531H154.793V105.59H157.244V100.531Z" fill="#3542A7"/>
<path d="M156.25 100.531H154.793V105.59H156.25V100.531Z" fill="#92A4F0"/>
<path d="M132.735 100.572H130.284V105.631H132.735V100.572Z" fill="#3542A7"/>
<path d="M131.741 100.572H130.284V105.631H131.741V100.572Z" fill="#92A4F0"/>
<path d="M127.615 100.585H125.164V105.644H127.615V100.585Z" fill="#3542A7"/>
<path d="M126.621 100.585H125.164V105.644H126.621V100.585Z" fill="#92A4F0"/>
<path d="M127.601 93.8535H125.15V98.9125H127.601V93.8535Z" fill="#3542A7"/>
<path d="M126.607 93.8535H125.15V98.9125H126.607V93.8535Z" fill="#92A4F0"/>
<path d="M127.615 87.1355H125.164V92.1944H127.615V87.1355Z" fill="#3542A7"/>
<path d="M126.621 87.1355H125.164V92.1944H126.621V87.1355Z" fill="#92A4F0"/>
<path d="M127.601 80.1998H125.15V85.2588H127.601V80.1998Z" fill="#3542A7"/>
<path d="M126.607 80.1998H125.15V85.2588H126.607V80.1998Z" fill="#92A4F0"/>
<path d="M-59.4353 122.956L178.541 122.426C178.541 122.426 179.099 91.3377 140.319 102.408C140.319 102.408 129.358 68.0828 70.9701 76.9088C70.9701 76.9088 32.1494 35.5805 -19.5934 61.4464C-71.3362 87.3123 -59.4353 122.956 -59.4353 122.956Z" fill="#9CF5F4"/>
<path d="M-44.3616 124.846H361.493V121.923" fill="#66B0A7"/>
<path d="M363.058 125.526H-58.3458C-59.2854 125.526 -60.0615 124.751 -60.0615 123.813C-60.0615 122.874 -59.2854 122.099 -58.3458 122.099H363.045C363.984 122.099 364.76 122.874 364.76 123.813C364.774 124.751 363.998 125.526 363.058 125.526Z" fill="#65ADA6"/>
<path d="M333.905 180.413H-42.3873C-43.2315 180.413 -43.9124 179.72 -43.9124 178.89C-43.9124 178.047 -43.2179 177.367 -42.3873 177.367H333.905C334.75 177.367 335.43 178.06 335.43 178.89C335.444 179.72 334.75 180.413 333.905 180.413Z" fill="#65ADA6"/>
<path d="M276.975 163.754H308.538C311.016 161.456 310.716 132.734 291.844 134.121C273.829 135.454 276.975 163.754 276.975 163.754Z" fill="#65ADA6"/>
<path d="M280.12 163.754C280.12 163.754 278.364 141.043 289.175 134.543C289.175 134.543 274.605 136.147 276.975 163.754H280.12Z" fill="#9CF5F4"/>
<path d="M334.845 177.353H-42.8502C-46.9352 177.353 -50.2712 174.021 -50.2712 169.942C-50.2712 165.862 -46.9352 162.53 -42.8502 162.53H334.858C338.943 162.53 342.28 165.862 342.28 169.942C342.266 174.021 338.93 177.353 334.845 177.353Z" fill="#9CF5F4"/>
<path d="M-2.70875 172.267L49.9055 172.362C49.9055 172.362 52.7105 144.293 29.6033 143.967C9.40996 143.681 8.42957 157.104 8.42957 157.104C8.42957 157.104 -6.1265 157.906 -2.70875 172.267Z" fill="#FFB57C"/>
<path d="M11.0576 157.322C11.0576 157.322 13.7809 147.136 24.3746 146.578V157.335L11.0576 157.322Z" fill="#F9FCEC"/>
<path d="M25.6135 146.456C25.6135 146.456 40.3602 143.328 46.2153 157.322L25.6135 157.335V146.456Z" fill="#F9FCEC"/>
<path d="M49.7284 165.372C50.3677 165.372 50.8858 164.453 50.8858 163.319C50.8858 162.185 50.3677 161.265 49.7284 161.265C49.0892 161.265 48.571 162.185 48.571 163.319C48.571 164.453 49.0892 165.372 49.7284 165.372Z" fill="#F9FCEC"/>
<path d="M0.0209613 166.927C0.526637 165.697 0.265512 164.425 -0.562275 164.085C-1.39006 163.746 -2.47105 164.467 -2.97673 165.697C-3.4824 166.927 -3.22128 168.199 -2.39349 168.538C-1.5657 168.878 -0.484715 168.156 0.0209613 166.927Z" fill="#333E9E"/>
<path d="M-0.397041 166.818C-0.0199284 165.901 -0.210464 164.954 -0.822606 164.703C-1.43475 164.452 -2.23669 164.992 -2.61381 165.909C-2.99092 166.826 -2.80039 167.773 -2.18825 168.024C-1.57611 168.275 -0.774154 167.735 -0.397041 166.818Z" fill="#F9FCEC"/>
<path d="M9.46457 177.34C12.4877 177.34 14.9384 174.892 14.9384 171.873C14.9384 168.853 12.4877 166.406 9.46457 166.406C6.44145 166.406 3.99072 168.853 3.99072 171.873C3.99072 174.892 6.44145 177.34 9.46457 177.34Z" fill="#333E9E"/>
<path d="M9.40991 174.212C10.7034 174.212 11.752 173.165 11.752 171.873C11.752 170.581 10.7034 169.534 9.40991 169.534C8.11644 169.534 7.06787 170.581 7.06787 171.873C7.06787 173.165 8.11644 174.212 9.40991 174.212Z" fill="#F9FCEC"/>
<path d="M39.3935 177.34C42.4166 177.34 44.8674 174.892 44.8674 171.873C44.8674 168.853 42.4166 166.406 39.3935 166.406C36.3704 166.406 33.9197 168.853 33.9197 171.873C33.9197 174.892 36.3704 177.34 39.3935 177.34Z" fill="#333E9E"/>
<path d="M39.3391 174.212C40.6326 174.212 41.6812 173.165 41.6812 171.873C41.6812 170.581 40.6326 169.534 39.3391 169.534C38.0456 169.534 36.9971 170.581 36.9971 171.873C36.9971 173.165 38.0456 174.212 39.3391 174.212Z" fill="#F9FCEC"/>
<path d="M74.2927 172.267L126.907 172.362C126.907 172.362 129.712 144.293 106.605 143.967C86.4114 143.681 85.431 157.104 85.431 157.104C85.431 157.104 70.875 157.906 74.2927 172.267Z" fill="#333E9E"/>
<path d="M88.0591 157.322C88.0591 157.322 90.7824 147.136 101.376 146.578V157.335L88.0591 157.322Z" fill="#F9FCEC"/>
<path d="M102.615 146.456C102.615 146.456 117.362 143.328 123.217 157.322L102.615 157.335V146.456Z" fill="#F9FCEC"/>
<path d="M126.73 165.372C127.369 165.372 127.887 164.453 127.887 163.319C127.887 162.185 127.369 161.265 126.73 161.265C126.091 161.265 125.573 162.185 125.573 163.319C125.573 164.453 126.091 165.372 126.73 165.372Z" fill="#FFB57C"/>
<path d="M77.0244 166.93C77.53 165.7 77.2689 164.428 76.4411 164.089C75.6133 163.749 74.5324 164.471 74.0267 165.7C73.521 166.93 73.7821 168.202 74.6099 168.542C75.4377 168.881 76.5187 168.16 77.0244 166.93Z" fill="#DBAD7D"/>
<path d="M76.6066 166.822C76.9837 165.905 76.7932 164.958 76.1811 164.706C75.5689 164.455 74.767 164.995 74.3899 165.912C74.0127 166.829 74.2033 167.776 74.8154 168.027C75.4276 168.278 76.2295 167.739 76.6066 166.822Z" fill="#E2BDCA"/>
<path d="M86.4658 177.34C89.4889 177.34 91.9396 174.892 91.9396 171.873C91.9396 168.853 89.4889 166.406 86.4658 166.406C83.4427 166.406 80.9919 168.853 80.9919 171.873C80.9919 174.892 83.4427 177.34 86.4658 177.34Z" fill="#FFB57C"/>
<path d="M86.4114 174.212C87.7049 174.212 88.7534 173.165 88.7534 171.873C88.7534 170.581 87.7049 169.534 86.4114 169.534C85.1179 169.534 84.0693 170.581 84.0693 171.873C84.0693 173.165 85.1179 174.212 86.4114 174.212Z" fill="#F9FCEC"/>
<path d="M116.395 177.34C119.418 177.34 121.869 174.892 121.869 171.873C121.869 168.853 119.418 166.406 116.395 166.406C113.372 166.406 110.921 168.853 110.921 171.873C110.921 174.892 113.372 177.34 116.395 177.34Z" fill="#FFB57C"/>
<path d="M116.341 174.212C117.634 174.212 118.683 173.165 118.683 171.873C118.683 170.581 117.634 169.534 116.341 169.534C115.047 169.534 113.999 170.581 113.999 171.873C113.999 173.165 115.047 174.212 116.341 174.212Z" fill="#F9FCEC"/>
<path d="M313.78 317.399H163.767C139.897 317.399 120.385 297.898 120.385 274.072V270.577C120.385 246.737 139.911 227.249 163.767 227.249H313.767C337.636 227.249 357.149 246.751 357.149 270.577V274.072C357.163 297.898 337.636 317.399 313.78 317.399Z" fill="#65ADA6"/>
<path d="M203.772 236.334H341.136C341.136 236.334 341.449 217.512 319.091 224.217C319.091 224.217 312.773 203.423 279.113 208.781C279.113 208.781 256.727 183.759 226.893 199.425C197.059 215.091 203.772 236.334 203.772 236.334Z" fill="#E2BDCA"/>
<path d="M136.316 236.66L280.42 236.334C280.42 236.334 280.76 217.512 257.271 224.217C257.271 224.217 250.64 203.423 215.278 208.781C215.278 208.781 191.776 183.759 160.431 199.425C129.085 215.091 136.316 236.66 136.316 236.66Z" fill="#FFB57C"/>
<path d="M341.272 238.7H136.398C135.553 238.7 134.873 238.006 134.873 237.177C134.873 236.334 135.567 235.654 136.398 235.654H341.272C342.116 235.654 342.797 236.347 342.797 237.177C342.797 238.02 342.116 238.7 341.272 238.7Z" fill="#9CF5F4"/>
<path d="M152.384 260.69H152.207C151.716 260.69 151.308 260.282 151.308 259.792V255.114C151.308 254.625 151.716 254.217 152.207 254.217H152.384C152.874 254.217 153.282 254.625 153.282 255.114V259.792C153.282 260.282 152.887 260.69 152.384 260.69Z" fill="#E2BDCA"/>
<path d="M152.424 261.03C154.673 261.03 156.496 260.865 156.496 260.663C156.496 260.46 154.673 260.296 152.424 260.296C150.176 260.296 148.353 260.46 148.353 260.663C148.353 260.865 150.176 261.03 152.424 261.03Z" fill="#FFB57C"/>
<path d="M148.135 250.545L152.438 244.344L156.999 250.545H148.135Z" fill="#FFB57C"/>
<path d="M148.135 253.632L152.438 247.417L156.999 253.632H148.135Z" fill="#FFB57C"/>
<path d="M148.135 256.678L152.438 250.463L156.999 256.678H148.135Z" fill="#FFB57C"/>
<path d="M136.071 274.126H135.894C135.404 274.126 134.995 273.718 134.995 273.228V268.55C134.995 268.061 135.404 267.653 135.894 267.653H136.071C136.561 267.653 136.97 268.061 136.97 268.55V273.228C136.97 273.718 136.561 274.126 136.071 274.126Z" fill="#333E9E"/>
<path d="M136.098 274.466C138.347 274.466 140.169 274.302 140.169 274.099C140.169 273.896 138.347 273.732 136.098 273.732C133.849 273.732 132.027 273.896 132.027 274.099C132.027 274.302 133.849 274.466 136.098 274.466Z" fill="#99DFDE"/>
<path d="M131.823 263.981L136.125 257.766L140.687 263.981H131.823Z" fill="#92A4F0"/>
<path d="M131.823 267.068L136.125 260.853L140.687 267.068H131.823Z" fill="#92A4F0"/>
<path d="M131.823 270.114L136.125 263.899L140.687 270.114H131.823Z" fill="#92A4F0"/>
<path d="M156.891 284.72H156.714C156.223 284.72 155.815 284.312 155.815 283.822V279.144C155.815 278.655 156.223 278.247 156.714 278.247H156.891C157.381 278.247 157.789 278.655 157.789 279.144V283.822C157.789 284.312 157.381 284.72 156.891 284.72Z" fill="#F9FCEC"/>
<path d="M156.918 285.06C159.166 285.06 160.989 284.895 160.989 284.693C160.989 284.49 159.166 284.326 156.918 284.326C154.669 284.326 152.846 284.49 152.846 284.693C152.846 284.895 154.669 285.06 156.918 285.06Z" fill="#333E9E"/>
<path d="M152.642 274.575L156.931 268.36L161.493 274.575H152.642Z" fill="#9CF5F4"/>
<path d="M152.642 277.662L156.931 271.447L161.493 277.662H152.642Z" fill="#9CF5F4"/>
<path d="M152.642 280.708L156.931 274.493L161.493 280.708H152.642Z" fill="#9CF5F4"/>
<path d="M142.784 300.549H142.607C142.117 300.549 141.708 300.142 141.708 299.652V294.974C141.708 294.484 142.117 294.076 142.607 294.076H142.784C143.274 294.076 143.682 294.484 143.682 294.974V299.652C143.682 300.142 143.288 300.549 142.784 300.549Z" fill="#92A4F0"/>
<path d="M142.825 300.889C145.073 300.889 146.896 300.725 146.896 300.522C146.896 300.319 145.073 300.155 142.825 300.155C140.576 300.155 138.753 300.319 138.753 300.522C138.753 300.725 140.576 300.889 142.825 300.889Z" fill="#FFB57C"/>
<path d="M138.535 290.404L142.838 284.19L147.4 290.404H138.535Z" fill="#E2BDCA"/>
<path d="M138.535 293.491L142.838 287.277L147.4 293.491H138.535Z" fill="#E2BDCA"/>
<path d="M138.535 296.538L142.838 290.323L147.4 296.538H138.535Z" fill="#E2BDCA"/>
<path d="M163.318 308.07H163.141C162.65 308.07 162.242 307.662 162.242 307.172V302.494C162.242 302.005 162.65 301.597 163.141 301.597H163.318C163.808 301.597 164.216 302.005 164.216 302.494V307.172C164.216 307.676 163.808 308.07 163.318 308.07Z" fill="#FFB57C"/>
<path d="M163.345 308.424C165.593 308.424 167.416 308.259 167.416 308.056C167.416 307.854 165.593 307.689 163.345 307.689C161.096 307.689 159.273 307.854 159.273 308.056C159.273 308.259 161.096 308.424 163.345 308.424Z" fill="#F9FCEC"/>
<path d="M159.069 297.938L163.372 291.724L167.933 297.938H159.069Z" fill="#333E9E"/>
<path d="M159.069 301.025L163.372 294.811L167.933 301.025H159.069Z" fill="#333E9E"/>
<path d="M159.069 304.072L163.372 297.857L167.933 304.072H159.069Z" fill="#333E9E"/>
<path d="M174.578 271.597H174.401C173.911 271.597 173.503 271.189 173.503 270.699V266.021C173.503 265.531 173.911 265.123 174.401 265.123H174.578C175.069 265.123 175.477 265.531 175.477 266.021V270.699C175.477 271.202 175.069 271.597 174.578 271.597Z" fill="#9CF5F4"/>
<path d="M174.606 271.95C176.854 271.95 178.677 271.786 178.677 271.583C178.677 271.38 176.854 271.216 174.606 271.216C172.357 271.216 170.534 271.38 170.534 271.583C170.534 271.786 172.357 271.95 174.606 271.95Z" fill="#92A4F0"/>
<path d="M170.33 261.465L174.619 255.25L179.181 261.465H170.33Z" fill="#F9FCEC"/>
<path d="M170.33 264.552L174.619 258.337L179.181 264.552H170.33Z" fill="#F9FCEC"/>
<path d="M170.33 267.598L174.619 261.383L179.181 267.598H170.33Z" fill="#F9FCEC"/>
<path d="M179.712 295.477H179.535C179.044 295.477 178.636 295.069 178.636 294.579V289.901C178.636 289.412 179.044 289.004 179.535 289.004H179.712C180.202 289.004 180.61 289.412 180.61 289.901V294.579C180.61 295.069 180.215 295.477 179.712 295.477Z" fill="#333E9E"/>
<path d="M179.753 295.817C182.001 295.817 183.824 295.653 183.824 295.45C183.824 295.247 182.001 295.083 179.753 295.083C177.504 295.083 175.681 295.247 175.681 295.45C175.681 295.653 177.504 295.817 179.753 295.817Z" fill="#99DFDE"/>
<path d="M175.463 285.332L179.766 279.131L184.328 285.332H175.463Z" fill="#92A4F0"/>
<path d="M175.463 288.419L179.766 282.204L184.328 288.419H175.463Z" fill="#92A4F0"/>
<path d="M175.463 291.465L179.766 285.25L184.328 291.465H175.463Z" fill="#92A4F0"/>
<path d="M194.813 311.728H194.636C194.145 311.728 193.737 311.32 193.737 310.831V306.152C193.737 305.663 194.145 305.255 194.636 305.255H194.813C195.303 305.255 195.711 305.663 195.711 306.152V310.831C195.711 311.32 195.303 311.728 194.813 311.728Z" fill="#E2BDCA"/>
<path d="M194.84 312.068C197.088 312.068 198.911 311.904 198.911 311.701C198.911 311.498 197.088 311.334 194.84 311.334C192.591 311.334 190.769 311.498 190.769 311.701C190.769 311.904 192.591 312.068 194.84 312.068Z" fill="#FFB57C"/>
<path d="M190.564 301.597L194.853 295.382L199.415 301.597H190.564Z" fill="#FFB57C"/>
<path d="M190.564 304.684L194.853 298.469L199.415 304.684H190.564Z" fill="#FFB57C"/>
<path d="M190.564 307.73L194.853 301.515L199.415 307.73H190.564Z" fill="#FFB57C"/>
<path d="M193.369 260.404H193.192C192.702 260.404 192.293 259.996 192.293 259.507V254.829C192.293 254.339 192.702 253.931 193.192 253.931H193.369C193.859 253.931 194.268 254.339 194.268 254.829V259.507C194.281 260.01 193.873 260.404 193.369 260.404Z" fill="#92A4F0"/>
<path d="M193.41 260.758C195.659 260.758 197.481 260.594 197.481 260.391C197.481 260.188 195.659 260.024 193.41 260.024C191.161 260.024 189.339 260.188 189.339 260.391C189.339 260.594 191.161 260.758 193.41 260.758Z" fill="#FFB57C"/>
<path d="M189.121 250.273L193.424 244.058L197.985 250.273H189.121Z" fill="#E2BDCA"/>
<path d="M189.121 253.36L193.424 247.145L197.985 253.36H189.121Z" fill="#E2BDCA"/>
<path d="M189.121 256.406L193.424 250.191L197.985 256.406H189.121Z" fill="#E2BDCA"/>
<path d="M210.88 301.841H210.703C210.213 301.841 209.804 301.433 209.804 300.944V296.266C209.804 295.776 210.213 295.368 210.703 295.368H210.88C211.37 295.368 211.779 295.776 211.779 296.266V300.944C211.779 301.433 211.37 301.841 210.88 301.841Z" fill="#99DFDE"/>
<path d="M210.907 302.181C213.156 302.181 214.979 302.017 214.979 301.814C214.979 301.611 213.156 301.447 210.907 301.447C208.659 301.447 206.836 301.611 206.836 301.814C206.836 302.017 208.659 302.181 210.907 302.181Z" fill="#92A4F0"/>
<path d="M206.632 291.696L210.934 285.481L215.496 291.696H206.632Z" fill="#F9FCEC"/>
<path d="M206.632 294.783L210.934 288.568L215.496 294.783H206.632Z" fill="#F9FCEC"/>
<path d="M206.632 297.83L210.934 291.615L215.496 297.83H206.632Z" fill="#F9FCEC"/>
<path d="M195.711 284.244H195.534C195.044 284.244 194.635 283.836 194.635 283.346V278.668C194.635 278.179 195.044 277.771 195.534 277.771H195.711C196.201 277.771 196.61 278.179 196.61 278.668V283.346C196.61 283.85 196.201 284.244 195.711 284.244Z" fill="#FFB57C"/>
<path d="M195.738 284.597C197.987 284.597 199.81 284.433 199.81 284.23C199.81 284.028 197.987 283.863 195.738 283.863C193.49 283.863 191.667 284.028 191.667 284.23C191.667 284.433 193.49 284.597 195.738 284.597Z" fill="#F9FCEC"/>
<path d="M191.449 274.112L195.752 267.898L200.314 274.112H191.449Z" fill="#333E9E"/>
<path d="M191.449 277.199L195.752 270.985L200.314 277.199H191.449Z" fill="#333E9E"/>
<path d="M191.449 280.246L195.752 274.031L200.314 280.246H191.449Z" fill="#333E9E"/>
<path d="M247.291 274.724H247.114C246.623 274.724 246.215 274.316 246.215 273.827V269.149C246.215 268.659 246.623 268.251 247.114 268.251H247.291C247.781 268.251 248.189 268.659 248.189 269.149V273.827C248.189 274.316 247.794 274.724 247.291 274.724Z" fill="#FFB57C"/>
<path d="M247.318 275.064C249.566 275.064 251.389 274.9 251.389 274.697C251.389 274.494 249.566 274.33 247.318 274.33C245.069 274.33 243.247 274.494 243.247 274.697C243.247 274.9 245.069 275.064 247.318 275.064Z" fill="#F9FCEC"/>
<path d="M243.042 264.579L247.345 258.364L251.907 264.579H243.042Z" fill="#333E9E"/>
<path d="M243.042 267.666L247.345 261.451L251.907 267.666H243.042Z" fill="#333E9E"/>
<path d="M243.042 270.713L247.345 264.498L251.907 270.713H243.042Z" fill="#333E9E"/>
<path d="M230.937 311.375H230.76C230.27 311.375 229.862 310.967 229.862 310.477V305.799C229.862 305.309 230.27 304.901 230.76 304.901H230.937C231.427 304.901 231.836 305.309 231.836 305.799V310.477C231.836 310.967 231.441 311.375 230.937 311.375Z" fill="#92A4F0"/>
<path d="M230.964 311.715C233.213 311.715 235.036 311.55 235.036 311.347C235.036 311.145 233.213 310.98 230.964 310.98C228.716 310.98 226.893 311.145 226.893 311.347C226.893 311.55 228.716 311.715 230.964 311.715Z" fill="#FFB57C"/>
<path d="M226.689 301.229L230.992 295.015L235.553 301.229H226.689Z" fill="#E2BDCA"/>
<path d="M226.689 304.316L230.992 298.102L235.553 304.316H226.689Z" fill="#E2BDCA"/>
<path d="M226.689 307.363L230.992 301.148L235.553 307.363H226.689Z" fill="#E2BDCA"/>
<path d="M212.46 270.318H212.282C211.792 270.318 211.384 269.91 211.384 269.421V264.742C211.384 264.253 211.792 263.845 212.282 263.845H212.46C212.95 263.845 213.358 264.253 213.358 264.742V269.421C213.358 269.924 212.963 270.318 212.46 270.318Z" fill="#F9FCEC"/>
<path d="M212.487 270.672C214.735 270.672 216.558 270.507 216.558 270.305C216.558 270.102 214.735 269.937 212.487 269.937C210.238 269.937 208.416 270.102 208.416 270.305C208.416 270.507 210.238 270.672 212.487 270.672Z" fill="#333E9E"/>
<path d="M208.211 260.187L212.514 253.972L217.076 260.187H208.211Z" fill="#9CF5F4"/>
<path d="M208.211 263.274L212.514 257.059L217.076 263.274H208.211Z" fill="#9CF5F4"/>
<path d="M208.211 266.32L212.514 260.105L217.076 266.32H208.211Z" fill="#9CF5F4"/>
<path d="M250.15 301.257H249.973C249.483 301.257 249.074 300.849 249.074 300.359V295.681C249.074 295.191 249.483 294.783 249.973 294.783H250.15C250.64 294.783 251.049 295.191 251.049 295.681V300.359C251.049 300.862 250.64 301.257 250.15 301.257Z" fill="#F9FCEC"/>
<path d="M250.177 301.61C252.426 301.61 254.249 301.446 254.249 301.243C254.249 301.04 252.426 300.876 250.177 300.876C247.929 300.876 246.106 301.04 246.106 301.243C246.106 301.446 247.929 301.61 250.177 301.61Z" fill="#333E9E"/>
<path d="M245.902 291.125L250.191 284.91L254.753 291.125H245.902Z" fill="#9CF5F4"/>
<path d="M245.902 294.212L250.191 287.997L254.753 294.212H245.902Z" fill="#9CF5F4"/>
<path d="M245.902 297.258L250.191 291.044L254.753 297.258H245.902Z" fill="#9CF5F4"/>
<path d="M227.751 286.583H227.574C227.084 286.583 226.675 286.175 226.675 285.685V281.007C226.675 280.518 227.084 280.11 227.574 280.11H227.751C228.241 280.11 228.65 280.518 228.65 281.007V285.685C228.65 286.175 228.241 286.583 227.751 286.583Z" fill="#E2BDCA"/>
<path d="M227.778 286.923C230.027 286.923 231.849 286.759 231.849 286.556C231.849 286.353 230.027 286.189 227.778 286.189C225.53 286.189 223.707 286.353 223.707 286.556C223.707 286.759 225.53 286.923 227.778 286.923Z" fill="#E0AB82"/>
<path d="M223.502 276.452L227.805 270.237L232.367 276.452H223.502Z" fill="#FFB57C"/>
<path d="M223.502 279.539L227.805 273.324L232.367 279.539H223.502Z" fill="#FFB57C"/>
<path d="M223.502 282.585L227.805 276.37L232.367 282.585H223.502Z" fill="#FFB57C"/>
<path d="M268.968 261.084H268.791C268.301 261.084 267.892 260.676 267.892 260.187V255.509C267.892 255.019 268.301 254.611 268.791 254.611H268.968C269.458 254.611 269.867 255.019 269.867 255.509V260.187C269.867 260.676 269.458 261.084 268.968 261.084Z" fill="#99DFDE"/>
<path d="M268.995 261.424C271.244 261.424 273.067 261.26 273.067 261.057C273.067 260.854 271.244 260.69 268.995 260.69C266.747 260.69 264.924 260.854 264.924 261.057C264.924 261.26 266.747 261.424 268.995 261.424Z" fill="#92A4F0"/>
<path d="M264.72 250.939L269.023 244.724L273.584 250.939H264.72Z" fill="#F9FCEC"/>
<path d="M264.72 254.026L269.023 247.811L273.584 254.026H264.72Z" fill="#F9FCEC"/>
<path d="M264.72 257.073L269.023 250.858L273.584 257.073H264.72Z" fill="#F9FCEC"/>
<path d="M267.007 286.093H266.83C266.34 286.093 265.932 285.685 265.932 285.196V280.518C265.932 280.028 266.34 279.62 266.83 279.62H267.007C267.498 279.62 267.906 280.028 267.906 280.518V285.196C267.906 285.685 267.498 286.093 267.007 286.093Z" fill="#92A4F0"/>
<path d="M267.035 286.433C269.283 286.433 271.106 286.269 271.106 286.066C271.106 285.863 269.283 285.699 267.035 285.699C264.786 285.699 262.963 285.863 262.963 286.066C262.963 286.269 264.786 286.433 267.035 286.433Z" fill="#FFB57C"/>
<path d="M262.759 275.948L267.062 269.733L271.623 275.948H262.759Z" fill="#E2BDCA"/>
<path d="M262.759 279.035L267.062 272.82L271.623 279.035H262.759Z" fill="#E2BDCA"/>
<path d="M262.759 282.082L267.062 275.867L271.623 282.082H262.759Z" fill="#E2BDCA"/>
<path d="M231.427 259.752H231.25C230.76 259.752 230.352 259.344 230.352 258.854V254.176C230.352 253.686 230.76 253.278 231.25 253.278H231.427C231.917 253.278 232.326 253.686 232.326 254.176V258.854C232.326 259.344 231.917 259.752 231.427 259.752Z" fill="#333E9E"/>
<path d="M231.455 260.092C233.703 260.092 235.526 259.927 235.526 259.724C235.526 259.522 233.703 259.357 231.455 259.357C229.206 259.357 227.383 259.522 227.383 259.724C227.383 259.927 229.206 260.092 231.455 260.092Z" fill="#99DFDE"/>
<path d="M227.179 249.606L231.468 243.405L236.043 249.606H227.179Z" fill="#92A4F0"/>
<path d="M227.179 252.694L231.468 246.479L236.043 252.694H227.179Z" fill="#92A4F0"/>
<path d="M227.179 255.74L231.468 249.525L236.043 255.74H227.179Z" fill="#92A4F0"/>
<path d="M323.366 279.783H323.189C322.699 279.783 322.291 279.375 322.291 278.886V274.208C322.291 273.718 322.699 273.31 323.189 273.31H323.366C323.856 273.31 324.265 273.718 324.265 274.208V278.886C324.265 279.375 323.856 279.783 323.366 279.783Z" fill="#FFB57C"/>
<path d="M323.393 280.123C325.642 280.123 327.465 279.959 327.465 279.756C327.465 279.553 325.642 279.389 323.393 279.389C321.145 279.389 319.322 279.553 319.322 279.756C319.322 279.959 321.145 280.123 323.393 280.123Z" fill="#F9FCEC"/>
<path d="M319.118 269.638L323.42 263.423L327.982 269.638H319.118Z" fill="#333E9E"/>
<path d="M319.118 272.725L323.42 266.51L327.982 272.725H319.118Z" fill="#333E9E"/>
<path d="M319.118 275.772L323.42 269.557L327.982 275.772H319.118Z" fill="#333E9E"/>
<path d="M322.209 306.696H322.032C321.542 306.696 321.133 306.288 321.133 305.799V301.121C321.133 300.631 321.542 300.223 322.032 300.223H322.209C322.699 300.223 323.107 300.631 323.107 301.121V305.799C323.107 306.288 322.699 306.696 322.209 306.696Z" fill="#92A4F0"/>
<path d="M322.236 307.036C324.484 307.036 326.307 306.872 326.307 306.669C326.307 306.466 324.484 306.302 322.236 306.302C319.987 306.302 318.165 306.466 318.165 306.669C318.165 306.872 319.987 307.036 322.236 307.036Z" fill="#FFB57C"/>
<path d="M317.96 296.565L322.263 290.35L326.825 296.565H317.96Z" fill="#E2BDCA"/>
<path d="M317.96 299.652L322.263 293.437L326.825 299.652H317.96Z" fill="#E2BDCA"/>
<path d="M317.96 302.698L322.263 296.483L326.825 302.698H317.96Z" fill="#E2BDCA"/>
<path d="M294.908 260.703H294.731C294.241 260.703 293.832 260.296 293.832 259.806V255.128C293.832 254.638 294.241 254.23 294.731 254.23H294.908C295.398 254.23 295.806 254.638 295.806 255.128V259.806C295.806 260.296 295.412 260.703 294.908 260.703Z" fill="#E2BDCA"/>
<path d="M294.935 261.043C297.183 261.043 299.006 260.879 299.006 260.676C299.006 260.474 297.183 260.309 294.935 260.309C292.686 260.309 290.864 260.474 290.864 260.676C290.864 260.879 292.686 261.043 294.935 261.043Z" fill="#FFB57C"/>
<path d="M290.659 250.572L294.962 244.357L299.524 250.572H290.659Z" fill="#FFB57C"/>
<path d="M290.659 253.659L294.962 247.444L299.524 253.659H290.659Z" fill="#FFB57C"/>
<path d="M290.659 256.705L294.962 250.49L299.524 256.705H290.659Z" fill="#FFB57C"/>
<path d="M298.475 311.905H298.298C297.808 311.905 297.399 311.497 297.399 311.007V306.329C297.399 305.84 297.808 305.432 298.298 305.432H298.475C298.965 305.432 299.374 305.84 299.374 306.329V311.007C299.374 311.497 298.979 311.905 298.475 311.905Z" fill="#99DFDE"/>
<path d="M298.516 312.245C300.764 312.245 302.587 312.081 302.587 311.878C302.587 311.675 300.764 311.511 298.516 311.511C296.267 311.511 294.445 311.675 294.445 311.878C294.445 312.081 296.267 312.245 298.516 312.245Z" fill="#92A4F0"/>
<path d="M294.227 301.773L298.53 295.559L303.091 301.773H294.227Z" fill="#F9FCEC"/>
<path d="M294.227 304.86L298.53 298.646L303.091 304.86H294.227Z" fill="#F9FCEC"/>
<path d="M294.227 307.907L298.53 301.692L303.091 307.907H294.227Z" fill="#F9FCEC"/>
<path d="M273.394 311.687H273.217C272.726 311.687 272.318 311.279 272.318 310.79V306.112C272.318 305.622 272.726 305.214 273.217 305.214H273.394C273.884 305.214 274.292 305.622 274.292 306.112V310.79C274.292 311.279 273.884 311.687 273.394 311.687Z" fill="#FFB57C"/>
<path d="M273.421 312.027C275.669 312.027 277.492 311.863 277.492 311.66C277.492 311.457 275.669 311.293 273.421 311.293C271.172 311.293 269.349 311.457 269.349 311.66C269.349 311.863 271.172 312.027 273.421 312.027Z" fill="#F9FCEC"/>
<path d="M269.145 301.542L273.448 295.327L278.01 301.542H269.145Z" fill="#333E9E"/>
<path d="M269.145 304.629L273.448 298.414L278.01 304.629H269.145Z" fill="#333E9E"/>
<path d="M269.145 307.676L273.448 301.461L278.01 307.676H269.145Z" fill="#333E9E"/>
<path d="M290.578 267.653C290.55 267.721 290.523 267.789 290.51 267.87L287.895 293.423C287.854 293.791 288.127 294.117 288.494 294.158H288.508C288.876 294.199 289.202 293.927 289.243 293.559L291.858 268.034C291.939 267.83 292.13 267.558 292.62 267.598C292.634 267.612 291.218 266.306 290.578 267.653Z" fill="#F9FCEC"/>
<path d="M309.559 267.639C309.586 267.707 309.613 267.775 309.627 267.857L312.241 293.41C312.282 293.777 312.01 294.103 311.642 294.144H311.629C311.261 294.185 310.934 293.913 310.893 293.546L308.279 268.02C308.197 267.816 308.007 267.544 307.516 267.585C307.503 267.598 308.919 266.293 309.559 267.639Z" fill="#F9FCEC"/>
<path d="M293.669 288.215L291.517 268.51C291.476 268.129 291.749 267.789 292.13 267.748L292.239 267.734C292.62 267.694 292.961 267.966 293.001 268.346L295.153 288.052C295.194 288.433 294.921 288.772 294.54 288.813L294.431 288.827C294.05 288.868 293.709 288.596 293.669 288.215Z" fill="#F9FCEC"/>
<path d="M305.106 288.011L306.931 268.278C306.972 267.898 307.312 267.612 307.68 267.653L307.789 267.666C308.17 267.707 308.456 268.047 308.415 268.414L306.591 288.147C306.55 288.528 306.209 288.813 305.842 288.772L305.733 288.759C305.352 288.732 305.066 288.392 305.106 288.011Z" fill="#F9FCEC"/>
<path d="M308.865 268.863H291.272C290.932 268.863 290.646 268.578 290.646 268.238V268.129C290.646 267.789 290.932 267.503 291.272 267.503H308.865C309.205 267.503 309.491 267.789 309.491 268.129V268.238C309.491 268.591 309.205 268.863 308.865 268.863Z" fill="#333E9E"/>
<path d="M296.732 283.85C296.542 283.85 296.392 283.7 296.392 283.51V267.571C296.392 267.381 296.542 267.231 296.732 267.231C296.923 267.231 297.073 267.381 297.073 267.571V283.51C297.059 283.7 296.909 283.85 296.732 283.85Z" fill="#333E9E"/>
<path d="M303.391 283.89C303.2 283.89 303.05 283.741 303.05 283.55V267.612C303.05 267.422 303.2 267.272 303.391 267.272C303.581 267.272 303.731 267.422 303.731 267.612V283.55C303.731 283.727 303.568 283.89 303.391 283.89Z" fill="#333E9E"/>
<path d="M296.392 283.51L295.861 285.998L296.188 286.148L296.937 284.026H297.495L297.059 283.51H296.392Z" fill="#F9FCEC"/>
<path d="M302.574 284.067L303.05 283.36L303.718 283.374L304.208 285.808L303.799 285.998L303.309 284.067H302.574Z" fill="#F9FCEC"/>
<path d="M295.861 286.012C295.861 286.012 300.382 287.957 304.208 285.808L303.323 284.067L297.495 284.026H296.937L295.861 286.012Z" fill="#333E9E"/>
<path d="M340.986 294.511H340.809C340.319 294.511 339.91 294.103 339.91 293.614V288.936C339.91 288.446 340.319 288.038 340.809 288.038H340.986C341.476 288.038 341.885 288.446 341.885 288.936V293.614C341.885 294.103 341.476 294.511 340.986 294.511Z" fill="#333E9E"/>
<path d="M341.013 294.851C343.262 294.851 345.085 294.687 345.085 294.484C345.085 294.281 343.262 294.117 341.013 294.117C338.765 294.117 336.942 294.281 336.942 294.484C336.942 294.687 338.765 294.851 341.013 294.851Z" fill="#9CF5F4"/>
<path d="M336.724 284.366L341.027 278.151L345.588 284.366H336.724Z" fill="#92A4F0"/>
<path d="M336.724 287.453L341.027 281.238L345.588 287.453H336.724Z" fill="#92A4F0"/>
<path d="M336.724 290.5L341.027 284.285L345.588 290.5H336.724Z" fill="#92A4F0"/>
<path d="M341.108 263.709H340.931C340.441 263.709 340.033 263.301 340.033 262.811V258.133C340.033 257.644 340.441 257.236 340.931 257.236H341.108C341.599 257.236 342.007 257.644 342.007 258.133V262.811C342.007 263.301 341.612 263.709 341.108 263.709Z" fill="#F9FCEC"/>
<path d="M341.136 264.049C343.384 264.049 345.207 263.885 345.207 263.682C345.207 263.479 343.384 263.315 341.136 263.315C338.887 263.315 337.064 263.479 337.064 263.682C337.064 263.885 338.887 264.049 341.136 264.049Z" fill="#333E9E"/>
<path d="M336.86 253.564L341.163 247.349L345.724 253.564H336.86Z" fill="#9CF5F4"/>
<path d="M336.86 256.651L341.163 250.436L345.724 256.651H336.86Z" fill="#9CF5F4"/>
<path d="M336.86 259.697L341.163 253.482L345.724 259.697H336.86Z" fill="#9CF5F4"/>
<path d="M249.919 235.463C249.674 235.463 249.415 235.45 249.17 235.409C245.929 234.906 243.791 231.207 244.431 227.181C244.731 225.25 245.616 223.523 246.923 222.326C248.257 221.102 249.864 220.558 251.457 220.803C253.05 221.048 254.426 222.054 255.311 223.632C256.182 225.182 256.495 227.086 256.196 229.017C255.624 232.743 252.887 235.463 249.919 235.463ZM250.708 221.646C249.592 221.646 248.489 222.109 247.536 222.979C246.378 224.04 245.589 225.59 245.316 227.317C244.758 230.853 246.542 234.076 249.306 234.511C252.056 234.946 254.752 232.417 255.311 228.881C255.583 227.154 255.311 225.44 254.535 224.081C253.786 222.748 252.642 221.905 251.335 221.687C251.117 221.66 250.913 221.646 250.708 221.646Z" fill="#333E9E"/>
<path d="M270.793 235.531C270.48 235.531 270.166 235.504 269.867 235.463C268.246 235.205 266.817 234.307 265.864 232.934C264.91 231.574 264.529 229.887 264.801 228.215C265.06 226.542 265.945 225.06 267.266 224.053C268.6 223.033 270.234 222.625 271.855 222.87C273.475 223.129 274.891 224.026 275.858 225.4C276.811 226.76 277.192 228.446 276.92 230.119C276.661 231.791 275.776 233.274 274.456 234.28C273.366 235.096 272.086 235.531 270.793 235.531ZM270.915 223.7C269.812 223.7 268.723 224.067 267.811 224.761C266.667 225.631 265.918 226.896 265.686 228.351C265.455 229.792 265.782 231.234 266.599 232.417C267.416 233.586 268.614 234.348 269.989 234.566C271.365 234.783 272.753 234.43 273.884 233.559C275.027 232.689 275.776 231.424 276.008 229.969C276.239 228.528 275.913 227.086 275.096 225.903C274.279 224.733 273.08 223.972 271.705 223.754C271.433 223.727 271.174 223.7 270.915 223.7Z" fill="#333E9E"/>
<path d="M271.964 229.031H263.059C262.814 229.031 262.609 228.827 262.609 228.582C262.609 228.337 262.814 228.133 263.059 228.133H270.738L268.287 220.286L253.84 220.191L250.382 228.011C250.286 228.242 250.014 228.351 249.783 228.242C249.551 228.147 249.442 227.875 249.551 227.644L253.255 219.28L268.968 219.375L271.964 229.031Z" fill="#333E9E"/>
<path d="M271.337 229.493C271.796 229.493 272.168 229.122 272.168 228.664C272.168 228.205 271.796 227.834 271.337 227.834C270.879 227.834 270.507 228.205 270.507 228.664C270.507 229.122 270.879 229.493 271.337 229.493Z" fill="#333E9E"/>
<path d="M261.969 229.983C262.744 229.983 263.372 229.356 263.372 228.582C263.372 227.808 262.744 227.181 261.969 227.181C261.195 227.181 260.567 227.808 260.567 228.582C260.567 229.356 261.195 229.983 261.969 229.983Z" fill="#333E9E"/>
<path d="M261.125 229.031C260.975 229.031 260.825 228.949 260.73 228.813L255.365 219.96C255.229 219.742 255.311 219.47 255.515 219.334C255.733 219.212 256.005 219.266 256.141 219.484L261.506 228.337C261.642 228.555 261.561 228.827 261.356 228.963C261.288 229.017 261.207 229.031 261.125 229.031Z" fill="#333E9E"/>
<path d="M261.847 228.813C261.751 228.813 261.642 228.786 261.561 228.718C261.37 228.568 261.329 228.283 261.493 228.079L268.247 219.552C268.41 219.362 268.682 219.321 268.887 219.484C269.077 219.634 269.118 219.919 268.955 220.123L262.201 228.65C262.119 228.759 261.983 228.813 261.847 228.813Z" fill="#333E9E"/>
<path d="M254.017 220.191C253.772 220.191 253.568 219.987 253.568 219.742V216.111C253.568 215.867 253.772 215.663 254.017 215.663C254.262 215.663 254.467 215.867 254.467 216.111V219.742C254.467 219.987 254.262 220.191 254.017 220.191Z" fill="#333E9E"/>
<path d="M257.354 217.108C257.481 216.795 256.255 216.005 254.617 215.344C252.978 214.683 251.547 214.401 251.42 214.715C251.294 215.028 252.519 215.818 254.158 216.479C255.796 217.14 257.228 217.422 257.354 217.108Z" fill="#333E9E"/>
<path d="M268.192 219.824V218.913H269.554C269.962 218.913 270.33 218.586 270.316 218.178C270.303 217.784 269.935 217.362 268.437 217.362C268.192 217.362 267.96 217.471 267.797 217.648C267.606 217.838 267.28 218.056 266.721 218.056C265.741 218.056 263.78 218.518 265.06 218.736C266.34 218.954 267.62 218.858 267.62 218.858V219.729L268.192 219.824Z" fill="#333E9E"/>
<path d="M188.576 235.817C188.318 235.817 188.072 235.803 187.814 235.762C184.573 235.259 182.435 231.56 183.075 227.535C183.702 223.509 186.874 220.64 190.115 221.157C191.708 221.401 193.083 222.408 193.968 223.985C194.84 225.536 195.153 227.44 194.853 229.371C194.554 231.302 193.669 233.029 192.362 234.226C191.232 235.273 189.911 235.817 188.576 235.817ZM189.352 222C186.82 222 184.478 224.407 183.974 227.671C183.416 231.207 185.199 234.43 187.964 234.865C189.271 235.069 190.619 234.62 191.749 233.573C192.906 232.512 193.696 230.962 193.968 229.235C194.241 227.508 193.968 225.794 193.192 224.434C192.443 223.101 191.3 222.258 189.992 222.041C189.761 222.013 189.557 222 189.352 222Z" fill="#F9FCEC"/>
<path d="M209.423 235.885C209.124 235.885 208.81 235.858 208.497 235.817C206.877 235.558 205.447 234.661 204.494 233.287C203.541 231.927 203.159 230.241 203.432 228.568C203.976 225.101 207.149 222.693 210.485 223.224C213.821 223.741 216.095 227.004 215.551 230.472C215.047 233.614 212.405 235.885 209.423 235.885ZM209.559 224.053C207.013 224.053 204.753 225.998 204.331 228.704C204.099 230.146 204.426 231.587 205.243 232.771C206.06 233.94 207.258 234.702 208.633 234.919C211.479 235.354 214.175 233.301 214.652 230.336C215.115 227.358 213.181 224.57 210.335 224.121C210.077 224.081 209.818 224.053 209.559 224.053Z" fill="#F9FCEC"/>
<path d="M210.594 229.384H201.689C201.444 229.384 201.24 229.18 201.24 228.936C201.24 228.691 201.444 228.487 201.689 228.487H209.369L206.918 220.64L192.471 220.545L189.012 228.364C188.917 228.596 188.644 228.704 188.413 228.596C188.181 228.5 188.072 228.228 188.181 227.997L191.885 219.634L207.599 219.729L210.594 229.384Z" fill="#F9FCEC"/>
<path d="M209.981 229.847C210.44 229.847 210.812 229.475 210.812 229.017C210.812 228.559 210.44 228.188 209.981 228.188C209.523 228.188 209.151 228.559 209.151 229.017C209.151 229.475 209.523 229.847 209.981 229.847Z" fill="#F9FCEC"/>
<path d="M200.613 230.336C201.388 230.336 202.016 229.709 202.016 228.936C202.016 228.162 201.388 227.535 200.613 227.535C199.839 227.535 199.211 228.162 199.211 228.936C199.211 229.709 199.839 230.336 200.613 230.336Z" fill="#F9FCEC"/>
<path d="M199.769 229.384C199.619 229.384 199.469 229.303 199.374 229.167L194.009 220.314C193.873 220.096 193.955 219.824 194.159 219.688C194.377 219.566 194.649 219.62 194.785 219.838L200.15 228.691C200.286 228.908 200.204 229.18 200 229.316C199.932 229.371 199.85 229.384 199.769 229.384Z" fill="#F9FCEC"/>
<path d="M200.491 229.167C200.395 229.167 200.286 229.139 200.205 229.071C200.014 228.922 199.973 228.636 200.137 228.432L206.89 219.906C207.054 219.715 207.326 219.674 207.53 219.838C207.721 219.987 207.762 220.273 207.598 220.477L200.845 229.004C200.763 229.112 200.627 229.167 200.491 229.167Z" fill="#F9FCEC"/>
<path d="M192.648 220.545C192.402 220.545 192.198 220.341 192.198 220.096V216.465C192.198 216.22 192.402 216.016 192.648 216.016C192.893 216.016 193.097 216.22 193.097 216.465V220.096C193.111 220.341 192.906 220.545 192.648 220.545Z" fill="#F9FCEC"/>
<path d="M195.996 217.457C196.123 217.144 194.897 216.354 193.259 215.693C191.62 215.032 190.189 214.75 190.062 215.064C189.936 215.377 191.161 216.167 192.8 216.828C194.439 217.489 195.87 217.771 195.996 217.457Z" fill="#F9FCEC"/>
<path d="M206.836 220.178V219.266H208.198C208.606 219.266 208.974 218.94 208.96 218.532C208.947 218.138 208.579 217.716 207.081 217.716C206.836 217.716 206.605 217.825 206.441 218.002C206.251 218.192 205.924 218.41 205.365 218.41C204.385 218.41 202.424 218.872 203.704 219.09C204.984 219.307 206.264 219.212 206.264 219.212V220.082L206.836 220.178Z" fill="#F9FCEC"/>
<path d="M70.5346 253.156C70.3439 253.142 70.2078 252.993 70.2078 252.802L71.4196 227.888C71.4332 227.698 71.583 227.562 71.7737 227.562C71.9643 227.576 72.1004 227.725 72.1004 227.916L70.8886 252.829C70.875 253.02 70.7116 253.156 70.5346 253.156Z" fill="#A5B0F2"/>
<path d="M75.0824 230.703L72.1957 230.567C71.7463 230.54 71.3923 230.159 71.4059 229.697C71.4331 229.248 71.8144 228.895 72.2774 228.908L75.1641 229.044C75.6134 229.072 75.9674 229.452 75.9538 229.915C75.9266 230.377 75.5317 230.731 75.0824 230.703Z" fill="#E2BDCA"/>
<path d="M76.9343 231.941L74.4834 231.819C74.0476 231.791 73.7072 231.424 73.7344 230.989C73.7617 230.554 74.1293 230.214 74.565 230.241L77.016 230.363C77.4518 230.391 77.7922 230.758 77.7649 231.193C77.7377 231.628 77.3701 231.968 76.9343 231.941Z" fill="#E2BDCA"/>
<path d="M79.3716 233.015L76.5258 232.879C76.1173 232.866 75.7905 232.499 75.8041 232.091C75.8177 231.683 76.1854 231.356 76.5939 231.37L79.4397 231.506C79.8482 231.519 80.175 231.887 80.1614 232.295C80.1478 232.716 79.7938 233.042 79.3716 233.015Z" fill="#E2BDCA"/>
<path d="M69.9083 249.402C67.893 240.577 70.8614 230.771 70.8614 230.771L54.2493 247.376L69.9083 249.402Z" fill="#FFB57C"/>
<path d="M71.6782 249.593L81.0055 250.001C81.0055 250.001 72.645 241.12 72.3863 237.149L71.6782 249.593Z" fill="#FFB57C"/>
<path d="M76.417 252.857L77.9829 251.238L84.832 251.456L85.3903 253.401L76.417 252.857Z" fill="#92A4F0"/>
<path d="M50.0552 248.831C50.0552 248.831 65.7142 252.83 73.0807 253.129C80.4473 253.428 87.6232 254.053 87.6232 254.053L84.0965 257.494L55.7469 256.066L50.0552 248.831Z" fill="#92A4F0"/>
<path d="M54.7529 252.897C55.2266 252.897 55.6107 252.514 55.6107 252.041C55.6107 251.568 55.2266 251.184 54.7529 251.184C54.2791 251.184 53.895 251.568 53.895 252.041C53.895 252.514 54.2791 252.897 54.7529 252.897Z" fill="#F9FCEC"/>
<path d="M14.9656 260.785C14.9656 260.785 21.6649 245.295 35.1861 257.195C35.1861 257.195 39.1621 261.288 45.4802 257.44C51.5259 253.768 54.8484 249.878 64.2302 256.461C66.1229 257.793 68.4921 258.392 70.7525 257.916C70.9567 257.875 71.161 257.82 71.3652 257.766C72.6179 257.412 73.7617 256.733 74.7557 255.903C76.8935 254.121 83.2661 249.77 90.2922 254.421C91.8717 255.468 93.1925 256.855 94.2955 258.392L96.2698 261.139L14.9656 260.785Z" fill="#9CF5F4"/>
<path d="M31.1965 260.839C31.1965 260.839 37.8959 245.35 51.4171 257.249C51.4171 257.249 55.3931 261.343 61.7112 257.494C67.7569 253.822 71.0793 249.933 80.4611 256.515C82.3538 257.848 84.7231 258.446 86.9834 257.97C87.1877 257.929 87.3919 257.875 87.5962 257.82C88.8489 257.467 89.9927 256.787 90.9867 255.957C93.1245 254.176 99.497 249.824 106.523 254.475C108.103 255.522 109.423 256.909 110.526 258.446L112.501 261.193L31.1965 260.839Z" fill="#65ADA6"/>
<path d="M36.3706 214.126C36.5612 214.112 36.6974 213.963 36.6974 213.772L35.4855 188.858C35.4719 188.668 35.3221 188.532 35.1315 188.532C34.9408 188.546 34.8047 188.695 34.8047 188.886L36.0166 213.799C36.0302 213.99 36.18 214.126 36.3706 214.126Z" fill="#E0B7C6"/>
<path d="M31.8228 191.673L34.7095 191.537C35.1588 191.51 35.5128 191.129 35.4992 190.667C35.472 190.218 35.0907 189.865 34.6278 189.878L31.7411 190.014C31.2917 190.041 30.9377 190.422 30.9513 190.885C30.9785 191.347 31.3598 191.701 31.8228 191.673Z" fill="#EAB890"/>
<path d="M29.9708 192.911L32.4218 192.789C32.8575 192.761 33.1979 192.394 33.1707 191.959C33.1435 191.524 32.7758 191.184 32.3401 191.211L29.8891 191.333C29.4534 191.361 29.113 191.728 29.1402 192.163C29.1538 192.598 29.5351 192.938 29.9708 192.911Z" fill="#EAB890"/>
<path d="M27.5199 193.985L30.3658 193.849C30.7743 193.836 31.1011 193.468 31.0874 193.061C31.0738 192.653 30.7062 192.326 30.2977 192.34L27.4518 192.476C27.0433 192.489 26.7165 192.857 26.7301 193.265C26.7574 193.686 27.1114 194.012 27.5199 193.985Z" fill="#EAB890"/>
<path d="M36.9971 210.372C39.0123 201.546 36.0439 191.741 36.0439 191.741L52.6561 208.346L36.9971 210.372Z" fill="#F6F1E3"/>
<path d="M35.2267 210.563L25.8994 210.971C25.8994 210.971 34.26 202.09 34.5187 198.119L35.2267 210.563Z" fill="#F6F1E3"/>
<path d="M30.4884 213.827L28.9225 212.208L22.0598 212.426L21.5151 214.371L30.4884 213.827Z" fill="#DBA7BC"/>
<path d="M56.8363 209.815C56.8363 209.815 41.1773 213.813 33.8108 214.112C26.4578 214.411 19.2683 215.037 19.2683 215.037L22.795 218.478L51.1446 217.05L56.8363 209.815Z" fill="#DBA7BC"/>
<path d="M52.1523 213.867C52.626 213.867 53.0101 213.484 53.0101 213.011C53.0101 212.538 52.626 212.154 52.1523 212.154C51.6785 212.154 51.2944 212.538 51.2944 213.011C51.2944 213.484 51.6785 213.867 52.1523 213.867Z" fill="#92A4F0"/>
<path d="M-25.5164 224.067C-25.5164 224.067 -16.5022 203.219 1.70307 219.226C1.70307 219.226 7.05437 224.733 15.5647 219.566C23.7074 214.629 28.1872 209.38 40.8097 218.246C43.356 220.042 46.5423 220.858 49.5924 220.205C49.8647 220.15 50.1371 220.082 50.423 220.001C52.1115 219.525 53.6501 218.614 54.9982 217.485C57.8712 215.078 66.4497 209.217 75.9268 215.486C78.0509 216.887 79.8347 218.763 81.3189 220.83L83.9877 224.529L-25.5164 224.067Z" fill="#9CF5F4"/>
<path d="M-3.70288 224.135C-3.70288 224.135 5.31126 203.287 23.5165 219.294C23.5165 219.294 28.8678 224.801 37.3782 219.634C45.5209 214.697 50.0007 209.448 62.6232 218.314C65.1695 220.11 68.3558 220.926 71.4059 220.273C71.6782 220.218 71.9505 220.15 72.2365 220.069C73.9249 219.593 75.4636 218.682 76.8116 217.553C79.6847 215.146 88.2631 209.285 97.7402 215.554C99.8644 216.955 101.648 218.831 103.132 220.898L105.801 224.597L-3.70288 224.135Z" fill="#65ADA6"/>
</g>
<defs>
<clipPath id="clip0">
<rect width="443" height="317" fill="white" transform="translate(-68 0.399048)"/>
</clipPath>
</defs>
</svg>
