<svg width="820" height="655" viewBox="0 0 820 655" fill="none" xmlns="http://www.w3.org/2000/svg">
<path d="M42.871 650.066C38.3266 657.914 26.378 655.276 25.5578 646.246L25.1588 641.82C24.0873 630.034 26.5775 619.77 28.7721 610.711C30.287 604.467 31.7131 598.57 31.6023 593.368C31.3436 581.042 31.5653 569.323 31.787 557.988C32.4373 524.078 32.9915 494.794 20.8803 463.02C9.59678 433.411 2.35522 400.062 0.493102 369.116C-1.66459 333.277 3.28628 300.609 14.8063 274.636C17.7916 267.904 19.9788 261.601 22.0996 255.505C27.2869 240.571 32.186 226.457 46.6544 212.085C50.5633 208.198 54.7679 204.378 58.832 200.683C67.8766 192.459 77.2241 183.961 83.3573 174.665C90.6875 163.551 89.2614 151.411 87.451 136.041C86.7046 129.73 85.9435 123.206 85.7958 116.37C84.9534 76.298 107.136 47.0952 151.731 29.5825C187.311 15.6092 231.662 11.3308 264.049 8.20509C269.355 7.69522 274.372 7.20753 279.035 6.71244C395.727 -5.62039 515.006 1.19998 637.13 9.9342C675.34 12.6683 708.415 18.6536 735.43 27.7278C777.439 41.834 803.826 63.2336 813.846 91.3279C817.74 102.235 821.317 114.981 818.354 126.819C815.531 138.102 807.58 146.97 793.319 154.743C773.589 165.502 751.621 168.251 730.384 170.911C717.792 172.485 705.903 173.978 694.604 177.015C607.898 200.328 524.501 196.537 436.206 192.525C420.171 191.794 403.59 191.04 387.17 190.478C349.33 189.178 310.565 189.628 273.086 190.064C252.123 190.308 230.435 190.559 209.139 190.5C181.754 190.434 159.756 193.39 141.903 199.56C132.349 202.863 122.72 207.947 113.41 212.861C104.816 217.398 95.9339 222.09 86.8672 225.533C68.2904 232.59 57.8862 245.928 49.7579 273.099C38.696 310.075 35.1565 359.318 39.8044 411.745C40.972 424.891 45.243 437.674 49.7653 451.204C52.987 460.84 56.3196 470.808 58.5291 481.131C63.9602 506.506 63.7903 533.115 63.0439 553.465L62.9553 555.852C61.9208 584.175 60.6276 619.43 45.1174 646.209L42.871 650.066ZM416.964 21.4246C371.254 21.4246 326.016 23.2868 281.274 28.0159C276.507 28.5184 271.453 29.0061 266.089 29.5234C233.228 32.6934 192.335 36.6393 159.549 49.5116C142.598 56.1694 129.652 64.6302 121.065 74.6723C111.392 85.9854 106.855 99.471 107.203 115.897C107.328 121.698 108.03 127.706 108.718 133.514C110.668 150.058 112.87 168.805 101.232 186.451C97.7591 191.712 93.7171 196.53 89.3944 201.082C93.9536 198.895 98.5867 196.441 103.375 193.914C113.402 188.616 123.77 183.148 134.883 179.306C155.049 172.345 179.36 168.99 209.176 169.079C230.324 169.138 251.931 168.887 272.813 168.643C310.543 168.207 349.551 167.749 387.887 169.071C404.425 169.64 421.065 170.394 437.152 171.126C523.74 175.057 605.526 178.773 689.011 156.325C701.742 152.903 714.932 151.248 727.686 149.652C747.837 147.125 766.865 144.746 783.033 135.93C799.518 126.937 801.403 120.302 793.636 98.5251C785.937 76.9334 764.049 59.9527 728.581 48.0411C703.272 39.5433 671.978 33.9126 635.571 31.3116C561.611 26.0134 488.707 21.4246 416.964 21.4246Z" fill="#FFF2EA"/>
<path d="M35.8284 640.851C50.4076 615.683 51.2722 581.344 52.3215 553.08C53.1786 529.922 52.9052 506.091 48.043 483.384C42.9444 459.561 31.2766 437.053 29.1189 412.697C25.0769 367.09 26.2814 314.153 39.4788 270.039C47.2893 243.939 58.2921 224.934 83.0464 215.527C101.195 208.633 119.047 196.123 138.393 189.435C160.575 181.773 185.64 179.733 209.153 179.792C268.497 179.948 328.225 177.731 387.525 179.778C491.064 183.347 590.606 193.884 691.803 166.676C723.459 158.164 759.246 161.112 788.175 145.343C811.681 132.53 812.198 118.638 803.744 94.9257C783.49 38.1607 688.5 24.35 636.354 20.6258C519.373 12.2463 397.175 4.98992 280.15 17.3671C217.496 23.9879 94.6551 28.7097 96.5024 116.133C96.9827 139.107 105.384 160.72 92.2979 180.553C82.5144 195.384 66.7824 207.177 54.2057 219.673C35.9614 237.806 35.0378 255.445 24.5966 278.972C1.18716 331.747 10.1431 404.769 30.8923 459.198C47.9839 504.044 41.2892 544.331 42.3163 593.145C42.6266 607.939 34.188 622.769 35.8284 640.851Z" fill="#22C79E"/>
</svg>
