<svg width="820" height="655" viewBox="0 0 820 655" fill="none" xmlns="http://www.w3.org/2000/svg">
    <path d="M42.871 650.066C38.3266 657.914 26.378 655.276 25.5578 646.246L25.1588 641.82C24.0873 630.034 26.5775 619.77 28.7721 610.711C30.287 604.467 31.7131 598.57 31.6023 593.368C31.3436 581.042 31.5653 569.323 31.787 557.988C32.4373 524.078 32.9915 494.794 20.8803 463.02C9.59678 433.411 2.35522 400.062 0.493102 369.116C-1.66459 333.277 3.28628 300.609 14.8063 274.636C17.7916 267.904 19.9788 261.601 22.0996 255.505C27.2869 240.571 32.186 226.457 46.6544 212.085C50.5633 208.198 54.7679 204.378 58.832 200.683C67.8766 192.459 77.2241 183.961 83.3573 174.665C90.6875 163.551 89.2614 151.411 87.451 136.041C86.7046 129.73 85.9435 123.206 85.7958 116.37C84.9534 76.298 107.136 47.0952 151.731 29.5825C187.311 15.6092 231.662 11.3308 264.049 8.20509C269.355 7.69522 274.372 7.20753 279.035 6.71244C395.727 -5.62039 515.006 1.19998 637.13 9.9342C675.34 12.6683 708.415 18.6536 735.43 27.7278C777.439 41.834 803.826 63.2336 813.846 91.3279C817.74 102.235 821.317 114.981 818.354 126.819C815.531 138.102 807.58 146.97 793.319 154.743C773.589 165.502 751.621 168.251 730.384 170.911C717.792 172.485 705.903 173.978 694.604 177.015C607.898 200.328 524.501 196.537 436.206 192.525C420.171 191.794 403.59 191.04 387.17 190.478C349.33 189.178 310.565 189.628 273.086 190.064C252.123 190.308 230.435 190.559 209.139 190.5C181.754 190.434 159.756 193.39 141.903 199.56C132.349 202.863 122.72 207.947 113.41 212.861C104.816 217.398 95.9339 222.09 86.8672 225.533C68.2904 232.59 57.8862 245.928 49.7579 273.099C38.696 310.075 35.1565 359.318 39.8044 411.745C40.972 424.891 45.243 437.674 49.7653 451.204C52.987 460.84 56.3196 470.808 58.5291 481.131C63.9602 506.506 63.7903 533.115 63.0439 553.465L62.9553 555.852C61.9208 584.175 60.6276 619.43 45.1174 646.209L42.871 650.066ZM416.964 21.4246C371.254 21.4246 326.016 23.2868 281.274 28.0159C276.507 28.5184 271.453 29.0061 266.089 29.5234C233.228 32.6934 192.335 36.6393 159.549 49.5116C142.598 56.1694 129.652 64.6302 121.065 74.6723C111.392 85.9854 106.855 99.471 107.203 115.897C107.328 121.698 108.03 127.706 108.718 133.514C110.668 150.058 112.87 168.805 101.232 186.451C97.7591 191.712 93.7171 196.53 89.3944 201.082C93.9536 198.895 98.5867 196.441 103.375 193.914C113.402 188.616 123.77 183.148 134.883 179.306C155.049 172.345 179.36 168.99 209.176 169.079C230.324 169.138 251.931 168.887 272.813 168.643C310.543 168.207 349.551 167.749 387.887 169.071C404.425 169.64 421.065 170.394 437.152 171.126C523.74 175.057 605.526 178.773 689.011 156.325C701.742 152.903 714.932 151.248 727.686 149.652C747.837 147.125 766.865 144.746 783.033 135.93C799.518 126.937 801.403 120.302 793.636 98.5251C785.937 76.9334 764.049 59.9527 728.581 48.0411C703.272 39.5433 671.978 33.9126 635.571 31.3116C561.611 26.0134 488.707 21.4246 416.964 21.4246Z" fill="#FFF2EA"/>
    <path d="M35.8284 640.851C50.4076 615.683 51.2722 581.344 52.3215 553.08C53.1786 529.922 52.9052 506.091 48.043 483.384C42.9444 459.561 31.2766 437.053 29.1189 412.697C25.0769 367.09 26.2814 314.153 39.4788 270.039C47.2893 243.939 58.2921 224.934 83.0464 215.527C101.195 208.633 119.047 196.123 138.393 189.435C160.575 181.773 185.64 179.733 209.153 179.792C268.497 179.948 328.225 177.731 387.525 179.778C491.064 183.347 590.606 193.884 691.803 166.676C723.459 158.164 759.246 161.112 788.175 145.343C811.681 132.53 812.198 118.638 803.744 94.9257C783.49 38.1607 688.5 24.35 636.354 20.6258C519.373 12.2463 397.175 4.98992 280.15 17.3671C217.496 23.9879 94.6551 28.7097 96.5024 116.133C96.9827 139.107 105.384 160.72 92.2979 180.553C82.5144 195.384 66.7824 207.177 54.2057 219.673C35.9614 237.806 35.0378 255.445 24.5966 278.972C1.18716 331.747 10.1431 404.769 30.8923 459.198C47.9839 504.044 41.2892 544.331 42.3163 593.145C42.6266 607.939 34.188 622.769 35.8284 640.851Z" fill="#22C79E"/>
    <path d="M152.107 110.85H151.595C151.09 110.85 150.586 110.817 150.081 110.752C148.274 110.394 146.761 109.401 145.54 107.773C144.938 107.057 144.384 106.187 143.88 105.161C143.147 103.647 142.602 101.922 142.244 99.9854C142.033 98.6019 141.927 97.3079 141.927 96.1035C141.927 95.4362 141.951 94.777 142 94.126V93.8574C142.081 92.6693 142.244 91.5137 142.488 90.3906C142.716 89.3652 143.001 88.3398 143.343 87.3145L143.782 86.1182C144.515 84.751 145.247 84.0674 145.979 84.0674C146.744 84.0674 147.379 84.4743 147.884 85.2881C148.226 85.874 148.396 86.4762 148.396 87.0947L148.372 87.4854C148.209 87.9899 148.055 88.7142 147.908 89.6582C147.892 89.6582 147.835 90.0163 147.737 90.7324L147.493 93.1494C147.461 93.654 147.444 94.3294 147.444 95.1758C147.461 96.8685 147.566 98.2357 147.762 99.2773C147.924 100.254 148.136 101.157 148.396 101.987C148.494 102.28 148.681 102.728 148.958 103.33L149.056 103.55C149.414 104.315 149.723 104.884 149.983 105.259C150.26 105.617 150.464 105.861 150.594 105.991C151.001 106.463 151.497 106.699 152.083 106.699C152.132 106.699 152.319 106.691 152.645 106.675C152.97 106.642 153.426 106.309 154.012 105.674C154.207 105.462 154.386 105.234 154.549 104.99C154.549 104.974 154.557 104.966 154.573 104.966C155.289 103.989 155.802 102.923 156.111 101.768C156.144 101.686 156.168 101.597 156.185 101.499C156.217 101.385 156.258 101.263 156.307 101.133C156.486 100.384 156.632 99.6191 156.746 98.8379L156.771 98.6426C156.836 98.0241 156.868 97.5114 156.868 97.1045C156.868 96.5348 156.876 95.9733 156.893 95.4199L156.868 95.1514V94.4678L156.844 93.6377L156.697 92.2705C156.648 91.9775 156.624 91.6927 156.624 91.416L156.551 90.6836C156.518 90.3906 156.502 90.0977 156.502 89.8047C156.502 89.6582 156.518 89.5036 156.551 89.3408C156.876 88.6572 157.332 88.3154 157.918 88.3154C157.999 88.3154 158.252 88.3561 158.675 88.4375C159.114 88.5026 159.448 89.1211 159.676 90.293L159.847 90.9277C159.896 91.123 159.936 91.3265 159.969 91.5381C160.018 91.9287 160.083 92.3356 160.164 92.7588C160.245 93.182 160.311 93.6133 160.359 94.0527C160.457 94.5573 160.514 94.9805 160.53 95.3223L160.555 95.8105L160.579 96.6895C160.579 97.4382 160.563 98.1868 160.53 98.9355C160.514 99.5052 160.4 100.262 160.188 101.206L160.091 101.621C159.993 102.109 159.814 102.728 159.554 103.477V103.525C159.147 104.551 158.821 105.283 158.577 105.723C158.431 106.032 158.219 106.382 157.942 106.772C157.438 107.489 156.95 108.099 156.478 108.604C155.387 109.775 154.093 110.516 152.596 110.825L152.107 110.85ZM167.806 110.093C166.829 110.093 165.958 109.808 165.193 109.238C164.249 108.538 163.517 107.358 162.996 105.698C162.736 104.966 162.54 104.144 162.41 103.232C162.394 103.07 162.369 102.915 162.337 102.769L162.215 101.816C162.215 101.621 162.199 101.426 162.166 101.23C162.085 100.531 162.044 99.3994 162.044 97.8369L162.093 97.0068C162.109 96.4535 162.15 95.8919 162.215 95.3223C162.28 94.7526 162.329 94.4189 162.361 94.3213C162.133 94.3213 161.678 94.4271 160.994 94.6387L160.481 94.7607L160.164 94.7852C160.001 94.6875 159.822 94.598 159.627 94.5166C158.878 94.2562 158.504 93.9388 158.504 93.5645C158.504 93.3203 158.781 93.0029 159.334 92.6123L159.383 92.5879C160.083 92.1647 160.953 91.8066 161.995 91.5137C162.516 91.3835 162.833 91.3184 162.947 91.3184L162.972 91.1719L163.118 90.6592C163.232 89.9919 163.419 89.3896 163.68 88.8525C164.119 87.9899 164.64 87.5586 165.242 87.5586C166.04 87.5749 166.74 88.1283 167.342 89.2188L167.22 89.8047L167.049 90.6104L166.976 90.9033C166.976 90.9359 166.967 90.9603 166.951 90.9766L167.195 91.001C167.716 91.001 168.147 91.0091 168.489 91.0254C168.831 91.0417 169.165 91.0742 169.49 91.123C170.174 91.1556 170.743 91.2451 171.199 91.3916C171.508 91.6195 171.663 91.9043 171.663 92.2461C171.663 92.3112 171.639 92.4821 171.59 92.7588C171.541 93.0192 171.338 93.3366 170.979 93.7109C170.621 94.0853 170.215 94.305 169.759 94.3701L169.026 94.2969C168.229 94.1992 167.651 94.1423 167.293 94.126L166.512 94.1016L166.487 94.2236C166.455 94.6143 166.414 94.9967 166.365 95.3711C166.365 95.599 166.349 95.7943 166.316 95.957C166.235 97.015 166.194 97.7311 166.194 98.1055L166.146 98.6914C166.146 100.124 166.17 101.076 166.219 101.548C166.219 101.743 166.251 102.166 166.316 102.817C166.382 103.175 166.438 103.525 166.487 103.867C166.552 104.209 166.626 104.535 166.707 104.844C166.821 105.348 167 105.828 167.244 106.284C167.488 106.724 167.781 106.943 168.123 106.943C168.416 106.943 168.733 106.65 169.075 106.064C169.238 105.804 169.336 105.625 169.368 105.527C169.694 104.714 170.035 104.307 170.394 104.307C170.8 104.307 171.053 105.039 171.15 106.504C171.134 106.536 171.126 106.577 171.126 106.626V106.772C171.126 107.31 170.923 107.936 170.516 108.652C170.19 109.141 169.808 109.507 169.368 109.751C168.929 109.979 168.408 110.093 167.806 110.093ZM166.951 94.1016C166.821 94.1016 166.699 94.0934 166.585 94.0771H166.512V94.1016H166.951ZM173.885 90.5371C173.852 90.5371 173.608 90.529 173.152 90.5127C172.697 90.4964 172.363 90.0244 172.151 89.0967V87.6562C172.151 87.3633 172.16 87.1517 172.176 87.0215V86.8506C172.339 85.4508 172.965 84.751 174.056 84.751C174.479 84.751 174.853 84.8812 175.179 85.1416C175.618 85.516 175.838 86.1263 175.838 86.9727C175.887 87.3145 175.911 87.6318 175.911 87.9248C175.96 88.2829 175.984 88.6735 175.984 89.0967C175.984 89.2757 175.96 89.4548 175.911 89.6338C175.374 90.236 174.699 90.5371 173.885 90.5371ZM175.569 112.559C174.788 112.559 174.145 112.038 173.641 110.996C173.234 109.645 172.933 107.505 172.737 104.575L172.664 103.794C172.599 102.72 172.558 102.166 172.542 102.134C172.428 100.213 172.379 98.846 172.396 98.0322C172.396 96.9906 172.412 96.1849 172.444 95.6152C172.542 94.7038 172.811 94.0446 173.25 93.6377C173.641 93.2959 174.072 93.125 174.544 93.125C175.146 93.125 175.643 93.3691 176.033 93.8574C176.342 94.2318 176.497 94.7201 176.497 95.3223L176.473 95.6641L176.497 96.958L176.57 98.4717C176.587 98.8135 176.611 99.1471 176.644 99.4727L176.741 101.084C176.806 101.702 176.855 102.321 176.888 102.939L177.327 107.456C177.49 108.791 177.571 109.816 177.571 110.532C177.311 111.883 176.644 112.559 175.569 112.559ZM181.478 112.119H180.892C180.534 112.119 180.143 111.501 179.72 110.264C179.59 109.645 179.467 109.019 179.354 108.384C179.24 107.749 179.126 107.106 179.012 106.455C178.898 105.804 178.8 105.145 178.719 104.478C178.475 102.345 178.328 100.897 178.279 100.132C178.133 98.1787 178.06 96.2581 178.06 94.3701C178.06 93.361 178.076 92.5065 178.108 91.8066V91.0986C178.157 89.8779 178.206 88.6572 178.255 87.4365L178.353 85.9961C178.353 85.6706 178.385 85.2799 178.45 84.8242C178.532 84.3522 178.8 83.9697 179.256 83.6768C179.76 83.3675 180.33 83.2129 180.965 83.2129C181.453 83.2129 181.893 83.335 182.283 83.5791C182.674 83.807 182.869 84.2139 182.869 84.7998C182.934 85.5648 182.967 85.9717 182.967 86.0205C182.983 86.0531 183.016 86.5332 183.064 87.4609L183.089 89.707V90.2197V91.8555V96.6162C183.089 97.5439 183.105 98.4635 183.138 99.375L183.162 100.815L183.211 102.109C183.211 102.663 183.227 103.216 183.26 103.77L183.357 106.113C183.357 106.634 183.423 107.741 183.553 109.434L183.577 110.19C183.577 110.728 183.561 111.061 183.528 111.191C182.861 111.81 182.177 112.119 181.478 112.119ZM186.58 90.5371C186.548 90.5371 186.303 90.529 185.848 90.5127C185.392 90.4964 185.058 90.0244 184.847 89.0967V87.6562C184.847 87.3633 184.855 87.1517 184.871 87.0215V86.8506C185.034 85.4508 185.66 84.751 186.751 84.751C187.174 84.751 187.549 84.8812 187.874 85.1416C188.313 85.516 188.533 86.1263 188.533 86.9727C188.582 87.3145 188.606 87.6318 188.606 87.9248C188.655 88.2829 188.68 88.6735 188.68 89.0967C188.68 89.2757 188.655 89.4548 188.606 89.6338C188.069 90.236 187.394 90.5371 186.58 90.5371ZM188.265 112.559C187.483 112.559 186.84 112.038 186.336 110.996C185.929 109.645 185.628 107.505 185.433 104.575L185.359 103.794C185.294 102.72 185.254 102.166 185.237 102.134C185.123 100.213 185.075 98.846 185.091 98.0322C185.091 96.9906 185.107 96.1849 185.14 95.6152C185.237 94.7038 185.506 94.0446 185.945 93.6377C186.336 93.2959 186.767 93.125 187.239 93.125C187.841 93.125 188.338 93.3691 188.729 93.8574C189.038 94.2318 189.192 94.7201 189.192 95.3223L189.168 95.6641L189.192 96.958L189.266 98.4717C189.282 98.8135 189.306 99.1471 189.339 99.4727L189.437 101.084C189.502 101.702 189.55 102.321 189.583 102.939L190.022 107.456C190.185 108.791 190.267 109.816 190.267 110.532C190.006 111.883 189.339 112.559 188.265 112.559ZM198.372 113.047C196.517 113.047 194.881 112.55 193.465 111.558C192.716 111.037 192.114 110.459 191.658 109.824C191.154 109.059 190.885 108.302 190.853 107.554C191.064 106.577 191.495 106.089 192.146 106.089C192.179 106.089 192.374 106.105 192.732 106.138C193.107 106.154 193.66 106.463 194.393 107.065C194.702 107.489 195.027 107.847 195.369 108.14L195.516 108.262C195.727 108.441 195.947 108.587 196.175 108.701C196.907 109.124 197.623 109.336 198.323 109.336C198.991 109.336 199.585 109.1 200.105 108.628L200.228 108.164C200.244 108.083 200.252 107.993 200.252 107.896C200.252 107.586 200.089 107.204 199.764 106.748C199.52 106.406 199.104 106.007 198.519 105.552L198.274 105.332L197.591 104.819L196.663 104.16L196.297 103.94C196.069 103.794 195.825 103.647 195.564 103.501C195.369 103.403 194.987 103.159 194.417 102.769L194.295 102.671C193.937 102.427 193.587 102.158 193.245 101.865C192.48 101.198 191.87 100.425 191.414 99.5459C190.975 98.667 190.755 97.7148 190.755 96.6895C190.755 95.6315 191.04 94.5898 191.609 93.5645C192.163 92.6042 192.863 91.8555 193.709 91.3184C194.572 90.765 195.589 90.4883 196.761 90.4883C197.916 90.4883 198.942 90.8057 199.837 91.4404C200.439 91.9287 200.887 92.5146 201.18 93.1982C201.424 93.7191 201.546 94.2399 201.546 94.7607C201.546 95.4769 201.31 96.1198 200.838 96.6895C200.333 97.1289 199.902 97.3486 199.544 97.3486C199.528 97.3486 199.422 97.3405 199.227 97.3242C199.031 97.3079 198.681 96.9906 198.177 96.3721C198.112 96.2907 198.079 96.2012 198.079 96.1035V95.7617V95.4199C198.079 95.2734 198.071 95.1921 198.055 95.1758C198.006 95.0781 197.973 95.0212 197.957 95.0049C197.941 94.9723 197.924 94.9479 197.908 94.9316C197.892 94.9154 197.876 94.8991 197.859 94.8828C197.534 94.541 197.233 94.3701 196.956 94.3701C196.386 94.3701 195.939 94.6875 195.613 95.3223C195.418 95.7454 195.32 96.1361 195.32 96.4941C195.32 96.7057 195.369 96.9255 195.467 97.1533C195.63 97.6253 196.077 98.138 196.81 98.6914C196.924 98.8053 197.249 99.0251 197.786 99.3506C197.916 99.4157 198.038 99.4889 198.152 99.5703L199.3 100.254C200.293 100.905 200.927 101.344 201.204 101.572C202.034 102.223 202.71 102.866 203.23 103.501C204.256 104.803 204.769 106.203 204.769 107.7C204.769 108.107 204.72 108.514 204.622 108.921C204.183 110.744 203.003 111.989 201.082 112.656C200.219 112.917 199.316 113.047 198.372 113.047ZM212.288 110.972C211.344 110.972 210.4 110.768 209.456 110.361C208.431 109.906 207.576 109.214 206.893 108.286C205.802 106.707 205.257 104.689 205.257 102.231C205.257 100.75 205.436 99.3018 205.794 97.8857C206.152 96.5674 206.608 95.4199 207.161 94.4434C207.731 93.4668 208.431 92.5716 209.261 91.7578C210.107 90.9277 210.994 90.2686 211.922 89.7803C212.866 89.292 213.794 88.9909 214.705 88.877H216.072C216.512 88.8932 216.951 88.9665 217.391 89.0967C219.181 89.764 220.328 91.001 220.833 92.8076C220.996 93.361 221.077 93.9714 221.077 94.6387C221.077 95.7617 220.833 96.8441 220.345 97.8857C220.003 98.6833 219.474 99.5133 218.758 100.376C218.611 100.604 218.27 100.97 217.732 101.475C215.958 103.021 214.201 104.095 212.459 104.697C211.58 104.99 210.774 105.153 210.042 105.186C210.058 105.202 210.075 105.234 210.091 105.283C210.107 105.332 210.123 105.389 210.14 105.454C210.27 105.731 210.441 105.991 210.652 106.235C211.206 106.854 211.8 107.163 212.435 107.163C213.053 107.163 213.655 106.992 214.241 106.65C214.583 106.471 214.909 106.284 215.218 106.089C215.722 105.763 216.015 105.56 216.097 105.479C216.585 105.039 217.09 104.681 217.61 104.404L217.781 104.307C218.042 104.258 218.294 104.233 218.538 104.233C218.88 104.233 219.246 104.307 219.637 104.453C220.044 104.583 220.288 105.023 220.369 105.771C220.271 106.178 220.101 106.561 219.856 106.919C219.629 107.277 219.352 107.603 219.026 107.896C217.513 109.263 215.787 110.231 213.851 110.801C213.33 110.915 212.809 110.972 212.288 110.972ZM209.529 102.329C209.562 102.329 209.586 102.321 209.603 102.305C209.765 102.305 210.115 102.207 210.652 102.012C211.971 101.458 213.338 100.514 214.754 99.1797C215.34 98.5775 215.804 98.0078 216.146 97.4707C216.666 96.5267 216.935 95.6478 216.951 94.834C216.951 94.3457 216.805 93.833 216.512 93.2959C216.365 93.068 216.194 92.9297 215.999 92.8809H216.097H215.633H215.975C215.828 92.832 215.625 92.8076 215.364 92.8076C215.088 92.8402 214.949 92.8646 214.949 92.8809H215.633C215.047 92.8809 214.355 93.1331 213.558 93.6377C212.125 94.6143 211.076 95.9001 210.408 97.4951C209.822 98.8786 209.529 100.49 209.529 102.329ZM226.204 110.605C226.025 110.605 225.732 110.557 225.325 110.459C224.658 110.264 224.121 109.255 223.714 107.432L223.323 105.576L222.957 103.696C222.859 103.208 222.713 102.378 222.518 101.206C222.322 100.099 222.16 98.9844 222.029 97.8613C221.98 97.2266 221.924 96.5999 221.858 95.9814C221.712 94.2236 221.614 92.6855 221.565 91.3672V90.3174C221.631 89.7965 221.891 89.4141 222.347 89.1699C222.802 88.9095 223.323 88.7793 223.909 88.7793C224.511 88.7793 225.032 88.9095 225.472 89.1699C225.927 89.4141 226.18 89.7803 226.229 90.2686C226.229 90.4476 226.237 90.6104 226.253 90.7568C226.269 90.9033 226.277 91.0579 226.277 91.2207C226.294 91.3835 226.31 91.5462 226.326 91.709L226.399 92.417L226.497 93.7109L226.57 93.6133C227.303 92.6693 228.011 92.0182 228.694 91.6602C229.183 91.3997 229.752 91.2695 230.403 91.2695C231.347 91.2695 232.234 91.5137 233.064 92.002C233.862 92.5879 234.424 93.1006 234.749 93.54C235.075 93.9632 235.392 94.5573 235.701 95.3223L236.116 96.5918L236.434 98.0078C236.515 98.4473 236.556 98.9274 236.556 99.4482C236.556 99.8063 236.491 100.148 236.36 100.474C236.295 100.734 236.141 100.921 235.896 101.035C235.669 101.149 235.506 101.247 235.408 101.328L235.066 101.597L233.821 101.743C233.691 101.646 233.569 101.572 233.455 101.523L232.82 101.328C232.723 101.312 232.641 101.287 232.576 101.255C232.527 101.222 232.43 101.108 232.283 100.913C231.925 100.392 231.681 99.6436 231.551 98.667C231.502 98.1787 231.421 97.6986 231.307 97.2266L231.209 96.8115C230.965 95.7699 230.566 95.249 230.013 95.249C229.459 95.249 228.833 95.7536 228.133 96.7627C227.791 97.2998 227.588 97.6986 227.522 97.959C227.295 98.3984 227.156 98.7158 227.107 98.9111L227.059 98.9844C227.091 99.1146 227.107 99.2367 227.107 99.3506L227.474 102.231L227.596 103.086L227.718 104.111L227.84 104.941C227.84 104.99 227.848 105.031 227.864 105.063C228.108 106.772 228.23 107.944 228.23 108.579C228.149 109.36 227.848 109.922 227.327 110.264C226.969 110.492 226.595 110.605 226.204 110.605ZM251.277 115.635C251.147 115.635 251.025 115.627 250.911 115.61C250.797 115.594 250.618 115.464 250.374 115.22L250.13 114.854C249.821 114.43 249.52 113.747 249.227 112.803C249.21 112.705 249.186 112.616 249.153 112.534C248.828 111.297 248.576 109.93 248.396 108.433C248.364 108.156 248.348 107.887 248.348 107.627L248.274 107.725C247.33 109.076 246.297 110.068 245.174 110.703H245.149C244.303 111.191 243.408 111.436 242.464 111.436C241.032 111.436 239.827 110.898 238.851 109.824C237.646 108.555 237.044 106.659 237.044 104.136C237.174 101.629 237.898 99.3262 239.217 97.2266C239.9 96.1198 240.633 95.2327 241.414 94.5654C241.414 94.484 241.821 94.1748 242.635 93.6377C243.774 92.9541 245.068 92.6042 246.517 92.5879C247.558 92.5879 248.445 92.832 249.178 93.3203C249.34 93.4017 249.544 93.5645 249.788 93.8086C249.788 93.8249 249.796 93.833 249.812 93.833C250.203 94.2562 250.398 94.6794 250.398 95.1025C250.398 95.3141 250.382 95.4525 250.35 95.5176C250.317 95.5827 250.268 95.6559 250.203 95.7373C249.91 96.0791 249.121 96.25 247.835 96.25H247.518C246.688 96.25 245.931 96.3639 245.247 96.5918C244.352 97.0964 243.546 97.8939 242.83 98.9844C241.805 100.693 241.259 102.451 241.194 104.258C241.194 105.007 241.308 105.69 241.536 106.309C241.78 107.008 242.155 107.358 242.659 107.358C243.115 107.358 243.799 106.943 244.71 106.113C244.71 106.097 244.718 106.089 244.734 106.089C245.141 105.715 245.743 105.031 246.541 104.038L247.078 103.379C247.225 103.151 247.379 102.939 247.542 102.744C247.705 102.549 247.851 102.345 247.981 102.134L248.299 101.646C248.299 101.385 248.331 101.092 248.396 100.767C248.462 100.295 248.551 99.8551 248.665 99.4482L248.885 99.0332C249.048 98.724 249.422 98.5693 250.008 98.5693C250.171 98.5693 250.382 98.5856 250.643 98.6182C251.229 98.7158 251.521 98.9193 251.521 99.2285L251.497 99.375C251.497 99.3913 251.505 99.4076 251.521 99.4238C251.554 99.4401 251.603 99.4808 251.668 99.5459C251.733 99.6598 251.766 99.847 251.766 100.107L251.741 100.791L251.717 103.257C251.717 104.478 251.749 105.446 251.814 106.162C251.814 106.455 251.863 107.106 251.961 108.115C252.091 109.092 252.189 109.702 252.254 109.946C252.433 111.053 252.653 112.046 252.913 112.925L252.986 113.169C253.1 113.446 253.165 113.722 253.182 113.999C253.182 114.618 252.938 115.065 252.449 115.342C252.091 115.537 251.701 115.635 251.277 115.635ZM247.591 99.1309C247.575 99.1146 247.55 99.1064 247.518 99.1064C247.501 99.1064 247.485 99.1064 247.469 99.1064C247.452 99.1064 247.444 99.0983 247.444 99.082L247.518 99.0088C247.534 99.0088 247.542 99.0169 247.542 99.0332C247.558 99.0332 247.566 99.0495 247.566 99.082C247.583 99.0983 247.591 99.1146 247.591 99.1309ZM261.312 113.047C259.456 113.047 257.82 112.55 256.404 111.558C255.656 111.037 255.053 110.459 254.598 109.824C254.093 109.059 253.825 108.302 253.792 107.554C254.004 106.577 254.435 106.089 255.086 106.089C255.118 106.089 255.314 106.105 255.672 106.138C256.046 106.154 256.6 106.463 257.332 107.065C257.641 107.489 257.967 107.847 258.309 108.14L258.455 108.262C258.667 108.441 258.886 108.587 259.114 108.701C259.847 109.124 260.563 109.336 261.263 109.336C261.93 109.336 262.524 109.1 263.045 108.628L263.167 108.164C263.183 108.083 263.191 107.993 263.191 107.896C263.191 107.586 263.029 107.204 262.703 106.748C262.459 106.406 262.044 106.007 261.458 105.552L261.214 105.332L260.53 104.819L259.603 104.16L259.236 103.94C259.008 103.794 258.764 103.647 258.504 103.501C258.309 103.403 257.926 103.159 257.356 102.769L257.234 102.671C256.876 102.427 256.526 102.158 256.185 101.865C255.42 101.198 254.809 100.425 254.354 99.5459C253.914 98.667 253.694 97.7148 253.694 96.6895C253.694 95.6315 253.979 94.5898 254.549 93.5645C255.102 92.6042 255.802 91.8555 256.648 91.3184C257.511 90.765 258.528 90.4883 259.7 90.4883C260.856 90.4883 261.881 90.8057 262.776 91.4404C263.379 91.9287 263.826 92.5146 264.119 93.1982C264.363 93.7191 264.485 94.2399 264.485 94.7607C264.485 95.4769 264.249 96.1198 263.777 96.6895C263.273 97.1289 262.841 97.3486 262.483 97.3486C262.467 97.3486 262.361 97.3405 262.166 97.3242C261.971 97.3079 261.621 96.9906 261.116 96.3721C261.051 96.2907 261.019 96.2012 261.019 96.1035V95.7617V95.4199C261.019 95.2734 261.01 95.1921 260.994 95.1758C260.945 95.0781 260.913 95.0212 260.896 95.0049C260.88 94.9723 260.864 94.9479 260.848 94.9316C260.831 94.9154 260.815 94.8991 260.799 94.8828C260.473 94.541 260.172 94.3701 259.896 94.3701C259.326 94.3701 258.878 94.6875 258.553 95.3223C258.357 95.7454 258.26 96.1361 258.26 96.4941C258.26 96.7057 258.309 96.9255 258.406 97.1533C258.569 97.6253 259.017 98.138 259.749 98.6914C259.863 98.8053 260.188 99.0251 260.726 99.3506C260.856 99.4157 260.978 99.4889 261.092 99.5703L262.239 100.254C263.232 100.905 263.867 101.344 264.144 101.572C264.974 102.223 265.649 102.866 266.17 103.501C267.195 104.803 267.708 106.203 267.708 107.7C267.708 108.107 267.659 108.514 267.562 108.921C267.122 110.744 265.942 111.989 264.021 112.656C263.159 112.917 262.256 113.047 261.312 113.047ZM269.124 100.938C268.782 101.133 268.538 101.418 268.392 101.792C268.261 102.15 268.278 102.476 268.44 102.769C268.668 103.159 269.051 103.468 269.588 103.696C270.141 103.908 270.996 104.095 272.151 104.258C273.112 104.372 274.666 104.478 276.814 104.575C278.979 104.673 281.054 104.738 283.04 104.771C285.042 104.803 286.263 104.787 286.702 104.722C287.093 104.608 287.443 104.396 287.752 104.087C288.061 103.761 288.216 103.452 288.216 103.159C288.216 103.013 288.159 102.842 288.045 102.646C287.947 102.451 287.825 102.28 287.679 102.134C287.532 101.987 287.337 101.873 287.093 101.792C286.849 101.711 286.425 101.646 285.823 101.597C285.221 101.548 284.301 101.499 283.064 101.45C281.893 101.385 280.542 101.304 279.012 101.206C277.482 101.108 276.123 101.011 274.935 100.913C273.714 100.815 272.754 100.742 272.054 100.693C271.354 100.645 270.825 100.62 270.467 100.62C270.109 100.62 269.84 100.645 269.661 100.693C269.482 100.742 269.303 100.824 269.124 100.938ZM295.442 110.093C294.466 110.093 293.595 109.808 292.83 109.238C291.886 108.538 291.154 107.358 290.633 105.698C290.372 104.966 290.177 104.144 290.047 103.232C290.031 103.07 290.006 102.915 289.974 102.769L289.852 101.816C289.852 101.621 289.835 101.426 289.803 101.23C289.721 100.531 289.681 99.3994 289.681 97.8369L289.729 97.0068C289.746 96.4535 289.786 95.8919 289.852 95.3223C289.917 94.7526 289.965 94.4189 289.998 94.3213C289.77 94.3213 289.314 94.4271 288.631 94.6387L288.118 94.7607L287.801 94.7852C287.638 94.6875 287.459 94.598 287.264 94.5166C286.515 94.2562 286.141 93.9388 286.141 93.5645C286.141 93.3203 286.417 93.0029 286.971 92.6123L287.02 92.5879C287.719 92.1647 288.59 91.8066 289.632 91.5137C290.153 91.3835 290.47 91.3184 290.584 91.3184L290.608 91.1719L290.755 90.6592C290.869 89.9919 291.056 89.3896 291.316 88.8525C291.756 87.9899 292.277 87.5586 292.879 87.5586C293.676 87.5749 294.376 88.1283 294.979 89.2188L294.856 89.8047L294.686 90.6104L294.612 90.9033C294.612 90.9359 294.604 90.9603 294.588 90.9766L294.832 91.001C295.353 91.001 295.784 91.0091 296.126 91.0254C296.468 91.0417 296.801 91.0742 297.127 91.123C297.811 91.1556 298.38 91.2451 298.836 91.3916C299.145 91.6195 299.3 91.9043 299.3 92.2461C299.3 92.3112 299.275 92.4821 299.227 92.7588C299.178 93.0192 298.974 93.3366 298.616 93.7109C298.258 94.0853 297.851 94.305 297.396 94.3701L296.663 94.2969C295.866 94.1992 295.288 94.1423 294.93 94.126L294.148 94.1016L294.124 94.2236C294.091 94.6143 294.051 94.9967 294.002 95.3711C294.002 95.599 293.986 95.7943 293.953 95.957C293.872 97.015 293.831 97.7311 293.831 98.1055L293.782 98.6914C293.782 100.124 293.807 101.076 293.855 101.548C293.855 101.743 293.888 102.166 293.953 102.817C294.018 103.175 294.075 103.525 294.124 103.867C294.189 104.209 294.262 104.535 294.344 104.844C294.458 105.348 294.637 105.828 294.881 106.284C295.125 106.724 295.418 106.943 295.76 106.943C296.053 106.943 296.37 106.65 296.712 106.064C296.875 105.804 296.972 105.625 297.005 105.527C297.33 104.714 297.672 104.307 298.03 104.307C298.437 104.307 298.689 105.039 298.787 106.504C298.771 106.536 298.763 106.577 298.763 106.626V106.772C298.763 107.31 298.559 107.936 298.152 108.652C297.827 109.141 297.444 109.507 297.005 109.751C296.565 109.979 296.045 110.093 295.442 110.093ZM294.588 94.1016C294.458 94.1016 294.336 94.0934 294.222 94.0771H294.148V94.1016H294.588ZM307.771 111.313C306.225 111.313 304.817 110.858 303.548 109.946C302.767 109.295 302.099 108.514 301.546 107.603L301.326 107.188C300.691 106.081 300.228 104.681 299.935 102.988C299.869 102.386 299.821 101.792 299.788 101.206C299.788 99.9202 299.894 98.7484 300.105 97.6904C300.35 96.3232 300.838 94.8421 301.57 93.2471C302.189 92.0101 302.734 91.1719 303.206 90.7324C303.32 90.651 303.475 90.6104 303.67 90.6104C304.272 90.6104 304.939 90.887 305.672 91.4404C306.421 91.9775 306.795 92.5146 306.795 93.0518C306.795 93.3285 306.673 93.6051 306.429 93.8818C306.119 94.5817 305.859 95.363 305.647 96.2256C305.403 97.2347 305.257 98.2275 305.208 99.2041L305.184 100.034C305.184 100.913 305.257 101.678 305.403 102.329C305.517 103.045 305.615 103.444 305.696 103.525C305.973 104.339 306.242 104.982 306.502 105.454C307.072 106.366 307.706 106.821 308.406 106.821C309.025 106.821 309.798 106.398 310.726 105.552C311.181 105.063 311.539 104.567 311.8 104.062C312.125 103.509 312.369 102.915 312.532 102.28C312.793 101.434 312.923 100.579 312.923 99.7168C312.923 98.9681 312.866 98.195 312.752 97.3975L312.728 97.3242C312.614 96.6406 312.435 95.9245 312.19 95.1758C311.914 94.2969 311.678 93.654 311.482 93.2471L311.238 92.7344C311.076 92.4414 310.994 92.1973 310.994 92.002C310.994 91.4811 311.214 91.0498 311.653 90.708C312.093 90.3499 312.63 90.1709 313.265 90.1709C314.404 90.1709 315.039 90.7568 315.169 91.9287L315.584 93.1006L315.95 94.3457C316.341 95.9733 316.569 97.2184 316.634 98.0811L316.707 99.79C316.707 100.848 316.544 101.971 316.219 103.159L315.828 104.355L315.706 104.648C315.299 105.69 314.738 106.683 314.021 107.627C312.866 109.157 311.588 110.215 310.188 110.801C309.407 111.143 308.602 111.313 307.771 111.313ZM337.85 113.657H337.728C336.604 113.657 335.913 112.046 335.652 108.823C334.562 109.425 333.366 109.727 332.063 109.727C329.964 109.727 328.304 108.978 327.083 107.48C326.351 106.585 325.887 105.56 325.691 104.404C325.577 103.818 325.521 103.127 325.521 102.329C325.521 100.783 325.813 99.2367 326.399 97.6904C326.871 96.6162 327.417 95.721 328.035 95.0049C329.402 93.5075 331.079 92.7588 333.064 92.7588C333.39 92.7588 333.715 92.7751 334.041 92.8076L335.188 93.0762C335.188 92.3763 335.197 91.8066 335.213 91.3672C335.245 90.9277 335.262 90.5046 335.262 90.0977C335.294 89.0234 335.384 87.7051 335.53 86.1426C335.628 85.0358 335.783 83.9697 335.994 82.9443C336.141 82.3096 336.271 81.9027 336.385 81.7236C336.417 81.512 336.507 81.3411 336.653 81.2109C336.963 80.9342 337.345 80.7959 337.801 80.7959C338.24 80.7959 338.606 80.9668 338.899 81.3086C339.013 81.4876 339.087 81.6829 339.119 81.8945L339.144 82.041C339.225 82.3991 339.282 82.7653 339.314 83.1396C339.363 83.7256 339.388 84.4906 339.388 85.4346L339.363 86.3135C339.331 87.4528 339.314 88.5596 339.314 89.6338C339.298 90.0407 339.29 90.6185 339.29 91.3672V97.3486C339.29 98.0811 339.298 98.6833 339.314 99.1553V102.939L339.412 107.993L339.461 109.604C339.461 112.192 338.924 113.543 337.85 113.657ZM332.332 105.576C332.397 105.576 332.454 105.568 332.503 105.552C332.649 105.552 332.747 105.544 332.796 105.527H332.674C333.081 105.495 333.593 105.348 334.212 105.088C334.31 105.039 334.415 104.998 334.529 104.966C334.985 104.754 335.245 104.616 335.311 104.551H335.335C335.319 104.03 335.294 103.517 335.262 103.013C335.197 101.727 335.164 99.9772 335.164 97.7637V97.2998C335.132 97.2998 335.099 97.2835 335.066 97.251C334.301 96.8115 333.61 96.5918 332.991 96.5918C332.356 96.5918 331.795 96.8441 331.307 97.3486C330.867 97.7881 330.517 98.3252 330.257 98.96C330.029 99.4971 329.915 99.8714 329.915 100.083C329.752 100.734 329.671 101.401 329.671 102.085C329.671 102.703 329.744 103.241 329.891 103.696C330.249 104.771 330.802 105.381 331.551 105.527H332.674L332.576 105.552L332.161 105.576L331.648 105.552C331.762 105.568 331.933 105.576 332.161 105.576H332.332ZM341.512 79.7217C341.219 81.4469 341.023 82.7734 340.926 83.7012C340.828 84.6289 340.804 85.4183 340.853 86.0693C340.901 86.7041 340.999 87.4609 341.146 88.3398C341.178 88.5189 341.211 88.7061 341.243 88.9014C341.422 89.1455 341.65 89.3571 341.927 89.5361C342.203 89.6989 342.448 89.7803 342.659 89.7803C343.099 89.7803 343.587 89.528 344.124 89.0234C344.661 88.5026 345.052 87.9167 345.296 87.2656C345.54 85.8822 345.589 84.3604 345.442 82.7002C345.296 81.04 344.954 79.6729 344.417 78.5986C344.01 78.3219 343.514 78.2975 342.928 78.5254C342.358 78.7533 341.886 79.152 341.512 79.7217ZM360.75 115.635C360.62 115.635 360.498 115.627 360.384 115.61C360.27 115.594 360.091 115.464 359.847 115.22L359.603 114.854C359.293 114.43 358.992 113.747 358.699 112.803C358.683 112.705 358.659 112.616 358.626 112.534C358.3 111.297 358.048 109.93 357.869 108.433C357.837 108.156 357.82 107.887 357.82 107.627L357.747 107.725C356.803 109.076 355.77 110.068 354.646 110.703H354.622C353.776 111.191 352.881 111.436 351.937 111.436C350.504 111.436 349.3 110.898 348.323 109.824C347.119 108.555 346.517 106.659 346.517 104.136C346.647 101.629 347.371 99.3262 348.689 97.2266C349.373 96.1198 350.105 95.2327 350.887 94.5654C350.887 94.484 351.294 94.1748 352.107 93.6377C353.247 92.9541 354.541 92.6042 355.989 92.5879C357.031 92.5879 357.918 92.832 358.65 93.3203C358.813 93.4017 359.017 93.5645 359.261 93.8086C359.261 93.8249 359.269 93.833 359.285 93.833C359.676 94.2562 359.871 94.6794 359.871 95.1025C359.871 95.3141 359.855 95.4525 359.822 95.5176C359.79 95.5827 359.741 95.6559 359.676 95.7373C359.383 96.0791 358.593 96.25 357.308 96.25H356.99C356.16 96.25 355.403 96.3639 354.72 96.5918C353.825 97.0964 353.019 97.8939 352.303 98.9844C351.277 100.693 350.732 102.451 350.667 104.258C350.667 105.007 350.781 105.69 351.009 106.309C351.253 107.008 351.627 107.358 352.132 107.358C352.588 107.358 353.271 106.943 354.183 106.113C354.183 106.097 354.191 106.089 354.207 106.089C354.614 105.715 355.216 105.031 356.014 104.038L356.551 103.379C356.697 103.151 356.852 102.939 357.015 102.744C357.177 102.549 357.324 102.345 357.454 102.134L357.771 101.646C357.771 101.385 357.804 101.092 357.869 100.767C357.934 100.295 358.024 99.8551 358.138 99.4482L358.357 99.0332C358.52 98.724 358.895 98.5693 359.48 98.5693C359.643 98.5693 359.855 98.5856 360.115 98.6182C360.701 98.7158 360.994 98.9193 360.994 99.2285L360.97 99.375C360.97 99.3913 360.978 99.4076 360.994 99.4238C361.027 99.4401 361.076 99.4808 361.141 99.5459C361.206 99.6598 361.238 99.847 361.238 100.107L361.214 100.791L361.189 103.257C361.189 104.478 361.222 105.446 361.287 106.162C361.287 106.455 361.336 107.106 361.434 108.115C361.564 109.092 361.661 109.702 361.727 109.946C361.906 111.053 362.125 112.046 362.386 112.925L362.459 113.169C362.573 113.446 362.638 113.722 362.654 113.999C362.654 114.618 362.41 115.065 361.922 115.342C361.564 115.537 361.173 115.635 360.75 115.635ZM357.063 99.1309C357.047 99.1146 357.023 99.1064 356.99 99.1064C356.974 99.1064 356.958 99.1064 356.941 99.1064C356.925 99.1064 356.917 99.0983 356.917 99.082L356.99 99.0088C357.007 99.0088 357.015 99.0169 357.015 99.0332C357.031 99.0332 357.039 99.0495 357.039 99.082C357.055 99.0983 357.063 99.1146 357.063 99.1309ZM371.15 111.313C369.604 111.313 368.196 110.858 366.927 109.946C366.146 109.295 365.478 108.514 364.925 107.603L364.705 107.188C364.07 106.081 363.606 104.681 363.313 102.988C363.248 102.386 363.2 101.792 363.167 101.206C363.167 99.9202 363.273 98.7484 363.484 97.6904C363.729 96.3232 364.217 94.8421 364.949 93.2471C365.568 92.0101 366.113 91.1719 366.585 90.7324C366.699 90.651 366.854 90.6104 367.049 90.6104C367.651 90.6104 368.318 90.887 369.051 91.4404C369.799 91.9775 370.174 92.5146 370.174 93.0518C370.174 93.3285 370.052 93.6051 369.808 93.8818C369.498 94.5817 369.238 95.363 369.026 96.2256C368.782 97.2347 368.636 98.2275 368.587 99.2041L368.562 100.034C368.562 100.913 368.636 101.678 368.782 102.329C368.896 103.045 368.994 103.444 369.075 103.525C369.352 104.339 369.62 104.982 369.881 105.454C370.451 106.366 371.085 106.821 371.785 106.821C372.404 106.821 373.177 106.398 374.104 105.552C374.56 105.063 374.918 104.567 375.179 104.062C375.504 103.509 375.748 102.915 375.911 102.28C376.172 101.434 376.302 100.579 376.302 99.7168C376.302 98.9681 376.245 98.195 376.131 97.3975L376.106 97.3242C375.993 96.6406 375.813 95.9245 375.569 95.1758C375.293 94.2969 375.057 93.654 374.861 93.2471L374.617 92.7344C374.454 92.4414 374.373 92.1973 374.373 92.002C374.373 91.4811 374.593 91.0498 375.032 90.708C375.472 90.3499 376.009 90.1709 376.644 90.1709C377.783 90.1709 378.418 90.7568 378.548 91.9287L378.963 93.1006L379.329 94.3457C379.72 95.9733 379.948 97.2184 380.013 98.0811L380.086 99.79C380.086 100.848 379.923 101.971 379.598 103.159L379.207 104.355L379.085 104.648C378.678 105.69 378.117 106.683 377.4 107.627C376.245 109.157 374.967 110.215 373.567 110.801C372.786 111.143 371.98 111.313 371.15 111.313ZM387.337 110.093C386.36 110.093 385.49 109.808 384.725 109.238C383.781 108.538 383.048 107.358 382.527 105.698C382.267 104.966 382.072 104.144 381.941 103.232C381.925 103.07 381.901 102.915 381.868 102.769L381.746 101.816C381.746 101.621 381.73 101.426 381.697 101.23C381.616 100.531 381.575 99.3994 381.575 97.8369L381.624 97.0068C381.64 96.4535 381.681 95.8919 381.746 95.3223C381.811 94.7526 381.86 94.4189 381.893 94.3213C381.665 94.3213 381.209 94.4271 380.525 94.6387L380.013 94.7607L379.695 94.7852C379.533 94.6875 379.354 94.598 379.158 94.5166C378.41 94.2562 378.035 93.9388 378.035 93.5645C378.035 93.3203 378.312 93.0029 378.865 92.6123L378.914 92.5879C379.614 92.1647 380.485 91.8066 381.526 91.5137C382.047 91.3835 382.365 91.3184 382.479 91.3184L382.503 91.1719L382.649 90.6592C382.763 89.9919 382.951 89.3896 383.211 88.8525C383.65 87.9899 384.171 87.5586 384.773 87.5586C385.571 87.5749 386.271 88.1283 386.873 89.2188L386.751 89.8047L386.58 90.6104L386.507 90.9033C386.507 90.9359 386.499 90.9603 386.482 90.9766L386.727 91.001C387.247 91.001 387.679 91.0091 388.021 91.0254C388.362 91.0417 388.696 91.0742 389.021 91.123C389.705 91.1556 390.275 91.2451 390.73 91.3916C391.04 91.6195 391.194 91.9043 391.194 92.2461C391.194 92.3112 391.17 92.4821 391.121 92.7588C391.072 93.0192 390.869 93.3366 390.511 93.7109C390.153 94.0853 389.746 94.305 389.29 94.3701L388.558 94.2969C387.76 94.1992 387.182 94.1423 386.824 94.126L386.043 94.1016L386.019 94.2236C385.986 94.6143 385.945 94.9967 385.896 95.3711C385.896 95.599 385.88 95.7943 385.848 95.957C385.766 97.015 385.726 97.7311 385.726 98.1055L385.677 98.6914C385.677 100.124 385.701 101.076 385.75 101.548C385.75 101.743 385.783 102.166 385.848 102.817C385.913 103.175 385.97 103.525 386.019 103.867C386.084 104.209 386.157 104.535 386.238 104.844C386.352 105.348 386.531 105.828 386.775 106.284C387.02 106.724 387.312 106.943 387.654 106.943C387.947 106.943 388.265 106.65 388.606 106.064C388.769 105.804 388.867 105.625 388.899 105.527C389.225 104.714 389.567 104.307 389.925 104.307C390.332 104.307 390.584 105.039 390.682 106.504C390.665 106.536 390.657 106.577 390.657 106.626V106.772C390.657 107.31 390.454 107.936 390.047 108.652C389.721 109.141 389.339 109.507 388.899 109.751C388.46 109.979 387.939 110.093 387.337 110.093ZM386.482 94.1016C386.352 94.1016 386.23 94.0934 386.116 94.0771H386.043V94.1016H386.482ZM396.321 110.605C396.142 110.605 395.849 110.557 395.442 110.459C394.775 110.264 394.238 109.255 393.831 107.432L393.44 105.576L393.074 103.696C392.977 103.208 392.83 102.378 392.635 101.206C392.439 100.099 392.277 98.9844 392.146 97.8613C392.098 97.2266 392.041 96.5999 391.976 95.9814C391.829 94.2236 391.731 92.6855 391.683 91.3672V90.3174C391.748 89.7965 392.008 89.4141 392.464 89.1699C392.92 88.9095 393.44 88.7793 394.026 88.7793C394.629 88.7793 395.149 88.9095 395.589 89.1699C396.045 89.4141 396.297 89.7803 396.346 90.2686C396.346 90.4476 396.354 90.6104 396.37 90.7568C396.386 90.9033 396.395 91.0579 396.395 91.2207C396.411 91.3835 396.427 91.5462 396.443 91.709L396.517 92.417L396.614 93.7109L396.688 93.6133C397.42 92.6693 398.128 92.0182 398.812 91.6602C399.3 91.3997 399.869 91.2695 400.521 91.2695C401.465 91.2695 402.352 91.5137 403.182 92.002C403.979 92.5879 404.541 93.1006 404.866 93.54C405.192 93.9632 405.509 94.5573 405.818 95.3223L406.233 96.5918L406.551 98.0078C406.632 98.4473 406.673 98.9274 406.673 99.4482C406.673 99.8063 406.608 100.148 406.478 100.474C406.412 100.734 406.258 100.921 406.014 101.035C405.786 101.149 405.623 101.247 405.525 101.328L405.184 101.597L403.938 101.743C403.808 101.646 403.686 101.572 403.572 101.523L402.938 101.328C402.84 101.312 402.758 101.287 402.693 101.255C402.645 101.222 402.547 101.108 402.4 100.913C402.042 100.392 401.798 99.6436 401.668 98.667C401.619 98.1787 401.538 97.6986 401.424 97.2266L401.326 96.8115C401.082 95.7699 400.683 95.249 400.13 95.249C399.576 95.249 398.95 95.7536 398.25 96.7627C397.908 97.2998 397.705 97.6986 397.64 97.959C397.412 98.3984 397.273 98.7158 397.225 98.9111L397.176 98.9844C397.208 99.1146 397.225 99.2367 397.225 99.3506L397.591 102.231L397.713 103.086L397.835 104.111L397.957 104.941C397.957 104.99 397.965 105.031 397.981 105.063C398.226 106.772 398.348 107.944 398.348 108.579C398.266 109.36 397.965 109.922 397.444 110.264C397.086 110.492 396.712 110.605 396.321 110.605ZM414.192 110.972C413.248 110.972 412.304 110.768 411.36 110.361C410.335 109.906 409.48 109.214 408.797 108.286C407.706 106.707 407.161 104.689 407.161 102.231C407.161 100.75 407.34 99.3018 407.698 97.8857C408.056 96.5674 408.512 95.4199 409.065 94.4434C409.635 93.4668 410.335 92.5716 411.165 91.7578C412.011 90.9277 412.898 90.2686 413.826 89.7803C414.77 89.292 415.698 88.9909 416.609 88.877H417.977C418.416 88.8932 418.855 88.9665 419.295 89.0967C421.085 89.764 422.233 91.001 422.737 92.8076C422.9 93.361 422.981 93.9714 422.981 94.6387C422.981 95.7617 422.737 96.8441 422.249 97.8857C421.907 98.6833 421.378 99.5133 420.662 100.376C420.516 100.604 420.174 100.97 419.637 101.475C417.863 103.021 416.105 104.095 414.363 104.697C413.484 104.99 412.679 105.153 411.946 105.186C411.963 105.202 411.979 105.234 411.995 105.283C412.011 105.332 412.028 105.389 412.044 105.454C412.174 105.731 412.345 105.991 412.557 106.235C413.11 106.854 413.704 107.163 414.339 107.163C414.957 107.163 415.56 106.992 416.146 106.65C416.487 106.471 416.813 106.284 417.122 106.089C417.627 105.763 417.92 105.56 418.001 105.479C418.489 105.039 418.994 104.681 419.515 104.404L419.686 104.307C419.946 104.258 420.198 104.233 420.442 104.233C420.784 104.233 421.15 104.307 421.541 104.453C421.948 104.583 422.192 105.023 422.273 105.771C422.176 106.178 422.005 106.561 421.761 106.919C421.533 107.277 421.256 107.603 420.931 107.896C419.417 109.263 417.692 110.231 415.755 110.801C415.234 110.915 414.713 110.972 414.192 110.972ZM411.434 102.329C411.466 102.329 411.491 102.321 411.507 102.305C411.67 102.305 412.02 102.207 412.557 102.012C413.875 101.458 415.242 100.514 416.658 99.1797C417.244 98.5775 417.708 98.0078 418.05 97.4707C418.571 96.5267 418.839 95.6478 418.855 94.834C418.855 94.3457 418.709 93.833 418.416 93.2959C418.27 93.068 418.099 92.9297 417.903 92.8809H418.001H417.537H417.879C417.732 92.832 417.529 92.8076 417.269 92.8076C416.992 92.8402 416.854 92.8646 416.854 92.8809H417.537C416.951 92.8809 416.259 93.1331 415.462 93.6377C414.03 94.6143 412.98 95.9001 412.312 97.4951C411.727 98.8786 411.434 100.49 411.434 102.329ZM431.087 113.047C429.231 113.047 427.596 112.55 426.18 111.558C425.431 111.037 424.829 110.459 424.373 109.824C423.868 109.059 423.6 108.302 423.567 107.554C423.779 106.577 424.21 106.089 424.861 106.089C424.894 106.089 425.089 106.105 425.447 106.138C425.822 106.154 426.375 106.463 427.107 107.065C427.417 107.489 427.742 107.847 428.084 108.14L428.23 108.262C428.442 108.441 428.662 108.587 428.89 108.701C429.622 109.124 430.338 109.336 431.038 109.336C431.705 109.336 432.299 109.1 432.82 108.628L432.942 108.164C432.959 108.083 432.967 107.993 432.967 107.896C432.967 107.586 432.804 107.204 432.479 106.748C432.234 106.406 431.819 106.007 431.233 105.552L430.989 105.332L430.306 104.819L429.378 104.16L429.012 103.94C428.784 103.794 428.54 103.647 428.279 103.501C428.084 103.403 427.701 103.159 427.132 102.769L427.01 102.671C426.652 102.427 426.302 102.158 425.96 101.865C425.195 101.198 424.585 100.425 424.129 99.5459C423.689 98.667 423.47 97.7148 423.47 96.6895C423.47 95.6315 423.755 94.5898 424.324 93.5645C424.878 92.6042 425.577 91.8555 426.424 91.3184C427.286 90.765 428.304 90.4883 429.476 90.4883C430.631 90.4883 431.657 90.8057 432.552 91.4404C433.154 91.9287 433.602 92.5146 433.895 93.1982C434.139 93.7191 434.261 94.2399 434.261 94.7607C434.261 95.4769 434.025 96.1198 433.553 96.6895C433.048 97.1289 432.617 97.3486 432.259 97.3486C432.243 97.3486 432.137 97.3405 431.941 97.3242C431.746 97.3079 431.396 96.9906 430.892 96.3721C430.826 96.2907 430.794 96.2012 430.794 96.1035V95.7617V95.4199C430.794 95.2734 430.786 95.1921 430.77 95.1758C430.721 95.0781 430.688 95.0212 430.672 95.0049C430.656 94.9723 430.639 94.9479 430.623 94.9316C430.607 94.9154 430.59 94.8991 430.574 94.8828C430.249 94.541 429.948 94.3701 429.671 94.3701C429.101 94.3701 428.654 94.6875 428.328 95.3223C428.133 95.7454 428.035 96.1361 428.035 96.4941C428.035 96.7057 428.084 96.9255 428.182 97.1533C428.344 97.6253 428.792 98.138 429.524 98.6914C429.638 98.8053 429.964 99.0251 430.501 99.3506C430.631 99.4157 430.753 99.4889 430.867 99.5703L432.015 100.254C433.007 100.905 433.642 101.344 433.919 101.572C434.749 102.223 435.424 102.866 435.945 103.501C436.971 104.803 437.483 106.203 437.483 107.7C437.483 108.107 437.435 108.514 437.337 108.921C436.897 110.744 435.717 111.989 433.797 112.656C432.934 112.917 432.031 113.047 431.087 113.047ZM448.958 113.633C448.746 113.633 448.478 113.568 448.152 113.438C447.632 113.258 447.168 111.956 446.761 109.531C446.598 108.49 446.468 107.35 446.37 106.113C446.305 105.251 446.272 104.38 446.272 103.501C446.272 102.362 446.313 101.239 446.395 100.132C446.508 98.6507 446.647 97.4219 446.81 96.4453C446.972 95.3711 447.233 94.3376 447.591 93.3447C448.356 91.2288 449.487 89.8698 450.984 89.2676C451.505 89.0885 451.985 88.999 452.425 88.999C453.58 88.999 454.638 89.5361 455.599 90.6104C456.51 91.6357 457.267 93.2796 457.869 95.542L457.894 95.6152C458.154 94.8991 458.512 94.1585 458.968 93.3936C459.814 92.0426 460.864 91.0335 462.117 90.3662C462.801 90.0407 463.46 89.8779 464.095 89.8779C464.567 89.8779 465.031 89.9756 465.486 90.1709C466.17 90.5127 466.699 90.9847 467.073 91.5869C467.448 92.1891 467.716 92.8564 467.879 93.5889C467.993 94.0446 468.09 94.8014 468.172 95.8594L468.196 97.1289V98.4961C468.196 98.9518 468.172 99.9365 468.123 101.45C468.107 101.564 468.099 101.686 468.099 101.816L467.977 104.551L467.952 105.771C467.952 107.367 467.863 108.481 467.684 109.116C467.342 110.109 466.813 110.605 466.097 110.605C465.413 110.605 464.909 110.117 464.583 109.141C464.453 108.652 464.38 108.156 464.363 107.651L464.339 105.796L464.363 104.478C464.363 103.875 464.38 103.346 464.412 102.891L464.461 101.328C464.51 100.84 464.534 99.8958 464.534 98.4961C464.518 95.6315 464.241 94.1992 463.704 94.1992C463.379 94.1992 462.947 94.8258 462.41 96.0791C462.117 96.6488 461.865 97.2266 461.653 97.8125L461.531 98.1543C461.271 99.0332 461.035 99.904 460.823 100.767C460.742 101.076 460.595 101.808 460.384 102.964C460.27 103.534 460.164 104.111 460.066 104.697C460.018 105.055 459.961 105.405 459.896 105.747C459.863 105.877 459.814 106.17 459.749 106.626C459.716 106.838 459.66 107.049 459.578 107.261C459.48 107.635 459.253 107.904 458.895 108.066L457.479 108.286C456.909 108.237 456.51 107.725 456.282 106.748C455.908 103.786 455.257 100.807 454.329 97.8125L454.231 97.4463C453.971 96.5186 453.735 95.7617 453.523 95.1758C453.149 94.4271 452.824 94.0527 452.547 94.0527C452.14 94.0527 451.798 94.8828 451.521 96.543C451.18 98.2357 450.976 100.14 450.911 102.256L450.887 102.744C450.887 103.2 450.895 103.647 450.911 104.087C450.976 106.219 451.041 107.464 451.106 107.822C451.237 109.271 451.359 110.418 451.473 111.265L451.595 111.948C451.562 112.127 451.367 112.38 451.009 112.705C450.667 113.014 450.244 113.267 449.739 113.462C449.463 113.576 449.202 113.633 448.958 113.633ZM475.813 111.069C474.511 111.069 473.299 110.662 472.176 109.849C471.329 109.198 470.67 108.368 470.198 107.358C469.189 105.454 468.685 103.363 468.685 101.084C468.685 99.7493 468.872 98.4229 469.246 97.1045C469.279 97.0394 469.303 96.9661 469.319 96.8848C469.45 96.4128 469.612 95.9489 469.808 95.4932C471.093 93.0518 472.868 91.8311 475.13 91.8311C476.058 91.8311 476.969 92.0508 477.864 92.4902C478.759 92.9297 479.541 93.5726 480.208 94.4189C481.412 95.9489 482.177 97.7148 482.503 99.7168C482.584 100.238 482.625 100.84 482.625 101.523C482.625 101.914 482.601 102.313 482.552 102.72C482.454 103.778 482.251 104.746 481.941 105.625C481.535 106.65 481.128 107.48 480.721 108.115C480.216 108.896 479.59 109.564 478.841 110.117C477.864 110.752 476.855 111.069 475.813 111.069ZM475.716 106.992C475.797 106.992 475.976 106.935 476.253 106.821C476.53 106.707 476.92 106.195 477.425 105.283C477.588 105.023 477.726 104.746 477.84 104.453V104.404C478.133 103.639 478.32 102.964 478.401 102.378L478.426 102.305C478.475 102.028 478.499 101.759 478.499 101.499C478.499 100.994 478.466 100.555 478.401 100.181C478.304 99.5133 478.084 98.846 477.742 98.1787C477.417 97.4951 477.075 96.9661 476.717 96.5918C476.001 95.9733 475.439 95.6641 475.032 95.6641C474.593 95.6641 474.194 96.0628 473.836 96.8604C473.494 97.6579 473.258 98.5124 473.128 99.4238C473.03 99.9935 472.981 100.571 472.981 101.157C472.981 102.752 473.38 104.282 474.178 105.747C474.78 106.577 475.293 106.992 475.716 106.992ZM493.758 123.911C492.716 123.911 491.642 123.651 490.535 123.13C490.031 122.869 489.567 122.544 489.144 122.153C489.111 122.104 489.07 122.064 489.021 122.031C488.81 121.803 488.615 121.559 488.436 121.299C487.768 120.306 487.435 119.37 487.435 118.491C487.435 118.019 487.516 117.555 487.679 117.1C488.151 116.383 488.737 116.025 489.437 116.025C489.485 116.025 489.713 116.042 490.12 116.074C490.527 116.107 490.958 116.546 491.414 117.393C491.447 117.523 491.471 117.661 491.487 117.808V118.149C491.927 119.468 492.61 120.127 493.538 120.127C493.587 120.127 493.872 120.103 494.393 120.054C494.93 120.021 495.288 119.191 495.467 117.563L495.491 116.953C495.491 115.911 495.451 115.033 495.369 114.316C495.369 114.186 495.337 113.73 495.271 112.949L494.93 109.946L494.856 109.458C494.466 110.076 493.961 110.597 493.343 111.021C492.513 111.606 491.618 111.899 490.657 111.899C489.371 111.899 488.224 111.558 487.215 110.874C486.417 110.304 485.75 109.588 485.213 108.726L485.14 108.628C484.472 107.489 483.935 106.073 483.528 104.38C483.268 103.208 483.138 102.02 483.138 100.815L483.162 99.0576C483.227 97.9671 483.357 96.9092 483.553 95.8838C484.188 93.4587 485.221 92.2461 486.653 92.2461C487.109 92.2461 487.524 92.4251 487.898 92.7832C488.338 93.1901 488.558 93.7679 488.558 94.5166C488.558 94.8584 488.509 95.2327 488.411 95.6396C488.281 96.0303 488.143 96.7627 487.996 97.8369C487.915 98.8786 487.874 99.6842 487.874 100.254C487.874 100.71 487.915 101.369 487.996 102.231C488.029 102.687 488.094 103.143 488.191 103.599C488.322 104.266 488.566 105.039 488.924 105.918L488.997 106.04C489.55 107.293 490.169 107.92 490.853 107.92C491.357 107.92 492.016 107.432 492.83 106.455L493.27 105.918C493.497 105.658 493.709 105.397 493.904 105.137L494.246 104.673V104.648C494.181 103.9 494.035 102.695 493.807 101.035C493.693 100.205 493.579 99.1064 493.465 97.7393L493.343 96.2744L493.294 95.9082L493.221 94.248C493.221 94.1341 493.213 94.0283 493.196 93.9307C493.229 93.2145 493.465 92.6774 493.904 92.3193C494.344 91.945 494.889 91.7578 495.54 91.7578C496.028 91.7578 496.476 91.9206 496.883 92.2461C497.306 92.5553 497.526 93.0436 497.542 93.7109C497.575 93.9062 497.599 94.0934 497.615 94.2725C497.632 94.4352 497.648 94.5898 497.664 94.7363L497.762 95.542L497.786 95.9814L498.104 98.9355C498.185 99.4889 498.25 100.059 498.299 100.645C498.364 101.214 498.437 101.792 498.519 102.378L498.543 102.695C498.868 105.218 499.08 106.903 499.178 107.749L499.715 112.607L499.837 114.023C499.902 114.723 499.935 115.57 499.935 116.562C499.935 117.93 499.788 119.053 499.495 119.932C499.267 120.68 498.966 121.315 498.592 121.836C498.022 122.601 497.151 123.179 495.979 123.569C495.589 123.716 495.068 123.822 494.417 123.887L493.758 123.911ZM507.454 110.972C506.51 110.972 505.566 110.768 504.622 110.361C503.597 109.906 502.742 109.214 502.059 108.286C500.968 106.707 500.423 104.689 500.423 102.231C500.423 100.75 500.602 99.3018 500.96 97.8857C501.318 96.5674 501.774 95.4199 502.327 94.4434C502.897 93.4668 503.597 92.5716 504.427 91.7578C505.273 90.9277 506.16 90.2686 507.088 89.7803C508.032 89.292 508.96 88.9909 509.871 88.877H511.238C511.678 88.8932 512.117 88.9665 512.557 89.0967C514.347 89.764 515.494 91.001 515.999 92.8076C516.162 93.361 516.243 93.9714 516.243 94.6387C516.243 95.7617 515.999 96.8441 515.511 97.8857C515.169 98.6833 514.64 99.5133 513.924 100.376C513.777 100.604 513.436 100.97 512.898 101.475C511.124 103.021 509.367 104.095 507.625 104.697C506.746 104.99 505.94 105.153 505.208 105.186C505.224 105.202 505.241 105.234 505.257 105.283C505.273 105.332 505.289 105.389 505.306 105.454C505.436 105.731 505.607 105.991 505.818 106.235C506.372 106.854 506.966 107.163 507.601 107.163C508.219 107.163 508.821 106.992 509.407 106.65C509.749 106.471 510.075 106.284 510.384 106.089C510.888 105.763 511.181 105.56 511.263 105.479C511.751 105.039 512.256 104.681 512.776 104.404L512.947 104.307C513.208 104.258 513.46 104.233 513.704 104.233C514.046 104.233 514.412 104.307 514.803 104.453C515.21 104.583 515.454 105.023 515.535 105.771C515.438 106.178 515.267 106.561 515.022 106.919C514.795 107.277 514.518 107.603 514.192 107.896C512.679 109.263 510.953 110.231 509.017 110.801C508.496 110.915 507.975 110.972 507.454 110.972ZM504.695 102.329C504.728 102.329 504.752 102.321 504.769 102.305C504.931 102.305 505.281 102.207 505.818 102.012C507.137 101.458 508.504 100.514 509.92 99.1797C510.506 98.5775 510.97 98.0078 511.312 97.4707C511.832 96.5267 512.101 95.6478 512.117 94.834C512.117 94.3457 511.971 93.833 511.678 93.2959C511.531 93.068 511.36 92.9297 511.165 92.8809H511.263H510.799H511.141C510.994 92.832 510.791 92.8076 510.53 92.8076C510.254 92.8402 510.115 92.8646 510.115 92.8809H510.799C510.213 92.8809 509.521 93.1331 508.724 93.6377C507.291 94.6143 506.242 95.9001 505.574 97.4951C504.988 98.8786 504.695 100.49 504.695 102.329ZM519.075 112.07C518.668 112.07 518.221 111.924 517.732 111.631C517.26 111.322 516.984 110.744 516.902 109.897C516.788 108.823 516.731 107.228 516.731 105.112L516.756 104.575C516.772 103.338 516.821 102.061 516.902 100.742C516.902 100.449 516.919 100.148 516.951 99.8389C517 98.5205 517.171 97.1696 517.464 95.7861L517.757 94.6875C517.968 93.9388 518.27 93.2959 518.66 92.7588C519.262 91.8636 520.084 91.416 521.126 91.416C521.419 91.416 521.72 91.4567 522.029 91.5381C522.648 91.766 523.234 92.1729 523.787 92.7588C524.129 93.1331 524.511 93.654 524.935 94.3213C525.423 95.0537 525.879 95.8594 526.302 96.7383L526.595 97.3486C526.725 97.609 526.847 97.8776 526.961 98.1543C527.303 98.9193 527.514 99.432 527.596 99.6924C527.921 100.425 528.141 100.962 528.255 101.304L529.427 104.136L529.524 102.72C529.573 101.938 529.598 101.247 529.598 100.645L529.622 99.7656L529.598 99.3018C529.598 98.667 529.59 98.2438 529.573 98.0322C529.573 97.1045 529.598 96.3232 529.646 95.6885V94.6387L529.622 94.2969C529.622 94.069 529.646 93.8411 529.695 93.6133C529.988 92.7018 530.468 92.2461 531.136 92.2461C531.673 92.2461 532.12 92.6367 532.479 93.418C532.592 93.7272 532.674 94.069 532.723 94.4434C532.771 94.8177 532.861 95.3141 532.991 95.9326C533.219 97.0068 533.366 98.0729 533.431 99.1309L533.577 100.498C533.74 101.654 533.829 102.777 533.846 103.867C533.846 104.193 533.805 104.836 533.724 105.796L533.699 105.869C533.585 107.301 533.219 108.449 532.601 109.312C531.95 110.158 531.111 110.581 530.086 110.581C529.077 110.581 528.198 110.166 527.449 109.336C526.945 108.864 526.432 108.123 525.911 107.114C525.341 105.975 524.699 104.478 523.982 102.622C523.95 102.508 523.901 102.386 523.836 102.256C523.787 102.109 523.437 101.19 522.786 99.4971C522.786 99.4645 522.778 99.4401 522.762 99.4238C522.485 98.61 522.16 97.8451 521.785 97.1289L521.712 96.9824L521.321 100.107C521.321 100.205 521.313 100.295 521.297 100.376C521.232 101.206 521.183 102.012 521.15 102.793C521.15 103.021 521.118 103.818 521.053 105.186C521.004 106.829 520.963 107.936 520.931 108.506L520.833 110.02C520.817 110.264 520.792 110.5 520.76 110.728C520.548 111.623 519.987 112.07 519.075 112.07ZM541.976 113.047C540.12 113.047 538.484 112.55 537.068 111.558C536.32 111.037 535.717 110.459 535.262 109.824C534.757 109.059 534.489 108.302 534.456 107.554C534.668 106.577 535.099 106.089 535.75 106.089C535.783 106.089 535.978 106.105 536.336 106.138C536.71 106.154 537.264 106.463 537.996 107.065C538.305 107.489 538.631 107.847 538.973 108.14L539.119 108.262C539.331 108.441 539.55 108.587 539.778 108.701C540.511 109.124 541.227 109.336 541.927 109.336C542.594 109.336 543.188 109.1 543.709 108.628L543.831 108.164C543.847 108.083 543.855 107.993 543.855 107.896C543.855 107.586 543.693 107.204 543.367 106.748C543.123 106.406 542.708 106.007 542.122 105.552L541.878 105.332L541.194 104.819L540.267 104.16L539.9 103.94C539.673 103.794 539.428 103.647 539.168 103.501C538.973 103.403 538.59 103.159 538.021 102.769L537.898 102.671C537.54 102.427 537.19 102.158 536.849 101.865C536.084 101.198 535.473 100.425 535.018 99.5459C534.578 98.667 534.358 97.7148 534.358 96.6895C534.358 95.6315 534.643 94.5898 535.213 93.5645C535.766 92.6042 536.466 91.8555 537.312 91.3184C538.175 90.765 539.192 90.4883 540.364 90.4883C541.52 90.4883 542.545 90.8057 543.44 91.4404C544.043 91.9287 544.49 92.5146 544.783 93.1982C545.027 93.7191 545.149 94.2399 545.149 94.7607C545.149 95.4769 544.913 96.1198 544.441 96.6895C543.937 97.1289 543.506 97.3486 543.147 97.3486C543.131 97.3486 543.025 97.3405 542.83 97.3242C542.635 97.3079 542.285 96.9906 541.78 96.3721C541.715 96.2907 541.683 96.2012 541.683 96.1035V95.7617V95.4199C541.683 95.2734 541.674 95.1921 541.658 95.1758C541.609 95.0781 541.577 95.0212 541.561 95.0049C541.544 94.9723 541.528 94.9479 541.512 94.9316C541.495 94.9154 541.479 94.8991 541.463 94.8828C541.137 94.541 540.836 94.3701 540.56 94.3701C539.99 94.3701 539.542 94.6875 539.217 95.3223C539.021 95.7454 538.924 96.1361 538.924 96.4941C538.924 96.7057 538.973 96.9255 539.07 97.1533C539.233 97.6253 539.681 98.138 540.413 98.6914C540.527 98.8053 540.853 99.0251 541.39 99.3506C541.52 99.4157 541.642 99.4889 541.756 99.5703L542.903 100.254C543.896 100.905 544.531 101.344 544.808 101.572C545.638 102.223 546.313 102.866 546.834 103.501C547.859 104.803 548.372 106.203 548.372 107.7C548.372 108.107 548.323 108.514 548.226 108.921C547.786 110.744 546.606 111.989 544.686 112.656C543.823 112.917 542.92 113.047 541.976 113.047ZM569.49 113.657H569.368C568.245 113.657 567.553 112.046 567.293 108.823C566.202 109.425 565.006 109.727 563.704 109.727C561.604 109.727 559.944 108.978 558.724 107.48C557.991 106.585 557.527 105.56 557.332 104.404C557.218 103.818 557.161 103.127 557.161 102.329C557.161 100.783 557.454 99.2367 558.04 97.6904C558.512 96.6162 559.057 95.721 559.676 95.0049C561.043 93.5075 562.719 92.7588 564.705 92.7588C565.031 92.7588 565.356 92.7751 565.682 92.8076L566.829 93.0762C566.829 92.3763 566.837 91.8066 566.854 91.3672C566.886 90.9277 566.902 90.5046 566.902 90.0977C566.935 89.0234 567.024 87.7051 567.171 86.1426C567.269 85.0358 567.423 83.9697 567.635 82.9443C567.781 82.3096 567.911 81.9027 568.025 81.7236C568.058 81.512 568.147 81.3411 568.294 81.2109C568.603 80.9342 568.986 80.7959 569.441 80.7959C569.881 80.7959 570.247 80.9668 570.54 81.3086C570.654 81.4876 570.727 81.6829 570.76 81.8945L570.784 82.041C570.866 82.3991 570.923 82.7653 570.955 83.1396C571.004 83.7256 571.028 84.4906 571.028 85.4346L571.004 86.3135C570.971 87.4528 570.955 88.5596 570.955 89.6338C570.939 90.0407 570.931 90.6185 570.931 91.3672V97.3486C570.931 98.0811 570.939 98.6833 570.955 99.1553V102.939L571.053 107.993L571.102 109.604C571.102 112.192 570.564 113.543 569.49 113.657ZM563.973 105.576C564.038 105.576 564.095 105.568 564.144 105.552C564.29 105.552 564.388 105.544 564.437 105.527H564.314C564.721 105.495 565.234 105.348 565.853 105.088C565.95 105.039 566.056 104.998 566.17 104.966C566.626 104.754 566.886 104.616 566.951 104.551H566.976C566.959 104.03 566.935 103.517 566.902 103.013C566.837 101.727 566.805 99.9772 566.805 97.7637V97.2998C566.772 97.2998 566.74 97.2835 566.707 97.251C565.942 96.8115 565.25 96.5918 564.632 96.5918C563.997 96.5918 563.436 96.8441 562.947 97.3486C562.508 97.7881 562.158 98.3252 561.897 98.96C561.67 99.4971 561.556 99.8714 561.556 100.083C561.393 100.734 561.312 101.401 561.312 102.085C561.312 102.703 561.385 103.241 561.531 103.696C561.889 104.771 562.443 105.381 563.191 105.527H564.314L564.217 105.552L563.802 105.576L563.289 105.552C563.403 105.568 563.574 105.576 563.802 105.576H563.973ZM579.28 110.972C578.336 110.972 577.392 110.768 576.448 110.361C575.423 109.906 574.568 109.214 573.885 108.286C572.794 106.707 572.249 104.689 572.249 102.231C572.249 100.75 572.428 99.3018 572.786 97.8857C573.144 96.5674 573.6 95.4199 574.153 94.4434C574.723 93.4668 575.423 92.5716 576.253 91.7578C577.099 90.9277 577.986 90.2686 578.914 89.7803C579.858 89.292 580.786 88.9909 581.697 88.877H583.064C583.504 88.8932 583.943 88.9665 584.383 89.0967C586.173 89.764 587.321 91.001 587.825 92.8076C587.988 93.361 588.069 93.9714 588.069 94.6387C588.069 95.7617 587.825 96.8441 587.337 97.8857C586.995 98.6833 586.466 99.5133 585.75 100.376C585.604 100.604 585.262 100.97 584.725 101.475C582.951 103.021 581.193 104.095 579.451 104.697C578.572 104.99 577.767 105.153 577.034 105.186C577.05 105.202 577.067 105.234 577.083 105.283C577.099 105.332 577.116 105.389 577.132 105.454C577.262 105.731 577.433 105.991 577.645 106.235C578.198 106.854 578.792 107.163 579.427 107.163C580.045 107.163 580.647 106.992 581.233 106.65C581.575 106.471 581.901 106.284 582.21 106.089C582.715 105.763 583.007 105.56 583.089 105.479C583.577 105.039 584.082 104.681 584.603 104.404L584.773 104.307C585.034 104.258 585.286 104.233 585.53 104.233C585.872 104.233 586.238 104.307 586.629 104.453C587.036 104.583 587.28 105.023 587.361 105.771C587.264 106.178 587.093 106.561 586.849 106.919C586.621 107.277 586.344 107.603 586.019 107.896C584.505 109.263 582.78 110.231 580.843 110.801C580.322 110.915 579.801 110.972 579.28 110.972ZM576.521 102.329C576.554 102.329 576.578 102.321 576.595 102.305C576.757 102.305 577.107 102.207 577.645 102.012C578.963 101.458 580.33 100.514 581.746 99.1797C582.332 98.5775 582.796 98.0078 583.138 97.4707C583.659 96.5267 583.927 95.6478 583.943 94.834C583.943 94.3457 583.797 93.833 583.504 93.2959C583.357 93.068 583.187 92.9297 582.991 92.8809H583.089H582.625H582.967C582.82 92.832 582.617 92.8076 582.356 92.8076C582.08 92.8402 581.941 92.8646 581.941 92.8809H582.625C582.039 92.8809 581.347 93.1331 580.55 93.6377C579.118 94.6143 578.068 95.9001 577.4 97.4951C576.814 98.8786 576.521 100.49 576.521 102.329ZM603.597 110.093C602.62 110.093 601.749 109.808 600.984 109.238C600.04 108.538 599.308 107.358 598.787 105.698C598.527 104.966 598.331 104.144 598.201 103.232C598.185 103.07 598.16 102.915 598.128 102.769L598.006 101.816C598.006 101.621 597.99 101.426 597.957 101.23C597.876 100.531 597.835 99.3994 597.835 97.8369L597.884 97.0068C597.9 96.4535 597.941 95.8919 598.006 95.3223C598.071 94.7526 598.12 94.4189 598.152 94.3213C597.924 94.3213 597.469 94.4271 596.785 94.6387L596.272 94.7607L595.955 94.7852C595.792 94.6875 595.613 94.598 595.418 94.5166C594.669 94.2562 594.295 93.9388 594.295 93.5645C594.295 93.3203 594.572 93.0029 595.125 92.6123L595.174 92.5879C595.874 92.1647 596.744 91.8066 597.786 91.5137C598.307 91.3835 598.624 91.3184 598.738 91.3184L598.763 91.1719L598.909 90.6592C599.023 89.9919 599.21 89.3896 599.471 88.8525C599.91 87.9899 600.431 87.5586 601.033 87.5586C601.831 87.5749 602.531 88.1283 603.133 89.2188L603.011 89.8047L602.84 90.6104L602.767 90.9033C602.767 90.9359 602.758 90.9603 602.742 90.9766L602.986 91.001C603.507 91.001 603.938 91.0091 604.28 91.0254C604.622 91.0417 604.956 91.0742 605.281 91.123C605.965 91.1556 606.535 91.2451 606.99 91.3916C607.299 91.6195 607.454 91.9043 607.454 92.2461C607.454 92.3112 607.43 92.4821 607.381 92.7588C607.332 93.0192 607.129 93.3366 606.771 93.7109C606.412 94.0853 606.006 94.305 605.55 94.3701L604.817 94.2969C604.02 94.1992 603.442 94.1423 603.084 94.126L602.303 94.1016L602.278 94.2236C602.246 94.6143 602.205 94.9967 602.156 95.3711C602.156 95.599 602.14 95.7943 602.107 95.957C602.026 97.015 601.985 97.7311 601.985 98.1055L601.937 98.6914C601.937 100.124 601.961 101.076 602.01 101.548C602.01 101.743 602.042 102.166 602.107 102.817C602.173 103.175 602.229 103.525 602.278 103.867C602.343 104.209 602.417 104.535 602.498 104.844C602.612 105.348 602.791 105.828 603.035 106.284C603.279 106.724 603.572 106.943 603.914 106.943C604.207 106.943 604.524 106.65 604.866 106.064C605.029 105.804 605.127 105.625 605.159 105.527C605.485 104.714 605.826 104.307 606.185 104.307C606.591 104.307 606.844 105.039 606.941 106.504C606.925 106.536 606.917 106.577 606.917 106.626V106.772C606.917 107.31 606.714 107.936 606.307 108.652C605.981 109.141 605.599 109.507 605.159 109.751C604.72 109.979 604.199 110.093 603.597 110.093ZM602.742 94.1016C602.612 94.1016 602.49 94.0934 602.376 94.0771H602.303V94.1016H602.742ZM612.581 110.605C612.402 110.605 612.109 110.557 611.702 110.459C611.035 110.264 610.498 109.255 610.091 107.432L609.7 105.576L609.334 103.696C609.236 103.208 609.09 102.378 608.895 101.206C608.699 100.099 608.536 98.9844 608.406 97.8613C608.357 97.2266 608.3 96.5999 608.235 95.9814C608.089 94.2236 607.991 92.6855 607.942 91.3672V90.3174C608.007 89.7965 608.268 89.4141 608.724 89.1699C609.179 88.9095 609.7 88.7793 610.286 88.7793C610.888 88.7793 611.409 88.9095 611.849 89.1699C612.304 89.4141 612.557 89.7803 612.605 90.2686C612.605 90.4476 612.614 90.6104 612.63 90.7568C612.646 90.9033 612.654 91.0579 612.654 91.2207C612.671 91.3835 612.687 91.5462 612.703 91.709L612.776 92.417L612.874 93.7109L612.947 93.6133C613.68 92.6693 614.388 92.0182 615.071 91.6602C615.56 91.3997 616.129 91.2695 616.78 91.2695C617.724 91.2695 618.611 91.5137 619.441 92.002C620.239 92.5879 620.8 93.1006 621.126 93.54C621.451 93.9632 621.769 94.5573 622.078 95.3223L622.493 96.5918L622.811 98.0078C622.892 98.4473 622.933 98.9274 622.933 99.4482C622.933 99.8063 622.868 100.148 622.737 100.474C622.672 100.734 622.518 100.921 622.273 101.035C622.046 101.149 621.883 101.247 621.785 101.328L621.443 101.597L620.198 101.743C620.068 101.646 619.946 101.572 619.832 101.523L619.197 101.328C619.1 101.312 619.018 101.287 618.953 101.255C618.904 101.222 618.807 101.108 618.66 100.913C618.302 100.392 618.058 99.6436 617.928 98.667C617.879 98.1787 617.798 97.6986 617.684 97.2266L617.586 96.8115C617.342 95.7699 616.943 95.249 616.39 95.249C615.836 95.249 615.21 95.7536 614.51 96.7627C614.168 97.2998 613.965 97.6986 613.899 97.959C613.672 98.3984 613.533 98.7158 613.484 98.9111L613.436 98.9844C613.468 99.1146 613.484 99.2367 613.484 99.3506L613.851 102.231L613.973 103.086L614.095 104.111L614.217 104.941C614.217 104.99 614.225 105.031 614.241 105.063C614.485 106.772 614.607 107.944 614.607 108.579C614.526 109.36 614.225 109.922 613.704 110.264C613.346 110.492 612.972 110.605 612.581 110.605ZM637.654 115.635C637.524 115.635 637.402 115.627 637.288 115.61C637.174 115.594 636.995 115.464 636.751 115.22L636.507 114.854C636.198 114.43 635.896 113.747 635.604 112.803C635.587 112.705 635.563 112.616 635.53 112.534C635.205 111.297 634.952 109.93 634.773 108.433C634.741 108.156 634.725 107.887 634.725 107.627L634.651 107.725C633.707 109.076 632.674 110.068 631.551 110.703H631.526C630.68 111.191 629.785 111.436 628.841 111.436C627.409 111.436 626.204 110.898 625.228 109.824C624.023 108.555 623.421 106.659 623.421 104.136C623.551 101.629 624.275 99.3262 625.594 97.2266C626.277 96.1198 627.01 95.2327 627.791 94.5654C627.791 94.484 628.198 94.1748 629.012 93.6377C630.151 92.9541 631.445 92.6042 632.894 92.5879C633.935 92.5879 634.822 92.832 635.555 93.3203C635.717 93.4017 635.921 93.5645 636.165 93.8086C636.165 93.8249 636.173 93.833 636.189 93.833C636.58 94.2562 636.775 94.6794 636.775 95.1025C636.775 95.3141 636.759 95.4525 636.727 95.5176C636.694 95.5827 636.645 95.6559 636.58 95.7373C636.287 96.0791 635.498 96.25 634.212 96.25H633.895C633.064 96.25 632.308 96.3639 631.624 96.5918C630.729 97.0964 629.923 97.8939 629.207 98.9844C628.182 100.693 627.636 102.451 627.571 104.258C627.571 105.007 627.685 105.69 627.913 106.309C628.157 107.008 628.532 107.358 629.036 107.358C629.492 107.358 630.175 106.943 631.087 106.113C631.087 106.097 631.095 106.089 631.111 106.089C631.518 105.715 632.12 105.031 632.918 104.038L633.455 103.379C633.602 103.151 633.756 102.939 633.919 102.744C634.082 102.549 634.228 102.345 634.358 102.134L634.676 101.646C634.676 101.385 634.708 101.092 634.773 100.767C634.839 100.295 634.928 99.8551 635.042 99.4482L635.262 99.0332C635.424 98.724 635.799 98.5693 636.385 98.5693C636.548 98.5693 636.759 98.5856 637.02 98.6182C637.605 98.7158 637.898 98.9193 637.898 99.2285L637.874 99.375C637.874 99.3913 637.882 99.4076 637.898 99.4238C637.931 99.4401 637.98 99.4808 638.045 99.5459C638.11 99.6598 638.143 99.847 638.143 100.107L638.118 100.791L638.094 103.257C638.094 104.478 638.126 105.446 638.191 106.162C638.191 106.455 638.24 107.106 638.338 108.115C638.468 109.092 638.566 109.702 638.631 109.946C638.81 111.053 639.03 112.046 639.29 112.925L639.363 113.169C639.477 113.446 639.542 113.722 639.559 113.999C639.559 114.618 639.314 115.065 638.826 115.342C638.468 115.537 638.077 115.635 637.654 115.635ZM633.968 99.1309C633.951 99.1146 633.927 99.1064 633.895 99.1064C633.878 99.1064 633.862 99.1064 633.846 99.1064C633.829 99.1064 633.821 99.0983 633.821 99.082L633.895 99.0088C633.911 99.0088 633.919 99.0169 633.919 99.0332C633.935 99.0332 633.943 99.0495 633.943 99.082C633.96 99.0983 633.968 99.1146 633.968 99.1309ZM642.415 112.07C642.008 112.07 641.561 111.924 641.072 111.631C640.6 111.322 640.324 110.744 640.242 109.897C640.128 108.823 640.071 107.228 640.071 105.112L640.096 104.575C640.112 103.338 640.161 102.061 640.242 100.742C640.242 100.449 640.258 100.148 640.291 99.8389C640.34 98.5205 640.511 97.1696 640.804 95.7861L641.097 94.6875C641.308 93.9388 641.609 93.2959 642 92.7588C642.602 91.8636 643.424 91.416 644.466 91.416C644.759 91.416 645.06 91.4567 645.369 91.5381C645.988 91.766 646.574 92.1729 647.127 92.7588C647.469 93.1331 647.851 93.654 648.274 94.3213C648.763 95.0537 649.218 95.8594 649.642 96.7383L649.935 97.3486C650.065 97.609 650.187 97.8776 650.301 98.1543C650.643 98.9193 650.854 99.432 650.936 99.6924C651.261 100.425 651.481 100.962 651.595 101.304L652.767 104.136L652.864 102.72C652.913 101.938 652.938 101.247 652.938 100.645L652.962 99.7656L652.938 99.3018C652.938 98.667 652.929 98.2438 652.913 98.0322C652.913 97.1045 652.938 96.3232 652.986 95.6885V94.6387L652.962 94.2969C652.962 94.069 652.986 93.8411 653.035 93.6133C653.328 92.7018 653.808 92.2461 654.476 92.2461C655.013 92.2461 655.46 92.6367 655.818 93.418C655.932 93.7272 656.014 94.069 656.062 94.4434C656.111 94.8177 656.201 95.3141 656.331 95.9326C656.559 97.0068 656.705 98.0729 656.771 99.1309L656.917 100.498C657.08 101.654 657.169 102.777 657.186 103.867C657.186 104.193 657.145 104.836 657.063 105.796L657.039 105.869C656.925 107.301 656.559 108.449 655.94 109.312C655.289 110.158 654.451 110.581 653.426 110.581C652.417 110.581 651.538 110.166 650.789 109.336C650.285 108.864 649.772 108.123 649.251 107.114C648.681 105.975 648.038 104.478 647.322 102.622C647.29 102.508 647.241 102.386 647.176 102.256C647.127 102.109 646.777 101.19 646.126 99.4971C646.126 99.4645 646.118 99.4401 646.102 99.4238C645.825 98.61 645.499 97.8451 645.125 97.1289L645.052 96.9824L644.661 100.107C644.661 100.205 644.653 100.295 644.637 100.376C644.572 101.206 644.523 102.012 644.49 102.793C644.49 103.021 644.458 103.818 644.393 105.186C644.344 106.829 644.303 107.936 644.271 108.506L644.173 110.02C644.157 110.264 644.132 110.5 644.1 110.728C643.888 111.623 643.326 112.07 642.415 112.07ZM665.315 113.047C663.46 113.047 661.824 112.55 660.408 111.558C659.66 111.037 659.057 110.459 658.602 109.824C658.097 109.059 657.828 108.302 657.796 107.554C658.007 106.577 658.439 106.089 659.09 106.089C659.122 106.089 659.318 106.105 659.676 106.138C660.05 106.154 660.604 106.463 661.336 107.065C661.645 107.489 661.971 107.847 662.312 108.14L662.459 108.262C662.671 108.441 662.89 108.587 663.118 108.701C663.851 109.124 664.567 109.336 665.267 109.336C665.934 109.336 666.528 109.1 667.049 108.628L667.171 108.164C667.187 108.083 667.195 107.993 667.195 107.896C667.195 107.586 667.033 107.204 666.707 106.748C666.463 106.406 666.048 106.007 665.462 105.552L665.218 105.332L664.534 104.819L663.606 104.16L663.24 103.94C663.012 103.794 662.768 103.647 662.508 103.501C662.312 103.403 661.93 103.159 661.36 102.769L661.238 102.671C660.88 102.427 660.53 102.158 660.188 101.865C659.424 101.198 658.813 100.425 658.357 99.5459C657.918 98.667 657.698 97.7148 657.698 96.6895C657.698 95.6315 657.983 94.5898 658.553 93.5645C659.106 92.6042 659.806 91.8555 660.652 91.3184C661.515 90.765 662.532 90.4883 663.704 90.4883C664.86 90.4883 665.885 90.8057 666.78 91.4404C667.382 91.9287 667.83 92.5146 668.123 93.1982C668.367 93.7191 668.489 94.2399 668.489 94.7607C668.489 95.4769 668.253 96.1198 667.781 96.6895C667.277 97.1289 666.845 97.3486 666.487 97.3486C666.471 97.3486 666.365 97.3405 666.17 97.3242C665.975 97.3079 665.625 96.9906 665.12 96.3721C665.055 96.2907 665.022 96.2012 665.022 96.1035V95.7617V95.4199C665.022 95.2734 665.014 95.1921 664.998 95.1758C664.949 95.0781 664.917 95.0212 664.9 95.0049C664.884 94.9723 664.868 94.9479 664.852 94.9316C664.835 94.9154 664.819 94.8991 664.803 94.8828C664.477 94.541 664.176 94.3701 663.899 94.3701C663.33 94.3701 662.882 94.6875 662.557 95.3223C662.361 95.7454 662.264 96.1361 662.264 96.4941C662.264 96.7057 662.312 96.9255 662.41 97.1533C662.573 97.6253 663.021 98.138 663.753 98.6914C663.867 98.8053 664.192 99.0251 664.729 99.3506C664.86 99.4157 664.982 99.4889 665.096 99.5703L666.243 100.254C667.236 100.905 667.871 101.344 668.147 101.572C668.978 102.223 669.653 102.866 670.174 103.501C671.199 104.803 671.712 106.203 671.712 107.7C671.712 108.107 671.663 108.514 671.565 108.921C671.126 110.744 669.946 111.989 668.025 112.656C667.163 112.917 666.259 113.047 665.315 113.047ZM675.862 116.807C675.016 116.807 674.332 116.123 673.812 114.756C673.698 114.333 673.6 113.91 673.519 113.486L673.445 113.071C673.12 111.362 672.884 109.775 672.737 108.311C672.575 107.204 672.412 105.218 672.249 102.354C672.216 101.475 672.2 100.474 672.2 99.3506C672.2 97.2673 672.314 95.5094 672.542 94.0771C672.672 93.0355 672.884 92.0833 673.177 91.2207C673.698 89.9512 674.34 89.3164 675.105 89.3164C675.659 89.3164 676.115 89.5605 676.473 90.0488C676.831 90.5208 677.01 91.0824 677.01 91.7334L676.985 92.0752L676.814 93.125C676.814 93.2552 676.798 93.3854 676.766 93.5156C677.954 92.832 679.215 92.4902 680.55 92.4902C681.966 92.4902 683.154 92.8483 684.114 93.5645C684.847 94.069 685.473 94.7689 685.994 95.6641C686.482 96.4941 686.808 97.4382 686.971 98.4961C687.02 98.9844 687.044 99.554 687.044 100.205C687.044 101.019 686.946 101.833 686.751 102.646C686.621 103.428 686.385 104.176 686.043 104.893L685.921 105.137L685.506 105.918C685.083 106.553 684.586 107.065 684.017 107.456C682.991 108.221 681.868 108.604 680.647 108.604C679.769 108.604 678.857 108.392 677.913 107.969L676.961 107.456L677.376 110.776C677.409 111.053 677.449 111.338 677.498 111.631C677.547 111.924 677.588 112.217 677.62 112.51L677.718 113.169C677.783 113.494 677.832 113.812 677.864 114.121C677.75 115.911 677.083 116.807 675.862 116.807ZM680.501 104.575C680.957 104.575 681.364 104.372 681.722 103.965C681.754 103.916 681.795 103.875 681.844 103.843C682.055 103.55 682.218 103.2 682.332 102.793C682.544 102.061 682.674 101.458 682.723 100.986C682.771 100.71 682.804 100.433 682.82 100.156C682.82 99.3587 682.731 98.7158 682.552 98.2275C682.389 97.7393 682.112 97.3079 681.722 96.9336C681.152 96.4616 680.59 96.2256 680.037 96.2256C679.467 96.2256 678.857 96.3802 678.206 96.6895C677.701 96.901 677.173 97.2835 676.619 97.8369C676.587 97.9183 676.53 97.9753 676.448 98.0078V99.0332C676.448 99.7819 676.456 100.278 676.473 100.522V100.767C676.733 101.385 677.107 101.979 677.596 102.549C677.921 102.939 678.125 103.175 678.206 103.257C678.304 103.322 678.385 103.387 678.45 103.452C679.215 104.201 679.899 104.575 680.501 104.575ZM694.661 111.069C693.359 111.069 692.146 110.662 691.023 109.849C690.177 109.198 689.518 108.368 689.046 107.358C688.037 105.454 687.532 103.363 687.532 101.084C687.532 99.7493 687.719 98.4229 688.094 97.1045C688.126 97.0394 688.151 96.9661 688.167 96.8848C688.297 96.4128 688.46 95.9489 688.655 95.4932C689.941 93.0518 691.715 91.8311 693.978 91.8311C694.905 91.8311 695.817 92.0508 696.712 92.4902C697.607 92.9297 698.388 93.5726 699.056 94.4189C700.26 95.9489 701.025 97.7148 701.351 99.7168C701.432 100.238 701.473 100.84 701.473 101.523C701.473 101.914 701.448 102.313 701.399 102.72C701.302 103.778 701.098 104.746 700.789 105.625C700.382 106.65 699.975 107.48 699.568 108.115C699.064 108.896 698.437 109.564 697.688 110.117C696.712 110.752 695.703 111.069 694.661 111.069ZM694.563 106.992C694.645 106.992 694.824 106.935 695.101 106.821C695.377 106.707 695.768 106.195 696.272 105.283C696.435 105.023 696.574 104.746 696.688 104.453V104.404C696.98 103.639 697.168 102.964 697.249 102.378L697.273 102.305C697.322 102.028 697.347 101.759 697.347 101.499C697.347 100.994 697.314 100.555 697.249 100.181C697.151 99.5133 696.932 98.846 696.59 98.1787C696.264 97.4951 695.923 96.9661 695.564 96.5918C694.848 95.9733 694.287 95.6641 693.88 95.6641C693.44 95.6641 693.042 96.0628 692.684 96.8604C692.342 97.6579 692.106 98.5124 691.976 99.4238C691.878 99.9935 691.829 100.571 691.829 101.157C691.829 102.752 692.228 104.282 693.025 105.747C693.628 106.577 694.14 106.992 694.563 106.992ZM706.624 110.605C706.445 110.605 706.152 110.557 705.745 110.459C705.078 110.264 704.541 109.255 704.134 107.432L703.743 105.576L703.377 103.696C703.279 103.208 703.133 102.378 702.938 101.206C702.742 100.099 702.579 98.9844 702.449 97.8613C702.4 97.2266 702.343 96.5999 702.278 95.9814C702.132 94.2236 702.034 92.6855 701.985 91.3672V90.3174C702.05 89.7965 702.311 89.4141 702.767 89.1699C703.222 88.9095 703.743 88.7793 704.329 88.7793C704.931 88.7793 705.452 88.9095 705.892 89.1699C706.347 89.4141 706.6 89.7803 706.648 90.2686C706.648 90.4476 706.657 90.6104 706.673 90.7568C706.689 90.9033 706.697 91.0579 706.697 91.2207C706.714 91.3835 706.73 91.5462 706.746 91.709L706.819 92.417L706.917 93.7109L706.99 93.6133C707.723 92.6693 708.431 92.0182 709.114 91.6602C709.603 91.3997 710.172 91.2695 710.823 91.2695C711.767 91.2695 712.654 91.5137 713.484 92.002C714.282 92.5879 714.843 93.1006 715.169 93.54C715.494 93.9632 715.812 94.5573 716.121 95.3223L716.536 96.5918L716.854 98.0078C716.935 98.4473 716.976 98.9274 716.976 99.4482C716.976 99.8063 716.91 100.148 716.78 100.474C716.715 100.734 716.561 100.921 716.316 101.035C716.089 101.149 715.926 101.247 715.828 101.328L715.486 101.597L714.241 101.743C714.111 101.646 713.989 101.572 713.875 101.523L713.24 101.328C713.143 101.312 713.061 101.287 712.996 101.255C712.947 101.222 712.85 101.108 712.703 100.913C712.345 100.392 712.101 99.6436 711.971 98.667C711.922 98.1787 711.84 97.6986 711.727 97.2266L711.629 96.8115C711.385 95.7699 710.986 95.249 710.433 95.249C709.879 95.249 709.253 95.7536 708.553 96.7627C708.211 97.2998 708.007 97.6986 707.942 97.959C707.715 98.3984 707.576 98.7158 707.527 98.9111L707.479 98.9844C707.511 99.1146 707.527 99.2367 707.527 99.3506L707.894 102.231L708.016 103.086L708.138 104.111L708.26 104.941C708.26 104.99 708.268 105.031 708.284 105.063C708.528 106.772 708.65 107.944 708.65 108.579C708.569 109.36 708.268 109.922 707.747 110.264C707.389 110.492 707.015 110.605 706.624 110.605ZM724.202 110.093C723.226 110.093 722.355 109.808 721.59 109.238C720.646 108.538 719.913 107.358 719.393 105.698C719.132 104.966 718.937 104.144 718.807 103.232C718.79 103.07 718.766 102.915 718.733 102.769L718.611 101.816C718.611 101.621 718.595 101.426 718.562 101.23C718.481 100.531 718.44 99.3994 718.44 97.8369L718.489 97.0068C718.506 96.4535 718.546 95.8919 718.611 95.3223C718.676 94.7526 718.725 94.4189 718.758 94.3213C718.53 94.3213 718.074 94.4271 717.391 94.6387L716.878 94.7607L716.561 94.7852C716.398 94.6875 716.219 94.598 716.023 94.5166C715.275 94.2562 714.9 93.9388 714.9 93.5645C714.9 93.3203 715.177 93.0029 715.73 92.6123L715.779 92.5879C716.479 92.1647 717.35 91.8066 718.392 91.5137C718.912 91.3835 719.23 91.3184 719.344 91.3184L719.368 91.1719L719.515 90.6592C719.629 89.9919 719.816 89.3896 720.076 88.8525C720.516 87.9899 721.036 87.5586 721.639 87.5586C722.436 87.5749 723.136 88.1283 723.738 89.2188L723.616 89.8047L723.445 90.6104L723.372 90.9033C723.372 90.9359 723.364 90.9603 723.348 90.9766L723.592 91.001C724.113 91.001 724.544 91.0091 724.886 91.0254C725.228 91.0417 725.561 91.0742 725.887 91.123C726.57 91.1556 727.14 91.2451 727.596 91.3916C727.905 91.6195 728.06 91.9043 728.06 92.2461C728.06 92.3112 728.035 92.4821 727.986 92.7588C727.938 93.0192 727.734 93.3366 727.376 93.7109C727.018 94.0853 726.611 94.305 726.155 94.3701L725.423 94.2969C724.625 94.1992 724.048 94.1423 723.689 94.126L722.908 94.1016L722.884 94.2236C722.851 94.6143 722.811 94.9967 722.762 95.3711C722.762 95.599 722.745 95.7943 722.713 95.957C722.632 97.015 722.591 97.7311 722.591 98.1055L722.542 98.6914C722.542 100.124 722.566 101.076 722.615 101.548C722.615 101.743 722.648 102.166 722.713 102.817C722.778 103.175 722.835 103.525 722.884 103.867C722.949 104.209 723.022 104.535 723.104 104.844C723.217 105.348 723.396 105.828 723.641 106.284C723.885 106.724 724.178 106.943 724.52 106.943C724.812 106.943 725.13 106.65 725.472 106.064C725.634 105.804 725.732 105.625 725.765 105.527C726.09 104.714 726.432 104.307 726.79 104.307C727.197 104.307 727.449 105.039 727.547 106.504C727.531 106.536 727.522 106.577 727.522 106.626V106.772C727.522 107.31 727.319 107.936 726.912 108.652C726.587 109.141 726.204 109.507 725.765 109.751C725.325 109.979 724.804 110.093 724.202 110.093ZM723.348 94.1016C723.217 94.1016 723.095 94.0934 722.981 94.0771H722.908V94.1016H723.348ZM736.165 113.047C734.31 113.047 732.674 112.55 731.258 111.558C730.509 111.037 729.907 110.459 729.451 109.824C728.947 109.059 728.678 108.302 728.646 107.554C728.857 106.577 729.288 106.089 729.939 106.089C729.972 106.089 730.167 106.105 730.525 106.138C730.9 106.154 731.453 106.463 732.186 107.065C732.495 107.489 732.82 107.847 733.162 108.14L733.309 108.262C733.52 108.441 733.74 108.587 733.968 108.701C734.7 109.124 735.416 109.336 736.116 109.336C736.784 109.336 737.378 109.1 737.898 108.628L738.021 108.164C738.037 108.083 738.045 107.993 738.045 107.896C738.045 107.586 737.882 107.204 737.557 106.748C737.312 106.406 736.897 106.007 736.312 105.552L736.067 105.332L735.384 104.819L734.456 104.16L734.09 103.94C733.862 103.794 733.618 103.647 733.357 103.501C733.162 103.403 732.78 103.159 732.21 102.769L732.088 102.671C731.73 102.427 731.38 102.158 731.038 101.865C730.273 101.198 729.663 100.425 729.207 99.5459C728.768 98.667 728.548 97.7148 728.548 96.6895C728.548 95.6315 728.833 94.5898 729.402 93.5645C729.956 92.6042 730.656 91.8555 731.502 91.3184C732.365 90.765 733.382 90.4883 734.554 90.4883C735.709 90.4883 736.735 90.8057 737.63 91.4404C738.232 91.9287 738.68 92.5146 738.973 93.1982C739.217 93.7191 739.339 94.2399 739.339 94.7607C739.339 95.4769 739.103 96.1198 738.631 96.6895C738.126 97.1289 737.695 97.3486 737.337 97.3486C737.321 97.3486 737.215 97.3405 737.02 97.3242C736.824 97.3079 736.474 96.9906 735.97 96.3721C735.905 96.2907 735.872 96.2012 735.872 96.1035V95.7617V95.4199C735.872 95.2734 735.864 95.1921 735.848 95.1758C735.799 95.0781 735.766 95.0212 735.75 95.0049C735.734 94.9723 735.717 94.9479 735.701 94.9316C735.685 94.9154 735.669 94.8991 735.652 94.8828C735.327 94.541 735.026 94.3701 734.749 94.3701C734.179 94.3701 733.732 94.6875 733.406 95.3223C733.211 95.7454 733.113 96.1361 733.113 96.4941C733.113 96.7057 733.162 96.9255 733.26 97.1533C733.423 97.6253 733.87 98.138 734.603 98.6914C734.716 98.8053 735.042 99.0251 735.579 99.3506C735.709 99.4157 735.831 99.4889 735.945 99.5703L737.093 100.254C738.086 100.905 738.72 101.344 738.997 101.572C739.827 102.223 740.503 102.866 741.023 103.501C742.049 104.803 742.562 106.203 742.562 107.7C742.562 108.107 742.513 108.514 742.415 108.921C741.976 110.744 740.796 111.989 738.875 112.656C738.012 112.917 737.109 113.047 736.165 113.047ZM757.21 107.017H757.112C756.185 107.017 755.501 106.577 755.062 105.698C754.996 105.422 754.964 105.137 754.964 104.844C754.964 104.502 755.013 104.014 755.11 103.379C755.11 103.298 755.175 102.834 755.306 101.987C755.647 100.295 756.242 98.8786 757.088 97.7393L757.186 97.6172C757.479 97.194 757.812 96.7708 758.187 96.3477L759.529 94.834C759.643 94.7201 759.749 94.598 759.847 94.4678L760.359 93.9062C760.49 93.7272 760.636 93.54 760.799 93.3447C760.929 93.2145 761.051 93.0599 761.165 92.8809C761.409 92.4902 761.596 92.1566 761.727 91.8799V91.8555C761.857 91.5951 761.922 91.4323 761.922 91.3672C761.971 91.2533 761.995 91.1475 761.995 91.0498V90.6348C761.963 90.1465 761.816 89.7152 761.556 89.3408C761.312 88.9502 761.051 88.6491 760.774 88.4375C759.993 87.7376 759.334 87.3877 758.797 87.3877C758.715 87.3877 758.512 87.4284 758.187 87.5098C757.877 87.5911 757.487 87.9492 757.015 88.584C756.689 88.8932 756.437 89.2676 756.258 89.707L756.233 89.7559C756.022 90.2604 755.916 90.7812 755.916 91.3184V91.6357C755.916 92.0915 756.03 92.5391 756.258 92.9785C756.323 93.125 756.421 93.2959 756.551 93.4912C756.632 93.7191 756.673 93.9551 756.673 94.1992C756.673 94.5898 756.526 95.0781 756.233 95.6641C755.94 96.2337 755.517 96.6081 754.964 96.7871C754.736 96.7871 754.524 96.7464 754.329 96.665C753.841 96.4535 753.41 96.1686 753.035 95.8105C752.319 95.0293 751.839 94.1423 751.595 93.1494C751.432 92.4984 751.351 91.9043 751.351 91.3672C751.367 90.3255 751.538 89.3408 751.863 88.4131C752.042 87.9411 752.221 87.5667 752.4 87.29C752.4 87.2738 752.409 87.2656 752.425 87.2656C752.799 86.582 753.255 85.9554 753.792 85.3857V85.3613C754.329 84.7428 754.964 84.222 755.696 83.7988C756.51 83.3431 757.34 83.1152 758.187 83.1152L759.065 83.1396C759.635 83.1396 760.197 83.2699 760.75 83.5303C761.84 84.0186 762.931 84.9219 764.021 86.2402C764.412 86.7122 764.762 87.2168 765.071 87.7539C765.381 88.3561 765.592 88.9339 765.706 89.4873C765.804 89.9756 765.853 90.415 765.853 90.8057L765.828 91.2695C765.698 92.3275 765.299 93.4261 764.632 94.5654C764.274 95.1351 763.989 95.5257 763.777 95.7373L763.631 95.9082C763.452 96.1361 763.273 96.3558 763.094 96.5674C762.98 96.6813 762.874 96.7952 762.776 96.9092C762.695 97.0068 762.605 97.1045 762.508 97.2021C762.199 97.5114 761.889 97.8369 761.58 98.1787C761.515 98.2601 761.45 98.3415 761.385 98.4229C761.32 98.5042 761.246 98.5938 761.165 98.6914C761.084 98.7891 760.994 98.8867 760.896 98.9844C760.294 99.668 759.936 100.531 759.822 101.572C759.708 102.126 759.635 102.744 759.603 103.428C759.586 104.486 759.505 105.275 759.358 105.796C758.903 106.593 758.187 107 757.21 107.017ZM757.723 113.145C756.958 113.145 756.347 112.827 755.892 112.192C755.778 111.883 755.721 111.403 755.721 110.752C755.753 110.117 756.03 109.637 756.551 109.312C757.088 108.986 757.641 108.823 758.211 108.823H758.357C759.448 108.888 759.993 109.393 759.993 110.337L759.969 110.532L760.018 111.069C760.034 111.134 760.042 111.248 760.042 111.411C760.042 111.59 760.026 111.769 759.993 111.948C759.521 112.746 758.764 113.145 757.723 113.145Z" fill="#FFF2EA"/>
</svg>
