<svg width="253" height="253" viewBox="0 0 253 253" fill="none" xmlns="http://www.w3.org/2000/svg">
    <g clip-path="url(#clip0)">
        <path d="M94.9391 208.536C83.8736 205.985 73.8305 201.982 65.156 196.664C63.3504 195.549 61.5647 194.497 59.8117 193.453C43.7333 183.867 29.8722 175.549 23.2084 151.365C22.2373 147.823 21.0416 135.263 21.3006 131.305C21.5524 127.23 23.6486 116.942 25.1433 112.396C34.957 82.3464 44.7503 59.3945 60.7961 44.8118C68.6338 37.6525 77.3734 34.4853 84.8987 32.2608C105.9 26.156 127.053 25.2095 145.985 29.5732C149.086 30.2879 152.149 31.1685 155.121 32.1446C161.346 34.2198 167.613 35.6643 173.651 37.0561C188.732 40.532 202.996 43.8198 215.816 56.2063C221.919 62.0957 225.94 67.9131 228.525 74.4473C235.804 93.1253 234.014 126.247 224.21 153.272C218.916 167.888 212.177 180.424 204.728 189.477C197.518 198.237 189.645 203.758 181.961 205.48C148.253 213.022 118.996 214.081 94.9391 208.536Z" fill="#22C79E"/>
        <path d="M144.709 35.1012C147.745 35.8009 150.743 36.6664 153.649 37.6275C159.972 39.7252 166.272 41.1773 172.343 42.5766C187.13 45.9848 201.133 49.2123 213.475 61.1393C219.236 66.7173 223.021 72.0725 225.368 78.1444C228.681 86.5928 229.998 98.7734 229.153 112.435C228.318 125.749 225.504 139.598 221.2 151.414C216.208 165.167 209.901 176.871 202.963 185.344C196.382 193.317 189.191 198.414 182.191 200.002C148.867 207.517 119.93 208.532 96.1993 203.062C85.3297 200.557 75.5023 196.662 67.0109 191.444C65.2053 190.33 63.387 189.27 61.634 188.226C53.719 183.49 46.2554 179.034 40.1191 172.845C33.6222 166.283 29.2702 158.468 26.431 148.266C25.6661 145.469 24.5403 133.799 24.7515 130.645C24.9683 127.319 26.9059 117.868 28.1697 114.025C32.0373 102.167 36.7881 88.4157 42.7998 76.3526C48.5081 64.86 54.7529 56.1108 61.9227 49.6126C69.1959 42.9636 77.5127 39.99 84.6734 37.8562C105.368 31.739 126.104 30.8128 144.709 35.1012ZM147.258 24.0446C127.477 19.4854 106.208 20.6379 85.0634 26.7679C76.5094 29.2792 67.7389 32.7304 59.6543 40.0657C41.7789 56.3226 31.5626 81.8551 22.1144 110.767C20.4724 115.803 18.1453 126.794 17.8018 132.013C17.4767 137.003 18.7878 150.405 19.938 154.512C27.7789 182.984 44.9163 190.66 63.2532 201.931C72.5948 207.636 82.8593 211.573 93.6637 214.064C121.572 220.496 153.12 217.405 181.552 210.975C198.523 207.143 215.504 187.012 227.088 155.1C236.879 128.13 239.945 92.1583 231.581 70.727C228.309 62.4042 223.353 56.3133 218.07 51.1949C199.508 33.2932 178.118 33.7775 156.557 26.6536C153.487 25.655 150.391 24.7669 147.258 24.0446Z" fill="white"/>
        <path d="M114.962 107.634L114.319 107.486C113.243 106.937 112.312 106.034 111.524 104.775C110.863 103.62 110.309 102.44 109.86 101.234C109.303 99.6278 108.834 98.0789 108.451 96.5876L108.365 96.3049C108.039 95.0021 107.677 93.1522 107.277 90.7551C106.945 88.8246 106.678 86.6709 106.474 84.2939L106.122 81.0935L105.024 70.6935C105.005 70.6642 105.002 70.6258 105.013 70.5782C104.95 70.7392 104.888 70.9003 104.826 71.0613C104.769 71.1986 104.725 71.3386 104.692 71.4813L104.448 72.2143C103.658 74.3372 103.12 76.0172 102.835 77.2543C102.605 77.9277 102.182 79.4339 101.568 81.7727C101.462 82.124 101.316 82.7042 101.129 83.513L100.301 87.2682L99.6847 90.4332C99.5897 91.0627 99.375 92.266 99.0406 94.0429L98.6348 95.6405C98.2416 96.8026 97.5657 97.5613 96.6069 97.9166C95.9775 98.1473 95.3892 98.1996 94.842 98.0735C94.5327 98.0022 94.1027 97.8029 93.5518 97.4754C93.0301 97.1297 92.8277 96.2688 92.9445 94.8927C92.8523 92.4662 93.1086 89.5063 93.7134 86.0128C94.2342 83.427 94.6454 81.4799 94.947 80.1714C95.1718 79.196 95.4205 78.2261 95.6929 77.2617L96.0411 75.9138C96.3464 74.8067 96.7623 73.4369 97.2889 71.8044C97.9215 69.8207 98.6347 67.868 99.4283 65.9463L99.6999 65.2573L100.416 63.6184L101.074 62.2293C101.113 62.0628 101.309 61.6446 101.664 60.9748C102.253 59.8328 102.96 58.9936 103.785 58.4572C104.458 58.0361 105.023 57.8155 105.479 57.7952C105.781 57.7896 106.122 57.8307 106.502 57.9185L107.137 58.1022L108.1 58.3243C108.717 58.6919 109.223 59.1593 109.618 59.7265C110.179 60.5571 110.624 61.6119 110.956 62.891C111.185 64.0712 111.379 65.2935 111.539 66.558L111.597 66.7967C111.685 67.719 111.779 68.5049 111.88 69.1545L112.185 71.7428C112.429 73.4025 112.652 75.3705 112.854 77.6469C113.232 81.1163 113.472 83.2261 113.575 83.9763C113.87 86.4997 114.128 88.5885 114.348 90.2427L114.609 91.8813C114.721 92.809 114.943 94.0753 115.274 95.68C115.544 97.1201 115.8 98.1813 116.044 98.8638L116.331 97.1263C116.518 95.9917 116.7 94.6558 116.879 93.1186C116.886 92.8697 116.908 92.6117 116.945 92.3445C116.981 92.0774 117.089 91.0123 117.268 89.1494C117.565 86.3368 117.756 84.6395 117.84 84.0575L117.837 83.9066C118.314 80.5339 118.829 77.6462 119.383 75.2434C119.493 74.7676 119.612 74.3064 119.74 73.8599C120.047 72.5276 120.379 71.414 120.735 70.5191L121.012 69.6434C121.396 68.6295 121.831 67.6147 122.315 66.599C122.767 65.726 123.278 64.8667 123.849 64.0212C125.192 62.3263 126.468 61.1923 127.677 60.6192C128.586 60.1524 129.498 59.949 130.411 60.0092L131.561 60.2367C132.703 60.4999 133.648 61.1813 134.397 62.2808C134.862 63.0895 135.004 63.8864 134.823 64.6715C134.659 65.3852 134.281 65.937 133.69 66.327C133.123 66.7224 132.566 66.857 132.018 66.7309C131.709 66.6596 131.41 66.4904 131.121 66.2233C130.713 65.9288 130.449 65.7679 130.33 65.7405C130.045 65.6747 129.708 65.8852 129.32 66.372L129.276 66.3995C128.852 66.8278 128.467 67.3028 128.121 67.8244C127.799 68.3515 127.434 69.1192 127.026 70.1276C126.957 70.2118 126.776 70.6712 126.483 71.5057C125.907 73.0265 125.411 74.6909 124.994 76.499L124.602 78.3629C124.427 79.4499 124.309 80.1243 124.249 80.3859L123.618 84.7505L123.536 85.5959L123.358 87.0205C123.311 87.661 123.239 88.4085 123.142 89.2631L123.106 89.7435C123.008 90.8232 122.924 91.8937 122.855 92.9551C122.791 93.9926 122.706 95.0128 122.6 96.0157C122.48 97.5162 122.338 98.8365 122.176 99.9766C122.068 100.553 121.915 101.27 121.718 102.126C121.274 104.053 120.639 105.448 119.814 106.31C118.722 107.461 117.624 107.985 116.521 107.881C116.076 107.853 115.556 107.771 114.962 107.634ZM134.625 104.988C132.722 104.549 131.087 103.546 129.719 101.978C128.702 100.742 128.018 99.3062 127.668 97.6722C126.834 94.5488 126.801 91.3217 127.569 87.9911C128.019 86.0403 128.739 84.1644 129.731 82.3635C129.8 82.2793 129.86 82.1805 129.912 82.067C130.261 81.421 130.655 80.7978 131.094 80.1975C133.796 77.0621 136.801 75.8755 140.107 76.6377C141.463 76.9503 142.722 77.5785 143.882 78.5224C145.042 79.4664 145.968 80.6693 146.658 82.1312C147.903 84.7732 148.426 87.6122 148.228 90.6481C148.171 91.4368 148.028 92.3308 147.797 93.3299C147.666 93.9009 147.496 94.4755 147.287 95.0539C146.788 96.5673 146.165 97.9143 145.416 99.0948C144.476 100.457 143.602 101.533 142.793 102.323C141.793 103.295 140.652 104.06 139.371 104.616C137.73 105.215 136.148 105.339 134.625 104.988ZM135.856 98.9958C135.975 99.0232 136.256 99.0003 136.699 98.9269C137.142 98.8536 137.885 98.2358 138.93 97.0736C139.255 96.7478 139.551 96.3899 139.816 96.0001L139.833 95.9287C140.518 94.9093 141.02 93.985 141.336 93.156L141.396 93.0572C141.561 92.6692 141.687 92.2849 141.775 91.9042C141.945 91.1667 142.045 90.5134 142.076 89.9443C142.158 88.936 142.062 87.8866 141.787 86.796C141.542 85.6872 141.22 84.7988 140.823 84.131C139.985 82.9857 139.268 82.3445 138.673 82.2074C138.031 82.0594 137.314 82.5079 136.522 83.553C135.753 84.6036 135.121 85.773 134.623 87.0614C134.289 87.8612 134.022 88.6893 133.825 89.5458C133.288 91.8772 133.355 94.2478 134.027 96.6577C134.628 98.0738 135.238 98.8532 135.856 98.9958ZM148.419 109.708C147.825 109.571 147.22 109.206 146.605 108.614C146.019 108.003 145.809 107.065 145.975 105.8C146.171 104.192 146.625 101.841 147.338 98.7484L147.554 97.9716C147.995 96.169 148.497 94.3179 149.06 92.4183C149.159 91.9901 149.284 91.5554 149.436 91.1144C149.951 89.2038 150.656 87.2868 151.55 85.3633L152.349 83.8562C152.91 82.8331 153.567 81.9948 154.319 81.3414C155.501 80.2358 156.853 79.8585 158.375 80.2094C158.804 80.3081 159.23 80.469 159.655 80.6922C160.482 81.2336 161.201 82.0257 161.813 83.0686C162.186 83.731 162.57 84.6211 162.964 85.7391C163.431 86.9741 163.825 88.3053 164.148 89.7325L164.37 90.7234C164.473 91.1479 164.561 91.5816 164.634 92.0244C164.876 93.2577 165.013 94.0784 165.044 94.4864C165.273 95.6667 165.413 96.5258 165.464 97.0637L166.223 101.598L166.843 99.5612C167.178 98.4357 167.446 97.4329 167.649 96.5526L167.981 95.2762L168.102 94.5899C168.315 93.6621 168.446 93.0408 168.494 92.726C168.806 91.37 169.105 90.2363 169.39 89.3249L169.744 87.7904L169.823 87.2826C169.9 86.9495 170.013 86.6247 170.161 86.3081C170.896 85.0745 171.751 84.5702 172.727 84.795C173.512 84.9759 174.035 85.6977 174.295 86.9603C174.357 87.4507 174.361 87.9777 174.306 88.5413C174.251 89.1049 174.215 89.8607 174.197 90.8086C174.168 92.4555 174.023 94.0631 173.762 95.6314L173.515 97.6792C173.364 99.4231 173.116 101.095 172.773 102.694C172.663 103.17 172.387 104.096 171.945 105.472L171.884 105.571C171.235 107.626 170.313 109.18 169.119 110.233C167.882 111.25 166.514 111.587 165.015 111.241C163.54 110.901 162.395 109.998 161.581 108.533C161.002 107.673 160.502 106.418 160.081 104.767C159.632 102.91 159.197 100.505 158.775 97.5514C158.766 97.3739 158.736 97.179 158.685 96.9667C158.663 96.7362 158.461 95.2741 158.08 92.5806C158.091 92.533 158.087 92.4946 158.069 92.4653C157.938 91.1826 157.72 89.9548 157.414 88.7819L157.357 88.5431L155.733 92.9792C155.7 93.122 155.658 93.2501 155.607 93.3635C155.232 94.5549 154.889 95.7161 154.578 96.8471C154.501 97.1801 154.185 98.3349 153.629 100.311C153.004 102.698 152.572 104.302 152.332 105.123L151.68 107.303C151.574 107.654 151.458 107.991 151.334 108.313C150.723 109.55 149.752 110.015 148.419 109.708Z" fill="#FFF2EA"/>
        <g clip-path="url(#clip1)">
            <path d="M130.032 131.568C131.979 132.017 133.86 132.867 135.772 134.14C140.728 137.442 144.535 144.511 144.65 150.573C144.753 155.8 142.962 161.345 138.916 168.555C136.305 173.208 131.442 176.952 126.529 178.135C124.794 178.542 122.604 178.479 120.193 177.924C116.347 177.037 112.033 174.95 108.669 172.302C106.037 170.264 105.155 168.526 103.525 165.367C103.012 164.364 102.431 163.215 101.715 161.984C99.9383 158.791 100.873 153.959 102.003 149.276C103.517 143.043 106.996 138.85 113.704 135.219C120.268 131.659 125.455 130.513 130.032 131.568ZM131.341 125.886C124.476 124.304 117.697 126.462 111.073 130.06C103.462 134.159 98.4839 139.516 96.4506 147.893C95.1265 153.415 93.875 159.734 96.748 164.845C99.621 169.956 100.502 173.255 105.154 176.877C108.891 179.794 113.904 182.406 118.895 183.556C121.987 184.269 125.053 184.429 127.821 183.766C134.493 182.182 140.6 177.268 143.926 171.401C147.535 164.974 150.547 157.916 150.428 150.422C150.288 142.689 145.707 133.75 138.998 129.264C136.419 127.551 133.873 126.47 131.341 125.886Z" fill="#FFF2EA"/>
            <path d="M118.604 165.356C118.142 165.25 117.708 165.019 117.321 164.696C116.848 164.301 116.566 163.742 116.563 163.09C116.495 162.607 116.464 162.183 116.482 161.771C116.466 161.507 116.45 161.243 116.458 160.985C116.455 160.776 116.482 160.548 116.46 160.309L116.492 159.172C116.515 158.735 116.539 158.298 116.587 157.867C116.63 157.46 116.653 157.024 116.677 156.587L116.683 156.562L116.847 154.961C116.947 153.969 117.107 152.94 117.304 151.866L117.595 150.268L117.601 150.244C117.715 149.75 117.804 149.25 117.894 148.75L117.905 148.701C118.343 146.799 118.675 145.47 118.906 144.691L119.005 144.376C119.086 144.134 119.173 143.868 119.278 143.632C119.517 142.933 119.758 142.442 119.989 142.105L119.995 142.08L120.001 142.056C120.287 141.705 120.72 141.493 121.271 141.438C121.714 141.41 122.145 141.431 122.607 141.538C123.088 141.675 123.51 141.85 123.835 142.107C124.289 142.472 124.509 142.965 124.438 143.495C124.421 143.569 124.405 143.747 124.32 144.118C125.205 144.062 126.134 144.146 127.132 144.376C127.936 144.561 128.692 144.839 129.425 145.217C130.232 145.611 130.937 146.111 131.529 146.768C132.627 148.01 133.165 149.461 133.063 151.128C133.027 151.614 132.968 152.095 132.865 152.539C132.66 153.429 132.285 154.279 131.764 155.095L131.758 155.12C131.336 155.725 130.865 156.215 130.348 156.564C129.815 156.987 129.171 157.333 128.453 157.558C127.734 157.783 126.917 157.88 126.068 157.893L126.043 157.887C125.309 157.848 124.592 157.735 123.885 157.572C123.155 157.404 122.485 157.197 121.905 156.933C121.906 157.038 121.748 158.614 121.748 158.614L121.62 160.614L121.536 161.869L121.49 162.405C121.412 163.298 121.349 163.569 121.315 163.718C121.253 163.989 121.141 164.25 121.011 164.48L120.97 164.549L120.904 164.611C120.475 165.137 119.749 165.62 118.604 165.356ZM122.578 152.9C122.773 152.945 123.083 153.042 123.529 153.223L123.553 153.229C124.042 153.445 124.45 153.566 124.766 153.638C125.01 153.695 125.338 153.718 125.731 153.679C126.022 153.642 126.341 153.481 126.694 153.172C126.957 152.921 127.147 152.652 127.259 152.392L127.264 152.367L127.27 152.342C127.483 151.975 127.628 151.566 127.725 151.147C127.809 150.672 127.827 150.259 127.804 149.916C127.695 149.162 127.427 148.658 127.029 148.384L127.01 148.354C126.746 148.163 126.447 148.016 126.063 147.902L125.966 147.879L125.795 147.84L125.801 147.815C125.777 147.81 125.752 147.804 125.728 147.798C125.552 147.784 125.351 147.764 125.175 147.749L125.151 147.743L125.102 147.732C124.744 147.728 124.429 147.759 124.133 147.821C124.079 147.835 124.024 147.848 123.946 147.856C123.722 147.935 123.535 147.969 123.396 148.015C123.163 149.028 122.971 149.973 122.796 150.843L122.7 151.367C122.587 151.861 122.497 152.361 122.407 152.861C122.529 152.889 122.554 152.894 122.578 152.9Z" fill="#FFF2EA"/>
            <path d="M122.455 142.309C122.844 142.399 123.144 142.546 123.407 142.737C123.647 142.922 123.772 143.159 123.733 143.436C123.712 143.64 123.611 144.189 123.412 145.053C124.488 144.833 125.684 144.874 127.023 145.183C127.753 145.351 128.461 145.619 129.127 145.954C129.866 146.307 130.504 146.766 131.01 147.351C131.991 148.435 132.44 149.71 132.365 151.149C132.341 151.586 132.269 152.012 132.172 152.432C131.99 153.222 131.656 154.004 131.157 154.721C130.777 155.258 130.371 155.685 129.909 156.021C129.436 156.406 128.882 156.694 128.248 156.886C127.584 157.098 126.87 157.193 126.081 157.167C125.395 157.139 124.726 157.037 124.045 156.88C122.973 156.633 122.058 156.266 121.293 155.804C121.236 156.051 121.177 156.531 121.109 157.27L120.989 158.569L120.856 160.594L120.771 161.849L120.73 162.36C120.655 163.019 120.613 163.426 120.579 163.574C120.533 163.772 120.463 163.964 120.369 164.15C119.988 164.582 119.468 164.723 118.835 164.577C118.494 164.498 118.152 164.315 117.851 164.064C117.525 163.807 117.375 163.46 117.38 162.993C117.306 162.533 117.281 162.085 117.318 161.704C117.296 161.464 117.274 161.225 117.277 160.992C117.279 160.758 117.282 160.525 117.285 160.291L117.335 159.184C117.353 158.772 117.395 158.365 117.419 157.929C117.467 157.497 117.491 157.061 117.514 156.624L117.673 155.047C117.767 154.081 117.928 153.051 118.112 152.027L118.398 150.454C118.518 149.935 118.607 149.435 118.702 148.911C119.135 147.033 119.461 145.73 119.692 144.95L119.791 144.635C119.872 144.393 119.947 144.177 120.029 143.935C120.25 143.31 120.461 142.838 120.651 142.57C120.8 142.37 121.059 142.248 121.422 142.227C121.713 142.19 122.065 142.219 122.455 142.309ZM121.607 153.665L121.655 153.676L122.133 153.604L122.231 153.626C122.255 153.632 122.309 153.619 122.431 153.647C122.602 153.686 122.888 153.778 123.291 153.923C123.828 154.151 124.279 154.307 124.62 154.385C124.936 154.458 125.343 154.474 125.81 154.451C126.282 154.404 126.745 154.173 127.2 153.757C127.535 153.418 127.791 153.087 127.93 152.703C128.185 152.267 128.347 151.784 128.461 151.29C128.568 150.716 128.603 150.23 128.567 149.832C128.412 148.833 128.056 148.153 127.456 147.754C127.125 147.522 126.758 147.333 126.307 147.177L126.264 147.141L125.972 147.074L126.562 147.184L126.945 147.299L126.756 147.229L126.226 147.081C126.105 147.053 126.002 147.055 125.88 147.027C125.631 146.996 125.406 146.97 125.181 146.944L125.127 146.957C124.696 146.936 124.296 147 123.946 147.075C123.921 147.07 123.916 147.095 123.867 147.083C123.323 147.218 122.961 147.343 122.762 147.427C122.489 148.613 122.263 149.705 122.084 150.705L121.988 151.229C121.848 151.951 121.707 152.673 121.59 153.401L121.607 153.665ZM122.821 140.833C122.261 140.703 121.732 140.66 121.23 140.726C120.285 140.82 119.722 141.263 119.436 141.613L119.4 141.657L119.364 141.701C119.091 142.106 118.839 142.646 118.559 143.414C118.448 143.675 118.355 143.966 118.268 144.232L118.17 144.547C117.933 145.351 117.577 146.674 117.133 148.601L117.122 148.651L117.11 148.7C117.021 149.2 116.937 149.675 116.829 150.144L116.817 150.193L116.806 150.243L116.52 151.816C116.324 152.889 116.182 153.949 116.058 154.935L115.894 156.536L115.882 156.586L115.871 156.635C115.853 157.047 115.835 157.459 115.792 157.866C115.744 158.297 115.715 158.759 115.697 159.171L115.691 159.195L115.685 159.22L115.635 160.327L115.63 160.352L115.624 160.377C115.621 160.61 115.624 160.819 115.603 161.022C115.595 161.281 115.605 161.569 115.616 161.858C115.598 162.27 115.623 162.718 115.691 163.202C115.722 164.067 116.085 164.828 116.736 165.342C117.233 165.743 117.759 166.02 118.319 166.149C119.487 166.418 120.562 166.094 121.32 165.254L121.427 165.122L121.516 164.961C121.687 164.662 121.815 164.327 121.889 164.006C121.929 163.833 121.973 163.531 122.062 162.589L122.127 162.084L122.133 162.059L122.139 162.034L122.223 160.779L122.356 158.754L122.431 158.095C122.815 158.21 123.199 158.324 123.613 158.42C124.368 158.594 125.139 158.693 125.898 158.738L125.923 158.744L125.947 158.75C126.893 158.76 127.765 158.648 128.568 158.391C129.371 158.134 130.099 157.755 130.698 157.269C131.256 156.851 131.788 156.324 132.251 155.65L132.257 155.625L132.262 155.6C132.849 154.721 133.248 153.772 133.47 152.809C133.584 152.315 133.654 151.785 133.695 151.274C133.794 149.398 133.2 147.751 131.954 146.372C131.324 145.654 130.533 145.082 129.635 144.64C128.853 144.252 128.053 143.938 127.201 143.741C126.471 143.573 125.772 143.49 125.092 143.437C125.105 142.712 124.768 142.062 124.185 141.589C123.912 141.214 123.399 140.992 122.821 140.833ZM125.229 148.516C125.356 148.519 125.478 148.547 125.63 148.556L125.673 148.592L125.667 148.617L125.765 148.639L125.862 148.662C126.148 148.754 126.405 148.865 126.577 149.009L126.595 149.039L126.614 149.069C126.884 149.236 127 149.731 127.054 150.055C127.07 150.319 127.044 150.651 126.983 151.028C126.904 151.373 126.781 151.683 126.604 152.007L126.562 152.075L126.521 152.144C126.457 152.311 126.314 152.486 126.141 152.68C125.848 152.951 125.69 152.967 125.636 152.98C125.242 153.02 125.017 152.994 124.896 152.966C124.725 152.927 124.39 152.823 123.804 152.584L123.78 152.579L123.755 152.573C123.591 152.509 123.426 152.445 123.304 152.417C123.367 152.145 123.399 151.893 123.462 151.621L123.468 151.596L123.474 151.571L123.569 151.047C123.71 150.325 123.867 149.529 124.061 148.689C124.085 148.695 124.091 148.67 124.115 148.676C124.194 148.668 124.273 148.66 124.357 148.627C124.575 148.573 124.835 148.555 125.115 148.568L125.229 148.516Z" fill="#FFF2EA"/>
        </g>
    </g>
    <defs>
        <clipPath id="clip0">
            <rect width="211" height="209" fill="white" transform="translate(47.166 0.974609) rotate(12.9793)"/>
        </clipPath>
        <clipPath id="clip1">
            <rect width="54.016" height="58.9919" fill="white" transform="translate(103.028 119.36) rotate(12.9793)"/>
        </clipPath>
    </defs>
</svg>
