<svg width="245" height="243" viewBox="0 0 245 243" fill="none" xmlns="http://www.w3.org/2000/svg">
    <g clip-path="url(#clip0)">
        <path d="M125.643 209.341C114.464 211.335 103.656 211.592 93.5906 210.102C91.4924 209.785 89.4372 209.518 87.4149 209.244C68.8651 206.732 52.852 204.517 37.2372 184.885C34.9545 182.008 28.9284 170.923 27.6145 167.181C26.2477 163.333 24.1409 153.048 23.7329 148.28C20.9742 116.789 20.9808 91.8347 30.0213 72.1271C34.4231 62.4674 41.2201 56.1262 47.27 51.1284C64.1941 37.2758 83.2809 28.1087 102.408 24.6972C105.54 24.1385 108.703 23.7472 111.82 23.4795C118.36 22.9469 124.691 21.8176 130.792 20.7295C146.027 18.0121 160.438 15.4417 177.09 21.8074C185.013 24.8316 190.994 28.6055 195.934 33.6024C209.956 47.9287 221.3 79.0989 222.881 107.804C223.744 123.324 222.461 137.499 219.16 148.749C215.964 159.635 210.887 167.801 204.494 172.399C176.445 192.558 149.947 205.006 125.643 209.341Z" fill="#22C79E"/>
        <path d="M103.403 30.2825C106.47 29.7355 109.566 29.3561 112.617 29.1001C119.256 28.5499 125.621 27.4147 131.754 26.3206C146.693 23.6562 160.84 21.1329 176.871 27.2635C184.358 30.1349 189.94 33.5766 194.481 38.2413C200.841 44.7137 206.831 55.4015 211.411 68.2999C215.866 80.875 218.709 94.7172 219.383 107.275C220.186 121.885 218.975 135.124 215.916 145.64C212.989 155.555 208.374 163.063 202.557 167.27C174.851 187.252 148.63 199.536 124.656 203.812C113.675 205.771 103.107 206.042 93.2498 204.573C91.1516 204.256 89.0634 203.994 87.0412 203.721C77.9032 202.47 69.2897 201.297 61.2179 198.012C52.6676 194.523 45.5992 189.041 38.986 180.77C37.1857 178.498 31.5727 168.204 30.5302 165.22C29.4248 162.075 27.5005 152.622 27.1559 148.592C26.0626 136.166 25.0393 121.654 25.838 108.199C26.5814 95.3884 28.8942 84.891 32.9408 76.1014C37.0234 67.1324 43.5075 61.1352 49.2576 56.3638C65.8948 42.62 84.6058 33.6352 103.403 30.2825ZM101.41 19.1124C81.4263 22.6767 62.3134 32.079 45.2674 46.011C38.3838 51.6761 31.6695 58.2907 27.1097 68.2091C17.0428 90.1744 17.6593 117.668 20.3077 147.969C20.7725 153.245 22.9427 164.269 24.6737 169.204C26.3318 173.922 32.7942 185.735 35.4633 189.063C53.843 212.178 72.6179 212.517 93.9062 215.693C104.737 217.277 115.723 216.873 126.639 214.926C154.834 209.897 182.641 194.68 206.273 177.614C220.382 167.433 228.106 142.255 226.245 108.356C224.674 79.7073 213.386 45.4153 197.287 28.9815C191.012 22.609 184.065 18.9498 177.197 16.3136C153.102 7.12649 133.615 15.9615 110.987 17.8652C107.772 18.1506 104.576 18.5477 101.41 19.1124Z" fill="white"/>
        <path d="M101.168 105.915C99.7739 106.164 98.3555 106.206 96.9126 106.042C93.536 105.602 90.4201 103.914 87.5649 100.976C86.2742 99.7183 85.0947 98.1803 84.0265 96.3621C82.2374 93.2837 81.0149 89.9058 80.3591 86.2285C80.1147 84.8585 79.9669 83.3349 79.9158 81.6577C79.8484 79.6113 79.9827 77.653 80.3187 75.7827C80.9468 72.7692 81.9125 70.3278 83.2158 68.4586C84.1131 67.2322 85.1527 66.1788 86.3349 65.2983C88.1162 64.1622 90.0283 63.412 92.0713 63.0476C95.0756 62.5117 98.0648 62.5862 101.039 63.2709C103.101 63.8455 105.184 65.0983 107.289 67.0292C108.441 68.0637 109.525 69.3459 110.542 70.8757C111.367 72.1668 112.099 73.6978 112.737 75.4687C113.276 76.9598 113.717 78.6667 114.06 80.5895C114.447 83.1741 114.456 85.8011 114.089 88.4705C113.647 91.9716 112.603 95.2207 110.955 98.2177C110.896 98.3027 110.85 98.3975 110.819 98.5023C109.353 100.847 107.829 102.594 106.249 103.744C104.688 104.866 102.995 105.589 101.168 105.915ZM99.7956 99.0549C101.55 98.742 103.07 97.5286 104.354 95.4147C104.953 94.4647 105.473 93.3429 105.911 92.0494C106.373 90.6032 106.668 89.4097 106.798 88.469L106.882 87.8961C107.097 86.3202 107.179 84.9043 107.129 83.6486C107.07 82.7662 106.96 81.8683 106.797 80.955C106.587 79.7773 106.279 78.679 105.874 77.66C105.542 76.6282 105.036 75.6024 104.358 74.5825L104.156 74.2838C102.716 72.1848 101.029 70.7248 99.0972 69.9038C97.191 69.2271 95.2764 69.0602 93.3536 69.4031C91.1425 69.7975 89.3644 71.5778 88.0196 74.744C87.6228 75.8563 87.3565 77.1438 87.2206 78.6064C87.1586 79.5102 87.1206 80.4098 87.1067 81.305C87.1357 82.4407 87.2702 83.6814 87.5102 85.0274C87.866 87.0223 88.4828 89.0202 89.3605 91.0212C90.0349 92.4385 90.8625 93.7416 91.8433 94.9306C94.6212 98.1303 97.2719 99.5051 99.7956 99.0549ZM130.001 97.3873C127.718 97.7945 125.519 97.4924 123.404 96.4808C122.079 95.7252 120.888 94.7473 119.831 93.5471L119.397 92.9921C118.168 91.5249 117.114 89.5801 116.236 87.1576C115.981 86.2855 115.753 85.4211 115.55 84.5644C115.211 82.6657 115.059 80.9073 115.093 79.2893C115.093 77.2061 115.424 74.8903 116.086 72.342C116.673 70.3525 117.258 68.9711 117.839 68.1978C117.986 68.0476 118.203 67.9468 118.492 67.8954C119.381 67.7368 120.439 67.9696 121.667 68.5939C122.914 69.1898 123.608 69.8844 123.749 70.6775C123.822 71.0861 123.715 71.5268 123.427 71.9997C123.155 73.1147 122.976 74.3369 122.891 75.6665C122.796 77.221 122.841 78.7257 123.026 80.1806L123.209 81.4128C123.44 82.7107 123.75 83.821 124.138 84.7439C124.495 85.7714 124.744 86.3345 124.886 86.4332C125.509 87.5621 126.074 88.4407 126.583 89.0692C127.665 90.2651 128.722 90.7708 129.756 90.5865C130.669 90.4236 131.699 89.5951 132.846 88.1009C133.39 87.2598 133.788 86.4325 134.04 85.6188C134.375 84.7159 134.579 83.7743 134.652 82.7941C134.814 81.4757 134.781 80.1796 134.554 78.9057C134.357 77.8001 134.069 76.6735 133.691 75.5258L133.635 75.4241C133.287 74.4446 132.834 73.4342 132.276 72.393C131.636 71.168 131.118 70.2807 130.723 69.7313L130.227 69.0385C129.91 68.6488 129.725 68.3097 129.674 68.0213C129.537 67.2522 129.748 66.5574 130.306 65.9369C130.861 65.2924 131.607 64.8865 132.544 64.7193C134.227 64.4193 135.319 65.1173 135.819 66.8135L136.741 68.4347L137.61 70.1769C138.615 72.4775 139.28 74.2561 139.603 75.5128L140.161 78.0172C140.44 79.5795 140.495 81.2807 140.328 83.121L140.066 84.9904L139.963 85.4552C139.636 87.1006 139.069 88.7146 138.26 90.2973C136.956 92.8609 135.348 94.7597 133.435 95.9936C132.372 96.7041 131.227 97.1687 130.001 97.3873ZM141.041 63.7619C140.993 63.7704 140.63 63.8227 139.953 63.9187C139.276 64.0147 138.659 63.4056 138.102 62.0913L137.723 59.9643C137.645 59.5316 137.602 59.217 137.591 59.0205L137.546 58.7681C137.418 56.6582 138.159 55.4597 139.769 55.1725C140.394 55.061 140.981 55.1547 141.531 55.4535C142.278 55.8906 142.763 56.734 142.986 57.9838C143.148 58.4757 143.268 58.9379 143.345 59.3706C143.512 59.8865 143.651 60.4569 143.762 61.0818C143.809 61.3462 143.82 61.617 143.795 61.8942C143.161 62.925 142.243 63.5475 141.041 63.7619ZM149.329 95.8372C148.175 96.0429 147.089 95.4432 146.069 94.0378C145.112 92.1501 144.104 89.0689 143.044 84.7941L142.73 83.6597C142.351 82.0905 142.145 81.2841 142.113 81.2403C141.438 78.4342 141.006 76.4281 140.816 75.2221C140.542 73.6839 140.353 72.4899 140.251 71.6401C140.156 70.2684 140.379 69.2243 140.92 68.5077C141.407 67.9 141.999 67.5341 142.696 67.4098C143.585 67.2511 144.383 67.4809 145.088 68.0991C145.643 68.5704 146 69.2507 146.159 70.14L146.213 70.6512L146.59 72.5555L147.097 74.7715C147.211 75.2719 147.335 75.7582 147.468 76.2303L148.037 78.584C148.296 79.4802 148.531 80.3807 148.742 81.2854L150.581 87.8393C151.172 89.7673 151.563 91.26 151.751 92.3176C151.723 94.381 150.915 95.5542 149.329 95.8372Z" fill="#FFF2EA"/>
        <g clip-path="url(#clip1)">
            <path d="M194.476 129.025C195.161 132.37 195.407 135.802 195.185 139.196C195.042 141.371 194.611 143.73 193.002 145.123C191.795 146.164 190.153 146.46 188.598 146.719C183.272 147.607 177.943 148.495 172.619 149.383C171.183 149.623 169.678 149.891 168.537 150.819C166.955 152.105 166.455 154.339 165.295 156.039C163.111 159.243 158.306 160.093 155.142 157.839C153.961 156.998 152.987 155.786 151.634 155.303C150.392 154.858 149.046 155.093 147.761 155.336C131.799 158.36 115.834 161.381 99.8722 164.404C98.4337 164.676 96.9077 164.994 95.8669 166.05C94.8185 167.11 94.485 168.704 93.7913 170.046C91.5608 174.374 84.9486 175.245 81.6348 171.647C80.9596 170.917 80.4062 170.042 79.5912 169.48C77.2542 167.879 74.1992 169.6 71.6708 171.307C71.063 171.718 70.2333 171.37 70.1122 170.647L68.5038 161.041C67.981 161.222 67.4571 161.398 66.9299 161.571C65.7132 154.473 64.2118 147.407 62.4381 140.434C63.0168 140.232 63.5894 140.029 64.1576 139.819L62.7712 133.049C63.6076 133.255 64.6022 133.383 66.5657 133.163C74.3393 132.286 85.6026 129.35 91.5333 127.913C99.7909 125.91 108.119 124.199 116.439 122.487C135.333 118.6 154.223 114.714 173.116 110.822C176.884 110.045 180.998 109.319 184.441 111.162C186.614 112.329 188.213 114.387 189.532 116.519C191.9 120.339 193.571 124.605 194.476 129.025Z" fill="#FFF2EA"/>
            <path d="M64.1575 139.819C64.3313 139.76 64.5039 139.696 64.6765 139.632C70.6152 137.439 76.694 135.511 82.9744 134.694C86.4336 134.245 89.9213 134.131 93.3828 133.722C97.2323 133.268 101.026 132.442 104.814 131.618C129.898 126.158 154.989 120.7 180.079 115.238C181.294 114.978 182.563 114.713 183.757 115.048C185.556 115.548 186.718 117.258 187.624 118.893C190.201 123.55 191.991 128.64 192.897 133.885C193.065 134.859 192.341 136.693 191.598 136.037C189.301 134.002 185.797 134.479 182.783 135.08C175.165 136.594 167.547 138.106 159.929 139.62C157.438 140.119 154.939 140.611 152.484 141.276C149.34 142.123 146.278 143.239 143.221 144.353C139.316 145.778 135.845 147.312 131.888 148.58C129.592 149.313 127.276 149.973 124.94 150.562C118.81 152.115 112.557 153.176 106.26 153.731C103.791 153.951 101.314 154.09 98.8352 154.152C93.0281 154.295 86.793 153.158 81.554 155.671C77.309 157.709 72.9508 159.501 68.5037 161.041" fill="#22C79E"/>
            <path d="M102.675 138.904C104.452 144.471 105.777 150.213 106.61 156.013C106.857 157.723 107.253 159.764 108.543 160.486C109.172 160.837 109.863 160.767 110.513 160.673C114.69 160.089 118.76 158.927 122.823 157.77C123.538 157.566 124.29 157.335 124.782 156.691C125.598 155.627 125.434 153.852 125.208 152.302C124.292 146.113 123.013 139.964 121.382 133.925C121.017 132.576 120.52 131.07 119.476 130.481C116.814 128.975 111.625 131.58 108.872 132.087C105.156 132.774 100.792 132.556 102.675 138.904Z" fill="#FEF1E9"/>
            <path d="M164.16 126.312C165.937 131.879 167.262 137.621 168.096 143.421C168.343 145.13 168.738 147.172 170.029 147.893C170.658 148.244 171.349 148.174 171.998 148.081C176.178 147.497 180.246 146.335 184.308 145.178C185.023 144.974 185.776 144.743 186.267 144.099C187.083 143.035 186.92 141.26 186.693 139.71C185.775 133.521 184.495 127.372 182.867 121.332C182.502 119.984 182.005 118.478 180.962 117.889C178.299 116.383 173.111 118.988 170.358 119.495C166.639 120.182 162.277 119.964 164.16 126.312Z" fill="#FEF1E9"/>
            <path d="M175.284 125.888C176.42 130.586 177.443 135.385 178.325 140.166C178.589 141.578 178.927 143.271 179.388 144.002C179.612 144.357 179.805 144.377 179.987 144.374C181.145 144.365 182.207 143.871 183.266 143.382C183.454 143.295 183.648 143.193 183.72 142.724C183.842 141.951 183.598 140.498 183.36 139.221C182.407 134.111 181.354 128.993 180.211 123.928C179.956 122.797 179.641 121.524 179.271 120.932C178.325 119.423 177.096 120.954 176.346 121.059C175.333 121.201 174.03 120.545 175.284 125.888Z" fill="#22C79E"/>
            <path d="M172.932 126.37C173.734 131.136 174.685 135.95 175.748 140.694C176.061 142.096 176.415 143.786 176.279 144.639C176.212 145.053 176.043 145.148 175.874 145.216C174.806 145.664 173.636 145.626 172.469 145.594C172.262 145.588 172.044 145.569 171.793 145.167C171.377 144.503 171.03 143.072 170.747 141.804C169.614 136.731 168.571 131.611 167.631 126.504C167.421 125.364 167.207 124.071 167.317 123.38C167.594 121.621 169.326 122.546 170.057 122.347C171.044 122.079 171.979 120.965 172.932 126.37Z" fill="#22C79E"/>
            <path d="M113.806 138.478C114.943 143.176 115.966 147.975 116.848 152.757C117.111 154.168 117.449 155.862 117.911 156.593C118.134 156.947 118.327 156.968 118.509 156.965C119.668 156.956 120.729 156.461 121.789 155.973C121.977 155.886 122.17 155.783 122.243 155.314C122.364 154.541 122.121 153.088 121.882 151.811C120.93 146.701 119.876 141.583 118.733 136.518C118.479 135.387 118.164 134.115 117.794 133.522C116.848 132.013 115.619 133.545 114.869 133.65C113.855 133.792 112.552 133.136 113.806 138.478Z" fill="#22C79E"/>
            <path d="M111.454 138.96C112.256 143.727 113.202 148.541 114.271 153.285C114.583 154.686 114.938 156.376 114.801 157.23C114.735 157.643 114.565 157.738 114.397 157.807C113.328 158.254 112.158 158.217 110.992 158.184C110.785 158.178 110.567 158.16 110.316 157.757C109.9 157.094 109.552 155.662 109.27 154.394C108.137 149.321 107.094 144.201 106.154 139.094C105.943 137.955 105.732 136.661 105.839 135.97C106.116 134.211 107.848 135.136 108.579 134.938C109.567 134.67 110.507 133.555 111.454 138.96Z" fill="#22C79E"/>
            <path d="M92.2906 140.788C93.0726 143.365 93.6726 146.016 94.0769 148.687C94.1979 149.473 94.3823 150.416 94.9026 150.766C95.1576 150.937 95.4324 150.912 95.688 150.877C97.3441 150.663 98.9485 150.183 100.55 149.704C100.833 149.62 101.127 149.523 101.314 149.236C101.628 148.757 101.54 147.941 101.426 147.23C100.98 144.379 100.39 141.543 99.6637 138.749C99.5022 138.128 99.2816 137.428 98.8632 137.142C97.7835 136.418 95.7539 137.542 94.6658 137.739C93.1955 138.009 91.4587 137.856 92.2906 140.788Z" fill="#FFF2EA"/>
            <path d="M130.298 143.817C133.711 142.824 137.219 142.04 140.744 141.481C141.784 141.316 143.028 141.07 143.501 140.448C143.733 140.146 143.707 139.825 143.674 139.524C143.444 137.591 142.863 135.73 142.28 133.875C142.179 133.548 142.063 133.206 141.686 132.994C141.065 132.644 139.991 132.77 139.048 132.923C135.285 133.534 131.533 134.311 127.838 135.251C127.015 135.459 126.092 135.737 125.704 136.242C124.719 137.526 126.135 139.867 126.358 141.136C126.667 142.844 126.408 144.882 130.298 143.817Z" fill="#FFF2EA"/>
            <path d="M127.807 132.892C131.26 132.096 134.777 131.358 138.28 130.689C139.314 130.492 140.556 130.24 141.105 129.974C141.372 129.842 141.391 129.741 141.398 129.651C141.442 129.053 141.133 128.522 140.823 127.997C140.77 127.906 140.704 127.808 140.366 127.791C139.812 127.762 138.751 127.953 137.813 128.131C134.072 128.849 130.319 129.62 126.598 130.436C125.77 130.62 124.835 130.838 124.388 131.055C123.253 131.607 124.307 132.183 124.349 132.566C124.412 133.072 123.879 133.776 127.807 132.892Z" fill="#FFF2EB"/>
            <path d="M150.135 139.755C153.549 138.761 157.056 137.977 160.581 137.418C161.622 137.254 162.866 137.007 163.338 136.385C163.57 136.083 163.545 135.763 163.512 135.461C163.281 133.528 162.7 131.668 162.118 129.813C162.016 129.485 161.901 129.143 161.523 128.932C160.903 128.582 159.826 128.708 158.886 128.861C155.123 129.471 151.371 130.248 147.675 131.188C146.852 131.396 145.929 131.674 145.541 132.179C144.556 133.464 145.972 135.805 146.195 137.073C146.508 138.781 146.248 140.819 150.135 139.755Z" fill="#FFF2EA"/>
            <path d="M76.8958 153.403C80.2839 152.286 83.7847 151.469 87.3244 150.981C88.3694 150.839 89.6143 150.598 90.0401 149.748C90.2495 149.334 90.1964 148.879 90.1335 148.446C89.731 145.672 88.9764 142.964 88.2196 140.259C88.0879 139.783 87.9396 139.282 87.5374 138.95C86.8762 138.4 85.7942 138.487 84.8469 138.618C81.0697 139.161 77.319 139.943 73.639 140.96C72.8194 141.185 71.9037 141.498 71.5528 142.184C70.6624 143.932 72.3091 147.397 72.6468 149.228C73.1182 151.697 73.0294 154.583 76.8958 153.403Z" fill="#FFF2EB"/>
            <path d="M147.643 128.829C151.097 128.033 154.614 127.296 158.117 126.627C159.151 126.429 160.393 126.178 160.942 125.911C161.209 125.779 161.228 125.678 161.235 125.588C161.279 124.991 160.97 124.46 160.66 123.935C160.607 123.843 160.541 123.745 160.203 123.728C159.649 123.699 158.588 123.891 157.65 124.068C153.909 124.786 150.156 125.557 146.435 126.374C145.607 126.558 144.672 126.775 144.225 126.992C143.089 127.545 144.144 128.12 144.186 128.503C144.252 129.009 143.719 129.713 147.643 128.829Z" fill="#FFF2EB"/>
            <path d="M91.5777 164.049C91.0728 162.866 90.2642 161.904 89.1449 161.153C88.5233 160.74 87.8387 160.466 87.0954 160.338C86.3516 160.208 85.6222 160.217 84.9066 160.364C83.1655 160.72 81.9479 161.75 81.268 163.452C81.175 163.765 81.104 164.074 81.0654 164.387C81.0645 164.439 81.0576 164.489 81.038 164.533C80.9197 165.406 80.9406 166.247 81.109 167.07C81.3954 168.468 82.0426 169.675 83.0611 170.687C83.5532 171.234 84.1654 171.643 84.8994 171.907C85.8713 172.231 86.8541 172.287 87.8549 172.082C88.6555 171.918 89.3937 171.561 90.0691 171.023C90.572 170.562 90.9703 170.052 91.2614 169.493C91.4997 169.038 91.7073 168.462 91.8885 167.77C92.0192 167.181 92.0509 166.554 91.9946 165.889C91.9813 165.629 91.9478 165.381 91.8983 165.14C91.8119 164.718 91.7092 164.356 91.5777 164.049ZM88.7634 166.279L88.7538 166.33C88.7643 166.702 88.7065 167.145 88.5782 167.663L88.5844 167.693C88.5304 167.889 88.4589 168.084 88.3681 168.268C88.0933 168.907 87.8568 169.287 87.657 169.4C87.4577 169.515 87.3279 169.578 87.2649 169.591C86.9386 169.658 86.4937 169.481 85.9232 169.066C85.1248 168.293 84.6251 167.415 84.4247 166.436C84.3511 166.077 84.311 165.714 84.3186 165.347C84.3055 164.767 84.382 164.205 84.5502 163.659C84.7205 163.11 84.9749 162.804 85.3122 162.735C85.6247 162.671 86.0939 162.772 86.7258 163.04C87.0499 163.213 87.3816 163.479 87.7247 163.843C88.0645 164.205 88.3132 164.583 88.4742 164.978C88.5696 165.193 88.6532 165.462 88.7166 165.772C88.7498 165.933 88.7664 166.098 88.7634 166.279Z" fill="#22C79E"/>
            <path d="M159.872 157.333C158.871 157.538 157.888 157.482 156.917 157.158C156.185 156.894 155.57 156.485 155.078 155.938C154.059 154.924 153.413 153.719 153.126 152.321C152.958 151.498 152.937 150.657 153.058 149.783C153.075 149.74 153.084 149.689 153.085 149.635C153.124 149.324 153.195 149.015 153.285 148.703C153.967 146.997 155.182 145.969 156.923 145.612C157.639 145.466 158.369 145.459 159.112 145.587C159.855 145.714 160.54 145.989 161.161 146.401C162.284 147.151 163.089 148.115 163.597 149.296C163.726 149.604 163.831 149.965 163.918 150.39C163.967 150.629 164.001 150.876 164.014 151.136C164.07 151.802 164.039 152.428 163.908 153.018C163.724 153.71 163.517 154.289 163.281 154.743C162.99 155.303 162.592 155.813 162.088 156.27C161.411 156.812 160.675 157.168 159.872 157.333ZM159.285 154.842C159.348 154.829 159.478 154.768 159.677 154.65C159.877 154.538 160.11 154.158 160.385 153.519C160.476 153.335 160.548 153.143 160.602 152.944L160.595 152.914C160.726 152.395 160.781 151.953 160.774 151.58L160.781 151.53C160.784 151.352 160.767 151.184 160.734 151.023C160.671 150.715 160.59 150.446 160.491 150.229C160.33 149.834 160.084 149.456 159.742 149.094C159.399 148.733 159.07 148.466 158.743 148.291C158.114 148.022 157.642 147.925 157.33 147.989C156.993 148.058 156.738 148.364 156.567 148.91C156.399 149.456 156.323 150.018 156.333 150.598C156.328 150.965 156.365 151.326 156.439 151.688C156.64 152.667 157.14 153.547 157.935 154.318C158.508 154.732 158.961 154.908 159.285 154.842Z" fill="#22C79E"/>
            <path d="M69.6264 164.345C69.857 165.429 69.9101 165.535 70.1764 166.612C70.262 166.96 70.3735 167.337 70.7245 167.531C70.9942 167.676 71.3564 167.673 71.6906 167.659C73.5224 167.563 75.3539 167.188 77.0717 166.551C77.4811 166.401 77.904 166.22 78.182 165.918C78.6691 165.381 78.5374 164.668 78.5728 164.018C78.694 161.973 80.7463 160.193 83.004 159.262C84.7132 158.555 86.7304 158.208 88.4049 158.768C89.0311 158.979 89.5831 159.303 90.0925 159.656C91.1277 160.373 92.0274 161.223 92.7612 162.169C92.9986 162.478 93.2411 162.811 93.6349 162.976C94.0528 163.147 94.5735 163.095 95.0557 163.036C97.8841 162.674 100.692 162.099 103.431 161.33C103.771 161.234 104.116 161.132 104.398 160.932C104.722 160.7 104.911 160.367 105.04 160.037C105.567 158.687 105.245 157.27 104.917 155.934C104.883 155.796 104.841 155.647 104.715 155.562C104.603 155.487 104.442 155.472 104.295 155.462C102.853 155.369 101.397 155.361 99.9393 155.44C97.2729 155.589 97.0135 155.87 94.3469 155.962C92.1764 156.035 88.8756 155.723 86.7099 156.015C84.6885 156.286 82.5622 156.896 80.6298 157.546C78.2859 158.335 75.0408 160.456 72.7012 161.238C70.7474 161.881 69.1934 162.342 69.6264 164.345Z" fill="#22C79E"/>
            <path d="M127.057 155.671C127.138 155.98 127.256 156.322 127.579 156.461C127.839 156.574 128.154 156.518 128.439 156.462C135.38 155.144 142.284 153.661 149.155 152.014C149.555 151.918 149.966 151.817 150.289 151.584C151.052 151.037 151.016 150.053 151.173 149.218C151.466 147.661 152.682 146.247 154.254 145.427C155.825 144.606 157.708 144.354 159.455 144.585C160.972 144.783 162.441 145.356 163.398 146.372C163.921 146.933 164.286 147.615 164.899 148.11C165.511 148.599 166.521 148.843 167.213 148.376C168.005 147.845 167.894 146.805 167.702 145.979C167.314 144.318 166.928 142.66 166.54 141C166.421 140.49 166.246 139.915 165.708 139.702C165.338 139.555 164.899 139.628 164.494 139.702C158.843 140.717 153.154 141.745 147.764 143.663C145.482 144.473 143.269 145.44 141.028 146.339C138.074 147.527 135.061 148.604 132.018 149.567C130.77 149.96 129.549 150.318 128.263 150.565C127.483 150.716 126.662 150.827 126.399 151.589C126.008 152.721 126.765 154.591 127.057 155.671Z" fill="#22C79E"/>
            <path d="M187.469 136.157C187.222 136.47 187.282 136.921 187.358 137.317C187.695 139.076 188.072 140.83 188.483 142.574C188.538 142.8 188.595 143.037 188.757 143.201C189.011 143.466 189.43 143.46 189.795 143.44C190.833 143.378 191.997 143.26 192.655 142.454C193.354 141.597 193.178 140.35 192.959 139.266C192.818 138.547 192.628 137.76 192.04 137.329C191.647 137.044 191.145 136.964 190.715 136.735C189.838 136.26 188.444 134.908 187.469 136.157Z" fill="#22C79E"/>
            <path d="M72.0137 134.21L66.8399 135.284C65.9406 135.468 65.2293 135.72 65.2146 135.857C65.1638 136.279 65.1092 136.696 65.0579 137.115C65.0431 137.238 65.053 137.37 65.5711 137.361C66.1919 137.351 67.2975 137.142 68.278 136.949C76.9025 135.26 85.5588 133.545 94.1359 131.679C97.6447 130.915 101.838 130.102 105.364 129.38C108.201 128.799 110.334 128.291 113.169 127.736C133.226 123.828 151.559 119.811 173.301 115.549C175.478 115.121 177.679 114.707 179.78 114.197C180.303 114.073 180.787 113.936 181.086 113.809C181.444 113.659 181.449 113.558 181.439 113.466C181.406 113.081 181.366 112.692 181.33 112.305C181.318 112.205 181.297 112.104 180.9 112.105C179.951 112.099 177.561 112.663 176.589 112.842C174.735 113.176 172.902 113.548 171.04 113.939C148.246 118.744 126.412 122.818 104.172 127.593C101.644 128.136 99.1263 128.692 96.5973 129.233C94.1149 129.764 91.6216 130.283 89.1325 130.796C83.9845 131.87 77.1546 133.143 72.0137 134.21Z" fill="#22C79E"/>
            <path d="M62.4381 140.434L61.3627 135.183C61.1624 134.205 61.793 133.249 62.7712 133.049L64.1069 137.395L64.1799 140.248L62.4381 140.434Z" fill="#FFF2EA"/>
            <path d="M67.6348 161.194C67.2168 161.418 66.9954 161.89 67.0906 162.354L69.0014 171.685C69.0933 172.134 69.5319 172.423 69.9809 172.331C70.4256 172.24 70.7146 171.809 70.6297 171.363L68.7332 161.405C68.7092 161.279 68.6411 161.165 68.5411 161.085C68.3715 160.948 68.1364 160.926 67.9443 161.029L67.6348 161.194Z" fill="#FFF2EA"/>
        </g>
    </g>
    <defs>
        <clipPath id="clip0">
            <rect width="211" height="209" fill="white" transform="translate(0.290039 37.1483) rotate(-10.113)"/>
        </clipPath>
        <clipPath id="clip1">
            <rect width="131.642" height="45.0487" fill="white" transform="translate(61 133.412) rotate(-11.574)"/>
        </clipPath>
    </defs>
</svg>
