<?xml version="1.0" encoding="utf-8"?>
<!-- Generator: Adobe Illustrator 25.1.0, SVG Export Plug-In . SVG Version: 6.00 Build 0)  -->
<svg version="1.1" id="Calque_1" xmlns="http://www.w3.org/2000/svg" xmlns:xlink="http://www.w3.org/1999/xlink" x="0px" y="0px"
	 viewBox="0 0 555 235" style="enable-background:new 0 0 555 235;" xml:space="preserve">
<style type="text/css">
	.st0{fill:#E3572B;}
	.st1{fill:none;stroke:#FDDBA3;stroke-linecap:round;stroke-miterlimit:10;}
	.st2{fill:#EDAC1D;}
</style>
<g>
	<g>
		<path class="st0" d="M52,124.7c-3.1,9.5-12.1,11.5-20.2,6.2c-5.8-3.8-10.1-2.8-12.1-2c-1.9,0.8-3.8,1.4-5.8,1.7
			c-2.9,0.5-5.8,0.5-8.5,0.1c-1.9-0.2-3.8-0.6-5.6-1V91.1c2.1,0.6,4.1,1.9,5.4,3.6c2.2,3,7.2,2.4,13.6,0.3c4.4-1.4,11,1.4,13.4,5.7
			c1.4,2.6,0.4,4.9,2.5,7.1c1.7,1.7,3.5,1.6,5.6,2.2C46.5,111.7,53.9,118.8,52,124.7z"/>
		<path class="st1" d="M41.7,122.3c0,0-18.7-12.6-41.7-12.7"/>
	</g>
	<path class="st2" d="M7.8,142.7c-0.9,4-4,7.2-8,8.4v-27.5c2.1,2.1,4,4.5,5.6,7.1C7.6,134.5,8.8,138.6,7.8,142.7z"/>
</g>
<g>
	<g>
		<path class="st0" d="M531.5,212.2c1.3-0.4,2.3-0.3,3.3-1.3c1.3-1.3,0.6-2.6,1.5-4.1c1.4-2.5,5.2-4.1,7.8-3.3
			c3.7,1.2,6.6,1.6,7.9-0.2c0.7-1,1.9-1.7,3.1-2.1v22.5c-1,0.3-2.1,0.5-3.2,0.6c-1.6,0.2-3.2,0.2-4.9-0.1c-1.2-0.2-2.3-0.6-3.4-1
			c-1.2-0.5-3.7-1.1-7.1,1.2c-4.7,3.1-10,1.9-11.8-3.6C523.6,217.3,527.9,213.2,531.5,212.2z"/>
		<path class="st1" d="M555,212c-13.4,0-24.3,7.4-24.3,7.4"/>
	</g>
</g>
</svg>
