<svg width="61" height="65" viewBox="0 0 61 65" fill="none" xmlns="http://www.w3.org/2000/svg">
    <rect width="61" height="65" rx="17" fill="white"/>
    <rect x="4" y="6" width="53" height="53" rx="16" fill="white" stroke="#04D99D" stroke-width="2"/>
    <path d="M22 46C21.4465 46 21 45.6145 21 45.1365V34.8635C21 34.3855 21.4465 34 22 34C22.5535 34 23 34.3855 23 34.8635V45.1365C23 45.6124 22.5535 46 22 46Z" fill="#3EE5B1"/>
    <path d="M17 49C16.4465 49 16 48.6125 16 48.1321V35.8679C16 35.3875 16.4465 35 17 35C17.5535 35 18 35.3875 18 35.8679V48.1321C18 48.6125 17.5512 49 17 49Z" fill="#3EE5B1"/>
    <path d="M44 49C43.4465 49 43 48.6125 43 48.1321V35.8679C43 35.3875 43.4465 35 44 35C44.5535 35 45 35.3875 45 35.8679V48.1321C44.9977 48.6125 44.5512 49 44 49Z" fill="#3EE5B1"/>
    <path d="M39 46C38.4465 46 38 45.6145 38 45.1365V34.8635C38 34.3855 38.4465 34 39 34C39.5535 34 40 34.3855 40 34.8635V45.1365C39.9977 45.6124 39.5512 46 39 46Z" fill="#3EE5B1"/>
    <path d="M50.3199 32H10.6801C9.75285 32 9 31.3265 9 30.5009C9 29.6735 9.75483 29 10.6801 29H50.3199C51.2471 29 52 29.6735 52 30.5009C52 31.3265 51.2471 32 50.3199 32Z" fill="#FFCDB6"/>
    <path d="M50.3199 27H10.6801C9.75285 27 9 26.3261 9 25.5C9 24.6739 9.75483 24 10.6801 24H50.3199C51.2471 24 52 24.6739 52 25.5C52 26.3261 51.2471 27 50.3199 27Z" fill="#FFCDB6"/>
    <path d="M51.152 37H9.85192C9.38039 37 9 36.6407 9 36.1953C9 34.9844 10.0421 34 11.324 34H49.676C50.9579 34 52 34.9844 52 36.1953C52.002 36.6407 51.6216 37 51.152 37Z" fill="#FFCDB6"/>
</svg>
