<svg width="61" height="65" viewBox="0 0 61 65" fill="none" xmlns="http://www.w3.org/2000/svg">
    <rect width="61" height="65" rx="17" fill="white"/>
    <rect x="3" y="6" width="53" height="53" rx="16" fill="white" stroke="#04D99D" stroke-width="2"/>
    <path d="M35 32.4625C35 30.0833 33.2809 28.0932 31.0028 27.6351V16H28.9992V27.6331C26.7191 28.0912 25 30.0814 25 32.4605C25 34.8397 26.7211 36.8318 28.9992 37.2899V49H31.0028V37.2899C33.2809 36.8318 35 34.8416 35 32.4625Z" fill="#3EE5B1"/>
    <path d="M51 41H48.2516C47.0088 41 46 39.94 46 38.6384V27.3636C46 26.06 47.0107 25 48.2516 25H51V41Z" fill="#3EE5B1"/>
    <path d="M14 38.6384C14 39.94 12.9897 41 11.7492 41H9V25H11.7473C12.9897 25 13.9981 26.06 13.9981 27.3636V38.6384H14Z" fill="#3EE5B1"/>
    <path d="M45.9273 50H14.0707C10.1723 50 7 46.9008 7 43.0879V21.914C7 18.1012 10.1723 15 14.0707 15H45.9273C49.8256 15 53 18.1012 53 21.914V43.0879C53 46.9008 49.8277 50 45.9273 50ZM14.0707 16.9715C11.2836 16.9715 9.01675 19.1894 9.01675 21.914V43.0879C9.01675 45.8125 11.2836 48.0285 14.0707 48.0285H45.9273C48.7144 48.0285 50.9832 45.8125 50.9832 43.0879V21.914C50.9832 19.1894 48.7164 16.9715 45.9273 16.9715H14.0707Z" fill="#FFCDB6"/>
</svg>
