<svg width="55" height="55" viewBox="0 0 55 55" fill="none" xmlns="http://www.w3.org/2000/svg">
    <rect x="1" y="1" width="53" height="53" rx="16" fill="white" stroke="#04D99D" stroke-width="2"/>
    <path d="M28.557 48C28.5548 48 28.5503 48 28.548 48C27.9505 47.9954 27.4387 47.5605 27.326 46.9622L24.1289 30.0912L22.1516 34.9579C21.9577 35.4365 21.5 35.7471 20.9927 35.7471H14.2536C13.5614 35.7471 13 35.1742 13 34.4677C13 33.7613 13.5614 33.1884 14.2536 33.1884H20.154L23.4097 25.1763C23.6216 24.6539 24.1447 24.3387 24.6948 24.3939C25.245 24.4514 25.6959 24.8702 25.7996 25.4248L28.6066 40.241L33.7923 15.0173C33.9118 14.4351 34.4078 14.0164 34.9873 14.0002C35.5757 13.9887 36.083 14.3799 36.2318 14.9552L40.9373 33.1861H45.7464C46.4386 33.1861 47 33.759 47 34.4654C47 35.1719 46.4386 35.7448 45.7464 35.7448H39.97C39.3996 35.7448 38.9013 35.3536 38.757 34.7899L35.1564 20.8412L29.7813 46.983C29.6618 47.5766 29.15 48 28.557 48Z" fill="#FFCDB6"/>
    <path d="M19.6454 27H13.3546C12.6067 27 12 26.3282 12 25.5C12 24.6718 12.6067 24 13.3546 24H19.6454C20.3933 24 21 24.6718 21 25.5C21 26.3282 20.3933 27 19.6454 27Z" fill="#3EE5B1"/>
    <path d="M27.7612 20H13.2388C12.5548 20 12 19.3282 12 18.5C12 17.6718 12.5548 17 13.2388 17H27.7612C28.4452 17 29 17.6718 29 18.5C29.0022 19.3282 28.4474 20 27.7612 20Z" fill="#3EE5B1"/>
    <path d="M27.7612 13H13.2388C12.5548 13 12 12.3288 12 11.5013C12 10.6739 12.5548 10 13.2388 10H27.7612C28.4452 10 29 10.6712 29 11.4987C29 12.3261 28.4474 13 27.7612 13Z" fill="#3EE5B1"/>
    <path d="M8.5 13C9.32843 13 10 12.3284 10 11.5C10 10.6716 9.32843 10 8.5 10C7.67157 10 7 10.6716 7 11.5C7 12.3284 7.67157 13 8.5 13Z" fill="#FFCDB6"/>
    <path d="M8.5 20C9.32843 20 10 19.3284 10 18.5C10 17.6716 9.32843 17 8.5 17C7.67157 17 7 17.6716 7 18.5C7 19.3284 7.67157 20 8.5 20Z" fill="#FFCDB6"/>
    <path d="M8.5 27C9.32843 27 10 26.3284 10 25.5C10 24.6716 9.32843 24 8.5 24C7.67157 24 7 24.6716 7 25.5C7 26.3284 7.67157 27 8.5 27Z" fill="#FFCDB6"/>
</svg>
