<svg width="55" height="55" viewBox="0 0 55 55" fill="none" xmlns="http://www.w3.org/2000/svg">
    <rect x="1" y="1" width="53" height="53" rx="16" fill="white" stroke="#04D99D" stroke-width="2"/>
    <path d="M12.9091 47C16.1726 47 18.8182 44.4065 18.8182 41.2073C18.8182 38.008 16.1726 35.4146 12.9091 35.4146C9.6456 35.4146 7 38.008 7 41.2073C7 44.4065 9.6456 47 12.9091 47Z" fill="#FFCDB6"/>
    <path d="M42.091 19.5855C45.3545 19.5855 48.0001 16.992 48.0001 13.7927C48.0001 10.5935 45.3545 8 42.091 8C38.8275 8 36.1819 10.5935 36.1819 13.7927C36.1819 16.992 38.8275 19.5855 42.091 19.5855Z" fill="#FFCDB6"/>
    <path d="M13.4342 33.6529C14.4081 33.6529 15.1976 32.879 15.1976 31.9243C15.1976 30.9696 14.4081 30.1957 13.4342 30.1957C12.4604 30.1957 11.6709 30.9696 11.6709 31.9243C11.6709 32.879 12.4604 33.6529 13.4342 33.6529Z" fill="#FFCDB6"/>
    <path d="M14.8725 28.2592C15.8463 28.2592 16.6358 27.4853 16.6358 26.5306C16.6358 25.5759 15.8463 24.802 14.8725 24.802C13.8986 24.802 13.1091 25.5759 13.1091 26.5306C13.1091 27.4853 13.8986 28.2592 14.8725 28.2592Z" fill="#FFCDB6"/>
    <path d="M19.4301 24.9224C20.404 24.9224 21.1934 24.1485 21.1934 23.1938C21.1934 22.2391 20.404 21.4652 19.4301 21.4652C18.4562 21.4652 17.6667 22.2391 17.6667 23.1938C17.6667 24.1485 18.4562 24.9224 19.4301 24.9224Z" fill="#FFCDB6"/>
    <path d="M25.5006 23.9235C26.4745 23.9235 27.264 23.1496 27.264 22.1949C27.264 21.2402 26.4745 20.4663 25.5006 20.4663C24.5268 20.4663 23.7373 21.2402 23.7373 22.1949C23.7373 23.1496 24.5268 23.9235 25.5006 23.9235Z" fill="#FFCDB6"/>
    <path d="M31.2096 23.9235C32.1835 23.9235 32.973 23.1496 32.973 22.1949C32.973 21.2402 32.1835 20.4663 31.2096 20.4663C30.2358 20.4663 29.4463 21.2402 29.4463 22.1949C29.4463 23.1496 30.2358 23.9235 31.2096 23.9235Z" fill="#FFCDB6"/>
    <path d="M36.5961 22.4665C37.57 22.4665 38.3594 21.6926 38.3594 20.7379C38.3594 19.7832 37.57 19.0093 36.5961 19.0093C35.6222 19.0093 34.8328 19.7832 34.8328 20.7379C34.8328 21.6926 35.6222 22.4665 36.5961 22.4665Z" fill="#FFCDB6"/>
    <path d="M19.5745 13.7928L21.7739 11.6367C22.0943 11.3226 22.0943 10.8102 21.7739 10.4961C21.4535 10.182 20.9308 10.182 20.6104 10.4961L18.411 12.6522L16.2117 10.4961C15.8913 10.182 15.3685 10.182 15.0482 10.4961C14.7278 10.8102 14.7278 11.3226 15.0482 11.6367L17.2475 13.7928L15.0482 15.9488C14.7278 16.2629 14.7278 16.7753 15.0482 17.0894C15.2096 17.2476 15.4191 17.3255 15.6311 17.3255C15.8407 17.3255 16.0527 17.2476 16.2141 17.0894L18.4134 14.9334L20.6128 17.0894C20.7742 17.2476 20.9838 17.3255 21.1957 17.3255C21.4053 17.3255 21.6173 17.2476 21.7787 17.0894C22.0991 16.7753 22.0991 16.2629 21.7787 15.9488L19.5745 13.7928Z" fill="#3EE5B1"/>
    <path d="M29.2032 37.3769L31.4025 35.2209C31.7229 34.9068 31.7229 34.3944 31.4025 34.0803C31.0822 33.7662 30.5594 33.7662 30.239 34.0803L28.0397 36.2363L25.8403 34.0803C25.5199 33.7662 24.9972 33.7662 24.6768 34.0803C24.3564 34.3944 24.3564 34.9068 24.6768 35.2209L26.8762 37.3769L24.6768 39.533C24.3564 39.847 24.3564 40.3595 24.6768 40.6736C24.8382 40.8318 25.0478 40.9097 25.2598 40.9097C25.4694 40.9097 25.6813 40.8318 25.8427 40.6736L28.0421 38.5175L30.2414 40.6736C30.4028 40.8318 30.6124 40.9097 30.8244 40.9097C31.0364 40.9097 31.246 40.8318 31.4074 40.6736C31.7278 40.3595 31.7278 39.847 31.4074 39.533L29.2032 37.3769Z" fill="#3EE5B1"/>
</svg>
