<svg width="55" height="55" viewBox="0 0 55 55" fill="none" xmlns="http://www.w3.org/2000/svg">
    <rect x="1" y="1" width="53" height="53" rx="16" fill="white" stroke="#04D99D" stroke-width="2"/>
    <path d="M29.2368 11H25.7632C24.2384 11 23 9.74906 23 8.21509V7.78491C23 6.25094 24.2412 5 25.7632 5H29.2368C30.7588 5 32 6.24811 32 7.78491V8.21509C32 9.74906 30.7588 11 29.2368 11ZM25.7604 7.44528C25.5779 7.44528 25.4206 7.60094 25.4206 7.78491V8.21509C25.4206 8.40189 25.5751 8.55755 25.7604 8.55755H29.234C29.4165 8.55755 29.5709 8.40189 29.5709 8.21509V7.78491C29.5709 7.60094 29.4165 7.44528 29.234 7.44528H25.7604Z" fill="#3EE5B1"/>
    <path d="M33.9652 18H21.0348C18.2601 18 16 15.7576 16 13.0013C16 10.2424 18.2574 8 21.0348 8H33.9652C36.7426 8 39 10.2424 39 13.0013C39 15.7549 36.7399 18 33.9652 18Z" fill="#FFCDB6"/>
    <path d="M37.9391 22.2422C36.8993 20.8166 35.2891 20 33.5278 20H21.4689C19.7049 20.0027 18.0974 20.8219 17.0576 22.2475C16.0177 23.6732 15.7286 25.4579 16.2618 27.1416L22.2912 46.1779C23.026 48.4999 25.0712 50 27.501 50C29.9308 50 31.976 48.4999 32.7107 46.1779L38.7402 27.1416C39.2707 25.4553 38.9816 23.6679 37.9391 22.2422ZM24.0366 42.7866C23.965 42.8052 23.896 42.8132 23.8271 42.8132C23.4424 42.8132 23.0923 42.5525 22.9942 42.1615L19.2062 27.0405C19.0922 26.5777 19.3707 26.1096 19.8296 25.9952C20.2912 25.8755 20.7554 26.1601 20.8721 26.6176L24.66 41.7386C24.7741 42.2041 24.4956 42.6722 24.0366 42.7866ZM28.3578 41.9541C28.3578 42.4302 27.9732 42.8159 27.4983 42.8159C27.0235 42.8159 26.6389 42.4302 26.6389 41.9541V26.8331C26.6389 26.3569 27.0235 25.9713 27.4983 25.9713C27.9732 25.9713 28.3578 26.3569 28.3578 26.8331V41.9541ZM36.0796 27.0432L32.2917 42.1642C32.1935 42.5552 31.8433 42.8159 31.4587 42.8159C31.3897 42.8159 31.3181 42.8079 31.2491 42.7893C30.7902 42.6749 30.5091 42.2068 30.6258 41.7439L34.4138 26.6229C34.5305 26.1628 34.9973 25.8835 35.4562 26.0005C35.9151 26.1122 36.1963 26.5804 36.0796 27.0432Z" fill="#FFCDB6"/>
</svg>
