<svg width="54" height="55" viewBox="0 0 54 55" fill="none" xmlns="http://www.w3.org/2000/svg">
    <rect x="1" y="1" width="52" height="53" rx="16" fill="white" stroke="#04D99D" stroke-width="2"/>
    <path d="M16.8295 22.6598C10.2431 22.6598 5.57482 18.9545 5.50806 18.8969C4.9072 18.4091 4.83017 17.5434 5.32576 16.958C5.82648 16.3775 6.71749 16.2925 7.31836 16.7778C7.68042 17.0681 16.2594 23.7981 26.1634 16.7278C26.1968 16.6953 36.6966 8.35653 48.4211 16.7278C49.0503 17.1781 49.1889 18.0413 48.7267 18.6568C48.2619 19.2647 47.3786 19.4048 46.7495 18.952C36.789 11.8366 27.9969 18.8244 27.907 18.8969C23.9551 21.7215 20.1471 22.6598 16.8295 22.6598Z" fill="#FFCDB6"/>
    <path d="M16.8295 32.8324C10.2431 32.8324 5.57482 29.1271 5.50806 29.0696C4.9072 28.5817 4.83017 27.7161 5.32576 27.1306C5.82648 26.5502 6.71749 26.4676 7.31836 26.9505C7.68042 27.2407 16.2594 33.9708 26.1634 26.9005C26.1968 26.8679 36.6966 18.5317 48.4211 26.9005C49.0503 27.3508 49.1889 28.2139 48.7267 28.8294C48.2619 29.4399 47.3786 29.575 46.7495 29.1246C36.789 22.0118 27.9969 28.9945 27.907 29.0696C23.9551 31.8917 20.1471 32.8324 16.8295 32.8324Z" fill="#3EE5B1"/>
    <path d="M16.8295 43C10.2431 43 5.57482 39.2947 5.50806 39.2371C4.9072 38.7493 4.83017 37.8836 5.32576 37.2982C5.82648 36.7178 6.71749 36.6352 7.31836 37.1181C7.68042 37.4083 16.2594 44.1383 26.1634 37.068C26.1968 37.033 36.6966 28.6967 48.4211 37.068C49.0503 37.5184 49.1889 38.3815 48.7267 38.997C48.2619 39.6074 47.3786 39.745 46.7495 39.2922C36.789 32.1794 27.9969 39.1646 27.907 39.2371C23.9551 42.0593 20.1471 43 16.8295 43Z" fill="#FFCDB6"/>
</svg>
