<svg width="61" height="65" viewBox="0 0 61 65" fill="none" xmlns="http://www.w3.org/2000/svg">
    <rect width="61" height="65" rx="17" fill="white"/>
    <rect x="5" y="6" width="53" height="53" rx="16" fill="white" stroke="#04D99D" stroke-width="2"/>
    <path d="M31.5 23C27.9178 23 25 20.0848 25 16.5C25 12.9152 27.9178 10 31.5 10C35.0822 10 38 12.9152 38 16.5C38 20.0848 35.0822 23 31.5 23Z" fill="#FFCDB6"/>
    <path d="M31.0006 55C29.3854 55 27.7484 54.739 26.1413 54.2169C21.9048 52.8356 18.435 49.4992 16.934 45.3037C15.1909 40.4337 15.9142 35.2593 18.8809 31.1969C21.7252 27.3059 26.2746 24.9865 31.0414 25.0001C31.6505 25.0028 32.1345 25.5303 32.1345 26.1366V37.7119C32.1345 38.3482 32.6512 38.8648 33.2875 38.8648H44.8633C45.4724 38.8648 45.9972 39.3515 45.9999 39.9579C46.0135 44.7245 43.694 49.2736 39.8001 52.1177C37.2032 54.0184 34.144 55 31.0006 55Z" fill="#FFCDB6"/>
</svg>
