<svg width="61" height="65" viewBox="0 0 61 65" fill="none" xmlns="http://www.w3.org/2000/svg">
    <rect width="61" height="65" rx="17" fill="white"/>
    <rect x="4" y="5" width="53" height="53" rx="16" fill="white" stroke="#04D99D" stroke-width="2"/>
    <path d="M17.7453 25.7196C14.9034 25.7196 12.5903 23.4006 12.5903 20.5468C12.5903 17.6929 14.9034 15.374 17.7453 15.374C20.5872 15.374 22.9002 17.6929 22.9002 20.5468C22.9002 23.4006 20.5872 25.7196 17.7453 25.7196Z" fill="#FFCDB6"/>
    <path d="M22.3297 50H13.1607C11.8199 50 10.5978 49.3774 9.80661 48.2931C9.01546 47.2068 8.79271 45.8488 9.19869 44.5661L13.7832 30.0818C14.3432 28.3143 15.8985 27.1736 17.7452 27.1736C19.5919 27.1736 21.1471 28.3164 21.7051 30.0818L26.2896 44.5661C26.6956 45.8488 26.4748 47.2068 25.6816 48.2931C24.8905 49.3774 23.6684 50 22.3297 50Z" fill="#FFCDB6"/>
    <path d="M44.2548 25.7196C41.4129 25.7196 39.0999 23.4006 39.0999 20.5468C39.0999 17.6929 41.4129 15.376 44.2548 15.376C47.0967 15.376 49.4097 17.695 49.4097 20.5488C49.4097 23.4027 47.0967 25.7196 44.2548 25.7196Z" fill="#FFCDB6"/>
    <path d="M44.2548 50C42.4081 50 40.8529 48.8572 40.2949 47.0919L35.7104 32.6076C35.3045 31.3269 35.5251 29.9711 36.3163 28.8847C37.1074 27.7983 38.3296 27.1757 39.6704 27.1736H48.8393C50.178 27.1736 51.4022 27.7962 52.1934 28.8805C52.9845 29.9669 53.2073 31.3228 52.8013 32.6076L48.2168 47.0919C47.6567 48.8593 46.1036 50 44.2548 50Z" fill="#FFCDB6"/>
    <path d="M30.9989 50C30.518 50 30.1287 49.6093 30.1287 49.1267V15.8733C30.1287 15.3907 30.518 15 30.9989 15C31.4798 15 31.8692 15.3907 31.8692 15.8733V49.1267C31.8713 49.6093 31.4819 50 30.9989 50Z" fill="#3EE5B1"/>
</svg>
