<svg width="55" height="55" viewBox="0 0 55 55" fill="none" xmlns="http://www.w3.org/2000/svg">
    <rect x="1" y="1" width="53" height="53" rx="16" fill="white" stroke="#04D99D" stroke-width="2"/>
    <path d="M19.3604 49C18.9429 48.7076 18.8108 48.3247 18.8901 47.8227C19.223 45.6906 19.4502 43.5482 19.5744 41.3955C19.7118 39.0021 19.7329 36.6087 19.6325 34.2101C19.548 32.2074 19.3789 30.2151 19.0671 28.2383C18.2349 22.9702 16.6813 17.9609 13.3681 13.6166C13.3153 13.5493 13.2624 13.482 13.2149 13.4122C12.919 12.9827 12.9295 12.5661 13.2413 12.2556C13.5557 11.9425 13.9837 11.9115 14.4197 12.1935C15.429 12.8481 16.4039 13.5467 17.3365 14.3048C21.6379 17.8031 24.9405 22.0569 27.358 26.9808C29.1282 30.5851 30.3066 34.3783 31.0437 38.3061C31.5272 40.8857 31.8311 43.4861 31.9209 46.1098C31.942 46.7153 31.9658 47.3207 31.9975 47.9262C32.0213 48.3842 31.876 48.7568 31.4585 49C27.4241 49 23.3922 49 19.3604 49Z" fill="#FFCDB6"/>
    <path d="M35.2875 49C35.0726 48.7818 34.9899 48.5303 35.001 48.2325C35.136 43.9972 35.8249 39.862 37.6022 35.927C39.5835 31.5403 42.5981 27.9261 46.8334 25.2284C46.9078 25.1822 46.9822 25.1334 47.0594 25.0923C47.346 24.9383 47.6105 24.9794 47.8337 25.1976C48.0514 25.4106 48.0459 25.6545 47.8723 25.8881C47.4479 26.463 47.0015 27.0252 46.6295 27.6361C45.3206 29.7897 44.5298 32.1075 44.0475 34.5281C43.5102 37.2207 43.3504 39.9364 43.4358 42.665C43.4909 44.4105 43.6507 46.1508 43.9235 47.8809C43.9842 48.2736 44.1054 48.6971 43.6645 48.9974C40.8731 49 38.0817 49 35.2875 49Z" fill="#FFCDB6"/>
    <path d="M9.92033 49C9.78354 48.8008 9.74934 48.5937 9.78617 48.3441C10.0677 46.3101 10.2176 44.2628 10.1439 42.2076C10.0492 39.5071 9.67831 36.8544 8.60498 34.3477C8.23405 33.482 7.7763 32.6669 7.22385 31.9048C7.12388 31.7667 7.00813 31.6259 7.00024 31.4427C6.99498 31.2701 7.07653 31.1347 7.22648 31.0524C7.41589 30.9488 7.58689 31.0126 7.74999 31.1241C8.98643 31.9738 10.115 32.951 11.0963 34.0928C13.8375 37.2792 15.216 41.0551 15.7737 45.1763C15.921 46.265 15.9789 47.3616 15.9999 48.4583C16.0025 48.6548 15.942 48.8274 15.8552 48.9947C13.8796 49 11.8986 49 9.92033 49Z" fill="#FFCDB6"/>
    <path d="M33.8502 38C33.7079 37.3552 33.5655 36.7103 33.4177 36.0655C32.2077 30.7789 30.2258 25.7934 27.2118 21.2235C26.9299 20.7972 26.9326 20.4934 27.2009 20.0591C30.3654 14.9244 34.4333 10.6263 39.5935 7.33819C40.8664 6.52548 42.1996 5.81136 43.5601 5.14787C44.072 4.89739 44.5237 4.96934 44.8112 5.33173C45.1013 5.69944 45.063 6.1471 44.6551 6.54413C41.0252 10.0987 38.7558 14.4234 37.1352 19.1132C35.876 22.7557 35.0849 26.5022 34.5921 30.3126C34.3184 32.4443 34.0994 34.5786 34.0501 36.7263C34.0419 37.1447 33.9871 37.5603 33.9543 37.9787C33.9242 37.984 33.8886 37.992 33.8502 38Z" fill="#3EE5B1"/>
</svg>
