<svg width="55" height="55" viewBox="0 0 55 55" fill="none" xmlns="http://www.w3.org/2000/svg">
    <rect x="1" y="1" width="53" height="53" rx="16" fill="white" stroke="#04D99D" stroke-width="2"/>
    <path d="M19 41C18.4465 41 18 40.6145 18 40.1365V29.8635C18 29.3855 18.4465 29 19 29C19.5535 29 20 29.3855 20 29.8635V40.1365C20 40.6124 19.5535 41 19 41Z" fill="#3EE5B1"/>
    <path d="M14 44C13.4465 44 13 43.6125 13 43.1321V30.8679C13 30.3875 13.4465 30 14 30C14.5535 30 15 30.3875 15 30.8679V43.1321C15 43.6125 14.5512 44 14 44Z" fill="#3EE5B1"/>
    <path d="M41 44C40.4465 44 40 43.6125 40 43.1321V30.8679C40 30.3875 40.4465 30 41 30C41.5535 30 42 30.3875 42 30.8679V43.1321C41.9977 43.6125 41.5512 44 41 44Z" fill="#3EE5B1"/>
    <path d="M36 41C35.4465 41 35 40.6145 35 40.1365V29.8635C35 29.3855 35.4465 29 36 29C36.5535 29 37 29.3855 37 29.8635V40.1365C36.9977 40.6124 36.5512 41 36 41Z" fill="#3EE5B1"/>
    <path d="M47.3199 27H7.68006C6.75285 27 6 26.3265 6 25.5009C6 24.6735 6.75483 24 7.68006 24H47.3199C48.2471 24 49 24.6735 49 25.5009C49 26.3265 48.2471 27 47.3199 27Z" fill="#FFCDB6"/>
    <path d="M47.3199 22H7.68006C6.75285 22 6 21.3261 6 20.5C6 19.6739 6.75483 19 7.68006 19H47.3199C48.2471 19 49 19.6739 49 20.5C49 21.3261 48.2471 22 47.3199 22Z" fill="#FFCDB6"/>
    <path d="M48.152 32H6.85192C6.38039 32 6 31.6407 6 31.1953C6 29.9844 7.04211 29 8.32395 29H46.676C47.9579 29 49 29.9844 49 31.1953C49.002 31.6407 48.6216 32 48.152 32Z" fill="#FFCDB6"/>
</svg>
