<svg width="55" height="55" viewBox="0 0 55 55" fill="none" xmlns="http://www.w3.org/2000/svg">
    <rect x="1" y="1" width="53" height="53" rx="16" fill="white" stroke="#04D99D" stroke-width="2"/>
    <path d="M27.5 50C27.2241 50 27 49.4915 27 48.8652V12.1348C27 11.5085 27.2241 11 27.5 11C27.7759 11 28 11.5085 28 12.1348V48.8679C28.0012 49.4942 27.7771 50 27.5 50Z" fill="#FFCDB6"/>
    <path d="M27 22C31.4183 22 35 18.4183 35 14C35 9.58172 31.4183 6 27 6C22.5817 6 19 9.58172 19 14C19 18.4183 22.5817 22 27 22Z" fill="#3EE5B1"/>
    <path d="M27.5 37C34.4036 37 40 31.6274 40 25C40 18.3726 34.4036 13 27.5 13C20.5964 13 15 18.3726 15 25C15 31.6274 20.5964 37 27.5 37Z" fill="#3EE5B1"/>
</svg>
