<svg width="61" height="65" viewBox="0 0 61 65" fill="none" xmlns="http://www.w3.org/2000/svg">
    <rect width="61" height="65" rx="17" fill="white"/>
    <rect x="4" y="5" width="52" height="53" rx="16" fill="white" stroke="#04D99D" stroke-width="2"/>
    <path d="M27.6422 23.5003C27.0665 23.5003 26.6021 23.9471 26.6021 24.501V39.9993C26.6021 40.5532 27.0665 41 27.6422 41H33.3554C33.9311 41 34.3955 40.5532 34.3955 39.9993V24.0006C34.3955 23.4468 28.184 23.5003 27.6422 23.5003Z" fill="#FFCDB6"/>
    <path d="M48.0473 25.0013H12.9503C12.3746 25.0013 11.9102 24.5545 11.9102 24.0006C11.9102 23.4468 12.3746 23 12.9503 23H48.0473C48.6229 23 49.0874 23.4468 49.0874 24.0006C49.0874 24.5522 48.6229 25.0013 48.0473 25.0013Z" fill="#3EE5B1"/>
    <path d="M17.8629 32.6108H14.4983H12.9503H11.4047H8.04007C7.46439 32.6108 7 33.0576 7 33.6115C7 34.1653 7.46439 34.6121 8.04007 34.6121H10.3646V39.9993C10.3646 40.5532 10.829 41 11.4047 41H14.4983C15.074 41 15.5384 40.5532 15.5384 39.9993V34.6121H17.8629C18.4386 34.6121 18.903 34.1653 18.903 33.6115C18.903 33.0576 18.4361 32.6108 17.8629 32.6108Z" fill="#FFCDB6"/>
    <path d="M52.9601 32.6108H49.5955H48.0474H46.5018H43.1373C42.5616 32.6108 42.0972 33.0576 42.0972 33.6115C42.0972 34.1653 42.5616 34.6121 43.1373 34.6121H45.4617V39.9993C45.4617 40.5532 45.9261 41 46.5018 41H49.5955C50.1712 41 50.6356 40.5532 50.6356 39.9993V34.6121H52.9601C53.5358 34.6121 54.0001 34.1653 54.0001 33.6115C54.0001 33.0576 53.5358 32.6108 52.9601 32.6108Z" fill="#FFCDB6"/>
</svg>
