<svg width="61" height="65" viewBox="0 0 61 65" fill="none" xmlns="http://www.w3.org/2000/svg">
    <rect width="61" height="65" rx="17" fill="white"/>
    <rect x="4" y="7" width="53" height="53" rx="16" fill="white" stroke="#04D99D" stroke-width="2"/>
    <path d="M22.3604 55C21.9429 54.7076 21.8108 54.3247 21.8901 53.8227C22.223 51.6906 22.4502 49.5482 22.5744 47.3955C22.7118 45.0021 22.7329 42.6087 22.6325 40.2101C22.548 38.2074 22.3789 36.2151 22.0671 34.2383C21.2349 28.9702 19.6813 23.9609 16.3681 19.6166C16.3153 19.5493 16.2624 19.482 16.2149 19.4122C15.919 18.9827 15.9295 18.5661 16.2413 18.2556C16.5557 17.9425 16.9837 17.9115 17.4197 18.1935C18.429 18.8481 19.4039 19.5467 20.3365 20.3048C24.6379 23.8031 27.9405 28.0569 30.358 32.9808C32.1282 36.5851 33.3066 40.3783 34.0437 44.3061C34.5272 46.8857 34.8311 49.4861 34.9209 52.1098C34.942 52.7153 34.9658 53.3207 34.9975 53.9262C35.0213 54.3842 34.876 54.7568 34.4585 55C30.4241 55 26.3922 55 22.3604 55Z" fill="#FFCDB6"/>
    <path d="M38.2875 55C38.0726 54.7818 37.9899 54.5303 38.001 54.2325C38.136 49.9972 38.8249 45.862 40.6022 41.927C42.5835 37.5403 45.5981 33.9261 49.8334 31.2284C49.9078 31.1822 49.9822 31.1334 50.0594 31.0923C50.346 30.9383 50.6105 30.9794 50.8337 31.1976C51.0514 31.4106 51.0459 31.6545 50.8723 31.8881C50.4479 32.463 50.0015 33.0252 49.6295 33.6361C48.3206 35.7897 47.5298 38.1075 47.0475 40.5281C46.5102 43.2207 46.3504 45.9364 46.4358 48.665C46.4909 50.4105 46.6507 52.1508 46.9235 53.8809C46.9842 54.2736 47.1054 54.6971 46.6645 54.9974C43.8731 55 41.0817 55 38.2875 55Z" fill="#FFCDB6"/>
    <path d="M12.9203 55C12.7835 54.8008 12.7493 54.5937 12.7862 54.3441C13.0677 52.3101 13.2176 50.2628 13.1439 48.2076C13.0492 45.5071 12.6783 42.8544 11.605 40.3477C11.234 39.482 10.7763 38.6669 10.2239 37.9048C10.1239 37.7667 10.0081 37.6259 10.0002 37.4427C9.99498 37.2701 10.0765 37.1347 10.2265 37.0524C10.4159 36.9488 10.5869 37.0126 10.75 37.1241C11.9864 37.9738 13.115 38.951 14.0963 40.0928C16.8375 43.2792 18.216 47.0551 18.7737 51.1763C18.921 52.265 18.9789 53.3616 18.9999 54.4583C19.0025 54.6548 18.942 54.8274 18.8552 54.9947C16.8796 55 14.8986 55 12.9203 55Z" fill="#FFCDB6"/>
    <path d="M36.8502 44C36.7079 43.3552 36.5655 42.7103 36.4177 42.0655C35.2077 36.7789 33.2258 31.7934 30.2118 27.2235C29.9299 26.7972 29.9326 26.4934 30.2009 26.0591C33.3654 20.9244 37.4333 16.6263 42.5935 13.3382C43.8664 12.5255 45.1996 11.8114 46.5601 11.1479C47.072 10.8974 47.5237 10.9693 47.8112 11.3317C48.1013 11.6994 48.063 12.1471 47.6551 12.5441C44.0252 16.0987 41.7558 20.4234 40.1352 25.1132C38.876 28.7557 38.0849 32.5022 37.5921 36.3126C37.3184 38.4443 37.0994 40.5786 37.0501 42.7263C37.0419 43.1447 36.9871 43.5603 36.9543 43.9787C36.9242 43.984 36.8886 43.992 36.8502 44Z" fill="#3EE5B1"/>
</svg>
