<svg width="61" height="65" viewBox="0 0 61 65" fill="none" xmlns="http://www.w3.org/2000/svg">
    <rect width="61" height="65" rx="17" fill="white"/>
    <rect x="4" y="6" width="53" height="53" rx="16" fill="white" stroke="#04D99D" stroke-width="2"/>
    <path d="M30.5 57C30.2241 57 30 56.4915 30 55.8652V19.1348C30 18.5085 30.2241 18 30.5 18C30.7759 18 31 18.5085 31 19.1348V55.8679C31.0012 56.4942 30.7771 57 30.5 57Z" fill="#FFCDB6"/>
    <path d="M30 29C34.4183 29 38 25.4183 38 21C38 16.5817 34.4183 13 30 13C25.5817 13 22 16.5817 22 21C22 25.4183 25.5817 29 30 29Z" fill="#3EE5B1"/>
    <path d="M30.5 44C37.4036 44 43 38.6274 43 32C43 25.3726 37.4036 20 30.5 20C23.5964 20 18 25.3726 18 32C18 38.6274 23.5964 44 30.5 44Z" fill="#3EE5B1"/>
</svg>
