<svg width="55" height="55" viewBox="0 0 55 55" fill="none" xmlns="http://www.w3.org/2000/svg">
    <rect x="1" y="1" width="53" height="53" rx="16" fill="white" stroke="#04D99D" stroke-width="2"/>
    <path d="M42.8593 45.8896L38.911 33H16.089L12.1407 45.8896C11.5133 47.9368 13.0629 50 15.2263 50H27.5013H39.7763C41.9371 49.9973 43.4867 47.9341 42.8593 45.8896ZM18.4851 39.2297H27.6149H36.6853L37.2667 40.9775H27.6149H17.9036L18.4851 39.2297ZM27.6149 45.2482H16.8706L17.452 43.5004H27.6149H37.7778L38.3593 45.2482H27.6149Z" fill="#3EE5B1"/>
    <path d="M33.2885 5H21.7115C16.8999 5 13 9.03441 13 14.0119V25.9881C13 30.9656 16.8999 35 21.7115 35H33.2885C38.1001 35 42 30.9656 42 25.9881V14.0119C42 9.03441 38.1001 5 33.2885 5ZM23.7829 7.79409H30.995C31.6037 7.79409 32.0974 8.30481 32.0974 8.93443C32.0974 9.56404 31.6037 10.0748 30.995 10.0748H23.7829C23.1743 10.0748 22.6806 9.56404 22.6806 8.93443C22.6806 8.30481 23.1717 7.79409 23.7829 7.79409ZM19.4285 30.0144C18.1538 30.0144 17.122 28.947 17.122 27.6284C17.122 26.3097 18.1538 25.2423 19.4285 25.2423C20.7032 25.2423 21.735 26.3097 21.735 27.6284C21.735 28.947 20.7032 30.0144 19.4285 30.0144ZM35.5715 30.0144C34.2968 30.0144 33.265 28.947 33.265 27.6284C33.265 26.3097 34.2968 25.2423 35.5715 25.2423C36.8462 25.2423 37.878 26.3097 37.878 27.6284C37.878 28.947 36.8462 30.0144 35.5715 30.0144ZM37.878 20.4918C37.878 22.3104 36.4518 23.7858 34.6938 23.7858H20.3088C18.5508 23.7858 17.1246 22.3104 17.1246 20.4918V14.2929C17.1246 12.4743 18.5508 10.9989 20.3088 10.9989H34.6938C36.4518 10.9989 37.878 12.4743 37.878 14.2929V20.4918Z" fill="#FFCDB6"/>
</svg>
