<svg width="61" height="65" viewBox="0 0 61 65" fill="none" xmlns="http://www.w3.org/2000/svg">
    <rect width="61" height="65" rx="17" fill="white"/>
    <rect x="4" y="6" width="53" height="53" rx="16" fill="white" stroke="#04D99D" stroke-width="2"/>
    <path d="M16.2061 33.274C18.2075 32.5886 18.9981 29.6527 17.9721 26.7164C16.9461 23.7802 14.4919 21.9555 12.4905 22.6408C10.4892 23.3262 9.69846 26.2622 10.7245 29.1984C11.7505 32.1347 14.2047 33.9594 16.2061 33.274Z" fill="#FFCDB6"/>
    <path d="M39.0905 18.2331C39.5296 15.1563 38.1855 12.4244 36.0884 12.1311C33.9913 11.8378 31.9353 14.0942 31.4962 17.1709C31.0571 20.2476 32.4012 22.9795 34.4983 23.2729C36.5954 23.5662 38.6514 21.3098 39.0905 18.2331Z" fill="#FFCDB6"/>
    <path d="M51.2085 27.9296C52.1244 24.9576 51.2246 22.0524 49.1989 21.4406C47.1732 20.8288 44.7885 22.7421 43.8727 25.7141C42.9568 28.6861 43.8565 31.5914 45.8823 32.2031C47.908 32.8149 50.2926 30.9016 51.2085 27.9296Z" fill="#FFCDB6"/>
    <path d="M28.3132 54.8769C29.9922 54.05 32.0027 54.05 33.6844 54.8769C35.0211 55.5347 36.8186 56.0877 38.9935 55.9884C43.9793 55.7602 46.7659 51.8674 46.9869 46.8389C47.2079 41.8104 44.6099 41.7567 41.26 33.5469C37.9101 25.337 31.0002 26.0135 31.0002 26.0135C31.0002 26.0135 24.0929 25.337 20.7403 33.5469C17.3877 41.7567 14.7897 41.8104 15.0134 46.8389C15.2344 51.8674 18.0211 55.7602 23.0068 55.9884C25.179 56.0877 26.9765 55.532 28.3132 54.8769Z" fill="#3EE5B1"/>
    <path d="M24.1701 23.4931C26.2322 23.0157 27.3246 20.1761 26.6099 17.1507C25.8952 14.1252 23.6442 12.0596 21.582 12.537C19.5198 13.0144 18.4275 15.854 19.1422 18.8795C19.8568 21.9049 22.1079 23.9705 24.1701 23.4931Z" fill="#FFCDB6"/>
</svg>
