<svg width="55" height="55" viewBox="0 0 55 55" fill="none" xmlns="http://www.w3.org/2000/svg">
    <rect x="1" y="1" width="53" height="53" rx="16" fill="white" stroke="#04D99D" stroke-width="2"/>
    <path d="M14.7453 21.7196C11.9034 21.7196 9.59033 19.4006 9.59033 16.5468C9.59033 13.6929 11.9034 11.374 14.7453 11.374C17.5872 11.374 19.9002 13.6929 19.9002 16.5468C19.9002 19.4006 17.5872 21.7196 14.7453 21.7196Z" fill="#FFCDB6"/>
    <path d="M19.3297 46H10.1607C8.81989 46 7.59776 45.3774 6.80661 44.2931C6.01546 43.2068 5.79271 41.8488 6.19869 40.5661L10.7832 26.0818C11.3432 24.3143 12.8985 23.1736 14.7452 23.1736C16.5919 23.1736 18.1471 24.3164 18.7051 26.0818L23.2896 40.5661C23.6956 41.8488 23.4748 43.2068 22.6816 44.2931C21.8905 45.3774 20.6684 46 19.3297 46Z" fill="#FFCDB6"/>
    <path d="M41.2548 21.7196C38.4129 21.7196 36.0999 19.4006 36.0999 16.5468C36.0999 13.6929 38.4129 11.376 41.2548 11.376C44.0967 11.376 46.4097 13.695 46.4097 16.5488C46.4097 19.4027 44.0967 21.7196 41.2548 21.7196Z" fill="#FFCDB6"/>
    <path d="M41.2548 46C39.4081 46 37.8529 44.8572 37.2949 43.0919L32.7104 28.6076C32.3045 27.3269 32.5251 25.9711 33.3163 24.8847C34.1074 23.7983 35.3296 23.1757 36.6704 23.1736H45.8393C47.178 23.1736 48.4022 23.7962 49.1934 24.8805C49.9845 25.9669 50.2073 27.3228 49.8013 28.6076L45.2168 43.0919C44.6567 44.8593 43.1036 46 41.2548 46Z" fill="#FFCDB6"/>
    <path d="M27.9989 46C27.518 46 27.1287 45.6093 27.1287 45.1267V11.8733C27.1287 11.3907 27.518 11 27.9989 11C28.4798 11 28.8692 11.3907 28.8692 11.8733V45.1267C28.8713 45.6093 28.4819 46 27.9989 46Z" fill="#3EE5B1"/>
</svg>
