<svg width="55" height="55" viewBox="0 0 55 55" fill="none" xmlns="http://www.w3.org/2000/svg">
    <rect x="1" y="1" width="53" height="53" rx="16" fill="white" stroke="#04D99D" stroke-width="2"/>
    <path d="M16.8731 25.3492C14.2315 23.8728 12.8844 21.5932 13.0078 18.5394C13.0656 17.119 13.3754 15.7092 13.5802 14.2967C13.9374 11.8654 14.3076 9.43944 14.6595 7.00816C14.7225 6.56393 14.9089 6.22876 15.2897 6C15.5155 6 15.7414 6 15.9672 6C16.3112 6.21014 16.5501 6.48413 16.5869 6.91505C16.663 7.84075 16.755 8.76379 16.8285 9.68948C17.007 11.8814 17.1804 14.0732 17.351 16.2678C17.3799 16.6216 17.5559 16.8423 17.9051 16.8477C18.2386 16.8503 18.3961 16.6455 18.4224 16.2997C18.4986 15.2463 18.5931 14.1929 18.6824 13.1396C18.8452 11.1897 19.0159 9.23993 19.1629 7.29012C19.2023 6.76343 19.3205 6.3059 19.7826 6.00532C20.0373 6.00532 20.2921 6.00532 20.5441 6.00532C20.9144 6.26866 21.1035 6.63043 21.1402 7.0853C21.2873 8.94733 21.4369 10.8094 21.5866 12.6714C21.6838 13.8657 21.781 15.0601 21.8781 16.2518C21.9044 16.587 22.0357 16.845 22.4059 16.8477C22.7998 16.8503 22.9337 16.5684 22.9626 16.2252C23.0545 15.1319 23.1412 14.036 23.2278 12.9427C23.3775 11.0514 23.5298 9.16013 23.6769 7.26884C23.7162 6.76609 23.8449 6.31655 24.2729 6.00266C24.5277 6.00266 24.7824 6.00266 25.0344 6.00266C25.4388 6.25536 25.599 6.63309 25.6673 7.10392C26.182 10.6365 26.715 14.1663 27.2402 17.6989C27.7129 20.8883 26.3054 23.7797 23.5062 25.3172C23.1989 25.4848 23.0755 25.6657 23.1018 26.0142C23.2436 27.8363 23.3696 29.6611 23.4983 31.4859C23.5955 32.8691 23.6874 34.2523 23.7845 35.6329C23.9421 37.87 24.1101 40.1071 24.2651 42.3442C24.3412 43.4561 24.4463 44.568 24.4568 45.6825C24.4778 48.0659 22.5267 49.9891 20.1503 49.9891C17.7686 49.9891 15.8438 48.0686 15.8621 45.6666C15.8753 44.0519 16.0591 42.4453 16.172 40.8359C16.2665 39.482 16.3558 38.128 16.453 36.774C16.6132 34.4944 16.7786 32.2147 16.9388 29.9351C17.0333 28.6104 17.1173 27.283 17.2171 25.9583C17.2408 25.6577 17.1357 25.4981 16.8731 25.3492Z" fill="#FFCDB6"/>
    <path d="M40.3751 6.00262C40.832 6.25533 41.0001 6.64636 41.0001 7.17304C40.9922 19.9492 40.9974 32.7254 40.9922 45.5016C40.9922 47.7786 39.2853 49.7444 37.1478 49.9731C34.8869 50.2152 32.8886 48.7974 32.3451 46.5922C32.1429 45.7756 32.2584 44.9723 32.3372 44.1636C32.5184 42.2723 32.7101 40.3837 32.8991 38.4924C33.1144 36.3324 33.3298 34.1725 33.5451 32.0125C33.553 31.9274 33.5714 31.8423 33.5687 31.7572C33.5503 30.7916 33.834 29.9829 34.6165 29.3552C35.1023 28.9668 35.0602 28.9216 34.6847 28.4135C33.6344 26.9957 32.9858 25.389 32.5446 23.6866C31.9669 21.4548 31.7437 19.1752 31.9065 16.8822C32.198 12.7804 34.1149 9.59634 37.4393 7.26349C38.151 6.76606 38.9203 6.37769 39.7002 6.00528C39.9234 6.00262 40.1493 6.00262 40.3751 6.00262Z" fill="#FFCDB6"/>
</svg>
