<svg width="55" height="55" viewBox="0 0 55 55" fill="none" xmlns="http://www.w3.org/2000/svg">
    <rect x="1" y="1" width="53" height="53" rx="16" fill="white" stroke="#04D99D" stroke-width="2"/>
    <path d="M18.4313 50C16.6859 50 14.906 49.5541 13.0571 48.6623C9.01379 46.7122 3.80693 43.6689 5.24412 39.801L5.88699 38.0685C5.88699 38.0658 5.88965 38.0631 5.88965 38.0631C6.10483 37.491 6.73711 37.1929 7.30562 37.4131C7.87412 37.628 8.16101 38.2673 7.94848 38.8448C7.46233 40.1529 9.86918 42.0976 15.0999 44.6225C17.8415 45.944 20.2696 46.0944 22.7349 45.0926C23.1653 44.9153 23.6567 45.0335 23.9649 45.3853C24.273 45.7345 24.3315 46.2422 24.1083 46.6558L23.0112 48.6892C22.889 48.9148 22.6924 49.0921 22.4559 49.1888C21.1303 49.7287 19.7914 50 18.4313 50Z" fill="#3EE5B1"/>
    <path d="M48.1979 23.3517C47.2362 22.0328 45.7061 21.5439 44.5611 21.5251C43.626 21.5386 42.7706 21.5359 41.9471 21.5386C40.8419 21.5439 39.8138 21.5386 38.6635 21.6702C38.6609 21.6648 38.6264 21.6057 38.5732 21.4069C37.6381 17.8721 35.3216 15.5916 31.876 14.8154C30.5903 14.5253 29.3364 14.5709 28.1223 14.6139C27.7053 14.63 27.2882 14.6408 26.7648 14.6381C26.3557 12.4839 25.9147 10.335 25.4578 8.18887C25.0567 6.31132 23.8585 5.15363 22.169 5.01664C20.3067 4.86085 18.9386 5.80365 18.2585 7.64897L15.0919 16.239C13.1765 21.4365 11.2638 26.6367 9.3325 31.8288C7.89531 35.6994 13.1021 38.7401 17.1454 40.6901C19.1803 41.6705 20.9735 42.0385 22.5462 42.0385C25.5481 42.0385 27.7477 40.7063 29.2753 39.7822C29.7508 39.4948 30.4043 39.0973 30.6009 39.0758C32.1975 39.1081 33.7967 39.1027 35.396 39.0812C39.5057 39.0221 42.9884 37.3326 45.7486 34.0556C47.1672 32.3714 48.1262 30.2978 48.7532 27.5849C49.3376 25.5166 48.7744 24.1387 48.1979 23.3517ZM29.0441 26.2096C27.5724 26.2096 26.377 25.0009 26.377 23.5128C26.377 22.0221 27.5724 20.816 29.0441 20.816C30.5159 20.816 31.7113 22.0247 31.7113 23.5128C31.7113 25.0009 30.5185 26.2096 29.0441 26.2096Z" fill="#FFCDB6"/>
</svg>
