<svg width="55" height="55" viewBox="0 0 55 55" fill="none" xmlns="http://www.w3.org/2000/svg">
    <rect x="1" y="1" width="53" height="53" rx="16" fill="white" stroke="#04D99D" stroke-width="2"/>
    <path d="M27.5 18C23.9178 18 21 15.0848 21 11.5C21 7.91515 23.9178 5 27.5 5C31.0822 5 34 7.91515 34 11.5C34 15.0848 31.0822 18 27.5 18Z" fill="#FFCDB6"/>
    <path d="M27.0006 50C25.3854 50 23.7484 49.739 22.1413 49.2169C17.9048 47.8356 14.435 44.4992 12.934 40.3037C11.1909 35.4337 11.9142 30.2593 14.8809 26.1969C17.7252 22.3059 22.2746 19.9865 27.0414 20.0001C27.6505 20.0028 28.1345 20.5303 28.1345 21.1366V32.7119C28.1345 33.3482 28.6512 33.8648 29.2875 33.8648H40.8633C41.4724 33.8648 41.9972 34.3515 41.9999 34.9579C42.0135 39.7245 39.694 44.2736 35.8001 47.1177C33.2032 49.0184 30.144 50 27.0006 50Z" fill="#FFCDB6"/>
</svg>
