<svg width="61" height="65" viewBox="0 0 61 65" fill="none" xmlns="http://www.w3.org/2000/svg">
    <rect width="61" height="65" rx="17" fill="white"/>
    <rect x="4" y="5" width="53" height="53" rx="16" fill="white" stroke="#04D99D" stroke-width="2"/>
    <path d="M34.9108 45.351L32.2899 36.4176C31.7359 34.5275 29.2641 34.5275 28.7101 36.4176L26.0892 45.351C25.7052 46.6621 26.6088 48 27.8791 48H33.1209C34.3912 47.9979 35.2948 46.6621 34.9108 45.351Z" fill="#3EE5B1"/>
    <path d="M54.0956 41C54.0177 41 53.9354 40.9892 53.8574 40.9676L6.66831 27.8228C6.18562 27.6888 5.90107 27.1787 6.03175 26.6838C6.16454 26.1888 6.67041 25.9014 7.14256 26.0311L54.3317 39.1759C54.8144 39.3099 55.0989 39.8199 54.9683 40.3149C54.8586 40.7277 54.494 41 54.0956 41Z" fill="#FFCDB6"/>
    <path d="M16.5076 20C16.3447 20 16.1837 19.9839 16.0208 19.9517C15.367 19.825 14.7998 19.4509 14.4277 18.8958C14.0535 18.3427 13.9188 17.6749 14.0475 17.0212C14.311 15.6696 15.6245 14.7886 16.9783 15.0441C18.332 15.3116 19.2171 16.625 18.9536 17.9766V17.9786C18.8248 18.6343 18.4507 19.2015 17.8955 19.5736C17.4791 19.8532 16.9984 20 16.5076 20Z" fill="#FFCDB6"/>
    <path d="M14.999 29C12.7928 29 11 27.2046 11 25C11 22.7954 12.7949 21 14.999 21C17.203 21 19 22.7933 19 24.9979C19 27.2026 17.2051 29 14.999 29Z" fill="#FFCDB6"/>
    <path d="M46.503 29C46.4769 29 46.4487 28.998 46.4206 28.998C45.7549 28.9759 45.1336 28.6984 44.6771 28.2099C44.2206 27.7234 43.9793 27.0881 44.0014 26.4206C44.0215 25.7531 44.3011 25.1339 44.7897 24.6775C45.2764 24.2211 45.8977 24.002 46.5794 24C47.2451 24.0221 47.8664 24.2996 48.3229 24.7881C48.7794 25.2746 49.0207 25.9099 48.9986 26.5774C48.9785 27.2449 48.699 27.8641 48.2103 28.3205C47.7458 28.7608 47.1405 29 46.503 29Z" fill="#FFCDB6"/>
    <path d="M45.9918 38C45.1591 38 44.349 37.739 43.6623 37.2438C42.7967 36.6171 42.2231 35.6944 42.0524 34.6403C41.8818 33.5861 42.1306 32.5299 42.7556 31.6628C43.3807 30.7956 44.3058 30.2244 45.3585 30.0538C46.4091 29.8791 47.4721 30.1339 48.3377 30.7566C49.2033 31.3813 49.7769 32.3059 49.9476 33.3601C50.1182 34.4142 49.8694 35.4705 49.2444 36.3376C48.6193 37.2048 47.6942 37.776 46.6415 37.9466C46.4256 37.9836 46.2077 38 45.9918 38Z" fill="#FFCDB6"/>
</svg>
