<svg width="55" height="55" viewBox="0 0 55 55" fill="none" xmlns="http://www.w3.org/2000/svg">
    <rect x="1" y="1" width="53" height="53" rx="16" fill="white" stroke="#04D99D" stroke-width="2"/>
    <path d="M42.2503 17.5994C40.3785 11.3611 34.3604 7.00245 27.6127 7H13.5008C12.673 7 12 7.67057 12 8.49531V46.5047C12 47.3294 12.673 48 13.5008 48H21.0665C21.8943 48 22.5673 47.3294 22.5673 46.5047V37.9684C23.459 37.9293 24.3679 37.9366 25.2497 37.9464C26.9078 37.966 28.6272 37.9782 30.3172 37.6723C34.5938 36.8965 38.5068 34.2216 40.7863 30.5212C43.1002 26.7597 43.621 22.171 42.2503 17.5994ZM28.3005 27.626C27.6447 27.6505 26.979 27.6579 26.3207 27.6579C25.8933 27.6579 24.8886 27.6579 24.0191 27.6579C23.1913 27.6579 22.5207 26.9873 22.5207 26.1625V18.7251C22.5207 17.8979 23.1888 17.2274 24.0191 17.2298C25.5371 17.2323 27.6889 17.242 28.5314 17.3228C30.9976 17.5626 33.1003 20.0222 33.029 22.5846C32.9554 25.2228 30.7913 27.5306 28.3005 27.626Z" fill="#FFCDB6"/>
</svg>
