<svg width="61" height="65" viewBox="0 0 61 65" fill="none" xmlns="http://www.w3.org/2000/svg">
    <rect width="61" height="65" rx="17" fill="white"/>
    <rect x="4" y="5" width="52" height="53" rx="16" fill="white" stroke="#04D99D" stroke-width="2"/>
    <path d="M19.8295 26.6598C13.2431 26.6598 8.57482 22.9545 8.50806 22.8969C7.9072 22.4091 7.83017 21.5434 8.32576 20.958C8.82648 20.3775 9.71749 20.2925 10.3184 20.7778C10.6804 21.0681 19.2594 27.7981 29.1634 20.7278C29.1968 20.6953 39.6966 12.3565 51.4211 20.7278C52.0503 21.1781 52.1889 22.0413 51.7267 22.6568C51.2619 23.2647 50.3786 23.4048 49.7495 22.952C39.789 15.8366 30.9969 22.8244 30.907 22.8969C26.9551 25.7215 23.1471 26.6598 19.8295 26.6598Z" fill="#FFCDB6"/>
    <path d="M19.8295 36.8324C13.2431 36.8324 8.57482 33.1271 8.50806 33.0696C7.9072 32.5817 7.83017 31.7161 8.32576 31.1306C8.82648 30.5502 9.71749 30.4676 10.3184 30.9505C10.6804 31.2407 19.2594 37.9708 29.1634 30.9005C29.1968 30.8679 39.6966 22.5317 51.4211 30.9005C52.0503 31.3508 52.1889 32.2139 51.7267 32.8294C51.2619 33.4399 50.3786 33.575 49.7495 33.1246C39.789 26.0118 30.9969 32.9945 30.907 33.0696C26.9551 35.8917 23.1471 36.8324 19.8295 36.8324Z" fill="#3EE5B1"/>
    <path d="M19.8295 47C13.2431 47 8.57482 43.2947 8.50806 43.2371C7.9072 42.7493 7.83017 41.8836 8.32576 41.2982C8.82648 40.7178 9.71749 40.6352 10.3184 41.1181C10.6804 41.4083 19.2594 48.1383 29.1634 41.068C29.1968 41.033 39.6966 32.6967 51.4211 41.068C52.0503 41.5184 52.1889 42.3815 51.7267 42.997C51.2619 43.6074 50.3786 43.745 49.7495 43.2922C39.789 36.1794 30.9969 43.1646 30.907 43.2371C26.9551 46.0593 23.1471 47 19.8295 47Z" fill="#FFCDB6"/>
</svg>
