<svg width="61" height="65" viewBox="0 0 61 65" fill="none" xmlns="http://www.w3.org/2000/svg">
    <rect width="61" height="65" rx="17" fill="white"/>
    <rect x="4" y="6" width="53" height="53" rx="16" fill="white" stroke="#04D99D" stroke-width="2"/>
    <path d="M45.8593 50.8896L41.911 38H19.089L15.1407 50.8896C14.5133 52.9368 16.0629 55 18.2263 55H30.5013H42.7763C44.9371 54.9973 46.4867 52.9341 45.8593 50.8896ZM21.4851 44.2297H30.6149H39.6853L40.2667 45.9775H30.6149H20.9036L21.4851 44.2297ZM30.6149 50.2482H19.8706L20.452 48.5004H30.6149H40.7778L41.3593 50.2482H30.6149Z" fill="#3EE5B1"/>
    <path d="M36.2885 10H24.7115C19.8999 10 16 14.0344 16 19.0119V30.9881C16 35.9656 19.8999 40 24.7115 40H36.2885C41.1001 40 45 35.9656 45 30.9881V19.0119C45 14.0344 41.1001 10 36.2885 10ZM26.7829 12.7941H33.995C34.6037 12.7941 35.0974 13.3048 35.0974 13.9344C35.0974 14.564 34.6037 15.0748 33.995 15.0748H26.7829C26.1743 15.0748 25.6806 14.564 25.6806 13.9344C25.6806 13.3048 26.1717 12.7941 26.7829 12.7941ZM22.4285 35.0144C21.1538 35.0144 20.122 33.947 20.122 32.6284C20.122 31.3097 21.1538 30.2423 22.4285 30.2423C23.7032 30.2423 24.735 31.3097 24.735 32.6284C24.735 33.947 23.7032 35.0144 22.4285 35.0144ZM38.5715 35.0144C37.2968 35.0144 36.265 33.947 36.265 32.6284C36.265 31.3097 37.2968 30.2423 38.5715 30.2423C39.8462 30.2423 40.878 31.3097 40.878 32.6284C40.878 33.947 39.8462 35.0144 38.5715 35.0144ZM40.878 25.4918C40.878 27.3104 39.4518 28.7858 37.6938 28.7858H23.3088C21.5508 28.7858 20.1246 27.3104 20.1246 25.4918V19.2929C20.1246 17.4743 21.5508 15.9989 23.3088 15.9989H37.6938C39.4518 15.9989 40.878 17.4743 40.878 19.2929V25.4918Z" fill="#FFCDB6"/>
</svg>
