<svg width="61" height="65" viewBox="0 0 61 65" fill="none" xmlns="http://www.w3.org/2000/svg">
    <rect width="61" height="65" rx="17" fill="white"/>
    <rect x="3" y="5" width="53" height="53" rx="16" fill="white" stroke="#04D99D" stroke-width="2"/>
    <path d="M41.408 31.5H32.9684C32.6311 31.5 32.3586 31.2461 32.3586 30.9318C32.3586 30.6175 32.6311 30.3636 32.9684 30.3636H41.408C41.7453 30.3636 42.0177 30.6175 42.0177 30.9318C42.0177 31.2461 41.7438 31.5 41.408 31.5Z" fill="#3EE5B1"/>
    <path d="M25.8675 31.5H17.4279C17.0906 31.5 16.8181 31.2461 16.8181 30.9318C16.8181 30.6175 17.0906 30.3636 17.4279 30.3636H25.8675C26.2047 30.3636 26.4772 30.6175 26.4772 30.9318C26.4772 31.2461 26.2033 31.5 25.8675 31.5Z" fill="#3EE5B1"/>
    <path d="M41.408 37.1818H32.9684C32.6311 37.1818 32.3586 36.9279 32.3586 36.6137C32.3586 36.2994 32.6311 36.0455 32.9684 36.0455H41.408C41.7453 36.0455 42.0177 36.2994 42.0177 36.6137C42.0177 36.9279 41.7438 37.1818 41.408 37.1818Z" fill="#3EE5B1"/>
    <path d="M25.8675 37.1818H17.4279C17.0906 37.1818 16.8181 36.9279 16.8181 36.6137C16.8181 36.2994 17.0906 36.0455 17.4279 36.0455H25.8675C26.2047 36.0455 26.4772 36.2994 26.4772 36.6137C26.4772 36.9279 26.2033 37.1818 25.8675 37.1818Z" fill="#3EE5B1"/>
    <path d="M32.9003 44H26.1368C25.9784 44 25.8272 43.9343 25.7148 43.8194C25.6025 43.7031 25.5405 43.5464 25.5405 43.3822L25.5593 22.9394C25.6702 20.716 27.4086 19 29.5185 19C31.6271 19 33.3669 20.716 33.4778 22.9065C33.4778 22.917 33.4778 22.9289 33.4778 22.9394L33.4951 43.3822C33.4951 43.5449 33.4317 43.7031 33.3208 43.8194C33.2099 43.9358 33.0587 44 32.9003 44Z" fill="#FFCDB6"/>
    <path d="M17.3597 44H10.5963C10.4379 44 10.2866 43.9343 10.1743 43.8194C10.062 43.7031 10 43.5464 10 43.3822L10.0187 22.9394C10.1296 20.716 11.868 19 13.978 19C16.0865 19 17.8264 20.716 17.9373 22.9065C17.9373 22.917 17.9373 22.9289 17.9373 22.9394L17.9545 43.3822C17.9545 43.5449 17.8912 43.7031 17.7803 43.8194C17.6694 43.9358 17.5182 44 17.3597 44Z" fill="#FFCDB6"/>
    <path d="M48.767 44H41.5205C41.3507 44 41.1887 43.9343 41.0683 43.8194C40.948 43.7045 40.8816 43.5464 40.8816 43.3822L40.9017 22.9394C41.0205 20.716 42.8831 19 45.1437 19C47.4029 19 49.267 20.716 49.3858 22.9065C49.3858 22.917 49.3858 22.9289 49.3858 22.9394L49.4043 43.3822C49.4043 43.5449 49.3364 43.7031 49.2176 43.8194C49.0988 43.9358 48.9368 44 48.767 44Z" fill="#FFCDB6"/>
</svg>
