<svg width="55" height="55" viewBox="0 0 55 55" fill="none" xmlns="http://www.w3.org/2000/svg">
    <rect x="1" y="1" width="53" height="53" rx="16" fill="white" stroke="#04D99D" stroke-width="2"/>
    <path d="M13.2061 28.274C15.2075 27.5886 15.9981 24.6527 14.9721 21.7164C13.9461 18.7802 11.4919 16.9555 9.49053 17.6408C7.48915 18.3262 6.69846 21.2622 7.72449 24.1984C8.75051 27.1347 11.2047 28.9594 13.2061 28.274Z" fill="#FFCDB6"/>
    <path d="M36.0905 13.2331C36.5296 10.1563 35.1855 7.42442 33.0884 7.1311C30.9913 6.83779 28.9353 9.09415 28.4962 12.1709C28.0571 15.2476 29.4012 17.9795 31.4983 18.2729C33.5954 18.5662 35.6514 16.3098 36.0905 13.2331Z" fill="#FFCDB6"/>
    <path d="M48.2085 22.9296C49.1244 19.9576 48.2246 17.0524 46.1989 16.4406C44.1732 15.8288 41.7885 17.7421 40.8727 20.7141C39.9568 23.6861 40.8565 26.5914 42.8823 27.2031C44.908 27.8149 47.2926 25.9016 48.2085 22.9296Z" fill="#FFCDB6"/>
    <path d="M25.3132 49.8769C26.9922 49.05 29.0027 49.05 30.6844 49.8769C32.0211 50.5347 33.8186 51.0877 35.9935 50.9884C40.9793 50.7602 43.7659 46.8674 43.9869 41.8389C44.2079 36.8104 41.6099 36.7567 38.26 28.5469C34.9101 20.337 28.0002 21.0135 28.0002 21.0135C28.0002 21.0135 21.0929 20.337 17.7403 28.5469C14.3877 36.7567 11.7897 36.8104 12.0134 41.8389C12.2344 46.8674 15.0211 50.7602 20.0068 50.9884C22.179 51.0877 23.9765 50.532 25.3132 49.8769Z" fill="#3EE5B1"/>
    <path d="M21.1701 18.4931C23.2322 18.0157 24.3246 15.1761 23.6099 12.1507C22.8952 9.12523 20.6442 7.05963 18.582 7.53703C16.5198 8.01442 15.4275 10.854 16.1422 13.8795C16.8568 16.9049 19.1079 18.9705 21.1701 18.4931Z" fill="#FFCDB6"/>
</svg>
