<svg width="61" height="65" viewBox="0 0 61 65" fill="none" xmlns="http://www.w3.org/2000/svg">
    <rect width="61" height="65" rx="17" fill="white"/>
    <rect x="4" y="6" width="53" height="53" rx="16" fill="white" stroke="#04D99D" stroke-width="2"/>
    <path d="M32.2368 18H28.7632C27.2384 18 26 16.7491 26 15.2151V14.7849C26 13.2509 27.2412 12 28.7632 12H32.2368C33.7588 12 35 13.2481 35 14.7849V15.2151C35 16.7491 33.7588 18 32.2368 18ZM28.7604 14.4453C28.5779 14.4453 28.4206 14.6009 28.4206 14.7849V15.2151C28.4206 15.4019 28.5751 15.5575 28.7604 15.5575H32.234C32.4165 15.5575 32.5709 15.4019 32.5709 15.2151V14.7849C32.5709 14.6009 32.4165 14.4453 32.234 14.4453H28.7604Z" fill="#3EE5B1"/>
    <path d="M36.9652 25H24.0348C21.2601 25 19 22.7576 19 20.0013C19 17.2424 21.2574 15 24.0348 15H36.9652C39.7426 15 42 17.2424 42 20.0013C42 22.7549 39.7399 25 36.9652 25Z" fill="#FFCDB6"/>
    <path fill-rule="evenodd" clip-rule="evenodd" d="M23 26C20.7909 26 19 27.7909 19 30V47C19 49.2091 20.7909 51 23 51H38C40.2091 51 42 49.2091 42 47V30C42 27.7909 40.2091 26 38 26H23ZM23.5 31C22.6716 31 22 31.6716 22 32.5V44.5C22 45.3284 22.6716 46 23.5 46C24.3284 46 25 45.3284 25 44.5V32.5C25 31.6716 24.3284 31 23.5 31ZM29 32.5C29 31.6716 29.6716 31 30.5 31C31.3284 31 32 31.6716 32 32.5V44.5C32 45.3284 31.3284 46 30.5 46C29.6716 46 29 45.3284 29 44.5V32.5ZM37.5 31C36.6716 31 36 31.6716 36 32.5V44.5C36 45.3284 36.6716 46 37.5 46C38.3284 46 39 45.3284 39 44.5V32.5C39 31.6716 38.3284 31 37.5 31Z" fill="#FFCDB6"/>
</svg>
