<svg width="653" height="181" viewBox="0 0 653 181" fill="none" xmlns="http://www.w3.org/2000/svg">
<path d="M197.079 181C197.079 181 501.566 181 550.355 181C599.144 181 659.97 179.788 652.349 169.24C644.728 158.692 547.221 154.202 535.398 153.275C523.574 152.349 541.665 106.379 497.72 76.73C453.774 47.0811 404.201 76.73 404.201 76.73C404.201 76.73 362.179 4.60334 295.156 0.398323C183.333 -6.65754 156.41 82.2179 156.837 93.4075C156.837 93.4075 131.624 96.0445 133.404 123.769C133.404 123.769 0 148.857 0 170.523C0.0712249 181 116.239 181 197.079 181Z" fill="white"/>
</svg>
