<svg width="405" height="112" viewBox="0 0 405 112" fill="none" xmlns="http://www.w3.org/2000/svg">
<path d="M121.958 111.982C121.958 111.982 310.383 111.982 340.575 111.982C370.767 111.982 408.408 111.232 403.691 104.706C398.975 98.1803 338.635 95.4023 331.319 94.8291C324.002 94.2559 335.197 65.8149 308.003 47.4716C280.808 29.1283 250.131 47.4716 250.131 47.4716C250.131 47.4716 224.126 2.84801 182.651 0.246436C113.451 -4.11892 96.7908 50.8669 97.0552 57.7897C97.0552 57.7897 81.4523 59.4212 82.5542 76.574C82.5542 76.574 0 92.0953 0 105.5C0.0440759 111.982 71.9319 111.982 121.958 111.982Z" fill="white"/>
</svg>
