<svg id="Calque_1" data-name="Calque 1" xmlns="http://www.w3.org/2000/svg" viewBox="0 0 1320.56 699.99"><defs><style>.cls-1{fill:#fff;}.cls-2{fill:#eead1e;}.cls-3{fill:#1d2546;}.cls-10,.cls-17,.cls-18,.cls-4,.cls-7,.cls-8,.cls-9{fill:none;stroke-miterlimit:10;}.cls-4{stroke:#fedca4;}.cls-17,.cls-4{stroke-linecap:round;}.cls-5{fill:#bfe3ee;}.cls-6{fill:#f8e7e4;}.cls-10,.cls-17,.cls-7,.cls-8,.cls-9{stroke:#e4572b;}.cls-7{stroke-width:0.75px;}.cls-8{stroke-width:2px;}.cls-10{stroke-width:3px;}.cls-11{fill:#e4572b;}.cls-12{fill:#f3b807;}.cls-13,.cls-15{fill:#f7ebe8;}.cls-13{opacity:0.99;}.cls-14{fill:#ddc7c3;}.cls-16{fill:#29325a;}.cls-18{stroke:#fff;}</style></defs><rect class="cls-1" x="0.5" y="0.58" width="1316" height="698.92"/><path class="cls-2" d="M1278,440.78s-25.88-34.89-49.14-27.45a19.16,19.16,0,0,0-12.76,14.86c-1.92,10.58,1.14,26.76,39.26,24.75Z" transform="translate(0.5 -0.5)"/><path class="cls-3" d="M1266.12,450s-19.76-19.06-18.18-41.7a28.43,28.43,0,0,1,2-8.49c1.13-3,2-9.26-5.07-17-10-10.75-8.05-23.87,7.17-29.47s24.65,9.27,26,14.52,11.28,9.62,16.53,9.62,13.82,9.7,11.37,19.06-2.8,16.61,2.45,19.32,8.83,9.1,7.17,13.55Z" transform="translate(0.5 -0.5)"/><path class="cls-4" d="M1225.55,425s20.9.61,35.85,21.07" transform="translate(0.5 -0.5)"/><path class="cls-5" d="M1318.11,425.06v79.55h-35.2c-.08,0-.08.09-.17.09h-61.3c2.28-7.87,9.53-22.39,18.19-22.39a12.6,12.6,0,0,1,1.84.09,26,26,0,0,1-2.19-10.32c0-14.68,12.68-26.66,28.51-27.19,3.32-9,12-16.26,22.21-16.26,4.37,0,8.39,2,11.89,4.11a19.79,19.79,0,0,1,15.65-7.7A5.43,5.43,0,0,1,1318.11,425.06Z" transform="translate(0.5 -0.5)"/><path class="cls-4" d="M1257.55,367.68s23.79,29.56,27.37,62.26" transform="translate(0.5 -0.5)"/><path class="cls-6" d="M1320,453.56s-112.64-37-151.81,77.29-125.74-43.69-328.43,87.53c-179.65,116.31-347.67,17.85-347.67,17.85V700H1320Z" transform="translate(0.5 -0.5)"/><path class="cls-2" d="M0,519.92S298.3,503.69,605.71,700H0Z" transform="translate(0.5 -0.5)"/><path class="cls-1" d="M396.61,648.53h0c0-20.3,17.54-36.76,39.17-36.76H884.22c21.63,0,39.17,16.46,39.17,36.76h0c0,20.31-17.54,36.77-39.17,36.77H435.78C414.15,685.3,396.61,668.83,396.61,648.53Z" transform="translate(0.5 -0.5)"/><line class="cls-7" x1="158.19" y1="353.82" x2="158.19" y2="371.44"/><line class="cls-7" x1="160.84" y1="371.44" x2="160.84" y2="354.2"/><line class="cls-7" x1="150.71" y1="353.82" x2="150.71" y2="371.44"/><line class="cls-7" x1="153.36" y1="371.44" x2="153.36" y2="354.2"/><line class="cls-7" x1="155.67" y1="353.83" x2="155.67" y2="371.44"/><polyline class="cls-8" points="163.59 368.6 163.52 353.82 141.5 353.82 141.6 372.71 127.83 386.93"/><line class="cls-9" x1="55.22" y1="412.8" x2="44.32" y2="393.65"/><line class="cls-10" x1="28.53" y1="393.65" x2="44.13" y2="412.86"/><rect class="cls-11" x="139.27" y="371.66" width="25.43" height="2.55" rx="0.94" transform="translate(304.47 745.38) rotate(180)"/><rect class="cls-11" x="122.26" y="386.24" width="13.98" height="4.98" rx="1.84" transform="translate(259.01 776.95) rotate(180)"/><path class="cls-12" d="M162.42,455.05s-3.46,16-18.16,16.65-17.22-.07-21.33,2.56-42.15,6.14-42.15,6.14-7,3.6-13.55,1.35-7.08-4.34-7.08.06l-9,2.71L30,462.8l15.88-12,108.4-11Z" transform="translate(0.5 -0.5)"/><path class="cls-13" d="M144,378a172,172,0,0,0-14.13,11.25c-6.06,5.54-14.54,8.65-35.48,7.27s-41.94,3.12-50.83,13.15-17,27.87-16.6,34.1.29,21,6.7,22.44,2.71-4.8,9.9-3.67,9.42.92,13.64-2.42,11.57.67,12.24,4.67,3.34,5.56,5.78,8.46,2.45,6.45,5.57,7.11,25.36,4.1,38-3.51,9.57-9.39,2.67-6.72-9.34,5.56-9.57,2.67-2.22-1.33-4.89-.44-6-1.12-5.56-4,1.33-8.45-.45-8.45,6.9-7.35,15.58-3.12,16.68,4.67,22.24.22,8.5-14.56,11.45-14.24,2.94,4.27,4.14,5-.65,4.49.55,5.14,5.91-4,4.7-1.64,1.65,3.61,2.74,3.72,1.86-6.34,6.24-9.41,5.91-7.11,5.14-7.22-4.49-2.84-6.24-2.41-5.25-.32-5.8-2-2.4-1.86-3.61-3.39-3.17-7.44-3.28-11.38-.33-7.33-.33-7.33Z" transform="translate(0.5 -0.5)"/><path class="cls-12" d="M64.74,480.8s.36,7.37,3.2,6.2,3.84-2,2.17,1.67-1.89,7.68-2.28,12.18,5,7.16,1.44,10.34-4.56,5.86-4.53,9.69-.14,5.17,8.87,6.51,9.18,2.43,11.35,1.13,4,.06,3.17-4.29-2.17-8.52-4-8.94-.34-2.94,0-4.1S81.62,508.54,83,505s4.17-6.67,1.67-7.8,2.74-4.08,3.71-5.95-4.21-3.68-3.38-5.36,7.34-.49,7.18-4.09S68.71,474.76,64.74,480.8Z" transform="translate(0.5 -0.5)"/><path class="cls-12" d="M135.94,468.64s-8.54,2.9-7.56,7a25.53,25.53,0,0,1-.08,12.44c-1.07,3.94-2.71,6.34,1.55,8.74s-2.14.6-3.77,1.58-8,5.25-6.87,6.72-2.18,2.31-5.92,6.07-.11,6,2.2,9a18.44,18.44,0,0,0,6,5.49c2.53,1.65,4.39,4.39,8.46,4.39s4.06-2.14,4.06-5.79.77-7-4.17-7.94-8.35-4.06-4.07-2.52,5.49,3.62,7.58,1.32,1.54-4.73,5.16-5.39,3.74-1.75.88-4.61,3-.88,3-2.31,1.65-8.12.44-10.1S135.94,468.64,135.94,468.64Z" transform="translate(0.5 -0.5)"/><polyline class="cls-10" points="127.58 387.3 127.58 370.83 55.13 371.04 55.13 388.3 50.2 393.65"/><path class="cls-12" d="M168.89,524.32s-3.21-4.21-1.72-5.75,5.85-7.61,3.85-10,.11-11.19-3.85-11.67-17.44,2.35-11.41,8.82.81,19.87.81,19.87Z" transform="translate(0.5 -0.5)"/><path class="cls-14" d="M286.61,472.88s8.1-1.49-9.74-4.39-52-29.92-52-29.92S234.33,473.24,286.61,472.88Z" transform="translate(0.5 -0.5)"/><path class="cls-12" d="M243.78,421.61a12,12,0,0,1,3.81,4.39c1.13,2.57,6.93,7.89,6.36,9s.48,2.82.48,2.82,4.46,6.28,4.41,8.7,4.82,8.22,4.76,9.18-.54,3.79-.54,3.79,3.78,6.36,3.78,10.07,2.14,9.34,1.56,11,1.26,8-1,9.11-7.38-.07-8.57-4.68-1.62-9.52-2.67-10.39-3.38-7.85-3.38-7.85-5.16-14.81-9-19.71S244,436.24,242.1,435s-8.56-.36-8.56-.36L232.13,431s4.58.69,6.7-2.54S242.29,422.67,243.78,421.61Z" transform="translate(0.5 -0.5)"/><path class="cls-15" d="M246.14,420.88a5.83,5.83,0,0,1-1.27-1.76c-.48-1.07-1.26-1.17-2.14-2.83s-3.52-5.47-4.2-5.47a29.9,29.9,0,0,0-5.46,1.08c-.88.39-1.57-2.64-1.57-2.64s2.35-2.93,3.13-2.83c0,0-2.34-1.95-3.13-2.63s-3.7-3-3.8-3.32a23.5,23.5,0,0,0-1.86-2.15,6.54,6.54,0,0,0-.78-3.41,37.5,37.5,0,0,1-2.63-4.49c-1.47-2.74-2.34-4.49-5.76-6s-5.76-4.19-6.64-4.49-8.58-8.68-18.05-10.24-13.76,0-13.76,0-5.53-.72-7.12-.7-7.18-2.73-15.2,0-11.59,4.29-14.9,10.15c0,0,34.28,45.06,51.69,49.51s19.43,3.45,21.66,5.87,6.88,3.24,6.68,1.62-1.62-7.28.4-7.28,8.75,2.16,11.29,2.16,4.51,0,6.91-3.67S243.07,420.84,246.14,420.88Z" transform="translate(0.5 -0.5)"/><path class="cls-15" d="M254.43,431.56a16,16,0,0,1-2.89-3.32,19.09,19.09,0,0,0-3-4.16c-.26,0-6,5.1-7.14,7.48,0,0-6.54,2.29-7.38,3s3,6.28,3.82,6.28-1.36-4.67,1.36-5.43,7.3-.09,9.25-1.45A23.64,23.64,0,0,1,254.43,431.56Z" transform="translate(0.5 -0.5)"/><path class="cls-15" d="M259.69,443.28s-.5-1.28-1.44-3.32-1.7-4.5-2.38-4.33-5.6,2.64-8.32,3-4.76,2.79-5.78,4.19-1.86,1.58-1.61,2.51,3.06,4.25,3.65,3.57-.35-3.65,2.33-4.24,5.4.51,7,.17S259.69,443.28,259.69,443.28Z" transform="translate(0.5 -0.5)"/><path class="cls-15" d="M263.6,454.32a17.43,17.43,0,0,1-1.44-3.91c0-.93-.6-3.48-1.62-3.31s-9.76,2.63-12.31,4-1.7,1-1.7,1,4.93,3.23,5.52,3.23,2.63-.85,3.82-.68S263.6,454.32,263.6,454.32Z" transform="translate(0.5 -0.5)"/><path class="cls-15" d="M266.35,462.58s-1.28-4.29-1.59-4.29-5.2.68-6.33,1.81-6.94,1.58-7.09,3.54.76,5.8,1.89,4.75S266.35,462.58,266.35,462.58Z" transform="translate(0.5 -0.5)"/><path class="cls-15" d="M266.8,468.92s1,0,1.28,1.28.53,5.43,0,5.35-7.2-.9-8.39-.45-2.77,1.81-2.77,2.26-.6,1.13-1.13,0-1.73-4.15.91-5.8S261.6,469.29,266.8,468.92Z" transform="translate(0.5 -0.5)"/><path class="cls-15" d="M283,468.57s4.6-.34,1.5-1.58-18.26-4.43-26.94-8.33-19.32-11.59-23.67-23-3.27-7.9-9.12-7.9-5.17,4.09-4.1,6.57S237.32,469.53,283,468.57Z" transform="translate(0.5 -0.5)"/><path class="cls-16" d="M205.16,396.63s1.52.8,2.8,1.6,3,.48,3-1.2S208.93,393.19,205.16,396.63Z" transform="translate(0.5 -0.5)"/><path class="cls-15" d="M166.48,499.09s3.25.88,3.25,0-.35-3.86-1.62-5.17-3.47-4.48-3.56-6.32-2.19-9.92-3.77-11-1.23-2.54-3.51-3.16-6.14-7.28-14.57-6.76-12.11,6.32-11.84,9.66,1.14,10.18,7.63,14.3,7.2,9.65,9.3,11.14S160.6,501.55,166.48,499.09Z" transform="translate(0.5 -0.5)"/><path class="cls-15" d="M172.54,513a29.69,29.69,0,0,0-1.52-4.45c-.82-1.7-.65-5.68-.71-6.17s-3.8-.36-7.48.75-7.88,1.93-8.48,4.42S152,510,152,511.24s.41,12.87,3.38,13.08,10.61-6.62,12.27-8.13A29.79,29.79,0,0,1,172.54,513Z" transform="translate(0.5 -0.5)"/><path class="cls-15" d="M179,534.7s5.54.56,5.47-1.73-1.59-5.27-3.39-6.17-3.68-4.44-5.34-4.65-20.74,1.52-22.41,3.26-6.45,8.74-.62,8.25S174.61,535.6,179,534.7Z" transform="translate(0.5 -0.5)"/><path class="cls-12" d="M50.38,486.47s1.71,6.18,0,7.24S35.91,504.22,38,506.33a36.36,36.36,0,0,1,4.17,5.5s-7.45,5.52-2.92,9.09-16.75,3.3-16.75,3.3,3.66-7.36,3.66-10.78S31,499.23,31,499.23s8.82-12.76,8.82-15.52S50.38,486.47,50.38,486.47Z" transform="translate(0.5 -0.5)"/><path class="cls-15" d="M60.15,481.81a10.81,10.81,0,0,1-3.22-.84c-1.32-.65-3.13-.65-4.44-1.39a33.88,33.88,0,0,1-4.94-4.28c-1.15-1.15-3.29-2.55-3.94-3.37s-2-2.39-3.62-2.22-2.47,0-3.79-1.65-1.72-1.56-2.55-1.81S30,461.56,30,462.8s-2.05,15.3-2.88,16.45,2.47-.41,5,.08,6.33,4.6,6.58,5.92S52.08,492.32,52.9,491,55.57,484.46,60.15,481.81Z" transform="translate(0.5 -0.5)"/><path class="cls-15" d="M26.06,506.14s-1.37,2.07.89,2.07,16.53.54,16.6,0,1.14-7.21,3.74-9.41,5.28-4.88,4.48-5.28-5.54-1.13-8.75-3.6-4.87-4.08-8.35-4.08-6.07.27-5.61,3.07S26.06,506.14,26.06,506.14Z" transform="translate(0.5 -0.5)"/><path class="cls-15" d="M40.83,516.7s2.72.17,2.72-.74,0-4.13-1.36-4.13-9.29-.91-11.52-2.48-5.13-2-6.7,1.07-1.9,6-.82,6.29S40.83,516.7,40.83,516.7Z" transform="translate(0.5 -0.5)"/><path class="cls-15" d="M44.38,532s4.71,0,4.87-3-5.37-10.16-5.7-9.5-6.52,2.06-8.18,1.9-6.44,1.16-7.51,1.49-6.2-.25-6.61.24-2.9,6.28,1.27,6.86,9.42.83,10.52,1.32S44.38,532,44.38,532Z" transform="translate(0.5 -0.5)"/><path class="cls-12" d="M268.4,488.21s-2.61,4.73-4.15,7.61-6.07,8.54-6.18,9.46-6-.41-4.62-3.49,4.11-4.84,4.11-7-.12-7.76,1.28-9.75S268.4,488.21,268.4,488.21Z" transform="translate(0.5 -0.5)"/><path class="cls-15" d="M269.21,481.43s.33-2-.81-2.18-5-.38-6.2-.46-4.45.15-5,2.64.38,5.66,1,4.9,3.47-1.81,5.73-1.05,5.45,1.58,5.33,1.17S269.21,481.43,269.21,481.43Z" transform="translate(0.5 -0.5)"/><path class="cls-15" d="M265.58,495.08s1.43-1.6,1.48-2.57,1.2-3-.23-3.31-4.67-1.71-5.76-1.83-3.19-.11-3.47.63-1.09,2.91,0,2.79,3.35-.17,4.13.86S264.9,495.26,265.58,495.08Z" transform="translate(0.5 -0.5)"/><path class="cls-15" d="M262.3,497a1.46,1.46,0,0,1,.86,2c-.49,1.59-2.59,3.32-2.85,2.71a2.48,2.48,0,0,0-2.37-1.74c-1.43.11-4.45-.23-4.17-1.26s1-4.22,3.27-4.16S260.38,496.73,262.3,497Z" transform="translate(0.5 -0.5)"/><path class="cls-15" d="M254.82,503.45a2.35,2.35,0,0,0,1.67.22c1.23-.13,2.33.44,2.33,2.29s-.88,3.16-1.41,5.05-.7,5.89-1.58,4.66-2.94-5.67-3.51-5.67-3.52,4.31-4.13,3.69.43-4.17,2.46-7.56S253.11,500.86,254.82,503.45Z" transform="translate(0.5 -0.5)"/><rect class="cls-11" x="41.94" y="436.07" width="96.9" height="4.62" rx="1.7" transform="translate(181.28 876.25) rotate(-180)"/><rect class="cls-16" x="43.8" y="439.88" width="93.17" height="2.78" rx="1.03" transform="translate(181.28 882.04) rotate(-180)"/><rect class="cls-16" x="43.8" y="433.77" width="93.17" height="2.78" rx="1.03" transform="translate(181.28 869.82) rotate(180)"/><rect class="cls-11" x="52.64" y="387.43" width="75.32" height="2.78" rx="1.03" transform="translate(181.09 777.15) rotate(-180)"/><rect class="cls-11" x="26.37" y="392.34" width="25.43" height="2.55" rx="0.94" transform="translate(78.67 786.73) rotate(-180)"/><rect class="cls-16" x="103.72" y="407.53" width="22.36" height="26.24" transform="translate(230.3 840.79) rotate(-180)"/><polygon class="cls-16" points="74.53 412.04 64.57 395.54 56.13 412.04 74.53 412.04"/><rect class="cls-16" x="55.63" y="412.54" width="18.39" height="21.59" transform="translate(130.16 846.17) rotate(-180)"/><line class="cls-7" x1="119.54" y1="370.83" x2="119.54" y2="386.93"/><line class="cls-7" x1="116.83" y1="370.83" x2="116.83" y2="386.93"/><line class="cls-7" x1="114.11" y1="370.83" x2="114.11" y2="386.93"/><line class="cls-7" x1="108.68" y1="370.83" x2="108.68" y2="386.93"/><line class="cls-7" x1="105.96" y1="370.83" x2="105.96" y2="386.93"/><line class="cls-7" x1="103.25" y1="370.83" x2="103.25" y2="386.93"/><line class="cls-7" x1="100.53" y1="370.83" x2="100.53" y2="386.93"/><line class="cls-7" x1="97.82" y1="370.83" x2="97.82" y2="386.93"/><line class="cls-7" x1="95.1" y1="370.83" x2="95.1" y2="386.93"/><line class="cls-7" x1="92.39" y1="370.83" x2="92.39" y2="386.93"/><line class="cls-7" x1="89.67" y1="370.83" x2="89.67" y2="386.93"/><line class="cls-7" x1="86.96" y1="370.83" x2="86.96" y2="386.93"/><line class="cls-7" x1="84.24" y1="370.83" x2="84.24" y2="386.93"/><line class="cls-7" x1="81.53" y1="370.83" x2="81.53" y2="386.93"/><line class="cls-7" x1="78.81" y1="370.83" x2="78.81" y2="386.93"/><line class="cls-7" x1="76.09" y1="370.83" x2="76.09" y2="386.93"/><line class="cls-7" x1="73.38" y1="370.83" x2="73.38" y2="386.93"/><line class="cls-7" x1="70.66" y1="386.93" x2="70.66" y2="370.83"/><line class="cls-7" x1="67.95" y1="370.83" x2="67.95" y2="386.93"/><line class="cls-7" x1="65.23" y1="370.83" x2="65.23" y2="386.93"/><line class="cls-7" x1="62.52" y1="370.83" x2="62.52" y2="386.93"/><line class="cls-7" x1="59.8" y1="370.83" x2="59.8" y2="386.93"/><line class="cls-7" x1="57.09" y1="370.83" x2="57.09" y2="386.93"/><line class="cls-7" x1="122.19" y1="386.93" x2="122.19" y2="371.17"/><line class="cls-7" x1="124.51" y1="370.84" x2="124.51" y2="386.93"/><path class="cls-15" d="M173.8,438.42a14.36,14.36,0,0,1,4.89-12.91c6.32-5.31-22.09-23-26.72-16.43S156.73,442.74,173.8,438.42Z" transform="translate(0.5 -0.5)"/><path class="cls-12" d="M185.85,386.46a13.36,13.36,0,0,1,4.27,5.93c1.43,3.92,1.66,14.12,1.9,22.18s-1.3,14.59-1.3,17.2,1.06,7.24-.48,7.12-8.06-1.78-8.66-3.68-.23-3.79-2.49-4.51-7-3.67-7.11-5.57-2.49-8.78-3.09-7.95-1.07,4.63-2.73,3.2a12.79,12.79,0,0,0-3.91-2.25c-1.07-.47-4.39-1.18-3.68-2.61S160,412,158,412.68s-3.8.95-4.75,0-5.93-1.55-6.64-3,.95-3.08-1.07-3.08-2.12-1.31-1.53-3-1.46-3.8-3-3.91-2.35-1.24-2.12-4.95-1.12-12.58,4.07-18.53,16.45-5,16.57-1.79-4,11.51,8.66,15.78S186.21,388.48,185.85,386.46Z" transform="translate(0.5 -0.5)"/><rect class="cls-16" x="61.93" y="395.6" width="4.28" height="3.78" rx="1.4" transform="translate(128.65 794.49) rotate(-180)"/><polyline class="cls-17" points="71.72 411.77 64.71 400.25 58.94 412.04"/><polygon class="cls-16" points="126.58 407.53 114.48 387.47 104.22 407.53 126.58 407.53"/><rect class="cls-16" x="113.06" y="377.06" width="1.84" height="15.01" rx="0.68" transform="translate(228.46 768.62) rotate(-180)"/><rect class="cls-16" x="111.65" y="387.47" width="4.9" height="3.78" rx="1.4" transform="translate(228.7 778.22) rotate(180)"/><polyline class="cls-17" points="123.12 406.03 114.48 391.84 107.37 406.37"/><rect class="cls-16" x="63.32" y="387.47" width="1.51" height="12.35" rx="0.56" transform="translate(128.65 786.78) rotate(180)"/><polyline class="cls-8" points="141.5 353.82 127.83 367.62 127.83 370.93"/><polyline class="cls-8" points="111.22 346.05 111.39 386.93 111.39 370.83"/><line class="cls-8" x1="71.72" y1="346.05" x2="71.72" y2="388.86"/><path class="cls-11" d="M138.23,343.86s-2.71,1.59-8.91,0-9.85-.53-14.28,0-20.85.44-26.6-.84-13.28,1.46-15.23,1.55-26.5-2.86-30.62,1.77c0,0-2.06-.78,6.17,0s24.5-.52,34.25,1.28,35.41,1.29,38,0S135.85,349.36,138.23,343.86Z" transform="translate(0.5 -0.5)"/><path class="cls-10" d="M54.63,371.33,51.8,375.4H28s-6.1,8.07,1.44,18.21" transform="translate(0.5 -0.5)"/><line class="cls-7" x1="51.14" y1="391.84" x2="51.14" y2="375.73"/><line class="cls-7" x1="48.43" y1="375.73" x2="48.43" y2="391.84"/><line class="cls-7" x1="45.71" y1="375.73" x2="45.71" y2="391.84"/><line class="cls-7" x1="35.02" y1="375.73" x2="35.02" y2="391.84"/><line class="cls-7" x1="32.3" y1="375.73" x2="32.3" y2="391.84"/><line class="cls-7" x1="29.59" y1="375.73" x2="29.59" y2="391.84"/><line class="cls-7" x1="43" y1="375.73" x2="43" y2="391.84"/><line class="cls-7" x1="40.28" y1="375.73" x2="40.28" y2="391.84"/><line class="cls-7" x1="37.57" y1="375.73" x2="37.57" y2="391.84"/><line class="cls-7" x1="52.98" y1="390.61" x2="52.98" y2="374.51"/><line class="cls-7" x1="143.23" y1="353.82" x2="143.23" y2="371.44"/><line class="cls-7" x1="145.88" y1="371.44" x2="145.88" y2="354.2"/><line class="cls-7" x1="148.19" y1="353.83" x2="148.19" y2="371.44"/><line class="cls-7" x1="136.39" y1="359.27" x2="136.39" y2="377.54"/><line class="cls-7" x1="138.73" y1="375.27" x2="138.73" y2="356.55"/><line class="cls-7" x1="133.87" y1="361.79" x2="133.87" y2="380.3"/><line class="cls-7" x1="131.52" y1="364.14" x2="131.52" y2="382.42"/><line class="cls-7" x1="129" y1="366.67" x2="129" y2="385.18"/><path class="cls-18" d="M775.07,700c34-8,70-22.28,106.44-45.89,193.52-125.28,276.18,25.53,313.57-83.57,11.82-34.49,30.64-54.54,50.87-65.84,26.49-14.81,55.37-14.61,74-12.15" transform="translate(0.5 -0.5)"/><path class="cls-18" d="M0,573.92s227.71.7,492.09,126.08" transform="translate(0.5 -0.5)"/><path class="cls-2" d="M62.12,167.77c-1.57,14-11.29,25.77-24.45,31-10.67,4.19-25,6.24-37.67-4V87.31c13.82,8,37,23.4,50.92,43.16C58.8,141.67,63.67,154.3,62.12,167.77Z" transform="translate(0.5 -0.5)"/><path class="cls-5" d="M171.81,98.57c-5.16,32.29-30.37,41.2-55.53,25.66-18-11-30.1-6.84-35.55-3.44a57.56,57.56,0,0,1-16,7.29,77.89,77.89,0,0,1-13.81,2.39C32,132,13.83,127,0,121.35V1.07c8.22-2.25,19.57,2.31,26.16,10.4,7.41,9.32,21.64,5.81,39.19-2.68s40.11,4.69,42.16,15.08,14.56,28.4,25.46,29S177,66.29,171.81,98.57Z" transform="translate(0.5 -0.5)"/><path class="cls-4" d="M0,124.76c33.18,22.37,40.4,54.12,40.4,54.12" transform="translate(0.5 -0.5)"/><path class="cls-18" d="M141.28,93.25S73.54,57.69,7.42,63.32" transform="translate(0.5 -0.5)"/></svg>