<?xml version="1.0" encoding="utf-8"?>
<!-- Generator: Adobe Illustrator 25.1.0, SVG Export Plug-In . SVG Version: 6.00 Build 0)  -->
<svg version="1.1" id="Calque_1" xmlns="http://www.w3.org/2000/svg" xmlns:xlink="http://www.w3.org/1999/xlink" x="0px" y="0px"
	 viewBox="0 0 50 50" style="enable-background:new 0 0 50 50;" xml:space="preserve">
<style type="text/css">
	.st0{fill:#F7EBE7;}
	.st1{fill:#BEE2ED;}
	.st2{fill:none;stroke:#000000;stroke-width:2;stroke-miterlimit:10;}
	.st3{fill:none;stroke:#000000;stroke-width:2;stroke-linecap:round;stroke-linejoin:round;stroke-miterlimit:10;}
</style>
<g>
	<path class="st0" d="M43.8,25.6c1.5,2.9,1.1,6.5-1,9c-1.1,1.3-2.6,2.2-4.7,2.1c-5.9-0.3-8.6-4.7-8.6-4.7s-4.2-6.6-10.5-2.1
		c-2.7,1.9-5.1,1.5-6.9,0.4c-3.6-2.1-5-6.5-3.5-10.4c1-2.6,3.4-5.4,8.5-6.6c0,0,7.1-1.9,10.7-9.4s9.1-2,9.1-2l5.2,5.9
		c1.6,1.9,2.1,4.5,1.2,6.8l0,0C41.9,18.1,42.1,22.2,43.8,25.6L43.8,25.6z"/>
	<path class="st1" d="M19.5,32.4c1.1-0.9,2.5-1.3,4-1.3c1.7,0,3.7,0.8,4.7,3.5c1.5,4.1,7.4,4.9,10.3,5.1c1.8,0.1,3.5,0.8,4.7,2
		c1.1,1.1,1.8,2.5,1.2,4.3c-0.7,2.1-2.6,3.7-4.9,3.9c-1.3,0.1-2.9-0.1-4.8-1.3c0,0-11.4-6.2-18.9-1c-1.4,1-3,1.5-4.7,1.3
		C8.2,48.7,4.7,46.6,5,38.5c0,0,0-0.1,0-0.1c0-3.7,3.8-6.2,7.2-4.9C14,34.2,16.7,34.6,19.5,32.4z"/>
	<g>
		<g>
			<path class="st2" d="M31.3,31.4H20.7c-1.6,0-2.9-1.3-2.9-2.9V17.9c0-1.6,1.3-2.9,2.9-2.9h10.6c1.6,0,2.9,1.3,2.9,2.9v10.6
				C34.2,30.1,32.9,31.4,31.3,31.4z"/>
			<line class="st2" x1="17.8" y1="27.1" x2="34.2" y2="27.1"/>
			<circle cx="30.8" cy="29.1" r="0.6"/>
			<circle cx="21.3" cy="29.1" r="0.6"/>
		</g>
		<path class="st2" d="M18.6,30.6v2.7c0,0.4,0.1,0.7,0.2,1.1c0.3,0.5,0.8,1.1,1.8,1.1c1.1,0,1.6-0.6,1.8-1.2
			c0.2-0.4,0.2-0.8,0.2-1.2v-1.7"/>
		<path class="st2" d="M33.5,30.6v2.7c0,0.4-0.1,0.7-0.2,1.1c-0.3,0.5-0.8,1.1-1.8,1.1c-1.1,0-1.6-0.6-1.8-1.2
			c-0.2-0.4-0.2-0.8-0.2-1.2v-1.7"/>
	</g>
	<g>
		<circle class="st2" cx="26.1" cy="25.6" r="14.8"/>
		<g>
			<path class="st3" d="M22,46.8v-1.7c0-1.3,1.1-2.4,2.4-2.4h3.4c1.3,0,2.4,1.1,2.4,2.4v1.7"/>
			<rect x="23.1" y="40.6" width="5.9" height="2.5"/>
		</g>
	</g>
</g>
</svg>
