<?xml version="1.0" encoding="utf-8"?>
<!-- Generator: Adobe Illustrator 25.1.0, SVG Export Plug-In . SVG Version: 6.00 Build 0)  -->
<svg version="1.1" id="Calque_1" xmlns="http://www.w3.org/2000/svg" xmlns:xlink="http://www.w3.org/1999/xlink" x="0px" y="0px"
	 viewBox="0 0 50 50" style="enable-background:new 0 0 50 50;" xml:space="preserve">
<style type="text/css">
	.st0{fill:#F7EBE7;}
	.st1{fill:#BEE2ED;}
	.st2{fill:none;stroke:#000000;stroke-width:2;stroke-linecap:round;stroke-linejoin:round;stroke-miterlimit:10;}
</style>
<path class="st0" d="M18.8,27c0,0,6.1-1.8,9.5,0.3c3.8,2.4,2.7,5.9,8.1,5.8c0,0,2.2,0.1,5.4-1.5c1.3-0.6,2.2-0.4,2.9,0.2
	c1.1,0.9,1.3,2.5,0.5,3.7c-2.3,3.6-9.4,12.7-22.7,13.1c-2.8,0.1-5.6-0.5-8-1.9c-2.5-1.5-5.1-4.1-5.3-8.6C8.7,29.2,18.8,27,18.8,27z"
	/>
<path class="st1" d="M38.3,24.6c1.3,2.6,1,5.9-0.9,8.1c-0.9,1.1-2.2,2-4,1.9c-5-0.3-7.2-4.2-7.2-4.2s-3.5-5.9-8.8-1.9
	c-2.3,1.7-4.3,1.4-5.8,0.4c-3-1.9-4.2-5.9-2.9-9.4c0.9-2.4,2.9-4.8,7.2-5.9c0,0,6-1.7,9.1-8.5s7.7-1.8,7.7-1.8L37,8.6
	c1.4,1.7,1.8,4,1,6.1l0,0C36.7,17.9,36.9,21.5,38.3,24.6L38.3,24.6z"/>
<g>
	<g>
		<line class="st2" x1="11.2" y1="41.1" x2="25.8" y2="41.1"/>
		<polyline class="st2" points="14.3,41.1 14.3,31.1 20.2,27.2 		"/>
		<polyline class="st2" points="20.2,41.1 20.2,22.5 25.8,18.1 		"/>
		<polyline class="st2" points="22.7,20.5 22.7,16.4 25.8,13.8 25.8,8.3 		"/>
		<line class="st2" x1="25.8" y1="10.1" x2="24.2" y2="10.1"/>
		<path class="st2" d="M23.8,41.1v-4.5c0,0,0-3.3,2-4.3"/>
	</g>
	<g>
		<line class="st2" x1="40.4" y1="41.1" x2="25.8" y2="41.1"/>
		<polyline class="st2" points="37.3,41.1 37.3,31.1 31.5,27.2 		"/>
		<polyline class="st2" points="31.5,41.1 31.5,22.5 25.8,18.1 		"/>
		<polyline class="st2" points="29,20.5 29,16.4 25.8,13.8 25.8,8.3 		"/>
		<line class="st2" x1="25.8" y1="10.1" x2="27.4" y2="10.1"/>
		<path class="st2" d="M27.9,41.1v-4.5c0,0,0-3.3-2-4.3"/>
	</g>
</g>
</svg>
