<svg id="Calque_1" data-name="Calque 1" xmlns="http://www.w3.org/2000/svg" viewBox="0 0 99.06 67.13"><defs><style>.cls-1{fill:#e55720;}.cls-2{fill:#f2b700;}.cls-3{fill:#fff;}</style></defs><path class="cls-1" d="M52.12,2.45s-6.49-3.11-13-.53c-2.38.94-3.66,3.09-5.49,4.47C21.25,15.64,16.14,6,9.07,26.94c-1,2.82-4.95,3.15-6.38,5.45C-.1,36.88-1.06,44.3,11.6,53.32c16.78,12,33.42,2.31,39.53-2.15,1.6-1.17,3.22-2.31,4.89-3.39,4.94-3.16,14.86-11,5.54-18.36-7.41-5.85-4.18-12.94-3.14-14.62a8.91,8.91,0,0,0,1.25-3.05C60.2,8.85,57.3,4.91,52.12,2.45Z" transform="translate(-0.94 -0.89)"/><path class="cls-2" d="M79.2,10c-6-3.08-13.57-.55-15.14,4.89-1.42,4.89-1.58,11.29,4.5,15.86,11.21,8.44-16,24.28-16,24.28s-9.9,7.3,5,11.87a31.08,31.08,0,0,0,15,.41c12.81-2.48,22.81-10.4,26.45-20.84,1.51-4.31,1.07-8.08-.25-13.53C95.68,20.06,86.9,15.49,82.94,12.67c-.83-.58-1.6-1.21-2.39-1.83A9.38,9.38,0,0,0,79.2,10Z" transform="translate(-0.94 -0.89)"/><path class="cls-3" d="M5.67,39.47,5.81,42c0,.13,0,.39,0,.75a1.47,1.47,0,0,1-.41,1,1.23,1.23,0,0,1-1,.43c-.38,0-.67,0-.88,0-.75,0-1.13-.34-1.13-1s.25-2.77.75-6.65S4,30.08,4.13,29s.25-2.06.36-2.83.17-1.33.22-1.7a10.65,10.65,0,0,1,.21-1.1,2.3,2.3,0,0,1,.41-.89,2.42,2.42,0,0,1,2-.66q2.48,1.25,5.09,7c1.23,2.75,2.06,4.49,2.47,5.22a4.6,4.6,0,0,0,1.2,1.52l6.88-12A2.27,2.27,0,0,1,24.05,23a1.86,1.86,0,0,1,1.69,1,10.5,10.5,0,0,1,1,2.42,31.26,31.26,0,0,1,.68,3.15c.2,1.14.37,2.34.52,3.59s.29,2.47.43,3.66q.48,4.29.74,5.39a8.1,8.1,0,0,1,.26,1.56,1.58,1.58,0,0,1-.31.9,1,1,0,0,1-.86.43,1.8,1.8,0,0,1-1.1-.43,1.72,1.72,0,0,1-.67-1.07c-.08-.42-.16-1-.24-1.66s-.18-1.46-.29-2.32-.23-1.77-.35-2.72-.23-1.86-.34-2.73-.22-1.64-.31-2.32-.16-1.18-.21-1.53,0-.88,0-1.27-.12-.63-.28-.72-.4,0-.73.33a10.29,10.29,0,0,0-1.4,1.87q-1.92,3-5.56,10.07A.81.81,0,0,1,15.4,41a4.36,4.36,0,0,1-1.58-2.64L7.49,24.93Q6.67,26.58,6,35.86c-.07.76-.11,1.4-.14,1.92A9.05,9.05,0,0,0,5.67,39.47Z" transform="translate(-0.94 -0.89)"/><path class="cls-3" d="M45,39.5a10.73,10.73,0,0,1-6.87,5,8.84,8.84,0,0,1-1.81.2H35a6,6,0,0,1-1.18-.16,4.19,4.19,0,0,1-1.2-.44,2.24,2.24,0,0,1-1.28-2,6.57,6.57,0,0,1-.13-1.39,8.22,8.22,0,0,1,.34-2,11.06,11.06,0,0,1,1.25-2.75A13.58,13.58,0,0,1,35,33.18a12.8,12.8,0,0,1,5.88-3.37,8.24,8.24,0,0,1,1.7-.2,8.4,8.4,0,0,1,1.39.1c1.33,0,2.22.91,2.68,2.71a22.69,22.69,0,0,1,.53,4.8c.06,2.05.12,3.63.17,4.74a16.13,16.13,0,0,0,.43,3h-2q-.15-.93-.21-1.65c-.05-.48-.09-.93-.14-1.34A24,24,0,0,0,45,39.5Zm-.14-5.32a1.75,1.75,0,0,0-2-2,3.87,3.87,0,0,0-.48,0,8.33,8.33,0,0,0-5.29,2.4A12.16,12.16,0,0,0,34.88,37a6.29,6.29,0,0,0-1.38,3.5c0,1.35.78,2.16,2.34,2.41a8.77,8.77,0,0,0,5.91-2.82,11.73,11.73,0,0,0,2-2.61A6.88,6.88,0,0,0,44.84,34.18Z" transform="translate(-0.94 -0.89)"/><path class="cls-3" d="M49.34,44.18a46.21,46.21,0,0,0,3.4-3.85,24.93,24.93,0,0,0,2.1-2.89L52,34.28c-.36-.39-.72-.78-1.06-1.17s-.65-.73-.93-1-.49-.55-.65-.75l-.24-.28,2-2.13c1,1.26,1.79,2.22,2.29,2.87l1.18,1.56a25.83,25.83,0,0,0,2.2,2.37l1.72-2.47q2.05-3.06,3.3-4.54a1.78,1.78,0,0,1,1.75,1.58,20.89,20.89,0,0,1-2.58,4.06c-.41.5-.79,1-1.13,1.46A6.3,6.3,0,0,0,59,37.34a28.37,28.37,0,0,1,5,5c.43.53.74.93.93,1.21a1.45,1.45,0,0,1-.38.72,3.07,3.07,0,0,1-1,1,4.39,4.39,0,0,1-1.36-1.12c-.47-.54-1-1.13-1.49-1.77S59.58,41.14,59,40.5a9.14,9.14,0,0,0-1.76-1.58c-.53.59-1.26,1.45-2.2,2.58a28.74,28.74,0,0,1-3.44,3.71,2.82,2.82,0,0,1-1.85-.62A.92.92,0,0,1,49.34,44.18Z" transform="translate(-0.94 -0.89)"/><path class="cls-3" d="M95.66,27.79c0,1.37-1.1,3-3.3,4.84q-.83.66-1.41,1.17c2.82,0,4.5.71,5,2a2.47,2.47,0,0,1,.17.93A4.53,4.53,0,0,1,95.92,38a7.19,7.19,0,0,1-1.09,1.91A15.05,15.05,0,0,1,87.69,45a5.68,5.68,0,0,1-1.5.27h-.91a1.63,1.63,0,0,1-.72-.23.71.71,0,0,1-.38-.68,16.49,16.49,0,0,0,4.54-1.86A13.39,13.39,0,0,0,91.81,40a4.69,4.69,0,0,0,1.34-2.68,1.52,1.52,0,0,0-.65-1.44,3.38,3.38,0,0,0-1.69-.38q-2.61,0-7.11,2.13l-1.2-1.54q10.41-4.82,10.41-6.91c0-.59-.65-1-2-1.17a18.22,18.22,0,0,0-4.62.69c-1.73.46-3.06.79-4,1a13.83,13.83,0,0,1-2.89.31c0-1.08.26-1.71.79-1.89l3.06-.76A36.67,36.67,0,0,1,91.76,26C93.88,26,95.18,26.6,95.66,27.79Z" transform="translate(-0.94 -0.89)"/></svg>