<svg id="Calque_1" data-name="Calque 1" xmlns="http://www.w3.org/2000/svg" viewBox="0 0 102.52 67.13"><defs><style>.cls-1{fill:#0c7aa0;}.cls-2{fill:#29325a;}.cls-3{fill:#fff;}</style></defs><path class="cls-1" d="M52.44,2.71s-6.5-3.11-13-.54c-2.38,1-3.66,3.1-5.49,4.47C21.57,15.9,16.46,6.24,9.39,27.2,8.43,30,4.44,30.35,3,32.65.22,37.14-.74,44.56,11.92,53.58c16.78,12,33.42,2.3,39.53-2.15,1.6-1.17,3.22-2.32,4.89-3.39,4.94-3.16,14.86-11,5.54-18.36-7.41-5.85-4.18-12.94-3.14-14.62A9,9,0,0,0,60,12C60.51,9.11,57.62,5.17,52.44,2.71Z" transform="translate(-1.26 -1.15)"/><path class="cls-2" d="M79.52,10.26c-6-3.08-13.57-.55-15.15,4.89C63,20,62.8,26.44,68.88,31c11.21,8.43-16,24.28-16,24.28s-9.89,7.3,5,11.87a31.12,31.12,0,0,0,15,.41c12.81-2.48,22.8-10.4,26.45-20.84,1.51-4.31,1.06-8.08-.25-13.53C96,20.32,87.21,15.75,83.25,12.93c-.82-.59-1.6-1.21-2.39-1.83A7.74,7.74,0,0,0,79.52,10.26Z" transform="translate(-1.26 -1.15)"/><path class="cls-3" d="M6,39.73l.14,2.51c0,.13,0,.38,0,.75a1.49,1.49,0,0,1-.41,1,1.26,1.26,0,0,1-1,.43c-.38,0-.67,0-.88,0-.76,0-1.13-.34-1.13-1s.25-2.77.75-6.65.83-6.38,1-7.51.26-2.06.36-2.83S5,25,5,24.68a8.48,8.48,0,0,1,.2-1.1,2.24,2.24,0,0,1,.42-.89,2.41,2.41,0,0,1,2-.66q2.47,1.24,5.08,7,1.86,4.13,2.48,5.22a4.6,4.6,0,0,0,1.2,1.52l6.87-12a2.29,2.29,0,0,1,1.1-.52,1.86,1.86,0,0,1,1.69,1,9.92,9.92,0,0,1,1,2.42,28.63,28.63,0,0,1,.69,3.15c.2,1.14.37,2.34.52,3.59s.29,2.46.43,3.66c.32,2.86.56,4.66.74,5.39a7.87,7.87,0,0,1,.25,1.56,1.51,1.51,0,0,1-.31.9,1,1,0,0,1-.85.43A1.8,1.8,0,0,1,27.4,45a1.75,1.75,0,0,1-.67-1.07c-.08-.42-.16-1-.24-1.66s-.18-1.47-.3-2.32-.23-1.77-.34-2.72-.23-1.86-.34-2.73-.22-1.64-.31-2.32S25,31,25,30.62s0-.88,0-1.27-.12-.63-.28-.72-.41,0-.74.32a11.08,11.08,0,0,0-1.39,1.88q-1.92,3-5.56,10.07a.82.82,0,0,1-1.28.37,4.46,4.46,0,0,1-1.58-2.64L7.81,25.19Q7,26.84,6.3,36.12c-.07.75-.12,1.4-.14,1.92A9.05,9.05,0,0,0,6,39.73Z" transform="translate(-1.26 -1.15)"/><path class="cls-3" d="M45.3,39.76a10.76,10.76,0,0,1-6.87,5,9.61,9.61,0,0,1-1.81.2H35.28a8,8,0,0,1-1.18-.16,4.36,4.36,0,0,1-1.21-.44,2.26,2.26,0,0,1-1.27-2A6.54,6.54,0,0,1,31.48,41a8.31,8.31,0,0,1,.35-2.05,10.71,10.71,0,0,1,1.25-2.75,13.58,13.58,0,0,1,2.22-2.71,12.82,12.82,0,0,1,5.87-3.37,7.74,7.74,0,0,1,1.7-.2,8.53,8.53,0,0,1,1.4.1c1.32,0,2.22.9,2.68,2.71a23.38,23.38,0,0,1,.53,4.8c.06,2.05.11,3.63.17,4.74a16.13,16.13,0,0,0,.43,3h-2c-.09-.62-.16-1.17-.2-1.65s-.1-.93-.14-1.34C45.59,41.31,45.46,40.47,45.3,39.76Zm-.14-5.32a1.75,1.75,0,0,0-2-2l-.48,0a8.31,8.31,0,0,0-5.29,2.4,11.88,11.88,0,0,0-2.23,2.48,6.29,6.29,0,0,0-1.38,3.5c0,1.35.78,2.16,2.34,2.41a8.77,8.77,0,0,0,5.91-2.82,12,12,0,0,0,2-2.61A6.88,6.88,0,0,0,45.16,34.44Z" transform="translate(-1.26 -1.15)"/><path class="cls-3" d="M49.66,44.43a44.45,44.45,0,0,0,3.4-3.84,24.93,24.93,0,0,0,2.1-2.89l-2.89-3.16c-.37-.39-.72-.78-1.06-1.17l-.93-1c-.28-.3-.49-.55-.65-.76l-.24-.27,2-2.13c1,1.26,1.79,2.21,2.28,2.87l1.19,1.56A25.83,25.83,0,0,0,57.05,36l1.72-2.47q2.05-3.06,3.29-4.54a1.62,1.62,0,0,1,1.27.55,1.6,1.6,0,0,1,.49,1,20.89,20.89,0,0,1-2.58,4.06c-.41.5-.79,1-1.13,1.46a6.3,6.3,0,0,0-.83,1.53,28,28,0,0,1,5,5c.43.53.74.93.92,1.21a1.41,1.41,0,0,1-.37.72,3.16,3.16,0,0,1-1,1,4.39,4.39,0,0,1-1.36-1.12q-.7-.81-1.5-1.77c-.52-.64-1.07-1.28-1.63-1.92a8.9,8.9,0,0,0-1.77-1.58c-.52.59-1.26,1.45-2.2,2.57a26.86,26.86,0,0,1-3.43,3.71,2.77,2.77,0,0,1-1.86-.61A1,1,0,0,1,49.66,44.43Z" transform="translate(-1.26 -1.15)"/><path class="cls-3" d="M80.34,35.53l.24-2.37c.16-1.32.35-2.93.55-4.81l.42-3.43c.09-.3.23-.47.42-.52a4.19,4.19,0,0,1,.81-.07,1,1,0,0,1,.76.26,1,1,0,0,1,.26.64,3.45,3.45,0,0,1-.09.86,4.31,4.31,0,0,0-.1.92,22.87,22.87,0,0,0,4.79-.51c1.59-.34,3.18-.72,4.76-1.13s3.16-.8,4.74-1.14a22.64,22.64,0,0,1,4.78-.51,2.13,2.13,0,0,1,.63.08c.2.06.35.25.47.57a1.6,1.6,0,0,1-.49.69,4.25,4.25,0,0,1-1.15.55,19.61,19.61,0,0,1-2.18.56l-3.54.76L91.15,28q-3.11.66-7.34,1.62v4.4c.74-.07,1.57-.19,2.51-.35a26.44,26.44,0,0,1,4-.44q1.36,0,2.28,0a6.76,6.76,0,0,1,2.08.48,4.35,4.35,0,0,1,2.82,3.95,5.69,5.69,0,0,1-1.19,3.66,8.6,8.6,0,0,1-3,2.39,17.36,17.36,0,0,1-7.83,1.68,3.3,3.3,0,0,1-1.38-.2.91.91,0,0,1-.41-.89,1.93,1.93,0,0,1,.55-1.31,1.65,1.65,0,0,1,1.24-.62v.62a21.2,21.2,0,0,0,5.84-.57,6.94,6.94,0,0,0,2.83-1.58,3.34,3.34,0,0,0,1-2.52,3.25,3.25,0,0,0-.62-2.2,3.88,3.88,0,0,0-1.51-1A8.32,8.32,0,0,0,90,34.61a9.66,9.66,0,0,0-2.64.27c-.6.19-1.18.39-1.75.62a11.24,11.24,0,0,1-3.51.86h-.55C80.73,36.36,80.34,36.08,80.34,35.53Z" transform="translate(-1.26 -1.15)"/></svg>