<svg id="Calque_1" data-name="Calque 1" xmlns="http://www.w3.org/2000/svg" viewBox="0 0 99.06 67.13"><defs><style>.cls-1{fill:#0c7aa0;}.cls-2{fill:#29325a;}.cls-3{fill:#fff;}</style></defs><path class="cls-1" d="M52.91,1.55s-6.5-3.11-13-.53c-2.38.94-3.66,3.1-5.49,4.47C22,14.75,16.93,5.09,9.86,26c-.95,2.82-4.95,3.16-6.38,5.45C.69,36-.27,43.4,12.39,52.42c16.78,12,33.42,2.31,39.53-2.14,1.6-1.17,3.22-2.32,4.89-3.39,4.94-3.16,14.86-11,5.54-18.37-7.41-5.85-4.18-12.93-3.14-14.61a9,9,0,0,0,1.25-3.06C61,8,58.09,4,52.91,1.55Z" transform="translate(-1.73 0)"/><path class="cls-2" d="M80,9.11C74,6,66.42,8.55,64.85,14c-1.42,4.89-1.58,11.28,4.5,15.86,11.21,8.43-16,24.27-16,24.27s-9.89,7.3,5,11.88a31.2,31.2,0,0,0,15,.4C86.2,63.93,96.19,56,99.84,45.57c1.51-4.31,1.07-8.07-.25-13.52-3.12-12.89-11.9-17.46-15.87-20.27-.82-.59-1.59-1.22-2.39-1.84A8.47,8.47,0,0,0,80,9.11Z" transform="translate(-1.73 0)"/><path class="cls-3" d="M14.18,38.82l.13,2.49c0,.14,0,.39,0,.75a1.49,1.49,0,0,1-.41,1,1.27,1.27,0,0,1-1,.42q-.57,0-.87,0c-.75,0-1.13-.33-1.13-1s.25-2.75.75-6.61.82-6.36,1-7.47.26-2.06.36-2.82.17-1.33.22-1.69a8.52,8.52,0,0,1,.21-1.1,2.22,2.22,0,0,1,.41-.89,2.43,2.43,0,0,1,2-.65q2.46,1.23,5.06,7,1.85,4.1,2.46,5.19a4.78,4.78,0,0,0,1.19,1.51L31.37,23a2.23,2.23,0,0,1,1.09-.51,1.85,1.85,0,0,1,1.68,1,9.83,9.83,0,0,1,1,2.41c.26.95.49,2,.69,3.13s.36,2.33.51,3.57.29,2.45.43,3.64q.48,4.28.73,5.36a8.1,8.1,0,0,1,.26,1.56,1.55,1.55,0,0,1-.31.89,1,1,0,0,1-.85.43,1.82,1.82,0,0,1-1.1-.43A1.71,1.71,0,0,1,34.81,43c-.08-.42-.16-1-.24-1.66s-.18-1.45-.29-2.31-.23-1.75-.35-2.7-.22-1.85-.34-2.71-.21-1.64-.31-2.31-.16-1.18-.2-1.52,0-.88,0-1.27-.11-.62-.27-.71-.4,0-.73.32A10.58,10.58,0,0,0,30.65,30q-1.91,3-5.53,10a.81.81,0,0,1-1.27.37,4.38,4.38,0,0,1-1.57-2.63L16,24.36q-.83,1.63-1.5,10.87c-.07.75-.12,1.39-.14,1.91A8.12,8.12,0,0,0,14.18,38.82Z" transform="translate(-1.73 0)"/><path class="cls-3" d="M39.74,23.81c0-.8.47-1.19,1.41-1.19a2.51,2.51,0,0,1,1.5.41,2.67,2.67,0,0,1,.1.73,1.12,1.12,0,0,1-.27.7,1,1,0,0,1-.82.34,2.59,2.59,0,0,1-1.1-.25A1.85,1.85,0,0,1,39.74,23.81Zm3.18,4.65q.45,6.39.75,14.8C43.54,44,43,44.32,42,44.32a2.1,2.1,0,0,1-.76-.15.81.81,0,0,1-.5-.43V28.46Z" transform="translate(-1.73 0)"/><path class="cls-3" d="M58.47,37a28.76,28.76,0,0,0-.44-6c.18-.34-.09-.52-.82-.52a10.54,10.54,0,0,0-3,.59,20.11,20.11,0,0,0-3,1.16c-1.84.89-2.87,1.75-3.07,2.6v9.29H45.83q-.45-1.16-.45-6.53c0-3.19.07-5.53.19-7a21.89,21.89,0,0,1,.29-2.56,2.85,2.85,0,0,1,1.44-.58c.57,0,.85.67.85,2A15,15,0,0,1,48.07,31,9.94,9.94,0,0,0,48,32q5.54-4.06,8.58-4.06c2.3,0,3.61,1.85,3.93,5.57a53.46,53.46,0,0,1,.21,5.4l0,2.7c0,1,0,2,.07,2.9a1.16,1.16,0,0,1-.55.21,3.44,3.44,0,0,0-.44-.1,7.41,7.41,0,0,0-.89-.11,13,13,0,0,1-.38-2.78c0-1,0-1.82,0-2.62Z" transform="translate(-1.73 0)"/><path class="cls-3" d="M92.21,27.2c0,1.36-1.09,3-3.28,4.81-.55.44-1,.82-1.4,1.17q4.2.06,5,2a2.42,2.42,0,0,1,.17.92,4.42,4.42,0,0,1-.25,1.28,6.68,6.68,0,0,1-1.08,1.9,14.42,14.42,0,0,1-2,2.12,14.09,14.09,0,0,1-5.13,2.94,5.55,5.55,0,0,1-1.49.27h-.9a1.77,1.77,0,0,1-.72-.23.71.71,0,0,1-.38-.68,16,16,0,0,0,4.52-1.85,13,13,0,0,0,3.07-2.49,4.64,4.64,0,0,0,1.33-2.67,1.51,1.51,0,0,0-.64-1.43,3.37,3.37,0,0,0-1.68-.38q-2.6,0-7.07,2.12l-1.2-1.54q10.35-4.78,10.36-6.87c0-.59-.65-1-2-1.16a18.42,18.42,0,0,0-4.6.68c-1.72.46-3.05.79-4,1a13.71,13.71,0,0,1-2.87.3c0-1.07.26-1.69.78-1.88,1-.22,2-.48,3-.75a36.06,36.06,0,0,1,8.42-1.33C90.44,25.42,91.73,26,92.21,27.2Z" transform="translate(-1.73 0)"/></svg>