<?xml version="1.0" encoding="utf-8"?>
<!-- Generator: Adobe Illustrator 25.1.0, SVG Export Plug-In . SVG Version: 6.00 Build 0)  -->
<svg version="1.1" id="Calque_1" xmlns="http://www.w3.org/2000/svg" xmlns:xlink="http://www.w3.org/1999/xlink" x="0px" y="0px"
	 viewBox="0 0 50 50" style="enable-background:new 0 0 50 50;" xml:space="preserve">
<style type="text/css">
	.st0{fill:#F7EBE7;}
	.st1{fill:#BEE2ED;}
	.st2{fill:#DDDAEC;}
	.st3{fill:none;stroke:#000000;stroke-width:2;stroke-linecap:round;stroke-linejoin:round;stroke-miterlimit:10;}
</style>
<path class="st0" d="M24.6,0.2c-3.1-0.4-6.3,0-9.2,1.3C7,5.5,6.8,14.6,6.8,14.6c-0.4,4.3,3.2,5.8,5.3,6.3c0.8,0.2,1.6,0.2,2.4,0.2
	c12.3-0.7,21.3,6.5,21.3,6.5s-9.4-2.2,0,0c4.9,1.1,8-1.6,9.8-4.5c2.2-3.4,3-7.6,1.9-11.5c-0.7-2.5-2.2-5.2-5.3-6.8
	C37.1,2.1,29,0.7,24.6,0.2z"/>
<path class="st1" d="M33.6,30.3c-1.9-0.5-3.7-1.3-5.4-2.2c-1.9-1-6.7-3.1-14.4-3.1C3.6,25,2.5,34.5,2.5,34.5S0.4,49.8,21.7,49.9
	s23-10.1,23-10.1s2.3-7.5-4.5-8.2C37.5,31.3,35.4,30.8,33.6,30.3z"/>
<g>
	<g>
		<g>
			<g>
				<path class="st2" d="M34.3,25.7"/>
				<path d="M33.1,24.4h1.3c0.6,0,1.1-0.5,1.1-1.1v-1.6H37c0.6,0,1.1-0.5,1.1-1.1v-1.3c0-0.6-0.5-1.1-1.1-1.1h-1.6v-1.6
					c0-0.6-0.5-1.1-1.1-1.1h-1.3c-0.6,0-1.1,0.5-1.1,1.1v1.6h-1.6c-0.6,0-1.1,0.5-1.1,1.1v1.3c0,0.6,0.5,1.1,1.1,1.1H32v1.6
					C32,23.9,32.5,24.4,33.1,24.4L33.1,24.4z M30.4,20.9c-0.2,0-0.3-0.1-0.3-0.3v-1.3c0-0.2,0.1-0.3,0.3-0.3h2
					c0.2,0,0.4-0.2,0.4-0.4v-2c0-0.2,0.1-0.3,0.3-0.3h1.3c0.2,0,0.3,0.1,0.3,0.3v2c0,0.2,0.2,0.4,0.4,0.4h2c0.2,0,0.3,0.1,0.3,0.3
					v1.3c0,0.2-0.1,0.3-0.3,0.3h-2c-0.2,0-0.4,0.2-0.4,0.4v2c0,0.2-0.1,0.3-0.3,0.3h-1.3c-0.2,0-0.3-0.1-0.3-0.3v-2
					c0-0.2-0.2-0.4-0.4-0.4H30.4z M30.4,20.9"/>
			</g>
		</g>
	</g>
	<line class="st3" x1="13.8" y1="24.9" x2="27.4" y2="24.9"/>
	<path class="st3" d="M25.7,19.9c0-4.2,3.2-7.7,7.4-8c-1.4-3.7-5-6.3-9.3-6.3h0c-5.5,0-9.9,4.5-9.9,9.9v18.9c0,5.5,4.5,9.9,9.9,9.9
		h0c5.5,0,9.9-4.5,9.9-9.9v-6.4C29.3,27.9,25.7,24.3,25.7,19.9z"/>
	<circle class="st3" cx="33.7" cy="19.9" r="8.1"/>
</g>
</svg>
