<?xml version="1.0" encoding="utf-8"?>
<!-- Generator: Adobe Illustrator 25.1.0, SVG Export Plug-In . SVG Version: 6.00 Build 0)  -->
<svg version="1.1" id="Calque_1" xmlns="http://www.w3.org/2000/svg" xmlns:xlink="http://www.w3.org/1999/xlink" x="0px" y="0px"
	 viewBox="0 0 50 50" style="enable-background:new 0 0 50 50;" xml:space="preserve">
<style type="text/css">
	.st0{fill:#F7EBE7;}
	.st1{fill:#BEE2ED;}
	.st2{fill:none;stroke:#000000;stroke-width:2;stroke-linecap:round;stroke-linejoin:round;stroke-miterlimit:10;}
</style>
<path class="st0" d="M20.9,28.4c-1.6,2.3-4.4,3.5-7.1,2.9c-1.4-0.3-2.7-1.1-3.4-2.6c-2.1-4.5,0-8.2,0-8.2s3.2-5.8-2.7-8.6
	c-2.5-1.2-3.2-3.2-3.1-5c0.1-3.5,2.8-6.3,6.3-6.8c2.4-0.3,5.4,0.3,8.3,3.7c0,0,4.3,4.5,11.3,4.2s5.2,5.9,5.2,5.9l-2.3,6.2
	c-0.7,2-2.5,3.4-4.6,3.6l0,0C25.7,24,22.7,25.8,20.9,28.4L20.9,28.4z"/>
<path class="st1" d="M20.2,36.2c0.2-1.7,0.6-3.3,1.4-4.8c1.6-3,4.9-6.5,11.5-5.5c5.4,0.8,8.5,4.1,10.3,7.2c2.5,4.3,2.1,9.9-1.4,13.5
	c-2.5,2.6-6.6,4.4-13.3,2.1C17.6,44.9,19.7,40.6,20.2,36.2z"/>
<g>
	<circle class="st2" cx="18.6" cy="40.2" r="2.9"/>
	<circle class="st2" cx="34.6" cy="40.2" r="2.9"/>
	<g>
		<path class="st2" d="M7.6,10.7h2.7c0,0,2.6-0.2,3.4,2.3l0.9,2.7l28,0.3l-2,8.4c0,0-0.9,2.9-3.8,2.9l-17.5,1.9c0,0-1.2,1-0.9,3.1
			s2.5,2.4,2.5,2.4h16.7"/>
		<line class="st2" x1="14.3" y1="15.1" x2="19.1" y2="29.2"/>
	</g>
</g>
</svg>
