<svg id="FAMILLE" xmlns="http://www.w3.org/2000/svg" viewBox="0 0 660.03 425.58"><defs><style>.cls-1{fill:#e0c9c4;}.cls-2{fill:#d8eef5;}.cls-20,.cls-3{fill:#f7b08e;}.cls-4{fill:#a4ced8;}.cls-5{fill:#010101;}.cls-6{fill:#d64420;}.cls-7{fill:#e4582c;}.cls-8{fill:#151f1d;}.cls-9{fill:#f9c7a6;}.cls-10{fill:#192624;}.cls-11,.cls-12,.cls-14,.cls-15,.cls-17,.cls-22,.cls-27,.cls-28,.cls-29{fill:none;}.cls-11,.cls-12{stroke:#192624;}.cls-11,.cls-12,.cls-14,.cls-17,.cls-27,.cls-28{stroke-linecap:round;}.cls-11,.cls-12,.cls-15,.cls-17,.cls-20,.cls-22,.cls-27,.cls-28,.cls-29{stroke-miterlimit:10;}.cls-11,.cls-29{stroke-width:0.5px;}.cls-12,.cls-20{stroke-width:0.25px;}.cls-13{fill:#f2b60d;}.cls-14{stroke:#cde8f3;stroke-linejoin:round;}.cls-14,.cls-17,.cls-22,.cls-27,.cls-28{stroke-width:2px;}.cls-15{stroke:#eead1e;stroke-width:3px;}.cls-16{fill:#2b315b;}.cls-17,.cls-22{stroke:#2b315b;}.cls-18{fill:#efe3df;}.cls-19{fill:#f7eae6;}.cls-20{stroke:#1e1e1c;}.cls-21{fill:#f39874;}.cls-23{fill:#f1c85f;}.cls-24{fill:#82ccdf;}.cls-25{fill:#bfe3ee;}.cls-26{fill:#1d3c77;}.cls-27{stroke:#4e6da4;}.cls-28{stroke:#e4582c;}.cls-29{stroke:#d64420;}</style></defs><g id="BANC"><rect class="cls-1" x="143.03" y="230.11" width="506.52" height="47.88"/><rect class="cls-1" x="132.55" y="289.97" width="525.23" height="15.71"/><rect class="cls-2" x="132.55" y="259.29" width="10.47" height="30.68"/><rect class="cls-2" x="160.34" y="305.68" width="10.47" height="61.49"/><rect class="cls-2" x="391.05" y="305.68" width="10.47" height="61.49"/><rect class="cls-2" x="619.11" y="305.68" width="10.47" height="61.49"/><rect class="cls-2" x="649.55" y="259.29" width="10.47" height="30.68"/><rect class="cls-2" x="603.83" y="278" width="10.47" height="11.97"/><rect class="cls-2" x="391.05" y="278" width="10.47" height="11.97"/></g><polygon class="cls-3" points="348.07 390.13 348.58 402.77 371.57 401.76 372.2 389.92 348.07 390.13"/><polygon class="cls-3" points="404.5 389.49 405.01 402.14 428 401.12 428.64 389.28 404.5 389.49"/><polygon class="cls-4" points="339.77 185.49 335.68 218.21 337.72 390.88 380.42 390.88 388.26 242.58 398.48 390.88 442.02 390.88 429.59 175.87 339.77 185.49"/><path class="cls-5" d="M381.41,174.52" transform="translate(-2.88 -5.77)"/><path class="cls-6" d="M351.46,408.55s-5.09,10.06-5,15.86,31.85,1,31.85,1-.21-14.53-3.9-17.85C362.6,396.89,351.46,408.55,351.46,408.55Z" transform="translate(-2.88 -5.77)"/><path class="cls-7" d="M349.94,429.64c-2.48,0-4.23-2.66-3.44-5.23,1.72-5.57,5.86-13.56,15.43-13.56,12,0,15.06,8.15,16.42,14.53a3.41,3.41,0,0,1-3.09,4.26Z" transform="translate(-2.88 -5.77)"/><path class="cls-6" d="M407.33,407.36s-5.09,10.06-5,15.86,31.85,1,31.85,1-.21-14.53-3.9-17.85C418.47,395.7,407.33,407.36,407.33,407.36Z" transform="translate(-2.88 -5.77)"/><path class="cls-7" d="M405.8,428.45c-2.47,0-4.22-2.66-3.43-5.23,1.72-5.56,5.86-13.56,15.43-13.56,12,0,15.06,8.15,16.42,14.53a3.41,3.41,0,0,1-3.09,4.26Z" transform="translate(-2.88 -5.77)"/><path class="cls-8" d="M382.53,21.78s-5.65-12.69-17.3-3.89c-8.05,6.07-3.93,11.79-9.81,11.79S343.65,35.83,344,42.14s.39,11.23-3.14,15.82-6.67,43.56,25.5,29.48c0,0,18.45-5.17.79-39.92,0,0-1-14.93,3.62-15.8a35.54,35.54,0,0,1,3.13-5.87C376.57,21.92,378.91,21.85,382.53,21.78Z" transform="translate(-2.88 -5.77)"/><g id="COU"><path class="cls-3" d="M374.11,59.61l-1.47,20.71s8.7,7.47,20.93.36l-.15-15.53S378.82,51.41,374.11,59.61Z" transform="translate(-2.88 -5.77)"/></g><path class="cls-9" d="M401.53,47.06s-.56-9.72-2.48-12.48c-7.29-10.46-31.39-12.32-33.44,9.38,0,0-.39-2-.64,1.79,0,0-3.84-3.07-3.83,2.19,0,4.77.68,6.79,4.47,10.16,0,0,6.3,14,21.4,13.29,5.77-.29,10.25-6.13,12.32-11.72h0A41.9,41.9,0,0,0,401.53,47.06Z" transform="translate(-2.88 -5.77)"/><path class="cls-9" d="M400.78,46.67s1.91-2,3.12-.42.89,9.33-3.18,11.08S400.78,46.67,400.78,46.67Z" transform="translate(-2.88 -5.77)"/><circle class="cls-3" cx="369.03" cy="48.16" r="3.56"/><circle class="cls-3" cx="392.46" cy="48.16" r="3.56"/><circle class="cls-10" cx="376.02" cy="42.63" r="0.67"/><circle class="cls-10" cx="387.72" cy="42.26" r="0.67"/><path class="cls-3" d="M383.12,54.33s2.86,1,4.13-1.18C387.25,53.15,386.33,56.87,383.12,54.33Z" transform="translate(-2.88 -5.77)"/><path class="cls-11" d="M379.91,41.55s-3.63-1.89-6.07,1.19" transform="translate(-2.88 -5.77)"/><path class="cls-11" d="M389.94,42s3.63-1.89,6.06,1.19" transform="translate(-2.88 -5.77)"/><path class="cls-7" d="M395.18,78.24" transform="translate(-2.88 -5.77)"/><path class="cls-7" d="M364,29.16l2.53,1.89a26,26,0,0,1,4.72-4.14,28.14,28.14,0,0,1,4.37-2.42A38.4,38.4,0,0,1,382.92,22c-1.19-1.55-2-3.21-3.58-4.65a23.27,23.27,0,0,0-8,2.92C366.75,22.93,365.37,26.65,364,29.16Z" transform="translate(-2.88 -5.77)"/><circle class="cls-7" cx="361.13" cy="49.65" r="3.23"/><path class="cls-12" d="M387,60.9a3.73,3.73,0,0,1-2.91.93,4.42,4.42,0,0,1-2.86-2" transform="translate(-2.88 -5.77)"/><path class="cls-3" d="M369.82,38s.92-4.84,4.79-2.95C377,36.22,391.84,44,397.36,37.7a6.82,6.82,0,0,0,1.08-1.39c.27-.6,1.58.29,1.76,1.19a1.63,1.63,0,0,0,.39-1.74c-.37-1.1-3.44-2-3.44-2S394,38.32,386.59,36.4,370.31,29.37,369.82,38Z" transform="translate(-2.88 -5.77)"/><path class="cls-10" d="M398.91,28.09C393.29,21.66,393,22,381,20.46c-4.94-.65-15,4.16-17,8.7-7.6,16.94-2.29,24-2.29,24s-.61.14-.59-5.21S365,45.75,365,45.75a12.5,12.5,0,0,0,2.42,2.65c1.93,1.22,1.9-6.38,2.53-11.24s5.55-2.52,5.55-2.52c15.73,7.9,21.23,3.34,22.66,1a.75.75,0,0,1,1.09-.21,3.91,3.91,0,0,1,1.1,2.56c.95,5.93-1.87,11.87,0,11.2s.76-4.22,2.17-3.6c0,0,1.9-.33,2,3.07C404.52,48.7,406.5,36.78,398.91,28.09Z" transform="translate(-2.88 -5.77)"/><path class="cls-13" d="M339.08,187.83S326.73,85.66,372,74.44c3-.75,2.19,2.33,10.88,2.33,12.1,0,8-2.75,12-1.4,43,14.53,32.47,112.46,32.47,112.46Z" transform="translate(-2.88 -5.77)"/><line class="cls-14" x1="338.62" y1="384.47" x2="379.77" y2="384.47"/><line class="cls-14" x1="399.29" y1="385.02" x2="440.44" y2="385.02"/><polygon class="cls-7" points="335.62 177.97 337.24 189.51 427.16 189.51 426.53 177.57 335.62 177.97"/><path class="cls-9" d="M443.93,193.93l-2.78,19.51a35.14,35.14,0,0,1-3.8,12.08c-1.89,3.55-4.37,6.87-6.66,5.86a1.27,1.27,0,0,1-1.23-1.35s-3.16,2.8-3.9-.65l1.37-14.45s-3.31,9.44-5,6,1.3-13.81,1.3-13.81l3.32-15.76Z" transform="translate(-2.88 -5.77)"/><path class="cls-13" d="M393.41,75.42s31-1.92,39.63,33c6.55,26.43,18,62.53,16.32,95.07l-33-3S409,83.33,393.41,75.42Z" transform="translate(-2.88 -5.77)"/><path class="cls-15" d="M416,181.75s-2.78-54.31-8.6-79.19" transform="translate(-2.88 -5.77)"/><polygon class="cls-6" points="348.36 397.28 371.83 396.82 371.57 401.76 348.58 402.77 348.36 397.28"/><polygon class="cls-6" points="404.75 395.71 428.3 395.71 428 401.12 404.97 401.12 404.75 395.71"/><path class="cls-16" d="M374,163.93l-41.51-3.2c-5.2-.41-9.77,3.74-10.19,9.26l-3.75,48.49c-.79,10.34,6.46,19.33,16.2,20.08l25,1.6a21.9,21.9,0,0,0,12.81-4.7c10.24-8.21,9-22.84,8.89-23.75l1.27-37.52A9.71,9.71,0,0,0,374,163.93Z" transform="translate(-2.88 -5.77)"/><path class="cls-9" d="M355.92,208.57l12.23,18.14a35.34,35.34,0,0,0,8.81,9.11c3.28,2.33,7,4.19,8.57,2.26a1.26,1.26,0,0,0,.5-1.75s4.08,1.08,3.19-2.33l-7.68-12.31s7.18,7,7.16,3.12S381.36,213,381.36,213l-10-12.61Z" transform="translate(-2.88 -5.77)"/><path class="cls-13" d="M371.62,73.87c-14.34-2.74-30.44,10.4-35.15,20.51-8.61,18.47-9.4,45.41-8.87,62.27a81.28,81.28,0,0,0,8.92,34.78,126,126,0,0,0,15.26,22.94l25.78-13.6-10.76-31.2a46.54,46.54,0,0,1-.66-28.4c2.62-8.91,6.77-19.2,12.77-24.19C371.89,103.94,374.42,74.41,371.62,73.87Z" transform="translate(-2.88 -5.77)"/><path class="cls-17" d="M367.25,73.5s5.38,19.88-.57,92.18" transform="translate(-2.88 -5.77)"/><polygon class="cls-3" points="220.64 399.13 221.02 408.54 238.13 407.78 238.61 398.97 220.64 399.13"/><polygon class="cls-3" points="262.65 398.65 263.03 408.07 280.14 407.31 280.62 398.5 262.65 398.65"/><path class="cls-18" d="M223.9,414.32s-3.79,7.49-3.69,11.8,23.71.73,23.71.73-.15-10.82-2.9-13.29C232.2,405.63,223.9,414.32,223.9,414.32Z" transform="translate(-2.88 -5.77)"/><path class="cls-19" d="M222.77,430a2.93,2.93,0,0,1-2.56-3.9C221.49,422,224.57,416,231.7,416c8.94,0,11.21,6.07,12.22,10.82a2.54,2.54,0,0,1-2.3,3.17Z" transform="translate(-2.88 -5.77)"/><path class="cls-18" d="M265.49,413.43s-3.79,7.49-3.69,11.8,23.71.73,23.71.73-.16-10.82-2.9-13.29C273.79,404.75,265.49,413.43,265.49,413.43Z" transform="translate(-2.88 -5.77)"/><path class="cls-19" d="M264.36,429.13a2.92,2.92,0,0,1-2.56-3.9c1.28-4.14,4.36-10.09,11.48-10.09,8.94,0,11.21,6.07,12.23,10.82a2.55,2.55,0,0,1-2.31,3.17Z" transform="translate(-2.88 -5.77)"/><polygon class="cls-18" points="220.85 404.45 238.33 404.11 238.13 407.78 221.02 408.54 220.85 404.45"/><polygon class="cls-18" points="262.83 403.28 280.36 403.28 280.14 407.31 263 407.31 262.83 403.28"/><polygon class="cls-16" points="218.12 261.47 215.38 283.56 216.75 400.07 245.32 400.07 250.57 300 255.55 400.07 284.68 400.07 281.69 254.61 218.12 261.47"/><path class="cls-10" d="M228.49,190.25a12.43,12.43,0,0,1-12.35-6.57,12.57,12.57,0,0,1,1.56-14s8.76-3.59,8.06-8.85c-.94-7.06-1.59-13.2,1.8-15.93,2-1.61,4.36-6.18,5.17-7.82,4.79-9.66,13.3-10.43,21.72-10.41a18.55,18.55,0,0,1,11,2.88A18.1,18.1,0,0,1,272.59,140a32.46,32.46,0,0,1,2.23,22.12c4.53,3.69,6.84,8.94,5.88,13.75a12.48,12.48,0,0,1-6.75,8.64c-7.48,3.45-13.64-4.14-26.47-2.55a31.05,31.05,0,0,0-6.87,1.67Z" transform="translate(-2.88 -5.77)"/><path class="cls-5" d="M251.12,270.89" transform="translate(-2.88 -5.77)"/><g id="COU-2" data-name="COU"><path class="cls-3" d="M244.36,164.4,243,183.6s8.06,6.92,19.39.33l-.14-14.39S248.72,156.8,244.36,164.4Z" transform="translate(-2.88 -5.77)"/></g><path class="cls-9" d="M269.76,152.77s-.52-9-2.3-11.57c-6.75-9.69-29.08-11.41-31,8.7,0,0-.37-1.85-.6,1.66,0,0-3.55-2.84-3.55,2,0,4.42.63,6.29,4.14,9.42,0,0,5.84,13,19.84,12.31,5.34-.27,9.49-5.68,11.41-10.86h0A39,39,0,0,0,269.76,152.77Z" transform="translate(-2.88 -5.77)"/><path class="cls-9" d="M269.07,152.41s1.76-1.88,2.89-.39.82,8.65-2.95,10.27S269.07,152.41,269.07,152.41Z" transform="translate(-2.88 -5.77)"/><circle class="cls-3" cx="239.43" cy="153.36" r="3.3"/><circle class="cls-3" cx="261.15" cy="153.36" r="3.3"/><circle class="cls-10" cx="245.91" cy="148.24" r="0.62"/><circle class="cls-10" cx="256.76" cy="147.9" r="0.62"/><path class="cls-3" d="M252.73,159s2.32,1.58,4-.06C256.71,159,255,162.05,252.73,159Z" transform="translate(-2.88 -5.77)"/><path class="cls-11" d="M249.73,147.66s-3.37-1.74-5.62,1.11" transform="translate(-2.88 -5.77)"/><path class="cls-11" d="M259,148.05s3.36-1.75,5.62,1.1" transform="translate(-2.88 -5.77)"/><path class="cls-7" d="M263.87,181.66" transform="translate(-2.88 -5.77)"/><path class="cls-7" d="M217.62,273.48s2.63-87.88,22.17-96.52c2.33-1,6.59,3.14,13.71,3.14,9.93,0,6.65-2.47,9.85-1.18C283.9,187.15,290,273.48,290,273.48Z" transform="translate(-2.88 -5.77)"/><path class="cls-20" d="M248.71,164.42s.45,4.18,5.28,4.1,3.67-2.36.6-2.84S248.4,161.47,248.71,164.42Z" transform="translate(-2.88 -5.77)"/><path class="cls-21" d="M249.73,165.91s1.82-.23,2.49.34c0,0,1.28-.2,2.22,1.63C254.44,167.88,251.13,168.21,249.73,165.91Z" transform="translate(-2.88 -5.77)"/><path class="cls-3" d="M210.12,212.31l-2.37,12.46s-2.19,13.93,11.11,47.5l8.39-3.24-2.75-35,4.19-13.56Z" transform="translate(-2.88 -5.77)"/><path class="cls-3" d="M218.86,272.27l2.42,5.57,1.36,7.77s6.41,11.67,8.46,8.92c0,0,1.46,3.08,2.74.12,0,0,2.23.88,1.85-1.27l-3-9.65s3.33,4.4,3.76,2.53c0,0-3-8.76-5.95-10.24l-3.25-7Z" transform="translate(-2.88 -5.77)"/><path class="cls-7" d="M205,215.56l31.45,8.82A192.57,192.57,0,0,1,239,196.56c1.77-10.88,7.65-20.15,1-20.24C224.94,176.13,212.94,196.4,205,215.56Z" transform="translate(-2.88 -5.77)"/><path class="cls-3" d="M293.83,221.67l-1.69,49.54-9.76.28-1.7-36.88c-1.57-14.75-3.19-13.39,3.14-18,.79.89,1-4.21,5.29,0A42.48,42.48,0,0,1,293.83,221.67Z" transform="translate(-2.88 -5.77)"/><path class="cls-3" d="M292.13,270.51l-1.34,4.21s3.81,9.91-1.73,19.07c0,0-1.11,1-1.18-.11,0,0-1.5,2.48-2,1.62l-.52-.87s-1.67,1.89-2.13.47S282,284.65,282,284.65s-1.75,6.3-2.94,4.1,1.11-10,1.11-10l2.1-5,.14-2.53" transform="translate(-2.88 -5.77)"/><path class="cls-7" d="M294.7,209.62c-6.29-28.66-27.22-30.92-31.91-31.06-.28,0,0,.36-.19.53-3.58,2.57,9,7.43,10.81,45.17,8-.1,16-.62,24-1.31C295.73,215.8,296.06,215.82,294.7,209.62Z" transform="translate(-2.88 -5.77)"/><path class="cls-3" d="M239,152.34s2.14,1.15,2.24-3.19.1-3.37.1-3.37l26.65-.09s1.16,1.24.39,6.51,2.16-5.44,2.16-5.44l-2.41-4.25-28.69.74Z" transform="translate(-2.88 -5.77)"/><path class="cls-10" d="M267.33,135.19c-5.2-5.95-5.5-5.61-16.56-7.07-4.57-.6-13.07,6.12-15,10.33-7,15.69-2.93,20-2.93,20s-.57.12-.55-4.83,3.55-2,3.55-2,1.36,1.5,2.51,1.5c3.21,0,2.48-1.75,2.15-8.47l28.1-.18c.84,5.5-1.46,11.49,0,10.37.65-.49.44-3.14,2-3.33,0,0,1.76-.3,1.88,2.84C272.53,154.29,274.37,143.24,267.33,135.19Z" transform="translate(-2.88 -5.77)"/><path class="cls-13" d="M252.52,133.92c18.21.13,19,14.41,19,14.41s5.64-19.06-19.13-19.09c-19.46,0-17.11,18.71-17.11,18.71S238.05,133.81,252.52,133.92Z" transform="translate(-2.88 -5.77)"/><circle class="cls-7" cx="78.78" cy="416.6" r="7.93"/><path class="cls-22" d="M31.47,269.58V201.92H74v67.37" transform="translate(-2.88 -5.77)"/><path class="cls-9" d="M50.47,178.25,46.1,199.69a35.5,35.5,0,0,0-.32,12.67c.64,4,1.91,7.91,4.4,7.7a1.26,1.26,0,0,0,1.6-.87s2.09,3.66,3.9.64l3.4-14.11s.06,10,2.79,7.3,3.24-13.49,3.24-13.49l2-16Z" transform="translate(-2.88 -5.77)"/><path class="cls-13" d="M9.61,260.73H81.7a9.61,9.61,0,0,1,9.61,9.61V415.82a0,0,0,0,1,0,0h-83A8.34,8.34,0,0,1,0,407.47V270.34A9.61,9.61,0,0,1,9.61,260.73Z"/><rect class="cls-23" x="26.05" y="286.2" width="45.66" height="19.66" rx="4.02"/><polygon class="cls-3" points="82.44 391.45 82.97 404.24 107.07 403.21 107.74 391.24 82.44 391.45"/><polygon class="cls-3" points="141.58 390.81 142.12 403.6 166.21 402.57 166.88 390.6 141.58 390.81"/><polygon class="cls-6" points="73.75 184.5 69.46 217.6 71.6 392.21 116.34 392.21 124.57 242.24 135.28 392.21 180.9 392.21 167.87 174.78 73.75 184.5"/><path class="cls-24" d="M85.86,410s-5.34,10.17-5.2,16S114,427,114,427s-.22-14.7-4.08-18.05C97.54,398.22,85.86,410,85.86,410Z" transform="translate(-2.88 -5.77)"/><path class="cls-25" d="M84.26,431.35a4,4,0,0,1-3.6-5.3c1.81-5.62,6.14-13.71,16.17-13.71,12.59,0,15.78,8.25,17.21,14.7a3.48,3.48,0,0,1-3.24,4.31Z" transform="translate(-2.88 -5.77)"/><path class="cls-24" d="M144.41,408.81s-5.34,10.18-5.2,16,33.37,1,33.37,1-.21-14.7-4.08-18.06C156.09,397,144.41,408.81,144.41,408.81Z" transform="translate(-2.88 -5.77)"/><path class="cls-25" d="M142.81,430.15a4,4,0,0,1-3.6-5.3c1.8-5.62,6.14-13.71,16.17-13.71,12.59,0,15.78,8.25,17.2,14.7a3.46,3.46,0,0,1-3.23,4.31Z" transform="translate(-2.88 -5.77)"/><g id="COU-3" data-name="COU"><path class="cls-3" d="M109.7,42.54l-1.55,21.65s9.09,7.8,21.88.37l-.16-16.23S114.62,34,109.7,42.54Z" transform="translate(-2.88 -5.77)"/></g><path class="cls-26" d="M73.45,191.43S60.55,73.9,107.8,61c3.15-.86,2.28,2.69,11.36,2.69,12.65,0,8.38-3.16,12.55-1.61,44.9,16.7,33.92,129.36,33.92,129.36Z" transform="translate(-2.88 -5.77)"/><path class="cls-9" d="M138.35,29.43s-.59-10.15-2.6-13C128.14,5.46,103,3.51,100.81,26.19c0,0-.41-2.08-.67,1.87,0,0-4-3.2-4,2.29,0,5,.71,7.09,4.67,10.62,0,0,6.58,14.67,22.36,13.89,6-.31,10.71-6.41,12.88-12.25h0A43.82,43.82,0,0,0,138.35,29.43Z" transform="translate(-2.88 -5.77)"/><path class="cls-9" d="M137.57,29s2-2.12,3.25-.43.93,9.75-3.32,11.57S137.57,29,137.57,29Z" transform="translate(-2.88 -5.77)"/><circle class="cls-3" cx="104.51" cy="30.83" r="3.72"/><circle class="cls-3" cx="129" cy="30.83" r="3.72"/><circle class="cls-10" cx="110.85" cy="25.06" r="0.7"/><circle class="cls-10" cx="125.28" cy="25.05" r="0.7"/><path class="cls-3" d="M119.11,37s3,1,4.32-1.24C123.43,35.79,122.47,39.68,119.11,37Z" transform="translate(-2.88 -5.77)"/><path class="cls-11" d="M115.75,23.67s-3.79-2-6.33,1.24" transform="translate(-2.88 -5.77)"/><path class="cls-11" d="M126.23,24.1s3.8-2,6.34,1.24" transform="translate(-2.88 -5.77)"/><path class="cls-26" d="M107.8,61s-19.32,11.15-27.87,24-40.43,47-29.37,61.26,29.74,11.48,45.58,0S107.8,61,107.8,61Z" transform="translate(-2.88 -5.77)"/><path class="cls-26" d="M104.73,62s-29,5.76-46.93,44.59c-11.34,24.52-22.28,76.07-16.19,94.33l28.77-2.76S89.32,69.85,104.73,62Z" transform="translate(-2.88 -5.77)"/><path class="cls-22" d="M72.78,167.79s5.38-46.71,12.14-73.93" transform="translate(-2.88 -5.77)"/><polyline class="cls-27" points="42.24 188.69 63.06 187.1 63.56 177"/><path class="cls-9" d="M182.7,187.85l-2.5,20.43A36.74,36.74,0,0,1,176.48,221c-1.9,3.75-4.42,7.26-6.83,6.25a1.32,1.32,0,0,1-1.32-1.37s-3.24,3-4.08-.61l1.12-15.12s-3.25,9.93-5.1,6.37,1.07-14.46,1.07-14.46l3.13-16.53Z" transform="translate(-2.88 -5.77)"/><path class="cls-26" d="M131.71,62S158.3,67,171,98.08c11.11,27.13,22.27,83.85,16.19,104l-28.77-3S147.12,70.65,131.71,62Z" transform="translate(-2.88 -5.77)"/><path class="cls-22" d="M155.89,183.29s-2.91-56.75-9-82.76" transform="translate(-2.88 -5.77)"/><polyline class="cls-27" points="180.78 180.42 159.22 178.56 158.81 168.45"/><path class="cls-28" d="M99.26,200.14s-3.86,21.52-19.33,22.08" transform="translate(-2.88 -5.77)"/><path class="cls-12" d="M122,44.06a3.63,3.63,0,0,1-2.9.93,4.32,4.32,0,0,1-2.86-2.05" transform="translate(-2.88 -5.77)"/><circle class="cls-29" cx="110.31" cy="24.78" r="5.06"/><circle class="cls-29" cx="124.74" cy="25.05" r="5.06"/><path class="cls-29" d="M118.25,30.55s2.16-2.2,4.31-.25" transform="translate(-2.88 -5.77)"/><path class="cls-3" d="M104.36,24.42s2.72-6.15,5.64-5.17,10.58,4.45,19.4,3.2c0,0,3-.28,4-1.26s2.93-1.11,3.41,1.88.48-5.77.48-5.77H106.19Z" transform="translate(-2.88 -5.77)"/><path class="cls-16" d="M139.86,19.27a13.74,13.74,0,0,1,.23-2.13,6.88,6.88,0,0,0-.66-4.33c-2.9-4.3-9.4-5.44-20.34-6.82-14-1.77-19.16,7.88-19.16,7.88-6.5,1.74.69,14,1.08,24.29-.37,10.16,7.42,17.92,21,17.7s15.1-12.18,15.21-17.69h0a32.78,32.78,0,0,1,.66-4.64h0A76.57,76.57,0,0,0,139.86,19.27ZM119.09,48.2c-4.66.19-12.83-5.34-14.83-7.87s-1.36-9-1.34-9.18c1-9.25,4.6-14,8.77-12.14C118.3,22,126.06,22,130,21.57c1.76-.17,5.75-2.72,6.26-.88a28.62,28.62,0,0,1,.83,6.86c-.22,2.89-.69,4.53-.89,6.31a25.39,25.39,0,0,1-1.34,4.93h0c-.27.71-.54,1.48-.82,2.28C132.54,45.53,123.94,48,119.09,48.2Z" transform="translate(-2.88 -5.77)"/><path class="cls-29" d="M132.69,30.3a13.18,13.18,0,0,1,6.24-2.22" transform="translate(-2.88 -5.77)"/><path class="cls-29" d="M100.14,28.06a29.29,29.29,0,0,1,8,2.41" transform="translate(-2.88 -5.77)"/></svg>