<svg id="FAMILLE" xmlns="http://www.w3.org/2000/svg" viewBox="0 0 660.02 425.58"><defs><style>.cls-1{fill:#e0c9c4;}.cls-2{fill:#d8eef5;}.cls-20,.cls-3{fill:#f7b08e;}.cls-4{fill:#a4ced8;}.cls-5{fill:#010101;}.cls-6{fill:#d64420;}.cls-7{fill:#e4582c;}.cls-8{fill:#151f1d;}.cls-9{fill:#f9c7a6;}.cls-10{fill:#192624;}.cls-11,.cls-12,.cls-14,.cls-15,.cls-17,.cls-22,.cls-27,.cls-28,.cls-29{fill:none;}.cls-11,.cls-12{stroke:#192624;}.cls-11,.cls-12,.cls-14,.cls-17,.cls-27,.cls-28{stroke-linecap:round;}.cls-11,.cls-12,.cls-15,.cls-17,.cls-20,.cls-22,.cls-27,.cls-28,.cls-29{stroke-miterlimit:10;}.cls-11,.cls-29{stroke-width:0.5px;}.cls-12,.cls-20{stroke-width:0.25px;}.cls-13{fill:#f2b60d;}.cls-14{stroke:#cde8f3;stroke-linejoin:round;}.cls-14,.cls-17,.cls-22,.cls-27,.cls-28{stroke-width:2px;}.cls-15{stroke:#eead1e;stroke-width:3px;}.cls-16{fill:#2b315b;}.cls-17,.cls-22{stroke:#2b315b;}.cls-18{fill:#efe3df;}.cls-19{fill:#f7eae6;}.cls-20{stroke:#1e1e1c;}.cls-21{fill:#f39874;}.cls-23{fill:#f1c85f;}.cls-24{fill:#82ccdf;}.cls-25{fill:#bfe3ee;}.cls-26{fill:#1d3c77;}.cls-27{stroke:#4e6da4;}.cls-28{stroke:#e4582c;}.cls-29{stroke:#d64420;}</style></defs><g id="BANC"><rect class="cls-1" x="143.03" y="230.11" width="506.52" height="47.88"/><rect class="cls-1" x="132.55" y="289.97" width="525.23" height="15.71"/><rect class="cls-2" x="132.55" y="259.29" width="10.47" height="30.68"/><rect class="cls-2" x="160.34" y="305.68" width="10.47" height="61.49"/><rect class="cls-2" x="391.05" y="305.68" width="10.47" height="61.49"/><rect class="cls-2" x="619.11" y="305.68" width="10.47" height="61.49"/><rect class="cls-2" x="649.55" y="259.29" width="10.47" height="30.68"/><rect class="cls-2" x="603.83" y="278" width="10.47" height="11.97"/><rect class="cls-2" x="391.05" y="278" width="10.47" height="11.97"/></g><polygon class="cls-3" points="348.07 390.13 348.58 402.77 371.57 401.76 372.2 389.92 348.07 390.13"/><polygon class="cls-3" points="404.5 389.49 405.01 402.14 428 401.12 428.64 389.28 404.5 389.49"/><polygon class="cls-4" points="339.77 185.49 335.68 218.21 337.72 390.88 380.42 390.88 388.26 242.58 398.48 390.88 442.02 390.88 429.59 175.87 339.77 185.49"/><path class="cls-5" d="M379,169.92" transform="translate(-0.46 -1.17)"/><path class="cls-6" d="M349,404S344,414,344,419.81s31.85,1,31.85,1-.21-14.53-3.9-17.85C360.18,392.29,349,404,349,404Z" transform="translate(-0.46 -1.17)"/><path class="cls-7" d="M347.52,425c-2.48,0-4.23-2.66-3.44-5.23,1.72-5.57,5.86-13.56,15.43-13.56,12,0,15.06,8.15,16.42,14.53a3.43,3.43,0,0,1-2.45,4.16,3.55,3.55,0,0,1-.64.1Z" transform="translate(-0.46 -1.17)"/><path class="cls-6" d="M404.91,402.76s-5.09,10.06-5,15.86,31.85,1,31.85,1-.21-14.53-3.9-17.85C416.05,391.1,404.91,402.76,404.91,402.76Z" transform="translate(-0.46 -1.17)"/><path class="cls-7" d="M403.38,423.85c-2.47,0-4.22-2.66-3.43-5.23,1.72-5.56,5.86-13.56,15.43-13.56,12,0,15.06,8.15,16.42,14.53a3.43,3.43,0,0,1-2.45,4.16,3.55,3.55,0,0,1-.64.1Z" transform="translate(-0.46 -1.17)"/><path class="cls-8" d="M380.11,17.18s-5.65-12.69-17.3-3.89c-8.05,6.07-3.93,11.79-9.81,11.79s-11.77,6.15-11.42,12.46.39,11.23-3.14,15.82-6.67,43.56,25.5,29.48c0,0,18.45-5.17.79-39.92,0,0-1-14.93,3.62-15.8a34.43,34.43,0,0,1,3.13-5.87C374.15,17.32,376.49,17.25,380.11,17.18Z" transform="translate(-0.46 -1.17)"/><g id="COU"><path class="cls-3" d="M371.69,55l-1.47,20.71s8.7,7.47,20.93.36L391,60.55S376.4,46.81,371.69,55Z" transform="translate(-0.46 -1.17)"/></g><path class="cls-9" d="M399.11,42.46s-.56-9.72-2.48-12.48c-7.29-10.46-31.39-12.32-33.44,9.38,0,0-.39-2-.64,1.79,0,0-3.84-3.07-3.83,2.19,0,4.77.68,6.79,4.47,10.16,0,0,6.3,14,21.4,13.29,5.77-.29,10.25-6.13,12.32-11.72h0A42.3,42.3,0,0,0,399.11,42.46Z" transform="translate(-0.46 -1.17)"/><path class="cls-9" d="M398.36,42.07s1.91-2,3.12-.42.89,9.33-3.18,11.08S398.36,42.07,398.36,42.07Z" transform="translate(-0.46 -1.17)"/><circle class="cls-3" cx="369.03" cy="48.16" r="3.56"/><circle class="cls-3" cx="392.46" cy="48.16" r="3.56"/><circle class="cls-10" cx="376.02" cy="42.63" r="0.67"/><circle class="cls-10" cx="387.72" cy="42.26" r="0.67"/><path class="cls-3" d="M380.7,49.73s2.86,1,4.13-1.18C384.83,48.55,383.91,52.27,380.7,49.73Z" transform="translate(-0.46 -1.17)"/><path class="cls-11" d="M377.49,37s-3.63-1.89-6.07,1.19" transform="translate(-0.46 -1.17)"/><path class="cls-11" d="M387.52,37.4s3.63-1.89,6.06,1.19" transform="translate(-0.46 -1.17)"/><path class="cls-7" d="M392.76,73.64" transform="translate(-0.46 -1.17)"/><path class="cls-7" d="M361.58,24.56l2.53,1.89a25.49,25.49,0,0,1,4.72-4.14,28.6,28.6,0,0,1,4.37-2.42,38.33,38.33,0,0,1,7.3-2.49c-1.19-1.55-2-3.21-3.58-4.65a23.07,23.07,0,0,0-8,2.92C364.33,18.33,363,22.05,361.58,24.56Z" transform="translate(-0.46 -1.17)"/><circle class="cls-7" cx="361.13" cy="49.65" r="3.23"/><path class="cls-12" d="M384.58,56.3a3.75,3.75,0,0,1-2.91.93,4.41,4.41,0,0,1-2.86-2" transform="translate(-0.46 -1.17)"/><path class="cls-3" d="M367.4,33.4s.92-4.84,4.79-2.95c2.39,1.17,17.23,9,22.75,2.65A7,7,0,0,0,396,31.71c.27-.6,1.58.29,1.76,1.19a1.65,1.65,0,0,0,.39-1.74c-.37-1.1-3.44-2-3.44-2s-3.15,4.56-10.56,2.64S367.89,24.77,367.4,33.4Z" transform="translate(-0.46 -1.17)"/><path class="cls-10" d="M396.49,23.49c-5.62-6.43-5.91-6.09-17.91-7.63-4.94-.65-15,4.16-17,8.7-7.6,16.94-2.29,24-2.29,24s-.61.14-.59-5.21,3.88-2.2,3.88-2.2A12.2,12.2,0,0,0,365,43.8c1.93,1.22,1.9-6.38,2.53-11.24S373.08,30,373.08,30c15.73,7.9,21.23,3.34,22.66,1a.75.75,0,0,1,1-.25l.06,0a4,4,0,0,1,1.1,2.56c.95,5.93-1.87,11.87,0,11.2s.76-4.22,2.17-3.6c0,0,1.9-.33,2,3.07C402.1,44.1,404.08,32.18,396.49,23.49Z" transform="translate(-0.46 -1.17)"/><path class="cls-13" d="M336.66,183.23S324.31,81.06,369.58,69.84c3-.75,2.19,2.33,10.88,2.33,12.1,0,8-2.75,12-1.4,43,14.53,32.47,112.46,32.47,112.46Z" transform="translate(-0.46 -1.17)"/><line class="cls-14" x1="338.62" y1="384.47" x2="379.77" y2="384.47"/><line class="cls-14" x1="399.29" y1="385.02" x2="440.44" y2="385.02"/><polygon class="cls-7" points="335.62 177.97 337.24 189.51 427.16 189.51 426.53 177.57 335.62 177.97"/><path class="cls-9" d="M441.51,189.33l-2.78,19.51a35.43,35.43,0,0,1-3.8,12.08c-1.89,3.55-4.37,6.87-6.66,5.86a1.27,1.27,0,0,1-1.24-1.31v0s-3.16,2.8-3.9-.65l1.37-14.45s-3.31,9.44-5,6,1.3-13.81,1.3-13.81l3.32-15.76Z" transform="translate(-0.46 -1.17)"/><path class="cls-13" d="M391,70.82s31-1.92,39.63,33c6.55,26.43,18,62.53,16.32,95.07l-33-3S406.58,78.73,391,70.82Z" transform="translate(-0.46 -1.17)"/><path class="cls-15" d="M413.58,177.15S410.8,122.84,405,98" transform="translate(-0.46 -1.17)"/><polygon class="cls-6" points="348.36 397.28 371.83 396.82 371.57 401.76 348.58 402.77 348.36 397.28"/><polygon class="cls-6" points="404.75 395.71 428.3 395.71 428 401.12 404.97 401.12 404.75 395.71"/><path class="cls-16" d="M371.58,159.33l-41.51-3.2c-5.2-.41-9.77,3.74-10.19,9.26l-3.75,48.49c-.79,10.34,6.46,19.33,16.2,20.08l25,1.6a21.89,21.89,0,0,0,12.81-4.7c10.24-8.21,9-22.84,8.89-23.75l1.27-37.52A9.71,9.71,0,0,0,371.58,159.33Z" transform="translate(-0.46 -1.17)"/><path class="cls-9" d="M353.5,204l12.23,18.14a35.17,35.17,0,0,0,8.81,9.11c3.28,2.33,7,4.19,8.57,2.26a1.26,1.26,0,0,0,.52-1.7s0,0,0-.05,4.08,1.08,3.19-2.33l-7.68-12.31s7.18,7,7.16,3.12-7.34-11.81-7.34-11.81l-10-12.61Z" transform="translate(-0.46 -1.17)"/><path class="cls-13" d="M369.2,69.27c-14.34-2.74-30.44,10.4-35.15,20.51-8.61,18.47-9.4,45.41-8.87,62.27a81.21,81.21,0,0,0,8.92,34.78,126,126,0,0,0,15.26,22.94l25.78-13.6L364.38,165a46.46,46.46,0,0,1-.66-28.4c2.62-8.91,6.77-19.2,12.77-24.19C369.47,99.34,372,69.81,369.2,69.27Z" transform="translate(-0.46 -1.17)"/><path class="cls-17" d="M364.83,68.9s5.38,19.88-.57,92.18" transform="translate(-0.46 -1.17)"/><polygon class="cls-3" points="220.64 399.13 221.02 408.54 238.13 407.78 238.61 398.97 220.64 399.13"/><polygon class="cls-3" points="262.65 398.65 263.03 408.07 280.14 407.31 280.62 398.5 262.65 398.65"/><path class="cls-18" d="M221.48,409.72s-3.79,7.49-3.69,11.8,23.71.73,23.71.73-.15-10.82-2.9-13.29C229.78,401,221.48,409.72,221.48,409.72Z" transform="translate(-0.46 -1.17)"/><path class="cls-19" d="M220.35,425.4a2.92,2.92,0,0,1-2.72-3.12,2.58,2.58,0,0,1,.16-.78c1.28-4.1,4.36-10.1,11.49-10.1,8.94,0,11.21,6.07,12.22,10.82a2.54,2.54,0,0,1-1.83,3.09,1.85,1.85,0,0,1-.47.08Z" transform="translate(-0.46 -1.17)"/><path class="cls-18" d="M263.07,408.83s-3.79,7.49-3.69,11.8,23.71.73,23.71.73-.16-10.82-2.9-13.29C271.37,400.15,263.07,408.83,263.07,408.83Z" transform="translate(-0.46 -1.17)"/><path class="cls-19" d="M261.94,424.53a2.92,2.92,0,0,1-2.73-3.1,2.79,2.79,0,0,1,.17-.8c1.28-4.14,4.36-10.09,11.48-10.09,8.94,0,11.21,6.07,12.23,10.82a2.56,2.56,0,0,1-1.85,3.1,2.44,2.44,0,0,1-.46.07Z" transform="translate(-0.46 -1.17)"/><polygon class="cls-18" points="220.85 404.45 238.33 404.11 238.13 407.78 221.02 408.54 220.85 404.45"/><polygon class="cls-18" points="262.83 403.28 280.36 403.28 280.14 407.31 263 407.31 262.83 403.28"/><polygon class="cls-16" points="218.12 261.47 215.38 283.56 216.75 400.07 245.32 400.07 250.57 300 255.55 400.07 284.68 400.07 281.69 254.61 218.12 261.47"/><path class="cls-10" d="M226.07,185.65a12.42,12.42,0,0,1-12.35-6.57,12.55,12.55,0,0,1,1.56-14s8.76-3.59,8.06-8.85c-.94-7.06-1.59-13.2,1.8-15.93,2-1.61,4.36-6.18,5.17-7.82,4.79-9.66,13.3-10.43,21.72-10.41A18.6,18.6,0,0,1,263,125a18.12,18.12,0,0,1,7.14,10.45,32.5,32.5,0,0,1,2.23,22.12c4.53,3.69,6.84,8.94,5.88,13.75a12.48,12.48,0,0,1-6.75,8.64c-7.48,3.45-13.64-4.14-26.47-2.55a30.5,30.5,0,0,0-6.87,1.67Z" transform="translate(-0.46 -1.17)"/><path class="cls-5" d="M248.7,266.29" transform="translate(-0.46 -1.17)"/><g id="COU-2"><path class="cls-3" d="M241.94,159.8,240.58,179s8.06,6.92,19.39.33l-.14-14.39S246.3,152.2,241.94,159.8Z" transform="translate(-0.46 -1.17)"/></g><path class="cls-9" d="M267.34,148.17s-.52-9-2.3-11.57c-6.75-9.69-29.08-11.41-31,8.7,0,0-.37-1.85-.6,1.66,0,0-3.55-2.84-3.55,2,0,4.42.63,6.29,4.14,9.42,0,0,5.84,13,19.84,12.31,5.34-.27,9.49-5.68,11.41-10.86h0A39.22,39.22,0,0,0,267.34,148.17Z" transform="translate(-0.46 -1.17)"/><path class="cls-9" d="M266.65,147.81s1.76-1.88,2.89-.39.82,8.65-3,10.27S266.65,147.81,266.65,147.81Z" transform="translate(-0.46 -1.17)"/><circle class="cls-3" cx="239.43" cy="153.36" r="3.3"/><circle class="cls-3" cx="261.15" cy="153.36" r="3.3"/><circle class="cls-10" cx="245.91" cy="148.24" r="0.62"/><circle class="cls-10" cx="256.76" cy="147.9" r="0.62"/><path class="cls-3" d="M250.31,154.4s2.32,1.58,4-.06C254.29,154.4,252.58,157.45,250.31,154.4Z" transform="translate(-0.46 -1.17)"/><path class="cls-11" d="M247.31,143.06s-3.37-1.74-5.62,1.11" transform="translate(-0.46 -1.17)"/><path class="cls-11" d="M256.58,143.45s3.36-1.75,5.62,1.1" transform="translate(-0.46 -1.17)"/><path class="cls-7" d="M261.45,177.06" transform="translate(-0.46 -1.17)"/><path class="cls-7" d="M215.2,268.88s2.63-87.88,22.17-96.52c2.33-1,6.59,3.14,13.71,3.14,9.93,0,6.65-2.47,9.85-1.18,20.55,8.23,26.65,94.56,26.65,94.56Z" transform="translate(-0.46 -1.17)"/><path class="cls-20" d="M246.29,159.82s.45,4.18,5.28,4.1,3.67-2.36.6-2.84S246,156.87,246.29,159.82Z" transform="translate(-0.46 -1.17)"/><path class="cls-21" d="M247.31,161.31s1.82-.23,2.49.34c0,0,1.28-.2,2.22,1.63C252,163.28,248.71,163.61,247.31,161.31Z" transform="translate(-0.46 -1.17)"/><path class="cls-3" d="M207.7,207.71l-2.37,12.46s-2.19,13.93,11.11,47.5l8.39-3.24-2.75-35,4.19-13.56Z" transform="translate(-0.46 -1.17)"/><path class="cls-3" d="M216.44,267.67l2.42,5.57,1.36,7.77s6.41,11.67,8.46,8.92c0,0,1.46,3.08,2.74.12,0,0,2.23.88,1.85-1.27l-3-9.65s3.33,4.4,3.76,2.53c0,0-3-8.76-5.95-10.24l-3.25-7Z" transform="translate(-0.46 -1.17)"/><path class="cls-7" d="M202.58,211,234,219.78A190.8,190.8,0,0,1,236.58,192c1.77-10.88,7.65-20.15,1-20.24C222.52,171.53,210.52,191.8,202.58,211Z" transform="translate(-0.46 -1.17)"/><path class="cls-3" d="M291.41,217.07l-1.69,49.54-9.76.28L278.26,230c-1.57-14.75-3.19-13.39,3.14-18,.79.89,1-4.21,5.29,0A44.32,44.32,0,0,1,291.41,217.07Z" transform="translate(-0.46 -1.17)"/><path class="cls-3" d="M289.71,265.91l-1.34,4.21s3.81,9.91-1.73,19.07c0,0-1.11,1-1.18-.11,0,0-1.5,2.48-2,1.62l-.52-.87s-1.67,1.89-2.13.47-1.23-10.25-1.23-10.25-1.75,6.3-2.94,4.1,1.11-10,1.11-10l2.1-5,.14-2.53" transform="translate(-0.46 -1.17)"/><path class="cls-7" d="M292.28,205C286,176.36,265.06,174.1,260.37,174c-.28,0,0,.36-.19.53-3.58,2.57,9,7.43,10.81,45.17,8-.1,16-.62,24-1.31C293.31,211.2,293.64,211.22,292.28,205Z" transform="translate(-0.46 -1.17)"/><path class="cls-3" d="M236.58,147.74s2.14,1.15,2.24-3.19.1-3.37.1-3.37l26.65-.09s1.16,1.24.39,6.51,2.16-5.44,2.16-5.44l-2.41-4.25-28.69.74Z" transform="translate(-0.46 -1.17)"/><path class="cls-10" d="M264.91,130.59c-5.2-6-5.5-5.61-16.56-7.07-4.57-.6-13.07,6.12-15,10.33-7,15.69-2.93,20-2.93,20s-.57.12-.55-4.83,3.55-2,3.55-2,1.36,1.5,2.51,1.5c3.21,0,2.48-1.75,2.15-8.47l28.1-.18c.84,5.5-1.46,11.49,0,10.37.65-.49.44-3.14,2-3.33,0,0,1.76-.3,1.88,2.84C270.11,149.69,272,138.64,264.91,130.59Z" transform="translate(-0.46 -1.17)"/><path class="cls-13" d="M250.1,129.32c18.21.13,19,14.41,19,14.41s5.64-19.06-19.13-19.09c-19.46,0-17.11,18.71-17.11,18.71S235.63,129.21,250.1,129.32Z" transform="translate(-0.46 -1.17)"/><circle class="cls-7" cx="78.78" cy="416.6" r="7.93"/><circle class="cls-7" cx="14.04" cy="416.6" r="7.93"/><path class="cls-22" d="M29.05,265V197.32H71.58v67.37" transform="translate(-0.46 -1.17)"/><path class="cls-9" d="M48.05,173.65l-4.37,21.44a35.27,35.27,0,0,0-.32,12.67c.64,4,1.91,7.91,4.4,7.7a1.25,1.25,0,0,0,1.58-.82s0,0,0,0,2.09,3.66,3.9.64l3.4-14.11s.06,10,2.79,7.3,3.24-13.49,3.24-13.49l2-16Z" transform="translate(-0.46 -1.17)"/><path class="cls-13" d="M10.07,261.9H82.16a9.61,9.61,0,0,1,9.61,9.61V417h-83a8.34,8.34,0,0,1-8.31-8.35V271.51A9.61,9.61,0,0,1,10.07,261.9Z" transform="translate(-0.46 -1.17)"/><rect class="cls-23" x="26.05" y="286.2" width="45.66" height="19.66" rx="4.02"/><polygon class="cls-3" points="82.44 391.45 82.97 404.24 107.07 403.21 107.74 391.24 82.44 391.45"/><polygon class="cls-3" points="141.58 390.81 142.12 403.6 166.21 402.57 166.88 390.6 141.58 390.81"/><polygon class="cls-6" points="73.75 184.5 69.46 217.6 71.6 392.21 116.34 392.21 124.57 242.24 135.28 392.21 180.9 392.21 167.87 174.78 73.75 184.5"/><path class="cls-24" d="M83.44,405.4s-5.34,10.17-5.2,16,33.34,1,33.34,1-.22-14.7-4.08-18C95.12,393.62,83.44,405.4,83.44,405.4Z" transform="translate(-0.46 -1.17)"/><path class="cls-25" d="M81.84,426.75A4,4,0,0,1,78,422.57a3.91,3.91,0,0,1,.22-1.12c1.81-5.62,6.14-13.71,16.17-13.71,12.59,0,15.78,8.25,17.21,14.7a3.48,3.48,0,0,1-2.55,4.21,3.28,3.28,0,0,1-.69.1Z" transform="translate(-0.46 -1.17)"/><path class="cls-24" d="M142,404.21s-5.34,10.18-5.2,16,33.37,1,33.37,1-.21-14.7-4.08-18.06C153.67,392.4,142,404.21,142,404.21Z" transform="translate(-0.46 -1.17)"/><path class="cls-25" d="M140.39,425.55a4,4,0,0,1-3.82-4.18,3.91,3.91,0,0,1,.22-1.12c1.8-5.62,6.14-13.71,16.17-13.71,12.59,0,15.78,8.25,17.2,14.7a3.45,3.45,0,0,1-3.23,4.31Z" transform="translate(-0.46 -1.17)"/><g id="COU-3"><path class="cls-3" d="M107.28,37.94l-1.55,21.65s9.09,7.8,21.88.37l-.16-16.23S112.2,29.4,107.28,37.94Z" transform="translate(-0.46 -1.17)"/></g><path class="cls-26" d="M71,186.83S58.13,69.3,105.38,56.4c3.15-.86,2.28,2.69,11.36,2.69,12.65,0,8.38-3.16,12.55-1.61,44.9,16.7,33.92,129.36,33.92,129.36Z" transform="translate(-0.46 -1.17)"/><path class="cls-9" d="M135.93,24.83s-.59-10.15-2.6-13c-7.61-11-32.75-12.92-34.94,9.76,0,0-.41-2.08-.67,1.87,0,0-4-3.2-4,2.29,0,5,.71,7.09,4.67,10.62,0,0,6.58,14.67,22.36,13.89,6-.31,10.71-6.41,12.88-12.25h0A44.09,44.09,0,0,0,135.93,24.83Z" transform="translate(-0.46 -1.17)"/><path class="cls-9" d="M135.15,24.4s2-2.12,3.25-.43.93,9.75-3.32,11.57S135.15,24.4,135.15,24.4Z" transform="translate(-0.46 -1.17)"/><circle class="cls-3" cx="104.51" cy="30.83" r="3.72"/><circle class="cls-3" cx="129" cy="30.83" r="3.72"/><circle class="cls-10" cx="110.85" cy="25.06" r="0.7"/><circle class="cls-10" cx="125.28" cy="25.05" r="0.7"/><path class="cls-3" d="M116.69,32.4s3,1,4.32-1.24C121,31.19,120.05,35.08,116.69,32.4Z" transform="translate(-0.46 -1.17)"/><path class="cls-11" d="M113.33,19.07s-3.79-2-6.33,1.24" transform="translate(-0.46 -1.17)"/><path class="cls-11" d="M123.81,19.5s3.8-2,6.34,1.24" transform="translate(-0.46 -1.17)"/><path class="cls-26" d="M105.38,56.4s-19.32,11.15-27.87,24-40.43,47-29.37,61.26,29.74,11.48,45.58,0S105.38,56.4,105.38,56.4Z" transform="translate(-0.46 -1.17)"/><path class="cls-26" d="M102.31,57.4s-29,5.76-46.93,44.59C44,126.51,33.1,178.06,39.19,196.32L68,193.56S86.9,65.25,102.31,57.4Z" transform="translate(-0.46 -1.17)"/><path class="cls-22" d="M70.36,163.19s5.38-46.71,12.14-73.93" transform="translate(-0.46 -1.17)"/><polyline class="cls-27" points="42.24 188.69 63.06 187.1 63.56 177"/><path class="cls-9" d="M180.28,183.25l-2.5,20.43a36.79,36.79,0,0,1-3.72,12.72c-1.9,3.75-4.42,7.26-6.83,6.25a1.33,1.33,0,0,1-1.33-1.32s0,0,0-.05-3.24,3-4.08-.61L163,205.55s-3.25,9.93-5.1,6.37,1.07-14.46,1.07-14.46l3.13-16.53Z" transform="translate(-0.46 -1.17)"/><path class="cls-26" d="M129.29,57.4s26.59,5,39.29,36.08c11.11,27.13,22.27,83.85,16.19,104l-28.77-3S144.7,66.05,129.29,57.4Z" transform="translate(-0.46 -1.17)"/><path class="cls-22" d="M153.47,178.69s-2.91-56.75-9-82.76" transform="translate(-0.46 -1.17)"/><polyline class="cls-27" points="180.78 180.42 159.22 178.56 158.81 168.45"/><path class="cls-28" d="M96.84,195.54S93,217.06,77.51,217.62" transform="translate(-0.46 -1.17)"/><path class="cls-12" d="M119.58,39.46a3.65,3.65,0,0,1-2.9.93,4.31,4.31,0,0,1-2.86-2" transform="translate(-0.46 -1.17)"/><circle class="cls-29" cx="110.31" cy="24.78" r="5.06"/><circle class="cls-29" cx="124.74" cy="25.05" r="5.06"/><path class="cls-29" d="M115.83,26s2.16-2.2,4.31-.25" transform="translate(-0.46 -1.17)"/><path class="cls-3" d="M101.94,19.82s2.72-6.15,5.64-5.17,10.58,4.45,19.4,3.2c0,0,3-.28,4-1.26s2.93-1.11,3.41,1.88.48-5.77.48-5.77h-31.1Z" transform="translate(-0.46 -1.17)"/><path class="cls-16" d="M137.44,14.67a12.73,12.73,0,0,1,.23-2.13A7,7,0,0,0,137,8.21c-2.9-4.3-9.4-5.44-20.34-6.82-14-1.77-19.16,7.88-19.16,7.88-6.5,1.74.69,14,1.08,24.29-.37,10.16,7.42,17.92,21,17.7s15.1-12.18,15.21-17.69h0a31.61,31.61,0,0,1,.66-4.64h0A77,77,0,0,0,137.44,14.67ZM116.67,43.6c-4.66.19-12.83-5.34-14.83-7.87s-1.36-9-1.34-9.18c1-9.25,4.6-14,8.77-12.14,6.61,3,14.37,3,18.31,2.56,1.76-.17,5.75-2.72,6.26-.88a28.87,28.87,0,0,1,.83,6.86c-.22,2.89-.69,4.53-.89,6.31a25.5,25.5,0,0,1-1.34,4.93h0c-.27.71-.54,1.48-.82,2.28C130.12,40.93,121.52,43.4,116.67,43.6Z" transform="translate(-0.46 -1.17)"/><path class="cls-29" d="M130.27,25.7a13.16,13.16,0,0,1,6.24-2.22" transform="translate(-0.46 -1.17)"/><path class="cls-29" d="M97.72,23.46a29.56,29.56,0,0,1,8,2.41" transform="translate(-0.46 -1.17)"/></svg>