<svg id="FAMILLE" xmlns="http://www.w3.org/2000/svg" viewBox="0 0 640.07 426.89"><defs><style>.cls-1{fill:#e0c9c4;}.cls-2{fill:#d8eef5;}.cls-3{fill:#a27254;}.cls-4{fill:#8a5639;}.cls-5{fill:#f7eae6;}.cls-6{fill:#192624;}.cls-17,.cls-7,.cls-8,.cls-9{fill:none;stroke-miterlimit:10;}.cls-7{stroke:#f7eae6;}.cls-7,.cls-8,.cls-9{stroke-linecap:round;}.cls-17,.cls-7{stroke-width:2px;}.cls-8{stroke:#192624;stroke-width:0.25px;}.cls-9{stroke:#8a5639;stroke-width:0.5px;}.cls-10{fill:#f2b713;}.cls-11{fill:#eba510;}.cls-12{fill:#010202;}.cls-13{fill:#c0e4ee;}.cls-14{fill:#a5cfd9;}.cls-15{fill:#d64420;}.cls-16{fill:#e5592c;}.cls-17{stroke:#d64420;}</style></defs><g id="BANC"><rect class="cls-1" x="123.08" y="231.81" width="506.52" height="47.88"/><rect class="cls-1" x="112.6" y="291.66" width="525.23" height="15.71"/><rect class="cls-2" x="112.6" y="260.98" width="10.47" height="30.68"/><rect class="cls-2" x="140.39" y="307.37" width="10.47" height="61.49"/><rect class="cls-2" x="371.1" y="307.37" width="10.47" height="61.49"/><rect class="cls-2" x="599.16" y="307.37" width="10.47" height="61.49"/><rect class="cls-2" x="629.6" y="260.98" width="10.47" height="30.68"/><rect class="cls-2" x="583.88" y="279.69" width="10.47" height="11.97"/><rect class="cls-2" x="371.1" y="279.69" width="10.47" height="11.97"/></g><path class="cls-3" d="M131.23,257.88q6.11,71.64,12.13,143.3v9.42h23.9l-1.79-74,1.88-83.33c-5.67,1.19-11.79,2.26-18.33,3.08C142.71,257.16,136.78,257.63,131.23,257.88Z" transform="translate(-22.84 -4.08)"/><path class="cls-4" d="M108.61,407.57l15.72-150.89-35.41-2-3,155.09Z" transform="translate(-22.84 -4.08)"/><path class="cls-5" d="M84.15,170.44q-8.27,50.44-16.56,100.88a260.83,260.83,0,0,0,118.31-2.9l-17.46-98Z" transform="translate(-22.84 -4.08)"/><path class="cls-5" d="M91.68,73.1c-6.42.75-12.58-1.94-15.48-6.73s-2-10.8,2.35-15.08c0,0,11.19-4.09,10.44-9.71-1-7.56-1.67-14.14,2.7-17.17,2.58-1.78,5.69-6.74,6.77-8.53,6.32-10.5,17.12-11.55,27.82-11.78,3.36-.07,8.61-.08,13.81,2.8a18.26,18.26,0,0,1,8.83,11,29.6,29.6,0,0,1,2.25,23.71c5.65,3.84,8.43,9.42,7.09,14.61a14.87,14.87,0,0,1-8.79,9.46c-9.57,3.9-17.17-4.09-33.48-2a46.17,46.17,0,0,0-8.76,2Z" transform="translate(-22.84 -4.08)"/><g id="COU"><path class="cls-4" d="M113.44,52.21,111.7,76.6S122,85.41,136.37,77l-.19-18.29S119,42.54,113.44,52.21Z" transform="translate(-22.84 -4.08)"/></g><path class="cls-3" d="M145.74,37.42s-.66-11.44-2.92-14.71c-8.59-12.31-37-14.5-39.39,11.06,0,0-.47-2.35-.76,2.11,0,0-4.52-3.61-4.52,2.58,0,5.62.81,8,5.27,12,0,0,7.43,16.54,25.22,15.65,6.79-.33,12.06-7.22,14.51-13.8h0A49.47,49.47,0,0,0,145.74,37.42Z" transform="translate(-22.84 -4.08)"/><path class="cls-3" d="M144.86,37s2.24-2.39,3.68-.49,1,11-3.75,13.07S144.86,37,144.86,37Z" transform="translate(-22.84 -4.08)"/><circle class="cls-4" cx="87.15" cy="42.14" r="3.49"/><circle class="cls-4" cx="116.48" cy="42.14" r="3.49"/><circle class="cls-6" cx="96.25" cy="34.92" r="0.78"/><circle class="cls-6" cx="110.04" cy="34.49" r="0.78"/><path class="cls-4" d="M124.09,45.3s3,2,5-.07C129.15,45.3,127,49.21,124.09,45.3Z" transform="translate(-22.84 -4.08)"/><path class="cls-7" d="M120.24,30.93s-4.28-2.22-7.14,1.4" transform="translate(-22.84 -4.08)"/><path class="cls-7" d="M132.08,31.42s4.25-2.2,7.15,1.39" transform="translate(-22.84 -4.08)"/><path class="cls-8" d="M126.38,53.35a4,4,0,0,1-3.12,1,4.8,4.8,0,0,1-3.11-2.23" transform="translate(-22.84 -4.08)"/><path class="cls-9" d="M114.21,42.72a5.32,5.32,0,0,0,4.92,1.42" transform="translate(-22.84 -4.08)"/><path class="cls-9" d="M131.11,43.48a5.76,5.76,0,0,0,2.13.45,5.37,5.37,0,0,0,3-.88" transform="translate(-22.84 -4.08)"/><circle class="cls-10" cx="78.96" cy="44.81" r="2.73"/><circle class="cls-10" cx="123.77" cy="43.93" r="2.73"/><path class="cls-11" d="M84,408.48s-5.42,10.73-5.27,16.91,33.93,1,33.93,1-.22-15.48-4.15-19C95.83,396.06,84,408.48,84,408.48Z" transform="translate(-22.84 -4.08)"/><path class="cls-10" d="M82.34,431c-2.65,0-4.52-2.85-3.66-5.58,1.83-5.93,6.24-14.45,16.43-14.45,12.8,0,16.08,8.69,17.5,15.48a3.65,3.65,0,0,1-2.61,4.44,4.13,4.13,0,0,1-.69.11Z" transform="translate(-22.84 -4.08)"/><path class="cls-11" d="M143.48,407.22s-5.43,10.72-5.28,16.89,33.93,1,33.93,1-.22-15.49-4.15-19C155.36,394.79,143.48,407.22,143.48,407.22Z" transform="translate(-22.84 -4.08)"/><path class="cls-10" d="M141.86,429.7c-2.64,0-4.51-2.84-3.66-5.59,1.83-5.92,6.25-14.44,16.44-14.44,12.8,0,16.08,8.69,17.49,15.49a3.63,3.63,0,0,1-2.61,4.43,3.11,3.11,0,0,1-.68.11Z" transform="translate(-22.84 -4.08)"/><path class="cls-12" d="M122.91,204.24" transform="translate(-22.84 -4.08)"/><path class="cls-13" d="M75,177.91S78.74,79.48,106.7,69.75c3.33-1.16,9.42,3.5,19.63,3.5,14.21,0,9.51-2.75,14.07-1.31,29.43,9.22,38.14,106,38.14,106Z" transform="translate(-22.84 -4.08)"/><circle class="cls-14" cx="102.32" cy="159.05" r="3.23"/><circle class="cls-14" cx="102.32" cy="99.74" r="3.23"/><circle class="cls-14" cx="102.51" cy="119.36" r="3.23"/><circle class="cls-14" cx="102.51" cy="138.96" r="3.23"/><path class="cls-3" d="M184.05,132.12q-1.49,38.26-3,76.53l-14.71.41-2.63-56.95c-2.43-22.78-4.93-20.68,4.85-27.84.78.87,1.21-2,3.12-2.52,1.3-.36,2.92.65,5,2.52A55.17,55.17,0,0,1,184.05,132.12Z" transform="translate(-22.84 -4.08)"/><path class="cls-3" d="M181.08,208.65l-1.73,5.41s5.88,15.31-2.67,29.45c0,0-1.7,1.5-1.82-.17,0,0-2.32,3.83-3.13,2.5l-.8-1.34s-2.57,2.92-3.29.72-1.91-15.83-1.91-15.83-2.7,9.74-4.54,6.34,1.72-15.4,1.72-15.4l3.24-7.79q.12-1.95.21-3.9" transform="translate(-22.84 -4.08)"/><path class="cls-14" d="M185.29,116.54c-9-41-39-44.22-45.67-44.45-.41,0,.06.52-.27.76-5.13,3.68,12.82,10.63,15.48,64.65,11.43-.14,22.86-.9,34.29-1.87C186.77,125.39,187.24,125.43,185.29,116.54Z" transform="translate(-22.84 -4.08)"/><rect class="cls-15" y="237.68" width="128.81" height="70.38" rx="16.68"/><rect class="cls-16" x="5.02" y="237.68" width="128.81" height="70.38" rx="16.68"/><path class="cls-17" d="M73.21,311.43l0-66.92A12.84,12.84,0,0,1,85.25,231l.59,0,12.75-.13a13,13,0,0,1,8.71,3.27,13.47,13.47,0,0,1,4.12,10.58v66.79" transform="translate(-22.84 -4.08)"/><rect class="cls-10" x="59.61" y="223.35" width="19.64" height="6.95" rx="3.3"/><line class="cls-17" x1="5.02" y1="290.47" x2="133.82" y2="290.47"/><path class="cls-3" d="M94.17,214.34l-6.4-12.14-4.2-56.89,8.68-16.74L68,113.15l-9.43,13.61A14.24,14.24,0,0,0,56,134.91c0,9.27,2.18,32.29,18.09,72.9h0l3.82,8.91,1.56,9.12c.87,2.16,1.86,4.44,3,6.8,1,2,2,4,3,5.75,1.45,1.2,2.42,1.28,3,1.15.86-.2,1.07-.86,2.21-1.09.94-.2,1,.19,2.16.11,1.42-.1,1.49-.75,3.11-1.07,1.41-.28,1.76.11,2.58-.3a3.56,3.56,0,0,0,1.55-2.13c.83-2.35-1-5.32-2.23-7,1.65,2,4.57,5,5,2.78C103,230.76,98.75,218,94.17,214.34ZM98,228c-.54-.63-1-1.16-1.07-1.34A17,17,0,0,1,98,228Z" transform="translate(-22.84 -4.08)"/><path class="cls-14" d="M54.34,118.42l37.32,16.39a4.65,4.65,0,0,0,6.15-2.37,4.24,4.24,0,0,0,.32-1,294,294,0,0,1,8.24-33.09c4.69-15.08,14.88-27,5.52-28.47C90.53,66.54,69.45,92.85,54.34,118.42Z" transform="translate(-22.84 -4.08)"/><path class="cls-4" d="M107.82,35.42s2.12,1,2.12-9.54h33.42s1.11,6.82.54,10.56,5.23-9.31,3.92-12.32S106.53,23,106.53,23Z" transform="translate(-22.84 -4.08)"/><path class="cls-5" d="M142.66,15.07c-6.63-7.56-7-7.13-21.11-9-5.77-.77-16.56,7.77-19,13.08-9,19.95-3.73,25.38-3.73,25.38s-.73.16-.71-6.13,4.52-2.58,4.52-2.58,1.73,1.9,3.19,1.9c4.08,0,3-4.72,2.53-13.26h35.86c1.06,7-1.79,16.89.07,15.46.82-.63.56-4,2.55-4.24,0,0,2.24-.39,2.39,3.61C149.26,39.36,151.59,25.3,142.66,15.07Z" transform="translate(-22.84 -4.08)"/></svg>