<svg width="35" height="35" viewBox="0 0 35 35" fill="none" xmlns="http://www.w3.org/2000/svg">
<path d="M20.8496 17.5C20.8496 19.3498 19.3498 20.8496 17.5 20.8496C15.6502 20.8496 14.1504 19.3498 14.1504 17.5C14.1504 15.6502 15.6502 14.1504 17.5 14.1504C19.3498 14.1504 20.8496 15.6502 20.8496 17.5Z" fill="#04D99D"/>
<path d="M25.3333 11.5731C25.1719 11.137 24.9156 10.7419 24.5813 10.4179C24.2573 10.0843 23.8622 9.82725 23.426 9.66592C23.0719 9.52852 22.5401 9.36445 21.5605 9.32002C20.5009 9.27148 20.1831 9.26123 17.5 9.26123C14.8168 9.26123 14.499 9.27148 13.4394 9.32002C12.4598 9.36514 11.9273 9.52852 11.5739 9.66592C11.1371 9.82725 10.7426 10.0836 10.4186 10.4179C10.085 10.7419 9.82798 11.137 9.66665 11.5731C9.52925 11.9272 9.36519 12.4591 9.32075 13.4394C9.27222 14.4989 9.26196 14.8168 9.26196 17.4999C9.26196 20.183 9.27222 20.5009 9.32075 21.5604C9.36519 22.54 9.52925 23.0719 9.66665 23.426C9.82798 23.8628 10.0843 24.2572 10.4186 24.5812C10.7426 24.9148 11.1377 25.1719 11.5739 25.3332C11.928 25.4713 12.4598 25.6347 13.4401 25.6791C14.4997 25.7276 14.8168 25.7379 17.5006 25.7379C20.1844 25.7379 20.5023 25.7276 21.5612 25.6791C22.5408 25.6347 23.0733 25.4706 23.4274 25.3332C24.3038 24.9948 24.9962 24.3023 25.3346 23.426C25.472 23.0719 25.6361 22.54 25.6805 21.5604C25.7291 20.5009 25.7393 20.183 25.7393 17.4999C25.7393 14.8168 25.7291 14.4989 25.6805 13.4394C25.6347 12.4598 25.4713 11.9272 25.3333 11.5731ZM17.5 22.6597C14.65 22.6597 12.3395 20.3498 12.3395 17.4999C12.3395 14.65 14.65 12.3401 17.5 12.3401C20.3499 12.3401 22.6597 14.65 22.6597 17.4999C22.6597 20.3498 20.3499 22.6597 17.5 22.6597ZM22.8641 13.3416C22.1983 13.3416 21.6583 12.8016 21.6583 12.1357C21.6583 11.4699 22.1983 10.9299 22.8641 10.9299C23.5299 10.9299 24.07 11.4699 24.07 12.1357C24.07 12.8016 23.5299 13.3416 22.8641 13.3416Z" fill="#04D99D"/>
<path d="M17.5 0C7.83672 0 0 7.83672 0 17.5C0 27.1633 7.83672 35 17.5 35C27.1633 35 35 27.1633 35 17.5C35 7.83672 27.1633 0 17.5 0ZM27.488 21.6433C27.4395 22.7131 27.2692 23.4432 27.0211 24.0823C26.4988 25.4324 25.4317 26.4995 24.0823 27.0211C23.4432 27.2692 22.7124 27.4395 21.6433 27.488C20.5714 27.5372 20.2296 27.5488 17.5 27.5488C14.7704 27.5488 14.4286 27.5372 13.3567 27.488C12.2876 27.4395 11.5568 27.2692 10.9177 27.0211C10.2471 26.7688 9.63936 26.373 9.1376 25.8617C8.62627 25.36 8.23115 24.7522 7.97891 24.0816C7.73076 23.4425 7.56055 22.7117 7.51201 21.6426C7.46279 20.5714 7.45117 20.2289 7.45117 17.5C7.45117 14.7711 7.46279 14.4286 7.51201 13.3567C7.56055 12.2869 7.73076 11.5568 7.97891 10.9177C8.23115 10.2471 8.62695 9.63936 9.13828 9.1376C9.64004 8.62627 10.2478 8.23047 10.9184 7.97822C11.5575 7.73008 12.2883 7.55986 13.3574 7.51133C14.4293 7.46279 14.7711 7.45049 17.5007 7.45049C20.2303 7.45049 20.5721 7.46211 21.6439 7.51133C22.7138 7.55986 23.4438 7.73008 24.083 7.97754C24.7536 8.22978 25.3613 8.62559 25.8631 9.13691C26.3744 9.63867 26.7702 10.2464 27.0218 10.917C27.2706 11.5562 27.4401 12.2869 27.4894 13.3561C27.5379 14.4279 27.5495 14.7697 27.5495 17.4993C27.5495 20.2289 27.5372 20.5714 27.488 21.6433Z" fill="#04D99D"/>
</svg>
