<svg width="35" height="35" viewBox="0 0 35 35" fill="none" xmlns="http://www.w3.org/2000/svg">
<path d="M20.8496 17.5C20.8496 15.6502 19.3498 14.1504 17.5 14.1504C15.6502 14.1504 14.1504 15.6502 14.1504 17.5C14.1504 19.3498 15.6502 20.8496 17.5 20.8496C19.3498 20.8496 20.8496 19.3498 20.8496 17.5Z" fill="#04D99D"/>
<path d="M25.3333 23.4269C25.1719 23.863 24.9156 24.2581 24.5813 24.5821C24.2573 24.9157 23.8622 25.1728 23.426 25.3341C23.0719 25.4715 22.5401 25.6355 21.5605 25.68C20.5009 25.7285 20.1831 25.7388 17.5 25.7388C14.8168 25.7388 14.499 25.7285 13.4394 25.68C12.4598 25.6349 11.9273 25.4715 11.5739 25.3341C11.1371 25.1728 10.7426 24.9164 10.4186 24.5821C10.085 24.2581 9.82798 23.863 9.66665 23.4269C9.52925 23.0728 9.36519 22.5409 9.32075 21.5606C9.27222 20.5011 9.26196 20.1832 9.26196 17.5001C9.26196 14.817 9.27222 14.4991 9.32075 13.4396C9.36519 12.46 9.52925 11.9281 9.66665 11.574C9.82798 11.1372 10.0843 10.7428 10.4186 10.4188C10.7426 10.0852 11.1377 9.82813 11.5739 9.6668C11.928 9.52871 12.4598 9.36533 13.4401 9.3209C14.4997 9.27237 14.8168 9.26211 17.5006 9.26211C20.1844 9.26211 20.5023 9.27237 21.5612 9.3209C22.5408 9.36533 23.0733 9.5294 23.4274 9.6668C24.3038 10.0052 24.9962 10.6977 25.3346 11.574C25.472 11.9281 25.6361 12.46 25.6805 13.4396C25.7291 14.4991 25.7393 14.817 25.7393 17.5001C25.7393 20.1832 25.7291 20.5011 25.6805 21.5606C25.6347 22.5402 25.4713 23.0728 25.3333 23.4269ZM17.5 12.3403C14.65 12.3403 12.3395 14.6502 12.3395 17.5001C12.3395 20.35 14.65 22.6599 17.5 22.6599C20.3499 22.6599 22.6597 20.35 22.6597 17.5001C22.6597 14.6502 20.3499 12.3403 17.5 12.3403ZM22.8641 21.6584C22.1983 21.6584 21.6583 22.1984 21.6583 22.8643C21.6583 23.5301 22.1983 24.0701 22.8641 24.0701C23.5299 24.0701 24.07 23.5301 24.07 22.8643C24.07 22.1984 23.5299 21.6584 22.8641 21.6584Z" fill="#04D99D"/>
<path d="M17.5 35C7.83672 35 0 27.1633 0 17.5C0 7.83672 7.83672 0 17.5 0C27.1633 0 35 7.83672 35 17.5C35 27.1633 27.1633 35 17.5 35ZM27.488 13.3567C27.4395 12.2869 27.2692 11.5568 27.0211 10.9177C26.4988 9.56758 25.4317 8.50049 24.0823 7.97891C23.4432 7.73076 22.7124 7.56055 21.6433 7.51201C20.5714 7.46279 20.2296 7.45117 17.5 7.45117C14.7704 7.45117 14.4286 7.46279 13.3567 7.51201C12.2876 7.56055 11.5568 7.73076 10.9177 7.97891C10.2471 8.23115 9.63936 8.62695 9.1376 9.13828C8.62627 9.64004 8.23115 10.2478 7.97891 10.9184C7.73076 11.5575 7.56055 12.2883 7.51201 13.3574C7.46279 14.4286 7.45117 14.7711 7.45117 17.5C7.45117 20.2289 7.46279 20.5714 7.51201 21.6433C7.56055 22.7131 7.73076 23.4432 7.97891 24.0823C8.23115 24.7529 8.62695 25.3606 9.13828 25.8624C9.64004 26.3737 10.2478 26.7695 10.9184 27.0218C11.5575 27.2699 12.2883 27.4401 13.3574 27.4887C14.4293 27.5372 14.7711 27.5495 17.5007 27.5495C20.2303 27.5495 20.5721 27.5379 21.6439 27.4887C22.7138 27.4401 23.4438 27.2699 24.083 27.0225C24.7536 26.7702 25.3613 26.3744 25.8631 25.8631C26.3744 25.3613 26.7702 24.7536 27.0218 24.083C27.2706 23.4438 27.4401 22.7131 27.4894 21.6439C27.5379 20.5721 27.5495 20.2303 27.5495 17.5007C27.5495 14.7711 27.5372 14.4286 27.488 13.3567Z" fill="#04D99D"/>
</svg>
