<svg width="35" height="35" viewBox="0 0 35 35" fill="none" xmlns="http://www.w3.org/2000/svg">
<path d="M17.5 0C7.83672 0 0 7.83672 0 17.5C0 27.1633 7.83672 35 17.5 35C27.1633 35 35 27.1633 35 17.5C35 7.83672 27.1633 0 17.5 0ZM12.4147 26.4551H8.15254V13.6329H12.4147V26.4551ZM10.284 11.8815H10.256C8.82588 11.8815 7.90098 10.8972 7.90098 9.6667C7.90098 8.4082 8.85459 7.45117 10.312 7.45117C11.7694 7.45117 12.667 8.4082 12.695 9.6667C12.695 10.8972 11.7701 11.8815 10.284 11.8815ZM27.7826 26.4551H23.5211V19.5952C23.5211 17.8712 22.9038 16.6954 21.3616 16.6954C20.1845 16.6954 19.4831 17.4884 19.1748 18.254C19.062 18.5281 19.0347 18.9109 19.0347 19.2937V26.4551H14.7731C14.7731 26.4551 14.8292 14.8354 14.7731 13.6329H19.0347V15.4485C19.6014 14.5749 20.6145 13.3321 22.8758 13.3321C25.6799 13.3321 27.7826 15.1648 27.7826 19.103V26.4551Z" fill="#04D99D"/>
</svg>
