<svg width="390" height="390" viewBox="0 0 390 390" fill="none" xmlns="http://www.w3.org/2000/svg">
<path d="M389.8 195C389.8 245.8 370.3 292.1 338.3 326.8C327.8 338.2 315.9 348.4 302.9 357C292.3 364.1 281 370.1 269.1 375C248.8 383.3 226.8 388.3 203.7 389.3C200.9 389.4 198.1 389.5 195.3 389.5C194 389.5 192.6 389.5 191.3 389.5C170.9 389.1 151.2 385.5 132.8 379.3C117.3 374 102.6 366.9 89.2 358.1C73.7 348 59.8 335.8 47.8 321.8C18.5 287.8 0.799988 243.4 0.799988 195C0.799988 87.6 87.9 0.5 195.3 0.5C302.7 0.5 389.8 87.6 389.8 195Z" fill="#E4582C"/>
<path d="M111.1 254.8C94.5999 256.7 78.8 249.8 71.4 237.5C63.9 225.2 66.3 209.8 77.4 198.9C77.4 198.9 106.1 188.4 104.2 174C101.6 154.6 99.8999 137.7 111.1 130C117.7 125.4 125.7 112.7 128.4 108.1C144.6 81.2 172.3 78.4 199.7 77.9C208.3 77.7 221.8 77.7 235.1 85.1C253.9 95.5 257.7 113.3 257.7 113.3C260.8 119 264.2 126.7 266 136.2C269 152.3 266.1 165.9 263.5 174.1C278 184 285.1 198.3 281.7 211.6C279.2 221.3 270.8 231.1 259.2 235.9C234.6 245.9 215.1 225.4 173.3 230.7C163.6 231.9 155.8 234.1 150.8 235.8C137.6 242.1 124.4 248.4 111.1 254.8Z" fill="#F7EAE6"/>
<path d="M166.9 201.2L162.4 263.8C162.4 263.8 188.7 286.4 225.7 264.9L225.2 218C225.2 217.9 181.1 176.4 166.9 201.2Z" fill="#895538"/>
<path d="M249.8 163.3C249.8 163.3 248.1 133.9 242.3 125.6C220.3 94 147.5 88.4 141.3 154C141.3 154 140.1 148 139.4 159.4C139.4 159.4 127.8 150.1 127.8 166C127.8 180.4 129.8 186.5 141.3 196.7C141.3 196.7 160.4 239.1 206 236.9C223.4 236 237 218.4 243.2 201.5C249.8 182.7 249.8 163.3 249.8 163.3Z" fill="#A17153"/>
<path d="M247.5 162.1C247.5 162.1 253.3 156 256.9 160.8C260.6 165.7 259.6 189 247.3 194.3C235 199.6 247.5 162.1 247.5 162.1Z" fill="#A17153"/>
<path d="M158 194.8C162.971 194.8 167 190.771 167 185.8C167 180.829 162.971 176.8 158 176.8C153.029 176.8 149 180.829 149 185.8C149 190.771 153.029 194.8 158 194.8Z" fill="#895538"/>
<path d="M233.3 194.8C238.271 194.8 242.3 190.771 242.3 185.8C242.3 180.829 238.271 176.8 233.3 176.8C228.329 176.8 224.3 180.829 224.3 185.8C224.3 190.771 228.329 194.8 233.3 194.8Z" fill="#895538"/>
<path d="M181.4 169.3C182.505 169.3 183.4 168.405 183.4 167.3C183.4 166.195 182.505 165.3 181.4 165.3C180.295 165.3 179.4 166.195 179.4 167.3C179.4 168.405 180.295 169.3 181.4 169.3Z" fill="#192624"/>
<path d="M216.7 168.2C217.805 168.2 218.7 167.305 218.7 166.2C218.7 165.095 217.805 164.2 216.7 164.2C215.595 164.2 214.7 165.095 214.7 166.2C214.7 167.305 215.595 168.2 216.7 168.2Z" fill="#192624"/>
<path d="M194.2 183.6C194.2 183.6 201.8 188.8 207.2 183.4C207.2 183.4 201.6 193.5 194.2 183.6Z" fill="#895538"/>
<path d="M184.4 146.6C184.4 146.6 173.4 140.9 166.1 150.2" stroke="#F7EAE6" stroke-width="2" stroke-miterlimit="10" stroke-linecap="round"/>
<path d="M214.7 147.9C214.7 147.9 225.7 142.2 233 151.5" stroke="#F7EAE6" stroke-width="2" stroke-miterlimit="10" stroke-linecap="round"/>
<path d="M241.8 106C224.8 86.6 223.9 87.7 187.8 82.9C172.9 80.9 145.2 102.8 139 116.6C116.1 167.8 129.4 181.7 129.4 181.7C129.4 181.7 127.6 182.1 127.6 165.9C127.7 149.7 139.2 159.3 139.2 159.3C139.2 159.3 143.6 164.2 147.4 164.2C157.9 164.2 155 152.1 153.9 130.2H245.9C248.6 148.1 241.3 173.5 246.1 169.9C248.2 168.3 247.5 159.6 252.6 159C252.6 159 258.3 158 258.7 168.3C258.8 168.2 264.8 132.2 241.8 106Z" fill="#F7EAE6"/>
<path d="M200.1 204.1C199.3 204.8 196.2 207.3 192 206.7C187.3 206 184.6 201.9 184 201" stroke="#192624" stroke-width="0.25" stroke-miterlimit="10" stroke-linecap="round"/>
<path d="M168.9 176.9C169.8 177.8 171.3 179.1 173.6 179.9C177.1 181.2 180.2 180.8 181.5 180.5" stroke="#895538" stroke-width="0.5" stroke-miterlimit="10" stroke-linecap="round"/>
<path d="M212.2 178.8C213.3 179.3 215.2 180 217.7 180C221.4 180 224.2 178.5 225.3 177.8" stroke="#895538" stroke-width="0.5" stroke-miterlimit="10" stroke-linecap="round"/>
<path d="M137 199.7C140.866 199.7 144 196.566 144 192.7C144 188.834 140.866 185.7 137 185.7C133.134 185.7 130 188.834 130 192.7C130 196.566 133.134 199.7 137 199.7Z" fill="#F2B60D"/>
<path d="M252 197.4C255.866 197.4 259 194.266 259 190.4C259 186.534 255.866 183.4 252 183.4C248.134 183.4 245 186.534 245 190.4C245 194.266 248.134 197.4 252 197.4Z" fill="#F2B60D"/>
<path d="M302.9 357C292.3 364.1 281 370.1 269.1 375C248.8 383.3 226.8 388.3 203.7 389.3C200.9 389.4 198.1 389.5 195.3 389.5C194 389.5 192.6 389.5 191.3 389.5C170.9 389.1 151.2 385.5 132.8 379.3C117.3 374 102.6 366.9 89.2 358.1C101.4 304.6 120.3 256.4 149.6 246.3C150.3 246.1 151 245.9 151.7 245.9C151.9 245.9 152.2 245.9 152.5 245.9C152.6 245.9 152.7 245.9 152.9 245.9C155.8 245.9 159.4 246.9 163.6 248.3C165.9 249 168.4 249.9 171.1 250.7C178.9 253.1 188.4 255.4 200 255.4C215.3 255.4 222.1 254.2 225.6 253C230.5 251.4 229.3 249.9 236.1 252C236.7 252.2 237.3 252.4 237.8 252.6C267 263 288.1 307.3 302.9 357Z" fill="#BFE3EE"/>
<path d="M338.3 326.8C327.8 338.2 315.9 348.4 302.9 357C292.3 364.1 281 370.1 269.1 375C256.1 277.2 221.8 262.4 233.4 254.1C234.3 253.5 233.1 252.1 234.1 252.2C235.1 252.2 236.4 252.3 237.9 252.4C257 253.9 309.6 263.7 338.3 326.8Z" fill="#BFE3EE"/>
<path d="M169.9 268.5C165 281.6 155 299.5 148.8 319.5C141.8 342.1 136.6 362.7 132.8 379.3C117.3 374 102.6 366.9 89.2 358.1C73.7 348 59.8 335.8 47.8 321.8C78.7 280.2 114.8 246.9 151.8 245.8C152 245.8 152.3 245.8 152.6 245.8C152.7 245.8 152.8 245.8 153 245.8C156.4 245.8 159.7 246 163.1 246.5C163.4 246.5 163.6 246.6 163.9 246.6C167.5 247.3 169.9 248.6 171.3 250.5C173.9 254.3 172.8 260.5 169.9 268.5Z" fill="#BFE3EE"/>
</svg>
