<svg width="190" height="48" viewBox="0 0 190 48" fill="none" xmlns="http://www.w3.org/2000/svg">
<path d="M175.5 47.2999H14.5C6.8 47.2999 0.5 40.9999 0.5 33.2999V14.2C0.5 6.49995 6.8 0.199951 14.5 0.199951H175.5C183.2 0.199951 189.5 6.49995 189.5 14.2V33.2999C189.5 41.0999 183.2 47.2999 175.5 47.2999Z" fill="#BFE3EE"/>
<path d="M42.2351 28.9297C41.032 28.7578 40.4304 28.4785 40.4304 28.0918C40.4304 27.8125 40.6345 27.4902 41.0427 27.125C41.4509 26.7598 41.8591 26.3838 42.2673 25.9971C42.2673 24.708 42.074 23.2686 41.6873 21.6787C41.3005 20.0674 41.0212 18.8213 40.8494 17.9404C40.6775 17.0596 40.5916 16.2539 40.5916 15.5234C40.5916 14.793 40.699 14.3311 40.9138 14.1377C41.1501 13.9443 41.4832 13.8477 41.9128 13.8477C42.3425 13.8477 42.6218 13.9121 42.7507 14.041C42.8796 14.1484 42.9656 14.2881 43.0085 14.46C43.0515 14.6318 43.073 14.8145 43.073 15.0078C43.0945 15.2012 43.1375 15.3838 43.2019 15.5557C43.3093 15.9639 43.6423 16.168 44.2009 16.168C45.6404 16.1465 47.0798 16.0283 48.5193 15.8135C49.9587 15.5771 51.3875 15.3408 52.8054 15.1045C55.6414 14.6318 57.6287 14.3955 58.7673 14.3955C59.9275 14.3955 60.8406 14.4277 61.5066 14.4922C61.5281 14.9004 61.571 15.2549 61.6355 15.5557C61.7 15.8564 61.7322 16.1035 61.7322 16.2969C61.7322 16.6621 61.3777 16.791 60.6687 16.6836C49.4324 17.0918 43.8142 17.9297 43.8142 19.1973C43.8142 20.5938 43.9109 21.7969 44.1042 22.8066C44.2976 23.7949 44.4373 24.418 44.5232 24.6758C44.6306 24.9336 44.7488 25.0625 44.8777 25.0625C46.1023 25.0625 47.3376 24.9551 48.5837 24.7402C49.8513 24.5254 51.1082 24.2998 52.3542 24.0635C53.6218 23.8057 54.8894 23.5693 56.157 23.3545C57.4246 23.1396 58.6707 23.0322 59.8953 23.0322C59.9167 23.0322 59.9275 23.1182 59.9275 23.29C59.9275 23.4404 59.9167 23.6123 59.8953 23.8057C59.8308 24.3213 59.8308 24.5791 59.8953 24.5791C58.9714 25.0947 57.2957 25.5137 54.8679 25.8359C53.8152 25.9863 52.741 26.126 51.6453 26.2549C50.5496 26.3838 49.5398 26.5234 48.616 26.6738C46.489 26.9746 45.2537 27.3721 44.9099 27.8662L44.5554 34.1826C44.3191 34.4189 44.0505 34.5371 43.7498 34.5371L42.5574 34.4404C42.45 34.4404 42.3425 34.4404 42.2351 34.4404V28.9297ZM75.5896 28.9297C73.9783 31.4648 71.8298 33.0332 69.1443 33.6348C68.5212 33.7637 67.9519 33.8281 67.4363 33.8281C66.9421 33.8281 66.5232 33.8281 66.1794 33.8281C65.8572 33.8066 65.4919 33.7529 65.0837 33.667C64.6755 33.5811 64.2996 33.4414 63.9558 33.248C63.1609 32.7969 62.7634 32.1631 62.7634 31.3467C62.6775 30.96 62.6345 30.5303 62.6345 30.0576C62.6345 29.5635 62.7419 28.9189 62.9568 28.124C63.1716 27.3291 63.5583 26.4697 64.1169 25.5459C64.697 24.6221 65.3953 23.7734 66.2117 23C67.9089 21.3672 69.7458 20.3145 71.7224 19.8418C72.3025 19.7129 72.8289 19.6484 73.3015 19.6484C73.7957 19.6484 74.2361 19.6807 74.6228 19.7451C75.8689 19.7451 76.7068 20.5938 77.1365 22.291C77.4158 23.3652 77.5769 24.8691 77.6199 26.8027C77.6843 28.7148 77.738 30.1973 77.781 31.25C77.8455 32.2812 77.9851 33.2266 78.2 34.0859H76.2986C76.2126 33.5059 76.1482 32.9902 76.1052 32.5391C76.0623 32.0879 76.0193 31.6689 75.9763 31.2822C75.8689 30.3799 75.74 29.5957 75.5896 28.9297ZM75.4607 23.9346C75.4607 22.6885 74.8484 22.0654 73.6238 22.0654C73.4734 22.0439 73.323 22.0332 73.1726 22.0332C71.6042 22.0332 69.95 22.7852 68.2097 24.2891C67.3933 24.9766 66.6951 25.75 66.115 26.6094C65.2556 27.834 64.8259 28.9297 64.8259 29.8965C64.8259 31.1641 65.5564 31.916 67.0173 32.1523C68.9509 32.1094 70.7986 31.2285 72.5603 29.5098C73.3123 28.7578 73.9353 27.9414 74.4294 27.0605C75.1169 25.8789 75.4607 24.8369 75.4607 23.9346ZM82.3894 33.7637C81.5085 34.1289 80.9177 34.3115 80.6169 34.3115C80.3376 34.3115 80.1443 34.2793 80.0369 34.2148C79.9294 34.1504 79.8113 34 79.6824 33.7637C79.6824 33.0547 79.7039 32.1631 79.7468 31.0889C79.8113 30.0146 79.865 28.8652 79.908 27.6406C79.9509 26.416 79.9724 25.1807 79.9724 23.9346C79.9724 22.6885 79.908 21.5498 79.7791 20.5186C79.7791 19.8311 80.241 19.4873 81.1648 19.4873C81.3796 19.4873 81.5408 19.874 81.6482 20.6475C81.7771 21.4209 81.863 22.0225 81.906 22.4521C81.9705 22.8818 82.0242 23.1934 82.0671 23.3867C82.6257 22.377 83.7322 21.582 85.3865 21.002C86.2673 20.7227 87.0945 20.583 87.8679 20.583C88.6414 20.583 89.3181 20.6797 89.8982 20.873C90.4998 21.0449 91.0046 21.3779 91.4128 21.8721C91.8425 22.3447 92.0574 22.9785 92.0574 23.7734C92.616 22.7207 93.8728 21.7754 95.8279 20.9375C97.6111 20.1426 99.2117 19.7451 100.63 19.7451C102.671 19.7451 103.67 20.5186 103.627 22.0654L104.303 34.0537C104.303 34.1611 103.992 34.2363 103.369 34.2793C102.166 34.3652 101.564 34.2578 101.564 33.957C101.543 33.5273 101.532 33.0977 101.532 32.668L101.693 27.4795C101.693 25.0518 101.457 23.1289 100.984 21.7109C99.5662 21.8184 98.4705 22.0547 97.697 22.4199C96.9451 22.7637 96.2791 23.2041 95.699 23.7412C95.1189 24.2568 94.6033 24.9551 94.1521 25.8359C93.1423 27.8125 92.6375 30.4336 92.6375 33.6992C92.5085 34.1504 92.0896 34.376 91.3806 34.376C90.908 34.376 90.5212 34.3008 90.2205 34.1504C89.9197 33.9785 89.8015 33.8281 89.866 33.6992C90.2742 31.4219 90.4783 29.6494 90.4783 28.3818C90.4783 27.3721 90.3708 26.416 90.156 25.5137C89.9626 24.5898 89.7156 23.5371 89.4148 22.3555C86.321 22.3555 84.2371 23.5908 83.1628 26.0615C82.6902 27.1572 82.4216 28.1885 82.3572 29.1553C82.3142 30.1006 82.2927 30.917 82.2927 31.6045C82.2927 32.2705 82.325 32.9902 82.3894 33.7637ZM108.3 19.1328C108.579 23.1504 108.815 27.8018 109.009 33.0869C108.88 33.7529 108.364 34.0859 107.462 34.0859C107.225 34.0859 106.978 34.043 106.72 33.957C106.484 33.8496 106.334 33.71 106.269 33.5381V19.1328H108.3ZM105.302 14.75C105.302 13.998 105.743 13.6221 106.624 13.6221C107.204 13.6221 107.677 13.751 108.042 14.0088C108.106 14.2451 108.138 14.4814 108.138 14.7178C108.138 14.9326 108.052 15.1475 107.881 15.3623C107.709 15.5771 107.451 15.6846 107.107 15.6846C106.763 15.6846 106.42 15.6094 106.076 15.459C105.732 15.2871 105.474 15.0508 105.302 14.75ZM110.974 21.7754C110.931 20.6152 110.888 19.584 110.845 18.6816C110.802 17.7578 110.77 17.0811 110.749 16.6514C110.749 16.2002 110.577 15.1152 110.233 13.3965C110.427 13.1387 110.609 12.8916 110.781 12.6553C110.974 12.4189 111.243 12.3008 111.587 12.3008C112.339 12.3008 112.919 15.4697 113.327 21.8076C113.542 25.4814 113.649 29.1553 113.649 32.8291C113.649 33.8174 112.962 34.3115 111.587 34.3115L111.329 34.2793C111.329 33.1621 111.297 31.7334 111.232 29.9932C111.168 28.2529 111.114 26.7383 111.071 25.4492C111.05 24.1602 111.017 22.9355 110.974 21.7754ZM116.163 21.7754C116.12 20.6152 116.077 19.584 116.034 18.6816C115.991 17.7578 115.959 17.0811 115.937 16.6514C115.937 16.2002 115.765 15.1152 115.422 13.3965C115.615 13.1387 115.798 12.8916 115.969 12.6553C116.163 12.4189 116.431 12.3008 116.775 12.3008C117.527 12.3008 118.107 15.4697 118.515 21.8076C118.73 25.4814 118.838 29.1553 118.838 32.8291C118.838 33.8174 118.15 34.3115 116.775 34.3115L116.517 34.2793C116.517 33.1621 116.485 31.7334 116.421 29.9932C116.356 28.2529 116.302 26.7383 116.26 25.4492C116.238 24.1602 116.206 22.9355 116.163 21.7754ZM127.345 32.0234C129.236 32.0234 132.083 31.1641 135.885 29.4453C136.122 29.4453 136.315 29.5312 136.466 29.7031C136.616 29.8535 136.691 30.0361 136.691 30.251C135.832 31.7119 134.188 32.8506 131.76 33.667C129.333 34.4834 127.066 34.623 124.961 34.0859C122.576 33.4629 121.126 32.1201 120.61 30.0576C120.567 29.6494 120.546 29.1016 120.546 28.4141C120.546 27.7266 120.718 26.8242 121.061 25.707C121.427 24.5684 122.039 23.4941 122.898 22.4844C123.758 21.4746 124.767 20.6797 125.927 20.0996C127.088 19.5195 128.323 19.2295 129.634 19.2295C130.88 19.2295 132.276 19.6592 133.823 20.5186C134.553 20.9268 135.134 21.3887 135.563 21.9043C135.993 22.4199 136.208 22.9463 136.208 23.4834C136.208 23.6338 136.197 23.7842 136.176 23.9346C136.133 25.2451 135.499 26.0723 134.274 26.416C133.737 26.5664 133.114 26.6416 132.405 26.6416L127.764 26.4482C126.218 26.4482 125.036 26.7812 124.219 27.4473C123.747 27.8125 123.414 28.3604 123.22 29.0908C123.758 31.0459 125.133 32.0234 127.345 32.0234ZM133.082 22.0654C132.609 21.7217 132.115 21.4746 131.599 21.3242C131.084 21.1738 130.654 21.0986 130.31 21.0986C129.967 21.0986 129.408 21.2168 128.635 21.4531C127.861 21.668 127.174 21.915 126.572 22.1943C125.09 22.8818 124.348 23.6016 124.348 24.3535C126.067 24.5039 127.356 24.5791 128.216 24.5791C130.6 24.5791 132.212 24.375 133.05 23.9668C133.565 23.752 133.823 23.4834 133.823 23.1611C133.823 22.7744 133.576 22.4092 133.082 22.0654Z" fill="white"/>
</svg>
