<svg width="245" height="47" viewBox="0 0 245 47" fill="none" xmlns="http://www.w3.org/2000/svg">
<path d="M226.852 47H18.1481C8.16667 47 0 40.7134 0 33.0297V13.9703C0 6.28662 8.16667 0 18.1481 0H226.852C236.833 0 245 6.28662 245 13.9703V33.0297C244.87 40.7134 236.833 47 226.852 47Z" fill="#F3B800"/>
<path d="M34.8252 25.4619L34.7285 19.3711C34.7285 18.4043 34.75 17.5557 34.793 16.8252C34.8574 16.0732 35.0186 15.6973 35.2764 15.6973H37.4355C37.4355 16.041 37.4678 16.707 37.5322 17.6953C37.5967 18.6836 37.6396 19.6826 37.6611 20.6924C37.6826 21.6807 37.6934 22.5293 37.6934 23.2383C37.6934 23.9473 37.6826 24.8711 37.6611 26.0098C37.6396 27.127 37.5322 28.3623 37.3389 29.7158C36.8877 32.8311 36.0283 34.7539 34.7607 35.4844C33.7939 36.0215 32.2578 36.1504 30.1523 35.8711C28.0254 35.5703 26.1562 34.9473 24.5449 34.002C22.6543 32.9062 21.5693 31.6172 21.29 30.1348C21.29 29.6406 21.4512 29.2109 21.7734 28.8457C22.3535 28.1582 22.8799 27.8145 23.3525 27.8145C23.374 29.0391 23.707 30.0488 24.3516 30.8438C25.8555 32.6484 28.2725 33.5508 31.6025 33.5508C32.1611 33.5508 32.709 33.5186 33.2461 33.4541C34.2988 32.8955 34.8252 30.2314 34.8252 25.4619ZM45.9111 33.7441C47.8018 33.7441 50.6484 32.8848 54.4512 31.166C54.6875 31.166 54.8809 31.252 55.0312 31.4238C55.1816 31.5742 55.2568 31.7568 55.2568 31.9717C54.3975 33.4326 52.7539 34.5713 50.3262 35.3877C47.8984 36.2041 45.6318 36.3438 43.5264 35.8066C41.1416 35.1836 39.6914 33.8408 39.1758 31.7783C39.1328 31.3701 39.1113 30.8223 39.1113 30.1348C39.1113 29.4473 39.2832 28.5449 39.627 27.4277C39.9922 26.2891 40.6045 25.2148 41.4639 24.2051C42.3232 23.1953 43.333 22.4004 44.4932 21.8203C45.6533 21.2402 46.8887 20.9502 48.1992 20.9502C49.4453 20.9502 50.8418 21.3799 52.3887 22.2393C53.1191 22.6475 53.6992 23.1094 54.1289 23.625C54.5586 24.1406 54.7734 24.667 54.7734 25.2041C54.7734 25.3545 54.7627 25.5049 54.7412 25.6553C54.6982 26.9658 54.0645 27.793 52.8398 28.1367C52.3027 28.2871 51.6797 28.3623 50.9707 28.3623L46.3301 28.1689C44.7832 28.1689 43.6016 28.502 42.7852 29.168C42.3125 29.5332 41.9795 30.0811 41.7861 30.8115C42.3232 32.7666 43.6982 33.7441 45.9111 33.7441ZM51.6475 23.7861C51.1748 23.4424 50.6807 23.1953 50.165 23.0449C49.6494 22.8945 49.2197 22.8193 48.876 22.8193C48.5322 22.8193 47.9736 22.9375 47.2002 23.1738C46.4268 23.3887 45.7393 23.6357 45.1377 23.915C43.6553 24.6025 42.9141 25.3223 42.9141 26.0742C44.6328 26.2246 45.9219 26.2998 46.7812 26.2998C49.166 26.2998 50.7773 26.0957 51.6152 25.6875C52.1309 25.4727 52.3887 25.2041 52.3887 24.8818C52.3887 24.4951 52.1416 24.1299 51.6475 23.7861ZM57.0293 31.7139C57.0293 31.3701 56.9971 30.8975 56.9326 30.2959C56.8896 29.6729 56.8467 28.9961 56.8037 28.2656C56.7607 27.5352 56.7393 26.7939 56.7393 26.042C56.7393 25.29 56.8037 24.6025 56.9326 23.9795C57.2119 22.583 57.792 21.8848 58.6729 21.8848C59.2744 22.0566 59.6719 22.2715 59.8652 22.5293C60.0801 22.7871 60.1875 23.1094 60.1875 23.4961C60.1875 23.8613 60.0908 24.3232 59.8975 24.8818C59.1885 26.751 58.834 28.4375 58.834 29.9414C58.834 30.4355 58.8662 30.9619 58.9307 31.5205C59.2744 32.96 60.4561 33.6797 62.4756 33.6797C63.5283 33.6797 64.5273 33.4971 65.4727 33.1318C67.2773 32.4658 68.502 31.6816 69.1465 30.7793C69.3398 29.791 69.4365 28.9316 69.4365 28.2012C69.4365 27.4492 69.4043 26.7832 69.3398 26.2031C69.2969 25.623 69.2324 24.9893 69.1465 24.3018C69.082 23.5928 69.0391 22.8193 69.0176 21.9814C69.2969 21.8525 69.5654 21.7881 69.8232 21.7881C70.1025 21.7881 70.3818 21.9277 70.6611 22.207C70.9619 22.4863 71.209 23.0127 71.4023 23.7861C71.6172 24.5596 71.7568 25.4727 71.8213 26.5254C71.8857 27.5566 71.918 28.6309 71.918 29.748C71.9395 30.8652 71.9502 31.9502 71.9502 33.0029C71.9502 34.0342 71.9932 34.9258 72.0791 35.6777C71.8213 35.9141 71.5742 36.0322 71.3379 36.0322C70.4785 36.0322 69.8447 35.1729 69.4365 33.4541C69.1572 33.6904 68.6846 33.9805 68.0186 34.3242C66.6006 35.0977 64.9248 35.6133 62.9912 35.8711C62.626 35.9141 62.2178 35.9355 61.7666 35.9355C61.3154 35.9355 60.7461 35.8496 60.0586 35.6777C59.3926 35.5059 58.7588 35.1084 58.1572 34.4854C57.5557 33.8623 57.1797 32.9385 57.0293 31.7139ZM86.5166 28.9424C86.5166 26.3857 86.377 24.5059 86.0977 23.3027C86.2695 22.9805 86.0117 22.8193 85.3242 22.8193C84.5938 22.8193 83.6484 23.002 82.4883 23.3672C81.3281 23.7324 80.3828 24.0977 79.6523 24.4629C77.9121 25.3008 76.9453 26.1172 76.752 26.9121V35.6777H74.5928C74.3135 34.9473 74.1738 32.8955 74.1738 29.5225C74.1738 26.5146 74.2275 24.3018 74.335 22.8838C74.4639 21.4658 74.5605 20.6602 74.625 20.4668C75.1836 20.1016 75.6348 19.9189 75.9785 19.9189C76.5156 19.9189 76.7842 20.5527 76.7842 21.8203C76.7842 22.3145 76.752 22.7979 76.6875 23.2705C76.6445 23.7217 76.623 24.0332 76.623 24.2051C80.1035 21.6484 82.7998 20.3701 84.7119 20.3701C86.8818 20.3701 88.1172 22.1211 88.418 25.623C88.5469 26.8477 88.6113 28.5449 88.6113 30.7148L88.5791 33.2607C88.5791 34.2061 88.6006 35.1191 88.6436 36C88.4287 36.1289 88.2568 36.1934 88.1279 36.1934C88.0635 36.1719 87.9238 36.1396 87.709 36.0967C87.4941 36.0537 87.2148 36.0215 86.8711 36C86.6562 35.1406 86.5381 34.2705 86.5166 33.3896C86.4951 32.4873 86.4844 31.6602 86.4844 30.9082L86.5166 28.9424ZM97.0225 33.7441C98.9131 33.7441 101.76 32.8848 105.562 31.166C105.799 31.166 105.992 31.252 106.143 31.4238C106.293 31.5742 106.368 31.7568 106.368 31.9717C105.509 33.4326 103.865 34.5713 101.438 35.3877C99.0098 36.2041 96.7432 36.3438 94.6377 35.8066C92.2529 35.1836 90.8027 33.8408 90.2871 31.7783C90.2441 31.3701 90.2227 30.8223 90.2227 30.1348C90.2227 29.4473 90.3945 28.5449 90.7383 27.4277C91.1035 26.2891 91.7158 25.2148 92.5752 24.2051C93.4346 23.1953 94.4443 22.4004 95.6045 21.8203C96.7646 21.2402 98 20.9502 99.3105 20.9502C100.557 20.9502 101.953 21.3799 103.5 22.2393C104.23 22.6475 104.811 23.1094 105.24 23.625C105.67 24.1406 105.885 24.667 105.885 25.2041C105.885 25.3545 105.874 25.5049 105.853 25.6553C105.81 26.9658 105.176 27.793 103.951 28.1367C103.414 28.2871 102.791 28.3623 102.082 28.3623L97.4414 28.1689C95.8945 28.1689 94.7129 28.502 93.8965 29.168C93.4238 29.5332 93.0908 30.0811 92.8975 30.8115C93.4346 32.7666 94.8096 33.7441 97.0225 33.7441ZM102.759 23.7861C102.286 23.4424 101.792 23.1953 101.276 23.0449C100.761 22.8945 100.331 22.8193 99.9873 22.8193C99.6436 22.8193 99.085 22.9375 98.3115 23.1738C97.5381 23.3887 96.8506 23.6357 96.249 23.915C94.7666 24.6025 94.0254 25.3223 94.0254 26.0742C95.7441 26.2246 97.0332 26.2998 97.8926 26.2998C100.277 26.2998 101.889 26.0957 102.727 25.6875C103.242 25.4727 103.5 25.2041 103.5 24.8818C103.5 24.4951 103.253 24.1299 102.759 23.7861ZM134.18 30.6504C132.568 33.1855 130.42 34.7539 127.734 35.3555C127.111 35.4844 126.542 35.5488 126.026 35.5488C125.532 35.5488 125.113 35.5488 124.77 35.5488C124.447 35.5273 124.082 35.4736 123.674 35.3877C123.266 35.3018 122.89 35.1621 122.546 34.9688C121.751 34.5176 121.354 33.8838 121.354 33.0674C121.268 32.6807 121.225 32.251 121.225 31.7783C121.225 31.2842 121.332 30.6396 121.547 29.8447C121.762 29.0498 122.148 28.1904 122.707 27.2666C123.287 26.3428 123.985 25.4941 124.802 24.7207C126.499 23.0879 128.336 22.0352 130.312 21.5625C130.893 21.4336 131.419 21.3691 131.892 21.3691C132.386 21.3691 132.826 21.4014 133.213 21.4658C134.459 21.4658 135.297 22.3145 135.727 24.0117C136.006 25.0859 136.167 26.5898 136.21 28.5234C136.274 30.4355 136.328 31.918 136.371 32.9707C136.436 34.002 136.575 34.9473 136.79 35.8066H134.889C134.803 35.2266 134.738 34.7109 134.695 34.2598C134.652 33.8086 134.609 33.3896 134.566 33.0029C134.459 32.1006 134.33 31.3164 134.18 30.6504ZM134.051 25.6553C134.051 24.4092 133.438 23.7861 132.214 23.7861C132.063 23.7646 131.913 23.7539 131.763 23.7539C130.194 23.7539 128.54 24.5059 126.8 26.0098C125.983 26.6973 125.285 27.4707 124.705 28.3301C123.846 29.5547 123.416 30.6504 123.416 31.6172C123.416 32.8848 124.146 33.6367 125.607 33.873C127.541 33.8301 129.389 32.9492 131.15 31.2305C131.902 30.4785 132.525 29.6621 133.02 28.7812C133.707 27.5996 134.051 26.5576 134.051 25.6553ZM151.324 32.6162C152.205 32.251 153.064 31.918 153.902 31.6172C154.74 31.3164 155.535 31.166 156.287 31.166C157.061 31.166 157.447 31.4023 157.447 31.875C157.447 31.9824 157.415 32.1543 157.351 32.3906C157.308 32.6055 157.018 32.874 156.48 33.1963C155.965 33.4971 155.32 33.7871 154.547 34.0664C153.795 34.3457 152.968 34.6035 152.065 34.8398C151.163 35.0762 150.282 35.2803 149.423 35.4521C147.64 35.8174 146.372 36 145.62 36C144.868 36 144.052 35.9141 143.171 35.7422C142.312 35.5703 141.506 35.291 140.754 34.9043C139.014 34.002 138.144 32.6699 138.144 30.9082C138.144 30.7793 138.144 30.5215 138.144 30.1348C138.144 29.748 138.305 29.2002 138.627 28.4912C138.949 27.7607 139.433 27.041 140.077 26.332C140.722 25.6016 141.474 24.9355 142.333 24.334C144.138 23.0449 146.028 22.207 148.005 21.8203C148.692 21.6699 149.262 21.5947 149.713 21.5947C150.186 21.5947 150.572 21.6055 150.873 21.627C151.174 21.627 151.485 21.6484 151.808 21.6914C152.13 21.7129 152.409 21.7881 152.646 21.917C153.204 22.1963 153.483 22.7441 153.483 23.5605C153.483 24.0762 153.118 24.5811 152.388 25.0752C152.194 25.2041 152.022 25.3223 151.872 25.4297C151.765 24.9355 151.625 24.5166 151.453 24.1729C151.281 23.8291 150.905 23.6572 150.325 23.6572C147.79 24.1943 145.609 25 143.783 26.0742C141.721 27.2988 140.689 28.5879 140.689 29.9414C140.689 30.0918 140.7 30.2529 140.722 30.4248C140.722 31.7998 141.248 32.7773 142.301 33.3574C143.096 33.7871 144.116 34.002 145.362 34.002C146.63 34.002 147.726 33.8623 148.649 33.583C149.573 33.2822 150.465 32.96 151.324 32.6162ZM164.054 32.9062L164.118 27.75C164.118 26.9336 164.043 26.2354 163.893 25.6553H158.897L158.833 23.4316H163.667V15.1172C163.731 14.9238 163.86 14.7305 164.054 14.5371C164.354 14.2363 164.602 14.0859 164.795 14.0859C165.01 14.0859 165.192 14.1074 165.343 14.1504C165.493 14.1934 165.654 14.3438 165.826 14.6016C166.17 16.0195 166.342 18.1572 166.342 21.0146C166.342 21.7236 166.374 22.4219 166.438 23.1094C167.126 23.0234 167.813 22.9805 168.501 22.9805C168.501 22.9805 169.06 22.9805 170.177 22.9805C170.585 22.9805 170.961 22.959 171.305 22.916L171.208 25.2363L166.503 25.1074L166.664 36.2256C166.277 36.3975 165.944 36.4834 165.665 36.4834C164.591 36.4834 164.054 35.291 164.054 32.9062ZM175.43 20.8535C175.709 24.8711 175.945 29.5225 176.139 34.8076C176.01 35.4736 175.494 35.8066 174.592 35.8066C174.355 35.8066 174.108 35.7637 173.851 35.6777C173.614 35.5703 173.464 35.4307 173.399 35.2588V20.8535H175.43ZM172.433 16.4707C172.433 15.7187 172.873 15.3428 173.754 15.3428C174.334 15.3428 174.807 15.4717 175.172 15.7295C175.236 15.9658 175.269 16.2021 175.269 16.4385C175.269 16.6533 175.183 16.8682 175.011 17.083C174.839 17.2979 174.581 17.4053 174.237 17.4053C173.894 17.4053 173.55 17.3301 173.206 17.1797C172.862 17.0078 172.604 16.7715 172.433 16.4707ZM196.022 25.2363C196.13 25.2363 196.184 25.5264 196.184 26.1064C196.184 26.6865 196.205 27.084 196.248 27.2988L185.194 28.6523L185.774 35.8066L183.164 35.6777C183.164 33.7441 182.949 31.5312 182.52 29.0391L178.33 30.6504C178.051 30.6504 177.814 30.4893 177.621 30.167C177.277 29.6084 177.105 29.1035 177.105 28.6523L182.004 26.9121C181.574 23.2168 181.359 20.2197 181.359 17.9209C181.359 15.6006 181.553 13.7959 181.939 12.5068C182.326 11.2178 182.885 10.3584 183.615 9.92871C184.367 9.47754 185.162 9.25195 186 9.25195C186.838 9.25195 187.687 9.43457 188.546 9.7998C189.427 10.165 190.265 10.627 191.06 11.1855C191.854 11.7441 192.531 12.3779 193.09 13.0869C193.648 13.7744 193.928 14.4512 193.928 15.1172C193.928 15.6328 193.874 15.998 193.767 16.2129C192.907 15.0098 191.865 13.9355 190.641 12.9902C189.18 11.873 187.805 11.3145 186.516 11.3145C185.291 11.3145 184.475 12.1846 184.066 13.9248C183.873 14.8271 183.776 16.1055 183.776 17.7598C183.776 19.3926 183.819 20.8965 183.905 22.2715C183.991 23.625 184.249 24.9893 184.679 26.3643C186.011 26.3643 187.504 26.2461 189.158 26.0098C192.338 25.5156 194.626 25.2578 196.022 25.2363ZM197.73 36.0322C197.236 35.9893 196.989 35.7744 196.989 35.3877C196.989 34.915 197.258 34.4746 197.795 34.0664C198.01 33.916 198.171 33.8408 198.278 33.8408C198.407 33.8408 198.504 33.8516 198.568 33.873C199.02 33.873 199.32 33.9697 199.471 34.1631C199.643 34.335 199.729 34.5713 199.729 34.8721C199.729 35.1729 199.664 35.3984 199.535 35.5488C199.406 35.6992 199.245 35.8066 199.052 35.8711C198.729 35.9785 198.289 36.0322 197.73 36.0322ZM202.049 23.5283C202.006 23.4209 201.984 23.3027 201.984 23.1738C201.984 23.0234 202.038 22.8301 202.146 22.5938C202.253 22.3574 202.403 22.1533 202.597 21.9814C202.812 21.8096 203.037 21.7344 203.273 21.7559C203.531 21.7559 203.735 21.9062 203.886 22.207L209.3 32.2617C209.472 32.0039 209.74 31.5312 210.105 30.8438C210.492 30.1348 210.922 29.3398 211.395 28.459C211.889 27.5781 212.394 26.665 212.909 25.7197C213.446 24.7529 213.94 23.8721 214.392 23.0771C215.423 21.251 216.035 20.3379 216.229 20.3379C216.68 20.3379 217.002 20.5098 217.195 20.8535C217.41 21.1758 217.518 21.4229 217.518 21.5947C217.518 21.7666 217.518 21.8848 217.518 21.9492C216.314 24.5703 215.197 26.9873 214.166 29.2002C213.156 31.4131 212.479 32.8525 212.136 33.5186C211.813 34.1631 211.523 34.6787 211.266 35.0654C210.814 35.7314 210.374 36.0645 209.944 36.0645C209.515 36.0645 209.021 35.7314 208.462 35.0654C207.903 34.3779 207.27 33.4648 206.561 32.3262C205.314 30.2637 203.811 27.3311 202.049 23.5283ZM225.445 33.7441C227.336 33.7441 230.183 32.8848 233.985 31.166C234.222 31.166 234.415 31.252 234.565 31.4238C234.716 31.5742 234.791 31.7568 234.791 31.9717C233.932 33.4326 232.288 34.5713 229.86 35.3877C227.433 36.2041 225.166 36.3438 223.061 35.8066C220.676 35.1836 219.226 33.8408 218.71 31.7783C218.667 31.3701 218.646 30.8223 218.646 30.1348C218.646 29.4473 218.817 28.5449 219.161 27.4277C219.526 26.2891 220.139 25.2148 220.998 24.2051C221.857 23.1953 222.867 22.4004 224.027 21.8203C225.188 21.2402 226.423 20.9502 227.733 20.9502C228.979 20.9502 230.376 21.3799 231.923 22.2393C232.653 22.6475 233.233 23.1094 233.663 23.625C234.093 24.1406 234.308 24.667 234.308 25.2041C234.308 25.3545 234.297 25.5049 234.275 25.6553C234.232 26.9658 233.599 27.793 232.374 28.1367C231.837 28.2871 231.214 28.3623 230.505 28.3623L225.864 28.1689C224.317 28.1689 223.136 28.502 222.319 29.168C221.847 29.5332 221.514 30.0811 221.32 30.8115C221.857 32.7666 223.232 33.7441 225.445 33.7441ZM231.182 23.7861C230.709 23.4424 230.215 23.1953 229.699 23.0449C229.184 22.8945 228.754 22.8193 228.41 22.8193C228.066 22.8193 227.508 22.9375 226.734 23.1738C225.961 23.3887 225.273 23.6357 224.672 23.915C223.189 24.6025 222.448 25.3223 222.448 26.0742C224.167 26.2246 225.456 26.2998 226.315 26.2998C228.7 26.2998 230.312 26.0957 231.149 25.6875C231.665 25.4727 231.923 25.2041 231.923 24.8818C231.923 24.4951 231.676 24.1299 231.182 23.7861Z" fill="white"/>
</svg>
