<svg width="390" height="390" viewBox="0 0 390 390" fill="none" xmlns="http://www.w3.org/2000/svg">
<path d="M389.2 195C389.2 249.6 366.7 298.9 330.5 334.3C322.4 342.2 313.6 349.4 304.3 355.7C295.2 362 285.5 367.4 275.3 372.1C273.7 372.8 272.2 373.5 270.6 374.2C247.3 384.1 221.6 389.6 194.7 389.6C182.8 389.6 171.1 388.5 159.8 386.5C130.6 381.2 103.7 369.4 80.6 352.7C69.6 344.7 59.4 335.5 50.3 325.4C19.1 290.8 0.199997 245.1 0.199997 195C0.199997 87.6 87.3 0.5 194.7 0.5C302.1 0.5 389.2 87.6 389.2 195Z" fill="#F3B800"/>
<path d="M166.1 205.1L161.7 266.8C161.7 266.8 187.6 289.1 224.1 267.9L223.6 221.6C223.6 221.7 180.1 180.7 166.1 205.1Z" fill="#F7B08E"/>
<path d="M304.3 355.7C295.2 362 285.5 367.4 275.3 372.1C273.7 372.8 272.2 373.5 270.6 374.2C247.3 384.1 221.6 389.6 194.7 389.6C182.8 389.6 171.1 388.5 159.8 386.5C130.6 381.2 103.7 369.4 80.6 352.7C95.8 305.9 120.7 268.8 160.6 257.9C161.2 257.7 161.8 257.6 162.3 257.6C169.4 256.8 168.9 265.6 193 265.6C221.7 265.6 219.8 259.9 223.9 259.8C224.9 259.8 226.4 260.1 228.8 261C229.1 261.1 229.4 261.2 229.7 261.3C266 275.1 289.4 311.2 304.3 355.7Z" fill="#E4582C"/>
<path d="M247.8 167.7C247.8 167.7 246.1 138.8 240.4 130.5C218.7 99.3 146.9 93.8 140.8 158.5C140.8 158.5 139.6 152.6 138.9 163.8C138.9 163.8 127.5 154.7 127.5 170.3C127.5 184.5 129.5 190.5 140.8 200.6C140.8 200.6 159.6 242.4 204.6 240.2C221.8 239.3 235.1 221.9 241.3 205.3C247.8 186.9 247.8 167.7 247.8 167.7Z" fill="#F9C7A6"/>
<path d="M245.5 166.6C245.5 166.6 251.2 160.6 254.8 165.4C258.4 170.2 257.4 193.2 245.3 198.4C233.2 203.6 245.5 166.6 245.5 166.6Z" fill="#F9C7A6"/>
<path d="M159.5 198.8C165.354 198.8 170.1 194.054 170.1 188.2C170.1 182.346 165.354 177.6 159.5 177.6C153.646 177.6 148.9 182.346 148.9 188.2C148.9 194.054 153.646 198.8 159.5 198.8Z" fill="#F7B08E"/>
<path d="M229.3 198.8C235.154 198.8 239.9 194.054 239.9 188.2C239.9 182.346 235.154 177.6 229.3 177.6C223.446 177.6 218.7 182.346 218.7 188.2C218.7 194.054 223.446 198.8 229.3 198.8Z" fill="#F7B08E"/>
<path d="M180.3 173.7C181.405 173.7 182.3 172.805 182.3 171.7C182.3 170.595 181.405 169.7 180.3 169.7C179.195 169.7 178.3 170.595 178.3 171.7C178.3 172.805 179.195 173.7 180.3 173.7Z" fill="#192624"/>
<path d="M215.2 172.6C216.305 172.6 217.2 171.705 217.2 170.6C217.2 169.495 216.305 168.6 215.2 168.6C214.095 168.6 213.2 169.495 213.2 170.6C213.2 171.705 214.095 172.6 215.2 172.6Z" fill="#192624"/>
<path d="M182.3 210.8C182.3 210.8 181.9 224.1 203.3 221.4C206 221.1 208.6 220.1 210.7 218.4C212.2 217.2 213.5 215.6 213.1 213.8C212.2 209.7 204.2 212.9 197.7 210.7C191.2 208.5 182.3 200.8 182.3 210.8Z" fill="#F7B08E" stroke="#1E1E1C" stroke-width="0.25" stroke-miterlimit="10"/>
<path d="M184.5 213.1C184.5 213.1 186.6 221.1 198.8 220C198.7 220 196.2 207.6 184.5 213.1Z" fill="#F39874"/>
<path d="M194.2 213.8C194.2 213.8 199.5 214.1 200.6 220.2C200.6 220.2 196.6 220.9 191 219.3L194.2 213.8Z" fill="#F39874"/>
<path d="M136.5 183.8C136.5 183.8 138.8 190.7 142.8 186.1C146.8 181.5 149.4 151.9 162.6 138.9C162.6 138.9 162.8 135.4 173.2 138.9C183.6 142.4 200 137.7 208.3 139.2C216.6 140.6 221.8 144.4 229 144.4C236.2 144.4 243.4 145.8 243.4 152.7C243.4 159.6 245.6 125.7 245.6 125.7L154.5 116.8L136.1 163.8L136.5 183.8Z" fill="#F7B08E"/>
<path d="M137.8 186.3C138.6 173.8 105.1 114.7 130.6 112.2C130.6 112.2 146.4 59.3 196.9 80.9C247.4 102.5 257.4 85.2 263.2 101.7C269 118.2 257.8 149.5 228.4 139.5C199 129.5 190.5 141 171.6 132.5C157 125.9 146.8 167 143 185.7C142.6 188.4 137.6 189 137.8 186.3Z" fill="#192624"/>
<path d="M232.9 140.6C232.9 140.6 242.2 140.2 243.6 145.2C246 153.5 247.5 181.3 250.4 173.6C253.3 165.9 253.2 148.7 251.9 128.9C250.5 104.3 232.9 140.6 232.9 140.6Z" fill="#192624"/>
<path d="M192.9 189.4C192.9 189.4 201.4 192.4 205.2 185.9C205.2 185.9 202.5 197 192.9 189.4Z" fill="#F7B08E"/>
<path d="M183.3 151.3C183.3 151.3 172.5 145.7 165.2 154.8" stroke="#192624" stroke-width="0.5" stroke-miterlimit="10" stroke-linecap="round"/>
<path d="M213.2 152.6C213.2 152.6 224 147 231.3 156.1" stroke="#192624" stroke-width="0.5" stroke-miterlimit="10" stroke-linecap="round"/>
<path d="M330.5 334.3C322.4 342.2 313.6 349.4 304.3 355.7C295.2 362 285.5 367.4 275.3 372.1C273.7 372.8 272.2 373.5 270.6 374.2C259 317.4 245.1 270.5 229.8 261.2C229.5 261 229.2 260.8 228.9 260.7C228.8 260.7 291.9 271.4 330.5 334.3Z" fill="#E4582C"/>
<path d="M275.3 372.1C275.2 371.6 275.1 371 274.9 370.5" stroke="#D64420" stroke-width="2" stroke-miterlimit="10"/>
<path d="M159.8 386.4C130.6 381.1 103.7 369.3 80.6 352.6C69.6 344.6 59.4 335.4 50.3 325.3C53.2 320.8 55.8 316.7 58.1 313.3C82.5 276.8 160.6 257.7 160.6 257.7C160.7 259.2 164.3 323.7 159.8 386.4Z" fill="#E4582C"/>
</svg>
