<svg width="190" height="48" viewBox="0 0 190 48" fill="none" xmlns="http://www.w3.org/2000/svg">
<path d="M175.9 47.2999H14.9C7.20002 47.2999 0.900024 40.9999 0.900024 33.2999V14.2C0.900024 6.49995 7.20002 0.199951 14.9 0.199951H175.9C183.6 0.199951 189.9 6.49995 189.9 14.2V33.2999C189.9 41.0999 183.7 47.2999 175.9 47.2999Z" fill="#E4582C"/>
<path d="M47.8016 32.6741C47.8016 32.2659 47.9628 31.9114 48.285 31.6106C48.6288 31.2883 48.8866 31.0735 49.0585 30.9661C49.2518 30.8372 49.3807 30.7405 49.4452 30.676C49.5526 32.6311 50.8739 33.6086 53.4091 33.6086C55.4071 33.6086 57.7382 32.9856 60.4022 31.7395C62.2928 30.8801 63.5604 29.9993 64.205 29.0969C64.4198 28.8176 64.5272 28.592 64.5272 28.4202C64.5272 28.2268 64.495 28.0764 64.4305 27.969L51.0565 24.9719C50.6698 24.886 50.2938 24.7034 49.9286 24.4241C49.2626 23.9514 48.9296 23.5217 48.9296 23.135C48.9296 21.6526 49.9823 20.3098 52.0878 19.1067C54.4081 17.7961 57.5126 16.8079 61.4012 16.1418C62.2821 15.9915 62.9374 15.9055 63.3671 15.884C63.496 15.927 63.6893 15.97 63.9471 16.0129C64.2264 16.0344 64.5057 16.0774 64.785 16.1418C65.451 16.2922 65.7303 16.5715 65.6229 16.9797C65.6229 17.7102 64.2264 18.2903 61.4335 18.72C57.8241 19.2571 55.5682 19.7083 54.6659 20.0735C53.785 20.4387 53.1405 20.8147 52.7323 21.2014C52.3456 21.5881 52.1415 22.05 52.12 22.5872C52.12 22.6946 52.3671 22.8127 52.8612 22.9417C53.3553 23.0706 53.9462 23.2317 54.6337 23.425C55.3212 23.5969 56.2128 23.8333 57.3085 24.134C59.9725 24.8645 63.2382 25.7883 67.1053 26.9055C67.3202 27.3782 67.4276 27.8186 67.4276 28.2268C67.4276 29.3655 66.7616 30.4612 65.4296 31.5139C63.9257 32.6956 61.8417 33.6946 59.1776 34.511C56.9647 35.177 55.203 35.51 53.8925 35.51C52.7968 35.51 51.7548 35.3167 50.7665 34.9299C49.7782 34.5432 49.037 34.1672 48.5428 33.802C48.0487 33.4368 47.8016 33.0608 47.8016 32.6741ZM75.9677 33.2219C77.8583 33.2219 80.705 32.3625 84.5077 30.6438C84.744 30.6438 84.9374 30.7297 85.0878 30.9016C85.2382 31.052 85.3134 31.2346 85.3134 31.4495C84.454 32.9104 82.8104 34.0491 80.3827 34.8655C77.955 35.6819 75.6884 35.8215 73.5829 35.2844C71.1981 34.6614 69.7479 33.3186 69.2323 31.2561C69.1893 30.8479 69.1678 30.3 69.1678 29.6125C69.1678 28.925 69.3397 28.0227 69.6835 26.9055C70.0487 25.7668 70.661 24.6926 71.5204 23.6829C72.3798 22.6731 73.3895 21.8782 74.5497 21.2981C75.7098 20.718 76.9452 20.428 78.2557 20.428C79.5018 20.428 80.8983 20.8577 82.4452 21.717C83.1757 22.1252 83.7557 22.5872 84.1854 23.1028C84.6151 23.6184 84.83 24.1448 84.83 24.6819C84.83 24.8323 84.8192 24.9827 84.7977 25.1331C84.7548 26.4436 84.121 27.2708 82.8964 27.6145C82.3593 27.7649 81.7362 27.8401 81.0272 27.8401L76.3866 27.6467C74.8397 27.6467 73.6581 27.9797 72.8417 28.6458C72.369 29.011 72.036 29.5588 71.8427 30.2893C72.3798 32.2444 73.7548 33.2219 75.9677 33.2219ZM81.704 23.2639C81.2313 22.9202 80.7372 22.6731 80.2216 22.5227C79.7059 22.3723 79.2762 22.2971 78.9325 22.2971C78.5887 22.2971 78.0302 22.4153 77.2567 22.6516C76.4833 22.8665 75.7958 23.1135 75.1942 23.3928C73.7118 24.0803 72.9706 24.8 72.9706 25.552C74.6893 25.7024 75.9784 25.7776 76.8378 25.7776C79.2225 25.7776 80.8339 25.5735 81.6718 25.1653C82.1874 24.9504 82.4452 24.6819 82.4452 24.3596C82.4452 23.9729 82.1981 23.6077 81.704 23.2639ZM77.7401 15.9807C78.0409 15.5725 78.3632 15.3684 78.7069 15.3684C78.9218 15.3684 79.0829 15.4758 79.1903 15.6907C79.2977 15.884 79.3407 16.0774 79.3192 16.2708C79.2977 16.4641 79.244 16.6467 79.1581 16.8186C79.0721 16.9905 78.9325 17.1946 78.7391 17.4309C78.3739 17.8391 77.6327 18.5051 76.5155 19.429L75.5165 18.5266L77.7401 15.9807ZM99.8153 28.4202C99.8153 25.8635 99.6757 23.9836 99.3964 22.7805C99.5682 22.4583 99.3104 22.2971 98.6229 22.2971C97.8925 22.2971 96.9471 22.4797 95.787 22.845C94.6268 23.2102 93.6815 23.5754 92.951 23.9407C91.2108 24.7786 90.244 25.595 90.0507 26.3899V35.1555H87.8915C87.6122 34.425 87.4725 32.3733 87.4725 29.0002C87.4725 25.9924 87.5262 23.7795 87.6337 22.3616C87.7626 20.9436 87.8593 20.1379 87.9237 19.9446C88.4823 19.5793 88.9335 19.3967 89.2772 19.3967C89.8143 19.3967 90.0829 20.0305 90.0829 21.2981C90.0829 21.7922 90.0507 22.2756 89.9862 22.7483C89.9432 23.1995 89.9218 23.511 89.9218 23.6829C93.4022 21.1262 96.0985 19.8479 98.0106 19.8479C100.181 19.8479 101.416 21.5989 101.717 25.1008C101.846 26.3254 101.91 28.0227 101.91 30.1926L101.878 32.7385C101.878 33.6838 101.899 34.5969 101.942 35.4778C101.727 35.6067 101.556 35.6711 101.427 35.6711C101.362 35.6497 101.223 35.6174 101.008 35.5745C100.793 35.5315 100.514 35.4993 100.17 35.4778C99.955 34.6184 99.8368 33.7483 99.8153 32.8674C99.7938 31.9651 99.7831 31.1379 99.7831 30.386L99.8153 28.4202ZM106.647 20.3313C106.927 24.3489 107.163 29.0002 107.356 34.2854C107.227 34.9514 106.712 35.2844 105.809 35.2844C105.573 35.2844 105.326 35.2415 105.068 35.1555C104.832 35.0481 104.682 34.9084 104.617 34.7366V20.3313H106.647ZM103.65 15.9485C103.65 15.1965 104.091 14.8206 104.972 14.8206C105.552 14.8206 106.024 14.9495 106.39 15.2073C106.454 15.4436 106.486 15.6799 106.486 15.9163C106.486 16.1311 106.4 16.3459 106.228 16.5608C106.057 16.7756 105.799 16.8831 105.455 16.8831C105.111 16.8831 104.767 16.8079 104.424 16.6575C104.08 16.4856 103.822 16.2493 103.65 15.9485ZM109.548 29.3547C109.548 26.8196 110.643 24.7786 112.835 23.2317C114.575 22.0071 116.67 21.2659 119.119 21.0081C119.248 21.0081 119.549 21.0081 120.021 21.0081C120.494 21.0081 121.128 21.1477 121.923 21.427C123.684 22.0286 124.888 23.092 125.532 24.6174C125.79 25.219 125.919 25.7346 125.919 26.1643C125.919 26.5725 125.908 26.8625 125.887 27.0344C125.887 29.72 124.866 31.8362 122.825 33.3831C120.934 34.801 118.571 35.51 115.735 35.51C113.694 35.51 112.147 35.0374 111.095 34.092C110.063 33.1467 109.548 31.5676 109.548 29.3547ZM111.771 30.1282C111.771 31.4602 112.126 32.3625 112.835 32.8352C113.372 33.179 114.274 33.3508 115.542 33.3508C116.809 33.3508 117.927 33.2542 118.893 33.0608C119.86 32.8674 120.72 32.5344 121.472 32.0618C123.083 31.0305 123.889 29.4299 123.889 27.26C123.889 25.9709 123.545 24.9182 122.857 24.1018C122.105 23.2209 121.117 22.7805 119.892 22.7805C119.055 22.9309 118.206 23.092 117.347 23.2639C116.509 23.4358 115.714 23.7688 114.962 24.2629C113.329 25.3157 112.266 27.2708 111.771 30.1282ZM143.128 23.7151C142.225 23.0706 141.065 22.7483 139.647 22.7483C138.315 22.7483 137.08 22.9954 135.941 23.4895C133.793 24.3918 132.321 25.552 131.526 26.97C131.182 27.6145 131.011 28.302 131.011 29.0325C131.011 29.1614 131.011 29.5266 131.011 30.1282C131.011 30.7083 131.118 31.5032 131.333 32.5129C131.548 33.5012 131.655 34.511 131.655 35.5422C131.204 35.5637 130.839 35.6174 130.559 35.7034C130.28 35.7893 130.044 35.8323 129.85 35.8323C129.657 35.8323 129.485 35.7463 129.335 35.5745C129.206 35.4026 129.056 35.0696 128.884 34.5754C128.862 34.4465 128.819 34.0813 128.755 33.4797C128.69 32.8782 128.604 32.1477 128.497 31.2883C128.411 30.429 128.304 29.4944 128.175 28.4846C128.067 27.4534 127.96 26.4436 127.852 25.4553C127.616 23.3069 127.433 21.7278 127.305 20.718C127.305 20.2024 127.681 19.9446 128.432 19.9446C128.884 19.9446 129.238 20.1379 129.496 20.5247C129.754 20.8899 129.958 21.3196 130.108 21.8137C130.259 22.2864 130.355 22.759 130.398 23.2317C130.463 23.7043 130.516 24.0374 130.559 24.2307C133.395 21.6956 136.919 20.428 141.13 20.428C141.602 20.428 142.097 20.4387 142.612 20.4602C142.741 20.4387 142.902 20.428 143.096 20.428C143.289 20.428 143.482 20.5569 143.676 20.8147C143.912 21.1155 144.03 21.4807 144.03 21.9104C144.03 22.9846 143.729 23.5862 143.128 23.7151Z" fill="white"/>
</svg>
