<svg width="390" height="390" viewBox="0 0 390 390" fill="none" xmlns="http://www.w3.org/2000/svg">
<path d="M389.5 195C389.5 206.4 388.5 217.5 386.7 228.3C385.5 235.6 383.8 242.7 381.7 249.7C378.2 261.6 373.7 272.9 368.1 283.7C366.5 286.9 364.8 290 363 293.1C342.2 328.6 310.5 356.9 272.5 373.5C272.3 373.6 272.1 373.7 272 373.7C270 374.6 268 375.4 266 376.2C259.2 378.9 252.2 381.2 245 383.1C241.7 384 238.4 384.7 235.1 385.4C233.4 385.8 231.7 386.1 230 386.4C219.7 388.3 209.2 389.3 198.4 389.5C198 389.5 197.7 389.5 197.3 389.5C196.6 389.5 195.8 389.5 195.1 389.5C187.8 389.5 180.7 389.1 173.6 388.3C170 387.9 166.5 387.4 163 386.8C161.9 386.6 160.8 386.4 159.7 386.2C159.4 386.1 159 386.1 158.7 386C150.3 384.4 142.1 382.3 134.2 379.7C126.1 377 118.2 373.8 110.6 370.2C89.3 359.9 70.1 345.8 54 328.8C39.8 313.8 27.9 296.5 19 277.6C15.2 269.4 11.9 261 9.20001 252.3C9.20001 252.2 9.19998 252.2 9.09998 252.1C7.89998 248.3 6.9 244.5 6 240.6C2.5 226 0.599976 210.7 0.599976 194.9C0.599976 87.5 87.7 0.399963 195.1 0.399963C302.5 0.399963 389.5 87.6 389.5 195Z" fill="#BFE3EE"/>
<path d="M306.8 83C306.8 83 293.1 52.3 264.9 73.6C245.4 88.3 255.4 102.1 241.1 102.1C226.8 102.1 212.6 117 213.5 132.3C214.5 147.6 214.5 159.5 205.9 170.6C197.3 181.7 189.7 276.1 267.7 242C267.7 242 312.4 229.5 269.6 145.4C269.6 145.4 267.2 109.2 278.4 107.1C280.2 102.8 282.6 97.9 286 92.9C292.4 83.3 298 83.1 306.8 83Z" fill="#151F1D"/>
<path d="M286.4 174.5L282.8 224.6C282.8 224.6 303.9 242.7 333.5 225.5L333.1 187.9C333.2 188 297.8 154.7 286.4 174.5Z" fill="#F7B08E"/>
<path d="M352.8 144.2C352.8 144.2 351.4 120.7 346.8 114C329.2 88.7 270.8 84.2 265.8 136.7C265.8 136.7 264.8 131.9 264.2 141C264.2 141 254.9 133.6 254.9 146.3C254.9 157.8 256.5 162.7 265.7 170.9C265.7 170.9 281 204.9 317.5 203.1C331.5 202.4 342.3 188.2 347.3 174.7C352.9 159.7 352.8 144.2 352.8 144.2Z" fill="#F9C7A6"/>
<path d="M281.1 169.4C285.85 169.4 289.7 165.55 289.7 160.8C289.7 156.05 285.85 152.2 281.1 152.2C276.35 152.2 272.5 156.05 272.5 160.8C272.5 165.55 276.35 169.4 281.1 169.4Z" fill="#F7B08E"/>
<path d="M337.8 169.4C342.55 169.4 346.4 165.55 346.4 160.8C346.4 156.05 342.55 152.2 337.8 152.2C333.05 152.2 329.2 156.05 329.2 160.8C329.2 165.55 333.05 169.4 337.8 169.4Z" fill="#F7B08E"/>
<path d="M298 149C298.884 149 299.6 148.284 299.6 147.4C299.6 146.516 298.884 145.8 298 145.8C297.116 145.8 296.4 146.516 296.4 147.4C296.4 148.284 297.116 149 298 149Z" fill="#192624"/>
<path d="M326.4 148.1C327.284 148.1 328 147.384 328 146.5C328 145.616 327.284 144.9 326.4 144.9C325.516 144.9 324.8 145.616 324.8 146.5C324.8 147.384 325.516 148.1 326.4 148.1Z" fill="#192624"/>
<path d="M308.2 161.8C308.2 161.8 315.1 164.2 318.2 158.9C318.2 158.9 316 167.9 308.2 161.8Z" fill="#F7B08E"/>
<path d="M300.5 130.8C300.5 130.8 291.7 126.2 285.8 133.7" stroke="#192624" stroke-width="0.5" stroke-miterlimit="10" stroke-linecap="round"/>
<path d="M324.7 131.8C324.7 131.8 333.5 127.2 339.4 134.7" stroke="#192624" stroke-width="0.5" stroke-miterlimit="10" stroke-linecap="round"/>
<path d="M262 100.8C264.8 102.9 265.4 103.3 268.1 105.4C270.6 102.6 274.3 98.9 279.5 95.4C283.7 92.5 287.3 90.8 290.1 89.5C294.3 87.5 300.2 85.2 307.7 83.4C304.8 79.6 302.8 75.6 299 72.1C294.2 72.9 287.1 74.7 279.6 79.2C268.6 85.7 265.3 94.7 262 100.8Z" fill="#E4582C"/>
<path d="M262 172.2C266.308 172.2 269.8 168.708 269.8 164.4C269.8 160.092 266.308 156.6 262 156.6C257.692 156.6 254.2 160.092 254.2 164.4C254.2 168.708 257.692 172.2 262 172.2Z" fill="#E4582C"/>
<path d="M317.6 177.7C316.9 178.3 314.2 180.5 310.6 180C306.5 179.4 304.1 175.8 303.7 175" stroke="#192624" stroke-width="0.25" stroke-miterlimit="10" stroke-linecap="round"/>
<path d="M276 122.2C276 122.2 278.2 110.5 287.6 115.1C293.5 118 329.3 136.7 342.7 121.6C342.7 121.6 344.6 119.7 345.3 118.2C346 116.8 349.1 118.9 349.6 121.1C349.6 121.1 351.4 119.5 350.5 116.9C349.6 114.2 342.2 112.1 342.2 112.1C342.2 112.1 334.6 123.1 316.6 118.4C298.7 113.7 277.2 101.3 276 122.2Z" fill="#F7B08E"/>
<path d="M346.5 98.2C332.9 82.6 332.1 83.5 303.2 79.7C291.2 78.1 266.9 89.8 262 100.8C243.6 141.8 256.5 158.9 256.5 158.9C256.5 158.9 255 159.2 255.1 146.3C255.2 133.4 264.4 141 264.4 141C264.4 141 267.7 145.8 270.3 147.4C275 150.4 274.9 132 276.4 120.2C277.9 108.4 289.8 114.1 289.8 114.1C327.9 133.2 341.2 122.2 344.7 116.6C345.3 115.7 346.5 115.4 347.3 116.1C348.5 117 349.4 118.9 350 122.3C352.3 136.7 345.5 151 350 149.4C354.5 147.8 351.8 139.2 355.2 140.7C355.2 140.7 359.8 139.9 360.1 148.1C360.1 148.1 364.8 119.3 346.5 98.2Z" fill="#192624"/>
<path d="M229.9 386.4C219.6 388.3 209.1 389.3 198.3 389.5C198.7 379.8 199.3 369.7 200.2 359.6C200.5 356.6 200.8 353.5 201.1 350.5C201.3 348.6 201.5 346.7 201.8 344.9C202.3 341.1 202.8 337.3 203.4 333.5C204.3 327.3 205.4 321.2 206.7 315.2C207.4 311.8 208.2 308.4 209 305C209.4 303.2 209.9 301.4 210.4 299.6C211.2 296.4 212.2 293.2 213.1 290.1C216.1 280.2 219.7 270.9 224 262.2C224.9 260.5 225.7 258.8 226.6 257.1C227.1 256.1 227.7 255.1 228.2 254.2C229.1 252.6 230.1 251 231 249.4C231.1 249.3 231.2 249.1 231.2 249C231.8 248.1 232.3 247.2 232.9 246.4C233.4 245.6 233.9 244.9 234.5 244.2C244.1 230.7 256 220.1 270.9 214.1C274.2 212.7 277.6 211.6 281.2 210.7C281.4 210.7 281.5 210.6 281.6 210.6C282.5 210.4 283.2 210.4 283.9 210.4C285.4 210.6 286.5 211.2 287.9 212.1C290.9 213.9 295.4 216.3 307.5 216.3C332.5 216.3 329 211.5 333.4 212.1C334.2 212.2 335.2 212.5 336.6 212.9C336.7 212.9 336.8 213 336.8 213C355.8 219.5 370.4 232.7 381.7 249.9C378.2 261.8 373.7 273.1 368.1 283.9C366.5 287.1 364.8 290.2 363 293.3C342.2 328.8 310.5 357.1 272.5 373.7C272.5 374 272.5 374.3 272.4 374.6C272.2 374.4 272.1 374.1 271.9 373.9C269.9 374.8 267.9 375.6 265.9 376.4C259.1 379.1 252.1 381.4 244.9 383.3C241.6 384.2 238.3 384.9 235 385.6C233.4 385.8 231.6 386.1 229.9 386.4Z" fill="#F2B60D"/>
<path d="M386.7 228.3C385.5 235.6 383.8 242.7 381.7 249.7C378.2 261.6 373.7 272.9 368.1 283.7C366.5 286.9 364.8 290 363 293.1C355 251.7 345.2 219.4 333.4 213C333.3 212.9 333.2 212.9 333.1 212.9C333.1 212.9 333.2 212.9 333.3 212.9C333.8 212.9 335 212.8 336.7 212.9C345.1 213 366.2 214.9 386.7 228.3Z" fill="#F2B60D"/>
<path d="M298 313.4C287.7 322 279.6 337 273.6 352.8C271.6 358.1 269.7 363.4 268.1 368.6C267.8 369.7 267.4 370.8 267.1 372C266.7 373.4 266.3 374.8 266 376.1C259.2 378.8 252.2 381.1 245 383C241.7 383.9 238.4 384.6 235.1 385.3C233.4 385.7 231.7 386 230 386.3C219.7 388.2 209.2 389.2 198.4 389.4C198 389.4 197.7 389.4 197.3 389.4C196.6 389.4 195.8 389.4 195.1 389.4C187.8 389.4 180.7 389 173.6 388.2C173.6 378.4 173.9 367.8 174.6 356.9C174.7 354.6 174.9 352.2 175.1 349.8C175.3 347.1 175.5 344.3 175.8 341.6C176.2 337.5 176.6 333.5 177.1 329.4C178 321.8 179.2 314.1 180.7 306.6C180.9 305.3 181.2 304 181.5 302.7C183.7 292.2 186.4 282.1 189.8 272.5C191.1 268.9 192.5 265.4 193.9 261.9C194.4 260.7 194.9 259.6 195.5 258.5C198.1 252.9 202.2 246.8 207.4 241C207.8 240.6 208.1 240.2 208.5 239.8C209.5 238.7 210.5 237.6 211.6 236.5C213.3 234.8 215 233.1 216.9 231.5C217.1 231.4 217.2 231.2 217.4 231.1C218.7 229.9 220.2 228.8 221.6 227.6C235.6 216.6 253 208.3 270.1 207.9C273.6 207.8 277.2 208.1 280.7 208.8C281.2 208.9 281.6 209.3 281.9 210.1C282.6 211.6 283.2 214.4 283.6 218.1C283.8 220.2 284 222.6 284.2 225.3C284.2 225.7 284.2 226.1 284.3 226.5C285.6 250.3 286.2 291.5 298 313.4Z" fill="#F2B60D"/>
<path d="M272.5 373.5C272.9 366.3 273.3 359.5 273.6 352.9C276.2 297.4 275.3 261.3 273.7 239C272.8 226.7 271.7 218.6 270.9 213.9C270.3 210.2 269.8 208.5 269.8 208.3" stroke="#2B315B" stroke-width="2" stroke-miterlimit="10" stroke-linecap="round"/>
<path d="M59.2 173.4L55.4 227.3C55.4 227.3 78 246.7 109.9 228.2L109.5 187.8C109.4 187.8 71.4 152.1 59.2 173.4Z" fill="#F7B08E"/>
<path d="M197.2 389.5C196.5 389.5 195.7 389.5 195 389.5C187.7 389.5 180.6 389.1 173.5 388.3C169.9 387.9 166.4 387.4 162.9 386.8C161.8 386.6 160.7 386.4 159.6 386.2C159.3 386.1 158.9 386.1 158.6 386C150.2 384.4 142 382.3 134.1 379.7C126 377 118.1 373.8 110.5 370.2C89.2 359.9 70 345.8 53.9 328.8C39.7 313.8 27.8 296.5 18.9 277.6C15.1 269.4 11.8 261 9.09998 252.3C8.89998 252.5 8.7 252.7 8.5 252.9C8.7 252.6 8.89998 252.4 9.09998 252.1C19.3 238.3 31.7 227.8 46.9 221.9C49.4 220.9 51.9 220.1 54.5 219.4C55 219.3 55.5 219.2 56 219.1C62.2 218.4 61.8 226.1 82.8 226.1C107.9 226.1 106.3 221.1 109.8 221C110.7 221 111.9 221.3 114 222.1C114.2 222.2 114.4 222.3 114.7 222.3C126.4 226.8 136.6 233.9 145.4 243C147.4 245 149.2 247.1 151 249.3C151.4 249.8 151.9 250.3 152.3 250.9C153.6 252.6 154.9 254.3 156.2 256.1C156.6 256.7 157.1 257.4 157.5 258C159.4 260.7 161.1 263.5 162.8 266.3C169.3 277.3 174.7 289.7 179.3 303C179.7 304.2 180.1 305.5 180.5 306.7C183.3 315.2 185.7 324.1 187.8 333.1C188.7 337 189.6 341 190.4 345C190.7 346.3 190.9 347.6 191.2 349C191.9 352.8 192.6 356.7 193.3 360.6C194.9 370.2 196.2 379.9 197.2 389.5Z" fill="#1D3C77"/>
<path d="M130.5 140.8C130.5 140.8 129 115.5 124 108.3C105 81.0999 42.3 76.1999 37 132.7C37 132.7 36 127.5 35.3 137.3C35.3 137.3 25.3 129.3 25.3 143C25.3 155.4 27.1 160.7 36.9 169.5C36.9 169.5 53.3 206.1 92.6 204.1C107.6 203.4 119.3 188.1 124.7 173.6C130.6 157.5 130.5 140.8 130.5 140.8Z" fill="#F9C7A6"/>
<path d="M128.6 139.7C128.6 139.7 133.6 134.4 136.7 138.6C139.9 142.8 139 162.9 128.4 167.4C117.8 172 128.6 139.7 128.6 139.7Z" fill="#F9C7A6"/>
<path d="M53.4 167.9C58.5363 167.9 62.7 163.736 62.7 158.6C62.7 153.464 58.5363 149.3 53.4 149.3C48.2638 149.3 44.1 153.464 44.1 158.6C44.1 163.736 48.2638 167.9 53.4 167.9Z" fill="#F7B08E"/>
<path d="M114.4 167.9C119.536 167.9 123.7 163.736 123.7 158.6C123.7 153.464 119.536 149.3 114.4 149.3C109.264 149.3 105.1 153.464 105.1 158.6C105.1 163.736 109.264 167.9 114.4 167.9Z" fill="#F7B08E"/>
<path d="M69.2 145.9C70.1389 145.9 70.9 145.139 70.9 144.2C70.9 143.261 70.1389 142.5 69.2 142.5C68.2611 142.5 67.5 143.261 67.5 144.2C67.5 145.139 68.2611 145.9 69.2 145.9Z" fill="#192624"/>
<path d="M104.5 145C105.439 145 106.2 144.239 106.2 143.3C106.2 142.361 105.439 141.6 104.5 141.6C103.561 141.6 102.8 142.361 102.8 143.3C102.8 144.239 103.561 145 104.5 145Z" fill="#192624"/>
<path d="M82.6 159.7C82.6 159.7 90.1 162.3 93.4 156.6C93.3 156.6 91 166.3 82.6 159.7Z" fill="#F7B08E"/>
<path d="M74.2 126.4C74.2 126.4 64.8 121.5 58.4 129.5" stroke="#192624" stroke-width="0.5" stroke-miterlimit="10" stroke-linecap="round"/>
<path d="M100.3 127.5C100.3 127.5 109.7 122.6 116.1 130.6" stroke="#192624" stroke-width="0.5" stroke-miterlimit="10" stroke-linecap="round"/>
<path d="M53.9 328.9C39.7 313.9 27.8 296.6 18.9 277.7C15.1 269.5 11.8 261.1 9.09998 252.4C19.8 242.9 31 234.6 39.7 228.8C48.1 223.1 54 219.7 54.5 219.4C54.5 220.3 57.5 274.8 53.9 328.9Z" fill="#1D3C77"/>
<path d="M46.8 221.9C44.4 223.1 42 225.4 39.6 228.8C32.8 238.2 25.7 255.6 18.9 277.7C15.1 269.5 11.8 261.1 9.09998 252.4C8.89998 252.6 8.7 252.8 8.5 253C8.7 252.7 8.89998 252.5 9.09998 252.2C7.89998 248.4 6.9 244.6 6 240.7C29.1 225.4 46.8 221.9 46.8 221.9Z" fill="#1D3C77"/>
<path d="M235.1 385.4C233.4 385.8 231.7 386.1 230 386.4C219.7 388.3 209.2 389.3 198.4 389.5C198 389.5 197.7 389.5 197.3 389.5C196.6 389.5 195.8 389.5 195.1 389.5C187.8 389.5 180.7 389.1 173.6 388.3C170 387.9 166.5 387.4 163 386.8C161.9 386.6 160.8 386.4 159.7 386.2C159.5 385.1 159.4 384 159.2 383C157.9 374.4 156.5 365.9 155.1 357.5C154.3 352.8 153.6 348.3 152.8 343.7C152.4 341.6 152.1 339.5 151.7 337.5C146.5 308.4 140.7 281.7 134.4 261.2C128.2 241 121.6 226.9 114.7 222.4C114.5 222.2 114.3 222.1 114 222C114 222 129.7 224.9 149.4 236.9C151.6 238.2 153.9 239.7 156.2 241.3C156.4 241.4 156.5 241.5 156.7 241.7C159.1 243.3 161.5 245.1 163.9 247C164.3 247.3 164.6 247.6 165 247.8C170.2 252 175.5 256.8 180.7 262.4C183.7 265.6 186.7 269.1 189.6 272.9C196.6 282 203.2 292.6 208.9 305.1C209.9 307.3 210.9 309.6 211.9 312C213.5 316 215.1 320.2 216.8 324.6C218.9 330.3 220.9 336.3 222.9 342.7C223.5 344.7 224.2 346.7 224.8 348.8C225.7 351.7 226.6 354.6 227.4 357.6C230.1 366.3 232.6 375.7 235.1 385.4Z" fill="#1D3C77"/>
<path d="M151.8 317.9C153.1 323.6 154.4 329.9 155.6 336.7C155.8 337.9 156 339.2 156.3 340.5C157.1 345.3 157.9 350.3 158.7 355.5C159.6 361.3 160.4 367.2 161.2 373.3C161.8 377.8 162.4 382.3 162.9 386.9" stroke="#2B315B" stroke-width="2" stroke-miterlimit="10"/>
<path d="M89.7 177.2C89 177.8 86.2 180.1 82.5 179.5C78.3 178.9 75.9 175.2 75.4 174.4" stroke="#192624" stroke-width="0.25" stroke-miterlimit="10" stroke-linecap="round"/>
<path d="M67.9 156.2C74.8588 156.2 80.5 150.559 80.5 143.6C80.5 136.641 74.8588 131 67.9 131C60.9412 131 55.3 136.641 55.3 143.6C55.3 150.559 60.9412 156.2 67.9 156.2Z" stroke="#D64420" stroke-width="0.5" stroke-miterlimit="10"/>
<path d="M103.8 155.5C110.759 155.5 116.4 149.859 116.4 142.9C116.4 135.941 110.759 130.3 103.8 130.3C96.8412 130.3 91.2 135.941 91.2 142.9C91.2 149.859 96.8412 155.5 103.8 155.5Z" stroke="#D64420" stroke-width="0.5" stroke-miterlimit="10"/>
<path d="M80.5 143.6C80.5 143.6 85.9 138.1 91.2 143" stroke="#D64420" stroke-width="0.5" stroke-miterlimit="10"/>
<path d="M133.2 99.2999C126 88.5999 109.8 85.7999 82.5 82.2999C47.5 77.8999 34.8 101.9 34.8 101.9C24.1 104.7 28.2999 118.9 32.5999 135.6C34.7999 144.3 37.2 153.6 37.5 162.4C37.4 165.5 37.5999 168.6 38.0999 171.5C40.0999 183 46.7 192.7 57.3 198.9C65.7 203.9 76.6 206.6 89.7 206.4C98 206.3 104.4 204.4 109.5 201.5C122.8 193.7 126.4 178.5 127.3 167.7C127.4 166.4 127.5 165.2 127.5 164C127.5 163.4 127.5 162.9 127.5 162.4C127.6 160.1 128.5 153.4 129.1 150.8C129.4 149.5 129.8 148 130.1 146.4C130.7 143.7 131.3 140.6 131.8 137.3C132 136.4 132.1 135.6 132.2 134.7C133.1 128.5 133.9 121.7 134.1 115.4C134.2 113.6 134.3 111.9 134.7 110.1C135.7 105.9 134.4 101.1 133.2 99.2999ZM125.2 151.8C125 153.3 124.7 154.9 124.3 156.5C124.3 156.5 124.3 156.5 124.3 156.6C124.1 157.4 123.9 158.1 123.7 158.8V158.9C122.8 161.8 121.9 164.1 121.9 164.1C121.9 164.1 121.9 164.1 121.9 164.2C121.2 166 120.6 167.8 119.9 169.8C117.9 175.5 111.3 179.9 103.7 182.9C96.5 185.7 88.4999 187.3 82.5999 187.5C75.9999 187.8 66.6 183.5 58.8 178.5C52.8 174.7 47.7999 170.6 45.5999 167.9C40.6999 161.7 42.2 145.4 42.2 145C42.4 142.9 42.6999 140.8 43.0999 138.9C46.3999 119.9 54.6999 110.5 64.0999 114.8C80.5999 122.2 99.9 122.1 109.8 121.2C114.2 120.8 124.1 114.4 125.4 119C126.1 121.6 127.7 129.7 127.5 136.1C127.5 136.8 127.4 137.5 127.3 138.2C126.7 144.1 125.7 147.8 125.2 151.8Z" fill="#2B315B"/>
<path d="M116.4 142.9C116.4 142.9 123.2 137.9 132 137.4" stroke="#D64420" stroke-width="0.5" stroke-miterlimit="10"/>
<path d="M35.3 137.3C35.3 137.3 46.3 138.8 55.2 143.3" stroke="#D64420" stroke-width="0.5" stroke-miterlimit="10"/>
<path d="M134.5 368.8C122.7 370.1 111.3 364 105.7 353.5C100.1 342.9 101.6 329.9 109.3 320.9C109.3 320.9 129.7 312.5 128.1 300.3C125.9 283.8 124.4 269.5 132.3 263.2C137 259.4 142.5 248.8 144.4 245C155.6 222.5 175.4 220.7 195 220.7C201.2 220.7 210.8 220.9 220.5 227.4C234.1 236.5 237.2 251.7 237.2 251.7C239.6 256.6 242.1 263.2 243.6 271.2C246.1 284.9 244.2 296.4 242.5 303.2C253.1 311.8 258.4 324 256.2 335.2C254.6 343.4 248.7 351.5 240.5 355.3C223.1 363.3 208.7 345.7 178.8 349.4C171.9 350.3 166.3 352 162.8 353.3C153.3 358.5 143.9 363.6 134.5 368.8Z" fill="#192624"/>
<path d="M171.5 308.6L168.3 353.3C168.3 353.3 187.1 369.4 213.5 354.1L213.2 320.5C213.2 320.5 181.6 290.8 171.5 308.6Z" fill="#F7B08E"/>
<path d="M230.7 281.4C230.7 281.4 229.5 260.4 225.3 254.4C209.6 231.8 157.5 227.8 153.1 274.7C153.1 274.7 152.2 270.4 151.7 278.6C151.7 278.6 143.4 272 143.4 283.3C143.4 293.6 144.9 298 153.1 305.3C153.1 305.3 166.7 335.6 199.3 334C211.8 333.4 221.4 320.7 225.9 308.7C230.7 295.3 230.7 281.4 230.7 281.4Z" fill="#F9C7A6"/>
<path d="M229.1 280.6C229.1 280.6 233.2 276.2 235.8 279.7C238.4 283.2 237.7 299.9 228.9 303.6C220.1 307.3 229.1 280.6 229.1 280.6Z" fill="#F9C7A6"/>
<path d="M166.7 304C170.953 304 174.4 300.553 174.4 296.3C174.4 292.047 170.953 288.6 166.7 288.6C162.447 288.6 159 292.047 159 296.3C159 300.553 162.447 304 166.7 304Z" fill="#F7B08E"/>
<path d="M217.3 304C221.553 304 225 300.553 225 296.3C225 292.047 221.553 288.6 217.3 288.6C213.047 288.6 209.6 292.047 209.6 296.3C209.6 300.553 213.047 304 217.3 304Z" fill="#F7B08E"/>
<path d="M181.8 285.7C182.573 285.7 183.2 285.073 183.2 284.3C183.2 283.527 182.573 282.9 181.8 282.9C181.027 282.9 180.4 283.527 180.4 284.3C180.4 285.073 181.027 285.7 181.8 285.7Z" fill="#192624"/>
<path d="M207.1 284.9C207.873 284.9 208.5 284.273 208.5 283.5C208.5 282.727 207.873 282.1 207.1 282.1C206.327 282.1 205.7 282.727 205.7 283.5C205.7 284.273 206.327 284.9 207.1 284.9Z" fill="#192624"/>
<path d="M191 296C191 296 196.4 299.7 200.3 295.9C200.3 295.8 196.3 303.1 191 296Z" fill="#F7B08E"/>
<path d="M184 269.5C184 269.5 176.2 265.4 170.9 272.1" stroke="#192624" stroke-width="0.5" stroke-miterlimit="10" stroke-linecap="round"/>
<path d="M205.7 270.4C205.7 270.4 213.5 266.3 218.8 273" stroke="#192624" stroke-width="0.5" stroke-miterlimit="10" stroke-linecap="round"/>
<path d="M225 240.5C212.9 226.6 212.2 227.4 186.4 224C175.7 222.6 155.9 238.2 151.5 248.1C135.1 284.7 144.7 294.7 144.7 294.7C144.7 294.7 143.4 295 143.4 283.4C143.4 271.8 151.7 278.7 151.7 278.7C151.7 278.7 154.9 282.2 157.6 282.2C165.1 282.2 163.4 278.1 162.6 262.5L228.1 262.1C230.1 274.9 224.7 288.9 228.1 286.3C229.6 285.2 229.1 279 232.8 278.5C232.8 278.5 236.9 277.8 237.2 285.1C237.2 285 241.4 259.2 225 240.5Z" fill="#192624"/>
<path d="M244.9 383C241.6 383.9 238.3 384.6 235 385.3C233.3 385.7 231.6 386 229.9 386.3C219.6 388.2 209.1 389.2 198.3 389.4C197.9 389.4 197.6 389.4 197.2 389.4C196.5 389.4 195.7 389.4 195 389.4C187.7 389.4 180.6 389 173.5 388.2C169.9 387.8 166.4 387.3 162.9 386.7C161.8 386.5 160.7 386.3 159.6 386.1C159.3 386 158.9 386 158.6 385.9C150.2 384.3 142 382.2 134.1 379.6C135.7 374.8 137.3 370.3 139.1 366.1C143.1 356.5 147.6 348.8 152.8 343.5C154 342.3 155.2 341.2 156.4 340.3C157.9 339.2 159.4 338.3 160.9 337.6C162.5 336.9 164.6 337.3 167.1 338.2C167.8 338.4 168.5 338.7 169.3 339C171.2 339.8 173.3 340.7 175.6 341.5C179.7 343.1 184.6 344.5 190.4 344.8C191.2 344.8 192 344.9 192.8 344.9C196.5 344.9 199.5 344.7 201.8 344.5C211.8 343.5 210.5 340.8 213.4 341.4C213.6 341.4 213.9 341.5 214.2 341.6C214.6 341.7 215.2 341.9 215.8 342.2C219 343.5 222 345.5 224.9 348.3C227.5 350.7 229.9 353.7 232.3 357.2C236.9 364.3 241.1 373.1 244.9 383Z" fill="#E4582C"/>
<path d="M190.5 237.5C233 237.8 234.7 271.1 234.7 271.1C234.7 271.1 247.8 226.7 190.1 226.6C144.8 226.6 150.2 270.2 150.2 270.2C150.2 270.2 156.8 237.2 190.5 237.5Z" fill="#F2B60D"/>
<path d="M181.6 308.6C181.6 308.6 182.7 318.3 193.9 318.2C205.1 318 202.5 312.7 195.3 311.6C188.2 310.4 180.9 301.7 181.6 308.6Z" fill="#F7B08E" stroke="#1E1E1C" stroke-width="0.25" stroke-miterlimit="10"/>
<path d="M184 312.1C184 312.1 188.3 311.6 189.8 312.9C189.8 312.9 192.8 312.4 195 316.7C195 316.7 187.3 317.4 184 312.1Z" fill="#F39874"/>
<path d="M167.2 351.8C165.7 357.8 163.2 365.2 161.2 373.2C160.4 376.4 159.7 379.7 159.1 383C159.1 383.1 159 383.3 159 383.4C158.9 384.3 158.7 385.1 158.6 386C150.2 384.4 142 382.3 134.1 379.7C126 377 118.1 373.8 110.5 370.2C112 368.1 113.6 366 115.2 364C126.1 350.5 138.3 340.6 151.6 337.4C152.9 337.1 154.3 336.8 155.7 336.6C157.6 336.3 159.5 336.2 161.5 336.2C164.2 336.2 166.1 337 167.2 338.2C169.3 340.9 168.8 345.6 167.2 351.8Z" fill="#E4582C"/>
<path d="M272 373.7C270 374.6 268 375.4 266 376.2C259.2 378.9 252.2 381.2 245 383.1C241.7 384 238.4 384.7 235.1 385.4C233.4 385.8 231.7 386.1 230 386.4C225.5 370.8 220.3 361.1 216.8 354.8C215.4 352.3 214.3 350.3 213.5 348.7C212.4 346.2 212.2 344.7 213.5 343.4C213.7 343.2 213.9 343 214.1 342.9C214.4 342.7 214.3 342.2 214.3 341.9C214.3 341.7 214.4 341.6 214.6 341.7C216.4 341.8 219.4 342 223.1 342.6C229.5 343.7 238.2 346 247.3 351.1C254.4 355.1 261.7 360.7 268.3 368.8C269.4 370.2 270.7 371.9 272 373.7Z" fill="#E4582C"/>
</svg>
