<svg id="Calque_1" data-name="Calque 1" xmlns="http://www.w3.org/2000/svg" viewBox="0 0 474.65 283.69"><defs><style>.cls-1{fill:#31cfff;}.cls-2{fill:none;stroke:#ffdabb;stroke-miterlimit:10;stroke-width:2.12px;stroke-dasharray:7.21 7.21;}.cls-3{fill:#fff;}.cls-4{fill:#ffdabb;}</style></defs><title>Logo_jump</title><circle class="cls-1" cx="123.76" cy="160.89" r="117.95"/><path d="M415.6,346.66a5,5,0,0,0,.19-1.53,3.72,3.72,0,0,0-.81-2.49,12.48,12.48,0,0,0-2.53-2.1,11.37,11.37,0,0,1-2.06-1.82,1.92,1.92,0,0,1-.33-1.82,2.37,2.37,0,0,1,1.43-1.82,10.13,10.13,0,0,1,3.63-.48h27.15a6,6,0,0,1,3.11.67,2,2,0,0,1,1.1,1.72,3.73,3.73,0,0,1-.29,1.24,3.79,3.79,0,0,1-.81,1.19,4.49,4.49,0,0,1-1,.77,2.91,2.91,0,0,0-.62.43,9.81,9.81,0,0,0-2.49,1.91,8.55,8.55,0,0,0-1.63,3.25l-9.37,33.08q-2.87,10.14-9.75,15.06t-17.88,4.92a32.17,32.17,0,0,1-12.48-2.15,17.39,17.39,0,0,1-7.7-5.78,13.41,13.41,0,0,1-2.58-7.94,14.87,14.87,0,0,1,.57-4.11,11.77,11.77,0,0,1,4.25-6.5,11.16,11.16,0,0,1,6.74-2.2,8.36,8.36,0,0,1,6.6,2.58,9.56,9.56,0,0,1,2.29,6.6,14.59,14.59,0,0,1-.57,4,9.72,9.72,0,0,1-4.3,5.93,6.53,6.53,0,0,0,3.54,1,4.4,4.4,0,0,0,3.54-2,17.3,17.3,0,0,0,2.58-5.64Z" transform="translate(-203.68 -140.28)"/><path d="M498,385.1a5.18,5.18,0,0,0-.19,1.15,1.54,1.54,0,0,0,.33,1.05,1.14,1.14,0,0,0,.91.38,2.45,2.45,0,0,0,2-1q.81-1,1.1-1,.48,0,.81.62a3.1,3.1,0,0,1,.33,1.48,8.2,8.2,0,0,1-1.91,5.31,15,15,0,0,1-5.64,4.35,18.75,18.75,0,0,1-8.13,1.72q-5.64,0-9-2.29a10.19,10.19,0,0,1-4.3-6,24,24,0,0,1-7.6,5.78,19.65,19.65,0,0,1-8.46,2,18.61,18.61,0,0,1-11.23-3.3,10.75,10.75,0,0,1-4.54-9.23,17.51,17.51,0,0,1,1-5.55l6.12-20a4.7,4.7,0,0,0,.29-1.43,2.68,2.68,0,0,0-.48-1.67,6.55,6.55,0,0,0-1.43-1.29,6.49,6.49,0,0,1-1.34-1.34,1.76,1.76,0,0,1-.09-1.53q.57-2.2,6-3.87a38.56,38.56,0,0,1,11.38-1.67q5.54,0,8.13,2.1a7,7,0,0,1,2.58,5.74,13.22,13.22,0,0,1-.67,4.21l-6,19.89a5.89,5.89,0,0,0-.38,2,2.52,2.52,0,0,0,.76,2,2.93,2.93,0,0,0,2,.67,4.21,4.21,0,0,0,3-1.05,11.25,11.25,0,0,0,2.3-3.54l5.83-19.22a4.75,4.75,0,0,0,.29-1.43,2.68,2.68,0,0,0-.48-1.67,7.53,7.53,0,0,0-1.34-1.29,6.49,6.49,0,0,1-1.34-1.34,1.77,1.77,0,0,1-.1-1.53q.48-2.2,5.93-3.87a38.56,38.56,0,0,1,11.38-1.67q5.54,0,8.17,2.1a6.85,6.85,0,0,1,2.63,5.64,15,15,0,0,1-.76,4.3Z" transform="translate(-203.68 -140.28)"/><path d="M600.51,385.1a2.64,2.64,0,0,0-.19,1.15,1.54,1.54,0,0,0,.33,1.05,1.14,1.14,0,0,0,.91.38,2.45,2.45,0,0,0,2-1q.81-1,1.1-1c.32,0,.57.21.76.62a3.51,3.51,0,0,1,.29,1.48,8.57,8.57,0,0,1-1.82,5.4,13.74,13.74,0,0,1-5.59,4.3,21.28,21.28,0,0,1-8.84,1.67q-6.31,0-10-2.92a9.65,9.65,0,0,1-3.82-7.79,22.06,22.06,0,0,1,1.72-7.94l5.26-13.77a5.93,5.93,0,0,0,.48-2,2.48,2.48,0,0,0-.81-2,2.86,2.86,0,0,0-2-.72,5.3,5.3,0,0,0-3.35,1.43,12,12,0,0,0-3.06,4.49l-5.26,17.11a2.64,2.64,0,0,0-.19,1.15,1.54,1.54,0,0,0,.33,1.05,1.14,1.14,0,0,0,.91.38,2.45,2.45,0,0,0,2-1q.81-1,1.1-1c.32,0,.57.21.76.62a3.51,3.51,0,0,1,.29,1.48,8.57,8.57,0,0,1-1.82,5.4,13.74,13.74,0,0,1-5.59,4.3,21.27,21.27,0,0,1-8.84,1.67q-6.31,0-10-2.92a9.64,9.64,0,0,1-3.82-7.79,22.05,22.05,0,0,1,1.72-7.94l5.26-13.77a5.93,5.93,0,0,0,.48-2,2.48,2.48,0,0,0-.81-2,2.86,2.86,0,0,0-2-.72,5.4,5.4,0,0,0-3.35,1.39,10.14,10.14,0,0,0-2.87,4.45l-6.31,20.46a5.9,5.9,0,0,0-.38,2,3.29,3.29,0,0,0,.48,1.86,7.85,7.85,0,0,0,1.34,1.48,4.63,4.63,0,0,1,1,1.05,1.41,1.41,0,0,1,.1,1.15,2.86,2.86,0,0,1-1.82,1.82,13,13,0,0,1-4.49.57h-21.8a6.13,6.13,0,0,1-3.58-.81,2,2,0,0,1-.81-2.15,3.82,3.82,0,0,1,2-2,8.71,8.71,0,0,0,2.39-1.82,8.58,8.58,0,0,0,1.63-3.35l8.51-27.63a3.73,3.73,0,0,0,.19-1.34,2.66,2.66,0,0,0-.43-1.63,10.92,10.92,0,0,0-1.39-1.43,6.49,6.49,0,0,1-1.34-1.34,1.77,1.77,0,0,1-.1-1.53q.57-2.2,6-3.87a38.56,38.56,0,0,1,11.38-1.67,10.34,10.34,0,0,1,7.41,2.58,9,9,0,0,1,2.63,7.07,22.89,22.89,0,0,1,8.27-7.55,21.36,21.36,0,0,1,9.42-2.1,12.84,12.84,0,0,1,9,3.2,12.11,12.11,0,0,1,3.87,8.37q4.11-6.5,8.8-9a21.18,21.18,0,0,1,10.23-2.53,12.83,12.83,0,0,1,9.42,3.54,12.33,12.33,0,0,1,3.59,9.18,18.37,18.37,0,0,1-1,5.83Z" transform="translate(-203.68 -140.28)"/><path d="M674.12,352.21q4.21,4.88,4.21,13.29a39.1,39.1,0,0,1-1.24,9.47q-2.87,11.86-10.71,18a28.55,28.55,0,0,1-18.17,6.17,22.81,22.81,0,0,1-11.47-2.77l-3.06,10.23a5.85,5.85,0,0,0-.38,2,3.11,3.11,0,0,0,.48,1.77,7.08,7.08,0,0,0,1.24,1.39,5.44,5.44,0,0,1,1,1.24,1.56,1.56,0,0,1,0,1.15,2.73,2.73,0,0,1-1.82,1.77,13.69,13.69,0,0,1-4.4.53H608a6.15,6.15,0,0,1-3.58-.81,1.62,1.62,0,0,1-.62-2.06,2.62,2.62,0,0,1,.67-1.24,4.39,4.39,0,0,1,1.34-.86,11.16,11.16,0,0,0,2.3-2,9.07,9.07,0,0,0,1.53-3.2l14-45.8a4.7,4.7,0,0,0,.29-1.43,2.68,2.68,0,0,0-.48-1.67,6.55,6.55,0,0,0-1.43-1.29,6.49,6.49,0,0,1-1.34-1.34,1.76,1.76,0,0,1-.09-1.53q.57-2.2,6-3.87a38.56,38.56,0,0,1,11.38-1.67,11,11,0,0,1,6.93,2.1,8.06,8.06,0,0,1,3.11,5.83q6.5-8.32,14.63-8.32Q669.92,347.33,674.12,352.21ZM653.76,364a3.89,3.89,0,0,0-.62-2.63,2.4,2.4,0,0,0-1.77-.62,4.58,4.58,0,0,0-2.2.81,9.45,9.45,0,0,0-2.68,2.72l-7.55,25a3.78,3.78,0,0,0,2.77,1.15q2.58,0,4.92-2.92t4.83-11.81Q653.76,367.22,653.76,364Z" transform="translate(-203.68 -140.28)"/><path d="M388.55,419.7a4.46,4.46,0,0,1-3.51-1.53,5.72,5.72,0,0,1-1.35-3.93v-.56a5.82,5.82,0,0,1,1.36-4,4.31,4.31,0,0,1,3.38-1.56,3.89,3.89,0,0,1,3.13,1.3,5.23,5.23,0,0,1,1.11,3.5v1h-7.75v.34a5,5,0,0,0,1,3.16,3.16,3.16,0,0,0,2.66,1.26,5.09,5.09,0,0,0,1.87-.33,4.07,4.07,0,0,0,1.42-.9l.52.84a4.56,4.56,0,0,1-1.54,1A5.78,5.78,0,0,1,388.55,419.7Zm-.11-10.51a3,3,0,0,0-2.34,1,4.42,4.42,0,0,0-1.07,2.58l0,.06h6.38v-.26a3.76,3.76,0,0,0-.78-2.44A2.7,2.7,0,0,0,388.44,409.19Z" transform="translate(-203.68 -140.28)"/><path d="M397.63,408.35l.11,1.93a4.08,4.08,0,0,1,1.45-1.58,4,4,0,0,1,2.15-.56,3.43,3.43,0,0,1,2.76,1.11,5.24,5.24,0,0,1,.95,3.45v6.78h-1.23v-6.77a4,4,0,0,0-.72-2.71,2.6,2.6,0,0,0-2-.79,3.29,3.29,0,0,0-2.13.65,3.6,3.6,0,0,0-1.17,1.74v7.88h-1.23V408.35Z" transform="translate(-203.68 -140.28)"/><path d="M413.71,418.66a3.34,3.34,0,0,0,2.09-.7,2.31,2.31,0,0,0,.91-1.95h1.1l0,.06a3.1,3.1,0,0,1-1.21,2.58,4.44,4.44,0,0,1-2.91,1,4.17,4.17,0,0,1-3.46-1.56,6.25,6.25,0,0,1-1.24-4v-.43a6.25,6.25,0,0,1,1.23-4,4.16,4.16,0,0,1,3.46-1.56,4.28,4.28,0,0,1,3,1.08,3.53,3.53,0,0,1,1.15,2.84l0,.06h-1.1a2.75,2.75,0,0,0-.87-2.14,3.07,3.07,0,0,0-2.14-.8,2.91,2.91,0,0,0-2.6,1.29,5.7,5.7,0,0,0-.85,3.22v.43a5.74,5.74,0,0,0,.85,3.25A2.92,2.92,0,0,0,413.71,418.66Z" transform="translate(-203.68 -140.28)"/><path d="M423.09,410.24a4,4,0,0,1,3.64-2.1,3.37,3.37,0,0,1,2.7,1.09,5.1,5.1,0,0,1,.94,3.39v6.86h-1.23V412.6a3.81,3.81,0,0,0-.71-2.6,2.53,2.53,0,0,0-2-.79,3.46,3.46,0,0,0-2.14.63,3.64,3.64,0,0,0-1.23,1.69v7.94h-1.23V403.43h1.23Z" transform="translate(-203.68 -140.28)"/><path d="M442,419.48q-.11-.59-.17-1a6.53,6.53,0,0,1-.06-.86,4.53,4.53,0,0,1-1.62,1.5,4.74,4.74,0,0,1-2.39.59,3.5,3.5,0,0,1-2.54-.87,3.13,3.13,0,0,1-.9-2.36,2.84,2.84,0,0,1,1.31-2.42,5.74,5.74,0,0,1,3.39-.93h2.74v-1.38a2.39,2.39,0,0,0-.76-1.87,3.08,3.08,0,0,0-2.13-.68,3.19,3.19,0,0,0-2,.62,1.9,1.9,0,0,0-.78,1.55h-1.14l0-.06a2.63,2.63,0,0,1,1.07-2.21,4.47,4.47,0,0,1,3-1,4.41,4.41,0,0,1,2.94.94,3.31,3.31,0,0,1,1.11,2.68v5.47a9.5,9.5,0,0,0,.07,1.14,7.2,7.2,0,0,0,.22,1.1Zm-4.09-.88a4.42,4.42,0,0,0,2.46-.67,3.37,3.37,0,0,0,1.41-1.73v-2.13H439a4.09,4.09,0,0,0-2.48.71,2.09,2.09,0,0,0-1,1.72,2,2,0,0,0,.62,1.52A2.42,2.42,0,0,0,437.91,418.6Z" transform="translate(-203.68 -140.28)"/><path d="M448.74,408.35l.11,1.93a4.08,4.08,0,0,1,1.45-1.58,4,4,0,0,1,2.15-.56,3.43,3.43,0,0,1,2.76,1.11,5.24,5.24,0,0,1,.95,3.45v6.78h-1.23v-6.77a4,4,0,0,0-.72-2.71,2.6,2.6,0,0,0-2-.79,3.29,3.29,0,0,0-2.13.65,3.6,3.6,0,0,0-1.17,1.74v7.88h-1.23V408.35Z" transform="translate(-203.68 -140.28)"/><path d="M462.68,405.5v2.85h2.45v1h-2.45v7.25a2.37,2.37,0,0,0,.39,1.55,1.33,1.33,0,0,0,1.06.46l.44,0,.5-.09.18.91a2.52,2.52,0,0,1-.61.2,3.43,3.43,0,0,1-.72.08,2.31,2.31,0,0,1-1.83-.74,3.49,3.49,0,0,1-.65-2.35v-7.25h-1.92v-1h1.92V405.5Z" transform="translate(-203.68 -140.28)"/><path d="M473.13,419.7a4.46,4.46,0,0,1-3.51-1.53,5.72,5.72,0,0,1-1.35-3.93v-.56a5.82,5.82,0,0,1,1.36-4,4.31,4.31,0,0,1,3.38-1.56,3.89,3.89,0,0,1,3.13,1.3,5.23,5.23,0,0,1,1.11,3.5v1h-7.75v.34a5,5,0,0,0,1,3.16,3.16,3.16,0,0,0,2.66,1.26,5.09,5.09,0,0,0,1.87-.33,4.07,4.07,0,0,0,1.42-.9l.52.84a4.56,4.56,0,0,1-1.54,1A5.78,5.78,0,0,1,473.13,419.7ZM473,409.19a3,3,0,0,0-2.34,1,4.42,4.42,0,0,0-1.07,2.58l0,.06H476v-.26a3.76,3.76,0,0,0-.78-2.44A2.7,2.7,0,0,0,473,409.19Z" transform="translate(-203.68 -140.28)"/><path d="M490.78,416.69l.36,1.31h.06l.39-1.31,3-8.35h1.28l-4.23,11.13h-1l-4.24-11.13h1.28Z" transform="translate(-203.68 -140.28)"/><path d="M498.44,413.75a6,6,0,0,1,1.35-4,4.85,4.85,0,0,1,7.15,0,6,6,0,0,1,1.35,4v.34a6,6,0,0,1-1.34,4,4.86,4.86,0,0,1-7.16,0,6,6,0,0,1-1.35-4Zm1.23.34a5.31,5.31,0,0,0,1,3.25,3.45,3.45,0,0,0,5.43,0,5.29,5.29,0,0,0,1-3.25v-.34a5.25,5.25,0,0,0-1-3.23,3.43,3.43,0,0,0-5.42,0,5.29,5.29,0,0,0-1,3.23Z" transform="translate(-203.68 -140.28)"/><path d="M518.9,416.63a1.78,1.78,0,0,0-.64-1.36,5.26,5.26,0,0,0-2.32-1,7.61,7.61,0,0,1-2.94-1.13,2.35,2.35,0,0,1-1-2,2.7,2.7,0,0,1,1.08-2.16,4.34,4.34,0,0,1,2.85-.88,4.45,4.45,0,0,1,3,.94A2.78,2.78,0,0,1,520,411.4l0,.06h-1.14a2.05,2.05,0,0,0-.79-1.6,3.08,3.08,0,0,0-2.08-.68,3,3,0,0,0-2,.59,1.76,1.76,0,0,0-.68,1.37,1.59,1.59,0,0,0,.58,1.26,5.72,5.72,0,0,0,2.32.88,7.57,7.57,0,0,1,3,1.2,2.49,2.49,0,0,1,1,2.08,2.72,2.72,0,0,1-1.13,2.26,4.74,4.74,0,0,1-3,.87,4.81,4.81,0,0,1-3.18-1,2.73,2.73,0,0,1-1.1-2.3l0-.06h1.13a2,2,0,0,0,1,1.75,4.09,4.09,0,0,0,2.15.55,3.35,3.35,0,0,0,2.11-.6A1.76,1.76,0,0,0,518.9,416.63Z" transform="translate(-203.68 -140.28)"/><path d="M532.75,405.5v2.85h2.45v1h-2.45v7.25a2.37,2.37,0,0,0,.39,1.55,1.33,1.33,0,0,0,1.06.46l.44,0,.5-.09.18.91a2.52,2.52,0,0,1-.61.2,3.43,3.43,0,0,1-.72.08,2.31,2.31,0,0,1-1.83-.74,3.49,3.49,0,0,1-.65-2.35v-7.25h-1.92v-1h1.92V405.5Z" transform="translate(-203.68 -140.28)"/><path d="M544.06,409.41l-.88-.06a2.79,2.79,0,0,0-1.91.65,3.6,3.6,0,0,0-1.06,1.8v7.69H539V408.35h1.08l.16,1.85v.12a4,4,0,0,1,1.3-1.61,3.26,3.26,0,0,1,1.93-.58,2.46,2.46,0,0,1,.43,0l.34.08Z" transform="translate(-203.68 -140.28)"/><path d="M554.59,419.48q-.11-.59-.17-1a6.53,6.53,0,0,1-.06-.86,4.53,4.53,0,0,1-1.62,1.5,4.74,4.74,0,0,1-2.39.59,3.5,3.5,0,0,1-2.54-.87,3.13,3.13,0,0,1-.9-2.36,2.84,2.84,0,0,1,1.31-2.42,5.74,5.74,0,0,1,3.39-.93h2.74v-1.38a2.39,2.39,0,0,0-.76-1.87,3.08,3.08,0,0,0-2.13-.68,3.19,3.19,0,0,0-2,.62,1.9,1.9,0,0,0-.78,1.55h-1.14l0-.06a2.63,2.63,0,0,1,1.07-2.21,4.47,4.47,0,0,1,3-1,4.41,4.41,0,0,1,2.94.94,3.31,3.31,0,0,1,1.11,2.68v5.47a9.5,9.5,0,0,0,.07,1.14,7.2,7.2,0,0,0,.22,1.1Zm-4.09-.88a4.42,4.42,0,0,0,2.46-.67,3.37,3.37,0,0,0,1.41-1.73v-2.13h-2.75a4.09,4.09,0,0,0-2.48.71,2.09,2.09,0,0,0-1,1.72,2,2,0,0,0,.62,1.52A2.42,2.42,0,0,0,550.5,418.6Z" transform="translate(-203.68 -140.28)"/><path d="M561.69,408.35v12a3.87,3.87,0,0,1-.82,2.65,2.89,2.89,0,0,1-2.28.93,3.19,3.19,0,0,1-.58-.05,5,5,0,0,1-.57-.14l.13-1,.45.1a2.82,2.82,0,0,0,.5.05,1.74,1.74,0,0,0,1.43-.63,2.91,2.91,0,0,0,.51-1.87v-12Zm-.06-3.23h-1.23v-1.69h1.23Z" transform="translate(-203.68 -140.28)"/><path d="M570.82,419.7a4.46,4.46,0,0,1-3.51-1.53,5.72,5.72,0,0,1-1.35-3.93v-.56a5.82,5.82,0,0,1,1.36-4,4.31,4.31,0,0,1,3.38-1.56,3.89,3.89,0,0,1,3.13,1.3,5.23,5.23,0,0,1,1.11,3.5v1H567.2v.34a5,5,0,0,0,1,3.16,3.16,3.16,0,0,0,2.66,1.26,5.09,5.09,0,0,0,1.87-.33,4.07,4.07,0,0,0,1.42-.9l.52.84a4.56,4.56,0,0,1-1.54,1A5.78,5.78,0,0,1,570.82,419.7Zm-.11-10.51a3,3,0,0,0-2.34,1,4.42,4.42,0,0,0-1.07,2.58l0,.06h6.38v-.26a3.76,3.76,0,0,0-.78-2.44A2.7,2.7,0,0,0,570.71,409.19Z" transform="translate(-203.68 -140.28)"/><path d="M580.73,405.5v2.85h2.45v1h-2.45v7.25a2.37,2.37,0,0,0,.39,1.55,1.33,1.33,0,0,0,1.06.46l.44,0,.5-.09.18.91a2.52,2.52,0,0,1-.61.2,3.43,3.43,0,0,1-.72.08,2.31,2.31,0,0,1-1.83-.74,3.49,3.49,0,0,1-.65-2.35v-7.25h-1.92v-1h1.92V405.5Z" transform="translate(-203.68 -140.28)"/><path d="M593.62,416.63a1.78,1.78,0,0,0-.64-1.36,5.26,5.26,0,0,0-2.32-1,7.61,7.61,0,0,1-2.94-1.13,2.35,2.35,0,0,1-1-2,2.7,2.7,0,0,1,1.08-2.16,4.34,4.34,0,0,1,2.85-.88,4.45,4.45,0,0,1,3,.94,2.78,2.78,0,0,1,1.06,2.32l0,.06h-1.14a2.05,2.05,0,0,0-.79-1.6,3.08,3.08,0,0,0-2.08-.68,3,3,0,0,0-2,.59,1.76,1.76,0,0,0-.68,1.37,1.59,1.59,0,0,0,.58,1.26,5.72,5.72,0,0,0,2.32.88,7.57,7.57,0,0,1,3,1.2,2.49,2.49,0,0,1,1,2.08,2.72,2.72,0,0,1-1.13,2.26,4.74,4.74,0,0,1-3,.87,4.81,4.81,0,0,1-3.18-1,2.73,2.73,0,0,1-1.1-2.3l0-.06h1.13a2,2,0,0,0,1,1.75,4.09,4.09,0,0,0,2.15.55,3.35,3.35,0,0,0,2.11-.6A1.76,1.76,0,0,0,593.62,416.63Z" transform="translate(-203.68 -140.28)"/><path class="cls-2" d="M217.78,373.59c43.53,2.07,86.38-9.66,128.08-21.87,23.83-7,47.71-14.2,70-24.86,10.29-4.92,20.35-10.66,28.31-18.65,6.18-6.2,11.07-14,12.18-22.49s-2.11-17.87-9.37-22.87-18.55-4.38-24.15,2.32a19.23,19.23,0,0,0-3.82,8.27c-2.13,9.73,1.41,20.14,8,27.75s15.85,11.7,25.89,15.48c25.49,9.6,56.57-.45,75.15-19.85" transform="translate(-203.68 -140.28)"/><circle class="cls-3" cx="85.68" cy="149.23" r="57.32"/><path d="M344,289.51c-.27,23-14.77,44.12-36.75,51.67a54.68,54.68,0,1,1-7.73-105.4c25.74,4.93,44.17,27.7,44.48,53.73,0,3.42,5.35,3.42,5.31,0a60.74,60.74,0,0,0-39.41-56.35c-23.58-8.71-51-1.14-66.88,18.26A60,60,0,0,0,301,348.36c28-5.42,48-30.6,48.38-58.85C349.38,286.1,344.07,286.09,344,289.51Z" transform="translate(-203.68 -140.28)"/><circle class="cls-3" cx="163.29" cy="152.51" r="39.52"/><path d="M403.84,292.79c-.26,15.38-9.69,29.43-24.33,34.69a36.88,36.88,0,1,1-5.11-70.82c17.17,3.55,29.15,18.79,29.45,36.13.06,3.41,5.37,3.42,5.31,0a42.19,42.19,0,1,0-34.66,41.5c20.08-3.51,34.32-21.42,34.66-41.5C409.21,289.37,403.9,289.37,403.84,292.79Z" transform="translate(-203.68 -140.28)"/><path class="cls-3" d="M263.44,144.43s80.75-23.19,128,114.39l-33.87-11.35S263.23,192.95,263.44,144.43Z" transform="translate(-203.68 -140.28)"/><path d="M264.15,147c8.69-2.47,19.43-1.66,28.6.32,25.57,5.53,46.49,23.13,61.78,43.72s26,44.33,34.36,68.5l3.27-3.27-29.59-9.91c-1.36-.46-2.82-.81-4.14-1.39.94.41.14,0-.42-.32-2.5-1.47-5-3-7.4-4.56-23.41-14.88-46.35-32-64.46-53.19-10.1-11.79-19.92-26.36-20-42.46,0-3.42-5.34-3.42-5.31,0,.11,14.35,7.21,27.57,15.63,38.78,9.67,12.87,21.47,24,33.86,34.24a378.3,378.3,0,0,0,33.42,24.48c4.43,2.9,9,6.46,14,8.37,10.81,4.15,22.06,7.39,33,11.07a2.67,2.67,0,0,0,3.27-3.27c-17.95-51.84-55.71-120.48-120-117.75a49.29,49.29,0,0,0-11.29,1.51C259.46,142.8,260.85,147.93,264.15,147Z" transform="translate(-203.68 -140.28)"/><path class="cls-3" d="M214.56,332.75l21.86-3.22s15.47,21.17,34.28,22.63l-27.32,5.35a28.5,28.5,0,0,1-16.25-1.34C220.22,353.34,213,347,214.56,332.75Z" transform="translate(-203.68 -140.28)"/><path d="M215.26,335.31l21.86-3.22-3-1.22c8.64,11.72,21.7,22.43,36.57,23.95l-.71-5.22-25,4.89c-6.34,1.24-12.76,1.46-18.67-1.62-7.79-4.06-9.8-11.84-9.1-20.12.29-3.41-5-3.39-5.31,0-.72,8.51,1.23,17,8.25,22.45,6.82,5.28,15.66,6.35,24,4.86,9.12-1.64,18.2-3.56,27.29-5.34,3.15-.62,2.06-4.93-.71-5.22-12.78-1.3-24.68-11.4-32-21.32a2.84,2.84,0,0,0-3-1.22l-21.86,3.22C210.48,330.68,211.92,335.8,215.26,335.31Z" transform="translate(-203.68 -140.28)"/><ellipse cx="61.76" cy="255.28" rx="40.68" ry="3.29"/><path class="cls-4" d="M235.43,277.89s32.05-46.13,99.93-17.47c0,0-13.54-29.89-51.14-25.7C251,238.43,238.79,262.58,235.43,277.89Z" transform="translate(-203.68 -140.28)"/><path class="cls-3" d="M285.44,347.57l46.34,48s20-14.88,13.05-26.95c-8.52-14.74-34.58-30.7-34.58-30.7l-18.62,6.76Z" transform="translate(-203.68 -140.28)"/><path d="M283.56,349.45l46.34,48a2.67,2.67,0,0,0,3.22.42c5.24-3.93,10.25-8.94,13.32-14.77,5.07-9.62.81-17.19-6-24.54-7.1-7.69-15.66-14.14-24.32-20-1.51-1-3.62-3-5.53-3.27-2.22-.27-5.15,1.54-7.17,2.27-6.58,2.39-13,4.74-19.34,7.7-3.09,1.44-.4,6,2.68,4.59l4.7-2.19a12.12,12.12,0,0,1,2.24-.93c3.85-1.42,7.71-2.8,11.57-4.2,1.35-.49,3.59-.89,4.77-1.73,1.37-1-1.15-1.28-.58-.25.44.8,2.51,1.62,3.31,2.15q3,2,5.94,4.13A134.28,134.28,0,0,1,333.48,359c3.78,3.65,9.7,8.87,10.16,14.47.63,7.82-8.33,16.13-13.19,19.78l3.22.42-46.34-48C284.94,343.23,281.19,347,283.56,349.45Z" transform="translate(-203.68 -140.28)"/><path class="cls-4" d="M305,342.63s26.62,21.29,28.8,32.27c2.87,14.42-1.79,17.15-1.79,17.15s19.63-13.19,8.29-26.32-30.53-24.94-30.53-24.94Z" transform="translate(-203.68 -140.28)"/><circle cx="164.25" cy="149.23" r="6.95"/><ellipse class="cls-4" cx="320.79" cy="158.93" rx="5.19" ry="5.01"/><ellipse class="cls-4" cx="224.3" cy="180.98" rx="6.65" ry="6.42"/><ellipse class="cls-4" cx="14.99" cy="233.72" rx="7.2" ry="6.95"/><path class="cls-4" d="M265.83,146.44s79.79-18.13,121.23,108.23C387.06,254.67,332.86,162,265.83,146.44Z" transform="translate(-203.68 -140.28)"/><path class="cls-4" d="M330.87,285.54s4.51-28.48,33.4-29.62c33.74-1.34,38.1,27.45,38.1,27.45S367,243.87,330.87,285.54Z" transform="translate(-203.68 -140.28)"/><ellipse class="cls-4" cx="253.18" cy="148.34" rx="5.77" ry="5.57"/><circle class="cls-3" cx="24.49" cy="135.52" r="21.83"/><path d="M247.35,275.8C247,286.24,238.87,295,228.17,295a19.17,19.17,0,0,1-.69-38.33c11-.4,19.53,8.45,19.87,19.16.11,3.41,5.42,3.42,5.31,0-.41-13.32-10.85-24.49-24.49-24.49a24.49,24.49,0,0,0,0,49c13.64,0,24.07-11.17,24.49-24.49C252.77,272.38,247.45,272.39,247.35,275.8Z" transform="translate(-203.68 -140.28)"/><path class="cls-4" d="M245.87,282.84s6.87-12.44-5.61-22.14c-13.39-10.41-23.9-.25-26.4,2.41,0,0,12.34-1.76,21.23,5.77C245.33,277.55,245.87,282.84,245.87,282.84Z" transform="translate(-203.68 -140.28)"/><path class="cls-4" d="M217.11,334.87l18.27-2.77s9.3,13.33,23.79,19.67C259.16,351.77,228.13,348,217.11,334.87Z" transform="translate(-203.68 -140.28)"/></svg>