<svg width="20" height="29" viewBox="0 0 20 29" fill="none" xmlns="http://www.w3.org/2000/svg">
    <path d="M10 0C4.47679 0 0 4.54795 0 10.1578C0 13.0271 2.75374 18.1704 2.75374 18.1704L8.65985 28.4167C9.10307 29.1836 10.1836 29.197 10.6425 28.4408L16.8109 18.3098C16.8109 18.3098 20 13.4025 20 10.1578C19.9974 4.54795 15.5206 0 10 0ZM9.95542 15.7543C6.67716 15.7543 4.04668 12.9413 4.24076 9.54373C4.4086 6.62886 6.72174 4.2503 9.56989 4.05991C12.9058 3.83734 15.6806 6.535 15.6806 9.8977C15.6806 13.1344 13.1157 15.7543 9.95542 15.7543Z" fill="#45396D"/>
</svg>
