<svg width="1440" height="800" viewBox="0 0 1440 800" fill="none" xmlns="http://www.w3.org/2000/svg">
    <g clip-path="url(#clip0)">
        <rect width="1440" height="800" fill="white"/>
        <path d="M1606.88 -1571.27C1608.16 -1564.19 -417.879 1252.19 -417.879 1252.19L684.768 1052.31L1606.88 -1571.27Z" fill="url(#paint0_linear)" fill-opacity="0.5"/>
        <path d="M1397.33 -1336.23C1398.52 -1329.65 -15.4643 1205.97 -15.4643 1205.97L798.999 1058.32L1397.33 -1336.23Z" fill="url(#paint1_linear)" fill-opacity="0.5"/>
        <path d="M1244.58 333.023C1247.58 325.417 1246.48 317.862 1242.11 316.148C1237.75 314.434 1231.78 319.211 1228.78 326.816C1225.78 334.422 1226.88 341.977 1231.25 343.691C1235.61 345.405 1241.58 340.628 1244.58 333.023Z" fill="#45396D"/>
        <path d="M1343.18 343.702C1347.54 341.988 1348.64 334.433 1345.64 326.827C1342.64 319.221 1336.67 314.445 1332.31 316.159C1327.95 317.873 1326.85 325.428 1329.85 333.033C1332.85 340.639 1338.82 345.416 1343.18 343.702Z" fill="#45396D"/>
        <path d="M1287.49 432.437C1300.03 432.437 1310.2 430.232 1310.2 427.513C1310.2 424.793 1300.03 422.589 1287.49 422.589C1274.94 422.589 1264.77 424.793 1264.77 427.513C1264.77 430.232 1274.94 432.437 1287.49 432.437Z" stroke="#3EE5B1" stroke-width="2" stroke-miterlimit="10"/>
        <path d="M1287.49 430.057C1288.82 429.982 1290.12 429.311 1290.93 428.065L1302.91 409.715H1272.07L1284.04 428.065C1284.86 429.311 1286.16 429.982 1287.49 430.057Z" fill="#FDECE0"/>
        <path d="M1287.49 421.13C1287.86 421.125 1288.24 421.111 1288.62 421.092C1301.45 420.464 1312.79 391.681 1312.27 386.257C1311.74 380.832 1304.89 375.71 1304.89 375.71H1270.07C1270.07 375.71 1263.22 380.832 1262.7 386.257C1262.18 391.681 1273.52 420.464 1286.35 421.092C1286.75 421.111 1287.12 421.125 1287.49 421.13Z" fill="#FFCDB6"/>
        <path d="M1287.49 442.955C1297.61 442.955 1305.82 441.602 1305.82 439.933C1305.82 438.265 1297.61 436.912 1287.49 436.912C1277.36 436.912 1269.15 438.265 1269.15 439.933C1269.15 441.602 1277.36 442.955 1287.49 442.955Z" stroke="#3EE5B1" stroke-width="2" stroke-miterlimit="10"/>
        <path d="M1287.49 452C1292.9 452 1297.28 450.977 1297.28 449.715C1297.28 448.453 1292.9 447.43 1287.49 447.43C1282.08 447.43 1277.69 448.453 1277.69 449.715C1277.69 450.977 1282.08 452 1287.49 452Z" stroke="#3EE5B1" stroke-width="2" stroke-miterlimit="10"/>
        <path d="M1295.5 315.83H1280.73V333.737H1295.5V315.83Z" fill="#45396D"/>
        <path d="M1287.49 387.451C1299.61 387.451 1309.45 374.01 1309.45 357.431C1309.45 340.851 1299.61 327.411 1287.49 327.411C1275.36 327.411 1265.53 340.851 1265.53 357.431C1265.53 374.01 1275.36 387.451 1287.49 387.451Z" fill="#45396D"/>
        <path d="M1289.98 321.056L1289.99 345.303V345.307C1290.1 345.307 1291.86 345.194 1312.44 343.202C1316.84 342.777 1320.38 341.092 1323.24 338.642C1323.24 338.637 1323.24 338.637 1323.24 338.637C1335.54 328.071 1335.06 303.183 1335.05 302.749C1322.86 313.932 1307.16 320.773 1289.98 321.056Z" fill="#FFCDB6"/>
        <path d="M1289.99 345.308C1289.99 345.426 1290 348.787 1291 355.83C1312.72 361.835 1314.19 370.918 1315.21 370.475C1316.24 370.036 1328.28 364.474 1325.64 358.03C1323.03 351.667 1323.23 338.967 1323.24 338.642C1320.38 341.092 1316.84 342.777 1312.44 343.202C1291.86 345.194 1290.1 345.308 1289.99 345.308Z" fill="#FDECE0"/>
        <path d="M1287.49 166.668C1287.86 166.664 1288.24 166.659 1288.62 166.659C1328.06 166.659 1360.03 201.225 1360.03 243.865C1360.03 267.464 1350.24 288.586 1334.81 302.744C1334.81 302.744 1334.81 302.744 1334.81 302.749C1322.61 313.932 1306.91 320.773 1289.73 321.056C1289.36 321.061 1288.99 321.066 1288.62 321.066C1288.24 321.066 1287.87 321.061 1287.49 321.056C1287.11 321.061 1286.74 321.066 1286.36 321.066C1285.99 321.066 1285.62 321.061 1285.25 321.056C1268.07 320.773 1252.36 313.932 1240.17 302.749C1240.17 302.744 1240.17 302.744 1240.17 302.744C1224.74 288.586 1214.94 267.464 1214.94 243.865C1214.94 201.225 1246.92 166.659 1286.36 166.659C1286.74 166.659 1287.11 166.664 1287.49 166.668Z" fill="#FDECE0"/>
        <path d="M1287.06 238.469C1260.64 238.78 1242.75 235.542 1235.63 235.721C1225.55 235.971 1227.56 259.628 1241.18 284.035C1252.15 303.683 1268.01 310.939 1287.06 310.005H1287.49C1306.55 310.939 1322.4 303.683 1333.37 284.035C1346.98 259.628 1349 235.971 1338.92 235.721C1331.8 235.542 1313.91 238.785 1287.49 238.469H1287.06Z" fill="#FFCDB6"/>
        <path d="M1188.87 194.748L1178.75 174.831C1178.75 174.831 1176.26 169.997 1180.36 168.533L1216.27 228.984L1215.15 237.808L1211.33 237.751L1188.87 194.748Z" fill="#45396D"/>
        <path d="M1188.88 194.748C1189.17 195.334 1209.25 254.982 1209.25 254.982L1213.15 236.727L1188.88 194.748Z" fill="#FFCDB6"/>
        <path d="M1218.19 273.356C1218.19 273.356 1209.35 266.166 1209.25 253.557C1209.16 240.947 1213.14 236.722 1213.14 236.722L1218.19 273.356Z" fill="#FFCDB6"/>
        <path d="M1224.08 281.575C1224.08 281.575 1219.88 282.992 1217.51 270.283C1215.15 257.574 1212.67 236.255 1213.1 233.488C1213.54 230.722 1212.87 228.295 1216 227.233C1219.14 226.166 1224.08 281.575 1224.08 281.575Z" fill="#45396D"/>
        <path d="M1386.12 194.791L1396.25 174.873C1396.25 174.873 1398.74 170.039 1394.64 168.576L1358.72 229.027L1359.85 237.85L1363.67 237.794L1386.12 194.791Z" fill="#45396D"/>
        <path d="M1386.12 194.791C1385.83 195.376 1365.74 255.025 1365.74 255.025L1361.85 236.769L1386.12 194.791Z" fill="#FFCDB6"/>
        <path d="M1356.81 273.403C1356.81 273.403 1365.65 266.213 1365.74 253.604C1365.84 240.994 1361.85 236.769 1361.85 236.769L1356.81 273.403Z" fill="#FFCDB6"/>
        <path d="M1350.92 281.618C1350.92 281.618 1355.12 283.034 1357.48 270.325C1359.85 257.617 1362.33 236.297 1361.89 233.531C1361.46 230.764 1362.12 228.338 1358.99 227.275C1355.86 226.208 1350.92 281.618 1350.92 281.618Z" fill="#45396D"/>
        <path d="M1285.24 345.307C1285.24 345.303 1285.24 345.303 1285.24 345.303C1285.24 345.303 1285.25 345.307 1285.24 345.307Z" fill="#03A678"/>
        <path d="M1285.25 321.056L1285.24 345.303V345.307C1285.12 345.307 1283.36 345.194 1262.78 343.202C1258.39 342.777 1254.84 341.092 1251.98 338.642C1251.98 338.637 1251.98 338.637 1251.98 338.637C1239.68 328.071 1240.16 303.183 1240.17 302.749C1252.36 313.932 1268.07 320.773 1285.25 321.056Z" fill="#FFCDB6"/>
        <path d="M1285.24 345.308C1285.24 345.426 1285.23 348.787 1284.22 355.83C1262.5 361.835 1261.04 370.918 1260.01 370.475C1258.98 370.036 1246.95 364.474 1249.59 358.03C1252.19 351.667 1251.99 338.967 1251.99 338.642C1254.84 341.092 1258.39 342.777 1262.78 343.202C1283.36 345.194 1285.12 345.308 1285.24 345.308Z" fill="#FDECE0"/>
        <path d="M1304.95 332.363C1304.94 333.387 1304.3 334.412 1302.91 334.412C1301.51 334.412 1300.86 333.411 1300.86 332.367C1300.86 331.324 1301.54 330.276 1302.91 330.276C1304.28 330.281 1304.96 331.329 1304.95 332.363ZM1301.61 332.382C1301.63 333.033 1301.98 333.727 1302.91 333.727C1303.85 333.727 1304.2 333.024 1304.21 332.372C1304.22 331.702 1303.85 330.956 1302.91 330.956C1301.98 330.961 1301.59 331.711 1301.61 332.382Z" fill="#FDECE0"/>
        <path d="M1307.31 331.995L1308.36 330.356H1309.27V330.389L1307.68 332.684V334.322H1306.93V332.684L1305.41 330.389V330.356H1306.29L1307.31 331.995Z" fill="#FDECE0"/>
        <path d="M1312.84 333.576H1310.76L1310.42 334.322H1309.61L1311.39 330.356H1312.21L1313.99 334.322H1313.17L1312.84 333.576ZM1311.8 331.192L1311.06 332.877H1312.54L1311.8 331.192Z" fill="#FDECE0"/>
        <path d="M1313.68 293.792C1324.76 293.29 1333.22 281.483 1332.58 267.42C1331.94 253.357 1322.44 242.365 1311.36 242.867C1300.29 243.369 1291.82 255.177 1292.46 269.239C1293.1 283.302 1302.6 294.295 1313.68 293.792Z" fill="white"/>
        <path d="M1264.62 265.925C1249.95 265.925 1245.17 273.852 1245.17 273.852C1245.17 273.852 1248.64 256.186 1264.62 256.186C1280.6 256.186 1284.08 273.852 1284.08 273.852C1284.08 273.852 1279.3 265.925 1264.62 265.925Z" fill="white"/>
        <path d="M1299.22 294.029C1299.22 294.029 1295.49 276.892 1293.67 275.92C1291.85 274.947 1285.07 281.859 1288.47 298.254C1291.88 314.655 1299.22 294.029 1299.22 294.029Z" fill="#45396D"/>
        <path d="M1288.65 305.048C1289.91 310.255 1292.79 314.928 1296.73 318.573C1305.42 326.622 1323.99 343.183 1334.72 352.729C1336.29 354.121 1338.41 354.73 1340.7 354.853C1342.28 354.938 1343.81 354.537 1345.28 353.81C1354.4 349.287 1354.74 336.371 1346.09 330.994C1330.83 321.5 1306.05 305.095 1300.93 295.629C1298.14 290.479 1290.48 290.894 1288.61 296.441C1288.56 296.592 1288.51 296.744 1288.47 296.899C1287.73 299.467 1287.99 302.357 1288.65 305.048Z" fill="#FDECE0"/>
        <path d="M1277.75 294.029C1277.75 294.029 1281.48 276.892 1283.31 275.92C1285.13 274.947 1291.91 281.859 1288.5 298.254C1285.09 314.65 1277.75 294.029 1277.75 294.029Z" fill="#45396D"/>
        <path d="M1288.32 305.048C1287.05 310.255 1284.18 314.928 1280.24 318.573C1271.54 326.622 1252.98 343.183 1242.25 352.729C1240.68 354.121 1238.56 354.73 1236.26 354.853C1234.69 354.938 1233.16 354.537 1231.69 353.81C1222.57 349.287 1222.23 336.371 1230.87 330.994C1246.14 321.5 1270.92 305.095 1276.04 295.629C1278.82 290.479 1286.48 290.894 1288.36 296.441C1288.41 296.592 1288.46 296.744 1288.5 296.899C1289.23 299.467 1288.98 302.357 1288.32 305.048Z" fill="#FDECE0"/>
        <path d="M1302.95 130.195C1302.8 129.694 1302.18 129.598 1301.83 129.994C1296.1 136.455 1287.8 137.703 1285.5 145.646C1284.01 150.771 1285.57 154.79 1286.56 156.664C1286.59 156.723 1286.63 156.773 1286.66 156.81C1284.89 164.306 1285.26 167.942 1285.69 169.515C1285.86 170.099 1286.5 170.4 1287.06 170.162C1287.53 169.957 1287.77 169.427 1287.62 168.931C1287.1 167.245 1285.63 163.334 1287.74 156.013C1289.41 151.063 1291.39 148.492 1292.96 147.152C1294.52 145.904 1295.74 145.708 1295.74 145.708C1291.96 150.141 1290.86 155.375 1290.55 158.05C1290.43 159.077 1291.16 159.995 1292.18 160.082C1299.48 160.7 1303.14 154.899 1304.65 147.803C1305.95 141.685 1303.84 133.292 1302.95 130.195Z" fill="#04D99D"/>
        <path d="M1044.18 79C1043.73 79 1043.34 78.88 1043.03 78.64C1042.74 78.376 1042.6 78.028 1042.6 77.596V52.288C1042.6 51.88 1042.73 51.544 1043 51.28C1043.26 51.016 1043.6 50.884 1044 50.884H1052.75C1054.19 50.884 1055.49 51.196 1056.64 51.82C1057.82 52.42 1058.74 53.248 1059.41 54.304C1060.11 55.36 1060.46 56.584 1060.46 57.976C1060.46 59.272 1060.11 60.424 1059.41 61.432C1058.72 62.44 1057.8 63.208 1056.68 63.736C1058.28 64.168 1059.58 64.984 1060.56 66.184C1061.55 67.36 1062.04 68.86 1062.04 70.684C1062.04 72.316 1061.67 73.756 1060.92 75.004C1060.18 76.252 1059.15 77.236 1057.83 77.956C1056.53 78.652 1055.04 79 1053.36 79H1044.18ZM1045.41 62.62H1052.75C1054.19 62.62 1055.38 62.212 1056.32 61.396C1057.25 60.58 1057.72 59.44 1057.72 57.976C1057.72 56.536 1057.25 55.444 1056.32 54.7C1055.38 53.956 1054.19 53.584 1052.75 53.584H1045.41V62.62ZM1045.41 76.3H1053.36C1055.09 76.3 1056.51 75.796 1057.61 74.788C1058.72 73.78 1059.27 72.412 1059.27 70.684C1059.27 69.052 1058.72 67.756 1057.61 66.796C1056.51 65.812 1055.09 65.32 1053.36 65.32H1045.41V76.3ZM1068.64 79C1067.73 79 1067.27 78.544 1067.27 77.632V60.676C1067.27 59.764 1067.73 59.308 1068.64 59.308C1069.55 59.308 1070.01 59.764 1070.01 60.676V62.224C1070.73 61.264 1071.62 60.508 1072.67 59.956C1073.73 59.38 1074.89 59.092 1076.16 59.092C1077.27 59.092 1078.12 59.248 1078.72 59.56C1079.32 59.872 1079.55 60.328 1079.4 60.928C1079.28 61.48 1079 61.768 1078.54 61.792C1078.11 61.792 1077.59 61.768 1076.99 61.72C1075.65 61.6 1074.45 61.744 1073.39 62.152C1072.36 62.536 1071.53 63.136 1070.91 63.952C1070.31 64.768 1070.01 65.74 1070.01 66.868V77.632C1070.01 78.544 1069.55 79 1068.64 79ZM1090.99 79.18C1089.15 79.18 1087.49 78.748 1086.03 77.884C1084.56 76.996 1083.4 75.796 1082.53 74.284C1081.69 72.772 1081.27 71.068 1081.27 69.172C1081.27 67.252 1081.71 65.536 1082.57 64.024C1083.46 62.512 1084.66 61.324 1086.17 60.46C1087.68 59.572 1089.39 59.128 1091.28 59.128C1093.18 59.128 1094.87 59.572 1096.36 60.46C1097.87 61.324 1099.06 62.512 1099.92 64.024C1100.81 65.536 1101.27 67.252 1101.29 69.172V77.632C1101.29 78.04 1101.16 78.376 1100.89 78.64C1100.63 78.88 1100.29 79 1099.89 79C1099.48 79 1099.14 78.88 1098.88 78.64C1098.61 78.376 1098.48 78.04 1098.48 77.632V75.436C1097.67 76.588 1096.61 77.5 1095.31 78.172C1094.02 78.844 1092.58 79.18 1090.99 79.18ZM1091.28 76.66C1092.67 76.66 1093.91 76.336 1094.99 75.688C1096.09 75.04 1096.96 74.152 1097.58 73.024C1098.23 71.872 1098.55 70.588 1098.55 69.172C1098.55 67.732 1098.23 66.448 1097.58 65.32C1096.96 64.192 1096.09 63.304 1094.99 62.656C1093.91 61.984 1092.67 61.648 1091.28 61.648C1089.91 61.648 1088.68 61.984 1087.57 62.656C1086.47 63.304 1085.59 64.192 1084.95 65.32C1084.3 66.448 1083.97 67.732 1083.97 69.172C1083.97 70.588 1084.3 71.872 1084.95 73.024C1085.59 74.152 1086.47 75.04 1087.57 75.688C1088.68 76.336 1089.91 76.66 1091.28 76.66ZM1112.32 79C1111.75 79 1111.32 78.688 1111.03 78.064L1103.04 61.108C1102.89 60.796 1102.88 60.484 1103 60.172C1103.12 59.86 1103.36 59.62 1103.72 59.452C1104.06 59.284 1104.38 59.26 1104.69 59.38C1105 59.5 1105.24 59.716 1105.41 60.028L1112.32 75.004L1119.16 60.028C1119.31 59.692 1119.55 59.476 1119.88 59.38C1120.24 59.26 1120.59 59.272 1120.93 59.416C1121.26 59.584 1121.49 59.836 1121.61 60.172C1121.73 60.484 1121.72 60.784 1121.58 61.072L1113.69 78.064C1113.4 78.688 1112.95 79 1112.32 79ZM1133.75 79.18C1131.83 79.18 1130.11 78.748 1128.6 77.884C1127.09 77.02 1125.9 75.832 1125.04 74.32C1124.17 72.808 1123.74 71.092 1123.74 69.172C1123.74 67.228 1124.17 65.5 1125.04 63.988C1125.9 62.476 1127.09 61.288 1128.6 60.424C1130.11 59.56 1131.83 59.128 1133.75 59.128C1135.67 59.128 1137.37 59.56 1138.86 60.424C1140.37 61.288 1141.56 62.476 1142.43 63.988C1143.29 65.5 1143.73 67.228 1143.76 69.172C1143.76 71.092 1143.31 72.808 1142.43 74.32C1141.56 75.832 1140.37 77.02 1138.86 77.884C1137.37 78.748 1135.67 79.18 1133.75 79.18ZM1133.75 76.66C1135.14 76.66 1136.39 76.336 1137.49 75.688C1138.6 75.04 1139.46 74.152 1140.09 73.024C1140.71 71.896 1141.02 70.612 1141.02 69.172C1141.02 67.732 1140.71 66.448 1140.09 65.32C1139.46 64.168 1138.6 63.268 1137.49 62.62C1136.39 61.972 1135.14 61.648 1133.75 61.648C1132.36 61.648 1131.11 61.972 1130.01 62.62C1128.9 63.268 1128.03 64.168 1127.38 65.32C1126.75 66.448 1126.44 67.732 1126.44 69.172C1126.44 70.612 1126.75 71.896 1127.38 73.024C1128.03 74.152 1128.9 75.04 1130.01 75.688C1131.11 76.336 1132.36 76.66 1133.75 76.66ZM1148.83 84.832C1148.32 84.832 1148.07 84.592 1148.07 84.112C1148.07 83.752 1148.18 83.416 1148.39 83.104C1148.61 82.816 1148.83 82.504 1149.04 82.168C1149.28 81.832 1149.4 81.424 1149.4 80.944C1149.4 80.368 1149.26 79.912 1148.97 79.576C1148.71 79.24 1148.43 78.916 1148.14 78.604C1147.85 78.292 1147.71 77.86 1147.71 77.308C1147.71 76.708 1147.9 76.228 1148.29 75.868C1148.69 75.508 1149.2 75.328 1149.8 75.328C1150.52 75.328 1151.11 75.616 1151.56 76.192C1152.02 76.744 1152.25 77.524 1152.25 78.532C1152.25 79.204 1152.15 79.912 1151.96 80.656C1151.77 81.4 1151.5 82.084 1151.17 82.708C1150.83 83.356 1150.46 83.872 1150.05 84.256C1149.64 84.64 1149.23 84.832 1148.83 84.832ZM1175.52 79C1174.25 79 1173.11 78.7 1172.1 78.1C1171.12 77.5 1170.34 76.684 1169.76 75.652C1169.19 74.596 1168.9 73.396 1168.9 72.052V62.44H1166.56C1166.2 62.44 1165.9 62.332 1165.66 62.116C1165.42 61.876 1165.3 61.588 1165.3 61.252C1165.3 60.892 1165.42 60.604 1165.66 60.388C1165.9 60.148 1166.2 60.028 1166.56 60.028H1168.9V54.448C1168.9 54.04 1169.02 53.704 1169.26 53.44C1169.52 53.176 1169.86 53.044 1170.27 53.044C1170.67 53.044 1171.01 53.176 1171.27 53.44C1171.54 53.704 1171.67 54.04 1171.67 54.448V60.028H1175.74C1176.1 60.028 1176.4 60.148 1176.64 60.388C1176.88 60.604 1177 60.892 1177 61.252C1177 61.588 1176.88 61.876 1176.64 62.116C1176.4 62.332 1176.1 62.44 1175.74 62.44H1171.67V72.052C1171.67 73.276 1172.03 74.284 1172.75 75.076C1173.47 75.844 1174.39 76.228 1175.52 76.228H1176.49C1176.88 76.228 1177.19 76.36 1177.43 76.624C1177.67 76.888 1177.79 77.224 1177.79 77.632C1177.79 78.04 1177.65 78.376 1177.36 78.64C1177.07 78.88 1176.71 79 1176.28 79H1175.52ZM1190.87 79.216C1189.17 79.216 1187.64 78.868 1186.3 78.172C1184.95 77.452 1183.89 76.408 1183.09 75.04C1182.33 73.672 1181.94 72.004 1181.94 70.036V60.676C1181.94 60.292 1182.07 59.968 1182.34 59.704C1182.6 59.44 1182.93 59.308 1183.31 59.308C1183.72 59.308 1184.05 59.44 1184.32 59.704C1184.58 59.968 1184.71 60.292 1184.71 60.676V70.036C1184.71 72.244 1185.33 73.888 1186.55 74.968C1187.77 76.048 1189.31 76.588 1191.16 76.588C1192.33 76.588 1193.39 76.36 1194.33 75.904C1195.29 75.448 1196.04 74.824 1196.59 74.032C1197.15 73.24 1197.42 72.34 1197.42 71.332V60.676C1197.42 60.268 1197.54 59.944 1197.78 59.704C1198.05 59.44 1198.38 59.308 1198.79 59.308C1199.2 59.308 1199.53 59.44 1199.8 59.704C1200.06 59.944 1200.19 60.268 1200.19 60.676V77.596C1200.19 78.028 1200.06 78.376 1199.8 78.64C1199.53 78.88 1199.2 79 1198.79 79C1198.38 79 1198.05 78.88 1197.78 78.64C1197.54 78.376 1197.42 78.028 1197.42 77.596V76.372C1196.63 77.26 1195.67 77.956 1194.54 78.46C1193.41 78.964 1192.19 79.216 1190.87 79.216ZM1225.89 79.18C1224.04 79.18 1222.38 78.748 1220.92 77.884C1219.46 76.996 1218.29 75.796 1217.43 74.284C1216.59 72.772 1216.17 71.068 1216.17 69.172C1216.17 67.252 1216.6 65.536 1217.46 64.024C1218.35 62.512 1219.55 61.324 1221.06 60.46C1222.58 59.572 1224.28 59.128 1226.18 59.128C1228.07 59.128 1229.76 59.572 1231.25 60.46C1232.76 61.324 1233.95 62.512 1234.82 64.024C1235.7 65.536 1236.16 67.252 1236.18 69.172V77.632C1236.18 78.04 1236.05 78.376 1235.79 78.64C1235.52 78.88 1235.19 79 1234.78 79C1234.37 79 1234.04 78.88 1233.77 78.64C1233.51 78.376 1233.38 78.04 1233.38 77.632V75.436C1232.56 76.588 1231.5 77.5 1230.21 78.172C1228.91 78.844 1227.47 79.18 1225.89 79.18ZM1226.18 76.66C1227.57 76.66 1228.8 76.336 1229.88 75.688C1230.99 75.04 1231.85 74.152 1232.48 73.024C1233.12 71.872 1233.45 70.588 1233.45 69.172C1233.45 67.732 1233.12 66.448 1232.48 65.32C1231.85 64.192 1230.99 63.304 1229.88 62.656C1228.8 61.984 1227.57 61.648 1226.18 61.648C1224.81 61.648 1223.57 61.984 1222.47 62.656C1221.36 63.304 1220.49 64.192 1219.84 65.32C1219.19 66.448 1218.87 67.732 1218.87 69.172C1218.87 70.588 1219.19 71.872 1219.84 73.024C1220.49 74.152 1221.36 75.04 1222.47 75.688C1223.57 76.336 1224.81 76.66 1226.18 76.66ZM1248.45 79.18C1247.04 79.18 1245.63 78.94 1244.24 78.46C1242.85 77.98 1241.72 77.26 1240.86 76.3C1240.59 76.012 1240.48 75.688 1240.53 75.328C1240.58 74.968 1240.76 74.656 1241.07 74.392C1241.41 74.152 1241.76 74.056 1242.12 74.104C1242.48 74.152 1242.78 74.308 1243.02 74.572C1243.59 75.244 1244.35 75.76 1245.28 76.12C1246.24 76.48 1247.3 76.66 1248.45 76.66C1250.23 76.66 1251.51 76.36 1252.3 75.76C1253.1 75.136 1253.5 74.392 1253.53 73.528C1253.53 72.664 1253.12 71.956 1252.3 71.404C1251.49 70.828 1250.14 70.384 1248.27 70.072C1245.85 69.688 1244.07 69.016 1242.94 68.056C1241.82 67.096 1241.25 65.956 1241.25 64.636C1241.25 63.412 1241.58 62.392 1242.22 61.576C1242.87 60.76 1243.74 60.148 1244.82 59.74C1245.9 59.332 1247.08 59.128 1248.38 59.128C1249.99 59.128 1251.37 59.404 1252.52 59.956C1253.7 60.508 1254.64 61.252 1255.36 62.188C1255.6 62.5 1255.7 62.824 1255.65 63.16C1255.6 63.496 1255.41 63.772 1255.08 63.988C1254.79 64.156 1254.45 64.216 1254.07 64.168C1253.71 64.096 1253.4 63.916 1253.13 63.628C1251.96 62.284 1250.35 61.612 1248.31 61.612C1246.99 61.612 1245.93 61.888 1245.14 62.44C1244.35 62.968 1243.95 63.64 1243.95 64.456C1243.95 65.272 1244.3 65.944 1245 66.472C1245.72 67 1247.06 67.432 1249.03 67.768C1250.83 68.056 1252.24 68.488 1253.28 69.064C1254.33 69.616 1255.08 70.276 1255.51 71.044C1255.96 71.788 1256.19 72.604 1256.19 73.492C1256.19 74.62 1255.86 75.616 1255.18 76.48C1254.54 77.32 1253.62 77.98 1252.45 78.46C1251.3 78.94 1249.96 79.18 1248.45 79.18ZM1279.23 79C1277.96 79 1276.82 78.7 1275.81 78.1C1274.83 77.5 1274.05 76.684 1273.47 75.652C1272.9 74.596 1272.61 73.396 1272.61 72.052V62.44H1270.27C1269.91 62.44 1269.61 62.332 1269.37 62.116C1269.13 61.876 1269.01 61.588 1269.01 61.252C1269.01 60.892 1269.13 60.604 1269.37 60.388C1269.61 60.148 1269.91 60.028 1270.27 60.028H1272.61V54.448C1272.61 54.04 1272.73 53.704 1272.97 53.44C1273.23 53.176 1273.57 53.044 1273.98 53.044C1274.39 53.044 1274.72 53.176 1274.99 53.44C1275.25 53.704 1275.38 54.04 1275.38 54.448V60.028H1279.45C1279.81 60.028 1280.11 60.148 1280.35 60.388C1280.59 60.604 1280.71 60.892 1280.71 61.252C1280.71 61.588 1280.59 61.876 1280.35 62.116C1280.11 62.332 1279.81 62.44 1279.45 62.44H1275.38V72.052C1275.38 73.276 1275.74 74.284 1276.46 75.076C1277.18 75.844 1278.11 76.228 1279.23 76.228H1280.21C1280.59 76.228 1280.9 76.36 1281.14 76.624C1281.38 76.888 1281.5 77.224 1281.5 77.632C1281.5 78.04 1281.36 78.376 1281.07 78.64C1280.78 78.88 1280.42 79 1279.99 79H1279.23ZM1287.38 79C1286.47 79 1286.01 78.544 1286.01 77.632V60.676C1286.01 59.764 1286.47 59.308 1287.38 59.308C1288.29 59.308 1288.75 59.764 1288.75 60.676V62.224C1289.47 61.264 1290.36 60.508 1291.41 59.956C1292.47 59.38 1293.63 59.092 1294.91 59.092C1296.01 59.092 1296.86 59.248 1297.46 59.56C1298.06 59.872 1298.29 60.328 1298.15 60.928C1298.03 61.48 1297.74 61.768 1297.28 61.792C1296.85 61.792 1296.33 61.768 1295.73 61.72C1294.39 61.6 1293.19 61.744 1292.13 62.152C1291.1 62.536 1290.27 63.136 1289.65 63.952C1289.05 64.768 1288.75 65.74 1288.75 66.868V77.632C1288.75 78.544 1288.29 79 1287.38 79ZM1310.02 79.18C1308.1 79.18 1306.39 78.748 1304.88 77.884C1303.36 77.02 1302.18 75.832 1301.31 74.32C1300.45 72.808 1300.02 71.092 1300.02 69.172C1300.02 67.228 1300.45 65.5 1301.31 63.988C1302.18 62.476 1303.36 61.288 1304.88 60.424C1306.39 59.56 1308.1 59.128 1310.02 59.128C1311.94 59.128 1313.65 59.56 1315.14 60.424C1316.65 61.288 1317.84 62.476 1318.7 63.988C1319.56 65.5 1320.01 67.228 1320.03 69.172C1320.03 71.092 1319.59 72.808 1318.7 74.32C1317.84 75.832 1316.65 77.02 1315.14 77.884C1313.65 78.748 1311.94 79.18 1310.02 79.18ZM1310.02 76.66C1311.42 76.66 1312.66 76.336 1313.77 75.688C1314.87 75.04 1315.74 74.152 1316.36 73.024C1316.98 71.896 1317.3 70.612 1317.3 69.172C1317.3 67.732 1316.98 66.448 1316.36 65.32C1315.74 64.168 1314.87 63.268 1313.77 62.62C1312.66 61.972 1311.42 61.648 1310.02 61.648C1308.63 61.648 1307.38 61.972 1306.28 62.62C1305.18 63.268 1304.3 64.168 1303.65 65.32C1303.03 66.448 1302.72 67.732 1302.72 69.172C1302.72 70.612 1303.03 71.896 1303.65 73.024C1304.3 74.152 1305.18 75.04 1306.28 75.688C1307.38 76.336 1308.63 76.66 1310.02 76.66ZM1333.99 79.216C1332.29 79.216 1330.76 78.868 1329.42 78.172C1328.08 77.452 1327.01 76.408 1326.22 75.04C1325.45 73.672 1325.06 72.004 1325.06 70.036V60.676C1325.06 60.292 1325.2 59.968 1325.46 59.704C1325.72 59.44 1326.05 59.308 1326.43 59.308C1326.84 59.308 1327.18 59.44 1327.44 59.704C1327.7 59.968 1327.84 60.292 1327.84 60.676V70.036C1327.84 72.244 1328.45 73.888 1329.67 74.968C1330.9 76.048 1332.43 76.588 1334.28 76.588C1335.46 76.588 1336.51 76.36 1337.45 75.904C1338.41 75.448 1339.16 74.824 1339.72 74.032C1340.27 73.24 1340.54 72.34 1340.54 71.332V60.676C1340.54 60.268 1340.66 59.944 1340.9 59.704C1341.17 59.44 1341.5 59.308 1341.91 59.308C1342.32 59.308 1342.66 59.44 1342.92 59.704C1343.18 59.944 1343.32 60.268 1343.32 60.676V77.596C1343.32 78.028 1343.18 78.376 1342.92 78.64C1342.66 78.88 1342.32 79 1341.91 79C1341.5 79 1341.17 78.88 1340.9 78.64C1340.66 78.376 1340.54 78.028 1340.54 77.596V76.372C1339.75 77.26 1338.79 77.956 1337.66 78.46C1336.54 78.964 1335.31 79.216 1333.99 79.216ZM1355.43 79C1354.85 79 1354.42 78.688 1354.13 78.064L1346.14 61.108C1346 60.796 1345.99 60.484 1346.11 60.172C1346.23 59.86 1346.47 59.62 1346.83 59.452C1347.16 59.284 1347.49 59.26 1347.8 59.38C1348.11 59.5 1348.35 59.716 1348.52 60.028L1355.43 75.004L1362.27 60.028C1362.41 59.692 1362.65 59.476 1362.99 59.38C1363.35 59.26 1363.7 59.272 1364.03 59.416C1364.37 59.584 1364.6 59.836 1364.72 60.172C1364.84 60.484 1364.83 60.784 1364.68 61.072L1356.8 78.064C1356.51 78.688 1356.05 79 1355.43 79ZM1376.82 79.18C1374.88 79.18 1373.15 78.76 1371.64 77.92C1370.15 77.056 1368.97 75.868 1368.11 74.356C1367.27 72.844 1366.85 71.116 1366.85 69.172C1366.85 67.204 1367.24 65.476 1368.04 63.988C1368.85 62.476 1369.97 61.288 1371.38 60.424C1372.8 59.56 1374.43 59.128 1376.28 59.128C1378.1 59.128 1379.69 59.548 1381.03 60.388C1382.4 61.204 1383.46 62.344 1384.2 63.808C1384.94 65.272 1385.32 66.94 1385.32 68.812C1385.32 69.196 1385.2 69.508 1384.96 69.748C1384.72 69.964 1384.4 70.072 1384.02 70.072H1369.48C1369.62 71.368 1370.02 72.52 1370.66 73.528C1371.31 74.512 1372.16 75.292 1373.22 75.868C1374.28 76.42 1375.48 76.696 1376.82 76.696C1377.68 76.696 1378.55 76.552 1379.41 76.264C1380.3 75.952 1381.01 75.568 1381.54 75.112C1381.8 74.896 1382.1 74.788 1382.44 74.788C1382.77 74.764 1383.06 74.848 1383.3 75.04C1383.61 75.328 1383.77 75.64 1383.77 75.976C1383.79 76.312 1383.66 76.6 1383.37 76.84C1382.58 77.512 1381.57 78.076 1380.35 78.532C1379.12 78.964 1377.95 79.18 1376.82 79.18ZM1376.28 61.612C1374.43 61.612 1372.91 62.188 1371.71 63.34C1370.51 64.468 1369.79 65.944 1369.55 67.768H1382.72C1382.53 65.944 1381.86 64.468 1380.71 63.34C1379.58 62.188 1378.1 61.612 1376.28 61.612ZM1375.85 56.32C1375.46 56.32 1375.13 56.188 1374.84 55.924C1374.58 55.636 1374.44 55.3 1374.44 54.916C1374.44 54.532 1374.55 54.22 1374.77 53.98L1378.84 49.912C1379.1 49.648 1379.42 49.516 1379.81 49.516C1380.22 49.516 1380.55 49.66 1380.82 49.948C1381.08 50.212 1381.21 50.548 1381.21 50.956C1381.21 51.124 1381.18 51.292 1381.1 51.46C1381.06 51.628 1380.96 51.772 1380.82 51.892L1376.78 55.96C1376.54 56.2 1376.23 56.32 1375.85 56.32ZM1049.94 119C1048.67 119 1047.53 118.7 1046.52 118.1C1045.54 117.5 1044.76 116.684 1044.18 115.652C1043.61 114.596 1043.32 113.396 1043.32 112.052V102.44H1040.98C1040.62 102.44 1040.32 102.332 1040.08 102.116C1039.84 101.876 1039.72 101.588 1039.72 101.252C1039.72 100.892 1039.84 100.604 1040.08 100.388C1040.32 100.148 1040.62 100.028 1040.98 100.028H1043.32V94.448C1043.32 94.04 1043.44 93.704 1043.68 93.44C1043.94 93.176 1044.28 93.044 1044.69 93.044C1045.1 93.044 1045.43 93.176 1045.7 93.44C1045.96 93.704 1046.09 94.04 1046.09 94.448V100.028H1050.16C1050.52 100.028 1050.82 100.148 1051.06 100.388C1051.3 100.604 1051.42 100.892 1051.42 101.252C1051.42 101.588 1051.3 101.876 1051.06 102.116C1050.82 102.332 1050.52 102.44 1050.16 102.44H1046.09V112.052C1046.09 113.276 1046.45 114.284 1047.17 115.076C1047.89 115.844 1048.82 116.228 1049.94 116.228H1050.92C1051.3 116.228 1051.61 116.36 1051.85 116.624C1052.09 116.888 1052.21 117.224 1052.21 117.632C1052.21 118.04 1052.07 118.376 1051.78 118.64C1051.49 118.88 1051.13 119 1050.7 119H1049.94ZM1065.69 119.18C1063.77 119.18 1062.05 118.748 1060.54 117.884C1059.03 117.02 1057.84 115.832 1056.98 114.32C1056.11 112.808 1055.68 111.092 1055.68 109.172C1055.68 107.228 1056.11 105.5 1056.98 103.988C1057.84 102.476 1059.03 101.288 1060.54 100.424C1062.05 99.56 1063.77 99.128 1065.69 99.128C1067.61 99.128 1069.31 99.56 1070.8 100.424C1072.31 101.288 1073.5 102.476 1074.36 103.988C1075.23 105.5 1075.67 107.228 1075.7 109.172C1075.7 111.092 1075.25 112.808 1074.36 114.32C1073.5 115.832 1072.31 117.02 1070.8 117.884C1069.31 118.748 1067.61 119.18 1065.69 119.18ZM1065.69 116.66C1067.08 116.66 1068.33 116.336 1069.43 115.688C1070.54 115.04 1071.4 114.152 1072.02 113.024C1072.65 111.896 1072.96 110.612 1072.96 109.172C1072.96 107.732 1072.65 106.448 1072.02 105.32C1071.4 104.168 1070.54 103.268 1069.43 102.62C1068.33 101.972 1067.08 101.648 1065.69 101.648C1064.3 101.648 1063.05 101.972 1061.94 102.62C1060.84 103.268 1059.96 104.168 1059.32 105.32C1058.69 106.448 1058.38 107.732 1058.38 109.172C1058.38 110.612 1058.69 111.896 1059.32 113.024C1059.96 114.152 1060.84 115.04 1061.94 115.688C1063.05 116.336 1064.3 116.66 1065.69 116.66ZM1082.49 119C1082.06 119 1081.71 118.88 1081.45 118.64C1081.21 118.376 1081.09 118.04 1081.09 117.632V100.712C1081.09 100.28 1081.21 99.944 1081.45 99.704C1081.71 99.44 1082.06 99.308 1082.49 99.308C1082.9 99.308 1083.22 99.44 1083.46 99.704C1083.73 99.944 1083.86 100.28 1083.86 100.712V101.936C1084.63 101.048 1085.58 100.352 1086.7 99.848C1087.86 99.344 1089.09 99.092 1090.41 99.092C1092.12 99.092 1093.64 99.452 1094.98 100.172C1096.33 100.868 1097.38 101.9 1098.15 103.268C1098.94 104.636 1099.34 106.304 1099.34 108.272V117.632C1099.34 118.016 1099.21 118.34 1098.94 118.604C1098.68 118.868 1098.36 119 1097.97 119C1097.56 119 1097.23 118.868 1096.96 118.604C1096.7 118.34 1096.57 118.016 1096.57 117.632V108.272C1096.57 106.04 1095.94 104.396 1094.7 103.34C1093.47 102.26 1091.95 101.72 1090.12 101.72C1088.95 101.72 1087.88 101.948 1086.92 102.404C1085.98 102.86 1085.24 103.484 1084.69 104.276C1084.14 105.068 1083.86 105.968 1083.86 106.976V117.632C1083.86 118.04 1083.73 118.376 1083.46 118.64C1083.22 118.88 1082.9 119 1082.49 119ZM1124.67 119.18C1122.83 119.18 1121.17 118.748 1119.71 117.884C1118.24 116.996 1117.08 115.796 1116.21 114.284C1115.37 112.772 1114.95 111.068 1114.95 109.172C1114.95 107.252 1115.39 105.536 1116.25 104.024C1117.14 102.512 1118.34 101.324 1119.85 100.46C1121.36 99.572 1123.07 99.128 1124.96 99.128C1126.86 99.128 1128.55 99.572 1130.04 100.46C1131.55 101.324 1132.74 102.512 1133.6 104.024C1134.49 105.536 1134.95 107.252 1134.97 109.172V117.632C1134.97 118.04 1134.84 118.376 1134.57 118.64C1134.31 118.88 1133.97 119 1133.57 119C1133.16 119 1132.82 118.88 1132.56 118.64C1132.29 118.376 1132.16 118.04 1132.16 117.632V115.436C1131.35 116.588 1130.29 117.5 1128.99 118.172C1127.7 118.844 1126.26 119.18 1124.67 119.18ZM1124.96 116.66C1126.35 116.66 1127.59 116.336 1128.67 115.688C1129.77 115.04 1130.64 114.152 1131.26 113.024C1131.91 111.872 1132.23 110.588 1132.23 109.172C1132.23 107.732 1131.91 106.448 1131.26 105.32C1130.64 104.192 1129.77 103.304 1128.67 102.656C1127.59 101.984 1126.35 101.648 1124.96 101.648C1123.59 101.648 1122.36 101.984 1121.25 102.656C1120.15 103.304 1119.27 104.192 1118.63 105.32C1117.98 106.448 1117.65 107.732 1117.65 109.172C1117.65 110.588 1117.98 111.872 1118.63 113.024C1119.27 114.152 1120.15 115.04 1121.25 115.688C1122.36 116.336 1123.59 116.66 1124.96 116.66ZM1120.79 96.176C1120.38 96.176 1120.03 96.068 1119.74 95.852C1119.48 95.612 1119.35 95.3 1119.35 94.916C1119.35 94.412 1119.57 94.004 1120.03 93.692L1124.28 90.884C1124.47 90.764 1124.7 90.704 1124.96 90.704C1125.2 90.704 1125.44 90.764 1125.68 90.884L1129.89 93.692C1130.35 94.004 1130.58 94.412 1130.58 94.916C1130.58 95.276 1130.45 95.576 1130.18 95.816C1129.92 96.056 1129.58 96.176 1129.17 96.176C1129.01 96.176 1128.85 96.152 1128.71 96.104C1128.59 96.056 1128.45 95.984 1128.31 95.888L1124.96 93.584L1121.61 95.888C1121.35 96.08 1121.07 96.176 1120.79 96.176ZM1141.77 119C1141.33 119 1140.99 118.88 1140.72 118.64C1140.48 118.376 1140.36 118.04 1140.36 117.632V100.712C1140.36 100.304 1140.48 99.968 1140.72 99.704C1140.99 99.44 1141.33 99.308 1141.77 99.308C1142.17 99.308 1142.5 99.44 1142.74 99.704C1143 99.968 1143.13 100.304 1143.13 100.712V101.504C1143.81 100.736 1144.6 100.148 1145.51 99.74C1146.42 99.308 1147.43 99.092 1148.53 99.092C1149.88 99.092 1151.07 99.392 1152.1 99.992C1153.15 100.592 1153.99 101.42 1154.62 102.476C1155.29 101.42 1156.19 100.592 1157.32 99.992C1158.45 99.392 1159.71 99.092 1161.1 99.092C1162.51 99.092 1163.76 99.428 1164.84 100.1C1165.95 100.772 1166.8 101.72 1167.4 102.944C1168.02 104.168 1168.33 105.608 1168.33 107.264V117.632C1168.33 118.04 1168.2 118.376 1167.94 118.64C1167.7 118.88 1167.37 119 1166.97 119C1166.56 119 1166.22 118.88 1165.96 118.64C1165.69 118.376 1165.56 118.04 1165.56 117.632V107.264C1165.56 105.56 1165.12 104.216 1164.23 103.232C1163.34 102.224 1162.2 101.72 1160.81 101.72C1159.32 101.72 1158.1 102.224 1157.14 103.232C1156.2 104.216 1155.75 105.536 1155.77 107.192V107.264V117.632C1155.77 118.04 1155.64 118.376 1155.37 118.64C1155.13 118.88 1154.81 119 1154.4 119C1153.99 119 1153.66 118.88 1153.39 118.64C1153.13 118.376 1153 118.04 1153 117.632V107.264C1153 105.56 1152.55 104.216 1151.67 103.232C1150.78 102.224 1149.64 101.72 1148.25 101.72C1146.76 101.72 1145.53 102.212 1144.57 103.196C1143.61 104.156 1143.13 105.416 1143.13 106.976V117.632C1143.13 118.04 1143 118.376 1142.74 118.64C1142.5 118.88 1142.17 119 1141.77 119ZM1183.39 119.18C1181.45 119.18 1179.72 118.76 1178.21 117.92C1176.72 117.056 1175.54 115.868 1174.68 114.356C1173.84 112.844 1173.42 111.116 1173.42 109.172C1173.42 107.204 1173.81 105.476 1174.61 103.988C1175.42 102.476 1176.54 101.288 1177.95 100.424C1179.37 99.56 1181 99.128 1182.85 99.128C1184.67 99.128 1186.26 99.548 1187.6 100.388C1188.97 101.204 1190.03 102.344 1190.77 103.808C1191.51 105.272 1191.89 106.94 1191.89 108.812C1191.89 109.196 1191.77 109.508 1191.53 109.748C1191.29 109.964 1190.97 110.072 1190.59 110.072H1176.05C1176.19 111.368 1176.59 112.52 1177.23 113.528C1177.88 114.512 1178.73 115.292 1179.79 115.868C1180.85 116.42 1182.05 116.696 1183.39 116.696C1184.25 116.696 1185.12 116.552 1185.98 116.264C1186.87 115.952 1187.58 115.568 1188.11 115.112C1188.37 114.896 1188.67 114.788 1189.01 114.788C1189.34 114.764 1189.63 114.848 1189.87 115.04C1190.18 115.328 1190.34 115.64 1190.34 115.976C1190.36 116.312 1190.23 116.6 1189.94 116.84C1189.15 117.512 1188.14 118.076 1186.92 118.532C1185.69 118.964 1184.52 119.18 1183.39 119.18ZM1182.85 101.612C1181 101.612 1179.48 102.188 1178.28 103.34C1177.08 104.468 1176.36 105.944 1176.12 107.768H1189.29C1189.1 105.944 1188.43 104.468 1187.28 103.34C1186.15 102.188 1184.67 101.612 1182.85 101.612ZM1214 119.18C1212.58 119.18 1211.18 118.94 1209.79 118.46C1208.39 117.98 1207.27 117.26 1206.4 116.3C1206.14 116.012 1206.03 115.688 1206.08 115.328C1206.13 114.968 1206.31 114.656 1206.62 114.392C1206.95 114.152 1207.3 114.056 1207.66 114.104C1208.02 114.152 1208.32 114.308 1208.56 114.572C1209.14 115.244 1209.89 115.76 1210.83 116.12C1211.79 116.48 1212.85 116.66 1214 116.66C1215.77 116.66 1217.06 116.36 1217.85 115.76C1218.64 115.136 1219.05 114.392 1219.07 113.528C1219.07 112.664 1218.67 111.956 1217.85 111.404C1217.03 110.828 1215.69 110.384 1213.82 110.072C1211.39 109.688 1209.62 109.016 1208.49 108.056C1207.36 107.096 1206.8 105.956 1206.8 104.636C1206.8 103.412 1207.12 102.392 1207.77 101.576C1208.42 100.76 1209.28 100.148 1210.36 99.74C1211.44 99.332 1212.63 99.128 1213.93 99.128C1215.53 99.128 1216.91 99.404 1218.07 99.956C1219.24 100.508 1220.19 101.252 1220.91 102.188C1221.15 102.5 1221.25 102.824 1221.2 103.16C1221.15 103.496 1220.96 103.772 1220.62 103.988C1220.33 104.156 1220 104.216 1219.61 104.168C1219.25 104.096 1218.94 103.916 1218.68 103.628C1217.5 102.284 1215.89 101.612 1213.85 101.612C1212.53 101.612 1211.48 101.888 1210.69 102.44C1209.89 102.968 1209.5 103.64 1209.5 104.456C1209.5 105.272 1209.85 105.944 1210.54 106.472C1211.26 107 1212.61 107.432 1214.57 107.768C1216.37 108.056 1217.79 108.488 1218.82 109.064C1219.88 109.616 1220.62 110.276 1221.05 111.044C1221.51 111.788 1221.74 112.604 1221.74 113.492C1221.74 114.62 1221.4 115.616 1220.73 116.48C1220.08 117.32 1219.17 117.98 1217.99 118.46C1216.84 118.94 1215.51 119.18 1214 119.18ZM1235.49 119.18C1233.57 119.18 1231.86 118.748 1230.35 117.884C1228.83 117.02 1227.65 115.832 1226.78 114.32C1225.92 112.808 1225.49 111.092 1225.49 109.172C1225.49 107.228 1225.92 105.5 1226.78 103.988C1227.65 102.476 1228.83 101.288 1230.35 100.424C1231.86 99.56 1233.57 99.128 1235.49 99.128C1237.41 99.128 1239.12 99.56 1240.61 100.424C1242.12 101.288 1243.31 102.476 1244.17 103.988C1245.03 105.5 1245.48 107.228 1245.5 109.172C1245.5 111.092 1245.06 112.808 1244.17 114.32C1243.31 115.832 1242.12 117.02 1240.61 117.884C1239.12 118.748 1237.41 119.18 1235.49 119.18ZM1235.49 116.66C1236.89 116.66 1238.13 116.336 1239.24 115.688C1240.34 115.04 1241.21 114.152 1241.83 113.024C1242.45 111.896 1242.77 110.612 1242.77 109.172C1242.77 107.732 1242.45 106.448 1241.83 105.32C1241.21 104.168 1240.34 103.268 1239.24 102.62C1238.13 101.972 1236.89 101.648 1235.49 101.648C1234.1 101.648 1232.85 101.972 1231.75 102.62C1230.65 103.268 1229.77 104.168 1229.12 105.32C1228.5 106.448 1228.19 107.732 1228.19 109.172C1228.19 110.612 1228.5 111.896 1229.12 113.024C1229.77 114.152 1230.65 115.04 1231.75 115.688C1232.85 116.336 1234.1 116.66 1235.49 116.66ZM1259.82 119.18C1257.88 119.18 1256.15 118.76 1254.64 117.92C1253.15 117.056 1251.97 115.868 1251.11 114.356C1250.27 112.844 1249.85 111.116 1249.85 109.172C1249.85 107.204 1250.24 105.476 1251.04 103.988C1251.85 102.476 1252.97 101.288 1254.38 100.424C1255.8 99.56 1257.43 99.128 1259.28 99.128C1261.1 99.128 1262.69 99.548 1264.03 100.388C1265.4 101.204 1266.46 102.344 1267.2 103.808C1267.94 105.272 1268.32 106.94 1268.32 108.812C1268.32 109.196 1268.2 109.508 1267.96 109.748C1267.72 109.964 1267.4 110.072 1267.02 110.072H1252.48C1252.62 111.368 1253.02 112.52 1253.66 113.528C1254.31 114.512 1255.16 115.292 1256.22 115.868C1257.28 116.42 1258.48 116.696 1259.82 116.696C1260.68 116.696 1261.55 116.552 1262.41 116.264C1263.3 115.952 1264.01 115.568 1264.54 115.112C1264.8 114.896 1265.1 114.788 1265.44 114.788C1265.77 114.764 1266.06 114.848 1266.3 115.04C1266.61 115.328 1266.77 115.64 1266.77 115.976C1266.79 116.312 1266.66 116.6 1266.37 116.84C1265.58 117.512 1264.57 118.076 1263.35 118.532C1262.12 118.964 1260.95 119.18 1259.82 119.18ZM1259.28 101.612C1257.43 101.612 1255.91 102.188 1254.71 103.34C1253.51 104.468 1252.79 105.944 1252.55 107.768H1265.72C1265.53 105.944 1264.86 104.468 1263.71 103.34C1262.58 102.188 1261.1 101.612 1259.28 101.612ZM1281.57 119.216C1279.87 119.216 1278.35 118.868 1277 118.172C1275.66 117.452 1274.59 116.408 1273.8 115.04C1273.03 113.672 1272.65 112.004 1272.65 110.036V100.676C1272.65 100.292 1272.78 99.968 1273.04 99.704C1273.31 99.44 1273.63 99.308 1274.01 99.308C1274.42 99.308 1274.76 99.44 1275.02 99.704C1275.29 99.968 1275.42 100.292 1275.42 100.676V110.036C1275.42 112.244 1276.03 113.888 1277.25 114.968C1278.48 116.048 1280.01 116.588 1281.86 116.588C1283.04 116.588 1284.09 116.36 1285.03 115.904C1285.99 115.448 1286.75 114.824 1287.3 114.032C1287.85 113.24 1288.13 112.34 1288.13 111.332V100.676C1288.13 100.268 1288.25 99.944 1288.49 99.704C1288.75 99.44 1289.09 99.308 1289.49 99.308C1289.9 99.308 1290.24 99.44 1290.5 99.704C1290.77 99.944 1290.9 100.268 1290.9 100.676V117.596C1290.9 118.028 1290.77 118.376 1290.5 118.64C1290.24 118.88 1289.9 119 1289.49 119C1289.09 119 1288.75 118.88 1288.49 118.64C1288.25 118.376 1288.13 118.028 1288.13 117.596V116.372C1287.33 117.26 1286.37 117.956 1285.25 118.46C1284.12 118.964 1282.89 119.216 1281.57 119.216ZM1298.74 119C1297.82 119 1297.37 118.544 1297.37 117.632V100.676C1297.37 99.764 1297.82 99.308 1298.74 99.308C1299.65 99.308 1300.1 99.764 1300.1 100.676V102.224C1300.82 101.264 1301.71 100.508 1302.77 99.956C1303.82 99.38 1304.99 99.092 1306.26 99.092C1307.36 99.092 1308.22 99.248 1308.82 99.56C1309.42 99.872 1309.64 100.328 1309.5 100.928C1309.38 101.48 1309.09 101.768 1308.64 101.792C1308.2 101.792 1307.69 101.768 1307.09 101.72C1305.74 101.6 1304.54 101.744 1303.49 102.152C1302.46 102.536 1301.63 103.136 1301 103.952C1300.4 104.768 1300.1 105.74 1300.1 106.868V117.632C1300.1 118.544 1299.65 119 1298.74 119ZM1325.05 112.628C1324.67 112.628 1324.33 112.496 1324.04 112.232C1323.78 111.944 1323.65 111.608 1323.65 111.224V92.288C1323.65 91.88 1323.78 91.544 1324.04 91.28C1324.33 90.992 1324.67 90.848 1325.05 90.848C1325.46 90.848 1325.8 90.992 1326.06 91.28C1326.32 91.544 1326.46 91.88 1326.46 92.288V111.224C1326.46 111.608 1326.31 111.944 1326.02 112.232C1325.74 112.496 1325.41 112.628 1325.05 112.628ZM1325.05 119C1324.48 119 1323.98 118.796 1323.58 118.388C1323.17 117.98 1322.96 117.488 1322.96 116.912C1322.96 116.312 1323.17 115.808 1323.58 115.4C1323.98 114.992 1324.48 114.788 1325.05 114.788C1325.63 114.788 1326.12 115.004 1326.53 115.436C1326.94 115.844 1327.14 116.336 1327.14 116.912C1327.14 117.488 1326.94 117.98 1326.53 118.388C1326.12 118.796 1325.63 119 1325.05 119Z" fill="#45396D"/>
        <circle cx="1155.5" cy="174.5" r="7.5" stroke="#45396D" stroke-width="2"/>
        <circle cx="1132" cy="148" r="12" stroke="#45396D" stroke-width="2"/>
        <circle cx="1173.5" cy="193.5" r="4.5" stroke="#45396D" stroke-width="2"/>
        <path d="M172.79 208.065C173.478 207.98 173.959 208.749 173.557 209.297C172.425 210.836 169.995 213.134 165.262 213.917C157.927 215.13 153.679 208.867 146.208 206.721C145.748 206.592 145.582 206.045 145.931 205.73C148.09 203.801 154.067 198.817 159.534 197.499C165.873 195.967 172.002 196.69 174.351 202.868C174.68 203.733 174.223 204.684 173.34 204.982C171.05 205.771 166.382 206.912 161.314 205.56C161.314 205.56 163.345 209.197 172.79 208.065Z" fill="#04D99D"/>
        <path d="M226.918 184.911C226.548 184.817 226.455 184.327 226.771 184.126C227.66 183.563 229.366 182.871 231.95 183.417C235.955 184.263 236.88 188.326 240.283 190.922C240.493 191.08 240.468 191.394 240.226 191.485C238.733 192.043 234.669 193.403 231.601 192.984C228.044 192.501 225.045 190.903 225.077 187.264C225.081 186.755 225.506 186.359 226.018 186.383C227.351 186.436 229.974 186.785 232.302 188.493C232.302 188.493 231.989 186.221 226.918 184.911Z" fill="#04D99D"/>
        <path d="M191.274 176.715C191.493 177.02 191.254 177.449 190.888 177.402C189.86 177.265 188.133 176.71 186.523 174.665C184.03 171.494 185.898 167.837 184.966 163.724C184.907 163.472 185.124 163.25 185.365 163.334C186.846 163.856 190.778 165.395 192.833 167.651C195.218 170.264 196.476 173.368 194.152 176.099C193.827 176.481 193.255 176.512 192.883 176.171C191.91 175.288 190.147 173.366 189.466 170.603C189.466 170.603 188.267 172.52 191.274 176.715Z" fill="#03A678"/>
        <path d="M245.745 139.787C244.989 140.426 243.811 139.883 243.862 138.913C244.012 136.186 245.119 131.535 250.168 126.892C257.992 119.698 267.979 123.864 278.596 120.581C279.247 120.376 279.873 120.9 279.702 121.55C278.63 125.548 275.383 136.19 269.875 142.048C263.491 148.842 255.593 152.777 247.947 147.226C246.877 146.448 246.678 144.953 247.501 143.906C249.622 141.169 254.313 136.148 261.434 133.798C261.434 133.798 256.156 131.037 245.745 139.787Z" fill="#025949"/>
        <path d="M850.5 724.646C1052.55 698.908 1328.5 697.423 1440 689V800H0V703.658C319.5 724.414 576 759.614 850.5 724.646Z" fill="#025949"/>
    </g>
    <defs>
        <linearGradient id="paint0_linear" x1="-633.441" y1="63.0522" x2="1822.43" y2="-382.134" gradientUnits="userSpaceOnUse">
            <stop stop-color="white"/>
            <stop offset="1" stop-color="#FDECE0"/>
        </linearGradient>
        <linearGradient id="paint1_linear" x1="-216.078" y1="99.2788" x2="1597.93" y2="-229.555" gradientUnits="userSpaceOnUse">
            <stop stop-color="white"/>
            <stop offset="1" stop-color="#FDECE0"/>
        </linearGradient>
        <clipPath id="clip0">
            <rect width="1440" height="800" fill="white"/>
        </clipPath>
    </defs>
</svg>
