<svg width="1440" height="800" viewBox="0 0 1440 800" fill="none" xmlns="http://www.w3.org/2000/svg">
    <g clip-path="url(#clip0)">
        <rect width="1440" height="800" fill="white"/>
        <path d="M1606.88 -1571.27C1608.16 -1564.19 -417.879 1252.19 -417.879 1252.19L684.768 1052.31L1606.88 -1571.27Z" fill="url(#paint0_linear)" fill-opacity="0.5"/>
        <path d="M1397.33 -1336.23C1398.52 -1329.65 -15.4643 1205.97 -15.4643 1205.97L798.999 1058.32L1397.33 -1336.23Z" fill="url(#paint1_linear)" fill-opacity="0.5"/>
        <path d="M394.891 83C394.435 83 394.051 82.88 393.739 82.64C393.451 82.376 393.307 82.028 393.307 81.596V56.288C393.307 55.88 393.439 55.544 393.703 55.28C393.967 55.016 394.303 54.884 394.711 54.884H403.459C404.899 54.884 406.195 55.196 407.347 55.82C408.523 56.42 409.447 57.248 410.119 58.304C410.815 59.36 411.163 60.584 411.163 61.976C411.163 63.272 410.815 64.424 410.119 65.432C409.423 66.44 408.511 67.208 407.383 67.736C408.991 68.168 410.287 68.984 411.271 70.184C412.255 71.36 412.747 72.86 412.747 74.684C412.747 76.316 412.375 77.756 411.631 79.004C410.887 80.252 409.855 81.236 408.535 81.956C407.239 82.652 405.751 83 404.071 83H394.891ZM396.115 80.3H404.071C405.223 80.3 406.243 80.072 407.131 79.616C408.019 79.16 408.715 78.512 409.219 77.672C409.723 76.832 409.975 75.836 409.975 74.684C409.975 73.604 409.723 72.668 409.219 71.876C408.715 71.06 408.019 70.436 407.131 70.004C406.243 69.548 405.223 69.32 404.071 69.32H396.115V80.3ZM396.115 66.62H403.459C404.899 66.62 406.087 66.212 407.023 65.396C407.959 64.58 408.427 63.44 408.427 61.976C408.427 60.536 407.959 59.444 407.023 58.7C406.087 57.956 404.899 57.584 403.459 57.584H396.115V66.62ZM419.13 70.868C419.202 69.38 419.586 68.048 420.282 66.872C421.002 65.696 421.926 64.772 423.054 64.1C424.206 63.428 425.478 63.092 426.87 63.092C427.974 63.092 428.826 63.248 429.426 63.56C430.026 63.872 430.254 64.328 430.11 64.928C430.014 65.288 429.846 65.528 429.606 65.648C429.39 65.768 429.114 65.816 428.778 65.792C428.466 65.768 428.106 65.744 427.698 65.72C426.354 65.6 425.154 65.744 424.098 66.152C423.066 66.536 422.238 67.136 421.614 67.952C421.014 68.768 420.714 69.74 420.714 70.868H419.13ZM419.346 83C418.914 83 418.578 82.88 418.338 82.64C418.098 82.4 417.978 82.064 417.978 81.632V64.676C417.978 64.244 418.098 63.908 418.338 63.668C418.578 63.428 418.914 63.308 419.346 63.308C419.778 63.308 420.114 63.428 420.354 63.668C420.594 63.908 420.714 64.244 420.714 64.676V81.632C420.714 82.064 420.594 82.4 420.354 82.64C420.114 82.88 419.778 83 419.346 83ZM441.701 83.18C439.853 83.18 438.197 82.748 436.733 81.884C435.269 80.996 434.105 79.796 433.241 78.284C432.401 76.772 431.981 75.068 431.981 73.172C431.981 71.252 432.413 69.536 433.277 68.024C434.165 66.512 435.365 65.324 436.877 64.46C438.389 63.572 440.093 63.128 441.989 63.128C443.885 63.128 445.577 63.572 447.065 64.46C448.577 65.324 449.765 66.512 450.629 68.024C451.517 69.536 451.973 71.252 451.997 73.172L450.881 74.036C450.881 75.764 450.473 77.324 449.657 78.716C448.865 80.084 447.773 81.176 446.381 81.992C445.013 82.784 443.453 83.18 441.701 83.18ZM441.989 80.66C443.381 80.66 444.617 80.336 445.697 79.688C446.801 79.04 447.665 78.152 448.289 77.024C448.937 75.872 449.261 74.588 449.261 73.172C449.261 71.732 448.937 70.448 448.289 69.32C447.665 68.192 446.801 67.304 445.697 66.656C444.617 65.984 443.381 65.648 441.989 65.648C440.621 65.648 439.385 65.984 438.281 66.656C437.177 67.304 436.301 68.192 435.653 69.32C435.005 70.448 434.681 71.732 434.681 73.172C434.681 74.588 435.005 75.872 435.653 77.024C436.301 78.152 437.177 79.04 438.281 79.688C439.385 80.336 440.621 80.66 441.989 80.66ZM450.593 83C450.185 83 449.849 82.88 449.585 82.64C449.321 82.376 449.189 82.04 449.189 81.632V75.476L449.873 72.632L451.997 73.172V81.632C451.997 82.04 451.865 82.376 451.601 82.64C451.337 82.88 451.001 83 450.593 83ZM463.031 83C462.455 83 462.023 82.688 461.735 82.064L453.743 65.108C453.599 64.796 453.587 64.484 453.707 64.172C453.827 63.86 454.067 63.62 454.427 63.452C454.763 63.284 455.087 63.26 455.399 63.38C455.711 63.5 455.951 63.716 456.119 64.028L463.787 80.624H462.311L469.871 64.028C470.015 63.692 470.255 63.476 470.591 63.38C470.951 63.26 471.299 63.272 471.635 63.416C471.971 63.584 472.199 63.836 472.319 64.172C472.439 64.484 472.427 64.784 472.283 65.072L464.399 82.064C464.111 82.688 463.655 83 463.031 83ZM484.458 83.18C482.538 83.18 480.822 82.748 479.31 81.884C477.798 81.02 476.61 79.832 475.746 78.32C474.882 76.808 474.45 75.092 474.45 73.172C474.45 71.228 474.882 69.5 475.746 67.988C476.61 66.476 477.798 65.288 479.31 64.424C480.822 63.56 482.538 63.128 484.458 63.128C486.378 63.128 488.082 63.56 489.57 64.424C491.082 65.288 492.27 66.476 493.134 67.988C493.998 69.5 494.442 71.228 494.466 73.172C494.466 75.092 494.022 76.808 493.134 78.32C492.27 79.832 491.082 81.02 489.57 81.884C488.082 82.748 486.378 83.18 484.458 83.18ZM484.458 80.66C485.85 80.66 487.098 80.336 488.202 79.688C489.306 79.04 490.17 78.152 490.794 77.024C491.418 75.896 491.73 74.612 491.73 73.172C491.73 71.732 491.418 70.448 490.794 69.32C490.17 68.168 489.306 67.268 488.202 66.62C487.098 65.972 485.85 65.648 484.458 65.648C483.066 65.648 481.818 65.972 480.714 66.62C479.61 67.268 478.734 68.168 478.086 69.32C477.462 70.448 477.15 71.732 477.15 73.172C477.15 74.612 477.462 75.896 478.086 77.024C478.734 78.152 479.61 79.04 480.714 79.688C481.818 80.336 483.066 80.66 484.458 80.66ZM499.533 88.832C499.293 88.832 499.101 88.76 498.957 88.616C498.837 88.496 498.777 88.328 498.777 88.112C498.777 87.752 498.885 87.416 499.101 87.104C499.317 86.816 499.533 86.504 499.749 86.168C499.989 85.832 500.109 85.424 500.109 84.944C500.109 84.512 500.025 84.152 499.857 83.864C499.689 83.576 499.485 83.312 499.245 83.072C499.029 82.856 498.837 82.616 498.669 82.352C498.501 82.064 498.417 81.716 498.417 81.308C498.417 80.708 498.609 80.228 498.993 79.868C499.401 79.508 499.905 79.328 500.505 79.328C501.225 79.328 501.813 79.616 502.269 80.192C502.725 80.744 502.953 81.524 502.953 82.532C502.953 83.204 502.857 83.912 502.665 84.656C502.473 85.4 502.209 86.084 501.873 86.708C501.537 87.356 501.165 87.872 500.757 88.256C500.349 88.64 499.941 88.832 499.533 88.832ZM526.229 83C524.957 83 523.817 82.7 522.809 82.1C521.825 81.5 521.045 80.684 520.469 79.652C519.893 78.596 519.605 77.396 519.605 76.052V58.448C519.605 58.04 519.725 57.704 519.965 57.44C520.229 57.176 520.565 57.044 520.973 57.044C521.381 57.044 521.717 57.176 521.981 57.44C522.245 57.704 522.377 58.04 522.377 58.448V76.052C522.377 77.276 522.737 78.284 523.457 79.076C524.177 79.844 525.101 80.228 526.229 80.228H527.201C527.585 80.228 527.897 80.36 528.137 80.624C528.377 80.888 528.497 81.224 528.497 81.632C528.497 82.04 528.353 82.376 528.065 82.64C527.777 82.88 527.417 83 526.985 83H526.229ZM517.265 66.44C516.905 66.44 516.605 66.332 516.365 66.116C516.125 65.876 516.005 65.588 516.005 65.252C516.005 64.892 516.125 64.604 516.365 64.388C516.605 64.148 516.905 64.028 517.265 64.028H526.445C526.805 64.028 527.105 64.148 527.345 64.388C527.585 64.604 527.705 64.892 527.705 65.252C527.705 65.588 527.585 65.876 527.345 66.116C527.105 66.332 526.805 66.44 526.445 66.44H517.265ZM541.578 83.216C539.874 83.216 538.35 82.868 537.006 82.172C535.662 81.452 534.594 80.408 533.802 79.04C533.034 77.672 532.65 76.004 532.65 74.036V64.676C532.65 64.292 532.782 63.968 533.046 63.704C533.31 63.44 533.634 63.308 534.018 63.308C534.426 63.308 534.762 63.44 535.026 63.704C535.29 63.968 535.422 64.292 535.422 64.676V74.036C535.422 75.524 535.698 76.748 536.25 77.708C536.826 78.668 537.594 79.388 538.554 79.868C539.538 80.348 540.642 80.588 541.866 80.588C543.042 80.588 544.098 80.36 545.034 79.904C545.994 79.448 546.75 78.824 547.302 78.032C547.854 77.24 548.13 76.34 548.13 75.332H550.11C550.038 76.844 549.618 78.2 548.85 79.4C548.106 80.576 547.098 81.512 545.826 82.208C544.554 82.88 543.138 83.216 541.578 83.216ZM549.498 83C549.09 83 548.754 82.88 548.49 82.64C548.25 82.376 548.13 82.028 548.13 81.596V64.676C548.13 64.268 548.25 63.944 548.49 63.704C548.754 63.44 549.09 63.308 549.498 63.308C549.906 63.308 550.242 63.44 550.506 63.704C550.77 63.944 550.902 64.268 550.902 64.676V81.596C550.902 82.028 550.77 82.376 550.506 82.64C550.242 82.88 549.906 83 549.498 83ZM576.596 83.18C574.748 83.18 573.092 82.748 571.628 81.884C570.164 80.996 569 79.796 568.136 78.284C567.296 76.772 566.876 75.068 566.876 73.172C566.876 71.252 567.308 69.536 568.172 68.024C569.06 66.512 570.26 65.324 571.772 64.46C573.284 63.572 574.988 63.128 576.884 63.128C578.78 63.128 580.472 63.572 581.96 64.46C583.472 65.324 584.66 66.512 585.524 68.024C586.412 69.536 586.868 71.252 586.892 73.172L585.776 74.036C585.776 75.764 585.368 77.324 584.552 78.716C583.76 80.084 582.668 81.176 581.276 81.992C579.908 82.784 578.348 83.18 576.596 83.18ZM576.884 80.66C578.276 80.66 579.512 80.336 580.592 79.688C581.696 79.04 582.56 78.152 583.184 77.024C583.832 75.872 584.156 74.588 584.156 73.172C584.156 71.732 583.832 70.448 583.184 69.32C582.56 68.192 581.696 67.304 580.592 66.656C579.512 65.984 578.276 65.648 576.884 65.648C575.516 65.648 574.28 65.984 573.176 66.656C572.072 67.304 571.196 68.192 570.548 69.32C569.9 70.448 569.576 71.732 569.576 73.172C569.576 74.588 569.9 75.872 570.548 77.024C571.196 78.152 572.072 79.04 573.176 79.688C574.28 80.336 575.516 80.66 576.884 80.66ZM585.488 83C585.08 83 584.744 82.88 584.48 82.64C584.216 82.376 584.084 82.04 584.084 81.632V75.476L584.768 72.632L586.892 73.172V81.632C586.892 82.04 586.76 82.376 586.496 82.64C586.232 82.88 585.896 83 585.488 83ZM599.159 83.18C597.743 83.18 596.339 82.94 594.947 82.46C593.555 81.98 592.427 81.26 591.563 80.3C591.299 80.012 591.191 79.688 591.239 79.328C591.287 78.968 591.467 78.656 591.779 78.392C592.115 78.152 592.463 78.056 592.823 78.104C593.183 78.152 593.483 78.308 593.723 78.572C594.299 79.244 595.055 79.76 595.991 80.12C596.951 80.48 598.007 80.66 599.159 80.66C600.935 80.66 602.219 80.36 603.011 79.76C603.803 79.136 604.211 78.392 604.235 77.528C604.235 76.664 603.827 75.956 603.011 75.404C602.195 74.828 600.851 74.384 598.979 74.072C596.555 73.688 594.779 73.016 593.651 72.056C592.523 71.096 591.959 69.956 591.959 68.636C591.959 67.412 592.283 66.392 592.931 65.576C593.579 64.76 594.443 64.148 595.523 63.74C596.603 63.332 597.791 63.128 599.087 63.128C600.695 63.128 602.075 63.404 603.227 63.956C604.403 64.508 605.351 65.252 606.071 66.188C606.311 66.5 606.407 66.824 606.359 67.16C606.311 67.496 606.119 67.772 605.783 67.988C605.495 68.156 605.159 68.216 604.775 68.168C604.415 68.096 604.103 67.916 603.839 67.628C603.239 66.932 602.543 66.428 601.751 66.116C600.959 65.78 600.047 65.612 599.015 65.612C597.695 65.612 596.639 65.888 595.847 66.44C595.055 66.968 594.659 67.64 594.659 68.456C594.659 69.008 594.803 69.488 595.091 69.896C595.403 70.304 595.919 70.664 596.639 70.976C597.383 71.288 598.415 71.552 599.735 71.768C601.535 72.056 602.951 72.488 603.983 73.064C605.039 73.616 605.783 74.276 606.215 75.044C606.671 75.788 606.899 76.604 606.899 77.492C606.899 78.62 606.563 79.616 605.891 80.48C605.243 81.32 604.331 81.98 603.155 82.46C602.003 82.94 600.671 83.18 599.159 83.18ZM629.94 83C628.668 83 627.528 82.7 626.52 82.1C625.536 81.5 624.756 80.684 624.18 79.652C623.604 78.596 623.316 77.396 623.316 76.052V58.448C623.316 58.04 623.436 57.704 623.676 57.44C623.94 57.176 624.276 57.044 624.684 57.044C625.092 57.044 625.428 57.176 625.692 57.44C625.956 57.704 626.088 58.04 626.088 58.448V76.052C626.088 77.276 626.448 78.284 627.168 79.076C627.888 79.844 628.812 80.228 629.94 80.228H630.912C631.296 80.228 631.608 80.36 631.848 80.624C632.088 80.888 632.208 81.224 632.208 81.632C632.208 82.04 632.064 82.376 631.776 82.64C631.488 82.88 631.128 83 630.696 83H629.94ZM620.976 66.44C620.616 66.44 620.316 66.332 620.076 66.116C619.836 65.876 619.716 65.588 619.716 65.252C619.716 64.892 619.836 64.604 620.076 64.388C620.316 64.148 620.616 64.028 620.976 64.028H630.156C630.516 64.028 630.816 64.148 631.056 64.388C631.296 64.604 631.416 64.892 631.416 65.252C631.416 65.588 631.296 65.876 631.056 66.116C630.816 66.332 630.516 66.44 630.156 66.44H620.976ZM637.872 70.868C637.944 69.38 638.328 68.048 639.024 66.872C639.744 65.696 640.668 64.772 641.796 64.1C642.948 63.428 644.22 63.092 645.612 63.092C646.716 63.092 647.568 63.248 648.168 63.56C648.768 63.872 648.996 64.328 648.852 64.928C648.756 65.288 648.588 65.528 648.348 65.648C648.132 65.768 647.856 65.816 647.52 65.792C647.208 65.768 646.848 65.744 646.44 65.72C645.096 65.6 643.896 65.744 642.84 66.152C641.808 66.536 640.98 67.136 640.356 67.952C639.756 68.768 639.456 69.74 639.456 70.868H637.872ZM638.088 83C637.656 83 637.32 82.88 637.08 82.64C636.84 82.4 636.72 82.064 636.72 81.632V64.676C636.72 64.244 636.84 63.908 637.08 63.668C637.32 63.428 637.656 63.308 638.088 63.308C638.52 63.308 638.856 63.428 639.096 63.668C639.336 63.908 639.456 64.244 639.456 64.676V81.632C639.456 82.064 639.336 82.4 639.096 82.64C638.856 82.88 638.52 83 638.088 83ZM660.731 83.18C658.811 83.18 657.095 82.748 655.583 81.884C654.071 81.02 652.883 79.832 652.019 78.32C651.155 76.808 650.723 75.092 650.723 73.172C650.723 71.228 651.155 69.5 652.019 67.988C652.883 66.476 654.071 65.288 655.583 64.424C657.095 63.56 658.811 63.128 660.731 63.128C662.651 63.128 664.355 63.56 665.843 64.424C667.355 65.288 668.543 66.476 669.407 67.988C670.271 69.5 670.715 71.228 670.739 73.172C670.739 75.092 670.295 76.808 669.407 78.32C668.543 79.832 667.355 81.02 665.843 81.884C664.355 82.748 662.651 83.18 660.731 83.18ZM660.731 80.66C662.123 80.66 663.371 80.336 664.475 79.688C665.579 79.04 666.443 78.152 667.067 77.024C667.691 75.896 668.003 74.612 668.003 73.172C668.003 71.732 667.691 70.448 667.067 69.32C666.443 68.168 665.579 67.268 664.475 66.62C663.371 65.972 662.123 65.648 660.731 65.648C659.339 65.648 658.091 65.972 656.987 66.62C655.883 67.268 655.007 68.168 654.359 69.32C653.735 70.448 653.423 71.732 653.423 73.172C653.423 74.612 653.735 75.896 654.359 77.024C655.007 78.152 655.883 79.04 656.987 79.688C658.091 80.336 659.339 80.66 660.731 80.66ZM684.699 83.216C682.995 83.216 681.471 82.868 680.127 82.172C678.783 81.452 677.715 80.408 676.923 79.04C676.155 77.672 675.771 76.004 675.771 74.036V64.676C675.771 64.292 675.903 63.968 676.167 63.704C676.431 63.44 676.755 63.308 677.139 63.308C677.547 63.308 677.883 63.44 678.147 63.704C678.411 63.968 678.543 64.292 678.543 64.676V74.036C678.543 75.524 678.819 76.748 679.371 77.708C679.947 78.668 680.715 79.388 681.675 79.868C682.659 80.348 683.763 80.588 684.987 80.588C686.163 80.588 687.219 80.36 688.155 79.904C689.115 79.448 689.871 78.824 690.423 78.032C690.975 77.24 691.251 76.34 691.251 75.332H693.231C693.159 76.844 692.739 78.2 691.971 79.4C691.227 80.576 690.219 81.512 688.947 82.208C687.675 82.88 686.259 83.216 684.699 83.216ZM692.619 83C692.211 83 691.875 82.88 691.611 82.64C691.371 82.376 691.251 82.028 691.251 81.596V64.676C691.251 64.268 691.371 63.944 691.611 63.704C691.875 63.44 692.211 63.308 692.619 63.308C693.027 63.308 693.363 63.44 693.627 63.704C693.891 63.944 694.023 64.268 694.023 64.676V81.596C694.023 82.028 693.891 82.376 693.627 82.64C693.363 82.88 693.027 83 692.619 83ZM706.136 83C705.56 83 705.128 82.688 704.84 82.064L696.848 65.108C696.704 64.796 696.692 64.484 696.812 64.172C696.932 63.86 697.172 63.62 697.532 63.452C697.868 63.284 698.192 63.26 698.504 63.38C698.816 63.5 699.056 63.716 699.224 64.028L706.892 80.624H705.416L712.976 64.028C713.12 63.692 713.36 63.476 713.696 63.38C714.056 63.26 714.404 63.272 714.74 63.416C715.076 63.584 715.304 63.836 715.424 64.172C715.544 64.484 715.532 64.784 715.388 65.072L707.504 82.064C707.216 82.688 706.76 83 706.136 83ZM727.527 83.18C725.583 83.18 723.855 82.76 722.343 81.92C720.855 81.056 719.679 79.868 718.815 78.356C717.975 76.844 717.555 75.116 717.555 73.172C717.555 71.204 717.951 69.476 718.743 67.988C719.559 66.476 720.675 65.288 722.091 64.424C723.507 63.56 725.139 63.128 726.987 63.128C728.811 63.128 730.395 63.548 731.739 64.388C733.107 65.204 734.163 66.344 734.907 67.808C735.651 69.272 736.023 70.94 736.023 72.812C736.023 73.196 735.903 73.508 735.663 73.748C735.423 73.964 735.111 74.072 734.727 74.072H719.427V71.768H735.015L733.467 72.884C733.491 71.492 733.239 70.244 732.711 69.14C732.183 68.036 731.427 67.172 730.443 66.548C729.483 65.924 728.331 65.612 726.987 65.612C725.619 65.612 724.419 65.936 723.387 66.584C722.355 67.232 721.551 68.132 720.975 69.284C720.423 70.412 720.147 71.708 720.147 73.172C720.147 74.636 720.459 75.932 721.083 77.06C721.731 78.188 722.607 79.076 723.711 79.724C724.815 80.372 726.087 80.696 727.527 80.696C728.391 80.696 729.255 80.552 730.119 80.264C731.007 79.952 731.715 79.568 732.243 79.112C732.507 78.896 732.807 78.788 733.143 78.788C733.479 78.764 733.767 78.848 734.007 79.04C734.319 79.328 734.475 79.64 734.475 79.976C734.499 80.312 734.367 80.6 734.079 80.84C733.287 81.512 732.279 82.076 731.055 82.532C729.831 82.964 728.655 83.18 727.527 83.18ZM726.555 60.32C726.171 60.32 725.835 60.188 725.547 59.924C725.283 59.636 725.151 59.3 725.151 58.916C725.151 58.532 725.259 58.22 725.475 57.98L729.543 53.912C729.807 53.648 730.131 53.516 730.515 53.516C730.923 53.516 731.259 53.66 731.523 53.948C731.787 54.212 731.919 54.548 731.919 54.956C731.919 55.124 731.883 55.292 731.811 55.46C731.763 55.628 731.667 55.772 731.523 55.892L727.491 59.96C727.251 60.2 726.939 60.32 726.555 60.32ZM758.964 83C757.692 83 756.552 82.7 755.544 82.1C754.56 81.5 753.78 80.684 753.204 79.652C752.628 78.596 752.34 77.396 752.34 76.052V58.448C752.34 58.04 752.46 57.704 752.7 57.44C752.964 57.176 753.3 57.044 753.708 57.044C754.116 57.044 754.452 57.176 754.716 57.44C754.98 57.704 755.112 58.04 755.112 58.448V76.052C755.112 77.276 755.472 78.284 756.192 79.076C756.912 79.844 757.836 80.228 758.964 80.228H759.936C760.32 80.228 760.632 80.36 760.872 80.624C761.112 80.888 761.232 81.224 761.232 81.632C761.232 82.04 761.088 82.376 760.8 82.64C760.512 82.88 760.152 83 759.72 83H758.964ZM750 66.44C749.64 66.44 749.34 66.332 749.1 66.116C748.86 65.876 748.74 65.588 748.74 65.252C748.74 64.892 748.86 64.604 749.1 64.388C749.34 64.148 749.64 64.028 750 64.028H759.18C759.54 64.028 759.84 64.148 760.08 64.388C760.32 64.604 760.44 64.892 760.44 65.252C760.44 65.588 760.32 65.876 760.08 66.116C759.84 66.332 759.54 66.44 759.18 66.44H750ZM774.708 83.18C772.788 83.18 771.072 82.748 769.56 81.884C768.048 81.02 766.86 79.832 765.996 78.32C765.132 76.808 764.7 75.092 764.7 73.172C764.7 71.228 765.132 69.5 765.996 67.988C766.86 66.476 768.048 65.288 769.56 64.424C771.072 63.56 772.788 63.128 774.708 63.128C776.628 63.128 778.332 63.56 779.82 64.424C781.332 65.288 782.52 66.476 783.384 67.988C784.248 69.5 784.692 71.228 784.716 73.172C784.716 75.092 784.272 76.808 783.384 78.32C782.52 79.832 781.332 81.02 779.82 81.884C778.332 82.748 776.628 83.18 774.708 83.18ZM774.708 80.66C776.1 80.66 777.348 80.336 778.452 79.688C779.556 79.04 780.42 78.152 781.044 77.024C781.668 75.896 781.98 74.612 781.98 73.172C781.98 71.732 781.668 70.448 781.044 69.32C780.42 68.168 779.556 67.268 778.452 66.62C777.348 65.972 776.1 65.648 774.708 65.648C773.316 65.648 772.068 65.972 770.964 66.62C769.86 67.268 768.984 68.168 768.336 69.32C767.712 70.448 767.4 71.732 767.4 73.172C767.4 74.612 767.712 75.896 768.336 77.024C768.984 78.152 769.86 79.04 770.964 79.688C772.068 80.336 773.316 80.66 774.708 80.66ZM806.991 83C806.583 83 806.247 82.868 805.983 82.604C805.719 82.34 805.587 82.016 805.587 81.632V72.272C805.587 70.784 805.299 69.56 804.723 68.6C804.171 67.64 803.403 66.92 802.419 66.44C801.459 65.96 800.367 65.72 799.143 65.72C797.967 65.72 796.899 65.948 795.939 66.404C795.003 66.86 794.259 67.484 793.707 68.276C793.155 69.068 792.879 69.968 792.879 70.976H790.899C790.947 69.464 791.355 68.12 792.123 66.944C792.891 65.744 793.911 64.808 795.183 64.136C796.455 63.44 797.871 63.092 799.431 63.092C801.135 63.092 802.659 63.452 804.003 64.172C805.347 64.868 806.403 65.9 807.171 67.268C807.963 68.636 808.359 70.304 808.359 72.272V81.632C808.359 82.016 808.227 82.34 807.963 82.604C807.699 82.868 807.375 83 806.991 83ZM791.511 83C791.079 83 790.731 82.88 790.467 82.64C790.227 82.376 790.107 82.04 790.107 81.632V64.712C790.107 64.28 790.227 63.944 790.467 63.704C790.731 63.44 791.079 63.308 791.511 63.308C791.919 63.308 792.243 63.44 792.483 63.704C792.747 63.944 792.879 64.28 792.879 64.712V81.632C792.879 82.04 792.747 82.376 792.483 82.64C792.243 82.88 791.919 83 791.511 83ZM833.693 83.18C831.845 83.18 830.189 82.748 828.725 81.884C827.261 80.996 826.097 79.796 825.233 78.284C824.393 76.772 823.973 75.068 823.973 73.172C823.973 71.252 824.405 69.536 825.269 68.024C826.157 66.512 827.357 65.324 828.869 64.46C830.381 63.572 832.085 63.128 833.981 63.128C835.877 63.128 837.569 63.572 839.057 64.46C840.569 65.324 841.757 66.512 842.621 68.024C843.509 69.536 843.965 71.252 843.989 73.172L842.873 74.036C842.873 75.764 842.465 77.324 841.649 78.716C840.857 80.084 839.765 81.176 838.373 81.992C837.005 82.784 835.445 83.18 833.693 83.18ZM833.981 80.66C835.373 80.66 836.609 80.336 837.689 79.688C838.793 79.04 839.657 78.152 840.281 77.024C840.929 75.872 841.253 74.588 841.253 73.172C841.253 71.732 840.929 70.448 840.281 69.32C839.657 68.192 838.793 67.304 837.689 66.656C836.609 65.984 835.373 65.648 833.981 65.648C832.613 65.648 831.377 65.984 830.273 66.656C829.169 67.304 828.293 68.192 827.645 69.32C826.997 70.448 826.673 71.732 826.673 73.172C826.673 74.588 826.997 75.872 827.645 77.024C828.293 78.152 829.169 79.04 830.273 79.688C831.377 80.336 832.613 80.66 833.981 80.66ZM842.585 83C842.177 83 841.841 82.88 841.577 82.64C841.313 82.376 841.181 82.04 841.181 81.632V75.476L841.865 72.632L843.989 73.172V81.632C843.989 82.04 843.857 82.376 843.593 82.64C843.329 82.88 842.993 83 842.585 83ZM829.805 60.176C829.397 60.176 829.049 60.068 828.761 59.852C828.497 59.612 828.365 59.3 828.365 58.916C828.365 58.412 828.593 58.004 829.049 57.692L833.297 54.884C833.489 54.764 833.717 54.704 833.981 54.704C834.125 54.704 834.257 54.728 834.377 54.776C834.497 54.8 834.605 54.836 834.701 54.884L838.913 57.692C839.369 58.004 839.597 58.412 839.597 58.916C839.597 59.276 839.465 59.576 839.201 59.816C838.937 60.056 838.601 60.176 838.193 60.176C838.025 60.176 837.869 60.152 837.725 60.104C837.605 60.056 837.473 59.984 837.329 59.888L833.981 57.584L830.633 59.888C830.369 60.08 830.093 60.176 829.805 60.176ZM875.985 83C875.577 83 875.241 82.88 874.977 82.64C874.713 82.376 874.581 82.04 874.581 81.632V71.264C874.581 69.56 874.137 68.216 873.249 67.232C872.361 66.224 871.221 65.72 869.829 65.72C868.341 65.72 867.117 66.224 866.157 67.232C865.221 68.216 864.765 69.536 864.789 71.192H862.305C862.329 69.584 862.677 68.168 863.349 66.944C864.021 65.72 864.945 64.772 866.121 64.1C867.297 63.428 868.629 63.092 870.117 63.092C871.533 63.092 872.781 63.428 873.861 64.1C874.965 64.772 875.817 65.72 876.417 66.944C877.041 68.168 877.353 69.608 877.353 71.264V81.632C877.353 82.04 877.221 82.376 876.957 82.64C876.717 82.88 876.393 83 875.985 83ZM850.785 83C850.353 83 850.005 82.88 849.741 82.64C849.501 82.376 849.381 82.04 849.381 81.632V64.712C849.381 64.304 849.501 63.968 849.741 63.704C850.005 63.44 850.353 63.308 850.785 63.308C851.193 63.308 851.517 63.44 851.757 63.704C852.021 63.968 852.153 64.304 852.153 64.712V81.632C852.153 82.04 852.021 82.376 851.757 82.64C851.517 82.88 851.193 83 850.785 83ZM863.421 83C863.013 83 862.677 82.88 862.413 82.64C862.149 82.376 862.017 82.04 862.017 81.632V71.264C862.017 69.56 861.573 68.216 860.685 67.232C859.797 66.224 858.657 65.72 857.265 65.72C855.777 65.72 854.553 66.212 853.593 67.196C852.633 68.156 852.153 69.416 852.153 70.976H850.173C850.221 69.44 850.557 68.084 851.181 66.908C851.829 65.708 852.705 64.772 853.809 64.1C854.913 63.428 856.161 63.092 857.553 63.092C858.969 63.092 860.217 63.428 861.297 64.1C862.401 64.772 863.253 65.72 863.853 66.944C864.477 68.168 864.789 69.608 864.789 71.264V81.632C864.789 82.04 864.657 82.376 864.393 82.64C864.153 82.88 863.829 83 863.421 83ZM892.41 83.18C890.466 83.18 888.738 82.76 887.226 81.92C885.738 81.056 884.562 79.868 883.698 78.356C882.858 76.844 882.438 75.116 882.438 73.172C882.438 71.204 882.834 69.476 883.626 67.988C884.442 66.476 885.558 65.288 886.974 64.424C888.39 63.56 890.022 63.128 891.87 63.128C893.694 63.128 895.278 63.548 896.622 64.388C897.99 65.204 899.046 66.344 899.79 67.808C900.534 69.272 900.906 70.94 900.906 72.812C900.906 73.196 900.786 73.508 900.546 73.748C900.306 73.964 899.994 74.072 899.61 74.072H884.31V71.768H899.898L898.35 72.884C898.374 71.492 898.122 70.244 897.594 69.14C897.066 68.036 896.31 67.172 895.326 66.548C894.366 65.924 893.214 65.612 891.87 65.612C890.502 65.612 889.302 65.936 888.27 66.584C887.238 67.232 886.434 68.132 885.858 69.284C885.306 70.412 885.03 71.708 885.03 73.172C885.03 74.636 885.342 75.932 885.966 77.06C886.614 78.188 887.49 79.076 888.594 79.724C889.698 80.372 890.97 80.696 892.41 80.696C893.274 80.696 894.138 80.552 895.002 80.264C895.89 79.952 896.598 79.568 897.126 79.112C897.39 78.896 897.69 78.788 898.026 78.788C898.362 78.764 898.65 78.848 898.89 79.04C899.202 79.328 899.358 79.64 899.358 79.976C899.382 80.312 899.25 80.6 898.962 80.84C898.17 81.512 897.162 82.076 895.938 82.532C894.714 82.964 893.538 83.18 892.41 83.18ZM923.018 83.18C921.602 83.18 920.198 82.94 918.806 82.46C917.414 81.98 916.286 81.26 915.422 80.3C915.158 80.012 915.05 79.688 915.098 79.328C915.146 78.968 915.326 78.656 915.638 78.392C915.974 78.152 916.322 78.056 916.682 78.104C917.042 78.152 917.342 78.308 917.582 78.572C918.158 79.244 918.914 79.76 919.85 80.12C920.81 80.48 921.866 80.66 923.018 80.66C924.794 80.66 926.078 80.36 926.87 79.76C927.662 79.136 928.07 78.392 928.094 77.528C928.094 76.664 927.686 75.956 926.87 75.404C926.054 74.828 924.71 74.384 922.838 74.072C920.414 73.688 918.638 73.016 917.51 72.056C916.382 71.096 915.818 69.956 915.818 68.636C915.818 67.412 916.142 66.392 916.79 65.576C917.438 64.76 918.302 64.148 919.382 63.74C920.462 63.332 921.65 63.128 922.946 63.128C924.554 63.128 925.934 63.404 927.086 63.956C928.262 64.508 929.21 65.252 929.93 66.188C930.17 66.5 930.266 66.824 930.218 67.16C930.17 67.496 929.978 67.772 929.642 67.988C929.354 68.156 929.018 68.216 928.634 68.168C928.274 68.096 927.962 67.916 927.698 67.628C927.098 66.932 926.402 66.428 925.61 66.116C924.818 65.78 923.906 65.612 922.874 65.612C921.554 65.612 920.498 65.888 919.706 66.44C918.914 66.968 918.518 67.64 918.518 68.456C918.518 69.008 918.662 69.488 918.95 69.896C919.262 70.304 919.778 70.664 920.498 70.976C921.242 71.288 922.274 71.552 923.594 71.768C925.394 72.056 926.81 72.488 927.842 73.064C928.898 73.616 929.642 74.276 930.074 75.044C930.53 75.788 930.758 76.604 930.758 77.492C930.758 78.62 930.422 79.616 929.75 80.48C929.102 81.32 928.19 81.98 927.014 82.46C925.862 82.94 924.53 83.18 923.018 83.18ZM944.513 83.18C942.593 83.18 940.877 82.748 939.365 81.884C937.853 81.02 936.665 79.832 935.801 78.32C934.937 76.808 934.505 75.092 934.505 73.172C934.505 71.228 934.937 69.5 935.801 67.988C936.665 66.476 937.853 65.288 939.365 64.424C940.877 63.56 942.593 63.128 944.513 63.128C946.433 63.128 948.137 63.56 949.625 64.424C951.137 65.288 952.325 66.476 953.189 67.988C954.053 69.5 954.497 71.228 954.521 73.172C954.521 75.092 954.077 76.808 953.189 78.32C952.325 79.832 951.137 81.02 949.625 81.884C948.137 82.748 946.433 83.18 944.513 83.18ZM944.513 80.66C945.905 80.66 947.153 80.336 948.257 79.688C949.361 79.04 950.225 78.152 950.849 77.024C951.473 75.896 951.785 74.612 951.785 73.172C951.785 71.732 951.473 70.448 950.849 69.32C950.225 68.168 949.361 67.268 948.257 66.62C947.153 65.972 945.905 65.648 944.513 65.648C943.121 65.648 941.873 65.972 940.769 66.62C939.665 67.268 938.789 68.168 938.141 69.32C937.517 70.448 937.205 71.732 937.205 73.172C937.205 74.612 937.517 75.896 938.141 77.024C938.789 78.152 939.665 79.04 940.769 79.688C941.873 80.336 943.121 80.66 944.513 80.66ZM968.84 83.18C966.896 83.18 965.168 82.76 963.656 81.92C962.168 81.056 960.992 79.868 960.128 78.356C959.288 76.844 958.868 75.116 958.868 73.172C958.868 71.204 959.264 69.476 960.056 67.988C960.872 66.476 961.988 65.288 963.404 64.424C964.82 63.56 966.452 63.128 968.3 63.128C970.124 63.128 971.708 63.548 973.052 64.388C974.42 65.204 975.476 66.344 976.22 67.808C976.964 69.272 977.336 70.94 977.336 72.812C977.336 73.196 977.216 73.508 976.976 73.748C976.736 73.964 976.424 74.072 976.04 74.072H960.74V71.768H976.328L974.78 72.884C974.804 71.492 974.552 70.244 974.024 69.14C973.496 68.036 972.74 67.172 971.756 66.548C970.796 65.924 969.644 65.612 968.3 65.612C966.932 65.612 965.732 65.936 964.7 66.584C963.668 67.232 962.864 68.132 962.288 69.284C961.736 70.412 961.46 71.708 961.46 73.172C961.46 74.636 961.772 75.932 962.396 77.06C963.044 78.188 963.92 79.076 965.024 79.724C966.128 80.372 967.4 80.696 968.84 80.696C969.704 80.696 970.568 80.552 971.432 80.264C972.32 79.952 973.028 79.568 973.556 79.112C973.82 78.896 974.12 78.788 974.456 78.788C974.792 78.764 975.08 78.848 975.32 79.04C975.632 79.328 975.788 79.64 975.788 79.976C975.812 80.312 975.68 80.6 975.392 80.84C974.6 81.512 973.592 82.076 972.368 82.532C971.144 82.964 969.968 83.18 968.84 83.18ZM990.593 83.216C988.889 83.216 987.365 82.868 986.021 82.172C984.677 81.452 983.609 80.408 982.817 79.04C982.049 77.672 981.665 76.004 981.665 74.036V64.676C981.665 64.292 981.797 63.968 982.061 63.704C982.325 63.44 982.649 63.308 983.033 63.308C983.441 63.308 983.777 63.44 984.041 63.704C984.305 63.968 984.437 64.292 984.437 64.676V74.036C984.437 75.524 984.713 76.748 985.265 77.708C985.841 78.668 986.609 79.388 987.569 79.868C988.553 80.348 989.657 80.588 990.881 80.588C992.057 80.588 993.113 80.36 994.049 79.904C995.009 79.448 995.765 78.824 996.317 78.032C996.869 77.24 997.145 76.34 997.145 75.332H999.125C999.053 76.844 998.633 78.2 997.865 79.4C997.121 80.576 996.113 81.512 994.841 82.208C993.569 82.88 992.153 83.216 990.593 83.216ZM998.513 83C998.105 83 997.769 82.88 997.505 82.64C997.265 82.376 997.145 82.028 997.145 81.596V64.676C997.145 64.268 997.265 63.944 997.505 63.704C997.769 63.44 998.105 63.308 998.513 63.308C998.921 63.308 999.257 63.44 999.521 63.704C999.785 63.944 999.917 64.268 999.917 64.676V81.596C999.917 82.028 999.785 82.376 999.521 82.64C999.257 82.88 998.921 83 998.513 83ZM1007.54 70.868C1007.61 69.38 1008 68.048 1008.69 66.872C1009.41 65.696 1010.34 64.772 1011.46 64.1C1012.62 63.428 1013.89 63.092 1015.28 63.092C1016.38 63.092 1017.24 63.248 1017.84 63.56C1018.44 63.872 1018.66 64.328 1018.52 64.928C1018.42 65.288 1018.26 65.528 1018.02 65.648C1017.8 65.768 1017.52 65.816 1017.19 65.792C1016.88 65.768 1016.52 65.744 1016.11 65.72C1014.76 65.6 1013.56 65.744 1012.51 66.152C1011.48 66.536 1010.65 67.136 1010.02 67.952C1009.42 68.768 1009.12 69.74 1009.12 70.868H1007.54ZM1007.76 83C1007.32 83 1006.99 82.88 1006.75 82.64C1006.51 82.4 1006.39 82.064 1006.39 81.632V64.676C1006.39 64.244 1006.51 63.908 1006.75 63.668C1006.99 63.428 1007.32 63.308 1007.76 63.308C1008.19 63.308 1008.52 63.428 1008.76 63.668C1009 63.908 1009.12 64.244 1009.12 64.676V81.632C1009.12 82.064 1009 82.4 1008.76 82.64C1008.52 82.88 1008.19 83 1007.76 83ZM1034.07 76.628C1033.69 76.628 1033.35 76.496 1033.06 76.232C1032.8 75.944 1032.67 75.608 1032.67 75.224V56.288C1032.67 55.88 1032.8 55.544 1033.06 55.28C1033.35 54.992 1033.69 54.848 1034.07 54.848C1034.48 54.848 1034.82 54.992 1035.08 55.28C1035.34 55.544 1035.48 55.88 1035.48 56.288V75.224C1035.48 75.608 1035.33 75.944 1035.04 76.232C1034.76 76.496 1034.43 76.628 1034.07 76.628ZM1034.07 83C1033.5 83 1033 82.796 1032.6 82.388C1032.19 81.98 1031.98 81.488 1031.98 80.912C1031.98 80.312 1032.19 79.808 1032.6 79.4C1033 78.992 1033.5 78.788 1034.07 78.788C1034.65 78.788 1035.14 79.004 1035.55 79.436C1035.96 79.844 1036.16 80.336 1036.16 80.912C1036.16 81.488 1035.96 81.98 1035.55 82.388C1035.14 82.796 1034.65 83 1034.07 83Z" fill="#45396D"/>
        <path d="M1201.12 631.18C1200.15 631.18 1199.23 630.994 1198.38 630.622C1197.54 630.25 1196.8 629.734 1196.15 629.074C1195.51 628.402 1195.02 627.634 1194.66 626.77C1194.3 625.894 1194.12 624.958 1194.12 623.962C1194.12 622.978 1194.29 622.054 1194.64 621.19C1195 620.314 1195.5 619.546 1196.13 618.886C1196.78 618.226 1197.52 617.71 1198.36 617.338C1199.22 616.954 1200.13 616.762 1201.12 616.762C1201.98 616.762 1202.77 616.888 1203.48 617.14C1204.18 617.392 1204.87 617.794 1205.53 618.346C1205.68 618.466 1205.75 618.622 1205.73 618.814C1205.7 618.994 1205.61 619.12 1205.46 619.192C1205.42 619.336 1205.31 619.426 1205.11 619.462C1204.93 619.498 1204.75 619.444 1204.57 619.3C1204.11 618.892 1203.6 618.592 1203.04 618.4C1202.49 618.196 1201.85 618.094 1201.12 618.094C1200.34 618.094 1199.61 618.25 1198.92 618.562C1198.25 618.874 1197.66 619.3 1197.14 619.84C1196.62 620.38 1196.22 621.004 1195.92 621.712C1195.63 622.42 1195.48 623.17 1195.48 623.962C1195.48 624.778 1195.63 625.54 1195.92 626.248C1196.22 626.956 1196.62 627.58 1197.14 628.12C1197.66 628.66 1198.25 629.086 1198.92 629.398C1199.61 629.698 1200.34 629.848 1201.12 629.848C1202.41 629.848 1203.6 629.428 1204.66 628.588C1204.88 628.42 1205.11 628.396 1205.35 628.516C1205.6 628.636 1205.73 628.84 1205.73 629.128C1205.73 629.32 1205.66 629.488 1205.53 629.632C1204.92 630.196 1204.23 630.598 1203.48 630.838C1202.72 631.066 1201.93 631.18 1201.12 631.18ZM1210.63 631C1209.91 631 1209.32 630.712 1208.85 630.136C1208.38 629.548 1208.15 628.798 1208.15 627.886V617.626C1208.15 617.422 1208.21 617.26 1208.33 617.14C1208.46 617.008 1208.63 616.942 1208.83 616.942C1209.03 616.942 1209.2 617.008 1209.32 617.14C1209.45 617.26 1209.51 617.422 1209.51 617.626V627.886C1209.51 628.402 1209.62 628.822 1209.82 629.146C1210.04 629.47 1210.31 629.632 1210.63 629.632H1211.08C1211.26 629.632 1211.4 629.698 1211.51 629.83C1211.62 629.95 1211.67 630.112 1211.67 630.316C1211.67 630.52 1211.6 630.688 1211.44 630.82C1211.3 630.94 1211.1 631 1210.86 631H1210.63ZM1214.58 631C1214.36 631 1214.19 630.94 1214.05 630.82C1213.93 630.688 1213.87 630.514 1213.87 630.298V621.856C1213.87 621.64 1213.93 621.472 1214.05 621.352C1214.19 621.22 1214.36 621.154 1214.58 621.154C1214.78 621.154 1214.94 621.22 1215.06 621.352C1215.19 621.472 1215.26 621.64 1215.26 621.856V630.298C1215.26 630.514 1215.19 630.688 1215.06 630.82C1214.94 630.94 1214.78 631 1214.58 631ZM1214.56 619.282C1214.29 619.282 1214.07 619.186 1213.87 618.994C1213.68 618.802 1213.59 618.568 1213.59 618.292C1213.59 617.992 1213.68 617.758 1213.87 617.59C1214.08 617.41 1214.31 617.32 1214.58 617.32C1214.83 617.32 1215.05 617.41 1215.24 617.59C1215.45 617.758 1215.55 617.992 1215.55 618.292C1215.55 618.568 1215.45 618.802 1215.26 618.994C1215.07 619.186 1214.83 619.282 1214.56 619.282ZM1223.18 631.09C1222.23 631.09 1221.39 630.874 1220.64 630.442C1219.91 629.998 1219.33 629.398 1218.9 628.642C1218.48 627.886 1218.27 627.034 1218.27 626.086C1218.27 625.126 1218.47 624.268 1218.88 623.512C1219.29 622.756 1219.85 622.162 1220.55 621.73C1221.26 621.286 1222.08 621.064 1223 621.064C1224.5 621.064 1225.72 621.64 1226.66 622.792C1226.79 622.936 1226.84 623.092 1226.8 623.26C1226.76 623.416 1226.66 623.554 1226.49 623.674C1226.36 623.77 1226.21 623.806 1226.04 623.782C1225.89 623.746 1225.75 623.656 1225.63 623.512C1224.93 622.72 1224.06 622.324 1223 622.324C1222.33 622.324 1221.74 622.486 1221.22 622.81C1220.72 623.134 1220.32 623.578 1220.03 624.142C1219.76 624.706 1219.62 625.354 1219.62 626.086C1219.62 626.806 1219.77 627.448 1220.07 628.012C1220.37 628.576 1220.79 629.02 1221.33 629.344C1221.87 629.668 1222.49 629.83 1223.18 629.83C1224.14 629.83 1224.92 629.572 1225.5 629.056C1225.65 628.936 1225.8 628.87 1225.95 628.858C1226.11 628.846 1226.25 628.894 1226.39 629.002C1226.53 629.134 1226.61 629.284 1226.62 629.452C1226.64 629.62 1226.59 629.764 1226.46 629.884C1225.58 630.688 1224.49 631.09 1223.18 631.09ZM1238.22 631.09C1237.52 631.09 1236.81 630.97 1236.12 630.73C1235.42 630.49 1234.86 630.13 1234.43 629.65C1234.29 629.506 1234.24 629.344 1234.26 629.164C1234.29 628.984 1234.38 628.828 1234.53 628.696C1234.7 628.576 1234.88 628.528 1235.06 628.552C1235.24 628.576 1235.39 628.654 1235.51 628.786C1235.79 629.122 1236.17 629.38 1236.64 629.56C1237.12 629.74 1237.65 629.83 1238.22 629.83C1239.11 629.83 1239.75 629.68 1240.15 629.38C1240.55 629.068 1240.75 628.696 1240.76 628.264C1240.76 627.832 1240.56 627.478 1240.15 627.202C1239.74 626.914 1239.07 626.692 1238.13 626.536C1236.92 626.344 1236.03 626.008 1235.47 625.528C1234.91 625.048 1234.62 624.478 1234.62 623.818C1234.62 623.206 1234.79 622.696 1235.11 622.288C1235.43 621.88 1235.87 621.574 1236.41 621.37C1236.95 621.166 1237.54 621.064 1238.19 621.064C1238.99 621.064 1239.68 621.202 1240.26 621.478C1240.85 621.754 1241.32 622.126 1241.68 622.594C1241.8 622.75 1241.85 622.912 1241.82 623.08C1241.8 623.248 1241.7 623.386 1241.54 623.494C1241.39 623.578 1241.22 623.608 1241.03 623.584C1240.85 623.548 1240.7 623.458 1240.56 623.314C1239.98 622.642 1239.17 622.306 1238.15 622.306C1237.49 622.306 1236.96 622.444 1236.57 622.72C1236.17 622.984 1235.97 623.32 1235.97 623.728C1235.97 624.136 1236.15 624.472 1236.5 624.736C1236.86 625 1237.53 625.216 1238.51 625.384C1239.41 625.528 1240.12 625.744 1240.64 626.032C1241.16 626.308 1241.54 626.638 1241.75 627.022C1241.98 627.394 1242.09 627.802 1242.09 628.246C1242.09 628.81 1241.93 629.308 1241.59 629.74C1241.27 630.16 1240.81 630.49 1240.22 630.73C1239.65 630.97 1238.98 631.09 1238.22 631.09ZM1248.77 631.108C1247.92 631.108 1247.16 630.934 1246.49 630.586C1245.82 630.226 1245.28 629.704 1244.89 629.02C1244.5 628.336 1244.31 627.502 1244.31 626.518V621.838C1244.31 621.646 1244.38 621.484 1244.51 621.352C1244.64 621.22 1244.8 621.154 1244.99 621.154C1245.2 621.154 1245.37 621.22 1245.5 621.352C1245.63 621.484 1245.7 621.646 1245.7 621.838V626.518C1245.7 627.622 1246 628.444 1246.61 628.984C1247.23 629.524 1247.99 629.794 1248.92 629.794C1249.51 629.794 1250.03 629.68 1250.5 629.452C1250.98 629.224 1251.36 628.912 1251.64 628.516C1251.91 628.12 1252.05 627.67 1252.05 627.166V621.838C1252.05 621.634 1252.11 621.472 1252.23 621.352C1252.36 621.22 1252.53 621.154 1252.73 621.154C1252.94 621.154 1253.11 621.22 1253.24 621.352C1253.37 621.472 1253.44 621.634 1253.44 621.838V630.298C1253.44 630.514 1253.37 630.688 1253.24 630.82C1253.11 630.94 1252.94 631 1252.73 631C1252.53 631 1252.36 630.94 1252.23 630.82C1252.11 630.688 1252.05 630.514 1252.05 630.298V629.686C1251.65 630.13 1251.17 630.478 1250.61 630.73C1250.05 630.982 1249.43 631.108 1248.77 631.108ZM1257.35 631C1256.9 631 1256.67 630.772 1256.67 630.316V621.838C1256.67 621.382 1256.9 621.154 1257.35 621.154C1257.81 621.154 1258.04 621.382 1258.04 621.838V622.612C1258.4 622.132 1258.84 621.754 1259.37 621.478C1259.9 621.19 1260.48 621.046 1261.12 621.046C1261.67 621.046 1262.09 621.124 1262.39 621.28C1262.69 621.436 1262.81 621.664 1262.74 621.964C1262.68 622.24 1262.53 622.384 1262.3 622.396C1262.09 622.396 1261.83 622.384 1261.53 622.36C1260.86 622.3 1260.26 622.372 1259.73 622.576C1259.21 622.768 1258.8 623.068 1258.49 623.476C1258.19 623.884 1258.04 624.37 1258.04 624.934V630.316C1258.04 630.772 1257.81 631 1257.35 631ZM1272.31 631C1271.59 631 1271 630.712 1270.53 630.136C1270.06 629.548 1269.83 628.798 1269.83 627.886V617.626C1269.83 617.422 1269.89 617.26 1270.01 617.14C1270.14 617.008 1270.31 616.942 1270.51 616.942C1270.72 616.942 1270.88 617.008 1271 617.14C1271.13 617.26 1271.2 617.422 1271.2 617.626V627.886C1271.2 628.402 1271.3 628.822 1271.5 629.146C1271.72 629.47 1271.99 629.632 1272.31 629.632H1272.76C1272.94 629.632 1273.09 629.698 1273.19 629.83C1273.3 629.95 1273.36 630.112 1273.36 630.316C1273.36 630.52 1273.28 630.688 1273.12 630.82C1272.98 630.94 1272.79 631 1272.55 631H1272.31ZM1279.19 631.09C1278.22 631.09 1277.35 630.88 1276.6 630.46C1275.85 630.028 1275.26 629.434 1274.83 628.678C1274.41 627.922 1274.2 627.058 1274.2 626.086C1274.2 625.102 1274.4 624.238 1274.8 623.494C1275.2 622.738 1275.76 622.144 1276.47 621.712C1277.18 621.28 1277.99 621.064 1278.92 621.064C1279.83 621.064 1280.62 621.274 1281.29 621.694C1281.98 622.102 1282.51 622.672 1282.88 623.404C1283.25 624.136 1283.44 624.97 1283.44 625.906C1283.44 626.098 1283.38 626.254 1283.26 626.374C1283.14 626.482 1282.98 626.536 1282.79 626.536H1275.52C1275.59 627.184 1275.79 627.76 1276.11 628.264C1276.43 628.756 1276.86 629.146 1277.39 629.434C1277.92 629.71 1278.52 629.848 1279.19 629.848C1279.62 629.848 1280.05 629.776 1280.48 629.632C1280.93 629.476 1281.28 629.284 1281.55 629.056C1281.68 628.948 1281.83 628.894 1282 628.894C1282.16 628.882 1282.31 628.924 1282.43 629.02C1282.58 629.164 1282.66 629.32 1282.66 629.488C1282.67 629.656 1282.61 629.8 1282.46 629.92C1282.07 630.256 1281.56 630.538 1280.95 630.766C1280.34 630.982 1279.75 631.09 1279.19 631.09ZM1278.92 622.306C1277.99 622.306 1277.23 622.594 1276.63 623.17C1276.03 623.734 1275.67 624.472 1275.55 625.384H1282.14C1282.04 624.472 1281.71 623.734 1281.13 623.17C1280.57 622.594 1279.83 622.306 1278.92 622.306ZM1296.04 631.09C1295.1 631.09 1294.26 630.874 1293.5 630.442C1292.76 630.01 1292.16 629.422 1291.72 628.678C1291.29 627.922 1291.07 627.076 1291.05 626.14V617.644C1291.05 617.428 1291.11 617.26 1291.23 617.14C1291.37 617.008 1291.54 616.942 1291.76 616.942C1291.96 616.942 1292.12 617.008 1292.24 617.14C1292.37 617.26 1292.44 617.428 1292.44 617.644V622.936C1292.84 622.372 1293.36 621.922 1294.01 621.586C1294.67 621.238 1295.4 621.064 1296.2 621.064C1297.13 621.064 1297.95 621.286 1298.69 621.73C1299.42 622.162 1299.99 622.756 1300.41 623.512C1300.85 624.268 1301.06 625.12 1301.06 626.068C1301.06 627.028 1300.84 627.886 1300.4 628.642C1299.96 629.398 1299.37 629.998 1298.61 630.442C1297.86 630.874 1297 631.09 1296.04 631.09ZM1296.04 629.83C1296.74 629.83 1297.36 629.668 1297.91 629.344C1298.46 629.008 1298.9 628.558 1299.21 627.994C1299.53 627.43 1299.69 626.788 1299.69 626.068C1299.69 625.36 1299.53 624.724 1299.21 624.16C1298.9 623.584 1298.46 623.134 1297.91 622.81C1297.36 622.486 1296.74 622.324 1296.04 622.324C1295.36 622.324 1294.74 622.486 1294.19 622.81C1293.63 623.134 1293.2 623.584 1292.89 624.16C1292.58 624.724 1292.42 625.36 1292.42 626.068C1292.42 626.788 1292.58 627.43 1292.89 627.994C1293.2 628.558 1293.63 629.008 1294.19 629.344C1294.74 629.668 1295.36 629.83 1296.04 629.83ZM1308.26 631.09C1307.3 631.09 1306.44 630.874 1305.69 630.442C1304.93 630.01 1304.34 629.416 1303.91 628.66C1303.47 627.904 1303.26 627.046 1303.26 626.086C1303.26 625.114 1303.47 624.25 1303.91 623.494C1304.34 622.738 1304.93 622.144 1305.69 621.712C1306.44 621.28 1307.3 621.064 1308.26 621.064C1309.22 621.064 1310.07 621.28 1310.82 621.712C1311.57 622.144 1312.17 622.738 1312.6 623.494C1313.03 624.25 1313.25 625.114 1313.27 626.086C1313.27 627.046 1313.04 627.904 1312.6 628.66C1312.17 629.416 1311.57 630.01 1310.82 630.442C1310.07 630.874 1309.22 631.09 1308.26 631.09ZM1308.26 629.83C1308.96 629.83 1309.58 629.668 1310.13 629.344C1310.69 629.02 1311.12 628.576 1311.43 628.012C1311.74 627.448 1311.9 626.806 1311.9 626.086C1311.9 625.366 1311.74 624.724 1311.43 624.16C1311.12 623.584 1310.69 623.134 1310.13 622.81C1309.58 622.486 1308.96 622.324 1308.26 622.324C1307.57 622.324 1306.94 622.486 1306.39 622.81C1305.84 623.134 1305.4 623.584 1305.08 624.16C1304.76 624.724 1304.61 625.366 1304.61 626.086C1304.61 626.806 1304.76 627.448 1305.08 628.012C1305.4 628.576 1305.84 629.02 1306.39 629.344C1306.94 629.668 1307.57 629.83 1308.26 629.83ZM1320.25 631.108C1319.39 631.108 1318.63 630.934 1317.96 630.586C1317.29 630.226 1316.75 629.704 1316.36 629.02C1315.97 628.336 1315.78 627.502 1315.78 626.518V621.838C1315.78 621.646 1315.85 621.484 1315.98 621.352C1316.11 621.22 1316.27 621.154 1316.47 621.154C1316.67 621.154 1316.84 621.22 1316.97 621.352C1317.1 621.484 1317.17 621.646 1317.17 621.838V626.518C1317.17 627.622 1317.47 628.444 1318.09 628.984C1318.7 629.524 1319.47 629.794 1320.39 629.794C1320.98 629.794 1321.51 629.68 1321.97 629.452C1322.45 629.224 1322.83 628.912 1323.11 628.516C1323.38 628.12 1323.52 627.67 1323.52 627.166V621.838C1323.52 621.634 1323.58 621.472 1323.7 621.352C1323.83 621.22 1324 621.154 1324.21 621.154C1324.41 621.154 1324.58 621.22 1324.71 621.352C1324.84 621.472 1324.91 621.634 1324.91 621.838V630.298C1324.91 630.514 1324.84 630.688 1324.71 630.82C1324.58 630.94 1324.41 631 1324.21 631C1324 631 1323.83 630.94 1323.7 630.82C1323.58 630.688 1323.52 630.514 1323.52 630.298V629.686C1323.13 630.13 1322.65 630.478 1322.08 630.73C1321.52 630.982 1320.91 631.108 1320.25 631.108ZM1332 631C1331.36 631 1330.79 630.85 1330.29 630.55C1329.79 630.25 1329.4 629.842 1329.12 629.326C1328.83 628.798 1328.68 628.198 1328.68 627.526V622.72H1327.51C1327.33 622.72 1327.18 622.666 1327.06 622.558C1326.94 622.438 1326.88 622.294 1326.88 622.126C1326.88 621.946 1326.94 621.802 1327.06 621.694C1327.18 621.574 1327.33 621.514 1327.51 621.514H1328.68V618.724C1328.68 618.52 1328.74 618.352 1328.86 618.22C1329 618.088 1329.16 618.022 1329.37 618.022C1329.57 618.022 1329.74 618.088 1329.87 618.22C1330 618.352 1330.07 618.52 1330.07 618.724V621.514H1332.1C1332.28 621.514 1332.43 621.574 1332.55 621.694C1332.67 621.802 1332.73 621.946 1332.73 622.126C1332.73 622.294 1332.67 622.438 1332.55 622.558C1332.43 622.666 1332.28 622.72 1332.1 622.72H1330.07V627.526C1330.07 628.138 1330.25 628.642 1330.61 629.038C1330.97 629.422 1331.43 629.614 1332 629.614H1332.48C1332.67 629.614 1332.83 629.68 1332.95 629.812C1333.07 629.944 1333.13 630.112 1333.13 630.316C1333.13 630.52 1333.06 630.688 1332.91 630.82C1332.77 630.94 1332.59 631 1332.37 631H1332ZM1339.87 631.09C1338.91 631.09 1338.05 630.874 1337.29 630.442C1336.54 630.01 1335.94 629.416 1335.51 628.66C1335.08 627.904 1334.86 627.046 1334.86 626.086C1334.86 625.114 1335.08 624.25 1335.51 623.494C1335.94 622.738 1336.54 622.144 1337.29 621.712C1338.05 621.28 1338.91 621.064 1339.87 621.064C1340.83 621.064 1341.68 621.28 1342.42 621.712C1343.18 622.144 1343.77 622.738 1344.21 623.494C1344.64 624.25 1344.86 625.114 1344.87 626.086C1344.87 627.046 1344.65 627.904 1344.21 628.66C1343.77 629.416 1343.18 630.01 1342.42 630.442C1341.68 630.874 1340.83 631.09 1339.87 631.09ZM1339.87 629.83C1340.56 629.83 1341.19 629.668 1341.74 629.344C1342.29 629.02 1342.72 628.576 1343.04 628.012C1343.35 627.448 1343.5 626.806 1343.5 626.086C1343.5 625.366 1343.35 624.724 1343.04 624.16C1342.72 623.584 1342.29 623.134 1341.74 622.81C1341.19 622.486 1340.56 622.324 1339.87 622.324C1339.17 622.324 1338.55 622.486 1338 622.81C1337.44 623.134 1337.01 623.584 1336.68 624.16C1336.37 624.724 1336.21 625.366 1336.21 626.086C1336.21 626.806 1336.37 627.448 1336.68 628.012C1337.01 628.576 1337.44 629.02 1338 629.344C1338.55 629.668 1339.17 629.83 1339.87 629.83ZM1348.27 631C1348.05 631 1347.88 630.94 1347.75 630.82C1347.63 630.688 1347.57 630.52 1347.57 630.316V621.856C1347.57 621.64 1347.63 621.472 1347.75 621.352C1347.88 621.22 1348.05 621.154 1348.27 621.154C1348.47 621.154 1348.64 621.22 1348.76 621.352C1348.89 621.472 1348.95 621.64 1348.95 621.856V622.468C1349.34 622.024 1349.81 621.676 1350.38 621.424C1350.95 621.172 1351.57 621.046 1352.23 621.046C1353.08 621.046 1353.84 621.226 1354.52 621.586C1355.19 621.934 1355.72 622.45 1356.1 623.134C1356.5 623.818 1356.69 624.652 1356.69 625.636V630.316C1356.69 630.508 1356.63 630.67 1356.5 630.802C1356.36 630.934 1356.2 631 1356.01 631C1355.81 631 1355.64 630.934 1355.51 630.802C1355.37 630.67 1355.31 630.508 1355.31 630.316V625.636C1355.31 624.52 1355 623.698 1354.37 623.17C1353.76 622.63 1353 622.36 1352.09 622.36C1351.5 622.36 1350.96 622.474 1350.48 622.702C1350.02 622.93 1349.64 623.242 1349.37 623.638C1349.09 624.034 1348.95 624.484 1348.95 624.988V630.316C1348.95 630.52 1348.89 630.688 1348.76 630.82C1348.64 630.94 1348.47 631 1348.27 631ZM1368.3 628.192C1368.11 628.192 1367.94 628.126 1367.81 627.994C1367.68 627.862 1367.61 627.694 1367.61 627.49V624.664H1364.79C1364.6 624.664 1364.43 624.598 1364.3 624.466C1364.17 624.334 1364.1 624.166 1364.1 623.962C1364.1 623.77 1364.17 623.608 1364.3 623.476C1364.43 623.332 1364.6 623.26 1364.79 623.26H1367.61V620.434C1367.61 620.242 1367.68 620.08 1367.81 619.948C1367.94 619.816 1368.11 619.75 1368.3 619.75C1368.5 619.75 1368.67 619.816 1368.8 619.948C1368.93 620.08 1369 620.242 1369 620.434V623.26H1371.83C1372.02 623.26 1372.18 623.332 1372.31 623.476C1372.46 623.608 1372.53 623.77 1372.53 623.962C1372.53 624.166 1372.46 624.334 1372.31 624.466C1372.18 624.598 1372.02 624.664 1371.83 624.664H1369V627.49C1369 627.694 1368.93 627.862 1368.8 627.994C1368.67 628.126 1368.5 628.192 1368.3 628.192ZM1380.84 635.212C1380.63 635.212 1380.45 635.146 1380.32 635.014C1380.2 634.894 1380.14 634.726 1380.14 634.51V626.014C1380.15 625.078 1380.37 624.238 1380.81 623.494C1381.25 622.738 1381.84 622.144 1382.59 621.712C1383.34 621.28 1384.19 621.064 1385.13 621.064C1386.09 621.064 1386.94 621.286 1387.7 621.73C1388.46 622.162 1389.05 622.756 1389.48 623.512C1389.93 624.268 1390.15 625.126 1390.15 626.086C1390.15 627.034 1389.93 627.886 1389.5 628.642C1389.08 629.398 1388.5 629.998 1387.77 630.442C1387.04 630.874 1386.21 631.09 1385.29 631.09C1384.48 631.09 1383.75 630.922 1383.09 630.586C1382.44 630.238 1381.92 629.782 1381.53 629.218V634.51C1381.53 634.726 1381.46 634.894 1381.33 635.014C1381.21 635.146 1381.05 635.212 1380.84 635.212ZM1385.13 629.83C1385.82 629.83 1386.45 629.668 1387 629.344C1387.55 629.02 1387.98 628.576 1388.29 628.012C1388.62 627.436 1388.78 626.794 1388.78 626.086C1388.78 625.366 1388.62 624.724 1388.29 624.16C1387.98 623.596 1387.55 623.152 1387 622.828C1386.45 622.492 1385.82 622.324 1385.13 622.324C1384.44 622.324 1383.82 622.492 1383.27 622.828C1382.72 623.152 1382.29 623.596 1381.98 624.16C1381.66 624.724 1381.51 625.366 1381.51 626.086C1381.51 626.794 1381.66 627.436 1381.98 628.012C1382.29 628.576 1382.72 629.02 1383.27 629.344C1383.82 629.668 1384.44 629.83 1385.13 629.83ZM1397.35 631.09C1396.39 631.09 1395.53 630.874 1394.77 630.442C1394.02 630.01 1393.42 629.416 1392.99 628.66C1392.56 627.904 1392.34 627.046 1392.34 626.086C1392.34 625.114 1392.56 624.25 1392.99 623.494C1393.42 622.738 1394.02 622.144 1394.77 621.712C1395.53 621.28 1396.39 621.064 1397.35 621.064C1398.31 621.064 1399.16 621.28 1399.9 621.712C1400.66 622.144 1401.25 622.738 1401.69 623.494C1402.12 624.25 1402.34 625.114 1402.35 626.086C1402.35 627.046 1402.13 627.904 1401.69 628.66C1401.25 629.416 1400.66 630.01 1399.9 630.442C1399.16 630.874 1398.31 631.09 1397.35 631.09ZM1397.35 629.83C1398.04 629.83 1398.67 629.668 1399.22 629.344C1399.77 629.02 1400.2 628.576 1400.52 628.012C1400.83 627.448 1400.98 626.806 1400.98 626.086C1400.98 625.366 1400.83 624.724 1400.52 624.16C1400.2 623.584 1399.77 623.134 1399.22 622.81C1398.67 622.486 1398.04 622.324 1397.35 622.324C1396.65 622.324 1396.03 622.486 1395.48 622.81C1394.92 623.134 1394.49 623.584 1394.16 624.16C1393.85 624.724 1393.69 625.366 1393.69 626.086C1393.69 626.806 1393.85 627.448 1394.16 628.012C1394.49 628.576 1394.92 629.02 1395.48 629.344C1396.03 629.668 1396.65 629.83 1397.35 629.83ZM1409.33 631.108C1408.48 631.108 1407.72 630.934 1407.05 630.586C1406.37 630.226 1405.84 629.704 1405.44 629.02C1405.06 628.336 1404.87 627.502 1404.87 626.518V621.838C1404.87 621.646 1404.93 621.484 1405.07 621.352C1405.2 621.22 1405.36 621.154 1405.55 621.154C1405.76 621.154 1405.92 621.22 1406.06 621.352C1406.19 621.484 1406.25 621.646 1406.25 621.838V626.518C1406.25 627.622 1406.56 628.444 1407.17 628.984C1407.78 629.524 1408.55 629.794 1409.48 629.794C1410.06 629.794 1410.59 629.68 1411.06 629.452C1411.54 629.224 1411.92 628.912 1412.19 628.516C1412.47 628.12 1412.61 627.67 1412.61 627.166V621.838C1412.61 621.634 1412.67 621.472 1412.79 621.352C1412.92 621.22 1413.09 621.154 1413.29 621.154C1413.5 621.154 1413.66 621.22 1413.8 621.352C1413.93 621.472 1413.99 621.634 1413.99 621.838V630.298C1413.99 630.514 1413.93 630.688 1413.8 630.82C1413.66 630.94 1413.5 631 1413.29 631C1413.09 631 1412.92 630.94 1412.79 630.82C1412.67 630.688 1412.61 630.514 1412.61 630.298V629.686C1412.21 630.13 1411.73 630.478 1411.17 630.73C1410.6 630.982 1409.99 631.108 1409.33 631.108ZM1417.91 631C1417.46 631 1417.23 630.772 1417.23 630.316V621.838C1417.23 621.382 1417.46 621.154 1417.91 621.154C1418.37 621.154 1418.6 621.382 1418.6 621.838V622.612C1418.96 622.132 1419.4 621.754 1419.93 621.478C1420.46 621.19 1421.04 621.046 1421.68 621.046C1422.23 621.046 1422.65 621.124 1422.95 621.28C1423.25 621.436 1423.37 621.664 1423.3 621.964C1423.24 622.24 1423.09 622.384 1422.86 622.396C1422.65 622.396 1422.39 622.384 1422.09 622.36C1421.42 622.3 1420.82 622.372 1420.29 622.576C1419.77 622.768 1419.36 623.068 1419.05 623.476C1418.75 623.884 1418.6 624.37 1418.6 624.934V630.316C1418.6 630.772 1418.37 631 1417.91 631ZM1197.99 651C1197.7 651 1197.48 650.844 1197.34 650.532L1193.34 642.054C1193.27 641.898 1193.26 641.742 1193.32 641.586C1193.38 641.43 1193.5 641.31 1193.68 641.226C1193.85 641.142 1194.01 641.13 1194.17 641.19C1194.33 641.25 1194.45 641.358 1194.53 641.514L1197.99 649.002L1201.41 641.514C1201.48 641.346 1201.6 641.238 1201.77 641.19C1201.95 641.13 1202.12 641.136 1202.29 641.208C1202.46 641.292 1202.57 641.418 1202.63 641.586C1202.69 641.742 1202.68 641.892 1202.61 642.036L1198.67 650.532C1198.53 650.844 1198.3 651 1197.99 651ZM1208.7 651.09C1207.74 651.09 1206.88 650.874 1206.13 650.442C1205.37 650.01 1204.78 649.416 1204.34 648.66C1203.91 647.904 1203.7 647.046 1203.7 646.086C1203.7 645.114 1203.91 644.25 1204.34 643.494C1204.78 642.738 1205.37 642.144 1206.13 641.712C1206.88 641.28 1207.74 641.064 1208.7 641.064C1209.66 641.064 1210.51 641.28 1211.26 641.712C1212.01 642.144 1212.61 642.738 1213.04 643.494C1213.47 644.25 1213.69 645.114 1213.7 646.086C1213.7 647.046 1213.48 647.904 1213.04 648.66C1212.61 649.416 1212.01 650.01 1211.26 650.442C1210.51 650.874 1209.66 651.09 1208.7 651.09ZM1208.7 649.83C1209.4 649.83 1210.02 649.668 1210.57 649.344C1211.12 649.02 1211.56 648.576 1211.87 648.012C1212.18 647.448 1212.34 646.806 1212.34 646.086C1212.34 645.366 1212.18 644.724 1211.87 644.16C1211.56 643.584 1211.12 643.134 1210.57 642.81C1210.02 642.486 1209.4 642.324 1208.7 642.324C1208 642.324 1207.38 642.486 1206.83 642.81C1206.28 643.134 1205.84 643.584 1205.51 644.16C1205.2 644.724 1205.05 645.366 1205.05 646.086C1205.05 646.806 1205.2 647.448 1205.51 648.012C1205.84 648.576 1206.28 649.02 1206.83 649.344C1207.38 649.668 1208 649.83 1208.7 649.83ZM1217.39 651C1217.17 651 1217 650.94 1216.87 650.82C1216.75 650.688 1216.69 650.514 1216.69 650.298V641.856C1216.69 641.64 1216.75 641.472 1216.87 641.352C1217 641.22 1217.17 641.154 1217.39 641.154C1217.59 641.154 1217.76 641.22 1217.88 641.352C1218.01 641.472 1218.07 641.64 1218.07 641.856V650.298C1218.07 650.514 1218.01 650.688 1217.88 650.82C1217.76 650.94 1217.59 651 1217.39 651ZM1217.37 639.282C1217.11 639.282 1216.88 639.186 1216.69 638.994C1216.5 638.802 1216.4 638.568 1216.4 638.292C1216.4 637.992 1216.5 637.758 1216.69 637.59C1216.89 637.41 1217.13 637.32 1217.39 637.32C1217.64 637.32 1217.86 637.41 1218.06 637.59C1218.26 637.758 1218.36 637.992 1218.36 638.292C1218.36 638.568 1218.27 638.802 1218.07 638.994C1217.88 639.186 1217.65 639.282 1217.37 639.282ZM1222.29 651C1221.83 651 1221.6 650.772 1221.6 650.316V641.838C1221.6 641.382 1221.83 641.154 1222.29 641.154C1222.74 641.154 1222.97 641.382 1222.97 641.838V642.612C1223.33 642.132 1223.77 641.754 1224.3 641.478C1224.83 641.19 1225.41 641.046 1226.05 641.046C1226.6 641.046 1227.03 641.124 1227.33 641.28C1227.63 641.436 1227.74 641.664 1227.67 641.964C1227.61 642.24 1227.46 642.384 1227.24 642.396C1227.02 642.396 1226.76 642.384 1226.46 642.36C1225.79 642.3 1225.19 642.372 1224.66 642.576C1224.15 642.768 1223.73 643.068 1223.42 643.476C1223.12 643.884 1222.97 644.37 1222.97 644.934V650.316C1222.97 650.772 1222.74 651 1222.29 651ZM1239.6 651.09C1238.65 651.09 1237.8 650.874 1237.05 650.442C1236.29 649.998 1235.69 649.398 1235.25 648.642C1234.81 647.886 1234.6 647.028 1234.6 646.068C1234.6 645.12 1234.81 644.268 1235.23 643.512C1235.66 642.756 1236.24 642.162 1236.97 641.73C1237.71 641.286 1238.53 641.064 1239.46 641.064C1240.26 641.064 1240.99 641.238 1241.64 641.586C1242.28 641.922 1242.81 642.372 1243.2 642.936V637.644C1243.2 637.428 1243.27 637.26 1243.4 637.14C1243.53 637.008 1243.7 636.942 1243.9 636.942C1244.11 636.942 1244.28 637.008 1244.41 637.14C1244.54 637.26 1244.61 637.428 1244.61 637.644V646.14C1244.58 647.076 1244.35 647.922 1243.9 648.678C1243.47 649.422 1242.88 650.01 1242.12 650.442C1241.38 650.874 1240.54 651.09 1239.6 651.09ZM1239.6 649.83C1240.3 649.83 1240.92 649.668 1241.46 649.344C1242.01 649.008 1242.44 648.558 1242.75 647.994C1243.08 647.43 1243.24 646.788 1243.24 646.068C1243.24 645.36 1243.08 644.724 1242.75 644.16C1242.44 643.584 1242.01 643.134 1241.46 642.81C1240.92 642.486 1240.3 642.324 1239.6 642.324C1238.92 642.324 1238.3 642.486 1237.75 642.81C1237.2 643.134 1236.76 643.584 1236.43 644.16C1236.11 644.724 1235.95 645.36 1235.95 646.068C1235.95 646.788 1236.11 647.43 1236.43 647.994C1236.76 648.558 1237.2 649.008 1237.75 649.344C1238.3 649.668 1238.92 649.83 1239.6 649.83ZM1252.31 651.09C1251.34 651.09 1250.47 650.88 1249.72 650.46C1248.97 650.028 1248.39 649.434 1247.95 648.678C1247.53 647.922 1247.32 647.058 1247.32 646.086C1247.32 645.102 1247.52 644.238 1247.92 643.494C1248.33 642.738 1248.88 642.144 1249.59 641.712C1250.3 641.28 1251.12 641.064 1252.04 641.064C1252.95 641.064 1253.74 641.274 1254.42 641.694C1255.1 642.102 1255.63 642.672 1256 643.404C1256.37 644.136 1256.56 644.97 1256.56 645.906C1256.56 646.098 1256.5 646.254 1256.38 646.374C1256.26 646.482 1256.1 646.536 1255.91 646.536H1248.64C1248.71 647.184 1248.91 647.76 1249.23 648.264C1249.56 648.756 1249.98 649.146 1250.51 649.434C1251.04 649.71 1251.64 649.848 1252.31 649.848C1252.74 649.848 1253.17 649.776 1253.61 649.632C1254.05 649.476 1254.4 649.284 1254.67 649.056C1254.8 648.948 1254.95 648.894 1255.12 648.894C1255.29 648.882 1255.43 648.924 1255.55 649.02C1255.71 649.164 1255.78 649.32 1255.78 649.488C1255.8 649.656 1255.73 649.8 1255.59 649.92C1255.19 650.256 1254.69 650.538 1254.07 650.766C1253.46 650.982 1252.87 651.09 1252.31 651.09ZM1252.04 642.306C1251.12 642.306 1250.35 642.594 1249.75 643.17C1249.15 643.734 1248.79 644.472 1248.67 645.384H1255.26C1255.17 644.472 1254.83 643.734 1254.25 643.17C1253.69 642.594 1252.95 642.306 1252.04 642.306ZM1262.34 651.09C1261.63 651.09 1260.93 650.97 1260.24 650.73C1259.54 650.49 1258.98 650.13 1258.54 649.65C1258.41 649.506 1258.36 649.344 1258.38 649.164C1258.41 648.984 1258.5 648.828 1258.65 648.696C1258.82 648.576 1258.99 648.528 1259.17 648.552C1259.35 648.576 1259.5 648.654 1259.62 648.786C1259.91 649.122 1260.29 649.38 1260.76 649.56C1261.24 649.74 1261.77 649.83 1262.34 649.83C1263.23 649.83 1263.87 649.68 1264.27 649.38C1264.66 649.068 1264.87 648.696 1264.88 648.264C1264.88 647.832 1264.68 647.478 1264.27 647.202C1263.86 646.914 1263.19 646.692 1262.25 646.536C1261.04 646.344 1260.15 646.008 1259.59 645.528C1259.02 645.048 1258.74 644.478 1258.74 643.818C1258.74 643.206 1258.9 642.696 1259.23 642.288C1259.55 641.88 1259.98 641.574 1260.52 641.37C1261.06 641.166 1261.66 641.064 1262.31 641.064C1263.11 641.064 1263.8 641.202 1264.38 641.478C1264.96 641.754 1265.44 642.126 1265.8 642.594C1265.92 642.75 1265.97 642.912 1265.94 643.08C1265.92 643.248 1265.82 643.386 1265.65 643.494C1265.51 643.578 1265.34 643.608 1265.15 643.584C1264.97 643.548 1264.81 643.458 1264.68 643.314C1264.09 642.642 1263.29 642.306 1262.27 642.306C1261.61 642.306 1261.08 642.444 1260.69 642.72C1260.29 642.984 1260.09 643.32 1260.09 643.728C1260.09 644.136 1260.27 644.472 1260.61 644.736C1260.97 645 1261.65 645.216 1262.63 645.384C1263.53 645.528 1264.24 645.744 1264.75 646.032C1265.28 646.308 1265.65 646.638 1265.87 647.022C1266.1 647.394 1266.21 647.802 1266.21 648.246C1266.21 648.81 1266.04 649.308 1265.71 649.74C1265.38 650.16 1264.93 650.49 1264.34 650.73C1263.76 650.97 1263.1 651.09 1262.34 651.09ZM1278.22 651.09C1277.29 651.09 1276.47 650.874 1275.73 650.442C1275 649.998 1274.42 649.398 1273.99 648.642C1273.57 647.886 1273.36 647.034 1273.36 646.086C1273.36 645.126 1273.57 644.268 1274.01 643.512C1274.45 642.756 1275.05 642.162 1275.81 641.73C1276.56 641.286 1277.41 641.064 1278.36 641.064C1279.31 641.064 1280.16 641.286 1280.9 641.73C1281.66 642.162 1282.25 642.756 1282.68 643.512C1283.13 644.268 1283.35 645.126 1283.37 646.086V650.316C1283.37 650.52 1283.3 650.688 1283.17 650.82C1283.04 650.94 1282.87 651 1282.66 651C1282.46 651 1282.29 650.94 1282.16 650.82C1282.03 650.688 1281.96 650.52 1281.96 650.316V649.218C1281.55 649.794 1281.03 650.25 1280.38 650.586C1279.73 650.922 1279.01 651.09 1278.22 651.09ZM1278.36 649.83C1279.06 649.83 1279.68 649.668 1280.22 649.344C1280.77 649.02 1281.2 648.576 1281.51 648.012C1281.84 647.436 1282 646.794 1282 646.086C1282 645.366 1281.84 644.724 1281.51 644.16C1281.2 643.596 1280.77 643.152 1280.22 642.828C1279.68 642.492 1279.06 642.324 1278.36 642.324C1277.68 642.324 1277.06 642.492 1276.51 642.828C1275.96 643.152 1275.52 643.596 1275.19 644.16C1274.87 644.724 1274.71 645.366 1274.71 646.086C1274.71 646.794 1274.87 647.436 1275.19 648.012C1275.52 648.576 1275.96 649.02 1276.51 649.344C1277.06 649.668 1277.68 649.83 1278.36 649.83ZM1286.76 651C1286.55 651 1286.37 650.94 1286.24 650.82C1286.12 650.688 1286.06 650.52 1286.06 650.316V641.856C1286.06 641.64 1286.12 641.472 1286.24 641.352C1286.37 641.22 1286.55 641.154 1286.76 641.154C1286.97 641.154 1287.13 641.22 1287.25 641.352C1287.38 641.472 1287.45 641.64 1287.45 641.856V642.468C1287.83 642.024 1288.31 641.676 1288.87 641.424C1289.45 641.172 1290.06 641.046 1290.72 641.046C1291.58 641.046 1292.34 641.226 1293.01 641.586C1293.68 641.934 1294.21 642.45 1294.59 643.134C1294.99 643.818 1295.19 644.652 1295.19 645.636V650.316C1295.19 650.508 1295.12 650.67 1294.99 650.802C1294.86 650.934 1294.7 651 1294.5 651C1294.3 651 1294.13 650.934 1294 650.802C1293.87 650.67 1293.8 650.508 1293.8 650.316V645.636C1293.8 644.52 1293.49 643.698 1292.87 643.17C1292.25 642.63 1291.49 642.36 1290.58 642.36C1289.99 642.36 1289.46 642.474 1288.98 642.702C1288.51 642.93 1288.14 643.242 1287.86 643.638C1287.59 644.034 1287.45 644.484 1287.45 644.988V650.316C1287.45 650.52 1287.38 650.688 1287.25 650.82C1287.13 650.94 1286.97 651 1286.76 651ZM1302.71 651.09C1301.74 651.09 1300.87 650.88 1300.12 650.46C1299.37 650.028 1298.78 649.434 1298.35 648.678C1297.93 647.922 1297.72 647.058 1297.72 646.086C1297.72 645.102 1297.92 644.238 1298.32 643.494C1298.72 642.738 1299.28 642.144 1299.99 641.712C1300.7 641.28 1301.51 641.064 1302.44 641.064C1303.35 641.064 1304.14 641.274 1304.81 641.694C1305.5 642.102 1306.03 642.672 1306.4 643.404C1306.77 644.136 1306.96 644.97 1306.96 645.906C1306.96 646.098 1306.9 646.254 1306.78 646.374C1306.66 646.482 1306.5 646.536 1306.31 646.536H1299.04C1299.11 647.184 1299.31 647.76 1299.63 648.264C1299.95 648.756 1300.38 649.146 1300.91 649.434C1301.44 649.71 1302.04 649.848 1302.71 649.848C1303.14 649.848 1303.57 649.776 1304 649.632C1304.45 649.476 1304.8 649.284 1305.07 649.056C1305.2 648.948 1305.35 648.894 1305.52 648.894C1305.68 648.882 1305.83 648.924 1305.95 649.02C1306.1 649.164 1306.18 649.32 1306.18 649.488C1306.19 649.656 1306.13 649.8 1305.98 649.92C1305.59 650.256 1305.08 650.538 1304.47 650.766C1303.86 650.982 1303.27 651.09 1302.71 651.09ZM1302.44 642.306C1301.51 642.306 1300.75 642.594 1300.15 643.17C1299.55 643.734 1299.19 644.472 1299.07 645.384H1305.66C1305.56 644.472 1305.23 643.734 1304.65 643.17C1304.09 642.594 1303.35 642.306 1302.44 642.306ZM1313.34 651.09C1312.39 651.09 1311.55 650.874 1310.8 650.442C1310.07 649.998 1309.49 649.398 1309.06 648.642C1308.64 647.886 1308.43 647.034 1308.43 646.086C1308.43 645.126 1308.63 644.268 1309.04 643.512C1309.45 642.756 1310 642.162 1310.71 641.73C1311.42 641.286 1312.24 641.064 1313.16 641.064C1314.66 641.064 1315.88 641.64 1316.81 642.792C1316.95 642.936 1316.99 643.092 1316.96 643.26C1316.92 643.416 1316.82 643.554 1316.65 643.674C1316.52 643.77 1316.37 643.806 1316.2 643.782C1316.05 643.746 1315.91 643.656 1315.79 643.512C1315.09 642.72 1314.22 642.324 1313.16 642.324C1312.49 642.324 1311.89 642.486 1311.38 642.81C1310.87 643.134 1310.48 643.578 1310.19 644.142C1309.91 644.706 1309.78 645.354 1309.78 646.086C1309.78 646.806 1309.93 647.448 1310.23 648.012C1310.53 648.576 1310.95 649.02 1311.49 649.344C1312.03 649.668 1312.64 649.83 1313.34 649.83C1314.3 649.83 1315.07 649.572 1315.66 649.056C1315.81 648.936 1315.96 648.87 1316.11 648.858C1316.27 648.846 1316.41 648.894 1316.54 649.002C1316.69 649.134 1316.77 649.284 1316.78 649.452C1316.8 649.62 1316.75 649.764 1316.62 649.884C1315.74 650.688 1314.65 651.09 1313.34 651.09ZM1324.15 651.09C1323.2 651.09 1322.35 650.874 1321.6 650.442C1320.84 649.998 1320.24 649.398 1319.8 648.642C1319.36 647.886 1319.15 647.028 1319.15 646.068C1319.15 645.12 1319.36 644.268 1319.78 643.512C1320.21 642.756 1320.79 642.162 1321.52 641.73C1322.26 641.286 1323.08 641.064 1324.01 641.064C1324.81 641.064 1325.54 641.238 1326.19 641.586C1326.83 641.922 1327.36 642.372 1327.75 642.936V637.644C1327.75 637.428 1327.82 637.26 1327.95 637.14C1328.08 637.008 1328.25 636.942 1328.45 636.942C1328.66 636.942 1328.83 637.008 1328.96 637.14C1329.09 637.26 1329.16 637.428 1329.16 637.644V646.14C1329.13 647.076 1328.9 647.922 1328.45 648.678C1328.02 649.422 1327.43 650.01 1326.67 650.442C1325.93 650.874 1325.09 651.09 1324.15 651.09ZM1324.15 649.83C1324.85 649.83 1325.47 649.668 1326.01 649.344C1326.56 649.008 1326.99 648.558 1327.3 647.994C1327.63 647.43 1327.79 646.788 1327.79 646.068C1327.79 645.36 1327.63 644.724 1327.3 644.16C1326.99 643.584 1326.56 643.134 1326.01 642.81C1325.47 642.486 1324.85 642.324 1324.15 642.324C1323.47 642.324 1322.85 642.486 1322.3 642.81C1321.75 643.134 1321.31 643.584 1320.98 644.16C1320.66 644.724 1320.5 645.36 1320.5 646.068C1320.5 646.788 1320.66 647.43 1320.98 647.994C1321.31 648.558 1321.75 649.008 1322.3 649.344C1322.85 649.668 1323.47 649.83 1324.15 649.83ZM1336.88 651.09C1335.92 651.09 1335.06 650.874 1334.31 650.442C1333.55 650.01 1332.96 649.416 1332.52 648.66C1332.09 647.904 1331.88 647.046 1331.88 646.086C1331.88 645.114 1332.09 644.25 1332.52 643.494C1332.96 642.738 1333.55 642.144 1334.31 641.712C1335.06 641.28 1335.92 641.064 1336.88 641.064C1337.84 641.064 1338.69 641.28 1339.44 641.712C1340.19 642.144 1340.79 642.738 1341.22 643.494C1341.65 644.25 1341.87 645.114 1341.88 646.086C1341.88 647.046 1341.66 647.904 1341.22 648.66C1340.79 649.416 1340.19 650.01 1339.44 650.442C1338.69 650.874 1337.84 651.09 1336.88 651.09ZM1336.88 649.83C1337.58 649.83 1338.2 649.668 1338.75 649.344C1339.3 649.02 1339.74 648.576 1340.05 648.012C1340.36 647.448 1340.52 646.806 1340.52 646.086C1340.52 645.366 1340.36 644.724 1340.05 644.16C1339.74 643.584 1339.3 643.134 1338.75 642.81C1338.2 642.486 1337.58 642.324 1336.88 642.324C1336.18 642.324 1335.56 642.486 1335.01 642.81C1334.46 643.134 1334.02 643.584 1333.69 644.16C1333.38 644.724 1333.23 645.366 1333.23 646.086C1333.23 646.806 1333.38 647.448 1333.69 648.012C1334.02 648.576 1334.46 649.02 1335.01 649.344C1335.56 649.668 1336.18 649.83 1336.88 649.83ZM1348.43 651C1347.79 651 1347.22 650.85 1346.72 650.55C1346.23 650.25 1345.84 649.842 1345.55 649.326C1345.26 648.798 1345.12 648.198 1345.12 647.526V642.72H1343.95C1343.77 642.72 1343.62 642.666 1343.5 642.558C1343.38 642.438 1343.32 642.294 1343.32 642.126C1343.32 641.946 1343.38 641.802 1343.5 641.694C1343.62 641.574 1343.77 641.514 1343.95 641.514H1345.12V638.724C1345.12 638.52 1345.18 638.352 1345.3 638.22C1345.43 638.088 1345.6 638.022 1345.8 638.022C1346.01 638.022 1346.17 638.088 1346.31 638.22C1346.44 638.352 1346.5 638.52 1346.5 638.724V641.514H1348.54C1348.72 641.514 1348.87 641.574 1348.99 641.694C1349.11 641.802 1349.17 641.946 1349.17 642.126C1349.17 642.294 1349.11 642.438 1348.99 642.558C1348.87 642.666 1348.72 642.72 1348.54 642.72H1346.5V647.526C1346.5 648.138 1346.68 648.642 1347.04 649.038C1347.4 649.422 1347.87 649.614 1348.43 649.614H1348.92C1349.11 649.614 1349.26 649.68 1349.38 649.812C1349.5 649.944 1349.56 650.112 1349.56 650.316C1349.56 650.52 1349.49 650.688 1349.35 650.82C1349.2 650.94 1349.02 651 1348.81 651H1348.43ZM1356.29 651.09C1355.31 651.09 1354.45 650.88 1353.69 650.46C1352.95 650.028 1352.36 649.434 1351.93 648.678C1351.51 647.922 1351.3 647.058 1351.3 646.086C1351.3 645.102 1351.5 644.238 1351.89 643.494C1352.3 642.738 1352.86 642.144 1353.57 641.712C1354.28 641.28 1355.09 641.064 1356.02 641.064C1356.93 641.064 1357.72 641.274 1358.39 641.694C1359.08 642.102 1359.6 642.672 1359.98 643.404C1360.35 644.136 1360.53 644.97 1360.53 645.906C1360.53 646.098 1360.47 646.254 1360.35 646.374C1360.23 646.482 1360.08 646.536 1359.89 646.536H1352.61C1352.69 647.184 1352.88 647.76 1353.21 648.264C1353.53 648.756 1353.96 649.146 1354.49 649.434C1355.01 649.71 1355.61 649.848 1356.29 649.848C1356.72 649.848 1357.15 649.776 1357.58 649.632C1358.03 649.476 1358.38 649.284 1358.64 649.056C1358.78 648.948 1358.93 648.894 1359.09 648.894C1359.26 648.882 1359.41 648.924 1359.53 649.02C1359.68 649.164 1359.76 649.32 1359.76 649.488C1359.77 649.656 1359.71 649.8 1359.56 649.92C1359.17 650.256 1358.66 650.538 1358.05 650.766C1357.44 650.982 1356.85 651.09 1356.29 651.09ZM1356.02 642.306C1355.09 642.306 1354.33 642.594 1353.73 643.17C1353.13 643.734 1352.77 644.472 1352.65 645.384H1359.24C1359.14 644.472 1358.81 643.734 1358.23 643.17C1357.67 642.594 1356.93 642.306 1356.02 642.306ZM1366.32 651.09C1365.61 651.09 1364.91 650.97 1364.21 650.73C1363.51 650.49 1362.95 650.13 1362.52 649.65C1362.39 649.506 1362.33 649.344 1362.36 649.164C1362.38 648.984 1362.47 648.828 1362.63 648.696C1362.79 648.576 1362.97 648.528 1363.15 648.552C1363.33 648.576 1363.48 648.654 1363.6 648.786C1363.89 649.122 1364.26 649.38 1364.73 649.56C1365.21 649.74 1365.74 649.83 1366.32 649.83C1367.2 649.83 1367.85 649.68 1368.24 649.38C1368.64 649.068 1368.84 648.696 1368.85 648.264C1368.85 647.832 1368.65 647.478 1368.24 647.202C1367.83 646.914 1367.16 646.692 1366.23 646.536C1365.01 646.344 1364.13 646.008 1363.56 645.528C1363 645.048 1362.72 644.478 1362.72 643.818C1362.72 643.206 1362.88 642.696 1363.2 642.288C1363.53 641.88 1363.96 641.574 1364.5 641.37C1365.04 641.166 1365.63 641.064 1366.28 641.064C1367.08 641.064 1367.77 641.202 1368.35 641.478C1368.94 641.754 1369.41 642.126 1369.77 642.594C1369.89 642.75 1369.94 642.912 1369.92 643.08C1369.89 643.248 1369.8 643.386 1369.63 643.494C1369.48 643.578 1369.32 643.608 1369.12 643.584C1368.94 643.548 1368.79 643.458 1368.66 643.314C1368.07 642.642 1367.26 642.306 1366.24 642.306C1365.58 642.306 1365.06 642.444 1364.66 642.72C1364.26 642.984 1364.07 643.32 1364.07 643.728C1364.07 644.136 1364.24 644.472 1364.59 644.736C1364.95 645 1365.62 645.216 1366.6 645.384C1367.5 645.528 1368.21 645.744 1368.73 646.032C1369.26 646.308 1369.63 646.638 1369.84 647.022C1370.07 647.394 1370.19 647.802 1370.19 648.246C1370.19 648.81 1370.02 649.308 1369.68 649.74C1369.36 650.16 1368.9 650.49 1368.31 650.73C1367.74 650.97 1367.07 651.09 1366.32 651.09ZM1372.9 651.288C1372.62 651.288 1372.37 651.186 1372.17 650.982C1371.96 650.778 1371.86 650.532 1371.86 650.244C1371.86 649.944 1371.96 649.692 1372.17 649.488C1372.38 649.284 1372.63 649.182 1372.9 649.182C1373.19 649.182 1373.44 649.29 1373.64 649.506C1373.85 649.71 1373.95 649.956 1373.95 650.244C1373.95 650.52 1373.85 650.766 1373.64 650.982C1373.45 651.186 1373.2 651.288 1372.9 651.288Z" fill="#45396D"/>
        <circle cx="1097.5" cy="143.5" r="7.5" stroke="#45396D" stroke-width="2"/>
        <circle cx="1074" cy="117" r="12" stroke="#45396D" stroke-width="2"/>
        <circle cx="1115.5" cy="162.5" r="4.5" stroke="#45396D" stroke-width="2"/>
        <path d="M172.79 208.065C173.478 207.98 173.959 208.749 173.557 209.297C172.425 210.836 169.995 213.134 165.262 213.917C157.927 215.13 153.679 208.867 146.208 206.721C145.748 206.592 145.582 206.045 145.931 205.73C148.09 203.801 154.067 198.817 159.534 197.499C165.873 195.967 172.002 196.69 174.351 202.868C174.68 203.733 174.223 204.684 173.34 204.982C171.05 205.771 166.382 206.912 161.314 205.56C161.314 205.56 163.345 209.197 172.79 208.065Z" fill="#04D99D"/>
        <path d="M226.918 184.911C226.548 184.817 226.455 184.327 226.771 184.126C227.66 183.563 229.366 182.871 231.95 183.417C235.955 184.263 236.88 188.326 240.283 190.922C240.493 191.08 240.468 191.394 240.226 191.485C238.733 192.043 234.669 193.403 231.601 192.984C228.044 192.501 225.045 190.903 225.077 187.264C225.081 186.755 225.506 186.359 226.018 186.383C227.351 186.436 229.974 186.785 232.302 188.493C232.302 188.493 231.989 186.221 226.918 184.911Z" fill="#04D99D"/>
        <path d="M191.274 176.715C191.493 177.02 191.254 177.449 190.888 177.402C189.86 177.265 188.133 176.71 186.523 174.665C184.03 171.494 185.898 167.837 184.966 163.724C184.907 163.472 185.124 163.25 185.365 163.334C186.846 163.856 190.778 165.395 192.833 167.651C195.218 170.264 196.476 173.368 194.152 176.099C193.827 176.481 193.255 176.512 192.883 176.171C191.91 175.288 190.147 173.366 189.466 170.603C189.466 170.603 188.267 172.52 191.274 176.715Z" fill="#03A678"/>
        <path d="M245.745 139.787C244.989 140.426 243.811 139.883 243.862 138.913C244.012 136.186 245.119 131.535 250.168 126.892C257.992 119.698 267.979 123.864 278.596 120.581C279.247 120.376 279.873 120.9 279.702 121.55C278.63 125.548 275.383 136.19 269.875 142.048C263.491 148.842 255.593 152.777 247.947 147.226C246.877 146.448 246.678 144.953 247.501 143.906C249.622 141.169 254.313 136.148 261.434 133.798C261.434 133.798 256.156 131.037 245.745 139.787Z" fill="#025949"/>
        <path d="M850.5 724.646C1052.55 698.908 1328.5 697.423 1440 689V800H0V703.658C319.5 724.414 576 759.614 850.5 724.646Z" fill="#025949"/>
    </g>
    <defs>
        <linearGradient id="paint0_linear" x1="-633.441" y1="63.0522" x2="1822.43" y2="-382.134" gradientUnits="userSpaceOnUse">
            <stop stop-color="white"/>
            <stop offset="1" stop-color="#FDECE0"/>
        </linearGradient>
        <linearGradient id="paint1_linear" x1="-216.078" y1="99.2788" x2="1597.93" y2="-229.555" gradientUnits="userSpaceOnUse">
            <stop stop-color="white"/>
            <stop offset="1" stop-color="#FDECE0"/>
        </linearGradient>
        <clipPath id="clip0">
            <rect width="1440" height="800" fill="white"/>
        </clipPath>
    </defs>
</svg>
