<svg width="201" height="201" viewBox="0 0 201 201" fill="none" xmlns="http://www.w3.org/2000/svg">
    <path fill-rule="evenodd" clip-rule="evenodd" d="M201 100.5C201 103.573 200.862 106.612 200.591 109.613C200.497 110.68 200.382 111.741 200.254 112.797C200.254 112.801 200.254 112.801 200.254 112.804C200.169 113.5 200.078 114.192 199.977 114.881C199.903 115.401 199.825 115.921 199.741 116.437C199.666 116.927 199.585 117.41 199.497 117.896C199.477 118.024 199.454 118.156 199.43 118.284C197.887 126.928 195.239 135.194 191.637 142.92C191.069 142.802 190.499 142.68 189.931 142.562C190.472 140.901 189.381 139.06 187.882 138.166C186.383 137.274 184.576 137.099 182.837 136.947C177.171 136.447 171.451 135.951 165.809 136.687C163.884 136.94 161.976 137.335 160.065 137.693C157.668 138.142 155.27 138.53 152.836 138.503C152.691 138.5 152.546 138.5 152.4 138.493C149.888 138.415 147.437 137.902 145.016 137.186C143.911 136.859 142.814 136.487 141.72 136.096C141.244 135.923 140.771 135.751 140.299 135.572C139.478 135.268 138.664 134.954 137.847 134.64C137.347 134.451 136.844 134.259 136.344 134.073C135.51 133.759 134.676 133.455 133.842 133.165C133.407 133.016 132.971 132.868 132.536 132.729C131.732 132.469 130.922 132.23 130.111 132.02C127.511 131.345 124.874 130.96 122.169 131.146C118.931 131.365 115.811 132.402 112.685 133.286C110.466 133.914 108.234 134.468 105.985 134.954C103.088 135.589 100.167 136.116 97.2297 136.558C96.0682 136.734 94.9066 136.896 93.7417 137.045C93.1981 137.115 92.651 137.183 92.1074 137.247C83.5511 138.274 74.8934 138.709 66.283 139.114C63.5817 139.243 60.8602 139.364 58.1825 138.993C56.6394 138.78 55.1267 138.402 53.6173 138.017C53.0737 137.875 52.5301 137.733 51.983 137.598C51.7703 137.544 51.5576 137.49 51.3449 137.44C47.0667 136.413 42.6703 135.893 38.2706 135.88C37.9532 135.88 37.6392 135.88 37.3251 135.886C32.7397 135.944 28.1644 136.555 23.7275 137.71C18.7841 138.996 14.0062 140.951 9.10674 142.363C8.38077 140.776 7.69194 139.168 7.047 137.541H7.04363C4.86908 132.047 3.16052 126.317 1.97195 120.401C1.67143 118.923 1.40805 117.43 1.17844 115.927C1.0974 115.424 1.02649 114.918 0.955583 114.411C0.952207 114.395 0.94883 114.378 0.94883 114.361C0.790129 113.196 0.648311 112.028 0.530129 110.853C0.442337 110.019 0.368051 109.181 0.303896 108.34C0.297142 108.293 0.293766 108.249 0.290389 108.202C0.287013 108.165 0.283636 108.124 0.283636 108.087C0.266753 107.861 0.24987 107.631 0.232987 107.402C0.0776622 105.122 0 102.82 0 100.5C0 99.8382 0.00675324 99.1798 0.0202597 98.5213C0.0202597 98.4504 0.0236363 98.3795 0.027013 98.3086V98.3052C0.0236363 98.2782 0.0236363 98.2512 0.027013 98.2276C0.070909 96.2016 0.175584 94.1926 0.341038 92.2004C0.344415 92.0991 0.354545 91.9978 0.364675 91.8999C0.378181 91.7311 0.391688 91.5622 0.408571 91.3968C0.408571 91.3833 0.408571 91.3731 0.411948 91.363C0.435584 91.0895 0.45922 90.816 0.48961 90.5425C0.536882 90.0225 0.594285 89.5059 0.651687 88.9893C0.759739 88.0337 0.881298 87.0849 1.01974 86.1395C1.02649 86.0787 1.03662 86.0179 1.04675 85.9571C1.04675 85.947 1.04675 85.9369 1.05013 85.9268C1.07714 85.7208 1.10753 85.5182 1.1413 85.3122C1.16831 85.1231 1.1987 84.934 1.22909 84.7449C1.23247 84.7247 1.23247 84.7044 1.23922 84.6842C1.23922 84.6605 1.2426 84.6403 1.24935 84.62C1.26961 84.4816 1.28987 84.3465 1.31688 84.2115C1.32026 84.1709 1.32701 84.1338 1.33376 84.0966C1.41143 83.607 1.49584 83.1174 1.58363 82.6312C1.59376 82.5671 1.60727 82.4995 1.62078 82.432C1.62415 82.4016 1.63091 82.3746 1.63766 82.3442C1.66805 82.1653 1.70182 81.9863 1.73896 81.8073C1.7761 81.5879 1.82 81.3684 1.86389 81.1489C1.86389 81.132 1.86727 81.1185 1.87402 81.1016C1.90441 80.9328 1.93818 80.7606 1.97532 80.5918C1.98208 80.5378 1.99221 80.4837 2.00571 80.4297C2.01922 80.3588 2.03272 80.2879 2.04961 80.2204C2.10363 79.9401 2.16104 79.6632 2.22182 79.3864C2.25896 79.2141 2.2961 79.0453 2.33324 78.8765C2.34 78.8393 2.34675 78.8056 2.35688 78.7684C2.41766 78.4814 2.48182 78.1978 2.54935 77.9108C2.6 77.6846 2.65402 77.4617 2.70805 77.2355C2.74181 77.0835 2.77896 76.935 2.8161 76.783C2.84649 76.6547 2.87688 76.523 2.91065 76.3947C2.96129 76.1786 3.01532 75.9625 3.07272 75.7464C3.08961 75.6688 3.10987 75.5911 3.13013 75.5168C3.13688 75.483 3.14701 75.4493 3.15714 75.4155C3.20103 75.2433 3.24493 75.0745 3.28883 74.9056C3.36987 74.5984 3.4509 74.2911 3.53532 73.9838C3.5522 73.9264 3.56571 73.869 3.58597 73.8116C3.62311 73.6631 3.66363 73.5179 3.70753 73.3727C3.71428 73.3356 3.72441 73.3018 3.73454 73.268C3.84935 72.8527 3.96753 72.4441 4.08909 72.0322C16.3631 30.3924 54.8802 0 100.498 0C152.515 0 195.297 39.5125 200.473 90.1576C200.477 90.1947 200.483 90.2319 200.483 90.2724C200.487 90.2859 200.49 90.2994 200.49 90.3163C200.493 90.3365 200.494 90.3568 200.494 90.3804V90.3838C200.5 90.4142 200.504 90.4446 200.504 90.4784C200.534 90.7586 200.561 91.0422 200.585 91.3259C200.595 91.3968 200.598 91.4677 200.605 91.5386C200.612 91.5926 200.615 91.6466 200.618 91.704C200.622 91.7243 200.625 91.7446 200.625 91.7648C200.828 94.125 200.949 96.5055 200.986 98.9096V98.94C200.997 99.46 201 99.98 201 100.5Z" fill="#FDECE0"/>
    <path d="M200.592 109.613C200.497 110.68 200.383 111.741 200.254 112.797C200.254 112.801 200.254 112.801 200.254 112.804C200.17 113.5 200.079 114.192 199.977 114.881C199.903 115.401 199.825 115.921 199.741 116.437C199.667 116.927 199.586 117.41 199.498 117.896C199.478 118.024 199.454 118.156 199.43 118.284C197.887 126.928 195.24 135.194 191.637 142.92C191.313 143.612 190.985 144.301 190.644 144.983H10.3566C9.92778 144.115 9.51245 143.244 9.10726 142.363C8.38128 140.776 7.69246 139.168 7.04752 137.541H7.04415C4.8696 132.047 3.16103 126.317 1.97246 120.401C1.67194 118.922 1.40857 117.43 1.17896 115.927C1.09792 115.424 1.02701 114.918 0.9561 114.411C0.952724 114.394 0.949347 114.378 0.949347 114.361C0.790646 113.196 0.648828 112.028 0.530646 110.852L0.407136 109.613H200.592Z" fill="url(#paint0_linear)"/>
    <path opacity="0.44" fill-rule="evenodd" clip-rule="evenodd" d="M140.474 109.607H57.6729C55.5017 109.607 55.495 112.983 57.6729 112.983H58.2098C59.763 115.066 61.9815 116.319 64.6321 116.508C66.182 116.616 67.7082 116.292 69.2513 116.255C71.024 116.211 72.6077 116.714 74.1744 117.518C75.6365 118.267 77.0378 119.135 78.4526 119.966C79.8033 120.756 81.1708 121.772 82.7342 122.08C84.284 122.383 85.9723 122.255 87.5458 122.296C89.2882 122.34 91.0305 122.383 92.7695 122.427C94.3531 122.468 95.9334 122.468 97.463 122.937C99.0331 123.42 100.472 124.271 102.079 124.642C104.756 125.26 107.286 124.504 109.777 123.538C111.003 123.062 112.232 122.549 113.522 122.265C115.14 121.911 116.271 122.444 117.821 122.782C120.711 123.407 122.068 121.31 124.307 120.06C125.658 119.307 127.275 119.432 128.747 119.105C130.189 118.784 131.388 118.075 132.384 116.991C133.62 115.647 134.332 114.901 136.23 114.719C137.753 114.573 139.184 114.415 140.525 113.608C140.873 113.398 141.096 113.125 141.217 112.828C142.608 112.156 142.365 109.607 140.474 109.607Z" fill="white"/>
    <path fill-rule="evenodd" clip-rule="evenodd" d="M64.1724 21.144C65.675 21.1643 66.4483 20.5363 67.7145 20.3303C69.1428 20.1041 70.1693 21.0664 70.9088 21.5999C71.1147 21.2859 71.3883 21.1035 71.6651 21.1272C71.9353 21.1542 72.1615 21.3737 72.3067 21.7079C73.1373 21.3433 74.3597 20.5194 75.7677 21.036C76.9732 21.4783 77.6147 22.2448 79.0937 22.5149C79.2625 22.5453 79.4043 22.5622 79.4043 22.5622C79.4043 22.5622 79.2591 22.5926 79.0836 22.6162C78.5433 22.677 78.0469 22.677 77.4695 22.5757C76.8617 22.4744 76.2877 22.2718 75.6529 22.2482C74.9067 22.2279 74.3732 22.4744 73.9545 22.7074C73.2792 23.0856 72.7558 23.5279 72.1851 23.9432C72.1514 24.004 72.1176 24.0614 72.0805 24.1188C72.0906 24.1424 72.1007 24.1694 72.1075 24.1965C72.2088 24.5746 72.5228 24.8515 72.7592 25.1351C72.8605 25.3647 72.5093 25.5336 72.3742 25.6079C71.5841 25.8712 70.8581 25.8003 70.1322 25.3918C70.014 25.2938 69.6999 25.0609 69.8418 24.8549C70.1254 24.6219 70.4867 24.4092 70.6555 24.058C70.6657 24.0344 70.6825 24.0107 70.696 23.9871C70.6724 23.9331 70.6521 23.8791 70.6319 23.8217C70.1693 23.3219 69.7506 22.8087 69.1799 22.3258C68.8119 22.0152 68.3324 21.6708 67.5963 21.5459C66.9683 21.4446 66.3672 21.5323 65.7527 21.5188C65.1685 21.5053 64.6823 21.4108 64.1623 21.2487C63.9968 21.1913 63.8584 21.1339 63.8584 21.1339C63.8584 21.1339 64.0036 21.144 64.1724 21.144Z" fill="#45396D"/>
    <path fill-rule="evenodd" clip-rule="evenodd" d="M30.6024 26.0907C32.5237 24.2133 32.7026 22.4372 34.0398 20.5734C35.5559 18.4765 38.0715 18.3921 39.6787 18.122C39.5403 17.4602 39.6517 16.8895 40.0333 16.5688C40.4081 16.2615 40.972 16.2514 41.5798 16.4844C42.1639 14.9717 42.6637 12.3818 45.0948 11.2473C47.1748 10.2782 48.9577 10.4336 51.166 8.89385C51.4159 8.71827 51.6151 8.55957 51.6151 8.55957C51.6151 8.55957 51.4699 8.78242 51.2808 9.03229C50.6764 9.79539 50.0483 10.4201 49.194 11.0312C48.2992 11.6728 47.3166 12.1421 46.4894 12.9221C45.5237 13.8439 45.159 14.8332 44.9294 15.6571C44.5546 16.9908 44.4566 18.2098 44.2608 19.4591C44.2979 19.5807 44.325 19.6955 44.3486 19.8137C44.3925 19.8305 44.4398 19.8508 44.4803 19.8778C45.0881 20.2256 45.8377 20.1783 46.4927 20.2357C46.9114 20.3978 46.6818 21.0562 46.6075 21.3196C45.9457 22.6533 44.9395 23.484 43.5044 23.8858C43.2343 23.9094 42.5387 24.0141 42.4577 23.5751C42.5185 22.9201 42.7076 22.1941 42.4712 21.5357C42.4543 21.4918 42.4408 21.4412 42.434 21.3939C42.3361 21.3567 42.2416 21.3128 42.1437 21.2656C40.9247 21.2217 39.7429 21.1035 38.4159 21.2217C37.5582 21.296 36.5148 21.4715 35.4309 22.2482C34.5125 22.9167 33.8642 23.7912 33.0707 24.5543C32.3143 25.2803 31.585 25.7767 30.7206 26.2291C30.4369 26.3676 30.1904 26.4689 30.1904 26.4689C30.1904 26.4689 30.3863 26.3068 30.6024 26.0907Z" fill="#45396D"/>
    <path opacity="0.25" fill-rule="evenodd" clip-rule="evenodd" d="M76.5577 39.7354C77.4525 39.2593 77.7024 38.638 78.3845 38.1045C79.1543 37.5068 80.0728 37.7398 80.6839 37.8141C80.7042 37.5609 80.8055 37.365 80.9777 37.2907C81.1465 37.2198 81.3525 37.2739 81.545 37.4224C81.9164 36.9362 82.3689 36.0549 83.3683 35.8996C84.2226 35.7679 84.8507 36.0144 85.813 35.6902C85.9211 35.6531 86.0122 35.616 86.0122 35.616C86.0122 35.616 85.9379 35.6801 85.84 35.751C85.5395 35.9638 85.2491 36.1225 84.8743 36.2541C84.4826 36.3892 84.0774 36.4567 83.6959 36.6526C83.2502 36.8822 83.0138 37.203 82.8416 37.4765C82.5647 37.9188 82.4026 38.3476 82.1967 38.7798C82.1967 38.8271 82.1967 38.871 82.1899 38.9182C82.2034 38.9284 82.2169 38.9419 82.2304 38.9554C82.4128 39.1445 82.6896 39.2086 82.9193 39.2964C83.0543 39.3977 82.9024 39.6138 82.845 39.7016C82.4668 40.1136 82.0143 40.3094 81.4504 40.3026C81.3491 40.2824 81.0891 40.2486 81.106 40.0798C81.1972 39.8502 81.3424 39.6071 81.3255 39.3437C81.3255 39.3268 81.3255 39.3066 81.3289 39.2897C81.2985 39.266 81.2681 39.239 81.2377 39.212C80.8021 39.0668 80.3868 38.9014 79.8938 38.8034C79.5764 38.7393 79.1813 38.692 78.7052 38.8575C78.3034 39.0027 77.9759 39.2491 77.6078 39.4416C77.2567 39.6239 76.9426 39.7286 76.5813 39.7995C76.4632 39.8198 76.3652 39.8299 76.3652 39.8299C76.3652 39.8299 76.4598 39.7894 76.5577 39.7354Z" fill="#45396D"/>
    <path opacity="0.1" fill-rule="evenodd" clip-rule="evenodd" d="M60.9003 40.441C61.4845 40.2857 61.7141 39.9582 62.1801 39.7421C62.7068 39.499 63.2099 39.759 63.5543 39.8839C63.6016 39.7387 63.686 39.6408 63.7941 39.6205C63.9021 39.6003 64.0136 39.6611 64.1047 39.7759C64.385 39.5463 64.7699 39.0938 65.3676 39.1411C65.8808 39.1816 66.2117 39.4078 66.8128 39.3504C66.8803 39.3437 66.9377 39.3335 66.9377 39.3335C66.9377 39.3335 66.8837 39.3605 66.8195 39.3876C66.6169 39.472 66.4245 39.5226 66.1915 39.5496C65.945 39.5766 65.7019 39.5598 65.4554 39.6205C65.165 39.6948 64.986 39.8468 64.8476 39.9818C64.6281 40.2013 64.4728 40.4275 64.2972 40.6504C64.2904 40.6774 64.2837 40.7044 64.2769 40.7281C64.2837 40.7348 64.2904 40.7449 64.2972 40.7551C64.3782 40.8901 64.5302 40.9644 64.6517 41.0454C64.7159 41.1231 64.5977 41.2278 64.5538 41.2683C64.2769 41.4574 63.9899 41.508 63.6658 41.427C63.6084 41.4034 63.4632 41.346 63.4969 41.2514C63.5814 41.1299 63.6962 41.0083 63.7232 40.853C63.7265 40.8429 63.7265 40.8327 63.7333 40.8226C63.7198 40.8057 63.7029 40.7855 63.6894 40.7652C63.4564 40.6234 63.2369 40.4681 62.9634 40.3465C62.7879 40.2655 62.565 40.1844 62.2679 40.2182C62.0146 40.2486 61.7917 40.3465 61.552 40.4073C61.3258 40.4647 61.1266 40.4816 60.9071 40.4748C60.8362 40.4714 60.7754 40.4647 60.7754 40.4647C60.7754 40.4647 60.8362 40.4613 60.9003 40.441Z" fill="#45396D"/>
    <path opacity="0.5" fill-rule="evenodd" clip-rule="evenodd" d="M53.7625 33.8872C54.431 33.1274 54.4479 32.4555 54.8936 31.716C55.4035 30.8854 56.3456 30.7807 56.9432 30.6322C56.8723 30.389 56.896 30.1696 57.031 30.0379C57.1627 29.913 57.3754 29.8927 57.6084 29.9636C57.784 29.3795 57.8988 28.3935 58.7801 27.8971C59.5331 27.4751 60.2084 27.4818 60.9918 26.8403C61.0796 26.766 61.1505 26.7018 61.1505 26.7018C61.1505 26.7018 61.1032 26.7896 61.0391 26.8909C60.8331 27.1948 60.617 27.4481 60.3131 27.7013C59.9957 27.9681 59.6412 28.174 59.3508 28.488C59.0131 28.8628 58.9051 29.2444 58.8443 29.5618C58.743 30.075 58.7396 30.5342 58.7025 31.0103C58.7193 31.0542 58.7328 31.0981 58.7464 31.142C58.7632 31.1454 58.7801 31.1555 58.797 31.1623C59.0367 31.2771 59.317 31.2366 59.5635 31.2399C59.7256 31.2872 59.658 31.5438 59.6378 31.6451C59.4284 32.1651 59.0739 32.5062 58.5471 32.6986C58.4458 32.7155 58.1892 32.7729 58.1453 32.6108C58.1487 32.3643 58.1993 32.0841 58.0913 31.8443C58.0845 31.8275 58.0778 31.8106 58.0744 31.7937C58.0373 31.7836 58.0001 31.7701 57.963 31.7532C57.5038 31.7701 57.058 31.7633 56.5617 31.8443C56.2409 31.8984 55.856 31.9929 55.471 32.3137C55.1469 32.5906 54.9274 32.9384 54.6505 33.2456C54.3871 33.5394 54.1271 33.7487 53.8165 33.9412C53.7118 34.002 53.624 34.0459 53.624 34.0459C53.624 34.0459 53.6848 33.975 53.7625 33.8872Z" fill="#45396D"/>
    <path d="M100.499 77.5394C111.121 77.5394 119.732 68.9285 119.732 58.3065C119.732 47.6845 111.121 39.0736 100.499 39.0736C89.8766 39.0736 81.2656 47.6845 81.2656 58.3065C81.2656 68.9285 89.8766 77.5394 100.499 77.5394Z" fill="#FFCDB6"/>
    <path opacity="0.1" fill-rule="evenodd" clip-rule="evenodd" d="M94.4916 140.907C94.4916 141.279 94.1911 141.579 93.8196 141.579H51.5714C51.1999 141.579 50.8994 141.279 50.8994 140.907C50.8994 140.536 51.1999 140.235 51.5714 140.235H93.823C94.191 140.235 94.4916 140.536 94.4916 140.907Z" fill="#45396D"/>
    <g opacity="0.5">
        <path opacity="0.5" fill-rule="evenodd" clip-rule="evenodd" d="M200.609 109.407L131.141 109.981L75.0423 109.735L0.5 109.5C12.2473 99.6404 37.366 109.063 55.4444 105.507C60.6951 104.474 65.7668 102.698 70.9364 101.31C71.3044 101.212 71.6725 101.114 72.0405 101.023V102.371C72.0405 102.556 72.1925 102.708 72.3782 102.708H72.9016C73.0873 102.708 73.2392 102.556 73.2392 102.371V100.719C75.8932 100.064 78.5709 99.5073 81.2621 99.021C81.3026 99.1122 81.3971 99.1764 81.5052 99.1764H82.4878C82.633 99.1764 82.7545 99.0582 82.7545 98.9096V98.761C85.7665 98.2478 88.7987 97.8224 91.8343 97.4577V98.0621C91.8343 98.1398 91.895 98.2039 91.9727 98.2039H92.1922C92.2732 98.2039 92.334 98.1398 92.334 98.0621V97.3935C94.1067 97.1808 95.8794 96.9883 97.6522 96.8094C98.0303 96.7722 98.4085 96.7317 98.7867 96.6946C99.7896 98.106 101.37 99.0784 103.186 99.2641V103.758C103.186 103.944 103.338 104.096 103.524 104.096H104.047C104.237 104.096 104.385 103.944 104.385 103.758V99.2743C106.523 99.0919 108.349 97.8257 109.315 96.026C110.075 96.0159 110.838 96.0159 111.598 96.0294V96.4987C111.598 96.573 111.658 96.6338 111.729 96.6338H112.222C112.297 96.6338 112.357 96.573 112.357 96.4987V96.0463C113.455 96.0767 114.552 96.1341 115.65 96.2219C117.203 96.3468 118.78 96.5055 120.377 96.6912V98.9096C120.377 99.0582 120.498 99.1764 120.644 99.1764H121.626C121.775 99.1764 121.893 99.0582 121.893 98.9096V96.8769C124.523 97.2112 127.198 97.613 129.892 98.0756V102.371C129.892 102.556 130.044 102.708 130.23 102.708H130.753C130.939 102.708 131.091 102.556 131.091 102.371V98.2816C140.586 99.9462 150.267 102.242 158.978 104.383C172.964 107.817 186.873 108.992 200.609 109.407Z" fill="#45396D"/>
        <g opacity="0.5">
            <path opacity="0.5" d="M73.2397 95.9652V102.371C73.2397 102.556 73.0878 102.708 72.9021 102.708H72.3787C72.193 102.708 72.041 102.556 72.041 102.371V95.9652C72.041 95.7795 72.193 95.6276 72.3787 95.6276H72.9021C73.0878 95.6276 73.2397 95.7795 73.2397 95.9652Z" fill="#FFCDB6"/>
            <path opacity="0.5" fill-rule="evenodd" clip-rule="evenodd" d="M77.2014 87.431C77.4571 86.8369 77.5987 86.1823 77.5987 85.4945C77.5987 82.7868 75.4036 80.5917 72.6958 80.5917C69.988 80.5917 67.793 82.7868 67.793 85.4945C67.793 86.1823 67.9346 86.837 68.1903 87.4311C67.1342 88.5443 66.4863 90.0485 66.4863 91.7041C66.4863 95.1335 69.2665 97.9136 72.6959 97.9136C76.1254 97.9136 78.9055 95.1335 78.9055 91.7041C78.9055 90.0484 78.2576 88.5442 77.2014 87.431Z" fill="#025949"/>
        </g>
        <g opacity="0.5">
            <path opacity="0.5" d="M104.385 97.3529V103.758C104.385 103.944 104.237 104.096 104.048 104.096H103.524C103.338 104.096 103.187 103.944 103.187 103.758V97.3529C103.187 97.1638 103.338 97.0153 103.524 97.0153H104.048C104.237 97.0153 104.385 97.1638 104.385 97.3529Z" fill="#FFCDB6"/>
            <path opacity="0.5" fill-rule="evenodd" clip-rule="evenodd" d="M108.346 88.8206C108.602 88.2261 108.744 87.5707 108.744 86.8822C108.744 84.1745 106.549 81.9794 103.841 81.9794C101.134 81.9794 98.9385 84.1745 98.9385 86.8822C98.9385 87.5708 99.0804 88.2262 99.3367 88.8208C98.28 89.9316 97.6318 91.4374 97.6318 93.0918C97.6318 94.4356 98.0573 95.6782 98.7866 96.6946C99.7895 98.106 101.37 99.0784 103.186 99.2641C103.402 99.2911 103.619 99.3013 103.841 99.3013C104.024 99.3013 104.206 99.2945 104.385 99.2743C106.522 99.0919 108.349 97.8257 109.315 96.026C109.784 95.1515 110.051 94.152 110.051 93.0918C110.051 91.4374 109.403 89.9315 108.346 88.8206Z" fill="#025949"/>
        </g>
        <g opacity="0.5">
            <path opacity="0.5" d="M92.3337 95.3744V98.0621C92.3337 98.1398 92.2729 98.2039 92.1919 98.2039H91.9724C91.8948 98.2039 91.834 98.1398 91.834 98.0621V95.3744C91.834 95.2933 91.8948 95.2325 91.9724 95.2325H92.1919C92.2729 95.2325 92.3337 95.2933 92.3337 95.3744Z" fill="#FFCDB6"/>
            <path opacity="0.5" fill-rule="evenodd" clip-rule="evenodd" d="M93.9984 91.7901C94.1046 91.5419 94.1635 91.2685 94.1635 90.9814C94.1635 89.8457 93.2428 88.925 92.1071 88.925C90.9714 88.925 90.0508 89.8457 90.0508 90.9814C90.0508 91.2688 90.1098 91.5425 90.2163 91.791C89.773 92.2583 89.501 92.8898 89.501 93.5847C89.501 95.0244 90.6681 96.1914 92.1077 96.1914C93.5474 96.1914 94.7145 95.0244 94.7145 93.5847C94.7145 92.8893 94.4422 92.2575 93.9984 91.7901Z" fill="#025949"/>
        </g>
        <g opacity="0.5">
            <path opacity="0.5" d="M82.7544 90.0697V98.9096C82.7544 99.0581 82.6328 99.1763 82.4876 99.1763H81.505C81.397 99.1763 81.3024 99.1122 81.2619 99.021C81.2484 98.9872 81.2383 98.9501 81.2383 98.9096V90.0697C81.2383 89.9988 81.2687 89.9313 81.3159 89.8806C81.3632 89.8334 81.4308 89.803 81.505 89.803H82.4876C82.5619 89.803 82.6261 89.8334 82.6767 89.8806C82.724 89.9313 82.7544 89.9988 82.7544 90.0697Z" fill="#FFCDB6"/>
            <path opacity="0.5" fill-rule="evenodd" clip-rule="evenodd" d="M83.8528 87.7849C84.1077 87.4188 84.2571 86.9739 84.2571 86.494C84.2571 85.2447 83.2441 84.2318 81.9948 84.2318C80.7454 84.2318 79.7324 85.2447 79.7324 86.494C79.7337 86.973 79.8834 87.4171 80.1376 87.7828C79.5935 88.2845 79.2529 89.0039 79.2529 89.8031C79.2529 90.2407 79.3553 90.6543 79.5374 91.0215C79.1409 91.5415 78.9053 92.1912 78.9053 92.896C78.9053 94.6045 80.2897 95.9889 81.9949 95.9889C83.7035 95.9889 85.0845 94.6045 85.0845 92.896C85.0845 92.1913 84.849 91.5417 84.4526 91.0217C84.6344 90.6545 84.7366 90.2408 84.7366 89.8031C84.7366 89.005 84.396 88.2865 83.8528 87.7849Z" fill="#025949"/>
        </g>
        <g opacity="0.5">
            <path opacity="0.5" d="M131.091 95.9652V102.371C131.091 102.556 130.939 102.708 130.754 102.708H130.23C130.045 102.708 129.893 102.556 129.893 102.371V95.9652C129.893 95.7795 130.045 95.6276 130.23 95.6276H130.754C130.939 95.6276 131.091 95.7795 131.091 95.9652Z" fill="#FFCDB6"/>
            <path opacity="0.5" fill-rule="evenodd" clip-rule="evenodd" d="M134.942 87.431C135.197 86.8369 135.339 86.1823 135.339 85.4945C135.339 82.7868 133.144 80.5917 130.436 80.5917C127.728 80.5917 125.533 82.7868 125.533 85.4945C125.533 86.1823 125.675 86.837 125.931 87.4311C124.874 88.5443 124.227 90.0485 124.227 91.7041C124.227 95.1335 127.007 97.9136 130.436 97.9136C133.866 97.9136 136.646 95.1335 136.646 91.7041C136.646 90.0484 135.998 88.5442 134.942 87.431Z" fill="#025949"/>
        </g>
        <g opacity="0.5">
            <path opacity="0.5" d="M121.893 90.0697V98.9096C121.893 99.0581 121.775 99.1763 121.626 99.1763H120.644C120.499 99.1763 120.377 99.0581 120.377 98.9096V90.0697C120.377 89.9988 120.407 89.9313 120.455 89.8806C120.505 89.8334 120.569 89.803 120.644 89.803H121.626C121.701 89.803 121.768 89.8334 121.815 89.8806C121.863 89.9313 121.893 89.9988 121.893 90.0697Z" fill="#FFCDB6"/>
            <path opacity="0.5" fill-rule="evenodd" clip-rule="evenodd" d="M119.278 87.7849C119.023 87.4188 118.874 86.9739 118.874 86.494C118.874 85.2447 119.887 84.2318 121.136 84.2318C122.386 84.2318 123.399 85.2447 123.399 86.494C123.397 86.9735 123.248 87.4182 122.994 87.7841C123.537 88.2857 123.878 89.0046 123.878 89.8031C123.878 90.2406 123.776 90.6542 123.594 91.0212C123.99 91.5413 124.226 92.1911 124.226 92.896C124.226 94.6045 122.842 95.9889 121.136 95.9889C119.428 95.9889 118.047 94.6045 118.047 92.896C118.047 92.1914 118.282 91.5419 118.679 91.0219C118.497 90.6547 118.395 90.2409 118.395 89.8031C118.395 89.005 118.735 88.2865 119.278 87.7849Z" fill="#025949"/>
        </g>
        <g opacity="0.5">
            <path opacity="0.5" d="M112.357 92.0787V96.4986C112.357 96.5729 112.297 96.6337 112.222 96.6337H111.729C111.658 96.6337 111.598 96.5729 111.598 96.4986V92.0787C111.598 92.0382 111.618 92.0044 111.645 91.9808C111.669 91.9605 111.699 91.947 111.729 91.947H112.222C112.256 91.947 112.286 91.9605 112.31 91.9842C112.341 92.0044 112.357 92.0416 112.357 92.0787Z" fill="#FFCDB6"/>
            <path opacity="0.5" fill-rule="evenodd" clip-rule="evenodd" d="M112.904 90.9386C113.032 90.7555 113.107 90.5327 113.107 90.2925C113.107 89.6679 112.601 89.1614 111.976 89.1614C111.351 89.1614 110.845 89.6679 110.845 90.2925C110.845 90.533 110.92 90.7559 111.048 90.9392C110.776 91.1898 110.605 91.5488 110.605 91.9471C110.605 92.165 110.657 92.3712 110.747 92.5544C110.548 92.8147 110.43 93.1402 110.43 93.4935C110.43 94.3478 111.122 95.0399 111.976 95.0399C112.83 95.0399 113.523 94.3478 113.523 93.4935C113.523 93.1404 113.404 92.815 113.205 92.5547C113.296 92.3715 113.347 92.1652 113.347 91.9471C113.347 91.5485 113.177 91.1893 112.904 90.9386Z" fill="#025949"/>
        </g>
    </g>
    <path fill-rule="evenodd" clip-rule="evenodd" d="M178.839 163.456C178.066 164.422 177.276 165.371 176.466 166.303C158.036 187.558 130.837 201 100.498 201C74.2959 201 50.4401 190.972 32.5508 174.551C35.5695 174.254 38.5882 173.947 41.59 173.508C45.3954 172.951 49.1739 172.171 52.851 171.036C67.9816 166.377 81.3598 155.778 97.1421 154.542C108.167 153.678 119.053 157.544 130.115 157.611C137.101 157.652 144.053 156.173 151.03 156.534C160.565 157.027 169.625 160.914 178.839 163.456Z" fill="#45396D"/>
    <path fill-rule="evenodd" clip-rule="evenodd" d="M101.609 123.096C98.5025 123.096 97.2295 124.723 97.2295 124.723V137.342H105.985V124.723C105.985 124.723 104.712 123.096 101.609 123.096ZM103.23 127.236C103.23 127.283 103.193 127.32 103.145 127.32H98.6038C98.5565 127.32 98.5194 127.283 98.5194 127.236V125.524C98.5194 125.476 98.5565 125.439 98.6038 125.439H103.145C103.193 125.439 103.23 125.476 103.23 125.524V127.236Z" fill="#45396D"/>
    <path d="M38.2706 89.4047H37.3252V137.527H38.2706V89.4047Z" fill="#45396D"/>
    <path d="M37.7979 89.776C40.239 89.776 42.2179 87.7971 42.2179 85.3561C42.2179 82.915 40.239 80.9362 37.7979 80.9362C35.3568 80.9362 33.3779 82.915 33.3779 85.3561C33.3779 87.7971 35.3568 89.776 37.7979 89.776Z" fill="#FFCDB6"/>
    <path fill-rule="evenodd" clip-rule="evenodd" d="M191.636 142.92C191.312 143.612 190.985 144.301 190.644 144.983C190.525 145.229 190.404 145.473 190.279 145.719C189.745 146.776 189.195 147.819 188.624 148.852C185.788 154.015 182.509 158.898 178.839 163.456C169.624 160.914 160.565 157.027 151.029 156.534C144.053 156.173 137.101 157.652 130.114 157.611C119.053 157.544 108.166 153.678 97.1417 154.542C81.3593 155.778 67.9812 166.377 52.8505 171.036C49.1734 172.171 45.395 172.951 41.5895 173.508C38.5877 173.947 35.569 174.254 32.5503 174.551C31.696 173.761 30.8519 172.961 30.0246 172.147C22.0625 164.314 15.3971 155.16 10.3862 145.044C10.3761 145.023 10.3659 145.003 10.3558 144.983C9.92696 144.115 9.51164 143.244 9.10645 142.363C14.0059 140.951 18.7838 138.996 23.7272 137.71C28.1641 136.555 32.7394 135.944 37.3249 135.886C37.6389 135.88 37.9529 135.88 38.2703 135.88C42.67 135.893 47.0664 136.413 51.3446 137.44C51.5573 137.49 51.77 137.544 51.9827 137.598C52.5298 137.733 53.0734 137.875 53.617 138.017C55.1264 138.402 56.6391 138.78 58.1822 138.993C60.8599 139.364 63.5814 139.243 66.2827 139.114C74.8931 138.709 83.5508 138.274 92.1071 137.247C92.6507 137.183 93.1978 137.116 93.7414 137.045C94.9063 136.896 96.0679 136.734 97.2294 136.558C100.167 136.116 103.088 135.589 105.985 134.955C108.234 134.468 110.466 133.915 112.684 133.286C115.811 132.402 118.931 131.365 122.169 131.146C124.874 130.96 127.511 131.345 130.111 132.02C130.921 132.23 131.732 132.469 132.535 132.729C132.971 132.868 133.407 133.016 133.842 133.165C134.676 133.455 135.51 133.759 136.344 134.073C136.844 134.259 137.347 134.451 137.847 134.64C138.664 134.955 139.478 135.269 140.298 135.572C140.771 135.751 141.244 135.924 141.72 136.096C142.814 136.487 143.911 136.859 145.015 137.186C147.436 137.902 149.888 138.415 152.4 138.493C152.545 138.5 152.69 138.5 152.836 138.503C155.27 138.53 157.668 138.142 160.065 137.693C161.976 137.335 163.884 136.94 165.809 136.687C171.451 135.951 177.171 136.447 182.837 136.947C184.576 137.099 186.382 137.274 187.882 138.166C189.381 139.06 190.471 140.901 189.931 142.562C190.498 142.68 191.069 142.802 191.636 142.92Z" fill="#FFCDB6"/>
    <path d="M53.6167 122.056H51.9824V141.056H53.6167V122.056Z" fill="#45396D"/>
    <path d="M93.7407 122.056H92.1064V141.056H93.7407V122.056Z" fill="#45396D"/>
    <path d="M52.4639 132.892V134.526H92.9225V132.892H52.4639Z" fill="#45396D"/>
    <path d="M52.4648 127.298V131.06H92.9235V127.298H52.4648Z" fill="#45396D"/>
    <path d="M52.4639 122.894V126.655H92.9225V122.894H52.4639Z" fill="#45396D"/>
    <path opacity="0.1" d="M170.303 141.454C177.667 141.454 183.637 140.845 183.637 140.094C183.637 139.342 177.667 138.733 170.303 138.733C162.939 138.733 156.969 139.342 156.969 140.094C156.969 140.845 162.939 141.454 170.303 141.454Z" fill="#45396D"/>
    <path opacity="0.1" d="M142.294 141.339C146.682 141.339 150.239 140.73 150.239 139.979C150.239 139.227 146.682 138.618 142.294 138.618C137.906 138.618 134.349 139.227 134.349 139.979C134.349 140.73 137.906 141.339 142.294 141.339Z" fill="#45396D"/>
    <path d="M137.12 141.022C139.67 141.022 141.733 138.956 141.733 136.406C141.733 133.857 139.666 131.791 137.12 131.791C134.571 131.791 132.508 133.857 132.508 136.406C132.508 138.956 134.571 141.022 137.12 141.022Z" fill="#025949"/>
    <path d="M133.291 139.979C135.841 139.979 137.904 137.912 137.904 135.363C137.904 132.814 135.837 130.747 133.291 130.747C130.742 130.747 128.679 132.814 128.679 135.363C128.679 137.912 130.742 139.979 133.291 139.979Z" fill="#025949"/>
    <path d="M140.778 139.979C143.327 139.979 145.39 137.912 145.39 135.363C145.39 132.814 143.323 130.747 140.778 130.747C138.232 130.747 136.165 132.814 136.165 135.363C136.165 137.912 138.228 139.979 140.778 139.979Z" fill="#025949"/>
    <path d="M137.12 136.845C139.67 136.845 141.733 134.779 141.733 132.23C141.733 129.68 139.666 127.614 137.12 127.614C134.571 127.614 132.508 129.68 132.508 132.23C132.508 134.779 134.571 136.845 137.12 136.845Z" fill="#025949"/>
    <path d="M158.718 140.907H153.751C153.008 140.907 152.403 140.3 152.403 139.56V94.9118C152.403 94.1689 153.011 93.5612 153.751 93.5612H158.718C159.46 93.5612 160.065 94.1689 160.065 94.9118V139.557C160.065 140.3 159.46 140.907 158.718 140.907Z" fill="#FFCDB6"/>
    <path fill-rule="evenodd" clip-rule="evenodd" d="M165.614 83.3643C166.899 81.5158 167.652 79.2696 167.652 76.8472C167.652 70.5364 162.54 65.4209 156.232 65.4209C149.925 65.4209 144.812 70.5364 144.812 76.8472C144.812 79.2696 145.566 81.5159 146.852 83.3643C144.104 85.8973 142.382 89.5282 142.382 93.5612C142.382 95.7706 142.898 97.8589 143.817 99.712C141.812 102.339 140.622 105.621 140.622 109.181C140.622 117.808 147.612 124.801 156.232 124.801C164.853 124.801 171.842 117.808 171.842 109.181C171.842 105.621 170.652 102.34 168.648 99.7128C169.567 97.8592 170.084 95.7705 170.084 93.5612C170.084 89.5282 168.362 85.8973 165.614 83.3643Z" fill="#025949"/>
    <defs>
        <linearGradient id="paint0_linear" x1="100.561" y1="144.749" x2="100.561" y2="109.38" gradientUnits="userSpaceOnUse">
            <stop stop-color="#A0DAF7"/>
            <stop offset="1" stop-color="#F5F5F5"/>
        </linearGradient>
    </defs>
</svg>
