<svg width="24" height="24" viewBox="0 0 24 24" fill="none" xmlns="http://www.w3.org/2000/svg">
    <path d="M12.9978 24C12.3417 24 11.6875 24 11.0314 24C10.6075 23.9392 10.1818 23.895 9.76161 23.8139C3.50858 22.6106 -0.9476 16.6382 0.172895 10.0062C1.30629 3.29118 7.78784 -1.17012 14.4408 0.270911C19.1587 1.29364 22.1958 4.25678 23.6075 8.87287C23.8231 9.57495 23.9134 10.3028 24 11.0307C24 11.6867 24 12.3409 24 12.9969C23.9429 13.3894 23.9115 13.7875 23.8268 14.1745C22.7818 18.9896 19.8995 22.1259 15.1982 23.5946C14.4832 23.8176 13.7405 23.9097 12.9978 24ZM11.0461 9.27459C11.0461 10.336 11.048 11.3956 11.0443 12.457C11.0424 12.7537 11.1364 13.0098 11.3447 13.2181C12.9978 14.8729 14.6527 16.5277 16.3095 18.1806C16.5896 18.4589 16.9306 18.5362 17.301 18.4238C17.6788 18.3096 17.8944 18.0369 17.9608 17.6499C18.0234 17.285 17.8705 17.0012 17.6198 16.7506C16.1455 15.2801 14.6767 13.8041 13.1987 12.3354C13.042 12.1806 12.9757 12.0221 12.9775 11.801C12.9849 9.90665 12.9812 8.01046 12.983 6.11427C12.983 5.87287 12.9406 5.6499 12.7951 5.45272C12.5444 5.11181 12.1169 4.97177 11.7133 5.10076C11.3115 5.22975 11.048 5.58172 11.0461 6.02029C11.0443 7.10567 11.0461 8.19105 11.0461 9.27459Z" fill="#45396D"/>
</svg>
