<svg width="20" height="30" viewBox="0 0 20 30" fill="none" xmlns="http://www.w3.org/2000/svg">
    <path d="M19.9092 27.0246L17.3619 18.4586H2.63809L0.0907717 27.0246C-0.314007 28.385 0.685727 29.7561 2.08152 29.7561H10.0009H17.9202C19.3143 29.7544 20.314 28.3832 19.9092 27.0246ZM4.18392 22.5986H10.0741H15.926L16.3011 23.7602H10.0741H3.8088L4.18392 22.5986ZM10.0741 26.5983H3.14231L3.51743 25.4368H10.0741H16.6309L17.006 26.5983H10.0741Z" fill="#45396D"/>
    <path d="M13.94 0H6.20737C2.99356 0 0.388672 2.65166 0.388672 5.92316V13.7947C0.388672 17.0662 2.99356 19.7178 6.20737 19.7178H13.94C17.1538 19.7178 19.7587 17.0662 19.7587 13.7947V5.92316C19.7587 2.65166 17.1538 0 13.94 0ZM7.59094 1.83645H12.4082C12.8147 1.83645 13.1444 2.17212 13.1444 2.58594C13.1444 2.99976 12.8147 3.33544 12.4082 3.33544H7.59094C7.18442 3.33544 6.85466 2.99976 6.85466 2.58594C6.85466 2.17212 7.18267 1.83645 7.59094 1.83645ZM4.68246 16.441C3.83103 16.441 3.14186 15.7394 3.14186 14.8727C3.14186 14.006 3.83103 13.3045 4.68246 13.3045C5.53389 13.3045 6.22307 14.006 6.22307 14.8727C6.22307 15.7394 5.53389 16.441 4.68246 16.441ZM15.4649 16.441C14.6135 16.441 13.9243 15.7394 13.9243 14.8727C13.9243 14.006 14.6135 13.3045 15.4649 13.3045C16.3164 13.3045 17.0055 14.006 17.0055 14.8727C17.0055 15.7394 16.3164 16.441 15.4649 16.441ZM17.0055 10.1821C17.0055 11.3774 16.0529 12.3472 14.8787 12.3472H5.27044C4.09623 12.3472 3.14361 11.3774 3.14361 10.1821V6.10787C3.14361 4.91258 4.09623 3.94285 5.27044 3.94285H14.8787C16.0529 3.94285 17.0055 4.91258 17.0055 6.10787V10.1821Z" fill="#45396D"/>
</svg>
