<?xml version="1.0" encoding="utf-8"?>
<!-- Generator: Adobe Illustrator 25.1.0, SVG Export Plug-In . SVG Version: 6.00 Build 0)  -->
<svg version="1.1" id="Calque_1" xmlns="http://www.w3.org/2000/svg" xmlns:xlink="http://www.w3.org/1999/xlink" x="0px" y="0px"
	 viewBox="0 0 50 50" style="enable-background:new 0 0 50 50;" xml:space="preserve">
<style type="text/css">
	.st0{fill:#0C7AA0;}
	.st1{fill:#29325A;}
	.st2{fill:none;stroke:#FFFFFF;stroke-width:2;stroke-linecap:round;stroke-linejoin:round;stroke-miterlimit:10;}
	.st3{fill:#F2B700;}
	.st4{fill:#E55720;}
	.st5{fill:#FFFFFF;}
	.st6{fill:none;stroke:#FFFFFF;stroke-width:2;stroke-miterlimit:10;}
</style>
<path class="st0" d="M88.7,17.4c0.4,0.3,1.1,0.1,1.7,0.3c2.4,0.6,4.4,2,5.8,4c1.7,2.3,5.9,7.5,12.8,11.6c3.7,2.2,6.9,1.9,9.4,0.8
	c4.5-2,6.8-7,6-11.8c-0.8-4.7-3.6-10.9-12.4-15.7C99.3-0.6,90.4,4.8,87.3,7.2c-1.3,1-2.1,2.4-2.3,4C84.9,13,85.5,15.3,88.7,17.4z"/>
<path class="st1" d="M96.4,20c0,0-1.7-2.8-6.9-4.5c-5.2-1.7,0,0,0,0s-5-0.6-6.8,4.1c-0.1,0.3-0.2,0.7-0.3,1
	c-0.6,2.4-2.5,11.6,1.1,18.8c3,5.9,11.4,7.3,15.9,7.6c2.1,0.1,4.2,0,6.2-0.5c4.5-1,12.5-3.8,13.9-10.6c0-0.1,0-0.1,0-0.2
	c0,0,0,0,0,0c-0.2-1.3-1.4-2.2-2.7-2.1c-2.2,0.2-8.8-0.2-16.8-8.8L96.4,20z"/>
<g>
	<path class="st2" d="M104,19.3h-5.8c-0.9,0-1.5-0.7-1.5-1.5v0c0-0.9,0.7-1.5,1.5-1.5h5.8c0.9,0,1.5,0.7,1.5,1.5v0
		C105.5,18.6,104.8,19.3,104,19.3z"/>
	<g>
		<g>
			<path class="st2" d="M92,42.7V29.2c0,0-0.3-2.8,2.5-3h13.3c0,0,2.7,0,2.8,2.7v13.7"/>
			<line class="st2" x1="92" y1="31.7" x2="110.6" y2="31.7"/>
		</g>
		<g>
			<path class="st2" d="M101.1,42.7h10.9c0,0,2.4,0.1,2.4-2.9V23.2c0,0,0.1-6.2-5.2-10c0,0-1-0.8-2.8-1.6c-3.1-1.3-6.7-1.4-9.8-0.2
				c-1.1,0.4-2.2,0.9-3.3,1.7c0,0-5.1,3.5-5.1,10.6V40c0,0-0.1,2.6,2.2,2.7L101.1,42.7z"/>
			<g>
				<path class="st2" d="M94.5,12.3v-5c0,0,0-1.9,2.2-1.9h9.6c0,0,1.7,0.3,1.7,1.9v5"/>
				<path class="st2" d="M96.8,11V8.7c0,0-0.2-0.8,1.2-0.8h6.8c0,0,0.9-0.1,0.9,1.1v2.4"/>
			</g>
		</g>
	</g>
</g>
<path class="st3" d="M42.9,25.2c2.4,2.8,3,6.7,1.3,10c-0.8,1.7-2.2,3.1-4.5,3.5c-6.5,1.2-10.5-2.7-10.5-2.7s-6.3-6-11.9,0.5
	c-2.4,2.8-5.1,3-7.4,2.3c-4.4-1.3-7.1-5.7-6.5-10.3c0.4-3.1,2.2-6.7,7.4-9.3c0,0,7.2-3.9,9.1-13c1.9-9.1,9.3-4.6,9.3-4.6l7.2,5
	c2.3,1.6,3.5,4.3,3.1,7v0C38.9,17.7,40.2,21.9,42.9,25.2L42.9,25.2z"/>
<path class="st4" d="M20.1,32.8c0.8-1.1,2-1.8,3.4-2.1c1.6-0.4,3.5-0.1,5.1,2.2c2.3,3.5,7.9,2.9,10.6,2.3c1.6-0.3,3.4-0.1,4.8,0.8
	c1.2,0.7,2.3,1.9,2.1,3.7c-0.2,2.1-1.6,4-3.6,4.7c-1.2,0.4-2.7,0.6-4.7-0.1c0,0-11.9-3.1-17.6,3.4c-1.1,1.2-2.5,2.1-4.1,2.3
	c-2.7,0.3-6.4-0.7-8-8.2c0,0,0,0,0-0.1c-0.8-3.4,2.1-6.6,5.5-6.2C15.4,35.7,17.9,35.4,20.1,32.8z"/>
<g>
	<g>
		<path class="st2" d="M30.1,33.8h-9.5c-1.7,0-3-1.4-3-3v-9.5c0-1.7,1.4-3,3-3h9.5c1.7,0,3,1.4,3,3v9.5
			C33.1,32.4,31.7,33.8,30.1,33.8z"/>
		<line class="st2" x1="17.6" y1="29.7" x2="33.1" y2="29.7"/>
		<circle class="st5" cx="29.9" cy="31.6" r="0.6"/>
		<circle class="st5" cx="20.9" cy="31.6" r="0.6"/>
	</g>
	<path class="st2" d="M18.3,33v2.6c0,0.4,0.1,0.7,0.2,1c0.2,0.5,0.7,1,1.7,1c1,0,1.5-0.6,1.7-1.1c0.2-0.4,0.2-0.7,0.2-1.1v-1.6"/>
	<path class="st2" d="M32.4,33v2.6c0,0.4-0.1,0.7-0.2,1c-0.2,0.5-0.7,1-1.7,1c-1,0-1.5-0.6-1.7-1.1c-0.2-0.4-0.2-0.7-0.2-1.1v-1.6"
		/>
</g>
<circle class="st2" cx="25.4" cy="27.3" r="14.1"/>
<g>
	<path class="st6" d="M21.5,47.4v-1.6c0-1.2,1-2.3,2.3-2.3H27c1.2,0,2.3,1,2.3,2.3v1.6"/>
	<rect x="22.6" y="41.5" class="st5" width="5.6" height="2.4"/>
</g>
</svg>
