<?xml version="1.0" encoding="utf-8"?>
<!-- Generator: Adobe Illustrator 25.1.0, SVG Export Plug-In . SVG Version: 6.00 Build 0)  -->
<svg version="1.1" id="Calque_1" xmlns="http://www.w3.org/2000/svg" xmlns:xlink="http://www.w3.org/1999/xlink" x="0px" y="0px"
	 viewBox="0 0 50 50" style="enable-background:new 0 0 50 50;" xml:space="preserve">
<style type="text/css">
	.st0{fill:#F2B700;}
	.st1{fill:#E55720;}
	.st2{fill:none;stroke:#FFFFFF;stroke-width:2;stroke-linecap:round;stroke-linejoin:round;stroke-miterlimit:10;}
</style>
<path class="st0" d="M11.2,17.4c0.4,0.3,1.1,0.1,1.7,0.3c2.4,0.6,4.4,2,5.8,4c1.7,2.3,5.9,7.5,12.8,11.6c3.7,2.2,6.9,1.9,9.4,0.8
	c4.5-2,6.8-7,6-11.8c-0.8-4.7-3.6-10.9-12.4-15.7C21.9-0.7,12.9,4.7,9.9,7.2c-1.3,1-2.1,2.4-2.3,4C7.5,13,8.1,15.3,11.2,17.4z"/>
<path class="st1" d="M19,20c0,0-1.7-2.8-6.9-4.5s0,0,0,0s-5-0.6-6.8,4.1c-0.1,0.3-0.2,0.7-0.3,1C4.4,23,2.5,32.2,6.1,39.4
	c3,5.9,11.4,7.3,15.9,7.6c2.1,0.1,4.2,0,6.2-0.5c4.5-1,12.5-3.8,13.9-10.6c0-0.1,0-0.1,0-0.2c0,0,0,0,0,0c-0.2-1.3-1.4-2.2-2.7-2.1
	c-2.2,0.2-8.8-0.2-16.8-8.8L19,20z"/>
<g>
	<path class="st2" d="M26.5,19.2h-5.8c-0.9,0-1.5-0.7-1.5-1.5v0c0-0.9,0.7-1.5,1.5-1.5l5.8,0c0.9,0,1.5,0.7,1.5,1.5v0
		C28.1,18.5,27.4,19.2,26.5,19.2z"/>
	<g>
		<g>
			<path class="st2" d="M14.5,42.7V29.2c0,0-0.3-2.8,2.5-3h13.3c0,0,2.7,0,2.8,2.7v13.7"/>
			<line class="st2" x1="14.5" y1="31.7" x2="33.1" y2="31.7"/>
		</g>
		<g>
			<path class="st2" d="M23.6,42.7h10.9c0,0,2.4,0.1,2.4-2.9V23.2c0,0,0.1-6.2-5.2-10c0,0-1-0.8-2.8-1.6c-3.1-1.3-6.7-1.4-9.8-0.2
				c-1.1,0.4-2.2,0.9-3.3,1.7c0,0-5.1,3.5-5.1,10.6V40c0,0-0.1,2.6,2.2,2.7L23.6,42.7z"/>
			<g>
				<path class="st2" d="M17,12.3v-5c0,0,0-1.9,2.2-1.9h9.6c0,0,1.7,0.3,1.7,1.9v5"/>
				<path class="st2" d="M19.3,11V8.7c0,0-0.2-0.8,1.2-0.8h6.8c0,0,0.9-0.1,0.9,1.1v2.4"/>
			</g>
		</g>
	</g>
</g>
</svg>
