<?xml version="1.0" encoding="utf-8"?>
<!-- Generator: Adobe Illustrator 25.1.0, SVG Export Plug-In . SVG Version: 6.00 Build 0)  -->
<svg version="1.1" id="Calque_1" xmlns="http://www.w3.org/2000/svg" xmlns:xlink="http://www.w3.org/1999/xlink" x="0px" y="0px"
	 viewBox="0 0 50 50" style="enable-background:new 0 0 50 50;" xml:space="preserve">
<style type="text/css">
	.st0{fill:#F2B700;}
	.st1{fill:#E55720;}
	.st2{fill:none;stroke:#FFFFFF;stroke-width:2;stroke-linecap:round;stroke-linejoin:round;stroke-miterlimit:10;}
</style>
<path class="st0" d="M2,36.3c-0.9-1.8-0.1-4,1.7-5c2.2-1.2,6-2.7,10.9-2.3c7.9,0.6,13.6-7.8,13.6-7.8s9.1-12.3,16.9-0.8
	c0.1,0.2,0.3,0.4,0.4,0.6c5.5,8.5,2.6,19.9-6.2,25.1c-2.6,1.5-5.7,2.8-9.1,2.9c-4.4,0.2-8.3-2.4-10.1-6.4c-0.8-1.7-2.3-3.4-5.2-3.9
	C9.8,37.7,3.8,40,2,36.3z"/>
<path class="st1" d="M37.4,8.7c1.4,2,2.6,4.2,3.2,6.6c1.1,4.8,0.9,11.8-7.2,17.1c-6.7,4.3-13.3,3.8-18.2,2.1
	C8.2,32.3,3.4,25.8,3.6,18.5C3.8,13.2,6.6,7.3,16.1,3.3C31.8-3.1,33.7,3.6,37.4,8.7z"/>
<circle class="st2" cx="26.8" cy="24.8" r="16"/>
<line class="st2" x1="26.8" y1="15.6" x2="26.8" y2="34"/>
<line class="st2" x1="36" y1="24.8" x2="17.6" y2="24.8"/>
</svg>
