<?xml version="1.0" encoding="utf-8"?>
<!-- Generator: Adobe Illustrator 25.1.0, SVG Export Plug-In . SVG Version: 6.00 Build 0)  -->
<svg version="1.1" id="Calque_1" xmlns="http://www.w3.org/2000/svg" xmlns:xlink="http://www.w3.org/1999/xlink" x="0px" y="0px"
	 viewBox="0 0 50 50" style="enable-background:new 0 0 50 50;" xml:space="preserve">
<style type="text/css">
	.st0{fill:#F2B700;}
	.st1{fill:#E55720;}
	.st2{fill:none;stroke:#FFFFFF;stroke-width:2;stroke-linecap:round;stroke-linejoin:round;stroke-miterlimit:10;}
</style>
<path class="st0" d="M11.1,27.5c0.5-0.1,0.9-0.7,1.4-1c2-1.3,4.5-1.7,6.9-1.3c2.8,0.4,9.4,1.1,17.1-0.9c4.1-1.1,6.1-3.5,7-6
	c1.7-4.6-0.1-9.7-4.1-12.5c-3.8-2.7-10.2-5-19.6-2.3C5.8,7.5,3.4,17.5,3,21.3c-0.2,1.6,0.2,3.2,1.3,4.4C5.3,27,7.4,28.2,11.1,27.5z"
	/>
<path class="st1" d="M16.9,24.1c0,0-3.2-0.6-8.4,2.1s0,0,0,0s-4.2,3.4-2.3,8c0.1,0.3,0.3,0.6,0.5,0.9c1.2,2.1,6.3,10,14.1,12.2
	c6.4,1.8,13.7-3.6,17.4-6.8c1.7-1.5,3.1-3.2,4.4-5.1c2.7-4.2,6.8-12.2,3-17.9c0-0.1-0.1-0.1-0.1-0.1c0,0,0,0,0,0
	c-1.1-0.7-2.6-0.4-3.5,0.6c-1.5,1.8-6.8,6.6-18.9,6.6L16.9,24.1z"/>
<g>
	<path class="st2" d="M38.7,10.3L38.7,10.3c2.3,0,4.2,1.9,4.2,4.2v9.9c0,2.3-1.9,4.2-4.2,4.2h0c-2.3,0-4.2-1.9-4.2-4.2v-9.9
		C34.5,12.2,36.4,10.3,38.7,10.3z"/>
	<path class="st2" d="M32.3,26.6V13.1c0-1.1-0.8-1.9-1.8-2.1c-3.7-0.4-12.2-1.1-16.9,0c-0.6,0.2-1.2,0.4-1.7,0.9
		c-0.7,0.6-1.3,1.5-0.5,2.8c0.2,0.4,0.1,0.9-0.2,1.2c-1,0.8-2.4,2.4-1.4,3.9c0.3,0.4,0.2,0.9-0.1,1.2c-0.7,0.7-1.7,2.1-0.8,3.6
		C9,25.2,8.9,25.7,8.6,26c-1,0.8-2.4,2.4-0.7,4.1c2.6,2.6,13.3-1.9,13,1.6s-1.5,7.1,0.8,11s4.7,2.7,4.1-1.4
		c-0.5-3.7,1.3-10.8,5.1-12.4C31.8,28.4,32.3,27.6,32.3,26.6z"/>
</g>
</svg>
