<svg id="mamie" xmlns="http://www.w3.org/2000/svg" viewBox="0 0 1320.5 702.85"><defs><style>.cls-1{fill:#f7f5f5;}.cls-2{fill:#eead00;}.cls-3{fill:#29325a;}.cls-4{fill:#f7ebe8;}.cls-5{fill:#f3b807;}.cls-6{fill:#c0e4ee;}.cls-7{fill:#bde1ed;}.cls-20,.cls-25,.cls-30,.cls-31,.cls-36,.cls-37,.cls-41,.cls-42,.cls-8{fill:none;}.cls-20,.cls-8{stroke:#fff;}.cls-20,.cls-25,.cls-36,.cls-41,.cls-42,.cls-8{stroke-linecap:round;}.cls-20,.cls-25,.cls-28,.cls-30,.cls-36,.cls-37,.cls-41,.cls-42,.cls-8{stroke-miterlimit:10;}.cls-9{fill:#0c7aa0;}.cls-10{fill:#203b77;}.cls-11{fill:#dcc6c0;}.cls-12{fill:#e4572b;}.cls-13{fill:#eaedf2;}.cls-14{font-size:33.94px;}.cls-14,.cls-15{fill:#2a3359;font-family:ArchitectsDaughter-Regular, Architects Daughter;}.cls-15{font-size:28.47px;}.cls-16{fill:#dcf1f7;}.cls-17{fill:#fce9e8;}.cls-18{fill:#192624;}.cls-19{fill:#e3572c;}.cls-20,.cls-30,.cls-36,.cls-41{stroke-width:2px;}.cls-21{fill:#f9c7a6;}.cls-22{fill:#1b1b1b;}.cls-23,.cls-28{fill:#f7b08e;}.cls-24{fill:#fff;}.cls-25{stroke:#192624;}.cls-25,.cls-37{stroke-width:0.5px;}.cls-26{fill:#e4582c;}.cls-27{fill:#d64420;}.cls-28{stroke:#1e1e1c;}.cls-28,.cls-42{stroke-width:0.25px;}.cls-29{fill:#ee9573;}.cls-30{stroke:#d64320;}.cls-32{fill:#f6ae89;}.cls-33{fill:#f9c6a2;}.cls-34{fill:#182624;}.cls-35{fill:#f6e9e5;}.cls-36{stroke:#f6e9e5;}.cls-37{stroke:#f6ae89;}.cls-38{fill:#e55720;}.cls-39{fill:#d13e16;}.cls-40{fill:#2a305c;}.cls-41{stroke:#4a5480;}.cls-42{stroke:#182624;}</style></defs><rect class="cls-1" width="1320" height="530.95"/><path class="cls-2" d="M1320.26,292.78v74.11h-27.55l-.13.05-.08,0h-70.09s0,0,0,0a20.72,20.72,0,0,1,8-10.78,24.25,24.25,0,0,1-10.94-6.87,22.19,22.19,0,0,1-5.86-15c0-12.67,10.83-22.94,24.18-22.94a25.15,25.15,0,0,1,10.38,2.22,22.18,22.18,0,0,1,5.08-12.45,24.66,24.66,0,0,1,19-8.8,25.15,25.15,0,0,1,11.12,2.57,15.62,15.62,0,0,1,1-1.24,24,24,0,0,1,14.08-7.16,25.91,25.91,0,0,1,3.08-.3c.39,0,.8,0,1.2,0A25.19,25.19,0,0,1,1320.26,292.78Z" transform="translate(-0.26 0.65)"/><path class="cls-3" d="M1202.49,150.5H1261a3.46,3.46,0,0,1,3.46,3.46V358.38a0,0,0,0,1,0,0H1199a0,0,0,0,1,0,0V154A3.46,3.46,0,0,1,1202.49,150.5Z"/><rect class="cls-4" x="1258.51" y="161.46" width="4.77" height="195.11" rx="1.72"/><rect class="cls-4" x="1200.78" y="161.46" width="4.77" height="195.11" rx="1.72"/><path class="cls-4" d="M1207.83,142.52h48.4a2.28,2.28,0,0,1,2.28,2.28v5.7a0,0,0,0,1,0,0h-53a0,0,0,0,1,0,0v-5.7a2.28,2.28,0,0,1,2.28-2.28Z"/><path class="cls-3" d="M1217.8,116.64H1252a3.11,3.11,0,0,1,3.11,3.11v22.77a0,0,0,0,1,0,0h-40.46a0,0,0,0,1,0,0V119.75A3.11,3.11,0,0,1,1217.8,116.64Z"/><path class="cls-4" d="M1236.92,95.46h6.79a3.2,3.2,0,0,1,3.2,3.2v18a0,0,0,0,1,0,0h-13.2a0,0,0,0,1,0,0v-18A3.2,3.2,0,0,1,1236.92,95.46Z"/><rect class="cls-5" x="1210.7" y="155.89" width="42.27" height="5.57" rx="1.59"/><rect class="cls-6" x="1210.7" y="304.65" width="43.08" height="4.65" rx="1.67"/><rect class="cls-6" x="1210.7" y="247.46" width="43.08" height="4.65" rx="1.67"/><rect class="cls-6" x="1210.7" y="298.05" width="43.08" height="4.65" rx="1.67"/><rect class="cls-6" x="1210.7" y="240.32" width="43.08" height="4.65" rx="1.67"/><rect class="cls-6" x="1210.7" y="233.17" width="43.08" height="4.65" rx="1.67"/><rect class="cls-6" x="1210.7" y="226.02" width="43.08" height="4.65" rx="1.67"/><rect class="cls-6" x="1210.7" y="200.73" width="43.08" height="4.65" rx="1.67"/><rect class="cls-6" x="1210.7" y="193.58" width="43.08" height="4.65" rx="1.67"/><rect class="cls-6" x="1210.7" y="186.43" width="43.08" height="4.65" rx="1.67"/><path class="cls-7" d="M1320.26,335.82v301H689.72a956.94,956.94,0,0,1,205.8-166.68c108.44-65.07,219.53-101.79,323.92-120.84C1253.89,343,1287.61,338.64,1320.26,335.82Z" transform="translate(-0.26 0.65)"/><path class="cls-8" d="M904.23,531.87l2.58-1.58c77.71-47.52,217.72-119,406.82-142.9l6.63-.81" transform="translate(-0.26 0.65)"/><path class="cls-9" d="M1100.52,581.39H.26V436.33c237-12.82,528.86-2.37,844.87,71.91C937.06,529.85,1022.22,554.79,1100.52,581.39Z" transform="translate(-0.26 0.65)"/><rect class="cls-10" y="530.95" width="1320" height="169.05"/><rect class="cls-11" y="520.82" width="386.1" height="11"/><path class="cls-12" d="M114.1,520H53.22l-.18-.09H.26V465.31a19.68,19.68,0,0,1,18.42-12.06,20,20,0,0,1,15.55,7.23,24.29,24.29,0,0,1,11.82-3,23.48,23.48,0,0,1,22,14.46c15.72.44,28.3,11.71,28.3,25.55a22.52,22.52,0,0,1-2.21,9.73c.62-.05,1.24-.08,1.86-.08A18.7,18.7,0,0,1,114.1,520Z" transform="translate(-0.26 0.65)"/><rect class="cls-3" x="105.37" y="355.86" width="114.93" height="95.23"/><rect class="cls-5" x="157.73" y="146.68" width="12.73" height="16.09"/><path class="cls-4" d="M224.08,351.39a3.87,3.87,0,0,1-3.79,4c-67-.13-113.18-.22-115.08-.19l-.51,0a4.64,4.64,0,0,1-4-4.66v-8.71a4.62,4.62,0,0,1,4.5-4.72l114.93-.13a3.86,3.86,0,0,1,3.78,3.88Q224,346.1,224.08,351.39Z" transform="translate(-0.26 0.65)"/><rect class="cls-5" x="120.25" y="352.26" width="22.23" height="9.23" rx="1.63"/><rect class="cls-5" x="177.86" y="352.26" width="22.23" height="9.23" rx="1.63"/><rect class="cls-5" x="181.79" y="336.16" width="12.73" height="16.09"/><path class="cls-4" d="M108.42,331.28c0-29.46,19.23-85.69,55.6-85.69,37.93,0,55.59,56.23,55.59,85.69Z" transform="translate(-0.26 0.65)"/><rect class="cls-5" x="125.54" y="336.16" width="12.73" height="16.09"/><path class="cls-5" d="M221.1,336.94h-116v-4c-.2-2.65.51-4.77,1.84-5.26a2,2,0,0,1,.89-.1H219c.57,0,1.14,0,1.7,0a1.65,1.65,0,0,1,.35,0C221.4,327.67,222,328.6,221.1,336.94Z" transform="translate(-0.26 0.65)"/><path class="cls-5" d="M189.59,256.29h-51a1.86,1.86,0,0,1-1.7-2.61l2.43-5.49a1.85,1.85,0,0,1,1.69-1.1l6.47-4.79h32.7l6.77,4.79a1.86,1.86,0,0,1,1.67,1l2.68,5.49A1.86,1.86,0,0,1,189.59,256.29Z" transform="translate(-0.26 0.65)"/><path class="cls-5" d="M188.77,205.78l-3.43,3.09a15.11,15.11,0,0,0-5,11.23v27h-32.9v-27a15.13,15.13,0,0,0-5-11.23L139,205.78Z" transform="translate(-0.26 0.65)"/><path class="cls-12" d="M170,214h5.45a0,0,0,0,1,0,0v18.49a1.43,1.43,0,0,1-1.43,1.43h-2.59a1.43,1.43,0,0,1-1.43-1.43V214A0,0,0,0,1,170,214Z"/><rect class="cls-5" x="133.05" y="197.63" width="61.52" height="6.94" rx="1.81"/><path class="cls-12" d="M152.18,214h5.45a0,0,0,0,1,0,0v18.49a1.43,1.43,0,0,1-1.43,1.43h-2.59a1.43,1.43,0,0,1-1.43-1.43V214A0,0,0,0,1,152.18,214Z"/><path class="cls-3" d="M139.65,197c0-13,8.49-37.86,24.56-37.86,16.76,0,24.56,24.85,24.56,37.86Z" transform="translate(-0.26 0.65)"/><rect class="cls-4" x="151.73" y="130.06" width="24.72" height="24.5"/><circle class="cls-6" cx="164.09" cy="142.31" r="8.16"/><path class="cls-5" d="M152,129.4a26.19,26.19,0,0,0,6.41-9.17,26.47,26.47,0,0,0,1.75-13.94h8.32a30.28,30.28,0,0,0,1.14,10.77,30.61,30.61,0,0,0,7.1,12.34Z" transform="translate(-0.26 0.65)"/><circle class="cls-6" cx="164.21" cy="103.91" r="2.73"/><rect class="cls-4" x="159.39" y="106.64" width="9.4" height="1.06" rx="0.28"/><path class="cls-12" d="M129.57,327.59c0-17.77,11.6-51.68,33.53-51.68,22.88,0,33.53,33.91,33.53,51.68Z" transform="translate(-0.26 0.65)"/><path class="cls-12" d="M123.19,280.48c3.07,1.25,1.52,10.72.4,22.32-.58,6-1.23,14.47-1.44,24.79H108.42a122,122,0,0,1,5.39-29.25,120.51,120.51,0,0,1,7.07-17.53C121.21,280.13,122.39,280.15,123.19,280.48Z" transform="translate(-0.26 0.65)"/><path class="cls-12" d="M207.73,280.81a120.51,120.51,0,0,1,7.07,17.53,122,122,0,0,1,5.39,29.25H206.46c-.21-10.32-.86-18.78-1.44-24.79-1.12-11.6-2.67-21.07.4-22.32C206.22,280.15,207.4,280.13,207.73,280.81Z" transform="translate(-0.26 0.65)"/><rect class="cls-4" x="136.43" y="204.56" width="54.76" height="1.87" rx="0.67"/><rect class="cls-6" x="106.07" y="445.23" width="114.76" height="75.39"/><rect class="cls-5" x="102.57" y="445" width="121.25" height="8.9" rx="1.84"/><rect class="cls-3" x="212.39" y="499.48" width="6.81" height="10.6" transform="translate(-289.25 721.23) rotate(-90)"/><rect class="cls-3" x="215.79" y="496.07" width="5.3" height="5.3" transform="translate(-280.54 717.82) rotate(-90)"/><rect class="cls-3" x="212.39" y="487.36" width="6.81" height="10.6" transform="translate(-277.13 709.11) rotate(-90)"/><rect class="cls-3" x="215.79" y="484.29" width="5.3" height="5.3" transform="translate(-268.76 706.04) rotate(-90)"/><rect class="cls-3" x="212.39" y="475.58" width="6.81" height="10.6" transform="translate(-265.35 697.33) rotate(-90)"/><rect class="cls-3" x="215.79" y="472.18" width="5.3" height="5.3" transform="translate(-256.64 693.93) rotate(-90)"/><rect class="cls-3" x="212.39" y="463.47" width="6.81" height="10.6" transform="translate(-253.23 685.22) rotate(-90)"/><rect class="cls-3" x="212.39" y="451.35" width="6.81" height="10.6" transform="translate(-241.12 673.1) rotate(-90)"/><rect class="cls-3" x="215.79" y="460.06" width="5.3" height="5.3" transform="translate(-244.53 681.81) rotate(-90)"/><rect class="cls-3" x="212.39" y="511.26" width="6.81" height="10.6" transform="translate(-301.03 733.01) rotate(-90)"/><rect class="cls-3" x="215.79" y="507.85" width="5.3" height="5.3" transform="translate(-292.32 729.6) rotate(-90)"/><rect class="cls-3" x="108.18" y="499.48" width="6.81" height="10.6" transform="translate(-393.46 617.02) rotate(-90)"/><rect class="cls-3" x="106.28" y="496.07" width="5.3" height="5.3" transform="translate(-390.05 608.31) rotate(-90)"/><rect class="cls-3" x="108.18" y="487.36" width="6.81" height="10.6" transform="translate(-381.34 604.9) rotate(-90)"/><rect class="cls-3" x="106.28" y="484.29" width="5.3" height="5.3" transform="translate(-378.27 596.53) rotate(-90)"/><rect class="cls-3" x="108.18" y="475.58" width="6.81" height="10.6" transform="translate(-369.56 593.12) rotate(-90)"/><rect class="cls-3" x="106.28" y="472.18" width="5.3" height="5.3" transform="translate(-366.15 584.42) rotate(-90)"/><rect class="cls-3" x="108.18" y="463.47" width="6.81" height="10.6" transform="translate(-357.44 581.01) rotate(-90)"/><rect class="cls-3" x="108.18" y="451.35" width="6.81" height="10.6" transform="translate(-345.33 568.89) rotate(-90)"/><rect class="cls-3" x="106.28" y="460.06" width="5.3" height="5.3" transform="translate(-354.04 572.3) rotate(-90)"/><rect class="cls-6" x="104.2" y="389.78" width="6.81" height="5.3" transform="translate(-285.08 500.69) rotate(-90)"/><rect class="cls-6" x="103.63" y="385.05" width="5.3" height="2.65" transform="translate(-280.35 493.31) rotate(-90)"/><rect class="cls-6" x="104.2" y="377.66" width="6.81" height="5.3" transform="translate(-272.97 488.58) rotate(-90)"/><rect class="cls-6" x="103.63" y="372.93" width="5.3" height="2.65" transform="translate(-268.23 481.2) rotate(-90)"/><rect class="cls-6" x="104.2" y="365.55" width="6.81" height="5.3" transform="translate(-260.85 476.46) rotate(-90)"/><rect class="cls-6" x="101.49" y="358.67" width="9.59" height="2.65" transform="translate(-253.97 466.94) rotate(-90)"/><rect class="cls-6" x="104.2" y="438.29" width="6.81" height="5.3" transform="translate(-333.59 549.2) rotate(-90)"/><rect class="cls-6" x="103.63" y="433.56" width="5.3" height="2.65" transform="translate(-328.86 541.82) rotate(-90)"/><rect class="cls-6" x="104.2" y="426.18" width="6.81" height="5.3" transform="translate(-321.48 537.09) rotate(-90)"/><rect class="cls-6" x="103.63" y="421.44" width="5.3" height="2.65" transform="translate(-316.74 529.71) rotate(-90)"/><rect class="cls-6" x="104.2" y="414.06" width="6.81" height="5.3" transform="translate(-309.36 524.97) rotate(-90)"/><rect class="cls-6" x="103.63" y="409.33" width="5.3" height="2.65" transform="translate(-304.63 517.59) rotate(-90)"/><rect class="cls-6" x="104.2" y="401.94" width="6.81" height="5.3" transform="translate(-297.25 512.86) rotate(-90)"/><rect class="cls-6" x="103.63" y="397.21" width="5.3" height="2.65" transform="translate(-292.51 505.48) rotate(-90)"/><rect class="cls-6" x="215.09" y="401.08" width="7.19" height="5.3" transform="translate(-185.31 623.07) rotate(-90)"/><rect class="cls-6" x="217.36" y="396.16" width="5.3" height="2.65" transform="translate(-177.74 618.14) rotate(-90)"/><rect class="cls-6" x="215.28" y="388.77" width="6.81" height="5.3" transform="translate(-173 610.76) rotate(-90)"/><rect class="cls-6" x="217.36" y="384.04" width="5.3" height="2.65" transform="translate(-165.62 606.03) rotate(-90)"/><rect class="cls-6" x="215.18" y="376.56" width="7" height="5.3" transform="translate(-160.79 598.55) rotate(-90)"/><rect class="cls-6" x="217.36" y="371.74" width="5.3" height="2.65" transform="translate(-153.32 593.72) rotate(-90)"/><rect class="cls-6" x="215.28" y="364.35" width="6.81" height="5.3" transform="translate(-148.58 586.34) rotate(-90)"/><rect class="cls-6" x="215.91" y="358.17" width="8.2" height="2.65" transform="translate(-139.75 580.16) rotate(-90)"/><rect class="cls-6" x="215.09" y="437.91" width="7.19" height="5.3" transform="translate(-222.14 659.9) rotate(-90)"/><rect class="cls-6" x="217.36" y="432.99" width="5.3" height="2.65" transform="translate(-214.57 654.98) rotate(-90)"/><rect class="cls-6" x="215.28" y="425.61" width="6.81" height="5.3" transform="translate(-209.84 647.59) rotate(-90)"/><rect class="cls-6" x="217.36" y="420.87" width="5.3" height="2.65" transform="translate(-202.45 642.86) rotate(-90)"/><rect class="cls-6" x="215.28" y="413.3" width="6.81" height="5.3" transform="translate(-197.53 635.29) rotate(-90)"/><rect class="cls-6" x="217.36" y="408.57" width="5.3" height="2.65" transform="translate(-190.15 630.56) rotate(-90)"/><rect class="cls-6" x="215.28" y="401.19" width="6.81" height="5.3" transform="translate(-185.42 623.17) rotate(-90)"/><rect class="cls-6" x="215.28" y="389.07" width="6.81" height="5.3" transform="translate(-173.3 611.06) rotate(-90)"/><rect class="cls-6" x="217.36" y="396.45" width="5.3" height="2.65" transform="translate(-178.03 618.44) rotate(-90)"/><rect class="cls-3" x="108.18" y="511.26" width="6.81" height="10.6" transform="translate(-405.24 628.8) rotate(-90)"/><rect class="cls-3" x="106.28" y="507.85" width="5.3" height="5.3" transform="translate(-401.83 620.09) rotate(-90)"/><path class="cls-13" d="M689.72,169.72c3.22,0,3.23-5,0-5s-3.22,5,0,5Z" transform="translate(-0.26 0.65)"/><text class="cls-14" transform="translate(427.1 383.28) rotate(-2.99)">?</text><text class="cls-15" transform="translate(440.73 391.99) rotate(28.94)">?</text><path class="cls-16" d="M614.13,132.83h-236A34,34,0,0,0,344,166.76V303.42a34,34,0,0,0,34.18,33.93h236a34,34,0,0,0,34.18-33.93V166.76A34.1,34.1,0,0,0,614.13,132.83Z" transform="translate(-0.26 0.65)"/><path class="cls-17" d="M938.62,132.83h-236a34,34,0,0,0-34.19,33.93V303.42a34,34,0,0,0,34.19,33.93h236a34,34,0,0,0,34.18-33.93V166.76A34.1,34.1,0,0,0,938.62,132.83Z" transform="translate(-0.26 0.65)"/><path class="cls-18" d="M333.12,497.09S274.77,516.87,262,537.84s-7.29,28.62-10.94,48.5,1.29,37.93,20.71,60.36,40.38,7,54.05-4S333.12,497.09,333.12,497.09Z" transform="translate(-0.26 0.65)"/><path class="cls-19" d="M314,699.44s-10.73-200.09,56.3-220.77c5.11-1.57,3.74,4.41,18.62,4.41,20.72,0,13.73-5.18,20.56-2.64,73.58,27.38,55.59,219,55.59,219Z" transform="translate(-0.26 0.65)"/><path class="cls-19" d="M409.47,480.34Z" transform="translate(-0.26 0.65)"/><path class="cls-19" d="M409.47,480.34s43.58,7.43,64.44,53.63c18.21,40.34,36.5,124.66,26.53,154.58L453.29,684S434.73,493.2,409.47,480.34Z" transform="translate(-0.26 0.65)"/><path d="M385.76,674.1Z" transform="translate(-0.26 0.65)"/><line class="cls-20" x1="453.08" y1="665.26" x2="502.96" y2="669.5"/><line class="cls-20" x1="452.1" y1="655.24" x2="501.98" y2="659.47"/><polygon class="cls-21" points="492.77 687.23 492.62 688.48 491.21 700 459.76 700 461.07 693.09 462.49 685.59 462.9 683.41 465.52 683.74 473.77 684.8 492.77 687.23"/><path class="cls-22" d="M390.88,512.33a11.78,11.78,0,0,1,.49-1.61v.74C391.25,511.71,391,512.08,390.88,512.33Z" transform="translate(-0.26 0.65)"/><g id="COU"><path class="cls-23" d="M375.25,447.79l-2.5,35s14.72,12.63,35.41.6l-.25-26.27S383.22,433.92,375.25,447.79Z" transform="translate(-0.26 0.65)"/></g><path class="cls-18" d="M335.46,495.84s-57.64,19.54-70.25,40.26S258,564.37,254.4,584s1.28,37.46,20.46,59.62,39.89,6.91,53.4-3.93S335.46,495.84,335.46,495.84Z" transform="translate(-0.26 0.65)"/><path class="cls-21" d="M421.63,426.55s-.95-16.43-4.2-21.11c-12.32-17.69-53.09-20.84-56.56,15.88,0,0-.67-3.38-1.09,3,0,0-6.49-5.18-6.48,3.7,0,8.07,1.15,11.49,7.56,17.2,0,0,10.66,23.75,36.21,22.48,9.76-.49,17.33-10.38,20.84-19.83h0A70.72,70.72,0,0,0,421.63,426.55Z" transform="translate(-0.26 0.65)"/><path class="cls-21" d="M420.37,425.9s3.22-3.44,5.27-.71,1.5,15.79-5.38,18.73S420.37,425.9,420.37,425.9Z" transform="translate(-0.26 0.65)"/><circle class="cls-23" cx="371.26" cy="438.83" r="6.03"/><circle class="cls-23" cx="410.91" cy="438.83" r="6.03"/><circle class="cls-24" cx="383.1" cy="429.48" r="1.13"/><circle class="cls-24" cx="402.89" cy="428.86" r="1.13"/><circle class="cls-18" cx="384.02" cy="428.56" r="1.13"/><circle class="cls-18" cx="403.81" cy="427.94" r="1.13"/><path class="cls-23" d="M358.49,435.68s1.31,3.92,3.59,1.31,3.75-19.43,11.26-26.78c0,0,.13-2,6,0s15.2-.65,19.94.17,7.67,2.93,11.75,2.93,8.19.82,8.17,4.74,1.26-15.35,1.26-15.35l-51.71-5.06-10.47,26.7Z" transform="translate(-0.26 0.65)"/><path class="cls-18" d="M359.21,437.07c.47-7.12-18.58-40.65-4.1-42.05,0,0,8.95-30,37.67-17.75s34.35,2.45,37.67,11.78-3.06,27.16-19.75,21.44-21.52.86-32.23-3.95c-8.31-3.74-14.09,19.6-16.25,30.22C361.9,438.29,359.11,438.62,359.21,437.07Z" transform="translate(-0.26 0.65)"/><path class="cls-18" d="M413.21,411.17s5.27-.25,6.1,2.6c1.36,4.7,2.21,20.5,3.86,16.12s1.57-14.13.87-25.41C423.18,390.55,413.21,411.17,413.21,411.17Z" transform="translate(-0.26 0.65)"/><path class="cls-23" d="M390.48,438.85s4.85,1.69,7-2C397.48,436.86,395.92,443.15,390.48,438.85Z" transform="translate(-0.26 0.65)"/><path class="cls-25" d="M387.32,418.24S383,414,376.66,422.12" transform="translate(-0.26 0.65)"/><path class="cls-25" d="M400.9,419s1.66-5.35,10.77,2.1" transform="translate(-0.26 0.65)"/><path class="cls-26" d="M410.88,479.3Z" transform="translate(-0.26 0.65)"/><path class="cls-23" d="M389.63,510.37l9.29-12.59,11-9.26c2.22-2.85,4.49-6,6.76-9.38,2-2.95,3.73-5.82,5.32-8.58.48-2.89-.18-4.25-.85-5-.94-1-2-.77-3.18-2.12-1-1.11-.57-1.57-1.54-3-1.25-1.81-3.36-1.67-5.08-3.61-1.47-1.66-2.17-4.31-3.37-5.06-1.5-.94-2.57-.15-3.36,0-3.95.78-9.05,9.07-12.53,13A1.82,1.82,0,0,1,389,464c-.89-3.71-2.55-9.17-4.82-10.81a1.22,1.22,0,0,0-1.91,1l.69,25.29-11.36,16.29Z" transform="translate(-0.26 0.65)"/><path class="cls-27" d="M408.9,700.3s.52-173-12.86-191.25c0,0-26.67,63.52-30.32,71.67-5.23,11.63-14,37.21-50.46,46.63L311.63,700Z" transform="translate(-0.26 0.65)"/><path class="cls-28" d="M395.44,449.14a10.32,10.32,0,0,1-2.69-.51c-1.3-.4-3.5-.42-3.35,2.74.2,4.39,4.89,4.05,6.64,3.47C398.79,453.92,401.86,449.39,395.44,449.14Z" transform="translate(-0.26 0.65)"/><path class="cls-29" d="M390.06,452.55s1.38,3.21,5.52,1.83C395.58,454.38,393.74,450.71,390.06,452.55Z" transform="translate(-0.26 0.65)"/><path class="cls-26" d="M372.68,490.39c-.23-7.9-.5-12.75-.5-12.75S327.81,488.5,314,509.22s-52.35,83.29-34.44,106.35,38.51,17.73,64.15-.86c12.25-8.88,16.53-20.21,34-63.4,8.27-19.29,17.92-42.6,17.92-42.6S377.68,492.91,372.68,490.39Z" transform="translate(-0.26 0.65)"/><path class="cls-27" d="M306.91,561.42s.1-10.43,7.86-12.57,21.86-17.14,22.16-23,16.37-23,16.37-23l1.54-7.09s-1.78,6.22-10.61,9.71-11.3,25.1-16,26.25S284.86,563.26,306.91,561.42Z" transform="translate(-0.26 0.65)"/><path class="cls-18" d="M363.58,479.3s-7.73-.63-19.35,6.68a61.44,61.44,0,0,1,13.4,13.44c4-5.26,8.26-9.9,12.63-14.77A65.41,65.41,0,0,0,363.58,479.3Z" transform="translate(-0.26 0.65)"/><path class="cls-30" d="M450.69,679.1s-4.76-93-14.73-135.62" transform="translate(-0.26 0.65)"/><path class="cls-31" d="M958.6,697.26l16.25-74.94,30.94-142.72,25.42.31,1.56,8.06.29,1.51L1009.93,498c-.08.62-.17,1.23-.25,1.85l-8.82,64.95h0c-.21,1.59-.43,3.17-.64,4.76h0l-2.82,20.71h0q-1,7.77-2.11,15.56h0q-.48,3.48-.95,7-1.61,11.76-3.2,23.54-1.8,13.26-3.61,26.56-2.12,15.51-4.2,31c-.15,1.12-.31,2.25-.46,3.37,0,.69-.09,1.38-.14,2.06M984.57,633,980,654.89" transform="translate(-0.26 0.65)"/><line class="cls-31" x1="1020.4" y1="701.85" x2="1019.32" y2="701.85"/><line class="cls-31" x1="1020.4" y1="701.85" x2="1019.32" y2="701.85"/><g id="COU-2" data-name="COU"><path class="cls-32" d="M1065.5,441.37l11.3,39.72a209.5,209.5,0,0,1-43.73,8.38l-5.83-30.25S1052.38,427.15,1065.5,441.37Z" transform="translate(-0.26 0.65)"/></g><path class="cls-33" d="M997.23,425.56a60.46,60.46,0,0,0,1.37,11.1,54.84,54.84,0,0,0,7.43,18,14.35,14.35,0,0,0,8,6c36.46,10.44,46.51-19.66,46.51-19.66a12.39,12.39,0,0,0,18.78-3.78,13.22,13.22,0,0,0,.65-10.74,13.44,13.44,0,0,0-9.18-8.19,14.21,14.21,0,0,0-14.7,5.65l-5.16-21.3c4.19-5.44,5.52-11.61,3.29-14.49-2.7-3.47-11.79-3.6-19.85,3.53l-31.5,5a62,62,0,0,0-3.95,11.5,76.85,76.85,0,0,0-1.54,10.12c0,.49-.08.95-.1,1.41A58.48,58.48,0,0,0,997.23,425.56Z" transform="translate(-0.26 0.65)"/><circle class="cls-32" cx="1036.42" cy="432.13" r="6.36"/><path class="cls-32" d="M997.23,425.56a60.46,60.46,0,0,0,1.37,11.1,6.35,6.35,0,0,0-1.37-11.1Z" transform="translate(-0.26 0.65)"/><circle class="cls-34" cx="1016.59" cy="420.52" r="1.47"/><path class="cls-34" d="M997.31,419.67a1.5,1.5,0,0,0,1.35.87,1.49,1.49,0,0,0,0-3,1.53,1.53,0,0,0-1.25.69Z" transform="translate(-0.26 0.65)"/><path class="cls-35" d="M1055.47,427l-7.82-1.47v14.32a9.58,9.58,0,0,1-3.51,7.49c-5.84,4.71-19,11.95-39.6,4.82,0,0-.26,22.39,12.31,20.37s44.86-9.6,43.72-31.57Z" transform="translate(-0.26 0.65)"/><path class="cls-36" d="M1018.32,404.2s7.18-3.73,12,2.35" transform="translate(-0.26 0.65)"/><path class="cls-36" d="M997.91,403.8a8.57,8.57,0,0,1,6.71.88" transform="translate(-0.26 0.65)"/><path class="cls-37" d="M1025.26,430.09a9.88,9.88,0,0,1-3.33,2.14,10,10,0,0,1-5.61.44" transform="translate(-0.26 0.65)"/><path class="cls-35" d="M1019.11,441.21c-3.87-3.89-13.56-11.43-21.59.2-.5.72,0,1.85.74,1.84l20.31-.13C1019.4,443.12,1019.76,441.86,1019.11,441.21Z" transform="translate(-0.26 0.65)"/><path class="cls-35" d="M1047.65,427.76h27.22s14.16-55.8-37.6-55-39.22,38.41-39.22,38.41l4.85-14.55,40.84.4,10.51-8.9-6.87,12.13Z" transform="translate(-0.26 0.65)"/><ellipse class="cls-33" cx="1067.74" cy="431.74" rx="13.22" ry="12.69"/><path class="cls-38" d="M1020.56,699.35H969.92c.26-1.11.52-2.21.78-3.33q4.72-20.24,9.25-41.13c1.56-7.24,3.12-14.52,4.62-21.86q2.16-10.35,4.26-20.86h0c.52-2.65,1-5.3,1.57-8v0q2.7-13.68,5.17-27.17,1.6-8.61,3.13-17.16,6-33.92,11-66.5s0-.05,0-.07c.08,1.57.17,3.13.25,4.71q1.35,25.56,2.69,51.13.81,15.14,1.6,30.28l.12,2.24q1.67,31.5,3.33,63h0q.15,3.12.33,6.24.84,16,1.69,32Z" transform="translate(-0.26 0.65)"/><path class="cls-39" d="M980,654.88q2.65,5.86,5.31,11.69c.75-1.21,1.52-2.42,2.28-3.64l9-14.31c-1.79-4.08-3.56-8.16-5.35-12.24-1.27-2.93-2.56-5.86-3.84-8.78-.9,1.81-1.83,3.62-2.73,5.43C983.07,640.36,981.51,647.64,980,654.88Z" transform="translate(-0.26 0.65)"/><path class="cls-39" d="M1000.79,583.54l9.18,21-11.22,18q-4.18-9.16-8.35-18.33Z" transform="translate(-0.26 0.65)"/><path class="cls-39" d="M1006.27,685l-2.25,3.6-6.72,10.75h-3.89c-1-2.31-2.11-4.62-3.16-6.94l-3.54-7.78L997.09,664Z" transform="translate(-0.26 0.65)"/><path class="cls-39" d="M1013.75,546.87l9.18,21-11.22,18q-4.17-9.15-8.35-18.32Q1008.57,557.2,1013.75,546.87Z" transform="translate(-0.26 0.65)"/><path class="cls-39" d="M995.57,577c2.09-3.33,4.17-6.68,6.25-10l-3.12-7.14Q997.17,568.4,995.57,577Z" transform="translate(-0.26 0.65)"/><path class="cls-39" d="M1010.23,627.6l9.18,21-11.22,18q-4.17-9.15-8.35-18.32Q1005,637.93,1010.23,627.6Z" transform="translate(-0.26 0.65)"/><path class="cls-40" d="M1136,699.35H1019.37c-.6-5.12-1.15-10.35-1.68-15.66-.9-9.28-1.71-18.82-2.43-28.43-.47-6.35-.9-12.73-1.3-19.1v0c-1.08-17.35-1.89-34.62-2.49-50.82,0-.37,0-.74,0-1.1-.4-10.86-.71-21.24-.95-30.84-.61-24.48-.76-43.93-.8-53.54,0-3.81,0-6.07,0-6.49v-.07h0l23.09-5.31h0l43.16-9.92,8.72-2,.13.56L1115,607.7Z" transform="translate(-0.26 0.65)"/><path class="cls-41" d="M1036.05,697.53c.08.61.17,1.22.26,1.82s.19,1.25.3,1.85" transform="translate(-0.26 0.65)"/><path class="cls-33" d="M943.59,676.14l-18,3.28-15.39,6.8c-4.13.86-8.59,1.64-13.33,2.26-4.11.55-8,.92-11.75,1.17-3.28-1-4.38-2.37-4.78-3.44-.57-1.51.2-2.48-.59-4.44-.65-1.62-1.35-1.41-2.33-3.15-1.27-2.24-.34-3-1.49-5.82-1-2.39-1.95-2.54-2.12-4.19a6.53,6.53,0,0,1,1.65-4.51c4-5.26,15.74-3.47,16.24-3.39,0,0-16.61-1-12.64-5.2,0,0,26.94-7.18,35.63-2.26l23-3.54Z" transform="translate(-0.26 0.65)"/><path class="cls-40" d="M924.19,630.62l8.11,66.85a200.07,200.07,0,0,0,77.49-10.81c51.39-18.13,123-68.12,123.17-137.45,0-10.87-1.68-31.72-16.15-57-6.11-10.69-17.85-17.19-30.09-15.85-16.79,1.85-39.59,14.89-56.1,64.84C1001.27,630,951.28,636.24,924.19,630.62Z" transform="translate(-0.26 0.65)"/><path class="cls-42" d="M1012.91,444.3a7.28,7.28,0,0,0,5.75,1.84c3.35-.5,5.27-3.44,5.66-4.06" transform="translate(-0.26 0.65)"/><path class="cls-41" d="M1082.23,499.83l-49.17,12.51" transform="translate(-0.26 0.65)"/></svg>