<svg id="Calque_1" data-name="Calque 1" xmlns="http://www.w3.org/2000/svg" viewBox="0 0 441.45 283.32"><defs><style>.cls-1{fill:#f2b608;}.cls-2{fill:#1b1b1b;}.cls-3{fill:#fff;}.cls-4{fill:#e4582c;}.cls-13,.cls-5{fill:#f7b08e;}.cls-6{fill:#f9c7a6;}.cls-10,.cls-12,.cls-16,.cls-18,.cls-7{fill:none;}.cls-7{stroke:#d64420;}.cls-10,.cls-12,.cls-13,.cls-16,.cls-18,.cls-7{stroke-miterlimit:10;}.cls-12,.cls-7{stroke-width:0.5px;}.cls-8{fill:#2b315b;}.cls-9{fill:#1d3c77;}.cls-10,.cls-18{stroke:#2b315b;stroke-width:2px;}.cls-11{fill:#192624;}.cls-12{stroke:#192624;}.cls-12,.cls-18{stroke-linecap:round;}.cls-13{stroke:#1e1e1c;stroke-width:0.25px;}.cls-14{fill:#ee9573;}.cls-15{fill:#151f1d;}.cls-16{stroke:#eead1e;stroke-width:3px;}.cls-17{fill:#f2b60d;}.cls-19{fill:#f39874;}.cls-20{fill:#e3572c;}</style></defs><path class="cls-1" d="M414.89,290.6H303.41c-.06.81-.11,1.63-.13,2.44-.1-.18-.21-.36-.32-.54-.38-.65-.77-1.28-1.17-1.9H256.35c0-4.92.15-10,.38-15.26v-.11c.06-1.34.12-2.7.2-4.06.06-1.19.14-2.4.22-3.6.23-3.65.52-7.34.88-11.05q.48-4.87,1.12-9.77.72-5.61,1.69-11.17.81-4.72,1.83-9.38c1.28-5.9,2.8-11.67,4.59-17.23.23-.72.46-1.43.71-2.13.35-1.06.72-2.1,1.1-3.14.3-.82.6-1.65.92-2.46s.52-1.34.79-2q.89-2.19,1.84-4.32c.38-.86.78-1.72,1.18-2.55s.66-1.35,1-2a92,92,0,0,1,6.95-11.68c7.38-10.47,16.79-18.57,28.76-23a57.23,57.23,0,0,1,5.91-1.81l.32-.07a4.82,4.82,0,0,1,2.1,0l.28.07a13.43,13.43,0,0,1,2.66,1.36c2.17,1.21,5.54,2.75,13.62,2.75,21.12,0,14-4.8,21-2.45l.21.08.6.2C403.52,172.23,413.74,241.25,414.89,290.6Z" transform="translate(-0.79 -9.71)"/><path class="cls-1" d="M442.24,290.6H411.35C407,263.18,395.22,229.77,383.1,203c0,0,0,0,0,0-9.53-21.06-19.29-38-25.89-44.72a13.6,13.6,0,0,0-3.32-2.64s1-.06,2.69,0h.6c12,.43,53.06,5.73,65.9,57.57C428.63,235.64,436.24,262.5,442.24,290.6Z" transform="translate(-0.79 -9.71)"/><path class="cls-1" d="M328.56,228.16c-8.36,7-14.67,19.83-19.2,32.66-1.15,3.22-2.18,6.44-3.1,9.56A80.7,80.7,0,0,0,303,290.6c0,.63,0,1.27,0,1.9-.38-.65-.77-1.28-1.17-1.9h-63c-.07-4.36-.09-9,0-13.85,0-.73,0-1.46,0-2.19,0-1.75.08-3.52.14-5.31,0-.38,0-.76,0-1.14.13-3.66.32-7.41.59-11.2.27-4.14.63-8.34,1.09-12.57,0-.39.08-.78.13-1.18,0-.16,0-.32.05-.48.14-1.23.29-2.46.45-3.7.1-.81.21-1.62.32-2.43A209.55,209.55,0,0,1,247.15,209c.19-.69.38-1.38.58-2.06.27-.92.54-1.84.83-2.74a125,125,0,0,1,5-13.41c.1-.25.21-.49.33-.73.2-.46.41-.92.62-1.38a45.14,45.14,0,0,1,3.37-5.92l.42-.62c.74-1.07,1.53-2.15,2.38-3.23a73.37,73.37,0,0,1,6.19-6.85c11.24-11,27.4-20.22,43.09-19.83a35.83,35.83,0,0,1,5.92.63c.34.07.64.38.9.92.78,1.61,1.23,5.21,1.59,10.06C319.56,180.49,319.74,211.78,328.56,228.16Z" transform="translate(-0.79 -9.71)"/><path class="cls-2" d="M101.69,162.54a11.17,11.17,0,0,1,.51-1.65v.76C102.07,161.9,101.82,162.28,101.69,162.54Z" transform="translate(-0.79 -9.71)"/><circle class="cls-3" cx="93.17" cy="67.06" r="1.16"/><circle class="cls-3" cx="113.5" cy="66.42" r="1.16"/><path class="cls-4" d="M122.23,128.61Z" transform="translate(-0.79 -9.71)"/><g id="COU"><path class="cls-5" d="M103.37,77.42l-2.84,39.86s16.74,14.37,40.28.68l-.29-29.88S112.44,61.64,103.37,77.42Z" transform="translate(-0.79 -9.71)"/></g><path class="cls-6" d="M156.13,53.27s-1.08-18.7-4.78-24C137.34,9.13,91,5.55,87,47.31c0,0-.76-3.84-1.24,3.43,0,0-7.37-5.89-7.37,4.22,0,9.18,1.31,13.06,8.6,19.56,0,0,12.13,27,41.19,25.57,11.1-.55,19.71-11.8,23.7-22.55h0A80.57,80.57,0,0,0,156.13,53.27Z" transform="translate(-0.79 -9.71)"/><path class="cls-6" d="M154.69,52.52s3.67-3.91,6-.8,1.71,18-6.12,21.3S154.69,52.52,154.69,52.52Z" transform="translate(-0.79 -9.71)"/><circle class="cls-5" cx="98.34" cy="56.78" r="6.85"/><circle class="cls-5" cx="143.44" cy="56.78" r="6.85"/><path class="cls-5" d="M120.7,67.26s5.51,1.92,8-2.27C128.65,65,126.88,72.14,120.7,67.26Z" transform="translate(-0.79 -9.71)"/><circle class="cls-7" cx="109.01" cy="45.63" r="9.32"/><circle class="cls-7" cx="135.59" cy="45.16" r="9.32"/><path class="cls-7" d="M119.13,55.34s4-4.06,7.93-.47" transform="translate(-0.79 -9.71)"/><path class="cls-5" d="M93.53,44.05s5-11.32,10.39-9.53,19.49,8.2,35.74,5.89c0,0,5.49-.51,7.28-2.3s5.39-2,6.28,3.45.89-10.62.89-10.62H96.91Z" transform="translate(-0.79 -9.71)"/><path class="cls-8" d="M158.12,22.67c-5.34-7.92-17.31-10-37.45-12.55-25.86-3.28-35.28,14.5-35.28,14.5-7.88,2.11-4.85,12.6-1.64,24.93,1.66,6.4,3.38,13.32,3.63,19.79a32.45,32.45,0,0,0,.42,6.74v0A28.74,28.74,0,0,0,102,96.4a37.7,37.7,0,0,0,9.47,3.89h0A52,52,0,0,0,126,101.93a29.62,29.62,0,0,0,14.64-3.64A23.1,23.1,0,0,0,146.83,93c4.87-6,6.45-13.75,6.95-19.7.08-1,.14-1.85.17-2.69v0c0-.42,0-.81,0-1.2,0-.85.21-2.52.45-4.21s.52-3.39.76-4.33.48-2,.74-3.19v0h0v0a0,0,0,0,1,0,0c.42-2,.86-4.3,1.27-6.74h0c.1-.63.21-1.27.3-1.92a129.13,129.13,0,0,0,1.4-14.3,25.81,25.81,0,0,1,.42-3.92A12.55,12.55,0,0,0,158.12,22.67Zm-5.87,38.64v0s0,.05,0,.07a0,0,0,0,0,0,0,28.7,28.7,0,0,1-.69,3.52.1.1,0,0,0,0,0,.29.29,0,0,1,0,.09h0v0s0,0,0,0c-.14.49-.27,1-.41,1.43,0,0,0,0,0,0v0h0s0,0,0,0c-.61,2-1.23,3.65-1.3,3.85v0h0c-.49,1.31-1,2.7-1.5,4.16-1.27,3.73-5.22,6.71-10,8.88h0c-.64.3-1.3.57-2,.83h0A51.32,51.32,0,0,1,129,86.65h0a45.73,45.73,0,0,1-8.27,1.18A17.21,17.21,0,0,1,115.1,87h0a36.51,36.51,0,0,1-4-1.48,63.16,63.16,0,0,1-8-4.27c-4.41-2.8-8.15-5.85-9.73-7.87-3.64-4.62-2.51-16.67-2.48-16.9.17-1.57.38-3.07.64-4.52h0a48.76,48.76,0,0,1,2-7.9h0s0,0,0,0h0s0,0,0,0c3.05-8.54,8-12.31,13.46-9.84,12.18,5.47,26.46,5.41,33.78,4.71,3.24-.31,10.6-5,11.53-1.62a43.19,43.19,0,0,1,.88,4.39c0,.13.05.28.07.43a44.94,44.94,0,0,1,.57,7.82c0,.52-.08,1-.13,1.5h0C153.29,55.67,152.58,58.41,152.25,61.31Z" transform="translate(-0.79 -9.71)"/><path class="cls-7" d="M145.7,54.87a24.48,24.48,0,0,1,11.51-4.09" transform="translate(-0.79 -9.71)"/><path class="cls-7" d="M85.77,50.74a54.09,54.09,0,0,1,14.71,4.44" transform="translate(-0.79 -9.71)"/><path class="cls-2" d="M120,145a13.5,13.5,0,0,1,.51-1.65v.76C120.34,144.4,120.09,144.78,120,145Z" transform="translate(-0.79 -9.71)"/><path class="cls-9" d="M194.69,290.6H41.05c-.06-7.73-.09-14.33-.1-18,0-2.19,0-4.41,0-6.69h0c.29-27.79,2.59-60.38,9.8-88.75h0q1.47-5.82,3.23-11.37c8.88-27.87,23.39-49.93,46.73-56.31h0l.34-.08c3.54-.8,3.92,2,9.64,3.56a33.65,33.65,0,0,0,8.91,1c21,0,14.1-5.69,20.86-2.69a2.53,2.53,0,0,0,.23.12h0l.56.27a27.55,27.55,0,0,1,3.42,1.92c27,17.38,40.05,80,46.35,133.5,1.23,10.37,2.2,20.39,3,29.67.07.88.15,2,.21,3.25,0,.55.06,1.13.1,1.74C194.47,284.2,194.59,287.24,194.69,290.6Z" transform="translate(-0.79 -9.71)"/><path class="cls-4" d="M140.51,111.11Z" transform="translate(-0.79 -9.71)"/><path class="cls-9" d="M230.49,290.6H180.83c-.64-5.59-1.34-11.6-2.11-17.92a.18.18,0,0,0,0-.06c-7-57.39-19.43-139.69-34.54-158.31a13.3,13.3,0,0,0-2.86-2.72,3.42,3.42,0,0,0-.57-.34,1.48,1.48,0,0,0-.21-.13l.21,0c.6.11,2.29.46,4.79,1.18h0a96.17,96.17,0,0,1,60.35,53.19,168.12,168.12,0,0,1,8.55,25.13h0c.71,2.62,1.39,5.33,2.05,8.09.22.91.43,1.81.65,2.73h0q.62,2.69,1.21,5.45c.29,1.34.57,2.68.85,4,0,0,0,0,0,0,.7,3.35,1.36,6.76,2,10.2v0c.55,3,1.08,6,1.59,9,.23,1.33.45,2.64.66,4,0,0,0,0,0,0,.74,4.54,1.43,9.11,2.08,13.65q.91,6.44,1.71,12.77c0,.19,0,.37.07.54.1.84.21,1.66.3,2.48,0,.13,0,.25,0,.39q.45,3.6.85,7.13s0,.06,0,.08c0,.37.09.75.12,1.12.32,2.77.61,5.51.88,8.19C229.87,284,230.2,287.36,230.49,290.6Z" transform="translate(-0.79 -9.71)"/><path class="cls-10" d="M179.88,290.6c-.34-5.63-.73-11.66-1.16-17.91a.2.2,0,0,0,0-.07c-2.34-34-6.06-74.93-11.33-97.45" transform="translate(-0.79 -9.71)"/><path class="cls-5" d="M118.68,143l9.54-12.93,11.31-9.51c2.28-2.93,4.62-6.14,6.94-9.63,2-3,3.84-6,5.47-8.82.48-3-.18-4.37-.87-5.1-1-1-2-.8-3.27-2.18-1-1.14-.59-1.61-1.58-3.06-1.29-1.86-3.46-1.71-5.23-3.71-1.5-1.7-2.22-4.43-3.45-5.2-1.54-1-2.64-.15-3.46,0-4.05.8-9.29,9.32-12.87,13.32a1.86,1.86,0,0,1-3.21-.78c-.92-3.82-2.62-9.43-5-11.11a1.25,1.25,0,0,0-2,1.08l.72,26-11.67,16.73Z" transform="translate(-0.79 -9.71)"/><path class="cls-8" d="M40.59,290.6l.36-18,.23-5.39c16.28-4.2,27.39-12.27,35.17-21.05l.1-.1.1-.11,0,0a80.64,80.64,0,0,0,10.33-15c.07-.12.14-.24.2-.36l.27-.54c3.09-5.83,5.12-11.07,6.73-14.67,3.76-8.36,31.15-73.61,31.15-73.61,7.79,10.59,11,89.41,12.3,148.93Z" transform="translate(-0.79 -9.71)"/><path class="cls-9" d="M101.27,122.5c-.23-8.11-.52-13.1-.52-13.1S55.18,120.55,41,141.84-12.82,227.39,5.58,251.08s39.55,18.2,65.89-.89c12.58-9.12,17-20.76,34.91-65.11,8.5-19.82,18.41-43.76,18.41-43.76S106.4,125.09,101.27,122.5Z" transform="translate(-0.79 -9.71)"/><path class="cls-8" d="M33.72,195.46s.1-10.72,8.07-12.91S64.24,164.94,64.55,159s16.81-23.58,16.81-23.58L83,128.1s-1.83,6.38-10.91,10-11.61,25.78-16.47,27S11.07,197.35,33.72,195.46Z" transform="translate(-0.79 -9.71)"/><circle class="cls-3" cx="111.2" cy="44.69" r="1.16"/><circle class="cls-3" cx="131.54" cy="44.05" r="1.16"/><circle class="cls-11" cx="112.15" cy="43.74" r="1.16"/><circle class="cls-11" cx="132.48" cy="43.1" r="1.16"/><path class="cls-12" d="M112.94,43.53s-4.47-4.34-11,4" transform="translate(-0.79 -9.71)"/><path class="cls-12" d="M133.27,44.32s1.71-5.5,11.06,2.15" transform="translate(-0.79 -9.71)"/><path class="cls-13" d="M124.41,75.26a10.51,10.51,0,0,1-2.77-.52c-1.34-.41-3.6-.43-3.44,2.81.21,4.51,5,4.17,6.82,3.57C127.85,80.18,131,75.52,124.41,75.26Z" transform="translate(-0.79 -9.71)"/><path class="cls-14" d="M118.88,78.76s1.42,3.3,5.67,1.89C124.55,80.65,122.66,76.87,118.88,78.76Z" transform="translate(-0.79 -9.71)"/><path class="cls-15" d="M336.9,52.27S326.49,28.9,305,45.1C290.21,56.29,297.81,66.8,287,66.8s-21.68,11.33-21,23,.73,20.68-5.78,29.13-12.28,80.22,47,54.28c0,0,34-9.52,1.45-73.51,0,0-1.8-27.49,6.66-29.1a64.75,64.75,0,0,1,5.78-10.8C325.91,52.52,330.22,52.39,336.9,52.27Z" transform="translate(-0.79 -9.71)"/><g id="COU-2" data-name="COU"><path class="cls-5" d="M321.4,121.93l-2.72,38.14s16,13.75,38.54.66l-.27-28.6S330.07,106.83,321.4,121.93Z" transform="translate(-0.79 -9.71)"/></g><path class="cls-6" d="M371.89,98.81s-1-17.89-4.58-23c-13.41-19.26-57.79-22.69-61.57,17.28,0,0-.73-3.68-1.18,3.29,0,0-7.06-5.64-7.06,4,0,8.79,1.25,12.5,8.23,18.72,0,0,11.61,25.86,39.42,24.47,10.62-.53,18.86-11.29,22.68-21.58h0A77.48,77.48,0,0,0,371.89,98.81Z" transform="translate(-0.79 -9.71)"/><path class="cls-6" d="M370.51,98.1s3.51-3.74,5.74-.77,1.63,17.18-5.86,20.39S370.51,98.1,370.51,98.1Z" transform="translate(-0.79 -9.71)"/><circle class="cls-5" cx="316.55" cy="101.75" r="6.56"/><circle class="cls-5" cx="359.71" cy="101.75" r="6.56"/><path class="cls-5" d="M338,112.2s5.27,1.84,7.61-2.17C345.59,110,343.9,116.88,338,112.2Z" transform="translate(-0.79 -9.71)"/><path class="cls-4" d="M360.19,156.23Z" transform="translate(-0.79 -9.71)"/><path class="cls-4" d="M302.8,65.86l4.67,3.48a48,48,0,0,1,8.69-7.63,51.21,51.21,0,0,1,8-4.46,70.52,70.52,0,0,1,13.4-4.65c-2.19-2.86-3.69-5.92-6.59-8.56a42.87,42.87,0,0,0-14.76,5.36C307.84,54.39,305.29,61.23,302.8,65.86Z" transform="translate(-0.79 -9.71)"/><circle class="cls-4" cx="302.01" cy="104.51" r="5.95"/><path class="cls-5" d="M313.49,82.1s1.7-8.92,8.82-5.43c4.46,2.18,31.73,16.41,41.9,4.91a12.2,12.2,0,0,0,2-2.57c.5-1.09,2.91.55,3.24,2.21a3,3,0,0,0,.72-3.22c-.68-2-6.32-3.62-6.32-3.62s-5.81,8.34-19.46,4.8S314.39,66.25,313.49,82.1Z" transform="translate(-0.79 -9.71)"/><path class="cls-11" d="M367.06,63.88c-10.35-11.83-10.94-11.15-32.91-14.05-9.09-1.19-27.59,7.66-31.35,16-14,31.19-4.21,44.17-4.21,44.17s-1.13.25-1.09-9.6,7.06-4,7.06-4,2.53,3.66,4.46,4.89c3.55,2.24,3.49-11.75,4.65-20.71S323.9,76,323.9,76c29,14.55,39.09,6.15,41.73,1.91a1.37,1.37,0,0,1,2-.38c.89.68,1.62,2.11,2,4.71,1.74,10.92-3.44,21.85,0,20.62s1.39-7.77,4-6.63c0,0,3.5-.6,3.74,5.65C377.39,101.83,381,79.88,367.06,63.88Z" transform="translate(-0.79 -9.71)"/><path class="cls-16" d="M382.65,201c.15.64.3,1.29.44,1.95,0,0,0,0,0,0,5.11,22.86,8.91,57.86,11.46,87.61" transform="translate(-0.79 -9.71)"/><path class="cls-8" d="M301.79,290.6H226l0-.84a17.38,17.38,0,0,1,3.46-9.17,16.08,16.08,0,0,1,6-4.89l.13-.06a14.6,14.6,0,0,1,3.25-1.08,14.82,14.82,0,0,1,4.22-.27l11.78.91,1.63.13h.24l5.83.45,2.92.23,7,.55,3.65.28L290.66,278l5.66.44,7.9.6.76.06,3,.23,4.44.34a15.75,15.75,0,0,1,13.59,11H303.41c-.06.81-.11,1.63-.13,2.44-.1-.18-.21-.36-.32-.54C302.58,291.85,302.19,291.22,301.79,290.6Z" transform="translate(-0.79 -9.71)"/><path class="cls-17" d="M330.22,227.58c-9.36,7.79-16.28,22.62-21.12,37-.87,2.56-1.67,5.1-2.4,7.58-.68,2.29-1.25,4.62-1.72,6.95-.56,2.65-1,5.32-1.27,8q-.19,1.77-.3,3.54c-.06.81-.11,1.63-.13,2.44-.1-.18-.21-.36-.32-.54-.38-.65-.77-1.28-1.17-1.9H235.53c-.05-4.69,0-9.67.08-14.85v-.11c0-2,.11-4,.19-6,0-.79.06-1.59.1-2.4s.07-1.79.12-2.7c.14-2.88.32-5.82.55-8.76.47-6.45,1.13-13,2-19.58a223.27,223.27,0,0,1,5.31-27.11c.18-.69.36-1.37.56-2.05.24-.9.5-1.8.76-2.67a139.42,139.42,0,0,1,5-14.15c.08-.2.16-.39.25-.58.52-1.23,1-2.44,1.61-3.63a41.3,41.3,0,0,1,2.05-3.85c.15-.26.31-.52.47-.78.7-1.14,1.46-2.28,2.29-3.42a72.62,72.62,0,0,1,7.41-8.68c11.4-11.5,27.95-21.33,44.23-21.71a39,39,0,0,1,8.28.65c.36.08.67.41.95,1a16.68,16.68,0,0,1,1.09,4.64c.07.45.13.93.19,1.43.17,1.6.33,3.44.47,5.46l.06.94C320.75,179.53,321.24,210.89,330.22,227.58Z" transform="translate(-0.79 -9.71)"/><path class="cls-18" d="M308.52,147.53s9.11,14.31-.83,135" transform="translate(-0.79 -9.71)"/><circle class="cls-3" cx="329.83" cy="91.03" r="1.16"/><circle class="cls-3" cx="350.17" cy="90.39" r="1.16"/><circle class="cls-11" cx="330.78" cy="90.09" r="1.16"/><circle class="cls-11" cx="351.11" cy="89.45" r="1.16"/><path class="cls-12" d="M333.45,89.87s-4.46-4.33-10.95,4" transform="translate(-0.79 -9.71)"/><path class="cls-12" d="M350,90.66s1.71-5.5,11.06,2.16" transform="translate(-0.79 -9.71)"/><path class="cls-13" d="M342.46,122.41c-1.26-.6-5.15-1.12-5.63,1.48-.79,4.24,5.53,5,6.82,3.58C345.91,125,343.84,123.05,342.46,122.41Z" transform="translate(-0.79 -9.71)"/><path class="cls-14" d="M337.51,125.11s1.42,3.3,5.66,1.88C343.17,127,341.29,123.22,337.51,125.11Z" transform="translate(-0.79 -9.71)"/><path class="cls-11" d="M205.09,283.35a20.72,20.72,0,0,1-20.61-11,21,21,0,0,1,2.6-23.35s14.62-6,13.45-14.78c-1.56-11.79-2.65-22.05,3-26.61,3.34-2.69,7.28-10.31,8.64-13,8-16.13,22.2-17.43,36.27-17.39,4.44,0,11.35.16,18.3,4.81a30.24,30.24,0,0,1,12,17.39,54.1,54.1,0,0,1,3.73,36.93c7.56,6.15,11.41,14.93,9.8,23A20.75,20.75,0,0,1,281,273.72c-12.49,5.76-22.77-6.91-44.19-4.26a52.21,52.21,0,0,0-11.48,2.79Z" transform="translate(-0.79 -9.71)"/><g id="COU-3" data-name="COU"><path class="cls-5" d="M231.59,240.2l-2.29,32.05s13.46,11.55,32.39.55l-.23-24S238.88,227.51,231.59,240.2Z" transform="translate(-0.79 -9.71)"/></g><path class="cls-6" d="M274,220.78s-.87-15-3.85-19.32C258.9,185.28,221.61,182.4,218.43,216c0,0-.61-3.09-1,2.76,0,0-5.93-4.74-5.93,3.39,0,7.38,1.05,10.5,6.91,15.73,0,0,9.76,21.72,33.12,20.56,8.93-.45,15.85-9.49,19.06-18.14h0A64.9,64.9,0,0,0,274,220.78Z" transform="translate(-0.79 -9.71)"/><path class="cls-6" d="M272.85,220.18s2.95-3.14,4.83-.65,1.37,14.44-4.93,17.13S272.85,220.18,272.85,220.18Z" transform="translate(-0.79 -9.71)"/><circle class="cls-5" cx="227.39" cy="221.7" r="5.51"/><circle class="cls-5" cx="263.65" cy="221.7" r="5.51"/><circle class="cls-11" cx="238.21" cy="213.14" r="1.03"/><circle class="cls-11" cx="256.32" cy="212.57" r="1.03"/><path class="cls-5" d="M245.57,231.19s3.88,2.64,6.65-.1C252.22,231.09,249.35,236.28,245.57,231.19Z" transform="translate(-0.79 -9.71)"/><path class="cls-12" d="M240.55,212.25s-5.61-2.92-9.38,1.84" transform="translate(-0.79 -9.71)"/><path class="cls-12" d="M256.07,212.89s5.62-2.92,9.39,1.84" transform="translate(-0.79 -9.71)"/><path class="cls-4" d="M264.18,269Z" transform="translate(-0.79 -9.71)"/><path class="cls-13" d="M238.85,240.23s.76,7,8.82,6.84,6.13-3.93,1-4.74S238.34,235.3,238.85,240.23Z" transform="translate(-0.79 -9.71)"/><path class="cls-19" d="M240.55,242.71s3-.37,4.17.58c0,0,2.13-.34,3.7,2.72C248.42,246,242.89,246.55,240.55,242.71Z" transform="translate(-0.79 -9.71)"/><path class="cls-5" d="M222.67,220.06s3.56,1.91,3.73-5.33.16-5.62.16-5.62l44.51-.16s1.93,2.07.65,10.87,3.6-9.09,3.6-9.09l-4-7.08-47.89,1.23Z" transform="translate(-0.79 -9.71)"/><path class="cls-11" d="M270,191.43c-8.69-9.94-9.19-9.37-27.65-11.81-7.64-1-21.82,10.21-25,17.24-11.75,26.21-4.9,33.34-4.9,33.34s-.94.21-.91-8.06,5.93-3.39,5.93-3.39,2.27,2.5,4.19,2.5c5.36,0,4.14-2.91,3.58-14.13l46.93-.31c1.4,9.18-2.44,19.2,0,17.33,1.08-.82.73-5.25,3.35-5.57,0,0,2.94-.51,3.15,4.75C278.64,223.32,281.7,204.87,270,191.43Z" transform="translate(-0.79 -9.71)"/><path class="cls-17" d="M245.21,189.3c30.42.22,31.68,24.06,31.68,24.06s9.42-31.83-31.95-31.87c-32.47,0-28.55,31.24-28.55,31.24S221.06,189.12,245.21,189.3Z" transform="translate(-0.79 -9.71)"/><path class="cls-20" d="M272.5,276.57a75.94,75.94,0,0,1,7.53,14H206.31a103.37,103.37,0,0,1,4-10.11h0c3.85-8.28,8.36-14.25,13.65-16.59a5.22,5.22,0,0,1,3.68.18l.62.21c.49.17,1,.37,1.55.58,1.74.71,3.75,1.59,6.07,2.34a32.32,32.32,0,0,0,3.14.91,30.77,30.77,0,0,0,6.92.81c6.69,0,9.64-.7,11.19-1.35,1.83-.77,1.72-1.49,3.5-.93.27.08.59.2,1,.36l.11,0c3.47,1.39,6.68,4.16,9.65,8C271.77,275.55,272.14,276.05,272.5,276.57Z" transform="translate(-0.79 -9.71)"/><path class="cls-20" d="M228.92,271.09c-.08.42-.17.86-.28,1.31-1.11,4.85-3.4,11.21-5,18.2H186.3a111.92,111.92,0,0,1,7-9.47l1-1.2c8.89-10.39,19-17.2,30.12-17.06a5.88,5.88,0,0,1,3.23.81,2.77,2.77,0,0,1,.67.6C229.49,265.66,229.51,268,228.92,271.09Z" transform="translate(-0.79 -9.71)"/><path class="cls-20" d="M301.79,290.6H269.32a95.89,95.89,0,0,0-6.76-14.81l-1.48-2.65-.48-.89c-1.29-2.51-1.58-3.85-.06-4.94.24-.17.11-.48.11-.67s0-.19.2-.19l.78,0a50.77,50.77,0,0,1,29,11.48A54.53,54.53,0,0,1,301.79,290.6Z" transform="translate(-0.79 -9.71)"/></svg>