<svg id="Calque_1" data-name="Calque 1" xmlns="http://www.w3.org/2000/svg" viewBox="0 0 1320.5 701.39"><defs><style>.cls-1{fill:#f7f5f5;}.cls-2{fill:#eead00;}.cls-3{fill:#29325a;}.cls-4{fill:#f7ebe8;}.cls-5{fill:#f3b807;}.cls-6{fill:#c0e4ee;}.cls-7{fill:#bde1ed;}.cls-12,.cls-8{fill:none;}.cls-8{stroke:#fff;stroke-linecap:round;stroke-miterlimit:10;}.cls-9{fill:#0c7aa0;}.cls-10{fill:#203b77;}.cls-11{fill:#e4572b;}.cls-13{fill:#f7eae6;}</style></defs><rect class="cls-1" width="1320" height="633.74"/><path class="cls-2" d="M1319.86,283.31V376h-80.79a.07.07,0,0,0,0-.05,24.78,24.78,0,0,1,9.5-12.87,28.9,28.9,0,0,1-13.06-8.2,26.44,26.44,0,0,1-7-17.86c0-15.13,12.92-27.39,28.86-27.39a30.11,30.11,0,0,1,12.39,2.65,26.48,26.48,0,0,1,6.06-14.86,29.45,29.45,0,0,1,22.74-10.5,30,30,0,0,1,13.27,3.07,17.88,17.88,0,0,1,1.26-1.48A25.76,25.76,0,0,1,1319.86,283.31Z" transform="translate(0.14 1.2)"/><path class="cls-3" d="M1215.07,118h71.22a3.46,3.46,0,0,1,3.46,3.46V366.14a0,0,0,0,1,0,0h-78.14a0,0,0,0,1,0,0V121.48A3.46,3.46,0,0,1,1215.07,118Z"/><rect class="cls-4" x="1282.6" y="131.1" width="5.7" height="232.89" rx="1.72"/><rect class="cls-4" x="1213.69" y="131.1" width="5.7" height="232.89" rx="1.72"/><path class="cls-4" d="M1221.67,108.49h58.66a2.28,2.28,0,0,1,2.28,2.28V118a0,0,0,0,1,0,0h-63.21a0,0,0,0,1,0,0v-7.25A2.28,2.28,0,0,1,1221.67,108.49Z"/><path class="cls-3" d="M1233.41,77.6h42.07a3.11,3.11,0,0,1,3.11,3.11v27.78a0,0,0,0,1,0,0H1230.3a0,0,0,0,1,0,0V80.71A3.11,3.11,0,0,1,1233.41,77.6Z"/><path class="cls-4" d="M1256.21,52.32h9.35a3.2,3.2,0,0,1,3.2,3.2V77.6a0,0,0,0,1,0,0H1253a0,0,0,0,1,0,0V55.52A3.2,3.2,0,0,1,1256.21,52.32Z"/><rect class="cls-5" x="1225.54" y="124.45" width="50.46" height="6.65" rx="1.59"/><rect class="cls-6" x="1225.54" y="302.01" width="51.42" height="5.55" rx="1.67"/><rect class="cls-6" x="1225.54" y="233.75" width="51.42" height="5.55" rx="1.67"/><rect class="cls-6" x="1225.54" y="294.13" width="51.42" height="5.55" rx="1.67"/><rect class="cls-6" x="1225.54" y="225.22" width="51.42" height="5.55" rx="1.67"/><rect class="cls-6" x="1225.54" y="216.69" width="51.42" height="5.55" rx="1.67"/><rect class="cls-6" x="1225.54" y="208.16" width="51.42" height="5.55" rx="1.67"/><rect class="cls-6" x="1225.54" y="177.97" width="51.42" height="5.55" rx="1.67"/><rect class="cls-6" x="1225.54" y="169.44" width="51.42" height="5.55" rx="1.67"/><rect class="cls-6" x="1225.54" y="160.9" width="51.42" height="5.55" rx="1.67"/><path class="cls-7" d="M1319.86,342.4V698.06H603.25C666,631.1,746.74,560.4,848.89,499.11c129.43-77.67,262-121.5,386.63-144.24Q1278.39,347.06,1319.86,342.4Z" transform="translate(0.14 1.2)"/><path class="cls-8" d="M859.29,572.8l3.08-1.88c88.86-54.34,246-135,457.49-166.69" transform="translate(0.14 1.2)"/><path class="cls-9" d="M1093.58,631.91H-.14V453.25c236,.93,504.27,24.45,788.89,91.35C898.47,570.39,1000.12,600.16,1093.58,631.91Z" transform="translate(0.14 1.2)"/><rect class="cls-10" y="572.12" width="1320" height="129.28"/><rect class="cls-3" y="361.5" width="96.11" height="120.44"/><rect class="cls-5" x="16.96" y="96.94" width="16.1" height="20.36"/><path class="cls-4" d="M100.41,355.48a4.88,4.88,0,0,1-4.44,5,1.83,1.83,0,0,1-.33,0h0l-25.22-.05-28.12-.06-42.42-.08v-23l47.39-.05,16.1,0,25.52,0h6.78a4.88,4.88,0,0,1,4.55,4.9Z" transform="translate(0.14 1.2)"/><rect class="cls-5" x="42.42" y="356.94" width="28.12" height="11.67" rx="1.63"/><rect class="cls-5" x="47.39" y="336.59" width="16.1" height="20.36"/><path class="cls-4" d="M94.76,330.05H-.14V229.12a47.59,47.59,0,0,1,11.9-5.56,43.2,43.2,0,0,1,12.69-1.89,46.1,46.1,0,0,1,13.16,1.89,52.38,52.38,0,0,1,20,11.49c9,8,16.36,19,22,31.06a0,0,0,0,1,0,0c9.29,19.68,14.19,42.17,15,59.23h0C94.72,327,94.76,328.55,94.76,330.05Z" transform="translate(0.14 1.2)"/><path class="cls-5" d="M96.65,337.21H-.14V325.38H95.49l.67,0a1.45,1.45,0,0,1,.45,0C97,325.48,97.75,326.66,96.65,337.21Z" transform="translate(0.14 1.2)"/><path class="cls-5" d="M57.64,235.05a2.34,2.34,0,0,1-.85.16H-.14v-15l3.61-2.67H44.83l.25.18,8.32,5.87a2.33,2.33,0,0,1,2.11,1.33l3.39,6.94A2.36,2.36,0,0,1,57.64,235.05Z" transform="translate(0.14 1.2)"/><path class="cls-5" d="M-.14,171.32h55.9l-4.35,3.91a19.12,19.12,0,0,0-6.33,14.21v34.12H3.47V189.44A19.1,19.1,0,0,0-.14,178.26Z" transform="translate(0.14 1.2)"/><path class="cls-11" d="M32.47,182.11h6.89a0,0,0,0,1,0,0v23.76a1.43,1.43,0,0,1-1.43,1.43h-4a1.43,1.43,0,0,1-1.43-1.43V182.11A0,0,0,0,1,32.47,182.11Z"/><path class="cls-5" d="M63.41,162v5.14A1.82,1.82,0,0,1,61.6,169H-.14v-8.78H61.6A1.82,1.82,0,0,1,63.41,162Z" transform="translate(0.14 1.2)"/><path class="cls-11" d="M9.94,182.11h6.89a0,0,0,0,1,0,0v23.76a1.43,1.43,0,0,1-1.43,1.43h-4a1.43,1.43,0,0,1-1.43-1.43V182.11A0,0,0,0,1,9.94,182.11Z"/><path class="cls-3" d="M55.76,160.18H-.14V133.52c3.89-8.63,9.57-16.28,17-19.54a19.25,19.25,0,0,1,7.87-1.68A20.28,20.28,0,0,1,32.92,114C48.46,120.79,55.76,146,55.76,160.18Z" transform="translate(0.14 1.2)"/><rect class="cls-4" x="9.38" y="75.92" width="31.26" height="30.99"/><circle class="cls-6" cx="25.01" cy="91.41" r="10.32"/><path class="cls-5" d="M9.24,74.72a33.37,33.37,0,0,0,8.11-11.6,33.63,33.63,0,0,0,2.21-17.63H30.08a38.41,38.41,0,0,0,1.44,13.63,38.93,38.93,0,0,0,9,15.6Z" transform="translate(0.14 1.2)"/><circle class="cls-6" cx="25.16" cy="42.85" r="3.45"/><rect class="cls-4" x="19.06" y="46.3" width="11.89" height="1.34" rx="0.28"/><path class="cls-11" d="M65.69,325.38H-.14V272.09C6.16,264.84,14,260,23.29,260,52.22,260,65.69,302.91,65.69,325.38Z" transform="translate(0.14 1.2)"/><path class="cls-11" d="M79.74,266.21a153.13,153.13,0,0,1,8.93,22.17,154.09,154.09,0,0,1,6.82,37H78.13C77.86,312.32,77,301.63,76.31,294c-1.42-14.67-3.39-26.65.5-28.23C77.82,265.38,79.31,265.35,79.74,266.21Z" transform="translate(0.14 1.2)"/><path class="cls-4" d="M59.14,169.63v1a.67.67,0,0,1-.67.67H-.14V169H58.47A.67.67,0,0,1,59.14,169.63Z" transform="translate(0.14 1.2)"/><rect class="cls-6" y="474.53" width="96.77" height="95.35"/><path class="cls-5" d="M100.41,474.88v7.59a1.83,1.83,0,0,1-1.84,1.83H-.14V473.05H98.57A1.83,1.83,0,0,1,100.41,474.88Z" transform="translate(0.14 1.2)"/><rect class="cls-3" x="85.62" y="542.77" width="8.62" height="13.41" transform="translate(-459.4 640.6) rotate(-90)"/><rect class="cls-3" x="89.93" y="538.46" width="6.7" height="6.7" transform="translate(-448.39 636.29) rotate(-90)"/><rect class="cls-3" x="85.62" y="527.45" width="8.62" height="13.41" transform="translate(-444.08 625.28) rotate(-90)"/><rect class="cls-3" x="89.93" y="523.56" width="6.7" height="6.7" transform="translate(-433.49 621.39) rotate(-90)"/><rect class="cls-3" x="85.62" y="512.55" width="8.62" height="13.41" transform="translate(-429.18 610.38) rotate(-90)"/><rect class="cls-3" x="89.93" y="508.24" width="6.7" height="6.7" transform="translate(-418.17 606.07) rotate(-90)"/><rect class="cls-3" x="85.62" y="497.23" width="8.62" height="13.41" transform="translate(-413.86 595.06) rotate(-90)"/><rect class="cls-3" x="85.62" y="481.9" width="8.62" height="13.41" transform="translate(-398.54 579.74) rotate(-90)"/><rect class="cls-3" x="89.93" y="492.92" width="6.7" height="6.7" transform="translate(-402.85 590.75) rotate(-90)"/><rect class="cls-3" x="85.62" y="557.67" width="8.62" height="13.41" transform="translate(-474.3 655.5) rotate(-90)"/><rect class="cls-3" x="89.93" y="553.36" width="6.7" height="6.7" transform="translate(-463.29 651.19) rotate(-90)"/><rect class="cls-6" x="89.04" y="418.32" width="9.1" height="6.7" transform="translate(-327.95 516.45) rotate(-90)"/><rect class="cls-6" x="91.91" y="412.1" width="6.7" height="3.35" transform="translate(-318.37 510.23) rotate(-90)"/><rect class="cls-6" x="89.28" y="402.76" width="8.62" height="6.7" transform="translate(-312.39 500.89) rotate(-90)"/><rect class="cls-6" x="91.91" y="396.77" width="6.7" height="3.35" transform="translate(-303.05 494.91) rotate(-90)"/><rect class="cls-6" x="89.16" y="387.32" width="8.86" height="6.7" transform="translate(-296.94 485.45) rotate(-90)"/><rect class="cls-6" x="91.91" y="381.21" width="6.7" height="3.35" transform="translate(-287.49 479.34) rotate(-90)"/><rect class="cls-6" x="89.28" y="371.87" width="8.62" height="6.7" transform="translate(-281.5 470.01) rotate(-90)"/><rect class="cls-6" x="90.07" y="364.05" width="10.38" height="3.35" transform="translate(-270.33 462.19) rotate(-90)"/><rect class="cls-6" x="89.04" y="464.9" width="9.1" height="6.7" transform="translate(-374.53 563.04) rotate(-90)"/><rect class="cls-6" x="91.91" y="458.68" width="6.7" height="3.35" transform="translate(-364.96 556.81) rotate(-90)"/><rect class="cls-6" x="89.28" y="449.34" width="8.62" height="6.7" transform="translate(-358.97 547.48) rotate(-90)"/><rect class="cls-6" x="91.91" y="443.36" width="6.7" height="3.35" transform="translate(-349.63 541.49) rotate(-90)"/><rect class="cls-6" x="89.28" y="433.78" width="8.62" height="6.7" transform="translate(-343.41 531.91) rotate(-90)"/><rect class="cls-6" x="91.91" y="427.79" width="6.7" height="3.35" transform="translate(-334.07 525.93) rotate(-90)"/><rect class="cls-6" x="89.28" y="418.46" width="8.62" height="6.7" transform="translate(-328.09 516.59) rotate(-90)"/><rect class="cls-6" x="89.28" y="403.13" width="8.62" height="6.7" transform="translate(-312.76 501.27) rotate(-90)"/><rect class="cls-6" x="91.91" y="412.47" width="6.7" height="3.35" transform="translate(-318.75 510.61) rotate(-90)"/><line class="cls-12" y1="179.45" y2="172.51"/><rect class="cls-13" y="556.39" width="136" height="17"/></svg>