<svg id="Calque_1" data-name="Calque 1" xmlns="http://www.w3.org/2000/svg" viewBox="0 0 220.46 285.89"><defs><style>.cls-1,.cls-11,.cls-12,.cls-6,.cls-7{fill:none;}.cls-2{fill:#f6ae89;}.cls-3{fill:#f9c6a2;}.cls-4{fill:#182624;}.cls-5{fill:#f6e9e5;}.cls-6{stroke:#f6e9e5;}.cls-11,.cls-12,.cls-6{stroke-linecap:round;}.cls-11,.cls-12,.cls-6,.cls-7{stroke-miterlimit:10;}.cls-12,.cls-6{stroke-width:2px;}.cls-7{stroke:#f6ae89;stroke-width:0.5px;}.cls-8{fill:#e55720;}.cls-9{fill:#d13e16;}.cls-10{fill:#2a305c;}.cls-11{stroke:#182624;stroke-width:0.25px;}.cls-12{stroke:#4a5480;}</style></defs><path class="cls-1" d="M48.69,286.78l4.85-22.36h0L86.21,113.7l26.85.33,1.65,8.51.3,1.59-24.42,9-.27,1.95Q85.67,169.38,81,203.66h0c-.22,1.68-.46,3.35-.68,5h0q-1.48,10.93-3,21.86h0Q76.24,238.8,75.13,247h0q-.51,3.67-1,7.37h0q-1.7,12.42-3.38,24.85-.51,3.75-1,7.52m-5.92-11.06c-.15.75-.31,1.5-.47,2.25-.63,2.94-1.25,5.87-1.87,8.81" transform="translate(-0.04 -0.89)"/><g id="COU"><path class="cls-2" d="M149.27,73.33l11.93,42a224.59,224.59,0,0,1-21.95,5.48A221.48,221.48,0,0,1,115,124.13l-6.16-31.94S135.42,58.32,149.27,73.33Z" transform="translate(-0.04 -0.89)"/></g><path class="cls-3" d="M77.18,56.64a63.34,63.34,0,0,0,1.44,11.72,57.8,57.8,0,0,0,7.85,19A15.17,15.17,0,0,0,95,93.7c38.5,11,49.11-20.77,49.11-20.77a13.09,13.09,0,0,0,19.83-4,14,14,0,0,0,.69-11.35,14.14,14.14,0,0,0-9.7-8.64,15,15,0,0,0-15.51,5.95l-5.45-22.49c4.42-5.73,5.83-12.26,3.47-15.29-2.85-3.67-12.45-3.81-21,3.72L83.16,26.1A65.48,65.48,0,0,0,79,38.25a81.75,81.75,0,0,0-1.63,10.69c0,.5-.08,1-.1,1.48A59.24,59.24,0,0,0,77.18,56.64Z" transform="translate(-0.04 -0.89)"/><circle class="cls-2" cx="118.79" cy="62" r="6.71"/><path class="cls-2" d="M77.18,56.64a63.34,63.34,0,0,0,1.44,11.72,6.71,6.71,0,0,0-1.44-11.72Z" transform="translate(-0.04 -0.89)"/><circle class="cls-4" cx="97.85" cy="49.74" r="1.56"/><path class="cls-4" d="M77.26,50.42a1.56,1.56,0,1,0,1.42-2.22,1.61,1.61,0,0,0-1.32.74Z" transform="translate(-0.04 -0.89)"/><path class="cls-5" d="M138.67,58.2l-8.25-1.56V71.76a10.11,10.11,0,0,1-3.7,7.91c-6.18,5-20.09,12.62-41.82,5.09,0,0-.28,23.65,13,21.51s47.38-10.13,46.17-33.34Q141.38,65.57,138.67,58.2Z" transform="translate(-0.04 -0.89)"/><path class="cls-6" d="M99.45,34.08s7.58-3.94,12.67,2.49" transform="translate(-0.04 -0.89)"/><path class="cls-6" d="M77.89,33.66a9.05,9.05,0,0,1,7.09.93" transform="translate(-0.04 -0.89)"/><path class="cls-7" d="M106.77,61.42a10.18,10.18,0,0,1-3.51,2.26,10.62,10.62,0,0,1-5.92.47" transform="translate(-0.04 -0.89)"/><path class="cls-5" d="M100.28,73.17c-4.09-4.11-14.32-12.08-22.8.21-.52.76,0,2,.78,1.94l21.45-.13C100.59,75.18,101,73.86,100.28,73.17Z" transform="translate(-0.04 -0.89)"/><path class="cls-5" d="M130.42,59h28.75S174.11.05,119.46.9,78,41.47,78,41.47L83.16,26.1l43.13.42,11.1-9.39-7.26,12.8Q130.28,44.45,130.42,59Z" transform="translate(-0.04 -0.89)"/><ellipse class="cls-3" cx="151.87" cy="61.58" rx="13.96" ry="13.4"/><path class="cls-8" d="M98.7,286.78H61.5c.62-2.93,1.24-5.86,1.84-8.81.16-.75.32-1.5.47-2.25a0,0,0,0,1,0,0q2.26-10.9,4.48-22h0c.55-2.8,1.11-5.6,1.66-8.41v0q2.85-14.44,5.46-28.69,1.69-9.09,3.31-18.12,6.38-35.82,11.58-70.23s0-.05,0-.07c.09,1.65.18,3.3.27,5q1.43,27,2.84,54,.85,16,1.69,32c0,.79.08,1.57.12,2.37h0Q97,254.13,98.7,286.78Z" transform="translate(-0.04 -0.89)"/><path class="cls-9" d="M74,286.78H61.5c.62-2.93,1.24-5.86,1.84-8.81.15-.75.31-1.5.46-2.25l0,0c.95-1.9,1.92-3.8,2.87-5.7,1.34,3.09,2.71,6.18,4,9.27Q72.39,283,74,286.78Z" transform="translate(-0.04 -0.89)"/><path class="cls-9" d="M80.93,223.47q4.84,11.1,9.7,22.2l-11.85,19L70,245.28Z" transform="translate(-0.04 -0.89)"/><path class="cls-9" d="M94.62,184.75q4.84,11.1,9.7,22.19l-11.85,19-8.82-19.35Z" transform="translate(-0.04 -0.89)"/><path class="cls-9" d="M75.42,216.57c2.21-3.52,4.41-7.06,6.61-10.58l-3.3-7.54C77.65,204.47,76.56,210.51,75.42,216.57Z" transform="translate(-0.04 -0.89)"/><path class="cls-9" d="M94.84,279q1.69,3.89,3.4,7.77H82.46L90.9,270Q92.86,274.5,94.84,279Z" transform="translate(-0.04 -0.89)"/><path class="cls-10" d="M210.19,286.78H95.35c-.18-2.58-.35-5.17-.51-7.75v0c-1.14-18.32-2-36.56-2.63-53.67h0c0-.39,0-.77,0-1.15-.42-11.47-.75-22.43-1-32.57h0c-.65-25.85-.81-46.38-.85-56.53,0-4,0-6.41,0-6.85v-.07h0l24.39-5.61h0l45.56-10.48h0L169.5,110l.14.59L201.49,249h0Z" transform="translate(-0.04 -0.89)"/><path class="cls-10" d="M220.5,187.21c-.06,22.68-7.35,43.4-19,61.76h0a176.7,176.7,0,0,1-33.07,37.8H1.69L0,273.19a75.4,75.4,0,0,0,53.5-8.77A89.62,89.62,0,0,0,68.3,253.7h0c1.29-1.14,2.57-2.35,3.85-3.61q1.5-1.47,3-3.05h0a123.63,123.63,0,0,0,10.48-12.84q3.19-4.45,6.29-9.54l.27-.46c1-1.64,2-3.34,3-5.09q4-7.16,7.74-15.5a259.69,259.69,0,0,0,9.57-24.85A177.22,177.22,0,0,1,127,145.22c7.66-13.2,15.81-21.7,23.71-27h0a48.61,48.61,0,0,1,9.78-5.17,43.73,43.73,0,0,1,9.09-2.47c.69-.11,1.37-.21,2-.28,12.92-1.42,25.32,5.45,31.77,16.74C218.74,153.72,220.53,175.73,220.5,187.21Z" transform="translate(-0.04 -0.89)"/><path class="cls-11" d="M93.73,76.43a7.73,7.73,0,0,0,6.08,1.94c3.53-.53,5.56-3.63,6-4.28" transform="translate(-0.04 -0.89)"/><path class="cls-12" d="M166.94,135.07,115,148.28" transform="translate(-0.04 -0.89)"/></svg>