<svg id="Calque_1" data-name="Calque 1" xmlns="http://www.w3.org/2000/svg" viewBox="0 0 263.93 289.56"><defs><style>.cls-1{fill:#192624;}.cls-2{fill:#e3572c;}.cls-3{fill:#1b1b1b;}.cls-10,.cls-4{fill:#f7b08e;}.cls-5{fill:#f9c7a6;}.cls-6{fill:#fff;}.cls-12,.cls-7{fill:none;}.cls-7{stroke:#192624;stroke-linecap:round;stroke-width:0.5px;}.cls-10,.cls-12,.cls-7{stroke-miterlimit:10;}.cls-8{fill:#e4582c;}.cls-9{fill:#d64420;}.cls-10{stroke:#1e1e1c;stroke-width:0.25px;}.cls-11{fill:#ee9573;}.cls-12{stroke:#d64320;stroke-width:2px;}</style></defs><path class="cls-1" d="M66.81,290.62l.25-.15.28-.17a128.35,128.35,0,0,0,12.28-9,8.27,8.27,0,0,0,2-2.74h0c1.88-3.72,3.31-10.19,4.36-18.43.07-.49.13-1,.19-1.48,3-24.78,2.85-64.22,2.21-93.06-.08-3.89-.17-7.59-.27-11,0-.46,0-.92,0-1.37-.42-14.37-.87-24-.87-24s-5.27,1.79-13,4.87h0c-7.34,2.9-16.9,7-26.39,11.75h0l-.4.21C32.87,153.45,18.64,162.53,13,171.82-.36,193.72,5.36,201.7,1.55,222.46s1.35,39.61,21.62,63a44.09,44.09,0,0,0,5,5Z" transform="translate(-0.39 -1.06)"/><path class="cls-2" d="M227,290.47H67.33l-.52.15a.76.76,0,0,0,0-.15l0-1.56c.17-6.63.43-13.68.82-21,1.59-30,5.29-64.4,13.39-93.62,1-3.75,2.15-7.42,3.34-11,0,0,0,0,0,0q1.74-5.2,3.7-10.09c.75-1.84,1.52-3.61,2.32-5.37v0c4.29-9.53,9.35-17.82,15.3-24.31A48.6,48.6,0,0,1,120.89,112a40.73,40.73,0,0,1,5.16-2,4.83,4.83,0,0,1,2-.25,3.4,3.4,0,0,1,.85.2c1.9.66,3.4,2.71,8.33,3.85a36.37,36.37,0,0,0,8.24.8c20,0,15.29-4.61,20.06-3.23.4.11.86.27,1.4.47l.5.19a48.58,48.58,0,0,1,4.6,2C219.53,137.79,227.17,231.27,227,290.47Z" transform="translate(-0.39 -1.06)"/><path class="cls-2" d="M167,111.78Z" transform="translate(-0.39 -1.06)"/><path class="cls-2" d="M264.32,290.47H209c-.6-5-1.27-10.47-2-16.22a.07.07,0,0,0,0-.05c-7-55.25-20-138.84-35.86-158.76a13.94,13.94,0,0,0-3.64-3.38l-.47-.27a54,54,0,0,1,5.68,1.42,98.89,98.89,0,0,1,61.59,54.57C247.79,197.76,261.37,251,264.32,290.47Z" transform="translate(-0.39 -1.06)"/><path class="cls-3" d="M147.56,145.18a11.82,11.82,0,0,1,.51-1.68v.78C147.94,144.54,147.69,144.92,147.56,145.18Z" transform="translate(-0.39 -1.06)"/><g id="COU"><path class="cls-4" d="M131.24,77.78l-2.61,36.59s15.36,13.2,37,.63l-.26-27.43S139.56,63.3,131.24,77.78Z" transform="translate(-0.39 -1.06)"/></g><path class="cls-1" d="M35.91,290.47a38.86,38.86,0,0,1-9.51-8.18C6.37,259.15,1.28,240.54,5,220s-1.88-28.4,11.28-50c5.26-8.64,18-17.09,31.46-24.12h0c9.5-5,19.33-9.23,27.08-12.35C83.59,130,89.68,128,89.68,128s.37,7.79.75,19.84v0l0,1c.11,3.77.23,7.94.34,12.4.68,29.31.9,71.15-2.34,96.26,0,.45-.11.89-.18,1.33-1.38,10-3.35,17.18-6.12,19.4l-.51.4h0a109.32,109.32,0,0,1-14.23,10l-.57.32c-1,.55-2,1.07-3,1.56Z" transform="translate(-0.39 -1.06)"/><path class="cls-5" d="M179.67,55.61s-1-17.16-4.39-22c-12.86-18.47-55.44-21.76-59.07,16.58,0,0-.69-3.53-1.13,3.15,0,0-6.77-5.41-6.77,3.87,0,8.43,1.2,12,7.89,18,0,0,11.14,24.81,37.82,23.48,10.19-.51,18.09-10.84,21.76-20.71h0A74.33,74.33,0,0,0,179.67,55.61Z" transform="translate(-0.39 -1.06)"/><path class="cls-5" d="M178.35,54.92s3.36-3.58,5.51-.73,1.56,16.48-5.63,19.56S178.35,54.92,178.35,54.92Z" transform="translate(-0.39 -1.06)"/><circle class="cls-4" cx="126.95" cy="66.68" r="6.29"/><circle class="cls-4" cx="168.35" cy="66.68" r="6.29"/><circle class="cls-6" cx="139.31" cy="56.92" r="1.18"/><circle class="cls-6" cx="159.98" cy="56.27" r="1.18"/><circle class="cls-1" cx="140.27" cy="55.96" r="1.18"/><circle class="cls-1" cx="160.94" cy="55.31" r="1.18"/><path class="cls-4" d="M113.73,65.14s1.37,4.09,3.75,1.37,3.92-20.29,11.76-28c0,0,.14-2,6.3,0s15.87-.68,20.82.17,8,3.07,12.27,3.07,8.55.85,8.53,4.95,1.31-16,1.31-16l-54-5.28L113.54,53.29Z" transform="translate(-0.39 -1.06)"/><path class="cls-1" d="M114.48,66.59c.49-7.43-19.4-42.45-4.27-43.91,0,0,9.34-31.36,39.33-18.54s35.87,2.56,39.34,12.31-3.19,28.36-20.63,22.38-22.47.91-33.65-4.12c-8.68-3.91-14.71,20.47-17,31.56C117.3,67.87,114.38,68.21,114.48,66.59Z" transform="translate(-0.39 -1.06)"/><path class="cls-1" d="M170.88,39.54s5.5-.26,6.36,2.72c1.43,4.91,2.32,21.41,4,16.83s1.63-14.75.9-26.53C181.28,18,170.88,39.54,170.88,39.54Z" transform="translate(-0.39 -1.06)"/><path class="cls-4" d="M147.14,68.45s5.06,1.77,7.3-2.08C154.44,66.37,152.82,72.94,147.14,68.45Z" transform="translate(-0.39 -1.06)"/><path class="cls-7" d="M143.84,46.93s-4.54-4.4-11.14,4" transform="translate(-0.39 -1.06)"/><path class="cls-7" d="M158,47.74s1.74-5.6,11.25,2.19" transform="translate(-0.39 -1.06)"/><path class="cls-8" d="M168.44,110.69Z" transform="translate(-0.39 -1.06)"/><path class="cls-4" d="M146.25,143.13,156,130l11.5-9.67c2.32-3,4.69-6.24,7.06-9.79,2.05-3.09,3.9-6.09,5.55-9,.5-3-.18-4.45-.88-5.19-1-1-2.06-.81-3.32-2.22-1.05-1.16-.6-1.64-1.61-3.11-1.3-1.89-3.51-1.74-5.31-3.78-1.53-1.72-2.26-4.49-3.52-5.28-1.56-1-2.68-.15-3.51,0-4.12.82-9.45,9.48-13.08,13.55a1.9,1.9,0,0,1-3.27-.8c-.93-3.88-2.66-9.59-5-11.3a1.28,1.28,0,0,0-2,1.1l.73,26.41L127.4,128Z" transform="translate(-0.39 -1.06)"/><path class="cls-9" d="M165.93,290.47H67.33v-.17l.08-1.71,1-20.86.12-2.44a83.75,83.75,0,0,0,17.62-6.62c.77-.39,1.52-.79,2.25-1.21,15.76-8.86,23.61-21.2,28.4-31l.08-.17c1.79-3.7,3.15-7,4.34-9.68,3.82-8.5,31.66-74.83,31.66-74.83C162.07,154.18,165,235.51,165.93,290.47Z" transform="translate(-0.39 -1.06)"/><path class="cls-10" d="M152.32,79.2a11.18,11.18,0,0,1-2.81-.54c-1.36-.42-3.66-.44-3.5,2.86.21,4.59,5.11,4.24,6.93,3.63C155.82,84.19,159,79.45,152.32,79.2Z" transform="translate(-0.39 -1.06)"/><path class="cls-11" d="M146.7,82.75s1.44,3.36,5.76,1.92C152.46,84.67,150.54,80.83,146.7,82.75Z" transform="translate(-0.39 -1.06)"/><path class="cls-8" d="M128.55,122.27C128.32,114,128,109,128,109s-46.34,11.33-60.8,33-54.67,87-36,111.06,40.21,18.51,67-.9c12.79-9.27,17.27-21.1,35.5-66.2,8.64-20.15,18.71-44.49,18.71-44.49S133.77,124.9,128.55,122.27Z" transform="translate(-0.39 -1.06)"/><path class="cls-9" d="M59.87,196.45s.11-10.9,8.21-13.13,22.83-17.9,23.14-24,17.09-24,17.09-24l1.61-7.41s-1.86,6.49-11.08,10.15-11.8,26.2-16.75,27.4S36.85,198.37,59.87,196.45Z" transform="translate(-0.39 -1.06)"/><path class="cls-1" d="M119.05,110.69s-8.07-.65-20.21,7a64.15,64.15,0,0,1,14,14c4.13-5.49,8.62-10.34,13.18-15.42A68.94,68.94,0,0,0,119.05,110.69Z" transform="translate(-0.39 -1.06)"/><path class="cls-12" d="M194.63,177.71c5.74,24.53,9.82,65.06,12.33,96.49a.07.07,0,0,1,0,.05c.46,5.77.87,11.23,1.22,16.22" transform="translate(-0.39 -1.06)"/></svg>