<svg id="Calque_1" data-name="Calque 1" xmlns="http://www.w3.org/2000/svg" viewBox="0 0 218.7 290.87"><defs><style>.cls-1{fill:#f7eae6;}.cls-2{fill:#1b1b1b;}.cls-3{fill:#fff;}.cls-4{fill:#e4582c;}.cls-5{fill:#895538;}.cls-6{fill:#a17153;}.cls-12,.cls-7{fill:none;stroke-linecap:round;}.cls-7{stroke:#895538;stroke-width:0.5px;}.cls-12,.cls-13,.cls-7{stroke-miterlimit:10;}.cls-8{fill:#f2b60d;}.cls-9{fill:#bfe3ee;}.cls-10{fill:#a4ced8;}.cls-11{fill:#192624;}.cls-12{stroke:#f7eae6;stroke-width:2px;}.cls-13{fill:#f7b08e;stroke:#1e1e1c;stroke-width:0.25px;}.cls-14{fill:#a07052;}</style></defs><path class="cls-1" d="M36.62,291.21l2.59-15.83c.39-2.41.79-4.81,1.18-7.21H181.07l1.29,7.21,2.85,15.83Z" transform="translate(0.13 -0.37)"/><path class="cls-2" d="M80.61,147.21a11.16,11.16,0,0,1,.53-1.7v.79C81,146.56,80.74,147,80.61,147.21Z" transform="translate(0.13 -0.37)"/><circle class="cls-3" cx="72.8" cy="58.75" r="1.19"/><circle class="cls-3" cx="93.71" cy="58.09" r="1.19"/><path class="cls-4" d="M101.74,112.36" transform="translate(0.13 -0.37)"/><path class="cls-1" d="M64.21,109.54C54,110.71,44.28,106.47,39.69,98.88s-3.13-17.1,3.71-23.83c0,0,17.74-6.47,16.55-15.39-1.58-12-2.63-22.36,4.26-27.16,4.08-2.82,9-10.68,10.71-13.49C85,2.39,102.08.71,119,.4c5.34-.1,13.64-.12,21.89,4.45a28.76,28.76,0,0,1,14,17.4A47.45,47.45,0,0,1,160,36.38a48,48,0,0,1-1.56,23.38c8.94,6.07,13.36,14.91,11.22,23.12-1.56,6-6.72,12-13.9,15-15.17,6.17-27.21-6.47-53-3.24a73.27,73.27,0,0,0-13.87,3.13Z" transform="translate(0.13 -0.37)"/><g id="COU"><path class="cls-5" d="M98.7,76.47l-2.76,38.61s16.23,13.92,39.06.66l-.28-28.95S107.49,61.18,98.7,76.47Z" transform="translate(0.13 -0.37)"/></g><path class="cls-6" d="M149.86,53.07s-1-18.11-4.64-23.26C131.64,10.3,86.66,6.84,82.83,47.3c0,0-.73-3.72-1.2,3.33,0,0-7.15-5.71-7.14,4.08,0,8.89,1.26,12.65,8.33,19,0,0,11.77,26.17,39.94,24.77,10.77-.53,19.12-11.43,23-21.85h0A78.13,78.13,0,0,0,149.86,53.07Z" transform="translate(0.13 -0.37)"/><path class="cls-6" d="M148.47,52.35s3.55-3.79,5.81-.78,1.66,17.4-5.94,20.64S148.47,52.35,148.47,52.35Z" transform="translate(0.13 -0.37)"/><circle class="cls-5" cx="93.35" cy="66.62" r="5.53"/><circle class="cls-5" cx="139.82" cy="66.62" r="5.53"/><path class="cls-5" d="M115.57,65.61s4.67,3.19,8-.11C123.58,65.5,120.12,71.74,115.57,65.61Z" transform="translate(0.13 -0.37)"/><path class="cls-7" d="M100,61.47a8.63,8.63,0,0,0,2.9,1.86,8.77,8.77,0,0,0,4.89.38" transform="translate(0.13 -0.37)"/><path class="cls-7" d="M126.68,62.65a8.56,8.56,0,0,0,8.08-.65" transform="translate(0.13 -0.37)"/><ellipse class="cls-8" cx="80.37" cy="70.87" rx="4.34" ry="4.33"/><ellipse class="cls-8" cx="151.36" cy="69.46" rx="4.34" ry="4.33"/><path class="cls-9" d="M37.73,275.38s6-155.83,50.28-171.15c5.29-1.83,14.93,5.56,31.09,5.56,22.51,0,15.07-4.37,22.33-2.09,46.59,14.6,60.39,167.68,60.39,167.68Z" transform="translate(0.13 -0.37)"/><ellipse class="cls-10" cx="117.39" cy="251.64" rx="5.11" ry="5.1"/><ellipse class="cls-10" cx="117.39" cy="157.77" rx="5.11" ry="5.1"/><ellipse class="cls-10" cx="117.69" cy="188.81" rx="5.11" ry="5.1"/><ellipse class="cls-10" cx="117.69" cy="219.85" rx="5.11" ry="5.1"/><path class="cls-5" d="M89.8,49.9s3.35,1.68,3.35-15.09H146s1.74,10.79.86,16.71,8.31-14.73,6.21-19.49S87.69,30.3,87.69,30.3Z" transform="translate(0.13 -0.37)"/><path class="cls-1" d="M145,17.72c-10.48-12-11.08-11.3-33.35-14.22C102.41,2.3,85.3,15.79,81.5,24.3c-14.17,31.57-5.91,40.17-5.91,40.17s-1.14.25-1.1-9.72,7.14-4.08,7.14-4.08,2.74,3,5.07,3c6.45,0,4.66-7.48,4-21h56.79c1.69,11.06-2.82,26.7.13,24.45,1.3-1,.88-6.32,4-6.71,0,0,3.54-.61,3.79,5.72C155.44,56.13,159.13,33.91,145,17.72Z" transform="translate(0.13 -0.37)"/><path class="cls-5" d="M20.05,180.42s-34.13,70.21,26.89,55.66L50.3,194Z" transform="translate(0.13 -0.37)"/><circle class="cls-3" cx="107.25" cy="54.91" r="1.19"/><circle class="cls-3" cx="128.15" cy="54.25" r="1.19"/><circle class="cls-11" cx="108.22" cy="53.94" r="1.19"/><circle class="cls-11" cx="129.12" cy="53.28" r="1.19"/><path class="cls-12" d="M108.09,44.11s-4.59-4.45-11.27,4.09" transform="translate(0.13 -0.37)"/><path class="cls-12" d="M129,44.92s1.76-5.65,11.37,2.21" transform="translate(0.13 -0.37)"/><path class="cls-13" d="M119.88,76.7a11,11,0,0,1-2.85-.53c-1.37-.43-5.62-3.65-5.46-.32.22,4.64,5.55,5.89,7.39,5.28C121.87,80.16,126.65,77,119.88,76.7Z" transform="translate(0.13 -0.37)"/><path class="cls-9" d="M-.13,184.7,60,208.11a7.41,7.41,0,0,0,9.58-4.23,7.48,7.48,0,0,0,.42-1.61,466.41,466.41,0,0,1,10.8-52.87c6.4-24.13,21.72-43.73,6.81-45.38C53.62,100.24,22,143.3-.13,184.7Z" transform="translate(0.13 -0.37)"/><path class="cls-14" d="M207.13,204.3l-.18,5.15-2.8,81.79H175.7L175,275.41l-.34-7.21-1.42-30.6c-1.35-12.66-2.71-20.71-3.32-26.27-1.23-11.1.54-12.19,11.42-20.14,1.31,1.46,2-3.44,5.32-4.24,1.81-.45,4.4.37,8.31,4.24C205.48,201.62,207.13,204.3,207.13,204.3Z" transform="translate(0.13 -0.37)"/><path class="cls-9" d="M212.5,178.3c-14.24-64.92-61.71-70-72.33-70.34-.65,0,.09.81-.44,1.2-8.12,5.82,20.32,16.81,24.52,102.3,18.11-.23,36.22-1.41,54.32-3C214.85,192.3,215.59,192.3,212.5,178.3Z" transform="translate(0.13 -0.37)"/><path class="cls-5" d="M145.27,87.75c-1.08-.72-2-.29-3.39-1.26a3.72,3.72,0,0,1-.77-.71,6.92,6.92,0,0,0-1.3-1.7c-1.53-1.4-2.3-.81-4.3-2.22-1.72-1.22-1.65-2-2.92-2.43a5.19,5.19,0,0,0-3.84.48,8.42,8.42,0,0,0-1.38.83h0c-3.11,2.27-6.65,7.32-7.14,10A26.15,26.15,0,0,0,119.1,81h0c-.6-1.63-1.44-2.58-2.51-2,0,0-.76-.51-1.67,1.46-.82,1.77-1.76,5.54-2.36,13.51h0c-.09,1.09-.17,2.28-.24,3.53h0c-.19,3.29-.31,7.13-.38,11.66v2.19a21.83,21.83,0,0,1-2.39,9.46c-2.48,5.11-6.51,9.78-10.27,14-5.07,5.95-12.07,13.46-20.21,21.46h0a293.56,293.56,0,0,1-30.36,26.1q-4.65,3.48-9.47,6.64h0q-3.68,2.4-7.42,4.58l-5.17,1.5h0l-3.26.94,5.15,26.14,12.67,9.86h0l5,3.91c.26,0,.51-.1.76-.16,4.73-1.2,15.59-7.34,24.68-15.36,8.48-7.48,21.78-21.34,41.65-59.1,1.38-2.65,2.8-5.41,4.26-8.31h0c2.77-5.47,5.65-11.38,8.65-17.79h-.07l5.61-13.08,6.77-9.06,1.37-1.81c.48-1.07,1-2.16,1.46-3.29l.12-.27c.89-2.08,1.76-4.25,2.62-6.53.21-.57.41-1.13.61-1.69h0c.91-2.54,1.72-5,2.43-7.35C146.93,89.37,146,88.3,145.27,87.75Zm-21.79,1.71c-.14,1.21-.28,2.18-.34,2.5A23.11,23.11,0,0,1,123.48,89.46Z" transform="translate(0.13 -0.37)"/></svg>