<svg width="196" height="90" viewBox="0 0 196 90" fill="none" xmlns="http://www.w3.org/2000/svg">
    <rect x="3" y="3" width="190" height="84" rx="42" fill="#F98E12" stroke="white" stroke-width="6"/>
    <path d="M67.5508 59.4141C65.4935 59.4141 63.7227 58.3789 62.2383 56.3086C61.6263 55.4492 61.099 54.4531 60.6562 53.3203C60.6302 53.2031 60.5977 53.0924 60.5586 52.9883C60.207 51.9727 59.9727 50.931 59.8555 49.8633L59.8164 49.2578C59.7773 48.8542 59.7578 48.457 59.7578 48.0664L59.7773 47.6758C59.8294 45.8529 60.1029 44.2643 60.5977 42.9102C60.9102 41.8815 61.3724 40.931 61.9844 40.0586C62.4661 39.3294 63.1042 38.6393 63.8984 37.9883C64.5234 37.4805 65.2266 37.0638 66.0078 36.7383C66.5547 36.5169 67.2513 36.3737 68.0977 36.3086C69.2826 36.3086 70.2201 36.582 70.9102 37.1289C71.2878 37.4023 71.6523 37.793 72.0039 38.3008C72.3164 38.8086 72.5443 39.2318 72.6875 39.5703C72.8568 39.9609 72.9414 40.332 72.9414 40.6836C72.9414 40.8529 72.9219 41.0026 72.8828 41.1328V41.1523C72.7266 41.569 72.3945 41.7773 71.8867 41.7773C71.4961 41.7773 71.1055 41.6732 70.7148 41.4648C70.3372 41.2565 70.0508 40.957 69.8555 40.5664C69.3477 39.7201 68.8659 39.2969 68.4102 39.2969C68.3581 39.2969 68.2474 39.3099 68.0781 39.3359C67.9219 39.349 67.6159 39.5052 67.1602 39.8047C66.9128 39.9479 66.6784 40.1042 66.457 40.2734C65.819 40.8073 65.2266 41.6211 64.6797 42.7148C64.5234 43.1055 64.3802 43.4961 64.25 43.8867C63.8594 45.1628 63.6641 46.556 63.6641 48.0664C63.6641 48.8867 63.8008 49.8307 64.0742 50.8984C64.2695 51.7057 64.6081 52.526 65.0898 53.3594C66.0664 55 67.0234 55.8203 67.9609 55.8203C68.4557 55.8203 68.8789 55.6836 69.2305 55.4102C69.6471 55.0977 69.9271 54.8698 70.0703 54.7266L70.1875 54.6289C70.4609 54.3815 70.7734 54.0104 71.125 53.5156C71.3073 53.2812 71.4049 53.151 71.418 53.125C71.444 53.0859 71.4766 53.0534 71.5156 53.0273C71.776 52.7799 72.0365 52.6562 72.2969 52.6562C72.362 52.6562 72.4857 52.6823 72.668 52.7344C72.8633 52.7734 73.0195 53.0078 73.1367 53.4375L73.1562 53.5938L73.1367 53.6523C73.1367 53.9518 73.1042 54.2513 73.0391 54.5508L72.9609 54.8438C72.7786 55.6641 72.4596 56.4062 72.0039 57.0703C71.4701 57.8255 70.793 58.4115 69.9727 58.8281C69.2435 59.2188 68.4362 59.4141 67.5508 59.4141ZM77.2578 56.4844C77.1146 56.4844 76.8802 56.4453 76.5547 56.3672C76.0208 56.2109 75.5911 55.4036 75.2656 53.9453L74.9531 52.4609L74.6602 50.957C74.582 50.5664 74.4648 49.9023 74.3086 48.9648C74.1523 48.0794 74.0221 47.1875 73.918 46.2891C73.8789 45.7812 73.8333 45.2799 73.7812 44.7852C73.6641 43.3789 73.5859 42.1484 73.5469 41.0938V40.2539C73.599 39.8372 73.8073 39.5312 74.1719 39.3359C74.5365 39.1276 74.9531 39.0234 75.4219 39.0234C75.9036 39.0234 76.3203 39.1276 76.6719 39.3359C77.0365 39.5312 77.2383 39.8242 77.2773 40.2148C77.2773 40.3581 77.2839 40.4883 77.2969 40.6055C77.3099 40.7227 77.3164 40.8464 77.3164 40.9766C77.3294 41.1068 77.3424 41.237 77.3555 41.3672L77.4141 41.9336L77.4922 42.9688L77.5508 42.8906C78.1367 42.1354 78.7031 41.6146 79.25 41.3281C79.6406 41.1198 80.0964 41.0156 80.6172 41.0156C81.3724 41.0156 82.082 41.2109 82.7461 41.6016C83.3841 42.0703 83.8333 42.4805 84.0938 42.832C84.3542 43.1706 84.6081 43.6458 84.8555 44.2578L85.1875 45.2734L85.4414 46.4062C85.5065 46.7578 85.5391 47.1419 85.5391 47.5586C85.5391 47.8451 85.487 48.1185 85.3828 48.3789C85.3307 48.5872 85.207 48.737 85.0117 48.8281C84.8294 48.9193 84.6992 48.9974 84.6211 49.0625L84.3477 49.2773L83.3516 49.3945C83.2474 49.3164 83.1497 49.2578 83.0586 49.2188L82.5508 49.0625C82.4727 49.0495 82.4076 49.0299 82.3555 49.0039C82.3164 48.9779 82.2383 48.8867 82.1211 48.7305C81.8346 48.3138 81.6393 47.7148 81.5352 46.9336C81.4961 46.543 81.431 46.1589 81.3398 45.7812L81.2617 45.4492C81.0664 44.6159 80.7474 44.1992 80.3047 44.1992C79.862 44.1992 79.3607 44.6029 78.8008 45.4102C78.5273 45.8398 78.3646 46.1589 78.3125 46.3672C78.1302 46.7188 78.0195 46.9727 77.9805 47.1289L77.9414 47.1875C77.9674 47.2917 77.9805 47.3893 77.9805 47.4805L78.2734 49.7852L78.3711 50.4688L78.4688 51.2891L78.5664 51.9531C78.5664 51.9922 78.5729 52.0247 78.5859 52.0508C78.7812 53.418 78.8789 54.3555 78.8789 54.8633C78.8138 55.4883 78.5729 55.9375 78.1562 56.2109C77.8698 56.3932 77.5703 56.4844 77.2578 56.4844ZM90.207 38.9062C89.5299 38.9062 88.9766 38.6523 88.5469 38.1445C88.4297 38.0013 88.3711 37.8516 88.3711 37.6953C88.3711 37.4609 88.5599 37.194 88.9375 36.8945L88.9961 36.8555C89.1523 36.7122 89.4193 36.5169 89.7969 36.2695L90.7344 35.6641C90.9167 35.5339 91.0729 35.4427 91.2031 35.3906C91.2682 35.3255 91.5742 35.1302 92.1211 34.8047C92.2904 34.7135 92.4466 34.6224 92.5898 34.5312C92.7331 34.4401 92.8828 34.3555 93.0391 34.2773L93.8789 33.7695C94.0091 33.7305 94.1458 33.7109 94.2891 33.7109C94.8359 33.763 95.3047 34.0039 95.6953 34.4336C95.8906 34.6549 95.9883 34.8893 95.9883 35.1367C95.9883 35.3581 95.9036 35.5859 95.7344 35.8203C95.6172 35.8984 95.4805 35.9766 95.3242 36.0547C95.2461 36.0938 95.1745 36.1393 95.1094 36.1914C94.9661 36.2695 94.8294 36.3477 94.6992 36.4258C94.569 36.5039 94.4388 36.5755 94.3086 36.6406L93.8203 36.9531C93.5469 37.1094 93.3711 37.2135 93.293 37.2656C93.2279 37.3047 93.1562 37.3438 93.0781 37.3828C93.013 37.4219 92.9414 37.4674 92.8633 37.5195C92.7982 37.5586 92.7266 37.6042 92.6484 37.6562C92.5703 37.7083 92.4922 37.7539 92.4141 37.793L91.7109 38.2422L90.9102 38.7305C90.7018 38.8477 90.4674 38.9062 90.207 38.9062ZM91.5547 57.207C90.7474 57.207 89.9922 57.0443 89.2891 56.7188C87.6875 56.0547 86.6458 54.6549 86.1641 52.5195C86.0078 51.8164 85.9297 51.1003 85.9297 50.3711C85.9297 49.1081 86.0729 47.9036 86.3594 46.7578C86.6458 45.7031 87.0104 44.7917 87.4531 44.0234L87.4727 44.0039C87.9414 43.2096 88.5013 42.487 89.1523 41.8359C89.8164 41.1719 90.513 40.651 91.2422 40.2734C92.0365 39.8568 92.7852 39.6159 93.4883 39.5508C93.6185 39.5508 93.7422 39.5443 93.8594 39.5312H94.582C94.9336 39.5443 95.2852 39.6094 95.6367 39.7266C96.3398 39.9609 96.9453 40.3581 97.4531 40.918C98.2214 41.8685 98.6055 42.9427 98.6055 44.1406C98.6055 45.0391 98.4036 45.9049 98 46.7383C97.5573 47.7799 96.8542 48.737 95.8906 49.6094C95.2526 50.2083 94.5885 50.7096 93.8984 51.1133C92.388 52.0378 91.0078 52.526 89.7578 52.5781C89.7578 52.6042 89.7643 52.6367 89.7773 52.6758C89.8034 52.7018 89.8229 52.7409 89.8359 52.793C89.9401 53.0143 90.0703 53.2227 90.2266 53.418C90.6823 53.9128 91.1836 54.1602 91.7305 54.1602C92.4466 54.1602 93.3841 53.724 94.543 52.8516L94.6016 52.8125C95.1094 52.3958 95.513 52.1094 95.8125 51.9531L95.9492 51.875C96.1576 51.8359 96.3594 51.8164 96.5547 51.8164C96.8281 51.8164 97.1211 51.875 97.4336 51.9922C97.7591 52.0964 97.9544 52.4479 98.0195 53.0469C97.8242 53.8411 97.1797 54.6419 96.0859 55.4492C95.4479 55.931 94.7513 56.3346 93.9961 56.6602C93.1628 57.0247 92.349 57.207 91.5547 57.207ZM89.3477 50.293L89.5039 50.2734C90.3503 50.0521 91.1576 49.6615 91.9258 49.1016C93.2018 48.1641 94.1068 47.2656 94.6406 46.4062C95.0573 45.651 95.2721 44.9479 95.2852 44.2969C95.2852 44.1536 95.2331 43.8672 95.1289 43.4375L94.9336 43.0664C94.8164 42.8841 94.6797 42.7734 94.5234 42.7344H94.2305H94.5039C94.3867 42.6953 94.2891 42.6758 94.2109 42.6758C94.0547 42.6758 93.9115 42.6888 93.7812 42.7148L93.6836 42.7344H94.2305C93.7617 42.7344 93.2083 42.9362 92.5703 43.3398C91.4505 44.069 90.6107 45.0977 90.0508 46.4258C89.582 47.5326 89.3477 48.8216 89.3477 50.293ZM108.84 58.9258H108.742C107.844 58.9258 107.29 57.6367 107.082 55.0586C106.21 55.5404 105.253 55.7812 104.211 55.7812C102.531 55.7812 101.203 55.1823 100.227 53.9844C99.6406 53.2682 99.2695 52.4479 99.1133 51.5234C99.0221 51.0547 98.9766 50.5013 98.9766 49.8633C98.9766 48.6263 99.2109 47.3893 99.6797 46.1523C100.057 45.293 100.493 44.5768 100.988 44.0039C102.082 42.806 103.423 42.207 105.012 42.207C105.272 42.207 105.533 42.2201 105.793 42.2461L106.711 42.4609C106.711 41.901 106.717 41.4453 106.73 41.0938C106.757 40.7422 106.77 40.4036 106.77 40.0781C106.796 39.2188 106.867 38.1641 106.984 36.9141C107.062 36.0286 107.186 35.1758 107.355 34.3555C107.473 33.8477 107.577 33.5221 107.668 33.3789C107.694 33.2096 107.766 33.0729 107.883 32.9688C108.13 32.7474 108.436 32.6367 108.801 32.6367C109.152 32.6367 109.445 32.7734 109.68 33.0469C109.771 33.1901 109.829 33.3464 109.855 33.5156L109.875 33.6328C109.94 33.9193 109.986 34.2122 110.012 34.5117C110.051 34.9805 110.07 35.5924 110.07 36.3477L110.051 37.0508C110.025 37.9622 110.012 38.8477 110.012 39.707C109.999 40.0326 109.992 40.4948 109.992 41.0938V45.8789C109.992 46.4648 109.999 46.9466 110.012 47.3242V50.3516L110.09 54.3945L110.129 55.6836C110.129 57.7539 109.699 58.8346 108.84 58.9258ZM104.426 52.4609C104.478 52.4609 104.523 52.4544 104.562 52.4414C104.68 52.4414 104.758 52.4349 104.797 52.4219H104.699C105.025 52.3958 105.435 52.2786 105.93 52.0703C106.008 52.0312 106.092 51.9987 106.184 51.9727C106.548 51.8034 106.757 51.6927 106.809 51.6406H106.828C106.815 51.224 106.796 50.8138 106.77 50.4102C106.717 49.3815 106.691 47.9818 106.691 46.2109V45.8398C106.665 45.8398 106.639 45.8268 106.613 45.8008C106.001 45.4492 105.448 45.2734 104.953 45.2734C104.445 45.2734 103.996 45.4753 103.605 45.8789C103.254 46.2305 102.974 46.6602 102.766 47.168C102.583 47.5977 102.492 47.8971 102.492 48.0664C102.362 48.5872 102.297 49.1211 102.297 49.668C102.297 50.1628 102.355 50.5924 102.473 50.957C102.759 51.8164 103.202 52.3047 103.801 52.4219H104.699L104.621 52.4414L104.289 52.4609L103.879 52.4414C103.97 52.4544 104.107 52.4609 104.289 52.4609H104.426ZM112.434 40.4297C112.408 40.4297 112.212 40.4232 111.848 40.4102C111.483 40.3971 111.216 40.0195 111.047 39.2773V38.125C111.047 37.8906 111.053 37.7214 111.066 37.6172V37.4805C111.197 36.3607 111.698 35.8008 112.57 35.8008C112.909 35.8008 113.208 35.9049 113.469 36.1133C113.82 36.4128 113.996 36.901 113.996 37.5781C114.035 37.8516 114.055 38.1055 114.055 38.3398C114.094 38.6263 114.113 38.9388 114.113 39.2773C114.113 39.4206 114.094 39.5638 114.055 39.707C113.625 40.1888 113.085 40.4297 112.434 40.4297ZM113.781 58.0469C113.156 58.0469 112.642 57.6302 112.238 56.7969C111.913 55.7161 111.672 54.0039 111.516 51.6602L111.457 51.0352C111.405 50.1758 111.372 49.7331 111.359 49.707C111.268 48.1706 111.229 47.0768 111.242 46.4258C111.242 45.5924 111.255 44.9479 111.281 44.4922C111.359 43.763 111.574 43.2357 111.926 42.9102C112.238 42.6367 112.583 42.5 112.961 42.5C113.443 42.5 113.84 42.6953 114.152 43.0859C114.4 43.3854 114.523 43.776 114.523 44.2578L114.504 44.5312L114.523 45.5664L114.582 46.7773C114.595 47.0508 114.615 47.3177 114.641 47.5781L114.719 48.8672C114.771 49.362 114.81 49.8568 114.836 50.3516L115.188 53.9648C115.318 55.0326 115.383 55.8529 115.383 56.4258C115.174 57.5065 114.641 58.0469 113.781 58.0469ZM121.164 56.0742C120.383 56.0742 119.686 55.8464 119.074 55.3906C118.319 54.8307 117.733 53.8867 117.316 52.5586C117.108 51.9727 116.952 51.3151 116.848 50.5859C116.835 50.4557 116.815 50.332 116.789 50.2148L116.691 49.4531C116.691 49.2969 116.678 49.1406 116.652 48.9844C116.587 48.4245 116.555 47.5195 116.555 46.2695L116.594 45.6055C116.607 45.1628 116.639 44.7135 116.691 44.2578C116.743 43.8021 116.783 43.5352 116.809 43.457C116.626 43.457 116.262 43.5417 115.715 43.7109L115.305 43.8086L115.051 43.8281C114.921 43.75 114.777 43.6784 114.621 43.6133C114.022 43.4049 113.723 43.151 113.723 42.8516C113.723 42.6562 113.944 42.4023 114.387 42.0898L114.426 42.0703C114.986 41.7318 115.682 41.4453 116.516 41.2109C116.932 41.1068 117.186 41.0547 117.277 41.0547L117.297 40.9375L117.414 40.5273C117.505 39.9935 117.655 39.5117 117.863 39.082C118.215 38.3919 118.632 38.0469 119.113 38.0469C119.751 38.0599 120.311 38.5026 120.793 39.375L120.695 39.8438L120.559 40.4883L120.5 40.7227C120.5 40.7487 120.493 40.7682 120.48 40.7812L120.676 40.8008C121.092 40.8008 121.438 40.8073 121.711 40.8203C121.984 40.8333 122.251 40.8594 122.512 40.8984C123.059 40.9245 123.514 40.9961 123.879 41.1133C124.126 41.2956 124.25 41.5234 124.25 41.7969C124.25 41.849 124.23 41.9857 124.191 42.207C124.152 42.4154 123.99 42.6693 123.703 42.9688C123.417 43.2682 123.091 43.444 122.727 43.4961L122.141 43.4375C121.503 43.3594 121.04 43.3138 120.754 43.3008L120.129 43.2812L120.109 43.3789C120.083 43.6914 120.051 43.9974 120.012 44.2969C120.012 44.4792 119.999 44.6354 119.973 44.7656C119.908 45.612 119.875 46.1849 119.875 46.4844L119.836 46.9531C119.836 48.099 119.855 48.8607 119.895 49.2383C119.895 49.3945 119.921 49.7331 119.973 50.2539C120.025 50.5404 120.07 50.8203 120.109 51.0938C120.161 51.3672 120.22 51.6276 120.285 51.875C120.376 52.2786 120.52 52.6628 120.715 53.0273C120.91 53.3789 121.145 53.5547 121.418 53.5547C121.652 53.5547 121.906 53.3203 122.18 52.8516C122.31 52.6432 122.388 52.5 122.414 52.4219C122.674 51.7708 122.948 51.4453 123.234 51.4453C123.56 51.4453 123.762 52.0312 123.84 53.2031C123.827 53.2292 123.82 53.2617 123.82 53.3008V53.418C123.82 53.8477 123.658 54.349 123.332 54.9219C123.072 55.3125 122.766 55.6055 122.414 55.8008C122.062 55.9831 121.646 56.0742 121.164 56.0742ZM120.48 43.2812C120.376 43.2812 120.279 43.2747 120.188 43.2617H120.129V43.2812H120.48ZM130.734 58.4375C129.25 58.4375 127.941 58.0404 126.809 57.2461C126.21 56.8294 125.728 56.3672 125.363 55.8594C124.96 55.2474 124.745 54.6419 124.719 54.043C124.888 53.2617 125.233 52.8711 125.754 52.8711C125.78 52.8711 125.936 52.8841 126.223 52.9102C126.522 52.9232 126.965 53.1706 127.551 53.6523C127.798 53.9909 128.059 54.2773 128.332 54.5117L128.449 54.6094C128.618 54.7526 128.794 54.8698 128.977 54.9609C129.562 55.2995 130.135 55.4688 130.695 55.4688C131.229 55.4688 131.704 55.2799 132.121 54.9023L132.219 54.5312C132.232 54.4661 132.238 54.3945 132.238 54.3164C132.238 54.069 132.108 53.763 131.848 53.3984C131.652 53.125 131.32 52.806 130.852 52.4414L130.656 52.2656L130.109 51.8555L129.367 51.3281L129.074 51.1523C128.892 51.0352 128.697 50.918 128.488 50.8008C128.332 50.7227 128.026 50.5273 127.57 50.2148L127.473 50.1367C127.186 49.9414 126.906 49.7266 126.633 49.4922C126.021 48.9583 125.533 48.3398 125.168 47.6367C124.816 46.9336 124.641 46.1719 124.641 45.3516C124.641 44.5052 124.868 43.6719 125.324 42.8516C125.767 42.0833 126.327 41.4844 127.004 41.0547C127.694 40.612 128.508 40.3906 129.445 40.3906C130.37 40.3906 131.19 40.6445 131.906 41.1523C132.388 41.543 132.746 42.0117 132.98 42.5586C133.176 42.9753 133.273 43.3919 133.273 43.8086C133.273 44.3815 133.085 44.8958 132.707 45.3516C132.303 45.7031 131.958 45.8789 131.672 45.8789C131.659 45.8789 131.574 45.8724 131.418 45.8594C131.262 45.8464 130.982 45.5924 130.578 45.0977C130.526 45.0326 130.5 44.9609 130.5 44.8828V44.6094V44.3359C130.5 44.2188 130.493 44.1536 130.48 44.1406C130.441 44.0625 130.415 44.0169 130.402 44.0039C130.389 43.9779 130.376 43.9583 130.363 43.9453C130.35 43.9323 130.337 43.9193 130.324 43.9062C130.064 43.6328 129.823 43.4961 129.602 43.4961C129.146 43.4961 128.788 43.75 128.527 44.2578C128.371 44.5964 128.293 44.9089 128.293 45.1953C128.293 45.3646 128.332 45.5404 128.41 45.7227C128.54 46.1003 128.898 46.5104 129.484 46.9531C129.576 47.0443 129.836 47.2201 130.266 47.4805C130.37 47.5326 130.467 47.5911 130.559 47.6562L131.477 48.2031C132.271 48.724 132.779 49.0755 133 49.2578C133.664 49.7786 134.204 50.293 134.621 50.8008C135.441 51.8424 135.852 52.9622 135.852 54.1602C135.852 54.4857 135.812 54.8112 135.734 55.1367C135.383 56.5951 134.439 57.5911 132.902 58.125C132.212 58.3333 131.49 58.4375 130.734 58.4375Z" fill="white"/>
</svg>
