<svg width="196" height="90" viewBox="0 0 196 90" fill="none" xmlns="http://www.w3.org/2000/svg">
    <rect x="3" y="3" width="190" height="84" rx="42" fill="#F98E12" stroke="white" stroke-width="6"/>
    <path d="M68.2344 59.0625C68.0781 59.0625 67.9154 59.0495 67.7461 59.0234C66.5872 58.6068 65.5 57.6042 64.4844 56.0156C63.7812 54.8698 63.2734 53.7826 62.9609 52.7539C62.8828 52.5977 62.7786 52.2266 62.6484 51.6406C62.401 50.6901 62.2773 49.9089 62.2773 49.2969C61.8346 49.2708 61.418 49.1927 61.0273 49.0625C60.5326 48.9193 60.0964 48.737 59.7188 48.5156L59.543 48.418L59.4648 48.3594L59.5039 48.6914C59.6471 49.7201 59.8034 50.7487 59.9727 51.7773L60.4219 54.1992C60.6693 55.5013 60.793 56.4388 60.793 57.0117C60.6758 58.0794 60.1484 58.6133 59.2109 58.6133C58.7682 58.6133 58.3385 58.4701 57.9219 58.1836C57.362 57.7799 57.082 57.181 57.082 56.3867V56.2891L56.7109 54.8047L56.5547 54.0039C56.3333 52.8971 56.1771 52.0703 56.0859 51.5234C55.7734 49.7266 55.5456 47.9297 55.4023 46.1328L55.2852 44.3555C55.2852 44.1081 55.2591 43.5286 55.207 42.6172L55.1875 40.957C55.2526 39.4076 55.3047 38.431 55.3438 38.0273L55.3633 37.793C55.4935 36.6341 55.6562 35.6445 55.8516 34.8242C56.1771 33.9258 56.6979 33.4766 57.4141 33.4766C57.9219 33.4766 58.4036 33.7305 58.8594 34.2383C58.9375 34.4206 58.9766 34.6094 58.9766 34.8047C59.7448 34.375 60.6107 34.1602 61.5742 34.1602C62.9674 34.1602 64.3477 34.5443 65.7148 35.3125C66.1706 35.5599 66.4896 35.7812 66.6719 35.9766C67.9219 36.9531 68.8008 38.1576 69.3086 39.5898C69.543 40.319 69.6602 41.0482 69.6602 41.7773L69.6406 42.793C69.6016 43.1185 69.543 43.4375 69.4648 43.75C69.3477 44.2969 69.1979 44.7656 69.0156 45.1562L68.8984 45.4492C68.638 45.9831 68.332 46.4648 67.9805 46.8945C67.2773 47.6497 66.4961 48.2552 65.6367 48.7109C65.6107 48.7109 65.5977 48.737 65.5977 48.7891C65.6107 48.8411 65.6953 49.1602 65.8516 49.7461L66.0273 50.293C66.1055 50.5794 66.1966 50.8659 66.3008 51.1523C66.5742 51.8815 66.776 52.3763 66.9062 52.6367L66.9648 52.7734C67.2383 53.3073 67.5443 53.8216 67.8828 54.3164C68.1042 54.6289 68.4622 55.0651 68.957 55.625L69.4844 56.1719C69.849 56.6016 70.0312 57.0247 70.0312 57.4414C70.0312 57.7148 69.9466 57.9883 69.7773 58.2617C69.4518 58.7956 68.9375 59.0625 68.2344 59.0625ZM62.6484 45.7617C62.7135 45.7617 62.8438 45.7552 63.0391 45.7422C63.2474 45.7292 63.5404 45.5729 63.918 45.2734L64.25 45C64.6146 44.6875 64.8424 44.4336 64.9336 44.2383C65.0768 44.056 65.181 43.8607 65.2461 43.6523C65.2852 43.5872 65.3503 43.3854 65.4414 43.0469C65.5195 42.474 65.5586 42.1354 65.5586 42.0312C65.5586 41.7578 65.5391 41.5169 65.5 41.3086C65.4609 41.1003 65.4089 40.8984 65.3438 40.7031V40.6836C65.2786 40.5013 65.2005 40.3255 65.1094 40.1562L65.0898 40.0977C64.8815 39.7331 64.6276 39.388 64.3281 39.0625C63.7552 38.5286 63.2409 38.1706 62.7852 37.9883L62.3555 37.8125C62.0039 37.6953 61.6654 37.6367 61.3398 37.6367C60.7409 37.6367 60.1354 37.7604 59.5234 38.0078C59.4062 38.0599 59.3021 38.138 59.2109 38.2422C59.1198 38.3333 59.0156 38.431 58.8984 38.5352L58.8789 38.5742L58.8594 39.5117C58.8594 39.9544 58.8789 40.957 58.918 42.5195C58.957 43.3789 59.0156 44.2383 59.0938 45.0977C59.1068 45.1497 59.1133 45.2083 59.1133 45.2734L59.3086 45.1953C59.4258 45.2214 59.543 45.2344 59.6602 45.2344C59.8034 45.2344 59.9531 45.2148 60.1094 45.1758C60.3047 45.2148 60.4935 45.2344 60.6758 45.2344C60.806 45.2604 60.9362 45.2995 61.0664 45.3516C61.1185 45.3516 61.2552 45.3971 61.4766 45.4883H61.4961C61.9388 45.6706 62.3229 45.7617 62.6484 45.7617ZM76.0469 56.7773C75.2917 56.7773 74.5365 56.6146 73.7812 56.2891C72.9609 55.9245 72.2773 55.3711 71.7305 54.6289C70.8581 53.3659 70.4219 51.7513 70.4219 49.7852C70.4219 48.6003 70.5651 47.4414 70.8516 46.3086C71.138 45.2539 71.5026 44.3359 71.9453 43.5547C72.401 42.7734 72.9609 42.0573 73.625 41.4062C74.3021 40.7422 75.0117 40.2148 75.7539 39.8242C76.5091 39.4336 77.2513 39.1927 77.9805 39.1016H79.0742C79.4258 39.1146 79.7773 39.1732 80.1289 39.2773C81.5612 39.8112 82.4792 40.8008 82.8828 42.2461C83.013 42.6888 83.0781 43.1771 83.0781 43.7109C83.0781 44.6094 82.8828 45.4753 82.4922 46.3086C82.2188 46.9466 81.7956 47.6107 81.2227 48.3008C81.1055 48.4831 80.832 48.776 80.4023 49.1797C78.9831 50.4167 77.5768 51.276 76.1836 51.7578C75.4805 51.9922 74.8359 52.1224 74.25 52.1484C74.263 52.1615 74.276 52.1875 74.2891 52.2266C74.3021 52.2656 74.3151 52.3112 74.3281 52.3633C74.4323 52.5846 74.569 52.793 74.7383 52.9883C75.181 53.4831 75.6562 53.7305 76.1641 53.7305C76.6589 53.7305 77.1406 53.5938 77.6094 53.3203C77.8828 53.1771 78.1432 53.0273 78.3906 52.8711C78.7943 52.6107 79.0286 52.4479 79.0938 52.3828C79.4844 52.0312 79.888 51.7448 80.3047 51.5234L80.4414 51.4453C80.6497 51.4062 80.8516 51.3867 81.0469 51.3867C81.3203 51.3867 81.6133 51.4453 81.9258 51.5625C82.2513 51.6667 82.4466 52.0182 82.5117 52.6172C82.4336 52.9427 82.2969 53.2487 82.1016 53.5352C81.9193 53.8216 81.6979 54.082 81.4375 54.3164C80.2266 55.4102 78.8464 56.1849 77.2969 56.6406C76.8802 56.7318 76.4635 56.7773 76.0469 56.7773ZM73.8398 49.8633C73.8659 49.8633 73.8854 49.8568 73.8984 49.8438C74.0286 49.8438 74.3086 49.7656 74.7383 49.6094C75.793 49.1667 76.8867 48.4115 78.0195 47.3438C78.4883 46.862 78.8594 46.4062 79.1328 45.9766C79.5495 45.2214 79.7643 44.5182 79.7773 43.8672C79.7773 43.4766 79.6602 43.0664 79.4258 42.6367C79.3086 42.4544 79.1719 42.3438 79.0156 42.3047H79.0938H78.7227H78.9961C78.8789 42.2656 78.7161 42.2461 78.5078 42.2461C78.2865 42.2721 78.1758 42.2917 78.1758 42.3047H78.7227C78.2539 42.3047 77.7005 42.5065 77.0625 42.9102C75.9167 43.6914 75.0768 44.7201 74.543 45.9961C74.0742 47.1029 73.8398 48.3919 73.8398 49.8633ZM86.3008 40.0781C85.8711 40.0781 85.4349 40.0065 84.9922 39.8633C84.7578 39.6419 84.6406 39.3229 84.6406 38.9062L84.6602 38.2422L84.6797 38.1055C84.6797 37.9753 84.6862 37.8516 84.6992 37.7344C84.7122 37.6823 84.7188 37.6237 84.7188 37.5586C84.7708 37.181 84.9922 36.9141 85.3828 36.7578C85.6953 36.6276 86.0729 36.5625 86.5156 36.5625C86.8542 36.5625 87.1602 36.6341 87.4336 36.7773C87.707 36.9076 87.8698 37.1224 87.9219 37.4219C87.9349 37.5 87.9414 37.6302 87.9414 37.8125C87.9544 37.9818 87.9609 38.3138 87.9609 38.8086C87.9609 39.2904 87.8372 39.6419 87.5898 39.8633C87.1732 40.0065 86.7435 40.0781 86.3008 40.0781ZM84.8359 66.5039C84.1719 66.5039 83.5664 66.3802 83.0195 66.1328C82.7331 65.9896 82.401 65.7487 82.0234 65.4102C81.6458 65.0846 81.3073 64.6484 81.0078 64.1016L80.9688 64.043C80.7995 63.6654 80.6758 63.2878 80.5977 62.9102L80.5586 62.6953C80.5065 62.5391 80.4805 62.4023 80.4805 62.2852C80.4544 62.1159 80.4414 61.9466 80.4414 61.7773C80.4414 61.556 80.4479 61.3932 80.4609 61.2891L80.4805 61.2109C80.7279 60.6771 81.0924 60.4102 81.5742 60.4102C81.6393 60.4102 81.8346 60.4297 82.1602 60.4688C82.4727 60.5208 82.7591 60.8008 83.0195 61.3086C83.0195 61.3477 83.026 61.3932 83.0391 61.4453C83.0521 61.5104 83.0586 61.5755 83.0586 61.6406C83.0586 61.7188 83.0716 61.849 83.0977 62.0312L83.1172 62.1484C83.1432 62.3698 83.1953 62.5651 83.2734 62.7344C83.4557 63.0469 83.5729 63.2357 83.625 63.3008C83.6771 63.3659 83.7422 63.4375 83.8203 63.5156C84.25 63.8542 84.582 64.0234 84.8164 64.0234C85.0378 64.0234 85.3047 63.8477 85.6172 63.4961C85.7214 63.3268 85.7734 63.1966 85.7734 63.1055C85.8776 62.6888 85.9297 62.2982 85.9297 61.9336C85.9297 61.3737 85.9167 60.8138 85.8906 60.2539C85.8516 59.9154 85.806 59.5703 85.7539 59.2188C85.7148 58.8542 85.6758 58.4831 85.6367 58.1055C85.5977 57.7148 85.5521 57.3307 85.5 56.9531V56.8555L85.2461 55.0391L85.0508 53.2227L84.9531 52.4609L84.7773 50.5273L84.5039 46.3086L84.4844 45.7812C84.4583 45.4557 84.4453 45.0651 84.4453 44.6094C84.4453 44.1797 84.4518 43.8932 84.4648 43.75C84.4909 43.5938 84.5039 43.4505 84.5039 43.3203C84.569 42.9557 84.7708 42.6823 85.1094 42.5C85.4609 42.3047 85.8581 42.2005 86.3008 42.1875C87.3685 42.1875 88.0326 42.5065 88.293 43.1445L88.4102 43.7305C88.5143 44.2122 88.612 44.7917 88.7031 45.4688L88.7617 45.9375C88.9831 47.8125 89.0938 48.9128 89.0938 49.2383C89.1328 49.5898 89.1589 49.9349 89.1719 50.2734C89.237 50.9115 89.2695 51.556 89.2695 52.207C89.3607 53.9388 89.4062 54.9414 89.4062 55.2148C89.4193 55.4883 89.4258 55.957 89.4258 56.6211L89.4648 57.9297C89.4648 58.2292 89.4388 58.8997 89.3867 59.9414L89.2305 61.3281C89.0221 62.6302 88.6706 63.7305 88.1758 64.6289C87.9544 65.0326 87.681 65.3646 87.3555 65.625L87.2578 65.7031C86.6328 66.237 85.8255 66.5039 84.8359 66.5039ZM95.5781 56.8555C94.5365 56.8555 93.5664 56.5299 92.668 55.8789C91.9909 55.3581 91.4635 54.694 91.0859 53.8867C90.2786 52.3633 89.875 50.6901 89.875 48.8672C89.875 47.7995 90.0247 46.7383 90.3242 45.6836C90.3503 45.6315 90.3698 45.5729 90.3828 45.5078C90.487 45.1302 90.6172 44.7591 90.7734 44.3945C91.8021 42.4414 93.2214 41.4648 95.0312 41.4648C95.7734 41.4648 96.5026 41.6406 97.2188 41.9922C97.9349 42.3438 98.5599 42.8581 99.0938 43.5352C100.057 44.7591 100.669 46.1719 100.93 47.7734C100.995 48.1901 101.027 48.6719 101.027 49.2188C101.027 49.5312 101.008 49.8503 100.969 50.1758C100.891 51.0221 100.728 51.7969 100.48 52.5C100.155 53.3203 99.8294 53.9844 99.5039 54.4922C99.1003 55.1172 98.599 55.651 98 56.0938C97.2188 56.6016 96.4115 56.8555 95.5781 56.8555ZM95.5 53.5938C95.5651 53.5938 95.7083 53.5482 95.9297 53.457C96.151 53.3659 96.4635 52.9557 96.8672 52.2266C96.9974 52.0182 97.1081 51.7969 97.1992 51.5625V51.5234C97.4336 50.9115 97.5833 50.3711 97.6484 49.9023L97.668 49.8438C97.707 49.6224 97.7266 49.4076 97.7266 49.1992C97.7266 48.7956 97.7005 48.444 97.6484 48.1445C97.5703 47.6107 97.3945 47.0768 97.1211 46.543C96.8607 45.9961 96.5872 45.5729 96.3008 45.2734C95.7279 44.7786 95.2786 44.5312 94.9531 44.5312C94.6016 44.5312 94.2826 44.8503 93.9961 45.4883C93.7227 46.1263 93.5339 46.8099 93.4297 47.5391C93.3516 47.9948 93.3125 48.457 93.3125 48.9258C93.3125 50.2018 93.6315 51.4258 94.2695 52.5977C94.7513 53.2617 95.1615 53.5938 95.5 53.5938ZM107.824 57.0508C106.587 57.0508 105.461 56.6862 104.445 55.957C103.82 55.4362 103.286 54.8112 102.844 54.082L102.668 53.75C102.16 52.8646 101.789 51.7448 101.555 50.3906C101.503 49.9089 101.464 49.4336 101.438 48.9648C101.438 47.9362 101.522 46.9987 101.691 46.1523C101.887 45.0586 102.277 43.8737 102.863 42.5977C103.358 41.6081 103.794 40.9375 104.172 40.5859C104.263 40.5208 104.387 40.4883 104.543 40.4883C105.025 40.4883 105.559 40.7096 106.145 41.1523C106.743 41.582 107.043 42.0117 107.043 42.4414C107.043 42.6628 106.945 42.8841 106.75 43.1055C106.503 43.6654 106.294 44.2904 106.125 44.9805C105.93 45.7878 105.812 46.582 105.773 47.3633L105.754 48.0273C105.754 48.7305 105.812 49.3424 105.93 49.8633C106.021 50.4362 106.099 50.7552 106.164 50.8203C106.385 51.4714 106.6 51.9857 106.809 52.3633C107.264 53.0924 107.772 53.457 108.332 53.457C108.827 53.457 109.445 53.1185 110.188 52.4414C110.552 52.0508 110.839 51.6536 111.047 51.25C111.307 50.8073 111.503 50.332 111.633 49.8242C111.841 49.1471 111.945 48.4635 111.945 47.7734C111.945 47.1745 111.9 46.556 111.809 45.918L111.789 45.8594C111.698 45.3125 111.555 44.7396 111.359 44.1406C111.138 43.4375 110.949 42.9232 110.793 42.5977L110.598 42.1875C110.467 41.9531 110.402 41.7578 110.402 41.6016C110.402 41.1849 110.578 40.8398 110.93 40.5664C111.281 40.2799 111.711 40.1367 112.219 40.1367C113.13 40.1367 113.638 40.6055 113.742 41.543L114.074 42.4805L114.367 43.4766C114.68 44.7786 114.862 45.7747 114.914 46.4648L114.973 47.832C114.973 48.6784 114.842 49.5768 114.582 50.5273L114.27 51.4844L114.172 51.7188C113.846 52.5521 113.397 53.3464 112.824 54.1016C111.9 55.3255 110.878 56.1719 109.758 56.6406C109.133 56.9141 108.488 57.0508 107.824 57.0508ZM121.008 56.7773C120.253 56.7773 119.497 56.6146 118.742 56.2891C117.922 55.9245 117.238 55.3711 116.691 54.6289C115.819 53.3659 115.383 51.7513 115.383 49.7852C115.383 48.6003 115.526 47.4414 115.812 46.3086C116.099 45.2539 116.464 44.3359 116.906 43.5547C117.362 42.7734 117.922 42.0573 118.586 41.4062C119.263 40.7422 119.973 40.2148 120.715 39.8242C121.47 39.4336 122.212 39.1927 122.941 39.1016H124.035C124.387 39.1146 124.738 39.1732 125.09 39.2773C126.522 39.8112 127.44 40.8008 127.844 42.2461C127.974 42.6888 128.039 43.1771 128.039 43.7109C128.039 44.6094 127.844 45.4753 127.453 46.3086C127.18 46.9466 126.757 47.6107 126.184 48.3008C126.066 48.4831 125.793 48.776 125.363 49.1797C123.944 50.4167 122.538 51.276 121.145 51.7578C120.441 51.9922 119.797 52.1224 119.211 52.1484C119.224 52.1615 119.237 52.1875 119.25 52.2266C119.263 52.2656 119.276 52.3112 119.289 52.3633C119.393 52.5846 119.53 52.793 119.699 52.9883C120.142 53.4831 120.617 53.7305 121.125 53.7305C121.62 53.7305 122.102 53.5938 122.57 53.3203C122.844 53.1771 123.104 53.0273 123.352 52.8711C123.755 52.6107 123.99 52.4479 124.055 52.3828C124.445 52.0312 124.849 51.7448 125.266 51.5234L125.402 51.4453C125.611 51.4062 125.812 51.3867 126.008 51.3867C126.281 51.3867 126.574 51.4453 126.887 51.5625C127.212 51.6667 127.408 52.0182 127.473 52.6172C127.395 52.9427 127.258 53.2487 127.062 53.5352C126.88 53.8216 126.659 54.082 126.398 54.3164C125.188 55.4102 123.807 56.1849 122.258 56.6406C121.841 56.7318 121.424 56.7773 121.008 56.7773ZM118.801 49.8633C118.827 49.8633 118.846 49.8568 118.859 49.8438C118.99 49.8438 119.27 49.7656 119.699 49.6094C120.754 49.1667 121.848 48.4115 122.98 47.3438C123.449 46.862 123.82 46.4062 124.094 45.9766C124.51 45.2214 124.725 44.5182 124.738 43.8672C124.738 43.4766 124.621 43.0664 124.387 42.6367C124.27 42.4544 124.133 42.3438 123.977 42.3047H124.055H123.684H123.957C123.84 42.2656 123.677 42.2461 123.469 42.2461C123.247 42.2721 123.137 42.2917 123.137 42.3047H123.684C123.215 42.3047 122.661 42.5065 122.023 42.9102C120.878 43.6914 120.038 44.7201 119.504 45.9961C119.035 47.1029 118.801 48.3919 118.801 49.8633ZM132.141 56.4844C131.997 56.4844 131.763 56.4453 131.438 56.3672C130.904 56.2109 130.474 55.4036 130.148 53.9453L129.836 52.4609L129.543 50.957C129.465 50.5664 129.348 49.9023 129.191 48.9648C129.035 48.0794 128.905 47.1875 128.801 46.2891C128.762 45.7812 128.716 45.2799 128.664 44.7852C128.547 43.3789 128.469 42.1484 128.43 41.0938V40.2539C128.482 39.8372 128.69 39.5312 129.055 39.3359C129.419 39.1276 129.836 39.0234 130.305 39.0234C130.786 39.0234 131.203 39.1276 131.555 39.3359C131.919 39.5312 132.121 39.8242 132.16 40.2148C132.16 40.3581 132.167 40.4883 132.18 40.6055C132.193 40.7227 132.199 40.8464 132.199 40.9766C132.212 41.1068 132.225 41.237 132.238 41.3672L132.297 41.9336L132.375 42.9688L132.434 42.8906C133.02 42.1354 133.586 41.6146 134.133 41.3281C134.523 41.1198 134.979 41.0156 135.5 41.0156C136.255 41.0156 136.965 41.2109 137.629 41.6016C138.267 42.0703 138.716 42.4805 138.977 42.832C139.237 43.1706 139.491 43.6458 139.738 44.2578L140.07 45.2734L140.324 46.4062C140.389 46.7578 140.422 47.1419 140.422 47.5586C140.422 47.8451 140.37 48.1185 140.266 48.3789C140.214 48.5872 140.09 48.737 139.895 48.8281C139.712 48.9193 139.582 48.9974 139.504 49.0625L139.23 49.2773L138.234 49.3945C138.13 49.3164 138.033 49.2578 137.941 49.2188L137.434 49.0625C137.355 49.0495 137.29 49.0299 137.238 49.0039C137.199 48.9779 137.121 48.8867 137.004 48.7305C136.717 48.3138 136.522 47.7148 136.418 46.9336C136.379 46.543 136.314 46.1589 136.223 45.7812L136.145 45.4492C135.949 44.6159 135.63 44.1992 135.188 44.1992C134.745 44.1992 134.243 44.6029 133.684 45.4102C133.41 45.8398 133.247 46.1589 133.195 46.3672C133.013 46.7188 132.902 46.9727 132.863 47.1289L132.824 47.1875C132.85 47.2917 132.863 47.3893 132.863 47.4805L133.156 49.7852L133.254 50.4688L133.352 51.2891L133.449 51.9531C133.449 51.9922 133.456 52.0247 133.469 52.0508C133.664 53.418 133.762 54.3555 133.762 54.8633C133.697 55.4883 133.456 55.9375 133.039 56.2109C132.753 56.3932 132.453 56.4844 132.141 56.4844Z" fill="white"/>
</svg>
