<svg id="Calque_1" data-name="Calque 1" xmlns="http://www.w3.org/2000/svg" viewBox="0 0 411.89 440.04"><defs><style>.cls-1{fill:#f5b37b;}.cls-2,.cls-25,.cls-34{fill:#fff;}.cls-2{stroke:#a5b0f2;stroke-width:8.01px;}.cls-2,.cls-25{stroke-miterlimit:10;}.cls-3{fill:#31cfff;}.cls-4{fill:#00c6f4;}.cls-5{fill:#f7faea;}.cls-6{fill:#e0bbc8;}.cls-7{fill:#d88caa;}.cls-8{fill:#f3f6dd;}.cls-9{fill:#27317b;}.cls-10{fill:#a3aef0;}.cls-11,.cls-13,.cls-29{fill:#333e9c;}.cls-12{fill:#90a2ee;}.cls-13{font-size:5.11px;letter-spacing:0.02em;}.cls-13,.cls-19,.cls-24,.cls-26,.cls-29{font-family:Shrikhand-Regular, Shrikhand;}.cls-14{fill:#65ada5;}.cls-15{fill:#4baa99;}.cls-16{fill:#edb584;}.cls-17{fill:#e9a067;}.cls-18,.cls-19{fill:#fffff9;}.cls-19,.cls-24{font-size:5.04px;letter-spacing:0.02em;}.cls-20{letter-spacing:0.03em;}.cls-21{fill:#e78e4f;}.cls-22{fill:#00217a;}.cls-23,.cls-24,.cls-26{fill:#65aba4;}.cls-25{stroke:#e0bbc8;stroke-width:0.82px;}.cls-26{font-size:5.03px;letter-spacing:0.02em;}.cls-27{letter-spacing:0em;}.cls-28{font-size:3.47px;letter-spacing:0.02em;}.cls-29{font-size:3.92px;letter-spacing:0.02em;}.cls-30{fill:#fdfbe9;}.cls-31{letter-spacing:-0.01em;}.cls-32{letter-spacing:0.02em;}.cls-33{fill:#fdfdfd;}</style></defs><title>Hyblab_picto2</title><circle class="cls-1" cx="206.8" cy="240.92" r="163.42"/><circle class="cls-2" cx="206.8" cy="66.13" r="62.12"/><path class="cls-1" d="M434.42,96.5c-.5-2.56-2.48-1.32-2.48-1.32l-45.83,69.36.09.08-5.72,8.69a2.15,2.15,0,0,0,.69,2.95l.25.17a2.15,2.15,0,0,0,3-.54l27.32-41.49c1.8-2.09,4.71-4.48,10.79-7.83C434,120.23,434.92,99.05,434.42,96.5Z" transform="translate(-201.28 -71.45)"/><path class="cls-1" d="M397.66,113.72l-1.86-2.57h0l-9.83-14.51a.91.91,0,0,0-1.27-.24l-.21.15a.91.91,0,0,0-.24,1.27L393.85,112a.87.87,0,0,0-.73.44l-9.6-14.18a.91.91,0,0,0-1.27-.24l-.21.15a.91.91,0,0,0-.24,1.27l9.69,14.3a.88.88,0,0,0-1,.68l-9.69-14.3a.91.91,0,0,0-1.27-.24l-.21.15a.91.91,0,0,0-.24,1.27l9.61,14.19a.86.86,0,0,0-.69.49l-9.62-14.2a.91.91,0,0,0-1.27-.24l-.21.15a.91.91,0,0,0-.24,1.27l10,14.78,1.17,2.06a30.43,30.43,0,0,0,5.21,6.1l4.81,3.7,32.42,47.86a2.44,2.44,0,0,0,3.38.65l.19-.13a2.44,2.44,0,0,0,.65-3.38l-32.39-47.83-1.37-6.28A18.33,18.33,0,0,0,397.66,113.72Z" transform="translate(-201.28 -71.45)"/><rect class="cls-3" x="214.89" y="194.16" width="50.72" height="29.62"/><rect class="cls-3" x="215.2" y="178.47" width="50.1" height="7.45"/><rect class="cls-4" x="213.37" y="176.49" width="53.77" height="2.41"/><polygon class="cls-5" points="214.49 194.14 220.15 194.13 222.8 188.21 219.14 188.25 214.49 194.14"/><polygon class="cls-6" points="222.81 188.21 228.49 188.22 225.79 194.14 220.15 194.13 222.81 188.21"/><polygon class="cls-5" points="228.44 188.23 232.3 188.22 231.45 194.14 225.81 194.14 228.44 188.23"/><polygon class="cls-6" points="232.19 188.27 237.94 188.3 237.47 194.2 231.45 194.14 232.19 188.27"/><polygon class="cls-5" points="237.55 188.21 242.76 188.21 242.76 194.15 237.1 194.13 237.55 188.21"/><polygon class="cls-6" points="242.75 188.23 248.33 188.21 248.38 194.15 242.79 194.18 242.75 188.23"/><polygon class="cls-5" points="248.33 188.21 251.93 188.21 254.06 194.15 248.4 194.13 248.33 188.21"/><polygon class="cls-6" points="251.9 188.21 257.2 188.23 259.7 194.16 254.07 194.16 251.9 188.21"/><polygon class="cls-5" points="257.18 188.23 261.84 188.26 265.34 194.17 259.68 194.16 257.18 188.23"/><polygon class="cls-6" points="261.84 188.26 266.44 188.24 271.01 194.19 265.35 194.19 261.84 188.26"/><polygon class="cls-6" points="215.56 188.26 208.85 194.11 214.45 194.18 219.13 188.26 215.56 188.26"/><path class="cls-7" d="M410.13,265.58a2.82,2.82,0,0,0,5.65,0Z" transform="translate(-201.28 -71.45)"/><path class="cls-8" d="M415.78,265.58a2.82,2.82,0,0,0,5.65,0Z" transform="translate(-201.28 -71.45)"/><path class="cls-7" d="M421.43,265.58a2.82,2.82,0,0,0,5.65,0Z" transform="translate(-201.28 -71.45)"/><path class="cls-8" d="M427.08,265.58a2.82,2.82,0,0,0,5.65,0Z" transform="translate(-201.28 -71.45)"/><path class="cls-7" d="M432.73,265.58a2.82,2.82,0,0,0,5.65,0Z" transform="translate(-201.28 -71.45)"/><path class="cls-8" d="M438.38,265.59a2.82,2.82,0,0,0,5.65,0Z" transform="translate(-201.28 -71.45)"/><path class="cls-7" d="M444,265.59a2.82,2.82,0,0,0,5.65,0Z" transform="translate(-201.28 -71.45)"/><path class="cls-8" d="M449.69,265.61a2.82,2.82,0,0,0,5.65,0Z" transform="translate(-201.28 -71.45)"/><path class="cls-7" d="M455.34,265.61a2.82,2.82,0,0,0,5.65,0Z" transform="translate(-201.28 -71.45)"/><path class="cls-8" d="M461,265.61a2.82,2.82,0,0,0,5.65,0Z" transform="translate(-201.28 -71.45)"/><path class="cls-7" d="M466.64,265.61a2.82,2.82,0,0,0,5.65,0Z" transform="translate(-201.28 -71.45)"/><rect class="cls-4" x="213.37" y="185.85" width="53.77" height="2.47"/><polygon class="cls-9" points="243.48 165.6 243.45 165.62 225.07 176.5 246.53 176.5 243.48 165.6"/><circle class="cls-10" cx="450.31" cy="240.67" r="7.72" transform="translate(-248.95 56.48) rotate(-15.37)"/><path class="cls-7" d="M455.43,247a3.72,3.72,0,0,0,.35-.39,9.55,9.55,0,0,0,.87-1.19,3.16,3.16,0,0,0,.31-.68c1.91-3.74,1.46-7.7-2.42-10.84-4.44-3.59-9.53.49-9.53.49h0c-.69.55-2.37,2-2.36,3.14,0,1.44,2.46.1,2.55,1.09s-.79.83-1.9,1.79-2.33,1.55-2,2.44.66.54,1.68.59,2.48-.72,3.18.36.39,1.67,1,1.76,1.65-.2,2.93-.15,1.86.83,1.36,1.4-1.22.59-1,1.28S453.13,249.35,455.43,247Z" transform="translate(-201.28 -71.45)"/><polygon class="cls-5" points="251.99 161.56 252.03 162.15 252.28 162.29 252.57 162.27 252.66 161.83 252.56 161.47 251.99 161.56"/><polygon class="cls-5" points="249.65 163.49 250.04 163.93 250.32 163.89 250.54 163.69 250.34 163.29 250.04 163.06 249.65 163.49"/><polygon class="cls-5" points="251.93 164.18 252.06 164.76 252.33 164.86 252.62 164.79 252.64 164.34 252.49 164 251.93 164.18"/><polygon class="cls-5" points="253.68 164.33 253.66 164.92 253.89 165.09 254.19 165.09 254.32 164.66 254.25 164.29 253.68 164.33"/><polygon class="cls-5" points="254.87 166.41 254.57 166.91 254.69 167.17 254.94 167.32 255.27 167 255.39 166.65 254.87 166.41"/><polygon class="cls-5" points="252.5 166.61 251.98 166.89 251.95 167.17 252.09 167.43 252.53 167.33 252.82 167.1 252.5 166.61"/><polygon class="cls-5" points="252.95 169.47 252.37 169.61 252.28 169.88 252.35 170.17 252.8 170.18 253.14 170.02 252.95 169.47"/><polygon class="cls-5" points="255.08 169.94 254.51 169.78 254.29 169.97 254.22 170.25 254.6 170.48 254.98 170.51 255.08 169.94"/><polygon class="cls-5" points="256.65 167.28 256.36 167.78 256.48 168.04 256.73 168.19 257.06 167.88 257.18 167.52 256.65 167.28"/><polygon class="cls-5" points="256.87 170.81 256.3 170.65 256.08 170.84 256 171.12 256.39 171.35 256.77 171.38 256.87 170.81"/><polygon class="cls-5" points="249.2 166.61 248.9 167.12 249.02 167.38 249.28 167.53 249.6 167.21 249.72 166.86 249.2 166.61"/><polygon class="cls-5" points="249.36 170.5 248.78 170.65 248.69 170.91 248.76 171.2 249.21 171.21 249.55 171.05 249.36 170.5"/><rect class="cls-11" x="217.02" y="198.88" width="14.16" height="17.4"/><rect class="cls-12" x="217.81" y="199.56" width="12.58" height="15.99"/><rect class="cls-11" x="249.75" y="198.88" width="14.16" height="17.4"/><rect class="cls-12" x="250.54" y="199.56" width="12.58" height="15.99"/><rect class="cls-11" x="233.22" y="199.58" width="14.23" height="24.22"/><rect class="cls-12" x="234.19" y="200.68" width="12.23" height="23.12"/><rect class="cls-11" x="235.47" y="202.72" width="1.45" height="2.39"/><rect class="cls-11" x="237.15" y="202.72" width="1.45" height="2.39"/><rect class="cls-11" x="235.47" y="205.31" width="1.45" height="2.39"/><rect class="cls-11" x="237.15" y="205.31" width="1.45" height="2.39"/><rect class="cls-11" x="235.47" y="207.88" width="1.45" height="2.39"/><rect class="cls-11" x="237.15" y="207.88" width="1.45" height="2.39"/><rect class="cls-11" x="235.47" y="210.47" width="1.45" height="2.39"/><rect class="cls-11" x="237.15" y="210.47" width="1.45" height="2.39"/><rect class="cls-11" x="235.47" y="213.07" width="1.45" height="2.39"/><rect class="cls-11" x="237.15" y="213.06" width="1.45" height="2.39"/><rect class="cls-11" x="241.86" y="202.72" width="1.45" height="2.39"/><rect class="cls-11" x="243.54" y="202.72" width="1.45" height="2.39"/><rect class="cls-11" x="241.86" y="205.31" width="1.45" height="2.39"/><rect class="cls-11" x="243.54" y="205.31" width="1.45" height="2.39"/><rect class="cls-11" x="241.86" y="207.88" width="1.45" height="2.39"/><rect class="cls-11" x="243.54" y="207.88" width="1.45" height="2.39"/><rect class="cls-11" x="241.86" y="210.47" width="1.45" height="2.39"/><rect class="cls-11" x="243.54" y="210.47" width="1.45" height="2.39"/><rect class="cls-11" x="241.86" y="213.07" width="1.45" height="2.39"/><rect class="cls-11" x="243.54" y="213.06" width="1.45" height="2.39"/><text class="cls-13" transform="translate(227.14 183.91)">ice cream</text><rect class="cls-11" x="36.28" y="223.67" width="338.37" height="4.77" rx="2.29" ry="2.29"/><rect class="cls-3" x="26.44" y="228.28" width="360.46" height="40.44" rx="20.22" ry="20.22"/><rect class="cls-14" x="19.29" y="194.46" width="50.01" height="29.2"/><rect class="cls-14" x="19.59" y="178.99" width="49.39" height="7.35"/><rect class="cls-15" x="17.79" y="177.03" width="53.02" height="2.38"/><polygon class="cls-16" points="18.89 194.44 24.47 194.43 27.09 188.59 23.48 188.63 18.89 194.44"/><polygon class="cls-3" points="27.09 188.59 32.69 188.6 30.03 194.44 24.48 194.43 27.09 188.59"/><polygon class="cls-16" points="32.65 188.61 36.45 188.6 35.62 194.44 30.05 194.44 32.65 188.61"/><polygon class="cls-3" points="36.35 188.65 42.01 188.68 41.55 194.5 35.61 194.44 36.35 188.65"/><polygon class="cls-16" points="41.63 188.59 46.76 188.59 46.77 194.45 41.19 194.43 41.63 188.59"/><polygon class="cls-3" points="46.76 188.61 52.26 188.59 52.31 194.45 46.79 194.47 46.76 188.61"/><polygon class="cls-16" points="52.26 188.59 55.81 188.59 57.91 194.44 52.32 194.43 52.26 188.59"/><polygon class="cls-3" points="55.78 188.59 61.01 188.61 63.47 194.46 57.92 194.46 55.78 188.59"/><polygon class="cls-16" points="60.99 188.61 65.58 188.64 69.03 194.47 63.45 194.46 60.99 188.61"/><polygon class="cls-3" points="65.58 188.64 70.11 188.63 74.62 194.48 69.04 194.48 65.58 188.64"/><polygon class="cls-3" points="19.94 188.64 13.33 194.41 18.86 194.48 23.46 188.64 19.94 188.64"/><path class="cls-4" d="M214.61,265.88a2.78,2.78,0,0,0,5.57,0Z" transform="translate(-201.28 -71.45)"/><path class="cls-17" d="M220.18,265.88a2.78,2.78,0,0,0,5.57,0Z" transform="translate(-201.28 -71.45)"/><path class="cls-4" d="M225.75,265.88a2.78,2.78,0,0,0,5.57,0Z" transform="translate(-201.28 -71.45)"/><path class="cls-17" d="M231.32,265.88a2.78,2.78,0,0,0,5.57,0Z" transform="translate(-201.28 -71.45)"/><path class="cls-4" d="M236.9,265.88a2.78,2.78,0,0,0,5.57,0Z" transform="translate(-201.28 -71.45)"/><path class="cls-17" d="M242.47,265.89a2.78,2.78,0,0,0,5.57,0Z" transform="translate(-201.28 -71.45)"/><path class="cls-4" d="M248,265.89a2.78,2.78,0,0,0,5.57,0Z" transform="translate(-201.28 -71.45)"/><path class="cls-17" d="M253.61,265.9a2.78,2.78,0,0,0,5.57,0Z" transform="translate(-201.28 -71.45)"/><path class="cls-4" d="M259.19,265.9a2.78,2.78,0,0,0,5.57,0Z" transform="translate(-201.28 -71.45)"/><path class="cls-17" d="M264.75,265.91a2.78,2.78,0,0,0,5.57,0Z" transform="translate(-201.28 -71.45)"/><path class="cls-4" d="M270.33,265.91a2.78,2.78,0,0,0,5.57,0Z" transform="translate(-201.28 -71.45)"/><rect class="cls-15" x="17.79" y="186.26" width="53.02" height="2.44"/><rect class="cls-17" x="21.38" y="199.11" width="13.97" height="17.15"/><rect class="cls-18" x="22.17" y="199.78" width="12.4" height="15.76"/><rect class="cls-17" x="37.36" y="199.8" width="14.03" height="23.88"/><rect class="cls-16" x="38.32" y="200.89" width="12.06" height="22.79"/><rect class="cls-18" x="39.58" y="202.9" width="1.43" height="2.36"/><rect class="cls-18" x="41.23" y="202.9" width="1.43" height="2.36"/><rect class="cls-18" x="39.58" y="205.45" width="1.43" height="2.36"/><rect class="cls-18" x="41.23" y="205.45" width="1.43" height="2.36"/><rect class="cls-18" x="39.58" y="207.98" width="1.43" height="2.36"/><rect class="cls-18" x="41.23" y="207.98" width="1.43" height="2.36"/><rect class="cls-18" x="39.58" y="210.54" width="1.43" height="2.36"/><rect class="cls-18" x="41.23" y="210.54" width="1.43" height="2.36"/><rect class="cls-18" x="39.58" y="213.1" width="1.43" height="2.36"/><rect class="cls-18" x="41.23" y="213.1" width="1.43" height="2.36"/><rect class="cls-18" x="45.88" y="202.9" width="1.43" height="2.36"/><rect class="cls-18" x="47.54" y="202.9" width="1.43" height="2.36"/><rect class="cls-18" x="45.88" y="205.45" width="1.43" height="2.36"/><rect class="cls-18" x="47.54" y="205.45" width="1.43" height="2.36"/><rect class="cls-18" x="45.88" y="207.98" width="1.43" height="2.36"/><rect class="cls-18" x="47.54" y="207.98" width="1.43" height="2.36"/><rect class="cls-18" x="45.88" y="210.54" width="1.43" height="2.36"/><rect class="cls-18" x="47.54" y="210.54" width="1.43" height="2.36"/><rect class="cls-18" x="45.88" y="213.1" width="1.43" height="2.36"/><rect class="cls-18" x="47.54" y="213.1" width="1.43" height="2.36"/><text class="cls-19" transform="translate(36.48 184.35)">f<tspan class="cls-20" x="2.19" y="0">r</tspan><tspan x="5.27" y="0">uits</tspan></text><rect class="cls-17" x="21.37" y="204.89" width="13.95" height="0.75"/><rect class="cls-17" x="53.19" y="199.11" width="13.97" height="17.15"/><rect class="cls-18" x="53.97" y="199.79" width="12.4" height="15.76"/><rect class="cls-17" x="53.17" y="204.9" width="13.95" height="0.75"/><rect class="cls-17" x="43.86" y="200.13" width="0.82" height="23.55"/><path class="cls-16" d="M252.78,242.12a7.83,7.83,0,0,1,3.09,6.37h-20s-.27-4.42,3.09-6.37Z" transform="translate(-201.28 -71.45)"/><path class="cls-15" d="M252.67,242.1s2.86-5.06,4.41-5.61c0,0-1.88-.63-5.23,1.58,0,0,.24-3.64.9-4.43,0,0-2.37-.4-4.41,2.93l-2.53-3.88s-2,1.82-2,3.48l-2.94-2.61a11.48,11.48,0,0,0-.49,3.4,7.27,7.27,0,0,0-5.88.63s3.92,1.66,4.41,4.59Z" transform="translate(-201.28 -71.45)"/><path class="cls-21" d="M236.78,245.07c1.52,0-.19,0,1.34-.25a3.67,3.67,0,0,1,4,0l.71.29a3.81,3.81,0,0,0,2.71-.26,4.06,4.06,0,0,1,3.64.38,2.94,2.94,0,0,0,1.08.42c1.64.11,2.13-1.94,4.13-1.49.11,0,.16-.15,0-.18-1.07-.24-1.39.08-2.3.5a3.77,3.77,0,0,1-3.9-.06,2.93,2.93,0,0,0-1.11-.42c-.88,0-.3.08-1.16.32a3.13,3.13,0,0,1-3.08.62l-1.36-.58c-2.17-.75-2.55.55-4.72.53a.09.09,0,0,0,0,.18Z" transform="translate(-201.28 -71.45)"/><path class="cls-21" d="M236,247.68c1.65,0-.19,0,1.47-.25,3.24-.51,2.68-.38,5.16.3a3.88,3.88,0,0,0,3.26-.45c2.33-1.08,3,.91,5,1,1.77.08,2.26-2,4.47-1.49.12,0,.17-.16.05-.19a3,3,0,0,0-2.53.5c-1.58,1-2.34.94-4,.12a4,4,0,0,0-1.59-.6,1.89,1.89,0,0,0-.91.19,6.52,6.52,0,0,1-4.83.32,5.31,5.31,0,0,0-2.32-.49c-1.13.1-2,.89-3.24.88a.1.1,0,0,0,0,.19Z" transform="translate(-201.28 -71.45)"/><rect class="cls-9" x="81.71" y="189.49" width="49.3" height="4.29"/><rect class="cls-18" x="81.73" y="193.74" width="49.3" height="4.29"/><rect class="cls-9" x="81.72" y="198.04" width="49.3" height="4.29"/><rect class="cls-18" x="81.73" y="202.29" width="49.3" height="4.29"/><rect class="cls-9" x="81.78" y="206.59" width="49.3" height="4.29"/><rect class="cls-18" x="81.8" y="210.84" width="49.3" height="4.29"/><rect class="cls-9" x="81.81" y="215.12" width="49.3" height="4.29"/><rect class="cls-18" x="81.83" y="219.37" width="49.3" height="4.29"/><rect class="cls-22" x="80.13" y="186.37" width="52.62" height="3.11"/><rect class="cls-3" x="82.92" y="198.44" width="14.35" height="17.63"/><rect class="cls-23" x="83.73" y="199.13" width="12.74" height="16.2"/><rect class="cls-3" x="99.34" y="199.15" width="14.42" height="24.54"/><rect class="cls-23" x="100.32" y="200.27" width="12.4" height="23.43"/><rect class="cls-18" x="101.62" y="202.34" width="1.47" height="2.42"/><rect class="cls-18" x="103.32" y="202.34" width="1.47" height="2.42"/><rect class="cls-18" x="101.62" y="204.96" width="1.47" height="2.42"/><rect class="cls-18" x="103.32" y="204.96" width="1.47" height="2.42"/><rect class="cls-18" x="101.62" y="207.56" width="1.47" height="2.42"/><rect class="cls-18" x="103.32" y="207.56" width="1.47" height="2.42"/><rect class="cls-18" x="101.62" y="210.19" width="1.47" height="2.42"/><rect class="cls-18" x="103.32" y="210.19" width="1.47" height="2.42"/><rect class="cls-18" x="101.62" y="212.82" width="1.47" height="2.42"/><rect class="cls-18" x="103.32" y="212.82" width="1.47" height="2.42"/><rect class="cls-18" x="108.09" y="202.34" width="1.47" height="2.42"/><rect class="cls-18" x="109.8" y="202.34" width="1.47" height="2.42"/><rect class="cls-18" x="108.09" y="204.96" width="1.47" height="2.42"/><rect class="cls-18" x="109.8" y="204.96" width="1.47" height="2.42"/><rect class="cls-18" x="108.09" y="207.56" width="1.47" height="2.42"/><rect class="cls-18" x="109.8" y="207.56" width="1.47" height="2.42"/><rect class="cls-18" x="108.09" y="210.19" width="1.47" height="2.42"/><rect class="cls-18" x="109.8" y="210.19" width="1.47" height="2.42"/><rect class="cls-18" x="108.09" y="212.82" width="1.47" height="2.42"/><rect class="cls-18" x="109.8" y="212.82" width="1.47" height="2.42"/><rect class="cls-3" x="82.91" y="204.39" width="14.33" height="0.77"/><rect class="cls-3" x="115.6" y="198.45" width="14.35" height="17.63"/><rect class="cls-23" x="116.41" y="199.14" width="12.74" height="16.2"/><rect class="cls-3" x="115.59" y="204.39" width="14.33" height="0.77"/><rect class="cls-3" x="106.01" y="199.49" width="0.84" height="24.2"/><rect class="cls-3" x="81.72" y="176.56" width="49.33" height="9.85" rx="3.47" ry="3.47"/><rect class="cls-18" x="82.57" y="177.51" width="47.5" height="8.11" rx="3.09" ry="3.09"/><text class="cls-24" transform="translate(89.4 183.07)">boulangerie</text><path class="cls-10" d="M290.86,246.36s-.46,2,4.85,2.82a42.9,42.9,0,0,0,13.38-.28c2.44-.46,5.47-1.06,6.85-2.58s1.19-2.59,1.19-2.59Z" transform="translate(-201.28 -71.45)"/><path class="cls-9" d="M290.86,246.36s.23-2.67,2.29-3.16c0,0,2.47-1.9,5-1.68a12.19,12.19,0,0,1,8.38-1.29,9.27,9.27,0,0,1,6.79.4s3.51.5,3.86,3.12A26.93,26.93,0,0,1,290.86,246.36Z" transform="translate(-201.28 -71.45)"/><path class="cls-10" d="M292.31,243.57a2.15,2.15,0,0,1,.84-.37,3.33,3.33,0,0,1,1.51,2S293.42,243.67,292.31,243.57Z" transform="translate(-201.28 -71.45)"/><path class="cls-10" d="M297.15,241.51a3.26,3.26,0,0,1,1,0c.28.09,1.54,1.36,1.28,3.94A8.48,8.48,0,0,0,297.15,241.51Z" transform="translate(-201.28 -71.45)"/><path class="cls-10" d="M305.51,240.07a4.74,4.74,0,0,1,1,.15,2.46,2.46,0,0,1,.45,2.73S306.79,240.82,305.51,240.07Z" transform="translate(-201.28 -71.45)"/><path class="cls-10" d="M312.53,240.32a2,2,0,0,1,.74.29,1.86,1.86,0,0,1,.06,2S313.5,240.81,312.53,240.32Z" transform="translate(-201.28 -71.45)"/><path class="cls-10" d="M308.7,248s-.76,2.75.37,2.8,1.79-1.27,1.79-1.27a2.92,2.92,0,0,0,2-.87,4.54,4.54,0,0,0,2.94-.53s2.06,1.45,3.79.07A2.25,2.25,0,0,0,322,249s1.33,1.86,2.11,1.71,1.34-3.42-.57-4.9c0,0-.68-3.07-3.4-3.71,0,0-4.23-3.11-7.43-.23a2.5,2.5,0,0,0-2.29,2.2A5.34,5.34,0,0,0,308.7,248Z" transform="translate(-201.28 -71.45)"/><path class="cls-9" d="M310.19,244.33s.08-.5.32-.52,4.59,1.28,2.7,4.84l-.33,0S314.57,245.13,310.19,244.33Z" transform="translate(-201.28 -71.45)"/><path class="cls-9" d="M312.67,241.87s-.12-.86.67-.71,5.83,2.64,2.78,7.11l-.32-.17S318.27,243.09,312.67,241.87Z" transform="translate(-201.28 -71.45)"/><path class="cls-9" d="M320.06,242.06s.11-.16.47.12,2.52,3.06-.47,6.44c0,0-.5-.18-.46-.47A4.5,4.5,0,0,0,320.06,242.06Z" transform="translate(-201.28 -71.45)"/><path class="cls-9" d="M323.55,245.82s.28-.09.41.35.17,1.57-1.81,3c0,0-.38,0-.21-.23S324.24,247.1,323.55,245.82Z" transform="translate(-201.28 -71.45)"/><path class="cls-9" d="M308.71,248a1.75,1.75,0,0,1,2.13,1.51s.71.24.72-.11S310.21,246.92,308.71,248Z" transform="translate(-201.28 -71.45)"/><path class="cls-10" d="M495.45,216.08H613.17s-1.77-16.82-20.36-9.74c0,0-10.18-20.8-32.75-9.74,0,0-29.16-29.94-55.41-4.24C504.65,192.37,495.87,199.79,495.45,216.08Z" transform="translate(-201.28 -71.45)"/><path class="cls-10" d="M316.8,215.14H235.55s1.22-11.61,14.05-6.72c0,0,7-14.36,22.6-6.72,0,0,20.12-20.67,38.24-2.93C310.45,198.78,316.51,203.9,316.8,215.14Z" transform="translate(-201.28 -71.45)"/><path class="cls-18" d="M343.6,260l.15-7.14s25.29-16.93,58.58.17v7Z" transform="translate(-201.28 -71.45)"/><rect class="cls-3" x="141.89" y="193.61" width="59.18" height="30.07"/><rect class="cls-18" x="140.54" y="190.76" width="62.7" height="2.84"/><path class="cls-3" d="M343.56,262.19l.15-6.36s25.31-15.09,58.62.15v6.25Z" transform="translate(-201.28 -71.45)"/><path class="cls-25" d="M353.87,271.34v-.26a4,4,0,0,0-3.94-3.94h0a4,4,0,0,0-3.94,3.94v.26h0v17.18h7.91V271.34Z" transform="translate(-201.28 -71.45)"/><rect class="cls-6" x="148.26" y="195.64" width="0.79" height="21.4" rx="0.28" ry="0.28"/><rect class="cls-6" x="349.51" y="274.03" width="0.78" height="7.93" rx="0.17" ry="0.17" transform="translate(-129.37 556.45) rotate(-90)"/><rect class="cls-6" x="349.53" y="268.02" width="0.78" height="7.93" rx="0.17" ry="0.17" transform="translate(-123.34 550.46) rotate(-90)"/><rect class="cls-6" x="349.53" y="279.82" width="0.78" height="7.93" rx="0.17" ry="0.17" transform="translate(-135.14 562.26) rotate(-90)"/><path class="cls-6" d="M349.85,267.52c0,.34.32,10.77,3.8,10.1l.07-5.24.15-2.31-.78-1.26-1.26-1.17-1.5-.27Z" transform="translate(-201.28 -71.45)"/><path class="cls-6" d="M349.93,267.13s.36,10-3.71,10.6l-.1-6.6.47-1.92,1.31-1.45Z" transform="translate(-201.28 -71.45)"/><path class="cls-25" d="M363.72,271.33v-.26a4,4,0,0,0-3.94-3.94h0a4,4,0,0,0-3.94,3.94v.26h0v17.18h7.91V271.33Z" transform="translate(-201.28 -71.45)"/><rect class="cls-6" x="158.11" y="195.63" width="0.79" height="21.4" rx="0.28" ry="0.28"/><rect class="cls-6" x="359.36" y="274.02" width="0.78" height="7.93" rx="0.17" ry="0.17" transform="translate(-119.51 566.29) rotate(-90)"/><rect class="cls-6" x="359.38" y="268.01" width="0.78" height="7.93" rx="0.17" ry="0.17" transform="translate(-113.48 560.3) rotate(-90)"/><rect class="cls-6" x="359.38" y="279.81" width="0.78" height="7.93" rx="0.17" ry="0.17" transform="translate(-125.28 572.1) rotate(-90)"/><path class="cls-6" d="M359.7,267.51c0,.34.32,10.77,3.8,10.1l.07-5.24.15-2.31-.78-1.26-1.26-1.17-1.5-.27Z" transform="translate(-201.28 -71.45)"/><path class="cls-6" d="M359.78,267.12s.36,10-3.71,10.6l-.1-6.6.47-1.92,1.31-1.45Z" transform="translate(-201.28 -71.45)"/><path class="cls-25" d="M389.7,271.45v-.26a4,4,0,0,0-3.94-3.94h0a4,4,0,0,0-3.94,3.94v.26h0v17.18h7.91V271.45Z" transform="translate(-201.28 -71.45)"/><rect class="cls-6" x="184.09" y="195.76" width="0.79" height="21.4" rx="0.28" ry="0.28"/><rect class="cls-6" x="385.34" y="274.15" width="0.78" height="7.93" rx="0.17" ry="0.17" transform="translate(-93.66 592.4) rotate(-90)"/><rect class="cls-6" x="385.36" y="268.14" width="0.78" height="7.93" rx="0.17" ry="0.17" transform="translate(-87.63 586.41) rotate(-90)"/><rect class="cls-6" x="385.36" y="279.94" width="0.78" height="7.93" rx="0.17" ry="0.17" transform="translate(-99.43 598.2) rotate(-90)"/><path class="cls-6" d="M385.68,267.64c0,.34.32,10.77,3.8,10.1l.07-5.24.15-2.31-.78-1.26-1.26-1.17-1.5-.27Z" transform="translate(-201.28 -71.45)"/><path class="cls-6" d="M385.75,267.25s.36,10-3.71,10.6l-.1-6.6.47-1.92,1.31-1.45Z" transform="translate(-201.28 -71.45)"/><path class="cls-25" d="M399.55,271.44v-.26a4,4,0,0,0-3.94-3.94h0a4,4,0,0,0-3.94,3.94v.26h0v17.18h7.91V271.44Z" transform="translate(-201.28 -71.45)"/><rect class="cls-6" x="193.94" y="195.75" width="0.79" height="21.4" rx="0.28" ry="0.28"/><rect class="cls-6" x="395.19" y="274.14" width="0.78" height="7.93" rx="0.17" ry="0.17" transform="translate(-83.8 602.24) rotate(-90)"/><rect class="cls-6" x="395.21" y="268.13" width="0.78" height="7.93" rx="0.17" ry="0.17" transform="translate(-77.77 596.25) rotate(-90)"/><rect class="cls-6" x="395.21" y="279.93" width="0.78" height="7.93" rx="0.17" ry="0.17" transform="translate(-89.57 608.05) rotate(-90)"/><path class="cls-6" d="M395.53,267.63c0,.34.32,10.77,3.8,10.1l.07-5.24.15-2.31-.78-1.26-1.26-1.17-1.5-.27Z" transform="translate(-201.28 -71.45)"/><path class="cls-6" d="M395.6,267.24s.36,10-3.71,10.6l-.1-6.6.47-1.92,1.31-1.45Z" transform="translate(-201.28 -71.45)"/><rect class="cls-6" x="163.9" y="197.94" width="15.12" height="25.74"/><rect class="cls-23" x="164.93" y="199.1" width="13" height="24.57"/><rect class="cls-18" x="166.29" y="201.28" width="1.54" height="2.54"/><rect class="cls-18" x="168.08" y="201.27" width="1.54" height="2.54"/><rect class="cls-18" x="166.29" y="204.03" width="1.54" height="2.54"/><rect class="cls-18" x="168.08" y="204.03" width="1.54" height="2.54"/><rect class="cls-18" x="166.29" y="206.76" width="1.54" height="2.54"/><rect class="cls-18" x="168.08" y="206.75" width="1.54" height="2.54"/><rect class="cls-18" x="166.29" y="209.51" width="1.54" height="2.54"/><rect class="cls-18" x="168.08" y="209.51" width="1.54" height="2.54"/><rect class="cls-18" x="166.29" y="212.27" width="1.54" height="2.54"/><rect class="cls-18" x="168.08" y="212.27" width="1.54" height="2.54"/><rect class="cls-18" x="173.08" y="201.28" width="1.54" height="2.54"/><rect class="cls-18" x="174.87" y="201.27" width="1.54" height="2.54"/><rect class="cls-18" x="173.08" y="204.03" width="1.54" height="2.54"/><rect class="cls-18" x="174.87" y="204.03" width="1.54" height="2.54"/><rect class="cls-18" x="173.08" y="206.76" width="1.54" height="2.54"/><rect class="cls-18" x="174.87" y="206.75" width="1.54" height="2.54"/><rect class="cls-18" x="173.08" y="209.51" width="1.54" height="2.54"/><rect class="cls-18" x="174.87" y="209.51" width="1.54" height="2.54"/><rect class="cls-18" x="173.08" y="212.27" width="1.54" height="2.54"/><rect class="cls-18" x="174.87" y="212.27" width="1.54" height="2.54"/><rect class="cls-6" x="170.9" y="198.29" width="0.88" height="25.38"/><text class="cls-26" transform="translate(157.73 186.62)">b<tspan class="cls-27" x="3.5" y="0">r</tspan><tspan x="6.4" y="0">asserie</tspan><tspan class="cls-28" x="26.7" y="0"> </tspan></text><rect class="cls-12" x="280" y="192.77" width="45.21" height="30.87"/><rect class="cls-7" x="280.01" y="216.31" width="45.2" height="7.36"/><rect class="cls-11" x="279.97" y="216.33" width="3.13" height="1.22"/><rect class="cls-11" x="283.45" y="216.34" width="3.08" height="1.22"/><rect class="cls-11" x="295.27" y="220.89" width="4.25" height="1.22"/><rect class="cls-11" x="279.99" y="222.47" width="3.09" height="1.22"/><rect class="cls-11" x="283.44" y="222.46" width="2.24" height="1.22"/><rect class="cls-11" x="295.27" y="222.46" width="1.94" height="1.22"/><rect class="cls-11" x="297.54" y="222.46" width="3.46" height="1.22"/><rect class="cls-11" x="301.41" y="222.45" width="3.85" height="1.22"/><rect class="cls-11" x="305.64" y="222.44" width="4.19" height="1.22"/><rect class="cls-11" x="310.25" y="222.45" width="3.39" height="1.22"/><rect class="cls-11" x="314.07" y="222.44" width="3.8" height="1.22"/><rect class="cls-11" x="318.26" y="222.45" width="4.21" height="1.22"/><rect class="cls-11" x="322.88" y="222.46" width="2.29" height="1.22"/><rect class="cls-11" x="299.89" y="220.89" width="3.45" height="1.22"/><rect class="cls-11" x="303.72" y="220.89" width="3.82" height="1.22"/><rect class="cls-11" x="307.92" y="220.9" width="4.25" height="1.22"/><rect class="cls-11" x="312.54" y="220.9" width="3.43" height="1.22"/><rect class="cls-11" x="316.37" y="220.9" width="3.44" height="1.22"/><rect class="cls-11" x="320.2" y="220.9" width="4.19" height="1.22"/><rect class="cls-11" x="324.78" y="220.92" width="0.38" height="1.22"/><rect class="cls-11" x="295.31" y="219.41" width="2.31" height="1.22"/><rect class="cls-11" x="297.97" y="219.41" width="3.45" height="1.22"/><rect class="cls-11" x="301.8" y="219.38" width="3.84" height="1.22"/><rect class="cls-11" x="306.01" y="219.41" width="4.18" height="1.22"/><rect class="cls-11" x="310.6" y="219.4" width="3.46" height="1.22"/><rect class="cls-11" x="314.44" y="219.4" width="3.44" height="1.22"/><rect class="cls-11" x="318.27" y="219.39" width="4.21" height="1.22"/><rect class="cls-11" x="322.87" y="219.38" width="1.53" height="1.22"/><rect class="cls-11" x="324.78" y="219.39" width="0.38" height="1.22"/><rect class="cls-11" x="295.29" y="217.85" width="4.2" height="1.22"/><rect class="cls-11" x="299.89" y="217.85" width="3.46" height="1.22"/><rect class="cls-11" x="303.71" y="217.85" width="3.84" height="1.22"/><rect class="cls-11" x="307.93" y="217.86" width="4.2" height="1.22"/><rect class="cls-11" x="312.54" y="217.85" width="3.43" height="1.22"/><rect class="cls-11" x="316.34" y="217.85" width="3.46" height="1.22"/><rect class="cls-11" x="320.2" y="217.85" width="4.2" height="1.22"/><rect class="cls-11" x="324.77" y="217.84" width="0.38" height="1.22"/><rect class="cls-11" x="295.29" y="216.32" width="2.31" height="1.22"/><rect class="cls-11" x="297.98" y="216.31" width="3.44" height="1.22"/><rect class="cls-11" x="301.81" y="216.31" width="3.82" height="1.22"/><rect class="cls-11" x="306.01" y="216.29" width="4.21" height="1.22"/><rect class="cls-11" x="310.61" y="216.29" width="3.45" height="1.22"/><rect class="cls-11" x="314.44" y="216.29" width="3.84" height="1.22"/><rect class="cls-11" x="318.65" y="216.3" width="3.83" height="1.22"/><rect class="cls-11" x="322.88" y="216.32" width="2.3" height="1.22"/><rect class="cls-11" x="279.98" y="217.93" width="4.98" height="1.22"/><rect class="cls-11" x="285.35" y="217.94" width="4.92" height="1.22"/><rect class="cls-11" x="279.98" y="219.39" width="5.74" height="1.22"/><rect class="cls-11" x="279.99" y="220.9" width="4.98" height="1.22"/><rect class="cls-11" x="285.36" y="220.92" width="0.37" height="1.22"/><rect class="cls-7" x="285.37" y="198" width="10.9" height="25.68"/><rect class="cls-3" x="286.12" y="198.74" width="9.37" height="24.93"/><rect class="cls-7" x="288.33" y="202.06" width="5.23" height="8.25"/><rect class="cls-3" x="289.05" y="202.99" width="3.78" height="6.43"/><rect class="cls-7" x="288.33" y="212.28" width="5.23" height="8.25"/><rect class="cls-3" x="289.05" y="213.2" width="3.78" height="6.43"/><rect class="cls-4" x="278.91" y="190.99" width="47.33" height="1.85"/><rect class="cls-3" x="279.89" y="185.3" width="45.27" height="5.71"/><rect class="cls-7" x="298.48" y="197.73" width="25.26" height="16.89"/><rect class="cls-3" x="299.47" y="198.57" width="2.72" height="5.32"/><rect class="cls-3" x="302.56" y="198.54" width="5.37" height="5.32"/><rect class="cls-3" x="308.37" y="198.53" width="5.75" height="5.32"/><rect class="cls-3" x="314.48" y="198.51" width="5.73" height="5.32"/><rect class="cls-3" x="320.61" y="198.51" width="2.29" height="5.32"/><rect class="cls-3" x="299.52" y="204.24" width="5.37" height="9.58"/><rect class="cls-3" x="305.27" y="204.23" width="12.26" height="9.58"/><rect class="cls-3" x="317.95" y="204.22" width="4.96" height="9.58"/><polygon class="cls-7" points="277.97 185.31 327.3 185.4 322.78 176.63 282.4 176.53 277.97 185.31"/><text class="cls-29" transform="translate(292.28 189.44)">boucherie</text><path class="cls-11" d="M501.38,247.59a3,3,0,0,0-1.06,4c.57,1,1.81,1.78,4.34,1.58,6.08-.47,9.73-4.46,8.58-7.1S511.29,241.37,501.38,247.59Z" transform="translate(-201.28 -71.45)"/><path class="cls-6" d="M513.12,244.27" transform="translate(-201.28 -71.45)"/><path class="cls-12" d="M501.09,246.84a3,3,0,0,0-1.06,4c.57,1,1.81,1.78,4.34,1.58,6.08-.47,9.73-4.46,8.58-7.1S511,240.62,501.09,246.84Z" transform="translate(-201.28 -71.45)"/><path class="cls-11" d="M501.56,246.31a2.51,2.51,0,0,0-1,3.54c.55.87,1.74,1.56,4.18,1.38,5.86-.41,9.37-3.91,8.26-6.22S511.1,240.85,501.56,246.31Z" transform="translate(-201.28 -71.45)"/><path class="cls-30" d="M505.23,244.76a37.57,37.57,0,0,1,4.51,1.18s1.26-1,1.63-.07-.7,1.22-.7,1.22.22,1.41-.92,1.11-.59-.92-.59-.92L505,246.09Z" transform="translate(-201.28 -71.45)"/><path class="cls-12" d="M498.16,238.52s6.66.35,7.06,6-9.6,3.43-9.6,3.43S498.26,244.69,498.16,238.52Z" transform="translate(-201.28 -71.45)"/><path class="cls-11" d="M494.63,247.32s-1.09-6.17,2.73-8.45S496.77,251.35,494.63,247.32Z" transform="translate(-201.28 -71.45)"/><path class="cls-12" d="M495.06,246.08s-.77-4.35,1.93-6S496.57,248.93,495.06,246.08Z" transform="translate(-201.28 -71.45)"/><rect class="cls-18" x="338.28" y="189.5" width="49.3" height="4.29"/><rect class="cls-14" x="338.3" y="193.76" width="49.3" height="4.29"/><rect class="cls-18" x="338.29" y="198.05" width="49.3" height="4.29"/><rect class="cls-14" x="338.3" y="202.31" width="49.3" height="4.29"/><rect class="cls-18" x="338.35" y="206.6" width="49.3" height="4.29"/><rect class="cls-14" x="338.37" y="210.85" width="49.3" height="4.29"/><rect class="cls-18" x="338.38" y="215.13" width="49.3" height="4.29"/><rect class="cls-14" x="338.4" y="219.38" width="49.3" height="4.29"/><rect class="cls-15" x="336.7" y="186.39" width="52.62" height="3.11"/><rect class="cls-15" x="339.49" y="198.46" width="14.35" height="17.63"/><rect class="cls-17" x="340.29" y="199.15" width="12.74" height="16.2"/><rect class="cls-15" x="355.91" y="199.17" width="14.42" height="24.54"/><rect class="cls-17" x="356.89" y="200.28" width="12.4" height="23.43"/><rect class="cls-18" x="358.18" y="202.35" width="1.47" height="2.42"/><rect class="cls-18" x="359.89" y="202.35" width="1.47" height="2.42"/><rect class="cls-18" x="358.18" y="204.98" width="1.47" height="2.42"/><rect class="cls-18" x="359.89" y="204.98" width="1.47" height="2.42"/><rect class="cls-18" x="358.18" y="207.58" width="1.47" height="2.42"/><rect class="cls-18" x="359.89" y="207.58" width="1.47" height="2.42"/><rect class="cls-18" x="358.18" y="210.2" width="1.47" height="2.42"/><rect class="cls-18" x="359.89" y="210.2" width="1.47" height="2.42"/><rect class="cls-18" x="358.18" y="212.83" width="1.47" height="2.42"/><rect class="cls-18" x="359.89" y="212.83" width="1.47" height="2.42"/><rect class="cls-18" x="364.66" y="202.35" width="1.47" height="2.42"/><rect class="cls-18" x="366.37" y="202.35" width="1.47" height="2.42"/><rect class="cls-18" x="364.66" y="204.98" width="1.47" height="2.42"/><rect class="cls-18" x="366.37" y="204.98" width="1.47" height="2.42"/><rect class="cls-18" x="364.66" y="207.58" width="1.47" height="2.42"/><rect class="cls-18" x="366.37" y="207.58" width="1.47" height="2.42"/><rect class="cls-18" x="364.66" y="210.2" width="1.47" height="2.42"/><rect class="cls-18" x="366.37" y="210.2" width="1.47" height="2.42"/><rect class="cls-18" x="364.66" y="212.83" width="1.47" height="2.42"/><rect class="cls-18" x="366.37" y="212.83" width="1.47" height="2.42"/><rect class="cls-15" x="339.48" y="204.4" width="14.33" height="0.77"/><rect class="cls-15" x="372.17" y="198.46" width="14.35" height="17.63"/><rect class="cls-17" x="372.98" y="199.15" width="12.74" height="16.2"/><rect class="cls-15" x="372.16" y="204.4" width="14.33" height="0.77"/><rect class="cls-14" x="362.58" y="199.51" width="0.84" height="24.2"/><rect class="cls-14" x="338.25" y="179.05" width="49.39" height="7.35"/><rect class="cls-15" x="336.45" y="177.09" width="53.02" height="2.38"/><text class="cls-19" transform="translate(355 184.48)">sn<tspan class="cls-31" x="6.78" y="0">a</tspan><tspan class="cls-32" x="10.02" y="0">ck</tspan></text><polygon class="cls-11" points="351.02 160.27 352.11 177.13 361.06 177.19 362.01 160.37 351.02 160.27"/><rect class="cls-3" x="350.45" y="159.28" width="12.35" height="1.07" rx="0.53" ry="0.53"/><rect class="cls-7" x="355.9" y="153.13" width="1.61" height="5.89" rx="0.35" ry="0.35"/><rect class="cls-1" x="356.55" y="153.13" width="0.6" height="5.76" rx="0.12" ry="0.12"/><rect class="cls-3" x="351.23" y="158.52" width="10.87" height="0.76" rx="0.36" ry="0.36"/><circle class="cls-11" cx="351.82" cy="153.91" r="0.38"/><circle class="cls-11" cx="349.8" cy="155.87" r="0.24"/><polygon class="cls-3" points="351.42 166.47 361.83 163.69 361.49 169.71 351.82 172.72 351.42 166.47"/><path class="cls-16" d="M561.42,245.89s-.09,2.21,1.45,2.58,14.12.11,14.12.11a2.19,2.19,0,0,0,1.39-2.69Z" transform="translate(-201.28 -71.45)"/><rect class="cls-7" x="360" y="172.52" width="17.36" height="1.93" rx="0.92" ry="0.92"/><path class="cls-33" d="M562,243.16l15.76.15v.84h-.61s-.07.46-.38.36a.39.39,0,0,1-.23-.26.23.23,0,0,0-.22-.14l-1.76,0s.18,1.92-.4,2.26a.65.65,0,0,1-1-.58c0-.32,0-1.65,0-1.65h-2.91s.08,1.16-.6,1.12-.59-1.07-.59-1.07h-2s0,.93-.76.64c-.43-.17-.31-.88-.31-.88h-.87s-.37.75-.76,0H562Z" transform="translate(-201.28 -71.45)"/><rect class="cls-33" x="360.68" y="171.72" width="15.82" height="0.83"/><rect class="cls-10" x="368.53" y="170.85" width="7.84" height="0.87" rx="0.44" ry="0.44"/><rect class="cls-10" x="360.89" y="170.84" width="7.54" height="0.87" rx="0.43" ry="0.43"/><path class="cls-16" d="M561.82,242.34l16.11.12s1.71-2.6-1.59-5.25-7-5.44-13.49.39a5.87,5.87,0,0,0-1.41,1.89C561,240.42,560.76,241.62,561.82,242.34Z" transform="translate(-201.28 -71.45)"/><rect class="cls-34" x="571.6" y="237.4" width="0.7" height="0.3" rx="0.13" ry="0.13" transform="translate(134.21 -406.3) rotate(45)"/><rect class="cls-34" x="570.2" y="238.11" width="0.81" height="0.3" rx="0.14" ry="0.14" transform="translate(-66.43 -271.91) rotate(22.53)"/><rect class="cls-34" x="566.53" y="238.49" width="0.72" height="0.3" rx="0.13" ry="0.13" transform="translate(-226.09 335.14) rotate(-38.68)"/><rect class="cls-34" x="568.56" y="236.57" width="0.66" height="0.3" rx="0.13" ry="0.13" transform="translate(-224.45 335.97) rotate(-38.68)"/><rect class="cls-34" x="569.49" y="237.17" width="0.76" height="0.3" rx="0.13" ry="0.13" transform="translate(-224.61 336.72) rotate(-38.68)"/><rect class="cls-34" x="568.28" y="237.77" width="0.67" height="0.3" rx="0.13" ry="0.13" transform="translate(203.91 -427.85) rotate(51.92)"/><rect class="cls-34" x="566.52" y="236.81" width="0.77" height="0.3" rx="0.14" ry="0.14" transform="matrix(0.78, -0.62, 0.62, 0.78, -225.04, 334.78)"/><rect class="cls-34" x="565.2" y="237.65" width="0.83" height="0.3" rx="0.14" ry="0.14" transform="matrix(1, -0.08, 0.08, 1, -218.87, -24.28)"/><rect class="cls-12" x="207.46" y="254.48" width="0.81" height="14.37" rx="0.4" ry="0.4"/><circle class="cls-22" cx="409.14" cy="327.01" r="4.88" transform="translate(-308.13 165.63) rotate(-28.75)"/><rect class="cls-12" x="202.35" y="254.05" width="11.12" height="3.12" rx="0.81" ry="0.81"/><rect class="cls-5" x="230.94" y="254.48" width="0.81" height="14.37" rx="0.4" ry="0.4"/><circle class="cls-6" cx="432.62" cy="327.02" r="4.88" transform="translate(-305.23 176.92) rotate(-28.75)"/><rect class="cls-5" x="225.83" y="254.05" width="11.12" height="3.12" rx="0.81" ry="0.81"/><rect class="cls-14" x="254.15" y="254.52" width="0.81" height="14.37" rx="0.4" ry="0.4"/><circle class="cls-17" cx="455.83" cy="327.05" r="4.88" transform="translate(-302.39 188.09) rotate(-28.75)"/><rect class="cls-14" x="249.03" y="254.09" width="11.12" height="3.12" rx="0.81" ry="0.81"/><rect class="cls-11" x="277.63" y="254.52" width="0.81" height="14.37" rx="0.4" ry="0.4"/><circle class="cls-12" cx="479.31" cy="327.06" r="4.88" transform="translate(-299.5 199.38) rotate(-28.75)"/><rect class="cls-11" x="272.52" y="254.09" width="11.12" height="3.12" rx="0.81" ry="0.81"/><circle class="cls-11" cx="300.63" cy="372.27" r="67.77"/><path class="cls-10" d="M434.81,454.07a30.15,30.15,0,0,0,6.61,14.87c3,3.54,6.7,6.35,9.64,3.4,5.89-5.89,5.33-15.14,10.1-15.71s5.61-.84,10.94,15.14,5.33,19.07,11.78,17.39,7.29-15.14,10.94-17.39,7.29-2.8,8.41,4.77,3.09,21.88,7.85,21.88,7.57-6.45,9-14.58,1.68-19.35,5.61-19.63,7,3.09,8.69,7.85,4.49,7,6.17,4.21,2.52-25,5-26.36,3.65-1.4,7.29,9,4.77,13.46,7.85,10.38,23.56-37-9-72.92S469,375.5,449.94,399.7C434.09,419.82,432.44,438.65,434.81,454.07Z" transform="translate(-201.28 -71.45)"/><circle class="cls-1" cx="301.09" cy="366.31" r="20.3"/><rect class="cls-5" x="489.02" y="394.24" width="2.29" height="11.04" rx="1.14" ry="1.14" transform="translate(-335.49 227.19) rotate(-30)"/><rect class="cls-14" x="510.81" y="401.19" width="2.29" height="11.04" rx="1.14" ry="1.14" transform="translate(-117.98 -158.46) rotate(10.57)"/><rect class="cls-3" x="527.9" y="415.8" width="2.29" height="11.04" rx="1.14" ry="1.14" transform="matrix(0.98, 0.18, -0.18, 0.98, -115.02, -161.34)"/><rect class="cls-5" x="527.72" y="388.95" width="2.29" height="11.04" rx="1.14" ry="1.14" transform="translate(-140.31 -142.14) rotate(8.11)"/><rect class="cls-5" x="542.83" y="428.78" width="2.29" height="11.04" rx="1.14" ry="1.14" transform="translate(-195.83 803.9) rotate(-77.92)"/><rect class="cls-3" x="551.32" y="412.15" width="2.29" height="11.04" rx="1.14" ry="1.14" transform="translate(-313.69 152.29) rotate(-20.83)"/><rect class="cls-6" x="499.75" y="377.98" width="2.29" height="11.04" rx="1.14" ry="1.14" transform="translate(19.34 877.22) rotate(-101.06)"/><rect class="cls-3" x="476.43" y="414.34" width="2.29" height="11.04" rx="1.14" ry="1.14" transform="translate(136.69 -271.96) rotate(36)"/><rect class="cls-6" x="467.55" y="393.26" width="2.29" height="11.04" rx="1.14" ry="1.14" transform="translate(60.9 -252.37) rotate(30)"/><rect class="cls-5" x="453.84" y="411.17" width="2.29" height="11.04" rx="1.14" ry="1.14" transform="translate(-340.78 180.21) rotate(-26.97)"/><rect class="cls-14" x="465.54" y="435.32" width="2.29" height="11.04" rx="1.14" ry="1.14" transform="translate(-376.31 387.67) rotate(-45)"/><rect class="cls-6" x="445.28" y="434.63" width="2.29" height="11.04" rx="1.14" ry="1.14" transform="translate(51.39 -227.52) rotate(27.4)"/><rect class="cls-3" x="481.49" y="461.68" width="2.29" height="11.04" rx="1.14" ry="1.14" transform="translate(-53.52 -186.54) rotate(16.03)"/><rect class="cls-5" x="509.33" y="466.08" width="2.29" height="11.04" rx="1.14" ry="1.14" transform="translate(47.72 -243.76) rotate(25.17)"/><rect class="cls-14" x="555.04" y="441.67" width="2.29" height="11.04" rx="1.14" ry="1.14" transform="translate(152.53 -308.63) rotate(34.73)"/><rect class="cls-6" x="530.62" y="448.25" width="2.29" height="11.04" rx="1.14" ry="1.14" transform="translate(-361.08 280.24) rotate(-32.08)"/><rect class="cls-7" x="302.2" y="254.69" width="0.81" height="14.37" rx="0.4" ry="0.4"/><circle class="cls-6" cx="503.88" cy="327.23" r="4.88" transform="translate(-296.55 211.22) rotate(-28.75)"/><rect class="cls-7" x="297.08" y="254.26" width="11.12" height="3.12" rx="0.81" ry="0.81"/><rect class="cls-17" x="325.4" y="254.73" width="0.81" height="14.37" rx="0.4" ry="0.4"/><circle class="cls-18" cx="527.08" cy="327.26" r="4.88" transform="translate(-293.71 222.39) rotate(-28.75)"/><rect class="cls-17" x="320.29" y="254.3" width="11.12" height="3.12" rx="0.81" ry="0.81"/><rect class="cls-14" x="348.89" y="254.73" width="0.81" height="14.37" rx="0.4" ry="0.4"/><circle class="cls-15" cx="550.57" cy="327.26" r="4.88" transform="translate(-290.82 233.68) rotate(-28.75)"/><rect class="cls-14" x="343.77" y="254.3" width="11.12" height="3.12" rx="0.81" ry="0.81"/><rect class="cls-5" x="170.9" y="268.68" width="204.85" height="22.59" rx="10.9" ry="10.9"/><rect class="cls-11" x="224.15" y="291.23" width="142.22" height="2.12" rx="1.06" ry="1.06"/><path class="cls-14" d="M202.44,379.83l233.4-.52s.54-30.53-37.49-19.66c0,0-10.75-33.71-68-25,0,0-38.07-40.59-88.83-15.18S202.44,379.83,202.44,379.83Z" transform="translate(-201.28 -71.45)"/><rect class="cls-3" x="46.05" y="337.21" width="158.59" height="17.79" rx="8.9" ry="8.9"/><rect class="cls-3" x="105.7" y="383.03" width="115.16" height="9.13" rx="4.57" ry="4.57"/><path class="cls-6" d="M363.14,405.06a4.36,4.36,0,0,0,.73,2.63c.06.09.22,0,.15-.09a4.2,4.2,0,0,1-.7-2.54c0-.11-.17-.11-.18,0Z" transform="translate(-201.28 -71.45)"/><path class="cls-10" d="M363.79,407.2a1.12,1.12,0,0,0,.67.6c.5.17,4.08.8,4.78,4s-2.14,5.22-3.18,5.78-1.72.28-1.82,1.32a4.49,4.49,0,0,0,.42,2.09,3.35,3.35,0,0,1-1.07-1.14l-.17,1.71-.3-1.5a4.71,4.71,0,0,1-1.27.87l0,0a2.15,2.15,0,0,0-.52-3.55,6.67,6.67,0,0,0-.85-.34,4.73,4.73,0,0,1-2.81-3.71,4.82,4.82,0,0,1,3.3-5,5.53,5.53,0,0,1,1.23-.34C362.79,407.87,363.64,407.65,363.79,407.2Z" transform="translate(-201.28 -71.45)"/><path class="cls-6" d="M364.53,405.29c-.3.35-.74.93-1.22,1-.11,0-.06.19,0,.17.52-.09,1-.68,1.29-1.06.07-.09-.05-.21-.13-.13Z" transform="translate(-201.28 -71.45)"/><path class="cls-6" d="M362.18,405.64a1.27,1.27,0,0,0,1.24.8c.11,0,.11-.17,0-.18a1.1,1.1,0,0,1-1.07-.67c0-.11-.21-.06-.17,0Z" transform="translate(-201.28 -71.45)"/><path class="cls-7" d="M358.76,404.33a2.63,2.63,0,0,1-1.64-4.34,3.5,3.5,0,0,1,3-1.21c2.43.17,2.4,2,2.18,3a2.57,2.57,0,0,0,.13,1.46c.31.81.63,2-.12,2.49s-1.23,0-1.66-.5a2.78,2.78,0,0,0-1.67-.89Z" transform="translate(-201.28 -71.45)"/><path class="cls-7" d="M367.6,403.55a2.63,2.63,0,0,0,1.06-4.52,3.5,3.5,0,0,0-3.09-.82c-2.38.48-2.12,2.27-1.77,3.27a2.57,2.57,0,0,1,.06,1.47c-.2.84-.36,2.11.44,2.46s1.22-.2,1.58-.71a2.78,2.78,0,0,1,1.54-1.09Z" transform="translate(-201.28 -71.45)"/><path class="cls-6" d="M365.78,401.3a3.18,3.18,0,0,0-1.46-5.41,4.23,4.23,0,0,0-3.75.9c-2.26,1.88-1,3.63,0,4.49a3.11,3.11,0,0,1,.91,1.52c.27,1,.83,2.45,1.88,2.36.88-.07,1.18-.91,1.27-1.66a3.36,3.36,0,0,1,1-2Z" transform="translate(-201.28 -71.45)"/><path class="cls-11" d="M343.78,403.59l0,.21c-.35,1.89-2.78,16,3.25,17.61,6.47,1.74,6.74-5.49,5.49-8.37s-1.85-3.48-2-5.54-.54-5.05-.54-5.05l-.71-1.63-3.75,1Z" transform="translate(-201.28 -71.45)"/><path class="cls-5" d="M343,404.91s.35-3.76,1.86-4.32,1.72-.32,2-.7.6-2.64,1.44-2.43.7,2.46.7,2.46a3.87,3.87,0,0,1,1.72,2.92,6.46,6.46,0,0,1-.39,3.48s-1.58.07-1.58-2.78c0,0-1.86,1.55-1.16,3.23,0,0-3-.74-2.85-3.13A1.71,1.71,0,0,1,343,404.91Z" transform="translate(-201.28 -71.45)"/><path class="cls-14" d="M329.45,409.66a6.72,6.72,0,0,0-4.26,3.49,5.06,5.06,0,0,0-.34,3.78c.78,2.51,3.73,3.54,5.67,4a6.68,6.68,0,0,0,3.55-.21c2.07-.71,5.12-2.34,4.67-5.77C338.14,410.25,335.43,408,329.45,409.66Z" transform="translate(-201.28 -71.45)"/><path class="cls-3" d="M326.75,414.26s2.19-3.29,4.17-2.72c0,0,.18,1.84,1.84,1.84a3.18,3.18,0,0,1-.66-2.41,3.74,3.74,0,0,1,3.73-.48s-1.1-1.27-3.9-.66c0,0,.48-1.54,2.85-.88,0,0-1-1.45-3.42-.09A6.78,6.78,0,0,1,332,406s-1.8.7-1.8,3.51a7.61,7.61,0,0,0-4.12.44s2.76,0,3.73.66C329.82,410.57,326.48,411.05,326.75,414.26Z" transform="translate(-201.28 -71.45)"/><path class="cls-7" d="M314.61,409.93s-.17.63,1.08.74,4.92,1.13,5,4.84-1.36,6.74-7.26,6.48-7.36-4-6.89-6.48,1.64-4.74,5.3-4.84a.76.76,0,0,0,.76-.75Z" transform="translate(-201.28 -71.45)"/><path class="cls-10" d="M312.54,410.06h2s2.39-3.33,1.93-5.4c0,0-2,2.1-2.16,3.18,0,0-.11-3.77-.62-4.06a8.41,8.41,0,0,0-.79,4s-1.53-3.12-2.38-3.18A10.45,10.45,0,0,0,312.54,410.06Z" transform="translate(-201.28 -71.45)"/><polygon class="cls-11" points="99.27 328.75 100.7 327.6 99.72 327.07 98.43 328.47 98.5 326.03 97.18 326.03 97.56 328.47 96.06 327.07 95.16 327.49 96.55 328.71 99.27 328.75"/><path class="cls-5" d="M296.11,402.84c0-.35,0-.64,0-1-.06-.53,0-1.61,1.58-1.83a11.69,11.69,0,0,1,3.87.12s1.21.26,1.07,2,.54,14.36-2.38,18.89C297.6,425.05,296.34,406.79,296.11,402.84Z" transform="translate(-201.28 -71.45)"/><path class="cls-14" d="M279.71,406.32l2.51-.55s-.24-5.11,2.51-5.66,3.46.71,3.46.71,1.18-.71.71-1.57-5-2.67-7.62,1S279.71,406.32,279.71,406.32Z" transform="translate(-201.28 -71.45)"/><path class="cls-11" d="M278.69,404.8s-.43-.8-1.81-.48a15.06,15.06,0,0,0-2.72,1,3,3,0,0,0-3,.59A8.41,8.41,0,0,0,269.41,417c3.36,5.71,11.31,4.48,11.31,4.48a4.8,4.8,0,0,0,2.93-.21,11.77,11.77,0,0,0,3.15-.16s9.82-1.71,7.79-10.19-7-6.19-7-6.19-2.56-.8-3.57,0C284,404.74,282,402.45,278.69,404.8Z" transform="translate(-201.28 -71.45)"/><path class="cls-7" d="M377.54,420.7a1.44,1.44,0,0,1,1.24-.61,10.07,10.07,0,0,0,1.18.1L381,420s1.34-.2,1.63.83a4.39,4.39,0,0,0-1.16-.37l.53.85a3.83,3.83,0,0,0-1.2-.65l-.1,1.06s-.33-.94-.49-.94-.51.91-.51.91,0-.85-.24-.85-.93.63-.93.63.43-.83.06-.83S377.54,420.7,377.54,420.7Z" transform="translate(-201.28 -71.45)"/><path class="cls-14" d="M373.46,390.67s5.62,4.94,5.24,10l3.12.08s.76-8.21,5.09-10.11l-1.6-1.29a5.32,5.32,0,0,0-1.6,1.6s.08-2.39,1.43-3.16l-1.23-1.58s-2.93,2.81-3.46,5.92c0,0-1.52-5.1-3.81-5.86l-1,1.35,1.41,2.87s-1.41-1.11-2.11-1.11Z" transform="translate(-201.28 -71.45)"/><path class="cls-6" d="M377.64,408.1s-2.26,9.46.71,11.71c2.31,1.75,7.25,1,4.45-11.59l-1.37-1.11-2.52,0Z" transform="translate(-201.28 -71.45)"/><path class="cls-3" d="M378.7,400.7l3.12.08,1,7.44a3.36,3.36,0,0,1-2.17,0,7.57,7.57,0,0,0-3-.12Z" transform="translate(-201.28 -71.45)"/><rect class="cls-7" x="54.57" y="355.01" width="142.22" height="2.12" rx="1.06" ry="1.06"/><rect class="cls-14" x="112.44" y="392.16" width="102.26" height="2.26" rx="0.93" ry="0.93"/><path class="cls-14" d="M332.49,439.8a4.06,4.06,0,0,0-3.19-3.79c-.34-.07-.48.45-.14.52A3.52,3.52,0,0,1,332,439.8c0,.34.56.35.54,0Z" transform="translate(-201.28 -71.45)"/><path class="cls-11" d="M329.1,447.4s-1.63-7.74,3.12-7.61,4.62,6.25,4.62,6.25,9,2.4,5.3,10.73C337.66,466.75,319.46,459.08,329.1,447.4Z" transform="translate(-201.28 -71.45)"/><ellipse class="cls-14" cx="158.46" cy="379.86" rx="10.36" ry="9.62"/><path class="cls-3" d="M359.23,441.71s-.23-3.22,2.21-3.11,1.65,3.47-.23,2.4c0,0,1.57-.42,1.23-1.19a1.27,1.27,0,0,0-2.32.21c-.38,1.25-.13,1.69-.13,1.69Z" transform="translate(-201.28 -71.45)"/><path class="cls-7" d="M377.72,449a1.83,1.83,0,0,0-2.31,1.88c.07.67.53,1.38,1.82,2,3.59,1.67,7.06,3.72,13,.38a12.34,12.34,0,0,0,6.42-8.85l-.64-.64.77-2.31-1.15-.38L394,443.65s-3.08,4.88-8.08,5.77A20,20,0,0,1,377.72,449Z" transform="translate(-201.28 -71.45)"/><path class="cls-6" d="M382.15,454.8s-5.15,1.83-.92,4.35,12.13-.06,15.11-2.52,2.4-7.9,1.6-10.3a6,6,0,0,1,.52-4.58l-1.73-.28-.77,2.31.64.64S394.46,455.72,382.15,454.8Z" transform="translate(-201.28 -71.45)"/></svg>