<svg id="Calque_1" data-name="Calque 1" xmlns="http://www.w3.org/2000/svg" viewBox="0 0 332.99 377.21"><defs><style>.cls-1{fill:#31cfff;}.cls-2{fill:#fff;stroke:#333e9c;stroke-miterlimit:10;stroke-width:6.38px;}.cls-3{fill:#27317b;}.cls-4{fill:#a3aef0;}.cls-5{fill:#f5b37b;}.cls-6{fill:#fffff9;}.cls-7{fill:#f3a059;}.cls-8{fill:#65ada5;}.cls-9{fill:#415f8e;}.cls-10{fill:#d88caa;}.cls-11{fill:#9af3f2;}.cls-12{fill:#333e9c;}.cls-13{fill:#d3759a;}</style></defs><title>Hyblab_picto3</title><circle class="cls-1" cx="165.07" cy="191.71" r="130.04"/><circle class="cls-2" cx="165.07" cy="52.62" r="49.43"/><rect class="cls-3" x="38.34" y="137.84" width="38.06" height="21.9"/><rect class="cls-3" x="33.44" y="126.9" width="52.42" height="1.21"/><rect class="cls-3" x="31.5" y="131.69" width="56.58" height="1.21"/><rect class="cls-4" x="34.14" y="128.15" width="50.23" height="3.54"/><rect class="cls-4" x="34.14" y="132.9" width="50.23" height="3.74"/><polygon class="cls-4" points="35.37 137.84 35.37 159.74 43.33 159.76 43.33 140.05 42.23 140.04 42.21 137.84 35.37 137.84"/><rect class="cls-5" x="38.53" y="141.31" width="3.54" height="10.53"/><polygon class="cls-4" points="83.08 137.84 83.08 159.81 75.13 159.76 75.13 140.06 76.23 140.05 76.25 137.84 83.08 137.84"/><rect class="cls-5" x="318.87" y="254.6" width="3.54" height="10.53" transform="translate(398.8 406.57) rotate(-180)"/><rect class="cls-3" x="34.14" y="136.63" width="50.23" height="1.21"/><polygon class="cls-4" points="47.55 137.84 47.55 139.92 46.64 139.92 46.58 159.74 50.45 159.74 50.36 139.98 49.51 139.96 49.49 137.84 47.55 137.84"/><polygon class="cls-4" points="54.78 137.84 54.78 139.92 53.87 139.92 53.81 159.74 57.66 159.76 57.59 139.98 56.75 139.96 56.73 137.84 54.78 137.84"/><polygon class="cls-4" points="62 137.84 62 139.92 61.09 139.92 61.03 159.74 64.87 159.76 64.81 139.98 63.97 139.96 63.94 137.84 62 137.84"/><polygon class="cls-4" points="69.23 137.84 69.23 139.92 68.32 139.92 68.26 159.74 72.12 159.74 72.04 139.98 71.2 139.96 71.18 137.84 69.23 137.84"/><rect class="cls-3" x="34.6" y="159.74" width="49.77" height="1.54"/><rect class="cls-5" x="32.98" y="161.29" width="52.73" height="1.94"/><rect class="cls-3" x="31.46" y="163.22" width="55.67" height="1.76"/><rect class="cls-5" x="39.76" y="133.29" width="1.04" height="2.92"/><rect class="cls-5" x="41.18" y="133.29" width="1.04" height="2.92"/><rect class="cls-5" x="42.61" y="133.29" width="1.04" height="2.92"/><rect class="cls-5" x="45.46" y="133.29" width="1.04" height="2.92"/><rect class="cls-5" x="46.87" y="133.29" width="1.04" height="2.92"/><rect class="cls-5" x="48.3" y="133.29" width="1.04" height="2.92"/><rect class="cls-5" x="51.21" y="133.29" width="1.04" height="2.92"/><rect class="cls-5" x="52.63" y="133.29" width="1.04" height="2.92"/><rect class="cls-5" x="54.05" y="133.29" width="1.04" height="2.92"/><rect class="cls-5" x="56.83" y="133.29" width="1.04" height="2.92"/><rect class="cls-5" x="58.25" y="133.29" width="1.04" height="2.92"/><rect class="cls-5" x="59.67" y="133.29" width="1.04" height="2.92"/><rect class="cls-5" x="62.52" y="133.29" width="1.04" height="2.92"/><rect class="cls-5" x="63.94" y="133.29" width="1.04" height="2.92"/><rect class="cls-5" x="65.36" y="133.29" width="1.04" height="2.92"/><rect class="cls-5" x="68.28" y="133.29" width="1.04" height="2.92"/><rect class="cls-5" x="69.69" y="133.29" width="1.04" height="2.92"/><rect class="cls-5" x="71.12" y="133.29" width="1.04" height="2.92"/><rect class="cls-5" x="73.92" y="133.3" width="1.04" height="2.92"/><rect class="cls-5" x="75.34" y="133.3" width="1.04" height="2.92"/><rect class="cls-5" x="76.76" y="133.3" width="1.04" height="2.92"/><rect class="cls-6" x="90.72" y="131.76" width="12.4" height="33.23"/><rect class="cls-3" x="92.14" y="153.23" width="9.71" height="1.29"/><rect class="cls-4" x="95.5" y="157.07" width="3.02" height="1.29"/><rect class="cls-4" x="94.75" y="154.52" width="0.62" height="2.26"/><rect class="cls-4" x="96.02" y="154.52" width="0.62" height="2.26"/><rect class="cls-4" x="97.33" y="154.52" width="0.62" height="2.26"/><rect class="cls-4" x="98.59" y="154.52" width="0.62" height="2.26"/><rect class="cls-4" x="92.14" y="146.5" width="0.96" height="0.88"/><rect class="cls-4" x="94.57" y="146.5" width="0.96" height="0.88"/><rect class="cls-4" x="98.45" y="146.5" width="0.96" height="0.88"/><rect class="cls-4" x="100.88" y="146.51" width="0.96" height="0.88"/><rect class="cls-4" x="92.14" y="153.23" width="0.96" height="0.88"/><rect class="cls-4" x="94.57" y="153.23" width="0.96" height="0.88"/><rect class="cls-4" x="98.45" y="153.23" width="0.96" height="0.88"/><rect class="cls-4" x="100.89" y="153.22" width="0.96" height="0.88"/><rect class="cls-3" x="93.1" y="146.5" width="1.47" height="6.72"/><rect class="cls-3" x="99.41" y="146.51" width="1.47" height="6.72"/><rect class="cls-3" x="90.28" y="146.06" width="13.46" height="0.45" rx="0.21" ry="0.21"/><rect class="cls-3" x="90.19" y="144.32" width="13.46" height="0.45" rx="0.21" ry="0.21"/><ellipse class="cls-4" cx="96.98" cy="146.61" rx="1.41" ry="1.55"/><rect class="cls-3" x="95.52" y="146.5" width="2.93" height="6.72"/><rect class="cls-3" x="93.1" y="131.76" width="1.64" height="9.39"/><rect class="cls-3" x="99.24" y="131.76" width="1.64" height="9.39"/><rect class="cls-4" x="90.72" y="133.69" width="12.4" height="1.18"/><rect class="cls-4" x="91.8" y="129.67" width="10.33" height="2.09"/><rect class="cls-3" x="91.01" y="129.22" width="11.78" height="0.45" rx="0.19" ry="0.19"/><path class="cls-6" d="M334.29,242.37s-.73-8.57,4.15-9.54c5.35-1.06,6,5.42,6.12,6.35a16.57,16.57,0,0,1,.06,3.18" transform="translate(-242.48 -113.15)"/><rect class="cls-3" x="93.14" y="127.53" width="1.33" height="1.94"/><rect class="cls-3" x="99.49" y="127.53" width="1.33" height="1.94"/><rect class="cls-4" x="91.78" y="128.94" width="10.35" height="0.28"/><rect class="cls-4" x="91.76" y="127.8" width="10.39" height="0.28"/><path class="cls-4" d="M335.62,239.46l0,1h1.26l.06-1.23.48-2.36,1.43-1.52.81-.5.66.56.85,1.15.34,1a22.15,22.15,0,0,1,.44,2.9h1.33a18.67,18.67,0,0,1,.66-4.16s-1-3.72-4.51-3.67-4.3,2.84-4.7,4.32C334.74,237,335.36,237,335.62,239.46Z" transform="translate(-242.48 -113.15)"/><path class="cls-3" d="M335,236.16a13.89,13.89,0,0,1,.6,3.34s-.45-2.27-.88-2.47Z" transform="translate(-242.48 -113.15)"/><path class="cls-3" d="M337,239.39s.49-3.54,2.5-3.49,2.34,3.22,2.34,3.22-.18-5-2.41-4.89S337,239.39,337,239.39Z" transform="translate(-242.48 -113.15)"/><path class="cls-3" d="M343.94,236.31a13.89,13.89,0,0,0-.6,3.34s.45-2.27.88-2.47Z" transform="translate(-242.48 -113.15)"/><rect class="cls-3" x="90.98" y="127.36" width="11.78" height="0.45" rx="0.19" ry="0.19"/><rect class="cls-6" x="94.98" y="119.31" width="3.9" height="0.89"/><rect class="cls-4" x="95.32" y="117.17" width="3.22" height="2.13"/><rect class="cls-6" x="94.96" y="116.84" width="3.93" height="0.35"/><rect class="cls-6" x="94.96" y="115.55" width="3.93" height="0.35"/><rect class="cls-4" x="94.96" y="115.91" width="3.93" height="0.93"/><rect class="cls-3" x="96.59" y="104.36" width="0.7" height="6.05" rx="0.35" ry="0.35"/><path class="cls-6" d="M338.17,227.62l0-3.1a1.25,1.25,0,0,1,2.49,0l0,3.11Z" transform="translate(-242.48 -113.15)"/><path class="cls-4" d="M338.16,228.7l0-3a1.27,1.27,0,0,1,2.53,0l0,3Z" transform="translate(-242.48 -113.15)"/><path class="cls-3" d="M338.53,228.7v-2.33s.06-.91.91-.91.91.91.91.91l0,2.33Z" transform="translate(-242.48 -113.15)"/><rect class="cls-4" x="28.92" y="165.01" width="269.25" height="3.51" rx="1.75" ry="1.75"/><rect class="cls-5" x="20.02" y="168.39" width="286.83" height="32.18" rx="16.09" ry="16.09"/><rect class="cls-7" x="230.6" y="101.04" width="0.2" height="5.17" rx="0.1" ry="0.1"/><path class="cls-3" d="M456.88,278.15l8.72,0s.34-12.16,7.39-12.62,7.87,12.59,7.87,12.59h9s-13.66-16.95-14.69-36h-4.09S468.37,263.58,456.88,278.15Z" transform="translate(-242.48 -113.15)"/><rect class="cls-8" x="222.84" y="145.79" width="15.12" height="0.89" rx="0.44" ry="0.44"/><rect class="cls-7" x="221.64" y="146.64" width="17.78" height="2.96"/><rect class="cls-8" x="219.97" y="149.6" width="21.11" height="0.41" rx="0.21" ry="0.21"/><line class="cls-9" x1="229.4" y1="149.16" x2="230.45" y2="149.16"/><rect class="cls-6" x="225.28" y="147.31" width="0.99" height="1.83" rx="0.49" ry="0.49"/><rect class="cls-6" x="223.93" y="147.31" width="0.99" height="1.83" rx="0.49" ry="0.49"/><rect class="cls-6" x="228.02" y="147.31" width="0.99" height="1.83" rx="0.49" ry="0.49"/><rect class="cls-6" x="226.68" y="147.31" width="0.99" height="1.83" rx="0.49" ry="0.49"/><rect class="cls-6" x="230.73" y="147.31" width="0.99" height="1.83" rx="0.49" ry="0.49"/><rect class="cls-6" x="229.38" y="147.31" width="0.99" height="1.83" rx="0.49" ry="0.49"/><rect class="cls-6" x="233.45" y="147.31" width="0.99" height="1.83" rx="0.49" ry="0.49"/><rect class="cls-6" x="232.11" y="147.31" width="0.99" height="1.83" rx="0.49" ry="0.49"/><rect class="cls-6" x="236.16" y="147.31" width="0.99" height="1.83" rx="0.49" ry="0.49"/><rect class="cls-6" x="234.81" y="147.31" width="0.99" height="1.83" rx="0.49" ry="0.49"/><rect class="cls-6" x="222.6" y="147.31" width="0.99" height="1.83" rx="0.49" ry="0.49"/><rect class="cls-6" x="237.49" y="147.31" width="0.99" height="1.83" rx="0.49" ry="0.49"/><path class="cls-7" d="M473.21,244.38s.27,9.23,1.9,11.84h-3.93S473,254.23,473.21,244.38Z" transform="translate(-242.48 -113.15)"/><rect class="cls-8" x="226.81" y="132.89" width="7.51" height="0.89" rx="0.31" ry="0.31"/><rect class="cls-7" x="226.21" y="133.73" width="8.83" height="2.96"/><rect class="cls-6" x="228.08" y="134.31" width="0.99" height="1.83" rx="0.49" ry="0.49"/><rect class="cls-6" x="226.73" y="134.31" width="0.99" height="1.83" rx="0.49" ry="0.49"/><rect class="cls-6" x="230.78" y="134.31" width="0.99" height="1.83" rx="0.49" ry="0.49"/><rect class="cls-6" x="229.44" y="134.31" width="0.99" height="1.83" rx="0.49" ry="0.49"/><rect class="cls-6" x="233.51" y="134.31" width="0.99" height="1.83" rx="0.49" ry="0.49"/><rect class="cls-6" x="232.16" y="134.31" width="0.99" height="1.83" rx="0.49" ry="0.49"/><rect class="cls-8" x="226.95" y="128.52" width="6.93" height="0.44" rx="0.12" ry="0.12"/><path class="cls-3" d="M471.11,241.65s1.22-16.32,1.22-20H474s.89,18.26,1.11,20Z" transform="translate(-242.48 -113.15)"/><rect class="cls-7" x="229.25" y="112.27" width="2.95" height="0.41" rx="0.2" ry="0.2"/><rect class="cls-7" x="229.02" y="109.83" width="3.33" height="1.91" rx="0.95" ry="0.95"/><rect class="cls-7" x="229.06" y="107.26" width="3.18" height="1.22" rx="0.61" ry="0.61"/><rect class="cls-8" x="229.51" y="106.63" width="2.22" height="0.63" rx="0.32" ry="0.32"/><rect class="cls-3" x="230.14" y="106.1" width="1.07" height="0.54" rx="0.26" ry="0.26"/><rect class="cls-10" x="108.3" y="127.53" width="39.39" height="3.79"/><rect class="cls-10" x="108.44" y="132.35" width="39.31" height="14.54"/><rect class="cls-10" x="108.59" y="147.92" width="13.54" height="17.11"/><rect class="cls-10" x="134.25" y="147.95" width="13.54" height="17.11"/><rect class="cls-6" x="107.68" y="131.33" width="40.65" height="1.03"/><rect class="cls-6" x="107.84" y="146.88" width="15.15" height="1.07"/><rect class="cls-6" x="133.44" y="146.88" width="14.98" height="1.14"/><path class="cls-11" d="M364.49,278.19l0-21.33a6.66,6.66,0,0,1,4.42-6.2,5.56,5.56,0,0,1,4.35.23,6.28,6.28,0,0,1,3.45,5.62l.16,21.73Z" transform="translate(-242.48 -113.15)"/><polygon class="cls-6" points="147.18 126.51 147.18 124.82 145.86 124.82 145.86 126.51 144.04 126.51 144.04 124.82 142.72 124.82 142.72 126.51 140.94 126.51 140.94 124.82 139.62 124.82 139.62 126.51 137.84 126.51 137.84 124.82 136.52 124.82 136.52 126.51 134.74 126.51 134.74 124.82 133.42 124.82 133.42 126.51 131.6 126.51 131.6 124.82 130.28 124.82 130.28 126.51 128.5 126.51 128.5 124.82 127.18 124.82 127.18 126.51 125.4 126.51 125.4 124.82 124.08 124.82 124.08 126.51 122.3 126.51 122.3 124.82 120.98 124.82 120.98 126.51 119.14 126.51 119.14 124.82 117.82 124.82 117.82 126.51 116.04 126.51 116.04 124.82 114.72 124.82 114.72 126.51 112.94 126.51 112.94 124.82 111.63 124.82 111.63 126.51 109.84 126.51 109.84 124.82 108.52 124.82 108.52 126.51 107.68 126.51 107.68 127.53 148.33 127.53 148.33 126.51 147.18 126.51"/><path class="cls-6" d="M360.86,266.92a3.06,3.06,0,1,0-6.13,0v4.26s0,.07,0,.1v3.19h6.11v-3.21s0-.06,0-.09Z" transform="translate(-242.48 -113.15)"/><path class="cls-6" d="M386.68,266.92a3.06,3.06,0,1,0-6.13,0v4.26s0,.07,0,.1v3.19h6.11v-3.21s0-.06,0-.09Z" transform="translate(-242.48 -113.15)"/><path class="cls-6" d="M386.49,251.16c0-.78-1.38-1.42-3.06-1.42s-3.06.64-3.06,1.42v2s0,0,0,0v1.48h6.11v-1.48s0,0,0,0Z" transform="translate(-242.48 -113.15)"/><path class="cls-6" d="M360.61,251.16c0-.78-1.38-1.42-3.06-1.42s-3.06.64-3.06,1.42v2s0,0,0,0v1.48h6.11v-1.48s0,0,0,0Z" transform="translate(-242.48 -113.15)"/><path class="cls-1" d="M473,313.72h24.63c1.94-1.79,1.7-24.24-13-23.15C470.53,291.6,473,313.72,473,313.72Z" transform="translate(-242.48 -113.15)"/><path class="cls-8" d="M475.44,313.72s-1.37-17.74,7.07-22.82c0,0-11.37,1.26-9.53,22.82Z" transform="translate(-242.48 -113.15)"/><path class="cls-1" d="M441.75,313.72h24.63c1.94-1.79,1.7-24.24-13-23.15C439.3,291.6,441.75,313.72,441.75,313.72Z" transform="translate(-242.48 -113.15)"/><path class="cls-8" d="M444.21,313.72s-1.37-17.74,7.07-22.82c0,0-11.37,1.26-9.53,22.82Z" transform="translate(-242.48 -113.15)"/><path class="cls-1" d="M410.43,313.72h24.63c1.94-1.79,1.7-24.24-13-23.15C408,291.6,410.43,313.72,410.43,313.72Z" transform="translate(-242.48 -113.15)"/><path class="cls-8" d="M412.88,313.72S411.51,296,420,290.89c0,0-11.37,1.26-9.53,22.82Z" transform="translate(-242.48 -113.15)"/><path class="cls-1" d="M504.87,313.72H529.5c1.94-1.79,1.7-24.24-13-23.15C502.41,291.6,504.87,313.72,504.87,313.72Z" transform="translate(-242.48 -113.15)"/><path class="cls-8" d="M507.32,313.72S506,296,514.39,290.89c0,0-11.37,1.26-9.53,22.82Z" transform="translate(-242.48 -113.15)"/><path class="cls-1" d="M345.87,313.73H370.5c1.94-1.79,1.7-24.24-13-23.15C343.41,291.61,345.87,313.73,345.87,313.73Z" transform="translate(-242.48 -113.15)"/><path class="cls-8" d="M348.32,313.73S347,296,355.39,290.9c0,0-11.37,1.26-9.53,22.82Z" transform="translate(-242.48 -113.15)"/><path class="cls-1" d="M314.64,313.73h24.63c1.94-1.79,1.7-24.24-13-23.15C312.19,291.61,314.64,313.73,314.64,313.73Z" transform="translate(-242.48 -113.15)"/><path class="cls-8" d="M317.09,313.73s-1.37-17.74,7.07-22.82c0,0-11.37,1.26-9.53,22.82Z" transform="translate(-242.48 -113.15)"/><path class="cls-1" d="M283.31,313.73h24.63c1.94-1.79,1.7-24.24-13-23.15C280.86,291.61,283.31,313.73,283.31,313.73Z" transform="translate(-242.48 -113.15)"/><path class="cls-8" d="M285.77,313.73S284.4,296,292.84,290.9c0,0-11.37,1.26-9.53,22.82Z" transform="translate(-242.48 -113.15)"/><path class="cls-1" d="M377.75,313.73h24.63c1.94-1.79,1.7-24.24-13-23.15C375.3,291.61,377.75,313.73,377.75,313.73Z" transform="translate(-242.48 -113.15)"/><path class="cls-8" d="M380.2,313.73s-1.37-17.74,7.07-22.82c0,0-11.37,1.26-9.53,22.82Z" transform="translate(-242.48 -113.15)"/><rect class="cls-5" x="20.94" y="200.56" width="286.83" height="25.68" rx="12.84" ry="12.84"/><path class="cls-1" d="M473.91,339.38h24.63c1.94-1.79,1.7-24.24-13-23.15C471.45,317.27,473.91,339.38,473.91,339.38Z" transform="translate(-242.48 -113.15)"/><path class="cls-8" d="M476.36,339.38s-1.37-17.74,7.07-22.82c0,0-11.37,1.26-9.53,22.82Z" transform="translate(-242.48 -113.15)"/><path class="cls-1" d="M442.68,339.38h24.63c1.94-1.79,1.7-24.24-13-23.15C440.23,317.27,442.68,339.38,442.68,339.38Z" transform="translate(-242.48 -113.15)"/><path class="cls-8" d="M445.13,339.38s-1.37-17.74,7.07-22.82c0,0-11.37,1.26-9.53,22.82Z" transform="translate(-242.48 -113.15)"/><path class="cls-1" d="M411.35,339.38H436c1.94-1.79,1.7-24.24-13-23.15C408.9,317.27,411.35,339.38,411.35,339.38Z" transform="translate(-242.48 -113.15)"/><path class="cls-8" d="M413.81,339.38s-1.37-17.74,7.07-22.82c0,0-11.37,1.26-9.53,22.82Z" transform="translate(-242.48 -113.15)"/><path class="cls-1" d="M505.79,339.38h24.63c1.94-1.79,1.7-24.24-13-23.15C503.34,317.27,505.79,339.38,505.79,339.38Z" transform="translate(-242.48 -113.15)"/><path class="cls-8" d="M508.24,339.38s-1.37-17.74,7.07-22.82c0,0-11.37,1.26-9.53,22.82Z" transform="translate(-242.48 -113.15)"/><path class="cls-1" d="M346.79,339.39h24.63c1.94-1.79,1.7-24.24-13-23.15C344.34,317.28,346.79,339.39,346.79,339.39Z" transform="translate(-242.48 -113.15)"/><path class="cls-8" d="M349.25,339.39s-1.37-17.74,7.07-22.82c0,0-11.37,1.26-9.53,22.82Z" transform="translate(-242.48 -113.15)"/><path class="cls-11" d="M315.56,339.39H340.2c1.94-1.79,1.7-24.24-13-23.15C313.11,317.28,315.56,339.39,315.56,339.39Z" transform="translate(-242.48 -113.15)"/><path class="cls-8" d="M318,339.39s-1.37-17.74,7.07-22.82c0,0-11.37,1.26-9.53,22.82Z" transform="translate(-242.48 -113.15)"/><path class="cls-11" d="M284.24,339.39h24.63c1.94-1.79,1.7-24.24-13-23.15C281.79,317.28,284.24,339.39,284.24,339.39Z" transform="translate(-242.48 -113.15)"/><path class="cls-8" d="M286.69,339.39s-1.37-17.74,7.07-22.82c0,0-11.37,1.26-9.53,22.82Z" transform="translate(-242.48 -113.15)"/><path class="cls-1" d="M378.67,339.39h24.63c1.94-1.79,1.7-24.24-13-23.15C376.22,317.28,378.67,339.39,378.67,339.39Z" transform="translate(-242.48 -113.15)"/><path class="cls-8" d="M381.13,339.39s-1.37-17.74,7.07-22.82c0,0-11.37,1.26-9.53,22.82Z" transform="translate(-242.48 -113.15)"/><path class="cls-5" d="M481.8,225.46h93.67s-1.41-13.38-16.2-7.75c0,0-8.1-16.55-26.06-7.75,0,0-23.2-23.83-44.09-3.37C489.13,206.59,482.13,212.49,481.8,225.46Z" transform="translate(-242.48 -113.15)"/><path class="cls-5" d="M342.67,213H278s1-9.24,11.18-5.35c0,0,5.59-11.42,18-5.35,0,0,16-16.44,30.43-2.33C337.62,200,342.44,204,342.67,213Z" transform="translate(-242.48 -113.15)"/><polygon class="cls-3" points="154.6 112.68 157.45 112.68 156.01 107.57 154.6 112.68"/><polygon class="cls-8" points="154.6 112.93 157.43 112.91 158.14 148.58 153.87 148.58 154.6 112.93"/><rect class="cls-3" x="153.46" y="148.57" width="5.02" height="1.05"/><rect class="cls-3" x="152.71" y="149.83" width="6.55" height="0.96"/><rect class="cls-3" x="152.7" y="151" width="6.55" height="0.24"/><rect class="cls-8" x="153.5" y="151.5" width="5.06" height="8.78"/><rect class="cls-3" x="152.65" y="160.45" width="6.89" height="1.75"/><rect class="cls-8" x="152.2" y="162.38" width="7.87" height="2.63"/><rect class="cls-10" x="158.14" y="225.81" width="141.87" height="17.11" rx="7.9" ry="7.9"/><rect class="cls-8" x="184.72" y="242.92" width="107.77" height="1.69" rx="0.82" ry="0.82"/><path class="cls-12" d="M243.48,362.27l199.73-.46s.47-26.73-32.09-17.22c0,0-9.2-29.52-58.2-21.93,0,0-32.58-35.55-76-13.3S243.48,362.27,243.48,362.27Z" transform="translate(-242.48 -113.15)"/><rect class="cls-12" x="168.41" y="106.53" width="12.1" height="18.52"/><rect class="cls-8" x="168.42" y="125.46" width="11.98" height="1.18"/><rect class="cls-8" x="180.88" y="125.46" width="10.86" height="1.18"/><rect class="cls-8" x="192.26" y="125.46" width="12.1" height="1.18"/><rect class="cls-12" x="168.47" y="127.08" width="1.29" height="6.53" rx="0.61" ry="0.61"/><rect class="cls-12" x="170.23" y="127.08" width="1.05" height="6.53" rx="0.5" ry="0.5"/><rect class="cls-12" x="171.74" y="127.08" width="1.05" height="6.53" rx="0.5" ry="0.5"/><rect class="cls-12" x="173.22" y="127.08" width="1.05" height="6.53" rx="0.5" ry="0.5"/><rect class="cls-12" x="174.73" y="127.08" width="1.05" height="6.53" rx="0.5" ry="0.5"/><rect class="cls-12" x="176.22" y="127.08" width="1.05" height="6.53" rx="0.5" ry="0.5"/><rect class="cls-12" x="177.72" y="127.08" width="1.05" height="6.53" rx="0.5" ry="0.5"/><rect class="cls-12" x="179.21" y="127.08" width="1.05" height="6.53" rx="0.5" ry="0.5"/><rect class="cls-12" x="180.71" y="127.08" width="1.05" height="6.53" rx="0.5" ry="0.5"/><rect class="cls-12" x="182.19" y="127.08" width="1.05" height="6.53" rx="0.5" ry="0.5"/><rect class="cls-12" x="183.69" y="127.08" width="1.05" height="6.53" rx="0.5" ry="0.5"/><rect class="cls-12" x="185.18" y="127.08" width="1.05" height="6.53" rx="0.5" ry="0.5"/><rect class="cls-12" x="186.68" y="127.08" width="1.05" height="6.53" rx="0.5" ry="0.5"/><rect class="cls-12" x="188.22" y="127.08" width="1.05" height="6.53" rx="0.5" ry="0.5"/><rect class="cls-12" x="189.72" y="127.08" width="1.05" height="6.53" rx="0.5" ry="0.5"/><rect class="cls-12" x="191.21" y="127.08" width="1.05" height="6.53" rx="0.5" ry="0.5"/><rect class="cls-12" x="192.71" y="127.08" width="1.05" height="6.53" rx="0.5" ry="0.5"/><rect class="cls-12" x="194.2" y="127.08" width="1.05" height="6.53" rx="0.5" ry="0.5"/><rect class="cls-12" x="195.7" y="127.08" width="1.05" height="6.53" rx="0.5" ry="0.5"/><rect class="cls-12" x="197.19" y="127.08" width="1.05" height="6.53" rx="0.5" ry="0.5"/><rect class="cls-12" x="198.69" y="127.08" width="1.05" height="6.53" rx="0.5" ry="0.5"/><rect class="cls-12" x="445.54" y="240.22" width="1.29" height="6.53" rx="0.61" ry="0.61" transform="translate(649.88 373.83) rotate(180)"/><rect class="cls-12" x="444.01" y="240.22" width="1.05" height="6.53" rx="0.5" ry="0.5" transform="translate(646.58 373.83) rotate(-180)"/><rect class="cls-12" x="442.51" y="240.22" width="1.05" height="6.53" rx="0.5" ry="0.5" transform="translate(643.58 373.83) rotate(-180)"/><rect class="cls-12" x="168.46" y="134.11" width="10.94" height="10.7"/><rect class="cls-12" x="180.98" y="134.11" width="10.94" height="10.7"/><rect class="cls-12" x="193.31" y="134.11" width="10.94" height="10.7"/><rect class="cls-8" x="179.95" y="134.08" width="0.51" height="10.73"/><rect class="cls-8" x="192.29" y="134.07" width="0.51" height="10.73"/><rect class="cls-12" x="168.47" y="145.36" width="2.51" height="3.67"/><path class="cls-10" d="M411.64,262.18v-1s-.54-1,.26-1.54l0-.36s-.13-.36.25-.37.33.18.33.37a2.4,2.4,0,0,0,0,.36,1.16,1.16,0,0,1,.26,1.5v1.05Z" transform="translate(-242.48 -113.15)"/><rect class="cls-12" x="171.27" y="145.36" width="2.51" height="3.67"/><path class="cls-10" d="M414.45,262.18v-1s-.54-1,.26-1.54l0-.36s-.13-.36.25-.37.33.18.33.37a2.4,2.4,0,0,0,0,.36,1.16,1.16,0,0,1,.26,1.5v1.05Z" transform="translate(-242.48 -113.15)"/><rect class="cls-12" x="174.03" y="145.36" width="2.51" height="3.67"/><path class="cls-10" d="M417.21,262.18v-1s-.54-1,.26-1.54l0-.36s-.13-.36.25-.37.33.18.33.37a2.4,2.4,0,0,0,0,.36,1.16,1.16,0,0,1,.26,1.5v1.05Z" transform="translate(-242.48 -113.15)"/><rect class="cls-12" x="176.84" y="145.36" width="2.51" height="3.67"/><path class="cls-10" d="M420,262.18v-1s-.54-1,.26-1.54l0-.36s-.13-.36.25-.37.33.18.33.37a2.4,2.4,0,0,0,0,.36,1.16,1.16,0,0,1,.26,1.5v1.05Z" transform="translate(-242.48 -113.15)"/><rect class="cls-12" x="179.57" y="145.36" width="2.51" height="3.67"/><path class="cls-10" d="M422.75,262.18v-1s-.54-1,.26-1.54l0-.36s-.13-.36.25-.37.33.18.33.37a2.4,2.4,0,0,0,0,.36,1.16,1.16,0,0,1,.26,1.5v1.05Z" transform="translate(-242.48 -113.15)"/><rect class="cls-12" x="182.37" y="145.36" width="2.51" height="3.67"/><path class="cls-10" d="M425.55,262.18v-1s-.54-1,.26-1.54l0-.36s-.13-.36.25-.37.33.18.33.37a2.4,2.4,0,0,0,0,.36,1.16,1.16,0,0,1,.26,1.5v1.05Z" transform="translate(-242.48 -113.15)"/><rect class="cls-12" x="185.13" y="145.36" width="2.51" height="3.67"/><path class="cls-10" d="M428.31,262.18v-1s-.54-1,.26-1.54l0-.36s-.13-.36.25-.37.33.18.33.37a2.4,2.4,0,0,0,0,.36,1.16,1.16,0,0,1,.26,1.5v1.05Z" transform="translate(-242.48 -113.15)"/><rect class="cls-12" x="187.94" y="145.36" width="2.51" height="3.67"/><path class="cls-10" d="M431.11,262.18v-1s-.54-1,.26-1.54l0-.36s-.13-.36.25-.37.33.18.33.37a2.4,2.4,0,0,0,0,.36,1.16,1.16,0,0,1,.26,1.5v1.05Z" transform="translate(-242.48 -113.15)"/><rect class="cls-12" x="190.76" y="145.36" width="2.51" height="3.67"/><path class="cls-10" d="M433.93,262.18v-1s-.54-1,.26-1.54l0-.36s-.13-.36.25-.37.33.18.33.37a2.4,2.4,0,0,0,0,.36,1.16,1.16,0,0,1,.26,1.5v1.05Z" transform="translate(-242.48 -113.15)"/><rect class="cls-12" x="193.56" y="145.36" width="2.51" height="3.67"/><path class="cls-10" d="M436.74,262.18v-1s-.54-1,.26-1.54l0-.36s-.13-.36.25-.37.33.18.33.37a2.4,2.4,0,0,0,0,.36,1.16,1.16,0,0,1,.26,1.5v1.05Z" transform="translate(-242.48 -113.15)"/><rect class="cls-12" x="196.32" y="145.36" width="2.51" height="3.67"/><path class="cls-10" d="M439.5,262.18v-1s-.54-1,.26-1.54l0-.36s-.13-.36.25-.37.33.18.33.37a2.4,2.4,0,0,0,0,.36,1.16,1.16,0,0,1,.26,1.5v1.05Z" transform="translate(-242.48 -113.15)"/><rect class="cls-12" x="199.13" y="145.36" width="2.51" height="3.67"/><path class="cls-10" d="M442.3,262.18v-1s-.54-1,.26-1.54l0-.36s-.13-.36.25-.37.33.18.33.37a2.4,2.4,0,0,0,0,.36,1.16,1.16,0,0,1,.26,1.5v1.05Z" transform="translate(-242.48 -113.15)"/><rect class="cls-12" x="201.9" y="145.36" width="2.51" height="3.67"/><path class="cls-10" d="M445.08,262.18v-1s-.54-1,.26-1.54l0-.36s-.13-.36.25-.37.33.18.33.37a2.4,2.4,0,0,0,0,.36,1.16,1.16,0,0,1,.26,1.5v1.05Z" transform="translate(-242.48 -113.15)"/><path class="cls-10" d="M413.63,238.2h2a.43.43,0,0,0,.43-.42l.07-10.61a3.81,3.81,0,0,0-.23-1.35,1.64,1.64,0,0,0-.3-.54.41.41,0,0,1-.12-.24v0a2,2,0,0,0-.42-1.05c-.16-.19-.32-.37-.42-.37s-.19.1-.32.24a1.72,1.72,0,0,0-.44,1.1V225a.42.42,0,0,1-.07.23,3.12,3.12,0,0,0-.58,1.45c0,.69,0,9.12,0,11.11A.42.42,0,0,0,413.63,238.2Z" transform="translate(-242.48 -113.15)"/><path class="cls-10" d="M418.27,238.19h2a.43.43,0,0,0,.43-.42l.07-10.61a3.81,3.81,0,0,0-.23-1.35,1.64,1.64,0,0,0-.3-.54.41.41,0,0,1-.12-.24v0a2,2,0,0,0-.42-1.05c-.16-.19-.32-.37-.42-.37s-.19.1-.32.24a1.72,1.72,0,0,0-.44,1.1V225a.42.42,0,0,1-.07.23,3.12,3.12,0,0,0-.58,1.45c0,.69,0,9.12,0,11.11A.42.42,0,0,0,418.27,238.19Z" transform="translate(-242.48 -113.15)"/><rect class="cls-12" x="192.25" y="106.44" width="12.1" height="18.52"/><path class="cls-10" d="M437.47,238.11h2a.43.43,0,0,0,.43-.42l.07-10.61a3.81,3.81,0,0,0-.23-1.35,1.64,1.64,0,0,0-.3-.54.41.41,0,0,1-.12-.24v0a2,2,0,0,0-.42-1.05c-.16-.19-.32-.37-.42-.37s-.19.1-.32.24a1.72,1.72,0,0,0-.44,1.1v.08a.42.42,0,0,1-.07.23,3.12,3.12,0,0,0-.58,1.45c0,.69,0,9.12,0,11.11A.42.42,0,0,0,437.47,238.11Z" transform="translate(-242.48 -113.15)"/><path class="cls-10" d="M442.11,238.1h2a.43.43,0,0,0,.43-.42l.07-10.61a3.81,3.81,0,0,0-.23-1.35,1.64,1.64,0,0,0-.3-.54.41.41,0,0,1-.12-.24v0a2,2,0,0,0-.42-1.05c-.16-.19-.32-.37-.42-.37s-.19.1-.32.24a1.72,1.72,0,0,0-.44,1.1v.08a.42.42,0,0,1-.07.23,3.12,3.12,0,0,0-.58,1.45c0,.69,0,9.12,0,11.11A.42.42,0,0,0,442.11,238.1Z" transform="translate(-242.48 -113.15)"/><path class="cls-10" d="M412.81,258l-.05-5.48a2.09,2.09,0,0,1,.16-.82,5.93,5.93,0,0,1,3.56-3.43s3.31,1.55,3.6,3.8a1.12,1.12,0,0,1,0,.15l0,5.77Z" transform="translate(-242.48 -113.15)"/><path class="cls-8" d="M414.86,252.13a.86.86,0,0,0-.86.85v4.88h0V258h1.72v-.89s0,0,0,0v-4A.86.86,0,0,0,414.86,252.13Z" transform="translate(-242.48 -113.15)"/><path class="cls-8" d="M417.77,252.13a.86.86,0,0,0-.86.85v4.88h0V258h1.72v-.89s0,0,0,0v-4A.86.86,0,0,0,417.77,252.13Z" transform="translate(-242.48 -113.15)"/><path class="cls-10" d="M438.07,257.95l-.05-5.48a2.09,2.09,0,0,1,.16-.82,5.93,5.93,0,0,1,3.56-3.43s3.31,1.55,3.6,3.8a1.12,1.12,0,0,1,0,.15l0,5.77Z" transform="translate(-242.48 -113.15)"/><path class="cls-8" d="M440.12,252.13a.86.86,0,0,0-.86.85v4.88h0v.09H441V257s0,0,0,0v-4A.86.86,0,0,0,440.12,252.13Z" transform="translate(-242.48 -113.15)"/><path class="cls-8" d="M443,252.13a.86.86,0,0,0-.86.85v4.88h0v.09h1.72V257s0,0,0,0v-4A.86.86,0,0,0,443,252.13Z" transform="translate(-242.48 -113.15)"/><rect class="cls-12" x="194.13" y="149.57" width="11.76" height="15.48"/><path class="cls-10" d="M439.06,278.19l-.06-6.6a2.79,2.79,0,0,1,.17-1,6.82,6.82,0,0,1,3.82-4.13s3.56,1.87,3.86,4.58a1.51,1.51,0,0,1,0,.18l0,7Z" transform="translate(-242.48 -113.15)"/><path class="cls-8" d="M441.27,269.76c-.51,0-.93.55-.93,1.23v5.83s0,0,0,0v1.19h0v.13h1.85v-1.29s0,0,0-.07V271C442.19,270.32,441.78,269.76,441.27,269.76Z" transform="translate(-242.48 -113.15)"/><path class="cls-8" d="M444.39,269.76c-.51,0-.93.55-.93,1.23v5.83s0,0,0,0v1.19h0v.13h1.85v-1.29s0,0,0-.07V271C445.32,270.32,444.9,269.76,444.39,269.76Z" transform="translate(-242.48 -113.15)"/><rect class="cls-12" x="166.82" y="149.53" width="11.76" height="15.48"/><path class="cls-10" d="M411.75,278.14l-.06-6.51a2.72,2.72,0,0,1,.17-1,6.76,6.76,0,0,1,3.82-4.07s3.56,1.84,3.86,4.52a1.47,1.47,0,0,1,0,.17l0,6.86Z" transform="translate(-242.48 -113.15)"/><path class="cls-8" d="M414,269.72c-.51,0-.93.55-.93,1.23v5.83s0,0,0,0V278h0v.13h1.85v-1.29s0,0,0-.07V271C414.88,270.28,414.47,269.72,414,269.72Z" transform="translate(-242.48 -113.15)"/><path class="cls-8" d="M417.08,269.72c-.51,0-.93.55-.93,1.23v5.83s0,0,0,0V278h0v.13H418v-1.29s0,0,0-.07V271C418,270.28,417.59,269.72,417.08,269.72Z" transform="translate(-242.48 -113.15)"/><rect class="cls-8" x="178.98" y="149.53" width="0.25" height="15.46"/><rect class="cls-8" x="193.5" y="149.63" width="0.25" height="15.46"/><rect class="cls-12" x="179.58" y="149.64" width="13.51" height="15.48"/><path class="cls-10" d="M422.77,278.26l-.08-8.42a3,3,0,0,1,.26-1.26,9.49,9.49,0,0,1,5.9-5.27s5.49,2.38,6,5.85a1.6,1.6,0,0,1,0,.23l0,8.88Z" transform="translate(-242.48 -113.15)"/><path class="cls-8" d="M426.17,268.07a1.46,1.46,0,0,0-1.43,1.49v7s0,0,0,0v1.44h0v.16h2.85v-1.56s0-.05,0-.08v-7A1.46,1.46,0,0,0,426.17,268.07Z" transform="translate(-242.48 -113.15)"/><path class="cls-8" d="M431,268.07a1.46,1.46,0,0,0-1.43,1.49v7s0,0,0,0v1.44h0v.16h2.85v-1.56s0-.05,0-.08v-7A1.46,1.46,0,0,0,431,268.07Z" transform="translate(-242.48 -113.15)"/><circle class="cls-8" cx="186.44" cy="139.51" r="4.7"/><polygon class="cls-10" points="185.13 135.64 186.1 135.46 186.08 137.82 185.13 135.64"/><polygon class="cls-10" points="183.76 136.43 184.5 135.99 185.36 138 183.76 136.43"/><polygon class="cls-10" points="182.76 137.73 183.31 136.92 185.03 138.63 182.76 137.73"/><polygon class="cls-10" points="182.45 138.36 182.37 139.25 184.56 139.22 182.45 138.36"/><polygon class="cls-10" points="182.33 139.94 182.53 140.84 184.66 139.91 182.33 139.94"/><polygon class="cls-10" points="182.8 141.57 183.37 142.22 184.89 140.59 182.8 141.57"/><polygon class="cls-10" points="183.81 142.72 184.59 143.19 185.45 141.02 183.81 142.72"/><polygon class="cls-10" points="185.19 143.46 186.08 143.57 186.05 141.35 185.19 143.46"/><polygon class="cls-10" points="186.81 143.61 187.73 143.41 186.77 141.27 186.81 143.61"/><polygon class="cls-10" points="188.38 143.13 189.06 142.65 187.44 141.02 188.38 143.13"/><polygon class="cls-10" points="187.94 140.49 190.07 141.46 189.56 142.19 187.94 140.49"/><polygon class="cls-10" points="188.27 139.89 190.5 139.94 190.34 140.8 188.27 139.89"/><polygon class="cls-10" points="188.21 139.26 190.32 138.27 190.5 139.28 188.21 139.26"/><polygon class="cls-10" points="187.98 138.53 190.03 137.62 189.53 136.92 187.98 138.53"/><polygon class="cls-10" points="187.41 138.09 189.06 136.38 188.23 135.92 187.41 138.09"/><polygon class="cls-10" points="186.77 137.7 187.63 135.63 186.72 135.47 186.77 137.7"/><polygon class="cls-10" points="298.66 140.16 296.67 140.16 296.69 141.9 295.1 141.9 295.08 140.16 293.21 140.18 293.23 141.9 291.43 141.92 291.43 140.18 289.53 140.16 289.57 143.7 290.85 144.78 290.85 146.76 289.34 146.76 289.34 145.12 287.42 145.12 287.42 146.76 285.85 146.76 285.85 145.12 283.93 145.12 283.93 146.76 282.29 146.76 282.29 145.12 280.37 145.12 280.37 146.76 278.75 146.76 278.75 145.12 276.83 145.12 276.83 146.76 275.25 146.76 275.25 145.12 273.33 145.12 273.33 146.76 271.69 146.76 271.69 145.12 269.77 145.12 269.77 146.76 268.14 146.76 268.14 145.12 266.22 145.12 266.22 146.76 264.65 146.76 264.65 144.79 265.97 143.54 265.94 140.18 263.95 140.18 263.97 141.92 262.38 141.92 262.36 140.18 260.49 140.19 260.51 141.92 258.71 141.93 258.71 140.19 256.81 140.18 256.86 143.71 258.13 144.79 258.13 165.06 264.61 165.06 264.65 165.06 290.89 165.06 290.89 165.05 297.37 165.05 297.37 144.78 298.69 143.52 298.66 140.16"/><path class="cls-6" d="M511.93,269.94c-.93,0-1.69.55-1.69,1.21v5.74s0,0,0,0v1.17h0v.13h3.36V277a.49.49,0,0,0,0-.07v-5.74C513.61,270.49,512.86,269.94,511.93,269.94Z" transform="translate(-242.48 -113.15)"/><path class="cls-6" d="M528.62,269.92c-.93,0-1.69.55-1.69,1.21v5.74s0,0,0,0v1.17h0v.13h3.36v-1.27a.49.49,0,0,0,0-.07v-5.74C530.31,270.47,529.55,269.92,528.62,269.92Z" transform="translate(-242.48 -113.15)"/><path class="cls-4" d="M520.11,267H520a4.68,4.68,0,0,0-4.59,4.71v4.71s0,0,0,.05v1.59h0v.18h9.3v-1.73a.34.34,0,0,0,0-.09v-4.69a4.69,4.69,0,0,0-4.59-4.73Z" transform="translate(-242.48 -113.15)"/><path class="cls-6" d="M503.86,261.42c-.59,0-1.07.3-1.07.68V266h0v.07h2.13v-.71a.24.24,0,0,0,0,0v-3.21C504.93,261.72,504.45,261.42,503.86,261.42Z" transform="translate(-242.48 -113.15)"/><path class="cls-6" d="M503.86,270.5c-.59,0-1.07.3-1.07.68v3.89h0v.07h2.13v-.71a.24.24,0,0,0,0,0v-3.21C504.93,270.81,504.45,270.5,503.86,270.5Z" transform="translate(-242.48 -113.15)"/><path class="cls-6" d="M536.7,261.34c-.59,0-1.07.3-1.07.68v3.89h0V266h2.13v-.71a.24.24,0,0,0,0,0V262C537.77,261.65,537.29,261.34,536.7,261.34Z" transform="translate(-242.48 -113.15)"/><path class="cls-6" d="M536.7,270.43c-.59,0-1.07.3-1.07.68V275h0v.07h2.13v-.71a.24.24,0,0,0,0,0v-3.21C537.77,270.73,537.29,270.43,536.7,270.43Z" transform="translate(-242.48 -113.15)"/><path class="cls-4" d="M509.75,262.37c-.28,0-.52.15-.52.33v1.55h0v.32h0v0h1v-1.91C510.27,262.51,510,262.37,509.75,262.37Z" transform="translate(-242.48 -113.15)"/><path class="cls-4" d="M513.24,262.37c-.28,0-.52.15-.52.33v1.55h0v.32h0v0h1v-1.91C513.76,262.51,513.53,262.37,513.24,262.37Z" transform="translate(-242.48 -113.15)"/><path class="cls-4" d="M516.76,262.37c-.28,0-.52.15-.52.33v1.55h0v.32h0v0h1v-1.91C517.27,262.51,517,262.37,516.76,262.37Z" transform="translate(-242.48 -113.15)"/><path class="cls-4" d="M520.25,262.37c-.28,0-.52.15-.52.33v1.55h0v.32h0v0h1v-1.91C520.77,262.51,520.53,262.37,520.25,262.37Z" transform="translate(-242.48 -113.15)"/><path class="cls-4" d="M523.83,262.41c-.28,0-.52.15-.52.33v1.55h0v.32h0v0h1v-1.91C524.35,262.56,524.12,262.41,523.83,262.41Z" transform="translate(-242.48 -113.15)"/><path class="cls-4" d="M527.32,262.41c-.28,0-.52.15-.52.33v1.55h0v.32h0v0h1v-1.91C527.84,262.56,527.61,262.41,527.32,262.41Z" transform="translate(-242.48 -113.15)"/><path class="cls-4" d="M530.84,262.41c-.28,0-.52.15-.52.33v1.55h0v.32h0v0h1v-1.91C531.36,262.56,531.12,262.41,530.84,262.41Z" transform="translate(-242.48 -113.15)"/><polygon class="cls-4" points="271.07 131.41 284.46 131.41 277.71 123 271.07 131.41"/><polygon class="cls-4" points="286.12 144.59 283.52 133.49 284.56 131.93 271.17 132.03 272 133.38 269.51 144.59 272.19 144.59 272.19 146.36 272.77 146.36 272.77 144.59 275.78 144.59 275.78 146.35 276.36 146.35 276.36 144.59 279.25 144.59 279.25 146.29 279.83 146.29 279.83 144.59 282.84 144.59 282.84 146.28 283.42 146.28 283.42 144.59 286.12 144.59"/><path class="cls-4" d="M412.47,159.22a17.42,17.42,0,0,1-1.26,3.73c-1.26,2.75-4.37,10.71.74,12.73,6.2,2.46,7.67-3.87,10.37-5.87s7.21-1.24,8.47,5.39c1.64,8.59-10.15,31.11-29.53,29s-32.82-20.29-27.4-35.87,16.65-21.92,26.68-21.93C409.54,146.4,414.05,151.52,412.47,159.22Z" transform="translate(-242.48 -113.15)"/><circle class="cls-1" cx="397.74" cy="155.62" r="4.59" transform="translate(-258.27 149.29) rotate(-35.85)"/><circle class="cls-8" cx="384.13" cy="166.99" r="4.59" transform="translate(-267.51 143.47) rotate(-35.85)"/><circle class="cls-3" cx="382.62" cy="181.94" r="4.59" transform="translate(-276.55 145.41) rotate(-35.85)"/><circle class="cls-5" cx="393.64" cy="193.64" r="4.59" transform="translate(-281.32 154.08) rotate(-35.85)"/><circle class="cls-6" cx="409.13" cy="193.69" r="4.59" transform="translate(-278.41 163.17) rotate(-35.85)"/><path class="cls-5" d="M413.17,143.74l3.44-4.27,33.52,30a.7.7,0,0,1-.69.85Z" transform="translate(-242.48 -113.15)"/><polygon class="cls-4" points="170.68 30.59 174.13 26.32 169.09 23.7 167.03 26.23 170.68 30.59"/><path class="cls-10" d="M411.59,136.86s.62-5.91-9.05-5.48c0,0-.06,7.57,7,8Z" transform="translate(-242.48 -113.15)"/><rect class="cls-3" x="203.97" y="268.63" width="47.92" height="55.25"/><rect class="cls-4" x="203.97" y="271.08" width="48.13" height="4.64"/><rect class="cls-4" x="203.96" y="317.53" width="48.12" height="4.64"/><rect class="cls-4" x="206.69" y="268.63" width="4.22" height="55.48"/><rect class="cls-4" x="245.4" y="268.62" width="4.22" height="55.45"/><rect class="cls-5" x="210.74" y="275.63" width="34.71" height="42"/><rect class="cls-4" x="220.74" y="266.53" width="14.57" height="2.09"/><rect class="cls-3" x="220.74" y="263.46" width="14.57" height="3.09"/><rect class="cls-5" x="224.77" y="247.69" width="6.57" height="15.74"/><rect class="cls-5" x="208.76" y="262.03" width="5.25" height="6.59"/><rect class="cls-5" x="242.32" y="262.01" width="5.25" height="6.59"/><rect class="cls-5" x="194.48" y="323.86" width="69.17" height="5.67"/><rect class="cls-3" x="197.46" y="329.43" width="60.92" height="1.9"/><rect class="cls-4" x="202.08" y="352.34" width="53.22" height="2.84"/><rect class="cls-3" x="202.08" y="355.17" width="53.16" height="2.84"/><rect class="cls-10" x="225.16" y="334.97" width="7.34" height="31.87"/><polygon class="cls-10" points="243.9 334.96 246.8 377.21 252.13 377.21 249.9 334.95 243.9 334.96"/><polygon class="cls-10" points="212.08 334.95 209.18 377.2 203.85 377.2 206.07 334.94 212.08 334.95"/><polygon class="cls-13" points="206.08 334.97 205.74 340.9 211.67 340.86 212.08 334.95 206.08 334.97"/><rect class="cls-13" x="225.17" y="334.87" width="7.34" height="6.24"/><polygon class="cls-13" points="249.88 334.93 250.22 340.86 244.3 340.82 243.89 334.91 249.88 334.93"/><rect class="cls-4" x="197.46" y="331.32" width="60.92" height="3.63"/><path class="cls-4" d="M36.82,266.34H90.51a0,0,0,0,1,0,0v17.49a0,0,0,0,1,0,0H36.75a3.27,3.27,0,0,1-3.27-3.27V269.68A3.34,3.34,0,0,1,36.82,266.34Z"/><rect class="cls-12" x="35.1" y="269.62" width="16.42" height="11.2" rx="1.16" ry="1.16"/><rect class="cls-12" x="53.45" y="269.62" width="16.42" height="11.2" rx="1.16" ry="1.16"/><rect class="cls-12" x="71.98" y="269.62" width="16.42" height="11.2" rx="1.16" ry="1.16"/><rect class="cls-12" x="34.96" y="267.35" width="2.92" height="1.75" rx="0.4" ry="0.4"/><rect class="cls-12" x="39.12" y="267.35" width="2.92" height="1.75" rx="0.4" ry="0.4"/><rect class="cls-12" x="43.47" y="267.35" width="2.92" height="1.75" rx="0.4" ry="0.4"/><rect class="cls-12" x="47.63" y="267.35" width="2.92" height="1.75" rx="0.4" ry="0.4"/><rect class="cls-12" x="52.16" y="267.35" width="2.92" height="1.75" rx="0.4" ry="0.4"/><rect class="cls-12" x="56.32" y="267.35" width="2.92" height="1.75" rx="0.4" ry="0.4"/><rect class="cls-12" x="60.67" y="267.35" width="2.92" height="1.75" rx="0.4" ry="0.4"/><rect class="cls-12" x="64.83" y="267.35" width="2.92" height="1.75" rx="0.4" ry="0.4"/><rect class="cls-12" x="68.94" y="267.35" width="2.92" height="1.75" rx="0.4" ry="0.4"/><rect class="cls-12" x="73.1" y="267.35" width="2.92" height="1.75" rx="0.4" ry="0.4"/><rect class="cls-12" x="77.45" y="267.35" width="2.92" height="1.75" rx="0.4" ry="0.4"/><rect class="cls-12" x="81.61" y="267.35" width="2.92" height="1.75" rx="0.4" ry="0.4"/><rect class="cls-12" x="85.93" y="267.35" width="2.92" height="1.75" rx="0.4" ry="0.4"/><rect class="cls-12" x="34.97" y="281.2" width="2.92" height="1.75" rx="0.4" ry="0.4"/><rect class="cls-12" x="39.13" y="281.2" width="2.92" height="1.75" rx="0.4" ry="0.4"/><rect class="cls-12" x="43.48" y="281.2" width="2.92" height="1.75" rx="0.4" ry="0.4"/><rect class="cls-12" x="47.64" y="281.2" width="2.92" height="1.75" rx="0.4" ry="0.4"/><rect class="cls-12" x="52.17" y="281.2" width="2.92" height="1.75" rx="0.4" ry="0.4"/><rect class="cls-12" x="56.33" y="281.2" width="2.92" height="1.75" rx="0.4" ry="0.4"/><rect class="cls-12" x="60.68" y="281.2" width="2.92" height="1.75" rx="0.4" ry="0.4"/><rect class="cls-12" x="64.84" y="281.2" width="2.92" height="1.75" rx="0.4" ry="0.4"/><rect class="cls-12" x="68.95" y="281.2" width="2.92" height="1.75" rx="0.4" ry="0.4"/><rect class="cls-12" x="73.11" y="281.2" width="2.92" height="1.75" rx="0.4" ry="0.4"/><rect class="cls-12" x="77.46" y="281.2" width="2.92" height="1.75" rx="0.4" ry="0.4"/><rect class="cls-12" x="81.62" y="281.2" width="2.92" height="1.75" rx="0.4" ry="0.4"/><rect class="cls-12" x="85.94" y="281.2" width="2.92" height="1.75" rx="0.4" ry="0.4"/><path class="cls-4" d="M89.05,266.36h54.78a2.25,2.25,0,0,1,2.25,2.25v12.47a2.76,2.76,0,0,1-2.76,2.76H89.05a0,0,0,0,1,0,0V266.36A0,0,0,0,1,89.05,266.36Z"/><rect class="cls-12" x="90.68" y="269.67" width="16.42" height="11.14" rx="1.16" ry="1.16"/><rect class="cls-12" x="109.02" y="269.7" width="16.42" height="11.17" rx="1.16" ry="1.16"/><rect class="cls-12" x="127.55" y="269.7" width="16.42" height="11.17" rx="1.16" ry="1.16"/><rect class="cls-12" x="90.53" y="267.31" width="2.92" height="1.79" rx="0.4" ry="0.4"/><rect class="cls-12" x="94.69" y="267.31" width="2.92" height="1.79" rx="0.4" ry="0.4"/><rect class="cls-12" x="99.04" y="267.31" width="2.92" height="1.79" rx="0.4" ry="0.4"/><rect class="cls-12" x="103.2" y="267.31" width="2.92" height="1.79" rx="0.4" ry="0.4"/><rect class="cls-12" x="107.74" y="267.31" width="2.92" height="1.79" rx="0.4" ry="0.4"/><rect class="cls-12" x="111.9" y="267.31" width="2.92" height="1.79" rx="0.4" ry="0.4"/><rect class="cls-12" x="116.24" y="267.31" width="2.92" height="1.79" rx="0.4" ry="0.4"/><rect class="cls-12" x="120.4" y="267.31" width="2.92" height="1.79" rx="0.4" ry="0.4"/><rect class="cls-12" x="124.51" y="267.31" width="2.92" height="1.79" rx="0.4" ry="0.4"/><rect class="cls-12" x="128.67" y="267.31" width="2.92" height="1.79" rx="0.4" ry="0.4"/><rect class="cls-12" x="133.02" y="267.31" width="2.92" height="1.79" rx="0.4" ry="0.4"/><rect class="cls-12" x="137.18" y="267.31" width="2.92" height="1.79" rx="0.4" ry="0.4"/><rect class="cls-12" x="141.5" y="267.31" width="2.92" height="1.79" rx="0.4" ry="0.4"/><rect class="cls-12" x="90.54" y="281.27" width="2.92" height="1.75" rx="0.4" ry="0.4"/><rect class="cls-12" x="94.7" y="281.27" width="2.92" height="1.75" rx="0.4" ry="0.4"/><rect class="cls-12" x="99.05" y="281.27" width="2.92" height="1.75" rx="0.4" ry="0.4"/><rect class="cls-12" x="103.21" y="281.27" width="2.92" height="1.75" rx="0.4" ry="0.4"/><rect class="cls-12" x="107.75" y="281.27" width="2.92" height="1.75" rx="0.4" ry="0.4"/><rect class="cls-12" x="111.91" y="281.27" width="2.92" height="1.75" rx="0.4" ry="0.4"/><rect class="cls-12" x="116.25" y="281.27" width="2.92" height="1.75" rx="0.4" ry="0.4"/><rect class="cls-12" x="120.41" y="281.27" width="2.92" height="1.75" rx="0.4" ry="0.4"/><rect class="cls-12" x="124.52" y="281.27" width="2.92" height="1.75" rx="0.4" ry="0.4"/><rect class="cls-12" x="128.68" y="281.27" width="2.92" height="1.75" rx="0.4" ry="0.4"/><rect class="cls-12" x="133.03" y="281.27" width="2.92" height="1.75" rx="0.4" ry="0.4"/><rect class="cls-12" x="137.19" y="281.27" width="2.92" height="1.75" rx="0.4" ry="0.4"/><rect class="cls-12" x="141.51" y="281.25" width="2.92" height="1.79" rx="0.4" ry="0.4"/><path class="cls-4" d="M82.64,298h45.24a0,0,0,0,1,0,0V312.7a0,0,0,0,1,0,0H82.58a2.75,2.75,0,0,1-2.75-2.75v-9.18A2.81,2.81,0,0,1,82.64,298Z"/><rect class="cls-12" x="81.2" y="300.72" width="13.84" height="9.44" rx="0.98" ry="0.98"/><rect class="cls-12" x="96.66" y="300.72" width="13.84" height="9.44" rx="0.98" ry="0.98"/><rect class="cls-12" x="112.27" y="300.72" width="13.84" height="9.44" rx="0.98" ry="0.98"/><rect class="cls-12" x="81.07" y="298.8" width="2.46" height="1.48" rx="0.34" ry="0.34"/><rect class="cls-12" x="84.58" y="298.8" width="2.46" height="1.48" rx="0.34" ry="0.34"/><rect class="cls-12" x="88.24" y="298.8" width="2.46" height="1.48" rx="0.34" ry="0.34"/><rect class="cls-12" x="91.75" y="298.8" width="2.46" height="1.48" rx="0.34" ry="0.34"/><rect class="cls-12" x="95.57" y="298.8" width="2.46" height="1.48" rx="0.34" ry="0.34"/><rect class="cls-12" x="99.08" y="298.8" width="2.46" height="1.48" rx="0.34" ry="0.34"/><rect class="cls-12" x="102.74" y="298.8" width="2.46" height="1.48" rx="0.34" ry="0.34"/><rect class="cls-12" x="106.25" y="298.8" width="2.46" height="1.48" rx="0.34" ry="0.34"/><rect class="cls-12" x="109.71" y="298.8" width="2.46" height="1.48" rx="0.34" ry="0.34"/><rect class="cls-12" x="113.21" y="298.8" width="2.46" height="1.48" rx="0.34" ry="0.34"/><rect class="cls-12" x="116.87" y="298.8" width="2.46" height="1.48" rx="0.34" ry="0.34"/><rect class="cls-12" x="120.38" y="298.8" width="2.46" height="1.48" rx="0.34" ry="0.34"/><rect class="cls-12" x="124.02" y="298.8" width="2.46" height="1.48" rx="0.34" ry="0.34"/><rect class="cls-12" x="81.08" y="310.48" width="2.46" height="1.48" rx="0.34" ry="0.34"/><rect class="cls-12" x="84.58" y="310.48" width="2.46" height="1.48" rx="0.34" ry="0.34"/><rect class="cls-12" x="88.25" y="310.48" width="2.46" height="1.48" rx="0.34" ry="0.34"/><rect class="cls-12" x="91.75" y="310.48" width="2.46" height="1.48" rx="0.34" ry="0.34"/><rect class="cls-12" x="95.58" y="310.48" width="2.46" height="1.48" rx="0.34" ry="0.34"/><rect class="cls-12" x="99.08" y="310.48" width="2.46" height="1.48" rx="0.34" ry="0.34"/><rect class="cls-12" x="102.75" y="310.48" width="2.46" height="1.48" rx="0.34" ry="0.34"/><rect class="cls-12" x="106.25" y="310.48" width="2.46" height="1.48" rx="0.34" ry="0.34"/><rect class="cls-12" x="109.71" y="310.48" width="2.46" height="1.48" rx="0.34" ry="0.34"/><rect class="cls-12" x="113.22" y="310.48" width="2.46" height="1.48" rx="0.34" ry="0.34"/><rect class="cls-12" x="116.88" y="310.48" width="2.46" height="1.48" rx="0.34" ry="0.34"/><rect class="cls-12" x="120.39" y="310.48" width="2.46" height="1.48" rx="0.34" ry="0.34"/><rect class="cls-12" x="124.03" y="310.48" width="2.46" height="1.48" rx="0.34" ry="0.34"/><path class="cls-4" d="M126.66,298h46.16a1.89,1.89,0,0,1,1.89,1.89v10.5a2.33,2.33,0,0,1-2.33,2.33H126.66a0,0,0,0,1,0,0V298A0,0,0,0,1,126.66,298Z"/><rect class="cls-12" x="128.02" y="300.76" width="13.84" height="9.39" rx="0.98" ry="0.98"/><rect class="cls-12" x="143.48" y="300.79" width="13.84" height="9.41" rx="0.98" ry="0.98"/><rect class="cls-12" x="159.1" y="300.79" width="13.84" height="9.41" rx="0.98" ry="0.98"/><rect class="cls-12" x="127.9" y="298.77" width="2.46" height="1.51" rx="0.34" ry="0.34"/><rect class="cls-12" x="131.41" y="298.77" width="2.46" height="1.51" rx="0.34" ry="0.34"/><rect class="cls-12" x="135.07" y="298.77" width="2.46" height="1.51" rx="0.34" ry="0.34"/><rect class="cls-12" x="138.57" y="298.77" width="2.46" height="1.51" rx="0.34" ry="0.34"/><rect class="cls-12" x="142.4" y="298.77" width="2.46" height="1.51" rx="0.34" ry="0.34"/><rect class="cls-12" x="145.91" y="298.77" width="2.46" height="1.51" rx="0.34" ry="0.34"/><rect class="cls-12" x="149.57" y="298.77" width="2.46" height="1.51" rx="0.34" ry="0.34"/><rect class="cls-12" x="153.07" y="298.77" width="2.46" height="1.51" rx="0.34" ry="0.34"/><rect class="cls-12" x="156.53" y="298.77" width="2.46" height="1.51" rx="0.34" ry="0.34"/><rect class="cls-12" x="160.04" y="298.77" width="2.46" height="1.51" rx="0.34" ry="0.34"/><rect class="cls-12" x="163.7" y="298.77" width="2.46" height="1.51" rx="0.34" ry="0.34"/><rect class="cls-12" x="167.21" y="298.77" width="2.46" height="1.51" rx="0.34" ry="0.34"/><rect class="cls-12" x="170.85" y="298.77" width="2.46" height="1.51" rx="0.34" ry="0.34"/><rect class="cls-12" x="127.91" y="310.54" width="2.46" height="1.47" rx="0.34" ry="0.34"/><rect class="cls-12" x="131.41" y="310.54" width="2.46" height="1.47" rx="0.34" ry="0.34"/><rect class="cls-12" x="135.08" y="310.54" width="2.46" height="1.47" rx="0.34" ry="0.34"/><rect class="cls-12" x="138.58" y="310.54" width="2.46" height="1.47" rx="0.34" ry="0.34"/><rect class="cls-12" x="142.41" y="310.54" width="2.46" height="1.47" rx="0.34" ry="0.34"/><rect class="cls-12" x="145.91" y="310.54" width="2.46" height="1.47" rx="0.34" ry="0.34"/><rect class="cls-12" x="149.58" y="310.54" width="2.46" height="1.47" rx="0.34" ry="0.34"/><rect class="cls-12" x="153.08" y="310.54" width="2.46" height="1.47" rx="0.34" ry="0.34"/><rect class="cls-12" x="156.54" y="310.54" width="2.46" height="1.47" rx="0.34" ry="0.34"/><rect class="cls-12" x="160.05" y="310.54" width="2.46" height="1.47" rx="0.34" ry="0.34"/><rect class="cls-12" x="163.71" y="310.54" width="2.46" height="1.47" rx="0.34" ry="0.34"/><rect class="cls-12" x="167.22" y="310.54" width="2.46" height="1.47" rx="0.34" ry="0.34"/><rect class="cls-12" x="170.86" y="310.52" width="2.46" height="1.51" rx="0.34" ry="0.34"/><rect class="cls-10" x="37.25" y="283.82" width="104.92" height="1.78" rx="0.84" ry="0.84"/><rect class="cls-5" x="82.61" y="312.67" width="88.86" height="1.85" rx="0.78" ry="0.78"/></svg>