<svg id="Calque_1" data-name="Calque 1" xmlns="http://www.w3.org/2000/svg" viewBox="0 0 348.93 347.64"><defs><style>.cls-1{fill:#333e9c;}.cls-2{fill:#a3aef0;}.cls-3{fill:#65aba4;}.cls-4{fill:#31cfff;}.cls-5{fill:#fff;stroke:#f5b37b;stroke-width:6.43px;}.cls-22,.cls-23,.cls-5{stroke-miterlimit:10;}.cls-6{fill:#f7faea;}.cls-7{fill:#e0bbc8;}.cls-8{fill:#3343a6;}.cls-9{fill:#f5b37b;}.cls-10{fill:#f4efe1;}.cls-11{fill:#e8b68e;}.cls-12{fill:#e9d5c6;}.cls-13{fill:#90a2ee;}.cls-14{fill:#68b0a4;}.cls-15{fill:#97dede;}.cls-16{fill:#deb5c4;}.cls-17{fill:#d9a5ba;}.cls-18{fill:#3542a5;}.cls-19{fill:#66aea5;}.cls-20{fill:#97dddc;}.cls-21{fill:#9af3f2;}.cls-22,.cls-23{fill:none;stroke-linecap:round;stroke-width:0.72px;}.cls-22{stroke:#333e9c;}.cls-23{stroke:#f7faea;}</style></defs><title>Hyblab_picto1</title><circle class="cls-1" cx="157.29" cy="193.48" r="131.24"/><rect class="cls-2" x="2.91" y="195.87" width="346.02" height="30.67" rx="15.34" ry="15.34"/><path class="cls-3" d="M345.74,303.09H524.41s.42-24.52-28.67-15.79c0,0-8.22-27.07-52-20.11,0,0-29.11-32.59-67.93-12.19S345.74,303.09,345.74,303.09Z" transform="translate(-251.25 -109.22)"/><path class="cls-4" d="M478.73,234.27h94.54s-1.42-13.51-16.35-7.82c0,0-8.17-16.7-26.3-7.82,0,0-23.42-24-44.5-3.4C486.12,215.23,479.06,221.19,478.73,234.27Z" transform="translate(-251.25 -109.22)"/><circle class="cls-5" cx="157.29" cy="53.11" r="49.89"/><path class="cls-4" d="M316.5,238.41H251.25s1-9.32,11.28-5.4c0,0,5.64-11.53,18.15-5.4,0,0,16.16-16.6,30.71-2.35C311.4,225.27,316.27,229.38,316.5,238.41Z" transform="translate(-251.25 -109.22)"/><rect class="cls-6" x="185.8" y="165.7" width="61.03" height="26.58"/><rect class="cls-7" x="246.83" y="168.19" width="4.32" height="24.09"/><rect class="cls-6" x="251.15" y="165.7" width="45.59" height="18.37"/><path class="cls-7" d="M547.92,274.92s9.68,6.86,12.66,18.42l-12.6-.09Z" transform="translate(-251.25 -109.22)"/><rect class="cls-8" x="294.59" y="183.65" width="14.74" height="2.48"/><rect class="cls-6" x="251.13" y="186.19" width="35.65" height="6.09"/><path class="cls-6" d="M546,295.35h14.62a3.69,3.69,0,0,1-.93,2.7c-1.08,1.08-2.54,2.58-2.54,2.58L545.84,302Z" transform="translate(-251.25 -109.22)"/><rect class="cls-7" x="185.8" y="192.28" width="111.07" height="1.36"/><path class="cls-7" d="M560.7,296.59s-2.42,5.13-12.66,4.91v1.36s12.42.69,12.73-6.26" transform="translate(-251.25 -109.22)"/><rect class="cls-7" x="253.33" y="170.05" width="41.39" height="13.7"/><rect class="cls-7" x="187.56" y="170.16" width="57.04" height="13.49"/><rect class="cls-8" x="185.71" y="183.65" width="61.12" height="2.54"/><rect class="cls-7" x="206.95" y="183.53" width="18.27" height="8.75"/><rect class="cls-8" x="251.15" y="183.65" width="35.89" height="2.54"/><rect class="cls-9" x="286.78" y="183.65" width="7.93" height="8.63"/><path class="cls-3" d="M490.79,335.69h24.86c2-1.81,1.72-24.47-13.15-23.37C488.31,313.38,490.79,335.69,490.79,335.69Z" transform="translate(-251.25 -109.22)"/><path class="cls-4" d="M493.26,335.69s-1.38-17.91,7.14-23c0,0-11.48,1.27-9.61,23Z" transform="translate(-251.25 -109.22)"/><path class="cls-3" d="M459.27,335.69h24.86c2-1.81,1.72-24.47-13.15-23.37C456.8,313.38,459.27,335.69,459.27,335.69Z" transform="translate(-251.25 -109.22)"/><path class="cls-4" d="M461.75,335.69s-1.38-17.91,7.14-23c0,0-11.48,1.27-9.61,23Z" transform="translate(-251.25 -109.22)"/><path class="cls-3" d="M427.66,335.69h24.86c2-1.81,1.72-24.47-13.15-23.37C425.18,313.38,427.66,335.69,427.66,335.69Z" transform="translate(-251.25 -109.22)"/><path class="cls-4" d="M430.13,335.69s-1.38-17.91,7.14-23c0,0-11.48,1.27-9.61,23Z" transform="translate(-251.25 -109.22)"/><rect class="cls-6" x="70.62" y="132.55" width="13.43" height="24.78"/><polygon class="cls-10" points="97.41 113.26 83.7 132.55 83.7 157.34 111.11 157.34 111.11 132.55 97.41 113.26"/><polygon class="cls-7" points="83.7 132.55 97.41 113.26 84.06 113.26 70.63 132.55 83.7 132.55"/><rect class="cls-11" x="76.14" y="135.61" width="2.46" height="5.09"/><rect class="cls-12" x="76.13" y="135.61" width="1.48" height="5.09"/><rect class="cls-11" x="76.13" y="142.43" width="2.46" height="5.09"/><rect class="cls-12" x="76.13" y="142.43" width="1.46" height="5.09"/><rect class="cls-11" x="89.8" y="135.61" width="2.46" height="5.09"/><rect class="cls-12" x="89.8" y="135.61" width="1.46" height="5.09"/><rect class="cls-11" x="94.31" y="135.61" width="2.46" height="5.09"/><rect class="cls-12" x="94.31" y="135.61" width="1.46" height="5.09"/><rect class="cls-11" x="98.73" y="135.61" width="2.46" height="5.09"/><rect class="cls-12" x="98.73" y="135.61" width="1.46" height="5.09"/><rect class="cls-11" x="103.1" y="135.61" width="2.46" height="5.09"/><rect class="cls-12" x="103.1" y="135.61" width="1.46" height="5.09"/><rect class="cls-11" x="89.8" y="142.5" width="2.46" height="5.09"/><rect class="cls-12" x="89.8" y="142.5" width="1.46" height="5.09"/><rect class="cls-11" x="94.31" y="142.5" width="2.46" height="5.09"/><rect class="cls-12" x="94.31" y="142.5" width="1.46" height="5.09"/><rect class="cls-11" x="98.73" y="142.5" width="2.46" height="5.09"/><rect class="cls-12" x="98.73" y="142.5" width="1.46" height="5.09"/><rect class="cls-11" x="103.1" y="142.5" width="2.46" height="5.09"/><rect class="cls-12" x="103.1" y="142.5" width="1.46" height="5.09"/><rect class="cls-11" x="89.8" y="149.34" width="2.46" height="5.09"/><rect class="cls-12" x="89.8" y="149.34" width="1.46" height="5.09"/><rect class="cls-11" x="94.32" y="149.34" width="2.46" height="5.09"/><rect class="cls-12" x="94.32" y="149.34" width="1.46" height="5.09"/><rect class="cls-11" x="98.73" y="149.34" width="2.46" height="5.09"/><rect class="cls-12" x="98.73" y="149.34" width="1.46" height="5.09"/><rect class="cls-11" x="103.1" y="149.34" width="2.46" height="5.09"/><rect class="cls-12" x="103.1" y="149.34" width="1.46" height="5.09"/><rect class="cls-11" x="76.22" y="149.18" width="2.46" height="5.09"/><rect class="cls-12" x="76.22" y="149.18" width="1.46" height="5.09"/><rect class="cls-2" x="84.49" y="111.4" width="1.46" height="1.85"/><rect class="cls-2" x="86.13" y="110.89" width="1.46" height="2.36"/><rect class="cls-2" x="84.06" y="113.14" width="13.35" height="0.11"/><rect class="cls-2" x="109.65" y="133.55" width="13.43" height="33.61"/><polygon class="cls-13" points="136.37 114.28 122.78 133.49 122.66 167.17 150.07 167.17 150.07 137.43 136.37 114.28"/><polygon class="cls-6" points="122.72 133.55 136.43 114.25 123.08 114.25 109.64 133.55 122.72 133.55"/><rect class="cls-14" x="117.43" y="136.61" width="2.46" height="5.09"/><rect class="cls-4" x="117.42" y="136.61" width="1.48" height="5.09"/><rect class="cls-14" x="117.42" y="143.51" width="2.46" height="5.09"/><rect class="cls-4" x="117.44" y="143.52" width="1.46" height="5.09"/><rect class="cls-14" x="128.82" y="136.61" width="2.46" height="5.09"/><rect class="cls-4" x="128.82" y="136.61" width="1.46" height="5.09"/><rect class="cls-14" x="133.34" y="136.61" width="2.46" height="5.09"/><rect class="cls-4" x="133.34" y="136.61" width="1.46" height="5.09"/><rect class="cls-14" x="137.75" y="136.61" width="2.46" height="5.09"/><rect class="cls-4" x="137.75" y="136.61" width="1.46" height="5.09"/><rect class="cls-14" x="142.12" y="136.61" width="2.46" height="5.09"/><rect class="cls-4" x="142.12" y="136.61" width="1.46" height="5.09"/><rect class="cls-14" x="128.82" y="143.5" width="2.46" height="5.09"/><rect class="cls-4" x="128.82" y="143.5" width="1.46" height="5.09"/><rect class="cls-14" x="133.34" y="143.5" width="2.46" height="5.09"/><rect class="cls-4" x="133.34" y="143.5" width="1.46" height="5.09"/><rect class="cls-14" x="137.75" y="143.5" width="2.46" height="5.09"/><rect class="cls-4" x="137.75" y="143.5" width="1.46" height="5.09"/><rect class="cls-14" x="142.12" y="143.5" width="2.46" height="5.09"/><rect class="cls-4" x="142.12" y="143.5" width="1.46" height="5.09"/><rect class="cls-14" x="128.82" y="150.34" width="2.46" height="5.09"/><rect class="cls-4" x="128.82" y="150.34" width="1.46" height="5.09"/><rect class="cls-14" x="133.34" y="150.34" width="2.46" height="5.09"/><rect class="cls-4" x="133.34" y="150.34" width="1.46" height="5.09"/><rect class="cls-14" x="137.75" y="150.34" width="2.46" height="5.09"/><rect class="cls-4" x="137.75" y="150.34" width="1.46" height="5.09"/><rect class="cls-14" x="142.12" y="150.34" width="2.46" height="5.09"/><rect class="cls-4" x="142.12" y="150.34" width="1.46" height="5.09"/><rect class="cls-14" x="117.44" y="150.35" width="2.46" height="5.09"/><rect class="cls-4" x="117.44" y="150.35" width="1.46" height="5.09"/><rect class="cls-9" x="123.51" y="112.4" width="1.46" height="1.85"/><rect class="cls-9" x="125.15" y="111.88" width="1.46" height="2.36"/><rect class="cls-9" x="123.08" y="114.14" width="13.35" height="0.11"/><rect class="cls-14" x="128.74" y="157.01" width="2.46" height="5.09"/><rect class="cls-4" x="128.74" y="157.01" width="1.46" height="5.09"/><rect class="cls-14" x="133.26" y="157.01" width="2.46" height="5.09"/><rect class="cls-4" x="133.26" y="157.01" width="1.46" height="5.09"/><rect class="cls-14" x="137.67" y="157.01" width="2.46" height="5.09"/><rect class="cls-4" x="137.67" y="157.01" width="1.46" height="5.09"/><rect class="cls-14" x="142.05" y="157.01" width="2.46" height="5.09"/><rect class="cls-4" x="142.05" y="157.01" width="1.46" height="5.09"/><rect class="cls-14" x="117.44" y="157.05" width="2.46" height="5.09"/><rect class="cls-15" x="117.44" y="157.05" width="1.46" height="5.09"/><rect class="cls-14" x="112.28" y="157.07" width="2.46" height="5.09"/><rect class="cls-4" x="112.28" y="157.07" width="1.46" height="5.09"/><rect class="cls-14" x="112.28" y="150.3" width="2.46" height="5.09"/><rect class="cls-4" x="112.28" y="150.3" width="1.46" height="5.09"/><rect class="cls-14" x="112.28" y="143.54" width="2.46" height="5.09"/><rect class="cls-4" x="112.28" y="143.54" width="1.46" height="5.09"/><rect class="cls-14" x="112.28" y="136.56" width="2.46" height="5.09"/><rect class="cls-4" x="112.28" y="136.56" width="1.46" height="5.09"/><rect class="cls-16" x="150.07" y="158.21" width="10.53" height="26.36"/><polygon class="cls-17" points="171.03 143.1 160.37 158.17 160.28 184.58 181.77 184.58 181.77 161.26 171.03 143.1"/><polygon class="cls-9" points="160.32 158.21 171.07 143.08 160.6 143.08 150.07 158.21 160.32 158.21"/><rect class="cls-18" x="156.18" y="160.61" width="1.93" height="3.99"/><rect class="cls-13" x="156.17" y="160.61" width="1.16" height="3.99"/><rect class="cls-18" x="156.17" y="166.02" width="1.93" height="3.99"/><rect class="cls-13" x="156.18" y="166.03" width="1.15" height="3.99"/><rect class="cls-18" x="165.11" y="160.61" width="1.93" height="3.99"/><rect class="cls-13" x="165.11" y="160.61" width="1.15" height="3.99"/><rect class="cls-18" x="168.65" y="160.61" width="1.93" height="3.99"/><rect class="cls-13" x="168.65" y="160.61" width="1.15" height="3.99"/><rect class="cls-18" x="172.11" y="160.61" width="1.93" height="3.99"/><rect class="cls-13" x="172.11" y="160.61" width="1.15" height="3.99"/><rect class="cls-18" x="175.54" y="160.61" width="1.93" height="3.99"/><rect class="cls-13" x="175.54" y="160.61" width="1.15" height="3.99"/><rect class="cls-18" x="165.11" y="166.02" width="1.93" height="3.99"/><rect class="cls-13" x="165.11" y="166.02" width="1.15" height="3.99"/><rect class="cls-18" x="168.65" y="166.02" width="1.93" height="3.99"/><rect class="cls-13" x="168.65" y="166.02" width="1.15" height="3.99"/><rect class="cls-18" x="172.11" y="166.02" width="1.93" height="3.99"/><rect class="cls-13" x="172.11" y="166.02" width="1.15" height="3.99"/><rect class="cls-18" x="175.54" y="166.02" width="1.93" height="3.99"/><rect class="cls-13" x="175.54" y="166.02" width="1.15" height="3.99"/><rect class="cls-18" x="165.11" y="171.38" width="1.93" height="3.99"/><rect class="cls-13" x="165.11" y="171.38" width="1.15" height="3.99"/><rect class="cls-18" x="168.65" y="171.38" width="1.93" height="3.99"/><rect class="cls-13" x="168.65" y="171.38" width="1.15" height="3.99"/><rect class="cls-18" x="172.11" y="171.38" width="1.93" height="3.99"/><rect class="cls-13" x="172.11" y="171.38" width="1.15" height="3.99"/><rect class="cls-18" x="175.54" y="171.38" width="1.93" height="3.99"/><rect class="cls-13" x="175.54" y="171.38" width="1.15" height="3.99"/><rect class="cls-18" x="156.18" y="171.39" width="1.93" height="3.99"/><rect class="cls-13" x="156.18" y="171.39" width="1.15" height="3.99"/><rect class="cls-6" x="160.94" y="141.63" width="1.14" height="1.45"/><rect class="cls-6" x="162.23" y="141.23" width="1.14" height="1.85"/><rect class="cls-6" x="160.61" y="142.99" width="10.47" height="0.09"/><rect class="cls-18" x="165.05" y="176.61" width="1.93" height="3.99"/><rect class="cls-13" x="165.05" y="176.61" width="1.15" height="3.99"/><rect class="cls-18" x="168.59" y="176.61" width="1.93" height="3.99"/><rect class="cls-13" x="168.59" y="176.61" width="1.15" height="3.99"/><rect class="cls-18" x="172.05" y="176.61" width="1.93" height="3.99"/><rect class="cls-13" x="172.05" y="176.61" width="1.15" height="3.99"/><rect class="cls-18" x="175.48" y="176.61" width="1.93" height="3.99"/><rect class="cls-13" x="175.48" y="176.61" width="1.15" height="3.99"/><rect class="cls-18" x="156.18" y="176.64" width="1.93" height="3.99"/><rect class="cls-13" x="156.18" y="176.64" width="1.15" height="3.99"/><rect class="cls-18" x="152.14" y="176.66" width="1.93" height="3.99"/><rect class="cls-13" x="152.14" y="176.66" width="1.15" height="3.99"/><rect class="cls-18" x="152.14" y="171.34" width="1.93" height="3.99"/><rect class="cls-13" x="152.14" y="171.34" width="1.15" height="3.99"/><rect class="cls-18" x="152.14" y="166.05" width="1.93" height="3.99"/><rect class="cls-13" x="152.14" y="166.05" width="1.15" height="3.99"/><rect class="cls-18" x="152.14" y="160.57" width="1.93" height="3.99"/><rect class="cls-13" x="152.14" y="160.57" width="1.15" height="3.99"/><path class="cls-4" d="M258,303.51l187.44-.42s.44-24.52-30.11-15.79c0,0-8.63-27.07-54.62-20.11,0,0-30.57-32.59-71.34-12.19S258,303.51,258,303.51Z" transform="translate(-251.25 -109.22)"/><polyline class="cls-19" points="18.62 195.78 338.28 195.78 338.28 193.48"/><rect class="cls-3" x="6.26" y="193.62" width="334.6" height="2.7" rx="1.35" ry="1.35"/><rect class="cls-3" x="18.97" y="237.2" width="298.8" height="2.41" rx="1.2" ry="1.2"/><path class="cls-3" d="M523,335.69h24.86c2-1.81,1.72-24.47-13.15-23.37C520.49,313.38,523,335.69,523,335.69Z" transform="translate(-251.25 -109.22)"/><path class="cls-4" d="M525.44,335.69s-1.38-17.91,7.14-23c0,0-11.48,1.27-9.61,23Z" transform="translate(-251.25 -109.22)"/><rect class="cls-4" x="13.96" y="225.51" width="309.18" height="11.68" rx="5.84" ry="5.84"/><path class="cls-9" d="M302.68,342.4l41.44.07s2.21-22.14-16-22.4c-15.9-.22-16.68,10.36-16.68,10.36S300,331.07,302.68,342.4Z" transform="translate(-251.25 -109.22)"/><path class="cls-6" d="M313.51,330.61s2.14-8,10.49-8.47v8.48Z" transform="translate(-251.25 -109.22)"/><path class="cls-6" d="M325,322s11.61-2.47,16.22,8.57H325Z" transform="translate(-251.25 -109.22)"/><ellipse class="cls-6" cx="92.72" cy="226.12" rx="0.91" ry="1.62"/><ellipse class="cls-1" cx="303.65" cy="337.71" rx="1.9" ry="1.27" transform="translate(-375.34 381.08) rotate(-67.67)"/><ellipse class="cls-6" cx="303.63" cy="337.74" rx="1.41" ry="0.95" transform="translate(-375.38 381.09) rotate(-67.67)"/><circle class="cls-1" cx="61.01" cy="232.87" r="4.31"/><circle class="cls-6" cx="60.97" cy="232.87" r="1.85"/><circle class="cls-1" cx="84.59" cy="232.87" r="4.31"/><circle class="cls-6" cx="84.55" cy="232.87" r="1.85"/><path class="cls-1" d="M363.33,342.4l41.44.07s2.21-22.14-16-22.4c-15.9-.22-16.68,10.36-16.68,10.36S360.63,331.07,363.33,342.4Z" transform="translate(-251.25 -109.22)"/><path class="cls-6" d="M374.16,330.61s2.14-8,10.49-8.47v8.48Z" transform="translate(-251.25 -109.22)"/><path class="cls-6" d="M385.64,322s11.61-2.47,16.22,8.57H385.63Z" transform="translate(-251.25 -109.22)"/><ellipse class="cls-9" cx="153.37" cy="226.12" rx="0.91" ry="1.62"/><ellipse class="cls-9" cx="364.3" cy="337.71" rx="1.9" ry="1.27" transform="translate(-337.73 437.19) rotate(-67.67)"/><ellipse class="cls-7" cx="364.28" cy="337.74" rx="1.41" ry="0.95" transform="translate(-337.77 437.2) rotate(-67.67)"/><circle class="cls-9" cx="121.66" cy="232.87" r="4.31"/><circle class="cls-6" cx="121.62" cy="232.87" r="1.85"/><circle class="cls-9" cx="145.24" cy="232.87" r="4.31"/><circle class="cls-6" cx="145.2" cy="232.87" r="1.85"/><rect class="cls-3" x="148.38" y="276.53" width="186.5" height="71.1" rx="34.17" ry="34.17"/><path class="cls-7" d="M465.31,392.93H573.5s.25-14.84-17.36-9.56c0,0-5-16.39-31.49-12.18,0,0-17.63-19.74-41.13-7.38S465.31,392.93,465.31,392.93Z" transform="translate(-251.25 -109.22)"/><path class="cls-9" d="M412.18,393.19l113.5-.25s.26-14.84-18.23-9.56c0,0-5.23-16.39-33.07-12.18,0,0-18.51-19.74-43.2-7.38S412.18,393.19,412.18,393.19Z" transform="translate(-251.25 -109.22)"/><rect class="cls-4" x="159.79" y="283.17" width="163.77" height="2.41" rx="1.2" ry="1.2"/><rect class="cls-7" x="172.74" y="297.8" width="1.56" height="5.11" rx="0.71" ry="0.71"/><ellipse class="cls-9" cx="173.61" cy="302.9" rx="3.21" ry="0.29"/><polygon class="cls-9" points="170.24 294.92 173.63 290.02 177.22 294.92 170.24 294.92"/><polygon class="cls-9" points="170.24 297.35 173.63 292.45 177.22 297.35 170.24 297.35"/><polygon class="cls-9" points="170.24 299.76 173.63 294.86 177.22 299.76 170.24 299.76"/><rect class="cls-1" x="159.89" y="308.4" width="1.56" height="5.11" rx="0.71" ry="0.71"/><ellipse class="cls-4" cx="160.76" cy="313.49" rx="3.21" ry="0.29"/><polygon class="cls-13" points="157.39 305.52 160.77 300.62 164.37 305.52 157.39 305.52"/><polygon class="cls-13" points="157.39 307.95 160.77 303.05 164.37 307.95 157.39 307.95"/><polygon class="cls-13" points="157.39 310.35 160.77 305.45 164.37 310.35 157.39 310.35"/><rect class="cls-6" x="176.28" y="316.75" width="1.56" height="5.11" rx="0.71" ry="0.71"/><ellipse class="cls-1" cx="177.15" cy="321.84" rx="3.21" ry="0.29"/><polygon class="cls-4" points="173.78 313.87 177.17 308.97 180.76 313.87 173.78 313.87"/><polygon class="cls-4" points="173.78 316.3 177.17 311.4 180.76 316.3 173.78 316.3"/><polygon class="cls-4" points="173.78 318.7 177.17 313.8 180.76 318.7 173.78 318.7"/><rect class="cls-13" x="165.18" y="329.24" width="1.56" height="5.11" rx="0.71" ry="0.71"/><ellipse class="cls-9" cx="166.05" cy="334.33" rx="3.21" ry="0.29"/><polygon class="cls-7" points="162.68 326.35 166.07 321.45 169.66 326.35 162.68 326.35"/><polygon class="cls-7" points="162.68 328.79 166.07 323.89 169.66 328.79 162.68 328.79"/><polygon class="cls-7" points="162.68 331.19 166.07 326.29 169.66 331.19 162.68 331.19"/><rect class="cls-9" x="181.35" y="335.17" width="1.56" height="5.11" rx="0.71" ry="0.71"/><ellipse class="cls-6" cx="182.22" cy="340.27" rx="3.21" ry="0.29"/><polygon class="cls-1" points="178.85 332.29 182.23 327.39 185.83 332.29 178.85 332.29"/><polygon class="cls-1" points="178.85 334.73 182.23 329.82 185.83 334.73 178.85 334.73"/><polygon class="cls-1" points="178.85 337.13 182.23 332.23 185.83 337.13 178.85 337.13"/><rect class="cls-4" x="190.21" y="306.41" width="1.56" height="5.11" rx="0.71" ry="0.71"/><ellipse class="cls-13" cx="191.09" cy="311.5" rx="3.21" ry="0.29"/><polygon class="cls-6" points="187.71 303.53 191.1 298.63 194.69 303.53 187.71 303.53"/><polygon class="cls-6" points="187.71 305.96 191.1 301.06 194.69 305.96 187.71 305.96"/><polygon class="cls-6" points="187.71 308.36 191.1 303.46 194.69 308.36 187.71 308.36"/><rect class="cls-1" x="194.26" y="325.24" width="1.56" height="5.11" rx="0.71" ry="0.71"/><ellipse class="cls-4" cx="195.14" cy="330.33" rx="3.21" ry="0.29"/><polygon class="cls-13" points="191.76 322.36 195.15 317.45 198.75 322.36 191.76 322.36"/><polygon class="cls-13" points="191.76 324.79 195.15 319.89 198.75 324.79 191.76 324.79"/><polygon class="cls-13" points="191.76 327.19 195.15 322.29 198.75 327.19 191.76 327.19"/><rect class="cls-7" x="206.15" y="338.06" width="1.56" height="5.11" rx="0.71" ry="0.71"/><ellipse class="cls-9" cx="207.02" cy="343.15" rx="3.21" ry="0.29"/><polygon class="cls-9" points="203.65 335.17 207.04 330.27 210.63 335.17 203.65 335.17"/><polygon class="cls-9" points="203.65 337.61 207.04 332.71 210.63 337.61 203.65 337.61"/><polygon class="cls-9" points="203.65 340.01 207.04 335.11 210.63 340.01 203.65 340.01"/><rect class="cls-13" x="205.02" y="297.58" width="1.56" height="5.11" rx="0.71" ry="0.71"/><ellipse class="cls-9" cx="205.89" cy="302.68" rx="3.21" ry="0.29"/><polygon class="cls-7" points="202.52 294.7 205.91 289.8 209.5 294.7 202.52 294.7"/><polygon class="cls-7" points="202.52 297.13 205.91 292.23 209.5 297.13 202.52 297.13"/><polygon class="cls-7" points="202.52 299.54 205.91 294.64 209.5 299.54 202.52 299.54"/><rect class="cls-4" x="218.81" y="330.25" width="1.56" height="5.11" rx="0.71" ry="0.71"/><ellipse class="cls-13" cx="219.68" cy="335.35" rx="3.21" ry="0.29"/><polygon class="cls-6" points="216.31 327.37 219.7 322.47 223.29 327.37 216.31 327.37"/><polygon class="cls-6" points="216.31 329.81 219.7 324.9 223.29 329.81 216.31 329.81"/><polygon class="cls-6" points="216.31 332.21 219.7 327.31 223.29 332.21 216.31 332.21"/><rect class="cls-9" x="206.86" y="316.38" width="1.56" height="5.11" rx="0.71" ry="0.71"/><ellipse class="cls-6" cx="207.73" cy="321.48" rx="3.21" ry="0.29"/><polygon class="cls-1" points="204.36 313.5 207.75 308.6 211.34 313.5 204.36 313.5"/><polygon class="cls-1" points="204.36 315.94 207.75 311.04 211.34 315.94 204.36 315.94"/><polygon class="cls-1" points="204.36 318.34 207.75 313.44 211.34 318.34 204.36 318.34"/><rect class="cls-9" x="247.49" y="308.87" width="1.56" height="5.11" rx="0.71" ry="0.71"/><ellipse class="cls-6" cx="248.36" cy="313.96" rx="3.21" ry="0.29"/><polygon class="cls-1" points="244.99 305.99 248.38 301.09 251.97 305.99 244.99 305.99"/><polygon class="cls-1" points="244.99 308.42 248.38 303.52 251.97 308.42 244.99 308.42"/><polygon class="cls-1" points="244.99 310.82 248.38 305.92 251.97 310.82 244.99 310.82"/><rect class="cls-13" x="234.61" y="337.77" width="1.56" height="5.11" rx="0.71" ry="0.71"/><ellipse class="cls-9" cx="235.48" cy="342.87" rx="3.21" ry="0.29"/><polygon class="cls-7" points="232.11 334.89 235.5 329.99 239.09 334.89 232.11 334.89"/><polygon class="cls-7" points="232.11 337.32 235.5 332.42 239.09 337.32 232.11 337.32"/><polygon class="cls-7" points="232.11 339.73 235.5 334.83 239.09 339.73 232.11 339.73"/><rect class="cls-6" x="220.06" y="305.4" width="1.56" height="5.11" rx="0.71" ry="0.71"/><ellipse class="cls-1" cx="220.93" cy="310.49" rx="3.21" ry="0.29"/><polygon class="cls-4" points="217.56 302.52 220.94 297.62 224.54 302.52 217.56 302.52"/><polygon class="cls-4" points="217.56 304.95 220.94 300.05 224.54 304.95 217.56 304.95"/><polygon class="cls-4" points="217.56 307.35 220.94 302.45 224.54 307.35 217.56 307.35"/><rect class="cls-6" x="249.74" y="329.8" width="1.56" height="5.11" rx="0.71" ry="0.71"/><ellipse class="cls-1" cx="250.61" cy="334.89" rx="3.21" ry="0.29"/><polygon class="cls-4" points="247.24 326.92 250.63 322.02 254.22 326.92 247.24 326.92"/><polygon class="cls-4" points="247.24 329.35 250.63 324.45 254.22 329.35 247.24 329.35"/><polygon class="cls-4" points="247.24 331.75 250.63 326.85 254.22 331.75 247.24 331.75"/><rect class="cls-7" x="232.1" y="318.23" width="1.56" height="5.11" rx="0.71" ry="0.71"/><ellipse class="cls-9" cx="232.97" cy="323.32" rx="3.21" ry="0.29"/><polygon class="cls-9" points="229.6 315.34 232.99 310.44 236.58 315.34 229.6 315.34"/><polygon class="cls-9" points="229.6 317.78 232.99 312.88 236.58 317.78 229.6 317.78"/><polygon class="cls-9" points="229.6 320.18 232.99 315.28 236.58 320.18 229.6 320.18"/><rect class="cls-20" x="264.56" y="298.11" width="1.56" height="5.11" rx="0.71" ry="0.71"/><ellipse class="cls-13" cx="265.43" cy="303.21" rx="3.21" ry="0.29"/><polygon class="cls-6" points="262.06 295.23 265.45 290.33 269.04 295.23 262.06 295.23"/><polygon class="cls-6" points="262.06 297.66 265.45 292.76 269.04 297.66 262.06 297.66"/><polygon class="cls-6" points="262.06 300.06 265.45 295.17 269.04 300.06 262.06 300.06"/><rect class="cls-13" x="263.02" y="317.83" width="1.56" height="5.11" rx="0.71" ry="0.71"/><ellipse class="cls-9" cx="263.89" cy="322.93" rx="3.21" ry="0.29"/><polygon class="cls-7" points="260.52 314.95 263.91 310.05 267.5 314.95 260.52 314.95"/><polygon class="cls-7" points="260.52 317.38 263.91 312.49 267.5 317.38 260.52 317.38"/><polygon class="cls-7" points="260.52 319.79 263.91 314.89 267.5 319.79 260.52 319.79"/><rect class="cls-1" x="234.99" y="297.06" width="1.56" height="5.11" rx="0.71" ry="0.71"/><ellipse class="cls-4" cx="235.86" cy="302.16" rx="3.21" ry="0.29"/><polygon class="cls-13" points="232.49 294.18 235.88 289.28 239.47 294.18 232.49 294.18"/><polygon class="cls-13" points="232.49 296.61 235.88 291.71 239.47 296.61 232.49 296.61"/><polygon class="cls-13" points="232.49 299.02 235.88 294.12 239.47 299.02 232.49 299.02"/><rect class="cls-9" x="307.41" y="312.86" width="1.56" height="5.11" rx="0.71" ry="0.71"/><ellipse class="cls-6" cx="308.28" cy="317.95" rx="3.21" ry="0.29"/><polygon class="cls-1" points="304.91 309.98 308.3 305.07 311.89 309.98 304.91 309.98"/><polygon class="cls-1" points="304.91 312.41 308.3 307.51 311.89 312.41 304.91 312.41"/><polygon class="cls-1" points="304.91 314.81 308.3 309.91 311.89 314.81 304.91 314.81"/><rect class="cls-13" x="306.5" y="334.09" width="1.56" height="5.11" rx="0.71" ry="0.71"/><ellipse class="cls-9" cx="307.37" cy="339.18" rx="3.21" ry="0.29"/><polygon class="cls-7" points="304 331.21 307.38 326.31 310.98 331.21 304 331.21"/><polygon class="cls-7" points="304 333.64 307.38 328.74 310.98 333.64 304 333.64"/><polygon class="cls-7" points="304 336.04 307.38 331.14 310.98 336.04 304 336.04"/><rect class="cls-7" x="284.99" y="297.82" width="1.56" height="5.11" rx="0.71" ry="0.71"/><ellipse class="cls-9" cx="285.87" cy="302.91" rx="3.21" ry="0.29"/><polygon class="cls-9" points="282.5 294.93 285.88 290.03 289.48 294.93 282.5 294.93"/><polygon class="cls-9" points="282.5 297.37 285.88 292.47 289.48 297.37 282.5 297.37"/><polygon class="cls-9" points="282.5 299.77 285.88 294.87 289.48 299.77 282.5 299.77"/><rect class="cls-21" x="287.81" y="338.2" width="1.56" height="5.11" rx="0.71" ry="0.71"/><ellipse class="cls-13" cx="288.68" cy="343.29" rx="3.21" ry="0.29"/><polygon class="cls-6" points="285.31 335.31 288.69 330.41 292.29 335.31 285.31 335.31"/><polygon class="cls-6" points="285.31 337.75 288.69 332.85 292.29 337.75 285.31 337.75"/><polygon class="cls-6" points="285.31 340.15 288.69 335.25 292.29 340.15 285.31 340.15"/><rect class="cls-9" x="268.05" y="338.02" width="1.56" height="5.11" rx="0.71" ry="0.71"/><ellipse class="cls-6" cx="268.92" cy="343.11" rx="3.21" ry="0.29"/><polygon class="cls-1" points="265.55 335.14 268.94 330.24 272.53 335.14 265.55 335.14"/><polygon class="cls-1" points="265.55 337.57 268.94 332.67 272.53 337.57 265.55 337.57"/><polygon class="cls-1" points="265.55 339.97 268.94 335.07 272.53 339.97 265.55 339.97"/><path class="cls-6" d="M533.68,417.63h0a.59.59,0,0,0,0,.17L531.57,438a.53.53,0,0,0,.47.58h0a.53.53,0,0,0,.58-.47l2.06-20.13a.53.53,0,0,1,.6-.34S534.19,416.57,533.68,417.63Z" transform="translate(-251.25 -109.22)"/><path class="cls-6" d="M548.63,417.61h0a.59.59,0,0,1,0,.17l2.06,20.16a.53.53,0,0,1-.47.58h0a.53.53,0,0,1-.58-.47l-2.06-20.13a.53.53,0,0,0-.6-.34S548.13,416.55,548.63,417.61Z" transform="translate(-251.25 -109.22)"/><rect class="cls-6" x="527.49" y="425.42" width="16.72" height="1.18" rx="0.55" ry="0.55" transform="translate(649.98 -262.11) rotate(83.77)"/><rect class="cls-6" x="538.07" y="425.37" width="16.72" height="1.18" rx="0.55" ry="0.55" transform="translate(769.64 -188.14) rotate(95.28)"/><rect class="cls-1" x="282.49" y="308.3" width="14.84" height="1.07" rx="0.49" ry="0.49"/><rect class="cls-1" x="287.01" y="308.08" width="0.53" height="13.1" rx="0.27" ry="0.27"/><rect class="cls-1" x="292.25" y="308.1" width="0.53" height="13.1" rx="0.27" ry="0.27"/><polygon class="cls-6" points="287.01 320.92 286.59 322.87 286.85 322.99 287.44 321.32 287.88 321.32 287.54 320.92 287.01 320.92"/><polygon class="cls-6" points="291.88 321.36 292.26 320.8 292.78 320.8 293.16 322.73 292.84 322.87 292.46 321.35 291.88 321.36"/><path class="cls-1" d="M537.84,432.11s3.56,1.53,6.57-.17l-.7-1.37-4.59,0h-.44Z" transform="translate(-251.25 -109.22)"/><rect class="cls-1" x="321.28" y="324.47" width="1.56" height="5.11" rx="0.71" ry="0.71"/><ellipse class="cls-4" cx="322.15" cy="329.57" rx="3.21" ry="0.29"/><polygon class="cls-13" points="318.78 321.59 322.17 316.69 325.76 321.59 318.78 321.59"/><polygon class="cls-13" points="318.78 324.02 322.17 319.12 325.76 324.02 318.78 324.02"/><polygon class="cls-13" points="318.78 326.43 322.17 321.53 325.76 326.43 318.78 326.43"/><rect class="cls-6" x="321.39" y="300.18" width="1.56" height="5.11" rx="0.71" ry="0.71"/><ellipse class="cls-1" cx="322.26" cy="305.28" rx="3.21" ry="0.29"/><polygon class="cls-4" points="318.88 297.3 322.27 292.4 325.87 297.3 318.88 297.3"/><polygon class="cls-4" points="318.88 299.73 322.27 294.83 325.87 299.73 318.88 299.73"/><polygon class="cls-4" points="318.88 302.13 322.27 297.24 325.87 302.13 318.88 302.13"/><path class="cls-1" d="M397.21,144.81s3.14-.82,4.64-6.42h15.7s.55,4.5,4.5,6.42v-3.69h9.59l0,4a4.54,4.54,0,0,1,5.19,2.87L377,147.81s.55-4.5,10.1-2.59l-.08-4.37,10.09,0Z" transform="translate(-251.25 -109.22)"/><path class="cls-1" d="M376.8,149.61h60l.31,29.83s.62,4.16-5.2,4.88a56.57,56.57,0,0,1-12.26-.1s-10.19,6.55-19.75-.31l-16.21.1s-6.55.94-7-6.44S376.8,149.61,376.8,149.61Z" transform="translate(-251.25 -109.22)"/><path class="cls-2" d="M385.85,155.16s3.59-3.14,1.49-3.14-5.38.9-5.38,3.89.45,24.22.45,24.22h3.44Z" transform="translate(-251.25 -109.22)"/><circle class="cls-2" cx="158.62" cy="57.8" r="15.74"/><circle class="cls-1" cx="158.62" cy="57.9" r="10.98"/><circle class="cls-2" cx="158.67" cy="58.03" r="9.06"/><circle class="cls-1" cx="158.66" cy="58.02" r="8.41"/><circle class="cls-2" cx="179.87" cy="44.83" r="1.7"/><rect class="cls-2" x="175.17" y="66.52" width="6.67" height="3.53"/><ellipse class="cls-22" cx="501.97" cy="386.43" rx="5.47" ry="4.34" transform="translate(-208.93 713.13) rotate(-81.07)"/><ellipse class="cls-22" cx="518.14" cy="387.27" rx="4.67" ry="4.47" transform="translate(-196.1 729.82) rotate(-81.07)"/><polyline class="cls-22" points="250.43 277 253.25 270.62 265.13 270.69 267.28 277.59 260.75 277.59"/><circle class="cls-1" cx="267.28" cy="277.66" r="0.66"/><circle class="cls-1" cx="259.9" cy="277.59" r="1.1"/><line class="cls-22" x1="259.23" y1="277.59" x2="255.01" y2="270.62"/><line class="cls-22" x1="259.8" y1="277.42" x2="265.13" y2="270.69"/><line class="cls-22" x1="253.63" y1="270.62" x2="253.63" y2="267.75"/><ellipse class="cls-1" cx="505.18" cy="376.82" rx="0.49" ry="2.52" transform="translate(-284.66 594.89) rotate(-68.01)"/><path class="cls-1" d="M516.05,379.91v-.72h1.07a.58.58,0,0,0,.6-.57c0-.32-.3-.65-1.48-.64a.71.71,0,0,0-.5.22,1.15,1.15,0,0,1-.85.32c-.77,0-2.32.37-1.31.54a9.93,9.93,0,0,0,2,.1v.68Z" transform="translate(-251.25 -109.22)"/><ellipse class="cls-23" cx="453.64" cy="386.71" rx="5.47" ry="4.34" transform="translate(-250.03 665.63) rotate(-81.07)"/><ellipse class="cls-23" cx="469.81" cy="387.55" rx="4.67" ry="4.47" transform="translate(-237.2 682.31) rotate(-81.07)"/><polyline class="cls-23" points="202.1 277.28 204.92 270.89 216.8 270.97 218.95 277.87 212.42 277.87"/><circle class="cls-6" cx="218.95" cy="277.94" r="0.66"/><circle class="cls-6" cx="211.57" cy="277.87" r="1.1"/><line class="cls-23" x1="210.9" y1="277.87" x2="206.68" y2="270.89"/><line class="cls-23" x1="211.48" y1="277.7" x2="216.8" y2="270.97"/><line class="cls-23" x1="205.3" y1="270.9" x2="205.3" y2="268.03"/><ellipse class="cls-6" cx="456.85" cy="377.1" rx="0.49" ry="2.52" transform="translate(-315.15 550.26) rotate(-68.01)"/><path class="cls-6" d="M467.72,380.19v-.72h1.07a.58.58,0,0,0,.6-.57c0-.32-.3-.65-1.48-.64a.71.71,0,0,0-.5.22,1.15,1.15,0,0,1-.85.32c-.77,0-2.32.37-1.31.54a9.93,9.93,0,0,0,2,.1v.68Z" transform="translate(-251.25 -109.22)"/><rect class="cls-2" x="360.59" y="386" width="0.53" height="20.21" rx="0.27" ry="0.27" transform="translate(-231.56 -126.3) rotate(2.79)"/><rect class="cls-7" x="361.05" y="387.13" width="3.58" height="1.3" rx="0.65" ry="0.65" transform="translate(-231.97 -126.4) rotate(2.79)"/><rect class="cls-7" x="362.88" y="388.17" width="3.18" height="1.25" rx="0.63" ry="0.63" transform="translate(-231.92 -126.48) rotate(2.79)"/><rect class="cls-7" x="364.52" y="389.07" width="3.43" height="1.19" rx="0.59" ry="0.59" transform="translate(-231.87 -126.57) rotate(2.79)"/><path class="cls-9" d="M359.87,403.24c-1.58-7,.76-14.7.76-14.7l-13.09,13.09Z" transform="translate(-251.25 -109.22)"/><path class="cls-9" d="M361.27,403.39l7.35.32s-6.58-7-6.79-10.14Z" transform="translate(-251.25 -109.22)"/><polygon class="cls-13" points="113.74 296.74 114.98 295.46 120.38 295.63 120.81 297.16 113.74 296.74"/><path class="cls-13" d="M344.24,402.79s12.34,3.15,18.13,3.39,11.45.73,11.45.73l-2.77,2.72-22.32-1.13Z" transform="translate(-251.25 -109.22)"/><circle class="cls-6" cx="347.94" cy="405.32" r="0.68" transform="translate(-325.07 623.92) rotate(-87.21)"/><path class="cls-4" d="M316.6,412.21s5.28-12.21,15.93-2.83c0,0,3.13,3.22,8.11.2,4.76-2.89,7.38-6,14.77-.77a6.6,6.6,0,0,0,5.14,1.15l.48-.12a7.33,7.33,0,0,0,2.67-1.47c1.68-1.41,6.7-4.84,12.24-1.17a12.36,12.36,0,0,1,3.16,3.13l1.56,2.17Z" transform="translate(-251.25 -109.22)"/><path class="cls-3" d="M329.38,412.26s5.28-12.21,15.93-2.83c0,0,3.13,3.22,8.11.2,4.76-2.89,7.38-6,14.77-.77a6.6,6.6,0,0,0,5.14,1.15l.48-.12a7.33,7.33,0,0,0,2.67-1.47c1.68-1.41,6.7-4.84,12.24-1.17a12.36,12.36,0,0,1,3.16,3.13l1.56,2.17Z" transform="translate(-251.25 -109.22)"/><rect class="cls-16" x="332.7" y="355.22" width="0.53" height="20.21" rx="0.27" ry="0.27" transform="translate(432.05 604.8) rotate(177.21)"/><rect class="cls-9" x="329.19" y="356.35" width="3.58" height="1.3" rx="0.65" ry="0.65" transform="translate(427.67 588.27) rotate(177.21)"/><rect class="cls-9" x="327.76" y="357.38" width="3.18" height="1.25" rx="0.63" ry="0.63" transform="translate(424.46 590.37) rotate(177.21)"/><rect class="cls-9" x="325.86" y="358.29" width="3.43" height="1.19" rx="0.59" ry="0.59" transform="translate(420.97 592.2) rotate(177.21)"/><path class="cls-10" d="M333.95,372.46c1.58-7-.76-14.7-.76-14.7l13.09,13.09Z" transform="translate(-251.25 -109.22)"/><path class="cls-10" d="M332.55,372.61l-7.35.32s6.58-7,6.79-10.14Z" transform="translate(-251.25 -109.22)"/><polygon class="cls-17" points="77.58 265.96 76.33 264.68 70.94 264.85 70.51 266.38 77.58 265.96"/><path class="cls-17" d="M349.58,372s-12.34,3.15-18.13,3.39-11.45.73-11.45.73l2.77,2.72,22.32-1.13Z" transform="translate(-251.25 -109.22)"/><circle class="cls-13" cx="345.88" cy="374.54" r="0.68" transform="translate(-269.05 -91.96) rotate(-2.79)"/><path class="cls-4" d="M284.71,383.25s7.1-16.44,21.44-3.81c0,0,4.21,4.34,10.92.26,6.41-3.9,9.94-8,19.89-1a8.89,8.89,0,0,0,6.92,1.54l.65-.16a9.87,9.87,0,0,0,3.6-2c2.26-1.9,9-6.52,16.48-1.57a16.64,16.64,0,0,1,4.25,4.21l2.1,2.92Z" transform="translate(-251.25 -109.22)"/><path class="cls-3" d="M301.9,383.31s7.1-16.44,21.44-3.81c0,0,4.21,4.34,10.92.26,6.41-3.9,9.94-8,19.89-1a8.89,8.89,0,0,0,6.92,1.54l.65-.16a9.87,9.87,0,0,0,3.6-2c2.26-1.9,9-6.52,16.48-1.57a16.64,16.64,0,0,1,4.25,4.21l2.1,2.92Z" transform="translate(-251.25 -109.22)"/></svg>