<svg width="244" height="57" viewBox="0 0 244 57" fill="none" xmlns="http://www.w3.org/2000/svg">
<g filter="url(#filter0_d)">
<path d="M18.4275 37.88C18.4275 37.8 18.4275 37.72 18.4275 37.64C18.4275 36.68 18.9075 35.68 19.0275 34.72C19.3075 31.96 19.4675 29.16 19.4675 26.4C19.4675 22.6 19.0675 18.48 17.3075 15.04C16.4275 13.36 14.5075 11.4 12.4675 11.4C11.6275 11.4 10.9075 11.72 10.3075 12.24C7.9075 14.28 7.9875 18.52 7.9075 21.4C7.8275 23.64 7.7475 25.92 7.7475 28.2C7.7475 32.36 7.5475 42.16 13.6275 42.16C15.1075 42.16 16.3875 41.4 17.2275 40.24C18.0275 41 20.1875 43.76 21.1875 43.76C21.3875 43.76 21.7075 42.92 21.8275 42.76C21.8275 42.72 22.2275 42.16 22.2275 42.08C22.2275 40.88 18.7875 39.32 18.4275 37.88ZM13.8675 39.16C13.7075 39.2 13.5075 39.2 13.3475 39.2C10.4675 39.2 10.4675 32.6 10.4675 30.72C10.4675 29.48 10.5475 28.28 10.5475 27.04C10.5475 25.48 10.4275 23.96 10.4275 22.4C10.4275 20.64 10.3875 14.48 13.0675 14.48C16.6275 14.48 16.1075 24.36 16.1075 26.64C16.1075 28.44 16.3475 30.28 16.3475 32.12C16.3475 34 16.2675 38.56 13.8675 39.16ZM38.4041 15H38.0041C37.0041 15 35.8041 15.04 35.8041 16.36C35.8041 17.12 35.8841 17.84 35.8841 18.56C35.8841 20.56 35.8441 22.56 35.8441 24.56C35.8441 27.76 36.6841 36.08 31.7241 36.08C27.1241 36.08 26.9241 30.28 26.9241 26.92C26.9241 23.4 27.0441 19.92 27.0441 16.4C27.0441 15.84 26.3641 15.84 26.0041 15.84C25.2441 15.84 24.7641 15.88 24.1641 16.4C24.0041 16.56 23.8441 24.08 23.8441 25C23.8441 29.68 24.2841 38.96 30.8041 38.96C38.1241 38.96 39.3241 31.04 39.3241 25.32C39.3241 22.28 38.9641 19.28 38.9641 16.24C38.9641 15.72 38.9641 15.24 38.4041 15ZM54.8341 32.16H54.6741C53.9541 32.16 53.2741 32.04 52.5541 32.04C52.2341 32.04 51.8341 32.04 51.5541 32.24C50.7541 32.72 51.7141 37.68 49.0741 37.68C46.3941 37.68 46.4341 31.88 46.2341 30.04C46.1541 29.32 46.0341 28.6 46.0341 27.88C46.0341 26.48 47.3141 26.2 48.4341 26.2C49.7941 26.2 51.1541 26.32 52.5141 26.32C53.9941 26.32 54.9941 26.04 54.9941 24.32C54.9941 20.68 53.0741 14.2 48.5941 14.2C42.8341 14.2 42.4741 23.68 42.4741 27.76C42.4741 31.68 43.7541 40.92 49.0341 40.92C53.0741 40.92 55.2341 36.44 55.2341 32.92C55.2341 32.6 55.1941 32.24 54.8341 32.16ZM46.4741 22.24V21.36C46.4741 20.08 46.4741 17.32 48.3141 17.32C50.1941 17.32 51.5541 20.64 51.5541 22.16C51.5541 23.04 50.9941 23.04 50.3141 23.12C49.3541 23.24 48.4341 23.56 47.4741 23.56C47.1941 23.56 46.3941 23.52 46.3941 23.12C46.3941 22.8 46.4341 22.52 46.4741 22.24ZM62.9381 39.8C62.0181 31.8 61.8581 23.76 61.5381 15.72C61.4981 15.04 61.5381 14.32 61.5381 13.64C61.5381 12.48 61.4181 11 59.8981 11C59.3381 11 58.8181 11.28 58.2581 11.16C58.0981 11.32 58.0181 11.52 58.0181 11.76C58.0181 12.36 58.2581 12.96 58.3381 13.6C58.4581 14.52 58.3381 15.48 58.3381 16.44C58.3381 22.48 59.0181 28.48 59.3381 34.52C59.4981 37.24 59.4581 40 59.9381 42.72C60.1381 43.84 60.0981 43.64 61.1381 43.88C61.5381 43.96 61.9781 44.12 62.3781 44.12C63.1781 44.12 63.2581 43.04 63.2581 42.48C63.2581 41.6 63.0581 40.68 62.9381 39.8ZM86.9175 14.32C86.7975 13.28 86.9175 12.28 86.9175 11.24C86.9175 9.92 86.1575 9.92 85.0775 9.92C84.5175 9.92 83.8775 9.92 83.3975 10.24C82.8375 10.6 82.8775 13.72 82.7975 14.48C82.0775 21.72 80.9175 28.88 80.1175 36.08C79.9175 38.2 79.5975 40.28 79.3175 42.4C79.1175 44.36 78.9575 44.96 80.6375 45.08C80.8775 45.12 81.1575 45.2 81.4375 45.2C82.2775 45.2 82.1975 44.16 82.1975 43.56C82.1975 41.88 82.4375 40.24 82.4775 38.6C82.5175 37.76 82.5175 36.8 83.3975 36.36C83.5975 36.28 85.2775 36.36 85.5175 36.36C86.5975 36.32 86.6375 38.6 86.8775 40.16C87.0775 41.6 86.7175 45.12 87.5975 45.12C88.4375 45.12 89.1575 45.04 89.7975 44.6C90.1975 44.32 89.8375 40.76 89.6375 39.2C88.6775 30.92 88.2775 22.56 86.9175 14.32ZM86.9175 7.36C86.0775 6.32 85.5975 5.04 84.0375 5.04C83.8375 5.04 83.5975 5.08 83.3975 5.16C83.1175 5.32 82.9975 5.64 82.8375 5.92C82.1575 7.12 80.5575 7.56 80.0375 8.92C80.2775 9.36 80.9975 10.08 81.5175 10.08C82.1975 10.08 83.8375 8.2 84.3575 7.72C84.7175 8.2 85.7575 9.84 86.3575 9.84C86.7575 9.84 88.3575 9.6 88.3575 9.12C88.3575 8.64 87.2775 7.72 86.9175 7.36ZM85.8775 33.48C85.6375 33.64 85.3175 33.72 85.0375 33.72C84.1575 33.72 83.3575 33.84 83.3975 33.2C83.4375 31.72 84.3575 23.44 84.5975 21.92C85.0375 26 85.9175 29.08 85.9175 32.72C85.9175 32.96 85.9175 33.24 85.8775 33.48ZM84.6375 21.76C84.6375 21.68 84.6375 21.68 84.6375 21.64C84.6375 21.68 84.6375 21.72 84.6375 21.76ZM102.189 32.76C101.549 32.68 100.909 32.52 100.269 32.52C99.4691 32.52 99.3891 33.2 99.3891 33.8C99.3891 35.96 100.389 35.96 102.149 35.96C102.589 35.96 103.109 36 103.109 36.6C103.109 37.6 102.349 42.44 101.029 42.44C99.4691 42.44 97.8691 35.92 97.6691 34.52C97.3091 32.28 97.1491 30.04 97.1491 27.76C97.1491 25.32 98.0291 12.52 101.029 12.52C102.349 12.52 102.589 15.56 102.709 16.48C102.829 17.4 102.829 17.92 103.909 17.92H104.629C105.469 17.92 105.749 17.6 105.749 16.76C105.749 14.16 105.269 9.84 101.829 9.84C99.2691 9.84 96.9491 12.92 96.0691 15.08C94.3091 19.28 94.3091 23.96 94.3091 28.48C94.3091 32.76 94.2691 45.28 100.589 45.28C104.429 45.28 105.629 40.72 105.629 37.6C105.629 37 105.589 36.4 105.509 35.8C105.869 35.76 106.269 35.84 106.629 35.84C107.949 35.84 107.949 34.24 108.029 33.32C107.589 32.6 106.389 32.64 105.669 32.64C104.589 32.64 103.509 32.76 102.389 32.76H102.189ZM113.841 9.64C112.801 9.56 111.801 9.32 110.761 9.32C109.321 9.32 109.161 10.32 109.161 11.48C109.161 12.32 109.321 13.16 109.321 14.04C109.401 17.08 109.401 20.16 109.401 23.2C109.401 29.68 109.361 36.12 109.361 42.6C109.361 43.36 109.121 44.12 109.121 44.88C109.121 45.8 109.361 45.84 110.201 45.84C111.721 45.84 113.281 45.6 114.801 45.36C115.321 45.28 115.921 45.28 115.921 44.56C115.921 43.88 115.881 43.2 115.881 42.52C115.881 42.08 115.801 41.88 115.361 41.88C114.521 41.88 113.801 42.36 113.001 42.36C112.481 42.36 112.361 41.88 112.361 41.44C112.361 40.72 112.561 39.96 112.561 39.2C112.561 38.12 112.521 37 112.481 35.92C112.441 34.64 112.081 33.4 112.081 32.12C112.081 31.36 112.161 30.32 113.161 30.32C113.801 30.32 114.361 30.72 115.001 30.72C115.401 30.72 115.761 30.4 115.761 30C115.761 29.56 115.601 29.16 115.561 28.72C115.441 27.56 115.721 27.36 114.281 27.36C113.761 27.36 113.281 27.6 112.761 27.6C112.281 27.6 112.241 26.84 112.241 26.48C112.001 24.04 112.121 21.6 112.121 19.16C112.121 17.44 111.801 15.72 111.801 13.96C111.801 13.44 111.921 13.16 112.521 13.16C113.561 13.16 114.481 13.88 115.521 13.88C116.561 13.88 116.561 11.76 116.561 11.04C116.561 9.44 115.641 9.68 114.441 9.68L113.841 9.64ZM139.808 14.32C139.688 13.28 139.808 12.28 139.808 11.24C139.808 9.92 139.048 9.92 137.968 9.92C137.408 9.92 136.768 9.92 136.288 10.24C135.728 10.6 135.768 13.72 135.688 14.48C134.968 21.72 133.808 28.88 133.008 36.08C132.808 38.2 132.488 40.28 132.208 42.4C132.008 44.36 131.848 44.96 133.528 45.08C133.768 45.12 134.048 45.2 134.328 45.2C135.168 45.2 135.088 44.16 135.088 43.56C135.088 41.88 135.328 40.24 135.368 38.6C135.408 37.76 135.408 36.8 136.288 36.36C136.488 36.28 138.168 36.36 138.408 36.36C139.488 36.32 139.528 38.6 139.768 40.16C139.968 41.6 139.608 45.12 140.488 45.12C141.328 45.12 142.048 45.04 142.688 44.6C143.088 44.32 142.728 40.76 142.528 39.2C141.568 30.92 141.168 22.56 139.808 14.32ZM138.768 33.48C138.528 33.64 138.208 33.72 137.928 33.72C137.048 33.72 136.248 33.84 136.288 33.2C136.328 31.72 137.248 23.44 137.488 21.92C137.928 26 138.808 29.08 138.808 32.72C138.808 32.96 138.808 33.24 138.768 33.48ZM137.528 21.76C137.528 21.68 137.528 21.68 137.528 21.64C137.528 21.68 137.528 21.72 137.528 21.76ZM150.496 18.76C150.176 17.88 149.976 16.92 149.976 15.96C149.976 14.72 150.496 12.88 152.056 12.88C154.416 12.88 153.776 16.8 154.536 17.12C155.056 17.36 155.616 17.36 156.176 17.36C156.856 17.36 157.056 16.88 157.056 16.28C157.056 13.52 155.416 10.48 152.296 10.48C148.976 10.48 147.296 13.12 147.296 16.2C147.296 21.96 153.656 26.44 155.176 32C155.536 33.44 155.576 34.96 155.576 36.44C155.576 38.04 155.536 42.8 153.216 42.8C150.656 42.8 150.736 38.04 150.736 36.28C150.736 34.84 150.456 34.16 148.856 34.16C147.856 34.16 147.656 35.16 147.656 35.92C147.656 39.52 148.816 44.64 153.296 44.64C156.856 44.64 158.816 40.6 158.816 37.48C158.816 32.52 156.816 27.76 153.896 23.84C152.696 22.2 151.216 20.72 150.496 18.76ZM164.781 29.08C166.181 28.72 171.221 28.6 172.941 28.6C173.981 28.6 175.021 28.72 176.061 28.72C176.181 28.72 176.341 28.68 176.461 28.6C176.701 28.24 176.621 25.84 176.661 25.24C173.181 25.36 169.701 25.44 166.261 25.44C165.581 25.44 164.901 25.28 164.221 25.28C163.861 25.28 163.541 25.32 163.221 25.44C162.581 25.64 162.701 25.6 162.701 26.44C162.701 26.8 162.741 29.24 162.981 29.44C163.061 29.32 163.381 29.44 163.501 29.44C163.941 29.44 164.341 29.2 164.781 29.08ZM191.409 42.36C191.009 42 189.689 40.8 189.249 40.8C188.809 40.8 188.369 41.88 187.409 41.88C184.729 41.88 184.729 36.56 184.729 34.72C184.729 29.72 185.009 24.68 185.329 19.68C185.929 19.68 189.409 19.68 189.409 18.96C189.409 18.56 189.289 18.2 189.289 17.8C189.289 17.56 189.329 17.36 189.329 17.12C189.329 16.52 188.649 16.44 188.209 16.44C187.409 16.44 186.649 16.64 185.849 16.64H185.529C185.649 14.88 185.889 13.12 185.889 11.36C185.889 10.12 185.089 9.48 183.849 9.48C181.969 9.48 182.449 12.28 182.449 13.44C182.449 14.44 182.369 15.44 182.369 16.48H182.089C179.969 16.48 179.689 16.52 179.689 18.72C179.689 18.88 179.689 19.04 179.729 19.16C180.289 19.56 181.609 19.6 182.329 19.64C182.289 24.28 181.769 28.88 181.769 33.52C181.769 37.24 181.769 45.64 187.089 45.64C188.409 45.64 191.569 44.24 191.569 42.68C191.569 42.56 191.489 42.44 191.409 42.36ZM209.146 15H208.746C207.746 15 206.546 15.04 206.546 16.36C206.546 17.12 206.626 17.84 206.626 18.56C206.626 20.56 206.586 22.56 206.586 24.56C206.586 27.76 207.426 36.08 202.466 36.08C197.866 36.08 197.666 30.28 197.666 26.92C197.666 23.4 197.786 19.92 197.786 16.4C197.786 15.84 197.106 15.84 196.746 15.84C195.986 15.84 195.506 15.88 194.906 16.4C194.746 16.56 194.586 24.08 194.586 25C194.586 29.68 195.026 38.96 201.546 38.96C208.866 38.96 210.066 31.04 210.066 25.32C210.066 22.28 209.706 19.28 209.706 16.24C209.706 15.72 209.706 15.24 209.146 15ZM227.895 37.12C227.535 37.12 227.095 37.2 226.895 37.52C226.735 37.8 226.655 39.76 226.655 40.2C226.655 40.8 226.935 41.16 227.575 41.16C228.295 41.16 229.055 41.04 229.775 40.96C230.415 40.92 230.335 40.16 230.335 39.72C230.335 37.36 230.135 37.12 227.895 37.12ZM233.655 14.2C232.815 13 231.415 12.12 229.935 12.12C226.975 12.12 225.455 15.28 225.455 17.84C225.455 18.84 225.735 20.04 226.935 20.04C227.775 20.04 228.695 19.48 228.695 18.6C228.695 18.04 228.495 17.56 228.495 17.04C228.495 16.2 229.015 15.08 229.975 15.08C231.495 15.08 232.015 17.24 232.015 18.4C232.015 23.2 228.575 25.52 227.015 29.52C226.855 29.92 226.655 33.4 226.655 33.96C226.655 34.36 226.935 34.68 227.335 34.68H228.815C229.215 34.68 229.495 34.4 229.535 34C229.855 30.84 230.455 28.92 232.135 26.2C232.815 25.16 233.575 24.12 234.055 22.96C234.615 21.6 234.935 20.04 234.935 18.6C234.935 17.04 234.575 15.48 233.655 14.2Z" fill="white"/>
</g>
<defs>
<filter id="filter0_d" x="0.746826" y="0.0399933" width="243.188" height="56.8" filterUnits="userSpaceOnUse" color-interpolation-filters="sRGB">
<feFlood flood-opacity="0" result="BackgroundImageFix"/>
<feColorMatrix in="SourceAlpha" type="matrix" values="0 0 0 0 0 0 0 0 0 0 0 0 0 0 0 0 0 0 127 0"/>
<feOffset dx="1" dy="3"/>
<feGaussianBlur stdDeviation="4"/>
<feColorMatrix type="matrix" values="0 0 0 0 0.219608 0 0 0 0 0.509804 0 0 0 0 0.752941 0 0 0 1 0"/>
<feBlend mode="normal" in2="BackgroundImageFix" result="effect1_dropShadow"/>
<feBlend mode="normal" in="SourceGraphic" in2="effect1_dropShadow" result="shape"/>
</filter>
</defs>
</svg>
