<svg width="130" height="33" viewBox="0 0 130 33" fill="none" xmlns="http://www.w3.org/2000/svg">
<path d="M13.5584 15.592C13.2704 14.764 12.7304 15.412 11.6144 15.34C10.6424 15.34 9.52639 15.556 8.55439 15.592C8.55439 14.908 8.51839 14.26 8.51839 13.576C8.51839 12.964 8.66239 12.316 8.66239 11.704C8.66239 11.38 8.62639 11.092 8.55439 10.804C8.33839 10.228 8.44639 10.3 7.61839 10.3C4.70239 10.3 5.06239 11.344 5.31439 12.28C5.56639 13.324 5.53039 14.656 5.56639 15.736C4.91839 15.772 4.30639 15.808 3.65839 15.808C2.65039 15.808 1.64239 15.7 0.634391 15.7C0.490391 15.7 0.346391 15.736 0.238391 15.772C0.0223907 16.096 0.0583907 18.22 0.0583907 18.76C1.93039 18.688 3.83839 18.652 5.71039 18.616C5.74639 19.084 5.74639 19.552 5.74639 19.984C5.74639 20.956 5.63839 21.964 5.63839 22.936C5.63839 23.08 5.67439 23.224 5.74639 23.332C6.03439 23.512 8.19439 23.476 8.69839 23.512C8.66239 21.856 8.62639 20.236 8.59039 18.58C9.16639 18.58 9.70639 18.58 10.2824 18.58C11.4704 18.58 13.6664 19.408 13.6664 17.68C13.6664 17.068 13.7024 16.204 13.5584 15.592ZM38.0311 7.384C36.6271 4.252 33.4951 1.948 30.0391 1.948C29.5351 1.948 29.1391 2.056 29.1391 2.668C29.1391 3.064 29.2111 3.46 29.2471 3.892C29.3911 5.368 29.3911 6.808 29.4271 8.284C29.6071 14.476 30.0391 20.668 30.2911 26.86C30.3631 28.3 30.4711 29.704 30.4711 31.144C30.4711 31.936 30.6511 32.26 31.5151 32.26C38.0671 32.26 40.0111 25.708 40.0111 20.524C40.0111 16.096 39.8311 11.488 38.0311 7.384ZM33.6391 28.948C33.0991 28.948 33.0991 28.264 33.0991 27.904C33.0991 25.816 32.9191 23.836 32.7751 21.748C32.5231 18.184 32.3431 14.62 32.0551 11.056C32.0191 10.588 31.5511 4.936 31.7311 4.936C34.7551 4.936 37.0591 12.352 37.0591 17.716C37.0591 19.696 37.0951 28.948 33.6391 28.948ZM54.4268 21.244H54.2828C53.6348 21.244 53.0228 21.136 52.3748 21.136C52.0868 21.136 51.7268 21.136 51.4748 21.316C50.7548 21.748 51.6188 26.212 49.2428 26.212C46.8308 26.212 46.8668 20.992 46.6868 19.336C46.6148 18.688 46.5068 18.04 46.5068 17.392C46.5068 16.132 47.6588 15.88 48.6668 15.88C49.8908 15.88 51.1148 15.988 52.3388 15.988C53.6708 15.988 54.5708 15.736 54.5708 14.188C54.5708 10.912 52.8428 5.08 48.8108 5.08C43.6268 5.08 43.3028 13.612 43.3028 17.284C43.3028 20.812 44.4548 29.128 49.2068 29.128C52.8428 29.128 54.7868 25.096 54.7868 21.928C54.7868 21.64 54.7508 21.316 54.4268 21.244ZM46.9028 12.316V11.524C46.9028 10.372 46.9028 7.888 48.5588 7.888C50.2508 7.888 51.4748 10.876 51.4748 12.244C51.4748 13.036 50.9708 13.036 50.3588 13.108C49.4948 13.216 48.6668 13.504 47.8028 13.504C47.5508 13.504 46.8308 13.468 46.8308 13.108C46.8308 12.82 46.8668 12.568 46.9028 12.316ZM76.0834 16.132C76.0474 17.968 76.4794 24.34 75.4354 27.436C75.0034 28.732 74.1034 29.74 72.9154 28.66C72.3394 28.192 72.0514 27.328 71.8354 26.464C71.1874 26.608 70.5394 26.896 69.8554 27.04H69.7834C69.8194 27.148 69.8194 27.256 69.8554 27.364C70.2154 28.732 70.8994 30.352 71.9794 31.324C74.2114 33.448 76.7314 31.468 77.5954 29.092C78.6394 26.248 78.4594 22.612 78.4594 19.588C78.4594 16.312 78.6394 14.908 78.3514 11.632C78.0634 8.608 77.9554 0.255999 73.6354 0.255999C67.6954 0.255999 66.1834 14.116 71.6554 16.744C73.4914 17.644 75.1474 17.14 76.0834 16.132ZM73.3834 3.244C76.2634 3.244 75.6514 10.624 75.6514 11.632C75.6514 16.528 71.4394 14.692 71.4394 12.208V12.172C70.6114 7.204 70.8634 3.244 73.3834 3.244ZM98.4894 5.188C98.3814 4.252 98.4894 3.352 98.4894 2.416C98.4894 1.228 97.8054 1.228 96.8334 1.228C96.3294 1.228 95.7534 1.228 95.3214 1.516C94.8174 1.84 94.8534 4.648 94.7814 5.332C94.1334 11.848 93.0894 18.292 92.3694 24.772C92.1894 26.68 91.9014 28.552 91.6494 30.46C91.4694 32.224 91.3254 32.764 92.8374 32.872C93.0534 32.908 93.3054 32.98 93.5574 32.98C94.3134 32.98 94.2414 32.044 94.2414 31.504C94.2414 29.992 94.4574 28.516 94.4934 27.04C94.5294 26.284 94.5294 25.42 95.3214 25.024C95.5014 24.952 97.0134 25.024 97.2294 25.024C98.2014 24.988 98.2374 27.04 98.4534 28.444C98.6334 29.74 98.3094 32.908 99.1014 32.908C99.8574 32.908 100.505 32.836 101.081 32.44C101.441 32.188 101.117 28.984 100.937 27.58C100.073 20.128 99.7134 12.604 98.4894 5.188ZM97.5534 22.432C97.3374 22.576 97.0494 22.648 96.7974 22.648C96.0054 22.648 95.2854 22.756 95.3214 22.18C95.3574 20.848 96.1854 13.396 96.4014 12.028C96.7974 15.7 97.5894 18.472 97.5894 21.748C97.5894 21.964 97.5894 22.216 97.5534 22.432ZM96.4374 11.884C96.4374 11.812 96.4374 11.812 96.4374 11.776C96.4374 11.812 96.4374 11.848 96.4374 11.884ZM116.856 21.46C116.532 18.724 116.712 15.988 116.712 13.252C116.712 11.632 116.532 10.048 116.532 8.464C116.532 7.816 116.64 7.204 116.64 6.556C116.64 5.728 114.732 5.368 114.12 5.368C113.616 5.368 113.616 5.908 113.616 6.268C113.616 10.768 114.156 15.232 114.156 19.732C114.156 20.164 114.156 20.56 114.048 20.992C112.356 18.58 108.432 6.808 107.604 6.16C107.136 5.836 106.56 5.692 105.984 5.692C105.264 5.692 104.868 6.088 104.868 6.808C104.868 7.564 105.12 8.284 105.228 9.004C105.444 10.624 105.48 12.316 105.48 13.936C105.48 16.024 105.372 18.112 105.372 20.164C105.372 22.756 105.516 25.276 105.804 27.832C105.876 28.336 105.876 28.804 106.524 28.804C107.028 28.804 107.532 28.876 108.036 28.876C108.756 28.876 108.756 27.796 108.756 27.292C108.756 23.584 108.18 19.912 107.82 16.24C107.676 14.872 107.496 13.54 107.496 12.208C107.496 12.064 107.532 11.884 107.568 11.74C108.18 12.172 109.692 16.816 110.088 17.824C110.988 20.2 112.248 22.432 113.112 24.808C113.328 25.348 113.652 26.752 114.12 27.04C114.444 27.22 115.704 27.22 116.1 27.22C117.108 27.22 117.108 25.492 117.108 24.808C117.108 23.692 116.964 22.576 116.856 21.46ZM128.67 18.112C127.41 15.808 123.738 12.964 123.738 10.264C123.738 9.796 123.81 8.716 124.494 8.716C126.006 8.716 124.746 10.66 126.51 10.66C127.086 10.66 127.662 10.588 128.238 10.516C128.166 8.536 126.726 6.196 124.566 6.196C122.514 6.196 121.146 8.14 121.146 10.048C121.146 15.016 127.338 17.5 127.338 22.9C127.338 23.836 126.906 25.42 125.718 25.42C124.278 25.42 124.386 23.62 124.386 22.612C124.386 21.82 123.63 21.316 122.874 21.316C121.902 21.316 121.542 22.108 121.542 22.972C121.542 25.24 123.162 28.012 125.682 28.012C128.454 28.012 129.894 25.204 129.894 22.756C129.894 21.136 129.426 19.516 128.67 18.112Z" fill="white"/>
</svg>
