<svg width="327" height="201" viewBox="0 0 327 201" fill="none" xmlns="http://www.w3.org/2000/svg">
<g clip-path="url(#clip0)">
<path d="M306.256 21.2596C304.233 22.1484 302.209 22.6071 300.185 22.9512C298.161 23.2666 296.138 23.4099 294.114 23.4099C292.09 23.4099 290.066 23.2666 288.043 22.9512C286.019 22.6215 283.995 22.1627 281.971 21.2596C283.995 20.3708 286.019 19.8977 288.043 19.568C290.066 19.2526 292.09 19.1093 294.114 19.1093C296.138 19.1093 298.161 19.2526 300.185 19.568C302.209 19.912 304.233 20.3708 306.256 21.2596Z" fill="#FFCC29"/>
<path d="M294.128 0C295.025 3.0678 295.487 6.14994 295.834 9.21774C296.152 12.2855 296.297 15.3677 296.297 18.4355C296.297 21.5033 296.152 24.5854 295.834 27.6532C295.487 30.721 295.039 33.8032 294.128 36.871C293.218 33.8032 292.769 30.721 292.423 27.6532C292.105 24.5854 291.96 21.5033 291.96 18.4355C291.96 15.3677 292.105 12.2855 292.423 9.21774C292.769 6.14994 293.232 3.0678 294.128 0Z" fill="#FFCC29"/>
<path d="M327 38.5769C325.786 39.4657 324.571 39.9244 323.357 40.2685C322.143 40.5839 320.929 40.7272 319.714 40.7272C318.5 40.7272 317.286 40.5839 316.071 40.2685C314.857 39.9388 313.643 39.48 312.429 38.5769C313.643 37.6881 314.857 37.215 316.071 36.8853C317.286 36.5699 318.5 36.4266 319.714 36.4266C320.929 36.4266 322.143 36.5699 323.357 36.8853C324.571 37.2294 325.786 37.6881 327 38.5769Z" fill="#FFCC29"/>
<path d="M319.714 25.804C320.61 27.6532 321.073 29.5025 321.42 31.3375C321.738 33.1868 321.883 35.036 321.883 36.871C321.883 38.7203 321.738 40.5696 321.42 42.4045C321.088 44.2538 320.625 46.1031 319.714 47.938C318.818 46.0887 318.341 44.2394 318.008 42.4045C317.69 40.5552 317.546 38.7059 317.546 36.871C317.546 35.0217 317.69 33.1724 318.008 31.3375C318.355 29.5025 318.818 27.6532 319.714 25.804Z" fill="#FFCC29"/>
<path d="M314.034 60.2666C312.256 61.1554 310.478 61.6141 308.7 61.9582C306.921 62.2735 305.143 62.4169 303.365 62.4169C301.587 62.4169 299.809 62.2735 298.031 61.9582C296.253 61.6284 294.475 61.1697 292.697 60.2666C294.475 59.3778 296.253 58.9047 298.031 58.575C299.809 58.2596 301.587 58.1162 303.365 58.1162C305.143 58.1162 306.921 58.2596 308.7 58.575C310.478 58.919 312.256 59.3778 314.034 60.2666Z" fill="#FFCC29"/>
<path d="M303.38 41.5874C304.276 44.2825 304.739 46.9919 305.086 49.6869C305.404 52.382 305.548 55.0914 305.548 57.7865C305.548 60.4816 305.404 63.191 305.086 65.8861C304.753 68.5812 304.29 71.2906 303.38 73.9857C302.484 71.2906 302.006 68.5812 301.674 65.8861C301.356 63.191 301.211 60.4816 301.211 57.7865C301.211 55.0914 301.356 52.382 301.674 49.6869C302.006 46.9919 302.484 44.2825 303.38 41.5874Z" fill="#FFCC29"/>
</g>
<g clip-path="url(#clip1)">
<path d="M14.2907 145.939C15.6848 146.564 17.079 146.886 18.4731 147.128C19.8673 147.349 21.2614 147.45 22.6556 147.45C24.0497 147.45 25.4439 147.349 26.838 147.128C28.2322 146.896 29.6264 146.574 31.0205 145.939C29.6264 145.315 28.2322 144.982 26.838 144.75C25.4439 144.529 24.0497 144.428 22.6556 144.428C21.2614 144.428 19.8673 144.529 18.4731 144.75C17.079 144.992 15.6848 145.315 14.2907 145.939Z" fill="#FFCC29"/>
<path d="M22.6449 131C22.0275 133.156 21.7089 135.322 21.4699 137.477C21.2508 139.633 21.1512 141.799 21.1512 143.955C21.1512 146.11 21.2508 148.276 21.4699 150.432C21.7089 152.588 22.0176 154.754 22.6449 156.909C23.2723 154.754 23.581 152.588 23.82 150.432C24.0391 148.276 24.1387 146.11 24.1387 143.955C24.1387 141.799 24.0391 139.633 23.82 137.477C23.581 135.322 23.2623 133.156 22.6449 131Z" fill="#FFCC29"/>
<path d="M0.000180902 158.108C0.836673 158.733 1.67316 159.055 2.50966 159.297C3.34615 159.518 4.18264 159.619 5.01913 159.619C5.85562 159.619 6.69212 159.518 7.52861 159.297C8.3651 159.065 9.20159 158.743 10.0381 158.108C9.20159 157.484 8.3651 157.151 7.52861 156.919C6.69212 156.698 5.85562 156.597 5.01913 156.597C4.18264 156.597 3.34615 156.698 2.50966 156.919C1.67316 157.161 0.836673 157.484 0.000180902 158.108Z" fill="#FFCC29"/>
<path d="M5.01896 149.133C4.40155 150.432 4.08289 151.732 3.84389 153.021C3.62481 154.32 3.52522 155.62 3.52522 156.909C3.52522 158.209 3.62481 159.508 3.84389 160.798C4.07293 162.097 4.39159 163.397 5.01896 164.686C5.63637 163.387 5.96499 162.087 6.19403 160.798C6.41311 159.498 6.5127 158.199 6.5127 156.909C6.5127 155.61 6.41311 154.31 6.19403 153.021C5.95503 151.732 5.63637 150.432 5.01896 149.133Z" fill="#FFCC29"/>
<path d="M8.9325 173.349C10.1574 173.974 11.3822 174.296 12.6071 174.538C13.832 174.76 15.0568 174.861 16.2817 174.861C17.5065 174.861 18.7314 174.76 19.9563 174.538C21.1811 174.306 22.406 173.984 23.6309 173.349C22.406 172.725 21.1811 172.392 19.9563 172.161C18.7314 171.939 17.5065 171.838 16.2817 171.838C15.0568 171.838 13.832 171.939 12.6071 172.161C11.3822 172.403 10.1574 172.725 8.9325 173.349Z" fill="#FFCC29"/>
<path d="M16.2719 160.224C15.6545 162.117 15.3358 164.021 15.0968 165.915C14.8777 167.809 14.7782 169.713 14.7782 171.607C14.7782 173.501 14.8777 175.404 15.0968 177.298C15.3259 179.192 15.6445 181.096 16.2719 182.99C16.8893 181.096 17.2179 179.192 17.447 177.298C17.666 175.404 17.7656 173.501 17.7656 171.607C17.7656 169.713 17.666 167.809 17.447 165.915C17.2179 164.021 16.8893 162.117 16.2719 160.224Z" fill="#FFCC29"/>
</g>
<g clip-path="url(#clip2)">
<path d="M213.621 59.3781C209.717 74.6332 219.038 90.1971 234.396 94.074C249.755 97.9509 265.426 88.6936 269.33 73.4395C273.233 58.1843 263.913 42.6204 248.554 38.7435C233.195 34.8666 217.523 44.1229 213.621 59.3781ZM220.719 60.2047C224.169 48.8194 236.258 42.367 247.721 45.7933C259.184 49.2197 265.681 61.2265 262.231 72.6118C258.781 83.9971 246.692 90.4496 235.229 87.0232C223.766 83.5968 217.269 71.59 220.719 60.2047Z" fill="#4CAEA4"/>
<path d="M193.706 59.4223C193.842 60.1041 194.462 60.3425 195.995 60.9459C198.737 62.026 201.482 63.1071 204.183 64.2817C204.608 64.4668 205.034 65.1245 205.086 65.6042C205.399 68.4553 205.538 71.3265 205.879 74.1736C205.984 75.0556 205.898 75.5252 205.1 76.023C201.909 78.0143 198.774 80.095 195.652 82.1205C196.433 85.4452 200.364 92.9164 202.465 95.0062C205.775 93.6234 209.179 92.2607 212.523 90.7673C213.564 90.3027 214.096 90.3922 214.964 91.2158C216.977 93.1266 219.171 94.8604 221.387 96.5409C222.286 97.2217 222.764 97.7548 222.473 98.9807C221.719 102.159 221.159 105.381 220.459 108.573C220.271 109.431 220.435 109.967 221.287 110.229C225.299 111.462 229.312 112.69 233.324 113.922C234.31 114.225 234.462 113.419 234.708 112.843C235.954 109.923 237.217 107.01 238.363 104.052C238.793 102.942 239.371 102.576 240.586 102.538C243.8 102.437 247.009 102.129 250.467 101.886C252.513 104.971 254.771 108.376 257.091 111.876C261.751 110.343 265.947 108.048 269.922 105.014C268.348 101.258 266.773 97.5003 265.385 94.1896C267.766 91.1947 270.032 88.4693 272.132 85.6232C272.739 84.7996 273.216 84.6638 274.128 84.8629C277.293 85.5538 280.479 86.1462 283.65 86.815C284.335 86.9598 284.838 86.9859 285.189 86.2427C286.963 82.4845 288.394 78.6297 288.972 74.4853C289.1 73.5611 288.766 73.1971 288.001 72.8823C284.917 71.6171 281.858 70.2937 278.768 69.0406C278.02 68.7369 277.707 68.4221 277.638 67.515C277.402 64.3702 277.03 61.2315 276.577 58.1099C276.462 57.3124 276.717 57.0026 277.282 56.6325C280.431 54.5729 283.565 52.4901 286.784 50.3611C285.15 45.8064 283.067 41.5785 280.083 37.6905C276.225 39.2855 272.392 40.8695 268.725 42.3851C265.634 39.8387 262.642 37.3738 259.44 34.7369C260.008 31.925 260.685 28.6917 261.307 25.4464C261.817 22.7834 262.202 23.1333 259.508 22.011C259.251 21.9034 259.033 21.7043 258.798 21.5474C256.389 20.8273 253.979 20.1072 251.57 19.3872C251.007 19.3238 250.416 19.3469 249.886 19.18C248.507 18.7455 247.73 19.0573 247.18 20.5246C246.035 23.5819 244.697 26.5687 243.365 29.5536C243.191 29.9448 242.618 30.3521 242.185 30.4064C239.366 30.7604 236.508 30.873 233.719 31.3719C232.354 31.6162 231.78 31.2461 231.107 30.1892C229.197 27.1923 227.163 24.2728 224.978 21.0264C220.656 23.2802 216.441 25.4786 212.178 27.7021C212.513 28.5459 212.698 29.0347 212.9 29.5164C214.146 32.4872 215.364 35.469 216.663 38.4166C217.031 39.2534 216.844 39.724 216.267 40.4049C214.284 42.7441 212.454 45.211 210.487 47.5643C210.182 47.9294 209.428 48.1858 208.95 48.1033C206.332 47.6518 203.74 47.0564 201.13 46.5526C199.019 46.1453 198.233 46.0015 197.565 46.6863L193.706 59.4223ZM212.634 59.1286C214.592 51.4774 219.432 45.0411 226.264 41.0053C233.096 36.9695 241.101 35.818 248.805 37.763C256.508 39.7069 262.989 44.5151 267.052 51.3004C271.115 58.0857 272.275 66.0366 270.316 73.6878C268.359 81.339 263.518 87.7754 256.686 91.8112C249.855 95.847 241.849 96.9985 234.146 95.0535C226.442 93.1095 219.962 88.3014 215.898 81.516C211.835 74.7307 210.676 66.7798 212.634 59.1286Z" fill="#4CAEA4"/>
<path d="M38.2186 98.9225C38.6621 99.2654 39.1643 99.0864 40.4159 98.6519C42.6526 97.8765 44.8914 97.1002 47.1534 96.4022C47.5098 96.2926 48.1164 96.4696 48.4019 96.7341C50.101 98.303 51.7049 99.9734 53.4191 101.524C53.9507 102.005 54.1462 102.335 53.9254 103.054C53.0415 105.929 52.2395 108.829 51.4153 111.69C53.649 113.301 59.9907 115.785 62.3722 115.957C63.6501 113.388 64.9957 110.783 66.2361 108.131C66.6219 107.306 66.9925 107.083 67.9555 107.13C70.1892 107.239 72.4391 107.147 74.6748 107.009C75.58 106.954 76.1531 107.028 76.625 107.924C77.8492 110.247 79.2151 112.497 80.4788 114.8C80.818 115.42 81.2018 115.659 81.8589 115.373C84.9472 114.028 88.0345 112.678 91.1218 111.332C91.8812 111.001 91.5471 110.432 91.3911 109.953C90.6024 107.53 89.8267 105.1 88.958 102.706C88.6319 101.807 88.7889 101.284 89.5058 100.626C91.4053 98.8862 93.1905 97.0247 95.1609 95.0717C98.0356 95.8762 101.209 96.7653 104.471 97.6784C106.489 94.3154 107.823 90.7302 108.63 86.813C105.686 85.3538 102.741 83.8946 100.147 82.6083C100.007 79.547 99.9412 76.709 99.7093 73.884C99.6425 73.0664 99.8592 72.7355 100.518 72.3795C102.806 71.1465 105.055 69.8422 107.334 68.5931C107.827 68.3226 108.146 68.0762 107.966 67.4416C107.053 64.2335 105.882 61.145 104.04 58.3271C103.629 57.6986 103.234 57.6523 102.602 57.8615C100.06 58.7032 97.5009 59.4967 94.9624 60.3495C94.3478 60.5557 93.9904 60.5285 93.4689 60.0126C91.6615 58.2265 89.7741 56.5149 87.8462 54.8555C87.3541 54.4311 87.345 54.1103 87.4918 53.5904C88.314 50.695 89.1139 47.7946 89.9422 44.8208C86.539 42.908 83.0365 41.4286 79.1665 40.6261C77.6679 43.608 76.1795 46.5717 74.7548 49.4067C71.5308 49.4741 68.4091 49.5395 65.0686 49.6099C63.9255 47.6065 62.6243 45.2895 61.2847 42.9935C60.1851 41.1098 60.6043 41.1219 58.3736 41.846C58.161 41.9154 57.923 41.9074 57.6962 41.9355C55.8523 42.7561 54.0085 43.5768 52.1646 44.3974C51.7889 44.6529 51.4426 44.9757 51.0325 45.1507C49.9653 45.6073 49.6585 46.2016 50.101 47.3793C51.0234 49.8331 51.792 52.3463 52.5635 54.8535C52.6648 55.1823 52.5321 55.7284 52.2993 55.9869C50.7754 57.6744 49.0996 59.2342 47.6698 60.9942C46.9702 61.855 46.4254 61.9305 45.4574 61.6398C42.7113 60.8172 39.9308 60.1062 36.8861 59.2755C35.4543 62.8999 34.059 66.4359 32.6465 70.0121C33.2965 70.35 33.6671 70.5502 34.0448 70.7372C36.3737 71.8907 38.6915 73.0654 41.0396 74.1777C41.7069 74.4934 41.8415 74.8766 41.8517 75.5916C41.8861 78.0475 42.0795 80.5004 42.1311 82.9563C42.1392 83.3374 41.8172 83.8865 41.4831 84.0856C39.6544 85.1778 37.765 86.1704 35.913 87.2274C34.4154 88.0822 33.8626 88.405 33.818 89.1704L38.2186 98.9225ZM49.5572 88.8616C46.6957 83.1936 46.229 76.7572 48.2409 70.7402C50.2529 64.7222 54.5046 59.8437 60.2114 57.0016C65.9182 54.1596 72.3986 53.6959 78.4567 55.6942C84.5149 57.6925 89.4278 61.9154 92.2883 67.5844C95.1498 73.2524 95.6166 79.6888 93.6046 85.7058C91.5916 91.7238 87.3409 96.6023 81.6331 99.4444C75.9263 102.286 69.4459 102.75 63.3878 100.752C57.3307 98.7525 52.4177 94.5296 49.5572 88.8616Z" fill="#F39C5B"/>
<path d="M174.289 63.5667L173.238 69.114C173.326 69.3956 173.599 69.468 174.273 69.6551C175.479 69.9879 176.686 70.3218 177.88 70.6969C178.068 70.7563 178.277 71.0147 178.321 71.2149C178.583 72.4046 178.771 73.6094 179.044 74.7951C179.129 75.1632 179.114 75.3643 178.799 75.6107C177.543 76.5943 176.314 77.612 175.089 78.6056C175.569 79.9733 177.567 82.9501 178.548 83.7376C179.882 83.0055 181.257 82.2784 182.6 81.499C183.019 81.2566 183.247 81.2707 183.65 81.5794C184.586 82.2955 185.59 82.929 186.602 83.5395C187.012 83.7869 187.238 83.99 187.17 84.52C186.996 85.8948 186.906 87.2796 186.755 88.6574C186.714 89.0275 186.808 89.2467 187.18 89.3191C188.929 89.66 190.678 89.999 192.426 90.3389C192.857 90.4223 192.884 90.0764 192.962 89.822C193.356 88.5347 193.756 87.2484 194.106 85.9491C194.238 85.4613 194.465 85.2813 194.975 85.2109C196.327 85.0249 197.666 84.7513 199.115 84.4939C200.118 85.7037 201.225 87.0392 202.363 88.413C204.26 87.5582 205.927 86.4016 207.467 84.9434C206.632 83.4289 205.798 81.9143 205.062 80.5788C205.931 79.209 206.763 77.957 207.52 76.6626C207.739 76.2875 207.935 76.2091 208.328 76.2523C209.695 76.4022 211.066 76.5098 212.435 76.6506C212.731 76.6807 212.945 76.6697 213.059 76.3398C213.637 74.6744 214.067 72.9839 214.122 71.2098C214.134 70.8146 213.977 70.6758 213.639 70.5773C212.28 70.181 210.93 69.7597 209.57 69.3695C209.241 69.2749 209.094 69.1562 209.024 68.7761C208.782 67.4597 208.482 66.1523 208.15 64.855C208.065 64.5241 208.158 64.3813 208.381 64.2003C209.616 63.1906 210.845 62.1708 212.106 61.1289C211.21 59.2795 210.14 57.5889 208.704 56.0824C207.149 56.9282 205.604 57.7679 204.124 58.5715C202.705 57.6352 201.331 56.7291 199.86 55.7596C199.972 54.5477 200.112 53.1529 200.227 51.756C200.322 50.6095 200.499 50.7402 199.313 50.3862C199.199 50.352 199.098 50.2776 198.992 50.2223C197.943 50.0262 196.894 49.8301 195.844 49.634C195.603 49.632 195.355 49.6682 195.124 49.6219C194.522 49.5002 194.208 49.6662 194.043 50.3098C193.699 51.6514 193.27 52.9718 192.842 54.2903C192.787 54.4633 192.563 54.6604 192.384 54.7026C191.21 54.9782 190.009 55.1532 188.855 55.4891C188.29 55.653 188.031 55.5222 187.699 55.1069C186.757 53.9272 185.766 52.7868 184.697 51.5146C182.976 52.6591 181.297 53.7754 179.599 54.9038C179.778 55.2447 179.879 55.4428 179.986 55.6369C180.646 56.8347 181.295 58.0385 181.977 59.2242C182.17 59.5611 182.112 59.7682 181.9 60.081C181.17 61.1571 180.508 62.2794 179.785 63.3605C179.673 63.5285 179.367 63.6703 179.162 63.6562C178.037 63.5828 176.916 63.447 175.792 63.3515C174.879 63.274 174.54 63.2479 174.289 63.5667ZM184.672 68.2371C185.612 63.2791 190.42 60.0156 195.412 60.9479C200.404 61.8812 203.69 66.6571 202.751 71.6151C201.812 76.5731 197.003 79.8366 192.011 78.9043C187.018 77.971 183.732 73.1951 184.672 68.2371Z" fill="#7DF5F2"/>
<path d="M173.015 67.152H155.145C153.316 67.152 151.834 68.6243 151.834 70.4405V76.2554C151.834 78.0716 153.316 79.544 155.145 79.544H173.015C174.843 79.544 176.326 78.0716 176.326 76.2554V70.4405C176.327 68.6243 174.843 67.152 173.015 67.152Z" fill="#A0ACF4"/>
<path d="M149.342 189.316L130.415 197.98V199.9H197.819V197.98L178.721 189.316H149.342Z" fill="#A0ACF4"/>
<path d="M178.733 152.178H149.342V189.331H178.733V152.178Z" fill="#A0ACF4"/>
<path d="M252.975 163.833V80.0538C252.975 76.0734 249.726 72.8461 245.718 72.8461H82.1657C78.158 72.8461 74.9087 76.0734 74.9087 80.0538V163.834H252.975V163.833Z" fill="#323CA1"/>
<path d="M197.818 197.98H130.415V199.899H197.818V197.98Z" fill="#323CA1"/>
<path d="M178.721 184.956H149.342V189.316H178.721V184.956Z" fill="#323CA1"/>
<path d="M74.9087 163.833V177.259C74.9087 180.052 76.7667 182.315 79.0602 182.315H248.825C251.117 182.315 252.976 180.052 252.976 177.259V163.833H74.9087Z" fill="#A0ACF4"/>
<path d="M165.876 70.4435C165.876 71.3507 165.136 72.0858 164.222 72.0858C163.309 72.0858 162.569 71.3507 162.569 70.4435C162.569 69.5364 163.309 68.8013 164.222 68.8013C165.136 68.8013 165.876 69.5364 165.876 70.4435Z" fill="#323CA1"/>
<path d="M248.807 160.195V80.2771C248.807 78.1823 247.037 76.4837 244.85 76.4837H83.0333C80.8482 76.4837 79.0762 78.1823 79.0762 80.2771V160.195H248.807Z" fill="#FFFFF7"/>
<path d="M272.331 199.592H34.7847V201H272.331V199.592Z" fill="#0E2E35"/>
<path d="M92.0547 181.632C91.7752 181.022 91.7357 180.296 91.9322 179.652L89.5456 175.194L86.3023 169.916L78.0672 165.706L69.4706 166.805L55.9559 165.951L52.738 165.455L43.5521 174.744L41.0986 180.608C41.2576 181.134 41.2586 181.713 41.0996 182.24C41.5199 184.598 41.2677 187.248 42.1304 189.512C43.9601 194.311 47.8716 195.722 52.7289 195.982C53.2534 196.01 53.7971 196.221 54.2508 196.552L54.4523 196.042L77.6115 196.709C78.0145 196.26 78.618 195.969 79.4311 195.985C80.473 196.006 81.5858 196.026 82.7027 195.993C83.0885 195.341 83.777 194.871 84.7713 194.871C84.9435 194.871 85.1035 194.888 85.2574 194.915C86.4178 193.712 87.7918 192.684 88.9947 191.545C89.0332 191.218 89.1294 190.892 89.2853 190.586C89.6407 189.888 90.065 189.231 90.4447 188.546C90.4994 188.449 90.549 188.35 90.6007 188.252C90.5267 187.622 90.6898 186.973 91.0735 186.436C91.0786 186.417 91.0816 186.402 91.0867 186.379C91.2102 185.748 91.5454 185.302 91.9808 185.01C91.9818 183.887 91.9119 182.733 92.0547 181.632Z" fill="white"/>
<path d="M77.6933 196.899L54.5796 196.233L54.3366 196.848L54.1382 196.703C53.7018 196.384 53.1975 196.194 52.7186 196.168C48.7969 195.959 44.0288 195.019 41.954 189.577C41.4073 188.142 41.2999 186.551 41.1956 185.012C41.1339 184.098 41.0701 183.153 40.9131 182.272L40.905 182.228L40.9182 182.186C41.066 181.694 41.065 181.152 40.9172 180.661L40.8979 180.597L43.4172 174.612L52.672 165.254L55.9861 165.765L69.4835 166.618L78.1024 165.513L78.1551 165.54L86.4378 169.774L89.7094 175.097L92.1375 179.632L92.1152 179.706C91.9289 180.316 91.9704 180.99 92.2286 181.553L92.2509 181.601L92.2438 181.655C92.1385 182.467 92.1507 183.327 92.1628 184.159C92.1669 184.443 92.1709 184.726 92.1709 185.008V185.107L92.0879 185.163C91.6525 185.456 91.3781 185.877 91.2738 186.413L91.2282 186.542C90.8748 187.036 90.7189 187.635 90.7888 188.229L90.7958 188.286L90.7229 188.426C90.6865 188.496 90.65 188.567 90.6106 188.635C90.4607 188.906 90.3027 189.173 90.1448 189.44C89.9099 189.838 89.6668 190.25 89.4542 190.668C89.3114 190.949 89.2193 191.251 89.1828 191.564L89.1747 191.631L89.1251 191.678C88.6178 192.159 88.0721 192.627 87.5445 193.079C86.8155 193.704 86.0611 194.349 85.3938 195.042L85.324 195.115L85.2248 195.098C84.1717 194.918 83.3282 195.305 82.8655 196.086L82.8128 196.176L82.7085 196.179C81.62 196.211 80.5356 196.194 79.4279 196.171C78.7353 196.16 78.1551 196.385 77.7541 196.831L77.6933 196.899ZM54.3245 195.85L77.5303 196.518C78.0032 196.03 78.6624 195.793 79.4339 195.797C80.5012 195.818 81.5471 195.836 82.5931 195.808C83.1328 194.975 84.0714 194.555 85.1873 194.713C85.8495 194.035 86.5836 193.406 87.2954 192.797C87.8027 192.362 88.3272 191.913 88.8143 191.455C88.8608 191.122 88.9621 190.801 89.115 190.502C89.3327 190.074 89.5788 189.656 89.8167 189.253C89.9726 188.988 90.1286 188.724 90.2774 188.455C90.3149 188.388 90.3493 188.321 90.3848 188.255L90.405 188.216C90.3412 187.556 90.5184 186.895 90.9052 186.344L90.8991 186.343C91.0146 185.749 91.3224 185.256 91.7892 184.912C91.7892 184.665 91.7851 184.415 91.7811 184.166C91.7689 183.338 91.7568 182.483 91.858 181.661C91.5917 181.049 91.5451 180.332 91.7264 179.674L89.3783 175.283L86.1685 170.059L78.0325 165.9L69.4946 166.991L55.9436 166.138L52.8046 165.656L43.7119 174.849L41.2979 180.618C41.4447 181.146 41.4427 181.721 41.2928 182.249C41.4478 183.137 41.5116 184.077 41.5723 184.987C41.6746 186.499 41.7799 188.062 42.3064 189.445C43.8647 193.533 47.0827 195.491 52.7378 195.794C53.2157 195.819 53.7129 195.985 54.1594 196.264L54.3245 195.85ZM90.9568 186.353L91.0004 186.384L91.0865 186.378L90.9568 186.353Z" fill="#50333C"/>
<path d="M41.5723 183.094C41.5723 183.094 64.9725 204.361 91.3598 183.094L88.9925 191.545L83.8284 194.948L80.1731 195.176L72.7024 195.786L68.8466 196.349L63.9579 195.818L61.4964 196.062L56.2908 195.329L49.0804 195.993L47.1069 194.528L41.5723 188.675V183.094Z" fill="#FFD8B6"/>
<path d="M59.127 166.039L75.3077 166.511L84.1929 163.024L89.6618 156.99L91.3608 149.291L89.1778 138.015L84.6142 131.3L77.0848 125.655L68.9883 123.826L61.5663 124.356L52.9281 127.449L46.6158 134.357L43.5781 141.021L42.1909 148.993L45.0089 158.504L50.34 163.541L59.127 166.039Z" fill="white"/>
<path d="M75.3401 166.7L75.3017 166.699L59.0754 166.219L50.2094 163.677L44.8409 158.606L41.9966 149.005L43.4051 140.945L46.4751 134.231L52.8634 127.273L61.5521 124.17L69.0015 123.638L69.0289 123.644L77.1972 125.507L84.7701 131.197L89.362 137.981L91.5522 149.294L89.8349 157.079L89.8015 157.116L84.2618 163.198L75.3401 166.7ZM59.1574 165.851L75.2743 166.323L84.0826 162.867L89.4876 156.903L91.1674 149.29L88.9995 138.091L84.4754 131.434L77.0028 125.832L68.9732 124.018L61.6058 124.544L53.0355 127.611L46.7748 134.463L43.7594 141.08L42.3844 148.984L45.175 158.404L50.4363 163.374L59.1574 165.851Z" fill="#50333C"/>
<path d="M53.8443 127.449L59.4255 124.237L58.2287 117.102L55.3895 108.848L50.9686 100.324L44.7282 94.9349L37.5715 93.3399L31.651 96.6456L28.2752 101.213L26.1711 108.451L25.7984 112.155L25.4248 116.81L26.3634 120.618L28.1952 121.996L34.8102 120.216L38.7248 117.596L42.4257 118.398L46.2197 120.779L50.1961 124.356L53.8443 127.449Z" fill="white"/>
<path d="M53.823 127.678L50.0725 124.5L46.0911 120.919L42.3517 118.575L38.7632 117.797L34.8588 120.397L28.1546 122.201L26.1953 120.728L25.2334 116.826L25.2354 116.795L25.608 112.139L25.9817 108.432L28.1212 101.102L31.5578 96.4816L37.5411 93.1418L44.8517 94.7931L51.1367 100.239L55.5575 108.763L58.4079 117.043L59.6341 124.336L53.823 127.678ZM38.6863 117.396L42.5259 118.24L46.32 120.62L50.3226 124.217L53.8645 127.22L59.2169 124.141L58.0413 117.134L55.2092 108.91L50.8157 100.443L44.6391 95.1079L37.5988 93.54L31.7796 96.7894L28.4473 101.297L26.3523 108.504L25.9857 112.173L25.6151 116.795L26.5305 120.508L28.2346 121.79L34.7292 120.042L38.6863 117.396Z" fill="#50333C"/>
<path d="M78.3137 126.666L72.7314 123.455L73.9283 116.32L76.7685 108.066L81.1894 99.5419L87.4288 94.1525L94.5866 92.5585L100.506 95.8631L103.883 100.431L105.987 107.669L106.36 111.373L106.732 116.029L105.794 119.836L103.962 121.213L97.3478 119.433L93.4322 116.813L89.7323 117.616L85.9383 119.996L81.9609 123.575L78.3137 126.666Z" fill="white"/>
<path d="M56.1672 126.169C56.1672 126.169 49.7202 108.283 43.4383 104.857L42.3468 111.834L40.8522 115.736L40.6274 116.648L44.2109 117.954L50.5161 123.116L53.3077 127.227L56.1672 126.169Z" fill="#FFD8B6"/>
<path d="M76.0859 126.169C76.0859 126.169 82.5329 107.347 88.8149 103.921L89.9064 111.834L91.401 115.736L91.6257 116.648L88.0423 117.954L81.7371 123.116L78.9454 127.227L76.0859 126.169Z" fill="#FFD8B6"/>
<path d="M91.5833 145.27C91.4861 144.83 91.5023 144.362 91.6319 143.932C90.6791 142.995 90.3439 141.758 90.0513 140.452C89.6452 138.644 88.899 136.909 88.1325 135.222C86.9498 132.621 85.4856 129.831 82.613 129.007C85.6831 132.773 88.9577 139.328 88.4838 149.957C87.7558 166.301 60.8673 165.196 51.731 164.345C52.8549 164.863 54.074 165.286 55.2729 165.401C56.0485 165.474 56.7502 165.823 57.1826 166.392C57.4509 166.429 57.6919 166.503 57.9066 166.607C58.0311 166.589 58.1597 166.576 58.2974 166.576C58.7156 166.576 59.068 166.672 59.3707 166.825C61.5872 166.597 63.7723 167.059 65.9878 167.099C66.1731 167.102 66.3462 167.123 66.5083 167.159C66.6277 167.139 66.7492 167.127 66.8738 167.126C68.2377 167.117 69.5986 167.028 70.9625 167.018C71.2349 166.904 71.5478 166.838 71.9032 166.838C72.1259 166.838 72.3295 166.866 72.5198 166.912C72.7659 166.825 73.0403 166.773 73.3491 166.773C73.5182 166.773 73.6772 166.79 73.828 166.817C76.0435 166.044 78.2428 165.348 80.5646 165.011L84.6928 163.027C84.8741 161.998 85.6426 161.09 86.9964 161.085C86.9984 161.082 86.9994 161.078 87.0014 161.075C88.2155 159.255 89.9034 157.526 90.517 155.391C90.6456 154.943 90.8623 154.592 91.1317 154.326L91.9589 148.229C91.2218 147.464 91.1043 146.207 91.5833 145.27Z" fill="#FFD8B6"/>
<path d="M79.5448 188.425C79.4851 188.129 79.3504 187.837 79.2249 187.566C78.9697 187.016 78.5839 186.5 78.1283 186.099C77.7739 185.787 77.381 185.518 76.9476 185.325C76.7076 185.219 76.4819 185.159 76.2186 185.231C75.9989 185.291 75.7609 185.459 75.6526 185.663C75.5361 185.882 75.4784 186.146 75.5574 186.387C75.6283 186.606 75.772 186.852 75.9928 186.95C76.2753 187.074 76.5406 187.229 76.7866 187.416C76.7228 187.367 76.659 187.319 76.5953 187.269C76.8464 187.464 77.0701 187.686 77.2666 187.934C77.217 187.871 77.1684 187.807 77.1187 187.744C77.3294 188.016 77.5045 188.312 77.6402 188.627C77.6088 188.553 77.5764 188.477 77.545 188.403C77.6159 188.571 77.6838 188.747 77.7202 188.926C77.7648 189.147 77.9642 189.376 78.1556 189.488C78.3581 189.606 78.6578 189.656 78.8847 189.583C79.1135 189.509 79.3342 189.368 79.4507 189.15C79.5732 188.917 79.5965 188.683 79.5448 188.425Z" fill="#222122"/>
<path d="M54.1845 188.925C54.2209 188.746 54.2877 188.57 54.3596 188.402C54.3282 188.476 54.2958 188.552 54.2645 188.626C54.4001 188.31 54.5753 188.015 54.7859 187.743C54.7363 187.806 54.6877 187.87 54.6381 187.933C54.8345 187.685 55.0583 187.463 55.3094 187.268C55.2456 187.318 55.1818 187.366 55.118 187.415C55.3641 187.229 55.6294 187.074 55.9119 186.949C56.1144 186.859 56.2906 186.591 56.3473 186.386C56.4101 186.161 56.3817 185.861 56.2521 185.662C56.1215 185.461 55.9281 185.285 55.6861 185.23C55.602 185.219 55.518 185.208 55.435 185.197C55.2638 185.198 55.1049 185.24 54.957 185.325C53.746 185.861 52.8347 186.949 52.4266 188.191C52.4013 188.267 52.377 188.346 52.3608 188.425C52.3102 188.674 52.3234 188.924 52.456 189.149C52.5704 189.344 52.7962 189.53 53.022 189.582C53.264 189.636 53.5364 189.625 53.7511 189.487C53.9475 189.359 54.1359 189.163 54.1845 188.925Z" fill="#222122"/>
<path d="M78.7144 166.267C79.328 166.547 79.9304 166.849 80.5228 167.172C81.1587 167.519 81.7531 167.966 82.394 168.295C82.5996 168.401 82.229 168.16 82.3738 168.279C82.4993 168.382 82.6279 168.48 82.7535 168.584C83.8329 169.468 84.8434 170.438 85.7851 171.465C88.52 174.453 90.9046 178.286 90.8317 182.455C90.8104 183.655 90.695 184.371 90.4034 185.56C90.055 186.983 89.5781 188.235 88.8521 189.483C87.0244 192.626 83.9149 194.579 80.2919 195.058C78.9088 195.241 77.5074 195.18 76.1161 195.242C74.6287 195.309 73.1382 195.44 71.6477 195.402C70.0985 195.364 68.5695 195.087 67.0142 195.069C65.3567 195.051 63.7204 195.202 62.0719 195.353C60.6037 195.487 59.1193 195.365 57.6531 195.269C56.108 195.166 54.5668 195.15 53.0217 195.084C51.1616 195.003 49.2762 194.617 47.6237 193.739C45.0822 192.388 43.4449 190.035 42.6166 187.446C42.4303 186.864 42.2784 186.272 42.1579 185.672C42.1063 185.417 42.0607 185.16 42.0202 184.902C42.0111 184.842 41.9554 184.45 41.9868 184.689C41.9676 184.542 41.9504 184.395 41.9342 184.248C41.8542 183.511 41.8147 182.767 41.8288 182.025C41.8339 181.781 41.8491 181.542 41.8714 181.3C41.8774 181.232 41.8876 181.165 41.8957 181.098C41.8552 181.443 41.8937 181.119 41.9068 181.04C41.9453 180.821 41.9828 180.602 42.0293 180.384C42.164 179.747 42.3402 179.118 42.5478 178.501C43.9745 174.27 47.0911 170.44 50.8528 168.028C52.0689 167.247 53.3518 166.561 54.7005 166.034C55.1744 165.849 55.5095 165.404 55.3617 164.878C55.2351 164.428 54.6772 164.034 54.1973 164.221C49.0018 166.251 44.504 170.162 41.9483 175.117C40.9216 177.107 40.0984 179.346 39.9526 181.598C39.6691 185.95 41.1494 190.943 44.5121 193.866C45.9307 195.099 47.6258 195.962 49.4453 196.443C52.078 197.139 54.8423 196.961 57.5357 197.139C59.0424 197.239 60.5642 197.367 62.073 197.232C63.8439 197.073 65.5997 196.913 67.3808 196.954C68.9472 196.99 70.4924 197.281 72.0578 197.287C73.7346 197.294 75.4073 197.13 77.0831 197.086C79.6317 197.018 82.0578 196.869 84.4313 195.857C86.1759 195.113 87.7515 193.972 88.9837 192.535C91.0504 190.124 92.2128 187.08 92.6077 183.96C93.117 179.931 91.6154 176.038 89.2814 172.791C87.6502 170.521 85.6453 168.304 83.3468 166.67C82.2148 165.866 80.9299 165.219 79.6682 164.642C78.5706 164.141 77.6076 165.761 78.7144 166.267Z" fill="#222122"/>
<path d="M90.414 148.07C90.4008 152.335 89.3852 156.705 86.3567 159.882C83.5124 162.866 79.5057 164.333 75.5131 165.047C73.1225 165.474 70.6863 165.626 68.2602 165.634C65.7055 165.643 63.1508 165.652 60.6072 165.386C56.5013 164.955 52.1827 163.861 48.8869 161.272C45.6112 158.698 43.8716 154.862 43.4413 150.789C42.9107 145.765 43.8241 140.597 46.321 136.175C48.6712 132.012 52.3043 128.678 56.6694 126.683C58.8474 125.688 61.23 125.043 63.6146 124.796C66.0913 124.538 68.7199 124.543 71.1804 124.937C75.9506 125.703 80.3846 127.943 83.7726 131.371C87.2366 134.873 89.4186 139.433 90.1558 144.276C90.3482 145.53 90.417 146.803 90.414 148.07C90.4109 149.28 92.3044 149.282 92.3065 148.07C92.3186 142.681 90.739 137.3 87.5434 132.916C84.4875 128.726 80.1699 125.567 75.2084 123.969C72.6911 123.158 70.023 122.766 67.3782 122.786C64.6848 122.806 62.0603 122.965 59.4499 123.687C54.4701 125.065 49.9885 128.038 46.8071 132.084C43.4555 136.346 41.6136 141.595 41.4273 146.994C41.2623 151.77 42.2303 156.667 45.3388 160.439C48.1517 163.853 52.3934 165.745 56.6542 166.655C59.1481 167.188 61.7059 167.432 64.2535 167.498C66.956 167.567 69.6889 167.571 72.3833 167.337C76.9449 166.939 81.7009 165.875 85.4595 163.142C89.1473 160.461 91.3466 156.458 92.0138 151.996C92.2082 150.695 92.3034 149.386 92.3065 148.071C92.3105 146.86 90.417 146.858 90.414 148.07Z" fill="#222122"/>
<path d="M39.6147 118.008C44.8729 119.426 49.5469 122.897 51.7553 127.923C51.9619 128.392 52.6433 128.49 53.0504 128.26C53.5364 127.986 53.5931 127.437 53.3896 126.974C50.9959 121.527 45.7934 117.727 40.1169 116.195C38.9404 115.878 38.4381 117.691 39.6147 118.008Z" fill="#222122"/>
<path d="M60.6618 124.356C60.2173 119.26 58.9111 114.099 57.049 109.345C55.4988 105.388 53.4554 101.569 50.5686 98.4065C47.2889 94.8132 42.4742 91.7358 37.4003 92.5444C32.6159 93.3077 28.9019 97.4722 27.0124 101.663C25.5138 104.983 24.7028 108.77 24.2461 112.369C23.8836 115.228 23.6254 119.013 25.7295 121.322C28.4391 124.297 33.3845 122.129 36.2146 120.542C39.5712 118.659 42.1998 115.726 43.422 112.074C44.0862 110.086 44.3626 107.886 44.1216 105.799C44.1004 105.614 44.0781 105.428 44.0447 105.245C43.831 104.056 42.0064 104.56 42.219 105.745C42.2757 106.062 42.2018 105.506 42.2312 105.829C42.2575 106.12 42.2838 106.409 42.295 106.699C42.3112 107.135 42.3071 107.571 42.2828 108.006C42.2484 108.634 42.2028 109.012 42.1198 109.488C41.5953 112.506 40.116 115.165 37.7547 117.197C36.0819 118.636 34.0517 119.668 31.9659 120.377C31.1649 120.649 30.3427 120.871 29.5165 120.898C29.1763 120.909 28.836 120.889 28.6457 120.852C28.509 120.825 28.3743 120.794 28.2407 120.754C28.1688 120.733 28.0989 120.709 28.028 120.683C27.7648 120.587 28.1809 120.764 27.9338 120.643C27.8063 120.581 27.6858 120.511 27.5653 120.437C27.378 120.32 27.5288 120.431 27.3911 120.31C27.1451 120.095 26.9891 119.916 26.901 119.785C26.5193 119.223 26.4049 118.917 26.2327 118.275C25.8753 116.939 25.8733 115.519 25.9705 114.058C26.1679 111.071 26.8727 108.095 27.7131 105.21C28.9302 101.032 31.653 96.5953 35.9007 94.8987C40.362 93.1156 44.9935 95.5916 48.1921 98.669C51.0212 101.391 53.0615 104.826 54.6239 108.393C56.0273 111.598 57.0328 114.984 57.7801 118.396C58.0494 119.626 58.2833 120.864 58.4777 122.108C58.5152 122.347 58.5506 122.584 58.585 122.823C58.6002 122.929 58.6144 123.035 58.6296 123.141C58.5962 122.9 58.6276 123.127 58.6417 123.235C58.6772 123.511 58.7106 123.788 58.74 124.064C58.7501 124.162 58.7602 124.259 58.7693 124.356C58.8736 125.553 60.7671 125.564 60.6618 124.356Z" fill="#222122"/>
<path d="M80.3621 126.898C82.5978 121.916 87.2333 118.484 92.4642 117.073C93.6388 116.756 93.1396 114.942 91.9609 115.26C86.3078 116.784 81.1519 120.549 78.7278 125.949C78.5182 126.416 78.5952 126.954 79.0671 127.235C79.469 127.475 80.1545 127.361 80.3621 126.898Z" fill="#222122"/>
<path d="M88.034 104.31C87.147 109.246 89.3919 114.623 93.2072 117.78C95.0946 119.341 97.2888 120.468 99.6076 121.256C101.211 121.8 103.086 122.149 104.714 121.499C107.693 120.31 108.125 116.678 108.036 113.894C107.93 110.593 107.193 107.301 106.29 104.134C104.973 99.5077 102.203 94.8283 97.7242 92.6098C95.5938 91.5548 93.2457 91.233 90.9056 91.6765C88.2011 92.1884 85.7345 93.6728 83.6506 95.4146C80.3841 98.144 77.9874 101.82 76.2104 105.641C73.6698 111.107 72.0882 117.115 71.4473 123.102C71.4361 123.209 71.424 123.316 71.4149 123.423C71.3096 124.628 73.2031 124.621 73.3074 123.423C73.3398 123.048 73.3873 122.675 73.4349 122.3C73.444 122.232 73.4876 121.907 73.4471 122.207C73.4613 122.101 73.4764 121.996 73.4916 121.889C73.5261 121.651 73.5615 121.412 73.599 121.174C73.6891 120.6 73.7873 120.027 73.8926 119.455C74.49 116.237 75.3254 113.055 76.4493 109.979C77.7677 106.367 79.5204 102.809 81.9708 99.8155C84.7118 96.4665 88.8036 93.1659 93.3854 93.354C97.7839 93.535 101.227 97.259 103.068 100.917C103.929 102.627 104.449 104.47 104.918 106.316C105.307 107.847 105.638 109.394 105.871 110.954C106.093 112.444 106.22 114.017 106.122 115.542C106.08 116.215 106.013 116.734 105.817 117.434C105.644 118.045 105.521 118.372 105.125 118.92C105.106 118.948 105.014 119.059 105.119 118.93C105.075 118.984 105.03 119.038 104.982 119.087C104.895 119.177 104.808 119.264 104.716 119.348C104.533 119.515 104.725 119.367 104.51 119.502C104.379 119.584 104.244 119.661 104.103 119.727C103.953 119.797 104.311 119.654 104.048 119.749C103.992 119.769 103.935 119.788 103.879 119.806C103.732 119.853 103.582 119.889 103.43 119.918C103.208 119.961 102.869 119.976 102.503 119.961C100.54 119.879 98.4502 118.909 96.7451 117.942C93.758 116.247 91.4099 113.607 90.4014 110.392C90.0176 109.168 89.8556 108.221 89.7928 107.071C89.7533 106.342 89.7817 105.621 89.8455 104.894C89.8728 104.582 89.8009 105.128 89.8576 104.81C90.0723 103.626 88.2487 103.119 88.034 104.31Z" fill="#222122"/>
<path d="M50.4349 195.266L46.896 198.149L47.3334 198.938L48.5262 199.889L61.2511 199.532L63.3582 199.255V197.842L60.2962 196.095L57.1624 195.046L50.4349 195.266Z" fill="white"/>
<path d="M72.8592 195.266L69.3203 198.149L69.7577 198.938L70.9505 199.889L83.6754 199.532L85.7825 199.255V197.842L82.7206 196.095L79.5867 195.046L72.8592 195.266Z" fill="white"/>
<path d="M66.1448 151.69C67.9315 151.69 69.3799 150.795 69.3799 149.69C69.3799 148.585 67.9315 147.69 66.1448 147.69C64.3581 147.69 62.9097 148.585 62.9097 149.69C62.9097 150.795 64.3581 151.69 66.1448 151.69Z" fill="#FFD8B6"/>
<path d="M58.7514 158.594L66.6504 156.578L72.6862 157.151L73.6907 159.274L71.297 159.911L66.6504 160.505L63.1965 160.081L60.2905 159.72L59.0714 159.338L57.8745 158.541L58.7514 158.594Z" fill="#FF3542"/>
<path d="M75.5324 158.195C72.4391 159.501 69.0895 160.149 65.7288 160.072C64.0581 160.034 62.3955 159.817 60.7703 159.427C59.9755 159.236 59.1897 159.005 58.4181 158.733C57.6658 158.469 56.8142 158.228 56.2209 157.677C55.7824 157.271 55.4544 156.628 55.6215 156.023C55.8017 155.37 56.3302 154.554 56.959 154.271C57.7245 153.927 58.4202 154.172 59.1441 154.462C59.9056 154.767 60.6873 155.021 61.4811 155.225C64.5441 156.012 67.7924 156.026 70.8655 155.28C71.8103 155.05 72.7266 154.741 73.6268 154.378C74.372 154.078 75.1882 153.94 75.8919 154.435C76.2777 154.705 76.4741 155.132 76.6999 155.529C76.8741 155.836 77.0108 156.11 76.9794 156.471C76.9085 157.289 76.2341 157.871 75.5324 158.195C75.1649 158.365 75.4848 158.905 75.8504 158.736C76.952 158.227 77.9646 157.001 77.5079 155.729C77.0199 154.369 75.9162 153.3 74.3882 153.496C73.4921 153.61 72.6345 154.114 71.7708 154.379C70.8493 154.661 69.9067 154.874 68.9528 155.013C66.8943 155.314 64.773 155.262 62.7317 154.864C61.7829 154.679 60.8483 154.423 59.939 154.096C59.1401 153.809 58.4019 153.395 57.5261 153.487C56.8517 153.557 56.2229 153.864 55.8067 154.403C55.4139 154.911 54.9754 155.606 54.9491 156.268C54.8914 157.746 56.1996 158.547 57.4086 159.024C59.2171 159.738 61.1116 160.226 63.0405 160.485C67.3925 161.069 71.8123 160.44 75.8494 158.736C76.224 158.579 75.902 158.039 75.5324 158.195Z" fill="#191919"/>
<path d="M58.5277 159.083C58.5277 159.083 65.1914 156.534 73.4346 159.083L75.0365 158.617L76.447 157.64L77.0241 156.515L76.853 155.49L76.2333 154.646L75.5499 154.073L73.6695 154.201L71.532 154.732L68.0053 155.49L62.5982 155.156L59.9484 154.307L57.9607 154.074L56.4004 154.307L55.481 155.242L55.6308 156.472L55.8657 157.491L57.6823 158.955L58.5277 159.083Z" fill="#222122"/>
<path d="M73.3309 140.528C75.3358 139.332 77.7447 139.332 79.7495 140.528C80.7965 141.153 81.7493 139.529 80.7044 138.905C78.1507 137.382 74.9287 137.382 72.375 138.905C71.3321 139.528 72.2829 141.154 73.3309 140.528Z" fill="#222122"/>
<path d="M53.5487 140.528C55.5536 139.332 57.9625 139.332 59.9673 140.528C61.0143 141.153 61.9671 139.529 60.9222 138.905C58.3685 137.381 55.1465 137.382 52.5929 138.905C51.5509 139.528 52.5007 141.154 53.5487 140.528Z" fill="#222122"/>
<path d="M51.3319 170.823L46.5263 166.511L44.4506 164.389H41.097L39.3159 167.606L39.7402 169.921L45.3234 175.735L49.803 174.423L51.3319 170.823Z" fill="white"/>
<path d="M82.7192 170.823L87.5249 166.511L89.5996 164.389H92.9532L94.7343 167.606L94.3101 169.921L88.7268 175.735L84.2482 174.423L82.7192 170.823Z" fill="white"/>
<path d="M47.8822 176.947C45.6394 174.72 43.354 172.527 41.1497 170.26C40.129 169.21 39.9346 167.616 40.7375 166.378C41.5324 165.152 43.1454 164.66 44.5063 165.191C45.1726 165.451 45.6363 165.965 46.1284 166.454C46.823 167.144 47.5187 167.835 48.2133 168.525C49.5387 169.841 50.8632 171.156 52.1886 172.473C53.0513 173.33 54.3899 172 53.5272 171.143C52.2747 169.899 51.0221 168.655 49.7696 167.411C49.0112 166.658 48.2518 165.904 47.4933 165.151C46.8564 164.518 46.2388 163.905 45.3953 163.535C43.6446 162.767 41.6205 163.054 40.1432 164.255C38.6982 165.43 38.0826 167.353 38.4633 169.151C38.8825 171.135 40.8034 172.574 42.1794 173.941C43.6345 175.386 45.0895 176.831 46.5446 178.277C47.4063 179.132 48.7449 177.804 47.8822 176.947Z" fill="#222122"/>
<path d="M87.8763 178.276C89.1157 177.045 90.3551 175.814 91.5954 174.582C92.368 173.814 93.1396 173.048 93.9122 172.281C94.4944 171.702 95.104 171.144 95.4908 170.409C96.3494 168.776 96.2613 166.721 95.1677 165.214C94.0661 163.695 92.2303 162.892 90.3581 163.153C88.1841 163.457 86.7564 165.319 85.2963 166.771C83.8291 168.228 82.3619 169.685 80.8947 171.142C80.032 171.999 81.3706 173.329 82.2333 172.472C84.464 170.256 86.641 167.968 88.9355 165.818C90.0422 164.781 91.8142 164.689 93.01 165.638C94.143 166.538 94.5278 168.17 93.8575 169.46C93.5568 170.039 93.0606 170.47 92.6029 170.924C91.8941 171.628 91.1854 172.332 90.4766 173.036C89.1643 174.339 87.852 175.643 86.5397 176.946C85.675 177.803 87.0136 179.132 87.8763 178.276Z" fill="#222122"/>
<path d="M66.4327 186.37C70.5458 186.37 73.8801 183.059 73.8801 178.974C73.8801 174.888 70.5458 171.577 66.4327 171.577C62.3197 171.577 58.9854 174.888 58.9854 178.974C58.9854 183.059 62.3197 186.37 66.4327 186.37Z" fill="#F4F4F4"/>
<path d="M75.8021 178.852C75.8052 178.806 75.8072 178.781 75.8072 178.781H75.8011C75.5328 169.838 66.4511 169.669 66.4511 169.669C58.6362 169.669 57.3067 176.938 57.0961 178.756H57.0586C57.0586 178.871 57.0606 178.983 57.0637 179.094C57.0606 179.141 57.0586 179.165 57.0586 179.165H57.0647C57.333 188.108 66.4147 188.277 66.4147 188.277C74.2296 188.277 75.5591 181.008 75.7697 179.19H75.8072C75.8072 179.076 75.8052 178.964 75.8021 178.852ZM66.4147 186.3C59.2883 186.3 59.0007 178.757 59.0007 178.757H58.9855C59.2629 171.958 66.4511 171.648 66.4511 171.648C73.5775 171.648 73.8651 179.191 73.8651 179.191H73.8803C73.6028 185.989 66.4147 186.3 66.4147 186.3Z" fill="#C6C6C6"/>
<path d="M76.0855 179.012C76.0906 184.272 71.7649 188.577 66.4723 188.578C61.1067 188.579 56.8155 184.307 56.8135 178.963C56.8115 173.731 61.1412 169.44 66.4237 169.438C71.775 169.437 76.0804 173.703 76.0855 179.012ZM57.3663 179.016C57.3542 183.954 61.4166 188.018 66.3771 188.03C71.446 188.042 75.5114 184.052 75.5337 179.043C75.5559 174.05 71.4814 169.992 66.4419 169.987C61.4287 169.981 57.3785 174.012 57.3663 179.016Z" fill="black"/>
<path d="M66.4713 188.705C61.0784 188.705 56.691 184.336 56.689 178.965C56.688 176.401 57.7046 173.981 59.5494 172.152C61.3953 170.323 63.8366 169.315 66.4257 169.315C66.4267 169.315 66.4278 169.315 66.4288 169.315C71.8196 169.315 76.2081 173.665 76.2131 179.014C76.2162 181.59 75.2016 184.021 73.3567 185.857C71.5118 187.693 69.0675 188.705 66.4743 188.706C66.4733 188.705 66.4723 188.705 66.4713 188.705ZM66.4278 169.564C66.4267 169.564 66.4257 169.564 66.4247 169.564C63.9035 169.564 61.5249 170.547 59.7277 172.329C57.9294 174.11 56.9401 176.467 56.9411 178.965C56.9431 184.197 61.2181 188.454 66.4713 188.454C66.4723 188.454 66.4733 188.454 66.4743 188.454C68.9997 188.454 71.3812 187.469 73.1785 185.679C74.9758 183.89 75.964 181.523 75.961 179.013C75.9549 173.803 71.6799 169.564 66.4278 169.564ZM66.4004 188.155C66.3923 188.155 66.3852 188.155 66.3771 188.155C61.3265 188.143 57.2276 184.043 57.2398 179.016C57.2519 173.966 61.3751 169.861 66.4328 169.861C66.4359 169.861 66.4389 169.861 66.4419 169.861C68.9176 169.863 71.2405 170.824 72.9841 172.563C74.7206 174.298 75.6714 176.599 75.6603 179.043C75.639 184.072 71.4865 188.155 66.4004 188.155ZM57.3674 179.016H57.494C57.4818 183.905 61.4682 187.892 66.3792 187.904C66.3862 187.904 66.3943 187.904 66.4014 187.904C71.3488 187.904 75.3879 183.934 75.4092 179.042C75.4193 176.665 74.4948 174.427 72.8059 172.74C71.1108 171.048 68.8508 170.115 66.4429 170.112C66.4399 170.112 66.4369 170.112 66.4338 170.112C61.5148 170.112 57.5051 174.104 57.494 179.016H57.3674Z" fill="black"/>
<path d="M66.4481 186.67C62.2389 186.688 58.7526 183.245 58.7354 179.052C58.7182 174.817 62.1599 171.366 66.4187 171.347C70.6624 171.327 74.1385 174.751 74.1628 178.973C74.1871 183.198 70.7252 186.652 66.4481 186.67ZM66.4451 171.896C62.5335 171.887 59.3014 175.076 59.2883 178.959C59.2751 182.905 62.4687 186.111 66.4238 186.122C70.3768 186.132 73.6069 182.946 73.612 179.031C73.617 175.096 70.4113 171.905 66.4451 171.896Z" fill="black"/>
<path d="M66.4152 186.797C64.3587 186.797 62.4126 185.993 60.9312 184.53C59.4427 183.06 58.6185 181.115 58.6104 179.053C58.5932 174.755 62.0967 171.242 66.4203 171.222C66.4324 171.222 66.4446 171.222 66.4567 171.222C70.7561 171.222 74.2666 174.69 74.2909 178.973C74.3021 181.042 73.4971 182.995 72.0238 184.474C70.5394 185.962 68.5598 186.788 66.4497 186.797C66.4385 186.797 66.4264 186.797 66.4152 186.797ZM66.4567 171.472C66.4446 171.472 66.4335 171.472 66.4213 171.472C62.2374 171.491 58.8463 174.892 58.8636 179.052C58.8717 181.046 59.6696 182.928 61.1104 184.352C62.5432 185.767 64.4266 186.545 66.4162 186.545C66.4274 186.545 66.4375 186.545 66.4486 186.545C68.491 186.536 70.4078 185.738 71.8446 184.297C73.2703 182.867 74.0499 180.977 74.0388 178.974C74.0145 174.83 70.6174 171.472 66.4567 171.472ZM66.4446 186.248C66.4375 186.248 66.4314 186.248 66.4243 186.248C64.4772 186.243 62.6505 185.481 61.2785 184.105C59.9075 182.729 59.1562 180.9 59.1623 178.958C59.1754 174.992 62.4338 171.771 66.4274 171.771C66.4335 171.771 66.4385 171.771 66.4456 171.771C70.4726 171.78 73.7431 175.037 73.7381 179.031C73.736 180.955 72.9746 182.766 71.5945 184.131C70.2144 185.496 68.3857 186.248 66.4446 186.248ZM66.4284 172.022C62.5726 172.022 59.4286 175.131 59.4154 178.959C59.4093 180.835 60.1343 182.6 61.4587 183.929C62.7822 185.258 64.5471 185.992 66.4254 185.997C66.4324 185.997 66.4385 185.997 66.4456 185.997C68.3199 185.997 70.0848 185.272 71.4183 183.954C72.7508 182.636 73.4849 180.887 73.488 179.031C73.493 175.175 70.3338 172.031 66.4466 172.022C66.4395 172.022 66.4335 172.022 66.4284 172.022Z" fill="black"/>
<path d="M66.7121 177.104C66.7121 177.702 66.7172 178.299 66.707 178.895C66.705 179.002 66.6665 179.135 66.5947 179.208C66.1188 179.699 65.6297 180.178 65.1437 180.658C65.0262 180.775 64.8925 180.8 64.7579 180.695C64.6374 180.599 64.6333 180.472 64.7072 180.346C64.7366 180.296 64.7832 180.257 64.8247 180.216C65.2307 179.812 65.6418 179.411 66.0408 179C66.1086 178.931 66.1603 178.813 66.1603 178.717C66.1684 177.601 66.1653 176.485 66.1653 175.368C66.1653 175.315 66.1623 175.263 66.1674 175.212C66.1825 175.055 66.2716 174.961 66.4296 174.947C66.5744 174.934 66.6989 175.052 66.7081 175.215C66.7172 175.377 66.7111 175.539 66.7111 175.701C66.7121 176.169 66.7121 176.637 66.7121 177.104Z" fill="black"/>
<path d="M64.9321 180.888C64.847 180.888 64.761 180.857 64.681 180.794C64.519 180.665 64.4886 180.475 64.6 180.284C64.6313 180.231 64.6739 180.19 64.7113 180.154L65.0728 179.796C65.3675 179.505 65.6621 179.213 65.9507 178.914C65.9973 178.867 66.0348 178.778 66.0348 178.718C66.0418 177.832 66.0408 176.947 66.0408 176.062L66.0398 175.328C66.0388 175.286 66.0388 175.243 66.0429 175.201C66.0641 174.98 66.2018 174.843 66.4195 174.824C66.5208 174.815 66.616 174.846 66.6929 174.913C66.777 174.985 66.8286 175.093 66.8347 175.209C66.8418 175.327 66.8397 175.446 66.8387 175.564L66.8377 177.105L66.8387 177.564C66.8397 178.008 66.8408 178.454 66.8327 178.898C66.8306 179.014 66.7901 179.188 66.6848 179.296C66.3081 179.685 65.9224 180.066 65.5376 180.446L65.2328 180.748C65.1407 180.841 65.0364 180.888 64.9321 180.888ZM66.454 175.074C66.4509 175.074 66.4469 175.074 66.4438 175.074C66.3476 175.082 66.3051 175.126 66.296 175.225C66.293 175.259 66.294 175.291 66.294 175.324L66.295 176.062C66.295 176.948 66.296 177.833 66.2889 178.719C66.2879 178.845 66.2261 178.993 66.134 179.087C65.8444 179.387 65.5477 179.68 65.252 179.973L64.8865 180.334C64.8582 180.361 64.8318 180.387 64.8187 180.409C64.7589 180.511 64.7934 180.56 64.8389 180.597C64.8936 180.64 64.9584 180.667 65.0566 180.571L65.3624 180.268C65.7462 179.889 66.1299 179.509 66.5056 179.121C66.5481 179.078 66.5805 178.98 66.5825 178.893C66.5907 178.45 66.5896 178.006 66.5886 177.563L66.5876 175.702L66.5886 175.56C66.5896 175.448 66.5917 175.334 66.5846 175.221C66.5815 175.172 66.5613 175.129 66.5289 175.101C66.5137 175.089 66.4874 175.074 66.454 175.074Z" fill="black"/>
<path d="M66.7121 173.66C66.7121 173.785 66.7192 173.91 66.7101 174.035C66.7 174.194 66.5856 174.301 66.4408 174.29C66.2869 174.278 66.1947 174.189 66.1897 174.037C66.1816 173.787 66.1816 173.536 66.1897 173.287C66.1947 173.128 66.3122 173.023 66.458 173.032C66.6149 173.041 66.6979 173.136 66.7091 173.286C66.7192 173.408 66.7121 173.534 66.7121 173.66Z" fill="black"/>
<path d="M66.4631 174.417C66.453 174.417 66.4428 174.417 66.4327 174.416C66.213 174.399 66.0722 174.256 66.0652 174.042C66.0571 173.786 66.0571 173.531 66.0652 173.282C66.0692 173.172 66.1127 173.071 66.1897 173.002C66.2646 172.933 66.3618 172.901 66.4671 172.907C66.6818 172.92 66.8205 173.058 66.8367 173.276C66.8438 173.367 66.8418 173.457 66.8408 173.548L66.8397 173.661L66.8408 173.775C66.8418 173.866 66.8438 173.955 66.8377 174.045C66.8296 174.16 66.782 174.262 66.701 174.33C66.6342 174.387 66.5512 174.417 66.4631 174.417ZM66.4428 173.157C66.4104 173.157 66.3821 173.167 66.3598 173.187C66.3335 173.211 66.3183 173.246 66.3173 173.29C66.3092 173.533 66.3092 173.783 66.3173 174.034C66.3203 174.12 66.3598 174.159 66.4519 174.166C66.4843 174.166 66.5127 174.16 66.536 174.14C66.5643 174.115 66.5826 174.075 66.5856 174.028C66.5907 173.945 66.5897 173.863 66.5876 173.779L66.5866 173.661L66.5876 173.544C66.5886 173.46 66.5907 173.378 66.5846 173.296C66.5775 173.203 66.539 173.164 66.4519 173.159C66.4489 173.157 66.4459 173.157 66.4428 173.157Z" fill="black"/>
<path d="M61.0614 179.27C60.9419 179.27 60.8214 179.275 60.7019 179.269C60.5429 179.26 60.4407 179.18 60.4316 179.014C60.4235 178.863 60.5348 178.754 60.71 178.749C60.949 178.743 61.189 178.744 61.4279 178.749C61.5889 178.753 61.6881 178.839 61.6993 179.003C61.7094 179.153 61.595 179.261 61.4208 179.269C61.3013 179.275 61.1809 179.27 61.0614 179.27Z" fill="black"/>
<path d="M60.8445 179.398C60.7949 179.398 60.7453 179.397 60.6967 179.395C60.4638 179.382 60.319 179.242 60.3068 179.022C60.3008 178.919 60.3352 178.823 60.401 178.751C60.4749 178.673 60.5833 178.628 60.7068 178.625C60.9488 178.619 61.1898 178.62 61.4308 178.625C61.6586 178.63 61.8095 178.771 61.8247 178.996C61.8318 179.095 61.7994 179.189 61.7356 179.26C61.6627 179.342 61.5533 179.389 61.4257 179.395C61.3397 179.398 61.2556 179.398 61.1706 179.397L61.0602 179.396L60.9529 179.397C60.9184 179.398 60.881 179.398 60.8445 179.398ZM61.0622 178.871C60.9458 178.871 60.8303 178.872 60.7139 178.875C60.6582 178.876 60.6136 178.893 60.5873 178.921C60.5671 178.943 60.5569 178.973 60.559 179.008C60.563 179.084 60.5904 179.138 60.7109 179.144C60.7908 179.148 60.8719 179.148 60.9529 179.146L61.0632 179.145L61.1756 179.146C61.2566 179.147 61.3356 179.148 61.4166 179.144C61.4753 179.142 61.5219 179.122 61.5493 179.092C61.5685 179.071 61.5766 179.044 61.5746 179.011C61.5685 178.915 61.526 178.876 61.4267 178.874C61.3042 178.872 61.1837 178.871 61.0622 178.871Z" fill="black"/>
<path d="M71.8349 179.27C71.7093 179.27 71.5827 179.277 71.4572 179.268C71.2972 179.256 71.1889 179.143 71.2 179C71.2122 178.847 71.3033 178.756 71.4562 178.751C71.7083 178.743 71.9604 178.743 72.2115 178.751C72.3715 178.756 72.4768 178.873 72.4677 179.017C72.4576 179.173 72.3624 179.255 72.2126 179.267C72.088 179.277 71.9614 179.27 71.8349 179.27Z" fill="black"/>
<path d="M72.0678 179.398C72.0283 179.398 71.9888 179.397 71.9503 179.397L71.8369 179.396L71.7215 179.397C71.6313 179.398 71.5412 179.4 71.4511 179.394C71.3357 179.386 71.2334 179.339 71.1635 179.259C71.0997 179.186 71.0683 179.091 71.0764 178.992C71.0937 178.772 71.2385 178.634 71.4541 178.627C71.7073 178.619 71.9645 178.619 72.2176 178.627C72.33 178.631 72.4303 178.675 72.5001 178.751C72.568 178.826 72.6014 178.923 72.5953 179.027C72.5821 179.24 72.4434 179.378 72.2237 179.394C72.172 179.397 72.1194 179.398 72.0678 179.398ZM71.8359 179.145L71.9543 179.146C72.0384 179.147 72.1224 179.149 72.2044 179.143C72.2976 179.135 72.3381 179.097 72.3432 179.01C72.3452 178.974 72.3351 178.942 72.3138 178.918C72.2895 178.892 72.2531 178.877 72.2095 178.876C71.9614 178.867 71.7103 178.867 71.4622 178.876C71.3752 178.878 71.3347 178.918 71.3276 179.01C71.3255 179.042 71.3336 179.07 71.3539 179.093C71.3792 179.121 71.4187 179.139 71.4673 179.143C71.5493 179.148 71.6334 179.146 71.7164 179.145H71.8359Z" fill="black"/>
<path d="M66.7135 184.352C66.7135 184.471 66.7175 184.591 66.7125 184.709C66.7044 184.881 66.5971 184.995 66.4452 184.986C66.2781 184.977 66.1941 184.876 66.189 184.717C66.1819 184.48 66.183 184.242 66.189 184.004C66.1931 183.831 66.3034 183.723 66.4553 183.726C66.6052 183.729 66.7034 183.838 66.7135 184.014C66.7135 184.02 66.7135 184.026 66.7135 184.033C66.7135 184.14 66.7135 184.246 66.7135 184.352Z" fill="black"/>
<path d="M66.4614 185.112C66.4543 185.112 66.4473 185.112 66.4392 185.112C66.2144 185.1 66.0706 184.95 66.0645 184.722C66.0574 184.482 66.0584 184.241 66.0645 184.002C66.0706 183.765 66.2387 183.602 66.4594 183.601C66.6781 183.605 66.828 183.766 66.8411 184.009L66.8422 184.467C66.8432 184.55 66.8442 184.633 66.8401 184.715C66.8351 184.84 66.7875 184.948 66.7065 185.021C66.6396 185.08 66.5536 185.112 66.4614 185.112ZM66.4503 183.851C66.3328 183.851 66.3177 183.961 66.3166 184.008C66.3106 184.243 66.3106 184.479 66.3166 184.715C66.3197 184.838 66.3835 184.858 66.4523 184.862C66.4867 184.869 66.5141 184.855 66.5364 184.836C66.5667 184.809 66.5839 184.762 66.587 184.705C66.59 184.626 66.589 184.548 66.589 184.471L66.588 184.354V184.035C66.5839 183.947 66.5576 183.854 66.4533 183.852C66.4523 183.851 66.4513 183.851 66.4503 183.851Z" fill="black"/>
<path d="M63.1806 175.514C63.1411 175.571 63.1077 175.668 63.0429 175.699C62.969 175.735 62.8333 175.75 62.7827 175.706C62.5599 175.514 62.3483 175.306 62.1589 175.083C62.1154 175.031 62.1417 174.855 62.1984 174.802C62.2632 174.742 62.4414 174.705 62.4951 174.748C62.7219 174.934 62.9234 175.152 63.129 175.363C63.1563 175.39 63.1573 175.442 63.1806 175.514Z" fill="black"/>
<path d="M62.8869 175.859C62.817 175.859 62.7492 175.843 62.7006 175.802C62.4535 175.588 62.2449 175.379 62.0627 175.164C61.9695 175.054 62.013 174.804 62.1123 174.711C62.2125 174.62 62.4586 174.559 62.575 174.652C62.7664 174.809 62.9405 174.989 63.1076 175.163L63.218 175.277C63.2595 175.319 63.2727 175.372 63.2838 175.418C63.2879 175.437 63.2929 175.456 63.3 175.478L63.3192 175.536L63.2838 175.587C63.2747 175.602 63.2656 175.618 63.2565 175.635C63.222 175.697 63.1795 175.775 63.0975 175.815C63.0459 175.838 62.9659 175.859 62.8869 175.859ZM62.416 174.844C62.4029 174.847 62.3097 174.871 62.2854 174.894C62.2723 174.912 62.2581 174.991 62.2662 175.018C62.4302 175.207 62.6297 175.407 62.8666 175.613C62.8727 175.617 62.9466 175.607 62.9892 175.587C63.0003 175.579 63.0226 175.538 63.0367 175.514C63.0398 175.509 63.0428 175.503 63.0459 175.498C63.0438 175.491 63.0418 175.483 63.0408 175.477C63.0378 175.462 63.0347 175.45 63.0307 175.44L62.9284 175.337C62.7644 175.166 62.5963 174.992 62.416 174.844Z" fill="black"/>
<path d="M69.9691 175.769C69.9033 175.719 69.797 175.678 69.7707 175.608C69.7403 175.528 69.7454 175.393 69.797 175.332C69.9671 175.132 70.1595 174.949 70.3539 174.771C70.4592 174.676 70.5898 174.681 70.6961 174.779C70.8025 174.879 70.8177 175.012 70.7235 175.117C70.5433 175.317 70.3468 175.503 70.1514 175.689C70.1139 175.727 70.0512 175.736 69.9691 175.769Z" fill="black"/>
<path d="M69.9517 175.913L69.894 175.869C69.8778 175.857 69.8575 175.845 69.8373 175.833C69.7704 175.793 69.6884 175.742 69.654 175.653C69.6105 175.539 69.6165 175.353 69.7016 175.253C69.8839 175.039 70.0914 174.843 70.2706 174.679C70.4235 174.541 70.6301 174.545 70.784 174.689C70.943 174.837 70.9572 175.047 70.8184 175.201C70.6423 175.398 70.4489 175.582 70.2615 175.759C70.1947 175.823 70.141 175.841 70.0884 175.859C70.0671 175.866 70.0438 175.874 70.0195 175.884L69.9517 175.913ZM70.5187 174.829C70.4792 174.829 70.4529 174.854 70.4397 174.865C70.2666 175.023 70.0661 175.212 69.894 175.414C69.8798 175.435 69.8717 175.517 69.8899 175.565C69.898 175.576 69.9416 175.603 69.9679 175.62C69.974 175.623 69.98 175.627 69.9861 175.631C69.9932 175.629 70.0003 175.626 70.0074 175.624C70.0286 175.617 70.058 175.607 70.0651 175.602C70.2696 175.406 70.459 175.226 70.6301 175.036C70.6888 174.971 70.6524 174.912 70.6109 174.873C70.5754 174.84 70.545 174.829 70.5187 174.829Z" fill="black"/>
<path d="M63.2001 182.515C63.1444 182.608 63.1161 182.68 63.0675 182.731C62.9115 182.895 62.7505 183.054 62.5865 183.211C62.4508 183.341 62.2959 183.345 62.1865 183.229C62.0853 183.121 62.0954 182.972 62.2189 182.845C62.382 182.679 62.5389 182.505 62.7191 182.359C62.788 182.303 62.9217 182.28 63.0077 182.305C63.0837 182.326 63.1333 182.436 63.2001 182.515Z" fill="black"/>
<path d="M62.3684 183.439C62.3653 183.439 62.3623 183.439 62.3593 183.439C62.26 183.437 62.1689 183.394 62.096 183.316C61.9461 183.157 61.9593 182.933 62.1304 182.759L62.2286 182.657C62.3582 182.524 62.4919 182.385 62.6407 182.264C62.74 182.184 62.9172 182.151 63.0448 182.186C63.1389 182.214 63.1956 182.294 63.2452 182.366C63.2614 182.389 63.2786 182.413 63.2969 182.435L63.3546 182.504L63.309 182.58C63.2908 182.61 63.2766 182.637 63.2624 182.662C63.2321 182.719 63.2037 182.773 63.1592 182.819C63.0022 182.985 62.8392 183.145 62.6742 183.302C62.582 183.391 62.4757 183.439 62.3684 183.439ZM62.9334 182.42C62.8868 182.42 62.8281 182.435 62.8007 182.457C62.663 182.569 62.5344 182.702 62.4099 182.83L62.3107 182.933C62.2671 182.977 62.2043 183.064 62.2793 183.143C62.3066 183.172 62.337 183.186 62.3684 183.186C62.4089 183.186 62.4555 183.163 62.5 183.12C62.662 182.965 62.822 182.807 62.9769 182.644C62.9972 182.623 63.0164 182.587 63.0407 182.542C63.0437 182.536 63.0478 182.53 63.0508 182.524C63.0468 182.518 63.0427 182.512 63.0387 182.506C63.0174 182.475 62.986 182.43 62.9708 182.422C62.9597 182.421 62.9475 182.42 62.9334 182.42Z" fill="black"/>
<path d="M70.7951 183.096C70.7516 183.149 70.707 183.248 70.6351 183.277C70.5612 183.307 70.4296 183.303 70.3749 183.255C70.1663 183.075 69.9648 182.882 69.7906 182.669C69.741 182.608 69.7542 182.433 69.8089 182.37C69.8635 182.307 70.0499 182.264 70.1015 182.306C70.3334 182.496 70.5399 182.717 70.7506 182.932C70.7769 182.959 70.7738 183.015 70.7951 183.096Z" fill="black"/>
<path d="M70.5247 183.422C70.4386 183.422 70.3505 183.4 70.2928 183.35C70.0427 183.133 69.8523 182.942 69.6933 182.748C69.6002 182.635 69.6265 182.39 69.7136 182.289C69.7997 182.19 70.0639 182.113 70.1814 182.21C70.3819 182.374 70.5641 182.562 70.7403 182.743L70.8416 182.846C70.8861 182.891 70.8953 182.946 70.9044 182.998C70.9074 183.017 70.9115 183.041 70.9185 183.066L70.9347 183.127L70.8942 183.176C70.8841 183.188 70.874 183.203 70.8639 183.22C70.8254 183.278 70.7717 183.357 70.6846 183.393C70.6381 183.412 70.5824 183.422 70.5247 183.422ZM70.0214 182.404C70.0143 182.41 69.9262 182.434 69.904 182.454C69.8878 182.477 69.8807 182.568 69.8938 182.596C70.0396 182.773 70.2199 182.954 70.4588 183.161C70.4761 183.172 70.55 183.178 70.5874 183.161C70.6047 183.154 70.635 183.107 70.6522 183.082C70.6553 183.078 70.6583 183.073 70.6614 183.069C70.6593 183.06 70.6583 183.05 70.6563 183.042C70.6533 183.026 70.6522 183.013 70.6482 183.003L70.5591 182.918C70.388 182.741 70.2108 182.559 70.0214 182.404Z" fill="black"/>
<path d="M62.0068 170.751C61.9643 170.642 61.8904 170.538 61.7739 170.455C59.5585 168.883 57.344 167.31 55.1285 165.737C54.8106 165.511 54.4926 165.285 54.1737 165.059C53.5114 164.589 52.8816 165.675 53.5368 166.141C55.7522 167.714 57.9667 169.287 60.1822 170.86C60.4768 171.069 60.7725 171.279 61.0672 171.488C61.3001 171.173 61.6129 170.914 62.0068 170.751Z" fill="#222122"/>
<path d="M79.3861 165.283C79.2262 165.012 78.8019 164.861 78.5224 165.058C76.3069 166.631 74.0925 168.204 71.877 169.777C71.559 170.003 71.2411 170.228 70.9221 170.455C70.8128 170.532 70.7348 170.637 70.6812 170.75C71.1419 170.854 71.5135 171.074 71.799 171.366C73.9345 169.85 76.069 168.334 78.2045 166.818C78.5224 166.592 78.8404 166.366 79.1593 166.14C79.4368 165.944 79.5694 165.595 79.3861 165.283Z" fill="#222122"/>
<path d="M63.358 197.907H47.5327V199.889H63.358V197.907Z" fill="#FFD8B6"/>
<path d="M85.4644 197.907H69.6392V199.889H85.4644V197.907Z" fill="#FFD8B6"/>
<path d="M55.4332 194.007C53.1083 194.024 50.6762 194.464 48.6581 195.665C47.118 196.581 45.822 198.025 45.7815 199.888C45.7703 200.396 46.2239 200.828 46.7282 200.828C51.7991 200.828 56.87 200.828 61.9419 200.828C62.674 200.828 63.4071 200.828 64.1392 200.828C64.6424 200.828 65.0971 200.398 65.0859 199.888C65.0454 198.025 63.7493 196.581 62.2092 195.665C60.1902 194.465 57.758 194.024 55.4332 194.007C54.2151 193.999 54.2141 195.879 55.4332 195.887C57.3257 195.9 59.287 196.215 60.9658 197.125C62.0209 197.697 63.1641 198.614 63.1914 199.888C63.5073 199.574 63.8222 199.261 64.1382 198.947C59.0673 198.947 53.9964 198.947 48.9244 198.947C48.1924 198.947 47.4593 198.947 46.7272 198.947C47.0431 199.261 47.358 199.574 47.6739 199.888C47.7013 198.614 48.8444 197.697 49.8995 197.125C51.5784 196.214 53.5407 195.9 55.4322 195.887C56.6503 195.879 56.6533 193.999 55.4332 194.007Z" fill="#222122"/>
<path d="M77.5513 194.007C75.2265 194.024 72.7943 194.464 70.7763 195.665C69.2362 196.581 67.9401 198.025 67.8996 199.888C67.8885 200.396 68.3421 200.828 68.8464 200.828C73.9173 200.828 78.9882 200.828 84.0601 200.828C84.7921 200.828 85.5252 200.828 86.2573 200.828C86.7606 200.828 87.2152 200.398 87.2041 199.888C87.1636 198.025 85.8675 196.581 84.3274 195.665C82.3083 194.465 79.8762 194.024 77.5513 194.007C76.3332 193.999 76.3322 195.879 77.5513 195.887C79.4438 195.9 81.4051 196.215 83.084 197.125C84.139 197.697 85.2822 198.614 85.3096 199.888C85.6255 199.574 85.9404 199.261 86.2563 198.947C81.1854 198.947 76.1145 198.947 71.0426 198.947C70.3105 198.947 69.5774 198.947 68.8453 198.947C69.1613 199.261 69.4762 199.574 69.7921 199.888C69.8194 198.614 70.9626 197.697 72.0177 197.125C73.6965 196.214 75.6589 195.9 77.5503 195.887C78.7694 195.879 78.7715 193.999 77.5513 194.007Z" fill="#222122"/>
<path d="M99.077 130.245C98.3712 130.556 97.6654 130.718 96.9597 130.835C96.2539 130.945 95.5482 130.997 94.8424 130.997C94.1367 130.998 93.4309 130.946 92.7252 130.836C92.0194 130.72 91.3137 130.557 90.6079 130.244C91.3137 129.932 92.0194 129.769 92.7252 129.653C93.4309 129.542 94.1367 129.491 94.8424 129.492C95.5482 129.493 96.2539 129.544 96.9597 129.655C97.6654 129.773 98.3712 129.935 99.077 130.245Z" fill="#FFCA00"/>
<path d="M94.8424 122.81C95.1573 123.885 95.3153 124.96 95.4358 126.036C95.5472 127.111 95.5988 128.186 95.5998 129.26C95.6008 130.335 95.5492 131.41 95.4378 132.484C95.3183 133.559 95.1593 134.634 94.8424 135.708C94.5255 134.633 94.3665 133.558 94.247 132.484C94.1356 131.409 94.084 130.334 94.085 129.26C94.086 128.185 94.1376 127.11 94.249 126.036C94.3695 124.959 94.5265 123.885 94.8424 122.81Z" fill="#FFCA00"/>
<path d="M106.321 136.302C105.897 136.612 105.473 136.774 105.049 136.891C104.625 137.001 104.202 137.053 103.777 137.054C103.353 137.055 102.93 137.003 102.506 136.893C102.081 136.777 101.658 136.614 101.234 136.302C101.658 135.989 102.081 135.826 102.506 135.71C102.93 135.6 103.353 135.548 103.777 135.549C104.202 135.55 104.625 135.602 105.049 135.712C105.473 135.828 105.898 135.99 106.321 136.302Z" fill="#FFCA00"/>
<path d="M103.778 131.835C104.091 132.481 104.254 133.127 104.372 133.772C104.483 134.418 104.535 135.064 104.536 135.709C104.537 136.355 104.485 137 104.374 137.646C104.257 138.292 104.093 138.937 103.778 139.583C103.464 138.937 103.299 138.292 103.183 137.646C103.072 137 103.02 136.355 103.021 135.709C103.022 135.064 103.074 134.418 103.185 133.772C103.303 133.127 103.465 132.481 103.778 131.835Z" fill="#FFCA00"/>
<path d="M101.792 143.886C101.172 144.197 100.552 144.359 99.9314 144.476C99.3107 144.586 98.691 144.638 98.0703 144.639C97.4496 144.64 96.8299 144.588 96.2092 144.478C95.5885 144.362 94.9688 144.199 94.3481 143.886C94.9688 143.574 95.5885 143.411 96.2092 143.295C96.8299 143.184 97.4496 143.133 98.0703 143.134C98.691 143.135 99.3107 143.186 99.9314 143.297C100.552 143.414 101.173 143.575 101.792 143.886Z" fill="#FFCA00"/>
<path d="M98.0714 137.351C98.3843 138.296 98.5473 139.241 98.6648 140.185C98.7762 141.13 98.8278 142.075 98.8288 143.019C98.8298 143.964 98.7782 144.909 98.6668 145.853C98.5503 146.798 98.3863 147.743 98.0714 148.687C97.7565 147.743 97.5924 146.798 97.476 145.853C97.3646 144.909 97.313 143.964 97.314 143.019C97.315 142.075 97.3666 141.13 97.478 140.185C97.5955 139.241 97.7575 138.296 98.0714 137.351Z" fill="#FFCA00"/>
<path d="M237.697 87.9615H88.2295C87.22 87.9615 86.4019 87.1489 86.4019 86.1463V83.44C86.4019 82.4373 87.22 81.6247 88.2295 81.6247H237.697C238.707 81.6247 239.525 82.4373 239.525 83.44V86.1463C239.524 87.1489 238.706 87.9615 237.697 87.9615Z" fill="#A0ACF4"/>
<path d="M237.654 115.436H219.582C218.573 115.436 217.754 114.623 217.754 113.62V91.8887C217.754 90.886 218.573 90.0734 219.582 90.0734H237.654C238.664 90.0734 239.482 90.886 239.482 91.8887V113.62C239.482 114.623 238.664 115.436 237.654 115.436Z" fill="#4CAEA4"/>
<path d="M237.654 142.891H219.582C218.573 142.891 217.754 142.078 217.754 141.076V119.344C217.754 118.341 218.573 117.529 219.582 117.529H237.654C238.664 117.529 239.482 118.341 239.482 119.344V141.076C239.482 142.078 238.664 142.891 237.654 142.891Z" fill="#F39C5B"/>
</g>
<defs>
<clipPath id="clip0">
<rect width="45" height="74" fill="white" transform="translate(282)"/>
</clipPath>
<clipPath id="clip1">
<rect width="31" height="52" fill="white" transform="matrix(-1 0 0 1 31 131)"/>
</clipPath>
<clipPath id="clip2">
<rect width="265" height="182" fill="white" transform="translate(24 19)"/>
</clipPath>
</defs>
</svg>
