<svg width="313" height="200" viewBox="0 0 313 200" fill="none" xmlns="http://www.w3.org/2000/svg">
<g clip-path="url(#clip0)">
<path d="M292.256 21.2596C290.233 22.1484 288.209 22.6071 286.185 22.9512C284.161 23.2666 282.138 23.4099 280.114 23.4099C278.09 23.4099 276.066 23.2666 274.043 22.9512C272.019 22.6215 269.995 22.1627 267.971 21.2596C269.995 20.3708 272.019 19.8977 274.043 19.568C276.066 19.2526 278.09 19.1093 280.114 19.1093C282.138 19.1093 284.161 19.2526 286.185 19.568C288.209 19.912 290.233 20.3708 292.256 21.2596Z" fill="#FFCC29"/>
<path d="M280.128 0C281.025 3.0678 281.487 6.14994 281.834 9.21774C282.152 12.2855 282.297 15.3677 282.297 18.4355C282.297 21.5033 282.152 24.5854 281.834 27.6532C281.487 30.721 281.039 33.8032 280.128 36.871C279.218 33.8032 278.769 30.721 278.423 27.6532C278.105 24.5854 277.96 21.5033 277.96 18.4355C277.96 15.3677 278.105 12.2855 278.423 9.21774C278.769 6.14994 279.232 3.0678 280.128 0Z" fill="#FFCC29"/>
<path d="M313 38.5769C311.786 39.4657 310.571 39.9245 309.357 40.2685C308.143 40.5839 306.929 40.7272 305.714 40.7272C304.5 40.7272 303.286 40.5839 302.071 40.2685C300.857 39.9388 299.643 39.4801 298.429 38.5769C299.643 37.6881 300.857 37.215 302.071 36.8853C303.286 36.5699 304.5 36.4266 305.714 36.4266C306.929 36.4266 308.143 36.5699 309.357 36.8853C310.571 37.2294 311.786 37.6881 313 38.5769Z" fill="#FFCC29"/>
<path d="M305.714 25.804C306.61 27.6532 307.073 29.5025 307.42 31.3375C307.738 33.1868 307.883 35.036 307.883 36.871C307.883 38.7203 307.738 40.5696 307.42 42.4045C307.088 44.2538 306.625 46.1031 305.714 47.938C304.818 46.0887 304.341 44.2394 304.008 42.4045C303.69 40.5552 303.546 38.7059 303.546 36.871C303.546 35.0217 303.69 33.1724 304.008 31.3375C304.355 29.5025 304.818 27.6532 305.714 25.804Z" fill="#FFCC29"/>
<path d="M300.034 60.2666C298.256 61.1554 296.478 61.6141 294.7 61.9582C292.921 62.2735 291.143 62.4169 289.365 62.4169C287.587 62.4169 285.809 62.2735 284.031 61.9582C282.253 61.6284 280.475 61.1697 278.697 60.2666C280.475 59.3778 282.253 58.9047 284.031 58.575C285.809 58.2596 287.587 58.1162 289.365 58.1162C291.143 58.1162 292.921 58.2596 294.7 58.575C296.478 58.919 298.256 59.3778 300.034 60.2666Z" fill="#FFCC29"/>
<path d="M289.38 41.5874C290.276 44.2825 290.739 46.9919 291.086 49.6869C291.404 52.382 291.548 55.0914 291.548 57.7865C291.548 60.4816 291.404 63.191 291.086 65.8861C290.753 68.5812 290.29 71.2906 289.38 73.9857C288.484 71.2906 288.006 68.5812 287.674 65.8861C287.356 63.191 287.211 60.4816 287.211 57.7865C287.211 55.0914 287.356 52.382 287.674 49.6869C288.006 46.9919 288.484 44.2825 289.38 41.5874Z" fill="#FFCC29"/>
</g>
<g clip-path="url(#clip1)">
<path d="M14.2907 144.939C15.6848 145.564 17.079 145.886 18.4731 146.128C19.8673 146.349 21.2614 146.45 22.6556 146.45C24.0497 146.45 25.4439 146.349 26.838 146.128C28.2322 145.896 29.6264 145.574 31.0205 144.939C29.6264 144.315 28.2322 143.982 26.838 143.75C25.4439 143.529 24.0497 143.428 22.6556 143.428C21.2614 143.428 19.8673 143.529 18.4731 143.75C17.079 143.992 15.6848 144.315 14.2907 144.939Z" fill="#FFCC29"/>
<path d="M22.6449 130C22.0275 132.156 21.7089 134.322 21.4699 136.477C21.2508 138.633 21.1512 140.799 21.1512 142.955C21.1512 145.11 21.2508 147.276 21.4699 149.432C21.7089 151.588 22.0176 153.754 22.6449 155.909C23.2723 153.754 23.581 151.588 23.82 149.432C24.0391 147.276 24.1387 145.11 24.1387 142.955C24.1387 140.799 24.0391 138.633 23.82 136.477C23.581 134.322 23.2623 132.156 22.6449 130Z" fill="#FFCC29"/>
<path d="M0.000180902 157.108C0.836673 157.733 1.67316 158.055 2.50966 158.297C3.34615 158.518 4.18264 158.619 5.01913 158.619C5.85562 158.619 6.69212 158.518 7.52861 158.297C8.3651 158.065 9.20159 157.743 10.0381 157.108C9.20159 156.484 8.3651 156.151 7.52861 155.919C6.69212 155.698 5.85562 155.597 5.01913 155.597C4.18264 155.597 3.34615 155.698 2.50966 155.919C1.67316 156.161 0.836673 156.484 0.000180902 157.108Z" fill="#FFCC29"/>
<path d="M5.01896 148.133C4.40155 149.432 4.08289 150.732 3.84389 152.021C3.62481 153.32 3.52522 154.62 3.52522 155.909C3.52522 157.209 3.62481 158.508 3.84389 159.798C4.07293 161.097 4.39159 162.397 5.01896 163.686C5.63637 162.387 5.96499 161.087 6.19403 159.798C6.41311 158.498 6.5127 157.199 6.5127 155.909C6.5127 154.61 6.41311 153.31 6.19403 152.021C5.95503 150.732 5.63637 149.432 5.01896 148.133Z" fill="#FFCC29"/>
<path d="M8.9325 172.349C10.1574 172.974 11.3822 173.296 12.6071 173.538C13.832 173.76 15.0568 173.861 16.2817 173.861C17.5065 173.861 18.7314 173.76 19.9563 173.538C21.1811 173.306 22.406 172.984 23.6309 172.349C22.406 171.725 21.1811 171.392 19.9563 171.161C18.7314 170.939 17.5065 170.838 16.2817 170.838C15.0568 170.838 13.832 170.939 12.6071 171.161C11.3822 171.403 10.1574 171.725 8.9325 172.349Z" fill="#FFCC29"/>
<path d="M16.2719 159.224C15.6545 161.117 15.3358 163.021 15.0968 164.915C14.8777 166.809 14.7782 168.713 14.7782 170.607C14.7782 172.501 14.8777 174.404 15.0968 176.298C15.3259 178.192 15.6445 180.096 16.2719 181.99C16.8893 180.096 17.2179 178.192 17.447 176.298C17.666 174.404 17.7656 172.501 17.7656 170.607C17.7656 168.713 17.666 166.809 17.447 164.915C17.2179 163.021 16.8893 161.117 16.2719 159.224Z" fill="#FFCC29"/>
</g>
<path d="M206.329 61.4906C202.514 76.4105 211.624 91.6323 226.634 95.424C241.645 99.2157 256.962 90.1619 260.777 75.243C264.592 60.3231 255.482 45.1013 240.472 41.3096C225.46 37.5179 210.143 46.5707 206.329 61.4906ZM213.266 62.2991C216.638 51.164 228.453 44.8534 239.657 48.2044C250.861 51.5555 257.21 63.2984 253.839 74.4335C250.467 85.5686 238.652 91.8792 227.448 88.5282C216.244 85.1771 209.895 73.4342 213.266 62.2991Z" fill="#4CAEA4"/>
<path d="M186.864 61.5338C186.997 62.2007 187.604 62.4338 189.102 63.024C191.782 64.0803 194.464 65.1377 197.104 66.2865C197.52 66.4675 197.935 67.1107 197.987 67.5799C198.293 70.3683 198.428 73.1764 198.762 75.9609C198.865 76.8235 198.78 77.2829 198.001 77.7697C194.881 79.7172 191.817 81.7522 188.766 83.7332C189.529 86.9849 193.371 94.2919 195.425 96.3357C198.66 94.9833 201.987 93.6506 205.256 92.19C206.273 91.7355 206.792 91.8231 207.641 92.6286C209.608 94.4974 211.753 96.1931 213.919 97.8367C214.797 98.5026 215.264 99.0238 214.98 100.223C214.242 103.331 213.695 106.482 213.011 109.604C212.827 110.443 212.988 110.967 213.821 111.224C217.742 112.43 221.664 113.631 225.585 114.836C226.548 115.132 226.697 114.344 226.937 113.78C228.156 110.925 229.39 108.076 230.51 105.183C230.931 104.097 231.495 103.739 232.682 103.702C235.824 103.603 238.96 103.302 242.34 103.064C244.339 106.081 246.546 109.411 248.814 112.834C253.368 111.335 257.47 109.091 261.354 106.123C259.816 102.45 258.277 98.775 256.92 95.5371C259.247 92.608 261.462 89.9425 263.514 87.159C264.108 86.3534 264.574 86.2206 265.465 86.4154C268.558 87.0911 271.673 87.6704 274.771 88.3245C275.441 88.4661 275.932 88.4917 276.275 87.7648C278.009 84.0892 279.408 80.3192 279.973 76.2659C280.098 75.3619 279.772 75.0059 279.024 74.698C276.009 73.4607 273.02 72.1663 270 70.9408C269.269 70.6437 268.963 70.3359 268.896 69.4487C268.665 66.373 268.301 63.3033 267.859 60.2503C267.746 59.4703 267.995 59.1674 268.547 58.8054C271.625 56.791 274.688 54.7541 277.834 52.6718C276.238 48.2172 274.201 44.0822 271.285 40.2797C267.514 41.8397 263.769 43.3888 260.184 44.8711C257.164 42.3807 254.239 39.9699 251.11 37.391C251.664 34.6409 252.326 31.4787 252.934 28.3047C253.433 25.7002 253.809 26.0425 251.176 24.9448C250.925 24.8396 250.712 24.6448 250.482 24.4914C248.127 23.7871 245.772 23.0829 243.418 22.3786C242.868 22.3167 242.29 22.3393 241.772 22.176C240.424 21.7511 239.665 22.056 239.128 23.4911C238.008 26.4811 236.7 29.4024 235.399 32.3216C235.229 32.7042 234.668 33.1026 234.246 33.1557C231.491 33.5019 228.697 33.6121 225.972 34.0999C224.637 34.3389 224.076 33.977 223.418 32.9432C221.552 30.0122 219.564 27.1569 217.428 23.9819C213.204 26.1861 209.084 28.3362 204.918 30.5109C205.246 31.3361 205.426 31.8141 205.624 32.2852C206.841 35.1907 208.031 38.107 209.301 40.9899C209.661 41.8082 209.478 42.2685 208.914 42.9344C206.977 45.2222 205.187 47.6349 203.265 49.9365C202.968 50.2935 202.23 50.5443 201.763 50.4637C199.204 50.0221 196.671 49.4398 194.12 48.947C192.057 48.5487 191.289 48.408 190.636 49.0778L186.864 61.5338ZM205.363 61.2466C207.277 53.7636 212.008 47.4687 218.685 43.5216C225.362 39.5745 233.186 38.4483 240.715 40.3506C248.244 42.2518 254.578 46.9543 258.549 53.5905C262.521 60.2267 263.654 68.0028 261.74 75.4859C259.827 82.9689 255.095 89.2638 248.418 93.2109C241.741 97.158 233.917 98.2842 226.388 96.382C218.859 94.4807 212.525 89.7782 208.554 83.142C204.583 76.5058 203.449 68.7297 205.363 61.2466Z" fill="#4CAEA4"/>
<path d="M34.8971 100.166C35.3306 100.501 35.8214 100.326 37.0446 99.9013C39.2307 99.143 41.4188 98.3837 43.6297 97.7011C43.978 97.5938 44.5708 97.767 44.8499 98.0256C46.5105 99.56 48.0781 101.194 49.7535 102.71C50.2731 103.181 50.4641 103.503 50.2483 104.206C49.3844 107.018 48.6006 109.855 47.795 112.652C49.9782 114.228 56.1762 116.658 58.5038 116.826C59.7528 114.314 61.068 111.766 62.2803 109.173C62.6573 108.365 63.0195 108.147 63.9607 108.193C66.1438 108.3 68.3428 108.21 70.5279 108.075C71.4126 108.021 71.9728 108.094 72.4339 108.97C73.6304 111.242 74.9654 113.442 76.2005 115.695C76.532 116.301 76.9071 116.535 77.5493 116.255C80.5677 114.939 83.5851 113.619 86.6025 112.302C87.3447 111.979 87.0182 111.423 86.8658 110.954C86.0948 108.584 85.3368 106.208 84.4877 103.866C84.169 102.987 84.3224 102.475 85.0231 101.832C86.8796 100.13 88.6243 98.3099 90.5502 96.3998C93.3597 97.1866 96.4612 98.0561 99.6498 98.9492C101.622 95.6601 102.926 92.1537 103.714 88.3226C100.837 86.8954 97.9586 85.4683 95.4231 84.2103C95.2866 81.2163 95.2222 78.4406 94.9956 75.6777C94.9303 74.8781 95.1421 74.5545 95.7863 74.2063C98.0219 73.0004 100.22 71.7247 102.448 70.5031C102.929 70.2385 103.241 69.9976 103.065 69.3769C102.173 66.2393 101.028 63.2187 99.2283 60.4627C98.8265 59.848 98.4405 59.8028 97.823 60.0074C95.338 60.8306 92.8372 61.6066 90.3562 62.4407C89.7555 62.6424 89.4062 62.6158 88.8965 62.1112C87.13 60.3644 85.2853 58.6903 83.4011 57.0674C82.9201 56.6524 82.9112 56.3386 83.0547 55.8301C83.8583 52.9984 84.6401 50.1617 85.4496 47.2533C82.1234 45.3825 78.7003 43.9357 74.9179 43.1508C73.4533 46.0671 71.9985 48.9657 70.6061 51.7384C67.4551 51.8043 64.404 51.8682 61.1392 51.9371C60.0219 49.9778 58.7503 47.7116 57.441 45.4661C56.3662 43.6239 56.7759 43.6357 54.5958 44.3439C54.388 44.4117 54.1554 44.4039 53.9337 44.4314C52.1316 45.234 50.3295 46.0366 48.5274 46.8392C48.1602 47.089 47.8217 47.4048 47.4209 47.5759C46.3779 48.0224 46.078 48.6037 46.5105 49.7555C47.412 52.1554 48.1632 54.6134 48.9173 57.0655C49.0162 57.3871 48.8866 57.9212 48.659 58.174C47.1696 59.8244 45.5317 61.3499 44.1344 63.0712C43.4505 63.9131 42.9181 63.9869 41.972 63.7027C39.2881 62.8981 36.5706 62.2027 33.5948 61.3903C32.1954 64.9351 30.8317 68.3933 29.4512 71.891C30.0865 72.2214 30.4487 72.4172 30.8179 72.6001C33.094 73.7283 35.3593 74.8771 37.6542 75.9649C38.3064 76.2738 38.438 76.6485 38.4479 77.3478C38.4816 79.7497 38.6706 82.1487 38.7211 84.5506C38.729 84.9234 38.4143 85.4604 38.0877 85.6552C36.3004 86.7233 34.4538 87.6941 32.6437 88.7279C31.1801 89.5639 30.6397 89.8796 30.5962 90.6281L34.8971 100.166ZM45.979 90.3262C43.1823 84.7827 42.7261 78.4878 44.6925 72.6031C46.6589 66.7173 50.8144 61.946 56.392 59.1664C61.9695 56.3868 68.3032 55.9334 74.2242 57.8877C80.1452 59.8421 84.9469 63.9722 87.7426 69.5166C90.5393 75.06 90.9955 81.3549 89.0291 87.2397C87.0617 93.1254 82.9072 97.8968 77.3287 100.676C71.7511 103.456 65.4174 103.909 59.4964 101.955C53.5765 99.9997 48.7748 95.8696 45.979 90.3262Z" fill="#F39C5B"/>
<path d="M167.887 65.5871L166.86 71.0126C166.946 71.288 167.212 71.3588 167.871 71.5417C169.05 71.8673 170.23 72.1938 171.396 72.5607C171.58 72.6187 171.784 72.8715 171.828 73.0672C172.083 74.2308 172.267 75.4091 172.534 76.5688C172.618 76.9288 172.603 77.1255 172.295 77.3665C171.067 78.3284 169.866 79.3238 168.669 80.2955C169.138 81.6332 171.091 84.5446 172.05 85.3147C173.353 84.5987 174.697 83.8876 176.01 83.1253C176.419 82.8883 176.642 82.902 177.036 83.204C177.951 83.9043 178.932 84.5239 179.921 85.121C180.322 85.3629 180.543 85.5616 180.476 86.08C180.306 87.4245 180.218 88.7789 180.07 90.1264C180.031 90.4884 180.122 90.7028 180.486 90.7736C182.195 91.107 183.904 91.4385 185.613 91.7709C186.034 91.8526 186.061 91.5142 186.137 91.2654C186.522 90.0064 186.913 88.7484 187.255 87.4776C187.384 87.0006 187.606 86.8245 188.104 86.7557C189.426 86.5737 190.735 86.3062 192.151 86.0544C193.131 87.2376 194.213 88.5438 195.326 89.8874C197.179 89.0513 198.808 87.9202 200.313 86.494C199.498 85.0128 198.683 83.5315 197.963 82.2253C198.812 80.8857 199.626 79.6611 200.366 78.3953C200.58 78.0284 200.771 77.9517 201.156 77.994C202.492 78.1405 203.832 78.2458 205.17 78.3835C205.459 78.413 205.667 78.4022 205.779 78.0795C206.344 76.4507 206.764 74.7974 206.818 73.0623C206.83 72.6758 206.677 72.54 206.346 72.4437C205.018 72.0561 203.698 71.644 202.369 71.2624C202.047 71.1699 201.904 71.0539 201.836 70.6821C201.599 69.3946 201.306 68.1159 200.981 66.8471C200.898 66.5235 200.989 66.3838 201.207 66.2068C202.414 65.2193 203.615 64.2219 204.848 63.203C203.972 61.3942 202.926 59.7408 201.523 58.2674C200.003 59.0946 198.493 59.9158 197.047 60.7017C195.659 59.786 194.316 58.8998 192.879 57.9516C192.988 56.7664 193.125 55.4022 193.238 54.036C193.331 52.9147 193.504 53.0426 192.344 52.6964C192.233 52.6629 192.134 52.5902 192.03 52.5361C191.005 52.3443 189.98 52.1525 188.953 51.9607C188.718 51.9587 188.475 51.9941 188.25 51.9489C187.662 51.8299 187.355 51.9921 187.194 52.6216C186.857 53.9337 186.438 55.2252 186.02 56.5146C185.966 56.6838 185.747 56.8766 185.572 56.9179C184.425 57.1874 183.251 57.3585 182.123 57.6871C181.571 57.8474 181.317 57.7195 180.993 57.3133C180.072 56.1596 179.104 55.0442 178.06 53.8C176.377 54.9193 174.736 56.011 173.077 57.1146C173.252 57.448 173.35 57.6418 173.455 57.8316C174.1 59.0031 174.734 60.1804 175.4 61.3401C175.589 61.6696 175.533 61.8722 175.325 62.1781C174.612 63.2305 173.965 64.3282 173.259 65.3855C173.149 65.5498 172.85 65.6885 172.649 65.6747C171.55 65.6029 170.454 65.4701 169.356 65.3767C168.463 65.3009 168.133 65.2754 167.887 65.5871ZM178.035 70.1549C178.953 65.3058 183.653 62.1141 188.532 63.0259C193.411 63.9387 196.622 68.6097 195.705 73.4587C194.786 78.3077 190.087 81.4994 185.208 80.5877C180.328 79.6749 177.116 75.0039 178.035 70.1549Z" fill="#7DF5F2"/>
<path d="M166.641 69.0937H149.176C147.389 69.0937 145.94 70.5336 145.94 72.31V77.997C145.94 79.7733 147.389 81.2133 149.176 81.2133H166.641C168.428 81.2133 169.877 79.7733 169.877 77.997V72.31C169.878 70.5336 168.428 69.0937 166.641 69.0937Z" fill="#A0ACF4"/>
<path d="M143.504 188.573L125.006 197.046V198.924H190.884V197.046L172.218 188.573H143.504Z" fill="#A0ACF4"/>
<path d="M172.231 152.251H143.504V188.588H172.231V152.251Z" fill="#A0ACF4"/>
<path d="M244.791 163.65V81.712C244.791 77.819 241.616 74.6627 237.699 74.6627H77.8491C73.9321 74.6627 70.7563 77.819 70.7563 81.712V163.651H244.791V163.65Z" fill="#323CA1"/>
<path d="M190.883 197.046H125.006V198.923H190.883V197.046Z" fill="#323CA1"/>
<path d="M172.219 184.309H143.504V188.573H172.219V184.309Z" fill="#323CA1"/>
<path d="M70.7563 163.65V176.781C70.7563 179.512 72.5723 181.726 74.8138 181.726H240.735C242.975 181.726 244.792 179.512 244.792 176.781V163.65H70.7563Z" fill="#A0ACF4"/>
<path d="M159.664 72.3129C159.664 73.2001 158.941 73.9191 158.048 73.9191C157.156 73.9191 156.432 73.2001 156.432 72.3129C156.432 71.4257 157.156 70.7067 158.048 70.7067C158.941 70.7067 159.664 71.4257 159.664 72.3129Z" fill="#323CA1"/>
<path d="M240.718 160.092V81.9303C240.718 79.8815 238.987 78.2203 236.85 78.2203H78.6971C76.5615 78.2203 74.8296 79.8815 74.8296 81.9303V160.092H240.718Z" fill="#FFFFF7"/>
<path d="M263.709 198.623H31.541V200H263.709V198.623Z" fill="#0E2E35"/>
<path d="M87.5128 181.057C87.2396 180.461 87.201 179.751 87.393 179.122L85.0604 174.761L81.8907 169.6L73.842 165.481L65.44 166.556L52.2313 165.721L49.0863 165.236L40.1083 174.321L37.7104 180.056C37.8658 180.57 37.8668 181.137 37.7114 181.652C38.1221 183.959 37.8757 186.551 38.7189 188.765C40.5072 193.458 44.3301 194.838 49.0774 195.092C49.59 195.119 50.1214 195.326 50.5648 195.65L50.7617 195.151L73.3966 195.803C73.7905 195.364 74.3803 195.079 75.175 195.095C76.1933 195.116 77.2809 195.135 78.3725 195.103C78.7496 194.465 79.4225 194.006 80.3943 194.006C80.5626 194.006 80.7189 194.023 80.8693 194.048C82.0035 192.872 83.3464 191.867 84.5221 190.752C84.5597 190.433 84.6537 190.114 84.8061 189.815C85.1535 189.132 85.5681 188.489 85.9392 187.819C85.9927 187.725 86.0412 187.628 86.0916 187.532C86.0194 186.916 86.1787 186.281 86.5538 185.756C86.5588 185.737 86.5617 185.722 86.5667 185.701C86.6874 185.083 87.015 184.647 87.4405 184.361C87.4415 183.263 87.3732 182.134 87.5128 181.057Z" fill="white"/>
<path d="M73.4774 195.989L50.8871 195.338L50.6496 195.939L50.4556 195.797C50.0291 195.485 49.5362 195.299 49.0681 195.274C45.2353 195.069 40.5751 194.151 38.5473 188.828C38.0129 187.425 37.908 185.869 37.8061 184.363C37.7457 183.469 37.6834 182.545 37.53 181.684L37.5221 181.641L37.5349 181.599C37.6794 181.118 37.6784 180.588 37.5339 180.108L37.5151 180.045L39.9773 174.192L49.0226 165.04L52.2617 165.539L65.4535 166.373L73.8772 165.292L73.9287 165.319L82.0239 169.46L85.2214 174.666L87.5945 179.102L87.5728 179.174C87.3907 179.771 87.4313 180.43 87.6836 180.981L87.7054 181.028L87.6985 181.08C87.5955 181.875 87.6074 182.716 87.6193 183.529C87.6232 183.807 87.6272 184.084 87.6272 184.359V184.456L87.5461 184.511C87.1205 184.798 86.8523 185.209 86.7504 185.733L86.7059 185.86C86.3605 186.343 86.2081 186.929 86.2764 187.51L86.2833 187.566L86.212 187.702C86.1764 187.771 86.1408 187.84 86.1022 187.907C85.9557 188.171 85.8013 188.433 85.6469 188.694C85.4174 189.083 85.1798 189.487 84.972 189.895C84.8325 190.17 84.7424 190.465 84.7068 190.771L84.6989 190.837L84.6504 190.883C84.1546 191.353 83.6212 191.811 83.1056 192.253C82.393 192.864 81.6558 193.496 81.0036 194.173L80.9353 194.244L80.8383 194.227C79.8091 194.051 78.9847 194.43 78.5325 195.194L78.481 195.282L78.3791 195.285C77.3152 195.316 76.2553 195.299 75.1727 195.277C74.4958 195.266 73.9287 195.486 73.5368 195.923L73.4774 195.989ZM50.6377 194.963L73.3181 195.616C73.7803 195.139 74.4245 194.907 75.1786 194.911C76.2217 194.932 77.244 194.949 78.2663 194.922C78.7937 194.107 79.7111 193.696 80.8017 193.852C81.4489 193.188 82.1664 192.573 82.8621 191.977C83.3579 191.552 83.8706 191.112 84.3466 190.665C84.3921 190.339 84.4911 190.026 84.6405 189.732C84.8533 189.314 85.0937 188.905 85.3263 188.511C85.4787 188.252 85.6311 187.993 85.7766 187.731C85.8132 187.665 85.8469 187.6 85.8815 187.535L85.9013 187.497C85.8389 186.852 86.0121 186.205 86.3902 185.666L86.3842 185.665C86.497 185.084 86.7979 184.602 87.2541 184.266C87.2541 184.024 87.2502 183.78 87.2462 183.536C87.2343 182.726 87.2224 181.89 87.3214 181.086C87.0611 180.488 87.0156 179.786 87.1928 179.142L84.8978 174.848L81.7607 169.739L73.809 165.671L65.4644 166.738L52.2201 165.904L49.1522 165.433L40.2653 174.424L37.906 180.066C38.0495 180.582 38.0476 181.145 37.9011 181.661C38.0525 182.53 38.1149 183.449 38.1742 184.338C38.2742 185.818 38.3771 187.346 38.8917 188.699C40.4148 192.697 43.5598 194.612 49.0869 194.908C49.554 194.933 50.0399 195.095 50.4764 195.368L50.6377 194.963ZM86.4406 185.675L86.4832 185.706L86.5673 185.7L86.4406 185.675Z" fill="#50333C"/>
<path d="M38.1738 182.487C38.1738 182.487 61.0443 203.287 86.8341 182.487L84.5204 190.752L79.4732 194.081L75.9006 194.304L68.5991 194.9L64.8306 195.451L60.0527 194.932L57.6469 195.171L52.5591 194.454L45.512 195.103L43.5832 193.671L38.1738 187.946V182.487Z" fill="#FFD8B6"/>
<path d="M55.3319 165.807L71.1463 166.269L79.8303 162.859L85.1754 156.958L86.836 149.427L84.7023 138.4L80.242 131.832L72.8831 126.311L64.97 124.522L57.716 125.041L49.2734 128.065L43.104 134.821L40.1351 141.339L38.7793 149.136L41.5335 158.438L46.7439 163.365L55.3319 165.807Z" fill="white"/>
<path d="M71.178 166.454L71.1404 166.453L55.2815 165.983L46.6163 163.497L41.3692 158.537L38.5894 149.148L39.9659 141.265L42.9665 134.698L49.2101 127.893L57.7022 124.859L64.9829 124.338L65.0096 124.344L72.993 126.166L80.3945 131.731L84.8825 138.366L87.023 149.43L85.3446 157.044L85.312 157.081L79.8977 163.029L71.178 166.454ZM55.3617 165.624L71.1137 166.085L79.7225 162.705L85.0052 156.872L86.647 149.426L84.5282 138.473L80.1065 131.963L72.803 126.484L64.9552 124.71L57.7546 125.224L49.3783 128.224L43.2594 134.925L40.3123 141.396L38.9684 149.127L41.6958 158.341L46.838 163.201L55.3617 165.624Z" fill="#50333C"/>
<path d="M50.1696 128.065L55.6245 124.924L54.4547 117.946L51.6798 109.874L47.359 101.537L41.2599 96.266L34.2652 94.706L28.4788 97.939L25.1794 102.406L23.1229 109.485L22.7587 113.108L22.3936 117.661L23.3109 121.385L25.1012 122.732L31.5665 120.991L35.3924 118.429L39.0095 119.214L42.7177 121.542L46.604 125.041L50.1696 128.065Z" fill="white"/>
<path d="M50.1483 128.289L46.4827 125.181L42.5915 121.679L38.9368 119.387L35.4295 118.626L31.6135 121.168L25.0611 122.933L23.1462 121.492L22.2061 117.676L22.208 117.646L22.5722 113.092L22.9374 109.467L25.0285 102.297L28.3873 97.7787L34.235 94.5123L41.3802 96.1273L47.5228 101.453L51.8436 109.79L54.6294 117.888L55.8278 125.021L50.1483 128.289ZM35.3543 118.233L39.107 119.058L42.8151 121.387L46.7272 124.905L50.1889 127.842L55.4201 124.83L54.2711 117.977L51.5031 109.934L47.2091 101.653L41.1724 96.4352L34.2914 94.9018L28.604 98.0797L25.3471 102.488L23.2996 109.536L22.9414 113.125L22.5791 117.646L23.4738 121.277L25.1393 122.53L31.4868 120.821L35.3543 118.233Z" fill="#50333C"/>
<path d="M74.0847 127.3L68.6289 124.159L69.7987 117.181L72.5746 109.109L76.8953 100.772L82.9934 95.5008L89.9891 93.9418L95.7745 97.1738L99.0749 101.641L101.131 108.72L101.496 112.343L101.86 116.897L100.942 120.619L99.1521 121.967L92.6878 120.226L88.8609 117.664L85.2448 118.449L81.5367 120.777L77.6494 124.276L74.0847 127.3Z" fill="white"/>
<path d="M52.4389 126.814C52.4389 126.814 46.1379 109.321 39.9982 105.97L38.9314 112.794L37.4707 116.61L37.251 117.501L40.7533 118.779L46.9158 123.828L49.6442 127.849L52.4389 126.814Z" fill="#FFD8B6"/>
<path d="M71.9077 126.814C71.9077 126.814 78.2087 108.405 84.3484 105.054L85.4152 112.794L86.8759 116.61L87.0956 117.501L83.5933 118.779L77.4309 123.828L74.7024 127.849L71.9077 126.814Z" fill="#FFD8B6"/>
<path d="M87.0545 145.495C86.9595 145.064 86.9753 144.607 87.102 144.186C86.1708 143.27 85.8432 142.06 85.5572 140.783C85.1603 139.014 84.431 137.318 83.6818 135.668C82.5259 133.124 81.0949 130.395 78.2873 129.59C81.2879 133.272 84.4884 139.683 84.0252 150.078C83.3137 166.064 57.034 164.983 48.1045 164.151C49.203 164.657 50.3945 165.071 51.5662 165.183C52.3243 165.255 53.0101 165.596 53.4327 166.152C53.6949 166.188 53.9305 166.261 54.1403 166.363C54.262 166.345 54.3877 166.332 54.5223 166.332C54.931 166.332 55.2754 166.427 55.5713 166.576C57.7376 166.353 59.8732 166.805 62.0385 166.844C62.2196 166.847 62.3889 166.867 62.5472 166.903C62.664 166.883 62.7827 166.871 62.9045 166.87C64.2375 166.861 65.5676 166.775 66.9006 166.765C67.1668 166.654 67.4726 166.589 67.82 166.589C68.0377 166.589 68.2366 166.616 68.4227 166.662C68.6631 166.576 68.9313 166.525 69.2332 166.525C69.3984 166.525 69.5538 166.542 69.7013 166.568C71.8666 165.812 74.0161 165.131 76.2853 164.802L80.32 162.861C80.4972 161.855 81.2483 160.967 82.5715 160.962C82.5734 160.959 82.5744 160.956 82.5764 160.953C83.763 159.173 85.4127 157.482 86.0124 155.394C86.1381 154.955 86.3499 154.612 86.6131 154.352L87.4216 148.389C86.7012 147.64 86.5864 146.412 87.0545 145.495Z" fill="#FFD8B6"/>
<path d="M75.2883 187.701C75.2299 187.412 75.0983 187.126 74.9755 186.861C74.7262 186.323 74.3491 185.819 73.9038 185.426C73.5574 185.121 73.1734 184.858 72.7498 184.67C72.5153 184.566 72.2946 184.507 72.0373 184.577C71.8225 184.637 71.5899 184.801 71.4841 185C71.3702 185.214 71.3138 185.473 71.391 185.709C71.4603 185.922 71.6008 186.163 71.8166 186.258C72.0927 186.38 72.352 186.532 72.5925 186.715C72.5301 186.667 72.4678 186.619 72.4054 186.571C72.6509 186.761 72.8696 186.978 73.0616 187.221C73.0131 187.159 72.9656 187.097 72.9171 187.035C73.1229 187.301 73.2941 187.591 73.4267 187.899C73.3961 187.826 73.3644 187.753 73.3337 187.68C73.403 187.844 73.4693 188.016 73.5049 188.191C73.5485 188.408 73.7434 188.632 73.9305 188.741C74.1284 188.856 74.4213 188.905 74.643 188.833C74.8667 188.762 75.0824 188.624 75.1962 188.411C75.316 188.182 75.3387 187.954 75.2883 187.701Z" fill="#222122"/>
<path d="M50.5019 188.19C50.5375 188.015 50.6028 187.843 50.6731 187.679C50.6424 187.752 50.6108 187.825 50.5801 187.898C50.7127 187.589 50.8839 187.3 51.0897 187.035C51.0412 187.096 50.9937 187.158 50.9453 187.22C51.1372 186.977 51.3559 186.76 51.6014 186.57C51.539 186.618 51.4767 186.666 51.4143 186.714C51.6548 186.532 51.9141 186.38 52.1902 186.257C52.3881 186.17 52.5603 185.907 52.6157 185.708C52.6771 185.487 52.6494 185.194 52.5227 184.999C52.3951 184.803 52.206 184.631 51.9695 184.577C51.8874 184.566 51.8052 184.555 51.7241 184.544C51.5568 184.545 51.4015 184.586 51.257 184.67C50.0734 185.194 49.1827 186.257 48.7839 187.472C48.7592 187.547 48.7354 187.624 48.7196 187.701C48.6701 187.945 48.683 188.189 48.8126 188.41C48.9244 188.6 49.1451 188.782 49.3658 188.833C49.6023 188.886 49.8685 188.875 50.0783 188.74C50.2703 188.615 50.4544 188.423 50.5019 188.19Z" fill="#222122"/>
<path d="M74.4762 166.03C75.0759 166.305 75.6647 166.6 76.2437 166.915C76.8652 167.255 77.4461 167.692 78.0725 168.014C78.2734 168.117 77.9112 167.882 78.0527 167.998C78.1754 168.099 78.3011 168.195 78.4238 168.296C79.4788 169.161 80.4665 170.11 81.3868 171.114C84.0598 174.036 86.3904 177.785 86.3192 181.863C86.2984 183.036 86.1856 183.737 85.9005 184.899C85.5601 186.291 85.094 187.515 84.3844 188.736C82.5981 191.81 79.559 193.72 76.018 194.189C74.6662 194.368 73.2965 194.308 71.9368 194.369C70.483 194.434 69.0263 194.562 67.5695 194.525C66.0554 194.488 64.561 194.217 63.0409 194.2C61.4209 194.182 59.8217 194.33 58.2105 194.477C56.7756 194.608 55.3248 194.489 53.8918 194.395C52.3816 194.294 50.8754 194.278 49.3652 194.214C47.5472 194.135 45.7045 193.757 44.0894 192.899C41.6054 191.578 40.0052 189.276 39.1957 186.744C39.0136 186.175 38.8651 185.595 38.7474 185.009C38.6969 184.759 38.6524 184.508 38.6128 184.256C38.6039 184.197 38.5494 183.813 38.5801 184.047C38.5613 183.904 38.5445 183.76 38.5287 183.617C38.4505 182.896 38.4119 182.168 38.4257 181.442C38.4307 181.204 38.4455 180.97 38.4673 180.733C38.4732 180.667 38.4831 180.601 38.491 180.535C38.4515 180.872 38.4891 180.556 38.5019 180.479C38.5395 180.264 38.5762 180.05 38.6217 179.837C38.7533 179.214 38.9255 178.599 39.1284 177.995C40.5228 173.857 43.5689 170.112 47.2454 167.752C48.4339 166.989 49.6878 166.318 51.006 165.803C51.4691 165.622 51.7967 165.186 51.6522 164.672C51.5285 164.232 50.9832 163.847 50.5141 164.03C45.4363 166.014 41.0404 169.84 38.5425 174.686C37.539 176.632 36.7344 178.822 36.5919 181.025C36.3148 185.281 37.7617 190.164 41.0483 193.022C42.4347 194.228 44.0914 195.072 45.8698 195.543C48.4428 196.224 51.1445 196.05 53.777 196.224C55.2495 196.321 56.737 196.447 58.2115 196.314C59.9424 196.159 61.6584 196.003 63.3992 196.043C64.9302 196.078 66.4403 196.363 67.9703 196.369C69.6092 196.375 71.244 196.215 72.8819 196.172C75.3728 196.105 77.744 195.959 80.0637 194.97C81.7688 194.242 83.3087 193.127 84.5131 191.721C86.5329 189.363 87.669 186.386 88.055 183.334C88.5528 179.394 87.0851 175.587 84.804 172.411C83.2097 170.191 81.2502 168.023 79.0038 166.425C77.8974 165.638 76.6415 165.005 75.4084 164.441C74.3357 163.951 73.3945 165.535 74.4762 166.03Z" fill="#222122"/>
<path d="M85.9099 148.233C85.8971 152.405 84.9045 156.678 81.9445 159.785C79.1646 162.704 75.2486 164.139 71.3465 164.837C69.0099 165.255 66.6289 165.404 64.2577 165.411C61.7609 165.42 59.264 165.429 56.7781 165.169C52.7651 164.748 48.5443 163.677 45.323 161.145C42.1216 158.628 40.4214 154.876 40.0008 150.893C39.4822 145.979 40.3749 140.924 42.8153 136.6C45.1122 132.529 48.6631 129.268 52.9294 127.317C55.0581 126.343 57.3867 125.712 59.7173 125.47C62.1379 125.219 64.707 125.223 67.1118 125.609C71.774 126.358 76.1076 128.549 79.4189 131.901C82.8045 135.327 84.9371 139.786 85.6576 144.522C85.8456 145.749 85.9129 146.994 85.9099 148.233C85.907 149.417 87.7576 149.419 87.7596 148.233C87.7714 142.962 86.2276 137.7 83.1043 133.413C80.1176 129.314 75.8978 126.225 71.0486 124.662C68.5884 123.869 65.9807 123.485 63.3957 123.505C60.7633 123.525 58.1982 123.68 55.6469 124.386C50.7799 125.734 46.3998 128.641 43.2903 132.598C40.0146 136.767 38.2145 141.901 38.0324 147.181C37.8711 151.852 38.8172 156.641 41.8554 160.33C44.6046 163.67 48.7501 165.52 52.9145 166.41C55.352 166.931 57.8518 167.17 60.3417 167.234C62.9831 167.302 65.6541 167.306 68.2875 167.077C72.7458 166.687 77.3941 165.647 81.0676 162.974C84.6719 160.352 86.8214 156.437 87.4736 152.073C87.6636 150.8 87.7566 149.521 87.7596 148.234C87.7635 147.05 85.9129 147.048 85.9099 148.233Z" fill="#222122"/>
<path d="M36.2616 118.832C41.4008 120.219 45.969 123.613 48.1274 128.529C48.3292 128.988 48.9953 129.084 49.3931 128.859C49.8681 128.59 49.9235 128.053 49.7246 127.601C47.3851 122.274 42.3004 118.557 36.7525 117.059C35.6026 116.749 35.1117 118.522 36.2616 118.832Z" fill="#222122"/>
<path d="M56.8322 125.041C56.3978 120.057 55.1211 115.009 53.3012 110.36C51.7861 106.489 49.789 102.755 46.9676 99.6613C43.7621 96.147 39.0564 93.1372 34.0974 93.928C29.4213 94.6745 25.7914 98.7475 23.9447 102.846C22.4801 106.093 21.6874 109.797 21.241 113.317C20.8867 116.113 20.6344 119.815 22.6908 122.073C25.3391 124.982 30.1725 122.863 32.9385 121.31C36.2191 119.469 38.7882 116.6 39.9827 113.028C40.6319 111.085 40.9021 108.932 40.6666 106.892C40.6458 106.711 40.624 106.529 40.5913 106.35C40.3825 105.187 38.5992 105.68 38.807 106.838C38.8625 107.148 38.7902 106.604 38.8189 106.921C38.8446 107.205 38.8704 107.488 38.8813 107.772C38.8971 108.198 38.8931 108.625 38.8694 109.05C38.8357 109.664 38.7912 110.034 38.71 110.499C38.1974 113.451 36.7516 116.052 34.4437 118.038C32.8089 119.446 30.8246 120.455 28.786 121.149C28.0032 121.415 27.1996 121.632 26.3921 121.658C26.0596 121.669 25.727 121.65 25.541 121.614C25.4074 121.587 25.2758 121.557 25.1451 121.517C25.0749 121.497 25.0066 121.474 24.9373 121.449C24.68 121.354 25.0868 121.527 24.8453 121.409C24.7206 121.348 24.6028 121.28 24.4851 121.208C24.302 121.093 24.4494 121.202 24.3148 121.084C24.0744 120.873 23.922 120.698 23.8359 120.57C23.4628 120.02 23.3509 119.721 23.1827 119.093C22.8334 117.787 22.8314 116.398 22.9264 114.969C23.1194 112.047 23.8081 109.137 24.6295 106.315C25.8191 102.229 28.4802 97.8899 32.6317 96.2306C36.992 94.4867 41.5186 96.9083 44.6449 99.918C47.4099 102.581 49.404 105.939 50.931 109.428C52.3027 112.563 53.2854 115.875 54.0157 119.212C54.279 120.415 54.5076 121.626 54.6976 122.842C54.7342 123.075 54.7688 123.307 54.8025 123.542C54.8173 123.645 54.8312 123.748 54.846 123.852C54.8134 123.616 54.844 123.839 54.8579 123.944C54.8925 124.214 54.9252 124.485 54.9539 124.755C54.9638 124.851 54.9737 124.945 54.9826 125.041C55.0845 126.211 56.9351 126.222 56.8322 125.041Z" fill="#222122"/>
<path d="M76.0868 127.527C78.2719 122.654 82.8025 119.297 87.9149 117.917C89.0629 117.608 88.575 115.833 87.4231 116.144C81.8979 117.635 76.8587 121.317 74.4895 126.599C74.2847 127.055 74.3599 127.581 74.821 127.857C75.2139 128.091 75.8839 127.98 76.0868 127.527Z" fill="#222122"/>
<path d="M83.5854 105.435C82.7185 110.262 84.9125 115.522 88.6414 118.609C90.4861 120.135 92.6307 121.238 94.8969 122.008C96.4645 122.54 98.2963 122.882 99.8877 122.246C102.799 121.084 103.222 117.531 103.135 114.808C103.031 111.58 102.31 108.36 101.429 105.263C100.141 100.738 97.4334 96.1617 93.0562 93.9919C90.974 92.9602 88.679 92.6454 86.392 93.0792C83.7487 93.5798 81.3379 95.0316 79.3013 96.7351C76.1087 99.4046 73.7662 103 72.0294 106.737C69.5464 112.083 68.0006 117.959 67.3742 123.814C67.3633 123.918 67.3514 124.024 67.3425 124.128C67.2396 125.306 69.0902 125.299 69.1921 124.128C69.2238 123.761 69.2703 123.396 69.3168 123.03C69.3257 122.963 69.3683 122.646 69.3287 122.939C69.3426 122.835 69.3574 122.732 69.3723 122.628C69.4059 122.395 69.4405 122.162 69.4772 121.929C69.5652 121.367 69.6612 120.806 69.7642 120.248C70.348 117.1 71.1645 113.988 72.263 110.979C73.5515 107.447 75.2645 103.967 77.6595 101.039C80.3384 97.764 84.3375 94.5359 88.8156 94.7198C93.1146 94.8968 96.4794 98.539 98.2795 102.116C99.1207 103.789 99.6284 105.591 100.088 107.397C100.468 108.894 100.791 110.407 101.019 111.933C101.236 113.39 101.359 114.928 101.264 116.42C101.223 117.079 101.157 117.586 100.965 118.271C100.797 118.869 100.676 119.188 100.289 119.724C100.271 119.751 100.181 119.86 100.284 119.734C100.241 119.786 100.196 119.839 100.15 119.888C100.065 119.975 99.9797 120.061 99.8896 120.142C99.7105 120.306 99.8985 120.161 99.6887 120.293C99.5601 120.374 99.4285 120.448 99.2909 120.513C99.1444 120.582 99.4938 120.441 99.2365 120.535C99.182 120.554 99.1266 120.573 99.0712 120.591C98.9277 120.636 98.7812 120.672 98.6328 120.7C98.4161 120.742 98.0845 120.757 97.7273 120.742C95.8084 120.662 93.7658 119.714 92.0992 118.767C89.1798 117.11 86.8848 114.528 85.8992 111.384C85.5241 110.187 85.3658 109.26 85.3044 108.136C85.2658 107.423 85.2935 106.717 85.3559 106.006C85.3826 105.701 85.3123 106.236 85.3677 105.924C85.5775 104.766 83.7952 104.27 83.5854 105.435Z" fill="#222122"/>
<path d="M46.8377 194.392L43.3789 197.212L43.8064 197.984L44.9722 198.913L57.409 198.564L59.4684 198.293V196.912L56.4757 195.203L53.4128 194.177L46.8377 194.392Z" fill="white"/>
<path d="M68.7527 194.392L65.2939 197.212L65.7215 197.984L66.8873 198.913L79.324 198.564L81.3835 198.293V196.912L78.3908 195.203L75.3279 194.177L68.7527 194.392Z" fill="white"/>
<path d="M62.1912 151.774C63.9374 151.774 65.353 150.898 65.353 149.818C65.353 148.737 63.9374 147.861 62.1912 147.861C60.4449 147.861 59.0293 148.737 59.0293 149.818C59.0293 150.898 60.4449 151.774 62.1912 151.774Z" fill="#FFD8B6"/>
<path d="M54.964 158.526L62.6841 156.554L68.5833 157.115L69.565 159.191L67.2255 159.814L62.6841 160.395L59.3084 159.98L56.4682 159.627L55.2767 159.253L54.1069 158.474L54.964 158.526Z" fill="#FF3542"/>
<path d="M71.3652 158.136C68.3419 159.413 65.0681 160.047 61.7835 159.971C60.1506 159.934 58.5257 159.722 56.9373 159.341C56.1604 159.154 55.3925 158.928 54.6384 158.662C53.9031 158.403 53.0708 158.168 52.4909 157.629C52.0624 157.232 51.7417 156.604 51.905 156.011C52.0812 155.373 52.5978 154.574 53.2123 154.298C53.9605 153.962 54.6404 154.202 55.348 154.485C56.0922 154.783 56.8562 155.032 57.632 155.231C60.6257 156.001 63.8004 156.014 66.804 155.285C67.7273 155.06 68.6229 154.757 69.5027 154.402C70.2311 154.109 71.0287 153.974 71.7165 154.458C72.0936 154.723 72.2856 155.14 72.5062 155.528C72.6765 155.828 72.8101 156.097 72.7794 156.45C72.7101 157.25 72.051 157.819 71.3652 158.136C71.006 158.302 71.3187 158.83 71.6759 158.665C72.7527 158.167 73.7423 156.968 73.296 155.724C72.819 154.393 71.7403 153.348 70.2469 153.54C69.3711 153.652 68.5329 154.145 67.6887 154.403C66.7881 154.68 65.8668 154.888 64.9345 155.024C62.9226 155.318 60.8493 155.267 58.8542 154.878C57.9269 154.697 57.0135 154.447 56.1248 154.127C55.344 153.847 54.6226 153.441 53.7665 153.531C53.1074 153.6 52.4929 153.9 52.0861 154.427C51.7021 154.924 51.2736 155.603 51.2479 156.251C51.1915 157.696 52.4701 158.48 53.6517 158.946C55.4192 159.645 57.2708 160.122 59.1561 160.376C63.4095 160.947 67.7293 160.331 71.6749 158.665C72.0411 158.512 71.7264 157.983 71.3652 158.136Z" fill="#191919"/>
<path d="M54.7464 159.004C54.7464 159.004 61.2592 156.511 69.3158 159.004L70.8814 158.548L72.26 157.593L72.8241 156.492L72.6568 155.49L72.0511 154.665L71.3831 154.104L69.5454 154.229L67.4563 154.749L64.0094 155.49L58.7247 155.164L56.1348 154.333L54.1922 154.105L52.6671 154.333L51.7686 155.247L51.915 156.451L52.1446 157.447L53.92 158.88L54.7464 159.004Z" fill="#222122"/>
<path d="M69.2141 140.857C71.1736 139.687 73.5279 139.687 75.4874 140.857C76.5107 141.468 77.4419 139.88 76.4206 139.27C73.9247 137.78 70.7757 137.78 68.2799 139.27C67.2605 139.879 68.1898 141.469 69.2141 140.857Z" fill="#222122"/>
<path d="M49.8806 140.857C51.8401 139.687 54.1944 139.687 56.1539 140.857C57.1772 141.468 58.1085 139.88 57.0872 139.27C54.5913 137.779 51.4423 137.78 48.9464 139.27C47.9281 139.879 48.8564 141.469 49.8806 140.857Z" fill="#222122"/>
<path d="M47.7137 170.486L43.0169 166.269L40.9881 164.194H37.7105L35.9697 167.34L36.3844 169.604L41.8412 175.291L46.2193 174.007L47.7137 170.486Z" fill="white"/>
<path d="M78.3911 170.486L83.0879 166.269L85.1157 164.194H88.3933L90.1341 167.34L89.7195 169.604L84.2626 175.291L79.8855 174.007L78.3911 170.486Z" fill="white"/>
<path d="M44.3422 176.476C42.1502 174.297 39.9166 172.153 37.7621 169.936C36.7646 168.909 36.5746 167.35 37.3593 166.139C38.1362 164.939 39.7127 164.458 41.0428 164.978C41.6939 165.232 42.1472 165.735 42.6282 166.213C43.307 166.888 43.9869 167.564 44.6658 168.238C45.9612 169.526 47.2557 170.812 48.5511 172.1C49.3943 172.938 50.7026 171.638 49.8594 170.8C48.6352 169.583 47.4111 168.366 46.1869 167.149C45.4456 166.413 44.7034 165.675 43.9622 164.938C43.3397 164.32 42.736 163.721 41.9117 163.359C40.2006 162.607 38.2223 162.888 36.7784 164.063C35.3662 165.212 34.7645 167.092 35.1366 168.851C35.5463 170.792 37.4237 172.199 38.7686 173.536C40.1907 174.949 41.6128 176.363 43.0349 177.776C43.8771 178.613 45.1854 177.314 44.3422 176.476Z" fill="#222122"/>
<path d="M83.4312 177.775C84.6425 176.571 85.8538 175.367 87.0662 174.162C87.8212 173.412 88.5754 172.662 89.3304 171.912C89.8995 171.346 90.4952 170.8 90.8733 170.081C91.7125 168.484 91.6264 166.475 90.5576 165C89.4809 163.515 87.6867 162.729 85.8568 162.985C83.7321 163.282 82.3367 165.104 80.9096 166.523C79.4756 167.948 78.0417 169.373 76.6077 170.799C75.7645 171.637 77.0728 172.937 77.916 172.099C80.0961 169.932 82.2239 167.694 84.4664 165.591C85.548 164.577 87.2799 164.487 88.4487 165.415C89.5561 166.296 89.9321 167.891 89.277 169.153C88.9831 169.72 88.4982 170.141 88.0508 170.585C87.3581 171.274 86.6654 171.962 85.9726 172.651C84.69 173.925 83.4075 175.2 82.1249 176.475C81.2797 177.313 82.588 178.613 83.4312 177.775Z" fill="#222122"/>
<path d="M62.4721 185.692C66.4921 185.692 69.7509 182.453 69.7509 178.458C69.7509 174.462 66.4921 171.223 62.4721 171.223C58.4522 171.223 55.1934 174.462 55.1934 178.458C55.1934 182.453 58.4522 185.692 62.4721 185.692Z" fill="#F4F4F4"/>
<path d="M71.6297 178.339C71.6326 178.293 71.6346 178.27 71.6346 178.27H71.6287C71.3664 169.523 62.4904 169.358 62.4904 169.358C54.8524 169.358 53.553 176.467 53.3472 178.245H53.3105C53.3105 178.357 53.3125 178.467 53.3155 178.576C53.3125 178.621 53.3105 178.645 53.3105 178.645H53.3165C53.5787 187.391 62.4548 187.557 62.4548 187.557C70.0928 187.557 71.3922 180.447 71.598 178.669H71.6346C71.6346 178.558 71.6326 178.448 71.6297 178.339ZM62.4548 185.623C55.4897 185.623 55.2087 178.246 55.2087 178.246H55.1938C55.465 171.596 62.4904 171.293 62.4904 171.293C69.4554 171.293 69.7365 178.67 69.7365 178.67H69.7513C69.4802 185.319 62.4548 185.623 62.4548 185.623Z" fill="#C6C6C6"/>
<path d="M71.907 178.495C71.9119 183.639 67.6842 187.85 62.5114 187.851C57.2673 187.852 53.0733 183.674 53.0713 178.447C53.0693 173.331 57.301 169.134 62.4639 169.132C67.6941 169.131 71.902 173.303 71.907 178.495ZM53.6116 178.499C53.5998 183.329 57.5702 187.303 62.4184 187.315C67.3725 187.327 71.3458 183.424 71.3676 178.526C71.3894 173.642 67.4071 169.674 62.4817 169.669C57.582 169.663 53.6235 173.605 53.6116 178.499Z" fill="black"/>
<path d="M62.5105 187.975C57.2398 187.975 52.9517 183.702 52.9497 178.449C52.9487 175.942 53.9423 173.575 55.7454 171.786C57.5495 169.997 59.9355 169.011 62.466 169.011C62.467 169.011 62.468 169.011 62.469 169.011C67.7378 169.011 72.0269 173.265 72.0318 178.497C72.0348 181.017 71.0432 183.394 69.24 185.19C67.4369 186.985 65.048 187.975 62.5135 187.976C62.5125 187.975 62.5115 187.975 62.5105 187.975ZM62.468 169.255C62.467 169.255 62.466 169.255 62.465 169.255C60.0008 169.255 57.6762 170.216 55.9196 171.959C54.162 173.701 53.1951 176.007 53.1961 178.449C53.1981 183.566 57.3763 187.73 62.5105 187.73C62.5115 187.73 62.5125 187.73 62.5135 187.73C64.9817 187.73 67.3093 186.766 69.0659 185.016C70.8225 183.266 71.7883 180.951 71.7854 178.496C71.7794 173.401 67.6012 169.255 62.468 169.255ZM62.4413 187.438C62.4334 187.438 62.4264 187.438 62.4185 187.438C57.4822 187.426 53.4762 183.416 53.4881 178.499C53.4999 173.56 57.5297 169.545 62.4729 169.545C62.4759 169.545 62.4789 169.545 62.4818 169.545C64.9015 169.547 67.1717 170.487 68.8759 172.188C70.5731 173.885 71.5023 176.135 71.4915 178.526C71.4707 183.444 67.4122 187.438 62.4413 187.438ZM53.6128 178.499H53.7365C53.7246 183.281 57.6208 187.18 62.4205 187.192C62.4274 187.192 62.4353 187.192 62.4423 187.192C67.2776 187.192 71.2252 183.309 71.246 178.525C71.2559 176.199 70.3524 174.011 68.7017 172.361C67.045 170.706 64.8362 169.793 62.4828 169.79C62.4799 169.79 62.4769 169.79 62.4739 169.79C57.6663 169.79 53.7474 173.695 53.7365 178.499H53.6128Z" fill="black"/>
<path d="M62.4873 185.985C58.3734 186.003 54.9661 182.635 54.9493 178.535C54.9325 174.393 58.2962 171.017 62.4586 170.998C66.6061 170.979 70.0035 174.328 70.0273 178.457C70.051 182.589 66.6675 185.968 62.4873 185.985ZM62.4843 171.536C58.6614 171.527 55.5025 174.646 55.4896 178.443C55.4768 182.303 58.598 185.438 62.4635 185.449C66.3271 185.459 69.484 182.343 69.4889 178.514C69.4939 174.665 66.3607 171.544 62.4843 171.536Z" fill="black"/>
<path d="M62.4558 186.109C60.4459 186.109 58.5438 185.323 57.0959 183.892C55.6412 182.454 54.8356 180.552 54.8277 178.535C54.8109 174.332 58.235 170.896 62.4608 170.876C62.4726 170.876 62.4845 170.876 62.4964 170.876C66.6984 170.876 70.1294 174.269 70.1532 178.457C70.1641 180.481 69.3773 182.391 67.9374 183.837C66.4866 185.293 64.5519 186.1 62.4895 186.109C62.4786 186.109 62.4667 186.109 62.4558 186.109ZM62.4964 171.121C62.4845 171.121 62.4736 171.121 62.4617 171.121C58.3726 171.14 55.0583 174.465 55.0751 178.534C55.083 180.485 55.8629 182.325 57.2711 183.718C58.6714 185.102 60.5122 185.863 62.4568 185.863C62.4677 185.863 62.4776 185.863 62.4885 185.863C64.4846 185.854 66.3579 185.073 67.7622 183.664C69.1556 182.265 69.9177 180.417 69.9068 178.458C69.883 174.405 66.5628 171.121 62.4964 171.121ZM62.4845 185.572C62.4776 185.572 62.4716 185.572 62.4647 185.572C60.5616 185.567 58.7763 184.822 57.4354 183.476C56.0954 182.13 55.3611 180.342 55.3671 178.443C55.3799 174.564 58.5646 171.413 62.4677 171.413C62.4736 171.413 62.4786 171.413 62.4855 171.413C66.4213 171.422 69.6178 174.608 69.6128 178.514C69.6109 180.395 68.8667 182.167 67.5178 183.501C66.1689 184.837 64.3816 185.572 62.4845 185.572ZM62.4687 171.659C58.7001 171.659 55.6273 174.699 55.6145 178.444C55.6085 180.278 56.3171 182.004 57.6115 183.304C58.905 184.604 60.6299 185.322 62.4657 185.327C62.4726 185.327 62.4786 185.327 62.4855 185.327C64.3173 185.327 66.0422 184.618 67.3456 183.328C68.648 182.04 69.3654 180.329 69.3684 178.514C69.3734 174.743 66.2857 171.668 62.4865 171.659C62.4796 171.659 62.4736 171.659 62.4687 171.659Z" fill="black"/>
<path d="M62.7462 176.629C62.7462 177.214 62.7511 177.798 62.7412 178.381C62.7392 178.485 62.7016 178.615 62.6314 178.687C62.1662 179.167 61.6883 179.635 61.2132 180.105C61.0984 180.219 60.9678 180.244 60.8362 180.141C60.7184 180.047 60.7145 179.923 60.7867 179.799C60.8154 179.751 60.8609 179.713 60.9015 179.673C61.2983 179.277 61.7001 178.886 62.09 178.483C62.1564 178.416 62.2068 178.301 62.2068 178.207C62.2147 177.115 62.2118 176.024 62.2118 174.931C62.2118 174.88 62.2088 174.829 62.2138 174.778C62.2286 174.625 62.3157 174.533 62.4701 174.52C62.6116 174.507 62.7333 174.622 62.7422 174.781C62.7511 174.94 62.7452 175.099 62.7452 175.257C62.7462 175.715 62.7462 176.172 62.7462 176.629Z" fill="black"/>
<path d="M61.0066 180.33C60.9234 180.33 60.8393 180.3 60.7611 180.238C60.6028 180.112 60.5731 179.926 60.6819 179.739C60.7126 179.687 60.7542 179.648 60.7908 179.612L61.1441 179.262C61.4321 178.977 61.7201 178.692 62.0021 178.4C62.0477 178.353 62.0843 178.267 62.0843 178.208C62.0912 177.341 62.0902 176.476 62.0902 175.61L62.0892 174.892C62.0882 174.851 62.0882 174.809 62.0922 174.768C62.113 174.552 62.2476 174.418 62.4603 174.399C62.5593 174.391 62.6523 174.421 62.7275 174.486C62.8097 174.557 62.8601 174.662 62.8661 174.776C62.873 174.891 62.871 175.007 62.87 175.123L62.8691 176.63L62.87 177.079C62.871 177.513 62.872 177.949 62.8641 178.384C62.8621 178.497 62.8225 178.667 62.7196 178.773C62.3515 179.153 61.9744 179.526 61.5984 179.898L61.3005 180.193C61.2104 180.284 61.1085 180.33 61.0066 180.33ZM62.494 174.643C62.491 174.643 62.4871 174.643 62.4841 174.643C62.3901 174.651 62.3485 174.694 62.3396 174.792C62.3366 174.824 62.3376 174.856 62.3376 174.888L62.3386 175.61C62.3386 176.477 62.3396 177.342 62.3327 178.209C62.3317 178.332 62.2713 178.476 62.1813 178.569C61.8982 178.862 61.6083 179.148 61.3193 179.435L60.962 179.788C60.9343 179.815 60.9086 179.84 60.8957 179.861C60.8373 179.962 60.871 180.009 60.9155 180.045C60.9689 180.087 61.0323 180.114 61.1283 180.02L61.4271 179.724C61.8022 179.353 62.1773 178.981 62.5445 178.602C62.586 178.56 62.6177 178.464 62.6197 178.379C62.6276 177.945 62.6266 177.511 62.6256 177.078L62.6246 175.258L62.6256 175.119C62.6266 175.009 62.6286 174.898 62.6216 174.788C62.6187 174.74 62.5989 174.697 62.5672 174.67C62.5524 174.658 62.5266 174.643 62.494 174.643Z" fill="black"/>
<path d="M62.7456 173.261C62.7456 173.383 62.7525 173.506 62.7436 173.628C62.7337 173.783 62.6219 173.888 62.4804 173.877C62.3299 173.866 62.2399 173.778 62.2349 173.63C62.227 173.385 62.227 173.14 62.2349 172.896C62.2399 172.74 62.3547 172.638 62.4972 172.647C62.6506 172.656 62.7317 172.748 62.7426 172.895C62.7525 173.015 62.7456 173.138 62.7456 173.261Z" fill="black"/>
<path d="M62.5023 174.001C62.4924 174.001 62.4825 174.001 62.4726 174C62.2578 173.983 62.1203 173.844 62.1134 173.634C62.1054 173.384 62.1054 173.135 62.1134 172.892C62.1173 172.783 62.1599 172.685 62.2351 172.617C62.3083 172.55 62.4033 172.519 62.5062 172.525C62.716 172.537 62.8516 172.672 62.8674 172.886C62.8743 172.974 62.8724 173.063 62.8714 173.151L62.8704 173.261L62.8714 173.374C62.8724 173.462 62.8744 173.55 62.8684 173.637C62.8605 173.75 62.814 173.85 62.7348 173.917C62.6695 173.972 62.5884 174.001 62.5023 174.001ZM62.4825 172.769C62.4508 172.769 62.4231 172.778 62.4013 172.798C62.3756 172.822 62.3608 172.856 62.3598 172.899C62.3519 173.137 62.3519 173.381 62.3598 173.626C62.3627 173.711 62.4013 173.749 62.4914 173.756C62.523 173.756 62.5508 173.75 62.5735 173.731C62.6012 173.706 62.619 173.667 62.622 173.62C62.627 173.54 62.626 173.459 62.624 173.378L62.623 173.261L62.624 173.147C62.625 173.066 62.627 172.985 62.621 172.904C62.6141 172.814 62.5765 172.776 62.4914 172.771C62.4884 172.769 62.4854 172.769 62.4825 172.769Z" fill="black"/>
<path d="M57.2234 178.747C57.1066 178.747 56.9888 178.752 56.8721 178.746C56.7167 178.737 56.6167 178.66 56.6078 178.497C56.5999 178.35 56.7088 178.243 56.88 178.238C57.1135 178.232 57.3481 178.233 57.5816 178.238C57.7389 178.242 57.8359 178.326 57.8468 178.486C57.8567 178.633 57.7449 178.738 57.5747 178.746C57.4579 178.752 57.3401 178.747 57.2234 178.747Z" fill="black"/>
<path d="M57.0105 178.873C56.962 178.873 56.9135 178.872 56.866 178.87C56.6384 178.857 56.4969 178.72 56.485 178.505C56.4791 178.405 56.5128 178.31 56.5771 178.24C56.6493 178.164 56.7552 178.119 56.8759 178.116C57.1125 178.11 57.348 178.111 57.5835 178.116C57.8062 178.121 57.9536 178.26 57.9685 178.479C57.9754 178.577 57.9437 178.668 57.8814 178.738C57.8101 178.818 57.7032 178.864 57.5786 178.87C57.4944 178.873 57.4123 178.873 57.3292 178.872L57.2213 178.871L57.1164 178.872C57.0828 178.873 57.0462 178.873 57.0105 178.873ZM57.2233 178.357C57.1095 178.357 56.9967 178.358 56.8829 178.361C56.8284 178.362 56.7849 178.379 56.7592 178.407C56.7394 178.428 56.7295 178.457 56.7315 178.491C56.7354 178.566 56.7621 178.618 56.8799 178.624C56.9581 178.628 57.0372 178.628 57.1164 178.626L57.2243 178.625L57.3341 178.626C57.4133 178.627 57.4905 178.628 57.5697 178.624C57.6271 178.622 57.6726 178.603 57.6993 178.574C57.7181 178.553 57.726 178.527 57.724 178.494C57.7181 178.401 57.6765 178.362 57.5795 178.36C57.4598 178.358 57.342 178.357 57.2233 178.357Z" fill="black"/>
<path d="M67.7521 178.747C67.6294 178.747 67.5057 178.754 67.383 178.745C67.2266 178.734 67.1207 178.623 67.1316 178.483C67.1435 178.334 67.2326 178.244 67.382 178.24C67.6284 178.232 67.8748 178.232 68.1203 178.24C68.2766 178.244 68.3795 178.36 68.3706 178.5C68.3607 178.653 68.2677 178.733 68.1213 178.744C67.9995 178.754 67.8758 178.747 67.7521 178.747Z" fill="black"/>
<path d="M67.9793 178.873C67.9407 178.873 67.9021 178.872 67.8645 178.872L67.7537 178.871L67.6409 178.872C67.5528 178.873 67.4647 178.875 67.3767 178.869C67.2638 178.861 67.1639 178.815 67.0956 178.737C67.0333 178.665 67.0026 178.573 67.0105 178.475C67.0273 178.261 67.1688 178.125 67.3796 178.118C67.627 178.11 67.8784 178.11 68.1258 178.118C68.2356 178.122 68.3336 178.166 68.4019 178.24C68.4682 178.313 68.5009 178.408 68.4949 178.51C68.4821 178.718 68.3465 178.853 68.1317 178.869C68.0813 178.872 68.0298 178.873 67.9793 178.873ZM67.7527 178.625L67.8685 178.626C67.9506 178.627 68.0328 178.629 68.1129 178.623C68.204 178.616 68.2436 178.579 68.2485 178.493C68.2505 178.458 68.2406 178.427 68.2198 178.404C68.1961 178.378 68.1604 178.363 68.1179 178.362C67.8754 178.353 67.63 178.353 67.3875 178.362C67.3024 178.364 67.2629 178.404 67.2559 178.493C67.2539 178.524 67.2619 178.552 67.2817 178.575C67.3064 178.602 67.345 178.62 67.3925 178.623C67.4727 178.628 67.5548 178.626 67.6359 178.625H67.7527Z" fill="black"/>
<path d="M62.7454 183.718C62.7454 183.834 62.7494 183.951 62.7444 184.067C62.7365 184.236 62.6316 184.347 62.4832 184.338C62.3199 184.329 62.2378 184.231 62.2329 184.075C62.2259 183.843 62.2269 183.61 62.2329 183.378C62.2368 183.209 62.3447 183.102 62.4931 183.105C62.6396 183.108 62.7355 183.216 62.7454 183.388C62.7454 183.394 62.7454 183.399 62.7454 183.406C62.7454 183.511 62.7454 183.614 62.7454 183.718Z" fill="black"/>
<path d="M62.4992 184.461C62.4923 184.461 62.4853 184.461 62.4774 184.461C62.2577 184.45 62.1172 184.303 62.1113 184.08C62.1043 183.845 62.1053 183.61 62.1113 183.376C62.1172 183.143 62.2815 182.984 62.4972 182.983C62.711 182.987 62.8574 183.144 62.8703 183.382L62.8713 183.83C62.8723 183.912 62.8733 183.992 62.8693 184.073C62.8644 184.195 62.8179 184.301 62.7387 184.372C62.6734 184.43 62.5893 184.461 62.4992 184.461ZM62.4883 183.228C62.3735 183.228 62.3587 183.335 62.3577 183.381C62.3517 183.612 62.3517 183.842 62.3577 184.073C62.3607 184.193 62.423 184.213 62.4903 184.216C62.5239 184.223 62.5507 184.21 62.5724 184.191C62.6021 184.164 62.6189 184.119 62.6219 184.063C62.6249 183.986 62.6239 183.91 62.6239 183.834L62.6229 183.72V183.408C62.6189 183.321 62.5932 183.231 62.4913 183.229C62.4903 183.228 62.4893 183.228 62.4883 183.228Z" fill="black"/>
<path d="M59.2942 175.074C59.2556 175.13 59.2229 175.225 59.1596 175.255C59.0874 175.29 58.9547 175.305 58.9053 175.262C58.6875 175.074 58.4807 174.871 58.2957 174.653C58.2531 174.601 58.2788 174.429 58.3343 174.378C58.3976 174.319 58.5718 174.283 58.6242 174.325C58.8459 174.507 59.0428 174.72 59.2437 174.926C59.2704 174.953 59.2714 175.004 59.2942 175.074Z" fill="black"/>
<path d="M59.0067 175.412C58.9385 175.412 58.8721 175.396 58.8246 175.355C58.5832 175.147 58.3793 174.942 58.2011 174.732C58.1101 174.625 58.1527 174.38 58.2496 174.289C58.3476 174.2 58.5881 174.14 58.7019 174.231C58.889 174.385 59.0592 174.561 59.2225 174.731L59.3304 174.842C59.3709 174.883 59.3838 174.935 59.3947 174.981C59.3987 174.998 59.4036 175.017 59.4105 175.039L59.4293 175.096L59.3947 175.146C59.3858 175.16 59.3769 175.175 59.368 175.192C59.3343 175.253 59.2928 175.329 59.2126 175.368C59.1621 175.391 59.0839 175.412 59.0067 175.412ZM58.5465 174.419C58.5337 174.422 58.4426 174.446 58.4189 174.467C58.406 174.485 58.3922 174.563 58.4001 174.589C58.5604 174.774 58.7554 174.97 58.9869 175.171C58.9929 175.174 59.0651 175.165 59.1067 175.146C59.1176 175.138 59.1394 175.098 59.1532 175.074C59.1562 175.069 59.1592 175.063 59.1621 175.058C59.1601 175.052 59.1582 175.044 59.1572 175.038C59.1542 175.023 59.1512 175.011 59.1473 175.001L59.0473 174.901C58.887 174.734 58.7227 174.564 58.5465 174.419Z" fill="black"/>
<path d="M65.9276 175.323C65.8633 175.274 65.7594 175.235 65.7336 175.166C65.7039 175.088 65.7089 174.955 65.7594 174.896C65.9256 174.701 66.1136 174.522 66.3037 174.348C66.4066 174.254 66.5342 174.259 66.6381 174.355C66.7421 174.453 66.7569 174.583 66.6649 174.686C66.4887 174.882 66.2967 175.064 66.1057 175.246C66.0691 175.282 66.0078 175.291 65.9276 175.323Z" fill="black"/>
<path d="M65.9107 175.465L65.8543 175.421C65.8384 175.41 65.8186 175.398 65.7988 175.386C65.7335 175.347 65.6534 175.297 65.6197 175.21C65.5772 175.099 65.5831 174.917 65.6662 174.818C65.8444 174.61 66.0472 174.418 66.2224 174.258C66.3718 174.122 66.5737 174.126 66.7241 174.268C66.8795 174.412 66.8934 174.618 66.7578 174.768C66.5856 174.961 66.3966 175.141 66.2135 175.314C66.1482 175.376 66.0957 175.394 66.0443 175.412C66.0235 175.418 66.0007 175.426 65.977 175.436L65.9107 175.465ZM66.4648 174.404C66.4263 174.404 66.4005 174.429 66.3877 174.44C66.2184 174.594 66.0225 174.779 65.8543 174.977C65.8404 174.996 65.8325 175.077 65.8503 175.124C65.8582 175.135 65.9008 175.161 65.9265 175.177C65.9324 175.18 65.9384 175.184 65.9443 175.188C65.9512 175.186 65.9582 175.183 65.9651 175.181C65.9859 175.174 66.0146 175.165 66.0215 175.16C66.2214 174.969 66.4065 174.793 66.5737 174.607C66.6311 174.543 66.5955 174.485 66.5549 174.448C66.5203 174.415 66.4906 174.404 66.4648 174.404Z" fill="black"/>
<path d="M59.3128 181.921C59.2584 182.013 59.2306 182.082 59.1831 182.133C59.0307 182.293 58.8734 182.448 58.7131 182.602C58.5805 182.729 58.4291 182.733 58.3222 182.62C58.2232 182.514 58.2331 182.368 58.3538 182.244C58.5132 182.082 58.6666 181.911 58.8427 181.769C58.91 181.714 59.0406 181.691 59.1248 181.716C59.199 181.736 59.2475 181.844 59.3128 181.921Z" fill="black"/>
<path d="M58.5 182.825C58.497 182.825 58.4941 182.825 58.4911 182.825C58.3941 182.823 58.305 182.78 58.2338 182.705C58.0873 182.549 58.1002 182.33 58.2674 182.16L58.3634 182.06C58.4901 181.93 58.6207 181.794 58.7662 181.676C58.8632 181.597 59.0364 181.565 59.1611 181.599C59.2531 181.627 59.3086 181.705 59.357 181.775C59.3729 181.798 59.3897 181.821 59.4075 181.843L59.4639 181.91L59.4194 181.985C59.4016 182.014 59.3877 182.041 59.3739 182.065C59.3442 182.12 59.3165 182.174 59.2729 182.219C59.1195 182.381 58.9602 182.538 58.7989 182.691C58.7088 182.778 58.6049 182.825 58.5 182.825ZM59.0522 181.828C59.0067 181.828 58.9493 181.843 58.9226 181.865C58.788 181.974 58.6623 182.104 58.5406 182.23L58.4436 182.33C58.401 182.373 58.3397 182.458 58.4129 182.536C58.4396 182.564 58.4693 182.578 58.5 182.578C58.5396 182.578 58.5851 182.555 58.6287 182.513C58.787 182.361 58.9434 182.207 59.0948 182.048C59.1146 182.027 59.1334 181.992 59.1571 181.947C59.1601 181.941 59.1641 181.936 59.167 181.93C59.1631 181.924 59.1591 181.918 59.1552 181.912C59.1344 181.882 59.1037 181.838 59.0889 181.83C59.078 181.829 59.0661 181.828 59.0522 181.828Z" fill="black"/>
<path d="M66.737 182.49C66.6944 182.542 66.6509 182.638 66.5806 182.667C66.5084 182.696 66.3797 182.692 66.3263 182.645C66.1224 182.469 65.9255 182.28 65.7553 182.072C65.7068 182.013 65.7196 181.841 65.7731 181.779C65.8265 181.718 66.0086 181.676 66.0591 181.717C66.2857 181.902 66.4876 182.119 66.6934 182.329C66.7191 182.356 66.7162 182.41 66.737 182.49Z" fill="black"/>
<path d="M66.4718 182.808C66.3877 182.808 66.3016 182.786 66.2452 182.738C66.0007 182.526 65.8147 182.339 65.6593 182.149C65.5683 182.039 65.594 181.799 65.6791 181.701C65.7632 181.603 66.0215 181.528 66.1363 181.623C66.3323 181.783 66.5104 181.967 66.6826 182.144L66.7816 182.245C66.8251 182.289 66.834 182.343 66.8429 182.394C66.8459 182.413 66.8498 182.435 66.8568 182.46L66.8726 182.52L66.833 182.568C66.8231 182.58 66.8132 182.595 66.8033 182.61C66.7657 182.667 66.7133 182.745 66.6282 182.779C66.5826 182.798 66.5282 182.808 66.4718 182.808ZM65.9799 181.813C65.973 181.819 65.8869 181.842 65.8651 181.862C65.8493 181.884 65.8424 181.973 65.8552 182C65.9978 182.174 66.1739 182.351 66.4075 182.553C66.4243 182.564 66.4965 182.57 66.5332 182.553C66.55 182.546 66.5797 182.5 66.5965 182.476C66.5995 182.472 66.6024 182.467 66.6054 182.463C66.6034 182.454 66.6024 182.444 66.6005 182.436C66.5975 182.421 66.5965 182.409 66.5925 182.399L66.5054 182.315C66.3382 182.142 66.165 181.964 65.9799 181.813Z" fill="black"/>
<path d="M58.1466 170.416C58.1051 170.309 58.0328 170.207 57.919 170.127C55.7537 168.588 53.5894 167.05 51.4241 165.512C51.1133 165.29 50.8026 165.07 50.4909 164.849C49.8436 164.39 49.2281 165.452 49.8684 165.907C52.0337 167.446 54.198 168.984 56.3633 170.522C56.6513 170.727 56.9403 170.932 57.2283 171.137C57.4559 170.828 57.7617 170.575 58.1466 170.416Z" fill="#222122"/>
<path d="M75.1324 165.068C74.976 164.803 74.5614 164.655 74.2883 164.848C72.1229 166.386 69.9586 167.925 67.7933 169.463C67.4825 169.684 67.1718 169.905 66.86 170.126C66.7532 170.202 66.677 170.304 66.6245 170.415C67.0748 170.516 67.438 170.732 67.7171 171.017C69.8042 169.535 71.8904 168.051 73.9775 166.569C74.2883 166.348 74.599 166.128 74.9107 165.906C75.1819 165.714 75.3115 165.373 75.1324 165.068Z" fill="#222122"/>
<path d="M59.4685 196.974H44.0015V198.913H59.4685V196.974Z" fill="#FFD8B6"/>
<path d="M81.0735 196.974H65.6064V198.913H81.0735V196.974Z" fill="#FFD8B6"/>
<path d="M51.7219 193.161C49.4498 193.177 47.0727 193.608 45.1003 194.782C43.5951 195.678 42.3284 197.091 42.2888 198.912C42.2779 199.409 42.7212 199.832 43.2141 199.832C48.1702 199.832 53.1262 199.832 58.0833 199.832C58.7988 199.832 59.5153 199.832 60.2308 199.832C60.7227 199.832 61.167 199.411 61.1561 198.912C61.1165 197.091 59.8498 195.678 58.3446 194.782C56.3712 193.609 53.9941 193.177 51.7219 193.161C50.5314 193.153 50.5304 194.992 51.7219 194.999C53.5716 195.012 55.4885 195.32 57.1293 196.21C58.1605 196.77 59.2778 197.666 59.3045 198.912C59.6133 198.605 59.9211 198.299 60.2298 197.993C55.2737 197.993 50.3177 197.993 45.3606 197.993C44.6451 197.993 43.9286 197.993 43.2131 197.993C43.5219 198.299 43.8296 198.605 44.1384 198.912C44.1651 197.666 45.2824 196.77 46.3136 196.21C47.9544 195.319 49.8723 195.012 51.721 194.999C52.9115 194.992 52.9145 193.153 51.7219 193.161Z" fill="#222122"/>
<path d="M73.3392 193.161C71.067 193.177 68.6899 193.608 66.7175 194.782C65.2123 195.678 63.9455 197.091 63.906 198.912C63.8951 199.409 64.3384 199.832 64.8313 199.832C69.7874 199.832 74.7435 199.832 79.7006 199.832C80.4161 199.832 81.1326 199.832 81.8481 199.832C82.3399 199.832 82.7843 199.411 82.7734 198.912C82.7338 197.091 81.4671 195.678 79.9618 194.782C77.9885 193.609 75.6114 193.177 73.3392 193.161C72.1486 193.153 72.1477 194.992 73.3392 194.999C75.1888 195.012 77.1057 195.32 78.7465 196.21C79.7777 196.77 80.895 197.666 80.9218 198.912C81.2305 198.605 81.5383 198.299 81.8471 197.993C76.891 197.993 71.9349 197.993 66.9778 197.993C66.2623 197.993 65.5458 197.993 64.8303 197.993C65.139 198.299 65.4468 198.605 65.7556 198.912C65.7823 197.666 66.8996 196.77 67.9308 196.21C69.5716 195.319 71.4895 195.012 73.3382 194.999C74.5297 194.992 74.5317 193.153 73.3392 193.161Z" fill="#222122"/>
<path d="M94.3788 130.8C93.689 131.104 92.9992 131.263 92.3095 131.377C91.6197 131.485 90.9299 131.535 90.2402 131.535C89.5504 131.536 88.8606 131.486 88.1709 131.378C87.4811 131.265 86.7913 131.105 86.1016 130.799C86.7913 130.493 87.4811 130.334 88.1709 130.221C88.8606 130.113 89.5504 130.063 90.2402 130.064C90.9299 130.065 91.6197 130.115 92.3095 130.223C92.9992 130.338 93.689 130.496 94.3788 130.8Z" fill="#FFCA00"/>
<path d="M90.2398 123.529C90.5475 124.58 90.7019 125.632 90.8197 126.683C90.9285 127.735 90.979 128.786 90.98 129.836C90.981 130.888 90.9305 131.939 90.8217 132.99C90.7049 134.041 90.5495 135.093 90.2398 136.143C89.93 135.092 89.7746 134.04 89.6579 132.99C89.549 131.938 89.4985 130.887 89.4995 129.836C89.5005 128.785 89.551 127.734 89.6598 126.683C89.7776 125.631 89.931 124.58 90.2398 123.529Z" fill="#FFCA00"/>
<path d="M101.458 136.723C101.043 137.027 100.629 137.186 100.215 137.3C99.8001 137.408 99.3865 137.458 98.9718 137.459C98.5571 137.46 98.1435 137.41 97.7288 137.302C97.3142 137.189 96.9005 137.029 96.4858 136.723C96.9005 136.418 97.3142 136.258 97.7288 136.145C98.1435 136.037 98.5571 135.987 98.9718 135.988C99.3865 135.989 99.8001 136.039 100.215 136.147C100.629 136.26 101.044 136.419 101.458 136.723Z" fill="#FFCA00"/>
<path d="M98.9737 132.355C99.2794 132.987 99.4388 133.618 99.5536 134.25C99.6624 134.881 99.7129 135.513 99.7139 136.144C99.7149 136.776 99.6644 137.407 99.5555 138.039C99.4417 138.67 99.2814 139.301 98.9737 139.933C98.6659 139.301 98.5056 138.67 98.3918 138.039C98.2829 137.407 98.2324 136.776 98.2334 136.144C98.2344 135.513 98.2849 134.881 98.3937 134.25C98.5085 133.618 98.6669 132.987 98.9737 132.355Z" fill="#FFCA00"/>
<path d="M97.0321 144.142C96.4255 144.445 95.8198 144.604 95.2132 144.718C94.6065 144.826 94.0009 144.876 93.3942 144.877C92.7876 144.878 92.1819 144.828 91.5753 144.72C90.9686 144.607 90.363 144.447 89.7563 144.142C90.363 143.836 90.9686 143.676 91.5753 143.563C92.1819 143.455 92.7876 143.405 93.3942 143.406C94.0009 143.407 94.6065 143.457 95.2132 143.565C95.8198 143.679 96.4265 143.837 97.0321 144.142Z" fill="#FFCA00"/>
<path d="M93.3965 137.75C93.7024 138.674 93.8617 139.598 93.9765 140.522C94.0854 141.446 94.1358 142.37 94.1368 143.294C94.1378 144.217 94.0873 145.142 93.9785 146.065C93.8647 146.989 93.7043 147.914 93.3965 148.837C93.0888 147.914 92.9284 146.989 92.8146 146.065C92.7058 145.142 92.6553 144.217 92.6563 143.294C92.6573 142.37 92.7077 141.446 92.8166 140.522C92.9314 139.598 93.0897 138.674 93.3965 137.75Z" fill="#FFCA00"/>
<path d="M156.496 96.7745C156.295 96.863 156.095 96.9092 155.894 96.9417C155.693 96.9731 155.493 96.9879 155.292 96.9879C155.091 96.9879 154.891 96.9731 154.691 96.9426C154.49 96.9092 154.29 96.864 154.089 96.7745C154.29 96.685 154.49 96.6397 154.691 96.6063C154.891 96.5748 155.091 96.5601 155.292 96.5611C155.493 96.5611 155.693 96.5758 155.894 96.6073C156.094 96.6397 156.295 96.686 156.496 96.7745Z" fill="#FFCA00"/>
<path d="M155.292 94.6588C155.382 94.9647 155.427 95.2706 155.46 95.5755C155.492 95.8814 155.507 96.1873 155.507 96.4922C155.507 96.7981 155.492 97.104 155.461 97.4089C155.428 97.7148 155.382 98.0207 155.292 98.3256C155.202 98.0197 155.156 97.7138 155.123 97.4089C155.091 97.103 155.076 96.7971 155.077 96.4922C155.077 96.1863 155.092 95.8804 155.124 95.5755C155.157 95.2706 155.202 94.9647 155.292 94.6588Z" fill="#FFCA00"/>
<path d="M158.554 98.4967C158.434 98.5852 158.314 98.6315 158.193 98.6639C158.072 98.6954 157.953 98.7101 157.832 98.7101C157.711 98.7101 157.591 98.6954 157.471 98.6649C157.35 98.6315 157.23 98.5862 157.109 98.4967C157.23 98.4072 157.35 98.362 157.471 98.3285C157.591 98.2971 157.711 98.2823 157.832 98.2833C157.953 98.2833 158.072 98.298 158.193 98.3295C158.314 98.362 158.434 98.4082 158.554 98.4967Z" fill="#FFCA00"/>
<path d="M157.831 97.226C157.921 97.4099 157.967 97.5928 158 97.7768C158.031 97.9607 158.046 98.1436 158.046 98.3276C158.046 98.5115 158.031 98.6944 158.001 98.8784C157.967 99.0623 157.922 99.2452 157.831 99.4292C157.741 99.2452 157.696 99.0623 157.662 98.8784C157.631 98.6944 157.616 98.5115 157.617 98.3276C157.617 98.1436 157.632 97.9607 157.663 97.7768C157.696 97.5938 157.742 97.4099 157.831 97.226Z" fill="#FFCA00"/>
<path d="M157.268 100.654C157.092 100.742 156.916 100.788 156.74 100.821C156.564 100.852 156.387 100.867 156.211 100.867C156.035 100.867 155.859 100.852 155.683 100.822C155.507 100.788 155.33 100.743 155.154 100.654C155.33 100.564 155.507 100.519 155.683 100.486C155.859 100.454 156.035 100.439 156.211 100.44C156.387 100.44 156.564 100.455 156.74 100.487C156.916 100.519 157.092 100.565 157.268 100.654Z" fill="#FFCA00"/>
<path d="M156.209 98.7948C156.298 99.0633 156.344 99.3318 156.377 99.6013C156.409 99.8698 156.424 100.138 156.424 100.408C156.424 100.676 156.409 100.945 156.378 101.214C156.344 101.483 156.299 101.751 156.209 102.021C156.119 101.752 156.073 101.484 156.04 101.214C156.008 100.946 155.993 100.677 155.994 100.408C155.994 100.139 156.009 99.8708 156.041 99.6013C156.073 99.3328 156.12 99.0633 156.209 98.7948Z" fill="#FFCA00"/>
<path d="M184.497 111.084H131.636C131.011 111.084 130.504 110.581 130.504 109.96V106.208C130.504 105.587 131.011 105.084 131.636 105.084H184.497C185.121 105.084 185.628 105.587 185.628 106.208V109.96C185.627 110.582 185.121 111.084 184.497 111.084Z" fill="#A0ACF4"/>
<path d="M184.497 118.363H131.636C131.011 118.363 130.504 117.859 130.504 117.239V113.487C130.504 112.866 131.011 112.362 131.636 112.362H184.497C185.121 112.362 185.628 112.866 185.628 113.487V117.239C185.627 117.86 185.121 118.363 184.497 118.363Z" fill="#A0ACF4"/>
<path d="M184.497 125.642H131.636C131.011 125.642 130.504 125.138 130.504 124.517V120.765C130.504 120.144 131.011 119.641 131.636 119.641H184.497C185.121 119.641 185.628 120.144 185.628 120.765V124.517C185.627 125.139 185.121 125.642 184.497 125.642Z" fill="#A0ACF4"/>
<path d="M184.497 137.543H131.636C131.011 137.543 130.504 137.039 130.504 136.419V132.666C130.504 132.046 131.011 131.542 131.636 131.542H184.497C185.121 131.542 185.628 132.046 185.628 132.666V136.419C185.627 137.04 185.121 137.543 184.497 137.543Z" fill="#323CA1"/>
<path d="M131.816 101.744H130.968V97.6509H131.816V101.744Z" fill="black"/>
<path d="M133.527 97.9548V98.7023H134.05V99.2984H133.527V100.816C133.527 100.928 133.549 101.009 133.592 101.058C133.636 101.107 133.719 101.131 133.841 101.131C133.931 101.131 134.011 101.124 134.081 101.111V101.727C133.921 101.776 133.756 101.8 133.586 101.8C133.013 101.8 132.721 101.512 132.71 100.937V99.2984H132.262V98.7023H132.71V97.9548H133.527Z" fill="black"/>
<path d="M134.499 97.9154C134.499 97.7935 134.54 97.6931 134.622 97.6145C134.704 97.5358 134.816 97.4964 134.957 97.4964C135.097 97.4964 135.208 97.5358 135.291 97.6145C135.374 97.6931 135.415 97.7935 135.415 97.9154C135.415 98.0394 135.374 98.1407 135.29 98.2194C135.206 98.298 135.095 98.3374 134.957 98.3374C134.82 98.3374 134.709 98.298 134.625 98.2194C134.541 98.1407 134.499 98.0384 134.499 97.9154ZM135.368 101.744H134.548V98.7023H135.368V101.744Z" fill="black"/>
<path d="M136.793 98.7023L136.819 99.0534C137.037 98.782 137.33 98.6462 137.698 98.6462C138.023 98.6462 138.263 98.7407 138.422 98.9305C138.58 99.1193 138.661 99.4026 138.665 99.7793V101.744H137.848V99.799C137.848 99.6269 137.81 99.5019 137.735 99.4242C137.66 99.3465 137.534 99.3072 137.359 99.3072C137.129 99.3072 136.956 99.4046 136.841 99.5993V101.744H136.024V98.7023H136.793V98.7023Z" fill="black"/>
<path d="M140.693 101.8C140.245 101.8 139.879 101.663 139.598 101.389C139.316 101.116 139.175 100.751 139.175 100.296V100.217C139.175 99.9121 139.235 99.6387 139.353 99.3977C139.472 99.1567 139.64 98.9718 139.858 98.841C140.076 98.7112 140.324 98.6453 140.603 98.6453C141.022 98.6453 141.352 98.7761 141.592 99.0387C141.832 99.3013 141.952 99.6731 141.952 100.154V100.486H140.004C140.03 100.684 140.11 100.844 140.242 100.964C140.375 101.084 140.543 101.144 140.747 101.144C141.062 101.144 141.308 101.03 141.485 100.803L141.887 101.25C141.764 101.422 141.599 101.557 141.389 101.653C141.179 101.751 140.948 101.8 140.693 101.8ZM140.599 99.3003C140.437 99.3003 140.305 99.3544 140.205 99.4646C140.104 99.5738 140.039 99.7301 140.011 99.9328H141.148V99.8678C141.144 99.6869 141.095 99.5472 141 99.4488C140.907 99.3505 140.774 99.3003 140.599 99.3003ZM140.674 97.4256H141.564L140.78 98.2971H140.115L140.674 97.4256Z" fill="black"/>
<path d="M144.135 99.4636C144.024 99.4488 143.926 99.441 143.841 99.441C143.532 99.441 143.329 99.5452 143.233 99.7528V101.743H142.416V98.7013H143.187L143.21 99.0643C143.374 98.7849 143.601 98.6453 143.892 98.6453C143.982 98.6453 144.067 98.6571 144.146 98.6817L144.135 99.4636Z" fill="black"/>
<path d="M146.216 101.744C146.178 101.671 146.151 101.579 146.134 101.471C145.936 101.69 145.679 101.8 145.362 101.8C145.062 101.8 144.814 101.713 144.617 101.541C144.42 101.369 144.321 101.151 144.321 100.889C144.321 100.566 144.441 100.319 144.681 100.147C144.922 99.9751 145.269 99.8875 145.723 99.8855H146.099V99.7115C146.099 99.5708 146.063 99.4587 145.99 99.3741C145.918 99.2895 145.803 99.2472 145.647 99.2472C145.509 99.2472 145.401 99.2797 145.323 99.3456C145.245 99.4115 145.206 99.501 145.206 99.6151H144.388C144.388 99.439 144.443 99.2757 144.552 99.1262C144.661 98.9767 144.817 98.8587 145.017 98.7731C145.216 98.6876 145.441 98.6453 145.689 98.6453C146.067 98.6453 146.365 98.7397 146.587 98.9275C146.809 99.1154 146.92 99.381 146.92 99.7213V101.039C146.922 101.327 146.962 101.546 147.041 101.694V101.743H146.216V101.744ZM145.54 101.178C145.661 101.178 145.772 101.151 145.874 101.098C145.975 101.045 146.051 100.973 146.1 100.883V100.36H145.794C145.386 100.36 145.168 100.5 145.141 100.782L145.138 100.83C145.138 100.931 145.174 101.015 145.246 101.08C145.318 101.146 145.416 101.178 145.54 101.178Z" fill="black"/>
<path d="M147.543 97.9154C147.543 97.7935 147.584 97.6931 147.666 97.6145C147.748 97.5358 147.86 97.4964 148.001 97.4964C148.141 97.4964 148.252 97.5358 148.335 97.6145C148.418 97.6931 148.459 97.7935 148.459 97.9154C148.459 98.0394 148.418 98.1407 148.334 98.2194C148.25 98.298 148.139 98.3374 148.001 98.3374C147.864 98.3374 147.753 98.298 147.669 98.2194C147.585 98.1407 147.543 98.0384 147.543 97.9154ZM148.411 101.744H147.59V98.7023H148.411V101.744Z" fill="black"/>
<path d="M150.802 99.4636C150.691 99.4488 150.593 99.441 150.508 99.441C150.199 99.441 149.996 99.5452 149.9 99.7528V101.743H149.083V98.7013H149.855L149.878 99.0643C150.042 98.7849 150.269 98.6453 150.56 98.6453C150.65 98.6453 150.735 98.6571 150.814 98.6817L150.802 99.4636Z" fill="black"/>
<path d="M152.55 101.8C152.102 101.8 151.736 101.663 151.455 101.389C151.173 101.116 151.032 100.751 151.032 100.296V100.217C151.032 99.9121 151.092 99.6387 151.21 99.3977C151.329 99.1567 151.497 98.9718 151.715 98.841C151.933 98.7112 152.181 98.6453 152.46 98.6453C152.879 98.6453 153.209 98.7761 153.449 99.0387C153.69 99.3013 153.809 99.6731 153.809 100.154V100.486H151.861C151.887 100.684 151.967 100.844 152.099 100.964C152.232 101.084 152.4 101.144 152.604 101.144C152.919 101.144 153.165 101.03 153.342 100.803L153.744 101.25C153.621 101.422 153.456 101.557 153.246 101.653C153.037 101.751 152.806 101.8 152.55 101.8ZM152.457 99.3003C152.295 99.3003 152.163 99.3544 152.063 99.4646C151.962 99.5738 151.897 99.7301 151.869 99.9328H153.006V99.8678C153.002 99.6869 152.953 99.5472 152.858 99.4488C152.765 99.3505 152.631 99.3003 152.457 99.3003Z" fill="black"/>
<g opacity="0.15">
<g opacity="0.15">
<path opacity="0.15" d="M133.54 123.035C136.78 123.035 140.019 123.035 143.259 123.035C148.401 123.035 153.543 123.035 158.685 123.035C159.866 123.035 161.045 123.035 162.226 123.035C162.862 123.035 162.864 122.051 162.226 122.051C158.986 122.051 155.747 122.051 152.507 122.051C147.365 122.051 142.223 122.051 137.081 122.051C135.9 122.051 134.72 122.051 133.54 122.051C132.903 122.051 132.902 123.035 133.54 123.035Z" fill="black"/>
</g>
</g>
<g opacity="0.15">
<g opacity="0.15">
<path opacity="0.15" d="M133.54 115.953C136.78 115.953 140.019 115.953 143.259 115.953C148.401 115.953 153.543 115.953 158.685 115.953C159.866 115.953 161.045 115.953 162.226 115.953C162.862 115.953 162.864 114.97 162.226 114.97C158.986 114.97 155.747 114.97 152.507 114.97C147.365 114.97 142.223 114.97 137.081 114.97C135.9 114.97 134.72 114.97 133.54 114.97C132.903 114.97 132.902 115.953 133.54 115.953Z" fill="black"/>
</g>
</g>
<g opacity="0.15">
<g opacity="0.15">
<path opacity="0.15" d="M133.54 108.576C136.78 108.576 140.019 108.576 143.259 108.576C148.401 108.576 153.543 108.576 158.685 108.576C159.866 108.576 161.045 108.576 162.226 108.576C162.862 108.576 162.864 107.593 162.226 107.593C158.986 107.593 155.747 107.593 152.507 107.593C147.365 107.593 142.223 107.593 137.081 107.593C135.9 107.593 134.72 107.593 133.54 107.593C132.903 107.593 132.902 108.576 133.54 108.576Z" fill="black"/>
</g>
</g>
<defs>
<clipPath id="clip0">
<rect width="45" height="74" fill="white" transform="translate(268)"/>
</clipPath>
<clipPath id="clip1">
<rect width="31" height="52" fill="white" transform="matrix(-1 0 0 1 31 130)"/>
</clipPath>
</defs>
</svg>
