<?xml version="1.0" encoding="utf-8"?>
<!-- Generator: Adobe Illustrator 25.1.0, SVG Export Plug-In . SVG Version: 6.00 Build 0)  -->
<svg version="1.1" id="Calque_1" xmlns="http://www.w3.org/2000/svg" xmlns:xlink="http://www.w3.org/1999/xlink" x="0px" y="0px"
	 viewBox="0 0 1320 700" style="enable-background:new 0 0 1320 700;" xml:space="preserve">
<style type="text/css">
	.st0{fill:#E3572B;}
	.st1{fill:none;stroke:#FDDBA3;stroke-linecap:round;stroke-miterlimit:10;}
	.st2{fill:#EDAC1D;}
	.st3{fill:#1D2446;}
	.st4{fill:#BEE2EC;}
	.st5{fill:#BDE1ED;}
</style>
<g>
	<g>
		<path class="st0" d="M137.8,114.4c-8.1,25.1-32.1,30.3-53.4,16.3c-15.2-10.1-26.6-7.5-32-5.3c-5,2.1-10,3.7-15.4,4.6
			c-7.7,1.2-15.2,1.2-22.4,0.3c-5.1-0.6-10-1.5-14.7-2.7V25.7c5.5,1.5,10.9,5,14.2,9.4c5.9,8,19.1,6.3,36,0.8
			c11.6-3.8,29.1,3.7,35.3,15c3.8,7,1,12.9,6.7,18.7c4.4,4.4,9.2,4.2,14.9,5.9C123.3,80.1,142.9,98.7,137.8,114.4z"/>
		<path class="st1" d="M110.7,108.1c0,0-49.4-33.4-110.2-33.6"/>
	</g>
	<path class="st2" d="M21.1,161.9c-2.4,10.7-10.6,19-21.1,22.1v-72.5c5.5,5.6,10.7,11.9,14.7,18.7C20.4,140.2,23.6,151,21.1,161.9z"
		/>
</g>
<g>
	<g>
		<path class="st3" d="M85.7,575L1.9,609.9c0,0-0.8-0.8-1.9-1.9V446c12.7,5.2,20.6,18.6,22.1,24.6c2.2,8.9,19.1,16.3,28,16.3
			c8.9,0,23.4,16.5,19.3,32.3c-4.2,15.9-4.7,28.2,4.2,32.8c6.3,3.3,11.2,9.6,12.5,15.7C86.6,570.3,86.6,572.8,85.7,575z"/>
		<path class="st1" d="M33.8,575.9c0-0.4-0.1-0.8-0.1-1.2c-4.1-34.5-21.2-66.8-33.5-86.1"/>
	</g>
	<path class="st2" d="M22.1,594.3L0,605v-34c5.9,5.3,11.1,10.3,14.9,14.6C19.5,590.8,22.1,594.3,22.1,594.3z"/>
	<path class="st4" d="M178.6,647.3c0,22.4-18.2,52.5-40.6,52.5c-1.2,0-2.6,0.4-4,0.2H32c-0.2,0-1.9,0-2,0H0v-98
		c1.5-0.2,3.2-0.6,4.8-0.7c2.2-5.9,5.7-11.3,10.1-15.8c5.2-5.2,11.6-9,18.8-10.8c2.8-0.7,5.7-1.1,8.8-1.1c7.4,0,14.2,3.4,20.2,7
		c5.5-7.1,13.9-12,23.5-12.9c1-0.1,2-0.2,3.1-0.2c18.5,0,33.7,15.1,33.7,33.7c0,3.1-0.4,6.1-1.2,8.9c5-2.2,10.5-3.4,16.5-3.4
		C160.5,606.6,178.6,624.7,178.6,647.3z"/>
	<path class="st2" d="M451.4,666.5c-0.7-1.2-1.5-2.3-2.3-3.5c-15.8-29.3-42.7-35.9-42.7-35.9c-3.7-1.2-17.8-5.5-36.6-4.5
		c-32.2,1.9-41.1,17.8-70.3,26.7c-36.5,11.1-47-6.4-87.4-0.3c-19.4,3-46.7,25.3-77.7,50.9l437.6,0
		C515.3,653.4,469.1,689,451.4,666.5z"/>
</g>
<g>
	<g>
		<path class="st0" d="M1276.1,666.1c0,0,28.9-32.4,26.6-70.8c-0.3-4.9-1.4-9.7-2.9-14.4c-1.6-5.1-3-15.7,7.4-28.7
			c14.5-18.3,11.7-40.5-10.5-50c-13.9-5.9-32.5,10.4-38,24.7c-1.9,5.1-2.2,9.5-6.6,13.1c-5.8,4.7-11,1.7-17.6,4.6
			c-10.9,4.7-19,20.1-16.6,31c3.7,15.9,4.1,28.1-3.7,32.8c-7.6,4.7-12.9,15.5-10.5,22.9L1276.1,666.1z"/>
		<path class="st1" d="M1288.6,526.5c0,0-34.8,50.2-40,105.7"/>
	</g>
	<path class="st2" d="M1320.5,611.1v58.1c-7.6,1.4-17,2-28.8,1.3l-33.1-17.7c0,0,12.9-17.4,30.4-29.7
		C1298.6,616.2,1309.6,611,1320.5,611.1z"/>
	<path class="st4" d="M1320.4,700.1H983.8c11-15.8,30.7-26.3,53.2-26.3c5.9,0,11.6,0.7,17,2.1c5,1.2,10-1.7,11.5-6.7
		c7-23.8,47.9-28.3,76.9-28.3c32.5,0,66.8-46.6,103.8-14.8c2.6,2.2,6.4,2.5,9.5,1.2c7.5-3.1,15.9-4.9,24.8-4.9
		c2.9,0,5.8,0.2,8.7,0.6c12.1,1.6,23,6.5,31.4,13.6L1320.4,700.1z"/>
</g>
<g>
	<path class="st5" d="M1223.8,32.2c0.8,0.3,1.7,0.1,2-0.5c0.7-0.9,1.3-1.9,2-2.9c0.5-0.6,0.2-1.4-0.4-1.8c-0.2-0.1-0.2-0.1-0.4-0.2
		c-0.6-0.1-1.3,0.1-1.7,0.5c-0.7,1-1.3,1.9-2,2.9C1222.8,31.1,1223.1,31.9,1223.8,32.2z"/>
	<path class="st5" d="M1250.6,6.5c1-0.7,1.9-1.4,3-2.1c0.6-0.4,0.7-1.2,0.2-1.8c-0.2-0.2-0.6-0.4-0.8-0.4c-0.4-0.1-1,0-1.1,0.2
		c-1.1,0.7-2.1,1.4-3.1,2.1c-0.7,0.4-0.7,1.2-0.2,1.8C1249,6.9,1250,6.9,1250.6,6.5z"/>
	<path class="st5" d="M1244.7,10.9c1-0.8,1.9-1.6,2.9-2.3c0.6-0.4,0.7-1.3,0.1-1.8c-0.2-0.2-0.5-0.4-0.7-0.4c-0.4-0.1-1,0-1.4,0.3
		c-1,0.8-1.9,1.6-2.9,2.3c-0.6,0.5-0.6,1.3-0.1,1.8C1243.2,11.4,1244.1,11.4,1244.7,10.9z"/>
	<path class="st5" d="M1234.4,20.8c0.7-0.9,1.6-1.8,2.4-2.6c0.5-0.5,0.5-1.3-0.1-1.8c-0.2-0.1-0.4-0.3-0.6-0.3c-0.5-0.1-1,0-1.5,0.4
		c-0.8,0.9-1.7,1.8-2.5,2.7c-0.5,0.5-0.4,1.3,0.2,1.8C1232.9,21.5,1233.8,21.3,1234.4,20.8z"/>
	<path class="st5" d="M1227.8,26.5c0.6,0.4,1.6,0.2,2-0.4c0.7-0.9,1.5-1.8,2.2-2.7c0.5-0.6,0.3-1.4-0.3-1.8
		c-0.2-0.1-0.3-0.2-0.5-0.2c-0.5-0.1-1.2,0.1-1.6,0.6c-0.7,0.9-1.5,1.9-2.3,2.8C1226.9,25.3,1227.2,26.1,1227.8,26.5z"/>
	<path class="st5" d="M1239.4,15.7c0.8-0.8,1.7-1.6,2.6-2.4c0.5-0.5,0.6-1.4,0-1.8c-0.2-0.1-0.4-0.3-0.7-0.3c-0.5-0.1-1,0-1.4,0.4
		c-0.9,0.8-1.8,1.6-2.7,2.5c-0.5,0.5-0.5,1.3,0.1,1.8C1237.9,16.3,1238.8,16.3,1239.4,15.7z"/>
	<path class="st5" d="M1254.5,2.1c0.4,0.5,1.3,0.7,2,0.3c1-0.6,2.2-1.3,3.2-1.8c0.2-0.1,0.3-0.3,0.5-0.4c-1.6,0-3.3,0-4.9,0
		c-0.1,0.1-0.3,0.2-0.4,0.3C1254.3,0.7,1254,1.5,1254.5,2.1z"/>
	<path class="st5" d="M1220.3,38.3c0.8,0.3,1.6,0.1,2-0.6c0.6-1,1.2-2.1,1.7-3c0.4-0.6,0-1.4-0.6-1.7c-0.2,0-0.3-0.1-0.4-0.1
		c-0.6-0.1-1.3,0-1.6,0.6c-0.6,1-1.2,2.1-1.8,3.1C1219.2,37.2,1219.5,37.9,1220.3,38.3z"/>
	<path class="st5" d="M1208,104.4c0.8-0.1,1.4-0.7,1.4-1.4c-0.1-1.1-0.2-2.3-0.2-3.4c0-0.6-0.5-1-1.1-1.2c-0.2,0-0.3-0.1-0.4-0.1
		c-0.8,0.1-1.4,0.7-1.4,1.4c0,1.2,0.1,2.3,0.2,3.4C1206.5,103.9,1207.2,104.4,1208,104.4z"/>
	<path class="st5" d="M1207.4,97.6c0.9-0.1,1.4-0.7,1.4-1.3c-0.1-1.1,0-2.2-0.1-3.3c0-0.6-0.4-1.1-1.1-1.2c-0.1,0-0.3-0.1-0.6,0
		c-0.8,0-1.4,0.6-1.4,1.3c0,1.2,0.1,2.3,0.1,3.4C1206,97.1,1206.7,97.6,1207.4,97.6z"/>
	<path class="st5" d="M1211.6,124.5c0.8-0.2,1.3-0.8,1.1-1.5c-0.2-1.1-0.5-2.2-0.7-3.3c0-0.5-0.5-0.9-1-1c-0.3-0.1-0.4-0.1-0.6,0
		c-0.8,0.2-1.4,0.8-1.2,1.5c0.3,1.1,0.5,2.2,0.7,3.3C1210,124.2,1210.7,124.6,1211.6,124.5z"/>
	<path class="st5" d="M1213.4,131.1c0.7-0.2,1.2-0.8,1-1.5c-0.3-1.1-0.7-2.2-0.9-3.3c-0.1-0.5-0.5-0.9-1-1c-0.3-0.1-0.4-0.1-0.6,0
		c-0.8,0.2-1.3,0.8-1.1,1.5c0.3,1.2,0.6,2.3,0.9,3.4C1211.9,130.8,1212.6,131.2,1213.4,131.1z"/>
	<path class="st5" d="M1210.1,117.9c0.8-0.2,1.4-0.8,1.2-1.5c-0.2-1.1-0.5-2.3-0.6-3.4c-0.1-0.5-0.6-1-1.1-1.1
		c-0.2,0-0.4-0.1-0.5,0.1c-0.9,0.1-1.4,0.8-1.3,1.5c0.2,1.1,0.4,2.2,0.6,3.4C1208.6,117.6,1209.3,118.1,1210.1,117.9z"/>
	<path class="st5" d="M1207.4,90.8c0.8,0,1.5-0.6,1.5-1.2c0-1.2,0-2.2,0.1-3.4c0.1-0.6-0.4-1.1-1.1-1.2c-0.1,0-0.2,0-0.4-0.1
		c-0.8,0-1.5,0.5-1.5,1.2c0,1.1,0,2.2-0.1,3.4C1205.9,90.2,1206.6,90.8,1207.4,90.8z"/>
	<path class="st5" d="M1209,111c0.8-0.1,1.3-0.7,1.3-1.4c-0.1-1.1-0.3-2.2-0.4-3.3c-0.1-0.5-0.6-1-1.1-1.1c-0.2,0-0.4-0.1-0.5-0.1
		c-0.8,0.1-1.3,0.7-1.3,1.4c0.1,1.1,0.3,2.3,0.4,3.4C1207.5,110.6,1208.2,111.1,1209,111z"/>
	<path class="st5" d="M1214.4,50.9c0.8,0.2,1.6-0.1,1.9-0.8c0.4-1.1,0.9-2.1,1.3-3.2c0.3-0.6-0.1-1.3-0.9-1.6c-0.1,0-0.1,0-0.2,0
		c-0.7-0.2-1.5,0.2-1.7,0.8c-0.5,1-0.9,2.2-1.3,3.3C1213.3,49.9,1213.7,50.6,1214.4,50.9z"/>
	<path class="st5" d="M1217.2,44.4c0.8,0.3,1.6,0,1.9-0.6c0.4-1.1,1-2,1.5-3.1c0.3-0.6,0-1.4-0.7-1.7c-0.1,0-0.2,0-0.3-0.1
		c-0.7-0.2-1.5,0.2-1.5,0.7c-0.6,1-1.1,2.1-1.6,3.1C1216.1,43.4,1216.4,44.1,1217.2,44.4z"/>
	<path class="st5" d="M1207.7,84.1c0.8,0,1.5-0.5,1.5-1.2c0.1-1.1,0.1-2.2,0.2-3.3c0-0.7-0.4-1.2-1.1-1.3c-0.1,0-0.2,0-0.2,0
		c-0.8-0.1-1.5,0.4-1.6,1.1c-0.1,1.1-0.2,2.3-0.3,3.4C1206.3,83.4,1206.9,84,1207.7,84.1z"/>
	<path class="st5" d="M1212.2,57.4c0.8,0.2,1.6-0.2,1.8-0.9c0.3-1.1,0.6-2.2,1.1-3.2c0.2-0.7-0.2-1.5-1-1.6
		c-0.7-0.2-1.5,0.2-1.8,0.9c-0.3,1.1-0.8,2.2-1.1,3.3C1210.9,56.5,1211.4,57.2,1212.2,57.4z"/>
	<path class="st5" d="M1208.2,77.3c0.7,0.1,1.5-0.4,1.6-1.1c0.1-1,0.3-2.2,0.4-3.3c0.1-0.6-0.4-1.2-1.1-1.4l-0.1,0
		c-0.8-0.1-1.5,0.4-1.7,1.1c-0.1,1.1-0.3,2.3-0.4,3.4C1206.8,76.6,1207.4,77.2,1208.2,77.3z"/>
	<path class="st5" d="M1209.1,70.6c0.7,0.1,1.5-0.3,1.6-1c0.2-1.1,0.5-2.2,0.7-3.3c0.1-0.7-0.4-1.3-1.1-1.5c0,0,0,0,0,0.1
		c-0.8-0.1-1.6,0.3-1.7,1c-0.2,1.1-0.5,2.2-0.7,3.3C1207.8,69.8,1208.2,70.5,1209.1,70.6z"/>
	<path class="st5" d="M1210.5,63.9c0.8,0.2,1.5-0.2,1.7-0.9c0.3-1.1,0.6-2.2,0.9-3.3c0.2-0.7-0.3-1.4-1.1-1.6
		c-0.8-0.2-1.6,0.3-1.7,0.9c-0.3,1.1-0.7,2.3-0.9,3.4C1209.2,63.1,1209.7,63.7,1210.5,63.9z"/>
	<path class="st5" d="M1215.4,137.6c0.8-0.2,1.2-0.9,1-1.6c-0.3-1.1-0.7-2.1-1-3.2c-0.2-0.4-0.5-0.8-1.1-0.9c-0.3-0.1-0.5,0-0.7-0.1
		c-0.8,0.2-1.2,0.9-1,1.6c0.3,1.2,0.7,2.2,1,3.3C1213.8,137.4,1214.6,137.7,1215.4,137.6z"/>
	<path class="st5" d="M1309,227.4c-1.2-0.4-2.4-0.7-3.7-1.1l-0.1,0c-0.7-0.2-1.5,0.2-1.7,0.9c-0.3,0.7,0.1,1.3,0.9,1.6
		c1.2,0.4,2.4,0.7,3.7,1.1c0.8,0.2,1.6-0.1,1.9-0.8C1310.1,228.4,1309.8,227.7,1309,227.4z"/>
	<path class="st5" d="M1218.6,142.4c-0.4-1-0.8-2.1-1.2-3.2c-0.2-0.4-0.6-0.7-1-0.8c-0.3-0.1-0.5-0.1-0.9-0.1c-0.7,0.2-1.2,1-1,1.6
		c0.4,1.1,0.8,2.2,1.2,3.3c0.3,0.7,1.1,1.1,1.8,0.8C1218.5,143.7,1218.9,143,1218.6,142.4z"/>
	<path class="st5" d="M1252,194.8c-0.8-0.8-1.7-1.7-2.5-2.5c-0.1-0.2-0.5-0.4-0.7-0.4c-0.4-0.1-0.9,0.1-1.3,0.2
		c-0.7,0.4-0.7,1.2-0.2,1.8c0.9,0.9,1.7,1.8,2.5,2.6c0.5,0.5,1.4,0.6,2.1,0.1C1252.5,196.1,1252.5,195.3,1252,194.8z"/>
	<path class="st5" d="M1242.7,184.3c-0.8-0.8-1.5-1.8-2.2-2.7c-0.2-0.3-0.5-0.5-0.9-0.5c-0.4-0.1-0.8,0-1,0.2
		c-0.7,0.3-0.9,1.1-0.4,1.7c0.8,1,1.4,1.9,2.2,2.8c0.4,0.5,1.3,0.7,2,0.3C1243,185.6,1243.2,184.9,1242.7,184.3z"/>
	<path class="st5" d="M1247.2,189.7c-0.8-0.9-1.6-1.8-2.3-2.7c-0.2-0.3-0.5-0.5-0.8-0.5c-0.4-0.1-0.9,0-1.1,0.3
		c-0.7,0.4-0.8,1.2-0.3,1.7c0.8,0.8,1.6,1.8,2.3,2.7c0.5,0.5,1.4,0.7,2,0.2C1247.6,191.1,1247.8,190.3,1247.2,189.7z"/>
	<path class="st5" d="M1257.3,199.8c-0.8-0.8-1.7-1.5-2.6-2.4c-0.2-0.2-0.5-0.4-0.7-0.4c-0.4-0.1-1,0-1.4,0.3
		c-0.5,0.5-0.6,1.3-0.1,1.8c0.9,0.9,1.8,1.7,2.7,2.5c0.6,0.5,1.5,0.5,2.1,0.1C1257.9,201.1,1257.8,200.3,1257.3,199.8z"/>
	<path class="st5" d="M1274.6,213c-1-0.6-2.1-1.4-3.1-2c-0.2-0.1-0.3-0.2-0.5-0.2c-0.5-0.1-1.2,0.1-1.5,0.4
		c-0.5,0.5-0.4,1.4,0.2,1.8c1.1,0.7,2.2,1.4,3.2,2c0.6,0.4,1.5,0.3,2-0.3C1275.4,214.1,1275.2,213.4,1274.6,213z"/>
	<path class="st5" d="M1265.6,206.8c-0.2-0.1-0.4-0.3-0.6-0.3c-0.5-0.1-1.1,0-1.4,0.4c-0.5,0.5-0.5,1.3,0.1,1.8
		c0.9,0.8,1.9,1.5,2.9,2.2c0.6,0.4,1.5,0.3,2.1-0.2c0.5-0.6,0.4-1.3-0.2-1.8C1267.5,208.2,1266.5,207.5,1265.6,206.8z"/>
	<path class="st5" d="M1259.9,202.2c-0.2-0.1-0.4-0.3-0.7-0.3c-0.4-0.1-1,0-1.4,0.2c-0.5,0.5-0.6,1.4,0,1.8c0.9,0.8,1.9,1.6,2.8,2.4
		c0.5,0.5,1.5,0.5,2,0c0.6-0.4,0.6-1.3-0.1-1.8C1261.7,203.8,1260.8,203,1259.9,202.2z"/>
	<path class="st5" d="M1234.4,172.9c-0.7-1-1.2-1.9-1.9-2.9c-0.3-0.3-0.6-0.5-1-0.6c-0.3-0.1-0.7,0-0.9,0.1c-0.8,0.3-1,1.1-0.6,1.7
		c0.5,1,1.2,2,1.9,3c0.4,0.6,1.3,0.8,2,0.4C1234.5,174.3,1234.8,173.5,1234.4,172.9z"/>
	<path class="st5" d="M1238.3,178.7c-0.7-1-1.3-1.9-2-2.9c-0.2-0.3-0.5-0.5-0.9-0.5c-0.4-0.1-0.8-0.1-1.1,0.2
		c-0.7,0.3-0.9,1.1-0.5,1.7c0.7,0.9,1.4,1.9,2.1,2.9c0.4,0.6,1.3,0.7,2,0.4C1238.6,180.1,1238.7,179.3,1238.3,178.7z"/>
	<path class="st5" d="M1227.1,161c-0.6-1-1-2-1.6-3c-0.2-0.4-0.5-0.6-0.9-0.7c-0.3-0.1-0.6-0.1-1,0c-0.7,0.2-1.1,1-0.8,1.6
		c0.5,1,1.1,2.1,1.6,3.1c0.3,0.6,1.2,0.9,1.9,0.6C1227.2,162.4,1227.5,161.7,1227.1,161z"/>
	<path class="st5" d="M1224.1,154.9c-0.5-1-1-2.1-1.5-3.1c-0.2-0.4-0.6-0.6-1-0.7c-0.3-0.1-0.6,0-0.8,0c-0.7,0.2-1.1,1-0.8,1.6
		c0.5,1,0.9,2.1,1.4,3.1c0.3,0.6,1.2,0.9,1.9,0.7C1224.1,156.3,1224.4,155.5,1224.1,154.9z"/>
	<path class="st5" d="M1230.7,167c-0.7-1-1.2-2-1.8-3c-0.2-0.3-0.6-0.5-1-0.6c-0.4-0.1-0.6-0.1-0.9,0.1c-0.7,0.2-1.1,1-0.7,1.7
		c0.5,1,1.2,2.1,1.8,3c0.4,0.6,1.3,0.9,1.9,0.5S1231.1,167.6,1230.7,167z"/>
	<path class="st5" d="M1281,216.7c-1.2-0.6-2.2-1.2-3.3-1.8c-0.2-0.1-0.2-0.1-0.4-0.2c-0.6-0.1-1.3,0-1.7,0.5
		c-0.5,0.6-0.2,1.4,0.4,1.8c1.2,0.6,2.3,1.3,3.4,1.8c0.7,0.4,1.6,0.2,2-0.4C1281.9,217.8,1281.6,217.1,1281,216.7z"/>
	<path class="st5" d="M1221.3,148.7c-0.5-1-0.9-2-1.4-3.1c-0.2-0.4-0.6-0.7-1-0.8c-0.3-0.1-0.6-0.1-0.8,0c-0.7,0.2-1.1,1-0.9,1.6
		c0.4,1.1,0.9,2.1,1.3,3.2c0.3,0.6,1.1,1,1.9,0.8C1221.2,150.1,1221.6,149.3,1221.3,148.7z"/>
	<path class="st5" d="M1316.4,229.5c-1.2-0.3-2.5-0.6-3.8-1c-0.7-0.2-1.5,0.2-1.8,0.8c-0.2,0.7,0.2,1.4,0.9,1.6
		c1.2,0.4,2.5,0.6,3.7,1c0.8,0.2,1.7-0.1,1.9-0.8C1317.5,230.4,1317.2,229.7,1316.4,229.5z"/>
	<path class="st5" d="M1287.5,220c-1.1-0.5-2.3-1-3.3-1.6c-0.1-0.1-0.2-0.1-0.3-0.2c-0.6-0.1-1.3,0-1.6,0.7
		c-0.4,0.6-0.1,1.4,0.5,1.7c1.1,0.5,2.2,1.1,3.4,1.6c0.8,0.3,1.6,0.1,2-0.6C1288.5,221.1,1288.3,220.4,1287.5,220z"/>
	<path class="st5" d="M1320,230.5C1320,230.5,1320,230.5,1320,230.5L1320,230.5z"/>
	<path class="st5" d="M1294.6,222.8c-1.2-0.4-2.3-0.9-3.5-1.4c-0.1,0-0.2,0-0.3-0.1c-0.7-0.2-1.5,0.2-1.7,0.7
		c-0.3,0.6,0,1.3,0.7,1.7c1.2,0.5,2.4,1,3.6,1.4c0.8,0.3,1.6,0,1.9-0.6C1295.7,223.8,1295.4,223,1294.6,222.8z"/>
	<path class="st5" d="M1301.8,225.1c-1.2-0.4-2.4-0.7-3.7-1.2c-0.1,0-0.1,0-0.2,0c-0.7-0.2-1.5,0.2-1.7,0.8
		c-0.3,0.6,0.1,1.3,0.9,1.6c1.2,0.4,2.4,0.8,3.7,1.2c0.7,0.2,1.5-0.1,1.8-0.7C1302.9,226.1,1302.6,225.4,1301.8,225.1z"/>
	<path class="st5" d="M1312.6,228.5C1312.6,228.5,1312.6,228.5,1312.6,228.5C1312.6,228.5,1312.6,228.5,1312.6,228.5z"/>
	<path class="st5" d="M1312.6,228.5C1312.6,228.5,1312.6,228.5,1312.6,228.5L1312.6,228.5z"/>
</g>
</svg>
