<svg id="Calque_1" data-name="Calque 1" xmlns="http://www.w3.org/2000/svg" viewBox="0 0 350 349.7"><defs><style>.cls-1{fill:#bee2ec;}.cls-2{fill:#141f1d;}.cls-15,.cls-3{fill:#f5ae8c;}.cls-4{fill:#f8c6a5;}.cls-5{fill:#182624;}.cls-10,.cls-12,.cls-13,.cls-17,.cls-6,.cls-8{fill:none;}.cls-6,.cls-8{stroke:#182624;}.cls-10,.cls-6,.cls-8{stroke-linecap:round;}.cls-10,.cls-12,.cls-13,.cls-15,.cls-6,.cls-8{stroke-miterlimit:10;}.cls-13,.cls-6{stroke-width:0.5px;}.cls-7{fill:#e3572b;}.cls-15,.cls-8{stroke-width:0.25px;}.cls-9{fill:#f1b50a;}.cls-10,.cls-12{stroke:#2b315b;stroke-width:2px;}.cls-11{fill:#1e3c76;}.cls-13{stroke:#d5431f;}.cls-14{fill:#2b315b;}.cls-15{stroke:#1d1e1c;}.cls-16{fill:#f29673;}.cls-18{fill:#f9c7a6;}</style></defs><path class="cls-1" d="M350,174.8a173.18,173.18,0,0,1-2.6,29.9,153.14,153.14,0,0,1-4.5,19.2,169.81,169.81,0,0,1-12.2,30.6c-1.5,2.8-3,5.7-4.6,8.4a175.32,175.32,0,0,1-81.4,72.2c-.2.1-.3.1-.5.2-1.8.8-3.6,1.5-5.4,2.2a174,174,0,0,1-18.9,6.2c-2.9.8-5.9,1.5-8.9,2.1l-4.6.9a176.34,176.34,0,0,1-28.4,2.8h-3a175.51,175.51,0,0,1-19.3-1.1c-3.2-.4-6.4-.8-9.6-1.3-1-.2-2-.3-3-.5a2.92,2.92,0,0,1-.9-.2,166.63,166.63,0,0,1-22.1-5.7,170.91,170.91,0,0,1-21.2-8.6,176,176,0,0,1-82.4-83.2,160.5,160.5,0,0,1-8.8-22.8c0-.1,0-.1-.1-.2-1-3.4-2-6.8-2.8-10.3A174.69,174.69,0,0,1,0,174.8C0,78.3,78.4,0,175,0S350,78.3,350,174.8Z"/><path class="cls-2" d="M275.6,74.1s-12.3-27.6-37.7-8.5c-17.5,13.2-8.5,25.7-21.4,25.7s-25.6,13.4-24.8,27.1.9,24.4-6.8,34.4-14.5,94.8,55.6,64.1c0,0,40.2-11.2,1.7-86.9,0,0-2.1-32.5,7.9-34.4a81.09,81.09,0,0,1,6.8-12.8C262.6,74.4,267.7,74.3,275.6,74.1Z"/><g id="COU"><path class="cls-3" d="M257.3,156.5l-3.2,45.1s18.9,16.3,45.6.8l-.3-33.8C299.3,168.5,267.5,138.6,257.3,156.5Z"/></g><path class="cls-4" d="M317,129.1s-1.2-21.1-5.4-27.2c-15.9-22.8-68.4-26.8-72.8,20.4,0,0-.9-4.3-1.4,3.9,0,0-8.4-6.7-8.3,4.8,0,10.4,1.5,14.8,9.7,22.1,0,0,13.7,30.6,46.6,28.9,12.6-.6,22.3-13.3,26.8-25.5h0A92.1,92.1,0,0,0,317,129.1Z"/><circle class="cls-3" cx="252.51" cy="144.1" r="7.8" transform="translate(35.95 338.08) rotate(-71.56)"/><circle class="cls-3" cx="303.5" cy="144.1" r="7.8"/><circle class="cls-5" cx="267.7" cy="132.1" r="1.5"/><circle class="cls-5" cx="293.2" cy="131.3" r="1.5"/><path class="cls-3" d="M276.9,145s6.2,2.2,9-2.6C285.9,142.4,283.9,150.5,276.9,145Z"/><path class="cls-6" d="M269.9,117.1s-7.9-4.1-13.2,2.6"/><path class="cls-6" d="M291.7,118s7.9-4.1,13.2,2.6"/><path class="cls-7" d="M235.3,90.2c2.5,1.9,3,2.2,5.5,4.1a55.08,55.08,0,0,1,10.3-9,66,66,0,0,1,9.5-5.3,79.66,79.66,0,0,1,15.9-5.5c-2.6-3.4-4.4-7-7.8-10.1a50.51,50.51,0,0,0-17.5,6.3C241.2,76.6,238.2,84.7,235.3,90.2Z"/><circle class="cls-7" cx="235.3" cy="147.4" r="7"/><path class="cls-8" d="M285.3,159.3a7.7,7.7,0,0,1-6.3,2,9.48,9.48,0,0,1-6.2-4.5"/><path class="cls-3" d="M247.9,109.4s2-10.5,10.4-6.4c5.3,2.6,37.5,19.4,49.6,5.8a14,14,0,0,0,2.3-3c.6-1.3,3.5.6,3.8,2.6a3.57,3.57,0,0,0,.8-3.8c-.8-2.4-7.5-4.3-7.5-4.3s-6.9,9.9-23,5.7S249,90.7,247.9,109.4Z"/><path class="cls-9" d="M206.4,346.9a176.34,176.34,0,0,1-28.4,2.8c.3-8.8.9-17.8,1.7-26.9.3-2.7.5-5.5.8-8.2l.6-5.1c.4-3.4.9-6.8,1.4-10.2.8-5.5,1.8-11.1,3-16.5.6-3.1,1.3-6.1,2.1-9.1.4-1.6.8-3.3,1.3-4.9.8-2.9,1.6-5.8,2.4-8.6h0a170.08,170.08,0,0,1,9.8-25.1c.8-1.6,1.5-3.1,2.4-4.6h0c.5-.9,1-1.8,1.5-2.6.8-1.5,1.7-2.9,2.6-4.3.1-.1.1-.2.2-.4.5-.8,1-1.6,1.5-2.3s.9-1.4,1.4-2c8.6-12.2,19.3-21.6,32.7-27.1a70.65,70.65,0,0,1,9.2-3c.1,0,.3-.1.4-.1a4.64,4.64,0,0,1,2-.1,9.24,9.24,0,0,1,3.6,1.5c2.7,1.6,6.7,3.8,17.6,3.8,22.5,0,19.3-4.4,23.3-3.8a13,13,0,0,1,2.9.8.35.35,0,0,1,.2.1c17,5.8,30.2,17.7,40.4,33.2a169.81,169.81,0,0,1-12.2,30.6c-1.5,2.8-3,5.7-4.6,8.4a175.32,175.32,0,0,1-81.4,72.2,2,2,0,0,1-.1.8c-.1-.2-.3-.4-.4-.6-1.8.8-3.6,1.5-5.4,2.2A174,174,0,0,1,220,344c-2.9.8-5.9,1.5-8.9,2.1C209.5,346.3,208,346.6,206.4,346.9Z"/><path class="cls-9" d="M347.4,204.8a153.14,153.14,0,0,1-4.5,19.2,169.81,169.81,0,0,1-12.2,30.6c-1.5,2.8-3,5.7-4.6,8.4-7.2-37.2-16-66.3-26.6-72a.35.35,0,0,1-.2-.1h3.3A87.36,87.36,0,0,1,347.4,204.8Z"/><path class="cls-9" d="M267.7,281.3c-9.3,7.7-16.5,21.2-22,35.4-1.8,4.7-3.5,9.6-4.9,14.2l-.9,3c-.4,1.2-.7,2.5-1,3.7a174,174,0,0,1-18.9,6.2c-2.9.8-5.9,1.5-8.9,2.1l-4.6.9a176.34,176.34,0,0,1-28.4,2.8h-3a175.51,175.51,0,0,1-19.3-1.1c0-8.8.3-18.3.9-28.1.1-2.1.3-4.2.4-6.4.2-2.5.4-4.9.6-7.4.3-3.6.7-7.3,1.2-11,.8-6.9,1.9-13.7,3.2-20.5.2-1.2.5-2.3.7-3.5a202.9,202.9,0,0,1,7.5-27.1c1.2-3.2,2.4-6.4,3.7-9.5.5-1,.9-2.1,1.4-3.1a71.11,71.11,0,0,1,10.7-15.8,10,10,0,0,1,1-1.1,38.33,38.33,0,0,1,2.8-2.9q2.25-2.25,4.8-4.5c.2-.1.3-.3.4-.4,1.2-1.1,2.5-2.1,3.8-3.1,12.6-9.9,28.2-17.4,43.6-17.7a43,43,0,0,1,9.5.8,2,2,0,0,1,1.1,1.1c.7,1.3,1.1,3.8,1.5,7.2h0c.2,1.9.4,4,.6,6.4a4.1,4.1,0,0,0,.1,1.1h0C256.5,224.5,257.1,261.6,267.7,281.3Z"/><path class="cls-10" d="M244.8,335.2c.4-6.4.7-12.6,1-18.6,2.3-49.9,1.5-82.4.1-102.3-.8-11.1-1.8-18.3-2.5-22.6-.6-3.3-1-4.9-1-5h0"/><g id="COU-2" data-name="COU"><path class="cls-3" d="M52.8,155.4l-3.5,48.5s20.4,17.5,49,.8L98,168.4S63.8,136.3,52.8,155.4Z"/></g><path class="cls-11" d="M177,349.7h-2a175.51,175.51,0,0,1-19.3-1.1c-3.2-.4-6.4-.8-9.6-1.3-1-.2-2-.3-3-.5a2.92,2.92,0,0,1-.9-.2,166.63,166.63,0,0,1-22.1-5.7,170.91,170.91,0,0,1-21.2-8.6,176,176,0,0,1-82.4-83.2,160.5,160.5,0,0,1-8.8-22.8,2.65,2.65,0,0,1-.6.5c.2-.2.3-.5.5-.7,9.2-12.4,20.4-21.9,34-27.2,2.2-.9,4.5-1.6,6.8-2.3h0c.5-.1.9-.2,1.3-.3,5.6-.6,5.2,6.3,24.1,6.3,22.6,0,21.1-4.5,24.3-4.6a12.32,12.32,0,0,1,3.8,1c.2.1.4.1.6.2a75.73,75.73,0,0,1,27.6,18.6c1.8,1.8,3.4,3.7,5.1,5.7.4.5.8.9,1.2,1.4,1.2,1.5,2.4,3.1,3.5,4.6.4.6.8,1.2,1.2,1.7,1.7,2.4,3.2,4.9,4.8,7.5a181.22,181.22,0,0,1,14.8,33c.4,1.1.8,2.2,1.1,3.3,2.5,7.6,4.7,15.6,6.6,23.8.8,3.5,1.6,7.1,2.3,10.7.2,1.2.5,2.4.7,3.6.7,3.5,1.3,6.9,1.9,10.4C174.9,332.3,176.1,341,177,349.7Z"/><path class="cls-4" d="M117,126.1s-1.3-22.7-5.8-29.2c-17.1-24.5-73.5-28.8-78.3,22,0,0-.9-4.7-1.5,4.2,0,0-9-7.2-9,5.1,0,11.2,1.6,15.9,10.5,23.8,0,0,14.8,32.9,50.1,31.1,13.5-.7,24-14.4,28.8-27.4h0A99.79,99.79,0,0,0,117,126.1Z"/><path class="cls-4" d="M115.3,125.2s4.5-4.7,7.3-1,2.1,21.8-7.5,25.9S115.3,125.2,115.3,125.2Z"/><circle class="cls-3" cx="47.6" cy="142.2" r="8.3"/><circle class="cls-3" cx="102.5" cy="142.2" r="8.3"/><circle class="cls-5" cx="61.8" cy="129.2" r="1.6"/><circle class="cls-5" cx="93.6" cy="128.4" r="1.6"/><path class="cls-3" d="M73.9,143.1s6.7,2.3,9.7-2.8C83.6,140.3,81.4,149,73.9,143.1Z"/><path class="cls-6" d="M66.4,113.2s-8.5-4.4-14.2,2.8"/><path class="cls-6" d="M89.9,114.1s8.5-4.4,14.2,2.8"/><path class="cls-7" d="M102.1,199"/><path class="cls-11" d="M48.1,295.2a175.6,175.6,0,0,1-31.5-46,160.5,160.5,0,0,1-8.8-22.8,251,251,0,0,1,27.5-21.2c7.5-5.1,12.8-8.2,13.3-8.4h0C48.6,197.6,51.3,246.6,48.1,295.2Z"/><path class="cls-11" d="M41.7,199a20.57,20.57,0,0,0-6.5,6.2c-6.2,8.5-12.5,24.1-18.7,44a160.5,160.5,0,0,1-8.8-22.8,2.65,2.65,0,0,1-.6.5c.2-.2.3-.5.5-.7-1-3.4-2-6.8-2.8-10.3C25.8,202.2,41.7,199,41.7,199Z"/><path class="cls-11" d="M211,346l-4.6.9a176.34,176.34,0,0,1-28.4,2.8h-3a175.51,175.51,0,0,1-19.3-1.1c-3.2-.4-6.4-.8-9.6-1.3-1-.2-2-.3-3-.5-.1-1-.3-1.9-.4-2.9-1.2-7.7-2.4-15.4-3.6-23-.7-4.2-1.4-8.3-2.1-12.4-.3-1.9-.7-3.7-1-5.6-4.7-26.1-9.9-50.2-15.5-68.6h0c-5.5-18.1-11.5-30.9-17.7-34.9-.2-.1-.4-.3-.6-.4,0,0,14.1,2.6,31.9,13.4a70.73,70.73,0,0,1,6.1,4c.2.1.3.2.5.3,2.1,1.5,4.3,3,6.5,4.8a8.74,8.74,0,0,0,1,.8,130.43,130.43,0,0,1,14.1,13.1c2.7,2.9,5.4,6,8,9.4a147.49,147.49,0,0,1,17.4,28.9c.9,2,1.8,4.1,2.7,6.2,1.5,3.6,2.9,7.4,4.4,11.3,1.9,5.1,3.7,10.5,5.5,16.2.6,1.8,1.1,3.6,1.7,5.4.8,2.6,1.6,5.2,2.4,7.9C206.6,328.8,208.9,337.3,211,346Z"/><path class="cls-12" d="M136.2,285.3c1.2,5.2,2.4,10.8,3.4,16.9.2,1.1.4,2.3.6,3.4.7,4.3,1.5,8.8,2.2,13.5.8,5.2,1.5,10.5,2.2,16,.5,4,1,8.1,1.5,12.2"/><path class="cls-8" d="M80.3,158.8a8.18,8.18,0,0,1-6.5,2.1,9.8,9.8,0,0,1-6.4-4.6"/><circle class="cls-13" cx="60.6" cy="128.6" r="11.3"/><circle class="cls-13" cx="93" cy="128" r="11.3"/><path class="cls-13" d="M72,128.6s4.8-4.9,9.7-.6"/><path class="cls-14" d="M119.4,88.9c-6.5-9.6-21.1-12.2-45.6-15.3-31.5-4-42.9,17.6-42.9,17.6-9.6,2.6-5.9,15.3-2,30.3h0c2,7.8,4.1,16.2,4.4,24.1a44.09,44.09,0,0,0,.5,8.2h0a34.86,34.86,0,0,0,17.3,24.7c7.6,4.4,17.4,6.9,29.2,6.7,7.4-.1,13.3-1.8,17.8-4.4,12-7,15.2-20.7,16-30.4.1-1.2.2-2.3.2-3.3h0v-1.5h0a79,79,0,0,1,1.5-10.4c.3-1.2.6-2.5.9-4h0c.5-2.5,1.1-5.2,1.5-8.2.1-.8.3-1.6.4-2.4a168,168,0,0,0,1.7-17.4,39.06,39.06,0,0,1,.5-4.8A14.21,14.21,0,0,0,119.4,88.9ZM112.2,136h0c-.2,1.4-.5,2.8-.8,4.2h0a19.45,19.45,0,0,0-.5,2v.1h0c-.8,2.6-1.6,4.7-1.6,4.7h0c-.6,1.6-1.2,3.3-1.8,5-1.8,5.2-7.7,9.1-14.6,11.8a66.9,66.9,0,0,1-19,4.2c-5.9.2-14.4-3.6-21.4-8.1-5.4-3.4-9.9-7.1-11.8-9.6-4.4-5.6-3-20.3-3-20.5.2-1.9.5-3.7.8-5.5,3-17.1,10.4-25.5,18.9-21.7,14.8,6.7,32.2,6.6,41.1,5.7,3.9-.4,12.9-6.1,14-2a64.14,64.14,0,0,1,1.9,15.4,9.91,9.91,0,0,1-.2,1.8C113.5,129.1,112.7,132.4,112.2,136Z"/><path class="cls-13" d="M104.3,128a29.28,29.28,0,0,1,14-5"/><path class="cls-13" d="M31.4,123s9.9,1.3,17.9,5.4"/><path class="cls-5" d="M120.6,331.1A26.18,26.18,0,0,1,98,288s18.4-7.5,16.9-18.6c-2-14.8-3.3-27.7,3.8-33.4,4.2-3.4,9.1-12.9,10.8-16.4,10-20.2,27.9-21.9,45.6-21.8,5.6,0,14.3.2,23,6,12.3,8.2,15,21.8,15,21.8a68.55,68.55,0,0,1,5.7,17.6,69.87,69.87,0,0,1-1,28.8c9.5,7.7,14.3,18.7,12.3,28.8a25.88,25.88,0,0,1-14.2,18.1c-15.7,7.2-28.6-8.7-55.5-5.3a65.57,65.57,0,0,0-14.4,3.5C137.5,321.8,129,326.4,120.6,331.1Z"/><g id="COU-3" data-name="COU"><path class="cls-3" d="M153.8,276.9l-2.9,40.2s16.9,14.5,40.7.7l-.3-30.2C191.4,287.7,163,261,153.8,276.9Z"/></g><path class="cls-4" d="M207.1,252.5s-1.1-18.9-4.8-24.2c-14.2-20.3-61-23.9-65,18.2,0,0-.8-3.9-1.2,3.5,0,0-7.5-5.9-7.4,4.3,0,9.3,1.3,13.2,8.7,19.7,0,0,12.3,27.3,41.6,25.8,11.2-.6,19.9-11.9,23.9-22.8h0A80.36,80.36,0,0,0,207.1,252.5Z"/><path class="cls-4" d="M205.7,251.8s3.7-3.9,6.1-.8,1.7,18.1-6.2,21.5S205.7,251.8,205.7,251.8Z"/><circle class="cls-3" cx="149.6" cy="265.9" r="6.9"/><circle class="cls-3" cx="195.1" cy="265.9" r="6.9"/><circle class="cls-5" cx="163.2" cy="255.1" r="1.3"/><circle class="cls-5" cx="185.9" cy="254.4" r="1.3"/><path class="cls-3" d="M171.4,265.6s4.9,3.3,8.4-.1C179.8,265.5,176.2,272,171.4,265.6Z"/><path class="cls-6" d="M165.1,241.8s-7.1-3.7-11.8,2.3"/><path class="cls-6" d="M184.6,242.6s7.1-3.7,11.8,2.3"/><path class="cls-7" d="M194.8,313.1"/><path class="cls-5" d="M202,215.7c-10.9-12.5-11.5-11.8-34.7-14.8-9.6-1.3-27.4,12.8-31.4,21.6-14.8,32.9-6.2,41.8-6.2,41.8s-1.2.3-1.1-10.1,7.4-4.3,7.4-4.3,2.9,3.1,5.3,3.1c6.7,0,5.2-3.7,4.5-17.7l58.9-.4c1.8,11.5-3.1,24.1,0,21.7,1.4-1,.9-6.6,4.2-7,0,0,3.7-.6,3.9,6C212.9,255.7,216.8,232.6,202,215.7Z"/><path class="cls-7" d="M219.9,343.9c-2.9.8-5.9,1.5-8.9,2.1l-4.6.9a176.34,176.34,0,0,1-28.4,2.8h-3a175.51,175.51,0,0,1-19.3-1.1c-3.2-.4-6.4-.8-9.6-1.3-1-.2-2-.3-3-.5a2.92,2.92,0,0,1-.9-.2,166.63,166.63,0,0,1-22.1-5.7c1.4-4.3,2.9-8.4,4.5-12.1h0c3.6-8.6,7.7-15.6,12.3-20.3a29.79,29.79,0,0,1,3.3-2.9,19.08,19.08,0,0,1,4.1-2.4c1.5-.7,3.3-.3,5.6.5.6.2,1.3.5,2,.8,1.7.7,3.6,1.5,5.7,2.3a44.23,44.23,0,0,0,13.3,3c.7,0,1.4.1,2.1.1a59.49,59.49,0,0,0,8.1-.4c9-.9,7.8-3.3,10.4-2.8a2.54,2.54,0,0,1,.7.2h0a12.13,12.13,0,0,1,1.4.5,24.65,24.65,0,0,1,8.2,5.5,49.37,49.37,0,0,1,6.6,8C212.7,327,216.5,334.9,219.9,343.9Z"/><path class="cls-9" d="M171,213c38.2.3,39.8,30.2,39.8,30.2s11.8-40-40.1-40c-40.8,0-35.9,39.2-35.9,39.2S140.6,212.8,171,213Z"/><path class="cls-15" d="M163,276.9s1,8.7,11.1,8.6,7.7-4.9,1.3-6C168.9,278.6,162.3,270.8,163,276.9Z"/><path class="cls-16" d="M165.1,280.1s3.8-.5,5.2.7c0,0,2.7-.4,4.6,3.4C175,284.2,168,284.9,165.1,280.1Z"/><path class="cls-7" d="M150,315.8h0c-1.3,5.4-3.6,12-5.4,19.3-.7,2.8-1.4,5.8-1.9,8.8,0,.1-.1.3-.1.4-.1.8-.3,1.6-.4,2.3a166.63,166.63,0,0,1-22.1-5.7,170.91,170.91,0,0,1-21.2-8.6c1.4-1.9,2.8-3.8,4.3-5.6,9.8-12.1,20.7-21,32.7-23.9,1.2-.3,2.4-.5,3.7-.7a44.05,44.05,0,0,1,5.2-.3c2.5,0,4.1.7,5.1,1.8C151.9,306,151.4,310.2,150,315.8Z"/><path class="cls-7" d="M244.3,335.4c-1.8.8-3.6,1.5-5.4,2.2a174,174,0,0,1-18.9,6.2c-2.9.8-5.9,1.5-8.9,2.1l-4.6.9a128.36,128.36,0,0,0-11.9-28.4h0c-1.3-2.3-2.3-4.1-3-5.5-1-2.2-1.2-3.6,0-4.8l.5-.5c.3-.2.1-.6.1-.9h0c0-.1.1-.2.3-.2a57.56,57.56,0,0,1,7.6.8,69,69,0,0,1,21.7,7.6,67.82,67.82,0,0,1,18.9,15.9C242,332.3,243.1,333.8,244.3,335.4Z"/><path class="cls-17" d="M350,174.8a173.18,173.18,0,0,1-2.6,29.9,153.14,153.14,0,0,1-4.5,19.2,169.81,169.81,0,0,1-12.2,30.6c-1.5,2.8-3,5.7-4.6,8.4a175.32,175.32,0,0,1-81.4,72.2c-.2.1-.3.1-.5.2-1.8.8-3.6,1.5-5.4,2.2a174,174,0,0,1-18.9,6.2c-2.9.8-5.9,1.5-8.9,2.1l-4.6.9a176.34,176.34,0,0,1-28.4,2.8h-3a175.51,175.51,0,0,1-19.3-1.1c-3.2-.4-6.4-.8-9.6-1.3-1-.2-2-.3-3-.5a2.92,2.92,0,0,1-.9-.2,166.63,166.63,0,0,1-22.1-5.7,170.91,170.91,0,0,1-21.2-8.6,176,176,0,0,1-82.4-83.2,160.5,160.5,0,0,1-8.8-22.8c0-.1,0-.1-.1-.2-1-3.4-2-6.8-2.8-10.3A174.69,174.69,0,0,1,0,174.8C0,78.3,78.4,0,175,0S350,78.3,350,174.8Z"/><path class="cls-18" d="M315.44,127.35s4.26-4.54,7-.94,2,20.87-7.11,24.77S315.44,127.35,315.44,127.35Z"/><path class="cls-7" d="M174.6,175.3"/><path class="cls-5" d="M311.3,87.9c-12.2-14-12.9-13.2-38.9-16.6-10.8-1.4-32.6,9-37.1,18.9-16.5,36.9-5,52.2-5,52.2s-1.3.3-1.3-11.3,8.3-4.8,8.3-4.8,3,4.3,5.3,5.8c4.2,2.7,4.1-13.9,5.5-24.5s12.1-5.5,12.1-5.5c34.3,17.2,46.2,7.3,49.4,2.3a1.75,1.75,0,0,1,2.4-.5c1,.8,1.9,2.5,2.4,5.6,2.1,12.9-4.1,25.8,0,24.4s1.6-9.2,4.7-7.8c0,0,4.1-.7,4.4,6.7C323.5,132.7,327.8,106.8,311.3,87.9Z"/></svg>