<?xml version="1.0" encoding="utf-8"?>
<!-- Generator: Adobe Illustrator 25.1.0, SVG Export Plug-In . SVG Version: 6.00 Build 0)  -->
<svg version="1.1" id="Calque_1" xmlns="http://www.w3.org/2000/svg" xmlns:xlink="http://www.w3.org/1999/xlink" x="0px" y="0px"
	 viewBox="0 0 350 350" style="enable-background:new 0 0 350 350;" xml:space="preserve">
<style type="text/css">
	.st0{fill:#BEE2EC;}
	.st1{fill:#141F1D;}
	.st2{fill:#F5AE8C;}
	.st3{fill:#F8C6A5;}
	.st4{fill:#182624;}
	.st5{fill:none;stroke:#182624;stroke-width:0.5;stroke-linecap:round;stroke-miterlimit:10;}
	.st6{fill:#E3572B;}
	.st7{fill:none;stroke:#182624;stroke-width:0.25;stroke-linecap:round;stroke-miterlimit:10;}
	.st8{fill:#F1B50A;}
	.st9{fill:none;stroke:#2B315B;stroke-width:2;stroke-linecap:round;stroke-miterlimit:10;}
	.st10{fill:#1E3C76;}
	.st11{fill:none;stroke:#2B315B;stroke-width:2;stroke-miterlimit:10;}
	.st12{fill:none;stroke:#D5431F;stroke-width:0.5;stroke-miterlimit:10;}
	.st13{fill:#2B315B;}
	.st14{fill:#F5AE8C;stroke:#1D1E1C;stroke-width:0.25;stroke-miterlimit:10;}
	.st15{fill:#F29673;}
	.st16{fill:none;}
</style>
<g id="FAMILLE">
	<path class="st0" d="M350,174.8c0,10.2-0.9,20.2-2.6,29.9c-1.1,6.5-2.6,13-4.5,19.2c-3.1,10.7-7.2,20.9-12.2,30.6
		c-1.5,2.8-3,5.7-4.6,8.4c-18.7,31.9-47.2,57.4-81.4,72.2c-0.2,0.1-0.3,0.1-0.5,0.2c-1.8,0.8-3.6,1.5-5.4,2.2
		c-6.1,2.4-12.5,4.5-18.9,6.2c-2.9,0.8-5.9,1.5-8.9,2.1c-1.5,0.3-3.1,0.6-4.6,0.9c-9.2,1.7-18.7,2.6-28.4,2.8c-0.3,0-0.6,0-1,0
		c-0.7,0-1.3,0-2,0c-6.5,0-13-0.4-19.3-1.1c-3.2-0.4-6.4-0.8-9.6-1.3c-1-0.2-2-0.3-3-0.5c-0.3,0-0.6-0.1-0.9-0.2
		c-7.5-1.4-14.9-3.3-22.1-5.7c-7.3-2.4-14.4-5.3-21.2-8.6c-19.2-9.3-36.4-21.9-50.9-37.2c-12.8-13.5-23.5-29-31.5-46
		c-3.5-7.3-6.4-14.9-8.8-22.8c0-0.1,0-0.1-0.1-0.2c-1-3.4-2-6.8-2.8-10.3C1.7,202.7,0,189,0,174.8C0,78.3,78.4,0,175,0
		S350,78.3,350,174.8z"/>
	<path class="st1" d="M275.6,74.1c0,0-12.3-27.6-37.7-8.5c-17.5,13.2-8.5,25.7-21.4,25.7s-25.6,13.4-24.8,27.1s0.9,24.4-6.8,34.4
		s-14.5,94.8,55.6,64.1c0,0,40.2-11.2,1.7-86.9c0,0-2.1-32.5,7.9-34.4c1.6-3.8,3.8-8.2,6.8-12.8C262.6,74.4,267.7,74.3,275.6,74.1z"
		/>
	<g id="COU_4_">
		<path class="st2" d="M257.3,156.5l-3.2,45.1c0,0,18.9,16.3,45.6,0.8l-0.3-33.8C299.3,168.5,267.5,138.6,257.3,156.5z"/>
	</g>
	<path class="st3" d="M317,129.1c0,0-1.2-21.1-5.4-27.2c-15.9-22.8-68.4-26.8-72.8,20.4c0,0-0.9-4.3-1.4,3.9c0,0-8.4-6.7-8.3,4.8
		c0,10.4,1.5,14.8,9.7,22.1c0,0,13.7,30.6,46.6,28.9c12.6-0.6,22.3-13.3,26.8-25.5l0,0C317,143.1,317,129.1,317,129.1z"/>
	
		<ellipse transform="matrix(0.1602 -0.9871 0.9871 0.1602 69.8147 370.2573)" class="st2" cx="252.5" cy="144.1" rx="7.8" ry="7.8"/>
	<ellipse class="st2" cx="303.5" cy="144.1" rx="7.8" ry="7.8"/>
	<circle class="st4" cx="267.7" cy="132.1" r="1.5"/>
	<circle class="st4" cx="293.2" cy="131.3" r="1.5"/>
	<path class="st2" d="M276.9,145c0,0,6.2,2.2,9-2.6C285.9,142.4,283.9,150.5,276.9,145z"/>
	<path class="st5" d="M269.9,117.1c0,0-7.9-4.1-13.2,2.6"/>
	<path class="st5" d="M291.7,118c0,0,7.9-4.1,13.2,2.6"/>
	<path class="st6" d="M235.3,90.2c2.5,1.9,3,2.2,5.5,4.1c2.2-2.5,5.6-5.8,10.3-9c3.8-2.6,7-4.1,9.5-5.3c3.8-1.8,9.1-3.9,15.9-5.5
		c-2.6-3.4-4.4-7-7.8-10.1c-4.3,0.7-10.7,2.3-17.5,6.3C241.2,76.6,238.2,84.7,235.3,90.2z"/>
	<ellipse class="st6" cx="235.3" cy="147.4" rx="7" ry="7"/>
	<path class="st7" d="M285.3,159.3c-0.6,0.6-3,2.5-6.3,2c-3.7-0.6-5.8-3.8-6.2-4.5"/>
	<path class="st2" d="M247.9,109.4c0,0,2-10.5,10.4-6.4c5.3,2.6,37.5,19.4,49.6,5.8c0,0,1.7-1.7,2.3-3c0.6-1.3,3.5,0.6,3.8,2.6
		c0,0,1.6-1.4,0.8-3.8s-7.5-4.3-7.5-4.3s-6.9,9.9-23,5.7C268.3,101.8,249,90.7,247.9,109.4z"/>
	<path class="st4" d="M311.3,87.9c-12.2-14-12.9-13.2-38.9-16.6c-10.8-1.4-32.6,9-37.1,18.9c-16.5,36.9-5,52.2-5,52.2
		s-1.3,0.3-1.3-11.3s8.3-4.8,8.3-4.8s3,4.3,5.3,5.8c4.2,2.7,4.1-13.9,5.5-24.5s12.1-5.5,12.1-5.5c34.3,17.2,46.2,7.3,49.4,2.3
		c0.5-0.8,1.6-1,2.4-0.5c1,0.8,1.9,2.5,2.4,5.6c2.1,12.9-4.1,25.8,0,24.4c4.1-1.5,1.6-9.2,4.7-7.8c0,0,4.1-0.7,4.4,6.7
		C323.5,132.7,327.8,106.8,311.3,87.9z"/>
	<path class="st8" d="M206.4,346.9c-9.2,1.7-18.7,2.6-28.4,2.8c0.3-8.8,0.9-17.8,1.7-26.9c0.3-2.7,0.5-5.5,0.8-8.2
		c0.2-1.7,0.4-3.4,0.6-5.1c0.4-3.4,0.9-6.8,1.4-10.2c0.8-5.5,1.8-11.1,3-16.5c0.6-3.1,1.3-6.1,2.1-9.1c0.4-1.6,0.8-3.3,1.3-4.9
		c0.8-2.9,1.6-5.8,2.4-8.6l0,0c2.7-8.9,6-17.3,9.8-25.1c0.8-1.6,1.5-3.1,2.4-4.6l0,0c0.5-0.9,1-1.8,1.5-2.6c0.8-1.5,1.7-2.9,2.6-4.3
		c0.1-0.1,0.1-0.2,0.2-0.4c0.5-0.8,1-1.6,1.5-2.3s0.9-1.4,1.4-2c8.6-12.2,19.3-21.6,32.7-27.1c3-1.2,6-2.2,9.2-3
		c0.1,0,0.3-0.1,0.4-0.1c0.8-0.2,1.4-0.2,2-0.1c1.3,0.1,2.3,0.8,3.6,1.5c2.7,1.6,6.7,3.8,17.6,3.8c22.5,0,19.3-4.4,23.3-3.8
		c0.7,0.1,1.6,0.3,2.9,0.8c0.1,0,0.2,0.1,0.2,0.1c17,5.8,30.2,17.7,40.4,33.2c-3.1,10.7-7.2,20.9-12.2,30.6c-1.5,2.8-3,5.7-4.6,8.4
		c-18.7,31.9-47.2,57.4-81.4,72.2c0,0.3,0,0.6-0.1,0.8c-0.1-0.2-0.3-0.4-0.4-0.6c-1.8,0.8-3.6,1.5-5.4,2.2
		c-6.1,2.4-12.5,4.5-18.9,6.2c-2.9,0.8-5.9,1.5-8.9,2.1C209.5,346.3,208,346.6,206.4,346.9z"/>
	<path class="st8" d="M347.4,204.8c-1.1,6.5-2.6,13-4.5,19.2c-3.1,10.7-7.2,20.9-12.2,30.6c-1.5,2.8-3,5.7-4.6,8.4
		c-7.2-37.2-16-66.3-26.6-72c-0.1,0-0.2-0.1-0.2-0.1s0.1,0,0.2,0c0.4,0,1.5,0,3.1,0C310.1,191,329,192.8,347.4,204.8z"/>
	<path class="st8" d="M267.7,281.3c-9.3,7.7-16.5,21.2-22,35.4c-1.8,4.7-3.5,9.6-4.9,14.2c-0.3,1-0.6,2-0.9,3
		c-0.4,1.2-0.7,2.5-1,3.7c-6.1,2.4-12.5,4.5-18.9,6.2c-2.9,0.8-5.9,1.5-8.9,2.1c-1.5,0.3-3.1,0.6-4.6,0.9
		c-9.2,1.7-18.7,2.6-28.4,2.8c-0.3,0-0.6,0-1,0c-0.7,0-1.3,0-2,0c-6.5,0-13-0.4-19.3-1.1c0-8.8,0.3-18.3,0.9-28.1
		c0.1-2.1,0.3-4.2,0.4-6.4c0.2-2.5,0.4-4.9,0.6-7.4c0.3-3.6,0.7-7.3,1.2-11c0.8-6.9,1.9-13.7,3.2-20.5c0.2-1.2,0.5-2.3,0.7-3.5
		c2-9.4,4.4-18.6,7.5-27.1c1.2-3.2,2.4-6.4,3.7-9.5c0.5-1,0.9-2.1,1.4-3.1c2.4-5.1,6.1-10.5,10.7-15.8c0.3-0.4,0.6-0.7,1-1.1
		c0.9-1,1.8-2,2.8-2.9c1.5-1.5,3.1-3,4.8-4.5c0.2-0.1,0.3-0.3,0.4-0.4c1.2-1.1,2.5-2.1,3.8-3.1c12.6-9.9,28.2-17.4,43.6-17.7
		c3.2-0.1,6.4,0.2,9.5,0.8c0.4,0.1,0.8,0.5,1.1,1.1c0.7,1.3,1.1,3.8,1.5,7.2l0,0c0.2,1.9,0.4,4,0.6,6.4c0,0.4,0,0.7,0.1,1.1l0,0
		C256.5,224.5,257.1,261.6,267.7,281.3z"/>
	<path class="st9" d="M244.8,335.2c0.4-6.4,0.7-12.6,1-18.6c2.3-49.9,1.5-82.4,0.1-102.3c-0.8-11.1-1.8-18.3-2.5-22.6
		c-0.6-3.3-1-4.9-1-5l0,0"/>
	<g id="COU_11_">
		<path class="st2" d="M52.8,155.4l-3.5,48.5c0,0,20.4,17.5,49,0.8L98,168.4C98,168.4,63.8,136.3,52.8,155.4z"/>
	</g>
	<path class="st10" d="M177,349.7c-0.7,0-1.3,0-2,0c-6.5,0-13-0.4-19.3-1.1c-3.2-0.4-6.4-0.8-9.6-1.3c-1-0.2-2-0.3-3-0.5
		c-0.3,0-0.6-0.1-0.9-0.2c-7.5-1.4-14.9-3.3-22.1-5.7c-7.3-2.4-14.4-5.3-21.2-8.6C79.7,323,62.5,310.4,48,295.1
		c-12.8-13.5-23.5-29-31.5-46c-3.5-7.3-6.4-14.9-8.8-22.8c-0.2,0.2-0.4,0.4-0.6,0.5c0.2-0.2,0.3-0.5,0.5-0.7
		c9.2-12.4,20.4-21.9,34-27.2c2.2-0.9,4.5-1.6,6.8-2.3l0,0c0.5-0.1,0.9-0.2,1.3-0.3c5.6-0.6,5.2,6.3,24.1,6.3
		c22.6,0,21.1-4.5,24.3-4.6c0.8,0,1.9,0.3,3.8,1c0.2,0.1,0.4,0.1,0.6,0.2c10.5,4,19.7,10.4,27.6,18.6c1.8,1.8,3.4,3.7,5.1,5.7
		c0.4,0.5,0.8,0.9,1.2,1.4c1.2,1.5,2.4,3.1,3.5,4.6c0.4,0.6,0.8,1.2,1.2,1.7c1.7,2.4,3.2,4.9,4.8,7.5c5.8,9.9,10.7,21,14.8,33
		c0.4,1.1,0.8,2.2,1.1,3.3c2.5,7.6,4.7,15.6,6.6,23.8c0.8,3.5,1.6,7.1,2.3,10.7c0.2,1.2,0.5,2.4,0.7,3.6c0.7,3.5,1.3,6.9,1.9,10.4
		C174.9,332.3,176.1,341,177,349.7z"/>
	<path class="st3" d="M117,126.1c0,0-1.3-22.7-5.8-29.2c-17.1-24.5-73.5-28.8-78.3,22c0,0-0.9-4.7-1.5,4.2c0,0-9-7.2-9,5.1
		c0,11.2,1.6,15.9,10.5,23.8c0,0,14.8,32.9,50.1,31.1c13.5-0.7,24-14.4,28.8-27.4l0,0C117,141.1,117,126.1,117,126.1z"/>
	<path class="st3" d="M115.3,125.2c0,0,4.5-4.7,7.3-1s2.1,21.8-7.5,25.9C105.6,154.2,115.3,125.2,115.3,125.2z"/>
	<ellipse class="st2" cx="47.6" cy="142.2" rx="8.3" ry="8.3"/>
	<ellipse class="st2" cx="102.5" cy="142.2" rx="8.3" ry="8.3"/>
	<circle class="st4" cx="61.8" cy="129.2" r="1.6"/>
	<circle class="st4" cx="93.6" cy="128.4" r="1.6"/>
	<path class="st2" d="M73.9,143.1c0,0,6.7,2.3,9.7-2.8C83.6,140.3,81.4,149,73.9,143.1z"/>
	<path class="st5" d="M66.4,113.2c0,0-8.5-4.4-14.2,2.8"/>
	<path class="st5" d="M89.9,114.1c0,0,8.5-4.4,14.2,2.8"/>
	<path class="st6" d="M102.1,199"/>
	<path class="st10" d="M48.1,295.2c-12.8-13.5-23.5-29-31.5-46c-3.5-7.3-6.4-14.9-8.8-22.8c9.6-8.6,19.7-16,27.5-21.2
		c7.5-5.1,12.8-8.2,13.3-8.4l0,0l0,0C48.6,197.6,51.3,246.6,48.1,295.2z"/>
	<path class="st10" d="M41.7,199c-2.1,1.1-4.3,3.2-6.5,6.2c-6.2,8.5-12.5,24.1-18.7,44c-3.5-7.3-6.4-14.9-8.8-22.8
		c-0.2,0.2-0.4,0.4-0.6,0.5c0.2-0.2,0.3-0.5,0.5-0.7c-1-3.4-2-6.8-2.8-10.3C25.8,202.2,41.7,199,41.7,199z"/>
	<path class="st10" d="M211,346c-1.5,0.3-3.1,0.6-4.6,0.9c-9.2,1.7-18.7,2.6-28.4,2.8c-0.3,0-0.6,0-1,0c-0.7,0-1.3,0-2,0
		c-6.5,0-13-0.4-19.3-1.1c-3.2-0.4-6.4-0.8-9.6-1.3c-1-0.2-2-0.3-3-0.5c-0.1-1-0.3-1.9-0.4-2.9c-1.2-7.7-2.4-15.4-3.6-23
		c-0.7-4.2-1.4-8.3-2.1-12.4c-0.3-1.9-0.7-3.7-1-5.6c-4.7-26.1-9.9-50.2-15.5-68.6l0,0c-5.5-18.1-11.5-30.9-17.7-34.9
		c-0.2-0.1-0.4-0.3-0.6-0.4c0,0,14.1,2.6,31.9,13.4c2,1.2,4.1,2.5,6.1,4c0.2,0.1,0.3,0.2,0.5,0.3c2.1,1.5,4.3,3,6.5,4.8
		c0.3,0.3,0.6,0.5,1,0.8c4.7,3.8,9.5,8.1,14.1,13.1c2.7,2.9,5.4,6,8,9.4c6.3,8.2,12.3,17.7,17.4,28.9c0.9,2,1.8,4.1,2.7,6.2
		c1.5,3.6,2.9,7.4,4.4,11.3c1.9,5.1,3.7,10.5,5.5,16.2c0.6,1.8,1.1,3.6,1.7,5.4c0.8,2.6,1.6,5.2,2.4,7.9
		C206.6,328.8,208.9,337.3,211,346z"/>
	<path class="st11" d="M136.2,285.3c1.2,5.2,2.4,10.8,3.4,16.9c0.2,1.1,0.4,2.3,0.6,3.4c0.7,4.3,1.5,8.8,2.2,13.5
		c0.8,5.2,1.5,10.5,2.2,16c0.5,4,1,8.1,1.5,12.2"/>
	<path class="st7" d="M80.3,158.8c-0.7,0.6-3.1,2.6-6.5,2.1c-3.8-0.6-6-3.9-6.4-4.6"/>
	<ellipse class="st12" cx="60.6" cy="128.6" rx="11.3" ry="11.3"/>
	<ellipse class="st12" cx="93" cy="128" rx="11.3" ry="11.3"/>
	<path class="st12" d="M72,128.6c0,0,4.8-4.9,9.7-0.6"/>
	<path class="st13" d="M119.4,88.9c-6.5-9.6-21.1-12.2-45.6-15.3c-31.5-4-42.9,17.6-42.9,17.6c-9.6,2.6-5.9,15.3-2,30.3l0,0
		c2,7.8,4.1,16.2,4.4,24.1c-0.1,2.8,0.1,5.6,0.5,8.2l0,0c1.8,10.4,7.7,19.1,17.3,24.7c7.6,4.4,17.4,6.9,29.2,6.7
		c7.4-0.1,13.3-1.8,17.8-4.4c12-7,15.2-20.7,16-30.4c0.1-1.2,0.2-2.3,0.2-3.3l0,0c0-0.5,0-1,0-1.5l0,0c0.1-2.1,0.9-8.1,1.5-10.4
		c0.3-1.2,0.6-2.5,0.9-4l0,0c0.5-2.5,1.1-5.2,1.5-8.2c0.1-0.8,0.3-1.6,0.4-2.4c0.8-5.6,1.5-11.7,1.7-17.4c0.1-1.6,0.2-3.2,0.5-4.8
		C121.6,94.7,120.5,90.5,119.4,88.9z M112.2,136L112.2,136L112.2,136c-0.2,1.4-0.5,2.8-0.8,4.2l0,0l0,0l0,0c-0.2,0.7-0.4,1.4-0.5,2
		v0.1l0,0l0,0c-0.8,2.6-1.6,4.7-1.6,4.7l0,0l0,0c-0.6,1.6-1.2,3.3-1.8,5c-1.8,5.2-7.7,9.1-14.6,11.8c-6.5,2.5-13.7,3.9-19,4.2
		c-5.9,0.2-14.4-3.6-21.4-8.1c-5.4-3.4-9.9-7.1-11.8-9.6c-4.4-5.6-3-20.3-3-20.5c0.2-1.9,0.5-3.7,0.8-5.5
		c3-17.1,10.4-25.5,18.9-21.7c14.8,6.7,32.2,6.6,41.1,5.7c3.9-0.4,12.9-6.1,14-2c0.6,2.3,2.1,9.6,1.9,15.4c0,0.6-0.1,1.3-0.2,1.8
		C113.5,129.1,112.7,132.4,112.2,136z"/>
	<path class="st12" d="M104.3,128c0,0,6.1-4.5,14-5"/>
	<path class="st12" d="M31.4,123c0,0,9.9,1.3,17.9,5.4"/>
	<path class="st4" d="M120.6,331.1c-10.6,1.2-20.9-4.3-25.9-13.8S91,296.1,98,288c0,0,18.4-7.5,16.9-18.6c-2-14.8-3.3-27.7,3.8-33.4
		c4.2-3.4,9.1-12.9,10.8-16.4c10-20.2,27.9-21.9,45.6-21.8c5.6,0,14.3,0.2,23,6c12.3,8.2,15,21.8,15,21.8c2.1,4.4,4.4,10.3,5.7,17.6
		c2.2,12.3,0.5,22.6-1,28.8c9.5,7.7,14.3,18.7,12.3,28.8c-1.5,7.4-6.7,14.7-14.2,18.1c-15.7,7.2-28.6-8.7-55.5-5.3
		c-6.2,0.8-11.2,2.3-14.4,3.5C137.5,321.8,129,326.4,120.6,331.1z"/>
	<g id="COU_10_">
		<path class="st2" d="M153.8,276.9l-2.9,40.2c0,0,16.9,14.5,40.7,0.7l-0.3-30.2C191.4,287.7,163,261,153.8,276.9z"/>
	</g>
	<path class="st3" d="M207.1,252.5c0,0-1.1-18.9-4.8-24.2c-14.2-20.3-61-23.9-65,18.2c0,0-0.8-3.9-1.2,3.5c0,0-7.5-5.9-7.4,4.3
		c0,9.3,1.3,13.2,8.7,19.7c0,0,12.3,27.3,41.6,25.8c11.2-0.6,19.9-11.9,23.9-22.8l0,0C207.2,265,207.1,252.5,207.1,252.5z"/>
	<path class="st3" d="M205.7,251.8c0,0,3.7-3.9,6.1-0.8c2.4,3.1,1.7,18.1-6.2,21.5C197.6,275.8,205.7,251.8,205.7,251.8z"/>
	<ellipse class="st2" cx="149.6" cy="265.9" rx="6.9" ry="6.9"/>
	<ellipse class="st2" cx="195.1" cy="265.9" rx="6.9" ry="6.9"/>
	<circle class="st4" cx="163.2" cy="255.1" r="1.3"/>
	<circle class="st4" cx="185.9" cy="254.4" r="1.3"/>
	<path class="st2" d="M171.4,265.6c0,0,4.9,3.3,8.4-0.1C179.8,265.5,176.2,272,171.4,265.6z"/>
	<path class="st5" d="M165.1,241.8c0,0-7.1-3.7-11.8,2.3"/>
	<path class="st5" d="M184.6,242.6c0,0,7.1-3.7,11.8,2.3"/>
	<path class="st6" d="M194.8,313.1"/>
	<path class="st4" d="M202,215.7c-10.9-12.5-11.5-11.8-34.7-14.8c-9.6-1.3-27.4,12.8-31.4,21.6c-14.8,32.9-6.2,41.8-6.2,41.8
		s-1.2,0.3-1.1-10.1c0-10.4,7.4-4.3,7.4-4.3s2.9,3.1,5.3,3.1c6.7,0,5.2-3.7,4.5-17.7l58.9-0.4c1.8,11.5-3.1,24.1,0,21.7
		c1.4-1,0.9-6.6,4.2-7c0,0,3.7-0.6,3.9,6C212.9,255.7,216.8,232.6,202,215.7z"/>
	<path class="st6" d="M219.9,343.9c-2.9,0.8-5.9,1.5-8.9,2.1c-1.5,0.3-3.1,0.6-4.6,0.9c-9.2,1.7-18.7,2.6-28.4,2.8c-0.3,0-0.6,0-1,0
		c-0.7,0-1.3,0-2,0c-6.5,0-13-0.4-19.3-1.1c-3.2-0.4-6.4-0.8-9.6-1.3c-1-0.2-2-0.3-3-0.5c-0.3,0-0.6-0.1-0.9-0.2
		c-7.5-1.4-14.9-3.3-22.1-5.7c1.4-4.3,2.9-8.4,4.5-12.1l0,0c3.6-8.6,7.7-15.6,12.3-20.3c1.1-1.1,2.1-2,3.3-2.9
		c1.3-1,2.7-1.8,4.1-2.4c1.5-0.7,3.3-0.3,5.6,0.5c0.6,0.2,1.3,0.5,2,0.8c1.7,0.7,3.6,1.5,5.7,2.3c3.7,1.4,8.1,2.7,13.3,3
		c0.7,0,1.4,0.1,2.1,0.1c3.4,0,6-0.1,8.1-0.4c9-0.9,7.8-3.3,10.4-2.8c0.2,0,0.4,0.1,0.7,0.2l0,0c0.4,0.1,0.9,0.3,1.4,0.5
		c2.9,1.1,5.6,3,8.2,5.5c2.3,2.2,4.5,4.9,6.6,8C212.7,327,216.5,334.9,219.9,343.9z"/>
	<path class="st8" d="M171,213c38.2,0.3,39.8,30.2,39.8,30.2s11.8-40-40.1-40c-40.8,0-35.9,39.2-35.9,39.2S140.6,212.8,171,213z"/>
	<path class="st14" d="M163,276.9c0,0,1,8.7,11.1,8.6c10.1-0.2,7.7-4.9,1.3-6C168.9,278.6,162.3,270.8,163,276.9z"/>
	<path class="st15" d="M165.1,280.1c0,0,3.8-0.5,5.2,0.7c0,0,2.7-0.4,4.6,3.4C175,284.2,168,284.9,165.1,280.1z"/>
	<path class="st6" d="M150,315.8L150,315.8c-1.3,5.4-3.6,12-5.4,19.3c-0.7,2.8-1.4,5.8-1.9,8.8c0,0.1-0.1,0.3-0.1,0.4
		c-0.1,0.8-0.3,1.6-0.4,2.3c-7.5-1.4-14.9-3.3-22.1-5.7c-7.3-2.4-14.4-5.3-21.2-8.6c1.4-1.9,2.8-3.8,4.3-5.6
		c9.8-12.1,20.7-21,32.7-23.9c1.2-0.3,2.4-0.5,3.7-0.7c1.7-0.2,3.4-0.3,5.2-0.3c2.5,0,4.1,0.7,5.1,1.8
		C151.9,306,151.4,310.2,150,315.8z"/>
	<path class="st6" d="M244.3,335.4c-1.8,0.8-3.6,1.5-5.4,2.2c-6.1,2.4-12.5,4.5-18.9,6.2c-2.9,0.8-5.9,1.5-8.9,2.1
		c-1.5,0.3-3.1,0.6-4.6,0.9c-4.1-14-8.7-22.7-11.9-28.4l0,0c-1.3-2.3-2.3-4.1-3-5.5c-1-2.2-1.2-3.6,0-4.8c0.2-0.2,0.3-0.3,0.5-0.5
		c0.3-0.2,0.1-0.6,0.1-0.9l0,0c0-0.1,0.1-0.2,0.3-0.2c1.7,0.1,4.3,0.2,7.6,0.8c5.8,1,13.6,3.1,21.7,7.6c6.4,3.6,12.9,8.7,18.9,15.9
		C242,332.3,243.1,333.8,244.3,335.4z"/>
	<path class="st16" d="M350,174.8c0,10.2-0.9,20.2-2.6,29.9c-1.1,6.5-2.6,13-4.5,19.2c-3.1,10.7-7.2,20.9-12.2,30.6
		c-1.5,2.8-3,5.7-4.6,8.4c-18.7,31.9-47.2,57.4-81.4,72.2c-0.2,0.1-0.3,0.1-0.5,0.2c-1.8,0.8-3.6,1.5-5.4,2.2
		c-6.1,2.4-12.5,4.5-18.9,6.2c-2.9,0.8-5.9,1.5-8.9,2.1c-1.5,0.3-3.1,0.6-4.6,0.9c-9.2,1.7-18.7,2.6-28.4,2.8c-0.3,0-0.6,0-1,0
		c-0.7,0-1.3,0-2,0c-6.5,0-13-0.4-19.3-1.1c-3.2-0.4-6.4-0.8-9.6-1.3c-1-0.2-2-0.3-3-0.5c-0.3,0-0.6-0.1-0.9-0.2
		c-7.5-1.4-14.9-3.3-22.1-5.7c-7.3-2.4-14.4-5.3-21.2-8.6c-19.2-9.3-36.4-21.9-50.9-37.2c-12.8-13.5-23.5-29-31.5-46
		c-3.5-7.3-6.4-14.9-8.8-22.8c0-0.1,0-0.1-0.1-0.2c-1-3.4-2-6.8-2.8-10.3C1.7,202.7,0,189,0,174.8C0,78.3,78.4,0,175,0
		S350,78.3,350,174.8z"/>
</g>
<path class="st6" d="M174.6,175.3"/>
</svg>
