<svg width="1440" height="800" viewBox="0 0 1440 800" fill="none" xmlns="http://www.w3.org/2000/svg">
<path d="M138.5 106.4C130.4 131.5 106.4 136.7 85.1 122.7C69.9 112.6 58.5 115.2 53.1 117.4C48.1 119.5 43.1 121.1 37.7 122C30 123.2 22.5 123.2 15.3 122.3C10.2 121.7 5.30001 120.8 0.600006 119.6V17.7C6.10001 19.2 11.5 22.7 14.8 27.1C20.7 35.1 33.9 33.4 50.8 27.9C62.4 24.0999 79.9 31.6 86.1 42.9C89.9 49.9 87.1 55.7999 92.8 61.5999C97.2 66 102 65.7999 107.7 67.5C124 72.0999 143.5 90.7 138.5 106.4Z" fill="#E4582C"/>
<path d="M111.4 100.1C111.4 100.1 53.4 67.1 -7.5 66.8" stroke="#FEDCA4" stroke-miterlimit="10" stroke-linecap="round"/>
<path d="M21.7 153.9C19.3 164.6 11.1 172.9 0.600006 176V103.5C6.10001 109.1 11.3 115.4 15.3 122.3C21.1 132.2 24.2 143 21.7 153.9Z" fill="#EEAD1E"/>
<path d="M1396.2 766.4C1396.2 766.4 1425.1 734 1422.8 695.6C1422.5 690.7 1421.4 685.9 1419.9 681.2C1418.3 676.1 1416.9 665.5 1427.3 652.5C1441.8 634.2 1439 612 1416.8 602.5C1402.9 596.6 1384.3 612.9 1378.8 627.2C1376.9 632.3 1376.6 636.7 1372.2 640.3C1366.4 645 1361.2 642 1354.6 644.9C1343.7 649.6 1335.6 665 1338 675.9C1341.7 691.8 1342.1 704 1334.3 708.7C1326.7 713.4 1321.4 724.2 1323.8 731.6L1396.2 766.4Z" fill="#E4582C"/>
<path d="M1408.8 626.7C1408.8 626.7 1374 676.9 1368.8 732.4" stroke="#FEDCA4" stroke-miterlimit="10" stroke-linecap="round"/>
<path d="M1440.6 711.3V769.4C1433 770.8 1423.5 771.4 1411.8 770.7L1378.7 753C1378.7 753 1391.6 735.6 1409.1 723.3C1418.8 716.5 1429.7 711.3 1440.6 711.3Z" fill="#EEAD1E"/>
<path d="M788 645.5C788 645.5 745.7 646.7 715.8 687.9" stroke="#FEDCA4" stroke-miterlimit="10" stroke-linecap="round"/>
<path d="M1440.5 800.3H1103.9C1114.9 784.5 1134.6 774 1157.1 774C1163 774 1168.7 774.7 1174.1 776.1C1179.1 777.3 1184.2 774.4 1185.6 769.4C1192.6 745.6 1233.5 741.1 1262.5 741.1C1294.9 741.1 1329.3 694.5 1366.3 726.3C1368.9 728.5 1372.7 728.8 1375.8 727.5C1383.3 724.4 1391.7 722.6 1400.6 722.6C1403.5 722.6 1406.4 722.8 1409.3 723.2C1421.4 724.8 1432.3 729.7 1440.7 736.8L1440.5 800.3Z" fill="#BFE3EE"/>
<path d="M86.2 675.8L2.40001 710.7C2.40001 710.7 1.80001 710.1 0.700012 708.9V546.8C13.4 552 21.1 565.4 22.6 571.3C24.8 580.2 41.7 587.6 50.6 587.6C59.5 587.6 74 604.1 69.9 619.9C65.7 635.8 65.2 648.1 74.1 652.7C80.4 656 85.3 662.3 86.6 668.4C87.1 671.1 87 673.6 86.2 675.8Z" fill="#1D2546"/>
<path d="M22.5 695.1L0.600006 706.8V671.4C6.50001 676.7 11.5 682.1 15.3 686.3C19.9 691.5 22.5 695.1 22.5 695.1Z" fill="#EEAD1E"/>
<path d="M179 748C179 770.4 160.8 800.5 138.4 800.5C137.2 800.5 136 800.5 134.7 800.3H30.8C30.6 800.3 30.6 800.5 30.5 800.5H0.600006V702.4C2.10001 702.2 3.60001 702.1 5.10001 702.1C7.30001 696.2 10.8 690.8 15.2 686.3C20.4 681.1 26.8 677.3 34 675.5C36.8 674.8 39.7 674.4 42.8 674.4C50.2 674.4 57 677.8 63 681.4C68.5 674.3 76.9 669.4 86.5 668.5C87.5 668.4 88.5 668.3 89.6 668.3C108.1 668.3 123.3 683.4 123.3 702C123.3 705.1 122.9 708.1 122.1 710.9C127.1 708.7 132.6 707.5 138.6 707.5C160.9 707.4 179 725.5 179 748Z" fill="#BFE3EE"/>
<path d="M34.3 676.7C34.3 676.3 34.2 675.9 34.2 675.5C30 641 12.9 608.7 0.600006 589.4" stroke="#FEDCA4" stroke-miterlimit="10" stroke-linecap="round"/>
<path d="M1344.1 40C1344.9 40.4 1345.9 40.2 1346.3 39.4C1347 38.2 1347.7 37 1348.5 35.8C1349 35.1 1348.7 34.1 1348 33.6C1347.8 33.5 1347.7 33.4 1347.5 33.4C1346.8 33.2 1346.1 33.6 1345.7 34.1C1345 35.4 1344.3 36.5 1343.5 37.8C1343.1 38.6 1343.4 39.6 1344.1 40Z" fill="#BEE3EE"/>
<path d="M1373.3 7.89996C1374.3 6.99996 1375.4 6.19996 1376.5 5.29996C1377.2 4.69996 1377.3 3.79996 1376.8 3.09996C1376.6 2.79996 1376.2 2.59996 1375.9 2.59996C1375.4 2.49996 1374.9 2.59996 1374.7 2.79996C1373.6 3.59996 1372.4 4.59996 1371.3 5.39996C1370.5 5.89996 1370.5 6.89996 1371 7.59996C1371.6 8.39996 1372.6 8.39996 1373.3 7.89996Z" fill="#BEE3EE"/>
<path d="M1366.9 13.5C1368 12.5 1369 11.6 1370 10.7C1370.7 10.1 1370.7 9.09996 1370.2 8.49996C1370 8.19996 1369.7 8.09996 1369.4 7.99996C1368.9 7.89996 1368.4 7.99996 1367.9 8.29996C1366.8 9.29996 1365.8 10.2 1364.8 11.2C1364.1 11.8 1364.2 12.8 1364.7 13.5C1365.3 14.1 1366.2 14 1366.9 13.5Z" fill="#BEE3EE"/>
<path d="M1355.6 25.8C1356.4 24.7 1357.3 23.6 1358.2 22.5C1358.8 21.8 1358.7 20.9 1358 20.3C1357.8 20.2 1357.6 20 1357.4 19.9C1356.8 19.7 1356.3 19.9 1355.8 20.4C1354.9 21.5 1354 22.6 1353.1 23.7C1352.5 24.4 1352.7 25.3 1353.3 25.9C1354.1 26.6 1355.1 26.4 1355.6 25.8Z" fill="#BEE3EE"/>
<path d="M1348.5 32.9C1349.2 33.4 1350.2 33.1 1350.7 32.4C1351.5 31.3 1352.3 30.1 1353.1 29C1353.6 28.2 1353.5 27.2 1352.8 26.7C1352.6 26.6 1352.4 26.5 1352.2 26.5C1351.6 26.3 1350.9 26.6 1350.5 27.2C1349.7 28.3 1348.9 29.6 1348 30.7C1347.6 31.4 1347.8 32.4 1348.5 32.9Z" fill="#BEE3EE"/>
<path d="M1361.1 19.4C1362 18.4 1363 17.4 1363.9 16.4C1364.5 15.7 1364.5 14.7 1363.9 14.1C1363.6 13.9 1363.5 13.8 1363.2 13.7C1362.6 13.5 1362.1 13.7 1361.7 14.2C1360.7 15.2 1359.7 16.2 1358.7 17.3C1358.1 17.9 1358.2 18.9 1358.9 19.5C1359.5 20.1 1360.5 20.1 1361.1 19.4Z" fill="#BEE3EE"/>
<path d="M1377.6 2.49998C1378.1 3.09998 1379 3.39998 1379.8 2.89998C1380.9 2.19998 1382.2 1.29998 1383.3 0.599976C1383.5 0.499976 1383.7 0.299976 1383.8 0.0999756C1382 0.0999756 1380.2 0.0999756 1378.4 0.0999756C1378.3 0.199976 1378.1 0.299976 1378 0.399976C1377.3 0.799976 1377 1.69998 1377.6 2.49998Z" fill="#BEE3EE"/>
<path d="M1340.3 47.5C1341.1 47.9 1342 47.6 1342.4 46.8C1343 45.5 1343.7 44.2 1344.3 43.1C1344.7 42.4 1344.3 41.4 1343.6 41C1343.4 40.9 1343.3 40.9 1343.2 40.9C1342.5 40.7 1341.7 40.9 1341.5 41.6C1340.9 42.9 1340.2 44.2 1339.6 45.4C1339.2 46.2 1339.5 47.1 1340.3 47.5Z" fill="#BEE3EE"/>
<path d="M1327 129.9C1327.8 129.8 1328.6 129.1 1328.5 128.2C1328.4 126.8 1328.3 125.4 1328.2 124C1328.2 123.3 1327.7 122.7 1327 122.6C1326.8 122.5 1326.7 122.5 1326.5 122.5C1325.7 122.6 1324.9 123.3 1325 124.2C1325 125.7 1325.1 127.1 1325.2 128.5C1325.4 129.3 1326.2 130 1327 129.9Z" fill="#BEE3EE"/>
<path d="M1326.4 121.5C1327.3 121.4 1328 120.7 1328 119.8C1327.9 118.4 1328 117 1327.9 115.7C1327.9 115 1327.4 114.3 1326.7 114.2C1326.6 114.2 1326.4 114.1 1326.1 114.1C1325.3 114.1 1324.6 114.8 1324.6 115.7C1324.6 117.2 1324.7 118.5 1324.7 120C1324.8 120.9 1325.6 121.5 1326.4 121.5Z" fill="#BEE3EE"/>
<path d="M1330.9 155C1331.8 154.8 1332.3 154 1332.1 153.1C1331.8 151.7 1331.6 150.4 1331.3 149C1331.3 148.4 1330.8 147.9 1330.2 147.8C1329.9 147.7 1329.7 147.7 1329.6 147.8C1328.7 148 1328.1 148.8 1328.3 149.6C1328.6 150.9 1328.8 152.3 1329.1 153.7C1329.2 154.6 1330 155.1 1330.9 155Z" fill="#BEE3EE"/>
<path d="M1332.9 163.2C1333.7 163 1334.2 162.2 1334 161.3C1333.6 160 1333.3 158.5 1333 157.2C1332.9 156.5 1332.5 156.1 1331.9 156C1331.6 155.9 1331.4 155.9 1331.3 156C1330.4 156.2 1329.9 157 1330.1 157.9C1330.5 159.3 1330.7 160.7 1331.1 162.1C1331.2 162.9 1332 163.4 1332.9 163.2Z" fill="#BEE3EE"/>
<path d="M1329.2 146.8C1330.1 146.6 1330.7 145.8 1330.5 145C1330.2 143.6 1330 142.2 1329.8 140.8C1329.7 140.1 1329.2 139.6 1328.6 139.5C1328.4 139.5 1328.2 139.4 1328.1 139.6C1327.1 139.8 1326.6 140.6 1326.7 141.4C1327 142.8 1327.1 144.2 1327.4 145.6C1327.6 146.4 1328.4 147 1329.2 146.8Z" fill="#BEE3EE"/>
<path d="M1326.3 113C1327.2 113 1327.9 112.3 1327.9 111.5C1327.9 110 1327.9 108.7 1328 107.3C1328.1 106.6 1327.5 105.9 1326.8 105.8C1326.7 105.8 1326.6 105.8 1326.4 105.7C1325.5 105.7 1324.8 106.3 1324.8 107.2C1324.8 108.5 1324.8 110 1324.7 111.4C1324.7 112.3 1325.5 113 1326.3 113Z" fill="#BEE3EE"/>
<path d="M1328.1 138.2C1328.9 138.1 1329.6 137.3 1329.5 136.5C1329.3 135.1 1329.2 133.7 1329 132.3C1328.9 131.6 1328.4 131.1 1327.8 131C1327.6 130.9 1327.4 130.9 1327.2 130.8C1326.4 130.9 1325.7 131.7 1325.8 132.5C1326 133.9 1326.1 135.4 1326.3 136.7C1326.4 137.7 1327.2 138.3 1328.1 138.2Z" fill="#BEE3EE"/>
<path d="M1334 63.2C1334.9 63.4 1335.7 63 1336 62.2C1336.4 60.9 1337 59.6 1337.4 58.2C1337.7 57.5 1337.3 56.5 1336.5 56.2C1336.4 56.2 1336.4 56.2 1336.3 56.2C1335.5 56 1334.7 56.4 1334.4 57.2C1333.9 58.5 1333.4 59.9 1332.9 61.3C1332.7 62.1 1333.1 62.9 1334 63.2Z" fill="#BEE3EE"/>
<path d="M1337 55.0999C1337.8 55.4999 1338.7 55.1 1339.1 54.3C1339.5 53 1340.2 51.8 1340.7 50.5C1341 49.8 1340.7 48.8 1339.9 48.4C1339.8 48.4 1339.7 48.3 1339.6 48.3C1338.8 48.1 1338 48.4999 1337.9 49.1C1337.3 50.4 1336.7 51.7 1336.2 53C1335.8 53.9 1336.2 54.7999 1337 55.0999Z" fill="#BEE3EE"/>
<path d="M1326.7 104.6C1327.5 104.6 1328.3 104 1328.3 103.1C1328.4 101.7 1328.4 100.3 1328.6 98.9C1328.6 98.1 1328.2 97.4 1327.4 97.2C1327.3 97.2 1327.2 97.1 1327.2 97.2C1326.3 97.1 1325.6 97.7 1325.5 98.6C1325.4 100 1325.3 101.4 1325.2 102.9C1325.2 103.8 1325.8 104.6 1326.7 104.6Z" fill="#BEE3EE"/>
<path d="M1331.6 71.4C1332.5 71.6 1333.3 71.1 1333.5 70.3C1333.9 68.9 1334.2 67.6 1334.6 66.3C1334.8 65.4 1334.3 64.5 1333.5 64.3C1332.7 64.1 1331.9 64.5 1331.6 65.4C1331.2 66.8 1330.8 68.2 1330.4 69.5C1330.2 70.3 1330.7 71.2 1331.6 71.4Z" fill="#BEE3EE"/>
<path d="M1327.2 96.2C1328 96.3 1328.8 95.7 1328.9 94.8C1329 93.5 1329.2 92.1 1329.3 90.7C1329.4 89.9 1328.9 89.1 1328.1 88.9H1328C1327.1 88.8 1326.3 89.4 1326.2 90.3C1326 91.7 1325.9 93.1 1325.7 94.5C1325.7 95.3 1326.3 96.1 1327.2 96.2Z" fill="#BEE3EE"/>
<path d="M1328.2 87.8C1329 87.9 1329.9 87.4 1330 86.5C1330.3 85.1 1330.5 83.7 1330.8 82.4C1330.9 81.5 1330.4 80.7 1329.6 80.5C1329.6 80.5 1329.6 80.5 1329.6 80.6C1328.7 80.5 1327.9 81 1327.7 81.9C1327.4 83.3 1327.2 84.7 1326.9 86C1326.8 86.9 1327.3 87.7 1328.2 87.8Z" fill="#BEE3EE"/>
<path d="M1329.7 79.5C1330.6 79.7 1331.3 79.2 1331.6 78.3C1332 76.9 1332.2 75.6 1332.6 74.2C1332.8 73.3 1332.3 72.5 1331.5 72.3C1330.6 72.1 1329.8 72.7 1329.6 73.5C1329.2 74.9 1328.9 76.3 1328.6 77.7C1328.3 78.5 1328.8 79.2 1329.7 79.5Z" fill="#BEE3EE"/>
<path d="M1335 171.3C1335.9 171 1336.3 170.2 1336.1 169.3C1335.7 168 1335.3 166.6 1335 165.3C1334.8 164.7 1334.4 164.3 1333.8 164.2C1333.5 164.1 1333.3 164.2 1333 164.1C1332.1 164.4 1331.7 165.2 1331.9 166.1C1332.3 167.5 1332.6 168.9 1333 170.2C1333.3 171.1 1334.1 171.5 1335 171.3Z" fill="#BEE3EE"/>
<path d="M1436.7 283.3C1435.4 282.9 1434 282.4 1432.7 282H1432.6C1431.8 281.8 1431 282.2 1430.8 283.1C1430.5 283.9 1430.9 284.8 1431.7 285.1C1433 285.5 1434.4 286 1435.7 286.4C1436.6 286.6 1437.4 286.2 1437.7 285.4C1438 284.5 1437.6 283.6 1436.7 283.3Z" fill="#BEE3EE"/>
<path d="M1338.5 177.3C1338.1 176.1 1337.6 174.7 1337.2 173.4C1337 172.9 1336.6 172.5 1336.1 172.4C1335.8 172.3 1335.5 172.2 1335.1 172.2C1334.3 172.5 1333.8 173.4 1334.1 174.2C1334.6 175.6 1335 176.9 1335.4 178.3C1335.7 179.2 1336.6 179.6 1337.4 179.3C1338.4 179 1338.8 178.1 1338.5 177.3Z" fill="#BEE3EE"/>
<path d="M1374.8 242.6C1373.9 241.6 1373 240.5 1372.1 239.4C1372 239.2 1371.6 239 1371.3 238.9C1370.8 238.8 1370.4 239 1369.9 239.2C1369.1 239.7 1369.1 240.7 1369.6 241.4C1370.5 242.6 1371.4 243.6 1372.4 244.7C1373 245.4 1374 245.4 1374.6 244.9C1375.3 244.3 1375.4 243.3 1374.8 242.6Z" fill="#BEE3EE"/>
<path d="M1364.7 229.5C1363.8 228.5 1363 227.2 1362.3 226.1C1362.1 225.7 1361.7 225.5 1361.3 225.4C1360.9 225.3 1360.5 225.4 1360.2 225.6C1359.5 226 1359.2 227 1359.7 227.8C1360.5 229 1361.3 230.2 1362.1 231.3C1362.6 231.9 1363.5 232.2 1364.3 231.7C1365 231.2 1365.2 230.2 1364.7 229.5Z" fill="#BEE3EE"/>
<path d="M1369.6 236.3C1368.8 235.2 1367.9 234.1 1367.1 233C1366.9 232.6 1366.5 232.4 1366.2 232.4C1365.7 232.3 1365.2 232.3 1365 232.8C1364.2 233.3 1364.1 234.3 1364.6 235C1365.5 236 1366.3 237.2 1367.1 238.3C1367.7 239 1368.6 239.1 1369.3 238.6C1370 238 1370.2 237 1369.6 236.3Z" fill="#BEE3EE"/>
<path d="M1380.6 248.9C1379.7 247.9 1378.7 247 1377.8 245.9C1377.6 245.6 1377.3 245.5 1377 245.4C1376.5 245.3 1375.9 245.4 1375.5 245.7C1374.9 246.3 1374.9 247.3 1375.4 248C1376.4 249.1 1377.3 250.1 1378.3 251.1C1378.9 251.8 1379.9 251.7 1380.6 251.2C1381.2 250.5 1381.1 249.5 1380.6 248.9Z" fill="#BEE3EE"/>
<path d="M1399.4 265.3C1398.3 264.5 1397.2 263.6 1396 262.8C1395.8 262.7 1395.6 262.6 1395.4 262.6C1394.8 262.4 1394.1 262.7 1393.8 263.1C1393.2 263.8 1393.4 264.8 1394 265.3C1395.2 266.1 1396.3 267 1397.5 267.8C1398.2 268.3 1399.2 268.1 1399.7 267.4C1400.2 266.7 1400.1 265.8 1399.4 265.3Z" fill="#BEE3EE"/>
<path d="M1389.6 257.6C1389.4 257.5 1389.2 257.3 1389 257.2C1388.4 257.1 1387.8 257.2 1387.5 257.7C1386.9 258.4 1387 259.3 1387.7 259.9C1388.7 260.9 1389.8 261.8 1390.9 262.7C1391.6 263.2 1392.5 263.1 1393.1 262.5C1393.6 261.8 1393.5 260.9 1392.9 260.3C1391.7 259.4 1390.6 258.5 1389.6 257.6Z" fill="#BEE3EE"/>
<path d="M1383.4 251.9C1383.1 251.7 1383 251.6 1382.7 251.5C1382.2 251.4 1381.7 251.5 1381.2 251.7C1380.6 252.4 1380.6 253.4 1381.2 254C1382.2 255 1383.3 256 1384.3 257C1384.9 257.7 1385.9 257.6 1386.5 256.9C1387.2 256.3 1387.1 255.3 1386.4 254.7C1385.4 253.8 1384.4 252.8 1383.4 251.9Z" fill="#BEE3EE"/>
<path d="M1355.6 215.4C1354.9 214.2 1354.3 213 1353.5 211.8C1353.2 211.4 1352.9 211.1 1352.5 211C1352.2 210.9 1351.8 211 1351.5 211.2C1350.7 211.6 1350.4 212.6 1350.9 213.3C1351.5 214.6 1352.2 215.8 1352.9 217C1353.3 217.7 1354.3 218 1355 217.6C1355.8 217.1 1356.1 216.1 1355.6 215.4Z" fill="#BEE3EE"/>
<path d="M1360 222.6C1359.3 221.4 1358.5 220.3 1357.8 219C1357.6 218.6 1357.2 218.4 1356.8 218.3C1356.3 218.2 1355.9 218.2 1355.6 218.5C1354.9 218.9 1354.6 219.9 1355 220.6C1355.7 221.7 1356.6 223 1357.3 224.2C1357.7 224.9 1358.7 225.1 1359.5 224.7C1360.3 224.3 1360.4 223.3 1360 222.6Z" fill="#BEE3EE"/>
<path d="M1347.8 200.5C1347.2 199.3 1346.7 198 1346.1 196.8C1345.9 196.3 1345.6 196 1345.1 195.9C1344.8 195.8 1344.4 195.8 1344.1 195.9C1343.3 196.2 1343 197.2 1343.3 198C1343.9 199.3 1344.5 200.6 1345.1 201.9C1345.4 202.7 1346.4 203 1347.2 202.6C1347.9 202.3 1348.2 201.4 1347.8 200.5Z" fill="#BEE3EE"/>
<path d="M1344.5 192.9C1344 191.6 1343.4 190.3 1342.9 189.1C1342.7 188.6 1342.3 188.3 1341.8 188.2C1341.5 188.1 1341.2 188.1 1340.9 188.2C1340.1 188.5 1339.8 189.5 1340.1 190.3C1340.6 191.6 1341.1 192.9 1341.7 194.2C1342 195 1343 195.3 1343.8 195C1344.5 194.6 1344.8 193.7 1344.5 192.9Z" fill="#BEE3EE"/>
<path d="M1351.6 208C1350.9 206.8 1350.3 205.5 1349.7 204.3C1349.5 203.9 1349.1 203.6 1348.7 203.5C1348.3 203.4 1348 203.4 1347.8 203.6C1347 203.9 1346.7 204.9 1347.1 205.7C1347.7 207 1348.4 208.3 1349 209.5C1349.4 210.2 1350.4 210.6 1351.1 210.1C1351.7 209.7 1352.1 208.8 1351.6 208Z" fill="#BEE3EE"/>
<path d="M1406.3 270C1405 269.3 1403.9 268.6 1402.8 267.7C1402.6 267.6 1402.5 267.5 1402.3 267.5C1401.6 267.3 1400.9 267.6 1400.5 268.2C1400 268.9 1400.3 269.9 1401 270.4C1402.3 271.1 1403.5 272 1404.6 272.7C1405.4 273.2 1406.3 272.9 1406.8 272.2C1407.3 271.4 1407 270.5 1406.3 270Z" fill="#BEE3EE"/>
<path d="M1341.4 185.2C1340.9 183.9 1340.4 182.7 1339.9 181.3C1339.7 180.7 1339.3 180.4 1338.8 180.3C1338.5 180.2 1338.1 180.2 1337.9 180.3C1337.1 180.6 1336.7 181.5 1337 182.3C1337.5 183.7 1338 184.9 1338.4 186.3C1338.7 187.1 1339.6 187.5 1340.4 187.2C1341.2 186.9 1341.8 186 1341.4 185.2Z" fill="#BEE3EE"/>
<path d="M1444.7 285.9C1443.3 285.6 1442 285.1 1440.6 284.6C1439.8 284.4 1439 284.8 1438.7 285.7C1438.5 286.6 1438.9 287.4 1439.7 287.7C1441 288.1 1442.4 288.5 1443.7 288.9C1444.6 289.1 1445.5 288.7 1445.7 287.9C1446 287 1445.6 286.1 1444.7 285.9Z" fill="#BEE3EE"/>
<path d="M1413.4 274.1C1412.2 273.5 1410.9 272.8 1409.8 272.1C1409.7 272 1409.5 271.9 1409.4 271.9C1408.7 271.7 1408 272 1407.6 272.8C1407.2 273.5 1407.5 274.5 1408.2 274.9C1409.4 275.5 1410.6 276.3 1411.9 276.9C1412.7 277.3 1413.6 277 1414 276.2C1414.4 275.4 1414.2 274.5 1413.4 274.1Z" fill="#BEE3EE"/>
<path d="M1421.1 277.5C1419.8 277 1418.6 276.4 1417.3 275.8C1417.2 275.8 1417.1 275.7 1417 275.7C1416.2 275.5 1415.4 275.9 1415.1 276.6C1414.8 277.3 1415.1 278.2 1415.9 278.7C1417.2 279.3 1418.5 279.9 1419.8 280.4C1420.6 280.8 1421.5 280.4 1421.9 279.6C1422.3 278.8 1421.9 277.8 1421.1 277.5Z" fill="#BEE3EE"/>
<path d="M1428.9 280.5C1427.6 280.1 1426.2 279.6 1424.9 279.1C1424.8 279.1 1424.8 279.1 1424.7 279C1423.9 278.8 1423.1 279.2 1422.9 280C1422.6 280.7 1423 281.7 1423.8 282C1425.1 282.4 1426.4 283 1427.8 283.4C1428.5 283.7 1429.5 283.3 1429.8 282.5C1430.1 281.7 1429.7 280.8 1428.9 280.5Z" fill="#BEE3EE"/>
<path d="M1346.2 49.8C1353.16 49.8 1358.8 44.1588 1358.8 37.2C1358.8 30.2412 1353.16 24.6 1346.2 24.6C1339.24 24.6 1333.6 30.2412 1333.6 37.2C1333.6 44.1588 1339.24 49.8 1346.2 49.8Z" fill="#BEE3EE"/>
<path d="M800.5 683.3H639.5C631.8 683.3 625.5 677 625.5 669.3V650.2C625.5 642.5 631.8 636.2 639.5 636.2H800.5C808.2 636.2 814.5 642.5 814.5 650.2V669.3C814.5 677.1 808.2 683.3 800.5 683.3Z" fill="#BFE3EE"/>
<path d="M667.235 664.93C666.032 664.758 665.43 664.479 665.43 664.092C665.43 663.812 665.635 663.49 666.043 663.125C666.451 662.76 666.859 662.384 667.267 661.997C667.267 660.708 667.074 659.269 666.687 657.679C666.301 656.067 666.021 654.821 665.849 653.94C665.677 653.06 665.592 652.254 665.592 651.523C665.592 650.793 665.699 650.331 665.914 650.138C666.15 649.944 666.483 649.848 666.913 649.848C667.343 649.848 667.622 649.912 667.751 650.041C667.88 650.148 667.966 650.288 668.009 650.46C668.052 650.632 668.073 650.814 668.073 651.008C668.094 651.201 668.137 651.384 668.202 651.556C668.309 651.964 668.642 652.168 669.201 652.168C670.64 652.146 672.08 652.028 673.519 651.813C674.959 651.577 676.387 651.341 677.805 651.104C680.641 650.632 682.629 650.396 683.767 650.396C684.927 650.396 685.841 650.428 686.507 650.492C686.528 650.9 686.571 651.255 686.635 651.556C686.7 651.856 686.732 652.104 686.732 652.297C686.732 652.662 686.378 652.791 685.669 652.684C674.432 653.092 668.814 653.93 668.814 655.197C668.814 656.594 668.911 657.797 669.104 658.807C669.298 659.795 669.437 660.418 669.523 660.676C669.631 660.934 669.749 661.062 669.878 661.062C671.102 661.062 672.338 660.955 673.584 660.74C674.851 660.525 676.108 660.3 677.354 660.063C678.622 659.806 679.889 659.569 681.157 659.354C682.425 659.14 683.671 659.032 684.895 659.032C684.917 659.032 684.927 659.118 684.927 659.29C684.927 659.44 684.917 659.612 684.895 659.806C684.831 660.321 684.831 660.579 684.895 660.579C683.971 661.095 682.296 661.514 679.868 661.836C678.815 661.986 677.741 662.126 676.645 662.255C675.55 662.384 674.54 662.523 673.616 662.674C671.489 662.975 670.254 663.372 669.91 663.866L669.555 670.183C669.319 670.419 669.051 670.537 668.75 670.537L667.557 670.44C667.45 670.44 667.343 670.44 667.235 670.44V664.93ZM700.59 664.93C698.978 667.465 696.83 669.033 694.144 669.635C693.521 669.764 692.952 669.828 692.436 669.828C691.942 669.828 691.523 669.828 691.179 669.828C690.857 669.807 690.492 669.753 690.084 669.667C689.676 669.581 689.3 669.441 688.956 669.248C688.161 668.797 687.763 668.163 687.763 667.347C687.677 666.96 687.635 666.53 687.635 666.058C687.635 665.563 687.742 664.919 687.957 664.124C688.172 663.329 688.558 662.47 689.117 661.546C689.697 660.622 690.395 659.773 691.212 659C692.909 657.367 694.746 656.314 696.722 655.842C697.302 655.713 697.829 655.648 698.302 655.648C698.796 655.648 699.236 655.681 699.623 655.745C700.869 655.745 701.707 656.594 702.136 658.291C702.416 659.365 702.577 660.869 702.62 662.803C702.684 664.715 702.738 666.197 702.781 667.25C702.845 668.281 702.985 669.227 703.2 670.086H701.299C701.213 669.506 701.148 668.99 701.105 668.539C701.062 668.088 701.019 667.669 700.976 667.282C700.869 666.38 700.74 665.596 700.59 664.93ZM700.461 659.935C700.461 658.688 699.848 658.065 698.624 658.065C698.473 658.044 698.323 658.033 698.173 658.033C696.604 658.033 694.95 658.785 693.21 660.289C692.393 660.977 691.695 661.75 691.115 662.609C690.256 663.834 689.826 664.93 689.826 665.896C689.826 667.164 690.556 667.916 692.017 668.152C693.951 668.109 695.799 667.229 697.56 665.51C698.312 664.758 698.935 663.941 699.429 663.061C700.117 661.879 700.461 660.837 700.461 659.935ZM707.389 669.764C706.509 670.129 705.918 670.312 705.617 670.312C705.338 670.312 705.144 670.279 705.037 670.215C704.929 670.15 704.811 670 704.682 669.764C704.682 669.055 704.704 668.163 704.747 667.089C704.811 666.015 704.865 664.865 704.908 663.641C704.951 662.416 704.972 661.181 704.972 659.935C704.972 658.688 704.908 657.55 704.779 656.519C704.779 655.831 705.241 655.487 706.165 655.487C706.38 655.487 706.541 655.874 706.648 656.647C706.777 657.421 706.863 658.022 706.906 658.452C706.97 658.882 707.024 659.193 707.067 659.387C707.626 658.377 708.732 657.582 710.386 657.002C711.267 656.723 712.094 656.583 712.868 656.583C713.641 656.583 714.318 656.68 714.898 656.873C715.5 657.045 716.005 657.378 716.413 657.872C716.843 658.345 717.057 658.979 717.057 659.773C717.616 658.721 718.873 657.775 720.828 656.938C722.611 656.143 724.212 655.745 725.63 655.745C727.671 655.745 728.67 656.519 728.627 658.065L729.303 670.054C729.303 670.161 728.992 670.236 728.369 670.279C727.166 670.365 726.564 670.258 726.564 669.957C726.543 669.527 726.532 669.098 726.532 668.668L726.693 663.479C726.693 661.052 726.457 659.129 725.984 657.711C724.566 657.818 723.47 658.055 722.697 658.42C721.945 658.764 721.279 659.204 720.699 659.741C720.119 660.257 719.603 660.955 719.152 661.836C718.142 663.812 717.637 666.434 717.637 669.699C717.509 670.15 717.09 670.376 716.381 670.376C715.908 670.376 715.521 670.301 715.22 670.15C714.92 669.979 714.802 669.828 714.866 669.699C715.274 667.422 715.478 665.649 715.478 664.382C715.478 663.372 715.371 662.416 715.156 661.514C714.963 660.59 714.716 659.537 714.415 658.355C711.321 658.355 709.237 659.591 708.163 662.062C707.69 663.157 707.422 664.188 707.357 665.155C707.314 666.101 707.293 666.917 707.293 667.604C707.293 668.271 707.325 668.99 707.389 669.764ZM733.3 655.133C733.579 659.15 733.815 663.802 734.009 669.087C733.88 669.753 733.364 670.086 732.462 670.086C732.225 670.086 731.978 670.043 731.72 669.957C731.484 669.85 731.334 669.71 731.269 669.538V655.133H733.3ZM730.302 650.75C730.302 649.998 730.743 649.622 731.624 649.622C732.204 649.622 732.677 649.751 733.042 650.009C733.106 650.245 733.138 650.481 733.138 650.718C733.138 650.933 733.052 651.147 732.881 651.362C732.709 651.577 732.451 651.685 732.107 651.685C731.763 651.685 731.42 651.609 731.076 651.459C730.732 651.287 730.474 651.051 730.302 650.75ZM735.974 657.775C735.931 656.615 735.888 655.584 735.845 654.682C735.802 653.758 735.77 653.081 735.749 652.651C735.749 652.2 735.577 651.115 735.233 649.396C735.427 649.139 735.609 648.892 735.781 648.655C735.974 648.419 736.243 648.301 736.587 648.301C737.339 648.301 737.919 651.47 738.327 657.808C738.542 661.481 738.649 665.155 738.649 668.829C738.649 669.817 737.962 670.312 736.587 670.312L736.329 670.279C736.329 669.162 736.297 667.733 736.232 665.993C736.168 664.253 736.114 662.738 736.071 661.449C736.05 660.16 736.017 658.936 735.974 657.775ZM741.163 657.775C741.12 656.615 741.077 655.584 741.034 654.682C740.991 653.758 740.959 653.081 740.937 652.651C740.937 652.2 740.765 651.115 740.422 649.396C740.615 649.139 740.798 648.892 740.969 648.655C741.163 648.419 741.431 648.301 741.775 648.301C742.527 648.301 743.107 651.47 743.515 657.808C743.73 661.481 743.838 665.155 743.838 668.829C743.838 669.817 743.15 670.312 741.775 670.312L741.517 670.279C741.517 669.162 741.485 667.733 741.421 665.993C741.356 664.253 741.302 662.738 741.26 661.449C741.238 660.16 741.206 658.936 741.163 657.775ZM752.345 668.023C754.236 668.023 757.083 667.164 760.885 665.445C761.122 665.445 761.315 665.531 761.466 665.703C761.616 665.854 761.691 666.036 761.691 666.251C760.832 667.712 759.188 668.851 756.76 669.667C754.333 670.483 752.066 670.623 749.961 670.086C747.576 669.463 746.126 668.12 745.61 666.058C745.567 665.649 745.546 665.102 745.546 664.414C745.546 663.727 745.718 662.824 746.061 661.707C746.427 660.568 747.039 659.494 747.898 658.484C748.758 657.475 749.767 656.68 750.927 656.1C752.088 655.52 753.323 655.229 754.634 655.229C755.88 655.229 757.276 655.659 758.823 656.519C759.553 656.927 760.134 657.389 760.563 657.904C760.993 658.42 761.208 658.946 761.208 659.483C761.208 659.634 761.197 659.784 761.176 659.935C761.133 661.245 760.499 662.072 759.274 662.416C758.737 662.566 758.114 662.642 757.405 662.642L752.764 662.448C751.218 662.448 750.036 662.781 749.219 663.447C748.747 663.812 748.414 664.36 748.22 665.091C748.758 667.046 750.133 668.023 752.345 668.023ZM758.082 658.065C757.609 657.722 757.115 657.475 756.599 657.324C756.084 657.174 755.654 657.099 755.31 657.099C754.967 657.099 754.408 657.217 753.635 657.453C752.861 657.668 752.174 657.915 751.572 658.194C750.09 658.882 749.348 659.602 749.348 660.354C751.067 660.504 752.356 660.579 753.216 660.579C755.6 660.579 757.212 660.375 758.05 659.967C758.565 659.752 758.823 659.483 758.823 659.161C758.823 658.774 758.576 658.409 758.082 658.065Z" fill="white"/>
<path d="M1199.9 522.9C1204.48 522.9 1208.2 519.184 1208.2 514.6C1208.2 510.016 1204.48 506.3 1199.9 506.3C1195.32 506.3 1191.6 510.016 1191.6 514.6C1191.6 519.184 1195.32 522.9 1199.9 522.9Z" fill="#A4CED8"/>
<path d="M1208.7 564.9C1208.7 567 1207.9 568.8 1206.7 570.3C1203.9 570.4 1201.1 570.5 1198.3 570.5C1197 570.5 1195.6 570.5 1194.3 570.5C1193 569 1192.2 567.1 1192.2 565C1192.2 560.4 1195.9 556.7 1200.5 556.7C1205 556.7 1208.7 560.4 1208.7 564.9Z" fill="#A4CED8"/>
<path d="M320.7 682.9H159.7C152 682.9 145.7 676.6 145.7 668.9V649.8C145.7 642.1 152 635.8 159.7 635.8H320.7C328.4 635.8 334.7 642.1 334.7 649.8V668.9C334.6 676.6 328.4 682.9 320.7 682.9Z" fill="#F3B800"/>
<path d="M1280.9 683.3H1119.9C1112.2 683.3 1105.9 677 1105.9 669.3V650.2C1105.9 642.5 1112.2 636.2 1119.9 636.2H1280.9C1288.6 636.2 1294.9 642.5 1294.9 650.2V669.3C1294.9 677.1 1288.7 683.3 1280.9 683.3Z" fill="#E4582C"/>
<path d="M876 324.2C876 324.2 880.6 319.3 883.5 323.2C886.4 327.1 885.6 345.8 875.8 350C866 354.2 876 324.2 876 324.2Z" fill="#F9C7A6"/>
<path d="M893.1 464.7C892.7 462.9 892.3 461.2 891.9 459.5" stroke="#EEAD1E" stroke-width="3" stroke-miterlimit="10"/>
<path d="M192.215 650.987C194.364 650.987 195.792 651.127 196.501 651.406V652.985C195.921 653.071 195.126 653.125 194.117 653.146C193.107 653.146 192.033 653.157 190.894 653.178C187.714 653.243 185.544 653.404 184.384 653.662C184.019 655.381 183.847 656.552 183.868 657.175C183.89 657.798 183.911 658.281 183.933 658.625C184.019 659.463 184.062 660.451 184.062 661.59C185.523 661.59 187.188 661.461 189.057 661.203C190.948 660.945 192.409 660.762 193.44 660.655C194.471 660.526 195.535 660.462 196.63 660.462V662.234L184.287 663.781L184.481 669.066C186.608 669.066 188.778 668.969 190.991 668.776C193.225 668.561 194.911 668.411 196.05 668.325C197.21 668.218 198.435 668.164 199.724 668.164C199.724 668.594 199.595 669.002 199.337 669.388C198.822 670.076 198.36 670.28 197.952 670.001C194.17 670.409 190.786 670.731 187.8 670.968C184.835 671.204 182.837 671.365 181.806 671.451L181.935 650.89C182.493 651.062 183.525 651.148 185.029 651.148L192.215 650.987ZM189.895 646.056C190.196 645.648 190.518 645.444 190.862 645.444C191.077 645.444 191.238 645.552 191.345 645.766C191.452 645.96 191.495 646.153 191.474 646.346C191.452 646.54 191.399 646.722 191.313 646.894C191.227 647.066 191.087 647.27 190.894 647.507C190.529 647.915 189.787 648.581 188.67 649.505L187.671 648.602L189.895 646.056ZM206.105 668.357L206.169 663.201C206.169 662.385 206.094 661.686 205.944 661.106H200.949L200.884 658.883H205.718V650.568C205.783 650.375 205.911 650.181 206.105 649.988C206.406 649.687 206.653 649.537 206.846 649.537C207.061 649.537 207.243 649.558 207.394 649.601C207.544 649.644 207.705 649.795 207.877 650.052C208.221 651.47 208.393 653.608 208.393 656.466C208.393 657.175 208.425 657.873 208.49 658.56C209.177 658.474 209.865 658.431 210.552 658.431C210.552 658.431 211.111 658.431 212.228 658.431C212.636 658.431 213.012 658.41 213.356 658.367L213.259 660.687L208.554 660.558L208.715 671.677C208.328 671.848 207.995 671.934 207.716 671.934C206.642 671.934 206.105 670.742 206.105 668.357ZM214.419 667.165C214.419 666.821 214.387 666.348 214.323 665.747C214.28 665.124 214.237 664.447 214.194 663.717C214.151 662.986 214.129 662.245 214.129 661.493C214.129 660.741 214.194 660.053 214.323 659.43C214.602 658.034 215.182 657.336 216.063 657.336C216.664 657.508 217.062 657.722 217.255 657.98C217.47 658.238 217.577 658.56 217.577 658.947C217.577 659.312 217.481 659.774 217.287 660.333C216.578 662.202 216.224 663.888 216.224 665.392C216.224 665.886 216.256 666.413 216.321 666.971C216.664 668.411 217.846 669.131 219.866 669.131C220.918 669.131 221.917 668.948 222.863 668.583C224.667 667.917 225.892 667.133 226.536 666.23C226.73 665.242 226.827 664.383 226.827 663.652C226.827 662.9 226.794 662.234 226.73 661.654C226.687 661.074 226.622 660.44 226.536 659.753C226.472 659.044 226.429 658.27 226.408 657.432C226.687 657.303 226.955 657.239 227.213 657.239C227.493 657.239 227.772 657.379 228.051 657.658C228.352 657.937 228.599 658.464 228.792 659.237C229.007 660.01 229.147 660.924 229.211 661.976C229.276 663.008 229.308 664.082 229.308 665.199C229.329 666.316 229.34 667.401 229.34 668.454C229.34 669.485 229.383 670.377 229.469 671.129C229.211 671.365 228.964 671.483 228.728 671.483C227.868 671.483 227.235 670.624 226.827 668.905C226.547 669.141 226.075 669.431 225.409 669.775C223.991 670.549 222.315 671.064 220.381 671.322C220.016 671.365 219.608 671.386 219.157 671.386C218.705 671.386 218.136 671.301 217.449 671.129C216.783 670.957 216.149 670.559 215.547 669.936C214.946 669.313 214.57 668.389 214.419 667.165ZM246.581 645.573C246.581 647.635 246.517 649.655 246.388 651.632C246.281 653.587 246.173 655.51 246.066 657.4C245.98 659.269 245.937 661.267 245.937 663.394C245.937 665.5 246.087 667.734 246.388 670.097C246.388 670.592 246.291 670.946 246.098 671.161C245.926 671.376 245.625 671.483 245.196 671.483C244.186 671.483 243.681 670.645 243.681 668.969V667.906C240.63 670.183 238.052 671.322 235.947 671.322C235.109 671.322 234.249 671.118 233.368 670.71C232.509 670.302 231.693 669.474 230.919 668.228C230.812 667.713 230.758 667.186 230.758 666.649C230.758 666.112 230.855 665.468 231.048 664.716C231.263 663.942 231.682 663.147 232.305 662.331C232.95 661.514 233.723 660.795 234.625 660.172C236.602 658.84 238.74 658.174 241.038 658.174C242.027 658.174 242.972 658.324 243.874 658.625C243.874 658.238 243.896 657.561 243.939 656.594C244.003 655.628 244.068 654.607 244.132 653.533C244.261 650.74 244.347 649.096 244.39 648.602C244.433 648.087 244.487 647.657 244.551 647.313C244.637 646.948 244.755 646.636 244.906 646.379C245.228 645.842 245.786 645.573 246.581 645.573ZM233.111 666.391C233.111 668.089 233.723 668.937 234.948 668.937C235.141 668.937 235.356 668.916 235.592 668.873C236.473 668.873 237.558 668.615 238.847 668.099C241.296 667.133 242.789 666.295 243.327 665.586V661.3C243.327 660.548 242.714 660.172 241.49 660.172C241.339 660.15 241.135 660.139 240.877 660.139C240.641 660.139 240.265 660.193 239.749 660.301C239.234 660.408 238.654 660.601 238.009 660.881C237.365 661.16 236.731 661.504 236.108 661.912C234.797 662.793 233.895 663.824 233.401 665.006C233.207 665.457 233.111 665.919 233.111 666.391ZM251.158 656.304C251.437 660.322 251.673 664.973 251.867 670.259C251.738 670.925 251.222 671.258 250.32 671.258C250.083 671.258 249.836 671.215 249.578 671.129C249.342 671.021 249.192 670.882 249.127 670.71V656.304H251.158ZM248.16 651.922C248.16 651.17 248.601 650.794 249.482 650.794C250.062 650.794 250.535 650.923 250.9 651.18C250.964 651.417 250.996 651.653 250.996 651.889C250.996 652.104 250.91 652.319 250.739 652.534C250.567 652.749 250.309 652.856 249.965 652.856C249.621 652.856 249.278 652.781 248.934 652.631C248.59 652.459 248.332 652.222 248.16 651.922ZM265.917 666.101C264.306 668.636 262.158 670.205 259.472 670.806C258.849 670.935 258.28 671 257.764 671C257.27 671 256.851 671 256.507 671C256.185 670.978 255.82 670.925 255.411 670.839C255.003 670.753 254.627 670.613 254.284 670.42C253.489 669.969 253.091 669.335 253.091 668.518C253.005 668.132 252.962 667.702 252.962 667.229C252.962 666.735 253.07 666.091 253.285 665.296C253.499 664.501 253.886 663.641 254.445 662.718C255.025 661.794 255.723 660.945 256.539 660.172C258.237 658.539 260.074 657.486 262.05 657.013C262.63 656.885 263.157 656.82 263.629 656.82C264.123 656.82 264.564 656.852 264.951 656.917C266.197 656.917 267.035 657.765 267.464 659.463C267.743 660.537 267.905 662.041 267.948 663.974C268.012 665.886 268.066 667.369 268.109 668.422C268.173 669.453 268.313 670.398 268.528 671.258H266.626C266.54 670.677 266.476 670.162 266.433 669.711C266.39 669.26 266.347 668.841 266.304 668.454C266.197 667.552 266.068 666.767 265.917 666.101ZM265.788 661.106C265.788 659.86 265.176 659.237 263.952 659.237C263.801 659.216 263.651 659.205 263.5 659.205C261.932 659.205 260.278 659.957 258.537 661.461C257.721 662.148 257.023 662.922 256.443 663.781C255.583 665.006 255.154 666.101 255.154 667.068C255.154 668.336 255.884 669.088 257.345 669.324C259.279 669.281 261.126 668.4 262.888 666.681C263.64 665.929 264.263 665.113 264.757 664.232C265.445 663.051 265.788 662.009 265.788 661.106ZM282.611 664.393C282.611 661.837 282.471 659.957 282.192 658.754C282.364 658.431 282.106 658.27 281.418 658.27C280.688 658.27 279.743 658.453 278.582 658.818C277.422 659.183 276.477 659.549 275.746 659.914C274.006 660.752 273.039 661.568 272.846 662.363V671.129H270.687C270.408 670.398 270.268 668.346 270.268 664.973C270.268 661.966 270.322 659.753 270.429 658.335C270.558 656.917 270.655 656.111 270.719 655.918C271.278 655.552 271.729 655.37 272.073 655.37C272.61 655.37 272.878 656.004 272.878 657.271C272.878 657.765 272.846 658.249 272.782 658.721C272.739 659.173 272.717 659.484 272.717 659.656C276.198 657.099 278.894 655.821 280.806 655.821C282.976 655.821 284.211 657.572 284.512 661.074C284.641 662.299 284.705 663.996 284.705 666.166L284.673 668.712C284.673 669.657 284.695 670.57 284.738 671.451C284.523 671.58 284.351 671.644 284.222 671.644C284.158 671.623 284.018 671.591 283.803 671.548C283.588 671.505 283.309 671.472 282.965 671.451C282.75 670.592 282.632 669.721 282.611 668.841C282.589 667.938 282.578 667.111 282.578 666.359L282.611 664.393ZM291.409 668.357L291.473 663.201C291.473 662.385 291.398 661.686 291.247 661.106H286.252L286.188 658.883H291.022V650.568C291.086 650.375 291.215 650.181 291.409 649.988C291.709 649.687 291.956 649.537 292.15 649.537C292.365 649.537 292.547 649.558 292.698 649.601C292.848 649.644 293.009 649.795 293.181 650.052C293.525 651.47 293.697 653.608 293.697 656.466C293.697 657.175 293.729 657.873 293.793 658.56C294.481 658.474 295.168 658.431 295.856 658.431C295.856 658.431 296.414 658.431 297.532 658.431C297.94 658.431 298.316 658.41 298.66 658.367L298.563 660.687L293.858 660.558L294.019 671.677C293.632 671.848 293.299 671.934 293.02 671.934C291.946 671.934 291.409 670.742 291.409 668.357Z" fill="white"/>
<path d="M1152.8 668.674C1152.8 668.266 1152.96 667.911 1153.29 667.611C1153.63 667.288 1153.89 667.073 1154.06 666.966C1154.25 666.837 1154.38 666.74 1154.45 666.676C1154.55 668.631 1155.87 669.609 1158.41 669.609C1160.41 669.609 1162.74 668.986 1165.4 667.74C1167.29 666.88 1168.56 665.999 1169.2 665.097C1169.42 664.818 1169.53 664.592 1169.53 664.42C1169.53 664.227 1169.49 664.076 1169.43 663.969L1156.06 660.972C1155.67 660.886 1155.29 660.703 1154.93 660.424C1154.26 659.951 1153.93 659.522 1153.93 659.135C1153.93 657.653 1154.98 656.31 1157.09 655.107C1159.41 653.796 1162.51 652.808 1166.4 652.142C1167.28 651.991 1167.94 651.906 1168.37 651.884C1168.5 651.927 1168.69 651.97 1168.95 652.013C1169.23 652.034 1169.51 652.077 1169.79 652.142C1170.45 652.292 1170.73 652.572 1170.62 652.98C1170.62 653.71 1169.23 654.29 1166.43 654.72C1162.82 655.257 1160.57 655.708 1159.67 656.073C1158.79 656.439 1158.14 656.815 1157.73 657.201C1157.35 657.588 1157.14 658.05 1157.12 658.587C1157.12 658.695 1157.37 658.813 1157.86 658.942C1158.36 659.071 1158.95 659.232 1159.63 659.425C1160.32 659.597 1161.21 659.833 1162.31 660.134C1164.97 660.865 1168.24 661.788 1172.11 662.906C1172.32 663.378 1172.43 663.819 1172.43 664.227C1172.43 665.365 1171.76 666.461 1170.43 667.514C1168.93 668.696 1166.84 669.695 1164.18 670.511C1161.96 671.177 1160.2 671.51 1158.89 671.51C1157.8 671.51 1156.75 671.317 1155.77 670.93C1154.78 670.543 1154.04 670.167 1153.54 669.802C1153.05 669.437 1152.8 669.061 1152.8 668.674ZM1180.97 669.222C1182.86 669.222 1185.7 668.363 1189.51 666.644C1189.74 666.644 1189.94 666.73 1190.09 666.902C1190.24 667.052 1190.31 667.235 1190.31 667.449C1189.45 668.91 1187.81 670.049 1185.38 670.865C1182.95 671.682 1180.69 671.822 1178.58 671.284C1176.2 670.661 1174.75 669.319 1174.23 667.256C1174.19 666.848 1174.17 666.3 1174.17 665.613C1174.17 664.925 1174.34 664.023 1174.68 662.906C1175.05 661.767 1175.66 660.693 1176.52 659.683C1177.38 658.673 1178.39 657.878 1179.55 657.298C1180.71 656.718 1181.95 656.428 1183.26 656.428C1184.5 656.428 1185.9 656.858 1187.45 657.717C1188.18 658.125 1188.76 658.587 1189.19 659.103C1189.62 659.618 1189.83 660.145 1189.83 660.682C1189.83 660.832 1189.82 660.983 1189.8 661.133C1189.75 662.444 1189.12 663.271 1187.9 663.615C1187.36 663.765 1186.74 663.84 1186.03 663.84L1181.39 663.647C1179.84 663.647 1178.66 663.98 1177.84 664.646C1177.37 665.011 1177.04 665.559 1176.84 666.289C1177.38 668.244 1178.75 669.222 1180.97 669.222ZM1186.7 659.264C1186.23 658.92 1185.74 658.673 1185.22 658.523C1184.71 658.372 1184.28 658.297 1183.93 658.297C1183.59 658.297 1183.03 658.415 1182.26 658.652C1181.48 658.866 1180.8 659.114 1180.19 659.393C1178.71 660.08 1177.97 660.8 1177.97 661.552C1179.69 661.702 1180.98 661.778 1181.84 661.778C1184.22 661.778 1185.83 661.573 1186.67 661.165C1187.19 660.95 1187.45 660.682 1187.45 660.36C1187.45 659.973 1187.2 659.608 1186.7 659.264ZM1182.74 651.981C1183.04 651.573 1183.36 651.368 1183.71 651.368C1183.92 651.368 1184.08 651.476 1184.19 651.691C1184.3 651.884 1184.34 652.077 1184.32 652.271C1184.3 652.464 1184.24 652.647 1184.16 652.819C1184.07 652.99 1183.93 653.195 1183.74 653.431C1183.37 653.839 1182.63 654.505 1181.52 655.429L1180.52 654.527L1182.74 651.981ZM1204.82 664.42C1204.82 661.864 1204.68 659.984 1204.4 658.781C1204.57 658.458 1204.31 658.297 1203.62 658.297C1202.89 658.297 1201.95 658.48 1200.79 658.845C1199.63 659.21 1198.68 659.575 1197.95 659.941C1196.21 660.779 1195.24 661.595 1195.05 662.39V671.156H1192.89C1192.61 670.425 1192.47 668.373 1192.47 665C1192.47 661.992 1192.53 659.78 1192.63 658.362C1192.76 656.944 1192.86 656.138 1192.92 655.945C1193.48 655.579 1193.93 655.397 1194.28 655.397C1194.81 655.397 1195.08 656.031 1195.08 657.298C1195.08 657.792 1195.05 658.276 1194.99 658.748C1194.94 659.199 1194.92 659.511 1194.92 659.683C1198.4 657.126 1201.1 655.848 1203.01 655.848C1205.18 655.848 1206.42 657.599 1206.72 661.101C1206.85 662.325 1206.91 664.023 1206.91 666.193L1206.88 668.739C1206.88 669.684 1206.9 670.597 1206.94 671.478C1206.73 671.607 1206.56 671.671 1206.43 671.671C1206.36 671.65 1206.22 671.617 1206.01 671.574C1205.79 671.531 1205.51 671.499 1205.17 671.478C1204.95 670.618 1204.84 669.748 1204.82 668.867C1204.79 667.965 1204.78 667.138 1204.78 666.386L1204.82 664.42ZM1211.65 656.331C1211.93 660.349 1212.16 665 1212.36 670.285C1212.23 670.951 1211.71 671.284 1210.81 671.284C1210.57 671.284 1210.33 671.241 1210.07 671.156C1209.83 671.048 1209.68 670.908 1209.62 670.737V656.331H1211.65ZM1208.65 651.948C1208.65 651.197 1209.09 650.821 1209.97 650.821C1210.55 650.821 1211.02 650.949 1211.39 651.207C1211.45 651.444 1211.49 651.68 1211.49 651.916C1211.49 652.131 1211.4 652.346 1211.23 652.561C1211.06 652.776 1210.8 652.883 1210.45 652.883C1210.11 652.883 1209.77 652.808 1209.42 652.657C1209.08 652.486 1208.82 652.249 1208.65 651.948ZM1214.55 665.355C1214.55 662.82 1215.64 660.779 1217.83 659.232C1219.58 658.007 1221.67 657.266 1224.12 657.008C1224.25 657.008 1224.55 657.008 1225.02 657.008C1225.49 657.008 1226.13 657.148 1226.92 657.427C1228.68 658.029 1229.89 659.092 1230.53 660.617C1230.79 661.219 1230.92 661.735 1230.92 662.164C1230.92 662.573 1230.91 662.863 1230.89 663.034C1230.89 665.72 1229.87 667.836 1227.83 669.383C1225.93 670.801 1223.57 671.51 1220.74 671.51C1218.69 671.51 1217.15 671.037 1216.09 670.092C1215.06 669.147 1214.55 667.568 1214.55 665.355ZM1216.77 666.128C1216.77 667.46 1217.13 668.363 1217.83 668.835C1218.37 669.179 1219.27 669.351 1220.54 669.351C1221.81 669.351 1222.93 669.254 1223.89 669.061C1224.86 668.867 1225.72 668.534 1226.47 668.062C1228.08 667.031 1228.89 665.43 1228.89 663.26C1228.89 661.971 1228.54 660.918 1227.86 660.102C1227.11 659.221 1226.12 658.781 1224.89 658.781C1224.05 658.931 1223.21 659.092 1222.35 659.264C1221.51 659.436 1220.71 659.769 1219.96 660.263C1218.33 661.316 1217.27 663.271 1216.77 666.128ZM1248.13 659.715C1247.23 659.071 1246.07 658.748 1244.65 658.748C1243.32 658.748 1242.08 658.995 1240.94 659.49C1238.79 660.392 1237.32 661.552 1236.53 662.97C1236.18 663.615 1236.01 664.302 1236.01 665.032C1236.01 665.161 1236.01 665.527 1236.01 666.128C1236.01 666.708 1236.12 667.503 1236.33 668.513C1236.55 669.501 1236.66 670.511 1236.66 671.542C1236.2 671.564 1235.84 671.617 1235.56 671.703C1235.28 671.789 1235.04 671.832 1234.85 671.832C1234.66 671.832 1234.49 671.746 1234.33 671.574C1234.21 671.403 1234.06 671.07 1233.88 670.575C1233.86 670.447 1233.82 670.081 1233.75 669.48C1233.69 668.878 1233.6 668.148 1233.5 667.288C1233.41 666.429 1233.3 665.494 1233.17 664.485C1233.07 663.453 1232.96 662.444 1232.85 661.455C1232.62 659.307 1232.43 657.728 1232.3 656.718C1232.3 656.202 1232.68 655.945 1233.43 655.945C1233.88 655.945 1234.24 656.138 1234.5 656.525C1234.75 656.89 1234.96 657.32 1235.11 657.814C1235.26 658.286 1235.36 658.759 1235.4 659.232C1235.46 659.704 1235.52 660.037 1235.56 660.231C1238.4 657.696 1241.92 656.428 1246.13 656.428C1246.6 656.428 1247.1 656.439 1247.61 656.46C1247.74 656.439 1247.9 656.428 1248.1 656.428C1248.29 656.428 1248.48 656.557 1248.68 656.815C1248.91 657.115 1249.03 657.481 1249.03 657.91C1249.03 658.985 1248.73 659.586 1248.13 659.715Z" fill="white"/>
<path d="M555.086 111.177C553.69 109.802 552.143 109.115 550.445 109.115C548.834 109.115 547.287 109.727 545.805 110.951C543.936 112.498 542.647 114.496 541.938 116.946C541.68 117.826 541.551 118.557 541.551 119.137C541.551 119.717 541.572 120.168 541.615 120.49C541.615 122.617 542.335 124.25 543.775 125.389C545.128 126.442 546.858 126.968 548.963 126.968C551.842 126.732 554.603 125.625 557.245 123.649C557.976 123.09 558.749 122.553 559.566 122.037C559.866 122.037 560.167 122.08 560.468 122.166C560.79 122.252 560.951 122.499 560.951 122.907C558.824 124.755 557.03 126.087 555.569 126.904C552.862 128.365 550.413 129.095 548.222 129.095C548.071 129.095 547.932 129.095 547.803 129.095C545.418 129.095 543.377 128.354 541.68 126.871C539.875 125.303 538.973 123.348 538.973 121.006C538.973 119.244 539.284 117.558 539.907 115.947C540.552 114.335 541.422 112.917 542.518 111.693C543.635 110.447 544.945 109.458 546.449 108.728C547.975 107.997 549.608 107.632 551.348 107.632C552.83 107.632 553.797 107.836 554.248 108.244C554.807 108.739 555.086 109.716 555.086 111.177ZM577.645 128.612C577.451 128.977 576.946 129.159 576.13 129.159C575.335 129.159 574.938 128.869 574.938 128.289C574.938 125.754 574.884 124.014 574.776 123.069C574.583 120.985 574.175 119.867 573.552 119.717C572.005 119.416 570.737 119.266 569.749 119.266C568.782 119.266 567.977 119.567 567.332 120.168C566.709 120.748 566.226 121.726 565.882 123.101C565.56 124.454 565.323 126.366 565.173 128.837H562.692C562.734 127.613 562.756 126.474 562.756 125.421C562.756 124.368 562.734 123.122 562.692 121.683C562.649 120.222 562.595 118.632 562.53 116.913C562.423 114.937 562.369 113.272 562.369 111.918C562.369 110.543 562.455 109.286 562.627 108.148C562.842 107.74 563.153 107.535 563.562 107.535C564.056 107.535 564.443 107.718 564.722 108.083C565.001 108.427 565.151 108.739 565.173 109.018L565.012 114.335C565.012 116.333 565.109 117.826 565.302 118.815C567.235 117.526 569.234 116.881 571.296 116.881C571.962 116.881 572.671 116.935 573.423 117.042C575.034 117.88 576.087 118.772 576.581 119.717C576.818 120.211 576.968 120.738 577.032 121.296C577.097 121.855 577.14 122.489 577.161 123.198C577.29 125.647 577.451 127.451 577.645 128.612ZM579.643 122.94C579.643 120.405 580.738 118.364 582.93 116.817C584.67 115.592 586.765 114.851 589.214 114.593C589.343 114.593 589.644 114.593 590.116 114.593C590.589 114.593 591.223 114.733 592.018 115.012C593.779 115.614 594.983 116.677 595.627 118.202C595.885 118.804 596.014 119.32 596.014 119.749C596.014 120.157 596.003 120.448 595.982 120.619C595.982 123.305 594.961 125.421 592.92 126.968C591.029 128.386 588.666 129.095 585.83 129.095C583.789 129.095 582.242 128.622 581.19 127.677C580.158 126.732 579.643 125.153 579.643 122.94ZM581.866 123.713C581.866 125.045 582.221 125.948 582.93 126.42C583.467 126.764 584.369 126.936 585.637 126.936C586.904 126.936 588.022 126.839 588.988 126.646C589.955 126.452 590.815 126.119 591.567 125.647C593.178 124.615 593.984 123.015 593.984 120.845C593.984 119.556 593.64 118.503 592.952 117.687C592.2 116.806 591.212 116.365 589.987 116.365C589.15 116.516 588.301 116.677 587.442 116.849C586.604 117.021 585.809 117.354 585.057 117.848C583.424 118.901 582.36 120.856 581.866 123.713ZM600.3 113.916C600.579 117.934 600.816 122.585 601.009 127.87C600.88 128.536 600.364 128.869 599.462 128.869C599.226 128.869 598.979 128.826 598.721 128.74C598.484 128.633 598.334 128.493 598.27 128.322V113.916H600.3ZM597.303 109.533C597.303 108.781 597.743 108.406 598.624 108.406C599.204 108.406 599.677 108.534 600.042 108.792C600.107 109.029 600.139 109.265 600.139 109.501C600.139 109.716 600.053 109.931 599.881 110.146C599.709 110.361 599.451 110.468 599.108 110.468C598.764 110.468 598.42 110.393 598.076 110.242C597.733 110.071 597.475 109.834 597.303 109.533ZM613.416 120.748C615.779 120.748 616.961 121.35 616.961 122.553C616.961 123.455 616.306 124.508 614.995 125.711C613.04 127.494 610.408 128.923 607.1 129.997C606.949 129.997 606.777 129.847 606.584 129.546C606.412 129.245 606.273 129.02 606.165 128.869C606.079 128.698 606.015 128.59 605.972 128.547C608.443 127.731 610.473 126.742 612.063 125.582C613.137 124.809 613.674 124.175 613.674 123.681C613.674 123.187 613.04 122.94 611.773 122.94C610.505 122.94 608.647 123.24 606.197 123.842C605.08 123.799 604.113 123.402 603.297 122.65C602.588 121.984 602.234 121.318 602.234 120.652C602.234 119.964 602.427 119.341 602.814 118.782C603.2 118.202 603.716 117.665 604.36 117.171C605.005 116.677 605.757 116.226 606.616 115.818C608.722 114.808 610.902 114.303 613.158 114.303C613.824 114.303 614.469 114.367 615.092 114.496C615.608 114.496 615.908 114.722 615.994 115.173C616.08 115.624 616.123 116.365 616.123 117.397C614.856 116.817 613.427 116.527 611.837 116.527C609.86 116.527 608.228 116.924 606.939 117.719C605.607 118.492 604.919 119.502 604.876 120.748C604.876 121.35 605.317 121.651 606.197 121.651L608.55 121.393C610.569 120.963 612.192 120.748 613.416 120.748ZM621.859 113.916C622.139 117.934 622.375 122.585 622.568 127.87C622.44 128.536 621.924 128.869 621.022 128.869C620.785 128.869 620.538 128.826 620.28 128.74C620.044 128.633 619.894 128.493 619.829 128.322V113.916H621.859ZM618.862 109.533C618.862 108.781 619.303 108.406 620.184 108.406C620.764 108.406 621.236 108.534 621.602 108.792C621.666 109.029 621.698 109.265 621.698 109.501C621.698 109.716 621.612 109.931 621.441 110.146C621.269 110.361 621.011 110.468 620.667 110.468C620.323 110.468 619.98 110.393 619.636 110.242C619.292 110.071 619.034 109.834 618.862 109.533ZM634.976 120.748C637.339 120.748 638.521 121.35 638.521 122.553C638.521 123.455 637.865 124.508 636.555 125.711C634.6 127.494 631.968 128.923 628.659 129.997C628.509 129.997 628.337 129.847 628.144 129.546C627.972 129.245 627.832 129.02 627.725 128.869C627.639 128.698 627.574 128.59 627.531 128.547C630.002 127.731 632.032 126.742 633.622 125.582C634.696 124.809 635.234 124.175 635.234 123.681C635.234 123.187 634.6 122.94 633.332 122.94C632.065 122.94 630.206 123.24 627.757 123.842C626.64 123.799 625.673 123.402 624.857 122.65C624.148 121.984 623.793 121.318 623.793 120.652C623.793 119.964 623.986 119.341 624.373 118.782C624.76 118.202 625.276 117.665 625.92 117.171C626.565 116.677 627.317 116.226 628.176 115.818C630.281 114.808 632.462 114.303 634.718 114.303C635.384 114.303 636.028 114.367 636.651 114.496C637.167 114.496 637.468 114.722 637.554 115.173C637.64 115.624 637.683 116.365 637.683 117.397C636.415 116.817 634.986 116.527 633.397 116.527C631.42 116.527 629.787 116.924 628.498 117.719C627.166 118.492 626.479 119.502 626.436 120.748C626.436 121.35 626.876 121.651 627.757 121.651L630.109 121.393C632.129 120.963 633.751 120.748 634.976 120.748ZM651.54 120.748C653.903 120.748 655.085 121.35 655.085 122.553C655.085 123.455 654.43 124.508 653.119 125.711C651.164 127.494 648.532 128.923 645.224 129.997C645.073 129.997 644.901 129.847 644.708 129.546C644.536 129.245 644.397 129.02 644.289 128.869C644.203 128.698 644.139 128.59 644.096 128.547C646.567 127.731 648.597 126.742 650.187 125.582C651.261 124.809 651.798 124.175 651.798 123.681C651.798 123.187 651.164 122.94 649.897 122.94C648.629 122.94 646.771 123.24 644.321 123.842C643.204 123.799 642.237 123.402 641.421 122.65C640.712 121.984 640.358 121.318 640.358 120.652C640.358 119.964 640.551 119.341 640.938 118.782C641.324 118.202 641.84 117.665 642.484 117.171C643.129 116.677 643.881 116.226 644.74 115.818C646.846 114.808 649.026 114.303 651.282 114.303C651.948 114.303 652.593 114.367 653.216 114.496C653.732 114.496 654.032 114.722 654.118 115.173C654.204 115.624 654.247 116.365 654.247 117.397C652.98 116.817 651.551 116.527 649.961 116.527C647.984 116.527 646.352 116.924 645.063 117.719C643.731 118.492 643.043 119.502 643 120.748C643 121.35 643.441 121.651 644.321 121.651L646.674 121.393C648.693 120.963 650.316 120.748 651.54 120.748ZM663.657 126.807C665.548 126.807 668.395 125.948 672.197 124.229C672.434 124.229 672.627 124.315 672.777 124.487C672.928 124.637 673.003 124.82 673.003 125.034C672.144 126.495 670.5 127.634 668.072 128.45C665.645 129.267 663.378 129.406 661.273 128.869C658.888 128.246 657.438 126.904 656.922 124.841C656.879 124.433 656.858 123.885 656.858 123.198C656.858 122.51 657.029 121.608 657.373 120.49C657.738 119.352 658.351 118.278 659.21 117.268C660.069 116.258 661.079 115.463 662.239 114.883C663.4 114.303 664.635 114.013 665.945 114.013C667.192 114.013 668.588 114.443 670.135 115.302C670.865 115.71 671.445 116.172 671.875 116.688C672.305 117.203 672.52 117.73 672.52 118.267C672.52 118.417 672.509 118.568 672.487 118.718C672.444 120.029 671.811 120.856 670.586 121.199C670.049 121.35 669.426 121.425 668.717 121.425L664.076 121.232C662.529 121.232 661.348 121.565 660.531 122.231C660.059 122.596 659.726 123.144 659.532 123.874C660.069 125.829 661.444 126.807 663.657 126.807ZM669.394 116.849C668.921 116.505 668.427 116.258 667.911 116.108C667.396 115.957 666.966 115.882 666.622 115.882C666.278 115.882 665.72 116 664.946 116.237C664.173 116.451 663.485 116.698 662.884 116.978C661.401 117.665 660.66 118.385 660.66 119.137C662.379 119.287 663.668 119.363 664.527 119.363C666.912 119.363 668.524 119.158 669.361 118.75C669.877 118.535 670.135 118.267 670.135 117.945C670.135 117.558 669.888 117.193 669.394 116.849ZM678.514 129.192C676.365 129.192 675.291 128.719 675.291 127.774C675.291 127.172 675.764 126.388 676.709 125.421C677.654 124.454 678.482 123.67 679.191 123.069C679.9 122.446 680.576 121.844 681.221 121.264C682.746 119.867 683.992 118.578 684.959 117.397C684.766 117.397 684.476 117.397 684.089 117.397C683.702 117.397 683.133 117.429 682.381 117.493C681.651 117.536 680.877 117.601 680.061 117.687C677.848 117.923 676.398 118.041 675.71 118.041C675.023 118.041 674.679 117.891 674.679 117.59C674.679 117.225 674.883 116.892 675.291 116.591C675.721 116.29 676.022 116.14 676.193 116.14C676.387 116.14 676.526 116.129 676.612 116.108C676.72 116.086 676.892 116.065 677.128 116.043C677.364 116 677.697 115.957 678.127 115.914C678.578 115.85 679.18 115.785 679.932 115.721C681.414 115.571 683.734 115.366 686.893 115.109C687.924 115.238 688.44 115.614 688.44 116.237C688.44 117.031 687.688 118.192 686.184 119.717C684.852 121.049 683.423 122.392 681.898 123.745C680.394 125.099 679.341 126.098 678.739 126.742C679.577 126.807 680.308 126.839 680.931 126.839L686.216 126.614C687.032 126.614 687.774 126.656 688.44 126.742C689.106 126.807 689.514 126.871 689.664 126.936C690.008 127.129 690.18 127.494 690.18 128.031C690.18 128.246 690.137 128.483 690.051 128.74C689.514 128.676 688.955 128.644 688.375 128.644C687.795 128.644 687.032 128.676 686.087 128.74C685.142 128.805 684.003 128.891 682.671 128.998C680.845 129.127 679.459 129.192 678.514 129.192ZM704.778 116.591C704.735 116.484 704.714 116.365 704.714 116.237C704.714 116.086 704.768 115.893 704.875 115.656C704.983 115.42 705.133 115.216 705.326 115.044C705.541 114.872 705.767 114.797 706.003 114.819C706.261 114.819 706.465 114.969 706.615 115.27L712.029 125.324C712.201 125.067 712.47 124.594 712.835 123.906C713.222 123.198 713.651 122.403 714.124 121.522C714.618 120.641 715.123 119.728 715.639 118.782C716.176 117.816 716.67 116.935 717.121 116.14C718.152 114.314 718.765 113.401 718.958 113.401C719.409 113.401 719.732 113.573 719.925 113.916C720.14 114.239 720.247 114.486 720.247 114.657C720.247 114.829 720.247 114.948 720.247 115.012C719.044 117.633 717.927 120.05 716.896 122.263C715.886 124.476 715.209 125.915 714.865 126.581C714.543 127.226 714.253 127.741 713.995 128.128C713.544 128.794 713.104 129.127 712.674 129.127C712.244 129.127 711.75 128.794 711.192 128.128C710.633 127.441 709.999 126.528 709.29 125.389C708.044 123.326 706.54 120.394 704.778 116.591ZM722.406 122.94C722.406 120.405 723.502 118.364 725.693 116.817C727.434 115.592 729.528 114.851 731.978 114.593C732.107 114.593 732.407 114.593 732.88 114.593C733.353 114.593 733.986 114.733 734.781 115.012C736.543 115.614 737.746 116.677 738.391 118.202C738.649 118.804 738.777 119.32 738.777 119.749C738.777 120.157 738.767 120.448 738.745 120.619C738.745 123.305 737.725 125.421 735.684 126.968C733.793 128.386 731.43 129.095 728.594 129.095C726.553 129.095 725.006 128.622 723.953 127.677C722.922 126.732 722.406 125.153 722.406 122.94ZM724.63 123.713C724.63 125.045 724.984 125.948 725.693 126.42C726.231 126.764 727.133 126.936 728.401 126.936C729.668 126.936 730.785 126.839 731.752 126.646C732.719 126.452 733.578 126.119 734.33 125.647C735.942 124.615 736.747 123.015 736.747 120.845C736.747 119.556 736.403 118.503 735.716 117.687C734.964 116.806 733.976 116.365 732.751 116.365C731.913 116.516 731.065 116.677 730.205 116.849C729.367 117.021 728.572 117.354 727.82 117.848C726.188 118.901 725.124 120.856 724.63 123.713ZM745.029 125.969L745.094 120.813C745.094 119.996 745.019 119.298 744.868 118.718H739.873L739.809 116.494H744.643V108.18C744.707 107.987 744.836 107.793 745.029 107.6C745.33 107.299 745.577 107.149 745.771 107.149C745.985 107.149 746.168 107.17 746.318 107.213C746.469 107.256 746.63 107.406 746.802 107.664C747.146 109.082 747.318 111.22 747.318 114.077C747.318 114.786 747.35 115.485 747.414 116.172C748.102 116.086 748.789 116.043 749.477 116.043C749.477 116.043 750.035 116.043 751.152 116.043C751.561 116.043 751.937 116.022 752.28 115.979L752.184 118.299L747.479 118.17L747.64 129.288C747.253 129.46 746.92 129.546 746.641 129.546C745.567 129.546 745.029 128.354 745.029 125.969ZM769.328 117.3C768.426 116.656 767.266 116.333 765.848 116.333C764.516 116.333 763.28 116.58 762.142 117.074C759.993 117.977 758.522 119.137 757.727 120.555C757.383 121.199 757.211 121.887 757.211 122.617C757.211 122.746 757.211 123.112 757.211 123.713C757.211 124.293 757.318 125.088 757.533 126.098C757.748 127.086 757.856 128.096 757.856 129.127C757.404 129.149 757.039 129.202 756.76 129.288C756.481 129.374 756.244 129.417 756.051 129.417C755.858 129.417 755.686 129.331 755.535 129.159C755.406 128.988 755.256 128.655 755.084 128.16C755.063 128.031 755.02 127.666 754.955 127.065C754.891 126.463 754.805 125.733 754.697 124.873C754.611 124.014 754.504 123.079 754.375 122.07C754.268 121.038 754.16 120.029 754.053 119.04C753.817 116.892 753.634 115.313 753.505 114.303C753.505 113.787 753.881 113.53 754.633 113.53C755.084 113.53 755.439 113.723 755.696 114.11C755.954 114.475 756.158 114.905 756.309 115.399C756.459 115.871 756.556 116.344 756.599 116.817C756.663 117.289 756.717 117.622 756.76 117.816C759.596 115.281 763.119 114.013 767.33 114.013C767.803 114.013 768.297 114.024 768.813 114.045C768.942 114.024 769.103 114.013 769.296 114.013C769.489 114.013 769.683 114.142 769.876 114.4C770.112 114.7 770.231 115.066 770.231 115.495C770.231 116.57 769.93 117.171 769.328 117.3ZM778.287 126.807C780.178 126.807 783.025 125.948 786.827 124.229C787.064 124.229 787.257 124.315 787.407 124.487C787.558 124.637 787.633 124.82 787.633 125.034C786.774 126.495 785.13 127.634 782.702 128.45C780.275 129.267 778.008 129.406 775.902 128.869C773.518 128.246 772.068 126.904 771.552 124.841C771.509 124.433 771.487 123.885 771.487 123.198C771.487 122.51 771.659 121.608 772.003 120.49C772.368 119.352 772.981 118.278 773.84 117.268C774.699 116.258 775.709 115.463 776.869 114.883C778.029 114.303 779.265 114.013 780.575 114.013C781.821 114.013 783.218 114.443 784.765 115.302C785.495 115.71 786.075 116.172 786.505 116.688C786.935 117.203 787.15 117.73 787.15 118.267C787.15 118.417 787.139 118.568 787.117 118.718C787.074 120.029 786.441 120.856 785.216 121.199C784.679 121.35 784.056 121.425 783.347 121.425L778.706 121.232C777.159 121.232 775.978 121.565 775.161 122.231C774.689 122.596 774.356 123.144 774.162 123.874C774.699 125.829 776.074 126.807 778.287 126.807ZM784.024 116.849C783.551 116.505 783.057 116.258 782.541 116.108C782.026 115.957 781.596 115.882 781.252 115.882C780.908 115.882 780.35 116 779.576 116.237C778.803 116.451 778.115 116.698 777.514 116.978C776.031 117.665 775.29 118.385 775.29 119.137C777.009 119.287 778.298 119.363 779.157 119.363C781.542 119.363 783.153 119.158 783.991 118.75C784.507 118.535 784.765 118.267 784.765 117.945C784.765 117.558 784.518 117.193 784.024 116.849ZM805.873 116.14C808.795 115.13 811.319 114.625 813.446 114.625C816.153 114.625 817.958 115.334 818.86 116.752C819.269 117.418 819.473 118.138 819.473 118.911C819.473 119.986 819.129 121.092 818.442 122.231C817.776 123.369 816.884 124.401 815.767 125.324C813.167 127.451 810.009 128.773 806.292 129.288C806.292 129.525 806.292 129.901 806.292 130.416C806.314 130.953 806.324 131.544 806.324 132.189C806.346 132.833 806.357 133.521 806.357 134.251C806.378 134.982 806.4 135.68 806.421 136.346C806.485 138 806.528 138.946 806.55 139.182C806.593 139.418 806.614 139.612 806.614 139.762C806.614 140.299 806.443 140.697 806.099 140.954C805.755 141.234 805.304 141.373 804.745 141.373C804.638 141.373 804.53 141.373 804.423 141.373L803.907 115.463C804.101 115.184 804.359 115.055 804.681 115.076C805.003 115.098 805.261 115.184 805.454 115.334C805.648 115.485 805.787 115.753 805.873 116.14ZM815.283 117.268C814.574 116.903 813.812 116.72 812.995 116.72C812.2 116.72 811.405 116.795 810.61 116.946C808.806 117.289 807.474 118.052 806.614 119.234C806.228 119.792 806.034 120.48 806.034 121.296C806.034 121.382 806.034 121.468 806.034 121.554V127.129C810.46 126.141 813.597 124.766 815.444 123.004C816.519 121.994 817.056 120.952 817.056 119.878C817.056 118.74 816.465 117.869 815.283 117.268ZM836.972 117.3C836.069 116.656 834.909 116.333 833.491 116.333C832.159 116.333 830.924 116.58 829.785 117.074C827.637 117.977 826.165 119.137 825.37 120.555C825.026 121.199 824.855 121.887 824.855 122.617C824.855 122.746 824.855 123.112 824.855 123.713C824.855 124.293 824.962 125.088 825.177 126.098C825.392 127.086 825.499 128.096 825.499 129.127C825.048 129.149 824.683 129.202 824.403 129.288C824.124 129.374 823.888 129.417 823.694 129.417C823.501 129.417 823.329 129.331 823.179 129.159C823.05 128.988 822.9 128.655 822.728 128.16C822.706 128.031 822.663 127.666 822.599 127.065C822.534 126.463 822.448 125.733 822.341 124.873C822.255 124.014 822.148 123.079 822.019 122.07C821.911 121.038 821.804 120.029 821.696 119.04C821.46 116.892 821.277 115.313 821.149 114.303C821.149 113.787 821.525 113.53 822.276 113.53C822.728 113.53 823.082 113.723 823.34 114.11C823.598 114.475 823.802 114.905 823.952 115.399C824.103 115.871 824.199 116.344 824.242 116.817C824.307 117.289 824.36 117.622 824.403 117.816C827.239 115.281 830.763 114.013 834.974 114.013C835.446 114.013 835.941 114.024 836.456 114.045C836.585 114.024 836.746 114.013 836.94 114.013C837.133 114.013 837.326 114.142 837.52 114.4C837.756 114.7 837.874 115.066 837.874 115.495C837.874 116.57 837.573 117.171 836.972 117.3ZM840.162 122.94C840.162 120.405 841.258 118.364 843.449 116.817C845.19 115.592 847.284 114.851 849.734 114.593C849.862 114.593 850.163 114.593 850.636 114.593C851.109 114.593 851.742 114.733 852.537 115.012C854.299 115.614 855.502 116.677 856.147 118.202C856.404 118.804 856.533 119.32 856.533 119.749C856.533 120.157 856.523 120.448 856.501 120.619C856.501 123.305 855.481 125.421 853.44 126.968C851.549 128.386 849.186 129.095 846.35 129.095C844.309 129.095 842.762 128.622 841.709 127.677C840.678 126.732 840.162 125.153 840.162 122.94ZM842.386 123.713C842.386 125.045 842.74 125.948 843.449 126.42C843.986 126.764 844.889 126.936 846.156 126.936C847.424 126.936 848.541 126.839 849.508 126.646C850.475 126.452 851.334 126.119 852.086 125.647C853.697 124.615 854.503 123.015 854.503 120.845C854.503 119.556 854.159 118.503 853.472 117.687C852.72 116.806 851.732 116.365 850.507 116.365C849.669 116.516 848.82 116.677 847.961 116.849C847.123 117.021 846.328 117.354 845.576 117.848C843.943 118.901 842.88 120.856 842.386 123.713ZM876.417 118.299C876.525 118.299 876.578 118.589 876.578 119.169C876.578 119.749 876.6 120.147 876.643 120.362L865.589 121.715L866.169 128.869L863.559 128.74C863.559 126.807 863.344 124.594 862.914 122.102L858.725 123.713C858.445 123.713 858.209 123.552 858.016 123.23C857.672 122.671 857.5 122.166 857.5 121.715L862.399 119.975C861.969 116.28 861.754 113.282 861.754 110.984C861.754 108.663 861.947 106.859 862.334 105.57C862.721 104.281 863.279 103.421 864.01 102.991C864.762 102.54 865.557 102.315 866.395 102.315C867.233 102.315 868.081 102.497 868.941 102.863C869.821 103.228 870.659 103.69 871.454 104.248C872.249 104.807 872.926 105.441 873.484 106.15C874.043 106.837 874.322 107.514 874.322 108.18C874.322 108.696 874.269 109.061 874.161 109.276C873.302 108.073 872.26 106.998 871.035 106.053C869.574 104.936 868.199 104.377 866.91 104.377C865.686 104.377 864.869 105.247 864.461 106.988C864.268 107.89 864.171 109.168 864.171 110.823C864.171 112.455 864.214 113.959 864.3 115.334C864.386 116.688 864.644 118.052 865.073 119.427C866.405 119.427 867.899 119.309 869.553 119.073C872.733 118.578 875.021 118.321 876.417 118.299ZM880.413 113.916C880.693 117.934 880.929 122.585 881.122 127.87C880.993 128.536 880.478 128.869 879.575 128.869C879.339 128.869 879.092 128.826 878.834 128.74C878.598 128.633 878.447 128.493 878.383 128.322V113.916H880.413ZM877.416 109.533C877.416 108.781 877.857 108.406 878.737 108.406C879.318 108.406 879.79 108.534 880.155 108.792C880.22 109.029 880.252 109.265 880.252 109.501C880.252 109.716 880.166 109.931 879.994 110.146C879.822 110.361 879.565 110.468 879.221 110.468C878.877 110.468 878.533 110.393 878.19 110.242C877.846 110.071 877.588 109.834 877.416 109.533ZM883.088 116.559C883.045 115.399 883.002 114.367 882.959 113.465C882.916 112.541 882.884 111.865 882.862 111.435C882.862 110.984 882.691 109.899 882.347 108.18C882.54 107.922 882.723 107.675 882.895 107.439C883.088 107.202 883.357 107.084 883.7 107.084C884.452 107.084 885.032 110.253 885.441 116.591C885.655 120.265 885.763 123.939 885.763 127.613C885.763 128.601 885.075 129.095 883.7 129.095L883.443 129.063C883.443 127.946 883.41 126.517 883.346 124.777C883.281 123.036 883.228 121.522 883.185 120.233C883.163 118.944 883.131 117.719 883.088 116.559ZM902.521 125.002C902.521 124.68 902.66 124.368 902.94 124.068C903.24 123.767 903.573 123.616 903.939 123.616C904.304 123.616 904.583 123.735 904.776 123.971C904.97 124.207 905.067 124.465 905.067 124.744C905.067 125.002 904.959 125.249 904.744 125.486C904.551 125.7 904.368 125.808 904.196 125.808C904.025 125.808 903.863 125.808 903.713 125.808C903.584 125.808 903.348 125.754 903.004 125.647C902.682 125.539 902.521 125.324 902.521 125.002ZM901.489 118.815C901.189 118.729 901.038 118.568 901.038 118.331C901.038 118.009 901.199 117.74 901.522 117.526C901.844 117.311 902.102 117.193 902.295 117.171C902.961 117.257 903.38 117.429 903.552 117.687C903.745 117.923 903.842 118.116 903.842 118.267C903.842 118.718 903.563 119.008 903.004 119.137C902.918 119.18 902.757 119.201 902.521 119.201C902.306 119.201 901.962 119.073 901.489 118.815Z" fill="#2B315B"/>
</svg>
