<svg width="368" height="40" viewBox="0 0 368 40" fill="none" xmlns="http://www.w3.org/2000/svg">
<path d="M17.0861 9.177C15.6896 7.802 14.1427 7.1145 12.4454 7.1145C10.8341 7.1145 9.28723 7.72681 7.80481 8.95142C5.93567 10.4983 4.64661 12.4963 3.93762 14.9456C3.67981 15.8264 3.5509 16.5569 3.5509 17.137C3.5509 17.717 3.57239 18.1682 3.61536 18.4905C3.61536 20.6174 4.33508 22.2502 5.77454 23.3889C7.12805 24.4417 8.85754 24.968 10.963 24.968C13.8419 24.7317 16.6027 23.6252 19.2452 21.6487C19.9757 21.0901 20.7491 20.553 21.5656 20.0374C21.8663 20.0374 22.1671 20.0803 22.4679 20.1663C22.7902 20.2522 22.9513 20.4993 22.9513 20.9075C20.8243 22.7551 19.0304 24.0872 17.5695 24.9036C14.8624 26.3645 12.4132 27.095 10.2218 27.095C10.0714 27.095 9.93176 27.095 9.80286 27.095C7.41809 27.095 5.37708 26.3538 3.67981 24.8713C1.87512 23.303 0.972778 21.3479 0.972778 19.0061C0.972778 17.2444 1.2843 15.5579 1.90735 13.9465C2.55188 12.3352 3.422 10.9172 4.5177 9.69263C5.63489 8.44653 6.94543 7.45825 8.44934 6.72778C9.97473 5.99731 11.6075 5.63208 13.3478 5.63208C14.8302 5.63208 15.797 5.83618 16.2482 6.24438C16.8068 6.73853 17.0861 7.71606 17.0861 9.177ZM39.6447 26.6116C39.4513 26.9768 38.9464 27.1594 38.13 27.1594C37.3351 27.1594 36.9376 26.8694 36.9376 26.2893C36.9376 23.7542 36.8839 22.0139 36.7765 21.0686C36.5831 18.9846 36.1749 17.8674 35.5519 17.717C34.005 17.4163 32.7374 17.2659 31.7491 17.2659C30.7823 17.2659 29.9767 17.5667 29.3322 18.1682C28.7091 18.7483 28.2257 19.7258 27.882 21.1008C27.5597 22.4543 27.3234 24.3665 27.173 26.8372H24.6915C24.7345 25.6125 24.756 24.4739 24.756 23.4211C24.756 22.3684 24.7345 21.1223 24.6915 19.6829C24.6486 18.2219 24.5948 16.6321 24.5304 14.9133C24.423 12.9368 24.3693 11.2717 24.3693 9.91821C24.3693 8.54321 24.4552 7.28638 24.6271 6.14771C24.8419 5.7395 25.1534 5.5354 25.5616 5.5354C26.0558 5.5354 26.4425 5.71802 26.7218 6.08325C27.0011 6.427 27.1515 6.73853 27.173 7.01782L27.0118 12.3352C27.0118 14.3333 27.1085 15.8264 27.3019 16.8147C29.2355 15.5256 31.2335 14.8811 33.296 14.8811C33.962 14.8811 34.671 14.9348 35.423 15.0422C37.0343 15.8801 38.087 16.7717 38.5812 17.717C38.8175 18.2112 38.9679 18.7375 39.0323 19.2961C39.0968 19.8547 39.1398 20.4885 39.1613 21.1975C39.2902 23.6467 39.4513 25.4514 39.6447 26.6116ZM41.6427 20.9397C41.6427 18.4045 42.7384 16.3635 44.9298 14.8167C46.67 13.592 48.7648 12.8508 51.214 12.593C51.3429 12.593 51.6437 12.593 52.1163 12.593C52.589 12.593 53.2228 12.7327 54.0177 13.012C55.7794 13.6135 56.9825 14.677 57.6271 16.2024C57.8849 16.804 58.0138 17.3196 58.0138 17.7493C58.0138 18.1575 58.0031 18.4475 57.9816 18.6194C57.9816 21.3049 56.9611 23.4211 54.92 24.968C53.0294 26.386 50.6661 27.095 47.8302 27.095C45.7892 27.095 44.2423 26.6223 43.1896 25.677C42.1583 24.7317 41.6427 23.1526 41.6427 20.9397ZM43.8663 21.7131C43.8663 23.0452 44.2208 23.9475 44.9298 24.4202C45.4669 24.7639 46.3693 24.9358 47.6368 24.9358C48.9044 24.9358 50.0216 24.8391 50.9884 24.6458C51.9552 24.4524 52.8146 24.1194 53.5665 23.6467C55.1779 22.6155 55.9835 21.0149 55.9835 18.845C55.9835 17.5559 55.6398 16.5032 54.9523 15.6868C54.2003 14.8059 53.212 14.3655 51.9874 14.3655C51.1495 14.5159 50.3009 14.677 49.4415 14.8489C48.6036 15.0208 47.8087 15.3538 47.0568 15.8479C45.424 16.9006 44.3605 18.8557 43.8663 21.7131ZM62.2999 11.9163C62.5792 15.9338 62.8156 20.5852 63.0089 25.8704C62.88 26.5364 62.3644 26.8694 61.462 26.8694C61.2257 26.8694 60.9786 26.8264 60.7208 26.7405C60.4845 26.6331 60.3341 26.4934 60.2697 26.3215V11.9163H62.2999ZM59.3029 7.53345C59.3029 6.78149 59.7433 6.40552 60.6241 6.40552C61.2042 6.40552 61.6769 6.53442 62.0421 6.79224C62.1066 7.02856 62.1388 7.26489 62.1388 7.50122C62.1388 7.71606 62.0529 7.93091 61.881 8.14575C61.7091 8.3606 61.4513 8.46802 61.1075 8.46802C60.7638 8.46802 60.42 8.39282 60.0763 8.24243C59.7325 8.07056 59.4747 7.83423 59.3029 7.53345ZM75.4161 18.7483C77.7794 18.7483 78.9611 19.3499 78.9611 20.553C78.9611 21.4553 78.3058 22.5081 76.9952 23.7112C75.0402 25.4944 72.4083 26.9231 69.0997 27.9973C68.9493 27.9973 68.7775 27.8469 68.5841 27.5461C68.4122 27.2454 68.2726 27.0198 68.1652 26.8694C68.0792 26.6975 68.0148 26.5901 67.9718 26.5471C70.4425 25.7307 72.4728 24.7424 74.0626 23.5823C75.1368 22.8088 75.674 22.175 75.674 21.6809C75.674 21.1868 75.0402 20.9397 73.7726 20.9397C72.505 20.9397 70.6466 21.2405 68.1974 21.842C67.0802 21.7991 66.1134 21.4016 65.297 20.6497C64.588 19.9836 64.2335 19.3176 64.2335 18.6516C64.2335 17.9641 64.4269 17.3411 64.8136 16.7825C65.2003 16.2024 65.7159 15.6653 66.3605 15.1711C67.005 14.677 67.757 14.2258 68.6163 13.8176C70.7218 12.8079 72.9025 12.303 75.1583 12.303C75.8243 12.303 76.4689 12.3674 77.0919 12.4963C77.6075 12.4963 77.9083 12.7219 77.9943 13.1731C78.0802 13.6243 78.1232 14.3655 78.1232 15.3967C76.8556 14.8167 75.4269 14.5266 73.837 14.5266C71.8605 14.5266 70.2277 14.9241 68.9386 15.719C67.6066 16.4924 66.9191 17.5022 66.8761 18.7483C66.8761 19.3499 67.3165 19.6506 68.1974 19.6506L70.5499 19.3928C72.5695 18.9631 74.1915 18.7483 75.4161 18.7483ZM83.8595 11.9163C84.1388 15.9338 84.3751 20.5852 84.5685 25.8704C84.4396 26.5364 83.924 26.8694 83.0216 26.8694C82.7853 26.8694 82.5382 26.8264 82.2804 26.7405C82.0441 26.6331 81.8937 26.4934 81.8292 26.3215V11.9163H83.8595ZM80.8624 7.53345C80.8624 6.78149 81.3029 6.40552 82.1837 6.40552C82.7638 6.40552 83.2365 6.53442 83.6017 6.79224C83.6661 7.02856 83.6984 7.26489 83.6984 7.50122C83.6984 7.71606 83.6124 7.93091 83.4406 8.14575C83.2687 8.3606 83.0109 8.46802 82.6671 8.46802C82.3234 8.46802 81.9796 8.39282 81.6359 8.24243C81.2921 8.07056 81.0343 7.83423 80.8624 7.53345ZM96.9757 18.7483C99.339 18.7483 100.521 19.3499 100.521 20.553C100.521 21.4553 99.8654 22.5081 98.5548 23.7112C96.5997 25.4944 93.9679 26.9231 90.6593 27.9973C90.5089 27.9973 90.337 27.8469 90.1437 27.5461C89.9718 27.2454 89.8322 27.0198 89.7247 26.8694C89.6388 26.6975 89.5743 26.5901 89.5314 26.5471C92.0021 25.7307 94.0323 24.7424 95.6222 23.5823C96.6964 22.8088 97.2335 22.175 97.2335 21.6809C97.2335 21.1868 96.5997 20.9397 95.3322 20.9397C94.0646 20.9397 92.2062 21.2405 89.757 21.842C88.6398 21.7991 87.673 21.4016 86.8566 20.6497C86.1476 19.9836 85.7931 19.3176 85.7931 18.6516C85.7931 17.9641 85.9865 17.3411 86.3732 16.7825C86.7599 16.2024 87.2755 15.6653 87.92 15.1711C88.5646 14.677 89.3165 14.2258 90.1759 13.8176C92.2814 12.8079 94.462 12.303 96.7179 12.303C97.3839 12.303 98.0284 12.3674 98.6515 12.4963C99.1671 12.4963 99.4679 12.7219 99.5538 13.1731C99.6398 13.6243 99.6827 14.3655 99.6827 15.3967C98.4152 14.8167 96.9865 14.5266 95.3966 14.5266C93.42 14.5266 91.7872 14.9241 90.4982 15.719C89.1661 16.4924 88.4786 17.5022 88.4357 18.7483C88.4357 19.3499 88.8761 19.6506 89.757 19.6506L92.1095 19.3928C94.129 18.9631 95.7511 18.7483 96.9757 18.7483ZM113.54 18.7483C115.903 18.7483 117.085 19.3499 117.085 20.553C117.085 21.4553 116.43 22.5081 115.119 23.7112C113.164 25.4944 110.532 26.9231 107.224 27.9973C107.073 27.9973 106.901 27.8469 106.708 27.5461C106.536 27.2454 106.397 27.0198 106.289 26.8694C106.203 26.6975 106.139 26.5901 106.096 26.5471C108.567 25.7307 110.597 24.7424 112.187 23.5823C113.261 22.8088 113.798 22.175 113.798 21.6809C113.798 21.1868 113.164 20.9397 111.897 20.9397C110.629 20.9397 108.771 21.2405 106.321 21.842C105.204 21.7991 104.237 21.4016 103.421 20.6497C102.712 19.9836 102.358 19.3176 102.358 18.6516C102.358 17.9641 102.551 17.3411 102.938 16.7825C103.324 16.2024 103.84 15.6653 104.484 15.1711C105.129 14.677 105.881 14.2258 106.74 13.8176C108.846 12.8079 111.026 12.303 113.282 12.303C113.948 12.303 114.593 12.3674 115.216 12.4963C115.732 12.4963 116.032 12.7219 116.118 13.1731C116.204 13.6243 116.247 14.3655 116.247 15.3967C114.98 14.8167 113.551 14.5266 111.961 14.5266C109.984 14.5266 108.352 14.9241 107.063 15.719C105.731 16.4924 105.043 17.5022 105 18.7483C105 19.3499 105.441 19.6506 106.321 19.6506L108.674 19.3928C110.693 18.9631 112.316 18.7483 113.54 18.7483ZM125.657 24.8069C127.548 24.8069 130.395 23.9475 134.197 22.2288C134.434 22.2288 134.627 22.3147 134.777 22.4866C134.928 22.637 135.003 22.8196 135.003 23.0344C134.144 24.4954 132.5 25.634 130.072 26.4504C127.645 27.2668 125.378 27.4065 123.273 26.8694C120.888 26.2463 119.438 24.9036 118.922 22.8411C118.879 22.4329 118.858 21.885 118.858 21.1975C118.858 20.51 119.029 19.6077 119.373 18.4905C119.738 17.3518 120.351 16.2776 121.21 15.2678C122.069 14.2581 123.079 13.4631 124.239 12.8831C125.4 12.303 126.635 12.0129 127.945 12.0129C129.192 12.0129 130.588 12.4426 132.135 13.302C132.865 13.7102 133.445 14.1721 133.875 14.6877C134.305 15.2034 134.52 15.7297 134.52 16.2668C134.52 16.4172 134.509 16.5676 134.487 16.718C134.444 18.0286 133.811 18.8557 132.586 19.1995C132.049 19.3499 131.426 19.425 130.717 19.425L126.076 19.2317C124.529 19.2317 123.348 19.5647 122.531 20.2307C122.059 20.5959 121.726 21.1438 121.532 21.8743C122.069 23.8293 123.444 24.8069 125.657 24.8069ZM131.394 14.8489C130.921 14.5051 130.427 14.2581 129.911 14.1077C129.396 13.9573 128.966 13.8821 128.622 13.8821C128.278 13.8821 127.72 14.0002 126.946 14.2366C126.173 14.4514 125.485 14.6985 124.884 14.9778C123.401 15.6653 122.66 16.385 122.66 17.137C124.379 17.2874 125.668 17.3625 126.527 17.3625C128.912 17.3625 130.524 17.1584 131.361 16.7502C131.877 16.5354 132.135 16.2668 132.135 15.9446C132.135 15.5579 131.888 15.1926 131.394 14.8489ZM140.514 27.1917C138.365 27.1917 137.291 26.719 137.291 25.7737C137.291 25.1721 137.764 24.3879 138.709 23.4211C139.654 22.4543 140.482 21.6702 141.191 21.0686C141.9 20.4456 142.576 19.844 143.221 19.2639C144.746 17.8674 145.992 16.5784 146.959 15.3967C146.766 15.3967 146.476 15.3967 146.089 15.3967C145.702 15.3967 145.133 15.429 144.381 15.4934C143.651 15.5364 142.877 15.6008 142.061 15.6868C139.848 15.9231 138.398 16.0413 137.71 16.0413C137.023 16.0413 136.679 15.8909 136.679 15.5901C136.679 15.2249 136.883 14.8918 137.291 14.5911C137.721 14.2903 138.022 14.1399 138.193 14.1399C138.387 14.1399 138.526 14.1292 138.612 14.1077C138.72 14.0862 138.892 14.0647 139.128 14.0432C139.364 14.0002 139.697 13.9573 140.127 13.9143C140.578 13.8499 141.18 13.7854 141.932 13.7209C143.414 13.5706 145.734 13.3665 148.893 13.1086C149.924 13.2375 150.44 13.6135 150.44 14.2366C150.44 15.0315 149.688 16.1917 148.184 17.717C146.852 19.0491 145.423 20.3918 143.898 21.7454C142.394 23.0989 141.341 24.0979 140.739 24.7424C141.577 24.8069 142.308 24.8391 142.931 24.8391L148.216 24.6135C149.032 24.6135 149.774 24.6565 150.44 24.7424C151.106 24.8069 151.514 24.8713 151.664 24.9358C152.008 25.1292 152.18 25.4944 152.18 26.0315C152.18 26.2463 152.137 26.4827 152.051 26.7405C151.514 26.676 150.955 26.6438 150.375 26.6438C149.795 26.6438 149.032 26.676 148.087 26.7405C147.142 26.8049 146.003 26.8909 144.671 26.9983C142.845 27.1272 141.459 27.1917 140.514 27.1917ZM166.778 14.5911C166.735 14.4836 166.714 14.3655 166.714 14.2366C166.714 14.0862 166.768 13.8928 166.875 13.6565C166.983 13.4202 167.133 13.2161 167.326 13.0442C167.541 12.8723 167.767 12.7971 168.003 12.8186C168.261 12.8186 168.465 12.969 168.615 13.2698L174.029 23.3245C174.201 23.0667 174.47 22.594 174.835 21.9065C175.222 21.1975 175.651 20.4026 176.124 19.5217C176.618 18.6409 177.123 17.7278 177.639 16.7825C178.176 15.8157 178.67 14.9348 179.121 14.1399C180.152 12.3137 180.765 11.4006 180.958 11.4006C181.409 11.4006 181.732 11.5725 181.925 11.9163C182.14 12.2385 182.247 12.4856 182.247 12.6575C182.247 12.8293 182.247 12.9475 182.247 13.012C181.044 15.6331 179.927 18.05 178.896 20.2629C177.886 22.4758 177.209 23.9153 176.865 24.5813C176.543 25.2258 176.253 25.7415 175.995 26.1282C175.544 26.7942 175.104 27.1272 174.674 27.1272C174.244 27.1272 173.75 26.7942 173.192 26.1282C172.633 25.4407 171.999 24.5276 171.29 23.3889C170.044 21.3264 168.54 18.3938 166.778 14.5911ZM184.406 20.9397C184.406 18.4045 185.502 16.3635 187.693 14.8167C189.434 13.592 191.528 12.8508 193.978 12.593C194.107 12.593 194.407 12.593 194.88 12.593C195.353 12.593 195.986 12.7327 196.781 13.012C198.543 13.6135 199.746 14.677 200.391 16.2024C200.649 16.804 200.777 17.3196 200.777 17.7493C200.777 18.1575 200.767 18.4475 200.745 18.6194C200.745 21.3049 199.725 23.4211 197.684 24.968C195.793 26.386 193.43 27.095 190.594 27.095C188.553 27.095 187.006 26.6223 185.953 25.677C184.922 24.7317 184.406 23.1526 184.406 20.9397ZM186.63 21.7131C186.63 23.0452 186.984 23.9475 187.693 24.4202C188.231 24.7639 189.133 24.9358 190.401 24.9358C191.668 24.9358 192.785 24.8391 193.752 24.6458C194.719 24.4524 195.578 24.1194 196.33 23.6467C197.942 22.6155 198.747 21.0149 198.747 18.845C198.747 17.5559 198.403 16.5032 197.716 15.6868C196.964 14.8059 195.976 14.3655 194.751 14.3655C193.913 14.5159 193.065 14.677 192.205 14.8489C191.367 15.0208 190.572 15.3538 189.82 15.8479C188.188 16.9006 187.124 18.8557 186.63 21.7131ZM207.029 23.969L207.094 18.8127C207.094 17.9963 207.019 17.2981 206.868 16.718H201.873L201.809 14.4944H206.643V6.17993C206.707 5.98657 206.836 5.79321 207.029 5.59985C207.33 5.29907 207.577 5.14868 207.771 5.14868C207.985 5.14868 208.168 5.17017 208.318 5.21313C208.469 5.2561 208.63 5.40649 208.802 5.66431C209.146 7.08228 209.318 9.21997 209.318 12.0774C209.318 12.7864 209.35 13.4846 209.414 14.1721C210.102 14.0862 210.789 14.0432 211.477 14.0432C211.477 14.0432 212.035 14.0432 213.152 14.0432C213.561 14.0432 213.937 14.0217 214.28 13.9788L214.184 16.2991L209.479 16.1702L209.64 27.2883C209.253 27.4602 208.92 27.5461 208.641 27.5461C207.567 27.5461 207.029 26.3538 207.029 23.969ZM231.328 15.3C230.426 14.6555 229.266 14.3333 227.848 14.3333C226.516 14.3333 225.28 14.5803 224.142 15.0745C221.993 15.9768 220.522 17.137 219.727 18.5549C219.383 19.1995 219.211 19.887 219.211 20.6174C219.211 20.7463 219.211 21.1116 219.211 21.7131C219.211 22.2932 219.318 23.0881 219.533 24.0979C219.748 25.0862 219.856 26.0959 219.856 27.1272C219.404 27.1487 219.039 27.2024 218.76 27.2883C218.481 27.3743 218.244 27.4172 218.051 27.4172C217.858 27.4172 217.686 27.3313 217.535 27.1594C217.406 26.9875 217.256 26.6545 217.084 26.1604C217.063 26.0315 217.02 25.6663 216.955 25.0647C216.891 24.4631 216.805 23.7327 216.697 22.8733C216.611 22.0139 216.504 21.0793 216.375 20.0696C216.268 19.0383 216.16 18.0286 216.053 17.0403C215.817 14.8918 215.634 13.3127 215.505 12.303C215.505 11.7874 215.881 11.5295 216.633 11.5295C217.084 11.5295 217.439 11.7229 217.696 12.1096C217.954 12.4749 218.158 12.9045 218.309 13.3987C218.459 13.8713 218.556 14.344 218.599 14.8167C218.663 15.2893 218.717 15.6223 218.76 15.8157C221.596 13.2805 225.119 12.0129 229.33 12.0129C229.803 12.0129 230.297 12.0237 230.813 12.0452C230.942 12.0237 231.103 12.0129 231.296 12.0129C231.489 12.0129 231.683 12.1418 231.876 12.3997C232.112 12.7004 232.231 13.0657 232.231 13.4954C232.231 14.5696 231.93 15.1711 231.328 15.3ZM240.287 24.8069C242.178 24.8069 245.025 23.9475 248.827 22.2288C249.064 22.2288 249.257 22.3147 249.407 22.4866C249.558 22.637 249.633 22.8196 249.633 23.0344C248.774 24.4954 247.13 25.634 244.702 26.4504C242.275 27.2668 240.008 27.4065 237.902 26.8694C235.518 26.2463 234.068 24.9036 233.552 22.8411C233.509 22.4329 233.487 21.885 233.487 21.1975C233.487 20.51 233.659 19.6077 234.003 18.4905C234.368 17.3518 234.981 16.2776 235.84 15.2678C236.699 14.2581 237.709 13.4631 238.869 12.8831C240.029 12.303 241.265 12.0129 242.575 12.0129C243.821 12.0129 245.218 12.4426 246.765 13.302C247.495 13.7102 248.075 14.1721 248.505 14.6877C248.935 15.2034 249.15 15.7297 249.15 16.2668C249.15 16.4172 249.139 16.5676 249.117 16.718C249.074 18.0286 248.441 18.8557 247.216 19.1995C246.679 19.3499 246.056 19.425 245.347 19.425L240.706 19.2317C239.159 19.2317 237.978 19.5647 237.161 20.2307C236.689 20.5959 236.356 21.1438 236.162 21.8743C236.699 23.8293 238.074 24.8069 240.287 24.8069ZM246.024 14.8489C245.551 14.5051 245.057 14.2581 244.541 14.1077C244.026 13.9573 243.596 13.8821 243.252 13.8821C242.908 13.8821 242.35 14.0002 241.576 14.2366C240.803 14.4514 240.115 14.6985 239.514 14.9778C238.031 15.6653 237.29 16.385 237.29 17.137C239.009 17.2874 240.298 17.3625 241.157 17.3625C243.542 17.3625 245.153 17.1584 245.991 16.7502C246.507 16.5354 246.765 16.2668 246.765 15.9446C246.765 15.5579 246.518 15.1926 246.024 14.8489ZM267.873 14.1399C270.795 13.1301 273.319 12.6252 275.446 12.6252C278.153 12.6252 279.958 13.3342 280.86 14.7522C281.269 15.4182 281.473 16.1379 281.473 16.9114C281.473 17.9856 281.129 19.092 280.442 20.2307C279.776 21.3694 278.884 22.4006 277.767 23.3245C275.167 25.4514 272.009 26.7727 268.292 27.2883C268.292 27.5247 268.292 27.9006 268.292 28.4163C268.314 28.9534 268.324 29.5442 268.324 30.1887C268.346 30.8333 268.357 31.5208 268.357 32.2512C268.378 32.9817 268.4 33.6799 268.421 34.3459C268.485 36.0002 268.528 36.9456 268.55 37.1819C268.593 37.4182 268.614 37.6116 268.614 37.762C268.614 38.2991 268.443 38.6965 268.099 38.9543C267.755 39.2336 267.304 39.3733 266.745 39.3733C266.638 39.3733 266.53 39.3733 266.423 39.3733L265.907 13.4631C266.101 13.1838 266.359 13.0549 266.681 13.0764C267.003 13.0979 267.261 13.1838 267.454 13.3342C267.648 13.4846 267.787 13.7532 267.873 14.1399ZM277.283 15.2678C276.574 14.9026 275.812 14.72 274.995 14.72C274.2 14.72 273.405 14.7952 272.61 14.9456C270.806 15.2893 269.474 16.052 268.614 17.2336C268.228 17.7922 268.034 18.4797 268.034 19.2961C268.034 19.3821 268.034 19.468 268.034 19.554V25.1292C272.46 24.1409 275.597 22.7659 277.444 21.0042C278.519 19.9944 279.056 18.9524 279.056 17.8782C279.056 16.7395 278.465 15.8694 277.283 15.2678ZM298.972 15.3C298.069 14.6555 296.909 14.3333 295.491 14.3333C294.159 14.3333 292.924 14.5803 291.785 15.0745C289.637 15.9768 288.165 17.137 287.37 18.5549C287.026 19.1995 286.855 19.887 286.855 20.6174C286.855 20.7463 286.855 21.1116 286.855 21.7131C286.855 22.2932 286.962 23.0881 287.177 24.0979C287.392 25.0862 287.499 26.0959 287.499 27.1272C287.048 27.1487 286.683 27.2024 286.403 27.2883C286.124 27.3743 285.888 27.4172 285.694 27.4172C285.501 27.4172 285.329 27.3313 285.179 27.1594C285.05 26.9875 284.9 26.6545 284.728 26.1604C284.706 26.0315 284.663 25.6663 284.599 25.0647C284.534 24.4631 284.448 23.7327 284.341 22.8733C284.255 22.0139 284.148 21.0793 284.019 20.0696C283.911 19.0383 283.804 18.0286 283.696 17.0403C283.46 14.8918 283.277 13.3127 283.149 12.303C283.149 11.7874 283.525 11.5295 284.276 11.5295C284.728 11.5295 285.082 11.7229 285.34 12.1096C285.598 12.4749 285.802 12.9045 285.952 13.3987C286.103 13.8713 286.199 14.344 286.242 14.8167C286.307 15.2893 286.36 15.6223 286.403 15.8157C289.239 13.2805 292.763 12.0129 296.974 12.0129C297.446 12.0129 297.941 12.0237 298.456 12.0452C298.585 12.0237 298.746 12.0129 298.94 12.0129C299.133 12.0129 299.326 12.1418 299.52 12.3997C299.756 12.7004 299.874 13.0657 299.874 13.4954C299.874 14.5696 299.573 15.1711 298.972 15.3ZM302.162 20.9397C302.162 18.4045 303.258 16.3635 305.449 14.8167C307.19 13.592 309.284 12.8508 311.734 12.593C311.862 12.593 312.163 12.593 312.636 12.593C313.109 12.593 313.742 12.7327 314.537 13.012C316.299 13.6135 317.502 14.677 318.147 16.2024C318.404 16.804 318.533 17.3196 318.533 17.7493C318.533 18.1575 318.523 18.4475 318.501 18.6194C318.501 21.3049 317.481 23.4211 315.44 24.968C313.549 26.386 311.186 27.095 308.35 27.095C306.309 27.095 304.762 26.6223 303.709 25.677C302.678 24.7317 302.162 23.1526 302.162 20.9397ZM304.386 21.7131C304.386 23.0452 304.74 23.9475 305.449 24.4202C305.986 24.7639 306.889 24.9358 308.156 24.9358C309.424 24.9358 310.541 24.8391 311.508 24.6458C312.475 24.4524 313.334 24.1194 314.086 23.6467C315.697 22.6155 316.503 21.0149 316.503 18.845C316.503 17.5559 316.159 16.5032 315.472 15.6868C314.72 14.8059 313.732 14.3655 312.507 14.3655C311.669 14.5159 310.82 14.677 309.961 14.8489C309.123 15.0208 308.328 15.3538 307.576 15.8479C305.943 16.9006 304.88 18.8557 304.386 21.7131ZM338.417 16.2991C338.525 16.2991 338.578 16.5891 338.578 17.1692C338.578 17.7493 338.6 18.1467 338.643 18.3616L327.589 19.7151L328.169 26.8694L325.559 26.7405C325.559 24.8069 325.344 22.594 324.914 20.1018L320.725 21.7131C320.445 21.7131 320.209 21.552 320.016 21.2297C319.672 20.6711 319.5 20.1663 319.5 19.7151L324.399 17.9749C323.969 14.2795 323.754 11.2825 323.754 8.98364C323.754 6.66333 323.947 4.85864 324.334 3.56958C324.721 2.28052 325.279 1.42114 326.01 0.991455C326.762 0.540283 327.557 0.314697 328.395 0.314697C329.233 0.314697 330.081 0.497314 330.941 0.862549C331.821 1.22778 332.659 1.6897 333.454 2.24829C334.249 2.80688 334.926 3.44067 335.484 4.14966C336.043 4.83716 336.322 5.51392 336.322 6.17993C336.322 6.69556 336.269 7.06079 336.161 7.27563C335.302 6.07251 334.26 4.99829 333.035 4.05298C331.574 2.93579 330.199 2.3772 328.91 2.3772C327.686 2.3772 326.869 3.24731 326.461 4.98755C326.268 5.88989 326.171 7.16821 326.171 8.82251C326.171 10.4553 326.214 11.9592 326.3 13.3342C326.386 14.6877 326.644 16.052 327.073 17.427C328.405 17.427 329.899 17.3088 331.553 17.0725C334.733 16.5784 337.021 16.3206 338.417 16.2991ZM342.413 11.9163C342.693 15.9338 342.929 20.5852 343.122 25.8704C342.993 26.5364 342.478 26.8694 341.575 26.8694C341.339 26.8694 341.092 26.8264 340.834 26.7405C340.598 26.6331 340.447 26.4934 340.383 26.3215V11.9163H342.413ZM339.416 7.53345C339.416 6.78149 339.857 6.40552 340.737 6.40552C341.318 6.40552 341.79 6.53442 342.155 6.79224C342.22 7.02856 342.252 7.26489 342.252 7.50122C342.252 7.71606 342.166 7.93091 341.994 8.14575C341.822 8.3606 341.565 8.46802 341.221 8.46802C340.877 8.46802 340.533 8.39282 340.19 8.24243C339.846 8.07056 339.588 7.83423 339.416 7.53345ZM345.088 14.5588C345.045 13.3987 345.002 12.3674 344.959 11.4651C344.916 10.5413 344.884 9.8645 344.862 9.43481C344.862 8.98364 344.691 7.89868 344.347 6.17993C344.54 5.92212 344.723 5.67505 344.895 5.43872C345.088 5.20239 345.357 5.08423 345.7 5.08423C346.452 5.08423 347.032 8.25317 347.441 14.5911C347.655 18.2649 347.763 21.9387 347.763 25.6125C347.763 26.6008 347.075 27.095 345.7 27.095L345.443 27.0627C345.443 25.9456 345.41 24.5168 345.346 22.7766C345.281 21.0364 345.228 19.5217 345.185 18.2327C345.163 16.9436 345.131 15.719 345.088 14.5588ZM364.521 23.0022C364.521 22.6799 364.66 22.3684 364.94 22.0676C365.24 21.7668 365.573 21.6165 365.939 21.6165C366.304 21.6165 366.583 21.7346 366.776 21.9709C366.97 22.2073 367.067 22.4651 367.067 22.7444C367.067 23.0022 366.959 23.2493 366.744 23.4856C366.551 23.7004 366.368 23.8079 366.196 23.8079C366.025 23.8079 365.863 23.8079 365.713 23.8079C365.584 23.8079 365.348 23.7542 365.004 23.6467C364.682 23.5393 364.521 23.3245 364.521 23.0022ZM363.489 16.8147C363.189 16.7288 363.038 16.5676 363.038 16.3313C363.038 16.009 363.199 15.7405 363.522 15.5256C363.844 15.3108 364.102 15.1926 364.295 15.1711C364.961 15.2571 365.38 15.429 365.552 15.6868C365.745 15.9231 365.842 16.1165 365.842 16.2668C365.842 16.718 365.563 17.0081 365.004 17.137C364.918 17.1799 364.757 17.2014 364.521 17.2014C364.306 17.2014 363.962 17.0725 363.489 16.8147Z" fill="#2B315B"/>
</svg>
