<svg width="5770" height="842" viewBox="0 0 5770 841" fill="none" xmlns="http://www.w3.org/2000/svg">
    <rect width="5770" height="841" fill="#FED3D0"/>
    <path d="M1162.03 317H1063.9C1054.6 317 1047 309.463 1047 300.091C1047 290.784 1054.53 283.182 1063.9 283.182H1097.7C1098.29 283.182 1098.82 282.658 1098.82 282.068C1098.82 267.125 1110.94 255 1125.87 255C1140.81 255 1152.93 267.125 1152.93 282.068C1152.93 282.658 1153.45 283.182 1154.04 283.182H1162.1C1171.4 283.182 1179 290.719 1179 300.091C1178.93 309.463 1171.34 317 1162.03 317Z" fill="white"/>
    <path d="M382.967 450H481.099C490.401 450 498 442.463 498 433.091C498 423.784 490.467 416.182 481.099 416.182H447.296C446.707 416.182 446.183 415.658 446.183 415.068C446.183 400.125 434.064 388 419.128 388C404.192 388 392.072 400.125 392.072 415.068C392.072 415.658 391.548 416.182 390.959 416.182H382.901C373.599 416.182 366 423.719 366 433.091C366.066 442.463 373.665 450 382.967 450Z" fill="white"/>
    <path d="M1361.6 158.319H1211.8C1197.6 158.319 1186 146.853 1186 132.596C1186 118.438 1197.5 106.872 1211.8 106.872H1263.4C1264.3 106.872 1265.1 106.075 1265.1 105.177C1265.1 82.445 1283.6 64 1306.4 64C1329.2 64 1347.7 82.445 1347.7 105.177C1347.7 106.075 1348.5 106.872 1349.4 106.872H1361.7C1375.9 106.872 1387.5 118.338 1387.5 132.596C1387.4 146.853 1375.8 158.319 1361.6 158.319Z" fill="white"/>
    <path d="M2444.9 182.319H2594.7C2608.9 182.319 2620.5 170.853 2620.5 156.596C2620.5 142.438 2609 130.872 2594.7 130.872H2543.1C2542.2 130.872 2541.4 130.075 2541.4 129.177C2541.4 106.445 2522.9 88 2500.1 88C2477.3 88 2458.8 106.445 2458.8 129.177C2458.8 130.075 2458 130.872 2457.1 130.872H2444.8C2430.6 130.872 2419 142.338 2419 156.596C2419.1 170.853 2430.7 182.319 2444.9 182.319Z" fill="white"/>
    <path d="M3777.03 113H3678.9C3669.6 113 3662 105.463 3662 96.0909C3662 86.7844 3669.53 79.1818 3678.9 79.1818H3712.7C3713.29 79.1818 3713.82 78.6575 3713.82 78.0677C3713.82 63.1247 3725.94 51 3740.87 51C3755.81 51 3767.93 63.1247 3767.93 78.0677C3767.93 78.6575 3768.45 79.1818 3769.04 79.1818H3777.1C3786.4 79.1818 3794 86.7188 3794 96.0909C3793.93 105.463 3786.34 113 3777.03 113Z" fill="white"/>
    <path d="M3542.6 218.319H3392.8C3378.6 218.319 3367 206.853 3367 192.596C3367 178.438 3378.5 166.872 3392.8 166.872H3444.4C3445.3 166.872 3446.1 166.075 3446.1 165.177C3446.1 142.445 3464.6 124 3487.4 124C3510.2 124 3528.7 142.445 3528.7 165.177C3528.7 166.075 3529.5 166.872 3530.4 166.872H3542.7C3556.9 166.872 3568.5 178.338 3568.5 192.596C3568.4 206.853 3556.8 218.319 3542.6 218.319Z" fill="white"/>
    <circle cx="3087" cy="171" r="69" fill="#F76D48"/>
</svg>
