<svg width="106" height="32" viewBox="0 0 106 32" fill="none" xmlns="http://www.w3.org/2000/svg">
<path d="M8.76642 27.732C14.8504 27.732 16.4704 20.208 16.4704 15.42C16.4704 10.488 14.9224 4.26 8.83842 4.26C3.25842 4.26 0.918422 10.272 0.918422 15.024C0.918422 19.992 2.39442 27.732 8.76642 27.732ZM8.83842 7.14C12.5824 7.14 13.8064 12.324 13.8064 15.276C13.8064 18.516 13.1584 24.924 8.76642 24.924C3.94242 24.924 3.76242 18.804 3.76242 15.312C3.76242 12 4.59042 7.14 8.83842 7.14ZM34.2702 24.096C34.1622 22.224 33.1542 5.916 32.9742 5.52C32.7582 4.98 32.1462 4.728 31.6062 4.728C30.9582 4.728 30.4182 5.088 30.4182 5.808C30.4182 6.528 30.5982 7.212 30.6702 7.932C30.7422 8.94 30.7422 9.912 30.7782 10.884C30.8142 12.288 31.1022 13.692 31.1022 15.096C31.1022 17.508 29.6262 16.932 27.7542 16.932C26.4582 16.932 25.1262 16.932 23.8302 16.788C23.0742 16.716 22.5702 16.536 22.5702 15.636C22.5702 15.06 22.7142 14.484 22.7142 13.908C22.7142 11.82 22.3182 9.768 22.3182 7.716C22.3182 7.104 22.4622 6.564 22.4622 5.952C22.4622 5.484 22.2102 5.124 21.7062 5.124C21.0942 5.124 20.5182 5.196 19.9062 5.196C19.5822 5.196 19.3302 5.268 19.3302 5.664C19.3302 6.06 19.4022 6.42 19.4382 6.78C19.9782 11.46 19.6542 16.14 20.1222 20.82C20.2302 21.792 20.4462 22.764 20.4462 23.772C20.4462 24.312 20.3022 24.852 20.3022 25.428C20.3022 26.364 20.6982 26.508 21.5262 26.508C22.1382 26.508 23.6502 26.328 23.6502 25.536C23.6502 24.744 23.3262 23.988 23.2182 23.196C23.1102 22.332 22.9662 21.468 22.9662 20.604C22.9662 19.488 23.9742 19.272 24.8742 19.272C25.9542 19.272 26.9982 19.524 28.1142 19.524C28.5462 19.56 28.9782 19.524 29.4102 19.524C29.9862 19.524 30.8502 19.488 31.2462 19.992C31.6062 20.46 31.6422 22.296 31.7142 22.944C31.9302 25.032 31.2102 27.48 34.1982 27.48C34.5582 27.48 34.6302 27.048 34.6302 26.796C34.6302 25.896 34.3422 24.996 34.2702 24.096ZM56.7547 27.732C62.8387 27.732 64.4587 20.208 64.4587 15.42C64.4587 10.488 62.9107 4.26 56.8267 4.26C51.2467 4.26 48.9067 10.272 48.9067 15.024C48.9067 19.992 50.3827 27.732 56.7547 27.732ZM56.8267 7.14C60.5707 7.14 61.7947 12.324 61.7947 15.276C61.7947 18.516 61.1467 24.924 56.7547 24.924C51.9307 24.924 51.7507 18.804 51.7507 15.312C51.7507 12 52.5787 7.14 56.8267 7.14ZM80.5305 4.8H80.1705C79.2705 4.8 78.1905 4.836 78.1905 6.024C78.1905 6.708 78.2625 7.356 78.2625 8.004C78.2625 9.804 78.2265 11.604 78.2265 13.404C78.2265 16.284 78.9825 23.772 74.5185 23.772C70.3785 23.772 70.1985 18.552 70.1985 15.528C70.1985 12.36 70.3065 9.228 70.3065 6.06C70.3065 5.556 69.6945 5.556 69.3705 5.556C68.6865 5.556 68.2545 5.592 67.7145 6.06C67.5705 6.204 67.4265 12.972 67.4265 13.8C67.4265 18.012 67.8225 26.364 73.6905 26.364C80.2785 26.364 81.3585 19.236 81.3585 14.088C81.3585 11.352 81.0345 8.652 81.0345 5.916C81.0345 5.448 81.0345 5.016 80.5305 4.8ZM88.3695 28.02C88.4055 27.804 88.4415 27.588 88.4415 27.336C88.4415 26.256 88.1535 25.212 88.0455 24.132C87.7215 20.964 87.7935 17.796 87.7935 14.628C87.7935 13.8 87.6855 13.008 86.6775 13.008C85.0215 13.008 84.6975 13.512 84.6975 15.096C84.6975 16.428 84.9855 17.76 85.1295 19.128C85.3815 21.432 85.3095 23.808 85.3095 26.112C85.3095 28.2 85.5255 28.272 87.5415 28.272C87.8295 28.272 88.1535 28.272 88.3695 28.02ZM85.1295 9.948C85.5615 9.948 85.9935 10.056 86.4255 10.056C87.1815 10.056 87.4335 9.516 87.4335 8.832C87.4335 8.184 87.2895 7.572 87.2535 6.924C87.2535 6.384 87.3255 5.88 87.3255 5.34C87.3255 4.116 86.4255 3.936 85.3815 3.936C85.0575 3.936 84.7335 3.936 84.4455 4.008C84.3015 4.08 84.2655 4.26 84.2655 4.404C84.2655 4.908 84.4815 5.34 84.5535 5.808C84.6975 6.852 84.6255 7.896 84.6255 8.94C84.6255 9.264 84.6255 9.66 84.7335 9.984C84.8775 9.948 84.9855 9.948 85.1295 9.948ZM103.917 26.508C103.485 26.508 103.125 26.832 103.125 27.264C103.089 28.236 103.053 29.244 103.053 30.252C103.053 30.396 103.017 30.828 103.125 30.972C103.305 31.224 104.601 31.26 104.925 31.26C105.357 31.26 105.681 30.936 105.681 30.504C105.681 29.46 105.681 28.38 105.645 27.3C105.645 26.904 105.357 26.616 104.925 26.58C104.601 26.544 104.241 26.544 103.917 26.508ZM102.765 4.152C103.125 7.428 103.017 11.244 103.125 14.592C103.125 15.348 103.125 16.104 103.125 16.896C103.125 18.696 103.053 20.496 103.053 22.296C103.053 22.476 103.017 22.872 103.125 23.052C103.269 23.304 104.637 23.34 104.925 23.34C105.357 23.34 105.681 23.016 105.681 22.584C105.681 17.256 105.537 11.892 105.537 6.564C105.537 5.376 105.681 4.224 105.681 3.036C105.681 2.496 105.645 1.992 105.573 1.452C105.465 0.803998 105.645 0.551999 104.817 0.551999C104.421 0.551999 102.657 0.587999 102.513 1.056C102.585 1.2 102.477 1.74 102.477 1.956C102.477 2.676 102.657 3.432 102.765 4.152Z" fill="white"/>
</svg>
