<svg width="132" height="32" viewBox="0 0 132 32" fill="none" xmlns="http://www.w3.org/2000/svg">
<path d="M19.3953 14.448C19.3233 12.432 19.4313 10.416 19.4313 8.364C19.4313 6.708 19.2873 5.088 19.0713 3.468C18.9273 2.604 19.1793 2.784 18.2433 2.676C17.9913 2.64 17.7393 2.604 17.4513 2.604C17.3793 2.604 16.5513 2.676 16.4793 2.676C14.8953 3.54 10.4313 24.78 10.2513 24.708C9.45934 24.492 5.60734 10.02 4.67134 6.492C4.45534 5.736 3.98734 2.748 3.41134 2.424C3.12334 2.28 2.87134 2.244 2.58334 2.244C2.04334 2.244 0.531344 2.28 0.531344 3.036C0.531344 11.352 1.57534 20.676 1.57534 29.028C1.86334 29.856 1.82734 29.676 2.65534 29.82C3.15934 29.928 3.62734 29.964 4.16734 29.964C4.27534 29.964 4.38334 29.964 4.49134 29.928C4.63534 29.712 4.63534 29.424 4.63534 29.172C4.63534 27.876 4.27534 26.652 4.16734 25.392C3.69934 20.964 2.94334 15.96 2.94334 11.532C2.94334 11.316 2.94334 11.1 3.05134 10.92C3.05134 10.956 3.01534 11.028 3.01534 11.064C3.01534 11.172 6.36334 22.008 6.43534 22.26C7.01134 24.204 7.69534 26.112 8.16334 28.092C8.30734 28.74 8.30734 29.28 9.02734 29.532C9.24334 29.604 9.45934 29.604 9.67534 29.604C10.1073 29.604 10.7913 29.64 11.1513 29.46C11.6193 29.28 12.2313 25.644 12.4113 24.96C13.4553 21.36 14.4273 17.652 15.3993 14.052C15.5433 13.512 16.3353 11.064 16.2633 10.704C16.5513 11.136 16.4073 13.512 16.4073 14.124C16.4073 16.14 16.7313 18.156 16.8033 20.136C16.9113 22.692 16.9113 25.248 16.9113 27.768C16.9113 28.596 17.2713 29.028 17.3793 29.712C17.7753 29.928 18.1713 29.928 18.6033 29.928C19.5753 29.928 19.9353 29.712 19.9353 28.668C19.9353 27.768 19.6833 26.904 19.6473 26.004C19.3953 22.152 19.5393 18.3 19.3953 14.448ZM30.6164 4.188C30.5084 3.252 30.6164 2.352 30.6164 1.416C30.6164 0.227999 29.9324 0.227999 28.9604 0.227999C28.4564 0.227999 27.8804 0.227999 27.4484 0.515998C26.9444 0.839998 26.9804 3.648 26.9084 4.332C26.2604 10.848 25.2164 17.292 24.4964 23.772C24.3164 25.68 24.0284 27.552 23.7764 29.46C23.5964 31.224 23.4524 31.764 24.9644 31.872C25.1804 31.908 25.4324 31.98 25.6844 31.98C26.4404 31.98 26.3684 31.044 26.3684 30.504C26.3684 28.992 26.5844 27.516 26.6204 26.04C26.6564 25.284 26.6564 24.42 27.4484 24.024C27.6284 23.952 29.1404 24.024 29.3564 24.024C30.3284 23.988 30.3644 26.04 30.5804 27.444C30.7604 28.74 30.4364 31.908 31.2284 31.908C31.9844 31.908 32.6324 31.836 33.2084 31.44C33.5684 31.188 33.2444 27.984 33.0644 26.58C32.2004 19.128 31.8404 11.604 30.6164 4.188ZM29.6804 21.432C29.4644 21.576 29.1764 21.648 28.9244 21.648C28.1324 21.648 27.4124 21.756 27.4484 21.18C27.4844 19.848 28.3124 12.396 28.5284 11.028C28.9244 14.7 29.7164 17.472 29.7164 20.748C29.7164 20.964 29.7164 21.216 29.6804 21.432ZM28.5644 10.884C28.5644 10.812 28.5644 10.812 28.5644 10.776C28.5644 10.812 28.5644 10.848 28.5644 10.884ZM40.8831 28.02C40.9191 27.804 40.9551 27.588 40.9551 27.336C40.9551 26.256 40.6671 25.212 40.5591 24.132C40.2351 20.964 40.3071 17.796 40.3071 14.628C40.3071 13.8 40.1991 13.008 39.1911 13.008C37.5351 13.008 37.2111 13.512 37.2111 15.096C37.2111 16.428 37.4991 17.76 37.6431 19.128C37.8951 21.432 37.8231 23.808 37.8231 26.112C37.8231 28.2 38.0391 28.272 40.0551 28.272C40.3431 28.272 40.6671 28.272 40.8831 28.02ZM37.6431 9.948C38.0751 9.948 38.5071 10.056 38.9391 10.056C39.6951 10.056 39.9471 9.516 39.9471 8.832C39.9471 8.184 39.8031 7.572 39.7671 6.924C39.7671 6.384 39.8391 5.88 39.8391 5.34C39.8391 4.116 38.9391 3.936 37.8951 3.936C37.5711 3.936 37.2471 3.936 36.9591 4.008C36.8151 4.08 36.7791 4.26 36.7791 4.404C36.7791 4.908 36.9951 5.34 37.0671 5.808C37.2111 6.852 37.1391 7.896 37.1391 8.94C37.1391 9.264 37.1391 9.66 37.2471 9.984C37.3911 9.948 37.4991 9.948 37.6431 9.948ZM52.148 17.112C50.888 14.808 47.216 11.964 47.216 9.264C47.216 8.796 47.288 7.716 47.972 7.716C49.484 7.716 48.224 9.66 49.988 9.66C50.564 9.66 51.14 9.588 51.716 9.516C51.644 7.536 50.204 5.196 48.044 5.196C45.992 5.196 44.624 7.14 44.624 9.048C44.624 14.016 50.816 16.5 50.816 21.9C50.816 22.836 50.384 24.42 49.196 24.42C47.756 24.42 47.864 22.62 47.864 21.612C47.864 20.82 47.108 20.316 46.352 20.316C45.38 20.316 45.02 21.108 45.02 21.972C45.02 24.24 46.64 27.012 49.16 27.012C51.932 27.012 53.372 24.204 53.372 21.756C53.372 20.136 52.904 18.516 52.148 17.112ZM78.655 20.46C78.331 17.724 78.511 14.988 78.511 12.252C78.511 10.632 78.331 9.048 78.331 7.464C78.331 6.816 78.439 6.204 78.439 5.556C78.439 4.728 76.531 4.368 75.919 4.368C75.415 4.368 75.415 4.908 75.415 5.268C75.415 9.768 75.955 14.232 75.955 18.732C75.955 19.164 75.955 19.56 75.847 19.992C74.155 17.58 70.231 5.808 69.403 5.16C68.935 4.836 68.359 4.692 67.783 4.692C67.063 4.692 66.667 5.088 66.667 5.808C66.667 6.564 66.919 7.284 67.027 8.004C67.243 9.624 67.279 11.316 67.279 12.936C67.279 15.024 67.171 17.112 67.171 19.164C67.171 21.756 67.315 24.276 67.603 26.832C67.675 27.336 67.675 27.804 68.323 27.804C68.827 27.804 69.331 27.876 69.835 27.876C70.555 27.876 70.555 26.796 70.555 26.292C70.555 22.584 69.979 18.912 69.619 15.24C69.475 13.872 69.295 12.54 69.295 11.208C69.295 11.064 69.331 10.884 69.367 10.74C69.979 11.172 71.491 15.816 71.887 16.824C72.787 19.2 74.047 21.432 74.911 23.808C75.127 24.348 75.451 25.752 75.919 26.04C76.243 26.22 77.503 26.22 77.899 26.22C78.907 26.22 78.907 24.492 78.907 23.808C78.907 22.692 78.763 21.576 78.655 20.46ZM90.9363 27.732C97.0203 27.732 98.6403 20.208 98.6403 15.42C98.6403 10.488 97.0923 4.26 91.0083 4.26C85.4283 4.26 83.0883 10.272 83.0883 15.024C83.0883 19.992 84.5643 27.732 90.9363 27.732ZM91.0083 7.14C94.7523 7.14 95.9763 12.324 95.9763 15.276C95.9763 18.516 95.3283 24.924 90.9363 24.924C86.1123 24.924 85.9323 18.804 85.9323 15.312C85.9323 12 86.7603 7.14 91.0083 7.14ZM113.776 20.46C113.452 17.724 113.632 14.988 113.632 12.252C113.632 10.632 113.452 9.048 113.452 7.464C113.452 6.816 113.56 6.204 113.56 5.556C113.56 4.728 111.652 4.368 111.04 4.368C110.536 4.368 110.536 4.908 110.536 5.268C110.536 9.768 111.076 14.232 111.076 18.732C111.076 19.164 111.076 19.56 110.968 19.992C109.276 17.58 105.352 5.808 104.524 5.16C104.056 4.836 103.48 4.692 102.904 4.692C102.184 4.692 101.788 5.088 101.788 5.808C101.788 6.564 102.04 7.284 102.148 8.004C102.364 9.624 102.4 11.316 102.4 12.936C102.4 15.024 102.292 17.112 102.292 19.164C102.292 21.756 102.436 24.276 102.724 26.832C102.796 27.336 102.796 27.804 103.444 27.804C103.948 27.804 104.452 27.876 104.956 27.876C105.676 27.876 105.676 26.796 105.676 26.292C105.676 22.584 105.1 18.912 104.74 15.24C104.596 13.872 104.416 12.54 104.416 11.208C104.416 11.064 104.452 10.884 104.488 10.74C105.1 11.172 106.612 15.816 107.008 16.824C107.908 19.2 109.168 21.432 110.032 23.808C110.248 24.348 110.572 25.752 111.04 26.04C111.364 26.22 112.624 26.22 113.02 26.22C114.028 26.22 114.028 24.492 114.028 23.808C114.028 22.692 113.884 21.576 113.776 20.46ZM129.872 26.508C129.44 26.508 129.08 26.832 129.08 27.264C129.044 28.236 129.008 29.244 129.008 30.252C129.008 30.396 128.972 30.828 129.08 30.972C129.26 31.224 130.556 31.26 130.88 31.26C131.312 31.26 131.636 30.936 131.636 30.504C131.636 29.46 131.636 28.38 131.6 27.3C131.6 26.904 131.312 26.616 130.88 26.58C130.556 26.544 130.196 26.544 129.872 26.508ZM128.72 4.152C129.08 7.428 128.972 11.244 129.08 14.592C129.08 15.348 129.08 16.104 129.08 16.896C129.08 18.696 129.008 20.496 129.008 22.296C129.008 22.476 128.972 22.872 129.08 23.052C129.224 23.304 130.592 23.34 130.88 23.34C131.312 23.34 131.636 23.016 131.636 22.584C131.636 17.256 131.492 11.892 131.492 6.564C131.492 5.376 131.636 4.224 131.636 3.036C131.636 2.496 131.6 1.992 131.528 1.452C131.42 0.803998 131.6 0.551999 130.772 0.551999C130.376 0.551999 128.612 0.587999 128.468 1.056C128.54 1.2 128.432 1.74 128.432 1.956C128.432 2.676 128.612 3.432 128.72 4.152Z" fill="white"/>
</svg>
