<svg width="1440" height="800" viewBox="0 0 1440 800" fill="none" xmlns="http://www.w3.org/2000/svg">
<g clip-path="url(#clip0)">
<rect width="1440" height="800" fill="white"/>
<circle cx="-5" cy="720" r="230" fill="#FDECE0"/>
<path d="M485 -1643C485 -1635.73 1073 800 1073 800H808.998L485 -1643Z" fill="url(#paint0_linear)" fill-opacity="0.5"/>
<path d="M589.5 723.967C387.449 697.997 111.5 714.288 0 705.789V800H1440V702.79C1120.5 723.733 864 759.25 589.5 723.967Z" fill="#025949"/>
<rect x="255.561" y="770.535" width="8.36233" height="71.0168" rx="2" transform="rotate(128.837 255.561 770.535)" fill="#025243"/>
<g clip-path="url(#clip1)">
<path d="M230.913 805.932C262.705 818.011 312.943 837.198 337.384 847.045C342.386 849.062 345.595 845.076 342.561 840.615C327.72 818.844 298.251 773.86 279.663 745.379C271.917 733.509 255.585 729.206 249.065 737.305L232.781 757.532L216.497 777.758C209.967 785.857 217.666 800.894 230.913 805.932Z" fill="#025243"/>
</g>
<rect x="197.31" y="648.724" width="14.4529" height="85.4034" rx="2" fill="#FFCDB6"/>
<g clip-path="url(#clip2)">
<path d="M271.678 645.119C253.482 606.228 224.863 544.699 211.629 514.379C208.922 508.173 200.078 508.173 197.361 514.379C184.137 544.699 155.518 606.228 137.321 645.119C129.737 661.327 141.645 679.87 159.616 679.87H204.495H249.375C267.355 679.88 279.254 661.327 271.678 645.119Z" fill="#03A678"/>
</g>
<path d="M374.498 753.027C389.133 753.027 400.997 741.156 400.997 726.513C400.997 711.87 389.133 700 374.498 700C359.864 700 348 711.87 348 726.513C348 741.156 359.864 753.027 374.498 753.027Z" fill="#03A678"/>
<path d="M417.498 753.027C432.133 753.027 443.997 741.156 443.997 726.513C443.997 711.87 432.133 700 417.498 700C402.864 700 391 711.87 391 726.513C391 741.156 402.864 753.027 417.498 753.027Z" fill="#03A678"/>
<path d="M396.498 735.027C411.133 735.027 422.997 723.156 422.997 708.513C422.997 693.87 411.133 682 396.498 682C381.864 682 370 693.87 370 708.513C370 723.156 381.864 735.027 396.498 735.027Z" fill="#03A678"/>
<path d="M396.498 759.027C411.133 759.027 422.997 747.156 422.997 732.513C422.997 717.87 411.133 706 396.498 706C381.864 706 370 717.87 370 732.513C370 747.156 381.864 759.027 396.498 759.027Z" fill="#03A678"/>
<path d="M137.586 760.818C147.851 760.818 156.172 752.492 156.172 742.222C156.172 731.951 147.851 723.625 137.586 723.625C127.321 723.625 119 731.951 119 742.222C119 752.492 127.321 760.818 137.586 760.818Z" fill="#03A678"/>
<path d="M167.746 760.818C178.011 760.818 186.332 752.492 186.332 742.222C186.332 731.951 178.011 723.625 167.746 723.625C157.481 723.625 149.16 731.951 149.16 742.222C149.16 752.492 157.481 760.818 167.746 760.818Z" fill="#03A678"/>
<path d="M153.017 748.193C163.282 748.193 171.603 739.867 171.603 729.596C171.603 719.326 163.282 711 153.017 711C142.752 711 134.431 719.326 134.431 729.596C134.431 739.867 142.752 748.193 153.017 748.193Z" fill="#03A678"/>
<path d="M153.017 765.027C163.282 765.027 171.603 756.701 171.603 746.43C171.603 736.16 163.282 727.834 153.017 727.834C142.752 727.834 134.431 736.16 134.431 746.43C134.431 756.701 142.752 765.027 153.017 765.027Z" fill="#03A678"/>
</g>
<defs>
<linearGradient id="paint0_linear" x1="1073" y1="-421.505" x2="485.003" y2="-421.505" gradientUnits="userSpaceOnUse">
<stop stop-color="white"/>
<stop offset="1" stop-color="#FDECE0"/>
</linearGradient>
<clipPath id="clip0">
<rect width="1440" height="800" fill="white"/>
</clipPath>
<clipPath id="clip1">
<rect width="80.4243" height="141.492" fill="white" transform="translate(368.203 814.937) rotate(128.837)"/>
</clipPath>
<clipPath id="clip2">
<rect width="139" height="170.155" fill="white" transform="translate(135 509.724)"/>
</clipPath>
</defs>
</svg>
