<svg width="339" height="319" viewBox="0 0 339 319" fill="none" xmlns="http://www.w3.org/2000/svg">
<circle cx="169" cy="62" r="62" fill="#FDECE0"/>
<path d="M166.773 38.38C166.773 40.228 166.317 41.872 165.405 43.312L157.233 56.92C156.801 57.592 156.249 57.928 155.577 57.928C155.025 57.928 154.569 57.748 154.209 57.388C153.849 57.028 153.669 56.596 153.669 56.092C153.669 55.732 153.765 55.408 153.957 55.12L158.889 46.948H158.277C156.645 46.948 155.181 46.588 153.885 45.868C152.613 45.124 151.617 44.104 150.897 42.808C150.177 41.512 149.817 40.036 149.817 38.38C149.817 36.748 150.177 35.284 150.897 33.988C151.617 32.692 152.613 31.684 153.885 30.964C155.181 30.22 156.645 29.848 158.277 29.848C159.933 29.848 161.397 30.22 162.669 30.964C163.965 31.684 164.973 32.692 165.693 33.988C166.413 35.284 166.773 36.748 166.773 38.38ZM153.273 38.38C153.273 39.94 153.741 41.224 154.677 42.232C155.613 43.216 156.825 43.708 158.313 43.708C159.777 43.708 160.977 43.216 161.913 42.232C162.849 41.224 163.317 39.94 163.317 38.38C163.317 36.82 162.849 35.548 161.913 34.564C161.001 33.58 159.801 33.088 158.313 33.088C156.825 33.088 155.613 33.58 154.677 34.564C153.741 35.548 153.273 36.82 153.273 38.38ZM178.979 52.672C178.451 52.672 178.007 52.504 177.647 52.168C177.311 51.808 177.143 51.364 177.143 50.836V46.012H172.319C171.791 46.012 171.347 45.832 170.987 45.472C170.651 45.112 170.483 44.668 170.483 44.14C170.483 43.612 170.651 43.18 170.987 42.844C171.347 42.484 171.791 42.304 172.319 42.304H177.143V37.48C177.143 36.976 177.323 36.544 177.683 36.184C178.067 35.824 178.499 35.644 178.979 35.644C179.507 35.644 179.939 35.824 180.275 36.184C180.635 36.52 180.815 36.952 180.815 37.48V42.304H185.639C186.143 42.304 186.575 42.484 186.935 42.844C187.319 43.204 187.511 43.648 187.511 44.176C187.511 44.68 187.319 45.112 186.935 45.472C186.575 45.832 186.143 46.012 185.639 46.012H180.815V50.836C180.815 51.364 180.635 51.808 180.275 52.168C179.939 52.504 179.507 52.672 178.979 52.672Z" fill="#45396D"/>
<path d="M146.479 74.164C148.327 74.164 149.995 74.608 151.483 75.496C152.995 76.36 154.183 77.56 155.047 79.096C155.935 80.608 156.379 82.3 156.379 84.172V92.2C156.379 92.728 156.199 93.172 155.839 93.532C155.503 93.868 155.071 94.036 154.543 94.036C154.015 94.036 153.571 93.868 153.211 93.532C152.875 93.172 152.707 92.728 152.707 92.2V90.868C151.867 91.9 150.847 92.704 149.647 93.28C148.447 93.856 147.151 94.144 145.759 94.144C144.031 94.144 142.459 93.712 141.043 92.848C139.651 91.984 138.547 90.796 137.731 89.284C136.939 87.748 136.543 86.044 136.543 84.172C136.543 82.3 136.975 80.608 137.839 79.096C138.703 77.56 139.891 76.36 141.403 75.496C142.939 74.608 144.631 74.164 146.479 74.164ZM146.479 90.904C147.679 90.904 148.759 90.616 149.719 90.04C150.703 89.44 151.471 88.636 152.023 87.628C152.575 86.596 152.851 85.444 152.851 84.172C152.851 82.9 152.575 81.748 152.023 80.716C151.471 79.684 150.703 78.88 149.719 78.304C148.759 77.704 147.679 77.404 146.479 77.404C145.279 77.404 144.187 77.704 143.203 78.304C142.243 78.88 141.475 79.684 140.899 80.716C140.347 81.748 140.071 82.9 140.071 84.172C140.071 85.444 140.347 86.596 140.899 87.628C141.475 88.636 142.243 89.44 143.203 90.04C144.187 90.616 145.279 90.904 146.479 90.904ZM171.636 74.128C173.292 74.128 174.78 74.488 176.1 75.208C177.42 75.928 178.452 76.984 179.196 78.376C179.94 79.744 180.312 81.4 180.312 83.344V92.2C180.312 92.728 180.132 93.172 179.772 93.532C179.436 93.868 179.004 94.036 178.476 94.036C177.948 94.036 177.504 93.868 177.144 93.532C176.808 93.172 176.64 92.728 176.64 92.2V83.344C176.64 81.4 176.112 79.936 175.056 78.952C174.024 77.944 172.644 77.44 170.916 77.44C169.908 77.44 168.984 77.644 168.144 78.052C167.328 78.46 166.68 79.012 166.2 79.708C165.744 80.404 165.516 81.184 165.516 82.048V92.2C165.516 92.728 165.348 93.172 165.012 93.532C164.676 93.868 164.232 94.036 163.68 94.036C163.152 94.036 162.708 93.868 162.348 93.532C162.012 93.172 161.844 92.728 161.844 92.2V76.144C161.844 75.592 162.012 75.148 162.348 74.812C162.708 74.476 163.152 74.308 163.68 74.308C164.232 74.308 164.676 74.476 165.012 74.812C165.348 75.148 165.516 75.592 165.516 76.144V76.54C166.284 75.772 167.196 75.184 168.252 74.776C169.308 74.344 170.436 74.128 171.636 74.128ZM193.547 94.144C191.915 94.144 190.379 93.892 188.939 93.388C187.499 92.884 186.371 92.224 185.555 91.408C185.243 91.096 185.087 90.724 185.087 90.292C185.087 89.716 185.327 89.248 185.807 88.888C186.263 88.552 186.683 88.384 187.067 88.384C187.547 88.384 188.003 88.6 188.435 89.032C188.891 89.536 189.575 89.98 190.487 90.364C191.399 90.724 192.371 90.904 193.403 90.904C194.771 90.904 195.827 90.676 196.571 90.22C197.339 89.764 197.723 89.152 197.723 88.384C197.723 87.64 197.351 87.028 196.607 86.548C195.863 86.044 194.603 85.624 192.827 85.288C188.219 84.4 185.915 82.504 185.915 79.6C185.915 78.424 186.263 77.428 186.959 76.612C187.655 75.796 188.567 75.184 189.695 74.776C190.823 74.368 192.023 74.164 193.295 74.164C194.855 74.164 196.247 74.416 197.471 74.92C198.719 75.424 199.703 76.12 200.423 77.008C200.735 77.392 200.891 77.776 200.891 78.16C200.891 78.568 200.687 78.94 200.279 79.276C200.015 79.468 199.679 79.564 199.271 79.564C198.647 79.564 198.083 79.336 197.579 78.88C196.979 78.328 196.343 77.944 195.671 77.728C194.999 77.488 194.183 77.368 193.223 77.368C192.119 77.368 191.207 77.56 190.487 77.944C189.791 78.304 189.443 78.82 189.443 79.492C189.443 79.972 189.563 80.38 189.803 80.716C190.043 81.028 190.499 81.328 191.171 81.616C191.843 81.88 192.815 82.144 194.087 82.408C196.703 82.936 198.551 83.668 199.631 84.604C200.735 85.54 201.287 86.752 201.287 88.24C201.287 89.344 200.987 90.352 200.387 91.264C199.787 92.152 198.899 92.86 197.723 93.388C196.571 93.892 195.179 94.144 193.547 94.144Z" fill="#45396D"/>
<path d="M215.915 246.758C213.292 240.566 209.545 235.006 204.772 230.233C199.994 225.455 194.434 221.708 188.242 219.085C181.828 216.375 175.021 215 168.003 215C160.985 215 154.172 216.375 147.758 219.085C141.566 221.708 136.006 225.455 131.233 230.233C126.455 235.006 122.708 240.566 120.091 246.758C117.375 253.172 116 259.979 116 266.997C116 274.021 117.375 280.828 120.091 287.242C122.708 293.434 126.455 298.994 131.233 303.767C136.006 308.545 141.566 312.292 147.758 314.915C154.172 317.625 160.985 319 168.003 319C175.021 319 181.828 317.625 188.242 314.915C194.434 312.292 199.994 308.545 204.772 303.767C209.545 298.994 213.292 293.434 215.915 287.242C218.625 280.828 220 274.021 220 266.997C220 259.979 218.625 253.172 215.915 246.758ZM183.735 220.771C193.386 224.063 201.685 230.3 207.555 238.404L202.333 243.964L189.001 240.306L180.797 227.778L183.735 220.771ZM179.223 228.792L187.2 240.971L177.998 249.696L178.031 249.724L155.757 249.641L148.551 239.663L156.472 228.276L179.223 228.792ZM151.567 221.02L154.859 227.317L146.844 238.837L133.035 241.924L128.428 238.426C134.16 230.51 142.204 224.374 151.567 221.02ZM133.661 243.704L147.004 240.721L154.222 250.711L146.261 273.267L135.396 277.23L126.377 265.423L133.661 243.704ZM133.223 293.223L128.794 296.072C122.885 288.123 119.332 278.322 119.182 267.712L124.98 266.681L134.116 278.638L133.223 293.223ZM135.097 293.256L135.967 279.015L146.788 275.068L166.927 289.21L166.783 302.159L153.213 306.699L135.097 293.256ZM168.003 315.829C163.091 315.829 158.346 315.097 153.873 313.745L154.089 308.384L167.681 303.833L179.561 308.639L180.298 314.26C176.368 315.286 172.249 315.829 168.003 315.829ZM198.946 294.287L180.348 306.938L168.657 302.203L168.801 289.11L186.817 274.819L199.617 279.154L198.946 294.287ZM187.305 273.012L179.655 250.705L188.674 242.157L201.912 245.794L208.248 267.668L200.271 277.397L187.305 273.012ZM207.028 296.311L200.836 293.977L201.507 278.844L209.695 268.854L216.768 269.436C216.275 279.487 212.721 288.75 207.028 296.311Z" fill="#FFCDB6"/>
<path d="M216.768 269.436C216.275 279.487 212.722 288.75 207.028 296.311L200.836 293.977L201.507 278.843L209.695 268.854L216.768 269.436Z" fill="#FDECE0"/>
<path d="M199.617 279.154L198.946 294.287L180.348 306.938L168.657 302.203L168.801 289.11L186.817 274.819L199.617 279.154Z" fill="#FDECE0"/>
<path d="M180.298 314.26C176.368 315.286 172.249 315.829 168.003 315.829C163.091 315.829 158.346 315.097 153.873 313.745L154.089 308.384L167.681 303.833L179.561 308.639L180.298 314.26Z" fill="#FDECE0"/>
<path d="M166.927 289.21L166.783 302.159L153.213 306.699L135.097 293.256L135.967 279.015L146.788 275.068L166.927 289.21Z" fill="#FDECE0"/>
<path d="M134.116 278.638L133.223 293.223L128.794 296.072C122.885 288.123 119.332 278.322 119.182 267.712L124.98 266.681L134.116 278.638Z" fill="#FDECE0"/>
<path d="M154.222 250.711L146.262 273.267L135.396 277.23L126.377 265.423L133.661 243.704L147.004 240.721L154.222 250.711Z" fill="#FDECE0"/>
<path d="M207.555 238.404L202.333 243.964L189.001 240.306L180.797 227.778L183.735 220.771C193.386 224.064 201.685 230.3 207.555 238.404Z" fill="#FDECE0"/>
<path d="M208.248 267.668L200.271 277.397L187.305 273.012L179.655 250.705L188.674 242.157L201.912 245.794L208.248 267.668Z" fill="#FDECE0"/>
<path d="M177.998 249.696L178.031 249.724L155.757 249.641L148.551 239.663L156.472 228.276L179.223 228.792L187.2 240.971L177.998 249.696Z" fill="#FDECE0"/>
<path d="M154.859 227.317L146.844 238.837L133.035 241.924L128.428 238.426C134.16 230.51 142.204 224.374 151.567 221.02L154.859 227.317Z" fill="#FDECE0"/>
</svg>
