<svg width="339" height="319" viewBox="0 0 339 319" fill="none" xmlns="http://www.w3.org/2000/svg">
<circle cx="169" cy="62" r="62" fill="#FDECE0"/>
<path d="M149.56 58C147.784 58 146.188 57.628 144.772 56.884C143.38 56.116 142.288 55.084 141.496 53.788C140.704 52.468 140.308 50.992 140.308 49.36C140.308 48.832 140.464 48.388 140.776 48.028C141.088 47.668 141.484 47.488 141.964 47.488C142.444 47.488 142.84 47.668 143.152 48.028C143.464 48.388 143.62 48.832 143.62 49.36C143.62 50.344 143.872 51.256 144.376 52.096C144.88 52.912 145.564 53.572 146.428 54.076C147.316 54.556 148.288 54.796 149.344 54.796C150.952 54.796 152.236 54.352 153.196 53.464C154.156 52.576 154.636 51.352 154.636 49.792C154.636 48.808 154.42 47.908 153.988 47.092C153.556 46.252 152.956 45.604 152.188 45.148C151.444 44.668 150.616 44.428 149.704 44.428C149.176 44.428 148.732 44.248 148.372 43.888C148.036 43.528 147.868 43.084 147.868 42.556C147.868 42.028 148.036 41.596 148.372 41.26C148.732 40.9 149.176 40.72 149.704 40.72C150.376 40.72 151.024 40.552 151.648 40.216C152.296 39.856 152.812 39.376 153.196 38.776C153.604 38.176 153.808 37.516 153.808 36.796C153.808 35.74 153.424 34.852 152.656 34.132C151.888 33.412 150.904 33.052 149.704 33.052C148.792 33.052 147.952 33.232 147.184 33.592C146.44 33.952 145.84 34.432 145.384 35.032C144.952 35.632 144.736 36.304 144.736 37.048C144.736 37.6 144.58 38.068 144.268 38.452C143.956 38.812 143.56 38.992 143.08 38.992C142.6 38.992 142.204 38.824 141.892 38.488C141.58 38.128 141.424 37.684 141.424 37.156C141.424 35.788 141.784 34.552 142.504 33.448C143.224 32.32 144.208 31.444 145.456 30.82C146.704 30.172 148.096 29.848 149.632 29.848C151.024 29.848 152.296 30.16 153.448 30.784C154.6 31.384 155.5 32.212 156.148 33.268C156.82 34.324 157.156 35.5 157.156 36.796C157.156 38.092 156.748 39.22 155.932 40.18C155.116 41.116 154.096 41.86 152.872 42.412C154.696 43.036 156.052 43.996 156.94 45.292C157.828 46.564 158.272 48.076 158.272 49.828C158.272 51.364 157.876 52.756 157.084 54.004C156.292 55.252 155.224 56.236 153.88 56.956C152.56 57.652 151.12 58 149.56 58ZM172.227 30.964C172.371 30.628 172.599 30.364 172.911 30.172C173.223 29.98 173.559 29.884 173.919 29.884C174.423 29.884 174.843 30.064 175.179 30.424C175.539 30.76 175.719 31.18 175.719 31.684C175.719 31.948 175.671 32.212 175.575 32.476L164.739 59.584C164.595 59.944 164.367 60.208 164.055 60.376C163.743 60.568 163.407 60.664 163.047 60.664C162.543 60.664 162.111 60.484 161.751 60.124C161.391 59.788 161.211 59.368 161.211 58.864C161.211 58.624 161.271 58.36 161.391 58.072L172.227 30.964ZM187.59 40.9C189.222 40.9 190.674 41.272 191.946 42.016C193.242 42.736 194.25 43.744 194.97 45.04C195.69 46.336 196.05 47.812 196.05 49.468C196.05 51.1 195.69 52.564 194.97 53.86C194.25 55.156 193.242 56.176 191.946 56.92C190.674 57.64 189.222 58 187.59 58C185.934 58 184.458 57.64 183.162 56.92C181.89 56.176 180.894 55.156 180.174 53.86C179.454 52.564 179.094 51.1 179.094 49.468C179.094 47.62 179.55 45.976 180.462 44.536L188.634 30.928C189.066 30.256 189.618 29.92 190.29 29.92C190.842 29.92 191.298 30.1 191.658 30.46C192.018 30.82 192.198 31.252 192.198 31.756C192.198 32.116 192.102 32.44 191.91 32.728L186.978 40.9H187.59ZM187.554 54.76C189.042 54.76 190.254 54.268 191.19 53.284C192.126 52.3 192.594 51.028 192.594 49.468C192.594 47.908 192.126 46.636 191.19 45.652C190.254 44.644 189.042 44.14 187.554 44.14C186.09 44.14 184.89 44.644 183.954 45.652C183.018 46.636 182.55 47.908 182.55 49.468C182.55 51.028 183.006 52.3 183.918 53.284C184.854 54.268 186.066 54.76 187.554 54.76Z" fill="#45396D"/>
<path d="M146.479 74.164C148.327 74.164 149.995 74.608 151.483 75.496C152.995 76.36 154.183 77.56 155.047 79.096C155.935 80.608 156.379 82.3 156.379 84.172V92.2C156.379 92.728 156.199 93.172 155.839 93.532C155.503 93.868 155.071 94.036 154.543 94.036C154.015 94.036 153.571 93.868 153.211 93.532C152.875 93.172 152.707 92.728 152.707 92.2V90.868C151.867 91.9 150.847 92.704 149.647 93.28C148.447 93.856 147.151 94.144 145.759 94.144C144.031 94.144 142.459 93.712 141.043 92.848C139.651 91.984 138.547 90.796 137.731 89.284C136.939 87.748 136.543 86.044 136.543 84.172C136.543 82.3 136.975 80.608 137.839 79.096C138.703 77.56 139.891 76.36 141.403 75.496C142.939 74.608 144.631 74.164 146.479 74.164ZM146.479 90.904C147.679 90.904 148.759 90.616 149.719 90.04C150.703 89.44 151.471 88.636 152.023 87.628C152.575 86.596 152.851 85.444 152.851 84.172C152.851 82.9 152.575 81.748 152.023 80.716C151.471 79.684 150.703 78.88 149.719 78.304C148.759 77.704 147.679 77.404 146.479 77.404C145.279 77.404 144.187 77.704 143.203 78.304C142.243 78.88 141.475 79.684 140.899 80.716C140.347 81.748 140.071 82.9 140.071 84.172C140.071 85.444 140.347 86.596 140.899 87.628C141.475 88.636 142.243 89.44 143.203 90.04C144.187 90.616 145.279 90.904 146.479 90.904ZM171.636 74.128C173.292 74.128 174.78 74.488 176.1 75.208C177.42 75.928 178.452 76.984 179.196 78.376C179.94 79.744 180.312 81.4 180.312 83.344V92.2C180.312 92.728 180.132 93.172 179.772 93.532C179.436 93.868 179.004 94.036 178.476 94.036C177.948 94.036 177.504 93.868 177.144 93.532C176.808 93.172 176.64 92.728 176.64 92.2V83.344C176.64 81.4 176.112 79.936 175.056 78.952C174.024 77.944 172.644 77.44 170.916 77.44C169.908 77.44 168.984 77.644 168.144 78.052C167.328 78.46 166.68 79.012 166.2 79.708C165.744 80.404 165.516 81.184 165.516 82.048V92.2C165.516 92.728 165.348 93.172 165.012 93.532C164.676 93.868 164.232 94.036 163.68 94.036C163.152 94.036 162.708 93.868 162.348 93.532C162.012 93.172 161.844 92.728 161.844 92.2V76.144C161.844 75.592 162.012 75.148 162.348 74.812C162.708 74.476 163.152 74.308 163.68 74.308C164.232 74.308 164.676 74.476 165.012 74.812C165.348 75.148 165.516 75.592 165.516 76.144V76.54C166.284 75.772 167.196 75.184 168.252 74.776C169.308 74.344 170.436 74.128 171.636 74.128ZM193.547 94.144C191.915 94.144 190.379 93.892 188.939 93.388C187.499 92.884 186.371 92.224 185.555 91.408C185.243 91.096 185.087 90.724 185.087 90.292C185.087 89.716 185.327 89.248 185.807 88.888C186.263 88.552 186.683 88.384 187.067 88.384C187.547 88.384 188.003 88.6 188.435 89.032C188.891 89.536 189.575 89.98 190.487 90.364C191.399 90.724 192.371 90.904 193.403 90.904C194.771 90.904 195.827 90.676 196.571 90.22C197.339 89.764 197.723 89.152 197.723 88.384C197.723 87.64 197.351 87.028 196.607 86.548C195.863 86.044 194.603 85.624 192.827 85.288C188.219 84.4 185.915 82.504 185.915 79.6C185.915 78.424 186.263 77.428 186.959 76.612C187.655 75.796 188.567 75.184 189.695 74.776C190.823 74.368 192.023 74.164 193.295 74.164C194.855 74.164 196.247 74.416 197.471 74.92C198.719 75.424 199.703 76.12 200.423 77.008C200.735 77.392 200.891 77.776 200.891 78.16C200.891 78.568 200.687 78.94 200.279 79.276C200.015 79.468 199.679 79.564 199.271 79.564C198.647 79.564 198.083 79.336 197.579 78.88C196.979 78.328 196.343 77.944 195.671 77.728C194.999 77.488 194.183 77.368 193.223 77.368C192.119 77.368 191.207 77.56 190.487 77.944C189.791 78.304 189.443 78.82 189.443 79.492C189.443 79.972 189.563 80.38 189.803 80.716C190.043 81.028 190.499 81.328 191.171 81.616C191.843 81.88 192.815 82.144 194.087 82.408C196.703 82.936 198.551 83.668 199.631 84.604C200.735 85.54 201.287 86.752 201.287 88.24C201.287 89.344 200.987 90.352 200.387 91.264C199.787 92.152 198.899 92.86 197.723 93.388C196.571 93.892 195.179 94.144 193.547 94.144Z" fill="#45396D"/>
<path d="M198.676 222.768C190.495 222.768 183.743 228.989 182.892 236.94C184.483 237.4 186.031 237.944 187.544 238.579C187.579 232.469 192.559 227.511 198.676 227.511C204.813 227.511 209.807 232.504 209.807 238.642C209.807 243.454 206.724 247.52 202.449 249.076C203.558 250.289 204.597 251.573 205.559 252.919C210.867 250.345 214.55 244.926 214.55 238.642C214.55 229.889 207.429 222.768 198.676 222.768ZM204.032 238.642C204.032 235.692 201.626 233.285 198.676 233.285C195.718 233.285 193.312 235.692 193.312 238.642C193.312 241.599 195.718 244.005 198.676 244.005C201.626 244.005 204.032 241.599 204.032 238.642ZM189.818 260.842C187.768 260.842 186.108 262.502 186.108 264.552C186.108 266.596 187.768 268.263 189.818 268.263C191.862 268.263 193.528 266.596 193.528 264.552C193.528 262.502 191.862 260.842 189.818 260.842ZM168.162 267.342C154.36 267.342 143.131 276.555 143.131 287.882C143.131 299.215 154.36 308.429 168.162 308.429C181.965 308.429 193.194 299.215 193.194 287.882C193.194 276.555 181.965 267.342 168.162 267.342ZM126.518 238.642C126.518 232.504 131.511 227.511 137.649 227.511C143.758 227.511 148.724 232.456 148.78 238.551C150.287 237.917 151.842 237.379 153.425 236.919C152.567 228.975 145.823 222.768 137.649 222.768C128.896 222.768 121.775 229.889 121.775 238.642C121.775 244.919 125.45 250.331 130.744 252.905C131.707 251.566 132.739 250.282 133.855 249.062C129.586 247.506 126.518 243.447 126.518 238.642ZM146.506 268.263C148.55 268.263 150.217 266.596 150.217 264.552C150.217 262.502 148.55 260.842 146.506 260.842C144.449 260.842 142.796 262.502 142.796 264.552C142.796 266.596 144.449 268.263 146.506 268.263ZM137.649 233.285C134.692 233.285 132.292 235.692 132.292 238.642C132.292 241.599 134.692 244.005 137.649 244.005C138.716 244.005 139.706 243.684 140.543 243.14C140.62 243.092 140.697 243.043 140.766 242.987C142.119 242.011 143.012 240.434 143.012 238.642C143.012 235.692 140.606 233.285 137.649 233.285Z" fill="#793651"/>
<path d="M220.324 238.642C220.324 226.708 210.609 217 198.676 217C187.74 217 178.694 225.16 177.25 235.706C175.186 235.399 173.065 235.238 170.917 235.238H165.338C163.203 235.238 161.118 235.399 159.067 235.699C157.624 225.153 148.585 217 137.649 217C125.708 217 116 226.708 116 238.642C116 246.99 120.764 254.23 127.703 257.836C124.718 263.534 123.023 269.992 123.023 276.834C123.023 299.773 141.959 318.43 165.338 318.43H170.917C194.289 318.43 213.301 299.773 213.301 276.834C213.301 269.992 211.599 263.541 208.6 257.843C215.554 254.237 220.324 246.997 220.324 238.642ZM193.312 238.642C193.312 235.692 195.718 233.285 198.676 233.285C201.626 233.285 204.032 235.692 204.032 238.642C204.032 241.599 201.626 244.005 198.676 244.005C195.718 244.005 193.312 241.599 193.312 238.642ZM150.217 264.552C150.217 266.596 148.55 268.262 146.506 268.262C144.449 268.262 142.796 266.596 142.796 264.552C142.796 262.502 144.449 260.842 146.506 260.842C148.55 260.842 150.217 262.502 150.217 264.552ZM140.766 242.987C140.697 243.043 140.62 243.092 140.543 243.14C139.706 243.684 138.716 244.005 137.649 244.005C134.692 244.005 132.292 241.599 132.292 238.642C132.292 235.692 134.692 233.285 137.649 233.285C140.606 233.285 143.012 235.692 143.012 238.642C143.012 240.434 142.119 242.011 140.766 242.987ZM143.131 287.882C143.131 276.555 154.36 267.342 168.162 267.342C181.965 267.342 193.194 276.555 193.194 287.882C193.194 299.215 181.965 308.429 168.162 308.429C154.36 308.429 143.131 299.215 143.131 287.882ZM189.818 268.262C187.767 268.262 186.108 266.596 186.108 264.552C186.108 262.502 187.767 260.842 189.818 260.842C191.862 260.842 193.528 262.502 193.528 264.552C193.528 266.596 191.862 268.262 189.818 268.262ZM121.775 238.642C121.775 229.889 128.896 222.768 137.649 222.768C145.823 222.768 152.567 228.975 153.425 236.919C151.842 237.379 150.287 237.916 148.78 238.551C148.724 232.455 143.758 227.511 137.649 227.511C131.511 227.511 126.518 232.504 126.518 238.642C126.518 243.447 129.586 247.506 133.855 249.062C132.739 250.282 131.707 251.566 130.744 252.905C125.45 250.331 121.775 244.919 121.775 238.642ZM205.559 252.919C204.597 251.573 203.558 250.289 202.449 249.076C206.724 247.52 209.807 243.454 209.807 238.642C209.807 232.504 204.813 227.511 198.676 227.511C192.559 227.511 187.579 232.469 187.544 238.579C186.031 237.944 184.483 237.4 182.892 236.94C183.743 228.989 190.495 222.768 198.676 222.768C207.429 222.768 214.55 229.889 214.55 238.642C214.55 244.926 210.867 250.345 205.559 252.919Z" fill="#FDECE0"/>
<path d="M146.506 268.263C148.556 268.263 150.217 266.601 150.217 264.552C150.217 262.503 148.556 260.842 146.506 260.842C144.457 260.842 142.796 262.503 142.796 264.552C142.796 266.601 144.457 268.263 146.506 268.263Z" fill="#F2D39B"/>
<path d="M193.194 287.882C193.194 299.215 181.965 308.429 168.162 308.429C154.36 308.429 143.131 299.215 143.131 287.882C143.131 276.555 154.36 267.342 168.162 267.342C181.965 267.342 193.194 276.555 193.194 287.882Z" fill="#F2D39B"/>
<path d="M189.818 268.263C191.867 268.263 193.528 266.601 193.528 264.552C193.528 262.503 191.867 260.842 189.818 260.842C187.769 260.842 186.108 262.503 186.108 264.552C186.108 266.601 187.769 268.263 189.818 268.263Z" fill="#F2D39B"/>
<path d="M168.162 267.342C154.36 267.342 143.131 276.555 143.131 287.882C143.131 299.215 154.36 308.429 168.162 308.429C181.965 308.429 193.194 299.215 193.194 287.882C193.194 276.555 181.965 267.342 168.162 267.342Z" fill="#45396D"/>
<path d="M148.5 274C153.747 274 158 269.747 158 264.5C158 259.253 153.747 255 148.5 255C143.253 255 139 259.253 139 264.5C139 269.747 143.253 274 148.5 274Z" fill="#45396D"/>
<path d="M186.5 274C191.747 274 196 269.747 196 264.5C196 259.253 191.747 255 186.5 255C181.253 255 177 259.253 177 264.5C177 269.747 181.253 274 186.5 274Z" fill="#45396D"/>
<path d="M168.162 303.477C157.087 303.477 148.083 296.481 148.083 287.882C148.083 279.282 157.094 272.287 168.162 272.287C179.231 272.287 188.242 279.282 188.242 287.882C188.242 296.481 179.231 303.477 168.162 303.477Z" fill="#FFCDB6"/>
<path d="M176.239 290.511C174.188 291.843 172.326 292.617 170.638 293.043V285.266H170.603C172.2 284.611 173.302 283.355 173.302 281.898C173.302 279.77 171.001 278.041 168.162 278.041C165.324 278.041 163.022 279.77 163.022 281.898C163.022 283.362 164.124 284.618 165.721 285.266H165.686V293.322C162.485 292.813 160.658 291.069 160.511 290.916C159.563 289.939 158.007 289.918 157.024 290.86C156.041 291.808 156.006 293.371 156.954 294.361C158.74 296.216 162.471 298.413 167.437 298.413C170.778 298.413 174.683 297.416 178.938 294.654C180.082 293.908 180.409 292.373 179.663 291.23C178.917 290.086 177.375 289.765 176.239 290.511Z" fill="#45396D"/>
<path d="M153.425 236.919C151.842 237.379 150.287 237.917 148.78 238.551C148.724 232.456 143.758 227.511 137.649 227.511C131.511 227.511 126.518 232.504 126.518 238.642C126.518 243.447 129.586 247.506 133.855 249.062C132.739 250.282 131.707 251.566 130.744 252.905C125.45 250.331 121.775 244.919 121.775 238.642C121.775 229.889 128.896 222.768 137.649 222.768C145.823 222.768 152.567 228.975 153.425 236.919Z" fill="#45396D"/>
<path d="M214.55 238.642C214.55 244.926 210.867 250.345 205.56 252.919C204.597 251.573 203.558 250.289 202.449 249.076C206.724 247.52 209.807 243.454 209.807 238.642C209.807 232.504 204.813 227.511 198.676 227.511C192.559 227.511 187.579 232.469 187.544 238.579C186.031 237.944 184.483 237.4 182.892 236.94C183.743 228.989 190.495 222.768 198.676 222.768C207.429 222.768 214.55 229.889 214.55 238.642Z" fill="#45396D"/>
<path d="M143.012 238.642C143.012 240.434 142.12 242.01 140.766 242.987C140.697 243.043 140.62 243.092 140.543 243.14C139.706 243.684 138.716 244.005 137.649 244.005C134.692 244.005 132.292 241.599 132.292 238.642C132.292 235.692 134.692 233.285 137.649 233.285C140.606 233.285 143.012 235.692 143.012 238.642Z" fill="#FFCDB6"/>
<path d="M204.032 238.642C204.032 241.599 201.626 244.005 198.676 244.005C195.718 244.005 193.312 241.599 193.312 238.642C193.312 235.692 195.718 233.285 198.676 233.285C201.626 233.285 204.032 235.692 204.032 238.642Z" fill="#FFCDB6"/>
</svg>
