<svg width="100" height="100" viewBox="0 0 100 100" fill="none" xmlns="http://www.w3.org/2000/svg">
<path d="M41.278 85.4136C33.7458 92.9459 21.5413 92.9459 14.009 85.4136C6.4768 77.8814 6.4768 65.6709 14.009 58.1447C21.5413 50.6124 33.7458 50.6124 41.278 58.1447C48.8103 65.6769 48.8103 77.8874 41.278 85.4136Z" stroke="#45396D" stroke-width="16" stroke-miterlimit="10"/>
<path d="M68.4868 90.8083C62.797 96.4981 44.8124 87.7316 28.3089 71.2341C11.8114 54.7367 3.04489 36.752 8.73471 31.0622C14.4245 25.3724 32.4092 34.1329 48.9127 50.6364C65.4161 67.1339 74.1766 85.1185 68.4868 90.8083Z" fill="#FDECE0" stroke="#FDECE0" stroke-width="8" stroke-miterlimit="10"/>
<path d="M91.4447 49.7032C83.3887 57.7292 64.8742 56.1035 64.8742 56.1035C62.8812 55.9289 60.0935 56.9405 58.6786 58.3554L47.877 69.1209C46.462 70.5298 44.144 70.5298 42.7351 69.1149L30.1934 56.531C28.7845 55.1161 28.7845 52.798 30.1994 51.3891L41.0733 40.5574C42.4882 39.1485 43.5238 36.3608 43.3673 34.3678C43.3673 34.3678 41.9283 16.0039 49.9181 8.03813C60.9967 -2.99831 79.2703 -2.62501 90.7403 8.88106C102.204 20.3811 102.517 38.6608 91.4447 49.7032Z" fill="#FFCDB6"/>
</svg>
