<svg width="466" height="554" viewBox="0 0 466 554" fill="none" xmlns="http://www.w3.org/2000/svg">
    <g clip-path="url(#clip0)">
        <path d="M168.226 320.56C45.2949 320.56 4.85488 452.534 0 518.524V553.696H468.52V0C318.874 0 294.268 88.9342 284.728 138.676C275.187 188.418 321.888 320.56 168.226 320.56Z" fill="#FDECE0"/>
        <path d="M302.951 136.722C302.951 136.722 311.367 80.873 374.376 76.0623C437.385 71.2543 442.725 135.901 444.329 156.74C445.93 177.576 396.367 188.75 396.367 188.75L302.951 136.722Z" fill="#FFCDB6"/>
        <path d="M382.54 222.406C406.353 148.733 396.974 130.406 468.52 128.572V286.729L382.54 222.406Z" fill="#FDECE0"/>
        <path d="M386.058 299.974C386.058 299.974 389.585 232.215 405.714 220.976C421.841 209.735 460.649 166.403 466.698 290.814C472.744 415.225 386.058 299.974 386.058 299.974Z" fill="#FFCDB6"/>
        <path d="M288.01 136.722C288.01 136.722 302.098 167.78 321.048 240.775H409.7C409.7 240.775 400.494 161.003 357.095 136.722H288.01Z" fill="url(#paint0_linear)"/>
        <path d="M407.456 241.883C410.477 241.883 412.926 239.433 412.926 236.41C412.926 233.387 410.477 230.937 407.456 230.937C404.435 230.937 401.986 233.387 401.986 236.41C401.986 239.433 404.435 241.883 407.456 241.883Z" fill="white"/>
        <path d="M385.697 241.883C388.718 241.883 391.168 239.433 391.168 236.41C391.168 233.387 388.718 230.937 385.697 230.937C382.676 230.937 380.227 233.387 380.227 236.41C380.227 239.433 382.676 241.883 385.697 241.883Z" fill="white"/>
        <path d="M368.656 241.883C371.677 241.883 374.126 239.433 374.126 236.41C374.126 233.387 371.677 230.937 368.656 230.937C365.635 230.937 363.186 233.387 363.186 236.41C363.186 239.433 365.635 241.883 368.656 241.883Z" fill="white"/>
        <path d="M343.104 241.883C346.125 241.883 348.574 239.433 348.574 236.41C348.574 233.387 346.125 230.937 343.104 230.937C340.083 230.937 337.634 233.387 337.634 236.41C337.634 239.433 340.083 241.883 343.104 241.883Z" fill="white"/>
        <path d="M349.993 241.883C353.014 241.883 355.463 239.433 355.463 236.41C355.463 233.387 353.014 230.937 349.993 230.937C346.972 230.937 344.522 233.387 344.522 236.41C344.522 239.433 346.972 241.883 349.993 241.883Z" fill="white"/>
        <path d="M336.515 241.883C339.536 241.883 341.985 239.433 341.985 236.41C341.985 233.387 339.536 230.937 336.515 230.937C333.494 230.937 331.045 233.387 331.045 236.41C331.045 239.433 333.494 241.883 336.515 241.883Z" fill="white"/>
        <path d="M401.986 234.461C404.235 234.461 406.058 232.637 406.058 230.386C406.058 228.136 404.235 226.311 401.986 226.311C399.736 226.311 397.913 228.136 397.913 230.386C397.913 232.637 399.736 234.461 401.986 234.461Z" fill="white"/>
        <path d="M378.202 237.023C380.451 237.023 382.274 235.199 382.274 232.948C382.274 230.698 380.451 228.873 378.202 228.873C375.952 228.873 374.129 230.698 374.129 232.948C374.129 235.199 375.952 237.023 378.202 237.023Z" fill="white"/>
        <path d="M318.584 237.023C320.834 237.023 322.657 235.199 322.657 232.948C322.657 230.698 320.834 228.873 318.584 228.873C316.335 228.873 314.512 230.698 314.512 232.948C314.512 235.199 316.335 237.023 318.584 237.023Z" fill="white"/>
        <path d="M394.826 236.778C397.075 236.778 398.899 234.953 398.899 232.703C398.899 230.452 397.075 228.628 394.826 228.628C392.577 228.628 390.753 230.452 390.753 232.703C390.753 234.953 392.577 236.778 394.826 236.778Z" fill="white"/>
        <path d="M372.89 241.098C375.139 241.098 376.963 239.274 376.963 237.023C376.963 234.773 375.139 232.948 372.89 232.948C370.641 232.948 368.817 234.773 368.817 237.023C368.817 239.274 370.641 241.098 372.89 241.098Z" fill="white"/>
        <path d="M378.559 241.098C380.808 241.098 382.632 239.274 382.632 237.023C382.632 234.773 380.808 232.948 378.559 232.948C376.31 232.948 374.486 234.773 374.486 237.023C374.486 239.274 376.31 241.098 378.559 241.098Z" fill="white"/>
        <path d="M400.818 241.883C403.067 241.883 404.89 240.059 404.89 237.808C404.89 235.558 403.067 233.733 400.818 233.733C398.569 233.733 396.745 235.558 396.745 237.808C396.745 240.059 398.569 241.883 400.818 241.883Z" fill="white"/>
        <path d="M393.556 241.883C395.805 241.883 397.629 240.059 397.629 237.808C397.629 235.558 395.805 233.733 393.556 233.733C391.307 233.733 389.483 235.558 389.483 237.808C389.483 240.059 391.307 241.883 393.556 241.883Z" fill="white"/>
        <path d="M394.826 236.616C396.417 236.616 397.707 235.325 397.707 233.733C397.707 232.141 396.417 230.851 394.826 230.851C393.235 230.851 391.945 232.141 391.945 233.733C391.945 235.325 393.235 236.616 394.826 236.616Z" fill="white"/>
        <path d="M396.742 241.182C398.334 241.182 399.624 239.891 399.624 238.299C399.624 236.707 398.334 235.416 396.742 235.416C395.151 235.416 393.861 236.707 393.861 238.299C393.861 239.891 395.151 241.182 396.742 241.182Z" fill="white"/>
        <path d="M355.742 241.883C357.991 241.883 359.815 240.059 359.815 237.808C359.815 235.558 357.991 233.733 355.742 233.733C353.493 233.733 351.669 235.558 351.669 237.808C351.669 240.059 353.493 241.883 355.742 241.883Z" fill="white"/>
        <path d="M359.019 241.883C361.268 241.883 363.092 240.059 363.092 237.808C363.092 235.558 361.268 233.733 359.019 233.733C356.77 233.733 354.946 235.558 354.946 237.808C354.946 240.059 356.77 241.883 359.019 241.883Z" fill="white"/>
        <path d="M345.145 241.883C347.395 241.883 349.218 240.059 349.218 237.808C349.218 235.558 347.395 233.733 345.145 233.733C342.896 233.733 341.073 235.558 341.073 237.808C341.073 240.059 342.896 241.883 345.145 241.883Z" fill="white"/>
        <path d="M323.082 241.883C325.331 241.883 327.155 240.059 327.155 237.808C327.155 235.558 325.331 233.733 323.082 233.733C320.833 233.733 319.009 235.558 319.009 237.808C319.009 240.059 320.833 241.883 323.082 241.883Z" fill="white"/>
        <path d="M329.676 241.883C331.925 241.883 333.749 240.059 333.749 237.808C333.749 235.558 331.925 233.733 329.676 233.733C327.427 233.733 325.604 235.558 325.604 237.808C325.604 240.059 327.427 241.883 329.676 241.883Z" fill="white"/>
        <path d="M363.186 241.883C365.435 241.883 367.259 240.059 367.259 237.808C367.259 235.558 365.435 233.733 363.186 233.733C360.937 233.733 359.113 235.558 359.113 237.808C359.113 240.059 360.937 241.883 363.186 241.883Z" fill="white"/>
        <path d="M399.668 227.772C400.639 227.772 401.425 226.985 401.425 226.014C401.425 225.043 400.639 224.256 399.668 224.256C398.697 224.256 397.911 225.043 397.911 226.014C397.911 226.985 398.697 227.772 399.668 227.772Z" fill="white"/>
        <path d="M409.344 230.386C410.314 230.386 411.101 229.599 411.101 228.628C411.101 227.657 410.314 226.87 409.344 226.87C408.373 226.87 407.586 227.657 407.586 228.628C407.586 229.599 408.373 230.386 409.344 230.386Z" fill="white"/>
        <path d="M399.06 236.22C400.031 236.22 400.817 235.432 400.817 234.461C400.817 233.49 400.031 232.703 399.06 232.703C398.09 232.703 397.303 233.49 397.303 234.461C397.303 235.432 398.09 236.22 399.06 236.22Z" fill="white"/>
        <path d="M390.094 233.407C391.064 233.407 391.851 232.62 391.851 231.649C391.851 230.678 391.064 229.891 390.094 229.891C389.123 229.891 388.336 230.678 388.336 231.649C388.336 232.62 389.123 233.407 390.094 233.407Z" fill="white"/>
        <path d="M383.94 230.629C384.911 230.629 385.698 229.842 385.698 228.871C385.698 227.899 384.911 227.112 383.94 227.112C382.97 227.112 382.183 227.899 382.183 228.871C382.183 229.842 382.97 230.629 383.94 230.629Z" fill="white"/>
        <path d="M327.155 236.22C328.125 236.22 328.912 235.432 328.912 234.461C328.912 233.49 328.125 232.703 327.155 232.703C326.184 232.703 325.397 233.49 325.397 234.461C325.397 235.432 326.184 236.22 327.155 236.22Z" fill="white"/>
        <path d="M349.221 232.145C350.192 232.145 350.979 231.357 350.979 230.386C350.979 229.415 350.192 228.628 349.221 228.628C348.251 228.628 347.464 229.415 347.464 230.386C347.464 231.357 348.251 232.145 349.221 232.145Z" fill="white"/>
        <path d="M328.912 232.145C329.883 232.145 330.67 231.357 330.67 230.386C330.67 229.415 329.883 228.628 328.912 228.628C327.942 228.628 327.155 229.415 327.155 230.386C327.155 231.357 327.942 232.145 328.912 232.145Z" fill="white"/>
        <path d="M360.868 235.067C361.839 235.067 362.626 234.279 362.626 233.308C362.626 232.337 361.839 231.55 360.868 231.55C359.898 231.55 359.111 232.337 359.111 233.308C359.111 234.279 359.898 235.067 360.868 235.067Z" fill="white"/>
        <path d="M322.66 235.067C323.631 235.067 324.418 234.279 324.418 233.308C324.418 232.337 323.631 231.55 322.66 231.55C321.69 231.55 320.903 232.337 320.903 233.308C320.903 234.279 321.69 235.067 322.66 235.067Z" fill="white"/>
        <path d="M363.186 235.163C364.156 235.163 364.943 234.376 364.943 233.405C364.943 232.434 364.156 231.646 363.186 231.646C362.215 231.646 361.428 232.434 361.428 233.405C361.428 234.376 362.215 235.163 363.186 235.163Z" fill="white"/>
        <path d="M346.817 228.211C347.245 228.211 347.591 227.864 347.591 227.436C347.591 227.008 347.245 226.661 346.817 226.661C346.389 226.661 346.042 227.008 346.042 227.436C346.042 227.864 346.389 228.211 346.817 228.211Z" fill="white"/>
        <path d="M326.381 228.211C326.809 228.211 327.155 227.864 327.155 227.436C327.155 227.008 326.809 226.661 326.381 226.661C325.953 226.661 325.606 227.008 325.606 227.436C325.606 227.864 325.953 228.211 326.381 228.211Z" fill="white"/>
        <path d="M225.796 69.4073C243.493 57.2946 273.422 71.6978 282.123 112.935C290.824 154.173 297.694 158.297 301.814 173.877C305.936 189.457 321.048 240.775 321.048 240.775C321.048 240.775 209.31 322.334 207.021 321.875C204.732 321.415 198.779 123.931 201.525 115.685C204.27 107.438 217.096 75.3658 225.796 69.4073Z" fill="#FDECE0"/>
        <path d="M204.776 114.287C195.348 115.651 182.452 121.513 154.877 167.498C127.301 213.484 97.4263 299.543 97.4263 299.543C97.4263 299.543 187.377 352.426 212.984 313.338C238.591 274.251 232.023 110.345 204.776 114.287Z" fill="#FFCDB6"/>
        <path d="M67.6948 362.314C67.6948 362.314 96.0967 272.328 141.063 237.399C186.029 202.47 207.021 321.875 207.021 321.875L176.7 351.513L67.6948 362.314Z" fill="#FDECE0"/>
        <path d="M176.7 351.513C217.722 315.024 240.609 262.261 280.215 249.433C319.82 236.606 295.642 351.513 295.642 351.513H176.7Z" fill="#FFCDB6"/>
        <path d="M295.645 351.513C295.645 351.513 259.739 372.514 239.827 396.669H354.201C354.201 396.669 354.302 351.513 386.555 351.513H295.645Z" fill="url(#paint1_linear)"/>
        <path d="M239.827 396.669C239.827 396.669 205.73 440.646 191.792 553.696H404.658C404.658 553.696 344.96 429.561 354.201 396.669H239.827Z" fill="url(#paint2_linear)"/>
        <path opacity="0.1" d="M193.746 512.053C192.51 506.866 190.145 504.352 186.558 500.96C190.646 494.435 192.539 486.293 189.118 479.062C187.243 475.102 184.021 472.673 180.396 470.719C180.133 464.087 178.444 459.227 174.16 453.662C165.37 442.246 152.057 438.886 138.157 443.026C133.628 435.886 129.537 428.195 125.264 421.146C124.099 419.226 122.722 419.106 120.907 420.121C117.927 421.791 113.888 424.282 111.098 426.265C109.398 427.473 108.767 428.746 109.904 430.775C114.071 438.229 118.803 444.505 124.414 451.061C116.31 459.441 112.767 474.731 120.86 484.162C124.805 488.759 129.97 489.466 135.56 489.627C134.851 492.855 134.418 495.868 135.261 499.233C136.796 505.374 141.432 510.169 147.08 512.833C145.169 516.824 142.767 520.456 143.87 525.206C146.741 537.58 161.219 540.765 172.746 538.305C184.274 535.85 196.966 525.559 193.746 512.053Z" fill="#025949"/>
        <path d="M321.048 240.775C321.048 240.775 326.433 336.077 295.645 351.513H386.555C386.555 351.513 423.413 318.019 409.701 240.775H321.048Z" fill="url(#paint3_linear)"/>
        <path d="M355.77 352.664C356.741 352.664 357.527 351.876 357.527 350.905C357.527 349.934 356.741 349.147 355.77 349.147C354.799 349.147 354.013 349.934 354.013 350.905C354.013 351.876 354.799 352.664 355.77 352.664Z" fill="white"/>
        <path d="M357.525 353.272C358.495 353.272 359.282 352.484 359.282 351.513C359.282 350.542 358.495 349.755 357.525 349.755C356.554 349.755 355.768 350.542 355.768 351.513C355.768 352.484 356.554 353.272 357.525 353.272Z" fill="white"/>
        <path d="M346.931 348.388C347.902 348.388 348.689 347.601 348.689 346.629C348.689 345.658 347.902 344.871 346.931 344.871C345.961 344.871 345.174 345.658 345.174 346.629C345.174 347.601 345.961 348.388 346.931 348.388Z" fill="white"/>
        <path d="M299.29 353.446C302.311 353.446 304.76 350.996 304.76 347.973C304.76 344.95 302.311 342.5 299.29 342.5C296.268 342.5 293.819 344.95 293.819 347.973C293.819 350.996 296.268 353.446 299.29 353.446Z" fill="white"/>
        <path d="M321.048 353.446C324.069 353.446 326.519 350.996 326.519 347.973C326.519 344.95 324.069 342.5 321.048 342.5C318.027 342.5 315.578 344.95 315.578 347.973C315.578 350.996 318.027 353.446 321.048 353.446Z" fill="white"/>
        <path d="M338.089 353.446C341.11 353.446 343.56 350.996 343.56 347.973C343.56 344.95 341.11 342.5 338.089 342.5C335.068 342.5 332.619 344.95 332.619 347.973C332.619 350.996 335.068 353.446 338.089 353.446Z" fill="white"/>
        <path d="M363.642 353.446C366.663 353.446 369.112 350.996 369.112 347.973C369.112 344.95 366.663 342.5 363.642 342.5C360.621 342.5 358.171 344.95 358.171 347.973C358.171 350.996 360.621 353.446 363.642 353.446Z" fill="white"/>
        <path d="M356.751 353.446C359.772 353.446 362.221 350.996 362.221 347.973C362.221 344.95 359.772 342.5 356.751 342.5C353.729 342.5 351.28 344.95 351.28 347.973C351.28 350.996 353.729 353.446 356.751 353.446Z" fill="white"/>
        <path d="M370.23 353.446C373.251 353.446 375.7 350.996 375.7 347.973C375.7 344.95 373.251 342.5 370.23 342.5C367.209 342.5 364.76 344.95 364.76 347.973C364.76 350.996 367.209 353.446 370.23 353.446Z" fill="white"/>
        <path d="M304.76 346.022C307.009 346.022 308.832 344.197 308.832 341.947C308.832 339.696 307.009 337.872 304.76 337.872C302.51 337.872 300.687 339.696 300.687 341.947C300.687 344.197 302.51 346.022 304.76 346.022Z" fill="white"/>
        <path d="M328.544 348.586C330.793 348.586 332.617 346.762 332.617 344.511C332.617 342.261 330.793 340.436 328.544 340.436C326.295 340.436 324.471 342.261 324.471 344.511C324.471 346.762 326.295 348.586 328.544 348.586Z" fill="white"/>
        <path d="M388.159 348.586C390.408 348.586 392.231 346.762 392.231 344.511C392.231 342.261 390.408 340.436 388.159 340.436C385.909 340.436 384.086 342.261 384.086 344.511C384.086 346.762 385.909 348.586 388.159 348.586Z" fill="white"/>
        <path d="M311.92 348.341C314.169 348.341 315.993 346.516 315.993 344.266C315.993 342.015 314.169 340.191 311.92 340.191C309.671 340.191 307.847 342.015 307.847 344.266C307.847 346.516 309.671 348.341 311.92 348.341Z" fill="white"/>
        <path d="M333.855 352.661C336.104 352.661 337.928 350.837 337.928 348.586C337.928 346.336 336.104 344.511 333.855 344.511C331.606 344.511 329.782 346.336 329.782 348.586C329.782 350.837 331.606 352.661 333.855 352.661Z" fill="white"/>
        <path d="M328.186 352.661C330.436 352.661 332.259 350.837 332.259 348.586C332.259 346.336 330.436 344.511 328.186 344.511C325.937 344.511 324.114 346.336 324.114 348.586C324.114 350.837 325.937 352.661 328.186 352.661Z" fill="white"/>
        <path d="M305.928 353.446C308.177 353.446 310 351.622 310 349.371C310 347.121 308.177 345.296 305.928 345.296C303.678 345.296 301.855 347.121 301.855 349.371C301.855 351.622 303.678 353.446 305.928 353.446Z" fill="white"/>
        <path d="M313.189 353.446C315.439 353.446 317.262 351.622 317.262 349.371C317.262 347.121 315.439 345.296 313.189 345.296C310.94 345.296 309.117 347.121 309.117 349.371C309.117 351.622 310.94 353.446 313.189 353.446Z" fill="white"/>
        <path d="M311.92 348.179C313.511 348.179 314.801 346.888 314.801 345.296C314.801 343.704 313.511 342.414 311.92 342.414C310.329 342.414 309.039 343.704 309.039 345.296C309.039 346.888 310.329 348.179 311.92 348.179Z" fill="white"/>
        <path d="M310.003 352.744C311.594 352.744 312.884 351.454 312.884 349.862C312.884 348.27 311.594 346.979 310.003 346.979C308.412 346.979 307.122 348.27 307.122 349.862C307.122 351.454 308.412 352.744 310.003 352.744Z" fill="white"/>
        <path d="M351.004 353.446C353.253 353.446 355.077 351.622 355.077 349.371C355.077 347.121 353.253 345.296 351.004 345.296C348.755 345.296 346.931 347.121 346.931 349.371C346.931 351.622 348.755 353.446 351.004 353.446Z" fill="white"/>
        <path d="M347.726 353.446C349.976 353.446 351.799 351.622 351.799 349.371C351.799 347.121 349.976 345.296 347.726 345.296C345.477 345.296 343.654 347.121 343.654 349.371C343.654 351.622 345.477 353.446 347.726 353.446Z" fill="white"/>
        <path d="M361.6 353.446C363.849 353.446 365.673 351.622 365.673 349.371C365.673 347.121 363.849 345.296 361.6 345.296C359.351 345.296 357.527 347.121 357.527 349.371C357.527 351.622 359.351 353.446 361.6 353.446Z" fill="white"/>
        <path d="M383.663 353.446C385.913 353.446 387.736 351.622 387.736 349.371C387.736 347.121 385.913 345.296 383.663 345.296C381.414 345.296 379.591 347.121 379.591 349.371C379.591 351.622 381.414 353.446 383.663 353.446Z" fill="white"/>
        <path d="M377.069 353.446C379.319 353.446 381.142 351.622 381.142 349.371C381.142 347.121 379.319 345.296 377.069 345.296C374.82 345.296 372.997 347.121 372.997 349.371C372.997 351.622 374.82 353.446 377.069 353.446Z" fill="white"/>
        <path d="M343.56 353.446C345.809 353.446 347.633 351.622 347.633 349.371C347.633 347.121 345.809 345.296 343.56 345.296C341.311 345.296 339.487 347.121 339.487 349.371C339.487 351.622 341.311 353.446 343.56 353.446Z" fill="white"/>
        <path d="M307.078 339.335C308.048 339.335 308.835 338.548 308.835 337.577C308.835 336.606 308.048 335.819 307.078 335.819C306.107 335.819 305.32 336.606 305.32 337.577C305.32 338.548 306.107 339.335 307.078 339.335Z" fill="white"/>
        <path d="M297.399 341.949C298.369 341.949 299.156 341.162 299.156 340.191C299.156 339.22 298.369 338.433 297.399 338.433C296.428 338.433 295.642 339.22 295.642 340.191C295.642 341.162 296.428 341.949 297.399 341.949Z" fill="white"/>
        <path d="M307.685 347.783C308.656 347.783 309.442 346.995 309.442 346.024C309.442 345.053 308.656 344.266 307.685 344.266C306.715 344.266 305.928 345.053 305.928 346.024C305.928 346.995 306.715 347.783 307.685 347.783Z" fill="white"/>
        <path d="M316.652 344.968C317.622 344.968 318.409 344.18 318.409 343.209C318.409 342.238 317.622 341.451 316.652 341.451C315.681 341.451 314.895 342.238 314.895 343.209C314.895 344.18 315.681 344.968 316.652 344.968Z" fill="white"/>
        <path d="M322.805 342.192C323.776 342.192 324.563 341.405 324.563 340.434C324.563 339.463 323.776 338.675 322.805 338.675C321.835 338.675 321.048 339.463 321.048 340.434C321.048 341.405 321.835 342.192 322.805 342.192Z" fill="white"/>
        <path d="M379.591 347.783C380.561 347.783 381.348 346.995 381.348 346.024C381.348 345.053 380.561 344.266 379.591 344.266C378.62 344.266 377.833 345.053 377.833 346.024C377.833 346.995 378.62 347.783 379.591 347.783Z" fill="white"/>
        <path d="M357.525 343.705C358.495 343.705 359.282 342.918 359.282 341.947C359.282 340.976 358.495 340.188 357.525 340.188C356.554 340.188 355.768 340.976 355.768 341.947C355.768 342.918 356.554 343.705 357.525 343.705Z" fill="white"/>
        <path d="M377.834 343.705C378.804 343.705 379.591 342.918 379.591 341.947C379.591 340.976 378.804 340.188 377.834 340.188C376.863 340.188 376.076 340.976 376.076 341.947C376.076 342.918 376.863 343.705 377.834 343.705Z" fill="white"/>
        <path d="M345.877 346.629C346.848 346.629 347.635 345.842 347.635 344.871C347.635 343.9 346.848 343.113 345.877 343.113C344.907 343.113 344.12 343.9 344.12 344.871C344.12 345.842 344.907 346.629 345.877 346.629Z" fill="white"/>
        <path d="M384.086 346.629C385.057 346.629 385.843 345.842 385.843 344.871C385.843 343.9 385.057 343.113 384.086 343.113C383.115 343.113 382.329 343.9 382.329 344.871C382.329 345.842 383.115 346.629 384.086 346.629Z" fill="white"/>
        <path d="M343.56 346.726C344.53 346.726 345.317 345.939 345.317 344.968C345.317 343.997 344.53 343.209 343.56 343.209C342.589 343.209 341.802 343.997 341.802 344.968C341.802 345.939 342.589 346.726 343.56 346.726Z" fill="white"/>
        <path d="M359.929 339.774C360.356 339.774 360.703 339.427 360.703 338.999C360.703 338.571 360.356 338.224 359.929 338.224C359.501 338.224 359.154 338.571 359.154 338.999C359.154 339.427 359.501 339.774 359.929 339.774Z" fill="white"/>
        <path d="M380.365 339.774C380.793 339.774 381.14 339.427 381.14 338.999C381.14 338.571 380.793 338.224 380.365 338.224C379.938 338.224 379.591 338.571 379.591 338.999C379.591 339.427 379.938 339.774 380.365 339.774Z" fill="white"/>
        <path d="M256.034 394.065C257.625 394.065 258.915 392.775 258.915 391.183C258.915 389.591 257.625 388.3 256.034 388.3C254.443 388.3 253.153 389.591 253.153 391.183C253.153 392.775 254.443 394.065 256.034 394.065Z" fill="white"/>
        <path d="M254.117 395.748C255.709 395.748 256.999 394.457 256.999 392.865C256.999 391.273 255.709 389.983 254.117 389.983C252.526 389.983 251.236 391.273 251.236 392.865C251.236 394.457 252.526 395.748 254.117 395.748Z" fill="white"/>
        <path d="M254.117 398.631C255.709 398.631 256.999 397.34 256.999 395.748C256.999 394.156 255.709 392.865 254.117 392.865C252.526 392.865 251.236 394.156 251.236 395.748C251.236 397.34 252.526 398.631 254.117 398.631Z" fill="white"/>
        <path d="M258.385 398.631C259.977 398.631 261.267 397.34 261.267 395.748C261.267 394.156 259.977 392.865 258.385 392.865C256.794 392.865 255.504 394.156 255.504 395.748C255.504 397.34 256.794 398.631 258.385 398.631Z" fill="white"/>
        <path d="M261.89 397.676C263.481 397.676 264.771 396.385 264.771 394.793C264.771 393.201 263.481 391.911 261.89 391.911C260.299 391.911 259.009 393.201 259.009 394.793C259.009 396.385 260.299 397.676 261.89 397.676Z" fill="white"/>
        <path d="M266.119 397.676C267.711 397.676 269 396.385 269 394.793C269 393.201 267.711 391.911 266.119 391.911C264.528 391.911 263.238 393.201 263.238 394.793C263.238 396.385 264.528 397.676 266.119 397.676Z" fill="white"/>
        <path d="M268.677 396.299C270.268 396.299 271.558 395.008 271.558 393.416C271.558 391.824 270.268 390.533 268.677 390.533C267.086 390.533 265.796 391.824 265.796 393.416C265.796 395.008 267.086 396.299 268.677 396.299Z" fill="white"/>
        <path d="M270.069 397.692C271.66 397.692 272.95 396.401 272.95 394.809C272.95 393.217 271.66 391.926 270.069 391.926C268.478 391.926 267.188 393.217 267.188 394.809C267.188 396.401 268.478 397.692 270.069 397.692Z" fill="white"/>
        <path d="M272.95 397.692C274.542 397.692 275.832 396.401 275.832 394.809C275.832 393.217 274.542 391.926 272.95 391.926C271.359 391.926 270.069 393.217 270.069 394.809C270.069 396.401 271.359 397.692 272.95 397.692Z" fill="white"/>
        <path d="M283.302 397.692C284.893 397.692 286.183 396.401 286.183 394.809C286.183 393.217 284.893 391.926 283.302 391.926C281.71 391.926 280.42 393.217 280.42 394.809C280.42 396.401 281.71 397.692 283.302 397.692Z" fill="white"/>
        <path d="M245.297 397.676C246.888 397.676 248.178 396.385 248.178 394.793C248.178 393.201 246.888 391.911 245.297 391.911C243.705 391.911 242.416 393.201 242.416 394.793C242.416 396.385 243.705 397.676 245.297 397.676Z" fill="white"/>
        <path d="M248.663 395.399C250.254 395.399 251.544 394.108 251.544 392.516C251.544 390.924 250.254 389.633 248.663 389.633C247.072 389.633 245.782 390.924 245.782 392.516C245.782 394.108 247.072 395.399 248.663 395.399Z" fill="white"/>
        <path d="M249.435 397.676C251.026 397.676 252.316 396.385 252.316 394.793C252.316 393.201 251.026 391.911 249.435 391.911C247.844 391.911 246.554 393.201 246.554 394.793C246.554 396.385 247.844 397.676 249.435 397.676Z" fill="white"/>
        <path d="M251.192 385.222C252.163 385.222 252.949 384.434 252.949 383.463C252.949 382.492 252.163 381.705 251.192 381.705C250.221 381.705 249.435 382.492 249.435 383.463C249.435 384.434 250.221 385.222 251.192 385.222Z" fill="white"/>
        <path d="M241.516 387.836C242.487 387.836 243.273 387.048 243.273 386.077C243.273 385.106 242.487 384.319 241.516 384.319C240.546 384.319 239.759 385.106 239.759 386.077C239.759 387.048 240.546 387.836 241.516 387.836Z" fill="white"/>
        <path d="M251.799 393.669C252.77 393.669 253.557 392.882 253.557 391.911C253.557 390.94 252.77 390.152 251.799 390.152C250.829 390.152 250.042 390.94 250.042 391.911C250.042 392.882 250.829 393.669 251.799 393.669Z" fill="white"/>
        <path d="M242.416 397.506C243.386 397.506 244.173 396.719 244.173 395.748C244.173 394.777 243.386 393.99 242.416 393.99C241.445 393.99 240.658 394.777 240.658 395.748C240.658 396.719 241.445 397.506 242.416 397.506Z" fill="white"/>
        <path d="M241.052 397.506C242.023 397.506 242.81 396.719 242.81 395.748C242.81 394.777 242.023 393.99 241.052 393.99C240.082 393.99 239.295 394.777 239.295 395.748C239.295 396.719 240.082 397.506 241.052 397.506Z" fill="white"/>
        <path d="M260.766 390.857C261.737 390.857 262.524 390.069 262.524 389.098C262.524 388.127 261.737 387.34 260.766 387.34C259.796 387.34 259.009 388.127 259.009 389.098C259.009 390.069 259.796 390.857 260.766 390.857Z" fill="white"/>
        <path d="M258.915 394.274C259.886 394.274 260.672 393.487 260.672 392.516C260.672 391.545 259.886 390.757 258.915 390.757C257.945 390.757 257.158 391.545 257.158 392.516C257.158 393.487 257.945 394.274 258.915 394.274Z" fill="white"/>
        <path d="M266.919 388.078C267.89 388.078 268.677 387.291 268.677 386.32C268.677 385.349 267.89 384.562 266.919 384.562C265.949 384.562 265.162 385.349 265.162 386.32C265.162 387.291 265.949 388.078 266.919 388.078Z" fill="white"/>
        <path d="M301.642 389.594C302.612 389.594 303.399 388.807 303.399 387.836C303.399 386.864 302.612 386.077 301.642 386.077C300.671 386.077 299.884 386.864 299.884 387.836C299.884 388.807 300.671 389.594 301.642 389.594Z" fill="white"/>
        <path d="M289.992 392.516C290.963 392.516 291.75 391.729 291.75 390.757C291.75 389.786 290.963 388.999 289.992 388.999C289.022 388.999 288.235 389.786 288.235 390.757C288.235 391.729 289.022 392.516 289.992 392.516Z" fill="white"/>
        <path d="M287.674 392.612C288.644 392.612 289.431 391.825 289.431 390.854C289.431 389.883 288.644 389.096 287.674 389.096C286.703 389.096 285.917 389.883 285.917 390.854C285.917 391.825 286.703 392.612 287.674 392.612Z" fill="white"/>
        <path d="M275.988 394.274C276.958 394.274 277.745 393.487 277.745 392.516C277.745 391.545 276.958 390.757 275.988 390.757C275.017 390.757 274.23 391.545 274.23 392.516C274.23 393.487 275.017 394.274 275.988 394.274Z" fill="white"/>
        <path d="M275.344 395.174C276.314 395.174 277.101 394.387 277.101 393.416C277.101 392.445 276.314 391.657 275.344 391.657C274.373 391.657 273.586 392.445 273.586 393.416C273.586 394.387 274.373 395.174 275.344 395.174Z" fill="white"/>
        <path d="M264.364 394.274C265.335 394.274 266.122 393.487 266.122 392.516C266.122 391.545 265.335 390.757 264.364 390.757C263.394 390.757 262.607 391.545 262.607 392.516C262.607 393.487 263.394 394.274 264.364 394.274Z" fill="white"/>
        <path d="M273.98 392.612C274.951 392.612 275.737 391.825 275.737 390.854C275.737 389.883 274.951 389.096 273.98 389.096C273.009 389.096 272.223 389.883 272.223 390.854C272.223 391.825 273.009 392.612 273.98 392.612Z" fill="white"/>
        <path d="M282.741 391.35C283.712 391.35 284.499 390.562 284.499 389.591C284.499 388.62 283.712 387.833 282.741 387.833C281.771 387.833 280.984 388.62 280.984 389.591C280.984 390.562 281.771 391.35 282.741 391.35Z" fill="white"/>
        <path d="M278.126 395.174C279.097 395.174 279.883 394.387 279.883 393.416C279.883 392.445 279.097 391.657 278.126 391.657C277.155 391.657 276.369 392.445 276.369 393.416C276.369 394.387 277.155 395.174 278.126 395.174Z" fill="white"/>
        <path d="M275.988 397.376C276.958 397.376 277.745 396.589 277.745 395.618C277.745 394.647 276.958 393.859 275.988 393.859C275.017 393.859 274.23 394.647 274.23 395.618C274.23 396.589 275.017 397.376 275.988 397.376Z" fill="white"/>
        <path d="M272.416 394.624C273.387 394.624 274.173 393.836 274.173 392.865C274.173 391.894 273.387 391.107 272.416 391.107C271.445 391.107 270.659 391.894 270.659 392.865C270.659 393.836 271.445 394.624 272.416 394.624Z" fill="white"/>
        <path d="M290.681 388.078C291.651 388.078 292.438 387.291 292.438 386.32C292.438 385.349 291.651 384.562 290.681 384.562C289.71 384.562 288.923 385.349 288.923 386.32C288.923 387.291 289.71 388.078 290.681 388.078Z" fill="white"/>
        <path d="M304.043 385.66C304.471 385.66 304.817 385.313 304.817 384.885C304.817 384.457 304.471 384.11 304.043 384.11C303.615 384.11 303.269 384.457 303.269 384.885C303.269 385.313 303.615 385.66 304.043 385.66Z" fill="white"/>
        <path d="M280.045 393.64C280.473 393.64 280.819 393.293 280.819 392.865C280.819 392.437 280.473 392.091 280.045 392.091C279.617 392.091 279.271 392.437 279.271 392.865C279.271 393.293 279.617 393.64 280.045 393.64Z" fill="white"/>
        <path d="M285.489 394.065C287.08 394.065 288.37 392.775 288.37 391.183C288.37 389.591 287.08 388.3 285.489 388.3C283.898 388.3 282.608 389.591 282.608 391.183C282.608 392.775 283.898 394.065 285.489 394.065Z" fill="white"/>
        <path d="M283.573 395.748C285.164 395.748 286.454 394.457 286.454 392.865C286.454 391.273 285.164 389.983 283.573 389.983C281.982 389.983 280.692 391.273 280.692 392.865C280.692 394.457 281.982 395.748 283.573 395.748Z" fill="white"/>
        <path d="M283.573 398.631C285.164 398.631 286.454 397.34 286.454 395.748C286.454 394.156 285.164 392.865 283.573 392.865C281.982 392.865 280.692 394.156 280.692 395.748C280.692 397.34 281.982 398.631 283.573 398.631Z" fill="white"/>
        <path d="M287.838 398.631C289.429 398.631 290.719 397.34 290.719 395.748C290.719 394.156 289.429 392.865 287.838 392.865C286.247 392.865 284.957 394.156 284.957 395.748C284.957 397.34 286.247 398.631 287.838 398.631Z" fill="white"/>
        <path d="M291.345 397.676C292.936 397.676 294.226 396.385 294.226 394.793C294.226 393.201 292.936 391.911 291.345 391.911C289.754 391.911 288.464 393.201 288.464 394.793C288.464 396.385 289.754 397.676 291.345 397.676Z" fill="white"/>
        <path d="M295.575 397.676C297.166 397.676 298.456 396.385 298.456 394.793C298.456 393.201 297.166 391.911 295.575 391.911C293.983 391.911 292.693 393.201 292.693 394.793C292.693 396.385 293.983 397.676 295.575 397.676Z" fill="white"/>
        <path d="M298.129 396.299C299.72 396.299 301.01 395.008 301.01 393.416C301.01 391.824 299.72 390.533 298.129 390.533C296.538 390.533 295.248 391.824 295.248 393.416C295.248 395.008 296.538 396.299 298.129 396.299Z" fill="white"/>
        <path d="M299.525 397.692C301.116 397.692 302.406 396.401 302.406 394.809C302.406 393.217 301.116 391.926 299.525 391.926C297.934 391.926 296.644 393.217 296.644 394.809C296.644 396.401 297.934 397.692 299.525 397.692Z" fill="white"/>
        <path d="M302.403 397.692C303.994 397.692 305.284 396.401 305.284 394.809C305.284 393.217 303.994 391.926 302.403 391.926C300.812 391.926 299.522 393.217 299.522 394.809C299.522 396.401 300.812 397.692 302.403 397.692Z" fill="white"/>
        <path d="M312.757 397.692C314.348 397.692 315.638 396.401 315.638 394.809C315.638 393.217 314.348 391.926 312.757 391.926C311.166 391.926 309.876 393.217 309.876 394.809C309.876 396.401 311.166 397.692 312.757 397.692Z" fill="white"/>
        <path d="M274.752 397.676C276.343 397.676 277.633 396.385 277.633 394.793C277.633 393.201 276.343 391.911 274.752 391.911C273.161 391.911 271.871 393.201 271.871 394.793C271.871 396.385 273.161 397.676 274.752 397.676Z" fill="white"/>
        <path d="M278.118 395.399C279.709 395.399 280.999 394.108 280.999 392.516C280.999 390.924 279.709 389.633 278.118 389.633C276.527 389.633 275.237 390.924 275.237 392.516C275.237 394.108 276.527 395.399 278.118 395.399Z" fill="white"/>
        <path d="M278.89 397.676C280.481 397.676 281.771 396.385 281.771 394.793C281.771 393.201 280.481 391.911 278.89 391.911C277.299 391.911 276.009 393.201 276.009 394.793C276.009 396.385 277.299 397.676 278.89 397.676Z" fill="white"/>
        <path d="M280.647 385.222C281.618 385.222 282.404 384.434 282.404 383.463C282.404 382.492 281.618 381.705 280.647 381.705C279.676 381.705 278.89 382.492 278.89 383.463C278.89 384.434 279.676 385.222 280.647 385.222Z" fill="white"/>
        <path d="M270.969 387.836C271.939 387.836 272.726 387.048 272.726 386.077C272.726 385.106 271.939 384.319 270.969 384.319C269.998 384.319 269.211 385.106 269.211 386.077C269.211 387.048 269.998 387.836 270.969 387.836Z" fill="white"/>
        <path d="M281.255 393.669C282.225 393.669 283.012 392.882 283.012 391.911C283.012 390.94 282.225 390.152 281.255 390.152C280.284 390.152 279.498 390.94 279.498 391.911C279.498 392.882 280.284 393.669 281.255 393.669Z" fill="white"/>
        <path d="M271.871 397.506C272.842 397.506 273.628 396.719 273.628 395.748C273.628 394.777 272.842 393.99 271.871 393.99C270.901 393.99 270.114 394.777 270.114 395.748C270.114 396.719 270.901 397.506 271.871 397.506Z" fill="white"/>
        <path d="M270.507 397.506C271.478 397.506 272.265 396.719 272.265 395.748C272.265 394.777 271.478 393.99 270.507 393.99C269.537 393.99 268.75 394.777 268.75 395.748C268.75 396.719 269.537 397.506 270.507 397.506Z" fill="white"/>
        <path d="M290.221 390.857C291.192 390.857 291.979 390.069 291.979 389.098C291.979 388.127 291.192 387.34 290.221 387.34C289.251 387.34 288.464 388.127 288.464 389.098C288.464 390.069 289.251 390.857 290.221 390.857Z" fill="white"/>
        <path d="M288.368 394.274C289.338 394.274 290.125 393.487 290.125 392.516C290.125 391.545 289.338 390.757 288.368 390.757C287.397 390.757 286.61 391.545 286.61 392.516C286.61 393.487 287.397 394.274 288.368 394.274Z" fill="white"/>
        <path d="M296.375 388.078C297.345 388.078 298.132 387.291 298.132 386.32C298.132 385.349 297.345 384.562 296.375 384.562C295.404 384.562 294.617 385.349 294.617 386.32C294.617 387.291 295.404 388.078 296.375 388.078Z" fill="white"/>
        <path d="M317.129 392.612C318.1 392.612 318.887 391.825 318.887 390.854C318.887 389.883 318.1 389.096 317.129 389.096C316.159 389.096 315.372 389.883 315.372 390.854C315.372 391.825 316.159 392.612 317.129 392.612Z" fill="white"/>
        <path d="M305.443 394.274C306.414 394.274 307.201 393.487 307.201 392.516C307.201 391.545 306.414 390.757 305.443 390.757C304.473 390.757 303.686 391.545 303.686 392.516C303.686 393.487 304.473 394.274 305.443 394.274Z" fill="white"/>
        <path d="M304.799 395.174C305.77 395.174 306.557 394.387 306.557 393.416C306.557 392.445 305.77 391.657 304.799 391.657C303.829 391.657 303.042 392.445 303.042 393.416C303.042 394.387 303.829 395.174 304.799 395.174Z" fill="white"/>
        <path d="M293.817 394.274C294.787 394.274 295.574 393.487 295.574 392.516C295.574 391.545 294.787 390.757 293.817 390.757C292.846 390.757 292.06 391.545 292.06 392.516C292.06 393.487 292.846 394.274 293.817 394.274Z" fill="white"/>
        <path d="M303.435 392.612C304.406 392.612 305.192 391.825 305.192 390.854C305.192 389.883 304.406 389.096 303.435 389.096C302.465 389.096 301.678 389.883 301.678 390.854C301.678 391.825 302.465 392.612 303.435 392.612Z" fill="white"/>
        <path d="M312.194 391.35C313.164 391.35 313.951 390.562 313.951 389.591C313.951 388.62 313.164 387.833 312.194 387.833C311.223 387.833 310.437 388.62 310.437 389.591C310.437 390.562 311.223 391.35 312.194 391.35Z" fill="white"/>
        <path d="M307.582 395.174C308.552 395.174 309.339 394.387 309.339 393.416C309.339 392.445 308.552 391.657 307.582 391.657C306.611 391.657 305.824 392.445 305.824 393.416C305.824 394.387 306.611 395.174 307.582 395.174Z" fill="white"/>
        <path d="M305.443 397.376C306.414 397.376 307.201 396.589 307.201 395.618C307.201 394.647 306.414 393.859 305.443 393.859C304.473 393.859 303.686 394.647 303.686 395.618C303.686 396.589 304.473 397.376 305.443 397.376Z" fill="white"/>
        <path d="M309.5 393.64C309.928 393.64 310.275 393.293 310.275 392.865C310.275 392.437 309.928 392.091 309.5 392.091C309.073 392.091 308.726 392.437 308.726 392.865C308.726 393.293 309.073 393.64 309.5 393.64Z" fill="white"/>
        <path d="M305.623 394.065C307.214 394.065 308.504 392.775 308.504 391.183C308.504 389.591 307.214 388.3 305.623 388.3C304.032 388.3 302.742 389.591 302.742 391.183C302.742 392.775 304.032 394.065 305.623 394.065Z" fill="white"/>
        <path d="M303.707 395.748C305.298 395.748 306.588 394.457 306.588 392.865C306.588 391.273 305.298 389.983 303.707 389.983C302.116 389.983 300.826 391.273 300.826 392.865C300.826 394.457 302.116 395.748 303.707 395.748Z" fill="white"/>
        <path d="M303.707 398.631C305.298 398.631 306.588 397.34 306.588 395.748C306.588 394.156 305.298 392.865 303.707 392.865C302.116 392.865 300.826 394.156 300.826 395.748C300.826 397.34 302.116 398.631 303.707 398.631Z" fill="white"/>
        <path d="M307.972 398.631C309.563 398.631 310.853 397.34 310.853 395.748C310.853 394.156 309.563 392.865 307.972 392.865C306.381 392.865 305.091 394.156 305.091 395.748C305.091 397.34 306.381 398.631 307.972 398.631Z" fill="white"/>
        <path d="M311.479 397.676C313.07 397.676 314.36 396.385 314.36 394.793C314.36 393.201 313.07 391.911 311.479 391.911C309.888 391.911 308.598 393.201 308.598 394.793C308.598 396.385 309.888 397.676 311.479 397.676Z" fill="white"/>
        <path d="M315.708 397.676C317.299 397.676 318.589 396.385 318.589 394.793C318.589 393.201 317.299 391.911 315.708 391.911C314.117 391.911 312.827 393.201 312.827 394.793C312.827 396.385 314.117 397.676 315.708 397.676Z" fill="white"/>
        <path d="M318.263 396.299C319.855 396.299 321.145 395.008 321.145 393.416C321.145 391.824 319.855 390.533 318.263 390.533C316.672 390.533 315.382 391.824 315.382 393.416C315.382 395.008 316.672 396.299 318.263 396.299Z" fill="white"/>
        <path d="M319.658 397.692C321.25 397.692 322.54 396.401 322.54 394.809C322.54 393.217 321.25 391.926 319.658 391.926C318.067 391.926 316.777 393.217 316.777 394.809C316.777 396.401 318.067 397.692 319.658 397.692Z" fill="white"/>
        <path d="M322.537 397.692C324.128 397.692 325.418 396.401 325.418 394.809C325.418 393.217 324.128 391.926 322.537 391.926C320.946 391.926 319.656 393.217 319.656 394.809C319.656 396.401 320.946 397.692 322.537 397.692Z" fill="white"/>
        <path d="M332.891 397.692C334.482 397.692 335.772 396.401 335.772 394.809C335.772 393.217 334.482 391.926 332.891 391.926C331.3 391.926 330.01 393.217 330.01 394.809C330.01 396.401 331.3 397.692 332.891 397.692Z" fill="white"/>
        <path d="M294.886 397.676C296.477 397.676 297.767 396.385 297.767 394.793C297.767 393.201 296.477 391.911 294.886 391.911C293.295 391.911 292.005 393.201 292.005 394.793C292.005 396.385 293.295 397.676 294.886 397.676Z" fill="white"/>
        <path d="M298.252 395.399C299.843 395.399 301.133 394.108 301.133 392.516C301.133 390.924 299.843 389.633 298.252 389.633C296.661 389.633 295.371 390.924 295.371 392.516C295.371 394.108 296.661 395.399 298.252 395.399Z" fill="white"/>
        <path d="M299.024 397.676C300.615 397.676 301.905 396.385 301.905 394.793C301.905 393.201 300.615 391.911 299.024 391.911C297.432 391.911 296.143 393.201 296.143 394.793C296.143 396.385 297.432 397.676 299.024 397.676Z" fill="white"/>
        <path d="M300.781 385.222C301.751 385.222 302.538 384.434 302.538 383.463C302.538 382.492 301.751 381.705 300.781 381.705C299.81 381.705 299.023 382.492 299.023 383.463C299.023 384.434 299.81 385.222 300.781 385.222Z" fill="white"/>
        <path d="M291.103 387.836C292.073 387.836 292.86 387.048 292.86 386.077C292.86 385.106 292.073 384.319 291.103 384.319C290.132 384.319 289.345 385.106 289.345 386.077C289.345 387.048 290.132 387.836 291.103 387.836Z" fill="white"/>
        <path d="M301.389 393.669C302.359 393.669 303.146 392.882 303.146 391.911C303.146 390.94 302.359 390.152 301.389 390.152C300.418 390.152 299.631 390.94 299.631 391.911C299.631 392.882 300.418 393.669 301.389 393.669Z" fill="white"/>
        <path d="M292.005 397.506C292.975 397.506 293.762 396.719 293.762 395.748C293.762 394.777 292.975 393.99 292.005 393.99C291.034 393.99 290.248 394.777 290.248 395.748C290.248 396.719 291.034 397.506 292.005 397.506Z" fill="white"/>
        <path d="M290.639 397.506C291.609 397.506 292.396 396.719 292.396 395.748C292.396 394.777 291.609 393.99 290.639 393.99C289.668 393.99 288.881 394.777 288.881 395.748C288.881 396.719 289.668 397.506 290.639 397.506Z" fill="white"/>
        <path d="M310.356 390.857C311.326 390.857 312.113 390.069 312.113 389.098C312.113 388.127 311.326 387.34 310.356 387.34C309.385 387.34 308.598 388.127 308.598 389.098C308.598 390.069 309.385 390.857 310.356 390.857Z" fill="white"/>
        <path d="M308.502 394.274C309.472 394.274 310.259 393.487 310.259 392.516C310.259 391.545 309.472 390.757 308.502 390.757C307.531 390.757 306.744 391.545 306.744 392.516C306.744 393.487 307.531 394.274 308.502 394.274Z" fill="white"/>
        <path d="M316.506 388.078C317.477 388.078 318.264 387.291 318.264 386.32C318.264 385.349 317.477 384.562 316.506 384.562C315.536 384.562 314.749 385.349 314.749 386.32C314.749 387.291 315.536 388.078 316.506 388.078Z" fill="white"/>
        <path d="M337.263 392.612C338.234 392.612 339.021 391.825 339.021 390.854C339.021 389.883 338.234 389.096 337.263 389.096C336.293 389.096 335.506 389.883 335.506 390.854C335.506 391.825 336.293 392.612 337.263 392.612Z" fill="white"/>
        <path d="M325.577 394.274C326.548 394.274 327.335 393.487 327.335 392.516C327.335 391.545 326.548 390.757 325.577 390.757C324.607 390.757 323.82 391.545 323.82 392.516C323.82 393.487 324.607 394.274 325.577 394.274Z" fill="white"/>
        <path d="M324.933 395.174C325.904 395.174 326.69 394.387 326.69 393.416C326.69 392.445 325.904 391.657 324.933 391.657C323.963 391.657 323.176 392.445 323.176 393.416C323.176 394.387 323.963 395.174 324.933 395.174Z" fill="white"/>
        <path d="M313.951 394.274C314.922 394.274 315.709 393.487 315.709 392.516C315.709 391.545 314.922 390.757 313.951 390.757C312.981 390.757 312.194 391.545 312.194 392.516C312.194 393.487 312.981 394.274 313.951 394.274Z" fill="white"/>
        <path d="M323.569 392.612C324.54 392.612 325.327 391.825 325.327 390.854C325.327 389.883 324.54 389.096 323.569 389.096C322.599 389.096 321.812 389.883 321.812 390.854C321.812 391.825 322.599 392.612 323.569 392.612Z" fill="white"/>
        <path d="M332.328 391.35C333.298 391.35 334.085 390.562 334.085 389.591C334.085 388.62 333.298 387.833 332.328 387.833C331.357 387.833 330.57 388.62 330.57 389.591C330.57 390.562 331.357 391.35 332.328 391.35Z" fill="white"/>
        <path d="M327.715 395.174C328.685 395.174 329.472 394.387 329.472 393.416C329.472 392.445 328.685 391.657 327.715 391.657C326.744 391.657 325.958 392.445 325.958 393.416C325.958 394.387 326.744 395.174 327.715 395.174Z" fill="white"/>
        <path d="M325.577 397.376C326.548 397.376 327.335 396.589 327.335 395.618C327.335 394.647 326.548 393.859 325.577 393.859C324.607 393.859 323.82 394.647 323.82 395.618C323.82 396.589 324.607 397.376 325.577 397.376Z" fill="white"/>
        <path d="M329.634 393.64C330.062 393.64 330.409 393.293 330.409 392.865C330.409 392.437 330.062 392.091 329.634 392.091C329.207 392.091 328.86 392.437 328.86 392.865C328.86 393.293 329.207 393.64 329.634 393.64Z" fill="white"/>
        <path d="M337.826 394.065C339.418 394.065 340.708 392.775 340.708 391.183C340.708 389.591 339.418 388.3 337.826 388.3C336.235 388.3 334.945 389.591 334.945 391.183C334.945 392.775 336.235 394.065 337.826 394.065Z" fill="white"/>
        <path d="M335.912 395.748C337.504 395.748 338.793 394.457 338.793 392.865C338.793 391.273 337.504 389.983 335.912 389.983C334.321 389.983 333.031 391.273 333.031 392.865C333.031 394.457 334.321 395.748 335.912 395.748Z" fill="white"/>
        <path d="M335.912 398.631C337.504 398.631 338.793 397.34 338.793 395.748C338.793 394.156 337.504 392.865 335.912 392.865C334.321 392.865 333.031 394.156 333.031 395.748C333.031 397.34 334.321 398.631 335.912 398.631Z" fill="white"/>
        <path d="M340.178 398.631C341.77 398.631 343.06 397.34 343.06 395.748C343.06 394.156 341.77 392.865 340.178 392.865C338.587 392.865 337.297 394.156 337.297 395.748C337.297 397.34 338.587 398.631 340.178 398.631Z" fill="white"/>
        <path d="M343.685 397.676C345.277 397.676 346.566 396.385 346.566 394.793C346.566 393.201 345.277 391.911 343.685 391.911C342.094 391.911 340.804 393.201 340.804 394.793C340.804 396.385 342.094 397.676 343.685 397.676Z" fill="white"/>
        <path d="M347.914 397.676C349.506 397.676 350.796 396.385 350.796 394.793C350.796 393.201 349.506 391.911 347.914 391.911C346.323 391.911 345.033 393.201 345.033 394.793C345.033 396.385 346.323 397.676 347.914 397.676Z" fill="white"/>
        <path d="M350.469 396.299C352.061 396.299 353.351 395.008 353.351 393.416C353.351 391.824 352.061 390.533 350.469 390.533C348.878 390.533 347.588 391.824 347.588 393.416C347.588 395.008 348.878 396.299 350.469 396.299Z" fill="white"/>
        <path d="M351.862 397.692C353.453 397.692 354.743 396.401 354.743 394.809C354.743 393.217 353.453 391.926 351.862 391.926C350.27 391.926 348.98 393.217 348.98 394.809C348.98 396.401 350.27 397.692 351.862 397.692Z" fill="white"/>
        <path d="M327.092 397.676C328.683 397.676 329.973 396.385 329.973 394.793C329.973 393.201 328.683 391.911 327.092 391.911C325.501 391.911 324.211 393.201 324.211 394.793C324.211 396.385 325.501 397.676 327.092 397.676Z" fill="white"/>
        <path d="M330.458 395.399C332.049 395.399 333.339 394.108 333.339 392.516C333.339 390.924 332.049 389.633 330.458 389.633C328.867 389.633 327.577 390.924 327.577 392.516C327.577 394.108 328.867 395.399 330.458 395.399Z" fill="white"/>
        <path d="M331.23 397.676C332.821 397.676 334.111 396.385 334.111 394.793C334.111 393.201 332.821 391.911 331.23 391.911C329.639 391.911 328.349 393.201 328.349 394.793C328.349 396.385 329.639 397.676 331.23 397.676Z" fill="white"/>
        <path d="M332.984 385.222C333.955 385.222 334.742 384.434 334.742 383.463C334.742 382.492 333.955 381.705 332.984 381.705C332.014 381.705 331.227 382.492 331.227 383.463C331.227 384.434 332.014 385.222 332.984 385.222Z" fill="white"/>
        <path d="M323.309 387.836C324.279 387.836 325.066 387.048 325.066 386.077C325.066 385.106 324.279 384.319 323.309 384.319C322.338 384.319 321.551 385.106 321.551 386.077C321.551 387.048 322.338 387.836 323.309 387.836Z" fill="white"/>
        <path d="M333.594 393.669C334.565 393.669 335.352 392.882 335.352 391.911C335.352 390.94 334.565 390.152 333.594 390.152C332.624 390.152 331.837 390.94 331.837 391.911C331.837 392.882 332.624 393.669 333.594 393.669Z" fill="white"/>
        <path d="M324.211 397.506C325.182 397.506 325.968 396.719 325.968 395.748C325.968 394.777 325.182 393.99 324.211 393.99C323.24 393.99 322.454 394.777 322.454 395.748C322.454 396.719 323.24 397.506 324.211 397.506Z" fill="white"/>
        <path d="M322.845 397.506C323.815 397.506 324.602 396.719 324.602 395.748C324.602 394.777 323.815 393.99 322.845 393.99C321.874 393.99 321.087 394.777 321.087 395.748C321.087 396.719 321.874 397.506 322.845 397.506Z" fill="white"/>
        <path d="M342.562 390.857C343.532 390.857 344.319 390.069 344.319 389.098C344.319 388.127 343.532 387.34 342.562 387.34C341.591 387.34 340.804 388.127 340.804 389.098C340.804 390.069 341.591 390.857 342.562 390.857Z" fill="white"/>
        <path d="M340.708 394.274C341.678 394.274 342.465 393.487 342.465 392.516C342.465 391.545 341.678 390.757 340.708 390.757C339.737 390.757 338.95 391.545 338.95 392.516C338.95 393.487 339.737 394.274 340.708 394.274Z" fill="white"/>
        <path d="M348.712 388.078C349.683 388.078 350.47 387.291 350.47 386.32C350.47 385.349 349.683 384.562 348.712 384.562C347.742 384.562 346.955 385.349 346.955 386.32C346.955 387.291 347.742 388.078 348.712 388.078Z" fill="white"/>
        <path d="M346.157 394.274C347.127 394.274 347.914 393.487 347.914 392.516C347.914 391.545 347.127 390.757 346.157 390.757C345.186 390.757 344.399 391.545 344.399 392.516C344.399 393.487 345.186 394.274 346.157 394.274Z" fill="white"/>
        <path d="M356.75 350.53C357.178 350.53 357.525 350.183 357.525 349.755C357.525 349.327 357.178 348.98 356.75 348.98C356.323 348.98 355.976 349.327 355.976 349.755C355.976 350.183 356.323 350.53 356.75 350.53Z" fill="white"/>
        <path d="M346.931 348.179C347.359 348.179 347.706 347.832 347.706 347.404C347.706 346.976 347.359 346.63 346.931 346.63C346.503 346.63 346.157 346.976 346.157 347.404C346.157 347.832 346.503 348.179 346.931 348.179Z" fill="white"/>
        <path d="M316.652 347.055C317.623 347.055 318.41 346.268 318.41 345.296C318.41 344.325 317.623 343.538 316.652 343.538C315.682 343.538 314.895 344.325 314.895 345.296C314.895 346.268 315.682 347.055 316.652 347.055Z" fill="white"/>
        <path d="M386.553 351.513C386.553 351.513 390.678 287.013 429.673 309.065C468.669 331.117 468.52 351.513 468.52 351.513H386.553Z" fill="#FDECE0"/>
        <path d="M364.758 361.988C364.758 361.988 373.12 349.677 390.237 351.513C407.354 353.35 400.63 359.467 400.366 359.556C400.106 359.642 376.076 362.353 376.076 362.353L364.758 361.988Z" fill="#FDECE0"/>
        <path d="M434.3 394.107H427.362C426.168 394.107 425.193 393.129 425.193 391.937V316.782C425.193 315.587 426.171 314.612 427.362 314.612H434.3C435.495 314.612 436.47 315.59 436.47 316.782V391.937C436.47 393.129 435.492 394.107 434.3 394.107Z" fill="#FFCDB6"/>
        <path d="M430.83 317.766C449.629 317.766 464.869 302.517 464.869 283.708C464.869 264.898 449.629 249.65 430.83 249.65C412.031 249.65 396.791 264.898 396.791 283.708C396.791 302.517 412.031 317.766 430.83 317.766Z" fill="#025949"/>
        <path d="M430.83 346.546C446.714 346.546 459.591 333.662 459.591 317.768C459.591 301.875 446.714 288.991 430.83 288.991C414.945 288.991 402.068 301.875 402.068 317.768C402.068 333.662 414.945 346.546 430.83 346.546Z" fill="#025949"/>
        <path d="M126.644 351.513C126.644 351.513 136.854 333.844 157.606 335.819C178.358 337.793 176.7 351.513 176.7 351.513H126.644Z" fill="#FFCDB6"/>
        <path d="M354.561 391.044L354.201 396.672C354.201 396.672 358.748 396.974 358.748 396.878C358.748 396.781 354.561 391.044 354.561 391.044Z" fill="#FDECE0"/>
        <path d="M123.989 429.155H112.462C110.741 429.155 109.333 427.747 109.333 426.025V322.429C109.333 320.707 110.741 319.298 112.462 319.298H123.989C125.71 319.298 127.118 320.707 127.118 322.429V426.025C127.118 427.747 125.71 429.155 123.989 429.155Z" fill="#FFCDB6"/>
        <path d="M118.224 391.787C138.23 391.787 154.448 375.56 154.448 355.543C154.448 335.526 138.23 319.298 118.224 319.298C98.218 319.298 82 335.526 82 355.543C82 375.56 98.218 391.787 118.224 391.787Z" fill="#03A678"/>
        <path d="M118.224 351.46C135.976 351.46 150.367 337.061 150.367 319.298C150.367 301.536 135.976 287.137 118.224 287.137C100.472 287.137 86.0806 301.536 86.0806 319.298C86.0806 337.061 100.472 351.46 118.224 351.46Z" fill="#03A678"/>
        <path d="M118.224 307.027C132.859 307.027 144.723 295.156 144.723 280.513C144.723 265.87 132.859 254 118.224 254C103.589 254 91.7256 265.87 91.7256 280.513C91.7256 295.156 103.589 307.027 118.224 307.027Z" fill="#03A678"/>
    </g>
    <defs>
        <linearGradient id="paint0_linear" x1="336.851" y1="120.802" x2="351.148" y2="200.947" gradientUnits="userSpaceOnUse">
            <stop offset="0.00785384" stop-color="white"/>
            <stop offset="1" stop-color="#A0DAF7"/>
        </linearGradient>
        <linearGradient id="paint1_linear" x1="313.587" y1="346.669" x2="313.126" y2="378.493" gradientUnits="userSpaceOnUse">
            <stop offset="0.00785384" stop-color="white"/>
            <stop offset="1" stop-color="#A0DAF7"/>
        </linearGradient>
        <linearGradient id="paint2_linear" x1="281.61" y1="317.261" x2="292.864" y2="477.235" gradientUnits="userSpaceOnUse">
            <stop offset="0.00785384" stop-color="white"/>
            <stop offset="1" stop-color="#A0DAF7"/>
        </linearGradient>
        <linearGradient id="paint3_linear" x1="359.211" y1="228.571" x2="356.725" y2="271.441" gradientUnits="userSpaceOnUse">
            <stop offset="0.00785384" stop-color="white"/>
            <stop offset="1" stop-color="#A0DAF7"/>
        </linearGradient>
        <clipPath id="clip0">
            <rect width="480" height="553.696" fill="white"/>
        </clipPath>
    </defs>
</svg>
