<svg width="18" height="253" viewBox="0 0 18 253" fill="none" xmlns="http://www.w3.org/2000/svg">
    <path d="M9 5L9 85" stroke="#FFCDB6" stroke-width="2"/>
    <path d="M9 208V245.5" stroke="#FFCDB6" stroke-width="2"/>
    <path d="M9 157L9 205" stroke="#FFCDB6" stroke-width="2"/>
    <circle cx="9" cy="244" r="9" transform="rotate(90 9 244)" fill="#04D99D"/>
    <circle cx="9" cy="205" r="9" transform="rotate(90 9 205)" fill="#04D99D"/>
    <circle cx="9" cy="166" r="9" transform="rotate(90 9 166)" fill="#04D99D"/>
    <circle cx="9" cy="87" r="9" transform="rotate(90 9 87)" fill="#025949"/>
    <circle cx="9" cy="9" r="9" transform="rotate(90 9 9)" fill="#04D99D"/>
    <path d="M12 135.803C12 135.956 11.9367 136.066 11.81 136.133C11.6833 136.2 11.56 136.206 11.44 136.153L4.46 133.213C4.28 133.14 4.19 133.013 4.19 132.833C4.19 132.66 4.28 132.536 4.46 132.463L11.45 129.513C11.5767 129.453 11.7 129.463 11.82 129.543C11.94 129.616 12 129.723 12 129.863C12 129.943 11.98 130.016 11.94 130.083C11.9 130.143 11.84 130.193 11.76 130.233L5.09 132.983L5.09 132.673L11.76 135.443C11.84 135.476 11.9 135.526 11.94 135.593C11.98 135.653 12 135.723 12 135.803ZM10.14 135.143L9.47 134.843L9.47 130.783L10.14 130.483L10.14 135.143ZM3.32 134.013C3.32 134.126 3.29 134.223 3.23 134.303C3.16333 134.376 3.07667 134.413 2.97 134.413C2.83 134.413 2.71667 134.35 2.63 134.223L1.85 133.043C1.81667 132.99 1.8 132.926 1.8 132.853C1.8 132.813 1.80667 132.776 1.82 132.743C1.82667 132.71 1.83667 132.68 1.85 132.653L2.63 131.483C2.71667 131.356 2.83 131.293 2.97 131.293C3.07 131.293 3.15333 131.33 3.22 131.403C3.28667 131.476 3.32 131.57 3.32 131.683C3.32 131.73 3.31333 131.773 3.3 131.813C3.28667 131.846 3.26667 131.883 3.24 131.923L2.6 132.853L3.24 133.783C3.29333 133.856 3.32 133.933 3.32 134.013ZM12.05 126.227C12.05 126.754 11.9333 127.22 11.7 127.627C11.46 128.034 11.13 128.354 10.71 128.587C10.29 128.814 9.81 128.927 9.27 128.927C8.72333 128.927 8.24 128.807 7.82 128.567C7.4 128.327 7.07333 127.997 6.84 127.577C6.6 127.157 6.48 126.68 6.48 126.147C6.48 125.607 6.6 125.13 6.84 124.717C7.07333 124.297 7.4 123.97 7.82 123.737C8.24 123.497 8.72333 123.374 9.27 123.367L9.51 123.817C10.0033 123.817 10.4433 123.92 10.83 124.127C11.21 124.334 11.51 124.62 11.73 124.987C11.9433 125.347 12.05 125.76 12.05 126.227ZM14.16 126.127C14.16 126.654 14.06 127.117 13.86 127.517C13.6667 127.917 13.4 128.247 13.06 128.507C12.98 128.58 12.8933 128.614 12.8 128.607C12.7067 128.594 12.63 128.544 12.57 128.457C12.51 128.37 12.49 128.274 12.51 128.167C12.53 128.06 12.58 127.977 12.66 127.917C12.9 127.724 13.0933 127.477 13.24 127.177C13.3867 126.87 13.46 126.517 13.46 126.117C13.46 125.744 13.37 125.407 13.19 125.107C13.01 124.807 12.7567 124.57 12.43 124.397C12.1033 124.217 11.72 124.127 11.28 124.127L9.76 124.127L9.18 123.837L9.27 123.367L11.31 123.367C11.85 123.367 12.3333 123.487 12.76 123.727C13.1933 123.967 13.5333 124.294 13.78 124.707C14.0333 125.12 14.16 125.594 14.16 126.127ZM11.35 126.147C11.35 125.754 11.2633 125.407 11.09 125.107C10.91 124.8 10.6633 124.56 10.35 124.387C10.0367 124.214 9.67667 124.127 9.27 124.127C8.86333 124.127 8.50333 124.214 8.19 124.387C7.87 124.56 7.62333 124.8 7.45 125.107C7.27 125.407 7.18 125.754 7.18 126.147C7.18 126.54 7.27 126.89 7.45 127.197C7.62333 127.504 7.87 127.744 8.19 127.917C8.50333 128.09 8.86333 128.177 9.27 128.177C9.67667 128.177 10.0367 128.09 10.35 127.917C10.6633 127.744 10.91 127.504 11.09 127.197C11.2633 126.89 11.35 126.54 11.35 126.147ZM12.05 119.39C12.05 119.93 11.9333 120.41 11.7 120.83C11.46 121.243 11.13 121.57 10.71 121.81C10.29 122.043 9.81 122.16 9.27 122.16C8.72333 122.16 8.24333 122.05 7.83 121.83C7.41 121.603 7.08 121.293 6.84 120.9C6.6 120.506 6.48 120.053 6.48 119.54C6.48 119.033 6.59667 118.593 6.83 118.22C7.05667 117.84 7.37333 117.546 7.78 117.34C8.18667 117.133 8.65 117.03 9.17 117.03C9.27667 117.03 9.36333 117.063 9.43 117.13C9.49 117.196 9.52 117.283 9.52 117.39L9.52 121.64L8.88 121.64L8.88 117.31L9.19 117.74C8.80333 117.733 8.45667 117.803 8.15 117.95C7.84333 118.096 7.60333 118.306 7.43 118.58C7.25667 118.846 7.17 119.166 7.17 119.54C7.17 119.92 7.26 120.253 7.44 120.54C7.62 120.826 7.87 121.05 8.19 121.21C8.50333 121.363 8.86333 121.44 9.27 121.44C9.67667 121.44 10.0367 121.353 10.35 121.18C10.6633 121 10.91 120.756 11.09 120.45C11.27 120.143 11.36 119.79 11.36 119.39C11.36 119.15 11.32 118.91 11.24 118.67C11.1533 118.423 11.0467 118.226 10.92 118.08C10.86 118.006 10.83 117.923 10.83 117.83C10.8233 117.736 10.8467 117.656 10.9 117.59C10.98 117.503 11.0667 117.46 11.16 117.46C11.2533 117.453 11.3333 117.49 11.4 117.57C11.5867 117.79 11.7433 118.07 11.87 118.41C11.99 118.75 12.05 119.076 12.05 119.39Z" fill="#45396D"/>
    <circle cx="9" cy="48" r="9" transform="rotate(90 9 48)" fill="#04D99D"/>
</svg>
