<svg width="47" height="47" viewBox="0 0 47 47" fill="none" xmlns="http://www.w3.org/2000/svg">
<circle cx="23.5" cy="23.5" r="23.5" fill="#025949"/>
<path d="M29.7487 33.176C30.2038 33.4888 30.3191 34.1114 30.0062 34.5665C29.6933 35.0216 29.0707 35.1369 28.6156 34.824L29.7487 33.176ZM13.9094 23.5L13.3429 24.324C13.0715 24.1375 12.9094 23.8293 12.9094 23.5C12.9094 23.1707 13.0715 22.8625 13.3429 22.676L13.9094 23.5ZM28.6156 12.176C29.0707 11.8631 29.6933 11.9784 30.0062 12.4335C30.3191 12.8886 30.2038 13.5112 29.7487 13.824L28.6156 12.176ZM28.6156 34.824L13.3429 24.324L14.4759 22.676L29.7487 33.176L28.6156 34.824ZM13.3429 22.676L28.6156 12.176L29.7487 13.824L14.4759 24.324L13.3429 22.676Z" fill="white"/>
</svg>
