<svg width="124" height="101" viewBox="0 0 124 101" fill="none" xmlns="http://www.w3.org/2000/svg">
<path d="M0 77.6941L61.9936 101V46.959L0 23.6505V77.6941Z" fill="#FDECE0"/>
<path d="M123.28 76.3777L61.9937 101V46.959L123.987 21.9817L123.28 76.3777Z" fill="#FDECE0"/>
<path d="M0 23.6506L61.9936 46.9591L123.987 21.9819L59.1017 3.96216L0 23.6506Z" fill="#FFCDB6"/>
<path d="M76.6343 27.1409C76.6343 29.0455 73.7036 30.7091 69.345 31.6031C67.1865 32.0462 64.673 32.3001 61.9936 32.3001C59.3142 32.3001 56.8007 32.0462 54.6422 31.6031C50.2836 30.7091 47.3529 29.0455 47.3529 27.1409C47.3529 24.2931 53.9088 21.9817 61.9936 21.9817C70.0784 21.9817 76.6343 24.2931 76.6343 27.1409Z" fill="#FFCDB6"/>
<path d="M73.3201 4.43108C73.3201 6.06876 70.804 7.49655 67.0596 8.26357C65.2042 8.64449 63.0457 8.86215 60.7421 8.86215C58.441 8.86215 56.2825 8.64449 54.4271 8.26357C50.6827 7.49655 48.1666 6.06876 48.1666 4.43108C48.1666 1.98492 53.7975 0 60.7421 0C67.6893 0 73.3201 1.98492 73.3201 4.43108Z" fill="#FFCDB6"/>
<path d="M109.09 13.6094C109.09 15.514 106.162 17.1776 101.801 18.069C99.6422 18.5121 97.1286 18.7661 94.4493 18.7661C91.7699 18.7661 89.2589 18.5121 87.1004 18.069C82.7419 17.1776 79.8112 15.514 79.8112 13.6094C79.8112 10.759 86.3645 8.4502 94.4493 8.4502C102.537 8.4502 109.09 10.759 109.09 13.6094Z" fill="#FFCDB6"/>
<path d="M44.4482 14.6458C44.4482 16.4053 41.7403 17.9419 37.7135 18.7686C35.7182 19.178 33.399 19.4112 30.9244 19.4112C28.4497 19.4112 26.1305 19.178 24.1352 18.7686C20.1084 17.9419 17.4005 16.4053 17.4005 14.6458C17.4005 12.0131 23.4537 9.88049 30.9244 9.88049C38.3924 9.88049 44.4482 12.0131 44.4482 14.6458Z" fill="#FFCDB6"/>
<path d="M44.4482 14.6458V22.8886C44.4482 25.5213 38.3924 27.6539 30.9244 27.6539C23.4537 27.6539 17.4005 25.5213 17.4005 22.8886V14.6458C17.4005 16.4052 20.1084 17.9419 24.1352 18.7685C26.1305 19.1779 28.4497 19.4111 30.9244 19.4111C33.399 19.4111 35.7182 19.1779 37.7135 18.7685C41.7403 17.9419 44.4482 16.4052 44.4482 14.6458Z" fill="#FDECE0"/>
<path d="M76.6343 27.141V36.0653C76.6343 38.9157 70.0784 41.2246 61.9936 41.2246C53.9088 41.2246 47.3529 38.9157 47.3529 36.0653V27.141C47.3529 29.0456 50.2836 30.7092 54.6422 31.6032C56.8007 32.0463 59.3142 32.3002 61.9936 32.3002C64.673 32.3002 67.1865 32.0463 69.345 31.6032C73.7036 30.7092 76.6343 29.0456 76.6343 27.141Z" fill="#FDECE0"/>
<path d="M73.3201 4.43103V12.0986C73.3201 14.5448 67.6893 16.5297 60.7421 16.5297C53.7975 16.5297 48.1666 14.5448 48.1666 12.0986V4.43103C48.1666 6.06871 50.6827 7.49651 54.4271 8.26352C56.2825 8.64444 58.441 8.86211 60.7421 8.86211C63.0457 8.86211 65.2042 8.64444 67.0596 8.26352C70.804 7.49651 73.3201 6.06871 73.3201 4.43103Z" fill="#FDECE0"/>
<path d="M109.09 13.6094V22.5311C109.09 25.3815 102.537 27.6904 94.4493 27.6904C86.3645 27.6904 79.8112 25.3815 79.8112 22.5311V13.6094C79.8112 15.514 82.7419 17.1776 87.1004 18.069C89.2589 18.5121 91.7699 18.766 94.4493 18.766C97.1286 18.766 99.6422 18.5121 101.801 18.069C106.162 17.1776 109.09 15.514 109.09 13.6094Z" fill="#FDECE0"/>
</svg>
