<svg width="105" height="102" viewBox="0 0 105 102" fill="none" xmlns="http://www.w3.org/2000/svg">
<path d="M82.6756 5.76794C74.4945 5.76794 67.7432 11.9892 66.8924 19.9401C68.4825 20.4004 70.0309 20.9444 71.5443 21.5791C71.5792 15.4695 76.559 10.5106 82.6756 10.5106C88.8132 10.5106 93.8069 15.5043 93.8069 21.6419C93.8069 26.4543 90.7242 30.5204 86.4488 32.0757C87.5578 33.2893 88.597 34.5726 89.5594 35.9187C94.867 33.3451 98.5496 27.9259 98.5496 21.6419C98.5496 12.8889 91.4286 5.76794 82.6756 5.76794ZM88.032 21.6419C88.032 18.6917 85.6258 16.2855 82.6756 16.2855C79.7184 16.2855 77.3122 18.6917 77.3122 21.6419C77.3122 24.5991 79.7184 27.0053 82.6756 27.0053C85.6258 27.0053 88.032 24.5991 88.032 21.6419ZM73.818 43.8417C71.7675 43.8417 70.1076 45.5016 70.1076 47.5521C70.1076 49.5956 71.7675 51.2625 73.818 51.2625C75.8615 51.2625 77.5285 49.5956 77.5285 47.5521C77.5285 45.5016 75.8615 43.8417 73.818 43.8417ZM52.1622 50.3419C38.3597 50.3419 27.1308 59.5552 27.1308 70.8818C27.1308 82.2153 38.3597 91.4286 52.1622 91.4286C65.9647 91.4286 77.1937 82.2153 77.1937 70.8818C77.1937 59.5552 65.9647 50.3419 52.1622 50.3419ZM10.5176 21.6419C10.5176 15.5043 15.5113 10.5106 21.6488 10.5106C27.7585 10.5106 32.7243 15.4555 32.7801 21.5512C34.2866 20.9165 35.8419 20.3795 37.4251 19.9192C36.5673 11.9752 29.8229 5.76794 21.6488 5.76794C12.8959 5.76794 5.7749 12.8889 5.7749 21.6419C5.7749 27.9189 9.45046 33.3311 14.7441 35.9047C15.7066 34.5656 16.7388 33.2823 17.8547 32.0618C13.5863 30.5065 10.5176 26.4473 10.5176 21.6419ZM30.5064 51.2625C32.55 51.2625 34.2169 49.5956 34.2169 47.5521C34.2169 45.5016 32.55 43.8417 30.5064 43.8417C28.449 43.8417 26.796 45.5016 26.796 47.5521C26.796 49.5956 28.449 51.2625 30.5064 51.2625ZM21.6488 16.2855C18.6917 16.2855 16.2924 18.6917 16.2924 21.6419C16.2924 24.5991 18.6917 27.0053 21.6488 27.0053C22.7159 27.0053 23.7063 26.6844 24.5433 26.1404C24.62 26.0916 24.6967 26.0428 24.7664 25.987C26.1195 25.0106 27.0122 23.4343 27.0122 21.6419C27.0122 18.6917 24.606 16.2855 21.6488 16.2855Z" fill="#793651"/>
<path d="M104.324 21.6418C104.324 9.70849 94.6089 0 82.6756 0C71.7396 0 62.6937 8.16015 61.25 18.7056C59.1855 18.3987 57.0653 18.2383 54.9171 18.2383H49.3375C47.2033 18.2383 45.118 18.3987 43.0675 18.6986C41.6238 8.15318 32.5848 0 21.6488 0C9.70849 0 0 9.70849 0 21.6418C0 29.9903 4.76358 37.2298 11.7032 40.8356C8.71811 46.5338 7.02331 52.9922 7.02331 59.8341C7.02331 82.7732 25.959 101.43 49.3375 101.43H54.9171C78.2886 101.43 97.3011 82.7732 97.3011 59.8341C97.3011 52.9922 95.5993 46.5408 92.6003 40.8426C99.5539 37.2368 104.324 29.9973 104.324 21.6418ZM77.3122 21.6418C77.3122 18.6916 79.7184 16.2854 82.6756 16.2854C85.6258 16.2854 88.032 18.6916 88.032 21.6418C88.032 24.599 85.6258 27.0052 82.6756 27.0052C79.7184 27.0052 77.3122 24.599 77.3122 21.6418ZM34.2168 47.5521C34.2168 49.5956 32.5499 51.2625 30.5064 51.2625C28.4489 51.2625 26.796 49.5956 26.796 47.5521C26.796 45.5016 28.4489 43.8416 30.5064 43.8416C32.5499 43.8416 34.2168 45.5016 34.2168 47.5521ZM24.7664 25.9869C24.6967 26.0427 24.6199 26.0916 24.5432 26.1404C23.7063 26.6844 22.7159 27.0052 21.6488 27.0052C18.6916 27.0052 16.2924 24.599 16.2924 21.6418C16.2924 18.6916 18.6916 16.2854 21.6488 16.2854C24.606 16.2854 27.0122 18.6916 27.0122 21.6418C27.0122 23.4343 26.1195 25.0105 24.7664 25.9869ZM27.1308 70.8817C27.1308 59.5552 38.3597 50.3419 52.1622 50.3419C65.9647 50.3419 77.1936 59.5552 77.1936 70.8817C77.1936 82.2153 65.9647 91.4286 52.1622 91.4286C38.3597 91.4286 27.1308 82.2153 27.1308 70.8817ZM73.818 51.2625C71.7675 51.2625 70.1076 49.5956 70.1076 47.5521C70.1076 45.5016 71.7675 43.8416 73.818 43.8416C75.8615 43.8416 77.5284 45.5016 77.5284 47.5521C77.5284 49.5956 75.8615 51.2625 73.818 51.2625ZM5.77488 21.6418C5.77488 12.8889 12.8958 5.7679 21.6488 5.7679C29.8229 5.7679 36.5672 11.9752 37.4251 19.9191C35.8419 20.3795 34.2866 20.9165 32.7801 21.5512C32.7243 15.4555 27.7585 10.5106 21.6488 10.5106C15.5113 10.5106 10.5175 15.5043 10.5175 21.6418C10.5175 26.4473 13.5863 30.5064 17.8547 32.0617C16.7388 33.2823 15.7065 34.5656 14.7441 35.9047C9.45043 33.3311 5.77488 27.9189 5.77488 21.6418ZM89.5594 35.9186C88.5969 34.5725 87.5577 33.2892 86.4488 32.0757C90.7242 30.5204 93.8069 26.4542 93.8069 21.6418C93.8069 15.5043 88.8131 10.5106 82.6756 10.5106C76.559 10.5106 71.5792 15.4694 71.5443 21.5791C70.0308 20.9444 68.4825 20.4004 66.8923 19.9401C67.7432 11.9891 74.4945 5.7679 82.6756 5.7679C91.4286 5.7679 98.5495 12.8889 98.5495 21.6418C98.5495 27.9259 94.867 33.345 89.5594 35.9186Z" fill="#FDECE0"/>
<path d="M30.5063 51.2625C32.5555 51.2625 34.2168 49.6013 34.2168 47.5521C34.2168 45.5029 32.5555 43.8417 30.5063 43.8417C28.4571 43.8417 26.7959 45.5029 26.7959 47.5521C26.7959 49.6013 28.4571 51.2625 30.5063 51.2625Z" fill="#F2D39B"/>
<path d="M77.1936 70.8818C77.1936 82.2153 65.9647 91.4286 52.1622 91.4286C38.3597 91.4286 27.1307 82.2153 27.1307 70.8818C27.1307 59.5552 38.3597 50.3419 52.1622 50.3419C65.9647 50.3419 77.1936 59.5552 77.1936 70.8818Z" fill="#F2D39B"/>
<path d="M73.818 51.2625C75.8672 51.2625 77.5284 49.6013 77.5284 47.5521C77.5284 45.5029 75.8672 43.8417 73.818 43.8417C71.7688 43.8417 70.1075 45.5029 70.1075 47.5521C70.1075 49.6013 71.7688 51.2625 73.818 51.2625Z" fill="#F2D39B"/>
<path d="M52.1622 50.3419C38.3597 50.3419 27.1307 59.5552 27.1307 70.8818C27.1307 82.2153 38.3597 91.4286 52.1622 91.4286C65.9647 91.4286 77.1936 82.2153 77.1936 70.8818C77.1936 59.5552 65.9647 50.3419 52.1622 50.3419Z" fill="#45396D"/>
<path d="M32.5 57C37.7467 57 42 52.7467 42 47.5C42 42.2533 37.7467 38 32.5 38C27.2533 38 23 42.2533 23 47.5C23 52.7467 27.2533 57 32.5 57Z" fill="#45396D"/>
<path d="M70.5 57C75.7467 57 80 52.7467 80 47.5C80 42.2533 75.7467 38 70.5 38C65.2533 38 61 42.2533 61 47.5C61 52.7467 65.2533 57 70.5 57Z" fill="#45396D"/>
<path d="M52.1622 86.4767C41.0867 86.4767 32.0826 79.4812 32.0826 70.8817C32.0826 62.2822 41.0937 55.2867 52.1622 55.2867C63.2307 55.2867 72.2418 62.2822 72.2418 70.8817C72.2418 79.4812 63.2307 86.4767 52.1622 86.4767Z" fill="#FFCDB6"/>
<path d="M60.2386 73.5112C58.1881 74.8433 56.3259 75.6175 54.6381 76.0429V68.2663H54.6032C56.2004 67.6107 57.3024 66.3553 57.3024 64.8977C57.3024 62.7704 55.0008 61.0408 52.1622 61.0408C49.3236 61.0408 47.022 62.7704 47.022 64.8977C47.022 66.3623 48.1239 67.6177 49.7211 68.2663H49.6862V76.3219C46.4849 75.8127 44.6576 74.0691 44.5112 73.9157C43.5626 72.9393 42.0073 72.9183 41.0239 73.8599C40.0405 74.8084 40.0056 76.3707 40.9542 77.3611C42.7396 79.2163 46.471 81.4133 51.4368 81.4133C54.7776 81.4133 58.6833 80.4159 62.9378 77.654C64.0816 76.9077 64.4094 75.3733 63.6631 74.2295C62.9168 73.0857 61.3755 72.7649 60.2386 73.5112Z" fill="#45396D"/>
<path d="M37.4251 19.9192C35.8419 20.3795 34.2866 20.9165 32.7801 21.5512C32.7243 15.4555 27.7585 10.5106 21.6488 10.5106C15.5113 10.5106 10.5176 15.5043 10.5176 21.6419C10.5176 26.4473 13.5863 30.5065 17.8547 32.0618C16.7388 33.2823 15.7066 34.5656 14.7441 35.9047C9.45046 33.3311 5.7749 27.9189 5.7749 21.6419C5.7749 12.8889 12.8959 5.76794 21.6488 5.76794C29.8229 5.76794 36.5673 11.9752 37.4251 19.9192Z" fill="#45396D"/>
<path d="M98.5497 21.6419C98.5497 27.9259 94.8671 33.3451 89.5595 35.9187C88.5971 34.5726 87.5579 33.2893 86.4489 32.0757C90.7243 30.5204 93.807 26.4543 93.807 21.6419C93.807 15.5043 88.8133 10.5106 82.6757 10.5106C76.5591 10.5106 71.5793 15.4695 71.5444 21.5791C70.031 20.9444 68.4826 20.4004 66.8925 19.9401C67.7433 11.9892 74.4946 5.76794 82.6757 5.76794C91.4287 5.76794 98.5497 12.8889 98.5497 21.6419Z" fill="#45396D"/>
<path d="M27.0123 21.6418C27.0123 23.4343 26.1195 25.0105 24.7665 25.9869C24.6967 26.0427 24.62 26.0915 24.5433 26.1404C23.7064 26.6844 22.716 27.0052 21.6489 27.0052C18.6917 27.0052 16.2925 24.599 16.2925 21.6418C16.2925 18.6916 18.6917 16.2854 21.6489 16.2854C24.6061 16.2854 27.0123 18.6916 27.0123 21.6418Z" fill="#FFCDB6"/>
<path d="M88.032 21.6418C88.032 24.599 85.6258 27.0052 82.6756 27.0052C79.7185 27.0052 77.3123 24.599 77.3123 21.6418C77.3123 18.6916 79.7185 16.2854 82.6756 16.2854C85.6258 16.2854 88.032 18.6916 88.032 21.6418Z" fill="#FFCDB6"/>
</svg>
