<svg width="1440" height="291" viewBox="0 0 1440 291" fill="none" xmlns="http://www.w3.org/2000/svg">
<path d="M589.5 214.967C387.449 188.997 111.5 205.288 0 196.789V291H1440V193.79C1120.5 214.733 864 250.25 589.5 214.967Z" fill="#025949"/>
<rect x="255.561" y="261.535" width="8.36233" height="71.0168" rx="2" transform="rotate(128.837 255.561 261.535)" fill="#025243"/>
<g clip-path="url(#clip0)">
<path d="M230.913 296.932C262.705 309.011 312.943 328.198 337.384 338.045C342.386 340.062 345.595 336.076 342.561 331.615C327.72 309.844 298.251 264.86 279.663 236.379C271.917 224.509 255.585 220.206 249.065 228.305L232.781 248.532L216.497 268.758C209.967 276.857 217.666 291.894 230.913 296.932Z" fill="#025243"/>
</g>
<rect x="197.31" y="139.724" width="14.4529" height="85.4034" rx="2" fill="#FFCDB6"/>
<g clip-path="url(#clip1)">
<path d="M271.678 136.119C253.482 97.2282 224.863 35.6994 211.629 5.37898C208.922 -0.827173 200.078 -0.827173 197.361 5.37898C184.137 35.6994 155.518 97.2282 137.321 136.119C129.737 152.327 141.645 170.87 159.616 170.87H204.495H249.375C267.355 170.88 279.254 152.327 271.678 136.119Z" fill="#03A678"/>
</g>
<path d="M374.498 244.027C389.133 244.027 400.997 232.156 400.997 217.513C400.997 202.87 389.133 191 374.498 191C359.864 191 348 202.87 348 217.513C348 232.156 359.864 244.027 374.498 244.027Z" fill="#03A678"/>
<path d="M417.498 244.027C432.133 244.027 443.997 232.156 443.997 217.513C443.997 202.87 432.133 191 417.498 191C402.864 191 391 202.87 391 217.513C391 232.156 402.864 244.027 417.498 244.027Z" fill="#03A678"/>
<path d="M396.498 226.027C411.133 226.027 422.997 214.156 422.997 199.513C422.997 184.87 411.133 173 396.498 173C381.864 173 370 184.87 370 199.513C370 214.156 381.864 226.027 396.498 226.027Z" fill="#03A678"/>
<path d="M396.498 250.027C411.133 250.027 422.997 238.156 422.997 223.513C422.997 208.87 411.133 197 396.498 197C381.864 197 370 208.87 370 223.513C370 238.156 381.864 250.027 396.498 250.027Z" fill="#03A678"/>
<path d="M137.586 251.818C147.851 251.818 156.172 243.492 156.172 233.222C156.172 222.951 147.851 214.625 137.586 214.625C127.321 214.625 119 222.951 119 233.222C119 243.492 127.321 251.818 137.586 251.818Z" fill="#03A678"/>
<path d="M167.746 251.818C178.011 251.818 186.332 243.492 186.332 233.222C186.332 222.951 178.011 214.625 167.746 214.625C157.481 214.625 149.16 222.951 149.16 233.222C149.16 243.492 157.481 251.818 167.746 251.818Z" fill="#03A678"/>
<path d="M153.017 239.193C163.282 239.193 171.603 230.867 171.603 220.596C171.603 210.326 163.282 202 153.017 202C142.752 202 134.431 210.326 134.431 220.596C134.431 230.867 142.752 239.193 153.017 239.193Z" fill="#03A678"/>
<path d="M153.017 256.027C163.282 256.027 171.603 247.701 171.603 237.43C171.603 227.16 163.282 218.834 153.017 218.834C142.752 218.834 134.431 227.16 134.431 237.43C134.431 247.701 142.752 256.027 153.017 256.027Z" fill="#03A678"/>
<defs>
<clipPath id="clip0">
<rect width="80.4243" height="141.492" fill="white" transform="translate(368.203 305.937) rotate(128.837)"/>
</clipPath>
<clipPath id="clip1">
<rect width="139" height="170.155" fill="white" transform="translate(135 0.724365)"/>
</clipPath>
</defs>
</svg>
