<svg width="1440" height="757" viewBox="0 0 1440 757" fill="none" xmlns="http://www.w3.org/2000/svg">
<path d="M1440 760V0C1386 78.8849 1410.5 164.531 1334.82 219.814C1307.83 237.529 1256.15 249.267 1224.38 246.265C1179.47 242.019 1161.17 227.513 1116.99 200.575C979.83 116.948 750.36 121.771 644.27 130.895C300.93 160.42 163.72 236.538 92.65 291.559C59.44 317.262 46.4 330.415 0 378.612V760H1440Z" fill="#FFF2EA"/>
<g clip-path="url(#clip0)">
<path fill-rule="evenodd" clip-rule="evenodd" d="M1263.96 448.88C1259.27 437.44 1249.96 428.54 1238.46 424C1227.19 419.55 1215.52 416.54 1201.19 414.6C903.43 384.5 636.8 365.8 353.83 381.42C310.29 383.83 303.5 384.03 255.47 394.66C248.57 396.19 241.74 398.07 235.04 400.31C219.87 405.4 200.92 411.13 187.56 421.66C180.81 427.78 178.45 431.17 176.29 433.58C171.62 439.37 166.82 446.83 162.95 458.44C155.39 488.64 166.11 527.05 206.73 540.78C288.64 575.8 399.76 568.77 510.18 570.4L869.4 575.69C957.09 576.98 1047.58 578.06 1129.24 562.91C1129.99 562.77 1130.74 562.62 1131.49 562.5L1133.64 562.11C1185.17 552.61 1244.67 547.86 1264.7 489.92C1269.06 477.32 1269.37 463.56 1264.79 451.03C1264.52 450.3 1264.24 449.58 1263.96 448.88Z" fill="white"/>
<path fill-rule="evenodd" clip-rule="evenodd" d="M1116.84 561.87C1169.59 553.19 1241.75 541.31 1256.38 481.35C1256.69 480.27 1256.94 479.17 1257.11 478.07C1257.19 477.65 1257.28 477.22 1257.36 476.8C1257.56 475.68 1257.56 474.64 1257.36 473.66C1257.06 466.32 1253.17 459.07 1245.31 453.27C1244.75 452.85 1244.17 452.45 1243.58 452.05C1243.45 451.96 1243.3 451.86 1243.15 451.77C1242.83 451.56 1242.52 451.37 1242.2 451.18C1239.97 449.8 1237.51 448.55 1234.92 447.42C1220.11 440.92 1200.27 438.18 1181.48 435.92C915.79 403.84 641.37 394.26 370.58 407.59C325.71 409.8 279.34 412.92 240.74 425.87C225.49 430.99 211.78 438.05 201.45 446.24C198.98 448.18 196.72 450.18 194.66 452.23C187.81 459.06 183.31 466.47 182.04 474.05L181.67 474.03C167.43 493.27 181.94 522.96 220.81 534.69C299.2 564.59 414.54 567.56 520.21 568.95L863.97 573.46C947.88 574.56 1034.48 575.48 1112.63 562.55C1113.35 562.43 1114.06 562.31 1114.79 562.2L1116.84 561.87Z" fill="#666666"/>
<path fill-rule="evenodd" clip-rule="evenodd" d="M1116.84 538.74C1169.59 530.73 1241.75 519.76 1256.38 464.42C1256.69 463.42 1256.94 462.41 1257.11 461.4C1257.19 461.01 1257.28 460.61 1257.36 460.23C1257.56 459.2 1257.56 458.24 1257.36 457.33C1257.06 450.56 1253.17 443.87 1245.31 438.51C1244.75 438.12 1244.17 437.75 1243.58 437.38C1243.45 437.3 1243.3 437.2 1243.15 437.12C1242.83 436.93 1242.52 436.75 1242.2 436.57C1239.97 435.3 1237.51 434.14 1234.92 433.1C1220.11 427.1 1200.27 424.57 1181.48 422.48C915.79 392.87 641.37 384.02 370.58 396.33C325.71 398.37 279.34 401.25 240.74 413.2C225.49 417.93 211.78 424.44 201.45 432C198.98 433.79 196.72 435.64 194.66 437.53C187.81 443.83 183.31 450.67 182.04 457.67L181.67 457.65C167.43 475.41 181.94 502.81 220.81 513.64C299.2 541.24 414.54 543.97 520.21 545.26L863.97 549.43C947.88 550.44 1034.48 551.3 1112.63 539.36C1113.35 539.25 1114.06 539.14 1114.79 539.04L1116.84 538.74Z" fill="#CCCCCC"/>
<path d="M307.29 438.84C307.21 441.76 307.08 444.79 305.63 447.32C300.25 456.63 285.09 449.8 275.65 454.88C267.38 459.33 266.86 471.9 272.19 479.63C277.54 487.37 286.64 491.4 295.32 494.98C369.47 525.61 446.06 549.8 522.56 573.96C543.04 580.43 564.29 586.97 585.58 584.25C601.05 582.28 615.47 575.5 629.56 568.78C743.66 514.37 856.47 457.23 967.87 397.44C970.12 396.23 972.75 393.89 971.51 391.65C970.88 390.49 969.44 390.07 968.16 389.74C958.59 387.36 949.04 385 939.46 382.62C938.71 330.23 937.95 277.82 937.2 225.43C937.15 222.01 936.97 218.24 934.63 215.76C932.16 213.14 928.18 212.86 924.59 212.76C870.3 211.11 815.98 209.47 761.69 207.82C683.21 205.44 604.33 203.08 526.49 213.33C459.08 222.21 393.28 240.44 327.84 258.99C293 268.87 305.51 294.84 306.68 322.16C308.33 361 308.36 399.98 307.29 438.84Z" fill="white"/>
<path d="M607.34 242.64C603.28 243.15 599.12 244.03 595.98 246.75C591.4 250.74 587.71 260.13 587.58 265.41C586.33 318.13 589.29 367 588.04 419.71C587.57 439.5 587.49 453.61 587.68 473.41C587.75 478.89 588.15 488.39 587.91 491.76C586.89 506.1 589.13 504.46 597.64 503.2C609.81 501.41 629.54 494.46 640.61 489.64C651.01 485.11 672.1 476.57 682.5 472.03C691.55 468.09 697.76 469.37 702.9 460.73C707.43 453.08 707.58 443.61 707.58 434.65C707.61 377.71 707.63 320.76 707.66 263.82C707.66 257.69 707.35 250.8 702.96 246.66C699.56 243.47 694.64 242.85 690.06 242.47C662.21 240.23 635.26 239.2 607.34 242.64Z" fill="#F98E12"/>
<path d="M717.54 446.94C717.72 448.8 717.41 450.84 720.35 451.78C721.96 452.3 723.7 452.17 725.27 451.58C741.26 445.55 757.25 439.52 773.24 433.49C777.61 431.84 782.11 430.12 785.46 426.87C793.24 419.36 792.35 406.92 791.85 396.09C790.86 374.96 789.74 358.81 790.32 337.65C790.97 314.24 789.99 295.81 789.7 269.02C789.63 263.93 790.01 252.02 786.64 248.22C782.3 243.31 774.96 242.89 768.42 242.81C750.32 242.6 712.76 236.14 712.79 254.29C712.79 255.15 714.14 320.99 714.2 326.76C714.56 354.29 715.14 378.52 715.5 406.06C715.72 421.79 716.34 434.5 717.54 446.94Z" fill="#D86C00"/>
<path d="M810.29 253.09C810.11 314.5 810.22 343.49 812.01 413.23C812.03 413.96 812.19 414.7 812.45 415.38C814.04 419.44 817.86 418.67 820.93 417.74C832.14 414.37 843.24 410.67 854.24 406.66C863.36 403.32 869.52 394.73 869.78 385C871 339.08 870.36 293.11 867.88 247.26C867.77 245.14 867.59 242.87 866.29 241.21C864.32 238.72 860.68 238.55 857.53 238.6C847.1 238.76 836.73 238.62 826.31 238.5C815.55 238.39 810.32 242.14 810.29 253.09Z" fill="#D86C00"/>
<path d="M883.59 238.21C879.1 237.62 874.31 239.91 873.69 244.4C872.24 254.82 873.45 262.66 874.05 273.15C876 306.94 875.43 342.59 875.15 382.69C875.13 384.86 874.76 387.17 875.87 389.03C878.29 393.09 884.37 391.9 888.77 390.19C893.66 388.3 898.54 386.39 903.43 384.5C909.25 382.23 915.62 379.48 918.22 373.79C919.67 370.61 919.7 367.01 919.7 363.5C919.73 327.93 917.38 289.87 917.41 254.3C917.41 250.52 917.39 246.64 915.93 243.15C912.74 235.59 909.61 238.5 897.7 239.25C893.67 239.53 887.61 238.73 883.59 238.21Z" fill="#F98E12"/>
<path d="M708.72 236.01C727 236.96 748.81 235.47 767.09 236.42C775.67 236.86 789.19 234.48 799.95 234.58C815.7 234.71 844.36 232.71 860.09 233.52C874.11 234.24 879.75 233.45 893.79 233.31C909.23 233.15 926.76 235.18 929.49 231.88C930.99 230.07 930.92 226.92 930.71 224.59C930.39 221.02 930.35 219.91 926.89 218.84C923.43 217.76 919.72 218.09 916.12 218.4C871.64 222.39 816.11 214.95 771.65 218.94C746.75 221.17 721.6 216.32 696.57 215.86C672.4 215.4 650.34 216.69 626.64 213.41C619.7 212.45 612.92 212.48 605.95 212.92C599.55 213.33 583.54 211.34 578.68 214.44C575.45 216.49 574.33 222.82 575.82 226.76C578.21 233.04 582.37 232.17 588.84 232.51C602.15 233.21 615.46 233.88 628.77 234.56C658.24 236.09 679.25 234.49 708.72 236.01Z" fill="#F98E12"/>
<path d="M797.42 246.6C797.71 298.83 798.02 351.06 798.31 403.28C798.37 415.38 798.46 427.5 799.77 439.53C799.9 440.72 800.1 442.02 800.99 442.82C802.49 444.19 805.1 443.16 806.06 441.37C807.02 439.58 806.82 437.41 806.63 435.39C804.92 417.74 804.79 399.97 804.65 382.23C804.32 339.99 804.02 297.76 803.69 255.52C803.67 252.63 805.2 242.33 802.78 240.43C798.98 237.44 797.4 244.21 797.42 246.6Z" fill="#F98E12"/>
<path d="M573.56 249.8C573.85 326.14 574.16 402.46 574.45 478.79C574.51 496.48 574.6 514.2 575.91 531.78C576.04 533.52 576.24 535.42 577.13 536.6C578.63 538.59 581.24 537.09 582.2 534.48C583.16 531.86 582.96 528.69 582.77 525.74C581.06 499.94 580.93 473.98 580.79 448.05C580.46 386.32 580.16 324.59 579.83 262.84C579.81 258.63 581.34 243.57 578.92 240.79C575.13 236.4 573.54 246.29 573.56 249.8Z" fill="#D86C00"/>
<path d="M924.85 244.29C925.08 283.3 925.31 322.32 925.52 361.33C925.57 370.38 925.62 379.42 926.61 388.42C926.71 389.32 926.85 390.28 927.52 390.88C928.64 391.91 930.59 391.13 931.31 389.79C932.03 388.45 931.88 386.84 931.73 385.32C930.46 372.13 930.35 358.86 930.25 345.61C930.01 314.05 929.78 282.51 929.54 250.95C929.52 248.8 930.68 241.1 928.86 239.67C926.02 237.44 924.85 242.49 924.85 244.29Z" fill="#D86C00"/>
<path d="M314.65 275.78C315.07 325.6 315.49 375.39 315.92 425.21C315.99 433.05 316.74 447.59 321.21 454.03C328.23 464.15 333.28 464.67 345.13 467.98C353.17 470.23 360.76 473.82 368.66 476.49C383.77 481.62 403.68 489.99 424.52 496.86C473.44 514.95 512.31 535.85 558.59 538.39C561.19 538.54 564.13 538.47 565.95 536.6C567.62 534.87 565.21 516.82 565.24 514.4C566.31 424.71 566.17 334.99 564.82 245.3C564.71 238.11 563.99 229.75 558.01 225.79C554.84 223.69 550.84 223.34 547.04 223.34C535.08 223.34 523.3 226.01 511.63 228.67C474.56 237.13 437.31 245.02 400.39 254.07C389.27 256.81 314.65 269.91 314.65 275.78Z" fill="#F98E12"/>
<path d="M277.35 467.79C295.21 481.48 316.99 488.83 338.32 495.94C402.43 517.31 466.54 538.66 530.65 560.04C542.63 564.03 554.8 568.06 567.39 568.66C589.99 569.74 611.49 559.79 631.94 550.06C740.06 498.65 848.17 447.25 956.29 395.84C948.59 389.34 936.95 393.64 927.93 398.16C827.76 448.37 726.59 496.67 624.55 543C607.49 550.74 589.92 558.57 571.23 559.59C551.91 560.67 533.01 554.42 514.76 548.02C435.17 520.05 360.61 484.02 277.35 467.79Z" fill="#D86C00"/>
<path d="M790.54 438.72C793.03 441.47 792.38 446.2 790.07 449.17C787.78 452.12 784.3 453.73 780.95 455.25C725.68 480.11 669.84 503.55 613.48 525.54C606.49 528.26 599.08 531.02 591.77 529.57C584.1 512.73 616.68 509.94 627.16 506.39C646.04 499.98 664.8 493.14 683.4 485.88C701.7 478.74 719.87 471.21 737.87 463.27C742.65 461.17 789 437.01 790.54 438.72Z" fill="#F98E12"/>
<path d="M812.3 438.09C812.95 439.54 814.35 440.5 815.81 439.87C847.71 426.13 879.38 411.86 910.8 397.05C913.53 395.76 916.36 394.39 918.18 391.98C920 389.57 920.41 385.8 918.26 383.68C916.93 382.36 879.21 402.85 875.33 404.63C860.64 411.43 845.8 417.91 830.82 424.09C825.08 426.45 819.33 428.77 813.56 431.03C813.57 431.03 809.78 432.51 812.3 438.09Z" fill="#F98E12"/>
<path d="M392.61 431.08C388.24 431.08 384.16 429.71 380.39 426.97C377.55 424.77 375.34 421.98 373.74 418.57C370.34 412.15 368.65 405.11 368.65 397.43C368.65 392.93 369.28 388.47 370.54 384.01C370.65 383.8 370.74 383.54 370.78 383.28C371.22 381.68 371.77 380.12 372.42 378.59C376.74 370.36 382.71 366.25 390.31 366.25C393.43 366.25 396.48 366.98 399.49 368.47C402.5 369.95 405.13 372.12 407.37 374.97C411.42 380.12 413.98 386.09 415.09 392.84C415.37 394.6 415.5 396.62 415.5 398.94C415.5 400.26 415.42 401.6 415.26 402.97C414.93 406.54 414.25 409.8 413.21 412.77C411.85 416.23 410.48 419.03 409.12 421.17C407.43 423.81 405.32 426.06 402.8 427.92C399.5 430 396.12 431.08 392.61 431.08ZM392.28 417.34C392.56 417.34 393.16 417.14 394.08 416.77C395.01 416.38 396.32 414.65 398.01 411.59C398.56 410.71 399.02 409.78 399.41 408.79V408.63C400.4 406.05 401.02 403.77 401.3 401.8L401.38 401.56C401.54 400.63 401.62 399.72 401.62 398.84C401.62 397.14 401.51 395.66 401.29 394.39C400.96 392.14 400.23 389.88 399.11 387.61C397.99 385.33 396.82 383.57 395.62 382.3C393.21 380.21 391.33 379.17 389.96 379.17C388.48 379.17 387.15 380.51 385.98 383.2C384.81 385.89 384 388.77 383.56 391.84C383.23 393.76 383.07 395.7 383.07 397.68C383.07 403.06 384.4 408.21 387.08 413.15C389.13 415.93 390.85 417.34 392.28 417.34Z" fill="#D76D27"/>
<path d="M511.02 369.56C510.3 365.47 509.3 361.88 507.98 358.75C506.34 355.03 504.45 351.84 502.32 349.15C498.44 344.15 494.34 340.63 490.02 338.59C483.73 335.95 477.17 334.64 470.32 334.64C465.67 334.64 461.15 335.52 456.78 337.3C456.36 337.51 455.95 337.74 455.53 337.97C454.59 336.1 453.63 334.24 452.64 332.43C451.66 330.62 450.8 329.1 450.07 327.88L449.39 326.61C448.14 324.46 446.87 322.32 445.62 320.17L444.08 317.68C443.75 317.09 443.33 316.42 442.78 315.64C442.71 315.54 442.63 315.48 442.57 315.4C442.28 314.89 441.84 314.44 441.24 314.03C440.57 313.46 438.93 312.79 437.06 314.08C435.17 315.38 428.24 324.46 429.15 330.61C429.17 330.69 429.49 332.79 432.45 333.41C432.73 333.48 432.99 333.49 433.23 333.49C433.96 333.49 434.45 333.23 434.76 332.98C435.6 332.28 435.64 331.19 435.64 331.12C435.64 331.09 435.92 328.12 438.71 323.62C438.78 323.75 438.82 323.86 438.89 323.99L441.04 328.03L441.54 328.94L443.13 331.87L447.76 340.4C448.17 341.15 448.56 341.9 448.95 342.67C448.85 342.75 448.76 342.83 448.67 342.91C448.57 343.01 448.48 343.12 448.38 343.22C448.3 343.29 448.23 343.35 448.14 343.43C448.07 343.5 448.01 343.56 447.94 343.64C444.54 347.19 442.95 350.05 441.25 352.61L440.45 354.06C439.61 355.46 437.64 359.41 435.74 363.76C433.97 367.82 431.71 372.69 429.73 376.83C429.08 378.17 428.01 380.53 426.53 383.89C426.24 383.25 425.99 382.73 425.8 382.34C424.26 379.08 422.65 375.93 420.96 372.9C420.07 371.27 419.29 369.9 418.62 368.81L417.99 367.67C416.84 365.73 415.7 363.81 414.55 361.87L413.27 359.82C414.78 359.8 416.42 359.82 418.21 359.9C418.68 359.97 421.18 360.26 422.66 358.94C423.16 358.48 423.73 357.67 423.68 356.28C423.71 355.76 423.61 353.75 420.3 352.92C417.42 352.2 401.45 351.98 395.47 356.16C394.67 356.7 393.57 358.34 395.03 360.67C395.81 361.89 396.88 362.27 397.86 362.27C398.56 362.27 399.19 362.08 399.6 361.86C399.63 361.84 401.75 360.95 406.02 360.34C406.08 360.52 406.17 360.7 406.28 360.89C406.88 362.18 407.19 362.85 407.21 362.91C407.24 362.98 407.63 363.79 408.4 365.31L410.37 368.95L410.82 369.78L412.27 372.42L414.3 376.1C413.39 376.41 412.5 376.96 411.7 377.5C408.4 379.73 405.09 381.98 401.79 384.22C400.02 385.23 397.7 386.73 394.8 388.75C392.98 390.12 391.92 390.89 391.62 391.03L391.1 391.45C390.14 392.13 389.26 392.85 388.45 393.6C388.01 393.91 387.43 394.46 386.73 395.23C385.56 396.57 385.04 397.72 385.19 398.7C385.26 399.12 385.35 399.55 385.52 400C385.73 400.64 385.88 401.03 385.96 401.17C386.04 401.32 386.32 401.56 386.79 401.92L386.9 402C387.63 402.44 388.43 402.7 389.27 402.8C390.67 402.96 392.76 402.9 395.54 402.65C397.15 402.52 398.24 402.45 398.81 402.44C401.25 402.33 402.84 402.26 403.59 402.26C405.88 402.36 407.78 402.5 409.31 402.67C411.39 402.9 413.76 403.31 416.41 403.89C416.72 403.97 417.03 404.05 417.35 404.1L421.7 405.14C422.85 405.43 423.8 405.45 424.56 405.19C424.93 405.06 425.24 404.86 425.52 404.62C425.85 404.33 426.09 404 426.25 403.66C426.46 403.32 426.72 402.86 427.05 402.26L427.86 400.68C429.57 397.08 430.7 394.75 431.31 393.69L433.8 388.78C434.37 387.61 434.97 386.46 435.6 385.32V385.3C436.05 391.67 437.34 397.8 439.52 403.64C441.16 407.99 443.16 411.79 445.52 415C450.65 422.47 456.86 427.34 464.14 429.59C467.26 430.5 470.4 430.96 473.58 430.96C477.74 430.96 481.77 430.03 485.69 428.17C489.61 426.31 493.64 423.13 497.8 418.62C497.91 418.41 498.04 418.21 498.21 418.05C503.02 412.2 506.61 405.55 508.95 398.13C510.8 392.49 511.83 386.78 511.99 381.05C511.92 376.86 511.63 373 511.02 369.56ZM421.94 395.12C421.63 396.21 421.14 397.48 420.04 397.71C419.99 397.73 419.94 397.71 419.91 397.71C418.69 397.4 417.44 397.12 416.14 396.86L414.95 396.66C412.01 396.09 409.1 395.73 406.24 395.57C404.45 395.49 403.3 395.47 402.8 395.5C400.91 395.48 399.05 395.57 397.19 395.76L396.49 395.79C396.68 395.69 397.03 395.43 397.55 395.01C398.48 394.34 399.43 393.66 400.41 392.99C403.33 390.92 406.57 388.95 410.1 387.11L410.64 386.85C411.79 386.26 412.61 385.89 413.11 385.73L414.07 385.32C414.52 385.16 414.98 384.98 415.45 384.77C416.02 384.52 416.62 384.35 417.2 384.12C417.46 384.15 417.72 384.25 417.98 384.41C418.66 384.87 419.07 385.62 419.44 386.35C420.12 387.67 420.82 388.99 421.5 390.33C421.84 391 422.2 391.67 422.3 392.42C422.44 393.31 422.18 394.24 421.94 395.12ZM495.44 385.13C495.05 387.87 494.32 390.9 493.23 394.24L492.82 395.45C492.17 397.44 491.05 399.92 489.46 402.87C487.98 405.51 486.39 407.73 484.7 409.55C481.03 413.64 477.21 415.68 473.21 415.68C467.47 415.68 462.16 411.67 457.3 403.67C455.61 400.72 454.29 397.57 453.37 394.23C452.22 389.55 451.65 384.99 451.65 380.52C451.65 377.5 451.84 374.77 452.22 372.3C452.61 370.36 453.03 368.44 453.54 366.5C454.42 363.39 455.51 360.7 456.82 358.43C456.89 358.32 456.97 358.22 457.03 358.12L458 360.09C458.84 361.75 459.67 363.43 460.49 365.14L464.67 373.91L466.1 376.93L466.56 377.87L468.56 381.99C469.44 383.67 469.91 384.53 469.96 384.6C470.01 384.67 470.41 385.38 471.18 386.75C471.7 387.83 472.33 388.45 473.11 388.61C473.89 388.77 474.62 388.68 475.34 388.32C476.27 387.86 476.95 387.18 477.4 386.25C477.81 385.39 477.86 384.51 477.56 383.59C477.27 382.68 476.98 381.93 476.68 381.32L475.56 378.6C474.57 376.32 473.56 374.04 472.57 371.75L471.95 370.45C471.38 369.13 470.67 367.55 469.77 365.69C468.19 362.36 466.47 359.04 464.65 355.7C464.67 355.72 464.7 355.73 464.71 355.75C464.32 354.87 463.59 353.42 462.76 351.82C465.28 349.9 467.93 348.92 470.71 348.92C475.08 348.92 479.24 350.03 483.17 352.23C487.1 354.76 490.25 358.57 492.61 363.67L492.94 364.4C494.03 366.88 494.74 369.29 495.07 371.65C495.56 374.01 495.8 376.51 495.8 379.15C495.76 381.2 495.65 383.19 495.44 385.13Z" fill="#D76D27"/>
<path d="M1251.12 585.31L1305.05 585.13C1314.36 585.1 1322.01 583.39 1322.47 581.15C1323.83 574.45 1325.27 567.78 1326.63 561.07C1327.01 559.07 1327.24 556.85 1322.01 555.3C1315.72 553.38 1304.29 553.12 1294.14 552.97C1204.39 551.74 1114.34 550.82 1024.74 552.52C988.08 553.21 944.46 552.52 907.73 552.52C878.19 552.52 855.77 553.72 826.31 553.27C617.73 550.04 426.12 554.29 199.97 551.18C177.32 550.85 154.45 550.31 132.41 551.66C126.96 551.96 121.81 552.53 118.55 553.58C114.69 554.84 114.39 556.51 114.31 558.07C113.85 564.5 113.48 570.97 113.03 577.4C112.95 579.05 112.95 580.81 116.89 582.16C126.43 585.42 151.43 584.19 161.5 584.61C180.74 585.33 199.82 585.42 219.29 585.24C457.1 582.94 683.78 589.49 916 585.9C942.35 585.48 968.71 584.82 995.07 584.4C1020.97 584.04 1046.95 583.92 1072.93 583.8C1126.61 583.52 1197.5 585.52 1251.12 585.31Z" fill="white"/>
<path d="M1236.16 575.2L1288.71 575.13C1297.78 575.12 1305.24 574.48 1305.68 573.63C1307.01 571.11 1308.41 568.6 1309.74 566.08C1310.11 565.33 1310.33 564.49 1305.24 563.91C1299.11 563.19 1287.97 563.09 1278.08 563.03C1190.62 562.57 1102.86 562.22 1015.55 562.86C979.83 563.12 937.32 562.86 901.52 562.86C872.74 562.86 850.89 563.31 822.18 563.14C618.92 561.93 432.19 563.52 211.81 562.35C189.74 562.23 167.45 562.02 145.97 562.53C140.66 562.64 135.64 562.86 132.47 563.25C128.7 563.72 128.41 564.35 128.34 564.94C127.9 567.36 127.53 569.79 127.09 572.21C127.01 572.83 127.01 573.49 130.85 574C140.15 575.23 164.51 574.76 174.32 574.92C193.07 575.19 211.67 575.22 230.63 575.16C462.38 574.29 683.28 576.76 909.57 575.41C935.25 575.25 960.94 575.01 986.62 574.85C1011.86 574.72 1037.18 574.67 1062.49 574.62C1114.82 574.53 1183.91 575.28 1236.16 575.2Z" fill="#D86C00"/>
<path d="M1020.78 430.77C1020.19 430.77 1019.57 430.77 1018.98 430.77C1018.43 430.77 1017.91 430.77 1017.36 430.77H1012.25V425.62C1012.25 406 1012.49 386 1012.7 368.49C1012.28 368.28 1011.8 368.07 1011.32 367.87C1009.59 367.11 1007.62 366.21 1005.69 364.69C1001.51 361.41 997.3 355.92 992.77 347.83C985.62 335.08 986.52 322.27 987.38 309.9C988.1 299.3 988.83 289.25 984.2 280.09C981.57 274.91 977.88 270.28 973.98 265.41C969.32 259.57 964.48 253.56 961.17 246.1C956.23 234.94 949.36 213.46 958.96 194.81C964.45 184.14 972.57 176.82 980.44 169.73C981.65 168.62 982.89 167.52 984.13 166.38C988.38 162.48 991.66 157.64 995.15 152.49C997.64 148.83 1000.23 145.03 1003.23 141.47C1014.11 128.72 1028.51 120.92 1042.71 120.06C1054.38 119.37 1065.3 123.41 1074.35 131.77C1081.88 138.75 1087.09 149.11 1088.27 159.47C1088.96 165.58 1087.37 169.42 1085.99 172.77C1085.33 174.36 1084.71 175.88 1084.23 177.74C1081.47 188.65 1084.06 199.74 1086.79 211.49C1090.62 227.9 1094.56 244.82 1083.75 262.06C1082.13 264.69 1080.37 266.93 1078.71 269.14C1075.53 273.28 1072.8 276.88 1071.32 281.82C1069.35 288.42 1068.21 295.22 1067 302.41C1065.9 308.94 1064.79 315.71 1062.96 322.34C1061.37 328.14 1059.06 333.29 1056.85 338.23C1054.81 342.79 1052.88 347.11 1051.53 351.8C1051.39 352.32 1051.22 352.87 1051.08 353.42C1049.84 357.94 1048.18 364.13 1043.03 367.69C1039.78 369.94 1034.4 371.56 1029.56 372.39C1029.42 379.13 1029.42 385.9 1029.42 392.53C1029.42 394.98 1029.42 397.43 1029.42 399.89C1029.42 403.55 1029.83 407.18 1030.32 411.01C1030.87 415.71 1031.46 420.58 1031.22 425.69L1030.98 430.32L1026.35 430.56C1024.44 430.73 1022.61 430.77 1020.78 430.77ZM1045.3 130.33C1044.64 130.33 1043.99 130.36 1043.33 130.4C1032.04 131.06 1019.98 137.72 1011.04 148.22C1008.38 151.33 1006.1 154.71 1003.65 158.34C999.99 163.73 996.19 169.32 991.08 174.02C989.84 175.16 988.56 176.3 987.32 177.44C979.83 184.21 972.71 190.6 968.08 199.58C964.8 205.94 960.76 219.93 970.53 241.96C973.29 248.18 977.51 253.43 981.96 258.99C986.03 264.07 990.25 269.32 993.36 275.46C999.27 287.14 998.44 299.09 997.64 310.62C996.85 321.98 996.09 332.73 1001.75 342.81C1005.55 349.58 1009 354.21 1012.04 356.59C1013.01 357.35 1014.18 357.87 1015.53 358.49C1017.29 359.29 1019.29 360.18 1021.19 361.77L1022.47 362.87L1024.23 362.77C1029.13 362.49 1035.11 360.73 1037.18 359.31C1039.22 357.89 1040.25 354.16 1041.15 350.85C1041.32 350.23 1041.49 349.64 1041.63 349.05C1043.18 343.66 1045.36 338.79 1047.47 334.09C1049.65 329.25 1051.68 324.73 1053.03 319.69C1054.69 313.58 1055.79 307.08 1056.83 300.8C1058.04 293.61 1059.28 286.19 1061.42 278.97C1063.42 272.2 1067.02 267.5 1070.5 262.98C1072.12 260.87 1073.64 258.87 1075.03 256.69C1083.56 243.12 1080.24 228.96 1076.76 213.96C1073.86 201.53 1070.89 188.71 1074.24 175.34C1074.9 172.71 1075.72 170.71 1076.49 168.95C1077.7 166.01 1078.46 164.22 1078.04 160.76C1077.11 152.75 1073.14 144.8 1067.33 139.45C1060.88 133.37 1053.46 130.33 1045.3 130.33Z" fill="white"/>
<path d="M1017.36 425.62C1017.36 379.23 1018.6 332.84 1018.6 286.42C1018.6 277.34 1017.15 267.11 1018.6 258.13C1019.39 253.16 1018.15 254.64 1022.36 253.12C1024.47 252.36 1028.16 252.19 1030.44 252.6C1031.86 282.13 1030.34 312.7 1026.43 341.92C1023.91 360.88 1024.29 380.85 1024.25 400.02C1024.21 408.72 1026.46 416.88 1026.05 425.58C1023.2 425.65 1020.26 425.62 1017.36 425.62Z" fill="#16351C"/>
<path d="M1019.54 367.56C1016.95 363.62 1012.53 363.48 1008.87 360.62C1004.24 356.99 1000.1 350.36 997.27 345.32C984.84 323.15 999.69 299.28 988.81 277.79C982.66 265.7 971.57 256.93 965.88 244.04C959.46 229.6 956.07 211.71 963.53 197.2C969.4 185.8 978.55 178.51 987.6 170.22C995.51 162.97 1000.21 153.02 1007.15 144.87C1023.45 125.73 1050.46 116.72 1070.87 135.61C1077.57 141.83 1082.13 151.05 1083.17 160.13C1084 167.45 1080.89 170.04 1079.27 176.57C1072.19 204.62 1096.47 232.25 1079.41 259.4C1074.85 266.69 1068.98 271.7 1066.39 280.43C1062.49 293.63 1061.69 307.68 1058.03 321.05C1055.13 331.62 1049.57 340.12 1046.6 350.44C1045.32 354.86 1044.22 360.7 1040.11 363.53C1035.94 366.38 1024.79 368.94 1019.54 367.56Z" fill="#2C8354"/>
<path d="M1020.33 368.11C1020.02 368.11 1019.71 368.07 1019.43 367.97C1017.98 367.52 1017.12 366.07 1017.36 364.59C1022.23 334.4 1017.77 306.84 1003.68 280.28C1001.81 276.76 1000.22 273.13 998.67 269.61C997.15 266.19 995.6 262.63 993.83 259.32C992.41 256.66 990.86 254 989.17 251.2C986.13 246.05 982.95 240.7 980.81 235.28C979.22 231.27 978.91 226.71 978.63 222.29C978.42 218.98 978.22 215.83 977.49 213.34C977 211.72 977.9 210.06 979.53 209.58C981.15 209.1 982.84 210.03 983.29 211.62C984.22 214.76 984.46 218.43 984.67 221.91C984.91 225.85 985.19 229.89 986.43 233.03C988.4 238 991.44 243.12 994.37 248.09C995.99 250.85 997.69 253.69 999.17 256.45C1001.04 259.97 1002.66 263.6 1004.18 267.12C1005.7 270.54 1007.26 274.06 1009.02 277.41C1018.83 295.96 1024.22 315.54 1025.12 335.89C1025.78 330.78 1026.19 325.25 1026.4 319.31C1026.82 306.88 1023.57 293.99 1020.43 281.52C1017.91 271.54 1015.32 261.21 1014.52 250.95C1013.28 235.06 1014.93 217.48 1019.22 201.42C1024.06 183.25 1031.93 168.09 1041.98 157.52C1043.12 156.31 1045.06 156.24 1046.26 157.42C1047.47 158.56 1047.54 160.5 1046.36 161.7C1025.53 183.56 1018.38 223.04 1020.56 250.47C1021.32 260.21 1023.88 270.3 1026.33 280.04C1029.58 292.92 1032.93 306.22 1032.48 319.52C1031.79 339.38 1028.72 354.72 1023.09 366.36C1022.54 367.49 1021.44 368.11 1020.33 368.11Z" fill="#16351C"/>
<path d="M1020.09 370.15C1019.19 370.15 1018.29 369.74 1017.71 368.98C1016.67 367.67 1016.91 365.77 1018.23 364.73C1028.11 356.96 1034.84 350.95 1038.71 338.79C1042.47 326.8 1040.82 315.27 1039.05 303.04C1038.67 300.31 1038.26 297.51 1037.91 294.72C1036.46 282.87 1035.77 269.2 1041.64 257.45C1045.82 249.09 1052.76 242.6 1059.5 236.31C1061.61 234.34 1063.57 232.51 1065.48 230.61C1066.65 229.44 1068.59 229.44 1069.76 230.61C1070.94 231.78 1070.94 233.72 1069.76 234.89C1067.79 236.86 1065.69 238.83 1063.65 240.76C1057.33 246.67 1050.8 252.78 1047.11 260.17C1041.96 270.46 1042.62 283.04 1043.97 293.99C1044.32 296.75 1044.7 299.52 1045.08 302.21C1046.88 314.54 1048.71 327.32 1044.49 340.62C1040.14 354.44 1032.4 361.31 1021.97 369.53C1021.4 369.91 1020.75 370.15 1020.09 370.15Z" fill="#16351C"/>
<path d="M1081.72 455.51C1081.34 455.51 1080.96 455.51 1080.55 455.51C1080.21 455.51 1079.86 455.51 1079.51 455.51H1076.19V452.2C1076.19 439.56 1076.33 426.68 1076.5 415.41C1076.22 415.27 1075.91 415.13 1075.6 414.99C1074.5 414.51 1073.22 413.92 1071.97 412.95C1069.28 410.84 1066.55 407.29 1063.65 402.11C1059.06 393.89 1059.61 385.63 1060.16 377.69C1060.64 370.85 1061.09 364.39 1058.12 358.49C1056.43 355.14 1054.05 352.17 1051.52 349.03C1048.51 345.26 1045.41 341.4 1043.27 336.6C1040.09 329.42 1035.67 315.6 1041.85 303.58C1045.37 296.71 1050.62 292.01 1055.7 287.45C1056.5 286.76 1057.29 286.03 1058.08 285.31C1060.81 282.79 1062.95 279.68 1065.19 276.36C1066.81 273.98 1068.47 271.56 1070.41 269.28C1077.42 261.06 1086.68 256.05 1095.83 255.5C1103.33 255.05 1110.37 257.68 1116.21 263.03C1121.04 267.52 1124.42 274.19 1125.18 280.89C1125.63 284.83 1124.6 287.28 1123.7 289.46C1123.28 290.5 1122.87 291.46 1122.56 292.67C1120.79 299.71 1122.45 306.83 1124.21 314.39C1126.67 324.96 1129.22 335.88 1122.24 346.96C1121.21 348.65 1120.07 350.1 1119 351.52C1116.96 354.18 1115.2 356.49 1114.24 359.67C1112.97 363.92 1112.23 368.31 1111.47 372.93C1110.78 377.14 1110.06 381.5 1108.9 385.74C1107.85 389.47 1106.37 392.79 1104.95 395.97C1103.64 398.9 1102.39 401.7 1101.53 404.71C1101.42 405.05 1101.32 405.4 1101.25 405.78C1100.46 408.68 1099.38 412.69 1096.07 414.97C1093.96 416.42 1090.51 417.46 1087.4 418.01C1087.33 422.33 1087.33 426.71 1087.33 430.96C1087.33 432.55 1087.33 434.14 1087.33 435.69C1087.33 438.07 1087.61 440.39 1087.92 442.84C1088.3 445.85 1088.64 448.99 1088.51 452.3L1088.37 455.31L1085.36 455.45C1084.1 455.51 1082.89 455.51 1081.72 455.51ZM1097.5 262.02C1097.08 262.02 1096.67 262.02 1096.22 262.05C1088.97 262.47 1081.2 266.78 1075.43 273.52C1073.74 275.52 1072.25 277.7 1070.66 280.05C1068.31 283.54 1065.86 287.13 1062.54 290.13C1061.75 290.89 1060.92 291.62 1060.12 292.34C1055.28 296.69 1050.73 300.8 1047.75 306.6C1045.64 310.71 1043.05 319.69 1049.34 333.92C1051.14 337.93 1053.83 341.31 1056.7 344.87C1059.33 348.15 1062.02 351.5 1064.02 355.47C1067.82 363 1067.3 370.7 1066.78 378.13C1066.26 385.45 1065.78 392.36 1069.4 398.86C1071.85 403.21 1074.06 406.18 1076.03 407.74C1076.65 408.22 1077.41 408.57 1078.27 408.95C1079.41 409.47 1080.69 410.05 1081.9 411.06L1082.73 411.75L1083.87 411.68C1087.01 411.51 1090.88 410.37 1092.19 409.43C1093.5 408.53 1094.16 406.11 1094.75 403.97C1094.85 403.59 1094.96 403.17 1095.06 402.83C1096.06 399.34 1097.48 396.23 1098.82 393.19C1100.2 390.08 1101.51 387.14 1102.41 383.93C1103.48 379.99 1104.17 375.81 1104.86 371.77C1105.62 367.14 1106.45 362.37 1107.79 357.71C1109.07 353.36 1111.38 350.32 1113.64 347.42C1114.67 346.07 1115.63 344.8 1116.52 343.38C1122.02 334.64 1119.87 325.52 1117.64 315.85C1115.76 307.84 1113.84 299.58 1116.01 290.98C1116.43 289.29 1116.97 288.01 1117.46 286.87C1118.27 284.97 1118.73 283.83 1118.47 281.59C1117.89 276.44 1115.32 271.3 1111.6 267.84C1107.52 263.99 1102.75 262.02 1097.5 262.02Z" fill="white"/>
<path d="M1079.51 452.2C1079.51 422.32 1080.3 392.44 1080.3 362.53C1080.3 356.66 1079.37 350.1 1080.3 344.33C1080.82 341.15 1080.02 342.09 1082.72 341.08C1084.07 340.59 1086.45 340.49 1087.94 340.73C1088.84 359.76 1087.87 379.45 1085.35 398.24C1083.73 410.47 1083.97 423.32 1083.93 435.65C1083.93 441.25 1085.35 446.49 1085.07 452.13C1083.27 452.23 1081.37 452.2 1079.51 452.2Z" fill="#16351C"/>
<path d="M1080.92 414.83C1079.23 412.31 1076.4 412.2 1074.05 410.37C1071.08 408.02 1068.39 403.74 1066.59 400.49C1058.58 386.22 1068.14 370.82 1061.13 357C1057.19 349.19 1050.04 343.57 1046.35 335.28C1042.21 325.99 1040.03 314.45 1044.83 305.13C1048.59 297.81 1054.5 293.11 1060.34 287.76C1065.45 283.06 1068.46 276.67 1072.91 271.42C1083.41 259.09 1100.82 253.28 1113.94 265.48C1118.26 269.49 1121.19 275.43 1121.86 281.26C1122.37 285.96 1120.41 287.65 1119.33 291.87C1114.77 309.93 1130.42 327.72 1119.44 345.2C1116.49 349.9 1112.69 353.11 1111.03 358.74C1108.53 367.24 1108 376.28 1105.65 384.89C1103.78 391.7 1100.19 397.15 1098.29 403.82C1097.46 406.65 1096.77 410.42 1094.11 412.25C1091.49 414.07 1084.31 415.69 1080.92 414.83Z" fill="#2C8354"/>
<path d="M1081.41 415.17C1081.2 415.17 1081.03 415.13 1080.82 415.06C1079.89 414.78 1079.34 413.85 1079.47 412.88C1082.61 393.43 1079.71 375.68 1070.66 358.58C1069.45 356.3 1068.41 353.95 1067.41 351.71C1066.44 349.5 1065.44 347.22 1064.3 345.08C1063.4 343.39 1062.37 341.66 1061.29 339.86C1059.32 336.55 1057.28 333.09 1055.9 329.6C1054.86 327.01 1054.69 324.07 1054.52 321.24C1054.38 319.1 1054.24 317.09 1053.76 315.47C1053.45 314.43 1054.04 313.33 1055.07 313.05C1056.11 312.74 1057.21 313.33 1057.49 314.36C1058.11 316.4 1058.25 318.75 1058.39 320.99C1058.56 323.51 1058.7 326.14 1059.53 328.14C1060.81 331.35 1062.74 334.63 1064.64 337.84C1065.68 339.6 1066.78 341.43 1067.72 343.23C1068.93 345.51 1069.97 347.86 1070.97 350.1C1071.94 352.31 1072.94 354.59 1074.08 356.73C1080.4 368.68 1083.86 381.29 1084.44 394.41C1084.86 391.13 1085.13 387.57 1085.27 383.74C1085.55 375.73 1083.44 367.44 1081.44 359.39C1079.82 352.96 1078.16 346.33 1077.64 339.7C1076.85 329.48 1077.92 318.15 1080.65 307.82C1083.76 296.15 1088.84 286.34 1095.33 279.53C1096.09 278.73 1097.3 278.7 1098.09 279.46C1098.88 280.22 1098.92 281.43 1098.16 282.22C1084.76 296.31 1080.17 321.73 1081.55 339.38C1082.03 345.67 1083.69 352.16 1085.25 358.41C1087.32 366.7 1089.5 375.27 1089.22 383.83C1088.77 396.64 1086.8 406.49 1083.17 414.02C1082.86 414.76 1082.13 415.17 1081.41 415.17Z" fill="#16351C"/>
<path d="M1081.27 416.48C1080.68 416.48 1080.13 416.24 1079.72 415.72C1079.06 414.86 1079.2 413.65 1080.03 412.99C1086.39 407.98 1090.74 404.11 1093.22 396.27C1095.64 388.53 1094.57 381.11 1093.46 373.27C1093.22 371.51 1092.94 369.71 1092.74 367.88C1091.81 360.25 1091.36 351.44 1095.16 343.88C1097.85 338.49 1102.31 334.31 1106.66 330.27C1108.01 328.99 1109.29 327.82 1110.5 326.57C1111.26 325.81 1112.49 325.81 1113.25 326.57C1114.01 327.33 1114.01 328.57 1113.25 329.33C1111.98 330.61 1110.63 331.89 1109.31 333.09C1105.24 336.89 1101.02 340.83 1098.64 345.59C1095.32 352.22 1095.77 360.3 1096.6 367.35C1096.81 369.11 1097.08 370.91 1097.32 372.63C1098.46 380.57 1099.63 388.8 1096.94 397.36C1094.14 406.27 1089.17 410.69 1082.43 415.98C1082.1 416.35 1081.68 416.48 1081.27 416.48Z" fill="#16351C"/>
<path d="M481.71 566.98C470.22 566.98 459.41 563.39 449.56 556.27L449.29 556.04C442.02 550.46 436.26 543.24 432.22 534.66C424.46 519.86 420.5 503.48 420.5 485.87C420.5 475.52 421.95 465.17 424.86 455.05L425.18 454.01L425.36 453.6C426.45 449.74 427.77 446.02 429.27 442.48L429.68 441.66C440.62 420.92 456.97 409.94 477.04 409.94C485.26 409.94 493.39 411.89 501.2 415.7C508.97 419.51 515.78 425.09 521.45 432.31L521.5 432.4C531.04 444.56 537.21 458.72 539.8 474.52C540.48 478.88 540.8 483.69 540.8 488.95C540.8 492.04 540.62 495.21 540.21 498.57C539.48 506.6 537.85 514.32 535.4 521.31L535.22 521.76C532.13 529.48 528.95 535.97 525.77 541L525.59 541.27C521.37 547.81 516.01 553.43 509.79 558.06L509.2 558.47C500.37 564.17 491.15 566.98 481.71 566.98ZM456.5 546.74L456.55 546.79C464.27 552.37 472.76 555.23 481.71 555.23C488.84 555.23 495.92 553.01 502.73 548.65H502.78C507.87 544.88 512.23 540.25 515.72 534.94L515.95 534.58C518.72 530.18 521.54 524.46 524.26 517.52C526.39 511.39 527.8 504.63 528.48 497.46C528.84 494.42 528.98 491.74 528.98 489.06C528.98 484.39 528.71 480.16 528.12 476.53C525.85 462.73 520.54 450.39 512.23 439.81L512.18 439.76C507.59 433.91 502.1 429.41 495.92 426.37C489.74 423.33 483.39 421.79 476.94 421.79C461.32 421.79 448.92 430.32 440.02 447.2C438.7 450.29 437.57 453.46 436.66 456.82L436.57 457.27L436.21 458.31C433.62 467.39 432.3 476.69 432.3 485.9C432.3 501.6 435.8 516.17 442.7 529.29L442.84 529.52C446.1 536.48 450.69 542.25 456.5 546.74ZM480.39 527.32L478.12 526.09C477.48 525.77 476.85 525.32 476.17 524.77C474.49 523.41 472.63 521.32 470.63 518.64L470.18 517.96C464.82 507.98 462.05 497.36 462.05 486.46C462.05 482.51 462.41 478.43 463.09 474.43C464 468.17 465.63 462.18 468.09 456.64L468.36 456.1C469.5 453.6 470.72 451.7 471.99 450.43C472.4 450.02 472.72 449.79 472.94 449.61L475.07 447.98L475.61 448.12L476.79 447.48L479.65 449.16C480.19 449.39 480.74 449.66 481.33 449.98C483.19 451.02 485.37 452.57 487.73 454.61L488.23 455.11C490.59 457.7 492.95 461.28 495.18 465.77C497.5 470.49 499.04 475.16 499.68 479.75C500.13 482.34 500.36 485.42 500.36 488.92C500.36 490.51 500.22 492.23 499.95 493.96L499.86 494.46L499.68 495C499.09 499.08 497.77 503.8 495.77 509.02V509.38L495.32 510.47C494.64 512.06 493.82 513.6 492.91 515.05V515.1C491.18 518.23 489.6 520.73 488.28 522.5C487.64 523.36 487.01 524.04 486.46 524.59L485.46 525.5L484.46 525.91C483.82 526.18 483.28 526.36 482.92 526.5L480.39 527.32ZM480.34 511.98C480.48 512.16 480.61 512.34 480.75 512.48C481.25 511.62 481.84 510.62 482.57 509.39L482.89 508.8C483.3 508.16 483.62 507.57 483.93 506.89V506.8L484.7 504.76C486.38 500.36 487.47 496.45 487.92 493.28L488.1 492.15L488.33 491.56C488.47 490.61 488.51 489.7 488.51 488.84C488.51 486.03 488.33 483.62 488.01 481.67L487.96 481.49C487.46 478.04 486.33 474.55 484.55 470.96C482.55 466.88 480.83 464.56 479.74 463.29C479.29 462.93 478.88 462.56 478.47 462.25C476.7 466.56 475.43 471.19 474.75 476.09L474.7 476.27C474.11 479.76 473.84 483.17 473.84 486.48C473.85 495.37 475.98 503.72 480.34 511.98Z" fill="white"/>
<path d="M481.64 555.83C472.56 555.83 464.11 552.99 456.28 547.32C450.38 542.78 445.78 537 442.49 529.96C435.45 516.69 431.94 502.11 431.94 486.22C431.94 476.92 433.24 467.67 435.85 458.48C436.08 458.03 436.25 457.52 436.36 456.95C437.27 453.66 438.4 450.43 439.76 447.25C448.72 430.23 461.09 421.72 476.86 421.72C483.33 421.72 489.68 423.25 495.92 426.32C502.16 429.38 507.61 433.87 512.26 439.77C520.66 450.44 525.99 462.75 528.26 476.7C528.83 480.33 529.11 484.53 529.11 489.29C529.11 492.01 528.94 494.79 528.6 497.63C527.92 505.01 526.5 511.76 524.35 517.88C521.51 525.03 518.68 530.81 515.84 535.24C512.32 540.69 507.95 545.34 502.74 549.2C495.94 553.62 488.9 555.83 481.64 555.83ZM480.96 527.41C481.53 527.41 482.77 527.01 484.7 526.22C486.63 525.43 489.35 521.85 492.87 515.5C494 513.69 494.97 511.76 495.76 509.71V509.37C497.8 504.04 499.11 499.33 499.67 495.24L499.84 494.73C500.18 492.8 500.35 490.93 500.35 489.11C500.35 485.59 500.12 482.53 499.67 479.92C498.99 475.27 497.48 470.59 495.16 465.88C492.83 461.17 490.42 457.51 487.93 454.9C482.94 450.59 479.02 448.43 476.19 448.43C473.13 448.43 470.37 451.21 467.93 456.77C465.49 462.33 463.82 468.29 462.91 474.64C462.23 478.61 461.89 482.64 461.89 486.72C461.89 497.84 464.67 508.5 470.23 518.72C474.43 524.52 478.01 527.41 480.96 527.41Z" fill="#17351A"/>
<path d="M739.04 451.02C738.99 441.61 738.32 433.05 736.98 425.47C735.41 416.37 733.08 408.17 730.07 401.04L729.98 400.82C726.26 392.44 721.86 385.04 716.97 378.86C707.96 367.3 698.09 358.96 687.68 354.03L687.19 353.81C672.97 347.89 657.99 344.89 642.57 344.89C634.18 344.89 625.93 346.15 617.9 348.57C617.54 347.85 617.14 347.18 616.78 346.51C614.72 342.7 612.97 339.61 611.44 337.05L610.14 334.67L609.96 334.31C608.7 332.2 607.45 330.05 606.19 327.95C604.89 325.71 603.54 323.47 602.24 321.23L599.15 316.21C598.39 314.82 597.36 313.25 595.97 311.28C595.7 310.92 595.48 310.61 595.25 310.34C593.99 308.5 592.33 306.89 590.41 305.41C585.25 301.33 576.33 299.54 568.17 305.19C561.71 309.63 544.54 331.9 547.09 349.97C547.94 356.2 553.14 363.37 562.88 365.43C564.23 365.74 565.57 365.88 566.92 365.88C570.87 365.88 574.5 364.62 577.37 362.25C578 361.76 578.58 361.22 579.07 360.64L584.72 371.04C580.5 375.97 577.72 380.27 575.39 383.86C574.76 384.8 574.18 385.74 573.55 386.64L571.58 390.27C569.34 394.08 565.08 402.78 561.4 411.11C558.62 417.43 555.44 424.33 552.83 429.94C552.61 429.54 552.38 429.13 552.16 428.77C550.1 425 548.57 422.36 547.27 420.25L546.37 418.59C548.7 417.83 551.03 416.62 553.14 414.69C557.09 411.15 559.24 406.17 559.15 400.62C559.28 393.45 554.58 385.25 543.45 382.42C536.68 380.72 499.81 379.28 483.4 390.67C476.67 395.29 472.91 405.64 479.27 415.68C482.77 421.19 488.46 424.33 494.83 424.33C497.66 424.33 500.53 423.7 503.04 422.54C503.35 422.41 503.98 422.23 504.83 421.96C505.01 422.32 505.23 422.72 505.46 423.17L510.12 431.91L512.72 436.57L496.66 447.42C492.89 449.62 488.09 452.71 481.99 456.88L481.63 457.15C478.09 459.79 476.79 460.74 476.29 461.05L475.62 461.41L473.96 462.75C471.9 464.23 469.97 465.8 468.22 467.37C466.78 468.45 465.31 469.88 463.56 471.81L463.38 472.03C458.67 477.41 456.7 482.92 457.51 488.48C457.78 490.09 458.14 491.62 458.63 493.1C459.35 495.25 459.8 496.33 460.29 497.27C461.46 499.47 463.07 500.95 465.13 502.51L465.8 503.05L466.43 503.41C469.39 505.25 472.71 506.32 476.12 506.68C479.84 507.08 484.78 506.99 491.14 506.41C494.23 506.14 496.12 506.05 496.79 506.05H497.37C502.8 505.78 505.4 505.69 506.38 505.69C510.51 505.87 514.05 506.14 516.92 506.45C520.78 506.85 525.13 507.62 529.79 508.65C530.6 508.87 531.4 509.05 532.17 509.19L540.6 511.21C545.08 512.38 549.26 512.33 553.02 511.03L553.15 510.99C555.44 510.18 557.46 508.97 559.16 507.4C560.77 505.92 562.08 504.26 562.97 502.42C563.42 501.7 563.96 500.76 564.54 499.64L566.33 496.23L566.51 495.87C566.6 495.65 566.73 495.42 566.82 495.2C567.45 497.17 568.12 499.1 568.84 501.03C572.52 510.76 577.09 519.41 582.43 526.76C594.36 544.02 609.16 555.45 626.43 560.78L626.61 560.82C634.05 562.97 641.59 564.09 649.12 564.09C659.26 564.09 669.21 561.8 678.76 557.32C688.13 552.88 697.37 545.67 707.01 535.27L708.13 534.06L708.44 533.43C719.07 520.48 727.1 505.64 732.25 489.41C736.38 476.9 738.66 464.13 739.02 451.36V451.18L739.04 451.02ZM489.2 483.24H489.07C487.63 483.37 486.38 483.46 485.3 483.55C486.11 482.88 487 482.21 487.95 481.53L488.98 480.72C489.11 480.63 489.25 480.54 489.43 480.41L490.19 483.14C489.83 483.2 489.51 483.2 489.2 483.24ZM548.04 480.56L544 479.44L548.04 480.56ZM710.12 482.26C705.81 495.75 699.27 507.94 690.57 518.57C690.08 519.11 689.63 519.69 689.18 520.27C682 527.89 675.14 533.27 668.82 536.27C662.32 539.32 655.9 540.8 649.13 540.8C643.79 540.8 638.59 540.04 633.25 538.51C620.92 534.7 610.56 526.45 601.54 513.41L601.36 513.14C597.19 507.45 593.6 500.63 590.69 492.84C586.7 482.17 584.28 470.7 583.42 458.82L581.54 432.82L573.15 441.52C575.98 435.51 579.65 427.62 582.79 420.45C586.78 411.4 590.46 404.09 591.71 402.03L593.32 399.16C593.9 398.31 594.49 397.41 595.07 396.47C597.76 392.3 600.54 388.04 605.43 382.93L606.06 382.39L606.55 381.81L607.63 380.82L611.58 388.04L605.66 397.95L604.99 398.98C601.81 404.45 599.2 410.86 597.19 418.03L597.15 418.25C596.07 422.46 595.09 426.68 594.32 430.71L594.23 431.2C593.38 436.85 592.93 443.08 592.93 449.67C592.93 459.58 594.23 469.84 596.79 480.28L596.88 480.64C599.03 488.3 602.08 495.66 606.03 502.47L606.16 502.74C618.27 522.64 632.53 532.73 648.54 532.73C660.02 532.73 670.83 527.26 680.56 516.5C684.55 512.2 688.36 506.91 691.82 500.77L691.91 500.59C695.5 493.91 698.01 488.4 699.53 483.74L700.38 481.19C702.8 473.84 704.46 466.94 705.36 460.66L705.4 460.3C705.89 455.95 706.12 451.43 706.12 446.85C706.12 440.8 705.54 434.97 704.46 429.59C703.61 423.85 701.86 417.98 699.26 412.11L698.54 410.5C692.8 398.08 684.86 388.63 675 382.31L674.37 381.95C664.64 376.53 654.14 373.79 643.29 373.79C635.49 373.79 628.09 376.3 621.18 381.19L612.21 376.66L612.52 376.39L618.84 372.98C619.15 372.8 619.47 372.62 619.78 372.49C627.14 369.58 634.8 368.1 642.56 368.1C654.76 368.1 666.69 370.48 677.94 375.14C684.98 378.5 691.89 384.55 698.66 393.2C702.38 397.86 705.75 403.55 708.62 410.05C710.91 415.56 712.75 422.06 714 429.41C715.08 435.64 715.66 442.81 715.7 450.84C715.41 461.33 713.53 471.82 710.12 482.26ZM668.27 452.32C667.55 450.17 666.83 448.38 666.12 446.76L663.92 441.43L663.83 441.16C662.8 438.83 661.77 436.45 660.74 434.12C659.75 431.83 658.72 429.55 657.74 427.22L656.39 424.44C655.27 421.89 653.83 418.75 651.86 414.58C649.08 408.8 646.12 402.97 643.03 397.14C643.12 397.14 643.21 397.14 643.3 397.14C650.12 397.14 656.49 398.8 662.72 402.21C668.73 406.11 673.48 412.07 677.34 420.32L677.97 421.66C679.76 425.65 680.93 429.59 681.42 433.31L681.55 434.07C682.36 438.01 682.81 442.32 682.81 446.93C682.81 450.56 682.63 454.15 682.23 457.6C681.51 462.49 680.17 467.95 678.24 473.83L677.39 476.38C676.27 479.74 674.25 484.13 671.38 489.47C668.82 494 666.13 497.81 663.35 500.72L663.22 500.85C658.06 506.54 653.13 509.46 648.47 509.46C641.2 509.46 633.67 503.18 626.09 490.77C623.18 485.75 620.89 480.33 619.27 474.63C617.21 466.07 616.13 457.73 616.13 449.75C616.13 444.42 616.44 439.44 617.12 435C617.17 434.82 617.16 434.69 617.21 434.51L628.42 457.77L628.6 458.13C630.48 461.72 631.51 463.6 631.6 463.73L631.87 464.18C632.18 464.72 632.86 465.93 633.89 467.77C637.3 474.54 642.28 476.82 645.91 477.54C649.99 478.35 654.07 477.81 657.84 475.97C661.97 473.95 665.24 470.68 667.3 466.56L667.48 466.2C669.58 461.77 669.84 456.93 668.27 452.32Z" fill="white"/>
<path d="M727.28 428.62C725.8 420.17 723.71 412.73 720.98 406.28C717.58 398.61 713.66 392 709.24 386.44C701.18 376.1 692.67 368.82 683.71 364.6C670.66 359.15 657.05 356.43 642.86 356.43C633.22 356.43 623.85 358.26 614.78 361.93C613.9 362.36 613.05 362.85 612.19 363.32C610.23 359.44 608.24 355.62 606.2 351.87C604.16 348.13 602.39 345 600.88 342.46L599.45 339.84C596.84 335.4 594.23 330.96 591.62 326.52L588.42 321.35C587.76 320.14 586.86 318.74 585.71 317.14C585.57 316.95 585.41 316.8 585.26 316.62C584.66 315.59 583.74 314.64 582.5 313.79C581.13 312.61 577.72 311.24 573.84 313.91C569.94 316.6 555.53 335.38 557.42 348.09C557.45 348.27 558.12 352.6 564.25 353.89C564.84 354.01 565.37 354.07 565.86 354.07C567.38 354.07 568.4 353.54 569.03 353.03C570.8 351.6 570.85 349.32 570.85 349.19C570.86 349.11 571.43 342.99 577.23 333.7C577.36 333.96 577.48 334.21 577.62 334.49L582.09 342.85L583.13 344.75L586.43 350.81L596.05 368.44C596.9 370 597.69 371.55 598.51 373.11C598.32 373.28 598.12 373.44 597.93 373.62C597.72 373.82 597.52 374.05 597.32 374.26C597.16 374.4 597 374.54 596.83 374.69C596.69 374.82 596.55 374.96 596.42 375.11C589.37 382.47 586.08 388.37 582.54 393.64L580.88 396.65C579.12 399.56 575.05 407.72 571.11 416.72C567.43 425.12 562.74 435.2 558.65 443.77C557.3 446.53 555.08 451.42 552 458.38C551.4 457.07 550.89 456 550.49 455.18C547.28 448.45 543.93 441.94 540.45 435.65C538.59 432.29 536.97 429.46 535.59 427.18L534.28 424.82C531.9 420.82 529.52 416.82 527.14 412.83L524.48 408.58C527.63 408.53 531.02 408.57 534.71 408.76C535.68 408.9 540.87 409.51 543.94 406.76C544.97 405.83 546.17 404.13 546.06 401.26C546.13 400.17 545.91 396.02 539.06 394.31C533.1 392.82 499.97 392.35 487.55 401.01C485.91 402.14 483.6 405.54 486.65 410.35C488.26 412.89 490.51 413.66 492.51 413.66C493.96 413.66 495.28 413.25 496.12 412.82C496.19 412.79 500.57 410.94 509.45 409.7C509.6 410.08 509.76 410.46 509.99 410.86C511.23 413.51 511.87 414.9 511.93 415.05C511.98 415.2 512.8 416.85 514.38 420.02L518.46 427.54L519.41 429.25L522.43 434.7L526.64 442.31C524.74 442.96 522.9 444.09 521.24 445.22C514.38 449.85 507.52 454.48 500.67 459.11C497.01 461.2 492.18 464.32 486.16 468.47C482.38 471.3 480.18 472.88 479.55 473.21L478.48 474.09C476.51 475.5 474.67 476.99 472.97 478.54C472.05 479.2 470.86 480.31 469.4 481.9C466.97 484.67 465.9 487.06 466.19 489.07C466.32 489.94 466.53 490.84 466.85 491.76C467.3 493.09 467.61 493.9 467.76 494.19C467.92 494.48 468.49 495 469.49 495.74L469.72 495.92C471.23 496.83 472.87 497.39 474.65 497.58C477.56 497.9 481.89 497.8 487.65 497.27C490.98 496.99 493.25 496.85 494.44 496.84C499.5 496.6 502.8 496.48 504.34 496.47C509.09 496.68 513.04 496.96 516.19 497.32C520.52 497.79 525.43 498.63 530.92 499.84C531.55 500.02 532.2 500.17 532.87 500.29L541.91 502.44C544.29 503.06 546.27 503.1 547.86 502.56C548.63 502.3 549.29 501.9 549.85 501.37C550.53 500.77 551.03 500.11 551.35 499.39C551.78 498.68 552.33 497.73 553.01 496.5L554.7 493.24C558.23 485.81 560.61 480.98 561.84 478.77L567.01 468.63C568.2 466.22 569.44 463.84 570.74 461.49L570.75 461.47C571.68 474.67 574.36 487.31 578.87 499.39C582.27 508.39 586.41 516.23 591.29 522.9C601.95 538.35 614.83 548.41 629.92 553.08C636.39 554.97 642.91 555.91 649.49 555.91C658.11 555.91 666.48 553.99 674.59 550.16C682.7 546.33 691.07 539.74 699.69 530.4C699.92 529.96 700.2 529.57 700.54 529.23C710.52 517.12 717.96 503.39 722.84 488.05C726.7 476.38 728.8 464.6 729.14 452.7C729.16 443.74 728.53 435.73 727.28 428.62ZM542.48 481.49C541.85 483.74 540.83 486.36 538.55 486.85C538.46 486.87 538.36 486.85 538.27 486.87C535.73 486.24 533.14 485.65 530.46 485.11L528 484.66C521.89 483.49 515.87 482.74 509.93 482.42C506.22 482.26 503.83 482.21 502.78 482.29C498.88 482.25 495 482.43 491.14 482.83L489.7 482.89C490.09 482.7 490.82 482.16 491.89 481.29C493.81 479.89 495.79 478.5 497.84 477.12C503.92 472.82 510.62 468.77 517.94 464.96L519.04 464.41C521.42 463.2 523.13 462.42 524.15 462.07L526.16 461.23C527.09 460.88 528.04 460.51 529.03 460.09C530.22 459.59 531.46 459.21 532.66 458.74C533.21 458.81 533.75 458.99 534.28 459.34C535.69 460.28 536.52 461.84 537.31 463.34C538.74 466.08 540.16 468.81 541.59 471.55C542.31 472.92 543.03 474.33 543.25 475.86C543.52 477.75 543 479.65 542.48 481.49ZM694.95 460.8C694.16 466.47 692.62 472.75 690.35 479.64L689.5 482.14C688.14 486.25 685.81 491.37 682.52 497.48C679.46 502.93 676.16 507.54 672.65 511.32C665.05 519.77 657.1 523.99 648.82 523.99C636.91 523.99 625.9 515.71 615.8 499.15C612.28 493.04 609.56 486.54 607.63 479.64C605.25 469.97 604.06 460.52 604.06 451.3C604.06 445.08 604.46 439.41 605.25 434.29C606.04 430.29 606.95 426.29 607.97 422.29C609.78 415.84 612.05 410.29 614.78 405.62C614.93 405.39 615.08 405.19 615.23 404.97L617.24 409.05C618.99 412.47 620.71 415.95 622.4 419.49L631.05 437.63L634.02 443.86L634.95 445.81L639.1 454.33C640.93 457.79 641.9 459.59 642 459.74C642.1 459.88 642.94 461.36 644.53 464.18C645.59 466.41 646.93 467.69 648.53 468.01C650.13 468.33 651.67 468.14 653.13 467.42C655.04 466.49 656.47 465.06 657.42 463.14C658.26 461.35 658.36 459.52 657.74 457.65C657.12 455.77 656.51 454.22 655.92 452.98L653.6 447.35C651.53 442.63 649.46 437.9 647.39 433.18L646.1 430.48C644.93 427.76 643.42 424.49 641.59 420.64C638.31 413.76 634.76 406.87 630.97 399.97C631.02 400 631.08 400.04 631.12 400.06C630.32 398.22 628.8 395.25 627.06 391.94C632.29 387.96 637.79 385.95 643.54 385.95C652.62 385.95 661.24 388.23 669.41 392.79C677.58 398.02 684.1 405.91 688.98 416.47L689.66 417.97C691.93 423.08 693.4 428.09 694.08 432.98C695.1 437.87 695.61 443.04 695.61 448.49C695.63 452.68 695.4 456.8 694.95 460.8Z" fill="#17351A"/>
<path d="M973.69 556.07C988.55 556.07 1003.45 555.61 1018.29 556.42C1030 557.06 1041.65 559.54 1053.33 560.65C1061.76 561.45 1072.1 561.23 1077.47 551.8C1085.73 537.31 1079.74 515.09 1065.24 511.82C1058.29 510.25 1058.29 510.25 1050.35 511.67C1043.21 495.96 1033.17 487.74 1019.64 485.29C1012.98 484.08 1004.97 485.8 1003.9 495.3C1004.65 491.18 1001.02 485.72 998.24 483.33C990.95 477.05 973.67 477.43 965.07 480.6C953.09 485.02 947.11 493.53 945.01 507.34C937.89 507.65 931.3 506.57 926.75 514.26C924.18 518.59 923.46 523.9 922.93 529.07C922.18 536.4 922 541.82 925.33 547.78C931.28 558.45 944.69 556.54 954.27 556.54C960.55 556.53 966.67 556.99 973.69 556.07Z" fill="white"/>
<path d="M976.76 549.52C990 549.52 1003.28 549.18 1016.5 549.78C1026.94 550.25 1037.32 552.1 1047.72 552.93C1055.23 553.53 1064.45 553.36 1069.23 546.36C1076.59 535.6 1071.25 519.1 1058.33 516.67C1052.14 515.51 1047.07 516.86 1042.36 520.13C1039.4 508.13 1029.76 499.79 1017.71 497.97C1011.78 497.07 1003.6 499.45 1002.65 506.5C1003.32 503.44 994.46 496.68 991.98 494.9C985.48 490.24 976.43 489.02 968.77 491.37C958.1 494.65 953.1 503.08 951.23 513.34C944.89 513.57 939.02 512.77 934.96 518.48C932.67 521.7 932.03 525.64 931.56 529.48C930.89 534.93 930.73 538.95 933.69 543.38C938.99 551.31 950.94 549.89 959.47 549.88C965.05 549.86 970.51 550.2 976.76 549.52Z" fill="#013507"/>
<path d="M883.85 558.97C895.19 558.97 906.57 558.62 917.9 559.24C926.84 559.73 935.74 561.62 944.65 562.47C951.09 563.08 958.98 562.91 963.08 555.72C969.39 544.66 964.81 527.7 953.74 525.2C948.43 524 948.43 524 942.38 525.08C936.93 513.09 929.26 506.81 918.94 504.94C913.86 504.02 907.74 505.33 906.93 512.58C907.5 509.44 904.73 505.27 902.61 503.44C897.04 498.65 883.86 498.93 877.29 501.35C868.15 504.72 863.58 511.22 861.98 521.76C856.54 522 851.51 521.17 848.04 527.04C846.08 530.35 845.53 534.4 845.13 538.35C844.56 543.95 844.42 548.08 846.96 552.63C851.5 560.78 861.74 559.32 869.05 559.31C873.82 559.32 878.5 559.67 883.85 558.97Z" fill="white"/>
<path d="M886.2 553.97C896.31 553.97 906.44 553.71 916.53 554.17C924.5 554.53 932.42 555.94 940.36 556.57C946.09 557.03 953.13 556.9 956.78 551.55C962.4 543.33 958.32 530.74 948.46 528.89C943.73 528 939.86 529.04 936.27 531.53C934.01 522.37 926.65 516 917.46 514.61C912.93 513.92 906.69 515.74 905.97 521.12C906.48 518.79 899.72 513.62 897.82 512.26C892.86 508.7 885.95 507.77 880.1 509.57C871.95 512.08 868.13 518.51 866.71 526.34C861.87 526.52 857.39 525.9 854.29 530.26C852.55 532.72 852.05 535.73 851.69 538.66C851.18 542.82 851.06 545.89 853.32 549.27C857.37 555.32 866.48 554.24 873 554.23C877.26 554.23 881.43 554.49 886.2 553.97Z" fill="#2C8354"/>
</g>
<defs>
<clipPath id="clip0">
<rect width="1213.8" height="464.88" fill="white" transform="translate(113 120)"/>
</clipPath>
</defs>
</svg>
