<svg width="1439" height="567" fill="none" xmlns="http://www.w3.org/2000/svg"><path fill-rule="evenodd" clip-rule="evenodd" d="M1440 849v18.505H0V393.116c36.222-39.89 110.858-33.124 164.772-28.237 15.15 1.374 28.663 2.599 39.228 2.599 106.4 0 113.06-43.011 120.354-90.11 8.163-52.72 17.12-110.56 167.646-118.928 9.229-.513 19.997-1.327 31.994-2.234 107.822-8.149 314.923-23.802 396.506 103.942 33.198 51.982 70.187 39.551 104.63 27.977 15.87-5.335 31.2-10.487 45.37-9.067 54.37-6.919 91.82-3.684 124.05-.899 43.96 3.797 78.22 6.757 132.45-18.011 85.21-59.321 87.43-136.299 89.02-191.438C1417.04 33.365 1417.8 6.994 1440 0v849z" fill="#FFF2EA"/><g clip-path="url(#prefix__clip0)"><path d="M331.455 286.045c-5.146.028-10.721.214-14.738 3.547-5.475 4.55-5.818 12.918-5.704 20.2.415 25.221.83 50.427 1.258 75.634.058 3.462.2 7.181 2.187 9.956 2.259 3.133 6.233 4.206 9.906 5.079 28.918 6.867 58.751 13.762 87.983 8.526 3.202-.572 6.59-1.273 9.634-.071 3.588 1.43 5.761 5.121 8.163 8.24 11.85 15.392 38.766 17.081 48.458.157 2.187-3.805 3.573-8.412 7.147-10.844 3.188-2.16 7.276-2.002 11.078-1.774 26.617 1.66 53.233 3.305 79.849 4.964 13.151.816 26.316 1.631 39.381 3.348 28.818 3.762 59.151 11.63 85.996.129 9.935-4.249 22.471-10.629 30.076-2.747 2.244 2.332 3.445 5.508 5.131 8.297 8.263 13.719 30.033 15.264 40.025 2.847 3.102-3.848 5.217-8.741 9.277-11.459 4.031-2.703 9.134-2.718 13.923-2.646 53.161.787 106.322 1.588 159.483 2.375 4.274.057 8.748.186 12.436 2.431 4.017 2.447 6.347 6.967 9.578 10.444 8.662 9.313 24.628 9.742 33.738.901 4.83-4.692 7.9-11.53 13.82-14.621 4.26-2.231 9.26-2.102 14.02-1.931 17.66.658 35.32 1.302 52.98 1.96 5.16.186 10.62.315 15.16-2.232 6.08-3.404 9.01-10.7 10.9-17.581 6.83-24.963 5.69-52.216-3.23-76.478-2.83-7.711-6.61-15.364-12.81-20.529-9.82-8.182-23.49-8.554-36.08-8.54-63.13.071-126.236.129-189.36.186-27.803.029-55.62.043-83.408 1.044-19.955.716-57.993 2.733-83.494.444-21.599-1.946-5.718-9.385-57.135-9.285-8.32.015-16.296-.257-24.044 1.488-6.146 1.388-6.818 5.322-15.466 7.024-26.331 5.193-76.218.2-103.049.372-28.575.172-57.164.358-85.738.529-32.449.215-64.897.415-97.331.616z" fill="#FFF2EA"/><path d="M332.827 304.668c-3.702-2.861-9.505-.501-11.878 3.534-2.373 4.034-2.302 8.998-2.159 13.661.543 17.153 1.072 34.305 1.615 51.458.072 2.289.186 4.706 1.43 6.609 1.987 3.018 6.046 3.734 9.634 4.048 37.938 3.234 75.375-8.225 112.97-14.262 38.78-6.209 78.491-6.652 117.4-1.288 21.799 3.004 43.341 7.811 65.254 9.828 16.754 1.531 33.65 1.416 50.431.243a403.402 403.402 0 0069.972-11.129c18.44-4.621 37.68 3.118 56.391 6.48a387.873 387.873 0 00109.625 3.834c13.522-1.459 25.658-4.106 39.109-6.108 10.535-1.574 21.085-3.133 31.72-3.791 8.305-.515 16.639-.458 24.959-.415 25.41.143 50.83.3 76.25.443 10.04.057 21.59.83 27.63 8.87 1.94 2.589 5.47-2.819 5.57-6.052.55-17.424-1.86-34.934-7.06-51.571-1.83-5.837-4.43-12.089-9.88-14.878-3.6-1.86-7.84-1.846-11.9-1.803l-252.059 3.09c-12.679.158-25.387.315-38.023-.758-11.364-.958-22.628-2.89-34.007-3.719-20.67-1.503-41.425.686-61.909 3.819-11.793 1.803-24.244 3.205-36.151 3.991-34.321 2.275-68.656-2.274-103.006-4.091-41.511-2.189-83.137-.386-124.662 1.416-31.791-.815-64.854-2.289-96.659-1.831" fill="#013507"/><path d="M826.216 327.443a347.65 347.65 0 011.387 57.48c-.329 5.651-.401 12.46 3.259 15.622 1.787 1.545 4.045 1.774 6.189 1.902 13.78.873 27.589-.186 41.368-1.23 2.43-.186 4.989-.429 6.99-2.174 3.317-2.876 3.96-8.684 4.246-13.805a528.389 528.389 0 00-.2-61.486c-.286-4.563-.887-9.728-3.845-12.303-7.548-6.58-25.888-1.63-35.051-1.816-12.364-.229-26.216-3.791-24.343 17.81zM1031.6 327.443a349.075 349.075 0 011.39 57.48c-.33 5.651-.41 12.46 3.25 15.622 1.79 1.545 4.05 1.774 6.19 1.902 13.78.873 27.59-.186 41.37-1.23 2.43-.186 4.99-.429 6.99-2.174 3.32-2.876 3.96-8.684 4.25-13.805a534.424 534.424 0 00-.2-61.486c-.29-4.563-.89-9.728-3.85-12.303-7.55-6.58-25.89-1.63-35.05-1.816-12.38-.229-26.21-3.791-24.34 17.81zM524.116 327.443a347.542 347.542 0 011.387 57.48c-.329 5.651-.4 12.46 3.259 15.622 1.787 1.545 4.045 1.774 6.19 1.902 13.78.873 27.588-.186 41.368-1.23 2.43-.186 4.989-.429 6.99-2.174 3.316-2.876 3.959-8.684 4.245-13.805a528.168 528.168 0 00-.2-61.486c-.286-4.563-.886-9.728-3.845-12.303-7.547-6.58-25.887-1.63-35.05-1.816-12.379-.229-26.23-3.791-24.344 17.81zM352.954 327.443a347.65 347.65 0 011.387 57.48c-.329 5.651-.401 12.46 3.259 15.622 1.786 1.545 4.045 1.774 6.189 1.902 13.78.873 27.588-.186 41.368-1.23 2.43-.186 4.989-.429 6.99-2.174 3.317-2.876 3.96-8.684 4.246-13.805a528.389 528.389 0 00-.2-61.486c-.286-4.563-.887-9.728-3.846-12.303-7.547-6.58-25.887-1.63-35.05-1.816-12.379-.229-26.216-3.791-24.343 17.81z" fill="#D86C00"/><path d="M389.591 333.394c.557 15.822.686 31.887.371 47.81-.085 4.706-.114 10.357.887 13.003.486 1.288 1.086 1.474 1.672 1.588 3.717.73 7.448-.157 11.164-1.03.658-.157 1.344-.357 1.887-1.817.901-2.403 1.072-7.224 1.144-11.473.3-17.023.285-34.133-.058-51.142-.071-3.791-.243-8.083-1.043-10.229-2.044-5.465-6.99-1.359-9.463-1.516-3.331-.2-7.062-3.162-6.561 14.806zM381.743 333.394a873.231 873.231 0 00-.371 47.81c.086 4.706.114 10.357-.886 13.003-.487 1.288-1.087 1.474-1.673 1.588-3.717.73-7.447-.157-11.164-1.03-.657-.157-1.344-.357-1.887-1.817-.9-2.403-1.072-7.224-1.143-11.473-.301-17.023-.286-34.133.057-51.142.071-3.791.243-8.083 1.043-10.229 2.044-5.465 6.99-1.359 9.463-1.516 3.317-.2 7.062-3.162 6.561 14.806zM560.067 333.394c.557 15.822.672 31.887.372 47.81-.086 4.706-.115 10.357.886 13.003.486 1.288 1.086 1.474 1.672 1.588 3.717.73 7.448-.157 11.164-1.03.658-.157 1.344-.357 1.887-1.817.901-2.403 1.072-7.224 1.144-11.473.3-17.023.286-34.133-.058-51.142-.071-3.791-.243-8.083-1.043-10.229-2.044-5.465-6.99-1.359-9.463-1.516-3.331-.2-7.061-3.162-6.561 14.806zM552.205 333.394a887.46 887.46 0 00-.372 47.81c.086 4.706.115 10.357-.886 13.003-.486 1.288-1.086 1.474-1.673 1.588-3.716.73-7.447-.157-11.163-1.03-.658-.157-1.344-.357-1.887-1.817-.901-2.403-1.072-7.224-1.144-11.473-.3-17.023-.286-34.133.057-51.142.072-3.791.243-8.083 1.044-10.229 2.044-5.465 6.99-1.359 9.463-1.516 3.33-.2 7.075-3.162 6.561 14.806zM1067.54 333.394c.55 15.822.68 31.887.37 47.81-.09 4.706-.12 10.357.88 13.003.49 1.288 1.09 1.474 1.68 1.588 3.71.73 7.44-.157 11.16-1.03.66-.157 1.34-.357 1.89-1.817.9-2.403 1.07-7.224 1.14-11.473.3-17.023.29-34.133-.06-51.142-.07-3.791-.24-8.083-1.04-10.229-2.04-5.465-6.99-1.359-9.46-1.516-3.33-.2-7.08-3.162-6.56 14.806zM1059.67 333.394a895.805 895.805 0 00-.37 47.81c.09 4.706.12 10.357-.89 13.003-.48 1.288-1.08 1.474-1.67 1.588-3.71.73-7.45-.157-11.16-1.03-.66-.157-1.35-.357-1.89-1.817-.9-2.403-1.07-7.224-1.14-11.473-.3-17.023-.29-34.133.06-51.142.07-3.791.24-8.083 1.04-10.229 2.04-5.465 6.99-1.359 9.46-1.516 3.33-.2 7.06-3.162 6.56 14.806zM862.18 333.394a873.23 873.23 0 01.372 47.81c-.086 4.706-.115 10.357.886 13.003.486 1.288 1.086 1.474 1.672 1.588 3.717.73 7.448-.157 11.164-1.03.658-.157 1.344-.357 1.887-1.817.901-2.403 1.072-7.224 1.144-11.473.3-17.023.286-34.133-.057-51.142-.072-3.791-.243-8.083-1.044-10.229-2.044-5.465-6.99-1.359-9.463-1.516-3.33-.2-7.076-3.162-6.561 14.806zM854.319 333.394a873.23 873.23 0 00-.372 47.81c.086 4.706.114 10.357-.886 13.003-.486 1.288-1.087 1.474-1.673 1.588-3.716.73-7.447-.157-11.164-1.03-.657-.157-1.343-.357-1.887-1.817-.9-2.403-1.072-7.224-1.143-11.473-.3-17.023-.286-34.133.057-51.142.072-3.791.243-8.083 1.044-10.229 2.044-5.465 6.99-1.359 9.463-1.516 3.33-.2 7.075-3.162 6.561 14.806zM492.354 326.041c.815 8.154 1 16.423.543 24.62-.129 2.418-.157 5.336 1.287 6.695.7.658 1.6.758 2.444.816 5.446.372 10.907-.072 16.353-.53.957-.085 1.972-.186 2.759-.93 1.315-1.23 1.572-3.719 1.672-5.908.443-8.769.415-17.581-.086-26.336-.114-1.96-.357-4.163-1.515-5.265-2.987-2.818-10.235-.701-13.851-.787-4.875-.114-10.349-1.63-9.606 7.625zM594.731 326.67c.815 8.784 1 17.682.543 26.523-.129 2.604-.157 5.751 1.286 7.21.701.715 1.601.815 2.445.873 5.446.4 10.906-.086 16.353-.573.957-.085 1.972-.2 2.759-1.001 1.315-1.33 1.572-4.006 1.672-6.366.443-9.442.415-18.926-.086-28.368-.114-2.103-.357-4.492-1.515-5.679-2.988-3.033-10.235-.759-13.851-.844-4.875-.101-10.35-1.731-9.606 8.225zM791.68 326.67a184.533 184.533 0 01.544 26.523c-.129 2.604-.158 5.751 1.286 7.21.701.715 1.601.815 2.445.873 5.446.4 10.906-.086 16.352-.573.958-.085 1.973-.2 2.759-1.001 1.315-1.33 1.573-4.006 1.673-6.366.443-9.442.414-18.926-.086-28.368-.114-2.103-.357-4.492-1.515-5.679-2.988-3.033-10.235-.759-13.852-.844-4.874-.101-10.349-1.731-9.606 8.225z" fill="#FFF2EA"/><path d="M439.493 361.361a277.715 277.715 0 0135.021-.629c3.445.157 7.591.186 9.52-1.502.944-.815 1.072-1.86 1.158-2.847.529-6.352-.114-12.703-.757-19.041-.115-1.115-.258-2.289-1.33-3.218-1.758-1.531-5.289-1.832-8.405-1.96a424.803 424.803 0 00-37.466.1c-2.773.129-5.918.415-7.49 1.774-4.003 3.476-1.001 11.916-1.115 16.137-.129 5.679-2.301 12.045 10.864 11.186z" fill="#D86C00"/><path d="M438.678 324.668a920.113 920.113 0 0135.021-.186c3.445.043 7.591.057 9.52-.444.944-.243 1.073-.558 1.158-.844.529-1.888-.114-3.791-.757-5.679-.115-.329-.258-.687-1.33-.959-1.758-.457-5.289-.543-8.405-.586a1422.253 1422.253 0 00-37.466.029c-2.773.042-5.918.128-7.49.529-4.002 1.03-1.001 3.562-1.115 4.821-.129 1.674-2.301 3.576 10.864 3.319z" fill="#F98E12"/><path d="M911.54 361.361a277.712 277.712 0 0135.021-.629c3.445.157 7.59.186 9.52-1.502.944-.815 1.072-1.86 1.158-2.847.529-6.352-.114-12.703-.758-19.041-.114-1.115-.257-2.289-1.329-3.218-1.758-1.531-5.289-1.832-8.405-1.96a424.803 424.803 0 00-37.466.1c-2.773.129-5.918.415-7.49 1.774-4.003 3.476-1.001 11.916-1.115 16.137-.129 5.679-2.302 12.045 10.864 11.186z" fill="#D86C00"/><path d="M910.725 324.668a920.113 920.113 0 0135.021-.186c3.445.043 7.591.057 9.52-.444.944-.243 1.072-.558 1.158-.844.529-1.888-.114-3.791-.757-5.679-.115-.329-.258-.687-1.33-.959-1.758-.457-5.289-.543-8.405-.586a1422.253 1422.253 0 00-37.466.029c-2.773.042-5.918.128-7.49.529-4.003 1.03-1.001 3.562-1.115 4.821-.129 1.674-2.302 3.576 10.864 3.319z" fill="#F98E12"/><path d="M977.808 361.361a277.744 277.744 0 0135.022-.629c3.44.157 7.59.186 9.52-1.502.94-.815 1.07-1.86 1.16-2.847.53-6.352-.12-12.703-.76-19.041-.11-1.115-.26-2.289-1.33-3.218-1.76-1.531-5.29-1.832-8.4-1.96a424.888 424.888 0 00-37.47.1c-2.773.129-5.918.415-7.491 1.774-4.002 3.476-1 11.916-1.115 16.137-.128 5.679-2.301 12.045 10.864 11.186z" fill="#D86C00"/><path d="M734.045 357.027a193.538 193.538 0 0135.021-.916c3.445.229 7.59.272 9.52-2.174.944-1.188 1.072-2.69 1.158-4.12.529-9.17-.114-18.355-.758-27.525-.114-1.616-.257-3.318-1.329-4.649-1.758-2.203-5.289-2.632-8.405-2.832a294.952 294.952 0 00-37.466.143c-2.773.186-5.918.586-7.49 2.56-4.003 5.022-1.001 17.224-1.115 23.319-.129 8.24-2.302 17.438 10.864 16.194zM976.993 324.668a919.946 919.946 0 0135.017-.186c3.45.043 7.6.057 9.52-.444.95-.243 1.08-.558 1.16-.844.53-1.888-.11-3.791-.75-5.679-.12-.329-.26-.687-1.33-.959-1.76-.457-5.29-.543-8.41-.586-12.464-.157-25-.143-37.465.029-2.773.042-5.918.128-7.491.529-4.002 1.03-1 3.562-1.115 4.821-.128 1.674-2.301 3.576 10.864 3.319z" fill="#F98E12"/><path d="M453.701 424.163c-3.345 0-6.461-.829-9.363-2.503-2.173-1.33-3.874-3.047-5.089-5.121-2.587-3.92-3.888-8.212-3.888-12.904 0-2.747.486-5.465 1.444-8.183.086-.129.143-.286.186-.458.329-.972.758-1.917 1.258-2.861 3.302-5.021 7.876-7.525 13.694-7.525 2.387 0 4.731.458 7.033 1.359a17.303 17.303 0 016.032 3.963c3.102 3.147 5.06 6.767 5.904 10.887.214 1.073.314 2.303.314 3.719 0 .801-.057 1.617-.186 2.461-.257 2.174-.772 4.163-1.572 5.965-1.044 2.103-2.087 3.82-3.145 5.122-1.301 1.602-2.916 2.975-4.831 4.12-2.516 1.301-5.118 1.959-7.791 1.959zm-.257-8.383c.214 0 .672-.114 1.386-.357.715-.229 1.716-1.288 3.017-3.162a10.09 10.09 0 001.072-1.702v-.1c.757-1.574 1.229-2.962 1.443-4.163l.058-.158a7.505 7.505 0 00.185-1.659c0-1.03-.085-1.946-.257-2.704-.257-1.373-.8-2.747-1.658-4.134-.858-1.388-1.744-2.461-2.673-3.233-1.844-1.273-3.288-1.903-4.331-1.903-1.13 0-2.145.816-3.045 2.461a17.356 17.356 0 00-1.858 5.264 16.523 16.523 0 00-.372 3.562c0 3.276 1.029 6.423 3.073 9.428 1.558 1.702 2.873 2.56 3.96 2.56zM756.916 424.163c-3.345 0-6.461-.829-9.363-2.503-2.173-1.331-3.874-3.047-5.089-5.122-2.601-3.919-3.888-8.211-3.888-12.889 0-2.747.486-5.465 1.444-8.183.086-.129.143-.286.186-.458.329-.972.757-1.917 1.258-2.861 3.302-5.021 7.876-7.524 13.694-7.524 2.387 0 4.731.457 7.033 1.359a17.287 17.287 0 016.032 3.962c3.102 3.147 5.06 6.767 5.903 10.887.215 1.073.315 2.303.315 3.719 0 .801-.057 1.617-.186 2.461-.257 2.174-.772 4.163-1.572 5.965-1.044 2.103-2.087 3.82-3.145 5.122-1.301 1.602-2.916 2.975-4.832 4.12-2.515 1.287-5.117 1.945-7.79 1.945zm-.257-8.383c.214 0 .672-.114 1.386-.357.715-.229 1.716-1.288 3.016-3.162.415-.529.772-1.102 1.072-1.702v-.1c.758-1.574 1.23-2.962 1.444-4.163l.057-.158a7.454 7.454 0 00.186-1.659c0-1.03-.086-1.946-.257-2.704-.257-1.373-.801-2.747-1.658-4.134-.858-1.388-1.744-2.461-2.673-3.233-1.844-1.274-3.288-1.903-4.332-1.903-1.129 0-2.144.815-3.044 2.461a17.384 17.384 0 00-1.859 5.264 16.58 16.58 0 00-.371 3.562c0 3.276 1.029 6.423 3.073 9.427 1.558 1.703 2.873 2.561 3.96 2.561zM997.478 424.163c-3.345 0-6.462-.829-9.363-2.503-2.173-1.331-3.874-3.047-5.089-5.122-2.602-3.919-3.888-8.211-3.888-12.889 0-2.747.486-5.465 1.443-8.183.086-.129.143-.286.186-.458.329-.972.758-1.917 1.258-2.861 3.302-5.021 7.876-7.524 13.694-7.524 2.387 0 4.731.457 7.031 1.359 2.3.901 4.32 2.231 6.03 3.962 3.11 3.147 5.06 6.767 5.91 10.887.21 1.073.31 2.303.31 3.719 0 .801-.05 1.617-.18 2.461-.26 2.174-.78 4.163-1.58 5.965-1.04 2.103-2.08 3.82-3.14 5.122-1.3 1.602-2.92 2.975-4.83 4.12-2.52 1.287-5.11 1.945-7.792 1.945zm-.243-8.383c.214 0 .671-.114 1.386-.357.715-.229 1.719-1.288 3.019-3.162.41-.529.77-1.102 1.07-1.702v-.1c.76-1.574 1.23-2.962 1.44-4.163l.06-.158c.13-.572.19-1.116.19-1.659 0-1.03-.09-1.946-.26-2.704-.26-1.373-.8-2.747-1.66-4.134-.86-1.388-1.74-2.461-2.672-3.233-1.844-1.274-3.288-1.903-4.332-1.903-1.129 0-2.144.815-3.044 2.461a17.358 17.358 0 00-1.859 5.264 16.58 16.58 0 00-.371 3.562c0 3.276 1.029 6.423 3.073 9.427 1.544 1.703 2.873 2.561 3.96 2.561zM628.394 309.303c2.202 25.45 2.688 51.272 1.473 76.893-.358 7.568-.443 16.666 3.502 20.901 1.915 2.06 4.331 2.374 6.633 2.546 14.766 1.173 29.561-.243 44.312-1.659 2.602-.244 5.347-.573 7.491-2.919 3.545-3.862 4.245-11.616 4.545-18.454a886.381 886.381 0 00-.214-82.243c-.3-6.094-.943-13.004-4.117-16.452-8.091-8.798-27.731-2.188-37.551-2.432-13.251-.314-28.089-5.064-26.074 23.819z" fill="#D86C00"/><path d="M317.947 391.303c.043 1.173.214 2.447 1.044 3.248.8.772 1.986.93 3.087.987 1.844.114 3.702.1 5.546.086 6.233-.058 12.479-.1 18.712-.158.986-.014 1.987-.014 2.916-.329 1.429-.486 2.63-1.745 2.83-3.247.2-1.502-.7-3.133-2.144-3.591-.743-.243-1.558-.171-2.33-.1-6.175.558-12.408 1.001-18.611.701-3.788-.186-11.279-4.091-11.05 2.403zM422.011 396.124c1.015 1.259 2.973 1.374 4.66 1.374.714 0 1.458-.015 2.101-.301 1.215-.572 1.644-1.96 2.044-3.176 1.33-4.206 3.66-8.183 7.09-11.172 3.417-3.005 7.977-4.964 12.679-5.007 2.059-.015 4.117.314 6.104.815 7.819 1.96 15.295 7.024 17.354 14.334.443 1.588.686 3.362 1.972 4.492 1.33 1.173 3.345 1.288 5.175 1.316 4.002.086 8.005.158 12.007.244 2.502.057 5.032.1 7.505-.244 2.802-.386 5.546-1.259 8.391-1.23 1.772.029 3.516.401 5.289.358 1.772-.058 3.659-.673 4.545-2.103.515-.83.615-1.831.686-2.79.529-6.809.486-13.662-.143-20.457-.057-.629-.128-1.287-.5-1.817-.729-1.073-2.316-1.23-3.674-1.259-12.507-.372-25.015-.014-37.494.759a564.591 564.591 0 00-37.108 3.533c-6.004.773-16.596.501-18.898 7.153-.757 2.203-.514 4.649-.514 6.924-.015 2.289-.829 6.309.729 8.254zM593.116 394.036c-.272 2.017-1.258 4.363.329 5.851 1.157 1.087 3.102 1.044 4.788.929 5.804-.414 11.622-.815 17.425-1.23.686-.043 1.373-.1 2.001-.343 2.116-.83 2.431-3.29 2.431-5.322 0-1.559.014-3.118.014-4.678 0-1.016 0-2.06-.529-2.961-.958-1.688-3.316-2.289-5.418-2.69-3.602-.686-7.218-1.215-10.849-1.759-2.187-.329-4.875-1.66-7.047-1.617-7.205.129-2.673 10.386-3.145 13.82zM703.554 387.355c.029 3.634.129 4.006.272 7.639.043 1.173.157 2.461 1.158 3.305.772.644 1.93.873 3.016 1.044 5.932.902 12.05.902 17.982-.014 1.416-.215 2.888-.515 3.974-1.302 1.916-1.402 1.959-3.777 2.502-5.837 1.729-6.48 9.477-10.843 17.325-12.345 5.946-1.145 12.636-.93 17.639 1.96 1.873 1.087 3.431 2.489 4.832 3.962 2.844 2.976 5.174 6.295 6.904 9.814.557 1.144 1.115 2.375 2.273 3.161 1.229.83 2.93 1.002 4.517 1.131 9.306.701 18.683.701 27.974.028 1.158-.086 2.33-.186 3.359-.644 1.187-.529 2.016-1.473 2.645-2.446 2.573-3.991 2.473-8.741 2.301-13.247-.014-.472-.057-.973-.4-1.33-.315-.315-.815-.472-1.287-.601a119.426 119.426 0 00-13.951-2.933c-8.648-1.273-9.663-.543-18.268-2.003-7.005-1.187-17.382-4.363-24.515-4.849-6.662-.458-13.88.1-20.499.915-8.033.987-19.826 5.665-27.845 6.638-6.69.787-11.979 1.245-11.908 7.954zM893.371 397.269c.058 1.044.215 2.217 1.158 2.875.758.529 1.801.558 2.759.572 23.114.329 46.228.115 69.328-.658 1.344-.043 2.731-.1 3.917-.629 2.802-1.259 3.331-4.435 4.388-7.01 1.959-4.807 6.79-8.54 12.365-10.143 5.575-1.602 11.779-1.173 17.224.716 4.73 1.63 9.06 4.434 11.47 8.325 1.31 2.146 2.02 4.578 3.67 6.567 1.64 1.974 4.72 3.419 7.25 2.374 2.88-1.187 3.21-4.592 3.14-7.367-.16-5.579-.3-11.158-.46-16.737-.04-1.717-.23-3.677-1.81-4.707-1.09-.715-2.55-.773-3.89-.801-18.78-.458-37.695-.901-56.235 1.717-7.847 1.101-15.581 2.746-23.357 4.162a408.708 408.708 0 01-31.004 4.435c-4.26.444-8.406.787-12.694.73-2.602-.029-5.303-.215-6.647 2.06-2.001 3.362-.8 9.856-.572 13.519zM1099.85 374.351c-1 .844-1.1 2.332-1.11 3.648a430.81 430.81 0 00.16 17.61c.03.758.05 1.56.47 2.189.64 1.016 1.99 1.273 3.17 1.445 3.38.486 7.18.873 9.82-1.288 2.8-2.288 3.06-6.409 3.08-10.028.01-2.403-.08-5.05-1.68-6.824-1.07-1.173-2.63-1.759-3.86-2.775-2.51-2.089-6.1-7.339-10.05-3.977zM337.702 292.236l-13.466.043c-2.33 0-4.245.344-4.36.773-.343 1.316-.7 2.618-1.043 3.934-.1.386-.143.815 1.158 1.13 1.558.372 4.431.429 6.961.458 22.4.243 44.885.429 67.256.086 9.148-.143 20.041 0 29.218 0 7.376 0 12.965-.229 20.326-.143 52.075.643 99.904-.201 156.382.414 5.661.058 11.364.172 16.867-.085 1.373-.058 2.645-.172 3.46-.387.972-.243 1.029-.572 1.057-.872.115-1.259.215-2.532.329-3.791.029-.329.015-.673-.972-.93-2.373-.644-8.634-.401-11.15-.472-4.802-.143-9.562-.158-14.423-.129-59.365.443-115.971-.83-173.949-.129-6.59.086-13.151.215-19.741.286-6.475.072-12.951.101-19.44.115-13.366.057-31.076-.344-44.47-.301zM731 292.236l-17.297.043c-3.001 0-5.446.344-5.589.773-.443 1.316-.886 2.618-1.329 3.934-.129.386-.186.815 1.487 1.13 2.001.372 5.674.429 8.948.458 28.76.243 57.635.429 86.353.086 11.75-.143 25.73 0 37.508 0 9.478 0 16.654-.229 26.102-.143 66.87.643 128.279-.201 200.777.414 7.26.058 14.6.172 21.66-.085 1.76-.058 3.4-.172 4.45-.387 1.24-.243 1.32-.572 1.35-.872.15-1.259.27-2.532.42-3.791.03-.329.03-.673-1.25-.93-3.04-.644-11.07-.401-14.3-.472-6.17-.143-12.28-.158-18.52-.129-76.229.443-148.902-.83-223.333-.129-8.462.086-16.896.215-25.358.286-8.306.072-16.639.101-24.959.115-17.21.057-39.938-.344-57.12-.301z" fill="#F98E12"/></g><defs><clipPath id="prefix__clip0"><path fill="#fff" transform="translate(311 276)" d="M0 0h816v154H0z"/></clipPath></defs></svg>