<svg width="1440" height="795" fill="none" xmlns="http://www.w3.org/2000/svg"><path fill-rule="evenodd" clip-rule="evenodd" d="M1440 849v18.505H0V393.116c36.222-39.89 110.858-33.124 164.772-28.237 15.15 1.374 28.663 2.599 39.228 2.599 106.4 0 113.06-43.011 120.354-90.11 8.163-52.72 17.12-110.56 167.646-118.928 9.229-.513 19.997-1.327 31.994-2.234 107.822-8.149 314.923-23.802 396.506 103.942 33.198 51.982 70.187 39.551 104.63 27.977 15.87-5.335 31.2-10.487 45.37-9.067 54.37-6.919 91.82-3.684 124.05-.899 43.96 3.797 78.22 6.757 132.45-18.011 85.21-59.321 87.43-136.299 89.02-191.438C1417.04 33.365 1417.8 6.994 1440 0v849z" fill="#FFF2EA"/><path d="M470.107 272.81c3.365 7.693 3.313 16.074 3.222 24.248-.286 25.767-.559 51.522-.845 77.29-.052 4.769.273 10.239 4.767 13.215 3.105 2.053 7.365 2.287 11.327 2.43a1594.316 1594.316 0 00199.034-5.666c1.884-.168 4.014-.467 5.066-1.78.974-1.221.611-2.833.247-4.275-2.572-10.083-3.377-20.414-4.17-30.705-1.636-21.376-3.286-42.752-4.923-64.127-.298-3.847-.545-7.901 1.572-11.331.909-1.469 2.26-2.937 1.935-4.561-.532-2.664-4.676-3.236-7.689-4.249-7.976-2.664-10.457-11.059-16.86-15.827-6.573-4.899-16.224-5.302-25.043-5.38-38.293-.364-76.585.403-114.851 1.416-14.665.39-26.381 2.287-35.253 12.631-2.962 3.456-5.157 5.145-10.184 6.445-7.196 1.884-10.3 3.495-7.352 10.226z" fill="#fff"/><path d="M479.604 268.64c6.39-5.289 12.781-10.591 19.159-15.879 1.636-1.352 3.325-2.742 5.416-3.522 2.247-.844 4.78-.909 7.235-.974 22.147-.559 44.293-1.105 66.453-1.664 24.355-.61 48.762-1.221 73.026.611 2 .156 4.052.325 5.858 1.092 2.273.961 3.897 2.729 5.416 4.444a284.636 284.636 0 0113.743 16.84l-100.121 48.326-96.185-49.274z" fill="#013507"/><path d="M686.236 382.067c-68.051 3.404-138.803 7.29-206.828 3.326-.377-37.982-.753-75.964-1.117-113.934l201.138-1.065c.117-.13-.117 2.027 0 1.884 2.183 36.683 4.612 73.106 6.807 109.789z" fill="#F98E12"/><path d="M683.236 268.003l-3.819 4.054c-.013-.13-.013-.26-.026-.377-.052-.766-139.439.078-152.156.052-9.95-.013-18.237.442-28.174.455-5.104 0-12.924.416-18.042.312-4.39-.078-4.39-2.456-7.585-4.899a2590.598 2590.598 0 01209.802.403zM508.14 282.439l.039 5.133c-.468.923-.247 2.56-.338 3.639a87.25 87.25 0 00-.195 6.653c.013 1.988-.143 4.054.065 6.042-1.195-.013-2.364 0-3.468.026-.494-6.848-.169-13.826-.221-20.7.987-.52 2.442-.741 4.118-.793z" fill="#D86C00"/><path d="M519.805 304.634c-3.676-.481-8.066-.702-12.08-.728-.208-1.988-.052-4.067-.065-6.042a87.447 87.447 0 01.195-6.653c.078-1.079-.13-2.716.338-3.639l-.039-5.132c3.754-.117 8.534.623 11.067.766 1.402 6.874.35 14.424.584 21.428z" fill="#FFF2EA"/><path d="M539.34 302.646c0 .286-.013.676-.026 1.092-.61 0-1.208.013-1.792.026-.494-6.835-.156-13.826-.208-20.7.442-.247 1-.416 1.637-.546.026 4.054.064 8.109.09 12.163.026 2.651.247 5.301.299 7.965z" fill="#D86C00"/><path d="M553.083 304.452c-4.195-.546-9.313-.754-13.755-.728 0-.415.026-.792.026-1.091-.052-2.664-.273-5.302-.299-7.966-.026-4.054-.065-8.108-.091-12.162 3.793-.754 10.391.338 13.522.507 1.415 6.886.363 14.436.597 21.44zM570.605 282.881c.052 6.861-.286 13.852.221 20.7 4.806-.091 10.781.078 15.548.702-.234-7.004.818-14.554-.597-21.441-3.663-.195-12.054-1.663-15.172.039z" fill="#FFF2EA"/><path d="M619.639 304.101c-.429-.052-.857-.104-1.299-.156-.052-.793-.143-1.573-.169-2.144-.117-2.43-.208-4.86-.351-7.29-.246-3.963-.116-7.966-.103-11.955.493.039.935.078 1.337.104 1.403 6.887.351 14.437.585 21.441z" fill="#D86C00"/><path d="M618.328 303.945c-4.52-.493-9.859-.636-14.236-.545-.494-6.835-.156-13.826-.208-20.7 2.78-1.508 9.755-.52 13.834-.143-.013 3.976-.156 7.991.104 11.955.156 2.429.234 4.859.35 7.289.026.572.117 1.352.156 2.144z" fill="#FFF2EA"/><path d="M652.919 303.933a91.883 91.883 0 00-4.209-.429c0-7.108.195-14.203.195-21.324 1.325.13 2.52.26 3.429.312 1.403 6.887.351 14.437.585 21.441z" fill="#D86C00"/><path d="M648.891 282.18c0 7.121-.195 14.216-.195 21.324-3.793-.286-7.858-.351-11.327-.286-.493-6.848-.168-13.826-.22-20.7 2.364-1.261 7.689-.754 11.742-.338zM504.282 314.965c.052 6.861-.273 13.852.221 20.7 4.806-.091 10.768.078 15.535.701-.234-7.004.818-14.553-.598-21.44-3.65-.208-12.028-1.664-15.158.039zM537.574 314.783c.052 6.861-.273 13.852.221 20.7 4.806-.091 10.768.078 15.535.701-.234-7.003.818-14.553-.598-21.44-3.663-.195-12.041-1.65-15.158.039zM570.839 314.614c.052 6.861-.285 13.852.221 20.7 4.806-.091 10.781.078 15.548.701-.233-7.004.819-14.553-.597-21.44-3.663-.208-12.041-1.664-15.172.039zM604.117 314.432c.052 6.861-.272 13.852.221 20.7 4.806-.091 10.781.078 15.548.701-.234-7.004.819-14.553-.597-21.44-3.663-.195-12.054-1.65-15.172.039zM637.396 314.263c.052 6.861-.273 13.852.221 20.7 4.806-.091 10.768.078 15.535.702-.234-7.004.818-14.554-.597-21.441-3.65-.208-12.041-1.663-15.159.039zM504.568 351.934c.052 6.861-.273 13.852.221 20.7 4.806-.091 10.768.078 15.535.701-.234-7.004.818-14.553-.598-21.44-3.65-.195-12.041-1.664-15.158.039zM537.847 351.752c.052 6.861-.273 13.852.221 20.7 4.806-.091 10.768.078 15.535.701-.234-7.004.818-14.553-.598-21.44-3.65-.195-12.028-1.651-15.158.039zM571.126 351.583c.052 6.861-.286 13.852.22 20.7 4.806-.091 10.782.077 15.549.701-.234-7.004.818-14.553-.598-21.44-3.663-.195-12.054-1.664-15.171.039zM604.404 351.4c.051 6.861-.273 13.852.22 20.7 4.806-.091 10.781.078 15.548.702-.233-7.004.819-14.554-.597-21.441-3.663-.195-12.054-1.65-15.171.039zM637.682 351.231c.052 6.861-.273 13.852.221 20.7 4.806-.091 10.768.078 15.535.702-.234-7.004.818-14.554-.598-21.441-3.65-.195-12.041-1.663-15.158.039z" fill="#FFF2EA"/><path d="M508.387 314.159l.039 5.132c-.468.923-.247 2.56-.338 3.639a87.25 87.25 0 00-.195 6.653c.013 1.988-.143 4.054.065 6.042-1.195-.013-2.364 0-3.468.026-.494-6.848-.169-13.826-.221-20.7.974-.519 2.442-.74 4.118-.792zM508.673 351.114l.039 5.133c-.468.923-.247 2.56-.338 3.638a87.25 87.25 0 00-.195 6.653c.013 1.989-.143 4.055.065 6.043-1.195-.013-2.364 0-3.468.026-.493-6.848-.169-13.826-.221-20.7.975-.52 2.442-.741 4.118-.793zM653.152 335.664a91.883 91.883 0 00-4.209-.429c0-7.108.195-14.203.195-21.323 1.325.13 2.52.26 3.429.311 1.416 6.874.351 14.437.585 21.441zM653.438 372.633a90.532 90.532 0 00-4.209-.428c0-7.108.195-14.203.195-21.324 1.325.13 2.52.26 3.429.312 1.403 6.887.351 14.436.585 21.44zM619.874 335.729c-.429-.052-.857-.104-1.299-.156-.052-.792-.143-1.572-.169-2.144-.117-2.43-.208-4.86-.351-7.29-.246-3.963-.117-7.965-.104-11.954.494.039.936.078 1.338.104 1.416 6.887.351 14.436.585 21.44zM620.16 372.581c-.429-.052-.857-.104-1.299-.156-.052-.793-.143-1.573-.169-2.144-.117-2.43-.208-4.86-.351-7.29-.246-3.963-.116-7.966-.103-11.955.493.039.935.078 1.338.104 1.402 6.887.35 14.437.584 21.441zM539.587 334.365c0 .285-.013.675-.026 1.091-.611 0-1.208.013-1.793.026-.493-6.848-.156-13.826-.207-20.7.441-.247 1-.416 1.636-.546.026 4.055.065 8.109.091 12.163.026 2.664.247 5.315.299 7.966zM539.873 371.346c0 .286-.013.676-.026 1.092-.611 0-1.208.013-1.793.026-.493-6.848-.155-13.826-.207-20.7.441-.247 1-.416 1.636-.546.026 4.054.065 8.109.091 12.163.026 2.651.247 5.302.299 7.965z" fill="#D86C00"/><path d="M684.038 280.916c3.161 8.716 3.119 18.216 3.035 27.492l-.797 87.625c-.042 5.414.266 11.612 4.489 14.984 2.923 2.323 6.923 2.588 10.657 2.742a1247.82 1247.82 0 00187.279-6.421c1.777-.196 3.777-.532 4.769-2.015.924-1.385.574-3.218.224-4.841-2.419-11.431-3.174-23.141-3.916-34.809-1.538-24.233-3.09-48.465-4.629-72.697-.28-4.351-.503-8.968 1.483-12.844.853-1.665 2.125-3.33 1.818-5.176-.504-3.008-4.406-3.68-7.231-4.813-7.51-3.022-9.846-12.536-15.859-17.937-6.182-5.54-15.272-6.002-23.566-6.1-36.026-.419-72.053.462-108.066 1.609-13.789.448-24.824 2.603-33.159 14.313-2.797 3.917-4.853 5.834-9.58 7.317-6.797 2.099-9.72 3.932-6.951 11.571z" fill="#fff"/><path d="M692.975 276.172c6.013-6.002 12.027-12.004 18.027-18.006 1.538-1.539 3.119-3.106 5.091-4.001 2.111-.952 4.489-1.036 6.81-1.106l62.529-1.889c22.909-.685 45.887-1.385 68.711.7 1.888.168 3.818.378 5.51 1.231 2.14 1.092 3.664 3.092 5.091 5.051a333.106 333.106 0 0112.936 19.084l-94.206 54.788-90.499-55.852z" fill="#013507"/><path d="M887.4 404.762c-64.039 3.848-130.61 8.255-194.621 3.778l-1.049-129.178 189.265-1.203c.112-.154-.112 2.294 0 2.14 2.056 41.581 4.349 82.883 6.405 124.463z" fill="#F98E12"/><path d="M884.576 275.444c-1.189 1.539-2.392 3.064-3.594 4.603-.014-.139-.014-.293-.028-.433-.042-.868-131.198.084-143.169.056-9.357-.014-17.161.489-26.517.517-4.811 0-12.167.462-16.978.35-4.126-.098-4.126-2.784-7.133-5.554a2028.889 2028.889 0 01197.419.461zM719.827 291.814l.042 5.821c-.433 1.049-.238 2.896-.308 4.127-.153 2.518-.195 5.009-.181 7.541.014 2.253-.14 4.603.07 6.856-1.119-.014-2.224 0-3.259.028-.462-7.751-.154-15.684-.196-23.463.881-.602 2.266-.854 3.832-.91z" fill="#D86C00"/><path d="M730.806 316.984c-3.455-.546-7.581-.797-11.371-.825-.195-2.253-.056-4.603-.069-6.856-.014-2.518.041-5.023.181-7.541.07-1.231-.126-3.092.308-4.127l-.042-5.821c3.524-.139 8.028.7 10.419.868 1.343 7.793.35 16.355.574 24.302z" fill="#013507"/><path d="M749.197 314.718c0 .335-.014.769-.014 1.231-.574 0-1.133.014-1.679.028-.461-7.751-.154-15.684-.195-23.463.419-.28.937-.476 1.538-.616l.084 13.781c0 3.023.21 6.031.266 9.039z" fill="#D86C00"/><path d="M762.119 316.773c-3.944-.629-8.755-.853-12.937-.825 0-.462.028-.909.014-1.231-.042-3.008-.252-6.016-.279-9.038l-.084-13.781c3.566-.854 9.775.377 12.726.573 1.329 7.807.336 16.37.56 24.302zM778.608 292.317c.056 7.779-.266 15.698.196 23.463 4.517-.112 10.139.084 14.628.798-.224-7.933.769-16.51-.559-24.303-3.441-.223-11.328-1.874-14.265.042z" fill="#013507"/><path d="M824.746 316.382c-.405-.056-.811-.126-1.231-.182-.042-.895-.125-1.79-.153-2.434-.112-2.756-.196-5.512-.336-8.269-.238-4.491-.112-9.038-.098-13.543.462.056.881.098 1.259.112 1.328 7.807.335 16.369.559 24.316z" fill="#D86C00"/><path d="M823.515 316.2c-4.251-.573-9.286-.727-13.398-.629-.461-7.751-.154-15.684-.196-23.463 2.616-1.721 9.189-.588 13.007-.154-.014 4.519-.14 9.066.098 13.543.139 2.757.223 5.513.335 8.269.028.658.112 1.539.154 2.434z" fill="#013507"/><path d="M856.06 316.187a62.734 62.734 0 00-3.958-.476c0-8.059.181-16.104.181-24.176 1.245.154 2.378.293 3.231.349 1.315 7.793.322 16.356.546 24.303z" fill="#D86C00"/><path d="M852.27 291.52c0 8.073-.182 16.104-.182 24.177-3.566-.322-7.399-.392-10.657-.322-.462-7.751-.154-15.684-.21-23.463 2.224-1.441 7.231-.853 11.049-.392zM716.204 328.694c.056 7.779-.265 15.698.196 23.463 4.517-.112 10.14.084 14.629.797-.224-7.932.769-16.509-.559-24.302-3.441-.238-11.329-1.889-14.266.042zM747.518 328.484c.056 7.779-.266 15.698.196 23.463 4.517-.112 10.139.084 14.629.798-.224-7.933.769-16.51-.56-24.303-3.44-.223-11.328-1.874-14.265.042zM778.831 328.288c.056 7.779-.265 15.698.196 23.463 4.518-.112 10.14.084 14.629.797-.224-7.933.769-16.509-.559-24.302-3.441-.224-11.329-1.875-14.266.042zM810.145 328.093c.056 7.779-.266 15.697.196 23.462 4.517-.112 10.139.084 14.628.798-.223-7.933.77-16.509-.559-24.302-3.44-.224-11.328-1.889-14.265.042zM841.459 327.897c.056 7.779-.266 15.698.21 23.463 4.517-.112 10.139.084 14.628.797-.223-7.933.77-16.509-.559-24.302-3.455-.238-11.342-1.889-14.279.042zM716.47 370.597c.056 7.779-.266 15.697.196 23.462 4.517-.111 10.139.084 14.629.798-.224-7.933.769-16.509-.56-24.302-3.44-.224-11.328-1.875-14.265.042zM747.784 370.401c.056 7.779-.266 15.698.196 23.463 4.517-.112 10.139.084 14.629.797-.224-7.933.769-16.509-.56-24.302-3.44-.224-11.328-1.875-14.265.042zM779.097 370.205c.056 7.779-.265 15.698.196 23.463 4.518-.112 10.14.084 14.629.798-.224-7.933.769-16.51-.559-24.303-3.441-.223-11.329-1.888-14.266.042zM810.41 370.009c.056 7.779-.265 15.698.196 23.463 4.518-.112 10.14.084 14.629.797-.224-7.932.769-16.509-.559-24.302-3.441-.238-11.329-1.889-14.266.042zM841.724 369.799c.056 7.779-.266 15.698.21 23.463 4.517-.112 10.139.084 14.628.798-.223-7.933.77-16.51-.559-24.303-3.454-.224-11.342-1.874-14.279.042z" fill="#013507"/><path d="M720.064 327.771l.042 5.82c-.433 1.05-.237 2.896-.307 4.128-.154 2.518-.196 5.008-.182 7.541.014 2.252-.14 4.603.07 6.855-1.119-.014-2.224 0-3.259.028-.461-7.751-.154-15.684-.196-23.463.881-.601 2.252-.853 3.832-.909zM720.33 369.673l.042 5.821c-.433 1.049-.238 2.896-.308 4.127-.153 2.518-.195 5.009-.181 7.541.014 2.252-.14 4.603.07 6.855-1.119-.013-2.224 0-3.259.028-.462-7.75-.154-15.683-.196-23.462.881-.588 2.252-.854 3.832-.91zM856.283 352.157a62.645 62.645 0 00-3.958-.476c0-8.059.182-16.103.182-24.176 1.245.154 2.378.294 3.231.35 1.314 7.793.321 16.355.545 24.302zM856.549 394.074a62.645 62.645 0 00-3.958-.476c0-8.059.182-16.103.182-24.176 1.245.154 2.378.294 3.231.35 1.314 7.793.321 16.355.545 24.302zM824.97 352.226c-.406-.055-.811-.125-1.231-.181-.042-.896-.126-1.791-.154-2.435-.112-2.756-.196-5.512-.335-8.268-.238-4.492-.112-9.039-.098-13.544.461.056.881.098 1.258.112 1.329 7.821.336 16.384.56 24.316zM825.235 394.017c-.406-.055-.811-.125-1.231-.181-.042-.896-.126-1.791-.154-2.435-.112-2.756-.195-5.512-.335-8.268-.238-4.492-.112-9.039-.098-13.544.461.056.881.098 1.259.112 1.328 7.807.335 16.37.559 24.316zM749.42 350.687c0 .336-.014.77-.014 1.232-.573 0-1.133.013-1.678.027-.462-7.75-.154-15.683-.196-23.462.42-.28.937-.476 1.539-.616l.084 13.781c.014 3.022.223 6.03.265 9.038zM749.686 392.605c0 .336-.014.769-.014 1.231-.573 0-1.133.014-1.678.028-.462-7.751-.154-15.684-.196-23.463.419-.28.937-.475 1.538-.615l.084 13.781c.014 3.022.224 6.03.266 9.038z" fill="#D86C00"/><path d="M146.39 150.456c.437 12.497-2.096 24.892-3.493 37.33-1.238 10.982-1.616 22.037-1.907 33.092-.932 35.917-.946 71.849-.946 107.766L140 455.548c0 8.987 1.034 19.794 9.04 23.901 3.697 1.908 8.079 1.806 12.242 1.675a3196.643 3196.643 0 01219.793.524c4.295.161 9.171.102 12.141-3.015 2.664-2.811 2.809-7.107 2.795-10.982-.292-88.19.029-176.366.975-264.557.102-9.802.087-20.114-4.702-28.649-.932-1.646-2.023-3.219-2.649-5.01-.888-2.549-.743-5.317-.583-7.997l.961-16.341c.393-6.744.772-13.648-1.179-20.115-1.951-6.466-6.74-12.496-13.334-13.982-4.745 8.244-7.06 17.857-6.609 27.353a133.622 133.622 0 01-34.165 1.646c-1.513-.117-3.144-.321-4.25-1.369-1.529-1.457-1.412-3.86-1.441-5.957-.102-7.909-4.062-15.672-10.394-20.406-7.249 5.127-10.03 14.638-10.466 23.508-.437 8.87 1.004 17.813-.029 26.625-1.209 10.312-5.779 20.245-5.124 30.601.451 7.34 3.333 15.497-.917 21.483-9.229-13.385-18.458-26.756-27.687-40.141-.845-1.224-1.747-2.491-3.072-3.161-3.668-1.82-7.555 1.879-9.986 5.171-9.724 13.181-19.433 26.362-29.157 39.529-5.823-6.569-2.111-16.691-1.631-25.459.685-12.861-6.434-25.081-6.346-37.957.058-7.588 2.62-15.002 2.576-22.59-.043-7.588-3.974-16.109-11.412-17.58-3.072 7.21-6.143 14.42-9.229 21.615-.524 1.223-1.092 2.505-2.14 3.335-1.296 1.02-3.057 1.165-4.702 1.253l-21.719 1.223c-3.974.219-8.414.291-11.398-2.345-2.751-2.432-3.377-6.423-3.697-10.079-.32-3.656-.626-7.603-2.984-10.414-6.362-7.588-10.743 3.015-12.272 7.924-2.576 8.287-1.15 17.142-.859 25.648z" fill="#FFF2EA"/><path d="M266.019 178.085c.771-1.136 1.805-2.403 3.173-2.33 1.426.058 2.344 1.515 2.999 2.782a167.89 167.89 0 0018.938 28.605c3.741 4.559 7.948 9.482 8.006 15.381.015.859-.087 1.762-.626 2.432-.713.903-1.979 1.093-3.129 1.209-5.75.539-11.529.364-17.294.19l-33.219-1.005c-10.903-.335 1.529-15.847 4.076-20.231a453.94 453.94 0 0117.076-27.033z" fill="#013507"/><path d="M166.159 222.727l-10.059.058c-1.747.015-3.159.569-3.246 1.282-.262 2.156-.524 4.297-.771 6.452-.073.641-.102 1.34.858 1.85 1.165.612 3.305.699 5.197.743 16.726.393 33.51.699 50.207.146 6.827-.219 14.949 0 21.806 0 5.502 0 9.68-.379 15.168-.233 38.867 1.048 74.574-.335 116.731.67 4.221.102 8.487.276 12.592-.146 1.019-.102 1.979-.277 2.591-.626.728-.408.771-.932.786-1.442.087-2.068.16-4.137.247-6.205.015-.524.015-1.092-.728-1.529-1.776-1.049-6.434-.656-8.326-.787-3.581-.233-7.147-.262-10.772-.204-44.311.743-86.569-1.354-129.847-.204-4.92.132-9.826.35-14.746.467-4.833.116-9.666.16-14.513.203-9.957.088-23.174-.553-33.175-.495zM240.296 375.163a812.496 812.496 0 0157.485-.597c5.648.146 12.461.175 15.634-1.398 1.543-.772 1.776-1.733 1.907-2.651.874-5.913-.174-11.841-1.237-17.755-.189-1.048-.422-2.141-2.184-3-2.882-1.427-8.69-1.704-13.799-1.821-20.467-.48-41.036-.451-61.488.088-4.557.116-9.724.379-12.301 1.646-6.58 3.233-1.645 11.113-1.819 15.045-.248 5.302-3.8 11.244 17.802 10.443zM319.951 347.053l-3.071.044c-.539 0-.961.364-.99.816-.073 1.383-.16 2.752-.233 4.136-.029.408-.029.859.262 1.194.349.394 1.004.452 1.587.481 5.109.248 10.233.451 15.328.087 2.082-.145 4.571 0 6.652 0 1.674 0 2.955-.247 4.629-.145 11.864.67 22.767-.219 35.635.437 1.296.058 2.592.174 3.843-.088.306-.073.597-.174.787-.393.218-.262.232-.597.247-.918.029-1.325.044-2.65.073-3.976 0-.335 0-.699-.219-.976-.538-.67-1.965-.422-2.532-.495a19.115 19.115 0 00-3.29-.131c-13.524.466-26.421-.874-39.638-.131-1.5.087-2.999.218-4.499.306-1.47.073-2.955.102-4.425.131-3.071-.015-7.104-.422-10.146-.379z" fill="#D86C00"/><path d="M156.362 347.548l-3.072.044c-.538 0-.96.364-.99.816-.072 1.383-.16 2.752-.233 4.136-.029.408-.029.859.263 1.194.349.394 1.004.452 1.586.481 5.11.248 10.234.452 15.329.088 2.081-.146 4.57 0 6.652 0 1.674 0 2.955-.248 4.629-.146 11.864.67 22.767-.219 35.635.437 1.296.058 2.591.175 3.843-.088.306-.072.597-.174.786-.393.219-.262.233-.597.248-.917.029-1.326.043-2.651.072-3.977 0-.335 0-.699-.218-.975-.539-.67-1.965-.423-2.533-.496a19.212 19.212 0 00-3.29-.131c-13.523.466-26.42-.874-39.638-.131-1.499.088-2.999.219-4.498.306-1.47.073-2.955.102-4.425.131-3.072 0-7.104-.408-10.146-.379zM319.951 143.246l-3.071.044c-.539 0-.961.364-.99.815-.073 1.384-.16 2.753-.233 4.137-.029.408-.029.859.262 1.194.349.393 1.004.452 1.587.481 5.109.247 10.233.451 15.328.087 2.082-.145 4.571 0 6.652 0 1.674 0 2.955-.247 4.629-.145 11.864.67 22.767-.219 35.635.437 1.296.058 2.592.174 3.843-.088.306-.073.597-.175.787-.393.218-.262.232-.597.247-.918.029-1.325.044-2.65.073-3.976 0-.335 0-.699-.219-.976-.538-.67-1.965-.422-2.532-.495a19.015 19.015 0 00-3.29-.131c-13.524.466-26.421-.874-39.638-.131-1.5.087-2.999.218-4.499.306-1.47.073-2.955.102-4.425.131-3.071 0-7.104-.408-10.146-.379zM156.362 143.246l-3.072.044c-.538 0-.96.364-.99.815-.072 1.384-.16 2.753-.233 4.137-.029.408-.029.859.263 1.194.349.393 1.004.452 1.586.481 5.11.247 10.234.451 15.329.087 2.081-.145 4.57 0 6.652 0 1.674 0 2.955-.247 4.629-.145 11.864.67 22.767-.219 35.635.437 1.296.058 2.591.174 3.843-.088.306-.073.597-.175.786-.393.219-.262.233-.597.248-.918.029-1.325.043-2.65.072-3.976 0-.335 0-.699-.218-.976-.539-.67-1.965-.422-2.533-.495a19.01 19.01 0 00-3.29-.131c-13.523.466-26.42-.874-39.638-.131-1.499.087-2.999.218-4.498.306-1.47.073-2.955.102-4.425.131-3.072 0-7.104-.408-10.146-.379z" fill="#D86C00"/><path d="M151.485 136.561c-.044-2.141-.073-4.297.247-6.409.335-2.228 1.078-4.369 1.805-6.51l1.878-5.462c.175-.496.568-1.093 1.048-.903.219.087.35.32.452.524 4.003 8.346 4.032 11.23 4.265 27.178.131 9.263.102 17.332-.32 27.746-.117 2.68.771 5.404.058 7.982-.117.451-.306.918-.684 1.165-.306.219-.699.248-1.078.277-3.158.189-6.332.393-6.9-3.161-.727-4.515-.174-9.642-.247-14.23-.189-9.379-.364-18.788-.524-28.197zM221.78 136.561c.044-2.141.073-4.297-.247-6.409-.335-2.228-1.077-4.369-1.805-6.51l-1.878-5.462c-.175-.496-.568-1.093-1.048-.903-.218.087-.349.32-.451.524-4.003 8.346-4.032 11.23-4.265 27.178-.131 9.263-.102 17.332.32 27.746.116 2.68-.772 5.404-.058 7.982.116.451.305.918.684 1.165.306.219.699.248 1.077.277 3.159.189 6.332.393 6.9-3.161.728-4.515.175-9.642.247-14.23.19-9.379.364-18.788.524-28.197zM314.711 136.561c-.044-2.141-.073-4.297.247-6.409.335-2.228 1.077-4.369 1.805-6.51l1.878-5.462c.175-.496.568-1.093 1.048-.903.218.087.349.32.451.524 4.003 8.346 4.032 11.23 4.265 27.178.131 9.263.102 17.332-.32 27.746-.116 2.68.772 5.404.058 7.982-.116.451-.305.918-.684 1.165-.305.219-.699.248-1.077.277-3.159.189-6.332.393-6.9-3.161-.728-4.515-.175-9.642-.247-14.23a8677.44 8677.44 0 01-.524-28.197zM385.006 136.561c.043-2.141.072-4.297-.248-6.409-.335-2.228-1.077-4.369-1.805-6.51l-1.878-5.462c-.174-.496-.567-1.093-1.048-.903-.218.087-.349.32-.451.524-4.003 8.346-4.032 11.23-4.265 27.178-.131 9.263-.102 17.332.32 27.746.116 2.68-.772 5.404-.058 7.982.116.451.305.918.684 1.165.306.219.699.248 1.077.277 3.159.189 6.332.393 6.9-3.161.728-4.515.175-9.642.248-14.23.203-9.379.363-18.788.524-28.197zM232.261 316.773c.524-16.91 1.266-34.432 8.443-49.536 4.643-9.758 11.878-18.119 20.67-23.828 1.529-1.005 3.145-1.937 4.906-2.301 4.92-1.034 9.608 2.432 13.276 6.059 18.123 17.929 27.818 44.976 25.503 71.12-.131 1.501-.32 3.044-1.019 4.355-1.688 3.161-5.619 3.889-9.039 4.078-16.668.889-33.466-3.146-49.974-.626-1.965.291-3.959.685-5.895.306-4.222-.845-7.002-5.36-6.871-9.627zM164.324 415.887l-.043 54.138c0 .961.043 2.039.698 2.738.699.743 1.849.815 2.883.83a648.243 648.243 0 0039.492-.685c.597-6.597.947-13.224 1.034-19.852.131-10.428.684-20.492 1.368-30.892.248-3.728.481-7.515-.247-11.186-.524-2.636-1.543-5.141-2.548-7.617l-16.856-41.554c-.19-.466-.437-.99-.918-1.121-.742-.204-1.339.626-1.659 1.325-6.609 14.07-13.203 28.154-19.812 42.224-1.878 3.932-3.392 7.268-3.392 11.652zM325.395 415.887l-.043 54.138c0 .961.043 2.039.698 2.738.699.743 1.849.815 2.883.83a648.27 648.27 0 0039.492-.685c.597-6.597.946-13.224 1.034-19.852.131-10.428.684-20.492 1.368-30.892.248-3.728.48-7.515-.247-11.186-.524-2.636-1.543-5.141-2.548-7.617l-16.857-41.554c-.189-.466-.436-.99-.917-1.121-.742-.204-1.339.626-1.659 1.325-6.609 14.07-13.203 28.154-19.812 42.224-1.878 3.932-3.392 7.268-3.392 11.652z" fill="#013507"/><path d="M389.839 198.01l-.102-13.123c-.015-2.272-.859-4.136-1.907-4.238-3.217-.335-6.449-.685-9.666-1.02-.961-.102-2.023-.145-2.78 1.136-.917 1.53-1.048 4.312-1.121 6.788-.597 21.832-1.034 43.767-.219 65.571.335 8.914-.014 19.532 0 28.474.015 7.195.568 12.643.35 19.809-1.572 50.773.495 97.395-1.005 152.451-.145 5.52-.407 11.084.219 16.444.16 1.325.422 2.578.931 3.379.597.946 1.398 1.005 2.155 1.034 3.1.102 6.201.204 9.302.32.786.029 1.644.015 2.3-.946 1.572-2.316.975-8.404 1.164-10.866.349-4.675.408-9.321.32-14.055-1.106-57.881 2.038-113.068.306-169.565-.189-6.423-.509-12.832-.699-19.255-.189-6.306-.233-12.628-.291-18.949-.116-13.079.844-30.339.743-43.389zM311.377 198.01l.102-13.123c.015-2.272.859-4.136 1.907-4.238 3.217-.335 6.449-.685 9.666-1.02.961-.102 2.023-.145 2.78 1.136.917 1.53 1.048 4.312 1.121 6.788.597 21.832 1.034 43.767.218 65.571-.334 8.914.015 19.532 0 28.474-.014 7.195-.567 12.643-.349 19.809 1.572 50.773-.495 97.395 1.004 152.451.146 5.52.408 11.084-.218 16.444-.16 1.325-.422 2.578-.932 3.379-.596.946-1.397 1.005-2.154 1.034-3.101.102-6.201.204-9.302.32-.786.029-1.645.015-2.3-.946-1.572-2.316-.975-8.404-1.164-10.866-.35-4.675-.408-9.321-.321-14.055 1.107-57.881-2.037-113.068-.305-169.565.189-6.423.509-12.832.699-19.255.189-6.306.232-12.628.291-18.949.131-13.079-.83-30.339-.743-43.389zM148.021 198.01l.102-13.123c.014-2.272.859-4.136 1.907-4.238 3.217-.335 6.448-.685 9.665-1.02.961-.102 2.024-.145 2.781 1.136.917 1.53 1.048 4.312 1.121 6.788.596 21.832 1.033 43.767.218 65.571-.335 8.914.014 19.532 0 28.474-.015 7.195-.568 12.643-.349 19.809 1.572 50.773-.495 97.395 1.004 152.451.146 5.52.408 11.084-.218 16.444-.16 1.325-.423 2.578-.932 3.379-.597.946-1.397 1.005-2.154 1.034-3.101.102-6.202.204-9.302.32-.786.029-1.645.015-2.3-.946-1.572-2.316-.975-8.404-1.165-10.866-.349-4.675-.407-9.321-.32-14.055 1.106-57.881-2.038-113.068-.306-169.565.19-6.423.51-12.832.699-19.255.189-6.306.233-12.628.291-18.949.117-13.079-.844-30.339-.742-43.389zM224.837 198.01l-.102-13.123c-.014-2.272-.859-4.136-1.907-4.238-3.217-.335-6.448-.685-9.665-1.02-.961-.102-2.024-.145-2.781 1.136-.917 1.53-1.048 4.312-1.121 6.788-.597 21.832-1.033 43.767-.218 65.571.335 8.914-.015 19.532 0 28.474.015 7.195.568 12.643.349 19.809-1.572 50.773.495 97.395-1.004 152.451-.146 5.52-.408 11.084.218 16.444.16 1.325.422 2.578.932 3.379.597.946 1.397 1.005 2.154 1.034 3.101.102 6.201.204 9.302.32.786.029 1.645.015 2.3-.946 1.572-2.316.975-8.404 1.165-10.866.349-4.675.407-9.321.32-14.055-1.106-57.881 2.038-113.068.306-169.565-.19-6.423-.51-12.832-.699-19.255-.189-6.306-.233-12.628-.291-18.949-.117-13.079.844-30.339.742-43.389z" fill="#F98E12"/><path d="M331.626 250.939a34.15 34.15 0 01.291 8.259c-.073.815-.087 1.791.684 2.243.378.218.844.247 1.31.276 2.897.131 5.808-.029 8.705-.174.51-.03 1.048-.059 1.47-.306.699-.408.83-1.253.888-1.981a52.544 52.544 0 00-.043-8.826c-.059-.656-.19-1.399-.816-1.763-1.586-.947-5.458-.233-7.38-.262-2.591-.058-5.502-.568-5.109 2.534zM205.316 250.939a34.15 34.15 0 00-.291 8.259c.073.815.087 1.791-.684 2.243-.379.218-.844.247-1.31.276-2.897.131-5.808-.029-8.705-.174-.51-.03-1.048-.059-1.47-.306-.699-.408-.83-1.253-.888-1.981a52.544 52.544 0 01.043-8.826c.059-.656.19-1.399.815-1.763 1.587-.947 5.459-.233 7.381-.262 2.576-.058 5.502-.568 5.109 2.534z" fill="#013507"/><path d="M260.326 208.861c-.888-2.767-.451-5.87 1.209-8.331.422-.627.931-1.238 1.615-1.632.655-.393 1.427-.568 2.184-.728 1.805-.393 3.668-.728 5.488-.393 3.988.743 6.521 4.617 6.827 8.346.16 1.908-.16 3.903-1.339 5.476-.801 1.063-1.936 1.879-3.13 2.564-5.648 3.277-11.02.349-12.854-5.302zM243.688 284.308c.058-2.141.379-4.705 2.3-5.637 1.732-.859 3.785.131 5.706.189 1.019.03 2.038-.204 3.072-.16 1.019.044 2.14.466 2.562 1.398.524 1.122.043 2.826 1.15 3.379.466.234 1.019.117 1.528.015a35.018 35.018 0 0115.358.175c1.47.349 3.348.641 4.192-.612.684-1.019.175-2.476.742-3.568.67-1.282 2.402-1.457 3.843-1.457 1.776 0 3.552-.014 5.328-.014.83 0 1.718.014 2.402.495.946.684 1.106 2.024 1.165 3.19.611 11.215.771 22.459.495 33.688-.015.423-.03.874-.292 1.209-.203.277-.538.423-.858.524-3.581 1.282-7.497-.072-11.297-.116-2.299-.029-4.599.422-6.899.408-.583 0-1.165-.029-1.733.116-.48.131-.931.379-1.383.583-1.513.655-3.188.757-4.832.816-4.397.16-8.793.058-13.174-.277-1.238-.088-2.475-.219-3.625-.685-1.237-.51-3.828-1.325-4.76-2.33-1.237-1.326-.713-4.777-.786-6.467a365.023 365.023 0 01-.35-15.978c.03-2.956.073-5.928.146-8.884z" fill="#FFF2EA"/><path d="M195.302 313.918c1.222-3.146 3.901-6.554 7.933-6.568.684 0 1.441.131 1.878.553.364.35.451.845.509 1.296.699 5.273-.262 10.531-.553 15.789-.145 2.651-.16 5.331.32 7.967.379 2.141 1.835 4.981.714 7.107-1.34 2.549-5.241 2.535-7.89 1.413-4.484-1.893-4.091-6.408-4.484-9.991-.625-5.855-.625-11.9 1.573-17.566zM341.306 313.918c-1.223-3.146-3.901-6.554-7.934-6.568-.684 0-1.441.131-1.877.553-.364.35-.452.845-.51 1.296-.699 5.273.262 10.531.553 15.789.146 2.651.16 5.331-.32 7.967-.378 2.141-1.834 4.981-.713 7.107 1.339 2.549 5.24 2.535 7.89 1.413 4.483-1.893 4.09-6.408 4.483-9.991.626-5.855.641-11.9-1.572-17.566z" fill="#D86C00"/><path d="M253.718 327.668a169.25 169.25 0 00-.204 15.628c.044 1.544.058 3.393-.495 4.253-.277.422-.611.48-.932.524-2.096.233-4.177-.044-6.274-.335-.364-.044-.757-.116-1.062-.597-.495-.787-.597-2.36-.641-3.758a256.78 256.78 0 01.029-16.72c.044-1.238.131-2.651.583-3.35 1.15-1.792 3.93-.452 5.313-.496 1.863-.058 3.974-1.019 3.683 4.851zM282.759 327.347c.305 5.17.378 10.428.203 15.628-.043 1.544-.058 3.394.495 4.253.277.422.612.481.932.524 2.096.233 4.178-.043 6.274-.335.364-.043.757-.116 1.063-.597.495-.786.596-2.359.64-3.758.175-5.563.16-11.156-.029-16.72-.044-1.238-.131-2.651-.582-3.35-1.15-1.792-3.931-.452-5.314-.495-1.863-.059-3.959-1.02-3.682 4.85z" fill="#013507"/><path d="M258.726 364.415c-.99-3.073-.495-6.525 1.339-9.249.466-.699 1.033-1.369 1.79-1.82.728-.423 1.587-.627 2.417-.816 1.994-.437 4.076-.816 6.099-.437 4.44.816 7.235 5.141 7.584 9.278.175 2.112-.175 4.34-1.485 6.088-.888 1.18-2.154 2.083-3.479 2.855-6.274 3.626-12.227.364-14.265-5.899z" fill="#FFF2EA"/><path d="M260.428 414.97c-.888-2.768-.451-5.87 1.209-8.331.422-.627.931-1.238 1.615-1.632.655-.393 1.427-.568 2.184-.728 1.805-.393 3.668-.728 5.488-.393 3.988.743 6.521 4.617 6.827 8.346.16 1.908-.16 3.903-1.339 5.476-.801 1.063-1.936 1.879-3.13 2.563-5.663 3.278-11.034.35-12.854-5.301z" fill="#013507"/><path d="M337.157 445.293c.787 7.414.976 14.929.539 22.387-.131 2.199-.16 4.85 1.252 6.088.684.597 1.558.684 2.387.743 5.313.335 10.627-.073 15.925-.481.932-.073 1.922-.16 2.693-.845 1.281-1.121 1.529-3.379 1.631-5.374.436-7.967.407-15.978-.073-23.945-.102-1.777-.335-3.787-1.485-4.792-2.911-2.563-9.971-.641-13.509-.714-4.76-.102-10.087-1.485-9.36 6.933z" fill="#D86C00"/><path d="M348.57 446.954a314.215 314.215 0 00-.189 19.954c.044 1.966.058 4.326-.437 5.418-.233.539-.538.612-.83.656-1.834.306-3.668-.059-5.502-.423-.32-.058-.67-.145-.932-.757-.436-1.005-.524-3.015-.567-4.792a472.837 472.837 0 01.029-21.338c.043-1.587.116-3.379.509-4.267 1.005-2.287 3.45-.568 4.658-.626 1.674-.088 3.509-1.311 3.261 6.175zM350.768 446.721c.291 6.656.349 13.429.189 20.129-.043 1.98-.058 4.369.466 5.476.247.539.568.626.873.67 1.951.306 3.887-.058 5.838-.437.349-.058.698-.146.99-.757.465-1.005.553-3.044.596-4.836a461.17 461.17 0 00-.029-21.527c-.043-1.602-.131-3.408-.538-4.311-1.063-2.301-3.654-.568-4.95-.641-1.746-.073-3.697-1.325-3.435 6.234z" fill="#F98E12"/><path d="M174.601 445.293c.786 7.414.976 14.929.539 22.387-.131 2.199-.16 4.85 1.252 6.088.684.597 1.557.684 2.387.743 5.313.335 10.626-.073 15.925-.481.932-.073 1.922-.16 2.693-.845 1.281-1.121 1.529-3.379 1.631-5.374.436-7.967.407-15.978-.073-23.945-.102-1.777-.335-3.787-1.485-4.792-2.911-2.563-9.971-.641-13.509-.714-4.745-.102-10.073-1.485-9.36 6.933z" fill="#D86C00"/><path d="M186.145 446.983a284.28 284.28 0 00-.189 19.94c.043 1.966.058 4.326-.466 5.418-.248.539-.568.612-.874.655-1.965.306-3.916-.058-5.881-.422-.349-.058-.713-.146-.99-.757-.465-1.005-.567-3.015-.596-4.792-.16-7.093-.146-14.23.029-21.323.043-1.588.131-3.379.553-4.268 1.077-2.286 3.683-.568 4.978-.626 1.733-.087 3.698-1.325 3.436 6.175zM188.241 446.983c.277 6.598.35 13.298.19 19.94-.044 1.966-.059 4.326.451 5.418.247.539.553.612.844.655 1.878.306 3.756-.058 5.634-.422.334-.058.684-.146.96-.757.452-1.005.539-3.015.583-4.792.16-7.093.145-14.23-.029-21.323-.044-1.588-.117-3.379-.525-4.268-1.033-2.286-3.522-.568-4.774-.626-1.703-.087-3.581-1.325-3.334 6.175z" fill="#F98E12"/><path d="M252.83 437.094a179.136 179.136 0 01.684 29.436c-.175 2.898-.204 6.379 1.63 8.01.888.787 2.024.903 3.101.976 6.9.452 13.814-.087 20.714-.641 1.208-.102 2.504-.218 3.508-1.121 1.66-1.471 1.98-4.443 2.126-7.064a277.284 277.284 0 00-.102-31.49c-.146-2.33-.451-4.981-1.922-6.292-3.784-3.364-12.97-.844-17.555-.932-6.187-.116-13.116-1.951-12.184 9.118z" fill="#D86C00"/><path d="M266.979 438.929a424.695 424.695 0 00-.248 26.552c.059 2.607.073 5.753-.567 7.224-.306.713-.714.815-1.078.874-2.416.407-4.818-.088-7.234-.568-.422-.088-.874-.204-1.223-1.005-.582-1.326-.699-4.006-.742-6.38-.19-9.452-.19-18.949.029-28.401.043-2.112.16-4.486.669-5.681 1.325-3.044 4.527-.757 6.129-.844 2.169-.102 4.6-1.748 4.265 8.229zM270.211 438.929c.364 8.782.437 17.711.247 26.552-.058 2.607-.072 5.753.568 7.224.306.713.713.815 1.077.874 2.417.407 4.833-.088 7.25-.568.422-.088.873-.204 1.222-1.005.583-1.326.699-4.006.743-6.38.204-9.452.189-18.949-.029-28.401-.044-2.112-.161-4.486-.67-5.681-1.325-3.044-4.527-.757-6.143-.844-2.169-.102-4.585-1.748-4.265 8.229z" fill="#F98E12"/><path d="M177.906 426.155c.16-4.704.378-9.584 2.489-13.793a16.649 16.649 0 016.099-6.642c.451-.276.932-.538 1.441-.64 1.456-.292 2.839.684 3.916 1.689 5.342 4.996 8.21 12.526 7.526 19.808-.044.423-.088.845-.306 1.209-.495.874-1.659 1.078-2.664 1.136-4.92.248-9.869-.874-14.731-.174-.583.087-1.165.189-1.733.087-1.251-.233-2.067-1.486-2.037-2.68zM338.249 426.155c.16-4.704.379-9.584 2.489-13.793a16.658 16.658 0 016.1-6.642c.451-.276.931-.538 1.441-.64 1.456-.292 2.839.684 3.916 1.689 5.342 4.996 8.21 12.526 7.526 19.808-.044.423-.088.845-.306 1.209-.495.874-1.66 1.078-2.664 1.136-4.92.248-9.87-.874-14.732-.174-.582.087-1.164.189-1.732.087-1.252-.233-2.067-1.486-2.038-2.68z" fill="#FFF2EA"/><path d="M224.095 446.852c-.088-4.34-.175-8.695-.175-13.036-.015-3.481.029-6.976.742-10.384 1.849-8.827 7.978-16.051 13.873-22.867 6.653-7.676 13.654-15.614 23-19.59 1.616-.685 3.29-1.253 5.036-1.442 5.095-.554 9.943 2.155 14.15 5.083a98.012 98.012 0 0124.717 24.906c1.922 2.796 3.712 5.724 4.702 8.957 1.135 3.7 1.179 7.632 1.223 11.492.073 6.991.131 13.983.204 20.959.072 7.035.131 14.084.203 21.119.015.801 0 1.632-.364 2.331-1.004 1.864-4.046 1.471-5.327-.204-1.281-1.675-1.31-3.976-1.281-6.088l.611-42.705c.029-1.733.044-3.495-.408-5.185-.567-2.112-1.834-3.962-3.129-5.724a100.39 100.39 0 00-25.46-24.076c-1.645-1.078-3.348-2.126-5.255-2.621-4.091-1.049-8.385.64-11.966 2.869-6.23 3.874-11.252 9.351-16.187 14.769-3.872 4.238-7.832 8.608-9.855 13.982-2.052 5.433-1.936 11.404-1.805 17.201.262 11.157.975 22.416.786 33.572-.044 2.913-1.295 4.88-4.629 4.122-4.047-.903-2.984-5.36-3.057-8.578l-.349-18.862z" fill="#013507"/><path d="M163.713 474.074l-10.816.029c-1.878 0-3.406.277-3.493.612l-.83 3.102c-.087.306-.117.641.932.889 1.251.291 3.551.335 5.589.364 17.978.189 36.043.335 53.992.073 7.336-.102 16.085 0 23.451 0 5.924 0 10.408-.189 16.318-.117 41.807.496 80.208-.16 125.552.321 4.542.043 9.127.131 13.538-.073 1.092-.044 2.125-.131 2.78-.306.786-.189.83-.451.845-.684.087-.991.174-1.996.262-2.986.029-.248.014-.525-.772-.743-1.907-.51-6.929-.321-8.952-.379-3.858-.116-7.686-.131-11.573-.102-47.673.35-93.12-.655-139.658-.102-5.284.059-10.568.161-15.852.219-5.197.058-10.408.073-15.605.102-10.758.058-24.965-.248-35.708-.219z" fill="#FFF2EA"/><path d="M256.091 287.716a280.353 280.353 0 00-.218 21.017c.058 2.068.072 4.559-.524 5.709-.291.568-.655.641-1.005.699-2.242.321-4.483-.072-6.71-.451-.393-.073-.816-.16-1.136-.801-.538-1.049-.64-3.175-.684-5.04a428.414 428.414 0 01.029-22.473c.044-1.661.146-3.554.626-4.501 1.223-2.403 4.207-.597 5.692-.67 1.979-.087 4.236-1.398 3.93 6.511zM281.754 288.371c.291 6.962.364 14.012.204 21.018-.044 2.068-.058 4.558.466 5.709.262.568.582.641.902.699 1.995.321 4.003-.073 5.998-.451.349-.073.728-.161 1.019-.801.48-1.049.567-3.176.611-5.04.16-7.486.146-15.002-.029-22.474-.044-1.66-.131-3.553-.553-4.5-1.092-2.403-3.756-.597-5.08-.67-1.806-.087-3.814-1.384-3.538 6.51zM262.539 314.486c4.105-.903 8.283-1.122 12.417-.612 1.223.146 2.693.175 3.377-1.442.335-.786.379-1.791.408-2.753.189-6.117-.044-12.234-.262-18.351-.044-1.078-.088-2.214-.466-3.103-.626-1.471-1.878-1.762-2.984-1.879a56.334 56.334 0 00-13.291.088c-.989.131-2.096.67-2.663 1.704-.845 1.558-.568 11.171-.612 15.235-.043 5.476-.597 11.943 4.076 11.113z" fill="#F98E12"/><path d="M246.629 326.808c14.6-.32 29.419-.393 44.121-.218 4.338.058 9.564.058 11.995-.51 1.179-.277 1.354-.626 1.47-.961.67-2.156-.145-4.311-.946-6.452-.145-.379-.335-.772-1.674-1.093-2.212-.51-6.667-.626-10.597-.67a2039.56 2039.56 0 00-47.193.029c-3.494.044-7.439.233-9.433.597-3.013.554-2.023 3.933-2.155 5.36-.203 1.938-2.168 4.21 14.412 3.918zM364.393 191.194a153.086 153.086 0 00-.597 25.183c.146 2.476.175 5.461-1.427 6.845-.771.67-1.761.772-2.693.83-5.997.379-12.009-.072-18.006-.539-1.063-.087-2.169-.189-3.043-.961-1.441-1.267-1.732-3.801-1.848-6.044a234.25 234.25 0 01.087-26.945c.116-1.996.393-4.268 1.674-5.389 3.29-2.884 11.267-.714 15.255-.801 5.401-.088 11.413-1.646 10.598 7.821z" fill="#D86C00"/><path d="M351.598 193.233c.276 6.496.335 13.094.189 19.634-.044 1.937-.058 4.253.437 5.33.247.525.553.612.844.656 1.863.306 3.741-.059 5.619-.423.335-.058.67-.145.946-.742.451-.991.539-2.972.582-4.705.146-6.991.146-14.011-.029-20.988-.043-1.558-.116-3.321-.524-4.195-1.019-2.243-3.508-.553-4.76-.626-1.688-.102-3.566-1.311-3.304 6.059zM349.094 193.131a291.14 291.14 0 00-.189 19.852c.044 1.952.058 4.297-.451 5.404-.248.539-.568.611-.874.655-1.936.306-3.872-.058-5.808-.422-.335-.058-.699-.146-.975-.758-.466-.99-.553-3-.597-4.762-.16-7.064-.146-14.172.029-21.236.044-1.573.131-3.364.539-4.253 1.062-2.272 3.624-.568 4.92-.626 1.718-.088 3.668-1.311 3.406 6.146z" fill="#F98E12"/><path d="M172.491 191.194a153.086 153.086 0 01.597 25.183c-.146 2.476-.175 5.461 1.426 6.845.772.67 1.762.772 2.693.83 5.998.379 12.01-.072 18.007-.539 1.063-.087 2.169-.189 3.043-.961 1.441-1.267 1.732-3.801 1.848-6.044a234.25 234.25 0 00-.087-26.945c-.117-1.996-.393-4.268-1.674-5.389-3.29-2.884-11.267-.714-15.256-.801-5.386-.088-11.412-1.646-10.597 7.821z" fill="#D86C00"/><path d="M185.286 193.233a305.035 305.035 0 00-.189 19.634c.044 1.937.058 4.253-.437 5.33-.247.525-.553.612-.844.656-1.863.306-3.741-.059-5.619-.423-.335-.058-.669-.145-.946-.742-.451-.991-.539-2.972-.582-4.705a457.455 457.455 0 01.029-20.988c.044-1.558.116-3.321.524-4.195 1.019-2.243 3.508-.553 4.76-.626 1.689-.102 3.566-1.311 3.304 6.059zM187.805 193.131c.291 6.569.349 13.24.189 19.852-.044 1.952-.058 4.297.451 5.404.248.539.568.611.874.655 1.936.306 3.872-.058 5.808-.422.335-.058.699-.146.975-.758.466-.99.553-3 .597-4.762.16-7.064.146-14.172-.029-21.236-.044-1.573-.131-3.364-.539-4.253-1.062-2.272-3.624-.568-4.92-.626-1.732-.088-3.668-1.311-3.406 6.146z" fill="#F98E12"/><path fill-rule="evenodd" clip-rule="evenodd" d="M1189.99 627.079c61.88-11.229 146.52-26.587 163.68-104.155.37-1.4.66-2.811.86-4.227.1-.547.19-1.096.29-1.649.25-1.454.24-2.805-.01-4.06-.39-10.332-5.74-20.518-16.68-28.296-2.92-2.099-6.17-3.962-9.65-5.633-17.36-8.397-40.66-11.942-62.69-14.877-311.676-41.491-633.584-53.893-951.252-36.639-52.637 2.859-107.026 6.897-152.312 23.648-17.884 6.619-33.97 15.755-46.092 26.347-12.473 10.854-20.82 23.232-22.77 35.967l-.438-.013c-16.708 24.88.323 63.276 45.908 78.452 91.954 38.675 227.258 42.498 351.224 44.298l201.491 2.922 201.77 2.925c98.43 1.425 200.021 2.614 291.691-14.105l4.98-.905z" fill="#FFF2EA"/><g clip-path="url(#prefix__clip0)"><path d="M1164.82 616.36c-87.69 14.779-184.86 13.728-279.007 12.469l-385.715-5.169c-118.571-1.591-247.988-4.971-335.94-39.158-43.602-13.415-59.892-47.356-43.911-69.349 330.805 9.297 659.405 15.309 989.483 2.054 50.54-2.026 223.94-33.732 217.5 1.089-13.84 75.02-101.46 87.792-162.41 98.064z" fill="#666"/><path d="M1324.32 528.208c-4.21 8.786-12.41 16.748-22.79 23.735-5.11 3.465-10.78 6.684-16.78 9.648-53.56 26.49-128.46 32.946-199.11 37.055a6015.34 6015.34 0 01-349.964 10.093c-53.653-.01-107.571.028-160.828-3.437-46.82-3.049-93.816 1.032-141.122.095-60.795-1.203-121.37-6.429-180.028-15.622-43.425-6.816-90.223-18.49-115.286-38.352-7.319-5.776-12.786-12.251-15.783-19.503-7.01-16.9 2.006-34.225 19.817-48.55 11.594-9.363 26.981-17.439 44.086-23.29 43.315-14.807 95.338-18.376 145.685-20.904 303.845-15.252 611.747-4.289 909.863 32.388 21.07 2.594 43.36 5.728 59.96 13.151 3.32 1.477 6.43 3.124 9.23 4.979 15.68 10.301 19.36 25.383 13.05 38.514z" fill="#999"/><path d="M1324.32 528.208c-4.21 8.786-12.41 16.748-22.79 23.735-87.6-.038-175.2 5.15-262.8 5.823-233.859 1.808-467.739.473-701.597.369-66.24-.029-132.481-6.684-198.721-6.713-7.318-5.775-12.785-12.251-15.783-19.503-5.511-13.292-1.102-26.849 9.699-38.996 2.91-3.304 6.304-6.495 10.118-9.553 83.236-.757 167.353.881 250.258.9 211.484.056 422.99-2.737 634.476-2.68 19.86 0 177.51 3.106 274.86 3.124 3.33 1.477 6.43 3.125 9.23 4.98 2.19 1.43 4.13 2.954 5.82 4.554 10.69 9.903 12.66 22.656 7.23 33.96z" fill="#666"/><path d="M1324.32 528.208c-4.21 8.786-12.41 16.748-22.79 23.735-87.6-.038-175.2 5.151-262.8 5.823-233.859 1.808-467.739.473-701.597.369-66.24-.028-132.481-6.684-198.721-6.712-7.318-5.776-12.785-12.251-15.783-19.503-5.511-13.293-1.102-26.85 9.699-38.997 73.581.057 147.448 1.07 220.5 1.089 236.966.057 473.954-2.736 710.922-2.68 18.8 0 147.98 2.216 253.34 2.916 10.69 9.903 12.66 22.656 7.23 33.96z" fill="#CCC"/><path d="M259.032 529.496c48.363.019 96.704.029 145.067.048-1.124-3.948-2.226-7.896-3.351-11.844-31.654-2.358-63.903-3.229-95.998-2.604-9.06.171-39.127-.767-45.652 2.026-2.711 1.136.771 12.374-.066 12.374z" fill="#FFF2EA"/><path d="M619.838 529.496c48.363.019 96.704.029 145.067.048-1.124-3.948-2.226-7.896-3.35-11.844-31.654-2.358-63.904-3.229-95.999-2.604-9.06.171-39.127-.767-45.652 2.026-2.689 1.136.794 12.374-.066 12.374zM980.665 529.496c48.365.019 96.705.029 145.065.048-1.12-3.948-2.22-7.896-3.35-11.844-31.65-2.358-63.9-3.229-96-2.604-9.06.171-39.124-.767-45.649 2.026-2.689 1.136.794 12.374-.066 12.374z" fill="#fff"/></g><path d="M1264.53 487.373H1258.42v-3.669c0-13.99.15-28.247.35-40.697-.3-.15-.66-.31-1-.46-1.22-.535-2.64-1.187-4.01-2.257-2.98-2.331-6-6.267-9.21-12-5.08-9.092-4.47-18.226-3.86-27.018.53-7.573 1.03-14.717-2.26-21.253-1.87-3.711-4.51-6.995-7.29-10.471-3.33-4.171-6.77-8.449-9.14-13.755-3.51-7.947-8.4-23.242-1.56-36.536 3.9-7.605 9.7-12.803 15.33-17.852.88-.759 1.76-1.561 2.64-2.374 3.02-2.792 5.39-6.225 7.87-9.894 1.8-2.631 3.63-5.316 5.78-7.829 7.75-9.092 18-14.643 28.13-15.252 8.3-.503 16.1 2.406 22.55 8.332 5.34 4.963 9.08 12.343 9.92 19.755.49 4.353-.64 7.07-1.64 9.476-.47 1.145-.91 2.214-1.26 3.551-1.95 7.798-.13 15.67 1.83 24.034 2.73 11.69 5.54 23.777-2.18 36.045-1.13 1.871-2.4 3.476-3.58 5.048-2.26 2.941-4.21 5.508-5.28 9.017-1.41 4.695-2.22 9.551-3.07 14.674-.77 4.664-1.56 9.477-2.84 14.183-1.16 4.128-2.8 7.797-4.36 11.316-1.46 3.252-2.83 6.343-3.79 9.669-.12.385-.24.759-.31 1.187-.88 3.209-2.07 7.648-5.73 10.161-2.34 1.605-6.15 2.749-9.6 3.359-.07 4.781-.07 9.626-.07 14.332v5.23c0 2.642.31 5.199.65 7.915.42 3.327.8 6.803.65 10.471l-.15 3.327-3.32.15c-1.44.085-2.77.085-4.08.085zM1282 273.275c-.46 0-.92 0-1.42.032-8.02.46-16.62 5.241-23 12.686-1.87 2.214-3.52 4.62-5.27 7.219-2.6 3.862-5.32 7.83-8.99 11.156-.88.845-1.8 1.647-2.67 2.449-5.35 4.814-10.4 9.359-13.68 15.787-2.33 4.546-5.2 14.483 1.75 30.237 1.99 4.428 4.96 8.183 8.14 12.119 2.91 3.626 5.88 7.337 8.1 11.733 4.2 8.332 3.62 16.857 3.06 25.071-.58 8.107-1.12 15.744 2.9 22.932 2.71 4.813 5.15 8.096 7.33 9.819.69.534 1.53.919 2.48 1.337 1.27.566 2.68 1.219 4.01 2.331l.92.76 1.27-.075c3.47-.193 7.75-1.455 9.21-2.482 1.45-.994 2.18-3.668 2.82-6.043.12-.417.22-.877.34-1.262 1.11-3.861 2.68-7.305 4.16-10.664 1.53-3.444 2.99-6.685 3.98-10.246 1.19-4.353 1.95-8.985 2.72-13.456.83-5.123 1.75-10.396 3.25-15.551 1.42-4.813 3.97-8.183 6.47-11.391 1.13-1.487 2.2-2.899 3.19-4.471 6.08-9.669 3.71-19.755 1.24-30.462-2.08-8.867-4.21-18.001-1.81-27.52.47-1.872 1.06-3.284 1.6-4.546.89-2.107 1.42-3.358 1.12-5.85-.64-5.69-3.49-11.391-7.6-15.21-4.54-4.267-9.82-6.439-15.62-6.439z" fill="#fff"/><path d="M1262.09 483.705c0-33.061.88-66.122.88-99.215 0-6.503-1.03-13.754 0-20.14.57-3.519-.31-2.481 2.67-3.594 1.49-.534 4.13-.652 5.78-.385.99 21.06-.08 42.848-2.87 63.63-1.79 13.53-1.53 27.745-1.57 41.392 0 6.193 1.57 12.001 1.26 18.226-1.99.118-4.08.086-6.15.086z" fill="#16351C"/><path d="M1263.65 442.344c-1.87-2.792-5-2.91-7.6-4.931-3.28-2.599-6.27-7.337-8.26-10.931-8.86-15.787 1.72-32.836-6.04-48.121-4.35-8.631-12.27-14.867-16.35-24.033-4.59-10.279-7-23.049-1.68-33.36 4.16-8.097 10.69-13.295 17.15-19.221 5.66-5.198 8.99-12.268 13.92-18.075 11.61-13.648 30.88-20.066 45.4-6.578 4.78 4.438 8.02 11.006 8.76 17.466.57 5.198-1.6 7.07-2.79 11.733-5.05 19.991 12.28 39.671.13 59.009-3.27 5.198-7.48 8.749-9.31 14.985-2.77 9.401-3.36 19.413-5.96 28.932-2.06 7.53-6.04 13.573-8.14 20.942-.92 3.134-1.67 7.305-4.62 9.327-2.91 2.021-10.85 3.818-14.61 2.856z" fill="#2C8354"/><path d="M1264.19 442.729c-.23 0-.42-.043-.65-.118-1.03-.299-1.65-1.337-1.49-2.406 3.48-21.52.27-41.158-9.74-60.079-1.34-2.524-2.49-5.123-3.6-7.604-1.07-2.45-2.18-4.974-3.44-7.338-1-1.871-2.14-3.786-3.33-5.775-2.18-3.669-4.43-7.487-5.96-11.349-1.14-2.866-1.33-6.118-1.53-9.251-.15-2.375-.31-4.589-.84-6.386-.34-1.144.3-2.374 1.45-2.674 1.15-.342 2.37.31 2.68 1.455.68 2.257.83 4.856.99 7.337.2 2.792.34 5.69 1.26 7.915 1.42 3.551 3.56 7.188 5.66 10.739 1.15 1.946 2.38 3.979 3.4 5.968 1.34 2.524 2.49 5.123 3.6 7.605 1.07 2.449 2.18 4.973 3.43 7.337 7 13.22 10.81 27.178 11.47 41.692.46-3.626.76-7.572.92-11.808.31-8.867-2.02-18.044-4.25-26.943-1.8-7.112-3.63-14.45-4.2-21.787-.88-11.316.31-23.852 3.32-35.275 3.45-12.92 9.06-23.766 16.24-31.296.84-.877 2.18-.92 3.06-.075.88.835.92 2.182.07 3.059-14.82 15.595-19.91 43.725-18.38 63.255.53 6.953 2.37 14.14 4.08 21.06 2.29 9.177 4.7 18.654 4.4 28.13-.5 14.183-2.67 25.071-6.69 33.403-.33.749-1.13 1.209-1.93 1.209z" fill="#16351C"/><path d="M1264.04 444.184c-.65 0-1.26-.268-1.72-.835-.73-.951-.58-2.288.34-3.016 7.04-5.54 11.85-9.829 14.6-18.493 2.67-8.567 1.5-16.781.27-25.456-.27-1.946-.57-3.936-.81-5.968-1.02-8.45-1.53-18.194 2.68-26.558 2.98-5.968 7.91-10.589 12.73-15.059 1.48-1.412 2.92-2.717 4.24-4.086.85-.845 2.2-.845 3.05 0 .84.845.84 2.214 0 3.059-1.41 1.412-2.9 2.824-4.35 4.16-4.51 4.204-9.17 8.568-11.81 13.841-3.67 7.337-3.18 16.279-2.26 24.076.23 1.947.54 3.936.8 5.851 1.27 8.792 2.56 17.883-.41 27.36-3.09 9.861-8.6 14.749-16.06 20.6-.37.374-.83.524-1.29.524z" fill="#16351C"/><g clip-path="url(#prefix__clip1)"><path d="M1021.19 483.327c1.52.594 2.98.297 4.36-.329.64-.297 1.25-.656 1.81-1.063 3.2-2.313 4.9-6.175 4.87-10.114-.01-1.876-.01-3.768-.03-5.644 0-.969.03-3.643.59-4.424.74-1.032 2.14-1.22 3.38-1.329l6.41-.5c12.97-.985 25.91-.032 38.9-.344 1.35-.032 2.8-.032 3.86.813 1.92 1.532 1.36 4.58 1.06 7.081-.45 3.721.22 7.864 3.53 10.053 1.94 1.297 4.61 1.141 6.32-.438 2.71-2.501 2.66-6.472 2.49-10.287-.05-.906-.1-1.86.28-2.689.61-1.344 2.07-3.33 4.76-3.33 20.14 0 39.6-1.782 59.71-.578.56.031 1.16.078 1.67.313 1.32.594 1.85 2.251 1.83 3.736-.02 1.485-.42 2.939-.34 4.424.14 2.799 2.31 5.425 4.99 5.722 2.69.297 5.47-2.095 5.39-4.893-.03-.86-.28-1.689-.28-2.548 0-.86.39-1.798 1.17-2.064.47-.156.97-.047 1.44.063l4.17.984c.42.094.84.204 1.18.469.49.376.72 1.017.86 1.642.86 3.939-1.12 8.583 1.49 11.74 1.62 1.97 4.57 2.33 6.6.813 2.16-1.61 2.36-4.236 2.47-6.691.58-11.787.78-23.606.61-35.409-.36-25.748-2.14-51.246-2.28-76.994-.06-11.49.09-23.059-1.94-34.361-.33-1.814-.7-3.752-.03-5.472 1.22-3.142 5.53-4.471 5.64-8.082.04-1.783-1.02-3.377-2.5-4.315-2.36-1.501-5.15-1.36-7.81-1.188-24.39 1.563-48.87 4.017-73.2 1.579-15.02.125-30.51.14-45.52.281-2.45.016-6.45.188-8.89.375-3.01.219-6.9.485-9.44.532-19.1.391-41.57-.469-41.57-.469-11.009-.125-9.2-.266-18.223-.25-.281 0-.578-.016-.843-.047-1.187-.157-4.81-.407-6.293 1.532-1.218 1.579-1.359 3.752-.297 5.456.203.312 3.841 4.424 4.06 4.721 5.746 7.692 2.53 16.196 2.092 26.686-.562 12.976-2.108 24.294-2.326 36.691-.203 12.241-.516 18.338-1.14 28.906-.281 4.581-.359 9.177-.281 13.757.203 10.318.125 20.136-.968 30.188-.75 6.816.64 13.054 1.624 19.901.031.266.078.532.125.813.858 5.284 7.479 7.223 10.961 3.174 1.265-1.47 1.874-3.018 2.589-6.754.78-4.033.66-8.145 1.6-9.474 1.6-2.298 6.45-3.314 9.96-3.955 4.12-.75 5.09-4.111 5.96 9.208.25 3.721.6 8.88 1.44 10.631 0 0 .78 1.297 1.95 1.751z" fill="#FFF2EA"/><path d="M1187.42 327.714c1.07 1.766 1.17 3.924 1.23 5.987l3.75 124.425c.03.922.03 1.907-.52 2.658-.97 1.297-2.93 1.032-4.5.625-2.79-.719-5.59-1.423-8.38-2.142-2.5-.641-5.15-1.36-6.89-3.283-2.14-2.376-2.29-5.878-2.32-9.083-.38-36.831-.75-73.648-1.14-110.48-.02-1.923.03-4.033 1.32-5.44.92-1.001 2.28-1.438 3.58-1.829 1.51-.469 13.87-6.582 13.87-1.438zM1084.79 335.734l2.55 109.917c.03 1.282 0 2.704-.95 3.658-.97.969-2.58 1.126-4.05 1.219a764.56 764.56 0 01-58.06 1.345c-.59-.016-1.2-.016-1.75-.219-1.71-.61-2.1-2.595-2.21-4.252-1.52-21.293-.11-42.648.04-63.987a544.5 544.5 0 00-1.68-46.759c-.06-.86-.1-1.845.58-2.47.54-.5 1.4-.61 2.2-.672 12.82-1.126 25.89-2.142 38.79-2.001 3.99.046 7.76.969 11.71 1.188 4.17.234 12.71-2.58 12.83 3.033z" fill="#F98E12"/><path d="M1162.01 335.734c.89 36.644 1.78 73.288 2.69 109.917.03 1.282 0 2.704-1 3.658-1.03.969-2.72 1.126-4.27 1.219a848.707 848.707 0 01-61.16 1.345c-.63-.016-1.27-.016-1.84-.219-1.82-.61-2.22-2.595-2.35-4.252-1.59-21.293-.11-42.648.05-63.987.11-15.602-.48-31.204-1.78-46.759-.08-.86-.09-1.845.61-2.47.58-.5 1.48-.61 2.31-.672 13.51-1.126 27.28-2.142 40.87-2.001 4.2.046 8.18.969 12.33 1.188 4.4.234 13.4-2.58 13.54 3.033zM1190.99 472.79c0 .657-.03 1.36-.45 1.86-.59.688-1.75.641-2.45.047-.71-.578-.99-1.532-1.05-2.439-.12-2.016-1.08-7.066 2.02-7.113 3.29-.047 1.95 5.581 1.93 7.645z" fill="#D86C00"/><path d="M1172.81 467.35c0 .766-.03 1.61-.45 2.188-.59.829-1.75.751-2.45.063-.7-.688-.98-1.814-1.05-2.892-.12-2.392-1.07-8.364 2.02-8.427 3.29-.046 1.95 6.629 1.93 9.068zM1094.26 469.288c0 .938-.04 1.955-.46 2.658-.59 1.001-1.75.907-2.45.078-.7-.844-.98-2.188-1.05-3.502-.12-2.907-1.07-10.146 2.02-10.208 3.29-.094 1.95 8.004 1.94 10.974z" fill="#F98E12"/><path d="M1025.69 472.806c0 1.235-.03 2.579-.45 3.517-.6 1.313-1.75 1.204-2.46.094-.7-1.11-.98-2.908-1.04-4.628-.13-3.83-1.08-13.397 2.01-13.491 3.3-.094 1.95 10.599 1.94 14.508zM1193.05 315.723c.56.797-.51 1.72-1.4 2.095-4.83 2.079-9.65 4.158-14.49 6.222-2.72 1.172-5.45 2.345-8.33 2.955-3.29.703-6.7.672-10.08.625-23.61-.297-47.21-.594-70.82-.563-21.42.031-42.86.313-64.29.876-.85.015-1.73.031-2.51-.313-1.58-.719-2.14-2.673-2.15-4.409-.02-.781.04-1.579.06-2.376.04-1.938 1.43-3.564 3.34-3.846 3.15-.453 6.51 0 9.73.282 8.37.734 16.77.125 25.15-.329 19.18-1.063 38.37-1.344 57.58-1.266 17.42.063 35.18 1.579 52.57.407 3.34-.219 6.67-.501 10.01-.579 2.11-.031 14.54-1.329 15.63.219zM995.474 327.714c-1.077 1.766-1.171 3.924-1.234 5.987l-3.747 124.425c-.031.922-.031 1.907.515 2.658.968 1.297 2.936 1.032 4.497.625 2.795-.719 5.595-1.423 8.385-2.142 2.5-.641 5.15-1.36 6.89-3.283 2.14-2.376 2.29-5.878 2.32-9.083.38-36.831.75-73.648 1.14-110.48.02-1.923-.03-4.033-1.32-5.44-.93-1.001-2.28-1.438-3.58-1.829-1.51-.469-13.866-6.582-13.866-1.438z" fill="#D86C00"/><path d="M991.899 472.79c0 .657.031 1.36.452 1.86.594.688 1.749.641 2.452.047.703-.578.984-1.532 1.046-2.439.125-2.016 1.078-7.066-2.014-7.113-3.295-.047-1.952 5.581-1.936 7.645z" fill="#F98E12"/><path d="M989.837 315.723c-.562.797.515 1.719 1.405 2.095 4.825 2.079 9.648 4.158 14.488 6.222 2.72 1.172 5.45 2.345 8.33 2.954 3.29.704 6.69.672 10.08.626 23.61-.297 47.21-.594 70.82-.563 21.42.031 42.86.312 64.29.875.85.016 1.73.032 2.51-.312 1.58-.72 2.14-2.674 2.15-4.409.02-.782-.04-1.579-.06-2.376-.04-1.939-1.43-3.565-3.34-3.846-3.15-.453-6.51 0-9.73.281-8.37.735-16.77.125-25.15-.328-19.18-1.032-38.39-1.329-57.58-1.251-17.42.063-35.19 1.579-52.57.407-3.34-.219-6.67-.5-10.01-.579-2.11-.046-14.54-1.344-15.633.204z" fill="#D86C00"/></g><g clip-path="url(#prefix__clip2)"><path d="M248.455 377.045c-5.146.028-10.721.214-14.738 3.547-5.475 4.55-5.818 12.918-5.704 20.2.415 25.221.83 50.427 1.258 75.634.058 3.462.2 7.181 2.187 9.956 2.259 3.133 6.233 4.206 9.906 5.079 28.918 6.867 58.751 13.762 87.983 8.526 3.202-.572 6.59-1.273 9.634-.071 3.588 1.43 5.761 5.121 8.163 8.24 11.85 15.392 38.766 17.081 48.458.157 2.187-3.805 3.573-8.412 7.147-10.844 3.188-2.16 7.276-2.002 11.078-1.774 26.617 1.66 53.233 3.305 79.849 4.964 13.151.816 26.316 1.631 39.381 3.348 28.818 3.762 59.151 11.63 85.996.129 9.935-4.249 22.471-10.629 30.076-2.747 2.244 2.332 3.445 5.508 5.131 8.297 8.263 13.719 30.033 15.264 40.025 2.847 3.102-3.848 5.217-8.741 9.277-11.459 4.031-2.703 9.134-2.718 13.923-2.646 53.161.787 106.322 1.588 159.483 2.375 4.274.057 8.748.186 12.436 2.431 4.017 2.447 6.347 6.967 9.578 10.444 8.662 9.313 24.629 9.742 33.735.901 4.831-4.692 7.904-11.53 13.822-14.621 4.26-2.231 9.263-2.102 14.023-1.931 17.654.658 35.322 1.302 52.978 1.96 5.16.186 10.62.315 15.16-2.232 6.08-3.404 9.01-10.7 10.9-17.581 6.83-24.963 5.69-52.216-3.23-76.478-2.83-7.711-6.61-15.364-12.81-20.529-9.82-8.182-23.49-8.554-36.081-8.54-63.125.071-126.235.129-189.359.186-27.803.029-55.62.043-83.408 1.044-19.955.716-57.993 2.733-83.494.444-21.599-1.946-5.718-9.385-57.135-9.285-8.32.015-16.296-.257-24.044 1.488-6.146 1.388-6.818 5.322-15.466 7.024-26.331 5.193-76.218.2-103.049.372-28.575.172-57.164.358-85.738.529-32.449.215-64.897.415-97.331.616z" fill="#FFF2EA"/><path d="M249.827 395.668c-3.702-2.861-9.505-.501-11.878 3.534-2.373 4.034-2.302 8.998-2.159 13.661.543 17.153 1.072 34.305 1.615 51.458.072 2.289.186 4.706 1.43 6.609 1.987 3.018 6.046 3.734 9.634 4.048 37.938 3.234 75.375-8.225 112.97-14.262 38.78-6.209 78.491-6.652 117.4-1.288 21.799 3.004 43.341 7.811 65.254 9.828 16.754 1.531 33.65 1.416 50.431.243a403.402 403.402 0 0069.972-11.129c18.44-4.621 37.68 3.118 56.391 6.48a387.873 387.873 0 00109.625 3.834c13.522-1.459 25.658-4.106 39.109-6.108 10.535-1.574 21.085-3.133 31.72-3.791 8.305-.515 16.639-.458 24.958-.415 25.416.143 50.831.3 76.251.443 10.04.057 21.59.83 27.63 8.87 1.94 2.589 5.47-2.819 5.57-6.052.55-17.424-1.86-34.934-7.06-51.571-1.83-5.837-4.43-12.089-9.88-14.878-3.6-1.86-7.84-1.846-11.9-1.803l-252.059 3.09c-12.679.158-25.387.315-38.023-.758-11.364-.958-22.628-2.89-34.007-3.719-20.67-1.503-41.425.686-61.909 3.819-11.793 1.803-24.244 3.205-36.151 3.991-34.321 2.275-68.656-2.274-103.006-4.091-41.511-2.189-83.137-.386-124.662 1.416-31.791-.815-64.854-2.289-96.659-1.831" fill="#013507"/><path d="M743.216 418.443a347.65 347.65 0 011.387 57.48c-.329 5.651-.401 12.46 3.259 15.622 1.787 1.545 4.045 1.774 6.189 1.902 13.78.873 27.589-.186 41.368-1.23 2.43-.186 4.989-.429 6.99-2.174 3.317-2.876 3.96-8.684 4.246-13.805a528.389 528.389 0 00-.2-61.486c-.286-4.563-.887-9.728-3.845-12.303-7.548-6.58-25.888-1.63-35.051-1.816-12.364-.229-26.216-3.791-24.343 17.81zM948.598 418.443a347.542 347.542 0 011.387 57.48c-.329 5.651-.4 12.46 3.259 15.622 1.787 1.545 4.046 1.774 6.19 1.902 13.78.873 27.588-.186 41.366-1.23 2.43-.186 4.99-.429 6.99-2.174 3.32-2.876 3.96-8.684 4.25-13.805a534.424 534.424 0 00-.2-61.486c-.29-4.563-.89-9.728-3.85-12.303-7.55-6.58-25.885-1.63-35.048-1.816-12.379-.229-26.216-3.791-24.344 17.81zM441.116 418.443a347.542 347.542 0 011.387 57.48c-.329 5.651-.4 12.46 3.259 15.622 1.787 1.545 4.045 1.774 6.19 1.902 13.78.873 27.588-.186 41.368-1.23 2.43-.186 4.989-.429 6.99-2.174 3.316-2.876 3.959-8.684 4.245-13.805a528.168 528.168 0 00-.2-61.486c-.286-4.563-.886-9.728-3.845-12.303-7.547-6.58-25.887-1.63-35.05-1.816-12.379-.229-26.23-3.791-24.344 17.81zM269.954 418.443a347.65 347.65 0 011.387 57.48c-.329 5.651-.401 12.46 3.259 15.622 1.786 1.545 4.045 1.774 6.189 1.902 13.78.873 27.588-.186 41.368-1.23 2.43-.186 4.989-.429 6.99-2.174 3.317-2.876 3.96-8.684 4.246-13.805a528.389 528.389 0 00-.2-61.486c-.286-4.563-.887-9.728-3.846-12.303-7.547-6.58-25.887-1.63-35.05-1.816-12.379-.229-26.216-3.791-24.343 17.81z" fill="#D86C00"/><path d="M306.591 424.394c.557 15.822.686 31.887.371 47.81-.085 4.706-.114 10.357.887 13.003.486 1.288 1.086 1.474 1.672 1.588 3.717.73 7.448-.157 11.164-1.03.658-.157 1.344-.357 1.887-1.817.901-2.403 1.072-7.224 1.144-11.473.3-17.023.285-34.133-.058-51.142-.071-3.791-.243-8.083-1.043-10.229-2.044-5.465-6.99-1.359-9.463-1.516-3.331-.2-7.062-3.162-6.561 14.806zM298.743 424.394a873.231 873.231 0 00-.371 47.81c.086 4.706.114 10.357-.886 13.003-.487 1.288-1.087 1.474-1.673 1.588-3.717.73-7.447-.157-11.164-1.03-.657-.157-1.344-.357-1.887-1.817-.9-2.403-1.072-7.224-1.143-11.473-.301-17.023-.286-34.133.057-51.142.071-3.791.243-8.083 1.043-10.229 2.044-5.465 6.99-1.359 9.463-1.516 3.317-.2 7.062-3.162 6.561 14.806zM477.067 424.394c.557 15.822.672 31.887.372 47.81-.086 4.706-.115 10.357.886 13.003.486 1.288 1.086 1.474 1.672 1.588 3.717.73 7.448-.157 11.164-1.03.658-.157 1.344-.357 1.887-1.817.901-2.403 1.072-7.224 1.144-11.473.3-17.023.286-34.133-.058-51.142-.071-3.791-.243-8.083-1.043-10.229-2.044-5.465-6.99-1.359-9.463-1.516-3.331-.2-7.061-3.162-6.561 14.806zM469.205 424.394a887.46 887.46 0 00-.372 47.81c.086 4.706.115 10.357-.886 13.003-.486 1.288-1.086 1.474-1.673 1.588-3.716.73-7.447-.157-11.163-1.03-.658-.157-1.344-.357-1.887-1.817-.901-2.403-1.072-7.224-1.144-11.473-.3-17.023-.286-34.133.057-51.142.072-3.791.243-8.083 1.044-10.229 2.044-5.465 6.99-1.359 9.463-1.516 3.33-.2 7.075-3.162 6.561 14.806zM984.535 424.394a874.23 874.23 0 01.372 47.81c-.086 4.706-.115 10.357.886 13.003.486 1.288 1.086 1.474 1.672 1.588 3.717.73 7.448-.157 11.164-1.03.658-.157 1.344-.357 1.891-1.817.9-2.403 1.07-7.224 1.14-11.473.3-17.023.29-34.133-.06-51.142-.07-3.791-.24-8.083-1.04-10.229-2.045-5.465-6.991-1.359-9.464-1.516-3.33-.2-7.076-3.162-6.561 14.806zM976.673 424.394a887.46 887.46 0 00-.372 47.81c.086 4.706.114 10.357-.886 13.003-.486 1.288-1.087 1.474-1.673 1.588-3.716.73-7.447-.157-11.164-1.03-.657-.157-1.343-.357-1.887-1.817-.9-2.403-1.072-7.224-1.143-11.473-.3-17.023-.286-34.133.057-51.142.072-3.791.243-8.083 1.044-10.229 2.044-5.465 6.99-1.359 9.462-1.516 3.331-.2 7.062-3.162 6.562 14.806zM779.18 424.394a873.23 873.23 0 01.372 47.81c-.086 4.706-.115 10.357.886 13.003.486 1.288 1.086 1.474 1.672 1.588 3.717.73 7.448-.157 11.164-1.03.658-.157 1.344-.357 1.887-1.817.901-2.403 1.072-7.224 1.144-11.473.3-17.023.286-34.133-.057-51.142-.072-3.791-.243-8.083-1.044-10.229-2.044-5.465-6.99-1.359-9.463-1.516-3.33-.2-7.076-3.162-6.561 14.806zM771.319 424.394a873.23 873.23 0 00-.372 47.81c.086 4.706.114 10.357-.886 13.003-.486 1.288-1.087 1.474-1.673 1.588-3.716.73-7.447-.157-11.164-1.03-.657-.157-1.343-.357-1.887-1.817-.9-2.403-1.072-7.224-1.143-11.473-.3-17.023-.286-34.133.057-51.142.072-3.791.243-8.083 1.044-10.229 2.044-5.465 6.99-1.359 9.463-1.516 3.33-.2 7.075-3.162 6.561 14.806zM409.354 417.041c.815 8.154 1 16.423.543 24.62-.129 2.418-.157 5.336 1.287 6.695.7.658 1.6.758 2.444.816 5.446.372 10.907-.072 16.353-.53.957-.085 1.972-.186 2.759-.93 1.315-1.23 1.572-3.719 1.672-5.908.443-8.769.415-17.581-.086-26.336-.114-1.96-.357-4.163-1.515-5.265-2.987-2.818-10.235-.701-13.851-.787-4.875-.114-10.349-1.63-9.606 7.625zM511.731 417.67c.815 8.784 1 17.682.543 26.523-.129 2.604-.157 5.751 1.286 7.21.701.715 1.601.815 2.445.873 5.446.4 10.906-.086 16.353-.573.957-.085 1.972-.2 2.759-1.001 1.315-1.33 1.572-4.006 1.672-6.366.443-9.442.415-18.926-.086-28.368-.114-2.103-.357-4.492-1.515-5.679-2.988-3.033-10.235-.759-13.851-.844-4.875-.101-10.35-1.731-9.606 8.225zM708.68 417.67a184.533 184.533 0 01.544 26.523c-.129 2.604-.158 5.751 1.286 7.21.701.715 1.601.815 2.445.873 5.446.4 10.906-.086 16.352-.573.958-.085 1.973-.2 2.759-1.001 1.315-1.33 1.573-4.006 1.673-6.366.443-9.442.414-18.926-.086-28.368-.114-2.103-.357-4.492-1.515-5.679-2.988-3.033-10.235-.759-13.852-.844-4.874-.101-10.349-1.731-9.606 8.225z" fill="#FFF2EA"/><path d="M356.493 452.361a277.715 277.715 0 0135.021-.629c3.445.157 7.591.186 9.52-1.502.944-.815 1.072-1.86 1.158-2.847.529-6.352-.114-12.703-.757-19.041-.115-1.115-.258-2.289-1.33-3.218-1.758-1.531-5.289-1.832-8.405-1.96a424.803 424.803 0 00-37.466.1c-2.773.129-5.918.415-7.49 1.774-4.003 3.476-1.001 11.916-1.115 16.137-.129 5.679-2.301 12.045 10.864 11.186z" fill="#D86C00"/><path d="M355.678 415.668a920.113 920.113 0 0135.021-.186c3.445.043 7.591.057 9.52-.444.944-.243 1.073-.558 1.158-.844.529-1.888-.114-3.791-.757-5.679-.115-.329-.258-.687-1.33-.959-1.758-.457-5.289-.543-8.405-.586a1422.253 1422.253 0 00-37.466.029c-2.773.042-5.918.128-7.49.529-4.002 1.03-1.001 3.562-1.115 4.821-.129 1.674-2.301 3.576 10.864 3.319z" fill="#F98E12"/><path d="M828.54 452.361a277.712 277.712 0 0135.021-.629c3.445.157 7.59.186 9.52-1.502.944-.815 1.072-1.86 1.158-2.847.529-6.352-.114-12.703-.758-19.041-.114-1.115-.257-2.289-1.329-3.218-1.758-1.531-5.289-1.832-8.405-1.96a424.803 424.803 0 00-37.466.1c-2.773.129-5.918.415-7.49 1.774-4.003 3.476-1.001 11.916-1.115 16.137-.129 5.679-2.302 12.045 10.864 11.186z" fill="#D86C00"/><path d="M827.725 415.668a920.113 920.113 0 0135.021-.186c3.445.043 7.591.057 9.52-.444.944-.243 1.072-.558 1.158-.844.529-1.888-.114-3.791-.757-5.679-.115-.329-.258-.687-1.33-.959-1.758-.457-5.289-.543-8.405-.586a1422.253 1422.253 0 00-37.466.029c-2.773.042-5.918.128-7.49.529-4.003 1.03-1.001 3.562-1.115 4.821-.129 1.674-2.302 3.576 10.864 3.319z" fill="#F98E12"/><path d="M894.808 452.361a277.728 277.728 0 0135.022-.629c3.445.157 7.59.186 9.52-1.502.943-.815 1.072-1.86 1.158-2.847.529-6.352-.115-12.703-.758-19.041-.114-1.115-.257-2.289-1.329-3.218-1.759-1.531-5.289-1.832-8.406-1.96a424.78 424.78 0 00-37.465.1c-2.773.129-5.918.415-7.491 1.774-4.002 3.476-1 11.916-1.115 16.137-.128 5.679-2.301 12.045 10.864 11.186z" fill="#D86C00"/><path d="M651.045 448.027a193.538 193.538 0 0135.021-.916c3.445.229 7.59.272 9.52-2.174.944-1.188 1.072-2.69 1.158-4.12.529-9.17-.114-18.355-.758-27.525-.114-1.616-.257-3.318-1.329-4.649-1.758-2.203-5.289-2.632-8.405-2.832a294.952 294.952 0 00-37.466.143c-2.773.186-5.918.586-7.49 2.56-4.003 5.022-1.001 17.224-1.115 23.319-.129 8.24-2.302 17.438 10.864 16.194zM893.993 415.668a920.154 920.154 0 0135.022-.186c3.445.043 7.59.057 9.52-.444.943-.243 1.072-.558 1.158-.844.529-1.888-.115-3.791-.758-5.679-.114-.329-.257-.687-1.329-.959-1.759-.457-5.289-.543-8.405-.586a1422.253 1422.253 0 00-37.466.029c-2.773.042-5.918.128-7.491.529-4.002 1.03-1 3.562-1.115 4.821-.128 1.674-2.301 3.576 10.864 3.319z" fill="#F98E12"/><path d="M370.701 515.163c-3.345 0-6.461-.829-9.363-2.503-2.173-1.33-3.874-3.047-5.089-5.121-2.587-3.92-3.888-8.212-3.888-12.904 0-2.747.486-5.465 1.444-8.183.086-.129.143-.286.186-.458.329-.972.758-1.917 1.258-2.861 3.302-5.021 7.876-7.525 13.694-7.525 2.387 0 4.731.458 7.033 1.359a17.303 17.303 0 016.032 3.963c3.102 3.147 5.06 6.767 5.904 10.887.214 1.073.314 2.303.314 3.719 0 .801-.057 1.617-.186 2.461-.257 2.174-.772 4.163-1.572 5.965-1.044 2.103-2.087 3.82-3.145 5.122-1.301 1.602-2.916 2.975-4.831 4.12-2.516 1.301-5.118 1.959-7.791 1.959zm-.257-8.383c.214 0 .672-.114 1.386-.357.715-.229 1.716-1.288 3.017-3.162a10.09 10.09 0 001.072-1.702v-.1c.757-1.574 1.229-2.962 1.443-4.163l.058-.158a7.505 7.505 0 00.185-1.659c0-1.03-.085-1.946-.257-2.704-.257-1.373-.8-2.747-1.658-4.134-.858-1.388-1.744-2.461-2.673-3.233-1.844-1.273-3.288-1.903-4.331-1.903-1.13 0-2.145.816-3.045 2.461a17.356 17.356 0 00-1.858 5.264 16.523 16.523 0 00-.372 3.562c0 3.276 1.029 6.423 3.073 9.428 1.558 1.702 2.873 2.56 3.96 2.56zM673.916 515.163c-3.345 0-6.461-.829-9.363-2.503-2.173-1.331-3.874-3.047-5.089-5.122-2.601-3.919-3.888-8.211-3.888-12.889 0-2.747.486-5.465 1.444-8.183.086-.129.143-.286.186-.458.329-.972.757-1.917 1.258-2.861 3.302-5.021 7.876-7.524 13.694-7.524 2.387 0 4.731.457 7.033 1.359a17.287 17.287 0 016.032 3.962c3.102 3.147 5.06 6.767 5.903 10.887.215 1.073.315 2.303.315 3.719 0 .801-.057 1.617-.186 2.461-.257 2.174-.772 4.163-1.572 5.965-1.044 2.103-2.087 3.82-3.145 5.122-1.301 1.602-2.916 2.975-4.832 4.12-2.515 1.287-5.117 1.945-7.79 1.945zm-.257-8.383c.214 0 .672-.114 1.386-.357.715-.229 1.716-1.288 3.016-3.162.415-.529.772-1.102 1.072-1.702v-.1c.758-1.574 1.23-2.962 1.444-4.163l.057-.158a7.454 7.454 0 00.186-1.659c0-1.03-.086-1.946-.257-2.704-.257-1.373-.801-2.747-1.658-4.134-.858-1.388-1.744-2.461-2.673-3.233-1.844-1.274-3.288-1.903-4.332-1.903-1.129 0-2.144.815-3.044 2.461a17.384 17.384 0 00-1.859 5.264 16.58 16.58 0 00-.371 3.562c0 3.276 1.029 6.423 3.073 9.427 1.558 1.703 2.873 2.561 3.96 2.561zM914.478 515.163c-3.345 0-6.462-.829-9.363-2.503-2.173-1.331-3.874-3.047-5.089-5.122-2.602-3.919-3.888-8.211-3.888-12.889 0-2.747.486-5.465 1.443-8.183.086-.129.143-.286.186-.458.329-.972.758-1.917 1.258-2.861 3.302-5.021 7.876-7.524 13.694-7.524 2.387 0 4.732.457 7.033 1.359a17.278 17.278 0 016.032 3.962c3.102 3.147 5.061 6.767 5.904 10.887.215 1.073.315 2.303.315 3.719 0 .801-.058 1.617-.186 2.461-.258 2.174-.772 4.163-1.573 5.965-1.043 2.103-2.087 3.82-3.144 5.122-1.301 1.602-2.917 2.975-4.832 4.12-2.516 1.287-5.103 1.945-7.79 1.945zm-.243-8.383c.214 0 .671-.114 1.386-.357.715-.229 1.715-1.288 3.016-3.162.415-.529.772-1.102 1.072-1.702v-.1c.758-1.574 1.23-2.962 1.444-4.163l.057-.158a7.454 7.454 0 00.186-1.659c0-1.03-.086-1.946-.257-2.704-.258-1.373-.801-2.747-1.658-4.134-.858-1.388-1.744-2.461-2.673-3.233-1.844-1.274-3.288-1.903-4.332-1.903-1.129 0-2.144.815-3.044 2.461a17.358 17.358 0 00-1.859 5.264 16.58 16.58 0 00-.371 3.562c0 3.276 1.029 6.423 3.073 9.427 1.544 1.703 2.873 2.561 3.96 2.561zM545.394 400.303c2.202 25.45 2.688 51.272 1.473 76.893-.358 7.568-.443 16.666 3.502 20.901 1.915 2.06 4.331 2.374 6.633 2.546 14.766 1.173 29.561-.243 44.312-1.659 2.602-.244 5.347-.573 7.491-2.919 3.545-3.862 4.245-11.616 4.545-18.454a886.381 886.381 0 00-.214-82.243c-.3-6.094-.943-13.004-4.117-16.452-8.091-8.798-27.731-2.188-37.551-2.432-13.251-.314-28.089-5.064-26.074 23.819z" fill="#D86C00"/><path d="M234.947 482.303c.043 1.173.214 2.447 1.044 3.248.8.772 1.986.93 3.087.987 1.844.114 3.702.1 5.546.086 6.233-.058 12.479-.1 18.712-.158.986-.014 1.987-.014 2.916-.329 1.429-.486 2.63-1.745 2.83-3.247.2-1.502-.7-3.133-2.144-3.591-.743-.243-1.558-.171-2.33-.1-6.175.558-12.408 1.001-18.611.701-3.788-.186-11.279-4.091-11.05 2.403zM339.011 487.124c1.015 1.259 2.973 1.374 4.66 1.374.714 0 1.458-.015 2.101-.301 1.215-.572 1.644-1.96 2.044-3.176 1.33-4.206 3.66-8.183 7.09-11.172 3.417-3.005 7.977-4.964 12.679-5.007 2.059-.015 4.117.314 6.104.815 7.819 1.96 15.295 7.024 17.354 14.334.443 1.588.686 3.362 1.972 4.492 1.33 1.173 3.345 1.288 5.175 1.316 4.002.086 8.005.158 12.007.244 2.502.057 5.032.1 7.505-.244 2.802-.386 5.546-1.259 8.391-1.23 1.772.029 3.516.401 5.289.358 1.772-.058 3.659-.673 4.545-2.103.515-.83.615-1.831.686-2.79.529-6.809.486-13.662-.143-20.457-.057-.629-.128-1.287-.5-1.817-.729-1.073-2.316-1.23-3.674-1.259-12.507-.372-25.015-.014-37.494.759a564.591 564.591 0 00-37.108 3.533c-6.004.773-16.596.501-18.898 7.153-.757 2.203-.514 4.649-.514 6.924-.015 2.289-.829 6.309.729 8.254zM510.116 485.036c-.272 2.017-1.258 4.363.329 5.851 1.157 1.087 3.102 1.044 4.788.929 5.804-.414 11.622-.815 17.425-1.23.686-.043 1.373-.1 2.001-.343 2.116-.83 2.431-3.29 2.431-5.322 0-1.559.014-3.118.014-4.678 0-1.016 0-2.06-.529-2.961-.958-1.688-3.316-2.289-5.418-2.69-3.602-.686-7.218-1.215-10.849-1.759-2.187-.329-4.875-1.66-7.047-1.617-7.205.129-2.673 10.386-3.145 13.82zM620.554 478.355c.029 3.634.129 4.006.272 7.639.043 1.173.157 2.461 1.158 3.305.772.644 1.93.873 3.016 1.044 5.932.902 12.05.902 17.982-.014 1.416-.215 2.888-.515 3.974-1.302 1.916-1.402 1.959-3.777 2.502-5.837 1.729-6.48 9.477-10.843 17.325-12.345 5.946-1.145 12.636-.93 17.639 1.96 1.873 1.087 3.431 2.489 4.832 3.962 2.844 2.976 5.174 6.295 6.904 9.814.557 1.144 1.115 2.375 2.273 3.161 1.229.83 2.93 1.002 4.517 1.131 9.306.701 18.683.701 27.974.028 1.158-.086 2.33-.186 3.359-.644 1.187-.529 2.016-1.473 2.645-2.446 2.573-3.991 2.473-8.741 2.301-13.247-.014-.472-.057-.973-.4-1.33-.315-.315-.815-.472-1.287-.601a119.426 119.426 0 00-13.951-2.933c-8.648-1.273-9.663-.543-18.268-2.003-7.005-1.187-17.382-4.363-24.515-4.849-6.662-.458-13.88.1-20.499.915-8.033.987-19.826 5.665-27.845 6.638-6.69.787-11.979 1.245-11.908 7.954zM810.371 488.269c.058 1.044.215 2.217 1.158 2.875.758.529 1.801.558 2.759.572 23.114.329 46.228.115 69.328-.658 1.344-.043 2.731-.1 3.917-.629 2.802-1.259 3.331-4.435 4.388-7.01 1.959-4.807 6.79-8.54 12.365-10.143 5.575-1.602 11.779-1.173 17.225.716 4.731 1.63 9.063 4.434 11.464 8.325 1.315 2.146 2.03 4.578 3.674 6.567 1.644 1.974 4.717 3.419 7.247 2.374 2.887-1.187 3.216-4.592 3.145-7.367-.157-5.579-.3-11.158-.458-16.737-.043-1.717-.228-3.677-1.815-4.707-1.086-.715-2.544-.773-3.888-.801-18.783-.458-37.695-.901-56.235 1.717-7.847 1.101-15.581 2.746-23.357 4.162a408.708 408.708 0 01-31.004 4.435c-4.26.444-8.406.787-12.694.73-2.602-.029-5.303-.215-6.647 2.06-2.001 3.362-.8 9.856-.572 13.519zM1016.85 465.351c-1 .844-1.1 2.332-1.11 3.648a430.81 430.81 0 00.16 17.61c.03.758.05 1.56.47 2.189.64 1.016 1.99 1.273 3.17 1.445 3.38.486 7.18.873 9.82-1.288 2.8-2.288 3.06-6.409 3.08-10.028.01-2.403-.08-5.05-1.68-6.824-1.07-1.173-2.63-1.759-3.86-2.775-2.51-2.089-6.1-7.339-10.05-3.977zM254.702 383.236l-13.466.043c-2.33 0-4.245.344-4.36.773-.343 1.316-.7 2.618-1.043 3.934-.1.386-.143.815 1.158 1.13 1.558.372 4.431.429 6.961.458 22.4.243 44.885.429 67.256.086 9.148-.143 20.041 0 29.218 0 7.376 0 12.965-.229 20.326-.143 52.075.643 99.904-.201 156.382.414 5.661.058 11.364.172 16.867-.085 1.373-.058 2.645-.172 3.46-.387.972-.243 1.029-.572 1.057-.872.115-1.259.215-2.532.329-3.791.029-.329.015-.673-.972-.93-2.373-.644-8.634-.401-11.15-.472-4.802-.143-9.562-.158-14.423-.129-59.365.443-115.971-.83-173.949-.129-6.59.086-13.151.215-19.741.286-6.475.072-12.951.101-19.44.115-13.366.057-31.076-.344-44.47-.301zM648 383.236l-17.297.043c-3.001 0-5.446.344-5.589.773-.443 1.316-.886 2.618-1.329 3.934-.129.386-.186.815 1.487 1.13 2.001.372 5.674.429 8.948.458 28.76.243 57.635.429 86.353.086 11.75-.143 25.73 0 37.508 0 9.478 0 16.654-.229 26.102-.143 66.87.643 128.279-.201 200.78.414 7.262.058 14.595.172 21.657-.085 1.76-.058 3.4-.172 4.45-.387 1.24-.243 1.32-.572 1.35-.872.15-1.259.27-2.532.42-3.791.03-.329.03-.673-1.25-.93-3.04-.644-11.07-.401-14.305-.472-6.161-.143-12.279-.158-18.511-.129-76.233.443-148.906-.83-223.337-.129-8.462.086-16.896.215-25.358.286-8.306.072-16.639.101-24.959.115-17.21.057-39.938-.344-57.12-.301z" fill="#F98E12"/></g><path d="M1113.78 592.512c6.92.01 16.62 1.39 20.92-6.33 2.4-4.31 2.27-8.23 1.73-13.53-.38-3.74-.91-7.57-2.76-10.71-3.29-5.56-8.05-4.78-13.2-5-1.52-9.99-5.84-16.14-14.5-19.33-6.22-2.29-18.7-2.56-23.98 1.98-2.01 1.73-4.64 5.68-4.1 8.66-.77-6.87-6.56-8.11-11.38-7.23-9.78 1.77-17.03 7.72-22.2 19.07-5.74-1.02-5.74-1.02-10.76.11-10.48 2.37-14.82 18.42-8.84 28.9 3.88 6.81 11.36 6.98 17.45 6.4 8.44-.81 16.86-2.6 25.33-3.06 10.73-.59 21.5-.25 32.24-.25 5.09.65 9.52.31 14.05.32z" fill="#fff"/><path d="M1110.03 587.682c6.17 0 14.8 1.03 18.64-4.7 2.14-3.2 2.03-6.11 1.54-10.05-.34-2.78-.81-5.63-2.46-7.95-2.93-4.13-7.17-3.55-11.76-3.72-1.35-7.42-4.97-13.51-12.68-15.88-5.54-1.7-12.08-.82-16.78 2.55-1.79 1.29-8.19 6.18-7.71 8.39-.69-5.1-6.6-6.81-10.88-6.17-8.71 1.32-15.67 7.35-17.82 16.02-3.4-2.36-7.07-3.34-11.55-2.5-9.34 1.76-13.2 13.68-7.88 21.46 3.46 5.06 10.12 5.18 15.55 4.75 7.52-.6 15.02-1.93 22.57-2.27 9.56-.44 19.16-.19 28.73-.19 4.51.51 8.45.26 12.49.26z" fill="#013507"/><path d="M404.128 586.048c-5.761.009-13.837 1.157-17.417-5.27-1.998-3.588-1.889-6.851-1.44-11.264.316-3.114.758-6.302 2.298-8.916 2.739-4.629 6.702-3.98 10.989-4.163 1.266-8.317 4.862-13.437 12.072-16.093 5.178-1.906 15.568-2.131 19.964 1.649 1.674 1.44 3.863 4.728 3.414 7.209.641-5.719 5.461-6.752 9.474-6.019 8.142 1.474 14.178 6.427 18.482 15.876 4.779-.849 4.779-.849 8.958.092 8.725 1.973 12.338 15.335 7.36 24.06-3.23 5.67-9.458 5.811-14.528 5.329-7.026-.675-14.036-2.165-21.088-2.548-8.933-.491-17.899-.208-26.841-.208-4.237.541-7.926.258-11.697.266z" fill="#fff"/><path d="M407.25 582.027c-5.136 0-12.321.858-15.518-3.913-1.782-2.664-1.69-5.086-1.282-8.367.283-2.314.674-4.687 2.048-6.618 2.439-3.439 5.969-2.956 9.79-3.097 1.124-6.178 4.138-11.248 10.557-13.221 4.612-1.415 10.057-.683 13.97 2.123 1.49 1.074 6.818 5.145 6.419 6.985.574-4.246 5.494-5.67 9.058-5.137 7.251 1.099 13.045 6.119 14.835 13.337 2.831-1.964 5.886-2.78 9.616-2.081 7.776 1.465 10.99 11.389 6.561 17.866-2.881 4.213-8.426 4.313-12.946 3.955-6.261-.5-12.505-1.607-18.791-1.89-7.959-.366-15.951-.158-23.918-.158-3.755.424-7.035.216-10.399.216z" fill="#013507"/><path d="M337.367 594.333c12.298 0 24.634-.383 36.92.284 9.693.531 19.337 2.58 29.005 3.507 6.977.666 15.534.481 19.979-7.323 6.841-12.002 1.877-30.388-10.125-33.092-5.754-1.297-5.754-1.297-12.323-.124-5.915-13.002-14.225-19.806-25.412-21.843-5.507-1-12.151.42-13.027 8.285.617-3.408-2.383-7.927-4.692-9.915-6.039-5.199-20.338-4.89-27.45-2.26-9.915 3.655-14.867 10.706-16.596 22.14-5.889.259-11.347-.642-15.113 5.729-2.124 3.581-2.729 7.977-3.161 12.262-.618 6.075-.766 10.557 1.988 15.484 4.926 8.841 16.027 7.261 23.955 7.248 5.186-.012 10.248.371 16.052-.382z" fill="#fff"/><path d="M339.911 588.912c10.952 0 21.954-.284 32.895.21 8.643.395 17.225 1.914 25.844 2.606 6.223.493 13.842.358 17.806-5.434 6.087-8.915 1.667-22.559-9.027-24.572-5.124-.963-9.322.161-13.224 2.865-2.458-9.928-10.434-16.83-20.399-18.349-4.915-.741-11.681 1.222-12.459 7.063.555-2.531-6.779-8.137-8.829-9.607-5.384-3.865-12.866-4.865-19.213-2.914-8.829 2.717-12.978 9.693-14.521 18.176-5.248.185-10.113-.469-13.472 4.26-1.889 2.667-2.433 5.927-2.815 9.101-.556 4.507-.679 7.841 1.765 11.508 4.384 6.557 14.275 5.384 21.338 5.384 4.63-.025 9.137.259 14.311-.297z" fill="#2C8354"/><path d="M992.014 601.224c9.586 0 19.196-.299 28.766.221 7.56.414 15.07 2.011 22.61 2.733 5.43.519 12.1.375 15.57-5.706 5.33-9.353 1.46-23.68-7.89-25.788-4.49-1.01-4.49-1.01-9.61-.096-4.61-10.132-11.08-15.434-19.8-17.021-4.29-.78-9.47.327-10.15 6.456.48-2.656-1.86-6.177-3.66-7.726-4.7-4.051-15.845-3.811-21.387-1.761-7.727 2.848-11.586 8.342-12.933 17.252-4.589.202-8.842-.5-11.777 4.465-1.655 2.79-2.127 6.216-2.463 9.555-.482 4.734-.597 8.227 1.549 12.066 3.839 6.889 12.489 5.658 18.667 5.648 4.041-.01 7.986.289 12.508-.298z" fill="#fff"/><path d="M993.997 597c8.533 0 17.103-.222 25.633.163 6.74.308 13.42 1.492 20.14 2.031 4.85.384 10.79.279 13.87-4.234 4.75-6.947 1.3-17.58-7.03-19.148-3.99-.751-7.26.125-10.3 2.232-1.92-7.736-8.14-13.115-15.9-14.298-3.83-.578-9.1.952-9.71 5.503.43-1.972-5.28-6.341-6.88-7.486-4.194-3.011-10.025-3.791-14.971-2.27-6.88 2.116-10.113 7.553-11.316 14.163-4.089.145-7.88-.365-10.498 3.32-1.472 2.078-1.895 4.619-2.193 7.092-.433 3.512-.53 6.11 1.376 8.967 3.415 5.11 11.123 4.196 16.627 4.196 3.608-.02 7.12.202 11.152-.231z" fill="#2C8354"/><defs><clipPath id="prefix__clip0"><path fill="#fff" transform="translate(114.23 432.511)" d="M0 0h1213.18v196.99H0z"/></clipPath><clipPath id="prefix__clip1"><path fill="#fff" transform="translate(982.826 308)" d="M0 0h215.348v178H0z"/></clipPath><clipPath id="prefix__clip2"><path fill="#fff" transform="translate(228 367)" d="M0 0h816v154H0z"/></clipPath></defs></svg>