<svg width="1440" height="647" fill="none" xmlns="http://www.w3.org/2000/svg"><path fill-rule="evenodd" clip-rule="evenodd" d="M0 484h-30v184h1499V484h-29V.715c-22.23 5.059-23.72 31.86-25.68 66.827-3.04 54.425-7.19 128.636-92.32 171.441-26.99 13.566-54.73 18.392-86.5 16.087-44.91-3.252-125.32-29.809-169.5-50.436-171-93.481-437.5-80.002-521.5-51.74-97.1 32.669-150.129 67.687-191.568 95.05-43.808 28.928-74.66 49.302-130.932 49.302-15.408 0-38.928-5.068-65.312-10.752C100.595 274.41 31.557 259.537 0 284.637V484z" fill="#FFF2EA"/><g clip-path="url(#prefix__clip0)"><path d="M395.512 345.356c0-2.492.331-4.878.984-7.166.674-2.289 1.668-4.364 2.994-6.236 1.316-1.872 2.685-3.198 4.108-3.968l.631 2.011c-1.605 1.24-2.931 3.123-3.968 5.658-1.027 2.524-1.573 5.358-1.68 8.503l-.021 1.401c0 4.257.781 7.936 2.332 11.059.941 1.872 2.043 3.338 3.337 4.396l-.631 1.861c-1.466-.812-2.856-2.181-4.193-4.096-2.599-3.733-3.893-8.214-3.893-13.423zm14.728-5.947c1.347-1.658 3.123-2.492 5.283-2.492 3.776 0 5.68 2.128 5.722 6.385v11.808h-3.058v-11.829c-.011-1.284-.3-2.236-.888-2.856-.578-.61-1.476-.92-2.696-.92-.984 0-1.861.268-2.609.792a5.375 5.375 0 00-1.744 2.085v12.728h-3.048v-25.349h3.048v9.648h-.01zm19.712-6.482v4.321h3.337v2.353h-3.337v11.081c0 .717.149 1.252.438 1.615.3.353.813.524 1.519.524.353 0 .834-.064 1.455-.192v2.481c-.813.214-1.583.332-2.353.332-1.359 0-2.396-.417-3.091-1.241-.685-.823-1.038-1.989-1.038-3.508v-11.081h-3.262v-2.353h3.262v-4.321h3.07v-.011zm11.059 0v4.321h3.337v2.353h-3.337v11.081c0 .717.139 1.252.439 1.615.299.353.812.524 1.518.524.353 0 .835-.064 1.444-.192v2.481c-.802.214-1.572.332-2.342.332-1.369 0-2.396-.417-3.091-1.241-.695-.823-1.038-1.989-1.038-3.508v-11.081h-3.251v-2.353h3.251v-4.321h3.07v-.011zm22.012 13.456c0 2.727-.621 4.909-1.872 6.577-1.241 1.658-2.931 2.493-5.048 2.493-2.172 0-3.872-.685-5.124-2.065v8.6h-3.048v-24.74h2.792l.149 1.979c1.241-1.54 2.963-2.31 5.188-2.31 2.139 0 3.84.813 5.08 2.428 1.262 1.625 1.893 3.872 1.893 6.749v.289h-.01zm-3.059-.353c0-2.011-.428-3.605-1.294-4.771-.856-1.166-2.033-1.743-3.53-1.743-1.85 0-3.23.813-4.161 2.46v8.535c.92 1.626 2.311 2.439 4.204 2.439 1.465 0 2.62-.578 3.487-1.733.855-1.166 1.294-2.888 1.294-5.187zm17.348 4.353c0-.824-.31-1.466-.941-1.915-.62-.47-1.701-.866-3.262-1.198-1.54-.331-2.76-.727-3.669-1.198-.909-.46-1.583-1.005-2.021-1.647-.428-.642-.642-1.401-.642-2.278 0-1.465.61-2.706 1.84-3.711 1.251-1.017 2.834-1.519 4.759-1.519 2.022 0 3.658.524 4.909 1.572 1.273 1.038 1.904 2.385 1.904 4.011h-3.069c0-.834-.353-1.562-1.081-2.161-.706-.609-1.593-.909-2.663-.909-1.112 0-1.979.246-2.61.728-.631.492-.941 1.112-.941 1.903 0 .728.289 1.284.877 1.658.578.375 1.637.728 3.155 1.07 1.519.342 2.76.749 3.712 1.219.952.482 1.647 1.048 2.096 1.722.471.663.695 1.476.695 2.428 0 1.594-.641 2.877-1.914 3.84-1.273.963-2.931 1.433-4.974 1.433-1.422 0-2.695-.256-3.797-.759-1.101-.503-1.968-1.209-2.588-2.118-.62-.909-.93-1.893-.93-2.952h3.059c.053 1.027.459 1.829 1.219 2.439.77.588 1.786.887 3.037.887 1.156 0 2.086-.235 2.771-.695.716-.438 1.069-1.069 1.069-1.85zm6.931 3.123c0-.524.16-.963.46-1.316.321-.353.802-.524 1.422-.524.621 0 1.102.171 1.423.524.331.353.503.792.503 1.316 0 .503-.172.941-.503 1.273-.321.342-.802.502-1.423.502-.631 0-1.112-.171-1.422-.502-.3-.332-.46-.76-.46-1.273zm.021-14.568c0-.524.15-.962.46-1.315.321-.353.802-.535 1.423-.535.631 0 1.112.182 1.422.535.332.342.492.791.492 1.315 0 .503-.16.931-.492 1.273-.321.342-.802.503-1.422.503-.621 0-1.102-.171-1.423-.503-.31-.342-.46-.77-.46-1.273zm8.888 18.247h-2.631l10.043-26.097h2.61l-10.022 26.097zm10.236 0h-2.631l10.043-26.097h2.61l-10.022 26.097zm29.135-6.278l3.433-13.659h3.049l-5.198 17.862h-2.471l-4.353-13.53-4.225 13.53h-2.471l-5.187-17.862h3.037l3.509 13.37 4.16-13.37h2.46l4.257 13.659zm25.424 0l3.433-13.659h3.048l-5.198 17.862h-2.47l-4.354-13.53-4.224 13.53h-2.471l-5.187-17.862h3.037l3.519 13.37 4.15-13.37h2.46l4.257 13.659zm25.423 0l3.434-13.659h3.048l-5.198 17.862h-2.471l-4.353-13.53-4.225 13.53h-2.471l-5.187-17.862h3.038l3.519 13.37 4.16-13.37h2.449l4.257 13.659zm7.626 2.599c0-.524.161-.963.46-1.316.321-.353.802-.524 1.423-.524.62 0 1.101.171 1.422.524.332.353.503.792.503 1.316 0 .503-.171.941-.503 1.273-.321.342-.802.502-1.422.502-.631 0-1.113-.171-1.423-.502-.299-.332-.46-.76-.46-1.273zm23.98-7.123c0 2.738-.631 4.93-1.893 6.588-1.252 1.658-2.941 2.482-5.048 2.482-2.257 0-4.001-.803-5.231-2.396l-.149 2.064h-2.813v-25.36h3.059v9.455c1.23-1.529 2.93-2.289 5.101-2.289 2.172 0 3.872.813 5.102 2.461 1.241 1.636 1.872 3.882 1.872 6.738v.257zm-3.059-.353c0-2.075-.396-3.68-1.198-4.813-.802-1.134-1.957-1.701-3.465-1.701-2.011 0-3.466.93-4.343 2.813v7.722c.931 1.883 2.396 2.813 4.364 2.813 1.465 0 2.61-.567 3.423-1.7.813-1.145 1.219-2.845 1.219-5.134zm10.236 9.091h-3.048v-17.862h3.048v17.862zm-3.294-22.6c0-.503.149-.92.438-1.262.31-.343.759-.514 1.348-.514.599 0 1.048.182 1.347.514.311.342.471.759.471 1.262 0 .492-.16.898-.471 1.23-.299.342-.748.503-1.347.503-.589 0-1.048-.161-1.348-.503-.289-.332-.438-.749-.438-1.23zm15.359 20.439c1.09 0 2.042-.331 2.855-.994.813-.653 1.273-1.487 1.348-2.471h2.888c-.054 1.027-.407 1.989-1.048 2.92-.653.92-1.519 1.658-2.61 2.203a7.377 7.377 0 01-3.433.824c-2.428 0-4.364-.813-5.819-2.428-1.422-1.636-2.139-3.851-2.139-6.664v-.513c0-1.733.321-3.284.963-4.642.641-1.348 1.55-2.406 2.738-3.155 1.198-.738 2.609-1.123 4.235-1.123 2.011 0 3.669.599 4.984 1.797 1.337 1.198 2.043 2.759 2.129 4.674h-2.888c-.086-1.155-.524-2.107-1.316-2.835-.78-.748-1.743-1.123-2.909-1.123-1.551 0-2.749.567-3.604 1.68-.856 1.112-1.273 2.727-1.273 4.834v.578c0 2.053.417 3.647 1.273 4.749.855 1.133 2.064 1.689 3.626 1.689zm13.861 2.161h-3.048v-25.36h3.048v25.36zm4.097-9.102c0-1.743.342-3.316 1.026-4.717.696-1.401 1.658-2.481 2.877-3.241 1.23-.759 2.632-1.134 4.204-1.134 2.428 0 4.396.845 5.893 2.525 1.508 1.679 2.257 3.925 2.257 6.717v.214c0 1.732-.332 3.305-1.005 4.684-.653 1.38-1.605 2.45-2.856 3.22-1.23.77-2.653 1.155-4.257 1.155-2.428 0-4.385-.834-5.893-2.524-1.498-1.68-2.246-3.904-2.246-6.685v-.214zm3.069.364c0 1.978.46 3.572 1.369 4.77.92 1.198 2.161 1.807 3.701 1.807 1.551 0 2.781-.609 3.69-1.818.92-1.219 1.369-2.92 1.369-5.123 0-1.957-.471-3.54-1.401-4.749-.931-1.219-2.161-1.829-3.701-1.829-1.508 0-2.727.599-3.647 1.808-.92 1.176-1.38 2.898-1.38 5.134zm16.204-.364c0-1.743.342-3.316 1.027-4.717.695-1.401 1.658-2.481 2.877-3.241 1.23-.759 2.642-1.134 4.203-1.134 2.428 0 4.396.845 5.894 2.525 1.497 1.679 2.267 3.925 2.267 6.717v.214c0 1.732-.342 3.305-1.016 4.684-.652 1.38-1.604 2.45-2.856 3.22-1.23.77-2.652 1.155-4.256 1.155-2.428 0-4.386-.834-5.894-2.524-1.497-1.68-2.246-3.904-2.246-6.685v-.214zm3.08.364c0 1.978.46 3.572 1.369 4.77.92 1.198 2.161 1.807 3.701 1.807 1.551 0 2.781-.609 3.69-1.818.92-1.219 1.369-2.92 1.369-5.123 0-1.957-.46-3.54-1.401-4.749-.92-1.219-2.16-1.829-3.701-1.829-1.508 0-2.727.599-3.647 1.808-.92 1.176-1.38 2.898-1.38 5.134zm17.081 7.123c0-.524.161-.963.471-1.316.321-.353.791-.524 1.423-.524.631 0 1.101.171 1.422.524.332.353.503.792.503 1.316 0 .503-.171.941-.503 1.273-.321.342-.791.502-1.422.502-.632 0-1.102-.171-1.423-.502-.31-.332-.471-.76-.471-1.273zm11.734-16.258l.107 2.246c1.358-1.722 3.144-2.577 5.347-2.577 3.776 0 5.68 2.128 5.712 6.385v11.808h-3.048v-11.829c-.011-1.284-.311-2.236-.888-2.856-.578-.61-1.465-.92-2.685-.92-.994 0-1.861.268-2.61.792a5.208 5.208 0 00-1.743 2.085v12.728h-3.048v-17.862h2.856zm26.803 17.873c-.182-.353-.321-.973-.428-1.882-1.422 1.476-3.112 2.203-5.08 2.203-1.754 0-3.209-.503-4.343-1.487-1.123-1.005-1.69-2.267-1.69-3.797 0-1.861.706-3.305 2.118-4.332 1.423-1.037 3.423-1.55 5.979-1.55h2.973v-1.412c0-1.059-.321-1.904-.962-2.535-.642-.642-1.583-.963-2.813-.963-1.091 0-2.011.268-2.738.824-.738.545-1.113 1.208-1.113 1.989h-3.069c0-.888.31-1.743.941-2.578.642-.834 1.508-1.497 2.577-1.978 1.102-.482 2.289-.728 3.584-.728 2.053 0 3.668.514 4.834 1.551 1.166 1.027 1.775 2.439 1.808 4.247v8.214c0 1.647.213 2.952.631 3.915v.267h-3.209v.032zm-5.07-2.332c.963 0 1.872-.246 2.738-.738.856-.502 1.476-1.133 1.861-1.936v-3.668h-2.396c-3.732 0-5.604 1.101-5.604 3.283 0 .963.321 1.712.963 2.246.62.535 1.443.813 2.438.813zm15.327-15.541l.096 2.246c1.369-1.722 3.145-2.577 5.359-2.577 3.775 0 5.668 2.128 5.711 6.385v11.808h-3.048v-11.829c-.011-1.284-.31-2.236-.888-2.856-.577-.61-1.476-.92-2.695-.92-.984 0-1.861.268-2.599.792a5.306 5.306 0 00-1.754 2.085v12.728h-3.048v-17.862h2.866zm19.905-4.321v4.321h3.337v2.353h-3.337v11.081c0 .717.139 1.252.438 1.615.3.353.813.524 1.519.524.342 0 .834-.064 1.455-.192v2.481c-.813.214-1.583.332-2.353.332-1.359 0-2.396-.417-3.092-1.241-.695-.823-1.037-1.989-1.037-3.508v-11.081h-3.251v-2.353h3.251v-4.321h3.07v-.011zm14.321 22.515c-2.417 0-4.385-.792-5.904-2.375-1.519-1.593-2.267-3.732-2.267-6.385v-.567c0-1.775.331-3.348 1.005-4.738.674-1.401 1.626-2.492 2.834-3.273a7.163 7.163 0 013.969-1.187c2.32 0 4.128.759 5.422 2.289 1.284 1.529 1.925 3.722 1.925 6.578v1.272h-12.096c.042 1.765.556 3.188 1.529 4.279.995 1.08 2.246 1.625 3.765 1.625 1.08 0 1.989-.224 2.738-.663.738-.427 1.401-1.026 1.968-1.743l1.872 1.455c-1.508 2.288-3.754 3.433-6.76 3.433zm-.374-16.012c-1.23 0-2.268.45-3.102 1.348-.845.888-1.358 2.15-1.561 3.765h8.952v-.235c-.086-1.551-.503-2.749-1.262-3.594-.728-.845-1.744-1.284-3.027-1.284zm21.306 10.953c0-.824-.321-1.466-.952-1.915-.61-.47-1.701-.866-3.252-1.198-1.54-.331-2.77-.727-3.679-1.198-.899-.46-1.572-1.005-2.011-1.647-.428-.642-.652-1.401-.652-2.278 0-1.465.62-2.706 1.85-3.711 1.241-1.017 2.824-1.519 4.749-1.519 2.032 0 3.658.524 4.92 1.572 1.273 1.038 1.893 2.385 1.893 4.011h-3.07c0-.834-.353-1.562-1.069-2.161-.706-.609-1.594-.909-2.674-.909-1.112 0-1.979.246-2.61.728-.62.492-.941 1.112-.941 1.903 0 .728.289 1.284.877 1.658.588.375 1.636.728 3.155 1.07 1.53.342 2.77.749 3.722 1.219.941.482 1.647 1.048 2.097 1.722.46.663.695 1.476.695 2.428 0 1.594-.642 2.877-1.915 3.84-1.272.963-2.93 1.433-4.973 1.433-1.433 0-2.695-.256-3.808-.759-1.101-.503-1.968-1.209-2.588-2.118-.61-.909-.92-1.893-.92-2.952h3.048c.054 1.027.46 1.829 1.22 2.439.77.588 1.786.887 3.048.887 1.155 0 2.075-.235 2.77-.695.717-.438 1.07-1.069 1.07-1.85zm9.904-13.135l.085 1.979c1.316-1.54 3.081-2.31 5.295-2.31 2.502 0 4.203.962 5.101 2.877.599-.866 1.369-1.551 2.321-2.086.963-.524 2.086-.791 3.38-.791 3.915 0 5.904 2.075 5.968 6.225v11.968h-3.048v-11.786c0-1.273-.289-2.225-.877-2.856-.577-.642-1.572-.963-2.941-.963-1.134 0-2.075.342-2.824 1.027-.738.663-1.187 1.583-1.294 2.727v11.851h-3.07v-11.701c0-2.599-1.272-3.893-3.818-3.893-2.011 0-3.38.856-4.118 2.556v13.049h-3.048v-17.862h2.888v-.011zm34.194 18.194c-2.428 0-4.396-.792-5.915-2.375-1.508-1.593-2.267-3.732-2.267-6.385v-.567c0-1.775.342-3.348 1.005-4.738.685-1.401 1.626-2.492 2.834-3.273a7.163 7.163 0 013.968-1.187c2.332 0 4.129.759 5.423 2.289 1.284 1.529 1.925 3.722 1.925 6.578v1.272h-12.096c.042 1.765.556 3.188 1.529 4.279.995 1.08 2.257 1.625 3.765 1.625 1.08 0 1.989-.224 2.738-.663.749-.427 1.401-1.026 1.968-1.743l1.872 1.455c-1.508 2.288-3.765 3.433-6.749 3.433zm-.385-16.012c-1.23 0-2.268.45-3.102 1.348-.834.888-1.348 2.15-1.551 3.765h8.942v-.235c-.086-1.551-.503-2.749-1.252-3.594-.748-.845-1.765-1.284-3.037-1.284zm15.049-6.503v4.321h3.337v2.353h-3.337v11.081c0 .717.139 1.252.438 1.615.3.353.813.524 1.519.524.353 0 .834-.064 1.444-.192v2.481a9.096 9.096 0 01-2.343.332c-1.358 0-2.395-.417-3.091-1.241-.695-.823-1.037-1.989-1.037-3.508v-11.081h-3.252v-2.353h3.252v-4.321h3.07v-.011zm15.54 7.07a9.327 9.327 0 00-1.497-.117c-2.011 0-3.359.844-4.086 2.556v12.674h-3.048v-17.862h2.973l.043 2.065c.995-1.594 2.428-2.396 4.257-2.396.599 0 1.048.075 1.348.235v2.845h.01zm1.69 6.022c0-1.743.343-3.316 1.027-4.717.695-1.401 1.658-2.481 2.877-3.241 1.23-.759 2.631-1.134 4.204-1.134 2.427 0 4.395.845 5.893 2.525 1.508 1.679 2.267 3.925 2.267 6.717v.214c0 1.732-.342 3.305-1.005 4.684a7.462 7.462 0 01-2.856 3.22c-1.23.77-2.663 1.155-4.267 1.155-2.418 0-4.386-.834-5.894-2.524-1.508-1.68-2.246-3.904-2.246-6.685v-.214zm3.07.364c0 1.978.449 3.572 1.369 4.77.92 1.198 2.15 1.807 3.69 1.807 1.562 0 2.791-.609 3.701-1.818.909-1.219 1.369-2.92 1.369-5.123 0-1.957-.471-3.54-1.401-4.749-.931-1.219-2.161-1.829-3.701-1.829-1.508 0-2.728.599-3.658 1.808-.909 1.176-1.369 2.898-1.369 5.134zm32.108 0c0 2.727-.631 4.909-1.871 6.577-1.241 1.658-2.931 2.493-5.049 2.493-2.171 0-3.872-.685-5.123-2.065v8.6h-3.048v-24.74h2.791l.15 1.979c1.241-1.54 2.973-2.31 5.187-2.31 2.14 0 3.84.813 5.081 2.428 1.262 1.625 1.882 3.872 1.882 6.749v.289zm-3.059-.353c0-2.011-.428-3.605-1.283-4.771-.856-1.166-2.032-1.743-3.53-1.743-1.85 0-3.23.813-4.16 2.46v8.535c.919 1.626 2.31 2.439 4.203 2.439 1.465 0 2.62-.578 3.487-1.733.855-1.166 1.283-2.888 1.283-5.187zm6.14-.011c0-1.743.353-3.316 1.026-4.717.696-1.401 1.658-2.481 2.878-3.241 1.23-.759 2.641-1.134 4.203-1.134 2.428 0 4.407.845 5.893 2.525 1.508 1.679 2.268 3.925 2.268 6.717v.214c0 1.732-.343 3.305-1.006 4.684-.663 1.38-1.615 2.45-2.855 3.22-1.241.77-2.664 1.155-4.268 1.155-2.428 0-4.385-.834-5.893-2.524-1.498-1.68-2.246-3.904-2.246-6.685v-.214zm3.08.364c0 1.978.46 3.572 1.369 4.77.931 1.198 2.161 1.807 3.701 1.807 1.551 0 2.781-.609 3.7-1.818.91-1.219 1.369-2.92 1.369-5.123 0-1.957-.47-3.54-1.411-4.749-.92-1.219-2.15-1.829-3.701-1.829-1.508 0-2.727.599-3.647 1.808-.909 1.176-1.38 2.898-1.38 5.134zm20.343 8.738h-3.048v-25.36h3.048v25.36zm12.311.321c-2.428 0-4.385-.792-5.904-2.375-1.519-1.593-2.278-3.732-2.278-6.385v-.567c0-1.775.342-3.348 1.016-4.738.674-1.401 1.625-2.492 2.834-3.273a7.16 7.16 0 013.968-1.187c2.321 0 4.118.759 5.412 2.289 1.294 1.529 1.936 3.722 1.936 6.578v1.272h-12.097c.043 1.765.556 3.188 1.53 4.279.994 1.08 2.246 1.625 3.765 1.625 1.08 0 1.989-.224 2.738-.663.738-.427 1.401-1.026 1.968-1.743l1.861 1.455c-1.508 2.288-3.754 3.433-6.749 3.433zm-.375-16.012c-1.229 0-2.278.45-3.112 1.348-.834.888-1.348 2.15-1.551 3.765h8.952v-.235c-.085-1.551-.502-2.749-1.262-3.594-.738-.845-1.754-1.284-3.027-1.284zm10.964 14.076c0-.524.149-.963.459-1.316.321-.353.803-.524 1.423-.524.631 0 1.112.171 1.423.524.331.353.491.792.491 1.316 0 .503-.16.941-.491 1.273-.321.342-.803.502-1.423.502s-1.102-.171-1.423-.502c-.31-.332-.459-.76-.459-1.273zm10.342 1.615v-15.509h-2.813v-2.353h2.813v-1.829c0-1.914.514-3.401 1.54-4.439 1.027-1.037 2.471-1.572 4.343-1.572.706 0 1.401.096 2.096.278l-.16 2.482a8.173 8.173 0 00-1.658-.15c-.995 0-1.754.289-2.289.877-.545.577-.813 1.401-.813 2.481v1.883h3.819v2.353h-3.819v15.509h-3.059v-.011zm18.889-15.124a9.375 9.375 0 00-1.508-.117c-2 0-3.359.844-4.075 2.556v12.674h-3.049v-17.862h2.974l.043 2.065c1.005-1.594 2.428-2.396 4.267-2.396.588 0 1.038.075 1.348.235v2.845zm3.444 17.188h-2.631l10.043-26.097h2.61l-10.022 26.097zm14.809-2.064v-15.509h-2.81v-2.353h2.81v-1.829c0-1.914.52-3.401 1.54-4.439 1.03-1.037 2.48-1.572 4.35-1.572.7 0 1.4.096 2.09.278l-.16 2.482a8.12 8.12 0 00-1.65-.15c-1 0-1.76.289-2.29.877-.55.577-.82 1.401-.82 2.481v1.883h3.82v2.353h-3.82v15.509h-3.06v-.011zm18.89-15.124a9.284 9.284 0 00-1.49-.117c-2 0-3.36.844-4.08 2.556v12.674h-3.05v-17.862h2.98l.05 2.065c.99-1.594 2.42-2.396 4.26-2.396.58 0 1.04.075 1.34.235v2.845h-.01zm3.45 17.188h-2.63l10.04-26.097h2.61l-10.02 26.097zm16.37-17.776c1.35-1.658 3.11-2.492 5.29-2.492 3.77 0 5.67 2.128 5.71 6.385v11.808h-3.05v-11.829c-.01-1.284-.31-2.236-.89-2.856-.58-.61-1.46-.92-2.68-.92-1 0-1.86.268-2.61.792a5.232 5.232 0 00-1.75 2.085v12.728h-3.06v-25.349h3.06v9.648h-.02zm14.76 6.61c0-1.743.34-3.316 1.03-4.717.69-1.401 1.66-2.481 2.88-3.241 1.23-.759 2.64-1.134 4.2-1.134 2.43 0 4.4.845 5.89 2.525 1.51 1.679 2.27 3.925 2.27 6.717v.214c0 1.732-.34 3.305-1.02 4.684-.65 1.38-1.6 2.45-2.85 3.22-1.23.77-2.65 1.155-4.26 1.155-2.43 0-4.38-.834-5.89-2.524-1.5-1.68-2.25-3.904-2.25-6.685v-.214zm3.07.364c0 1.978.46 3.572 1.37 4.77.92 1.198 2.16 1.807 3.7 1.807 1.55 0 2.78-.609 3.69-1.818.92-1.219 1.37-2.92 1.37-5.123 0-1.957-.46-3.54-1.4-4.749-.93-1.219-2.16-1.829-3.7-1.829-1.5 0-2.73.599-3.65 1.808-.92 1.176-1.38 2.898-1.38 5.134zm19.9-9.135l.08 1.979c1.31-1.54 3.08-2.31 5.3-2.31 2.5 0 4.2.962 5.1 2.877.6-.866 1.37-1.551 2.32-2.086.95-.524 2.08-.791 3.38-.791 3.91 0 5.9 2.075 5.97 6.225v11.968h-3.05v-11.786c0-1.273-.29-2.225-.88-2.856-.58-.642-1.57-.963-2.94-.963-1.13 0-2.08.342-2.82 1.027-.74.663-1.19 1.583-1.31 2.727v11.851h-3.06v-11.701c0-2.599-1.27-3.893-3.82-3.893-2 0-3.37.856-4.1 2.556v13.049h-3.05v-17.862h2.88v-.011zm34.19 18.194c-2.43 0-4.4-.792-5.92-2.375-1.5-1.593-2.26-3.732-2.26-6.385v-.567c0-1.775.34-3.348 1-4.738.69-1.401 1.63-2.492 2.84-3.273 1.22-.791 2.54-1.187 3.97-1.187 2.32 0 4.12.759 5.42 2.289 1.28 1.529 1.92 3.722 1.92 6.578v1.272h-12.1c.04 1.765.55 3.188 1.53 4.279.99 1.08 2.24 1.625 3.76 1.625 1.08 0 1.99-.224 2.74-.663.75-.427 1.4-1.026 1.97-1.743l1.87 1.455c-1.51 2.288-3.76 3.433-6.74 3.433zm-.39-16.012c-1.23 0-2.26.45-3.1 1.348-.83.888-1.34 2.15-1.55 3.765h8.94v-.235c-.08-1.551-.5-2.749-1.25-3.594-.75-.845-1.76-1.284-3.04-1.284zm26.34 6.097c0 2.449-.33 4.813-.98 7.059a20.687 20.687 0 01-2.95 6.225c-1.32 1.893-2.71 3.262-4.16 4.054l-.65-1.861c1.7-1.305 3.05-3.316 4.07-6.054 1.04-2.738 1.58-5.776 1.59-9.113v-.524c0-2.31-.25-4.46-.73-6.439-.49-1.989-1.17-3.775-2.04-5.348-.86-1.583-1.82-2.813-2.9-3.679l.65-1.872c1.44.802 2.82 2.139 4.14 4.032a20.689 20.689 0 012.95 6.225c.68 2.279 1.01 4.707 1.01 7.295zm-656.032 12.386l.086 1.978c1.315-1.54 3.08-2.31 5.305-2.31 2.502 0 4.203.963 5.102 2.877.588-.866 1.358-1.551 2.31-2.085.962-.525 2.085-.792 3.38-.792 3.914 0 5.904 2.075 5.978 6.225v11.969h-3.048v-11.787c0-1.273-.289-2.225-.877-2.856-.577-.642-1.561-.963-2.941-.963-1.123 0-2.075.343-2.813 1.027-.749.663-1.187 1.583-1.305 2.728v11.851h-3.07v-11.702c0-2.599-1.272-3.893-3.818-3.893-2.011 0-3.369.856-4.118 2.556v13.049h-3.048v-17.862h2.877v-.01zm34.194 18.193c-2.428 0-4.396-.791-5.904-2.374-1.519-1.594-2.278-3.733-2.278-6.386v-.567c0-1.775.342-3.347 1.005-4.738.685-1.401 1.637-2.492 2.845-3.273 1.22-.791 2.535-1.187 3.958-1.187 2.331 0 4.128.759 5.422 2.289 1.284 1.529 1.936 3.722 1.936 6.578v1.273h-12.107c.043 1.765.556 3.187 1.54 4.278.984 1.08 2.246 1.626 3.754 1.626 1.08 0 2-.225 2.738-.663.749-.428 1.412-1.027 1.968-1.744l1.872 1.455c-1.508 2.289-3.754 3.433-6.749 3.433zm-.385-16.011c-1.23 0-2.267.449-3.102 1.347-.834.888-1.347 2.15-1.551 3.765h8.953v-.235c-.097-1.551-.503-2.749-1.262-3.594-.749-.856-1.765-1.283-3.038-1.283zm15.049-6.503v4.321h3.337v2.353h-3.337v11.081c0 .716.15 1.251.438 1.615.3.353.813.524 1.519.524.353 0 .834-.064 1.455-.193v2.482c-.813.214-1.583.331-2.353.331-1.359 0-2.396-.417-3.091-1.241-.685-.823-1.038-1.989-1.038-3.508v-11.081h-3.262v-2.353h3.262v-4.321h3.07v-.01zm11.059 0v4.321h3.337v2.353h-3.337v11.081c0 .716.139 1.251.439 1.615.299.353.813.524 1.518.524.353 0 .835-.064 1.444-.193v2.482a9.092 9.092 0 01-2.342.331c-1.358 0-2.396-.417-3.091-1.241-.695-.823-1.037-1.989-1.037-3.508v-11.081h-3.252v-2.353h3.252v-4.321h3.069v-.01zm15.541 7.069a9.49 9.49 0 00-1.508-.117c-2 0-3.359.845-4.075 2.556v12.675h-3.048v-17.862h2.973l.043 2.064c.994-1.594 2.428-2.396 4.257-2.396.599 0 1.048.075 1.347.235v2.845h.011zm9.915 15.445c-2.428 0-4.385-.791-5.904-2.374-1.519-1.594-2.278-3.733-2.278-6.386v-.567c0-1.775.342-3.347 1.005-4.738.685-1.401 1.636-2.492 2.845-3.273a7.16 7.16 0 013.968-1.187c2.321 0 4.129.759 5.412 2.289 1.284 1.529 1.936 3.722 1.936 6.578v1.273h-12.107c.042 1.765.566 3.187 1.54 4.278.984 1.08 2.246 1.626 3.765 1.626 1.08 0 1.989-.225 2.738-.663.738-.428 1.401-1.027 1.968-1.744l1.861 1.455c-1.508 2.289-3.754 3.433-6.749 3.433zm-.375-16.011c-1.24 0-2.267.449-3.112 1.347-.834.888-1.348 2.15-1.551 3.765h8.952v-.235c-.096-1.551-.502-2.749-1.262-3.594-.748-.856-1.754-1.283-3.027-1.283zm22.59 15.69h-3.049v-25.359h3.049v25.359zm12.321.321c-2.417 0-4.385-.791-5.904-2.374-1.519-1.594-2.267-3.733-2.267-6.386v-.567c0-1.775.331-3.347 1.005-4.738.674-1.401 1.626-2.492 2.834-3.273a7.163 7.163 0 013.968-1.187c2.321 0 4.129.759 5.423 2.289 1.284 1.529 1.925 3.722 1.925 6.578v1.273h-12.096c.042 1.765.556 3.187 1.529 4.278.995 1.08 2.246 1.626 3.765 1.626 1.08 0 1.989-.225 2.738-.663.749-.428 1.401-1.027 1.968-1.744l1.872 1.455c-1.519 2.289-3.765 3.433-6.76 3.433zm-.374-16.011c-1.23 0-2.268.449-3.102 1.347-.834.888-1.358 2.15-1.562 3.765h8.953v-.235c-.086-1.551-.503-2.749-1.262-3.594-.738-.856-1.754-1.283-3.027-1.283zm22.589 15.69h-3.048v-25.359h3.048v25.359zm8.236 0h-3.049v-17.862h3.049v17.862zm-3.316-22.6c0-.503.15-.92.449-1.262.31-.342.76-.513 1.348-.513.588 0 1.037.181 1.348.513.31.342.459.759.459 1.262 0 .492-.149.899-.459 1.23-.311.342-.76.503-1.348.503-.588 0-1.048-.161-1.348-.503-.299-.331-.449-.749-.449-1.23zm15.626 22.921c-2.428 0-4.385-.791-5.904-2.374-1.518-1.594-2.278-3.733-2.278-6.386v-.567c0-1.775.342-3.347 1.016-4.738.674-1.401 1.626-2.492 2.835-3.273a7.158 7.158 0 013.968-1.187c2.321 0 4.118.759 5.412 2.289 1.283 1.529 1.936 3.722 1.936 6.578v1.273h-12.097c.043 1.765.556 3.187 1.529 4.278.984 1.08 2.246 1.626 3.765 1.626 1.08 0 1.99-.225 2.738-.663.738-.428 1.401-1.027 1.968-1.744l1.861 1.455c-1.508 2.289-3.754 3.433-6.749 3.433zm-.374-16.011c-1.23 0-2.278.449-3.112 1.347-.835.888-1.348 2.15-1.551 3.765h8.952v-.235c-.096-1.551-.503-2.749-1.262-3.594-.738-.856-1.754-1.283-3.027-1.283zm13.787-2.182l.096 2.246c1.358-1.722 3.145-2.578 5.359-2.578 3.775 0 5.668 2.129 5.711 6.385v11.809h-3.048v-11.83c-.022-1.283-.31-2.235-.888-2.856-.578-.609-1.476-.92-2.695-.92-.984 0-1.861.268-2.61.792a5.369 5.369 0 00-1.743 2.086v12.728h-3.049v-17.862h2.867zm23.402 8.781c0-2.738.652-4.942 1.957-6.599 1.294-1.669 2.995-2.503 5.102-2.503 2.086 0 3.743.716 4.973 2.139v-9.305h3.049v25.359h-2.813l-.15-1.914c-1.219 1.497-2.92 2.246-5.102 2.246-2.064 0-3.754-.845-5.059-2.546-1.305-1.69-1.957-3.904-1.957-6.631v-.246zm3.048.353c0 2.032.428 3.604 1.262 4.749.834 1.144 1.99 1.722 3.466 1.722 1.936 0 3.347-.867 4.246-2.61v-8.204c-.909-1.679-2.321-2.524-4.204-2.524-1.508 0-2.663.578-3.508 1.733-.834 1.155-1.262 2.866-1.262 5.134zm27.809 8.738c-.171-.353-.321-.973-.417-1.882-1.423 1.476-3.123 2.203-5.091 2.203-1.755 0-3.198-.503-4.343-1.487-1.112-1.005-1.679-2.267-1.679-3.797 0-1.861.706-3.305 2.118-4.331 1.422-1.038 3.412-1.551 5.968-1.551h2.973v-1.412c0-1.059-.31-1.904-.952-2.535-.641-.642-1.583-.963-2.823-.963-1.091 0-2 .268-2.738.824-.738.545-1.113 1.209-1.113 1.989h-3.069c0-.887.32-1.743.952-2.577.641-.835 1.497-1.498 2.577-1.979 1.091-.481 2.278-.727 3.583-.727 2.054 0 3.669.513 4.835 1.551 1.176 1.026 1.775 2.438 1.818 4.246v8.214c0 1.647.203 2.952.62 3.915v.267h-3.219v.032zm-5.07-2.331c.963 0 1.861-.246 2.728-.738.855-.503 1.475-1.134 1.861-1.936v-3.658h-2.386c-3.743 0-5.615 1.101-5.615 3.283 0 .963.321 1.712.963 2.246.631.525 1.444.803 2.449.803zm15.327-15.541l.107 2.246c1.358-1.722 3.144-2.578 5.348-2.578 3.775 0 5.679 2.129 5.711 6.385v11.809h-3.048v-11.83c-.011-1.283-.31-2.235-.888-2.856-.577-.609-1.465-.92-2.684-.92-.995 0-1.861.268-2.61.792a5.188 5.188 0 00-1.743 2.086v12.728h-3.059v-17.862h2.866zm26.162 13.134c0-.823-.311-1.465-.942-1.914-.62-.471-1.7-.867-3.251-1.198-1.54-.332-2.77-.728-3.679-1.198-.899-.46-1.573-1.006-2.022-1.647-.417-.642-.642-1.402-.642-2.279 0-1.465.61-2.706 1.851-3.711 1.24-1.016 2.823-1.519 4.749-1.519 2.021 0 3.657.524 4.92 1.572 1.262 1.038 1.893 2.386 1.893 4.011h-3.07c0-.834-.353-1.561-1.069-2.16-.706-.61-1.594-.909-2.674-.909-1.113 0-1.979.246-2.61.727-.631.492-.941 1.112-.941 1.904 0 .727.288 1.283.877 1.658.577.374 1.636.727 3.155 1.069 1.529.342 2.77.749 3.711 1.22.952.481 1.658 1.048 2.107 1.722.46.663.685 1.476.685 2.427 0 1.594-.642 2.878-1.915 3.84-1.272.963-2.93 1.434-4.973 1.434-1.423 0-2.696-.257-3.797-.76-1.102-.503-1.968-1.209-2.588-2.118-.61-.909-.92-1.893-.92-2.952h3.048c.053 1.027.46 1.829 1.219 2.439.77.588 1.786.888 3.038.888 1.155 0 2.085-.236 2.781-.696.716-.438 1.059-1.069 1.059-1.85zm26.45 2.963c-1.187 1.401-2.931 2.096-5.23 2.096-1.904 0-3.348-.545-4.353-1.658-.995-1.112-1.498-2.748-1.508-4.909v-11.626h3.048v11.54c0 2.706 1.101 4.054 3.305 4.054 2.331 0 3.882-.866 4.652-2.61v-12.984h3.059v17.862h-2.909l-.064-1.765zm10.514-16.097l.107 2.246c1.358-1.722 3.144-2.578 5.348-2.578 3.775 0 5.679 2.129 5.711 6.385v11.809h-3.048v-11.83c-.011-1.283-.31-2.235-.888-2.856-.577-.609-1.465-.92-2.685-.92-.994 0-1.861.268-2.609.792a5.198 5.198 0 00-1.744 2.086v12.728h-3.059v-17.862h2.867zm39.285 9.134c0 2.738-.631 4.931-1.883 6.588-1.251 1.658-2.93 2.482-5.048 2.482-2.267 0-4-.802-5.241-2.396l-.149 2.064h-2.803v-25.359h3.049v9.455c1.23-1.53 2.93-2.289 5.101-2.289 2.172 0 3.872.813 5.102 2.46 1.252 1.636 1.872 3.882 1.872 6.738v.257zm-3.059-.353c0-2.075-.406-3.679-1.209-4.813-.802-1.134-1.957-1.701-3.465-1.701-2.011 0-3.455.931-4.342 2.813v7.723c.93 1.882 2.395 2.813 4.374 2.813 1.465 0 2.599-.567 3.423-1.701.813-1.145 1.219-2.845 1.219-5.134zm6.107-.011c0-1.743.342-3.316 1.027-4.717.695-1.401 1.658-2.481 2.877-3.24 1.23-.76 2.631-1.134 4.203-1.134 2.428 0 4.396.845 5.894 2.524 1.497 1.679 2.257 3.925 2.257 6.717v.214c0 1.733-.332 3.305-1.006 4.685-.652 1.379-1.604 2.449-2.856 3.219-1.23.77-2.652 1.155-4.256 1.155-2.428 0-4.386-.834-5.894-2.524-1.497-1.679-2.246-3.904-2.246-6.685v-.214zm3.07.364c0 1.979.46 3.572 1.369 4.77.92 1.198 2.16 1.808 3.701 1.808 1.55 0 2.78-.61 3.69-1.819.919-1.219 1.369-2.919 1.369-5.123 0-1.957-.471-3.54-1.402-4.749-.93-1.219-2.16-1.829-3.7-1.829-1.508 0-2.728.599-3.647 1.808-.92 1.176-1.38 2.898-1.38 5.134zm28.044 6.963c-1.187 1.401-2.931 2.096-5.23 2.096-1.893 0-3.348-.545-4.353-1.658-.984-1.112-1.498-2.748-1.498-4.909v-11.626h3.048v11.54c0 2.706 1.113 4.054 3.305 4.054 2.332 0 3.894-.866 4.664-2.61v-12.984h3.048v17.862h-2.909l-.075-1.765zm11.787-20.418v4.321h3.337v2.353h-3.337v11.081c0 .716.149 1.251.438 1.615.299.353.813.524 1.519.524.353 0 .834-.064 1.454-.193v2.482c-.812.214-1.583.331-2.353.331-1.358 0-2.395-.417-3.091-1.241-.695-.823-1.037-1.989-1.037-3.508v-11.081h-3.262v-2.353h3.262v-4.321h3.07v-.01zm5.775 13.091c0-1.743.342-3.316 1.027-4.717.695-1.401 1.658-2.481 2.877-3.24 1.23-.76 2.642-1.134 4.203-1.134 2.428 0 4.396.845 5.894 2.524 1.508 1.679 2.257 3.925 2.257 6.717v.214c0 1.733-.332 3.305-1.006 4.685-.652 1.379-1.604 2.449-2.856 3.219-1.23.77-2.652 1.155-4.256 1.155-2.428 0-4.386-.834-5.894-2.524-1.497-1.679-2.246-3.904-2.246-6.685v-.214zm3.07.364c0 1.979.46 3.572 1.369 4.77.92 1.198 2.16 1.808 3.701 1.808 1.55 0 2.78-.61 3.69-1.819.919-1.219 1.369-2.919 1.369-5.123 0-1.957-.471-3.54-1.402-4.749-.93-1.219-2.16-1.829-3.7-1.829-1.508 0-2.728.599-3.647 1.808-.92 1.176-1.38 2.898-1.38 5.134zm19.904-9.134l.097 2.246c1.369-1.722 3.155-2.578 5.358-2.578 3.776 0 5.68 2.129 5.712 6.385v11.809h-3.049v-11.83c-.01-1.283-.31-2.235-.887-2.856-.578-.609-1.466-.92-2.685-.92-.995 0-1.872.268-2.61.792a5.31 5.31 0 00-1.754 2.086v12.728h-3.048v-17.862h2.866zm16.386 19.937h-2.631l10.043-26.098h2.61l-10.022 26.098zm16.365-17.777c1.358-1.658 3.123-2.492 5.283-2.492 3.776 0 5.68 2.129 5.712 6.385v11.809h-3.049v-11.83c-.01-1.283-.31-2.235-.887-2.856-.578-.609-1.466-.92-2.696-.92-.984 0-1.861.268-2.599.792a5.31 5.31 0 00-1.754 2.086v12.728h-3.048v-25.36h3.048v9.658h-.01zm21.423 11.241l4.161-13.391h3.272l-7.176 20.622c-1.113 2.973-2.888 4.449-5.305 4.449l-.578-.042-1.134-.214v-2.482l.813.064c1.038 0 1.84-.203 2.417-.62.578-.428 1.059-1.187 1.434-2.3l.674-1.807-6.364-17.67h3.337l4.449 13.391zm25.263-4.267c0 2.727-.62 4.909-1.872 6.578-1.24 1.658-2.93 2.492-5.048 2.492-2.171 0-3.872-.685-5.123-2.064v8.599h-3.048v-24.729h2.791l.15 1.979c1.241-1.54 2.973-2.31 5.187-2.31 2.139 0 3.84.813 5.081 2.428 1.262 1.625 1.893 3.872 1.893 6.749v.278h-.011zm-3.059-.353c0-2.011-.428-3.605-1.294-4.77-.856-1.166-2.032-1.744-3.53-1.744-1.85 0-3.23.813-4.16 2.46v8.535c.92 1.626 2.31 2.439 4.203 2.439 1.466 0 2.621-.577 3.487-1.733.856-1.165 1.294-2.888 1.294-5.187zm14.364 9.412c-2.428 0-4.395-.791-5.904-2.374-1.518-1.594-2.278-3.733-2.278-6.386v-.567c0-1.775.343-3.347 1.006-4.738.684-1.401 1.636-2.492 2.845-3.273 1.219-.791 2.535-1.187 3.957-1.187 2.332 0 4.129.759 5.423 2.289 1.283 1.529 1.936 3.722 1.936 6.578v1.273h-12.108c.043 1.765.556 3.187 1.54 4.278.984 1.08 2.246 1.626 3.755 1.626 1.08 0 2-.225 2.738-.663.748-.428 1.411-1.027 1.968-1.744l1.871 1.455c-1.508 2.289-3.754 3.433-6.749 3.433zm-.385-16.011c-1.23 0-2.267.449-3.101 1.347-.835.888-1.348 2.15-1.551 3.765h8.941v-.235c-.085-1.551-.502-2.749-1.251-3.594-.749-.856-1.765-1.283-3.038-1.283zm19.537.566a9.435 9.435 0 00-1.5-.117c-2 0-3.36.845-4.08 2.556v12.675h-3.05v-17.862h2.98l.04 2.064c1-1.594 2.43-2.396 4.27-2.396.59 0 1.03.075 1.34.235v2.845zm6.14 15.124h-3.04v-25.359h3.04v25.359zm8.22 0h-3.05v-17.862h3.05v17.862zm-3.3-22.6c0-.503.14-.92.44-1.262.31-.342.76-.513 1.35-.513.6 0 1.05.181 1.35.513.31.342.47.759.47 1.262 0 .492-.16.899-.47 1.23-.3.342-.75.503-1.35.503-.59 0-1.04-.161-1.35-.503-.3-.331-.44-.749-.44-1.23zm15.62 22.921c-2.43 0-4.4-.791-5.92-2.374-1.51-1.594-2.27-3.733-2.27-6.386v-.567c0-1.775.33-3.347 1-4.738.69-1.401 1.63-2.492 2.84-3.273 1.22-.791 2.54-1.187 3.96-1.187 2.33 0 4.13.759 5.43 2.289 1.28 1.529 1.92 3.722 1.92 6.578v1.273h-12.09c.04 1.765.55 3.187 1.52 4.278 1 1.08 2.25 1.626 3.77 1.626 1.08 0 1.99-.225 2.74-.663.75-.428 1.4-1.027 1.97-1.744l1.87 1.455c-1.51 2.289-3.75 3.433-6.74 3.433zm-.39-16.011c-1.23 0-2.26.449-3.1 1.347-.83.888-1.36 2.15-1.56 3.765h8.95v-.235c-.08-1.551-.5-2.749-1.25-3.594-.74-.856-1.75-1.283-3.04-1.283zm13.79-2.182l.1 2.246c1.37-1.722 3.15-2.578 5.36-2.578 3.77 0 5.68 2.129 5.71 6.385v11.809h-3.05v-11.83c-.01-1.283-.31-2.235-.89-2.856-.58-.609-1.46-.92-2.69-.92-.99 0-1.87.268-2.6.792a5.333 5.333 0 00-1.76 2.086v12.728h-3.05v-17.862h2.87z" fill="#000"/><path fill-rule="evenodd" clip-rule="evenodd" d="M1201.28 362.683c-4.11-10.749-12.25-19.103-22.31-23.37-9.86-4.172-20.08-7.006-32.61-8.824-260.57-28.269-493.906-45.832-741.543-31.168-38.098 2.257-44.045 2.449-86.079 12.439a163.934 163.934 0 00-17.872 5.316c-13.273 4.781-29.862 10.172-41.553 20.055-5.904 5.743-7.979 8.931-9.861 11.198-4.086 5.434-8.289 12.439-11.68 23.349-6.62 28.365 2.77 64.442 38.312 77.341 71.682 32.89 168.917 26.291 265.552 27.82l314.356 4.963c76.731 1.209 155.918 2.225 227.388-12.001a59.62 59.62 0 011.97-.385l1.88-.363c45.1-8.921 97.17-13.381 114.69-67.812 3.81-11.84 4.09-24.76.08-36.526-.23-.706-.47-1.38-.72-2.032z" fill="#fff"/><path fill-rule="evenodd" clip-rule="evenodd" d="M1072.54 468.796c46.16-8.15 109.31-19.317 122.11-75.63.27-1.016.49-2.043.64-3.08.08-.396.15-.803.21-1.198.19-1.049.19-2.033 0-2.942-.26-6.888-3.66-13.701-10.54-19.145-.49-.396-1-.77-1.52-1.145-.12-.085-.25-.181-.37-.256-.28-.193-.55-.375-.83-.557-1.96-1.294-4.11-2.47-6.37-3.54-12.96-6.107-30.33-8.674-46.78-10.803-232.497-30.13-472.647-39.136-709.631-26.611-39.264 2.075-79.843 5.006-113.631 17.167-13.348 4.813-25.348 11.445-34.386 19.135a69.782 69.782 0 00-5.947 5.626c-5.99 6.417-9.936 13.37-11.038 20.493l-.321-.011c-12.46 18.065.236 45.96 34.248 56.977 68.602 28.087 169.537 30.868 262.011 32.173l300.837 4.235c73.437 1.027 149.218 1.893 217.618-10.246.63-.118 1.25-.225 1.88-.332l1.81-.31z" fill="#666"/><path fill-rule="evenodd" clip-rule="evenodd" d="M1072.54 447.073c46.16-7.519 109.31-17.83 122.11-69.812.27-.941.49-1.893.64-2.845.08-.363.15-.738.21-1.101.19-.963.19-1.872 0-2.717-.26-6.364-3.66-12.643-10.54-17.68-.49-.364-1-.706-1.52-1.059-.12-.075-.25-.171-.37-.246-.28-.182-.55-.343-.83-.514-1.96-1.198-4.11-2.278-6.37-3.262-12.96-5.637-30.33-8.011-46.78-9.968-232.497-27.809-472.658-36.12-709.631-24.569-39.264 1.915-79.843 4.621-113.631 15.852-13.348 4.438-25.348 10.556-34.386 17.658a66.662 66.662 0 00-5.947 5.198c-5.99 5.926-9.936 12.343-11.038 18.911l-.321-.011c-12.46 16.675.236 42.419 34.248 52.581 68.602 25.926 169.537 28.493 262.011 29.702l300.837 3.914c73.437.952 149.218 1.755 217.618-9.455.63-.107 1.25-.214 1.88-.299l1.81-.278z" fill="#CCC"/><path d="M1180.11 481.428l46.87-.171c8.1-.033 14.74-1.626 15.14-3.733 1.18-6.3 2.43-12.557 3.61-18.857.33-1.882.53-3.957-4.01-5.423-5.46-1.797-15.4-2.053-24.21-2.192-78.01-1.156-156.27-2.022-234.133-.418-31.862.642-69.767 0-101.694 0-25.67 0-45.157 1.124-70.762.706-181.271-3.037-347.802.952-544.346-1.968-19.68-.31-39.563-.813-58.719.45-4.738.278-9.209.812-12.043 1.796-3.358 1.177-3.615 2.749-3.69 4.215-.396 6.043-.727 12.107-1.112 18.15-.065 1.551-.065 3.209 3.358 4.471 8.289 3.059 30.012 1.915 38.772 2.3 16.717.674 33.306.759 50.227.588 206.683-2.16 403.686 3.99 605.492.62 22.899-.395 45.809-1.016 68.719-1.401 22.515-.342 45.091-.449 67.671-.567 46.66-.256 108.26 1.626 154.86 1.434z" fill="#fff"/><path d="M1167.12 471.93l45.67-.064c7.88-.011 14.36-.61 14.75-1.401 1.15-2.364 2.37-4.728 3.53-7.092.32-.706.51-1.486-3.92-2.043-5.32-.674-15-.77-23.6-.823-76.02-.439-152.28-.76-228.162-.161-31.05.246-67.992 0-99.096 0-25.017 0-44.001.428-68.954.268-176.65-1.145-338.925.363-530.462-.738-19.178-.118-38.548-.31-57.222.171-4.621.107-8.985.31-11.733.674-3.273.438-3.53 1.037-3.594 1.583-.385 2.267-.706 4.556-1.091 6.824-.064.577-.064 1.208 3.273 1.679 8.086 1.155 29.252.716 37.777.866 16.289.257 32.461.289 48.943.225 201.41-.813 393.387 1.497 590.048.235 22.322-.15 44.643-.385 66.965-.524 21.937-.128 43.938-.171 65.938-.214 45.49-.096 105.52.61 150.94.535z" fill="#D86C00"/><path d="M1024.06 452.859H1014.62v-5.69c0-21.712.27-43.842.5-63.212-.46-.235-.99-.46-1.53-.685-1.91-.845-4.08-1.829-6.22-3.519-4.62-3.625-9.286-9.711-14.292-18.653-7.914-14.108-6.92-28.28-5.957-41.96.802-11.733 1.604-22.857-3.519-32.985-2.909-5.733-6.995-10.857-11.316-16.247-5.155-6.461-10.514-13.113-14.182-21.36-5.466-12.343-13.071-36.12-2.45-56.752 6.075-11.808 15.06-19.915 23.766-27.745 1.337-1.23 2.717-2.449 4.086-3.711 4.695-4.321 8.332-9.669 12.193-15.37 2.749-4.054 5.611-8.257 8.941-12.193 12.04-14.108 27.98-22.74 43.68-23.691 12.91-.76 25 3.711 35.01 12.952 8.33 7.723 14.1 19.188 15.4 30.654.76 6.76-.99 11.006-2.52 14.718-.73 1.754-1.42 3.444-1.95 5.508-3.06 12.076-.19 24.344 2.82 37.339 4.25 18.151 8.6 36.879-3.36 55.95-1.79 2.909-3.74 5.391-5.57 7.829-3.52 4.589-6.53 8.568-8.18 14.022-2.18 7.306-3.44 14.835-4.78 22.782-1.22 7.22-2.45 14.718-4.47 22.055-1.76 6.418-4.32 12.119-6.76 17.584-2.26 5.048-4.4 9.819-5.88 15.017-.15.578-.35 1.187-.51 1.797-1.38 5.005-3.21 11.851-8.9 15.787-3.59 2.481-9.55 4.278-14.89 5.198-.15 7.455-.15 14.942-.15 22.279v8.14c0 4.054.46 8.064.99 12.311.61 5.198 1.26 10.589.99 16.247l-.26 5.123-5.13.267c-2.1.171-4.12.214-6.16.214zm27.14-332.425c-.73 0-1.46.032-2.18.075-12.5.727-25.83 8.096-35.74 19.723-2.94 3.444-5.46 7.187-8.18 11.198-4.05 5.958-8.257 12.151-13.915 17.349-1.38 1.262-2.791 2.524-4.16 3.786-8.29 7.487-16.162 14.557-21.285 24.494-3.626 7.037-8.096 22.514 2.717 46.901 3.059 6.877 7.722 12.685 12.653 18.846 4.513 5.615 9.166 11.423 12.61 18.225 6.54 12.921 5.615 26.141 4.738 38.912-.877 12.578-1.722 24.461 4.542 35.617 4.21 7.487 8.03 12.61 11.39 15.252 1.07.845 2.38 1.412 3.87 2.096 1.94.877 4.16 1.872 6.26 3.637l1.42 1.219 1.94-.118c5.42-.31 12.03-2.256 14.33-3.818 2.26-1.562 3.41-5.69 4.4-9.359.19-.684.39-1.337.53-1.989 1.73-5.958 4.13-11.348 6.47-16.547 2.4-5.348 4.66-10.353 6.15-15.936 1.82-6.771 3.05-13.948 4.2-20.911 1.34-7.947 2.72-16.161 5.08-24.151 2.21-7.487 6.19-12.685 10.05-17.691 1.8-2.331 3.48-4.545 5.01-6.952 9.43-15.017 5.76-30.686 1.91-47.275-3.21-13.755-6.5-27.938-2.79-42.73.73-2.909 1.65-5.123 2.48-7.07 1.34-3.252 2.18-5.241 1.72-9.059-1.02-8.867-5.42-17.659-11.85-23.585-7.13-6.77-15.34-10.139-24.37-10.139z" fill="#fff"/><path d="M1020.29 447.169c0-51.329 1.38-102.658 1.38-154.019 0-10.054-1.61-21.36 0-31.307.87-5.508-.5-3.861 4.16-5.54 2.33-.845 6.42-1.027 8.94-.578 1.56 32.676-.12 66.496-4.43 98.829-2.79 20.985-2.37 43.072-2.4 64.282-.05 9.626 2.44 18.653 1.98 28.28-3.18.085-6.42.053-9.63.053z" fill="#16351C"/><path d="M1022.69 382.919c-2.86-4.353-7.75-4.513-11.8-7.679-5.13-4.011-9.7-11.348-12.849-16.932-13.755-24.536 2.669-50.944-9.359-74.72-6.802-13.381-19.07-23.082-25.38-37.339-7.102-15.969-10.857-35.778-2.599-51.822 6.502-12.61 16.621-20.675 26.632-29.852 8.749-8.021 13.945-19.027 21.625-28.055 18.03-21.177 47.93-31.146 70.51-10.246 7.41 6.877 12.46 17.081 13.6 27.135.92 8.097-2.52 10.974-4.32 18.194-7.83 31.028 19.03 61.607.15 91.652-5.05 8.064-11.54 13.605-14.41 23.274-4.32 14.6-5.19 30.151-9.25 44.944-3.21 11.69-9.36 21.092-12.65 32.526-1.41 4.888-2.63 11.348-7.19 14.482-4.55 3.144-16.9 5.968-22.71 4.438z" fill="#2C8354"/><path d="M1023.57 383.529c-.34 0-.68-.043-.99-.15-1.61-.502-2.56-2.096-2.29-3.743 5.39-33.403.46-63.897-15.14-93.289-2.06-3.893-3.81-7.915-5.537-11.808-1.679-3.786-3.401-7.722-5.348-11.391-1.561-2.941-3.283-5.883-5.155-8.985-3.358-5.69-6.877-11.615-9.252-17.616-1.754-4.428-2.096-9.476-2.406-14.375-.225-3.668-.46-7.145-1.262-9.893a3.314 3.314 0 012.257-4.161c1.796-.535 3.668.503 4.16 2.257 1.027 3.476 1.294 7.53 1.53 11.391.267 4.353.577 8.835 1.946 12.311 2.182 5.508 5.541 11.155 8.792 16.664 1.797 3.059 3.669 6.193 5.315 9.252 2.07 3.893 3.86 7.915 5.54 11.808 1.68 3.786 3.4 7.679 5.35 11.391 10.86 20.525 16.81 42.195 17.81 64.699.72-5.658 1.18-11.766 1.41-18.344.46-13.754-3.13-28.012-6.61-41.809-2.79-11.049-5.66-22.472-6.54-33.821-1.38-17.583.46-37.028 5.2-54.805 5.35-20.108 14.07-36.879 25.19-48.58 1.26-1.337 3.4-1.412 4.74-.118 1.34 1.262 1.41 3.401.12 4.738-23.04 24.194-30.96 67.876-28.55 98.22.84 10.781 3.67 21.937 6.38 32.718 3.6 14.258 7.31 28.975 6.81 43.682-.76 21.969-4.16 38.943-10.4 51.821a3.44 3.44 0 01-3.07 1.936z" fill="#16351C"/><path d="M1023.3 385.786c-.99 0-1.99-.46-2.63-1.294-1.14-1.455-.87-3.551.57-4.706 10.93-8.6 18.39-15.253 22.66-28.697 4.16-13.263 2.34-26.023.39-39.553-.42-3.017-.88-6.118-1.26-9.209-1.61-13.113-2.38-28.248 4.13-41.233 4.62-9.252 12.3-16.428 19.75-23.391 2.33-2.182 4.51-4.204 6.61-6.311 1.29-1.294 3.43-1.294 4.74 0 1.3 1.294 1.3 3.444 0 4.738-2.18 2.182-4.51 4.353-6.76 6.503-7 6.535-14.22 13.306-18.3 21.477-5.69 11.392-4.97 25.296-3.48 37.414.39 3.059.8 6.118 1.23 9.092 1.99 13.648 4.01 27.788-.65 42.494-4.81 15.285-13.38 22.889-24.92 31.991-.62.418-1.35.685-2.08.685z" fill="#16351C"/><path d="M959.601 458.261H953.494v-3.669c0-13.99.15-28.248.342-40.698-.299-.149-.652-.31-.995-.459-1.219-.535-2.641-1.188-4.01-2.257-2.985-2.332-6.001-6.268-9.209-12.001-5.081-9.091-4.471-18.226-3.862-27.018.535-7.572 1.027-14.717-2.256-21.252-1.872-3.712-4.514-6.995-7.295-10.471-3.326-4.172-6.77-8.45-9.134-13.755-3.519-7.947-8.407-23.242-1.561-36.537 3.893-7.605 9.701-12.803 15.326-17.851.877-.76 1.765-1.562 2.642-2.375 3.016-2.791 5.391-6.225 7.872-9.893 1.797-2.631 3.626-5.316 5.776-7.83 7.754-9.091 18.001-14.642 28.13-15.252 8.299-.503 16.097 2.407 22.546 8.332 5.344 4.963 9.084 12.343 9.924 19.755.49 4.354-.64 7.07-1.63 9.477-.48 1.144-.92 2.214-1.27 3.551-1.95 7.797-.13 15.669 1.83 24.033 2.73 11.691 5.54 23.777-2.18 36.045-1.13 1.872-2.4 3.476-3.58 5.049-2.26 2.941-4.206 5.508-5.276 9.016-1.412 4.696-2.225 9.551-3.07 14.675-.77 4.663-1.561 9.476-2.845 14.182-1.155 4.129-2.802 7.798-4.363 11.316-1.455 3.252-2.824 6.343-3.787 9.67-.117.385-.235.759-.31 1.187-.877 3.208-2.064 7.647-5.733 10.161-2.331 1.604-6.15 2.749-9.594 3.358-.075 4.781-.075 9.626-.075 14.333v5.23c0 2.642.311 5.198.653 7.915.417 3.326.802 6.802.652 10.471l-.149 3.326-3.327.15c-1.433.086-2.77.086-4.075.086zm17.466-214.098c-.46 0-.92 0-1.412.032-8.021.46-16.621 5.241-23.006 12.685-1.872 2.214-3.519 4.621-5.273 7.22-2.599 3.861-5.316 7.829-8.984 11.156-.877.844-1.797 1.647-2.674 2.449-5.348 4.813-10.397 9.359-13.68 15.787-2.332 4.546-5.198 14.482 1.754 30.237 1.989 4.428 4.963 8.182 8.139 12.118 2.91 3.626 5.883 7.338 8.097 11.733 4.203 8.333 3.626 16.857 3.059 25.071-.578 8.108-1.112 15.745 2.899 22.932 2.716 4.813 5.155 8.097 7.337 9.819.684.535 1.529.92 2.481 1.337 1.262.567 2.674 1.219 4.011 2.332l.92.759 1.262-.075c3.476-.192 7.754-1.454 9.209-2.481 1.455-.995 2.182-3.669 2.824-6.043.117-.418.224-.877.342-1.262 1.112-3.862 2.674-7.306 4.16-10.664 1.53-3.444 2.985-6.685 3.979-10.247 1.187-4.353 1.947-8.984 2.717-13.455.834-5.123 1.754-10.396 3.251-15.552 1.423-4.813 3.968-8.182 6.471-11.391 1.134-1.487 2.204-2.898 3.188-4.471 6.082-9.669 3.712-19.755 1.24-30.461-2.075-8.867-4.203-18.001-1.807-27.521.47-1.871 1.059-3.283 1.604-4.545.885-2.107 1.415-3.359 1.115-5.851-.644-5.69-3.489-11.391-7.597-15.209-4.545-4.268-9.818-6.439-15.626-6.439z" fill="#fff"/><path d="M957.163 454.592c0-33.061.877-66.121.877-99.214 0-6.503-1.027-13.755 0-20.14.567-3.519-.311-2.482 2.674-3.594 1.486-.535 4.128-.653 5.775-.385.995 21.06-.075 42.847-2.866 63.629-1.797 13.53-1.53 27.745-1.572 41.393 0 6.193 1.572 12 1.262 18.225-1.99.118-4.086.086-6.15.086z" fill="#16351C"/><path d="M958.724 413.231c-1.872-2.791-5.005-2.909-7.604-4.93-3.284-2.6-6.268-7.338-8.257-10.932-8.867-15.787 1.722-32.836-6.043-48.12-4.354-8.631-12.268-14.867-16.354-24.033-4.589-10.279-6.995-23.05-1.679-33.361 4.16-8.096 10.695-13.294 17.155-19.22 5.658-5.198 8.985-12.268 13.916-18.076 11.615-13.648 30.878-20.065 45.403-6.578 4.779 4.439 8.019 11.006 8.759 17.466.57 5.199-1.6 7.07-2.79 11.734-5.05 19.99 12.28 39.67.13 59.008-3.265 5.199-7.479 8.75-9.308 14.985-2.77 9.402-3.359 19.413-5.958 28.932-2.064 7.53-6.043 13.573-8.139 20.943-.92 3.134-1.679 7.305-4.62 9.327-2.91 2.021-10.857 3.818-14.611 2.855z" fill="#2C8354"/><path d="M959.259 413.616c-.225 0-.417-.042-.653-.117-1.027-.3-1.647-1.337-1.486-2.407 3.476-21.52.267-41.157-9.744-60.078-1.337-2.524-2.482-5.123-3.594-7.605-1.069-2.449-2.182-4.973-3.444-7.337-.995-1.872-2.139-3.787-3.326-5.776-2.182-3.669-4.428-7.487-5.958-11.348-1.144-2.867-1.337-6.118-1.529-9.252-.15-2.375-.31-4.589-.845-6.385-.342-1.145.299-2.375 1.454-2.674 1.145-.343 2.364.31 2.674 1.454.685 2.257.835 4.856.995 7.338.193 2.791.342 5.69 1.262 7.914 1.412 3.551 3.551 7.188 5.658 10.739 1.145 1.947 2.375 3.979 3.401 5.968 1.337 2.524 2.482 5.124 3.594 7.605 1.07 2.449 2.182 4.974 3.433 7.337 6.995 13.22 10.814 27.178 11.466 41.693.46-3.626.76-7.573.92-11.809.31-8.866-2.022-18.043-4.246-26.942-1.797-7.113-3.626-14.45-4.204-21.788-.877-11.316.311-23.851 3.327-35.274 3.444-12.921 9.059-23.766 16.236-31.296.845-.877 2.182-.92 3.059-.075.877.834.92 2.182.075 3.059-14.825 15.594-19.916 43.724-18.386 63.255.535 6.952 2.374 14.14 4.085 21.06 2.289 9.177 4.696 18.653 4.396 28.13-.502 14.182-2.674 25.071-6.684 33.403-.332.748-1.134 1.208-1.936 1.208z" fill="#16351C"/><path d="M959.109 415.071a2.164 2.164 0 01-1.722-.834c-.727-.952-.578-2.289.342-3.017 7.038-5.54 11.851-9.829 14.6-18.493 2.674-8.567 1.497-16.781.267-25.456-.267-1.946-.567-3.936-.802-5.968-1.027-8.449-1.529-18.193 2.674-26.557 2.984-5.969 7.915-10.589 12.728-15.06 1.486-1.412 2.92-2.717 4.246-4.086a2.15 2.15 0 013.048 0 2.163 2.163 0 010 3.059 144.038 144.038 0 01-4.353 4.161c-4.503 4.203-9.166 8.567-11.808 13.84-3.668 7.337-3.176 16.279-2.257 24.076.225 1.947.535 3.936.803 5.851 1.262 8.792 2.556 17.883-.418 27.36-3.091 9.861-8.599 14.749-16.054 20.6a1.784 1.784 0 01-1.294.524z" fill="#16351C"/><path d="M820.857 453.961c13.958 0 27.958-.439 41.895.331 11.006.599 21.947 2.931 32.91 3.979 7.915.76 17.638.546 22.675-8.31 7.755-13.616 2.129-34.473-11.487-37.553-6.524-1.476-6.524-1.476-13.979-.139-6.706-14.761-16.14-22.472-28.836-24.782-6.257-1.134-13.776.481-14.781 9.401.706-3.861-2.706-8.995-5.316-11.252-6.845-5.893-23.07-5.54-31.146-2.567-11.252 4.15-16.867 12.14-18.835 25.114-6.685.289-12.877-.727-17.156 6.503-2.406 4.064-3.091 9.059-3.583 13.904-.706 6.889-.877 11.98 2.246 17.574 5.594 10.022 18.183 8.235 27.178 8.225 5.883 0 11.626.438 18.215-.428z" fill="#fff"/><path d="M823.744 447.811c12.429 0 24.911-.321 37.318.246 9.797.449 19.551 2.171 29.316 2.952 7.06.556 15.712.406 20.205-6.172 6.909-10.107 1.893-25.605-10.236-27.884-5.819-1.09-10.578.182-15.006 3.252-2.781-11.273-11.83-19.103-23.146-20.814-5.572-.845-13.252 1.39-14.139 8.011.62-2.866-7.691-9.23-10.022-10.899-6.107-4.385-14.611-5.53-21.798-3.316-10.022 3.081-14.717 10.996-16.471 20.633-5.958.214-11.477-.535-15.284 4.823-2.15 3.017-2.749 6.728-3.198 10.333-.631 5.112-.781 8.898 2 13.048 4.984 7.445 16.193 6.118 24.215 6.108 5.251-.011 10.374.321 16.246-.321z" fill="#013507"/><path d="M736.489 456.688c10.653 0 21.338-.331 31.98.246 8.396.46 16.75 2.236 25.124 3.038 6.043.578 13.456.417 17.306-6.343 5.925-10.396 1.626-26.322-8.77-28.664-4.985-1.123-4.985-1.123-10.675-.107-5.123-11.263-12.321-17.156-22.011-18.921-4.771-.867-10.525.363-11.284 7.177.535-2.952-2.065-6.867-4.065-8.589-5.23-4.503-17.615-4.236-23.776-1.957-8.589 3.166-12.878 9.273-14.375 19.177-5.102.225-9.829-.556-13.092 4.963-1.839 3.102-2.363 6.91-2.738 10.621-.534 5.262-.663 9.145 1.722 13.412 4.268 7.659 13.883 6.29 20.75 6.279 4.481-.011 8.867.321 13.904-.332z" fill="#fff"/><path d="M738.692 451.993c9.488 0 19.017-.246 28.494.182 7.487.342 14.92 1.657 22.386 2.256 5.39.428 11.99.311 15.423-4.706 5.273-7.722 1.444-19.541-7.819-21.284-4.438-.835-8.075.139-11.455 2.481-2.128-8.599-9.038-14.578-17.669-15.894-4.257-.642-10.118 1.059-10.792 6.118.481-2.193-5.872-7.048-7.647-8.321-4.664-3.348-11.145-4.214-16.643-2.524-7.647 2.353-11.241 8.396-12.578 15.744-4.545.16-8.76-.407-11.669 3.69-1.636 2.31-2.107 5.134-2.438 7.883-.482 3.904-.589 6.791 1.529 9.968 3.797 5.68 12.364 4.664 18.482 4.664 4-.022 7.915.224 12.396-.257z" fill="#2C8354"/><path d="M443.428 311.279c12.054-.834 24.13-2.032 36.216-2.203 9.541-.139 19.135 1.23 28.675 1.486 6.888.182 15.263-.577 19.103-8.524 5.893-12.226-.214-29.916-12.161-31.756-5.723-.888-5.723-.888-12.087.706-6.674-12.354-15.273-18.461-26.386-19.702-5.465-.61-11.883 1.23-12.214 8.995.374-3.38-2.867-7.615-5.262-9.401-6.268-4.685-20.269-3.423-27.071-.364-9.477 4.257-13.851 11.498-14.782 22.825-5.765.652-11.166.139-14.428 6.631-1.84 3.658-2.128 8.011-2.268 12.236-.203 5.99-.042 10.397 2.985 15.049 5.422 8.332 16.193 6.033 23.969 5.487 5.069-.374 10.064-.331 15.711-1.465z" fill="#fff"/><path d="M445.557 305.781c10.738-.738 21.498-1.754 32.258-2.011 8.492-.192 17.016.717 25.509.813 6.128.064 13.594-.588 17.091-6.535 5.37-9.145.118-22.236-10.503-23.488-5.091-.599-9.134.781-12.77 3.701-3.07-9.573-11.359-15.798-21.242-16.611-4.866-.395-11.369 1.99-11.744 7.765.375-2.513-7.198-7.519-9.305-8.824-5.53-3.422-12.952-3.904-19.038-1.561-8.482 3.262-12.065 10.375-13.006 18.803-5.134.546-9.947.214-12.92 5.081-1.68 2.738-1.979 5.979-2.15 9.112-.236 4.461-.139 7.733 2.502 11.156 4.749 6.14 14.354 4.321 21.285 3.84 4.546-.31 8.995-.332 14.033-1.241z" fill="#013507"/><path d="M370.687 318.638c9.209-.631 18.418-1.551 27.648-1.68 7.284-.107 14.611.942 21.884 1.134 5.262.139 11.658-.438 14.578-6.514 4.503-9.326-.16-22.835-9.284-24.247-4.374-.674-4.374-.674-9.23.535-5.091-9.423-11.659-14.097-20.14-15.039-4.171-.47-9.07.942-9.327 6.867.289-2.578-2.192-5.808-4.021-7.177-4.781-3.583-15.466-2.61-20.664-.278-7.231 3.252-10.578 8.771-11.284 17.424-4.396.492-8.525.107-11.017 5.069-1.401 2.792-1.626 6.108-1.733 9.338-.149 4.578-.032 7.936 2.279 11.487 4.139 6.364 12.364 4.61 18.3 4.193 3.893-.267 7.701-.246 12.011-1.112z" fill="#fff"/><path d="M372.313 314.445c8.204-.567 16.418-1.337 24.632-1.53 6.482-.149 12.995.546 19.477.621 4.674.053 10.375-.45 13.049-4.985 4.096-6.984.085-16.974-8.011-17.926-3.883-.46-6.974.599-9.744 2.824-2.343-7.305-8.674-12.065-16.215-12.675-3.711-.299-8.674 1.519-8.963 5.926.278-1.925-5.487-5.733-7.102-6.738-4.224-2.61-9.882-2.985-14.535-1.198-6.471 2.492-9.209 7.915-9.936 14.353-3.926.418-7.594.172-9.862 3.872-1.283 2.086-1.508 4.557-1.636 6.963-.182 3.402-.107 5.904 1.914 8.514 3.626 4.685 10.963 3.294 16.247 2.931 3.444-.246 6.845-.257 10.685-.952z" fill="#2C8354"/><path d="M519.314 254.238c-4.107 7.049-5.893 15.584-13.541 19.574-8.941 4.663-19.562 1.144-29.883.673-27.37-1.262-60.527 18.269-71.426 40.923-4.3 8.952-6.161 18.696-7.187 28.408-2.877 27.349 6.396 54.709 27.498 74.528 8.706 8.182 15.37 17.07 21.456 26.996 2.31 3.754 4 8.15 7.989 10.493 2.706 1.583 6.033 1.946 9.241 2.214a365.911 365.911 0 0049.5.909c5.84-.289 12.14-.888 16.482-4.417 8.599-6.985 4.128-19.445 3.54-29.874-.652-11.305 4.503-22.782 13.701-30.504.332 6.406 6.953 12.011 14.065 11.915 2.129-.032 4.278-.492 6.353-.054 5.327 1.134 6.899 7.038 8.717 11.691 7.904 20.236 36.986 28.408 59.789 22.226 7.316-1.979 14.397-5.209 19.563-10.279 9.914-9.712 11.112-24.087 11.797-37.264.417-8.097.845-16.204 1.251-24.301 5.327 1.273 8.739 5.754 12.675 9.209 10.342 9.059 26.749 11.616 40.279 7.091 13.53-4.524 23.873-15.562 27.627-28.108 2.824-9.423 2.246-19.616 6.364-28.643 9.07 5.829 20.365 8.813 31.499 8.332 9.123-.396 18.332-3.22 24.964-8.878 7.241-6.171 9.829-11.797 12.321-20.482 2.139-7.423 2.096-13.605.792-21.189-1.305-7.583-4.215-19.755-11.755-23.317-3.337-1.572-10.771-6.46-13.69-8.61-8.792-6.46 1.272-26.868-4.942-31.028-14.065-9.413-21.84-10.557-37.124-12.857-5.552-.834-6.193 4.011-8.589 2.931-1.487-.674-3.765-7.904-4.909-8.984-5.626-5.273-14.087-10.942-20.964-7.06-3.925 2.214-8.332 9.445-10.706 13.028-7.947 12.011-18.932 6.471-29.285 8.417-13.509 2.535-23.691 11.777-34.494 1.787-2.16-1.99-5.369-2.995-8.428-3.327-5.594-.609-10.481 3.573-13.145 8.043-2.663 4.471-9.647 20.087-15.22 19.424-32.899-3.829-47.157 10.343-54.494 7.69-8.097-2.93-8.76-11.241-17.391-12.086-10.546-1.005-15.787 7.049-20.29 14.76z" fill="#fff"/><path d="M746.137 232.804a343.798 343.798 0 00-1.187 54.024c.16 2.781.353 5.573.813 8.322.534 3.166 1.604 6.546 4.449 8.471 3.861 2.62 9.252 1.583 14.086 1.636 4.835.064 9.583 1.369 14.418 1.369 4.834 0 10.225-1.786 12.043-5.829.535-1.187.717-2.471.845-3.743.631-6.707-.331-13.434-.46-20.173-.075-3.658.107-7.305.268-10.963.481-10.107.952-20.215 1.433-30.323.139-2.93.256-5.968-.845-8.727-1.38-3.444-4.546-6.108-8.107-7.862-3.562-1.754-7.53-2.706-11.455-3.647-2.899-.695-5.798-1.38-8.696-2.075-2.064-.492-4.225-.995-6.31-.567-8.375 1.658-10.653 13.873-11.295 20.087z" fill="#fff"/><path d="M790.096 244.847a315.94 315.94 0 00-.909 44.773c.225 4.407.267 9.701-2.161 12.172-1.176 1.198-2.673 1.38-4.096 1.486-9.113.674-18.247-.139-27.37-.962-1.604-.15-3.305-.332-4.631-1.69-2.193-2.246-2.631-6.76-2.803-10.749a483.431 483.431 0 01.139-47.885c.182-3.551.589-7.573 2.535-9.584 4.995-5.123 17.135-1.273 23.188-1.422 8.183-.193 17.349-2.963 16.108 13.861z" fill="#F98E12"/><path d="M761.614 228.119c.887.118 1.754.31 2.631.471 3.283.588 6.653.62 10 .652 1.316.011 2.631.022 3.947-.096 1.305-.128 2.62-.385 3.925-.246 2.214.235 4.118 1.583 6.311 1.957.492.086 1.112.054 1.337-.342.075-.139.085-.299.107-.449l.064-.931c.043-.62.053-1.315-.46-1.732-.385-.311-.952-.353-1.476-.386-6.535-.363-12.91-1.829-19.252-3.283l-3.626-.834c-2.342-.535-4.685-1.081-6.92-1.904-.482-.182-.974-.375-1.487-.482-2.214-.47-4.546.824-5.69 2.589-1.144 1.775-1.326 3.914-1.219 5.968.042.888.535 1.455 1.476.931.278-.161.438-.46.748-.621.535-.278 1.295-.385 1.883-.545 2.471-.653 5.102-1.059 7.701-.717zM756.052 216.076c.31-.343.631-.685 1.037-.963 1.027-.706 2.428-.802 3.722-.716 2.236.16 4.396.791 6.525 1.422.16.043.31.096.449.182.417.257.513.791.374 1.23-.139.438-.47.791-.759 1.166a11.4 11.4 0 00-1.53 2.503c-.085.203-.181.417-.385.545-.256.16-.609.096-.909.043a18.865 18.865 0 01-3.176-.995c-1.851-.759-3.765-1.904-5.872-1.722-.674.064-1.583.524-1.262-.385.288-.845 1.176-1.647 1.786-2.31z" fill="#D86C00"/><path d="M768.277 218.643c-.502.706-.748 1.551-.845 2.385-.021.224-.053.46.065.663.171.331.62.449 1.005.535 1.882.417 3.775.845 5.647 1.273.631.139 1.273.288 1.904.417a111.75 111.75 0 0012.204 1.936c.289.032.577.053.845-.022.267-.085.513-.299.492-.567-.022-.267-.257-.449-.492-.599-2.032-1.39-4.075-2.791-6.396-3.722a43.473 43.473 0 00-1.947-.706c-1.626-.556-3.251-1.101-4.877-1.658-2.385-.812-5.818-2.449-7.605.065z" fill="#F98E12"/><path d="M758.469 233.649c-1.048-.043-2.139-.086-3.091.31-1.155.481-1.893 1.519-2.492 2.535-.321.545-.631 1.102-.823 1.69-.332.995-.332 2.064-.332 3.112 0 2.172.011 4.343.011 6.514 0 1.305.042 2.706.93 3.744 1.102 1.272 3.091 1.518 4.877 1.657 7.637.589 15.284.984 22.953 1.027.984.011 2.022 0 2.909-.363.578-.236 1.081-.664 1.348-1.177.214-.438-.15-.93-.674-.941l-7.765-.161c-1.444-.032-1.722-.075-3.166-.096-1.133-.021-2.374-.011-3.208-.064-1.273-.075-1.605-.043-3.027-.289-1.54-.267-2.524-.706-3.551-1.775-.321-.332-.653-.963-.792-1.38-.855-2.792-1.037-3.754-.47-5.765.641-2.278 2.845-3.883 6.824-3.872 1.208 0 4.406-.289 5.615-.353 4.909-.246 8.032-1.316 9.594-2.214.31-.182.396-.257.503-.449.267-.524-.172-.888-.61-1.113-2.407-1.262-6.161-.374-8.781-.278-3.562.129-7.134.075-10.707-.042-2.043-.075-4.064-.172-6.075-.257z" fill="#FFF2EA"/><path d="M775.315 239.382c-.342 0-.802.064-.802.331-.011.107.075.204.16.3.589.61 1.305 1.166 1.669 1.861.203.406.289.845.321 1.283.139 1.744-.717 3.979-2.557 4.974-1.433.781-3.476 1.038-5.198.77-.887-.139-1.743-.663-2.438-.503-.097.022-.139.139-.139.214 0 .097.074.214.139.278.524.503 1.54.653 2.353.717 5.722.503 10.685-.203 16.118.278.481.043 1.08.043 1.294-.278.075-.118.075-.257.086-.396a77.34 77.34 0 00-.096-6.278 31.158 31.158 0 01-.043-2.974c.021-.663-.054-1.508-.075-2.171 0-.246-.075-.684-.524-.674-.268.011-.749.417-1.006.524-.941.385-1.914.706-2.919.974a24.618 24.618 0 01-6.343.77z" fill="#FFF2EA"/><path d="M770.298 239.585c1.626.246 3.102 1.134 3.968 2.385.225.321.407.685.46 1.059.043.364-.042.738-.128 1.091-.214.856-.481 1.733-1.08 2.428-1.305 1.54-3.872 1.733-5.84 1.027-1.005-.364-1.957-.941-2.492-1.808-.364-.577-.514-1.251-.578-1.914-.353-3.134 2.396-4.76 5.69-4.268z" fill="#D86C00"/><path d="M774.213 326.221c-3.059-2.032-5.615-4.492-7.679-7.359-1.658-2.331-3.316-5.39-4.985-9.155-1.262-3.23-2.096-6.792-2.492-10.685a32.735 32.735 0 01-.299-4.407c0-2.514.16-4.728.502-6.642 1.327-7.359 4.45-13.862 9.37-19.488 2.717-3.112 5.915-5.476 9.573-7.102 3.657-1.615 7.379-2.428 11.155-2.428 9.241 0 16.482 4.492 21.734 13.466a37.053 37.053 0 011.989 5.123c.075.3.16.567.3.813 1.529 4.845 2.299 9.733 2.299 14.643 0 8.385-2.064 16.076-6.182 23.081a24.919 24.919 0 01-8.075 9.156c-4.589 2.995-9.53 4.492-14.856 4.492-4.247-.011-8.364-1.176-12.354-3.508zm19.038-16.087c3.262-5.39 4.888-11.016 4.888-16.877a34.3 34.3 0 00-.599-6.375 33.097 33.097 0 00-2.941-9.434c-1.433-2.941-3.038-4.407-4.834-4.407-1.658 0-3.947 1.145-6.878 3.412-1.465 1.369-2.877 3.316-4.235 5.798-1.359 2.481-2.246 4.962-2.642 7.412-.267 1.369-.396 2.995-.396 4.845 0 .963.107 1.947.3 2.963l.107.278c.331 2.15 1.101 4.642 2.299 7.455v.182a16.992 16.992 0 001.701 3.048c2.064 3.358 3.658 5.241 4.781 5.658 1.123.417 1.861.631 2.192.631 1.712-.011 3.808-1.53 6.257-4.589z" fill="#666"/><path d="M641.608 275.245c.204 6.278 1.434 12.493 3.69 18.653 2.856 8.097 7.209 15.349 13.06 21.734.203.182.363.385.503.621 5.048 4.93 9.946 8.406 14.706 10.428 4.749 2.021 9.658 3.038 14.707 3.038 3.861 0 7.679-.503 11.465-1.498 8.835-2.471 16.375-7.765 22.622-15.926 2.855-3.519 5.283-7.647 7.283-12.407 2.632-6.375 4.214-13.049 4.749-20.012l.011.011a89.367 89.367 0 012.182 3.775l3.037 5.348c.717 1.177 2.108 3.712 4.172 7.637l.994 1.722c.396.653.717 1.145.984 1.519.193.374.482.727.888 1.048.332.278.717.492 1.166.631.931.289 2.086.268 3.487-.064l5.294-1.134c.385-.064.77-.139 1.145-.235 3.219-.642 6.096-1.08 8.631-1.326 1.85-.193 4.161-.332 6.942-.45.898.011 2.834.075 5.797.193.705.011 2.032.075 3.978.225 3.369.278 5.915.331 7.616.16 1.037-.096 2-.396 2.887-.877l.139-.096c.578-.385.92-.663 1.017-.824.096-.16.267-.577.534-1.283.182-.482.311-.963.385-1.423.161-1.059-.459-2.332-1.882-3.786-.856-.835-1.551-1.433-2.086-1.776a33.673 33.673 0 00-3.219-2.342l-.62-.46c-.375-.171-1.658-1.005-3.872-2.503-3.53-2.192-6.354-3.829-8.503-4.931-4.011-2.449-8.033-4.888-12.044-7.337-.973-.588-2.053-1.198-3.166-1.529l2.46-4.011 1.765-2.878.556-.909 2.386-3.978c.93-1.669 1.401-2.546 1.433-2.621.032-.075.406-.813 1.134-2.214.128-.214.224-.417.31-.61 5.198.653 7.765 1.637 7.808 1.647a5.28 5.28 0 002.117.45c1.166 0 2.492-.407 3.434-1.754 1.786-2.535.438-4.332-.524-4.931-7.274-4.567-26.675-4.321-30.162-3.54-4.011.909-4.129 3.091-4.097 3.668-.075 1.519.631 2.417 1.241 2.909 1.797 1.455 4.834 1.134 5.401 1.059 2.172-.096 4.15-.117 6.001-.096l-1.562 2.246c-1.39 2.107-2.792 4.214-4.182 6.332l-.759 1.252a137.741 137.741 0 00-2.845 4.47 189.653 189.653 0 00-5.872 10.311c-.236.439-.524.995-.888 1.69-1.797-3.669-3.113-6.257-3.904-7.712-2.396-4.524-5.145-9.85-7.294-14.279-2.3-4.748-4.696-9.059-5.723-10.599l-.973-1.583c-2.075-2.781-4-5.883-8.129-9.776a4.885 4.885 0 00-.235-.225c-.107-.074-.192-.149-.289-.224-.117-.107-.235-.236-.363-.332-.107-.096-.225-.171-.343-.267.482-.824.942-1.637 1.444-2.471l5.637-9.305 1.936-3.198.609-.995 2.621-4.407c.075-.149.16-.278.224-.417 3.402 4.899 3.733 8.14 3.733 8.172 0 .075.022 1.262 1.07 2.021.374.278.973.546 1.861.546.289 0 .599-.032.941-.096 3.583-.685 3.99-2.963 4-3.059 1.113-6.707-7.326-16.622-9.615-18.034-2.268-1.401-4.268-.684-5.07-.064-.727.449-1.262.952-1.626 1.487-.085.096-.181.171-.256.278-.674.845-1.209 1.583-1.583 2.214l-1.872 2.738-4.588 7.027-.845 1.38a167.462 167.462 0 00-3.124 4.963 196.982 196.982 0 00-3.508 6.043c-.502-.246-1.005-.503-1.518-.738a47.73 47.73 0 00-16.45-2.909c-8.3 0-16.279 1.433-23.927 4.31-5.251 2.236-10.235 6.075-14.952 11.53-2.588 2.942-4.888 6.428-6.877 10.471-1.594 3.402-2.824 7.338-3.69 11.787-.781 3.797-1.156 8.022-1.156 12.707zm108.882 12.268c.129-.813.556-1.551.974-2.268l2.502-4.331c.46-.792.942-1.615 1.765-2.107.31-.193.62-.279.952-.321.706.246 1.433.449 2.118.706.577.213 1.134.417 1.679.599l1.176.449c.599.192 1.594.588 2.995 1.23l.642.289c4.289 2.01 8.214 4.15 11.776 6.417 1.198.727 2.353 1.465 3.487 2.203.62.46 1.059.749 1.283.845l-.845-.032a65.896 65.896 0 00-6.824-.278c-.62-.043-2.021-.011-4.192.075a86.796 86.796 0 00-10.578 1.187l-1.444.236a91.343 91.343 0 00-4.578.93c-.053-.011-.118 0-.16-.011-1.337-.256-1.936-1.636-2.3-2.823-.278-.995-.588-2-.428-2.995zm-89.244-14.461c0-2.877.299-5.594.898-8.182.396-2.578 1.262-5.22 2.588-7.915l.396-.791c2.856-5.573 6.685-9.734 11.466-12.493 4.781-2.407 9.84-3.605 15.145-3.605 3.369 0 6.589 1.059 9.658 3.166-1.027 1.754-1.904 3.316-2.374 4.289l.085-.042c-2.214 3.647-4.299 7.273-6.225 10.909a137.262 137.262 0 00-2.641 5.188l-.76 1.422c-1.208 2.492-2.428 4.984-3.636 7.477l-1.359 2.973a20.52 20.52 0 00-1.069 2.471c-.364.994-.3 1.957.192 2.898.556 1.016 1.391 1.765 2.514 2.257.855.385 1.754.481 2.695.31.941-.171 1.711-.845 2.342-2.021a209.32 209.32 0 011.476-2.343c.065-.074.621-1.026 1.701-2.855l2.439-4.503.545-1.027 1.743-3.284 5.07-9.572c.984-1.861 1.99-3.701 3.027-5.509l1.177-2.15c.085.118.171.225.267.343 1.594 2.47 2.92 5.39 3.99 8.802a114.502 114.502 0 011.593 6.332c.471 2.706.706 5.69.706 8.974 0 4.877-.706 9.851-2.096 14.963a42.3 42.3 0 01-4.781 10.29c-5.915 8.738-12.354 13.113-19.338 13.113-4.856 0-9.508-2.225-13.947-6.685-2.064-1.989-3.99-4.428-5.776-7.305-1.925-3.23-3.294-5.926-4.096-8.097l-.503-1.316c-1.326-3.636-2.225-6.952-2.695-9.936a50.87 50.87 0 01-.417-6.546z" fill="#666"/><path d="M667.524 255.436a429.246 429.246 0 00-1.476 67.758c.203 3.487.439 6.984 1.027 10.428.663 3.979 2.011 8.204 5.583 10.632 4.845 3.284 11.615 1.979 17.669 2.064 6.065.075 12.022 1.722 18.097 1.722 6.065 0 12.824-2.246 15.103-7.305.663-1.487.898-3.102 1.048-4.706.802-8.407-.407-16.857-.567-25.296-.086-4.588.117-9.166.342-13.754l1.797-38.035c.171-3.69.332-7.476-1.059-10.952-1.722-4.321-5.701-7.658-10.161-9.862-4.46-2.203-9.444-3.401-14.364-4.577-3.637-.867-7.273-1.733-10.899-2.599-2.588-.621-5.294-1.241-7.915-.717-10.567 2.086-13.434 17.413-14.225 25.199z" fill="#fff"/><path d="M722.66 270.539a398.467 398.467 0 00-1.144 56.163c.278 5.519.342 12.172-2.706 15.263-1.487 1.508-3.359 1.733-5.134 1.861-11.444.856-22.899-.182-34.322-1.208-2.011-.182-4.129-.417-5.808-2.129-2.749-2.813-3.294-8.492-3.53-13.487a608.418 608.418 0 01.171-60.068c.236-4.46.738-9.498 3.188-12.022 6.267-6.428 21.477-1.604 29.092-1.775 10.257-.214 21.744-3.69 20.193 17.402z" fill="#F98E12"/><path d="M686.926 249.564c1.112.139 2.203.396 3.305.589 4.118.738 8.342.78 12.546.812 1.647.011 3.305.022 4.941-.128 1.637-.16 3.284-.481 4.92-.299 2.781.299 5.166 1.989 7.915 2.449.62.096 1.39.075 1.679-.428.096-.171.118-.374.128-.567.022-.396.054-.77.086-1.166.054-.77.064-1.657-.578-2.171-.481-.396-1.197-.449-1.85-.481-8.193-.449-16.193-2.3-24.151-4.129a855.981 855.981 0 00-4.545-1.048c-2.942-.685-5.872-1.358-8.685-2.385-.621-.225-1.22-.471-1.861-.599-2.781-.588-5.701 1.027-7.145 3.251-1.444 2.225-1.658 4.91-1.529 7.487.053 1.113.663 1.819 1.85 1.166.353-.192.545-.577.941-.78.663-.353 1.615-.492 2.364-.685 3.112-.824 6.417-1.316 9.669-.888zM679.963 234.451c.396-.428.791-.866 1.294-1.198 1.294-.888 3.048-1.016 4.674-.898 2.802.203 5.508.994 8.182 1.786.204.053.396.118.567.214.524.321.642.995.471 1.54-.171.546-.578.995-.952 1.465a14.431 14.431 0 00-1.915 3.134c-.117.257-.235.535-.481.685-.331.192-.759.128-1.144.043a23.394 23.394 0 01-3.99-1.252c-2.31-.941-4.727-2.385-7.38-2.15-.845.075-1.989.653-1.583-.481.364-1.048 1.487-2.043 2.257-2.888z" fill="#D86C00"/><path d="M695.279 237.671c-.631.887-.931 1.946-1.07 2.994-.032.278-.064.578.075.824.225.406.77.567 1.262.674 2.364.535 4.728 1.059 7.092 1.593a146.823 146.823 0 0017.701 2.974c.353.043.727.075 1.069-.032.343-.096.642-.385.621-.706-.022-.321-.332-.556-.621-.749-2.534-1.743-5.112-3.497-8.011-4.674-.791-.332-1.615-.599-2.438-.888-2.032-.695-4.075-1.379-6.118-2.075-2.995-1.037-7.327-3.08-9.562.065z" fill="#F98E12"/><path d="M682.979 256.495c-1.305-.064-2.684-.107-3.872.396-1.454.61-2.374 1.914-3.133 3.187-.407.685-.792 1.38-1.038 2.129-.417 1.262-.417 2.588-.417 3.904 0 2.727.011 5.444.011 8.171 0 1.637.053 3.401 1.166 4.696 1.379 1.604 3.882 1.914 6.117 2.085 9.573.738 19.167 1.23 28.782 1.295 1.241.01 2.535 0 3.658-.46.717-.3 1.359-.835 1.68-1.466.278-.545-.182-1.166-.845-1.176-3.252-.075-6.493-.129-9.744-.203-1.808-.043-2.161-.097-3.979-.129-1.422-.021-2.984-.021-4.021-.085-1.594-.097-2.011-.054-3.797-.364-1.936-.332-3.177-.888-4.46-2.225-.396-.417-.824-1.208-.985-1.732-1.08-3.487-1.294-4.707-.588-7.22.792-2.856 3.562-4.867 8.567-4.856 1.53 0 5.519-.364 7.049-.449 6.139-.31 10.075-1.647 12.033-2.781.385-.225.502-.321.631-.567.342-.652-.214-1.112-.76-1.401-3.027-1.572-7.733-.471-11.016-.353-4.471.16-8.953.096-13.423-.054a945.724 945.724 0 00-7.616-.342z" fill="#FFF2EA"/><path d="M704.114 263.683c-.428-.011-.995.085-1.016.417-.011.139.107.256.203.363.738.771 1.637 1.466 2.096 2.343.257.502.364 1.059.407 1.604.171 2.182-.899 4.984-3.209 6.236-1.807.984-4.364 1.305-6.524.962-1.123-.181-2.182-.834-3.07-.62-.117.032-.182.171-.182.267 0 .118.107.279.171.343.653.62 1.936.813 2.963.909 7.177.642 13.402-.257 20.215.364.599.053 1.348.064 1.626-.364.096-.15.107-.321.107-.492a96.59 96.59 0 00-.118-7.872c-.086-1.551-.096-2.407-.053-3.733.032-.824-.075-1.893-.075-2.717-.011-.299-.107-.866-.653-.845-.342.011-.941.524-1.262.653a29.04 29.04 0 01-3.668 1.219 30.334 30.334 0 01-7.958.963z" fill="#FFF2EA"/><path d="M697.836 263.939c2.032.3 3.893 1.423 4.984 2.995.278.407.513.856.577 1.326.064.46-.053.92-.16 1.369-.268 1.081-.599 2.172-1.348 3.049-1.636 1.925-4.856 2.182-7.326 1.283-1.262-.449-2.45-1.187-3.123-2.267-.45-.728-.642-1.573-.728-2.407-.47-3.914 2.963-5.957 7.124-5.348z" fill="#D86C00"/><path d="M695.054 373.978c-3.636-2.417-6.684-5.337-9.134-8.76-1.978-2.781-3.946-6.407-5.925-10.899-1.498-3.851-2.492-8.086-2.963-12.717a40.01 40.01 0 01-.353-5.241c0-2.995.203-5.626.588-7.915 1.583-8.76 5.295-16.493 11.156-23.189 3.241-3.7 7.038-6.524 11.391-8.439 4.353-1.925 8.781-2.888 13.284-2.888 10.984 0 19.605 5.338 25.862 16.033a44.377 44.377 0 012.374 6.097c.075.364.204.674.353.963 1.819 5.775 2.728 11.583 2.728 17.423 0 9.979-2.449 19.135-7.359 27.467-2.299 4.417-5.497 8.054-9.615 10.899-5.455 3.562-11.348 5.337-17.68 5.337-5.048 0-9.958-1.39-14.707-4.171zm22.664-19.124c3.872-6.407 5.819-13.113 5.819-20.087 0-2.567-.235-5.091-.717-7.594-.631-3.99-1.797-7.733-3.497-11.22-1.701-3.487-3.626-5.241-5.754-5.241-1.979 0-4.707 1.348-8.183 4.065-1.743 1.636-3.422 3.936-5.048 6.898-1.615 2.963-2.663 5.894-3.145 8.814-.31 1.636-.481 3.561-.481 5.765 0 1.144.118 2.321.353 3.529l.118.321c.396 2.567 1.305 5.519 2.727 8.867v.214a20.668 20.668 0 002.022 3.626c2.449 3.989 4.353 6.235 5.69 6.727 1.347.503 2.214.749 2.61.749 2.074.011 4.556-1.807 7.486-5.433z" fill="#999"/><path d="M537.262 313.343c.235 7.477 1.7 14.867 4.385 22.194 3.401 9.637 8.578 18.258 15.541 25.862.235.214.438.45.588.738 6.011 5.862 11.84 10.001 17.498 12.408 5.658 2.417 11.487 3.615 17.498 3.615 4.589 0 9.134-.588 13.637-1.776 10.525-2.93 19.488-9.241 26.921-18.953 3.401-4.182 6.279-9.112 8.653-14.771 3.134-7.583 5.006-15.53 5.658-23.819l.011.011a99.865 99.865 0 012.599 4.481l3.604 6.364c.845 1.391 2.514 4.418 4.974 9.092l1.176 2.042c.481.771.856 1.38 1.155 1.819.225.449.578.855 1.048 1.24.385.332.856.589 1.391.749 1.112.332 2.492.31 4.15-.075l6.3-1.347c.47-.075.919-.161 1.358-.278 3.829-.76 7.252-1.284 10.268-1.583 2.192-.225 4.952-.396 8.257-.535 1.069.01 3.369.085 6.899.235.834.011 2.406.096 4.727.267 4.011.332 7.038.396 9.059.193a9.042 9.042 0 003.444-1.048l.161-.107c.695-.471 1.091-.792 1.208-.973.118-.182.321-.685.631-1.519a8.845 8.845 0 00.46-1.69c.203-1.262-.545-2.76-2.235-4.503-1.016-.995-1.851-1.701-2.482-2.107a41.184 41.184 0 00-3.839-2.792l-.749-.556c-.439-.203-1.979-1.198-4.61-2.973-4.193-2.61-7.562-4.557-10.107-5.883-4.781-2.909-9.562-5.819-14.343-8.717-1.166-.706-2.449-1.412-3.765-1.829l2.931-4.781 2.107-3.423.663-1.069 2.845-4.728c1.101-1.989 1.668-3.027 1.711-3.123.032-.096.481-.973 1.348-2.631.16-.246.267-.492.374-.728 6.193.781 9.241 1.947 9.284 1.958.588.278 1.508.534 2.513.534 1.391 0 2.963-.481 4.086-2.074 2.129-3.027.524-5.156-.62-5.862-8.664-5.433-31.745-5.144-35.905-4.203-4.771 1.08-4.92 3.679-4.878 4.364-.075 1.807.76 2.877 1.476 3.454 2.139 1.733 5.755 1.348 6.428 1.263a116.7 116.7 0 017.134-.107l-1.85 2.673c-1.658 2.514-3.316 5.017-4.973 7.541l-.91 1.487c-.962 1.433-2.085 3.208-3.39 5.326a217.747 217.747 0 00-6.995 12.268 86.646 86.646 0 00-1.048 2.011c-2.15-4.374-3.701-7.444-4.631-9.177-2.856-5.38-6.118-11.712-8.685-16.995-2.749-5.659-5.594-10.771-6.813-12.6l-1.166-1.893c-2.471-3.316-4.76-7.017-9.669-11.637a1.708 1.708 0 00-.289-.268l-.342-.278c-.15-.128-.289-.278-.428-.406a13.088 13.088 0 00-.406-.321c.566-.973 1.123-1.957 1.711-2.931l6.706-11.07 2.3-3.808.716-1.198 3.113-5.251c.096-.171.181-.332.267-.492 4.043 5.829 4.449 9.68 4.449 9.733 0 .075.032 1.508 1.262 2.417.439.321 1.156.653 2.214.653.343 0 .706-.032 1.124-.107 4.267-.802 4.738-3.53 4.759-3.637 1.316-7.979-8.717-19.776-11.444-21.466-2.706-1.669-5.081-.813-6.033-.075-.866.535-1.508 1.134-1.925 1.775-.107.107-.214.204-.31.332-.802 1.005-1.433 1.882-1.893 2.642l-2.225 3.251c-1.818 2.792-3.636 5.573-5.455 8.364l-.994 1.648a198.037 198.037 0 00-3.712 5.914c-1.422 2.353-2.802 4.76-4.182 7.188a55.67 55.67 0 00-1.807-.877 56.864 56.864 0 00-19.573-3.455c-9.883 0-19.381 1.711-28.461 5.134-6.247 2.653-12.172 7.22-17.787 13.723-3.081 3.487-5.819 7.647-8.183 12.46-1.903 4.054-3.358 8.728-4.385 14.033-.845 4.439-1.283 9.455-1.283 15.049zm129.567 14.579c.16-.963.663-1.84 1.166-2.706.995-1.722 1.989-3.434 2.984-5.156.545-.941 1.123-1.925 2.107-2.503a3.13 3.13 0 011.134-.385c.834.3 1.7.535 2.535.856.695.267 1.347.503 2 .717l1.39.534c.706.214 1.893.706 3.562 1.466l.759.342c5.102 2.385 9.776 4.931 14.011 7.637 1.423.866 2.803 1.743 4.14 2.61.748.556 1.251.887 1.529 1.005l-.995-.043a78.673 78.673 0 00-8.107-.331c-.738-.043-2.396-.022-4.984.085-4.129.203-8.332.674-12.589 1.401l-1.711.278c-1.872.332-3.669.706-5.444 1.102-.075-.011-.129 0-.203-.011-1.594-.31-2.3-1.946-2.739-3.369-.363-1.144-.727-2.342-.545-3.529zm-106.208-17.21c0-3.423.353-6.674 1.07-9.733.481-3.07 1.497-6.214 3.08-9.423l.481-.941c3.402-6.632 7.947-11.584 13.637-14.867 5.69-2.856 11.712-4.3 18.033-4.3 4.011 0 7.829 1.262 11.487 3.754-1.208 2.075-2.267 3.947-2.823 5.102.021-.011.074-.043.107-.054a247.248 247.248 0 00-7.402 12.985 208.747 208.747 0 00-3.144 6.172l-.888 1.69c-1.444 2.962-2.888 5.936-4.332 8.898l-1.615 3.541c-.417.781-.834 1.754-1.262 2.941-.428 1.177-.364 2.332.225 3.455.663 1.198 1.668 2.096 2.994 2.685a5.317 5.317 0 003.209.363c1.123-.203 2.043-1.005 2.792-2.406 1.101-1.776 1.69-2.706 1.754-2.792.075-.096.748-1.219 2.021-3.401l2.899-5.348.652-1.23 2.075-3.915 6.033-11.391a270.218 270.218 0 013.593-6.556l1.401-2.557c.107.139.204.278.311.417 1.893 2.931 3.486 6.429 4.748 10.472a131.785 131.785 0 011.894 7.529c.556 3.209.834 6.771.834 10.686 0 5.797-.834 11.733-2.492 17.808a50.833 50.833 0 01-5.69 12.247c-7.038 10.396-14.707 15.605-23.007 15.605-5.775 0-11.305-2.653-16.599-7.958-2.45-2.374-4.749-5.273-6.878-8.685-2.299-3.839-3.914-7.048-4.866-9.637l-.588-1.572c-1.583-4.321-2.653-8.268-3.209-11.829a54.006 54.006 0 01-.535-7.755z" fill="#999"/><path d="M570.664 289.823a490.971 490.971 0 00-1.69 77.192c.225 3.979.503 7.947 1.155 11.883.76 4.524 2.3 9.348 6.364 12.107 5.519 3.744 13.22 2.247 20.129 2.343 6.91.096 13.691 1.946 20.611 1.946 6.909 0 14.61-2.556 17.199-8.332.759-1.69 1.026-3.529 1.197-5.347.91-9.584-.47-19.21-.663-28.826-.107-5.219.139-10.449.385-15.658.685-14.45 1.359-28.89 2.043-43.329.203-4.203.375-8.514-1.208-12.471-1.968-4.92-6.503-8.728-11.584-11.242-5.091-2.502-10.76-3.871-16.364-5.208-4.139-.995-8.279-1.979-12.418-2.963-2.941-.706-6.032-1.412-9.016-.824-11.979 2.407-15.242 19.862-16.14 28.729z" fill="#fff"/><path d="M633.458 307.033a451.187 451.187 0 00-1.294 63.971c.321 6.289.385 13.873-3.08 17.392-1.679 1.711-3.819 1.968-5.851 2.128-13.027.973-26.076-.203-39.092-1.38-2.3-.213-4.717-.481-6.61-2.417-3.134-3.209-3.755-9.669-4.011-15.359a695.201 695.201 0 01.192-68.421c.268-5.081.845-10.824 3.626-13.691 7.134-7.316 24.472-1.818 33.135-2.021 11.68-.278 24.761-4.236 22.985 19.798z" fill="#F98E12"/><path d="M592.772 283.138c1.262.161 2.503.45 3.754.674 4.685.845 9.508.888 14.289.931 1.883.01 3.765.032 5.637-.15 1.861-.182 3.743-.546 5.604-.353 3.166.332 5.883 2.267 9.017 2.792.706.117 1.583.085 1.904-.492.117-.193.128-.418.149-.642l.097-1.326c.064-.878.075-1.883-.653-2.471-.556-.449-1.369-.503-2.117-.546-9.338-.513-18.45-2.62-27.51-4.695-1.722-.396-3.454-.792-5.187-1.198-3.348-.77-6.696-1.551-9.894-2.717-.695-.257-1.39-.535-2.117-.684-3.177-.663-6.503 1.166-8.14 3.7-1.636 2.535-1.893 5.594-1.743 8.525.064 1.273.759 2.075 2.107 1.326.396-.224.62-.652 1.07-.888.759-.395 1.839-.566 2.695-.78 3.561-.931 7.326-1.487 11.038-1.006zM584.825 265.918c.45-.492.909-.984 1.476-1.369 1.476-1.016 3.466-1.155 5.327-1.027 3.198.225 6.278 1.134 9.316 2.043.224.064.449.128.652.246.599.364.727 1.134.524 1.754-.203.621-.663 1.145-1.08 1.669a16.65 16.65 0 00-2.182 3.572c-.128.289-.267.599-.556.781-.375.225-.867.15-1.305.053a27.21 27.21 0 01-4.535-1.422c-2.631-1.08-5.369-2.717-8.396-2.449-.973.085-2.268.738-1.808-.546.417-1.209 1.701-2.342 2.567-3.305z" fill="#D86C00"/><path d="M602.281 269.576c-.717 1.016-1.059 2.214-1.209 3.412-.043.321-.075.652.085.941.246.471.888.642 1.444.77 2.696.599 5.38 1.209 8.076 1.808.909.203 1.807.406 2.716.599a162.03 162.03 0 0017.434 2.77c.407.043.834.075 1.209-.043.385-.117.727-.438.706-.802-.022-.364-.375-.631-.706-.856-2.899-1.978-5.829-3.978-9.134-5.326-.909-.364-1.851-.685-2.781-1.005-2.321-.792-4.642-1.573-6.963-2.364-3.412-1.145-8.332-3.476-10.877.096z" fill="#F98E12"/><path d="M588.269 291.021c-1.487-.075-3.059-.128-4.417.449-1.658.685-2.717 2.182-3.573 3.626-.46.781-.898 1.573-1.176 2.417-.481 1.434-.481 2.953-.481 4.439 0 3.102.01 6.204.01 9.295 0 1.861.064 3.872 1.327 5.337 1.572 1.818 4.417 2.182 6.973 2.375 10.899.845 21.841 1.401 32.782 1.476 1.412.01 2.877 0 4.172-.535.823-.332 1.54-.952 1.914-1.679.31-.621-.214-1.327-.962-1.348l-11.092-.225c-2.075-.043-2.46-.107-4.524-.139-1.626-.032-3.401-.021-4.578-.096-1.818-.107-2.289-.064-4.321-.417-2.203-.385-3.615-1.016-5.08-2.535-.45-.471-.942-1.38-1.123-1.979-1.22-3.979-1.476-5.358-.674-8.225.909-3.251 4.053-5.54 9.744-5.54 1.732 0 6.289-.417 8.021-.503 7.006-.353 11.477-1.872 13.701-3.166.439-.257.578-.364.717-.652.385-.738-.257-1.263-.866-1.583-3.444-1.797-8.803-.535-12.546-.396-5.091.182-10.193.107-15.284-.064a391.836 391.836 0 01-8.664-.332z" fill="#FFF2EA"/><path d="M612.345 299.225c-.481-.011-1.134.096-1.155.47-.011.161.117.3.235.418.845.866 1.861 1.657 2.385 2.674.3.577.417 1.197.471 1.829.192 2.492-1.027 5.679-3.658 7.102-2.064 1.112-4.963 1.486-7.434 1.091-1.283-.204-2.492-.952-3.497-.706-.139.032-.203.192-.203.299 0 .128.117.31.203.396.749.706 2.203.92 3.369 1.027 8.172.727 15.274-.3 23.028.406.674.064 1.529.075 1.85-.406.118-.172.118-.364.118-.567.075-2.995.032-5.979-.128-8.963-.097-1.765-.118-2.738-.065-4.247.032-.941-.074-2.149-.096-3.101-.011-.343-.107-.984-.738-.963-.385.011-1.069.588-1.433.749a30.187 30.187 0 01-4.171 1.379 34.375 34.375 0 01-9.081 1.113z" fill="#FFF2EA"/><path d="M605.179 299.514c2.31.342 4.428 1.625 5.679 3.422.321.46.588.974.663 1.508.064.524-.064 1.049-.192 1.562-.31 1.23-.685 2.481-1.53 3.476-1.861 2.193-5.529 2.482-8.353 1.465-1.444-.513-2.802-1.358-3.551-2.577-.513-.824-.727-1.786-.834-2.738-.524-4.493 3.401-6.824 8.118-6.118z" fill="#D86C00"/><path d="M601.521 430.323c-4.439-2.952-8.15-6.524-11.134-10.685-2.407-3.39-4.813-7.829-7.23-13.295-1.829-4.695-3.038-9.861-3.615-15.519a48.364 48.364 0 01-.428-6.386c0-3.647.246-6.866.716-9.647 1.936-10.685 6.461-20.119 13.595-28.291 3.946-4.524 8.588-7.947 13.893-10.3 5.305-2.353 10.707-3.519 16.204-3.519 13.402 0 23.916 6.525 31.531 19.552a53.148 53.148 0 012.898 7.434c.097.438.247.823.428 1.176 2.225 7.038 3.327 14.129 3.327 21.253 0 12.161-2.995 23.327-8.974 33.499-2.802 5.391-6.695 9.819-11.712 13.295-6.652 4.353-13.84 6.524-21.551 6.524-6.183-.01-12.161-1.7-17.948-5.091zm27.638-23.338c4.727-7.829 7.091-15.99 7.091-24.515 0-3.134-.289-6.214-.866-9.252-.77-4.866-2.193-9.433-4.268-13.69-2.075-4.257-4.407-6.386-7.016-6.386-2.407 0-5.733 1.658-9.979 4.952-2.129 2.001-4.172 4.803-6.14 8.407-1.978 3.605-3.262 7.188-3.829 10.75-.385 2-.577 4.353-.577 7.037 0 1.391.15 2.824.428 4.3l.149.396c.482 3.134 1.594 6.738 3.327 10.824v.257a25.677 25.677 0 002.46 4.439c2.994 4.866 5.305 7.604 6.941 8.214 1.637.61 2.706.909 3.177.909 2.492.011 5.529-2.214 9.102-6.642z" fill="#CCC"/><path d="M409.063 356.362c.289 9.113 2.075 18.129 5.359 27.071 4.15 11.755 10.471 22.258 18.953 31.542.288.256.524.556.716.888 7.327 7.155 14.45 12.193 21.338 15.134 6.899 2.931 14.011 4.407 21.349 4.407 5.594 0 11.134-.728 16.642-2.171 12.824-3.573 23.777-11.285 32.847-23.114 4.149-5.102 7.668-11.113 10.567-18.001 3.818-9.252 6.107-18.932 6.899-29.05l.01.011a115.972 115.972 0 013.166 5.476l4.396 7.765c1.038 1.69 3.059 5.391 6.065 11.081l1.443 2.503a72.643 72.643 0 001.412 2.214c.278.545.696 1.048 1.273 1.519a4.772 4.772 0 001.69.909c1.348.417 3.038.385 5.059-.086l7.69-1.647a15.524 15.524 0 001.658-.342c4.674-.931 8.845-1.572 12.525-1.925 2.674-.279 6.032-.492 10.075-.653 1.305.011 4.107.107 8.417.278 1.017.011 2.942.118 5.776.332 4.899.406 8.578.492 11.049.246 1.519-.15 2.909-.567 4.192-1.273l.204-.128c.845-.567 1.337-.974 1.476-1.188.128-.214.385-.845.78-1.861.268-.706.45-1.39.567-2.064.246-1.551-.663-3.369-2.727-5.498-1.241-1.208-2.257-2.064-3.038-2.567a49.744 49.744 0 00-4.684-3.401l-.909-.674c-.535-.246-2.407-1.465-5.616-3.626-5.112-3.176-9.219-5.572-12.332-7.166-5.829-3.54-11.658-7.102-17.487-10.642-1.412-.856-2.984-1.722-4.589-2.225l3.583-5.829 2.567-4.182.803-1.316 3.465-5.765c1.348-2.417 2.032-3.69 2.075-3.807.043-.107.588-1.188 1.647-3.209.193-.3.332-.599.46-.888 7.551.963 11.273 2.364 11.337 2.385.717.332 1.84.642 3.07.642 1.701 0 3.615-.588 4.984-2.524 2.589-3.69.631-6.289-.759-7.156-10.557-6.631-38.719-6.267-43.788-5.134-5.829 1.316-6.011 4.493-5.947 5.327-.096 2.203.92 3.508 1.797 4.214 2.61 2.118 7.016 1.647 7.84 1.54 3.134-.139 6.021-.171 8.706-.128l-2.257 3.262c-2.032 3.059-4.043 6.118-6.075 9.188l-1.112 1.807a216.857 216.857 0 00-4.129 6.493 275.235 275.235 0 00-8.535 14.963c-.342.631-.77 1.455-1.283 2.449-2.621-5.337-4.514-9.08-5.658-11.187-3.476-6.568-7.466-14.29-10.589-20.718-3.348-6.899-6.813-13.145-8.3-15.381l-1.412-2.299c-3.005-4.033-5.808-8.546-11.808-14.194a5.092 5.092 0 00-.342-.331c-.15-.118-.278-.214-.417-.332-.171-.16-.342-.331-.524-.492-.161-.128-.332-.256-.492-.385.706-1.198 1.369-2.385 2.096-3.572l8.172-13.498 2.802-4.642.888-1.455 3.797-6.407c.117-.214.224-.406.331-.599 4.931 7.113 5.423 11.809 5.423 11.873-.011.096.043 1.839 1.54 2.941.535.396 1.401.792 2.695.792.407 0 .867-.043 1.369-.129 5.209-.984 5.776-4.3 5.808-4.439 1.615-9.733-10.631-24.119-13.958-26.183-3.294-2.043-6.182-.995-7.358-.096-1.059.652-1.84 1.38-2.343 2.171-.128.128-.256.246-.385.396-.984 1.23-1.754 2.299-2.299 3.23l-2.717 3.968c-2.214 3.401-4.439 6.803-6.653 10.204l-1.208 2.011c-1.284 1.946-2.792 4.353-4.525 7.209a291.2 291.2 0 00-5.091 8.77c-.738-.363-1.454-.738-2.203-1.069a69.133 69.133 0 00-23.873-4.214c-12.054 0-23.627 2.085-34.729 6.257-7.615 3.23-14.856 8.813-21.701 16.728-3.765 4.257-7.091 9.327-9.979 15.199-2.31 4.93-4.097 10.642-5.359 17.113-1.133 5.412-1.658 11.541-1.658 18.354zm158.029 17.787c.192-1.177.802-2.246 1.412-3.305 1.208-2.096 2.428-4.193 3.636-6.289.663-1.145 1.38-2.343 2.578-3.059a3.382 3.382 0 011.38-.46c1.016.364 2.075.652 3.08 1.037.845.321 1.647.61 2.439.877l1.711.642c.866.268 2.321.867 4.353 1.797l.941.417c6.225 2.92 11.926 6.022 17.092 9.306a175.208 175.208 0 015.048 3.198c.909.673 1.53 1.08 1.861 1.23l-1.219-.043a98.203 98.203 0 00-9.893-.417c-.899-.054-2.931-.022-6.086.107-5.038.246-10.161.823-15.359 1.722l-2.097.342c-2.278.417-4.492.866-6.642 1.348-.074-.011-.16 0-.246-.011-1.936-.374-2.802-2.385-3.337-4.107-.449-1.434-.887-2.888-.652-4.332zm-129.525-20.985c0-4.172.439-8.129 1.305-11.883.578-3.744 1.84-7.573 3.765-11.498l.578-1.145c4.15-8.086 9.701-14.129 16.642-18.129 6.942-3.487 14.268-5.241 21.99-5.241 4.888 0 9.562 1.529 14.012 4.588-1.487 2.535-2.76 4.814-3.444 6.225a.564.564 0 00.117-.064 303.174 303.174 0 00-9.027 15.841 210.653 210.653 0 00-3.829 7.53l-1.091 2.075c-1.754 3.615-3.519 7.241-5.273 10.856l-1.989 4.299c-.503.952-1.027 2.14-1.551 3.573-.524 1.433-.438 2.834.267 4.203.813 1.466 2.033 2.567 3.648 3.284a6.537 6.537 0 003.914.449c1.359-.246 2.492-1.23 3.402-2.93 1.347-2.161 2.064-3.295 2.149-3.402.086-.107.899-1.486 2.46-4.139l3.53-6.524.791-1.498 2.525-4.77 7.347-13.894a336.204 336.204 0 014.386-8l1.711-3.124c.128.171.257.332.385.503 2.31 3.572 4.246 7.829 5.786 12.771.867 3.07 1.637 6.129 2.311 9.198.674 3.926 1.016 8.257 1.016 13.028 0 7.07-1.016 14.311-3.038 21.712A61.816 61.816 0 01505.421 392c-8.578 12.685-17.937 19.028-28.066 19.028-7.037 0-13.786-3.23-20.247-9.701-2.994-2.899-5.786-6.428-8.385-10.6-2.802-4.684-4.77-8.599-5.925-11.754l-.717-1.915c-1.936-5.284-3.23-10.086-3.904-14.428-.428-3.081-.61-6.236-.61-9.466z" fill="#CCC"/><path d="M449.888 328.553a593.655 593.655 0 00-2.042 93.31c.278 4.802.609 9.615 1.411 14.364.931 5.477 2.771 11.295 7.691 14.632 6.674 4.524 15.99 2.728 24.332 2.834 8.353.107 16.557 2.364 24.91 2.364 8.364-.01 17.659-3.091 20.803-10.064.92-2.043 1.241-4.268 1.444-6.471 1.102-11.584-.567-23.21-.791-34.837-.118-6.321.171-12.631.47-18.931l2.471-52.378c.246-5.08.449-10.3-1.454-15.081-2.375-5.946-7.851-10.546-14.001-13.583-6.15-3.027-13.006-4.674-19.787-6.289-4.995-1.198-10.011-2.386-15.006-3.584-3.562-.855-7.295-1.711-10.888-.984-14.525 2.878-18.472 23.98-19.563 34.698z" fill="#fff"/><path d="M525.817 349.356a548.725 548.725 0 00-1.583 77.331c.385 7.604.471 16.76-3.722 21.028-2.032 2.064-4.62 2.385-7.07 2.567-15.744 1.176-31.53-.246-47.264-1.658-2.77-.246-5.69-.578-7.989-2.931-3.787-3.882-4.535-11.68-4.856-18.557a836.617 836.617 0 01.235-82.721c.321-6.14 1.016-13.081 4.385-16.547 8.621-8.845 29.584-2.203 40.056-2.449 14.128-.332 29.947-5.123 27.808 23.937z" fill="#F98E12"/><path d="M476.606 320.467c1.53.192 3.027.534 4.546.813 5.669 1.026 11.487 1.08 17.284 1.123 2.268.01 4.546.042 6.803-.182 2.256-.214 4.524-.663 6.781-.417 3.829.406 7.102 2.738 10.899 3.38.844.139 1.925.106 2.31-.599.128-.236.16-.514.171-.781.032-.535.075-1.07.118-1.605.074-1.058.085-2.278-.792-2.994-.663-.546-1.647-.61-2.545-.664-11.284-.62-22.301-3.166-33.253-5.69-2.086-.481-4.182-.962-6.268-1.444-4.043-.93-8.097-1.861-11.958-3.283-.845-.31-1.679-.642-2.567-.824-3.829-.802-7.85 1.412-9.84 4.471-1.978 3.059-2.289 6.77-2.107 10.311.075 1.529.931 2.503 2.535 1.604.481-.278.749-.802 1.294-1.08.931-.481 2.236-.674 3.262-.941 4.311-1.102 8.846-1.776 13.327-1.198zM467.012 299.663c.546-.588 1.102-1.198 1.776-1.668 1.786-1.23 4.193-1.401 6.428-1.23 3.861.278 7.583 1.369 11.263 2.46.267.075.545.16.78.299.717.439.888 1.369.642 2.118-.246.749-.802 1.38-1.305 2.011a19.57 19.57 0 00-2.631 4.321c-.16.353-.321.727-.663.941-.449.278-1.048.182-1.572.064a33.716 33.716 0 01-5.498-1.722c-3.176-1.305-6.503-3.283-10.161-2.962-1.166.107-2.749.898-2.182-.653.524-1.444 2.075-2.824 3.123-3.979z" fill="#D86C00"/><path d="M488.115 304.081c-.877 1.23-1.284 2.674-1.476 4.118-.054.385-.086.791.107 1.144.299.567 1.069.77 1.743.931 3.252.738 6.503 1.465 9.754 2.192l3.295.738a193.847 193.847 0 0021.07 3.348c.492.053 1.006.107 1.476-.043.471-.15.888-.535.856-.973-.022-.449-.449-.77-.845-1.038-3.498-2.395-7.038-4.823-11.038-6.438-1.102-.45-2.235-.824-3.358-1.209-2.803-.952-5.616-1.904-8.418-2.856-4.129-1.412-10.075-4.235-13.166.086z" fill="#F98E12"/><path d="M471.173 330.007c-1.808-.075-3.69-.149-5.337.535-2 .834-3.273 2.631-4.311 4.385-.566.942-1.09 1.894-1.433 2.92-.567 1.733-.567 3.573-.567 5.37 0 3.754.011 7.497.011 11.241 0 2.246.064 4.685 1.604 6.46 1.894 2.204 5.348 2.631 8.429 2.867 13.177 1.016 26.407 1.69 39.627 1.786 1.711.011 3.487 0 5.038-.642.984-.406 1.871-1.144 2.31-2.021.385-.749-.257-1.605-1.166-1.626-4.471-.096-8.941-.182-13.412-.278-2.492-.054-2.974-.129-5.476-.171-1.958-.032-4.108-.022-5.541-.118-2.192-.128-2.77-.075-5.23-.503-2.663-.46-4.364-1.23-6.139-3.069-.546-.567-1.134-1.658-1.348-2.386-1.487-4.813-1.786-6.481-.813-9.947 1.102-3.936 4.91-6.695 11.798-6.695 2.096 0 7.604-.503 9.701-.61 8.47-.428 13.872-2.267 16.567-3.829.535-.31.695-.449.866-.791.471-.899-.299-1.53-1.048-1.926-4.171-2.16-10.642-.652-15.177-.481-6.161.214-12.321.128-18.471-.075-3.498-.085-6.995-.246-10.482-.396z" fill="#FFF2EA"/><path d="M500.276 339.912c-.578-.011-1.369.117-1.391.567-.01.192.139.363.289.513 1.016 1.059 2.257 2.011 2.888 3.219.364.706.503 1.466.567 2.214.235 3.006-1.241 6.867-4.418 8.589-2.492 1.348-6 1.797-8.984 1.316-1.551-.246-3.005-1.145-4.225-.856-.16.043-.246.246-.246.364 0 .16.139.385.246.47.899.867 2.664 1.113 4.086 1.241 9.883.877 18.471-.364 27.841.492.823.075 1.85.086 2.225-.492.128-.203.139-.449.149-.684.086-3.616.043-7.231-.16-10.835-.118-2.129-.139-3.316-.075-5.134.043-1.145-.096-2.61-.107-3.755-.011-.417-.139-1.187-.898-1.155-.471.022-1.295.717-1.733.899a36.174 36.174 0 01-5.048 1.668 41.28 41.28 0 01-11.006 1.359z" fill="#FFF2EA"/><path d="M491.623 340.275c2.802.417 5.359 1.958 6.867 4.129.385.556.706 1.176.791 1.829.075.631-.064 1.262-.224 1.893-.375 1.476-.824 2.995-1.851 4.203-2.257 2.653-6.685 2.995-10.096 1.776-1.744-.62-3.38-1.637-4.3-3.113-.62-.994-.877-2.16-1.006-3.315-.631-5.444 4.118-8.257 9.819-7.402z" fill="#D86C00"/></g><defs><clipPath id="prefix__clip0"><path fill="#fff" transform="translate(191 109)" d="M0 0h1083v374H0z"/></clipPath></defs></svg>