<?xml version="1.0" encoding="utf-8"?>
<!-- Generator: Adobe Illustrator 25.1.0, SVG Export Plug-In . SVG Version: 6.00 Build 0)  -->
<svg version="1.1" id="Calque_1" xmlns="http://www.w3.org/2000/svg" xmlns:xlink="http://www.w3.org/1999/xlink" x="0px" y="0px"
	 viewBox="0 0 50 50" style="enable-background:new 0 0 50 50;" xml:space="preserve">
<style type="text/css">
	.st0{fill:#2A315B;}
</style>
<g>
	<g>
		<path class="st0" d="M36.2,26.6l-5-5.5c-0.3-0.3-0.6-1.1-0.6-1.5l-0.2-5.7v-0.2c0-0.9-0.7-1.6-1.6-1.6h-6.8c-0.8,0-1.7,0.6-2,1.3
			l-6.6,14c-0.2,0.4-0.2,0.8-0.1,1.2c0.2,0.4,0.4,0.7,0.8,0.9l1,0.4c0.2,0.1,0.4,0.1,0.7,0.1c0.6,0,1.2-0.4,1.5-0.9l3.1-6.2v6.2
			c0,0,0,0.1,0,0.1l-5.2,16.4c-0.2,0.7-0.2,1.4,0.2,2c0.3,0.6,0.9,1.1,1.6,1.3l0.3,0.1c0.2,0.1,0.5,0.1,0.7,0.1
			c1.2,0,2.3-0.8,2.7-1.9l4.9-15.3l1.7,4.2c0.4,1,0.9,2.8,1,4l0.8,7.8c0.1,1.3,1.1,2.2,2.4,2.2c0.2,0,0.4,0,0.6-0.1l0.4-0.1
			c1.4-0.3,2.4-1.8,2.2-3.2l-1.2-9.5c-0.2-1.2-0.7-3.1-1.2-4.2l-1.7-3.8c0,0-0.1-0.1-0.1-0.1v-2.6l3,3.1c0.3,0.3,0.7,0.5,1.1,0.5
			c0.4,0,0.8-0.2,1.1-0.5l0.6-0.6C36.7,28.2,36.8,27.2,36.2,26.6L36.2,26.6z M36.2,26.6"/>
		<path class="st0" d="M25.8,10.7c2.9,0,5.3-2.4,5.3-5.3c0-2.9-2.4-5.3-5.3-5.3c-2.9,0-5.3,2.4-5.3,5.3
			C20.4,8.3,22.8,10.7,25.8,10.7L25.8,10.7z M25.8,10.7"/>
	</g>
</g>
</svg>
