<?xml version="1.0" encoding="utf-8"?>
<!-- Generator: Adobe Illustrator 25.1.0, SVG Export Plug-In . SVG Version: 6.00 Build 0)  -->
<svg version="1.1" id="Calque_1" xmlns="http://www.w3.org/2000/svg" xmlns:xlink="http://www.w3.org/1999/xlink" x="0px" y="0px"
	 viewBox="0 0 50 50" style="enable-background:new 0 0 50 50;" xml:space="preserve">
<style type="text/css">
	.st0{fill:#2A315B;}
</style>
<path class="st0" d="M41.6,9.7C35.5-0.5,24.9,0,24.9,0C9.7,0.8,6.3,14.3,6.3,14.3c-2.5,9.5,2.6,15.7,2.6,15.7l12.8,17.7
	C23.3,50.2,25,50,25,50c2.4-0.1,3.3-2.3,3.3-2.3l12.2-17.1c1.9-2.7,3.2-5.8,3.7-9.2C44.6,18.1,44.3,14,41.6,9.7z M25,27.7
	c-5.2,0-9.5-4.3-9.5-9.5s4.3-9.5,9.5-9.5s9.5,4.3,9.5,9.5S30.3,27.7,25,27.7z"/>
<g>
	<g>
		<path class="st0" d="M212.8-21l-2.3-2.5c-0.1-0.2-0.3-0.5-0.3-0.7l-0.1-2.6v-0.1c0-0.4-0.3-0.7-0.7-0.7h-3.1
			c-0.4,0-0.8,0.3-0.9,0.6l-3,6.4c-0.1,0.2-0.1,0.4,0,0.6c0.1,0.2,0.2,0.3,0.4,0.4l0.4,0.2c0.1,0,0.2,0.1,0.3,0.1
			c0.3,0,0.6-0.2,0.7-0.4l1.4-2.8v2.8c0,0,0,0,0,0l-2.4,7.5c-0.1,0.3-0.1,0.6,0.1,0.9c0.2,0.3,0.4,0.5,0.7,0.6l0.2,0
			c0.1,0,0.2,0,0.3,0c0.5,0,1-0.4,1.2-0.9l2.2-7l0.8,1.9c0.2,0.5,0.4,1.3,0.5,1.8l0.4,3.6c0.1,0.6,0.5,1,1.1,1c0.1,0,0.2,0,0.3,0
			l0.2,0c0.6-0.2,1.1-0.8,1-1.5l-0.6-4.4c-0.1-0.6-0.3-1.4-0.5-1.9l-0.8-1.7c0,0,0,0,0-0.1v-1.2l1.4,1.4c0.1,0.1,0.3,0.2,0.5,0.2
			c0.2,0,0.4-0.1,0.5-0.2l0.3-0.3C213-20.2,213.1-20.7,212.8-21L212.8-21z M212.8-21"/>
		<path class="st0" d="M208-28.3c1.3,0,2.4-1.1,2.4-2.4c0-1.3-1.1-2.4-2.4-2.4c-1.3,0-2.4,1.1-2.4,2.4
			C205.6-29.4,206.7-28.3,208-28.3L208-28.3z M208-28.3"/>
	</g>
</g>
</svg>
