<svg width="32" height="53" viewBox="0 0 32 53" fill="none" xmlns="http://www.w3.org/2000/svg">
<g clip-path="url(#clip0)">
<path d="M16.78 15.229C15.38 15.849 13.98 16.169 12.58 16.409C11.18 16.6291 9.77998 16.729 8.37998 16.729C6.97998 16.729 5.57998 16.6291 4.17998 16.409C2.77998 16.179 1.37998 15.859 -0.0200195 15.229C1.37998 14.609 2.77998 14.279 4.17998 14.049C5.57998 13.829 6.97998 13.729 8.37998 13.729C9.77998 13.729 11.18 13.829 12.58 14.049C13.98 14.289 15.38 14.609 16.78 15.229Z" fill="#FFCC29"/>
<path d="M8.38989 0.399048C9.00989 2.53905 9.32989 4.68905 9.56989 6.82905C9.78989 8.96905 9.88989 11.119 9.88989 13.259C9.88989 15.399 9.78989 17.549 9.56989 19.689C9.32989 21.829 9.01989 23.979 8.38989 26.119C7.75989 23.979 7.44989 21.829 7.20989 19.689C6.98989 17.549 6.88989 15.399 6.88989 13.259C6.88989 11.119 6.98989 8.96905 7.20989 6.82905C7.44989 4.68905 7.76989 2.53905 8.38989 0.399048Z" fill="#FFCC29"/>
<path d="M31.13 27.3091C30.29 27.9291 29.4501 28.2491 28.6101 28.4891C27.7701 28.7091 26.93 28.8091 26.09 28.8091C25.25 28.8091 24.41 28.7091 23.57 28.4891C22.73 28.2591 21.89 27.9391 21.05 27.3091C21.89 26.6891 22.73 26.3591 23.57 26.1291C24.41 25.9091 25.25 25.8091 26.09 25.8091C26.93 25.8091 27.7701 25.9091 28.6101 26.1291C29.4501 26.3691 30.29 26.6891 31.13 27.3091Z" fill="#FFCC29"/>
<path d="M26.0901 18.399C26.7101 19.689 27.0301 20.979 27.2701 22.259C27.4901 23.549 27.5901 24.839 27.5901 26.119C27.5901 27.409 27.4901 28.699 27.2701 29.979C27.0401 31.269 26.7201 32.559 26.0901 33.839C25.4701 32.549 25.1401 31.259 24.9101 29.979C24.6901 28.689 24.5901 27.399 24.5901 26.119C24.5901 24.829 24.6901 23.539 24.9101 22.259C25.1501 20.979 25.4701 19.689 26.0901 18.399Z" fill="#FFCC29"/>
<path d="M22.1599 42.439C20.9299 43.059 19.6999 43.379 18.4699 43.619C17.2399 43.839 16.0099 43.939 14.7799 43.939C13.5499 43.939 12.3199 43.839 11.0899 43.619C9.8599 43.389 8.6299 43.069 7.3999 42.439C8.6299 41.819 9.8599 41.489 11.0899 41.259C12.3199 41.039 13.5499 40.939 14.7799 40.939C16.0099 40.939 17.2399 41.039 18.4699 41.259C19.6999 41.499 20.9299 41.819 22.1599 42.439Z" fill="#FFCC29"/>
<path d="M14.79 29.409C15.41 31.289 15.73 33.179 15.97 35.059C16.19 36.939 16.29 38.829 16.29 40.709C16.29 42.589 16.19 44.479 15.97 46.359C15.74 48.239 15.42 50.129 14.79 52.009C14.17 50.129 13.84 48.239 13.61 46.359C13.39 44.479 13.29 42.589 13.29 40.709C13.29 38.829 13.39 36.939 13.61 35.059C13.84 33.179 14.17 31.289 14.79 29.409Z" fill="#FFCC29"/>
</g>
<defs>
<clipPath id="clip0">
<rect width="31.13" height="51.62" fill="white" transform="translate(0 0.399048)"/>
</clipPath>
</defs>
</svg>
