<svg width="823" height="623" viewBox="0 0 823 623" fill="none" xmlns="http://www.w3.org/2000/svg">
    <path d="M43.028 618.335C38.4669 625.799 26.4746 623.29 25.6514 614.701L25.2509 610.491C24.1755 599.28 26.6748 589.517 28.8775 580.9C30.3978 574.961 31.8292 569.352 31.718 564.404C31.4584 552.68 31.6809 541.532 31.9034 530.75C32.556 498.496 33.1123 470.641 20.9568 440.418C9.63192 412.254 2.36384 380.534 0.494907 351.098C-1.67068 317.009 3.29831 285.935 14.8605 261.23C17.8567 254.827 20.052 248.831 22.1805 243.033C27.3868 228.828 32.3039 215.403 46.8252 201.732C50.7485 198.035 54.9684 194.401 59.0474 190.887C68.1251 183.064 77.5068 174.981 83.6625 166.139C91.0195 155.568 89.5882 144.02 87.7711 129.4C87.0221 123.398 86.2582 117.192 86.1099 110.69C85.2644 72.5736 107.528 44.7964 152.286 28.1385C187.996 14.8473 232.51 10.7777 265.016 7.80457C270.341 7.31959 275.376 6.8557 280.056 6.38478C397.176 -5.34604 516.892 1.14141 639.463 9.44928C677.813 12.0499 711.009 17.7431 738.123 26.3743C780.285 39.792 806.769 60.147 816.826 86.8699C820.734 97.2442 824.324 109.369 821.35 120.629C818.517 131.361 810.537 139.796 796.223 147.19C776.421 157.424 754.372 160.038 733.058 162.568C720.42 164.066 708.487 165.485 697.147 168.374C610.123 190.55 526.422 186.944 437.803 183.127C421.71 182.431 405.067 181.715 388.588 181.18C350.609 179.943 311.702 180.372 274.086 180.787C253.046 181.019 231.279 181.258 209.904 181.201C182.419 181.138 160.341 183.95 142.423 189.819C132.833 192.96 123.17 197.796 113.825 202.47C105.2 206.786 96.2852 211.249 87.1852 214.524C68.5404 221.237 58.0981 233.923 49.9401 259.768C38.8377 294.939 35.2853 341.778 39.9502 391.646C41.122 404.15 45.4086 416.31 49.9475 429.179C53.181 438.345 56.5258 447.826 58.7433 457.645C64.1944 481.782 64.0238 507.092 63.2748 526.449L63.1858 528.719C62.1475 555.66 60.8496 589.194 45.2826 614.666L43.028 618.335ZM418.491 20.3788C372.613 20.3788 327.21 22.1501 282.303 26.6484C277.52 27.1263 272.447 27.5902 267.063 28.0822C234.082 31.0975 193.04 34.8508 160.133 47.0947C143.12 53.4276 130.126 61.4754 121.508 71.0273C111.8 81.7882 107.247 94.6155 107.595 110.24C107.721 115.758 108.426 121.472 109.116 126.996C111.073 142.734 113.284 160.565 101.603 177.35C98.117 182.354 94.0603 186.937 89.7217 191.266C94.2976 189.186 98.9477 186.852 103.753 184.449C113.818 179.409 124.223 174.208 135.377 170.553C155.616 163.932 180.016 160.741 209.942 160.825C231.167 160.882 252.853 160.643 273.812 160.411C311.68 159.996 350.831 159.56 389.307 160.818C405.905 161.36 422.607 162.076 438.752 162.772C525.658 166.512 607.743 170.047 691.533 148.694C704.312 145.44 717.55 143.865 730.351 142.347C750.575 139.943 769.672 137.68 785.9 129.295C802.446 120.741 804.337 114.429 796.542 93.7158C788.814 73.1781 766.847 57.0262 731.248 45.696C705.847 37.6131 674.438 32.2573 637.898 29.7832C563.667 24.7436 490.497 20.3788 418.491 20.3788Z" fill="#FFF2EA"/>
    <path d="M35.96 609.569C50.5925 585.629 51.4602 552.967 52.5134 526.083C53.3737 504.055 53.0993 481.387 48.2193 459.788C43.102 437.128 31.3915 415.719 29.2259 392.552C25.1691 349.171 26.378 298.818 39.6237 256.857C47.4628 232.032 58.5058 213.954 83.3508 205.007C101.565 198.449 119.484 186.55 138.9 180.189C161.164 172.9 186.32 170.96 209.919 171.016C269.48 171.164 329.427 169.055 388.944 171.002C492.862 174.397 592.769 184.42 694.336 158.54C726.108 150.443 762.026 153.248 791.061 138.249C814.653 126.061 815.172 112.847 806.687 90.2921C786.359 36.298 691.021 23.1615 638.684 19.619C521.275 11.6485 398.63 4.7464 281.176 16.5194C218.292 22.8171 95.002 27.3084 96.8561 110.464C97.3381 132.316 105.771 152.875 92.6361 171.74C82.8168 185.847 67.0273 197.064 54.4046 208.95C36.0935 226.198 35.1664 242.976 24.687 265.355C1.19187 315.553 10.1806 385.011 31.0058 436.784C48.16 479.44 41.4407 517.761 42.4716 564.192C42.7831 578.263 34.3135 592.37 35.96 609.569Z" fill="#22C79E"/>
    <path d="M357.614 106.072C355.417 106.072 353.781 105.177 352.707 103.387C351.861 102.036 351.429 100.416 351.413 98.5283C351.413 97.7959 351.486 97.0553 351.633 96.3066C351.828 95.2324 352.146 94.1745 352.585 93.1328C353.252 91.4238 354.286 89.8044 355.686 88.2744C354.823 88.014 354.066 87.6152 353.415 87.0781C352.699 86.4271 352.194 85.6784 351.901 84.832C351.69 84.2461 351.584 83.6357 351.584 83.001C351.584 81.7965 351.95 80.6979 352.683 79.7051C353.269 78.9401 353.968 78.2972 354.782 77.7764C355.58 77.223 356.426 76.8161 357.321 76.5557C357.972 76.3441 358.64 76.2383 359.323 76.2383C359.86 76.2383 360.308 76.279 360.666 76.3604C362.098 76.637 363.173 77.2718 363.889 78.2646C364.361 78.8994 364.621 79.5667 364.67 80.2666C364.523 80.8363 364.165 81.1211 363.596 81.1211C363.319 81.1211 362.993 81.0479 362.619 80.9014C362.261 80.7549 361.952 80.527 361.691 80.2178C361.626 80.1364 361.553 80.0632 361.472 79.998C361.39 79.9329 361.276 79.8597 361.13 79.7783L360.983 79.7051C360.56 79.4772 359.974 79.4121 359.226 79.5098C358.493 79.6074 357.875 79.8597 357.37 80.2666H357.346C356.19 81.1455 355.58 81.9512 355.515 82.6836C355.515 83.4648 355.832 84.0345 356.467 84.3926C357.655 84.9134 358.924 85.1901 360.275 85.2227L360.788 85.0518L361.765 84.832C362.025 84.7669 362.294 84.7344 362.57 84.7344C363.27 84.7669 363.815 85.0355 364.206 85.54C364.466 85.8981 364.597 86.2725 364.597 86.6631C364.597 86.8258 364.54 87.0944 364.426 87.4688C364.328 87.8431 363.815 88.1523 362.888 88.3965C362.269 88.6081 361.708 88.8441 361.203 89.1045C360.487 89.5439 359.901 89.9508 359.445 90.3252C358.892 90.8135 358.355 91.4076 357.834 92.1074C357.102 93.263 356.548 94.4674 356.174 95.7207C355.946 96.5345 355.816 97.3239 355.783 98.0889C355.783 98.4469 355.799 98.805 355.832 99.1631C355.881 99.6676 356.027 100.237 356.271 100.872C356.597 101.572 357.085 101.922 357.736 101.922C358.339 101.922 359.055 101.645 359.885 101.092C361.252 100.197 362.277 99.1387 362.961 97.918C363.156 97.5762 363.343 97.1449 363.522 96.624C363.913 95.5173 364.646 94.9639 365.72 94.9639C366.794 94.9639 367.388 95.5579 367.502 96.7461C367.372 98.4876 366.582 100.229 365.134 101.971C363.571 103.663 361.984 104.843 360.373 105.511C359.494 105.885 358.575 106.072 357.614 106.072ZM374.753 102.093C373.776 102.093 372.906 101.808 372.141 101.238C371.197 100.538 370.464 99.3584 369.943 97.6982C369.683 96.9658 369.488 96.1439 369.357 95.2324C369.341 95.0697 369.317 94.915 369.284 94.7686L369.162 93.8164C369.162 93.6211 369.146 93.4258 369.113 93.2305C369.032 92.5306 368.991 91.3994 368.991 89.8369L369.04 89.0068C369.056 88.4535 369.097 87.8919 369.162 87.3223C369.227 86.7526 369.276 86.4189 369.309 86.3213C369.081 86.3213 368.625 86.4271 367.941 86.6387L367.429 86.7607L367.111 86.7852C366.949 86.6875 366.77 86.598 366.574 86.5166C365.826 86.2562 365.451 85.9388 365.451 85.5645C365.451 85.3203 365.728 85.0029 366.281 84.6123L366.33 84.5879C367.03 84.1647 367.901 83.8066 368.942 83.5137C369.463 83.3835 369.781 83.3184 369.895 83.3184L369.919 83.1719L370.065 82.6592C370.179 81.9919 370.367 81.3896 370.627 80.8525C371.066 79.9899 371.587 79.5586 372.189 79.5586C372.987 79.5749 373.687 80.1283 374.289 81.2188L374.167 81.8047L373.996 82.6104L373.923 82.9033C373.923 82.9359 373.915 82.9603 373.898 82.9766L374.143 83.001C374.663 83.001 375.095 83.0091 375.437 83.0254C375.778 83.0417 376.112 83.0742 376.438 83.123C377.121 83.1556 377.691 83.2451 378.146 83.3916C378.456 83.6195 378.61 83.9043 378.61 84.2461C378.61 84.3112 378.586 84.4821 378.537 84.7588C378.488 85.0192 378.285 85.3366 377.927 85.7109C377.569 86.0853 377.162 86.305 376.706 86.3701L375.974 86.2969C375.176 86.1992 374.598 86.1423 374.24 86.126L373.459 86.1016L373.435 86.2236C373.402 86.6143 373.361 86.9967 373.312 87.3711C373.312 87.599 373.296 87.7943 373.264 87.957C373.182 89.015 373.142 89.7311 373.142 90.1055L373.093 90.6914C373.093 92.1237 373.117 93.0758 373.166 93.5479C373.166 93.7432 373.199 94.1663 373.264 94.8174C373.329 95.1755 373.386 95.5254 373.435 95.8672C373.5 96.209 373.573 96.5345 373.654 96.8438C373.768 97.3483 373.947 97.8285 374.191 98.2842C374.436 98.7236 374.729 98.9434 375.07 98.9434C375.363 98.9434 375.681 98.6504 376.022 98.0645C376.185 97.804 376.283 97.625 376.315 97.5273C376.641 96.7135 376.983 96.3066 377.341 96.3066C377.748 96.3066 378 97.0391 378.098 98.5039C378.081 98.5365 378.073 98.5771 378.073 98.626V98.7725C378.073 99.3096 377.87 99.9362 377.463 100.652C377.137 101.141 376.755 101.507 376.315 101.751C375.876 101.979 375.355 102.093 374.753 102.093ZM373.898 86.1016C373.768 86.1016 373.646 86.0934 373.532 86.0771H373.459V86.1016H373.898ZM395.383 103.313C393.837 103.313 392.429 102.858 391.159 101.946C390.378 101.295 389.711 100.514 389.157 99.6025L388.938 99.1875C388.303 98.0807 387.839 96.681 387.546 94.9883C387.481 94.3861 387.432 93.792 387.399 93.2061C387.399 91.9202 387.505 90.7484 387.717 89.6904C387.961 88.3232 388.449 86.8421 389.182 85.2471C389.8 84.0101 390.345 83.1719 390.817 82.7324C390.931 82.651 391.086 82.6104 391.281 82.6104C391.883 82.6104 392.551 82.887 393.283 83.4404C394.032 83.9775 394.406 84.5146 394.406 85.0518C394.406 85.3285 394.284 85.6051 394.04 85.8818C393.731 86.5817 393.47 87.363 393.259 88.2256C393.015 89.2347 392.868 90.2275 392.819 91.2041L392.795 92.0342C392.795 92.9131 392.868 93.6781 393.015 94.3291C393.129 95.0452 393.226 95.444 393.308 95.5254C393.584 96.3392 393.853 96.9821 394.113 97.4541C394.683 98.3656 395.318 98.8213 396.018 98.8213C396.636 98.8213 397.409 98.3981 398.337 97.5518C398.793 97.0635 399.151 96.5671 399.411 96.0625C399.737 95.5091 399.981 94.915 400.144 94.2803C400.404 93.4339 400.534 92.5794 400.534 91.7168C400.534 90.9681 400.477 90.195 400.363 89.3975L400.339 89.3242C400.225 88.6406 400.046 87.9245 399.802 87.1758C399.525 86.2969 399.289 85.654 399.094 85.2471L398.85 84.7344C398.687 84.4414 398.605 84.1973 398.605 84.002C398.605 83.4811 398.825 83.0498 399.265 82.708C399.704 82.3499 400.241 82.1709 400.876 82.1709C402.015 82.1709 402.65 82.7568 402.78 83.9287L403.195 85.1006L403.562 86.3457C403.952 87.9733 404.18 89.2184 404.245 90.0811L404.318 91.79C404.318 92.848 404.156 93.971 403.83 95.1592L403.439 96.3555L403.317 96.6484C402.91 97.6901 402.349 98.6829 401.633 99.627C400.477 101.157 399.2 102.215 397.8 102.801C397.019 103.143 396.213 103.313 395.383 103.313ZM407.175 104.07C406.768 104.07 406.32 103.924 405.832 103.631C405.36 103.322 405.083 102.744 405.002 101.897C404.888 100.823 404.831 99.2282 404.831 97.1123L404.855 96.5752C404.872 95.3382 404.921 94.0605 405.002 92.7422C405.002 92.4492 405.018 92.1481 405.051 91.8389C405.1 90.5205 405.271 89.1696 405.563 87.7861L405.856 86.6875C406.068 85.9388 406.369 85.2959 406.76 84.7588C407.362 83.8636 408.184 83.416 409.226 83.416C409.519 83.416 409.82 83.4567 410.129 83.5381C410.747 83.766 411.333 84.1729 411.887 84.7588C412.229 85.1331 412.611 85.654 413.034 86.3213C413.522 87.0537 413.978 87.8594 414.401 88.7383L414.694 89.3486C414.825 89.609 414.947 89.8776 415.061 90.1543C415.402 90.9193 415.614 91.432 415.695 91.6924C416.021 92.4248 416.241 92.9619 416.354 93.3037L417.526 96.1357L417.624 94.7197C417.673 93.9385 417.697 93.2467 417.697 92.6445L417.722 91.7656L417.697 91.3018C417.697 90.667 417.689 90.2438 417.673 90.0322C417.673 89.1045 417.697 88.3232 417.746 87.6885V86.6387L417.722 86.2969C417.722 86.069 417.746 85.8411 417.795 85.6133C418.088 84.7018 418.568 84.2461 419.235 84.2461C419.772 84.2461 420.22 84.6367 420.578 85.418C420.692 85.7272 420.773 86.069 420.822 86.4434C420.871 86.8177 420.961 87.3141 421.091 87.9326C421.319 89.0068 421.465 90.0729 421.53 91.1309L421.677 92.498C421.84 93.6536 421.929 94.7767 421.945 95.8672C421.945 96.1927 421.905 96.8356 421.823 97.7959L421.799 97.8691C421.685 99.3014 421.319 100.449 420.7 101.312C420.049 102.158 419.211 102.581 418.186 102.581C417.176 102.581 416.298 102.166 415.549 101.336C415.044 100.864 414.532 100.123 414.011 99.1143C413.441 97.9749 412.798 96.4775 412.082 94.6221C412.049 94.5081 412.001 94.3861 411.936 94.2559C411.887 94.1094 411.537 93.1898 410.886 91.4971C410.886 91.4645 410.878 91.4401 410.861 91.4238C410.585 90.61 410.259 89.8451 409.885 89.1289L409.812 88.9824L409.421 92.1074C409.421 92.2051 409.413 92.2946 409.396 92.376C409.331 93.2061 409.283 94.0117 409.25 94.793C409.25 95.0208 409.217 95.8184 409.152 97.1855C409.104 98.8294 409.063 99.9362 409.03 100.506L408.933 102.02C408.916 102.264 408.892 102.5 408.859 102.728C408.648 103.623 408.086 104.07 407.175 104.07ZM434.592 105.926C434.396 105.926 434.104 105.885 433.713 105.804C433.029 105.657 432.508 104.819 432.15 103.289C431.743 101.808 431.434 100.034 431.223 97.9668C431.027 96.4043 430.905 95.0452 430.856 93.8896C430.856 93.499 430.84 93.1084 430.808 92.7178C430.775 92.0667 430.759 91.0251 430.759 89.5928C430.759 88.3721 430.816 86.9642 430.93 85.3691L431.198 82.7568C431.328 81.2757 431.581 79.7946 431.955 78.3135C432.313 76.9788 432.614 76.1895 432.858 75.9453C432.972 75.75 433.103 75.5791 433.249 75.4326C433.868 75.1722 434.38 75.0339 434.787 75.0176C436.024 75.0501 436.643 75.9046 436.643 77.5811C436.643 78.0042 436.577 78.4355 436.447 78.875L436.13 80.5352L435.91 82.1465C435.715 83.4486 435.56 85.2715 435.446 87.6152V87.9082C436.211 87.1432 437.082 86.4922 438.059 85.9551C439.035 85.418 440.118 85.1494 441.306 85.1494L442.136 85.1738C443.194 85.3203 444.097 85.6784 444.846 86.248C445.594 86.8177 446.197 87.599 446.652 88.5918C447.043 89.5358 447.238 90.5612 447.238 91.668C447.238 92.2051 447.189 92.7503 447.092 93.3037C446.913 94.4756 446.595 95.5417 446.14 96.502C445.098 98.7155 443.625 100.392 441.721 101.531C441.216 101.792 440.695 102.011 440.158 102.19C439.475 102.402 438.75 102.508 437.985 102.508C437.465 102.508 436.968 102.443 436.496 102.312L436.545 102.63C436.61 103.086 436.643 103.549 436.643 104.021L436.594 104.607C436.561 104.819 436.521 104.982 436.472 105.096C436.341 105.34 436.032 105.551 435.544 105.73C435.235 105.861 434.917 105.926 434.592 105.926ZM437.668 99.2607C438.514 99.2607 439.361 98.8864 440.207 98.1377C440.842 97.6331 441.354 97.0391 441.745 96.3555C442.624 94.8092 443.096 93.2549 443.161 91.6924C443.161 90.4066 442.771 89.5521 441.989 89.1289C441.778 89.015 441.55 88.958 441.306 88.958L441.794 88.9336L441.55 88.9092C441.257 88.9092 441.045 88.9255 440.915 88.958H440.866C440.459 89.0068 439.987 89.1859 439.45 89.4951C438.799 89.8532 438.156 90.3252 437.521 90.9111C436.903 91.4808 436.219 92.262 435.471 93.2549L435.495 93.6699C435.658 95.9811 435.829 97.6576 436.008 98.6992V98.7725C436.561 99.098 437.115 99.2607 437.668 99.2607ZM449.484 82.5371C449.452 82.5371 449.208 82.529 448.752 82.5127C448.296 82.4964 447.963 82.0244 447.751 81.0967V79.6562C447.751 79.3633 447.759 79.1517 447.775 79.0215V78.8506C447.938 77.4508 448.565 76.751 449.655 76.751C450.078 76.751 450.453 76.8812 450.778 77.1416C451.218 77.516 451.438 78.1263 451.438 78.9727C451.486 79.3145 451.511 79.6318 451.511 79.9248C451.56 80.2829 451.584 80.6735 451.584 81.0967C451.584 81.2757 451.56 81.4548 451.511 81.6338C450.974 82.236 450.298 82.5371 449.484 82.5371ZM451.169 104.559C450.388 104.559 449.745 104.038 449.24 102.996C448.833 101.645 448.532 99.5049 448.337 96.5752L448.264 95.7939C448.199 94.7197 448.158 94.1663 448.142 94.1338C448.028 92.2132 447.979 90.846 447.995 90.0322C447.995 88.9906 448.011 88.1849 448.044 87.6152C448.142 86.7038 448.41 86.0446 448.85 85.6377C449.24 85.2959 449.672 85.125 450.144 85.125C450.746 85.125 451.242 85.3691 451.633 85.8574C451.942 86.2318 452.097 86.7201 452.097 87.3223L452.072 87.6641L452.097 88.958L452.17 90.4717C452.186 90.8135 452.211 91.1471 452.243 91.4727L452.341 93.084C452.406 93.7025 452.455 94.321 452.487 94.9395L452.927 99.4561C453.09 100.791 453.171 101.816 453.171 102.532C452.91 103.883 452.243 104.559 451.169 104.559ZM462.277 103.729C460.389 103.729 458.68 102.964 457.15 101.434C456.418 100.669 455.791 99.7979 455.271 98.8213C454.196 96.917 453.659 94.793 453.659 92.4492V92.083C453.806 89.4788 454.506 87.3711 455.759 85.7598C456.361 84.9785 457.093 84.2868 457.956 83.6846C458.819 83.0824 459.673 82.6836 460.52 82.4883C460.992 82.3906 461.48 82.3418 461.984 82.3418C462.766 82.3418 463.482 82.5046 464.133 82.8301C464.865 83.1882 465.41 83.7171 465.769 84.417C466.078 84.9704 466.232 85.5807 466.232 86.248L466.159 87.1758C465.996 88.1035 465.484 88.9092 464.621 89.5928C464.426 89.7555 464.304 89.8695 464.255 89.9346C464.125 90.0648 463.97 90.1299 463.791 90.1299C463.579 90.1299 463.343 90.0811 463.083 89.9834C462.578 89.7718 462.326 89.4788 462.326 89.1045C462.326 88.9906 462.351 88.8685 462.399 88.7383C462.497 88.543 462.546 88.4046 462.546 88.3232C462.644 87.9977 462.701 87.7454 462.717 87.5664V87.2002C462.57 86.6468 462.245 86.3701 461.74 86.3701C460.992 86.3701 460.17 86.8828 459.274 87.9082C458.819 88.4616 458.477 89.0719 458.249 89.7393C458.249 89.7555 458.241 89.7637 458.225 89.7637C458.111 90.1543 458.013 90.5612 457.932 90.9844C457.867 91.3913 457.834 91.8877 457.834 92.4736C457.834 93.1735 457.948 93.9548 458.176 94.8174C458.387 95.5824 458.721 96.3555 459.177 97.1367C460.17 98.7643 461.211 99.5781 462.302 99.5781C463.278 99.5781 464.287 98.9352 465.329 97.6494C465.752 97.0146 466.037 96.5508 466.184 96.2578L466.452 95.7939C466.81 95.2243 467.258 94.9395 467.795 94.9395C468.283 94.9395 468.763 95.151 469.235 95.5742C469.268 95.6068 469.284 95.6637 469.284 95.7451C469.3 95.8265 469.309 95.916 469.309 96.0137C469.325 96.1113 469.341 96.1846 469.357 96.2334L469.382 96.7217C469.382 97.9749 468.934 99.2445 468.039 100.53C467.388 101.442 466.623 102.158 465.744 102.679C464.67 103.379 463.514 103.729 462.277 103.729ZM473.288 104.119H472.702C472.344 104.119 471.953 103.501 471.53 102.264C471.4 101.645 471.278 101.019 471.164 100.384C471.05 99.749 470.936 99.1061 470.822 98.4551C470.708 97.804 470.611 97.1449 470.529 96.4775C470.285 94.3454 470.139 92.8968 470.09 92.1318C469.943 90.1787 469.87 88.2581 469.87 86.3701C469.87 85.361 469.886 84.5065 469.919 83.8066V83.0986C469.968 81.8779 470.017 80.6572 470.065 79.4365L470.163 77.9961C470.163 77.6706 470.196 77.2799 470.261 76.8242C470.342 76.3522 470.611 75.9697 471.066 75.6768C471.571 75.3675 472.141 75.2129 472.775 75.2129C473.264 75.2129 473.703 75.335 474.094 75.5791C474.484 75.807 474.68 76.2139 474.68 76.7998C474.745 77.5648 474.777 77.9717 474.777 78.0205C474.794 78.0531 474.826 78.5332 474.875 79.4609L474.899 81.707V82.2197V83.8555V88.6162C474.899 89.5439 474.916 90.4635 474.948 91.375L474.973 92.8154L475.021 94.1094C475.021 94.6628 475.038 95.2161 475.07 95.7695L475.168 98.1133C475.168 98.6341 475.233 99.7409 475.363 101.434L475.388 102.19C475.388 102.728 475.371 103.061 475.339 103.191C474.672 103.81 473.988 104.119 473.288 104.119ZM483.786 103.069C482.484 103.069 481.271 102.662 480.148 101.849C479.302 101.198 478.643 100.368 478.171 99.3584C477.162 97.4541 476.657 95.3626 476.657 93.084C476.657 91.7493 476.844 90.4229 477.219 89.1045C477.251 89.0394 477.276 88.9661 477.292 88.8848C477.422 88.4128 477.585 87.9489 477.78 87.4932C479.066 85.0518 480.84 83.8311 483.103 83.8311C484.03 83.8311 484.942 84.0508 485.837 84.4902C486.732 84.9297 487.513 85.5726 488.181 86.4189C489.385 87.9489 490.15 89.7148 490.476 91.7168C490.557 92.2376 490.598 92.8398 490.598 93.5234C490.598 93.9141 490.573 94.3128 490.524 94.7197C490.427 95.7777 490.223 96.7461 489.914 97.625C489.507 98.6504 489.1 99.4805 488.693 100.115C488.189 100.896 487.562 101.564 486.813 102.117C485.837 102.752 484.828 103.069 483.786 103.069ZM483.688 98.9922C483.77 98.9922 483.949 98.9352 484.226 98.8213C484.502 98.7074 484.893 98.1947 485.397 97.2832C485.56 97.0228 485.699 96.7461 485.812 96.4531V96.4043C486.105 95.6393 486.293 94.9639 486.374 94.3779L486.398 94.3047C486.447 94.028 486.472 93.7594 486.472 93.499C486.472 92.9945 486.439 92.555 486.374 92.1807C486.276 91.5133 486.057 90.846 485.715 90.1787C485.389 89.4951 485.048 88.9661 484.689 88.5918C483.973 87.9733 483.412 87.6641 483.005 87.6641C482.565 87.6641 482.167 88.0628 481.809 88.8604C481.467 89.6579 481.231 90.5124 481.101 91.4238C481.003 91.9935 480.954 92.5713 480.954 93.1572C480.954 94.7523 481.353 96.2822 482.15 97.7471C482.753 98.5771 483.265 98.9922 483.688 98.9922ZM498.239 103.069C496.937 103.069 495.725 102.662 494.602 101.849C493.755 101.198 493.096 100.368 492.624 99.3584C491.615 97.4541 491.11 95.3626 491.11 93.084C491.11 91.7493 491.298 90.4229 491.672 89.1045C491.704 89.0394 491.729 88.9661 491.745 88.8848C491.875 88.4128 492.038 87.9489 492.233 87.4932C493.519 85.0518 495.293 83.8311 497.556 83.8311C498.483 83.8311 499.395 84.0508 500.29 84.4902C501.185 84.9297 501.966 85.5726 502.634 86.4189C503.838 87.9489 504.603 89.7148 504.929 91.7168C505.01 92.2376 505.051 92.8398 505.051 93.5234C505.051 93.9141 505.026 94.3128 504.978 94.7197C504.88 95.7777 504.676 96.7461 504.367 97.625C503.96 98.6504 503.553 99.4805 503.146 100.115C502.642 100.896 502.015 101.564 501.267 102.117C500.29 102.752 499.281 103.069 498.239 103.069ZM498.142 98.9922C498.223 98.9922 498.402 98.9352 498.679 98.8213C498.955 98.7074 499.346 98.1947 499.851 97.2832C500.013 97.0228 500.152 96.7461 500.266 96.4531V96.4043C500.559 95.6393 500.746 94.9639 500.827 94.3779L500.852 94.3047C500.9 94.028 500.925 93.7594 500.925 93.499C500.925 92.9945 500.892 92.555 500.827 92.1807C500.729 91.5133 500.51 90.846 500.168 90.1787C499.842 89.4951 499.501 88.9661 499.143 88.5918C498.426 87.9733 497.865 87.6641 497.458 87.6641C497.019 87.6641 496.62 88.0628 496.262 88.8604C495.92 89.6579 495.684 90.5124 495.554 91.4238C495.456 91.9935 495.407 92.5713 495.407 93.1572C495.407 94.7523 495.806 96.2822 496.604 97.7471C497.206 98.5771 497.718 98.9922 498.142 98.9922ZM519.724 99.0166H519.626C518.698 99.0166 518.015 98.5771 517.575 97.6982C517.51 97.4215 517.478 97.1367 517.478 96.8438C517.478 96.502 517.526 96.0137 517.624 95.3789C517.624 95.2975 517.689 94.8337 517.819 93.9873C518.161 92.2946 518.755 90.8786 519.602 89.7393L519.699 89.6172C519.992 89.194 520.326 88.7708 520.7 88.3477L522.043 86.834C522.157 86.7201 522.263 86.598 522.36 86.4678L522.873 85.9062C523.003 85.7272 523.15 85.54 523.312 85.3447C523.443 85.2145 523.565 85.0599 523.679 84.8809C523.923 84.4902 524.11 84.1566 524.24 83.8799V83.8555C524.37 83.5951 524.436 83.4323 524.436 83.3672C524.484 83.2533 524.509 83.1475 524.509 83.0498V82.6348C524.476 82.1465 524.33 81.7152 524.069 81.3408C523.825 80.9502 523.565 80.6491 523.288 80.4375C522.507 79.7376 521.848 79.3877 521.311 79.3877C521.229 79.3877 521.026 79.4284 520.7 79.5098C520.391 79.5911 520 79.9492 519.528 80.584C519.203 80.8932 518.951 81.2676 518.771 81.707L518.747 81.7559C518.535 82.2604 518.43 82.7812 518.43 83.3184V83.6357C518.43 84.0915 518.544 84.5391 518.771 84.9785C518.837 85.125 518.934 85.2959 519.064 85.4912C519.146 85.7191 519.187 85.9551 519.187 86.1992C519.187 86.5898 519.04 87.0781 518.747 87.6641C518.454 88.2337 518.031 88.6081 517.478 88.7871C517.25 88.7871 517.038 88.7464 516.843 88.665C516.354 88.4535 515.923 88.1686 515.549 87.8105C514.833 87.0293 514.353 86.1423 514.108 85.1494C513.946 84.4984 513.864 83.9043 513.864 83.3672C513.881 82.3255 514.051 81.3408 514.377 80.4131C514.556 79.9411 514.735 79.5667 514.914 79.29C514.914 79.2738 514.922 79.2656 514.938 79.2656C515.313 78.582 515.769 77.9554 516.306 77.3857V77.3613C516.843 76.7428 517.478 76.222 518.21 75.7988C519.024 75.3431 519.854 75.1152 520.7 75.1152L521.579 75.1396C522.149 75.1396 522.71 75.2699 523.264 75.5303C524.354 76.0186 525.445 76.9219 526.535 78.2402C526.926 78.7122 527.276 79.2168 527.585 79.7539C527.894 80.3561 528.106 80.9339 528.22 81.4873C528.317 81.9756 528.366 82.415 528.366 82.8057L528.342 83.2695C528.212 84.3275 527.813 85.4261 527.146 86.5654C526.787 87.1351 526.503 87.5257 526.291 87.7373L526.145 87.9082C525.965 88.1361 525.786 88.3558 525.607 88.5674C525.493 88.6813 525.388 88.7952 525.29 88.9092C525.209 89.0068 525.119 89.1045 525.021 89.2021C524.712 89.5114 524.403 89.8369 524.094 90.1787C524.029 90.2601 523.964 90.3415 523.898 90.4229C523.833 90.5042 523.76 90.5938 523.679 90.6914C523.597 90.7891 523.508 90.8867 523.41 90.9844C522.808 91.668 522.45 92.5306 522.336 93.5723C522.222 94.1257 522.149 94.7441 522.116 95.4277C522.1 96.4857 522.019 97.2751 521.872 97.7959C521.416 98.5934 520.7 99.0003 519.724 99.0166ZM520.236 105.145C519.471 105.145 518.861 104.827 518.405 104.192C518.291 103.883 518.234 103.403 518.234 102.752C518.267 102.117 518.544 101.637 519.064 101.312C519.602 100.986 520.155 100.823 520.725 100.823H520.871C521.962 100.888 522.507 101.393 522.507 102.337L522.482 102.532L522.531 103.069C522.548 103.134 522.556 103.248 522.556 103.411C522.556 103.59 522.539 103.769 522.507 103.948C522.035 104.746 521.278 105.145 520.236 105.145Z" fill="#FFF2EA"/>
</svg>
