<svg width="818" height="620" viewBox="0 0 818 620" fill="none" xmlns="http://www.w3.org/2000/svg">
    <path d="M42.7953 614.99C38.2588 622.414 26.3314 619.919 25.5126 611.376L25.1143 607.189C24.0447 596.039 26.5305 586.329 28.7213 577.758C30.2334 571.851 31.6571 566.272 31.5464 561.351C31.2882 549.691 31.5095 538.604 31.7308 527.88C32.3799 495.8 32.9332 468.096 20.8434 438.036C9.57982 410.025 2.35106 378.476 0.49223 349.199C-1.66165 315.295 3.28047 284.389 14.7801 259.817C17.7601 253.448 19.9435 247.485 22.0605 241.718C27.2387 227.59 32.1291 214.238 46.5719 200.641C50.474 196.964 54.6711 193.35 58.7281 189.854C67.7566 182.074 77.0876 174.035 83.21 165.24C90.5272 154.727 89.1036 143.241 87.2964 128.7C86.5514 122.73 85.7917 116.558 85.6441 110.091C84.8032 72.1811 106.947 44.5541 151.463 27.9863C186.98 14.767 231.252 10.7194 263.582 7.76236C268.879 7.28001 273.887 6.81862 278.542 6.35025C395.028 -5.31712 514.096 1.13523 636.004 9.39817C674.147 11.9847 707.163 17.6471 734.131 26.2316C776.065 39.5768 802.406 59.8216 812.408 86.4C816.295 96.7182 819.865 108.777 816.907 119.976C814.09 130.651 806.153 139.04 791.917 146.394C772.222 156.572 750.292 159.173 729.093 161.689C716.524 163.178 704.655 164.59 693.377 167.464C606.823 189.519 523.575 185.933 435.435 182.137C419.429 181.445 402.876 180.732 386.486 180.2C348.712 178.97 310.016 179.397 272.604 179.809C251.677 180.04 230.028 180.277 208.769 180.221C181.433 180.158 159.473 182.955 141.652 188.792C132.115 191.917 122.503 196.726 113.209 201.375C104.631 205.667 95.7644 210.106 86.7137 213.364C68.1697 220.04 57.7839 232.658 49.67 258.363C38.6277 293.344 35.0944 339.93 39.7341 389.528C40.8996 401.964 45.163 414.058 49.6773 426.858C52.8934 435.974 56.2201 445.404 58.4256 455.17C63.8472 479.176 63.6775 504.349 62.9325 523.602L62.844 525.86C61.8113 552.655 60.5205 586.007 45.0377 611.341L42.7953 614.99ZM416.227 20.2686C370.598 20.2686 325.44 22.0303 280.777 26.5043C276.019 26.9796 270.973 27.441 265.618 27.9303C232.816 30.9293 191.995 34.6623 159.267 46.84C142.346 53.1386 129.422 61.1429 120.851 70.6432C111.196 81.3458 106.667 94.1037 107.013 109.644C107.139 115.132 107.839 120.815 108.525 126.31C110.473 141.962 112.671 159.697 101.053 176.391C97.5863 181.368 93.5515 185.926 89.2364 190.232C93.7876 188.163 98.4125 185.842 103.192 183.451C113.202 178.439 123.551 173.266 134.645 169.631C154.775 163.045 179.043 159.872 208.806 159.956C229.917 160.011 251.485 159.774 272.331 159.543C309.994 159.131 348.933 158.697 387.202 159.949C403.71 160.487 420.321 161.2 436.379 161.892C522.815 165.611 604.456 169.127 687.793 147.89C700.502 144.653 713.669 143.087 726.4 141.577C746.516 139.186 765.51 136.935 781.649 128.596C798.105 120.088 799.986 113.81 792.234 93.2089C784.548 72.7823 762.699 56.7178 727.293 45.4489C702.029 37.4097 670.791 32.0828 634.448 29.6221C560.618 24.6098 487.844 20.2686 416.227 20.2686Z" fill="#FFF2EA"/>
    <path d="M35.766 606.272C50.3194 582.462 51.1824 549.976 52.2298 523.237C53.0855 501.329 52.8126 478.784 47.959 457.302C42.8693 434.764 31.2222 413.47 29.0683 390.429C25.0335 347.283 26.2358 297.202 39.4099 255.468C47.2066 230.777 58.1899 212.797 82.9005 203.898C101.017 197.376 118.838 185.541 138.149 179.214C160.293 171.965 185.313 170.035 208.784 170.091C268.023 170.238 327.646 168.141 386.841 170.077C490.197 173.454 589.563 183.422 690.581 157.683C722.182 149.63 757.905 152.419 786.783 137.501C810.247 125.379 810.763 112.237 802.325 89.8038C782.106 36.1017 687.284 23.0362 635.23 19.5129C518.456 11.5855 396.474 4.72071 279.656 16.43C217.112 22.6936 94.4886 27.1607 96.3327 109.867C96.8122 131.601 105.199 152.048 92.1356 170.811C82.3694 184.841 66.6652 195.999 54.1108 207.82C35.8987 224.975 34.9767 241.661 24.554 263.92C1.18591 313.847 10.126 382.928 30.8386 434.421C47.9 476.847 41.217 514.96 42.2423 561.141C42.5522 575.136 34.1284 589.166 35.766 606.272Z" fill="#22C79E"/>
    <path d="M150.107 109.85H149.595C149.09 109.85 148.586 109.817 148.081 109.752C146.274 109.394 144.761 108.401 143.54 106.773C142.938 106.057 142.384 105.187 141.88 104.161C141.147 102.647 140.602 100.922 140.244 98.9854C140.033 97.6019 139.927 96.3079 139.927 95.1035C139.927 94.4362 139.951 93.777 140 93.126V92.8574C140.081 91.6693 140.244 90.5137 140.488 89.3906C140.716 88.3652 141.001 87.3398 141.343 86.3145L141.782 85.1182C142.515 83.751 143.247 83.0674 143.979 83.0674C144.744 83.0674 145.379 83.4743 145.884 84.2881C146.226 84.874 146.396 85.4762 146.396 86.0947L146.372 86.4854C146.209 86.9899 146.055 87.7142 145.908 88.6582C145.892 88.6582 145.835 89.0163 145.737 89.7324L145.493 92.1494C145.461 92.654 145.444 93.3294 145.444 94.1758C145.461 95.8685 145.566 97.2357 145.762 98.2773C145.924 99.2539 146.136 100.157 146.396 100.987C146.494 101.28 146.681 101.728 146.958 102.33L147.056 102.55C147.414 103.315 147.723 103.884 147.983 104.259C148.26 104.617 148.464 104.861 148.594 104.991C149.001 105.463 149.497 105.699 150.083 105.699C150.132 105.699 150.319 105.691 150.645 105.675C150.97 105.642 151.426 105.309 152.012 104.674C152.207 104.462 152.386 104.234 152.549 103.99C152.549 103.974 152.557 103.966 152.573 103.966C153.289 102.989 153.802 101.923 154.111 100.768C154.144 100.686 154.168 100.597 154.185 100.499C154.217 100.385 154.258 100.263 154.307 100.133C154.486 99.3841 154.632 98.6191 154.746 97.8379L154.771 97.6426C154.836 97.0241 154.868 96.5114 154.868 96.1045C154.868 95.5348 154.876 94.9733 154.893 94.4199L154.868 94.1514V93.4678L154.844 92.6377L154.697 91.2705C154.648 90.9775 154.624 90.6927 154.624 90.416L154.551 89.6836C154.518 89.3906 154.502 89.0977 154.502 88.8047C154.502 88.6582 154.518 88.5036 154.551 88.3408C154.876 87.6572 155.332 87.3154 155.918 87.3154C155.999 87.3154 156.252 87.3561 156.675 87.4375C157.114 87.5026 157.448 88.1211 157.676 89.293L157.847 89.9277C157.896 90.123 157.936 90.3265 157.969 90.5381C158.018 90.9287 158.083 91.3356 158.164 91.7588C158.245 92.182 158.311 92.6133 158.359 93.0527C158.457 93.5573 158.514 93.9805 158.53 94.3223L158.555 94.8105L158.579 95.6895C158.579 96.4382 158.563 97.1868 158.53 97.9355C158.514 98.5052 158.4 99.262 158.188 100.206L158.091 100.621C157.993 101.109 157.814 101.728 157.554 102.477V102.525C157.147 103.551 156.821 104.283 156.577 104.723C156.431 105.032 156.219 105.382 155.942 105.772C155.438 106.489 154.95 107.099 154.478 107.604C153.387 108.775 152.093 109.516 150.596 109.825L150.107 109.85ZM165.806 109.093C164.829 109.093 163.958 108.808 163.193 108.238C162.249 107.538 161.517 106.358 160.996 104.698C160.736 103.966 160.54 103.144 160.41 102.232C160.394 102.07 160.369 101.915 160.337 101.769L160.215 100.816C160.215 100.621 160.199 100.426 160.166 100.23C160.085 99.5306 160.044 98.3994 160.044 96.8369L160.093 96.0068C160.109 95.4535 160.15 94.8919 160.215 94.3223C160.28 93.7526 160.329 93.4189 160.361 93.3213C160.133 93.3213 159.678 93.4271 158.994 93.6387L158.481 93.7607L158.164 93.7852C158.001 93.6875 157.822 93.598 157.627 93.5166C156.878 93.2562 156.504 92.9388 156.504 92.5645C156.504 92.3203 156.781 92.0029 157.334 91.6123L157.383 91.5879C158.083 91.1647 158.953 90.8066 159.995 90.5137C160.516 90.3835 160.833 90.3184 160.947 90.3184L160.972 90.1719L161.118 89.6592C161.232 88.9919 161.419 88.3896 161.68 87.8525C162.119 86.9899 162.64 86.5586 163.242 86.5586C164.04 86.5749 164.74 87.1283 165.342 88.2188L165.22 88.8047L165.049 89.6104L164.976 89.9033C164.976 89.9359 164.967 89.9603 164.951 89.9766L165.195 90.001C165.716 90.001 166.147 90.0091 166.489 90.0254C166.831 90.0417 167.165 90.0742 167.49 90.123C168.174 90.1556 168.743 90.2451 169.199 90.3916C169.508 90.6195 169.663 90.9043 169.663 91.2461C169.663 91.3112 169.639 91.4821 169.59 91.7588C169.541 92.0192 169.338 92.3366 168.979 92.7109C168.621 93.0853 168.215 93.305 167.759 93.3701L167.026 93.2969C166.229 93.1992 165.651 93.1423 165.293 93.126L164.512 93.1016L164.487 93.2236C164.455 93.6143 164.414 93.9967 164.365 94.3711C164.365 94.599 164.349 94.7943 164.316 94.957C164.235 96.015 164.194 96.7311 164.194 97.1055L164.146 97.6914C164.146 99.1237 164.17 100.076 164.219 100.548C164.219 100.743 164.251 101.166 164.316 101.817C164.382 102.175 164.438 102.525 164.487 102.867C164.552 103.209 164.626 103.535 164.707 103.844C164.821 104.348 165 104.828 165.244 105.284C165.488 105.724 165.781 105.943 166.123 105.943C166.416 105.943 166.733 105.65 167.075 105.064C167.238 104.804 167.336 104.625 167.368 104.527C167.694 103.714 168.035 103.307 168.394 103.307C168.8 103.307 169.053 104.039 169.15 105.504C169.134 105.536 169.126 105.577 169.126 105.626V105.772C169.126 106.31 168.923 106.936 168.516 107.652C168.19 108.141 167.808 108.507 167.368 108.751C166.929 108.979 166.408 109.093 165.806 109.093ZM164.951 93.1016C164.821 93.1016 164.699 93.0934 164.585 93.0771H164.512V93.1016H164.951ZM171.885 89.5371C171.852 89.5371 171.608 89.529 171.152 89.5127C170.697 89.4964 170.363 89.0244 170.151 88.0967V86.6562C170.151 86.3633 170.16 86.1517 170.176 86.0215V85.8506C170.339 84.4508 170.965 83.751 172.056 83.751C172.479 83.751 172.853 83.8812 173.179 84.1416C173.618 84.516 173.838 85.1263 173.838 85.9727C173.887 86.3145 173.911 86.6318 173.911 86.9248C173.96 87.2829 173.984 87.6735 173.984 88.0967C173.984 88.2757 173.96 88.4548 173.911 88.6338C173.374 89.236 172.699 89.5371 171.885 89.5371ZM173.569 111.559C172.788 111.559 172.145 111.038 171.641 109.996C171.234 108.645 170.933 106.505 170.737 103.575L170.664 102.794C170.599 101.72 170.558 101.166 170.542 101.134C170.428 99.2132 170.379 97.846 170.396 97.0322C170.396 95.9906 170.412 95.1849 170.444 94.6152C170.542 93.7038 170.811 93.0446 171.25 92.6377C171.641 92.2959 172.072 92.125 172.544 92.125C173.146 92.125 173.643 92.3691 174.033 92.8574C174.342 93.2318 174.497 93.7201 174.497 94.3223L174.473 94.6641L174.497 95.958L174.57 97.4717C174.587 97.8135 174.611 98.1471 174.644 98.4727L174.741 100.084C174.806 100.702 174.855 101.321 174.888 101.939L175.327 106.456C175.49 107.791 175.571 108.816 175.571 109.532C175.311 110.883 174.644 111.559 173.569 111.559ZM179.478 111.119H178.892C178.534 111.119 178.143 110.501 177.72 109.264C177.59 108.645 177.467 108.019 177.354 107.384C177.24 106.749 177.126 106.106 177.012 105.455C176.898 104.804 176.8 104.145 176.719 103.478C176.475 101.345 176.328 99.8968 176.279 99.1318C176.133 97.1787 176.06 95.2581 176.06 93.3701C176.06 92.361 176.076 91.5065 176.108 90.8066V90.0986C176.157 88.8779 176.206 87.6572 176.255 86.4365L176.353 84.9961C176.353 84.6706 176.385 84.2799 176.45 83.8242C176.532 83.3522 176.8 82.9697 177.256 82.6768C177.76 82.3675 178.33 82.2129 178.965 82.2129C179.453 82.2129 179.893 82.335 180.283 82.5791C180.674 82.807 180.869 83.2139 180.869 83.7998C180.934 84.5648 180.967 84.9717 180.967 85.0205C180.983 85.0531 181.016 85.5332 181.064 86.4609L181.089 88.707V89.2197V90.8555V95.6162C181.089 96.5439 181.105 97.4635 181.138 98.375L181.162 99.8154L181.211 101.109C181.211 101.663 181.227 102.216 181.26 102.77L181.357 105.113C181.357 105.634 181.423 106.741 181.553 108.434L181.577 109.19C181.577 109.728 181.561 110.061 181.528 110.191C180.861 110.81 180.177 111.119 179.478 111.119ZM184.58 89.5371C184.548 89.5371 184.303 89.529 183.848 89.5127C183.392 89.4964 183.058 89.0244 182.847 88.0967V86.6562C182.847 86.3633 182.855 86.1517 182.871 86.0215V85.8506C183.034 84.4508 183.66 83.751 184.751 83.751C185.174 83.751 185.549 83.8812 185.874 84.1416C186.313 84.516 186.533 85.1263 186.533 85.9727C186.582 86.3145 186.606 86.6318 186.606 86.9248C186.655 87.2829 186.68 87.6735 186.68 88.0967C186.68 88.2757 186.655 88.4548 186.606 88.6338C186.069 89.236 185.394 89.5371 184.58 89.5371ZM186.265 111.559C185.483 111.559 184.84 111.038 184.336 109.996C183.929 108.645 183.628 106.505 183.433 103.575L183.359 102.794C183.294 101.72 183.254 101.166 183.237 101.134C183.123 99.2132 183.075 97.846 183.091 97.0322C183.091 95.9906 183.107 95.1849 183.14 94.6152C183.237 93.7038 183.506 93.0446 183.945 92.6377C184.336 92.2959 184.767 92.125 185.239 92.125C185.841 92.125 186.338 92.3691 186.729 92.8574C187.038 93.2318 187.192 93.7201 187.192 94.3223L187.168 94.6641L187.192 95.958L187.266 97.4717C187.282 97.8135 187.306 98.1471 187.339 98.4727L187.437 100.084C187.502 100.702 187.55 101.321 187.583 101.939L188.022 106.456C188.185 107.791 188.267 108.816 188.267 109.532C188.006 110.883 187.339 111.559 186.265 111.559ZM196.372 112.047C194.517 112.047 192.881 111.55 191.465 110.558C190.716 110.037 190.114 109.459 189.658 108.824C189.154 108.059 188.885 107.302 188.853 106.554C189.064 105.577 189.495 105.089 190.146 105.089C190.179 105.089 190.374 105.105 190.732 105.138C191.107 105.154 191.66 105.463 192.393 106.065C192.702 106.489 193.027 106.847 193.369 107.14L193.516 107.262C193.727 107.441 193.947 107.587 194.175 107.701C194.907 108.124 195.623 108.336 196.323 108.336C196.991 108.336 197.585 108.1 198.105 107.628L198.228 107.164C198.244 107.083 198.252 106.993 198.252 106.896C198.252 106.586 198.089 106.204 197.764 105.748C197.52 105.406 197.104 105.007 196.519 104.552L196.274 104.332L195.591 103.819L194.663 103.16L194.297 102.94C194.069 102.794 193.825 102.647 193.564 102.501C193.369 102.403 192.987 102.159 192.417 101.769L192.295 101.671C191.937 101.427 191.587 101.158 191.245 100.865C190.48 100.198 189.87 99.4248 189.414 98.5459C188.975 97.667 188.755 96.7148 188.755 95.6895C188.755 94.6315 189.04 93.5898 189.609 92.5645C190.163 91.6042 190.863 90.8555 191.709 90.3184C192.572 89.765 193.589 89.4883 194.761 89.4883C195.916 89.4883 196.942 89.8057 197.837 90.4404C198.439 90.9287 198.887 91.5146 199.18 92.1982C199.424 92.7191 199.546 93.2399 199.546 93.7607C199.546 94.4769 199.31 95.1198 198.838 95.6895C198.333 96.1289 197.902 96.3486 197.544 96.3486C197.528 96.3486 197.422 96.3405 197.227 96.3242C197.031 96.3079 196.681 95.9906 196.177 95.3721C196.112 95.2907 196.079 95.2012 196.079 95.1035V94.7617V94.4199C196.079 94.2734 196.071 94.1921 196.055 94.1758C196.006 94.0781 195.973 94.0212 195.957 94.0049C195.941 93.9723 195.924 93.9479 195.908 93.9316C195.892 93.9154 195.876 93.8991 195.859 93.8828C195.534 93.541 195.233 93.3701 194.956 93.3701C194.386 93.3701 193.939 93.6875 193.613 94.3223C193.418 94.7454 193.32 95.1361 193.32 95.4941C193.32 95.7057 193.369 95.9255 193.467 96.1533C193.63 96.6253 194.077 97.138 194.81 97.6914C194.924 97.8053 195.249 98.0251 195.786 98.3506C195.916 98.4157 196.038 98.4889 196.152 98.5703L197.3 99.2539C198.293 99.9049 198.927 100.344 199.204 100.572C200.034 101.223 200.71 101.866 201.23 102.501C202.256 103.803 202.769 105.203 202.769 106.7C202.769 107.107 202.72 107.514 202.622 107.921C202.183 109.744 201.003 110.989 199.082 111.656C198.219 111.917 197.316 112.047 196.372 112.047ZM210.288 109.972C209.344 109.972 208.4 109.768 207.456 109.361C206.431 108.906 205.576 108.214 204.893 107.286C203.802 105.707 203.257 103.689 203.257 101.231C203.257 99.7503 203.436 98.3018 203.794 96.8857C204.152 95.5674 204.608 94.4199 205.161 93.4434C205.731 92.4668 206.431 91.5716 207.261 90.7578C208.107 89.9277 208.994 89.2686 209.922 88.7803C210.866 88.292 211.794 87.9909 212.705 87.877H214.072C214.512 87.8932 214.951 87.9665 215.391 88.0967C217.181 88.764 218.328 90.001 218.833 91.8076C218.996 92.361 219.077 92.9714 219.077 93.6387C219.077 94.7617 218.833 95.8441 218.345 96.8857C218.003 97.6833 217.474 98.5133 216.758 99.376C216.611 99.6038 216.27 99.9701 215.732 100.475C213.958 102.021 212.201 103.095 210.459 103.697C209.58 103.99 208.774 104.153 208.042 104.186C208.058 104.202 208.075 104.234 208.091 104.283C208.107 104.332 208.123 104.389 208.14 104.454C208.27 104.731 208.441 104.991 208.652 105.235C209.206 105.854 209.8 106.163 210.435 106.163C211.053 106.163 211.655 105.992 212.241 105.65C212.583 105.471 212.909 105.284 213.218 105.089C213.722 104.763 214.015 104.56 214.097 104.479C214.585 104.039 215.09 103.681 215.61 103.404L215.781 103.307C216.042 103.258 216.294 103.233 216.538 103.233C216.88 103.233 217.246 103.307 217.637 103.453C218.044 103.583 218.288 104.023 218.369 104.771C218.271 105.178 218.101 105.561 217.856 105.919C217.629 106.277 217.352 106.603 217.026 106.896C215.513 108.263 213.787 109.231 211.851 109.801C211.33 109.915 210.809 109.972 210.288 109.972ZM207.529 101.329C207.562 101.329 207.586 101.321 207.603 101.305C207.765 101.305 208.115 101.207 208.652 101.012C209.971 100.458 211.338 99.5143 212.754 98.1797C213.34 97.5775 213.804 97.0078 214.146 96.4707C214.666 95.5267 214.935 94.6478 214.951 93.834C214.951 93.3457 214.805 92.833 214.512 92.2959C214.365 92.068 214.194 91.9297 213.999 91.8809H214.097H213.633H213.975C213.828 91.832 213.625 91.8076 213.364 91.8076C213.088 91.8402 212.949 91.8646 212.949 91.8809H213.633C213.047 91.8809 212.355 92.1331 211.558 92.6377C210.125 93.6143 209.076 94.9001 208.408 96.4951C207.822 97.8786 207.529 99.4899 207.529 101.329ZM224.204 109.605C224.025 109.605 223.732 109.557 223.325 109.459C222.658 109.264 222.121 108.255 221.714 106.432L221.323 104.576L220.957 102.696C220.859 102.208 220.713 101.378 220.518 100.206C220.322 99.0993 220.16 97.9844 220.029 96.8613C219.98 96.2266 219.924 95.5999 219.858 94.9814C219.712 93.2236 219.614 91.6855 219.565 90.3672V89.3174C219.631 88.7965 219.891 88.4141 220.347 88.1699C220.802 87.9095 221.323 87.7793 221.909 87.7793C222.511 87.7793 223.032 87.9095 223.472 88.1699C223.927 88.4141 224.18 88.7803 224.229 89.2686C224.229 89.4476 224.237 89.6104 224.253 89.7568C224.269 89.9033 224.277 90.0579 224.277 90.2207C224.294 90.3835 224.31 90.5462 224.326 90.709L224.399 91.417L224.497 92.7109L224.57 92.6133C225.303 91.6693 226.011 91.0182 226.694 90.6602C227.183 90.3997 227.752 90.2695 228.403 90.2695C229.347 90.2695 230.234 90.5137 231.064 91.002C231.862 91.5879 232.424 92.1006 232.749 92.54C233.075 92.9632 233.392 93.5573 233.701 94.3223L234.116 95.5918L234.434 97.0078C234.515 97.4473 234.556 97.9274 234.556 98.4482C234.556 98.8063 234.491 99.1481 234.36 99.4736C234.295 99.734 234.141 99.9212 233.896 100.035C233.669 100.149 233.506 100.247 233.408 100.328L233.066 100.597L231.821 100.743C231.691 100.646 231.569 100.572 231.455 100.523L230.82 100.328C230.723 100.312 230.641 100.287 230.576 100.255C230.527 100.222 230.43 100.108 230.283 99.9131C229.925 99.3923 229.681 98.6436 229.551 97.667C229.502 97.1787 229.421 96.6986 229.307 96.2266L229.209 95.8115C228.965 94.7699 228.566 94.249 228.013 94.249C227.459 94.249 226.833 94.7536 226.133 95.7627C225.791 96.2998 225.588 96.6986 225.522 96.959C225.295 97.3984 225.156 97.7158 225.107 97.9111L225.059 97.9844C225.091 98.1146 225.107 98.2367 225.107 98.3506L225.474 101.231L225.596 102.086L225.718 103.111L225.84 103.941C225.84 103.99 225.848 104.031 225.864 104.063C226.108 105.772 226.23 106.944 226.23 107.579C226.149 108.36 225.848 108.922 225.327 109.264C224.969 109.492 224.595 109.605 224.204 109.605ZM249.277 114.635C249.147 114.635 249.025 114.627 248.911 114.61C248.797 114.594 248.618 114.464 248.374 114.22L248.13 113.854C247.821 113.43 247.52 112.747 247.227 111.803C247.21 111.705 247.186 111.616 247.153 111.534C246.828 110.297 246.576 108.93 246.396 107.433C246.364 107.156 246.348 106.887 246.348 106.627L246.274 106.725C245.33 108.076 244.297 109.068 243.174 109.703H243.149C242.303 110.191 241.408 110.436 240.464 110.436C239.032 110.436 237.827 109.898 236.851 108.824C235.646 107.555 235.044 105.659 235.044 103.136C235.174 100.629 235.898 98.3262 237.217 96.2266C237.9 95.1198 238.633 94.2327 239.414 93.5654C239.414 93.484 239.821 93.1748 240.635 92.6377C241.774 91.9541 243.068 91.6042 244.517 91.5879C245.558 91.5879 246.445 91.832 247.178 92.3203C247.34 92.4017 247.544 92.5645 247.788 92.8086C247.788 92.8249 247.796 92.833 247.812 92.833C248.203 93.2562 248.398 93.6794 248.398 94.1025C248.398 94.3141 248.382 94.4525 248.35 94.5176C248.317 94.5827 248.268 94.6559 248.203 94.7373C247.91 95.0791 247.121 95.25 245.835 95.25H245.518C244.688 95.25 243.931 95.3639 243.247 95.5918C242.352 96.0964 241.546 96.8939 240.83 97.9844C239.805 99.6934 239.259 101.451 239.194 103.258C239.194 104.007 239.308 104.69 239.536 105.309C239.78 106.008 240.155 106.358 240.659 106.358C241.115 106.358 241.799 105.943 242.71 105.113C242.71 105.097 242.718 105.089 242.734 105.089C243.141 104.715 243.743 104.031 244.541 103.038L245.078 102.379C245.225 102.151 245.379 101.939 245.542 101.744C245.705 101.549 245.851 101.345 245.981 101.134L246.299 100.646C246.299 100.385 246.331 100.092 246.396 99.7666C246.462 99.2946 246.551 98.8551 246.665 98.4482L246.885 98.0332C247.048 97.724 247.422 97.5693 248.008 97.5693C248.171 97.5693 248.382 97.5856 248.643 97.6182C249.229 97.7158 249.521 97.9193 249.521 98.2285L249.497 98.375C249.497 98.3913 249.505 98.4076 249.521 98.4238C249.554 98.4401 249.603 98.4808 249.668 98.5459C249.733 98.6598 249.766 98.847 249.766 99.1074L249.741 99.791L249.717 102.257C249.717 103.478 249.749 104.446 249.814 105.162C249.814 105.455 249.863 106.106 249.961 107.115C250.091 108.092 250.189 108.702 250.254 108.946C250.433 110.053 250.653 111.046 250.913 111.925L250.986 112.169C251.1 112.446 251.165 112.722 251.182 112.999C251.182 113.618 250.938 114.065 250.449 114.342C250.091 114.537 249.701 114.635 249.277 114.635ZM245.591 98.1309C245.575 98.1146 245.55 98.1064 245.518 98.1064C245.501 98.1064 245.485 98.1064 245.469 98.1064C245.452 98.1064 245.444 98.0983 245.444 98.082L245.518 98.0088C245.534 98.0088 245.542 98.0169 245.542 98.0332C245.558 98.0332 245.566 98.0495 245.566 98.082C245.583 98.0983 245.591 98.1146 245.591 98.1309ZM259.312 112.047C257.456 112.047 255.82 111.55 254.404 110.558C253.656 110.037 253.053 109.459 252.598 108.824C252.093 108.059 251.825 107.302 251.792 106.554C252.004 105.577 252.435 105.089 253.086 105.089C253.118 105.089 253.314 105.105 253.672 105.138C254.046 105.154 254.6 105.463 255.332 106.065C255.641 106.489 255.967 106.847 256.309 107.14L256.455 107.262C256.667 107.441 256.886 107.587 257.114 107.701C257.847 108.124 258.563 108.336 259.263 108.336C259.93 108.336 260.524 108.1 261.045 107.628L261.167 107.164C261.183 107.083 261.191 106.993 261.191 106.896C261.191 106.586 261.029 106.204 260.703 105.748C260.459 105.406 260.044 105.007 259.458 104.552L259.214 104.332L258.53 103.819L257.603 103.16L257.236 102.94C257.008 102.794 256.764 102.647 256.504 102.501C256.309 102.403 255.926 102.159 255.356 101.769L255.234 101.671C254.876 101.427 254.526 101.158 254.185 100.865C253.42 100.198 252.809 99.4248 252.354 98.5459C251.914 97.667 251.694 96.7148 251.694 95.6895C251.694 94.6315 251.979 93.5898 252.549 92.5645C253.102 91.6042 253.802 90.8555 254.648 90.3184C255.511 89.765 256.528 89.4883 257.7 89.4883C258.856 89.4883 259.881 89.8057 260.776 90.4404C261.379 90.9287 261.826 91.5146 262.119 92.1982C262.363 92.7191 262.485 93.2399 262.485 93.7607C262.485 94.4769 262.249 95.1198 261.777 95.6895C261.273 96.1289 260.841 96.3486 260.483 96.3486C260.467 96.3486 260.361 96.3405 260.166 96.3242C259.971 96.3079 259.621 95.9906 259.116 95.3721C259.051 95.2907 259.019 95.2012 259.019 95.1035V94.7617V94.4199C259.019 94.2734 259.01 94.1921 258.994 94.1758C258.945 94.0781 258.913 94.0212 258.896 94.0049C258.88 93.9723 258.864 93.9479 258.848 93.9316C258.831 93.9154 258.815 93.8991 258.799 93.8828C258.473 93.541 258.172 93.3701 257.896 93.3701C257.326 93.3701 256.878 93.6875 256.553 94.3223C256.357 94.7454 256.26 95.1361 256.26 95.4941C256.26 95.7057 256.309 95.9255 256.406 96.1533C256.569 96.6253 257.017 97.138 257.749 97.6914C257.863 97.8053 258.188 98.0251 258.726 98.3506C258.856 98.4157 258.978 98.4889 259.092 98.5703L260.239 99.2539C261.232 99.9049 261.867 100.344 262.144 100.572C262.974 101.223 263.649 101.866 264.17 102.501C265.195 103.803 265.708 105.203 265.708 106.7C265.708 107.107 265.659 107.514 265.562 107.921C265.122 109.744 263.942 110.989 262.021 111.656C261.159 111.917 260.256 112.047 259.312 112.047ZM267.124 99.9375C266.782 100.133 266.538 100.418 266.392 100.792C266.261 101.15 266.278 101.476 266.44 101.769C266.668 102.159 267.051 102.468 267.588 102.696C268.141 102.908 268.996 103.095 270.151 103.258C271.112 103.372 272.666 103.478 274.814 103.575C276.979 103.673 279.054 103.738 281.04 103.771C283.042 103.803 284.263 103.787 284.702 103.722C285.093 103.608 285.443 103.396 285.752 103.087C286.061 102.761 286.216 102.452 286.216 102.159C286.216 102.013 286.159 101.842 286.045 101.646C285.947 101.451 285.825 101.28 285.679 101.134C285.532 100.987 285.337 100.873 285.093 100.792C284.849 100.711 284.425 100.646 283.823 100.597C283.221 100.548 282.301 100.499 281.064 100.45C279.893 100.385 278.542 100.304 277.012 100.206C275.482 100.108 274.123 100.011 272.935 99.9131C271.714 99.8154 270.754 99.7422 270.054 99.6934C269.354 99.6445 268.825 99.6201 268.467 99.6201C268.109 99.6201 267.84 99.6445 267.661 99.6934C267.482 99.7422 267.303 99.8236 267.124 99.9375ZM293.442 109.093C292.466 109.093 291.595 108.808 290.83 108.238C289.886 107.538 289.154 106.358 288.633 104.698C288.372 103.966 288.177 103.144 288.047 102.232C288.031 102.07 288.006 101.915 287.974 101.769L287.852 100.816C287.852 100.621 287.835 100.426 287.803 100.23C287.721 99.5306 287.681 98.3994 287.681 96.8369L287.729 96.0068C287.746 95.4535 287.786 94.8919 287.852 94.3223C287.917 93.7526 287.965 93.4189 287.998 93.3213C287.77 93.3213 287.314 93.4271 286.631 93.6387L286.118 93.7607L285.801 93.7852C285.638 93.6875 285.459 93.598 285.264 93.5166C284.515 93.2562 284.141 92.9388 284.141 92.5645C284.141 92.3203 284.417 92.0029 284.971 91.6123L285.02 91.5879C285.719 91.1647 286.59 90.8066 287.632 90.5137C288.153 90.3835 288.47 90.3184 288.584 90.3184L288.608 90.1719L288.755 89.6592C288.869 88.9919 289.056 88.3896 289.316 87.8525C289.756 86.9899 290.277 86.5586 290.879 86.5586C291.676 86.5749 292.376 87.1283 292.979 88.2188L292.856 88.8047L292.686 89.6104L292.612 89.9033C292.612 89.9359 292.604 89.9603 292.588 89.9766L292.832 90.001C293.353 90.001 293.784 90.0091 294.126 90.0254C294.468 90.0417 294.801 90.0742 295.127 90.123C295.811 90.1556 296.38 90.2451 296.836 90.3916C297.145 90.6195 297.3 90.9043 297.3 91.2461C297.3 91.3112 297.275 91.4821 297.227 91.7588C297.178 92.0192 296.974 92.3366 296.616 92.7109C296.258 93.0853 295.851 93.305 295.396 93.3701L294.663 93.2969C293.866 93.1992 293.288 93.1423 292.93 93.126L292.148 93.1016L292.124 93.2236C292.091 93.6143 292.051 93.9967 292.002 94.3711C292.002 94.599 291.986 94.7943 291.953 94.957C291.872 96.015 291.831 96.7311 291.831 97.1055L291.782 97.6914C291.782 99.1237 291.807 100.076 291.855 100.548C291.855 100.743 291.888 101.166 291.953 101.817C292.018 102.175 292.075 102.525 292.124 102.867C292.189 103.209 292.262 103.535 292.344 103.844C292.458 104.348 292.637 104.828 292.881 105.284C293.125 105.724 293.418 105.943 293.76 105.943C294.053 105.943 294.37 105.65 294.712 105.064C294.875 104.804 294.972 104.625 295.005 104.527C295.33 103.714 295.672 103.307 296.03 103.307C296.437 103.307 296.689 104.039 296.787 105.504C296.771 105.536 296.763 105.577 296.763 105.626V105.772C296.763 106.31 296.559 106.936 296.152 107.652C295.827 108.141 295.444 108.507 295.005 108.751C294.565 108.979 294.045 109.093 293.442 109.093ZM292.588 93.1016C292.458 93.1016 292.336 93.0934 292.222 93.0771H292.148V93.1016H292.588ZM305.771 110.313C304.225 110.313 302.817 109.858 301.548 108.946C300.767 108.295 300.099 107.514 299.546 106.603L299.326 106.188C298.691 105.081 298.228 103.681 297.935 101.988C297.869 101.386 297.821 100.792 297.788 100.206C297.788 98.9202 297.894 97.7484 298.105 96.6904C298.35 95.3232 298.838 93.8421 299.57 92.2471C300.189 91.0101 300.734 90.1719 301.206 89.7324C301.32 89.651 301.475 89.6104 301.67 89.6104C302.272 89.6104 302.939 89.887 303.672 90.4404C304.421 90.9775 304.795 91.5146 304.795 92.0518C304.795 92.3285 304.673 92.6051 304.429 92.8818C304.119 93.5817 303.859 94.363 303.647 95.2256C303.403 96.2347 303.257 97.2275 303.208 98.2041L303.184 99.0342C303.184 99.9131 303.257 100.678 303.403 101.329C303.517 102.045 303.615 102.444 303.696 102.525C303.973 103.339 304.242 103.982 304.502 104.454C305.072 105.366 305.706 105.821 306.406 105.821C307.025 105.821 307.798 105.398 308.726 104.552C309.181 104.063 309.539 103.567 309.8 103.062C310.125 102.509 310.369 101.915 310.532 101.28C310.793 100.434 310.923 99.5794 310.923 98.7168C310.923 97.9681 310.866 97.195 310.752 96.3975L310.728 96.3242C310.614 95.6406 310.435 94.9245 310.19 94.1758C309.914 93.2969 309.678 92.654 309.482 92.2471L309.238 91.7344C309.076 91.4414 308.994 91.1973 308.994 91.002C308.994 90.4811 309.214 90.0498 309.653 89.708C310.093 89.3499 310.63 89.1709 311.265 89.1709C312.404 89.1709 313.039 89.7568 313.169 90.9287L313.584 92.1006L313.95 93.3457C314.341 94.9733 314.569 96.2184 314.634 97.0811L314.707 98.79C314.707 99.848 314.544 100.971 314.219 102.159L313.828 103.355L313.706 103.648C313.299 104.69 312.738 105.683 312.021 106.627C310.866 108.157 309.588 109.215 308.188 109.801C307.407 110.143 306.602 110.313 305.771 110.313ZM335.85 112.657H335.728C334.604 112.657 333.913 111.046 333.652 107.823C332.562 108.425 331.366 108.727 330.063 108.727C327.964 108.727 326.304 107.978 325.083 106.48C324.351 105.585 323.887 104.56 323.691 103.404C323.577 102.818 323.521 102.127 323.521 101.329C323.521 99.7829 323.813 98.2367 324.399 96.6904C324.871 95.6162 325.417 94.721 326.035 94.0049C327.402 92.5075 329.079 91.7588 331.064 91.7588C331.39 91.7588 331.715 91.7751 332.041 91.8076L333.188 92.0762C333.188 91.3763 333.197 90.8066 333.213 90.3672C333.245 89.9277 333.262 89.5046 333.262 89.0977C333.294 88.0234 333.384 86.7051 333.53 85.1426C333.628 84.0358 333.783 82.9697 333.994 81.9443C334.141 81.3096 334.271 80.9027 334.385 80.7236C334.417 80.512 334.507 80.3411 334.653 80.2109C334.963 79.9342 335.345 79.7959 335.801 79.7959C336.24 79.7959 336.606 79.9668 336.899 80.3086C337.013 80.4876 337.087 80.6829 337.119 80.8945L337.144 81.041C337.225 81.3991 337.282 81.7653 337.314 82.1396C337.363 82.7256 337.388 83.4906 337.388 84.4346L337.363 85.3135C337.331 86.4528 337.314 87.5596 337.314 88.6338C337.298 89.0407 337.29 89.6185 337.29 90.3672V96.3486C337.29 97.0811 337.298 97.6833 337.314 98.1553V101.939L337.412 106.993L337.461 108.604C337.461 111.192 336.924 112.543 335.85 112.657ZM330.332 104.576C330.397 104.576 330.454 104.568 330.503 104.552C330.649 104.552 330.747 104.544 330.796 104.527H330.674C331.081 104.495 331.593 104.348 332.212 104.088C332.31 104.039 332.415 103.998 332.529 103.966C332.985 103.754 333.245 103.616 333.311 103.551H333.335C333.319 103.03 333.294 102.517 333.262 102.013C333.197 100.727 333.164 98.9772 333.164 96.7637V96.2998C333.132 96.2998 333.099 96.2835 333.066 96.251C332.301 95.8115 331.61 95.5918 330.991 95.5918C330.356 95.5918 329.795 95.8441 329.307 96.3486C328.867 96.7881 328.517 97.3252 328.257 97.96C328.029 98.4971 327.915 98.8714 327.915 99.083C327.752 99.734 327.671 100.401 327.671 101.085C327.671 101.703 327.744 102.241 327.891 102.696C328.249 103.771 328.802 104.381 329.551 104.527H330.674L330.576 104.552L330.161 104.576L329.648 104.552C329.762 104.568 329.933 104.576 330.161 104.576H330.332ZM339.512 78.7217C339.219 80.4469 339.023 81.7734 338.926 82.7012C338.828 83.6289 338.804 84.4183 338.853 85.0693C338.901 85.7041 338.999 86.4609 339.146 87.3398C339.178 87.5189 339.211 87.7061 339.243 87.9014C339.422 88.1455 339.65 88.3571 339.927 88.5361C340.203 88.6989 340.448 88.7803 340.659 88.7803C341.099 88.7803 341.587 88.528 342.124 88.0234C342.661 87.5026 343.052 86.9167 343.296 86.2656C343.54 84.8822 343.589 83.3604 343.442 81.7002C343.296 80.04 342.954 78.6729 342.417 77.5986C342.01 77.3219 341.514 77.2975 340.928 77.5254C340.358 77.7533 339.886 78.152 339.512 78.7217ZM358.75 114.635C358.62 114.635 358.498 114.627 358.384 114.61C358.27 114.594 358.091 114.464 357.847 114.22L357.603 113.854C357.293 113.43 356.992 112.747 356.699 111.803C356.683 111.705 356.659 111.616 356.626 111.534C356.3 110.297 356.048 108.93 355.869 107.433C355.837 107.156 355.82 106.887 355.82 106.627L355.747 106.725C354.803 108.076 353.77 109.068 352.646 109.703H352.622C351.776 110.191 350.881 110.436 349.937 110.436C348.504 110.436 347.3 109.898 346.323 108.824C345.119 107.555 344.517 105.659 344.517 103.136C344.647 100.629 345.371 98.3262 346.689 96.2266C347.373 95.1198 348.105 94.2327 348.887 93.5654C348.887 93.484 349.294 93.1748 350.107 92.6377C351.247 91.9541 352.541 91.6042 353.989 91.5879C355.031 91.5879 355.918 91.832 356.65 92.3203C356.813 92.4017 357.017 92.5645 357.261 92.8086C357.261 92.8249 357.269 92.833 357.285 92.833C357.676 93.2562 357.871 93.6794 357.871 94.1025C357.871 94.3141 357.855 94.4525 357.822 94.5176C357.79 94.5827 357.741 94.6559 357.676 94.7373C357.383 95.0791 356.593 95.25 355.308 95.25H354.99C354.16 95.25 353.403 95.3639 352.72 95.5918C351.825 96.0964 351.019 96.8939 350.303 97.9844C349.277 99.6934 348.732 101.451 348.667 103.258C348.667 104.007 348.781 104.69 349.009 105.309C349.253 106.008 349.627 106.358 350.132 106.358C350.588 106.358 351.271 105.943 352.183 105.113C352.183 105.097 352.191 105.089 352.207 105.089C352.614 104.715 353.216 104.031 354.014 103.038L354.551 102.379C354.697 102.151 354.852 101.939 355.015 101.744C355.177 101.549 355.324 101.345 355.454 101.134L355.771 100.646C355.771 100.385 355.804 100.092 355.869 99.7666C355.934 99.2946 356.024 98.8551 356.138 98.4482L356.357 98.0332C356.52 97.724 356.895 97.5693 357.48 97.5693C357.643 97.5693 357.855 97.5856 358.115 97.6182C358.701 97.7158 358.994 97.9193 358.994 98.2285L358.97 98.375C358.97 98.3913 358.978 98.4076 358.994 98.4238C359.027 98.4401 359.076 98.4808 359.141 98.5459C359.206 98.6598 359.238 98.847 359.238 99.1074L359.214 99.791L359.189 102.257C359.189 103.478 359.222 104.446 359.287 105.162C359.287 105.455 359.336 106.106 359.434 107.115C359.564 108.092 359.661 108.702 359.727 108.946C359.906 110.053 360.125 111.046 360.386 111.925L360.459 112.169C360.573 112.446 360.638 112.722 360.654 112.999C360.654 113.618 360.41 114.065 359.922 114.342C359.564 114.537 359.173 114.635 358.75 114.635ZM355.063 98.1309C355.047 98.1146 355.023 98.1064 354.99 98.1064C354.974 98.1064 354.958 98.1064 354.941 98.1064C354.925 98.1064 354.917 98.0983 354.917 98.082L354.99 98.0088C355.007 98.0088 355.015 98.0169 355.015 98.0332C355.031 98.0332 355.039 98.0495 355.039 98.082C355.055 98.0983 355.063 98.1146 355.063 98.1309ZM369.15 110.313C367.604 110.313 366.196 109.858 364.927 108.946C364.146 108.295 363.478 107.514 362.925 106.603L362.705 106.188C362.07 105.081 361.606 103.681 361.313 101.988C361.248 101.386 361.2 100.792 361.167 100.206C361.167 98.9202 361.273 97.7484 361.484 96.6904C361.729 95.3232 362.217 93.8421 362.949 92.2471C363.568 91.0101 364.113 90.1719 364.585 89.7324C364.699 89.651 364.854 89.6104 365.049 89.6104C365.651 89.6104 366.318 89.887 367.051 90.4404C367.799 90.9775 368.174 91.5146 368.174 92.0518C368.174 92.3285 368.052 92.6051 367.808 92.8818C367.498 93.5817 367.238 94.363 367.026 95.2256C366.782 96.2347 366.636 97.2275 366.587 98.2041L366.562 99.0342C366.562 99.9131 366.636 100.678 366.782 101.329C366.896 102.045 366.994 102.444 367.075 102.525C367.352 103.339 367.62 103.982 367.881 104.454C368.451 105.366 369.085 105.821 369.785 105.821C370.404 105.821 371.177 105.398 372.104 104.552C372.56 104.063 372.918 103.567 373.179 103.062C373.504 102.509 373.748 101.915 373.911 101.28C374.172 100.434 374.302 99.5794 374.302 98.7168C374.302 97.9681 374.245 97.195 374.131 96.3975L374.106 96.3242C373.993 95.6406 373.813 94.9245 373.569 94.1758C373.293 93.2969 373.057 92.654 372.861 92.2471L372.617 91.7344C372.454 91.4414 372.373 91.1973 372.373 91.002C372.373 90.4811 372.593 90.0498 373.032 89.708C373.472 89.3499 374.009 89.1709 374.644 89.1709C375.783 89.1709 376.418 89.7568 376.548 90.9287L376.963 92.1006L377.329 93.3457C377.72 94.9733 377.948 96.2184 378.013 97.0811L378.086 98.79C378.086 99.848 377.923 100.971 377.598 102.159L377.207 103.355L377.085 103.648C376.678 104.69 376.117 105.683 375.4 106.627C374.245 108.157 372.967 109.215 371.567 109.801C370.786 110.143 369.98 110.313 369.15 110.313ZM385.337 109.093C384.36 109.093 383.49 108.808 382.725 108.238C381.781 107.538 381.048 106.358 380.527 104.698C380.267 103.966 380.072 103.144 379.941 102.232C379.925 102.07 379.901 101.915 379.868 101.769L379.746 100.816C379.746 100.621 379.73 100.426 379.697 100.23C379.616 99.5306 379.575 98.3994 379.575 96.8369L379.624 96.0068C379.64 95.4535 379.681 94.8919 379.746 94.3223C379.811 93.7526 379.86 93.4189 379.893 93.3213C379.665 93.3213 379.209 93.4271 378.525 93.6387L378.013 93.7607L377.695 93.7852C377.533 93.6875 377.354 93.598 377.158 93.5166C376.41 93.2562 376.035 92.9388 376.035 92.5645C376.035 92.3203 376.312 92.0029 376.865 91.6123L376.914 91.5879C377.614 91.1647 378.485 90.8066 379.526 90.5137C380.047 90.3835 380.365 90.3184 380.479 90.3184L380.503 90.1719L380.649 89.6592C380.763 88.9919 380.951 88.3896 381.211 87.8525C381.65 86.9899 382.171 86.5586 382.773 86.5586C383.571 86.5749 384.271 87.1283 384.873 88.2188L384.751 88.8047L384.58 89.6104L384.507 89.9033C384.507 89.9359 384.499 89.9603 384.482 89.9766L384.727 90.001C385.247 90.001 385.679 90.0091 386.021 90.0254C386.362 90.0417 386.696 90.0742 387.021 90.123C387.705 90.1556 388.275 90.2451 388.73 90.3916C389.04 90.6195 389.194 90.9043 389.194 91.2461C389.194 91.3112 389.17 91.4821 389.121 91.7588C389.072 92.0192 388.869 92.3366 388.511 92.7109C388.153 93.0853 387.746 93.305 387.29 93.3701L386.558 93.2969C385.76 93.1992 385.182 93.1423 384.824 93.126L384.043 93.1016L384.019 93.2236C383.986 93.6143 383.945 93.9967 383.896 94.3711C383.896 94.599 383.88 94.7943 383.848 94.957C383.766 96.015 383.726 96.7311 383.726 97.1055L383.677 97.6914C383.677 99.1237 383.701 100.076 383.75 100.548C383.75 100.743 383.783 101.166 383.848 101.817C383.913 102.175 383.97 102.525 384.019 102.867C384.084 103.209 384.157 103.535 384.238 103.844C384.352 104.348 384.531 104.828 384.775 105.284C385.02 105.724 385.312 105.943 385.654 105.943C385.947 105.943 386.265 105.65 386.606 105.064C386.769 104.804 386.867 104.625 386.899 104.527C387.225 103.714 387.567 103.307 387.925 103.307C388.332 103.307 388.584 104.039 388.682 105.504C388.665 105.536 388.657 105.577 388.657 105.626V105.772C388.657 106.31 388.454 106.936 388.047 107.652C387.721 108.141 387.339 108.507 386.899 108.751C386.46 108.979 385.939 109.093 385.337 109.093ZM384.482 93.1016C384.352 93.1016 384.23 93.0934 384.116 93.0771H384.043V93.1016H384.482ZM394.321 109.605C394.142 109.605 393.849 109.557 393.442 109.459C392.775 109.264 392.238 108.255 391.831 106.432L391.44 104.576L391.074 102.696C390.977 102.208 390.83 101.378 390.635 100.206C390.439 99.0993 390.277 97.9844 390.146 96.8613C390.098 96.2266 390.041 95.5999 389.976 94.9814C389.829 93.2236 389.731 91.6855 389.683 90.3672V89.3174C389.748 88.7965 390.008 88.4141 390.464 88.1699C390.92 87.9095 391.44 87.7793 392.026 87.7793C392.629 87.7793 393.149 87.9095 393.589 88.1699C394.045 88.4141 394.297 88.7803 394.346 89.2686C394.346 89.4476 394.354 89.6104 394.37 89.7568C394.386 89.9033 394.395 90.0579 394.395 90.2207C394.411 90.3835 394.427 90.5462 394.443 90.709L394.517 91.417L394.614 92.7109L394.688 92.6133C395.42 91.6693 396.128 91.0182 396.812 90.6602C397.3 90.3997 397.869 90.2695 398.521 90.2695C399.465 90.2695 400.352 90.5137 401.182 91.002C401.979 91.5879 402.541 92.1006 402.866 92.54C403.192 92.9632 403.509 93.5573 403.818 94.3223L404.233 95.5918L404.551 97.0078C404.632 97.4473 404.673 97.9274 404.673 98.4482C404.673 98.8063 404.608 99.1481 404.478 99.4736C404.412 99.734 404.258 99.9212 404.014 100.035C403.786 100.149 403.623 100.247 403.525 100.328L403.184 100.597L401.938 100.743C401.808 100.646 401.686 100.572 401.572 100.523L400.938 100.328C400.84 100.312 400.758 100.287 400.693 100.255C400.645 100.222 400.547 100.108 400.4 99.9131C400.042 99.3923 399.798 98.6436 399.668 97.667C399.619 97.1787 399.538 96.6986 399.424 96.2266L399.326 95.8115C399.082 94.7699 398.683 94.249 398.13 94.249C397.576 94.249 396.95 94.7536 396.25 95.7627C395.908 96.2998 395.705 96.6986 395.64 96.959C395.412 97.3984 395.273 97.7158 395.225 97.9111L395.176 97.9844C395.208 98.1146 395.225 98.2367 395.225 98.3506L395.591 101.231L395.713 102.086L395.835 103.111L395.957 103.941C395.957 103.99 395.965 104.031 395.981 104.063C396.226 105.772 396.348 106.944 396.348 107.579C396.266 108.36 395.965 108.922 395.444 109.264C395.086 109.492 394.712 109.605 394.321 109.605ZM412.192 109.972C411.248 109.972 410.304 109.768 409.36 109.361C408.335 108.906 407.48 108.214 406.797 107.286C405.706 105.707 405.161 103.689 405.161 101.231C405.161 99.7503 405.34 98.3018 405.698 96.8857C406.056 95.5674 406.512 94.4199 407.065 93.4434C407.635 92.4668 408.335 91.5716 409.165 90.7578C410.011 89.9277 410.898 89.2686 411.826 88.7803C412.77 88.292 413.698 87.9909 414.609 87.877H415.977C416.416 87.8932 416.855 87.9665 417.295 88.0967C419.085 88.764 420.233 90.001 420.737 91.8076C420.9 92.361 420.981 92.9714 420.981 93.6387C420.981 94.7617 420.737 95.8441 420.249 96.8857C419.907 97.6833 419.378 98.5133 418.662 99.376C418.516 99.6038 418.174 99.9701 417.637 100.475C415.863 102.021 414.105 103.095 412.363 103.697C411.484 103.99 410.679 104.153 409.946 104.186C409.963 104.202 409.979 104.234 409.995 104.283C410.011 104.332 410.028 104.389 410.044 104.454C410.174 104.731 410.345 104.991 410.557 105.235C411.11 105.854 411.704 106.163 412.339 106.163C412.957 106.163 413.56 105.992 414.146 105.65C414.487 105.471 414.813 105.284 415.122 105.089C415.627 104.763 415.92 104.56 416.001 104.479C416.489 104.039 416.994 103.681 417.515 103.404L417.686 103.307C417.946 103.258 418.198 103.233 418.442 103.233C418.784 103.233 419.15 103.307 419.541 103.453C419.948 103.583 420.192 104.023 420.273 104.771C420.176 105.178 420.005 105.561 419.761 105.919C419.533 106.277 419.256 106.603 418.931 106.896C417.417 108.263 415.692 109.231 413.755 109.801C413.234 109.915 412.713 109.972 412.192 109.972ZM409.434 101.329C409.466 101.329 409.491 101.321 409.507 101.305C409.67 101.305 410.02 101.207 410.557 101.012C411.875 100.458 413.242 99.5143 414.658 98.1797C415.244 97.5775 415.708 97.0078 416.05 96.4707C416.571 95.5267 416.839 94.6478 416.855 93.834C416.855 93.3457 416.709 92.833 416.416 92.2959C416.27 92.068 416.099 91.9297 415.903 91.8809H416.001H415.537H415.879C415.732 91.832 415.529 91.8076 415.269 91.8076C414.992 91.8402 414.854 91.8646 414.854 91.8809H415.537C414.951 91.8809 414.259 92.1331 413.462 92.6377C412.03 93.6143 410.98 94.9001 410.312 96.4951C409.727 97.8786 409.434 99.4899 409.434 101.329ZM429.087 112.047C427.231 112.047 425.596 111.55 424.18 110.558C423.431 110.037 422.829 109.459 422.373 108.824C421.868 108.059 421.6 107.302 421.567 106.554C421.779 105.577 422.21 105.089 422.861 105.089C422.894 105.089 423.089 105.105 423.447 105.138C423.822 105.154 424.375 105.463 425.107 106.065C425.417 106.489 425.742 106.847 426.084 107.14L426.23 107.262C426.442 107.441 426.662 107.587 426.89 107.701C427.622 108.124 428.338 108.336 429.038 108.336C429.705 108.336 430.299 108.1 430.82 107.628L430.942 107.164C430.959 107.083 430.967 106.993 430.967 106.896C430.967 106.586 430.804 106.204 430.479 105.748C430.234 105.406 429.819 105.007 429.233 104.552L428.989 104.332L428.306 103.819L427.378 103.16L427.012 102.94C426.784 102.794 426.54 102.647 426.279 102.501C426.084 102.403 425.701 102.159 425.132 101.769L425.01 101.671C424.652 101.427 424.302 101.158 423.96 100.865C423.195 100.198 422.585 99.4248 422.129 98.5459C421.689 97.667 421.47 96.7148 421.47 95.6895C421.47 94.6315 421.755 93.5898 422.324 92.5645C422.878 91.6042 423.577 90.8555 424.424 90.3184C425.286 89.765 426.304 89.4883 427.476 89.4883C428.631 89.4883 429.657 89.8057 430.552 90.4404C431.154 90.9287 431.602 91.5146 431.895 92.1982C432.139 92.7191 432.261 93.2399 432.261 93.7607C432.261 94.4769 432.025 95.1198 431.553 95.6895C431.048 96.1289 430.617 96.3486 430.259 96.3486C430.243 96.3486 430.137 96.3405 429.941 96.3242C429.746 96.3079 429.396 95.9906 428.892 95.3721C428.826 95.2907 428.794 95.2012 428.794 95.1035V94.7617V94.4199C428.794 94.2734 428.786 94.1921 428.77 94.1758C428.721 94.0781 428.688 94.0212 428.672 94.0049C428.656 93.9723 428.639 93.9479 428.623 93.9316C428.607 93.9154 428.59 93.8991 428.574 93.8828C428.249 93.541 427.948 93.3701 427.671 93.3701C427.101 93.3701 426.654 93.6875 426.328 94.3223C426.133 94.7454 426.035 95.1361 426.035 95.4941C426.035 95.7057 426.084 95.9255 426.182 96.1533C426.344 96.6253 426.792 97.138 427.524 97.6914C427.638 97.8053 427.964 98.0251 428.501 98.3506C428.631 98.4157 428.753 98.4889 428.867 98.5703L430.015 99.2539C431.007 99.9049 431.642 100.344 431.919 100.572C432.749 101.223 433.424 101.866 433.945 102.501C434.971 103.803 435.483 105.203 435.483 106.7C435.483 107.107 435.435 107.514 435.337 107.921C434.897 109.744 433.717 110.989 431.797 111.656C430.934 111.917 430.031 112.047 429.087 112.047ZM446.958 112.633C446.746 112.633 446.478 112.568 446.152 112.438C445.632 112.258 445.168 110.956 444.761 108.531C444.598 107.49 444.468 106.35 444.37 105.113C444.305 104.251 444.272 103.38 444.272 102.501C444.272 101.362 444.313 100.239 444.395 99.1318C444.508 97.6507 444.647 96.4219 444.81 95.4453C444.972 94.3711 445.233 93.3376 445.591 92.3447C446.356 90.2288 447.487 88.8698 448.984 88.2676C449.505 88.0885 449.985 87.999 450.425 87.999C451.58 87.999 452.638 88.5361 453.599 89.6104C454.51 90.6357 455.267 92.2796 455.869 94.542L455.894 94.6152C456.154 93.8991 456.512 93.1585 456.968 92.3936C457.814 91.0426 458.864 90.0335 460.117 89.3662C460.801 89.0407 461.46 88.8779 462.095 88.8779C462.567 88.8779 463.031 88.9756 463.486 89.1709C464.17 89.5127 464.699 89.9847 465.073 90.5869C465.448 91.1891 465.716 91.8564 465.879 92.5889C465.993 93.0446 466.09 93.8014 466.172 94.8594L466.196 96.1289V97.4961C466.196 97.9518 466.172 98.9365 466.123 100.45C466.107 100.564 466.099 100.686 466.099 100.816L465.977 103.551L465.952 104.771C465.952 106.367 465.863 107.481 465.684 108.116C465.342 109.109 464.813 109.605 464.097 109.605C463.413 109.605 462.909 109.117 462.583 108.141C462.453 107.652 462.38 107.156 462.363 106.651L462.339 104.796L462.363 103.478C462.363 102.875 462.38 102.346 462.412 101.891L462.461 100.328C462.51 99.8398 462.534 98.8958 462.534 97.4961C462.518 94.6315 462.241 93.1992 461.704 93.1992C461.379 93.1992 460.947 93.8258 460.41 95.0791C460.117 95.6488 459.865 96.2266 459.653 96.8125L459.531 97.1543C459.271 98.0332 459.035 98.904 458.823 99.7666C458.742 100.076 458.595 100.808 458.384 101.964C458.27 102.534 458.164 103.111 458.066 103.697C458.018 104.055 457.961 104.405 457.896 104.747C457.863 104.877 457.814 105.17 457.749 105.626C457.716 105.838 457.66 106.049 457.578 106.261C457.48 106.635 457.253 106.904 456.895 107.066L455.479 107.286C454.909 107.237 454.51 106.725 454.282 105.748C453.908 102.786 453.257 99.8073 452.329 96.8125L452.231 96.4463C451.971 95.5186 451.735 94.7617 451.523 94.1758C451.149 93.4271 450.824 93.0527 450.547 93.0527C450.14 93.0527 449.798 93.8828 449.521 95.543C449.18 97.2357 448.976 99.14 448.911 101.256L448.887 101.744C448.887 102.2 448.895 102.647 448.911 103.087C448.976 105.219 449.041 106.464 449.106 106.822C449.237 108.271 449.359 109.418 449.473 110.265L449.595 110.948C449.562 111.127 449.367 111.38 449.009 111.705C448.667 112.014 448.244 112.267 447.739 112.462C447.463 112.576 447.202 112.633 446.958 112.633ZM473.813 110.069C472.511 110.069 471.299 109.662 470.176 108.849C469.329 108.198 468.67 107.368 468.198 106.358C467.189 104.454 466.685 102.363 466.685 100.084C466.685 98.7493 466.872 97.4229 467.246 96.1045C467.279 96.0394 467.303 95.9661 467.319 95.8848C467.45 95.4128 467.612 94.9489 467.808 94.4932C469.093 92.0518 470.868 90.8311 473.13 90.8311C474.058 90.8311 474.969 91.0508 475.864 91.4902C476.759 91.9297 477.541 92.5726 478.208 93.4189C479.412 94.9489 480.177 96.7148 480.503 98.7168C480.584 99.2376 480.625 99.8398 480.625 100.523C480.625 100.914 480.601 101.313 480.552 101.72C480.454 102.778 480.251 103.746 479.941 104.625C479.535 105.65 479.128 106.48 478.721 107.115C478.216 107.896 477.59 108.564 476.841 109.117C475.864 109.752 474.855 110.069 473.813 110.069ZM473.716 105.992C473.797 105.992 473.976 105.935 474.253 105.821C474.53 105.707 474.92 105.195 475.425 104.283C475.588 104.023 475.726 103.746 475.84 103.453V103.404C476.133 102.639 476.32 101.964 476.401 101.378L476.426 101.305C476.475 101.028 476.499 100.759 476.499 100.499C476.499 99.9945 476.466 99.555 476.401 99.1807C476.304 98.5133 476.084 97.846 475.742 97.1787C475.417 96.4951 475.075 95.9661 474.717 95.5918C474.001 94.9733 473.439 94.6641 473.032 94.6641C472.593 94.6641 472.194 95.0628 471.836 95.8604C471.494 96.6579 471.258 97.5124 471.128 98.4238C471.03 98.9935 470.981 99.5713 470.981 100.157C470.981 101.752 471.38 103.282 472.178 104.747C472.78 105.577 473.293 105.992 473.716 105.992ZM491.758 122.911C490.716 122.911 489.642 122.651 488.535 122.13C488.031 121.869 487.567 121.544 487.144 121.153C487.111 121.104 487.07 121.064 487.021 121.031C486.81 120.803 486.615 120.559 486.436 120.299C485.768 119.306 485.435 118.37 485.435 117.491C485.435 117.019 485.516 116.555 485.679 116.1C486.151 115.383 486.737 115.025 487.437 115.025C487.485 115.025 487.713 115.042 488.12 115.074C488.527 115.107 488.958 115.546 489.414 116.393C489.447 116.523 489.471 116.661 489.487 116.808V117.149C489.927 118.468 490.61 119.127 491.538 119.127C491.587 119.127 491.872 119.103 492.393 119.054C492.93 119.021 493.288 118.191 493.467 116.563L493.491 115.953C493.491 114.911 493.451 114.033 493.369 113.316C493.369 113.186 493.337 112.73 493.271 111.949L492.93 108.946L492.856 108.458C492.466 109.076 491.961 109.597 491.343 110.021C490.513 110.606 489.618 110.899 488.657 110.899C487.371 110.899 486.224 110.558 485.215 109.874C484.417 109.304 483.75 108.588 483.213 107.726L483.14 107.628C482.472 106.489 481.935 105.073 481.528 103.38C481.268 102.208 481.138 101.02 481.138 99.8154L481.162 98.0576C481.227 96.9671 481.357 95.9092 481.553 94.8838C482.188 92.4587 483.221 91.2461 484.653 91.2461C485.109 91.2461 485.524 91.4251 485.898 91.7832C486.338 92.1901 486.558 92.7679 486.558 93.5166C486.558 93.8584 486.509 94.2327 486.411 94.6396C486.281 95.0303 486.143 95.7627 485.996 96.8369C485.915 97.8786 485.874 98.6842 485.874 99.2539C485.874 99.7096 485.915 100.369 485.996 101.231C486.029 101.687 486.094 102.143 486.191 102.599C486.322 103.266 486.566 104.039 486.924 104.918L486.997 105.04C487.55 106.293 488.169 106.92 488.853 106.92C489.357 106.92 490.016 106.432 490.83 105.455L491.27 104.918C491.497 104.658 491.709 104.397 491.904 104.137L492.246 103.673V103.648C492.181 102.9 492.035 101.695 491.807 100.035C491.693 99.2051 491.579 98.1064 491.465 96.7393L491.343 95.2744L491.294 94.9082L491.221 93.248C491.221 93.1341 491.213 93.0283 491.196 92.9307C491.229 92.2145 491.465 91.6774 491.904 91.3193C492.344 90.945 492.889 90.7578 493.54 90.7578C494.028 90.7578 494.476 90.9206 494.883 91.2461C495.306 91.5553 495.526 92.0436 495.542 92.7109C495.575 92.9062 495.599 93.0934 495.615 93.2725C495.632 93.4352 495.648 93.5898 495.664 93.7363L495.762 94.542L495.786 94.9814L496.104 97.9355C496.185 98.4889 496.25 99.0586 496.299 99.6445C496.364 100.214 496.437 100.792 496.519 101.378L496.543 101.695C496.868 104.218 497.08 105.903 497.178 106.749L497.715 111.607L497.837 113.023C497.902 113.723 497.935 114.57 497.935 115.562C497.935 116.93 497.788 118.053 497.495 118.932C497.267 119.68 496.966 120.315 496.592 120.836C496.022 121.601 495.151 122.179 493.979 122.569C493.589 122.716 493.068 122.822 492.417 122.887L491.758 122.911ZM505.454 109.972C504.51 109.972 503.566 109.768 502.622 109.361C501.597 108.906 500.742 108.214 500.059 107.286C498.968 105.707 498.423 103.689 498.423 101.231C498.423 99.7503 498.602 98.3018 498.96 96.8857C499.318 95.5674 499.774 94.4199 500.327 93.4434C500.897 92.4668 501.597 91.5716 502.427 90.7578C503.273 89.9277 504.16 89.2686 505.088 88.7803C506.032 88.292 506.96 87.9909 507.871 87.877H509.238C509.678 87.8932 510.117 87.9665 510.557 88.0967C512.347 88.764 513.494 90.001 513.999 91.8076C514.162 92.361 514.243 92.9714 514.243 93.6387C514.243 94.7617 513.999 95.8441 513.511 96.8857C513.169 97.6833 512.64 98.5133 511.924 99.376C511.777 99.6038 511.436 99.9701 510.898 100.475C509.124 102.021 507.367 103.095 505.625 103.697C504.746 103.99 503.94 104.153 503.208 104.186C503.224 104.202 503.241 104.234 503.257 104.283C503.273 104.332 503.289 104.389 503.306 104.454C503.436 104.731 503.607 104.991 503.818 105.235C504.372 105.854 504.966 106.163 505.601 106.163C506.219 106.163 506.821 105.992 507.407 105.65C507.749 105.471 508.075 105.284 508.384 105.089C508.888 104.763 509.181 104.56 509.263 104.479C509.751 104.039 510.256 103.681 510.776 103.404L510.947 103.307C511.208 103.258 511.46 103.233 511.704 103.233C512.046 103.233 512.412 103.307 512.803 103.453C513.21 103.583 513.454 104.023 513.535 104.771C513.438 105.178 513.267 105.561 513.022 105.919C512.795 106.277 512.518 106.603 512.192 106.896C510.679 108.263 508.953 109.231 507.017 109.801C506.496 109.915 505.975 109.972 505.454 109.972ZM502.695 101.329C502.728 101.329 502.752 101.321 502.769 101.305C502.931 101.305 503.281 101.207 503.818 101.012C505.137 100.458 506.504 99.5143 507.92 98.1797C508.506 97.5775 508.97 97.0078 509.312 96.4707C509.832 95.5267 510.101 94.6478 510.117 93.834C510.117 93.3457 509.971 92.833 509.678 92.2959C509.531 92.068 509.36 91.9297 509.165 91.8809H509.263H508.799H509.141C508.994 91.832 508.791 91.8076 508.53 91.8076C508.254 91.8402 508.115 91.8646 508.115 91.8809H508.799C508.213 91.8809 507.521 92.1331 506.724 92.6377C505.291 93.6143 504.242 94.9001 503.574 96.4951C502.988 97.8786 502.695 99.4899 502.695 101.329ZM517.075 111.07C516.668 111.07 516.221 110.924 515.732 110.631C515.26 110.322 514.984 109.744 514.902 108.897C514.788 107.823 514.731 106.228 514.731 104.112L514.756 103.575C514.772 102.338 514.821 101.061 514.902 99.7422C514.902 99.4492 514.919 99.1481 514.951 98.8389C515 97.5205 515.171 96.1696 515.464 94.7861L515.757 93.6875C515.968 92.9388 516.27 92.2959 516.66 91.7588C517.262 90.8636 518.084 90.416 519.126 90.416C519.419 90.416 519.72 90.4567 520.029 90.5381C520.648 90.766 521.234 91.1729 521.787 91.7588C522.129 92.1331 522.511 92.654 522.935 93.3213C523.423 94.0537 523.879 94.8594 524.302 95.7383L524.595 96.3486C524.725 96.609 524.847 96.8776 524.961 97.1543C525.303 97.9193 525.514 98.432 525.596 98.6924C525.921 99.4248 526.141 99.9619 526.255 100.304L527.427 103.136L527.524 101.72C527.573 100.938 527.598 100.247 527.598 99.6445L527.622 98.7656L527.598 98.3018C527.598 97.667 527.59 97.2438 527.573 97.0322C527.573 96.1045 527.598 95.3232 527.646 94.6885V93.6387L527.622 93.2969C527.622 93.069 527.646 92.8411 527.695 92.6133C527.988 91.7018 528.468 91.2461 529.136 91.2461C529.673 91.2461 530.12 91.6367 530.479 92.418C530.592 92.7272 530.674 93.069 530.723 93.4434C530.771 93.8177 530.861 94.3141 530.991 94.9326C531.219 96.0068 531.366 97.0729 531.431 98.1309L531.577 99.498C531.74 100.654 531.829 101.777 531.846 102.867C531.846 103.193 531.805 103.836 531.724 104.796L531.699 104.869C531.585 106.301 531.219 107.449 530.601 108.312C529.95 109.158 529.111 109.581 528.086 109.581C527.077 109.581 526.198 109.166 525.449 108.336C524.945 107.864 524.432 107.123 523.911 106.114C523.341 104.975 522.699 103.478 521.982 101.622C521.95 101.508 521.901 101.386 521.836 101.256C521.787 101.109 521.437 100.19 520.786 98.4971C520.786 98.4645 520.778 98.4401 520.762 98.4238C520.485 97.61 520.16 96.8451 519.785 96.1289L519.712 95.9824L519.321 99.1074C519.321 99.2051 519.313 99.2946 519.297 99.376C519.232 100.206 519.183 101.012 519.15 101.793C519.15 102.021 519.118 102.818 519.053 104.186C519.004 105.829 518.963 106.936 518.931 107.506L518.833 109.02C518.817 109.264 518.792 109.5 518.76 109.728C518.548 110.623 517.987 111.07 517.075 111.07ZM539.976 112.047C538.12 112.047 536.484 111.55 535.068 110.558C534.32 110.037 533.717 109.459 533.262 108.824C532.757 108.059 532.489 107.302 532.456 106.554C532.668 105.577 533.099 105.089 533.75 105.089C533.783 105.089 533.978 105.105 534.336 105.138C534.71 105.154 535.264 105.463 535.996 106.065C536.305 106.489 536.631 106.847 536.973 107.14L537.119 107.262C537.331 107.441 537.55 107.587 537.778 107.701C538.511 108.124 539.227 108.336 539.927 108.336C540.594 108.336 541.188 108.1 541.709 107.628L541.831 107.164C541.847 107.083 541.855 106.993 541.855 106.896C541.855 106.586 541.693 106.204 541.367 105.748C541.123 105.406 540.708 105.007 540.122 104.552L539.878 104.332L539.194 103.819L538.267 103.16L537.9 102.94C537.673 102.794 537.428 102.647 537.168 102.501C536.973 102.403 536.59 102.159 536.021 101.769L535.898 101.671C535.54 101.427 535.19 101.158 534.849 100.865C534.084 100.198 533.473 99.4248 533.018 98.5459C532.578 97.667 532.358 96.7148 532.358 95.6895C532.358 94.6315 532.643 93.5898 533.213 92.5645C533.766 91.6042 534.466 90.8555 535.312 90.3184C536.175 89.765 537.192 89.4883 538.364 89.4883C539.52 89.4883 540.545 89.8057 541.44 90.4404C542.043 90.9287 542.49 91.5146 542.783 92.1982C543.027 92.7191 543.149 93.2399 543.149 93.7607C543.149 94.4769 542.913 95.1198 542.441 95.6895C541.937 96.1289 541.506 96.3486 541.147 96.3486C541.131 96.3486 541.025 96.3405 540.83 96.3242C540.635 96.3079 540.285 95.9906 539.78 95.3721C539.715 95.2907 539.683 95.2012 539.683 95.1035V94.7617V94.4199C539.683 94.2734 539.674 94.1921 539.658 94.1758C539.609 94.0781 539.577 94.0212 539.561 94.0049C539.544 93.9723 539.528 93.9479 539.512 93.9316C539.495 93.9154 539.479 93.8991 539.463 93.8828C539.137 93.541 538.836 93.3701 538.56 93.3701C537.99 93.3701 537.542 93.6875 537.217 94.3223C537.021 94.7454 536.924 95.1361 536.924 95.4941C536.924 95.7057 536.973 95.9255 537.07 96.1533C537.233 96.6253 537.681 97.138 538.413 97.6914C538.527 97.8053 538.853 98.0251 539.39 98.3506C539.52 98.4157 539.642 98.4889 539.756 98.5703L540.903 99.2539C541.896 99.9049 542.531 100.344 542.808 100.572C543.638 101.223 544.313 101.866 544.834 102.501C545.859 103.803 546.372 105.203 546.372 106.7C546.372 107.107 546.323 107.514 546.226 107.921C545.786 109.744 544.606 110.989 542.686 111.656C541.823 111.917 540.92 112.047 539.976 112.047ZM567.49 112.657H567.368C566.245 112.657 565.553 111.046 565.293 107.823C564.202 108.425 563.006 108.727 561.704 108.727C559.604 108.727 557.944 107.978 556.724 106.48C555.991 105.585 555.527 104.56 555.332 103.404C555.218 102.818 555.161 102.127 555.161 101.329C555.161 99.7829 555.454 98.2367 556.04 96.6904C556.512 95.6162 557.057 94.721 557.676 94.0049C559.043 92.5075 560.719 91.7588 562.705 91.7588C563.031 91.7588 563.356 91.7751 563.682 91.8076L564.829 92.0762C564.829 91.3763 564.837 90.8066 564.854 90.3672C564.886 89.9277 564.902 89.5046 564.902 89.0977C564.935 88.0234 565.024 86.7051 565.171 85.1426C565.269 84.0358 565.423 82.9697 565.635 81.9443C565.781 81.3096 565.911 80.9027 566.025 80.7236C566.058 80.512 566.147 80.3411 566.294 80.2109C566.603 79.9342 566.986 79.7959 567.441 79.7959C567.881 79.7959 568.247 79.9668 568.54 80.3086C568.654 80.4876 568.727 80.6829 568.76 80.8945L568.784 81.041C568.866 81.3991 568.923 81.7653 568.955 82.1396C569.004 82.7256 569.028 83.4906 569.028 84.4346L569.004 85.3135C568.971 86.4528 568.955 87.5596 568.955 88.6338C568.939 89.0407 568.931 89.6185 568.931 90.3672V96.3486C568.931 97.0811 568.939 97.6833 568.955 98.1553V101.939L569.053 106.993L569.102 108.604C569.102 111.192 568.564 112.543 567.49 112.657ZM561.973 104.576C562.038 104.576 562.095 104.568 562.144 104.552C562.29 104.552 562.388 104.544 562.437 104.527H562.314C562.721 104.495 563.234 104.348 563.853 104.088C563.95 104.039 564.056 103.998 564.17 103.966C564.626 103.754 564.886 103.616 564.951 103.551H564.976C564.959 103.03 564.935 102.517 564.902 102.013C564.837 100.727 564.805 98.9772 564.805 96.7637V96.2998C564.772 96.2998 564.74 96.2835 564.707 96.251C563.942 95.8115 563.25 95.5918 562.632 95.5918C561.997 95.5918 561.436 95.8441 560.947 96.3486C560.508 96.7881 560.158 97.3252 559.897 97.96C559.67 98.4971 559.556 98.8714 559.556 99.083C559.393 99.734 559.312 100.401 559.312 101.085C559.312 101.703 559.385 102.241 559.531 102.696C559.889 103.771 560.443 104.381 561.191 104.527H562.314L562.217 104.552L561.802 104.576L561.289 104.552C561.403 104.568 561.574 104.576 561.802 104.576H561.973ZM577.28 109.972C576.336 109.972 575.392 109.768 574.448 109.361C573.423 108.906 572.568 108.214 571.885 107.286C570.794 105.707 570.249 103.689 570.249 101.231C570.249 99.7503 570.428 98.3018 570.786 96.8857C571.144 95.5674 571.6 94.4199 572.153 93.4434C572.723 92.4668 573.423 91.5716 574.253 90.7578C575.099 89.9277 575.986 89.2686 576.914 88.7803C577.858 88.292 578.786 87.9909 579.697 87.877H581.064C581.504 87.8932 581.943 87.9665 582.383 88.0967C584.173 88.764 585.321 90.001 585.825 91.8076C585.988 92.361 586.069 92.9714 586.069 93.6387C586.069 94.7617 585.825 95.8441 585.337 96.8857C584.995 97.6833 584.466 98.5133 583.75 99.376C583.604 99.6038 583.262 99.9701 582.725 100.475C580.951 102.021 579.193 103.095 577.451 103.697C576.572 103.99 575.767 104.153 575.034 104.186C575.05 104.202 575.067 104.234 575.083 104.283C575.099 104.332 575.116 104.389 575.132 104.454C575.262 104.731 575.433 104.991 575.645 105.235C576.198 105.854 576.792 106.163 577.427 106.163C578.045 106.163 578.647 105.992 579.233 105.65C579.575 105.471 579.901 105.284 580.21 105.089C580.715 104.763 581.007 104.56 581.089 104.479C581.577 104.039 582.082 103.681 582.603 103.404L582.773 103.307C583.034 103.258 583.286 103.233 583.53 103.233C583.872 103.233 584.238 103.307 584.629 103.453C585.036 103.583 585.28 104.023 585.361 104.771C585.264 105.178 585.093 105.561 584.849 105.919C584.621 106.277 584.344 106.603 584.019 106.896C582.505 108.263 580.78 109.231 578.843 109.801C578.322 109.915 577.801 109.972 577.28 109.972ZM574.521 101.329C574.554 101.329 574.578 101.321 574.595 101.305C574.757 101.305 575.107 101.207 575.645 101.012C576.963 100.458 578.33 99.5143 579.746 98.1797C580.332 97.5775 580.796 97.0078 581.138 96.4707C581.659 95.5267 581.927 94.6478 581.943 93.834C581.943 93.3457 581.797 92.833 581.504 92.2959C581.357 92.068 581.187 91.9297 580.991 91.8809H581.089H580.625H580.967C580.82 91.832 580.617 91.8076 580.356 91.8076C580.08 91.8402 579.941 91.8646 579.941 91.8809H580.625C580.039 91.8809 579.347 92.1331 578.55 92.6377C577.118 93.6143 576.068 94.9001 575.4 96.4951C574.814 97.8786 574.521 99.4899 574.521 101.329ZM601.597 109.093C600.62 109.093 599.749 108.808 598.984 108.238C598.04 107.538 597.308 106.358 596.787 104.698C596.527 103.966 596.331 103.144 596.201 102.232C596.185 102.07 596.16 101.915 596.128 101.769L596.006 100.816C596.006 100.621 595.99 100.426 595.957 100.23C595.876 99.5306 595.835 98.3994 595.835 96.8369L595.884 96.0068C595.9 95.4535 595.941 94.8919 596.006 94.3223C596.071 93.7526 596.12 93.4189 596.152 93.3213C595.924 93.3213 595.469 93.4271 594.785 93.6387L594.272 93.7607L593.955 93.7852C593.792 93.6875 593.613 93.598 593.418 93.5166C592.669 93.2562 592.295 92.9388 592.295 92.5645C592.295 92.3203 592.572 92.0029 593.125 91.6123L593.174 91.5879C593.874 91.1647 594.744 90.8066 595.786 90.5137C596.307 90.3835 596.624 90.3184 596.738 90.3184L596.763 90.1719L596.909 89.6592C597.023 88.9919 597.21 88.3896 597.471 87.8525C597.91 86.9899 598.431 86.5586 599.033 86.5586C599.831 86.5749 600.531 87.1283 601.133 88.2188L601.011 88.8047L600.84 89.6104L600.767 89.9033C600.767 89.9359 600.758 89.9603 600.742 89.9766L600.986 90.001C601.507 90.001 601.938 90.0091 602.28 90.0254C602.622 90.0417 602.956 90.0742 603.281 90.123C603.965 90.1556 604.535 90.2451 604.99 90.3916C605.299 90.6195 605.454 90.9043 605.454 91.2461C605.454 91.3112 605.43 91.4821 605.381 91.7588C605.332 92.0192 605.129 92.3366 604.771 92.7109C604.412 93.0853 604.006 93.305 603.55 93.3701L602.817 93.2969C602.02 93.1992 601.442 93.1423 601.084 93.126L600.303 93.1016L600.278 93.2236C600.246 93.6143 600.205 93.9967 600.156 94.3711C600.156 94.599 600.14 94.7943 600.107 94.957C600.026 96.015 599.985 96.7311 599.985 97.1055L599.937 97.6914C599.937 99.1237 599.961 100.076 600.01 100.548C600.01 100.743 600.042 101.166 600.107 101.817C600.173 102.175 600.229 102.525 600.278 102.867C600.343 103.209 600.417 103.535 600.498 103.844C600.612 104.348 600.791 104.828 601.035 105.284C601.279 105.724 601.572 105.943 601.914 105.943C602.207 105.943 602.524 105.65 602.866 105.064C603.029 104.804 603.127 104.625 603.159 104.527C603.485 103.714 603.826 103.307 604.185 103.307C604.591 103.307 604.844 104.039 604.941 105.504C604.925 105.536 604.917 105.577 604.917 105.626V105.772C604.917 106.31 604.714 106.936 604.307 107.652C603.981 108.141 603.599 108.507 603.159 108.751C602.72 108.979 602.199 109.093 601.597 109.093ZM600.742 93.1016C600.612 93.1016 600.49 93.0934 600.376 93.0771H600.303V93.1016H600.742ZM610.581 109.605C610.402 109.605 610.109 109.557 609.702 109.459C609.035 109.264 608.498 108.255 608.091 106.432L607.7 104.576L607.334 102.696C607.236 102.208 607.09 101.378 606.895 100.206C606.699 99.0993 606.536 97.9844 606.406 96.8613C606.357 96.2266 606.3 95.5999 606.235 94.9814C606.089 93.2236 605.991 91.6855 605.942 90.3672V89.3174C606.007 88.7965 606.268 88.4141 606.724 88.1699C607.179 87.9095 607.7 87.7793 608.286 87.7793C608.888 87.7793 609.409 87.9095 609.849 88.1699C610.304 88.4141 610.557 88.7803 610.605 89.2686C610.605 89.4476 610.614 89.6104 610.63 89.7568C610.646 89.9033 610.654 90.0579 610.654 90.2207C610.671 90.3835 610.687 90.5462 610.703 90.709L610.776 91.417L610.874 92.7109L610.947 92.6133C611.68 91.6693 612.388 91.0182 613.071 90.6602C613.56 90.3997 614.129 90.2695 614.78 90.2695C615.724 90.2695 616.611 90.5137 617.441 91.002C618.239 91.5879 618.8 92.1006 619.126 92.54C619.451 92.9632 619.769 93.5573 620.078 94.3223L620.493 95.5918L620.811 97.0078C620.892 97.4473 620.933 97.9274 620.933 98.4482C620.933 98.8063 620.868 99.1481 620.737 99.4736C620.672 99.734 620.518 99.9212 620.273 100.035C620.046 100.149 619.883 100.247 619.785 100.328L619.443 100.597L618.198 100.743C618.068 100.646 617.946 100.572 617.832 100.523L617.197 100.328C617.1 100.312 617.018 100.287 616.953 100.255C616.904 100.222 616.807 100.108 616.66 99.9131C616.302 99.3923 616.058 98.6436 615.928 97.667C615.879 97.1787 615.798 96.6986 615.684 96.2266L615.586 95.8115C615.342 94.7699 614.943 94.249 614.39 94.249C613.836 94.249 613.21 94.7536 612.51 95.7627C612.168 96.2998 611.965 96.6986 611.899 96.959C611.672 97.3984 611.533 97.7158 611.484 97.9111L611.436 97.9844C611.468 98.1146 611.484 98.2367 611.484 98.3506L611.851 101.231L611.973 102.086L612.095 103.111L612.217 103.941C612.217 103.99 612.225 104.031 612.241 104.063C612.485 105.772 612.607 106.944 612.607 107.579C612.526 108.36 612.225 108.922 611.704 109.264C611.346 109.492 610.972 109.605 610.581 109.605ZM635.654 114.635C635.524 114.635 635.402 114.627 635.288 114.61C635.174 114.594 634.995 114.464 634.751 114.22L634.507 113.854C634.198 113.43 633.896 112.747 633.604 111.803C633.587 111.705 633.563 111.616 633.53 111.534C633.205 110.297 632.952 108.93 632.773 107.433C632.741 107.156 632.725 106.887 632.725 106.627L632.651 106.725C631.707 108.076 630.674 109.068 629.551 109.703H629.526C628.68 110.191 627.785 110.436 626.841 110.436C625.409 110.436 624.204 109.898 623.228 108.824C622.023 107.555 621.421 105.659 621.421 103.136C621.551 100.629 622.275 98.3262 623.594 96.2266C624.277 95.1198 625.01 94.2327 625.791 93.5654C625.791 93.484 626.198 93.1748 627.012 92.6377C628.151 91.9541 629.445 91.6042 630.894 91.5879C631.935 91.5879 632.822 91.832 633.555 92.3203C633.717 92.4017 633.921 92.5645 634.165 92.8086C634.165 92.8249 634.173 92.833 634.189 92.833C634.58 93.2562 634.775 93.6794 634.775 94.1025C634.775 94.3141 634.759 94.4525 634.727 94.5176C634.694 94.5827 634.645 94.6559 634.58 94.7373C634.287 95.0791 633.498 95.25 632.212 95.25H631.895C631.064 95.25 630.308 95.3639 629.624 95.5918C628.729 96.0964 627.923 96.8939 627.207 97.9844C626.182 99.6934 625.636 101.451 625.571 103.258C625.571 104.007 625.685 104.69 625.913 105.309C626.157 106.008 626.532 106.358 627.036 106.358C627.492 106.358 628.175 105.943 629.087 105.113C629.087 105.097 629.095 105.089 629.111 105.089C629.518 104.715 630.12 104.031 630.918 103.038L631.455 102.379C631.602 102.151 631.756 101.939 631.919 101.744C632.082 101.549 632.228 101.345 632.358 101.134L632.676 100.646C632.676 100.385 632.708 100.092 632.773 99.7666C632.839 99.2946 632.928 98.8551 633.042 98.4482L633.262 98.0332C633.424 97.724 633.799 97.5693 634.385 97.5693C634.548 97.5693 634.759 97.5856 635.02 97.6182C635.605 97.7158 635.898 97.9193 635.898 98.2285L635.874 98.375C635.874 98.3913 635.882 98.4076 635.898 98.4238C635.931 98.4401 635.98 98.4808 636.045 98.5459C636.11 98.6598 636.143 98.847 636.143 99.1074L636.118 99.791L636.094 102.257C636.094 103.478 636.126 104.446 636.191 105.162C636.191 105.455 636.24 106.106 636.338 107.115C636.468 108.092 636.566 108.702 636.631 108.946C636.81 110.053 637.03 111.046 637.29 111.925L637.363 112.169C637.477 112.446 637.542 112.722 637.559 112.999C637.559 113.618 637.314 114.065 636.826 114.342C636.468 114.537 636.077 114.635 635.654 114.635ZM631.968 98.1309C631.951 98.1146 631.927 98.1064 631.895 98.1064C631.878 98.1064 631.862 98.1064 631.846 98.1064C631.829 98.1064 631.821 98.0983 631.821 98.082L631.895 98.0088C631.911 98.0088 631.919 98.0169 631.919 98.0332C631.935 98.0332 631.943 98.0495 631.943 98.082C631.96 98.0983 631.968 98.1146 631.968 98.1309ZM640.415 111.07C640.008 111.07 639.561 110.924 639.072 110.631C638.6 110.322 638.324 109.744 638.242 108.897C638.128 107.823 638.071 106.228 638.071 104.112L638.096 103.575C638.112 102.338 638.161 101.061 638.242 99.7422C638.242 99.4492 638.258 99.1481 638.291 98.8389C638.34 97.5205 638.511 96.1696 638.804 94.7861L639.097 93.6875C639.308 92.9388 639.609 92.2959 640 91.7588C640.602 90.8636 641.424 90.416 642.466 90.416C642.759 90.416 643.06 90.4567 643.369 90.5381C643.988 90.766 644.574 91.1729 645.127 91.7588C645.469 92.1331 645.851 92.654 646.274 93.3213C646.763 94.0537 647.218 94.8594 647.642 95.7383L647.935 96.3486C648.065 96.609 648.187 96.8776 648.301 97.1543C648.643 97.9193 648.854 98.432 648.936 98.6924C649.261 99.4248 649.481 99.9619 649.595 100.304L650.767 103.136L650.864 101.72C650.913 100.938 650.938 100.247 650.938 99.6445L650.962 98.7656L650.938 98.3018C650.938 97.667 650.929 97.2438 650.913 97.0322C650.913 96.1045 650.938 95.3232 650.986 94.6885V93.6387L650.962 93.2969C650.962 93.069 650.986 92.8411 651.035 92.6133C651.328 91.7018 651.808 91.2461 652.476 91.2461C653.013 91.2461 653.46 91.6367 653.818 92.418C653.932 92.7272 654.014 93.069 654.062 93.4434C654.111 93.8177 654.201 94.3141 654.331 94.9326C654.559 96.0068 654.705 97.0729 654.771 98.1309L654.917 99.498C655.08 100.654 655.169 101.777 655.186 102.867C655.186 103.193 655.145 103.836 655.063 104.796L655.039 104.869C654.925 106.301 654.559 107.449 653.94 108.312C653.289 109.158 652.451 109.581 651.426 109.581C650.417 109.581 649.538 109.166 648.789 108.336C648.285 107.864 647.772 107.123 647.251 106.114C646.681 104.975 646.038 103.478 645.322 101.622C645.29 101.508 645.241 101.386 645.176 101.256C645.127 101.109 644.777 100.19 644.126 98.4971C644.126 98.4645 644.118 98.4401 644.102 98.4238C643.825 97.61 643.499 96.8451 643.125 96.1289L643.052 95.9824L642.661 99.1074C642.661 99.2051 642.653 99.2946 642.637 99.376C642.572 100.206 642.523 101.012 642.49 101.793C642.49 102.021 642.458 102.818 642.393 104.186C642.344 105.829 642.303 106.936 642.271 107.506L642.173 109.02C642.157 109.264 642.132 109.5 642.1 109.728C641.888 110.623 641.326 111.07 640.415 111.07ZM663.315 112.047C661.46 112.047 659.824 111.55 658.408 110.558C657.66 110.037 657.057 109.459 656.602 108.824C656.097 108.059 655.828 107.302 655.796 106.554C656.007 105.577 656.439 105.089 657.09 105.089C657.122 105.089 657.318 105.105 657.676 105.138C658.05 105.154 658.604 105.463 659.336 106.065C659.645 106.489 659.971 106.847 660.312 107.14L660.459 107.262C660.671 107.441 660.89 107.587 661.118 107.701C661.851 108.124 662.567 108.336 663.267 108.336C663.934 108.336 664.528 108.1 665.049 107.628L665.171 107.164C665.187 107.083 665.195 106.993 665.195 106.896C665.195 106.586 665.033 106.204 664.707 105.748C664.463 105.406 664.048 105.007 663.462 104.552L663.218 104.332L662.534 103.819L661.606 103.16L661.24 102.94C661.012 102.794 660.768 102.647 660.508 102.501C660.312 102.403 659.93 102.159 659.36 101.769L659.238 101.671C658.88 101.427 658.53 101.158 658.188 100.865C657.424 100.198 656.813 99.4248 656.357 98.5459C655.918 97.667 655.698 96.7148 655.698 95.6895C655.698 94.6315 655.983 93.5898 656.553 92.5645C657.106 91.6042 657.806 90.8555 658.652 90.3184C659.515 89.765 660.532 89.4883 661.704 89.4883C662.86 89.4883 663.885 89.8057 664.78 90.4404C665.382 90.9287 665.83 91.5146 666.123 92.1982C666.367 92.7191 666.489 93.2399 666.489 93.7607C666.489 94.4769 666.253 95.1198 665.781 95.6895C665.277 96.1289 664.845 96.3486 664.487 96.3486C664.471 96.3486 664.365 96.3405 664.17 96.3242C663.975 96.3079 663.625 95.9906 663.12 95.3721C663.055 95.2907 663.022 95.2012 663.022 95.1035V94.7617V94.4199C663.022 94.2734 663.014 94.1921 662.998 94.1758C662.949 94.0781 662.917 94.0212 662.9 94.0049C662.884 93.9723 662.868 93.9479 662.852 93.9316C662.835 93.9154 662.819 93.8991 662.803 93.8828C662.477 93.541 662.176 93.3701 661.899 93.3701C661.33 93.3701 660.882 93.6875 660.557 94.3223C660.361 94.7454 660.264 95.1361 660.264 95.4941C660.264 95.7057 660.312 95.9255 660.41 96.1533C660.573 96.6253 661.021 97.138 661.753 97.6914C661.867 97.8053 662.192 98.0251 662.729 98.3506C662.86 98.4157 662.982 98.4889 663.096 98.5703L664.243 99.2539C665.236 99.9049 665.871 100.344 666.147 100.572C666.978 101.223 667.653 101.866 668.174 102.501C669.199 103.803 669.712 105.203 669.712 106.7C669.712 107.107 669.663 107.514 669.565 107.921C669.126 109.744 667.946 110.989 666.025 111.656C665.163 111.917 664.259 112.047 663.315 112.047ZM673.862 115.807C673.016 115.807 672.332 115.123 671.812 113.756C671.698 113.333 671.6 112.91 671.519 112.486L671.445 112.071C671.12 110.362 670.884 108.775 670.737 107.311C670.575 106.204 670.412 104.218 670.249 101.354C670.216 100.475 670.2 99.4736 670.2 98.3506C670.2 96.2673 670.314 94.5094 670.542 93.0771C670.672 92.0355 670.884 91.0833 671.177 90.2207C671.698 88.9512 672.34 88.3164 673.105 88.3164C673.659 88.3164 674.115 88.5605 674.473 89.0488C674.831 89.5208 675.01 90.0824 675.01 90.7334L674.985 91.0752L674.814 92.125C674.814 92.2552 674.798 92.3854 674.766 92.5156C675.954 91.832 677.215 91.4902 678.55 91.4902C679.966 91.4902 681.154 91.8483 682.114 92.5645C682.847 93.069 683.473 93.7689 683.994 94.6641C684.482 95.4941 684.808 96.4382 684.971 97.4961C685.02 97.9844 685.044 98.554 685.044 99.2051C685.044 100.019 684.946 100.833 684.751 101.646C684.621 102.428 684.385 103.176 684.043 103.893L683.921 104.137L683.506 104.918C683.083 105.553 682.586 106.065 682.017 106.456C680.991 107.221 679.868 107.604 678.647 107.604C677.769 107.604 676.857 107.392 675.913 106.969L674.961 106.456L675.376 109.776C675.409 110.053 675.449 110.338 675.498 110.631C675.547 110.924 675.588 111.217 675.62 111.51L675.718 112.169C675.783 112.494 675.832 112.812 675.864 113.121C675.75 114.911 675.083 115.807 673.862 115.807ZM678.501 103.575C678.957 103.575 679.364 103.372 679.722 102.965C679.754 102.916 679.795 102.875 679.844 102.843C680.055 102.55 680.218 102.2 680.332 101.793C680.544 101.061 680.674 100.458 680.723 99.9863C680.771 99.7096 680.804 99.4329 680.82 99.1562C680.82 98.3587 680.731 97.7158 680.552 97.2275C680.389 96.7393 680.112 96.3079 679.722 95.9336C679.152 95.4616 678.59 95.2256 678.037 95.2256C677.467 95.2256 676.857 95.3802 676.206 95.6895C675.701 95.901 675.173 96.2835 674.619 96.8369C674.587 96.9183 674.53 96.9753 674.448 97.0078V98.0332C674.448 98.7819 674.456 99.2783 674.473 99.5225V99.7666C674.733 100.385 675.107 100.979 675.596 101.549C675.921 101.939 676.125 102.175 676.206 102.257C676.304 102.322 676.385 102.387 676.45 102.452C677.215 103.201 677.899 103.575 678.501 103.575ZM692.661 110.069C691.359 110.069 690.146 109.662 689.023 108.849C688.177 108.198 687.518 107.368 687.046 106.358C686.037 104.454 685.532 102.363 685.532 100.084C685.532 98.7493 685.719 97.4229 686.094 96.1045C686.126 96.0394 686.151 95.9661 686.167 95.8848C686.297 95.4128 686.46 94.9489 686.655 94.4932C687.941 92.0518 689.715 90.8311 691.978 90.8311C692.905 90.8311 693.817 91.0508 694.712 91.4902C695.607 91.9297 696.388 92.5726 697.056 93.4189C698.26 94.9489 699.025 96.7148 699.351 98.7168C699.432 99.2376 699.473 99.8398 699.473 100.523C699.473 100.914 699.448 101.313 699.399 101.72C699.302 102.778 699.098 103.746 698.789 104.625C698.382 105.65 697.975 106.48 697.568 107.115C697.064 107.896 696.437 108.564 695.688 109.117C694.712 109.752 693.703 110.069 692.661 110.069ZM692.563 105.992C692.645 105.992 692.824 105.935 693.101 105.821C693.377 105.707 693.768 105.195 694.272 104.283C694.435 104.023 694.574 103.746 694.688 103.453V103.404C694.98 102.639 695.168 101.964 695.249 101.378L695.273 101.305C695.322 101.028 695.347 100.759 695.347 100.499C695.347 99.9945 695.314 99.555 695.249 99.1807C695.151 98.5133 694.932 97.846 694.59 97.1787C694.264 96.4951 693.923 95.9661 693.564 95.5918C692.848 94.9733 692.287 94.6641 691.88 94.6641C691.44 94.6641 691.042 95.0628 690.684 95.8604C690.342 96.6579 690.106 97.5124 689.976 98.4238C689.878 98.9935 689.829 99.5713 689.829 100.157C689.829 101.752 690.228 103.282 691.025 104.747C691.628 105.577 692.14 105.992 692.563 105.992ZM704.624 109.605C704.445 109.605 704.152 109.557 703.745 109.459C703.078 109.264 702.541 108.255 702.134 106.432L701.743 104.576L701.377 102.696C701.279 102.208 701.133 101.378 700.938 100.206C700.742 99.0993 700.579 97.9844 700.449 96.8613C700.4 96.2266 700.343 95.5999 700.278 94.9814C700.132 93.2236 700.034 91.6855 699.985 90.3672V89.3174C700.05 88.7965 700.311 88.4141 700.767 88.1699C701.222 87.9095 701.743 87.7793 702.329 87.7793C702.931 87.7793 703.452 87.9095 703.892 88.1699C704.347 88.4141 704.6 88.7803 704.648 89.2686C704.648 89.4476 704.657 89.6104 704.673 89.7568C704.689 89.9033 704.697 90.0579 704.697 90.2207C704.714 90.3835 704.73 90.5462 704.746 90.709L704.819 91.417L704.917 92.7109L704.99 92.6133C705.723 91.6693 706.431 91.0182 707.114 90.6602C707.603 90.3997 708.172 90.2695 708.823 90.2695C709.767 90.2695 710.654 90.5137 711.484 91.002C712.282 91.5879 712.843 92.1006 713.169 92.54C713.494 92.9632 713.812 93.5573 714.121 94.3223L714.536 95.5918L714.854 97.0078C714.935 97.4473 714.976 97.9274 714.976 98.4482C714.976 98.8063 714.91 99.1481 714.78 99.4736C714.715 99.734 714.561 99.9212 714.316 100.035C714.089 100.149 713.926 100.247 713.828 100.328L713.486 100.597L712.241 100.743C712.111 100.646 711.989 100.572 711.875 100.523L711.24 100.328C711.143 100.312 711.061 100.287 710.996 100.255C710.947 100.222 710.85 100.108 710.703 99.9131C710.345 99.3923 710.101 98.6436 709.971 97.667C709.922 97.1787 709.84 96.6986 709.727 96.2266L709.629 95.8115C709.385 94.7699 708.986 94.249 708.433 94.249C707.879 94.249 707.253 94.7536 706.553 95.7627C706.211 96.2998 706.007 96.6986 705.942 96.959C705.715 97.3984 705.576 97.7158 705.527 97.9111L705.479 97.9844C705.511 98.1146 705.527 98.2367 705.527 98.3506L705.894 101.231L706.016 102.086L706.138 103.111L706.26 103.941C706.26 103.99 706.268 104.031 706.284 104.063C706.528 105.772 706.65 106.944 706.65 107.579C706.569 108.36 706.268 108.922 705.747 109.264C705.389 109.492 705.015 109.605 704.624 109.605ZM722.202 109.093C721.226 109.093 720.355 108.808 719.59 108.238C718.646 107.538 717.913 106.358 717.393 104.698C717.132 103.966 716.937 103.144 716.807 102.232C716.79 102.07 716.766 101.915 716.733 101.769L716.611 100.816C716.611 100.621 716.595 100.426 716.562 100.23C716.481 99.5306 716.44 98.3994 716.44 96.8369L716.489 96.0068C716.506 95.4535 716.546 94.8919 716.611 94.3223C716.676 93.7526 716.725 93.4189 716.758 93.3213C716.53 93.3213 716.074 93.4271 715.391 93.6387L714.878 93.7607L714.561 93.7852C714.398 93.6875 714.219 93.598 714.023 93.5166C713.275 93.2562 712.9 92.9388 712.9 92.5645C712.9 92.3203 713.177 92.0029 713.73 91.6123L713.779 91.5879C714.479 91.1647 715.35 90.8066 716.392 90.5137C716.912 90.3835 717.23 90.3184 717.344 90.3184L717.368 90.1719L717.515 89.6592C717.629 88.9919 717.816 88.3896 718.076 87.8525C718.516 86.9899 719.036 86.5586 719.639 86.5586C720.436 86.5749 721.136 87.1283 721.738 88.2188L721.616 88.8047L721.445 89.6104L721.372 89.9033C721.372 89.9359 721.364 89.9603 721.348 89.9766L721.592 90.001C722.113 90.001 722.544 90.0091 722.886 90.0254C723.228 90.0417 723.561 90.0742 723.887 90.123C724.57 90.1556 725.14 90.2451 725.596 90.3916C725.905 90.6195 726.06 90.9043 726.06 91.2461C726.06 91.3112 726.035 91.4821 725.986 91.7588C725.938 92.0192 725.734 92.3366 725.376 92.7109C725.018 93.0853 724.611 93.305 724.155 93.3701L723.423 93.2969C722.625 93.1992 722.048 93.1423 721.689 93.126L720.908 93.1016L720.884 93.2236C720.851 93.6143 720.811 93.9967 720.762 94.3711C720.762 94.599 720.745 94.7943 720.713 94.957C720.632 96.015 720.591 96.7311 720.591 97.1055L720.542 97.6914C720.542 99.1237 720.566 100.076 720.615 100.548C720.615 100.743 720.648 101.166 720.713 101.817C720.778 102.175 720.835 102.525 720.884 102.867C720.949 103.209 721.022 103.535 721.104 103.844C721.217 104.348 721.396 104.828 721.641 105.284C721.885 105.724 722.178 105.943 722.52 105.943C722.812 105.943 723.13 105.65 723.472 105.064C723.634 104.804 723.732 104.625 723.765 104.527C724.09 103.714 724.432 103.307 724.79 103.307C725.197 103.307 725.449 104.039 725.547 105.504C725.531 105.536 725.522 105.577 725.522 105.626V105.772C725.522 106.31 725.319 106.936 724.912 107.652C724.587 108.141 724.204 108.507 723.765 108.751C723.325 108.979 722.804 109.093 722.202 109.093ZM721.348 93.1016C721.217 93.1016 721.095 93.0934 720.981 93.0771H720.908V93.1016H721.348ZM734.165 112.047C732.31 112.047 730.674 111.55 729.258 110.558C728.509 110.037 727.907 109.459 727.451 108.824C726.947 108.059 726.678 107.302 726.646 106.554C726.857 105.577 727.288 105.089 727.939 105.089C727.972 105.089 728.167 105.105 728.525 105.138C728.9 105.154 729.453 105.463 730.186 106.065C730.495 106.489 730.82 106.847 731.162 107.14L731.309 107.262C731.52 107.441 731.74 107.587 731.968 107.701C732.7 108.124 733.416 108.336 734.116 108.336C734.784 108.336 735.378 108.1 735.898 107.628L736.021 107.164C736.037 107.083 736.045 106.993 736.045 106.896C736.045 106.586 735.882 106.204 735.557 105.748C735.312 105.406 734.897 105.007 734.312 104.552L734.067 104.332L733.384 103.819L732.456 103.16L732.09 102.94C731.862 102.794 731.618 102.647 731.357 102.501C731.162 102.403 730.78 102.159 730.21 101.769L730.088 101.671C729.73 101.427 729.38 101.158 729.038 100.865C728.273 100.198 727.663 99.4248 727.207 98.5459C726.768 97.667 726.548 96.7148 726.548 95.6895C726.548 94.6315 726.833 93.5898 727.402 92.5645C727.956 91.6042 728.656 90.8555 729.502 90.3184C730.365 89.765 731.382 89.4883 732.554 89.4883C733.709 89.4883 734.735 89.8057 735.63 90.4404C736.232 90.9287 736.68 91.5146 736.973 92.1982C737.217 92.7191 737.339 93.2399 737.339 93.7607C737.339 94.4769 737.103 95.1198 736.631 95.6895C736.126 96.1289 735.695 96.3486 735.337 96.3486C735.321 96.3486 735.215 96.3405 735.02 96.3242C734.824 96.3079 734.474 95.9906 733.97 95.3721C733.905 95.2907 733.872 95.2012 733.872 95.1035V94.7617V94.4199C733.872 94.2734 733.864 94.1921 733.848 94.1758C733.799 94.0781 733.766 94.0212 733.75 94.0049C733.734 93.9723 733.717 93.9479 733.701 93.9316C733.685 93.9154 733.669 93.8991 733.652 93.8828C733.327 93.541 733.026 93.3701 732.749 93.3701C732.179 93.3701 731.732 93.6875 731.406 94.3223C731.211 94.7454 731.113 95.1361 731.113 95.4941C731.113 95.7057 731.162 95.9255 731.26 96.1533C731.423 96.6253 731.87 97.138 732.603 97.6914C732.716 97.8053 733.042 98.0251 733.579 98.3506C733.709 98.4157 733.831 98.4889 733.945 98.5703L735.093 99.2539C736.086 99.9049 736.72 100.344 736.997 100.572C737.827 101.223 738.503 101.866 739.023 102.501C740.049 103.803 740.562 105.203 740.562 106.7C740.562 107.107 740.513 107.514 740.415 107.921C739.976 109.744 738.796 110.989 736.875 111.656C736.012 111.917 735.109 112.047 734.165 112.047ZM755.21 106.017H755.112C754.185 106.017 753.501 105.577 753.062 104.698C752.996 104.422 752.964 104.137 752.964 103.844C752.964 103.502 753.013 103.014 753.11 102.379C753.11 102.298 753.175 101.834 753.306 100.987C753.647 99.2946 754.242 97.8786 755.088 96.7393L755.186 96.6172C755.479 96.194 755.812 95.7708 756.187 95.3477L757.529 93.834C757.643 93.7201 757.749 93.598 757.847 93.4678L758.359 92.9062C758.49 92.7272 758.636 92.54 758.799 92.3447C758.929 92.2145 759.051 92.0599 759.165 91.8809C759.409 91.4902 759.596 91.1566 759.727 90.8799V90.8555C759.857 90.5951 759.922 90.4323 759.922 90.3672C759.971 90.2533 759.995 90.1475 759.995 90.0498V89.6348C759.963 89.1465 759.816 88.7152 759.556 88.3408C759.312 87.9502 759.051 87.6491 758.774 87.4375C757.993 86.7376 757.334 86.3877 756.797 86.3877C756.715 86.3877 756.512 86.4284 756.187 86.5098C755.877 86.5911 755.487 86.9492 755.015 87.584C754.689 87.8932 754.437 88.2676 754.258 88.707L754.233 88.7559C754.022 89.2604 753.916 89.7812 753.916 90.3184V90.6357C753.916 91.0915 754.03 91.5391 754.258 91.9785C754.323 92.125 754.421 92.2959 754.551 92.4912C754.632 92.7191 754.673 92.9551 754.673 93.1992C754.673 93.5898 754.526 94.0781 754.233 94.6641C753.94 95.2337 753.517 95.6081 752.964 95.7871C752.736 95.7871 752.524 95.7464 752.329 95.665C751.841 95.4535 751.41 95.1686 751.035 94.8105C750.319 94.0293 749.839 93.1423 749.595 92.1494C749.432 91.4984 749.351 90.9043 749.351 90.3672C749.367 89.3255 749.538 88.3408 749.863 87.4131C750.042 86.9411 750.221 86.5667 750.4 86.29C750.4 86.2738 750.409 86.2656 750.425 86.2656C750.799 85.582 751.255 84.9554 751.792 84.3857V84.3613C752.329 83.7428 752.964 83.222 753.696 82.7988C754.51 82.3431 755.34 82.1152 756.187 82.1152L757.065 82.1396C757.635 82.1396 758.197 82.2699 758.75 82.5303C759.84 83.0186 760.931 83.9219 762.021 85.2402C762.412 85.7122 762.762 86.2168 763.071 86.7539C763.381 87.3561 763.592 87.9339 763.706 88.4873C763.804 88.9756 763.853 89.415 763.853 89.8057L763.828 90.2695C763.698 91.3275 763.299 92.4261 762.632 93.5654C762.274 94.1351 761.989 94.5257 761.777 94.7373L761.631 94.9082C761.452 95.1361 761.273 95.3558 761.094 95.5674C760.98 95.6813 760.874 95.7952 760.776 95.9092C760.695 96.0068 760.605 96.1045 760.508 96.2021C760.199 96.5114 759.889 96.8369 759.58 97.1787C759.515 97.2601 759.45 97.3415 759.385 97.4229C759.32 97.5042 759.246 97.5938 759.165 97.6914C759.084 97.7891 758.994 97.8867 758.896 97.9844C758.294 98.668 757.936 99.5306 757.822 100.572C757.708 101.126 757.635 101.744 757.603 102.428C757.586 103.486 757.505 104.275 757.358 104.796C756.903 105.593 756.187 106 755.21 106.017ZM755.723 112.145C754.958 112.145 754.347 111.827 753.892 111.192C753.778 110.883 753.721 110.403 753.721 109.752C753.753 109.117 754.03 108.637 754.551 108.312C755.088 107.986 755.641 107.823 756.211 107.823H756.357C757.448 107.888 757.993 108.393 757.993 109.337L757.969 109.532L758.018 110.069C758.034 110.134 758.042 110.248 758.042 110.411C758.042 110.59 758.026 110.769 757.993 110.948C757.521 111.746 756.764 112.145 755.723 112.145Z" fill="#FFF2EA"/>
</svg>
