<svg width="247" height="231" viewBox="0 0 247 231" fill="none" xmlns="http://www.w3.org/2000/svg">
    <g clip-path="url(#clip0)">
        <path d="M118.833 203.403C106.716 204.59 95.1534 204.071 84.5441 201.861C82.3331 201.394 80.1634 200.979 78.0295 200.562C58.4554 196.723 41.5625 193.362 26.6854 172.645C24.5113 169.609 19.0903 158.113 18.0293 154.283C16.9216 150.345 15.6118 139.927 15.6116 135.139C15.5427 103.508 17.8288 78.6015 29.2802 59.5798C34.8617 50.2541 42.6972 44.4128 49.6124 39.8587C68.9454 27.247 90.1593 19.4674 110.89 17.4355C114.286 17.1027 117.698 16.9393 121.05 16.8958C128.08 16.8338 134.943 16.1611 141.555 15.513C158.068 13.8946 173.688 12.3636 190.883 19.913C199.065 23.5003 205.106 27.6966 209.924 33.0388C223.585 48.3451 232.849 80.2716 231.915 109.036C231.419 124.59 228.755 138.646 224.203 149.638C219.796 160.274 213.631 168.06 206.386 172.191C174.6 190.298 145.175 200.821 118.833 203.403Z" fill="#22C79E"/>
        <path d="M111.442 23.0818C114.767 22.756 118.107 22.5996 121.387 22.5631C128.525 22.4906 135.424 21.8144 142.072 21.1628C158.263 19.5759 173.597 18.073 190.151 25.3431C197.883 28.7467 203.527 32.5828 207.949 37.5648C214.148 44.4817 219.566 55.5796 223.278 68.7827C226.885 81.6542 228.656 95.6746 228.229 108.257C227.752 122.897 225.249 136.025 221.024 146.301C216.994 155.988 211.381 163.151 204.787 166.932C173.383 184.888 144.269 195.266 118.284 197.813C106.381 198.98 95.0747 198.492 84.6854 196.318C82.4744 195.851 80.269 195.44 78.135 195.022C68.4937 193.116 59.4052 191.328 51.088 187.469C42.2785 183.373 35.233 177.394 28.9283 168.663C27.2138 166.266 22.1617 155.589 21.3212 152.536C20.4284 149.317 19.2374 139.743 19.2377 135.696C19.2052 123.215 19.4383 108.656 21.5197 95.284C23.4834 82.5506 26.9113 72.2389 32.0341 63.7562C37.2118 55.0972 44.6818 49.5767 51.2562 45.227C70.273 32.7033 91.0691 25.0787 111.442 23.0818ZM110.336 11.7895C88.6756 13.9124 67.4123 21.9249 47.9419 34.607C40.0757 39.7674 32.3035 45.8875 26.5298 55.4601C13.7764 76.6615 11.9236 104.148 11.9835 134.582C11.9978 139.882 13.308 151.041 14.7051 156.091C16.0444 160.919 21.8646 173.175 24.4102 176.688C41.9209 201.079 61.9336 202.766 84.3705 207.465C95.7883 209.823 107.554 210.209 119.385 209.049C149.945 206.054 181.021 192.861 207.809 177.524C223.801 168.375 234.347 143.798 235.456 109.829C236.396 81.121 227.476 46.0826 211.79 28.5237C205.673 21.7126 198.591 17.5615 191.5 14.4371C166.615 3.5372 145.005 10.9566 120.674 11.2322C117.215 11.2862 113.767 11.4532 110.336 11.7895Z" fill="white"/>
        <path d="M62.8434 102.339C61.507 102.47 60.1916 102.439 58.8972 102.247C57.173 101.926 55.548 101.239 54.022 100.186C52.518 99.107 51.1919 97.716 50.0438 96.0132C48.7818 94.1499 47.8137 92.2823 47.1396 90.4104C46.4031 88.1522 45.9254 85.9053 45.7063 83.67C45.4196 79.9939 45.5819 76.5191 46.1932 73.2456C47.0814 68.792 48.7247 65.1598 51.123 62.349C52.2674 61.0103 53.4295 59.9765 54.6091 59.2476C55.8107 58.492 57.0725 57.9758 58.3946 57.699L59.5573 57.5483C60.2619 57.4792 60.9408 57.5231 61.594 57.6798C63.4587 58.1839 64.9577 59.3372 66.0911 61.1395L66.632 62.1536C67.259 63.2942 67.6094 64.2411 67.6832 64.9943C67.7084 65.7523 67.5057 66.3118 67.075 66.6729C66.7563 66.925 66.4268 67.0676 66.0866 67.101C65.9166 67.1177 65.6445 67.0953 65.2705 67.0338C64.8942 66.948 64.528 66.5914 64.1722 65.9639C64.0316 65.7815 63.9009 65.5735 63.7799 65.3401C63.6831 65.1042 63.5621 64.8708 63.4168 64.6397L63.1989 64.2931L62.9702 63.8372C62.8201 63.5575 62.6262 63.3312 62.3885 63.1582C61.6072 62.6951 60.8885 62.4957 60.2325 62.56C59.2849 62.6529 58.3644 63.1479 57.4711 64.045C57.0428 64.4304 56.669 64.8718 56.3498 65.3692L56.3134 65.3727C55.0636 67.1388 54.1572 69.1533 53.594 71.4163L53.5647 71.4928C53.3298 72.3499 53.1459 73.2265 53.0129 74.1226C52.7466 76.1603 52.6398 77.9492 52.6926 79.4895L52.7026 79.9669C52.7279 80.7249 52.7762 81.4684 52.8476 82.1973C53.0763 84.5299 53.5338 86.5701 54.2203 88.3182C54.7253 89.716 55.4525 91.1289 56.402 92.5567C57.3881 93.8583 58.2766 94.7893 59.0675 95.3496C60.2609 96.2629 61.6837 96.6386 63.3359 96.4767C63.8705 96.4243 64.3991 96.3111 64.9217 96.1373C65.3424 95.9243 65.7364 95.6894 66.1038 95.4327C66.9966 94.7809 67.695 94.1483 68.1991 93.5347L68.2684 93.4911C68.814 92.7998 69.3061 92.0647 69.7449 91.2857C70.0203 90.8417 70.2471 90.4025 70.4253 89.968L70.5718 89.5856C71.1526 88.2531 71.4942 86.8581 71.5967 85.4008C71.7001 84.7038 71.722 84.0515 71.6625 83.4441C71.5887 82.6909 71.4405 82.0553 71.2181 81.5374L71.1709 81.4317C70.6773 80.4007 69.9291 79.7749 68.9263 79.5543C68.6204 79.4371 68.3072 79.3696 67.9865 79.352C67.6611 79.2858 67.2919 79.2729 66.8789 79.3134L66.2264 79.4141L66.5544 79.382C65.4415 79.5401 64.4886 79.8298 63.6958 80.2509C63.2728 80.4396 62.784 80.7082 62.2294 81.057L61.8499 81.3149C60.8527 81.9033 60.0018 82.232 59.2972 82.3011C57.8394 82.444 56.9206 82.0802 56.5409 81.2098C56.4804 81.093 56.4442 80.9739 56.4323 80.8524C56.3799 80.3179 56.6824 79.6504 57.3399 78.8501C57.8121 78.4113 58.3133 78.0187 58.8435 77.6724C61.4268 75.9964 63.8725 75.0453 66.1808 74.819C68.8535 74.5571 71.0827 75.0255 72.8683 76.2242C73.7392 76.8502 74.4495 77.5901 74.9993 78.4439C75.5467 79.2734 75.9652 80.1645 76.2548 81.1174C76.3753 81.5962 76.4689 82.1758 76.5356 82.8561C76.5889 84.151 76.5725 85.1093 76.4862 85.7311C76.4219 86.3261 76.343 86.8981 76.2496 87.4469C75.8913 89.2973 75.3365 91.0198 74.5851 92.6144L74.5887 92.6508C74.3228 93.192 74.0436 93.7223 73.7511 94.2416L73.6889 94.3581C72.3458 96.673 70.6914 98.5646 68.7256 100.033L68.5906 100.156C66.9459 101.397 65.0302 102.124 62.8434 102.339ZM67.3927 79.2998L66.5909 79.3784L66.9153 79.3098L67.3927 79.2998ZM85.5147 95.6276C85.2474 95.6538 84.8029 95.6237 84.1811 95.5375C83.1564 95.3436 82.2069 93.9157 81.3327 91.2539L80.4781 88.5411L79.6563 85.7883C79.4391 85.0737 79.099 83.8559 78.6359 82.1351C78.1824 80.5114 77.7763 78.8708 77.4176 77.2134C77.2519 76.2729 77.0751 75.3458 76.8874 74.432C76.4116 71.8293 76.0407 69.5474 75.7749 67.5865L75.6213 66.0193C75.6423 65.2322 75.9751 64.6231 76.6197 64.192C77.262 63.7365 78.0204 63.466 78.8951 63.3802C79.7942 63.2921 80.5907 63.4103 81.2849 63.7347C82.0009 64.0325 82.4311 64.5423 82.5755 65.2641C82.6017 65.5314 82.6376 65.7732 82.6833 65.9895C82.7291 66.2058 82.7638 66.4354 82.7877 66.6784C82.8358 66.919 82.8839 67.1596 82.932 67.4001L83.1449 68.4464L83.48 70.3638L83.5751 70.2072C84.5304 68.6908 85.4921 67.6153 86.4602 66.9808C87.151 66.5205 87.9824 66.2428 88.9543 66.1476C90.3635 66.0094 91.7235 66.2441 93.0341 66.8516C94.3104 67.6096 95.2237 68.2928 95.7739 68.9012C96.3218 69.4853 96.8825 70.3258 97.4561 71.4225L98.2615 73.257L98.9425 75.3244C99.1282 75.9686 99.2592 76.6794 99.3355 77.4569C99.3878 77.9915 99.3407 78.5112 99.1939 79.0162C99.1348 79.4145 98.9314 79.7166 98.5836 79.9224C98.2601 80.1258 98.0314 80.2954 97.8975 80.4312L97.4266 80.8821L95.5892 81.283C95.3806 81.1562 95.1876 81.0648 95.0104 81.0085L94.0342 80.8098C93.886 80.7998 93.761 80.7753 93.659 80.7362C93.5814 80.6948 93.4189 80.539 93.1717 80.2688C92.5609 79.5437 92.0869 78.4617 91.7496 77.0229C91.6053 76.3012 91.4135 75.5963 91.1744 74.9083L90.9679 74.303C90.451 72.7837 89.7795 72.0645 88.9534 72.1455C88.1273 72.2265 87.2656 73.0714 86.3685 74.6802C85.9368 75.5321 85.6914 76.1571 85.6324 76.5554C85.3565 77.2448 85.1964 77.7388 85.1521 78.0375L85.0899 78.154C85.1576 78.3436 85.1997 78.5235 85.2164 78.6936L86.1846 82.9407L86.4919 84.1984L86.8241 85.7113L87.1278 86.9326C87.135 87.0055 87.1531 87.0651 87.1821 87.1113C87.7966 89.6268 88.1503 91.3584 88.2432 92.306C88.236 93.4842 87.8687 94.3665 87.1412 94.953C86.64 95.3455 86.0978 95.5704 85.5147 95.6276ZM123.681 99.4669C123.487 99.4859 123.303 99.4916 123.131 99.484C122.958 99.4764 122.672 99.3082 122.272 98.9795L121.854 98.4685C121.33 97.882 120.781 96.9056 120.205 95.5392C120.167 95.3958 120.117 95.2657 120.057 95.149C119.39 93.35 118.813 91.3459 118.327 89.1367C118.237 88.7284 118.174 88.3299 118.136 87.9411L118.041 88.0976C116.829 90.2524 115.431 91.8858 113.848 92.9977L113.811 93.0013C112.619 93.8541 111.319 94.3495 109.909 94.4877C107.771 94.6972 105.895 94.0716 104.28 92.6109C102.296 90.8919 101.119 88.1493 100.75 84.3832C100.578 80.6223 101.322 77.0782 102.983 73.7509C103.842 71.9987 104.805 70.5673 105.874 69.4568C105.862 69.3353 106.424 68.8141 107.56 67.8932C109.161 66.706 111.042 65.9943 113.202 65.758C114.757 65.6056 116.117 65.8403 117.282 66.462C117.537 66.5597 117.864 66.7729 118.264 67.1017C118.267 67.126 118.28 67.1369 118.304 67.1345C118.949 67.7091 119.303 68.3123 119.365 68.944C119.396 69.2599 119.392 69.4688 119.353 69.5707C119.314 69.6727 119.251 69.7892 119.166 69.9202C118.779 70.4733 117.625 70.8439 115.706 71.0321L115.232 71.0785C113.993 71.2 112.88 71.4808 111.892 71.921C110.63 72.8052 109.544 74.1137 108.634 75.8464C107.354 78.5477 106.797 81.2516 106.964 83.9582C107.074 85.0758 107.344 86.0797 107.774 86.9696C108.241 87.9787 108.851 88.4463 109.604 88.3725C110.285 88.3058 111.245 87.5862 112.484 86.2137C112.481 86.1894 112.492 86.1761 112.517 86.1737C113.069 85.5553 113.868 84.4467 114.914 82.8478L115.619 81.7852C115.804 81.4236 116.004 81.0851 116.219 80.7697C116.433 80.4543 116.622 80.1292 116.785 79.7942L117.188 79.0189C117.15 78.6301 117.155 78.188 117.205 77.6925C117.233 76.9784 117.302 76.3092 117.413 75.6851L117.68 75.0334C117.878 74.5479 118.414 74.2623 119.289 74.1766C119.532 74.1528 119.85 74.1461 120.244 74.1566C121.133 74.2166 121.6 74.4775 121.645 74.9391L121.63 75.1614C121.632 75.1857 121.647 75.2088 121.674 75.2307C121.725 75.2503 121.803 75.3039 121.91 75.3915C122.024 75.5521 122.1 75.8267 122.138 76.2155L122.202 77.2396L122.526 80.9242C122.705 82.7466 122.895 84.1875 123.097 85.2471C123.14 85.6844 123.308 86.6492 123.601 88.1414C123.939 89.5802 124.174 90.477 124.307 90.832C124.736 92.458 125.209 93.908 125.726 95.182L125.871 95.5357C126.082 95.9321 126.22 96.3357 126.285 96.7463C126.375 97.6696 126.076 98.3736 125.388 98.8581C124.882 99.202 124.313 99.405 123.681 99.4669ZM115.763 75.3685C115.736 75.3466 115.698 75.338 115.65 75.3428C115.626 75.3451 115.601 75.3475 115.577 75.3499C115.553 75.3523 115.539 75.3413 115.537 75.317L115.636 75.197C115.66 75.1946 115.673 75.2055 115.676 75.2298C115.7 75.2275 115.714 75.2506 115.719 75.2992C115.746 75.3211 115.76 75.3442 115.763 75.3685ZM136.538 89.854C135.08 89.9969 133.738 89.6991 132.513 88.9606C131.001 88.0539 129.735 86.3995 128.715 83.9973C128.219 82.942 127.807 81.7436 127.479 80.402C127.431 80.1614 127.372 79.9341 127.302 79.7202L126.98 78.3166C126.952 78.0251 126.899 77.7359 126.822 77.4491C126.598 76.4162 126.372 74.7335 126.143 72.4009L126.094 71.1546C126.038 70.3261 126.016 69.4818 126.03 68.6219C126.044 67.762 126.068 67.2567 126.102 67.1062C125.762 67.1395 125.097 67.3641 124.108 67.78L123.36 68.0373L122.89 68.1201C122.633 67.9982 122.352 67.8907 122.049 67.7978C120.893 67.5186 120.288 67.0996 120.233 66.5407C120.197 66.1763 120.564 65.662 121.333 64.9979L121.402 64.9543C122.385 64.2201 123.633 63.5582 125.145 62.9684C125.903 62.6978 126.368 62.5542 126.538 62.5375L126.553 62.3153L126.696 61.5284C126.769 60.5156 126.96 59.5892 127.27 58.7493C127.8 57.3972 128.515 56.6771 129.414 56.589C130.607 56.4966 131.732 57.2203 132.791 58.7601L132.694 59.6527L132.557 60.8804L132.491 61.3285C132.495 61.3771 132.487 61.4147 132.465 61.4414L132.833 61.4421C133.61 61.3659 134.256 61.315 134.768 61.2893C135.281 61.2635 135.784 61.2633 136.277 61.2886C137.302 61.2372 138.166 61.2874 138.867 61.4394C139.362 61.7344 139.635 62.1369 139.685 62.6472C139.694 62.7444 139.683 63.0031 139.65 63.4233C139.616 63.8192 139.358 64.3228 138.879 64.934C138.399 65.5452 137.824 65.9328 137.153 66.0967L136.049 66.0945C134.844 66.0654 133.973 66.0649 133.436 66.093L132.266 66.1709L132.248 66.3567C132.256 66.9446 132.251 67.5215 132.233 68.0875C132.267 68.4277 132.271 68.7216 132.246 68.9694C132.279 70.5606 132.323 71.6357 132.378 72.1945L132.391 73.0764C132.601 75.2146 132.776 76.6324 132.918 77.3299C132.947 77.6215 133.057 78.2484 133.25 79.2108C133.399 79.7358 133.536 80.2499 133.659 80.753C133.806 81.2537 133.963 81.729 134.129 82.1787C134.373 82.9153 134.711 83.6059 135.142 84.2505C135.571 84.8708 136.04 85.1559 136.551 85.1059C136.988 85.0631 137.419 84.5793 137.843 83.6545C138.048 83.242 138.168 82.9604 138.202 82.8099C138.569 81.5473 139.02 80.8899 139.554 80.8375C140.162 80.778 140.645 81.8344 141.006 84.0069C140.986 84.0579 140.98 84.1199 140.987 84.1927L141.008 84.4114C141.087 85.2132 140.875 86.1785 140.372 87.3071C139.958 88.0837 139.44 88.6863 138.82 89.1151C138.197 89.5196 137.437 89.7658 136.538 89.854ZM132.922 66.1066C132.728 66.1256 132.544 66.1313 132.372 66.1237L132.263 66.1344L132.266 66.1709L132.922 66.1066ZM155.122 89.8723C152.813 90.0986 150.645 89.6242 148.616 88.4493C147.355 87.5917 146.244 86.5231 145.285 85.2434L144.896 84.6559C143.787 83.0966 142.889 81.0748 142.204 78.5908C142.019 77.7013 141.859 76.8216 141.725 75.9516C141.537 74.0321 141.523 72.2672 141.684 70.6569C141.849 68.5802 142.361 66.2976 143.221 63.8093C143.963 61.8722 144.654 60.5411 145.295 59.816C145.453 59.6778 145.678 59.5944 145.969 59.5659C146.868 59.4777 147.905 59.7932 149.079 60.5121C150.276 61.2044 150.913 61.9514 150.992 62.7533C151.032 63.1663 150.891 63.5972 150.567 64.046C150.207 65.1361 149.933 66.3405 149.743 67.6592C149.526 69.2014 149.453 70.705 149.523 72.17L149.608 73.4127C149.737 74.7248 149.958 75.8561 150.272 76.8065C150.547 77.859 150.751 78.44 150.884 78.5495C151.416 79.7239 151.911 80.6444 152.369 81.3109C153.353 82.5882 154.367 83.1757 155.412 83.0733C156.335 82.9828 157.427 82.2379 158.689 80.8387C159.297 80.0431 159.759 79.2496 160.074 78.4583C160.479 77.5846 160.757 76.662 160.907 75.6906C161.172 74.389 161.241 73.0943 161.115 71.8065C161.005 70.6888 160.807 69.543 160.521 68.3691L160.473 68.2634C160.203 67.2595 159.831 66.2166 159.357 65.1347C158.816 63.8631 158.369 62.9378 158.018 62.359L157.579 61.6293C157.293 61.2158 157.136 60.8632 157.107 60.5717C157.031 59.7941 157.296 59.1181 157.902 58.5435C158.505 57.9447 159.281 57.5988 160.229 57.506C161.929 57.3392 162.963 58.1211 163.329 59.8515L164.12 61.5402L164.849 63.3454C165.67 65.718 166.192 67.5434 166.416 68.8216L166.775 71.3622C166.93 72.9415 166.851 74.6419 166.539 76.4632L166.131 78.3063L165.992 78.7615C165.536 80.3761 164.843 81.9404 163.913 83.4544C162.411 85.9075 160.659 87.6738 158.655 88.7533C157.539 89.3779 156.361 89.7509 155.122 89.8723ZM168.774 57.2203C168.726 57.2251 168.36 57.2487 167.677 57.291C166.994 57.3334 166.427 56.6776 165.976 55.3236L165.765 53.1733C165.722 52.7359 165.703 52.4189 165.709 52.2221L165.684 51.967C165.722 49.8536 166.555 48.7171 168.183 48.5575C168.814 48.4956 169.392 48.6352 169.916 48.9763C170.627 49.4709 171.044 50.3499 171.168 51.6134C171.291 52.1165 171.374 52.5867 171.417 53.0241C171.542 53.5515 171.636 54.131 171.698 54.7628C171.724 55.0301 171.714 55.3009 171.667 55.5753C170.953 56.5529 169.989 57.1013 168.774 57.2203ZM174.511 89.8485C173.345 89.9629 172.309 89.2794 171.403 87.7982C170.598 85.841 169.835 82.6899 169.115 78.3449L168.892 77.1894C168.637 75.5952 168.495 74.7751 168.466 74.7289C168.015 71.8784 167.742 69.8446 167.648 68.6273C167.495 67.0722 167.402 65.8671 167.367 65.0119C167.379 63.637 167.684 62.6136 168.28 61.9419C168.813 61.3745 169.432 61.0563 170.137 60.9872C171.036 60.8991 171.813 61.1909 172.467 61.8627C172.984 62.3763 173.286 63.0826 173.374 63.9816L173.388 64.4954L173.613 66.4235L173.944 68.6725C174.019 69.1803 174.104 69.6749 174.2 70.1561L174.582 72.5472C174.769 73.461 174.933 74.3772 175.072 75.2957L176.389 81.974C176.827 83.9426 177.098 85.4615 177.203 86.5306C177.012 88.5854 176.115 89.6914 174.511 89.8485ZM187.927 84.8172C186.469 84.96 185.128 84.6622 183.902 83.9238C182.391 83.0171 181.125 81.3627 180.104 78.9605C179.608 77.9052 179.196 76.7068 178.869 75.3652C178.82 75.1246 178.761 74.8973 178.691 74.6834L178.37 73.2798C178.341 72.9883 178.288 72.6991 178.211 72.4123C177.987 71.3794 177.761 69.6967 177.532 67.3641L177.484 66.1178C177.427 65.2893 177.406 64.445 177.42 63.5851C177.433 62.7251 177.458 62.2199 177.492 62.0694C177.152 62.1027 176.487 62.3273 175.497 62.7432L174.75 63.0004L174.28 63.0833C174.022 62.9614 173.742 62.8539 173.438 62.761C172.283 62.4818 171.677 62.0628 171.623 61.5039C171.587 61.1395 171.953 60.6252 172.722 59.9611L172.792 59.9175C173.775 59.1833 175.022 58.5214 176.534 57.9316C177.293 57.661 177.757 57.5174 177.927 57.5007L177.942 57.2785L178.086 56.4916C178.158 55.4788 178.35 54.5524 178.66 53.7124C179.19 52.3604 179.904 51.6403 180.803 51.5522C181.996 51.4598 183.122 52.1835 184.18 53.7233L184.084 54.6159L183.947 55.8436L183.88 56.2917C183.885 56.3403 183.876 56.3779 183.854 56.4046L184.222 56.4053C185 56.3291 185.645 56.2782 186.158 56.2525C186.67 56.2267 187.173 56.2265 187.666 56.2518C188.692 56.2004 189.555 56.2506 190.257 56.4026C190.752 56.6976 191.024 57.1001 191.074 57.6104C191.084 57.7076 191.072 57.9663 191.04 58.3865C191.005 58.7824 190.748 59.286 190.268 59.8972C189.788 60.5084 189.213 60.896 188.542 61.0599L187.438 61.0577C186.233 61.0286 185.362 61.0281 184.825 61.0562L183.656 61.1341L183.637 61.3199C183.646 61.9078 183.641 62.4847 183.623 63.0507C183.656 63.3909 183.66 63.6848 183.636 63.9326C183.669 65.5238 183.713 66.5989 183.768 67.1577L183.78 68.0396C183.99 70.1778 184.166 71.5956 184.308 72.2931C184.336 72.5847 184.447 73.2116 184.639 74.174C184.789 74.699 184.925 75.2131 185.048 75.7162C185.195 76.2169 185.352 76.6922 185.519 77.1419C185.763 77.8785 186.1 78.5691 186.532 79.2137C186.96 79.834 187.43 80.1191 187.94 80.0691C188.377 80.0263 188.808 79.5425 189.233 78.6177C189.438 78.2052 189.557 77.9236 189.592 77.7731C189.959 76.5105 190.409 75.8531 190.944 75.8007C191.551 75.7412 192.035 76.7976 192.395 78.9701C192.376 79.0211 192.369 79.0831 192.377 79.1559L192.398 79.3746C192.477 80.1764 192.265 81.1417 191.762 82.2703C191.347 83.0469 190.83 83.6495 190.21 84.0783C189.587 84.4828 188.826 84.729 187.927 84.8172ZM184.312 61.0698C184.117 61.0888 183.934 61.0945 183.761 61.0869L183.652 61.0976L183.656 61.1341L184.312 61.0698Z" fill="#FFF2EA"/>
        <g clip-path="url(#clip1)">
            <path d="M121.043 120.66C123.245 120.266 125.547 120.266 128.057 120.641C134.567 121.614 141.465 126.509 144.125 132.008C146.422 136.748 146.894 142.561 145.731 150.83C144.981 156.167 141.521 161.601 136.936 164.714C135.312 165.803 133.021 166.65 130.295 167.138C125.946 167.916 120.61 167.789 116.022 166.756C112.445 165.979 110.805 164.753 107.795 162.536C106.845 161.83 105.762 161.019 104.505 160.188C101.33 158.001 100.271 153.194 99.4778 148.443C98.4309 142.114 100.272 136.84 105.687 130.747C110.984 124.777 115.867 121.586 121.043 120.66ZM120.016 114.92C112.253 116.309 106.147 121.084 100.804 127.113C94.6511 134.009 91.7479 140.966 93.1557 149.471C94.1006 155.07 95.4548 161.37 100.568 164.859C105.681 168.348 107.974 171.002 114.303 172.394C119.391 173.518 125.67 173.837 131.313 172.828C134.809 172.202 138.047 171.082 140.631 169.332C146.868 165.126 151.124 158.107 152.105 151.364C153.145 143.993 153.301 136.29 150.038 129.483C146.651 122.465 138.169 116.18 129.35 114.847C125.965 114.345 122.879 114.408 120.016 114.92Z" fill="#FFF2EA"/>
            <path d="M123.385 156.296C122.862 156.389 122.316 156.358 121.781 156.222C121.126 156.056 120.601 155.661 120.324 155.066C120.051 154.652 119.842 154.277 119.688 153.892C119.561 153.658 119.433 153.423 119.334 153.183C119.243 152.993 119.175 152.774 119.052 152.564L118.608 151.51C118.45 151.101 118.291 150.691 118.16 150.277C118.034 149.887 117.875 149.478 117.717 149.069L117.712 149.044L117.211 147.511C116.899 146.562 116.633 145.554 116.386 144.491L116.018 142.908L116.014 142.883C115.924 142.384 115.808 141.89 115.691 141.396L115.682 141.346C115.338 139.424 115.124 138.072 115.037 137.264L115.006 136.934C114.989 136.68 114.967 136.4 114.978 136.141C114.931 135.402 114.975 134.854 115.073 134.45L115.069 134.425L115.064 134.4C115.213 133.961 115.572 133.588 116.119 133.31C116.565 133.101 117.02 132.943 117.543 132.849C118.098 132.776 118.607 132.762 119.051 132.863C119.674 133.009 120.107 133.369 120.256 133.883C120.27 133.958 120.328 134.128 120.395 134.502C121.287 134.085 122.283 133.778 123.412 133.576C124.32 133.414 125.219 133.356 126.136 133.398C127.135 133.425 128.074 133.592 128.961 133.948C130.618 134.631 131.781 135.736 132.374 137.304C132.542 137.763 132.682 138.228 132.762 138.677C132.923 139.575 132.891 140.508 132.694 141.47L132.698 141.495C132.516 142.223 132.233 142.866 131.845 143.399C131.471 144.007 130.95 144.589 130.301 145.092C129.653 145.594 128.848 146.021 127.976 146.383L127.948 146.388C127.172 146.656 126.383 146.849 125.584 146.992C124.758 147.139 123.979 147.227 123.268 147.226C123.313 147.32 123.81 148.828 123.81 148.828L124.517 150.711L124.956 151.894L125.132 152.403C125.426 153.252 125.475 153.527 125.502 153.676C125.551 153.951 125.545 154.235 125.507 154.5L125.493 154.579L125.451 154.664C125.228 155.322 124.679 156.064 123.385 156.296ZM122.274 143.257C122.494 143.218 122.857 143.179 123.393 143.16L123.421 143.155C124.017 143.151 124.489 143.093 124.847 143.029C125.122 142.979 125.471 142.865 125.862 142.667C126.147 142.513 126.409 142.234 126.645 141.806C126.812 141.467 126.896 141.143 126.902 140.858L126.897 140.833L126.893 140.808C126.959 140.384 126.938 139.95 126.862 139.526C126.75 139.057 126.596 138.672 126.428 138.368C126 137.723 125.511 137.373 124.985 137.287L124.953 137.267C124.6 137.201 124.229 137.19 123.784 137.244L123.674 137.264L123.481 137.298L123.476 137.273C123.449 137.278 123.421 137.283 123.394 137.288C123.206 137.347 122.99 137.412 122.802 137.471L122.774 137.476L122.719 137.486C122.347 137.63 122.034 137.789 121.754 137.968C121.703 138.002 121.653 138.037 121.575 138.077C121.377 138.241 121.197 138.351 121.073 138.45C121.256 139.473 121.453 140.417 121.637 141.285L121.758 141.804C121.848 142.303 121.964 142.797 122.081 143.292C122.219 143.267 122.246 143.262 122.274 143.257Z" fill="#FFF2EA"/>
            <path d="M117.708 133.618C118.148 133.539 118.52 133.55 118.872 133.616C119.198 133.686 119.426 133.851 119.503 134.121C119.566 134.316 119.692 134.86 119.848 135.733C120.869 135.087 122.122 134.631 123.637 134.36C124.462 134.212 125.306 134.164 126.136 134.196C127.048 134.213 127.9 134.37 128.668 134.696C130.137 135.283 131.136 136.263 131.662 137.612C131.82 138.021 131.924 138.44 132 138.865C132.142 139.663 132.125 140.516 131.91 141.379C131.741 142.027 131.5 142.585 131.163 143.083C130.835 143.631 130.384 144.124 129.808 144.562C129.21 145.029 128.512 145.412 127.685 145.714C126.964 145.972 126.23 146.155 125.459 146.293C124.247 146.51 123.147 146.552 122.162 146.445C122.207 146.694 122.346 147.159 122.586 147.863L123.006 149.101L123.717 151.008L124.156 152.192L124.328 152.676C124.526 153.31 124.653 153.7 124.68 153.849C124.715 154.049 124.724 154.253 124.704 154.463C124.491 155.016 124.012 155.359 123.297 155.487C122.911 155.556 122.48 155.53 122.064 155.425C121.62 155.324 121.318 155.069 121.128 154.639C120.859 154.249 120.646 153.85 120.524 153.485C120.401 153.276 120.278 153.066 120.183 152.851C120.088 152.636 119.992 152.422 119.897 152.207L119.485 151.173C119.331 150.789 119.204 150.399 119.046 149.99C118.915 149.575 118.756 149.166 118.598 148.756L118.101 147.249C117.794 146.325 117.528 145.317 117.29 144.303L116.926 142.746C116.832 142.222 116.715 141.728 116.594 141.209C116.255 139.312 116.046 137.984 115.958 137.176L115.928 136.847C115.91 136.592 115.898 136.363 115.881 136.108C115.847 135.445 115.868 134.926 115.952 134.602C116.022 134.357 116.239 134.138 116.606 133.97C116.891 133.816 117.268 133.697 117.708 133.618ZM121.59 144.358L121.645 144.348L122.109 144.085L122.219 144.065C122.247 144.06 122.297 144.026 122.435 144.001C122.628 143.966 122.962 143.932 123.439 143.898C124.09 143.885 124.622 143.841 125.008 143.772C125.366 143.708 125.793 143.555 126.266 143.341C126.735 143.103 127.117 142.7 127.413 142.132C127.617 141.683 127.743 141.274 127.727 140.865C127.807 140.362 127.773 139.853 127.683 139.353C127.553 138.784 127.386 138.325 127.181 137.975C126.603 137.126 125.95 136.65 125.162 136.534C124.722 136.458 124.264 136.437 123.732 136.481L123.672 136.466L123.342 136.525L123.998 136.382L124.443 136.328L124.218 136.342L123.608 136.426C123.471 136.45 123.365 136.495 123.227 136.519C122.956 136.594 122.713 136.663 122.47 136.732L122.419 136.767C121.965 136.926 121.579 137.149 121.247 137.363C121.22 137.368 121.224 137.393 121.169 137.403C120.663 137.751 120.341 138.014 120.171 138.174C120.385 139.371 120.609 140.465 120.843 141.453L120.964 141.972C121.121 142.691 121.278 143.41 121.462 144.123L121.59 144.358ZM117.468 132.116C116.835 132.229 116.27 132.407 115.778 132.676C114.84 133.152 114.443 133.79 114.294 134.229L114.276 134.284L114.257 134.338C114.145 134.822 114.11 135.421 114.143 136.239C114.137 136.523 114.163 136.828 114.184 137.107L114.215 137.436C114.307 138.27 114.493 139.627 114.841 141.574L114.85 141.624L114.859 141.673C114.976 142.168 115.088 142.637 115.173 143.111L115.182 143.161L115.191 143.211L115.555 144.768C115.802 145.831 116.099 146.86 116.384 147.813L116.885 149.346L116.894 149.396L116.903 149.446C117.057 149.83 117.211 150.215 117.338 150.604C117.468 151.019 117.631 151.453 117.785 151.838L117.79 151.863L117.794 151.888L118.207 152.921L118.211 152.946L118.216 152.971C118.311 153.186 118.402 153.376 118.465 153.57C118.564 153.81 118.696 154.07 118.828 154.33C118.982 154.714 119.195 155.114 119.468 155.528C119.864 156.308 120.558 156.853 121.446 157.055C122.128 157.216 122.788 157.252 123.422 157.139C124.743 156.903 125.718 156.162 126.15 155.08L126.206 154.915L126.23 154.731C126.282 154.387 126.274 154.028 126.216 153.703C126.185 153.528 126.104 153.234 125.801 152.335L125.657 151.846L125.652 151.821L125.648 151.796L125.209 150.613L124.498 148.705L124.3 148.071C124.744 148.017 125.189 147.964 125.657 147.88C126.511 147.727 127.351 147.5 128.154 147.227L128.182 147.222L128.209 147.217C129.192 146.835 130.047 146.373 130.77 145.806C131.492 145.239 132.087 144.592 132.503 143.9C132.904 143.287 133.233 142.584 133.43 141.776L133.425 141.752L133.421 141.727C133.66 140.679 133.674 139.647 133.5 138.674C133.41 138.174 133.261 137.66 133.09 137.176C132.406 135.418 131.101 134.158 129.234 133.41C128.282 133.014 127.224 132.817 126.11 132.784C125.139 132.752 124.18 132.795 123.217 132.967C122.391 133.115 121.634 133.328 120.908 133.561C120.618 132.891 119.997 132.436 119.195 132.245C118.756 132.014 118.133 132.023 117.468 132.116ZM123.178 138.151C123.311 138.101 123.449 138.076 123.61 138.022L123.669 138.037L123.674 138.062L123.784 138.042L123.894 138.023C124.229 137.988 124.541 137.984 124.779 138.045L124.811 138.065L124.843 138.085C125.191 138.125 125.519 138.53 125.71 138.805C125.837 139.04 125.951 139.354 126.045 139.724C126.108 140.073 126.11 140.407 126.063 140.777L126.049 140.856L126.035 140.936C126.038 141.116 125.964 141.335 125.866 141.584C125.677 141.953 125.52 142.032 125.47 142.067C125.079 142.266 124.836 142.335 124.698 142.36C124.506 142.394 124.116 142.438 123.41 142.462L123.382 142.467L123.355 142.471C123.157 142.481 122.96 142.491 122.823 142.515C122.773 142.241 122.701 141.996 122.652 141.722L122.648 141.697L122.643 141.672L122.522 141.152C122.365 140.434 122.195 139.64 122.043 138.792C122.07 138.787 122.066 138.762 122.093 138.757C122.172 138.717 122.25 138.677 122.323 138.613C122.526 138.473 122.788 138.349 123.081 138.245L123.178 138.151Z" fill="#FFF2EA"/>
        </g>
    </g>
    <defs>
        <clipPath id="clip0">
            <rect width="226.222" height="209" fill="white" transform="translate(0.734375 22.5317) rotate(-5.59781)"/>
        </clipPath>
        <clipPath id="clip1">
            <rect width="60.4637" height="58.9919" fill="white" transform="translate(88 120.648) rotate(-10.1427)"/>
        </clipPath>
    </defs>
</svg>
