<svg width="253" height="253" viewBox="0 0 253 253" fill="none" xmlns="http://www.w3.org/2000/svg">
    <g clip-path="url(#clip0)">
        <path d="M94.9391 208.536C83.8736 205.985 73.8305 201.982 65.156 196.664C63.3504 195.549 61.5647 194.497 59.8117 193.453C43.7333 183.867 29.8722 175.549 23.2084 151.365C22.2373 147.823 21.0416 135.263 21.3006 131.305C21.5524 127.23 23.6486 116.942 25.1433 112.396C34.957 82.3464 44.7503 59.3945 60.7961 44.8118C68.6338 37.6525 77.3734 34.4853 84.8987 32.2608C105.9 26.156 127.053 25.2095 145.985 29.5732C149.086 30.2879 152.149 31.1685 155.121 32.1446C161.346 34.2198 167.613 35.6643 173.651 37.0561C188.732 40.532 202.996 43.8198 215.816 56.2063C221.919 62.0957 225.94 67.9131 228.525 74.4473C235.804 93.1253 234.014 126.247 224.21 153.272C218.916 167.888 212.177 180.424 204.728 189.477C197.518 198.237 189.645 203.758 181.961 205.48C148.253 213.022 118.996 214.081 94.9391 208.536Z" fill="#22C79E"/>
        <path d="M144.709 35.1012C147.745 35.8009 150.743 36.6664 153.649 37.6275C159.972 39.7252 166.272 41.1773 172.343 42.5766C187.13 45.9848 201.133 49.2123 213.475 61.1393C219.236 66.7173 223.021 72.0725 225.368 78.1444C228.681 86.5928 229.998 98.7734 229.153 112.435C228.318 125.749 225.504 139.598 221.2 151.414C216.208 165.167 209.901 176.871 202.963 185.344C196.382 193.317 189.191 198.414 182.191 200.002C148.867 207.517 119.93 208.532 96.1993 203.062C85.3297 200.557 75.5023 196.662 67.0109 191.444C65.2053 190.33 63.387 189.27 61.634 188.226C53.719 183.49 46.2554 179.034 40.1191 172.845C33.6222 166.283 29.2702 158.468 26.431 148.266C25.6661 145.469 24.5403 133.799 24.7515 130.645C24.9683 127.319 26.9059 117.868 28.1697 114.025C32.0373 102.167 36.7881 88.4157 42.7998 76.3526C48.5081 64.86 54.7529 56.1108 61.9227 49.6126C69.1959 42.9636 77.5127 39.99 84.6734 37.8562C105.368 31.739 126.104 30.8128 144.709 35.1012ZM147.258 24.0446C127.477 19.4854 106.208 20.6379 85.0634 26.7679C76.5094 29.2792 67.7389 32.7304 59.6543 40.0657C41.7789 56.3226 31.5626 81.8551 22.1144 110.767C20.4724 115.803 18.1453 126.794 17.8018 132.013C17.4767 137.003 18.7878 150.405 19.938 154.512C27.7789 182.984 44.9163 190.66 63.2532 201.931C72.5948 207.636 82.8593 211.573 93.6637 214.064C121.572 220.496 153.12 217.405 181.552 210.975C198.523 207.143 215.504 187.012 227.088 155.1C236.879 128.13 239.945 92.1583 231.581 70.727C228.309 62.4042 223.353 56.3133 218.07 51.1949C199.508 33.2932 178.118 33.7775 156.557 26.6536C153.487 25.655 150.391 24.7669 147.258 24.0446Z" fill="white"/>
        <path d="M114.961 107.634L114.319 107.486C113.243 106.937 112.311 106.034 111.524 104.775C110.863 103.62 110.308 102.44 109.86 101.234C109.303 99.6278 108.833 98.0789 108.45 96.5876L108.365 96.3049C108.039 95.0021 107.676 93.1522 107.277 90.7551C106.945 88.8246 106.677 86.6709 106.473 84.2939L106.121 81.0935L105.023 70.6935C105.005 70.6642 105.001 70.6258 105.012 70.5782C104.95 70.7392 104.888 70.9003 104.826 71.0613C104.769 71.1986 104.724 71.3386 104.691 71.4813L104.447 72.2143C103.657 74.3372 103.12 76.0172 102.835 77.2543C102.604 77.9277 102.182 79.4339 101.568 81.7727C101.462 82.124 101.315 82.7042 101.129 83.513L100.301 87.2682L99.6842 90.4332C99.5892 91.0627 99.3745 92.266 99.0401 94.0429L98.6343 95.6405C98.2412 96.8026 97.5652 97.5613 96.6064 97.9166C95.977 98.1473 95.3887 98.1996 94.8415 98.0735C94.5322 98.0022 94.1022 97.8029 93.5513 97.4754C93.0297 97.1297 92.8272 96.2688 92.944 94.8927C92.8518 92.4662 93.1081 89.5063 93.7129 86.0128C94.2337 83.427 94.645 81.4799 94.9465 80.1714C95.1714 79.196 95.42 78.2261 95.6924 77.2617L96.0406 75.9138C96.3459 74.8067 96.7618 73.4369 97.2884 71.8044C97.921 69.8207 98.6342 67.868 99.4279 65.9463L99.6994 65.2573L100.415 63.6184L101.074 62.2293C101.112 62.0628 101.309 61.6446 101.664 60.9748C102.253 59.8328 102.96 58.9936 103.785 58.4572C104.458 58.0361 105.022 57.8155 105.478 57.7952C105.78 57.7896 106.121 57.8307 106.502 57.9185L107.136 58.1022L108.1 58.3243C108.716 58.6919 109.222 59.1593 109.618 59.7265C110.178 60.5571 110.624 61.6119 110.955 62.891C111.185 64.0712 111.379 65.2935 111.538 66.558L111.596 66.7967C111.684 67.719 111.779 68.5049 111.879 69.1545L112.185 71.7428C112.429 73.4025 112.651 75.3705 112.853 77.6469C113.231 81.1163 113.472 83.2261 113.574 83.9763C113.87 86.4997 114.127 88.5885 114.347 90.2427L114.608 91.8813C114.72 92.809 114.942 94.0753 115.274 95.68C115.543 97.1201 115.8 98.1813 116.043 98.8638L116.331 97.1263C116.517 95.9917 116.7 94.6558 116.879 93.1186C116.886 92.8697 116.908 92.6117 116.944 92.3445C116.981 92.0774 117.089 91.0123 117.267 89.1494C117.565 86.3368 117.756 84.6395 117.84 84.0575L117.837 83.9066C118.314 80.5339 118.829 77.6462 119.383 75.2434C119.492 74.7676 119.611 74.3064 119.739 73.8599C120.046 72.5276 120.378 71.414 120.735 70.5191L121.012 69.6434C121.396 68.6295 121.83 67.6147 122.315 66.599C122.766 65.726 123.278 64.8667 123.848 64.0212C125.191 62.3263 126.467 61.1923 127.677 60.6192C128.586 60.1524 129.497 59.949 130.41 60.0092L131.56 60.2367C132.702 60.4999 133.648 61.1813 134.396 62.2808C134.861 63.0895 135.004 63.8864 134.823 64.6715C134.658 65.3852 134.28 65.937 133.689 66.327C133.122 66.7224 132.565 66.857 132.018 66.7309C131.709 66.6596 131.409 66.4904 131.12 66.2233C130.712 65.9288 130.448 65.7679 130.33 65.7405C130.044 65.6747 129.707 65.8852 129.32 66.372L129.276 66.3995C128.851 66.8278 128.466 67.3028 128.12 67.8244C127.799 68.3515 127.434 69.1192 127.026 70.1276C126.956 70.2118 126.775 70.6712 126.483 71.5057C125.907 73.0265 125.41 74.6909 124.994 76.499L124.602 78.3629C124.426 79.4499 124.308 80.1243 124.248 80.3859L123.618 84.7505L123.536 85.5959L123.358 87.0205C123.31 87.661 123.238 88.4085 123.141 89.2631L123.106 89.7435C123.007 90.8232 122.924 91.8937 122.854 92.9551C122.79 93.9926 122.706 95.0128 122.6 96.0157C122.479 97.5162 122.338 98.8365 122.175 99.9766C122.068 100.553 121.915 101.27 121.718 102.126C121.273 104.053 120.639 105.448 119.814 106.31C118.722 107.461 117.624 107.985 116.52 107.881C116.076 107.853 115.556 107.771 114.961 107.634ZM134.625 104.988C132.722 104.549 131.086 103.546 129.719 101.978C128.701 100.742 128.017 99.3062 127.667 97.6722C126.834 94.5488 126.801 91.3217 127.569 87.9911C128.018 86.0403 128.739 84.1644 129.73 82.3635C129.8 82.2793 129.86 82.1805 129.911 82.067C130.261 81.421 130.655 80.7978 131.094 80.1975C133.796 77.0621 136.8 75.8755 140.107 76.6377C141.463 76.9503 142.721 77.5785 143.882 78.5224C145.042 79.4664 145.967 80.6693 146.658 82.1312C147.903 84.7732 148.426 87.6122 148.227 90.6481C148.171 91.4368 148.027 92.3308 147.797 93.3299C147.665 93.9009 147.495 94.4755 147.287 95.0539C146.788 96.5673 146.164 97.9143 145.416 99.0948C144.476 100.457 143.601 101.533 142.793 102.323C141.792 103.295 140.651 104.06 139.371 104.616C137.729 105.215 136.147 105.339 134.625 104.988ZM135.856 98.9958C135.975 99.0232 136.255 99.0003 136.698 98.9269C137.141 98.8536 137.885 98.2358 138.929 97.0736C139.255 96.7478 139.55 96.3899 139.816 96.0001L139.832 95.9287C140.518 94.9093 141.019 93.985 141.336 93.156L141.396 93.0572C141.56 92.6692 141.687 92.2849 141.774 91.9042C141.944 91.1667 142.045 90.5134 142.076 89.9443C142.158 88.936 142.061 87.8866 141.787 86.796C141.541 85.6872 141.22 84.7988 140.823 84.131C139.984 82.9857 139.268 82.3445 138.673 82.2074C138.03 82.0594 137.313 82.5079 136.521 83.553C135.753 84.6036 135.12 85.773 134.623 87.0614C134.288 87.8612 134.022 88.6893 133.825 89.5458C133.287 91.8772 133.355 94.2478 134.027 96.6577C134.627 98.0738 135.237 98.8532 135.856 98.9958ZM148.419 109.708C147.824 109.571 147.219 109.206 146.604 108.614C146.019 108.003 145.809 107.065 145.975 105.8C146.17 104.192 146.624 101.841 147.337 98.7484L147.554 97.9716C147.994 96.169 148.496 94.3179 149.059 92.4183C149.158 91.9901 149.283 91.5554 149.435 91.1144C149.951 89.2038 150.656 87.2868 151.55 85.3633L152.348 83.8562C152.91 82.8331 153.566 81.9948 154.318 81.3414C155.5 80.2358 156.852 79.8585 158.375 80.2094C158.803 80.3081 159.23 80.469 159.654 80.6922C160.481 81.2336 161.201 82.0257 161.812 83.0686C162.186 83.731 162.569 84.6211 162.963 85.7391C163.43 86.9741 163.825 88.3053 164.147 89.7325L164.37 90.7234C164.472 91.1479 164.56 91.5816 164.634 92.0244C164.876 93.2577 165.012 94.0784 165.043 94.4864C165.272 95.6667 165.413 96.5258 165.464 97.0637L166.223 101.598L166.843 99.5612C167.177 98.4357 167.446 97.4329 167.649 96.5526L167.981 95.2762L168.101 94.5899C168.315 93.6621 168.446 93.0408 168.493 92.726C168.806 91.37 169.105 90.2363 169.39 89.3249L169.743 87.7904L169.823 87.2826C169.9 86.9495 170.012 86.6247 170.16 86.3081C170.896 85.0745 171.751 84.5702 172.726 84.795C173.511 84.9759 174.034 85.6977 174.294 86.9603C174.357 87.4507 174.36 87.9777 174.306 88.5413C174.251 89.1049 174.214 89.8607 174.196 90.8086C174.168 92.4555 174.023 94.0631 173.761 95.6314L173.515 97.6792C173.363 99.4231 173.116 101.095 172.772 102.694C172.663 103.17 172.387 104.096 171.944 105.472L171.884 105.571C171.235 107.626 170.313 109.18 169.118 110.233C167.881 111.25 166.514 111.587 165.015 111.241C163.54 110.901 162.395 109.998 161.58 108.533C161.002 107.673 160.502 106.418 160.081 104.767C159.632 102.91 159.196 100.505 158.775 97.5514C158.766 97.3739 158.735 97.179 158.684 96.9667C158.662 96.7362 158.46 95.2741 158.079 92.5806C158.09 92.533 158.086 92.4946 158.068 92.4653C157.938 91.1826 157.72 89.9548 157.414 88.7819L157.356 88.5431L155.732 92.9792C155.699 93.122 155.657 93.2501 155.606 93.3635C155.231 94.5549 154.889 95.7161 154.578 96.8471C154.501 97.1801 154.185 98.3349 153.629 100.311C153.004 102.698 152.571 104.302 152.332 105.123L151.679 107.303C151.573 107.654 151.458 107.991 151.334 108.313C150.723 109.55 149.751 110.015 148.419 109.708Z" fill="#FFF2EA"/>
    </g>
    <path d="M91.5491 164.6C89.6216 163.726 88.1002 162.31 86.9868 160.349C86.1705 158.816 85.7575 157.139 85.7349 155.326C85.5222 151.825 86.1835 148.383 87.7167 145.001C88.6137 143.022 89.7836 141.177 91.2256 139.473C91.3194 139.397 91.4054 139.305 91.4818 139.196C91.994 138.584 92.5428 138.005 93.141 137.459C96.6868 134.698 100.134 134.078 103.479 135.594C104.851 136.217 106.054 137.154 107.083 138.409C108.111 139.66 108.836 141.137 109.255 142.843C110.009 145.921 109.951 149.056 109.085 152.244C108.853 153.072 108.508 153.992 108.048 155.006C107.785 155.586 107.481 156.159 107.134 156.733C106.277 158.238 105.323 159.537 104.276 160.635C102.986 161.885 101.824 162.842 100.796 163.513C99.525 164.334 98.1456 164.904 96.6679 165.222C94.7985 165.505 93.0895 165.298 91.5491 164.6ZM94.146 158.485C94.2648 158.539 94.5701 158.574 95.0559 158.591C95.5418 158.609 96.4679 158.108 97.8255 157.096C98.2397 156.82 98.6312 156.501 98.9981 156.144L99.0306 156.072C99.9764 155.135 100.708 154.257 101.226 153.442L101.312 153.35C101.57 152.971 101.786 152.592 101.963 152.203C102.301 151.455 102.548 150.782 102.704 150.181C103.008 149.123 103.142 147.984 103.1 146.757C103.063 145.533 102.899 144.52 102.623 143.724C101.98 142.328 101.357 141.49 100.757 141.218C100.107 140.924 99.254 141.248 98.198 142.199C97.144 143.146 96.2147 144.253 95.4063 145.519C94.8773 146.299 94.4175 147.123 94.0228 147.993C92.9493 150.361 92.5103 152.899 92.7069 155.608C93.0408 157.241 93.5192 158.201 94.146 158.485Z" fill="#FFF2EA"/>
    <path d="M155.967 161.161C156.469 159.22 156.744 157.431 156.787 155.801C156.803 153.842 156.613 152.055 156.211 150.448C155.496 147.471 154.395 145.1 152.899 143.341C150.653 140.925 148.03 139.037 145.018 137.671C142.97 136.743 140.807 136.231 138.526 136.141C138.297 136.15 138.068 136.172 137.842 136.186C137.803 135.171 137.745 134.166 137.674 133.174C137.603 132.181 137.528 131.344 137.452 130.656L137.402 129.961C137.28 128.765 137.15 127.57 137.028 126.374L136.848 124.966C136.828 124.646 136.767 124.263 136.68 123.813C136.667 123.758 136.65 123.709 136.637 123.663C136.61 123.384 136.506 123.095 136.324 122.795C136.146 122.413 135.556 121.793 134.472 121.988C133.386 122.184 128.515 124.796 127.689 127.684C127.677 127.723 127.403 128.713 128.58 129.577C128.695 129.661 128.8 129.721 128.903 129.768C129.227 129.915 129.495 129.9 129.679 129.853C130.195 129.717 130.424 129.24 130.436 129.213C130.442 129.199 131.158 127.948 133.286 126.527C133.288 126.595 133.288 126.659 133.292 126.732L133.431 128.941L133.467 129.444L133.583 131.052L133.922 135.73C133.949 136.145 133.968 136.549 133.993 136.962C133.935 136.981 133.878 136.997 133.821 137.015C133.755 137.04 133.692 137.07 133.627 137.095C133.58 137.111 133.532 137.124 133.479 137.142C133.437 137.155 133.393 137.174 133.352 137.193C131.147 138.082 129.88 139.019 128.617 139.8L127.973 140.278C127.319 140.73 125.666 142.072 123.964 143.61C122.375 145.045 120.404 146.739 118.71 148.167C118.156 148.625 117.214 149.45 115.888 150.633C115.886 150.299 115.88 150.023 115.874 149.808C115.841 148.067 115.76 146.36 115.63 144.681C115.559 143.787 115.49 143.03 115.419 142.413L115.37 141.785C115.252 140.705 115.132 139.625 115.014 138.545L114.861 137.384C115.534 137.676 116.248 138.013 117.016 138.405C117.207 138.529 118.247 139.159 119.167 138.867C119.477 138.768 119.895 138.52 120.149 137.9C120.268 137.675 120.624 136.771 119.335 135.745C118.216 134.855 111.224 131.567 107.757 132.215C107.298 132.296 106.479 132.799 106.665 134.115C106.761 134.808 107.168 135.19 107.588 135.381C107.897 135.521 108.217 135.562 108.438 135.549C108.456 135.547 109.563 135.577 111.571 136.166C111.568 136.259 111.566 136.357 111.573 136.466C111.577 137.15 111.583 137.508 111.578 137.545C111.574 137.58 111.586 138.013 111.616 138.839L111.754 140.833L111.791 141.286L111.906 142.736L112.063 144.761C111.596 144.717 111.096 144.779 110.638 144.858C108.736 145.186 106.832 145.508 104.93 145.836C103.952 145.929 102.625 146.127 100.946 146.433C99.8695 146.671 99.2522 146.796 99.0864 146.802L98.7663 146.882C98.2128 146.992 97.6776 147.132 97.1655 147.297C96.9078 147.348 96.5461 147.471 96.0835 147.668C95.3029 148.023 94.8433 148.432 94.7096 148.885C94.6517 149.084 94.6124 149.296 94.5877 149.519C94.5549 149.847 94.5404 150.048 94.5483 150.123C94.5541 150.198 94.626 150.366 94.7634 150.619L94.7958 150.678C95.0292 151.018 95.3266 151.294 95.6849 151.505C96.2688 151.852 97.2008 152.247 98.4768 152.69C99.2125 152.952 99.7037 153.137 99.9618 153.254C101.059 153.688 101.773 153.982 102.097 154.128C103.084 154.63 103.895 155.069 104.528 155.448C105.401 155.964 106.365 156.614 107.416 157.402C107.535 157.5 107.656 157.597 107.786 157.685L109.496 159.012C109.941 159.371 110.359 159.571 110.748 159.611C110.937 159.63 111.113 159.608 111.285 159.548C111.488 159.487 111.658 159.391 111.794 159.27C111.956 159.164 112.163 159.013 112.428 158.814L113.102 158.281C114.569 157.039 115.538 156.241 116.012 155.888L118.087 154.226C118.573 153.829 119.064 153.437 119.567 153.062L119.58 153.073C118.505 155.971 117.854 158.923 117.643 161.927C117.497 164.17 117.618 166.235 118.01 168.126C118.783 172.44 120.547 175.822 123.301 178.266C124.49 179.292 125.785 180.119 127.184 180.753C129.015 181.583 130.976 181.981 133.068 181.946C135.159 181.911 137.573 181.314 140.305 180.157C140.397 180.085 140.493 180.03 140.596 179.99C143.882 178.373 146.787 176.164 149.304 173.369C151.247 171.257 152.832 168.948 154.05 166.453C154.908 164.56 155.546 162.792 155.967 161.161ZM111.641 154.63C111.288 155.048 110.821 155.508 110.288 155.392C110.268 155.388 110.247 155.373 110.227 155.369C109.751 154.991 109.254 154.617 108.737 154.242L108.258 153.911C107.072 153.072 105.87 152.337 104.64 151.693C103.869 151.304 103.366 151.061 103.136 150.974C102.313 150.591 101.469 150.256 100.615 149.972L100.304 149.846C100.405 149.842 100.614 149.801 100.925 149.718C101.467 149.603 102.022 149.499 102.587 149.402C104.292 149.073 106.105 148.856 108.028 148.747L108.317 148.737C108.942 148.709 109.376 148.709 109.628 148.732L110.136 148.745C110.368 148.761 110.605 148.772 110.855 148.777C111.158 148.783 111.457 148.825 111.758 148.838C111.868 148.905 111.965 148.996 112.044 149.121C112.253 149.455 112.281 149.868 112.3 150.262C112.339 150.983 112.375 151.703 112.417 152.421C112.439 152.782 112.455 153.15 112.357 153.498C112.221 153.932 111.926 154.29 111.641 154.63ZM146 164.9C145.284 166.032 144.355 167.221 143.204 168.467L142.786 168.917C142.102 169.662 141.11 170.526 139.824 171.511C138.649 172.376 137.503 173.042 136.392 173.509C133.963 174.575 131.869 174.71 130.112 173.914C127.582 172.767 126.045 169.946 125.5 165.447C125.344 163.808 125.392 162.16 125.647 160.508C126.072 158.221 126.734 156.094 127.624 154.132C128.224 152.809 128.858 151.639 129.52 150.625C130.074 149.849 130.654 149.087 131.256 148.333C132.263 147.135 133.278 146.17 134.309 145.438C134.364 145.403 134.415 145.372 134.469 145.342L134.503 146.405C134.545 147.303 134.576 148.211 134.591 149.124L134.676 153.817L134.705 155.431L134.715 155.937L134.774 158.151C134.826 159.064 134.859 159.543 134.868 159.582C134.877 159.623 134.913 160.017 134.976 160.771C134.988 161.35 135.145 161.749 135.456 161.972C135.766 162.194 136.112 162.301 136.491 162.288C136.989 162.274 137.427 162.107 137.815 161.787C138.166 161.486 138.365 161.107 138.413 160.648C138.463 160.189 138.481 159.8 138.477 159.477L138.527 158.057C138.543 156.852 138.559 155.647 138.573 154.443L138.562 153.744C138.575 153.051 138.573 152.211 138.553 151.214C138.518 149.435 138.433 147.623 138.295 145.79C138.304 145.804 138.311 145.815 138.318 145.823C138.324 145.351 138.291 144.576 138.239 143.703C139.737 143.357 141.094 143.458 142.316 144.013C144.244 144.887 145.853 146.201 147.149 147.957C148.381 149.854 149.002 152.16 149.021 154.88L149.022 155.264C149.011 156.57 148.84 157.779 148.515 158.883C148.26 160.022 147.869 161.174 147.344 162.331C146.929 163.237 146.483 164.089 146 164.9Z" fill="#FFF2EA"/>
    <path d="M112.62 144.922C118.207 142.42 124.171 140.441 130.299 138.799C130.889 138.642 131.491 138.485 132.138 138.507C132.784 138.531 133.491 138.762 133.912 139.23C134.436 139.816 134.368 140.614 133.964 141.157C133.56 141.7 132.885 142.039 132.221 142.355C126.278 145.18 119.716 147.206 112.812 148.35L112.62 144.922Z" fill="#FFF2EA"/>
    <defs>
        <clipPath id="clip0">
            <rect width="211" height="209" fill="white" transform="translate(47.166 0.974609) rotate(12.9793)"/>
        </clipPath>
    </defs>
</svg>
