<svg width="251" height="249" viewBox="0 0 251 249" fill="none" xmlns="http://www.w3.org/2000/svg">
<g clip-path="url(#clip0)">
<path d="M95.0559 206.957C83.9568 204.557 73.8602 200.69 65.1143 195.491C63.2938 194.401 61.494 193.373 59.7269 192.352C43.5198 182.986 29.547 174.856 22.5554 150.766C21.5364 147.237 20.1701 134.694 20.3754 130.734C20.5719 126.655 22.5281 116.34 23.9609 111.774C33.3657 81.5936 42.8465 58.5108 58.6927 43.7116C66.4325 36.4465 75.1282 33.1609 82.6227 30.8345C103.539 24.445 124.677 23.2114 143.667 27.3175C146.777 27.9901 149.852 28.829 152.836 29.7647C159.089 31.7551 165.375 33.1144 171.432 34.4241C186.558 37.6949 200.866 40.7886 213.854 52.9999C220.035 58.8059 224.135 64.5682 226.809 71.0666C234.341 89.6441 233.001 122.787 223.565 149.943C218.47 164.629 211.901 177.255 204.575 186.409C197.485 195.266 189.688 200.893 182.028 202.72C148.426 210.719 119.186 212.174 95.0559 206.957Z" fill="#22C79E"/>
<path d="M142.467 32.8623C145.512 33.5207 148.52 34.3454 151.44 35.2669C157.791 37.2786 164.11 38.645 170.199 39.9618C185.031 43.1688 199.077 46.2059 211.579 57.9642C217.416 63.4634 221.273 68.7667 223.703 74.8062C227.129 83.2089 228.612 95.3704 227.952 109.042C227.298 122.367 224.673 136.252 220.529 148.125C215.724 161.946 209.577 173.734 202.755 182.301C196.283 190.362 189.162 195.556 182.184 197.239C148.966 205.206 120.044 206.614 96.2418 201.467C85.3392 199.109 75.4598 195.348 66.8983 190.246C65.0778 189.156 63.2452 188.121 61.4782 187.101C53.4996 182.473 45.9762 178.119 39.7564 172.014C33.171 165.54 28.7132 157.785 25.7358 147.622C24.933 144.837 23.6488 133.183 23.8172 130.027C23.9887 126.697 25.7979 117.221 27.0093 113.362C30.7156 101.452 35.2792 87.6375 41.1265 75.4938C46.6783 63.9247 52.8037 55.0916 59.8845 48.4966C67.0668 41.7494 75.3424 38.6632 82.4735 36.4323C103.083 30.0347 123.804 28.827 142.467 32.8623ZM144.865 21.7721C125.024 17.4819 103.772 18.9232 82.7129 25.3398C74.1938 27.967 65.4709 31.537 57.4867 38.9814C39.8337 55.4795 29.9651 81.1484 20.9104 110.186C19.3369 115.244 17.1593 126.265 16.8867 131.488C16.6293 136.482 18.1224 149.865 19.3282 153.957C27.5551 182.319 44.7951 189.762 63.2834 200.783C72.7016 206.36 83.0186 210.158 93.8558 212.502C121.849 218.555 153.352 215.035 181.694 208.219C198.612 204.158 215.318 183.798 226.467 151.731C235.891 124.631 238.468 88.6209 229.814 67.3051C226.429 59.0275 221.391 53.0045 216.039 47.9583C197.236 30.3103 175.854 31.085 154.198 24.2546C151.115 23.2978 148.008 22.4518 144.865 21.7721Z" fill="white"/>
<path d="M113.707 105.792L113.062 105.653C111.979 105.119 111.035 104.228 110.231 102.98C109.554 101.835 108.983 100.662 108.519 99.4626C107.94 97.8638 107.449 96.3214 107.046 94.8354L106.957 94.5539C106.613 93.2557 106.226 91.4108 105.793 89.0194C105.436 87.0936 105.139 84.9437 104.903 82.5697L104.507 79.3743L103.268 68.9902C103.249 68.9612 103.245 68.9228 103.255 68.8751C103.195 69.037 103.135 69.1988 103.075 69.3607C103.021 69.4987 102.978 69.6393 102.947 69.7825L102.713 70.5187C101.951 72.6521 101.437 74.3393 101.168 75.5801C100.947 76.2567 100.545 77.7684 99.963 80.1153C99.8618 80.4681 99.7234 81.0501 99.548 81.8615L98.7711 85.6276L98.1974 88.8007C98.111 89.4314 97.9126 90.6374 97.6024 92.4187L97.2183 94.0217C96.841 95.1891 96.1754 95.9568 95.2216 96.3251C94.5953 96.5643 94.0078 96.6246 93.459 96.506C93.1487 96.4389 92.716 96.2454 92.1607 95.9255C91.6344 95.5869 91.4203 94.7288 91.5184 93.3512C91.3933 90.9263 91.6094 87.9631 92.1667 84.4618C92.6523 81.8691 93.0371 79.9166 93.3209 78.6041C93.5324 77.6258 93.7678 76.6526 94.0271 75.6845L94.357 74.3321C94.6472 73.2209 95.0445 71.8456 95.5489 70.2061C96.1545 68.2139 96.8411 66.2517 97.6086 64.3195L97.8708 63.6268L98.5644 61.9784L99.2039 60.5805C99.24 60.4135 99.4309 59.9926 99.7766 59.318C100.35 58.1681 101.046 57.3194 101.863 56.7719C102.531 56.3417 103.092 56.1134 103.548 56.087C103.849 56.0773 104.191 56.1137 104.573 56.1963L105.21 56.3714L106.176 56.5804C106.798 56.9396 107.31 57.4001 107.713 57.9619C108.285 58.7848 108.745 59.8335 109.094 61.1079C109.339 62.2849 109.55 63.5045 109.726 64.7666L109.787 65.0046C109.888 65.9256 109.993 66.7101 110.103 67.3583L110.443 69.9422C110.709 71.5984 110.959 73.5632 111.192 75.8366C111.617 79.3006 111.886 81.407 111.998 82.1557C112.328 84.6749 112.614 86.7599 112.856 88.411L113.14 90.0459C113.264 90.972 113.503 92.2351 113.857 93.8352C114.146 95.2715 114.416 96.3292 114.669 97.0083L114.933 95.267C115.104 94.13 115.269 92.7918 115.427 91.2523C115.431 91.0033 115.449 90.745 115.482 90.4774C115.515 90.2098 115.608 89.1434 115.762 87.2782C116.021 84.4618 116.189 82.762 116.265 82.179L116.26 82.0281C116.691 78.6493 117.167 75.7548 117.688 73.3447C117.791 72.8674 117.904 72.4047 118.026 71.9565C118.315 70.6202 118.631 69.5022 118.976 68.6025L119.241 67.7231C119.611 66.7041 120.031 65.6835 120.502 64.6613C120.942 63.7823 121.442 62.9161 122.001 62.0629C123.32 60.3499 124.581 59.1987 125.782 58.6093C126.685 58.1301 127.594 57.9144 128.508 57.9621L129.661 58.174C130.806 58.4217 131.761 59.0902 132.524 60.1795C133 60.9818 133.153 61.7767 132.983 62.5641C132.828 63.28 132.458 63.8369 131.872 64.2348C131.31 64.6379 130.755 64.7801 130.206 64.6614C129.896 64.5944 129.595 64.4293 129.302 64.1661C128.89 63.8772 128.624 63.7198 128.505 63.694C128.218 63.6321 127.884 63.8472 127.503 64.3393L127.46 64.3673C127.041 64.8013 126.663 65.2815 126.324 65.8078C126.009 66.3392 125.655 67.1118 125.261 68.1256C125.192 68.2108 125.018 68.6725 124.736 69.511C124.181 71.0395 123.707 72.7105 123.315 74.524L122.949 76.3931C122.788 77.4824 122.679 78.1582 122.623 78.4207L122.052 82.7934L121.981 83.6399L121.822 85.0668C121.784 85.7079 121.722 86.4563 121.637 87.3121L121.608 87.7929C121.524 88.8738 121.454 89.9454 121.4 91.0076C121.35 92.046 121.279 93.0672 121.187 94.0714C121.087 95.5734 120.963 96.8956 120.816 98.0377C120.716 98.6156 120.573 99.3341 120.388 100.193C119.97 102.126 119.354 103.529 118.541 104.402C117.464 105.568 116.374 106.107 115.269 106.018C114.824 105.996 114.303 105.921 113.707 105.792ZM133.332 102.88C131.423 102.467 129.775 101.486 128.386 99.9369C127.352 98.714 126.648 97.2881 126.276 95.659C125.4 92.5471 125.324 89.3208 126.046 85.9801C126.469 84.0233 127.164 82.1379 128.131 80.3237C128.199 80.2386 128.258 80.1389 128.308 80.0248C128.649 79.374 129.034 78.7455 129.465 78.1393C132.124 74.9675 135.112 73.7403 138.429 74.4575C139.789 74.7516 141.056 75.3627 142.229 76.2908C143.402 77.2189 144.344 78.4091 145.054 79.8615C146.335 82.4864 146.896 85.318 146.739 88.3563C146.693 89.1457 146.562 90.0415 146.345 91.0438C146.221 91.6165 146.059 92.1933 145.858 92.7744C145.38 94.2945 144.775 95.6499 144.043 96.8404C143.121 98.2148 142.261 99.3028 141.463 100.104C140.476 101.09 139.346 101.87 138.073 102.444C136.44 103.065 134.86 103.21 133.332 102.88ZM134.482 96.8712C134.601 96.897 134.882 96.8703 135.323 96.791C135.765 96.7116 136.5 96.0838 137.529 94.9074C137.85 94.5772 138.141 94.2154 138.401 93.822L138.416 93.7504C139.088 92.7218 139.577 91.7908 139.882 90.9576L139.941 90.8579C140.1 90.4677 140.221 90.0817 140.304 89.6999C140.464 88.9602 140.555 88.3056 140.578 87.7361C140.647 86.7268 140.536 85.6788 140.247 84.592C139.986 83.4866 139.653 82.6027 139.246 81.9404C138.393 80.8066 137.667 80.1752 137.071 80.0462C136.426 79.9069 135.715 80.3651 134.938 81.4208C134.184 82.4817 133.567 83.6597 133.087 84.9547C132.763 85.759 132.508 86.5906 132.323 87.4497C131.817 89.7882 131.917 92.1577 132.621 94.5581C133.241 95.9661 133.861 96.7371 134.482 96.8712ZM147.189 107.412C146.593 107.283 145.983 106.927 145.36 106.342C144.766 105.739 144.544 104.804 144.693 103.538C144.866 101.927 145.288 99.5701 145.959 96.468L146.165 95.6883C146.581 93.8799 147.058 92.0221 147.595 90.1151C147.688 89.6855 147.807 89.2492 147.953 88.8062C148.443 86.8888 149.121 84.9624 149.989 83.0269L150.767 81.5091C151.315 80.4785 151.96 79.6314 152.703 78.9677C153.87 77.8462 155.217 77.4505 156.744 77.7808C157.173 77.8737 157.602 78.0288 158.03 78.2461C158.864 78.7763 159.594 79.5586 160.22 80.5931C160.602 81.2503 160.998 82.1351 161.407 83.2476C161.89 84.4763 162.303 85.8019 162.645 87.2247L162.881 88.2124C162.989 88.6355 163.083 89.0679 163.162 89.5097C163.421 90.7396 163.569 91.5583 163.606 91.9659C163.851 93.1429 164.002 94.0001 164.061 94.5373L164.881 99.0609L165.474 97.0158C165.793 95.8859 166.048 94.8795 166.239 93.9965L166.553 92.7157L166.664 92.0279C166.866 91.0972 166.988 90.4742 167.031 90.1589C167.325 88.7987 167.609 87.661 167.882 86.7459L168.214 85.2067L168.287 84.6979C168.359 84.3638 168.467 84.0375 168.611 83.7189C169.329 82.4754 170.178 81.9595 171.156 82.1711C171.944 82.3413 172.476 83.0559 172.753 84.3148C172.822 84.8044 172.833 85.3313 172.786 85.8956C172.739 86.4599 172.713 87.2161 172.708 88.1641C172.701 89.8113 172.578 91.4208 172.338 92.9925L172.12 95.0434C171.992 96.7892 171.767 98.4641 171.445 100.068C171.342 100.545 171.079 101.475 170.655 102.857L170.596 102.957C169.975 105.02 169.074 106.587 167.894 107.655C166.671 108.69 165.308 109.045 163.805 108.719C162.325 108.4 161.168 107.512 160.334 106.058C159.743 105.206 159.227 103.958 158.783 102.313C158.309 100.462 157.841 98.0631 157.379 95.1157C157.368 94.9384 157.335 94.7439 157.281 94.5324C157.255 94.3021 157.034 92.8429 156.616 90.1548C156.626 90.1071 156.622 90.0687 156.603 90.0397C156.456 88.7589 156.221 87.5341 155.899 86.3655L155.838 86.1275L154.275 90.5853C154.244 90.7285 154.204 90.8572 154.154 90.9713C153.795 92.1677 153.468 93.3334 153.173 94.4685C153.101 94.8025 152.8 95.9615 152.271 97.9453C151.679 100.34 151.268 101.95 151.04 102.775L150.417 104.963C150.315 105.316 150.205 105.654 150.085 105.978C149.491 107.223 148.526 107.701 147.189 107.412Z" fill="#FFF2EA"/>
<g clip-path="url(#clip1)">
<path d="M129.1 129.519C131.054 129.942 132.946 130.766 134.875 132.013C139.876 135.247 143.778 142.264 143.975 148.324C144.149 153.549 142.434 159.118 138.486 166.382C135.938 171.071 131.127 174.88 126.23 176.13C124.501 176.56 122.31 176.527 119.892 176.005C116.034 175.17 111.692 173.142 108.293 170.54C105.633 168.538 104.728 166.812 103.055 163.675C102.529 162.679 101.932 161.539 101.199 160.317C99.3794 157.148 100.248 152.304 101.315 147.607C102.743 141.354 106.165 137.114 112.824 133.392C119.339 129.743 124.509 128.527 129.1 129.519ZM130.333 123.82C123.446 122.331 116.697 124.581 110.123 128.269C102.568 132.471 97.6633 137.895 95.7439 146.298C94.4949 151.838 93.3294 158.174 96.2716 163.246C99.2137 168.317 100.139 171.604 104.84 175.162C108.617 178.028 113.665 180.572 118.671 181.654C121.772 182.325 124.839 182.443 127.598 181.743C134.248 180.068 140.288 175.072 143.534 169.16C147.056 162.685 149.971 155.586 149.751 148.094C149.505 140.364 144.804 131.489 138.035 127.094C135.432 125.416 132.872 124.37 130.333 123.82Z" fill="#FFF2EA"/>
<path d="M118.133 163.46C117.669 163.359 117.232 163.135 116.84 162.817C116.362 162.429 116.073 161.873 116.06 161.222C115.986 160.739 115.95 160.316 115.962 159.904C115.942 159.64 115.923 159.377 115.927 159.118C115.921 158.91 115.945 158.681 115.92 158.442L115.936 157.305C115.954 156.868 115.972 156.431 116.014 155.999C116.051 155.592 116.069 155.155 116.087 154.718L116.092 154.693L116.234 153.09C116.321 152.097 116.467 151.065 116.649 149.989L116.919 148.387L116.924 148.363C117.031 147.867 117.114 147.366 117.197 146.865L117.207 146.816C117.62 144.908 117.934 143.575 118.154 142.793L118.248 142.476C118.326 142.233 118.409 141.966 118.512 141.729C118.74 141.026 118.975 140.532 119.202 140.192L119.207 140.167L119.213 140.143C119.494 139.788 119.924 139.57 120.475 139.508C120.917 139.474 121.348 139.489 121.812 139.589C122.295 139.72 122.718 139.889 123.047 140.142C123.506 140.5 123.733 140.99 123.669 141.521C123.653 141.596 123.64 141.774 123.559 142.146C124.443 142.078 125.374 142.149 126.375 142.366C127.181 142.54 127.941 142.808 128.679 143.175C129.491 143.558 130.203 144.049 130.804 144.698C131.919 145.925 132.476 147.368 132.396 149.037C132.368 149.523 132.315 150.005 132.218 150.451C132.026 151.343 131.662 152.198 131.151 153.021L131.146 153.046C130.733 153.657 130.268 154.153 129.756 154.509C129.228 154.94 128.589 155.294 127.874 155.529C127.159 155.763 126.343 155.872 125.494 155.896L125.47 155.891C124.735 155.861 124.016 155.758 123.308 155.605C122.575 155.446 121.902 155.249 121.318 154.993C121.321 155.097 121.185 156.676 121.185 156.676L121.084 158.677L121.017 159.934L120.978 160.47C120.912 161.363 120.853 161.636 120.821 161.785C120.762 162.057 120.654 162.319 120.528 162.551L120.487 162.62L120.422 162.684C120.001 163.215 119.281 163.708 118.133 163.46ZM121.937 150.951C122.132 150.993 122.444 151.086 122.892 151.261L122.917 151.266C123.408 151.476 123.818 151.591 124.135 151.66C124.379 151.712 124.708 151.731 125.101 151.687C125.391 151.646 125.708 151.481 126.057 151.167C126.316 150.912 126.503 150.641 126.61 150.379L126.616 150.354L126.621 150.33C126.829 149.96 126.969 149.549 127.06 149.128C127.137 148.652 127.15 148.239 127.122 147.896C127.003 147.144 126.728 146.644 126.326 146.375L126.307 146.345C126.041 146.158 125.739 146.015 125.354 145.906L125.256 145.885L125.085 145.848L125.091 145.823C125.066 145.818 125.042 145.812 125.017 145.807C124.841 145.795 124.64 145.777 124.464 145.765L124.44 145.76L124.391 145.749C124.033 145.75 123.718 145.785 123.423 145.851C123.369 145.866 123.314 145.88 123.236 145.889C123.014 145.97 122.827 146.008 122.689 146.056C122.469 147.072 122.29 148.018 122.127 148.891L122.038 149.417C121.931 149.912 121.849 150.413 121.766 150.914C121.888 150.94 121.912 150.945 121.937 150.951Z" fill="#FFF2EA"/>
<path d="M121.67 140.363C122.06 140.447 122.362 140.59 122.628 140.777C122.87 140.959 122.998 141.195 122.963 141.472C122.945 141.676 122.851 142.226 122.664 143.094C123.737 142.859 124.933 142.884 126.276 143.174C127.009 143.333 127.72 143.59 128.391 143.917C129.135 144.259 129.779 144.71 130.293 145.288C131.288 146.359 131.755 147.627 131.699 149.067C131.681 149.505 131.615 149.931 131.524 150.352C131.352 151.145 131.029 151.931 130.54 152.655C130.167 153.197 129.767 153.63 129.31 153.972C128.841 154.363 128.292 154.659 127.66 154.86C126.999 155.08 126.286 155.185 125.497 155.17C124.811 155.152 124.141 155.059 123.457 154.911C122.383 154.678 121.463 154.324 120.691 153.872C120.638 154.12 120.585 154.601 120.527 155.341L120.425 156.641L120.319 158.667L120.252 159.924L120.218 160.435C120.152 161.095 120.115 161.502 120.083 161.651C120.04 161.849 119.973 162.042 119.881 162.23C119.505 162.667 118.988 162.815 118.353 162.677C118.011 162.604 117.666 162.425 117.362 162.178C117.033 161.925 116.877 161.58 116.876 161.113C116.796 160.655 116.765 160.207 116.797 159.825C116.772 159.586 116.747 159.347 116.746 159.114C116.745 158.88 116.745 158.647 116.744 158.413L116.779 157.305C116.792 156.893 116.828 156.486 116.846 156.049C116.889 155.617 116.906 155.18 116.924 154.743L117.061 153.165C117.143 152.197 117.289 151.165 117.46 150.138L117.724 148.561C117.837 148.041 117.919 147.54 118.007 147.015C118.415 145.132 118.723 143.824 118.943 143.041L119.037 142.724C119.115 142.482 119.188 142.264 119.266 142.022C119.479 141.393 119.683 140.919 119.87 140.648C120.016 140.446 120.273 140.32 120.636 140.295C120.926 140.254 121.279 140.278 121.67 140.363ZM120.976 151.729L121.025 151.739L121.502 151.661L121.599 151.682C121.624 151.687 121.678 151.673 121.8 151.699C121.971 151.736 122.259 151.824 122.663 151.964C123.203 152.184 123.657 152.334 123.998 152.408C124.316 152.477 124.723 152.487 125.189 152.458C125.661 152.404 126.121 152.167 126.57 151.745C126.9 151.402 127.151 151.067 127.286 150.681C127.534 150.242 127.69 149.757 127.797 149.261C127.896 148.686 127.925 148.199 127.883 147.801C127.715 146.805 127.35 146.13 126.744 145.739C126.41 145.512 126.041 145.328 125.587 145.178L125.544 145.143L125.251 145.079L125.842 145.181L126.228 145.291L126.038 145.224L125.506 145.083C125.384 145.056 125.281 145.06 125.159 145.034C124.909 145.006 124.684 144.983 124.459 144.96L124.404 144.974C123.973 144.959 123.575 145.028 123.225 145.108C123.201 145.103 123.195 145.128 123.147 145.117C122.605 145.259 122.244 145.389 122.047 145.476C121.789 146.665 121.578 147.761 121.413 148.763L121.325 149.288C121.194 150.012 121.063 150.736 120.956 151.465L120.976 151.729ZM122.016 138.881C121.454 138.76 120.925 138.723 120.424 138.796C119.48 138.904 118.923 139.354 118.642 139.708L118.606 139.752L118.571 139.796C118.304 140.205 118.059 140.749 117.789 141.521C117.682 141.783 117.593 142.075 117.51 142.342L117.416 142.659C117.19 143.466 116.852 144.794 116.434 146.726L116.423 146.776L116.412 146.825C116.33 147.326 116.252 147.802 116.15 148.273L116.14 148.323L116.129 148.372L115.865 149.949C115.683 151.025 115.556 152.087 115.445 153.074L115.302 154.678L115.292 154.727L115.281 154.777C115.269 155.189 115.256 155.601 115.219 156.008C115.177 156.44 115.154 156.902 115.141 157.314L115.136 157.339L115.131 157.364L115.096 158.472L115.09 158.496L115.085 158.521C115.085 158.755 115.091 158.964 115.073 159.167C115.068 159.425 115.083 159.714 115.097 160.002C115.084 160.415 115.115 160.862 115.19 161.345C115.233 162.21 115.606 162.965 116.264 163.471C116.767 163.865 117.296 164.135 117.858 164.256C119.03 164.51 120.1 164.171 120.846 163.32L120.952 163.188L121.038 163.025C121.206 162.724 121.329 162.387 121.399 162.065C121.437 161.892 121.476 161.589 121.553 160.646L121.611 160.14L121.616 160.115L121.622 160.09L121.689 158.834L121.795 156.808L121.861 156.148C122.246 156.257 122.631 156.366 123.046 156.456C123.804 156.62 124.577 156.709 125.336 156.744L125.36 156.749L125.385 156.754C126.331 156.751 127.201 156.628 128.001 156.36C128.8 156.092 129.523 155.704 130.115 155.209C130.668 154.784 131.192 154.249 131.646 153.569L131.651 153.544L131.657 153.519C132.232 152.632 132.617 151.678 132.826 150.712C132.933 150.216 132.997 149.685 133.031 149.174C133.105 147.296 132.487 145.659 131.223 144.296C130.584 143.587 129.785 143.025 128.881 142.596C128.093 142.219 127.29 141.915 126.435 141.73C125.703 141.572 125.003 141.498 124.322 141.455C124.325 140.729 123.979 140.084 123.39 139.619C123.112 139.248 122.596 139.033 122.016 138.881ZM124.528 146.531C124.655 146.533 124.777 146.559 124.929 146.566L124.973 146.601L124.967 146.626L125.065 146.647L125.163 146.668C125.451 146.757 125.708 146.864 125.882 147.006L125.901 147.036L125.92 147.066C126.192 147.228 126.315 147.722 126.373 148.046C126.393 148.309 126.372 148.642 126.316 149.019C126.241 149.366 126.123 149.677 125.95 150.003L125.909 150.072L125.869 150.141C125.807 150.309 125.667 150.486 125.496 150.683C125.207 150.958 125.05 150.975 124.995 150.99C124.602 151.034 124.377 151.012 124.255 150.985C124.084 150.948 123.748 150.85 123.158 150.618L123.134 150.613L123.11 150.608C122.944 150.546 122.778 150.484 122.656 150.458C122.715 150.185 122.744 149.932 122.803 149.66L122.809 149.635L122.814 149.61L122.902 149.085C123.033 148.361 123.18 147.563 123.362 146.72C123.387 146.725 123.392 146.701 123.417 146.706C123.495 146.697 123.574 146.688 123.658 146.654C123.875 146.597 124.135 146.576 124.414 146.584L124.528 146.531Z" fill="#FFF2EA"/>
</g>
</g>
<defs>
<clipPath id="clip0">
<rect width="211" height="209" fill="white" transform="translate(44.4688 0.0634766) rotate(12.2012)"/>
</clipPath>
<clipPath id="clip1">
<rect width="54.016" height="58.9919" fill="white" transform="translate(101.933 117.68) rotate(12.2012)"/>
</clipPath>
</defs>
</svg>
