<svg width="245" height="243" viewBox="0 0 245 243" fill="none" xmlns="http://www.w3.org/2000/svg">
    <g clip-path="url(#clip0)">
        <path d="M125.643 209.341C114.464 211.335 103.656 211.592 93.5906 210.102C91.4924 209.785 89.4372 209.518 87.4149 209.244C68.8651 206.732 52.852 204.517 37.2372 184.885C34.9545 182.008 28.9284 170.923 27.6145 167.181C26.2477 163.333 24.1409 153.048 23.7329 148.28C20.9742 116.789 20.9808 91.8347 30.0213 72.1271C34.4231 62.4674 41.2201 56.1262 47.27 51.1284C64.1941 37.2758 83.2809 28.1087 102.408 24.6972C105.54 24.1385 108.703 23.7472 111.82 23.4795C118.36 22.9469 124.691 21.8176 130.792 20.7295C146.027 18.0121 160.438 15.4417 177.09 21.8074C185.013 24.8316 190.994 28.6055 195.934 33.6024C209.956 47.9287 221.3 79.0989 222.881 107.804C223.744 123.324 222.461 137.499 219.16 148.749C215.964 159.635 210.887 167.801 204.494 172.399C176.445 192.558 149.947 205.006 125.643 209.341Z" fill="#22C79E"/>
        <path d="M103.403 30.2825C106.47 29.7355 109.566 29.3561 112.617 29.1001C119.256 28.5499 125.621 27.4147 131.754 26.3206C146.693 23.6562 160.84 21.1329 176.871 27.2635C184.358 30.1349 189.94 33.5766 194.481 38.2413C200.841 44.7137 206.831 55.4015 211.411 68.2999C215.866 80.875 218.709 94.7172 219.383 107.275C220.186 121.885 218.975 135.124 215.916 145.64C212.989 155.555 208.374 163.063 202.557 167.27C174.851 187.252 148.63 199.536 124.656 203.812C113.675 205.771 103.107 206.042 93.2498 204.573C91.1516 204.256 89.0634 203.994 87.0412 203.721C77.9032 202.47 69.2897 201.297 61.2179 198.012C52.6676 194.523 45.5992 189.041 38.986 180.77C37.1857 178.498 31.5727 168.204 30.5302 165.22C29.4248 162.075 27.5005 152.622 27.1559 148.592C26.0626 136.166 25.0393 121.654 25.838 108.199C26.5814 95.3884 28.8942 84.891 32.9408 76.1014C37.0234 67.1324 43.5075 61.1352 49.2576 56.3638C65.8948 42.62 84.6058 33.6352 103.403 30.2825ZM101.41 19.1124C81.4263 22.6767 62.3134 32.079 45.2674 46.011C38.3838 51.6761 31.6695 58.2907 27.1097 68.2091C17.0428 90.1744 17.6593 117.668 20.3077 147.969C20.7725 153.245 22.9427 164.269 24.6737 169.204C26.3318 173.922 32.7942 185.735 35.4633 189.063C53.843 212.178 72.6179 212.517 93.9062 215.693C104.737 217.277 115.723 216.873 126.639 214.926C154.834 209.897 182.641 194.68 206.273 177.614C220.382 167.433 228.106 142.255 226.245 108.356C224.674 79.7073 213.386 45.4153 197.287 28.9815C191.012 22.609 184.065 18.9498 177.197 16.3136C153.102 7.12649 133.615 15.9615 110.987 17.8652C107.772 18.1506 104.576 18.5477 101.41 19.1124Z" fill="white"/>
        <path d="M101.168 105.915C99.7744 106.164 98.356 106.206 96.9131 106.042C93.5365 105.602 90.4206 103.914 87.5654 100.976C86.2747 99.7183 85.0952 98.1803 84.0269 96.3621C82.2379 93.2837 81.0154 89.9058 80.3595 86.2285C80.1152 84.8585 79.9674 83.3349 79.9163 81.6577C79.8489 79.6113 79.9832 77.653 80.3192 75.7827C80.9473 72.7692 81.913 70.3278 83.2163 68.4586C84.1136 67.2322 85.1532 66.1788 86.3354 65.2983C88.1167 64.1622 90.0288 63.412 92.0718 63.0476C95.0761 62.5117 98.0653 62.5862 101.039 63.2709C103.101 63.8455 105.184 65.0983 107.29 67.0292C108.441 68.0637 109.526 69.3459 110.542 70.8757C111.368 72.1668 112.1 73.6978 112.738 75.4687C113.277 76.9598 113.718 78.6667 114.06 80.5895C114.447 83.1741 114.457 85.8011 114.09 88.4705C113.648 91.9716 112.603 95.2207 110.955 98.2177C110.896 98.3027 110.851 98.3975 110.82 98.5023C109.353 100.847 107.83 102.594 106.249 103.744C104.689 104.866 102.995 105.589 101.168 105.915ZM99.796 99.0549C101.551 98.742 103.07 97.5286 104.355 95.4147C104.954 94.4647 105.473 93.3429 105.912 92.0494C106.373 90.6032 106.669 89.4097 106.798 88.469L106.882 87.8961C107.097 86.3202 107.179 84.9043 107.129 83.6486C107.071 82.7662 106.96 81.8683 106.797 80.955C106.587 79.7773 106.28 78.679 105.875 77.66C105.542 76.6282 105.037 75.6024 104.359 74.5825L104.157 74.2838C102.716 72.1848 101.03 70.7248 99.0977 69.9038C97.1914 69.2271 95.2769 69.0602 93.3541 69.4031C91.1429 69.7975 89.3649 71.5778 88.0201 74.744C87.6233 75.8563 87.357 77.1438 87.2211 78.6064C87.1591 79.5102 87.1211 80.4098 87.1072 81.305C87.1362 82.4407 87.2707 83.6814 87.5107 85.0274C87.8665 87.0223 88.4833 89.0202 89.361 91.0212C90.0353 92.4385 90.863 93.7416 91.8438 94.9306C94.6217 98.1303 97.2724 99.5051 99.796 99.0549ZM130.002 97.3873C127.719 97.7945 125.519 97.4924 123.405 96.4808C122.08 95.7252 120.888 94.7473 119.831 93.5471L119.397 92.9921C118.168 91.5249 117.115 89.5801 116.236 87.1576C115.982 86.2855 115.753 85.4211 115.551 84.5644C115.212 82.6657 115.06 80.9073 115.093 79.2893C115.094 77.2061 115.425 74.8903 116.086 72.342C116.674 70.3525 117.258 68.9711 117.839 68.1978C117.986 68.0476 118.204 67.9468 118.492 67.8954C119.381 67.7368 120.44 67.9696 121.667 68.5939C122.914 69.1898 123.608 69.8844 123.75 70.6775C123.823 71.0861 123.715 71.5268 123.428 71.9997C123.155 73.1147 122.977 74.3369 122.891 75.6665C122.797 77.221 122.842 78.7257 123.027 80.1806L123.209 81.4128C123.441 82.7107 123.751 83.821 124.138 84.7439C124.495 85.7714 124.745 86.3345 124.886 86.4332C125.509 87.5621 126.075 88.4407 126.584 89.0692C127.665 90.2651 128.723 90.7708 129.756 90.5865C130.669 90.4236 131.7 89.5951 132.847 88.1009C133.391 87.2598 133.789 86.4325 134.041 85.6188C134.376 84.7159 134.58 83.7743 134.653 82.7941C134.814 81.4757 134.782 80.1796 134.554 78.9057C134.357 77.8001 134.069 76.6735 133.691 75.5258L133.636 75.4241C133.288 74.4446 132.835 73.4342 132.277 72.393C131.637 71.168 131.119 70.2807 130.723 69.7313L130.228 69.0385C129.91 68.6488 129.726 68.3097 129.674 68.0213C129.537 67.2522 129.748 66.5574 130.307 65.9369C130.862 65.2924 131.608 64.8865 132.545 64.7193C134.227 64.4193 135.319 65.1173 135.82 66.8135L136.741 68.4347L137.61 70.1769C138.616 72.4775 139.28 74.2561 139.604 75.5128L140.162 78.0172C140.44 79.5795 140.496 81.2807 140.328 83.121L140.066 84.9904L139.963 85.4552C139.637 87.1006 139.069 88.7146 138.26 90.2973C136.957 92.8609 135.349 94.7597 133.436 95.9936C132.372 96.7041 131.228 97.1687 130.002 97.3873ZM141.042 63.7619C140.993 63.7704 140.631 63.8227 139.954 63.9187C139.276 64.0147 138.659 63.4056 138.102 62.0913L137.723 59.9643C137.646 59.5316 137.602 59.217 137.592 59.0205L137.547 58.7681C137.419 56.6582 138.16 55.4597 139.77 55.1725C140.395 55.061 140.982 55.1547 141.531 55.4535C142.279 55.8906 142.764 56.734 142.987 57.9838C143.149 58.4757 143.269 58.9379 143.346 59.3706C143.512 59.8865 143.651 60.4569 143.763 61.0818C143.81 61.3462 143.821 61.617 143.796 61.8942C143.161 62.925 142.243 63.5475 141.042 63.7619ZM149.329 95.8372C148.176 96.0429 147.089 95.4432 146.07 94.0378C145.113 92.1501 144.105 89.0689 143.044 84.7941L142.731 83.6597C142.351 82.0905 142.146 81.2841 142.113 81.2403C141.439 78.4342 141.007 76.4281 140.816 75.2221C140.542 73.6839 140.354 72.4899 140.252 71.6401C140.156 70.2684 140.379 69.2243 140.921 68.5077C141.408 67.9 142 67.5341 142.697 67.4098C143.586 67.2511 144.383 67.4809 145.089 68.0991C145.644 68.5704 146.001 69.2507 146.159 70.14L146.213 70.6512L146.59 72.5555L147.097 74.7715C147.211 75.2719 147.335 75.7582 147.469 76.2303L148.037 78.584C148.297 79.4802 148.532 80.3807 148.743 81.2854L150.581 87.8393C151.173 89.7673 151.563 91.26 151.752 92.3176C151.723 94.381 150.916 95.5542 149.329 95.8372Z" fill="#FFF2EA"/>
        <g clip-path="url(#clip1)">
            <path d="M191.145 129.71C191.795 132.882 192.028 136.137 191.818 139.355C191.682 141.417 191.273 143.655 189.747 144.975C188.603 145.963 187.046 146.244 185.571 146.489C180.52 147.331 175.466 148.174 170.418 149.015C169.056 149.243 167.629 149.497 166.546 150.377C165.046 151.597 164.572 153.716 163.472 155.328C161.401 158.366 156.844 159.172 153.843 157.034C152.724 156.237 151.8 155.088 150.517 154.63C149.339 154.207 148.062 154.431 146.844 154.661C131.707 157.528 116.567 160.393 101.429 163.26C100.065 163.518 98.6179 163.82 97.6309 164.821C96.6367 165.827 96.3204 167.338 95.6626 168.611C93.5473 172.715 87.2767 173.542 84.1342 170.129C83.4939 169.437 82.969 168.607 82.1962 168.074C80.0006 166.571 77.137 168.158 74.7525 169.762C74.144 170.171 73.3145 169.824 73.1934 169.101L71.6816 160.071C71.1858 160.243 70.6889 160.41 70.1889 160.574C69.0351 153.842 67.6113 147.142 65.9292 140.529C66.478 140.338 67.0211 140.145 67.5599 139.945L66.2451 133.526C67.0383 133.721 67.9815 133.842 69.8435 133.634C77.2156 132.801 87.897 130.018 93.5212 128.655C101.352 126.756 109.25 125.133 117.14 123.509C135.058 119.823 152.972 116.138 170.889 112.447C174.463 111.71 178.364 111.022 181.629 112.77C183.69 113.876 185.206 115.828 186.457 117.85C188.703 121.473 190.287 125.518 191.145 129.71Z" fill="#FFF2EA"/>
            <path d="M67.5601 139.945C67.7248 139.89 67.8885 139.829 68.0522 139.769C73.6841 137.689 79.4488 135.861 85.4048 135.085C88.6853 134.66 91.9927 134.552 95.2755 134.164C98.926 133.733 102.523 132.95 106.116 132.169C129.904 126.991 153.699 121.814 177.493 116.635C178.645 116.388 179.848 116.136 180.98 116.454C182.687 116.929 183.788 118.551 184.648 120.1C187.091 124.517 188.789 129.344 189.648 134.319C189.808 135.242 189.121 136.981 188.416 136.359C186.238 134.429 182.915 134.882 180.057 135.451C172.833 136.887 165.608 138.321 158.384 139.757C156.021 140.23 153.651 140.696 151.323 141.328C148.342 142.13 145.438 143.189 142.538 144.246C138.835 145.597 135.544 147.052 131.791 148.254C129.614 148.949 127.418 149.575 125.202 150.134C119.389 151.606 113.459 152.612 107.487 153.139C105.146 153.348 102.797 153.479 100.446 153.538C94.9391 153.674 89.0261 152.596 84.0577 154.979C80.032 156.911 75.8991 158.611 71.6817 160.071" fill="#22C79E"/>
            <path d="M104.087 139.078C105.773 144.357 107.029 149.803 107.819 155.303C108.054 156.924 108.429 158.86 109.653 159.545C110.249 159.878 110.905 159.811 111.52 159.723C115.482 159.169 119.342 158.067 123.194 156.969C123.873 156.776 124.586 156.557 125.052 155.946C125.826 154.937 125.671 153.254 125.456 151.783C124.588 145.914 123.374 140.083 121.828 134.356C121.482 133.077 121.01 131.649 120.021 131.09C117.496 129.662 112.575 132.133 109.965 132.613C106.44 133.264 102.302 133.058 104.087 139.078Z" fill="#FEF1E9"/>
            <path d="M162.396 127.137C164.081 132.416 165.338 137.861 166.128 143.362C166.362 144.983 166.737 146.919 167.961 147.603C168.558 147.936 169.213 147.869 169.829 147.781C173.793 147.227 177.65 146.125 181.503 145.027C182.181 144.834 182.895 144.615 183.36 144.005C184.135 142.996 183.979 141.312 183.765 139.842C182.894 133.973 181.68 128.142 180.136 122.414C179.79 121.136 179.319 119.707 178.33 119.148C175.805 117.72 170.884 120.191 168.273 120.672C164.747 121.323 160.61 121.117 162.396 127.137Z" fill="#FEF1E9"/>
            <path d="M172.945 126.734C174.022 131.19 174.992 135.741 175.829 140.275C176.079 141.614 176.399 143.22 176.837 143.913C177.049 144.249 177.232 144.268 177.405 144.266C178.503 144.257 179.51 143.788 180.515 143.325C180.693 143.243 180.876 143.146 180.945 142.701C181.06 141.967 180.829 140.589 180.603 139.379C179.7 134.533 178.701 129.679 177.617 124.875C177.375 123.803 177.077 122.596 176.726 122.034C175.829 120.603 174.663 122.056 173.952 122.155C172.991 122.29 171.755 121.668 172.945 126.734Z" fill="#22C79E"/>
            <path d="M170.714 127.191C171.475 131.712 172.377 136.276 173.385 140.776C173.682 142.105 174.018 143.708 173.889 144.517C173.825 144.909 173.665 144.999 173.505 145.064C172.492 145.489 171.382 145.453 170.276 145.422C170.079 145.416 169.873 145.399 169.635 145.017C169.24 144.388 168.911 143.03 168.643 141.828C167.568 137.017 166.579 132.162 165.688 127.319C165.488 126.238 165.285 125.011 165.39 124.356C165.652 122.688 167.295 123.565 167.988 123.377C168.925 123.123 169.811 122.066 170.714 127.191Z" fill="#22C79E"/>
            <path d="M114.644 138.674C115.722 143.13 116.691 147.68 117.528 152.215C117.778 153.554 118.099 155.16 118.536 155.853C118.748 156.189 118.931 156.208 119.104 156.205C120.202 156.197 121.209 155.728 122.214 155.265C122.392 155.183 122.575 155.085 122.644 154.641C122.759 153.907 122.529 152.529 122.302 151.319C121.399 146.472 120.4 141.619 119.316 136.815C119.075 135.743 118.776 134.536 118.425 133.974C117.528 132.543 116.362 133.996 115.651 134.095C114.69 134.23 113.455 133.608 114.644 138.674Z" fill="#22C79E"/>
            <path d="M112.412 139.131C113.173 143.652 114.07 148.217 115.083 152.716C115.38 154.045 115.716 155.647 115.587 156.457C115.524 156.849 115.363 156.939 115.203 157.004C114.19 157.428 113.08 157.393 111.974 157.362C111.778 157.356 111.571 157.339 111.333 156.957C110.938 156.328 110.609 154.97 110.341 153.768C109.266 148.957 108.277 144.102 107.386 139.259C107.186 138.178 106.986 136.951 107.088 136.296C107.35 134.628 108.993 135.505 109.686 135.317C110.623 135.063 111.514 134.005 112.412 139.131Z" fill="#22C79E"/>
            <path d="M94.2392 140.865C94.9808 143.308 95.5498 145.822 95.9332 148.356C96.048 149.101 96.2229 149.995 96.7163 150.327C96.958 150.489 97.2187 150.466 97.4611 150.432C99.0317 150.23 100.553 149.775 102.072 149.32C102.34 149.241 102.619 149.148 102.797 148.876C103.094 148.423 103.011 147.648 102.903 146.974C102.479 144.27 101.92 141.581 101.231 138.931C101.078 138.342 100.869 137.678 100.472 137.407C99.4483 136.72 97.5236 137.786 96.4917 137.973C95.0974 138.229 93.4503 138.084 94.2392 140.865Z" fill="#FFF2EA"/>
            <path d="M130.283 143.737C133.52 142.795 136.846 142.052 140.189 141.522C141.176 141.366 142.355 141.132 142.803 140.542C143.024 140.256 143 139.952 142.968 139.666C142.75 137.833 142.199 136.068 141.646 134.309C141.55 133.998 141.44 133.674 141.082 133.474C140.494 133.142 139.475 133.261 138.581 133.406C135.013 133.985 131.455 134.722 127.95 135.613C127.169 135.811 126.294 136.074 125.926 136.553C124.992 137.771 126.335 139.992 126.546 141.195C126.84 142.814 126.594 144.747 130.283 143.737Z" fill="#FFF2EA"/>
            <path d="M127.921 133.376C131.196 132.621 134.531 131.922 137.853 131.288C138.833 131.101 140.012 130.862 140.532 130.609C140.785 130.484 140.803 130.388 140.81 130.303C140.851 129.736 140.559 129.233 140.264 128.735C140.214 128.648 140.152 128.555 139.831 128.539C139.306 128.511 138.3 128.693 137.41 128.862C133.863 129.542 130.303 130.274 126.775 131.048C125.989 131.222 125.102 131.428 124.679 131.634C123.602 132.158 124.602 132.704 124.641 133.067C124.702 133.548 124.197 134.215 127.921 133.376Z" fill="#FFF2EB"/>
            <path d="M149.095 139.885C152.332 138.943 155.659 138.199 159.002 137.669C159.988 137.513 161.168 137.279 161.616 136.689C161.836 136.403 161.812 136.099 161.781 135.813C161.562 133.98 161.011 132.215 160.459 130.456C160.363 130.146 160.253 129.821 159.895 129.621C159.307 129.289 158.285 129.409 157.394 129.553C153.825 130.133 150.267 130.869 146.762 131.76C145.982 131.958 145.107 132.222 144.739 132.701C143.804 133.919 145.148 136.139 145.359 137.342C145.655 138.961 145.409 140.894 149.095 139.885Z" fill="#FFF2EA"/>
            <path d="M79.6402 152.827C82.8532 151.768 86.1732 150.994 89.5301 150.531C90.5211 150.396 91.7016 150.168 92.1055 149.362C92.3041 148.969 92.2537 148.537 92.194 148.127C91.8123 145.496 91.0967 142.928 90.379 140.363C90.2541 139.912 90.1135 139.436 89.732 139.122C89.105 138.6 88.0789 138.683 87.1805 138.807C83.5985 139.321 80.0415 140.063 76.5517 141.027C75.7745 141.241 74.906 141.538 74.5733 142.188C73.7288 143.846 75.2905 147.132 75.6108 148.868C76.0578 151.21 75.9736 153.947 79.6402 152.827Z" fill="#FFF2EB"/>
            <path d="M146.732 129.523C150.008 128.769 153.343 128.069 156.665 127.435C157.645 127.248 158.823 127.009 159.343 126.757C159.597 126.631 159.615 126.536 159.622 126.45C159.663 125.884 159.37 125.38 159.076 124.882C159.026 124.795 158.963 124.702 158.643 124.686C158.117 124.659 157.111 124.84 156.222 125.009C152.674 125.689 149.115 126.421 145.586 127.195C144.801 127.37 143.914 127.576 143.49 127.782C142.413 128.306 143.414 128.851 143.453 129.214C143.516 129.694 143.011 130.362 146.732 129.523Z" fill="#FFF2EB"/>
            <path d="M93.5631 162.924C93.0842 161.802 92.3174 160.889 91.2559 160.177C90.6664 159.786 90.0172 159.526 89.3124 159.405C88.607 159.281 87.9153 159.29 87.2366 159.429C85.5855 159.767 84.4308 160.743 83.786 162.357C83.6978 162.655 83.6305 162.947 83.5938 163.245C83.593 163.294 83.5865 163.341 83.5679 163.383C83.4557 164.211 83.4755 165.008 83.6352 165.788C83.9068 167.115 84.5206 168.259 85.4864 169.219C85.9531 169.738 86.5337 170.126 87.2298 170.376C88.1515 170.683 89.0835 170.736 90.0326 170.542C90.7918 170.386 91.4919 170.048 92.1324 169.537C92.6093 169.101 92.9871 168.617 93.2631 168.086C93.4891 167.655 93.6859 167.109 93.8578 166.453C93.9817 165.894 94.0118 165.3 93.9584 164.669C93.9458 164.422 93.914 164.187 93.8671 163.958C93.7851 163.558 93.6878 163.215 93.5631 162.924ZM90.8942 165.039L90.885 165.087C90.895 165.44 90.8402 165.86 90.7186 166.351L90.7244 166.379C90.6732 166.566 90.6054 166.751 90.5192 166.925C90.2587 167.531 90.0344 167.892 89.8449 167.998C89.6559 168.107 89.5329 168.168 89.473 168.18C89.1636 168.243 88.7417 168.075 88.2007 167.682C87.4436 166.948 86.9697 166.116 86.7796 165.188C86.7098 164.847 86.6718 164.503 86.679 164.155C86.6666 163.604 86.7391 163.072 86.8986 162.554C87.0602 162.034 87.3014 161.743 87.6212 161.678C87.9177 161.617 88.3626 161.713 88.9619 161.967C89.2692 162.131 89.5838 162.384 89.9091 162.729C90.2313 163.072 90.4672 163.43 90.6199 163.805C90.7104 164.009 90.7896 164.264 90.8498 164.557C90.8812 164.711 90.897 164.867 90.8942 165.039Z" fill="#22C79E"/>
            <path d="M158.329 156.555C157.38 156.749 156.448 156.696 155.526 156.389C154.833 156.138 154.25 155.751 153.783 155.232C152.816 154.27 152.203 153.128 151.932 151.802C151.772 151.021 151.752 150.224 151.867 149.395C151.883 149.354 151.892 149.306 151.892 149.255C151.93 148.96 151.997 148.667 152.082 148.371C152.729 146.753 153.881 145.778 155.532 145.44C156.211 145.301 156.903 145.294 157.608 145.416C158.313 145.537 158.962 145.797 159.552 146.188C160.616 146.899 161.38 147.813 161.862 148.933C161.984 149.225 162.084 149.568 162.166 149.971C162.212 150.197 162.244 150.432 162.257 150.679C162.31 151.31 162.28 151.904 162.156 152.463C161.982 153.119 161.786 153.669 161.562 154.099C161.286 154.63 160.908 155.113 160.431 155.547C159.788 156.061 159.091 156.399 158.329 156.555ZM157.772 154.192C157.832 154.18 157.955 154.122 158.144 154.011C158.333 153.904 158.555 153.544 158.816 152.938C158.902 152.764 158.97 152.582 159.021 152.392L159.015 152.364C159.139 151.872 159.191 151.453 159.184 151.099L159.191 151.052C159.194 150.883 159.178 150.724 159.146 150.571C159.087 150.279 159.01 150.024 158.916 149.818C158.764 149.443 158.53 149.085 158.206 148.742C157.881 148.4 157.569 148.146 157.258 147.98C156.662 147.725 156.215 147.633 155.918 147.693C155.598 147.759 155.357 148.049 155.195 148.568C155.036 149.085 154.963 149.617 154.973 150.168C154.968 150.516 155.003 150.858 155.073 151.201C155.264 152.13 155.738 152.965 156.492 153.696C157.036 154.089 157.465 154.255 157.772 154.192Z" fill="#22C79E"/>
            <path d="M72.7462 163.204C72.9649 164.232 73.0153 164.333 73.2678 165.354C73.349 165.684 73.4547 166.042 73.7877 166.226C74.0433 166.363 74.3869 166.36 74.7038 166.347C76.4409 166.257 78.1778 165.901 79.8069 165.296C80.1951 165.155 80.5962 164.983 80.8598 164.696C81.3217 164.187 81.1968 163.511 81.2304 162.894C81.3454 160.955 83.2916 159.267 85.4327 158.385C87.0536 157.714 88.9666 157.384 90.5546 157.915C91.1484 158.116 91.6719 158.423 92.1549 158.758C93.1366 159.437 93.9899 160.243 94.6858 161.141C94.911 161.434 95.1409 161.75 95.5143 161.906C95.9107 162.069 96.4044 162.019 96.8617 161.964C99.544 161.62 102.207 161.075 104.804 160.345C105.127 160.255 105.454 160.158 105.721 159.968C106.028 159.748 106.208 159.432 106.331 159.119C106.83 157.839 106.525 156.495 106.214 155.229C106.181 155.097 106.142 154.956 106.022 154.875C105.916 154.805 105.764 154.79 105.623 154.78C104.256 154.692 102.876 154.685 101.493 154.759C98.9644 154.901 98.7184 155.168 96.1895 155.255C94.1312 155.324 91.0009 155.028 88.9471 155.305C87.0302 155.562 85.0137 156.14 83.1812 156.757C80.9583 157.505 77.8809 159.517 75.6622 160.258C73.8093 160.868 72.3356 161.305 72.7462 163.204Z" fill="#22C79E"/>
            <path d="M127.21 154.979C127.286 155.272 127.399 155.596 127.705 155.728C127.951 155.835 128.249 155.782 128.52 155.729C135.102 154.479 141.65 153.073 148.165 151.511C148.545 151.419 148.934 151.323 149.242 151.103C149.964 150.584 149.93 149.651 150.08 148.859C150.357 147.383 151.51 146.041 153.001 145.264C154.491 144.485 156.277 144.247 157.933 144.466C159.373 144.653 160.765 145.197 161.672 146.16C162.169 146.692 162.515 147.339 163.096 147.808C163.676 148.272 164.634 148.504 165.291 148.06C166.041 147.557 165.937 146.571 165.755 145.787C165.386 144.213 165.021 142.64 164.652 141.066C164.54 140.582 164.374 140.036 163.864 139.835C163.513 139.695 163.096 139.764 162.712 139.835C157.353 140.797 151.958 141.772 146.847 143.591C144.682 144.359 142.584 145.277 140.458 146.129C137.657 147.255 134.8 148.277 131.914 149.19C130.731 149.563 129.573 149.903 128.353 150.136C127.613 150.28 126.835 150.385 126.585 151.108C126.214 152.181 126.932 153.955 127.21 154.979Z" fill="#22C79E"/>
            <path d="M184.5 136.473C184.266 136.77 184.324 137.197 184.395 137.573C184.715 139.241 185.072 140.905 185.462 142.559C185.514 142.773 185.568 142.997 185.722 143.153C185.963 143.404 186.36 143.399 186.706 143.379C187.691 143.321 188.795 143.209 189.419 142.445C190.081 141.632 189.915 140.449 189.707 139.422C189.573 138.739 189.393 137.993 188.835 137.584C188.463 137.314 187.987 137.238 187.579 137.021C186.747 136.571 185.426 135.289 184.5 136.473Z" fill="#22C79E"/>
            <path d="M75.0105 134.627L70.104 135.645C69.2511 135.82 68.5766 136.058 68.5626 136.188C68.5145 136.588 68.4627 136.984 68.414 137.381C68.4 137.498 68.4094 137.623 68.9007 137.615C69.4894 137.605 70.5379 137.407 71.4677 137.224C79.6467 135.622 87.8557 133.995 95.9897 132.227C99.3172 131.502 103.294 130.731 106.637 130.046C109.329 129.495 111.351 129.013 114.039 128.487C133.061 124.781 150.446 120.971 171.065 116.93C173.13 116.523 175.217 116.131 177.209 115.647C177.705 115.529 178.164 115.4 178.448 115.28C178.787 115.137 178.792 115.041 178.782 114.954C178.751 114.589 178.713 114.22 178.679 113.853C178.667 113.758 178.648 113.662 178.271 113.663C177.371 113.658 175.104 114.193 174.183 114.362C172.424 114.679 170.687 115.032 168.92 115.402C147.305 119.959 126.598 123.823 105.507 128.351C103.11 128.867 100.722 129.393 98.3239 129.906C95.9698 130.41 93.6053 130.902 91.2448 131.389C86.3628 132.407 79.8857 133.615 75.0105 134.627Z" fill="#22C79E"/>
            <path d="M65.9292 140.529L64.9094 135.549C64.7194 134.622 65.3175 133.716 66.2451 133.526L67.5118 137.647L67.5811 140.353L65.9292 140.529Z" fill="#FFF2EA"/>
            <path d="M70.8576 160.217C70.4612 160.429 70.2513 160.876 70.3415 161.317L72.1536 170.165C72.2408 170.591 72.6567 170.865 73.0825 170.778C73.5042 170.692 73.7783 170.283 73.6978 169.86L71.8993 160.417C71.8765 160.297 71.8119 160.189 71.7171 160.113C71.5562 159.983 71.3333 159.962 71.1511 160.059L70.8576 160.217Z" fill="#FFF2EA"/>
        </g>
    </g>
    <defs>
        <clipPath id="clip0">
            <rect width="211" height="209" fill="white" transform="translate(0.290039 37.1483) rotate(-10.113)"/>
        </clipPath>
        <clipPath id="clip1">
            <rect width="124.841" height="42.7212" fill="white" transform="translate(64.5654 133.87) rotate(-11.574)"/>
        </clipPath>
    </defs>
</svg>
