<svg width="231" height="229" viewBox="0 0 231 229" fill="none" xmlns="http://www.w3.org/2000/svg">
<g clip-path="url(#clip0)">
<path d="M111.718 202.316C100.417 203.424 89.6216 202.829 79.7049 200.551C77.6383 200.07 75.6105 199.642 73.616 199.21C55.3215 195.246 39.5325 191.777 25.5116 170.976C23.4626 167.928 18.3277 156.403 17.3125 152.57C16.2528 148.626 14.9623 138.207 14.9309 133.422C14.6599 101.811 16.6309 76.9349 27.1949 58.0002C32.3434 48.717 39.6186 42.9305 46.0431 38.4246C64.0052 25.9473 83.7544 18.3112 103.09 16.416C106.257 16.1056 109.441 15.9646 112.569 15.943C119.131 15.9269 125.532 15.2996 131.699 14.6951C147.101 13.1855 161.67 11.7576 177.768 19.4144C185.428 23.053 191.094 27.286 195.626 32.6563C208.476 48.042 217.331 80.0085 216.648 108.749C216.286 124.289 213.891 138.319 209.715 149.274C205.671 159.874 199.968 167.616 193.232 171.696C163.683 189.584 136.288 199.908 111.718 202.316Z" fill="#22C79E"/>
<path d="M103.643 22.0622C106.743 21.7584 109.86 21.6239 112.921 21.6088C119.583 21.5829 126.017 20.9523 132.218 20.3446C147.32 18.8644 161.622 17.4626 177.12 24.8362C184.359 28.2881 189.652 32.1586 193.812 37.1663C199.643 44.1194 204.772 55.2455 208.323 68.4644C211.774 81.3512 213.518 95.3742 213.202 107.946C212.852 122.574 210.602 135.677 206.726 145.919C203.027 155.573 197.835 162.694 191.705 166.43C162.512 184.17 135.406 194.351 111.169 196.726C100.068 197.814 89.5117 197.253 79.8006 195.013C77.7339 194.531 75.6728 194.106 73.6783 193.674C64.6671 191.707 56.1727 189.861 48.3846 185.95C40.1355 181.799 33.5206 175.778 27.579 167.011C25.9631 164.605 21.178 153.901 20.3736 150.844C19.5192 147.622 18.3451 138.046 18.3189 134.002C18.2071 121.529 18.3295 106.981 20.1849 93.6308C21.9344 80.9184 25.0665 70.6357 29.7925 62.1919C34.5685 53.5722 41.5046 48.104 47.6124 43.8001C65.28 31.4087 84.6402 23.9247 103.643 22.0622ZM102.536 10.7699C82.3333 12.75 62.5395 20.6184 44.4496 33.1653C37.1414 38.2709 29.9273 44.3363 24.6008 53.8651C12.8359 74.9696 11.2862 102.427 11.5409 132.842C11.5889 138.138 12.8846 149.298 14.2216 154.355C15.5032 159.188 21.0156 171.474 23.4144 175.001C39.9174 199.492 58.6073 201.308 79.5795 206.15C90.2517 208.581 101.236 209.044 112.271 207.962C140.774 205.169 169.693 192.187 194.596 177.035C209.462 167.996 219.144 143.504 219.958 109.564C220.647 80.8805 212.093 45.8063 197.338 28.1561C191.584 21.3094 184.946 17.1147 178.308 13.946C155.01 2.89053 134.889 10.1641 112.181 10.2805C108.953 10.3119 105.736 10.4562 102.536 10.7699Z" fill="white"/>
<path d="M95.4607 97.2842C94.0515 97.4223 92.6341 97.3527 91.2087 97.0754C87.8771 96.3716 84.9038 94.443 82.2888 91.2895C81.1011 89.934 80.0463 88.308 79.1245 86.4113C77.5833 83.2016 76.6306 79.738 76.2662 76.0204C76.1305 74.6355 76.1031 73.105 76.1842 71.4289C76.2781 69.3836 76.5661 67.442 77.0483 65.6039C77.9117 62.6492 79.0666 60.2914 80.513 58.5306C81.504 57.3786 82.6234 56.4103 83.8712 55.6257C85.7364 54.6333 87.7017 54.036 89.767 53.8335C92.8042 53.5358 95.7782 53.8454 98.6892 54.7621C100.699 55.4973 102.677 56.9101 104.624 59.0007C105.691 60.1227 106.671 61.4863 107.564 63.0914C108.285 64.4435 108.894 66.0274 109.391 67.843C109.811 69.3719 110.116 71.1082 110.306 73.052C110.488 75.659 110.291 78.2786 109.715 80.9108C108.999 84.3663 107.702 87.5231 105.823 90.3811C105.757 90.4611 105.705 90.5521 105.666 90.6541C104.019 92.8761 102.363 94.498 100.697 95.5199C99.0527 96.5151 97.3074 97.1032 95.4607 97.2842ZM94.6327 90.3372C96.4064 90.1633 98.0167 89.0733 99.4637 87.0672C100.136 86.1672 100.742 85.0898 101.281 83.8349C101.855 82.4295 102.243 81.263 102.447 80.3354L102.575 79.7708C102.914 78.2167 103.107 76.8118 103.156 75.5559C103.167 74.6717 103.128 73.7679 103.037 72.8446C102.921 71.654 102.7 70.5349 102.377 69.4872C102.126 68.4324 101.703 67.37 101.108 66.2999L100.93 65.9862C99.6589 63.7803 98.0927 62.1921 96.2314 61.2216C94.3843 60.3969 92.4889 60.0797 90.545 60.2703C88.3097 60.4894 86.397 62.1242 84.8071 65.1746C84.324 66.2523 83.9571 67.5148 83.7065 68.9622C83.5735 69.8583 83.4649 70.7521 83.3805 71.6435C83.32 72.7778 83.3564 74.0254 83.4898 75.386C83.6874 77.4027 84.145 79.443 84.8624 81.5069C85.4231 82.9729 86.1456 84.3371 87.0298 85.5997C89.5471 89.0081 92.0814 90.5872 94.6327 90.3372ZM124.876 91.0526C122.568 91.2789 120.399 90.8045 118.371 89.6296C117.109 88.772 115.999 87.7034 115.039 86.4237L114.65 85.8362C113.541 84.2769 112.644 82.2552 111.959 79.7711C111.773 78.8816 111.613 78.0019 111.479 77.1319C111.291 75.2124 111.277 73.4475 111.438 71.8372C111.603 69.7605 112.115 67.4779 112.975 64.9896C113.717 63.0525 114.409 61.7214 115.049 60.9963C115.207 60.8581 115.432 60.7747 115.724 60.7462C116.623 60.6581 117.659 60.9735 118.834 61.6924C120.03 62.3847 120.668 63.1318 120.746 63.9336C120.787 64.3466 120.645 64.7776 120.321 65.2263C119.962 66.3164 119.687 67.5208 119.498 68.8395C119.281 70.3817 119.207 71.8853 119.277 73.3503L119.362 74.593C119.491 75.9051 119.712 77.0364 120.026 77.9868C120.301 79.0393 120.505 79.6203 120.638 79.7298C121.171 80.9042 121.666 81.8247 122.123 82.4912C123.107 83.7686 124.121 84.356 125.166 84.2536C126.09 84.1631 127.182 83.4183 128.443 82.019C129.052 81.2234 129.514 80.43 129.829 79.6386C130.234 78.7649 130.511 77.8423 130.661 76.8709C130.926 75.5693 130.996 74.2746 130.869 72.9868C130.76 71.8691 130.562 70.7233 130.275 69.5494L130.228 69.4437C129.958 68.4398 129.586 67.3969 129.112 66.315C128.57 65.0434 128.124 64.1181 127.772 63.5393L127.333 62.8096C127.047 62.3961 126.89 62.0435 126.861 61.752C126.785 60.9744 127.05 60.2984 127.656 59.7238C128.26 59.125 129.035 58.7791 129.983 58.6863C131.684 58.5196 132.717 59.3014 133.083 61.0318L133.874 62.7205L134.603 64.5257C135.424 66.8983 135.946 68.7237 136.17 70.0019L136.529 72.5425C136.684 74.1218 136.605 75.8222 136.293 77.6435L135.885 79.4866L135.746 79.9418C135.291 81.5564 134.598 83.1207 133.667 84.6347C132.166 87.0878 130.413 88.8541 128.409 89.9336C127.293 90.5582 126.115 90.9312 124.876 91.0526ZM138.529 58.4006C138.48 58.4054 138.114 58.429 137.432 58.4714C136.749 58.5137 136.182 57.8579 135.73 56.5039L135.519 54.3536C135.476 53.9162 135.458 53.5992 135.463 53.4024L135.438 53.1473C135.476 51.0339 136.309 49.8974 137.937 49.7378C138.569 49.6759 139.147 49.8155 139.671 50.1566C140.382 50.6512 140.799 51.5302 140.923 52.7937C141.046 53.2968 141.128 53.767 141.171 54.2044C141.297 54.7318 141.39 55.3113 141.452 55.9431C141.478 56.2104 141.468 56.4812 141.421 56.7556C140.708 57.7332 139.743 58.2816 138.529 58.4006ZM144.265 91.0289C143.099 91.1432 142.063 90.4597 141.158 88.9785C140.352 87.0213 139.59 83.8702 138.87 79.5252L138.646 78.3697C138.392 76.7755 138.25 75.9554 138.221 75.9092C137.77 73.0587 137.497 71.0249 137.402 69.8076C137.25 68.2525 137.156 67.0474 137.121 66.1923C137.134 64.8173 137.438 63.794 138.035 63.1222C138.568 62.5548 139.187 62.2366 139.891 62.1675C140.79 62.0794 141.567 62.3712 142.222 63.043C142.738 63.5566 143.04 64.2629 143.128 65.1619L143.142 65.6757L143.368 67.6038L143.699 69.8528C143.773 70.3607 143.858 70.8552 143.954 71.3364L144.336 73.7276C144.524 74.6413 144.687 75.5575 144.826 76.476L146.143 83.1543C146.581 85.1229 146.853 86.6418 146.958 87.7109C146.766 89.7657 145.869 90.8717 144.265 91.0289Z" fill="#FFF2EA"/>
<path d="M97.2852 172.949C95.1789 173.156 93.1536 172.69 91.2088 171.547C89.7356 170.627 88.5401 169.382 87.6144 167.823C85.6801 164.896 84.533 161.584 84.1708 157.889C83.9588 155.727 84.05 153.544 84.447 151.347C84.4902 151.234 84.5189 151.111 84.5308 150.979C84.6684 150.193 84.8546 149.417 85.0998 148.645C86.7911 144.482 89.4668 142.222 93.1221 141.864C94.6218 141.717 96.1317 141.928 97.65 142.5C99.1657 143.07 100.532 143.987 101.748 145.255C103.939 147.545 105.455 150.289 106.299 153.483C106.512 154.316 106.673 155.286 106.781 156.394C106.843 157.027 106.866 157.676 106.853 158.346C106.862 160.078 106.685 161.68 106.327 163.155C105.835 164.882 105.306 166.292 104.751 167.386C104.061 168.733 103.151 169.916 102.03 170.929C100.552 172.109 98.9685 172.784 97.2852 172.949ZM96.4784 166.355C96.6083 166.342 96.89 166.22 97.3197 165.992C97.7494 165.765 98.301 164.868 98.9712 163.313C99.1919 162.866 99.3716 162.395 99.5109 161.902L99.5032 161.823C99.8542 160.539 100.049 159.413 100.09 158.448L100.119 158.326C100.153 157.868 100.151 157.432 100.109 157.007C100.029 156.19 99.9055 155.483 99.7407 154.885C99.4755 153.817 99.022 152.763 98.373 151.722C97.7285 150.68 97.0811 149.885 96.4439 149.332C95.1886 148.445 94.2305 148.031 93.5746 148.095C92.8651 148.165 92.2881 148.872 91.8488 150.223C91.4091 151.57 91.1576 152.994 91.09 154.494C91.0217 155.434 91.035 156.378 91.1283 157.329C91.3819 159.917 92.2696 162.334 93.7939 164.582C94.8993 165.829 95.7935 166.422 96.4784 166.355Z" fill="#FFF2EA"/>
<path d="M151.363 137.776C150.828 135.844 150.172 134.157 149.394 132.723C148.429 131.019 147.372 129.566 146.22 128.375C144.113 126.154 141.975 124.651 139.799 123.874C136.647 122.904 133.431 122.58 130.14 122.902C127.902 123.122 125.772 123.76 123.752 124.821C123.558 124.944 123.37 125.078 123.182 125.202C122.641 124.342 122.088 123.502 121.531 122.677C120.973 121.853 120.49 121.166 120.08 120.607L119.689 120.03C118.986 119.055 118.276 118.085 117.573 117.11L116.714 115.981C116.536 115.714 116.292 115.412 115.991 115.066C115.954 115.025 115.914 114.99 115.879 114.958C115.717 114.729 115.483 114.531 115.174 114.362C114.83 114.12 114.008 113.878 113.167 114.588C112.324 115.302 109.411 119.998 110.139 122.912C110.147 122.952 110.405 123.946 111.856 124.107C111.998 124.122 112.12 124.122 112.232 124.111C112.585 124.076 112.81 123.93 112.947 123.796C113.326 123.42 113.285 122.893 113.282 122.864C113.281 122.848 113.275 121.407 114.408 119.113C114.443 119.171 114.476 119.226 114.516 119.288L115.741 121.132L116.023 121.549L116.927 122.884L119.559 126.766C119.789 127.112 120.008 127.452 120.236 127.798C120.195 127.843 120.154 127.885 120.113 127.93C120.069 127.984 120.029 128.042 119.985 128.096C119.952 128.133 119.917 128.169 119.881 128.211C119.85 128.243 119.822 128.282 119.797 128.318C118.33 130.191 117.701 131.635 116.998 132.943L116.679 133.679C116.338 134.397 115.577 136.386 114.871 138.568C114.212 140.606 113.352 143.058 112.598 145.141C112.348 145.814 111.944 147 111.386 148.688C111.218 148.4 111.075 148.163 110.962 147.98C110.063 146.488 109.141 145.051 108.189 143.662C107.68 142.923 107.242 142.301 106.872 141.802L106.516 141.283C105.874 140.406 105.23 139.531 104.588 138.654L103.876 137.725C104.604 137.642 105.391 137.576 106.252 137.533C106.479 137.544 107.695 137.57 108.347 136.857C108.565 136.617 108.803 136.193 108.713 135.529C108.704 135.274 108.561 134.314 106.932 134.069C105.517 133.858 97.8176 134.504 95.1385 136.798C94.7814 137.098 94.3241 137.942 95.1432 138.99C95.5724 139.542 96.116 139.67 96.5749 139.625C96.9129 139.592 97.2103 139.468 97.395 139.345C97.4098 139.335 98.3841 138.808 100.417 138.315C100.461 138.396 100.508 138.482 100.569 138.573C100.914 139.163 101.098 139.471 101.112 139.505C101.127 139.538 101.353 139.907 101.792 140.607L102.908 142.265L103.166 142.64L103.991 143.838L105.138 145.513C104.712 145.708 104.311 146.012 103.953 146.309C102.47 147.544 100.981 148.775 99.4978 150.009C98.697 150.578 97.6467 151.413 96.3447 152.517C95.5318 153.261 95.0597 153.678 94.9192 153.767L94.6817 153.995C94.2571 154.367 93.8636 154.756 93.5027 155.155C93.305 155.328 93.0529 155.615 92.7511 156.017C92.2522 156.715 92.0586 157.299 92.1692 157.758C92.2182 157.959 92.2901 158.162 92.3803 158.368C92.516 158.669 92.6039 158.85 92.6483 158.911C92.6904 158.973 92.8368 159.083 93.082 159.232L93.1397 159.268C93.512 159.446 93.9072 159.536 94.3235 159.54C95.0022 159.548 96.0071 159.425 97.3336 159.171C98.1017 159.03 98.6199 158.945 98.902 158.917C100.069 158.744 100.834 158.642 101.188 158.607C102.294 158.549 103.216 158.524 103.954 158.535C104.967 158.547 106.128 158.627 107.431 158.784C107.583 158.81 107.737 158.833 107.894 158.845L110.038 159.139C110.602 159.228 111.064 159.192 111.422 159.033C111.595 158.955 111.736 158.848 111.856 158.71C112.001 158.556 112.1 158.388 112.157 158.215C112.244 158.041 112.348 157.807 112.479 157.503L112.796 156.704C113.446 154.895 113.886 153.72 114.12 153.177L115.086 150.701C115.309 150.114 115.539 149.529 115.787 148.953L115.803 148.956C116.321 152.003 117.232 154.886 118.551 157.593C119.546 159.608 120.682 161.336 121.967 162.779C124.793 166.129 128.011 168.177 131.618 168.918C133.16 169.212 134.695 169.28 136.224 169.131C138.225 168.934 140.122 168.299 141.917 167.223C143.71 166.148 145.503 164.425 147.291 162.057C147.334 161.949 147.391 161.853 147.459 161.767C149.497 158.725 150.91 155.359 151.693 151.68C152.32 148.88 152.539 146.087 152.347 143.318C152.144 141.249 151.814 139.399 151.363 137.776ZM109.705 154.272C109.609 154.81 109.434 155.442 108.914 155.608C108.895 155.615 108.87 155.613 108.85 155.619C108.249 155.529 107.631 155.454 106.997 155.387L106.416 155.34C104.97 155.206 103.561 155.17 102.174 155.227C101.311 155.276 100.755 155.317 100.512 155.356C99.6071 155.436 98.7092 155.567 97.8275 155.748L97.4953 155.794C97.5804 155.741 97.7407 155.601 97.9692 155.373C98.3804 155.002 98.8099 154.635 99.2508 154.269C100.563 153.132 102.024 152.037 103.636 150.982L103.881 150.829C104.408 150.493 104.785 150.275 105.014 150.169L105.46 149.927C105.669 149.825 105.88 149.716 106.099 149.595C106.365 149.449 106.645 149.336 106.912 149.197C107.041 149.2 107.171 149.23 107.302 149.299C107.65 149.484 107.88 149.827 108.093 150.159C108.487 150.764 108.879 151.37 109.274 151.971C109.473 152.272 109.671 152.583 109.759 152.934C109.86 153.378 109.782 153.835 109.705 154.272ZM144.598 145.996C144.544 147.334 144.333 148.828 143.96 150.483L143.822 151.082C143.602 152.068 143.175 153.313 142.553 154.809C141.968 156.145 141.308 157.294 140.579 158.254C139.008 160.392 137.262 161.555 135.341 161.744C132.577 162.015 129.837 160.34 127.115 156.715C126.161 155.373 125.379 153.922 124.775 152.364C123.999 150.171 123.511 147.997 123.3 145.853C123.159 144.407 123.123 143.077 123.19 141.868C123.282 140.919 123.404 139.969 123.548 139.015C123.822 137.474 124.219 136.131 124.746 134.981C124.776 134.924 124.805 134.871 124.836 134.819L125.397 135.722C125.882 136.479 126.362 137.25 126.832 138.033L129.251 142.056L130.083 143.439L130.345 143.872L131.502 145.761C132.004 146.525 132.271 146.924 132.299 146.953C132.327 146.984 132.555 147.307 132.986 147.929C133.286 148.424 133.622 148.692 134.003 148.729C134.381 148.767 134.735 148.687 135.057 148.486C135.481 148.225 135.777 147.861 135.953 147.39C136.107 146.955 136.09 146.527 135.901 146.105C135.715 145.682 135.537 145.336 135.372 145.058L134.706 143.804C134.117 142.752 133.528 141.7 132.94 140.65L132.58 140.051C132.245 139.444 131.824 138.717 131.308 137.863C130.388 136.34 129.409 134.813 128.375 133.294C128.389 133.302 128.401 133.308 128.41 133.311C128.18 132.9 127.763 132.245 127.283 131.514C128.407 130.466 129.633 129.876 130.969 129.745C133.075 129.539 135.126 129.873 137.126 130.746C139.141 131.774 140.832 133.461 142.207 135.808L142.4 136.139C143.043 137.276 143.5 138.409 143.77 139.528C144.118 140.642 144.355 141.834 144.479 143.099C144.572 144.091 144.612 145.052 144.598 145.996Z" fill="#FFF2EA"/>
<path d="M105.702 145.374C109.29 140.415 113.467 135.72 117.954 131.235C118.386 130.804 118.83 130.368 119.401 130.063C119.972 129.761 120.701 129.608 121.298 129.803C122.046 130.048 122.386 130.774 122.307 131.446C122.228 132.118 121.813 132.749 121.396 133.355C117.66 138.772 112.99 143.806 107.581 148.248L105.702 145.374Z" fill="#FFF2EA"/>
</g>
<defs>
<clipPath id="clip0">
<rect width="211" height="209" fill="white" transform="translate(0.30957 20.7893) rotate(-5.59781)"/>
</clipPath>
</defs>
</svg>
