<svg width="277" height="255" viewBox="0 0 277 255" fill="none" xmlns="http://www.w3.org/2000/svg">
    <g clip-path="url(#clip0)">
        <path d="M106.618 209.646C94.194 206.959 82.8507 202.823 72.9793 197.38C70.9242 196.239 68.8938 195.162 66.9001 194.092C48.6139 184.276 32.8472 175.759 24.4644 151.367C23.2421 147.795 21.4108 135.151 21.5418 131.175C21.6601 127.079 23.5851 116.757 25.0687 112.203C34.8017 82.093 44.7945 59.1209 62.0828 44.6336C70.5261 37.5206 80.1324 34.4319 88.4241 32.2778C111.568 26.3701 135.086 25.6511 156.343 30.2474C159.824 31.0002 163.27 31.9194 166.618 32.9336C173.633 35.0889 180.67 36.6104 187.45 38.0765C204.381 41.7376 220.397 45.2007 235.166 57.7973C242.196 63.7867 246.906 69.6808 250.044 76.2798C258.894 95.1421 258.218 128.429 248.375 155.497C243.062 170.135 236.055 182.667 228.12 191.689C220.44 200.418 211.892 205.883 203.403 207.53C166.167 214.744 133.628 215.486 106.618 209.646Z" fill="#22C79E"/>
        <path d="M155.142 35.7921C158.55 36.5291 161.923 37.4324 165.198 38.4308C172.322 40.6098 179.396 42.1393 186.212 43.6133C202.814 47.2031 218.537 50.6028 232.755 62.732C239.393 68.4045 243.82 73.8312 246.676 79.9628C250.7 88.4947 252.652 100.758 252.254 114.486C251.855 127.866 249.272 141.76 244.949 153.595C239.937 167.37 233.379 179.07 225.99 187.514C218.978 195.459 211.174 200.504 203.441 202.025C166.632 209.214 134.447 209.917 107.803 204.156C95.5993 201.517 84.5005 197.492 74.837 192.152C72.782 191.011 70.7149 189.925 68.7212 188.856C59.7187 184.007 51.2299 179.444 44.1504 173.153C36.6543 166.483 31.497 158.576 27.9294 148.286C26.9664 145.466 25.2484 133.718 25.3582 130.549C25.4672 127.206 27.249 117.724 28.5034 113.874C32.3387 101.992 37.082 88.2163 43.2968 76.1521C49.1963 64.6582 55.8024 55.929 63.5281 49.4735C71.3631 42.8674 80.5063 39.9688 88.3955 37.9019C111.198 31.9783 134.252 31.2751 155.142 35.7921ZM157.54 24.7019C135.331 19.8996 111.691 20.8246 88.3888 26.7561C78.963 29.1873 69.3334 32.5611 60.6222 39.8484C41.363 55.9992 31.002 81.5616 21.6307 110.53C20.0025 115.576 17.8483 126.603 17.6734 131.847C17.5099 136.862 19.5031 150.353 20.9474 154.496C30.8118 183.213 50.2013 191.12 71.0696 202.656C81.6994 208.495 93.2865 212.567 105.417 215.19C136.752 221.966 171.76 219.204 203.167 213.052C221.913 209.385 240.022 189.329 251.652 157.366C261.483 130.354 263.466 94.2152 253.299 72.5724C249.324 64.1671 243.563 57.9878 237.477 52.7827C216.094 34.577 192.293 34.8286 167.999 27.4278C164.541 26.3898 161.058 25.4627 157.54 24.7019Z" fill="white"/>
        <path d="M76.2153 103.345C75.6187 103.216 75.0473 102.855 74.5011 102.262C73.9735 101.699 73.7423 100.862 73.8075 99.7519C73.7533 98.6161 73.7672 97.57 73.8491 96.6136C73.8298 96.0099 73.8437 95.426 73.8908 94.8616C73.9378 94.2973 73.9756 93.7185 74.004 93.1251L74.2188 90.399C74.311 89.3948 74.4203 88.3694 74.5468 87.3227C74.6732 86.2759 74.7809 85.2002 74.8699 84.0954L75.3759 80.1958C75.6958 77.7921 76.0867 75.2914 76.5485 72.6936L77.2412 68.7969C77.5147 67.5322 77.7643 66.2623 77.9901 64.9873C78.9962 60.3341 79.7586 57.0394 80.2771 55.1033L80.4832 54.3236C80.6361 53.7322 80.8128 53.1459 81.0134 52.5649C81.4835 50.968 81.906 49.8229 82.2807 49.1296C82.5903 48.6221 83.0598 48.299 83.6893 48.1603C84.3239 47.9978 84.9753 47.9888 85.6434 48.1332C86.3064 48.3016 86.8404 48.6044 87.2454 49.0417C87.6795 49.4602 87.8507 49.9968 87.7591 50.6514C87.6985 51.1629 87.436 52.4924 86.9716 54.64C88.9083 53.8848 91.034 53.7575 93.3487 54.258C94.6373 54.5366 95.853 55.0368 96.9958 55.7585C98.2631 56.4821 99.3176 57.4969 100.159 58.8029C101.749 61.2698 102.382 64.2917 102.058 67.8685C101.95 68.9443 101.783 70.0071 101.556 71.0571C101.128 73.0377 100.434 74.9734 99.4759 76.8644C98.7265 78.251 97.9332 79.3783 97.0961 80.2464C96.228 81.2576 95.2025 82.0725 94.0197 82.691C92.8369 83.3095 91.5454 83.6796 90.1452 83.8015C88.9379 83.8402 87.7496 83.7331 86.5804 83.4803C84.7191 83.0778 83.1354 82.3732 81.8295 81.3664C81.7005 81.963 81.526 83.1742 81.306 85L80.9113 88.2118L80.3956 93.1958L80.0676 96.2722L79.9041 97.5482C79.7067 99.1541 79.5642 100.16 79.4765 100.566C79.3681 101.067 79.2146 101.546 79.016 102.002C78.2704 103.14 77.3368 103.587 76.2153 103.345ZM87.8835 77.2802C88.4562 77.404 89.1486 77.3789 89.9606 77.2048C90.8016 77.012 91.669 76.3503 92.5629 75.2197C93.1988 74.3581 93.6796 73.4629 94.0053 72.5342C94.502 71.3927 94.8818 70.2134 95.145 68.9964C95.3965 67.6021 95.5181 66.4044 95.5097 65.4035C95.3795 63.0024 94.8181 61.3823 93.8256 60.5432C93.2877 60.0273 92.6353 59.6364 91.8685 59.3707L91.8047 59.3194L91.3036 59.2111L92.3493 59.3997L93.0217 59.5826L92.6792 59.4336L91.7563 59.1966C91.5602 59.1791 91.3548 59.1472 91.1401 59.1008C90.7241 59.0608 90.3149 59.0472 89.9124 59.0601L89.8331 59.0804C89.0708 59.1404 88.3713 59.3139 87.7348 59.6009C87.7058 59.6196 87.6674 59.6238 87.6197 59.6135C86.6452 60.0772 85.9838 60.4212 85.6355 60.6457C84.9957 63.6046 84.4484 66.3088 83.9937 68.7583L83.7509 70.0546C83.3878 71.8495 83.063 73.6401 82.7766 75.4266L82.6808 76.0428L82.7524 76.0583L83.597 75.7913L83.776 75.83C83.805 75.8113 83.9149 75.8226 84.1058 75.8639C84.3922 75.9258 84.8898 76.1083 85.5985 76.4114C86.5253 76.8616 87.287 77.1512 87.8835 77.2802ZM116.499 106.435C116.308 106.394 116.132 106.343 115.97 106.283C115.808 106.223 115.587 105.976 115.306 105.54L115.064 104.926C114.745 104.208 114.52 103.11 114.39 101.633C114.397 101.485 114.39 101.346 114.368 101.216C114.283 99.2993 114.346 97.2149 114.559 94.9628C114.599 94.5468 114.66 94.1479 114.742 93.7661L114.604 93.8861C112.792 95.5674 110.962 96.6954 109.114 97.27L109.078 97.2622C107.682 97.7098 106.293 97.784 104.909 97.4847C102.809 97.0306 101.213 95.8613 100.122 93.9768C98.7586 91.7337 98.4768 88.7628 99.2766 85.0641C100.262 81.4305 102.054 78.2836 104.653 75.6233C106.006 74.2173 107.361 73.149 108.718 72.4183C108.743 72.299 109.438 71.9746 110.801 71.4451C112.689 70.8041 114.697 70.7013 116.825 71.1366C118.353 71.4668 119.576 72.106 120.495 73.0541C120.708 73.225 120.954 73.5281 121.235 73.9634C121.23 73.9873 121.239 74.0018 121.263 74.007C121.701 74.7512 121.854 75.4336 121.719 76.054C121.652 76.3642 121.585 76.5619 121.516 76.647C121.448 76.7321 121.353 76.824 121.232 76.9227C120.694 77.331 119.483 77.3313 117.597 76.9236L117.132 76.823C115.915 76.5599 114.769 76.487 113.695 76.6043C112.222 77.0603 110.788 77.9741 109.393 79.3459C107.348 81.5264 105.991 83.9307 105.323 86.5588C105.085 87.6565 105.036 88.6949 105.174 89.6739C105.31 90.7774 105.748 91.4091 106.487 91.569C107.156 91.7135 108.289 91.3217 109.889 90.3937C109.894 90.3698 109.909 90.3605 109.932 90.3656C110.648 89.9458 111.747 89.1345 113.231 87.9317L114.228 87.1355C114.515 86.8479 114.809 86.5867 115.109 86.3519C115.41 86.1172 115.689 85.8653 115.947 85.5964L116.567 84.9811C116.65 84.5993 116.79 84.1801 116.989 83.7235C117.234 83.0521 117.504 82.4362 117.8 81.8758L118.254 81.337C118.591 80.9352 119.189 80.8271 120.048 81.0129C120.286 81.0645 120.591 81.1554 120.963 81.2857C121.791 81.6146 122.156 82.0058 122.058 82.4592L121.976 82.6662C121.971 82.6901 121.977 82.7165 121.996 82.7455C122.039 82.7797 122.097 82.8549 122.172 82.971C122.231 83.1586 122.22 83.4434 122.137 83.8252L121.885 84.8197L121.067 88.4271C120.68 90.2168 120.421 91.6469 120.289 92.7175C120.197 93.1471 120.062 94.117 119.885 95.6275C119.766 97.1005 119.716 98.0263 119.734 98.4049C119.646 100.084 119.653 101.61 119.756 102.981L119.786 103.362C119.866 103.804 119.873 104.23 119.809 104.641C119.613 105.548 119.114 106.126 118.31 106.377C117.723 106.55 117.119 106.569 116.499 106.435ZM116.326 81.0699C116.307 81.0409 116.274 81.0212 116.227 81.0109C116.203 81.0057 116.179 81.0006 116.155 80.9954C116.131 80.9903 116.122 80.9758 116.127 80.9519L116.257 80.8677C116.281 80.8729 116.291 80.8874 116.286 80.9113C116.309 80.9164 116.316 80.9429 116.306 80.9906C116.325 81.0196 116.331 81.0461 116.326 81.0699ZM132.989 122.702C131.462 122.372 129.97 121.65 128.512 120.535C127.855 119.994 127.278 119.369 126.781 118.662C126.749 118.581 126.702 118.508 126.641 118.445C126.403 118.044 126.194 117.624 126.014 117.185C125.351 115.518 125.158 114.04 125.437 112.752C125.586 112.06 125.853 111.405 126.236 110.789C127.155 109.888 128.127 109.549 129.154 109.771C129.225 109.787 129.554 109.883 130.14 110.059C130.727 110.236 131.22 111.017 131.619 112.402C131.626 112.604 131.618 112.814 131.595 113.034L131.487 113.535C131.713 115.607 132.506 116.791 133.867 117.085C133.938 117.1 134.364 117.155 135.143 117.248C135.94 117.371 136.729 116.267 137.507 113.938L137.736 113.051C138.067 111.523 138.286 110.222 138.393 109.146C138.435 108.955 138.531 108.277 138.683 107.111L139.134 102.6L139.182 101.861C138.413 102.644 137.508 103.247 136.467 103.672C135.064 104.268 133.659 104.413 132.251 104.109C130.366 103.701 128.792 102.836 127.529 101.514C126.541 100.426 125.789 99.1647 125.275 97.7297L125.199 97.5633C124.582 95.6814 124.243 93.4351 124.183 90.8244C124.173 89.0237 124.359 87.2405 124.741 85.4746L125.334 82.9052C125.775 81.3271 126.301 79.8173 126.912 78.3758C128.612 75.0216 130.512 73.5714 132.612 74.0255C133.28 74.17 133.831 74.564 134.267 75.2077C134.782 75.9436 134.921 76.8604 134.684 77.958C134.575 78.4591 134.385 78.9925 134.113 79.5581C133.798 80.0895 133.363 81.1195 132.808 82.648C132.358 84.1494 132.043 85.3177 131.863 86.1529C131.718 86.821 131.569 87.8004 131.415 89.0909C131.318 89.7694 131.269 90.4581 131.268 91.1573C131.247 92.1769 131.36 93.3878 131.606 94.7899L131.675 94.9921C132.089 97.0049 132.797 98.1197 133.799 98.3364C134.539 98.4964 135.66 97.9894 137.163 96.8157L137.977 96.1675C138.394 95.858 138.787 95.5432 139.156 95.2234L139.804 94.6516L139.812 94.6158C139.954 93.4975 140.121 91.6853 140.313 89.179C140.409 87.9259 140.59 86.2791 140.857 84.2385L141.142 82.0522L141.187 81.4998L141.605 79.0426C141.642 78.8755 141.663 78.7179 141.67 78.5695C141.945 77.5299 142.461 76.8172 143.219 76.4316C143.982 76.0221 144.841 75.9205 145.795 76.1269C146.511 76.2817 147.116 76.6622 147.609 77.2684C148.132 77.856 148.299 78.6415 148.111 79.6251C148.097 79.9217 148.073 80.2039 148.041 80.4715C148.013 80.7153 147.988 80.9472 147.965 81.1671L147.853 82.3792L147.749 83.0313L147.278 87.463C147.222 88.3001 147.137 89.1559 147.023 90.0304C146.938 90.8863 146.862 91.7566 146.795 92.6415L146.731 93.1145C146.408 96.9164 146.184 99.4533 146.059 100.725L145.306 108.018L145.036 110.133C144.91 111.18 144.689 112.431 144.375 113.887C143.941 115.891 143.37 117.491 142.662 118.687C142.091 119.712 141.448 120.547 140.734 121.192C139.656 122.133 138.197 122.704 136.355 122.906C135.736 122.997 134.938 122.987 133.963 122.876L132.989 122.702ZM166.252 117.193C166.062 117.152 165.885 117.102 165.723 117.042C165.561 116.982 165.34 116.734 165.06 116.299L164.818 115.684C164.499 114.966 164.274 113.868 164.144 112.391C164.151 112.243 164.143 112.104 164.121 111.974C164.036 110.058 164.1 107.973 164.312 105.721C164.352 105.305 164.413 104.906 164.496 104.524L164.357 104.644C162.545 106.326 160.715 107.454 158.867 108.028L158.832 108.02C157.436 108.468 156.046 108.542 154.662 108.243C152.562 107.789 150.967 106.62 149.875 104.735C148.512 102.492 148.23 99.521 149.03 95.8223C150.016 92.1888 151.808 89.0418 154.406 86.3815C155.759 84.9755 157.114 83.9072 158.471 83.1765C158.497 83.0572 159.192 82.7328 160.555 82.2034C162.442 81.5623 164.45 81.4595 166.579 81.8948C168.106 82.2251 169.329 82.8642 170.248 83.8123C170.461 83.9832 170.708 84.2863 170.988 84.7217C170.983 84.7455 170.993 84.76 171.016 84.7652C171.455 85.5094 171.607 86.1918 171.473 86.8122C171.406 87.1224 171.338 87.3201 171.27 87.4052C171.201 87.4904 171.107 87.5823 170.985 87.6809C170.448 88.0892 169.236 88.0895 167.351 87.6819L166.886 87.5812C165.669 87.3181 164.523 87.2452 163.448 87.3626C161.976 87.8185 160.542 88.7324 159.146 90.1041C157.101 92.2846 155.744 94.6889 155.076 97.317C154.839 98.4147 154.789 99.4531 154.927 100.432C155.063 101.536 155.501 102.167 156.241 102.327C156.909 102.472 158.043 102.08 159.642 101.152C159.648 101.128 159.662 101.119 159.686 101.124C160.401 100.704 161.501 99.8927 162.985 98.6899L163.981 97.8937C164.268 97.6061 164.562 97.3449 164.863 97.1102C165.163 96.8754 165.442 96.6236 165.7 96.3546L166.32 95.7394C166.403 95.3576 166.544 94.9384 166.742 94.4817C166.987 93.8104 167.258 93.1945 167.554 92.634L168.008 92.0952C168.344 91.6934 168.942 91.5854 169.801 91.7711C170.04 91.8227 170.345 91.9137 170.716 92.0439C171.544 92.3729 171.91 92.764 171.811 93.2174L171.729 93.4244C171.724 93.4483 171.731 93.4747 171.75 93.5038C171.792 93.5379 171.851 93.6131 171.926 93.7292C171.985 93.9168 171.973 94.2016 171.891 94.5834L171.638 95.5779L170.821 99.1853C170.434 100.975 170.175 102.405 170.043 103.476C169.95 103.905 169.815 104.875 169.639 106.386C169.52 107.859 169.47 108.785 169.488 109.163C169.399 110.843 169.407 112.368 169.51 113.739L169.54 114.12C169.619 114.562 169.627 114.988 169.563 115.399C169.367 116.306 168.867 116.885 168.063 117.135C167.477 117.308 166.873 117.328 166.252 117.193ZM166.08 91.8281C166.061 91.7991 166.028 91.7794 165.98 91.7691C165.956 91.764 165.932 91.7588 165.908 91.7536C165.885 91.7485 165.875 91.734 165.88 91.7101L166.011 91.626C166.035 91.6311 166.044 91.6456 166.039 91.6695C166.063 91.6746 166.07 91.7011 166.059 91.7488C166.078 91.7778 166.085 91.8043 166.08 91.8281ZM174.362 113.477C173.766 113.348 173.156 112.991 172.533 112.407C171.939 111.804 171.716 110.869 171.865 109.602C172.039 107.991 172.461 105.635 173.132 102.533L173.338 101.753C173.754 99.9444 174.231 98.0867 174.768 96.1796C174.861 95.7501 174.98 95.3138 175.126 94.8707C175.615 92.9534 176.294 91.0269 177.162 89.0915L177.94 87.5737C178.488 86.5431 179.133 85.6959 179.876 85.0323C181.043 83.9108 182.39 83.5151 183.917 83.8454C184.346 83.9382 184.775 84.0933 185.202 84.3107C186.037 84.8408 186.767 85.6232 187.393 86.6577C187.775 87.3148 188.171 88.1997 188.58 89.3122C189.063 90.5408 189.476 91.8665 189.818 93.2892L190.054 94.277C190.162 94.7 190.256 95.1325 190.335 95.5743C190.594 96.8042 190.742 97.6229 190.778 98.0305C191.023 99.2075 191.175 100.065 191.234 100.602L192.054 105.125L192.646 103.08C192.966 101.95 193.221 100.944 193.412 100.061L193.726 98.7803L193.837 98.0925C194.039 97.1618 194.161 96.5388 194.204 96.2234C194.498 94.8633 194.782 93.7256 195.054 92.8104L195.387 91.2713L195.46 90.7625C195.532 90.4284 195.64 90.102 195.784 89.7834C196.502 88.54 197.351 88.0241 198.329 88.2356C199.117 88.4059 199.649 89.1205 199.926 90.3794C199.995 90.8689 200.006 91.3958 199.959 91.9602C199.912 92.5245 199.886 93.2807 199.881 94.2287C199.874 95.8759 199.751 97.4853 199.511 99.057L199.292 101.108C199.165 102.854 198.94 104.529 198.618 106.133C198.515 106.61 198.251 107.54 197.828 108.922L197.769 109.021C197.148 111.085 196.247 112.651 195.067 113.72C193.844 114.754 192.481 115.109 190.977 114.784C189.498 114.464 188.341 113.577 187.506 112.123C186.916 111.271 186.399 110.022 185.956 108.378C185.482 106.527 185.014 104.128 184.552 101.18C184.54 101.003 184.508 100.808 184.453 100.597C184.428 100.367 184.207 98.9075 183.789 96.2194C183.799 96.1717 183.795 96.1333 183.776 96.1043C183.629 94.8235 183.394 93.5987 183.072 92.4301L183.011 92.1921L181.448 96.6499C181.417 96.7931 181.376 96.9217 181.327 97.0359C180.968 98.2322 180.641 99.398 180.346 100.533C180.274 100.867 179.973 102.026 179.444 104.01C178.851 106.405 178.441 108.014 178.213 108.839L177.59 111.027C177.488 111.38 177.378 111.718 177.258 112.042C176.664 113.288 175.699 113.766 174.362 113.477ZM207.275 117.559C205.843 117.249 204.657 116.556 203.716 115.478C202.554 114.152 201.854 112.19 201.617 109.591C201.467 108.435 201.442 107.168 201.54 105.79C201.567 105.546 201.581 105.312 201.579 105.087L201.702 103.652C201.764 103.366 201.802 103.074 201.816 102.778C201.919 101.726 202.218 100.054 202.713 97.7637L203.048 96.5622C203.247 95.756 203.485 94.9456 203.761 94.1311C204.037 93.3165 204.214 92.8428 204.293 92.71C203.959 92.6377 203.257 92.6484 202.188 92.7419L201.398 92.7583L200.925 92.6935C200.717 92.4987 200.483 92.3107 200.222 92.1295C199.207 91.5103 198.759 90.9263 198.878 90.3775C198.955 90.0195 199.461 89.6419 200.396 89.2447L200.476 89.2244C201.636 88.8258 203.026 88.5769 204.646 88.4776C205.451 88.4518 205.937 88.457 206.104 88.4931L206.186 88.286L206.564 87.5808C206.942 86.6386 207.408 85.815 207.96 85.1101C208.877 83.9847 209.778 83.5174 210.661 83.7084C211.825 83.985 212.675 85.0182 213.213 86.808L212.848 87.6283L212.342 88.7553L212.142 89.1616C212.131 89.2094 212.112 89.2426 212.083 89.2613L212.433 89.3745C213.196 89.5396 213.826 89.6882 214.322 89.8205C214.818 89.9527 215.297 90.1062 215.759 90.281C216.751 90.5454 217.558 90.8572 218.179 91.2165C218.56 91.6486 218.697 92.1152 218.588 92.6163C218.568 92.7118 218.478 92.9546 218.318 93.3448C218.164 93.7111 217.765 94.1119 217.122 94.5472C216.478 94.9826 215.812 95.1757 215.123 95.1267L214.073 94.7871C212.934 94.3911 212.105 94.1244 211.585 93.987L210.448 93.7036L210.373 93.8748C210.202 94.4372 210.021 94.9851 209.83 95.5184C209.758 95.8525 209.672 96.1337 209.573 96.362C209.118 97.8873 208.832 98.9243 208.713 99.4732L208.456 100.317C208.002 102.417 207.736 103.82 207.658 104.528C207.596 104.814 207.509 105.445 207.398 106.42C207.38 106.966 207.353 107.497 207.316 108.013C207.303 108.535 207.307 109.036 207.329 109.515C207.336 110.291 207.446 111.051 207.659 111.797C207.878 112.519 208.238 112.934 208.739 113.042C209.169 113.135 209.727 112.806 210.414 112.055C210.735 111.725 210.935 111.494 211.013 111.361C211.749 110.271 212.379 109.783 212.904 109.896C213.5 110.025 213.638 111.179 213.317 113.357C213.283 113.4 213.258 113.457 213.242 113.529L213.196 113.743C213.026 114.531 212.529 115.385 211.705 116.306C211.073 116.919 210.396 117.334 209.674 117.553C208.958 117.748 208.158 117.75 207.275 117.559ZM211.092 93.8429C210.901 93.8016 210.725 93.751 210.563 93.691L210.455 93.6678L210.448 93.7036L211.092 93.8429Z" fill="#FFF2EA"/>
        <g clip-path="url(#clip1)">
            <path d="M140.025 139.573C142.212 140.046 144.34 140.921 146.52 142.222C152.171 145.597 156.69 152.747 157.06 158.845C157.383 164.102 155.609 169.658 151.39 176.864C148.668 181.514 143.401 185.226 137.977 186.361C136.061 186.751 133.62 186.664 130.913 186.079C126.595 185.145 121.708 182.999 117.857 180.299C114.844 178.221 113.793 176.463 111.852 173.268C111.241 172.254 110.548 171.093 109.702 169.847C107.596 166.616 108.444 161.768 109.517 157.072C110.955 150.82 114.662 146.642 121.988 143.065C129.156 139.557 134.886 138.462 140.025 139.573ZM141.257 133.874C133.549 132.207 126.086 134.302 118.853 137.848C110.54 141.886 105.21 147.218 103.279 155.619C102.024 161.157 100.882 167.498 104.284 172.669C107.687 177.84 108.799 181.167 114.124 184.861C118.402 187.835 124.088 190.517 129.692 191.728C133.163 192.479 136.583 192.674 139.639 192.038C147.007 190.518 153.612 185.644 157.083 179.781C160.846 173.358 163.919 166.293 163.489 158.756C163.024 150.978 157.568 141.94 149.918 137.355C146.978 135.604 144.1 134.489 141.257 133.874Z" fill="#FFF2EA"/>
            <path d="M128.643 173.424C128.124 173.311 127.631 173.075 127.188 172.746C126.645 172.343 126.31 171.778 126.28 171.123C126.185 170.636 126.134 170.21 126.137 169.795C126.109 169.53 126.081 169.264 126.079 169.005C126.068 168.795 126.089 168.566 126.055 168.325L126.045 167.182C126.054 166.743 126.063 166.304 126.099 165.871C126.13 165.462 126.139 165.023 126.148 164.584L126.154 164.56L126.273 162.951C126.345 161.955 126.482 160.922 126.658 159.844L126.919 158.241L126.924 158.216C127.032 157.721 127.111 157.219 127.191 156.718L127.202 156.668C127.615 154.76 127.931 153.428 128.157 152.647L128.254 152.331C128.335 152.089 128.421 151.822 128.53 151.586C128.767 150.885 129.016 150.395 129.261 150.058L129.266 150.034L129.271 150.009C129.576 149.66 130.05 149.451 130.662 149.402C131.153 149.378 131.634 149.404 132.153 149.517C132.695 149.66 133.171 149.84 133.543 150.102C134.063 150.474 134.328 150.972 134.27 151.505C134.254 151.579 134.244 151.758 134.163 152.13C135.146 152.083 136.184 152.178 137.305 152.42C138.207 152.615 139.061 152.904 139.892 153.291C140.806 153.696 141.611 154.207 142.297 154.874C143.569 156.135 144.225 157.6 144.178 159.275C144.158 159.764 144.111 160.246 144.015 160.692C143.822 161.584 143.437 162.435 142.889 163.25L142.884 163.275C142.438 163.879 141.933 164.366 141.371 164.712C140.794 165.132 140.091 165.472 139.3 165.69C138.509 165.908 137.603 165.998 136.658 166.001L136.63 165.995C135.811 165.947 135.007 165.826 134.215 165.654C133.395 165.477 132.64 165.262 131.983 164.99C131.989 165.095 131.876 166.679 131.876 166.679L131.813 168.688L131.769 169.95L131.739 170.488C131.688 171.385 131.629 171.657 131.597 171.806C131.538 172.078 131.424 172.339 131.289 172.569L131.245 172.638L131.175 172.7C130.718 173.224 129.928 173.701 128.643 173.424ZM132.573 160.942C132.791 160.989 133.141 161.091 133.645 161.277L133.672 161.283C134.225 161.506 134.684 161.632 135.039 161.709C135.313 161.768 135.679 161.795 136.115 161.76C136.438 161.726 136.787 161.568 137.168 161.261C137.451 161.011 137.652 160.743 137.765 160.482L137.77 160.458L137.776 160.433C137.998 160.066 138.144 159.656 138.235 159.235C138.31 158.759 138.313 158.344 138.274 157.999C138.123 157.24 137.804 156.73 137.349 156.45L137.327 156.419C137.026 156.225 136.687 156.073 136.255 155.954L136.146 155.93L135.954 155.889L135.96 155.864C135.932 155.858 135.905 155.852 135.878 155.846C135.681 155.83 135.457 155.807 135.26 155.791L135.233 155.785L135.178 155.773C134.779 155.765 134.43 155.793 134.102 155.852C134.042 155.865 133.982 155.878 133.895 155.885C133.65 155.961 133.442 155.994 133.289 156.039C133.07 157.055 132.894 158.002 132.733 158.876L132.648 159.402C132.541 159.897 132.461 160.399 132.381 160.9C132.518 160.93 132.545 160.936 132.573 160.942Z" fill="#FFF2EA"/>
            <path d="M132.014 150.291C132.451 150.385 132.791 150.536 133.092 150.731C133.366 150.92 133.514 151.16 133.483 151.438C133.467 151.642 133.377 152.193 133.189 153.061C134.379 152.851 135.712 152.906 137.215 153.231C138.035 153.408 138.834 153.685 139.589 154.029C140.426 154.392 141.155 154.861 141.742 155.455C142.877 156.556 143.429 157.842 143.402 159.289C143.393 159.728 143.329 160.155 143.238 160.576C143.067 161.369 142.726 162.152 142.199 162.868C141.797 163.403 141.362 163.828 140.861 164.16C140.349 164.543 139.744 164.827 139.045 165.013C138.314 165.218 137.523 165.306 136.643 165.272C135.878 165.236 135.13 165.126 134.364 164.96C133.162 164.7 132.128 164.321 131.257 163.848C131.204 164.095 131.157 164.578 131.11 165.32L131.029 166.625L130.961 168.66L130.917 169.921L130.892 170.434C130.834 171.096 130.803 171.505 130.771 171.653C130.728 171.851 130.658 172.044 130.561 172.23C130.153 172.661 129.58 172.796 128.869 172.643C128.486 172.56 128.098 172.372 127.753 172.116C127.38 171.854 127.198 171.503 127.185 171.034C127.085 170.571 127.04 170.12 127.065 169.737C127.032 169.496 126.998 169.255 126.991 169.02C126.985 168.786 126.978 168.551 126.972 168.316L126.984 167.203C126.987 166.789 127.018 166.381 127.028 165.942C127.064 165.509 127.073 165.07 127.082 164.631L127.196 163.047C127.263 162.076 127.4 161.042 127.565 160.015L127.821 158.436C127.933 157.916 128.013 157.414 128.098 156.888C128.505 155.005 128.817 153.697 129.043 152.916L129.14 152.6C129.221 152.358 129.296 152.141 129.377 151.899C129.599 151.273 129.815 150.801 130.016 150.533C130.174 150.334 130.457 150.213 130.861 150.197C131.183 150.163 131.577 150.196 132.014 150.291ZM131.521 161.7L131.576 161.712L132.106 161.645L132.215 161.668C132.242 161.674 132.302 161.661 132.439 161.691C132.63 161.732 132.953 161.828 133.407 161.978C134.014 162.213 134.523 162.375 134.905 162.458C135.261 162.535 135.714 162.555 136.233 162.537C136.757 162.495 137.264 162.267 137.754 161.855C138.113 161.517 138.385 161.187 138.525 160.802C138.791 160.367 138.953 159.883 139.06 159.388C139.156 158.812 139.176 158.323 139.119 157.922C138.908 156.917 138.484 156.229 137.8 155.821C137.422 155.584 137.006 155.39 136.497 155.228L136.448 155.192L136.12 155.121L136.781 155.238L137.213 155.357L137 155.285L136.404 155.13C136.267 155.101 136.153 155.102 136.016 155.072C135.737 155.038 135.486 155.01 135.235 154.981L135.175 154.994C134.694 154.968 134.252 155.028 133.864 155.1C133.837 155.094 133.831 155.119 133.777 155.107C133.176 155.237 132.778 155.358 132.56 155.44C132.303 156.63 132.095 157.726 131.935 158.729L131.85 159.255C131.722 159.98 131.594 160.704 131.493 161.435L131.521 161.7ZM132.363 148.81C131.734 148.674 131.144 148.624 130.587 148.685C129.539 148.77 128.929 149.208 128.625 149.558L128.587 149.601L128.548 149.645C128.261 150.05 128.001 150.59 127.72 151.359C127.606 151.62 127.515 151.911 127.428 152.178L127.332 152.494C127.1 153.3 126.756 154.626 126.338 156.559L126.327 156.609L126.317 156.658C126.237 157.16 126.162 157.636 126.061 158.107L126.05 158.157L126.039 158.206L125.784 159.785C125.608 160.862 125.492 161.927 125.393 162.917L125.274 164.525L125.263 164.575L125.252 164.624C125.249 165.038 125.245 165.452 125.214 165.861C125.177 166.294 125.163 166.758 125.159 167.172L125.154 167.196L125.149 167.221L125.137 168.334L125.131 168.359L125.126 168.384C125.133 168.618 125.144 168.828 125.129 169.033C125.13 169.292 125.153 169.583 125.176 169.873C125.172 170.287 125.218 170.738 125.313 171.225C125.382 172.096 125.817 172.864 126.562 173.389C127.132 173.797 127.728 174.082 128.357 174.218C129.669 174.501 130.853 174.187 131.663 173.35L131.777 173.22L131.869 173.058C132.048 172.759 132.178 172.424 132.248 172.102C132.285 171.929 132.322 171.626 132.384 170.679L132.436 170.172L132.442 170.147L132.447 170.122L132.491 168.861L132.559 166.826L132.616 166.164C133.048 166.284 133.48 166.403 133.945 166.504C134.792 166.687 135.656 166.796 136.502 166.849L136.53 166.855L136.557 166.861C137.611 166.882 138.578 166.779 139.462 166.529C140.345 166.28 141.141 165.907 141.789 165.425C142.394 165.011 142.965 164.486 143.454 163.813L143.459 163.789L143.464 163.764C144.083 162.886 144.489 161.936 144.698 160.97C144.805 160.474 144.863 159.942 144.888 159.429C144.924 157.543 144.196 155.881 142.754 154.48C142.024 153.752 141.12 153.167 140.103 152.714C139.216 152.315 138.313 151.99 137.357 151.783C136.537 151.606 135.755 151.515 134.996 151.454C134.982 150.725 134.58 150.067 133.912 149.586C133.594 149.206 133.014 148.976 132.363 148.81ZM135.35 156.563C135.492 156.567 135.629 156.597 135.799 156.608L135.848 156.644L135.842 156.669L135.952 156.693L136.061 156.716C136.384 156.812 136.674 156.926 136.871 157.073L136.893 157.104L136.915 157.134C137.222 157.304 137.371 157.803 137.444 158.13C137.472 158.396 137.457 158.73 137.404 159.107C137.329 159.454 137.205 159.765 137.02 160.088L136.977 160.156L136.933 160.225C136.869 160.392 136.716 160.567 136.531 160.76C136.216 161.029 136.041 161.043 135.981 161.056C135.544 161.092 135.293 161.063 135.156 161.034C134.965 160.992 134.588 160.885 133.926 160.638L133.898 160.632L133.871 160.626C133.685 160.56 133.499 160.494 133.362 160.464C133.421 160.192 133.447 159.938 133.506 159.665L133.512 159.64L133.517 159.616L133.602 159.089C133.73 158.365 133.874 157.566 134.057 156.724C134.084 156.73 134.089 156.705 134.117 156.711C134.204 156.704 134.291 156.697 134.384 156.665C134.624 156.613 134.914 156.598 135.225 156.613L135.35 156.563Z" fill="#FFF2EA"/>
        </g>
    </g>
    <defs>
        <clipPath id="clip0">
            <rect width="236.186" height="209" fill="white" transform="translate(45.1602 0.401978) rotate(12.2012)"/>
        </clipPath>
        <clipPath id="clip1">
            <rect width="60.4637" height="58.9919" fill="white" transform="translate(109.468 127) rotate(12.2012)"/>
        </clipPath>
    </defs>
</svg>
