<svg width="75" height="75" viewBox="0 0 75 75" fill="none" xmlns="http://www.w3.org/2000/svg">
    <rect x="1" y="1" width="73" height="73" rx="16" fill="white" stroke="#04D99D" stroke-width="2"/>
    <path d="M26.3158 67C25.7426 66.5953 25.5612 66.0652 25.67 65.3704C26.1271 62.4192 26.4391 59.4537 26.6096 56.4738C26.7983 53.1609 26.8273 49.8479 26.6894 46.5278C26.5734 43.7557 26.3412 40.9979 25.9131 38.2616C24.7703 30.9695 22.6372 24.0357 18.088 18.0222C18.0154 17.9291 17.9429 17.836 17.8776 17.7393C17.4713 17.1447 17.4858 16.5681 17.9138 16.1383C18.3456 15.705 18.9333 15.662 19.5318 16.0524C20.9176 16.9585 22.2563 17.9255 23.5369 18.9749C29.4429 23.8172 33.9777 29.7053 37.2971 36.521C39.7277 41.5101 41.3457 46.7606 42.3578 52.1974C43.0217 55.7682 43.4389 59.3677 43.5623 62.9994C43.5913 63.8375 43.6239 64.6756 43.6675 65.5137C43.7001 66.1476 43.5006 66.6633 42.9274 67C37.3878 67 31.8518 67 26.3158 67Z" fill="#FFCDB6"/>
    <path d="M48.2638 67C47.9808 66.6956 47.872 66.3446 47.8865 65.9291C48.0643 60.0196 48.9712 54.2497 51.3111 48.7591C53.9195 42.6383 57.8883 37.5954 63.4642 33.8312C63.5622 33.7668 63.6601 33.6987 63.7617 33.6414C64.139 33.4265 64.4872 33.4838 64.7811 33.7882C65.0677 34.0855 65.0604 34.4258 64.8319 34.7517C64.2732 35.5539 63.6855 36.3383 63.1958 37.1907C61.4726 40.1956 60.4314 43.4298 59.7965 46.8072C59.0891 50.5643 58.8787 54.3535 58.9912 58.1607C59.0637 60.5962 59.2741 63.0245 59.6333 65.4385C59.7131 65.9864 59.8727 66.5774 59.2923 66.9964C55.6173 67 51.9424 67 48.2638 67Z" fill="#FFCDB6"/>
    <path d="M13.0272 67C12.8385 66.7314 12.7914 66.452 12.8422 66.1153C13.2303 63.3719 13.4371 60.6105 13.3355 57.8384C13.2049 54.1959 12.6934 50.618 11.2133 47.237C10.7018 46.0694 10.0705 44.9698 9.30869 43.9419C9.17084 43.7557 9.01121 43.5659 9.00033 43.3187C8.99307 43.0859 9.10554 42.9033 9.31232 42.7923C9.57352 42.6526 9.80933 42.7385 10.0342 42.889C11.7393 44.035 13.2956 45.3531 14.6488 46.8931C18.4289 51.191 20.3299 56.284 21.099 61.8426C21.3021 63.311 21.3819 64.7902 21.411 66.2694C21.4146 66.5344 21.3312 66.7672 21.2114 66.9928C18.487 67 15.7553 67 13.0272 67Z" fill="#FFCDB6"/>
    <path d="M46.0981 51.3558C45.9095 50.489 45.7208 49.6223 45.5249 48.7556C43.9214 41.6497 41.2949 34.9487 37.3007 28.8063C36.9271 28.2332 36.9307 27.8249 37.2862 27.2411C41.4799 20.3395 46.8708 14.5624 53.7092 10.1428C55.3961 9.05042 57.1628 8.09056 58.9658 7.19875C59.6442 6.86208 60.2428 6.95879 60.6237 7.44588C61.0083 7.94013 60.9575 8.54184 60.4169 9.07549C55.6065 13.8533 52.5991 19.6662 50.4514 25.9697C48.7827 30.8657 47.7342 35.9013 47.0812 41.023C46.7184 43.8882 46.4282 46.757 46.3629 49.6438C46.352 50.2061 46.2795 50.7648 46.236 51.3271C46.196 51.3343 46.1489 51.345 46.0981 51.3558Z" fill="#3EE5B1"/>
</svg>
