<svg width="140" height="100" viewBox="0 0 140 100" fill="none" xmlns="http://www.w3.org/2000/svg">
    <path d="M27.7902 90.0646C28.4777 89.9803 28.9586 90.7489 28.5574 91.2974C27.4249 92.8362 24.9951 95.1339 20.2618 95.9174C12.9272 97.1302 8.67872 90.8666 1.20767 88.7211C0.747629 88.5915 0.582391 88.0452 0.931185 87.7302C3.09019 85.8011 9.0668 80.8167 14.5344 79.4987C20.873 77.9674 27.0024 78.6899 29.3507 84.8678C29.6796 85.7327 29.2227 86.6839 28.3404 86.9815C26.0503 87.7705 21.3817 88.9121 16.3141 87.5596C16.3141 87.5596 18.3452 91.1973 27.7902 90.0646Z" fill="#04D99D"/>
    <path d="M81.918 66.9114C81.5485 66.817 81.4557 66.3265 81.7713 66.1255C82.6602 65.563 84.3664 64.8708 86.9509 65.4165C90.9556 66.2627 91.8808 70.3257 95.2832 72.9217C95.4932 73.0803 95.4685 73.3936 95.2266 73.4853C93.7331 74.0425 89.6699 75.4026 86.6018 74.9841C83.0442 74.5006 80.0451 72.9031 80.0774 69.2644C80.0818 68.755 80.5066 68.3586 81.0186 68.3825C82.3512 68.4363 84.9742 68.7853 87.3026 70.4934C87.3026 70.4934 86.9891 68.2211 81.918 66.9114Z" fill="#04D99D"/>
    <path d="M46.2736 58.7148C46.4933 59.0196 46.2535 59.4491 45.8879 59.4017C44.8603 59.2654 43.1328 58.7105 41.5234 56.6646C39.03 53.4941 40.8979 49.8372 39.9657 45.7242C39.9071 45.4716 40.1237 45.2503 40.3647 45.3338C41.8461 45.8563 45.7779 47.3955 47.8334 49.6508C50.2179 52.2645 51.4761 55.3677 49.1523 58.0987C48.8271 58.4811 48.2554 58.5124 47.8833 58.1707C46.9097 57.288 45.1469 55.3665 44.4657 52.6035C44.4657 52.6035 43.2668 54.5198 46.2736 58.7148Z" fill="#03A678"/>
    <path d="M100.745 21.7872C99.9885 22.4264 98.8114 21.8834 98.862 20.9132C99.0118 18.1857 100.119 13.5347 105.168 8.89151C112.992 1.69792 122.979 5.86421 133.596 2.58118C134.247 2.37602 134.873 2.90023 134.702 3.55014C133.63 7.54818 130.383 18.1901 124.875 24.0476C118.491 30.8423 110.593 34.7771 102.947 29.2255C101.877 28.4485 101.678 26.9529 102.501 25.9061C104.622 23.1692 109.313 18.1482 116.434 15.7984C116.434 15.7984 111.156 13.0371 100.745 21.7872Z" fill="#025949"/>
</svg>
