<svg width="40" height="38" viewBox="0 0 40 38" fill="none" xmlns="http://www.w3.org/2000/svg">
    <path d="M9.95195 35.1184C7.02594 33.4701 4.54388 31.098 2.78827 28.2636C3.45419 22.8562 4.24119 17.9914 5.14926 15.5189C4.14029 17.8306 2.62684 21.65 1.49679 25.771C0.871233 24.3437 0.427287 22.8562 0.144775 21.2882C1.49679 18.2528 3.17168 15.8807 5.20979 13.77C5.5932 13.368 5.89589 13.2071 6.17841 13.2273C6.46092 13.2474 6.72325 13.4886 7.02594 13.971C9.24567 17.6698 10.5775 21.6701 10.8197 26.0122C10.9004 27.3188 10.6179 31.7815 9.95195 35.1184Z" fill="#04D99D"/>
    <path d="M35.0552 30.314C36.5687 23.1175 36.609 14.956 36.4879 10.5336C36.266 17.5894 33.2189 27.7008 31.0395 34.0932C30.0507 34.7968 29.0014 35.3999 27.8915 35.9024C27.2458 32.9876 26.1359 30.2135 24.6628 27.4997C23.4117 25.2081 23.3512 22.7556 24.5014 20.3434C26.9229 15.2978 30.1314 11.1567 34.6718 7.77957C35.2368 7.35743 35.701 7.19661 36.044 7.29712C36.2256 7.35743 36.3467 7.47804 36.4879 7.67906C36.6292 7.88008 36.7705 8.12131 36.9521 8.40274C37.1539 8.72437 37.3557 9.046 37.5171 9.40784C37.6785 9.72948 37.8198 10.0712 37.961 10.3928C38.1023 10.7346 38.2234 11.0763 38.3646 11.4181C38.4655 11.7397 38.5866 12.0814 38.6875 12.4232C38.7077 12.4835 38.7279 12.5237 38.748 12.584C38.8288 12.8855 38.9095 13.187 38.9902 13.5087C39.0709 13.8705 39.1516 14.2122 39.2122 14.5942C39.3938 15.6998 39.4947 16.8054 39.4947 17.9713C39.4543 22.635 37.7996 26.9369 35.0552 30.314Z" fill="#04D99D"/>
    <path d="M16.9544 37.5508C16.8736 37.5106 16.7929 37.4905 16.7122 37.4503C16.692 37.4704 16.6719 37.4503 16.6517 37.4503C16.127 37.2292 15.6225 37.0081 15.118 36.7668C14.4521 35.9427 13.9678 34.9778 13.6449 33.9123C12.9387 31.7011 12.636 29.4296 12.5754 27.339C12.6158 25.2282 12.8176 23.419 13.201 21.5897C13.3624 20.846 13.5037 20.3836 13.7257 20.1424C13.7257 20.1424 14.7548 30.9171 16.9342 37.4905C16.9342 37.4905 16.9544 37.5307 16.9544 37.5508Z" fill="#04D99D"/>
    <path d="M26.2567 36.5457C24.8442 37.0483 23.3307 37.39 21.7769 37.5508C18.9922 33.5505 14.6536 26.5349 13.7253 20.1424C14.0482 19.7806 14.5325 19.9816 15.4809 20.6047C21.4339 24.5045 24.8442 29.912 26.2567 36.5457Z" fill="#04D99D"/>
    <path d="M29.1224 9.93049C26.5394 11.2371 23.3914 10.1918 22.0798 7.63885C20.7681 5.08588 21.7972 1.86954 24.3197 0.58301C25.7524 -0.140666 27.3668 -0.140666 28.7188 0.442295C28.9407 0.542806 29.1425 0.663418 29.3443 0.784031C30.1717 1.28658 30.8578 2.01026 31.3421 2.91485C32.6739 5.50803 31.6851 8.64395 29.1224 9.93049Z" fill="#FFCDB6"/>
    <path d="M11.9699 12.3227C9.38699 13.5891 6.25919 12.5639 4.94753 9.99081C3.61569 7.45795 4.66501 4.22151 7.18744 2.93497C9.77039 1.62834 12.8578 2.67365 14.2099 5.26682C15.5215 7.88009 14.5327 11.0361 11.9699 12.3227Z" fill="#FFCDB6"/>
    <path d="M22.0999 15.6596C22.1402 18.0518 20.425 19.8609 18.0438 19.9615C15.8039 20.0419 13.8263 18.1523 13.7456 15.8606C13.6649 13.5891 15.5819 11.5789 17.842 11.5387C20.1425 11.4985 22.0797 13.3479 22.0999 15.6596Z" fill="#FFCDB6"/>
</svg>
