<svg width="199" height="37" viewBox="0 0 199 37" fill="none" xmlns="http://www.w3.org/2000/svg">
<path d="M0 18.5C0 8.55887 8.05887 0.5 18 0.5H181C190.941 0.5 199 8.55887 199 18.5V18.5C199 28.4411 190.941 36.5 181 36.5H18C8.05887 36.5 0 28.4411 0 18.5V18.5Z" fill="#FFCDB6"/>
<path d="M21.7958 23.784L17.9078 19.914C17.7638 19.77 17.6918 19.608 17.6918 19.428C17.6918 19.248 17.7638 19.086 17.9078 18.942C18.0398 18.81 18.1958 18.744 18.3758 18.744C18.5558 18.744 18.7178 18.81 18.8618 18.942L22.7678 22.83C22.8998 22.974 22.9658 23.136 22.9658 23.316C22.9658 23.484 22.8998 23.64 22.7678 23.784C22.6238 23.928 22.4618 24 22.2818 24C22.1018 24 21.9398 23.928 21.7958 23.784ZM16.5038 24.18C15.4598 24.18 14.4998 24 13.6238 23.64C12.7478 23.28 11.9858 22.776 11.3378 22.128C10.7018 21.48 10.2038 20.718 9.84381 19.842C9.49581 18.966 9.32181 18.006 9.32181 16.962C9.32181 15.93 9.49581 14.976 9.84381 14.1C10.2038 13.224 10.7018 12.462 11.3378 11.814C11.9858 11.166 12.7478 10.662 13.6238 10.302C14.4998 9.942 15.4598 9.762 16.5038 9.762C17.5358 9.762 18.4898 9.942 19.3658 10.302C20.2418 10.662 21.0038 11.166 21.6518 11.814C22.2998 12.462 22.7978 13.224 23.1458 14.1C23.5058 14.976 23.6858 15.93 23.6858 16.962C23.6858 18.006 23.5058 18.966 23.1458 19.842C22.7978 20.718 22.2998 21.48 21.6518 22.128C21.0038 22.776 20.2418 23.28 19.3658 23.64C18.4898 24 17.5358 24.18 16.5038 24.18ZM16.5038 22.848C17.3318 22.848 18.0998 22.704 18.8078 22.416C19.5158 22.116 20.1278 21.702 20.6438 21.174C21.1718 20.634 21.5798 20.01 21.8678 19.302C22.1558 18.582 22.2998 17.802 22.2998 16.962C22.2998 16.134 22.1558 15.366 21.8678 14.658C21.5798 13.938 21.1718 13.314 20.6438 12.786C20.1278 12.246 19.5158 11.832 18.8078 11.544C18.0998 11.244 17.3318 11.094 16.5038 11.094C15.6638 11.094 14.8898 11.244 14.1818 11.544C13.4738 11.832 12.8558 12.246 12.3278 12.786C11.8118 13.314 11.4098 13.938 11.1218 14.658C10.8338 15.366 10.6898 16.134 10.6898 16.962C10.6898 17.802 10.8338 18.582 11.1218 19.302C11.4098 20.01 11.8118 20.634 12.3278 21.174C12.8558 21.702 13.4738 22.116 14.1818 22.416C14.8898 22.704 15.6638 22.848 16.5038 22.848ZM30.686 24.108C29.834 24.108 29.072 23.934 28.4 23.586C27.728 23.226 27.194 22.704 26.798 22.02C26.414 21.336 26.222 20.502 26.222 19.518V14.838C26.222 14.646 26.288 14.484 26.42 14.352C26.552 14.22 26.714 14.154 26.906 14.154C27.11 14.154 27.278 14.22 27.41 14.352C27.542 14.484 27.608 14.646 27.608 14.838V19.518C27.608 20.262 27.746 20.874 28.022 21.354C28.31 21.834 28.694 22.194 29.174 22.434C29.666 22.674 30.218 22.794 30.83 22.794C31.418 22.794 31.946 22.68 32.414 22.452C32.894 22.224 33.272 21.912 33.548 21.516C33.824 21.12 33.962 20.67 33.962 20.166H34.952C34.916 20.922 34.706 21.6 34.322 22.2C33.95 22.788 33.446 23.256 32.81 23.604C32.174 23.94 31.466 24.108 30.686 24.108ZM34.646 24C34.442 24 34.274 23.94 34.142 23.82C34.022 23.688 33.962 23.514 33.962 23.298V14.838C33.962 14.634 34.022 14.472 34.142 14.352C34.274 14.22 34.442 14.154 34.646 14.154C34.85 14.154 35.018 14.22 35.15 14.352C35.282 14.472 35.348 14.634 35.348 14.838V23.298C35.348 23.514 35.282 23.688 35.15 23.82C35.018 23.94 34.85 24 34.646 24ZM39.5736 24C39.3576 24 39.1836 23.94 39.0516 23.82C38.9316 23.688 38.8716 23.514 38.8716 23.298V14.856C38.8716 14.64 38.9316 14.472 39.0516 14.352C39.1836 14.22 39.3576 14.154 39.5736 14.154C39.7776 14.154 39.9396 14.22 40.0596 14.352C40.1916 14.472 40.2576 14.64 40.2576 14.856V23.298C40.2576 23.514 40.1916 23.688 40.0596 23.82C39.9396 23.94 39.7776 24 39.5736 24ZM39.5556 12.282C39.2916 12.282 39.0636 12.186 38.8716 11.994C38.6796 11.802 38.5836 11.568 38.5836 11.292C38.5836 10.992 38.6796 10.758 38.8716 10.59C39.0756 10.41 39.3096 10.32 39.5736 10.32C39.8256 10.32 40.0476 10.41 40.2396 10.59C40.4436 10.758 40.5456 10.992 40.5456 11.292C40.5456 11.568 40.4496 11.802 40.2576 11.994C40.0656 12.186 39.8316 12.282 39.5556 12.282ZM52.4982 24.09C51.7902 24.09 51.0882 23.97 50.3922 23.73C49.6962 23.49 49.1322 23.13 48.7002 22.65C48.5682 22.506 48.5142 22.344 48.5382 22.164C48.5622 21.984 48.6522 21.828 48.8082 21.696C48.9762 21.576 49.1502 21.528 49.3302 21.552C49.5102 21.576 49.6602 21.654 49.7802 21.786C50.0682 22.122 50.4462 22.38 50.9142 22.56C51.3942 22.74 51.9222 22.83 52.4982 22.83C53.3862 22.83 54.0282 22.68 54.4242 22.38C54.8202 22.068 55.0242 21.696 55.0362 21.264C55.0362 20.832 54.8322 20.478 54.4242 20.202C54.0162 19.914 53.3442 19.692 52.4082 19.536C51.1962 19.344 50.3082 19.008 49.7442 18.528C49.1802 18.048 48.8982 17.478 48.8982 16.818C48.8982 16.206 49.0602 15.696 49.3842 15.288C49.7082 14.88 50.1402 14.574 50.6802 14.37C51.2202 14.166 51.8142 14.064 52.4622 14.064C53.2662 14.064 53.9562 14.202 54.5322 14.478C55.1202 14.754 55.5942 15.126 55.9542 15.594C56.0742 15.75 56.1222 15.912 56.0982 16.08C56.0742 16.248 55.9782 16.386 55.8102 16.494C55.6662 16.578 55.4982 16.608 55.3062 16.584C55.1262 16.548 54.9702 16.458 54.8382 16.314C54.5382 15.966 54.1902 15.714 53.7942 15.558C53.3982 15.39 52.9422 15.306 52.4262 15.306C51.7662 15.306 51.2382 15.444 50.8422 15.72C50.4462 15.984 50.2482 16.32 50.2482 16.728C50.2482 17.004 50.3202 17.244 50.4642 17.448C50.6202 17.652 50.8782 17.832 51.2382 17.988C51.6102 18.144 52.1262 18.276 52.7862 18.384C53.6862 18.528 54.3942 18.744 54.9102 19.032C55.4382 19.308 55.8102 19.638 56.0262 20.022C56.2542 20.394 56.3682 20.802 56.3682 21.246C56.3682 21.81 56.2002 22.308 55.8642 22.74C55.5402 23.16 55.0842 23.49 54.4962 23.73C53.9202 23.97 53.2542 24.09 52.4982 24.09ZM63.2453 24.09C62.2853 24.09 61.4273 23.874 60.6713 23.442C59.9153 23.01 59.3213 22.416 58.8893 21.66C58.4573 20.904 58.2413 20.046 58.2413 19.086C58.2413 18.114 58.4573 17.25 58.8893 16.494C59.3213 15.738 59.9153 15.144 60.6713 14.712C61.4273 14.28 62.2853 14.064 63.2453 14.064C64.2053 14.064 65.0573 14.28 65.8013 14.712C66.5573 15.144 67.1513 15.738 67.5833 16.494C68.0153 17.25 68.2373 18.114 68.2493 19.086C68.2493 20.046 68.0273 20.904 67.5833 21.66C67.1513 22.416 66.5573 23.01 65.8013 23.442C65.0573 23.874 64.2053 24.09 63.2453 24.09ZM63.2453 22.83C63.9413 22.83 64.5653 22.668 65.1173 22.344C65.6693 22.02 66.1013 21.576 66.4133 21.012C66.7253 20.448 66.8813 19.806 66.8813 19.086C66.8813 18.366 66.7253 17.724 66.4133 17.16C66.1013 16.584 65.6693 16.134 65.1173 15.81C64.5653 15.486 63.9413 15.324 63.2453 15.324C62.5493 15.324 61.9253 15.486 61.3733 15.81C60.8213 16.134 60.3833 16.584 60.0593 17.16C59.7473 17.724 59.5913 18.366 59.5913 19.086C59.5913 19.806 59.7473 20.448 60.0593 21.012C60.3833 21.576 60.8213 22.02 61.3733 22.344C61.9253 22.668 62.5493 22.83 63.2453 22.83ZM84.247 24C84.043 24 83.875 23.94 83.743 23.82C83.611 23.688 83.545 23.52 83.545 23.316V18.132C83.545 17.28 83.323 16.608 82.879 16.116C82.435 15.612 81.865 15.36 81.169 15.36C80.425 15.36 79.813 15.612 79.333 16.116C78.865 16.608 78.637 17.268 78.649 18.096H77.407C77.419 17.292 77.593 16.584 77.929 15.972C78.265 15.36 78.727 14.886 79.315 14.55C79.903 14.214 80.569 14.046 81.313 14.046C82.021 14.046 82.645 14.214 83.185 14.55C83.737 14.886 84.163 15.36 84.463 15.972C84.775 16.584 84.931 17.304 84.931 18.132V23.316C84.931 23.52 84.865 23.688 84.733 23.82C84.613 23.94 84.451 24 84.247 24ZM71.647 24C71.431 24 71.257 23.94 71.125 23.82C71.005 23.688 70.945 23.52 70.945 23.316V14.856C70.945 14.652 71.005 14.484 71.125 14.352C71.257 14.22 71.431 14.154 71.647 14.154C71.851 14.154 72.013 14.22 72.133 14.352C72.265 14.484 72.331 14.652 72.331 14.856V23.316C72.331 23.52 72.265 23.688 72.133 23.82C72.013 23.94 71.851 24 71.647 24ZM77.965 24C77.761 24 77.593 23.94 77.461 23.82C77.329 23.688 77.263 23.52 77.263 23.316V18.132C77.263 17.28 77.041 16.608 76.597 16.116C76.153 15.612 75.583 15.36 74.887 15.36C74.143 15.36 73.531 15.606 73.051 16.098C72.571 16.578 72.331 17.208 72.331 17.988H71.341C71.365 17.22 71.533 16.542 71.845 15.954C72.169 15.354 72.607 14.886 73.159 14.55C73.711 14.214 74.335 14.046 75.031 14.046C75.739 14.046 76.363 14.214 76.903 14.55C77.455 14.886 77.881 15.36 78.181 15.972C78.493 16.584 78.649 17.304 78.649 18.132V23.316C78.649 23.52 78.583 23.688 78.451 23.82C78.331 23.94 78.169 24 77.965 24ZM101.298 24C101.094 24 100.926 23.94 100.794 23.82C100.662 23.688 100.596 23.52 100.596 23.316V18.132C100.596 17.28 100.374 16.608 99.9297 16.116C99.4857 15.612 98.9157 15.36 98.2197 15.36C97.4757 15.36 96.8637 15.612 96.3837 16.116C95.9157 16.608 95.6877 17.268 95.6997 18.096H94.4577C94.4697 17.292 94.6437 16.584 94.9797 15.972C95.3157 15.36 95.7777 14.886 96.3657 14.55C96.9537 14.214 97.6197 14.046 98.3637 14.046C99.0717 14.046 99.6957 14.214 100.236 14.55C100.788 14.886 101.214 15.36 101.514 15.972C101.826 16.584 101.982 17.304 101.982 18.132V23.316C101.982 23.52 101.916 23.688 101.784 23.82C101.664 23.94 101.502 24 101.298 24ZM88.6977 24C88.4817 24 88.3077 23.94 88.1757 23.82C88.0557 23.688 87.9957 23.52 87.9957 23.316V14.856C87.9957 14.652 88.0557 14.484 88.1757 14.352C88.3077 14.22 88.4817 14.154 88.6977 14.154C88.9017 14.154 89.0637 14.22 89.1837 14.352C89.3157 14.484 89.3817 14.652 89.3817 14.856V23.316C89.3817 23.52 89.3157 23.688 89.1837 23.82C89.0637 23.94 88.9017 24 88.6977 24ZM95.0157 24C94.8117 24 94.6437 23.94 94.5117 23.82C94.3797 23.688 94.3137 23.52 94.3137 23.316V18.132C94.3137 17.28 94.0917 16.608 93.6477 16.116C93.2037 15.612 92.6337 15.36 91.9377 15.36C91.1937 15.36 90.5817 15.606 90.1017 16.098C89.6217 16.578 89.3817 17.208 89.3817 17.988H88.3917C88.4157 17.22 88.5837 16.542 88.8957 15.954C89.2197 15.354 89.6577 14.886 90.2097 14.55C90.7617 14.214 91.3857 14.046 92.0817 14.046C92.7897 14.046 93.4137 14.214 93.9537 14.55C94.5057 14.886 94.9317 15.36 95.2317 15.972C95.5437 16.584 95.6997 17.304 95.6997 18.132V23.316C95.6997 23.52 95.6337 23.688 95.5017 23.82C95.3817 23.94 95.2197 24 95.0157 24ZM109.511 24.09C108.539 24.09 107.675 23.88 106.919 23.46C106.175 23.028 105.587 22.434 105.155 21.678C104.735 20.922 104.525 20.058 104.525 19.086C104.525 18.102 104.723 17.238 105.119 16.494C105.527 15.738 106.085 15.144 106.793 14.712C107.501 14.28 108.317 14.064 109.241 14.064C110.153 14.064 110.945 14.274 111.617 14.694C112.301 15.102 112.829 15.672 113.201 16.404C113.573 17.136 113.759 17.97 113.759 18.906C113.759 19.098 113.699 19.254 113.579 19.374C113.459 19.482 113.303 19.536 113.111 19.536H105.461V18.384H113.255L112.481 18.942C112.493 18.246 112.367 17.622 112.103 17.07C111.839 16.518 111.461 16.086 110.969 15.774C110.489 15.462 109.913 15.306 109.241 15.306C108.557 15.306 107.957 15.468 107.441 15.792C106.925 16.116 106.523 16.566 106.235 17.142C105.959 17.706 105.821 18.354 105.821 19.086C105.821 19.818 105.977 20.466 106.289 21.03C106.613 21.594 107.051 22.038 107.603 22.362C108.155 22.686 108.791 22.848 109.511 22.848C109.943 22.848 110.375 22.776 110.807 22.632C111.251 22.476 111.605 22.284 111.869 22.056C112.001 21.948 112.151 21.894 112.319 21.894C112.487 21.882 112.631 21.924 112.751 22.02C112.907 22.164 112.985 22.32 112.985 22.488C112.997 22.656 112.931 22.8 112.787 22.92C112.391 23.256 111.887 23.538 111.275 23.766C110.663 23.982 110.075 24.09 109.511 24.09ZM119.541 24.09C118.833 24.09 118.131 23.97 117.435 23.73C116.739 23.49 116.175 23.13 115.743 22.65C115.611 22.506 115.557 22.344 115.581 22.164C115.605 21.984 115.695 21.828 115.851 21.696C116.019 21.576 116.193 21.528 116.373 21.552C116.553 21.576 116.703 21.654 116.823 21.786C117.111 22.122 117.489 22.38 117.957 22.56C118.437 22.74 118.965 22.83 119.541 22.83C120.429 22.83 121.071 22.68 121.467 22.38C121.863 22.068 122.067 21.696 122.079 21.264C122.079 20.832 121.875 20.478 121.467 20.202C121.059 19.914 120.387 19.692 119.451 19.536C118.239 19.344 117.351 19.008 116.787 18.528C116.223 18.048 115.941 17.478 115.941 16.818C115.941 16.206 116.103 15.696 116.427 15.288C116.751 14.88 117.183 14.574 117.723 14.37C118.263 14.166 118.857 14.064 119.505 14.064C120.309 14.064 120.999 14.202 121.575 14.478C122.163 14.754 122.637 15.126 122.997 15.594C123.117 15.75 123.165 15.912 123.141 16.08C123.117 16.248 123.021 16.386 122.853 16.494C122.709 16.578 122.541 16.608 122.349 16.584C122.169 16.548 122.013 16.458 121.881 16.314C121.581 15.966 121.233 15.714 120.837 15.558C120.441 15.39 119.985 15.306 119.469 15.306C118.809 15.306 118.281 15.444 117.885 15.72C117.489 15.984 117.291 16.32 117.291 16.728C117.291 17.004 117.363 17.244 117.507 17.448C117.663 17.652 117.921 17.832 118.281 17.988C118.653 18.144 119.169 18.276 119.829 18.384C120.729 18.528 121.437 18.744 121.953 19.032C122.481 19.308 122.853 19.638 123.069 20.022C123.297 20.394 123.411 20.802 123.411 21.246C123.411 21.81 123.243 22.308 122.907 22.74C122.583 23.16 122.127 23.49 121.539 23.73C120.963 23.97 120.297 24.09 119.541 24.09ZM139.522 24C139.318 24 139.15 23.934 139.018 23.802C138.886 23.67 138.82 23.508 138.82 23.316V18.636C138.82 17.892 138.676 17.28 138.388 16.8C138.112 16.32 137.728 15.96 137.236 15.72C136.756 15.48 136.21 15.36 135.598 15.36C135.01 15.36 134.476 15.474 133.996 15.702C133.528 15.93 133.156 16.242 132.88 16.638C132.604 17.034 132.466 17.484 132.466 17.988H131.476C131.5 17.232 131.704 16.56 132.088 15.972C132.472 15.372 132.982 14.904 133.618 14.568C134.254 14.22 134.962 14.046 135.742 14.046C136.594 14.046 137.356 14.226 138.028 14.586C138.7 14.934 139.228 15.45 139.612 16.134C140.008 16.818 140.206 17.652 140.206 18.636V23.316C140.206 23.508 140.14 23.67 140.008 23.802C139.876 23.934 139.714 24 139.522 24ZM131.782 24C131.566 24 131.392 23.94 131.26 23.82C131.14 23.688 131.08 23.52 131.08 23.316V14.856C131.08 14.64 131.14 14.472 131.26 14.352C131.392 14.22 131.566 14.154 131.782 14.154C131.986 14.154 132.148 14.22 132.268 14.352C132.4 14.472 132.466 14.64 132.466 14.856V23.316C132.466 23.52 132.4 23.688 132.268 23.82C132.148 23.94 131.986 24 131.782 24ZM147.743 24.09C146.783 24.09 145.925 23.874 145.169 23.442C144.413 23.01 143.819 22.416 143.387 21.66C142.955 20.904 142.739 20.046 142.739 19.086C142.739 18.114 142.955 17.25 143.387 16.494C143.819 15.738 144.413 15.144 145.169 14.712C145.925 14.28 146.783 14.064 147.743 14.064C148.703 14.064 149.555 14.28 150.299 14.712C151.055 15.144 151.649 15.738 152.081 16.494C152.513 17.25 152.735 18.114 152.747 19.086C152.747 20.046 152.525 20.904 152.081 21.66C151.649 22.416 151.055 23.01 150.299 23.442C149.555 23.874 148.703 24.09 147.743 24.09ZM147.743 22.83C148.439 22.83 149.063 22.668 149.615 22.344C150.167 22.02 150.599 21.576 150.911 21.012C151.223 20.448 151.379 19.806 151.379 19.086C151.379 18.366 151.223 17.724 150.911 17.16C150.599 16.584 150.167 16.134 149.615 15.81C149.063 15.486 148.439 15.324 147.743 15.324C147.047 15.324 146.423 15.486 145.871 15.81C145.319 16.134 144.881 16.584 144.557 17.16C144.245 17.724 144.089 18.366 144.089 19.086C144.089 19.806 144.245 20.448 144.557 21.012C144.881 21.576 145.319 22.02 145.871 22.344C146.423 22.668 147.047 22.83 147.743 22.83ZM159.727 24.108C158.875 24.108 158.113 23.934 157.441 23.586C156.769 23.226 156.235 22.704 155.839 22.02C155.455 21.336 155.263 20.502 155.263 19.518V14.838C155.263 14.646 155.329 14.484 155.461 14.352C155.593 14.22 155.755 14.154 155.947 14.154C156.151 14.154 156.319 14.22 156.451 14.352C156.583 14.484 156.649 14.646 156.649 14.838V19.518C156.649 20.262 156.787 20.874 157.063 21.354C157.351 21.834 157.735 22.194 158.215 22.434C158.707 22.674 159.259 22.794 159.871 22.794C160.459 22.794 160.987 22.68 161.455 22.452C161.935 22.224 162.313 21.912 162.589 21.516C162.865 21.12 163.003 20.67 163.003 20.166H163.993C163.957 20.922 163.747 21.6 163.363 22.2C162.991 22.788 162.487 23.256 161.851 23.604C161.215 23.94 160.507 24.108 159.727 24.108ZM163.687 24C163.483 24 163.315 23.94 163.183 23.82C163.063 23.688 163.003 23.514 163.003 23.298V14.838C163.003 14.634 163.063 14.472 163.183 14.352C163.315 14.22 163.483 14.154 163.687 14.154C163.891 14.154 164.059 14.22 164.191 14.352C164.323 14.472 164.389 14.634 164.389 14.838V23.298C164.389 23.514 164.323 23.688 164.191 23.82C164.059 23.94 163.891 24 163.687 24ZM171.063 24.09C170.355 24.09 169.653 23.97 168.957 23.73C168.261 23.49 167.697 23.13 167.265 22.65C167.133 22.506 167.079 22.344 167.103 22.164C167.127 21.984 167.217 21.828 167.373 21.696C167.541 21.576 167.715 21.528 167.895 21.552C168.075 21.576 168.225 21.654 168.345 21.786C168.633 22.122 169.011 22.38 169.479 22.56C169.959 22.74 170.487 22.83 171.063 22.83C171.951 22.83 172.593 22.68 172.989 22.38C173.385 22.068 173.589 21.696 173.601 21.264C173.601 20.832 173.397 20.478 172.989 20.202C172.581 19.914 171.909 19.692 170.973 19.536C169.761 19.344 168.873 19.008 168.309 18.528C167.745 18.048 167.463 17.478 167.463 16.818C167.463 16.206 167.625 15.696 167.949 15.288C168.273 14.88 168.705 14.574 169.245 14.37C169.785 14.166 170.379 14.064 171.027 14.064C171.831 14.064 172.521 14.202 173.097 14.478C173.685 14.754 174.159 15.126 174.519 15.594C174.639 15.75 174.687 15.912 174.663 16.08C174.639 16.248 174.543 16.386 174.375 16.494C174.231 16.578 174.063 16.608 173.871 16.584C173.691 16.548 173.535 16.458 173.403 16.314C173.103 15.966 172.755 15.714 172.359 15.558C171.963 15.39 171.507 15.306 170.991 15.306C170.331 15.306 169.803 15.444 169.407 15.72C169.011 15.984 168.813 16.32 168.813 16.728C168.813 17.004 168.885 17.244 169.029 17.448C169.185 17.652 169.443 17.832 169.803 17.988C170.175 18.144 170.691 18.276 171.351 18.384C172.251 18.528 172.959 18.744 173.475 19.032C174.003 19.308 174.375 19.638 174.591 20.022C174.819 20.394 174.933 20.802 174.933 21.246C174.933 21.81 174.765 22.308 174.429 22.74C174.105 23.16 173.649 23.49 173.061 23.73C172.485 23.97 171.819 24.09 171.063 24.09ZM185.895 20.814C185.691 20.814 185.523 20.748 185.391 20.616C185.259 20.484 185.193 20.31 185.193 20.094C185.193 19.614 185.307 19.098 185.535 18.546C185.775 17.994 186.105 17.52 186.525 17.124C186.897 16.776 187.251 16.44 187.587 16.116C187.923 15.792 188.193 15.432 188.397 15.036C188.613 14.64 188.721 14.142 188.721 13.542C188.721 13.074 188.607 12.648 188.379 12.264C188.151 11.868 187.827 11.556 187.407 11.328C186.999 11.1 186.519 10.986 185.967 10.986C185.367 10.986 184.851 11.112 184.419 11.364C183.987 11.604 183.651 11.94 183.411 12.372C183.183 12.804 183.069 13.302 183.069 13.866C183.069 14.07 183.003 14.238 182.871 14.37C182.751 14.49 182.589 14.55 182.385 14.55C182.181 14.55 182.013 14.49 181.881 14.37C181.749 14.238 181.683 14.07 181.683 13.866C181.683 13.038 181.863 12.312 182.223 11.688C182.583 11.052 183.081 10.554 183.717 10.194C184.365 9.834 185.115 9.654 185.967 9.654C186.759 9.654 187.467 9.828 188.091 10.176C188.715 10.512 189.207 10.98 189.567 11.58C189.927 12.168 190.107 12.846 190.107 13.614C190.107 14.286 189.987 14.856 189.747 15.324C189.507 15.792 189.189 16.224 188.793 16.62C188.409 17.004 187.983 17.412 187.515 17.844C187.143 18.18 186.897 18.558 186.777 18.978C186.657 19.398 186.597 19.77 186.597 20.094C186.597 20.31 186.531 20.484 186.399 20.616C186.267 20.748 186.099 20.814 185.895 20.814ZM185.895 24C185.595 24 185.343 23.898 185.139 23.694C184.947 23.49 184.851 23.244 184.851 22.956C184.851 22.656 184.953 22.404 185.157 22.2C185.361 21.996 185.607 21.894 185.895 21.894C186.183 21.894 186.429 21.996 186.633 22.2C186.849 22.404 186.957 22.656 186.957 22.956C186.957 23.244 186.849 23.49 186.633 23.694C186.429 23.898 186.183 24 185.895 24Z" fill="white"/>
</svg>

