<svg width="35" height="35" viewBox="0 0 35 35" fill="none" xmlns="http://www.w3.org/2000/svg">
    <circle cx="17.5" cy="17.5" r="17.5" fill="#FFCDB6"/>
    <path d="M19.6589 6.19405C18.9411 5.85758 18.1168 5.96405 17.5076 6.47167L11.8201 11.2115H8.02148C6.90697 11.2115 6 12.1185 6 13.233V21.7674C6 22.882 6.90652 23.7889 8.02148 23.7889H11.8201L17.5076 28.5287C18.1172 29.0368 18.9415 29.1424 19.6589 28.8064C20.3768 28.4699 20.8229 27.7686 20.8229 26.9758V8.02465C20.8233 7.23176 20.3772 6.53007 19.6589 6.19405ZM11.3902 22.4498H8.02148C7.64998 22.4498 7.34766 22.1385 7.34766 21.767V13.233C7.34766 12.8615 7.64998 12.5592 8.02148 12.5592H11.3902V22.4498ZM19.4757 26.9758C19.4757 27.3733 19.1787 27.5431 19.0875 27.5858C18.9963 27.6285 18.6756 27.748 18.3706 27.4933L12.7378 22.7993V12.2007L18.3706 7.50669C18.6761 7.25198 18.9968 7.37147 19.0875 7.41415C19.1787 7.45683 19.4757 7.62664 19.4757 8.0242V26.9758Z" fill="white"/>
    <path d="M26.5839 18.4397L28.8026 16.2209C29.0659 15.9577 29.0659 15.5314 28.8026 15.2681C28.5394 15.0049 28.1131 15.0049 27.8498 15.2681L25.6311 17.4869L23.4124 15.2681C23.1492 15.0049 22.7229 15.0049 22.4596 15.2681C22.1964 15.5314 22.1964 15.9577 22.4596 16.2209L24.6783 18.4397L22.4596 20.6584C22.1964 20.9216 22.1964 21.348 22.4596 21.6112C22.7229 21.8745 23.1492 21.8745 23.4124 21.6112L25.6311 19.3925L27.8498 21.6112C28.1131 21.8745 28.5394 21.8745 28.8026 21.6112C29.0659 21.348 29.0659 20.9216 28.8026 20.6584L26.5839 18.4397Z" fill="white"/>
</svg>
