<svg width="75" height="75" viewBox="0 0 75 75" fill="none" xmlns="http://www.w3.org/2000/svg">
    <rect x="1" y="1" width="73" height="73" rx="16" fill="white" stroke="#04D99D" stroke-width="2"/>
    <path d="M19.9255 28.7011C16.0502 28.7011 12.896 25.5208 12.896 21.607C12.896 17.6932 16.0502 14.5129 19.9255 14.5129C23.8008 14.5129 26.9549 17.6932 26.9549 21.607C26.9549 25.5208 23.8008 28.7011 19.9255 28.7011Z" fill="#FFCDB6"/>
    <path d="M26.1768 62H13.6737C11.8453 62 10.1788 61.1462 9.09992 59.6592C8.02108 58.1693 7.71733 56.307 8.27094 54.5478L14.5225 34.6836C15.2862 32.2597 17.407 30.6953 19.9252 30.6953C22.4435 30.6953 24.5642 32.2626 25.3251 34.6836L31.5767 54.5478C32.1303 56.307 31.8293 58.1693 30.7476 59.6592C29.6688 61.1462 28.0023 62 26.1768 62Z" fill="#FFCDB6"/>
    <path d="M56.0749 28.7011C52.1996 28.7011 49.0454 25.5208 49.0454 21.607C49.0454 17.6932 52.1996 14.5157 56.0749 14.5157C59.9502 14.5157 63.1044 17.6961 63.1044 21.6099C63.1044 25.5237 59.9502 28.7011 56.0749 28.7011Z" fill="#FFCDB6"/>
    <path d="M56.075 62C53.5567 62 51.436 60.4328 50.6751 58.0117L44.4235 38.1476C43.8699 36.3912 44.1708 34.5318 45.2497 33.0419C46.3285 31.552 47.995 30.6982 49.8234 30.6953H62.3265C64.1521 30.6953 65.8214 31.5491 66.9002 33.0361C67.979 34.526 68.2828 36.3855 67.7292 38.1476L61.4776 58.0117C60.7139 60.4357 58.596 62 56.075 62Z" fill="#FFCDB6"/>
    <path d="M37.9987 62C37.3429 62 36.812 61.4642 36.812 60.8024V15.1976C36.812 14.5358 37.3429 14 37.9987 14C38.6545 14 39.1855 14.5358 39.1855 15.1976V60.8024C39.1883 61.4642 38.6574 62 37.9987 62Z" fill="#3EE5B1"/>
</svg>
