<svg width="1440" height="800" viewBox="0 0 1440 800" fill="none" xmlns="http://www.w3.org/2000/svg">
    <g clip-path="url(#clip0)">
        <rect width="1440" height="800" fill="white"/>
        <path d="M1950 -797C1950 -789.473 -37 1732 -37 1732H855.128L1950 -797Z" fill="url(#paint0_linear)" fill-opacity="0.5"/>
        <path d="M1763 -610C1763 -603.511 299 1570 299 1570H923.086L1763 -610Z" fill="url(#paint1_linear)" fill-opacity="0.5"/>
        <path d="M45.8072 58.0972C42.8812 56.4488 40.3991 54.0768 38.6435 51.2424C39.3094 45.8349 40.0964 40.9702 41.0045 38.4977C39.9955 40.8094 38.4821 44.6288 37.352 48.7497C36.7265 47.3225 36.2825 45.8349 36 44.267C37.352 41.2315 39.0269 38.8595 41.065 36.7488C41.4484 36.3467 41.7511 36.1859 42.0336 36.206C42.3161 36.2261 42.5785 36.4673 42.8812 36.9498C45.1009 40.6486 46.4327 44.6489 46.6749 48.9909C46.7556 50.2976 46.4731 54.7602 45.8072 58.0972Z" fill="#04D99D"/>
        <path d="M70.9107 53.2928C72.4241 46.0962 72.4645 37.9348 72.3434 33.5123C72.1214 40.5682 69.0744 50.6795 66.895 57.072C65.9062 57.7756 64.8569 58.3786 63.747 58.8812C63.1013 55.9664 61.9914 53.1923 60.5183 50.4785C59.2672 48.1869 59.2066 45.7344 60.3569 43.3221C62.7784 38.2765 65.9869 34.1355 70.5273 30.7583C71.0923 30.3362 71.5564 30.1754 71.8995 30.2759C72.0811 30.3362 72.2022 30.4568 72.3434 30.6578C72.4847 30.8588 72.6259 31.1001 72.8075 31.3815C73.0093 31.7031 73.2111 32.0248 73.3726 32.3866C73.534 32.7082 73.6753 33.05 73.8165 33.3716C73.9578 33.7133 74.0788 34.0551 74.2201 34.3968C74.321 34.7184 74.4421 35.0602 74.543 35.4019C74.5631 35.4622 74.5833 35.5024 74.6035 35.5627C74.6842 35.8643 74.7649 36.1658 74.8457 36.4874C74.9264 36.8493 75.0071 37.191 75.0676 37.5729C75.2492 38.6786 75.3501 39.7842 75.3501 40.9501C75.3098 45.6138 73.6551 49.9156 70.9107 53.2928Z" fill="#04D99D"/>
        <path d="M52.8096 60.5296C52.7289 60.4894 52.6482 60.4693 52.5674 60.4291C52.5473 60.4492 52.5271 60.4291 52.5069 60.4291C51.9822 60.2079 51.4778 59.9868 50.9733 59.7456C50.3073 58.9214 49.823 57.9565 49.5002 56.8911C48.7939 54.6799 48.4912 52.4083 48.4307 50.3177C48.471 48.207 48.6728 46.3978 49.0562 44.5685C49.2177 43.8247 49.3589 43.3624 49.5809 43.1212C49.5809 43.1212 50.61 53.8959 52.7894 60.4693C52.7894 60.4693 52.8096 60.5095 52.8096 60.5296Z" fill="#04D99D"/>
        <path d="M62.1115 59.5245C60.6989 60.027 59.1855 60.3688 57.6316 60.5296C54.8469 56.5293 50.5083 49.5136 49.5801 43.1211C49.9029 42.7593 50.3873 42.9603 51.3357 43.5835C57.2886 47.4833 60.6989 52.8908 62.1115 59.5245Z" fill="#04D99D"/>
        <path d="M64.9773 32.9092C62.3944 34.2159 59.2464 33.1706 57.9347 30.6176C56.6231 28.0646 57.6522 24.8483 60.1747 23.5618C61.6074 22.8381 63.2217 22.8381 64.5738 23.4211C64.7957 23.5216 64.9975 23.6422 65.1993 23.7628C66.0267 24.2653 66.7128 24.989 67.1971 25.8936C68.5289 28.4868 67.5401 31.6227 64.9773 32.9092Z" fill="#FFCDB6"/>
        <path d="M47.8254 35.3014C45.2425 36.5678 42.1147 35.5426 40.803 32.9696C39.4712 30.4367 40.5205 27.2003 43.0429 25.9137C45.6259 24.6071 48.7133 25.6524 50.0653 28.2456C51.377 30.8589 50.3882 34.0149 47.8254 35.3014Z" fill="#FFCDB6"/>
        <path d="M57.9553 38.6384C57.9957 41.0305 56.2805 42.8397 53.8993 42.9402C51.6594 43.0206 49.6818 41.131 49.6011 38.8394C49.5204 36.5678 51.4374 34.5576 53.6975 34.5174C55.998 34.4772 57.9352 36.3266 57.9553 38.6384Z" fill="#FFCDB6"/>
        <circle cx="108.5" cy="40.5" r="17.5" fill="#FFCDB6"/>
        <path d="M110.659 29.194C109.941 28.8576 109.117 28.964 108.508 29.4717L102.82 34.2115H99.0215C97.907 34.2115 97 35.1185 97 36.233V44.7674C97 45.8819 97.9065 46.7889 99.0215 46.7889H102.82L108.508 51.5287C109.117 52.0368 109.942 52.1424 110.659 51.8064C111.377 51.4699 111.823 50.7686 111.823 49.9758V31.0247C111.823 30.2318 111.377 29.5301 110.659 29.194ZM102.39 45.4498H99.0215C98.65 45.4498 98.3477 45.1385 98.3477 44.767V36.233C98.3477 35.8615 98.65 35.5592 99.0215 35.5592H102.39V45.4498ZM110.476 49.9758C110.476 50.3733 110.179 50.5431 110.088 50.5858C109.996 50.6285 109.676 50.748 109.371 50.4933L103.738 45.7993V35.2007L109.371 30.5067C109.676 30.252 109.997 30.3715 110.088 30.4142C110.179 30.4568 110.476 30.6266 110.476 31.0242V49.9758V49.9758Z" fill="white"/>
        <path d="M117.583 41.4397L119.802 39.2209C120.065 38.9577 120.065 38.5314 119.802 38.2681C119.539 38.0049 119.113 38.0049 118.849 38.2681L116.631 40.4869L114.412 38.2681C114.149 38.0049 113.722 38.0049 113.459 38.2681C113.196 38.5314 113.196 38.9577 113.459 39.2209L115.678 41.4397L113.459 43.6584C113.196 43.9216 113.196 44.348 113.459 44.6112C113.722 44.8745 114.149 44.8745 114.412 44.6112L116.631 42.3925L118.849 44.6112C119.113 44.8745 119.539 44.8745 119.802 44.6112C120.065 44.348 120.065 43.9216 119.802 43.6584L117.583 41.4397Z" fill="white"/>
        <circle cx="1404.5" cy="651.5" r="123.5" fill="#FFCDB6"/>
        <path d="M428.117 618.065C427.43 617.98 426.949 618.749 427.35 619.297C428.482 620.836 430.912 623.134 435.645 623.917C442.98 625.13 447.229 618.867 454.7 616.721C455.16 616.591 455.325 616.045 454.976 615.73C452.817 613.801 446.84 608.817 441.373 607.499C435.034 605.967 428.905 606.69 426.557 612.868C426.228 613.733 426.685 614.684 427.567 614.981C429.857 615.77 434.526 616.912 439.593 615.56C439.593 615.56 437.562 619.197 428.117 618.065Z" fill="#04D99D"/>
        <path d="M373.989 594.911C374.358 594.817 374.451 594.327 374.135 594.126C373.247 593.563 371.54 592.871 368.956 593.417C364.951 594.263 364.026 598.326 360.624 600.922C360.414 601.08 360.438 601.394 360.68 601.485C362.174 602.043 366.237 603.403 369.305 602.984C372.863 602.501 375.862 600.903 375.829 597.264C375.825 596.755 375.4 596.359 374.888 596.383C373.556 596.436 370.933 596.785 368.604 598.493C368.604 598.493 368.918 596.221 373.989 594.911Z" fill="#04D99D"/>
        <path d="M409.634 586.715C409.414 587.02 409.654 587.449 410.019 587.402C411.047 587.265 412.774 586.71 414.384 584.665C416.877 581.494 415.009 577.837 415.942 573.724C416 573.472 415.783 573.25 415.543 573.334C414.061 573.856 410.129 575.395 408.074 577.651C405.689 580.264 404.431 583.368 406.755 586.099C407.08 586.481 407.652 586.512 408.024 586.171C408.998 585.288 410.76 583.366 411.442 580.603C411.442 580.603 412.64 582.52 409.634 586.715Z" fill="#03A678"/>
        <path d="M355.162 549.787C355.919 550.426 357.096 549.883 357.045 548.913C356.895 546.186 355.788 541.535 350.739 536.892C342.915 529.698 332.929 533.864 322.312 530.581C321.66 530.376 321.034 530.9 321.205 531.55C322.277 535.548 325.524 546.19 331.033 552.048C337.416 558.842 345.314 562.777 352.96 557.226C354.031 556.448 354.229 554.953 353.407 553.906C351.285 551.169 346.594 546.148 339.473 543.798C339.473 543.798 344.751 541.037 355.162 549.787Z" fill="#025949"/>
        <circle cx="159.5" cy="40.5" r="17.5" fill="#FFCDB6"/>
        <path d="M167 33L152 48" stroke="white" stroke-width="2" stroke-linecap="round"/>
        <path d="M167 48L152 33" stroke="white" stroke-width="2" stroke-linecap="round"/>
    </g>
    <defs>
        <linearGradient id="paint0_linear" x1="-37" y1="467.495" x2="1949.99" y2="467.495" gradientUnits="userSpaceOnUse">
            <stop stop-color="white"/>
            <stop offset="1" stop-color="#FDECE0"/>
        </linearGradient>
        <linearGradient id="paint1_linear" x1="299" y1="479.995" x2="1688.99" y2="479.995" gradientUnits="userSpaceOnUse">
            <stop stop-color="white"/>
            <stop offset="1" stop-color="#FDECE0"/>
        </linearGradient>
        <clipPath id="clip0">
            <rect width="1440" height="800" fill="white"/>
        </clipPath>
    </defs>
</svg>
