<svg width="506" height="370" viewBox="0 0 506 370" fill="none" xmlns="http://www.w3.org/2000/svg">
<path fill-rule="evenodd" clip-rule="evenodd" d="M439.858 355.21C464.526 344.788 498.266 330.533 505.107 258.544C505.258 257.238 505.373 255.921 505.45 254.6C505.49 254.096 505.529 253.589 505.566 253.08C505.665 251.731 505.662 250.478 505.563 249.315C505.422 240.588 503.643 231.973 500.04 225.053C499.703 224.407 499.351 223.775 498.982 223.16L498.914 223.047C498.881 222.991 498.847 222.936 498.814 222.88L498.751 222.778L498.694 222.685C497.585 220.883 496.366 219.272 495.065 217.818C488.147 210.024 478.858 206.734 470.075 204.01C345.824 165.498 217.493 153.986 90.8531 170.001C69.869 172.656 48.1865 176.403 30.1332 191.951C23.0037 198.095 16.5908 206.575 11.7582 216.407L11.758 216.407C10.6348 218.676 9.59871 221.014 8.65957 223.416C5.41637 231.673 3.283 240.632 2.68071 249.792L2.50627 249.779C-4.15464 272.873 2.63489 308.512 20.8077 322.598C57.4657 358.496 111.405 362.045 160.825 363.715L241.139 366.427L321.587 369.143C360.827 370.465 401.325 371.569 437.873 356.05C438.527 355.772 439.189 355.493 439.858 355.21Z" fill="#FFF2EA"/>
<path d="M429.821 346.261C394.863 359.978 356.127 359.003 318.595 357.834C267.336 356.235 216.086 354.635 164.828 353.036C117.559 351.56 65.966 348.422 30.9031 316.69C13.521 304.238 7.02686 272.734 13.3979 252.32C145.275 260.95 276.273 266.53 407.86 254.227C428.011 252.346 497.135 222.916 494.569 255.238C489.05 324.871 454.119 336.726 429.821 346.261Z" fill="#666666"/>
<path d="M493.409 264.438C491.73 272.593 488.461 279.984 484.322 286.469C482.284 289.685 480.025 292.673 477.635 295.424C456.281 320.012 426.42 326.005 398.255 329.819C351.918 336.084 305.326 339.213 258.742 339.186C237.353 339.178 215.858 339.213 194.627 335.996C175.962 333.167 157.226 336.954 138.368 336.084C114.131 334.968 89.9829 330.117 66.5988 321.585C49.287 315.257 30.6307 304.422 20.6391 285.986C17.7216 280.625 15.5422 274.614 14.3471 267.883C11.5526 252.197 15.1468 236.115 22.2472 222.82C26.8696 214.129 33.0034 206.633 39.8227 201.202C57.0905 187.458 77.8295 184.145 97.9006 181.799C219.03 167.642 341.777 177.818 460.622 211.861C469.023 214.269 477.907 217.178 484.524 224.067C485.851 225.438 487.09 226.967 488.206 228.69C494.454 238.251 495.922 252.25 493.409 264.438Z" fill="#999999"/>
<path d="M493.409 264.438C491.73 272.593 488.461 279.984 484.322 286.469C449.4 286.434 414.477 291.249 379.555 291.873C286.326 293.552 193.089 292.313 99.8601 292.216C73.453 292.19 47.046 286.012 20.6389 285.986C17.7214 280.625 15.5421 274.614 14.3469 267.883C12.15 255.545 13.9075 242.961 18.2135 231.686C19.3735 228.62 20.7268 225.658 22.2471 222.82C55.4294 222.117 88.9633 223.637 122.014 223.654C206.323 223.707 290.641 221.115 374.95 221.168C382.868 221.168 445.718 224.05 484.524 224.067C485.851 225.438 487.09 226.967 488.206 228.69C489.076 230.017 489.85 231.432 490.526 232.917C494.788 242.109 495.57 253.946 493.409 264.438Z" fill="#666666"/>
<path d="M493.409 264.438C491.73 272.593 488.461 279.984 484.322 286.469C449.4 286.434 414.477 291.25 379.555 291.874C286.326 293.552 193.089 292.313 99.8601 292.216C73.453 292.19 47.046 286.012 20.6389 285.986C17.7214 280.625 15.5421 274.615 14.3469 267.883C12.15 255.545 13.9075 242.961 18.2135 231.687C47.5469 231.739 76.9945 232.68 106.117 232.697C200.585 232.75 295.061 230.158 389.529 230.21C397.025 230.21 448.521 232.267 490.526 232.917C494.788 242.109 495.57 253.946 493.409 264.438Z" fill="#CCCCCC"/>
<path d="M68.7253 265.633C88.0055 265.651 107.277 265.66 126.557 265.677C126.109 262.013 125.67 258.348 125.221 254.684C112.602 252.496 99.7458 251.687 86.951 252.267C83.3392 252.425 71.3528 251.555 68.7516 254.148C67.6707 255.202 69.0592 265.633 68.7253 265.633Z" fill="#FFF2EA"/>
<path d="M212.562 265.633C231.843 265.651 251.114 265.66 270.394 265.677C269.946 262.013 269.507 258.348 269.059 254.684C256.439 252.496 243.583 251.687 230.788 252.267C227.176 252.425 215.19 251.555 212.589 254.148C211.517 255.202 212.905 265.633 212.562 265.633Z" fill="white"/>
<path d="M356.408 265.633C375.689 265.651 394.96 265.66 414.24 265.677C413.792 262.013 413.353 258.348 412.904 254.684C400.285 252.496 387.429 251.687 374.634 252.267C371.022 252.425 359.036 251.555 356.435 254.148C355.363 255.202 356.751 265.633 356.408 265.633Z" fill="#FFF2EA"/>
<path opacity="0.7" d="M250.127 282.977C334.487 282.977 402.874 275.32 402.874 265.876C402.874 256.431 334.487 248.775 250.127 248.775C165.766 248.775 97.3787 256.431 97.3787 265.876C97.3787 275.32 165.766 282.977 250.127 282.977Z" fill="#666666"/>
<path d="M129.724 254.896L129.762 254.925L129.8 254.953C138.469 261.259 147.941 264.463 158.139 264.463C166.415 264.463 174.369 261.92 181.916 257.018L182.006 256.959L182.092 256.895C187.831 252.644 192.663 247.493 196.533 241.476L196.537 241.469L196.541 241.463C199.629 236.614 202.674 230.386 205.655 222.827L205.681 222.761L205.704 222.694C208.023 216.039 209.555 208.762 210.29 200.859C210.651 197.79 210.839 194.787 210.839 191.823C210.839 186.743 210.542 182.2 209.928 178.202L209.926 178.187L209.924 178.173C207.484 163.115 201.734 149.758 192.652 138.191L192.65 138.189C187.522 131.67 181.47 126.671 174.505 123.242C167.59 119.833 160.473 118.103 153.199 118.103C135.256 118.103 121.394 127.97 111.66 146.505L111.596 146.627L111.542 146.753C110.057 150.216 108.846 153.714 107.857 157.276L107.817 157.417L107.79 157.56C107.738 157.834 107.659 158.056 107.568 158.237L107.422 158.531L107.332 158.847C104.536 168.701 103.139 178.642 103.139 188.633C103.139 205.648 106.889 221.34 114.436 235.644C118.075 243.384 123.156 249.841 129.724 254.896ZM166.807 217.203L166.759 217.281L166.715 217.36C164.934 220.585 163.409 223.001 162.142 224.669C161.51 225.501 160.984 226.09 160.565 226.484C160.169 226.857 159.973 226.956 159.974 226.957C159.974 226.957 159.976 226.956 159.981 226.954C159.021 227.348 158.291 227.619 157.768 227.787C157.55 227.857 157.395 227.9 157.293 227.925C156.847 227.878 155.961 227.594 154.563 226.46C153.075 225.252 151.313 223.326 149.286 220.551C143.854 210.492 141.169 200.051 141.169 189.173C141.169 185.116 141.503 181.135 142.178 177.206L142.186 177.158L142.193 177.11C143.102 170.791 144.75 164.909 147.144 159.448L147.146 159.444C148.323 156.75 149.462 155.014 150.468 153.997C151.429 153.025 152.09 152.873 152.499 152.873C153.122 152.873 154.262 153.133 156.045 154.119C157.754 155.064 159.814 156.541 162.236 158.624C164.461 161.005 166.756 164.437 169.017 169.045L169.022 169.055C171.295 173.648 172.724 178.157 173.376 182.601L173.382 182.645L173.39 182.688C173.818 185.164 174.049 188.137 174.049 191.643C174.049 193.239 173.905 194.882 173.615 196.62L173.525 196.887L173.419 197.198L173.373 197.523C172.82 201.44 171.556 206.078 169.509 211.445L169.279 212.047V212.366C168.574 214.074 167.749 215.69 166.807 217.203ZM157.182 227.949C157.182 227.949 157.186 227.948 157.195 227.947C157.186 227.948 157.182 227.949 157.182 227.949Z" fill="#F98E12" stroke="#FFF2EA" stroke-width="7"/>
<mask id="path-11-outside-1" maskUnits="userSpaceOnUse" x="134.044" y="0" width="288" height="268" fill="black">
<rect fill="white" x="134.044" width="288" height="268"/>
<path d="M412.689 128.773C411.159 119.993 408.989 112.243 406.169 105.563C402.639 97.6025 398.589 90.7125 394.009 84.9425C385.649 74.2025 376.839 66.6225 367.549 62.2425C354.019 56.5825 339.929 53.7525 325.229 53.7525C315.229 53.7525 305.529 55.6525 296.129 59.4725C295.219 59.9325 294.329 60.4425 293.439 60.9125C291.419 56.8725 289.339 52.9125 287.229 49.0225C285.119 45.1325 283.279 41.8825 281.709 39.2325L280.229 36.5125C277.539 31.8925 274.819 27.2925 272.129 22.6725L268.819 17.3025C268.149 16.0425 267.199 14.6025 266.019 12.9425C265.869 12.7425 265.709 12.5725 265.569 12.4125C264.949 11.3325 263.999 10.3525 262.709 9.47251C261.289 8.25251 257.759 6.82251 253.729 9.60251C249.689 12.3925 234.759 31.9125 236.719 45.1225C236.739 45.3025 237.449 49.8125 243.799 51.1525C244.419 51.2825 244.959 51.3325 245.459 51.3325C247.039 51.3325 248.099 50.7825 248.759 50.2525C250.599 48.7525 250.649 46.4025 250.649 46.2725C250.649 46.2025 251.249 39.8225 257.259 30.1625C257.389 30.4325 257.509 30.6925 257.659 30.9825L262.279 39.6725L263.349 41.6425L266.769 47.9425L276.729 66.2625C277.599 67.8925 278.419 69.4925 279.279 71.1225C279.079 71.3025 278.879 71.4725 278.679 71.6525C278.459 71.8725 278.259 72.1125 278.039 72.3325C277.879 72.4825 277.709 72.6225 277.529 72.7925C277.379 72.9225 277.239 73.0825 277.109 73.2325C269.809 80.8825 266.399 87.0025 262.719 92.4825L260.989 95.6025C259.169 98.6325 254.939 107.103 250.869 116.453C247.069 125.183 242.199 135.663 237.959 144.553C236.559 147.423 234.259 152.493 231.059 159.723C230.439 158.372 229.909 157.263 229.489 156.403C226.159 149.413 222.699 142.653 219.089 136.093C217.159 132.603 215.489 129.663 214.069 127.293L212.719 124.843C210.259 120.683 207.789 116.533 205.329 112.373L202.579 107.953C205.839 107.903 209.349 107.953 213.179 108.133C214.179 108.283 219.549 108.923 222.739 106.053C223.809 105.083 225.049 103.313 224.939 100.333C225.009 99.2025 224.789 94.8925 217.689 93.1025C211.519 91.5525 177.169 91.0725 164.319 100.063C162.609 101.233 160.219 104.773 163.389 109.763C165.049 112.393 167.399 113.193 169.449 113.193C170.959 113.193 172.329 112.773 173.199 112.313C173.269 112.273 177.809 110.363 187.019 109.063C187.179 109.443 187.349 109.843 187.579 110.273C188.849 113.033 189.529 114.473 189.579 114.633C189.629 114.783 190.469 116.513 192.109 119.803L196.329 127.623L197.309 129.393L200.439 135.053L204.789 142.963C202.819 143.643 200.909 144.812 199.199 145.973C192.099 150.793 184.979 155.592 177.879 160.413C174.089 162.583 169.079 165.822 162.839 170.143C158.919 173.083 156.649 174.723 155.989 175.053L154.839 175.963C152.799 177.423 150.889 178.973 149.119 180.583C148.169 181.262 146.929 182.423 145.419 184.073C142.909 186.943 141.799 189.443 142.089 191.523C142.219 192.433 142.449 193.363 142.759 194.313C143.229 195.703 143.539 196.543 143.709 196.833C143.869 197.122 144.469 197.673 145.489 198.443L145.729 198.623C147.299 199.573 149.009 200.143 150.849 200.343C153.849 200.673 158.349 200.563 164.329 200.013C167.789 199.723 170.119 199.573 171.379 199.573C176.619 199.313 180.049 199.193 181.629 199.193C186.549 199.413 190.639 199.703 193.899 200.073C198.379 200.563 203.479 201.423 209.179 202.683C209.839 202.863 210.509 203.033 211.199 203.153L220.559 205.383C223.019 206.023 225.079 206.063 226.729 205.513C227.529 205.243 228.199 204.833 228.789 204.273C229.499 203.653 230.009 202.953 230.339 202.213C230.799 201.483 231.359 200.493 232.069 199.203L233.819 195.803C237.479 188.083 239.939 183.073 241.209 180.773L246.559 170.233C247.799 167.733 249.069 165.243 250.419 162.803L250.489 162.823C251.459 176.533 254.239 189.683 258.899 202.233C262.429 211.583 266.709 219.723 271.769 226.663C282.819 242.713 296.169 253.173 311.809 258.013C318.509 259.983 325.269 260.953 332.099 260.953C341.039 260.953 349.709 258.963 358.119 254.983C366.519 251.003 375.199 244.153 384.139 234.453C384.379 233.993 384.669 233.593 385.009 233.243C395.349 220.663 403.059 206.383 408.119 190.443C412.109 178.323 414.289 166.062 414.639 153.723C414.639 144.482 413.979 136.153 412.689 128.773ZM221.199 183.703C220.539 186.043 219.489 188.763 217.119 189.273C217.029 189.293 216.919 189.273 216.829 189.293C214.209 188.633 211.509 188.033 208.729 187.463L206.179 187.003C199.839 185.783 193.619 185.013 187.459 184.663C183.619 184.503 181.139 184.443 180.049 184.513C176.009 184.473 171.979 184.663 167.999 185.083L166.509 185.143C166.909 184.943 167.679 184.393 168.789 183.483C170.769 182.023 172.829 180.583 174.939 179.153C181.239 174.693 188.179 170.483 195.769 166.513L196.919 165.943C199.399 164.683 201.159 163.883 202.219 163.513L204.299 162.633C205.269 162.273 206.249 161.883 207.269 161.443C208.509 160.913 209.799 160.533 211.039 160.033C211.609 160.103 212.169 160.293 212.719 160.653C214.179 161.623 215.049 163.243 215.849 164.803C217.329 167.653 218.799 170.503 220.289 173.333C221.039 174.753 221.779 176.213 222.019 177.803C222.269 179.812 221.729 181.803 221.199 183.703ZM379.189 162.213C378.369 168.113 376.789 174.633 374.419 181.793L373.549 184.383C372.149 188.653 369.719 193.973 366.319 200.323C363.149 205.983 359.729 210.783 356.089 214.713C348.209 223.493 339.979 227.883 331.399 227.883C319.049 227.883 307.649 219.283 297.179 202.063C293.539 195.713 290.709 188.953 288.709 181.793C286.229 171.753 285.009 161.923 285.009 152.343C285.009 145.883 285.429 139.983 286.249 134.663C287.069 130.503 288.019 126.353 289.069 122.193C290.949 115.493 293.289 109.723 296.119 104.863C296.279 104.623 296.429 104.403 296.589 104.183L298.679 108.423C300.499 111.983 302.289 115.603 304.029 119.273L312.989 138.123L316.069 144.603L317.039 146.633L321.339 155.493C323.229 159.093 324.239 160.973 324.349 161.113C324.459 161.262 325.329 162.793 326.969 165.733C328.079 168.053 329.449 169.383 331.119 169.713C332.779 170.043 334.379 169.843 335.889 169.093C337.879 168.123 339.349 166.643 340.329 164.633C341.199 162.773 341.309 160.873 340.659 158.923C340.019 156.973 339.379 155.363 338.769 154.063L336.369 148.223C334.219 143.312 332.069 138.403 329.919 133.503L328.589 130.693C327.369 127.863 325.819 124.463 323.909 120.463C320.499 113.323 316.829 106.143 312.909 98.9725C312.969 99.0125 313.019 99.0425 313.059 99.0625C312.219 97.1425 310.659 94.0625 308.849 90.6225C314.279 86.4725 319.959 84.3925 325.929 84.3925C335.339 84.3925 344.269 86.7625 352.739 91.4925C361.209 96.9125 367.959 105.113 373.029 116.093L373.739 117.643C376.089 122.953 377.619 128.163 378.329 133.233C379.389 138.312 379.919 143.693 379.919 149.343C379.899 153.773 379.659 158.043 379.189 162.213Z"/>
</mask>
<path d="M412.689 128.773C411.159 119.993 408.989 112.243 406.169 105.563C402.639 97.6025 398.589 90.7125 394.009 84.9425C385.649 74.2025 376.839 66.6225 367.549 62.2425C354.019 56.5825 339.929 53.7525 325.229 53.7525C315.229 53.7525 305.529 55.6525 296.129 59.4725C295.219 59.9325 294.329 60.4425 293.439 60.9125C291.419 56.8725 289.339 52.9125 287.229 49.0225C285.119 45.1325 283.279 41.8825 281.709 39.2325L280.229 36.5125C277.539 31.8925 274.819 27.2925 272.129 22.6725L268.819 17.3025C268.149 16.0425 267.199 14.6025 266.019 12.9425C265.869 12.7425 265.709 12.5725 265.569 12.4125C264.949 11.3325 263.999 10.3525 262.709 9.47251C261.289 8.25251 257.759 6.82251 253.729 9.60251C249.689 12.3925 234.759 31.9125 236.719 45.1225C236.739 45.3025 237.449 49.8125 243.799 51.1525C244.419 51.2825 244.959 51.3325 245.459 51.3325C247.039 51.3325 248.099 50.7825 248.759 50.2525C250.599 48.7525 250.649 46.4025 250.649 46.2725C250.649 46.2025 251.249 39.8225 257.259 30.1625C257.389 30.4325 257.509 30.6925 257.659 30.9825L262.279 39.6725L263.349 41.6425L266.769 47.9425L276.729 66.2625C277.599 67.8925 278.419 69.4925 279.279 71.1225C279.079 71.3025 278.879 71.4725 278.679 71.6525C278.459 71.8725 278.259 72.1125 278.039 72.3325C277.879 72.4825 277.709 72.6225 277.529 72.7925C277.379 72.9225 277.239 73.0825 277.109 73.2325C269.809 80.8825 266.399 87.0025 262.719 92.4825L260.989 95.6025C259.169 98.6325 254.939 107.103 250.869 116.453C247.069 125.183 242.199 135.663 237.959 144.553C236.559 147.423 234.259 152.493 231.059 159.723C230.439 158.372 229.909 157.263 229.489 156.403C226.159 149.413 222.699 142.653 219.089 136.093C217.159 132.603 215.489 129.663 214.069 127.293L212.719 124.843C210.259 120.683 207.789 116.533 205.329 112.373L202.579 107.953C205.839 107.903 209.349 107.953 213.179 108.133C214.179 108.283 219.549 108.923 222.739 106.053C223.809 105.083 225.049 103.313 224.939 100.333C225.009 99.2025 224.789 94.8925 217.689 93.1025C211.519 91.5525 177.169 91.0725 164.319 100.063C162.609 101.233 160.219 104.773 163.389 109.763C165.049 112.393 167.399 113.193 169.449 113.193C170.959 113.193 172.329 112.773 173.199 112.313C173.269 112.273 177.809 110.363 187.019 109.063C187.179 109.443 187.349 109.843 187.579 110.273C188.849 113.033 189.529 114.473 189.579 114.633C189.629 114.783 190.469 116.513 192.109 119.803L196.329 127.623L197.309 129.393L200.439 135.053L204.789 142.963C202.819 143.643 200.909 144.812 199.199 145.973C192.099 150.793 184.979 155.592 177.879 160.413C174.089 162.583 169.079 165.822 162.839 170.143C158.919 173.083 156.649 174.723 155.989 175.053L154.839 175.963C152.799 177.423 150.889 178.973 149.119 180.583C148.169 181.262 146.929 182.423 145.419 184.073C142.909 186.943 141.799 189.443 142.089 191.523C142.219 192.433 142.449 193.363 142.759 194.313C143.229 195.703 143.539 196.543 143.709 196.833C143.869 197.122 144.469 197.673 145.489 198.443L145.729 198.623C147.299 199.573 149.009 200.143 150.849 200.343C153.849 200.673 158.349 200.563 164.329 200.013C167.789 199.723 170.119 199.573 171.379 199.573C176.619 199.313 180.049 199.193 181.629 199.193C186.549 199.413 190.639 199.703 193.899 200.073C198.379 200.563 203.479 201.423 209.179 202.683C209.839 202.863 210.509 203.033 211.199 203.153L220.559 205.383C223.019 206.023 225.079 206.063 226.729 205.513C227.529 205.243 228.199 204.833 228.789 204.273C229.499 203.653 230.009 202.953 230.339 202.213C230.799 201.483 231.359 200.493 232.069 199.203L233.819 195.803C237.479 188.083 239.939 183.073 241.209 180.773L246.559 170.233C247.799 167.733 249.069 165.243 250.419 162.803L250.489 162.823C251.459 176.533 254.239 189.683 258.899 202.233C262.429 211.583 266.709 219.723 271.769 226.663C282.819 242.713 296.169 253.173 311.809 258.013C318.509 259.983 325.269 260.953 332.099 260.953C341.039 260.953 349.709 258.963 358.119 254.983C366.519 251.003 375.199 244.153 384.139 234.453C384.379 233.993 384.669 233.593 385.009 233.243C395.349 220.663 403.059 206.383 408.119 190.443C412.109 178.323 414.289 166.062 414.639 153.723C414.639 144.482 413.979 136.153 412.689 128.773ZM221.199 183.703C220.539 186.043 219.489 188.763 217.119 189.273C217.029 189.293 216.919 189.273 216.829 189.293C214.209 188.633 211.509 188.033 208.729 187.463L206.179 187.003C199.839 185.783 193.619 185.013 187.459 184.663C183.619 184.503 181.139 184.443 180.049 184.513C176.009 184.473 171.979 184.663 167.999 185.083L166.509 185.143C166.909 184.943 167.679 184.393 168.789 183.483C170.769 182.023 172.829 180.583 174.939 179.153C181.239 174.693 188.179 170.483 195.769 166.513L196.919 165.943C199.399 164.683 201.159 163.883 202.219 163.513L204.299 162.633C205.269 162.273 206.249 161.883 207.269 161.443C208.509 160.913 209.799 160.533 211.039 160.033C211.609 160.103 212.169 160.293 212.719 160.653C214.179 161.623 215.049 163.243 215.849 164.803C217.329 167.653 218.799 170.503 220.289 173.333C221.039 174.753 221.779 176.213 222.019 177.803C222.269 179.812 221.729 181.803 221.199 183.703ZM379.189 162.213C378.369 168.113 376.789 174.633 374.419 181.793L373.549 184.383C372.149 188.653 369.719 193.973 366.319 200.323C363.149 205.983 359.729 210.783 356.089 214.713C348.209 223.493 339.979 227.883 331.399 227.883C319.049 227.883 307.649 219.283 297.179 202.063C293.539 195.713 290.709 188.953 288.709 181.793C286.229 171.753 285.009 161.923 285.009 152.343C285.009 145.883 285.429 139.983 286.249 134.663C287.069 130.503 288.019 126.353 289.069 122.193C290.949 115.493 293.289 109.723 296.119 104.863C296.279 104.623 296.429 104.403 296.589 104.183L298.679 108.423C300.499 111.983 302.289 115.603 304.029 119.273L312.989 138.123L316.069 144.603L317.039 146.633L321.339 155.493C323.229 159.093 324.239 160.973 324.349 161.113C324.459 161.262 325.329 162.793 326.969 165.733C328.079 168.053 329.449 169.383 331.119 169.713C332.779 170.043 334.379 169.843 335.889 169.093C337.879 168.123 339.349 166.643 340.329 164.633C341.199 162.773 341.309 160.873 340.659 158.923C340.019 156.973 339.379 155.363 338.769 154.063L336.369 148.223C334.219 143.312 332.069 138.403 329.919 133.503L328.589 130.693C327.369 127.863 325.819 124.463 323.909 120.463C320.499 113.323 316.829 106.143 312.909 98.9725C312.969 99.0125 313.019 99.0425 313.059 99.0625C312.219 97.1425 310.659 94.0625 308.849 90.6225C314.279 86.4725 319.959 84.3925 325.929 84.3925C335.339 84.3925 344.269 86.7625 352.739 91.4925C361.209 96.9125 367.959 105.113 373.029 116.093L373.739 117.643C376.089 122.953 377.619 128.163 378.329 133.233C379.389 138.312 379.919 143.693 379.919 149.343C379.899 153.773 379.659 158.043 379.189 162.213Z" fill="#64676A"/>
<path d="M412.689 128.773C411.159 119.993 408.989 112.243 406.169 105.563C402.639 97.6025 398.589 90.7125 394.009 84.9425C385.649 74.2025 376.839 66.6225 367.549 62.2425C354.019 56.5825 339.929 53.7525 325.229 53.7525C315.229 53.7525 305.529 55.6525 296.129 59.4725C295.219 59.9325 294.329 60.4425 293.439 60.9125C291.419 56.8725 289.339 52.9125 287.229 49.0225C285.119 45.1325 283.279 41.8825 281.709 39.2325L280.229 36.5125C277.539 31.8925 274.819 27.2925 272.129 22.6725L268.819 17.3025C268.149 16.0425 267.199 14.6025 266.019 12.9425C265.869 12.7425 265.709 12.5725 265.569 12.4125C264.949 11.3325 263.999 10.3525 262.709 9.47251C261.289 8.25251 257.759 6.82251 253.729 9.60251C249.689 12.3925 234.759 31.9125 236.719 45.1225C236.739 45.3025 237.449 49.8125 243.799 51.1525C244.419 51.2825 244.959 51.3325 245.459 51.3325C247.039 51.3325 248.099 50.7825 248.759 50.2525C250.599 48.7525 250.649 46.4025 250.649 46.2725C250.649 46.2025 251.249 39.8225 257.259 30.1625C257.389 30.4325 257.509 30.6925 257.659 30.9825L262.279 39.6725L263.349 41.6425L266.769 47.9425L276.729 66.2625C277.599 67.8925 278.419 69.4925 279.279 71.1225C279.079 71.3025 278.879 71.4725 278.679 71.6525C278.459 71.8725 278.259 72.1125 278.039 72.3325C277.879 72.4825 277.709 72.6225 277.529 72.7925C277.379 72.9225 277.239 73.0825 277.109 73.2325C269.809 80.8825 266.399 87.0025 262.719 92.4825L260.989 95.6025C259.169 98.6325 254.939 107.103 250.869 116.453C247.069 125.183 242.199 135.663 237.959 144.553C236.559 147.423 234.259 152.493 231.059 159.723C230.439 158.372 229.909 157.263 229.489 156.403C226.159 149.413 222.699 142.653 219.089 136.093C217.159 132.603 215.489 129.663 214.069 127.293L212.719 124.843C210.259 120.683 207.789 116.533 205.329 112.373L202.579 107.953C205.839 107.903 209.349 107.953 213.179 108.133C214.179 108.283 219.549 108.923 222.739 106.053C223.809 105.083 225.049 103.313 224.939 100.333C225.009 99.2025 224.789 94.8925 217.689 93.1025C211.519 91.5525 177.169 91.0725 164.319 100.063C162.609 101.233 160.219 104.773 163.389 109.763C165.049 112.393 167.399 113.193 169.449 113.193C170.959 113.193 172.329 112.773 173.199 112.313C173.269 112.273 177.809 110.363 187.019 109.063C187.179 109.443 187.349 109.843 187.579 110.273C188.849 113.033 189.529 114.473 189.579 114.633C189.629 114.783 190.469 116.513 192.109 119.803L196.329 127.623L197.309 129.393L200.439 135.053L204.789 142.963C202.819 143.643 200.909 144.812 199.199 145.973C192.099 150.793 184.979 155.592 177.879 160.413C174.089 162.583 169.079 165.822 162.839 170.143C158.919 173.083 156.649 174.723 155.989 175.053L154.839 175.963C152.799 177.423 150.889 178.973 149.119 180.583C148.169 181.262 146.929 182.423 145.419 184.073C142.909 186.943 141.799 189.443 142.089 191.523C142.219 192.433 142.449 193.363 142.759 194.313C143.229 195.703 143.539 196.543 143.709 196.833C143.869 197.122 144.469 197.673 145.489 198.443L145.729 198.623C147.299 199.573 149.009 200.143 150.849 200.343C153.849 200.673 158.349 200.563 164.329 200.013C167.789 199.723 170.119 199.573 171.379 199.573C176.619 199.313 180.049 199.193 181.629 199.193C186.549 199.413 190.639 199.703 193.899 200.073C198.379 200.563 203.479 201.423 209.179 202.683C209.839 202.863 210.509 203.033 211.199 203.153L220.559 205.383C223.019 206.023 225.079 206.063 226.729 205.513C227.529 205.243 228.199 204.833 228.789 204.273C229.499 203.653 230.009 202.953 230.339 202.213C230.799 201.483 231.359 200.493 232.069 199.203L233.819 195.803C237.479 188.083 239.939 183.073 241.209 180.773L246.559 170.233C247.799 167.733 249.069 165.243 250.419 162.803L250.489 162.823C251.459 176.533 254.239 189.683 258.899 202.233C262.429 211.583 266.709 219.723 271.769 226.663C282.819 242.713 296.169 253.173 311.809 258.013C318.509 259.983 325.269 260.953 332.099 260.953C341.039 260.953 349.709 258.963 358.119 254.983C366.519 251.003 375.199 244.153 384.139 234.453C384.379 233.993 384.669 233.593 385.009 233.243C395.349 220.663 403.059 206.383 408.119 190.443C412.109 178.323 414.289 166.062 414.639 153.723C414.639 144.482 413.979 136.153 412.689 128.773ZM221.199 183.703C220.539 186.043 219.489 188.763 217.119 189.273C217.029 189.293 216.919 189.273 216.829 189.293C214.209 188.633 211.509 188.033 208.729 187.463L206.179 187.003C199.839 185.783 193.619 185.013 187.459 184.663C183.619 184.503 181.139 184.443 180.049 184.513C176.009 184.473 171.979 184.663 167.999 185.083L166.509 185.143C166.909 184.943 167.679 184.393 168.789 183.483C170.769 182.023 172.829 180.583 174.939 179.153C181.239 174.693 188.179 170.483 195.769 166.513L196.919 165.943C199.399 164.683 201.159 163.883 202.219 163.513L204.299 162.633C205.269 162.273 206.249 161.883 207.269 161.443C208.509 160.913 209.799 160.533 211.039 160.033C211.609 160.103 212.169 160.293 212.719 160.653C214.179 161.623 215.049 163.243 215.849 164.803C217.329 167.653 218.799 170.503 220.289 173.333C221.039 174.753 221.779 176.213 222.019 177.803C222.269 179.812 221.729 181.803 221.199 183.703ZM379.189 162.213C378.369 168.113 376.789 174.633 374.419 181.793L373.549 184.383C372.149 188.653 369.719 193.973 366.319 200.323C363.149 205.983 359.729 210.783 356.089 214.713C348.209 223.493 339.979 227.883 331.399 227.883C319.049 227.883 307.649 219.283 297.179 202.063C293.539 195.713 290.709 188.953 288.709 181.793C286.229 171.753 285.009 161.923 285.009 152.343C285.009 145.883 285.429 139.983 286.249 134.663C287.069 130.503 288.019 126.353 289.069 122.193C290.949 115.493 293.289 109.723 296.119 104.863C296.279 104.623 296.429 104.403 296.589 104.183L298.679 108.423C300.499 111.983 302.289 115.603 304.029 119.273L312.989 138.123L316.069 144.603L317.039 146.633L321.339 155.493C323.229 159.093 324.239 160.973 324.349 161.113C324.459 161.262 325.329 162.793 326.969 165.733C328.079 168.053 329.449 169.383 331.119 169.713C332.779 170.043 334.379 169.843 335.889 169.093C337.879 168.123 339.349 166.643 340.329 164.633C341.199 162.773 341.309 160.873 340.659 158.923C340.019 156.973 339.379 155.363 338.769 154.063L336.369 148.223C334.219 143.312 332.069 138.403 329.919 133.503L328.589 130.693C327.369 127.863 325.819 124.463 323.909 120.463C320.499 113.323 316.829 106.143 312.909 98.9725C312.969 99.0125 313.019 99.0425 313.059 99.0625C312.219 97.1425 310.659 94.0625 308.849 90.6225C314.279 86.4725 319.959 84.3925 325.929 84.3925C335.339 84.3925 344.269 86.7625 352.739 91.4925C361.209 96.9125 367.959 105.113 373.029 116.093L373.739 117.643C376.089 122.953 377.619 128.163 378.329 133.233C379.389 138.312 379.919 143.693 379.919 149.343C379.899 153.773 379.659 158.043 379.189 162.213Z" stroke="#FFF2EA" stroke-width="14" mask="url(#path-11-outside-1)"/>
<path d="M158.139 261C148.729 261 139.969 258.06 131.859 252.16C125.739 247.45 120.989 241.42 117.569 234.12C110.279 220.33 106.639 205.18 106.639 188.67C106.639 179.01 107.989 169.39 110.699 159.84C110.939 159.36 111.119 158.83 111.229 158.25C112.179 154.83 113.339 151.48 114.759 148.17C124.049 130.48 136.869 121.64 153.199 121.64C159.899 121.64 166.489 123.23 172.959 126.42C179.419 129.6 185.069 134.25 189.899 140.39C198.599 151.47 204.119 164.27 206.469 178.77C207.049 182.55 207.339 186.91 207.339 191.86C207.339 194.69 207.159 197.57 206.809 200.53C206.099 208.2 204.619 215.21 202.399 221.58C199.469 229.01 196.519 235.02 193.589 239.62C189.949 245.28 185.409 250.12 180.009 254.12C172.959 258.7 165.659 261 158.139 261ZM157.429 231.47C158.009 231.47 159.309 231.05 161.309 230.23C163.309 229.41 166.139 225.68 169.779 219.09C170.949 217.21 171.949 215.2 172.779 213.08V212.73C174.889 207.2 176.239 202.3 176.839 198.05L177.019 197.52C177.369 195.51 177.549 193.58 177.549 191.68C177.549 188.03 177.309 184.85 176.839 182.13C176.129 177.29 174.579 172.43 172.159 167.54C169.759 162.65 167.239 158.85 164.659 156.13C159.489 151.66 155.429 149.41 152.499 149.41C149.329 149.41 146.469 152.29 143.939 158.08C141.409 163.85 139.679 170.04 138.729 176.65C138.019 180.78 137.669 184.96 137.669 189.21C137.669 200.77 140.549 211.85 146.319 222.46C150.669 228.46 154.369 231.47 157.429 231.47Z" fill="#F98E12"/>
<path d="M412.689 128.81C411.159 120.03 408.989 112.28 406.169 105.6C402.639 97.64 398.589 90.75 394.009 84.98C385.649 74.24 376.839 66.66 367.549 62.28C354.019 56.62 339.929 53.79 325.229 53.79C315.229 53.79 305.529 55.69 296.129 59.51C295.219 59.97 294.329 60.48 293.439 60.95C291.419 56.91 289.339 52.95 287.229 49.06C285.119 45.17 283.279 41.92 281.709 39.27L280.229 36.55C277.539 31.93 274.819 27.33 272.129 22.71L268.819 17.34C268.149 16.08 267.199 14.64 266.019 12.98C265.869 12.78 265.709 12.61 265.569 12.45C264.949 11.37 263.999 10.39 262.709 9.50999C261.289 8.28999 257.759 6.85999 253.729 9.63999C249.689 12.43 234.759 31.95 236.719 45.16C236.739 45.34 237.449 49.85 243.799 51.19C244.419 51.32 244.959 51.37 245.459 51.37C247.039 51.37 248.099 50.82 248.759 50.29C250.599 48.79 250.649 46.44 250.649 46.31C250.649 46.24 251.249 39.86 257.259 30.2C257.389 30.47 257.509 30.73 257.659 31.02L262.279 39.71L263.349 41.68L266.769 47.98L276.729 66.3C277.599 67.93 278.419 69.53 279.279 71.16C279.079 71.34 278.879 71.51 278.679 71.69C278.459 71.91 278.259 72.15 278.039 72.37C277.879 72.52 277.709 72.66 277.529 72.83C277.379 72.96 277.239 73.12 277.109 73.27C269.809 80.92 266.399 87.04 262.719 92.52L260.989 95.64C259.169 98.67 254.939 107.14 250.869 116.49C247.069 125.22 242.199 135.7 237.959 144.59C236.559 147.46 234.259 152.53 231.059 159.76C230.439 158.41 229.909 157.3 229.489 156.44C226.159 149.45 222.699 142.69 219.089 136.13C217.159 132.64 215.489 129.7 214.069 127.33L212.719 124.88C210.259 120.72 207.789 116.57 205.329 112.41L202.579 107.99C205.839 107.94 209.349 107.99 213.179 108.17C214.179 108.32 219.549 108.96 222.739 106.09C223.809 105.12 225.049 103.35 224.939 100.37C225.009 99.24 224.789 94.93 217.689 93.14C211.519 91.59 177.169 91.11 164.319 100.1C162.609 101.27 160.219 104.81 163.389 109.8C165.049 112.43 167.399 113.23 169.449 113.23C170.959 113.23 172.329 112.81 173.199 112.35C173.269 112.31 177.809 110.4 187.019 109.1C187.179 109.48 187.349 109.88 187.579 110.31C188.849 113.07 189.529 114.51 189.579 114.67C189.629 114.82 190.469 116.55 192.109 119.84L196.329 127.66L197.309 129.43L200.439 135.09L204.789 143C202.819 143.68 200.909 144.85 199.199 146.01C192.099 150.83 184.979 155.63 177.879 160.45C174.089 162.62 169.079 165.86 162.839 170.18C158.919 173.12 156.649 174.76 155.989 175.09L154.839 176C152.799 177.46 150.889 179.01 149.119 180.62C148.169 181.3 146.929 182.46 145.419 184.11C142.909 186.98 141.799 189.48 142.089 191.56C142.219 192.47 142.449 193.4 142.759 194.35C143.229 195.74 143.539 196.58 143.709 196.87C143.869 197.16 144.469 197.71 145.489 198.48L145.729 198.66C147.299 199.61 149.009 200.18 150.849 200.38C153.849 200.71 158.349 200.6 164.329 200.05C167.789 199.76 170.119 199.61 171.379 199.61C176.619 199.35 180.049 199.23 181.629 199.23C186.549 199.45 190.639 199.74 193.899 200.11C198.379 200.6 203.479 201.46 209.179 202.72C209.839 202.9 210.509 203.07 211.199 203.19L220.559 205.42C223.019 206.06 225.079 206.1 226.729 205.55C227.529 205.28 228.199 204.87 228.789 204.31C229.499 203.69 230.009 202.99 230.339 202.25C230.799 201.52 231.359 200.53 232.069 199.24L233.819 195.84C237.479 188.12 239.939 183.11 241.209 180.81L246.559 170.27C247.799 167.77 249.069 165.28 250.419 162.84L250.489 162.86C251.459 176.57 254.239 189.72 258.899 202.27C262.429 211.62 266.709 219.76 271.769 226.7C282.819 242.75 296.169 253.21 311.809 258.05C318.509 260.02 325.269 260.99 332.099 260.99C341.039 260.99 349.709 259 358.119 255.02C366.519 251.04 375.199 244.19 384.139 234.49C384.379 234.03 384.669 233.63 385.009 233.28C395.349 220.7 403.059 206.42 408.119 190.48C412.109 178.36 414.289 166.1 414.639 153.76C414.639 144.52 413.979 136.19 412.689 128.81ZM221.199 183.74C220.539 186.08 219.489 188.8 217.119 189.31C217.029 189.33 216.919 189.31 216.829 189.33C214.209 188.67 211.509 188.07 208.729 187.5L206.179 187.04C199.839 185.82 193.619 185.05 187.459 184.7C183.619 184.54 181.139 184.48 180.049 184.55C176.009 184.51 171.979 184.7 167.999 185.12L166.509 185.18C166.909 184.98 167.679 184.43 168.789 183.52C170.769 182.06 172.829 180.62 174.939 179.19C181.239 174.73 188.179 170.52 195.769 166.55L196.919 165.98C199.399 164.72 201.159 163.92 202.219 163.55L204.299 162.67C205.269 162.31 206.249 161.92 207.269 161.48C208.509 160.95 209.799 160.57 211.039 160.07C211.609 160.14 212.169 160.33 212.719 160.69C214.179 161.66 215.049 163.28 215.849 164.84C217.329 167.69 218.799 170.54 220.289 173.37C221.039 174.79 221.779 176.25 222.019 177.84C222.269 179.85 221.729 181.84 221.199 183.74ZM379.189 162.25C378.369 168.15 376.789 174.67 374.419 181.83L373.549 184.42C372.149 188.69 369.719 194.01 366.319 200.36C363.149 206.02 359.729 210.82 356.089 214.75C348.209 223.53 339.979 227.92 331.399 227.92C319.049 227.92 307.649 219.32 297.179 202.1C293.539 195.75 290.709 188.99 288.709 181.83C286.229 171.79 285.009 161.96 285.009 152.38C285.009 145.92 285.429 140.02 286.249 134.7C287.069 130.54 288.019 126.39 289.069 122.23C290.949 115.53 293.289 109.76 296.119 104.9C296.279 104.66 296.429 104.44 296.589 104.22L298.679 108.46C300.499 112.02 302.289 115.64 304.029 119.31L312.989 138.16L316.069 144.64L317.039 146.67L321.339 155.53C323.229 159.13 324.239 161.01 324.349 161.15C324.459 161.3 325.329 162.83 326.969 165.77C328.079 168.09 329.449 169.42 331.119 169.75C332.779 170.08 334.379 169.88 335.889 169.13C337.879 168.16 339.349 166.68 340.329 164.67C341.199 162.81 341.309 160.91 340.659 158.96C340.019 157.01 339.379 155.4 338.769 154.1L336.369 148.26C334.219 143.35 332.069 138.44 329.919 133.54L328.589 130.73C327.369 127.9 325.819 124.5 323.909 120.5C320.499 113.36 316.829 106.18 312.909 99.01C312.969 99.05 313.019 99.08 313.059 99.1C312.219 97.18 310.659 94.1 308.849 90.66C314.279 86.51 319.959 84.43 325.929 84.43C335.339 84.43 344.269 86.8 352.739 91.53C361.209 96.95 367.959 105.15 373.029 116.13L373.739 117.68C376.089 122.99 377.619 128.2 378.329 133.27C379.389 138.35 379.919 143.73 379.919 149.38C379.899 153.81 379.659 158.08 379.189 162.25Z" fill="#64676A"/>
</svg>
