<svg width="506" height="466" fill="none" xmlns="http://www.w3.org/2000/svg"><path d="M459.665 255.043a744.086 744.086 0 00-4.092-.544l1.299-15.079c.563.079 1.126.162 1.686.237l.392-2.956c-.605-.08-1.217-.17-1.821-.254 2.654-30.842 5.303-61.676 8.062-92.608-.06.067-.006-.303.085-.801-.011.149-.023.302-.039.451a3911.15 3911.15 0 005.861-5.681c-3.8-.726-7.596-1.444-11.396-2.158a454.76 454.76 0 00-11.698-23.671l2.584-19.461c.691-5.207.011-8.443 2.094-13.218-6.166-.69-11.811-1.305-17.917-1.852-.042.192-.074.372-.116.559-1.409 2.477-5.573 3.55-6.972 5.914-1.286 2.18-.408 2.598-.728 5.014l-.947 7.125c-.068.515-.132 1.03-.196 1.545a506.814 506.814 0 00-23.186-4.348l.927-6.981c.691-5.207.373-8.395 1.983-13.233-4.129-.419-7.913-.787-12.006-1.067-.038.192-.066.373-.099.561-1.056 2.524-3.915 3.77-4.96 6.182-.961 2.222-.387 2.6-.708 5.016l-.946 7.125c-12.957-1.817-25.971-3.31-38.98-4.74 1.198-7.38 3.826-11.966 4.136-19.662-6.037-1.065-11.647-1.944-17.779-2.888.765 5.153-.737 8.1-1.428 13.306l-.995 7.492c-13.16-1.43-26.319-2.862-39.479-4.291.081-.58.158-1.16.235-1.741l.946-7.125c.321-2.412.974-2.631.626-5.027-.379-2.602-2.809-4.554-3.17-7.262.017-.19.033-.372.046-.567-4.024-.799-7.773-1.43-11.868-2.104.291 5.09-.848 8.085-1.539 13.292l-1.169 8.8c-6.862-.748-13.721-1.49-20.584-2.239.124-.867.243-1.735.358-2.6l.946-7.125c.321-2.412 1.278-2.59.605-5.03-.729-2.647-4.472-4.774-5.187-7.529.009-.191.029-.373.034-.57-6.037-1.065-11.646-1.944-17.779-2.888.765 5.154-.736 8.1-1.428 13.307l-2.541 19.136c-7.625 5.753-15.249 11.501-22.875 17.254a2714.38 2714.38 0 00-10.177-.958c3.56 4.356 4.909 6.629 10.37 7.585l-4.899-.651-12.313 94.059c-1.408-.187-2.81-.382-4.218-.569l-.393 2.956c1.408.187 2.815.378 4.223.569-.734 5.591-1.464 11.178-2.198 16.769a588.208 588.208 0 01-3.884-.528c1.158.744 2.833 1.632 3.251 2.396l.383.051c-2.766 21.113-5.532 42.226-8.293 63.339 87.796 18.557 180.848 25.296 270.281 32.312 1.794-20.132 3.54-40.224 5.277-60.305l.899.107c-.008-.793 2.767-1.468 3.414-2.148z" stroke="#FFF2EA" stroke-width="15.364" stroke-miterlimit="10" stroke-linejoin="round"/><path d="M206.115 101.931c9.482-7.152 18.964-14.3 28.446-21.452 2.429-1.83 4.927-3.698 7.829-4.548 3.116-.91 6.427-.57 9.643-.22 28.987 3.15 57.974 6.3 86.961 9.454 31.865 3.464 63.821 6.94 95.042 14.215 2.575.602 5.212 1.254 7.394 2.771 2.753 1.915 4.481 4.985 6.084 7.966a455.387 455.387 0 0114.23 28.92l-141.04 57.689-114.589-94.795z" fill="#013507"/><path d="M450.618 317.465c-89.433-7.016-182.485-13.755-270.282-32.312 7.812-59.679 15.628-119.362 23.443-179.041l262.373 34.839c.176-.191-.59 3.151-.418 2.96-5.163 57.966-9.953 115.588-15.116 173.554z" fill="#F98E12"/><path d="M471.64 137.884a3910.54 3910.54 0 01-5.86 5.681c.018-.198.032-.402.05-.6.102-1.206-181.42-25.657-197.994-28a10311.729 10311.729 0 00-38.872-5.425c-6.66-.918-13.37-1.65-20.004-2.728-5.695-.928-7.022-3.207-10.644-7.633a2833.581 2833.581 0 01273.324 38.705zM252.988 53.408c.356 3 4.51 5.219 5.281 8.019.673 2.44-.284 2.614-.605 5.03l-.946 7.125c-.446 3.363-.95 6.714-1.57 10.029-.288 1.537-.201 3.66-1.263 4.9-1.408 1.653-5.335 2.576-7.564 3.717-2.926-4.3-2.397-5.575-2.213-9.953.215-5.061.416-10.71 1.312-15.66.762-4.192 2.643-9.425 7.568-13.207z" fill="#D86C00"/><path d="M230.429 89.984l3.484-26.233c.691-5.207 2.192-8.153 1.427-13.307 6.133.944 11.742 1.823 17.779 2.889-.323 8.05-3.188 12.688-4.292 20.688-.84 6.075-1.858 12.316-3.063 18.364-3.441-.897-9.725-1.526-15.335-2.401zM329.82 103.181l3.483-26.232c.692-5.207 2.193-8.154 1.428-13.307 6.133.944 11.742 1.823 17.779 2.888-.323 8.05-3.188 12.688-4.293 20.689-.84 6.075-1.857 12.315-3.062 18.363-3.437-.896-9.725-1.526-15.335-2.401z" fill="#F98E12"/><path d="M291.426 58.511c.112 2.969 2.817 4.995 3.215 7.745.347 2.396-.305 2.611-.626 5.028l-.946 7.125c-.447 3.363-.93 6.717-1.492 10.039-.259 1.54-.296 3.647-1.065 4.927-1.022 1.703-3.709 2.792-5.263 4.022-1.791-4.15-1.377-5.44-1.062-9.8.364-5.041.747-10.666 1.564-15.626.692-4.202 2.186-9.487 5.675-13.46z" fill="#D86C00"/><path d="M274.625 95.852l3.484-26.232c.691-5.207 1.83-8.202 1.538-13.292 4.096.673 7.845 1.305 11.869 2.103-.566 8.018-2.699 12.753-3.791 20.755a463.898 463.898 0 01-2.861 18.39c-2.28-.742-6.493-1.096-10.239-1.724z" fill="#F98E12"/><path d="M394.138 72.15c-.883 2.836-4.024 4.086-5.125 6.637-.961 2.223-.387 2.6-.708 5.017l-.946 7.125a285.762 285.762 0 00-1.179 10.081c-.152 1.555-.666 3.598-.258 5.034.542 1.911 2.852 3.663 4.031 5.256 2.812-3.539 2.748-4.892 3.582-9.184.965-4.961 2.063-10.49 2.568-15.492.429-4.237.362-9.729-1.965-14.474z" fill="#D86C00"/><path d="M400.607 112.581l3.483-26.233c.692-5.207.374-8.395 1.984-13.233-4.129-.418-7.913-.787-12.006-1.066-1.546 7.887-.723 13.015-1.757 21.024a463.011 463.011 0 00-2.038 18.5c2.395-.122 6.555.636 10.334 1.008z" fill="#F98E12"/><path d="M435.411 77.63c-1.126 2.804-5.715 3.862-7.191 6.364-1.286 2.179-.407 2.597-.728 5.013l-.946 7.125c-.447 3.363-.835 6.73-1.102 10.092-.123 1.558-.76 3.585-.06 5.06.929 1.962 4.478 3.879 6.332 5.562 3.948-3.389 3.769-4.757 4.735-9.031 1.113-4.942 2.392-10.448 2.819-15.46.363-4.245-.091-9.788-3.859-14.725z" fill="#D86C00"/><path d="M447.647 118.827l3.484-26.233c.691-5.207.011-8.443 2.094-13.218-6.167-.689-11.811-1.304-17.917-1.851-1.789 7.855-.233 13.08-1.255 21.091-.774 6.084-1.421 12.374-1.836 18.527 3.552.031 9.782 1.064 15.43 1.684z" fill="#F98E12"/><path d="M240.301 128.768l-1.071 8.064c-.809 1.358-.888 3.97-1.229 5.655a161.727 161.727 0 00-1.707 10.4c-.414 3.116-1.073 6.346-1.233 9.504a137.856 137.856 0 00-4.516-.595c.855-10.828 2.811-21.736 4.243-32.52 1.367-.644 3.322-.732 5.513-.508z" fill="#D86C00"/><path d="M250.645 165.725c-4.682-1.426-10.354-2.56-15.584-3.334.16-3.158.819-6.388 1.233-9.504a161.038 161.038 0 011.708-10.4c.341-1.685.419-4.297 1.228-5.656l1.071-8.063c4.911.493 10.991 2.523 14.256 3.204.342 11.053-2.686 22.719-3.912 33.753z" fill="#013507"/><path d="M276.551 166.145c-.056.457-.166 1.059-.264 1.703-.794-.105-1.577-.201-2.336-.289.855-10.828 2.814-21.735 4.246-32.519.635-.301 1.396-.477 2.249-.56-.846 6.367-1.687 12.736-2.537 19.103-.555 4.182-.844 8.379-1.358 12.562z" fill="#D86C00"/><path d="M294.05 171.489c-5.342-1.627-11.967-2.871-17.763-3.641.098-.644.208-1.246.264-1.703.514-4.183.803-8.38 1.358-12.562.85-6.367 1.691-12.736 2.537-19.103 5.106-.504 13.473 2.413 17.517 3.255.341 11.054-2.682 22.72-3.913 33.754zM321.603 140.803c-1.432 10.785-3.391 21.692-4.242 32.52 6.279.725 14.024 2.08 20.099 3.93 1.227-11.034 4.254-22.7 3.913-33.753-4.721-.983-15.332-4.792-19.77-2.697z" fill="#013507"/><path d="M380.866 183.017a61.78 61.78 0 00-1.662-.481c.112-1.254.164-2.496.25-3.393.375-3.833.796-7.673 1.13-11.508.537-6.257 1.588-12.531 2.48-18.775.628.158 1.205.298 1.714.403.342 11.054-2.681 22.72-3.912 33.754z" fill="#D86C00"/><path d="M379.204 182.536c-5.781-1.605-12.715-2.794-18.438-3.449.856-10.828 2.815-21.735 4.247-32.519 3.959-1.871 12.832.962 18.051 2.292-.892 6.244-1.943 12.518-2.481 18.775-.333 3.835-.755 7.675-1.13 11.508-.085.897-.137 2.139-.249 3.393z" fill="#013507"/><path d="M424.276 188.781a85.866 85.866 0 00-5.399-1.429c1.554-11.166 3.354-22.262 4.914-33.436 1.703.452 3.231.869 4.397 1.111.342 11.054-2.686 22.72-3.912 33.754z" fill="#D86C00"/><path d="M423.791 153.916c-1.559 11.174-3.36 22.27-4.913 33.436-4.881-1.13-10.172-1.979-14.702-2.501.851-10.828 2.811-21.735 4.243-32.52 3.343-1.579 10.182.192 15.372 1.585zM228.169 179.123c-1.432 10.785-3.391 21.692-4.243 32.52 6.279.725 14.025 2.08 20.1 3.93 1.226-11.034 4.254-22.7 3.912-33.754-4.72-.982-15.331-4.792-19.769-2.696zM271.578 184.887c-1.432 10.785-3.391 21.692-4.242 32.52 6.279.725 14.024 2.08 20.099 3.93 1.227-11.034 4.254-22.7 3.913-33.753-4.721-.983-15.332-4.792-19.77-2.697zM314.984 190.651c-1.432 10.784-3.391 21.692-4.242 32.52 6.279.725 14.024 2.08 20.099 3.93 1.227-11.034 4.254-22.7 3.913-33.754-4.721-.983-15.332-4.792-19.77-2.696zM358.39 196.414c-1.432 10.785-3.391 21.692-4.243 32.52 6.279.725 14.025 2.08 20.1 3.93 1.226-11.034 4.254-22.7 3.912-33.753-4.716-.983-15.331-4.792-19.769-2.697zM401.8 202.179c-1.432 10.784-3.392 21.691-4.243 32.52 6.279.724 14.025 2.08 20.1 3.929 1.226-11.034 4.254-22.7 3.912-33.753-4.72-.983-15.331-4.792-19.769-2.696zM220.457 237.203c-1.432 10.785-3.392 21.692-4.243 32.52 6.279.725 14.025 2.08 20.1 3.93 1.226-11.034 4.254-22.7 3.912-33.753-4.72-.983-15.331-4.792-19.769-2.697zM263.866 242.967c-1.432 10.785-3.391 21.692-4.242 32.52 6.279.725 14.024 2.08 20.099 3.93 1.227-11.034 4.255-22.7 3.913-33.753-4.72-.983-15.332-4.792-19.77-2.697zM307.272 248.731c-1.432 10.785-3.391 21.692-4.242 32.52 6.279.725 14.024 2.08 20.099 3.93 1.227-11.034 4.254-22.7 3.912-33.754-4.72-.983-15.331-4.792-19.769-2.696zM350.678 254.495c-1.432 10.784-3.392 21.691-4.243 32.519 6.279.725 14.024 2.08 20.1 3.93 1.226-11.034 4.254-22.7 3.912-33.753-4.716-.982-15.331-4.792-19.769-2.696zM394.088 260.259c-1.432 10.784-3.392 21.691-4.243 32.52 6.279.724 14.024 2.08 20.1 3.929 1.226-11.034 4.254-22.699 3.912-33.753-4.72-.983-15.332-4.792-19.769-2.696z" fill="#013507"/><path d="M233.684 178.599l-1.071 8.064c-.809 1.358-.887 3.97-1.228 5.655a161.731 161.731 0 00-1.708 10.4c-.414 3.116-1.073 6.346-1.233 9.504a137.499 137.499 0 00-4.516-.595c.856-10.828 2.811-21.736 4.243-32.52 1.367-.644 3.323-.732 5.513-.508zM225.973 236.667l-1.07 8.063c-.809 1.359-.888 3.971-1.229 5.656a161.727 161.727 0 00-1.707 10.4c-.414 3.116-1.073 6.346-1.233 9.504-1.557-.232-3.076-.43-4.516-.596.855-10.827 2.811-21.735 4.243-32.519 1.367-.644 3.322-.732 5.512-.508zM417.657 238.628a86.706 86.706 0 00-5.398-1.429c1.553-11.166 3.354-22.262 4.913-33.436 1.703.453 3.231.869 4.397 1.112.342 11.053-2.686 22.719-3.912 33.753zM409.945 296.708a86.556 86.556 0 00-5.399-1.429c1.554-11.166 3.354-22.262 4.914-33.436 1.703.453 3.231.869 4.397 1.112.342 11.054-2.686 22.719-3.912 33.753zM374.27 232.691a65.721 65.721 0 00-1.662-.48c.112-1.254.164-2.496.25-3.393.375-3.834.796-7.673 1.13-11.508.537-6.258 1.588-12.531 2.48-18.776.628.159 1.205.299 1.714.404.342 11.054-2.681 22.72-3.912 33.753zM366.581 290.598a66.946 66.946 0 00-1.662-.48c.112-1.254.164-2.496.249-3.393.375-3.833.797-7.673 1.13-11.508.538-6.258 1.589-12.531 2.481-18.775.628.158 1.205.298 1.714.403.342 11.054-2.682 22.72-3.912 33.753zM269.932 215.993c-.056.457-.165 1.058-.264 1.703-.794-.105-1.577-.201-2.336-.289.855-10.828 2.815-21.735 4.247-32.52.634-.301 1.395-.476 2.248-.56-.846 6.368-1.687 12.736-2.537 19.104-.555 4.182-.844 8.378-1.358 12.562zM262.22 274.077c-.057.457-.166 1.059-.264 1.703-.795-.105-1.578-.201-2.337-.289.856-10.828 2.815-21.735 4.247-32.52.635-.301 1.395-.476 2.248-.56-.845 6.368-1.687 12.736-2.536 19.104-.556 4.182-.845 8.378-1.358 12.562zM188.247 221.763c-.419-.763-2.093-1.652-3.251-2.396 8.743 1.22 24.26 3.167 35.841 4.311 19.069 1.879 38.114 4.918 57.063 7.104 15.306 1.764 30.281 4.355 45.476 6.419 8.093 1.1 16.224 2.104 24.219 3.346 17.418 2.711 35.303 4.327 52.818 6.867 9.181 1.332 18.452 2.462 27.652 3.684 9.895 1.314 22.416 2.696 32.138 4.025-.647.68-3.423 1.359-3.419 2.151-17.219-2.031-34.816-4.296-51.915-7.011l-216.622-28.5z" fill="#D86C00"/><path d="M191.276 220.021c.806-6.068 1.302-12.297 2.452-18.307.919.717 1.878.275 2.781.73 1.013.511.196 1.806-.004 2.869-.607 3.212-.986 6.479-1.418 9.731-.241 1.815-.155 4.352-.939 5.97-.975-.008-1.908-.777-2.872-.993zM209.791 222.479c.806-6.067 1.302-12.297 2.452-18.306.918.717 1.878.274 2.781.729 1.012.512.195 1.807-.004 2.869-.607 3.212-.986 6.479-1.418 9.731-.241 1.815-.155 4.353-.939 5.97-.975-.008-1.908-.777-2.872-.993zM228.306 224.938c.805-6.068 1.302-12.298 2.451-18.307.919.717 1.878.275 2.781.73 1.013.511.196 1.806-.004 2.869-.606 3.212-.986 6.479-1.418 9.731-.241 1.815-.154 4.352-.939 5.97-.975-.008-1.911-.778-2.871-.993zM246.816 227.396c.806-6.068 1.302-12.298 2.452-18.307.919.717 1.878.275 2.781.73 1.013.511.196 1.806-.004 2.869-.607 3.211-.986 6.479-1.418 9.73-.241 1.816-.155 4.353-.939 5.97-.975-.008-1.908-.776-2.872-.992zM265.331 229.854c.806-6.067 1.302-12.297 2.452-18.306.918.717 1.878.274 2.781.729 1.013.512.196 1.806-.004 2.869-.607 3.212-.986 6.479-1.418 9.731-.241 1.815-.155 4.352-.939 5.97-.975-.008-1.908-.777-2.872-.993zM283.846 232.313c.806-6.068 1.302-12.298 2.452-18.307.918.717 1.877.275 2.78.73 1.013.511.196 1.806-.003 2.869-.607 3.211-.986 6.479-1.418 9.73-.241 1.816-.155 4.353-.94 5.97-.974-.008-1.907-.776-2.871-.992zM302.357 234.771c.806-6.068 1.302-12.298 2.452-18.307.918.717 1.877.275 2.78.73 1.013.511.196 1.806-.003 2.869-.607 3.211-.986 6.479-1.418 9.73-.241 1.816-.155 4.353-.94 5.97-.97-.007-1.907-.776-2.871-.992zM320.872 237.229c.805-6.067 1.301-12.297 2.451-18.306.919.716 1.878.274 2.781.729 1.013.512.196 1.806-.004 2.869-.606 3.212-.986 6.479-1.418 9.731-.241 1.815-.154 4.352-.939 5.97-.975-.008-1.907-.777-2.871-.993zM339.386 239.687c.806-6.067 1.302-12.297 2.452-18.306.919.717 1.878.275 2.781.73 1.013.511.196 1.806-.004 2.868-.607 3.212-.986 6.479-1.418 9.731-.241 1.816-.155 4.353-.939 5.97-.975-.008-1.907-.777-2.872-.993zM357.901 242.146c.806-6.067 1.302-12.297 2.452-18.306.919.716 1.878.274 2.781.729 1.013.512.196 1.806-.004 2.869-.607 3.212-.986 6.479-1.418 9.731-.241 1.815-.155 4.352-.939 5.97-.975-.008-1.908-.777-2.872-.993zM376.412 244.604c.806-6.068 1.302-12.297 2.452-18.306.918.716 1.878.274 2.781.729 1.012.511.195 1.806-.004 2.869-.607 3.212-.986 6.479-1.418 9.731-.241 1.815-.155 4.352-.939 5.97-.975-.008-1.908-.777-2.872-.993zM394.927 247.062c.806-6.067 1.302-12.297 2.452-18.306.918.717 1.878.274 2.781.729 1.012.512.195 1.807-.004 2.869-.607 3.212-.986 6.479-1.418 9.731-.241 1.815-.155 4.353-.94 5.97-.974-.008-1.907-.777-2.871-.993zM413.442 249.521c.805-6.068 1.302-12.297 2.451-18.307.919.717 1.878.275 2.781.73 1.013.511.196 1.806-.004 2.869-.606 3.212-.986 6.479-1.418 9.731-.241 1.815-.154 4.352-.939 5.97-.975-.008-1.907-.777-2.871-.993zM431.956 251.979c.806-6.067 1.302-12.297 2.452-18.306.919.717 1.878.274 2.781.729 1.013.512.196 1.807-.004 2.869-.606 3.212-.986 6.479-1.418 9.731-.241 1.815-.155 4.353-.939 5.97-.975-.008-1.912-.777-2.872-.993zM450.467 254.437c.806-6.067 1.302-12.297 2.452-18.306.918.717 1.878.274 2.781.729 1.012.512.195 1.807-.004 2.869-.607 3.212-.986 6.479-1.418 9.731-.241 1.815-.155 4.353-.939 5.97-.975-.008-1.908-.777-2.872-.993z" fill="#D86C00"/><path d="M459.105 239.734c-8.93-1.203-17.963-2.896-27.105-4.11-8.619-1.145-17.204-2.109-25.817-2.955-6.397-.628-12.437-1.953-18.8-2.798-25.019-3.322-50.285-5.76-75.205-9.475-41.769-6.225-83.428-12.272-125.323-17.835l.392-2.955c41.899 5.563 83.554 11.61 125.324 17.834 24.92 3.716 50.186 6.153 75.204 9.475 6.364.845 12.404 2.171 18.801 2.798 8.613.847 17.197 1.811 25.817 2.955 9.142 1.214 18.174 2.908 27.104 4.11l-.392 2.956z" fill="#D86C00"/><path d="M184.252 309.978c-5.197-24.129-10.673-43.562-16.821-67.504-3.357-13.093-5.754-30.719-7.41-44.131-1.501-12.118-4.018-24.092-6.53-36.039L138.01 88.74c-1.334-6.367-4.008-17.055-5.221-23.531-.649-3.455-1.401-6.425-2.169-10.054a6.426 6.426 0 00-.198-.793c.015-2.302-.801-5.527-1.744-7.599-.961-2.096-1.973-3.802-4.476-3.607-1.753.132-4.626.526-6.22 1.247-1.595.722-3.639 1.095-4.953.083-.999-.777-1.08-1.551-1.249-2.773-.491-3.797-.995-7.59-1.485-11.387-.248-1.912-.617-4.012-2.245-5.188-1.084-.775-2.524-1.211-3.91-1.08-.818.075-1.606.16-2.395.243.112-.656.074-1.354.003-2.003a91.287 91.287 0 00-2.944-14.655c-.308-1.068-.3-1.24-1.414-1.67-2.837-1.08-8.736 1.304-11.803 1.863-4.143.756-14.062 1.065-12.428 6.09a60.513 60.513 0 013.152 13.627c.058.51.134 1.046.276 1.554-7.58 1.726-10.267 2.422-18.282 4.092-3.254.68-7.397.646-8.704 3.483-.676 1.445-.313 3.08.053 4.588l2.229 9.21c.537 2.236.917 4.968-.98 6.525-.888.724-2.087 1.016-3.226 1.253a90.69 90.69 0 01-15.801 1.843c-3.09.084-6.94.458-8.14 3.12-.543 1.191-.337 2.533-.133 3.79.356 2.174.807 4.328 1.078 6.503.063.467.254.867.546 1.205.685 3.42 1.668 6.993 1.813 8.163 4.456 34.894 12.984 78.538 22.25 117.369 8.286 34.707 13.354 70.059 19.605 105.18a1640.129 1640.129 0 0012.425 62.724c.032.163.08.337.112.5l.003.014.956 6.822c.09.673.223 1.423.802 1.859.683.529 1.72.425 2.642.3 8.103-1.151 16.209-2.43 24.103-4.57 3.231-.873 7.178-1.407 10.454-2.05 2.634-.53 4.558-1.302 7.224-1.67 18.849-2.567 35.681-7.362 56.102-10.266 2.047-.289 4.12-.512 6.006-1.333.468-.204.893-.485 1.109-.894.271-.491.176-1.05.085-1.583l-1.15-6.516c-.064-.396-.16-.815-.354-1.157.05-1.689-.087-3.396-.279-5.023-1.31-10.928-2.579-21.863-4.883-32.61z" fill="#FFF2EA"/><path d="M77.665 17.683a62.945 62.945 0 013.006 13.176c.16 1.322.44 2.89 1.671 3.41.6.249 1.276.173 1.92.075 4.118-.596 8.148-1.64 12.165-2.682.712-.182 1.45-.383 1.968-.907.848-.858.777-2.226.627-3.424a98.469 98.469 0 00-2.832-14.155c-.286-1.03-.697-2.19-1.684-2.617-2.528-1.084-7.728 1.12-10.441 1.61-3.681.665-7.935.638-6.4 5.514zM31.6 69.858c-1.36 1.706 1.801 12.496 2.097 14.652 4.498 33.673 12.737 75.837 21.553 113.388 7.89 33.543 12.946 67.685 19.017 101.6a1700.297 1700.297 0 0011.993 60.594c.569 2.611 1.299 5.472 3.512 6.97 2.246 1.52 5.239 1.089 7.911.607 24.878-4.581 49.622-9.842 74.366-15.102 2.493-.531 5.114-1.13 6.99-2.866 3.247-3.02 2.961-8.154 2.424-12.548-1.29-10.537-2.571-21.103-4.79-31.486-4.983-23.324-10.149-42.113-15.974-65.272-3.188-12.661-5.576-29.668-7.253-42.611-1.519-11.705-3.94-23.261-6.344-34.806l-14.87-71.088c-1.29-6.15-3.814-16.501-4.995-22.743-.626-3.333-1.345-6.21-2.075-9.72-.702-3.36-.549.728-3.97.849-18.744.656-30.516 2.245-44.988 8.129-5.518 2.238-10.86 4.005-16.767 4.98-6.043 1.001-23.695-8.753-27.837-3.527z" fill="#F98E12"/><path d="M31.454 75.444c-.285-2.102-.709-4.19-1.062-6.28-.21-1.214-.406-2.501.06-3.65 1.027-2.543 4.429-2.829 7.173-2.873a74.43 74.43 0 0013.985-1.53c1.017-.213 2.07-.461 2.852-1.15 1.657-1.482 1.282-4.117.774-6.274-.708-2.964-1.419-5.941-2.113-8.908-.342-1.456-.678-3.026-.119-4.42 1.12-2.715 4.794-2.618 7.668-3.224 13.776-2.884 25.248-6.868 40.522-8.086 1.237-.101 2.523.338 3.492 1.107 1.468 1.15 1.81 3.185 2.072 5.024.494 3.669.998 7.322 1.492 10.99.161 1.182.247 1.912 1.146 2.681 1.186 1.009 2.997.668 4.39 0 1.394-.668 3.94-.998 5.487-1.104 2.217-.139 3.145 1.499 4.025 3.54.88 2.042 1.675 5.23 1.674 7.458.007 1.042-.028 2.163-.658 2.978-.62.798-1.659 1.115-2.636 1.39-7.361 2.05-15.507 3.197-23.048 4.478-13.168 2.243-23.73 2.946-36.779 6.012-4.666 1.112-29.498 8.59-30.397 1.841zM91.75 358.141l-4.241.903c-.731.157-1.234.834-1.12 1.559l.952 6.583c.1.658.225 1.366.734 1.803.61.515 1.539.431 2.352.328 7.162-.981 14.343-2.078 21.302-4.021 2.851-.799 6.335-1.242 9.244-1.812 2.335-.472 4.031-1.186 6.384-1.492 16.683-2.171 31.538-6.536 49.599-9.019 1.816-.243 3.659-.421 5.3-1.194.413-.194.787-.451.978-.841.233-.469.14-1.015.055-1.52-.369-2.1-.752-4.196-1.121-6.296-.091-.532-.219-1.114-.617-1.487-.955-.913-2.862-.13-3.675-.098-1.57.054-3.084.323-4.61.679-18.626 4.427-36.943 5.818-55.052 10.582-2.053.543-4.09 1.168-6.146 1.698-2.028.525-4.059.966-6.104 1.409-4.271.894-10 1.34-14.214 2.236z" fill="#D86C00"/><path d="M89.338 355.991l-4.385.888c-.761.149-1.344.489-1.334.755.051.837.088 1.675.14 2.512.02.249.057.51.519.631.548.133 1.494-.011 2.325-.16 7.343-1.284 14.691-2.612 21.951-4.247 2.974-.668 6.538-1.282 9.529-1.868 2.406-.472 4.198-.978 6.617-1.382 17.069-2.938 32.573-6.513 51.066-9.744 1.857-.322 3.733-.619 5.495-1.134.441-.129.849-.279 1.083-.452.283-.211.271-.42.233-.61-.113-.796-.238-1.575-.352-2.371-.026-.206-.079-.408-.427-.523-.852-.242-2.861.307-3.701.416-1.582.211-3.145.518-4.72.84-19.314 4.083-37.944 6.904-56.768 11.046-2.137.475-4.268.978-6.408 1.44-2.099.453-4.217.883-6.335 1.312-4.33.878-10.156 1.766-14.528 2.651zM35.322 76.886l-4.385.888c-.762.15-1.344.489-1.334.755.05.836.088 1.675.14 2.511.02.25.057.51.518.632.548.132 1.494-.01 2.326-.16 7.343-1.284 14.69-2.612 21.95-4.247 2.975-.668 6.539-1.282 9.53-1.868 2.405-.472 4.198-.979 6.617-1.382 17.069-2.938 32.573-6.514 51.066-9.745 1.857-.321 3.732-.618 5.495-1.133.44-.129.848-.28 1.083-.452.283-.211.27-.42.233-.61-.114-.796-.238-1.576-.352-2.371-.026-.207-.08-.408-.427-.523-.852-.242-2.862.307-3.702.415-1.582.212-3.145.518-4.719.841-19.314 4.083-37.945 6.904-56.768 11.046-2.137.475-4.269.978-6.409 1.44-2.098.453-4.216.883-6.334 1.312-4.345.88-10.17 1.768-14.528 2.65zM52.613 87.035a48.167 48.167 0 011.642 7.436c.103.741.262 1.627.807 1.957.257.161.548.133.823.093 1.734-.227 3.42-.699 5.106-1.17.294-.086.615-.178.814-.456.333-.46.268-1.224.179-1.897a72.739 72.739 0 00-1.596-7.995c-.158-.59-.356-1.241-.79-1.509-1.106-.672-3.264.414-4.409.625-1.541.274-3.358.15-2.576 2.916zM64.78 84.65a48.161 48.161 0 011.64 7.436c.104.741.263 1.627.808 1.957.257.161.548.132.823.093 1.734-.227 3.42-.7 5.106-1.17.294-.087.615-.178.814-.456.333-.46.268-1.224.179-1.897a72.739 72.739 0 00-1.596-7.995c-.158-.59-.356-1.242-.79-1.51-1.106-.67-3.264.415-4.409.626-1.541.273-3.358.15-2.576 2.916zM77.054 82.244a48.167 48.167 0 011.642 7.435c.103.741.262 1.627.807 1.957.257.161.548.133.823.093 1.734-.227 3.42-.699 5.106-1.17.294-.086.614-.177.814-.456.333-.46.268-1.224.179-1.897a72.757 72.757 0 00-1.596-7.994c-.158-.59-.356-1.242-.79-1.51-1.106-.672-3.264.415-4.409.625-1.541.274-3.358.15-2.576 2.917zM89.22 79.858a48.163 48.163 0 011.641 7.436c.103.741.263 1.627.808 1.957.257.161.548.132.822.093 1.734-.228 3.42-.7 5.107-1.17.293-.087.614-.178.814-.457.333-.46.268-1.223.178-1.896a72.739 72.739 0 00-1.595-7.995c-.158-.59-.357-1.242-.79-1.51-1.106-.671-3.264.415-4.409.625-1.541.274-3.358.151-2.576 2.917zM101.699 77.412a48.107 48.107 0 011.641 7.435c.103.741.263 1.627.807 1.957.258.161.549.133.823.093 1.734-.227 3.42-.699 5.106-1.17.294-.086.615-.178.814-.456.334-.46.269-1.224.179-1.897a72.53 72.53 0 00-1.596-7.995c-.157-.59-.356-1.241-.79-1.509-1.105-.672-3.264.414-4.408.625-1.542.274-3.358.15-2.576 2.917zM55.862 103.605a48.195 48.195 0 011.642 7.436c.103.741.262 1.627.807 1.957.257.161.548.132.823.093 1.734-.228 3.42-.699 5.106-1.171.294-.086.615-.177.814-.456.333-.46.268-1.223.179-1.896a72.754 72.754 0 00-1.596-7.995c-.158-.589-.356-1.242-.79-1.509-1.106-.672-3.264.414-4.409.625-1.541.273-3.358.15-2.576 2.916zM68.028 101.22a48.12 48.12 0 011.641 7.436c.103.741.263 1.626.808 1.957.257.161.548.132.822.092 1.734-.227 3.42-.698 5.106-1.17.294-.086.615-.177.815-.456.333-.46.268-1.223.178-1.896a72.747 72.747 0 00-1.595-7.995c-.158-.59-.357-1.242-.79-1.51-1.106-.671-3.265.415-4.41.625-1.54.274-3.357.151-2.575 2.917zM80.303 98.814a48.175 48.175 0 011.641 7.435c.103.741.263 1.627.808 1.957.257.161.548.132.822.093 1.734-.227 3.42-.699 5.107-1.171.293-.085.614-.177.814-.455.333-.461.268-1.224.178-1.897a72.728 72.728 0 00-1.595-7.995c-.158-.59-.357-1.241-.79-1.509-1.106-.672-3.264.414-4.409.625-1.541.274-3.358.15-2.576 2.916zM92.469 96.428a48.148 48.148 0 011.641 7.436c.103.741.263 1.626.807 1.957.258.161.549.132.823.092 1.734-.227 3.42-.698 5.106-1.17.294-.086.615-.177.815-.456.333-.46.268-1.223.178-1.896a72.516 72.516 0 00-1.596-7.995c-.157-.59-.356-1.242-.79-1.51-1.105-.671-3.264.415-4.408.625-1.542.274-3.359.151-2.576 2.917zM104.948 93.981a48.106 48.106 0 011.641 7.436c.103.741.262 1.627.807 1.957.258.161.548.133.823.093 1.734-.227 3.42-.699 5.106-1.171.294-.085.615-.176.814-.455.334-.461.269-1.224.179-1.897a72.763 72.763 0 00-1.596-7.995c-.158-.59-.356-1.241-.79-1.509-1.105-.672-3.264.414-4.408.625-1.542.274-3.359.15-2.576 2.916zM59.345 121.37a48.195 48.195 0 011.642 7.436c.103.741.262 1.627.807 1.957.257.161.548.132.823.093 1.734-.227 3.42-.699 5.106-1.171.294-.085.615-.177.814-.455.333-.461.268-1.224.179-1.897a72.754 72.754 0 00-1.596-7.995c-.158-.589-.356-1.241-.79-1.509-1.106-.672-3.264.414-4.409.625-1.541.274-3.358.15-2.576 2.916zM71.511 118.985a48.12 48.12 0 011.642 7.436c.103.741.262 1.626.807 1.957.257.161.548.132.823.092 1.734-.227 3.42-.698 5.106-1.17.294-.086.615-.177.814-.456.333-.46.268-1.223.179-1.896a72.754 72.754 0 00-1.596-7.995c-.158-.589-.356-1.242-.79-1.509-1.106-.672-3.264.414-4.409.624-1.541.274-3.358.151-2.576 2.917zM83.786 116.579a48.156 48.156 0 011.641 7.435c.103.741.263 1.627.807 1.957.258.161.549.133.823.093 1.734-.227 3.42-.699 5.107-1.171.293-.085.614-.176.814-.455.333-.461.268-1.224.178-1.897a72.713 72.713 0 00-1.595-7.994c-.158-.59-.357-1.242-.79-1.51-1.106-.672-3.265.414-4.41.625-1.54.274-3.357.15-2.575 2.917zM95.952 114.193a48.195 48.195 0 011.641 7.436c.103.741.263 1.627.808 1.957.257.161.548.132.822.093 1.734-.228 3.42-.699 5.107-1.171.293-.086.614-.177.814-.456.333-.46.268-1.223.178-1.896a72.752 72.752 0 00-1.595-7.995c-.158-.589-.357-1.242-.79-1.509-1.106-.672-3.264.414-4.409.625-1.541.274-3.358.15-2.576 2.916zM108.431 111.747a48.097 48.097 0 011.641 7.435c.103.741.263 1.627.807 1.957.258.161.549.133.823.093 1.734-.227 3.42-.699 5.106-1.17.294-.086.615-.177.814-.456.334-.46.269-1.223.179-1.897a72.738 72.738 0 00-1.596-7.994c-.158-.59-.356-1.242-.79-1.51-1.105-.672-3.264.415-4.408.625-1.542.274-3.359.151-2.576 2.917zM62.818 139.081a48.171 48.171 0 011.641 7.436c.103.741.263 1.627.807 1.957.258.161.548.132.823.093 1.734-.228 3.42-.699 5.106-1.171.294-.086.615-.177.814-.456.334-.46.269-1.223.179-1.896a72.754 72.754 0 00-1.596-7.995c-.158-.589-.356-1.242-.79-1.509-1.105-.672-3.264.414-4.408.624-1.539.288-3.356.165-2.576 2.917zM74.984 136.696a48.145 48.145 0 011.641 7.435c.103.742.263 1.627.807 1.958.258.161.549.132.823.092 1.734-.227 3.42-.698 5.106-1.17.294-.086.615-.177.814-.456.334-.46.269-1.223.179-1.897a72.783 72.783 0 00-1.596-7.994c-.158-.59-.356-1.242-.79-1.509-1.105-.672-3.264.414-4.408.624-1.539.288-3.356.164-2.576 2.917zM87.258 134.289a48.195 48.195 0 011.642 7.436c.103.741.262 1.627.807 1.957.257.161.548.132.823.093 1.734-.227 3.42-.699 5.106-1.171.294-.086.615-.177.814-.456.333-.46.268-1.223.179-1.896a72.754 72.754 0 00-1.596-7.995c-.158-.589-.356-1.241-.79-1.509-1.106-.672-3.264.414-4.409.625-1.538.287-3.355.164-2.576 2.916zM99.424 131.904a48.249 48.249 0 011.642 7.436c.103.741.262 1.626.807 1.957.257.161.548.132.823.092 1.734-.227 3.42-.698 5.106-1.17.294-.086.615-.177.814-.456.333-.46.268-1.223.179-1.897a72.784 72.784 0 00-1.596-7.994c-.158-.59-.356-1.242-.79-1.509-1.106-.672-3.264.414-4.409.624-1.538.288-3.355.165-2.576 2.917zM111.903 129.458a48.097 48.097 0 011.641 7.435c.104.741.263 1.627.808 1.957.257.161.548.132.822.093 1.735-.227 3.421-.699 5.107-1.171.294-.085.614-.177.814-.455.333-.461.268-1.224.178-1.897a72.752 72.752 0 00-1.595-7.995c-.158-.589-.357-1.241-.79-1.509-1.106-.672-3.264.414-4.409.625-1.539.287-3.355.164-2.576 2.917zM66.067 155.651a48.156 48.156 0 011.64 7.435c.104.742.263 1.627.808 1.958.257.161.548.132.823.092 1.734-.227 3.42-.698 5.106-1.17.294-.086.615-.177.814-.456.333-.46.269-1.223.179-1.897a72.783 72.783 0 00-1.596-7.994c-.158-.59-.356-1.242-.79-1.509-1.106-.672-3.264.414-4.409.624-1.538.288-3.355.165-2.575 2.917zM78.232 153.266a48.156 48.156 0 011.642 7.435c.103.742.262 1.627.807 1.958.257.161.548.132.823.092 1.734-.227 3.42-.699 5.106-1.17.294-.086.615-.177.814-.456.333-.46.268-1.223.179-1.897a72.713 72.713 0 00-1.596-7.994c-.158-.59-.357-1.242-.79-1.51-1.106-.671-3.264.415-4.409.625-1.539.288-3.355.164-2.576 2.917zM90.507 150.859a48.157 48.157 0 011.642 7.436c.103.741.262 1.627.807 1.957.257.161.548.132.823.093 1.734-.228 3.42-.699 5.106-1.171.294-.086.615-.177.814-.456.333-.46.268-1.223.179-1.896a72.754 72.754 0 00-1.596-7.995c-.158-.589-.356-1.242-.79-1.509-1.106-.672-3.264.414-4.409.624-1.538.288-3.355.165-2.576 2.917zM102.673 148.474a48.097 48.097 0 011.641 7.435c.103.742.263 1.627.808 1.958.257.161.548.132.822.092 1.734-.227 3.42-.699 5.107-1.17.293-.086.614-.177.814-.456.333-.46.268-1.223.178-1.897a72.78 72.78 0 00-1.595-7.994c-.158-.59-.357-1.242-.79-1.509-1.106-.672-3.265.414-4.409.624-1.539.288-3.356.164-2.576 2.917zM115.152 146.027a48.135 48.135 0 011.641 7.436c.103.741.263 1.627.808 1.957.257.161.548.132.822.093 1.734-.228 3.42-.699 5.107-1.171.293-.086.614-.177.814-.456.333-.46.268-1.223.178-1.896a72.752 72.752 0 00-1.595-7.995c-.158-.589-.357-1.242-.79-1.509-1.106-.672-3.265.414-4.409.625-1.539.287-3.356.164-2.576 2.916zM69.552 173.43a48.156 48.156 0 011.641 7.435c.103.742.263 1.627.808 1.958.257.161.548.132.822.092 1.735-.227 3.42-.699 5.107-1.17.293-.086.614-.177.814-.456.333-.46.268-1.223.178-1.897a72.736 72.736 0 00-1.595-7.994c-.158-.59-.357-1.242-.79-1.51-1.106-.671-3.265.415-4.409.625-1.541.274-3.358.151-2.576 2.917zM81.718 171.045a48.145 48.145 0 011.641 7.435c.104.741.263 1.627.808 1.957.257.161.548.133.822.093 1.734-.227 3.42-.699 5.107-1.171.293-.085.614-.177.814-.455.333-.461.268-1.224.178-1.897a72.8 72.8 0 00-1.595-7.995c-.158-.589-.357-1.241-.79-1.509-1.106-.672-3.264.414-4.409.625-1.541.274-3.358.15-2.576 2.917zM93.993 168.638a48.156 48.156 0 011.641 7.435c.103.742.263 1.627.807 1.958.258.161.549.132.823.092 1.734-.227 3.42-.699 5.106-1.17.294-.086.615-.177.814-.456.334-.46.269-1.223.179-1.897a72.784 72.784 0 00-1.596-7.994c-.158-.59-.356-1.242-.79-1.51-1.105-.671-3.264.415-4.408.625-1.542.274-3.359.151-2.576 2.917zM106.159 166.253a48.097 48.097 0 011.641 7.435c.103.741.263 1.627.807 1.957.258.161.549.133.823.093 1.734-.227 3.42-.699 5.106-1.171.294-.085.615-.177.814-.455.334-.461.269-1.224.179-1.897a72.802 72.802 0 00-1.596-7.995c-.158-.589-.356-1.241-.79-1.509-1.105-.672-3.264.414-4.408.625-1.542.274-3.359.15-2.576 2.917zM118.638 163.806a48.331 48.331 0 011.641 7.435c.103.742.262 1.627.807 1.958.258.161.548.132.823.092 1.734-.227 3.42-.698 5.106-1.17.294-.086.615-.177.814-.456.333-.46.269-1.223.179-1.897a72.784 72.784 0 00-1.596-7.994c-.158-.59-.356-1.242-.79-1.509-1.105-.672-3.264.414-4.408.624-1.542.274-3.359.151-2.576 2.917zM72.822 190.108a48.195 48.195 0 011.642 7.436c.103.741.262 1.627.807 1.957.257.161.548.132.823.093 1.734-.228 3.42-.699 5.106-1.171.294-.086.615-.177.814-.456.333-.46.268-1.223.179-1.896a72.73 72.73 0 00-1.596-7.995c-.158-.589-.356-1.241-.79-1.509-1.106-.672-3.264.414-4.409.625-1.538.287-3.355.164-2.576 2.916zM84.988 187.723a48.132 48.132 0 011.641 7.436c.103.741.263 1.626.808 1.957.257.161.548.132.822.092 1.734-.227 3.42-.698 5.107-1.17.293-.086.614-.177.814-.456.333-.46.268-1.223.178-1.897a72.783 72.783 0 00-1.595-7.994c-.158-.59-.357-1.242-.79-1.509-1.106-.672-3.264.414-4.409.624-1.539.288-3.355.165-2.576 2.917zM97.263 185.316a48.183 48.183 0 011.641 7.436c.103.741.263 1.627.808 1.957.257.161.548.132.822.093 1.734-.227 3.421-.699 5.107-1.171.293-.086.614-.177.814-.456.333-.46.268-1.223.178-1.896a72.752 72.752 0 00-1.595-7.995c-.158-.589-.357-1.241-.79-1.509-1.106-.672-3.265.414-4.409.625-1.539.287-3.356.164-2.576 2.916zM109.429 182.931a48.084 48.084 0 011.641 7.436c.103.741.263 1.626.807 1.957.258.161.549.132.823.092 1.734-.227 3.42-.698 5.106-1.17.294-.086.615-.177.814-.456.334-.46.269-1.223.179-1.897a72.551 72.551 0 00-1.596-7.994c-.157-.59-.356-1.242-.79-1.509-1.105-.672-3.264.414-4.408.624-1.539.288-3.356.165-2.576 2.917zM121.908 180.485a48.214 48.214 0 011.641 7.435c.103.741.262 1.627.807 1.957.258.161.548.133.823.093 1.734-.227 3.42-.699 5.106-1.171.294-.085.615-.176.814-.455.333-.461.269-1.224.179-1.897a72.738 72.738 0 00-1.596-7.994c-.158-.59-.356-1.242-.79-1.51-1.105-.672-3.264.414-4.408.625-1.539.287-3.356.164-2.576 2.917zM76.071 206.678a48.183 48.183 0 011.642 7.436c.103.741.262 1.627.807 1.957.257.161.548.132.822.093 1.734-.228 3.42-.699 5.107-1.171.294-.086.614-.177.814-.456.333-.46.268-1.223.178-1.896a72.754 72.754 0 00-1.595-7.995c-.158-.589-.357-1.242-.79-1.509-1.106-.672-3.264.414-4.409.625-1.539.287-3.356.164-2.576 2.916zM88.237 204.293a48.145 48.145 0 011.641 7.435c.103.742.263 1.627.808 1.958.257.161.548.132.822.092 1.734-.227 3.42-.699 5.107-1.17.293-.086.614-.177.814-.456.333-.46.268-1.223.178-1.897a72.783 72.783 0 00-1.595-7.994c-.158-.59-.357-1.242-.79-1.509-1.106-.672-3.265.414-4.41.624-1.538.288-3.355.164-2.575 2.917zM100.512 201.886a48.084 48.084 0 011.641 7.436c.103.741.263 1.626.807 1.957.258.161.549.132.823.092 1.734-.227 3.42-.698 5.106-1.17.294-.086.615-.177.814-.456.334-.46.269-1.223.179-1.896a72.522 72.522 0 00-1.596-7.995c-.157-.589-.356-1.242-.79-1.509-1.105-.672-3.264.414-4.408.624-1.539.288-3.356.165-2.576 2.917zM112.678 199.501a48.097 48.097 0 011.641 7.435c.103.742.262 1.627.807 1.958.258.161.548.132.823.092 1.734-.227 3.42-.699 5.106-1.17.294-.086.615-.177.814-.456.333-.46.269-1.223.179-1.897a72.784 72.784 0 00-1.596-7.994c-.158-.59-.356-1.242-.79-1.509-1.105-.672-3.264.414-4.408.624-1.539.288-3.356.164-2.576 2.917zM125.156 197.054a48.255 48.255 0 011.642 7.436c.103.741.262 1.627.807 1.957.257.161.548.132.823.093 1.734-.227 3.42-.699 5.106-1.171.294-.086.615-.177.814-.455.333-.461.268-1.224.179-1.897a72.755 72.755 0 00-1.596-7.995c-.158-.589-.356-1.241-.79-1.509-1.106-.672-3.264.414-4.409.625-1.538.287-3.355.164-2.576 2.916zM79.557 224.457a48.156 48.156 0 011.641 7.435c.103.742.263 1.627.808 1.958.257.161.548.132.822.092 1.734-.227 3.42-.699 5.107-1.17.293-.086.614-.177.814-.456.333-.46.268-1.223.178-1.897a72.76 72.76 0 00-1.595-7.994c-.158-.59-.357-1.242-.79-1.51-1.106-.671-3.265.415-4.41.625-1.54.274-3.357.151-2.575 2.917zM91.722 222.072a48.156 48.156 0 011.642 7.435c.103.741.262 1.627.807 1.957.257.161.548.133.823.093 1.734-.227 3.42-.699 5.106-1.17.294-.086.615-.177.814-.456.333-.461.269-1.224.179-1.897a72.784 72.784 0 00-1.596-7.994c-.158-.59-.356-1.242-.79-1.51-1.105-.672-3.264.415-4.408.625-1.542.274-3.359.15-2.577 2.917zM103.998 219.665a48.097 48.097 0 011.641 7.435c.103.742.262 1.627.807 1.958.258.161.548.132.823.092 1.734-.227 3.42-.698 5.106-1.17.294-.086.615-.177.814-.456.334-.46.269-1.223.179-1.897a72.784 72.784 0 00-1.596-7.994c-.158-.59-.356-1.242-.79-1.509-1.105-.672-3.264.414-4.408.624-1.542.274-3.359.151-2.576 2.917zM116.163 217.28a48.217 48.217 0 011.642 7.435c.103.741.262 1.627.807 1.957.257.161.548.133.822.093 1.735-.227 3.421-.699 5.107-1.17.294-.086.614-.177.814-.456.333-.461.268-1.223.178-1.897a72.734 72.734 0 00-1.595-7.994c-.158-.59-.357-1.242-.79-1.51-1.106-.672-3.264.415-4.409.625-1.541.274-3.358.15-2.576 2.917zM128.642 214.833a48.203 48.203 0 011.642 7.436c.103.741.262 1.626.807 1.957.257.161.548.132.822.092 1.735-.227 3.421-.698 5.107-1.17.294-.086.614-.177.814-.456.333-.46.268-1.223.178-1.897a72.78 72.78 0 00-1.595-7.994c-.158-.59-.357-1.242-.79-1.509-1.106-.672-3.264.414-4.409.624-1.541.274-3.358.151-2.576 2.917zM83.03 242.168a48.156 48.156 0 011.64 7.435c.104.742.263 1.627.808 1.957.257.162.548.133.823.093 1.734-.227 3.42-.699 5.106-1.17.294-.086.615-.177.814-.456.333-.46.268-1.223.179-1.897a72.713 72.713 0 00-1.596-7.994c-.158-.59-.356-1.242-.79-1.51-1.106-.672-3.264.415-4.409.625-1.541.274-3.358.151-2.576 2.917zM95.195 239.782a48.171 48.171 0 011.641 7.436c.103.741.263 1.627.808 1.957.257.161.548.132.822.093 1.734-.228 3.42-.699 5.107-1.171.293-.086.614-.177.814-.456.333-.46.268-1.223.178-1.896a72.752 72.752 0 00-1.595-7.995c-.158-.589-.357-1.242-.79-1.509-1.106-.672-3.265.414-4.41.625-1.54.274-3.357.15-2.575 2.916zM107.47 237.376a48.097 48.097 0 011.641 7.435c.103.742.263 1.627.808 1.958.257.161.548.132.822.092 1.734-.227 3.421-.699 5.107-1.17.293-.086.614-.177.814-.456.333-.46.268-1.223.178-1.897a72.734 72.734 0 00-1.595-7.994c-.158-.59-.357-1.242-.79-1.51-1.106-.671-3.264.415-4.409.625-1.541.274-3.358.151-2.576 2.917zM119.636 234.99a48.135 48.135 0 011.641 7.436c.103.741.262 1.627.807 1.957.258.161.548.132.823.093 1.734-.227 3.42-.699 5.106-1.171.294-.085.615-.177.814-.455.333-.461.269-1.224.179-1.897a72.755 72.755 0 00-1.596-7.995c-.158-.589-.356-1.241-.79-1.509-1.105-.672-3.264.414-4.408.625-1.542.274-3.359.15-2.576 2.916zM132.115 232.544a48.097 48.097 0 011.641 7.435c.103.742.262 1.627.807 1.958.258.161.548.132.823.092 1.734-.227 3.42-.699 5.106-1.17.294-.086.615-.177.814-.456.333-.46.269-1.223.179-1.897a72.738 72.738 0 00-1.596-7.994c-.158-.59-.356-1.242-.79-1.51-1.105-.671-3.264.415-4.408.625-1.542.274-3.359.151-2.576 2.917zM86.278 258.738a48.133 48.133 0 011.641 7.435c.103.741.263 1.627.808 1.957.257.161.548.133.822.093 1.734-.227 3.42-.699 5.106-1.171.294-.085.615-.177.815-.455.333-.461.268-1.224.178-1.897a72.8 72.8 0 00-1.595-7.995c-.158-.589-.357-1.241-.79-1.509-1.106-.672-3.265.414-4.41.625-1.54.274-3.357.15-2.575 2.917zM98.444 256.352a48.195 48.195 0 011.641 7.436c.103.741.263 1.627.807 1.957.258.161.548.132.823.093 1.734-.228 3.42-.699 5.106-1.171.294-.086.615-.177.814-.456.334-.46.269-1.223.179-1.896a72.755 72.755 0 00-1.596-7.995c-.158-.589-.356-1.242-.79-1.509-1.105-.672-3.264.414-4.408.624-1.542.274-3.359.151-2.576 2.917zM110.719 253.946a48.097 48.097 0 011.641 7.435c.103.741.263 1.627.807 1.957.258.161.549.133.823.093 1.734-.227 3.42-.699 5.106-1.17.294-.086.615-.177.815-.456.333-.46.268-1.223.178-1.897a72.734 72.734 0 00-1.595-7.994c-.158-.59-.357-1.242-.79-1.51-1.106-.672-3.265.415-4.409.625-1.542.274-3.358.151-2.576 2.917zM122.884 251.56a48.255 48.255 0 011.642 7.436c.103.741.262 1.627.807 1.957.257.161.548.132.823.093 1.734-.227 3.42-.699 5.106-1.171.294-.086.615-.177.814-.455.333-.461.268-1.224.179-1.897a72.755 72.755 0 00-1.596-7.995c-.158-.589-.356-1.241-.79-1.509-1.106-.672-3.264.414-4.409.625-1.541.274-3.358.15-2.576 2.916zM135.363 249.114a48.097 48.097 0 011.641 7.435c.103.742.263 1.627.808 1.957.257.162.548.133.822.093 1.734-.227 3.421-.699 5.107-1.17.293-.086.614-.177.814-.456.333-.46.268-1.223.178-1.897a72.734 72.734 0 00-1.595-7.994c-.158-.59-.357-1.242-.79-1.51-1.106-.671-3.264.415-4.409.625-1.541.274-3.358.151-2.576 2.917zM89.764 276.516a48.143 48.143 0 011.641 7.436c.103.741.263 1.626.807 1.957.258.161.548.132.823.092 1.734-.227 3.42-.698 5.106-1.17.294-.086.615-.177.814-.456.334-.46.269-1.223.18-1.896a72.73 72.73 0 00-1.597-7.995c-.157-.589-.356-1.242-.79-1.509-1.105-.672-3.264.414-4.408.624-1.542.274-3.359.151-2.576 2.917zM101.93 274.131a48.331 48.331 0 011.641 7.435c.103.742.262 1.627.807 1.958.258.161.548.132.823.092 1.734-.227 3.42-.699 5.106-1.17.294-.086.615-.177.814-.456.333-.46.269-1.223.179-1.897a72.784 72.784 0 00-1.596-7.994c-.158-.59-.356-1.242-.79-1.509-1.105-.672-3.264.414-4.409.624-1.541.274-3.358.151-2.575 2.917zM114.204 271.724a48.255 48.255 0 011.642 7.436c.103.741.262 1.627.807 1.957.257.161.548.132.823.093 1.734-.227 3.42-.699 5.106-1.171.294-.085.615-.177.814-.455.333-.461.268-1.224.179-1.897a72.755 72.755 0 00-1.596-7.995c-.158-.589-.356-1.241-.79-1.509-1.106-.672-3.264.414-4.409.625-1.541.274-3.358.15-2.576 2.916zM126.37 269.339a48.217 48.217 0 011.642 7.435c.103.742.262 1.627.807 1.958.257.161.548.132.823.092 1.734-.227 3.42-.698 5.106-1.17.294-.086.614-.177.814-.456.333-.46.268-1.223.178-1.897a72.547 72.547 0 00-1.595-7.994c-.158-.59-.357-1.242-.79-1.509-1.106-.672-3.264.414-4.409.624-1.541.274-3.358.151-2.576 2.917zM138.849 266.892a48.135 48.135 0 011.641 7.436c.103.741.263 1.627.808 1.957.257.161.548.132.822.093 1.734-.227 3.42-.699 5.107-1.171.293-.086.614-.177.814-.455.333-.461.268-1.224.178-1.897a72.752 72.752 0 00-1.595-7.995c-.158-.589-.357-1.241-.79-1.509-1.106-.672-3.265.414-4.409.625-1.541.274-3.358.15-2.576 2.916zM93.114 293.602a48.131 48.131 0 011.64 7.436c.104.741.263 1.626.808 1.957.258.161.548.132.823.092 1.734-.227 3.42-.698 5.106-1.17.294-.086.615-.177.814-.456.334-.46.269-1.223.179-1.897a72.784 72.784 0 00-1.596-7.994c-.158-.59-.356-1.242-.79-1.509-1.105-.672-3.264.414-4.408.624-1.542.274-3.359.151-2.576 2.917zM105.279 291.217a48.217 48.217 0 011.642 7.435c.103.742.262 1.627.807 1.958.257.161.548.132.823.092 1.734-.227 3.42-.698 5.106-1.17.294-.086.615-.177.814-.456.333-.46.268-1.223.179-1.897a72.784 72.784 0 00-1.596-7.994c-.158-.59-.356-1.242-.79-1.509-1.106-.672-3.264.414-4.409.624-1.541.274-3.358.151-2.576 2.917zM117.554 288.81a48.255 48.255 0 011.642 7.436c.103.741.262 1.627.807 1.957.257.161.548.132.823.093 1.734-.228 3.42-.699 5.106-1.171.294-.086.615-.177.814-.456.333-.46.268-1.223.179-1.896a72.755 72.755 0 00-1.596-7.995c-.158-.589-.356-1.242-.79-1.509-1.106-.672-3.264.414-4.409.624-1.541.274-3.358.151-2.576 2.917zM129.72 286.425a48.097 48.097 0 011.641 7.435c.103.742.263 1.627.808 1.958.257.161.548.132.822.092 1.734-.227 3.421-.698 5.107-1.17.293-.086.614-.177.814-.456.333-.46.268-1.223.178-1.897a72.78 72.78 0 00-1.595-7.994c-.158-.59-.357-1.242-.79-1.509-1.106-.672-3.264.414-4.409.624-1.541.274-3.358.151-2.576 2.917zM142.199 283.978a48.135 48.135 0 011.641 7.436c.103.741.263 1.627.807 1.957.258.161.549.132.823.093 1.734-.227 3.42-.699 5.106-1.171.294-.086.615-.177.814-.456.334-.46.269-1.223.179-1.896a72.522 72.522 0 00-1.596-7.995c-.157-.589-.356-1.241-.79-1.509-1.105-.672-3.264.414-4.408.625-1.542.274-3.358.15-2.576 2.916zM96.362 310.172a48.143 48.143 0 011.642 7.436c.103.741.262 1.626.807 1.957.257.161.548.132.823.092 1.734-.227 3.42-.698 5.106-1.17.294-.086.615-.177.814-.456.333-.46.268-1.223.179-1.896a72.755 72.755 0 00-1.596-7.995c-.158-.589-.356-1.242-.79-1.509-1.106-.672-3.264.414-4.409.624-1.541.274-3.358.151-2.576 2.917zM108.528 307.787a48.217 48.217 0 011.642 7.435c.103.742.262 1.627.807 1.958.257.161.548.132.823.092 1.734-.227 3.42-.699 5.106-1.17.294-.086.615-.177.814-.456.333-.46.268-1.223.179-1.897a72.784 72.784 0 00-1.596-7.994c-.158-.59-.356-1.242-.79-1.509-1.106-.672-3.264.414-4.409.624-1.541.274-3.358.151-2.576 2.917zM120.803 305.38a48.084 48.084 0 011.641 7.436c.103.741.263 1.627.808 1.957.257.161.548.132.822.092 1.734-.227 3.421-.698 5.107-1.17.293-.086.614-.177.814-.456.333-.46.268-1.223.178-1.896a72.752 72.752 0 00-1.595-7.995c-.158-.589-.357-1.242-.79-1.509-1.106-.672-3.264.414-4.409.624-1.541.274-3.358.151-2.576 2.917zM132.969 302.995a48.097 48.097 0 011.641 7.435c.103.742.263 1.627.808 1.958.257.161.548.132.822.092 1.734-.227 3.421-.699 5.107-1.17.293-.086.614-.177.814-.456.333-.46.268-1.223.178-1.897a72.78 72.78 0 00-1.595-7.994c-.158-.59-.357-1.242-.79-1.509-1.106-.672-3.264.414-4.409.624-1.541.274-3.358.151-2.576 2.917zM145.448 300.548a48.135 48.135 0 011.641 7.436c.103.741.262 1.627.807 1.957.258.161.548.132.823.093 1.734-.228 3.42-.699 5.106-1.171.294-.086.615-.177.814-.456.334-.46.269-1.223.179-1.896a72.755 72.755 0 00-1.596-7.995c-.158-.589-.356-1.242-.79-1.509-1.105-.672-3.264.414-4.408.624-1.542.274-3.359.151-2.576 2.917zM99.846 327.937a48.298 48.298 0 011.641 7.436c.103.741.262 1.627.807 1.957.258.161.548.132.823.093 1.734-.228 3.42-.699 5.106-1.171.294-.086.615-.177.814-.456.333-.46.269-1.223.179-1.896a72.755 72.755 0 00-1.596-7.995c-.158-.589-.356-1.242-.79-1.509-1.105-.672-3.264.414-4.408.624-1.542.274-3.359.151-2.576 2.917zM112.011 325.552a48.217 48.217 0 011.642 7.435c.103.742.262 1.627.807 1.958.257.161.548.132.823.092 1.734-.227 3.42-.699 5.106-1.17.294-.086.615-.177.814-.456.333-.46.268-1.223.179-1.897a72.738 72.738 0 00-1.596-7.994c-.158-.59-.356-1.242-.79-1.51-1.106-.671-3.264.415-4.409.625-1.541.274-3.358.151-2.576 2.917zM124.286 323.145a48.255 48.255 0 011.642 7.436c.103.741.262 1.627.807 1.957.257.161.548.132.823.093 1.734-.227 3.42-.699 5.106-1.171.294-.086.614-.177.814-.456.333-.46.268-1.223.179-1.896a72.755 72.755 0 00-1.596-7.995c-.158-.589-.357-1.241-.79-1.509-1.106-.672-3.264.414-4.409.625-1.541.274-3.358.15-2.576 2.916zM136.452 320.76a48.097 48.097 0 011.641 7.435c.103.742.263 1.627.808 1.958.257.161.548.132.822.092 1.734-.227 3.42-.699 5.107-1.17.293-.086.614-.177.814-.456.333-.46.268-1.223.178-1.897a72.78 72.78 0 00-1.595-7.994c-.158-.59-.357-1.242-.79-1.509-1.106-.672-3.265.414-4.409.624-1.541.274-3.358.151-2.576 2.917zM148.931 318.313a48.135 48.135 0 011.641 7.436c.103.741.263 1.627.807 1.957.258.161.549.132.823.093 1.734-.228 3.42-.699 5.106-1.171.294-.086.615-.177.814-.456.334-.46.269-1.223.179-1.896a72.755 72.755 0 00-1.596-7.995c-.158-.589-.356-1.242-.79-1.509-1.105-.672-3.264.414-4.408.625-1.542.274-3.359.15-2.576 2.916z" fill="#FFF2EA"/><g clip-path="url(#prefix__clip0)"><path d="M167.283 263c-.445 0-.884 0-1.324-.006-.398 0-.801-.006-1.199-.006l-3.777-.006v-3.786c0-14.457.172-29.206.338-42.109a61.536 61.536 0 00-1.009-.465c-1.271-.571-2.714-1.22-4.139-2.339-3.076-2.41-6.194-6.475-9.525-12.415-5.273-9.405-4.608-18.838-3.973-27.963.547-7.82 1.063-15.213-2.351-21.962-1.936-3.827-4.662-7.226-7.548-10.821-3.438-4.291-7.001-8.725-9.435-14.219-3.647-8.214-8.706-24.046-1.633-37.795 4.043-7.856 10.035-13.255 15.831-18.474.902-.81 1.811-1.631 2.714-2.464 3.129-2.87 5.558-6.446 8.123-10.232 1.841-2.708 3.741-5.511 5.962-8.112 8.023-9.404 18.634-15.148 29.109-15.773 8.593-.506 16.651 2.476 23.308 8.636 5.552 5.137 9.388 12.773 10.261 20.422.511 4.517-.653 7.326-1.681 9.802-.486 1.179-.944 2.286-1.294 3.673-2.031 8.052-.125 16.225 1.888 24.879 2.815 12.082 5.725 24.575-2.244 37.259-1.206 1.922-2.488 3.595-3.73 5.219-2.339 3.06-4.364 5.702-5.439 9.345-1.443 4.869-2.28 9.88-3.171 15.183-.808 4.821-1.639 9.797-2.969 14.678-1.17 4.279-2.868 8.059-4.513 11.719-1.514 3.369-2.94 6.547-3.931 9.999-.113.393-.22.792-.333 1.209-.908 3.333-2.143 7.898-5.944 10.511-2.399 1.648-6.366 2.857-9.917 3.464-.095 4.958-.095 9.963-.089 14.832 0 1.815.006 3.625 0 5.428-.006 2.708.315 5.375.653 8.19.416 3.458.85 7.041.66 10.832l-.173 3.423-3.42.172c-1.378.06-2.744.072-4.086.072zm18.064-221.424c-.481 0-.967.018-1.454.042-8.314.488-17.209 5.398-23.807 13.13-1.953 2.291-3.652 4.797-5.457 7.452-2.702 3.976-5.493 8.094-9.27 11.558a253.42 253.42 0 01-2.767 2.512c-5.534 4.982-10.76 9.696-14.168 16.314-2.417 4.696-5.392 14.999 1.817 31.248 2.037 4.589 5.136 8.458 8.42 12.547 3.005 3.737 6.105 7.606 8.397 12.136 4.364 8.612 3.747 17.415 3.153 25.92-.588 8.38-1.14 16.296 3.023 23.724 2.791 4.982 5.344 8.399 7.589 10.154.706.554 1.579.947 2.583 1.399 1.306.589 2.785 1.256 4.168 2.429l.95.809 1.307-.071c3.61-.191 8.016-1.506 9.543-2.554 1.508-1.035 2.262-3.803 2.921-6.249.125-.453.244-.893.362-1.316 1.141-3.976 2.75-7.559 4.3-11.017 1.591-3.553 3.099-6.904 4.109-10.612 1.229-4.506 2.031-9.297 2.809-13.927.885-5.292 1.805-10.767 3.379-16.083 1.478-4.987 4.127-8.451 6.692-11.796 1.188-1.554 2.31-3.018 3.331-4.643 6.283-10.005 3.854-20.445 1.277-31.497-2.132-9.154-4.335-18.618-1.859-28.45.487-1.923 1.099-3.41 1.645-4.72.897-2.173 1.443-3.476 1.152-6.041-.677-5.899-3.616-11.773-7.88-15.72-4.786-4.434-10.255-6.678-16.265-6.678z" fill="#FEF1E9"/><path d="M164.759 259.209c0-34.2.926-68.376.926-102.605 0-6.708-1.075-14.237 0-20.85.594-3.655-.326-2.559 2.779-3.702 1.544-.566 4.288-.685 5.95-.393 1.045 21.76-.083 44.306-2.951 65.822-1.865 13.987-1.58 28.683-1.609 42.812-.018 6.411 1.639 12.428 1.318 18.844-2.114.101-4.281.072-6.413.072z" fill="#16351C"/><path d="M166.356 216.414c-1.918-2.892-5.178-3.011-7.856-5.106-3.409-2.673-6.473-7.571-8.557-11.285-9.157-16.338 1.77-33.944-6.247-49.782-4.519-8.922-12.696-15.374-16.9-24.861-4.727-10.648-7.227-23.832-1.728-34.521 4.317-8.392 11.081-13.767 17.737-19.88 5.832-5.356 9.288-12.683 14.406-18.683 12.025-14.1 31.924-20.748 46.972-6.815 4.934 4.571 8.307 11.368 9.067 18.07.612 5.393-1.674 7.303-2.886 12.118-5.213 20.671 12.673 41.045.107 61.043-3.373 5.369-7.69 9.059-9.596 15.505-2.886 9.731-3.474 20.094-6.164 29.932-2.126 7.785-6.241 14.047-8.426 21.671-.932 3.256-1.752 7.559-4.786 9.642-3.047 2.095-11.253 3.964-15.143 2.952z" fill="#2C8354"/><path d="M137.502 102.138c1.378 4.606.475 11.177 2.382 15.974 2.345 5.917 6.472 11.815 9.489 17.487 2.672 5.036 4.572 10.38 7.256 15.451 10.66 20.118 13.914 41.217 10.309 63.543 4.852-10.023 6.324-22.486 6.71-33.634.576-16.856-7.44-33.771-8.764-50.621-1.734-21.987 4.222-50.96 19.625-67.138" stroke="#16351C" stroke-width="4.476" stroke-miterlimit="10" stroke-linecap="round" stroke-linejoin="round"/><path d="M166.76 216.075c7.773-6.113 12.868-10.785 15.837-20.219 3.581-11.38.897-22.034-.493-33.426-1.057-8.671-1.443-18.242 2.536-26.188 3.818-7.624 11.17-13.219 17.138-19.201" stroke="#16351C" stroke-width="4.476" stroke-miterlimit="10" stroke-linecap="round" stroke-linejoin="round"/></g><path fill-rule="evenodd" clip-rule="evenodd" d="M439.858 451.21c24.668-10.422 58.408-24.677 65.249-96.666a69.65 69.65 0 00.343-3.944c.04-.504.079-1.011.116-1.52a23.85 23.85 0 00-.003-3.765c-.141-8.727-1.92-17.342-5.523-24.262a36.415 36.415 0 00-1.058-1.893l-.068-.113-.1-.167-.063-.102-.057-.093a33.998 33.998 0 00-3.629-4.867c-6.918-7.794-16.207-11.084-24.99-13.808-124.251-38.512-252.582-50.024-379.222-34.009-20.984 2.655-42.666 6.402-60.72 21.95-7.13 6.144-13.542 14.624-18.375 24.456a88.17 88.17 0 00-3.098 7.009c-3.244 8.257-5.377 17.216-5.98 26.376l-.174-.013c-6.66 23.094.129 58.733 18.302 72.819 36.658 35.898 90.597 39.447 140.017 41.117l80.314 2.712 80.448 2.716c39.24 1.322 79.738 2.426 116.286-13.093.654-.278 1.316-.557 1.985-.84z" fill="#fff"/><path d="M429.821 442.261c-34.958 13.717-73.694 12.742-111.226 11.573l-153.767-4.798c-47.269-1.476-98.862-4.614-133.925-36.346-17.382-12.452-23.876-43.956-17.505-64.37 131.877 8.63 262.875 14.21 394.462 1.907 20.151-1.881 89.275-31.311 86.709 1.011-5.519 69.633-40.45 81.488-64.748 91.023z" fill="#666"/><path d="M493.409 360.438c-1.679 8.155-4.948 15.546-9.087 22.031a74.412 74.412 0 01-6.687 8.955c-21.354 24.588-51.215 30.581-79.38 34.395a1036.575 1036.575 0 01-139.513 9.367c-21.389-.008-42.884.027-64.115-3.19-18.665-2.829-37.401.958-56.259.088-24.237-1.116-48.385-5.967-71.77-14.499-17.311-6.328-35.967-17.163-45.959-35.599-2.917-5.361-5.097-11.372-6.292-18.103-2.794-15.686.8-31.768 7.9-45.063 4.623-8.691 10.756-16.187 17.576-21.618 17.267-13.744 38.006-17.057 58.078-19.403 121.129-14.157 243.876-3.981 362.721 30.062 8.401 2.408 17.285 5.317 23.902 12.206a30.355 30.355 0 013.682 4.623c6.248 9.561 7.716 23.56 5.203 35.748z" fill="#999"/><path d="M493.409 360.438c-1.679 8.155-4.948 15.546-9.087 22.031-34.922-.035-69.845 4.78-104.767 5.404-93.229 1.679-186.466.44-279.695.343-26.407-.026-52.814-6.204-79.221-6.23-2.918-5.361-5.097-11.372-6.292-18.103-2.197-12.338-.44-24.922 3.867-36.197a74.953 74.953 0 014.033-8.866c33.182-.703 66.716.817 99.767.834 84.309.053 168.627-2.539 252.936-2.486 7.918 0 70.768 2.882 109.574 2.899a30.355 30.355 0 013.682 4.623 31.537 31.537 0 012.32 4.227c4.262 9.192 5.044 21.029 2.883 31.521z" fill="#666"/><path d="M493.409 360.438c-1.679 8.155-4.948 15.546-9.087 22.031-34.922-.035-69.845 4.781-104.767 5.405-93.229 1.678-186.466.439-279.695.342-26.407-.026-52.814-6.204-79.221-6.23-2.918-5.361-5.097-11.371-6.292-18.103-2.197-12.338-.44-24.922 3.867-36.196 29.333.052 58.78.993 87.903 1.01 94.468.053 188.944-2.539 283.412-2.487 7.496 0 58.992 2.057 100.997 2.707 4.262 9.192 5.044 21.029 2.883 31.521z" fill="#CCC"/><path d="M68.725 361.633c19.28.018 38.552.027 57.832.044-.448-3.664-.887-7.329-1.336-10.993a177.24 177.24 0 00-38.27-2.417c-3.612.158-15.598-.712-18.2 1.881-1.08 1.054.308 11.485-.026 11.485z" fill="#FFF2EA"/><path d="M212.562 361.633c19.281.018 38.552.027 57.832.044-.448-3.664-.887-7.329-1.335-10.993a177.252 177.252 0 00-38.271-2.417c-3.612.158-15.598-.712-18.199 1.881-1.072 1.054.316 11.485-.027 11.485z" fill="#fff"/><path d="M356.408 361.633c19.281.018 38.552.027 57.832.044-.448-3.664-.887-7.329-1.336-10.993a177.239 177.239 0 00-38.27-2.417c-3.612.158-15.598-.712-18.199 1.881-1.072 1.054.316 11.485-.027 11.485z" fill="#FFF2EA"/><path opacity=".7" d="M250.127 378.977c84.36 0 152.747-7.657 152.747-17.101 0-9.445-68.387-17.101-152.747-17.101-84.361 0-152.748 7.656-152.748 17.101 0 9.444 68.387 17.101 152.748 17.101z" fill="#666"/><path d="M129.724 350.896l.038.029.038.028c8.669 6.306 18.141 9.51 28.339 9.51 8.276 0 16.23-2.543 23.777-7.445l.09-.059.086-.064a58.336 58.336 0 0014.441-15.419l.004-.007.004-.006c3.088-4.849 6.133-11.077 9.114-18.636l.026-.066.023-.067c2.319-6.655 3.851-13.932 4.586-21.835.361-3.069.549-6.072.549-9.036 0-5.08-.297-9.623-.911-13.621l-.002-.015-.002-.014c-2.44-15.058-8.19-28.415-17.272-39.982l-.002-.002c-5.128-6.519-11.18-11.518-18.145-14.947-6.915-3.409-14.032-5.139-21.306-5.139-17.943 0-31.805 9.867-41.539 28.402l-.064.122-.054.126a82.827 82.827 0 00-3.685 10.523l-.04.141-.027.143a2.558 2.558 0 01-.222.677l-.146.294-.09.316c-2.796 9.854-4.193 19.795-4.193 29.786 0 17.015 3.75 32.707 11.297 47.011 3.639 7.74 8.72 14.197 15.288 19.252zm37.083-37.693l-.048.078-.044.079c-1.781 3.225-3.306 5.641-4.573 7.309-.632.832-1.158 1.421-1.577 1.815-.396.373-.592.472-.591.473l.007-.003c-.96.394-1.69.665-2.213.833-.218.07-.373.113-.475.138-.446-.047-1.332-.331-2.73-1.465-1.488-1.208-3.25-3.134-5.277-5.909-5.432-10.059-8.117-20.5-8.117-31.378 0-4.057.334-8.038 1.009-11.967l.008-.048.007-.048c.909-6.319 2.557-12.201 4.951-17.662l.002-.004c1.177-2.694 2.316-4.43 3.322-5.447.961-.972 1.622-1.124 2.031-1.124.623 0 1.763.26 3.546 1.246 1.709.945 3.769 2.422 6.191 4.505 2.225 2.381 4.52 5.813 6.781 10.421l.005.01c2.273 4.593 3.702 9.102 4.354 13.546l.006.044.008.043c.428 2.476.659 5.449.659 8.955 0 1.596-.144 3.239-.434 4.977l-.09.267-.106.311-.046.325c-.553 3.917-1.817 8.555-3.864 13.922l-.23.602v.319a32.864 32.864 0 01-2.472 4.837zm-9.625 10.746l.013-.002-.013.002z" fill="#F98E12" stroke="#FFF2EA" stroke-width="7"/><mask id="prefix__a" maskUnits="userSpaceOnUse" x="134.044" y="96" width="288" height="268" fill="#000"><path fill="#fff" d="M134.044 96h288v268h-288z"/><path d="M412.689 224.773c-1.53-8.78-3.7-16.53-6.52-23.21-3.53-7.96-7.58-14.85-12.16-20.62-8.36-10.74-17.17-18.32-26.46-22.7-13.53-5.66-27.62-8.49-42.32-8.49-10 0-19.7 1.9-29.1 5.72-.91.46-1.8.97-2.69 1.44-2.02-4.04-4.1-8-6.21-11.89-2.11-3.89-3.95-7.14-5.52-9.79l-1.48-2.72c-2.69-4.62-5.41-9.22-8.1-13.84l-3.31-5.37c-.67-1.26-1.62-2.7-2.8-4.36-.15-.2-.31-.37-.45-.53-.62-1.08-1.57-2.06-2.86-2.94-1.42-1.22-4.95-2.65-8.98.13-4.04 2.79-18.97 22.31-17.01 35.52.02.18.73 4.69 7.08 6.03.62.13 1.16.18 1.66.18 1.58 0 2.64-.55 3.3-1.08 1.84-1.5 1.89-3.85 1.89-3.98 0-.07.6-6.45 6.61-16.11.13.27.25.53.4.82l4.62 8.69 1.07 1.97 3.42 6.3 9.96 18.32c.87 1.63 1.69 3.23 2.55 4.86-.2.18-.4.35-.6.53-.22.22-.42.46-.64.68-.16.15-.33.29-.51.46-.15.13-.29.29-.42.44-7.3 7.65-10.71 13.77-14.39 19.25l-1.73 3.12c-1.82 3.03-6.05 11.5-10.12 20.85-3.8 8.73-8.67 19.21-12.91 28.1-1.4 2.87-3.7 7.94-6.9 15.17-.62-1.351-1.15-2.46-1.57-3.32-3.33-6.99-6.79-13.75-10.4-20.31-1.93-3.49-3.6-6.43-5.02-8.8l-1.35-2.45c-2.46-4.16-4.93-8.31-7.39-12.47l-2.75-4.42c3.26-.05 6.77 0 10.6.18 1 .15 6.37.79 9.56-2.08 1.07-.97 2.31-2.74 2.2-5.72.07-1.13-.15-5.44-7.25-7.23-6.17-1.55-40.52-2.03-53.37 6.96-1.71 1.17-4.1 4.71-.93 9.7 1.66 2.63 4.01 3.43 6.06 3.43 1.51 0 2.88-.42 3.75-.88.07-.04 4.61-1.95 13.82-3.25.16.38.33.78.56 1.21 1.27 2.76 1.95 4.2 2 4.36.05.15.89 1.88 2.53 5.17l4.22 7.82.98 1.77 3.13 5.66 4.35 7.91c-1.97.68-3.88 1.849-5.59 3.01-7.1 4.82-14.22 9.619-21.32 14.44-3.79 2.17-8.8 5.409-15.04 9.73-3.92 2.94-6.19 4.58-6.85 4.91l-1.15.91a62.98 62.98 0 00-5.72 4.62c-.95.679-2.19 1.84-3.7 3.49-2.51 2.87-3.62 5.37-3.33 7.45.13.91.36 1.84.67 2.79.47 1.39.78 2.23.95 2.52.16.289.76.84 1.78 1.61l.24.18c1.57.95 3.28 1.52 5.12 1.72 3 .33 7.5.22 13.48-.33 3.46-.29 5.79-.44 7.05-.44 5.24-.26 8.67-.38 10.25-.38 4.92.22 9.01.51 12.27.88 4.48.49 9.58 1.35 15.28 2.61.66.18 1.33.35 2.02.47l9.36 2.23c2.46.64 4.52.68 6.17.13.8-.27 1.47-.68 2.06-1.24.71-.62 1.22-1.32 1.55-2.06.46-.73 1.02-1.72 1.73-3.01l1.75-3.4c3.66-7.72 6.12-12.73 7.39-15.03l5.35-10.54c1.24-2.5 2.51-4.99 3.86-7.43l.07.02c.97 13.71 3.75 26.86 8.41 39.41 3.53 9.35 7.81 17.49 12.87 24.43 11.05 16.05 24.4 26.51 40.04 31.35 6.7 1.97 13.46 2.94 20.29 2.94 8.94 0 17.61-1.99 26.02-5.97 8.4-3.98 17.08-10.83 26.02-20.53.24-.46.53-.86.87-1.21 10.34-12.58 18.05-26.86 23.11-42.8 3.99-12.12 6.17-24.381 6.52-36.72 0-9.241-.66-17.57-1.95-24.95zm-191.49 54.93c-.66 2.34-1.71 5.06-4.08 5.57-.09.02-.2 0-.29.02-2.62-.66-5.32-1.26-8.1-1.83l-2.55-.46c-6.34-1.22-12.56-1.99-18.72-2.34-3.84-.16-6.32-.22-7.41-.15-4.04-.04-8.07.15-12.05.57l-1.49.06c.4-.2 1.17-.75 2.28-1.66 1.98-1.46 4.04-2.9 6.15-4.33 6.3-4.46 13.24-8.67 20.83-12.64l1.15-.57c2.48-1.26 4.24-2.06 5.3-2.43l2.08-.88c.97-.36 1.95-.75 2.97-1.19 1.24-.53 2.53-.91 3.77-1.41.57.07 1.13.26 1.68.62 1.46.97 2.33 2.59 3.13 4.15 1.48 2.85 2.95 5.7 4.44 8.53.75 1.42 1.49 2.88 1.73 4.47.25 2.009-.29 4-.82 5.9zm157.99-21.49c-.82 5.9-2.4 12.42-4.77 19.58l-.87 2.59c-1.4 4.27-3.83 9.59-7.23 15.94-3.17 5.66-6.59 10.46-10.23 14.39-7.88 8.78-16.11 13.17-24.69 13.17-12.35 0-23.75-8.6-34.22-25.82a88.465 88.465 0 01-8.47-20.27c-2.48-10.04-3.7-19.87-3.7-29.45 0-6.46.42-12.36 1.24-17.68.82-4.16 1.77-8.31 2.82-12.47 1.88-6.7 4.22-12.47 7.05-17.33.16-.24.31-.46.47-.68l2.09 4.24c1.82 3.56 3.61 7.18 5.35 10.85l8.96 18.85 3.08 6.48.97 2.03 4.3 8.86c1.89 3.6 2.9 5.48 3.01 5.62.11.149.98 1.68 2.62 4.62 1.11 2.32 2.48 3.65 4.15 3.98 1.66.33 3.26.13 4.77-.62 1.99-.97 3.46-2.45 4.44-4.46.87-1.86.98-3.76.33-5.71-.64-1.95-1.28-3.56-1.89-4.86l-2.4-5.84c-2.15-4.911-4.3-9.82-6.45-14.72l-1.33-2.81c-1.22-2.83-2.77-6.23-4.68-10.23a441.27 441.27 0 00-11-21.49c.06.04.11.07.15.09-.84-1.92-2.4-5-4.21-8.44 5.43-4.15 11.11-6.23 17.08-6.23 9.41 0 18.34 2.37 26.81 7.1 8.47 5.42 15.22 13.62 20.29 24.6l.71 1.55c2.35 5.31 3.88 10.52 4.59 15.59 1.06 5.079 1.59 10.46 1.59 16.11-.02 4.43-.26 8.7-.73 12.87z"/></mask><path d="M412.689 224.773c-1.53-8.78-3.7-16.53-6.52-23.21-3.53-7.96-7.58-14.85-12.16-20.62-8.36-10.74-17.17-18.32-26.46-22.7-13.53-5.66-27.62-8.49-42.32-8.49-10 0-19.7 1.9-29.1 5.72-.91.46-1.8.97-2.69 1.44-2.02-4.04-4.1-8-6.21-11.89-2.11-3.89-3.95-7.14-5.52-9.79l-1.48-2.72c-2.69-4.62-5.41-9.22-8.1-13.84l-3.31-5.37c-.67-1.26-1.62-2.7-2.8-4.36-.15-.2-.31-.37-.45-.53-.62-1.08-1.57-2.06-2.86-2.94-1.42-1.22-4.95-2.65-8.98.13-4.04 2.79-18.97 22.31-17.01 35.52.02.18.73 4.69 7.08 6.03.62.13 1.16.18 1.66.18 1.58 0 2.64-.55 3.3-1.08 1.84-1.5 1.89-3.85 1.89-3.98 0-.07.6-6.45 6.61-16.11.13.27.25.53.4.82l4.62 8.69 1.07 1.97 3.42 6.3 9.96 18.32c.87 1.63 1.69 3.23 2.55 4.86-.2.18-.4.35-.6.53-.22.22-.42.46-.64.68-.16.15-.33.29-.51.46-.15.13-.29.29-.42.44-7.3 7.65-10.71 13.77-14.39 19.25l-1.73 3.12c-1.82 3.03-6.05 11.5-10.12 20.85-3.8 8.73-8.67 19.21-12.91 28.1-1.4 2.87-3.7 7.94-6.9 15.17-.62-1.351-1.15-2.46-1.57-3.32-3.33-6.99-6.79-13.75-10.4-20.31-1.93-3.49-3.6-6.43-5.02-8.8l-1.35-2.45c-2.46-4.16-4.93-8.31-7.39-12.47l-2.75-4.42c3.26-.05 6.77 0 10.6.18 1 .15 6.37.79 9.56-2.08 1.07-.97 2.31-2.74 2.2-5.72.07-1.13-.15-5.44-7.25-7.23-6.17-1.55-40.52-2.03-53.37 6.96-1.71 1.17-4.1 4.71-.93 9.7 1.66 2.63 4.01 3.43 6.06 3.43 1.51 0 2.88-.42 3.75-.88.07-.04 4.61-1.95 13.82-3.25.16.38.33.78.56 1.21 1.27 2.76 1.95 4.2 2 4.36.05.15.89 1.88 2.53 5.17l4.22 7.82.98 1.77 3.13 5.66 4.35 7.91c-1.97.68-3.88 1.849-5.59 3.01-7.1 4.82-14.22 9.619-21.32 14.44-3.79 2.17-8.8 5.409-15.04 9.73-3.92 2.94-6.19 4.58-6.85 4.91l-1.15.91a62.98 62.98 0 00-5.72 4.62c-.95.679-2.19 1.84-3.7 3.49-2.51 2.87-3.62 5.37-3.33 7.45.13.91.36 1.84.67 2.79.47 1.39.78 2.23.95 2.52.16.289.76.84 1.78 1.61l.24.18c1.57.95 3.28 1.52 5.12 1.72 3 .33 7.5.22 13.48-.33 3.46-.29 5.79-.44 7.05-.44 5.24-.26 8.67-.38 10.25-.38 4.92.22 9.01.51 12.27.88 4.48.49 9.58 1.35 15.28 2.61.66.18 1.33.35 2.02.47l9.36 2.23c2.46.64 4.52.68 6.17.13.8-.27 1.47-.68 2.06-1.24.71-.62 1.22-1.32 1.55-2.06.46-.73 1.02-1.72 1.73-3.01l1.75-3.4c3.66-7.72 6.12-12.73 7.39-15.03l5.35-10.54c1.24-2.5 2.51-4.99 3.86-7.43l.07.02c.97 13.71 3.75 26.86 8.41 39.41 3.53 9.35 7.81 17.49 12.87 24.43 11.05 16.05 24.4 26.51 40.04 31.35 6.7 1.97 13.46 2.94 20.29 2.94 8.94 0 17.61-1.99 26.02-5.97 8.4-3.98 17.08-10.83 26.02-20.53.24-.46.53-.86.87-1.21 10.34-12.58 18.05-26.86 23.11-42.8 3.99-12.12 6.17-24.381 6.52-36.72 0-9.241-.66-17.57-1.95-24.95zm-191.49 54.93c-.66 2.34-1.71 5.06-4.08 5.57-.09.02-.2 0-.29.02-2.62-.66-5.32-1.26-8.1-1.83l-2.55-.46c-6.34-1.22-12.56-1.99-18.72-2.34-3.84-.16-6.32-.22-7.41-.15-4.04-.04-8.07.15-12.05.57l-1.49.06c.4-.2 1.17-.75 2.28-1.66 1.98-1.46 4.04-2.9 6.15-4.33 6.3-4.46 13.24-8.67 20.83-12.64l1.15-.57c2.48-1.26 4.24-2.06 5.3-2.43l2.08-.88c.97-.36 1.95-.75 2.97-1.19 1.24-.53 2.53-.91 3.77-1.41.57.07 1.13.26 1.68.62 1.46.97 2.33 2.59 3.13 4.15 1.48 2.85 2.95 5.7 4.44 8.53.75 1.42 1.49 2.88 1.73 4.47.25 2.009-.29 4-.82 5.9zm157.99-21.49c-.82 5.9-2.4 12.42-4.77 19.58l-.87 2.59c-1.4 4.27-3.83 9.59-7.23 15.94-3.17 5.66-6.59 10.46-10.23 14.39-7.88 8.78-16.11 13.17-24.69 13.17-12.35 0-23.75-8.6-34.22-25.82a88.465 88.465 0 01-8.47-20.27c-2.48-10.04-3.7-19.87-3.7-29.45 0-6.46.42-12.36 1.24-17.68.82-4.16 1.77-8.31 2.82-12.47 1.88-6.7 4.22-12.47 7.05-17.33.16-.24.31-.46.47-.68l2.09 4.24c1.82 3.56 3.61 7.18 5.35 10.85l8.96 18.85 3.08 6.48.97 2.03 4.3 8.86c1.89 3.6 2.9 5.48 3.01 5.62.11.149.98 1.68 2.62 4.62 1.11 2.32 2.48 3.65 4.15 3.98 1.66.33 3.26.13 4.77-.62 1.99-.97 3.46-2.45 4.44-4.46.87-1.86.98-3.76.33-5.71-.64-1.95-1.28-3.56-1.89-4.86l-2.4-5.84c-2.15-4.911-4.3-9.82-6.45-14.72l-1.33-2.81c-1.22-2.83-2.77-6.23-4.68-10.23a441.27 441.27 0 00-11-21.49c.06.04.11.07.15.09-.84-1.92-2.4-5-4.21-8.44 5.43-4.15 11.11-6.23 17.08-6.23 9.41 0 18.34 2.37 26.81 7.1 8.47 5.42 15.22 13.62 20.29 24.6l.71 1.55c2.35 5.31 3.88 10.52 4.59 15.59 1.06 5.079 1.59 10.46 1.59 16.11-.02 4.43-.26 8.7-.73 12.87z" fill="#64676A"/><path d="M412.689 224.773c-1.53-8.78-3.7-16.53-6.52-23.21-3.53-7.96-7.58-14.85-12.16-20.62-8.36-10.74-17.17-18.32-26.46-22.7-13.53-5.66-27.62-8.49-42.32-8.49-10 0-19.7 1.9-29.1 5.72-.91.46-1.8.97-2.69 1.44-2.02-4.04-4.1-8-6.21-11.89-2.11-3.89-3.95-7.14-5.52-9.79l-1.48-2.72c-2.69-4.62-5.41-9.22-8.1-13.84l-3.31-5.37c-.67-1.26-1.62-2.7-2.8-4.36-.15-.2-.31-.37-.45-.53-.62-1.08-1.57-2.06-2.86-2.94-1.42-1.22-4.95-2.65-8.98.13-4.04 2.79-18.97 22.31-17.01 35.52.02.18.73 4.69 7.08 6.03.62.13 1.16.18 1.66.18 1.58 0 2.64-.55 3.3-1.08 1.84-1.5 1.89-3.85 1.89-3.98 0-.07.6-6.45 6.61-16.11.13.27.25.53.4.82l4.62 8.69 1.07 1.97 3.42 6.3 9.96 18.32c.87 1.63 1.69 3.23 2.55 4.86-.2.18-.4.35-.6.53-.22.22-.42.46-.64.68-.16.15-.33.29-.51.46-.15.13-.29.29-.42.44-7.3 7.65-10.71 13.77-14.39 19.25l-1.73 3.12c-1.82 3.03-6.05 11.5-10.12 20.85-3.8 8.73-8.67 19.21-12.91 28.1-1.4 2.87-3.7 7.94-6.9 15.17-.62-1.351-1.15-2.46-1.57-3.32-3.33-6.99-6.79-13.75-10.4-20.31-1.93-3.49-3.6-6.43-5.02-8.8l-1.35-2.45c-2.46-4.16-4.93-8.31-7.39-12.47l-2.75-4.42c3.26-.05 6.77 0 10.6.18 1 .15 6.37.79 9.56-2.08 1.07-.97 2.31-2.74 2.2-5.72.07-1.13-.15-5.44-7.25-7.23-6.17-1.55-40.52-2.03-53.37 6.96-1.71 1.17-4.1 4.71-.93 9.7 1.66 2.63 4.01 3.43 6.06 3.43 1.51 0 2.88-.42 3.75-.88.07-.04 4.61-1.95 13.82-3.25.16.38.33.78.56 1.21 1.27 2.76 1.95 4.2 2 4.36.05.15.89 1.88 2.53 5.17l4.22 7.82.98 1.77 3.13 5.66 4.35 7.91c-1.97.68-3.88 1.849-5.59 3.01-7.1 4.82-14.22 9.619-21.32 14.44-3.79 2.17-8.8 5.409-15.04 9.73-3.92 2.94-6.19 4.58-6.85 4.91l-1.15.91a62.98 62.98 0 00-5.72 4.62c-.95.679-2.19 1.84-3.7 3.49-2.51 2.87-3.62 5.37-3.33 7.45.13.91.36 1.84.67 2.79.47 1.39.78 2.23.95 2.52.16.289.76.84 1.78 1.61l.24.18c1.57.95 3.28 1.52 5.12 1.72 3 .33 7.5.22 13.48-.33 3.46-.29 5.79-.44 7.05-.44 5.24-.26 8.67-.38 10.25-.38 4.92.22 9.01.51 12.27.88 4.48.49 9.58 1.35 15.28 2.61.66.18 1.33.35 2.02.47l9.36 2.23c2.46.64 4.52.68 6.17.13.8-.27 1.47-.68 2.06-1.24.71-.62 1.22-1.32 1.55-2.06.46-.73 1.02-1.72 1.73-3.01l1.75-3.4c3.66-7.72 6.12-12.73 7.39-15.03l5.35-10.54c1.24-2.5 2.51-4.99 3.86-7.43l.07.02c.97 13.71 3.75 26.86 8.41 39.41 3.53 9.35 7.81 17.49 12.87 24.43 11.05 16.05 24.4 26.51 40.04 31.35 6.7 1.97 13.46 2.94 20.29 2.94 8.94 0 17.61-1.99 26.02-5.97 8.4-3.98 17.08-10.83 26.02-20.53.24-.46.53-.86.87-1.21 10.34-12.58 18.05-26.86 23.11-42.8 3.99-12.12 6.17-24.381 6.52-36.72 0-9.241-.66-17.57-1.95-24.95zm-191.49 54.93c-.66 2.34-1.71 5.06-4.08 5.57-.09.02-.2 0-.29.02-2.62-.66-5.32-1.26-8.1-1.83l-2.55-.46c-6.34-1.22-12.56-1.99-18.72-2.34-3.84-.16-6.32-.22-7.41-.15-4.04-.04-8.07.15-12.05.57l-1.49.06c.4-.2 1.17-.75 2.28-1.66 1.98-1.46 4.04-2.9 6.15-4.33 6.3-4.46 13.24-8.67 20.83-12.64l1.15-.57c2.48-1.26 4.24-2.06 5.3-2.43l2.08-.88c.97-.36 1.95-.75 2.97-1.19 1.24-.53 2.53-.91 3.77-1.41.57.07 1.13.26 1.68.62 1.46.97 2.33 2.59 3.13 4.15 1.48 2.85 2.95 5.7 4.44 8.53.75 1.42 1.49 2.88 1.73 4.47.25 2.009-.29 4-.82 5.9zm157.99-21.49c-.82 5.9-2.4 12.42-4.77 19.58l-.87 2.59c-1.4 4.27-3.83 9.59-7.23 15.94-3.17 5.66-6.59 10.46-10.23 14.39-7.88 8.78-16.11 13.17-24.69 13.17-12.35 0-23.75-8.6-34.22-25.82a88.465 88.465 0 01-8.47-20.27c-2.48-10.04-3.7-19.87-3.7-29.45 0-6.46.42-12.36 1.24-17.68.82-4.16 1.77-8.31 2.82-12.47 1.88-6.7 4.22-12.47 7.05-17.33.16-.24.31-.46.47-.68l2.09 4.24c1.82 3.56 3.61 7.18 5.35 10.85l8.96 18.85 3.08 6.48.97 2.03 4.3 8.86c1.89 3.6 2.9 5.48 3.01 5.62.11.149.98 1.68 2.62 4.62 1.11 2.32 2.48 3.65 4.15 3.98 1.66.33 3.26.13 4.77-.62 1.99-.97 3.46-2.45 4.44-4.46.87-1.86.98-3.76.33-5.71-.64-1.95-1.28-3.56-1.89-4.86l-2.4-5.84c-2.15-4.911-4.3-9.82-6.45-14.72l-1.33-2.81c-1.22-2.83-2.77-6.23-4.68-10.23a441.27 441.27 0 00-11-21.49c.06.04.11.07.15.09-.84-1.92-2.4-5-4.21-8.44 5.43-4.15 11.11-6.23 17.08-6.23 9.41 0 18.34 2.37 26.81 7.1 8.47 5.42 15.22 13.62 20.29 24.6l.71 1.55c2.35 5.31 3.88 10.52 4.59 15.59 1.06 5.079 1.59 10.46 1.59 16.11-.02 4.43-.26 8.7-.73 12.87z" stroke="#FFF2EA" stroke-width="14" mask="url(#prefix__a)"/><path d="M158.139 357c-9.41 0-18.17-2.94-26.28-8.84-6.12-4.71-10.87-10.74-14.29-18.04-7.29-13.79-10.93-28.94-10.93-45.45 0-9.66 1.35-19.28 4.06-28.83.24-.48.42-1.01.53-1.59.95-3.42 2.11-6.77 3.53-10.08 9.29-17.69 22.11-26.53 38.44-26.53 6.7 0 13.29 1.59 19.76 4.78 6.46 3.18 12.11 7.83 16.94 13.97 8.7 11.08 14.22 23.88 16.57 38.38.58 3.78.87 8.14.87 13.09 0 2.83-.18 5.71-.53 8.67-.71 7.67-2.19 14.68-4.41 21.05-2.93 7.43-5.88 13.44-8.81 18.04a54.83 54.83 0 01-13.58 14.5c-7.05 4.58-14.35 6.88-21.87 6.88zm-.71-29.53c.58 0 1.88-.42 3.88-1.24 2-.82 4.83-4.55 8.47-11.14 1.17-1.88 2.17-3.89 3-6.01v-.35c2.11-5.53 3.46-10.43 4.06-14.68l.18-.53c.35-2.01.53-3.94.53-5.84 0-3.65-.24-6.83-.71-9.55-.71-4.84-2.26-9.7-4.68-14.59-2.4-4.89-4.92-8.69-7.5-11.41-5.17-4.47-9.23-6.72-12.16-6.72-3.17 0-6.03 2.88-8.56 8.67-2.53 5.77-4.26 11.96-5.21 18.57-.71 4.13-1.06 8.31-1.06 12.56 0 11.56 2.88 22.64 8.65 33.25 4.35 6 8.05 9.01 11.11 9.01z" fill="#F98E12"/><path d="M412.689 224.81c-1.53-8.78-3.7-16.53-6.52-23.21-3.53-7.96-7.58-14.85-12.16-20.62-8.36-10.74-17.17-18.32-26.46-22.7-13.53-5.66-27.62-8.49-42.32-8.49-10 0-19.7 1.9-29.1 5.72-.91.46-1.8.97-2.69 1.44-2.02-4.04-4.1-8-6.21-11.89-2.11-3.89-3.95-7.14-5.52-9.79l-1.48-2.72c-2.69-4.62-5.41-9.22-8.1-13.84l-3.31-5.37c-.67-1.26-1.62-2.7-2.8-4.36-.15-.2-.31-.37-.45-.53-.62-1.08-1.57-2.06-2.86-2.94-1.42-1.22-4.95-2.65-8.98.13-4.04 2.79-18.97 22.31-17.01 35.52.02.18.73 4.69 7.08 6.03.62.13 1.16.18 1.66.18 1.58 0 2.64-.55 3.3-1.08 1.84-1.5 1.89-3.85 1.89-3.98 0-.07.6-6.45 6.61-16.11.13.27.25.53.4.82l4.62 8.69 1.07 1.97 3.42 6.3 9.96 18.32c.87 1.63 1.69 3.23 2.55 4.86-.2.18-.4.35-.6.53-.22.22-.42.46-.64.68-.16.15-.33.29-.51.46-.15.13-.29.29-.42.44-7.3 7.65-10.71 13.77-14.39 19.25l-1.73 3.12c-1.82 3.03-6.05 11.5-10.12 20.85-3.8 8.73-8.67 19.21-12.91 28.1-1.4 2.87-3.7 7.94-6.9 15.17-.62-1.35-1.15-2.46-1.57-3.32-3.33-6.99-6.79-13.75-10.4-20.31-1.93-3.49-3.6-6.43-5.02-8.8l-1.35-2.45c-2.46-4.16-4.93-8.31-7.39-12.47l-2.75-4.42c3.26-.05 6.77 0 10.6.18 1 .15 6.37.79 9.56-2.08 1.07-.97 2.31-2.74 2.2-5.72.07-1.13-.15-5.44-7.25-7.23-6.17-1.55-40.52-2.03-53.37 6.96-1.71 1.17-4.1 4.71-.93 9.7 1.66 2.63 4.01 3.43 6.06 3.43 1.51 0 2.88-.42 3.75-.88.07-.04 4.61-1.95 13.82-3.25.16.38.33.78.56 1.21 1.27 2.76 1.95 4.2 2 4.36.05.15.89 1.88 2.53 5.17l4.22 7.82.98 1.77 3.13 5.66 4.35 7.91c-1.97.68-3.88 1.85-5.59 3.01-7.1 4.82-14.22 9.62-21.32 14.44-3.79 2.17-8.8 5.41-15.04 9.73-3.92 2.94-6.19 4.58-6.85 4.91l-1.15.91a62.98 62.98 0 00-5.72 4.62c-.95.68-2.19 1.84-3.7 3.49-2.51 2.87-3.62 5.37-3.33 7.45.13.91.36 1.84.67 2.79.47 1.39.78 2.23.95 2.52.16.29.76.84 1.78 1.61l.24.18c1.57.95 3.28 1.52 5.12 1.72 3 .33 7.5.22 13.48-.33 3.46-.29 5.79-.44 7.05-.44 5.24-.26 8.67-.38 10.25-.38 4.92.22 9.01.51 12.27.88 4.48.49 9.58 1.35 15.28 2.61.66.18 1.33.35 2.02.47l9.36 2.23c2.46.64 4.52.68 6.17.13.8-.27 1.47-.68 2.06-1.24.71-.62 1.22-1.32 1.55-2.06.46-.73 1.02-1.72 1.73-3.01l1.75-3.4c3.66-7.72 6.12-12.73 7.39-15.03l5.35-10.54c1.24-2.5 2.51-4.99 3.86-7.43l.07.02c.97 13.71 3.75 26.86 8.41 39.41 3.53 9.35 7.81 17.49 12.87 24.43 11.05 16.05 24.4 26.51 40.04 31.35 6.7 1.97 13.46 2.94 20.29 2.94 8.94 0 17.61-1.99 26.02-5.97 8.4-3.98 17.08-10.83 26.02-20.53.24-.46.53-.86.87-1.21 10.34-12.58 18.05-26.86 23.11-42.8 3.99-12.12 6.17-24.38 6.52-36.72 0-9.24-.66-17.57-1.95-24.95zm-191.49 54.93c-.66 2.34-1.71 5.06-4.08 5.57-.09.02-.2 0-.29.02-2.62-.66-5.32-1.26-8.1-1.83l-2.55-.46c-6.34-1.22-12.56-1.99-18.72-2.34-3.84-.16-6.32-.22-7.41-.15-4.04-.04-8.07.15-12.05.57l-1.49.06c.4-.2 1.17-.75 2.28-1.66 1.98-1.46 4.04-2.9 6.15-4.33 6.3-4.46 13.24-8.67 20.83-12.64l1.15-.57c2.48-1.26 4.24-2.06 5.3-2.43l2.08-.88c.97-.36 1.95-.75 2.97-1.19 1.24-.53 2.53-.91 3.77-1.41.57.07 1.13.26 1.68.62 1.46.97 2.33 2.59 3.13 4.15 1.48 2.85 2.95 5.7 4.44 8.53.75 1.42 1.49 2.88 1.73 4.47.25 2.01-.29 4-.82 5.9zm157.99-21.49c-.82 5.9-2.4 12.42-4.77 19.58l-.87 2.59c-1.4 4.27-3.83 9.59-7.23 15.94-3.17 5.66-6.59 10.46-10.23 14.39-7.88 8.78-16.11 13.17-24.69 13.17-12.35 0-23.75-8.6-34.22-25.82a88.465 88.465 0 01-8.47-20.27c-2.48-10.04-3.7-19.87-3.7-29.45 0-6.46.42-12.36 1.24-17.68.82-4.16 1.77-8.31 2.82-12.47 1.88-6.7 4.22-12.47 7.05-17.33.16-.24.31-.46.47-.68l2.09 4.24c1.82 3.56 3.61 7.18 5.35 10.85l8.96 18.85 3.08 6.48.97 2.03 4.3 8.86c1.89 3.6 2.9 5.48 3.01 5.62.11.15.98 1.68 2.62 4.62 1.11 2.32 2.48 3.65 4.15 3.98 1.66.33 3.26.13 4.77-.62 1.99-.97 3.46-2.45 4.44-4.46.87-1.86.98-3.76.33-5.71-.64-1.95-1.28-3.56-1.89-4.86l-2.4-5.84c-2.15-4.91-4.3-9.82-6.45-14.72l-1.33-2.81c-1.22-2.83-2.77-6.23-4.68-10.23a441.27 441.27 0 00-11-21.49c.06.04.11.07.15.09-.84-1.92-2.4-5-4.21-8.44 5.43-4.15 11.11-6.23 17.08-6.23 9.41 0 18.34 2.37 26.81 7.1 8.47 5.42 15.22 13.62 20.29 24.6l.71 1.55c2.35 5.31 3.88 10.52 4.59 15.59 1.06 5.08 1.59 10.46 1.59 16.11-.02 4.43-.26 8.7-.73 12.87z" fill="#64676A"/><defs><clipPath id="prefix__clip0"><path fill="#fff" transform="translate(118.15 34)" d="M0 0h100.7v229H0z"/></clipPath></defs></svg>