<svg width="411" height="137" viewBox="0 0 411 137" fill="none" xmlns="http://www.w3.org/2000/svg">
<rect x="1.25757" y="0.946045" width="409.544" height="135.656" rx="67.8279" fill="#F98E12"/>
<path d="M55.5716 58.793C52.8971 58.793 50.5951 57.4473 48.6654 54.7559C47.8698 53.6387 47.1843 52.3438 46.6087 50.8711C46.5749 50.7188 46.5326 50.5749 46.4818 50.4395C46.0247 49.1191 45.7201 47.765 45.5677 46.377L45.5169 45.5898C45.4662 45.0651 45.4408 44.5488 45.4408 44.041L45.4662 43.5332C45.5339 41.1634 45.8893 39.0983 46.5326 37.3379C46.9388 36.0007 47.5397 34.765 48.3353 33.6309C48.9616 32.6829 49.791 31.7858 50.8236 30.9395C51.6361 30.2793 52.5501 29.7376 53.5658 29.3145C54.2767 29.0267 55.1823 28.8405 56.2826 28.7559C57.8229 28.7559 59.0417 29.1113 59.9388 29.8223C60.4297 30.1777 60.9037 30.6855 61.3607 31.3457C61.7669 32.0059 62.0632 32.556 62.2494 32.9961C62.4694 33.5039 62.5794 33.9863 62.5794 34.4434C62.5794 34.6634 62.554 34.8581 62.5033 35.0273V35.0527C62.3001 35.5944 61.8685 35.8652 61.2083 35.8652C60.7005 35.8652 60.1927 35.7298 59.6849 35.459C59.194 35.1882 58.8216 34.7988 58.5677 34.291C57.9076 33.1908 57.2813 32.6406 56.6888 32.6406C56.6211 32.6406 56.4772 32.6576 56.2572 32.6914C56.054 32.7083 55.6563 32.9115 55.0638 33.3008C54.7422 33.487 54.4375 33.6901 54.1497 33.9102C53.3203 34.6042 52.5501 35.6621 51.8392 37.084C51.6361 37.5918 51.4499 38.0996 51.2806 38.6074C50.7728 40.2663 50.5189 42.0775 50.5189 44.041C50.5189 45.1074 50.6966 46.3346 51.0521 47.7227C51.306 48.7721 51.7461 49.8385 52.3724 50.9219C53.6419 53.0547 54.8861 54.1211 56.1048 54.1211C56.7481 54.1211 57.2982 53.9434 57.7552 53.5879C58.2969 53.1816 58.6608 52.8854 58.847 52.6992L58.9994 52.5723C59.3548 52.2507 59.7611 51.7682 60.2181 51.125C60.4551 50.8203 60.582 50.651 60.599 50.6172C60.6328 50.5664 60.6751 50.5241 60.7259 50.4902C61.0645 50.1686 61.403 50.0078 61.7415 50.0078C61.8262 50.0078 61.987 50.0417 62.224 50.1094C62.4779 50.1602 62.681 50.4648 62.8333 51.0234L62.8587 51.2266L62.8333 51.3027C62.8333 51.6921 62.791 52.0814 62.7064 52.4707L62.6048 52.8516C62.3678 53.918 61.9531 54.8828 61.3607 55.7461C60.6667 56.7279 59.7865 57.4896 58.7201 58.0312C57.7721 58.5391 56.7227 58.793 55.5716 58.793ZM66.0326 57.4727C65.7956 57.4727 65.4655 57.3796 65.0423 57.1934C64.4499 56.9395 64.0606 55.7546 63.8744 53.6387C63.7051 52.0983 63.6205 51.1419 63.6205 50.7695C63.5358 49.7539 63.4766 48.7383 63.4427 47.7227C63.3919 46.9609 63.3665 45.9707 63.3665 44.752C63.3665 43.7363 63.4173 42.1875 63.5189 40.1055C63.5866 38.7344 63.6797 37.3971 63.7982 36.0938L63.9251 34.8242C64.1452 32.556 64.4076 30.8125 64.7122 29.5938C64.9492 28.4935 65.1862 27.6641 65.4232 27.1055C65.9479 26.056 66.6504 25.5312 67.5306 25.5312C68.14 25.5312 68.6393 25.929 69.0287 26.7246C69.0794 27.0124 69.1133 27.3086 69.1302 27.6133C69.1302 28.2396 69.071 29.0859 68.9525 30.1523L68.4701 34.6465C68.3516 35.9837 68.2839 36.847 68.2669 37.2363L68.1654 38.6074C68.2162 38.5566 68.2754 38.4805 68.3431 38.3789C68.9525 37.668 69.7142 37.0163 70.6283 36.4238C70.933 36.2715 71.2546 36.1276 71.5931 35.9922C71.9317 35.8398 72.3548 35.7637 72.8626 35.7637L73.3197 35.7891C74.2507 35.7891 75.0547 36.153 75.7318 36.8809C76.2904 37.4733 76.722 38.1589 77.0267 38.9375C77.653 40.3086 77.9746 42.0521 77.9915 44.168C77.9915 45.4206 77.9154 46.9355 77.763 48.7129C77.6276 50.321 77.4668 51.5228 77.2806 52.3184C76.9759 53.1139 76.4935 53.6471 75.8333 53.918C75.5287 54.0534 75.224 54.1211 74.9193 54.1211C74.5807 54.1211 74.1745 53.9941 73.7005 53.7402C73.0573 53.4186 72.7357 52.5469 72.7357 51.125C72.7357 50.3633 72.7949 49.4323 72.9134 48.332C72.9981 47.7396 73.0658 47.1471 73.1165 46.5547L73.2943 44.8535L73.3197 44.4473C73.3535 44.0749 73.3705 43.7025 73.3705 43.3301C73.4043 43.0931 73.4212 42.653 73.4212 42.0098C73.4212 41.6374 73.4128 41.2734 73.3958 40.918C73.362 40.4102 73.2435 39.9108 73.0404 39.4199C72.888 39.166 72.7188 39.0391 72.5326 39.0391C72.2109 39.0391 71.8132 39.276 71.3392 39.75C70.7975 40.224 70.1797 40.9518 69.4857 41.9336L68.724 43.127L68.2669 43.9141L67.9876 44.3203V48.459C67.9876 50.0332 68.0046 51.1589 68.0384 51.8359C68.0384 52.6654 68.0469 53.2747 68.0638 53.6641L68.0892 54.502C68.0892 55.8223 67.7422 56.7025 67.0482 57.1426C66.7096 57.3626 66.3711 57.4727 66.0326 57.4727ZM85.9134 55.4668C84.5593 55.4668 83.2982 55.0436 82.1302 54.1973C81.25 53.5202 80.5645 52.6569 80.0736 51.6074C79.0241 49.627 78.4994 47.4518 78.4994 45.082C78.4994 43.694 78.694 42.3145 79.0833 40.9434C79.1172 40.8757 79.1426 40.7995 79.1595 40.7148C79.2949 40.224 79.4642 39.7415 79.6673 39.2676C81.0046 36.7285 82.8496 35.459 85.2025 35.459C86.1673 35.459 87.1152 35.6875 88.0462 36.1445C88.9772 36.6016 89.7897 37.2702 90.4837 38.1504C91.7363 39.7415 92.5319 41.5781 92.8705 43.6602C92.9551 44.2018 92.9974 44.8281 92.9974 45.5391C92.9974 45.9453 92.972 46.36 92.9212 46.7832C92.8197 47.8835 92.6081 48.8906 92.2865 49.8047C91.8633 50.8711 91.4401 51.7344 91.0169 52.3945C90.4922 53.207 89.8405 53.901 89.0619 54.4766C88.0462 55.1367 86.9968 55.4668 85.9134 55.4668ZM85.8119 51.2266C85.8965 51.2266 86.0827 51.1673 86.3705 51.0488C86.6582 50.9303 87.0645 50.3971 87.5892 49.4492C87.7585 49.1784 87.9024 48.8906 88.0208 48.5859V48.5352C88.3255 47.7396 88.5202 47.0371 88.6048 46.4277L88.6302 46.3516C88.681 46.0638 88.7064 45.7845 88.7064 45.5137C88.7064 44.9889 88.6725 44.5319 88.6048 44.1426C88.5033 43.4486 88.2747 42.7546 87.9193 42.0605C87.5807 41.3496 87.2253 40.7995 86.8529 40.4102C86.1081 39.7669 85.5241 39.4453 85.1009 39.4453C84.6439 39.4453 84.2292 39.86 83.8568 40.6895C83.5013 41.5189 83.2559 42.4076 83.1205 43.3555C83.0189 43.9479 82.9681 44.5488 82.9681 45.1582C82.9681 46.8171 83.3828 48.4082 84.2122 49.9316C84.8386 50.7949 85.3718 51.2266 85.8119 51.2266ZM95.3333 34.1133C95.2995 34.1133 95.0456 34.1048 94.5716 34.0879C94.0977 34.071 93.7507 33.5801 93.5306 32.6152V31.1172C93.5306 30.8125 93.5391 30.5924 93.556 30.457V30.2793C93.7253 28.8236 94.377 28.0957 95.5111 28.0957C95.9512 28.0957 96.3405 28.2311 96.679 28.502C97.1361 28.8913 97.3646 29.526 97.3646 30.4062C97.4154 30.7617 97.4408 31.0918 97.4408 31.3965C97.4915 31.7689 97.5169 32.1751 97.5169 32.6152C97.5169 32.8014 97.4915 32.9876 97.4408 33.1738C96.8822 33.8001 96.1797 34.1133 95.3333 34.1133ZM97.0853 57.0156C96.2728 57.0156 95.6042 56.474 95.0794 55.3906C94.6563 53.9857 94.3431 51.7598 94.14 48.7129L94.0638 47.9004C93.9961 46.7832 93.9538 46.2077 93.9369 46.1738C93.8184 44.1764 93.7676 42.7546 93.7845 41.9082C93.7845 40.8249 93.8014 39.987 93.8353 39.3945C93.9369 38.4466 94.2162 37.7611 94.6732 37.3379C95.0794 36.9824 95.528 36.8047 96.0189 36.8047C96.6452 36.8047 97.1615 37.0586 97.5677 37.5664C97.8893 37.9557 98.0501 38.4635 98.0501 39.0898L98.0247 39.4453L98.0501 40.791L98.1263 42.3652C98.1432 42.7207 98.1686 43.0677 98.2025 43.4062L98.304 45.082C98.3718 45.7253 98.4225 46.3685 98.4564 47.0117L98.9134 51.709C99.0827 53.097 99.1673 54.1634 99.1673 54.9082C98.8965 56.3132 98.2025 57.0156 97.0853 57.0156ZM107.597 57.5234C105.667 57.5234 103.966 57.0072 102.493 55.9746C101.715 55.4329 101.089 54.832 100.615 54.1719C100.09 53.3763 99.8106 52.5892 99.7767 51.8105C99.9968 50.7949 100.445 50.2871 101.122 50.2871C101.156 50.2871 101.359 50.304 101.732 50.3379C102.121 50.3548 102.697 50.6764 103.458 51.3027C103.78 51.7428 104.118 52.1152 104.474 52.4199L104.626 52.5469C104.846 52.7331 105.075 52.8854 105.312 53.0039C106.074 53.444 106.818 53.6641 107.546 53.6641C108.24 53.6641 108.858 53.4186 109.4 52.9277L109.527 52.4453C109.544 52.3607 109.552 52.2676 109.552 52.166C109.552 51.8444 109.383 51.4466 109.044 50.9727C108.79 50.6172 108.359 50.2025 107.749 49.7285L107.495 49.5L106.785 48.9668L105.82 48.2812L105.439 48.0527C105.202 47.9004 104.948 47.748 104.677 47.5957C104.474 47.4941 104.076 47.2402 103.484 46.834L103.357 46.7324C102.984 46.4785 102.62 46.1992 102.265 45.8945C101.469 45.2005 100.835 44.3965 100.361 43.4824C99.9037 42.5684 99.6751 41.5781 99.6751 40.5117C99.6751 39.4115 99.9714 38.3281 100.564 37.2617C101.139 36.263 101.867 35.4844 102.747 34.9258C103.645 34.3503 104.702 34.0625 105.921 34.0625C107.123 34.0625 108.189 34.3926 109.12 35.0527C109.747 35.5605 110.212 36.1699 110.517 36.8809C110.771 37.4225 110.898 37.9642 110.898 38.5059C110.898 39.2507 110.652 39.9193 110.161 40.5117C109.637 40.9688 109.188 41.1973 108.816 41.1973C108.799 41.1973 108.689 41.1888 108.486 41.1719C108.283 41.1549 107.919 40.8249 107.394 40.1816C107.326 40.097 107.292 40.0039 107.292 39.9023V39.5469V39.1914C107.292 39.0391 107.284 38.9544 107.267 38.9375C107.216 38.8359 107.182 38.7767 107.165 38.7598C107.148 38.7259 107.132 38.7005 107.115 38.6836C107.098 38.6667 107.081 38.6497 107.064 38.6328C106.725 38.2773 106.412 38.0996 106.124 38.0996C105.532 38.0996 105.066 38.4297 104.728 39.0898C104.525 39.5299 104.423 39.9362 104.423 40.3086C104.423 40.5286 104.474 40.7572 104.576 40.9941C104.745 41.485 105.21 42.0182 105.972 42.5938C106.091 42.7122 106.429 42.9408 106.988 43.2793C107.123 43.347 107.25 43.4232 107.368 43.5078L108.562 44.2188C109.594 44.8958 110.255 45.3529 110.542 45.5898C111.406 46.2669 112.108 46.9355 112.65 47.5957C113.716 48.9499 114.249 50.4056 114.249 51.9629C114.249 52.3861 114.199 52.8092 114.097 53.2324C113.64 55.1283 112.413 56.4232 110.415 57.1172C109.518 57.388 108.579 57.5234 107.597 57.5234ZM116.56 34.1133C116.526 34.1133 116.272 34.1048 115.798 34.0879C115.324 34.071 114.977 33.5801 114.757 32.6152V31.1172C114.757 30.8125 114.766 30.5924 114.783 30.457V30.2793C114.952 28.8236 115.604 28.0957 116.738 28.0957C117.178 28.0957 117.567 28.2311 117.906 28.502C118.363 28.8913 118.591 29.526 118.591 30.4062C118.642 30.7617 118.667 31.0918 118.667 31.3965C118.718 31.7689 118.743 32.1751 118.743 32.6152C118.743 32.8014 118.718 32.9876 118.667 33.1738C118.109 33.8001 117.406 34.1133 116.56 34.1133ZM118.312 57.0156C117.499 57.0156 116.831 56.474 116.306 55.3906C115.883 53.9857 115.57 51.7598 115.367 48.7129L115.29 47.9004C115.223 46.7832 115.18 46.2077 115.163 46.1738C115.045 44.1764 114.994 42.7546 115.011 41.9082C115.011 40.8249 115.028 39.987 115.062 39.3945C115.163 38.4466 115.443 37.7611 115.9 37.3379C116.306 36.9824 116.755 36.8047 117.245 36.8047C117.872 36.8047 118.388 37.0586 118.794 37.5664C119.116 37.9557 119.277 38.4635 119.277 39.0898L119.251 39.4453L119.277 40.791L119.353 42.3652C119.37 42.7207 119.395 43.0677 119.429 43.4062L119.531 45.082C119.598 45.7253 119.649 46.3685 119.683 47.0117L120.14 51.709C120.309 53.097 120.394 54.1634 120.394 54.9082C120.123 56.3132 119.429 57.0156 118.312 57.0156ZM128.824 57.5234C126.894 57.5234 125.193 57.0072 123.72 55.9746C122.941 55.4329 122.315 54.832 121.841 54.1719C121.316 53.3763 121.037 52.5892 121.003 51.8105C121.223 50.7949 121.672 50.2871 122.349 50.2871C122.383 50.2871 122.586 50.304 122.958 50.3379C123.348 50.3548 123.923 50.6764 124.685 51.3027C125.007 51.7428 125.345 52.1152 125.701 52.4199L125.853 52.5469C126.073 52.7331 126.301 52.8854 126.538 53.0039C127.3 53.444 128.045 53.6641 128.773 53.6641C129.467 53.6641 130.085 53.4186 130.626 52.9277L130.753 52.4453C130.77 52.3607 130.779 52.2676 130.779 52.166C130.779 51.8444 130.609 51.4466 130.271 50.9727C130.017 50.6172 129.585 50.2025 128.976 49.7285L128.722 49.5L128.011 48.9668L127.046 48.2812L126.665 48.0527C126.428 47.9004 126.174 47.748 125.904 47.5957C125.701 47.4941 125.303 47.2402 124.71 46.834L124.583 46.7324C124.211 46.4785 123.847 46.1992 123.492 45.8945C122.696 45.2005 122.061 44.3965 121.587 43.4824C121.13 42.5684 120.902 41.5781 120.902 40.5117C120.902 39.4115 121.198 38.3281 121.79 37.2617C122.366 36.263 123.094 35.4844 123.974 34.9258C124.871 34.3503 125.929 34.0625 127.148 34.0625C128.35 34.0625 129.416 34.3926 130.347 35.0527C130.973 35.5605 131.439 36.1699 131.743 36.8809C131.997 37.4225 132.124 37.9642 132.124 38.5059C132.124 39.2507 131.879 39.9193 131.388 40.5117C130.863 40.9688 130.415 41.1973 130.042 41.1973C130.025 41.1973 129.915 41.1888 129.712 41.1719C129.509 41.1549 129.145 40.8249 128.62 40.1816C128.553 40.097 128.519 40.0039 128.519 39.9023V39.5469V39.1914C128.519 39.0391 128.51 38.9544 128.493 38.9375C128.443 38.8359 128.409 38.7767 128.392 38.7598C128.375 38.7259 128.358 38.7005 128.341 38.6836C128.324 38.6667 128.307 38.6497 128.29 38.6328C127.952 38.2773 127.639 38.0996 127.351 38.0996C126.758 38.0996 126.293 38.4297 125.954 39.0898C125.751 39.5299 125.65 39.9362 125.65 40.3086C125.65 40.5286 125.701 40.7572 125.802 40.9941C125.971 41.485 126.437 42.0182 127.199 42.5938C127.317 42.7122 127.656 42.9408 128.214 43.2793C128.35 43.347 128.477 43.4232 128.595 43.5078L129.788 44.2188C130.821 44.8958 131.481 45.3529 131.769 45.5898C132.632 46.2669 133.335 46.9355 133.876 47.5957C134.943 48.9499 135.476 50.4056 135.476 51.9629C135.476 52.3861 135.425 52.8092 135.324 53.2324C134.867 55.1283 133.639 56.4232 131.642 57.1172C130.745 57.388 129.805 57.5234 128.824 57.5234ZM143.906 57.5234C141.976 57.5234 140.275 57.0072 138.802 55.9746C138.023 55.4329 137.397 54.832 136.923 54.1719C136.398 53.3763 136.119 52.5892 136.085 51.8105C136.305 50.7949 136.754 50.2871 137.431 50.2871C137.465 50.2871 137.668 50.304 138.04 50.3379C138.43 50.3548 139.005 50.6764 139.767 51.3027C140.089 51.7428 140.427 52.1152 140.783 52.4199L140.935 52.5469C141.155 52.7331 141.383 52.8854 141.62 53.0039C142.382 53.444 143.127 53.6641 143.855 53.6641C144.549 53.6641 145.167 53.4186 145.708 52.9277L145.835 52.4453C145.852 52.3607 145.861 52.2676 145.861 52.166C145.861 51.8444 145.691 51.4466 145.353 50.9727C145.099 50.6172 144.667 50.2025 144.058 49.7285L143.804 49.5L143.093 48.9668L142.128 48.2812L141.747 48.0527C141.51 47.9004 141.257 47.748 140.986 47.5957C140.783 47.4941 140.385 47.2402 139.792 46.834L139.665 46.7324C139.293 46.4785 138.929 46.1992 138.574 45.8945C137.778 45.2005 137.143 44.3965 136.669 43.4824C136.212 42.5684 135.984 41.5781 135.984 40.5117C135.984 39.4115 136.28 38.3281 136.872 37.2617C137.448 36.263 138.176 35.4844 139.056 34.9258C139.953 34.3503 141.011 34.0625 142.23 34.0625C143.432 34.0625 144.498 34.3926 145.429 35.0527C146.055 35.5605 146.521 36.1699 146.826 36.8809C147.079 37.4225 147.206 37.9642 147.206 38.5059C147.206 39.2507 146.961 39.9193 146.47 40.5117C145.945 40.9688 145.497 41.1973 145.124 41.1973C145.107 41.1973 144.997 41.1888 144.794 41.1719C144.591 41.1549 144.227 40.8249 143.702 40.1816C143.635 40.097 143.601 40.0039 143.601 39.9023V39.5469V39.1914C143.601 39.0391 143.592 38.9544 143.576 38.9375C143.525 38.8359 143.491 38.7767 143.474 38.7598C143.457 38.7259 143.44 38.7005 143.423 38.6836C143.406 38.6667 143.389 38.6497 143.372 38.6328C143.034 38.2773 142.721 38.0996 142.433 38.0996C141.841 38.0996 141.375 38.4297 141.036 39.0898C140.833 39.5299 140.732 39.9362 140.732 40.3086C140.732 40.5286 140.783 40.7572 140.884 40.9941C141.053 41.485 141.519 42.0182 142.281 42.5938C142.399 42.7122 142.738 42.9408 143.296 43.2793C143.432 43.347 143.559 43.4232 143.677 43.5078L144.87 44.2188C145.903 44.8958 146.563 45.3529 146.851 45.5898C147.714 46.2669 148.417 46.9355 148.958 47.5957C150.025 48.9499 150.558 50.4056 150.558 51.9629C150.558 52.3861 150.507 52.8092 150.406 53.2324C149.949 55.1283 148.721 56.4232 146.724 57.1172C145.827 57.388 144.887 57.5234 143.906 57.5234ZM158.378 55.3652C157.396 55.3652 156.415 55.1536 155.433 54.7305C154.367 54.2565 153.478 53.5371 152.767 52.5723C151.633 50.9303 151.066 48.8314 151.066 46.2754C151.066 44.735 151.252 43.2285 151.624 41.7559C151.997 40.3848 152.471 39.1914 153.046 38.1758C153.639 37.1602 154.367 36.2292 155.23 35.3828C156.11 34.5195 157.033 33.834 157.997 33.3262C158.979 32.8184 159.944 32.5052 160.892 32.3867H162.314C162.771 32.4036 163.228 32.4798 163.685 32.6152C165.547 33.3092 166.74 34.5957 167.265 36.4746C167.434 37.0501 167.519 37.6849 167.519 38.3789C167.519 39.5469 167.265 40.6725 166.757 41.7559C166.402 42.5853 165.852 43.4486 165.107 44.3457C164.954 44.5827 164.599 44.9635 164.04 45.4883C162.195 47.0964 160.367 48.2135 158.556 48.8398C157.642 49.1445 156.804 49.3138 156.042 49.3477C156.059 49.3646 156.076 49.3984 156.093 49.4492C156.11 49.5 156.127 49.5592 156.144 49.627C156.279 49.9147 156.457 50.1855 156.677 50.4395C157.253 51.0827 157.87 51.4043 158.531 51.4043C159.174 51.4043 159.8 51.2266 160.41 50.8711C160.765 50.6849 161.104 50.4902 161.425 50.2871C161.95 49.9486 162.255 49.737 162.339 49.6523C162.847 49.1953 163.372 48.8229 163.913 48.5352L164.091 48.4336C164.362 48.3828 164.624 48.3574 164.878 48.3574C165.234 48.3574 165.615 48.4336 166.021 48.5859C166.444 48.7214 166.698 49.1784 166.783 49.957C166.681 50.3802 166.503 50.778 166.249 51.1504C166.012 51.5228 165.725 51.8613 165.386 52.166C163.812 53.5879 162.018 54.5951 160.003 55.1875C159.462 55.306 158.92 55.3652 158.378 55.3652ZM155.509 46.377C155.543 46.377 155.568 46.3685 155.585 46.3516C155.755 46.3516 156.118 46.25 156.677 46.0469C158.048 45.4714 159.47 44.4896 160.943 43.1016C161.552 42.4753 162.035 41.8828 162.39 41.3242C162.932 40.3424 163.211 39.4284 163.228 38.582C163.228 38.0742 163.076 37.541 162.771 36.9824C162.618 36.7454 162.441 36.6016 162.238 36.5508H162.339H161.857H162.212C162.06 36.5 161.848 36.4746 161.577 36.4746C161.29 36.5085 161.146 36.5339 161.146 36.5508H161.857C161.247 36.5508 160.528 36.8132 159.699 37.3379C158.209 38.3535 157.117 39.6908 156.423 41.3496C155.814 42.7884 155.509 44.4642 155.509 46.377ZM171.048 54.6797C170.693 54.6797 170.346 54.6289 170.007 54.5273C169.025 54.0872 168.509 53.3255 168.458 52.2422C168.475 51.6159 168.721 50.9642 169.195 50.2871L169.322 50.084L169.753 49.4746L170.388 48.4844C170.845 47.8581 171.124 47.4434 171.226 47.2402L172.013 46.0215C172.741 44.8366 173.257 43.9902 173.562 43.4824C173.697 43.1777 173.85 42.89 174.019 42.6191L175.187 40.3848C175.356 39.9616 175.517 39.5977 175.669 39.293L175.872 38.709L174.374 38.6328C174.002 38.6328 173.63 38.6497 173.257 38.6836L172.952 38.709L172.216 38.7852H171.988C171.446 38.7852 170.76 38.6074 169.931 38.252C169.118 37.8965 168.535 37.4395 168.179 36.8809C168.077 36.7285 168.027 36.5846 168.027 36.4492C168.027 35.7721 169.11 35.1543 171.277 34.5957C172.326 34.3587 173.206 34.1979 173.917 34.1133C174.442 34.0625 175.077 34.0371 175.822 34.0371C176.685 34.0371 177.447 34.0964 178.107 34.2148C179.292 34.4518 180.189 35.0612 180.798 36.043C181.188 36.7031 181.382 37.4395 181.382 38.252C181.382 38.6413 181.348 39.0221 181.281 39.3945C181.128 40.3086 180.798 41.2142 180.29 42.1113C179.783 43.11 179.165 44.1764 178.437 45.3105C178.098 45.8522 177.76 46.3685 177.421 46.8594L176.406 48.3066L175.492 49.5508C175.61 49.5508 175.72 49.5423 175.822 49.5254C176.922 49.4408 177.701 49.3984 178.158 49.3984C181.018 49.3984 182.449 50.2363 182.449 51.9121C182.449 52.3014 182.279 52.75 181.941 53.2578C181.619 53.7656 180.917 54.0195 179.833 54.0195C179.309 54.0703 178.775 54.1042 178.234 54.1211L177.472 54.1465L174.603 54.3242C174.298 54.3581 174.036 54.375 173.816 54.375C173.613 54.375 173.401 54.3919 173.181 54.4258H172.952L172.546 54.4512L172.089 54.5273C171.734 54.6289 171.387 54.6797 171.048 54.6797ZM198.445 56.3047C198.14 56.3047 197.852 56.2793 197.581 56.2285C196.955 56.11 196.354 55.5514 195.779 54.5527C195.457 53.9603 195.245 53.4948 195.144 53.1562C194.856 52.4961 194.602 51.8021 194.382 51.0742L194.23 50.668C194.196 50.4479 193.951 49.6354 193.493 48.2305C192.766 45.6576 192.292 43.7025 192.072 42.3652C191.784 40.8079 191.623 39.2507 191.589 37.6934L191.615 36.6777C191.818 34.3926 192.376 33.25 193.29 33.25C193.984 33.25 194.687 34.0286 195.398 35.5859L195.449 36.3223C195.449 36.6608 195.508 37.2448 195.626 38.0742L195.677 38.4551C196.066 41.0111 196.591 43.4062 197.251 45.6406C197.454 46.3854 197.666 47.1133 197.886 47.8242C198.038 48.2305 198.123 48.5013 198.14 48.6367L198.267 48.2051C198.538 47.0202 198.876 45.8522 199.283 44.7012C199.367 44.3796 199.621 43.6771 200.044 42.5938C200.738 40.8672 201.568 39.1576 202.533 37.4648L202.913 36.7793C203.404 35.9329 203.904 35.1204 204.411 34.3418L204.437 34.291C205.08 33.2923 205.706 32.556 206.316 32.082C206.908 31.7435 207.458 31.5742 207.966 31.5742C208.796 31.5742 209.363 31.9382 209.667 32.666C209.769 32.8861 209.82 33.123 209.82 33.377C209.82 33.9017 209.608 34.4857 209.185 35.1289L207.636 37.5918C207.535 37.778 207.424 37.9557 207.306 38.125C206.392 39.6315 205.647 41.0026 205.072 42.2383C204.648 43.1354 204.166 44.278 203.624 45.666C203.472 46.123 203.176 47.1133 202.736 48.6367C202.617 48.9922 202.431 49.6777 202.177 50.6934C201.754 52.4538 201.348 53.7487 200.958 54.5781C200.721 55.0859 200.391 55.5176 199.968 55.873L199.892 55.9238C199.57 56.1439 199.359 56.2624 199.257 56.2793C199.156 56.2962 198.885 56.3047 198.445 56.3047ZM213.628 55.4668C212.274 55.4668 211.013 55.0436 209.845 54.1973C208.965 53.5202 208.279 52.6569 207.788 51.6074C206.739 49.627 206.214 47.4518 206.214 45.082C206.214 43.694 206.409 42.3145 206.798 40.9434C206.832 40.8757 206.857 40.7995 206.874 40.7148C207.01 40.224 207.179 39.7415 207.382 39.2676C208.719 36.7285 210.564 35.459 212.917 35.459C213.882 35.459 214.83 35.6875 215.761 36.1445C216.692 36.6016 217.505 37.2702 218.199 38.1504C219.451 39.7415 220.247 41.5781 220.585 43.6602C220.67 44.2018 220.712 44.8281 220.712 45.5391C220.712 45.9453 220.687 46.36 220.636 46.7832C220.535 47.8835 220.323 48.8906 220.001 49.8047C219.578 50.8711 219.155 51.7344 218.732 52.3945C218.207 53.207 217.555 53.901 216.777 54.4766C215.761 55.1367 214.712 55.4668 213.628 55.4668ZM213.527 51.2266C213.611 51.2266 213.798 51.1673 214.085 51.0488C214.373 50.9303 214.779 50.3971 215.304 49.4492C215.473 49.1784 215.617 48.8906 215.736 48.5859V48.5352C216.04 47.7396 216.235 47.0371 216.32 46.4277L216.345 46.3516C216.396 46.0638 216.421 45.7845 216.421 45.5137C216.421 44.9889 216.387 44.5319 216.32 44.1426C216.218 43.4486 215.99 42.7546 215.634 42.0605C215.296 41.3496 214.94 40.7995 214.568 40.4102C213.823 39.7669 213.239 39.4453 212.816 39.4453C212.359 39.4453 211.944 39.86 211.572 40.6895C211.216 41.5189 210.971 42.4076 210.835 43.3555C210.734 43.9479 210.683 44.5488 210.683 45.1582C210.683 46.8171 211.098 48.4082 211.927 49.9316C212.553 50.7949 213.087 51.2266 213.527 51.2266ZM228.253 54.4512C227.238 54.4512 226.332 54.1549 225.536 53.5625C224.555 52.8346 223.793 51.6074 223.251 49.8809C222.98 49.1191 222.777 48.2643 222.642 47.3164C222.625 47.1471 222.6 46.9863 222.566 46.834L222.439 45.8438C222.439 45.6406 222.422 45.4375 222.388 45.2344C222.303 44.5065 222.261 43.3301 222.261 41.7051L222.312 40.8418C222.329 40.2663 222.371 39.6823 222.439 39.0898C222.507 38.4974 222.557 38.1504 222.591 38.0488C222.354 38.0488 221.88 38.1589 221.169 38.3789L220.636 38.5059L220.306 38.5312C220.137 38.4297 219.951 38.3366 219.747 38.252C218.969 37.9811 218.579 37.651 218.579 37.2617C218.579 37.0078 218.867 36.6777 219.443 36.2715L219.493 36.2461C220.221 35.806 221.127 35.4336 222.21 35.1289C222.752 34.9935 223.082 34.9258 223.201 34.9258L223.226 34.7734L223.378 34.2402C223.497 33.5462 223.691 32.9199 223.962 32.3613C224.419 31.4642 224.961 31.0156 225.587 31.0156C226.417 31.0326 227.145 31.6081 227.771 32.7422L227.644 33.3516L227.466 34.1895L227.39 34.4941C227.39 34.528 227.382 34.5534 227.365 34.5703L227.618 34.5957C228.16 34.5957 228.609 34.6042 228.964 34.6211C229.32 34.638 229.667 34.6719 230.005 34.7227C230.716 34.7565 231.309 34.8496 231.783 35.002C232.104 35.2389 232.265 35.5352 232.265 35.8906C232.265 35.9583 232.24 36.1361 232.189 36.4238C232.138 36.6947 231.926 37.0247 231.554 37.4141C231.182 37.8034 230.758 38.0319 230.285 38.0996L229.523 38.0234C228.693 37.9219 228.092 37.8626 227.72 37.8457L226.908 37.8203L226.882 37.9473C226.848 38.3535 226.806 38.7513 226.755 39.1406C226.755 39.3776 226.738 39.5807 226.704 39.75C226.62 40.8503 226.577 41.5951 226.577 41.9844L226.527 42.5938C226.527 44.0833 226.552 45.0736 226.603 45.5645C226.603 45.7676 226.637 46.2077 226.704 46.8848C226.772 47.2572 226.831 47.6211 226.882 47.9766C226.95 48.332 227.026 48.6706 227.111 48.9922C227.229 49.5169 227.415 50.0163 227.669 50.4902C227.923 50.9473 228.228 51.1758 228.583 51.1758C228.888 51.1758 229.218 50.8711 229.574 50.2617C229.743 49.9909 229.844 49.8047 229.878 49.7031C230.217 48.8568 230.572 48.4336 230.945 48.4336C231.368 48.4336 231.63 49.1953 231.732 50.7188C231.715 50.7526 231.706 50.7949 231.706 50.8457V50.998C231.706 51.5566 231.495 52.2083 231.072 52.9531C230.733 53.4609 230.335 53.8418 229.878 54.0957C229.421 54.3327 228.88 54.4512 228.253 54.4512ZM227.365 37.8203C227.229 37.8203 227.102 37.8118 226.984 37.7949H226.908V37.8203H227.365ZM237.597 54.9844C237.411 54.9844 237.106 54.9336 236.683 54.832C235.989 54.6289 235.43 53.5794 235.007 51.6836L234.601 49.7539L234.22 47.7988C234.118 47.291 233.966 46.4277 233.763 45.209C233.56 44.0579 233.391 42.8984 233.255 41.7305C233.204 41.0703 233.145 40.4186 233.077 39.7754C232.925 37.9473 232.824 36.3477 232.773 34.9766V33.8848C232.841 33.3431 233.111 32.9453 233.585 32.6914C234.059 32.4206 234.601 32.2852 235.21 32.2852C235.837 32.2852 236.378 32.4206 236.835 32.6914C237.309 32.9453 237.572 33.3262 237.622 33.834C237.622 34.0202 237.631 34.1895 237.648 34.3418C237.665 34.4941 237.673 34.6549 237.673 34.8242C237.69 34.9935 237.707 35.1628 237.724 35.332L237.8 36.0684L237.902 37.4141L237.978 37.3125C238.74 36.3307 239.476 35.6536 240.187 35.2812C240.695 35.0104 241.287 34.875 241.964 34.875C242.946 34.875 243.868 35.1289 244.732 35.6367C245.561 36.2461 246.145 36.7793 246.484 37.2363C246.822 37.6764 247.152 38.2943 247.474 39.0898L247.906 40.4102L248.236 41.8828C248.32 42.3398 248.363 42.8392 248.363 43.3809C248.363 43.7533 248.295 44.1087 248.16 44.4473C248.092 44.7181 247.931 44.9128 247.677 45.0312C247.44 45.1497 247.271 45.2513 247.169 45.3359L246.814 45.6152L245.519 45.7676C245.383 45.666 245.257 45.5898 245.138 45.5391L244.478 45.3359C244.376 45.319 244.292 45.2936 244.224 45.2598C244.173 45.2259 244.072 45.1074 243.919 44.9043C243.547 44.3626 243.293 43.584 243.158 42.5684C243.107 42.0605 243.022 41.5612 242.904 41.0703L242.802 40.6387C242.548 39.5553 242.133 39.0137 241.558 39.0137C240.982 39.0137 240.331 39.5384 239.603 40.5879C239.247 41.1465 239.036 41.5612 238.968 41.832C238.731 42.2891 238.587 42.6191 238.536 42.8223L238.486 42.8984C238.52 43.0339 238.536 43.1608 238.536 43.2793L238.917 46.2754L239.044 47.1641L239.171 48.2305L239.298 49.0938C239.298 49.1445 239.307 49.1868 239.324 49.2207C239.577 50.998 239.704 52.2168 239.704 52.877C239.62 53.6895 239.307 54.2734 238.765 54.6289C238.393 54.8659 238.003 54.9844 237.597 54.9844ZM256.183 55.3652C255.201 55.3652 254.219 55.1536 253.238 54.7305C252.171 54.2565 251.283 53.5371 250.572 52.5723C249.438 50.9303 248.87 48.8314 248.87 46.2754C248.87 44.735 249.057 43.2285 249.429 41.7559C249.801 40.3848 250.275 39.1914 250.851 38.1758C251.443 37.1602 252.171 36.2292 253.035 35.3828C253.915 34.5195 254.837 33.834 255.802 33.3262C256.784 32.8184 257.749 32.5052 258.697 32.3867H260.118C260.576 32.4036 261.033 32.4798 261.49 32.6152C263.352 33.3092 264.545 34.5957 265.07 36.4746C265.239 37.0501 265.324 37.6849 265.324 38.3789C265.324 39.5469 265.07 40.6725 264.562 41.7559C264.206 42.5853 263.656 43.4486 262.911 44.3457C262.759 44.5827 262.404 44.9635 261.845 45.4883C260 47.0964 258.172 48.2135 256.361 48.8398C255.447 49.1445 254.609 49.3138 253.847 49.3477C253.864 49.3646 253.881 49.3984 253.898 49.4492C253.915 49.5 253.932 49.5592 253.949 49.627C254.084 49.9147 254.262 50.1855 254.482 50.4395C255.057 51.0827 255.675 51.4043 256.335 51.4043C256.979 51.4043 257.605 51.2266 258.214 50.8711C258.57 50.6849 258.908 50.4902 259.23 50.2871C259.755 49.9486 260.059 49.737 260.144 49.6523C260.652 49.1953 261.176 48.8229 261.718 48.5352L261.896 48.4336C262.167 48.3828 262.429 48.3574 262.683 48.3574C263.038 48.3574 263.419 48.4336 263.826 48.5859C264.249 48.7214 264.503 49.1784 264.587 49.957C264.486 50.3802 264.308 50.778 264.054 51.1504C263.817 51.5228 263.529 51.8613 263.191 52.166C261.617 53.5879 259.822 54.5951 257.808 55.1875C257.266 55.306 256.725 55.3652 256.183 55.3652ZM253.314 46.377C253.348 46.377 253.373 46.3685 253.39 46.3516C253.559 46.3516 253.923 46.25 254.482 46.0469C255.853 45.4714 257.275 44.4896 258.747 43.1016C259.357 42.4753 259.839 41.8828 260.195 41.3242C260.736 40.3424 261.016 39.4284 261.033 38.582C261.033 38.0742 260.88 37.541 260.576 36.9824C260.423 36.7454 260.245 36.6016 260.042 36.5508H260.144H259.661H260.017C259.865 36.5 259.653 36.4746 259.382 36.4746C259.094 36.5085 258.951 36.5339 258.951 36.5508H259.661C259.052 36.5508 258.333 36.8132 257.503 37.3379C256.014 38.3535 254.922 39.6908 254.228 41.3496C253.618 42.7884 253.314 44.4642 253.314 46.377ZM277.257 58.1328C277.037 58.1328 276.758 58.0651 276.419 57.9297C275.878 57.7435 275.395 56.3893 274.972 53.8672C274.803 52.7839 274.667 51.599 274.566 50.3125C274.498 49.4154 274.464 48.5098 274.464 47.5957C274.464 46.4108 274.507 45.2428 274.591 44.0918C274.71 42.5514 274.854 41.2734 275.023 40.2578C275.192 39.1406 275.463 38.0658 275.835 37.0332C276.631 34.8327 277.807 33.4193 279.365 32.793C279.906 32.6068 280.406 32.5137 280.863 32.5137C282.064 32.5137 283.165 33.0723 284.163 34.1895C285.111 35.2559 285.898 36.9655 286.525 39.3184L286.55 39.3945C286.821 38.6497 287.193 37.8796 287.667 37.084C288.548 35.679 289.639 34.6296 290.943 33.9355C291.654 33.597 292.339 33.4277 292.999 33.4277C293.49 33.4277 293.973 33.5293 294.447 33.7324C295.158 34.0879 295.708 34.5788 296.097 35.2051C296.486 35.8314 296.766 36.5254 296.935 37.2871C297.053 37.7611 297.155 38.5482 297.24 39.6484L297.265 40.9688V42.3906C297.265 42.8646 297.24 43.8887 297.189 45.4629C297.172 45.5814 297.163 45.7083 297.163 45.8438L297.036 48.6875L297.011 49.957C297.011 51.6159 296.918 52.7754 296.732 53.4355C296.376 54.4681 295.826 54.9844 295.081 54.9844C294.37 54.9844 293.846 54.4766 293.507 53.4609C293.372 52.9531 293.296 52.4368 293.279 51.9121L293.253 49.9824L293.279 48.6113C293.279 47.985 293.296 47.4349 293.329 46.9609L293.38 45.3359C293.431 44.8281 293.456 43.8464 293.456 42.3906C293.439 39.4115 293.152 37.9219 292.593 37.9219C292.255 37.9219 291.806 38.5736 291.247 39.877C290.943 40.4694 290.68 41.0703 290.46 41.6797L290.333 42.0352C290.063 42.9492 289.817 43.8548 289.597 44.752C289.512 45.0736 289.36 45.8353 289.14 47.0371C289.021 47.6296 288.911 48.2305 288.81 48.8398C288.759 49.2122 288.7 49.5762 288.632 49.9316C288.598 50.0671 288.548 50.3717 288.48 50.8457C288.446 51.0658 288.387 51.2858 288.302 51.5059C288.201 51.8952 287.964 52.1745 287.591 52.3438L286.118 52.5723C285.526 52.5215 285.111 51.9883 284.874 50.9727C284.485 47.8919 283.808 44.7943 282.843 41.6797L282.742 41.2988C282.471 40.334 282.225 39.5469 282.005 38.9375C281.616 38.1589 281.277 37.7695 280.99 37.7695C280.566 37.7695 280.211 38.6328 279.923 40.3594C279.568 42.1198 279.356 44.1003 279.288 46.3008L279.263 46.8086C279.263 47.2826 279.271 47.748 279.288 48.2051C279.356 50.4225 279.424 51.7174 279.492 52.0898C279.627 53.5964 279.754 54.7897 279.872 55.6699L279.999 56.3809C279.966 56.5671 279.762 56.8294 279.39 57.168C279.035 57.4896 278.594 57.752 278.07 57.9551C277.782 58.0736 277.511 58.1328 277.257 58.1328ZM305.187 55.4668C303.833 55.4668 302.572 55.0436 301.404 54.1973C300.523 53.5202 299.838 52.6569 299.347 51.6074C298.298 49.627 297.773 47.4518 297.773 45.082C297.773 43.694 297.967 42.3145 298.357 40.9434C298.391 40.8757 298.416 40.7995 298.433 40.7148C298.568 40.224 298.738 39.7415 298.941 39.2676C300.278 36.7285 302.123 35.459 304.476 35.459C305.441 35.459 306.389 35.6875 307.32 36.1445C308.251 36.6016 309.063 37.2702 309.757 38.1504C311.01 39.7415 311.805 41.5781 312.144 43.6602C312.229 44.2018 312.271 44.8281 312.271 45.5391C312.271 45.9453 312.245 46.36 312.195 46.7832C312.093 47.8835 311.882 48.8906 311.56 49.8047C311.137 50.8711 310.714 51.7344 310.29 52.3945C309.766 53.207 309.114 53.901 308.335 54.4766C307.32 55.1367 306.27 55.4668 305.187 55.4668ZM305.085 51.2266C305.17 51.2266 305.356 51.1673 305.644 51.0488C305.932 50.9303 306.338 50.3971 306.863 49.4492C307.032 49.1784 307.176 48.8906 307.294 48.5859V48.5352C307.599 47.7396 307.794 47.0371 307.878 46.4277L307.904 46.3516C307.954 46.0638 307.98 45.7845 307.98 45.5137C307.98 44.9889 307.946 44.5319 307.878 44.1426C307.777 43.4486 307.548 42.7546 307.193 42.0605C306.854 41.3496 306.499 40.7995 306.126 40.4102C305.382 39.7669 304.798 39.4453 304.374 39.4453C303.917 39.4453 303.503 39.86 303.13 40.6895C302.775 41.5189 302.529 42.4076 302.394 43.3555C302.292 43.9479 302.242 44.5488 302.242 45.1582C302.242 46.8171 302.656 48.4082 303.486 49.9316C304.112 50.7949 304.645 51.2266 305.085 51.2266ZM323.849 68.8223C322.766 68.8223 321.648 68.5514 320.497 68.0098C319.973 67.7389 319.49 67.4004 319.05 66.9941C319.016 66.9434 318.974 66.901 318.923 66.8672C318.703 66.6302 318.5 66.3763 318.314 66.1055C317.62 65.0729 317.273 64.0996 317.273 63.1855C317.273 62.6947 317.357 62.2122 317.527 61.7383C318.018 60.9935 318.627 60.6211 319.355 60.6211C319.406 60.6211 319.643 60.638 320.066 60.6719C320.489 60.7057 320.938 61.1628 321.411 62.043C321.445 62.1784 321.471 62.3223 321.488 62.4746V62.8301C321.945 64.2012 322.656 64.8867 323.62 64.8867C323.671 64.8867 323.967 64.8613 324.509 64.8105C325.068 64.7767 325.44 63.9134 325.626 62.2207L325.652 61.5859C325.652 60.5026 325.609 59.5885 325.525 58.8438C325.525 58.7083 325.491 58.2344 325.423 57.4219L325.068 54.2988L324.992 53.791C324.585 54.4342 324.061 54.9759 323.417 55.416C322.554 56.0254 321.623 56.3301 320.624 56.3301C319.287 56.3301 318.094 55.9746 317.044 55.2637C316.215 54.6712 315.521 53.9264 314.962 53.0293L314.886 52.9277C314.192 51.7428 313.633 50.2702 313.21 48.5098C312.939 47.291 312.804 46.0553 312.804 44.8027L312.829 42.9746C312.897 41.8405 313.033 40.7402 313.236 39.6738C313.896 37.1517 314.971 35.8906 316.46 35.8906C316.934 35.8906 317.366 36.0768 317.755 36.4492C318.212 36.8724 318.441 37.4733 318.441 38.252C318.441 38.6074 318.39 38.9967 318.288 39.4199C318.153 39.8262 318.009 40.5879 317.857 41.7051C317.772 42.7884 317.73 43.6263 317.73 44.2188C317.73 44.6927 317.772 45.3783 317.857 46.2754C317.891 46.7493 317.958 47.2233 318.06 47.6973C318.195 48.3913 318.449 49.1953 318.822 50.1094L318.898 50.2363C319.473 51.5397 320.117 52.1914 320.827 52.1914C321.352 52.1914 322.038 51.6836 322.884 50.668L323.341 50.1094C323.578 49.8385 323.798 49.5677 324.001 49.2969L324.357 48.8145V48.7891C324.289 48.0104 324.137 46.7578 323.9 45.0312C323.781 44.168 323.663 43.0254 323.544 41.6035L323.417 40.0801L323.367 39.6992L323.29 37.9727C323.29 37.8542 323.282 37.7441 323.265 37.6426C323.299 36.8978 323.544 36.3392 324.001 35.9668C324.458 35.5775 325.025 35.3828 325.702 35.3828C326.21 35.3828 326.676 35.5521 327.099 35.8906C327.539 36.2122 327.768 36.7201 327.785 37.4141C327.818 37.6172 327.844 37.8118 327.861 37.998C327.878 38.1673 327.895 38.3281 327.911 38.4805L328.013 39.3184L328.038 39.7754L328.368 42.8477C328.453 43.4232 328.521 44.0156 328.572 44.625C328.639 45.2174 328.716 45.8184 328.8 46.4277L328.826 46.7578C329.164 49.3815 329.384 51.1335 329.486 52.0137L330.044 57.0664L330.171 58.5391C330.239 59.2669 330.273 60.1471 330.273 61.1797C330.273 62.6016 330.12 63.7695 329.816 64.6836C329.579 65.4622 329.266 66.1224 328.876 66.6641C328.284 67.4596 327.378 68.0605 326.16 68.4668C325.753 68.6191 325.212 68.7292 324.535 68.7969L323.849 68.8223ZM338.093 55.3652C337.111 55.3652 336.13 55.1536 335.148 54.7305C334.081 54.2565 333.193 53.5371 332.482 52.5723C331.348 50.9303 330.781 48.8314 330.781 46.2754C330.781 44.735 330.967 43.2285 331.339 41.7559C331.712 40.3848 332.186 39.1914 332.761 38.1758C333.354 37.1602 334.081 36.2292 334.945 35.3828C335.825 34.5195 336.747 33.834 337.712 33.3262C338.694 32.8184 339.659 32.5052 340.607 32.3867H342.029C342.486 32.4036 342.943 32.4798 343.4 32.6152C345.262 33.3092 346.455 34.5957 346.98 36.4746C347.149 37.0501 347.234 37.6849 347.234 38.3789C347.234 39.5469 346.98 40.6725 346.472 41.7559C346.117 42.5853 345.566 43.4486 344.822 44.3457C344.669 44.5827 344.314 44.9635 343.755 45.4883C341.91 47.0964 340.082 48.2135 338.271 48.8398C337.357 49.1445 336.519 49.3138 335.757 49.3477C335.774 49.3646 335.791 49.3984 335.808 49.4492C335.825 49.5 335.842 49.5592 335.859 49.627C335.994 49.9147 336.172 50.1855 336.392 50.4395C336.967 51.0827 337.585 51.4043 338.245 51.4043C338.889 51.4043 339.515 51.2266 340.124 50.8711C340.48 50.6849 340.818 50.4902 341.14 50.2871C341.665 49.9486 341.969 49.737 342.054 49.6523C342.562 49.1953 343.087 48.8229 343.628 48.5352L343.806 48.4336C344.077 48.3828 344.339 48.3574 344.593 48.3574C344.949 48.3574 345.329 48.4336 345.736 48.5859C346.159 48.7214 346.413 49.1784 346.497 49.957C346.396 50.3802 346.218 50.778 345.964 51.1504C345.727 51.5228 345.439 51.8613 345.101 52.166C343.527 53.5879 341.732 54.5951 339.718 55.1875C339.176 55.306 338.635 55.3652 338.093 55.3652ZM335.224 46.377C335.258 46.377 335.283 46.3685 335.3 46.3516C335.469 46.3516 335.833 46.25 336.392 46.0469C337.763 45.4714 339.185 44.4896 340.658 43.1016C341.267 42.4753 341.749 41.8828 342.105 41.3242C342.646 40.3424 342.926 39.4284 342.943 38.582C342.943 38.0742 342.79 37.541 342.486 36.9824C342.333 36.7454 342.156 36.6016 341.952 36.5508H342.054H341.572H341.927C341.775 36.5 341.563 36.4746 341.292 36.4746C341.005 36.5085 340.861 36.5339 340.861 36.5508H341.572C340.962 36.5508 340.243 36.8132 339.413 37.3379C337.924 38.3535 336.832 39.6908 336.138 41.3496C335.529 42.7884 335.224 44.4642 335.224 46.377ZM350.179 56.5078C349.756 56.5078 349.29 56.3555 348.783 56.0508C348.292 55.7292 348.004 55.1283 347.919 54.248C347.801 53.1309 347.742 51.472 347.742 49.2715L347.767 48.7129C347.784 47.4264 347.835 46.0977 347.919 44.7266C347.919 44.4219 347.936 44.1087 347.97 43.7871C348.021 42.416 348.199 41.0111 348.503 39.5723L348.808 38.4297C349.028 37.651 349.341 36.9824 349.747 36.4238C350.374 35.4928 351.229 35.0273 352.312 35.0273C352.617 35.0273 352.93 35.0697 353.251 35.1543C353.895 35.3913 354.504 35.8145 355.079 36.4238C355.435 36.8132 355.833 37.3548 356.273 38.0488C356.781 38.8105 357.255 39.6484 357.695 40.5625L357.999 41.1973C358.135 41.4681 358.262 41.7474 358.38 42.0352C358.736 42.8307 358.956 43.3639 359.04 43.6348C359.379 44.3965 359.607 44.9551 359.726 45.3105L360.945 48.2559L361.046 46.7832C361.097 45.9707 361.122 45.2513 361.122 44.625L361.148 43.7109L361.122 43.2285C361.122 42.5684 361.114 42.1283 361.097 41.9082C361.097 40.9434 361.122 40.1309 361.173 39.4707V38.3789L361.148 38.0234C361.148 37.7865 361.173 37.5495 361.224 37.3125C361.529 36.3646 362.028 35.8906 362.722 35.8906C363.281 35.8906 363.746 36.2969 364.118 37.1094C364.237 37.431 364.322 37.7865 364.372 38.1758C364.423 38.5651 364.516 39.0814 364.652 39.7246C364.889 40.8418 365.041 41.9505 365.109 43.0508L365.261 44.4727C365.43 45.6745 365.523 46.8424 365.54 47.9766C365.54 48.3151 365.498 48.9837 365.413 49.9824L365.388 50.0586C365.27 51.5482 364.889 52.7415 364.245 53.6387C363.568 54.5189 362.697 54.959 361.63 54.959C360.581 54.959 359.667 54.5273 358.888 53.6641C358.363 53.1732 357.83 52.403 357.288 51.3535C356.696 50.1686 356.027 48.6113 355.283 46.6816C355.249 46.5632 355.198 46.4362 355.13 46.3008C355.079 46.1484 354.716 45.1921 354.038 43.4316C354.038 43.3978 354.03 43.3724 354.013 43.3555C353.725 42.5091 353.387 41.7135 352.997 40.9688L352.921 40.8164L352.515 44.0664C352.515 44.168 352.507 44.2611 352.49 44.3457C352.422 45.209 352.371 46.0469 352.337 46.8594C352.337 47.0964 352.303 47.9258 352.236 49.3477C352.185 51.0573 352.143 52.2083 352.109 52.8008L352.007 54.375C351.99 54.6289 351.965 54.8743 351.931 55.1113C351.711 56.0423 351.127 56.5078 350.179 56.5078ZM129.458 113.158H129.331C128.163 113.158 127.444 111.482 127.173 108.131C126.039 108.757 124.795 109.07 123.441 109.07C121.257 109.07 119.531 108.292 118.261 106.734C117.499 105.803 117.017 104.737 116.814 103.535C116.695 102.926 116.636 102.206 116.636 101.377C116.636 99.7689 116.941 98.1608 117.55 96.5527C118.041 95.4355 118.608 94.5046 119.251 93.7598C120.673 92.2025 122.417 91.4238 124.482 91.4238C124.82 91.4238 125.159 91.4408 125.497 91.4746L126.691 91.7539C126.691 91.026 126.699 90.4336 126.716 89.9766C126.75 89.5195 126.767 89.0794 126.767 88.6562C126.801 87.5391 126.894 86.168 127.046 84.543C127.148 83.3919 127.309 82.2832 127.529 81.2168C127.681 80.5566 127.816 80.1335 127.935 79.9473C127.969 79.7272 128.062 79.5495 128.214 79.4141C128.536 79.1263 128.934 78.9824 129.408 78.9824C129.865 78.9824 130.245 79.1602 130.55 79.5156C130.669 79.7018 130.745 79.9049 130.779 80.125L130.804 80.2773C130.889 80.6497 130.948 81.0306 130.982 81.4199C131.033 82.0293 131.058 82.8249 131.058 83.8066L131.033 84.7207C130.999 85.9056 130.982 87.0566 130.982 88.1738C130.965 88.597 130.956 89.1979 130.956 89.9766V96.1973C130.956 96.959 130.965 97.5853 130.982 98.0762V102.012L131.083 107.268L131.134 108.943C131.134 111.635 130.576 113.04 129.458 113.158ZM123.72 104.754C123.788 104.754 123.847 104.745 123.898 104.729C124.05 104.729 124.152 104.72 124.202 104.703H124.076C124.499 104.669 125.032 104.517 125.675 104.246C125.777 104.195 125.887 104.153 126.005 104.119C126.479 103.899 126.75 103.755 126.818 103.688H126.843C126.826 103.146 126.801 102.613 126.767 102.088C126.699 100.751 126.665 98.931 126.665 96.6289V96.1465C126.632 96.1465 126.598 96.1296 126.564 96.0957C125.768 95.6387 125.049 95.4102 124.406 95.4102C123.745 95.4102 123.161 95.6725 122.654 96.1973C122.197 96.6543 121.833 97.2129 121.562 97.873C121.325 98.4316 121.206 98.821 121.206 99.041C121.037 99.7181 120.952 100.412 120.952 101.123C120.952 101.766 121.029 102.325 121.181 102.799C121.553 103.916 122.129 104.551 122.908 104.703H124.076L123.974 104.729L123.542 104.754L123.009 104.729C123.128 104.745 123.305 104.754 123.542 104.754H123.72ZM139.64 110.365C138.658 110.365 137.676 110.154 136.695 109.73C135.628 109.257 134.74 108.537 134.029 107.572C132.895 105.93 132.327 103.831 132.327 101.275C132.327 99.735 132.514 98.2285 132.886 96.7559C133.258 95.3848 133.732 94.1914 134.308 93.1758C134.9 92.1602 135.628 91.2292 136.492 90.3828C137.372 89.5195 138.294 88.834 139.259 88.3262C140.241 87.8184 141.206 87.5052 142.154 87.3867H143.576C144.033 87.4036 144.49 87.4798 144.947 87.6152C146.809 88.3092 148.002 89.5957 148.527 91.4746C148.696 92.0501 148.781 92.6849 148.781 93.3789C148.781 94.5469 148.527 95.6725 148.019 96.7559C147.663 97.5853 147.113 98.4486 146.368 99.3457C146.216 99.5827 145.861 99.9635 145.302 100.488C143.457 102.096 141.629 103.214 139.818 103.84C138.904 104.145 138.066 104.314 137.304 104.348C137.321 104.365 137.338 104.398 137.355 104.449C137.372 104.5 137.389 104.559 137.406 104.627C137.541 104.915 137.719 105.186 137.939 105.439C138.514 106.083 139.132 106.404 139.792 106.404C140.436 106.404 141.062 106.227 141.671 105.871C142.027 105.685 142.365 105.49 142.687 105.287C143.212 104.949 143.516 104.737 143.601 104.652C144.109 104.195 144.633 103.823 145.175 103.535L145.353 103.434C145.624 103.383 145.886 103.357 146.14 103.357C146.495 103.357 146.876 103.434 147.283 103.586C147.706 103.721 147.96 104.178 148.044 104.957C147.943 105.38 147.765 105.778 147.511 106.15C147.274 106.523 146.986 106.861 146.648 107.166C145.074 108.588 143.279 109.595 141.265 110.188C140.723 110.306 140.182 110.365 139.64 110.365ZM136.771 101.377C136.805 101.377 136.83 101.368 136.847 101.352C137.016 101.352 137.38 101.25 137.939 101.047C139.31 100.471 140.732 99.4896 142.204 98.1016C142.814 97.4753 143.296 96.8828 143.652 96.3242C144.193 95.3424 144.473 94.4284 144.49 93.582C144.49 93.0742 144.337 92.541 144.033 91.9824C143.88 91.7454 143.702 91.6016 143.499 91.5508H143.601H143.118H143.474C143.322 91.5 143.11 91.4746 142.839 91.4746C142.551 91.5085 142.408 91.5339 142.408 91.5508H143.118C142.509 91.5508 141.79 91.8132 140.96 92.3379C139.471 93.3535 138.379 94.6908 137.685 96.3496C137.076 97.7884 136.771 99.4642 136.771 101.377ZM164.929 109.451C163.913 109.451 163.008 109.155 162.212 108.562C161.23 107.835 160.469 106.607 159.927 104.881C159.656 104.119 159.453 103.264 159.318 102.316C159.301 102.147 159.275 101.986 159.242 101.834L159.115 100.844C159.115 100.641 159.098 100.438 159.064 100.234C158.979 99.5065 158.937 98.3301 158.937 96.7051L158.988 95.8418C159.005 95.2663 159.047 94.6823 159.115 94.0898C159.182 93.4974 159.233 93.1504 159.267 93.0488C159.03 93.0488 158.556 93.1589 157.845 93.3789L157.312 93.5059L156.982 93.5312C156.813 93.4297 156.626 93.3366 156.423 93.252C155.645 92.9811 155.255 92.651 155.255 92.2617C155.255 92.0078 155.543 91.6777 156.118 91.2715L156.169 91.2461C156.897 90.806 157.803 90.4336 158.886 90.1289C159.428 89.9935 159.758 89.9258 159.876 89.9258L159.902 89.7734L160.054 89.2402C160.173 88.5462 160.367 87.9199 160.638 87.3613C161.095 86.4642 161.637 86.0156 162.263 86.0156C163.092 86.0326 163.82 86.6081 164.447 87.7422L164.32 88.3516L164.142 89.1895L164.066 89.4941C164.066 89.528 164.057 89.5534 164.04 89.5703L164.294 89.5957C164.836 89.5957 165.285 89.6042 165.64 89.6211C165.995 89.638 166.342 89.6719 166.681 89.7227C167.392 89.7565 167.984 89.8496 168.458 90.002C168.78 90.2389 168.941 90.5352 168.941 90.8906C168.941 90.9583 168.915 91.1361 168.865 91.4238C168.814 91.6947 168.602 92.0247 168.23 92.4141C167.857 92.8034 167.434 93.0319 166.96 93.0996L166.199 93.0234C165.369 92.9219 164.768 92.8626 164.396 92.8457L163.583 92.8203L163.558 92.9473C163.524 93.3535 163.482 93.7513 163.431 94.1406C163.431 94.3776 163.414 94.5807 163.38 94.75C163.296 95.8503 163.253 96.5951 163.253 96.9844L163.202 97.5938C163.202 99.0833 163.228 100.074 163.279 100.564C163.279 100.768 163.313 101.208 163.38 101.885C163.448 102.257 163.507 102.621 163.558 102.977C163.626 103.332 163.702 103.671 163.786 103.992C163.905 104.517 164.091 105.016 164.345 105.49C164.599 105.947 164.904 106.176 165.259 106.176C165.564 106.176 165.894 105.871 166.249 105.262C166.419 104.991 166.52 104.805 166.554 104.703C166.893 103.857 167.248 103.434 167.62 103.434C168.044 103.434 168.306 104.195 168.408 105.719C168.391 105.753 168.382 105.795 168.382 105.846V105.998C168.382 106.557 168.171 107.208 167.747 107.953C167.409 108.461 167.011 108.842 166.554 109.096C166.097 109.333 165.555 109.451 164.929 109.451ZM164.04 92.8203C163.905 92.8203 163.778 92.8118 163.66 92.7949H163.583V92.8203H164.04ZM174.273 109.984C174.087 109.984 173.782 109.934 173.359 109.832C172.665 109.629 172.106 108.579 171.683 106.684L171.277 104.754L170.896 102.799C170.794 102.291 170.642 101.428 170.439 100.209C170.236 99.0579 170.066 97.8984 169.931 96.7305C169.88 96.0703 169.821 95.4186 169.753 94.7754C169.601 92.9473 169.499 91.3477 169.449 89.9766V88.8848C169.516 88.3431 169.787 87.9453 170.261 87.6914C170.735 87.4206 171.277 87.2852 171.886 87.2852C172.512 87.2852 173.054 87.4206 173.511 87.6914C173.985 87.9453 174.247 88.3262 174.298 88.834C174.298 89.0202 174.307 89.1895 174.324 89.3418C174.341 89.4941 174.349 89.6549 174.349 89.8242C174.366 89.9935 174.383 90.1628 174.4 90.332L174.476 91.0684L174.577 92.4141L174.654 92.3125C175.415 91.3307 176.152 90.6536 176.863 90.2812C177.37 90.0104 177.963 89.875 178.64 89.875C179.622 89.875 180.544 90.1289 181.408 90.6367C182.237 91.2461 182.821 91.7793 183.16 92.2363C183.498 92.6764 183.828 93.2943 184.15 94.0898L184.581 95.4102L184.911 96.8828C184.996 97.3398 185.038 97.8392 185.038 98.3809C185.038 98.7533 184.971 99.1087 184.835 99.4473C184.768 99.7181 184.607 99.9128 184.353 100.031C184.116 100.15 183.947 100.251 183.845 100.336L183.49 100.615L182.195 100.768C182.059 100.666 181.932 100.59 181.814 100.539L181.154 100.336C181.052 100.319 180.967 100.294 180.9 100.26C180.849 100.226 180.747 100.107 180.595 99.9043C180.223 99.3626 179.969 98.584 179.833 97.5684C179.783 97.0605 179.698 96.5612 179.579 96.0703L179.478 95.6387C179.224 94.5553 178.809 94.0137 178.234 94.0137C177.658 94.0137 177.007 94.5384 176.279 95.5879C175.923 96.1465 175.712 96.5612 175.644 96.832C175.407 97.2891 175.263 97.6191 175.212 97.8223L175.161 97.8984C175.195 98.0339 175.212 98.1608 175.212 98.2793L175.593 101.275L175.72 102.164L175.847 103.23L175.974 104.094C175.974 104.145 175.982 104.187 175.999 104.221C176.253 105.998 176.38 107.217 176.38 107.877C176.296 108.689 175.982 109.273 175.441 109.629C175.068 109.866 174.679 109.984 174.273 109.984ZM200.349 115.215C200.214 115.215 200.087 115.206 199.968 115.189C199.85 115.173 199.663 115.037 199.41 114.783L199.156 114.402C198.834 113.962 198.521 113.251 198.216 112.27C198.199 112.168 198.174 112.075 198.14 111.99C197.801 110.704 197.539 109.282 197.353 107.725C197.319 107.437 197.302 107.158 197.302 106.887L197.226 106.988C196.244 108.393 195.169 109.426 194.001 110.086H193.976C193.096 110.594 192.165 110.848 191.183 110.848C189.693 110.848 188.441 110.289 187.425 109.172C186.173 107.852 185.546 105.88 185.546 103.256C185.682 100.649 186.435 98.2539 187.806 96.0703C188.517 94.9193 189.279 93.9967 190.091 93.3027C190.091 93.2181 190.514 92.8965 191.361 92.3379C192.546 91.627 193.891 91.263 195.398 91.2461C196.481 91.2461 197.404 91.5 198.165 92.0078C198.335 92.0924 198.546 92.2617 198.8 92.5156C198.8 92.5326 198.809 92.541 198.826 92.541C199.232 92.9811 199.435 93.4212 199.435 93.8613C199.435 94.0814 199.418 94.2253 199.384 94.293C199.35 94.3607 199.299 94.4368 199.232 94.5215C198.927 94.877 198.106 95.0547 196.769 95.0547H196.439C195.576 95.0547 194.788 95.1732 194.077 95.4102C193.146 95.9349 192.309 96.7643 191.564 97.8984C190.497 99.6758 189.93 101.504 189.863 103.383C189.863 104.161 189.981 104.872 190.218 105.516C190.472 106.243 190.861 106.607 191.386 106.607C191.86 106.607 192.571 106.176 193.519 105.312C193.519 105.296 193.527 105.287 193.544 105.287C193.967 104.898 194.594 104.187 195.423 103.154L195.982 102.469C196.134 102.232 196.295 102.012 196.464 101.809C196.633 101.605 196.786 101.394 196.921 101.174L197.251 100.666C197.251 100.395 197.285 100.09 197.353 99.752C197.421 99.2611 197.514 98.804 197.632 98.3809L197.861 97.9492C198.03 97.6276 198.419 97.4668 199.029 97.4668C199.198 97.4668 199.418 97.4837 199.689 97.5176C200.298 97.6191 200.603 97.8307 200.603 98.1523L200.577 98.3047C200.577 98.3216 200.586 98.3385 200.603 98.3555C200.637 98.3724 200.688 98.4147 200.755 98.4824C200.823 98.6009 200.857 98.7956 200.857 99.0664L200.831 99.7773L200.806 102.342C200.806 103.611 200.84 104.618 200.908 105.363C200.908 105.668 200.958 106.345 201.06 107.395C201.195 108.41 201.297 109.045 201.365 109.299C201.551 110.45 201.779 111.482 202.05 112.396L202.126 112.65C202.245 112.938 202.313 113.226 202.329 113.514C202.329 114.157 202.076 114.622 201.568 114.91C201.195 115.113 200.789 115.215 200.349 115.215ZM196.515 98.0508C196.498 98.0339 196.473 98.0254 196.439 98.0254C196.422 98.0254 196.405 98.0254 196.388 98.0254C196.371 98.0254 196.363 98.0169 196.363 98L196.439 97.9238C196.456 97.9238 196.464 97.9323 196.464 97.9492C196.481 97.9492 196.49 97.9661 196.49 98C196.507 98.0169 196.515 98.0339 196.515 98.0508ZM205.3 111.508C204.877 111.508 204.411 111.355 203.904 111.051C203.413 110.729 203.125 110.128 203.04 109.248C202.922 108.131 202.863 106.472 202.863 104.271L202.888 103.713C202.905 102.426 202.956 101.098 203.04 99.7266C203.04 99.4219 203.057 99.1087 203.091 98.7871C203.142 97.416 203.32 96.0111 203.624 94.5723L203.929 93.4297C204.149 92.651 204.462 91.9824 204.868 91.4238C205.495 90.4928 206.35 90.0273 207.433 90.0273C207.738 90.0273 208.051 90.0697 208.372 90.1543C209.016 90.3913 209.625 90.8145 210.201 91.4238C210.556 91.8132 210.954 92.3548 211.394 93.0488C211.902 93.8105 212.376 94.6484 212.816 95.5625L213.12 96.1973C213.256 96.4681 213.383 96.7474 213.501 97.0352C213.857 97.8307 214.077 98.3639 214.161 98.6348C214.5 99.3965 214.729 99.9551 214.847 100.311L216.066 103.256L216.167 101.783C216.218 100.971 216.243 100.251 216.243 99.625L216.269 98.7109L216.243 98.2285C216.243 97.5684 216.235 97.1283 216.218 96.9082C216.218 95.9434 216.243 95.1309 216.294 94.4707V93.3789L216.269 93.0234C216.269 92.7865 216.294 92.5495 216.345 92.3125C216.65 91.3646 217.149 90.8906 217.843 90.8906C218.402 90.8906 218.867 91.2969 219.24 92.1094C219.358 92.431 219.443 92.7865 219.493 93.1758C219.544 93.5651 219.637 94.0814 219.773 94.7246C220.01 95.8418 220.162 96.9505 220.23 98.0508L220.382 99.4727C220.551 100.674 220.645 101.842 220.661 102.977C220.661 103.315 220.619 103.984 220.535 104.982L220.509 105.059C220.391 106.548 220.01 107.742 219.367 108.639C218.689 109.519 217.818 109.959 216.751 109.959C215.702 109.959 214.788 109.527 214.009 108.664C213.484 108.173 212.951 107.403 212.41 106.354C211.817 105.169 211.148 103.611 210.404 101.682C210.37 101.563 210.319 101.436 210.251 101.301C210.201 101.148 209.837 100.192 209.16 98.4316C209.16 98.3978 209.151 98.3724 209.134 98.3555C208.846 97.5091 208.508 96.7135 208.118 95.9688L208.042 95.8164L207.636 99.0664C207.636 99.168 207.628 99.2611 207.611 99.3457C207.543 100.209 207.492 101.047 207.458 101.859C207.458 102.096 207.424 102.926 207.357 104.348C207.306 106.057 207.264 107.208 207.23 107.801L207.128 109.375C207.111 109.629 207.086 109.874 207.052 110.111C206.832 111.042 206.248 111.508 205.3 111.508ZM229.117 112.523C227.187 112.523 225.486 112.007 224.013 110.975C223.234 110.433 222.608 109.832 222.134 109.172C221.609 108.376 221.33 107.589 221.296 106.811C221.516 105.795 221.965 105.287 222.642 105.287C222.676 105.287 222.879 105.304 223.251 105.338C223.641 105.355 224.216 105.676 224.978 106.303C225.299 106.743 225.638 107.115 225.993 107.42L226.146 107.547C226.366 107.733 226.594 107.885 226.831 108.004C227.593 108.444 228.338 108.664 229.066 108.664C229.76 108.664 230.378 108.419 230.919 107.928L231.046 107.445C231.063 107.361 231.072 107.268 231.072 107.166C231.072 106.844 230.902 106.447 230.564 105.973C230.31 105.617 229.878 105.202 229.269 104.729L229.015 104.5L228.304 103.967L227.339 103.281L226.958 103.053C226.721 102.9 226.467 102.748 226.197 102.596C225.993 102.494 225.596 102.24 225.003 101.834L224.876 101.732C224.504 101.479 224.14 101.199 223.785 100.895C222.989 100.201 222.354 99.3965 221.88 98.4824C221.423 97.5684 221.195 96.5781 221.195 95.5117C221.195 94.4115 221.491 93.3281 222.083 92.2617C222.659 91.263 223.387 90.4844 224.267 89.9258C225.164 89.3503 226.222 89.0625 227.441 89.0625C228.643 89.0625 229.709 89.3926 230.64 90.0527C231.266 90.5605 231.732 91.1699 232.036 91.8809C232.29 92.4225 232.417 92.9642 232.417 93.5059C232.417 94.2507 232.172 94.9193 231.681 95.5117C231.156 95.9688 230.708 96.1973 230.335 96.1973C230.318 96.1973 230.208 96.1888 230.005 96.1719C229.802 96.1549 229.438 95.8249 228.913 95.1816C228.846 95.097 228.812 95.0039 228.812 94.9023V94.5469V94.1914C228.812 94.0391 228.803 93.9544 228.786 93.9375C228.736 93.8359 228.702 93.7767 228.685 93.7598C228.668 93.7259 228.651 93.7005 228.634 93.6836C228.617 93.6667 228.6 93.6497 228.583 93.6328C228.245 93.2773 227.932 93.0996 227.644 93.0996C227.051 93.0996 226.586 93.4297 226.247 94.0898C226.044 94.5299 225.943 94.9362 225.943 95.3086C225.943 95.5286 225.993 95.7572 226.095 95.9941C226.264 96.485 226.73 97.0182 227.492 97.5938C227.61 97.7122 227.949 97.9408 228.507 98.2793C228.643 98.347 228.77 98.4232 228.888 98.5078L230.081 99.2188C231.114 99.8958 231.774 100.353 232.062 100.59C232.925 101.267 233.628 101.936 234.169 102.596C235.236 103.95 235.769 105.406 235.769 106.963C235.769 107.386 235.718 107.809 235.617 108.232C235.16 110.128 233.932 111.423 231.935 112.117C231.038 112.388 230.098 112.523 229.117 112.523ZM240.085 116.434C239.205 116.434 238.494 115.723 237.952 114.301C237.834 113.861 237.732 113.421 237.648 112.98L237.572 112.549C237.233 110.771 236.988 109.121 236.835 107.598C236.666 106.447 236.497 104.382 236.327 101.402C236.294 100.488 236.277 99.4473 236.277 98.2793C236.277 96.1126 236.395 94.2845 236.632 92.7949C236.768 91.7116 236.988 90.7214 237.292 89.8242C237.834 88.5039 238.503 87.8438 239.298 87.8438C239.874 87.8438 240.348 88.0977 240.72 88.6055C241.092 89.0964 241.279 89.6803 241.279 90.3574L241.253 90.7129L241.076 91.8047C241.076 91.9401 241.059 92.0755 241.025 92.2109C242.26 91.5 243.572 91.1445 244.96 91.1445C246.433 91.1445 247.669 91.5169 248.667 92.2617C249.429 92.7865 250.081 93.5143 250.622 94.4453C251.13 95.3086 251.469 96.2904 251.638 97.3906C251.689 97.8984 251.714 98.4909 251.714 99.168C251.714 100.014 251.613 100.861 251.41 101.707C251.274 102.52 251.029 103.298 250.673 104.043L250.546 104.297L250.115 105.109C249.674 105.77 249.158 106.303 248.566 106.709C247.499 107.505 246.331 107.902 245.062 107.902C244.148 107.902 243.2 107.682 242.218 107.242L241.228 106.709L241.66 110.162C241.693 110.45 241.736 110.746 241.786 111.051C241.837 111.355 241.88 111.66 241.913 111.965L242.015 112.65C242.083 112.989 242.133 113.319 242.167 113.641C242.049 115.503 241.355 116.434 240.085 116.434ZM244.91 103.713C245.383 103.713 245.807 103.501 246.179 103.078C246.213 103.027 246.255 102.985 246.306 102.951C246.526 102.646 246.695 102.283 246.814 101.859C247.034 101.098 247.169 100.471 247.22 99.9805C247.271 99.6927 247.305 99.4049 247.322 99.1172C247.322 98.2878 247.229 97.6191 247.042 97.1113C246.873 96.6035 246.585 96.1549 246.179 95.7656C245.587 95.2747 245.003 95.0293 244.427 95.0293C243.835 95.0293 243.2 95.1901 242.523 95.5117C241.998 95.7318 241.448 96.1296 240.872 96.7051C240.839 96.7897 240.779 96.849 240.695 96.8828V97.9492C240.695 98.7279 240.703 99.2441 240.72 99.498V99.752C240.991 100.395 241.38 101.013 241.888 101.605C242.227 102.012 242.438 102.257 242.523 102.342C242.624 102.41 242.709 102.477 242.777 102.545C243.572 103.324 244.283 103.713 244.91 103.713ZM259.636 110.467C258.282 110.467 257.021 110.044 255.853 109.197C254.973 108.52 254.287 107.657 253.796 106.607C252.747 104.627 252.222 102.452 252.222 100.082C252.222 98.694 252.417 97.3145 252.806 95.9434C252.84 95.8757 252.865 95.7995 252.882 95.7148C253.018 95.224 253.187 94.7415 253.39 94.2676C254.727 91.7285 256.572 90.459 258.925 90.459C259.89 90.459 260.838 90.6875 261.769 91.1445C262.7 91.6016 263.512 92.2702 264.206 93.1504C265.459 94.7415 266.255 96.5781 266.593 98.6602C266.678 99.2018 266.72 99.8281 266.72 100.539C266.72 100.945 266.695 101.36 266.644 101.783C266.542 102.883 266.331 103.891 266.009 104.805C265.586 105.871 265.163 106.734 264.74 107.395C264.215 108.207 263.563 108.901 262.785 109.477C261.769 110.137 260.719 110.467 259.636 110.467ZM259.535 106.227C259.619 106.227 259.805 106.167 260.093 106.049C260.381 105.93 260.787 105.397 261.312 104.449C261.481 104.178 261.625 103.891 261.743 103.586V103.535C262.048 102.74 262.243 102.037 262.327 101.428L262.353 101.352C262.404 101.064 262.429 100.785 262.429 100.514C262.429 99.9889 262.395 99.5319 262.327 99.1426C262.226 98.4486 261.997 97.7546 261.642 97.0605C261.303 96.3496 260.948 95.7995 260.576 95.4102C259.831 94.7669 259.247 94.4453 258.824 94.4453C258.367 94.4453 257.952 94.86 257.579 95.6895C257.224 96.5189 256.979 97.4076 256.843 98.3555C256.742 98.9479 256.691 99.5488 256.691 100.158C256.691 101.817 257.105 103.408 257.935 104.932C258.561 105.795 259.094 106.227 259.535 106.227ZM272.077 109.984C271.891 109.984 271.587 109.934 271.163 109.832C270.469 109.629 269.911 108.579 269.488 106.684L269.081 104.754L268.701 102.799C268.599 102.291 268.447 101.428 268.243 100.209C268.04 99.0579 267.871 97.8984 267.736 96.7305C267.685 96.0703 267.626 95.4186 267.558 94.7754C267.406 92.9473 267.304 91.3477 267.253 89.9766V88.8848C267.321 88.3431 267.592 87.9453 268.066 87.6914C268.54 87.4206 269.081 87.2852 269.691 87.2852C270.317 87.2852 270.859 87.4206 271.316 87.6914C271.79 87.9453 272.052 88.3262 272.103 88.834C272.103 89.0202 272.111 89.1895 272.128 89.3418C272.145 89.4941 272.154 89.6549 272.154 89.8242C272.171 89.9935 272.188 90.1628 272.204 90.332L272.281 91.0684L272.382 92.4141L272.458 92.3125C273.22 91.3307 273.956 90.6536 274.667 90.2812C275.175 90.0104 275.768 89.875 276.445 89.875C277.426 89.875 278.349 90.1289 279.212 90.6367C280.042 91.2461 280.626 91.7793 280.964 92.2363C281.303 92.6764 281.633 93.2943 281.954 94.0898L282.386 95.4102L282.716 96.8828C282.801 97.3398 282.843 97.8392 282.843 98.3809C282.843 98.7533 282.775 99.1087 282.64 99.4473C282.572 99.7181 282.411 99.9128 282.158 100.031C281.921 100.15 281.751 100.251 281.65 100.336L281.294 100.615L279.999 100.768C279.864 100.666 279.737 100.59 279.618 100.539L278.958 100.336C278.857 100.319 278.772 100.294 278.704 100.26C278.654 100.226 278.552 100.107 278.4 99.9043C278.027 99.3626 277.773 98.584 277.638 97.5684C277.587 97.0605 277.503 96.5612 277.384 96.0703L277.283 95.6387C277.029 94.5553 276.614 94.0137 276.038 94.0137C275.463 94.0137 274.811 94.5384 274.083 95.5879C273.728 96.1465 273.516 96.5612 273.449 96.832C273.212 97.2891 273.068 97.6191 273.017 97.8223L272.966 97.8984C273 98.0339 273.017 98.1608 273.017 98.2793L273.398 101.275L273.525 102.164L273.652 103.23L273.779 104.094C273.779 104.145 273.787 104.187 273.804 104.221C274.058 105.998 274.185 107.217 274.185 107.877C274.1 108.689 273.787 109.273 273.245 109.629C272.873 109.866 272.484 109.984 272.077 109.984ZM290.359 109.451C289.343 109.451 288.438 109.155 287.642 108.562C286.66 107.835 285.898 106.607 285.357 104.881C285.086 104.119 284.883 103.264 284.747 102.316C284.73 102.147 284.705 101.986 284.671 101.834L284.544 100.844C284.544 100.641 284.527 100.438 284.493 100.234C284.409 99.5065 284.367 98.3301 284.367 96.7051L284.417 95.8418C284.434 95.2663 284.477 94.6823 284.544 94.0898C284.612 93.4974 284.663 93.1504 284.697 93.0488C284.46 93.0488 283.986 93.1589 283.275 93.3789L282.742 93.5059L282.411 93.5312C282.242 93.4297 282.056 93.3366 281.853 93.252C281.074 92.9811 280.685 92.651 280.685 92.2617C280.685 92.0078 280.973 91.6777 281.548 91.2715L281.599 91.2461C282.327 90.806 283.232 90.4336 284.316 90.1289C284.857 89.9935 285.188 89.9258 285.306 89.9258L285.331 89.7734L285.484 89.2402C285.602 88.5462 285.797 87.9199 286.068 87.3613C286.525 86.4642 287.066 86.0156 287.693 86.0156C288.522 86.0326 289.25 86.6081 289.876 87.7422L289.749 88.3516L289.572 89.1895L289.495 89.4941C289.495 89.528 289.487 89.5534 289.47 89.5703L289.724 89.5957C290.266 89.5957 290.714 89.6042 291.07 89.6211C291.425 89.638 291.772 89.6719 292.111 89.7227C292.822 89.7565 293.414 89.8496 293.888 90.002C294.21 90.2389 294.37 90.5352 294.37 90.8906C294.37 90.9583 294.345 91.1361 294.294 91.4238C294.243 91.6947 294.032 92.0247 293.66 92.4141C293.287 92.8034 292.864 93.0319 292.39 93.0996L291.628 93.0234C290.799 92.9219 290.198 92.8626 289.826 92.8457L289.013 92.8203L288.988 92.9473C288.954 93.3535 288.911 93.7513 288.861 94.1406C288.861 94.3776 288.844 94.5807 288.81 94.75C288.725 95.8503 288.683 96.5951 288.683 96.9844L288.632 97.5938C288.632 99.0833 288.658 100.074 288.708 100.564C288.708 100.768 288.742 101.208 288.81 101.885C288.878 102.257 288.937 102.621 288.988 102.977C289.055 103.332 289.132 103.671 289.216 103.992C289.335 104.517 289.521 105.016 289.775 105.49C290.029 105.947 290.333 106.176 290.689 106.176C290.993 106.176 291.324 105.871 291.679 105.262C291.848 104.991 291.95 104.805 291.984 104.703C292.322 103.857 292.678 103.434 293.05 103.434C293.473 103.434 293.736 104.195 293.837 105.719C293.82 105.753 293.812 105.795 293.812 105.846V105.998C293.812 106.557 293.6 107.208 293.177 107.953C292.839 108.461 292.441 108.842 291.984 109.096C291.527 109.333 290.985 109.451 290.359 109.451ZM289.47 92.8203C289.335 92.8203 289.208 92.8118 289.089 92.7949H289.013V92.8203H289.47Z" fill="white"/>
</svg>
