<svg width="470" height="97" viewBox="0 0 470 97" fill="none" xmlns="http://www.w3.org/2000/svg">
<rect x="112" width="248" height="97" rx="48.5" fill="#FFF2EA"/>
<rect x="122" y="6" width="226" height="85" rx="42.5" fill="#F98E12"/>
<path d="M226.035 65.2422C224.902 65.2422 223.779 65.0762 222.666 64.7441C220.068 63.9238 217.852 62.1562 216.016 59.4414C215.176 58.2695 214.463 56.8926 213.877 55.3105C212.9 52.6348 212.412 49.8027 212.412 46.8145C212.412 45.7012 212.51 44.4805 212.705 43.1523C212.939 41.5312 213.32 40.0078 213.848 38.582C214.766 36.2969 215.869 34.5098 217.158 33.2207C218.037 32.3809 219.004 31.6973 220.059 31.1699C221.621 30.5254 223.232 30.2031 224.893 30.2031C227.334 30.2031 229.678 30.6816 231.924 31.6387C233.467 32.3809 234.932 33.6602 236.318 35.4766C237.08 36.4531 237.754 37.6152 238.34 38.9629C238.809 40.0957 239.17 41.4043 239.424 42.8887C239.639 44.1387 239.746 45.5449 239.746 47.1074C239.688 49.1973 239.326 51.2676 238.662 53.3184C237.822 56.0137 236.543 58.4258 234.824 60.5547C234.766 60.6133 234.717 60.6816 234.678 60.7598C233.193 62.4004 231.748 63.5625 230.342 64.2461C228.955 64.9102 227.52 65.2422 226.035 65.2422ZM225.918 59.6465C227.344 59.6465 228.711 58.9043 230.02 57.4199C230.625 56.7559 231.191 55.9453 231.719 54.9883C232.285 53.9141 232.686 53.0156 232.92 52.293L233.066 51.8535C233.457 50.6426 233.721 49.5391 233.857 48.543C233.936 47.8398 233.975 47.1172 233.975 46.375C233.975 45.418 233.887 44.5098 233.711 43.6504C233.594 42.791 233.34 41.9121 232.949 41.0137L232.832 40.75C231.992 38.8945 230.869 37.5078 229.463 36.5898C228.057 35.7891 226.572 35.3887 225.01 35.3887C223.213 35.3887 221.562 36.541 220.059 38.8457C219.59 39.666 219.199 40.6426 218.887 41.7754C218.711 42.4785 218.555 43.1816 218.418 43.8848C218.281 44.7832 218.213 45.7793 218.213 46.873C218.213 48.4941 218.418 50.1543 218.828 51.8535C219.16 53.0645 219.629 54.207 220.234 55.2812C221.973 58.1914 223.867 59.6465 225.918 59.6465ZM244.99 65.4766C244.443 65.4766 243.896 65.2715 243.35 64.8613C242.822 64.4316 242.549 63.748 242.529 62.8105C242.432 62.127 242.305 61.0332 242.148 59.5293C242.012 58.0059 241.924 56.7363 241.885 55.7207L241.797 54.666L241.592 51.4727C241.436 49.3828 241.328 47.8887 241.27 46.9902C241.211 46.0918 241.182 45.3301 241.182 44.7051C241.045 42.9082 240.947 41.3848 240.889 40.1348C240.771 38.084 240.703 36.6289 240.684 35.7695L240.566 33.8066C240.508 32.3418 240.449 31.2676 240.391 30.584L240.361 29.4707C240.361 29.2363 240.381 28.9922 240.42 28.7383L240.449 28.6797C240.469 28.543 240.518 28.416 240.596 28.2988C241.494 27.5957 242.314 27.2441 243.057 27.2441C244.092 27.2441 244.746 28.2207 245.02 30.1738C245.137 30.916 245.244 31.8633 245.342 33.0156C245.42 33.6797 245.469 34.3438 245.488 35.0078L245.547 35.5352C245.586 36.6484 245.635 37.5078 245.693 38.1133C245.752 38.6992 245.801 39.2949 245.84 39.9004C245.898 41.0137 245.947 41.7656 245.986 42.1562L246.133 44.2656C246.133 44.6172 246.152 44.959 246.191 45.291V45.3203L247.686 44.002L248.623 43.123C249.092 42.6934 249.385 42.4004 249.502 42.2441C249.854 41.8926 250.107 41.6191 250.264 41.4238C250.479 41.1309 250.713 40.8672 250.967 40.6328C251.455 40.3398 251.963 40.1934 252.49 40.1934C253.721 40.1934 254.57 40.6816 255.039 41.6582C255.137 41.8535 255.186 42.0586 255.186 42.2734C255.186 42.8398 254.844 43.4648 254.16 44.1484C253.73 44.7344 253.174 45.3496 252.49 45.9941V46.0234L251.23 47.1953L250.469 47.8105L250.498 47.8691C250.889 48.2598 251.328 48.8945 251.816 49.7734C251.816 49.8125 252.08 50.3594 252.607 51.4141C253.232 52.8984 253.682 53.9434 253.955 54.5488C254.229 55.1543 254.561 55.8379 254.951 56.5996C255.537 57.5762 256.338 58.2207 257.354 58.5332C257.744 58.6504 258.037 58.8066 258.232 59.002C258.447 59.1777 258.555 59.4707 258.555 59.8809V60.1152C258.223 60.6426 257.773 61.0527 257.207 61.3457L257.09 61.375C256.914 61.4922 256.328 61.5508 255.332 61.5508C254.375 61.4531 253.418 60.9258 252.461 59.9688C251.973 59.3828 251.514 58.7676 251.084 58.123C250.869 57.752 250.654 57.3809 250.439 57.0098C250.225 56.6387 250.02 56.248 249.824 55.8379L248.682 53.377L248.066 51.9414C247.832 51.3164 247.588 50.8184 247.334 50.4473C247.295 50.3691 247.246 50.3008 247.188 50.2422L247.07 50.3008C246.934 50.4375 246.758 50.5449 246.543 50.623C246.543 51.0723 246.562 51.5312 246.602 52C246.641 52.4492 246.68 52.918 246.719 53.4062L246.953 57.4199C247.012 58.0254 247.041 58.6309 247.041 59.2363C247.1 59.7246 247.129 60.3496 247.129 61.1113C247.168 61.5801 247.188 62.0488 247.188 62.5176C247.168 63.0059 247.119 63.4844 247.041 63.9531C246.65 64.9688 245.967 65.4766 244.99 65.4766Z" fill="white"/>
</svg>
