<svg width="248" height="97" viewBox="0 0 248 97" fill="none" xmlns="http://www.w3.org/2000/svg">
<rect width="248" height="97" rx="48.5" fill="#FFF2EA"/>
<rect x="10" y="6" width="226" height="85" rx="42.5" fill="#F98E12"/>
<path d="M79.4062 34.5684C79.543 34.5488 79.6895 34.5488 79.8457 34.5684C80.0215 34.5684 80.1582 34.5879 80.2559 34.627C80.4902 34.7441 80.7148 34.9492 80.9297 35.2422C81.1641 35.5156 81.3203 35.8086 81.3984 36.1211C81.418 36.2578 81.4375 36.5898 81.457 37.1172C81.4961 37.6445 81.5254 38.2402 81.5449 38.9043C81.584 40.252 81.6523 41.7168 81.75 43.2988C82.9023 43.2598 84.1328 43.2305 85.4414 43.2109H89.1328L89.8066 43.5332C90.6855 43.9043 91.1641 44.4121 91.2422 45.0566C91.2422 45.1934 91.2324 45.3398 91.2129 45.4961C91.2129 45.6523 91.1934 45.7793 91.1543 45.877C91.0566 46.1309 90.8613 46.375 90.5684 46.6094C90.2754 46.8242 89.9824 46.9609 89.6895 47.0195C89.5527 47.0586 89.2109 47.0977 88.6641 47.1367C88.1367 47.1562 87.541 47.1758 86.877 47.1953C85.4316 47.2344 83.8301 47.3027 82.0723 47.4004C82.0918 47.752 82.1113 48.084 82.1309 48.3965C82.1699 48.8457 82.2188 49.3926 82.2773 50.0371C82.375 51.209 82.4434 52.2344 82.4824 53.1133C82.541 53.9922 82.5703 54.5098 82.5703 54.666C82.4336 55.6621 82.0039 56.3457 81.2812 56.7168C80.8516 56.9316 80.4316 56.9316 80.0215 56.7168C79.4746 56.4824 79.0645 55.9648 78.791 55.1641C78.5371 54.3633 78.3223 52.9766 78.1465 51.0039C78.0293 49.832 77.9316 48.748 77.8535 47.752C77.541 47.7715 77.2578 47.791 77.0039 47.8105C76.6523 47.8301 76.2324 47.8594 75.7441 47.8984C74.5723 47.9961 73.5469 48.0742 72.668 48.1328C71.8086 48.1914 71.291 48.2109 71.1152 48.1914C70.1387 48.0742 69.4551 47.6543 69.0645 46.9316C68.8496 46.502 68.8594 46.082 69.0938 45.6719V45.6426C69.3086 45.1152 69.8164 44.7246 70.6172 44.4707C71.4375 44.1973 72.8242 43.9629 74.7773 43.7676C75.793 43.6699 76.75 43.5918 77.6484 43.5332C77.6094 42.5371 77.5898 41.4727 77.5898 40.3398V36.6777L77.8828 35.9746C78.2539 35.0957 78.7617 34.627 79.4062 34.5684ZM104.982 62.4004C104.299 62.4004 103.645 62.2344 103.02 61.9023C102.199 61.4727 101.789 60.9746 101.789 60.4082C101.789 59.8027 102.355 59.334 103.488 59.002L103.781 58.9141C103.703 58.2109 103.664 57.6934 103.664 57.3613C103.625 56.7363 103.596 56.1113 103.576 55.4863C103.557 54.8418 103.537 54.1777 103.518 53.4941C103.459 52.2637 103.43 50.7988 103.43 49.0996L103.459 46.8438C103.459 44.7539 103.488 43.2988 103.547 42.4785C103.547 42.1855 103.576 41.4824 103.635 40.3691C103.654 39.6855 103.684 39.0117 103.723 38.3477L103.781 37.498C103.879 35.9746 104.006 34.6367 104.162 33.4844C103.107 33.1914 102.58 32.7715 102.58 32.2246C102.58 31.834 102.941 31.4238 103.664 30.9941C104.25 30.7207 105.041 30.5547 106.037 30.4961C106.369 30.4766 107.043 30.4668 108.059 30.4668C108.352 30.5059 108.635 30.5254 108.908 30.5254C109.201 30.5254 109.475 30.584 109.729 30.7012C110.158 30.9941 110.373 31.3652 110.373 31.8145C110.373 31.9316 110.324 32.1758 110.227 32.5469C110.129 32.8984 109.67 33.1914 108.85 33.4258V35.0371L108.791 38.5234C108.791 39.1875 108.771 39.8516 108.732 40.5156C108.713 40.9062 108.703 41.5898 108.703 42.5664C108.703 43.543 108.684 44.2656 108.645 44.7344V45.4082C108.625 45.8965 108.615 46.8828 108.615 48.3672C108.615 49.2461 108.625 49.8809 108.645 50.2715C108.645 51.4043 108.654 52.1953 108.674 52.6445C108.674 54.1094 108.703 55.3691 108.762 56.4238V57.4199L108.791 58.3574C109.865 58.5332 110.402 58.9922 110.402 59.7344C110.402 60.2617 110.1 60.8574 109.494 61.5215C108.928 62.0879 107.961 62.3711 106.594 62.3711L104.982 62.4004ZM114.562 63.4844C114.074 63.4844 113.537 63.3086 112.951 62.957C112.385 62.5859 112.053 61.8926 111.955 60.877C111.818 59.5879 111.75 57.6738 111.75 55.1348L111.779 54.4902C111.799 53.0059 111.857 51.4727 111.955 49.8906C111.955 49.5391 111.975 49.1777 112.014 48.8066C112.072 47.2246 112.277 45.6035 112.629 43.9434L112.98 42.625C113.234 41.7266 113.596 40.9551 114.064 40.3105C114.787 39.2363 115.773 38.6992 117.023 38.6992C117.375 38.6992 117.736 38.748 118.107 38.8457C118.85 39.1191 119.553 39.6074 120.217 40.3105C120.627 40.7598 121.086 41.3848 121.594 42.1855C122.18 43.0645 122.727 44.0312 123.234 45.0859L123.586 45.8184C123.742 46.1309 123.889 46.4531 124.025 46.7852C124.436 47.7031 124.689 48.3184 124.787 48.6309C125.178 49.5098 125.441 50.1543 125.578 50.5645L126.984 53.9629L127.102 52.2637C127.16 51.3262 127.189 50.4961 127.189 49.7734L127.219 48.7188L127.189 48.1621C127.189 47.4004 127.18 46.8926 127.16 46.6387C127.16 45.5254 127.189 44.5879 127.248 43.8262V42.5664L127.219 42.1562C127.219 41.8828 127.248 41.6094 127.307 41.3359C127.658 40.2422 128.234 39.6953 129.035 39.6953C129.68 39.6953 130.217 40.1641 130.646 41.1016C130.783 41.4727 130.881 41.8828 130.939 42.332C130.998 42.7812 131.105 43.377 131.262 44.1191C131.535 45.4082 131.711 46.6875 131.789 47.957L131.965 49.5977C132.16 50.9844 132.268 52.332 132.287 53.6406C132.287 54.0312 132.238 54.8027 132.141 55.9551L132.111 56.043C131.975 57.7617 131.535 59.1387 130.793 60.1738C130.012 61.1895 129.006 61.6973 127.775 61.6973C126.564 61.6973 125.51 61.1992 124.611 60.2031C124.006 59.6367 123.391 58.748 122.766 57.5371C122.082 56.1699 121.311 54.373 120.451 52.1465C120.412 52.0098 120.354 51.8633 120.275 51.707C120.217 51.5312 119.797 50.4277 119.016 48.3965C119.016 48.3574 119.006 48.3281 118.986 48.3086C118.654 47.332 118.264 46.4141 117.814 45.5547L117.727 45.3789L117.258 49.1289C117.258 49.2461 117.248 49.3535 117.229 49.4512C117.15 50.4473 117.092 51.4141 117.053 52.3516C117.053 52.625 117.014 53.582 116.936 55.2227C116.877 57.1953 116.828 58.5234 116.789 59.207L116.672 61.0234C116.652 61.3164 116.623 61.5996 116.584 61.873C116.33 62.9473 115.656 63.4844 114.562 63.4844ZM137.971 62.2539C136.447 62.2539 135.383 60.1641 134.777 55.9844L134.748 55.7207C134.494 54.1387 134.367 53.1133 134.367 52.6445C134.191 51.1797 134.104 49.666 134.104 48.1035L134.133 46.1113L134.162 45.9355C133.947 45.9746 133.742 45.9941 133.547 45.9941C133.273 45.9941 133.029 45.9453 132.814 45.8477C132.15 45.5742 131.75 45.2617 131.613 44.9102C131.516 44.6953 131.467 44.4805 131.467 44.2656C131.467 43.8945 131.564 43.6113 131.76 43.416C132.092 43.1035 133 42.7031 134.484 42.2148C134.699 40.7305 135.012 39.3926 135.422 38.2012C135.891 36.7949 136.564 35.4668 137.443 34.2168C138.85 32.3027 140.559 31.1016 142.57 30.6133C143.156 30.4961 143.674 30.4375 144.123 30.4375C145.08 30.5742 145.559 31.0332 145.559 31.8145C145.559 32.5371 145.158 33.1133 144.357 33.543L144.152 33.6016C143.605 33.6797 143.117 33.9043 142.688 34.2754C141.75 35.1348 141.018 36.2383 140.49 37.5859C140.061 38.6211 139.738 39.793 139.523 41.1016C141.477 41.3945 142.453 42.1172 142.453 43.2695C142.453 44.168 141.555 44.7637 139.758 45.0566L139.113 45.1738C139.094 45.623 139.084 46.082 139.084 46.5508C139.084 48.0742 139.289 50.4766 139.699 53.7578C139.953 55.5352 140.119 57.1074 140.197 58.4746C140.08 60.9941 139.338 62.2539 137.971 62.2539ZM151.066 62.2832C149.504 62.2832 148.049 61.7949 146.701 60.8184C145.686 60.0371 144.895 59.041 144.328 57.8301C143.117 55.5449 142.512 53.0352 142.512 50.3008C142.512 48.6992 142.736 47.1074 143.186 45.5254C143.225 45.4473 143.254 45.3594 143.273 45.2617C143.43 44.6953 143.625 44.1387 143.859 43.5918C145.402 40.6621 147.531 39.1973 150.246 39.1973C151.359 39.1973 152.453 39.4609 153.527 39.9883C154.602 40.5156 155.539 41.2871 156.34 42.3027C157.785 44.1387 158.703 46.2578 159.094 48.6602C159.191 49.2852 159.24 50.0078 159.24 50.8281C159.24 51.2969 159.211 51.7754 159.152 52.2637C159.035 53.5332 158.791 54.6953 158.42 55.75C157.932 56.9805 157.443 57.9766 156.955 58.7383C156.35 59.6758 155.598 60.4766 154.699 61.1406C153.527 61.9023 152.316 62.2832 151.066 62.2832ZM150.949 57.3906C151.047 57.3906 151.262 57.3223 151.594 57.1855C151.926 57.0488 152.395 56.4336 153 55.3398C153.195 55.0273 153.361 54.6953 153.498 54.3438V54.2852C153.85 53.3672 154.074 52.5566 154.172 51.8535L154.201 51.7656C154.26 51.4336 154.289 51.1113 154.289 50.7988C154.289 50.1934 154.25 49.666 154.172 49.2168C154.055 48.416 153.791 47.6152 153.381 46.8145C152.99 45.9941 152.58 45.3594 152.15 44.9102C151.291 44.168 150.617 43.7969 150.129 43.7969C149.602 43.7969 149.123 44.2754 148.693 45.2324C148.283 46.1895 148 47.2148 147.844 48.3086C147.727 48.9922 147.668 49.6855 147.668 50.3887C147.668 52.3027 148.146 54.1387 149.104 55.8965C149.826 56.8926 150.441 57.3906 150.949 57.3906ZM168.996 64.6562C166.77 64.6562 164.807 64.0605 163.107 62.8691C162.209 62.2441 161.486 61.5508 160.939 60.7891C160.334 59.8711 160.012 58.9629 159.973 58.0645C160.227 56.8926 160.744 56.3066 161.525 56.3066C161.564 56.3066 161.799 56.3262 162.229 56.3652C162.678 56.3848 163.342 56.7559 164.221 57.4785C164.592 57.9863 164.982 58.416 165.393 58.7676L165.568 58.9141C165.822 59.1289 166.086 59.3047 166.359 59.4414C167.238 59.9492 168.098 60.2031 168.938 60.2031C169.738 60.2031 170.451 59.9199 171.076 59.3535L171.223 58.7969C171.242 58.6992 171.252 58.5918 171.252 58.4746C171.252 58.1035 171.057 57.6445 170.666 57.0977C170.373 56.6875 169.875 56.209 169.172 55.6621L168.879 55.3984L168.059 54.7832L166.945 53.9922L166.506 53.7285C166.232 53.5527 165.939 53.377 165.627 53.2012C165.393 53.084 164.934 52.791 164.25 52.3223L164.104 52.2051C163.674 51.9121 163.254 51.5898 162.844 51.2383C161.926 50.4375 161.193 49.5098 160.646 48.4551C160.119 47.4004 159.855 46.2578 159.855 45.0273C159.855 43.7578 160.197 42.5078 160.881 41.2773C161.545 40.125 162.385 39.2266 163.4 38.582C164.436 37.918 165.656 37.5859 167.062 37.5859C168.449 37.5859 169.68 37.9668 170.754 38.7285C171.477 39.3145 172.014 40.0176 172.365 40.8379C172.658 41.4629 172.805 42.0879 172.805 42.7129C172.805 43.5723 172.521 44.3438 171.955 45.0273C171.35 45.5547 170.832 45.8184 170.402 45.8184C170.383 45.8184 170.256 45.8086 170.021 45.7891C169.787 45.7695 169.367 45.3887 168.762 44.6465C168.684 44.5488 168.645 44.4414 168.645 44.3242V43.9141V43.5039C168.645 43.3281 168.635 43.2305 168.615 43.2109C168.557 43.0938 168.518 43.0254 168.498 43.0059C168.479 42.9668 168.459 42.9375 168.439 42.918C168.42 42.8984 168.4 42.8789 168.381 42.8594C167.99 42.4492 167.629 42.2441 167.297 42.2441C166.613 42.2441 166.076 42.625 165.686 43.3867C165.451 43.8945 165.334 44.3633 165.334 44.793C165.334 45.0469 165.393 45.3105 165.51 45.584C165.705 46.1504 166.242 46.7656 167.121 47.4297C167.258 47.5664 167.648 47.8301 168.293 48.2207C168.449 48.2988 168.596 48.3867 168.732 48.4844L170.109 49.3047C171.301 50.0859 172.062 50.6133 172.395 50.8867C173.391 51.668 174.201 52.4395 174.826 53.2012C176.057 54.7637 176.672 56.4434 176.672 58.2402C176.672 58.7285 176.613 59.2168 176.496 59.7051C175.969 61.8926 174.553 63.3867 172.248 64.1875C171.213 64.5 170.129 64.6562 168.996 64.6562Z" fill="white"/>
</svg>
