<svg width="110" height="63" viewBox="0 0 110 63" fill="none" xmlns="http://www.w3.org/2000/svg">
<path d="M112.397 59.1449L112.397 59.1433C108.974 41.0701 98.9407 30.8864 87.8824 25.3218C76.9478 19.8196 65.123 18.8766 57.911 18.9146L57.9006 18.9147C57.7351 18.9163 57.5812 18.7801 57.5812 18.5859V3.52459C57.5812 -1.10132 52.5735 -4.02057 48.545 -1.69112C48.5443 -1.69073 48.5436 -1.69035 48.543 -1.68996L0.511596 26.0472L0.509581 26.0484C-3.49777 28.3676 -3.52092 34.166 0.515278 36.4808C0.51679 36.4817 0.518303 36.4825 0.519817 36.4834L48.543 64.2159C52.5718 66.5475 57.5812 63.628 57.5812 59.0013V44.6212C57.5812 44.4463 57.7338 44.2782 57.9487 44.2888C83.8562 45.7916 96.7455 55.6841 103 63.4819C106.51 67.8637 113.419 64.5569 112.397 59.1449Z" fill="#F98E12" stroke="#FFF2EA" stroke-width="5"/>
</svg>
