<svg width="110" height="63" viewBox="0 0 110 63" fill="none" xmlns="http://www.w3.org/2000/svg">
<path d="M112.397 59.1449L112.397 59.1433L49.7952 0.473818L48.545 -1.69112L48.543 -1.68996L0.511596 26.0472L0.50958 26.0484C-3.49769 28.3675 -3.52093 34.1658 0.515036 36.4807C0.516629 36.4816 0.518224 36.4825 0.519818 36.4834L48.543 64.2159C48.5436 64.2163 48.5443 64.2167 48.545 64.217C52.5735 66.5465 57.5812 63.6272 57.5812 59.0013V44.6212C57.5812 44.4464 57.7336 44.2784 57.9483 44.2887C83.8561 45.7915 96.7455 55.684 103 63.4819C106.51 67.8637 113.419 64.5569 112.397 59.1449Z" fill="#F98E12" stroke="#FFF2EA" stroke-width="5"/>
</svg>
