
<svg width="517" height="261" viewBox="0 0 517 261" fill="none" xmlns="http://www.w3.org/2000/svg">
<g clip-path="url(#clip0)">
<path d="M22.1424 205.191C33.9486 225.099 52.3723 236.981 71.266 242.536C90.1597 248.091 109.796 245.572 129.094 247.725C262.515 262.652 338.955 245.619 443.885 244.567C459.95 244.407 476.841 243.965 490.725 233.503C504.608 223.041 503.969 178.674 504.524 160.363C504.89 148.18 492.003 164.01 482.707 162.13C473.41 160.25 463.954 161.97 454.63 163.53C402.131 172.291 349.144 175.741 296.214 175.449C228.253 175.073 160.311 168.531 93.0455 155.879C93.3557 151.433 99.6066 155.371 98.2624 159.489C96.9276 163.606 92.7353 164.32 89.2949 164.414C70.3448 159.573 12.8554 117.227 12.7708 142.7C12.6956 163.493 13.4381 190.301 22.1424 205.191Z" fill="#299AC1"/>
<path d="M504.646 167.46C504.402 181.945 499.57 197.078 487.642 204.41C487.134 204.739 486.608 205.04 486.072 205.322C478.449 209.373 469.453 209.702 460.824 209.937C442.739 210.436 424.663 210.934 406.577 211.432C401.99 211.554 397.403 211.686 392.816 211.808C378.387 212.203 363.968 212.607 349.539 213.002C334.001 213.425 318.454 213.857 302.916 214.28C291.429 214.6 279.933 214.91 268.447 215.23C229.795 216.292 190.964 217.335 152.387 215.38C131.378 214.327 110.445 212.372 89.6427 209.054C85.2812 208.358 80.8633 207.55 76.4547 206.572C53.9609 201.647 31.7867 192.595 20.1778 173.316C19.5574 172.282 18.9747 171.238 18.4389 170.176C15.2993 163.972 13.5039 157.242 12.9306 150.342C12.9118 150.117 12.893 149.901 12.8742 149.675C12.6674 146.874 12.6486 144.045 12.8272 141.206C13.5979 128.572 18.0723 115.93 25.3102 105.524C27.8105 101.924 30.7527 98.2767 34.052 94.7611C36.7498 91.8754 39.6919 89.093 42.8127 86.4987C53.5285 77.597 66.3969 70.9889 79.3311 70.8573C98.4034 70.6693 116.517 73.2919 136.003 71.9289C141.116 71.5717 146.23 71.2333 151.353 70.9137C172.944 69.5319 194.554 68.4321 216.174 67.6238C224.766 67.3042 233.348 67.0222 241.939 66.7966C242.841 66.7684 243.753 66.7496 244.656 66.7214C250.155 66.5804 255.644 66.4488 261.134 66.3548C265.768 66.2514 270.402 66.1762 275.036 66.1104C283.355 65.9882 291.664 65.913 299.983 65.8848C324.141 65.7814 348.298 66.0352 372.447 66.6368C373.828 66.6744 375.21 66.712 376.592 66.7496C393.079 67.2196 409.802 68.1125 425.734 71.8161C433.517 73.6115 441.103 76.0742 448.379 79.477C452.439 81.3757 456.35 83.5753 460.081 86.0381C464.302 88.8204 468.297 91.9412 472.038 95.3533C490.687 112.367 502.917 136.543 504.524 161.791C504.646 163.653 504.693 165.551 504.646 167.46Z" fill="#29ABE2"/>
<path opacity="0.8" d="M311.329 114.632C306.864 115.525 295.237 119.642 286.513 121.24C291.101 124.342 295.612 127.567 300.077 130.819C311.16 138.893 322.082 147.193 333.005 155.503C357.529 174.143 382.053 192.792 406.578 211.432C401.991 211.554 397.403 211.686 392.816 211.808C372.466 190.489 349.041 172.141 323.464 157.505C311.263 150.53 298.573 144.383 286.946 136.487C276.653 129.503 267.281 121.193 256.697 114.661C245.492 107.752 232.972 103.014 220.038 100.58C216.325 99.884 197.036 99.3858 189.545 98.0416C176.432 102.018 162.962 104.81 149.294 105.092C137.394 105.336 125.447 103.682 113.622 105.063C88.468 107.996 67.9481 123.139 46.4601 135.65C48.622 136.628 50.69 137.69 52.382 138.226C65.711 142.428 79.8483 143.556 93.7507 143.678C114.6 143.866 135.627 141.939 156.194 145.379C169.109 147.541 181.583 151.781 193.887 156.274C208.946 161.773 223.892 167.695 238.104 175.13C249.713 181.193 260.805 188.261 271.21 196.214C277.555 201.055 284.079 207.503 286.372 214.731L278.223 214.957C245.718 182.095 202.394 160.034 156.645 153.313C130.288 149.449 103.545 150.512 77.066 147.974C65.3444 146.855 48.6596 146.413 38.2634 140.388C38.2164 140.36 38.1694 140.332 38.1224 140.303C34.1745 142.409 30.1701 144.364 26.0812 146.075C22.669 147.494 17.3017 149.384 12.9308 150.342C12.912 150.117 12.8932 149.901 12.8744 149.675C12.6676 146.874 12.6488 144.045 12.8274 141.206C24.9438 131.326 42.2113 126.063 55.8787 118.74C74.2742 108.889 93.0927 98.7184 113.998 95.5977C129.075 93.3605 144.482 94.9021 159.625 93.2007C176.15 91.3489 191.979 85.6808 207.62 80.0503C219.962 75.6042 232.314 71.1675 244.656 66.7213C250.155 66.5803 255.644 66.4487 261.134 66.3547C242.814 77.1082 223.506 86.1696 203.513 93.3793C211.578 93.6707 219.991 94.7517 222.472 95.0901C235.369 96.8478 248.012 100.467 259.855 105.881C265.806 108.607 271.53 111.747 277.104 115.168C280.507 113.57 285.714 112.527 287.397 112.188C298.667 109.942 309.975 107.864 321.283 105.787C346.108 101.228 371.056 96.5847 396.116 93.4545C417.378 90.4654 438.706 87.9932 460.082 86.038C464.302 88.8204 468.297 91.9411 472.038 95.3533C429.391 94.6201 386.923 100.533 345.037 108.165C333.785 110.214 322.552 112.414 311.329 114.632Z" fill="white"/>
</g>
<mask id="path-4-outside-1" maskUnits="userSpaceOnUse" x="4" y="54.866" width="510" height="206" fill="black">
<rect fill="white" x="4" y="54.866" width="510" height="206"/>
<path fill-rule="evenodd" clip-rule="evenodd" d="M504.501 172.102C504.76 169.894 504.904 167.671 504.941 165.463C504.988 163.555 504.941 161.656 504.819 159.795C504.81 159.651 504.8 159.507 504.79 159.362C504.799 159.023 504.809 158.69 504.819 158.366C504.863 156.885 504.712 155.818 504.395 155.083C501.66 131.558 489.819 109.309 472.333 93.357C468.592 89.9448 464.597 86.8241 460.376 84.0417C456.645 81.579 452.734 79.3794 448.674 77.4806C441.398 74.0779 433.812 71.6151 426.029 69.8197C410.097 66.1162 393.374 65.2232 376.887 64.7532L372.742 64.6404C348.593 64.0388 324.436 63.785 300.278 63.8884C291.959 63.9166 283.65 63.9918 275.331 64.114C270.697 64.1798 266.063 64.255 261.429 64.3584C255.939 64.4524 250.449 64.584 244.951 64.725C244.499 64.7391 244.046 64.7509 243.592 64.7626C243.139 64.7744 242.685 64.7861 242.234 64.8002C233.643 65.0258 225.061 65.3078 216.469 65.6274C194.849 66.4358 173.239 67.5356 151.648 68.9174C146.525 69.237 141.411 69.5754 136.298 69.9325C124.87 70.7319 113.913 70.1604 102.959 69.589C95.2354 69.1861 87.5127 68.7832 79.626 68.861C66.6918 68.9926 53.8234 75.6007 43.1076 84.5023C39.9868 87.0967 37.0447 89.879 34.3469 92.7648C31.0476 96.2803 28.1054 99.9275 25.6051 103.528C18.3672 113.933 13.8929 126.576 13.1221 139.209C12.9791 141.482 12.9626 143.748 13.0678 145.999C13.1686 165.867 14.4558 189.541 22.4372 203.194C34.2434 223.103 52.6671 234.985 71.5608 240.54C83.5315 244.06 95.8003 244.338 108.092 244.617C115.201 244.778 122.318 244.94 129.389 245.729C218.336 255.68 281.959 251.427 345.581 247.174C377.392 245.048 409.203 242.921 444.18 242.57C460.245 242.41 477.136 241.969 491.02 231.507C502.109 223.151 503.933 193.165 504.501 172.102Z"/>
</mask>
<path d="M504.941 165.463L495.944 165.242L495.943 165.276L495.942 165.311L504.941 165.463ZM504.501 172.102L495.562 171.053L495.515 171.455L495.504 171.86L504.501 172.102ZM504.819 159.795L495.837 160.367L495.838 160.376L495.838 160.385L504.819 159.795ZM504.79 159.362L495.793 159.12L495.782 159.55L495.811 159.978L504.79 159.362ZM504.819 158.366L513.814 158.639L513.815 158.637L504.819 158.366ZM504.395 155.083L495.455 156.122L495.608 157.434L496.13 158.646L504.395 155.083ZM472.333 93.357L478.399 86.7081L478.398 86.7073L472.333 93.357ZM460.376 84.0417L455.419 91.5534L455.423 91.5558L460.376 84.0417ZM448.674 77.4806L444.861 85.633L444.861 85.6334L448.674 77.4806ZM426.029 69.8197L423.992 78.586L423.999 78.5877L424.006 78.5894L426.029 69.8197ZM376.887 64.7532L377.143 55.7569L377.132 55.7566L376.887 64.7532ZM372.742 64.6404L372.986 55.6438L372.976 55.6435L372.966 55.6432L372.742 64.6404ZM300.278 63.8884L300.309 72.8884L300.317 72.8884L300.278 63.8884ZM275.331 64.114L275.459 73.1131L275.463 73.1131L275.331 64.114ZM261.429 64.3584L261.583 73.3571L261.606 73.3567L261.629 73.3562L261.429 64.3584ZM244.951 64.725L244.72 55.728L244.695 55.7286L244.669 55.7294L244.951 64.725ZM243.592 64.7626L243.825 73.7596H243.825L243.592 64.7626ZM242.234 64.8002L242.47 73.7971L242.493 73.7965L242.515 73.7958L242.234 64.8002ZM216.469 65.6274L216.134 56.6336L216.133 56.6337L216.469 65.6274ZM151.648 68.9174L152.208 77.8999L152.215 77.8995L152.222 77.899L151.648 68.9174ZM136.298 69.9325L135.671 60.9544L135.67 60.9545L136.298 69.9325ZM102.959 69.589L103.428 60.6012L102.959 69.589ZM79.626 68.861L79.5373 59.8614L79.5344 59.8614L79.626 68.861ZM43.1076 84.5023L37.3567 77.5794L37.3541 77.5815L43.1076 84.5023ZM34.3469 92.7648L40.9095 98.9238L40.9155 98.9174L40.9214 98.911L34.3469 92.7648ZM25.6051 103.528L32.9935 108.667L32.9972 108.662L25.6051 103.528ZM13.1221 139.209L22.1043 139.775L22.1049 139.766L22.1054 139.758L13.1221 139.209ZM13.0678 145.999L22.0677 145.953L22.0667 145.766L22.058 145.578L13.0678 145.999ZM22.4372 203.194L14.6674 207.736L14.6816 207.761L14.696 207.785L22.4372 203.194ZM71.5608 240.54L74.0996 231.905H74.0996L71.5608 240.54ZM108.092 244.617L108.297 235.619L108.092 244.617ZM129.389 245.729L130.389 236.784L130.386 236.784L129.389 245.729ZM345.581 247.174L346.181 256.154L345.581 247.174ZM444.18 242.57L444.091 233.571H444.09L444.18 242.57ZM491.02 231.507L485.603 224.319L485.603 224.319L491.02 231.507ZM495.942 165.311C495.91 167.232 495.785 169.155 495.562 171.053L513.439 173.152C513.735 170.633 513.898 168.11 513.94 165.615L495.942 165.311ZM495.838 160.385C495.944 161.999 495.984 163.626 495.944 165.242L513.938 165.685C513.993 163.484 513.938 161.314 513.799 159.205L495.838 160.385ZM495.811 159.978C495.82 160.107 495.829 160.237 495.837 160.367L513.801 159.223C513.791 159.065 513.78 158.906 513.769 158.747L495.811 159.978ZM513.787 159.605C513.796 159.273 513.805 158.951 513.814 158.639L495.823 158.094C495.813 158.429 495.803 158.772 495.793 159.12L513.787 159.605ZM513.815 158.637C513.875 156.631 513.74 154.025 512.66 151.52L496.13 158.646C496 158.345 495.925 158.099 495.883 157.932C495.84 157.766 495.824 157.658 495.82 157.624C495.813 157.571 495.834 157.706 495.823 158.096L513.815 158.637ZM466.267 100.006C482.229 114.568 492.983 134.856 495.455 156.122L513.335 154.044C510.338 128.26 497.408 104.051 478.399 86.7081L466.267 100.006ZM455.423 91.5558C459.24 94.0726 462.865 96.9027 466.268 100.007L478.398 86.7073C474.319 82.987 469.953 79.5755 465.33 76.5276L455.423 91.5558ZM444.861 85.6334C448.515 87.3417 452.043 89.3254 455.419 91.5534L465.334 76.5301C461.246 73.8325 456.954 71.4171 452.486 69.3279L444.861 85.6334ZM424.006 78.5894C431.282 80.2679 438.252 82.5422 444.861 85.633L452.486 69.3282C444.544 65.6136 436.342 62.9624 428.052 61.05L424.006 78.5894ZM376.63 73.7496C393.066 74.2181 409.007 75.1028 423.992 78.586L428.067 61.0535C411.186 57.1296 393.682 56.2283 377.143 55.7569L376.63 73.7496ZM372.497 73.6371L376.642 73.7499L377.132 55.7566L372.986 55.6438L372.497 73.6371ZM300.317 72.8884C324.386 72.7853 348.456 73.0382 372.517 73.6376L372.966 55.6432C348.731 55.0395 324.486 54.7847 300.24 54.8885L300.317 72.8884ZM275.463 73.1131C283.748 72.9914 292.024 72.9165 300.309 72.8884L300.248 54.8885C291.895 54.9168 283.551 54.9923 275.199 55.115L275.463 73.1131ZM261.629 73.3562C266.228 73.2536 270.835 73.1788 275.459 73.1131L275.203 55.1149C270.558 55.1809 265.897 55.2565 261.228 55.3607L261.629 73.3562ZM245.181 73.7221C250.673 73.5813 256.132 73.4505 261.583 73.3571L261.274 55.3598C255.746 55.4544 250.226 55.5868 244.72 55.728L245.181 73.7221ZM243.825 73.7596C244.275 73.748 244.752 73.7356 245.232 73.7206L244.669 55.7294C244.246 55.7426 243.817 55.7538 243.359 55.7656L243.825 73.7596ZM242.515 73.7958C242.938 73.7826 243.368 73.7715 243.825 73.7596L243.359 55.7656C242.91 55.7773 242.432 55.7896 241.953 55.8046L242.515 73.7958ZM216.804 74.6212C225.369 74.3026 233.918 74.0217 242.47 73.7971L241.998 55.8033C233.367 56.03 224.752 56.3131 216.134 56.6336L216.804 74.6212ZM152.222 77.899C173.736 76.5222 195.266 75.4265 216.805 74.6211L216.133 56.6337C194.432 57.4451 172.743 58.549 151.073 59.9357L152.222 77.899ZM136.925 78.9107C142.016 78.555 147.108 78.2181 152.208 77.8999L151.087 59.9348C145.942 60.2558 140.806 60.5957 135.671 60.9544L136.925 78.9107ZM102.49 78.5768C113.37 79.1443 124.864 79.7543 136.926 78.9106L135.67 60.9545C124.875 61.7095 114.457 61.1765 103.428 60.6012L102.49 78.5768ZM79.7147 77.8605C87.2773 77.786 94.7241 78.1716 102.49 78.5768L103.428 60.6012C95.7467 60.2005 87.7481 59.7805 79.5373 59.8614L79.7147 77.8605ZM48.8585 91.4253C58.7541 83.2049 69.6717 77.9627 79.7176 77.8605L79.5344 59.8614C63.7119 60.0224 48.8927 67.9964 37.3567 77.5794L48.8585 91.4253ZM40.9214 98.911C43.3635 96.2988 46.0316 93.7754 48.861 91.4231L37.3541 77.5815C33.9421 80.418 30.7259 83.4593 27.7724 86.6186L40.9214 98.911ZM32.9972 108.662C35.24 105.432 37.9035 102.127 40.9095 98.9238L27.7844 86.6058C24.1917 90.4339 20.9709 94.4227 18.213 98.3937L32.9972 108.662ZM22.1054 139.758C22.7733 128.811 26.6758 117.75 32.9935 108.667L18.2167 98.3884C10.0586 110.117 5.01246 124.341 4.13878 138.661L22.1054 139.758ZM22.058 145.578C21.968 143.653 21.9822 141.716 22.1043 139.775L4.13983 138.644C3.97605 141.248 3.95725 143.843 4.07762 146.419L22.058 145.578ZM4.06792 146.044C4.11894 156.102 4.46822 167.432 5.87439 178.103C7.25839 188.606 9.76869 199.357 14.6674 207.736L30.2069 198.652C27.1243 193.379 25.0003 185.466 23.7201 175.751C22.4621 166.205 22.1174 155.763 22.0677 145.953L4.06792 146.044ZM14.696 207.785C27.8584 229.981 48.3435 243.094 69.022 249.174L74.0996 231.905C56.9907 226.875 40.6283 216.225 30.1784 198.604L14.696 207.785ZM69.022 249.174C82.3225 253.085 95.7901 253.34 107.888 253.615L108.297 235.619C95.8106 235.336 84.7405 235.034 74.0996 231.905L69.022 249.174ZM107.888 253.615C115.064 253.778 121.781 253.936 128.391 254.673L130.386 236.784C122.854 235.944 115.339 235.779 108.297 235.619L107.888 253.615ZM128.388 254.673C218.184 264.719 282.485 260.412 346.181 256.154L344.981 238.194C281.433 242.442 218.488 246.641 130.389 236.784L128.388 254.673ZM346.181 256.154C378.017 254.026 409.585 251.918 444.271 251.57L444.09 233.571C408.822 233.925 376.767 236.069 344.981 238.194L346.181 256.154ZM444.27 251.57C459.953 251.414 479.857 251.188 496.436 238.694L485.603 224.319C474.415 232.75 460.537 233.407 444.091 233.571L444.27 251.57ZM496.436 238.694C501.077 235.197 504.053 230.035 506.072 225.026C508.141 219.892 509.562 214.015 510.577 208.088C512.606 196.237 513.212 182.926 513.497 172.345L495.504 171.86C495.221 182.342 494.632 194.555 492.835 205.051C491.936 210.298 490.786 214.8 489.377 218.297C487.917 221.919 486.507 223.638 485.603 224.319L496.436 238.694Z" fill="#FFF2EA" mask="url(#path-4-outside-1)"/>
<g clip-path="url(#clip1)">
<path d="M67.5468 57.9946C77.002 57.2633 90.9535 56.0699 92.3418 64.755C93.6471 72.902 95.4567 78.0827 87.3828 79.2485C79.3088 80.4143 57.9188 78.7863 49.762 78.6069C37.7789 78.3448 36.5772 81.9664 35.3616 89.6857C35.1268 91.1896 33.1515 91.7346 31.6389 91.5897C26.818 91.1275 20.9266 91.3207 16.6928 92.3623C11.6302 93.6109 6.83698 97.5016 6.20156 102.696C5.44183 108.898 10.0348 116.852 3.68753 120.059C2.16115 120.832 1.06299 122.267 0.676213 123.943C-0.767285 130.207 0.323971 130.028 1.7951 135.45C3.74969 142.631 12.3416 140.403 19.7249 141.03C42.6827 142.983 65.751 143.286 88.7848 143.583C110.948 143.873 146.925 145.742 169.089 146.032C241.761 146.984 299.218 152.723 371.593 146.032C413.109 142.196 456.393 135.036 489.497 109.594C502.599 99.5228 514.126 85.8916 516.73 69.5287C517.186 66.6796 517.248 63.4305 515.321 61.2851C513.484 59.2363 510.466 58.8913 507.731 58.7051C487.494 57.3668 467.14 57.9394 446.979 60.2089C440.356 60.954 433.332 61.8232 427.295 58.9879C421.259 56.1527 417.225 47.9712 421.121 42.5422C423.331 39.4655 427.357 38.1341 429.595 35.085C434.444 28.4695 427.965 19.2394 420.838 15.2108C396.16 1.24842 365.287 11.9478 337.135 8.80906C334.808 8.54692 332.37 8.13991 330.56 6.65676C329.006 5.38745 328.081 3.44901 326.465 2.26938C324.482 0.820723 321.851 0.751739 319.399 0.737942C270.679 0.482702 221.96 0.241258 173.24 -0.000185278C167.341 -0.0277788 159.944 0.972487 158.156 6.60847C156.857 10.6992 159.433 14.9762 159.537 19.267C159.682 25.2962 154.757 30.4976 149.142 32.6223C143.527 34.747 137.332 34.4711 131.337 34.1606C115.424 33.3397 99.504 32.5878 83.591 31.7048C73.7628 31.1598 62.2217 28.9248 52.5247 31.422C44.5613 33.4708 39.3398 39.2171 42.2268 48.0609C45.8114 59.0845 58.1813 57.9946 67.5468 57.9946Z" fill="#FFF2EA"/>
<path d="M58.5962 107.346C52.1109 106.725 45.584 106.725 39.0987 107.318C37.8555 107.436 36.5639 107.608 35.5417 108.319C33.594 109.664 33.2901 112.368 33.1727 114.727C32.9448 119.128 32.7169 123.53 32.482 127.931C32.4406 128.779 32.3992 129.669 32.779 130.428C33.5664 132.028 35.6937 132.304 37.4756 132.373C47.3867 132.767 57.2978 133.16 67.2089 133.56C76.6641 133.939 86.1125 133.277 95.5677 133.408C175.368 134.512 232.023 139.154 300.662 138.14C349.402 137.416 398.564 134.94 445.675 122.44C464.412 117.466 484.021 109.954 495.354 94.4598C495.886 93.7286 495.182 92.7283 494.311 92.9905C471.236 99.7923 446.952 101.489 422.924 103.145C380.469 106.07 337.992 108.995 295.44 109.671C274.914 109.995 254.38 109.802 233.853 109.664C176.431 109.278 115.749 112.823 58.5962 107.346Z" fill="#013507"/>
<path d="M65.1923 83.6705C59.1075 83.229 52.9882 83.2083 46.9242 83.905C46.0746 84.0016 45.2458 84.174 44.5413 84.5259C42.6075 85.4985 42.3105 87.4439 42.1862 89.1478C41.9583 92.321 41.7303 95.4943 41.5024 98.6676C41.461 99.2746 41.4264 99.9162 41.7994 100.468C42.5868 101.62 44.6933 101.82 46.4614 101.875C56.3034 102.158 66.1524 102.448 75.9944 102.731C85.3875 103 94.7875 102.82 104.167 102.62C178.124 101.034 241.886 104.655 310.034 102.724C364.121 101.192 383.446 103.786 451.912 94.7079C470.069 92.3003 488.717 86.2298 500.093 75.6614C500.935 74.8819 500.203 73.4815 499.077 73.7161C476.499 78.4139 452.789 79.6211 429.313 80.7938C387.148 82.9047 344.955 85.0156 302.693 85.4985C282.304 85.7331 261.915 85.5882 241.52 85.4916C183.725 85.2226 122.615 87.8509 65.1923 83.6705Z" fill="#F98E12"/>
<path d="M410.299 77.8277C431.709 77.8277 453.113 76.6136 474.413 74.3854C478.454 73.9646 487.736 73.0195 488.351 71.2467C490.513 70.3982 452.754 70.7638 434.534 71.0742C426.792 71.2053 402.915 69.3841 396.105 72.9506C390.78 75.7306 401.741 77.8277 410.299 77.8277Z" fill="#D86C00"/>
<path d="M335.589 71.1432C335.458 74.3096 335.623 78.1382 337.972 79.7179C339.125 80.4905 340.527 80.4767 341.86 80.4492C353.975 80.1594 366.082 79.8766 378.196 79.5869C381.518 79.511 384.889 79.4213 388.087 78.3658C388.667 78.1727 389.316 77.8623 389.489 77.1931C389.73 76.2756 388.943 75.4685 388.252 74.9373C382.506 70.5086 377.126 65.4245 372.215 59.7816C370.516 57.8293 368.858 55.8012 366.876 54.256C361.095 49.7444 352.103 49.3305 345.286 49.3443C342.171 49.3512 337.419 49.7237 336.3 53.4144C334.857 58.2363 335.803 65.9832 335.589 71.1432Z" fill="#D86C00"/>
<path d="M170.471 82.7118C211.123 81.7805 252.377 81.5667 293.299 82.0841C305.379 82.2358 319.924 82.2703 326.693 80.6009C329.981 79.7869 330.478 78.759 330.768 77.7864C332.64 71.5157 330.381 65.2382 328.123 58.9745C327.722 57.8707 327.211 56.7049 323.468 55.7943C317.307 54.2905 304.909 53.9869 293.983 53.8628C250.257 53.3523 206.303 53.3868 162.604 53.9593C152.859 54.0904 141.987 55.8564 136.324 55.7046C128.499 55.4977 131.524 67.4457 131.13 71.6123C130.612 77.2276 124.313 83.5603 170.471 82.7118Z" fill="#D86C00"/>
<path d="M199.189 37.341C230.207 36.5822 261.694 36.9202 292.92 37.1065C302.14 37.1616 313.232 37.1754 318.405 36.5615C320.912 36.2649 321.292 35.8854 321.513 35.5198C322.943 33.202 321.216 30.8841 319.496 28.5663C319.193 28.1593 318.799 27.7316 315.946 27.3935C311.243 26.8348 301.788 26.7244 293.444 26.683C260.078 26.4967 226.532 26.5036 193.187 26.7175C185.748 26.7658 177.336 26.9313 173.137 27.3659C169.152 27.7729 170.464 31.7188 170.167 33.2572C169.766 35.3336 168.067 38.1067 199.189 37.341Z" fill="#013507"/>
<path d="M386.816 40.8247C388.708 40.4108 390.629 40.3143 392.535 40.5419C393.094 40.6109 393.771 40.6247 394.089 39.8797C394.241 39.521 394.268 39.0588 394.275 38.6242C394.365 35.8303 394.255 33.0365 394.151 30.2426C394.13 29.7528 394.109 29.2355 393.937 28.8285C393.647 28.1593 393.073 28.0282 392.562 27.9662C390.525 27.7385 388.481 27.7523 386.443 28.0075C385.987 28.0627 385.476 28.1869 385.221 28.7871C384.564 30.3185 385.055 34.0298 385.041 35.8855C385.02 38.4034 384.668 41.2042 386.816 40.8247Z" fill="#D86C00"/>
<path d="M399.835 40.8247C401.727 40.4108 403.647 40.3143 405.554 40.5419C406.113 40.6109 406.79 40.6247 407.108 39.8797C407.26 39.521 407.287 39.0588 407.294 38.6242C407.384 35.8303 407.273 33.0365 407.17 30.2426C407.149 29.7528 407.128 29.2355 406.956 28.8285C406.666 28.1593 406.092 28.0282 405.581 27.9662C403.544 27.7385 401.499 27.7523 399.462 28.0075C399.006 28.0627 398.495 28.1869 398.239 28.7871C397.583 30.3185 398.074 34.0298 398.06 35.8855C398.039 38.4034 397.687 41.2042 399.835 40.8247Z" fill="#D86C00"/>
<path d="M344.83 40.8247C352.876 40.4108 361.047 40.3143 369.149 40.5419C371.538 40.6109 374.418 40.6247 375.758 39.8797C376.408 39.521 376.504 39.0588 376.566 38.6242C376.939 35.8303 376.49 33.0365 376.041 30.2426C375.966 29.7528 375.862 29.2355 375.123 28.8285C373.9 28.1593 371.449 28.0282 369.287 27.9662C360.626 27.7385 351.923 27.7523 343.276 28.0075C341.349 28.0627 339.16 28.1869 338.075 28.7871C335.292 30.3185 337.385 34.0298 337.302 35.8855C337.198 38.4034 335.693 41.2042 344.83 40.8247Z" fill="#F98E12"/>
<path d="M67.5888 41.2871L55.0808 41.3423C52.9121 41.3492 51.144 41.8114 51.0404 42.3977C50.7158 44.1706 50.3981 45.9504 50.0735 47.7233C49.9768 48.2544 49.9354 48.8339 51.1509 49.2547C52.6013 49.7583 55.2604 49.8342 57.6156 49.8687C78.4185 50.1929 99.3044 50.4412 120.073 49.9859C128.568 49.7997 138.679 49.9928 147.202 49.9859C154.054 49.979 159.241 49.6686 166.078 49.7928C214.439 50.6551 258.856 49.5169 311.298 50.3516C316.554 50.4343 321.859 50.5792 326.956 50.2274C328.227 50.1377 329.414 49.9928 330.174 49.7169C331.072 49.3858 331.134 48.9443 331.155 48.5304C331.252 46.8196 331.355 45.1157 331.452 43.4049C331.48 42.9703 331.473 42.5012 330.554 42.1425C328.344 41.2733 322.542 41.6044 320.201 41.5009C315.746 41.3078 311.319 41.2802 306.809 41.3285C251.673 41.9355 199.113 40.204 145.282 41.156C139.163 41.2664 133.064 41.4388 126.945 41.5423C120.936 41.6458 114.913 41.6734 108.891 41.7079C96.4588 41.77 80.0209 41.2388 67.5888 41.2871Z" fill="#F98E12"/>
<path d="M385.78 65.8798C386.719 66.749 387.679 67.6251 388.826 68.1976C390.801 69.191 393.115 69.1703 395.332 69.1358C399.572 69.0599 403.806 68.9841 408.047 68.9151C408.931 68.9013 409.884 68.8599 410.568 68.3011C411.466 67.5699 411.556 66.2592 411.576 65.1003C411.666 59.5747 411.749 54.049 411.839 48.5234C409.297 46.9782 406.141 46.9506 403.164 46.9713C394.33 47.0334 384.26 45.6054 375.586 47.4128C374.28 47.6818 370.537 48.213 369.874 49.6134C368.948 51.5794 372.54 53.6903 373.817 54.8631C377.803 58.5261 381.719 62.2926 385.78 65.8798Z" fill="#F98E12"/>
<path d="M338.262 18.7846L334.891 18.8191C334.304 18.8259 333.828 19.1157 333.8 19.4882C333.71 20.6195 333.627 21.7509 333.538 22.8822C333.51 23.2202 333.503 23.5927 333.828 23.8549C334.221 24.1722 334.933 24.2274 335.568 24.2481C341.176 24.455 346.805 24.6137 352.407 24.324C354.7 24.2067 357.421 24.324 359.721 24.324C361.565 24.3171 362.967 24.1239 364.811 24.1998C377.851 24.7517 389.82 24.0273 403.958 24.5516C405.374 24.6068 406.804 24.6965 408.178 24.4757C408.523 24.4205 408.841 24.324 409.048 24.1515C409.29 23.9377 409.304 23.6617 409.311 23.3996C409.338 22.3096 409.366 21.2266 409.394 20.1366C409.401 19.8607 409.401 19.5641 409.152 19.3295C408.558 18.7777 406.99 18.9846 406.362 18.9225C405.16 18.7984 403.965 18.7777 402.75 18.8122C387.886 19.1985 373.714 18.0947 359.203 18.7018C357.552 18.7708 355.908 18.8811 354.258 18.9501C352.635 19.0122 351.012 19.0329 349.388 19.0536C346.046 19.0881 341.612 18.7501 338.262 18.7846Z" fill="#D86C00"/>
<path d="M411.86 26.1862C412.198 27.7245 412.274 29.2836 412.088 30.8288C412.032 31.2841 412.019 31.836 412.626 32.0912C412.923 32.2154 413.296 32.2361 413.649 32.243C415.921 32.3119 418.2 32.2292 420.472 32.1464C420.873 32.1326 421.294 32.1119 421.626 31.967C422.171 31.7325 422.282 31.2634 422.323 30.8495C422.51 29.1939 422.496 27.5314 422.289 25.8827C422.24 25.517 422.144 25.0962 421.653 24.8893C420.41 24.3581 417.385 24.7582 415.872 24.7444C413.835 24.7237 411.556 24.4409 411.86 26.1862Z" fill="#F98E12"/>
<path d="M14.1379 116.424C14.649 117.624 14.7595 118.845 14.4832 120.053C14.4003 120.411 14.3796 120.839 15.2913 121.039C15.7333 121.136 16.2928 121.149 16.8246 121.156C20.2434 121.212 23.6691 121.143 27.081 121.08C27.6819 121.067 28.3173 121.053 28.8146 120.942C29.6365 120.763 29.7953 120.391 29.8713 120.073C30.1476 118.783 30.1338 117.479 29.823 116.189C29.7539 115.9 29.6019 115.576 28.8698 115.41C26.9981 114.996 22.4466 115.306 20.1743 115.293C17.1077 115.286 13.6751 115.058 14.1379 116.424Z" fill="#D86C00"/>
<path d="M14.1656 97.633C14.946 98.8333 15.1256 100.054 14.6905 101.262C14.5592 101.62 14.5385 102.048 15.9337 102.248C16.6105 102.345 17.4739 102.358 18.2958 102.365C23.5518 102.421 28.8216 102.352 34.0775 102.289C35.003 102.276 35.9769 102.262 36.7435 102.151C38.0074 101.972 38.2561 101.6 38.3666 101.282C38.7948 99.9923 38.7672 98.6885 38.2906 97.3985C38.1801 97.1087 37.9522 96.7845 36.8264 96.619C33.9463 96.2051 26.9498 96.5155 23.4482 96.5017C18.7309 96.4948 13.4473 96.274 14.1656 97.633Z" fill="#D86C00"/>
<path d="M103.752 82.7116C106.556 81.8286 109.395 81.6285 112.213 82.1183C113.042 82.2632 114.05 82.2908 114.513 80.718C114.741 79.9522 114.775 78.9796 114.796 78.0552C114.927 72.1295 114.768 66.19 114.616 60.2711C114.589 59.2295 114.554 58.1257 114.299 57.2634C113.877 55.8424 113.021 55.5595 112.268 55.4354C109.257 54.9525 106.225 54.9801 103.22 55.525C102.55 55.6492 101.791 55.9045 101.411 57.1738C100.444 60.416 101.169 68.3078 101.141 72.2467C101.1 77.5654 100.575 83.5187 103.752 82.7116Z" fill="#013507"/>
<path d="M172.791 8.10557C173.634 13.438 173.378 15.1833 173.42 18.3428C173.434 19.6397 172.446 20.5917 181.197 21.1642C185.444 21.4402 190.832 21.4815 195.956 21.5091C228.811 21.6678 261.729 21.4746 294.563 21.2884C300.344 21.2539 306.45 21.2125 311.236 20.8952C319.13 20.3778 320.691 19.3292 321.361 18.4049C324.034 14.7142 323.875 11.0029 320.871 7.31225C320.201 6.49135 318.757 5.56006 311.719 5.09097C293.727 3.90445 249.994 4.79434 228.155 4.75985C198.657 4.71156 171.866 2.24884 172.791 8.10557Z" fill="#F98E12"/>
<path d="M251.176 76.8411C259.464 76.2686 267.869 76.1375 276.212 76.4548C278.671 76.5514 281.641 76.5721 283.022 75.5373C283.692 75.0406 283.796 74.406 283.851 73.8058C284.231 69.9427 283.775 66.0727 283.312 62.2165C283.229 61.5336 283.126 60.8231 282.366 60.2574C281.109 59.333 278.581 59.1468 276.357 59.064C267.448 58.7467 258.483 58.7674 249.58 59.1192C247.591 59.1951 245.346 59.3675 244.227 60.1953C241.361 62.3131 243.516 67.4524 243.433 70.0186C243.316 73.4816 241.769 77.3654 251.176 76.8411Z" fill="#FFF2EA"/>
<path d="M202.477 76.8411C210.765 76.2686 219.17 76.1375 227.513 76.4548C229.972 76.5514 232.942 76.5721 234.323 75.5373C234.993 75.0406 235.097 74.406 235.152 73.8058C235.532 69.9427 235.076 66.0727 234.613 62.2165C234.53 61.5336 234.427 60.8231 233.667 60.2574C232.41 59.333 229.882 59.1468 227.658 59.064C218.749 58.7467 209.784 58.7674 200.881 59.1192C198.892 59.1951 196.647 59.3675 195.528 60.1953C192.662 62.3131 194.817 67.4524 194.734 70.0186C194.617 73.4816 193.07 77.3654 202.477 76.8411Z" fill="#FFF2EA"/>
<path d="M161.271 76.8411C166.907 76.2686 172.626 76.1375 178.296 76.4548C179.967 76.5514 181.984 76.5721 182.924 75.5373C183.379 75.0406 183.448 74.406 183.49 73.8058C183.752 69.9427 183.435 66.0727 183.124 62.2165C183.069 61.5336 182.999 60.8231 182.481 60.2574C181.625 59.333 179.912 59.1468 178.393 59.064C172.336 58.7467 166.244 58.7674 160.187 59.1192C158.833 59.1951 157.307 59.3675 156.547 60.1953C154.599 62.3131 156.063 67.4524 156.008 70.0186C155.925 73.4816 154.875 77.3654 161.271 76.8411Z" fill="#FFF2EA"/>
<path d="M298.362 78.8072C302.658 78.1035 307.016 77.9449 311.34 78.3312C312.617 78.4485 314.151 78.4692 314.869 77.2068C315.214 76.5928 315.27 75.8133 315.297 75.0752C315.497 70.3291 315.256 65.5761 315.021 60.8369C314.979 60.0022 314.924 59.1192 314.53 58.4293C313.881 57.2911 312.569 57.0635 311.416 56.9669C306.795 56.5806 302.147 56.6013 297.533 57.0359C296.504 57.1325 295.337 57.3394 294.757 58.3604C293.272 60.9611 294.384 67.2731 294.342 70.4256C294.294 74.6888 293.486 79.4556 298.362 78.8072Z" fill="#FFF2EA"/>
</g>
<defs>
<clipPath id="clip0">
<rect width="491.96" height="187.95" fill="white" transform="translate(12.7051 65.866)"/>
</clipPath>
<clipPath id="clip1">
<rect width="517" height="149.219" fill="white"/>
</clipPath>
</defs>
</svg>



