<svg width="550" height="426" fill="none" xmlns="http://www.w3.org/2000/svg"><path d="M474.311 225.923c-.733-.154-1.497-.312-2.279-.472l1.345-8.428c.314.067.627.137.939.202l.341-1.647c-.337-.07-.678-.145-1.015-.217 2.75-17.239 5.497-34.473 8.309-51.758-.036.035.009-.171.081-.447l-.04.252a1970.27 1970.27 0 003.527-2.957 2354.29 2354.29 0 00-6.321-1.678 255.93 255.93 0 00-5.615-13.79l2.247-10.84c.601-2.901.35-4.749 1.716-7.35-3.44-.638-6.59-1.215-10.001-1.771-.032.106-.057.206-.089.309-.893 1.336-3.279 1.769-4.162 3.043-.812 1.173-.335 1.444-.614 2.79l-.823 3.969c-.059.286-.116.574-.173.861a284.816 284.816 0 00-12.864-3.391l.806-3.888c.601-2.901.552-4.707 1.655-7.362-2.305-.404-4.419-.765-6.709-1.09-.029.107-.053.207-.079.312-.697 1.376-2.355 1.96-3.041 3.275-.632 1.21-.324 1.446-.603 2.792l-.823 3.969c-7.213-1.55-14.472-2.92-21.73-4.255.974-4.102 2.639-6.574 3.127-10.89-3.352-.845-6.471-1.568-9.882-2.349.22 2.929-.744 4.525-1.345 7.426l-.865 4.173c-7.344-1.34-14.687-2.683-22.03-4.023.069-.322.136-.646.203-.969l.823-3.969c.278-1.344.654-1.44.556-2.802-.107-1.479-1.394-2.676-1.487-4.213.018-.107.034-.209.049-.318-2.23-.613-4.313-1.121-6.589-1.667-.043 2.875-.806 4.513-1.407 7.414l-1.016 4.902c-3.829-.701-7.657-1.398-11.486-2.098.105-.483.207-.967.307-1.448l.823-3.969c.278-1.344.824-1.405.545-2.804-.302-1.519-2.321-2.868-2.611-4.447.013-.107.032-.208.042-.318-3.352-.846-6.471-1.569-9.882-2.35.221 2.93-.744 4.526-1.345 7.426l-2.209 10.66-13.569 8.772c-1.894-.321-3.789-.64-5.685-.954 1.825 2.595 2.491 3.929 5.523 4.689l-2.728-.566-10.759 52.401c-.785-.163-1.565-.329-2.35-.492l-.341 1.647c.784.162 1.568.327 2.352.492l-1.92 9.342a352.07 352.07 0 01-2.163-.456c.621.466 1.527 1.034 1.731 1.481l.213.044c-2.416 11.762-4.832 23.524-7.246 35.287 48.625 14.015 100.686 21.598 150.702 29.189 1.829-11.25 3.63-22.48 5.425-33.703l.501.096c.028-.446 1.616-.712 2.008-1.069z" stroke="#FFF2EA" stroke-width="8.664" stroke-miterlimit="10" stroke-linejoin="round"/><path d="M337.944 129.473l16.873-10.906c1.441-.931 2.922-1.879 4.589-2.239 1.79-.385 3.638-.059 5.433.27 16.175 2.952 32.35 5.905 48.525 8.86 17.781 3.248 35.613 6.505 52.876 11.869 1.424.444 2.88.918 4.046 1.86 1.47 1.189 2.318 2.986 3.097 4.729a256.315 256.315 0 016.825 16.845L398.53 187.46l-60.586-57.987z" fill="#013507"/><path d="M466.679 260.664c-50.016-7.592-102.077-15.174-150.701-29.189 6.825-33.248 13.654-66.498 20.482-99.746l146.15 30.288c.106-.099-.461 1.749-.356 1.648-5.266 32.393-10.309 64.606-15.575 96.999z" fill="#F98E12"/><path d="M485.821 160.516c-1.175.988-2.35 1.972-3.528 2.957.019-.111.035-.225.053-.336.107-.674-100.993-21.824-110.219-23.817a5633.579 5633.579 0 00-21.642-4.636c-3.709-.788-7.453-1.473-11.14-2.35-3.165-.754-3.819-2.089-5.676-4.727a1598.201 1598.201 0 01152.152 32.909zM366.285 104.092c.078 1.702 2.324 3.119 2.644 4.725.279 1.4-.267 1.459-.546 2.805l-.822 3.969a108.98 108.98 0 01-1.292 5.576c-.225.853-.263 2.051-.91 2.705-.86.872-3.106 1.232-4.406 1.782-1.471-2.538-1.121-3.233-.839-5.688.327-2.838.671-6.007 1.376-8.754.6-2.327 1.87-5.194 4.795-7.12z" fill="#D86C00"/><path d="M352.106 123.744l3.029-14.612c.601-2.901 1.565-4.497 1.345-7.426 3.411.781 6.53 1.504 9.882 2.349-.51 4.514-2.31 7.006-3.258 11.461a178.972 178.972 0 01-2.47 10.204c-1.9-.645-5.408-1.255-8.528-1.976zM407.47 135.218l3.028-14.612c.601-2.901 1.566-4.497 1.346-7.427 3.41.781 6.529 1.504 9.882 2.35-.51 4.514-2.311 7.006-3.258 11.461a178.949 178.949 0 01-2.471 10.203c-1.897-.644-5.407-1.254-8.527-1.975z" fill="#F98E12"/><path d="M387.696 108.529c-.058 1.674 1.381 2.924 1.492 4.487.098 1.362-.277 1.456-.556 2.802l-.823 3.969c-.388 1.873-.797 3.74-1.248 5.586-.209.856-.315 2.039-.8 2.727-.644.917-2.2 1.419-3.124 2.048-.838-2.407-.553-3.116-.198-5.555.41-2.821.855-5.969 1.517-8.725.56-2.335 1.616-5.247 3.74-7.339z" fill="#D86C00"/><path d="M376.725 128.847l3.028-14.613c.601-2.9 1.364-4.538 1.407-7.413 2.276.546 4.359 1.054 6.59 1.667-.646 4.486-2.038 7.062-2.978 11.519a263.64 263.64 0 01-2.359 10.226c-1.252-.51-3.607-.881-5.688-1.386z" fill="#F98E12"/><path d="M444.91 120.386c-.613 1.559-2.43 2.134-3.153 3.524-.631 1.211-.324 1.447-.603 2.793l-.822 3.969a158.797 158.797 0 00-1.075 5.621c-.148.869-.521 1.997-.35 2.821.227 1.097 1.455 2.177 2.053 3.121 1.726-1.876 1.745-2.64 2.389-5.019.745-2.752 1.588-5.817 2.076-8.609.414-2.366.6-5.458-.515-8.221z" fill="#D86C00"/><path d="M446.9 143.39l3.029-14.613c.601-2.9.552-4.706 1.654-7.362-2.305-.404-4.418-.765-6.709-1.089-1.191 4.373-.937 7.291-1.845 11.754a262.277 262.277 0 00-1.9 10.322c1.352.029 3.661.624 5.771.988z" fill="#F98E12"/><path d="M467.9 125.15c-.747 1.531-3.372 1.939-4.304 3.286-.812 1.173-.335 1.445-.614 2.79l-.822 3.969a108.789 108.789 0 00-1.031 5.631c-.133.872-.574 1.986-.24 2.844.443 1.142 2.361 2.364 3.335 3.386 2.358-1.745 2.314-2.522 3.031-4.886.827-2.734 1.771-5.779 2.216-8.58.377-2.373.347-5.51-1.571-8.44z" fill="#D86C00"/><path d="M473.103 148.82l3.029-14.613c.601-2.9.35-4.748 1.716-7.349-3.44-.639-6.589-1.215-10.001-1.771-1.326 4.345-.664 7.347-1.566 11.811a179.291 179.291 0 00-1.787 10.345c1.996.163 5.458.998 8.609 1.577z" fill="#F98E12"/><path d="M356.078 145.96l-.931 4.492c-.511.731-.661 2.197-.922 3.131a91.816 91.816 0 00-1.384 5.78c-.36 1.735-.862 3.525-1.081 5.295a76.87 76.87 0 00-2.516-.519c.923-6.055 2.467-12.11 3.712-18.118.795-.306 1.899-.276 3.122-.061z" fill="#D86C00"/><path d="M360.389 167.168c-2.575-.993-5.719-1.862-8.629-2.51.219-1.77.721-3.56 1.081-5.295a91.816 91.816 0 011.384-5.78c.261-.934.411-2.4.922-3.131l.931-4.492c2.742.478 6.079 1.868 7.887 2.383-.258 6.231-2.436 12.669-3.576 18.825z" fill="#013507"/><path d="M374.943 168.46c-.05.255-.136.589-.218.948a72.69 72.69 0 00-1.302-.258c.922-6.055 2.469-12.11 3.714-18.117.369-.144.804-.212 1.287-.224-.735 3.547-1.468 7.095-2.205 10.641-.483 2.33-.817 4.678-1.276 7.01z" fill="#D86C00"/><path d="M384.568 172.179c-2.939-1.133-6.614-2.102-9.843-2.771.082-.359.168-.693.218-.948.46-2.332.793-4.68 1.276-7.01.737-3.546 1.47-7.094 2.205-10.641 2.893-.075 7.48 1.906 9.72 2.545-.259 6.231-2.435 12.67-3.576 18.825zM401.315 156.043c-1.245 6.008-2.791 12.062-3.711 18.118 3.502.664 7.803 1.741 11.144 3.029 1.14-6.156 3.318-12.594 3.576-18.825-2.614-.745-8.427-3.32-11.009-2.322z" fill="#013507"/><path d="M432.926 182.201a34.114 34.114 0 00-.915-.338c.114-.701.194-1.397.279-1.898.367-2.141.761-4.283 1.105-6.426.557-3.498 1.404-6.984 2.16-10.46.347.115.665.217.948.297-.259 6.231-2.435 12.67-3.577 18.825z" fill="#D86C00"/><path d="M432.011 181.863c-3.186-1.138-7.037-2.09-10.229-2.691.922-6.055 2.469-12.11 3.714-18.118 2.303-.89 7.178 1.065 10.059 2.025-.756 3.476-1.603 6.962-2.16 10.459-.344 2.144-.738 4.286-1.105 6.427-.085.501-.164 1.197-.279 1.898z" fill="#013507"/><path d="M457.107 187.212a49.13 49.13 0 00-2.978-1.024c1.329-6.217 2.794-12.384 4.126-18.605.94.324 1.782.62 2.428.804-.258 6.231-2.437 12.669-3.576 18.825z" fill="#D86C00"/><path d="M458.255 167.583c-1.332 6.221-2.797 12.388-4.126 18.606-2.699-.835-5.64-1.528-8.167-2.006.921-6.056 2.467-12.111 3.712-18.118 1.945-.752 5.719.523 8.581 1.518zM347.202 173.788c-1.245 6.007-2.792 12.062-3.712 18.118 3.502.663 7.803 1.741 11.145 3.029 1.139-6.156 3.318-12.594 3.576-18.825-2.615-.745-8.428-3.32-11.009-2.322zM371.382 178.799c-1.245 6.007-2.791 12.062-3.711 18.118 3.502.663 7.803 1.741 11.144 3.029 1.14-6.156 3.318-12.594 3.576-18.825-2.614-.745-8.427-3.32-11.009-2.322zM395.561 183.81c-1.245 6.007-2.792 12.062-3.712 18.118 3.502.663 7.803 1.741 11.145 3.029 1.139-6.156 3.318-12.594 3.576-18.825-2.615-.745-8.428-3.32-11.009-2.322zM419.739 188.821c-1.245 6.007-2.791 12.062-3.712 18.117 3.502.664 7.804 1.742 11.145 3.03 1.14-6.156 3.318-12.594 3.576-18.825-2.612-.745-8.428-3.32-11.009-2.322zM443.92 193.832c-1.245 6.007-2.792 12.062-3.712 18.117 3.502.664 7.803 1.742 11.145 3.03 1.139-6.156 3.318-12.594 3.576-18.825-2.615-.745-8.428-3.32-11.009-2.322zM340.497 206.14c-1.245 6.008-2.791 12.063-3.711 18.118 3.502.664 7.803 1.742 11.144 3.03 1.14-6.156 3.318-12.594 3.576-18.825-2.614-.746-8.427-3.32-11.009-2.323zM364.678 211.151c-1.245 6.008-2.792 12.063-3.712 18.118 3.502.664 7.803 1.742 11.145 3.029 1.139-6.155 3.318-12.593 3.576-18.824-2.615-.746-8.428-3.32-11.009-2.323zM388.856 216.162c-1.245 6.008-2.791 12.063-3.711 18.118 3.502.664 7.803 1.742 11.144 3.029 1.14-6.155 3.318-12.593 3.576-18.824-2.614-.746-8.427-3.32-11.009-2.323zM413.034 221.173c-1.245 6.007-2.791 12.062-3.711 18.118 3.502.663 7.803 1.741 11.145 3.029 1.139-6.156 3.317-12.594 3.576-18.825-2.613-.744-8.428-3.32-11.01-2.322zM437.215 226.184c-1.245 6.007-2.791 12.062-3.712 18.118 3.503.663 7.804 1.741 11.145 3.029 1.14-6.156 3.318-12.594 3.576-18.825-2.615-.745-8.428-3.32-11.009-2.322z" fill="#013507"/><path d="M350.325 173.718l-.931 4.492c-.51.731-.661 2.197-.921 3.13a91.132 91.132 0 00-1.385 5.78c-.359 1.736-.862 3.526-1.08 5.295a83.15 83.15 0 00-2.516-.519c.922-6.055 2.467-12.11 3.712-18.117.795-.307 1.898-.276 3.121-.061zM343.622 206.064l-.931 4.491c-.51.731-.661 2.197-.921 3.131a91.132 91.132 0 00-1.385 5.78c-.359 1.736-.862 3.525-1.08 5.295a77.416 77.416 0 00-2.516-.519c.922-6.055 2.467-12.11 3.712-18.118.795-.306 1.898-.276 3.121-.06zM451.353 214.979a48.682 48.682 0 00-2.978-1.024c1.329-6.217 2.794-12.384 4.126-18.605.94.323 1.782.62 2.428.804-.258 6.231-2.437 12.669-3.576 18.825zM444.648 247.331c-.932-.358-1.938-.7-2.978-1.023 1.329-6.217 2.794-12.385 4.126-18.606.94.324 1.782.62 2.428.804-.258 6.231-2.437 12.669-3.576 18.825zM427.192 209.871a37.942 37.942 0 00-.915-.338c.114-.7.194-1.397.279-1.898.367-2.141.761-4.283 1.104-6.426.558-3.498 1.405-6.984 2.161-10.459.347.115.665.216.947.296-.258 6.231-2.434 12.67-3.576 18.825zM420.507 242.127a34.138 34.138 0 00-.915-.337c.114-.701.194-1.397.279-1.899.367-2.141.761-4.283 1.104-6.426.558-3.498 1.405-6.983 2.161-10.459.347.115.665.217.947.297-.258 6.231-2.434 12.669-3.576 18.824zM369.189 196.227c-.051.255-.137.589-.218.947a96.1 96.1 0 00-1.303-.258c.923-6.055 2.469-12.109 3.714-18.117.37-.143.805-.211 1.288-.223-.735 3.547-1.468 7.094-2.206 10.641-.482 2.33-.816 4.678-1.275 7.01zM362.484 228.582c-.051.255-.137.589-.218.947a82.824 82.824 0 00-1.303-.258c.923-6.055 2.469-12.11 3.714-18.117.37-.144.804-.211 1.288-.223-.735 3.547-1.468 7.094-2.206 10.641-.482 2.329-.816 4.678-1.275 7.01zM323.01 196.143c-.204-.446-1.11-1.014-1.731-1.48 4.868 1.043 13.516 2.77 19.983 3.886 10.649 1.833 21.237 4.319 31.805 6.321 8.537 1.616 16.854 3.684 25.316 5.464 4.508.948 9.04 1.844 13.486 2.869 9.686 2.234 19.679 3.872 29.427 6.014 5.11 1.124 10.278 2.138 15.402 3.2 5.512 1.142 12.499 2.429 17.912 3.573-.392.356-1.98.625-2.01 1.071-9.602-1.844-19.408-3.836-28.914-6.059L323.01 196.143z" fill="#D86C00"/><path d="M324.785 195.288c.7-3.38 1.234-6.864 2.125-10.197.488.44 1.045.231 1.535.524.548.329.036 1.024-.119 1.613-.473 1.782-.819 3.604-1.195 5.416-.209 1.011-.264 2.442-.771 3.319-.548-.044-1.041-.514-1.575-.675zM335.098 197.425c.701-3.38 1.234-6.864 2.125-10.197.488.441 1.046.231 1.535.524.549.329.036 1.024-.119 1.613-.472 1.782-.819 3.604-1.194 5.416-.21 1.011-.265 2.442-.772 3.32-.548-.045-1.041-.515-1.575-.676zM345.411 199.562c.701-3.38 1.234-6.864 2.126-10.197.487.441 1.045.231 1.534.524.549.329.037 1.024-.119 1.613-.472 1.782-.819 3.605-1.194 5.416-.21 1.011-.265 2.442-.772 3.32-.548-.044-1.043-.515-1.575-.676zM355.723 201.699c.7-3.38 1.233-6.864 2.125-10.197.487.441 1.045.231 1.534.524.549.329.037 1.024-.119 1.613-.472 1.782-.819 3.605-1.194 5.416-.21 1.011-.265 2.442-.772 3.32-.548-.044-1.041-.515-1.574-.676zM366.036 203.836c.7-3.379 1.233-6.863 2.125-10.197.487.441 1.045.231 1.534.524.549.329.037 1.024-.119 1.614-.472 1.782-.818 3.604-1.194 5.415-.209 1.011-.264 2.442-.772 3.32-.548-.044-1.041-.515-1.574-.676zM376.349 205.974c.7-3.38 1.234-6.864 2.125-10.197.488.44 1.045.231 1.535.523.548.329.036 1.024-.12 1.614-.472 1.782-.818 3.604-1.194 5.415-.209 1.012-.264 2.442-.771 3.32-.548-.044-1.042-.515-1.575-.675zM386.66 208.111c.701-3.38 1.234-6.864 2.125-10.197.488.44 1.046.231 1.535.523.549.329.036 1.024-.119 1.614-.472 1.782-.819 3.604-1.194 5.415-.21 1.012-.265 2.442-.772 3.32-.546-.044-1.041-.515-1.575-.675zM396.974 210.248c.7-3.38 1.233-6.864 2.125-10.197.487.441 1.045.231 1.534.524.549.329.037 1.024-.119 1.613-.472 1.782-.818 3.604-1.194 5.416-.209 1.011-.264 2.442-.772 3.32-.548-.045-1.041-.515-1.574-.676zM407.287 212.385c.7-3.38 1.233-6.864 2.125-10.197.487.441 1.045.231 1.534.524.549.329.037 1.024-.119 1.613-.472 1.782-.818 3.605-1.194 5.416-.209 1.011-.264 2.442-.772 3.32-.548-.044-1.041-.515-1.574-.676zM417.6 214.523c.701-3.38 1.234-6.864 2.125-10.197.488.44 1.045.231 1.535.523.549.329.036 1.024-.119 1.614-.472 1.782-.819 3.604-1.194 5.416-.21 1.011-.265 2.441-.772 3.319-.548-.044-1.041-.514-1.575-.675zM427.911 216.66c.701-3.38 1.234-6.864 2.125-10.197.488.44 1.045.231 1.535.523.549.329.036 1.024-.119 1.614-.472 1.782-.819 3.604-1.194 5.416-.21 1.011-.265 2.441-.772 3.319-.548-.044-1.041-.514-1.575-.675zM438.225 218.797c.7-3.38 1.233-6.864 2.125-10.197.487.441 1.045.231 1.534.524.549.329.037 1.024-.119 1.613-.472 1.782-.818 3.604-1.194 5.416-.209 1.011-.264 2.442-.772 3.319-.548-.044-1.041-.514-1.574-.675zM448.538 220.934c.7-3.38 1.234-6.864 2.125-10.197.488.441 1.045.231 1.535.524.548.329.036 1.024-.12 1.613-.472 1.782-.818 3.604-1.194 5.416-.209 1.011-.264 2.442-.771 3.32-.548-.045-1.042-.515-1.575-.676zM458.851 223.071c.701-3.38 1.234-6.864 2.125-10.197.488.441 1.045.231 1.535.524.549.329.036 1.024-.119 1.613-.472 1.782-.819 3.605-1.194 5.416-.21 1.011-.265 2.442-.772 3.32-.548-.044-1.044-.515-1.575-.676zM469.162 225.208c.701-3.38 1.234-6.864 2.125-10.197.488.441 1.045.231 1.535.524.549.329.036 1.024-.119 1.613-.472 1.782-.819 3.605-1.194 5.416-.21 1.011-.265 2.442-.772 3.32-.548-.044-1.041-.515-1.575-.676z" fill="#D86C00"/><path d="M474.62 217.29c-4.974-1.041-9.985-2.361-15.077-3.417a429.775 429.775 0 00-14.401-2.714c-3.572-.613-6.915-1.605-10.46-2.34-13.936-2.888-28.047-5.288-41.912-8.394-23.239-5.203-46.424-10.302-69.76-15.138l.341-1.647c23.339 4.837 46.521 9.936 69.76 15.139 13.865 3.105 27.976 5.506 41.912 8.394 3.545.735 6.888 1.727 10.461 2.34 4.809.827 9.598 1.719 14.4 2.714 5.092 1.056 10.103 2.376 15.077 3.416l-.341 1.647z" fill="#D86C00"/><path d="M362.824 193.356c-.867-.012-1.769-.023-2.693-.031l-.342-9.868c.371.006.742.016 1.111.02l.022-1.945c-.398-.004-.802-.014-1.2-.022-.7-20.185-1.404-40.365-2.043-60.617-.033.049-.028-.195-.008-.526.004.098.009.198.01.296 1.119-1.38 2.235-2.757 3.351-4.14a2733.29 2733.29 0 00-7.551-.504 296.589 296.589 0 00-9.434-14.414l.147-12.808c.039-3.427-.655-5.47.319-8.726-4.048.037-7.752.081-11.75.206-.012.127-.019.246-.031.371-.719 1.715-3.332 2.736-4.053 4.378-.662 1.512-.06 1.714-.078 3.305l-.054 4.689c-.004.339-.005.677-.006 1.016a330.805 330.805 0 00-15.359-.997l.052-4.595c.04-3.427-.416-5.467.247-8.727-2.707.053-5.187.111-7.86.251-.01.127-.014.247-.021.371-.486 1.718-2.24 2.749-2.727 4.393-.448 1.515-.047 1.715-.065 3.305l-.054 4.69c-8.536-.16-17.082-.107-25.62-.013.196-4.875 1.539-8.05 1.136-13.06-3.994-.216-7.696-.346-11.743-.476.9 3.278.159 5.304.119 8.731l-.056 4.93c-8.636.107-17.273.212-25.909.318.007-.382.012-.764.016-1.146l.054-4.69c.018-1.587.424-1.78.011-3.305-.45-1.655-2.177-2.729-2.623-4.454a15.966 15.966 0 00-.015-.371c-2.669-.202-5.147-.317-7.852-.432.588 3.274.085 5.303.046 8.73l-.067 5.792c-4.504.054-9.005.111-13.508.165.012-.572.021-1.143.028-1.712l.053-4.69c.019-1.587.625-1.778-.002-3.305-.68-1.658-3.272-2.742-3.951-4.47-.009-.125-.011-.244-.023-.371-3.994-.217-7.696-.346-11.742-.477.9 3.278.158 5.305.119 8.732l-.145 12.594-13.463 12.97c-2.222.056-4.445.114-6.667.178 2.648 2.542 3.7 3.909 7.312 4.099l-3.224-.037-.597 61.891c-.926-.011-1.85-.027-2.777-.038l-.022 1.945c.927.011 1.853.024 2.78.038l-.108 11.034c-.921-.01-1.78-.023-2.557-.037.808.391 1.962.835 2.293 1.297l.252.003c-.135 13.892-.27 27.784-.403 41.677 58.324 5.132 119.125 2.197 177.604-.275-.417-13.181-.862-26.332-1.313-39.475l.591-.001c-.068-.513 1.677-1.168 2.043-1.66z" stroke="#FFF2EA" stroke-width="10.024" stroke-miterlimit="10" stroke-linejoin="round"/><path d="M186.58 114.073l16.743-16.127c1.43-1.376 2.901-2.781 4.714-3.56 1.947-.834 4.118-.874 6.229-.898 19.023-.234 38.045-.469 57.068-.7 20.912-.256 41.883-.51 62.677 1.752 1.715.188 3.474.403 5.006 1.214 1.934 1.025 3.294 2.878 4.566 4.683a296.559 296.559 0 0111.486 17.616l-86.83 48.431-81.659-52.411z" fill="#013507"/><path d="M361.861 234.499c-58.479 2.471-119.28 5.406-177.604.274.378-39.269.758-78.54 1.138-117.809l172.68 1.983c.099-.138-.135 2.087-.039 1.95 1.204 37.951 2.621 75.65 3.825 113.602z" fill="#F98E12"/><path d="M361.389 116.53c-1.116 1.383-2.232 2.76-3.35 4.14l-.015-.393c-.029-.789-119.524-2.386-130.443-2.604a6632.42 6632.42 0 00-25.604-.464c-4.386-.072-8.789-.02-13.171-.198-3.762-.154-4.8-1.526-7.493-4.109a1848.888 1848.888 0 01180.076 3.628zM213.135 78.966c.465 1.915 3.33 3.027 4.05 4.78.627 1.527.021 1.715.002 3.305l-.053 4.69a125.493 125.493 0 01-.231 6.619c-.066 1.018.157 2.386-.433 3.273-.783 1.181-3.254 2.087-4.608 3.001-2.233-2.556-1.99-3.423-2.215-6.273-.257-3.296-.57-6.97-.378-10.247.165-2.775.972-6.312 3.866-9.148z" fill="#D86C00"/><path d="M201.392 104.427l.198-17.265c.04-3.427.781-5.454-.119-8.732 4.047.13 7.749.26 11.743.477.422 5.24-1.07 8.468-1.158 13.737a206.401 206.401 0 01-.543 12.134c-2.299-.31-6.418-.225-10.121-.351zM266.806 105.178l.198-17.265c.039-3.427.781-5.453-.119-8.731 4.046.13 7.748.26 11.742.476.423 5.24-1.07 8.468-1.157 13.737a207.336 207.336 0 01-.543 12.135c-2.297-.311-6.419-.226-10.121-.352z" fill="#F98E12"/><path d="M238.432 79.256c.306 1.914 2.217 3.014 2.69 4.764.413 1.525.007 1.715-.011 3.306l-.054 4.689a184.036 184.036 0 01-.179 6.62c-.047 1.018.095 2.385-.303 3.275-.528 1.183-2.183 2.099-3.093 3.018-1.486-2.548-1.319-3.416-1.457-6.265-.16-3.294-.353-6.967-.212-10.244.118-2.776.671-6.316 2.619-9.163z" fill="#D86C00"/><path d="M230.479 104.761l.199-17.265c.039-3.427.542-5.456-.046-8.73 2.705.115 5.183.23 7.852.431.262 5.238-.748 8.472-.827 13.741a302.478 302.478 0 01-.41 12.136c-1.536-.302-4.292-.201-6.768-.313z" fill="#F98E12"/><path d="M306.032 80.032c-.35 1.906-2.286 2.962-2.799 4.701-.448 1.515-.047 1.715-.065 3.305l-.054 4.69c-.025 2.213-.026 4.424.027 6.622.024 1.019-.149 2.382.228 3.281.501 1.195 2.135 2.148 3.023 3.088 1.544-2.513 1.397-3.384 1.6-6.23.236-3.289.513-6.957.448-10.236-.055-2.778-.529-6.33-2.408-9.22z" fill="#D86C00"/><path d="M313.394 105.713l.198-17.265c.039-3.427-.417-5.467.246-8.727-2.707.053-5.187.111-7.86.251-.382 5.23.553 8.487.511 13.757-.032 4 .002 8.125.132 12.142 1.542-.267 4.295-.102 6.773-.158z" fill="#F98E12"/><path d="M333.195 80.344c-.509 1.904-3.399 2.95-4.158 4.686-.662 1.512-.06 1.714-.079 3.304l-.054 4.69a125.89 125.89 0 00.079 6.622c.042 1.02-.212 2.382.358 3.283.755 1.198 3.205 2.161 4.538 3.106 2.291-2.505 2.068-3.377 2.358-6.221.333-3.288.73-6.955.613-10.235-.098-2.778-.827-6.333-3.655-9.235z" fill="#D86C00"/><path d="M344.353 106.068l.198-17.265c.04-3.427-.655-5.47.32-8.726-4.048.038-7.753.082-11.751.207-.542 5.228.876 8.49.842 13.76-.024 4.001.05 8.126.264 12.144 2.304-.258 6.42-.078 10.127-.12z" fill="#F98E12"/><path d="M210.829 128.774l-.061 5.307c-.417.943-.263 2.641-.352 3.759a105.628 105.628 0 00-.29 6.871c-.024 2.05-.198 4.194-.053 6.252a91.547 91.547 0 00-2.972-.031c-.295-7.08.115-14.299.197-21.397.835-.524 2.095-.734 3.531-.761z" fill="#D86C00"/><path d="M220.428 151.901c-3.145-.557-6.907-.847-10.355-.938-.145-2.058.029-4.202.052-6.252.027-2.303.115-4.578.291-6.871.088-1.118-.066-2.816.352-3.759l.061-5.307c3.219-.066 7.317.772 9.485.957 1.089 7.133.043 14.926.114 22.17z" fill="#013507"/><path d="M237.242 150.14c-.001.301-.025.699-.038 1.124a99.036 99.036 0 00-1.536-.004c-.295-7.08.118-14.299.2-21.397.387-.245.866-.418 1.412-.539-.048 4.191-.093 8.382-.144 12.573-.032 2.752.11 5.493.106 8.243z" fill="#D86C00"/><path d="M248.995 152.229c-3.588-.635-7.976-.921-11.791-.965.013-.425.037-.823.038-1.124.004-2.75-.138-5.491-.106-8.243.05-4.191.096-8.382.144-12.573 3.268-.727 8.916.506 11.602.735 1.088 7.133.045 14.927.113 22.17zM264.435 130.191c-.082 7.098-.495 14.317-.197 21.397 4.124-.023 9.247.247 13.327.969-.071-7.244.975-15.037-.114-22.17-3.134-.267-10.306-1.902-13.016-.196z" fill="#013507"/><path d="M306.133 152.885a41.212 41.212 0 00-1.114-.181c-.026-.821-.09-1.629-.105-2.218-.058-2.512-.086-5.032-.171-7.542-.143-4.095.046-8.241.134-12.356.419.054.803.099 1.142.127 1.088 7.133.045 14.927.114 22.17z" fill="#D86C00"/><path d="M305.018 152.704c-3.87-.586-8.455-.812-12.213-.788-.295-7.08.118-14.299.2-21.397 2.418-1.522 8.387-.383 11.872.069-.088 4.115-.277 8.261-.134 12.356.085 2.51.113 5.03.171 7.543.015.588.079 1.396.104 2.217z" fill="#013507"/><path d="M334.702 153.213a55.811 55.811 0 00-3.608-.502c.13-7.355.426-14.683.559-22.043 1.139.159 2.161.309 2.935.375 1.089 7.133.043 14.926.114 22.17z" fill="#D86C00"/><path d="M331.653 130.668c-.133 7.36-.429 14.688-.559 22.043-3.25-.349-6.744-.484-9.719-.467-.298-7.08.115-14.299.197-21.397 2.041-1.285 6.611-.674 10.081-.179zM206.921 162.342c-.081 7.098-.495 14.317-.197 21.397 4.124-.023 9.248.247 13.328.969-.072-7.243.974-15.037-.114-22.17-3.135-.267-10.307-1.901-13.017-.196zM235.491 162.67c-.082 7.098-.495 14.317-.197 21.397 4.124-.023 9.247.247 13.327.969-.071-7.243.975-15.037-.114-22.17-3.134-.266-10.306-1.901-13.016-.196zM264.058 162.998c-.081 7.098-.494 14.317-.196 21.397 4.124-.023 9.247.247 13.327.969-.071-7.243.975-15.037-.114-22.17-3.134-.267-10.307-1.901-13.017-.196zM292.626 163.326c-.082 7.098-.495 14.317-.197 21.397 4.124-.023 9.247.247 13.327.969-.071-7.243.975-15.037-.114-22.17-3.132-.266-10.306-1.901-13.016-.196zM321.195 163.654c-.081 7.098-.495 14.317-.196 21.397 4.124-.023 9.247.247 13.327.969-.071-7.243.975-15.037-.114-22.17-3.134-.267-10.307-1.901-13.017-.196zM206.482 200.567c-.081 7.098-.495 14.317-.197 21.397 4.124-.023 9.248.247 13.328.969-.071-7.243.974-15.037-.114-22.17-3.135-.266-10.307-1.901-13.017-.196zM235.052 200.895c-.081 7.098-.495 14.317-.197 21.397 4.124-.023 9.247.247 13.328.969-.072-7.243.974-15.037-.114-22.17-3.135-.267-10.307-1.901-13.017-.196zM263.619 201.223c-.081 7.098-.494 14.317-.196 21.397 4.124-.023 9.247.247 13.327.969-.071-7.243.975-15.037-.114-22.17-3.134-.266-10.306-1.901-13.017-.196zM292.187 201.551c-.082 7.098-.495 14.317-.197 21.397 4.124-.023 9.247.247 13.327.969-.071-7.243.975-15.037-.114-22.17-3.132-.266-10.306-1.901-13.016-.196zM320.756 201.879c-.081 7.098-.494 14.317-.196 21.397 4.124-.023 9.247.247 13.327.969-.071-7.243.975-15.037-.114-22.17-3.134-.266-10.307-1.901-13.017-.196z" fill="#013507"/><path d="M210.452 161.57l-.061 5.307c-.417.944-.263 2.641-.352 3.759a105.628 105.628 0 00-.29 6.871c-.024 2.051-.197 4.195-.053 6.253a91.596 91.596 0 00-2.972-.032c-.295-7.08.116-14.299.197-21.397.835-.524 2.095-.734 3.531-.761zM210.013 199.787l-.061 5.307c-.417.943-.263 2.641-.352 3.759a106.34 106.34 0 00-.29 6.871c-.023 2.051-.197 4.194-.053 6.253a88.8 88.8 0 00-2.971-.032c-.296-7.08.115-14.299.196-21.397.836-.524 2.095-.734 3.531-.761zM334.326 186.019a56.55 56.55 0 00-3.609-.502c.131-7.354.426-14.683.56-22.043 1.138.16 2.161.31 2.935.376 1.089 7.132.043 14.926.114 22.169zM333.887 224.245a55.844 55.844 0 00-3.609-.502c.131-7.355.426-14.683.56-22.043 1.138.159 2.161.309 2.935.375 1.089 7.133.043 14.926.114 22.17zM305.757 185.578a39.967 39.967 0 00-1.114-.181c-.026-.821-.09-1.629-.105-2.217-.057-2.513-.085-5.033-.17-7.543-.143-4.095.045-8.241.133-12.356.42.054.804.099 1.142.127 1.089 7.133.046 14.927.114 22.17zM305.32 223.689a41.212 41.212 0 00-1.114-.181c-.026-.821-.09-1.629-.105-2.217-.058-2.512-.086-5.033-.171-7.542-.143-4.096.046-8.242.134-12.357.419.054.803.099 1.142.127 1.088 7.133.045 14.927.114 22.17zM236.865 182.947c-.001.301-.025.699-.038 1.124a99.036 99.036 0 00-1.536-.004c-.295-7.08.118-14.299.2-21.397.387-.245.866-.418 1.412-.539-.048 4.191-.093 8.382-.144 12.573-.032 2.752.11 5.493.106 8.243zM236.426 221.175c-.001.301-.025.699-.038 1.124a87.958 87.958 0 00-1.536-.004c-.295-7.081.118-14.299.2-21.397.387-.245.866-.418 1.412-.539-.048 4.191-.093 8.382-.144 12.573-.032 2.752.11 5.493.106 8.243zM184.408 193.093c-.331-.462-1.486-.906-2.294-1.297 5.759.104 15.962.148 23.553-.019 12.499-.28 25.074.195 37.519.124 10.053-.058 19.955.446 29.96.591 5.328.077 10.674.09 15.95.267 11.494.389 23.206.033 34.75.304 6.051.143 12.145.147 18.2.217 6.512.075 14.731-.012 21.132.085-.366.492-2.11 1.149-2.045 1.662-11.313.036-22.889-.051-34.177-.468l-142.548-1.466z" fill="#D86C00"/><path d="M186.233 191.728c.046-3.994-.121-8.068.152-12.051.652.392 1.238.03 1.859.254.696.252.268 1.155.222 1.859-.141 2.128-.13 4.274-.155 6.415-.013 1.194.242 2.831-.14 3.94-.632.072-1.296-.353-1.938-.417zM198.419 191.868c.046-3.994-.122-8.068.152-12.051.651.392 1.238.031 1.858.254.696.252.269 1.155.223 1.859-.141 2.128-.131 4.274-.155 6.415-.014 1.195.241 2.831-.14 3.941-.632.071-1.297-.354-1.938-.418zM210.604 192.008c.046-3.994-.121-8.068.152-12.051.651.392 1.238.03 1.858.254.697.252.269 1.155.223 1.859-.141 2.128-.13 4.274-.155 6.415-.014 1.194.241 2.831-.14 3.941-.632.071-1.299-.354-1.938-.418zM222.787 192.148c.045-3.994-.122-8.068.152-12.051.651.392 1.237.03 1.858.254.696.252.269 1.155.223 1.859-.141 2.128-.131 4.274-.155 6.415-.014 1.194.241 2.831-.14 3.94-.633.072-1.297-.353-1.938-.417zM234.972 192.287c.046-3.993-.121-8.068.152-12.05.651.392 1.238.03 1.859.254.696.252.268 1.155.222 1.859-.141 2.128-.13 4.274-.155 6.414-.013 1.195.241 2.832-.14 3.941-.632.071-1.296-.354-1.938-.418zM247.157 192.427c.046-3.993-.121-8.068.152-12.051.652.393 1.238.031 1.859.255.696.252.269 1.154.222 1.858-.14 2.129-.13 4.275-.154 6.415-.014 1.195.241 2.832-.141 3.941-.632.071-1.296-.354-1.938-.418zM259.34 192.567c.046-3.993-.121-8.068.152-12.051.651.393 1.238.031 1.859.255.696.252.268 1.154.222 1.858-.141 2.128-.13 4.275-.155 6.415-.013 1.195.242 2.832-.14 3.941-.629.071-1.296-.354-1.938-.418zM271.526 192.707c.046-3.994-.122-8.068.152-12.051.651.392 1.238.031 1.858.255.697.251.269 1.154.223 1.858-.141 2.128-.13 4.275-.155 6.415-.014 1.195.241 2.831-.14 3.941-.632.071-1.297-.354-1.938-.418zM283.711 192.847c.046-3.993-.121-8.068.152-12.051.651.393 1.238.031 1.859.255.696.252.268 1.154.222 1.858-.141 2.129-.13 4.275-.155 6.415-.013 1.195.241 2.832-.14 3.941-.632.071-1.296-.354-1.938-.418zM295.896 192.987c.046-3.994-.121-8.068.152-12.051.652.393 1.238.031 1.859.255.696.251.269 1.154.222 1.858-.14 2.128-.13 4.275-.154 6.415-.014 1.195.241 2.831-.141 3.941-.632.071-1.296-.354-1.938-.418zM308.079 193.127c.046-3.994-.121-8.068.152-12.051.651.392 1.238.031 1.859.255.696.251.268 1.154.222 1.858-.141 2.128-.13 4.274-.155 6.415-.013 1.195.242 2.831-.14 3.941-.632.071-1.296-.354-1.938-.418zM320.265 193.267c.045-3.994-.122-8.068.152-12.051.651.392 1.237.031 1.858.254.696.252.269 1.155.223 1.859-.141 2.128-.131 4.274-.155 6.415-.014 1.194.241 2.831-.14 3.941-.633.071-1.297-.354-1.938-.418zM332.45 193.406c.046-3.993-.121-8.068.152-12.05.651.392 1.238.03 1.859.254.696.252.268 1.155.222 1.859-.141 2.128-.13 4.274-.155 6.414-.013 1.195.241 2.832-.14 3.941-.632.072-1.296-.353-1.938-.418zM344.635 193.546c.046-3.993-.121-8.068.152-12.05.652.392 1.238.03 1.859.254.696.252.269 1.155.223 1.859-.141 2.128-.131 4.274-.155 6.414-.014 1.195.241 2.832-.141 3.941-.632.071-1.299-.354-1.938-.418zM356.818 193.686c.046-3.993-.121-8.068.152-12.051.651.393 1.238.031 1.859.255.696.252.268 1.155.222 1.858-.141 2.129-.13 4.275-.155 6.415-.014 1.195.241 2.832-.14 3.941-.632.071-1.296-.354-1.938-.418z" fill="#D86C00"/><path d="M361.26 183.484c-5.879-.078-11.862-.467-17.879-.536a496.032 496.032 0 00-16.954.112c-4.193.095-8.209-.29-12.398-.338-16.465-.189-33.022.214-49.455-.237-27.544-.755-55.002-1.404-82.575-1.72l.023-1.945c27.575.316 55.031.965 82.574 1.72 16.433.451 32.99.048 49.456.237 4.188.048 8.204.433 12.397.338a496.032 496.032 0 0116.954-.112c6.017.069 12 .457 17.879.536l-.022 1.945z" fill="#D86C00"/><g clip-path="url(#prefix__clip0)"><path d="M55.913 101.795c7.458 7.52 21.492 2.87 29.618 9.67 7.025 5.875 5.916 16.736 8.229 25.609 1.818 6.959 5.982 13.028 9.073 19.518 6.204 13.033 8.04 27.66 9.786 41.989 1.246 10.202 2.389 21.041-1.991 30.319-3.156 6.672-8.99 12.07-10.665 19.26-1.034 4.447-.357 9.089.333 13.612.991 6.519 1.996 13.047 2.987 19.566.284 1.836.593 3.748 1.656 5.276 2.611 3.723 8.127 3.361 12.602 2.599 2.176-.37 4.499-.825 6.031-2.404 2.633-2.728 1.615-7.143.934-10.864-2.553-13.852 2.576-28.865 13.045-38.238 10.444 5.507 22.154 12.749 23.593 24.488.391 3.227-.067 6.518.391 9.732.458 3.214 2.181 6.6 5.284 7.585 1.507.478 3.131.327 4.705.163 4.153-.434 8.808-1.172 11.247-4.563 2.136-2.962 1.854-6.978 1.469-10.614-1.494-14.352-3.741-30.185-14.724-39.52-4.696-3.988-10.745-6.5-14.424-11.459-2.735-3.699-3.827-8.322-4.848-12.807-1.875-8.208-3.739-16.418-5.616-24.637-1.464-6.431-2.934-12.896-3.24-19.484-.351-7.512.831-15.042.481-22.554-.414-8.981-2.978-17.702-5.138-26.44a299.37 299.37 0 01-7.506-44.547c-.141-1.57-.26-3.215.378-4.663 1.116-2.504 4.071-3.497 6.705-4.22a471.15 471.15 0 0173.958-13.824c6.49-.682 14.314-3.77 13.466-10.268-.871-6.681-2.633-9.151-8.615-8.797-5.982.355-13.438 3.35-19.364 4.255-4.818.732-9.695-.412-14.57-.672-47.916-2.49-71.771-9.5-104.525 3.62C59.155 35.49 43.414 47.347 24.89 50.862c-7.638 1.456-20.28 2.21-19.798 9.989.462 7.363.422 15.59 6.764 16.17 6.732.613 14.535-.954 20.454-3.15 4.318-1.608 10.326-5.325 14.673-1.96 8.211 6.376 1.287 22.178 8.931 29.884z" fill="#FFF2EA"/><path d="M111.719 164.65c-.536.123-1.114.265-1.489.685-.529.599-.415 1.522-.268 2.311 2.656 14.346 5.324 28.69 7.98 43.037.251 1.352.584 2.829 1.69 3.649 1.2.884 2.854.647 4.315.375 4.461-.842 8.924-1.672 13.385-2.513 2.653-.493 5.664-1.251 6.866-3.667.894-1.763.502-3.87.105-5.813l-8.032-38.69c-.133-.651-.283-1.335-.714-1.837-.702-.837-1.912-.962-3.009-.98-6.994-.086-14.065 1.917-20.829 3.443z" fill="#F98E12"/><path d="M114.762 227.291a1285.739 1285.739 0 00-9.616 15.836c-1.046 1.757-2.113 3.587-2.406 5.635-.232 1.629.053 3.29.344 4.914a1174.363 1174.363 0 005.844 30.61c.126.618.299 1.297.815 1.632.449.29 1.02.231 1.532.17l6.319-.79c.865-.103 1.782-.238 2.429-.825 1.046-.941.945-2.612.741-4.02a202.19 202.19 0 00-2.771-15.339c-.519-2.351-1.073-4.767-.638-7.121.33-1.786 1.213-3.419 2.106-4.996a193.015 193.015 0 0112.628-19.462c.724-.986 1.523-2.008 2.652-2.44 2.268-.876 4.628.935 6.487 2.547a83.415 83.415 0 0014.991 10.316c1.087.59 2.203 1.152 3.146 1.968 2.796 2.406 3.551 6.404 4.129 10.073l2.219 13.996c.338 2.129 1.045 4.679 3.095 5.195.756.186 1.554.038 2.316-.116 1.727-.344 3.443-.687 5.172-1.02.751-.151 1.545-.322 2.124-.838 1.105-.998.924-2.783.646-4.282l-5.335-28.874c-.319-1.713-.646-3.471-1.539-4.96-.88-1.48-2.227-2.594-3.554-3.664-5.22-4.24-10.442-8.492-15.662-12.732-1.629-1.317-3.349-2.688-5.401-3.029-1.643-.266-3.295.17-4.902.597-5.472 1.472-8.871 2.268-16.469 3.692-1.967.366-4.239.346-6.191 1.42-2.27 1.238-3.901 3.721-5.251 5.907zM94.272 117.3c.945 5.397 1.888 10.782 2.823 16.181.703 4.031 1.428 8.116 3.11 11.848 1.09 2.421 2.562 4.642 4.018 6.842 1.227 1.847 2.443 3.696 3.673 5.554.391.603.858 1.239 1.553 1.413.926.224 1.856-.531 2.163-1.44.31-.897.151-1.881-.001-2.821l-1.25-7.473c-1.945-11.645-3.892-23.302-6.59-34.808-.059-.257-.136-.546-.361-.691-.227-.156-.532-.11-.8-.049-3.928.766-9.42-.37-8.338 5.444zM132.482 110.194c1.058 5.376 2.114 10.74 3.183 16.114.793 4.014 1.585 8.087 1.357 12.174-.147 2.651-.722 5.252-1.289 7.829-.481 2.165-.952 4.327-1.431 6.503-.148.704-.355 1.465-.942 1.877-.783.542-1.922.171-2.536-.566-.611-.725-.816-1.701-1.013-2.632l-1.52-7.423c-2.372-11.567-4.746-23.144-6.365-34.85-.037-.262-.069-.559.089-.775.155-.227.457-.294.729-.333 3.941-.698 8.657-3.732 9.738 2.082z" fill="#D86C00"/><path d="M108.768 117.95c1.188 6.704 2.388 13.405 3.577 20.109.282 1.58.566 3.17.992 4.712.707 2.549 1.808 4.968 2.896 7.377a976.568 976.568 0 012.228 4.913c.455 1.011 1.035 2.127 2.101 2.419 1.055.293 2.17-.404 2.74-1.338.56-.931.698-2.065.822-3.149.153-1.427.32-2.845.473-4.273.168-1.535.345-3.083.35-4.623-.002-2.261-.372-4.5-.807-6.716-1.67-8.479-4.334-16.797-5.017-25.413-.186-2.437-1.308-2.905-3.544-2.419-1.676.37-3.25.406-4.946.547-4.221.377-2.414 4.902-1.865 7.854zM120.062 80.492c.068-.385.171-.766.277-1.135.748-2.67.964-5.449 1.186-8.195.229-2.77.812-5.513 1.413-8.225.107-.486.337-1.065.831-1.098 1.669 4.41 1.57 5.63 2.263 10.292.27 1.827.676 3.64 1.003 5.456.502 2.576.968 8.773 1.482 11.347.232 1.123.421 2.265.752 3.357.219.74.517 1.466.725 2.209.227.785.376 1.585.525 2.385.245 1.319.49 2.637.726 3.969.139.743.233 1.623-.295 2.164-.373.373-.939.455-1.462.517a167.897 167.897 0 00-13.203 2.117c-.258.049-.515.108-.774.028-.69-.21-.759-1.141-.635-1.852.573-3.359 1.435-5.105 2.057-8.45.451-2.392 1.441-5.514 1.931-8.507l1.198-6.379zM95.97 84.973a11.205 11.205 0 00-.667-.96c-1.657-2.222-2.858-4.738-4.052-7.22-1.21-2.504-2.74-4.854-4.276-7.168-.275-.415-.697-.873-1.17-.726.028 4.716.559 5.818 1.589 10.418.404 1.801.676 3.64 1.025 5.451.457 2.585 2.25 8.535 2.696 11.121.188 1.131.422 2.265.505 3.404.062.769.045 1.554.118 2.321.07.815.219 1.615.368 2.415.245 1.318.49 2.637.749 3.964.138.744.367 1.599 1.053 1.914.482.214 1.04.087 1.55-.043a167.819 167.819 0 0113.082-2.771c.258-.048.519-.085.732-.253.569-.444.298-1.338-.073-1.957-1.743-2.928-3.174-4.247-4.958-7.145-1.28-2.07-3.326-4.627-4.86-7.245l-3.41-5.52z" fill="#F98E12"/><path d="M99.725 86.023c1.111 1.787 2.214 3.587 3.325 5.374 2.449 3.974 4.909 7.947 7.356 11.91.268.44.663.938 1.173.866.532-.076.763-.713.875-1.235.61-2.725 1.21-5.436 1.82-8.161.934-4.172 1.866-8.356 2.799-12.528.172-.766.341-1.544.513-2.31l.893-4.013c1.13-5.06 2.266-10.144 2.621-15.305.037-.485.036-1.056-.348-1.369-.331-.276-.802-.247-1.236-.201-1.551.16-1.954.375-3.505.535-.627.07-1.278.133-1.86.38-.431.186-1.279.565-2.123.722-.921.171-1.999.57-2.912.786l-6.492 1.488c-2.867.66-5.796.541-8.628 1.138-1.756.373-4.1.716-5.64 1.69-1.925 1.22-.42 2.69.609 4.025 1.832 2.41 3.551 4.9 5.207 7.425 1.92 2.884 3.737 5.834 5.553 8.783z" fill="#D86C00"/><path d="M53.101 72.533c-.201.48-.063 1.037.09 1.545a104.88 104.88 0 013.522 19c.15 1.686.614 3.803 2.276 4.111.555.107 1.133-.035 1.687-.185a208.006 208.006 0 0121.926-4.428c1.346-.203 2.914-.53 3.508-1.771.243-.512.264-1.087.262-1.658a21.252 21.252 0 00-1.676-8.198c-.457-1.08-1-2.122-1.323-3.24-.84-2.828-.27-5.895-.956-8.763-.176-.76-.47-1.533-1.054-2.042-1.097-.962-2.777-.673-4.188-.317-4.806 1.173-9.61 2.358-14.427 3.534-1.802.44-3.19.546-4.997.521-1.42-.004-4.013.373-4.65 1.89z" fill="#F98E12"/><path d="M61.694 100.102c-.39.714.075 1.653.767 2.06.704.406 1.547.436 2.365.458 5.094.125 10.22.548 15.14 1.859 1.359.366 2.717.789 4.123.784 1.337-.004 2.632-.42 3.879-.908.563-.221 1.17-.521 1.353-1.103.103-.322.047-.684-.013-1.011-.375-2.076-.75-4.151-1.123-6.226-.08-.428-.18-.9-.549-1.134-.384-.255-.886-.138-1.327-.01-4.655 1.297-9.451 2.026-14.248 2.627-1.716.214-3.41.424-5.095.807-1.35.31-4.514.432-5.272 1.797zM9.885 57.348c-.264.084-.525.18-.72.379-.323.328-.357.836-.352 1.3.042 2.29.522 4.555 1.008 6.796.487 2.241.964 4.496 1.45 6.737.106.505.256 1.06.692 1.34.38.232.86.19 1.292.133 4.123-.534 8.246-1.067 12.37-1.59 2.521-.328 5.11-.67 7.335-1.9.316-.175.628-.373.843-.658.445-.607.324-1.447.197-2.193-.65-3.552-1.285-7.094-1.934-10.645-.186-1.003-.416-2.115-1.229-2.733-.828-.639-1.977-.565-3.017-.465-.48.043-.97.1-1.451.142-1.291.123-2.582.247-3.849.506-4.203.852-8.566 1.465-12.635 2.851zM199.639 28.155c-.243.069-.486.137-.674.254-.323.2-.385.491-.409.74-.126 1.26.158 2.477.452 3.682.283 1.206.565 2.413.859 3.617.062.269.152.566.536.693.322.104.764.045 1.171-.02l11.367-1.729c2.319-.35 4.693-.72 6.805-1.557.304-.114.593-.25.806-.418.445-.362.395-.82.33-1.227-.343-1.906-.676-3.826-1.019-5.732-.101-.541-.234-1.134-.928-1.425-.707-.3-1.765-.173-2.72-.053-.443.058-.885.117-1.328.177-1.179.16-2.361.31-3.539.541-3.893.77-7.914 1.414-11.709 2.457z" fill="#D86C00"/><path d="M88.979 52.443c-.322.083-.646.155-.901.284-.427.207-.533.449-.594.681-.27 1.112 0 2.134.272 3.156l.815 3.066c.066.232.16.483.638.557.419.062.996-.022 1.527-.109 4.988-.823 9.966-1.632 14.954-2.455 3.048-.497 6.172-1.02 8.994-1.917.394-.132.8-.266 1.094-.437.608-.358.593-.751.53-1.09-.28-1.626-.572-3.262-.851-4.889-.086-.462-.214-.962-1.1-1.16-.897-.194-2.281-.006-3.537.18-.589.087-1.164.182-1.753.268-1.551.23-3.099.472-4.648.772-5.111.974-10.4 1.864-15.44 3.093z" fill="#F98E12"/><path d="M86.778 40.611c-.322.084-.646.155-.9.284-.427.208-.534.45-.595.682-.27 1.111.001 2.133.273 3.155l.814 3.066c.067.233.16.484.639.558.418.062.996-.022 1.526-.11 4.988-.822 9.967-1.631 14.954-2.454 3.048-.497 6.173-1.02 8.995-1.918.394-.131.799-.265 1.093-.436.608-.358.593-.752.53-1.09-.279-1.626-.572-3.262-.851-4.889-.086-.462-.214-.963-1.099-1.16-.897-.194-2.281-.007-3.538.18-.588.087-1.164.182-1.752.268-1.551.23-3.1.472-4.649.771-5.11.974-10.4 1.864-15.44 3.093z" fill="#D86C00"/><path d="M84.576 28.769c-.322.083-.646.155-.901.284-.427.207-.533.449-.594.682-.27 1.11 0 2.133.272 3.155l.815 3.066c.066.232.16.483.638.557.42.062.997-.022 1.527-.109 4.988-.823 9.966-1.632 14.954-2.455 3.048-.496 6.172-1.02 8.994-1.917.395-.132.8-.265 1.094-.437.608-.357.593-.751.53-1.089-.279-1.627-.572-3.263-.851-4.89-.086-.462-.214-.962-1.1-1.159-.897-.195-2.281-.007-3.537.18-.589.086-1.164.181-1.753.268-1.55.23-3.099.471-4.648.77-5.111.975-10.4 1.865-15.44 3.094zM34.022 53.43c-.054.209-.014.423.012.627a2945.56 2945.56 0 011.628 9.945c.137.86.29 1.741.782 2.454.7-.049 1.099-.787 1.387-1.424a114.992 114.992 0 016.629-12.575c.783-1.288 1.601-2.583 1.872-4.067.032-.204.057-.442-.085-.58-.201-.206-.53-.099-.787.02-2.248 1.047-4.497 2.083-6.745 3.13-.952.446-1.887.923-2.842 1.356-.575.282-1.662.38-1.851 1.114z" fill="#F98E12"/><path d="M49.837 46.724c-.052.22-.008.456.022.683.61 3.652 1.219 7.305 1.817 10.959.152.939.323 1.921.83 2.713.7-.049 1.088-.843 1.366-1.536 1.88-4.71 4.02-9.281 6.421-13.691.765-1.39 1.558-2.82 1.805-4.428.03-.215.051-.476-.097-.646-.205-.23-.534-.122-.79.007l-6.71 3.311c-.949.468-1.877.979-2.827 1.435-.574.293-1.672.392-1.837 1.193z" fill="#D86C00"/><path d="M66.072 39.776c-.042.276.015.58.056.864.787 4.61 1.577 9.23 2.353 13.843.198 1.187.417 2.428.967 3.445.704-.026 1.056-1.012 1.305-1.863 1.673-5.825 3.613-11.466 5.828-16.88.704-1.716 1.438-3.461 1.61-5.475.019-.272.028-.6-.129-.816-.218-.297-.544-.178-.796-.026a1809.13 1809.13 0 01-6.612 3.84c-.934.547-1.846 1.148-2.783 1.672-.567.327-1.66.39-1.8 1.396z" fill="#F98E12"/><path d="M38.792 66.882c-.26.48-.445 1.237.073 1.456.19.08.392.043.594.006 2.406-.448 4.811-.895 7.22-1.331 1.135-.212 2.444-.548 2.915-1.58.28-.623.182-1.34.056-2.016a133.332 133.332 0 00-2.137-9.803c-.11-.399-.367-.91-.781-.822-.214.04-.353.229-.47.414-2.884 4.255-5.016 9.175-7.47 13.676z" fill="#D86C00"/><path d="M55.059 63.297c-.264.644-.439 1.644.143 1.955.207.114.431.072.645.032 2.63-.49 5.275-.97 7.905-1.459 1.248-.232 2.675-.625 3.142-1.994.288-.824.133-1.785-.026-2.7a204.92 204.92 0 00-2.81-13.234c-.136-.545-.45-1.233-.909-1.136-.234.055-.376.291-.496.523-2.962 5.587-5.101 12.094-7.594 18.013z" fill="#F98E12"/><path d="M71.849 60.082c-.215.657-.337 1.694.181 2.04.185.118.39.092.58.056 2.328-.433 4.657-.854 6.973-1.285 1.101-.205 2.349-.565 2.737-1.978.227-.846.06-1.864-.102-2.802a265.914 265.914 0 00-2.883-13.873c-.129-.57-.429-1.307-.84-1.207-.2.049-.33.294-.425.533-2.474 5.706-4.181 12.412-6.221 18.516z" fill="#D86C00"/><path d="M164.605 28.516c.125.174.165.389.214.59.682 3.288 1.363 6.577 2.056 9.864.182.852.356 1.729.152 2.571-.671.207-1.307-.34-1.806-.83a114.827 114.827 0 00-10.706-9.351c-1.194-.92-2.423-1.835-3.209-3.122-.103-.18-.212-.392-.129-.57.113-.267.459-.284.741-.267 2.474.17 4.946.328 7.42.497 1.048.073 2.092.182 3.139.244.65.054 1.699-.246 2.128.374z" fill="#F98E12"/><path d="M147.446 27.93c.127.186.171.422.224.646.745 3.627 1.489 7.254 2.245 10.879.196.93.389 1.909.2 2.83-.671.206-1.318-.396-1.827-.943a127.468 127.468 0 00-10.913-10.467c-1.214-1.022-2.467-2.07-3.276-3.483-.106-.19-.219-.425-.142-.638.109-.288.454-.306.739-.277l7.453.677c1.053.096 2.103.239 3.154.323.64.067 1.689-.233 2.143.453z" fill="#D86C00"/><path d="M129.789 27.297c.138.242.195.546.258.826.923 4.585 1.847 9.18 2.781 13.763.243 1.18.484 2.417.337 3.563-.667.23-1.349-.565-1.888-1.27-3.655-4.833-7.493-9.4-11.506-13.655-1.275-1.349-2.587-2.713-3.471-4.53-.116-.247-.242-.55-.174-.808.097-.356.445-.362.733-.31 2.518.405 5.036.811 7.552 1.206 1.067.174 2.134.407 3.198.56.658.099 1.701-.235 2.18.655z" fill="#F98E12"/><path d="M164.383 42.896c.404.356.826 1 .444 1.386-.136.142-.328.178-.519.213-2.27.422-4.553.847-6.821 1.28-1.079.201-2.344.343-3.121-.457-.462-.485-.628-1.188-.754-1.865a133.524 133.524 0 01-1.541-9.913c-.053-.41.004-.98.399-1.042.203-.038.389.09.554.223 4.029 2.97 7.628 6.812 11.359 10.175zM180.838 28.376c.097.145.14.312.171.481l1.678 8.082c.141.696.286 1.415.125 2.11-.552.16-1.075-.278-1.487-.68a97.34 97.34 0 00-8.764-7.66c-.977-.752-1.979-1.51-2.627-2.555-.085-.147-.175-.317-.11-.469.088-.214.375-.233.61-.218l6.078.408c.86.062 1.714.148 2.572.198.542.039 1.404-.203 1.754.303z" fill="#D86C00"/><path d="M180.365 40.215c.323.301.653.823.362 1.133-.107.114-.264.143-.41.17l-5.397 1.004c-.854.158-1.844.273-2.468-.392-.376-.397-.497-.98-.608-1.52a114.803 114.803 0 01-1.274-8.098c-.04-.342.002-.804.319-.852.157-.029.306.083.441.186 3.189 2.45 6.068 5.61 9.035 8.369zM194.93 28.541c.08.114.105.25.13.384l1.323 6.364c.114.55.23 1.112.099 1.66-.43.127-.842-.216-1.168-.528a74.528 74.528 0 00-6.89-6.028c-.761-.593-1.559-1.19-2.071-2.005-.068-.116-.14-.254-.08-.37.074-.165.292-.182.48-.17 1.591.111 3.191.21 4.782.322.672.05 1.349.123 2.019.161.419.004 1.092-.191 1.376.21z" fill="#F98E12"/><path d="M194.458 37.885c.253.233.513.628.278.87-.077.084-.201.107-.313.128l-4.182.778c-.652.12-1.438.209-1.916-.297-.29-.307-.385-.756-.462-1.173a89.385 89.385 0 01-.977-6.253c-.037-.261.001-.618.239-.651.124-.023.244.06.339.135 2.47 1.896 4.692 4.339 6.994 6.463z" fill="#D86C00"/><path d="M148.815 45.301c.485.481 1.001 1.318.558 1.809-.155.168-.389.224-.614.265-2.698.502-5.383 1.013-8.081 1.515-1.27.236-2.775.4-3.718-.673-.562-.641-.767-1.559-.931-2.438-.832-4.287-1.518-8.6-2.053-12.92-.065-.535-.017-1.279.459-1.344.238-.032.467.135.66.297 4.842 3.96 9.219 9.046 13.72 13.49z" fill="#F98E12"/><path d="M131.453 48.437c.432.514.901 1.406.54 1.905-.13.176-.321.211-.51.258-2.271.422-4.529.854-6.8 1.276-1.068.199-2.338.307-3.178-.831-.5-.688-.705-1.664-.886-2.575a248.798 248.798 0 01-2.216-13.542c-.082-.567-.061-1.33.334-1.391.205-.026.402.159.575.336 4.252 4.292 8.142 9.759 12.141 14.564z" fill="#D86C00"/></g><g clip-path="url(#prefix__clip1)"><path d="M55.142 369.415c11.807 19.909 30.23 31.79 49.124 37.345 18.894 5.556 38.53 3.036 57.828 5.189 133.421 14.927 209.861-2.106 314.791-3.158 16.065-.16 32.956-.602 46.84-11.064 13.883-10.462 13.244-54.829 13.799-73.14.366-12.182-12.521 3.647-21.817 1.767-9.297-1.88-18.753-.16-28.077 1.401-52.499 8.76-105.486 12.21-158.416 11.919-67.961-.376-135.903-6.919-203.169-19.571.311-4.446 6.562-.507 5.217 3.61-1.334 4.117-5.527 4.831-8.967 4.925-18.95-4.841-76.44-47.187-76.524-21.713-.075 20.792.667 47.6 9.371 62.49z" fill="#22C79E"/><path d="M537.646 331.684c-.244 14.485-5.076 29.619-17.004 36.95-.508.329-1.034.63-1.57.912-7.623 4.052-16.619 4.381-25.248 4.616l-54.247 1.494c-4.587.122-9.174.254-13.761.376-14.429.395-28.848.799-43.277 1.194-15.538.423-31.085.855-46.623 1.278-11.487.32-22.983.63-34.469.95-38.652 1.062-77.483 2.105-116.06.15-21.009-1.053-41.942-3.008-62.744-6.326-4.362-.696-8.78-1.504-13.188-2.482-22.494-4.925-44.668-13.977-56.277-33.256a49.054 49.054 0 01-1.74-3.14c-3.139-6.204-4.934-12.934-5.507-19.833l-.057-.668a62.075 62.075 0 01-.047-8.469c.77-12.633 5.245-25.276 12.483-35.682 2.5-3.6 5.443-7.247 8.742-10.763a96.254 96.254 0 018.76-8.262c10.716-8.902 23.585-15.51 36.519-15.642 19.072-.188 37.186 2.435 56.672 1.072 5.113-.357 10.227-.696 15.35-1.015a2443.325 2443.325 0 0190.586-4.117c.902-.029 1.814-.047 2.717-.076a1935.37 1935.37 0 0116.478-.366c4.634-.104 9.268-.179 13.902-.245 8.319-.122 16.628-.197 24.947-.225 24.158-.103 48.315.15 72.464.752l4.145.113c16.487.47 33.21 1.363 49.142 5.066 7.783 1.796 15.369 4.258 22.645 7.661a92.019 92.019 0 0111.702 6.561 96.94 96.94 0 0111.957 9.315c18.649 17.014 30.879 41.191 32.486 66.439.122 1.861.169 3.76.122 5.668z" fill="#9ADCCC"/><path opacity=".8" d="M344.329 278.856c-4.465.893-16.092 5.011-24.816 6.609 4.588 3.102 9.099 6.326 13.564 9.578 11.083 8.075 22.005 16.375 32.928 24.684 24.524 18.64 49.048 37.289 73.573 55.929-4.587.122-9.175.254-13.762.376a306.408 306.408 0 00-69.352-54.303c-12.201-6.974-24.891-13.122-36.518-21.018-10.293-6.984-19.665-15.293-30.249-21.826-11.205-6.909-23.725-11.647-36.659-14.081-3.713-.696-23.002-1.194-30.493-2.538-13.113 3.976-26.583 6.768-40.251 7.05-11.9.244-23.847-1.41-35.672-.029-25.154 2.933-45.674 18.076-67.162 30.588 2.162.977 4.23 2.039 5.922 2.575 13.329 4.202 27.466 5.33 41.369 5.452 20.849.188 41.876-1.739 62.443 1.701 12.915 2.162 25.389 6.402 37.693 10.895 15.059 5.499 30.005 11.421 44.217 18.856a229.66 229.66 0 0133.106 21.084c6.345 4.841 12.869 11.289 15.162 18.517l-8.149.226c-32.505-32.862-75.829-54.923-121.578-61.644-26.357-3.863-53.1-2.801-79.579-5.339-11.722-1.119-28.406-1.561-38.803-7.586a10.55 10.55 0 01-.14-.085c-3.949 2.106-7.953 4.061-12.042 5.772-3.412 1.419-8.78 3.309-13.15 4.268l-.057-.668a62.075 62.075 0 01-.047-8.469c12.117-9.879 29.384-15.143 43.052-22.466 18.395-9.851 37.214-20.021 58.119-23.142 15.077-2.237 30.484-.696 45.627-2.397 16.525-1.852 32.354-7.52 47.995-13.151 12.342-4.446 24.694-8.882 37.036-13.329a1935.37 1935.37 0 0116.478-.366 345.249 345.249 0 01-57.621 27.024c8.065.292 16.478 1.373 18.959 1.711 12.897 1.758 25.54 5.377 37.383 10.791 5.951 2.726 11.675 5.866 17.249 9.287 3.403-1.598 8.61-2.641 10.293-2.979 11.27-2.247 22.578-4.324 33.886-6.402 24.825-4.559 49.773-9.202 74.833-12.332 21.262-2.99 42.59-5.462 63.966-7.417a96.908 96.908 0 0111.956 9.315c-42.647-.733-85.115 5.18-127.001 12.812-11.252 2.05-22.485 4.249-33.708 6.467z" fill="#fff"/></g><mask id="prefix__a" maskUnits="userSpaceOnUse" x="37" y="219.09" width="510" height="206" fill="#000"><path fill="#fff" d="M37 219.09h510v206H37z"/><path fill-rule="evenodd" clip-rule="evenodd" d="M537.501 336.326c.259-2.208.403-4.431.44-6.639.047-1.908 0-3.807-.122-5.668l-.029-.432.029-.996c.044-1.482-.107-2.549-.424-3.284-2.735-23.525-14.576-45.774-32.062-61.726a96.843 96.843 0 00-11.957-9.315 92.019 92.019 0 00-11.702-6.561c-7.276-3.403-14.862-5.866-22.645-7.661-15.932-3.704-32.655-4.597-49.142-5.067l-4.145-.112a2479.445 2479.445 0 00-72.464-.752c-8.319.028-16.628.103-24.947.225-4.634.066-9.268.141-13.902.245a1934.453 1934.453 0 00-17.837.404c-.453.012-.907.023-1.358.037a2447.574 2447.574 0 00-90.586 4.117c-5.123.32-10.237.658-15.35 1.016-11.428.799-22.385.228-33.339-.344-7.724-.403-15.446-.806-23.333-.728-12.934.132-25.803 6.74-36.518 15.641a96.402 96.402 0 00-8.761 8.263 95.187 95.187 0 00-8.742 10.763c-7.238 10.405-11.712 23.048-12.483 35.682a61.994 61.994 0 00-.054 6.789c.1 19.868 1.388 43.543 9.37 57.195 11.805 19.909 30.23 31.791 49.123 37.346 11.971 3.52 24.239 3.798 36.531 4.077 7.109.161 14.226.323 21.297 1.112 88.947 9.951 152.57 5.698 216.192 1.445 31.811-2.126 63.622-4.253 98.599-4.604 16.065-.159 32.956-.601 46.84-11.063 11.089-8.356 12.913-38.342 13.481-59.405z"/></mask><path d="M537.941 329.687l-8.997-.221-.001.035-.001.034 8.999.152zm-.44 6.639l-8.939-1.049-.047.402-.011.405 8.997.242zm.318-12.307l-8.982.572.001.009v.009l8.981-.59zm-.029-.432l-8.997-.243-.011.43.029.428 8.979-.615zm.029-.996l8.995.272.001-.002-8.996-.27zm-.424-3.284l-8.94 1.039.153 1.312.522 1.212 8.265-3.563zm-32.062-61.726l6.066-6.649-.001-.001-6.065 6.65zm-11.957-9.315l-4.957 7.512.004.002 4.953-7.514zm-11.702-6.561l-3.813 8.152 3.813-8.152zm-22.645-7.661l-2.037 8.766.007.002.007.002 2.023-8.77zm-49.142-5.067l.256-8.996h-.011l-.245 8.996zm-4.145-.112l.244-8.997h-.01l-.01-.001-.224 8.998zm-72.464-.752l.031 9 .008-.001-.039-8.999zm-24.947.225l.128 8.999h.004l-.132-8.999zm-13.902.245l.154 8.998h.023l.023-.001-.2-8.997zm-16.478.366l-.231-8.997-.025.001-.026.001.282 8.995zm-1.359.038l.233 8.997-.233-8.997zm-1.358.037l.236 8.997h.023l.022-.001-.281-8.996zm-25.765.828l-.335-8.994h-.001l.336 8.994zm-64.821 3.289l.56 8.983h.007l.007-.001-.574-8.982zm-15.35 1.016l-.627-8.978h-.001l.628 8.978zm-33.339-.344l.469-8.988-.469 8.988zm-23.333-.728l-.089-8.999h-.003l.092 8.999zm-36.518 15.641l-5.751-6.923-.003.003 5.754 6.92zm-8.761 8.263l6.563 6.159.005-.007.006-.006-6.574-6.146zm-8.742 10.763l7.389 5.139.003-.005-7.392-5.134zm-12.483 35.682l8.982.565v-.009l.001-.008-8.983-.548zm-.054 6.789l9-.046-.001-.187-.009-.187-8.99.42zm9.37 57.195l-7.77 4.543.014.024.014.024 7.741-4.591zm49.123 37.346l2.539-8.634-2.539 8.634zm36.531 4.077l.205-8.998-.205 8.998zm21.297 1.112l1-8.944-.003-.001-.997 8.945zm216.192 1.445l.6 8.98-.6-8.98zm98.599-4.604l-.089-8.999h-.001l.09 8.999zm46.84-11.063l-5.417-7.188 5.417 7.188zm4.922-66.196a57.497 57.497 0 01-.38 5.742l17.877 2.099c.296-2.519.459-5.042.501-7.537l-17.998-.304zm-.104-4.926c.106 1.614.146 3.241.106 4.857l17.994.443a71.5 71.5 0 00-.139-6.48l-17.961 1.18zm-.027-.407l.026.389 17.964-1.144-.032-.476-17.958 1.231zm17.976-.373l.027-.966-17.991-.545-.03 1.026 17.994.485zm.028-.968c.06-2.006-.075-4.612-1.155-7.117l-16.53 7.126a4.727 4.727 0 01-.247-.714 2.546 2.546 0 01-.063-.307c-.007-.054.014.081.003.471l17.992.541zm-47.548-58.631c15.962 14.562 26.716 34.851 29.188 56.116l17.88-2.078c-2.997-25.784-15.927-49.993-34.936-67.336l-12.132 13.298zm-10.844-8.45a87.956 87.956 0 0110.845 8.451l12.13-13.3a105.966 105.966 0 00-13.068-10.179l-9.907 15.028zm-10.562-5.923a83.085 83.085 0 0110.558 5.921l9.915-15.024a101.107 101.107 0 00-12.848-7.202l-7.625 16.305zm-20.855-7.043c7.276 1.678 14.246 3.952 20.855 7.043l7.625-16.305c-7.942-3.714-16.144-6.365-24.434-8.278l-4.046 17.54zm-47.376-4.84c16.436.468 32.377 1.353 47.362 4.836l4.075-17.532c-16.881-3.924-34.385-4.826-50.924-5.297l-.513 17.993zm-4.133-.113l4.145.113.49-17.993-4.146-.113-.489 17.993zm-72.18-.749c24.069-.103 48.139.15 72.2.75l.449-17.995c-24.235-.603-48.48-.858-72.726-.754l.077 17.999zm-24.854.225c8.285-.122 16.561-.196 24.846-.224l-.061-18c-8.353.028-16.697.103-25.049.226l.264 17.998zm-13.834.243c4.599-.102 9.206-.177 13.83-.243l-.256-17.998c-4.645.066-9.306.142-13.975.246l.401 17.995zm-16.448.366c5.492-.141 10.951-.271 16.402-.365l-.309-17.997c-5.528.095-11.048.227-16.554.368l.461 17.994zm-1.356.038c.45-.012.927-.024 1.407-.039l-.563-17.991c-.423.013-.852.024-1.31.036l.466 17.994zm-1.31.036c.423-.013.853-.024 1.31-.036l-.466-17.994c-.449.011-.927.024-1.406.039l.562 17.991zm-25.711.825c8.565-.318 17.114-.599 25.666-.824l-.472-17.994c-8.631.227-17.246.51-25.864.831l.67 17.987zm-64.582 3.278a2438.991 2438.991 0 0164.583-3.278l-.672-17.987a2452.42 2452.42 0 00-65.06 3.302l1.149 17.963zm-15.297 1.012c5.091-.356 10.183-.693 15.283-1.011l-1.121-17.965c-5.145.321-10.281.661-15.416 1.02l1.254 17.956zm-34.435-.334c10.88.567 22.374 1.177 34.436.334l-1.256-17.956c-10.795.755-21.213.222-32.242-.354l-.938 17.976zm-22.775-.716c7.562-.075 15.009.311 22.775.716l.938-17.976c-7.681-.4-15.68-.82-23.891-.739l.178 17.999zm-30.856 13.564c9.895-8.22 20.813-13.462 30.859-13.564l-.184-17.999c-15.822.161-30.641 8.135-42.177 17.717l11.502 13.846zm-7.938 7.486a87.362 87.362 0 017.94-7.488l-11.507-13.841a105.18 105.18 0 00-9.582 9.037l13.15 12.292zm-7.924 9.751c2.243-3.23 4.906-6.535 7.912-9.738L60.784 250.83c-3.592 3.828-6.813 7.817-9.571 11.788l14.784 10.268zm-10.892 31.096c.668-10.947 4.57-22.008 10.889-31.091l-14.777-10.278c-8.158 11.728-13.204 25.953-14.078 40.272l17.966 1.097zm-.047 5.821a53.016 53.016 0 01.046-5.804l-17.964-1.131a71.042 71.042 0 00-.062 7.775l17.98-.84zm-17.99.465c.05 10.059.4 21.388 1.806 32.059 1.384 10.503 3.895 21.254 8.793 29.634l15.54-9.085c-3.083-5.273-5.207-13.186-6.487-22.9-1.258-9.547-1.603-19.989-1.652-29.799l-18 .091zm10.628 61.741c13.162 22.196 33.648 35.309 54.326 41.389l5.078-17.268c-17.11-5.031-33.472-15.68-43.922-33.302l-15.482 9.181zm54.326 41.389c13.301 3.911 26.768 4.166 38.866 4.441l.409-17.996c-12.486-.283-23.556-.585-34.197-3.713l-5.078 17.268zm38.866 4.441c7.176.163 13.893.321 20.503 1.058l1.995-17.889c-7.532-.84-15.047-1.005-22.089-1.165l-.409 17.996zm20.5 1.058c89.796 10.046 154.097 5.739 217.793 1.481l-1.2-17.96c-63.548 4.248-126.493 8.447-214.592-1.409l-2.001 17.888zm217.793 1.481c31.836-2.128 63.404-4.236 98.09-4.584l-.181-17.999c-35.268.354-67.323 2.498-99.109 4.623l1.2 17.96zm98.089-4.584c15.683-.156 35.587-.382 52.166-12.876l-10.833-14.375c-11.188 8.431-25.066 9.088-41.512 9.252l.179 17.999zm52.166-12.876c4.641-3.497 7.617-8.659 9.636-13.668 2.069-5.134 3.49-11.011 4.505-16.937 2.029-11.852 2.635-25.163 2.92-35.744l-17.993-.485c-.283 10.482-.872 22.695-2.669 33.191-.899 5.247-2.049 9.749-3.458 13.246-1.46 3.622-2.87 5.341-3.774 6.022l10.833 14.375z" fill="#fff" mask="url(#prefix__a)"/><g clip-path="url(#prefix__clip2)"><path d="M100.547 222.219c9.455-.732 23.407-1.925 24.795 6.76 1.305 8.147 3.115 13.328-4.959 14.494-8.074 1.165-29.464-.463-37.621-.642-11.983-.262-13.185 3.36-14.4 11.079-.235 1.504-2.21 2.049-3.723 1.904-4.821-.462-10.712-.269-14.946.772-5.063 1.249-9.856 5.14-10.491 10.334-.76 6.202 3.833 14.156-2.514 17.363-1.527.773-2.625 2.208-3.012 3.884-1.443 6.264-.352 6.085 1.12 11.507 1.954 7.181 10.546 4.953 17.929 5.581 22.958 1.952 46.026 2.255 69.06 2.552 22.163.29 58.14 2.159 80.304 2.449 72.672.952 130.129 6.691 202.504 0 41.516-3.836 84.8-10.996 117.904-36.437 13.102-10.072 24.629-23.703 27.233-40.066.456-2.849.518-6.098-1.409-8.244-1.837-2.049-4.855-2.394-7.59-2.58-20.237-1.338-40.591-.766-60.752 1.504-6.623.745-13.647 1.614-19.684-1.221-6.036-2.835-10.07-11.017-6.174-16.446 2.21-3.076 6.236-4.408 8.474-7.457 4.849-6.615-1.63-15.845-8.757-19.874-24.678-13.962-55.551-3.263-83.703-6.402-2.327-.262-4.765-.669-6.575-2.152-1.554-1.269-2.479-3.208-4.095-4.387-1.983-1.449-4.614-1.518-7.066-1.532-48.72-.255-97.439-.497-146.159-.738-5.899-.028-13.296.973-15.084 6.609-1.299 4.09 1.277 8.367 1.381 12.658.145 6.029-4.78 11.231-10.395 13.355-5.615 2.125-11.81 1.849-17.805 1.539-15.913-.821-31.833-1.573-47.746-2.456-9.828-.545-21.37-2.78-31.066-.283-7.964 2.049-13.185 7.795-10.298 16.639 3.584 11.024 15.954 9.934 25.32 9.934z" fill="#FFF2EA"/><path d="M91.596 271.57a104.522 104.522 0 00-19.497-.027c-1.243.117-2.535.289-3.557 1-1.948 1.345-2.252 4.049-2.37 6.408a8274.44 8274.44 0 01-.69 13.204c-.041.848-.083 1.738.297 2.497.787 1.601 2.915 1.877 4.697 1.945 9.91.394 19.822.787 29.733 1.187 9.455.379 18.903-.283 28.359-.152 79.8 1.104 136.455 5.747 205.094 4.733 48.74-.725 97.902-3.201 145.013-15.701 18.737-4.974 38.346-12.486 49.679-27.98.532-.731-.172-1.732-1.043-1.469-23.075 6.801-47.359 8.498-71.387 10.154-42.455 2.925-84.932 5.85-127.484 6.526-20.526.324-41.06.131-61.587-.007-57.422-.386-118.104 3.159-175.257-2.318z" fill="#013507"/><path d="M98.192 247.895c-6.084-.442-12.204-.463-18.268.234-.85.097-1.678.269-2.383.621-1.933.973-2.23 2.918-2.355 4.622l-.684 9.52c-.041.607-.076 1.248.297 1.8.788 1.152 2.894 1.352 4.662 1.407 9.842.283 19.691.573 29.533.856 9.393.269 18.794.09 28.173-.111 73.957-1.586 137.719 2.035 205.867.104 54.087-1.532 73.412 1.062 141.878-8.016 18.157-2.408 36.805-8.478 48.181-19.046.842-.78.11-2.18-1.016-1.946-22.578 4.698-46.288 5.905-69.764 7.078-42.165 2.111-84.358 4.222-126.62 4.705-20.389.234-40.778.089-61.173-.007-57.795-.269-118.905 2.359-176.328-1.821z" fill="#F98E12"/><path d="M443.299 242.052c21.41 0 42.814-1.214 64.114-3.442 4.041-.421 13.323-1.366 13.938-3.139 2.162-.849-35.597-.483-53.817-.173-7.742.131-31.619-1.69-38.429 1.877-5.325 2.78 5.636 4.877 14.194 4.877zM368.589 235.367c-.131 3.167.034 6.995 2.383 8.575 1.153.773 2.555.759 3.888.731 12.115-.289 24.222-.572 36.336-.862 3.322-.076 6.693-.166 9.891-1.221.58-.193 1.229-.504 1.402-1.173.241-.917-.546-1.724-1.237-2.256-5.746-4.428-11.126-9.512-16.037-15.155-1.699-1.953-3.357-3.981-5.339-5.526-5.781-4.511-14.773-4.925-21.59-4.912-3.115.007-7.867.38-8.986 4.07-1.443 4.822-.497 12.569-.711 17.729zM203.471 246.936a3470.092 3470.092 0 01122.828-.628c12.08.152 26.625.186 33.394-1.483 3.288-.814 3.785-1.842 4.075-2.815 1.872-6.27-.387-12.548-2.645-18.811-.401-1.104-.912-2.27-4.655-3.181-6.161-1.503-18.559-1.807-29.485-1.931a5312.65 5312.65 0 00-131.379.096c-9.745.132-20.617 1.898-26.28 1.746-7.825-.207-4.8 11.741-5.194 15.907-.518 5.616-6.817 11.948 39.341 11.1z" fill="#D86C00"/><path d="M232.189 201.565c31.018-.759 62.505-.421 93.731-.234 9.22.055 20.312.069 25.485-.545 2.507-.297 2.887-.676 3.108-1.042 1.43-2.318-.297-4.636-2.017-6.954-.303-.407-.697-.834-3.55-1.172-4.703-.559-14.158-.669-22.502-.711a8376.145 8376.145 0 00-100.257.035c-7.439.048-15.851.213-20.05.648-3.985.407-2.673 4.353-2.97 5.891-.401 2.077-2.1 4.85 29.022 4.084z" fill="#013507"/><path d="M419.816 205.049a17.146 17.146 0 015.719-.283c.559.069 1.236.083 1.554-.662.152-.359.179-.821.186-1.256.09-2.794-.02-5.587-.124-8.381-.021-.49-.042-1.007-.214-1.414-.29-.67-.864-.801-1.375-.863a25.933 25.933 0 00-6.119.042c-.456.055-.967.179-1.222.779-.657 1.532-.166 5.243-.18 7.099-.021 2.518-.373 5.318 1.775 4.939zM432.835 205.049a17.145 17.145 0 015.719-.283c.559.069 1.236.083 1.554-.662.152-.359.179-.821.186-1.256.09-2.794-.021-5.587-.124-8.381-.021-.49-.042-1.007-.214-1.414-.29-.67-.864-.801-1.375-.863a25.932 25.932 0 00-6.119.042c-.456.055-.967.179-1.223.779-.656 1.532-.165 5.243-.179 7.099-.021 2.518-.373 5.318 1.775 4.939z" fill="#D86C00"/><path d="M377.83 205.049a306.94 306.94 0 0124.319-.283c2.389.069 5.269.083 6.609-.662.65-.359.746-.821.808-1.256.373-2.794-.076-5.587-.525-8.381-.075-.49-.179-1.007-.918-1.414-1.223-.67-3.674-.801-5.836-.863a466.994 466.994 0 00-26.011.042c-1.927.055-4.116.179-5.201.779-2.783 1.532-.69 5.243-.773 7.099-.104 2.518-1.609 5.318 7.528 4.939zM100.589 205.511l-12.508.055c-2.169.007-3.937.469-4.04 1.056-.325 1.773-.643 3.553-.968 5.325-.096.532-.138 1.111 1.078 1.532 1.45.503 4.11.579 6.465.614 20.803.324 41.688.572 62.457.117 8.495-.186 18.606.007 27.129 0 6.852-.007 12.039-.317 18.876-.193 48.361.862 92.778-.276 145.22.559 5.256.082 10.561.227 15.658-.124 1.271-.09 2.458-.235 3.218-.511.898-.331.96-.773.981-1.186.097-1.711.2-3.415.297-5.126.028-.435.021-.904-.898-1.262-2.21-.87-8.012-.538-10.353-.642-4.455-.193-8.882-.221-13.392-.172-55.136.607-107.696-1.125-161.527-.173-6.119.111-12.218.283-18.337.386-6.009.104-12.032.132-18.054.166-12.432.062-28.87-.469-41.302-.421zM418.78 230.104c.939.869 1.899 1.745 3.046 2.318 1.975.993 4.289.972 6.506.938 4.24-.076 8.474-.152 12.715-.221.884-.014 1.837-.055 2.521-.614.898-.731.988-2.042 1.008-3.201.09-5.525.173-11.051.263-16.576-2.542-1.546-5.698-1.573-8.675-1.553-8.834.063-18.904-1.365-27.578.442-1.306.269-5.049.8-5.712 2.2-.926 1.967 2.666 4.077 3.943 5.25 3.986 3.663 7.902 7.43 11.963 11.017z" fill="#F98E12"/><path d="M371.262 183.009l-3.371.034c-.587.007-1.063.297-1.091.669-.09 1.132-.173 2.263-.262 3.394-.028.338-.035.711.29.973.393.317 1.105.373 1.74.393 5.608.207 11.237.366 16.839.076 2.293-.117 5.014 0 7.314 0 1.844-.007 3.246-.2 5.09-.124 13.04.552 25.009-.173 39.147.352 1.416.055 2.846.145 4.22-.076.345-.055.663-.152.87-.324.242-.214.256-.49.263-.752l.083-3.263c.007-.276.007-.573-.242-.807-.594-.552-2.162-.345-2.79-.407a27.351 27.351 0 00-3.612-.111c-14.864.387-29.036-.717-43.547-.11-1.651.069-3.295.179-4.945.248a192.86 192.86 0 01-4.87.104c-3.342.034-7.776-.304-11.126-.269z" fill="#D86C00"/><path d="M444.86 190.41c.338 1.539.414 3.098.228 4.643-.056.455-.069 1.007.538 1.262.297.124.67.145 1.023.152 2.272.069 4.551-.014 6.823-.096.401-.014.822-.035 1.154-.18.545-.234.656-.703.697-1.117a20.945 20.945 0 00-.034-4.967c-.049-.366-.145-.787-.636-.994-1.243-.531-4.268-.131-5.781-.144-2.037-.021-4.316-.304-4.012 1.441z" fill="#F98E12"/><path d="M47.138 280.648c.511 1.2.622 2.421.345 3.629-.083.358-.103.786.808.986.442.097 1.002.111 1.534.117 3.418.056 6.844-.013 10.256-.075.6-.014 1.236-.028 1.734-.138.822-.18.98-.552 1.056-.87a8.673 8.673 0 00-.048-3.883c-.07-.29-.221-.614-.953-.78-1.872-.414-6.423-.103-8.696-.117-3.066-.007-6.499-.235-6.036 1.131zM47.166 261.857c.78 1.2.96 2.421.525 3.629-.132.358-.153.786 1.243.986.677.097 1.54.111 2.362.117 5.256.056 10.526-.013 15.782-.075.925-.014 1.899-.028 2.665-.138 1.264-.18 1.513-.552 1.624-.87.428-1.29.4-2.593-.076-3.883-.11-.29-.339-.614-1.465-.78-2.88-.414-9.876-.103-13.378-.117-4.717-.007-10-.228-9.282 1.131z" fill="#D86C00"/><path d="M136.752 246.936c2.804-.883 5.643-1.083 8.461-.594.829.145 1.837.173 2.3-1.4.228-.766.262-1.738.283-2.663.131-5.925-.028-11.865-.18-17.784-.027-1.041-.062-2.145-.317-3.007-.422-1.422-1.278-1.704-2.031-1.829a26.766 26.766 0 00-9.048.09c-.67.124-1.429.38-1.809 1.649-.967 3.242-.242 11.134-.27 15.073-.041 5.319-.566 11.272 2.611 10.465z" fill="#013507"/><path d="M205.791 172.33c.843 5.332.587 7.077.629 10.237.014 1.297-.974 2.249 7.777 2.821 4.247.276 9.635.318 14.759.345 32.855.159 65.773-.034 98.607-.22 5.781-.035 11.887-.076 16.673-.394 7.894-.517 9.455-1.566 10.125-2.49 2.673-3.691 2.514-7.402-.49-11.093-.67-.821-2.114-1.752-9.152-2.221-17.992-1.186-61.725-.297-83.564-.331-29.498-.048-56.289-2.511-55.364 3.346z" fill="#F98E12"/><path d="M284.176 241.065a235.047 235.047 0 0125.036-.386c2.459.097 5.429.117 6.81-.918.67-.496.774-1.131.829-1.731.38-3.863-.076-7.733-.539-11.589-.083-.683-.186-1.394-.946-1.959-1.257-.925-3.785-1.111-6.009-1.194a357.375 357.375 0 00-26.777.055c-1.989.076-4.234.249-5.353 1.076-2.866 2.118-.711 7.258-.794 9.824-.117 3.463-1.664 7.347 7.743 6.822zM235.477 241.065a235.047 235.047 0 0125.036-.386c2.459.097 5.429.117 6.81-.918.67-.496.774-1.131.829-1.731.38-3.863-.076-7.733-.539-11.589-.083-.683-.186-1.394-.946-1.959-1.257-.925-3.785-1.111-6.009-1.194a357.375 357.375 0 00-26.777.055c-1.989.076-4.234.249-5.353 1.076-2.866 2.118-.711 7.258-.794 9.824-.117 3.463-1.664 7.347 7.743 6.822zM194.271 241.065a108.837 108.837 0 0117.025-.386c1.671.097 3.688.117 4.628-.918.455-.496.524-1.131.566-1.731.262-3.863-.055-7.733-.366-11.589-.055-.683-.125-1.394-.643-1.959-.856-.925-2.569-1.111-4.088-1.194a165.279 165.279 0 00-18.206.055c-1.354.076-2.88.249-3.64 1.076-1.948 2.118-.484 7.258-.539 9.824-.083 3.463-1.133 7.347 5.263 6.822zM331.362 243.031a51.814 51.814 0 0112.978-.476c1.277.118 2.811.138 3.529-1.124.345-.614.401-1.394.428-2.132.2-4.746-.041-9.499-.276-14.238-.042-.835-.097-1.718-.491-2.408-.649-1.138-1.961-1.365-3.114-1.462a78.407 78.407 0 00-13.883.069c-1.029.097-2.196.304-2.776 1.324-1.485 2.601-.373 8.913-.415 12.066-.048 4.263-.856 9.03 4.02 8.381z" fill="#FFF2EA"/></g><defs><clipPath id="prefix__clip0"><path fill="#fff" transform="rotate(-10.535 219.85 17.825)" d="M0 0h221.462v266.563H0z"/></clipPath><clipPath id="prefix__clip1"><path fill="#fff" transform="translate(45.705 230.09)" d="M0 0h491.96v187.95H0z"/></clipPath><clipPath id="prefix__clip2"><path fill="#fff" transform="translate(33 164.224)" d="M0 0h517v149.219H0z"/></clipPath></defs></svg>