<svg width="549" height="375" fill="none" xmlns="http://www.w3.org/2000/svg"><path d="M202.867 118.859c-.848.182-1.729.374-2.631.573l-2.546-9.541c.364-.076.727-.15 1.087-.229l-.414-1.9c-.389.085-.784.165-1.174.247-5.207-19.514-10.416-39.023-15.579-58.617-.021.055-.07-.184-.125-.51.026.094.053.19.076.285.781-1.595 1.56-3.187 2.338-4.785-2.493.397-4.981.798-7.472 1.202-4.027-4.1-8.172-8.08-12.425-11.933l-2.728-12.516c-.73-3.348-1.864-5.183-1.644-8.575-3.937.944-7.537 1.817-11.405 2.835.016.127.036.244.052.368-.316 1.833-2.633 3.414-2.967 5.175-.307 1.622.325 1.684.664 3.238l.998 4.582c.072.331.147.662.222.992-5.083.7-10.147 1.535-15.192 2.47l-.978-4.489c-.73-3.349-1.632-5.234-1.716-8.56-2.627.658-5.031 1.271-7.604 2.007.019.126.042.243.063.366-.088 1.782-1.567 3.18-1.673 4.892-.098 1.577.338 1.682.677 3.236l.999 4.582c-8.355 1.757-16.671 3.725-24.971 5.73-.901-4.794-.305-8.19-1.82-12.982-3.941.684-7.579 1.388-11.551 2.168 1.612 2.993 1.343 5.134 2.073 8.483l1.05 4.817c-8.392 2.04-16.785 4.077-25.178 6.117-.079-.374-.16-.747-.241-1.12l-1-4.582c-.337-1.552.015-1.83-.73-3.224-.809-1.512-2.733-2.172-3.554-3.754-.032-.12-.063-.235-.098-.358-2.646.402-5.087.845-7.75 1.34 1.308 3.059 1.273 5.149 2.003 8.497l1.233 5.66c-4.377 1.062-8.75 2.126-13.128 3.188-.116-.56-.235-1.119-.356-1.675l-.999-4.582c-.338-1.55.21-1.873-.743-3.22-1.035-1.464-3.803-1.94-4.852-3.471-.038-.12-.066-.236-.106-.357-3.94.684-7.578 1.388-11.55 2.168 1.611 2.993 1.343 5.134 2.073 8.482l2.682 12.307c-3.404 5.22-6.81 10.437-10.214 15.657a1814.73 1814.73 0 00-6.457 1.668c3.15 1.884 4.481 2.98 8.044 2.356l-3.15.687 13.291 60.449c-.905.197-1.809.389-2.714.586l.414 1.901c.905-.197 1.811-.392 2.717-.587l2.369 10.778c-.9.196-1.74.376-2.501.537.875.2 2.1.374 2.526.75l.246-.054c2.982 13.569 5.964 27.138 8.95 40.707 57.99-8.072 116.586-24.561 173.023-40.077a15081.556 15081.556 0 00-10.129-38.177l.576-.133c-.181-.485 1.372-1.514 1.619-2.075z" stroke="#FFF2EA" stroke-width="10.024" stroke-miterlimit="10" stroke-linejoin="round"/><path d="M13.337 81.097c4.233-6.49 8.468-12.978 12.701-19.469 1.086-1.662 2.204-3.361 3.797-4.526 1.71-1.25 3.817-1.775 5.869-2.272 18.486-4.492 36.973-8.984 55.46-13.474 20.322-4.936 40.702-9.885 61.474-12.341 1.714-.202 3.476-.386 5.151.061 2.114.566 3.855 2.066 5.499 3.54a296.79 296.79 0 0115.143 14.594l-73.765 66.661-91.33-32.774z" fill="#013507"/><path d="M211.151 159.17c-56.438 15.516-115.033 32.005-173.024 40.077-8.434-38.354-16.866-76.712-25.297-115.067l168.73-36.773c.066-.156.336 2.064.4 1.909 9.679 36.716 19.511 73.138 29.191 109.854z" fill="#F98E12"/><path d="M184.248 44.309a2113.9 2113.9 0 01-2.337 4.785l-.102-.38c-.205-.762-117.017 24.466-127.707 26.702a6719.813 6719.813 0 00-25.057 5.286c-4.29.913-8.57 1.95-12.88 2.76-3.7.693-5.02-.412-8.224-2.325a1848.882 1848.882 0 01176.307-36.828zM31.346 40.931c.884 1.763 3.924 2.204 5.019 3.75.953 1.349.405 1.668.743 3.222l.999 4.582c.471 2.162.905 4.33 1.26 6.502.163 1.007.687 2.29.31 3.287-.498 1.326-2.702 2.763-3.818 3.958-2.749-1.991-2.706-2.89-3.564-5.618-.99-3.153-2.118-6.664-2.665-9.9-.462-2.742-.468-6.37 1.716-9.783z" fill="#D86C00"/><path d="M25.61 68.376l-3.677-16.87c-.73-3.348-.462-5.49-2.073-8.482 3.973-.78 7.61-1.484 11.55-2.168 1.586 5.011.856 8.492 1.951 13.647.832 3.914 1.59 7.97 2.191 11.948-2.31.212-6.306 1.219-9.942 1.925zM89.527 54.446l-3.677-16.87c-.73-3.349-.461-5.49-2.073-8.483 3.973-.78 7.61-1.483 11.55-2.168 1.587 5.012.856 8.493 1.952 13.647.83 3.915 1.59 7.97 2.19 11.948-2.307.212-6.305 1.22-9.942 1.926z" fill="#F98E12"/><path d="M56.065 35.544c.727 1.796 2.836 2.44 3.69 4.04.744 1.393.391 1.67.73 3.224l.999 4.582c.47 2.162.918 4.328 1.309 6.491.182 1.003.627 2.304.439 3.26-.25 1.272-1.658 2.535-2.339 3.634-2.018-2.15-2.05-3.033-2.823-5.779-.894-3.174-1.906-6.71-2.504-9.935-.507-2.732-.761-6.306.5-9.517z" fill="#D86C00"/><path d="M54.032 62.182l-3.677-16.87c-.73-3.348-.694-5.439-2.002-8.498 2.663-.494 5.103-.937 7.75-1.34 1.43 5.046 1.17 8.425 2.274 13.577a302.954 302.954 0 012.32 11.92c-1.564.05-4.228.766-6.665 1.211z" fill="#F98E12"/><path d="M122.119 21.148c.086 1.936-1.564 3.399-1.674 5.209-.097 1.576.339 1.681.677 3.235l.999 4.582c.471 2.163.966 4.318 1.511 6.448.251.987.388 2.355.957 3.146.756 1.053 2.562 1.616 3.639 2.332.941-2.795.602-3.611.162-6.43-.507-3.258-1.059-6.895-1.857-10.076-.676-2.695-1.935-6.05-4.414-8.446z" fill="#D86C00"/><path d="M135.049 44.525l-3.676-16.87c-.73-3.349-1.632-5.235-1.716-8.56-2.627.658-5.03 1.27-7.604 2.006.799 5.183 2.441 8.147 3.582 13.292a300.712 300.712 0 002.85 11.804c1.442-.606 4.163-1.063 6.564-1.672z" fill="#F98E12"/><path d="M148.661 15.363c-.07 1.97-2.651 3.637-3.002 5.499-.307 1.622.325 1.684.664 3.238l.998 4.582a126.6 126.6 0 001.561 6.437c.27.983.328 2.368 1.085 3.118 1.005.999 3.608 1.388 5.118 2.01 1.672-2.954 1.259-3.754.904-6.591-.412-3.28-.847-6.942-1.696-10.112-.719-2.686-2.226-5.987-5.632-8.18z" fill="#D86C00"/><path d="M165.301 37.932l-3.677-16.87c-.73-3.349-1.864-5.184-1.644-8.576-3.937.944-7.537 1.817-11.405 2.835.643 5.217 2.756 8.078 3.904 13.221a207.531 207.531 0 002.98 11.776c2.187-.768 6.239-1.515 9.842-2.386z" fill="#F98E12"/><path d="M40.264 89.989l1.13 5.185c-.195 1.013.335 2.634.5 3.743a105.68 105.68 0 001.257 6.761c.436 2.004.748 4.132 1.35 6.105a91.576 91.576 0 00-2.904.636c-1.875-6.834-3.092-13.961-4.604-20.897.697-.698 1.877-1.185 3.27-1.533z" fill="#D86C00"/><path d="M54.803 110.375c-3.19.163-6.922.724-10.303 1.408-.602-1.973-.913-4.102-1.35-6.105a105.66 105.66 0 01-1.257-6.761c-.164-1.11-.695-2.73-.5-3.743l-1.13-5.186c3.123-.785 7.305-.887 9.46-1.193 2.659 6.707 3.386 14.537 5.08 21.58z" fill="#013507"/><path d="M70.793 104.891c.067.293.133.687.216 1.104-.51.111-1.013.226-1.498.34-1.875-6.834-3.09-13.961-4.602-20.897.323-.325.751-.602 1.256-.842.893 4.095 1.788 8.19 2.678 12.285.586 2.69 1.338 5.329 1.95 8.01z" fill="#D86C00"/><path d="M82.716 104.292c-3.639.186-7.98.891-11.707 1.703-.083-.417-.149-.811-.216-1.104-.612-2.681-1.364-5.32-1.95-8.01-.89-4.095-1.785-8.19-2.678-12.285 3.022-1.44 8.803-1.505 11.47-1.885 2.66 6.708 3.391 14.537 5.081 21.581zM92.823 79.354c1.512 6.936 2.727 14.063 4.604 20.897 4.014-.947 9.068-1.832 13.206-2.044-1.693-7.042-2.421-14.872-5.081-21.58-3.114.443-10.47.458-12.729 2.727z" fill="#013507"/><path d="M138.547 92.124c-.367.019-.745.043-1.126.074-.21-.795-.453-1.568-.599-2.138-.62-2.436-1.212-4.885-1.857-7.312-1.057-3.96-1.803-8.042-2.64-12.072.421-.042.805-.084 1.142-.132 2.659 6.707 3.39 14.537 5.08 21.58z" fill="#D86C00"/><path d="M137.42 92.198c-3.903.296-8.422 1.103-12.079 1.97-1.875-6.835-3.09-13.962-4.601-20.898 2.015-2.025 8.088-2.253 11.585-2.594.837 4.03 1.582 8.112 2.639 12.072.646 2.427 1.238 4.877 1.857 7.312.147.57.39 1.343.599 2.138z" fill="#013507"/><path d="M166.463 86.04c-1.154.06-2.378.171-3.629.32-1.521-7.197-2.876-14.406-4.396-21.608 1.146-.1 2.176-.183 2.945-.292 2.66 6.707 3.387 14.537 5.08 21.58z" fill="#D86C00"/><path d="M158.438 64.752c1.52 7.203 2.874 14.41 4.396 21.608-3.246.388-6.681 1.04-9.576 1.723-1.878-6.833-3.093-13.96-4.604-20.896 1.701-1.71 6.291-2.14 9.784-2.435zM43.98 123.579c1.511 6.935 2.726 14.063 4.604 20.896 4.014-.946 9.067-1.832 13.205-2.043-1.693-7.043-2.42-14.873-5.08-21.58-3.115.443-10.47.457-12.73 2.727zM71.896 117.495c1.511 6.935 2.727 14.063 4.604 20.896 4.014-.947 9.067-1.832 13.206-2.043-1.694-7.043-2.421-14.873-5.08-21.58-3.115.443-10.471.457-12.73 2.727zM99.81 111.411c1.512 6.935 2.727 14.063 4.604 20.896 4.014-.946 9.067-1.832 13.206-2.043-1.693-7.043-2.421-14.873-5.081-21.58-3.114.443-10.47.457-12.729 2.727zM127.724 105.327c1.511 6.936 2.726 14.063 4.604 20.897 4.014-.947 9.067-1.832 13.205-2.043-1.693-7.043-2.42-14.873-5.08-21.581-3.112.443-10.47.458-12.729 2.727zM155.64 99.243c1.512 6.936 2.727 14.063 4.604 20.897 4.014-.947 9.068-1.832 13.206-2.044-1.693-7.043-2.421-14.873-5.08-21.58-3.115.443-10.471.457-12.73 2.727zM52.12 160.93c1.512 6.935 2.727 14.063 4.604 20.896 4.014-.947 9.068-1.832 13.206-2.043-1.693-7.043-2.421-14.873-5.08-21.58-3.115.443-10.471.457-12.73 2.727zM80.036 154.845c1.512 6.936 2.727 14.063 4.605 20.897 4.013-.947 9.067-1.832 13.205-2.044-1.693-7.042-2.42-14.872-5.08-21.58-3.115.443-10.47.458-12.73 2.727zM107.95 148.762c1.512 6.935 2.727 14.063 4.605 20.896 4.013-.947 9.067-1.832 13.205-2.043-1.693-7.043-2.421-14.873-5.08-21.58-3.115.443-10.471.457-12.73 2.727zM135.864 142.678c1.512 6.936 2.727 14.063 4.604 20.897 4.014-.947 9.068-1.832 13.206-2.044-1.693-7.042-2.421-14.872-5.081-21.58-3.111.443-10.47.458-12.729 2.727zM163.78 136.594c1.512 6.935 2.727 14.063 4.605 20.897 4.014-.947 9.067-1.832 13.205-2.044-1.693-7.043-2.421-14.873-5.08-21.58-3.115.443-10.471.457-12.73 2.727z" fill="#013507"/><path d="M47.248 122.035l1.13 5.186c-.195 1.013.335 2.633.5 3.742a105.61 105.61 0 001.257 6.761c.436 2.004.748 4.132 1.35 6.105a91.576 91.576 0 00-2.904.636c-1.875-6.834-3.092-13.961-4.604-20.897.697-.698 1.877-1.185 3.27-1.533zM55.386 159.378l1.13 5.185c-.195 1.013.336 2.634.5 3.743a105.61 105.61 0 001.257 6.761c.437 2.004.748 4.132 1.35 6.105a88.875 88.875 0 00-2.903.636c-1.875-6.834-3.093-13.961-4.604-20.897.696-.698 1.877-1.185 3.27-1.533zM173.45 118.096a55.98 55.98 0 00-3.63.32c-1.521-7.197-2.876-14.405-4.395-21.608 1.145-.1 2.175-.183 2.944-.292 2.66 6.707 3.388 14.537 5.081 21.58zM181.59 155.447a55.89 55.89 0 00-3.629.32c-1.521-7.197-2.876-14.405-4.396-21.608 1.146-.1 2.176-.183 2.945-.292 2.66 6.707 3.387 14.537 5.08 21.58zM145.509 124.069a38.39 38.39 0 00-1.126.074c-.209-.795-.453-1.568-.599-2.138-.62-2.435-1.212-4.885-1.857-7.312-1.057-3.959-1.803-8.042-2.64-12.072.421-.041.806-.084 1.142-.132 2.659 6.707 3.39 14.537 5.08 21.58zM153.625 161.309c-.367.019-.744.043-1.126.074-.209-.795-.453-1.568-.599-2.138-.62-2.435-1.212-4.885-1.857-7.312-1.057-3.96-1.803-8.042-2.639-12.072.42-.042.805-.084 1.141-.132 2.66 6.707 3.39 14.537 5.08 21.58zM77.78 136.948c.067.293.133.686.215 1.103-.51.112-1.012.227-1.498.341-1.874-6.834-3.09-13.962-4.601-20.897.323-.326.75-.602 1.255-.843.893 4.096 1.788 8.19 2.678 12.286.586 2.689 1.339 5.329 1.95 8.01zM85.92 174.301c.068.293.134.687.216 1.104-.51.111-1.012.226-1.498.34-1.874-6.834-3.09-13.961-4.601-20.897.323-.325.75-.602 1.255-.842.893 4.095 1.788 8.19 2.678 12.285.586 2.69 1.339 5.329 1.95 8.01zM28.932 158.594c-.426-.376-1.65-.55-2.526-.75 5.636-1.19 15.589-3.434 22.95-5.299 12.118-3.073 24.479-5.429 36.591-8.288 9.784-2.31 19.548-4.038 29.33-6.14 5.21-1.119 10.423-2.305 15.604-3.315 11.289-2.197 22.623-5.169 33.935-7.492 5.929-1.218 11.868-2.579 17.785-3.868 6.363-1.387 14.353-3.314 20.614-4.654-.247.561-1.799 1.593-1.622 2.078-11.016 2.57-22.317 5.081-33.412 7.205l-139.25 30.523z" fill="#D86C00"/><path d="M30.405 156.854c-.85-3.902-1.927-7.836-2.553-11.778.723.236 1.213-.248 1.868-.169.735.09.52 1.065.634 1.762.34 2.105.83 4.194 1.287 6.286.254 1.167.87 2.705.746 3.872-.6.211-1.343-.054-1.982.027zM42.312 154.259c-.851-3.902-1.927-7.836-2.554-11.778.723.236 1.214-.248 1.869-.169.735.09.52 1.065.633 1.762.34 2.105.831 4.194 1.287 6.286.254 1.167.87 2.705.747 3.872-.6.211-1.343-.054-1.982.027zM54.218 151.664c-.85-3.902-1.927-7.835-2.553-11.778.723.236 1.213-.248 1.868-.169.735.09.521 1.065.634 1.762.34 2.105.83 4.194 1.287 6.286.254 1.167.87 2.705.747 3.872-.6.211-1.346-.054-1.983.027zM66.122 149.069c-.85-3.902-1.927-7.835-2.553-11.778.723.237 1.213-.247 1.868-.168.735.089.521 1.065.634 1.761.34 2.106.831 4.195 1.287 6.286.254 1.168.87 2.706.747 3.872-.6.212-1.343-.054-1.983.027zM78.029 146.474c-.85-3.902-1.927-7.835-2.553-11.778.722.236 1.213-.248 1.868-.169.735.09.52 1.066.634 1.762.34 2.106.83 4.195 1.287 6.286.254 1.168.87 2.706.746 3.872-.6.211-1.343-.054-1.982.027zM89.936 143.88c-.85-3.903-1.927-7.836-2.554-11.779.723.237 1.214-.247 1.869-.168.735.089.52 1.065.633 1.761.34 2.106.831 4.195 1.287 6.286.254 1.168.87 2.706.747 3.872-.6.212-1.343-.054-1.983.028zM101.84 141.285c-.851-3.902-1.927-7.835-2.553-11.778.722.236 1.213-.248 1.868-.169.735.09.521 1.065.633 1.762.34 2.105.832 4.194 1.287 6.286.255 1.167.87 2.705.747 3.872-.597.211-1.343-.054-1.982.027zM113.747 138.69c-.851-3.902-1.927-7.835-2.554-11.778.723.236 1.214-.248 1.869-.169.735.09.52 1.065.633 1.762.34 2.105.831 4.195 1.287 6.286.255 1.167.87 2.705.747 3.872-.6.211-1.343-.054-1.982.027zM125.653 136.095c-.85-3.902-1.926-7.835-2.553-11.778.723.236 1.213-.248 1.868-.169.735.09.521 1.065.634 1.762.34 2.105.831 4.195 1.287 6.286.254 1.167.87 2.705.747 3.872-.6.211-1.343-.054-1.983.027zM137.56 133.5c-.85-3.902-1.927-7.835-2.553-11.778.723.236 1.213-.248 1.868-.169.735.09.521 1.065.634 1.762.339 2.105.831 4.195 1.287 6.286.254 1.167.869 2.705.746 3.872-.6.211-1.342-.054-1.982.027zM149.464 130.906c-.85-3.902-1.927-7.836-2.553-11.778.723.236 1.213-.248 1.868-.169.735.089.521 1.065.634 1.761.339 2.106.831 4.195 1.287 6.286.254 1.168.869 2.706.746 3.872-.6.212-1.342-.053-1.982.028zM161.371 128.311c-.851-3.902-1.927-7.836-2.553-11.778.722.236 1.213-.248 1.868-.169.735.089.521 1.065.634 1.761.339 2.106.831 4.195 1.286 6.286.255 1.168.87 2.706.747 3.873-.6.211-1.343-.054-1.982.027zM173.278 125.715c-.851-3.902-1.927-7.835-2.554-11.778.723.237 1.214-.247 1.869-.168.735.089.52 1.065.633 1.761.34 2.106.831 4.195 1.287 6.286.255 1.168.87 2.706.747 3.872-.6.211-1.343-.054-1.982.027zM185.184 123.12c-.85-3.902-1.926-7.835-2.553-11.778.723.237 1.213-.247 1.869-.168.734.089.52 1.065.633 1.761.34 2.106.831 4.195 1.287 6.286.254 1.168.87 2.706.747 3.872-.6.212-1.346-.053-1.983.027zM197.088 120.526c-.85-3.902-1.927-7.835-2.553-11.778.723.236 1.213-.248 1.868-.169.735.09.521 1.066.634 1.762.339 2.106.831 4.195 1.287 6.286.254 1.168.869 2.706.746 3.872-.6.211-1.342-.054-1.982.027z" fill="#D86C00"/><path d="M199.13 109.588c-5.747 1.241-11.665 2.204-17.544 3.485a495.914 495.914 0 00-16.498 3.909c-4.064 1.033-8.065 1.558-12.157 2.45-16.089 3.507-32.134 7.611-48.25 10.854-27.012 5.438-53.917 10.961-80.86 16.833l-.414-1.901c26.945-5.872 53.847-11.395 80.859-16.832 16.116-3.244 32.161-7.348 48.25-10.854 4.093-.892 8.093-1.418 12.158-2.45a495.914 495.914 0 0116.498-3.909c5.879-1.282 11.797-2.244 17.544-3.486l.414 1.901z" fill="#D86C00"/><path d="M510.368 180.364c-.817-.29-1.669-.589-2.541-.892l2.838-9.458c.35.125.698.253 1.046.375l.644-1.835c-.376-.132-.755-.271-1.129-.405 5.804-19.346 11.605-38.687 17.488-58.076-.047.035.036-.194.161-.501a9.268 9.268 0 01-.085.284c1.502-.949 3-1.896 4.5-2.848-2.329-.97-4.658-1.934-6.991-2.897a294.937 294.937 0 00-4.318-16.677l4.244-12.086c1.135-3.234 1.132-5.391 3.099-8.164-3.847-1.261-7.37-2.406-11.197-3.57-.053.117-.097.228-.149.342-1.23 1.394-4.032 1.524-5.241 2.849-1.112 1.22-.606 1.604-1.133 3.105l-1.554 4.425c-.112.32-.222.64-.331.96a331.097 331.097 0 00-14.23-5.866l1.522-4.336c1.136-3.233 1.357-5.312 3.03-8.188-2.581-.817-4.949-1.556-7.526-2.28-.05.117-.092.229-.138.344-1.011 1.472-3.003 1.887-3.992 3.288-.91 1.291-.593 1.61-1.12 3.11l-1.554 4.425c-8.034-2.887-16.147-5.575-24.265-8.222 1.748-4.554 4.038-7.133 5.261-12.007-3.714-1.485-7.18-2.794-10.971-4.214-.198 3.394-1.55 5.076-2.685 8.31l-1.633 4.651-24.645-8c.13-.36.256-.72.383-1.081l1.553-4.425c.526-1.498.973-1.55 1.07-3.128.104-1.712-1.188-3.282-1.058-5.06.037-.12.071-.233.105-.356-2.463-1.046-4.774-1.95-7.3-2.925-.492 3.29-1.618 5.05-2.753 8.284l-1.919 5.466c-4.284-1.392-8.566-2.78-12.849-4.173.194-.538.386-1.076.575-1.613l1.553-4.425c.526-1.498 1.162-1.484 1.057-3.132-.113-1.788-2.22-3.645-2.31-5.5.031-.121.068-.234.097-.359-3.713-1.485-7.179-2.794-10.97-4.214-.198 3.393-1.55 5.075-2.685 8.31l-4.173 11.883-16.909 7.972c-2.123-.66-4.247-1.316-6.373-1.968 1.694 3.257 2.252 4.889 5.613 6.227l-3.042-1.069-20.397 58.436c-.875-.307-1.745-.618-2.619-.925l-.644 1.835c.874.307 1.747.617 2.621.926-1.214 3.473-2.424 6.945-3.638 10.418-.869-.305-1.679-.592-2.411-.855.641.63 1.592 1.421 1.757 1.964l.238.083c-4.579 13.117-9.159 26.233-13.736 39.351 53.604 23.551 112.139 40.253 168.327 56.65 3.828-12.619 7.62-25.22 11.405-37.814l.56.188c.101-.508 1.963-.569 2.467-.917z" stroke="#FFF2EA" stroke-width="10.024" stroke-miterlimit="10" stroke-linejoin="round"/><path d="M368.823 48.786l21.027-9.911c1.796-.846 3.64-1.706 5.607-1.862 2.111-.166 4.18.492 6.188 1.145 18.095 5.874 36.189 11.748 54.283 17.624 19.891 6.459 39.839 12.937 58.81 21.743 1.565.728 3.162 1.495 4.354 2.755 1.503 1.59 2.198 3.781 2.824 5.899a296.452 296.452 0 015.236 20.368l-97.77 18.054-60.559-75.815z" fill="#013507"/><path d="M496.272 219.028c-56.187-16.397-114.723-33.1-168.327-56.65 12.941-37.078 25.886-74.156 38.829-111.233l162.939 57.211c.138-.098-.797 1.934-.662 1.835-11.021 36.336-21.758 72.501-32.779 108.837z" fill="#F98E12"/><path d="M533.627 107.129c-1.5.952-2.999 1.899-4.5 2.848.038-.125.074-.253.112-.377.225-.757-112.457-40.56-122.731-44.265a6687.07 6687.07 0 00-24.105-8.645c-4.131-1.473-8.319-2.834-12.413-4.407-3.514-1.351-4.058-2.984-5.781-6.294a1848.905 1848.905 0 01169.418 61.14zM405.227 24.04c-.173 1.963 2.185 3.934 2.305 5.825.105 1.648-.53 1.631-1.057 3.132l-1.554 4.425a124.706 124.706 0 01-2.339 6.196c-.389.943-.616 2.31-1.459 2.962-1.12.867-3.751.934-5.327 1.366-1.296-3.137-.788-3.88-.087-6.652.811-3.204 1.693-6.785 2.924-9.827 1.046-2.576 2.944-5.668 6.594-7.428z" fill="#D86C00"/><path d="M385.945 44.395l5.72-16.291c1.136-3.234 2.487-4.916 2.685-8.31 3.791 1.421 7.257 2.73 10.971 4.215-1.279 5.098-3.727 7.679-5.498 12.642a208.015 208.015 0 01-4.403 11.32c-2.079-1.03-6.008-2.27-9.475-3.576zM447.669 66.067l5.72-16.29c1.135-3.234 2.487-4.916 2.684-8.31 3.792 1.42 7.257 2.73 10.971 4.214-1.279 5.099-3.727 7.679-5.498 12.642a206.42 206.42 0 01-4.403 11.32c-2.076-1.03-6.008-2.27-9.474-3.576z" fill="#F98E12"/><path d="M429.097 32.42c-.323 1.911 1.134 3.566 1.022 5.376-.097 1.576-.543 1.627-1.07 3.127l-1.553 4.425a187.215 187.215 0 01-2.291 6.214c-.371.949-.675 2.29-1.337 3.005-.879.951-2.741 1.288-3.897 1.867-.591-2.89-.155-3.658.628-6.4.904-3.172 1.897-6.714 3.081-9.773 1.001-2.591 2.659-5.768 5.417-7.84z" fill="#D86C00"/><path d="M413.392 54.032l5.72-16.291c1.135-3.234 2.262-4.995 2.753-8.285 2.526.976 4.837 1.88 7.301 2.925-1.43 5.046-3.423 7.786-5.187 12.752a302.842 302.842 0 01-4.277 11.364c-1.358-.778-4.002-1.565-6.31-2.465z" fill="#F98E12"/><path d="M492.884 54.817c-.942 1.694-3.115 2.074-4.158 3.557-.91 1.291-.594 1.609-1.12 3.11l-1.554 4.424a186.735 186.735 0 00-2.097 6.282c-.304.973-.904 2.209-.835 3.18.092 1.294 1.334 2.72 1.874 3.895 2.268-1.886 2.408-2.758 3.512-5.388 1.277-3.04 2.716-6.426 3.705-9.554.838-2.648 1.527-6.165.673-9.506z" fill="#D86C00"/><path d="M491.628 81.503l5.721-16.291c1.135-3.234 1.357-5.313 3.029-8.188-2.581-.818-4.949-1.557-7.526-2.281-2.038 4.832-2.196 8.216-3.923 13.195a302.812 302.812 0 00-3.767 11.544c1.546.241 4.102 1.28 6.466 2.02z" fill="#F98E12"/><path d="M518.515 63.817c-1.093 1.64-4.165 1.705-5.44 3.106-1.112 1.22-.607 1.604-1.134 3.105l-1.554 4.425a125.483 125.483 0 00-2.047 6.298c-.287.98-.964 2.189-.713 3.225.332 1.377 2.343 3.074 3.303 4.396 2.973-1.638 3.041-2.536 4.227-5.138 1.37-3.008 2.921-6.354 3.861-9.498.797-2.663 1.246-6.264-.503-9.92z" fill="#D86C00"/><path d="M520.841 91.76l5.72-16.291c1.136-3.234 1.133-5.392 3.099-8.164-3.846-1.262-7.37-2.407-11.197-3.57-2.189 4.78-1.891 8.324-3.611 13.305a205.586 205.586 0 00-3.641 11.588c2.264.494 6.106 1.983 9.63 3.132z" fill="#F98E12"/><path d="M387.082 70.482l-1.758 5.008c-.698.76-1.096 2.418-1.538 3.448a105.607 105.607 0 00-2.477 6.415c-.679 1.936-1.531 3.91-2.053 5.907a91.324 91.324 0 00-2.805-.983c1.989-6.801 4.691-13.508 7.042-20.205.959-.229 2.22-.025 3.589.41z" fill="#D86C00"/><path d="M388.765 95.465c-2.801-1.535-6.272-3.015-9.509-4.206.522-1.996 1.374-3.97 2.053-5.906.763-2.173 1.576-4.3 2.477-6.415.442-1.03.84-2.689 1.538-3.449l1.758-5.007c3.071.969 6.684 3.076 8.679 3.946-1.255 7.105-4.743 14.153-6.996 21.037z" fill="#013507"/><path d="M405.256 99.185c-.097.285-.247.655-.396 1.053a95.759 95.759 0 00-1.454-.496c1.989-6.802 4.694-13.507 7.046-20.205.445-.107.954-.118 1.51-.058-1.388 3.955-2.774 7.91-4.165 11.864-.912 2.597-1.656 5.239-2.541 7.842z" fill="#D86C00"/><path d="M415.721 104.93c-3.196-1.751-7.262-3.428-10.861-4.692.149-.399.299-.768.396-1.053.885-2.603 1.629-5.245 2.541-7.842 1.391-3.954 2.777-7.91 4.165-11.864 3.329.359 8.284 3.337 10.755 4.413-1.255 7.106-4.74 14.155-6.996 21.038zM437.408 89.002c-2.352 6.697-5.057 13.403-7.043 20.205 3.914 1.3 8.68 3.198 12.314 5.189 2.253-6.885 5.742-13.932 6.996-21.038-2.884-1.257-9.154-5.103-12.267-4.356z" fill="#013507"/><path d="M469.635 123.86a41.717 41.717 0 00-.998-.528c.239-.786.437-1.572.612-2.134.75-2.398 1.531-4.794 2.255-7.199 1.177-3.926 2.684-7.793 4.086-11.662.38.185.729.351 1.041.486-1.255 7.106-4.74 14.154-6.996 21.037z" fill="#D86C00"/><path d="M468.637 123.332c-3.478-1.796-7.749-3.479-11.317-4.66 1.989-6.801 4.694-13.507 7.046-20.204 2.778-.667 8.068 2.324 11.224 3.869-1.402 3.869-2.909 7.736-4.086 11.662-.724 2.404-1.505 4.801-2.255 7.199-.175.562-.373 1.348-.612 2.134z" fill="#013507"/><path d="M496.593 133.326a56.449 56.449 0 00-3.257-1.632c2.48-6.925 5.108-13.772 7.593-20.701 1.027.515 1.948.985 2.66 1.295-1.254 7.106-4.742 14.154-6.996 21.038z" fill="#D86C00"/><path d="M500.929 110.993c-2.485 6.929-5.113 13.776-7.593 20.701-2.967-1.372-6.233-2.619-9.057-3.556 1.986-6.803 4.691-13.508 7.043-20.206 2.345-.563 6.478 1.48 9.607 3.061zM372.624 101.028c-2.351 6.698-5.056 13.403-7.043 20.206 3.914 1.299 8.681 3.197 12.315 5.188 2.253-6.884 5.741-13.932 6.996-21.038-2.884-1.256-9.154-5.103-12.268-4.356zM399.582 110.494c-2.351 6.697-5.056 13.403-7.043 20.205 3.914 1.3 8.681 3.198 12.315 5.188 2.253-6.884 5.741-13.931 6.996-21.037-2.884-1.257-9.154-5.103-12.268-4.356zM426.538 119.958c-2.351 6.698-5.056 13.403-7.042 20.206 3.914 1.3 8.68 3.197 12.314 5.188 2.253-6.884 5.742-13.932 6.996-21.037-2.884-1.257-9.154-5.104-12.268-4.357zM453.494 129.423c-2.352 6.698-5.056 13.403-7.043 20.206 3.914 1.299 8.681 3.197 12.314 5.188 2.254-6.884 5.742-13.932 6.997-21.037-2.882-1.256-9.154-5.104-12.268-4.357zM480.452 138.889c-2.351 6.697-5.056 13.403-7.043 20.205 3.914 1.3 8.681 3.197 12.315 5.188 2.253-6.884 5.741-13.932 6.996-21.037-2.884-1.257-9.154-5.104-12.268-4.356zM359.96 137.097c-2.352 6.698-5.057 13.403-7.043 20.206 3.914 1.299 8.68 3.197 12.314 5.188 2.254-6.884 5.742-13.932 6.996-21.038-2.883-1.256-9.154-5.103-12.267-4.356zM386.918 146.562c-2.352 6.698-5.056 13.403-7.043 20.206 3.914 1.3 8.681 3.197 12.315 5.188 2.253-6.884 5.741-13.932 6.996-21.037-2.884-1.257-9.154-5.104-12.268-4.357zM413.874 156.027c-2.352 6.698-5.056 13.403-7.043 20.206 3.914 1.299 8.68 3.197 12.314 5.188 2.254-6.884 5.742-13.932 6.996-21.037-2.883-1.257-9.153-5.104-12.267-4.357zM440.829 165.492c-2.351 6.698-5.056 13.403-7.042 20.206 3.914 1.299 8.68 3.197 12.314 5.188 2.253-6.884 5.742-13.932 6.996-21.038-2.881-1.255-9.154-5.103-12.268-4.356zM467.788 174.958c-2.352 6.697-5.056 13.402-7.043 20.205 3.914 1.3 8.68 3.197 12.314 5.188 2.254-6.884 5.742-13.932 6.996-21.037-2.883-1.257-9.153-5.104-12.267-4.356z" fill="#013507"/><path d="M376.216 101.428l-1.758 5.008c-.697.76-1.096 2.418-1.538 3.448a105.872 105.872 0 00-2.476 6.415c-.68 1.936-1.531 3.911-2.054 5.907a86.873 86.873 0 00-2.805-.982c1.989-6.802 4.691-13.509 7.043-20.206.959-.229 2.219-.025 3.588.41zM363.555 137.489l-1.758 5.008c-.698.76-1.096 2.418-1.539 3.448-.9 2.116-1.713 4.243-2.476 6.415-.679 1.936-1.531 3.911-2.054 5.907a86.035 86.035 0 00-2.805-.982c1.989-6.802 4.691-13.509 7.043-20.206.959-.229 2.22-.025 3.589.41zM485.724 164.282a56.81 56.81 0 00-3.258-1.632c2.481-6.925 5.109-13.772 7.593-20.701 1.028.516 1.949.985 2.661 1.296-1.255 7.105-4.743 14.153-6.996 21.037zM473.059 200.351a56.449 56.449 0 00-3.257-1.632c2.48-6.925 5.108-13.772 7.593-20.701 1.028.516 1.948.985 2.661 1.296-1.255 7.105-4.743 14.153-6.997 21.037zM458.803 154.709a41.627 41.627 0 00-.997-.528c.238-.786.437-1.572.611-2.134.75-2.398 1.532-4.795 2.255-7.199 1.178-3.926 2.685-7.793 4.086-11.662.38.185.73.351 1.041.486-1.254 7.106-4.74 14.154-6.996 21.037zM446.176 190.671a39.785 39.785 0 00-.997-.529c.239-.786.437-1.572.611-2.134.751-2.398 1.532-4.794 2.255-7.199 1.178-3.925 2.685-7.792 4.086-11.662.38.185.73.351 1.041.486-1.254 7.106-4.74 14.155-6.996 21.038zM394.386 130.142c-.097.284-.247.654-.395 1.053a94.27 94.27 0 00-1.454-.497c1.989-6.801 4.694-13.507 7.045-20.204.446-.108.955-.119 1.511-.058-1.389 3.954-2.775 7.91-4.166 11.863-.912 2.597-1.655 5.239-2.541 7.843zM381.721 166.213c-.097.285-.247.654-.396 1.053-.493-.173-.98-.339-1.453-.496 1.989-6.802 4.693-13.508 7.045-20.205.446-.108.955-.118 1.511-.058-1.389 3.954-2.775 7.91-4.166 11.863-.912 2.598-1.656 5.239-2.541 7.843zM341.444 122.943c-.165-.543-1.117-1.333-1.757-1.963 5.422 1.944 15.073 5.255 22.318 7.529 11.929 3.74 23.688 8.22 35.5 12.14 9.541 3.166 18.76 6.817 28.191 10.16 5.023 1.781 10.082 3.505 15.023 5.364 10.764 4.052 21.972 7.467 32.821 11.423 5.686 2.074 11.457 4.031 17.17 6.038 6.145 2.157 13.959 4.708 19.991 6.852-.504.349-2.367.412-2.47.919-10.728-3.592-21.666-7.383-32.225-11.395l-134.562-47.067z" fill="#D86C00"/><path d="M343.611 122.235c1.323-3.768 2.47-7.681 4.005-11.366.492.58 1.163.425 1.68.836.578.462-.116 1.18-.385 1.832-.816 1.971-1.493 4.007-2.202 6.027-.396 1.127-.679 2.759-1.396 3.688-.622-.135-1.115-.75-1.702-1.017zM355.109 126.272c1.323-3.768 2.47-7.681 4.005-11.366.491.58 1.163.425 1.679.836.579.462-.115 1.18-.384 1.832-.816 1.971-1.494 4.007-2.203 6.027-.396 1.127-.679 2.76-1.395 3.688-.622-.135-1.115-.75-1.702-1.017zM366.607 130.309c1.323-3.768 2.47-7.681 4.005-11.366.491.58 1.163.425 1.679.836.579.462-.115 1.18-.384 1.832-.816 1.971-1.494 4.008-2.203 6.027-.395 1.127-.679 2.76-1.395 3.688-.622-.135-1.118-.751-1.702-1.017zM378.102 134.346c1.323-3.768 2.471-7.682 4.006-11.367.491.581 1.163.426 1.679.837.579.461-.116 1.18-.385 1.832-.815 1.971-1.493 4.007-2.202 6.026-.396 1.128-.679 2.76-1.396 3.689-.621-.135-1.115-.751-1.702-1.017zM389.601 138.383c1.323-3.768 2.47-7.682 4.005-11.367.491.58 1.163.426 1.679.837.579.461-.116 1.18-.385 1.832-.815 1.97-1.493 4.007-2.202 6.026-.396 1.128-.679 2.76-1.395 3.689-.622-.135-1.115-.751-1.702-1.017zM401.098 142.42c1.323-3.768 2.471-7.681 4.006-11.366.491.58 1.163.425 1.679.836.579.462-.116 1.18-.385 1.832-.815 1.971-1.493 4.007-2.202 6.027-.396 1.127-.679 2.759-1.396 3.688-.621-.135-1.115-.751-1.702-1.017zM412.594 146.456c1.323-3.768 2.47-7.681 4.005-11.366.492.58 1.163.425 1.679.836.579.462-.115 1.18-.384 1.832-.816 1.971-1.493 4.007-2.203 6.027-.395 1.127-.678 2.76-1.395 3.688-.619-.134-1.115-.75-1.702-1.017zM424.092 150.494c1.323-3.769 2.471-7.682 4.006-11.367.491.58 1.163.426 1.679.837.578.461-.116 1.179-.385 1.831-.816 1.971-1.493 4.008-2.202 6.027-.396 1.128-.679 2.76-1.396 3.688-.621-.135-1.115-.75-1.702-1.016zM435.59 154.531c1.323-3.769 2.47-7.682 4.005-11.367.492.58 1.163.426 1.68.837.578.461-.116 1.179-.385 1.832-.816 1.97-1.493 4.007-2.202 6.026-.396 1.128-.679 2.76-1.396 3.688-.622-.135-1.115-.75-1.702-1.016zM447.088 158.568c1.323-3.768 2.47-7.681 4.006-11.367.491.581 1.162.426 1.679.837.578.462-.116 1.18-.385 1.832-.816 1.971-1.493 4.007-2.202 6.027-.396 1.127-.679 2.759-1.396 3.688-.622-.135-1.115-.751-1.702-1.017zM458.584 162.604c1.323-3.768 2.47-7.681 4.005-11.366.491.58 1.163.425 1.679.836.579.462-.115 1.18-.385 1.832-.815 1.971-1.493 4.007-2.202 6.027-.396 1.127-.679 2.759-1.395 3.688-.622-.135-1.115-.75-1.702-1.017zM470.082 166.641c1.323-3.768 2.47-7.681 4.005-11.366.491.58 1.163.426 1.679.836.579.462-.115 1.18-.385 1.832-.815 1.971-1.493 4.008-2.202 6.027-.396 1.128-.679 2.76-1.395 3.688-.622-.135-1.115-.75-1.702-1.017zM481.58 170.679c1.323-3.769 2.47-7.682 4.005-11.367.492.58 1.163.426 1.68.837.578.461-.116 1.179-.385 1.832-.816 1.97-1.493 4.007-2.202 6.026-.396 1.128-.679 2.76-1.396 3.688-.622-.135-1.115-.75-1.702-1.016zM493.078 174.716c1.323-3.768 2.47-7.682 4.005-11.367.491.58 1.163.426 1.679.837.579.461-.115 1.18-.384 1.832-.816 1.97-1.494 4.007-2.203 6.026-.396 1.128-.679 2.76-1.395 3.689-.622-.135-1.118-.752-1.702-1.017zM504.573 178.752c1.323-3.768 2.47-7.682 4.006-11.367.491.581 1.163.426 1.679.837.578.461-.116 1.18-.385 1.832-.816 1.971-1.493 4.007-2.202 6.026-.396 1.128-.679 2.76-1.396 3.689-.622-.135-1.115-.751-1.702-1.017z" fill="#D86C00"/><path d="M512.05 170.511c-5.544-1.958-11.087-4.243-16.765-6.237a497.386 497.386 0 00-16.095-5.327c-4.003-1.253-7.684-2.904-11.636-4.292-15.537-5.455-31.35-10.379-46.771-16.072-25.85-9.541-51.652-18.954-77.67-28.089l.645-1.836c26.02 9.136 51.82 18.548 77.669 28.09 15.422 5.693 31.235 10.616 46.772 16.072 3.952 1.387 7.633 3.039 11.635 4.292a495.806 495.806 0 0116.096 5.327c5.677 1.993 11.221 4.279 16.764 6.237l-.644 1.835z" fill="#D86C00"/><g clip-path="url(#prefix__clip0)"><path d="M69.014 163.404l-19.24.076c-3.336.01-6.057.636-6.218 1.424-.502 2.391-.995 4.791-1.488 7.182-.151.712-.208 1.5 1.659 2.069 2.227.674 6.322.778 9.952.835 32.007.446 64.138.768 96.089.161 13.07-.247 28.624.01 41.732 0 10.54-.009 18.52-.427 29.041-.256 74.403 1.167 142.74-.37 223.427.75 8.085.113 16.246.303 24.093-.162 1.953-.114 3.792-.313 4.948-.692 1.384-.446 1.479-1.044 1.517-1.594.151-2.306.303-4.612.464-6.908.038-.588.028-1.215-1.384-1.708-3.393-1.167-12.331-.731-15.923-.864-6.853-.265-13.667-.303-20.605-.237-84.829.816-165.697-1.508-248.516-.227-9.412.142-18.795.379-28.217.521-9.25.133-18.51.181-27.77.219-19.137.057-44.434-.665-63.56-.589z" fill="#FFF2EA"/><path d="M112.576 75.085l-1.422 81.383c-.048 2.572-.455 8.047 1.943 8.72 4.009 1.12 5.26.294 5.346-2.173.047-1.603-.474-3.235-.057-4.782.53-1.945 2.691-3.226 4.587-2.714 1.422 1.443-.047 4.289 1.242 5.855.654.787 1.857.93 2.758.465.9-.465 1.488-1.423 1.725-2.429.36-1.537 0-3.255 1.109-4.545.493-.57 1.336-.769 1.99-.399.645.37.664.949.664 1.499.019 1.765.038 3.53.047 5.305.009.958.057 2.011.701 2.694.683.731 1.782.778 2.768.778 5.725 0 11.44.01 17.165.01 3.222 0 6.9-.199 8.957-2.771 1.545-1.926 1.744-4.725 3.81-6.338.862-.674 2.028-.892 2.976-.361 2.654 1.48.37 6.063 2.872 7.895 1.175.863 2.786.588 3.867-.399 1.687-1.518 1.914-3.919 1.81-6.12-.085-1.774-.161-3.938 1.299-4.896.673-.446 1.516-.484 2.312-.503 9.81-.237 19.639.323 29.354 1.689.398.057.815.123 1.156.342.806.531.882 1.689.872 2.675-.019 1.689-.038 3.369-.047 5.058-.019 1.537.095 3.008.142 4.545.066 2.049.057 3.169 3.934 2.704 7.525.237 10.662.142 18.453.579 5.991.341 11.981.607 17.98.569 20.198-.133 40.396-.275 60.584-.408 1.251-.009 2.702-.133 3.384-1.214.389-.627.398-1.424.398-2.164-.019-3.055-.028-6.101-.047-9.156 0-.589.009-1.224.35-1.699.446-.626 1.299-.74 2.048-.806a459.157 459.157 0 0127.524-1.49c.815-.019 1.697-.019 2.341.493 1.166.93.825 2.781.645 4.299-.275 2.258.132 4.773 2.142 6.11 1.175.788 2.786.703 3.829-.265 1.64-1.518 1.611-3.929 1.507-6.244-.029-.55-.057-1.129.17-1.632.37-.816 1.261-2.021 2.891-2.021 12.227 0 24.037-1.082 36.245-.351.341.019.701.048 1.014.19.796.36 1.118 1.366 1.109 2.268-.01.901-.256 1.784-.209 2.685.085 1.698 1.403 3.292 3.033 3.473 1.63.18 3.317-1.272 3.27-2.97-.019-.522-.171-1.025-.171-1.547s.237-1.091.711-1.252c.285-.095.588-.029.872.038l2.531.597c.256.057.512.124.72.285.294.228.436.617.522.987.521 2.391-.683 5.209.9 7.126.986 1.195 2.777 1.414 4.009.493 1.308-.977 1.431-2.571 1.498-4.061a338.5 338.5 0 00.369-21.492c-.218-15.627-1.298-31.103-1.383-46.73-.038-6.975.056-13.996-1.176-20.857-.199-1.1-.426-2.277-.019-3.32.74-1.908 3.356-2.714 3.422-4.906.028-1.082-.616-2.05-1.517-2.62-1.431-.91-3.127-.825-4.739-.72-14.804.949-29.666 2.438-44.433.958-9.042.076-18.359.086-27.401.161-1.791.02-3.592.029-5.374.219-1.45.151-2.891.427-4.341.522-2 .132-4.009-.057-6.009-.247-.493-.048-1.024-.114-1.365-.484-.389-.427-.379-1.091-.341-1.67l.426-6.519c.076-1.1.114-2.315-.559-3.169-.408-.512-1.005-.806-1.564-1.12-4.218-2.353-7.364-6.452-11.667-8.634-.436-1.737.71-3.321 1.251-5.03.597-1.897.568-3.946.483-5.939-.057-1.366-.152-2.752-.673-4.004-.417-.987-1.08-1.831-1.744-2.657-1.336-1.66-3.023-2.98-4.891-3.947-3.156-1.632-5.999-3.777-8.89-5.855A242.545 242.545 0 00279.068 2.82c-1.374-.845-2.787-1.68-4.322-2.135-2.616-.778-5.441-.399-8.009.531-2.559.94-4.91 2.4-7.232 3.862-5.355 3.359-11.781 6.025-17.316 9.062-2.74 1.499-5.754 3.35-6.474 6.461-.294 1.262-.152 2.572-.066 3.862a52.043 52.043 0 01-.323 10.38c-.075.589-.18 1.206-.511 1.69-.37.54-.967.844-1.545 1.129a86.058 86.058 0 00-13.023 8.122c-.692.522-1.394 1.082-1.83 1.831-.246.427-.331.95-.331 1.443.019 5.94-.067 5-.36 8.549a5.573 5.573 0 01-.939 2.695c-.436.645-.796 1.138-1.393 1.594-.692.521-2.341.607-3.204.635-5.867.18-8.719.484-14.094-.18-4.16-.512-9.43-.882-13.61-.996-4.142-.114-7.962.028-11.943-.038-4.957-.086-9.885-.845-14.842-1.006-5.298-.17-10.587.332-15.876.446-3.848.085-7.687-.047-11.535-.17-6.151-.2-12.302-.4-18.454-.608-1.298.228-2.492.579-3.791.806-.673.124-1.46.333-1.697.997-.189.54.095 1.138.427 1.594a5.671 5.671 0 002.275 1.822c1.27.56 2.834.711 3.639 1.869.569.816.56 1.907.512 2.913-.047 1.395-.606 3.729-.625 5.105z" fill="#FFF2EA"/><path d="M74.578 166.867l-18.757.029c-3.251.009-5.905.275-6.066.626-.483 1.053-.967 2.097-1.45 3.15-.142.314-.2.655 1.611.902 2.18.294 6.16.341 9.696.36 31.202.19 62.527.342 93.682.067 12.738-.114 27.913 0 40.689 0 10.274 0 18.056-.19 28.311-.114 72.536.512 139.167-.161 217.826.332 7.886.047 15.838.133 23.487-.076 1.905-.047 3.696-.142 4.824-.304 1.355-.199 1.441-.455 1.479-.702.151-1.015.303-2.021.445-3.036.038-.256.028-.531-1.346-.75-3.308-.512-12.018-.322-15.525-.379a944.88 944.88 0 00-20.094-.105c-82.696.361-161.544-.664-242.288-.104-9.175.067-18.331.171-27.506.228-9.013.057-18.046.076-27.079.095-18.624.066-43.296-.247-61.939-.219z" fill="#D86C00"/><path d="M116.537 72.048c-.654 1.073-.71 2.382-.748 3.635l-2.275 75.519c-.019.56-.019 1.158.313 1.613.587.788 1.782.626 2.729.38 1.697-.437 3.394-.864 5.09-1.3 1.517-.389 3.128-.826 4.18-1.993 1.298-1.442 1.393-3.567 1.412-5.513.228-22.355.455-44.7.692-67.055.01-1.168-.019-2.449-.806-3.302-.559-.608-1.383-.873-2.17-1.11-.919-.295-8.417-3.995-8.417-.874zM178.657 76.916c-.464 22.241-.919 44.482-1.384 66.714-.019.778 0 1.642.512 2.221.531.588 1.403.683 2.19.74 10.473.721 20.984.986 31.476.816.323-.01.654-.01.948-.133.929-.37 1.138-1.575 1.204-2.581.824-12.924.057-25.885-.029-38.837-.056-9.47.247-18.939.92-28.38.038-.522.047-1.12-.313-1.5-.303-.303-.768-.37-1.194-.407-6.957-.684-14.037-1.3-21.032-1.215-2.161.029-4.208.588-6.35.721-2.247.143-6.882-1.575-6.948 1.841z" fill="#F98E12"/><path d="M131.949 76.916c-.54 22.241-1.081 44.482-1.63 66.714-.019.778 0 1.642.606 2.221.626.588 1.65.683 2.588.74a515.94 515.94 0 0037.126.816c.379-.01.767-.01 1.118-.133 1.099-.37 1.346-1.575 1.422-2.581.966-12.924.066-25.885-.029-38.837-.066-9.47.294-18.939 1.081-28.38.047-.522.057-1.12-.37-1.5-.351-.303-.9-.37-1.403-.407-8.198-.684-16.558-1.3-24.804-1.215-2.549.029-4.966.588-7.488.721-2.672.143-8.132-1.575-8.217 1.841zM114.367 160.102c0 .399.019.826.275 1.129.36.418 1.062.389 1.488.029.427-.351.597-.93.635-1.48.076-1.224.654-4.289-1.223-4.318-1.999-.038-1.184 3.388-1.175 4.64z" fill="#D86C00"/><path d="M125.39 156.801c0 .465.019.977.275 1.328.36.503 1.062.455 1.488.038.427-.418.597-1.101.635-1.755.076-1.452.654-5.077-1.222-5.115-2-.028-1.185 4.023-1.176 5.504zM173.074 158.432c0 .608.019 1.262.275 1.727.36.646 1.062.589 1.488.048.427-.541.597-1.424.635-2.268.076-1.888.654-6.585-1.222-6.633-2-.047-1.185 5.2-1.176 7.126z" fill="#F98E12"/><path d="M214.702 160.112c0 .749.019 1.565.275 2.135.36.797 1.061.73 1.488.057.427-.674.597-1.765.635-2.809.076-2.325.654-8.132-1.223-8.189-2-.066-1.184 6.424-1.175 8.806z" fill="#D86C00"/><path d="M137.588 94.85c-.057-.968-.113-1.964.18-2.894.446-1.424.569-3.122 3.052-3.065 1.488.028 3.261.01 4.749-.047 1.355-.057 4.464-.152 5.81-.086 2.161.114 3.791.019 5.649 1.139s1.734 3.017 1.431 5.171c-.095.655-.351 1.31-.853 1.736-.787.674-1.943.636-2.976.55-3.308-.255-6.606-.616-9.924-.493-2.104.076-7.118 1.025-7.118-2.011zM135.531 146.667c.143 4.345.275 8.691.418 13.037.028.826.075 1.727.578 2.344.616.768 1.668.797 2.597.759 3.336-.114 6.682-.218 10.018-.332 2.161-.076 4.36-.152 6.407-.921.616-.227 1.232-.541 1.668-1.081.702-.864.787-2.126.825-3.293.123-3.634.057-7.278-.19-10.902-.028-.399-.056-.807-.208-1.167-.483-1.186-1.886-1.376-3.052-1.405-4.047-.095-8.246-.531-12.274-.047-2.597.322-6.787-.902-6.787 3.008z" fill="#F98E12"/><path d="M138.489 99.205c-.55 0-1.195.057-1.498.54-.161.266-.18.608-.18.93-.256 12.373-.502 24.747-.758 37.129-.029 1.414.17 3.198 1.45 3.634.351.124.72.105 1.09.095l14.445-.512c.53-.019 1.09-.038 1.573-.285.625-.313 1.061-.949 1.355-1.603.654-1.471.759-3.141.834-4.764a316.945 316.945 0 00-.132-32.593c-.029-.512-.076-1.063-.417-1.423-.304-.323-.759-.399-1.185-.465-5.64-.826-10.919-.683-16.577-.683z" fill="#FFF2EA"/><path d="M159.729 100.675c.038-2.02.502-4.298 2.313-4.62.464 2.808.502 5.674.549 8.53.114 7.211.218 14.432.332 21.643.029 2.021-.028 4.042-.019 6.063.048 7.686.048 9.233-.076 18.437-.019 1.461.124 2.96-.246 4.355-.379 1.404-1.299 2.723-2.588 3.065.019-4.621.029-9.233.048-13.854l.028-8.331c.029-11.357-.549-23.863-.341-35.288z" fill="#F98E12"/><path d="M113.116 64.761c-.341.484.313 1.044.853 1.272 2.929 1.262 5.857 2.523 8.796 3.776 1.649.712 3.307 1.423 5.051 1.793 2 .427 4.066.408 6.123.38 14.331-.18 28.652-.36 42.983-.342 13.004.02 26.018.19 39.022.532.521.01 1.052.019 1.526-.19.957-.437 1.298-1.623 1.308-2.676.009-.474-.029-.958-.038-1.442-.029-1.177-.872-2.163-2.029-2.334-1.914-.276-3.952 0-5.904.17-5.081.446-10.18.076-15.27-.199-11.639-.645-23.287-.816-34.945-.768-10.578.038-21.355.958-31.913.246-2.028-.132-4.047-.303-6.076-.35-1.279-.01-8.824-.807-9.487.132z" fill="#D86C00"/><path d="M411.894 72.048c.654 1.073.711 2.382.749 3.635l2.275 75.519c.019.56.019 1.158-.313 1.613-.588.788-1.782.626-2.73.38-1.696-.437-3.393-.864-5.09-1.3-1.516-.389-3.127-.826-4.179-1.993-1.299-1.442-1.394-3.567-1.413-5.513-.227-22.355-.455-44.7-.692-67.055-.009-1.168.019-2.449.806-3.302.559-.608 1.384-.873 2.171-1.11.909-.295 8.416-3.995 8.416-.874zM349.604 76.916c.512 22.241 1.033 44.482 1.545 66.714.019.778 0 1.642-.578 2.221-.588.588-1.564.683-2.455.74a464.796 464.796 0 01-35.24.816c-.36-.01-.73-.01-1.061-.133-1.043-.37-1.28-1.575-1.346-2.581-.92-12.924-.067-25.885.028-38.837.067-9.47-.275-18.939-1.023-28.38-.038-.522-.057-1.12.35-1.5.332-.303.853-.37 1.337-.407 7.781-.684 15.714-1.3 23.543-1.215 2.427.029 4.711.588 7.109.721 2.531.143 7.715-1.575 7.791 1.841z" fill="#F98E12"/><path d="M396.473 76.916c.54 22.241 1.08 44.482 1.63 66.714.019.778 0 1.642-.606 2.221-.626.588-1.65.683-2.588.74a515.94 515.94 0 01-37.126.816c-.379-.01-.767-.01-1.118-.133-1.099-.37-1.346-1.575-1.422-2.581-.966-12.924-.066-25.885.029-38.837.066-9.47-.294-18.939-1.081-28.38-.047-.522-.057-1.12.37-1.5.351-.303.9-.37 1.403-.407 8.198-.684 16.558-1.3 24.804-1.215 2.549.029 4.966.588 7.487.721 2.673.143 8.133-1.575 8.218 1.841zM414.055 160.102c0 .399-.019.826-.275 1.129-.36.418-1.061.389-1.488.029-.426-.351-.597-.93-.635-1.48-.076-1.224-.654-4.289 1.223-4.318 2.009-.038 1.194 3.388 1.175 4.64z" fill="#D86C00"/><path d="M403.032 156.801c0 .465-.019.977-.275 1.328-.36.503-1.061.455-1.488.038-.426-.418-.597-1.101-.635-1.755-.076-1.452-.654-5.077 1.223-5.115 2-.028 1.185 4.023 1.175 5.504zM355.348 157.967c0 .57-.019 1.187-.275 1.614-.36.607-1.062.55-1.488.047-.427-.512-.597-1.328-.635-2.125-.076-1.765-.654-6.159 1.222-6.197 2-.047 1.185 4.868 1.176 6.661z" fill="#F98E12"/><path d="M313.72 160.112c0 .749-.019 1.565-.275 2.135-.36.797-1.062.73-1.488.057-.427-.674-.597-1.765-.635-2.809-.076-2.325-.654-8.132 1.223-8.189 2.009-.066 1.194 6.424 1.175 8.806zM415.306 64.761c.341.484-.313 1.044-.853 1.272-2.929 1.262-5.857 2.523-8.796 3.776-1.649.712-3.307 1.423-5.051 1.793-2 .427-4.066.408-6.123.38-14.331-.18-28.652-.36-42.983-.342-13.004.02-26.018.19-39.022.532-.521.01-1.052.019-1.526-.19-.957-.437-1.298-1.623-1.308-2.676-.009-.474.029-.958.038-1.442.029-1.177.872-2.163 2.029-2.334 1.914-.276 3.952 0 5.904.17 5.081.446 10.18.076 15.27-.199 11.639-.645 23.287-.816 34.945-.768 10.578.038 21.355.958 31.913.246 2.028-.132 4.047-.303 6.076-.35 1.289-.01 8.833-.807 9.487.132zM227.914 62.02c-.654.388-1.327.806-1.744 1.441-.559.854-.559 1.936-.549 2.951.17 13.531-.455 27.071-1.867 40.526-.218 2.05-.237 4.564 1.526 5.627.587.36 1.298.474 1.98.579a78.176 78.176 0 0015.829.749c1.005-.057 2.085-.161 2.834-.825.929-.816 1.052-2.192 1.118-3.426.901-18.502.484-37.033.076-55.555-.019-.854-.218-1.945-1.052-2.107-.417-.085-.834.114-1.213.304-5.82 2.989-11.383 6.338-16.938 9.735zM302.337 62.02c.654.388 1.327.806 1.744 1.441.559.854.559 1.936.55 2.951a346.24 346.24 0 001.867 40.526c.218 2.05.237 4.564-1.526 5.627-.588.36-1.299.474-1.981.579a78.176 78.176 0 01-15.829.749c-1.004-.057-2.085-.161-2.834-.825-.928-.816-1.052-2.192-1.118-3.426-.9-18.502-.483-37.033-.076-55.555.019-.854.218-1.945 1.052-2.107.417-.085.834.114 1.213.304 5.82 2.989 11.384 6.338 16.938 9.735zM266.215 56.07c4.298 0 7.782-3.488 7.782-7.79 0-4.303-3.484-7.79-7.782-7.79-4.297 0-7.781 3.487-7.781 7.79 0 4.302 3.484 7.79 7.781 7.79z" fill="#D86C00"/><path d="M259.941 57.892c2.701 2.163 6.36 3.083 9.639 2.125 3.28-.958 6.038-3.89 6.616-7.41.133-.817.171-1.67.531-2.401.36-.73 1.203-1.3 1.924-.987.587.247.862.949 1.023 1.585.398 1.622.427 3.32.446 5 .123 10.409.237 20.818.36 31.227.028 2.277.047 4.554-.085 6.832-.124 2.04-.37 4.07-.465 6.11-.161 3.435.114 6.88.408 10.305.123 1.461.151 3.188-.938 4.099-.967.807-2.361.579-3.583.351a51.997 51.997 0 00-17.146-.341c-1.27.189-2.559.417-3.82.208-1.26-.208-2.53-.958-3.014-2.211-.246-.645-.265-1.356-.284-2.049-.029-1.499-.067-3.008-.095-4.507-.37-17.013-.73-34.036-.663-51.058.009-1.12.019-2.296.53-3.283.417-.816 1.469-2.021 2.455-1.993 1.261.038 1.441 1.3 1.839 2.306.919 2.382 2.369 4.526 4.322 6.092zM289.295 116.512c-16.994 1.148-34.178 1.85-51.258 1.015-5.042-.247-11.108-.303-13.933 2.401-1.374 1.309-1.81 2.97-1.696 4.545 1.241 17.07.161 20.258 1.099 30.373.161 1.784.379 3.662 1.943 5.133 2.569 2.429 7.744 2.913 12.303 3.122 18.245.825 36.585.778 54.821-.152 4.066-.209 9.488-.028 10.966-2.818 3.062-5.788 1.868-19.015 1.621-25.743-.351-9.963 1.441-19.043-15.866-17.876zM267.798 28.287c.019 1.176.019 2.41-.474 3.482-.739 1.623-2.445 2.543-4.037 3.35a4455.088 4455.088 0 01-23.307 11.746c-.967-1.375-.995-3.178-.995-4.858 0-5.55.009-11.11.009-16.662 0-1.12.01-2.277.531-3.273.635-1.234 1.924-1.964 3.137-2.619 7.374-4.014 14.739-8.929 22.454-12.23 2.559-1.092 2.341-.788 2.426 1.973.067 2.087.057 4.175.086 6.262l.17 12.829z" fill="#F98E12"/><path d="M220.958 59.656c-.01 1.016.066 2.211.91 2.78a330.441 330.441 0 0134.85-19.49c-.161-.844-1.412-.673-2.179-.303-3.943 1.945-7.877 3.89-11.82 5.836-1.99.986-4.72 1.84-6.151.133-1.583-1.88.114-5.105-1.355-7.07-.882-.151-1.725.361-2.465.855-3.383 2.23-8.426 4.412-11.193 7.372-1.185 1.262-.768 1.68-.607 3.274.209 2.182.029 4.43.01 6.613z" fill="#F98E12"/><path d="M269.827 27.177c-.048 2.249-.057 4.64 1.09 6.576.966 1.632 2.625 2.713 4.217 3.738 1.811 1.158 3.621 2.325 5.441 3.482 3.45 2.211 6.919 4.422 10.634 6.149.597.275 1.223.55 1.886.56 1.166.019 2.171-.76 3.081-1.49 2.35-1.916 4.71-3.833 7.061-5.75 1.024-.825 2.028-1.708 2.739-2.818 1.213-1.898 1.043-3.302 1.1-5.048.113-3.283.464-4.526-.939-6.044-2.113-2.277-3.687-2.999-6.388-4.972-2.986-2.183-5.459-3.416-9.326-5.959-3.005-1.974-6.341-4.08-9.384-6.006-2.881-1.822-10.691-7.382-10.947-.968-.237 5.92-.152 12.61-.265 18.55z" fill="#D86C00"/><path d="M293.228 52.483c4.123 2.571 7.137 5.057 10.739 7.012.55.294.976.797 1.564 1.006 1.535.531 3.147-.437 4.474-1.357 2.265-1.566 4.53-3.14 6.795-4.706.73-.503 1.555-1.263 1.308-2.117-.123-.426-.493-.72-.843-.996-3.355-2.59-6.711-5.18-10.066-7.78-.284-.219-1.213-.987-1.573-1.054-.541-.114-1.138.086-1.555.446-2.758 2.382-3.44 3.976-6.682 5.665-1.857.968-3.583 1.452-5.402.418-1.801-1.025-3.128-1.348-6.028-2.838a109.26 109.26 0 00-4.976-2.362c-2.436-1.072-4.408-2.78-7.147-3.103-5.27-1.205 16.369 9.887 19.392 11.766z" fill="#F98E12"/><path d="M318.146 63.727c.531.076 1.194.133 1.46-.332.095-.17.104-.38.114-.57a42.778 42.778 0 00-.162-5.626c-.018-.209-.047-.418-.17-.579-.161-.2-.436-.256-.692-.275-1.573-.114-2.986.901-4.237 1.86-.862.664-6.985 4.43-6.36 5.74.503 1.016 8.616-.436 10.047-.218zM241.791 141.306c14.786-.285 29.789-.351 44.67-.19 4.388.047 9.687.057 12.141-.456 1.195-.246 1.375-.569 1.479-.863.682-1.926-.142-3.862-.957-5.788-.142-.342-.332-.693-1.697-.977-2.237-.465-6.748-.551-10.72-.598a2231.539 2231.539 0 00-47.779.028c-3.545.038-7.554.124-9.554.541-5.108 1.053-1.27 3.625-1.412 4.906-.199 1.727-2.957 3.662 13.829 3.397z" fill="#D86C00"/><path d="M242.264 159.277a835.094 835.094 0 0144.671-.342c4.388.086 9.686.105 12.141-.816 1.194-.446 1.374-1.005 1.479-1.537.682-3.425-.143-6.86-.958-10.295-.142-.607-.331-1.243-1.696-1.736-2.237-.826-6.749-.987-10.72-1.054a1294.215 1294.215 0 00-47.779.048c-3.545.066-7.554.218-9.554.958-5.109 1.879-1.27 6.443-1.412 8.72-.199 3.075-2.957 6.519 13.828 6.054z" fill="#FFF2EA"/></g><path fill-rule="evenodd" clip-rule="evenodd" d="M454.858 360.21c24.668-10.422 58.408-24.677 65.249-96.666a69.65 69.65 0 00.343-3.944c.04-.504.079-1.011.116-1.52a23.85 23.85 0 00-.003-3.765c-.141-8.727-1.92-17.342-5.523-24.262a36.415 36.415 0 00-1.058-1.893l-.068-.113a33.998 33.998 0 00-3.849-5.229c-6.918-7.794-16.207-11.084-24.99-13.808-124.251-38.512-252.582-50.024-379.222-34.009-20.984 2.655-42.666 6.402-60.72 21.95-7.13 6.144-13.542 14.624-18.375 24.456a88.155 88.155 0 00-3.098 7.009c-3.244 8.257-5.377 17.216-5.98 26.376l-.174-.013c-6.66 23.094.129 58.733 18.302 72.819 36.658 35.898 90.597 39.447 140.017 41.117l80.314 2.712 80.448 2.716c39.24 1.322 79.738 2.426 116.286-13.093l.397-.168.701-.297.887-.375z" fill="#fff"/><path d="M444.821 351.261c-34.958 13.717-73.694 12.742-111.226 11.573l-153.767-4.798c-47.269-1.476-98.862-4.614-133.925-36.346-17.382-12.452-23.876-43.956-17.505-64.37 131.877 8.63 262.875 14.21 394.462 1.907 20.151-1.881 89.275-31.311 86.709 1.011-5.519 69.633-40.45 81.488-64.748 91.023z" fill="#666"/><path d="M508.409 269.438c-1.679 8.155-4.948 15.546-9.087 22.031a74.412 74.412 0 01-6.687 8.955c-21.354 24.588-51.215 30.581-79.38 34.395a1036.74 1036.74 0 01-139.513 9.368c-21.389-.009-42.884.026-64.115-3.19-18.665-2.83-37.401.957-56.259.087-24.237-1.116-48.385-5.966-71.77-14.499-17.311-6.327-35.967-17.163-45.959-35.599-2.917-5.361-5.097-11.372-6.292-18.103-2.794-15.686.8-31.767 7.9-45.063 4.623-8.691 10.756-16.187 17.576-21.618 17.268-13.744 38.006-17.057 58.078-19.403 121.129-14.157 243.876-3.981 362.721 30.062 8.401 2.408 17.285 5.317 23.902 12.207a30.346 30.346 0 013.682 4.622c6.248 9.561 7.716 23.56 5.203 35.748z" fill="#999"/><path d="M508.409 269.438c-1.679 8.155-4.948 15.546-9.087 22.031-34.922-.035-69.845 4.781-104.767 5.405-93.229 1.678-186.466.439-279.695.342-26.407-.026-52.814-6.204-79.221-6.23-2.918-5.361-5.097-11.371-6.292-18.103-2.197-12.338-.44-24.922 3.867-36.196a74.894 74.894 0 014.033-8.867c33.182-.703 66.716.817 99.767.835 84.309.052 168.627-2.54 252.936-2.487 7.918 0 70.768 2.882 109.574 2.9a30.395 30.395 0 013.682 4.622 31.537 31.537 0 012.32 4.227c4.262 9.192 5.044 21.029 2.883 31.521z" fill="#666"/><path d="M508.409 269.438c-1.679 8.155-4.948 15.546-9.087 22.031-34.922-.035-69.845 4.781-104.767 5.405-93.229 1.678-186.466.439-279.695.342-26.407-.026-52.814-6.204-79.221-6.23-2.918-5.361-5.097-11.371-6.292-18.103-2.197-12.338-.44-24.922 3.867-36.196 29.333.052 58.78.993 87.903 1.01 94.468.053 188.944-2.539 283.412-2.487 7.496 0 58.992 2.057 100.997 2.707 4.262 9.192 5.044 21.029 2.883 31.521z" fill="#CCC"/><g clip-path="url(#prefix__clip1)"><path d="M506 248.254v1.572c-.083 6.198-1.564 12.033-5.874 16.379-5.677 5.721-14.4 6.808-22.428 7.47-39.915 3.311-79.945 4.325-120.005 4.325-34.031 0-68.082-.735-102.103-1.397a27355.717 27355.717 0 00-193.163-3.104c-6.486-.083-12.97-.155-19.466-.238-9.013-.103-8.961-7.325-8.961-16.316v-98.137c0-9.064 3.605-21.728 12.67-21.749 116.814-.238 228.237-.734 356.83 1.604 14.628.269 38.46-1.709 52 3.837 35.44 14.527 40.565 53.659 48.501 91.093 1.004 4.697 1.895 9.767 1.999 14.661z" fill="#FFF2EA"/><path d="M231.918 222.553c-.518 2.317-1.357 4.77-3.47 7.015-2.341 2.504-6.257 4.738-13.053 6.197-7.821 1.676-17.777 1.904-27.214 2.09-3.45.062-6.9.135-10.35.197-42.453.786-84.989 1.5-127.484 1.231a6.239 6.239 0 01-6.195-6.239v-76.947a6.224 6.224 0 016.289-6.229c9.655.083 19.63.259 29.369.311 35.636.186 107.014-4.553 136.372 1.748 11.489 2.473 13.841 7.408 14.928 11.775 4.9 19.565 5.17 39.265.808 58.851zM270.093 161.167c-.435 23.6-.87 47.19-1.315 70.781-.032 1.541-.011 3.228.963 4.407.663.818 1.678 1.252 2.673 1.552 12.69 3.89 25.608-8.794 38.641-6.311 5.055.962 9.613 4.314 12.069 8.898 1.709 3.166 2.652 7.118 5.687 9.012 1.595.983 3.512 1.241 5.376 1.469 5.988.714 12.722 1.241 17.394-2.618 4.361-3.611 5.553-9.984 9.552-13.999 6.381-6.415 17.269-4.469 24.966.238 2.31 1.428 4.548 3.063 7.127 3.922 2.57.858 5.335.889 8.029.92 26.437.218 52.854.425 79.292.621 1.46.011 2.942.011 4.309-.476 4.517-1.634 5.584-7.584 5.522-12.447-.228-18.21-5.853-36.099-14.597-51.991-4.444-8.06-10.183-16.089-18.647-19.483-6.744-2.71-14.265-2.1-21.496-1.562-20.864 1.562-41.79 2.245-62.706 2.287-20.046.051-40.495.662-60.448-1.511-9.955-1.097-42.142-7.253-42.391 6.291z" fill="#F98E12"/><path d="M240.051 170.292c.808 18.055.984 36.368.538 54.537-.124 5.359-.155 11.826 1.285 14.827.704 1.469 1.595 1.676 2.424 1.8 5.418.828 10.836-.166 16.265-1.169.963-.187 1.957-.404 2.755-2.07 1.295-2.731 1.554-8.246 1.668-13.098.435-19.41.414-38.934-.083-58.334-.114-4.325-.352-9.219-1.512-11.671-2.963-6.249-10.173-1.552-13.778-1.738-4.869-.218-10.308-3.58-9.562 16.916z" fill="#013507"/><path d="M175.055 177.67a290.537 290.537 0 011.171 48.504c-.28 4.77-.342 10.512 2.755 13.192 1.513 1.293 3.419 1.49 5.232 1.604 11.654.734 23.33-.155 34.974-1.045 2.04-.155 4.216-.362 5.915-1.832 2.797-2.441 3.356-7.325 3.584-11.639.943-17.269.891-34.62-.165-51.888-.239-3.849-.746-8.205-3.243-10.378-6.381-5.556-21.89-1.386-29.638-1.542-10.464-.196-22.17-3.197-20.585 15.024z" fill="#D86C00"/><path d="M205.44 182.688a736.61 736.61 0 01.31 40.341c-.072 3.962-.093 8.742.746 10.967.404 1.086.912 1.242 1.409 1.345 3.149.621 6.299-.124 9.438-.879.549-.125 1.139-.3 1.595-1.521.767-2.028.901-6.094.974-9.685.248-14.361.238-28.794-.042-43.165-.072-3.198-.196-6.819-.87-8.629-1.719-4.625-5.915-1.159-8.008-1.283-2.828-.145-5.977-2.66-5.552 12.509zM198.789 182.688a736.607 736.607 0 00-.311 40.341c.072 3.962.093 8.742-.746 10.967-.414 1.086-.922 1.242-1.409 1.345-3.149.621-6.298-.124-9.448-.879-.549-.125-1.139-.3-1.595-1.521-.756-2.028-.901-6.094-.974-9.685-.249-14.361-.238-28.794.041-43.165.073-3.198.197-6.819.871-8.629 1.719-4.625 5.915-1.159 8.008-1.283 2.838-.145 6.008-2.66 5.563 12.509zM281.623 187.457c1.72 7.822 2.114 15.748 1.161 23.611-.28 2.328-.342 5.122 2.735 6.425 1.491.632 3.397.735 5.21.787 11.582.362 23.185-.073 34.767-.507 2.03-.073 4.185-.166 5.884-.89 2.776-1.18 3.326-3.57 3.574-5.67.943-8.401.881-16.854-.176-25.256-.238-1.873-.746-3.994-3.232-5.049-6.33-2.711-21.765-.672-29.452-.745-10.422-.103-22.045-1.573-20.471 7.294zM341.553 187.457c1.72 7.822 2.124 15.748 1.16 23.611-.279 2.328-.342 5.122 2.735 6.425 1.502.632 3.409.735 5.211.787 11.592.362 23.185-.073 34.767-.507 2.03-.073 4.185-.166 5.884-.89 2.776-1.18 3.325-3.57 3.563-5.67.954-8.401.891-16.854-.165-25.256-.239-1.873-.746-3.994-3.232-5.049-6.34-2.711-21.766-.672-29.453-.745-10.4-.103-22.045-1.573-20.47 7.294zM51.135 187.457c1.72 7.822 2.113 15.748 1.16 23.611-.28 2.328-.342 5.122 2.735 6.425 1.492.632 3.398.735 5.21.787 11.593.362 23.196-.073 34.767-.507 2.03-.073 4.196-.166 5.884-.89 2.777-1.18 3.326-3.57 3.574-5.67.943-8.401.891-16.854-.165-25.256-.239-1.873-.746-3.994-3.232-5.049-6.34-2.711-21.766-.672-29.453-.745-10.421-.103-22.065-1.573-20.48 7.294zM111.064 187.457c1.72 7.822 2.114 15.748 1.161 23.611-.28 2.328-.342 5.122 2.735 6.425 1.502.632 3.398.735 5.21.787 11.582.362 23.185-.073 34.767-.507 2.03-.073 4.196-.166 5.884-.89 2.776-1.18 3.336-3.57 3.574-5.67.943-8.401.891-16.854-.166-25.256-.238-1.873-.745-3.994-3.232-5.049-6.34-2.711-21.765-.672-29.452-.745-10.421-.103-22.055-1.573-20.481 7.294z" fill="#FFF2EA"/><path d="M403.078 181.001a290.551 290.551 0 011.171 48.505c-.28 4.769-.342 10.512 2.756 13.192 1.512 1.293 3.408 1.489 5.231 1.603 11.665.735 23.33-.155 34.974-1.045 2.051-.155 4.227-.362 5.915-1.831 2.797-2.442 3.357-7.325 3.585-11.64.942-17.268.89-34.619-.166-51.888-.238-3.849-.746-8.205-3.253-10.377-6.371-5.556-21.89-1.387-29.639-1.542-10.452-.217-22.169-3.218-20.574 15.023z" fill="#D86C00"/><path d="M433.452 186.019a735.61 735.61 0 01.311 40.341c-.072 3.963-.103 8.743.746 10.968.414 1.086.922 1.241 1.409 1.334 3.149.621 6.299-.124 9.448-.879.549-.124 1.139-.3 1.595-1.521.757-2.028.902-6.094.974-9.684a1176.45 1176.45 0 00-.041-43.166c-.073-3.197-.197-6.819-.881-8.629-1.72-4.625-5.915-1.159-7.998-1.283-2.828-.155-5.987-2.649-5.563 12.519zM426.802 186.019a735.61 735.61 0 00-.311 40.341c.072 3.963.103 8.743-.746 10.968-.404 1.086-.922 1.241-1.409 1.334-3.149.621-6.299-.124-9.448-.879-.549-.124-1.139-.3-1.595-1.521-.756-2.028-.901-6.094-.974-9.684a1176.45 1176.45 0 01.041-43.166c.073-3.197.208-6.819.881-8.629 1.72-4.625 5.915-1.159 7.998-1.283 2.838-.155 5.998-2.649 5.563 12.519zM474.455 179.594c5.046 10.822 8.184 23.228 9.117 35.933.083 1.139-.57 2.184-1.43 2.297a67.336 67.336 0 01-14.648.352c-.58-.041-1.202-.114-1.689-.538-.559-.476-.87-1.314-1.088-2.142-.818-3.021-.88-6.29-.911-9.498-.083-6.642-.156-13.274-.238-19.906-.052-4.553.507-9.054 4.05-10.978 2.901-1.583 5.325 1.262 6.837 4.48z" fill="#FFF2EA"/><path d="M501.608 259.345c-1.078 1.624-2.943 2.556-4.89 2.566-40.537.217-80.742-.176-121.279.962-45.343 1.262-91.557 3.922-136.631-1.283-12.463-1.438-25.05-1.21-37.605-.993-35.917.662-71.564 2.359-107.501 1.997-14.503-.145-29.038-.207-43.583-.248-3.294-.011-5.967-2.68-5.967-5.97v-4.687c0-3.301 2.673-5.97 5.978-5.981 14.855-.031 29.7-.051 44.546-.083 4.796-.02 9.582-.02 14.379-.031 21.154-.041 42.598-.496 63.752-.538 32.56.352 65.141.725 97.701 1.076 3.014.042 6.07.063 9.012-.569 2.974-.631 5.74-1.914 8.485-3.186 3.512-1.635 8.008-3.125 11.685-4.367 6.962-2.359 15.332.58 19.311 6.736 1.875 2.918 2.952 6.529 5.791 8.526 2.61 1.831 6.039 1.821 9.23 1.738 3.708-.104 7.407-.197 11.105-.3 3.118-.083 6.382-.197 9.127-1.656 6.526-3.476 8.08-13.16 14.938-15.892 2.922-1.169 6.247-.776 9.241.166 5.884 1.862 10.981 5.701 16.793 7.791 5.977 2.121 12.452 2.317 18.792 2.4a769.52 769.52 0 0074.557-2.535c2.435-.197 4.921-.404 7.262.238 3.481.962 6.33 3.911 7.2 7.418.57 2.411-.093 4.708-1.429 6.705z" fill="#013507"/></g><defs><clipPath id="prefix__clip0"><path fill="#fff" transform="translate(42.002 .278)" d="M0 0h432.998v175.482H0z"/></clipPath><clipPath id="prefix__clip1"><path fill="#fff" transform="translate(34 132)" d="M0 0h472v146H0z"/></clipPath></defs></svg>