<svg width="520" height="477" viewBox="0 0 520 477" fill="none" xmlns="http://www.w3.org/2000/svg">
<path d="M309.428 254.59C308.457 254.576 307.446 254.564 306.411 254.555C306.284 250.869 306.156 247.185 306.028 243.499C306.444 243.506 306.86 243.517 307.273 243.522L307.298 241.343C306.851 241.338 306.399 241.326 305.953 241.318C305.169 218.704 304.381 196.095 303.664 173.406C303.627 173.46 303.633 173.187 303.656 172.817C303.66 172.926 303.665 173.038 303.667 173.148C304.92 171.602 306.17 170.059 307.42 168.51C304.6 168.317 301.782 168.13 298.961 167.945C295.594 162.458 292.068 157.072 288.391 151.797C288.446 147.013 288.501 142.23 288.556 137.447C288.6 133.607 287.822 131.318 288.914 127.67C284.379 127.712 280.229 127.762 275.75 127.902C275.736 128.044 275.728 128.178 275.715 128.317C274.909 130.238 271.982 131.383 271.175 133.222C270.433 134.916 271.107 135.143 271.087 136.924C271.067 138.675 271.047 140.427 271.026 142.178C271.022 142.557 271.021 142.937 271.019 143.316C265.294 142.804 259.555 142.444 253.812 142.199C253.831 140.484 253.851 138.766 253.871 137.051C253.915 133.212 253.404 130.926 254.147 127.274C251.114 127.333 248.336 127.399 245.341 127.555C245.33 127.698 245.325 127.831 245.318 127.971C244.774 129.895 242.809 131.051 242.262 132.893C241.76 134.59 242.21 134.814 242.189 136.595C242.169 138.347 242.149 140.098 242.129 141.849C232.566 141.67 222.991 141.73 213.425 141.835C213.646 136.374 215.15 132.815 214.698 127.204C210.224 126.961 206.076 126.816 201.542 126.67C202.551 130.343 201.72 132.613 201.676 136.452C201.655 138.294 201.634 140.134 201.613 141.976C191.937 142.096 182.261 142.212 172.586 142.332C172.594 141.904 172.599 141.476 172.604 141.048C172.624 139.297 172.644 137.545 172.664 135.794C172.684 134.016 173.139 133.799 172.676 132.091C172.172 130.237 170.237 129.034 169.737 127.1C169.733 126.961 169.728 126.827 169.721 126.684C166.73 126.459 163.954 126.33 160.923 126.201C161.583 129.869 161.019 132.142 160.975 135.982C160.95 138.146 160.925 140.31 160.901 142.471C155.855 142.531 150.812 142.595 145.766 142.655C145.78 142.015 145.79 141.375 145.798 140.737C145.818 138.986 145.838 137.235 145.858 135.483C145.878 133.705 146.558 133.491 145.855 131.78C145.093 129.923 142.19 128.708 141.429 126.772C141.418 126.632 141.417 126.499 141.403 126.356C136.929 126.113 132.781 125.969 128.247 125.822C129.256 129.495 128.425 131.765 128.381 135.604C128.327 140.309 128.273 145.01 128.219 149.715C123.191 154.559 118.163 159.401 113.136 164.246C110.646 164.308 108.156 164.374 105.666 164.445C108.632 167.293 109.811 168.824 113.858 169.038L110.246 168.996C110.023 192.109 109.8 215.222 109.577 238.335C108.539 238.323 107.504 238.305 106.466 238.293L106.441 240.473C107.479 240.484 108.517 240.499 109.555 240.514C109.514 244.636 109.476 248.755 109.435 252.877C108.403 252.865 107.441 252.851 106.57 252.835C107.475 253.273 108.769 253.771 109.139 254.288L109.421 254.291C109.27 269.855 109.119 285.42 108.97 300.984C174.314 306.734 242.432 303.445 307.949 300.676C307.481 285.909 306.982 271.175 306.478 256.45C306.699 256.45 306.921 256.449 307.139 256.449C307.064 255.874 309.018 255.141 309.428 254.59Z" stroke="#FFF2EA" stroke-width="11.2307" stroke-miterlimit="10" stroke-linejoin="round"/>
<path d="M111.974 165.765C118.226 159.742 124.479 153.721 130.731 147.698C132.333 146.156 133.982 144.581 136.013 143.709C138.194 142.775 140.626 142.73 142.991 142.702C164.304 142.44 185.616 142.178 206.928 141.919C230.357 141.632 253.852 141.346 277.148 143.881C279.07 144.092 281.04 144.333 282.757 145.242C284.923 146.39 286.447 148.465 287.872 150.488C292.391 156.909 296.684 163.493 300.741 170.224L203.461 224.484L111.974 165.765Z" fill="#013507"/>
<path d="M308.35 300.684C242.833 303.453 174.714 306.742 109.371 300.992C109.794 256.997 110.22 212.999 110.647 169.004L304.108 171.225C304.219 171.072 303.957 173.564 304.065 173.41C305.413 215.929 307.001 258.165 308.35 300.684Z" fill="#F98E12"/>
<path d="M307.821 168.518C306.571 170.067 305.321 171.61 304.067 173.156C304.063 173.01 304.056 172.861 304.051 172.715C304.019 171.831 170.143 170.042 157.909 169.799C148.347 169.607 138.784 169.433 129.224 169.278C124.31 169.197 119.377 169.256 114.467 169.057C110.253 168.884 109.09 167.347 106.072 164.453C173.334 162.53 240.689 163.886 307.821 168.518Z" fill="#D86C00"/>
<path d="M141.724 126.433C142.246 128.579 145.456 129.824 146.262 131.788C146.965 133.499 146.285 133.71 146.265 135.491C146.245 137.242 146.224 138.994 146.204 140.745C146.176 143.225 146.105 145.701 145.946 148.161C145.872 149.301 146.122 150.834 145.461 151.828C144.584 153.151 141.816 154.166 140.298 155.19C137.797 152.326 138.069 151.355 137.817 148.162C137.529 144.47 137.178 140.353 137.393 136.682C137.578 133.573 138.482 129.61 141.724 126.433Z" fill="#D86C00"/>
<path d="M128.568 154.958C128.642 148.512 128.717 142.062 128.791 135.615C128.835 131.776 129.665 129.506 128.657 125.833C133.19 125.98 137.338 126.124 141.813 126.367C142.286 132.237 140.614 135.854 140.516 141.757C140.44 146.24 140.251 150.858 139.908 155.353C137.331 155.004 132.716 155.1 128.568 154.958Z" fill="#F98E12"/>
<path d="M201.855 155.799C201.929 149.352 202.003 142.903 202.077 136.456C202.121 132.617 202.951 130.347 201.943 126.674C206.477 126.82 210.625 126.965 215.099 127.208C215.572 133.078 213.901 136.695 213.802 142.598C213.727 147.081 213.537 151.699 213.194 156.193C210.621 155.845 206.003 155.941 201.855 155.799Z" fill="#F98E12"/>
<path d="M170.066 126.758C170.409 128.902 172.55 130.134 173.08 132.095C173.543 133.804 173.088 134.017 173.068 135.799C173.048 137.55 173.028 139.301 173.007 141.052C172.979 143.532 172.923 146.008 172.807 148.469C172.754 149.61 172.913 151.141 172.467 152.138C171.875 153.464 170.021 154.49 169.001 155.519C167.337 152.665 167.525 151.693 167.37 148.501C167.191 144.81 166.974 140.695 167.131 137.024C167.264 133.914 167.884 129.947 170.066 126.758Z" fill="#D86C00"/>
<path d="M161.156 155.333C161.23 148.886 161.305 142.437 161.379 135.99C161.423 132.151 161.986 129.877 161.327 126.209C164.358 126.338 167.134 126.467 170.124 126.692C170.418 132.56 169.287 136.184 169.198 142.087C169.131 146.57 168.987 151.188 168.738 155.684C167.018 155.345 163.929 155.459 161.156 155.333Z" fill="#F98E12"/>
<path d="M245.802 127.628C245.41 129.763 243.241 130.946 242.666 132.895C242.164 134.592 242.614 134.816 242.593 136.597C242.573 138.349 242.553 140.1 242.533 141.851C242.505 144.331 242.503 146.808 242.563 149.27C242.59 150.412 242.396 151.94 242.818 152.946C243.38 154.285 245.21 155.353 246.206 156.406C247.935 153.591 247.77 152.614 247.998 149.427C248.262 145.742 248.573 141.632 248.5 137.958C248.439 134.846 247.908 130.866 245.802 127.628Z" fill="#D86C00"/>
<path d="M254.05 156.399C254.124 149.953 254.198 143.503 254.272 137.056C254.316 133.217 253.805 130.931 254.548 127.279C251.515 127.338 248.736 127.404 245.742 127.561C245.313 133.42 246.361 137.069 246.314 142.972C246.278 147.455 246.316 152.076 246.462 156.576C248.189 156.277 251.274 156.461 254.05 156.399Z" fill="#F98E12"/>
<path d="M276.234 127.977C275.663 130.111 272.426 131.281 271.575 133.227C270.833 134.921 271.508 135.147 271.487 136.929C271.467 138.68 271.447 140.431 271.427 142.183C271.398 144.662 271.412 147.14 271.515 149.603C271.562 150.744 271.278 152.271 271.916 153.28C272.762 154.622 275.506 155.701 277 156.759C279.566 153.954 279.317 152.977 279.642 149.79C280.015 146.106 280.46 141.998 280.329 138.324C280.219 135.211 279.402 131.228 276.234 127.977Z" fill="#D86C00"/>
<path d="M288.735 156.797C288.809 150.35 288.883 143.901 288.957 137.454C289.001 133.615 288.223 131.326 289.315 127.678C284.779 127.72 280.629 127.769 276.15 127.909C275.543 133.767 277.131 137.421 277.093 143.325C277.066 147.808 277.15 152.429 277.389 156.931C279.97 156.642 284.582 156.843 288.735 156.797Z" fill="#F98E12"/>
<path d="M139.141 182.235L139.073 188.181C138.605 189.238 138.778 191.14 138.678 192.393C138.482 194.961 138.383 197.51 138.353 200.09C138.327 202.388 138.132 204.789 138.294 207.095C137.144 207.064 136.024 207.054 134.964 207.06C134.634 199.127 135.094 191.04 135.185 183.088C136.121 182.501 137.532 182.265 139.141 182.235Z" fill="#D86C00"/>
<path d="M149.895 208.145C146.372 207.522 142.157 207.197 138.294 207.095C138.132 204.789 138.326 202.387 138.353 200.09C138.382 197.51 138.482 194.961 138.678 192.392C138.777 191.14 138.605 189.237 139.072 188.18L139.141 182.235C142.748 182.161 147.339 183.1 149.768 183.307C150.987 191.298 149.816 200.03 149.895 208.145Z" fill="#013507"/>
<path d="M168.732 206.173C168.732 206.51 168.705 206.956 168.691 207.432C168.105 207.426 167.528 207.425 166.97 207.428C166.639 199.495 167.102 191.408 167.193 183.456C167.627 183.182 168.164 182.987 168.776 182.852C168.722 187.547 168.671 192.243 168.614 196.938C168.578 200.021 168.737 203.092 168.732 206.173Z" fill="#D86C00"/>
<path d="M181.901 208.513C177.881 207.802 172.964 207.481 168.691 207.432C168.705 206.956 168.732 206.51 168.733 206.173C168.738 203.092 168.579 200.021 168.614 196.938C168.671 192.242 168.722 187.547 168.776 182.852C172.437 182.038 178.765 183.419 181.773 183.675C182.993 191.666 181.824 200.398 181.901 208.513Z" fill="#013507"/>
<path d="M199.198 183.823C199.107 191.775 198.644 199.862 198.978 207.795C203.598 207.769 209.338 208.072 213.909 208.88C213.829 200.765 215.001 192.033 213.781 184.042C210.27 183.744 202.234 181.912 199.198 183.823Z" fill="#013507"/>
<path d="M245.915 209.248C245.509 209.177 245.091 209.108 244.667 209.045C244.638 208.125 244.566 207.22 244.549 206.561C244.485 203.746 244.453 200.923 244.358 198.111C244.198 193.523 244.409 188.878 244.508 184.268C244.978 184.328 245.408 184.378 245.787 184.41C247.007 192.401 245.838 201.133 245.915 209.248Z" fill="#D86C00"/>
<path d="M244.666 209.045C240.33 208.388 235.194 208.135 230.983 208.162C230.652 200.23 231.115 192.142 231.207 184.19C233.916 182.485 240.604 183.761 244.507 184.267C244.409 188.877 244.198 193.522 244.358 198.11C244.453 200.922 244.484 203.746 244.549 206.561C244.566 207.219 244.637 208.125 244.666 209.045Z" fill="#013507"/>
<path d="M277.923 209.615C276.648 209.391 275.284 209.206 273.88 209.053C274.026 200.813 274.357 192.603 274.507 184.357C275.782 184.536 276.928 184.703 277.795 184.777C279.015 192.769 277.843 201.5 277.923 209.615Z" fill="#D86C00"/>
<path d="M274.506 184.356C274.357 192.602 274.026 200.812 273.88 209.052C270.239 208.661 266.325 208.51 262.991 208.53C262.658 200.597 263.121 192.51 263.212 184.558C265.499 183.118 270.618 183.802 274.506 184.356Z" fill="#013507"/>
<path d="M134.763 219.843C134.672 227.795 134.209 235.882 134.542 243.815C139.163 243.789 144.903 244.092 149.474 244.9C149.394 236.785 150.566 228.053 149.346 220.062C145.835 219.764 137.799 217.932 134.763 219.843Z" fill="#013507"/>
<path d="M166.771 220.211C166.68 228.163 166.217 236.25 166.551 244.183C171.171 244.157 176.911 244.459 181.482 245.268C181.402 237.153 182.574 228.421 181.354 220.43C177.843 220.131 169.807 218.3 166.771 220.211Z" fill="#013507"/>
<path d="M198.777 220.578C198.685 228.53 198.222 236.618 198.556 244.55C203.177 244.524 208.916 244.827 213.488 245.635C213.408 237.521 214.579 228.789 213.36 220.797C209.848 220.499 201.813 218.667 198.777 220.578Z" fill="#013507"/>
<path d="M230.782 220.947C230.691 228.899 230.227 236.986 230.561 244.919C235.182 244.893 240.921 245.195 245.493 246.004C245.413 237.889 246.585 229.157 245.365 221.166C241.856 220.867 233.818 219.036 230.782 220.947Z" fill="#013507"/>
<path d="M262.79 221.313C262.699 229.265 262.235 237.353 262.569 245.285C267.19 245.259 272.929 245.562 277.501 246.37C277.421 238.255 278.593 229.524 277.373 221.532C273.861 221.234 265.826 219.402 262.79 221.313Z" fill="#013507"/>
<path d="M134.271 262.669C134.18 270.621 133.717 278.708 134.051 286.641C138.671 286.615 144.411 286.918 148.982 287.726C148.902 279.611 150.074 270.879 148.854 262.888C145.343 262.589 137.307 260.758 134.271 262.669Z" fill="#013507"/>
<path d="M166.28 263.036C166.188 270.988 165.725 279.076 166.059 287.008C170.679 286.983 176.419 287.285 180.99 288.094C180.911 279.979 182.082 271.247 180.863 263.255C177.351 262.957 169.316 261.125 166.28 263.036Z" fill="#013507"/>
<path d="M198.285 263.404C198.194 271.356 197.73 279.443 198.064 287.376C202.685 287.35 208.424 287.653 212.996 288.461C212.916 280.346 214.088 271.614 212.868 263.623C209.356 263.325 201.321 261.493 198.285 263.404Z" fill="#013507"/>
<path d="M230.29 263.772C230.199 271.724 229.736 279.811 230.07 287.744C234.69 287.718 240.43 288.021 245.001 288.829C244.921 280.714 246.093 271.982 244.873 263.991C241.365 263.692 233.326 261.861 230.29 263.772Z" fill="#013507"/>
<path d="M262.298 264.139C262.207 272.091 261.744 280.178 262.078 288.111C266.698 288.085 272.438 288.388 277.009 289.196C276.929 281.081 278.101 272.349 276.882 264.358C273.37 264.06 265.335 262.228 262.298 264.139Z" fill="#013507"/>
<path d="M138.719 218.978L138.651 224.924C138.183 225.981 138.356 227.883 138.256 229.136C138.06 231.705 137.961 234.253 137.931 236.833C137.905 239.131 137.71 241.533 137.872 243.838C136.722 243.807 135.602 243.797 134.542 243.803C134.211 235.871 134.672 227.783 134.763 219.831C135.698 219.244 137.11 219.008 138.719 218.978Z" fill="#D86C00"/>
<path d="M138.227 261.795L138.159 267.74C137.691 268.797 137.864 270.7 137.764 271.952C137.568 274.521 137.469 277.07 137.439 279.65C137.413 281.947 137.218 284.349 137.38 286.655C136.23 286.623 135.11 286.614 134.051 286.62C133.72 278.687 134.18 270.6 134.271 262.648C135.207 262.06 136.618 261.825 138.227 261.795Z" fill="#D86C00"/>
<path d="M277.501 246.371C276.226 246.147 274.862 245.961 273.458 245.808C273.604 237.568 273.935 229.358 274.085 221.112C275.361 221.291 276.506 221.459 277.373 221.533C278.593 229.524 277.421 238.256 277.501 246.371Z" fill="#D86C00"/>
<path d="M277.009 289.196C275.734 288.972 274.37 288.786 272.966 288.633C273.113 280.394 273.444 272.183 273.593 263.938C274.869 264.116 276.014 264.284 276.882 264.358C278.101 272.349 276.929 281.081 277.009 289.196Z" fill="#D86C00"/>
<path d="M245.494 245.875C245.088 245.804 244.67 245.735 244.246 245.673C244.217 244.753 244.145 243.847 244.128 243.188C244.064 240.374 244.032 237.55 243.937 234.738C243.777 230.15 243.989 225.505 244.087 220.895C244.557 220.955 244.987 221.006 245.366 221.037C246.586 229.029 245.417 237.761 245.494 245.875Z" fill="#D86C00"/>
<path d="M245.004 288.574C244.598 288.502 244.18 288.434 243.755 288.371C243.727 287.451 243.655 286.546 243.638 285.887C243.573 283.072 243.542 280.249 243.447 277.437C243.287 272.848 243.498 268.203 243.597 263.593C244.067 263.653 244.497 263.704 244.876 263.736C246.096 271.727 244.927 280.459 245.004 288.574Z" fill="#D86C00"/>
<path d="M168.31 242.928C168.309 243.265 168.283 243.711 168.269 244.187C167.683 244.181 167.106 244.18 166.547 244.183C166.217 236.25 166.68 228.163 166.771 220.211C167.205 219.937 167.742 219.742 168.353 219.607C168.3 224.302 168.249 228.997 168.192 233.693C168.156 236.776 168.315 239.847 168.31 242.928Z" fill="#D86C00"/>
<path d="M167.819 285.757C167.818 286.094 167.791 286.54 167.777 287.016C167.191 287.01 166.614 287.009 166.056 287.012C165.725 279.079 166.188 270.992 166.279 263.04C166.714 262.766 167.25 262.571 167.862 262.436C167.808 267.131 167.757 271.827 167.7 276.522C167.665 279.605 167.824 282.676 167.819 285.757Z" fill="#D86C00"/>
<path d="M109.54 254.295C109.169 253.778 107.876 253.281 106.97 252.842C113.422 252.959 124.853 253.008 133.358 252.82C147.361 252.508 161.449 253.04 175.392 252.96C186.655 252.895 197.749 253.46 208.958 253.622C214.927 253.708 220.916 253.723 226.827 253.921C239.705 254.357 252.826 253.958 265.76 254.262C272.539 254.421 279.366 254.427 286.15 254.505C293.446 254.589 302.654 254.491 309.826 254.601C309.416 255.151 307.461 255.888 307.534 256.462C294.86 256.502 281.89 256.405 269.244 255.938L109.54 254.295Z" fill="#D86C00"/>
<path d="M111.585 252.766C111.637 248.292 111.449 243.727 111.756 239.265C112.485 239.704 113.143 239.299 113.838 239.55C114.618 239.832 114.139 240.844 114.087 241.632C113.929 244.017 113.941 246.421 113.914 248.819C113.898 250.158 114.184 251.991 113.757 253.234C113.048 253.314 112.304 252.838 111.585 252.766Z" fill="#D86C00"/>
<path d="M125.237 252.922C125.289 248.448 125.101 243.883 125.407 239.421C126.137 239.861 126.794 239.455 127.49 239.706C128.27 239.988 127.791 241 127.739 241.789C127.581 244.173 127.593 246.577 127.565 248.975C127.55 250.314 127.836 252.148 127.408 253.39C126.7 253.47 125.956 252.994 125.237 252.922Z" fill="#D86C00"/>
<path d="M138.889 253.079C138.94 248.605 138.753 244.041 139.059 239.578C139.789 240.018 140.446 239.613 141.141 239.863C141.921 240.146 141.442 241.157 141.391 241.946C141.233 244.33 141.245 246.735 141.217 249.132C141.202 250.471 141.487 252.305 141.06 253.548C140.352 253.627 139.604 253.151 138.889 253.079Z" fill="#D86C00"/>
<path d="M152.538 253.236C152.589 248.762 152.402 244.197 152.708 239.735C153.438 240.174 154.095 239.769 154.79 240.02C155.57 240.302 155.091 241.313 155.04 242.102C154.882 244.486 154.894 246.891 154.866 249.289C154.851 250.627 155.136 252.461 154.709 253.704C154.001 253.784 153.257 253.308 152.538 253.236Z" fill="#D86C00"/>
<path d="M166.19 253.393C166.241 248.919 166.054 244.354 166.36 239.892C167.09 240.331 167.747 239.926 168.442 240.177C169.222 240.459 168.743 241.471 168.692 242.259C168.534 244.644 168.546 247.048 168.518 249.446C168.503 250.784 168.788 252.618 168.361 253.861C167.653 253.941 166.909 253.465 166.19 253.393Z" fill="#D86C00"/>
<path d="M179.842 253.549C179.893 249.075 179.706 244.51 180.012 240.048C180.742 240.488 181.399 240.082 182.094 240.333C182.874 240.615 182.395 241.627 182.343 242.416C182.186 244.8 182.197 247.204 182.17 249.602C182.155 250.941 182.44 252.775 182.013 254.017C181.305 254.097 180.56 253.621 179.842 253.549Z" fill="#D86C00"/>
<path d="M193.491 253.706C193.542 249.232 193.355 244.667 193.661 240.205C194.39 240.644 195.048 240.239 195.743 240.49C196.523 240.772 196.044 241.784 195.992 242.572C195.835 244.957 195.846 247.361 195.819 249.759C195.803 251.097 196.089 252.931 195.662 254.174C194.957 254.254 194.209 253.778 193.491 253.706Z" fill="#D86C00"/>
<path d="M207.143 253.862C207.194 249.388 207.007 244.823 207.313 240.361C208.043 240.801 208.7 240.395 209.395 240.646C210.175 240.928 209.696 241.94 209.645 242.729C209.487 245.113 209.498 247.517 209.471 249.915C209.456 251.254 209.741 253.088 209.314 254.33C208.606 254.41 207.861 253.934 207.143 253.862Z" fill="#D86C00"/>
<path d="M220.795 254.019C220.846 249.545 220.659 244.98 220.965 240.518C221.694 240.958 222.352 240.553 223.047 240.803C223.827 241.086 223.348 242.097 223.296 242.886C223.138 245.27 223.15 247.674 223.123 250.072C223.107 251.411 223.393 253.245 222.966 254.488C222.258 254.567 221.513 254.091 220.795 254.019Z" fill="#D86C00"/>
<path d="M234.446 254.176C234.498 249.702 234.31 245.137 234.617 240.675C235.346 241.115 236.004 240.709 236.699 240.96C237.479 241.242 237 242.254 236.948 243.042C236.79 245.427 236.802 247.831 236.775 250.229C236.759 251.568 237.045 253.401 236.618 254.644C235.909 254.724 235.165 254.248 234.446 254.176Z" fill="#D86C00"/>
<path d="M248.096 254.333C248.147 249.859 247.96 245.294 248.266 240.832C248.995 241.271 249.653 240.866 250.348 241.117C251.128 241.399 250.649 242.411 250.597 243.199C250.439 245.583 250.451 247.988 250.424 250.386C250.408 251.724 250.694 253.558 250.267 254.801C249.559 254.881 248.814 254.405 248.096 254.333Z" fill="#D86C00"/>
<path d="M261.747 254.49C261.799 250.016 261.611 245.451 261.917 240.989C262.647 241.428 263.304 241.023 264 241.274C264.78 241.556 264.301 242.567 264.249 243.356C264.091 245.74 264.103 248.145 264.075 250.543C264.06 251.881 264.346 253.715 263.918 254.958C263.21 255.038 262.466 254.562 261.747 254.49Z" fill="#D86C00"/>
<path d="M275.4 254.646C275.451 250.172 275.264 245.607 275.57 241.145C276.299 241.585 276.957 241.18 277.652 241.43C278.432 241.713 277.953 242.724 277.901 243.513C277.743 245.897 277.755 248.301 277.728 250.699C277.712 252.038 277.998 253.872 277.571 255.114C276.863 255.194 276.118 254.718 275.4 254.646Z" fill="#D86C00"/>
<path d="M289.051 254.803C289.103 250.329 288.915 245.764 289.222 241.302C289.951 241.742 290.609 241.336 291.304 241.587C292.084 241.869 291.605 242.881 291.553 243.669C291.395 246.054 291.407 248.458 291.38 250.856C291.364 252.195 291.65 254.028 291.223 255.271C290.514 255.351 289.767 254.875 289.051 254.803Z" fill="#D86C00"/>
<path d="M302.7 254.96C302.752 250.486 302.564 245.921 302.87 241.459C303.6 241.898 304.257 241.493 304.953 241.744C305.733 242.026 305.253 243.037 305.202 243.826C305.044 246.21 305.056 248.615 305.028 251.013C305.013 252.351 305.298 254.185 304.871 255.428C304.163 255.508 303.419 255.032 302.7 254.96Z" fill="#D86C00"/>
<path d="M307.676 243.529C301.09 243.442 294.386 243.007 287.645 242.929C281.29 242.856 274.975 242.911 268.651 243.054C263.954 243.161 259.454 242.73 254.761 242.676C236.314 242.464 217.765 242.916 199.354 242.41C168.496 241.564 137.733 240.838 106.842 240.483L106.867 238.304C137.761 238.658 168.521 239.385 199.379 240.231C217.79 240.737 236.339 240.285 254.787 240.497C259.479 240.551 263.979 240.982 268.676 240.875C275 240.732 281.315 240.677 287.67 240.75C294.411 240.827 301.115 241.262 307.701 241.35L307.676 243.529Z" fill="#D86C00"/>
<path d="M297.948 316.712C299.664 317.538 301.403 317.322 303.063 316.715C303.836 316.425 304.579 316.06 305.271 315.636C309.212 313.222 311.54 308.871 311.851 304.276C311.999 302.087 312.166 299.882 312.314 297.694C312.399 296.564 312.672 293.451 313.397 292.589C314.345 291.451 316.002 291.357 317.452 291.338L324.987 291.323C340.202 291.322 355.228 293.579 370.42 294.364C371.99 294.447 373.685 294.575 374.85 295.653C376.957 297.609 376.031 301.113 375.464 304.003C374.606 308.3 375.024 313.189 378.694 316.033C380.84 317.717 383.97 317.771 386.115 316.082C389.489 313.406 389.785 308.773 389.922 304.311C389.947 303.249 389.977 302.134 390.488 301.201C391.317 299.688 393.206 297.503 396.341 297.741C419.853 299.523 442.721 299.167 466.091 302.35C466.744 302.436 467.433 302.543 468.013 302.862C469.492 303.671 469.965 305.65 469.816 307.38C469.666 309.11 469.064 310.768 469.024 312.507C468.941 315.781 471.242 319.035 474.351 319.619C477.459 320.203 480.915 317.66 481.071 314.391C481.111 313.386 480.892 312.398 480.968 311.396C481.044 310.394 481.583 309.335 482.518 309.094C483.078 308.953 483.652 309.125 484.189 309.294C485.782 309.8 487.375 310.305 488.968 310.811C489.452 310.958 489.935 311.123 490.312 311.463C490.844 311.943 491.061 312.711 491.17 313.452C491.824 318.121 489.099 323.358 491.864 327.27C493.585 329.71 496.998 330.39 499.502 328.802C502.159 327.116 502.628 324.072 502.973 321.221C504.689 307.531 505.97 293.771 506.813 279.997C508.669 249.949 508.845 220.068 510.956 190.04C511.898 176.64 513.103 163.168 511.732 149.812C511.51 147.669 511.244 145.376 512.18 143.431C513.879 139.876 519.027 138.708 519.474 134.508C519.686 132.434 518.587 130.482 516.939 129.257C514.319 127.299 511.044 127.215 507.93 127.181C479.322 126.845 450.526 127.54 422.344 122.544C404.799 121.361 386.717 120.008 369.189 118.844C366.326 118.646 361.645 118.492 358.785 118.495C355.248 118.484 350.686 118.45 347.711 118.279C325.385 117.045 299.233 114.054 299.233 114.054C286.394 112.934 288.521 112.931 277.985 112.15C277.657 112.125 277.312 112.081 277.005 112.021C275.633 111.734 271.427 111.121 269.524 113.25C267.963 114.983 267.607 117.504 268.695 119.584C268.905 119.966 272.788 125.081 273.017 125.447C279.045 134.922 274.539 144.551 273.101 156.741C271.298 171.817 268.494 184.875 267.143 199.307C265.824 213.559 264.921 220.639 263.258 232.903C262.525 238.218 262.028 243.569 261.714 248.916C261.039 260.961 260.08 272.399 257.916 284.021C256.439 291.9 257.51 299.295 258.053 307.364C258.066 307.677 258.097 307.991 258.127 308.323C258.663 314.559 266.219 317.404 270.642 312.992C272.248 311.391 273.095 309.641 274.264 305.349C275.532 300.716 275.749 295.912 276.96 294.446C279.041 291.909 284.781 291.153 288.939 290.717C293.817 290.207 295.244 286.374 295.087 301.978C295.05 306.338 294.995 312.382 295.825 314.498C295.825 314.498 296.621 316.08 297.948 316.712Z" fill="#FFF2EA"/>
<path d="M505.722 150.017C506.823 152.172 506.742 154.695 506.633 157.106C504.426 205.566 502.218 254.025 500.011 302.485C499.966 303.563 499.879 304.711 499.175 305.537C497.93 306.964 495.657 306.48 493.87 305.868C490.671 304.782 487.471 303.715 484.272 302.629C481.412 301.661 478.377 300.588 476.524 298.193C474.237 295.234 474.364 291.138 474.611 287.399C477.429 244.429 480.245 201.478 483.044 158.507C483.196 156.264 483.437 153.808 485.074 152.283C486.238 151.198 487.862 150.808 489.41 150.467C491.219 150.054 506.177 144.021 505.722 150.017Z" fill="#F98E12"/>
<path d="M385.228 150.286C382.974 193.078 380.738 235.872 378.485 278.646C378.408 280.143 378.246 281.798 377.05 282.826C375.834 283.87 373.943 283.91 372.222 283.889C349.57 283.565 326.912 282.361 304.336 280.319C303.645 280.249 302.934 280.195 302.314 279.91C300.363 279.047 300.083 276.698 300.102 274.756C300.216 249.801 303.743 225.031 305.811 200.169C307.318 181.991 308.04 163.753 307.975 145.511C307.978 144.503 308.029 143.352 308.868 142.682C309.55 142.148 310.562 142.096 311.497 142.094C326.561 141.916 341.906 141.888 356.949 143.193C361.611 143.602 365.922 145.01 370.514 145.615C375.36 146.257 385.578 143.732 385.228 150.286Z" fill="#F98E12"/>
<path d="M475.359 157.119C473.159 199.915 470.96 242.711 468.78 285.491C468.703 286.988 468.541 288.644 467.29 289.667C466.002 290.706 464.02 290.739 462.207 290.711C438.334 290.294 414.473 288.999 390.694 286.866C389.967 286.793 389.219 286.736 388.563 286.448C386.503 285.577 386.204 283.227 386.205 281.284C386.227 256.321 389.846 231.558 391.914 206.696C393.42 188.518 394.107 170.278 393.969 152.03C393.953 151.021 394.022 149.871 394.898 149.204C395.616 148.672 396.683 148.625 397.655 148.625C413.52 148.508 429.686 148.542 445.53 149.909C450.429 150.335 454.996 151.762 459.824 152.385C464.944 153.048 475.691 150.564 475.359 157.119Z" fill="#D86C00"/>
<path d="M497.075 319.455C497.017 320.22 496.919 321.038 496.383 321.583C495.629 322.333 494.284 322.176 493.517 321.421C492.748 320.685 492.504 319.548 492.511 318.486C492.544 316.124 491.878 310.153 495.491 310.372C499.341 310.609 497.276 317.051 497.075 319.455Z" fill="#D86C00"/>
<path d="M476.34 311.504C476.273 312.397 476.162 313.379 475.618 314.016C474.853 314.929 473.511 314.736 472.751 313.872C471.992 313.007 471.763 311.67 471.786 310.407C471.851 307.608 471.267 300.562 474.882 300.763C478.732 301 476.574 308.663 476.34 311.504Z" fill="#F98E12"/>
<path d="M384.471 306.813C384.388 307.906 384.262 309.088 383.707 309.871C382.926 310.985 381.586 310.773 380.839 309.745C380.093 308.699 379.884 307.107 379.927 305.57C380.038 302.169 379.566 293.647 383.181 293.848C387.035 294.03 384.752 303.351 384.471 306.813Z" fill="#F98E12"/>
<path d="M304.127 304.846C304.018 306.285 303.862 307.85 303.287 308.906C302.479 310.384 301.139 310.155 300.417 308.799C299.695 307.442 299.526 305.322 299.605 303.312C299.798 298.836 299.531 287.598 303.149 287.762C307.003 287.944 304.49 300.291 304.127 304.846Z" fill="#D86C00"/>
<path d="M513.362 136.538C513.947 137.517 512.608 138.497 511.536 138.856C505.72 140.853 499.905 142.849 494.072 144.827C490.797 145.953 487.504 147.078 484.096 147.535C480.188 148.063 476.218 147.726 472.267 147.371C444.734 144.936 417.22 142.501 389.659 140.449C364.649 138.589 339.599 137.02 314.542 135.781C313.538 135.723 312.516 135.664 311.635 135.194C309.858 134.216 309.375 131.888 309.51 129.864C309.561 128.951 309.704 128.027 309.793 127.099C310.019 124.844 311.785 123.071 314.033 122.912C317.755 122.662 321.634 123.488 325.363 124.101C335.068 125.698 344.928 125.73 354.755 125.944C377.232 126.401 399.657 127.772 422.069 129.562C442.404 131.177 462.994 134.516 483.402 134.688C487.322 134.729 491.229 134.695 495.136 134.9C497.6 135.05 512.223 134.637 513.362 136.538Z" fill="#D86C00"/>
<path d="M281.681 133.033C280.267 134.997 279.967 137.503 279.711 139.903C274.588 188.142 269.465 236.38 264.341 284.619C264.223 285.691 264.136 286.839 264.708 287.762C265.723 289.361 268.043 289.225 269.902 288.889C273.228 288.298 276.553 287.725 279.879 287.134C282.852 286.608 286.014 286.005 288.207 283.917C290.914 281.336 291.406 277.268 291.725 273.534C295.418 230.631 299.109 187.746 302.819 144.845C303.008 142.604 303.139 140.14 301.751 138.385C300.764 137.137 299.217 136.507 297.739 135.936C296.012 135.256 282.135 127.037 281.681 133.033Z" fill="#D86C00"/>
<path d="M264.686 301.838C264.628 302.603 264.602 303.426 265.05 304.046C265.682 304.901 267.035 304.948 267.908 304.318C268.779 303.706 269.192 302.619 269.345 301.567C269.669 299.228 271.227 293.425 267.622 293.097C263.78 292.751 264.85 299.431 264.686 301.838Z" fill="#F98E12"/>
<path d="M276.161 118.556C275.434 119.436 276.61 120.606 277.616 121.123C283.064 123.973 288.512 126.824 293.98 129.658C297.048 131.265 300.134 132.874 303.434 133.839C307.218 134.951 311.194 135.215 315.153 135.461C342.738 137.203 370.305 138.945 397.861 141.071C422.865 143.003 447.865 145.228 472.822 147.78C473.823 147.874 474.843 147.97 475.784 147.638C477.689 146.939 478.518 144.711 478.689 142.689C478.776 141.779 478.774 140.844 478.826 139.914C478.943 137.65 477.464 135.631 475.266 135.135C471.624 134.327 467.665 134.559 463.886 134.602C454.051 134.718 444.299 133.264 434.551 131.993C412.26 129.094 389.868 127.048 367.461 125.441C347.114 123.972 326.238 124.167 306.056 121.262C302.174 120.712 298.317 120.089 294.423 119.702C291.967 119.461 277.573 116.849 276.161 118.556Z" fill="#D86C00"/>
<path d="M62.748 30.9896C63.1102 32.2981 63.5291 33.7086 64.5788 34.5805C65.6016 35.4121 67.0453 35.6007 68.0493 36.4566C69.1018 37.35 69.4588 38.7902 69.719 40.1552C70.3994 43.8043 70.6552 47.5509 70.4916 51.2632C70.4217 52.954 70.2469 54.6799 70.6312 56.3351C71.6137 60.6449 75.9295 63.3315 78.0994 67.1852C79.3663 69.4276 79.8649 71.9858 80.2505 74.5145C81.6976 83.7022 83.7118 92.8837 88.278 100.999C89.8548 103.792 87.2288 110.831 84.6838 112.988C83.0008 121.436 93.5697 126.236 99.8481 132.519C121.009 153.693 126.545 171.712 130.429 197.564C137.527 245.005 141.804 266.198 146.293 314.079C146.765 319.022 147.699 325.019 145.601 328.977C144.226 331.575 140.121 331.243 137.159 331.662C110.477 335.389 81.4164 342.235 54.8966 344.478C48.6718 345.004 42.1806 340.146 41.04 334.414C38.832 323.357 38.2654 315.085 37.6235 305.009C35.3821 270.736 33.7696 257.135 28.623 223.208C26.6243 210.18 24.338 197.123 24.8579 183.973C25.3778 170.823 28.9991 157.324 37.6976 146.83C41.6953 141.999 46.721 137.868 49.9143 132.549C53.1075 127.23 54.0318 120.035 49.7723 115.55C48.0841 113.776 45.6439 112.447 44.8555 110.188C44.2453 108.474 44.7477 106.575 45.0433 104.769C46.9904 93.2289 41.0879 81.4597 43.8604 70.0559C44.8353 66.0225 46.8803 62.1594 46.9921 58.0387C47.0858 54.2916 45.5587 50.6841 45.1309 46.9593C44.7031 43.2345 45.8467 38.8084 49.4838 37.1684C50.1515 27.4291 51.6389 17.6078 52.586 7.833C52.7104 6.57217 54.4761 6.37049 54.8705 7.5875L62.748 30.9896Z" fill="#FFF2EA"/>
<path d="M54.6374 24.7345C54.411 20.7258 54.4067 17.7315 54.0743 12.7379C55.2281 18.4483 56.379 24.1369 57.5328 29.8473C58.0728 32.4854 59.0498 35.4674 59.2026 38.1544C59.3352 40.5335 58.3109 40.286 56.3241 40.4266C55.374 35.2894 54.9485 30.1523 54.6374 24.7345Z" fill="#D86C00"/>
<path d="M121.409 226.038C120.917 227.502 121.256 229.145 121.557 230.661C123.931 242.162 125.216 253.867 126.476 265.553C128.56 284.776 130.644 303.999 132.749 323.22C132.815 323.912 132.908 324.645 133.285 325.21C134.272 326.793 136.528 326.485 138.261 326.025C138.957 325.828 139.734 325.576 140.042 324.902C140.248 324.46 140.182 323.943 140.12 323.447C137.117 299.895 134.113 276.344 131.11 252.792C130.052 244.431 128.969 236.051 127.911 227.689C127.431 224.247 122.866 221.671 121.409 226.038Z" fill="#F98E12"/>
<path d="M36.8989 234.335C36.4007 235.75 36.8162 240.931 37.228 245.393C38.2752 256.6 40.7633 267.624 41.9638 278.834C43.9454 297.25 45.9297 315.687 47.9328 334.1C47.9955 334.768 48.0825 335.455 48.4596 336.018C49.4376 337.53 51.6929 337.222 53.4265 336.763C54.1226 336.566 54.8993 336.315 55.2103 335.665C55.4195 335.246 55.357 334.752 55.2972 334.28C52.4175 311.704 49.5405 289.149 46.6608 266.573C45.6447 258.545 44.5237 250.553 43.5936 242.515C42.498 233.342 38.399 230.132 36.8989 234.335Z" fill="#F98E12"/>
<path d="M36.8561 236.288C37.1382 237.826 37.483 239.858 39.0506 239.966C39.5812 240.008 40.1007 239.789 40.5744 239.554C43.8689 238.088 47.1822 236.598 50.4767 235.132C55.0738 233.064 59.7168 231.013 64.5762 229.633C69.9013 228.128 75.4457 227.492 80.9334 226.754C84.0327 226.34 87.1105 225.928 90.2098 225.514C93.398 225.11 96.5753 224.621 99.7964 224.65C102.603 224.688 105.372 225.124 108.122 225.585C113.623 226.505 120.99 229.2 126.793 230.607C127.763 230.834 128.705 230.146 128.709 229.141C128.665 225.169 126.91 217.7 126.627 215.288C125.671 207.39 124.581 204.491 123.623 196.571C123.476 195.41 123.218 194.066 122.186 193.519C121.108 192.956 119.824 193.534 118.677 193.985C109.966 197.273 100.051 190.355 91.1353 193.057C89.407 193.582 87.8111 194.461 86.1395 195.088C79.8083 197.463 72.7964 196.362 66.0895 195.769C63.6115 195.558 61.0743 195.399 58.6539 195.989C56.6778 196.458 54.8476 197.389 53.0391 198.317C47.5648 201.064 41.4253 203.742 35.5009 202.241C34.981 202.11 34.434 201.939 33.9009 202.05C29.9134 202.883 33.76 219.265 34.1159 221.558C35.5537 231.187 35.6216 229.649 36.8561 236.288Z" fill="#013507"/>
<path d="M46.5504 278.103C49.0922 277.607 51.6098 277.092 54.1516 276.596C55.3902 276.352 56.9649 275.651 56.7643 274.412C53.5935 273.571 50.4255 272.751 47.2547 271.909C46.3037 271.659 45.1451 271.152 45.1952 270.164C47.7207 269.539 50.341 269.317 52.9536 269.553C54.128 269.666 55.8915 269.246 55.594 268.107C55.4994 267.704 55.1382 267.445 54.804 267.226C53.1924 266.252 51.2424 266.063 49.3944 265.643C47.5464 265.223 45.6065 264.422 44.7374 262.744C48.8848 262.655 53.0353 262.936 57.1404 263.55C57.4304 262.729 56.6727 261.931 56.0096 261.361C52.1441 258.144 48.2759 254.905 44.4104 251.688C48.8107 251.349 52.3346 254.98 56.3333 256.829C56.5892 256.949 56.8668 257.066 57.1441 257.009C57.7015 256.917 57.9835 256.205 57.8267 255.658C57.6699 255.111 57.2036 254.713 56.7642 254.354C52.5185 250.727 48.2513 247.103 44.0084 243.498C44.4088 242.684 45.6561 243.027 46.4376 243.495C51.0243 246.185 55.6352 248.894 60.2219 251.583C61.163 250.2 59.8684 248.445 58.6499 247.291C56.0645 244.849 53.4791 242.408 50.9125 239.942C49.9177 239 48.8282 237.655 49.414 236.403C49.971 235.962 58.1518 242.492 62.5208 245.536C63.553 246.256 64.7658 247.018 65.9962 246.71C66.4538 241.507 59.303 238.618 58.8423 233.422C58.6905 232.569 66.207 239.903 69.171 243.779C69.5074 241.076 68.4892 238.393 67.1993 235.983C66.9582 234.771 70.4513 237.294 71.3095 238.886C72.1676 240.478 73.1069 242.365 74.8794 242.708C75.0128 239.093 74.683 235.45 73.8847 231.91C74.5036 231.44 75.2694 232.302 75.5826 233.047C76.5628 235.43 77.543 237.814 78.5017 240.2C78.8851 241.154 79.8586 242.273 80.6821 241.69C81.0275 237.329 81.3756 232.99 81.721 228.629C82.3008 226.812 83.0048 235.313 83.6467 238.654C83.793 239.464 84.2546 240.518 85.0705 240.393C86.1914 238.354 86.6602 236.005 86.4341 233.701C86.3443 232.819 86.1656 231.926 86.3397 231.053C86.5138 230.181 87.2401 229.348 88.1181 229.367C89 233.049 89.4135 236.834 89.3664 240.612C90.5786 240.851 91.3041 239.32 91.6125 238.126C92.2589 235.624 93.1315 233.18 94.1901 230.823C94.448 230.267 94.8486 229.627 95.4654 229.658C96.3919 229.715 96.4311 231.062 96.1923 231.943C95.1754 235.494 94.1613 239.068 93.1229 242.622C94.4701 243.236 95.7827 241.675 96.3764 240.313C96.9701 238.952 97.8759 237.289 99.3385 237.431C100.461 239.033 97.2497 240.988 97.9842 242.813C98.4001 243.851 99.9488 243.982 100.875 243.341C101.8 242.701 102.252 241.597 102.711 240.558C104.796 235.759 111.397 226.006 111.183 227.429C111.031 230.893 109.31 234.076 107.94 237.258C106.549 240.443 105.473 244.046 106.588 247.327L118.339 232.955C118.719 232.492 119.492 232.896 119.28 233.468C117.057 239.941 111.396 245.193 110.046 251.991C112.804 252.166 115.239 250.309 117.257 248.441C119.272 246.55 121.325 244.437 124.031 243.855C121.461 248.105 116.389 251.952 112.566 255.989C113.345 256.61 114.486 256.117 115.366 255.635C118.233 254.073 121.361 253.023 124.576 252.485C121.963 254.495 119.351 256.504 116.735 258.492C115.737 259.251 114.639 260.262 114.794 261.485C118.608 262.223 122.709 261.421 125.938 259.268C125.531 261.412 123.324 262.651 121.308 263.495C119.292 264.339 117.022 265.258 116.184 267.283C119.362 266.793 122.518 266.307 125.698 265.839C125.913 265.811 126.15 265.781 126.336 265.867C126.988 266.177 126.434 267.163 125.829 267.566C119.133 272.251 110.835 274.13 102.686 274.944C94.5376 275.757 86.307 275.578 78.1909 276.649C75.2854 277.039 72.3774 277.581 69.5342 278.29C67.0733 278.907 64.3573 280.275 61.8231 280.312C59.639 280.349 57.1767 279.745 54.9761 279.479C52.6921 279.244 48.7502 277.672 46.5504 278.103Z" fill="#D86C00"/>
<path d="M63.0117 266.591C64.287 261.865 66.7263 257.386 70.4173 254.189C72.6361 252.27 75.2232 250.851 77.8508 249.579C81.855 247.653 87.2604 246.641 91.6793 247.13C93.4678 247.318 95.1926 247.864 96.8507 248.571C103.156 251.224 107.383 255.536 110.427 261.681C112.386 265.625 113.391 269.953 114.393 274.259C114.745 275.83 115.113 277.531 114.518 279.026C113.893 280.633 112.26 281.67 110.59 282.078C108.921 282.486 107.157 282.316 105.438 282.162C102.33 281.879 99.2014 281.598 96.0938 281.314C93.0961 281.038 90.0153 280.795 87.17 281.723C84.18 282.713 81.7392 284.944 78.8489 286.205C75.9587 287.466 72.7635 287.696 69.6113 287.92C64.9472 288.249 62.6364 286.86 62.0838 282.322C61.4496 277.139 61.6485 271.655 63.0117 266.591Z" fill="#FFF2EA"/>
<path d="M67.7498 280.947C67.3204 281.002 66.8481 281.061 66.4507 280.851C66.0506 280.62 65.8408 280.169 65.6552 279.737C65.128 278.501 64.5927 277.202 64.7068 275.863C64.821 274.525 65.7805 273.145 67.1223 273.062C67.8577 273.012 68.5773 273.355 69.2991 273.198C70.8527 272.893 71.1379 270.839 71.3538 269.27C71.959 264.918 74.7949 261.13 78.1954 258.356C80.609 256.401 83.439 254.805 86.5439 254.521C89.842 254.212 93.1604 255.441 95.7523 257.479C98.3441 259.516 100.266 262.29 101.688 265.257C102.522 267.018 103.571 269.099 105.514 269.287C107.036 269.42 108.747 268.292 109.977 269.221C111.304 270.225 110.404 272.423 111.098 273.941C106.102 275.311 100.901 275.926 95.7293 275.734C93.6465 275.651 91.5717 275.458 89.5054 275.676C85.4156 276.107 81.2438 277.785 77.3481 279.059C74.166 280.113 71.0559 280.529 67.7498 280.947Z" fill="#013507"/>
<path d="M93.5184 303.493C94.6722 310.332 95.6187 317.285 96.3418 324.222C96.5573 326.275 96.8465 328.734 97.5145 329.81C97.8471 330.338 98.1633 330.385 98.4958 330.387C100.499 330.462 102.435 329.822 104.348 329.186C104.689 329.077 105.049 328.944 105.253 328.283C105.602 327.188 105.424 325.087 105.233 323.228C104.45 315.817 103.512 308.403 102.402 301.033C102.151 299.401 101.826 297.537 101.295 296.663C99.9261 294.427 97.5139 296.55 96.1973 296.651C94.4173 296.767 92.2692 295.725 93.5184 303.493Z" fill="#F98E12"/>
<path d="M81.024 305.075C82.1692 311.915 83.1138 318.868 83.8415 325.804C84.0583 327.857 84.3482 330.316 84.9792 331.397C85.2827 331.928 85.5897 331.977 85.8912 331.982C87.7509 332.075 89.5205 331.457 91.3112 330.836C91.6203 330.731 91.9477 330.602 92.1435 329.943C92.4567 328.852 92.2767 326.751 92.0844 324.892C91.2967 317.482 90.3582 310.068 89.2533 302.698C89.0037 301.065 88.6818 299.201 88.1838 298.322C86.8898 296.078 84.6842 298.174 83.4706 298.262C81.7651 298.368 79.7827 297.306 81.024 305.075Z" fill="#F98E12"/>
<path d="M81.643 326.211C80.458 319.376 79.5139 312.423 78.806 305.484C78.5888 303.432 78.2988 300.972 77.5877 299.902C77.2439 299.376 76.8763 299.335 76.556 299.332C74.3957 299.277 72.3253 299.933 70.276 300.586C69.9064 300.699 69.5396 300.833 69.3039 301.498C68.9313 302.596 69.0909 304.7 69.2836 306.558C70.0514 313.971 70.9899 321.385 72.1354 328.75C72.3847 330.383 72.706 332.247 73.285 333.115C74.7392 335.34 77.3247 333.195 78.7389 333.082C80.6412 332.951 82.9243 333.975 81.643 326.211Z" fill="#D86C00"/>
<path d="M69.1621 327.791C68.152 320.934 67.231 313.978 66.4351 307.05C66.1959 305 65.8849 302.543 65.4808 301.434C65.29 300.889 65.1194 300.823 64.9542 300.8C63.9349 300.601 62.9856 301.115 62.0563 301.627C61.8848 301.714 61.716 301.823 61.6553 302.466C61.5466 303.53 61.7713 305.626 61.986 307.482C62.8418 314.884 63.7803 322.297 64.8158 329.677C65.0431 331.312 65.3204 333.182 65.6573 334.081C66.4965 336.383 67.588 334.428 68.2351 334.411C69.1273 334.408 70.2894 335.574 69.1621 327.791Z" fill="#013507"/>
<path d="M125.059 320.715C124.029 313.861 123.102 306.906 122.318 299.976C122.081 297.926 121.77 295.469 121.329 294.365C121.121 293.822 120.928 293.758 120.74 293.738C119.581 293.557 118.489 294.089 117.42 294.619C117.223 294.709 117.028 294.821 116.948 295.467C116.805 296.536 117.024 298.632 117.235 300.488C118.08 307.892 119.018 315.305 120.068 322.683C120.298 324.318 120.581 326.187 120.95 327.082C121.866 329.374 123.145 327.395 123.884 327.367C124.902 327.348 126.206 328.496 125.059 320.715Z" fill="#013507"/>
<path d="M118.47 321.549C117.285 314.714 116.341 307.761 115.633 300.822C115.416 298.77 115.126 296.31 114.415 295.24C114.071 294.714 113.704 294.673 113.383 294.67C111.223 294.615 109.153 295.271 107.103 295.924C106.734 296.037 106.367 296.171 106.131 296.836C105.759 297.934 105.918 300.038 106.111 301.896C106.879 309.309 107.817 316.723 108.963 324.088C109.212 325.721 109.533 327.585 110.112 328.453C111.567 330.678 114.152 328.533 115.566 328.42C117.469 328.288 119.752 329.313 118.47 321.549Z" fill="#D86C00"/>
<path d="M73.3837 220.739C78.2361 219.805 83.1847 219.115 88.1196 218.66C89.584 218.518 91.3247 218.319 92.0683 217.649C92.42 217.327 92.4392 216.962 92.4423 216.642C92.3885 214.495 91.8628 212.408 91.3182 210.345C91.2275 209.973 91.1153 209.603 90.6248 209.346C89.8315 208.934 88.3163 209.02 87.0021 209.143C81.7238 209.641 76.4454 210.309 71.215 211.184C70.0402 211.376 68.7419 211.625 68.1352 212.171C66.5862 213.54 68.2081 216.192 68.3432 217.603C68.5153 219.479 67.8636 221.736 73.3837 220.739Z" fill="#FFF2EA"/>
<path d="M74.7912 219.233C78.5926 218.515 82.4624 217.983 86.3315 217.622C87.4661 217.521 88.839 217.347 89.4304 216.864C89.7136 216.614 89.7258 216.354 89.7185 216.119C89.7004 214.554 89.281 213.018 88.8864 211.501C88.8073 211.231 88.7256 210.941 88.3446 210.775C87.7207 210.467 86.539 210.552 85.5151 210.639C81.3803 211.034 77.2394 211.558 73.1394 212.227C72.2342 212.363 71.2042 212.579 70.7128 212.964C69.4912 213.977 70.7499 215.922 70.8367 216.963C70.9884 218.34 70.4556 219.996 74.7912 219.233Z" fill="#F98E12"/>
<path d="M70.544 193.029C75.3795 191.962 80.3253 191.249 85.2687 190.862C86.7358 190.741 88.4765 190.542 89.192 189.65C89.5297 189.217 89.5319 188.719 89.5182 188.265C89.3575 185.274 88.7275 182.364 88.0733 179.435C87.9656 178.928 87.8311 178.382 87.3265 178.013C86.5079 177.401 84.987 177.442 83.67 177.544C78.3833 177.975 73.1049 178.643 67.883 179.585C66.711 179.799 65.4183 180.092 64.8341 180.816C63.3442 182.652 65.1069 186.415 65.3123 188.383C65.5827 191.035 65.0567 194.114 70.544 193.029Z" fill="#D86C00"/>
<path d="M107.137 218.526C110.556 218.223 114.047 218.149 117.485 218.341C118.509 218.406 119.719 218.404 120.295 217.834C120.584 217.559 120.626 217.208 120.647 216.859C120.806 214.698 120.64 212.535 120.453 210.374C120.425 209.988 120.374 209.583 120.055 209.278C119.535 208.76 118.485 208.655 117.57 208.597C113.895 208.414 110.178 208.408 106.506 208.592C105.69 208.631 104.751 208.728 104.292 209.197C103.103 210.385 103.985 213.259 103.95 214.69C103.892 216.623 103.239 218.803 107.137 218.526Z" fill="#FFF2EA"/>
<path d="M108.834 217.281C111.34 217.055 113.872 217.03 116.406 217.186C117.148 217.228 118.039 217.252 118.46 216.812C118.672 216.604 118.702 216.327 118.714 216.076C118.83 214.425 118.684 212.762 118.539 211.099C118.523 210.806 118.484 210.493 118.258 210.249C117.881 209.842 117.112 209.757 116.437 209.729C113.751 209.569 111.04 209.549 108.349 209.685C107.746 209.716 107.061 209.78 106.738 210.139C105.877 211.043 106.526 213.256 106.512 214.349C106.459 215.809 105.977 217.484 108.834 217.281Z" fill="#F98E12"/>
<path d="M54.3934 225.203C50.8759 225.778 47.3439 226.593 43.9326 227.652C42.9188 227.975 41.7009 228.28 40.9763 227.875C40.6154 227.682 40.484 227.353 40.3746 227.021C39.6661 224.969 39.2835 222.833 38.923 220.694C38.8524 220.314 38.8012 219.909 39.0452 219.532C39.4363 218.899 40.4667 218.531 41.3727 218.243C45.0243 217.132 48.7637 216.183 52.5052 215.428C53.3364 215.258 54.3055 215.113 54.8867 215.451C56.3853 216.299 56.2272 219.304 56.6259 220.681C57.1749 222.537 58.3859 224.481 54.3934 225.203Z" fill="#FFF2EA"/>
<path d="M80.3023 293.918C80.3585 293.504 80.5694 293.111 80.7829 292.738C81.6228 291.31 82.6942 289.995 83.9381 288.84C84.6366 288.183 85.4471 287.551 86.3913 287.289C86.7069 287.209 87.1155 287.177 87.3006 287.439C87.38 287.551 87.3977 287.691 87.4129 287.811C87.5965 289.089 87.8014 290.365 87.9875 291.663C88.3064 293.84 86.8771 294.387 84.8088 294.689C83.5716 294.866 80.0692 296.022 80.3023 293.918Z" fill="#F98E12"/>
<path d="M99.2781 291.515C99.1117 291.13 98.7882 290.805 98.4672 290.499C97.2141 289.336 95.7472 288.342 94.141 287.549C93.2365 287.094 92.2211 286.694 91.1614 286.685C90.8089 286.689 90.3715 286.765 90.2449 287.066C90.1906 287.195 90.2084 287.335 90.2236 287.455C90.3626 288.739 90.4784 290.026 90.62 291.33C90.8499 293.518 92.4933 293.676 94.7446 293.432C96.0902 293.282 100.069 293.49 99.2781 291.515Z" fill="#F98E12"/>
<path d="M36.6533 184.396C36.1197 184.552 35.547 184.735 35.1985 185.176C34.7773 185.716 34.787 186.465 34.8304 187.145C34.9935 190.282 35.4079 193.388 36.0528 196.465C36.2229 197.304 36.4669 198.223 37.1459 198.711C37.8751 199.26 38.8778 199.111 39.7493 198.934C43.3009 198.241 46.8178 197.443 50.3155 196.492C51.3254 196.232 52.408 195.874 52.9291 194.947C53.3647 194.185 53.2828 193.201 53.1909 192.307C52.8603 189.191 52.5269 186.053 52.1753 182.939C51.898 180.412 47.7244 182.244 46.036 182.524C42.8868 183.033 39.732 183.498 36.6533 184.396Z" fill="#D86C00"/>
<path d="M110.102 175.518C110.577 175.523 111.079 175.567 111.464 175.884C111.923 176.277 112.078 176.99 112.206 177.662C112.757 180.648 113.1 183.703 113.248 186.741C113.289 187.575 113.298 188.499 112.837 189.117C112.342 189.803 111.493 189.911 110.745 189.963C107.668 190.18 104.578 190.291 101.512 190.249C100.626 190.232 99.6494 190.184 99.0144 189.425C98.483 188.803 98.3438 187.874 98.2127 187.008C97.8081 183.982 97.3822 180.959 96.9776 177.933C96.6454 175.478 100.509 176.195 101.933 176.036C104.66 175.777 107.354 175.436 110.102 175.518Z" fill="#D86C00"/>
<path d="M38.3311 167.327C39.2046 162.887 40.3355 158.037 43.9442 155.316C44.2454 155.078 44.5927 154.857 44.9951 154.895C45.7752 154.951 46.0518 155.915 46.2818 156.685C48.0673 162.764 49.5456 170.081 50.0449 178.387C50.0481 178.587 50.054 178.808 50.0354 179.01C49.7592 180.666 47.3863 180.589 45.2561 180.858C43.7563 181.048 42.0118 181.225 40.5175 181.458C36.2464 182.088 36.7911 177.668 37.0655 175.124C37.307 172.496 37.8177 169.901 38.3311 167.327Z" fill="#013507"/>
<path d="M105.097 158.875C103.145 154.793 100.841 150.378 96.6683 148.642C96.3173 148.487 95.9257 148.359 95.5455 148.496C94.8041 148.745 94.7764 149.747 94.7455 150.55C94.5312 156.883 94.9227 164.337 96.5089 172.506C96.5555 172.7 96.6049 172.915 96.6733 173.107C97.3534 174.641 99.6322 173.975 101.762 173.706C103.262 173.516 104.996 173.252 106.501 173.106C110.794 172.651 109.165 168.506 108.266 166.111C107.377 163.626 106.236 161.24 105.097 158.875Z" fill="#013507"/>
<path d="M79.4673 175.081C80.4457 175.11 81.5577 175.144 82.2691 174.464C83.2204 173.578 82.9425 172.083 82.6102 170.858C80.7902 164.356 78.9348 157.749 75.3896 151.968C74.801 150.994 74.1252 150.03 73.1632 149.431C72.2011 148.831 70.8711 148.65 69.9335 149.293C69.0368 149.909 68.7151 151.043 68.4724 152.101C67.5317 156.22 66.8445 160.416 66.4461 164.62C66.2497 166.743 66.1023 168.904 66.2193 171.053C66.2982 172.376 66.1698 175.212 67.4152 176.126C68.6361 177.02 71.2908 175.766 72.6372 175.552C74.894 175.179 77.1779 175.021 79.4673 175.081Z" fill="#013507"/>
<path d="M49.2859 145.883C49.1252 145.988 48.9698 146.135 48.9053 146.313C48.7922 146.794 49.4553 147.05 49.9661 147.134C52.5203 147.553 54.7996 149.238 55.893 151.518C56.2157 152.177 56.458 152.889 57.0378 153.346C57.8192 151.444 58.7396 149.609 59.7508 147.805C60.18 147.071 60.6305 146.335 61.3054 145.825C62.0821 145.26 63.1177 145.023 63.7448 144.307C63.8386 144.189 63.9324 144.071 63.9353 143.922C63.9519 143.538 63.4332 143.392 63.0373 143.357C58.4444 143.154 53.228 143.008 49.2859 145.883Z" fill="#013507"/>
<path d="M93.0903 140.338C93.2721 140.4 93.4592 140.503 93.566 140.66C93.7954 141.097 93.2169 141.51 92.7431 141.719C90.374 142.761 88.5864 144.961 88.0957 147.441C87.9475 148.16 87.8902 148.91 87.4425 149.497C86.2118 147.85 84.8632 146.302 83.4342 144.807C82.8359 144.203 82.2162 143.603 81.4355 143.277C80.5426 142.924 79.4805 142.952 78.6948 142.415C78.5746 142.324 78.4543 142.233 78.4144 142.09C78.3026 141.722 78.7685 141.451 79.1432 141.318C83.5406 139.977 88.5774 138.533 93.0903 140.338Z" fill="#013507"/>
<path d="M45.8312 141.902C45.4425 142.283 45.0461 142.775 45.158 143.314C46.6157 143.439 48.0171 142.775 49.3706 142.25C50.7026 141.728 52.0942 141.33 53.467 140.957C66.7516 137.351 80.6388 136.434 94.3753 137.261C94.5755 136.771 94.3291 136.205 93.9354 135.857C93.5418 135.508 93.0412 135.351 92.5621 135.19C91.0118 134.678 89.4401 134.17 87.8898 133.658C85.7259 132.959 83.5377 132.24 81.2784 131.995C79.5947 131.81 77.8983 131.87 76.2047 131.952C67.7712 132.29 59.0333 133.329 51.5314 137.575C49.5345 138.712 47.4444 140.149 45.8312 141.902Z" fill="#F98E12"/>
<path d="M57.1717 127.276C57.2311 127.746 57.296 128.258 57.6212 128.586C58.0002 128.993 58.6421 129.064 59.2034 129.014C60.3904 128.907 61.51 128.44 62.6189 128.061C66.5953 126.712 70.8627 126.454 75.0468 126.228C75.6537 126.194 76.2392 126.164 76.8461 126.13C77.1066 126.119 77.3886 126.105 77.5872 125.95C77.8879 125.738 77.9681 125.338 78.0323 124.982C78.4812 121.976 78.3311 118.894 77.6279 115.925C77.4932 115.378 77.3343 114.813 76.915 114.432C76.4447 113.993 75.7571 113.906 75.0937 113.838C70.4658 113.318 66.0719 113.093 61.5178 114.19C58.2983 114.967 55.7522 114.855 56.1395 119.122C56.4343 121.796 56.8473 124.541 57.1717 127.276Z" fill="#013507"/>
<path d="M49.6135 108.476C49.2182 108.634 48.7154 108.977 48.8954 109.364C48.9841 109.546 49.1695 109.63 49.3362 109.738C50.0754 110.226 50.2552 111.301 51.0508 111.717C51.6825 112.046 52.4434 111.842 53.1183 111.649C57.5843 110.33 62.2033 109.53 66.7794 108.736C68.1264 108.501 69.4949 108.263 70.8607 108.176C71.8581 108.115 72.8448 108.14 73.8288 108.145C75.6247 108.176 77.4206 108.207 79.2165 108.238C80.0042 108.246 80.8995 108.24 81.4884 107.714C81.803 107.437 81.9752 107.071 82.1689 106.702C82.4675 106.126 82.7634 105.529 83.062 104.953C80.6507 104.031 77.9541 104.308 75.3651 104.054C74.0801 103.915 72.8031 103.668 71.5073 103.617C69.948 103.556 68.3832 103.797 66.8373 104.014C64.0707 104.429 61.2853 104.695 58.6477 105.61C55.6577 106.678 52.5738 107.348 49.6135 108.476Z" fill="#D86C00"/>
<path d="M52.26 64.7064C50.6183 66.8208 49.4307 69.2285 48.2862 71.6306C48.025 72.1678 47.7665 72.7265 47.6675 73.3307C47.5629 73.8918 47.6366 74.4742 47.6888 75.0593C48.4855 82.9138 49.3282 90.7844 50.1897 98.6307C50.2334 98.9758 50.2798 99.3425 50.4531 99.6712C50.9268 100.466 52.0098 100.526 52.9171 100.411C55.0826 100.181 57.1747 99.5436 59.3184 99.1407C64.5967 98.1876 70.085 98.7202 75.2573 97.2765C75.9781 97.0756 76.7339 96.8046 77.1408 96.2052C77.7149 95.3655 77.4649 94.2576 77.2718 93.252C76.8177 91.0522 76.7309 88.8059 76.5793 86.5678C76.2571 82.1158 75.5894 77.7077 74.9432 73.2968C74.7879 72.2426 74.6325 71.1884 74.2449 70.2074C73.6188 68.5554 72.4368 67.1928 71.2413 65.8977C69.659 64.1476 68.0336 62.4028 66.0334 61.1658C64.009 59.9099 60.9397 58.8958 58.5644 59.7225C56.1269 60.5789 53.8478 62.6864 52.26 64.7064Z" fill="#D86C00"/>
<path d="M59.4186 38.7879C57.2902 39.1675 55.1431 39.5716 53.0147 39.9513C52.5676 40.0299 52.0618 40.1601 51.8514 40.5615C51.7317 40.8192 51.7487 41.1257 51.7844 41.4078C52.2168 45.1671 52.6305 48.9509 53.0628 52.7102C53.1452 53.3612 53.2573 54.0745 53.7835 54.4488C54.1888 54.7282 54.7271 54.6821 55.2011 54.6442C58.6208 54.3215 62.0373 53.8009 65.4048 53.0659C65.5948 53.0198 65.7849 52.9737 65.9211 52.8463C66.1347 52.6428 66.1309 52.2685 66.0924 51.9647C65.7128 47.9342 65.2876 43.8873 64.8008 39.8703C64.7706 39.6316 64.7404 39.3929 64.6058 39.1895C64.307 38.7202 63.6534 38.7148 63.1151 38.7609C61.0235 38.9154 58.9347 39.0916 56.8431 39.2462" fill="#013507"/>
<path d="M55.2865 48.1374C54.6854 46.8374 54.7097 45.3054 55.355 44.0224C55.5318 43.6942 55.73 43.3633 56.0493 43.1263C56.3471 42.892 56.7014 42.7598 57.0558 42.6276C57.9122 42.3226 58.7928 42.0364 59.6955 42.0969C61.6755 42.2175 63.1396 43.9543 63.5186 45.7411C63.7215 46.6546 63.6721 47.6438 63.2115 48.4884C62.89 49.0533 62.3804 49.511 61.8438 49.9284C59.3166 51.8647 56.5372 50.7749 55.2865 48.1374Z" fill="#FFF2EA"/>
<path d="M50.7107 76.289C50.9355 77.3691 51.1604 78.4492 51.3635 79.5321C51.4676 80.0067 51.5529 80.5059 51.8032 80.9177C52.0319 81.3322 52.3851 81.6866 52.7356 82.0191C53.5886 82.8424 54.4634 83.6629 55.3165 84.4861C55.8408 84.974 56.5468 85.5055 57.1885 85.1804C57.5593 84.9782 57.7481 84.5552 57.8962 84.1595C58.9226 81.4798 59.9462 78.7783 60.9726 76.0985C61.1046 75.7493 61.2771 75.3727 61.6157 75.2633C61.9949 75.1266 62.4048 75.4073 62.7036 75.6799C65.482 77.9666 68.0523 80.5237 70.3818 83.2664C70.7733 83.749 71.4332 84.2641 71.9365 83.89C72.1178 83.7561 72.2202 83.5214 72.3037 83.3113C72.6808 82.288 73.0334 81.2456 73.0715 80.1544C73.1095 79.0631 73.9315 77.0301 73.2301 76.1877C73.0996 76.0268 72.1354 75.1954 71.9103 75.1574C71.4413 75.1059 70.8582 77.2861 70.8079 77.7581C70.7575 78.2301 70.702 78.8358 70.2606 79.0025C67.5778 75.9054 64.8951 72.8083 62.2124 69.7112C61.9814 69.4522 61.6826 69.1796 61.3657 69.2863C61.1544 69.3574 61.0492 69.5702 60.9657 69.7803C59.5366 72.9323 58.1807 76.1415 56.8927 79.3643C56.758 79.6918 56.5854 80.0684 56.2385 80.1123C55.9784 80.1453 55.7368 79.9763 55.5412 79.8237C54.3409 78.867 53.2323 77.7657 52.2834 76.5333C52.0985 76.2906 51.608 75.1998 51.3341 75.1236C50.6017 74.9059 50.6066 75.8143 50.7107 76.289Z" fill="#F98E12"/>
<path d="M53.8778 291.884C54.6283 292.078 55.4104 292.001 56.1709 291.927C61.4511 291.415 66.7313 290.902 72.0114 290.39C74.5743 290.132 77.2266 289.885 79.5487 288.768C83.1387 287.067 85.9351 283.44 89.8891 283.051C93.0638 282.76 96.0123 284.68 99.1197 285.422C102.227 286.164 105.469 285.709 108.624 285.265C113.484 284.561 118.344 283.857 123.182 283.155C124.544 282.961 126.186 282.553 126.588 281.21C126.963 280.005 126.009 278.724 124.851 278.269C123.694 277.815 122.398 278.001 121.167 278.179C116.675 278.837 112.183 279.494 107.688 280.13C105.204 280.489 102.698 280.851 100.209 280.476C98.0777 280.145 96.0527 279.266 93.9184 278.912C90.9714 278.395 87.865 278.877 85.2026 280.261C83.9025 280.937 82.7168 281.822 81.4083 282.433C79.2511 283.463 76.8453 283.745 74.4827 284.022C68.7835 284.699 63.1031 285.351 57.4038 286.028C55.5825 286.236 52.5761 285.771 51.7288 287.592C51.0298 289.194 52.3524 291.476 53.8778 291.884Z" fill="#D86C00"/>
<path d="M54.0801 14.9392C54.1032 14.8564 54.1569 14.7498 54.2255 14.761C54.3106 14.7702 54.3561 14.8644 54.3825 14.9409C54.4934 15.2864 54.5713 15.6361 54.6185 16.0096C54.8589 15.9193 54.9513 15.588 54.966 15.3065C55.0177 14.5209 54.6513 13.7484 54.2948 13.0545C54.2063 12.8859 54.0658 12.7039 53.9221 12.7621C53.8585 12.7901 53.8023 12.8771 53.7602 12.9424C53.6529 13.1557 53.5291 13.3711 53.5094 13.6133C53.4847 13.8162 53.5096 14.0128 53.551 14.2073C53.5858 14.4825 53.6218 15.2969 53.7813 15.4964C54.0194 15.7858 54.0224 15.1463 54.0801 14.9392Z" fill="#FFF2EA"/>
<path d="M45.1762 207.834C47.8587 206.821 50.4916 205.59 53.2724 204.834C56.2854 204.004 59.4115 203.721 62.516 203.44C71.4348 202.603 80.3613 201.652 89.1571 199.843C92.0035 199.258 94.8388 198.585 97.7271 198.332C106.806 197.542 115.918 201.011 124.91 199.536C125.337 200.828 125.511 202.198 125.373 203.539C125.331 203.904 125.271 204.293 125.018 204.549C124.765 204.806 124.381 204.899 124.017 204.968C117.821 206.156 111.527 203.788 105.215 203.533C102.389 203.419 99.5743 203.731 96.762 204.064C85.2449 205.365 73.7494 206.663 62.2323 207.964C60.2412 208.193 58.2285 208.426 56.3037 209.006C54.8028 209.465 53.3731 210.14 51.9378 210.771C45.9212 213.372 39.5362 215.145 33.0394 216.035C32.6288 216.087 32.1506 216.125 31.8493 215.827C31.6456 215.606 31.6037 215.274 31.5646 214.965C31.4576 213.946 30.8601 212.002 31.5899 211.349C32.2604 210.748 35.2011 210.735 36.1625 210.523C39.2598 209.84 42.1828 208.819 45.1762 207.834Z" fill="#FFF2EA"/>
<path d="M52.5589 224.405C50.0738 224.81 47.6142 225.417 45.1985 226.2C44.49 226.426 43.6322 226.671 43.1147 226.35C42.8573 226.201 42.7593 225.941 42.6855 225.7C42.1616 224.13 41.8881 222.484 41.6146 220.837C41.5565 220.549 41.5168 220.236 41.6749 219.943C41.9383 219.455 42.6625 219.182 43.3098 218.986C45.872 218.162 48.4938 217.467 51.1355 216.928C51.7272 216.807 52.4072 216.699 52.8096 216.966C53.8688 217.627 53.792 219.932 54.0772 220.986C54.4931 222.388 55.3556 223.892 52.5589 224.405Z" fill="#F98E12"/>
<path fill-rule="evenodd" clip-rule="evenodd" d="M450.858 462.21C475.526 451.788 509.266 437.533 516.107 365.544C516.258 364.238 516.373 362.921 516.45 361.6C516.49 361.096 516.529 360.589 516.566 360.08C516.665 358.731 516.662 357.478 516.563 356.315C516.422 347.588 514.643 338.973 511.04 332.053C510.703 331.407 510.351 330.775 509.982 330.16L509.914 330.047C509.842 329.926 509.768 329.805 509.694 329.685C508.585 327.883 507.366 326.272 506.065 324.818C499.147 317.024 489.858 313.734 481.075 311.01C356.824 272.498 228.493 260.986 101.853 277.001C80.869 279.656 59.1865 283.403 41.1332 298.951C34.0037 305.095 27.5908 313.575 22.7582 323.407L22.758 323.407C21.6348 325.676 20.5987 328.014 19.6596 330.416C16.4164 338.673 14.283 347.632 13.6807 356.792L13.5063 356.779C6.84536 379.873 13.6349 415.512 31.8077 429.598C68.4657 465.496 122.405 469.045 171.825 470.715L252.139 473.427L332.587 476.143C371.827 477.465 412.325 478.569 448.873 463.05L449.27 462.882C449.503 462.783 449.736 462.684 449.971 462.585L450.858 462.21Z" fill="white"/>
<path d="M440.821 452.261C405.863 465.978 367.127 465.003 329.595 463.834C278.336 462.235 227.086 460.635 175.828 459.036C128.559 457.56 76.966 454.422 41.9031 422.69C24.521 410.238 18.0269 378.734 24.3979 358.32C156.275 366.95 287.273 372.53 418.86 360.227C439.011 358.346 508.135 328.916 505.569 361.238C500.05 430.871 465.119 442.726 440.821 452.261Z" fill="#666666"/>
<path d="M504.409 370.438C502.73 378.593 499.461 385.984 495.322 392.469C493.284 395.685 491.025 398.673 488.635 401.424C467.281 426.012 437.42 432.005 409.255 435.819C362.918 442.084 316.326 445.213 269.742 445.187C248.353 445.178 226.858 445.213 205.627 441.997C186.962 439.167 168.226 442.954 149.368 442.084C125.131 440.968 100.983 436.118 77.5988 427.585C60.287 421.258 41.6307 410.422 31.6391 391.986C28.7216 386.625 26.5422 380.614 25.3471 373.883C22.5526 358.197 26.1468 342.116 33.2472 328.82C37.8696 320.129 44.0034 312.633 50.8227 307.202C68.0905 293.458 88.8295 290.145 108.901 287.799C230.03 273.642 352.777 283.818 471.622 317.861C480.023 320.269 488.907 323.178 495.524 330.068C496.851 331.438 498.09 332.968 499.206 334.69C505.454 344.251 506.922 358.25 504.409 370.438Z" fill="#999999"/>
<path d="M504.409 370.438C502.73 378.593 499.461 385.984 495.322 392.469C460.4 392.434 425.477 397.25 390.555 397.874C297.326 399.552 204.089 398.313 110.86 398.216C84.453 398.19 58.046 392.012 31.6389 391.986C28.7214 386.625 26.5421 380.615 25.3469 373.883C23.15 361.545 24.9075 348.961 29.2135 337.687C30.3735 334.62 31.7268 331.658 33.2471 328.82C66.4294 328.117 99.9633 329.637 133.014 329.655C217.323 329.707 301.641 327.115 385.95 327.168C393.868 327.168 456.718 330.05 495.524 330.068C496.851 331.439 498.09 332.968 499.206 334.69C500.076 336.017 500.85 337.432 501.526 338.917C505.788 348.109 506.57 359.946 504.409 370.438Z" fill="#666666"/>
<path d="M504.409 370.438C502.73 378.593 499.461 385.984 495.322 392.469C460.4 392.434 425.477 397.25 390.555 397.874C297.326 399.552 204.089 398.313 110.86 398.216C84.453 398.19 58.046 392.012 31.6389 391.986C28.7214 386.625 26.5421 380.615 25.3469 373.883C23.15 361.545 24.9075 348.961 29.2135 337.687C58.5469 337.739 87.9945 338.68 117.117 338.697C211.585 338.75 306.061 336.158 400.529 336.21C408.025 336.21 459.521 338.267 501.526 338.917C505.788 348.109 506.57 359.946 504.409 370.438Z" fill="#CCCCCC"/>
<path d="M79.7253 371.633C99.0055 371.651 118.277 371.66 137.557 371.677C137.109 368.013 136.67 364.348 136.221 360.684C123.602 358.496 110.746 357.687 97.951 358.267C94.3392 358.425 82.3528 357.555 79.7516 360.148C78.6707 361.202 80.0592 371.633 79.7253 371.633Z" fill="#FFF2EA"/>
<path d="M223.562 371.633C242.843 371.651 262.114 371.66 281.394 371.677C280.946 368.013 280.507 364.348 280.059 360.684C267.439 358.496 254.583 357.687 241.788 358.267C238.176 358.425 226.19 357.555 223.589 360.148C222.517 361.202 223.905 371.633 223.562 371.633Z" fill="white"/>
<path d="M367.408 371.633C386.689 371.651 405.96 371.66 425.24 371.677C424.792 368.013 424.353 364.348 423.904 360.684C411.285 358.496 398.429 357.687 385.634 358.267C382.022 358.425 370.036 357.555 367.435 360.148C366.363 361.202 367.751 371.633 367.408 371.633Z" fill="#FFF2EA"/>
<path opacity="0.7" d="M261 383C383.055 383 482 376.732 482 369C482 361.268 383.055 355 261 355C138.945 355 40 361.268 40 369C40 376.732 138.945 383 261 383Z" fill="#666666"/>
<g clip-path="url(#clip0)">
<path d="M501.36 293.33C501.36 305.53 499.76 317.72 496.55 329.44C494.49 336.95 491.29 344.9 484.66 348.62C479.69 351.4 473.73 351.26 468.1 351.05C448.82 350.34 429.53 349.63 410.26 348.92C405.06 348.73 399.6 348.59 394.94 351.02C388.48 354.39 385.13 361.85 379.85 366.97C369.91 376.62 352.48 376.15 343.02 365.99C339.49 362.2 336.95 357.26 332.56 354.6C328.53 352.15 323.65 352.01 318.98 351.94C260.94 351.08 202.89 350.21 144.85 349.35C139.62 349.27 134.05 349.29 129.65 352.24C125.22 355.2 122.91 360.54 119.52 364.74C108.61 378.29 84.84 376.6 75.82 361.63C73.98 358.59 72.67 355.13 70.22 352.58C62.2928 344.376 48.1478 350.289 37.4468 354.88C36.7728 355.169 36.0305 354.657 36.0569 353.924L37.46 315.09C35.5 315.35 33.54 315.59 31.57 315.82C32.4 290.1 32.21 264.29 31 238.61C33.17 238.32 35.32 238.02 37.46 237.69V213C40.24 214.32 43.63 215.48 50.66 216.12C78.5 218.62 120.03 216.42 141.82 215.64C172.16 214.55 202.54 214.53 232.89 214.5C301.81 214.44 370.72 214.38 439.64 214.3C453.39 214.28 468.31 214.69 479.04 223.61C485.81 229.25 489.93 237.6 493.02 246.01C498.57 261.08 501.36 277.21 501.36 293.33Z" fill="#FFF2EA"/>
<path d="M37.46 237.69C38.11 237.61 38.76 237.51 39.41 237.41C61.77 233.99 84.43 231.6 107 233.24C119.43 234.15 131.72 236.25 144.13 237.3C157.93 238.47 171.8 238.3 185.65 238.13C277.37 237 369.11 235.88 460.85 234.75C465.29 234.71 469.92 234.69 473.86 236.72C479.8 239.76 482.64 246.58 484.64 252.95C490.32 271.1 492.94 290.2 492.35 309.21C492.24 312.74 488.39 318.64 486.26 315.81C479.68 307.04 467.07 306.2 456.09 306.14C428.34 305.98 400.59 305.81 372.84 305.65C363.76 305.61 354.66 305.54 345.59 306.11C333.98 306.82 322.46 308.53 310.96 310.24C296.27 312.43 283.02 315.31 268.26 316.91C259.7 317.83 251.12 318.48 242.52 318.87C219.95 319.91 197.3 319.14 174.86 316.57C166.06 315.57 157.29 314.28 148.57 312.72C128.14 309.06 107.13 300.61 86.99 305.65C70.67 309.74 54.13 312.89 37.46 315.09" fill="#013507"/>
<path d="M172.94 262.1C175.17 282.86 175.69 303.91 174.45 324.81C174.09 330.97 174.01 338.4 178.01 341.85C179.96 343.53 182.43 343.78 184.77 343.92C199.81 344.87 214.89 343.72 229.94 342.58C232.59 342.38 235.39 342.11 237.57 340.21C241.19 337.07 241.89 330.74 242.21 325.15C243.44 302.83 243.37 280.39 241.99 258.08C241.68 253.1 241.02 247.47 237.79 244.66C229.55 237.48 209.52 242.88 199.52 242.68C186.02 242.42 170.9 238.53 172.94 262.1Z" fill="#D86C00"/>
<path d="M397.19 262.1C399.42 282.86 399.94 303.91 398.7 324.81C398.34 330.97 398.26 338.4 402.26 341.85C404.21 343.53 406.68 343.78 409.02 343.92C424.07 344.87 439.14 343.72 454.19 342.58C456.84 342.38 459.64 342.11 461.82 340.21C465.44 337.07 466.14 330.74 466.46 325.15C467.68 302.83 467.61 280.39 466.24 258.08C465.93 253.1 465.27 247.47 462.04 244.66C453.8 237.48 433.77 242.88 423.77 242.68C410.26 242.42 395.15 238.53 397.19 262.1Z" fill="#D86C00"/>
<path d="M436.43 268.59C437.04 285.85 437.18 303.38 436.84 320.75C436.75 325.88 436.72 332.05 437.81 334.94C438.34 336.34 439 336.55 439.64 336.67C443.7 337.47 447.77 336.5 451.83 335.55C452.55 335.38 453.3 335.16 453.89 333.57C454.87 330.95 455.06 325.69 455.14 321.05C455.47 302.48 455.45 283.81 455.08 265.26C455 261.12 454.81 256.44 453.94 254.1C451.71 248.14 446.31 252.62 443.61 252.45C439.96 252.22 435.87 248.99 436.43 268.59Z" fill="#FFF2EA"/>
<path d="M427.85 268.59C427.24 285.85 427.12 303.38 427.44 320.75C427.53 325.88 427.56 332.05 426.47 334.94C425.94 336.34 425.28 336.55 424.64 336.67C420.58 337.47 416.51 336.5 412.45 335.55C411.73 335.38 410.98 335.16 410.39 333.57C409.41 330.95 409.22 325.69 409.14 321.05C408.81 302.48 408.83 283.81 409.2 265.26C409.28 261.12 409.46 256.44 410.34 254.1C412.57 248.14 417.97 252.62 420.67 252.45C424.32 252.22 428.39 248.99 427.85 268.59Z" fill="#FFF2EA"/>
<path d="M212.21 268.59C212.82 285.85 212.96 303.38 212.62 320.75C212.53 325.88 212.5 332.05 213.59 334.94C214.12 336.34 214.78 336.55 215.42 336.67C219.48 337.47 223.55 336.5 227.61 335.55C228.33 335.38 229.08 335.16 229.67 333.57C230.65 330.95 230.84 325.69 230.92 321.05C231.25 302.48 231.23 283.81 230.86 265.26C230.78 261.12 230.59 256.44 229.72 254.1C227.49 248.14 222.09 252.62 219.39 252.45C215.74 252.22 211.65 248.99 212.21 268.59Z" fill="#FFF2EA"/>
<path d="M203.63 268.59C203.02 285.85 202.88 303.38 203.22 320.75C203.31 325.88 203.34 332.05 202.25 334.94C201.72 336.34 201.06 336.55 200.42 336.67C196.36 337.47 192.29 336.5 188.23 335.55C187.51 335.38 186.76 335.16 186.17 333.57C185.19 330.95 185 325.69 184.92 321.05C184.59 302.48 184.61 283.81 184.98 265.26C185.06 261.12 185.25 256.44 186.12 254.1C188.35 248.14 193.75 252.62 196.45 252.45C200.1 252.22 204.19 248.99 203.63 268.59Z" fill="#FFF2EA"/>
<path d="M135.24 261.25C136.13 270.83 136.33 280.54 135.83 290.18C135.69 293.02 135.66 296.45 137.23 298.05C138 298.83 138.98 298.94 139.9 299C145.85 299.44 151.81 298.91 157.76 298.38C158.81 298.29 159.91 298.16 160.77 297.29C162.21 295.84 162.49 292.92 162.6 290.35C163.08 280.05 163.05 269.7 162.51 259.4C162.39 257.11 162.12 254.5 160.86 253.2C157.6 249.89 149.69 252.37 145.74 252.28C140.4 252.17 134.43 250.39 135.24 261.25Z" fill="#FFF2EA"/>
<path d="M266.11 299.1C278.77 298.07 291.61 297.84 304.35 298.41C308.11 298.58 312.64 298.61 314.74 296.77C315.77 295.88 315.91 294.74 316.01 293.66C316.59 286.73 315.89 279.8 315.18 272.89C315.06 271.67 314.9 270.39 313.73 269.38C311.81 267.71 307.96 267.38 304.55 267.24C290.94 266.68 277.25 266.71 263.64 267.35C260.61 267.49 257.18 267.8 255.46 269.29C251.09 273.08 254.37 282.29 254.24 286.89C254.1 293.09 251.73 300.04 266.11 299.1Z" fill="#D86C00"/>
<path d="M265.22 259.07C277.88 258.76 290.72 258.7 303.46 258.87C307.22 258.92 311.75 258.93 313.86 258.39C314.89 258.12 315.03 257.78 315.12 257.47C315.7 255.41 315 253.33 314.29 251.27C314.17 250.91 314.01 250.52 312.84 250.22C310.92 249.72 307.07 249.63 303.66 249.58C290.05 249.41 276.36 249.42 262.75 249.61C259.72 249.66 256.29 249.75 254.57 250.19C250.2 251.31 253.48 254.08 253.35 255.45C253.21 257.27 250.84 259.35 265.22 259.07Z" fill="#F98E12"/>
<path d="M338.46 299.1C351.12 298.07 363.96 297.84 376.7 298.41C380.46 298.58 384.99 298.61 387.09 296.77C388.12 295.88 388.26 294.74 388.36 293.66C388.94 286.73 388.24 279.8 387.53 272.89C387.41 271.67 387.25 270.39 386.08 269.38C384.16 267.71 380.3 267.38 376.9 267.24C363.29 266.68 349.6 266.71 335.99 267.35C332.96 267.49 329.53 267.8 327.81 269.29C323.44 273.08 326.72 282.29 326.59 286.89C326.46 293.09 324.09 300.04 338.46 299.1Z" fill="#D86C00"/>
<path d="M72.31 294.37C84.97 292.89 97.8101 292.54 110.55 293.37C114.31 293.62 118.84 293.67 120.94 291C121.97 289.7 122.11 288.07 122.2 286.51C122.78 276.51 122.08 266.49 121.37 256.48C121.25 254.72 121.09 252.86 119.92 251.41C118 249.01 114.15 248.54 110.74 248.32C97.13 247.51 83.44 247.56 69.83 248.48C66.8 248.68 63.37 249.12 61.65 251.27C57.28 256.75 60.56 270.06 60.43 276.71C60.31 285.69 57.93 295.73 72.31 294.37Z" fill="#F98E12"/>
<path d="M337.57 259.07C350.23 258.76 363.07 258.7 375.81 258.87C379.57 258.92 384.1 258.93 386.21 258.39C387.24 258.12 387.38 257.78 387.47 257.47C388.05 255.41 387.35 253.33 386.64 251.27C386.52 250.91 386.36 250.52 385.19 250.22C383.27 249.72 379.42 249.63 376.01 249.58C362.4 249.41 348.71 249.42 335.1 249.61C332.07 249.66 328.64 249.75 326.92 250.19C322.55 251.31 325.83 254.08 325.7 255.45C325.57 257.27 323.2 259.35 337.57 259.07Z" fill="#F98E12"/>
<path d="M116.07 342.16C115.15 337.66 113.01 333.71 109.63 330.28C107.75 328.39 105.55 326.94 103.04 325.96C100.53 324.97 97.97 324.48 95.36 324.48C89.01 324.48 84.01 327.21 80.41 332.68C79.86 333.71 79.39 334.74 79.03 335.81C78.99 335.99 78.93 336.16 78.83 336.3C77.79 339.27 77.26 342.23 77.26 345.23C77.26 350.33 78.66 355.02 81.5 359.29C82.83 361.56 84.68 363.43 87.06 364.88C90.23 366.71 93.63 367.61 97.28 367.61C100.2 367.61 103.04 366.89 105.79 365.49C107.88 364.24 109.64 362.74 111.06 360.99C112.22 359.57 113.36 357.7 114.49 355.41C115.37 353.44 115.93 351.27 116.21 348.9C116.35 347.98 116.41 347.09 116.41 346.21C116.41 344.67 116.31 343.33 116.07 342.16ZM104.62 347.95L104.55 348.12C104.32 349.43 103.8 350.94 102.98 352.66V352.77C102.65 353.42 102.26 354.05 101.81 354.63C100.39 356.67 99.29 357.83 98.51 358.08C97.73 358.34 97.23 358.47 97 358.47C95.81 358.47 94.38 357.53 92.68 355.67C90.44 352.39 89.32 348.96 89.32 345.39C89.32 344.08 89.44 342.78 89.73 341.5C90.1 339.46 90.77 337.55 91.75 335.76C92.74 333.96 93.85 333.07 95.08 333.07C96.22 333.07 97.79 333.76 99.81 335.15C100.82 335.99 101.79 337.16 102.73 338.68C103.66 340.19 104.26 341.69 104.54 343.19C104.72 344.01 104.82 345.01 104.82 346.14C104.82 346.73 104.76 347.32 104.62 347.95Z" fill="#D86C00"/>
<path d="M359.94 367.61C356.29 367.61 352.89 366.71 349.72 364.88C347.35 363.43 345.49 361.56 344.16 359.29C341.32 355.01 339.92 350.33 339.92 345.23C339.92 342.23 340.45 339.27 341.5 336.3C341.59 336.16 341.66 335.99 341.7 335.8C342.06 334.74 342.53 333.71 343.07 332.68C346.68 327.2 351.67 324.47 358.02 324.47C360.63 324.47 363.19 324.97 365.7 325.95C368.21 326.93 370.41 328.38 372.29 330.27C375.68 333.7 377.81 337.65 378.74 342.15C378.97 343.32 379.08 344.66 379.08 346.21C379.08 347.08 379.02 347.97 378.88 348.89C378.6 351.26 378.04 353.43 377.16 355.4C376.02 357.69 374.88 359.57 373.73 360.99C372.31 362.74 370.55 364.24 368.46 365.48C365.7 366.89 362.87 367.61 359.94 367.61ZM359.67 358.47C359.9 358.47 360.4 358.35 361.18 358.08C361.96 357.83 363.05 356.67 364.47 354.63C364.92 354.05 365.31 353.43 365.64 352.77V352.66C366.47 350.94 366.98 349.43 367.22 348.12L367.28 347.95C367.42 347.33 367.48 346.73 367.48 346.14C367.48 345.02 367.39 344.02 367.2 343.19C366.92 341.69 366.33 340.19 365.39 338.68C364.45 337.17 363.49 336 362.47 335.15C360.46 333.76 358.88 333.08 357.74 333.08C356.51 333.08 355.4 333.97 354.41 335.76C353.43 337.55 352.76 339.46 352.38 341.5C352.1 342.78 351.97 344.07 351.97 345.39C351.97 348.96 353.09 352.4 355.32 355.67C357.03 357.53 358.49 358.47 359.67 358.47Z" fill="#D86C00"/>
<path d="M39.0201 327.46C39.0501 331.42 39.1601 331.83 39.3201 335.79C39.3701 337.07 39.4901 338.47 40.5801 339.4C41.4201 340.1 42.6901 340.35 43.8701 340.54C50.3501 341.52 57.0301 341.52 63.5001 340.52C65.0401 340.29 66.6501 339.96 67.8401 339.1C69.9301 337.57 69.9801 334.98 70.5701 332.73C72.4601 325.66 80.9201 320.9 89.4901 319.26C95.9801 318.01 103.29 318.24 108.75 321.4C110.79 322.59 112.49 324.12 114.02 325.72C117.13 328.97 119.67 332.59 121.56 336.43C122.17 337.68 122.78 339.02 124.04 339.88C125.38 340.78 127.24 340.97 128.97 341.11C139.13 341.87 149.37 341.87 159.51 341.14C160.77 341.05 162.05 340.94 163.18 340.44C164.48 339.86 165.38 338.83 166.07 337.77C168.88 333.42 168.77 328.23 168.58 323.32C168.56 322.81 168.52 322.26 168.14 321.87C167.8 321.53 167.25 321.36 166.74 321.22C161.76 319.86 156.67 318.79 151.51 318.02C142.07 316.63 140.96 317.43 131.56 315.84C123.91 314.54 112.58 311.08 104.79 310.55C97.5201 310.05 89.6401 310.66 82.4101 311.55C73.6401 312.63 60.7601 317.73 52.0101 318.79C44.7101 319.64 38.9401 320.14 39.0201 327.46Z" fill="#F98E12"/>
<path d="M246.27 338.27C246.33 339.41 246.5 340.69 247.53 341.41C248.36 341.99 249.5 342.02 250.54 342.03C275.78 342.39 301.01 342.15 326.24 341.31C327.71 341.26 329.22 341.2 330.52 340.62C333.58 339.25 334.16 335.78 335.31 332.97C337.45 327.73 342.72 323.65 348.81 321.91C354.9 320.16 361.67 320.63 367.62 322.69C372.79 324.47 377.52 327.53 380.14 331.77C381.57 334.11 382.36 336.76 384.15 338.93C385.94 341.08 389.3 342.66 392.06 341.52C395.21 340.23 395.57 336.51 395.49 333.48C395.32 327.39 395.16 321.31 394.99 315.22C394.94 313.35 394.74 311.21 393.01 310.08C391.82 309.3 390.23 309.24 388.76 309.21C368.25 308.71 347.6 308.23 327.36 311.08C318.79 312.28 310.35 314.08 301.86 315.62C290.67 317.66 279.35 319.27 268.01 320.46C263.36 320.94 258.83 321.32 254.15 321.26C251.31 321.23 248.36 321.03 246.89 323.51C244.71 327.19 246.02 334.28 246.27 338.27Z" fill="#F98E12"/>
<path d="M471.72 313.27C470.63 314.19 470.52 315.81 470.5 317.25C470.42 323.65 470.48 330.06 470.67 336.46C470.7 337.29 470.73 338.16 471.18 338.85C471.88 339.96 473.35 340.24 474.64 340.43C478.32 340.96 482.48 341.38 485.36 339.03C488.42 336.53 488.7 332.04 488.71 328.09C488.73 325.47 488.63 322.58 486.88 320.65C485.71 319.37 484.01 318.73 482.67 317.62C479.94 315.33 476.03 309.6 471.72 313.27Z" fill="#F98E12"/>
<path d="M68.9799 223.69L50.0999 223.74C46.8199 223.74 44.1499 224.11 43.9999 224.58C43.5199 226.02 43.0299 227.44 42.5499 228.87C42.4099 229.29 42.3499 229.76 44.1699 230.1C46.3499 230.51 50.3699 230.57 53.9399 230.6C85.3399 230.87 116.87 231.07 148.23 230.69C161.06 230.53 176.32 230.69 189.18 230.69C199.53 230.69 207.36 230.44 217.68 230.53C290.69 231.23 357.74 230.31 436.9 230.98C444.83 231.04 452.83 231.17 460.55 230.89C462.47 230.83 464.26 230.7 465.4 230.47C466.76 230.2 466.85 229.85 466.88 229.52C467.04 228.15 467.18 226.76 467.33 225.38C467.36 225.02 467.36 224.65 465.97 224.37C462.65 223.67 453.88 223.93 450.35 223.86C443.62 223.7 436.94 223.69 430.14 223.72C346.91 224.2 267.56 222.81 186.29 223.58C177.05 223.67 167.84 223.81 158.6 223.89C149.53 223.97 140.43 224 131.35 224.01C112.56 224.08 87.7399 223.64 68.9799 223.69Z" fill="#F98E12"/>
<path d="M31 238.61V219.46C31 215.892 33.8922 213 37.46 213L39.02 229.17L37.23 239.21L31 238.61Z" fill="#FFF2EA"/>
<path d="M32.9991 315.394C32.1513 315.647 31.5701 316.426 31.5701 317.311V353.67C31.5701 354.774 32.4655 355.67 33.5701 355.67H35.4875C36.5813 355.67 37.4722 354.791 37.4873 353.697L38.0003 316.531C38.0066 316.072 37.8497 315.625 37.5575 315.271C37.062 314.67 36.2551 314.424 35.5087 314.647L32.9991 315.394Z" fill="#FFF2EA"/>
</g>
<defs>
<clipPath id="clip0">
<rect width="470.36" height="160.96" fill="white" transform="translate(31 213)"/>
</clipPath>
</defs>
</svg>
