<svg width="562" height="452" fill="none" xmlns="http://www.w3.org/2000/svg"><path d="M524.693 242.383a661.882 661.882 0 00-4.329-.787l2.153-15.988c.595.113 1.19.23 1.783.338l.568-3.127c-.64-.116-1.287-.243-1.926-.364 4.4-32.7 8.794-65.392 13.31-98.183-.066.069.009-.323.132-.849-.02.158-.04.321-.064.479a4399.29 4399.29 0 006.529-5.75c-4.008-.967-8.013-1.925-12.023-2.879a482.679 482.679 0 00-11.246-25.798l3.745-20.588c1.002-5.508.443-8.988 2.905-13.965-6.53-1.049-12.508-1.992-18.981-2.886-.055.201-.098.391-.152.588-1.627 2.566-6.115 3.495-7.725 5.941-1.481 2.255-.567 2.745-1.031 5.301l-1.371 7.538c-.099.544-.194 1.089-.289 1.634a540.299 540.299 0 00-24.463-5.813l1.344-7.385c1.002-5.508.826-8.918 2.787-13.987-4.375-.656-8.385-1.242-12.728-1.748-.05.202-.089.393-.135.592-1.252 2.633-4.359 3.813-5.595 6.328-1.137 2.317-.545 2.748-1.01 5.305l-1.371 7.537c-13.703-2.596-27.481-4.85-41.258-7.036 1.652-7.797 4.684-12.545 5.407-20.722-6.373-1.443-12.301-2.665-18.782-3.983.552 5.525-1.197 8.586-2.199 14.094l-1.441 7.925c-13.938-2.193-27.875-4.39-41.813-6.584.116-.613.228-1.227.339-1.841l1.371-7.538c.465-2.552 1.171-2.752.923-5.32-.271-2.79-2.758-4.992-3.004-7.893.027-.202.054-.395.078-.602-4.244-1.055-8.203-1.92-12.528-2.845.05 5.434-1.315 8.564-2.317 14.072l-1.694 9.31c-7.268-1.146-14.532-2.288-21.8-3.434.176-.917.347-1.835.514-2.75l1.371-7.537c.464-2.552 1.493-2.693.901-5.325-.641-2.856-4.518-5.311-5.139-8.28.019-.204.05-.396.065-.605-6.372-1.442-12.3-2.664-18.781-3.983.552 5.526-1.197 8.586-2.199 14.094l-3.682 20.244c-8.412 5.735-16.823 11.466-25.234 17.201-3.595-.519-7.19-1.033-10.787-1.539 3.568 4.82 4.888 7.309 10.653 8.605l-5.182-.943-17.911 99.511c-1.489-.271-2.972-.55-4.461-.821l-.569 3.127c1.489.271 2.978.546 4.466.821-1.067 5.915-2.129 11.826-3.196 17.741a595.3 595.3 0 01-4.108-.76c1.195.851 2.933 1.882 3.339 2.717l.405.073c-4.023 22.337-8.045 44.674-12.063 67.011 92.525 24.239 191.249 36.163 286.106 48.198 2.938-21.342 5.823-42.644 8.696-63.934l.952.159c.032-.844 3.021-1.421 3.745-2.112z" stroke="#FFF2EA" stroke-width="16.376" stroke-miterlimit="10" stroke-linejoin="round"/><path d="M262.566 66.43c10.46-7.13 20.92-14.257 31.381-21.387 2.68-1.825 5.434-3.686 8.568-4.443 3.363-.81 6.87-.28 10.277.26 30.7 4.832 61.401 9.665 92.1 14.502 33.749 5.315 67.593 10.648 100.461 19.987 2.711.772 5.485 1.6 7.73 3.327 2.834 2.18 4.517 5.536 6.071 8.792a485.014 485.014 0 0113.674 31.516l-153.103 54.218L262.566 66.43z" fill="#013507"/><path d="M511.875 308.379c-94.858-12.035-193.582-23.959-286.107-48.198 11.363-63.139 22.731-126.282 34.098-189.42l277.557 50.485c.198-.194-.789 3.325-.596 3.13-8.455 61.45-16.497 122.553-24.952 184.003z" fill="#F98E12"/><path d="M543.423 118.261c-2.176 1.921-4.35 3.834-6.529 5.749.029-.21.055-.426.084-.636.169-1.279-191.84-36.577-209.366-39.917-13.699-2.614-27.403-5.2-41.108-7.76-7.043-1.318-14.15-2.44-21.158-3.926-6.016-1.278-7.312-3.772-10.942-8.67a3020.47 3020.47 0 01289.019 55.16zM314.947 17.162c.226 3.212 4.535 5.786 5.213 8.807.592 2.631-.436 2.768-.901 5.324l-1.371 7.538c-.647 3.557-1.354 7.1-2.183 10.597-.385 1.621-.401 3.886-1.595 5.153-1.584 1.687-5.811 2.47-8.242 3.57-2.897-4.728-2.268-6.058-1.849-10.71.487-5.376.99-11.38 2.197-16.604 1.025-4.425 3.294-9.9 8.731-13.675z" fill="#D86C00"/><path d="M289.063 54.951L294.11 27.2c1.002-5.508 2.751-8.569 2.2-14.094 6.481 1.318 12.408 2.54 18.781 3.983-.755 8.553-4.043 13.345-5.627 21.806-1.204 6.425-2.606 13.017-4.198 19.395-3.618-1.13-10.275-2.121-16.203-3.339zM394.206 74.075l5.047-27.75c1.002-5.509 2.751-8.57 2.199-14.095 6.481 1.319 12.409 2.54 18.781 3.983-.755 8.554-4.042 13.345-5.626 21.807-1.205 6.425-2.606 13.017-4.198 19.394-3.614-1.13-10.275-2.121-16.203-3.339z" fill="#F98E12"/><path d="M355.609 24.558c-.031 3.165 2.745 5.46 3.028 8.41.248 2.568-.458 2.763-.923 5.32l-1.371 7.537a304.245 304.245 0 01-2.101 10.612c-.355 1.627-.501 3.868-1.385 5.192-1.175 1.76-4.092 2.782-5.809 4.013-1.695-4.51-1.188-5.862-.63-10.488.645-5.349 1.339-11.318 2.463-16.557.951-4.438 2.811-9.988 6.728-14.04z" fill="#D86C00"/><path d="M335.817 63.455l5.047-27.75c1.002-5.51 2.368-8.64 2.317-14.074 4.325.927 8.284 1.79 12.528 2.846-1.012 8.507-3.524 13.44-5.095 21.903-1.192 6.428-2.528 13.031-3.985 19.433-2.39-.907-6.857-1.5-10.812-2.358z" fill="#F98E12"/><path d="M464.266 44.321c-1.086 2.974-4.493 4.145-5.795 6.805-1.137 2.317-.545 2.748-1.01 5.305l-1.371 7.537a303.113 303.113 0 00-1.77 10.672c-.241 1.648-.893 3.797-.532 5.347.48 2.062 2.85 4.045 4.024 5.802 3.174-3.625 3.175-5.068 4.282-9.595 1.28-5.233 2.732-11.064 3.525-16.363.673-4.489.882-10.34-1.353-15.51z" fill="#D86C00"/><path d="M469.089 87.696a264734.5 264734.5 0 015.048-27.751c1.002-5.508.826-8.919 2.787-13.987-4.375-.657-8.385-1.242-12.728-1.748-2.048 8.318-1.434 13.819-2.944 22.294-1.148 6.435-2.223 13.087-3.114 19.591 2.557-.007 6.947 1.012 10.951 1.6z" fill="#F98E12"/><path d="M507.927 52.263c-1.342 2.927-6.281 3.819-7.98 6.407-1.481 2.254-.567 2.744-1.032 5.3l-1.371 7.538c-.647 3.558-1.232 7.122-1.687 10.688-.211 1.653-.993 3.778-.323 5.384.889 2.137 4.57 4.358 6.458 6.245 4.375-3.406 4.255-4.872 5.501-9.373 1.437-5.205 3.081-11.001 3.791-16.315.603-4.502.403-10.426-3.357-15.874z" fill="#D86C00"/><path d="M518.852 96.747l5.047-27.75c1.002-5.51.443-8.99 2.905-13.967-6.53-1.048-12.508-1.991-18.981-2.885-2.305 8.272-.916 13.914-2.413 22.39-1.135 6.439-2.144 13.102-2.9 19.631 3.78.216 10.36 1.633 16.342 2.581z" fill="#F98E12"/><path d="M297.592 96.746l-1.551 8.53c-.931 1.406-1.148 4.182-1.597 5.959a172.66 172.66 0 00-2.349 10.985c-.599 3.296-1.466 6.701-1.797 10.056a144.917 144.917 0 00-4.778-.865c1.464-11.484 4.102-22.997 6.177-34.406 1.489-.615 3.575-.609 5.895-.259z" fill="#D86C00"/><path d="M306.719 136.621c-4.912-1.757-10.893-3.254-16.421-4.345.331-3.355 1.198-6.76 1.797-10.056a173.356 173.356 0 012.349-10.985c.449-1.777.666-4.553 1.597-5.959l1.551-8.53c5.204.776 11.574 3.248 15.015 4.139-.2 11.786-4.019 24.051-5.888 35.736z" fill="#013507"/><path d="M334.279 138.39c-.084.484-.231 1.119-.368 1.8-.841-.153-1.67-.294-2.473-.427 1.463-11.484 4.106-22.996 6.181-34.405.691-.288 1.51-.436 2.422-.482-1.225 6.737-2.446 13.474-3.675 20.21-.805 4.424-1.327 8.877-2.087 13.304z" fill="#D86C00"/><path d="M352.636 144.973c-5.605-2.005-12.594-3.667-18.725-4.783.137-.681.284-1.315.368-1.8.76-4.427 1.282-8.88 2.087-13.304 1.229-6.736 2.45-13.473 3.675-20.209 5.462-.276 14.222 3.256 18.483 4.36-.2 11.786-4.014 24.052-5.888 35.736zM383.537 113.71c-2.075 11.409-4.718 22.921-6.177 34.406 6.648 1.092 14.825 2.93 21.198 5.21 1.869-11.685 5.688-23.951 5.888-35.736-4.975-1.287-16.078-5.885-20.909-3.88z" fill="#013507"/><path d="M444.476 161.678a66.862 66.862 0 00-1.745-.597c.184-1.329.302-2.648.439-3.6.595-4.062 1.24-8.128 1.791-12.193.892-6.635 2.331-13.261 3.599-19.863.661.201 1.267.379 1.804.517-.2 11.785-4.015 24.052-5.888 35.736z" fill="#D86C00"/><path d="M442.731 161.081c-6.073-2.004-13.394-3.624-19.454-4.613 1.464-11.484 4.107-22.996 6.182-34.405 4.311-1.789 13.613 1.68 19.101 3.362-1.269 6.602-2.708 13.228-3.599 19.863-.551 4.065-1.196 8.131-1.791 12.193-.137.952-.256 2.271-.439 3.6z" fill="#013507"/><path d="M490.398 170.03a91.294 91.294 0 00-5.674-1.796c2.224-11.809 4.707-23.531 6.937-35.347 1.791.568 3.396 1.09 4.625 1.408-.2 11.785-4.019 24.051-5.888 35.735z" fill="#D86C00"/><path d="M491.661 132.887c-2.23 11.816-4.713 23.538-6.937 35.347-5.139-1.452-10.728-2.627-15.524-3.413 1.459-11.485 4.101-22.998 6.177-34.406 3.639-1.511 10.831.724 16.284 2.472zM282.106 149.738c-2.075 11.408-4.718 22.921-6.177 34.406 6.648 1.092 14.825 2.93 21.198 5.209 1.869-11.684 5.688-23.95 5.889-35.735-4.976-1.288-16.078-5.885-20.91-3.88zM328.028 158.091c-2.075 11.408-4.718 22.921-6.177 34.405 6.648 1.093 14.825 2.931 21.198 5.21 1.869-11.684 5.688-23.95 5.888-35.736-4.975-1.287-16.078-5.884-20.909-3.879zM373.945 166.443c-2.075 11.408-4.717 22.921-6.177 34.405 6.648 1.092 14.825 2.931 21.199 5.21 1.869-11.685 5.688-23.95 5.888-35.736-4.975-1.287-16.078-5.884-20.91-3.879zM419.863 174.794c-2.075 11.409-4.718 22.921-6.177 34.406 6.648 1.092 14.825 2.931 21.199 5.21 1.869-11.685 5.688-23.95 5.888-35.736-4.971-1.286-16.078-5.884-20.91-3.88zM465.785 183.147c-2.075 11.409-4.718 22.921-6.177 34.406 6.648 1.092 14.825 2.93 21.199 5.21 1.868-11.685 5.687-23.95 5.888-35.736-4.975-1.287-16.078-5.885-20.91-3.88zM270.93 211.179c-2.075 11.409-4.718 22.921-6.177 34.406 6.648 1.092 14.825 2.93 21.199 5.21 1.868-11.685 5.687-23.95 5.888-35.736-4.975-1.287-16.078-5.885-20.91-3.88zM316.852 219.532c-2.075 11.409-4.718 22.921-6.177 34.406 6.648 1.092 14.825 2.93 21.199 5.209 1.869-11.684 5.688-23.95 5.888-35.735-4.975-1.288-16.078-5.885-20.91-3.88zM362.77 227.884c-2.075 11.408-4.718 22.921-6.177 34.406 6.648 1.092 14.825 2.93 21.198 5.209 1.869-11.684 5.688-23.95 5.889-35.735-4.975-1.288-16.078-5.885-20.91-3.88zM408.688 236.236c-2.075 11.408-4.718 22.921-6.177 34.405 6.648 1.093 14.825 2.931 21.198 5.21 1.869-11.684 5.688-23.95 5.888-35.735-4.97-1.287-16.078-5.885-20.909-3.88zM454.61 244.589c-2.076 11.408-4.718 22.921-6.178 34.405 6.649 1.092 14.825 2.931 21.199 5.21 1.869-11.685 5.688-23.95 5.888-35.736-4.975-1.287-16.078-5.884-20.909-3.879z" fill="#013507"/><path d="M288.004 149.461l-1.552 8.53c-.93 1.406-1.147 4.182-1.596 5.958a172.839 172.839 0 00-2.349 10.986c-.6 3.296-1.467 6.701-1.798 10.056a144.871 144.871 0 00-4.777-.865c1.463-11.484 4.102-22.997 6.177-34.406 1.488-.615 3.574-.609 5.895-.259zM276.831 210.889l-1.552 8.531c-.93 1.405-1.147 4.182-1.596 5.958a171.97 171.97 0 00-2.349 10.985c-.6 3.297-1.467 6.702-1.798 10.056a150.329 150.329 0 00-4.777-.865c1.463-11.484 4.102-22.997 6.177-34.405 1.488-.616 3.574-.61 5.895-.26zM480.807 222.763a91.781 91.781 0 00-5.675-1.797c2.225-11.809 4.708-23.53 6.938-35.347 1.79.569 3.396 1.09 4.625 1.408-.201 11.786-4.02 24.051-5.888 35.736zM469.631 284.204a91.962 91.962 0 00-5.674-1.797c2.224-11.809 4.707-23.53 6.937-35.347 1.791.569 3.396 1.09 4.625 1.408-.2 11.786-4.019 24.052-5.888 35.736zM434.918 214.227a66.889 66.889 0 00-1.745-.596c.183-1.33.302-2.649.439-3.6.595-4.062 1.24-8.128 1.791-12.194.891-6.635 2.33-13.26 3.599-19.863.661.201 1.267.379 1.804.517-.2 11.786-4.015 24.052-5.888 35.736zM423.776 275.486a68.164 68.164 0 00-1.745-.597c.183-1.329.302-2.648.439-3.6.595-4.062 1.24-8.128 1.79-12.193.892-6.635 2.331-13.261 3.6-19.863.66.201 1.267.379 1.804.517-.2 11.785-4.015 24.052-5.888 35.736zM324.687 191.123c-.084.484-.23 1.118-.368 1.8-.84-.153-1.669-.295-2.473-.428 1.464-11.483 4.106-22.996 6.182-34.404.691-.289 1.509-.437 2.422-.482-1.225 6.736-2.446 13.473-3.676 20.209-.805 4.424-1.327 8.877-2.087 13.305zM313.511 252.568c-.084.485-.231 1.119-.368 1.8-.841-.152-1.669-.294-2.473-.427 1.463-11.484 4.106-22.996 6.181-34.405.692-.288 1.51-.436 2.423-.481-1.226 6.736-2.447 13.473-3.676 20.209-.805 4.424-1.327 8.877-2.087 13.304zM237.426 193.096c-.406-.834-2.144-1.865-3.339-2.717 9.247 1.745 25.667 4.61 37.938 6.42 20.207 2.973 40.328 7.182 60.39 10.476 16.206 2.659 32.016 6.183 48.088 9.156 8.561 1.584 17.166 3.068 25.615 4.798 18.405 3.775 37.364 6.409 55.882 10.007 9.707 1.887 19.519 3.564 29.251 5.334 10.468 1.904 23.728 4.015 34.011 5.925-.724.692-3.714 1.273-3.75 2.116-18.228-3.041-36.848-6.351-54.914-10.114l-229.172-41.401z" fill="#D86C00"/><path d="M240.74 191.396c1.168-6.418 2.014-13.026 3.545-19.365.941.81 1.985.389 2.923.919 1.052.596.117 1.933-.15 3.054-.81 3.389-1.381 6.848-2.007 10.288-.349 1.92-.387 4.626-1.304 6.308-1.038-.059-1.991-.925-3.007-1.204zM260.327 194.959c1.167-6.419 2.013-13.026 3.544-19.365.942.81 1.986.388 2.924.919 1.052.596.116 1.933-.151 3.054-.81 3.388-1.38 6.847-2.006 10.287-.349 1.921-.387 4.626-1.305 6.308-1.037-.058-1.991-.924-3.006-1.203zM279.913 198.521c1.167-6.418 2.014-13.026 3.544-19.364.942.81 1.986.388 2.924.918 1.052.596.116 1.933-.151 3.054-.81 3.389-1.38 6.848-2.006 10.288-.349 1.92-.387 4.626-1.305 6.308-1.037-.058-1.995-.925-3.006-1.204zM299.495 202.083c1.167-6.419 2.014-13.026 3.545-19.365.941.81 1.985.388 2.923.919 1.052.596.116 1.933-.151 3.054-.81 3.389-1.38 6.848-2.006 10.288-.349 1.92-.387 4.626-1.305 6.308-1.037-.059-1.991-.925-3.006-1.204zM319.081 205.645c1.167-6.418 2.014-13.025 3.545-19.364.941.81 1.985.388 2.923.918 1.052.597.116 1.933-.151 3.055-.809 3.388-1.38 6.847-2.006 10.287-.349 1.92-.387 4.626-1.305 6.308-1.037-.058-1.991-.924-3.006-1.204zM338.667 209.208c1.168-6.418 2.014-13.026 3.545-19.365.941.81 1.985.388 2.924.919 1.052.596.116 1.933-.151 3.054-.81 3.389-1.381 6.848-2.006 10.288-.35 1.92-.387 4.626-1.305 6.308-1.038-.059-1.991-.925-3.007-1.204zM358.249 212.77c1.168-6.419 2.014-13.026 3.545-19.365.941.81 1.985.388 2.924.919 1.052.596.116 1.933-.151 3.054-.81 3.388-1.381 6.847-2.006 10.287-.35 1.921-.387 4.626-1.305 6.308-1.033-.057-1.991-.924-3.007-1.203zM377.836 216.332c1.167-6.418 2.014-13.025 3.545-19.364.941.81 1.985.388 2.923.918 1.052.597.116 1.933-.151 3.054-.809 3.389-1.38 6.848-2.006 10.288-.349 1.92-.387 4.626-1.305 6.308-1.037-.058-1.991-.924-3.006-1.204zM397.422 219.895c1.167-6.419 2.014-13.026 3.545-19.365.941.81 1.985.388 2.923.919 1.052.596.116 1.933-.151 3.054-.81 3.388-1.38 6.847-2.006 10.288-.349 1.92-.387 4.626-1.305 6.308-1.037-.059-1.991-.925-3.006-1.204zM417.008 223.457c1.168-6.418 2.014-13.025 3.545-19.364.941.81 1.985.388 2.924.918 1.052.597.116 1.933-.151 3.055-.81 3.388-1.381 6.847-2.006 10.287-.35 1.92-.387 4.626-1.305 6.308-1.038-.058-1.991-.924-3.007-1.204zM436.59 227.019c1.168-6.418 2.014-13.026 3.545-19.364.941.81 1.985.388 2.923.918 1.053.596.117 1.933-.15 3.054-.81 3.389-1.381 6.848-2.006 10.288-.35 1.92-.388 4.626-1.305 6.308-1.038-.058-1.991-.925-3.007-1.204zM456.177 230.582c1.167-6.419 2.014-13.026 3.545-19.365.941.81 1.985.388 2.923.919 1.052.596.116 1.933-.151 3.054-.809 3.388-1.38 6.847-2.006 10.287-.349 1.921-.387 4.626-1.305 6.308-1.037-.058-1.991-.924-3.006-1.203zM475.763 234.144c1.168-6.418 2.014-13.025 3.545-19.364.941.81 1.985.388 2.923.918 1.052.597.116 1.933-.15 3.054-.81 3.389-1.381 6.848-2.007 10.288-.349 1.92-.387 4.626-1.304 6.308-1.038-.058-1.992-.924-3.007-1.204zM495.349 237.707c1.168-6.419 2.014-13.026 3.545-19.365.941.81 1.985.388 2.923.919 1.053.596.117 1.933-.15 3.054-.81 3.388-1.381 6.847-2.006 10.288-.35 1.92-.387 4.626-1.305 6.308-1.038-.059-1.996-.926-3.007-1.204zM514.931 241.269c1.168-6.419 2.014-13.026 3.545-19.365.941.81 1.985.388 2.923.919 1.053.596.117 1.933-.15 3.054-.81 3.388-1.381 6.847-2.006 10.287-.35 1.921-.387 4.626-1.305 6.308-1.038-.058-1.991-.924-3.007-1.203z" fill="#D86C00"/><path d="M524.878 226.055c-9.446-1.736-18.976-4-28.647-5.759-9.118-1.658-18.209-3.123-27.336-4.464-6.778-.994-13.141-2.714-19.873-3.938-26.466-4.814-53.241-8.699-79.583-13.927-44.152-8.759-88.195-17.324-132.515-25.385l.569-3.127c44.324 8.063 88.363 16.626 132.515 25.386 26.342 5.227 53.116 9.112 79.583 13.926 6.732 1.225 13.095 2.944 19.873 3.939 9.127 1.34 18.217 2.805 27.335 4.464 9.672 1.759 19.202 4.023 28.648 5.759l-.569 3.126z" fill="#D86C00"/><path d="M10.516 66.008c2.049 10.028 1.687 20.377 2.248 30.608.492 9.033 1.688 18.008 2.954 26.971 4.124 29.12 8.991 58.127 13.868 87.121 5.73 34.145 11.464 68.301 17.195 102.446 1.22 7.255 3.521 15.838 10.542 18.067 3.244 1.038 6.767.361 10.11-.31a2615.78 2615.78 0 01177.495-29.419c3.488-.454 7.416-1.163 9.39-4.082 1.769-2.631 1.303-6.119.765-9.245a15429.485 15429.485 0 01-35.132-213.691c-1.249-7.926-2.661-16.249-7.686-22.488-.975-1.202-2.07-2.324-2.818-3.685-1.063-1.937-1.322-4.19-1.556-6.376l-1.443-13.322c-.599-5.497-1.231-11.12-3.683-16.076-2.453-4.956-7.137-9.173-12.662-9.477-2.712 7.3-3.275 15.373-1.621 22.978a109.36 109.36 0 01-27.356 5.967c-1.238.111-2.581.168-3.617-.528-1.431-.968-1.664-2.924-1.972-4.613-1.156-6.37-5.406-12.1-11.16-15.061-5.156 5.123-6.109 13.178-5.257 20.397.851 7.22 3.229 14.243 3.591 21.496.425 8.489-1.916 17.128.019 25.398 1.361 5.864 4.795 12.057 2.176 17.467-9.267-9.552-18.532-19.092-27.8-28.644-.847-.873-1.748-1.773-2.908-2.135-3.209-.971-5.844 2.543-7.359 5.53-6.06 11.96-12.108 23.92-18.17 35.868-5.592-4.512-3.97-13.187-4.773-20.33-1.194-10.475-8.599-19.373-10.276-29.778-.984-6.133.078-12.466-.988-18.585-1.065-6.12-5.395-12.464-11.6-12.642-1.5 6.237-3 12.474-4.514 18.701-.257 1.059-.542 2.17-1.275 2.983-.907.999-2.31 1.356-3.625 1.65l-17.366 3.936c-3.179.716-6.753 1.378-9.52-.345-2.55-1.59-3.598-4.727-4.353-7.634-.754-2.908-1.537-6.053-3.822-8.002-6.166-5.261-8.263 3.893-8.83 8.063-.955 7.04 1.399 13.994 2.789 20.82z" fill="#FFF2EA"/><path d="M110.834 72.068c.469-1.022 1.131-2.185 2.246-2.312 1.159-.146 2.097.905 2.798 1.839a137.46 137.46 0 0019.172 20.52c3.638 3.172 7.703 6.575 8.551 11.328.128.692.169 1.435-.175 2.049-.453.826-1.45 1.15-2.363 1.401-4.568 1.215-9.257 1.859-13.934 2.5l-26.951 3.699c-8.847 1.21-.918-12.999.543-16.884a371.515 371.515 0 0110.113-24.14z" fill="#013507"/><path d="M36.286 121.663l-8.112 1.412c-1.408.249-2.473.888-2.446 1.476.08 1.775.16 3.539.253 5.313.028.527.1 1.095.944 1.377 1.023.335 2.763.115 4.296-.106 13.555-1.954 27.145-3.986 40.548-6.7 5.482-1.103 12.068-2.029 17.603-2.96 4.442-.747 7.763-1.62 12.212-2.248 31.517-4.43 60.154-10.396 94.32-15.308 3.422-.491 6.888-.929 10.145-1.827.808-.221 1.56-.492 2.006-.858.532-.428.496-.857.439-1.27-.21-1.682-.432-3.361-.643-5.043-.059-.425-.136-.883-.795-1.135-1.576-.606-5.283.344-6.828.495-2.922.298-5.805.76-8.723 1.298-35.668 6.616-70.066 10.661-104.844 17.466-3.954.773-7.884 1.616-11.84 2.378-3.886.75-7.781 1.442-11.688 2.135-8.026 1.423-18.782 2.7-26.847 4.105zM116.829 234.648a665.04 665.04 0 0146.322-8.287c4.579-.649 10.083-1.551 12.431-3.251 1.14-.833 1.198-1.641 1.179-2.399-.098-4.892-1.749-9.535-3.409-14.164-.296-.821-.632-1.671-2.17-2.126-2.521-.761-7.247-.195-11.387.404a1011.837 1011.837 0 00-49.623 8.419c-3.662.713-7.798 1.626-9.706 2.999-4.872 3.503.181 9.194.574 12.392.52 4.314-1.54 9.593 15.789 6.013zM177.312 201.142l-2.473.452c-.435.073-.726.424-.689.793.129 1.126.245 2.244.374 3.37.032.333.093.698.374.929.335.27.872.228 1.346.172 4.158-.493 8.322-1.025 12.385-2.01 1.661-.4 3.69-.621 5.37-.903 1.351-.228 2.352-.602 3.717-.747 9.668-1.069 18.348-3.267 28.825-4.485 1.054-.129 2.115-.211 3.09-.592.237-.101.458-.223.582-.425.14-.241.106-.513.075-.774-.157-1.074-.325-2.146-.481-3.22-.046-.27-.095-.564-.309-.758-.526-.467-1.644-.074-2.112-.055a15.59 15.59 0 00-2.673.34c-10.854 2.213-21.447 2.882-32.015 5.276-1.199.275-2.391.584-3.59.858-1.177.258-2.371.484-3.554.707-2.482.405-5.792.623-8.242 1.072z" fill="#D86C00"/><path d="M45.325 223.752l-2.474.453c-.434.073-.726.424-.688.793.13 1.126.245 2.243.374 3.37.032.333.093.698.373.929.336.27.873.228 1.347.172 4.158-.494 8.322-1.025 12.385-2.01 1.66-.401 3.69-.621 5.37-.904 1.351-.227 2.352-.601 3.717-.746 9.668-1.07 18.348-3.267 28.825-4.485 1.054-.129 2.115-.211 3.09-.593.237-.1.458-.222.581-.424.141-.241.107-.513.076-.774-.157-1.074-.325-2.146-.481-3.22-.046-.27-.095-.564-.31-.758-.525-.467-1.643-.074-2.111-.056-.901.031-1.786.156-2.674.341-10.853 2.213-21.446 2.882-32.014 5.276-1.199.274-2.392.584-3.59.858-1.177.258-2.372.483-3.554.707-2.48.417-5.79.635-8.242 1.071zM149.64 36.622l-2.473.453c-.435.073-.726.424-.689.792.13 1.127.245 2.244.374 3.371.032.333.093.698.374.929.335.27.872.228 1.346.172 4.158-.494 8.322-1.025 12.385-2.01 1.661-.4 3.69-.621 5.37-.904 1.352-.227 2.352-.6 3.717-.746 9.668-1.07 18.349-3.267 28.825-4.485 1.054-.13 2.116-.211 3.091-.593.236-.1.458-.222.581-.424.14-.241.107-.514.075-.774-.157-1.074-.325-2.146-.481-3.22-.046-.27-.095-.564-.309-.758-.526-.468-1.644-.074-2.112-.056-.901.03-1.786.156-2.673.341-10.853 2.212-21.447 2.882-32.015 5.276-1.199.274-2.391.584-3.59.858-1.177.258-2.371.483-3.554.706-2.48.417-5.79.636-8.242 1.072zM17.586 58.834l-2.473.452c-.435.073-.727.424-.689.793.13 1.126.245 2.243.374 3.37.032.333.093.698.373.929.336.27.873.228 1.347.172 4.158-.493 8.322-1.025 12.385-2.01 1.66-.4 3.69-.62 5.37-.904 1.351-.227 2.352-.6 3.717-.746 9.668-1.07 18.348-3.267 28.825-4.485 1.054-.13 2.115-.21 3.09-.593.237-.1.458-.222.581-.424.141-.241.107-.513.076-.774-.157-1.074-.325-2.146-.481-3.22-.046-.27-.095-.564-.31-.758-.525-.467-1.643-.074-2.111-.056-.901.031-1.786.156-2.674.341-10.853 2.213-21.446 2.882-32.015 5.276-1.198.274-2.39.584-3.589.858-1.177.258-2.372.483-3.554.707-2.48.417-5.79.635-8.242 1.072z" fill="#D86C00"/><path d="M12.742 54.099c-.326-1.722-.642-3.458-.67-5.207-.033-1.844.276-3.673.573-5.5l.774-4.664c.073-.424.31-.96.723-.872.188.041.326.212.436.362 4.364 6.194 4.78 8.518 7.133 21.36 1.363 7.46 2.435 13.978 3.508 22.441.27 2.18 1.357 4.258 1.131 6.435-.033.38-.122.783-.394 1.034-.217.218-.53.295-.832.37-2.524.581-5.058 1.177-5.999-1.615-1.2-3.546-1.45-7.76-2.132-11.453a7301.957 7301.957 0 01-4.251-22.691zM69.486 44.555c-.255-1.734-.525-3.478-1.07-5.14-.573-1.753-1.463-3.38-2.34-5.01l-2.258-4.154c-.209-.376-.607-.805-.969-.587-.164.1-.238.306-.293.485-2.098 7.28-1.73 9.612.247 22.518 1.152 7.495 2.271 14.005 4.026 22.354.458 2.147.11 4.466 1.037 6.45.155.35.37.7.71.848.276.135.598.105.907.078 2.576-.276 5.165-.543 5.14-3.489-.025-3.743-1.167-7.807-1.732-11.52a7333.763 7333.763 0 00-3.405-22.833zM144.502 31.937c-.326-1.722-.642-3.458-.67-5.207-.032-1.844.276-3.673.573-5.5l.774-4.664c.074-.424.31-.959.724-.871.188.04.325.21.435.362 4.365 6.193 4.78 8.517 7.133 21.36 1.364 7.46 2.436 13.977 3.509 22.44.27 2.18 1.356 4.258 1.131 6.436-.033.38-.123.782-.395 1.033-.217.218-.53.295-.832.37-2.524.582-5.058 1.177-5.998-1.615-1.201-3.546-1.451-7.76-2.132-11.453a7180.398 7180.398 0 01-4.252-22.69zM201.247 22.393c-.256-1.734-.525-3.478-1.07-5.14-.573-1.753-1.463-3.38-2.341-5.01l-2.258-4.154c-.208-.376-.606-.805-.968-.587-.165.1-.239.306-.294.485-2.098 7.28-1.73 9.612.248 22.518 1.152 7.495 2.271 14.005 4.025 22.354.458 2.148.111 4.467 1.037 6.451.155.349.371.7.71.848.277.134.598.105.908.077 2.575-.276 5.165-.542 5.14-3.488-.025-3.744-1.168-7.807-1.732-11.52-1.109-7.6-2.257-15.217-3.405-22.834zM102.414 188.604c-1.873-13.721-3.652-27.966.09-41.132 2.424-8.508 7.129-16.239 13.451-22.042 1.097-1.019 2.275-1.99 3.647-2.524 3.832-1.502 8.086.659 11.54 3.089 17.064 12.012 28.562 32.529 30.243 53.948.098 1.229.155 2.501-.231 3.654-.934 2.78-4.008 3.902-6.743 4.519-13.334 2.98-27.442 2.004-40.426 6.28-1.546.502-3.103 1.09-4.717 1.047-3.523-.109-6.38-3.376-6.854-6.839zM61.031 277.836l7.316 43.708c.13.776.312 1.64.935 2.116.665.504 1.603.407 2.44.278a530.968 530.968 0 0031.786-5.914 211.035 211.035 0 00-1.861-16.166c-1.31-8.436-2.23-16.635-3.09-25.123-.306-3.043-.632-6.132-1.718-8.996-.781-2.057-1.944-3.94-3.09-5.803l-19.25-31.255c-.216-.35-.487-.74-.892-.78-.627-.064-.996.687-1.16 1.295-3.425 12.255-6.835 24.519-10.26 36.774-.982 3.429-1.751 6.327-1.156 9.866zM191.052 255.967l7.316 43.708c.13.776.312 1.64.936 2.115.664.505 1.603.408 2.439.279a530.288 530.288 0 0031.787-5.915 210.954 210.954 0 00-1.862-16.165c-1.31-8.436-2.23-16.635-3.089-25.123-.307-3.043-.633-6.132-1.719-8.996-.781-2.057-1.943-3.941-3.09-5.803l-19.25-31.255c-.216-.35-.487-.74-.892-.781-.627-.063-.996.688-1.16 1.296-3.424 12.254-6.835 24.519-10.26 36.774-.982 3.429-1.751 6.327-1.156 9.866z" fill="#013507"/><path d="M213.491 71.34l-1.864-10.579c-.32-1.832-1.255-3.222-2.115-3.162-2.642.166-5.298.323-7.941.49-.789.047-1.653.156-2.09 1.294-.533 1.359-.261 3.622.017 5.63 2.482 17.706 5.108 35.472 8.726 52.962 1.481 7.15 2.641 15.768 3.867 22.985.988 5.806 2.174 10.128 2.971 15.942 5.625 41.2 13.623 78.554 19.888 123.2.632 4.476 1.176 9.003 2.409 13.244.309 1.048.691 2.024 1.211 2.602.61.683 1.264.621 1.879.542 2.517-.339 5.034-.678 7.553-1.005.638-.083 1.329-.211 1.728-1.076.954-2.083-.354-6.916-.536-8.929-.352-3.822-.936-7.58-1.649-11.389-8.752-46.573-13.707-91.549-22.776-136.92-1.025-5.159-2.154-10.289-3.178-15.448-1.009-5.065-1.903-10.162-2.808-15.257-1.87-10.542-3.438-24.605-5.292-35.125zM150.155 81.994l-1.7-10.607c-.297-1.837.132-3.456.964-3.68 2.551-.708 5.113-1.429 7.664-2.136.762-.213 1.614-.392 2.399.54.948 1.11 1.431 3.337 1.826 5.326 3.446 17.543 6.777 35.19 9.079 52.902.94 7.241 2.664 15.764 3.866 22.985.965 5.81 1.258 10.283 2.408 16.037 8.162 40.773 12.824 78.688 21.509 122.927.867 4.437 1.834 8.892 2.057 13.304.05 1.092.009 2.138-.294 2.854-.353.845-.991 1.001-1.598 1.127-2.489.504-4.978 1.007-7.466 1.522-.63.13-1.325.235-1.985-.452-1.583-1.656-1.928-6.652-2.415-8.613-.917-3.726-1.595-7.469-2.167-11.302-6.965-46.874-16.997-90.995-23.269-136.837-.719-5.21-1.331-10.427-2.05-15.638-.704-5.116-1.527-10.225-2.338-15.335-1.67-10.576-4.789-24.378-6.49-34.924zM18.288 104.173l-1.7-10.607c-.296-1.836.133-3.456.965-3.68 2.551-.707 5.112-1.428 7.664-2.135.761-.213 1.613-.393 2.398.54.948 1.11 1.432 3.337 1.827 5.326 3.446 17.543 6.776 35.19 9.079 52.901.94 7.241 2.663 15.765 3.866 22.986.965 5.81 1.258 10.282 2.407 16.037 8.163 40.772 12.825 78.688 21.51 122.927.867 4.436 1.834 8.892 2.056 13.303.051 1.092.01 2.139-.293 2.855-.353.845-.991 1.001-1.598 1.127-2.49.503-4.979 1.006-7.466 1.521-.63.131-1.326.236-1.985-.451-1.583-1.656-1.928-6.652-2.415-8.613-.917-3.727-1.595-7.47-2.167-11.303-6.966-46.873-16.997-90.994-23.27-136.836-.719-5.211-1.33-10.427-2.05-15.638-.703-5.117-1.526-10.225-2.337-15.336-1.682-10.573-4.801-24.375-6.49-34.924zM80.297 93.744l-1.864-10.58c-.32-1.832-1.255-3.222-2.115-3.162-2.643.166-5.299.323-7.941.49-.79.047-1.653.156-2.09 1.294-.533 1.359-.26 3.622.016 5.63 2.483 17.706 5.109 35.472 8.727 52.962 1.48 7.149 2.64 15.768 3.866 22.985.989 5.806 2.175 10.128 2.972 15.942 5.624 41.2 13.623 78.554 19.888 123.2.632 4.476 1.176 9.003 2.409 13.244.309 1.048.69 2.024 1.21 2.601.611.684 1.265.622 1.88.543 2.517-.339 5.033-.678 7.552-1.005.639-.083 1.33-.211 1.728-1.076.955-2.083-.353-6.916-.535-8.929-.353-3.822-.937-7.58-1.65-11.389-8.752-46.574-13.706-91.549-22.775-136.92-1.025-5.159-2.154-10.289-3.179-15.448-1.009-5.065-1.902-10.162-2.808-15.257-1.87-10.542-3.437-24.605-5.291-35.125z" fill="#F98E12"/><path d="M173.686 121.97a27.9 27.9 0 011.356 6.627c.052.668.173 1.458.857 1.718.335.125.715.085 1.095.045 2.357-.287 4.685-.812 7.004-1.323.407-.092.838-.189 1.145-.446.508-.424.5-1.124.448-1.72a43.095 43.095 0 00-1.234-7.119c-.136-.521-.343-1.103-.897-1.312-1.41-.548-4.438.554-5.994.791-2.099.305-4.518.288-3.78 2.739zM71.725 139.12c.02 2.27.325 4.515.887 6.706.17.648.313 1.434-.248 1.903-.276.228-.648.315-1.02.402-2.32.499-4.693.765-7.05 1.04-.416.046-.855.096-1.23-.047-.618-.234-.839-.898-.985-1.478a43.02 43.02 0 01-1.163-7.131c-.042-.537-.037-1.155.419-1.533 1.152-.98 4.375-.93 5.922-1.214 2.072-.397 4.364-1.206 4.468 1.352z" fill="#013507"/><path d="M110.418 97.684c-1.092-2.113-1.161-4.677-.156-6.889.256-.563.584-1.126 1.083-1.536.475-.406 1.075-.652 1.664-.885 1.403-.562 2.862-1.085 4.376-1.062 3.321.058 5.892 2.842 6.645 5.81.388 1.518.4 3.173-.338 4.603-.502.967-1.308 1.779-2.178 2.494-4.115 3.412-8.848 1.778-11.096-2.535zM107.231 160.846c-.244-1.736-.333-3.849 1.091-4.862 1.282-.929 3.073-.409 4.632-.622.827-.115 1.618-.442 2.458-.547.828-.103 1.79.086 2.258.781.575.834.419 2.275 1.387 2.572.407.125.838-.045 1.236-.196a28.671 28.671 0 0112.42-1.944c1.235.082 2.79.063 3.301-1.063.414-.916-.195-2.023.115-2.982.367-1.125 1.741-1.501 2.905-1.697 1.433-.241 2.865-.494 4.298-.735.67-.113 1.389-.222 2.007.073.856.425 1.168 1.485 1.373 2.417a348.777 348.777 0 014.973 27.128c.046.342.095.709-.071 1.015-.127.251-.377.414-.622.54-2.716 1.521-6.061.959-9.134 1.439-1.861.289-3.656.966-5.515 1.266-.47.08-.944.135-1.382.33-.37.171-.701.432-1.037.658-1.133.734-2.471 1.044-3.791 1.314a95.627 95.627 0 01-10.672 1.566c-1.01.097-2.027.159-3.019-.061-1.068-.243-3.27-.55-4.158-1.235-1.179-.902-1.225-3.759-1.513-5.113-.91-4.26-1.728-8.547-2.451-12.85a498.872 498.872 0 01-1.089-7.192z" fill="#FFF2EA"/><path d="M72.192 191.318c.56-2.706 2.26-5.82 5.512-6.38.552-.093 1.181-.09 1.591.192.341.233.48.621.587.977 1.28 4.162 1.219 8.536 1.697 12.82.243 2.16.595 4.325 1.34 6.388.597 1.677 2.158 3.772 1.542 5.641-.735 2.239-3.887 2.757-6.177 2.211-3.877-.919-4.172-4.617-4.976-7.456-1.3-4.642-2.121-9.521-1.116-14.393zM190.051 171.494c-1.414-2.373-4.039-4.761-7.296-4.225-.552.093-1.145.301-1.44.702-.247.331-.25.743-.236 1.115.152 4.351 1.642 8.465 2.59 12.67.478 2.12.853 4.282.824 6.475-.015 1.78-.805 4.27.389 5.834 1.427 1.876 4.574 1.334 6.561.069 3.362-2.137 2.431-5.728 2.262-8.674-.289-4.811-1.098-9.692-3.654-13.966z" fill="#D86C00"/><path d="M121.214 194.485c.455 4.216 1.111 8.47 1.958 12.644.244 1.24.507 2.731.178 3.5-.166.378-.429.471-.681.55-1.661.472-3.379.532-5.11.581-.3.014-.627.009-.939-.338-.507-.567-.802-1.823-1.028-2.946a209.549 209.549 0 01-2.246-13.501c-.133-1.006-.254-2.158.015-2.784.685-1.602 3.111-.898 4.222-1.121 1.496-.3 3.069-1.362 3.631 3.415zM144.614 190.284a138.998 138.998 0 012.286 12.588c.174 1.252.414 2.747.977 3.366.281.303.559.305.823.296 1.724-.096 3.367-.602 5.019-1.122.288-.085.595-.197.777-.626.293-.702.161-1.986.007-3.121a210.247 210.247 0 00-2.294-13.493c-.203-.993-.466-2.122-.925-2.625-1.171-1.29-3.234.169-4.356.322-1.512.206-3.335-.286-2.314 4.415z" fill="#013507"/><path d="M130.246 223.469c-1.216-2.346-1.285-5.2-.175-7.648.281-.627.649-1.245 1.199-1.712.53-.44 1.195-.721 1.839-.987 1.551-.623 3.18-1.212 4.865-1.181 3.694.056 6.538 3.168 7.381 6.46.428 1.681.449 3.527-.372 5.116-.556 1.073-1.456 1.974-2.42 2.777-4.573 3.779-9.822 1.954-12.317-2.825z" fill="#FFF2EA"/><path d="M138.485 264.047c-1.093-2.113-1.161-4.677-.156-6.889.256-.563.584-1.126 1.083-1.536.475-.406 1.074-.652 1.663-.884 1.404-.563 2.863-1.086 4.377-1.063 3.321.058 5.891 2.842 6.644 5.81.389 1.518.401 3.173-.337 4.603-.502.967-1.308 1.779-2.179 2.494-4.126 3.414-8.859 1.78-11.095-2.535z" fill="#013507"/><path d="M204.54 278.108a112.04 112.04 0 013.474 17.998c.193 1.793.529 3.937 1.837 4.744.633.39 1.35.342 2.028.276 4.335-.451 8.568-1.502 12.79-2.55.742-.186 1.529-.391 2.059-1.048.882-1.079.775-2.935.587-4.56a171.04 171.04 0 00-3.31-19.319c-.324-1.42-.785-3.011-1.849-3.666-2.699-1.674-8.137.836-11.002 1.258-3.856.564-8.345.17-6.614 6.867z" fill="#D86C00"/><path d="M213.978 277.899a256.906 256.906 0 002.556 16.133c.303 1.581.635 3.484.384 4.433-.115.467-.352.567-.581.642-1.439.496-2.969.451-4.499.406-.267-.004-.561-.027-.855-.485-.489-.752-.833-2.363-1.109-3.791A387.368 387.368 0 01207 278.009c-.18-1.288-.365-2.744-.168-3.514.5-1.983 2.708-.927 3.675-1.138 1.34-.298 2.654-1.535 3.471 4.542zM215.72 277.412a244.502 244.502 0 012.886 16.223c.234 1.605.546 3.535 1.12 4.358.273.401.543.428.796.422 1.616-.018 3.129-.575 4.652-1.145.275-.095.545-.213.697-.746.239-.875.033-2.533-.175-3.985a378.17 378.17 0 00-2.946-17.373c-.253-1.287-.569-2.733-1.021-3.407-1.17-1.713-3.026.038-4.082.155-1.42.178-3.164-.568-1.927 5.498z" fill="#F98E12"/><path d="M73.32 300.179a112.03 112.03 0 013.474 17.998c.193 1.793.53 3.937 1.837 4.744.633.389 1.35.341 2.028.276 4.334-.451 8.568-1.502 12.79-2.55.742-.186 1.53-.391 2.06-1.048.881-1.079.774-2.935.586-4.56-.73-6.49-1.84-12.953-3.31-19.319-.324-1.42-.785-3.011-1.85-3.666-2.698-1.674-8.136.836-11.001 1.258-3.844.562-8.333.168-6.614 6.867z" fill="#D86C00"/><path d="M82.867 299.975a232.768 232.768 0 002.555 16.122c.302 1.581.634 3.484.36 4.437-.127.468-.376.571-.617.647-1.544.514-3.169.485-4.804.458-.29 0-.596-.021-.902-.477-.513-.748-.868-2.357-1.133-3.787a370.581 370.581 0 01-2.871-17.217c-.18-1.287-.353-2.745-.133-3.52.559-1.992 2.896-.958 3.934-1.181 1.386-.306 2.804-1.572 3.611 4.518zM84.56 299.691a248.283 248.283 0 012.86 16.07c.231 1.593.54 3.5 1.1 4.312.273.402.53.419.77.415 1.558-.008 3.024-.557 4.49-1.106.263-.093.533-.211.673-.742.228-.873.025-2.507-.18-3.947a370.442 370.442 0 00-2.92-17.209c-.25-1.275-.552-2.712-1.001-3.374-1.145-1.705-2.921.02-3.94.143-1.387.161-3.07-.584-1.852 5.438z" fill="#F98E12"/><path d="M135.355 282.938a146.62 146.62 0 014.549 23.669c.252 2.363.701 5.177 2.403 6.245.824.514 1.756.454 2.636.367 5.631-.573 11.139-1.947 16.634-3.33.961-.247 1.991-.516 2.68-1.382 1.139-1.413.995-3.855.756-5.991a226.545 226.545 0 00-4.358-25.405c-.433-1.861-1.04-3.96-2.405-4.818-3.512-2.202-10.585 1.079-14.298 1.631-5.01.746-10.852.205-8.597 9.014z" fill="#D86C00"/><path d="M147.025 282.499a347.88 347.88 0 003.405 21.467c.401 2.096.84 4.634.523 5.908-.15.618-.465.756-.751.852-1.895.657-3.901.584-5.917.524-.353-.013-.733-.046-1.124-.645-.65-.991-1.107-3.139-1.465-5.049a540.209 540.209 0 01-3.833-22.931c-.251-1.711-.48-3.643-.23-4.676.656-2.637 3.551-1.226 4.832-1.514 1.737-.377 3.476-2.036 4.56 6.064zM149.634 282.06a347.898 347.898 0 013.805 21.4c.307 2.112.722 4.654 1.439 5.754.344.535.687.562.988.559 2.006.001 3.89-.726 5.775-1.442.329-.128.677-.284.851-.978.29-1.149.02-3.328-.267-5.25a521.201 521.201 0 00-3.88-22.923c-.322-1.699-.738-3.599-1.312-4.494-1.482-2.278-3.757.003-5.073.152-1.765.212-3.939-.788-2.326 7.222z" fill="#F98E12"/><path d="M73.388 284.281c-.509-3.819-.995-7.787.137-11.472a13.627 13.627 0 014.022-6.189c.327-.285.679-.562 1.076-.713 1.136-.433 2.385.167 3.39.832 4.991 3.307 8.329 8.996 8.765 14.968.022.347.044.694-.083 1.017-.28.773-1.193 1.096-1.996 1.279-3.938.868-8.085.635-11.915 1.859-.458.15-.914.311-1.387.306-1.042-.018-1.87-.919-2.009-1.887zM202.823 262.511c-.51-3.82-.996-7.788.136-11.472a13.628 13.628 0 014.022-6.19c.327-.284.679-.561 1.076-.713 1.136-.432 2.385.168 3.391.833 4.99 3.307 8.328 8.996 8.764 14.968.022.346.044.693-.082 1.017-.281.773-1.194 1.095-1.997 1.279-3.938.868-8.085.634-11.915 1.859-.458.149-.914.311-1.386.305-1.043-.018-1.871-.918-2.009-1.886z" fill="#FFF2EA"/><path d="M113.484 294.717c-.66-3.492-1.322-6.995-1.911-10.499-.485-2.808-.924-5.636-.811-8.484.294-7.376 4.26-14.039 8.094-20.342 4.328-7.099 8.902-14.458 15.906-18.936 1.211-.772 2.486-1.458 3.87-1.848 4.038-1.139 8.318.39 12.112 2.182a80.245 80.245 0 0123.334 16.749c1.931 1.996 3.774 4.117 5.012 6.592 1.419 2.832 1.988 6.001 2.547 9.111 1.008 5.633 2.004 11.269 3.01 16.891 1.014 5.669 2.018 11.351 3.032 17.02.121.645.222 1.317.023 1.931-.558 1.641-3.067 1.737-4.329.558-1.261-1.178-1.597-3.031-1.86-4.74l-5.305-34.555c-.212-1.404-.439-2.828-1.033-4.131-.745-1.627-2.018-2.949-3.303-4.195a82.148 82.148 0 00-23.821-15.978c-1.474-.647-2.992-1.262-4.598-1.403-3.445-.291-6.682 1.656-9.27 3.941-4.503 3.973-7.813 9.076-11.061 14.119-2.551 3.947-5.153 8.012-6.057 12.625-.919 4.664-.015 9.469.878 14.131 1.727 8.97 3.831 17.962 5.193 26.993.36 2.358-.383 4.115-3.177 3.956-3.389-.179-3.137-3.921-3.632-6.51l-2.843-15.178z" fill="#013507"/><path d="M68.438 324.89l-8.727 1.492c-1.516.255-2.712.686-2.737.968l-.249 2.617c-.029.259-.007.533.873.59 1.05.066 2.913-.211 4.562-.465 14.538-2.288 29.14-4.623 43.593-7.271 5.908-1.079 12.984-2.184 18.93-3.184 4.783-.805 8.376-1.566 13.157-2.31 33.815-5.277 64.725-11.02 101.393-16.788 3.672-.581 7.386-1.134 10.919-1.897.875-.183 1.697-.394 2.202-.624.609-.26.609-.478.589-.668l-.194-2.445c-.01-.204-.059-.426-.724-.495-1.608-.153-5.636.682-7.278.91a249.57 249.57 0 00-9.355 1.488c-38.436 6.755-75.258 12.115-112.75 18.88-4.258.765-8.51 1.564-12.767 2.329-4.187.752-8.392 1.472-12.583 2.201-8.676 1.507-20.186 3.19-28.854 4.672z" fill="#FFF2EA"/><path d="M117.705 161.913a229.79 229.79 0 002.678 16.995c.327 1.662.677 3.671.352 4.68-.158.498-.442.607-.716.701-1.766.563-3.629.55-5.478.547-.328-.006-.68-.019-1.026-.493-.577-.773-.948-2.476-1.236-3.975a350.858 350.858 0 01-3.028-18.145c-.19-1.346-.365-2.889-.106-3.718.661-2.106 3.315-1.053 4.504-1.314 1.586-.339 3.229-1.704 4.056 4.722zM138.51 158.958a266.42 266.42 0 013.019 16.938c.245 1.675.572 3.688 1.151 4.545.288.423.557.439.823.442 1.654-.012 3.222-.602 4.78-1.179.272-.106.566-.228.714-.785.245-.911.027-2.64-.191-4.151a410.624 410.624 0 00-3.075-18.137c-.26-1.334-.588-2.851-1.057-3.558-1.208-1.792-3.113.028-4.192.149-1.469.175-3.267-.599-1.972 5.736zM126.545 182.647c3.192-1.286 6.534-2.03 9.941-2.179 1.007-.049 2.197-.225 2.53-1.623.164-.68.062-1.497-.045-2.277-.677-4.964-1.696-9.87-2.703-14.779-.181-.864-.371-1.775-.797-2.441-.705-1.102-1.755-1.168-2.664-1.111-3.639.201-7.22.827-10.717 1.875-.781.24-1.601.825-1.919 1.737-.47 1.373 1.059 9.095 1.575 12.381.709 4.427 1.14 9.722 4.799 8.417z" fill="#F98E12"/><path d="M115.375 194.754a1071.603 1071.603 0 0135.586-6.167c3.51-.542 7.729-1.251 9.614-2.04.914-.383 1.008-.689 1.056-.975.248-1.831-.703-3.461-1.64-5.08-.169-.286-.375-.578-1.499-.655-1.856-.111-5.467.4-8.646.898a1674.45 1674.45 0 00-38.092 6.431c-2.814.51-5.973 1.198-7.533 1.763-2.357.856-1.099 3.449-1.011 4.619.098 1.592-1.18 3.693 12.165 1.206zM192.025 69.293a125.346 125.346 0 002.938 20.41c.453 1.978.882 4.385-.223 5.72-.531.645-1.317.861-2.061 1.035-4.79 1.12-9.704 1.572-14.608 2.01-.87.073-1.777.141-2.587-.363-1.335-.827-1.914-2.834-2.313-4.628a191.907 191.907 0 01-3.588-21.763c-.177-1.627-.262-3.498.62-4.578 2.264-2.774 8.998-2.106 12.206-2.718 4.347-.804 8.989-2.878 9.616 4.875z" fill="#D86C00"/><path d="M181.973 72.676a248.89 248.89 0 012.819 15.823c.228 1.57.53 3.442 1.076 4.244.271.39.53.42.771.415 1.545-.006 3.012-.555 4.478-1.104.262-.093.521-.209.663-.728.23-.86.031-2.472-.169-3.877a374.692 374.692 0 00-2.873-16.938c-.247-1.252-.545-2.665-.992-3.315-1.128-1.672-2.908.03-3.928.14-1.377.148-3.057-.573-1.845 5.34zM179.938 72.934a238.31 238.31 0 002.543 16.05c.3 1.57.63 3.461.369 4.424-.126.469-.375.571-.616.648-1.521.51-3.133.478-4.745.447-.279-.001-.584-.022-.891-.479-.51-.736-.854-2.347-1.128-3.763a367.908 367.908 0 01-2.86-17.146c-.178-1.276-.351-2.734-.142-3.506.549-1.979 2.848-.951 3.886-1.174 1.375-.304 2.783-1.556 3.584 4.499z" fill="#F98E12"/><path d="M37.116 95.348a125.312 125.312 0 013.901 20.248c.219 2.018.6 4.432 2.081 5.332.714.436 1.527.384 2.287.304 4.892-.508 9.684-1.689 14.462-2.879.846-.215 1.725-.448 2.325-1.189.992-1.219.883-3.304.672-5.131a191.88 191.88 0 00-3.729-21.739c-.365-1.595-.897-3.391-2.083-4.123-3.047-1.881-9.192.954-12.423 1.425-4.36.66-9.436.22-7.493 7.752z" fill="#D86C00"/><path d="M47.721 95.257a249.156 249.156 0 002.514 15.875c.298 1.557.624 3.425.37 4.362-.128.457-.363.569-.592.644-1.462.5-3.028.461-4.593.422-.278-.002-.56-.027-.865-.471-.498-.739-.838-2.326-1.108-3.719a375.472 375.472 0 01-2.827-16.946c-.176-1.264-.356-2.697-.146-3.457.518-1.95 2.757-.923 3.758-1.152 1.349-.312 2.7-1.543 3.49 4.442zM49.74 94.833a238.2 238.2 0 012.849 15.999c.23 1.582.536 3.477 1.098 4.301.273.401.541.417.794.411 1.604-.016 3.118-.573 4.631-1.13.262-.093.544-.212.685-.744.241-.863.039-2.497-.165-3.925a367.685 367.685 0 00-2.907-17.139c-.249-1.263-.563-2.698-1.012-3.36-1.167-1.69-3.003.034-4.057.163-1.41.164-3.14-.56-1.915 5.424z" fill="#F98E12"/><path fill-rule="evenodd" clip-rule="evenodd" d="M28.45 345.556c-.254.876-.397 1.882-.414 3.031-.18 12.505.127 28.939 5.691 35.919 7.964 9.995 19.367 15.696 30.527 20.716 94.49 42.442 199.333 56.331 300.226 39.779 48.504-7.965 92.654-15.707 139.83-30.453 11.372-3.554 26.344-14.393 35.241-22.98 14.364-13.862 19.513-39.511 21.649-61.081.362-2.602.494-5.199.416-7.776v-.061a25.562 25.562 0 00-.044-1.002l-.02-.349v-.033l-.022-.318a49.007 49.007 0 00-.465-4.194 52.252 52.252 0 00-1.492-6.691 55.977 55.977 0 00-2.916-7.777c-5.871-12.751-16.352-23.555-28.191-29.761-20.418-10.698-43.895-10.85-66.49-10.393-128.065 2.581-256.013 18.03-381.179 48.072-4.111.99-8.222 1.99-12.333 3.01l-.823.204-.014.004a133.377 133.377 0 00-6.748 1.865l-.639.196-.069.022c-.612.192-1.226.39-1.838.595l-.014.005h-.002a52.098 52.098 0 00-14.8 6.778c-.72.456-1.42.922-2.102 1.41-.011.011-.022.023-.043.035l-.075.056a39.494 39.494 0 00-3.041 2.425l-.014.013c-.369.327-.73.66-1.083 1l-.002.002a32.045 32.045 0 00-2.633 2.862l-.01.012h-.001a31.322 31.322 0 00-.805 1.041l-.002.003c-.056.074-.11.15-.165.226-.125.173-.249.347-.37.523l-.06.084a7.771 7.771 0 00-.223.328c-.212.329-.424.657-.626.985a31.924 31.924 0 00-.642 1.128l-.133.245c-.17.317-.33.645-.489.974l-.034.07-.05.105-.001.002-.123.271-.097.215-.226.51c-.201.492-.392.997-.584 1.513-.116.34-.223.668-.329 1.02l-.032.106c-.029.094-.057.186-.083.28l-.04.14a.041.041 0 00-.003.012l-.049.172a26.939 26.939 0 00-.297 1.169c-.09.375-.171.752-.24 1.136a26.097 26.097 0 00-.36 2.6z" fill="#fff"/><path d="M48.925 380.02c7.5 8.52 18.24 13.38 28.75 17.66 88.99 36.18 187.73 48.02 282.75 33.91 45.68-6.79 87.26-13.39 131.69-25.96 10.71-3.03 24.81-12.27 33.19-19.59 14.39-12.57 18.96-36.51 20.74-55.54-124.4 24.22-253.47 51.5-378.92 33.46-28.14-4.05-55.95-10.22-84.23-13.35-7.71-.85-39.06-17.14-39.33-1.21-.17 10.66.12 24.67 5.36 30.62z" fill="#013507"/><path d="M545.455 335.34c-2.75 14.2-13.21 24.77-25.65 32.88-1.32.86-2.65 1.69-4.01 2.49-4.27 2.54-8.69 4.82-13.05 6.88-46.66 22.07-109.27 42.36-161.58 35.13-51.9-7.17-104.51-1.88-156.98-8.39a637.009 637.009 0 01-101.54-21.06c-9.62-2.83-19.42-6.02-27.21-12.34-.86-.7-1.68-1.44-2.48-2.23-2.12-2.1-3.99-4.5-5.47-7.09-2.99-5.21-4.41-11.18-3.19-17.01 2.73-13.07 16.22-19.63 29.6-23.42 2.35-.66 4.69-1.24 6.97-1.76 4.13-.93 8.26-1.84 12.39-2.74 117.88-25.61 238.38-38.78 358.99-40.98 21.28-.39 43.39-.26 62.62 8.86 11.15 5.29 21.02 14.5 26.55 25.37.6 1.18 1.15 2.38 1.64 3.59 2.8 6.91 3.85 14.36 2.4 21.82z" fill="#2B8354"/><path d="M543.056 313.52c-27.74-1.64-55.471-3.4-82.991-4.31-67.26-2.22-134.599.77-201.799 3.77-61.45 2.73-122.9 5.47-184.36 8.2 2.34-.67 4.68-1.24 6.96-1.76 4.13-.93 8.26-1.84 12.39-2.74 57.33-3.53 114.66-7.05 171.99-10.58 54.42-3.35 108.96-6.7 163.43-4.21 37.36 1.7 75.2 6.09 112.74 8.04.6 1.18 1.15 2.38 1.64 3.59z" fill="#013507"/><path d="M546.105 328.53c0 2.26-.21 4.53-.65 6.81-.21 1.11-.48 2.19-.79 3.25-.09.35-.2.7-.31 1.04v.02c-.15.46-.3.91-.47 1.36 0 .01-.01.02-.01.02-.13.38-.27.75-.42 1.12-.1.27-.21.54-.33.8-.14.33-.28.66-.43.99-.16.35-.32.7-.5 1.05 0 .01 0 .03-.01.04-.19.39-.39.77-.59 1.15-.67 1.26-1.4 2.48-2.19 3.66-.24.37-.48.73-.74 1.08-.2.29-.4.57-.61.85-.07.11-.15.22-.23.32-.24.32-.48.63-.73.94-.26.34-.53.67-.8 1-.03.03-.05.06-.07.08-.26.31-.51.61-.78.91a32.874 32.874 0 01-.93 1.04c-.92 1.01-1.88 1.98-2.87 2.93-.35.33-.69.65-1.05.97-.37.34-.74.67-1.12 1-.37.33-.76.66-1.14.98-.25.21-.5.42-.76.63-.34.28-.68.55-1.02.82-.36.28-.72.57-1.08.84a97.153 97.153 0 01-5.67 3.99c-1.32.86-2.65 1.69-4.01 2.49-36.06-3.22-72.4-4.52-108.59-5.69h-.04c-77.72-1.79-155.46-3.57-233.2-5.36-20.75-.48-41.8-.91-62.82-.77-19.86 1.53-39.4 4.48-58.19 9.81-2.12-2.1-3.99-4.5-5.47-7.09-.29-.49-.55-.99-.81-1.5-.25-.5-.48-1.02-.71-1.53-.11-.26-.22-.52-.32-.78-.11-.26-.21-.52-.3-.79-.01-.01-.01-.02-.02-.04-.18-.51-.35-1.03-.5-1.55-.08-.27-.15-.54-.22-.81s-.14-.54-.2-.81c-.11-.5-.2-1.01-.28-1.51-.01-.1-.03-.19-.04-.28-.03-.2-.06-.4-.08-.6-.04-.33-.07-.67-.1-1l-.03-.72c-.01-.27-.02-.55-.02-.82 0-1.42.14-2.85.44-4.27.08-.41.18-.81.29-1.21.08-.3.16-.6.26-.89 0-.01 0-.02.01-.03.04-.15.09-.29.14-.44.1-.3.2-.58.31-.87.18-.44.36-.87.55-1.29.14-.29.28-.57.42-.85.03-.06.06-.11.08-.15.15-.28.3-.56.46-.83.24-.4.48-.79.73-1.17.19-.28.39-.56.59-.84.07-.1.14-.19.21-.28.19-.24.37-.48.56-.71.25-.3.5-.6.76-.89 0 0 .01 0 .01-.01.26-.29.53-.58.81-.86.27-.28.56-.56.85-.83.27-.25.54-.5.82-.75a.32.32 0 00.07-.06c.3-.25.6-.51.91-.76.04-.03.07-.06.11-.09.6-.47 1.22-.94 1.86-1.38l1.02-.69c.02-.01.03-.02.04-.03.68-.44 1.38-.86 2.1-1.27 1.46-.83 2.98-1.6 4.56-2.3.34-.16.69-.31 1.04-.46 1.86-.79 3.78-1.51 5.72-2.15.34-.12.68-.23 1.03-.34.49-.16.98-.31 1.47-.46.6-.18 1.21-.36 1.81-.53h.01c61.46-2.73 122.91-5.47 184.36-8.2 67.2-3 134.54-5.99 201.8-3.77 27.52.91 55.25 2.67 82.99 4.31.27.67.52 1.34.76 2.02.13.36.261.73.37 1.1.65 2.02 1.14 4.08 1.47 6.16.11.71.2 1.42.27 2.14.04.39.07.78.1 1.17v.08c.03.37.05.73.06 1.1v.07c.01.39.02.78.02 1.17z" fill="#FFF2EA"/><path d="M286.835 348.99c82.998 0 150.28-4.28 150.28-9.56s-67.282-9.56-150.28-9.56c-82.997 0-150.28 4.28-150.28 9.56s67.283 9.56 150.28 9.56z" fill="#013507"/><path d="M162.769 325.126l-.053-.041c-6.76-5.203-11.983-11.843-15.717-19.771-7.656-14.525-11.454-30.449-11.454-47.681 0-10.132 1.417-20.211 4.25-30.195l.128-.452.21-.42c.027-.053.063-.142.09-.285l.039-.205.056-.202a84.431 84.431 0 013.752-10.713l.078-.18.091-.173c9.924-18.898 24.232-29.205 42.866-29.205 7.521 0 14.863 1.791 21.969 5.294l-46.305 134.229zm0 0l.055.04m-.055-.04l.055.04m0 0c8.908 6.48 18.686 9.797 29.221 9.797 8.601 0 16.834-2.646 24.594-7.688l.129-.083.124-.092a59.84 59.84 0 0014.809-15.813l.006-.009.006-.009c3.156-4.955 6.241-11.277 9.244-18.892l.037-.094.033-.095c2.362-6.778 3.916-14.17 4.661-22.172.366-3.115.557-6.171.557-9.193 0-5.135-.3-9.758-.927-13.849l-.004-.021-.003-.02c-2.479-15.296-8.326-28.892-17.573-40.668l-.003-.004m-64.911 118.905l64.911-118.905m0 0c-5.255-6.681-11.478-11.828-18.66-15.364l18.66 15.364zm-28.295 79.15l-.068.11-.063.114c-1.765 3.195-3.25 5.541-4.455 7.126-1.103 1.451-1.651 1.828-1.64 1.845.001.001.004.001.009-.001-.894.365-1.553.608-2.006.754l-.065.02c-.274-.095-.842-.357-1.737-1.084-1.335-1.084-2.99-2.872-4.952-5.547-5.285-9.821-7.888-19.989-7.888-30.575 0-3.974.327-7.87.988-11.713l.012-.068.01-.068c.89-6.195 2.503-11.946 4.84-17.274l.002-.005c1.139-2.608 2.189-4.159 3.014-4.993.392-.397.667-.563.803-.629.116-.055.155-.05.161-.05.262 0 1.142.13 2.821 1.059 1.574.87 3.527 2.261 5.875 4.276 2.078 2.238 4.276 5.515 6.476 9.997l.003.008.004.007c2.21 4.466 3.588 8.825 4.214 13.098l.01.063.01.063c.41 2.37.637 5.255.637 8.699 0 1.469-.129 2.991-.393 4.612l-.051.15-.151.444-.065.465c-.533 3.774-1.76 8.3-3.781 13.596l-.329.861v.294a31.173 31.173 0 01-2.245 4.346zm-8.637 10.066a.136.136 0 01.022-.005l-.005.001a.13.13 0 01-.017.004z" fill="#013507" stroke="#FFF2EA" stroke-width="10"/><mask id="prefix__a" maskUnits="userSpaceOnUse" x="164.95" y="66" width="294" height="274" fill="#000"><path fill="#fff" d="M164.95 66h294v274h-294z"/><path d="M446.595 197.773c-1.53-8.78-3.699-16.53-6.519-23.21-3.53-7.96-7.581-14.85-12.161-20.62-8.36-10.74-17.17-18.32-26.46-22.7-13.53-5.66-27.62-8.49-42.32-8.49-10 0-19.7 1.9-29.1 5.72-.91.46-1.8.97-2.69 1.44-2.02-4.04-4.1-8-6.21-11.89-2.11-3.89-3.949-7.14-5.52-9.79l-1.48-2.72c-2.69-4.62-5.41-9.22-8.1-13.84l-3.31-5.37c-.67-1.26-1.62-2.7-2.8-4.36-.15-.2-.31-.37-.45-.53-.62-1.08-1.569-2.06-2.859-2.94-1.42-1.22-4.951-2.65-8.981.13-4.04 2.79-18.97 22.31-17.01 35.52.02.18.73 4.69 7.08 6.03a8 8 0 001.661.18c1.58 0 2.639-.55 3.299-1.08 1.84-1.5 1.89-3.85 1.89-3.98 0-.07.6-6.45 6.61-16.11.13.27.25.53.4.82l4.62 8.69 1.071 1.97 3.419 6.3 9.96 18.32c.87 1.63 1.69 3.23 2.55 4.86-.2.18-.4.35-.6.53-.22.22-.42.46-.64.68-.16.15-.33.29-.51.46-.15.13-.29.29-.42.44-7.3 7.65-10.71 13.77-14.39 19.25l-1.729 3.12c-1.82 3.03-6.051 11.5-10.121 20.85-3.8 8.73-8.67 19.21-12.909 28.1-1.401 2.87-3.701 7.94-6.901 15.17-.62-1.351-1.15-2.46-1.57-3.32-3.33-6.99-6.79-13.75-10.4-20.31-1.93-3.49-3.6-6.43-5.02-8.8l-1.35-2.45c-2.46-4.16-4.93-8.31-7.39-12.47l-2.75-4.42c3.26-.05 6.77 0 10.6.18 1 .15 6.37.79 9.56-2.08 1.07-.97 2.31-2.74 2.2-5.72.07-1.13-.15-5.44-7.25-7.23-6.17-1.55-40.52-2.03-53.37 6.96-1.71 1.17-4.1 4.71-.93 9.7 1.66 2.63 4.01 3.43 6.06 3.43 1.51 0 2.88-.42 3.75-.88.07-.04 4.61-1.95 13.82-3.25.16.38.33.78.56 1.21 1.27 2.76 1.95 4.2 2 4.36.05.15.89 1.88 2.53 5.17l4.22 7.82.98 1.77 3.13 5.66 4.35 7.91c-1.97.68-3.88 1.849-5.59 3.01-7.1 4.82-14.22 9.619-21.32 14.44-3.79 2.17-8.8 5.409-15.04 9.73-3.92 2.94-6.19 4.58-6.85 4.91l-1.15.91a62.98 62.98 0 00-5.72 4.62c-.95.679-2.19 1.84-3.7 3.49-2.51 2.87-3.62 5.37-3.33 7.45.13.91.36 1.84.67 2.79.47 1.39.78 2.23.95 2.52.16.289.76.84 1.78 1.61l.24.18c1.57.95 3.28 1.52 5.12 1.72 3 .33 7.5.22 13.48-.33 3.46-.29 5.79-.44 7.05-.44 5.24-.26 8.67-.38 10.25-.38 4.92.22 9.01.51 12.27.88 4.48.49 9.58 1.35 15.28 2.61.66.18 1.33.35 2.02.47l9.36 2.23c2.46.64 4.52.68 6.17.13.8-.27 1.47-.68 2.06-1.24.71-.62 1.22-1.32 1.55-2.06.46-.73 1.02-1.72 1.73-3.01l1.75-3.4c3.66-7.72 6.121-12.73 7.391-15.03l5.349-10.54c1.24-2.5 2.51-4.99 3.86-7.43l.071.02c.97 13.71 3.749 26.86 8.409 39.41 3.53 9.35 7.81 17.49 12.87 24.43 11.05 16.05 24.4 26.51 40.04 31.35 6.7 1.97 13.46 2.94 20.29 2.94 8.94 0 17.61-1.99 26.02-5.97 8.4-3.98 17.08-10.83 26.02-20.53.24-.46.53-.86.87-1.21 10.34-12.58 18.051-26.86 23.111-42.8 3.99-12.12 6.169-24.381 6.52-36.72 0-9.241-.661-17.57-1.951-24.95zm-191.49 54.93c-.66 2.34-1.709 5.06-4.08 5.57-.089.02-.2 0-.29.02-2.62-.66-5.32-1.26-8.1-1.83l-2.55-.46c-6.34-1.22-12.56-1.99-18.72-2.34-3.84-.16-6.32-.22-7.41-.15-4.04-.04-8.07.15-12.05.57l-1.49.06c.4-.2 1.17-.75 2.28-1.66 1.98-1.46 4.04-2.9 6.15-4.33 6.3-4.46 13.24-8.67 20.83-12.64l1.15-.57c2.48-1.26 4.24-2.06 5.3-2.43l2.08-.88c.97-.36 1.95-.75 2.97-1.19 1.24-.53 2.53-.91 3.77-1.41.57.07 1.13.26 1.68.62 1.46.97 2.33 2.59 3.13 4.15 1.48 2.85 2.95 5.7 4.44 8.53.75 1.42 1.49 2.88 1.73 4.47.25 2.009-.29 4-.82 5.9zm157.99-21.49c-.82 5.9-2.4 12.42-4.77 19.58l-.87 2.59c-1.4 4.27-3.83 9.59-7.23 15.94-3.17 5.66-6.59 10.46-10.23 14.39-7.88 8.78-16.11 13.17-24.69 13.17-12.35 0-23.75-8.6-34.22-25.82a88.465 88.465 0 01-8.47-20.27c-2.48-10.04-3.7-19.87-3.7-29.45 0-6.46.42-12.36 1.24-17.68.82-4.16 1.77-8.31 2.82-12.47 1.88-6.7 4.22-12.47 7.05-17.33.16-.24.31-.46.47-.68l2.09 4.24c1.82 3.56 3.61 7.18 5.35 10.85l8.96 18.85 3.08 6.48.97 2.03 4.3 8.86c1.89 3.6 2.9 5.48 3.01 5.62.11.149.98 1.68 2.62 4.62 1.11 2.32 2.48 3.65 4.15 3.98 1.66.33 3.26.13 4.77-.62 1.99-.97 3.46-2.45 4.44-4.46.87-1.86.98-3.76.33-5.71-.64-1.95-1.28-3.56-1.89-4.86l-2.4-5.84c-2.15-4.911-4.3-9.82-6.45-14.72l-1.33-2.81c-1.22-2.83-2.77-6.23-4.68-10.23a441.27 441.27 0 00-11-21.49c.06.04.11.07.15.09-.84-1.92-2.4-5-4.21-8.44 5.43-4.15 11.11-6.23 17.08-6.23 9.41 0 18.34 2.37 26.81 7.1 8.47 5.42 15.22 13.62 20.291 24.6l.709 1.55c2.35 5.31 3.88 10.52 4.59 15.59 1.06 5.079 1.59 10.46 1.59 16.11-.02 4.43-.26 8.7-.73 12.87z"/></mask><path d="M446.595 197.773c-1.53-8.78-3.699-16.53-6.519-23.21-3.53-7.96-7.581-14.85-12.161-20.62-8.36-10.74-17.17-18.32-26.46-22.7-13.53-5.66-27.62-8.49-42.32-8.49-10 0-19.7 1.9-29.1 5.72-.91.46-1.8.97-2.69 1.44-2.02-4.04-4.1-8-6.21-11.89-2.11-3.89-3.949-7.14-5.52-9.79l-1.48-2.72c-2.69-4.62-5.41-9.22-8.1-13.84l-3.31-5.37c-.67-1.26-1.62-2.7-2.8-4.36-.15-.2-.31-.37-.45-.53-.62-1.08-1.569-2.06-2.859-2.94-1.42-1.22-4.951-2.65-8.981.13-4.04 2.79-18.97 22.31-17.01 35.52.02.18.73 4.69 7.08 6.03a8 8 0 001.661.18c1.58 0 2.639-.55 3.299-1.08 1.84-1.5 1.89-3.85 1.89-3.98 0-.07.6-6.45 6.61-16.11.13.27.25.53.4.82l4.62 8.69 1.071 1.97 3.419 6.3 9.96 18.32c.87 1.63 1.69 3.23 2.55 4.86-.2.18-.4.35-.6.53-.22.22-.42.46-.64.68-.16.15-.33.29-.51.46-.15.13-.29.29-.42.44-7.3 7.65-10.71 13.77-14.39 19.25l-1.729 3.12c-1.82 3.03-6.051 11.5-10.121 20.85-3.8 8.73-8.67 19.21-12.909 28.1-1.401 2.87-3.701 7.94-6.901 15.17-.62-1.351-1.15-2.46-1.57-3.32-3.33-6.99-6.79-13.75-10.4-20.31-1.93-3.49-3.6-6.43-5.02-8.8l-1.35-2.45c-2.46-4.16-4.93-8.31-7.39-12.47l-2.75-4.42c3.26-.05 6.77 0 10.6.18 1 .15 6.37.79 9.56-2.08 1.07-.97 2.31-2.74 2.2-5.72.07-1.13-.15-5.44-7.25-7.23-6.17-1.55-40.52-2.03-53.37 6.96-1.71 1.17-4.1 4.71-.93 9.7 1.66 2.63 4.01 3.43 6.06 3.43 1.51 0 2.88-.42 3.75-.88.07-.04 4.61-1.95 13.82-3.25.16.38.33.78.56 1.21 1.27 2.76 1.95 4.2 2 4.36.05.15.89 1.88 2.53 5.17l4.22 7.82.98 1.77 3.13 5.66 4.35 7.91c-1.97.68-3.88 1.849-5.59 3.01-7.1 4.82-14.22 9.619-21.32 14.44-3.79 2.17-8.8 5.409-15.04 9.73-3.92 2.94-6.19 4.58-6.85 4.91l-1.15.91a62.98 62.98 0 00-5.72 4.62c-.95.679-2.19 1.84-3.7 3.49-2.51 2.87-3.62 5.37-3.33 7.45.13.91.36 1.84.67 2.79.47 1.39.78 2.23.95 2.52.16.289.76.84 1.78 1.61l.24.18c1.57.95 3.28 1.52 5.12 1.72 3 .33 7.5.22 13.48-.33 3.46-.29 5.79-.44 7.05-.44 5.24-.26 8.67-.38 10.25-.38 4.92.22 9.01.51 12.27.88 4.48.49 9.58 1.35 15.28 2.61.66.18 1.33.35 2.02.47l9.36 2.23c2.46.64 4.52.68 6.17.13.8-.27 1.47-.68 2.06-1.24.71-.62 1.22-1.32 1.55-2.06.46-.73 1.02-1.72 1.73-3.01l1.75-3.4c3.66-7.72 6.121-12.73 7.391-15.03l5.349-10.54c1.24-2.5 2.51-4.99 3.86-7.43l.071.02c.97 13.71 3.749 26.86 8.409 39.41 3.53 9.35 7.81 17.49 12.87 24.43 11.05 16.05 24.4 26.51 40.04 31.35 6.7 1.97 13.46 2.94 20.29 2.94 8.94 0 17.61-1.99 26.02-5.97 8.4-3.98 17.08-10.83 26.02-20.53.24-.46.53-.86.87-1.21 10.34-12.58 18.051-26.86 23.111-42.8 3.99-12.12 6.169-24.381 6.52-36.72 0-9.241-.661-17.57-1.951-24.95zm-191.49 54.93c-.66 2.34-1.709 5.06-4.08 5.57-.089.02-.2 0-.29.02-2.62-.66-5.32-1.26-8.1-1.83l-2.55-.46c-6.34-1.22-12.56-1.99-18.72-2.34-3.84-.16-6.32-.22-7.41-.15-4.04-.04-8.07.15-12.05.57l-1.49.06c.4-.2 1.17-.75 2.28-1.66 1.98-1.46 4.04-2.9 6.15-4.33 6.3-4.46 13.24-8.67 20.83-12.64l1.15-.57c2.48-1.26 4.24-2.06 5.3-2.43l2.08-.88c.97-.36 1.95-.75 2.97-1.19 1.24-.53 2.53-.91 3.77-1.41.57.07 1.13.26 1.68.62 1.46.97 2.33 2.59 3.13 4.15 1.48 2.85 2.95 5.7 4.44 8.53.75 1.42 1.49 2.88 1.73 4.47.25 2.009-.29 4-.82 5.9zm157.99-21.49c-.82 5.9-2.4 12.42-4.77 19.58l-.87 2.59c-1.4 4.27-3.83 9.59-7.23 15.94-3.17 5.66-6.59 10.46-10.23 14.39-7.88 8.78-16.11 13.17-24.69 13.17-12.35 0-23.75-8.6-34.22-25.82a88.465 88.465 0 01-8.47-20.27c-2.48-10.04-3.7-19.87-3.7-29.45 0-6.46.42-12.36 1.24-17.68.82-4.16 1.77-8.31 2.82-12.47 1.88-6.7 4.22-12.47 7.05-17.33.16-.24.31-.46.47-.68l2.09 4.24c1.82 3.56 3.61 7.18 5.35 10.85l8.96 18.85 3.08 6.48.97 2.03 4.3 8.86c1.89 3.6 2.9 5.48 3.01 5.62.11.149.98 1.68 2.62 4.62 1.11 2.32 2.48 3.65 4.15 3.98 1.66.33 3.26.13 4.77-.62 1.99-.97 3.46-2.45 4.44-4.46.87-1.86.98-3.76.33-5.71-.64-1.95-1.28-3.56-1.89-4.86l-2.4-5.84c-2.15-4.911-4.3-9.82-6.45-14.72l-1.33-2.81c-1.22-2.83-2.77-6.23-4.68-10.23a441.27 441.27 0 00-11-21.49c.06.04.11.07.15.09-.84-1.92-2.4-5-4.21-8.44 5.43-4.15 11.11-6.23 17.08-6.23 9.41 0 18.34 2.37 26.81 7.1 8.47 5.42 15.22 13.62 20.291 24.6l.709 1.55c2.35 5.31 3.88 10.52 4.59 15.59 1.06 5.079 1.59 10.46 1.59 16.11-.02 4.43-.26 8.7-.73 12.87z" fill="#013507"/><path d="M446.595 197.773c-1.53-8.78-3.699-16.53-6.519-23.21-3.53-7.96-7.581-14.85-12.161-20.62-8.36-10.74-17.17-18.32-26.46-22.7-13.53-5.66-27.62-8.49-42.32-8.49-10 0-19.7 1.9-29.1 5.72-.91.46-1.8.97-2.69 1.44-2.02-4.04-4.1-8-6.21-11.89-2.11-3.89-3.949-7.14-5.52-9.79l-1.48-2.72c-2.69-4.62-5.41-9.22-8.1-13.84l-3.31-5.37c-.67-1.26-1.62-2.7-2.8-4.36-.15-.2-.31-.37-.45-.53-.62-1.08-1.569-2.06-2.859-2.94-1.42-1.22-4.951-2.65-8.981.13-4.04 2.79-18.97 22.31-17.01 35.52.02.18.73 4.69 7.08 6.03a8 8 0 001.661.18c1.58 0 2.639-.55 3.299-1.08 1.84-1.5 1.89-3.85 1.89-3.98 0-.07.6-6.45 6.61-16.11.13.27.25.53.4.82l4.62 8.69 1.071 1.97 3.419 6.3 9.96 18.32c.87 1.63 1.69 3.23 2.55 4.86-.2.18-.4.35-.6.53-.22.22-.42.46-.64.68-.16.15-.33.29-.51.46-.15.13-.29.29-.42.44-7.3 7.65-10.71 13.77-14.39 19.25l-1.729 3.12c-1.82 3.03-6.051 11.5-10.121 20.85-3.8 8.73-8.67 19.21-12.909 28.1-1.401 2.87-3.701 7.94-6.901 15.17-.62-1.351-1.15-2.46-1.57-3.32-3.33-6.99-6.79-13.75-10.4-20.31-1.93-3.49-3.6-6.43-5.02-8.8l-1.35-2.45c-2.46-4.16-4.93-8.31-7.39-12.47l-2.75-4.42c3.26-.05 6.77 0 10.6.18 1 .15 6.37.79 9.56-2.08 1.07-.97 2.31-2.74 2.2-5.72.07-1.13-.15-5.44-7.25-7.23-6.17-1.55-40.52-2.03-53.37 6.96-1.71 1.17-4.1 4.71-.93 9.7 1.66 2.63 4.01 3.43 6.06 3.43 1.51 0 2.88-.42 3.75-.88.07-.04 4.61-1.95 13.82-3.25.16.38.33.78.56 1.21 1.27 2.76 1.95 4.2 2 4.36.05.15.89 1.88 2.53 5.17l4.22 7.82.98 1.77 3.13 5.66 4.35 7.91c-1.97.68-3.88 1.849-5.59 3.01-7.1 4.82-14.22 9.619-21.32 14.44-3.79 2.17-8.8 5.409-15.04 9.73-3.92 2.94-6.19 4.58-6.85 4.91l-1.15.91a62.98 62.98 0 00-5.72 4.62c-.95.679-2.19 1.84-3.7 3.49-2.51 2.87-3.62 5.37-3.33 7.45.13.91.36 1.84.67 2.79.47 1.39.78 2.23.95 2.52.16.289.76.84 1.78 1.61l.24.18c1.57.95 3.28 1.52 5.12 1.72 3 .33 7.5.22 13.48-.33 3.46-.29 5.79-.44 7.05-.44 5.24-.26 8.67-.38 10.25-.38 4.92.22 9.01.51 12.27.88 4.48.49 9.58 1.35 15.28 2.61.66.18 1.33.35 2.02.47l9.36 2.23c2.46.64 4.52.68 6.17.13.8-.27 1.47-.68 2.06-1.24.71-.62 1.22-1.32 1.55-2.06.46-.73 1.02-1.72 1.73-3.01l1.75-3.4c3.66-7.72 6.121-12.73 7.391-15.03l5.349-10.54c1.24-2.5 2.51-4.99 3.86-7.43l.071.02c.97 13.71 3.749 26.86 8.409 39.41 3.53 9.35 7.81 17.49 12.87 24.43 11.05 16.05 24.4 26.51 40.04 31.35 6.7 1.97 13.46 2.94 20.29 2.94 8.94 0 17.61-1.99 26.02-5.97 8.4-3.98 17.08-10.83 26.02-20.53.24-.46.53-.86.87-1.21 10.34-12.58 18.051-26.86 23.111-42.8 3.99-12.12 6.169-24.381 6.52-36.72 0-9.241-.661-17.57-1.951-24.95zm-191.49 54.93c-.66 2.34-1.709 5.06-4.08 5.57-.089.02-.2 0-.29.02-2.62-.66-5.32-1.26-8.1-1.83l-2.55-.46c-6.34-1.22-12.56-1.99-18.72-2.34-3.84-.16-6.32-.22-7.41-.15-4.04-.04-8.07.15-12.05.57l-1.49.06c.4-.2 1.17-.75 2.28-1.66 1.98-1.46 4.04-2.9 6.15-4.33 6.3-4.46 13.24-8.67 20.83-12.64l1.15-.57c2.48-1.26 4.24-2.06 5.3-2.43l2.08-.88c.97-.36 1.95-.75 2.97-1.19 1.24-.53 2.53-.91 3.77-1.41.57.07 1.13.26 1.68.62 1.46.97 2.33 2.59 3.13 4.15 1.48 2.85 2.95 5.7 4.44 8.53.75 1.42 1.49 2.88 1.73 4.47.25 2.009-.29 4-.82 5.9zm157.99-21.49c-.82 5.9-2.4 12.42-4.77 19.58l-.87 2.59c-1.4 4.27-3.83 9.59-7.23 15.94-3.17 5.66-6.59 10.46-10.23 14.39-7.88 8.78-16.11 13.17-24.69 13.17-12.35 0-23.75-8.6-34.22-25.82a88.465 88.465 0 01-8.47-20.27c-2.48-10.04-3.7-19.87-3.7-29.45 0-6.46.42-12.36 1.24-17.68.82-4.16 1.77-8.31 2.82-12.47 1.88-6.7 4.22-12.47 7.05-17.33.16-.24.31-.46.47-.68l2.09 4.24c1.82 3.56 3.61 7.18 5.35 10.85l8.96 18.85 3.08 6.48.97 2.03 4.3 8.86c1.89 3.6 2.9 5.48 3.01 5.62.11.149.98 1.68 2.62 4.62 1.11 2.32 2.48 3.65 4.15 3.98 1.66.33 3.26.13 4.77-.62 1.99-.97 3.46-2.45 4.44-4.46.87-1.86.98-3.76.33-5.71-.64-1.95-1.28-3.56-1.89-4.86l-2.4-5.84c-2.15-4.911-4.3-9.82-6.45-14.72l-1.33-2.81c-1.22-2.83-2.77-6.23-4.68-10.23a441.27 441.27 0 00-11-21.49c.06.04.11.07.15.09-.84-1.92-2.4-5-4.21-8.44 5.43-4.15 11.11-6.23 17.08-6.23 9.41 0 18.34 2.37 26.81 7.1 8.47 5.42 15.22 13.62 20.291 24.6l.709 1.55c2.35 5.31 3.88 10.52 4.59 15.59 1.06 5.079 1.59 10.46 1.59 16.11-.02 4.43-.26 8.7-.73 12.87z" stroke="#FFF2EA" stroke-width="20" mask="url(#prefix__a)"/><path d="M237.5 208.28l-2.28 2.578 1.594 3.05 7.07 13.53 2.581 4.94 4.632-3.1c26.222-17.553 49.428-38.11 68.628-60.839l.001-.002.066-.077c1.968-2.332 4.922-5.831 5.859-10.134 1.049-4.821-.855-10.809-6.62-13.349l-.012-.005c-4.226-1.849-9.005-1.111-12.41.284l-.007.003-.007.003c-3.398 1.405-6.058 3.584-8.09 5.248l-.078.064-.005.004c-21.942 18.017-42.67 37.161-60.922 57.802z" fill="#013507" stroke="#FFF2EA" stroke-width="10"/><path d="M192.045 329.963c-9.41 0-18.17-2.94-26.28-8.84-6.12-4.71-10.87-10.74-14.29-18.04-7.29-13.79-10.93-28.94-10.93-45.45 0-9.66 1.35-19.28 4.06-28.83.24-.48.42-1.01.53-1.59.95-3.42 2.11-6.77 3.53-10.08 9.29-17.69 22.11-26.53 38.44-26.53 6.7 0 13.29 1.59 19.76 4.78 6.46 3.18 12.11 7.83 16.94 13.97 8.7 11.08 14.22 23.88 16.57 38.38.58 3.78.87 8.14.87 13.09 0 2.83-.18 5.71-.53 8.67-.71 7.67-2.19 14.68-4.41 21.05-2.93 7.43-5.88 13.44-8.81 18.04a54.83 54.83 0 01-13.58 14.5c-7.05 4.58-14.35 6.88-21.87 6.88zm-.71-29.53c.58 0 1.88-.42 3.88-1.24 2-.82 4.83-4.55 8.47-11.14 1.17-1.88 2.17-3.89 3-6.01v-.35c2.11-5.53 3.46-10.43 4.06-14.68l.18-.53c.35-2.01.53-3.94.53-5.84 0-3.65-.24-6.83-.71-9.55-.71-4.84-2.26-9.7-4.68-14.59-2.4-4.89-4.92-8.69-7.5-11.41-5.17-4.47-9.23-6.72-12.16-6.72-3.17 0-6.03 2.88-8.56 8.67-2.53 5.77-4.26 11.96-5.21 18.57-.71 4.13-1.06 8.31-1.06 12.56 0 11.56 2.88 22.64 8.65 33.25 4.35 6 8.05 9.01 11.11 9.01z" fill="#013507"/><path d="M446.595 197.773c-1.53-8.78-3.699-16.53-6.519-23.21-3.53-7.96-7.581-14.85-12.161-20.62-8.36-10.74-17.17-18.32-26.46-22.7-13.53-5.66-27.62-8.49-42.32-8.49-10 0-19.7 1.9-29.1 5.72-.91.46-1.8.97-2.69 1.44-2.02-4.04-4.1-8-6.21-11.89-2.11-3.89-3.949-7.14-5.52-9.79l-1.48-2.72c-2.69-4.62-5.41-9.22-8.1-13.84l-3.31-5.37c-.67-1.26-1.62-2.7-2.8-4.36-.15-.2-.31-.37-.45-.53-.62-1.08-1.569-2.06-2.859-2.94-1.42-1.22-4.951-2.65-8.981.13-4.04 2.79-18.97 22.31-17.01 35.52.02.18.73 4.69 7.08 6.03a8 8 0 001.661.18c1.58 0 2.639-.55 3.299-1.08 1.84-1.5 1.89-3.85 1.89-3.98 0-.07.6-6.45 6.61-16.11.13.27.25.53.4.82l4.62 8.69 1.071 1.97 3.419 6.3 9.96 18.32c.87 1.63 1.69 3.23 2.55 4.86-.2.18-.4.35-.6.53-.22.22-.42.46-.64.68-.16.15-.33.29-.51.46-.15.13-.29.29-.42.44-7.3 7.65-10.71 13.77-14.39 19.25l-1.729 3.12c-1.82 3.03-6.051 11.5-10.121 20.85-3.8 8.73-8.67 19.21-12.909 28.1-1.401 2.87-3.701 7.94-6.901 15.17-.62-1.351-1.15-2.46-1.57-3.32-3.33-6.99-6.79-13.75-10.4-20.31-1.93-3.49-3.6-6.43-5.02-8.8l-1.35-2.45c-2.46-4.16-4.93-8.31-7.39-12.47l-2.75-4.42c3.26-.05 6.77 0 10.6.18 1 .15 6.37.79 9.56-2.08 1.07-.97 2.31-2.74 2.2-5.72.07-1.13-.15-5.44-7.25-7.23-6.17-1.55-40.52-2.03-53.37 6.96-1.71 1.17-4.1 4.71-.93 9.7 1.66 2.63 4.01 3.43 6.06 3.43 1.51 0 2.88-.42 3.75-.88.07-.04 4.61-1.95 13.82-3.25.16.38.33.78.56 1.21 1.27 2.76 1.95 4.2 2 4.36.05.15.89 1.88 2.53 5.17l4.22 7.82.98 1.77 3.13 5.66 4.35 7.91c-1.97.68-3.88 1.849-5.59 3.01-7.1 4.82-14.22 9.619-21.32 14.44-3.79 2.17-8.8 5.409-15.04 9.73-3.92 2.94-6.19 4.58-6.85 4.91l-1.15.91a62.98 62.98 0 00-5.72 4.62c-.95.679-2.19 1.84-3.7 3.49-2.51 2.87-3.62 5.37-3.33 7.45.13.91.36 1.84.67 2.79.47 1.39.78 2.23.95 2.52.16.289.76.84 1.78 1.61l.24.18c1.57.95 3.28 1.52 5.12 1.72 3 .33 7.5.22 13.48-.33 3.46-.29 5.79-.44 7.05-.44 5.24-.26 8.67-.38 10.25-.38 4.92.22 9.01.51 12.27.88 4.48.49 9.58 1.35 15.28 2.61.66.18 1.33.35 2.02.47l9.36 2.23c2.46.64 4.52.68 6.17.13.8-.27 1.47-.68 2.06-1.24.71-.62 1.22-1.32 1.55-2.06.46-.73 1.02-1.72 1.73-3.01l1.75-3.4c3.66-7.72 6.121-12.73 7.391-15.03l5.349-10.54c1.24-2.5 2.51-4.99 3.86-7.43l.071.02c.97 13.71 3.749 26.86 8.409 39.41 3.53 9.35 7.81 17.49 12.87 24.43 11.05 16.05 24.4 26.51 40.04 31.35 6.7 1.97 13.46 2.94 20.29 2.94 8.94 0 17.61-1.99 26.02-5.97 8.4-3.98 17.08-10.83 26.02-20.53.24-.46.53-.86.87-1.21 10.34-12.58 18.051-26.86 23.111-42.8 3.99-12.12 6.169-24.381 6.52-36.72 0-9.241-.661-17.57-1.951-24.95zm-191.49 54.93c-.66 2.34-1.709 5.06-4.08 5.57-.089.02-.2 0-.29.02-2.62-.66-5.32-1.26-8.1-1.83l-2.55-.46c-6.34-1.22-12.56-1.99-18.72-2.34-3.84-.16-6.32-.22-7.41-.15-4.04-.04-8.07.15-12.05.57l-1.49.06c.4-.2 1.17-.75 2.28-1.66 1.98-1.46 4.04-2.9 6.15-4.33 6.3-4.46 13.24-8.67 20.83-12.64l1.15-.57c2.48-1.26 4.24-2.06 5.3-2.43l2.08-.88c.97-.36 1.95-.75 2.97-1.19 1.24-.53 2.53-.91 3.77-1.41.57.07 1.13.26 1.68.62 1.46.97 2.33 2.59 3.13 4.15 1.48 2.85 2.95 5.7 4.44 8.53.75 1.42 1.49 2.88 1.73 4.47.25 2.009-.29 4-.82 5.9zm157.99-21.49c-.82 5.9-2.4 12.42-4.77 19.58l-.87 2.59c-1.4 4.27-3.83 9.59-7.23 15.94-3.17 5.66-6.59 10.46-10.23 14.39-7.88 8.78-16.11 13.17-24.69 13.17-12.35 0-23.75-8.6-34.22-25.82a88.465 88.465 0 01-8.47-20.27c-2.48-10.04-3.7-19.87-3.7-29.45 0-6.46.42-12.36 1.24-17.68.82-4.16 1.77-8.31 2.82-12.47 1.88-6.7 4.22-12.47 7.05-17.33.16-.24.31-.46.47-.68l2.09 4.24c1.82 3.56 3.61 7.18 5.35 10.85l8.96 18.85 3.08 6.48.97 2.03 4.3 8.86c1.89 3.6 2.9 5.48 3.01 5.62.11.149.98 1.68 2.62 4.62 1.11 2.32 2.48 3.65 4.15 3.98 1.66.33 3.26.13 4.77-.62 1.99-.97 3.46-2.45 4.44-4.46.87-1.86.98-3.76.33-5.71-.64-1.95-1.28-3.56-1.89-4.86l-2.4-5.84c-2.15-4.911-4.3-9.82-6.45-14.72l-1.33-2.81c-1.22-2.83-2.77-6.23-4.68-10.23a441.27 441.27 0 00-11-21.49c.06.04.11.07.15.09-.84-1.92-2.4-5-4.21-8.44 5.43-4.15 11.11-6.23 17.08-6.23 9.41 0 18.34 2.37 26.81 7.1 8.47 5.42 15.22 13.62 20.291 24.6l.709 1.55c2.35 5.31 3.88 10.52 4.59 15.59 1.06 5.079 1.59 10.46 1.59 16.11-.02 4.43-.26 8.7-.73 12.87z" fill="#013507"/><path d="M241.245 211.593c18.03-20.39 38.55-39.35 60.35-57.25 2.1-1.72 4.25-3.46 6.91-4.56 2.66-1.09 5.95-1.45 8.51-.33 3.2 1.41 4.39 4.77 3.75 7.71-.64 2.94-2.75 5.55-4.86 8.05-18.88 22.35-41.73 42.6-67.59 59.91l-7.07-13.53z" fill="#013507"/></svg>