<svg width="534" height="386" viewBox="0 0 534 386" fill="none" xmlns="http://www.w3.org/2000/svg">
<path fill-rule="evenodd" clip-rule="evenodd" d="M0.44932 279.556C0.195677 280.432 0.0532919 281.438 0.0356646 282.587C-0.144843 295.092 0.163082 311.526 5.72696 318.506C13.6905 328.501 25.0944 334.202 36.254 339.222C130.744 381.664 235.587 395.553 336.48 379.001C384.984 371.036 429.134 363.294 476.31 348.548C487.682 344.994 502.654 334.155 511.551 325.568C525.915 311.706 531.064 286.057 533.2 264.487C533.562 261.885 533.694 259.288 533.616 256.711V256.65C533.608 256.313 533.593 255.982 533.572 255.648C533.566 255.531 533.559 255.415 533.552 255.299V255.266C533.545 255.16 533.538 255.054 533.53 254.948C533.479 254.191 533.41 253.435 533.324 252.682C533.275 252.248 533.22 251.816 533.159 251.383C533.129 251.173 533.098 250.964 533.065 250.754C532.717 248.493 532.214 246.259 531.573 244.063C531.489 243.761 531.396 243.459 531.301 243.161C531.023 242.266 530.722 241.378 530.399 240.497C529.943 239.255 529.439 238.022 528.894 236.806C528.816 236.632 528.737 236.459 528.657 236.286C522.786 223.535 512.305 212.731 500.466 206.525C480.048 195.827 456.571 195.675 433.976 196.132C305.911 198.713 177.963 214.162 52.7972 244.204C48.686 245.194 44.5748 246.194 40.4636 247.214L39.6414 247.418L39.6413 247.418L39.6272 247.422C37.4146 247.98 35.1489 248.586 32.8788 249.287C32.6661 249.352 32.4534 249.417 32.2405 249.483L32.2405 249.483C32.2175 249.49 32.1945 249.497 32.1715 249.505C31.5585 249.697 30.9452 249.895 30.3328 250.1C30.3281 250.102 30.3233 250.103 30.3186 250.105L30.317 250.105C30.313 250.107 30.3091 250.108 30.3051 250.109C27.7945 250.95 25.2966 251.898 22.8754 252.978C22.4444 253.17 22.016 253.366 21.5905 253.565L21.5904 253.565C21.2908 253.707 20.9912 253.849 20.6972 253.997C20.323 254.181 19.9511 254.368 19.5818 254.559C18.7742 254.974 17.9816 255.408 17.2043 255.86C16.6334 256.191 16.0707 256.532 15.5172 256.883C14.7974 257.339 14.0965 257.805 13.4146 258.293C13.404 258.304 13.3934 258.316 13.3721 258.328L13.2966 258.384C12.3155 259.092 11.3714 259.837 10.471 260.621C10.4186 260.666 10.3663 260.711 10.3141 260.756C10.2929 260.774 10.2743 260.791 10.2557 260.809C10.251 260.813 10.2463 260.818 10.2416 260.822C9.873 261.149 9.51198 261.482 9.15898 261.822C9.15824 261.823 9.1575 261.823 9.15676 261.824C9.14381 261.836 9.13089 261.849 9.11798 261.862C8.35336 262.601 7.62661 263.374 6.94254 264.181C6.80024 264.348 6.66054 264.517 6.52348 264.686C6.52035 264.69 6.51722 264.694 6.51409 264.698C6.51335 264.698 6.51286 264.698 6.51286 264.698C6.4304 264.799 6.34889 264.902 6.26805 265.005C6.07746 265.247 5.89062 265.492 5.70765 265.739C5.70706 265.74 5.70647 265.741 5.70588 265.742C5.6502 265.816 5.59531 265.892 5.5408 265.968C5.41562 266.141 5.29233 266.315 5.17095 266.491C5.15115 266.519 5.13126 266.547 5.11127 266.575L5.11113 266.575C5.03685 266.68 4.96257 266.786 4.88829 266.903L4.888 266.903C4.67573 267.232 4.46347 267.56 4.26182 267.888C4.14704 268.081 4.03424 268.276 3.92257 268.473C3.81983 268.653 3.71899 268.834 3.62009 269.016C3.57559 269.098 3.53115 269.179 3.4867 269.261C3.31681 269.578 3.15754 269.906 2.99827 270.235C2.98873 270.256 2.97704 270.279 2.96416 270.305C2.9484 270.337 2.93086 270.372 2.91333 270.41L2.91275 270.412C2.87181 270.502 2.83087 270.593 2.78992 270.683C2.75741 270.755 2.72519 270.826 2.69325 270.898C2.61796 271.066 2.54266 271.235 2.46737 271.408C2.26562 271.9 2.0745 272.405 1.88337 272.921C1.76657 273.261 1.66039 273.589 1.55421 273.941C1.54351 273.977 1.53281 274.012 1.5222 274.047C1.49335 274.141 1.46514 274.233 1.43933 274.327C1.42574 274.374 1.41227 274.421 1.39891 274.467C1.39706 274.471 1.39609 274.475 1.39556 274.479C1.37928 274.536 1.36316 274.594 1.34721 274.651C1.29618 274.826 1.24981 275.004 1.2053 275.183C1.15121 275.393 1.09938 275.606 1.04982 275.82C0.96025 276.195 0.878819 276.572 0.810946 276.956C0.645642 277.821 0.526091 278.688 0.44932 279.556Z" fill="#FFF2EA"/>
<path d="M20.9253 314.02C28.4253 322.54 39.1653 327.4 49.6753 331.68C138.665 367.86 237.405 379.7 332.425 365.59C378.105 358.8 419.685 352.2 464.115 339.63C474.825 336.6 488.925 327.36 497.305 320.04C511.695 307.47 516.265 283.53 518.045 264.5C393.645 288.72 264.575 316 139.125 297.96C110.985 293.91 83.1753 287.74 54.8953 284.61C47.1853 283.76 15.8353 267.47 15.5653 283.4C15.3953 294.06 15.6853 308.07 20.9253 314.02Z" fill="#013507"/>
<path d="M517.455 269.34C514.705 283.54 504.245 294.11 491.805 302.22C490.485 303.08 489.155 303.91 487.795 304.71C483.525 307.25 479.105 309.53 474.745 311.59C428.085 333.66 365.475 353.95 313.165 346.72C261.265 339.55 208.655 344.84 156.185 338.33C121.845 334.08 87.8455 327.04 54.6455 317.27C45.0255 314.44 35.2255 311.25 27.4355 304.93C26.5755 304.23 25.7555 303.49 24.9555 302.7C22.8355 300.6 20.9655 298.2 19.4855 295.61C16.4955 290.4 15.0755 284.43 16.2955 278.6C19.0255 265.53 32.5155 258.97 45.8955 255.18C48.2455 254.52 50.5855 253.94 52.8655 253.42C56.9955 252.49 61.1255 251.58 65.2555 250.68C183.135 225.07 303.635 211.9 424.245 209.7C445.525 209.31 467.635 209.44 486.865 218.56C498.015 223.85 507.885 233.06 513.415 243.93C514.015 245.11 514.565 246.31 515.055 247.52C517.855 254.43 518.905 261.88 517.455 269.34Z" fill="#2B8354"/>
<path d="M515.056 247.52C487.316 245.88 459.585 244.12 432.065 243.21C364.805 240.99 297.466 243.98 230.266 246.98C168.816 249.71 107.366 252.45 45.9055 255.18C48.2455 254.51 50.5855 253.94 52.8655 253.42C56.9955 252.49 61.1255 251.58 65.2555 250.68C122.586 247.15 179.916 243.63 237.246 240.1C291.666 236.75 346.206 233.4 400.676 235.89C438.036 237.59 475.876 241.98 513.416 243.93C514.016 245.11 514.566 246.31 515.056 247.52Z" fill="#013507"/>
<path d="M518.105 262.53C518.105 264.79 517.895 267.06 517.455 269.34C517.245 270.45 516.975 271.53 516.665 272.59C516.575 272.94 516.465 273.29 516.355 273.63C516.355 273.64 516.355 273.64 516.355 273.65C516.205 274.11 516.055 274.56 515.885 275.01C515.885 275.02 515.875 275.03 515.875 275.03C515.745 275.41 515.605 275.78 515.455 276.15C515.355 276.42 515.245 276.69 515.125 276.95C514.985 277.28 514.845 277.61 514.695 277.94C514.535 278.29 514.375 278.64 514.195 278.99C514.195 279 514.195 279.02 514.185 279.03C513.995 279.42 513.795 279.8 513.595 280.18C512.925 281.44 512.195 282.66 511.405 283.84C511.165 284.21 510.925 284.57 510.665 284.92C510.465 285.21 510.265 285.49 510.055 285.77C509.985 285.88 509.905 285.99 509.825 286.09C509.585 286.41 509.345 286.72 509.095 287.03C508.835 287.37 508.565 287.7 508.295 288.03C508.265 288.06 508.245 288.09 508.225 288.11C507.965 288.42 507.715 288.72 507.445 289.02C507.405 289.07 507.365 289.12 507.325 289.16C507.065 289.46 506.795 289.76 506.515 290.06C505.595 291.07 504.635 292.04 503.645 292.99C503.295 293.32 502.955 293.64 502.595 293.96C502.225 294.3 501.855 294.63 501.475 294.96C501.105 295.29 500.715 295.62 500.335 295.94C500.085 296.15 499.835 296.36 499.575 296.57C499.235 296.85 498.895 297.12 498.555 297.39C498.195 297.67 497.835 297.96 497.475 298.23C497.105 298.51 496.735 298.79 496.365 299.06C494.885 300.15 493.355 301.21 491.805 302.22C490.485 303.08 489.155 303.91 487.795 304.71C451.735 301.49 415.395 300.19 379.205 299.02H379.165C301.445 297.23 223.705 295.45 145.965 293.66C125.215 293.18 104.165 292.75 83.1455 292.89C63.2855 294.42 43.7455 297.37 24.9555 302.7C22.8355 300.6 20.9655 298.2 19.4855 295.61C19.1955 295.12 18.9355 294.62 18.6755 294.11C18.4255 293.61 18.1955 293.09 17.9655 292.58C17.8555 292.32 17.7455 292.06 17.6455 291.8C17.5355 291.54 17.4355 291.28 17.3455 291.01C17.3355 291 17.3355 290.99 17.3255 290.97C17.1455 290.46 16.9755 289.94 16.8255 289.42C16.7455 289.15 16.6755 288.88 16.6055 288.61C16.5355 288.34 16.4655 288.07 16.4055 287.8C16.2955 287.3 16.2055 286.79 16.1255 286.29C16.1155 286.19 16.0955 286.1 16.0855 286.01C16.0555 285.81 16.0255 285.61 16.0055 285.41C15.9655 285.08 15.9355 284.74 15.9055 284.41C15.8955 284.17 15.8855 283.93 15.8755 283.69C15.8655 283.42 15.8555 283.14 15.8555 282.87C15.8555 281.45 15.9955 280.02 16.2955 278.6C16.3755 278.19 16.4755 277.79 16.5855 277.39C16.6655 277.09 16.7455 276.79 16.8455 276.5C16.8455 276.49 16.8455 276.48 16.8555 276.47C16.8955 276.32 16.9455 276.18 16.9955 276.03C17.0955 275.73 17.1955 275.45 17.3055 275.16C17.4855 274.72 17.6655 274.29 17.8555 273.87C17.9955 273.58 18.1355 273.3 18.2755 273.02C18.3055 272.96 18.3355 272.91 18.3555 272.87C18.5055 272.59 18.6555 272.31 18.8155 272.04C19.0555 271.64 19.2955 271.25 19.5455 270.87C19.7355 270.59 19.9355 270.31 20.1355 270.03C20.2055 269.93 20.2755 269.84 20.3455 269.75C20.5355 269.51 20.7155 269.27 20.9055 269.04C21.1555 268.74 21.4055 268.44 21.6655 268.15C21.6655 268.15 21.6755 268.15 21.6755 268.14C21.9355 267.85 22.2055 267.56 22.4855 267.28C22.7555 267 23.0455 266.72 23.3355 266.45C23.6055 266.2 23.8755 265.95 24.1555 265.7C24.1755 265.69 24.1955 265.67 24.2255 265.64C24.5255 265.39 24.8255 265.13 25.1355 264.88C25.1755 264.85 25.2055 264.82 25.2455 264.79C25.8455 264.32 26.4655 263.85 27.1055 263.41C27.4455 263.18 27.7855 262.95 28.1255 262.72C28.1455 262.71 28.1555 262.7 28.1655 262.69C28.8455 262.25 29.5455 261.83 30.2655 261.42C31.7255 260.59 33.2455 259.82 34.8255 259.12C35.1655 258.96 35.5155 258.81 35.8655 258.66C37.7255 257.87 39.6455 257.15 41.5855 256.51C41.9255 256.39 42.2655 256.28 42.6155 256.17C43.1055 256.01 43.5955 255.86 44.0855 255.71C44.6855 255.53 45.2955 255.35 45.8955 255.18H45.9055C107.365 252.45 168.815 249.71 230.265 246.98C297.465 243.98 364.805 240.99 432.065 243.21C459.585 244.12 487.315 245.88 515.055 247.52C515.325 248.19 515.575 248.86 515.815 249.54C515.945 249.9 516.076 250.27 516.185 250.64C516.835 252.66 517.325 254.72 517.655 256.8C517.765 257.51 517.855 258.22 517.925 258.94C517.965 259.33 517.995 259.72 518.025 260.11V260.19C518.055 260.56 518.075 260.92 518.085 261.29V261.36C518.095 261.75 518.105 262.14 518.105 262.53Z" fill="#FFF2EA"/>
<path d="M258.835 282.99C341.833 282.99 409.115 278.71 409.115 273.43C409.115 268.15 341.833 263.87 258.835 263.87C175.838 263.87 108.555 268.15 108.555 273.43C108.555 278.71 175.838 282.99 258.835 282.99Z" fill="#013507"/>
<path d="M134.769 259.126L134.716 259.085C127.956 253.882 122.733 247.242 118.999 239.314C111.343 224.789 107.545 208.865 107.545 191.633C107.545 181.501 108.962 171.422 111.795 161.438L111.923 160.986L112.133 160.566C112.16 160.513 112.196 160.424 112.223 160.281L112.262 160.076L112.318 159.874C113.324 156.252 114.557 152.69 116.07 149.161L116.148 148.981L116.239 148.808C126.163 129.91 140.471 119.603 159.105 119.603C166.626 119.603 173.968 121.394 181.074 124.897L134.769 259.126ZM134.769 259.126L134.824 259.166M134.769 259.126L134.824 259.166M134.824 259.166C143.732 265.646 153.51 268.963 164.045 268.963C172.646 268.963 180.879 266.317 188.639 261.275L188.768 261.192L188.892 261.1C194.775 256.742 199.732 251.458 203.701 245.287L203.707 245.278L203.713 245.269C206.869 240.314 209.954 233.992 212.957 226.377L212.994 226.283L213.027 226.188C215.389 219.41 216.943 212.018 217.688 204.016C218.054 200.901 218.245 197.845 218.245 194.823C218.245 189.688 217.945 185.065 217.318 180.974L217.314 180.953L217.311 180.933C214.832 165.637 208.985 152.041 199.738 140.265L199.735 140.261M134.824 259.166L199.735 140.261M199.735 140.261C194.48 133.58 188.257 128.433 181.075 124.897L199.735 140.261ZM171.44 219.411L171.372 219.521L171.309 219.635C169.544 222.83 168.059 225.176 166.854 226.761C165.751 228.212 165.203 228.589 165.214 228.606C165.215 228.607 165.218 228.607 165.223 228.605C164.329 228.97 163.67 229.213 163.217 229.359C163.194 229.366 163.173 229.373 163.152 229.379C162.878 229.284 162.31 229.022 161.415 228.295C160.08 227.211 158.425 225.423 156.463 222.748C151.178 212.927 148.575 202.759 148.575 192.173C148.575 188.199 148.902 184.303 149.563 180.46L149.575 180.392L149.585 180.324C150.475 174.129 152.088 168.378 154.425 163.05L154.427 163.045C155.566 160.437 156.616 158.886 157.441 158.052C157.833 157.655 158.108 157.489 158.244 157.423C158.36 157.368 158.399 157.373 158.405 157.373C158.667 157.373 159.547 157.503 161.226 158.432C162.8 159.302 164.753 160.693 167.101 162.708C169.179 164.946 171.377 168.223 173.577 172.705L173.58 172.713L173.584 172.72C175.794 177.186 177.172 181.545 177.798 185.818L177.808 185.881L177.818 185.944C178.228 188.314 178.455 191.199 178.455 194.643C178.455 196.112 178.326 197.634 178.062 199.255L178.011 199.405L177.86 199.849L177.795 200.314C177.262 204.088 176.035 208.614 174.014 213.91L173.685 214.771V215.065C173.036 216.6 172.287 218.051 171.44 219.411ZM162.803 229.477C162.802 229.477 162.809 229.475 162.825 229.472C162.823 229.473 162.821 229.473 162.82 229.473C162.809 229.476 162.804 229.477 162.803 229.477Z" fill="#013507" stroke="#FFF2EA" stroke-width="10"/>
<mask id="path-8-outside-1" maskUnits="userSpaceOnUse" x="136.95" y="0" width="294" height="274" fill="black">
<rect fill="white" x="136.95" width="294" height="274"/>
<path d="M418.595 131.773C417.065 122.993 414.896 115.243 412.076 108.563C408.546 100.603 404.495 93.7125 399.915 87.9425C391.555 77.2025 382.745 69.6225 373.455 65.2425C359.925 59.5825 345.835 56.7525 331.135 56.7525C321.135 56.7525 311.435 58.6525 302.035 62.4725C301.125 62.9325 300.235 63.4425 299.345 63.9125C297.325 59.8725 295.245 55.9125 293.135 52.0225C291.025 48.1325 289.186 44.8825 287.615 42.2325L286.135 39.5125C283.445 34.8925 280.725 30.2925 278.035 25.6725L274.725 20.3025C274.055 19.0425 273.105 17.6025 271.925 15.9425C271.775 15.7425 271.615 15.5725 271.475 15.4125C270.855 14.3325 269.906 13.3525 268.616 12.4725C267.196 11.2525 263.665 9.82251 259.635 12.6025C255.595 15.3925 240.665 34.9125 242.625 48.1225C242.645 48.3025 243.355 52.8125 249.705 54.1525C250.326 54.2825 250.866 54.3325 251.366 54.3325C252.946 54.3325 254.005 53.7825 254.665 53.2525C256.505 51.7525 256.555 49.4025 256.555 49.2725C256.555 49.2025 257.155 42.8225 263.165 33.1625C263.295 33.4325 263.415 33.6925 263.565 33.9825L268.185 42.6725L269.256 44.6425L272.675 50.9425L282.635 69.2625C283.505 70.8925 284.325 72.4925 285.185 74.1225C284.985 74.3025 284.785 74.4725 284.585 74.6525C284.365 74.8725 284.165 75.1125 283.945 75.3325C283.785 75.4825 283.615 75.6225 283.435 75.7925C283.285 75.9225 283.145 76.0825 283.015 76.2325C275.715 83.8825 272.305 90.0025 268.625 95.4825L266.896 98.6025C265.076 101.633 260.845 110.103 256.775 119.453C252.975 128.183 248.105 138.663 243.866 147.553C242.465 150.423 240.165 155.493 236.965 162.723C236.345 161.372 235.815 160.263 235.395 159.403C232.065 152.413 228.605 145.653 224.995 139.093C223.065 135.603 221.395 132.663 219.975 130.293L218.625 127.843C216.165 123.683 213.695 119.533 211.235 115.373L208.485 110.953C211.745 110.903 215.255 110.953 219.085 111.133C220.085 111.283 225.455 111.923 228.645 109.053C229.715 108.083 230.955 106.313 230.845 103.333C230.915 102.203 230.695 97.8925 223.595 96.1025C217.425 94.5525 183.075 94.0725 170.225 103.063C168.515 104.233 166.125 107.773 169.295 112.763C170.955 115.393 173.305 116.193 175.355 116.193C176.865 116.193 178.235 115.773 179.105 115.313C179.175 115.273 183.715 113.363 192.925 112.063C193.085 112.443 193.255 112.843 193.485 113.273C194.755 116.033 195.435 117.473 195.485 117.633C195.535 117.783 196.375 119.513 198.015 122.803L202.235 130.623L203.215 132.393L206.345 138.053L210.695 145.963C208.725 146.643 206.815 147.812 205.105 148.973C198.005 153.793 190.885 158.592 183.785 163.413C179.995 165.583 174.985 168.822 168.745 173.143C164.825 176.083 162.555 177.723 161.895 178.053L160.745 178.963C158.705 180.423 156.795 181.973 155.025 183.583C154.075 184.262 152.835 185.423 151.325 187.073C148.815 189.943 147.705 192.443 147.995 194.523C148.125 195.433 148.355 196.363 148.665 197.313C149.135 198.703 149.445 199.543 149.615 199.833C149.775 200.122 150.375 200.673 151.395 201.443L151.635 201.623C153.205 202.573 154.915 203.143 156.755 203.343C159.755 203.673 164.255 203.563 170.235 203.013C173.695 202.723 176.025 202.573 177.285 202.573C182.525 202.313 185.955 202.193 187.535 202.193C192.455 202.413 196.545 202.703 199.805 203.073C204.285 203.563 209.385 204.423 215.085 205.683C215.745 205.863 216.415 206.033 217.105 206.153L226.465 208.383C228.925 209.023 230.985 209.063 232.635 208.513C233.435 208.243 234.105 207.833 234.695 207.273C235.405 206.653 235.915 205.953 236.245 205.213C236.705 204.483 237.265 203.493 237.975 202.203L239.725 198.803C243.385 191.083 245.846 186.073 247.116 183.773L252.465 173.233C253.705 170.733 254.975 168.243 256.325 165.803L256.396 165.823C257.366 179.533 260.145 192.683 264.805 205.233C268.335 214.583 272.615 222.723 277.675 229.663C288.725 245.713 302.075 256.173 317.715 261.013C324.415 262.983 331.175 263.953 338.005 263.953C346.945 263.953 355.615 261.963 364.025 257.983C372.425 254.003 381.105 247.153 390.045 237.453C390.285 236.993 390.575 236.593 390.915 236.243C401.255 223.663 408.966 209.383 414.026 193.443C418.016 181.323 420.195 169.062 420.546 156.723C420.546 147.482 419.885 139.153 418.595 131.773ZM227.105 186.703C226.445 189.043 225.396 191.763 223.025 192.273C222.936 192.293 222.825 192.273 222.735 192.293C220.115 191.633 217.415 191.033 214.635 190.463L212.085 190.003C205.745 188.783 199.525 188.013 193.365 187.663C189.525 187.503 187.045 187.443 185.955 187.513C181.915 187.473 177.885 187.663 173.905 188.083L172.415 188.143C172.815 187.943 173.585 187.393 174.695 186.483C176.675 185.023 178.735 183.583 180.845 182.153C187.145 177.693 194.085 173.483 201.675 169.513L202.825 168.943C205.305 167.683 207.065 166.883 208.125 166.513L210.205 165.633C211.175 165.273 212.155 164.883 213.175 164.443C214.415 163.913 215.705 163.533 216.945 163.033C217.515 163.103 218.075 163.293 218.625 163.653C220.085 164.623 220.955 166.243 221.755 167.803C223.235 170.653 224.705 173.503 226.195 176.333C226.945 177.753 227.685 179.213 227.925 180.803C228.175 182.812 227.635 184.803 227.105 186.703ZM385.095 165.213C384.275 171.113 382.695 177.633 380.325 184.793L379.455 187.383C378.055 191.653 375.625 196.973 372.225 203.323C369.055 208.983 365.635 213.783 361.995 217.713C354.115 226.493 345.885 230.883 337.305 230.883C324.955 230.883 313.555 222.283 303.085 205.063C299.445 198.713 296.615 191.953 294.615 184.793C292.135 174.753 290.915 164.923 290.915 155.343C290.915 148.883 291.335 142.983 292.155 137.663C292.975 133.503 293.925 129.353 294.975 125.193C296.855 118.493 299.195 112.723 302.025 107.863C302.185 107.623 302.335 107.403 302.495 107.183L304.585 111.423C306.405 114.983 308.195 118.603 309.935 122.273L318.895 141.123L321.975 147.603L322.945 149.633L327.245 158.493C329.135 162.093 330.145 163.973 330.255 164.113C330.365 164.262 331.235 165.793 332.875 168.733C333.985 171.053 335.355 172.383 337.025 172.713C338.685 173.043 340.285 172.843 341.795 172.093C343.785 171.123 345.255 169.643 346.235 167.633C347.105 165.773 347.215 163.873 346.565 161.923C345.925 159.973 345.285 158.363 344.675 157.063L342.275 151.223C340.125 146.312 337.975 141.403 335.825 136.503L334.495 133.693C333.275 130.863 331.725 127.463 329.815 123.463C326.405 116.323 322.735 109.143 318.815 101.973C318.875 102.013 318.925 102.043 318.965 102.063C318.125 100.143 316.565 97.0625 314.755 93.6225C320.185 89.4725 325.865 87.3925 331.835 87.3925C341.245 87.3925 350.175 89.7625 358.645 94.4925C367.115 99.9125 373.865 108.113 378.936 119.093L379.645 120.643C381.995 125.953 383.525 131.163 384.235 136.233C385.295 141.312 385.825 146.693 385.825 152.343C385.805 156.773 385.565 161.043 385.095 165.213Z"/>
</mask>
<path d="M418.595 131.773C417.065 122.993 414.896 115.243 412.076 108.563C408.546 100.603 404.495 93.7125 399.915 87.9425C391.555 77.2025 382.745 69.6225 373.455 65.2425C359.925 59.5825 345.835 56.7525 331.135 56.7525C321.135 56.7525 311.435 58.6525 302.035 62.4725C301.125 62.9325 300.235 63.4425 299.345 63.9125C297.325 59.8725 295.245 55.9125 293.135 52.0225C291.025 48.1325 289.186 44.8825 287.615 42.2325L286.135 39.5125C283.445 34.8925 280.725 30.2925 278.035 25.6725L274.725 20.3025C274.055 19.0425 273.105 17.6025 271.925 15.9425C271.775 15.7425 271.615 15.5725 271.475 15.4125C270.855 14.3325 269.906 13.3525 268.616 12.4725C267.196 11.2525 263.665 9.82251 259.635 12.6025C255.595 15.3925 240.665 34.9125 242.625 48.1225C242.645 48.3025 243.355 52.8125 249.705 54.1525C250.326 54.2825 250.866 54.3325 251.366 54.3325C252.946 54.3325 254.005 53.7825 254.665 53.2525C256.505 51.7525 256.555 49.4025 256.555 49.2725C256.555 49.2025 257.155 42.8225 263.165 33.1625C263.295 33.4325 263.415 33.6925 263.565 33.9825L268.185 42.6725L269.256 44.6425L272.675 50.9425L282.635 69.2625C283.505 70.8925 284.325 72.4925 285.185 74.1225C284.985 74.3025 284.785 74.4725 284.585 74.6525C284.365 74.8725 284.165 75.1125 283.945 75.3325C283.785 75.4825 283.615 75.6225 283.435 75.7925C283.285 75.9225 283.145 76.0825 283.015 76.2325C275.715 83.8825 272.305 90.0025 268.625 95.4825L266.896 98.6025C265.076 101.633 260.845 110.103 256.775 119.453C252.975 128.183 248.105 138.663 243.866 147.553C242.465 150.423 240.165 155.493 236.965 162.723C236.345 161.372 235.815 160.263 235.395 159.403C232.065 152.413 228.605 145.653 224.995 139.093C223.065 135.603 221.395 132.663 219.975 130.293L218.625 127.843C216.165 123.683 213.695 119.533 211.235 115.373L208.485 110.953C211.745 110.903 215.255 110.953 219.085 111.133C220.085 111.283 225.455 111.923 228.645 109.053C229.715 108.083 230.955 106.313 230.845 103.333C230.915 102.203 230.695 97.8925 223.595 96.1025C217.425 94.5525 183.075 94.0725 170.225 103.063C168.515 104.233 166.125 107.773 169.295 112.763C170.955 115.393 173.305 116.193 175.355 116.193C176.865 116.193 178.235 115.773 179.105 115.313C179.175 115.273 183.715 113.363 192.925 112.063C193.085 112.443 193.255 112.843 193.485 113.273C194.755 116.033 195.435 117.473 195.485 117.633C195.535 117.783 196.375 119.513 198.015 122.803L202.235 130.623L203.215 132.393L206.345 138.053L210.695 145.963C208.725 146.643 206.815 147.812 205.105 148.973C198.005 153.793 190.885 158.592 183.785 163.413C179.995 165.583 174.985 168.822 168.745 173.143C164.825 176.083 162.555 177.723 161.895 178.053L160.745 178.963C158.705 180.423 156.795 181.973 155.025 183.583C154.075 184.262 152.835 185.423 151.325 187.073C148.815 189.943 147.705 192.443 147.995 194.523C148.125 195.433 148.355 196.363 148.665 197.313C149.135 198.703 149.445 199.543 149.615 199.833C149.775 200.122 150.375 200.673 151.395 201.443L151.635 201.623C153.205 202.573 154.915 203.143 156.755 203.343C159.755 203.673 164.255 203.563 170.235 203.013C173.695 202.723 176.025 202.573 177.285 202.573C182.525 202.313 185.955 202.193 187.535 202.193C192.455 202.413 196.545 202.703 199.805 203.073C204.285 203.563 209.385 204.423 215.085 205.683C215.745 205.863 216.415 206.033 217.105 206.153L226.465 208.383C228.925 209.023 230.985 209.063 232.635 208.513C233.435 208.243 234.105 207.833 234.695 207.273C235.405 206.653 235.915 205.953 236.245 205.213C236.705 204.483 237.265 203.493 237.975 202.203L239.725 198.803C243.385 191.083 245.846 186.073 247.116 183.773L252.465 173.233C253.705 170.733 254.975 168.243 256.325 165.803L256.396 165.823C257.366 179.533 260.145 192.683 264.805 205.233C268.335 214.583 272.615 222.723 277.675 229.663C288.725 245.713 302.075 256.173 317.715 261.013C324.415 262.983 331.175 263.953 338.005 263.953C346.945 263.953 355.615 261.963 364.025 257.983C372.425 254.003 381.105 247.153 390.045 237.453C390.285 236.993 390.575 236.593 390.915 236.243C401.255 223.663 408.966 209.383 414.026 193.443C418.016 181.323 420.195 169.062 420.546 156.723C420.546 147.482 419.885 139.153 418.595 131.773ZM227.105 186.703C226.445 189.043 225.396 191.763 223.025 192.273C222.936 192.293 222.825 192.273 222.735 192.293C220.115 191.633 217.415 191.033 214.635 190.463L212.085 190.003C205.745 188.783 199.525 188.013 193.365 187.663C189.525 187.503 187.045 187.443 185.955 187.513C181.915 187.473 177.885 187.663 173.905 188.083L172.415 188.143C172.815 187.943 173.585 187.393 174.695 186.483C176.675 185.023 178.735 183.583 180.845 182.153C187.145 177.693 194.085 173.483 201.675 169.513L202.825 168.943C205.305 167.683 207.065 166.883 208.125 166.513L210.205 165.633C211.175 165.273 212.155 164.883 213.175 164.443C214.415 163.913 215.705 163.533 216.945 163.033C217.515 163.103 218.075 163.293 218.625 163.653C220.085 164.623 220.955 166.243 221.755 167.803C223.235 170.653 224.705 173.503 226.195 176.333C226.945 177.753 227.685 179.213 227.925 180.803C228.175 182.812 227.635 184.803 227.105 186.703ZM385.095 165.213C384.275 171.113 382.695 177.633 380.325 184.793L379.455 187.383C378.055 191.653 375.625 196.973 372.225 203.323C369.055 208.983 365.635 213.783 361.995 217.713C354.115 226.493 345.885 230.883 337.305 230.883C324.955 230.883 313.555 222.283 303.085 205.063C299.445 198.713 296.615 191.953 294.615 184.793C292.135 174.753 290.915 164.923 290.915 155.343C290.915 148.883 291.335 142.983 292.155 137.663C292.975 133.503 293.925 129.353 294.975 125.193C296.855 118.493 299.195 112.723 302.025 107.863C302.185 107.623 302.335 107.403 302.495 107.183L304.585 111.423C306.405 114.983 308.195 118.603 309.935 122.273L318.895 141.123L321.975 147.603L322.945 149.633L327.245 158.493C329.135 162.093 330.145 163.973 330.255 164.113C330.365 164.262 331.235 165.793 332.875 168.733C333.985 171.053 335.355 172.383 337.025 172.713C338.685 173.043 340.285 172.843 341.795 172.093C343.785 171.123 345.255 169.643 346.235 167.633C347.105 165.773 347.215 163.873 346.565 161.923C345.925 159.973 345.285 158.363 344.675 157.063L342.275 151.223C340.125 146.312 337.975 141.403 335.825 136.503L334.495 133.693C333.275 130.863 331.725 127.463 329.815 123.463C326.405 116.323 322.735 109.143 318.815 101.973C318.875 102.013 318.925 102.043 318.965 102.063C318.125 100.143 316.565 97.0625 314.755 93.6225C320.185 89.4725 325.865 87.3925 331.835 87.3925C341.245 87.3925 350.175 89.7625 358.645 94.4925C367.115 99.9125 373.865 108.113 378.936 119.093L379.645 120.643C381.995 125.953 383.525 131.163 384.235 136.233C385.295 141.312 385.825 146.693 385.825 152.343C385.805 156.773 385.565 161.043 385.095 165.213Z" fill="#013507"/>
<path d="M418.595 131.773C417.065 122.993 414.896 115.243 412.076 108.563C408.546 100.603 404.495 93.7125 399.915 87.9425C391.555 77.2025 382.745 69.6225 373.455 65.2425C359.925 59.5825 345.835 56.7525 331.135 56.7525C321.135 56.7525 311.435 58.6525 302.035 62.4725C301.125 62.9325 300.235 63.4425 299.345 63.9125C297.325 59.8725 295.245 55.9125 293.135 52.0225C291.025 48.1325 289.186 44.8825 287.615 42.2325L286.135 39.5125C283.445 34.8925 280.725 30.2925 278.035 25.6725L274.725 20.3025C274.055 19.0425 273.105 17.6025 271.925 15.9425C271.775 15.7425 271.615 15.5725 271.475 15.4125C270.855 14.3325 269.906 13.3525 268.616 12.4725C267.196 11.2525 263.665 9.82251 259.635 12.6025C255.595 15.3925 240.665 34.9125 242.625 48.1225C242.645 48.3025 243.355 52.8125 249.705 54.1525C250.326 54.2825 250.866 54.3325 251.366 54.3325C252.946 54.3325 254.005 53.7825 254.665 53.2525C256.505 51.7525 256.555 49.4025 256.555 49.2725C256.555 49.2025 257.155 42.8225 263.165 33.1625C263.295 33.4325 263.415 33.6925 263.565 33.9825L268.185 42.6725L269.256 44.6425L272.675 50.9425L282.635 69.2625C283.505 70.8925 284.325 72.4925 285.185 74.1225C284.985 74.3025 284.785 74.4725 284.585 74.6525C284.365 74.8725 284.165 75.1125 283.945 75.3325C283.785 75.4825 283.615 75.6225 283.435 75.7925C283.285 75.9225 283.145 76.0825 283.015 76.2325C275.715 83.8825 272.305 90.0025 268.625 95.4825L266.896 98.6025C265.076 101.633 260.845 110.103 256.775 119.453C252.975 128.183 248.105 138.663 243.866 147.553C242.465 150.423 240.165 155.493 236.965 162.723C236.345 161.372 235.815 160.263 235.395 159.403C232.065 152.413 228.605 145.653 224.995 139.093C223.065 135.603 221.395 132.663 219.975 130.293L218.625 127.843C216.165 123.683 213.695 119.533 211.235 115.373L208.485 110.953C211.745 110.903 215.255 110.953 219.085 111.133C220.085 111.283 225.455 111.923 228.645 109.053C229.715 108.083 230.955 106.313 230.845 103.333C230.915 102.203 230.695 97.8925 223.595 96.1025C217.425 94.5525 183.075 94.0725 170.225 103.063C168.515 104.233 166.125 107.773 169.295 112.763C170.955 115.393 173.305 116.193 175.355 116.193C176.865 116.193 178.235 115.773 179.105 115.313C179.175 115.273 183.715 113.363 192.925 112.063C193.085 112.443 193.255 112.843 193.485 113.273C194.755 116.033 195.435 117.473 195.485 117.633C195.535 117.783 196.375 119.513 198.015 122.803L202.235 130.623L203.215 132.393L206.345 138.053L210.695 145.963C208.725 146.643 206.815 147.812 205.105 148.973C198.005 153.793 190.885 158.592 183.785 163.413C179.995 165.583 174.985 168.822 168.745 173.143C164.825 176.083 162.555 177.723 161.895 178.053L160.745 178.963C158.705 180.423 156.795 181.973 155.025 183.583C154.075 184.262 152.835 185.423 151.325 187.073C148.815 189.943 147.705 192.443 147.995 194.523C148.125 195.433 148.355 196.363 148.665 197.313C149.135 198.703 149.445 199.543 149.615 199.833C149.775 200.122 150.375 200.673 151.395 201.443L151.635 201.623C153.205 202.573 154.915 203.143 156.755 203.343C159.755 203.673 164.255 203.563 170.235 203.013C173.695 202.723 176.025 202.573 177.285 202.573C182.525 202.313 185.955 202.193 187.535 202.193C192.455 202.413 196.545 202.703 199.805 203.073C204.285 203.563 209.385 204.423 215.085 205.683C215.745 205.863 216.415 206.033 217.105 206.153L226.465 208.383C228.925 209.023 230.985 209.063 232.635 208.513C233.435 208.243 234.105 207.833 234.695 207.273C235.405 206.653 235.915 205.953 236.245 205.213C236.705 204.483 237.265 203.493 237.975 202.203L239.725 198.803C243.385 191.083 245.846 186.073 247.116 183.773L252.465 173.233C253.705 170.733 254.975 168.243 256.325 165.803L256.396 165.823C257.366 179.533 260.145 192.683 264.805 205.233C268.335 214.583 272.615 222.723 277.675 229.663C288.725 245.713 302.075 256.173 317.715 261.013C324.415 262.983 331.175 263.953 338.005 263.953C346.945 263.953 355.615 261.963 364.025 257.983C372.425 254.003 381.105 247.153 390.045 237.453C390.285 236.993 390.575 236.593 390.915 236.243C401.255 223.663 408.966 209.383 414.026 193.443C418.016 181.323 420.195 169.062 420.546 156.723C420.546 147.482 419.885 139.153 418.595 131.773ZM227.105 186.703C226.445 189.043 225.396 191.763 223.025 192.273C222.936 192.293 222.825 192.273 222.735 192.293C220.115 191.633 217.415 191.033 214.635 190.463L212.085 190.003C205.745 188.783 199.525 188.013 193.365 187.663C189.525 187.503 187.045 187.443 185.955 187.513C181.915 187.473 177.885 187.663 173.905 188.083L172.415 188.143C172.815 187.943 173.585 187.393 174.695 186.483C176.675 185.023 178.735 183.583 180.845 182.153C187.145 177.693 194.085 173.483 201.675 169.513L202.825 168.943C205.305 167.683 207.065 166.883 208.125 166.513L210.205 165.633C211.175 165.273 212.155 164.883 213.175 164.443C214.415 163.913 215.705 163.533 216.945 163.033C217.515 163.103 218.075 163.293 218.625 163.653C220.085 164.623 220.955 166.243 221.755 167.803C223.235 170.653 224.705 173.503 226.195 176.333C226.945 177.753 227.685 179.213 227.925 180.803C228.175 182.812 227.635 184.803 227.105 186.703ZM385.095 165.213C384.275 171.113 382.695 177.633 380.325 184.793L379.455 187.383C378.055 191.653 375.625 196.973 372.225 203.323C369.055 208.983 365.635 213.783 361.995 217.713C354.115 226.493 345.885 230.883 337.305 230.883C324.955 230.883 313.555 222.283 303.085 205.063C299.445 198.713 296.615 191.953 294.615 184.793C292.135 174.753 290.915 164.923 290.915 155.343C290.915 148.883 291.335 142.983 292.155 137.663C292.975 133.503 293.925 129.353 294.975 125.193C296.855 118.493 299.195 112.723 302.025 107.863C302.185 107.623 302.335 107.403 302.495 107.183L304.585 111.423C306.405 114.983 308.195 118.603 309.935 122.273L318.895 141.123L321.975 147.603L322.945 149.633L327.245 158.493C329.135 162.093 330.145 163.973 330.255 164.113C330.365 164.262 331.235 165.793 332.875 168.733C333.985 171.053 335.355 172.383 337.025 172.713C338.685 173.043 340.285 172.843 341.795 172.093C343.785 171.123 345.255 169.643 346.235 167.633C347.105 165.773 347.215 163.873 346.565 161.923C345.925 159.973 345.285 158.363 344.675 157.063L342.275 151.223C340.125 146.312 337.975 141.403 335.825 136.503L334.495 133.693C333.275 130.863 331.725 127.463 329.815 123.463C326.405 116.323 322.735 109.143 318.815 101.973C318.875 102.013 318.925 102.043 318.965 102.063C318.125 100.143 316.565 97.0625 314.755 93.6225C320.185 89.4725 325.865 87.3925 331.835 87.3925C341.245 87.3925 350.175 89.7625 358.645 94.4925C367.115 99.9125 373.865 108.113 378.936 119.093L379.645 120.643C381.995 125.953 383.525 131.163 384.235 136.233C385.295 141.312 385.825 146.693 385.825 152.343C385.805 156.773 385.565 161.043 385.095 165.213Z" stroke="#FFF2EA" stroke-width="20" mask="url(#path-8-outside-1)"/>
<path d="M209.5 142.28L207.22 144.858L208.814 147.908L215.884 161.438L218.465 166.378L223.097 163.278C249.319 145.725 272.525 125.168 291.725 102.439L291.726 102.437L291.792 102.36C293.76 100.028 296.714 96.5285 297.651 92.226C298.7 87.4053 296.796 81.4169 291.031 78.877L291.019 78.8717C286.793 77.0226 282.014 77.761 278.609 79.1559L278.602 79.1589L278.595 79.162C275.197 80.567 272.537 82.7463 270.505 84.4103L270.427 84.4744L270.422 84.4783C248.48 102.495 227.752 121.639 209.5 142.28Z" fill="#013507" stroke="#FFF2EA" stroke-width="10"/>
<path d="M164.045 263.963C154.635 263.963 145.875 261.023 137.765 255.123C131.645 250.413 126.895 244.383 123.475 237.083C116.185 223.293 112.545 208.143 112.545 191.633C112.545 181.973 113.895 172.353 116.605 162.803C116.845 162.323 117.025 161.793 117.135 161.213C118.085 157.793 119.245 154.443 120.665 151.133C129.955 133.443 142.775 124.603 159.105 124.603C165.805 124.603 172.395 126.193 178.865 129.383C185.325 132.563 190.975 137.213 195.805 143.353C204.505 154.433 210.025 167.233 212.375 181.733C212.955 185.513 213.245 189.873 213.245 194.823C213.245 197.653 213.065 200.533 212.715 203.493C212.005 211.163 210.525 218.173 208.305 224.543C205.375 231.973 202.425 237.983 199.495 242.583C195.855 248.243 191.315 253.083 185.915 257.083C178.865 261.663 171.565 263.963 164.045 263.963ZM163.335 234.433C163.915 234.433 165.215 234.013 167.215 233.193C169.215 232.373 172.045 228.643 175.685 222.053C176.855 220.173 177.855 218.163 178.685 216.043V215.693C180.795 210.163 182.145 205.263 182.745 201.013L182.925 200.483C183.275 198.473 183.455 196.543 183.455 194.643C183.455 190.993 183.215 187.813 182.745 185.093C182.035 180.253 180.485 175.393 178.065 170.503C175.665 165.613 173.145 161.813 170.565 159.093C165.395 154.623 161.335 152.373 158.405 152.373C155.235 152.373 152.375 155.253 149.845 161.043C147.315 166.813 145.585 173.003 144.635 179.613C143.925 183.743 143.575 187.923 143.575 192.173C143.575 203.733 146.455 214.813 152.225 225.423C156.575 231.423 160.275 234.433 163.335 234.433Z" fill="#013507"/>
<path d="M418.595 131.773C417.065 122.993 414.896 115.243 412.076 108.563C408.546 100.603 404.495 93.7125 399.915 87.9425C391.555 77.2025 382.745 69.6225 373.455 65.2425C359.925 59.5825 345.835 56.7525 331.135 56.7525C321.135 56.7525 311.435 58.6525 302.035 62.4725C301.125 62.9325 300.235 63.4425 299.345 63.9125C297.325 59.8725 295.245 55.9125 293.135 52.0225C291.025 48.1325 289.186 44.8825 287.615 42.2325L286.135 39.5125C283.445 34.8925 280.725 30.2925 278.035 25.6725L274.725 20.3025C274.055 19.0425 273.105 17.6025 271.925 15.9425C271.775 15.7425 271.615 15.5725 271.475 15.4125C270.855 14.3325 269.906 13.3525 268.616 12.4725C267.196 11.2525 263.665 9.82251 259.635 12.6025C255.595 15.3925 240.665 34.9125 242.625 48.1225C242.645 48.3025 243.355 52.8125 249.705 54.1525C250.326 54.2825 250.866 54.3325 251.366 54.3325C252.946 54.3325 254.005 53.7825 254.665 53.2525C256.505 51.7525 256.555 49.4025 256.555 49.2725C256.555 49.2025 257.155 42.8225 263.165 33.1625C263.295 33.4325 263.415 33.6925 263.565 33.9825L268.185 42.6725L269.256 44.6425L272.675 50.9425L282.635 69.2625C283.505 70.8925 284.325 72.4925 285.185 74.1225C284.985 74.3025 284.785 74.4725 284.585 74.6525C284.365 74.8725 284.165 75.1125 283.945 75.3325C283.785 75.4825 283.615 75.6225 283.435 75.7925C283.285 75.9225 283.145 76.0825 283.015 76.2325C275.715 83.8825 272.305 90.0025 268.625 95.4825L266.896 98.6025C265.076 101.633 260.845 110.103 256.775 119.453C252.975 128.183 248.105 138.663 243.866 147.553C242.465 150.423 240.165 155.493 236.965 162.723C236.345 161.372 235.815 160.263 235.395 159.403C232.065 152.413 228.605 145.653 224.995 139.093C223.065 135.603 221.395 132.663 219.975 130.293L218.625 127.843C216.165 123.683 213.695 119.533 211.235 115.373L208.485 110.953C211.745 110.903 215.255 110.953 219.085 111.133C220.085 111.283 225.455 111.923 228.645 109.053C229.715 108.083 230.955 106.313 230.845 103.333C230.915 102.203 230.695 97.8925 223.595 96.1025C217.425 94.5525 183.075 94.0725 170.225 103.063C168.515 104.233 166.125 107.773 169.295 112.763C170.955 115.393 173.305 116.193 175.355 116.193C176.865 116.193 178.235 115.773 179.105 115.313C179.175 115.273 183.715 113.363 192.925 112.063C193.085 112.443 193.255 112.843 193.485 113.273C194.755 116.033 195.435 117.473 195.485 117.633C195.535 117.783 196.375 119.513 198.015 122.803L202.235 130.623L203.215 132.393L206.345 138.053L210.695 145.963C208.725 146.643 206.815 147.812 205.105 148.973C198.005 153.793 190.885 158.592 183.785 163.413C179.995 165.583 174.985 168.822 168.745 173.143C164.825 176.083 162.555 177.723 161.895 178.053L160.745 178.963C158.705 180.423 156.795 181.973 155.025 183.583C154.075 184.262 152.835 185.423 151.325 187.073C148.815 189.943 147.705 192.443 147.995 194.523C148.125 195.433 148.355 196.363 148.665 197.313C149.135 198.703 149.445 199.543 149.615 199.833C149.775 200.122 150.375 200.673 151.395 201.443L151.635 201.623C153.205 202.573 154.915 203.143 156.755 203.343C159.755 203.673 164.255 203.563 170.235 203.013C173.695 202.723 176.025 202.573 177.285 202.573C182.525 202.313 185.955 202.193 187.535 202.193C192.455 202.413 196.545 202.703 199.805 203.073C204.285 203.563 209.385 204.423 215.085 205.683C215.745 205.863 216.415 206.033 217.105 206.153L226.465 208.383C228.925 209.023 230.985 209.063 232.635 208.513C233.435 208.243 234.105 207.833 234.695 207.273C235.405 206.653 235.915 205.953 236.245 205.213C236.705 204.483 237.265 203.493 237.975 202.203L239.725 198.803C243.385 191.083 245.846 186.073 247.116 183.773L252.465 173.233C253.705 170.733 254.975 168.243 256.325 165.803L256.396 165.823C257.366 179.533 260.145 192.683 264.805 205.233C268.335 214.583 272.615 222.723 277.675 229.663C288.725 245.713 302.075 256.173 317.715 261.013C324.415 262.983 331.175 263.953 338.005 263.953C346.945 263.953 355.615 261.963 364.025 257.983C372.425 254.003 381.105 247.153 390.045 237.453C390.285 236.993 390.575 236.593 390.915 236.243C401.255 223.663 408.966 209.383 414.026 193.443C418.016 181.323 420.195 169.062 420.546 156.723C420.546 147.482 419.885 139.153 418.595 131.773ZM227.105 186.703C226.445 189.043 225.396 191.763 223.025 192.273C222.936 192.293 222.825 192.273 222.735 192.293C220.115 191.633 217.415 191.033 214.635 190.463L212.085 190.003C205.745 188.783 199.525 188.013 193.365 187.663C189.525 187.503 187.045 187.443 185.955 187.513C181.915 187.473 177.885 187.663 173.905 188.083L172.415 188.143C172.815 187.943 173.585 187.393 174.695 186.483C176.675 185.023 178.735 183.583 180.845 182.153C187.145 177.693 194.085 173.483 201.675 169.513L202.825 168.943C205.305 167.683 207.065 166.883 208.125 166.513L210.205 165.633C211.175 165.273 212.155 164.883 213.175 164.443C214.415 163.913 215.705 163.533 216.945 163.033C217.515 163.103 218.075 163.293 218.625 163.653C220.085 164.623 220.955 166.243 221.755 167.803C223.235 170.653 224.705 173.503 226.195 176.333C226.945 177.753 227.685 179.213 227.925 180.803C228.175 182.812 227.635 184.803 227.105 186.703ZM385.095 165.213C384.275 171.113 382.695 177.633 380.325 184.793L379.455 187.383C378.055 191.653 375.625 196.973 372.225 203.323C369.055 208.983 365.635 213.783 361.995 217.713C354.115 226.493 345.885 230.883 337.305 230.883C324.955 230.883 313.555 222.283 303.085 205.063C299.445 198.713 296.615 191.953 294.615 184.793C292.135 174.753 290.915 164.923 290.915 155.343C290.915 148.883 291.335 142.983 292.155 137.663C292.975 133.503 293.925 129.353 294.975 125.193C296.855 118.493 299.195 112.723 302.025 107.863C302.185 107.623 302.335 107.403 302.495 107.183L304.585 111.423C306.405 114.983 308.195 118.603 309.935 122.273L318.895 141.123L321.975 147.603L322.945 149.633L327.245 158.493C329.135 162.093 330.145 163.973 330.255 164.113C330.365 164.262 331.235 165.793 332.875 168.733C333.985 171.053 335.355 172.383 337.025 172.713C338.685 173.043 340.285 172.843 341.795 172.093C343.785 171.123 345.255 169.643 346.235 167.633C347.105 165.773 347.215 163.873 346.565 161.923C345.925 159.973 345.285 158.363 344.675 157.063L342.275 151.223C340.125 146.312 337.975 141.403 335.825 136.503L334.495 133.693C333.275 130.863 331.725 127.463 329.815 123.463C326.405 116.323 322.735 109.143 318.815 101.973C318.875 102.013 318.925 102.043 318.965 102.063C318.125 100.143 316.565 97.0625 314.755 93.6225C320.185 89.4725 325.865 87.3925 331.835 87.3925C341.245 87.3925 350.175 89.7625 358.645 94.4925C367.115 99.9125 373.865 108.113 378.936 119.093L379.645 120.643C381.995 125.953 383.525 131.163 384.235 136.233C385.295 141.312 385.825 146.693 385.825 152.343C385.805 156.773 385.565 161.043 385.095 165.213Z" fill="#013507"/>
<path d="M213.245 145.593C231.275 125.203 251.795 106.243 273.595 88.3425C275.695 86.6225 277.845 84.8825 280.505 83.7825C283.165 82.6925 286.455 82.3325 289.015 83.4525C292.215 84.8625 293.405 88.2225 292.765 91.1625C292.125 94.1025 290.015 96.7125 287.905 99.2125C269.025 121.563 246.175 141.813 220.315 159.123L213.245 145.593Z" fill="#013507"/>
</svg>
