<svg width="523" height="300" viewBox="0 0 523 300" fill="none" xmlns="http://www.w3.org/2000/svg">
<path fill-rule="evenodd" clip-rule="evenodd" d="M457.214 285.199C481.882 274.777 515.622 260.523 522.463 188.533C522.614 187.227 522.729 185.91 522.806 184.589C522.846 184.085 522.885 183.578 522.922 183.069C523.021 181.72 523.018 180.467 522.919 179.304C522.764 169.713 520.631 160.256 516.27 153.037C515.104 151.088 513.808 149.358 512.421 147.807C505.503 140.014 496.214 136.723 487.431 133.999C363.18 95.487 234.849 83.9752 108.209 99.9904C87.2249 102.645 65.5425 106.393 47.4891 121.941C40.3596 128.084 33.9468 136.564 29.1142 146.396C24.1417 156.471 20.814 167.96 20.0367 179.781L19.8622 179.768C13.2013 202.862 19.9909 238.501 38.1637 252.587C74.8217 288.485 128.761 292.034 178.181 293.704L258.495 296.416L338.943 299.132C378.183 300.454 418.681 301.558 455.229 286.04C455.878 285.764 456.534 285.487 457.197 285.207L457.214 285.199Z" fill="#FFF2EA"/>
<g clip-path="url(#clip0)">
<path d="M447.177 275.25C412.219 288.967 373.483 287.992 335.951 286.823C284.692 285.224 233.442 283.624 182.184 282.025C134.915 280.549 83.3219 277.411 48.259 245.679C30.8769 233.227 24.3828 201.723 30.7539 181.309C162.631 189.939 293.629 195.519 425.216 183.216C445.367 181.335 514.491 151.905 511.925 184.227C506.406 253.86 471.475 265.715 447.177 275.25Z" fill="#666666"/>
<path d="M510.765 193.427C509.086 201.582 505.817 208.973 501.678 215.458C499.639 218.674 497.381 221.662 494.991 224.413C473.637 249.001 443.776 254.994 415.611 258.808C369.274 265.073 322.681 268.202 276.098 268.176C254.709 268.167 233.214 268.202 211.983 264.986C193.318 262.156 174.582 265.943 155.724 265.073C131.487 263.957 107.339 259.107 83.9547 250.574C66.643 244.247 47.9867 233.411 37.9951 214.975C35.0775 209.614 32.8982 203.604 31.7031 196.872C28.9086 181.186 32.5027 165.105 39.6032 151.809C44.2255 143.118 50.3594 135.622 57.1786 130.191C74.4464 116.447 95.1854 113.134 115.257 110.788C236.386 96.6308 359.133 106.807 477.978 140.851C486.379 143.258 495.263 146.167 501.88 153.057C503.207 154.428 504.446 155.957 505.562 157.679C511.81 167.24 513.278 181.239 510.765 193.427Z" fill="#999999"/>
<path d="M510.765 193.427C509.086 201.582 505.817 208.973 501.678 215.458C466.756 215.423 431.833 220.239 396.911 220.863C303.682 222.541 210.445 221.302 117.216 221.205C90.809 221.179 64.4019 215.001 37.9949 214.975C35.0774 209.614 32.898 203.603 31.7029 196.872C29.506 184.534 31.2635 171.95 35.5695 160.676C36.7295 157.609 38.0828 154.647 39.603 151.809C72.7854 151.106 106.319 152.626 139.37 152.644C223.679 152.696 307.997 150.104 392.306 150.157C400.224 150.157 463.074 153.039 501.88 153.057C503.207 154.428 504.446 155.957 505.562 157.679C506.432 159.006 507.206 160.421 507.882 161.906C512.144 171.098 512.926 182.935 510.765 193.427Z" fill="#666666"/>
<path d="M510.765 193.427C509.086 201.582 505.817 208.973 501.678 215.458C466.756 215.423 431.833 220.239 396.911 220.863C303.682 222.541 210.445 221.302 117.216 221.205C90.809 221.179 64.4019 215.001 37.9949 214.975C35.0774 209.614 32.898 203.604 31.7029 196.872C29.506 184.534 31.2635 171.95 35.5695 160.676C64.9028 160.728 94.3504 161.669 123.473 161.686C217.941 161.739 312.417 159.147 406.885 159.199C414.381 159.199 465.877 161.256 507.882 161.906C512.144 171.098 512.926 182.935 510.765 193.427Z" fill="#CCCCCC"/>
<path d="M86.0812 194.623C105.361 194.64 124.633 194.649 143.913 194.667C143.465 191.002 143.026 187.338 142.577 183.673C129.958 181.485 117.102 180.677 104.307 181.256C100.695 181.415 88.7087 180.545 86.1076 183.137C85.0267 184.192 86.4151 194.623 86.0812 194.623Z" fill="#FFF2EA"/>
<path d="M229.918 194.623C249.199 194.64 268.47 194.649 287.75 194.667C287.302 191.002 286.863 187.338 286.414 183.673C273.795 181.485 260.939 180.677 248.144 181.256C244.532 181.415 232.546 180.545 229.945 183.137C228.873 184.192 230.261 194.623 229.918 194.623Z" fill="white"/>
<path d="M373.764 194.623C393.044 194.64 412.316 194.649 431.596 194.667C431.148 191.002 430.709 187.338 430.26 183.673C417.641 181.485 404.785 180.677 391.99 181.256C388.378 181.415 376.392 180.545 373.791 183.137C372.719 184.192 374.107 194.623 373.764 194.623Z" fill="white"/>
<path opacity="0.7" d="M269.495 212.989C374.705 212.989 459.995 203.139 459.995 190.989C459.995 178.839 374.705 168.989 269.495 168.989C164.285 168.989 78.9949 178.839 78.9949 190.989C78.9949 203.139 164.285 212.989 269.495 212.989Z" fill="#666666"/>
</g>
<path d="M83.2377 110.919C81.5881 114.965 80.33 119.387 77.2266 122.471C74.934 124.745 71.7887 126.098 69.8176 128.651C66.0991 133.451 68.8251 141.683 74.6824 143.315C77.1986 144.013 80.0224 143.678 82.2871 144.975C86.1593 147.194 86.4249 152.9 89.8079 155.802C91.9887 157.658 95.0361 158.006 97.6782 159.136C107.338 163.252 109.113 175.935 115.138 184.515C121.681 193.821 133.94 198.202 145.236 196.779C156.531 195.356 166.75 188.742 174.131 180.092C177.989 175.586 181.33 170.354 186.53 167.494C191.717 164.647 197.923 164.592 203.837 164.606C247.899 164.717 291.948 164.843 336.01 164.954C343 164.968 350.437 165.108 356.308 168.903C360.306 171.484 363.116 175.488 366.303 179.018C376.844 190.724 392.962 197.811 408.604 195.732C424.247 193.653 438.562 181.571 441.469 166.098C442.56 160.308 442.238 153.932 445.565 149.049C446.81 147.208 448.515 145.701 449.647 143.803C453.198 137.818 450.304 129.614 453.799 123.601C455.393 120.866 458.105 118.969 460.132 116.541C464.34 111.491 465.206 103.915 462.257 98.041C459.307 92.1672 452.723 88.3165 446.153 88.6513C443.175 88.8048 440.225 89.7256 437.248 89.4187C433.18 89.0001 429.741 86.3911 426.33 84.1449C416.726 77.8247 405.641 73.7647 394.22 72.4113C387.999 71.6719 381.568 71.6998 375.725 69.4675C362.151 64.2913 355.875 49.0837 346.089 38.3686C339.882 31.5741 332.04 26.4398 323.862 22.1844C296.603 7.98137 270.839 -1.6594 240.155 0.238058C209.47 2.13552 180.855 9.44632 152.519 21.3473C139.252 26.9281 117.319 41.7729 116.76 56.1155C116.299 68.0304 115.32 72.3555 106.681 80.3081C97.2449 88.9862 88.1304 98.92 83.2377 110.919Z" fill="#FFF2EA"/>
<path d="M126.14 64.5413C121.624 76.4563 110.693 84.4926 101.872 93.7008C95.4274 100.426 89.8637 108.197 86.942 117.028C84.0203 125.86 83.9644 135.878 88.0883 144.221C89.8776 147.848 93.8897 151.504 97.4963 149.676C100.25 148.281 100.74 144.667 101.411 141.668C103.284 133.213 109.071 126.069 115.767 120.558C127.733 110.708 144.005 105.114 159.047 108.853C174.089 112.592 186.628 127.172 185.104 142.574C184.699 146.662 183.818 151.769 187.271 154.001C188.767 154.964 190.654 155.006 192.429 155.02C212.21 155.145 231.977 155.271 251.757 155.396C256.804 155.424 261.836 155.466 266.883 155.494C294.604 155.675 322.338 155.843 350.059 156.024C353.624 156.052 357.734 155.829 359.929 153.024C361.173 151.434 361.508 149.327 361.928 147.346C365.534 130.004 373.377 114.685 396.149 109.969C410.659 106.955 428.273 119.038 431.376 131.05C431.991 133.408 432.439 135.905 433.809 137.914C435.193 139.924 437.989 141.277 440.127 140.077C442.14 138.947 442.574 136.282 442.741 133.98C443.72 121.088 443.273 106.578 434.074 97.4679C429.923 93.3521 424.457 90.8826 419.019 88.7479C402.621 82.2742 385.357 77.977 367.827 76.0098C365.087 75.7029 362.263 75.4238 359.789 74.21C356.392 72.5358 353.959 69.0618 353.54 65.3087C346.313 55.6121 338.988 45.0505 329.733 37.2653C322.129 30.8614 313.378 25.9643 304.403 21.6671C291.025 15.2771 276.892 10.1428 262.158 8.42672C243.747 6.27813 225.141 9.55683 207.038 13.5471C187.495 17.8582 168.05 23.0762 149.863 31.4055C143.055 34.5308 136.275 38.2001 131.354 43.8506C126.433 49.5012 123.861 57.4119 126.14 64.5413Z" fill="#D86C00"/>
<path d="M294.044 33.024C313.406 42.0509 321.486 46.948 331.746 61.8347C332.599 63.0765 333.172 64.6251 332.893 66.118C332.333 69.1735 326.043 70.9872 322.995 71.4895C298.657 75.4797 272.027 76.4006 239.707 74.252C238.896 74.1961 238.113 74.1264 237.344 73.8892C231.068 71.9917 232.508 62.7835 232.508 54.2728C232.508 48.3293 232.633 41.3812 232.508 35.4796C232.13 18.5001 253.407 20.5929 263.136 22.867C273.131 25.197 284.748 28.685 294.044 33.024Z" fill="#FFF2EA"/>
<path d="M175.724 36.9026C163.338 42.9298 149.904 50.1011 144.047 65.0994C143.544 66.383 143.111 67.82 143.39 69.2152C143.977 72.1032 146.969 72.4939 149.303 72.8567C167.966 75.6889 190.053 76.5679 214.447 73.2613C215.062 73.1775 215.649 73.0799 216.222 72.8148C220.891 70.7639 219.339 62.0718 218.92 53.9797C218.626 48.3292 218.473 45.3295 218.389 39.7209C218.193 27.3874 208.687 29.2569 200.523 30.0382C192.681 30.7916 182.937 33.4146 175.724 36.9026Z" fill="#FFF2EA"/>
<path d="M144.327 187.179C138.4 187.179 132.892 185.7 127.79 182.756C123.945 180.398 120.94 177.384 118.801 173.729C114.216 166.837 111.923 159.261 111.923 151.001C111.923 146.174 112.776 141.361 114.481 136.589C114.635 136.352 114.733 136.087 114.817 135.794C115.404 134.078 116.145 132.403 117.039 130.757C122.883 121.912 130.949 117.489 141.238 117.489C145.459 117.489 149.597 118.284 153.665 119.875C157.733 121.465 161.284 123.795 164.317 126.865C169.797 132.403 173.264 138.807 174.746 146.062C175.109 147.946 175.305 150.136 175.305 152.606C175.305 154.015 175.193 155.466 174.969 156.945C174.522 160.782 173.599 164.284 172.188 167.465C170.342 171.176 168.483 174.189 166.638 176.492C164.345 179.324 161.493 181.737 158.097 183.747C153.651 186.021 149.052 187.179 144.327 187.179ZM143.88 172.404C144.243 172.404 145.068 172.194 146.326 171.79C147.584 171.371 149.359 169.516 151.652 166.223C152.393 165.274 153.022 164.284 153.539 163.209V163.028C154.867 160.252 155.72 157.81 156.097 155.689L156.209 155.424C156.433 154.42 156.545 153.443 156.545 152.508C156.545 150.681 156.391 149.09 156.097 147.737C155.65 145.323 154.672 142.881 153.162 140.44C151.638 137.998 150.072 136.087 148.451 134.733C145.194 132.487 142.635 131.371 140.79 131.371C138.791 131.371 137.002 132.822 135.408 135.71C133.815 138.598 132.724 141.695 132.137 145.002C131.69 147.067 131.466 149.16 131.466 151.28C131.466 157.057 133.283 162.595 136.904 167.911C139.616 170.897 141.95 172.404 143.88 172.404Z" fill="#F98E12"/>
<path d="M401.754 187.179C395.827 187.179 390.319 185.7 385.217 182.756C381.373 180.398 378.367 177.384 376.228 173.729C371.643 166.837 369.351 159.261 369.351 151.001C369.351 146.174 370.203 141.361 371.909 136.589C372.063 136.352 372.16 136.087 372.244 135.794C372.831 134.078 373.572 132.403 374.467 130.757C380.31 121.912 388.376 117.489 398.665 117.489C402.887 117.489 407.025 118.284 411.093 119.875C415.161 121.465 418.711 123.795 421.745 126.865C427.225 132.403 430.691 138.807 432.173 146.062C432.537 147.946 432.732 150.136 432.732 152.606C432.732 154.015 432.621 155.466 432.397 156.945C431.95 160.782 431.027 164.284 429.615 167.465C427.77 171.176 425.911 174.189 424.065 176.492C421.773 179.324 418.921 181.737 415.524 183.747C411.079 186.021 406.493 187.179 401.754 187.179ZM401.307 172.404C401.671 172.404 402.495 172.194 403.753 171.79C405.012 171.371 406.787 169.516 409.08 166.223C409.82 165.274 410.45 164.284 410.967 163.209V163.028C412.295 160.252 413.147 157.81 413.525 155.689L413.637 155.424C413.86 154.42 413.972 153.443 413.972 152.508C413.972 150.681 413.819 149.09 413.525 147.737C413.078 145.323 412.099 142.881 410.589 140.44C409.066 137.998 407.5 136.087 405.878 134.733C402.621 132.487 400.063 131.371 398.218 131.371C396.219 131.371 394.429 132.822 392.836 135.71C391.242 138.598 390.152 141.695 389.565 145.002C389.117 147.067 388.894 149.16 388.894 151.28C388.894 157.057 390.711 162.595 394.331 167.911C397.057 170.897 399.392 172.404 401.307 172.404Z" fill="#F98E12"/>
<path d="M242.113 83.0631C240.98 83.5514 239.736 84.5699 240.058 85.7558C240.212 86.3418 240.729 86.7604 241.246 87.0952C243.944 88.8113 247.327 88.9927 250.542 88.9927C254.009 88.9927 257.462 88.8532 260.915 88.5602C262.075 88.4625 263.263 88.3369 264.256 87.737C265.248 87.1371 265.961 85.9232 265.612 84.821C265.206 83.5654 263.725 83.0491 262.425 82.812C256.288 81.6819 247.942 80.5797 242.113 83.0631Z" fill="#F98E12"/>
<path d="M78.7222 138.459C80.3857 139.198 82.231 139.338 84.0483 139.463C88.4797 139.742 94.8682 139.533 97.0629 134.719C98.7824 130.952 95.0779 127.437 91.1218 126.906C87.9904 126.488 82.1471 127.576 79.3512 128.818C74.9058 130.757 73.7036 136.24 78.7222 138.459Z" fill="#D86C00"/>
<path d="M439.596 109.55C440.617 111.629 441.903 113.82 444.07 114.657C446.194 115.494 448.683 114.768 450.528 113.401C455.938 109.355 455.602 101.639 449.172 98.8072C442.797 95.9889 436.8 103.802 439.596 109.55Z" fill="#F98E12"/>
<path d="M425.924 107.904C426.414 109.229 427.826 110.178 429.224 110.039C432.243 109.746 435.179 104.43 431.6 102.825C428.65 101.514 424.792 104.835 425.924 107.904Z" fill="#D86C00"/>
<path d="M44.4935 117.583L44.4938 117.583C45.6794 115.858 47.4673 114.51 49.5398 113.949C52.813 113.059 56.514 114.206 58.7094 116.789L44.4935 117.583ZM44.4935 117.583C43.3266 119.282 43.547 121.44 44.6601 122.982C44.8183 123.202 44.9527 123.483 45.0467 123.791C45.1592 124.166 45.218 124.51 45.2894 124.929C45.3268 125.149 45.3678 125.389 45.4217 125.664C45.5633 126.387 45.7852 127.244 46.3281 128.056L46.3285 128.056M44.4935 117.583L46.3285 128.056M46.3285 128.056C46.7353 128.664 47.3502 129.223 48.1581 129.492C49.2841 129.869 50.2778 129.577 51.0385 129.113C51.7498 128.68 52.3371 128.049 52.7543 127.594C53.1064 127.212 53.4408 126.9 53.7579 126.706C54.0641 126.52 54.2408 126.51 54.3497 126.532C54.5027 126.564 54.6996 126.681 55.0821 127.185C55.1721 127.303 55.2621 127.428 55.3642 127.571L55.3729 127.583C55.4693 127.717 55.5768 127.867 55.6888 128.015C55.9181 128.319 56.2038 128.667 56.5614 128.973L56.5631 128.974M46.3285 128.056L56.5631 128.974M56.5631 128.974C58.2418 130.405 60.9646 130.202 62.4121 128.539L62.4147 128.536M56.5631 128.974L62.4147 128.536M62.4147 128.536C63.2881 127.526 63.4391 126.276 63.2901 125.142M62.4147 128.536L63.2901 125.142M63.2901 125.142C63.1426 124.019 62.6884 122.867 62.1563 121.825M63.2901 125.142L62.1563 121.825M62.1563 121.825C61.088 119.733 59.5381 117.763 58.7098 116.79L62.1563 121.825Z" fill="#013507" stroke="#FFF2EA" stroke-width="2.60446"/>
<path d="M39.4858 98.0371L39.4861 98.0373C40.2318 98.5846 40.7832 99.1755 41.1295 99.8479C41.4836 100.535 41.5736 101.212 41.5452 101.839C41.5195 102.407 41.3922 102.968 41.2885 103.426L41.277 103.476C41.1635 103.977 41.068 104.409 41.0319 104.865C40.9746 105.626 41.0903 108.505 41.4245 110.813L41.4247 110.814C41.6796 112.588 40.7463 114.208 39.2893 115.038L39.2889 115.039C39.1428 115.122 39.024 115.219 38.9407 115.314L38.9349 115.32L38.9348 115.32C38.6824 115.602 38.4762 115.963 38.2488 116.448C38.1894 116.574 38.1233 116.722 38.052 116.882C37.8848 117.255 37.6889 117.693 37.4833 118.072M39.4858 98.0371L36.3382 117.452M39.4858 98.0371C38.4601 97.2847 37.3175 96.8376 36.2861 96.4753C36.044 96.3903 35.8104 96.3105 35.5838 96.2332C34.7958 95.9642 34.0938 95.7245 33.4195 95.3943L33.4189 95.3939M39.4858 98.0371L33.4189 95.3939M37.4833 118.072C37.4831 118.072 37.483 118.073 37.4828 118.073L36.3382 117.452M37.4833 118.072C37.4834 118.072 37.4836 118.072 37.4838 118.071L36.3382 117.452M37.4833 118.072C35.544 121.659 30.9378 123.469 27.0745 122.167L27.0739 122.167C25.0146 121.472 23.3509 119.959 22.3262 118.136L22.3261 118.136C21.8712 117.326 20.7801 117.067 19.9384 117.661L19.9383 117.661C19.4926 117.976 19.0192 118.257 18.5147 118.496M36.3382 117.452C34.701 120.481 30.754 122.033 27.4903 120.933C25.7713 120.353 24.3477 119.075 23.4614 117.498C22.6037 115.971 20.6177 115.587 19.187 116.598C18.799 116.872 18.3898 117.114 17.9555 117.32M18.5147 118.496C18.5147 118.496 18.5148 118.496 18.5148 118.496L17.9555 117.32M18.5147 118.496L17.9555 117.32M18.5147 118.496C16.2259 119.585 13.1827 119.671 10.9665 117.979M17.9555 117.32C15.9874 118.256 13.4889 118.267 11.7556 116.943C10.9513 116.331 10.3925 115.402 10.1683 114.416C9.80169 112.811 8.22502 111.797 6.62344 112.185L2.03055 107.72C0.68766 110.923 3.58072 114.261 6.92969 113.45L6.93 113.45C7.80084 113.239 8.68792 113.783 8.89874 114.706M10.9665 117.979C10.9666 117.979 10.9668 117.979 10.967 117.979L11.7556 116.943L10.9651 117.978C10.9656 117.978 10.966 117.979 10.9665 117.979ZM10.9665 117.979C9.89632 117.164 9.18404 115.959 8.89874 114.706M8.89874 114.706L10.1682 114.416L8.89848 114.705C8.89856 114.705 8.89865 114.706 8.89874 114.706ZM33.4189 95.3939C32.3499 94.8711 31.383 94.1252 30.3739 93.2534M33.4189 95.3939L30.3739 93.2534M30.3739 93.2534C30.0808 93.0001 29.7767 92.7293 29.4641 92.4507M30.3739 93.2534L29.4641 92.4507M29.4641 92.4507C28.7463 91.8112 27.9834 91.1315 27.2049 90.5339M29.4641 92.4507L27.2049 90.5339M27.2049 90.5339C24.9451 88.799 21.4904 87.2193 18.3124 88.5999L27.2049 90.5339ZM8.87744 100.266C10.1104 99.2566 11.1846 98.2663 11.9895 97.0863L8.87744 100.266ZM8.87744 100.266C8.54177 100.541 8.18739 100.822 7.82413 101.111M8.87744 100.266L7.82413 101.111M7.82413 101.111C6.90332 101.842 5.92546 102.618 5.05078 103.449M7.82413 101.111L5.05078 103.449M5.05078 103.449C3.82768 104.61 2.71087 106.096 2.03073 107.72L5.05078 103.449ZM18.3122 88.6C16.3629 89.4465 15.2182 91.0804 14.361 92.6412C14.048 93.2112 13.7499 93.8177 13.4669 94.3934C13.3648 94.6011 13.2647 94.8048 13.1666 95.0013C12.7834 95.7686 12.4111 96.4683 11.9896 97.0862L18.3122 88.6Z" fill="#013507" stroke="#FFF2EA" stroke-width="2.60446"/>
<defs>
<clipPath id="clip0">
<rect width="483.64" height="182.846" fill="white" transform="translate(28.3547 104.601)"/>
</clipPath>
</defs>
</svg>
