<svg width="586" height="451" fill="none" xmlns="http://www.w3.org/2000/svg"><path d="M554.258 240.171a670.373 670.373 0 00-4.092-.543l1.299-15.079c.563.079 1.126.162 1.686.236l.392-2.955c-.605-.081-1.217-.17-1.822-.255 2.655-30.841 5.304-61.675 8.062-92.608-.059.068-.006-.302.086-.801-.012.149-.024.303-.039.451a3483.51 3483.51 0 005.86-5.681c-3.799-.726-7.595-1.444-11.396-2.158a453.225 453.225 0 00-11.698-23.67l2.585-19.462c.691-5.207.011-8.443 2.094-13.218-6.167-.689-11.811-1.304-17.917-1.851-.042.191-.074.371-.116.558-1.409 2.477-5.573 3.55-6.972 5.915-1.286 2.179-.408 2.597-.729 5.013l-.946 7.126c-.068.514-.132 1.03-.197 1.544a507.027 507.027 0 00-23.185-4.348l.927-6.98c.691-5.208.373-8.396 1.983-13.234-4.129-.418-7.913-.787-12.006-1.066-.038.192-.066.372-.1.56-1.055 2.524-3.914 3.77-4.959 6.182-.961 2.223-.387 2.6-.708 5.017l-.946 7.125c-12.958-1.817-25.971-3.31-38.98-4.74 1.198-7.381 3.826-11.967 4.136-19.662-6.037-1.066-11.647-1.945-17.78-2.889.765 5.153-.736 8.1-1.427 13.307l-.995 7.491c-13.16-1.429-26.319-2.862-39.479-4.291.081-.58.158-1.16.235-1.74l.946-7.126c.32-2.412.974-2.631.626-5.027-.38-2.601-2.81-4.554-3.17-7.261.016-.19.032-.373.046-.568-4.025-.798-7.773-1.43-11.869-2.104.292 5.09-.847 8.085-1.538 13.292l-1.169 8.8c-6.862-.747-13.721-1.49-20.584-2.238.124-.868.243-1.736.358-2.6l.946-7.125c.32-2.412 1.278-2.591.605-5.03-.729-2.648-4.472-4.775-5.187-7.53.009-.19.029-.373.034-.569-6.037-1.065-11.647-1.944-17.779-2.888.765 5.153-.737 8.1-1.428 13.306l-2.541 19.137c-7.625 5.752-15.25 11.5-22.875 17.253-3.392-.325-6.784-.645-10.177-.958 3.56 4.356 4.909 6.63 10.37 7.585l-4.899-.65-12.313 94.058c-1.408-.187-2.811-.382-4.218-.568l-.393 2.955c1.408.187 2.815.378 4.222.569-.734 5.591-1.463 11.178-2.197 16.769a588.208 588.208 0 01-3.884-.528c1.158.744 2.833 1.633 3.251 2.396l.382.051c-2.765 21.113-5.531 42.226-8.293 63.339 87.797 18.557 180.849 25.296 270.282 32.312 1.794-20.132 3.54-40.224 5.277-60.305l.899.107c-.008-.793 2.766-1.467 3.414-2.148z" stroke="#FFF2EA" stroke-width="15.364" stroke-miterlimit="10" stroke-linejoin="round"/><path d="M300.707 87.06l28.447-21.452c2.429-1.83 4.927-3.698 7.829-4.549 3.116-.91 6.426-.57 9.643-.219 28.987 3.15 57.974 6.3 86.961 9.453 31.865 3.464 63.82 6.941 95.041 14.216 2.576.602 5.212 1.253 7.394 2.77 2.754 1.916 4.482 4.985 6.084 7.967a454.657 454.657 0 0114.231 28.92l-141.04 57.688-114.59-94.794z" fill="#013507"/><path d="M545.211 302.594c-89.434-7.017-182.485-13.755-270.282-32.312 7.811-59.68 15.628-119.363 23.443-179.042l262.373 34.839c.176-.19-.59 3.151-.418 2.96-5.163 57.966-9.953 115.588-15.116 173.555z" fill="#F98E12"/><path d="M566.233 123.013a3926.4 3926.4 0 01-5.861 5.681c.018-.199.033-.402.051-.601.101-1.206-181.42-25.656-197.994-28a10394.953 10394.953 0 00-38.873-5.425c-6.659-.918-13.369-1.65-20.003-2.728-5.696-.927-7.022-3.206-10.644-7.633a2833.677 2833.677 0 01273.324 38.706zM347.581 38.536c.356 3 4.509 5.219 5.281 8.02.673 2.438-.284 2.613-.605 5.03l-.946 7.124c-.447 3.363-.95 6.714-1.57 10.03-.288 1.536-.202 3.659-1.263 4.9-1.409 1.652-5.335 2.576-7.564 3.716-2.927-4.3-2.397-5.575-2.214-9.953.216-5.06.417-10.71 1.313-15.66.762-4.192 2.642-9.425 7.568-13.207z" fill="#D86C00"/><path d="M325.022 75.112l3.483-26.233c.692-5.207 2.193-8.153 1.428-13.306 6.133.944 11.742 1.823 17.779 2.888-.323 8.05-3.188 12.688-4.293 20.688-.84 6.076-1.857 12.316-3.062 18.364-3.441-.897-9.725-1.526-15.335-2.4zM424.413 88.31l3.483-26.233c.692-5.207 2.193-8.154 1.428-13.307 6.132.944 11.742 1.823 17.779 2.889-.323 8.05-3.189 12.687-4.293 20.688-.84 6.075-1.857 12.316-3.062 18.363-3.438-.896-9.725-1.525-15.335-2.4z" fill="#F98E12"/><path d="M386.018 43.64c.113 2.968 2.818 4.994 3.215 7.745.348 2.396-.304 2.61-.625 5.027l-.946 7.125c-.447 3.363-.93 6.717-1.493 10.04-.259 1.54-.295 3.646-1.064 4.926-1.022 1.704-3.71 2.792-5.264 4.022-1.79-4.15-1.376-5.44-1.061-9.8.364-5.041.746-10.666 1.564-15.626.692-4.202 2.186-9.486 5.674-13.46z" fill="#D86C00"/><path d="M369.218 80.98l3.483-26.232c.692-5.207 1.831-8.202 1.539-13.292 4.095.674 7.844 1.305 11.868 2.104-.566 8.017-2.698 12.752-3.79 20.754a463.898 463.898 0 01-2.861 18.39c-2.281-.742-6.494-1.096-10.239-1.723z" fill="#F98E12"/><path d="M488.731 57.278c-.884 2.836-4.024 4.086-5.125 6.638-.961 2.222-.387 2.6-.708 5.016l-.946 7.125a283.463 283.463 0 00-1.179 10.081c-.152 1.555-.667 3.598-.258 5.034.542 1.911 2.852 3.663 4.031 5.256 2.811-3.539 2.748-4.892 3.582-9.183.964-4.962 2.063-10.492 2.568-15.493.429-4.237.362-9.729-1.965-14.474z" fill="#D86C00"/><path d="M495.2 97.709l3.483-26.233c.691-5.207.373-8.395 1.983-13.233-4.129-.418-7.913-.787-12.006-1.066-1.545 7.887-.722 13.015-1.757 21.025-.786 6.082-1.495 12.364-2.037 18.5 2.395-.123 6.555.635 10.334 1.007z" fill="#F98E12"/><path d="M530.004 62.759c-1.126 2.803-5.715 3.861-7.191 6.363-1.286 2.179-.408 2.597-.728 5.013l-.947 7.126c-.446 3.363-.835 6.73-1.101 10.09-.123 1.56-.761 3.586-.06 5.061.929 1.962 4.478 3.879 6.332 5.562 3.948-3.388 3.769-4.757 4.735-9.03 1.112-4.943 2.392-10.448 2.819-15.46.363-4.246-.091-9.789-3.859-14.725z" fill="#D86C00"/><path d="M542.24 103.955l3.483-26.233c.692-5.206.011-8.443 2.095-13.218-6.167-.689-11.811-1.304-17.917-1.851-1.789 7.855-.233 13.08-1.255 21.092-.774 6.084-1.421 12.373-1.836 18.526 3.552.032 9.782 1.064 15.43 1.684z" fill="#F98E12"/><path d="M334.893 113.896l-1.07 8.064c-.809 1.359-.888 3.97-1.229 5.655a162.431 162.431 0 00-1.708 10.4c-.413 3.116-1.073 6.346-1.232 9.504a140.636 140.636 0 00-4.516-.595c.855-10.828 2.81-21.735 4.242-32.52 1.368-.644 3.323-.732 5.513-.508z" fill="#D86C00"/><path d="M345.238 150.853c-4.683-1.426-10.354-2.56-15.584-3.334.16-3.158.819-6.388 1.233-9.504a161.727 161.727 0 011.707-10.4c.341-1.685.42-4.297 1.229-5.655l1.071-8.064c4.91.493 10.991 2.523 14.256 3.204.342 11.054-2.686 22.72-3.912 33.753z" fill="#013507"/><path d="M371.144 151.273c-.057.458-.166 1.059-.264 1.704-.794-.106-1.578-.201-2.337-.29.856-10.827 2.815-21.734 4.247-32.519.635-.301 1.396-.477 2.249-.56-.846 6.368-1.687 12.736-2.537 19.103-.555 4.182-.844 8.379-1.358 12.562z" fill="#D86C00"/><path d="M388.643 156.617c-5.342-1.627-11.967-2.871-17.763-3.64.098-.645.207-1.246.264-1.704.514-4.183.803-8.38 1.358-12.562.85-6.367 1.691-12.735 2.537-19.103 5.106-.503 13.473 2.413 17.516 3.256.342 11.053-2.681 22.72-3.912 33.753zM416.196 125.932c-1.432 10.784-3.391 21.691-4.243 32.52 6.279.724 14.025 2.08 20.1 3.929 1.226-11.034 4.254-22.699 3.912-33.753-4.72-.983-15.331-4.792-19.769-2.696z" fill="#013507"/><path d="M475.459 168.145a62.862 62.862 0 00-1.662-.481c.112-1.254.164-2.495.249-3.393.375-3.833.797-7.673 1.13-11.507.538-6.258 1.589-12.532 2.481-18.776.628.159 1.204.298 1.714.403.342 11.054-2.682 22.721-3.912 33.754z" fill="#D86C00"/><path d="M473.797 167.665c-5.782-1.606-12.715-2.795-18.438-3.45.855-10.827 2.815-21.735 4.247-32.519 3.959-1.87 12.832.962 18.051 2.292-.892 6.244-1.943 12.518-2.481 18.776-.333 3.834-.755 7.674-1.13 11.507-.086.898-.137 2.139-.249 3.394z" fill="#013507"/><path d="M518.868 173.909a85.83 85.83 0 00-5.398-1.429c1.554-11.166 3.354-22.262 4.913-33.436 1.704.452 3.232.869 4.398 1.112.341 11.053-2.686 22.719-3.913 33.753z" fill="#D86C00"/><path d="M518.383 139.044c-1.559 11.174-3.359 22.27-4.913 33.436-4.88-1.13-10.171-1.979-14.701-2.501.851-10.828 2.81-21.735 4.242-32.52 3.343-1.579 10.183.192 15.372 1.585zM322.762 164.252c-1.432 10.784-3.392 21.691-4.243 32.519 6.279.725 14.024 2.08 20.1 3.93 1.226-11.034 4.254-22.7 3.912-33.753-4.72-.983-15.331-4.792-19.769-2.696zM366.171 170.016c-1.432 10.784-3.391 21.691-4.243 32.52 6.28.724 14.025 2.08 20.1 3.929 1.227-11.034 4.254-22.699 3.912-33.753-4.72-.983-15.331-4.792-19.769-2.696zM409.577 175.779c-1.432 10.785-3.391 21.692-4.243 32.52 6.28.725 14.025 2.08 20.1 3.93 1.227-11.034 4.254-22.7 3.912-33.754-4.72-.982-15.331-4.792-19.769-2.696zM452.983 181.543c-1.432 10.784-3.392 21.692-4.243 32.52 6.279.724 14.024 2.08 20.1 3.929 1.226-11.033 4.254-22.699 3.912-33.753-4.716-.982-15.332-4.792-19.769-2.696zM496.393 187.307c-1.432 10.784-3.392 21.692-4.243 32.52 6.279.725 14.024 2.08 20.1 3.93 1.226-11.034 4.254-22.7 3.912-33.754-4.72-.983-15.332-4.792-19.769-2.696zM315.05 222.332c-1.432 10.784-3.392 21.691-4.243 32.519 6.279.725 14.024 2.081 20.1 3.93 1.226-11.034 4.254-22.7 3.912-33.753-4.72-.983-15.332-4.792-19.769-2.696zM358.459 228.096c-1.432 10.784-3.391 21.692-4.242 32.52 6.279.724 14.024 2.08 20.099 3.929 1.227-11.033 4.254-22.699 3.912-33.753-4.72-.983-15.331-4.792-19.769-2.696zM401.865 233.859c-1.432 10.785-3.391 21.692-4.243 32.52 6.279.725 14.025 2.08 20.1 3.93 1.226-11.034 4.254-22.7 3.912-33.753-4.72-.983-15.331-4.792-19.769-2.697zM445.271 239.623c-1.432 10.784-3.392 21.692-4.243 32.52 6.279.725 14.024 2.08 20.1 3.929 1.226-11.033 4.254-22.699 3.912-33.753-4.716-.982-15.332-4.792-19.769-2.696zM488.68 245.387c-1.432 10.785-3.391 21.692-4.242 32.52 6.279.725 14.024 2.08 20.099 3.93 1.227-11.034 4.254-22.7 3.913-33.754-4.72-.983-15.332-4.792-19.77-2.696z" fill="#013507"/><path d="M328.277 163.727l-1.071 8.064c-.809 1.359-.888 3.97-1.229 5.655a161.841 161.841 0 00-1.707 10.4c-.414 3.116-1.073 6.346-1.233 9.504a140.636 140.636 0 00-4.516-.595c.856-10.828 2.811-21.735 4.243-32.52 1.367-.644 3.322-.732 5.513-.508zM320.566 221.795l-1.071 8.064c-.808 1.358-.887 3.97-1.228 5.655a162.431 162.431 0 00-1.708 10.4c-.413 3.116-1.073 6.346-1.232 9.504a138.215 138.215 0 00-4.516-.595c.855-10.828 2.81-21.736 4.242-32.52 1.368-.644 3.323-.732 5.513-.508zM512.249 223.757a84.973 84.973 0 00-5.398-1.429c1.554-11.167 3.354-22.263 4.913-33.437 1.704.453 3.232.869 4.398 1.112.342 11.054-2.686 22.72-3.913 33.754zM504.537 281.837a85.151 85.151 0 00-5.398-1.429c1.554-11.167 3.354-22.262 4.913-33.436 1.704.452 3.232.868 4.398 1.111.341 11.054-2.686 22.72-3.913 33.754zM468.863 217.82a62.862 62.862 0 00-1.662-.481c.112-1.254.164-2.495.249-3.393.375-3.833.797-7.673 1.13-11.507.538-6.258 1.589-12.532 2.481-18.776.628.159 1.204.298 1.714.403.342 11.054-2.682 22.72-3.912 33.754zM461.174 275.727a62.862 62.862 0 00-1.662-.481c.112-1.254.164-2.495.249-3.393.375-3.833.797-7.673 1.13-11.507.538-6.258 1.589-12.532 2.481-18.776.628.159 1.204.298 1.714.403.342 11.054-2.682 22.72-3.912 33.754zM364.525 201.121c-.057.457-.166 1.059-.264 1.703-.794-.105-1.577-.201-2.336-.289.855-10.828 2.814-21.735 4.246-32.519.635-.301 1.396-.477 2.249-.56-.846 6.367-1.687 12.736-2.537 19.103-.555 4.182-.844 8.379-1.358 12.562zM356.812 259.205c-.056.458-.165 1.059-.263 1.703-.795-.105-1.578-.201-2.337-.289.855-10.827 2.815-21.735 4.247-32.519.635-.301 1.395-.477 2.248-.56-.845 6.367-1.687 12.736-2.537 19.103-.555 4.182-.844 8.379-1.358 12.562zM282.839 206.891c-.418-.763-2.093-1.651-3.25-2.396 8.743 1.22 24.26 3.167 35.841 4.311 19.069 1.879 38.114 4.919 57.063 7.104 15.306 1.764 30.28 4.356 45.476 6.42 8.093 1.099 16.224 2.104 24.219 3.345 17.418 2.711 35.303 4.328 52.818 6.867 9.181 1.332 18.452 2.463 27.651 3.684 9.896 1.314 22.417 2.696 32.139 4.025-.648.68-3.423 1.359-3.419 2.151-17.219-2.031-34.817-4.296-51.915-7.01l-216.623-28.501z" fill="#D86C00"/><path d="M285.869 205.149c.806-6.067 1.302-12.297 2.452-18.306.918.717 1.878.274 2.781.729 1.012.512.195 1.807-.004 2.869-.607 3.212-.986 6.479-1.418 9.731-.241 1.815-.155 4.352-.939 5.97-.975-.008-1.908-.777-2.872-.993zM304.384 207.608c.805-6.068 1.302-12.298 2.451-18.307.919.717 1.878.275 2.781.73 1.013.511.196 1.806-.004 2.869-.606 3.211-.986 6.479-1.417 9.73-.241 1.816-.155 4.353-.94 5.97-.975-.008-1.907-.776-2.871-.992zM322.898 210.066c.806-6.067 1.302-12.297 2.452-18.306.919.716 1.878.274 2.781.729 1.013.512.196 1.806-.004 2.869-.607 3.212-.986 6.479-1.418 9.731-.241 1.815-.155 4.352-.939 5.97-.975-.008-1.912-.778-2.872-.993zM341.409 212.524c.806-6.067 1.302-12.297 2.452-18.306.918.716 1.878.274 2.781.729 1.012.512.196 1.806-.004 2.869-.607 3.212-.986 6.479-1.418 9.731-.241 1.815-.155 4.352-.939 5.97-.975-.008-1.908-.777-2.872-.993zM359.924 214.982c.806-6.067 1.302-12.297 2.452-18.306.918.717 1.878.275 2.781.73 1.012.511.195 1.806-.004 2.868-.607 3.212-.986 6.479-1.418 9.731-.241 1.815-.155 4.353-.939 5.97-.975-.008-1.908-.777-2.872-.993zM378.439 217.441c.805-6.068 1.302-12.297 2.451-18.306.919.716 1.878.274 2.781.729 1.013.512.196 1.806-.004 2.869-.606 3.212-.986 6.479-1.417 9.731-.241 1.815-.155 4.352-.94 5.97-.975-.008-1.907-.777-2.871-.993zM396.95 219.899c.805-6.067 1.302-12.297 2.451-18.306.919.716 1.878.274 2.781.729 1.013.512.196 1.806-.004 2.869-.606 3.212-.986 6.479-1.417 9.731-.242 1.815-.155 4.352-.94 5.97-.971-.008-1.907-.777-2.871-.993zM415.464 222.357c.806-6.067 1.302-12.297 2.452-18.306.919.717 1.878.274 2.781.729 1.013.512.196 1.807-.004 2.869-.607 3.212-.986 6.479-1.418 9.731-.241 1.815-.155 4.353-.939 5.97-.975-.008-1.908-.777-2.872-.993zM433.979 224.816c.806-6.068 1.302-12.298 2.452-18.307.918.717 1.878.275 2.781.73 1.013.511.196 1.806-.004 2.869-.607 3.212-.986 6.479-1.418 9.731-.241 1.815-.155 4.352-.939 5.97-.975-.008-1.908-.777-2.872-.993zM452.494 227.274c.806-6.067 1.302-12.297 2.452-18.306.918.717 1.878.274 2.781.729 1.012.512.195 1.807-.004 2.869-.607 3.212-.986 6.479-1.418 9.731-.241 1.815-.155 4.353-.939 5.97-.975-.008-1.908-.777-2.872-.993zM471.005 229.732c.805-6.067 1.302-12.297 2.452-18.306.918.717 1.877.274 2.78.729 1.013.512.196 1.807-.004 2.869-.606 3.212-.986 6.479-1.417 9.731-.241 1.815-.155 4.353-.94 5.97-.975-.008-1.907-.777-2.871-.993zM489.52 232.191c.805-6.068 1.302-12.298 2.451-18.307.919.717 1.878.275 2.781.73 1.013.511.196 1.806-.004 2.869-.606 3.211-.986 6.479-1.417 9.73-.241 1.816-.155 4.353-.94 5.97-.975-.008-1.907-.776-2.871-.992zM508.034 234.649c.806-6.067 1.302-12.297 2.452-18.306.919.717 1.878.274 2.781.729 1.013.512.196 1.807-.004 2.869-.607 3.212-.986 6.479-1.418 9.731-.241 1.815-.155 4.352-.939 5.97-.975-.008-1.908-.777-2.872-.993zM526.549 237.108c.806-6.068 1.302-12.298 2.452-18.307.919.717 1.878.275 2.781.73 1.013.511.196 1.806-.004 2.869-.607 3.211-.986 6.479-1.418 9.73-.241 1.816-.155 4.353-.939 5.97-.975-.008-1.912-.777-2.872-.992zM545.06 239.565c.805-6.067 1.302-12.297 2.451-18.306.919.717 1.878.275 2.781.73 1.013.511.196 1.806-.004 2.868-.606 3.212-.986 6.48-1.417 9.731-.241 1.816-.155 4.353-.94 5.97-.975-.008-1.907-.777-2.871-.993z" fill="#D86C00"/><path d="M553.698 224.862c-8.93-1.203-17.963-2.896-27.105-4.11-8.619-1.145-17.204-2.109-25.817-2.955-6.397-.627-12.437-1.953-18.801-2.798-25.018-3.322-50.284-5.759-75.204-9.475-41.77-6.225-83.429-12.272-125.324-17.835l.393-2.955c41.899 5.564 83.554 11.61 125.323 17.835 24.921 3.715 50.186 6.153 75.205 9.475 6.363.845 12.404 2.17 18.8 2.798 8.613.846 17.198 1.81 25.818 2.954 9.142 1.214 18.174 2.908 27.104 4.111l-.392 2.955z" fill="#D86C00"/><path d="M329.261 175.784c-1.267.398-2.585.817-3.934 1.249l-5.238-14.199c.543-.168 1.088-.333 1.626-.503l-.902-2.842c-.582.185-1.174.364-1.757.545-10.716-29.042-21.434-58.074-32.095-87.242-.025.086-.134-.272-.263-.762.053.14.107.284.157.425.965-2.546 1.927-5.086 2.887-7.634-3.747.958-7.488 1.924-11.232 2.894a453.289 453.289 0 00-20.655-16.447l-5.939-18.712c-1.589-5.007-3.581-7.646-3.727-12.854-5.874 2-11.244 3.844-17.003 5.946.044.19.091.367.133.555-.222 2.84-3.534 5.582-3.794 8.318-.238 2.52.735 2.524 1.473 4.847l2.174 6.851c.157.495.318.989.479 1.482a506.889 506.889 0 00-22.833 5.927l-2.131-6.712c-1.589-5.007-3.233-7.757-3.833-12.82-3.915 1.378-7.496 2.654-11.32 4.142.048.19.099.365.149.55.118 2.733-1.939 5.076-1.859 7.704.075 2.42.755 2.517 1.493 4.84l2.174 6.852c-12.5 3.867-24.912 8.05-37.294 12.29-2.055-7.19-1.627-12.458-4.62-19.554-5.917 1.604-11.368 3.194-17.32 4.948 2.885 4.339 2.779 7.644 4.368 12.65l2.287 7.204c-12.518 4.304-25.038 8.604-37.556 12.909-.173-.56-.35-1.118-.527-1.676l-2.175-6.85c-.736-2.32-.238-2.796-1.572-4.817-1.45-2.193-4.479-2.926-5.957-5.223-.066-.18-.13-.351-.2-.533-3.982.989-7.643 2.012-11.636 3.144 2.43 4.483 2.672 7.677 4.261 12.684l2.686 8.462c-6.529 2.242-13.053 4.487-19.582 6.729a274.55 274.55 0 00-.781-2.505l-2.175-6.851c-.736-2.32.055-2.888-1.592-4.81-1.786-2.086-6.078-2.418-7.897-4.608-.074-.177-.133-.35-.212-.53-5.916 1.604-11.367 3.195-17.319 4.949 2.885 4.338 2.78 7.644 4.368 12.65l5.84 18.4c-4.454 8.45-8.91 16.895-13.363 25.345a2576.513 2576.513 0 00-9.619 3.462c5.075 2.428 7.263 3.911 12.612 2.453l-4.71 1.495 28.864 90.363c-1.354.43-2.706.85-4.06 1.28l.902 2.842c1.354-.43 2.709-.856 4.064-1.281 1.713 5.372 3.43 10.739 5.144 16.111a600.25 600.25 0 01-3.74 1.174c1.364.181 3.258.273 3.961.786l.368-.117c6.478 20.284 12.955 40.569 19.436 60.852 87.352-20.55 174.432-54.032 258.357-85.722-6.94-18.983-13.906-37.91-20.876-56.823l.859-.285c-.344-.715 1.88-2.505 2.176-3.397z" stroke="#FFF2EA" stroke-width="15.364" stroke-miterlimit="10" stroke-linejoin="round"/><path d="M34.665 145.063l16.62-31.515c1.42-2.69 2.886-5.442 5.151-7.446 2.433-2.149 5.573-3.25 8.634-4.3 27.574-9.48 55.148-18.959 82.723-28.434 30.312-10.419 60.712-20.864 92.062-27.56 2.587-.552 5.25-1.083 7.87-.638 3.306.562 6.176 2.605 8.895 4.622a455.394 455.394 0 0125.18 20.12L178.693 182.114 34.665 145.063z" fill="#013507"/><path d="M347.625 236.127c-83.924 31.691-171.005 65.172-258.356 85.722-18.316-57.335-36.628-114.674-54.94-172.01l252.274-80.07c.078-.248.806 3.103.881 2.857 19.983 54.657 40.157 108.844 60.141 163.501z" fill="#F98E12"/><path d="M290.266 64.66a3918.5 3918.5 0 01-2.888 7.633c-.068-.187-.142-.377-.21-.565-.421-1.134-175.103 53.948-191.1 58.877A10360.491 10360.491 0 0058.58 142.23c-6.418 2.002-12.801 4.193-19.264 6.04-5.549 1.582-7.72.084-12.88-2.382a2833.754 2833.754 0 01263.83-81.229zM56.447 81.21c1.598 2.564 6.301 2.805 8.19 5.01 1.647 1.922.855 2.487 1.593 4.81l2.174 6.852c1.026 3.233 1.996 6.48 2.845 9.744.393 1.513 1.374 3.397.942 4.972-.573 2.095-3.733 4.601-5.265 6.581-4.478-2.648-4.541-4.026-6.238-8.066-1.957-4.672-4.178-9.87-5.472-14.73-1.094-4.12-1.618-9.655 1.231-15.173z" fill="#D86C00"/><path d="M51.589 123.908l-8.006-25.223c-1.59-5.007-1.484-8.312-4.368-12.65 5.952-1.755 11.402-3.345 17.32-4.949 3.13 7.423 2.51 12.84 4.914 20.55 1.824 5.855 3.557 11.936 5.04 17.922-3.497.652-9.451 2.755-14.9 4.35zM147.154 93.576l-8.006-25.223c-1.589-5.007-1.484-8.312-4.368-12.65 5.952-1.755 11.402-3.345 17.319-4.949 3.131 7.423 2.511 12.84 4.915 20.55 1.824 5.855 3.557 11.936 5.039 17.922-3.492.65-9.45 2.755-14.899 4.35z" fill="#F98E12"/><path d="M93.405 69.48c1.364 2.638 4.674 3.321 6.204 5.641 1.334 2.02.834 2.493 1.572 4.816l2.174 6.851a282.754 282.754 0 012.92 9.72c.421 1.505 1.284 3.427 1.132 4.913-.2 1.976-2.169 4.104-3.052 5.878-3.386-2.994-3.56-4.337-5.13-8.418-1.815-4.717-3.861-9.97-5.23-14.807-1.162-4.097-2.058-9.515-.59-14.595z" fill="#D86C00"/><path d="M94.084 110.42l-8.006-25.223c-1.59-5.007-1.832-8.201-4.261-12.684 3.992-1.133 7.654-2.155 11.636-3.145 2.897 7.497 2.981 12.69 5.397 20.397a463.214 463.214 0 015.233 17.86c-2.38.298-6.343 1.769-10 2.795z" fill="#F98E12"/><path d="M192.164 38.134c.406 2.942-1.904 5.409-1.815 8.186.075 2.42.756 2.518 1.493 4.841l2.174 6.851a284.82 284.82 0 003.221 9.626c.524 1.471.927 3.539 1.908 4.665 1.303 1.5 4.139 2.102 5.884 3.043 1.039-4.4.406-5.597-.665-9.836-1.237-4.9-2.595-10.372-4.265-15.113-1.415-4.017-3.811-8.959-7.935-12.263z" fill="#D86C00"/><path d="M215.216 71.973L207.21 46.75c-1.589-5.007-3.233-7.757-3.834-12.82-3.915 1.378-7.496 2.654-11.319 4.142 1.956 7.796 4.882 12.086 7.353 19.775a463.994 463.994 0 006.024 17.61c2.117-1.13 6.203-2.213 9.782-3.484z" fill="#F98E12"/><path d="M231.848 25.538c.174 3.016-3.53 5.925-3.801 8.817-.237 2.52.736 2.524 1.473 4.848l2.175 6.85c1.026 3.234 2.106 6.446 3.295 9.602.552 1.463.837 3.568 2.098 4.605 1.676 1.381 5.703 1.606 8.097 2.34 2.131-4.745 1.387-5.908.443-10.187-1.095-4.945-2.278-10.473-4.024-15.19-1.478-3.996-4.246-8.82-9.756-11.685z" fill="#D86C00"/><path d="M260.445 57.617l-8.005-25.223c-1.59-5.006-3.582-7.646-3.727-12.853-5.874 1.999-11.244 3.843-17.003 5.945 1.722 7.87 5.353 11.937 7.836 19.622 1.887 5.836 3.977 11.803 6.218 17.548 3.229-1.482 9.306-3.198 14.681-5.039z" fill="#F98E12"/><path d="M77.019 154.809l2.46 7.754c-.153 1.573.886 3.971 1.294 5.64.847 3.422 1.811 6.775 2.879 10.139.95 2.996 1.728 6.2 2.927 9.126-1.508.452-2.967.92-4.34 1.382-3.832-10.163-6.702-20.867-9.993-31.236.963-1.164 2.696-2.075 4.773-2.805z" fill="#D86C00"/><path d="M102.101 183.857c-4.844.701-10.46 2.087-15.522 3.611-1.199-2.926-1.976-6.13-2.927-9.126a161.862 161.862 0 01-2.878-10.139c-.408-1.67-1.448-4.067-1.294-5.64l-2.46-7.754c4.653-1.642 11.02-2.391 14.264-3.164 5.011 9.859 7.233 21.704 10.817 32.212z" fill="#013507"/><path d="M125.726 173.218c.143.438.3 1.028.485 1.653-.764.243-1.513.489-2.238.732-3.831-10.163-6.697-20.867-9.988-31.237.446-.542 1.06-1.025 1.796-1.463 1.944 6.122 3.891 12.244 5.83 18.368 1.277 4.021 2.8 7.942 4.115 11.947z" fill="#D86C00"/><path d="M143.836 170.61c-5.527.801-12.052 2.493-17.625 4.261-.185-.625-.342-1.215-.486-1.653-1.314-4.005-2.837-7.926-4.114-11.947-1.939-6.124-3.886-12.246-5.83-18.368 4.407-2.628 13.22-3.547 17.238-4.504 5.011 9.858 7.237 21.703 10.817 32.211zM155.72 131.12c3.291 10.369 6.157 21.074 9.992 31.236 5.991-2.015 13.577-4.083 19.863-4.993-3.584-10.508-5.806-22.354-10.817-32.212-4.69 1.118-15.914 2.184-19.038 5.969z" fill="#013507"/><path d="M227.31 144.116c-.558.081-1.131.172-1.709.272-.432-1.183-.913-2.328-1.217-3.177-1.292-3.628-2.543-7.283-3.872-10.895-2.176-5.892-3.893-12.017-5.742-18.048a39.812 39.812 0 001.723-.364c5.011 9.859 7.237 21.703 10.817 32.212z" fill="#D86C00"/><path d="M225.601 144.388c-5.915 1.006-12.696 2.88-18.154 4.721-3.831-10.163-6.697-20.868-9.988-31.237 2.788-3.377 12.023-4.587 17.311-5.604 1.849 6.031 3.566 12.156 5.742 18.048 1.329 3.612 2.58 7.266 3.872 10.895.304.849.785 1.994 1.217 3.177z" fill="#013507"/><path d="M269.048 130.868c-1.753.256-3.604.6-5.493 1.003-3.343-10.766-6.434-21.574-9.775-32.35 1.734-.315 3.294-.588 4.452-.864 5.011 9.858 7.233 21.704 10.816 32.211z" fill="#D86C00"/><path d="M253.779 99.52c3.342 10.777 6.433 21.585 9.776 32.351-4.898 1.054-10.047 2.536-14.369 3.99-3.835-10.162-6.701-20.866-9.993-31.236 2.354-2.851 9.298-4.157 14.586-5.104zM87.458 205.543c3.292 10.369 6.158 21.074 9.993 31.236 5.991-2.015 13.577-4.083 19.862-4.993-3.583-10.508-5.805-22.354-10.816-32.212-4.69 1.118-15.914 2.184-19.039 5.969zM129.197 192.295c3.291 10.369 6.158 21.074 9.993 31.236 5.991-2.015 13.577-4.083 19.862-4.993-3.583-10.507-5.805-22.353-10.816-32.212-4.69 1.119-15.914 2.185-19.039 5.969zM170.932 179.048c3.291 10.37 6.158 21.075 9.993 31.236 5.991-2.014 13.577-4.082 19.862-4.992-3.583-10.508-5.805-22.354-10.816-32.212-4.69 1.118-15.914 2.184-19.039 5.968zM212.667 165.802c3.291 10.369 6.157 21.074 9.993 31.236 5.991-2.015 13.577-4.083 19.862-4.993-3.583-10.508-5.805-22.353-10.816-32.212-4.686 1.117-15.914 2.185-19.039 5.969zM254.406 152.554c3.291 10.37 6.157 21.074 9.993 31.236 5.991-2.015 13.577-4.083 19.862-4.993-3.584-10.507-5.806-22.353-10.817-32.212-4.689 1.119-15.913 2.185-19.038 5.969zM105.183 261.387c3.291 10.37 6.158 21.074 9.993 31.236 5.991-2.015 13.577-4.083 19.862-4.993-3.583-10.507-5.805-22.353-10.816-32.212-4.69 1.119-15.914 2.185-19.039 5.969zM146.922 248.14c3.291 10.369 6.157 21.074 9.993 31.236 5.991-2.015 13.577-4.083 19.862-4.993-3.583-10.508-5.805-22.354-10.816-32.212-4.69 1.118-15.914 2.184-19.039 5.969zM188.657 234.893c3.291 10.369 6.157 21.074 9.993 31.236 5.991-2.015 13.577-4.083 19.862-4.993-3.583-10.508-5.805-22.353-10.816-32.212-4.69 1.118-15.914 2.185-19.039 5.969zM230.392 221.646c3.291 10.37 6.157 21.074 9.993 31.236 5.991-2.014 13.577-4.082 19.862-4.993-3.583-10.507-5.805-22.353-10.816-32.211-4.686 1.117-15.914 2.184-19.039 5.968zM272.131 208.399c3.291 10.369 6.157 21.074 9.992 31.236 5.991-2.015 13.578-4.083 19.863-4.993-3.584-10.508-5.806-22.354-10.817-32.212-4.69 1.118-15.913 2.184-19.038 5.969z" fill="#013507"/><path d="M92.227 202.722l2.46 7.754c-.154 1.573.886 3.971 1.294 5.64.846 3.422 1.81 6.775 2.878 10.139.951 2.996 1.728 6.2 2.927 9.126-1.507.452-2.966.92-4.34 1.382-3.831-10.163-6.702-20.867-9.993-31.236.964-1.164 2.696-2.076 4.773-2.805zM109.948 258.555l2.461 7.753c-.154 1.574.885 3.971 1.293 5.641a162.334 162.334 0 002.879 10.139c.95 2.996 1.728 6.2 2.926 9.126-1.507.452-2.966.919-4.34 1.382-3.831-10.164-6.701-20.867-9.993-31.236.964-1.164 2.696-2.076 4.774-2.805zM284.261 178.797c-1.753.256-3.604.6-5.493 1.003-3.344-10.767-6.434-21.574-9.776-32.35 1.734-.315 3.294-.588 4.452-.865 5.011 9.859 7.233 21.705 10.817 32.212zM301.986 234.642a85.786 85.786 0 00-5.494 1.003c-3.343-10.767-6.433-21.575-9.775-32.351 1.734-.315 3.294-.588 4.452-.864 5.011 9.858 7.233 21.704 10.817 32.212zM242.469 191.879c-.558.081-1.13.171-1.708.272-.432-1.183-.914-2.328-1.218-3.177-1.291-3.629-2.542-7.283-3.872-10.895-2.175-5.893-3.892-12.017-5.741-18.048a43.065 43.065 0 001.723-.364c5.011 9.858 7.237 21.703 10.816 32.212zM260.141 247.557c-.558.081-1.13.171-1.708.272-.432-1.183-.913-2.328-1.218-3.177-1.291-3.629-2.542-7.283-3.872-10.895-2.175-5.893-3.892-12.017-5.741-18.048a39.812 39.812 0 001.723-.364c5.011 9.859 7.237 21.703 10.816 32.212zM140.938 221.146c.143.438.3 1.029.486 1.654-.764.243-1.514.489-2.238.732-3.831-10.163-6.698-20.868-9.989-31.237.447-.543 1.06-1.025 1.797-1.463 1.943 6.122 3.89 12.244 5.83 18.368 1.276 4.021 2.799 7.942 4.114 11.946zM158.664 276.995c.143.438.3 1.028.486 1.654-.764.242-1.514.489-2.238.732-3.831-10.164-6.698-20.868-9.989-31.238.447-.542 1.06-1.024 1.797-1.463 1.943 6.123 3.89 12.244 5.83 18.368 1.276 4.021 2.799 7.942 4.114 11.947zM69.465 261.114c-.704-.513-2.597-.605-3.962-.786 8.432-2.615 23.303-7.453 34.271-11.343 18.057-6.411 36.587-11.761 54.666-17.843 14.603-4.914 29.257-8.938 43.887-13.534 7.793-2.447 15.579-4.997 23.343-7.273 16.916-4.956 33.79-11.1 50.722-16.252 8.876-2.7 17.747-5.62 26.592-8.427 9.515-3.02 21.435-7.095 30.798-10.028-.296.891-2.519 2.686-2.179 3.401-16.447 5.486-33.337 10.921-49.966 15.738L69.465 261.114z" fill="#D86C00"/><path d="M71.465 258.248c-1.851-5.833-4.052-11.683-5.567-17.61 1.136.258 1.816-.55 2.827-.523 1.134.032.945 1.552 1.216 2.598.818 3.165 1.864 6.283 2.856 9.41.554 1.745 1.712 4.005 1.69 5.803-.886.407-2.057.108-3.022.322zM89.267 252.598c-1.851-5.834-4.052-11.683-5.567-17.61 1.136.258 1.816-.551 2.827-.523 1.134.032.945 1.551 1.216 2.598.818 3.165 1.864 6.283 2.856 9.41.554 1.745 1.712 4.005 1.69 5.802-.886.408-2.057.109-3.022.323zM107.069 246.948c-1.851-5.834-4.052-11.683-5.567-17.611 1.136.258 1.816-.55 2.827-.522 1.134.032.945 1.551 1.216 2.598.818 3.165 1.864 6.283 2.856 9.409.554 1.746 1.712 4.005 1.69 5.803-.886.407-2.061.109-3.022.323zM124.868 241.299c-1.852-5.834-4.053-11.683-5.568-17.611 1.136.258 1.816-.55 2.827-.522 1.134.032.945 1.551 1.217 2.598.817 3.164 1.863 6.283 2.855 9.409.554 1.746 1.712 4.005 1.69 5.803-.886.407-2.057.108-3.021.323zM142.67 235.648c-1.852-5.833-4.053-11.683-5.568-17.61 1.136.258 1.816-.55 2.827-.523 1.134.032.946 1.552 1.217 2.598.817 3.165 1.863 6.283 2.856 9.41.554 1.745 1.711 4.005 1.689 5.803-.886.407-2.057.108-3.021.322zM160.472 229.998c-1.852-5.834-4.053-11.683-5.568-17.61 1.136.258 1.816-.551 2.827-.523 1.134.032.946 1.551 1.217 2.598.817 3.165 1.863 6.283 2.856 9.41.554 1.745 1.711 4.005 1.689 5.802-.886.408-2.057.109-3.021.323zM178.27 224.349c-1.851-5.834-4.052-11.683-5.567-17.611 1.136.258 1.816-.55 2.827-.522 1.134.032.945 1.551 1.216 2.598.818 3.165 1.864 6.283 2.856 9.41.554 1.745 1.711 4.005 1.69 5.802-.882.406-2.057.108-3.022.323zM196.072 218.699c-1.851-5.834-4.052-11.683-5.567-17.611 1.136.258 1.816-.55 2.827-.522 1.134.032.945 1.551 1.216 2.598.818 3.164 1.864 6.283 2.856 9.409.554 1.746 1.711 4.005 1.69 5.803-.886.407-2.057.108-3.022.323zM213.874 213.048c-1.851-5.834-4.052-11.683-5.567-17.61 1.136.258 1.816-.551 2.827-.523 1.134.032.945 1.552 1.216 2.598.818 3.165 1.864 6.283 2.856 9.41.554 1.745 1.711 4.005 1.69 5.802-.886.408-2.057.109-3.022.323zM231.677 207.398c-1.852-5.834-4.053-11.683-5.568-17.611 1.136.258 1.816-.55 2.827-.522 1.134.032.945 1.551 1.217 2.598.817 3.165 1.863 6.283 2.856 9.409.554 1.746 1.711 4.006 1.689 5.803-.886.408-2.057.108-3.021.323zM249.475 201.749c-1.852-5.834-4.052-11.683-5.568-17.611 1.136.258 1.816-.55 2.827-.522 1.134.032.946 1.551 1.217 2.598.817 3.165 1.863 6.283 2.856 9.409.554 1.746 1.711 4.005 1.689 5.803-.886.407-2.057.108-3.021.323zM267.277 196.098c-1.851-5.833-4.052-11.683-5.568-17.61 1.137.258 1.817-.55 2.827-.523 1.135.032.946 1.552 1.217 2.598.817 3.165 1.864 6.283 2.856 9.41.554 1.745 1.711 4.005 1.689 5.803-.885.407-2.056.108-3.021.322zM285.079 190.448c-1.851-5.834-4.052-11.683-5.568-17.61 1.137.258 1.817-.551 2.828-.523 1.134.032.945 1.551 1.216 2.598.817 3.165 1.864 6.283 2.856 9.41.554 1.745 1.711 4.005 1.689 5.802-.885.408-2.056.109-3.021.323zM302.881 184.798c-1.851-5.834-4.052-11.683-5.568-17.611 1.137.258 1.817-.55 2.828-.522 1.134.032.945 1.551 1.216 2.598.817 3.165 1.864 6.283 2.856 9.409.554 1.746 1.711 4.005 1.689 5.803-.885.407-2.06.109-3.021.323zM320.679 179.149c-1.851-5.834-4.052-11.683-5.567-17.611 1.136.258 1.816-.55 2.827-.522 1.134.032.945 1.551 1.216 2.598.817 3.164 1.864 6.283 2.856 9.409.554 1.746 1.711 4.005 1.689 5.803-.885.407-2.056.108-3.021.323z" fill="#D86C00"/><path d="M322.243 162.168c-8.594 2.71-17.489 5.019-26.279 7.809-8.288 2.63-16.467 5.409-24.622 8.307-6.056 2.153-12.086 3.523-18.205 5.465-24.056 7.635-47.959 16.176-72.092 23.413-40.451 12.133-80.725 24.38-121.008 37.166l-.902-2.842c40.287-12.787 80.557-25.033 121.008-37.166 24.133-7.237 48.036-15.778 72.092-23.413 6.119-1.942 12.149-3.312 18.205-5.465 8.155-2.897 16.334-5.676 24.622-8.307 8.79-2.79 17.685-5.099 26.279-7.809l.902 2.842z" fill="#D86C00"/><path fill-rule="evenodd" clip-rule="evenodd" d="M505.214 436.199c24.668-10.422 58.408-24.676 65.249-96.666a69.65 69.65 0 00.343-3.944c.04-.504.079-1.011.116-1.52a23.85 23.85 0 00-.003-3.765c-.155-9.591-2.288-19.048-6.649-26.267a34.021 34.021 0 00-3.849-5.23c-6.918-7.793-16.207-11.084-24.99-13.808-124.251-38.512-252.582-50.024-379.222-34.009-20.984 2.655-42.667 6.403-60.72 21.951-7.13 6.143-13.542 14.623-18.375 24.455-4.972 10.075-8.3 21.564-9.077 33.385l-.175-.013c-6.66 23.094.129 58.733 18.302 72.819 36.658 35.898 90.597 39.447 140.017 41.117l80.314 2.712 80.448 2.716c39.24 1.322 79.738 2.426 116.286-13.092.649-.276 1.305-.553 1.968-.833l.017-.008z" fill="#fff"/><g clip-path="url(#prefix__clip0)"><path d="M495.177 426.25c-34.958 13.717-73.694 12.742-111.226 11.573l-153.767-4.798c-47.269-1.476-98.862-4.614-133.925-36.346-17.382-12.452-23.876-43.956-17.505-64.37 131.877 8.63 262.875 14.21 394.462 1.907 20.151-1.881 89.275-31.311 86.709 1.011-5.519 69.633-40.45 81.488-64.748 91.023z" fill="#666"/><path d="M558.765 344.427c-1.679 8.155-4.948 15.546-9.087 22.031a74.518 74.518 0 01-6.687 8.955c-21.354 24.588-51.215 30.581-79.38 34.395a1036.75 1036.75 0 01-139.513 9.368c-21.389-.009-42.884.026-64.115-3.19-18.665-2.83-37.401.957-56.259.087-24.237-1.116-48.385-5.966-71.769-14.499-17.312-6.327-35.968-17.163-45.96-35.599-2.918-5.361-5.097-11.371-6.292-18.103-2.794-15.686.8-31.767 7.9-45.063 4.623-8.691 10.756-16.187 17.576-21.618 17.267-13.744 38.006-17.057 58.078-19.403 121.129-14.157 243.876-3.981 362.721 30.063 8.401 2.407 17.285 5.316 23.902 12.206a30.395 30.395 0 013.682 4.622c6.248 9.561 7.716 23.56 5.203 35.748z" fill="#999"/><path d="M558.765 344.427c-1.679 8.155-4.948 15.546-9.087 22.031-34.922-.035-69.845 4.781-104.767 5.405-93.229 1.678-186.466.439-279.695.342-26.407-.026-52.814-6.204-79.221-6.23-2.918-5.361-5.097-11.372-6.292-18.103-2.197-12.338-.44-24.922 3.867-36.196a74.91 74.91 0 014.033-8.867c33.182-.703 66.716.817 99.767.835 84.309.052 168.627-2.54 252.936-2.487 7.918 0 70.768 2.882 109.574 2.9a30.395 30.395 0 013.682 4.622 31.537 31.537 0 012.32 4.227c4.262 9.192 5.044 21.029 2.883 31.521z" fill="#666"/><path d="M558.765 344.427c-1.679 8.155-4.948 15.546-9.087 22.031-34.922-.035-69.845 4.781-104.767 5.405-93.229 1.678-186.466.439-279.695.342-26.407-.026-52.814-6.204-79.221-6.23-2.918-5.361-5.097-11.371-6.292-18.103-2.197-12.338-.44-24.922 3.867-36.196 29.333.052 58.78.993 87.903 1.01 94.468.053 188.944-2.539 283.412-2.487 7.496 0 58.992 2.057 100.997 2.707 4.262 9.192 5.044 21.029 2.883 31.521z" fill="#CCC"/><path d="M134.081 345.623c19.28.017 38.552.026 57.832.044-.448-3.665-.887-7.329-1.336-10.994a177.302 177.302 0 00-38.27-2.417c-3.612.159-15.598-.711-18.199 1.881-1.081 1.055.307 11.486-.027 11.486z" fill="#FFF2EA"/><path d="M277.918 345.623c19.281.017 38.552.026 57.832.044-.448-3.665-.887-7.329-1.336-10.994a177.302 177.302 0 00-38.27-2.417c-3.612.159-15.598-.711-18.199 1.881-1.072 1.055.316 11.486-.027 11.486zM421.764 345.623c19.28.017 38.552.026 57.832.044-.448-3.665-.887-7.329-1.336-10.994a177.302 177.302 0 00-38.27-2.417c-3.612.159-15.598-.711-18.199 1.881-1.072 1.055.316 11.486-.027 11.486z" fill="#fff"/><path opacity=".7" d="M317.495 363.989c105.21 0 190.5-9.85 190.5-22s-85.29-22-190.5-22-190.5 9.85-190.5 22 85.29 22 190.5 22z" fill="#666"/></g><path d="M131.238 261.919c-1.65 4.046-2.908 8.468-6.011 11.552-2.293 2.274-5.438 3.627-7.409 6.18-3.719 4.8-.993 13.032 4.864 14.664 2.517.698 5.34.363 7.605 1.66 3.872 2.219 4.138 7.925 7.521 10.827 2.181 1.856 5.228 2.204 7.87 3.334 9.66 4.116 11.435 16.799 17.46 25.379 6.543 9.306 18.802 13.687 30.098 12.264 11.295-1.423 21.514-8.037 28.895-16.687 3.858-4.506 7.199-9.738 12.399-12.598 5.187-2.847 11.393-2.902 17.307-2.888 44.062.111 88.111.237 132.173.348 6.99.014 14.427.154 20.298 3.949 3.998 2.581 6.808 6.585 9.995 10.115 10.541 11.706 26.659 18.793 42.301 16.714 15.643-2.079 29.958-14.161 32.865-29.634 1.091-5.79.769-12.166 4.096-17.049 1.245-1.841 2.95-3.348 4.082-5.246 3.551-5.985.657-14.189 4.152-20.202 1.594-2.735 4.306-4.632 6.333-7.06 4.208-5.05 5.074-12.626 2.125-18.5-2.95-5.874-9.534-9.725-16.104-9.39-2.978.154-5.928 1.075-8.905.768-4.068-.419-7.507-3.028-10.918-5.274-9.604-6.32-20.689-10.38-32.11-11.734-6.221-.739-12.652-.711-18.495-2.944-13.574-5.176-19.85-20.383-29.636-31.098-6.207-6.795-14.049-11.929-22.227-16.185-27.259-14.203-53.023-23.843-83.707-21.946-30.685 1.898-59.3 9.208-87.636 21.109-13.267 5.581-35.2 20.426-35.759 34.768-.461 11.915-1.44 16.241-10.079 24.193-9.436 8.678-18.551 18.612-23.443 30.611z" fill="#FFF2EA"/><path d="M174.14 215.541c-4.516 11.915-15.447 19.952-24.268 29.16-6.445 6.725-12.008 14.496-14.93 23.327-2.922 8.832-2.978 18.85 1.146 27.193 1.79 3.627 5.802 7.283 9.408 5.455 2.754-1.395 3.244-5.009 3.915-8.008 1.873-8.455 7.66-15.599 14.356-21.11 11.966-9.85 28.238-15.444 43.28-11.705 15.042 3.739 27.581 18.319 26.057 33.721-.405 4.088-1.286 9.195 2.167 11.427 1.496.963 3.383 1.005 5.158 1.019l59.328.376c5.047.028 10.079.07 15.126.098 27.721.181 55.455.349 83.176.53 3.565.028 7.675-.195 9.87-3 1.244-1.59 1.579-3.697 1.999-5.678 3.606-17.342 11.449-32.661 34.221-37.377 14.51-3.014 32.124 9.069 35.227 21.081.615 2.358 1.063 4.855 2.433 6.864 1.384 2.01 4.18 3.363 6.318 2.163 2.013-1.13 2.447-3.795 2.614-6.097.979-12.892.532-27.402-8.667-36.512-4.151-4.116-9.617-6.585-15.055-8.72a200.49 200.49 0 00-51.192-12.738c-2.74-.307-5.564-.586-8.038-1.8-3.397-1.674-5.83-5.148-6.249-8.901-7.227-9.697-14.552-20.258-23.807-28.044-7.604-6.404-16.355-11.301-25.33-15.598-13.378-6.39-27.511-11.524-42.245-13.24-18.411-2.149-37.017 1.13-55.12 5.12-19.543 4.311-38.988 9.529-57.175 17.859-6.808 3.125-13.588 6.794-18.509 12.445-4.921 5.65-7.493 13.561-5.214 20.69z" fill="#013507"/><path d="M342.044 184.024c19.362 9.027 27.442 13.924 37.702 28.811.853 1.241 1.426 2.79 1.147 4.283-.56 3.055-6.85 4.869-9.898 5.371-24.338 3.991-50.968 4.912-83.288 2.763-.811-.056-1.594-.126-2.363-.363-6.276-1.897-4.836-11.106-4.836-19.616 0-5.944.125-12.892 0-18.793-.378-16.98 20.899-14.887 30.628-12.613 9.995 2.33 21.612 5.818 30.908 10.157zM223.724 187.903c-12.386 6.027-25.82 13.198-31.677 28.196-.503 1.284-.936 2.721-.657 4.116.587 2.888 3.579 3.279 5.913 3.642 18.663 2.832 40.75 3.711 65.144.404.615-.083 1.202-.181 1.775-.446 4.669-2.051 3.117-10.743 2.698-18.835-.294-5.651-.447-8.65-.531-14.259-.196-12.334-9.702-10.464-17.866-9.683-7.842.754-17.586 3.377-24.799 6.865z" fill="#FFF2EA"/><path d="M192.327 338.179c-5.927 0-11.435-1.479-16.537-4.423-3.845-2.358-6.85-5.372-8.989-9.027-4.585-6.892-6.878-14.468-6.878-22.728 0-4.827.853-9.64 2.558-14.412.154-.237.252-.502.336-.795a32.737 32.737 0 012.222-5.037c5.844-8.845 13.91-13.268 24.199-13.268 4.221 0 8.359.795 12.427 2.386 4.068 1.59 7.619 3.92 10.652 6.99 5.48 5.538 8.947 11.942 10.429 19.197.363 1.884.559 4.074.559 6.544 0 1.409-.112 2.86-.336 4.339-.447 3.837-1.37 7.339-2.781 10.52-1.846 3.711-3.705 6.724-5.55 9.027-2.293 2.832-5.145 5.245-8.541 7.255-4.446 2.274-9.045 3.432-13.77 3.432zm-.447-14.775c.363 0 1.188-.21 2.446-.614 1.258-.419 3.033-2.274 5.326-5.567a16.467 16.467 0 001.887-3.014v-.181c1.328-2.776 2.181-5.218 2.558-7.339l.112-.265c.224-1.004.336-1.981.336-2.916 0-1.827-.154-3.418-.448-4.771-.447-2.414-1.425-4.856-2.935-7.297-1.524-2.442-3.09-4.353-4.711-5.707-3.257-2.246-5.816-3.362-7.661-3.362-1.999 0-3.788 1.451-5.382 4.339a29.933 29.933 0 00-3.271 9.292 29.592 29.592 0 00-.671 6.278c0 5.777 1.817 11.315 5.438 16.631 2.712 2.986 5.046 4.493 6.976 4.493zM449.754 338.179c-5.927 0-11.435-1.479-16.537-4.423-3.844-2.358-6.85-5.372-8.989-9.027-4.585-6.892-6.877-14.468-6.877-22.728 0-4.827.852-9.64 2.558-14.412.154-.237.251-.502.335-.795a32.646 32.646 0 012.223-5.037c5.843-8.845 13.909-13.268 24.198-13.268 4.222 0 8.36.795 12.428 2.386 4.068 1.59 7.618 3.92 10.652 6.99 5.48 5.538 8.946 11.942 10.428 19.197.364 1.884.559 4.074.559 6.544a29 29 0 01-.335 4.339c-.447 3.837-1.37 7.339-2.782 10.52-1.845 3.711-3.704 6.724-5.55 9.027-2.292 2.832-5.144 5.245-8.541 7.255-4.445 2.274-9.031 3.432-13.77 3.432zm-.447-14.775c.364 0 1.188-.21 2.446-.614 1.259-.419 3.034-2.274 5.327-5.567a16.52 16.52 0 001.887-3.014v-.181c1.328-2.776 2.18-5.218 2.558-7.339l.112-.265c.223-1.004.335-1.981.335-2.916 0-1.827-.153-3.418-.447-4.771-.447-2.414-1.426-4.856-2.936-7.297-1.523-2.442-3.089-4.353-4.711-5.707-3.257-2.246-5.815-3.362-7.66-3.362-1.999 0-3.789 1.451-5.382 4.339a29.907 29.907 0 00-3.271 9.292 29.528 29.528 0 00-.671 6.278c0 5.777 1.817 11.315 5.437 16.631 2.726 2.986 5.061 4.493 6.976 4.493zM290.113 234.063c-1.133.488-2.377 1.507-2.055 2.693.154.586.671 1.004 1.188 1.339 2.698 1.716 6.081 1.898 9.296 1.898 3.467 0 6.92-.14 10.373-.433 1.16-.098 2.348-.223 3.341-.823.992-.6 1.705-1.814 1.356-2.916-.406-1.256-1.887-1.772-3.187-2.009-6.137-1.13-14.483-2.232-20.312.251z" fill="#F98E12"/><path d="M126.722 289.459c1.664.739 3.509.879 5.326 1.004 4.432.279 10.82.07 13.015-4.744 1.719-3.767-1.985-7.282-5.941-7.813-3.132-.418-8.975.67-11.771 1.912-4.445 1.939-5.647 7.422-.629 9.641z" fill="#D86C00"/><path d="M487.596 260.55c1.021 2.079 2.307 4.27 4.474 5.107 2.124.837 4.613.111 6.458-1.256 5.41-4.046 5.074-11.762-1.356-14.594-6.375-2.818-12.372 4.995-9.576 10.743zM473.924 258.904c.49 1.325 1.902 2.274 3.3 2.135 3.019-.293 5.955-5.609 2.376-7.214-2.95-1.311-6.808 2.01-5.676 5.079z" fill="#F98E12"/><path d="M104.726 269.477l-.001-.001c-1.541-1.814-4.203-2.639-6.503-2.013h-.002c-1.429.386-2.715 1.337-3.58 2.594l10.086-.58zm0 0c.777.913 2.177 2.704 3.111 4.532.469.919.778 1.768.871 2.472.091.691-.042 1.094-.262 1.35-.51.584-1.601.665-2.192.162a3.453 3.453 0 01-.487-.548 15.352 15.352 0 01-.286-.392h0c-.099-.138-.21-.292-.325-.443-.436-.575-1.13-1.389-2.276-1.628h-.002c-.977-.202-1.834.109-2.477.501-.633.387-1.165.915-1.563 1.347l-.003.003c-.437.477-.797.84-1.152 1.056-.306.187-.497.201-.698.133h-.002m7.743-8.545l-7.743 8.545m-2.21-5.563v.001a5.41 5.41 0 01.766 1.573l.001.005h0c.16.534.264 1.138.35 1.632.03.183.06.35.088.494.12.612.26 1.063.515 1.443l-1.72-5.148zm0 0c-.567-.785-.588-1.737-.133-2.401l.132 2.401zm2.21 5.563c-.153-.051-.335-.183-.49-.415l.49.415zM71.461 268.498c.887 1.577 2.31 2.855 4.03 3.435 3.263 1.1 7.21-.452 8.847-3.481.182-.335.34-.687.496-1.038.312-.699.624-1.396 1.13-1.962m-14.503 3.046l1.136-.638m-1.136.638l1.136-.638s0 0 0 0m-1.136.638c-.857-1.527-2.843-1.911-4.274-.9a8.291 8.291 0 01-1.231.722c-1.969.936-4.467.947-6.2-.377-.805-.612-1.364-1.541-1.588-2.527-.366-1.605-1.943-2.619-3.545-2.231-2.324.562-4.317-1.755-3.391-3.962l36.502-3.459c-.068.89.06 3.876.402 6.235m-15.54 5.861c.749 1.331 1.932 2.374 3.31 2.839m-3.31-2.839c-1.26-2.243-4.14-2.753-6.16-1.326-.33.233-.676.437-1.04.61h0c-1.647.784-3.6.719-4.85-.236l-.002-.001c-.538-.41-.943-1.062-1.106-1.78v-.001c-.523-2.287-2.789-3.772-5.12-3.207-1.3.314-2.393-.982-1.886-2.192v-.001c.516-1.23 1.4-2.427 2.412-3.388h0c.787-.747 1.62-1.409 2.502-2.109.385-.305.778-.618 1.182-.948 1.282-1.05 2.592-2.231 3.613-3.727h0c.525-.77.962-1.6 1.356-2.389l.332-.673c.274-.557.532-1.083.815-1.597.782-1.424 1.573-2.414 2.706-2.906h0c1.819-.791 4.208.029 6.269 1.611.702.539 1.344 1.111 2.024 1.717.33.294.669.597 1.028.907 1.057.913 2.227 1.836 3.603 2.509.838.411 1.745.72 2.555.995.205.07.404.138.594.205.993.348 1.825.693 2.522 1.204.525.385.758.689.87.903.102.2.14.404.128.681-.014.315-.089.662-.206 1.18l-.006.024c-.108.479-.244 1.077-.296 1.736v.004c-.078 1.022.063 4.112.412 6.521m-10.94 8.513s0 0 0 0l-.416 1.233.416-1.233zm0 0c2.663.897 5.95-.396 7.286-2.866v-.002c.16-.294.282-.569.424-.887.082-.183.17-.38.274-.603.26-.551.593-1.187 1.1-1.755m0 0l-.002.004.976.862m-.973-.866l.002-.003.97.869m-.972-.866a3.982 3.982 0 011.008-.81m-.035 1.676a2.67 2.67 0 01.68-.545m0 0L86 263.776m.644 1.131c1.043-.594 1.663-1.719 1.492-2.908m-1.492 2.908L86 263.776s0 0 0 0m0 0c.628-.358.933-.987.847-1.59m1.289-.187l-1.29.187m1.29-.187l-1.29.186v.001" fill="#013507" stroke="#FFF2EA" stroke-width="2.604"/><defs><clipPath id="prefix__clip0"><path fill="#fff" transform="translate(76.355 255.601)" d="M0 0h483.64v182.846H0z"/></clipPath></defs></svg>