<svg width="18" height="254" viewBox="0 0 18 254" fill="none" xmlns="http://www.w3.org/2000/svg">
    <path d="M9 5L9 160" stroke="#FFCDB6" stroke-width="2"/>
    <circle cx="9" cy="245" r="9" transform="rotate(90 9 245)" fill="#04D99D"/>
    <circle cx="9" cy="166" r="9" transform="rotate(90 9 166)" fill="#025949"/>
    <circle cx="9" cy="126" r="9" transform="rotate(90 9 126)" fill="#04D99D"/>
    <circle cx="9" cy="87" r="9" transform="rotate(90 9 87)" fill="#04D99D"/>
    <circle cx="9" cy="9" r="9" transform="rotate(90 9 9)" fill="#04D99D"/>
    <path d="M12 221.078C12 221.184 11.9633 221.278 11.89 221.358C11.81 221.431 11.7167 221.468 11.61 221.468L4.58 221.468C4.46667 221.468 4.37333 221.431 4.3 221.358C4.22667 221.284 4.19 221.191 4.19 221.078L4.19 216.388C4.19 216.274 4.22667 216.181 4.3 216.108C4.36667 216.034 4.45667 215.998 4.57 215.998C4.67 215.998 4.75667 216.034 4.83 216.108C4.90333 216.181 4.94 216.274 4.94 216.388L4.94 220.688L7.7 220.688L7.7 217.558C7.7 217.444 7.73667 217.351 7.81 217.278C7.88333 217.204 7.97333 217.168 8.08 217.168C8.18667 217.168 8.27667 217.204 8.35 217.278C8.42333 217.351 8.46 217.444 8.46 217.558L8.46 220.688L11.61 220.688C11.7167 220.688 11.81 220.724 11.89 220.798C11.9633 220.871 12 220.964 12 221.078ZM12.05 212.288C12.05 212.801 11.93 213.261 11.69 213.668C11.4433 214.074 11.11 214.398 10.69 214.638C10.27 214.871 9.79667 214.988 9.27 214.988C8.73667 214.988 8.26 214.868 7.84 214.628C7.42 214.381 7.09 214.048 6.85 213.628C6.60333 213.208 6.48 212.734 6.48 212.208C6.48 211.681 6.60333 211.211 6.85 210.798C7.09 210.378 7.42 210.048 7.84 209.808C8.26 209.561 8.73667 209.434 9.27 209.428L9.51 209.738C9.99 209.738 10.4233 209.851 10.81 210.078C11.19 210.298 11.4933 210.601 11.72 210.988C11.94 211.368 12.05 211.801 12.05 212.288ZM11.35 212.208C11.35 211.821 11.26 211.478 11.08 211.178C10.9 210.871 10.6533 210.631 10.34 210.458C10.02 210.278 9.66333 210.188 9.27 210.188C8.87 210.188 8.51333 210.278 8.2 210.458C7.88667 210.631 7.64 210.871 7.46 211.178C7.27333 211.478 7.18 211.821 7.18 212.208C7.18 212.588 7.27333 212.931 7.46 213.238C7.64 213.544 7.88667 213.788 8.2 213.968C8.51333 214.148 8.87 214.238 9.27 214.238C9.66333 214.238 10.02 214.148 10.34 213.968C10.6533 213.788 10.9 213.544 11.08 213.238C11.26 212.931 11.35 212.588 11.35 212.208ZM12 209.818C12 209.931 11.9667 210.024 11.9 210.098C11.8267 210.171 11.7333 210.208 11.62 210.208L9.91 210.208L9.12 210.018L9.27 209.428L11.62 209.428C11.7333 209.428 11.8267 209.464 11.9 209.538C11.9667 209.611 12 209.704 12 209.818ZM12.06 205.55C12.06 206.023 11.9633 206.447 11.77 206.82C11.57 207.193 11.28 207.49 10.9 207.71C10.52 207.923 10.0567 208.03 9.51 208.03L6.91 208.03C6.80333 208.03 6.71333 207.993 6.64 207.92C6.56667 207.847 6.53 207.757 6.53 207.65C6.53 207.537 6.56667 207.443 6.64 207.37C6.71333 207.297 6.80333 207.26 6.91 207.26L9.51 207.26C9.92333 207.26 10.2633 207.183 10.53 207.03C10.7967 206.87 10.9967 206.657 11.13 206.39C11.2633 206.117 11.33 205.81 11.33 205.47C11.33 205.143 11.2667 204.85 11.14 204.59C11.0133 204.323 10.84 204.113 10.62 203.96C10.4 203.807 10.15 203.73 9.87 203.73L9.87 203.18C10.29 203.2 10.6667 203.317 11 203.53C11.3267 203.737 11.5867 204.017 11.78 204.37C11.9667 204.723 12.06 205.117 12.06 205.55ZM12 203.35C12 203.463 11.9667 203.557 11.9 203.63C11.8267 203.697 11.73 203.73 11.61 203.73L6.91 203.73C6.79667 203.73 6.70667 203.697 6.64 203.63C6.56667 203.557 6.53 203.463 6.53 203.35C6.53 203.237 6.56667 203.143 6.64 203.07C6.70667 202.997 6.79667 202.96 6.91 202.96L11.61 202.96C11.73 202.96 11.8267 202.997 11.9 203.07C11.9667 203.143 12 203.237 12 203.35ZM12 196.472C12 196.586 11.9633 196.679 11.89 196.752C11.8167 196.826 11.7267 196.862 11.62 196.862L9.02 196.862C8.60667 196.862 8.26667 196.942 8 197.102C7.73333 197.256 7.53333 197.469 7.4 197.742C7.26667 198.009 7.2 198.312 7.2 198.652C7.2 198.979 7.26333 199.276 7.39 199.543C7.51667 199.802 7.69 200.009 7.91 200.162C8.13 200.316 8.38 200.392 8.66 200.392L8.66 200.943C8.24 200.929 7.86667 200.816 7.54 200.602C7.20667 200.389 6.94667 200.106 6.76 199.752C6.56667 199.399 6.47 199.006 6.47 198.572C6.47 198.099 6.57 197.676 6.77 197.302C6.96333 196.929 7.25 196.636 7.63 196.422C8.01 196.203 8.47333 196.093 9.02 196.093L11.62 196.093C11.7267 196.093 11.8167 196.129 11.89 196.202C11.9633 196.276 12 196.366 12 196.472ZM12 200.773C12 200.893 11.9667 200.989 11.9 201.063C11.8267 201.129 11.7333 201.163 11.62 201.163L6.92 201.163C6.8 201.163 6.70667 201.129 6.64 201.063C6.56667 200.989 6.53 200.892 6.53 200.772C6.53 200.659 6.56667 200.569 6.64 200.503C6.70667 200.429 6.8 200.392 6.92 200.392L11.62 200.393C11.7333 200.393 11.8267 200.429 11.9 200.503C11.9667 200.569 12 200.659 12 200.773ZM12.05 191.915C12.05 192.455 11.9333 192.935 11.7 193.355C11.46 193.768 11.13 194.095 10.71 194.335C10.29 194.568 9.81 194.685 9.27 194.685C8.72333 194.685 8.24333 194.575 7.83 194.355C7.41 194.128 7.08 193.818 6.84 193.425C6.6 193.032 6.48 192.578 6.48 192.065C6.48 191.558 6.59667 191.118 6.83 190.745C7.05667 190.365 7.37333 190.072 7.78 189.865C8.18667 189.658 8.65 189.555 9.17 189.555C9.27667 189.555 9.36333 189.588 9.43 189.655C9.49 189.722 9.52 189.808 9.52 189.915L9.52 194.165L8.88 194.165L8.88 189.835L9.19 190.265C8.80333 190.258 8.45667 190.328 8.15 190.475C7.84333 190.622 7.60333 190.832 7.43 191.105C7.25667 191.372 7.17 191.692 7.17 192.065C7.17 192.445 7.26 192.778 7.44 193.065C7.62 193.352 7.87 193.575 8.19 193.735C8.50333 193.888 8.86333 193.965 9.27 193.965C9.67667 193.965 10.0367 193.878 10.35 193.705C10.6633 193.525 10.91 193.282 11.09 192.975C11.27 192.668 11.36 192.315 11.36 191.915C11.36 191.675 11.32 191.435 11.24 191.195C11.1533 190.948 11.0467 190.752 10.92 190.605C10.86 190.532 10.83 190.448 10.83 190.355C10.8233 190.262 10.8467 190.182 10.9 190.115C10.98 190.028 11.0667 189.985 11.16 189.985C11.2533 189.978 11.3333 190.015 11.4 190.095C11.5867 190.315 11.7433 190.595 11.87 190.935C11.99 191.275 12.05 191.602 12.05 191.915Z" fill="#45396D"/>
    <circle cx="9" cy="48" r="9" transform="rotate(90 9 48)" fill="#04D99D"/>
</svg>
