<svg width="328" height="212" viewBox="0 0 328 212" fill="none" xmlns="http://www.w3.org/2000/svg">
<path d="M117.97 153.633V150.333H71.0499L112.07 132.003L110.72 128.993L67.7399 148.203L103.34 113.993L101.05 111.623L65.3699 145.903L86.1599 103.533L83.1999 102.083L63.0699 143.113V95.4426H59.7799V147.893L58.4099 146.463L38.2099 101.273L35.1999 102.623L51.6599 139.443L23.4399 110.073L21.0599 112.363L55.6299 148.333L56.4099 150.083L9.73988 127.183L8.28988 130.143L49.4499 150.333H4.87988V153.633H55.5899L7.47988 175.133L8.82988 178.143L51.8199 158.933L19.5099 189.973L21.7999 192.353L54.1799 161.233L33.3899 203.603L36.3499 205.053L59.7099 157.453L59.7799 157.613V208.533H63.0699V164.983L81.3399 205.863L84.3499 204.523L63.1399 157.053L64.7899 157.863L99.4099 193.893L101.79 191.613L73.4399 162.113L109.81 179.963L111.26 177.003L66.7599 155.163L65.2999 153.633H117.97Z" fill="#F0EADB" stroke="black" stroke-miterlimit="10"/>
<path d="M323.12 153.633V150.333H276.21L317.23 132.003L315.88 128.993L272.9 148.203L308.49 113.993L306.21 111.623L270.53 145.903L291.32 103.533L288.36 102.083L268.23 143.113V95.4426H264.93V147.893L263.57 146.463L243.37 101.273L240.36 102.623L256.81 139.443L228.59 110.073L226.22 112.363L260.79 148.333L261.57 150.083L214.9 127.183L213.45 130.143L254.6 150.333H210.04V153.633H260.75L212.64 175.133L213.99 178.143L256.97 158.933L224.67 189.973L226.96 192.353L259.34 161.233L238.55 203.603L241.51 205.053L264.86 157.453L264.93 157.613V208.533H268.23V164.983L286.5 205.863L289.51 204.523L268.3 157.053L269.95 157.863L304.57 193.893L306.95 191.613L278.6 162.113L314.97 179.963L316.42 177.003L271.92 155.163L270.45 153.633H323.12Z" fill="#F0EADB" stroke="black" stroke-miterlimit="10"/>
<path d="M253.37 72.6726L244.6 76.4026L247.14 83.3126L259.61 76.1026L253.37 72.6726Z" fill="#F0EADB" stroke="black" stroke-width="2" stroke-miterlimit="10"/>
<path d="M73.37 145.453L106.91 103.963C106.91 103.963 111.81 99.0626 122.38 100.193C122.19 100.003 122.38 105.283 122.38 105.283C122.38 105.283 112.76 104.713 108.23 110.753C103.7 116.983 73.37 156.243 73.37 156.243L71.21 153.383L73.37 145.453Z" fill="#022C25" stroke="black" stroke-width="2" stroke-miterlimit="10"/>
<path d="M98.3398 46.9026L137.99 151.983H146.42L104.78 46.9026H98.3398Z" fill="#F0EADB" stroke="black" stroke-width="2" stroke-miterlimit="10"/>
<path d="M151.1 140.683C151.1 140.683 158.07 140.503 167.38 134.553C172.38 131.353 176.03 127.323 180.11 122.333C194.33 103.823 227.1 64.3226 227.1 64.3226L232.54 76.2226L189.03 133.623C184.64 139.413 178.53 143.733 171.55 145.743C167.97 146.773 163.75 147.503 158.97 147.503C159.14 147.803 144.46 147.503 144.46 147.503L151.1 140.683Z" fill="#F0EADB" stroke="black" stroke-width="2" stroke-miterlimit="10"/>
<path d="M61.43 90.2327C28.18 90.2327 1.22998 117.183 1.22998 150.423C1.22998 183.673 28.18 210.623 61.43 210.623C94.67 210.623 121.62 183.673 121.62 150.423C121.62 117.193 94.67 90.2327 61.43 90.2327ZM61.43 201.423C33.27 201.423 10.44 178.593 10.44 150.433C10.44 122.283 33.27 99.4527 61.43 99.4527C89.58 99.4527 112.41 122.283 112.41 150.433C112.41 178.593 89.58 201.423 61.43 201.423Z" fill="#F0EADB" stroke="black" stroke-width="2" stroke-miterlimit="10"/>
<path d="M266.59 90.2327C233.34 90.2327 206.39 117.183 206.39 150.423C206.39 183.673 233.34 210.623 266.59 210.623C299.83 210.623 326.78 183.673 326.78 150.423C326.78 117.193 299.83 90.2327 266.59 90.2327ZM266.59 201.423C238.43 201.423 215.6 178.593 215.6 150.433C215.6 122.283 238.43 99.4527 266.59 99.4527C294.74 99.4527 317.57 122.283 317.57 150.433C317.57 178.593 294.74 201.423 266.59 201.423Z" fill="#F0EADB" stroke="black" stroke-width="2" stroke-miterlimit="10"/>
<path d="M16.02 93.7627V101.473C16.02 101.473 17.79 106.983 22.71 113.083C27.63 119.183 48.87 150.853 48.87 150.853H56.65V146.483H52.21L30.21 114.243C30.21 114.243 28.24 107.983 32.54 103.153C36.84 98.3226 43.2 92.2327 56.65 92.2327C70.1 92.2327 112.95 98.3626 117.06 146.123C117.33 146.943 126.39 146.123 126.39 146.123C126.39 146.123 124.47 78.8826 47.62 83.5426C47.39 83.3126 31.61 90.3326 20.93 89.3626C18.3 89.1326 16.02 91.1327 16.02 93.7627Z" fill="#EF6C46" stroke="black" stroke-width="2" stroke-miterlimit="10"/>
<path d="M83.5701 43.6226C82.1101 42.1426 81.2401 40.1426 81.3601 38.0626C81.4301 36.8526 81.8201 35.5926 82.8801 34.6626C82.5501 34.8826 84.2201 32.4026 90.3201 33.9826C92.4501 34.5326 94.6101 34.9526 96.8101 35.1526C102.97 35.7026 114.42 36.1926 121.96 33.4626C127.1 31.6626 130.72 32.4326 133.17 33.8526C135.95 35.4726 135.87 39.5126 133.03 41.0326L113.18 51.6126C113.18 51.6126 98.7301 59.0126 83.5701 43.6226Z" fill="#022C25" stroke="black" stroke-width="2" stroke-miterlimit="10"/>
<path d="M144.45 139.333H67.8301V147.483H143.04L144.45 139.333Z" fill="#F0EADB" stroke="black" stroke-width="2" stroke-miterlimit="10"/>
<path d="M59.7401 165.513C67.8366 165.513 74.4001 158.949 74.4001 150.853C74.4001 142.756 67.8366 136.193 59.7401 136.193C51.6436 136.193 45.0801 142.756 45.0801 150.853C45.0801 158.949 51.6436 165.513 59.7401 165.513Z" fill="#022C25" stroke="black" stroke-width="2" stroke-miterlimit="10"/>
<path d="M59.7401 158.473C63.9485 158.473 67.3601 155.061 67.3601 150.853C67.3601 146.644 63.9485 143.233 59.7401 143.233C55.5317 143.233 52.1201 146.644 52.1201 150.853C52.1201 155.061 55.5317 158.473 59.7401 158.473Z" fill="#F0EADB" stroke="black" stroke-width="2" stroke-miterlimit="10"/>
<path d="M144.45 173.293C153.828 173.293 161.43 165.69 161.43 156.313C161.43 146.935 153.828 139.333 144.45 139.333C135.072 139.333 127.47 146.935 127.47 156.313C127.47 165.69 135.072 173.293 144.45 173.293Z" fill="#022C25" stroke="black" stroke-width="2" stroke-miterlimit="10"/>
<path d="M144.45 165.133C149.321 165.133 153.27 161.184 153.27 156.313C153.27 151.442 149.321 147.493 144.45 147.493C139.579 147.493 135.63 151.442 135.63 156.313C135.63 161.184 139.579 165.133 144.45 165.133Z" fill="#F0EADB" stroke="black" stroke-width="2" stroke-miterlimit="10"/>
<path d="M209.93 18.3326C209.76 21.2726 210.23 24.2226 211.3 26.9626L237.49 93.8626L262.29 152.523L271.36 149.193L230.23 37.3126C230.23 37.3126 231.2 32.3026 233.87 28.6226C236.54 24.9526 239.38 16.6126 239.38 16.6126C239.38 16.6126 241.72 11.6026 238.38 9.60262C236.13 8.25262 229.49 4.71261 225.4 2.54261C222.17 0.832615 218.35 0.492615 214.93 1.78261C212.56 2.68261 210.38 4.33261 209.82 7.36261C209.64 8.31261 208.91 9.07262 207.98 9.35262C206.22 9.88262 203.45 10.8126 201.3 11.5426C199.64 12.1126 198.85 14.0026 199.62 15.5826C200.31 17.0026 202 17.6126 203.43 16.9726L206.18 15.7426C208 14.9226 210.04 16.3326 209.93 18.3326Z" fill="#F0EADB" stroke="black" stroke-width="2" stroke-miterlimit="10"/>
<path d="M239.14 35.2626L252.12 69.3926C253.4 72.7526 256.24 75.3226 259.75 76.1326C261.07 76.4326 262.62 76.6326 264.43 76.6326H280.24C285.18 76.6326 289.56 73.4026 290.97 68.6726C290.99 68.6026 291.01 68.5226 291.03 68.4526C293.14 61.0726 301.57 35.2626 301.57 35.2626" stroke="black" stroke-width="2" stroke-miterlimit="10" stroke-linecap="round" stroke-linejoin="round"/>
<path d="M239.14 41.8527H301.57" stroke="black" stroke-width="2" stroke-miterlimit="10" stroke-linecap="round" stroke-linejoin="round"/>
<path d="M241.88 51.0927H300.47" stroke="black" stroke-width="2" stroke-miterlimit="10" stroke-linecap="round" stroke-linejoin="round"/>
<path d="M244.61 58.7926H298.29" stroke="black" stroke-width="2" stroke-miterlimit="10" stroke-linecap="round" stroke-linejoin="round"/>
<path d="M261.14 76.4026L264.5 44.4026C264.5 44.4026 265.4 37.9426 268.63 37.9426C268.86 37.9426 271.36 37.9426 271.36 37.9426" stroke="black" stroke-width="2" stroke-miterlimit="10" stroke-linecap="round" stroke-linejoin="round"/>
<path d="M281.57 76.4026L278.21 44.4026C278.21 44.4026 277.31 37.9426 274.08 37.9426C273.85 37.9426 271.35 37.9426 271.35 37.9426" stroke="black" stroke-width="2" stroke-miterlimit="10" stroke-linecap="round" stroke-linejoin="round"/>
<path d="M117.46 74.8326H105.63C104.31 74.8326 103.23 73.7626 103.23 72.4326C103.23 71.1126 104.3 70.0326 105.63 70.0326H117.46C118.78 70.0326 119.86 71.1026 119.86 72.4326C119.86 73.7526 118.78 74.8326 117.46 74.8326Z" fill="#022C25" stroke="black" stroke-width="2" stroke-miterlimit="10"/>
<path d="M225.59 110.773H203.98C202.66 110.773 201.58 109.703 201.58 108.373C201.58 107.053 202.65 105.973 203.98 105.973H225.59C226.91 105.973 227.99 107.043 227.99 108.373C227.98 109.693 226.91 110.773 225.59 110.773Z" fill="#022C25" stroke="black" stroke-width="2" stroke-miterlimit="10"/>
<path d="M125.72 178.173H112.95C111.33 178.173 110.02 176.863 110.02 175.243C110.02 173.623 111.33 172.313 112.95 172.313H125.72C127.34 172.313 128.65 173.623 128.65 175.243C128.65 176.863 127.34 178.173 125.72 178.173Z" fill="#EF6C46" stroke="black" stroke-width="2" stroke-miterlimit="10"/>
<path d="M117.91 172.313H125.98L145.93 158.743C147.67 157.563 147.84 154.963 146.14 153.713C145.98 153.593 145.79 153.483 145.59 153.373C144.53 152.843 143.26 153.023 142.33 153.753C137.46 157.593 117.91 172.313 117.91 172.313Z" fill="#F0EADB" stroke="black" stroke-width="2" stroke-miterlimit="10"/>
<path d="M119.55 176.783C120.428 176.783 121.14 176.071 121.14 175.193C121.14 174.315 120.428 173.603 119.55 173.603C118.672 173.603 117.96 174.315 117.96 175.193C117.96 176.071 118.672 176.783 119.55 176.783Z" fill="#F0EADB" stroke="black" stroke-width="2" stroke-miterlimit="10"/>
<path d="M266.25 165.513C274.346 165.513 280.91 158.949 280.91 150.853C280.91 142.756 274.346 136.193 266.25 136.193C258.153 136.193 251.59 142.756 251.59 150.853C251.59 158.949 258.153 165.513 266.25 165.513Z" fill="#022C25" stroke="black" stroke-width="2" stroke-miterlimit="10"/>
<path d="M266.25 158.473C270.458 158.473 273.87 155.061 273.87 150.853C273.87 146.644 270.458 143.233 266.25 143.233C262.041 143.233 258.63 146.644 258.63 150.853C258.63 155.061 262.041 158.473 266.25 158.473Z" fill="#F0EADB" stroke="black" stroke-width="2" stroke-miterlimit="10"/>
<path d="M251.07 65.6127H291.75C291.75 71.7327 286.89 76.6927 280.9 76.6927H261.91C255.92 76.6927 251.07 71.7327 251.07 65.6127Z" fill="#EF6C46" stroke="black" stroke-width="2" stroke-miterlimit="10"/>
<path d="M233.87 28.6326C231.2 32.3026 230.23 37.3226 230.23 37.3226L237.08 55.9626H222.64L211.3 26.9626C210.23 24.2226 209.76 21.2826 209.93 18.3326C210.04 16.3326 208 14.9226 206.17 15.7326L203.42 16.9626C203.03 17.1326 202.63 17.2126 202.23 17.2126C201.15 17.2126 200.11 16.6026 199.6 15.5726C198.83 13.9926 199.63 12.1026 201.29 11.5426C203.44 10.8126 206.21 9.88262 207.97 9.36262C208.9 9.08262 209.63 8.32262 209.8 7.37262C210.36 4.34262 212.54 2.69262 214.91 1.79262C218.33 0.502624 222.16 0.842624 225.38 2.55262C229.48 4.72262 236.12 8.27262 238.36 9.61262C241.7 11.6126 239.36 16.6226 239.36 16.6226C239.36 16.6226 236.54 24.9626 233.87 28.6326Z" fill="#022C25" stroke="black" stroke-width="2" stroke-miterlimit="10"/>
<path d="M201.86 17.5426C203.644 17.5426 205.09 16.0965 205.09 14.3126C205.09 12.5288 203.644 11.0826 201.86 11.0826C200.076 11.0826 198.63 12.5288 198.63 14.3126C198.63 16.0965 200.076 17.5426 201.86 17.5426Z" fill="#F0EADB" stroke="black" stroke-width="2" stroke-miterlimit="10"/>
</svg>
