<svg width="369" height="207" viewBox="0 0 369 207" fill="none" xmlns="http://www.w3.org/2000/svg">
<path d="M357.816 146.673V143.797H316.99L352.687 127.823L351.515 125.201L314.108 141.938L345.087 112.133L343.103 110.069L312.057 139.933L330.149 103.026L327.57 101.754L310.054 137.497V95.9728H307.182V141.664L305.99 140.432L288.415 101.05L285.797 102.223L300.119 134.308L275.559 108.719L273.497 110.714L303.577 142.055L304.261 143.581L263.65 123.626L262.38 126.199L298.194 143.797H259.42V146.673H303.538L261.677 165.405L262.849 168.026L300.255 151.29L272.149 178.337L274.142 180.41L302.317 153.295L284.224 190.212L286.803 191.474L307.123 149.998L307.182 150.135V194.496H310.054V156.562L325.949 192.178L328.567 191.004L310.113 149.656L311.549 150.36L341.677 181.751L343.738 179.765L319.071 154.058L350.723 169.611L351.984 167.029L313.268 148.003L311.988 146.673H357.816Z" fill="#F0EADB" stroke="black" stroke-miterlimit="10"/>
<path d="M132.371 146.741V143.738H89.6694L127.008 127.03L125.777 124.282L86.6605 141.791L119.055 110.616L116.974 108.454L84.5112 139.698L103.425 101.079L100.738 99.7584L82.4108 137.145V93.7131H79.4117V141.508L78.171 140.207L59.7852 99.0247L57.0498 100.247L72.0261 133.799L46.3427 107.046L44.1739 109.12L75.6407 141.909L76.3539 143.503L33.8771 122.629L32.5583 125.328L70.0136 143.738H29.4517V146.741H75.6017L31.8158 166.334L33.0467 169.073L72.1726 151.563L42.7672 179.853L44.848 182.024L74.3219 153.667L55.3988 192.276L58.0951 193.596L79.3531 150.214L79.4117 150.36V196.766H82.4108V157.08L99.0381 194.33L101.783 193.107L82.4792 149.861L83.9739 150.595L115.49 183.433L117.649 181.349L91.8479 154.459L124.946 170.726L126.275 168.026L85.7715 148.13L84.4331 146.741H132.371Z" fill="#F0EADB" stroke="black" stroke-miterlimit="10"/>
<path d="M305.326 150.81H194.2C191.123 150.81 188.632 148.316 188.632 145.235C188.632 142.153 191.123 139.659 194.2 139.659H305.326C308.403 139.659 310.894 142.153 310.894 145.235C310.894 148.316 308.403 150.81 305.326 150.81Z" fill="#2EAD72" stroke="black" stroke-width="2" stroke-miterlimit="10"/>
<path d="M301.399 18.9987H276.634C270.929 18.9987 267.031 24.77 269.16 30.0718L281.528 60.924C282.759 63.9857 285.719 65.991 289.002 65.991H301.399H313.796C317.088 65.991 320.048 63.9857 321.27 60.924L333.638 30.0718C335.767 24.77 331.86 18.9987 326.164 18.9987H301.399Z" fill="#022C25" stroke="black" stroke-width="2" stroke-miterlimit="10"/>
<path d="M305.326 151.241C303.138 151.241 301.057 149.94 300.178 147.788L249.104 23.4691C247.932 20.6226 249.29 17.3652 252.132 16.1914C254.975 15.0175 258.228 16.3772 259.401 19.2237L310.475 143.542C311.647 146.389 310.289 149.646 307.446 150.82C306.752 151.104 306.03 151.241 305.326 151.241Z" fill="#2EAD72" stroke="black" stroke-width="2" stroke-miterlimit="10"/>
<path d="M80.9159 84.1366C47.3976 84.1366 20.2292 111.34 20.2292 144.902C20.2292 178.464 47.4073 205.667 80.9159 205.667C114.424 205.667 141.603 178.464 141.603 144.902C141.603 111.34 114.424 84.1366 80.9159 84.1366ZM80.9159 193.714C53.9918 193.714 32.1673 171.861 32.1673 144.912C32.1673 117.953 53.9918 96.0999 80.9159 96.0999C107.84 96.0999 129.665 117.953 129.665 144.912C129.655 171.861 107.83 193.714 80.9159 193.714Z" fill="#F0EADB" stroke="black" stroke-width="2" stroke-miterlimit="10"/>
<path d="M176.274 145.665C173.402 145.665 170.705 143.914 169.621 141.067L144.328 74.3839C142.931 70.7059 144.778 66.5878 148.451 65.1987C152.124 63.7999 156.237 65.6487 157.624 69.3267L182.917 136.01C184.314 139.688 182.468 143.806 178.794 145.195C177.974 145.518 177.114 145.665 176.274 145.665Z" fill="#2EAD72" stroke="black" stroke-width="2" stroke-miterlimit="10"/>
<path d="M262.634 49.3031C260.348 49.3031 258.208 47.8847 257.397 45.6055L248.625 21.1018C247.785 18.7639 248.595 16.1521 250.618 14.6946L263.308 5.54853C265.799 3.74866 269.287 4.31601 271.074 6.82018C272.872 9.31458 272.305 12.8067 269.804 14.5968L260.524 21.2877L267.88 41.8395C268.915 44.7349 267.411 47.9336 264.519 48.9705C263.884 49.2053 263.249 49.3031 262.634 49.3031Z" fill="#2EAD72" stroke="black" stroke-width="2" stroke-miterlimit="10"/>
<path d="M261.618 105.246C239.569 130.513 242.138 168.907 267.382 190.994C292.616 213.072 330.96 210.49 353.009 185.213C375.059 159.937 372.489 121.553 347.245 99.4747C322.011 77.3871 283.677 79.9794 261.618 105.246ZM344.022 177.349C326.31 197.646 295.517 199.72 275.246 181.985C254.975 164.251 252.904 133.418 270.615 113.111C288.327 92.8035 319.12 90.7395 339.401 108.474C359.662 126.219 361.743 157.051 344.022 177.349Z" fill="#F0EADB" stroke="black" stroke-width="2" stroke-miterlimit="10"/>
<path d="M118.557 59.447C116.642 57.5004 115.499 54.869 115.655 52.1497C115.743 50.565 116.251 48.9118 117.658 47.6891C117.218 47.9826 119.407 44.7252 127.418 46.7892C130.212 47.513 133.054 48.0608 135.927 48.3249C144.016 49.0488 159.031 49.6944 168.917 46.1044C175.658 43.747 180.416 44.7447 183.63 46.6229C187.274 48.7455 187.176 54.0571 183.444 56.0526L157.399 69.9528C157.409 69.943 138.447 79.6662 118.557 59.447Z" fill="#F0EADB" stroke="black" stroke-width="2" stroke-miterlimit="10"/>
<path d="M266.551 19.1748C271.564 19.1748 275.627 15.1062 275.627 10.0874C275.627 5.06857 271.564 1 266.551 1C261.539 1 257.476 5.06857 257.476 10.0874C257.476 15.1062 261.539 19.1748 266.551 19.1748Z" fill="#F0EADB" stroke="black" stroke-width="2" stroke-miterlimit="10"/>
<path d="M80.9161 65.2183C38.2342 65.2183 3.46539 99.1126 2 141.488H17.5527C19.0083 107.711 46.8214 80.7715 80.9259 80.7715C115.021 80.7715 142.834 107.711 144.289 141.488H159.842C158.367 99.1029 123.588 65.2183 80.9161 65.2183Z" fill="#2EAD72" stroke="black" stroke-width="2" stroke-miterlimit="10"/>
<path d="M246.779 92.2556C227.562 114.285 222.707 143.963 231.48 169.797L243.838 155.633C240.516 137.282 245.264 117.63 258.482 102.488C271.69 87.3451 290.496 80.0087 309.116 80.8303L321.465 66.6759C294.716 61.4426 265.995 70.2365 246.779 92.2556Z" fill="#2EAD72" stroke="black" stroke-width="2" stroke-miterlimit="10"/>
<path d="M93.1085 142.144C90.9006 142.144 88.7514 141.019 87.5302 138.984C85.6838 135.903 86.6901 131.912 89.7674 130.063L156.433 90.0939C156.667 89.9569 156.902 89.8298 157.146 89.7222L262.683 43.0526C264.305 42.3385 266.142 42.3092 267.783 42.9841C269.414 43.6591 270.714 44.9699 271.358 46.623L277.748 62.9001C278.764 65.4923 278.021 68.4465 275.901 70.2464L192.853 140.608C190.117 142.926 186.014 142.584 183.699 139.845C181.384 137.106 181.725 132.997 184.461 130.679L263.963 63.3207L261.755 57.6864L162.783 101.46L96.4691 141.224C95.3945 141.84 94.2417 142.144 93.1085 142.144Z" fill="#2EAD72" stroke="black" stroke-width="2" stroke-miterlimit="10"/>
<path d="M201.244 135.462L192.715 123.929C189.189 119.175 183.386 116.681 177.514 117.415L84.9604 128.948C76.7542 129.965 70.5898 136.949 70.5898 145.235C70.5898 149.372 72.1334 153.197 74.6929 156.112C77.2622 159.017 80.8573 161.023 84.9604 161.531L177.514 173.064C183.386 173.798 189.189 171.303 192.715 166.54L201.244 155.016C205.542 149.206 205.542 141.273 201.244 135.462ZM187.489 151.642L181.041 159.086C178.384 162.157 173.988 163.771 169.552 163.292L99.5948 155.848C96.4882 155.515 93.7723 154.224 91.8282 152.346C89.8841 150.468 88.7216 148.003 88.7216 145.323C88.7216 139.972 93.3815 135.462 99.5948 134.807L169.552 127.353C173.988 126.884 178.384 128.498 181.041 131.569L187.489 139.013C190.742 142.76 190.742 147.885 187.489 151.642Z" fill="#2EAD72" stroke="black" stroke-width="2" stroke-miterlimit="10"/>
<path d="M223.518 157.256H189.657C187.352 157.256 185.496 155.388 185.496 153.089C185.496 150.781 187.362 148.922 189.657 148.922H223.518C225.823 148.922 227.679 150.79 227.679 153.089C227.679 155.388 225.813 157.256 223.518 157.256Z" fill="#F0EADB" stroke="black" stroke-width="2" stroke-miterlimit="10"/>
<path d="M183.249 162.392C189.06 162.392 193.771 157.675 193.771 151.857C193.771 146.038 189.06 141.322 183.249 141.322C177.438 141.322 172.728 146.038 172.728 151.857C172.728 157.675 177.438 162.392 183.249 162.392Z" fill="#022C25" stroke="black" stroke-width="2" stroke-miterlimit="10"/>
<path d="M232.564 159.154H218.194C216.181 159.154 214.55 157.52 214.55 155.505C214.55 153.49 216.181 151.857 218.194 151.857H232.564C234.577 151.857 236.208 153.49 236.208 155.505C236.198 157.52 234.577 159.154 232.564 159.154Z" fill="#022C25" stroke="black" stroke-width="2" stroke-miterlimit="10"/>
<path d="M225.384 160.68C228.238 160.68 230.552 158.363 230.552 155.505C230.552 152.647 228.238 150.331 225.384 150.331C222.53 150.331 220.216 152.647 220.216 155.505C220.216 158.363 222.53 160.68 225.384 160.68Z" fill="#022C25" stroke="black" stroke-width="2" stroke-miterlimit="10"/>
</svg>
