<svg width="99" height="34" viewBox="0 0 99 34" fill="none" xmlns="http://www.w3.org/2000/svg">
<path d="M7.87775 28.732C13.9618 28.732 15.5818 21.208 15.5818 16.42C15.5818 11.488 14.0338 5.26 7.94975 5.26C2.36975 5.26 0.02975 11.272 0.02975 16.024C0.02975 20.992 1.50575 28.732 7.87775 28.732ZM7.94975 8.14C11.6938 8.14 12.9178 13.324 12.9178 16.276C12.9178 19.516 12.2698 25.924 7.87775 25.924C3.05375 25.924 2.87375 19.804 2.87375 16.312C2.87375 13 3.70175 8.14 7.94975 8.14ZM21.5375 18.472C22.7975 18.148 27.3335 18.04 28.8815 18.04C29.8175 18.04 30.7535 18.148 31.6895 18.148C31.7975 18.148 31.9415 18.112 32.0495 18.04C32.2655 17.716 32.1935 15.556 32.2295 15.016C29.0975 15.124 25.9655 15.196 22.8695 15.196C22.2575 15.196 21.6455 15.052 21.0335 15.052C20.7095 15.052 20.4215 15.088 20.1335 15.196C19.5575 15.376 19.6655 15.34 19.6655 16.096C19.6655 16.42 19.7015 18.616 19.9175 18.796C19.9895 18.688 20.2775 18.796 20.3855 18.796C20.7815 18.796 21.1415 18.58 21.5375 18.472ZM45.7908 24.088C46.0428 23.368 46.1508 22.612 46.1508 21.856C46.1508 17.14 42.8028 14.368 38.6268 13.216C40.7148 10.552 42.6228 7.744 44.6748 5.08C45.1788 4.432 45.7548 3.748 45.7548 2.92C45.7548 0.111999 39.3468 0.868 37.2588 0.868C36.1788 0.868 35.4948 1.084 35.4948 2.272C35.4948 3.496 35.2068 4.072 37.0068 4.108C38.8068 4.144 40.8228 3.784 42.6588 3.784C40.9308 6.484 39.0228 9.112 36.8988 11.524C36.3228 12.208 35.3148 12.928 35.3148 13.9C35.3148 16.06 37.9428 15.34 39.2388 16.024C41.2188 17.032 43.3788 19.516 43.3788 21.82C43.3788 25.276 40.9308 27.652 38.3028 29.488C37.3668 30.172 35.6748 30.172 35.4948 31.54C35.4588 31.612 35.4588 31.684 35.4588 31.792C35.4588 32.44 35.5668 33.448 36.4308 33.448C37.0068 33.448 37.5468 33.196 38.0508 32.98C41.9028 31.36 45.1068 28.372 45.7908 24.088ZM38.8788 31.432L39.0588 31.36C39.0228 31.36 38.8788 31.468 38.8428 31.468L38.8788 31.432ZM67.5461 5.188C67.4381 4.252 67.5461 3.352 67.5461 2.416C67.5461 1.228 66.8621 1.228 65.8901 1.228C65.3861 1.228 64.8101 1.228 64.3781 1.516C63.8741 1.84 63.9101 4.648 63.8381 5.332C63.1901 11.848 62.1461 18.292 61.4261 24.772C61.2461 26.68 60.9581 28.552 60.7061 30.46C60.5261 32.224 60.3821 32.764 61.8941 32.872C62.1101 32.908 62.3621 32.98 62.6141 32.98C63.3701 32.98 63.2981 32.044 63.2981 31.504C63.2981 29.992 63.5141 28.516 63.5501 27.04C63.5861 26.284 63.5861 25.42 64.3781 25.024C64.5581 24.952 66.0701 25.024 66.2861 25.024C67.2581 24.988 67.2941 27.04 67.5101 28.444C67.6901 29.74 67.3661 32.908 68.1581 32.908C68.9141 32.908 69.5621 32.836 70.1381 32.44C70.4981 32.188 70.1741 28.984 69.9941 27.58C69.1301 20.128 68.7701 12.604 67.5461 5.188ZM66.6101 22.432C66.3941 22.576 66.1061 22.648 65.8541 22.648C65.0621 22.648 64.3421 22.756 64.3781 22.18C64.4141 20.848 65.2421 13.396 65.4581 12.028C65.8541 15.7 66.6461 18.472 66.6461 21.748C66.6461 21.964 66.6461 22.216 66.6101 22.432ZM65.4941 11.884C65.4941 11.812 65.4941 11.812 65.4941 11.776C65.4941 11.812 65.4941 11.848 65.4941 11.884ZM85.9128 21.46C85.5888 18.724 85.7688 15.988 85.7688 13.252C85.7688 11.632 85.5888 10.048 85.5888 8.464C85.5888 7.816 85.6968 7.204 85.6968 6.556C85.6968 5.728 83.7888 5.368 83.1768 5.368C82.6728 5.368 82.6728 5.908 82.6728 6.268C82.6728 10.768 83.2128 15.232 83.2128 19.732C83.2128 20.164 83.2128 20.56 83.1048 20.992C81.4128 18.58 77.4888 6.808 76.6608 6.16C76.1928 5.836 75.6168 5.692 75.0408 5.692C74.3208 5.692 73.9248 6.088 73.9248 6.808C73.9248 7.564 74.1768 8.284 74.2848 9.004C74.5008 10.624 74.5368 12.316 74.5368 13.936C74.5368 16.024 74.4288 18.112 74.4288 20.164C74.4288 22.756 74.5728 25.276 74.8608 27.832C74.9328 28.336 74.9328 28.804 75.5808 28.804C76.0848 28.804 76.5888 28.876 77.0928 28.876C77.8128 28.876 77.8128 27.796 77.8128 27.292C77.8128 23.584 77.2368 19.912 76.8768 16.24C76.7328 14.872 76.5528 13.54 76.5528 12.208C76.5528 12.064 76.5888 11.884 76.6248 11.74C77.2368 12.172 78.7488 16.816 79.1448 17.824C80.0448 20.2 81.3048 22.432 82.1688 24.808C82.3848 25.348 82.7088 26.752 83.1768 27.04C83.5008 27.22 84.7608 27.22 85.1568 27.22C86.1648 27.22 86.1648 25.492 86.1648 24.808C86.1648 23.692 86.0208 22.576 85.9128 21.46ZM97.7262 18.112C96.4662 15.808 92.7942 12.964 92.7942 10.264C92.7942 9.796 92.8662 8.716 93.5502 8.716C95.0622 8.716 93.8022 10.66 95.5662 10.66C96.1422 10.66 96.7182 10.588 97.2942 10.516C97.2222 8.536 95.7822 6.196 93.6222 6.196C91.5702 6.196 90.2022 8.14 90.2022 10.048C90.2022 15.016 96.3942 17.5 96.3942 22.9C96.3942 23.836 95.9622 25.42 94.7742 25.42C93.3342 25.42 93.4422 23.62 93.4422 22.612C93.4422 21.82 92.6862 21.316 91.9302 21.316C90.9582 21.316 90.5982 22.108 90.5982 22.972C90.5982 25.24 92.2182 28.012 94.7382 28.012C97.5102 28.012 98.9502 25.204 98.9502 22.756C98.9502 21.136 98.4822 19.516 97.7262 18.112Z" fill="white"/>
</svg>
