<svg width="101" height="32" viewBox="0 0 101 32" fill="none" xmlns="http://www.w3.org/2000/svg">
<path d="M17.023 18.876C16.843 18.192 15.727 18.156 15.151 18.156C14.179 18.156 13.207 18.3 12.235 18.336C12.307 13.224 12.703 8.112 12.703 3.036C12.703 1.992 12.415 1.164 11.191 1.164C10.759 1.164 9.64303 1.056 9.64303 1.668C9.64303 2.532 9.82303 3.324 9.78703 4.188C7.41103 7.572 5.32303 11.388 3.09103 14.88C2.55103 15.744 0.283031 18.552 0.283031 19.452C0.283031 19.92 0.391031 20.28 0.319031 20.748C0.391031 20.856 0.643031 21 0.787031 21C7.33903 21 4.85503 21.072 9.46303 21.216C9.46303 23.988 9.10303 26.868 9.49903 29.64C9.64303 30.756 9.46303 30.396 10.507 30.756C10.759 30.828 11.407 31.044 11.659 31.044C12.991 31.044 12.235 22.62 12.235 21.324H12.955C13.855 21.324 14.719 21.288 15.619 21.144C16.735 21 16.375 21.18 16.735 20.136C16.807 19.884 17.023 19.236 17.023 18.984V18.876ZM4.35103 18.084C7.95103 12.648 6.25903 15.42 9.53503 10.452C9.49903 13.116 9.49903 15.78 9.49903 18.408C7.87903 18.408 6.25903 18.12 4.60303 18.12L4.35103 18.084ZM23.3813 17.472C24.6413 17.148 29.1773 17.04 30.7253 17.04C31.6613 17.04 32.5973 17.148 33.5333 17.148C33.6413 17.148 33.7853 17.112 33.8933 17.04C34.1093 16.716 34.0373 14.556 34.0733 14.016C30.9413 14.124 27.8093 14.196 24.7133 14.196C24.1013 14.196 23.4893 14.052 22.8773 14.052C22.5533 14.052 22.2653 14.088 21.9773 14.196C21.4013 14.376 21.5093 14.34 21.5093 15.096C21.5093 15.42 21.5453 17.616 21.7613 17.796C21.8333 17.688 22.1213 17.796 22.2293 17.796C22.6253 17.796 22.9853 17.58 23.3813 17.472ZM48.0666 22.26C47.9946 20.064 47.7786 17.868 46.9866 15.816C46.6266 14.88 46.1226 13.98 45.4386 13.26C45.4026 13.224 45.2946 13.116 45.2946 13.08C45.2946 13.044 45.4746 12.828 45.5106 12.756C45.6546 12.576 45.7986 12.324 45.9066 12.108C46.7706 10.452 46.9866 8.436 46.9866 6.564C46.9866 6.168 46.7706 5.592 46.6626 5.196C46.0866 3.036 44.9706 0.911999 42.4506 0.911999C40.0026 0.911999 38.3466 2.568 37.5906 4.764C37.4106 5.34 37.0866 6.492 37.0866 7.068C37.0866 8.112 38.0226 10.56 38.5986 11.46C38.8146 11.856 39.1026 12.18 39.3906 12.504C39.4266 12.54 39.5346 12.648 39.5346 12.72C39.5346 12.756 39.4986 12.756 39.4626 12.792C39.2106 13.26 38.9226 13.62 38.7426 14.124C37.8786 16.14 37.4826 20.352 37.4826 22.62C37.4826 25.572 38.4906 31.332 42.3426 31.332C42.8106 31.332 43.2786 31.26 43.7106 31.116C47.7066 29.964 47.6346 25.572 48.0666 22.26ZM45.0426 23.412C44.7186 24.888 45.0066 28.452 42.6306 28.452C40.0386 28.452 40.0746 23.592 40.0746 21.9C40.0746 20.712 40.2546 19.56 40.3266 18.408C40.3986 17.076 40.6506 14.412 42.4866 14.412C44.6466 14.412 45.1146 19.884 45.1146 21.432C45.1146 22.044 45.1506 22.8 45.0426 23.412ZM40.9026 4.404C41.2266 4.044 41.6946 3.756 42.1986 3.756C43.5666 3.756 44.5386 5.808 44.5386 6.996C44.5386 8.292 44.2146 11.388 42.4146 11.388C40.7586 11.388 40.0386 8.292 40.0386 7.032C40.0386 6.168 40.2906 5.052 40.9026 4.404ZM68.9328 4.188C68.8248 3.252 68.9328 2.352 68.9328 1.416C68.9328 0.227999 68.2488 0.227999 67.2768 0.227999C66.7728 0.227999 66.1968 0.227999 65.7648 0.515998C65.2608 0.839998 65.2968 3.648 65.2248 4.332C64.5768 10.848 63.5328 17.292 62.8128 23.772C62.6328 25.68 62.3448 27.552 62.0928 29.46C61.9128 31.224 61.7688 31.764 63.2808 31.872C63.4968 31.908 63.7488 31.98 64.0008 31.98C64.7568 31.98 64.6848 31.044 64.6848 30.504C64.6848 28.992 64.9008 27.516 64.9368 26.04C64.9728 25.284 64.9728 24.42 65.7648 24.024C65.9448 23.952 67.4568 24.024 67.6728 24.024C68.6448 23.988 68.6808 26.04 68.8968 27.444C69.0768 28.74 68.7528 31.908 69.5448 31.908C70.3008 31.908 70.9488 31.836 71.5248 31.44C71.8848 31.188 71.5608 27.984 71.3808 26.58C70.5168 19.128 70.1568 11.604 68.9328 4.188ZM67.9968 21.432C67.7808 21.576 67.4928 21.648 67.2408 21.648C66.4488 21.648 65.7288 21.756 65.7648 21.18C65.8008 19.848 66.6288 12.396 66.8448 11.028C67.2408 14.7 68.0328 17.472 68.0328 20.748C68.0328 20.964 68.0328 21.216 67.9968 21.432ZM66.8808 10.884C66.8808 10.812 66.8808 10.812 66.8808 10.776C66.8808 10.812 66.8808 10.848 66.8808 10.884ZM87.2995 20.46C86.9755 17.724 87.1555 14.988 87.1555 12.252C87.1555 10.632 86.9755 9.048 86.9755 7.464C86.9755 6.816 87.0835 6.204 87.0835 5.556C87.0835 4.728 85.1755 4.368 84.5635 4.368C84.0595 4.368 84.0595 4.908 84.0595 5.268C84.0595 9.768 84.5995 14.232 84.5995 18.732C84.5995 19.164 84.5995 19.56 84.4915 19.992C82.7995 17.58 78.8755 5.808 78.0475 5.16C77.5795 4.836 77.0035 4.692 76.4275 4.692C75.7075 4.692 75.3115 5.088 75.3115 5.808C75.3115 6.564 75.5635 7.284 75.6715 8.004C75.8875 9.624 75.9235 11.316 75.9235 12.936C75.9235 15.024 75.8155 17.112 75.8155 19.164C75.8155 21.756 75.9595 24.276 76.2475 26.832C76.3195 27.336 76.3195 27.804 76.9675 27.804C77.4715 27.804 77.9755 27.876 78.4795 27.876C79.1995 27.876 79.1995 26.796 79.1995 26.292C79.1995 22.584 78.6235 18.912 78.2635 15.24C78.1195 13.872 77.9395 12.54 77.9395 11.208C77.9395 11.064 77.9755 10.884 78.0115 10.74C78.6235 11.172 80.1355 15.816 80.5315 16.824C81.4315 19.2 82.6915 21.432 83.5555 23.808C83.7715 24.348 84.0955 25.752 84.5635 26.04C84.8875 26.22 86.1475 26.22 86.5435 26.22C87.5515 26.22 87.5515 24.492 87.5515 23.808C87.5515 22.692 87.4075 21.576 87.2995 20.46ZM99.1129 17.112C97.8529 14.808 94.1809 11.964 94.1809 9.264C94.1809 8.796 94.2529 7.716 94.9369 7.716C96.4489 7.716 95.1889 9.66 96.9529 9.66C97.5289 9.66 98.1049 9.588 98.6809 9.516C98.6089 7.536 97.1689 5.196 95.0089 5.196C92.9569 5.196 91.5889 7.14 91.5889 9.048C91.5889 14.016 97.7809 16.5 97.7809 21.9C97.7809 22.836 97.3489 24.42 96.1609 24.42C94.7209 24.42 94.8289 22.62 94.8289 21.612C94.8289 20.82 94.0729 20.316 93.3169 20.316C92.3449 20.316 91.9849 21.108 91.9849 21.972C91.9849 24.24 93.6049 27.012 96.1249 27.012C98.8969 27.012 100.337 24.204 100.337 21.756C100.337 20.136 99.8689 18.516 99.1129 17.112Z" fill="white"/>
</svg>
