<svg width="1033" height="556" viewBox="0 0 1033 556" fill="none" xmlns="http://www.w3.org/2000/svg">
<path d="M53.6305 102.343C26.1108 128.627 -2.56666 330.965 -0.696391 371.333C1.17388 411.702 10.6143 440.366 40.3605 463.377C70.4629 486.587 112.232 460.898 148.658 465.361C201.382 471.808 250.365 507.515 303.356 510.986C354.299 514.259 405.419 517.533 456.451 515.152C554.507 510.689 628.071 485.396 722.653 514.557C771.369 529.534 814.741 560.678 864.972 554.826C910.036 549.669 980.572 514.061 1003.46 470.519C1026.35 426.976 1033.83 375.102 1032.67 324.716C1031.34 267.982 1017.71 89.2505 980.572 50.5682C929.808 -2.29755 852.147 -1.60326 782.769 2.36415C662.537 9.10875 576.416 32.9132 456.184 39.6578C390.546 43.3277 301.842 23.3914 236.205 27.0613C204.677 28.7474 161.839 37.079 131.469 46.6008C101.1 56.1226 66.188 79.927 47.8416 108.492L53.6305 102.343Z" fill="#FEFEFE"/>
</svg>
