<svg width="145" height="126" viewBox="0 0 145 126" fill="none" xmlns="http://www.w3.org/2000/svg">
<path d="M11.1612 5.75C11.1612 2.42 8.77623 0.364999 5.83623 0.364999C2.89623 0.364999 0.51123 2.39 0.51123 5.75C0.51123 9.095 2.86623 11.135 5.82123 11.135C8.98623 11.135 11.1612 8.93 11.1612 5.75ZM1.77123 5.75C1.77123 3.17 3.55623 1.505 5.83623 1.505C8.16123 1.505 9.90123 3.2 9.90123 5.75C9.90123 8.3 8.13123 9.98 5.82123 9.98C3.52623 9.98 1.77123 8.3 1.77123 5.75ZM24.2798 11V6.695C24.2798 5.03 23.7098 3.635 21.7748 3.635C20.5748 3.635 19.5848 4.04 19.0148 5.18C18.7298 4.16 17.9798 3.635 16.7798 3.635C15.7448 3.635 14.8598 3.95 14.3348 4.91C14.3348 3.485 13.4348 3.575 12.4148 3.74L12.4298 4.595C13.1948 4.52 13.2698 4.805 13.2698 5.765V11H14.4398V6.8C14.4398 5.48 15.2048 4.61 16.4648 4.61C17.7248 4.61 18.1448 5.54 18.1448 6.755V11H19.3148V6.785C19.3148 5.495 20.2448 4.61 21.4448 4.61C22.6598 4.61 23.0798 5.54 23.0798 6.695V11H24.2798ZM31.3521 9.695C31.3521 11.015 31.9221 11.24 33.1221 11.045L33.1071 10.28C32.2221 10.4 32.2671 9.935 32.2671 9.14V6.125C32.3121 4.235 30.7371 3.635 29.1021 3.635C28.1421 3.635 27.2271 3.815 26.5221 4.175L26.7171 5.105C27.3321 4.745 28.0971 4.58 28.9221 4.58C29.9121 4.58 31.2021 4.88 31.2021 6.095V7.145C30.4821 6.74 29.5371 6.62 28.7121 6.62C27.2121 6.62 25.9521 7.415 25.9521 9.02C25.9521 10.49 27.1671 11.135 28.5021 11.135C29.5971 11.135 30.8271 10.7 31.3521 9.695ZM31.1871 8.51C30.8871 9.68 29.6571 10.13 28.7121 10.13C27.9021 10.13 27.1071 9.875 27.1071 8.945C27.1071 7.91 28.0521 7.535 28.9821 7.535C29.8221 7.535 30.7371 7.775 31.1871 8.045V8.51ZM35.9562 4.79C35.9112 3.68 35.1162 3.56 33.9912 3.755L34.0062 4.535C34.8612 4.46 34.8762 4.865 34.8762 5.525V11H36.0312V6.56C36.0312 5.42 36.9912 4.685 38.0262 4.685C38.5812 4.685 39.0912 4.865 39.5562 5.165L39.8412 4.175C39.3462 3.815 38.7762 3.635 38.1462 3.635C37.2312 3.635 36.3912 3.95 35.9562 4.79ZM50.9722 0.499999H44.8672V11H51.1372V9.845H46.1272V6.125H50.8072V5.03H46.1272V1.595H50.9722V0.499999ZM54.6672 0.499999H53.4072V11H59.6172V9.875H54.6672V0.499999ZM72.0815 3.35C72.0815 1.355 70.6715 0.499999 68.7815 0.499999H64.6865V11H69.2315C71.1965 11 72.5615 9.965 72.5615 8.045C72.5615 6.725 71.8715 5.87 70.6715 5.525C71.5715 5.18 72.0815 4.37 72.0815 3.35ZM68.7065 1.55C69.9665 1.55 70.8665 2.015 70.8665 3.365C70.8665 4.67 69.9215 5.12 68.7065 5.12H65.9315V1.55H68.7065ZM68.8565 6.17C70.2365 6.17 71.3465 6.65 71.3015 8.045C71.3015 9.32 70.3715 9.92 69.1415 9.92H65.9315V6.17H68.8565ZM81.0553 8.405L82.2853 11H83.5753V10.835L78.7303 0.455H78.1603L73.2703 10.835V11H74.5753L75.8053 8.405H81.0553ZM78.4303 2.42L80.6353 7.325H76.2253L78.4303 2.42ZM86.3661 0.499999H85.1211V11H86.3661V6.35C86.9511 6.35 88.1211 6.32 88.6761 6.155L92.0061 11H93.4311V10.82L89.7711 5.645C90.5061 5 90.8661 3.905 91.1811 2.825C91.4961 1.73 91.9611 1.22 93.1461 1.355V0.514999C91.1811 0.154999 90.4761 1.07 90.0711 2.465C89.8011 3.455 89.4111 4.61 88.7511 5C88.2861 5.285 87.3711 5.3 86.3661 5.3V0.499999ZM104.618 5.75C104.618 2.42 102.233 0.364999 99.2933 0.364999C96.3533 0.364999 93.9683 2.39 93.9683 5.75C93.9683 9.095 96.3233 11.135 99.2783 11.135C102.443 11.135 104.618 8.93 104.618 5.75ZM95.2283 5.75C95.2283 3.17 97.0133 1.505 99.2933 1.505C101.618 1.505 103.358 3.2 103.358 5.75C103.358 8.3 101.588 9.98 99.2783 9.98C96.9833 9.98 95.2283 8.3 95.2283 5.75ZM110.687 11.135C112.952 11.135 114.677 9.785 114.677 7.43V0.499999H113.447V7.415C113.447 9.08 112.277 10.01 110.687 10.01C109.082 10.01 107.912 9.08 107.912 7.415V0.499999H106.652V7.43C106.652 9.785 108.407 11.135 110.687 11.135ZM116.717 5.75C116.717 9.05 119.102 11.12 122.027 11.12C124.127 11.12 126.152 9.995 126.752 7.64H125.537C124.982 9.155 123.617 9.965 122.012 9.965C119.597 9.965 117.992 8.12 117.992 5.75C117.992 3.305 119.612 1.475 122.027 1.52C123.542 1.52 124.832 2.225 125.477 3.65H126.692C126.062 1.46 124.052 0.364999 122.027 0.364999C119.072 0.32 116.717 2.465 116.717 5.75ZM136.843 11V0.499999H135.583V4.925H130.033V0.499999H128.788V11H130.033V6.08H135.583V11H136.843ZM141.863 9.995V1.49H143.558V0.499999H138.908V1.49H140.603V9.995H138.788V11H143.678V9.995H141.863ZM8.18443 30.015H8.58943V19.485H7.32943V24.405L7.46443 27.42L0.624434 19.47H0.189434V30H1.43443V24.945L1.32943 22.065L8.18443 30.015ZM15.8833 28.695C15.8833 30.015 16.4533 30.24 17.6533 30.045L17.6383 29.28C16.7533 29.4 16.7983 28.935 16.7983 28.14V25.125C16.8433 23.235 15.2683 22.635 13.6333 22.635C12.6733 22.635 11.7583 22.815 11.0533 23.175L11.2483 24.105C11.8633 23.745 12.6283 23.58 13.4533 23.58C14.4433 23.58 15.7333 23.88 15.7333 25.095V26.145C15.0133 25.74 14.0683 25.62 13.2433 25.62C11.7433 25.62 10.4833 26.415 10.4833 28.02C10.4833 29.49 11.6983 30.135 13.0333 30.135C14.1283 30.135 15.3583 29.7 15.8833 28.695ZM15.7183 27.51C15.4183 28.68 14.1883 29.13 13.2433 29.13C12.4333 29.13 11.6383 28.875 11.6383 27.945C11.6383 26.91 12.5833 26.535 13.5133 26.535C14.3533 26.535 15.2683 26.775 15.7183 27.045V27.51ZM19.1375 29.52C20.0675 29.91 21.1025 30.135 22.0925 30.135C24.1925 30.135 26.0375 29.16 26.0375 26.43C26.0375 24.03 24.4175 22.665 22.5725 22.635C21.8225 22.62 21.0425 22.8 20.3075 23.235V19.035H19.1375V29.52ZM20.2775 24.315C20.9525 23.835 21.7025 23.61 22.4075 23.625C23.7275 23.64 24.8675 24.54 24.8675 26.43C24.8675 28.365 23.6225 29.085 22.1675 29.115C21.5525 29.13 20.8925 28.995 20.2775 28.77V24.315ZM27.749 20.385C27.749 21.39 29.234 21.39 29.234 20.385C29.234 19.395 27.749 19.395 27.749 20.385ZM29.069 22.77H27.899V30H29.069V22.77ZM31.3096 19.005V27.27C31.3096 29.505 32.1496 30.27 34.3546 29.91L34.3096 29.055C32.7946 29.25 32.4946 28.905 32.4946 27.27V19.005H31.3096ZM46.8422 22.35C46.8422 20.355 45.4322 19.5 43.5422 19.5H39.4472V30H43.9922C45.9572 30 47.3222 28.965 47.3222 27.045C47.3222 25.725 46.6322 24.87 45.4322 24.525C46.3322 24.18 46.8422 23.37 46.8422 22.35ZM43.4672 20.55C44.7272 20.55 45.6272 21.015 45.6272 22.365C45.6272 23.67 44.6822 24.12 43.4672 24.12H40.6922V20.55H43.4672ZM43.6172 25.17C44.9972 25.17 46.1072 25.65 46.0622 27.045C46.0622 28.32 45.1322 28.92 43.9022 28.92H40.6922V25.17H43.6172ZM59.4864 24.75C59.4864 21.42 57.1014 19.365 54.1614 19.365C51.2214 19.365 48.8364 21.39 48.8364 24.75C48.8364 28.095 51.1914 30.135 54.1464 30.135C57.3114 30.135 59.4864 27.93 59.4864 24.75ZM50.0964 24.75C50.0964 22.17 51.8814 20.505 54.1614 20.505C56.4864 20.505 58.2264 22.2 58.2264 24.75C58.2264 27.3 56.4564 28.98 54.1464 28.98C51.8514 28.98 50.0964 27.3 50.0964 24.75ZM65.555 30.135C67.82 30.135 69.545 28.785 69.545 26.43V19.5H68.315V26.415C68.315 28.08 67.145 29.01 65.555 29.01C63.95 29.01 62.78 28.08 62.78 26.415V19.5H61.52V26.43C61.52 28.785 63.275 30.135 65.555 30.135ZM71.5854 24.75C71.5854 28.05 73.9704 30.12 76.8954 30.12C78.9954 30.12 81.0204 28.995 81.6204 26.64H80.4054C79.8504 28.155 78.4854 28.965 76.8804 28.965C74.4654 28.965 72.8604 27.12 72.8604 24.75C72.8604 22.305 74.4804 20.475 76.8954 20.52C78.4104 20.52 79.7004 21.225 80.3454 22.65H81.5604C80.9304 20.46 78.9204 19.365 76.8954 19.365C73.9404 19.32 71.5854 21.465 71.5854 24.75ZM91.7112 30V19.5H90.4512V23.925H84.9012V19.5H83.6562V30H84.9012V25.08H90.4512V30H91.7112ZM101.021 27.405L102.251 30H103.541V29.835L98.6961 19.455H98.1261L93.2361 29.835V30H94.5411L95.7711 27.405H101.021ZM98.3961 21.42L100.601 26.325H96.1911L98.3961 21.42ZM113.082 30.015H113.487V19.485H112.227V24.405L112.362 27.42L105.522 19.47H105.087V30H106.332V24.945L106.227 22.065L113.082 30.015ZM122.803 27.405L124.033 30H125.323V29.835L120.478 19.455H119.908L115.018 29.835V30H116.323L117.553 27.405H122.803ZM120.178 21.42L122.383 26.325H117.973L120.178 21.42ZM134.864 30.015H135.269V19.485H134.009V24.405L134.144 27.42L127.304 19.47H126.869V30H128.114V24.945L128.009 22.065L134.864 30.015ZM144.166 19.5H138.061V30H144.331V28.845H139.321V25.125H144.001V24.03H139.321V20.595H144.166V19.5ZM15.7093 48.985V45.655H18.6643C20.8843 45.655 22.3393 44.08 22.3393 42.085C22.3393 40.075 20.9143 38.485 18.6643 38.485C17.2843 38.47 15.8443 38.485 14.4643 38.485V48.985H15.7093ZM15.6943 44.53V39.595C16.6993 39.595 17.7043 39.58 18.6643 39.595C20.1043 39.595 21.1243 40.63 21.1243 42.055C21.1243 43.51 20.0593 44.53 18.6643 44.53H15.6943ZM28.6787 47.695C28.6787 49.015 29.2487 49.24 30.4487 49.045L30.4337 48.28C29.5487 48.4 29.5937 47.935 29.5937 47.14V44.125C29.6387 42.235 28.0637 41.635 26.4287 41.635C25.4687 41.635 24.5537 41.815 23.8487 42.175L24.0437 43.105C24.6587 42.745 25.4237 42.58 26.2487 42.58C27.2387 42.58 28.5287 42.88 28.5287 44.095V45.145C27.8087 44.74 26.8637 44.62 26.0387 44.62C24.5387 44.62 23.2787 45.415 23.2787 47.02C23.2787 48.49 24.4937 49.135 25.8287 49.135C26.9237 49.135 28.1537 48.7 28.6787 47.695ZM28.5137 46.51C28.2137 47.68 26.9837 48.13 26.0387 48.13C25.2287 48.13 24.4337 47.875 24.4337 46.945C24.4337 45.91 25.3787 45.535 26.3087 45.535C27.1487 45.535 28.0637 45.775 28.5137 46.045V46.51ZM37.0929 41.77V45.97C37.0929 47.32 36.2079 48.175 34.9479 48.175C33.7479 48.175 33.0579 47.305 33.0729 45.985V41.77H31.8879V45.985C31.8879 47.77 32.6679 49.135 34.6029 49.135C35.6079 49.135 36.6279 48.88 37.1829 47.875C37.1079 49.135 38.0079 49.21 39.1329 49.015L39.1179 48.205C38.3679 48.28 38.2629 48.13 38.2629 47.065V41.77H37.0929ZM40.7066 38.005V46.27C40.7066 48.505 41.5466 49.27 43.7516 48.91L43.7066 48.055C42.1916 48.25 41.8916 47.905 41.8916 46.27V38.005H40.7066ZM50.5198 39.625V49H51.7348V39.625H54.9748V38.5H47.2798V39.625H50.5198ZM62.7422 38.5H56.6372V49H62.9072V47.845H57.8972V44.125H62.5772V43.03H57.8972V39.595H62.7422V38.5ZM70.4422 44.98C71.9122 44.62 72.9472 43.48 72.9472 41.86C72.9472 39.955 71.5222 38.485 69.3622 38.485H65.1772V49H66.4372V45.145H69.1822L72.0922 49H73.4122V48.82L70.4422 44.98ZM66.4222 44.11V39.595H69.3622C70.7272 39.595 71.7322 40.495 71.7322 41.845C71.7322 43.21 70.6972 44.11 69.3622 44.11H66.4222ZM80.5204 44.98C81.9904 44.62 83.0254 43.48 83.0254 41.86C83.0254 39.955 81.6004 38.485 79.4404 38.485H75.2554V49H76.5154V45.145H79.2604L82.1704 49H83.4904V48.82L80.5204 44.98ZM76.5004 44.11V39.595H79.4404C80.8054 39.595 81.8104 40.495 81.8104 41.845C81.8104 43.21 80.7754 44.11 79.4404 44.11H76.5004ZM91.8585 46.405L93.0885 49H94.3785V48.835L89.5335 38.455H88.9635L84.0735 48.835V49H85.3785L86.6085 46.405H91.8585ZM89.2335 40.42L91.4385 45.325H87.0285L89.2335 40.42ZM95.0439 46.135C95.1189 48.295 97.3089 49.18 99.2589 49.135C101.164 49.09 103.324 48.325 103.324 46.075C103.324 43.75 101.374 43.375 99.2889 43.135C98.0139 42.97 96.4989 42.91 96.4989 41.35C96.4989 39.97 97.9389 39.49 99.0939 39.49C100.294 39.49 101.704 39.865 101.824 41.2H102.994C102.919 39.16 100.879 38.365 99.0639 38.365C97.2189 38.365 95.2539 39.295 95.2539 41.365C95.2539 43.465 97.1739 43.96 99.0789 44.155C100.504 44.35 102.094 44.38 102.094 46.075C102.049 47.605 100.504 48.04 99.2439 48.04C97.9539 48.04 96.3339 47.545 96.2589 46.135H95.0439ZM104.741 46.135C104.816 48.295 107.006 49.18 108.956 49.135C110.861 49.09 113.021 48.325 113.021 46.075C113.021 43.75 111.071 43.375 108.986 43.135C107.711 42.97 106.196 42.91 106.196 41.35C106.196 39.97 107.636 39.49 108.791 39.49C109.991 39.49 111.401 39.865 111.521 41.2H112.691C112.616 39.16 110.576 38.365 108.761 38.365C106.916 38.365 104.951 39.295 104.951 41.365C104.951 43.465 106.871 43.96 108.776 44.155C110.201 44.35 111.791 44.38 111.791 46.075C111.746 47.605 110.201 48.04 108.941 48.04C107.651 48.04 106.031 47.545 105.956 46.135H104.741ZM117.363 47.995V39.49H119.058V38.5H114.408V39.49H116.103V47.995H114.288V49H119.178V47.995H117.363ZM129.129 49.015H129.534V38.485H128.274V43.405L128.409 46.42L121.569 38.47H121.134V49H122.379V43.945L122.274 41.065L129.129 49.015ZM14.9322 65.405L16.1622 68H17.4522V67.835L12.6072 57.455H12.0372L7.14721 67.835V68H8.45221L9.68221 65.405H14.9322ZM12.3072 59.42L14.5122 64.325H10.1022L12.3072 59.42ZM25.523 68V63.725C25.523 61.955 24.533 60.635 22.628 60.635C21.608 60.635 20.723 60.875 20.078 61.85C20.078 60.455 18.968 60.635 18.128 60.755L18.143 61.685C18.908 61.61 18.983 61.865 18.983 62.84V68H20.153V63.665C20.153 62.45 21.083 61.61 22.313 61.61C23.498 61.61 24.338 62.42 24.338 63.725V68H25.523ZM29.5107 58.55H28.5357L28.4157 60.8H26.7957V61.58L28.3407 61.655V65.225C28.3407 67.19 29.2257 68.015 30.6507 68.015C31.2057 68.015 31.8357 67.91 32.5257 67.685L32.3907 66.77C31.8657 66.965 31.4007 67.07 30.9957 67.07C30.0657 67.07 29.5107 66.485 29.5107 65.195V61.655H32.1657V60.8H29.5107V58.55ZM41.0592 64.37C41.0592 61.865 39.1692 60.635 37.2642 60.635C35.3592 60.635 33.4392 61.85 33.4392 64.37C33.4392 66.875 35.3292 68.12 37.2192 68.135C39.1392 68.15 41.0592 66.875 41.0592 64.37ZM34.6242 64.37C34.6242 62.54 35.9292 61.64 37.2492 61.64C38.5692 61.64 39.8892 62.54 39.8892 64.37C39.8892 66.215 38.5842 67.16 37.2642 67.16C35.9442 67.16 34.6242 66.215 34.6242 64.37ZM42.749 58.385C42.749 59.39 44.234 59.39 44.234 58.385C44.234 57.395 42.749 57.395 42.749 58.385ZM44.069 60.77H42.899V68H44.069V60.77ZM53.1646 68V63.725C53.1646 61.955 52.1746 60.635 50.2696 60.635C49.2496 60.635 48.3646 60.875 47.7196 61.85C47.7196 60.455 46.6096 60.635 45.7696 60.755L45.7846 61.685C46.5496 61.61 46.6246 61.865 46.6246 62.84V68H47.7946V63.665C47.7946 62.45 48.7246 61.61 49.9546 61.61C51.1396 61.61 51.9796 62.42 51.9796 63.725V68H53.1646ZM58.5895 60.635C56.6095 60.635 54.9595 61.91 54.8845 64.19C54.8095 66.65 56.5045 68.135 58.9045 68.135C59.7895 68.135 60.7045 67.925 61.5595 67.52L61.3795 66.635C60.5395 66.98 59.7595 67.16 58.9345 67.16C57.2995 67.16 55.9795 66.17 56.0545 64.505H61.7695C62.1745 62.12 61.0495 60.65 58.5895 60.635ZM58.5895 61.565C59.8795 61.565 60.8845 62.24 60.8095 63.605H56.0995C56.2945 62.3 57.2695 61.565 58.5895 61.565ZM75.847 68V57.5H74.587V61.925H69.037V57.5H67.792V68H69.037V63.08H74.587V68H75.847ZM82.5618 68.135C84.8268 68.135 86.5518 66.785 86.5518 64.43V57.5H85.3218V64.415C85.3218 66.08 84.1518 67.01 82.5618 67.01C80.9568 67.01 79.7868 66.08 79.7868 64.415V57.5H78.5268V64.43C78.5268 66.785 80.2818 68.135 82.5618 68.135ZM94.0523 63.35L89.7323 57.485H89.2373V68H90.4973V60.425L93.9473 65.165H94.1423L97.5923 60.425V68H98.8523V57.485H98.3723L94.0523 63.35ZM109.04 60.35C109.04 58.355 107.63 57.5 105.74 57.5H101.645V68H106.19C108.155 68 109.52 66.965 109.52 65.045C109.52 63.725 108.83 62.87 107.63 62.525C108.53 62.18 109.04 61.37 109.04 60.35ZM105.665 58.55C106.925 58.55 107.825 59.015 107.825 60.365C107.825 61.67 106.88 62.12 105.665 62.12H102.89V58.55H105.665ZM105.815 63.17C107.195 63.17 108.305 63.65 108.26 65.045C108.26 66.32 107.33 66.92 106.1 66.92H102.89V63.17H105.815ZM117.784 57.5H111.679V68H117.949V66.845H112.939V63.125H117.619V62.03H112.939V58.595H117.784V57.5ZM125.484 63.98C126.954 63.62 127.989 62.48 127.989 60.86C127.989 58.955 126.564 57.485 124.404 57.485H120.219V68H121.479V64.145H124.224L127.134 68H128.454V67.82L125.484 63.98ZM121.464 63.11V58.595H124.404C125.769 58.595 126.774 59.495 126.774 60.845C126.774 62.21 125.739 63.11 124.404 63.11H121.464ZM132.265 58.625V68H133.48V58.625H136.72V57.5H129.025V58.625H132.265ZM6.8301 81.465H2.2551V77.61H7.2351V76.5H0.995098V87H2.2551V82.575H6.8301V81.465ZM10.0871 80.79C10.0421 79.68 9.24709 79.56 8.12209 79.755L8.13709 80.535C8.99209 80.46 9.00709 80.865 9.00709 81.525V87H10.1621V82.56C10.1621 81.42 11.1221 80.685 12.1571 80.685C12.7121 80.685 13.2221 80.865 13.6871 81.165L13.9721 80.175C13.4771 79.815 12.9071 79.635 12.2771 79.635C11.3621 79.635 10.5221 79.95 10.0871 80.79ZM20.0288 85.695C20.0288 87.015 20.5988 87.24 21.7988 87.045L21.7838 86.28C20.8988 86.4 20.9438 85.935 20.9438 85.14V82.125C20.9888 80.235 19.4138 79.635 17.7788 79.635C16.8188 79.635 15.9038 79.815 15.1988 80.175L15.3938 81.105C16.0088 80.745 16.7738 80.58 17.5988 80.58C18.5888 80.58 19.8788 80.88 19.8788 82.095V83.145C19.1588 82.74 18.2138 82.62 17.3888 82.62C15.8888 82.62 14.6288 83.415 14.6288 85.02C14.6288 86.49 15.8438 87.135 17.1788 87.135C18.2738 87.135 19.5038 86.7 20.0288 85.695ZM19.8638 84.51C19.5638 85.68 18.3338 86.13 17.3888 86.13C16.5788 86.13 15.7838 85.875 15.7838 84.945C15.7838 83.91 16.7288 83.535 17.6588 83.535C18.4988 83.535 19.4138 83.775 19.8638 84.045V84.51ZM30.108 87V82.725C30.108 80.955 29.118 79.635 27.213 79.635C26.193 79.635 25.308 79.875 24.663 80.85C24.663 79.455 23.553 79.635 22.713 79.755L22.728 80.685C23.493 80.61 23.568 80.865 23.568 81.84V87H24.738V82.665C24.738 81.45 25.668 80.61 26.898 80.61C28.083 80.61 28.923 81.42 28.923 82.725V87H30.108ZM35.0678 88.14C35.6228 88.065 36.5528 88.425 36.3128 89.16C36.0728 89.925 34.7078 89.67 34.1828 89.19L34.1228 89.91C35.0528 90.6 36.8378 90.585 37.2428 89.385C37.4828 88.575 37.0028 87.825 36.0278 87.78L36.2078 87.075C37.5278 86.91 38.7278 86.04 39.1178 84.57H37.9478C37.0178 86.985 33.0128 86.46 33.0128 83.355C33.0128 80.31 36.9428 79.785 37.8878 81.975H39.0428C38.0528 78.345 31.8278 78.9 31.8278 83.355C31.8278 85.695 33.5828 86.985 35.3378 87.105L35.0678 88.14ZM47.9879 83.37C47.9879 80.865 46.0979 79.635 44.1929 79.635C42.2879 79.635 40.3679 80.85 40.3679 83.37C40.3679 85.875 42.2579 87.12 44.1479 87.135C46.0679 87.15 47.9879 85.875 47.9879 83.37ZM41.5529 83.37C41.5529 81.54 42.8579 80.64 44.1779 80.64C45.4979 80.64 46.8179 81.54 46.8179 83.37C46.8179 85.215 45.5129 86.16 44.1929 86.16C42.8729 86.16 41.5529 85.215 41.5529 83.37ZM49.6777 77.385C49.6777 78.39 51.1627 78.39 51.1627 77.385C51.1627 76.395 49.6777 76.395 49.6777 77.385ZM50.9977 79.77H49.8277V87H50.9977V79.77ZM52.7733 84.96C52.8933 86.61 54.4083 87.135 55.9833 87.135C57.6633 87.09 59.1633 86.415 59.1633 84.93C59.2083 83.22 57.6183 83.01 56.1033 82.815C54.7683 82.62 54.0933 82.44 54.0783 81.735C54.0333 80.895 55.0533 80.565 55.9683 80.565C56.9133 80.565 57.8433 80.925 57.8433 81.705H58.9683C59.0133 80.31 57.4683 79.635 55.9683 79.635C54.4683 79.635 52.9233 80.265 52.9683 81.765C53.0133 83.265 54.5733 83.565 55.9983 83.73C57.3333 83.925 58.0233 84.105 58.0233 84.93C57.9783 85.815 56.9883 86.19 55.9833 86.19C55.0083 86.19 53.9883 85.875 53.9133 84.96H52.7733ZM68.682 84.855H68.667L67.152 80.925L65.337 76.5H64.002V76.68L68.397 87.045H68.922L73.287 76.68V76.5H71.952L70.152 80.925L68.682 84.855ZM77.2487 85.995V77.49H78.9437V76.5H74.2937V77.49H75.9887V85.995H74.1737V87H79.0637V85.995H77.2487ZM82.2795 76.5H81.0195V87H87.2295V85.875H82.2795V76.5ZM90.1311 76.5H88.8711V87H95.0811V85.875H90.1311V76.5ZM106.288 81.75C106.288 78.42 103.903 76.365 100.963 76.365C98.0232 76.365 95.6382 78.39 95.6382 81.75C95.6382 85.095 97.9932 87.135 100.948 87.135C104.113 87.135 106.288 84.93 106.288 81.75ZM96.8982 81.75C96.8982 79.17 98.6832 77.505 100.963 77.505C103.288 77.505 105.028 79.2 105.028 81.75C105.028 84.3 103.258 85.98 100.948 85.98C98.6532 85.98 96.8982 84.3 96.8982 81.75ZM110.117 77.625V87H111.332V77.625H114.572V76.5H106.877V77.625H110.117ZM122.339 76.5H116.234V87H122.504V85.845H117.494V82.125H122.174V81.03H117.494V77.595H122.339V76.5ZM131.299 84.405L132.529 87H133.819V86.835L128.974 76.455H128.404L123.514 86.835V87H124.819L126.049 84.405H131.299ZM128.674 78.42L130.879 83.325H126.469L128.674 78.42ZM139.119 87.135C141.384 87.135 143.109 85.785 143.109 83.43V76.5H141.879V83.415C141.879 85.08 140.709 86.01 139.119 86.01C137.514 86.01 136.344 85.08 136.344 83.415V76.5H135.084V83.43C135.084 85.785 136.839 87.135 139.119 87.135ZM26.2188 103.405L27.4488 106H28.7388V105.835L23.8938 95.455H23.3238L18.4338 105.835V106H19.7388L20.9688 103.405H26.2188ZM23.5938 97.42L25.7988 102.325H21.3888L23.5938 97.42ZM36.8096 106V101.725C36.8096 99.955 35.8196 98.635 33.9146 98.635C32.8946 98.635 32.0096 98.875 31.3646 99.85C31.3646 98.455 30.2546 98.635 29.4146 98.755L29.4296 99.685C30.1946 99.61 30.2696 99.865 30.2696 100.84V106H31.4396V101.665C31.4396 100.45 32.3696 99.61 33.5996 99.61C34.7846 99.61 35.6246 100.42 35.6246 101.725V106H36.8096ZM40.7973 96.55H39.8223L39.7023 98.8H38.0823V99.58L39.6273 99.655V103.225C39.6273 105.19 40.5123 106.015 41.9373 106.015C42.4923 106.015 43.1223 105.91 43.8123 105.685L43.6773 104.77C43.1523 104.965 42.6873 105.07 42.2823 105.07C41.3523 105.07 40.7973 104.485 40.7973 103.195V99.655H43.4523V98.8H40.7973V96.55ZM52.3458 102.37C52.3458 99.865 50.4558 98.635 48.5508 98.635C46.6458 98.635 44.7258 99.85 44.7258 102.37C44.7258 104.875 46.6158 106.12 48.5058 106.135C50.4258 106.15 52.3458 104.875 52.3458 102.37ZM45.9108 102.37C45.9108 100.54 47.2158 99.64 48.5358 99.64C49.8558 99.64 51.1758 100.54 51.1758 102.37C51.1758 104.215 49.8708 105.16 48.5508 105.16C47.2308 105.16 45.9108 104.215 45.9108 102.37ZM54.0356 96.385C54.0356 97.39 55.5206 97.39 55.5206 96.385C55.5206 95.395 54.0356 95.395 54.0356 96.385ZM55.3556 98.77H54.1856V106H55.3556V98.77ZM64.4512 106V101.725C64.4512 99.955 63.4613 98.635 61.5563 98.635C60.5363 98.635 59.6513 98.875 59.0063 99.85C59.0063 98.455 57.8963 98.635 57.0563 98.755L57.0713 99.685C57.8363 99.61 57.9113 99.865 57.9113 100.84V106H59.0813V101.665C59.0813 100.45 60.0113 99.61 61.2413 99.61C62.4263 99.61 63.2663 100.42 63.2663 101.725V106H64.4512ZM69.8761 98.635C67.8961 98.635 66.2461 99.91 66.1711 102.19C66.0961 104.65 67.7911 106.135 70.1911 106.135C71.0761 106.135 71.9911 105.925 72.8461 105.52L72.6661 104.635C71.8261 104.98 71.0461 105.16 70.2211 105.16C68.5861 105.16 67.2661 104.17 67.3411 102.505H73.0561C73.4611 100.12 72.3361 98.65 69.8761 98.635ZM69.8761 99.565C71.1661 99.565 72.1711 100.24 72.0961 101.605H67.3861C67.5811 100.3 68.5561 99.565 69.8761 99.565ZM85.9036 95.5H78.4036V96.61H83.9386L77.9986 105.835V106H85.9186V104.86H79.9636L85.9036 95.695V95.5ZM91.7684 106.135C94.0334 106.135 95.7584 104.785 95.7584 102.43V95.5H94.5284V102.415C94.5284 104.08 93.3584 105.01 91.7684 105.01C90.1634 105.01 88.9934 104.08 88.9934 102.415V95.5H87.7334V102.43C87.7334 104.785 89.4884 106.135 91.7684 106.135ZM105.839 98.35C105.839 96.355 104.429 95.5 102.539 95.5H98.4438V106H102.989C104.954 106 106.319 104.965 106.319 103.045C106.319 101.725 105.629 100.87 104.429 100.525C105.329 100.18 105.839 99.37 105.839 98.35ZM102.464 96.55C103.724 96.55 104.624 97.015 104.624 98.365C104.624 99.67 103.679 100.12 102.464 100.12H99.6888V96.55H102.464ZM102.614 101.17C103.994 101.17 105.104 101.65 105.059 103.045C105.059 104.32 104.129 104.92 102.899 104.92H99.6888V101.17H102.614ZM114.583 95.5H108.478V106H114.748V104.845H109.738V101.125H114.418V100.03H109.738V96.595H114.583V95.5ZM122.283 101.98C123.753 101.62 124.788 100.48 124.788 98.86C124.788 96.955 123.363 95.485 121.203 95.485H117.018V106H118.278V102.145H121.023L123.933 106H125.253V105.82L122.283 101.98ZM118.263 101.11V96.595H121.203C122.568 96.595 123.573 97.495 123.573 98.845C123.573 100.21 122.538 101.11 121.203 101.11H118.263ZM21.9619 117.35C21.9619 115.355 20.5519 114.5 18.6619 114.5H14.5669V125H19.1119C21.0769 125 22.4419 123.965 22.4419 122.045C22.4419 120.725 21.7519 119.87 20.5519 119.525C21.4519 119.18 21.9619 118.37 21.9619 117.35ZM18.5869 115.55C19.8469 115.55 20.7469 116.015 20.7469 117.365C20.7469 118.67 19.8019 119.12 18.5869 119.12H15.8119V115.55H18.5869ZM18.7369 120.17C20.1169 120.17 21.2269 120.65 21.1819 122.045C21.1819 123.32 20.2519 123.92 19.0219 123.92H15.8119V120.17H18.7369ZM29.2061 123.695C29.2061 125.015 29.7761 125.24 30.9761 125.045L30.9611 124.28C30.0761 124.4 30.1211 123.935 30.1211 123.14V120.125C30.1661 118.235 28.5911 117.635 26.9561 117.635C25.9961 117.635 25.0811 117.815 24.3761 118.175L24.5711 119.105C25.1861 118.745 25.9511 118.58 26.7761 118.58C27.7661 118.58 29.0561 118.88 29.0561 120.095V121.145C28.3361 120.74 27.3911 120.62 26.5661 120.62C25.0661 120.62 23.8061 121.415 23.8061 123.02C23.8061 124.49 25.0211 125.135 26.3561 125.135C27.4511 125.135 28.6811 124.7 29.2061 123.695ZM29.0411 122.51C28.7411 123.68 27.5111 124.13 26.5661 124.13C25.7561 124.13 24.9611 123.875 24.9611 122.945C24.9611 121.91 25.9061 121.535 26.8361 121.535C27.6761 121.535 28.5911 121.775 29.0411 122.045V122.51ZM32.4602 124.52C33.3902 124.91 34.4252 125.135 35.4152 125.135C37.5152 125.135 39.3602 124.16 39.3602 121.43C39.3602 119.03 37.7402 117.665 35.8952 117.635C35.1452 117.62 34.3652 117.8 33.6302 118.235V114.035H32.4602V124.52ZM33.6002 119.315C34.2752 118.835 35.0252 118.61 35.7302 118.625C37.0502 118.64 38.1902 119.54 38.1902 121.43C38.1902 123.365 36.9452 124.085 35.4902 124.115C34.8752 124.13 34.2152 123.995 33.6002 123.77V119.315ZM46.0518 123.695C46.0518 125.015 46.6218 125.24 47.8218 125.045L47.8068 124.28C46.9218 124.4 46.9668 123.935 46.9668 123.14V120.125C47.0118 118.235 45.4368 117.635 43.8018 117.635C42.8418 117.635 41.9268 117.815 41.2218 118.175L41.4168 119.105C42.0318 118.745 42.7968 118.58 43.6218 118.58C44.6118 118.58 45.9018 118.88 45.9018 120.095V121.145C45.1818 120.74 44.2368 120.62 43.4118 120.62C41.9118 120.62 40.6518 121.415 40.6518 123.02C40.6518 124.49 41.8668 125.135 43.2018 125.135C44.2968 125.135 45.5268 124.7 46.0518 123.695ZM45.8868 122.51C45.5868 123.68 44.3568 124.13 43.4118 124.13C42.6018 124.13 41.8068 123.875 41.8068 122.945C41.8068 121.91 42.7518 121.535 43.6818 121.535C44.5218 121.535 45.4368 121.775 45.8868 122.045V122.51ZM56.0559 120.02C55.6059 118.445 54.1809 117.65 52.7109 117.635C50.8209 117.62 48.8709 118.835 48.8709 121.355C48.8709 123.845 50.7909 125.135 52.6809 125.135C54.1959 125.135 55.6959 124.295 56.1309 122.585H54.9909C54.6009 123.605 53.6559 124.1 52.6959 124.1C51.3909 124.1 50.0559 123.14 50.0559 121.355C50.0559 119.555 51.4359 118.685 52.7559 118.685C53.6709 118.685 54.5409 119.12 54.9309 120.02H56.0559ZM62.707 123.695C62.707 125.015 63.277 125.24 64.477 125.045L64.462 124.28C63.577 124.4 63.622 123.935 63.622 123.14V120.125C63.667 118.235 62.092 117.635 60.457 117.635C59.497 117.635 58.582 117.815 57.877 118.175L58.072 119.105C58.687 118.745 59.452 118.58 60.277 118.58C61.267 118.58 62.557 118.88 62.557 120.095V121.145C61.837 120.74 60.892 120.62 60.067 120.62C58.567 120.62 57.307 121.415 57.307 123.02C57.307 124.49 58.522 125.135 59.857 125.135C60.952 125.135 62.182 124.7 62.707 123.695ZM62.542 122.51C62.242 123.68 61.012 124.13 60.067 124.13C59.257 124.13 58.462 123.875 58.462 122.945C58.462 121.91 59.407 121.535 60.337 121.535C61.177 121.535 62.092 121.775 62.542 122.045V122.51ZM67.3112 118.79C67.2662 117.68 66.4712 117.56 65.3462 117.755L65.3612 118.535C66.2162 118.46 66.2312 118.865 66.2312 119.525V125H67.3862V120.56C67.3862 119.42 68.3462 118.685 69.3812 118.685C69.9362 118.685 70.4462 118.865 70.9112 119.165L71.1962 118.175C70.7012 117.815 70.1312 117.635 69.5012 117.635C68.5862 117.635 67.7462 117.95 67.3112 118.79ZM84.6273 125.015H85.0323V114.485H83.7723V119.405L83.9073 122.42L77.0673 114.47H76.6323V125H77.8773V119.945L77.7723 117.065L84.6273 125.015ZM87.8237 114.5V125H91.5437C94.7537 125 96.6437 122.675 96.6437 119.735C96.6437 116.855 94.7537 114.5 91.5437 114.5H87.8237ZM89.0837 123.86V115.655H91.5137C93.9137 115.655 95.3987 117.425 95.3987 119.75C95.3987 122.105 93.9137 123.86 91.5137 123.86H89.0837ZM100.855 123.995V115.49H102.55V114.5H97.8996V115.49H99.5946V123.995H97.7796V125H102.67V123.995H100.855ZM111.15 122.405L112.38 125H113.67V124.835L108.825 114.455H108.255L103.365 124.835V125H104.67L105.9 122.405H111.15ZM108.525 116.42L110.73 121.325H106.32L108.525 116.42ZM117.564 119.51L116.049 116.945L114.519 114.5H113.154V114.665L116.949 120.695V125H118.209V120.695L121.989 114.68V114.5H120.654L119.124 116.96L117.609 119.51H117.564ZM129.788 114.5H123.683V125H129.953V123.845H124.943V120.125H129.623V119.03H124.943V115.595H129.788V114.5Z" fill="#171EB1"/>
</svg>
