<svg width="108" height="31" viewBox="0 0 108 31" fill="none" xmlns="http://www.w3.org/2000/svg">
<path d="M12.9653 5.75C12.9653 9.05 15.3503 11.12 18.2753 11.12C20.3753 11.12 22.4003 9.995 23.0003 7.64H21.7853C21.2303 9.155 19.8653 9.965 18.2603 9.965C15.8453 9.965 14.2403 8.12 14.2403 5.75C14.2403 3.305 15.8603 1.475 18.2753 1.52C19.7903 1.52 21.0803 2.225 21.7253 3.65H22.9403C22.3103 1.46 20.3003 0.364999 18.2753 0.364999C15.3203 0.32 12.9653 2.465 12.9653 5.75ZM24.7061 0.0049994V8.27C24.7061 10.505 25.5461 11.27 27.7511 10.91L27.7061 10.055C26.1911 10.25 25.8911 9.905 25.8911 8.27V0.0049994H24.7061ZM33.772 9.695C33.772 11.015 34.342 11.24 35.542 11.045L35.527 10.28C34.642 10.4 34.687 9.935 34.687 9.14V6.125C34.732 4.235 33.157 3.635 31.522 3.635C30.562 3.635 29.647 3.815 28.942 4.175L29.137 5.105C29.752 4.745 30.517 4.58 31.342 4.58C32.332 4.58 33.622 4.88 33.622 6.095V7.145C32.902 6.74 31.957 6.62 31.132 6.62C29.632 6.62 28.372 7.415 28.372 9.02C28.372 10.49 29.587 11.135 30.922 11.135C32.017 11.135 33.247 10.7 33.772 9.695ZM33.607 8.51C33.307 9.68 32.077 10.13 31.132 10.13C30.322 10.13 29.527 9.875 29.527 8.945C29.527 7.91 30.472 7.535 31.402 7.535C32.242 7.535 33.157 7.775 33.607 8.045V8.51ZM38.3762 4.79C38.3312 3.68 37.5362 3.56 36.4112 3.755L36.4262 4.535C37.2812 4.46 37.2962 4.865 37.2962 5.525V11H38.4512V6.56C38.4512 5.42 39.4112 4.685 40.4462 4.685C41.0012 4.685 41.5112 4.865 41.9762 5.165L42.2612 4.175C41.7662 3.815 41.1962 3.635 40.5662 3.635C39.6512 3.635 38.8112 3.95 38.3762 4.79ZM48.3179 9.695C48.3179 11.015 48.8879 11.24 50.0879 11.045L50.0729 10.28C49.1879 10.4 49.2329 9.935 49.2329 9.14V6.125C49.2779 4.235 47.7029 3.635 46.0679 3.635C45.1079 3.635 44.1929 3.815 43.4879 4.175L43.6829 5.105C44.2979 4.745 45.0629 4.58 45.8879 4.58C46.8779 4.58 48.1679 4.88 48.1679 6.095V7.145C47.4479 6.74 46.5029 6.62 45.6779 6.62C44.1779 6.62 42.9179 7.415 42.9179 9.02C42.9179 10.49 44.1329 11.135 45.4679 11.135C46.5629 11.135 47.7929 10.7 48.3179 9.695ZM48.1529 8.51C47.8529 9.68 46.6229 10.13 45.6779 10.13C44.8679 10.13 44.0729 9.875 44.0729 8.945C44.0729 7.91 45.0179 7.535 45.9479 7.535C46.7879 7.535 47.7029 7.775 48.1529 8.045V8.51ZM62.273 0.499999H58.448V1.61H61.013V7.46C61.013 9.095 59.903 9.995 58.328 9.995C56.753 9.995 55.673 9.125 55.673 7.46V6.38H54.488V7.475C54.488 9.755 56.108 11.135 58.328 11.135C60.548 11.135 62.273 9.8 62.273 7.475V0.499999ZM71.0581 0.499999H64.9531V11H71.2231V9.845H66.2131V6.125H70.8931V5.03H66.2131V1.595H71.0581V0.499999ZM72.731 5.735C72.731 8.99 74.996 11.135 77.966 11.135C81.416 11.135 83.141 8.525 83.021 5.48H78.131V6.545H81.866C81.671 8.825 80.126 9.965 77.966 9.965C75.521 9.965 73.991 8.18 73.991 5.735C73.991 3.35 75.521 1.505 77.966 1.505C79.541 1.505 80.846 1.985 81.401 3.5H82.631C82.031 1.31 80.021 0.364999 77.966 0.364999C75.041 0.364999 72.731 2.48 72.731 5.735ZM95.0411 5.75C95.0411 2.42 92.6561 0.364999 89.7161 0.364999C86.7761 0.364999 84.3911 2.39 84.3911 5.75C84.3911 9.095 86.7461 11.135 89.7011 11.135C92.8661 11.135 95.0411 8.93 95.0411 5.75ZM85.6511 5.75C85.6511 3.17 87.4361 1.505 89.7161 1.505C92.0411 1.505 93.7811 3.2 93.7811 5.75C93.7811 8.3 92.0111 9.98 89.7011 9.98C87.4061 9.98 85.6511 8.3 85.6511 5.75ZM8.45467 19.5H4.62967V20.61H7.19467V26.46C7.19467 28.095 6.08467 28.995 4.50967 28.995C2.93467 28.995 1.85467 28.125 1.85467 26.46V25.38H0.669668V26.475C0.669668 28.755 2.28967 30.135 4.50967 30.135C6.72967 30.135 8.45467 28.8 8.45467 26.475V19.5ZM13.9733 22.635C11.9933 22.635 10.3433 23.91 10.2683 26.19C10.1933 28.65 11.8883 30.135 14.2883 30.135C15.1733 30.135 16.0883 29.925 16.9433 29.52L16.7633 28.635C15.9233 28.98 15.1433 29.16 14.3183 29.16C12.6833 29.16 11.3633 28.17 11.4383 26.505H17.1533C17.5583 24.12 16.4333 22.65 13.9733 22.635ZM13.9733 23.565C15.2633 23.565 16.2683 24.24 16.1933 25.605H11.4833C11.6783 24.3 12.6533 23.565 13.9733 23.565ZM23.8989 28.695C23.8989 30.015 24.4689 30.24 25.6689 30.045L25.6539 29.28C24.7689 29.4 24.8139 28.935 24.8139 28.14V25.125C24.8589 23.235 23.2839 22.635 21.6489 22.635C20.6889 22.635 19.7739 22.815 19.0689 23.175L19.2639 24.105C19.8789 23.745 20.6439 23.58 21.4689 23.58C22.4589 23.58 23.7489 23.88 23.7489 25.095V26.145C23.0289 25.74 22.0839 25.62 21.2589 25.62C19.7589 25.62 18.4989 26.415 18.4989 28.02C18.4989 29.49 19.7139 30.135 21.0489 30.135C22.1439 30.135 23.3739 29.7 23.8989 28.695ZM23.7339 27.51C23.4339 28.68 22.2039 29.13 21.2589 29.13C20.4489 29.13 19.6539 28.875 19.6539 27.945C19.6539 26.91 20.5989 26.535 21.5289 26.535C22.3689 26.535 23.2839 26.775 23.7339 27.045V27.51ZM33.9781 30V25.725C33.9781 23.955 32.9881 22.635 31.0831 22.635C30.0631 22.635 29.1781 22.875 28.5331 23.85C28.5331 22.455 27.4231 22.635 26.5831 22.755L26.5981 23.685C27.3631 23.61 27.4381 23.865 27.4381 24.84V30H28.6081V25.665C28.6081 24.45 29.5381 23.61 30.7681 23.61C31.9531 23.61 32.7931 24.42 32.7931 25.725V30H33.9781ZM42.9429 30V25.725C42.9429 23.955 41.9529 22.635 40.0479 22.635C39.0279 22.635 38.1429 22.875 37.4979 23.85C37.4979 22.455 36.3879 22.635 35.5479 22.755L35.5629 23.685C36.3279 23.61 36.4029 23.865 36.4029 24.84V30H37.5729V25.665C37.5729 24.45 38.5029 23.61 39.7329 23.61C40.9179 23.61 41.7579 24.42 41.7579 25.725V30H42.9429ZM48.3678 22.635C46.3878 22.635 44.7378 23.91 44.6628 26.19C44.5878 28.65 46.2828 30.135 48.6828 30.135C49.5678 30.135 50.4828 29.925 51.3378 29.52L51.1578 28.635C50.3178 28.98 49.5378 29.16 48.7128 29.16C47.0778 29.16 45.7578 28.17 45.8328 26.505H51.5478C51.9528 24.12 50.8278 22.65 48.3678 22.635ZM48.3678 23.565C49.6578 23.565 50.6628 24.24 50.5878 25.605H45.8778C46.0728 24.3 47.0478 23.565 48.3678 23.565ZM56.9253 24.75C56.9253 28.05 59.3103 30.12 62.2353 30.12C64.3353 30.12 66.3603 28.995 66.9603 26.64H65.7453C65.1903 28.155 63.8253 28.965 62.2203 28.965C59.8053 28.965 58.2003 27.12 58.2003 24.75C58.2003 22.305 59.8203 20.475 62.2353 20.52C63.7503 20.52 65.0403 21.225 65.6853 22.65H66.9003C66.2703 20.46 64.2603 19.365 62.2353 19.365C59.2803 19.32 56.9253 21.465 56.9253 24.75ZM79.0011 24.75C79.0011 21.42 76.6161 19.365 73.6761 19.365C70.7361 19.365 68.3511 21.39 68.3511 24.75C68.3511 28.095 70.7061 30.135 73.6611 30.135C76.8261 30.135 79.0011 27.93 79.0011 24.75ZM69.6111 24.75C69.6111 22.17 71.3961 20.505 73.6761 20.505C76.0011 20.505 77.7411 22.2 77.7411 24.75C77.7411 27.3 75.9711 28.98 73.6611 28.98C71.3661 28.98 69.6111 27.3 69.6111 24.75ZM87.2446 19.5H81.1396V30H87.4096V28.845H82.3996V25.125H87.0796V24.03H82.3996V20.595H87.2446V19.5ZM90.9397 19.5H89.6797V30H95.8897V28.875H90.9397V19.5ZM107.097 24.75C107.097 21.42 104.712 19.365 101.772 19.365C98.8318 19.365 96.4468 21.39 96.4468 24.75C96.4468 28.095 98.8018 30.135 101.757 30.135C104.922 30.135 107.097 27.93 107.097 24.75ZM97.7068 24.75C97.7068 22.17 99.4918 20.505 101.772 20.505C104.097 20.505 105.837 22.2 105.837 24.75C105.837 27.3 104.067 28.98 101.757 28.98C99.4618 28.98 97.7068 27.3 97.7068 24.75Z" fill="#171EB1"/>
</svg>
