<svg width="128" height="53" viewBox="0 0 128 53" fill="none" xmlns="http://www.w3.org/2000/svg">
<path d="M17.9566 0.499999H14.1316V1.61H16.6966V7.46C16.6966 9.095 15.5866 9.995 14.0116 9.995C12.4366 9.995 11.3566 9.125 11.3566 7.46V6.38H10.1716V7.475C10.1716 9.755 11.7916 11.135 14.0116 11.135C16.2316 11.135 17.9566 9.8 17.9566 7.475V0.499999ZM25.3502 3.77V7.97C25.3502 9.32 24.4652 10.175 23.2052 10.175C22.0052 10.175 21.3152 9.305 21.3302 7.985V3.77H20.1452V7.985C20.1452 9.77 20.9252 11.135 22.8602 11.135C23.8652 11.135 24.8852 10.88 25.4402 9.875C25.3652 11.135 26.2652 11.21 27.3902 11.015L27.3752 10.205C26.6252 10.28 26.5202 10.13 26.5202 9.065V3.77H25.3502ZM28.9639 0.0049994V8.27C28.9639 10.505 29.8039 11.27 32.0089 10.91L31.9639 10.055C30.4489 10.25 30.1489 9.905 30.1489 8.27V0.0049994H28.9639ZM33.0498 1.385C33.0498 2.39 34.5348 2.39 34.5348 1.385C34.5348 0.395 33.0498 0.395 33.0498 1.385ZM34.3698 3.77H33.1998V11H34.3698V3.77ZM39.9254 3.635C37.9454 3.635 36.2954 4.91 36.2204 7.19C36.1454 9.65 37.8404 11.135 40.2404 11.135C41.1254 11.135 42.0404 10.925 42.8954 10.52L42.7154 9.635C41.8754 9.98 41.0954 10.16 40.2704 10.16C38.6354 10.16 37.3154 9.17 37.3904 7.505H43.1054C43.5104 5.12 42.3854 3.65 39.9254 3.635ZM39.9254 4.565C41.2154 4.565 42.2204 5.24 42.1454 6.605H37.4354C37.6304 5.3 38.6054 4.565 39.9254 4.565ZM48.4829 5.75C48.4829 9.05 50.8679 11.12 53.7929 11.12C55.8929 11.12 57.9179 9.995 58.5179 7.64H57.3029C56.7479 9.155 55.3829 9.965 53.7779 9.965C51.3629 9.965 49.7579 8.12 49.7579 5.75C49.7579 3.305 51.3779 1.475 53.7929 1.52C55.3079 1.52 56.5979 2.225 57.2429 3.65H58.4579C57.8279 1.46 55.8179 0.364999 53.7929 0.364999C50.8379 0.32 48.4829 2.465 48.4829 5.75ZM61.8137 0.499999H60.5537V11H66.7637V9.875H61.8137V0.499999ZM74.5103 0.499999H68.4053V11H74.6753V9.845H69.6653V6.125H74.3453V5.03H69.6653V1.595H74.5103V0.499999ZM82.2103 6.98C83.6803 6.62 84.7153 5.48 84.7153 3.86C84.7153 1.955 83.2903 0.484999 81.1303 0.484999H76.9453V11H78.2053V7.145H80.9503L83.8603 11H85.1803V10.82L82.2103 6.98ZM78.1903 6.11V1.595H81.1303C82.4953 1.595 83.5003 2.495 83.5003 3.845C83.5003 5.21 82.4653 6.11 81.1303 6.11H78.1903ZM89.2584 9.995V1.49H90.9534V0.499999H86.3034V1.49H87.9984V9.995H86.1834V11H91.0734V9.995H89.2584ZM96.6293 8.855H96.6143L95.0993 4.925L93.2843 0.499999H91.9493V0.68L96.3443 11.045H96.8693L101.234 0.68V0.499999H99.8993L98.0993 4.925L96.6293 8.855ZM109.066 0.499999H102.961V11H109.231V9.845H104.221V6.125H108.901V5.03H104.221V1.595H109.066V0.499999ZM113.616 1.625V11H114.831V1.625H118.071V0.499999H110.376V1.625H113.616ZM14.69 19.5H10.865V20.61H13.43V26.46C13.43 28.095 12.32 28.995 10.745 28.995C9.17002 28.995 8.09002 28.125 8.09002 26.46V25.38H6.90502V26.475C6.90502 28.755 8.52502 30.135 10.745 30.135C12.965 30.135 14.69 28.8 14.69 26.475V19.5ZM22.0836 22.77V26.97C22.0836 28.32 21.1986 29.175 19.9386 29.175C18.7386 29.175 18.0486 28.305 18.0636 26.985V22.77H16.8786V26.985C16.8786 28.77 17.6586 30.135 19.5936 30.135C20.5986 30.135 21.6186 29.88 22.1736 28.875C22.0986 30.135 22.9986 30.21 24.1236 30.015L24.1086 29.205C23.3586 29.28 23.2536 29.13 23.2536 28.065V22.77H22.0836ZM25.2323 27.96C25.3523 29.61 26.8673 30.135 28.4423 30.135C30.1223 30.09 31.6223 29.415 31.6223 27.93C31.6673 26.22 30.0773 26.01 28.5623 25.815C27.2273 25.62 26.5523 25.44 26.5373 24.735C26.4923 23.895 27.5123 23.565 28.4273 23.565C29.3723 23.565 30.3023 23.925 30.3023 24.705H31.4273C31.4723 23.31 29.9273 22.635 28.4273 22.635C26.9273 22.635 25.3823 23.265 25.4273 24.765C25.4723 26.265 27.0323 26.565 28.4573 26.73C29.7923 26.925 30.4823 27.105 30.4823 27.93C30.4373 28.815 29.4473 29.19 28.4423 29.19C27.4673 29.19 26.4473 28.875 26.3723 27.96H25.2323ZM35.3242 20.55H34.3492L34.2292 22.8H32.6092V23.58L34.1542 23.655V27.225C34.1542 29.19 35.0392 30.015 36.4642 30.015C37.0192 30.015 37.6492 29.91 38.3392 29.685L38.2042 28.77C37.6792 28.965 37.2142 29.07 36.8092 29.07C35.8792 29.07 35.3242 28.485 35.3242 27.195V23.655H37.9792V22.8H35.3242V20.55ZM39.5976 20.385C39.5976 21.39 41.0826 21.39 41.0826 20.385C41.0826 19.395 39.5976 19.395 39.5976 20.385ZM40.9176 22.77H39.7476V30H40.9176V22.77ZM50.0133 30V25.725C50.0133 23.955 49.0233 22.635 47.1183 22.635C46.0983 22.635 45.2133 22.875 44.5683 23.85C44.5683 22.455 43.4583 22.635 42.6183 22.755L42.6333 23.685C43.3983 23.61 43.4733 23.865 43.4733 24.84V30H44.6433V25.665C44.6433 24.45 45.5733 23.61 46.8033 23.61C47.9883 23.61 48.8283 24.42 48.8283 25.725V30H50.0133ZM55.4381 22.635C53.4581 22.635 51.8081 23.91 51.7331 26.19C51.6581 28.65 53.3531 30.135 55.7531 30.135C56.6381 30.135 57.5531 29.925 58.4081 29.52L58.2281 28.635C57.3881 28.98 56.6081 29.16 55.7831 29.16C54.1481 29.16 52.8281 28.17 52.9031 26.505H58.6181C59.0231 24.12 57.8981 22.65 55.4381 22.635ZM55.4381 23.565C56.7281 23.565 57.7331 24.24 57.6581 25.605H52.9481C53.1431 24.3 54.1181 23.565 55.4381 23.565ZM69.4556 25.35L65.1356 19.485H64.6406V30H65.9006V22.425L69.3506 27.165H69.5456L72.9956 22.425V30H74.2556V19.485H73.7756L69.4556 25.35ZM83.5728 27.405L84.8028 30H86.0928V29.835L81.2478 19.455H80.6778L75.7878 29.835V30H77.0928L78.3228 27.405H83.5728ZM80.9478 21.42L83.1528 26.325H78.7428L80.9478 21.42ZM92.9037 25.98C94.3737 25.62 95.4087 24.48 95.4087 22.86C95.4087 20.955 93.9837 19.485 91.8237 19.485H87.6387V30H88.8987V26.145H91.6437L94.5537 30H95.8737V29.82L92.9037 25.98ZM88.8837 25.11V20.595H91.8237C93.1887 20.595 94.1937 21.495 94.1937 22.845C94.1937 24.21 93.1587 25.11 91.8237 25.11H88.8837ZM99.6853 20.625V30H100.9V20.625H104.14V19.5H96.4453V20.625H99.6853ZM108.038 28.995V20.49H109.733V19.5H105.083V20.49H106.778V28.995H104.963V30H109.853V28.995H108.038ZM119.804 30.015H120.209V19.485H118.949V24.405L119.084 27.42L112.244 19.47H111.809V30H113.054V24.945L112.949 22.065L119.804 30.015ZM8.3735 41.35C8.3735 39.355 6.9635 38.5 5.0735 38.5H0.978496V49H5.5235C7.4885 49 8.8535 47.965 8.8535 46.045C8.8535 44.725 8.1635 43.87 6.9635 43.525C7.8635 43.18 8.3735 42.37 8.3735 41.35ZM4.9985 39.55C6.2585 39.55 7.1585 40.015 7.1585 41.365C7.1585 42.67 6.2135 43.12 4.9985 43.12H2.2235V39.55H4.9985ZM5.1485 44.17C6.5285 44.17 7.6385 44.65 7.5935 46.045C7.5935 47.32 6.6635 47.92 5.4335 47.92H2.2235V44.17H5.1485ZM15.6177 47.695C15.6177 49.015 16.1877 49.24 17.3877 49.045L17.3727 48.28C16.4877 48.4 16.5327 47.935 16.5327 47.14V44.125C16.5777 42.235 15.0027 41.635 13.3677 41.635C12.4077 41.635 11.4927 41.815 10.7877 42.175L10.9827 43.105C11.5977 42.745 12.3627 42.58 13.1877 42.58C14.1777 42.58 15.4677 42.88 15.4677 44.095V45.145C14.7477 44.74 13.8027 44.62 12.9777 44.62C11.4777 44.62 10.2177 45.415 10.2177 47.02C10.2177 48.49 11.4327 49.135 12.7677 49.135C13.8627 49.135 15.0927 48.7 15.6177 47.695ZM15.4527 46.51C15.1527 47.68 13.9227 48.13 12.9777 48.13C12.1677 48.13 11.3727 47.875 11.3727 46.945C11.3727 45.91 12.3177 45.535 13.2477 45.535C14.0877 45.535 15.0027 45.775 15.4527 46.045V46.51ZM20.1319 42.97C20.1769 41.83 19.3969 41.56 18.2569 41.755L18.2719 42.625C19.2319 42.505 19.1269 43.255 19.1269 44.185V52.72H20.2969V48.505C21.0319 49 21.8119 49.135 22.5619 49.135C24.4219 49.135 26.0419 47.65 26.0419 45.34C26.0419 43.27 24.8869 41.635 22.7719 41.635C21.7969 41.635 20.7469 41.965 20.1319 42.97ZM20.2669 45.04C20.3119 43.795 21.1669 42.7 22.5469 42.7C24.1669 42.7 24.8419 43.9 24.8419 45.34C24.8419 47.095 23.6869 48.1 22.3519 48.1C21.6619 48.1 20.9269 47.935 20.2669 47.41V45.04ZM29.6259 39.55H28.6509L28.5309 41.8H26.9109V42.58L28.4559 42.655V46.225C28.4559 48.19 29.3409 49.015 30.7659 49.015C31.3209 49.015 31.9509 48.91 32.6409 48.685L32.5059 47.77C31.9809 47.965 31.5159 48.07 31.1109 48.07C30.1809 48.07 29.6259 47.485 29.6259 46.195V42.655H32.2809V41.8H29.6259V39.55ZM33.8994 39.385C33.8994 40.39 35.3844 40.39 35.3844 39.385C35.3844 38.395 33.8994 38.395 33.8994 39.385ZM35.2194 41.77H34.0494V49H35.2194V41.77ZM36.995 46.96C37.115 48.61 38.63 49.135 40.205 49.135C41.885 49.09 43.385 48.415 43.385 46.93C43.43 45.22 41.84 45.01 40.325 44.815C38.99 44.62 38.315 44.44 38.3 43.735C38.255 42.895 39.275 42.565 40.19 42.565C41.135 42.565 42.065 42.925 42.065 43.705H43.19C43.235 42.31 41.69 41.635 40.19 41.635C38.69 41.635 37.145 42.265 37.19 43.765C37.235 45.265 38.795 45.565 40.22 45.73C41.555 45.925 42.245 46.105 42.245 46.93C42.2 47.815 41.21 48.19 40.205 48.19C39.23 48.19 38.21 47.875 38.135 46.96H36.995ZM47.0869 39.55H46.1119L45.9919 41.8H44.3719V42.58L45.9169 42.655V46.225C45.9169 48.19 46.8019 49.015 48.2269 49.015C48.7819 49.015 49.4119 48.91 50.1019 48.685L49.9669 47.77C49.4419 47.965 48.9769 48.07 48.5719 48.07C47.6419 48.07 47.0869 47.485 47.0869 46.195V42.655H49.7419V41.8H47.0869V39.55ZM54.7203 41.635C52.7403 41.635 51.0903 42.91 51.0153 45.19C50.9403 47.65 52.6353 49.135 55.0353 49.135C55.9203 49.135 56.8353 48.925 57.6903 48.52L57.5103 47.635C56.6703 47.98 55.8903 48.16 55.0653 48.16C53.4303 48.16 52.1103 47.17 52.1853 45.505H57.9003C58.3053 43.12 57.1803 41.65 54.7203 41.635ZM54.7203 42.565C56.0103 42.565 57.0153 43.24 56.9403 44.605H52.2303C52.4253 43.3 53.4003 42.565 54.7203 42.565ZM65.1678 48.985V45.655H68.1228C70.3428 45.655 71.7978 44.08 71.7978 42.085C71.7978 40.075 70.3728 38.485 68.1228 38.485C66.7428 38.47 65.3028 38.485 63.9228 38.485V48.985H65.1678ZM65.1528 44.53V39.595C66.1578 39.595 67.1628 39.58 68.1228 39.595C69.5628 39.595 70.5828 40.63 70.5828 42.055C70.5828 43.51 69.5178 44.53 68.1228 44.53H65.1528ZM83.6837 43.75C83.6837 40.42 81.2987 38.365 78.3587 38.365C75.4187 38.365 73.0337 40.39 73.0337 43.75C73.0337 47.095 75.3887 49.135 78.3437 49.135C81.5087 49.135 83.6837 46.93 83.6837 43.75ZM74.2937 43.75C74.2937 41.17 76.0787 39.505 78.3587 39.505C80.6837 39.505 82.4237 41.2 82.4237 43.75C82.4237 46.3 80.6537 47.98 78.3437 47.98C76.0487 47.98 74.2937 46.3 74.2937 43.75ZM87.8668 47.995V39.49H89.5618V38.5H84.9118V39.49H86.6068V47.995H84.7918V49H89.6818V47.995H87.8668ZM92.8977 38.5H91.6377V49H97.8477V47.875H92.8977V38.5ZM106.014 46.405L107.244 49H108.534V48.835L103.689 38.455H103.119L98.2292 48.835V49H99.5342L100.764 46.405H106.014ZM103.389 40.42L105.594 45.325H101.184L103.389 40.42ZM118.075 49.015H118.48V38.485H117.22V43.405L117.355 46.42L110.515 38.47H110.08V49H111.325V43.945L111.22 41.065L118.075 49.015ZM127.376 38.5H121.271V49H127.541V47.845H122.531V44.125H127.211V43.03H122.531V39.595H127.376V38.5Z" fill="#171EB1"/>
</svg>
