<svg width="187" height="21" viewBox="0 0 187 21" fill="none" xmlns="http://www.w3.org/2000/svg">
<path d="M0.64 1.02V15H5.84C10.36 15 12.76 11.54 12.7 7.96C12.7 4.4 10.3 1.02 5.84 1.02H0.64ZM3.62 12.3V3.72H5.8C8.34 3.72 9.72 5.74 9.72 7.98C9.72 10.22 8.38 12.3 5.8 12.3H3.62ZM14.5136 2.38C14.5136 4.44 17.7936 4.46 17.7936 2.38C17.7936 0.3 14.5136 0.239999 14.5136 2.38ZM17.5536 5.4H14.7536V15H17.5536V5.4ZM23.1028 6.8C22.9428 5.08 20.9828 5.08 19.5828 5.4V7.12C20.4628 6.98 20.5428 7.5 20.5428 8.3V15H23.2828V9.88C23.2828 8.4 24.3228 7.6 25.5428 7.6C26.1628 7.58 26.7628 7.74 27.3428 8.12L27.9628 5.78C27.4028 5.36 26.6428 5.14 25.9028 5.16C24.7228 5.16 23.5028 5.7 23.1028 6.8ZM33.7058 5.16C31.1458 5.16 28.7058 6.7 28.6458 10.06C28.6458 13.32 30.9258 15.26 34.1658 15.2C35.4458 15.2 36.7658 14.9 37.9058 14.36L37.5858 12.38C36.4258 12.86 35.2058 13.04 34.0058 12.98C32.9658 12.88 31.6258 12.54 31.4458 10.96H37.9658C38.7058 7.68 37.2258 5.16 33.7058 5.16ZM33.7058 7.18C35.0258 7.18 35.7658 7.92 35.7058 9.18H31.4658C31.7058 8.02 32.3058 7.18 33.7058 7.18ZM49.5419 8.84C49.1019 6.32 46.9819 5.16 44.8019 5.16C42.2619 5.16 39.6419 6.76 39.6419 10.14C39.6419 13.54 42.2419 15.22 44.7819 15.2C47.0019 15.18 49.1819 13.88 49.5819 11.3H46.9219C46.5819 12.32 45.7419 12.86 44.8619 12.86C43.5419 12.86 42.4219 11.88 42.4219 10.14C42.4219 8.42 43.5419 7.56 44.8619 7.56C45.8219 7.56 46.5419 7.94 46.8819 8.84H49.5419ZM55.1909 2.38H52.9509L52.6509 5.38H50.6309V7.3L52.4509 7.48V11.12C52.4509 15.08 55.3909 15.62 58.7109 14.7L58.4509 12.58C56.8509 13.16 55.1909 13.06 55.1909 11.06V7.48H58.3309V5.38H55.1909V2.38ZM60.2948 2.38C60.2948 4.44 63.5748 4.46 63.5748 2.38C63.5748 0.3 60.2948 0.239999 60.2948 2.38ZM63.3348 5.4H60.5348V15H63.3348V5.4ZM75.6041 10.14C75.6041 6.74 73.0241 5.14 70.4441 5.16C67.9041 5.18 65.3841 6.8 65.3841 10.14C65.3841 13.52 67.9641 15.2 70.5241 15.2C73.0641 15.2 75.6041 13.52 75.6041 10.14ZM68.1641 10.14C68.1641 8.4 69.3441 7.62 70.5241 7.62C71.7041 7.62 72.8241 8.42 72.8241 10.14C72.8241 11.9 71.6441 12.78 70.4641 12.76C69.3041 12.76 68.1641 11.88 68.1641 10.14ZM87.4242 15V9.42C87.4242 7.02 86.3442 5.16 83.6242 5.16C82.5042 5.16 81.0842 5.52 80.5442 6.64C80.5442 4.9 78.3042 5.12 77.0242 5.34V7.08C77.9042 6.98 77.9442 7.38 77.9442 8.34V15H80.7442V9.48C80.7442 8.12 81.7242 7.38 82.7842 7.38C83.9042 7.38 84.6642 8.1 84.6042 9.42V15H87.4242ZM100.992 13.52C100.992 15.24 102.592 15.32 104.052 15L104.032 13.44C103.112 13.5 103.132 13.02 103.132 12.2V8.72C103.132 5.94 101.012 5.16 98.5317 5.16C97.2317 5.16 95.9317 5.4 94.9117 5.88L95.2717 7.84C95.7517 7.52 96.9917 7.24 98.1517 7.24C99.3517 7.24 100.452 7.6 100.452 8.64V9.64C99.6717 9.32 98.7717 9.2 97.8917 9.2C95.7517 9.2 94.1517 9.94 94.1517 12.18C94.1517 14.1 95.8517 15.2 97.6517 15.2C98.8917 15.2 100.412 14.72 100.992 13.52ZM100.452 11.34C100.352 12.66 99.1317 13.14 98.2117 13.14C97.3317 13.14 96.8917 12.74 96.8917 12.04C96.8917 11.24 97.5917 10.96 98.4317 10.96C99.2117 10.96 100.032 11.14 100.452 11.34ZM108.806 6.8C108.646 5.08 106.686 5.08 105.286 5.4V7.12C106.166 6.98 106.246 7.5 106.246 8.3V15H108.986V9.88C108.986 8.4 110.026 7.6 111.246 7.6C111.866 7.58 112.466 7.74 113.046 8.12L113.666 5.78C113.106 5.36 112.346 5.14 111.606 5.16C110.426 5.16 109.206 5.7 108.806 6.8ZM118.824 2.38H116.584L116.284 5.38H114.264V7.3L116.084 7.48V11.12C116.084 15.08 119.024 15.62 122.344 14.7L122.084 12.58C120.484 13.16 118.824 13.06 118.824 11.06V7.48H121.964V5.38H118.824V2.38ZM123.928 2.38C123.928 4.44 127.208 4.46 127.208 2.38C127.208 0.3 123.928 0.239999 123.928 2.38ZM126.968 5.4H124.168V15H126.968V5.4ZM128.997 12C129.097 14.56 131.317 15.2 133.497 15.2C135.677 15.2 137.777 14.32 137.837 12.02C137.897 9.44 135.437 9.34 133.277 9.08C132.657 9.02 131.897 8.98 131.897 8.26C131.897 7.62 132.577 7.26 133.377 7.26C134.177 7.26 134.857 7.54 134.877 8.24H137.517C137.617 6.2 135.637 5.16 133.337 5.16C130.977 5.16 129.197 6.18 129.197 8.34C129.197 10.68 131.717 10.88 133.657 11.14C134.337 11.24 135.037 11.32 135.037 12.04C135.017 12.9 134.197 13.14 133.377 13.14C132.577 13.16 131.817 12.8 131.797 12H128.997ZM143.492 2.38H141.252L140.952 5.38H138.932V7.3L140.752 7.48V11.12C140.752 15.08 143.692 15.62 147.012 14.7L146.752 12.58C145.152 13.16 143.492 13.06 143.492 11.06V7.48H146.632V5.38H143.492V2.38ZM148.596 2.38C148.596 4.44 151.876 4.46 151.876 2.38C151.876 0.3 148.596 0.239999 148.596 2.38ZM151.636 5.4H148.836V15H151.636V5.4ZM163.345 6C162.045 5.54 160.585 5.16 159.185 5.16C156.285 5.14 153.705 6.36 153.705 10.12C153.705 13.1 155.705 15.2 158.285 15.2C159.005 15.2 159.765 15.04 160.545 14.68V20.04H163.345V6ZM160.605 12.34C160.025 12.66 159.445 12.82 158.905 12.82C157.585 12.8 156.525 11.84 156.525 10.12C156.525 8.1 157.685 7.42 159.225 7.46C159.665 7.48 160.125 7.54 160.605 7.7V12.34ZM172.265 5.36V10.84C172.265 12.14 171.405 13.02 170.285 13C169.305 13 168.625 12.44 168.625 10.9V5.36H165.805V10.9C165.805 13.3 166.605 15.2 169.385 15.2C170.525 15.2 171.925 14.74 172.465 13.62C172.465 15.48 174.625 15.3 175.985 14.98L175.965 13.28C175.105 13.34 175.065 13.02 175.065 12.12V5.36H172.265ZM182.495 5.16C179.935 5.16 177.495 6.7 177.435 10.06C177.435 13.32 179.715 15.26 182.955 15.2C184.235 15.2 185.555 14.9 186.695 14.36L186.375 12.38C185.215 12.86 183.995 13.04 182.795 12.98C181.755 12.88 180.415 12.54 180.235 10.96H186.755C187.495 7.68 186.015 5.16 182.495 5.16ZM182.495 7.18C183.815 7.18 184.555 7.92 184.495 9.18H180.255C180.495 8.02 181.095 7.18 182.495 7.18Z" fill="#171EB1"/>
</svg>
