<svg width="154" height="15" viewBox="0 0 154 15" fill="none" xmlns="http://www.w3.org/2000/svg">
<path d="M10.6652 10.79L9.65721 9.124C10.2172 8.34 10.5392 7.318 10.5392 6.1C10.5392 2.81 8.11721 1.004 5.54121 1.004C2.57321 1.004 0.529208 3.076 0.529208 6.1C0.529208 9.208 2.82521 11.098 5.45721 11.14C6.46521 11.14 7.41721 10.888 8.29921 10.342L8.76121 11.098H10.6652V10.79ZM2.64321 6.1C2.64321 4.14 4.01521 3.006 5.52721 3.006C7.06721 3.006 8.43921 4.112 8.43921 6.1C8.43921 8.074 7.06721 9.18 5.54121 9.18C4.01521 9.18 2.64321 8.074 2.64321 6.1ZM17.2005 4.252V8.074C17.2005 8.984 16.5985 9.572 15.8145 9.558C15.1285 9.558 14.6105 9.068 14.6525 8.116V4.252H12.6785V8.116C12.6785 9.796 13.2385 11.098 15.1845 11.098C16.0245 11.098 16.9625 10.804 17.3405 10.02C17.3405 11.322 18.8525 11.224 19.8045 11L19.7905 9.782C19.1885 9.824 19.1605 9.6 19.1605 8.97V4.252H17.2005ZM25.061 4.084C23.269 4.084 21.561 5.19 21.519 7.542C21.519 9.824 23.115 11.21 25.383 11.168C26.279 11.168 27.203 10.944 28.001 10.566L27.777 9.138C27.371 9.32 26.769 9.474 26.167 9.544C25.873 9.586 25.551 9.572 25.271 9.558C24.333 9.488 23.549 9.082 23.479 8.032H28.057C28.575 5.736 27.525 4.084 25.061 4.084ZM25.061 5.582C25.789 5.582 26.503 5.89 26.461 6.772H23.493C23.647 5.988 24.319 5.582 25.061 5.582ZM29.9023 8.942C29.9723 10.734 31.5263 11.182 33.0523 11.182C34.5783 11.182 36.0483 10.58 36.0903 8.97C36.1323 7.164 34.4103 7.038 32.8983 6.856C32.4643 6.814 31.9323 6.744 31.9323 6.24C31.9323 5.792 32.4083 5.54 32.9683 5.54C33.5283 5.54 34.0043 5.736 34.0183 6.226H35.8663C35.9363 4.798 34.5503 4.07 32.9403 4.07C31.2883 4.07 30.0423 4.784 30.0423 6.296C30.0423 7.934 31.8063 8.116 33.1643 8.298C33.6403 8.368 34.1303 8.424 34.1303 8.97C34.1163 9.572 33.5423 9.74 32.9683 9.74C32.4083 9.754 31.8763 9.502 31.8623 8.942H29.9023ZM40.7487 2.166H39.1807L38.9707 4.266H37.5567V5.61L38.8307 5.736V8.396C38.8307 11.168 40.8887 11.546 43.2127 10.902L43.0307 9.418C41.9107 9.824 40.7487 9.754 40.7487 8.354V5.736H42.9467V4.266H40.7487V2.166ZM45.0214 2.306C45.0214 3.076 45.6234 3.454 46.2114 3.44C46.7714 3.426 47.3174 3.048 47.3174 2.306C47.3174 1.578 46.7574 1.2 46.1974 1.186C45.6094 1.172 45.0214 1.536 45.0214 2.306ZM47.1494 4.336H45.1894V11H47.1494V4.336ZM56.4379 7.598C56.4379 5.218 54.6319 4.042 52.8259 4.056C51.0479 4.07 49.2839 5.26 49.2839 7.598C49.2839 9.964 51.0899 11.14 52.8819 11.14C54.6599 11.14 56.4379 9.964 56.4379 7.598ZM51.2299 7.598C51.2299 6.38 52.0559 5.778 52.8819 5.778C53.7079 5.778 54.4919 6.394 54.4919 7.598C54.4919 8.83 53.6659 9.446 52.8399 9.432C52.0279 9.432 51.2299 8.816 51.2299 7.598ZM65.412 11V7.094C65.412 5.414 64.656 4.098 62.752 4.098C61.968 4.098 60.974 4.364 60.596 5.148C60.596 3.93 59.028 4.084 58.132 4.238V5.456C58.776 5.456 58.776 5.666 58.776 6.338V11H60.736V7.136C60.736 6.184 61.422 5.652 62.164 5.652C62.864 5.652 63.48 6.17 63.438 7.094V11H65.412ZM73.8032 5.288C73.8032 4 72.4872 4.014 71.5772 4.21L71.5912 5.512C72.3052 5.47 72.2212 5.89 72.2212 6.534V14.458H74.1812V10.706C76.5332 11.896 78.9692 10.244 78.9692 7.57C78.9692 5.736 77.9052 4.056 75.9312 4.056C75.0632 4.056 74.1812 4.448 73.8032 5.288ZM74.1252 7.318C74.1392 6.52 74.6432 5.792 75.5252 5.778C76.5192 5.778 76.9952 6.674 76.9952 7.57C76.9952 9.278 75.5112 9.908 74.1252 9.082V7.318ZM83.2054 5.19C83.0934 3.986 81.6514 3.986 80.6714 4.21V5.414C81.2874 5.316 81.3434 5.68 81.3434 6.24V11H83.2614V7.346C83.2614 6.31 83.9894 5.75 84.8434 5.75C85.2774 5.736 85.6974 5.848 86.1034 6.114L86.5374 4.476C86.1454 4.182 85.6134 4.028 85.0954 4.042C84.2694 4.042 83.4854 4.42 83.2054 5.19ZM91.2715 4.084C89.4795 4.084 87.7715 5.19 87.7295 7.542C87.7295 9.824 89.3255 11.21 91.5935 11.168C92.4895 11.168 93.4135 10.944 94.2115 10.566L93.9875 9.138C93.5815 9.32 92.9795 9.474 92.3775 9.544C92.0835 9.586 91.7615 9.572 91.4815 9.558C90.5435 9.488 89.7595 9.082 89.6895 8.032H94.2675C94.7855 5.736 93.7355 4.084 91.2715 4.084ZM91.2715 5.582C91.9995 5.582 92.7135 5.89 92.6715 6.772H89.7035C89.8575 5.988 90.5295 5.582 91.2715 5.582ZM91.7335 3.062L92.8955 1.634V1.48L91.2295 0.863999L90.2495 2.894V3.062H91.7335ZM103.056 6.688C102.748 4.924 101.264 4.042 99.7385 4.042C97.9605 4.042 96.1265 5.232 96.1265 7.598C96.1265 9.978 97.9465 11.154 99.7245 11.14C101.278 11.126 102.804 10.216 103.084 8.41H101.222C100.984 9.124 100.396 9.46 99.7805 9.46C98.9405 9.46 98.0725 8.816 98.0725 7.598C98.0725 6.394 98.9405 5.778 99.7805 5.764C100.382 5.75 100.956 6.058 101.194 6.688H103.056ZM108.285 4.084C106.493 4.084 104.785 5.19 104.743 7.542C104.743 9.824 106.339 11.21 108.607 11.168C109.503 11.168 110.427 10.944 111.225 10.566L111.001 9.138C110.595 9.32 109.993 9.474 109.391 9.544C109.097 9.586 108.775 9.572 108.495 9.558C107.557 9.488 106.773 9.082 106.703 8.032H111.281C111.799 5.736 110.749 4.084 108.285 4.084ZM108.285 5.582C109.013 5.582 109.727 5.89 109.685 6.772H106.717C106.871 5.988 107.543 5.582 108.285 5.582ZM108.747 3.062L109.909 1.634V1.48L108.243 0.863999L107.263 2.894V3.062H108.747ZM118.306 10.048C118.348 11.224 119.552 11.238 120.532 11.014L120.518 9.74C119.804 9.782 119.888 9.418 119.888 8.76V0.766H117.928V4.504C115.576 3.342 113.154 4.966 113.154 7.626C113.154 9.516 114.232 11.21 116.276 11.168C117.158 11.154 117.928 10.706 118.306 9.866V10.048ZM117.984 7.892C117.984 8.718 117.438 9.432 116.584 9.432C115.534 9.432 115.1 8.592 115.1 7.626C115.1 5.932 116.584 5.344 117.984 6.156V7.892ZM125.763 4.084C123.971 4.084 122.263 5.19 122.221 7.542C122.221 9.824 123.817 11.21 126.085 11.168C126.981 11.168 127.905 10.944 128.703 10.566L128.479 9.138C128.073 9.32 127.471 9.474 126.869 9.544C126.575 9.586 126.253 9.572 125.973 9.558C125.035 9.488 124.251 9.082 124.181 8.032H128.759C129.277 5.736 128.227 4.084 125.763 4.084ZM125.763 5.582C126.491 5.582 127.205 5.89 127.163 6.772H124.195C124.349 5.988 125.021 5.582 125.763 5.582ZM137.884 11V7.094C137.884 5.414 137.128 4.098 135.224 4.098C134.44 4.098 133.446 4.364 133.068 5.148C133.068 3.93 131.5 4.084 130.604 4.238V5.456C131.248 5.456 131.248 5.666 131.248 6.338V11H133.208V7.136C133.208 6.184 133.894 5.652 134.636 5.652C135.336 5.652 135.952 6.17 135.91 7.094V11H137.884ZM142.845 2.166H141.277L141.067 4.266H139.653V5.61L140.927 5.736V8.396C140.927 11.168 142.985 11.546 145.309 10.902L145.127 9.418C144.007 9.824 142.845 9.754 142.845 8.354V5.736H145.043V4.266H142.845V2.166ZM150.408 4.084C148.616 4.084 146.908 5.19 146.866 7.542C146.866 9.824 148.462 11.21 150.73 11.168C151.626 11.168 152.55 10.944 153.348 10.566L153.124 9.138C152.718 9.32 152.116 9.474 151.514 9.544C151.22 9.586 150.898 9.572 150.618 9.558C149.68 9.488 148.896 9.082 148.826 8.032H153.404C153.922 5.736 152.872 4.084 150.408 4.084ZM150.408 5.582C151.136 5.582 151.85 5.89 151.808 6.772H148.84C148.994 5.988 149.666 5.582 150.408 5.582Z" fill="white"/>
</svg>
