<svg width="134" height="12" viewBox="0 0 134 12" fill="none" xmlns="http://www.w3.org/2000/svg">
<path d="M6.78498 7.43C7.90498 6.884 8.53498 5.792 8.53498 4.546C8.53498 2.81 7.31698 1.186 5.07698 1.186C3.67698 1.172 2.29098 1.186 0.890981 1.186V10.986H2.99098V7.752H4.74098L6.75698 10.986H8.99698V10.692L6.78498 7.43ZM2.96298 6.03V3.02H5.06298C5.95898 3.02 6.50498 3.678 6.50498 4.504C6.51898 5.344 5.94498 6.03 5.06298 6.03H2.96298ZM13.9089 4.084C12.1169 4.084 10.4089 5.19 10.3669 7.542C10.3669 9.824 11.9629 11.21 14.2309 11.168C15.1269 11.168 16.0509 10.944 16.8489 10.566L16.6249 9.138C16.2189 9.32 15.6169 9.474 15.0149 9.544C14.7209 9.586 14.3989 9.572 14.1189 9.558C13.1809 9.488 12.3969 9.082 12.3269 8.032H16.9049C17.4229 5.736 16.3729 4.084 13.9089 4.084ZM13.9089 5.582C14.6369 5.582 15.3509 5.89 15.3089 6.772H12.3409C12.4949 5.988 13.1669 5.582 13.9089 5.582ZM22.3655 11.098L25.6835 4.476V4.252H23.5975L22.7995 6.086L21.9735 8.242H21.9455L21.1335 6.086L20.3355 4.252H18.2355V4.476L21.5535 11.098H22.3655ZM30.3343 4.084C28.5423 4.084 26.8343 5.19 26.7923 7.542C26.7923 9.824 28.3883 11.21 30.6563 11.168C31.5523 11.168 32.4763 10.944 33.2743 10.566L33.0503 9.138C32.6443 9.32 32.0423 9.474 31.4403 9.544C31.1463 9.586 30.8243 9.572 30.5443 9.558C29.6063 9.488 28.8223 9.082 28.7523 8.032H33.3303C33.8483 5.736 32.7983 4.084 30.3343 4.084ZM30.3343 5.582C31.0623 5.582 31.7763 5.89 31.7343 6.772H28.7663C28.9203 5.988 29.5923 5.582 30.3343 5.582ZM42.4555 11V7.094C42.4555 5.414 41.6995 4.098 39.7955 4.098C39.0115 4.098 38.0175 4.364 37.6395 5.148C37.6395 3.93 36.0715 4.084 35.1755 4.238V5.456C35.8195 5.456 35.8195 5.666 35.8195 6.338V11H37.7795V7.136C37.7795 6.184 38.4655 5.652 39.2075 5.652C39.9075 5.652 40.5235 6.17 40.4815 7.094V11H42.4555ZM44.7412 2.306C44.7412 3.076 45.3432 3.454 45.9312 3.44C46.4912 3.426 47.0372 3.048 47.0372 2.306C47.0372 1.578 46.4772 1.2 45.9172 1.186C45.3292 1.172 44.7412 1.536 44.7412 2.306ZM46.8692 4.336H44.9092V11H46.8692V4.336ZM51.5236 5.19C51.4116 3.986 49.9696 3.986 48.9896 4.21V5.414C49.6056 5.316 49.6616 5.68 49.6616 6.24V11H51.5796V7.346C51.5796 6.31 52.3076 5.75 53.1616 5.75C53.5956 5.736 54.0156 5.848 54.4216 6.114L54.8556 4.476C54.4636 4.182 53.9316 4.028 53.4136 4.042C52.5876 4.042 51.8036 4.42 51.5236 5.19ZM64.6786 9.964C64.6786 11.168 65.7986 11.224 66.8206 11L66.8066 9.908C66.1626 9.95 66.1766 9.614 66.1766 9.04V6.604C66.1766 4.658 64.6926 4.084 62.9566 4.084C62.0466 4.084 61.1366 4.252 60.4226 4.588L60.6746 5.988C61.2486 5.666 61.9066 5.582 62.6206 5.582C63.2926 5.582 64.3006 5.722 64.3006 6.548V7.01C63.7966 6.688 63.1106 6.576 62.5086 6.576C61.0106 6.576 59.8206 7.36 59.8906 9.012C59.9326 10.314 61.0806 11.126 62.3406 11.126C63.2086 11.126 64.2726 10.804 64.6786 9.964ZM64.2586 8.578C64.1886 9.292 63.3766 9.614 62.7326 9.614C62.2846 9.614 61.8506 9.376 61.8086 8.886C61.7386 8.228 62.2426 7.878 62.8586 7.836C63.3486 7.836 63.8666 7.962 64.2586 8.228V8.578ZM64.1326 2.852L63.1666 0.85L61.5286 1.452V1.606L62.6626 3.02H64.1326V2.852ZM72.8392 0.751999V8.438C72.8392 10.86 74.0992 11.378 76.1852 11L76.1152 9.53C75.1772 9.684 74.7712 9.474 74.7712 8.438V0.751999H72.8392ZM80.0015 2.194C80.0015 2.068 79.9875 1.942 79.9455 1.83C79.7915 1.382 79.3575 1.102 78.8535 1.102C78.1955 1.102 77.7055 1.522 77.7055 2.18C77.7055 2.698 78.0555 3.076 78.5175 3.202L78.1815 4.392H79.3295L79.9035 2.628C79.9595 2.502 79.9875 2.348 80.0015 2.194ZM86.4278 9.964C86.4278 11.168 87.5478 11.224 88.5698 11L88.5558 9.908C87.9118 9.95 87.9258 9.614 87.9258 9.04V6.604C87.9258 4.658 86.4418 4.084 84.7058 4.084C83.7958 4.084 82.8858 4.252 82.1718 4.588L82.4238 5.988C82.9978 5.666 83.6558 5.582 84.3698 5.582C85.0418 5.582 86.0498 5.722 86.0498 6.548V7.01C85.5458 6.688 84.8598 6.576 84.2578 6.576C82.7598 6.576 81.5698 7.36 81.6398 9.012C81.6818 10.314 82.8298 11.126 84.0898 11.126C84.9578 11.126 86.0218 10.804 86.4278 9.964ZM86.0078 8.578C85.9378 9.292 85.1258 9.614 84.4818 9.614C84.0338 9.614 83.5998 9.376 83.5578 8.886C83.4878 8.228 83.9918 7.878 84.6078 7.836C85.0978 7.836 85.6158 7.962 86.0078 8.228V8.578ZM97.0777 6.688C96.7697 4.924 95.2857 4.042 93.7597 4.042C91.9817 4.042 90.1477 5.232 90.1477 7.598C90.1477 9.978 91.9677 11.154 93.7457 11.14C95.2997 11.126 96.8257 10.216 97.1057 8.41H95.2437C95.0057 9.124 94.4177 9.46 93.8017 9.46C92.9617 9.46 92.0937 8.816 92.0937 7.598C92.0937 6.394 92.9617 5.778 93.8017 5.764C94.4037 5.75 94.9777 6.058 95.2157 6.688H97.0777ZM105.68 6.688C105.372 4.924 103.888 4.042 102.362 4.042C100.584 4.042 98.7501 5.232 98.7501 7.598C98.7501 9.978 100.57 11.154 102.348 11.14C103.902 11.126 105.428 10.216 105.708 8.41H103.846C103.608 9.124 103.02 9.46 102.404 9.46C101.564 9.46 100.696 8.816 100.696 7.598C100.696 6.394 101.564 5.778 102.404 5.764C103.006 5.75 103.58 6.058 103.818 6.688H105.68ZM112.21 4.252V8.074C112.21 8.984 111.608 9.572 110.824 9.558C110.138 9.558 109.62 9.068 109.662 8.116V4.252H107.688V8.116C107.688 9.796 108.248 11.098 110.194 11.098C111.034 11.098 111.972 10.804 112.35 10.02C112.35 11.322 113.862 11.224 114.814 11L114.8 9.782C114.198 9.824 114.17 9.6 114.17 8.97V4.252H112.21ZM120.071 4.084C118.279 4.084 116.571 5.19 116.529 7.542C116.529 9.824 118.125 11.21 120.393 11.168C121.289 11.168 122.213 10.944 123.011 10.566L122.787 9.138C122.381 9.32 121.779 9.474 121.177 9.544C120.883 9.586 120.561 9.572 120.281 9.558C119.343 9.488 118.559 9.082 118.489 8.032H123.067C123.585 5.736 122.535 4.084 120.071 4.084ZM120.071 5.582C120.799 5.582 121.513 5.89 121.471 6.772H118.503C118.657 5.988 119.329 5.582 120.071 5.582ZM125.178 2.306C125.178 3.076 125.78 3.454 126.368 3.44C126.928 3.426 127.474 3.048 127.474 2.306C127.474 1.578 126.914 1.2 126.354 1.186C125.766 1.172 125.178 1.536 125.178 2.306ZM127.306 4.336H125.346V11H127.306V4.336ZM129.791 0.751999V8.438C129.791 10.86 131.051 11.378 133.137 11L133.067 9.53C132.129 9.684 131.723 9.474 131.723 8.438V0.751999H129.791Z" fill="white"/>
</svg>
