<svg width="97" height="45" viewBox="0 0 97 45" fill="none" xmlns="http://www.w3.org/2000/svg">
<path d="M9.6375 36.16C9.4775 37.8 9.1575 41 6.9575 41C4.0375 41 3.8375 32.6 3.8375 30.52C3.8375 28.36 3.9975 26.2 3.9975 24.04C3.9975 22.2 3.8775 20.36 3.8775 18.48C3.8775 16.76 4.0375 10.2 6.5175 10.2C8.8775 10.2 9.3175 14.84 9.4775 16.52C10.0375 16.36 10.6375 16.16 11.2375 16.08C11.5575 16 12.1575 16.08 12.1575 15.56C12.1575 15.32 12.0375 15.04 11.9175 14.84C11.8775 13.96 11.5975 13.12 11.3175 12.24C10.5975 9.96 9.2775 6.44 6.3975 6.44C4.2775 6.44 2.7975 8.4 2.0775 10.2C0.7175 13.68 1.0775 18.16 1.0775 21.88C1.0775 24.08 0.9975 26.32 0.9975 28.56C0.9975 30.16 1.0375 31.8 1.1575 33.4C1.4375 37.04 1.7175 44.68 6.8375 44.68C10.7575 44.68 12.5575 40.08 12.5575 36.8C12.5575 36.16 10.3175 36.16 9.9175 36.16H9.6375ZM28.1119 33.68C27.5519 31.28 26.8319 28.88 26.3519 26.44C26.1519 25.32 25.9519 24.2 25.6319 23.08C25.4719 22.48 25.1519 21.88 25.1519 21.24C25.1519 20.16 27.1919 17.76 27.1919 15.36C27.1919 10.48 23.3119 9.72 19.3119 9.72C17.6319 9.72 16.5119 9.8 16.5119 11.84C16.5119 13.2 16.8319 14.52 16.9119 15.88C17.2719 20.8 17.6319 25.72 17.8319 30.64C17.9119 33.2 18.3119 35.76 18.3119 38.32C18.3119 39 18.1919 39.68 18.1919 40.36C18.1919 40.88 18.3919 41.4 19.0319 41.4C19.6319 41.4 21.3519 41.44 21.3519 40.56C21.3519 40 21.1919 39.44 21.1119 38.84C20.7919 36.52 20.9519 34.16 20.7919 31.8C20.6719 29.44 20.5519 27.08 20.1919 24.76C20.1119 24.24 19.9519 23.72 19.9519 23.16C19.9519 22.68 20.1919 22.28 20.7119 22.28L20.9519 22.32C22.2319 22.56 22.8319 26.2 23.1519 27.28C24.5519 31.64 26.0319 35.96 27.5519 40.24C27.7519 40.84 27.6719 41.04 28.3119 41.24C28.5119 41.28 28.9119 41.24 29.1119 41.24C29.3919 41.24 29.8719 41.36 30.0319 41.04C29.1519 38.64 28.6719 36.2 28.1119 33.68ZM24.4719 15.84C24.3919 17.96 22.5519 20.56 20.2719 20.56C19.8719 20.56 19.9519 19.68 19.9119 19.44L19.6319 15.88C19.5519 14.88 19.3519 13.88 19.3519 12.88C19.3519 12 19.4719 11.4 20.5519 11.4C23.1519 11.4 24.4719 12.92 24.4719 15.48V15.84ZM37.7553 7.64C36.7153 7.56 35.7153 7.32 34.6753 7.32C33.2353 7.32 33.0753 8.32 33.0753 9.48C33.0753 10.32 33.2353 11.16 33.2353 12.04C33.3153 15.08 33.3153 18.16 33.3153 21.2C33.3153 27.68 33.2753 34.12 33.2753 40.6C33.2753 41.36 33.0353 42.12 33.0353 42.88C33.0353 43.8 33.2753 43.84 34.1153 43.84C35.6353 43.84 37.1953 43.6 38.7153 43.36C39.2353 43.28 39.8353 43.28 39.8353 42.56C39.8353 41.88 39.7953 41.2 39.7953 40.52C39.7953 40.08 39.7153 39.88 39.2753 39.88C38.4353 39.88 37.7153 40.36 36.9153 40.36C36.3953 40.36 36.2753 39.88 36.2753 39.44C36.2753 38.72 36.4753 37.96 36.4753 37.2C36.4753 36.12 36.4353 35 36.3953 33.92C36.3553 32.64 35.9953 31.4 35.9953 30.12C35.9953 29.36 36.0753 28.32 37.0753 28.32C37.7153 28.32 38.2753 28.72 38.9153 28.72C39.3153 28.72 39.6753 28.4 39.6753 28C39.6753 27.56 39.5153 27.16 39.4753 26.72C39.3553 25.56 39.6353 25.36 38.1953 25.36C37.6753 25.36 37.1953 25.6 36.6753 25.6C36.1953 25.6 36.1553 24.84 36.1553 24.48C35.9153 22.04 36.0353 19.6 36.0353 17.16C36.0353 15.44 35.7153 13.72 35.7153 11.96C35.7153 11.44 35.8353 11.16 36.4353 11.16C37.4753 11.16 38.3953 11.88 39.4353 11.88C40.4753 11.88 40.4753 9.76 40.4753 9.04C40.4753 7.44 39.5553 7.68 38.3553 7.68L37.7553 7.64ZM37.5153 1.2C36.7153 1.76 33.6353 4.2 33.6353 5.08C33.6353 5.72 34.7553 5.92 35.2353 5.92C36.4753 5.92 39.8753 3.88 39.8753 2.52C39.8753 1.92 38.9953 0.879999 38.3553 0.879999C38.0353 0.879999 37.7153 1 37.5153 1.2ZM54.1634 14.76C52.6034 11.28 49.1234 8.72 45.2834 8.72C44.7234 8.72 44.2834 8.84 44.2834 9.52C44.2834 9.96 44.3634 10.4 44.4034 10.88C44.5634 12.52 44.5634 14.12 44.6034 15.76C44.8034 22.64 45.2834 29.52 45.5634 36.4C45.6434 38 45.7634 39.56 45.7634 41.16C45.7634 42.04 45.9634 42.4 46.9234 42.4C54.2034 42.4 56.3634 35.12 56.3634 29.36C56.3634 24.44 56.1634 19.32 54.1634 14.76ZM49.2834 38.72C48.6834 38.72 48.6834 37.96 48.6834 37.56C48.6834 35.24 48.4834 33.04 48.3234 30.72C48.0434 26.76 47.8434 22.8 47.5234 18.84C47.4834 18.32 46.9634 12.04 47.1634 12.04C50.5234 12.04 53.0834 20.28 53.0834 26.24C53.0834 28.44 53.1234 38.72 49.2834 38.72ZM67.0209 38.6C65.9409 37.68 66.0209 31.64 65.9809 30.08C65.9009 25.96 65.8609 21.84 65.4609 17.72C65.3009 16.32 64.9809 14.92 64.9809 13.52C64.9809 13.08 65.0609 12.52 65.5809 12.52C66.0209 12.52 66.4609 12.68 66.9009 12.68C67.3809 12.68 67.4209 12.32 67.4209 11.96C67.4209 11.12 67.2609 10.32 67.1809 9.48C65.8609 9.64 64.5409 9.72 63.1809 9.72C62.5809 9.72 61.9809 9.6 61.3809 9.6C60.0609 9.6 59.9409 10.28 59.9409 11.4C59.9409 11.88 59.9809 12.92 60.6609 12.92C61.1809 12.92 61.7009 12.72 62.2609 12.64C62.3409 20.08 62.9009 27.52 63.4609 34.96C63.5409 35.92 63.6209 36.92 63.6209 37.88C63.6209 39.04 62.5409 38.8 61.7809 38.8H61.4209C61.4209 39.56 61.3009 41.68 62.4209 41.68C63.9409 41.68 65.4609 41.6 67.0209 41.48C68.1409 41.4 68.8209 41.36 68.8209 40V39.8C68.8209 39.56 68.8209 38.6 68.4609 38.6C68.1409 38.6 67.9009 38.76 67.6209 38.76C67.3809 38.76 67.1809 38.72 66.9809 38.6H67.0209ZM79.6478 9.28C79.1678 9.08 78.6878 9.04 78.2078 9.04C77.2878 9.04 76.3678 9.2 75.4078 9.2C74.2478 9.2 73.0478 9.24 71.9278 8.96C71.5278 8.88 71.1678 8.68 70.7678 8.68C70.1278 8.68 70.0078 10.28 70.0078 10.76C70.0078 11.48 70.1278 12.32 71.0878 12.32C71.8078 12.32 72.4478 11.88 73.1678 11.88C74.4478 11.88 74.3678 12.88 74.3678 13.84C74.5678 21.76 75.1278 29.64 75.3678 37.56V37.68C75.3678 38.72 75.2478 39.76 75.2478 40.8C75.2478 41.96 75.4078 42.44 76.6878 42.44C77.4878 42.44 78.6478 42.32 78.6478 41.24C78.6478 40.6 78.4478 40 78.3678 39.4C78.2878 38.68 78.3278 38 78.3278 37.28C78.3278 36.64 78.2878 35.96 78.2478 35.28C77.9278 31.6 77.7278 27.92 77.5678 24.24C77.4078 20.68 77.4478 17.16 77.0878 13.64C77.0478 13.36 77.0078 13.08 77.0078 12.76C77.0078 12.48 77.0078 11.96 77.4078 11.96C77.9678 11.96 78.4878 12.44 79.0878 12.44C79.8878 12.44 80.4478 11.68 80.4478 10.92C80.4478 10.32 80.2078 9.6 79.6478 9.28ZM88.2769 16.76C87.9569 15.88 87.7569 14.92 87.7569 13.96C87.7569 12.72 88.2769 10.88 89.8369 10.88C92.1969 10.88 91.5569 14.8 92.3169 15.12C92.8369 15.36 93.3969 15.36 93.9569 15.36C94.6369 15.36 94.8369 14.88 94.8369 14.28C94.8369 11.52 93.1969 8.48 90.0769 8.48C86.7569 8.48 85.0769 11.12 85.0769 14.2C85.0769 19.96 91.4369 24.44 92.9569 30C93.3169 31.44 93.3569 32.96 93.3569 34.44C93.3569 36.04 93.3169 40.8 90.9969 40.8C88.4369 40.8 88.5169 36.04 88.5169 34.28C88.5169 32.84 88.2369 32.16 86.6369 32.16C85.6369 32.16 85.4369 33.16 85.4369 33.92C85.4369 37.52 86.5969 42.64 91.0769 42.64C94.6369 42.64 96.5969 38.6 96.5969 35.48C96.5969 30.52 94.5969 25.76 91.6769 21.84C90.4769 20.2 88.9969 18.72 88.2769 16.76Z" fill="#FEFEFE"/>
</svg>
