<svg width="110" height="20" viewBox="0 0 110 20" fill="none" xmlns="http://www.w3.org/2000/svg">
<path d="M5.88 12.62V3.32H7.7V0.999999H1.06V3.32H2.88V12.62H0.9V15H7.86V12.62H5.88ZM19.557 15V9.42C19.557 7.02 18.477 5.16 15.757 5.16C14.637 5.16 13.217 5.52 12.677 6.64C12.677 4.9 10.437 5.12 9.15703 5.34V7.08C10.037 6.98 10.077 7.38 10.077 8.34V15H12.877V9.48C12.877 8.12 13.857 7.38 14.917 7.38C16.037 7.38 16.797 8.1 16.737 9.42V15H19.557ZM25.6441 2.38H23.4041L23.1041 5.38H21.0841V7.3L22.9041 7.48V11.12C22.9041 15.08 25.8441 15.62 29.1641 14.7L28.9041 12.58C27.3041 13.16 25.6441 13.06 25.6441 11.06V7.48H28.7841V5.38H25.6441V2.38ZM36.128 3.66L37.788 1.62V1.4L35.408 0.519999L34.008 3.42V3.66H36.128ZM35.448 5.16C32.888 5.16 30.448 6.7 30.388 10.06C30.388 13.32 32.668 15.26 35.908 15.2C37.188 15.2 38.508 14.9 39.648 14.36L39.328 12.38C38.168 12.86 36.948 13.04 35.748 12.98C34.708 12.88 33.368 12.54 33.188 10.96H39.708C40.448 7.68 38.968 5.16 35.448 5.16ZM35.448 7.18C36.768 7.18 37.508 7.92 37.448 9.18H33.208C33.448 8.02 34.048 7.18 35.448 7.18ZM48.3236 15.18C48.3236 17.1 47.2836 17.74 45.9636 17.76C44.8436 17.76 43.5236 17.32 42.4836 16.76L42.1236 18.92C43.4836 19.64 44.9436 20 46.3036 20C48.8836 20 51.0236 18.52 51.0236 15.08V6.04C49.7436 5.5 48.3636 5.16 46.9236 5.16C43.9636 5.1 41.4436 6.66 41.4436 10.32C41.4436 13.48 43.3036 15.22 45.8436 15.18C46.6236 15.16 47.4636 14.98 48.3236 14.58V15.18ZM48.2836 12.28C47.6636 12.62 47.0436 12.78 46.4836 12.78C45.1836 12.78 44.2236 11.96 44.2236 10.16C44.2236 8.26 45.1836 7.46 46.6436 7.46C47.1836 7.46 47.7436 7.52 48.2836 7.66V12.28ZM56.5052 6.8C56.3452 5.08 54.3852 5.08 52.9852 5.4V7.12C53.8652 6.98 53.9452 7.5 53.9452 8.3V15H56.6852V9.88C56.6852 8.4 57.7252 7.6 58.9452 7.6C59.5652 7.58 60.1652 7.74 60.7452 8.12L61.3652 5.78C60.8052 5.36 60.0452 5.14 59.3052 5.16C58.1252 5.16 56.9052 5.7 56.5052 6.8ZM68.8472 13.52C68.8472 15.24 70.4472 15.32 71.9072 15L71.8872 13.44C70.9672 13.5 70.9872 13.02 70.9872 12.2V8.72C70.9872 5.94 68.8672 5.16 66.3872 5.16C65.0872 5.16 63.7872 5.4 62.7672 5.88L63.1272 7.84C63.6072 7.52 64.8472 7.24 66.0072 7.24C67.2072 7.24 68.3072 7.6 68.3072 8.64V9.64C67.5272 9.32 66.6272 9.2 65.7472 9.2C63.6072 9.2 62.0072 9.94 62.0072 12.18C62.0072 14.1 63.7072 15.2 65.5072 15.2C66.7472 15.2 68.2672 14.72 68.8472 13.52ZM68.3072 11.34C68.2072 12.66 66.9872 13.14 66.0672 13.14C65.1872 13.14 64.7472 12.74 64.7472 12.04C64.7472 11.24 65.4472 10.96 66.2872 10.96C67.0672 10.96 67.8872 11.14 68.3072 11.34ZM77.2847 2.38H75.0447L74.7447 5.38H72.7247V7.3L74.5447 7.48V11.12C74.5447 15.08 77.4847 15.62 80.8047 14.7L80.5447 12.58C78.9447 13.16 77.2847 13.06 77.2847 11.06V7.48H80.4247V5.38H77.2847V2.38ZM82.3886 2.38C82.3886 4.44 85.6686 4.46 85.6686 2.38C85.6686 0.3 82.3886 0.239999 82.3886 2.38ZM85.4286 5.4H82.6286V15H85.4286V5.4ZM97.6978 10.14C97.6978 6.74 95.1178 5.14 92.5378 5.16C89.9978 5.18 87.4778 6.8 87.4778 10.14C87.4778 13.52 90.0578 15.2 92.6178 15.2C95.1578 15.2 97.6978 13.52 97.6978 10.14ZM90.2578 10.14C90.2578 8.4 91.4378 7.62 92.6178 7.62C93.7978 7.62 94.9178 8.42 94.9178 10.14C94.9178 11.9 93.7378 12.78 92.5578 12.76C91.3978 12.76 90.2578 11.88 90.2578 10.14ZM109.518 15V9.42C109.518 7.02 108.438 5.16 105.718 5.16C104.598 5.16 103.178 5.52 102.638 6.64C102.638 4.9 100.398 5.12 99.118 5.34V7.08C99.998 6.98 100.038 7.38 100.038 8.34V15H102.838V9.48C102.838 8.12 103.818 7.38 104.878 7.38C105.998 7.38 106.758 8.1 106.698 9.42V15H109.518Z" fill="#171EB1"/>
</svg>
