<svg width="115" height="20" viewBox="0 0 115 20" fill="none" xmlns="http://www.w3.org/2000/svg">
<path d="M0.84 10.76C0.84 13.82 3.74 15.2 6.54 15.2C9.3 15.14 12.16 14.14 12.16 10.84C12.16 7.56 9.62 6.98 6.66 6.72C5.2 6.56 3.98 6.38 3.98 5.14C3.98 4.06 5.14 3.4 6.36 3.4C7.56 3.4 8.74 3.9 8.9 5.04H11.7C11.7 1.9 8.98 0.799999 6.36 0.799999C3.58 0.799999 1.04 2.1 1.04 5.2C1.04 8.1 3.6 8.86 6.14 9.08C7.48 9.18 9.2 9.3 9.2 10.84C9.2 12.3 7.76 12.58 6.52 12.58C5.16 12.58 3.76 12.04 3.7 10.76H0.84ZM17.7534 2.38H15.5134L15.2134 5.38H13.1934V7.3L15.0134 7.48V11.12C15.0134 15.08 17.9534 15.62 21.2734 14.7L21.0134 12.58C19.4134 13.16 17.7534 13.06 17.7534 11.06V7.48H20.8934V5.38H17.7534V2.38ZM32.7173 10.14C32.7173 6.74 30.1373 5.14 27.5573 5.16C25.0173 5.18 22.4973 6.8 22.4973 10.14C22.4973 13.52 25.0773 15.2 27.6373 15.2C30.1773 15.2 32.7173 13.52 32.7173 10.14ZM25.2773 10.14C25.2773 8.4 26.4573 7.62 27.6373 7.62C28.8173 7.62 29.9373 8.42 29.9373 10.14C29.9373 11.9 28.7573 12.78 27.5773 12.76C26.4173 12.76 25.2773 11.88 25.2773 10.14ZM37.6575 6.8C37.4975 5.08 35.5375 5.08 34.1375 5.4V7.12C35.0175 6.98 35.0975 7.5 35.0975 8.3V15H37.8375V9.88C37.8375 8.4 38.8775 7.6 40.0975 7.6C40.7175 7.58 41.3175 7.74 41.8975 8.12L42.5175 5.78C41.9575 5.36 41.1975 5.14 40.4575 5.16C39.2775 5.16 38.0575 5.7 37.6575 6.8ZM53.4953 5.68V5.36H50.6553L49.4953 8.64L48.3953 12.18H48.3353L47.0753 8.62L45.7753 5.36H42.8353V5.68L47.0553 15.02L46.6953 16.02C46.1353 17.62 45.3153 18.22 43.7353 17.52L43.4353 19.46C46.9353 20.74 48.2753 19.08 49.4953 15.94L53.4953 5.68ZM58.8472 2.38H56.6072L56.3072 5.38H54.2872V7.3L56.1072 7.48V11.12C56.1072 15.08 59.0472 15.62 62.3672 14.7L62.1072 12.58C60.5072 13.16 58.8472 13.06 58.8472 11.06V7.48H61.9872V5.38H58.8472V2.38ZM68.6511 5.16C66.0911 5.16 63.6511 6.7 63.5911 10.06C63.5911 13.32 65.8711 15.26 69.1111 15.2C70.3911 15.2 71.7111 14.9 72.8511 14.36L72.5311 12.38C71.3711 12.86 70.1511 13.04 68.9511 12.98C67.9111 12.88 66.5711 12.54 66.3911 10.96H72.9111C73.6511 7.68 72.1711 5.16 68.6511 5.16ZM68.6511 7.18C69.9711 7.18 70.7111 7.92 70.6511 9.18H66.4111C66.6511 8.02 67.2511 7.18 68.6511 7.18ZM75.0872 0.359999V11.26C75.0872 14.72 76.8872 15.46 79.8672 14.92L79.7672 12.82C78.4272 13.04 77.8472 12.74 77.8472 11.26V0.359999H75.0872ZM81.2591 0.359999V11.26C81.2591 14.72 83.0591 15.46 86.0391 14.92L85.9391 12.82C84.5991 13.04 84.0191 12.74 84.0191 11.26V0.359999H81.2591ZM87.2909 2.38C87.2909 4.44 90.5709 4.46 90.5709 2.38C90.5709 0.3 87.2909 0.239999 87.2909 2.38ZM90.3309 5.4H87.5309V15H90.3309V5.4ZM102.76 15V9.42C102.76 7.02 101.68 5.16 98.9602 5.16C97.8402 5.16 96.4202 5.52 95.8802 6.64C95.8802 4.9 93.6402 5.12 92.3602 5.34V7.08C93.2402 6.98 93.2802 7.38 93.2802 8.34V15H96.0802V9.48C96.0802 8.12 97.0602 7.38 98.1202 7.38C99.2402 7.38 100 8.1 99.9402 9.42V15H102.76ZM111.585 15.18C111.585 17.1 110.545 17.74 109.225 17.76C108.105 17.76 106.785 17.32 105.745 16.76L105.385 18.92C106.745 19.64 108.205 20 109.565 20C112.145 20 114.285 18.52 114.285 15.08V6.04C113.005 5.5 111.625 5.16 110.185 5.16C107.225 5.1 104.705 6.66 104.705 10.32C104.705 13.48 106.565 15.22 109.105 15.18C109.885 15.16 110.725 14.98 111.585 14.58V15.18ZM111.545 12.28C110.925 12.62 110.305 12.78 109.745 12.78C108.445 12.78 107.485 11.96 107.485 10.16C107.485 8.26 108.445 7.46 109.905 7.46C110.445 7.46 111.005 7.52 111.545 7.66V12.28Z" fill="#171EB1"/>
</svg>
