<?xml version="1.0" encoding="utf-8"?>
<!-- Generator: Adobe Illustrator 25.1.0, SVG Export Plug-In . SVG Version: 6.00 Build 0)  -->
<svg version="1.1" id="Calque_1" xmlns="http://www.w3.org/2000/svg" xmlns:xlink="http://www.w3.org/1999/xlink" x="0px" y="0px"
	 viewBox="0 0 1320 700" style="enable-background:new 0 0 1320 700;" xml:space="preserve">
<style type="text/css">
	.st0{fill:#A3CED8;}
	.st1{fill:#F6AF8D;}
	.st2{fill:#2A315B;}
	.st3{fill:#F2B608;}
	.st4{fill:#EEAD1C;}
	.st5{fill:#F9C7A6;}
	.st6{fill:#192624;}
	.st7{fill:#F7EAE6;}
	.st8{fill:none;stroke:#F7EAE6;stroke-width:2;stroke-linecap:round;stroke-miterlimit:10;}
	.st9{fill:none;stroke:#F6AF8D;stroke-width:0.5;stroke-miterlimit:10;}
	.st10{fill:#E3572C;}
	.st11{fill:#D03E18;}
	.st12{fill:none;stroke:#4A547E;stroke-width:2;stroke-linecap:round;stroke-miterlimit:10;}
	.st13{fill:#BEE2ED;}
	.st14{fill:none;stroke:#A3CED8;stroke-width:2;stroke-linecap:round;stroke-miterlimit:10;}
	.st15{fill:#D64320;}
	.st16{fill:none;stroke:#192624;stroke-width:0.25;stroke-linecap:round;stroke-miterlimit:10;}
	.st17{fill:#55608A;}
	.st18{opacity:0.3;}
	.st19{fill:#93AFDB;}
	.st20{fill:#2B315B;}
	.st21{fill:#BEE2EC;}
	.st22{fill:#1E3C76;}
	.st23{opacity:0.56;fill:#FFFFFF;enable-background:new    ;}
	.st24{fill:none;stroke:#FFFFFF;stroke-width:0.5;stroke-miterlimit:10;}
	.st25{fill:none;stroke:#2A315B;stroke-width:2;stroke-miterlimit:10;}
	.st26{fill:#1F3B78;}
	.st27{fill:#191919;}
	.st28{fill:none;stroke:#D64320;stroke-width:0.5;stroke-miterlimit:10;}
	.st29{fill:none;stroke:#E3572C;stroke-width:2;stroke-linecap:round;stroke-miterlimit:10;}
	.st30{fill:#82CCDF;}
	.st31{fill:none;stroke:#4C6CA4;stroke-width:2;stroke-linecap:round;stroke-miterlimit:10;}
	.st32{fill:none;stroke:#192624;stroke-width:0.5;stroke-linecap:round;stroke-linejoin:round;stroke-miterlimit:10;}
	.st33{fill:#E29900;}
	.st34{fill:none;stroke:#2A315B;stroke-width:2;stroke-linecap:round;stroke-miterlimit:10;}
	.st35{fill:#1A2347;}
	.st36{fill:none;stroke:#FFDDA4;stroke-linecap:round;stroke-miterlimit:10;}
	.st37{fill:#0C142D;}
	.st38{fill:#FFFFFF;}
	.st39{fill:#91B3FA;}
	.st40{fill:none;}
	.st41{fill:#F5AE8C;}
	.st42{fill:#F6E9E5;}
	.st43{fill:#182624;}
	.st44{fill:#F8C6A5;}
	.st45{fill:none;stroke:#182624;stroke-width:0.25;stroke-linecap:round;stroke-miterlimit:10;}
	.st46{fill:none;stroke:#182624;stroke-width:0.5;stroke-linecap:round;stroke-linejoin:round;stroke-miterlimit:10;}
	.st47{fill:#D5431F;}
	.st48{fill:#F1B50A;}
	.st49{fill:#E3572B;}
</style>
<g>
	<path class="st0" d="M814.6,465.5h-60.1c-7.8,0-14.1-6.3-14.1-14.1v-20.1c0-7.8,6.3-14.1,14.1-14.1h60.1c7.8,0,14.1,6.3,14.1,14.1
		v20C828.8,459.1,822.5,465.5,814.6,465.5z"/>
	<polygon class="st1" points="821.9,536.3 822.1,546.4 842,546.3 842.7,536.9 	"/>
	<path class="st2" d="M852,405.4l-23.2-107.3c-5.4,0.1-4.3,0.1-9.6,0.1l-0.7,3.6c2.9,1.1,5.8,2.1,8.8,3.2
		c2.4,17.4,4.7,34.8,7.1,52.2c0.4,3.3,0.9,6.6,1.4,10c0.6,4.3,1.2,8.6,1.8,12.9c0.1,0.9,0.1,1.6,0.2,2.5c0.7,9.4,1.3,18.7,2,28.1
		c0.6,0.5,3.1,2.4,6.6,2.3h0.1C850,412.9,852.8,409.1,852,405.4z M838.5,364.1c-0.6-2.7-1.2-5.5-1.7-8.3"/>
	<path class="st2" d="M866.6,567.5c-15.1,0.3-30,0.5-45.1,0.8c0.2-9.2,0.3-18.5,0.4-27.7c6.8-0.1,13.6-0.1,20.4-0.2
		c0.2,2.8,0.4,5.6,0.6,8.4l17.7,8c3.7,1.6,6.3,4.9,7.2,8.8C868.3,566.6,867.6,567.5,866.6,567.5z"/>
	<polygon class="st1" points="769.4,535.2 768.9,545.2 788.8,546.6 790,537.2 	"/>
	<path class="st2" d="M811.7,569.5c-15-0.9-29.9-1.8-44.9-2.6c1.1-12.7,2.2-25.4,3.2-38c7.1,0.1,14,0.2,21.1,0.2
		c-0.5,6.7-1,13.4-1.5,20.2l17,9.4c3.5,2,6,5.4,6.6,9.3C813.4,568.7,812.6,569.5,811.7,569.5z"/>
	<path class="st3" d="M842.3,381.6c2.3,52.9,4.7,105.9,7,158.8c-11.3,0.1-22.6,0.2-33.9,0.3c-3.8-53-7.6-106-11.4-159.1"/>
	<path class="st4" d="M788.5,381.6h53.3c-12.7,53-25.3,106-38,159c-13.8,0-27.5,0-41.3,0C771.1,487.6,779.8,434.6,788.5,381.6z"/>
	<g id="COU_2_">
		<path class="st1" d="M806.2,283.6l-4.3,15c2.4,0.7,4.9,1.4,7.8,2c3.1,0.6,6,1,8.7,1.2l2.2-11.4
			C820.6,290.3,811.1,278.2,806.2,283.6z"/>
	</g>
	<path class="st5" d="M831.9,277.6c-0.1,1.5-0.3,2.9-0.5,4.2c-0.7,3.1-1.9,5.4-2.8,6.8c-0.7,1.1-1.8,1.9-3.1,2.3
		c-13.8,3.9-17.5-7.4-17.5-7.4c-0.3,0.3-1.4,1-2.9,1c-1.7,0-3.4-0.9-4.3-2.5c-1-1.9-0.3-3.7-0.3-4.1c0.6-1.5,2-2.7,3.5-3.1
		c2-0.5,4.3,0.3,5.5,2.1l2-8c-1.6-2-2-4.3-1.3-5.4c1-1.3,4.4-1.4,7.5,1.4c4,0.6,8,1.1,12,1.7c0.5,1.2,1,2.8,1.4,4.5
		c0,0,0.4,1.8,0.6,3.8c0,0.2,0,0.3,0,0.5C832,276.2,832,276.9,831.9,277.6z"/>
	<path class="st1" d="M817.1,277.5c1.3,0,2.4,1.1,2.4,2.4c0,1.3-1.1,2.4-2.4,2.4s-2.4-1.1-2.4-2.4
		C814.7,278.5,815.8,277.5,817.1,277.5z"/>
	<path class="st1" d="M831.9,277.6c-0.1,1.5-0.3,2.9-0.5,4.2c-0.6-0.4-1-1.1-1-2C830.5,278.8,831.1,278,831.9,277.6z"/>
	<circle class="st6" cx="824.6" cy="275.5" r="0.6"/>
	<path class="st6" d="M831.9,275.4c-0.1,0.2-0.3,0.3-0.5,0.3c-0.3,0-0.5-0.3-0.5-0.6s0.3-0.6,0.5-0.6c0.2,0,0.3,0.1,0.5,0.3V275.4z"
		/>
	<path class="st7" d="M810,278.1c1-0.2,2-0.3,3-0.6v5.4c0,1.1,0.5,2.1,1.4,2.8c2.2,1.8,7.1,4.5,15,1.8c0,0,0.1,8.4-4.7,7.7
		c-4.8-0.8-16.9-3.7-16.5-11.9C808.7,281.7,809.4,279.9,810,278.1z"/>
	<path class="st8" d="M824,269.5c0,0-2.7-1.4-4.5,0.9"/>
	<path class="st8" d="M831.7,269.4c-0.7-0.2-1.6-0.2-2.6,0.3"/>
	<path class="st9" d="M821.4,279.3c0.3,0.3,0.7,0.6,1.3,0.9c0.9,0.3,1.8,0.3,2.1,0.2"/>
	<path class="st7" d="M823.7,283.5c1.4-1.4,5.1-4.3,8.2,0.1c0.2,0.3,0,0.7-0.3,0.7l-7.7-0.1C823.6,284.3,823.5,283.8,823.7,283.5z"
		/>
	<path class="st7" d="M812.9,278.5c-3.4,0-6.8,0-10.3,0c0,0-5.4-21,14.2-20.8c19.5,0.3,14.6,14.8,14.6,14.8l-1.7-5.8l-15.4,0.2
		l-4-3.3l2.6,4.6C813,271.5,812.9,275,812.9,278.5z"/>
	<ellipse class="st5" cx="805.3" cy="279.7" rx="5" ry="4.8"/>
	<g>
		<path class="st10" d="M842.6,382.6c-1.7,0-3.4,0-5.1,0c-4.9,0-9.6-0.1-14.5-0.1c1.4-25.9,2.7-51.7,4.1-77.6c0-0.6,0.1-1.2,0.1-1.8
			c1.3,8.2,2.6,16.6,4.2,25.1c0.4,2.1,0.8,4.3,1.2,6.5c0.6,3.4,1.3,6.8,2,10.3c0.7,3.7,1.4,7.3,2.2,10.9c0.6,2.8,1.2,5.5,1.7,8.3
			C839.8,370.4,841.3,376.6,842.6,382.6z"/>
		<path class="st11" d="M838.5,364.1c-0.7,1.4-1.4,3-2,4.4c-0.3-0.4-0.6-0.9-0.9-1.4c-1.1-1.8-2.2-3.6-3.4-5.4
			c0.7-1.5,1.4-3.1,2-4.6c0.5-1.1,0.9-2.2,1.4-3.3c0.3,0.7,0.7,1.4,1,2C837.3,358.6,837.9,361.4,838.5,364.1z"/>
		<path class="st11" d="M830.6,337.2c-1.2,2.6-2.3,5.3-3.5,7.9c1.4,2.3,2.8,4.5,4.3,6.8c1-2.3,2.1-4.6,3.1-6.9
			C833.2,342.4,831.9,339.8,830.6,337.2z"/>
		<path class="st11" d="M832,367.6c-1.2,2.6-2.3,5.3-3.5,7.9c1.4,2.3,2.8,4.5,4.3,6.8c1-2.3,2.1-4.6,3.1-6.9
			C834.6,372.8,833.3,370.1,832,367.6z"/>
		<path class="st11" d="M825.7,323.4c-1.2,2.6-2.3,5.3-3.5,7.9c1.4,2.3,2.8,4.5,4.3,6.8c1-2.3,2.1-4.6,3.1-6.9
			C828.3,328.6,827.1,326,825.7,323.4z"/>
		<path class="st11" d="M832.6,334.7c-0.8-1.3-1.6-2.6-2.4-3.7c0.4-0.9,0.8-1.8,1.2-2.7C831.7,330.4,832.2,332.6,832.6,334.7z"/>
		<path class="st11" d="M827.1,353.8c-1.2,2.6-2.3,5.3-3.5,7.9c1.4,2.3,2.8,4.5,4.3,6.8c1-2.3,2.1-4.6,3.1-6.9
			C829.7,359,828.3,356.4,827.1,353.8z"/>
		<path class="st2" d="M799,296.7l28.3,6.5c0,0,0.3,108-14.1,111.4c-14.5,3.4-38.3-13-38.3-13L799,296.7z"/>
	</g>
	<path class="st12" d="M797.9,391.8c0,0,16.7,9.6,19.5-11.6"/>
	<path class="st13" d="M818.1,465.5H758c-7.8,0-14.1-6.3-14.1-14.1v-20.1c0-7.8,6.3-14.1,14.1-14.1h60.1c7.8,0,14.1,6.3,14.1,14.1
		v20C832.3,459.1,825.9,465.5,818.1,465.5z"/>
	<path class="st14" d="M775,464.9v-45.9c-0.3-5,3.7-9.3,8.7-9.3l8.8-0.1c0.7,0,3.6,0.1,6,2.2c3.1,2.8,2.9,6.7,2.8,7.2v45.8"/>
	<path class="st15" d="M792.4,412.1h-8.7c-1.3,0-2.4-1.1-2.4-2.4l0,0c0-1.3,1.1-2.4,2.4-2.4h8.7c1.3,0,2.4,1.1,2.4,2.4l0,0
		C794.8,411,793.7,412.1,792.4,412.1z"/>
	<path class="st5" d="M776.5,391.5l1.6,6.7v6.4c0.3,1.5,0.8,3.2,1.3,4.9c0.4,1.5,0.9,2.9,1.4,4.3c0.9,1,1.4,1.2,2,1.1
		c0.6,0,0.9-0.4,1.6-0.5c0.7,0,0.7,0.3,1.4,0.3c0.9,0.1,1.1-0.3,2.2-0.3c0.9,0,1.2,0.3,1.8,0.1c0.8-0.3,1.1-0.9,1.3-1.3
		c1.2-2.2-1.2-6-1.3-6.1c0,0,2.9,5.6,3.7,3.6c0,0-1.6-10.4-4.7-12.7l-2.3-8.4L776.5,391.5z"/>
	<path class="st2" d="M795.1,391.2l-24.3,7.4c-3-5.9-7.1-15.7-8.1-28.4c-1.5-20.5,4.8-52.9,28.7-63.5c4.3-2,13.6-5.1,27.4-2.3
		c0,0,17.1,12.8-9,36.4C783.6,364.5,789.1,382.7,795.1,391.2z"/>
	<path class="st16" d="M826,284.7c-0.3,0.2-1,0.9-2.1,0.7c-1.3-0.2-2-1.3-2.1-1.5"/>
	<path class="st12" d="M799.9,305.6c6.2,1.5,12.3,3.1,18.6,4.7"/>
	<line class="st14" x1="743.9" y1="453.4" x2="832.3" y2="453.4"/>
</g>
<g>
	<path class="st17" d="M646.6,102v540.5c0,2.8-1.1,5.2-2.9,6.9c-1.3,1.2-3.1,1.9-5,1.8l-4.3-0.1c-4.4-0.1-8.3-4.5-8.3-9.3v-539
		L646.6,102z"/>
	<g>
		<g>
			<g class="st18">
				<path class="st19" d="M517.4,133c-0.4-0.3-0.6-0.9-0.4-1.3c0.8-1.4,1.5-3,2.2-4.5c0.2-0.5,0.8-0.7,1.3-0.5
					c0.5,0.2,0.7,0.8,0.5,1.3c-0.6,1.6-1.4,3.2-2.2,4.7c0,0,0,0.1-0.1,0.1C518.4,133.1,517.9,133.3,517.4,133z M521.5,123.7
					c-0.5-0.2-0.8-0.7-0.7-1.3c0.4-1.6,0.8-3.2,1-4.8c0.1-0.5,0.5-0.9,1.2-0.8c0.5,0.1,0.9,0.5,0.8,1.2c-0.3,1.7-0.6,3.4-1.1,5.1
					c0,0.1-0.1,0.2-0.2,0.4C522.3,123.6,521.8,123.8,521.5,123.7z"/>
				<path class="st19" d="M524,113.2c0.1-0.2,0.2-0.4,0.2-0.5c0-0.9,0-1.7,0-2.5c0-0.5-0.4-1-1.1-1c-0.5,0-1,0.4-1,1.1
					c0,0.8,0,1.6,0,2.4c0,0.5,0.4,1,1,1C523.5,113.6,523.8,113.4,524,113.2z"/>
			</g>
		</g>
	</g>
	<g>
		<path class="st20" d="M498.1,116.2l1.6,0.8l29.8-18.3l146.3,21.6l20.4,2.3l-1.2,3.9c-0.2,0.4-23.5,17.4-23.5,17.4l18.1,23.7
			l-0.9,2.4c-0.1,0.3-0.4,0.4-0.7,0.4l-18.8-3l-146.3-22.7c-0.4-0.1-0.8-0.3-1.1-0.5l-23.6-24.6c-0.3-0.4-0.4-0.8-0.4-1.3
			L498.1,116.2z"/>
		<path class="st21" d="M531.2,97l165.1,25.5c0.2,0,0.2,0.3,0.1,0.4l-23.3,17c-0.4,0.3-0.4,0.7-0.2,1l16.7,26.3
			c0.1,0.1,0,0.3-0.2,0.3l-165.3-25.6c-0.4-0.1-0.9-0.3-1.3-0.6l-24.6-24.9c-0.1-0.1-0.1-0.3,0.1-0.4l31.4-18.6
			C530.2,97.1,530.7,97,531.2,97z"/>
	</g>
	<g>
		<path class="st20" d="M736.1,186.9l-1.4,0.9L704.5,172L564.2,203l-18.9,3.5c-0.4,0.1-0.6,0.4-0.4,0.9l1.1,3
			c0.2,0.4,24,15.2,24,15.2l-16,24.4l1,2.3c0.1,0.3,0.4,0.4,0.7,0.4l18-4.1l140.3-32c0.4-0.1,0.7-0.3,1-0.6l21.2-25.5
			c0.3-0.4,0.4-0.8,0.4-1.3L736.1,186.9z"/>
		<path class="st22" d="M702.7,170.5l-157.8,35.9c-0.4,0.1-0.4,0.5-0.1,0.7l23.3,14.7c0.4,0.2,0.4,0.6,0.3,1L554,249.6
			c-0.1,0.1,0.1,0.3,0.2,0.3l158.4-36.1c0.4-0.1,0.9-0.4,1.2-0.7l22.1-25.9c0.1-0.1,0.1-0.3-0.1-0.4l-31.6-16
			C703.8,170.5,703.2,170.4,702.7,170.5z"/>
		<g>
			<path class="st23" d="M616.6,208.9l83.7-19.6c1.4-0.4,2.3-1.8,2-3.2l0,0c-0.4-1.4-1.8-2.3-3.2-2l-83.7,19.6
				c-1.4,0.4-2.3,1.8-2,3.2l0,0C613.7,208.3,615.1,209.2,616.6,208.9z"/>
			<path class="st23" d="M618.8,222.8l87-20.4c0.4-0.1,0.5-0.4,0.4-0.7l-0.9-3.8c-0.1-0.4-0.4-0.5-0.7-0.4l-87,20.4
				c-0.4,0.1-0.5,0.4-0.4,0.7l0.9,3.8C618.2,222.8,618.5,222.9,618.8,222.8z"/>
		</g>
	</g>
	<g>
		<circle class="st20" cx="637" cy="195.6" r="6.3"/>
		
			<ellipse transform="matrix(0.8576 -0.5144 0.5144 0.8576 -9.5638 355.064)" class="st23" cx="636.3" cy="194.8" rx="3.9" ry="3.9"/>
	</g>
	<g>
		<path class="st23" d="M615.6,127l-76.4-12.1c-1.3-0.2-2.3-1.5-2.2-3l0,0c0.2-1.3,1.5-2.3,3-2.2l76.4,12.1c1.3,0.2,2.3,1.5,2.2,3
			l0,0C618.3,126.2,616.9,127.1,615.6,127z"/>
		<path class="st23" d="M612.6,140.1l-76.1-12c-1.3-0.2-2.2-1.4-2-2.8l0,0c0.2-1.3,1.4-2.2,2.8-2l76.1,12c1.3,0.2,2.2,1.4,2,2.8l0,0
			C615.2,139.4,614,140.4,612.6,140.1z"/>
	</g>
	<g>
		<circle class="st20" cx="637" cy="136.3" r="6.3"/>
		<ellipse transform="matrix(0.8576 -0.5144 0.5144 0.8576 20.953 346.61)" class="st23" cx="636.3" cy="135.5" rx="3.9" ry="3.9"/>
	</g>
	<polygon class="st20" points="626.1,339.5 646.5,297.2 646.6,523.1 626.6,519.6 	"/>
</g>
<g>
	<line class="st24" x1="730.7" y1="366.1" x2="703.5" y2="376.3"/>
	<polygon class="st1" points="754.4,577 754.9,589.5 779.5,589.4 780.3,577.8 	"/>
	<path class="st13" d="M810.1,615.8c-18.7,0.4-37.4,0.6-56,1c0.2-9.1,0.4-18.2,0.5-27.3c8.5-0.1,16.9-0.1,25.4-0.1l0.9,3.4l22,10
		c4.5,2.1,7.9,6,9,10.9C812.1,614.7,811.3,615.8,810.1,615.8z"/>
	<polygon class="st1" points="689.2,575.6 688.8,588.1 713.3,589.7 715,578.1 	"/>
	<path class="st13" d="M741.9,618.1c-18.6-1.1-37.2-2.2-55.8-3.2c0.9-9,1.7-18.1,2.6-27.2c8.4,0.6,16.8,1.2,25.2,1.8l0.6,3.5
		l21.1,11.6c4.3,2.3,7.4,6.7,8.1,11.6C743.9,617.3,743,618.3,741.9,618.1z"/>
	<path class="st10" d="M779.8,384.8c2.9,65.8,5.8,131.6,8.7,197.4c-14,0.1-28.1,0.2-42.1,0.3c-4.7-65.9-9.5-131.8-14.2-197.7"/>
	<path class="st15" d="M713,384.8h66.2c-15.7,65.9-31.4,131.7-47.2,197.6c-17.1,0-34.2,0-51.3,0C691.5,516.5,702.2,450.6,713,384.8z
		"/>
	<path class="st25" d="M667.2,474.8v-62.7h39.4c0,20.8,0,41.6,0,62.5"/>
	<path class="st15" d="M692.3,415h-10.8c-1.6,0-3-1.4-3-3l0,0c0-1.6,1.4-3,3-3h10.8c1.6,0,3,1.4,3,3l0,0
		C695.3,413.7,693.9,415,692.3,415z"/>
	<g id="COU_1_">
		<path class="st1" d="M730.9,254.8l-5.3,18.6c0,0,8.8-2.3,20.5,4l2.7-14.2C748.8,263.2,737.1,248.2,730.9,254.8z"/>
	</g>
	<path class="st26" d="M706.2,339.3l-8.1,45.6h85c0,0-13.4-103.4-34.1-107.4L706.2,339.3z"/>
	<path class="st27" d="M738.3,293c-1.3,4.9-5.9,15.2-13.2,29.3C729.5,312.6,733.9,302.8,738.3,293z"/>
	<path class="st5" d="M762.9,247.4c-0.1,1.9-0.3,3.6-0.6,5.2c-0.8,3.8-2.3,6.7-3.5,8.4c-0.9,1.4-2.3,2.3-3.8,2.8
		c-17.1,4.9-21.8-9.2-21.8-9.2c-0.3,0.5-1.4,2.3-3.2,2.7c-2.6,0.5-4.8-2.6-5.6-4.4c-0.3-0.7-1.2-2.7-0.3-5.1
		c0.7-1.9,2.3-3.3,4.3-3.8c2.5-0.6,5.2,0.5,6.9,2.6l2.4-10c0.8-3.5,4.2-5.8,7.8-5.1l15.1,2.5c1.4,3.6,2.1,6.9,2.3,9.9
		c0,0.2,0,0.5,0.1,0.6C762.9,245.6,762.9,246.5,762.9,247.4z"/>
	<path class="st5" d="M684.8,382l-4.1,19.9c-0.8,3.9-0.9,7.9-0.3,11.7c0.6,3.7,1.8,7.3,4.1,7.1c0,0,1,0.4,1.4-0.8
		c0,0,1.9,3.4,3.6,0.6l3.2-13.1c0,0,0.1,9.3,2.6,6.8c2.5-2.5,3-12.5,3-12.5l1.8-14.8L684.8,382z"/>
	<ellipse class="st26" cx="732.5" cy="299.1" rx="29.5" ry="26.9"/>
	<path class="st26" d="M740.6,275.2c-0.1-1.3-1.1-2.3-2.3-2.5c-2.1-0.3-4.7-0.5-7.6-0.5c-5.9,0-11.2,1-14.2,1.9
		c-7.5,2.3-12.3,8.9-19,17.8c-19.5,25.7-23.2,59.2-23.2,59.2c-2.2,20,0.9,37,4.2,48.8l29.6-2.1l2.8-33.5c0.8-9.8,4.7-19.2,11.1-26.7
		c6.1-7.2,14.3-15.1,21.8-17.2C742.9,305.3,741.8,290.2,740.6,275.2z"/>
	<path class="st16" d="M759,254.6c-0.3,0.3-1.3,1.1-2.7,0.9c-1.5-0.3-2.4-1.6-2.6-1.9"/>
	<path class="st2" d="M742.4,233c0,0,20.4,6.3,23.2,2.8c0,0-10.9-26.1-34.5-12.6c-2.9,1.6-9.7,5.4-12.2,13.7
		c-3,10.1,2.9,18.4,3.5,19.1c2.2,3,4.8,4.8,6.4,5.8c0.5-1.5,0.9-3.1,1.3-4.6c-0.4,0.1-0.8,0.1-1.4,0c-1.9-0.4-3-2.1-3.6-3
		c-0.6-1-1.4-2.3-1.4-4.1c0.1-1.6,1-2.8,1.4-3.2c5.4-5.9,10.8,1.4,10.8,1.4S745.7,248.8,742.4,233z"/>
	<circle class="st1" cx="744.4" cy="250.2" r="3"/>
	<path class="st1" d="M762.9,247.4c-0.1,1.9-0.3,3.6-0.6,5.2c-0.7-0.5-1.3-1.4-1.3-2.4C761,249,761.8,247.9,762.9,247.4z"/>
	<circle class="st6" cx="753.7" cy="244.7" r="0.7"/>
	<path class="st6" d="M762.9,244.6c-0.1,0.3-0.4,0.5-0.6,0.5c-0.4,0-0.7-0.4-0.7-0.7s0.3-0.7,0.7-0.7c0.3,0,0.5,0.1,0.5,0.4
		L762.9,244.6z"/>
	<circle class="st28" cx="753.7" cy="244.7" r="4.3"/>
	<ellipse class="st28" cx="763.3" cy="244.5" rx="3.2" ry="3.6"/>
	<path class="st29" d="M735,391.6c0,0-3.6,19.9-18,20.5"/>
	<path class="st2" d="M736.1,248.3l3.2-0.8v6.7c0,1.4,0.6,2.6,1.6,3.5c2.7,2.2,8.9,5.6,18.6,2.3c0,0,0.1,10.5-5.8,9.6
		c-5.9-1-21-4.5-20.5-14.8L736.1,248.3z"/>
	<path class="st30" d="M686.1,614.9c0.2-1.8,0.4-3.6,0.5-5.3c18.9,1.4,37.7,2.8,56.6,4.2c0.2,0.6,0.4,1.2,0.5,1.6
		c0.2,0.7,0.2,0.9,0.2,1.2c0,0.2-0.1,0.8-0.6,1.3c0,0-0.4,0.4-1.1,0.4C723.5,617,704.8,616,686.1,614.9z"/>
	<path class="st28" d="M758,244.7c0,0,1.6-1.3,2.1,0"/>
	<path class="st28" d="M749.4,244.7c0,0-3.2,1.7-7.2-0.7"/>
	<path class="st30" d="M754,616.7l0.4-4.3l56.8-0.8l0.6,2c0,0,0.4,2.3-1.7,2.2C808,615.6,754,616.7,754,616.7z"/>
	<polyline class="st31" points="680,391.6 701.7,390 701.7,381.1 	"/>
	<path class="st32" d="M753,237.4c0,0-3.3-1.7-5.6,1.1"/>
	<path class="st32" d="M762.5,237.2c-0.9-0.3-2-0.3-3.2,0.5"/>
	<path class="st33" d="M710.6,618.5h-50.9v-135c0-4.8,3.9-8.7,8.7-8.7h43.5c4.8,0,8.7,3.9,8.7,8.7v125.1
		C720.6,614.1,716.1,618.5,710.6,618.5z"/>
	<path class="st3" d="M715.1,618.5h-60.8V483.4c0-4.8,3.9-8.7,8.7-8.7h43.5c4.8,0,8.7,3.9,8.7,8.7L715.1,618.5L715.1,618.5z"/>
	<circle class="st10" cx="656.7" cy="619.2" r="7.3"/>
	<circle class="st10" cx="713.7" cy="619.2" r="7.3"/>
	<path class="st34" d="M686,563.3c0.6,0.1,5.6,0.4,9.1-3.5c2.7-3.1,2.8-6.6,2.8-7.5l-0.1-10.9c-0.1-6.3-5.3-11.3-11.6-10.9l0,0"/>
	<path class="st34" d="M684.6,475.5c0,47.6,0,95.2,0,142.8"/>
</g>
<g>
	<path class="st35" d="M624.6,652.1c0,0-26.3-17.1-29.4-42.9c-0.4-3.3-0.2-6.7,0.4-10c0.6-3.6,0.3-10.8-9.4-18
		c-13.5-9.9-14.2-25.1,1.7-34.6c15.9-9.6,29.7,5.1,32.3,10.7s14.7,8.4,20.6,7.2c5.9-1.1,17.6,7.9,16.9,19c-0.7,11,0.4,19.3,6.9,21.2
		c6.5,2,11.9,8.3,11,13.7L624.6,652.1z"/>
	<path class="st36" d="M597.2,561.6c0,0,33.1,28.1,44.2,64"/>
</g>
<g>
	<path class="st0" d="M-668.1,289.2h-70.6c-9.2,0-16.6-7.4-16.6-16.6V249c0-9.2,7.4-16.6,16.6-16.6h70.6c9.2,0,16.6,7.4,16.6,16.6
		v23.5C-651.5,281.7-658.9,289.2-668.1,289.2z"/>
	<polygon class="st1" points="-659.6,372.4 -659.3,384.3 -635.9,384.2 -635.1,373.2 	"/>
	<path class="st2" d="M-624.2,218.6l-27.3-126.1c-6.3,0.1-5,0.1-11.3,0.1l-0.8,4.2c3.4,1.3,6.8,2.5,10.3,3.8
		c2.8,20.4,5.5,40.9,8.3,61.3c0.5,3.9,1.1,7.8,1.6,11.8c0.7,5.1,1.4,10.1,2.1,15.2c0.1,1,0.1,1.9,0.2,2.9c0.8,11,1.5,22,2.3,33
		c0.7,0.6,3.6,2.8,7.8,2.7h0.1C-626.5,227.4-623.2,223-624.2,218.6z M-640.1,170.1c-0.7-3.2-1.4-6.5-2-9.7"/>
	<path class="st2" d="M-607,409.1c-17.7,0.3-35.3,0.6-53,0.9c0.2-10.8,0.3-21.7,0.5-32.5c8-0.1,16-0.1,24-0.2
		c0.2,3.3,0.5,6.6,0.7,9.9l20.8,9.4c4.3,1.9,7.4,5.8,8.5,10.3C-605.1,408.1-605.9,409.1-607,409.1z"/>
	<polygon class="st1" points="-721.3,371.1 -721.8,382.9 -698.5,384.5 -697,373.5 	"/>
	<path class="st2" d="M-671.5,411.4c-17.6-1-35.1-2.1-52.7-3.1c1.3-14.9,2.6-29.8,3.8-44.7c8.3,0.1,16.5,0.2,24.8,0.2
		c-0.6,7.9-1.2,15.8-1.8,23.7l20,11c4.1,2.3,7,6.3,7.7,10.9C-669.6,410.5-670.5,411.5-671.5,411.4z"/>
	<path class="st3" d="M-635.6,190.7c2.7,62.2,5.5,124.4,8.2,186.6c-13.3,0.1-26.5,0.2-39.8,0.3c-4.5-62.3-8.9-124.6-13.4-186.9"/>
	<path class="st4" d="M-698.8,190.7h62.6c-14.9,62.3-29.7,124.6-44.6,186.8c-16.2,0-32.3,0-48.5,0
		C-719.2,315.2-709,252.9-698.8,190.7z"/>
	<g id="COU_8_">
		<path class="st1" d="M-678,75.5l-5,17.6c2.8,0.8,5.8,1.6,9.2,2.3c3.7,0.7,7.1,1.2,10.2,1.4l2.6-13.4
			C-661.1,83.4-672.2,69.2-678,75.5z"/>
	</g>
	<path class="st5" d="M-647.8,68.5c-0.1,1.8-0.3,3.4-0.6,4.9c-0.8,3.6-2.2,6.3-3.3,8c-0.8,1.3-2.1,2.2-3.6,2.7
		c-16.2,4.6-20.6-8.7-20.6-8.7c-0.4,0.3-1.6,1.2-3.4,1.2c-2,0-4-1.1-5-2.9c-1.2-2.2-0.4-4.4-0.3-4.8c0.7-1.8,2.3-3.2,4.1-3.6
		c2.4-0.6,5,0.4,6.5,2.5l2.3-9.4c-1.9-2.4-2.4-5.1-1.5-6.4c1.2-1.5,5.2-1.6,8.8,1.6c4.7,0.7,9.3,1.5,14,2.2c0.6,1.4,1.3,3.1,1.8,5.1
		c0,0,0.5,2.1,0.7,4.5c0,0.2,0,0.4,0,0.6C-647.7,66.8-647.7,67.6-647.8,68.5z"/>
	<path class="st1" d="M-665.2,68.3c1.5,0,2.8,1.3,2.8,2.8s-1.3,2.8-2.8,2.8s-2.8-1.3-2.8-2.8S-666.7,68.3-665.2,68.3z"/>
	<path class="st1" d="M-647.8,68.5c-0.1,1.8-0.3,3.4-0.6,4.9c-0.7-0.5-1.2-1.3-1.2-2.3C-649.5,69.9-648.8,68.9-647.8,68.5z"/>
	<circle class="st6" cx="-656.4" cy="66" r="0.7"/>
	<path class="st6" d="M-647.8,65.9c-0.1,0.2-0.3,0.4-0.6,0.4c-0.4,0-0.6-0.3-0.6-0.7s0.3-0.7,0.6-0.7c0.2,0,0.4,0.1,0.6,0.3V65.9z"
		/>
	<path class="st7" d="M-673.6,69.1c1.2-0.2,2.3-0.4,3.5-0.7v6.3c0,1.3,0.6,2.5,1.6,3.3c2.6,2.1,8.4,5.3,17.6,2.1c0,0,0.1,9.9-5.5,9
		s-19.9-4.3-19.4-14C-675.1,73.3-674.3,71.2-673.6,69.1z"/>
	<path class="st8" d="M-657.1,59c0,0-3.2-1.7-5.3,1"/>
	<path class="st8" d="M-648.1,58.8c-0.8-0.2-1.9-0.2-3,0.4"/>
	<path class="st9" d="M-660.2,70.5c0.3,0.3,0.8,0.7,1.5,1c1.1,0.4,2.1,0.3,2.5,0.2"/>
	<path class="st7" d="M-657.4,75.4c1.7-1.7,6-5.1,9.6,0.1c0.2,0.3,0,0.8-0.3,0.8l-9-0.1C-657.6,76.3-657.7,75.7-657.4,75.4z"/>
	<path class="st7" d="M-670.1,69.5c-4,0-8,0-12.1,0c0,0-6.3-24.7,16.7-24.4c22.9,0.4,17.4,17,17.4,17l-2.2-6.5l-18.1,0.2l-4.7-3.9
		l3,5.4C-670,61.3-670.1,65.4-670.1,69.5z"/>
	<ellipse class="st5" cx="-679.1" cy="70.9" rx="5.9" ry="5.6"/>
	<g>
		<path class="st10" d="M-635.2,191.9c-2,0-4,0-6,0c-5.7,0-11.3-0.1-17-0.1c1.6-30.4,3.2-60.8,4.8-91.2c0-0.7,0.1-1.4,0.1-2.1
			c1.5,9.6,3.1,19.5,4.9,29.5c0.5,2.5,0.9,5.1,1.4,7.6c0.7,4,1.5,8,2.3,12.1c0.8,4.3,1.7,8.6,2.6,12.8c0.7,3.3,1.4,6.5,2,9.7
			C-638.5,177.5-636.8,184.8-635.2,191.9z"/>
		<path class="st11" d="M-640.1,170.1c-0.8,1.7-1.6,3.5-2.4,5.2c-0.3-0.5-0.7-1.1-1-1.6c-1.3-2.1-2.6-4.2-4-6.3
			c0.8-1.8,1.6-3.6,2.4-5.4c0.6-1.3,1.1-2.6,1.7-3.9c0.4,0.8,0.8,1.6,1.2,2.4C-641.5,163.7-640.8,166.9-640.1,170.1z"/>
		<path class="st11" d="M-649.3,138.5c-1.4,3.1-2.7,6.2-4.1,9.3c1.7,2.7,3.3,5.3,5,8c1.2-2.7,2.5-5.4,3.7-8.1
			C-646.3,144.6-647.8,141.6-649.3,138.5z"/>
		<path class="st11" d="M-647.7,174.2c-1.4,3.1-2.7,6.2-4.1,9.3c1.7,2.7,3.3,5.3,5,8c1.2-2.7,2.5-5.4,3.7-8.1
			C-644.6,180.3-646.2,177.2-647.7,174.2z"/>
		<path class="st11" d="M-655.1,122.3c-1.4,3.1-2.7,6.2-4.1,9.3c1.7,2.7,3.3,5.3,5,8c1.2-2.7,2.5-5.4,3.7-8.1
			C-652,128.4-653.5,125.3-655.1,122.3z"/>
		<path class="st11" d="M-647,135.6c-0.9-1.5-1.9-3-2.8-4.4c0.5-1.1,0.9-2.1,1.4-3.2C-648,130.5-647.5,133.1-647,135.6z"/>
		<path class="st11" d="M-653.5,158c-1.4,3.1-2.7,6.2-4.1,9.3c1.7,2.7,3.3,5.3,5,8c1.2-2.7,2.5-5.4,3.7-8.1
			C-650.4,164.1-652,161.1-653.5,158z"/>
		<path class="st2" d="M-686.5,90.9l33.2,7.6c0,0,0.4,126.9-16.6,130.9s-45-15.3-45-15.3L-686.5,90.9z"/>
	</g>
	<path class="st12" d="M-687.8,202.6c0,0,19.6,11.3,22.9-13.6"/>
	<path class="st13" d="M-664,289.2h-70.6c-9.2,0-16.6-7.4-16.6-16.6V249c0-9.2,7.4-16.6,16.6-16.6h70.6c9.2,0,16.6,7.4,16.6,16.6
		v23.5C-647.4,281.7-654.9,289.2-664,289.2z"/>
	<path class="st14" d="M-714.7,288.6v-53.9c-0.3-5.9,4.3-10.9,10.2-10.9l10.3-0.1c0.8,0,4.2,0.1,7,2.6c3.6,3.3,3.4,7.9,3.3,8.5v53.8
		"/>
	<path class="st15" d="M-694.2,226.5h-10.2c-1.5,0-2.8-1.3-2.8-2.8l0,0c0-1.5,1.3-2.8,2.8-2.8h10.2c1.5,0,2.8,1.3,2.8,2.8l0,0
		C-691.4,225.2-692.7,226.5-694.2,226.5z"/>
	<path class="st5" d="M-712.9,202.3l1.9,7.9v7.5c0.4,1.8,0.9,3.8,1.5,5.8c0.5,1.8,1.1,3.4,1.6,5c1,1.2,1.7,1.4,2.3,1.3
		c0.7,0,1-0.5,1.9-0.6c0.8,0,0.8,0.3,1.7,0.4c1.1,0.1,1.3-0.4,2.6-0.4c1.1,0,1.4,0.3,2.1,0.1c0.9-0.3,1.3-1.1,1.5-1.5
		c1.4-2.6-1.4-7-1.5-7.2c0,0,3.4,6.6,4.4,4.2c0,0-1.9-12.2-5.5-14.9l-2.7-9.9L-712.9,202.3z"/>
	<path class="st2" d="M-691,202l-28.6,8.7c-3.5-6.9-8.4-18.5-9.5-33.4c-1.8-24.1,5.6-62.1,33.7-74.6c5.1-2.3,16-6,32.2-2.7
		c0,0,20.1,15-10.6,42.8C-704.6,170.6-698.1,192-691,202z"/>
	<path class="st16" d="M-654.7,76.8c-0.3,0.2-1.2,1-2.5,0.8c-1.5-0.2-2.3-1.5-2.5-1.8"/>
	<path class="st12" d="M-685.4,101.4c7.3,1.8,14.5,3.7,21.8,5.5"/>
	<line class="st14" x1="-751.2" y1="275" x2="-647.4" y2="275"/>
</g>
<path class="st37" d="M744.2-0.1c0,0,80.5,31.5,80.5,115.5c0,1.1,0,2.4,0,3.5c0.7,53.7,25.3,104.3,66.7,138.7
	c33.2,27.6,81.7,82.3,71.1,161.5c-10.3,76.8,24.4,128.5,49.9,155.2c9.4,9.9,20.2,18.4,31.8,25.6c17.5,10.8,61.7,43.4,68.2,100.1
	H1273V-0.1H744.2z"/>
<path class="st35" d="M765.3-0.1c0,0,80.5,31.5,80.5,115.5c0,1.1,0,2.4,0,3.5c0.7,53.7,25.3,104.3,66.7,138.7
	c33.2,27.6,81.7,82.3,71.1,161.5c-10.3,76.8,24.4,128.5,49.9,155.2c9.4,9.9,20.2,18.4,31.8,25.6c17.5,10.8,61.7,43.4,68.2,100.1
	H1294V-0.1H765.3z"/>
<path class="st2" d="M791.6-0.1c0,0,80.5,31.5,80.5,115.5c0,1.1,0,2.4,0,3.5c0.7,53.7,25.3,104.3,66.7,138.7
	c33.2,27.6,81.7,82.3,71.1,161.5c-10.3,76.8,24.4,128.5,49.9,155.2c9.4,9.9,20.2,18.4,31.8,25.6c17.5,10.8,61.7,43.4,68.2,100.1
	h160.5V-0.1H791.6z"/>
<g>
	<path class="st38" d="M1159.6,507.9c-0.5,0-0.9-0.1-1.2-0.4l-2-1.8c-0.6-0.5-0.5-1.3,0.2-1.6c0.7-0.4,1.7-0.4,2.2,0.1l2,1.8
		c0.6,0.5,0.5,1.3-0.2,1.6C1160.4,507.8,1160,507.9,1159.6,507.9z M1155,503.8c-0.5,0-0.9-0.1-1.2-0.4c-0.9-0.8-1.8-1.6-2.7-2.4
		c-0.6-0.5-0.5-1.3,0.2-1.6c0.7-0.4,1.7-0.4,2.2,0.1c0.9,0.8,1.8,1.6,2.7,2.4c0.6,0.5,0.5,1.3-0.2,1.6
		C1155.7,503.7,1155.3,503.8,1155,503.8z M1149.7,498.9c-0.5,0-0.9-0.1-1.2-0.4c-0.9-0.8-1.8-1.6-2.7-2.4c-0.5-0.5-0.4-1.3,0.2-1.6
		c0.7-0.4,1.7-0.3,2.2,0.1c0.9,0.8,1.8,1.6,2.6,2.4c0.5,0.5,0.4,1.3-0.2,1.6C1150.4,498.8,1150,498.9,1149.7,498.9z M1144.4,494.1
		c-0.5,0-0.9-0.1-1.2-0.4c-0.9-0.8-1.7-1.6-2.6-2.4c-0.5-0.5-0.4-1.3,0.3-1.6c0.7-0.4,1.7-0.3,2.2,0.2c0.9,0.8,1.7,1.6,2.6,2.4
		c0.5,0.5,0.4,1.3-0.3,1.6C1145.1,493.9,1144.7,494.1,1144.4,494.1z M1139.2,489.2c-0.5,0-0.9-0.1-1.3-0.4c-0.9-0.8-1.7-1.6-2.6-2.5
		c-0.5-0.5-0.4-1.3,0.3-1.6c0.7-0.4,1.7-0.3,2.2,0.2c0.9,0.8,1.7,1.6,2.6,2.4c0.5,0.5,0.4,1.3-0.3,1.6
		C1139.8,489.1,1139.5,489.2,1139.2,489.2z M1134.1,484.2c-0.5,0-1-0.1-1.3-0.4c-0.8-0.8-1.7-1.7-2.5-2.5c-0.5-0.5-0.4-1.3,0.3-1.6
		c0.7-0.4,1.7-0.3,2.2,0.2c0.8,0.8,1.7,1.7,2.5,2.5c0.5,0.5,0.4,1.3-0.3,1.6C1134.7,484.1,1134.4,484.2,1134.1,484.2z M1129,479.2
		c-0.5,0-1-0.1-1.3-0.5c-0.8-0.8-1.7-1.7-2.5-2.5c-0.5-0.5-0.3-1.3,0.4-1.6c0.7-0.4,1.7-0.2,2.2,0.3c0.8,0.8,1.6,1.7,2.5,2.5
		c0.5,0.5,0.4,1.3-0.3,1.6C1129.7,479.1,1129.4,479.2,1129,479.2z M1124.1,474.2c-0.5,0-1-0.1-1.3-0.5c-0.8-0.9-1.6-1.7-2.4-2.6
		c-0.5-0.5-0.3-1.3,0.4-1.6c0.7-0.4,1.7-0.2,2.2,0.3c0.8,0.9,1.6,1.7,2.4,2.6c0.5,0.5,0.3,1.3-0.4,1.6
		C1124.8,474.1,1124.4,474.2,1124.1,474.2z M1119.3,469c-0.5,0-1-0.1-1.3-0.5c-0.8-0.9-1.6-1.7-2.3-2.6c-0.5-0.5-0.3-1.3,0.4-1.6
		c0.7-0.4,1.7-0.2,2.2,0.3c0.8,0.9,1.6,1.7,2.3,2.6c0.5,0.5,0.3,1.3-0.4,1.6C1120,468.9,1119.6,469,1119.3,469z M1114.7,463.8
		c-0.5,0-1-0.2-1.3-0.5c-0.8-0.9-1.5-1.8-2.3-2.7c-0.5-0.5-0.2-1.3,0.5-1.6s1.7-0.1,2.2,0.4c0.7,0.9,1.5,1.8,2.3,2.6
		c0.5,0.5,0.3,1.3-0.5,1.6C1115.3,463.8,1115,463.8,1114.7,463.8z M1110.2,458.5c-0.5,0-1.1-0.2-1.3-0.6c-0.7-0.9-1.5-1.8-2.2-2.7
		c-0.4-0.5-0.2-1.3,0.5-1.6c0.8-0.3,1.7-0.1,2.2,0.4c0.7,0.9,1.4,1.8,2.2,2.7c0.5,0.5,0.2,1.3-0.5,1.6
		C1110.8,458.4,1110.5,458.5,1110.2,458.5z M1105.9,453.2c-0.5,0-1.1-0.2-1.4-0.6c-0.7-0.9-1.4-1.8-2.1-2.7
		c-0.4-0.6-0.2-1.3,0.6-1.6c0.8-0.3,1.7-0.1,2.2,0.4c0.7,0.9,1.4,1.8,2.1,2.7c0.4,0.6,0.2,1.3-0.6,1.6
		C1106.4,453.1,1106.1,453.2,1105.9,453.2z M1101.7,447.7c-0.6,0-1.1-0.2-1.4-0.6c-0.7-0.9-1.3-1.8-2-2.7c-0.4-0.6-0.1-1.3,0.7-1.6
		c0.8-0.3,1.7-0.1,2.1,0.5c0.7,0.9,1.3,1.8,2,2.7c0.4,0.6,0.1,1.3-0.6,1.6C1102.2,447.7,1102,447.7,1101.7,447.7z M1097.8,442.2
		c-0.6,0-1.1-0.2-1.4-0.7c-0.6-1-1.3-1.8-1.9-2.8c-0.4-0.6-0.1-1.3,0.7-1.6c0.8-0.3,1.7-0.1,2.1,0.5c0.6,1,1.2,1.8,1.9,2.8
		c0.4,0.6,0.1,1.3-0.7,1.6C1098.3,442.2,1098,442.2,1097.8,442.2z M1094.1,436.7c-0.6,0-1.2-0.2-1.4-0.7c-0.6-1-1.2-1.9-1.8-2.9
		c-0.4-0.6,0-1.3,0.8-1.6c0.8-0.3,1.7,0,2.1,0.6c0.6,1,1.2,1.8,1.8,2.8c0.4,0.6,0,1.3-0.8,1.6
		C1094.5,436.6,1094.3,436.7,1094.1,436.7z M1090.6,431c-0.6,0-1.2-0.3-1.5-0.7c-0.6-1-1.1-1.9-1.7-2.9c-0.3-0.6,0.1-1.3,0.9-1.6
		c0.8-0.2,1.7,0.1,2.1,0.7c0.5,1,1.1,1.9,1.6,2.9c0.3,0.6,0,1.3-0.8,1.6C1091,430.9,1090.8,431,1090.6,431z M1087.4,425.2
		c-0.6,0-1.2-0.3-1.5-0.7c-0.5-1-1-1.9-1.5-3c-0.3-0.6,0.1-1.3,0.9-1.5s1.7,0.1,2,0.7c0.5,1,1,1.9,1.5,2.9c0.3,0.6-0.1,1.3-0.9,1.5
		C1087.7,425.1,1087.5,425.2,1087.4,425.2z M1084.4,419.3c-0.7,0-1.3-0.3-1.5-0.8c-0.5-1-0.9-2-1.4-3c-0.3-0.6,0.2-1.3,1-1.5
		s1.7,0.1,2,0.7c0.4,1,0.9,1.9,1.3,3c0.3,0.6-0.1,1.3-1,1.5C1084.8,419.3,1084.6,419.3,1084.4,419.3z M1081.8,413.4
		c-0.7,0-1.3-0.3-1.5-0.8c-0.4-1-0.8-2-1.2-3c-0.2-0.6,0.3-1.3,1.1-1.4c0.8-0.1,1.7,0.2,1.9,0.8c0.4,1,0.8,2,1.2,3
		c0.3,0.6-0.2,1.3-1.1,1.5C1082.1,413.4,1082,413.4,1081.8,413.4z M1079.5,407.4c-0.7,0-1.3-0.4-1.5-0.9c-0.4-1-0.7-2.1-1-3
		c-0.2-0.7,0.3-1.3,1.2-1.4c0.9-0.1,1.7,0.2,1.9,0.9c0.3,1,0.6,2,1,3c0.2,0.6-0.3,1.3-1.1,1.4
		C1079.8,407.4,1079.7,407.4,1079.5,407.4z M1077.6,401.4c-0.7,0-1.4-0.4-1.5-1c-0.3-1-0.6-2.1-0.8-3.1c-0.2-0.7,0.4-1.3,1.3-1.3
		s1.7,0.3,1.8,1c0.2,1,0.5,2,0.8,3c0.2,0.7-0.4,1.3-1.2,1.4C1077.8,401.4,1077.7,401.4,1077.6,401.4z M1076.1,395.2
		c-0.8,0-1.4-0.4-1.6-1c-0.2-1-0.4-2.1-0.6-3.1c-0.1-0.7,0.5-1.3,1.4-1.3c0.9-0.1,1.7,0.4,1.8,1c0.2,1,0.4,2.1,0.6,3
		c0.1,0.7-0.5,1.3-1.3,1.3C1076.3,395.2,1076.2,395.2,1076.1,395.2z M1075,389c-0.8,0-1.5-0.4-1.6-1c-0.1-1-0.3-2.1-0.4-3.1
		c-0.1-0.7,0.6-1.2,1.5-1.3s1.6,0.4,1.7,1.1c0.1,1,0.2,2.1,0.4,3.1c0.1,0.7-0.5,1.2-1.4,1.3C1075.1,389,1075.1,389,1075,389z
		 M1074.4,382.8c-0.8,0-1.5-0.5-1.6-1.1c-0.1-1-0.1-2.1-0.1-3.2c0-0.7,0.7-1.2,1.5-1.2c0.9,0,1.6,0.5,1.6,1.1c0,1,0.1,2.1,0.1,3.1
		C1076,382.2,1075.3,382.8,1074.4,382.8L1074.4,382.8z M1074.2,376.5L1074.2,376.5c-0.9,0-1.6-0.5-1.6-1.2c0-1,0-2.1,0.1-3.2
		c0-0.7,0.8-1.1,1.6-1.1c0.9,0,1.6,0.6,1.5,1.2c-0.1,1-0.1,2.1-0.1,3.1C1075.8,376,1075.1,376.5,1074.2,376.5z M1074.5,370.3
		L1074.5,370.3c-1-0.1-1.6-0.6-1.6-1.3c0.1-1,0.2-2.1,0.3-3.2c0.1-0.7,0.9-1.1,1.7-1c0.9,0.1,1.5,0.7,1.4,1.3
		c-0.1,1-0.2,2.1-0.3,3.1C1076,369.9,1075.3,370.3,1074.5,370.3z M1075.3,364.1c-0.1,0-0.1,0-0.2,0c-0.9-0.1-1.5-0.7-1.4-1.3
		c0.2-1,0.4-2.1,0.6-3.1c0.1-0.7,0.9-1,1.8-1c0.9,0.1,1.5,0.7,1.3,1.3c-0.2,1-0.4,2.1-0.6,3C1076.8,363.7,1076.1,364.1,1075.3,364.1
		z M1076.7,358c-0.1,0-0.2,0-0.3,0c-0.9-0.1-1.4-0.7-1.3-1.3c0.3-1,0.6-2.1,0.9-3.1c0.2-0.7,1-1,1.9-0.9c0.9,0.1,1.4,0.7,1.2,1.4
		c-0.3,1-0.6,2-0.8,3C1078.1,357.6,1077.4,358,1076.7,358z M1078.5,351.9c-0.1,0-0.3,0-0.4,0c-0.8-0.1-1.4-0.8-1.1-1.4
		c0.3-1,0.7-2.1,1.1-3c0.2-0.6,1.1-1,2-0.8c0.8,0.1,1.3,0.8,1.1,1.5c-0.4,1-0.7,2-1.1,3C1079.8,351.6,1079.2,351.9,1078.5,351.9z
		 M1080.8,345.9c-0.2,0-0.3,0-0.5-0.1c-0.8-0.2-1.3-0.9-1-1.5c0.4-1,0.9-2,1.3-3c0.3-0.6,1.2-1,2-0.7s1.3,0.9,1,1.5
		c-0.5,1-0.9,1.9-1.3,3C1082.1,345.6,1081.4,345.9,1080.8,345.9z M1083.6,340.1c-0.2,0-0.4,0-0.6-0.1c-0.8-0.2-1.2-0.9-0.9-1.5
		c0.5-1,1-1.9,1.6-3c0.3-0.6,1.3-0.9,2.1-0.7c0.8,0.2,1.2,1,0.9,1.6c-0.5,1-1.1,1.9-1.5,2.9C1084.8,339.8,1084.2,340.1,1083.6,340.1
		z M1086.8,334.3c-0.2,0-0.4,0-0.6-0.1c-0.8-0.3-1.2-1-0.8-1.6c0.6-1,1.2-1.9,1.8-2.9c0.4-0.6,1.3-0.8,2.1-0.5
		c0.8,0.3,1.1,1,0.7,1.6c-0.6,1-1.2,1.8-1.8,2.8C1088,334,1087.4,334.3,1086.8,334.3z M1090.5,328.7c-0.2,0-0.5-0.1-0.7-0.1
		c-0.8-0.3-1.1-1-0.7-1.6c0.6-0.9,1.3-1.8,2-2.8c0.4-0.6,1.4-0.7,2.1-0.4c0.8,0.3,1,1,0.6,1.6c-0.7,0.9-1.3,1.8-2,2.7
		C1091.6,328.5,1091,328.7,1090.5,328.7z M1094.5,323.2c-0.3,0-0.5-0.1-0.8-0.1c-0.8-0.3-1-1-0.6-1.6c0.7-0.9,1.4-1.8,2.2-2.7
		c0.5-0.5,1.4-0.7,2.2-0.4c0.7,0.4,1,1,0.5,1.6c-0.7,0.9-1.5,1.8-2.2,2.7C1095.6,323,1095.1,323.2,1094.5,323.2z M1099,317.9
		c-0.3,0-0.6-0.1-0.9-0.2c-0.7-0.4-0.9-1.1-0.5-1.6c0.8-0.9,1.6-1.8,2.4-2.6c0.5-0.5,1.5-0.7,2.2-0.3c0.7,0.4,0.9,1.1,0.4,1.6
		c-0.8,0.8-1.6,1.7-2.3,2.6C1100,317.8,1099.5,317.9,1099,317.9z M1103.8,312.8c-0.3,0-0.6-0.1-0.9-0.2c-0.7-0.4-0.9-1.1-0.4-1.6
		c0.8-0.8,1.7-1.7,2.5-2.5c0.5-0.5,1.5-0.6,2.2-0.2c0.7,0.4,0.8,1.1,0.3,1.6c-0.8,0.8-1.7,1.6-2.5,2.5
		C1104.7,312.7,1104.2,312.8,1103.8,312.8z M1108.8,307.9c-0.3,0-0.7-0.1-1-0.2c-0.7-0.4-0.8-1.1-0.3-1.6c0.9-0.8,1.8-1.6,2.7-2.4
		c0.6-0.5,1.6-0.6,2.2-0.1c0.7,0.4,0.8,1.2,0.2,1.6c-0.9,0.8-1.8,1.6-2.6,2.4C1109.8,307.7,1109.3,307.9,1108.8,307.9z
		 M1114.2,303.1c-0.4,0-0.7-0.1-1-0.3c-0.7-0.4-0.7-1.2-0.2-1.6c0.9-0.8,1.8-1.6,2.8-2.4c0.6-0.5,1.6-0.5,2.2-0.1
		c0.7,0.4,0.7,1.2,0.1,1.6c-0.9,0.7-1.9,1.6-2.8,2.3C1115.1,302.9,1114.6,303.1,1114.2,303.1z M1119.8,298.4c-0.4,0-0.8-0.1-1.1-0.3
		c-0.6-0.4-0.7-1.2-0.1-1.6c1-0.7,1.9-1.6,2.9-2.3c0.6-0.4,1.6-0.4,2.2,0s0.6,1.2,0,1.6c-1,0.7-1.9,1.5-2.9,2.2
		C1120.7,298.3,1120.2,298.4,1119.8,298.4z M1125.7,293.9c-0.4,0-0.8-0.1-1.1-0.4c-0.6-0.4-0.6-1.2,0-1.6c1-0.7,2-1.5,3-2.2
		c0.6-0.4,1.6-0.4,2.2,0s0.6,1.2,0,1.6c-1,0.7-2,1.5-3,2.1C1126.5,293.8,1126.1,293.9,1125.7,293.9z M1131.7,289.6
		c-0.4,0-0.8-0.1-1.2-0.4c-0.6-0.4-0.6-1.2,0.1-1.6c1-0.7,2.1-1.4,3.1-2.1c0.6-0.4,1.6-0.4,2.2,0.1s0.5,1.2-0.1,1.6
		c-1,0.7-2.1,1.4-3.1,2.1C1132.5,289.5,1132.1,289.6,1131.7,289.6z M1138,285.4c-0.4,0-0.9-0.1-1.2-0.4c-0.6-0.5-0.5-1.3,0.1-1.6
		c1.1-0.7,2.1-1.4,3.2-2.1c0.7-0.4,1.7-0.4,2.2,0.1c0.6,0.5,0.5,1.3-0.2,1.6c-1.1,0.7-2.1,1.3-3.2,2.1
		C1138.7,285.3,1138.3,285.4,1138,285.4z M1144.4,281.4c-0.5,0-0.9-0.1-1.2-0.4c-0.6-0.5-0.5-1.3,0.2-1.6c1.1-0.7,2.2-1.3,3.3-2
		c0.7-0.4,1.7-0.3,2.2,0.1c0.5,0.5,0.4,1.3-0.2,1.6c-1.1,0.7-2.2,1.3-3.2,2C1145.1,281.2,1144.7,281.4,1144.4,281.4z M1150.9,277.4
		c-0.5,0-0.9-0.1-1.2-0.4c-0.6-0.5-0.5-1.3,0.2-1.6c1.1-0.7,2.1-1.3,3.1-2c0.7-0.4,1.7-0.4,2.2,0.1c0.6,0.5,0.5,1.3-0.1,1.6
		c-1,0.7-2.1,1.4-3.2,2.1C1151.6,277.3,1151.3,277.4,1150.9,277.4z M1157.2,273.3c-0.4,0-0.8-0.1-1.1-0.4c-0.6-0.4-0.6-1.2,0.1-1.6
		c1-0.7,2-1.4,3-2.1c0.6-0.4,1.6-0.4,2.2,0s0.6,1.2,0,1.6c-1,0.7-2,1.5-3,2.2C1158,273.2,1157.6,273.3,1157.2,273.3z M1163.1,268.8
		c-0.4,0-0.8-0.1-1.1-0.3c-0.6-0.4-0.7-1.2-0.1-1.6c0.9-0.7,1.9-1.6,2.8-2.3c0.6-0.5,1.6-0.5,2.2-0.1c0.7,0.4,0.7,1.2,0.2,1.6
		c-0.9,0.8-1.9,1.6-2.8,2.4C1163.9,268.7,1163.5,268.8,1163.1,268.8z M1168.5,264.1c-0.3,0-0.7-0.1-1-0.2c-0.7-0.4-0.8-1.1-0.3-1.6
		c0.9-0.8,1.7-1.6,2.5-2.4c0.5-0.5,1.5-0.7,2.2-0.2c0.7,0.4,0.9,1.1,0.3,1.6c-0.8,0.8-1.7,1.7-2.6,2.5
		C1169.5,263.9,1169,264.1,1168.5,264.1z M1173.5,259.1c-0.3,0-0.6-0.1-0.9-0.2c-0.7-0.4-0.9-1.1-0.4-1.6c0.8-0.8,1.5-1.7,2.3-2.6
		c0.5-0.5,1.4-0.7,2.2-0.4c0.7,0.4,1,1,0.5,1.6c-0.8,0.9-1.5,1.8-2.3,2.7C1174.5,258.9,1174,259.1,1173.5,259.1z M1178,253.8
		c-0.3,0-0.5-0.1-0.8-0.1c-0.8-0.3-1-1-0.6-1.6c0.7-0.9,1.4-1.8,2-2.7c0.4-0.6,1.4-0.8,2.1-0.5c0.8,0.3,1.1,1,0.7,1.6
		c-0.7,1-1.4,1.8-2.1,2.7C1179.1,253.5,1178.6,253.8,1178,253.8z M1182,248.3c-0.2,0-0.5-0.1-0.7-0.1c-0.8-0.3-1.1-1-0.7-1.6
		c0.6-0.9,1.2-1.8,1.7-2.8c0.4-0.6,1.3-0.9,2.1-0.6c0.8,0.3,1.2,1,0.8,1.6c-0.6,1-1.2,1.9-1.8,2.9
		C1183.1,248.1,1182.6,248.3,1182,248.3z M1185.4,242.6c-0.2,0-0.4,0-0.6-0.1c-0.8-0.2-1.2-0.9-0.9-1.6c0.5-1,1-1.9,1.5-2.9
		c0.3-0.6,1.2-1,2-0.7s1.3,0.9,1,1.5c-0.5,1-1,2-1.5,3C1186.6,242.3,1186,242.6,1185.4,242.6z M1188.2,236.8c-0.2,0-0.3,0-0.5-0.1
		c-0.8-0.2-1.3-0.9-1-1.5c0.4-1,0.8-2,1.2-3c0.2-0.6,1.1-1,2-0.8c0.8,0.1,1.3,0.8,1.1,1.5c-0.4,1-0.8,2-1.2,3
		C1189.5,236.4,1188.9,236.8,1188.2,236.8z M1190.5,230.7c-0.1,0-0.2,0-0.4,0c-0.8-0.1-1.4-0.8-1.2-1.4c0.3-1,0.6-2,0.9-3
		c0.2-0.7,1-1,1.9-0.9c0.9,0.1,1.4,0.7,1.2,1.4c-0.3,1-0.6,2.1-0.9,3.1C1191.9,230.4,1191.2,230.7,1190.5,230.7z M1192.2,224.7
		c-0.1,0-0.2,0-0.3,0c-0.9-0.1-1.4-0.7-1.3-1.3c0.2-1,0.5-2,0.6-3c0.1-0.7,0.9-1.1,1.8-1c0.9,0.1,1.5,0.7,1.3,1.3
		c-0.2,1-0.4,2.1-0.7,3.1C1193.7,224.2,1193,224.7,1192.2,224.7z M1193.4,218.5c-0.1,0-0.1,0-0.2,0c-0.9-0.1-1.5-0.7-1.4-1.3
		c0.1-1,0.3-2.1,0.4-3.1c0.1-0.7,0.8-1.1,1.7-1.1c0.9,0.1,1.5,0.6,1.5,1.3c-0.1,1-0.2,2.1-0.4,3.2
		C1194.9,218,1194.2,218.5,1193.4,218.5z M1194.1,212.3C1194,212.3,1194,212.3,1194.1,212.3c-0.9,0-1.6-0.6-1.6-1.3
		c0.1-1,0.1-2.1,0.1-3.1c0-0.7,0.7-1.2,1.6-1.2s1.6,0.5,1.6,1.2c0,1-0.1,2.1-0.1,3.2C1195.6,211.8,1194.9,212.3,1194.1,212.3z
		 M1194.2,206.1c-0.9,0-1.6-0.5-1.6-1.2c0-1-0.1-2.1-0.1-3.1c0-0.7,0.6-1.2,1.5-1.2s1.6,0.4,1.6,1.1c0.1,1,0.1,2.1,0.1,3.2
		C1195.8,205.5,1195.1,206.1,1194.2,206.1L1194.2,206.1z M1193.9,199.8c-0.8,0-1.5-0.4-1.6-1.1c-0.1-1-0.2-2.1-0.3-3.1
		c-0.1-0.7,0.6-1.2,1.4-1.3c0.9-0.1,1.6,0.4,1.7,1c0.1,1,0.2,2.1,0.3,3.1C1195.5,199.1,1194.8,199.6,1193.9,199.8
		C1193.9,199.8,1193.9,199.8,1193.9,199.8z M1193.1,193.6c-0.8,0-1.5-0.4-1.6-1c-0.2-1-0.4-2.1-0.6-3c-0.1-0.7,0.5-1.3,1.3-1.3
		c0.9-0.1,1.7,0.4,1.8,1c0.2,1,0.4,2.1,0.6,3.1c0.1,0.7-0.5,1.3-1.4,1.3H1193.1z M1191.8,187.5c-0.8,0-1.4-0.4-1.6-1
		c-0.2-1-0.5-2-0.8-3c-0.2-0.7,0.4-1.3,1.2-1.4c0.9-0.1,1.7,0.3,1.9,0.9c0.3,1,0.5,2.1,0.8,3.1c0.1,0.7-0.4,1.3-1.3,1.3
		C1192,187.5,1191.9,187.5,1191.8,187.5z M1190.2,181.3c-0.7,0-1.4-0.4-1.5-0.9c-0.3-1-0.6-2-1-3c-0.2-0.6,0.3-1.3,1.2-1.4
		c0.8-0.1,1.7,0.2,1.9,0.9c0.3,1,0.7,2.1,1,3c0.2,0.7-0.3,1.3-1.2,1.4C1190.4,181.3,1190.3,181.3,1190.2,181.3z M1188.2,175.3
		c-0.7,0-1.3-0.4-1.5-0.9c-0.4-1-0.7-2-1.1-3c-0.2-0.6,0.2-1.3,1.1-1.5c0.8-0.1,1.7,0.1,2,0.8c0.4,1,0.8,2,1.2,3
		c0.2,0.6-0.3,1.3-1.1,1.4C1188.5,175.3,1188.3,175.3,1188.2,175.3z M1185.8,169.3c-0.7,0-1.3-0.3-1.5-0.8c-0.4-1-0.9-2-1.3-3
		c-0.3-0.6,0.2-1.3,1-1.5s1.7,0.1,2,0.7c0.5,1,0.9,2,1.3,3c0.3,0.6-0.2,1.3-1,1.5C1186.1,169.3,1186,169.3,1185.8,169.3z
		 M1183,163.4c-0.6,0-1.2-0.3-1.5-0.7c-0.5-1-1-1.9-1.5-2.9c-0.3-0.6,0.1-1.3,0.9-1.5s1.7,0.1,2.1,0.7c0.5,1,1,2,1.5,3
		c0.3,0.6-0.1,1.3-0.9,1.5C1183.4,163.4,1183.2,163.4,1183,163.4z M1180,157.6c-0.6,0-1.2-0.3-1.5-0.7c-0.5-1-1.1-1.9-1.7-2.9
		c-0.4-0.6,0-1.3,0.8-1.6c0.8-0.3,1.7,0,2.1,0.6c0.6,1,1.1,1.9,1.7,2.9c0.3,0.6,0,1.3-0.9,1.6C1180.4,157.6,1180.2,157.6,1180,157.6
		z M1176.5,151.9c-0.6,0-1.2-0.2-1.4-0.7c-0.6-1-1.2-1.8-1.8-2.8c-0.4-0.6-0.1-1.3,0.7-1.6c0.8-0.3,1.7-0.1,2.1,0.5
		c0.6,1,1.2,1.9,1.8,2.8c0.4,0.6,0,1.3-0.8,1.6C1177,151.9,1176.8,151.9,1176.5,151.9z M809.9,147.1c-0.3,0-0.6-0.1-0.8-0.1
		c-0.8-0.3-1-1-0.6-1.6c0-0.1,0.8-1,2.4-2.7c0.5-0.5,1.5-0.7,2.2-0.3c0.7,0.4,0.9,1.1,0.4,1.6c-1.5,1.6-2.3,2.6-2.3,2.6
		C811,146.9,810.5,147.1,809.9,147.1z M1172.8,146.3c-0.6,0-1.1-0.2-1.4-0.7c-0.6-0.9-1.3-1.8-2-2.7c-0.4-0.6-0.1-1.3,0.6-1.6
		c0.8-0.3,1.7-0.1,2.1,0.4c0.7,0.9,1.3,1.8,2,2.8c0.4,0.6,0.1,1.3-0.7,1.6C1173.3,146.3,1173.1,146.3,1172.8,146.3z M814.7,141.9
		c-0.3,0-0.7-0.1-0.9-0.2c-0.7-0.4-0.9-1.1-0.3-1.6c0.8-0.8,1.7-1.7,2.6-2.5c0.5-0.5,1.5-0.6,2.2-0.2s0.8,1.1,0.3,1.6
		c-0.9,0.8-1.7,1.6-2.5,2.4C815.7,141.7,815.2,141.9,814.7,141.9z M1168.8,140.8c-0.6,0-1.1-0.2-1.4-0.6c-0.7-0.9-1.4-1.8-2.1-2.7
		c-0.4-0.6-0.2-1.3,0.6-1.6c0.8-0.3,1.7-0.1,2.2,0.4c0.7,0.9,1.4,1.8,2.1,2.7c0.4,0.6,0.2,1.3-0.6,1.6
		C1169.3,140.7,1169.1,140.8,1168.8,140.8z M819.9,137c-0.4,0-0.7-0.1-1-0.3c-0.7-0.4-0.8-1.1-0.2-1.6c0.9-0.8,1.8-1.6,2.7-2.4
		c0.6-0.5,1.6-0.5,2.2-0.1c0.7,0.4,0.7,1.2,0.2,1.6c-0.9,0.8-1.8,1.6-2.7,2.4C820.8,136.9,820.4,137,819.9,137z M1164.5,135.4
		c-0.5,0-1-0.2-1.3-0.5c-0.7-0.9-1.5-1.8-2.2-2.6c-0.5-0.5-0.3-1.3,0.5-1.6c0.7-0.4,1.7-0.2,2.2,0.4c0.8,0.9,1.5,1.8,2.3,2.7
		c0.5,0.5,0.2,1.3-0.5,1.6C1165.1,135.4,1164.8,135.4,1164.5,135.4z M825.4,132.2c-0.4,0-0.8-0.1-1.1-0.3c-0.7-0.4-0.7-1.2-0.1-1.6
		c0.9-0.8,1.9-1.6,2.9-2.3c0.6-0.4,1.6-0.5,2.2-0.1c0.6,0.4,0.7,1.2,0.1,1.6c-0.9,0.7-1.9,1.6-2.8,2.3
		C826.3,132.2,825.8,132.2,825.4,132.2z M1159.9,130.2c-0.5,0-1-0.1-1.3-0.5c-0.8-0.9-1.6-1.7-2.4-2.5c-0.5-0.5-0.3-1.3,0.4-1.6
		c0.7-0.4,1.7-0.2,2.2,0.3c0.8,0.9,1.6,1.7,2.4,2.6c0.5,0.5,0.3,1.3-0.4,1.6C1160.6,130.2,1160.2,130.2,1159.9,130.2z M831.2,127.7
		c-0.4,0-0.8-0.1-1.1-0.3c-0.6-0.4-0.6-1.2,0-1.6c1-0.7,2-1.5,3-2.2c0.6-0.4,1.6-0.4,2.2,0c0.6,0.4,0.6,1.2,0,1.6
		c-1,0.7-2,1.5-2.9,2.2C832,127.6,831.6,127.7,831.2,127.7z M1155.1,125.1c-0.5,0-1-0.1-1.3-0.4c-0.8-0.8-1.7-1.6-2.5-2.4
		c-0.5-0.5-0.4-1.3,0.3-1.6c0.7-0.4,1.7-0.3,2.2,0.2c0.9,0.8,1.7,1.7,2.5,2.5c0.5,0.5,0.4,1.3-0.3,1.6
		C1155.7,125.1,1155.4,125.1,1155.1,125.1z M837.2,123.3c-0.4,0-0.8-0.1-1.1-0.4c-0.6-0.4-0.6-1.2,0.1-1.6c1-0.7,2-1.4,3.1-2.1
		c0.6-0.4,1.6-0.4,2.2,0.1c0.6,0.4,0.5,1.2-0.1,1.6c-1,0.7-2.1,1.4-3.1,2.1C837.9,123.2,837.5,123.3,837.2,123.3z M1150,120.2
		c-0.5,0-0.9-0.1-1.2-0.4c-0.9-0.8-1.7-1.6-2.6-2.4c-0.6-0.5-0.5-1.3,0.2-1.6c0.7-0.4,1.7-0.4,2.2,0.1c0.9,0.8,1.8,1.6,2.7,2.4
		c0.5,0.5,0.4,1.3-0.3,1.6C1150.7,120.1,1150.3,120.2,1150,120.2z M843.4,119.1c-0.4,0-0.9-0.1-1.2-0.4c-0.6-0.5-0.5-1.3,0.1-1.6
		c1-0.7,2.1-1.4,3.2-2.1c0.7-0.4,1.7-0.4,2.2,0.1c0.6,0.5,0.5,1.3-0.2,1.6c-1.1,0.7-2.1,1.3-3.2,2
		C844.1,119,843.7,119.1,843.4,119.1z M1144.6,115.4c-0.4,0-0.9-0.1-1.2-0.4c-0.9-0.7-1.8-1.6-2.8-2.3c-0.6-0.4-0.5-1.2,0.1-1.6
		s1.6-0.4,2.2,0.1c0.9,0.7,1.9,1.6,2.8,2.4c0.6,0.5,0.5,1.3-0.2,1.6C1145.3,115.3,1145,115.4,1144.6,115.4z M849.8,115
		c-0.5,0-0.9-0.1-1.2-0.4c-0.6-0.5-0.5-1.3,0.2-1.6c1.1-0.7,2.2-1.3,3.3-2c0.7-0.4,1.7-0.3,2.2,0.2s0.4,1.3-0.3,1.6
		c-1.1,0.7-2.2,1.3-3.3,1.9C850.5,114.9,850.1,115,849.8,115z M856.4,111.2c-0.5,0-0.9-0.1-1.3-0.4c-0.5-0.5-0.4-1.3,0.3-1.6
		c1.1-0.6,2.2-1.3,3.4-1.8c0.7-0.4,1.7-0.3,2.2,0.2s0.4,1.3-0.3,1.6c-1.1,0.6-2.3,1.3-3.4,1.8C857.1,111.1,856.7,111.2,856.4,111.2z
		 M1139,110.8c-0.4,0-0.8-0.1-1.2-0.4c-1-0.7-1.9-1.5-2.9-2.2c-0.6-0.4-0.6-1.2,0-1.6s1.6-0.4,2.2,0c1,0.7,2,1.5,2.9,2.3
		c0.6,0.4,0.6,1.2-0.1,1.6C1139.7,110.7,1139.3,110.8,1139,110.8z M863.2,107.5c-0.5,0-1-0.1-1.3-0.5c-0.5-0.5-0.3-1.3,0.4-1.6
		c1.1-0.6,2.3-1.2,3.5-1.8c0.7-0.4,1.7-0.2,2.2,0.3c0.5,0.5,0.3,1.3-0.4,1.6c-1.2,0.6-2.3,1.2-3.4,1.8
		C863.8,107.4,863.5,107.5,863.2,107.5z M1133,106.3c-0.4,0-0.8-0.1-1.1-0.3c-1-0.7-2-1.4-3-2.1c-0.6-0.4-0.7-1.2-0.1-1.6
		s1.6-0.5,2.2-0.1c1,0.7,2.1,1.5,3.1,2.1c0.6,0.4,0.6,1.2,0,1.6C1133.9,106.2,1133.5,106.3,1133,106.3z M870.2,104
		c-0.5,0-1-0.2-1.3-0.5c-0.5-0.5-0.3-1.3,0.5-1.6c1.2-0.6,2.4-1.1,3.6-1.7c0.7-0.4,1.7-0.1,2.2,0.4s0.2,1.3-0.5,1.6
		c-1.2,0.5-2.4,1.1-3.5,1.7C870.8,103.9,870.5,104,870.2,104z M1126.9,102.1c-0.4,0-0.8-0.1-1.1-0.3c-1-0.7-2.1-1.4-3.2-2
		c-0.7-0.4-0.7-1.2-0.2-1.6c0.6-0.5,1.6-0.5,2.2-0.1c1.1,0.7,2.1,1.3,3.2,2.1c0.7,0.4,0.7,1.2,0.1,1.6
		C1127.7,102,1127.3,102.1,1126.9,102.1z M877.3,100.7c-0.5,0-1.1-0.2-1.4-0.6c-0.5-0.5-0.2-1.3,0.5-1.6c1.2-0.5,2.4-1,3.7-1.6
		c0.8-0.3,1.7-0.1,2.2,0.4c0.4,0.6,0.2,1.3-0.6,1.6c-1.2,0.5-2.4,1-3.6,1.6C877.9,100.6,877.6,100.7,877.3,100.7z M1120.4,98
		c-0.3,0-0.7-0.1-1-0.3c-1.1-0.7-2.2-1.3-3.3-1.9c-0.7-0.4-0.8-1.1-0.3-1.6s1.5-0.6,2.2-0.2c1.1,0.7,2.2,1.3,3.3,1.9
		c0.7,0.4,0.8,1.1,0.2,1.6C1121.4,97.9,1120.9,98,1120.4,98z M884.6,97.6c-0.6,0-1.1-0.2-1.4-0.6c-0.4-0.6-0.1-1.3,0.6-1.6
		c1.2-0.5,2.5-1,3.7-1.5c0.8-0.3,1.7-0.1,2.1,0.5s0.1,1.3-0.7,1.6c-1.2,0.5-2.5,1-3.7,1.5C885.2,97.5,884.9,97.6,884.6,97.6z
		 M892.1,94.6c-0.6,0-1.1-0.2-1.4-0.7c-0.4-0.6-0.1-1.3,0.7-1.6c1.3-0.4,2.5-1,3.8-1.4c0.8-0.3,1.7-0.1,2.1,0.5
		c0.4,0.6,0.1,1.3-0.7,1.6c-1.3,0.4-2.5,0.9-3.7,1.4C892.6,94.6,892.3,94.6,892.1,94.6z M1113.8,94.3c-0.3,0-0.7-0.1-0.9-0.2
		c-1.1-0.6-2.3-1.2-3.4-1.8c-0.7-0.4-0.9-1.1-0.4-1.6s1.5-0.7,2.2-0.3c1.2,0.6,2.3,1.2,3.5,1.8c0.7,0.4,0.9,1.1,0.3,1.6
		C1114.7,94.1,1114.3,94.3,1113.8,94.3z M899.7,91.9c-0.6,0-1.2-0.2-1.4-0.7c-0.4-0.6,0-1.3,0.8-1.6c1.3-0.4,2.6-0.9,3.9-1.3
		c0.8-0.3,1.7,0,2.1,0.6c0.4,0.6,0,1.3-0.8,1.6c-1.3,0.4-2.6,0.9-3.8,1.3C900.1,91.8,899.9,91.9,899.7,91.9z M1106.8,90.7
		c-0.3,0-0.6-0.1-0.9-0.2c-1.2-0.6-2.4-1.1-3.5-1.6c-0.7-0.4-1-1-0.5-1.6c0.5-0.5,1.4-0.7,2.2-0.4c1.2,0.5,2.4,1.1,3.6,1.7
		c0.7,0.4,0.9,1.1,0.5,1.6C1107.9,90.5,1107.3,90.7,1106.8,90.7z M907.4,89.4c-0.6,0-1.2-0.3-1.5-0.7c-0.3-0.6,0-1.3,0.8-1.6
		c1.3-0.4,2.6-0.8,3.9-1.2c0.8-0.2,1.7,0.1,2.1,0.7c0.3,0.6-0.1,1.3-0.9,1.6c-1.3,0.4-2.6,0.8-3.9,1.2
		C907.8,89.3,907.6,89.4,907.4,89.4z M1099.7,87.4c-0.3,0-0.5-0.1-0.8-0.1c-1.2-0.5-2.4-1-3.6-1.5c-0.8-0.3-1.1-1-0.6-1.6
		c0.4-0.6,1.4-0.8,2.1-0.4c1.2,0.5,2.5,1,3.7,1.6c0.8,0.3,1,1,0.6,1.6C1100.7,87.2,1100.2,87.4,1099.7,87.4z M915.2,87
		c-0.6,0-1.2-0.3-1.5-0.7c-0.3-0.6,0.1-1.3,0.9-1.5c1.3-0.4,2.6-0.7,4-1.1c0.8-0.2,1.7,0.1,2,0.7c0.3,0.6-0.1,1.3-0.9,1.5
		c-1.3,0.4-2.6,0.7-3.9,1.1C915.6,87,915.4,87,915.2,87z M923.1,84.9c-0.7,0-1.3-0.3-1.5-0.8c-0.3-0.6,0.2-1.3,1-1.5
		c1.3-0.4,2.7-0.7,4-1c0.8-0.2,1.7,0.1,2,0.7s-0.2,1.3-1,1.5c-1.3,0.3-2.7,0.7-4,1C923.4,84.9,923.3,84.9,923.1,84.9z M1092.2,84.5
		c-0.2,0-0.5-0.1-0.7-0.1c-1.2-0.4-2.5-0.9-3.8-1.3c-0.8-0.3-1.1-1-0.8-1.6c0.4-0.6,1.3-0.8,2.1-0.6c1.3,0.4,2.6,0.9,3.8,1.4
		c0.8,0.3,1.1,1,0.7,1.6C1093.4,84.2,1092.8,84.5,1092.2,84.5z M931.1,83c-0.7,0-1.3-0.3-1.5-0.8c-0.3-0.6,0.2-1.3,1-1.5
		c1.3-0.3,2.7-0.6,4.1-0.9c0.8-0.1,1.7,0.1,2,0.8c0.2,0.6-0.2,1.3-1.1,1.5c-1.3,0.3-2.7,0.6-4,0.9C931.4,82.9,931.3,83,931.1,83z
		 M1084.6,81.9c-0.2,0-0.4,0-0.6-0.1c-1.3-0.4-2.6-0.8-3.9-1.2c-0.8-0.2-1.2-0.9-0.9-1.5c0.3-0.6,1.2-0.9,2-0.7
		c1.3,0.4,2.6,0.8,4,1.2c0.8,0.2,1.2,1,0.8,1.6C1085.8,81.6,1085.2,81.9,1084.6,81.9z M939.2,81.2c-0.7,0-1.3-0.4-1.5-0.9
		c-0.2-0.6,0.3-1.3,1.1-1.4c1.4-0.3,2.7-0.5,4.1-0.8c0.8-0.1,1.7,0.2,1.9,0.8c0.2,0.6-0.3,1.3-1.1,1.4c-1.4,0.2-2.7,0.5-4.1,0.8
		C939.5,81.2,939.3,81.2,939.2,81.2z M947.4,79.7c-0.7,0-1.4-0.4-1.5-0.9c-0.2-0.6,0.3-1.3,1.2-1.4c1.4-0.2,2.7-0.4,4.1-0.7
		c0.9-0.1,1.7,0.2,1.9,0.9c0.2,0.7-0.3,1.3-1.2,1.4c-1.4,0.2-2.7,0.4-4.1,0.7C947.6,79.7,947.5,79.7,947.4,79.7z M1076.7,79.6
		c-0.2,0-0.3,0-0.5-0.1c-1.3-0.4-2.6-0.7-4-1c-0.8-0.2-1.3-0.8-1-1.5c0.3-0.6,1.1-1,2-0.7c1.3,0.3,2.7,0.7,4.1,1
		c0.8,0.2,1.3,0.9,1,1.5C1078,79.3,1077.4,79.6,1076.7,79.6z M955.6,78.3c-0.7,0-1.4-0.4-1.5-1c-0.2-0.7,0.4-1.3,1.2-1.4
		c1.4-0.2,2.8-0.4,4.2-0.6c0.9-0.1,1.7,0.3,1.8,1c0.2,0.7-0.4,1.3-1.3,1.3c-1.4,0.2-2.8,0.4-4.1,0.6
		C955.8,78.2,955.7,78.3,955.6,78.3z M1068.7,77.7c-0.1,0-0.3,0-0.4-0.1c-1.3-0.3-2.7-0.5-4-0.7c-0.9-0.1-1.4-0.7-1.2-1.4
		c0.2-0.7,1-1,1.9-0.9c1.4,0.2,2.8,0.5,4.1,0.7c0.8,0.1,1.3,0.8,1.1,1.4C1070,77.4,1069.4,77.7,1068.7,77.7z M963.9,77.1
		c-0.8,0-1.4-0.4-1.6-1c-0.2-0.7,0.4-1.3,1.3-1.3c1.4-0.1,2.8-0.4,4.2-0.5c0.9-0.1,1.7,0.4,1.8,1c0.1,0.7-0.5,1.3-1.3,1.3
		c-1.4,0.1-2.8,0.4-4.1,0.5C964.1,77.1,964,77.1,963.9,77.1z M1060.4,76.4c-0.1,0-0.2,0-0.3,0c-1.4-0.2-2.7-0.4-4.1-0.5
		c-0.9-0.1-1.5-0.7-1.3-1.3c0.1-0.7,0.9-1.1,1.8-1c1.4,0.1,2.8,0.3,4.2,0.5c0.9,0.1,1.4,0.7,1.3,1.3
		C1061.9,76,1061.2,76.4,1060.4,76.4z M972.2,76.2c-0.8,0-1.5-0.4-1.6-1c-0.1-0.7,0.5-1.3,1.3-1.3c1.4-0.1,2.8-0.3,4.2-0.4
		c0.9-0.1,1.7,0.4,1.8,1c0.1,0.7-0.5,1.3-1.4,1.3c-1.4,0.1-2.8,0.3-4.2,0.4C972.4,76.1,972.3,76.2,972.2,76.2z M1052.1,75.5
		c-0.1,0-0.1,0-0.2,0c-1.4-0.1-2.8-0.2-4.2-0.3c-0.9-0.1-1.5-0.7-1.4-1.3c0.1-0.7,0.9-1.1,1.7-1c1.4,0.1,2.8,0.2,4.2,0.3
		c0.9,0.1,1.5,0.7,1.4,1.3C1053.6,75.1,1052.9,75.5,1052.1,75.5z M980.6,75.4c-0.8,0-1.5-0.4-1.6-1c-0.1-0.7,0.5-1.3,1.4-1.3
		c1.4-0.1,2.8-0.2,4.2-0.3c0.9-0.1,1.6,0.4,1.7,1c0.1,0.7-0.5,1.2-1.4,1.3C983.5,75.1,982.1,75.3,980.6,75.4
		C980.7,75.4,980.6,75.4,980.6,75.4z M1043.7,74.9L1043.7,74.9c-1.5-0.1-2.9-0.1-4.3-0.2c-0.9-0.1-1.5-0.6-1.5-1.3
		c0.1-0.7,0.8-1.1,1.7-1.1c1.4,0.1,2.8,0.1,4.2,0.2c0.9,0.1,1.5,0.6,1.4,1.3C1045.2,74.4,1044.5,74.9,1043.7,74.9z M989,74.8
		c-0.8,0-1.5-0.4-1.6-1c-0.1-0.7,0.6-1.2,1.4-1.3c1.4-0.1,2.8-0.1,4.2-0.2c0.9-0.1,1.6,0.4,1.7,1.1s-0.6,1.2-1.5,1.3
		C991.8,74.7,990.4,74.8,989,74.8C989,74.7,989,74.8,989,74.8z M1035.3,74.4C1035.3,74.4,1035.2,74.4,1035.3,74.4
		c-1.5-0.1-2.9-0.1-4.3-0.1c-0.9,0-1.5-0.6-1.5-1.3c0-0.7,0.8-1.1,1.7-1.1c1.4,0.1,2.8,0.1,4.2,0.1c0.9,0.1,1.5,0.6,1.5,1.3
		C1036.8,74,1036.1,74.4,1035.3,74.4z M997.4,74.3c-0.8,0-1.5-0.5-1.6-1.1c0-0.7,0.6-1.2,1.5-1.3c1.4-0.1,2.8-0.1,4.2-0.1
		c0.9,0,1.6,0.4,1.6,1.1c0,0.7-0.6,1.2-1.5,1.2C1000.2,74.2,998.8,74.3,997.4,74.3L997.4,74.3z M1026.9,74.1
		C1026.9,74.1,1026.8,74.1,1026.9,74.1c-1.5-0.1-2.9-0.1-4.3-0.1c-0.9,0-1.6-0.5-1.5-1.2c0-0.7,0.7-1.2,1.6-1.1
		c1.4,0,2.8,0.1,4.2,0.1c0.9,0,1.6,0.6,1.5,1.2C1028.4,73.6,1027.7,74.1,1026.9,74.1z M1005.8,74c-0.9,0-1.6-0.5-1.6-1.1
		c0-0.7,0.7-1.2,1.5-1.2c1.4,0,2.8-0.1,4.2-0.1l0,0c0.9,0,1.6,0.5,1.6,1.2s-0.7,1.2-1.6,1.2C1008.6,74,1007.2,74,1005.8,74
		L1005.8,74z M1018.4,74L1018.4,74c-1.2,0-2.5,0-3.7,0h-0.5l0,0c-0.9,0-1.6-0.5-1.6-1.2s0.7-1.2,1.6-1.2h0.5c1.2,0,2.5,0,3.7,0
		c0.9,0,1.6,0.5,1.6,1.2S1019.3,74,1018.4,74z"/>
</g>
<g>
	<polygon class="st10" points="1151.1,566.8 1242.7,581.2 1182.4,538.8 1179.1,552 1156.7,555.8 	"/>
	<polygon class="st4" points="1242.7,581.2 1166.9,540.7 1092.1,535.9 	"/>
	<polygon class="st4" points="1182.4,538.8 1242.7,581.2 1196.5,515.6 	"/>
</g>
<g>
	<polygon class="st10" points="1036.8,155.3 965.7,118.7 1029.3,119.9 1024.8,130.8 1038.5,144.8 	"/>
	<polygon class="st4" points="965.7,118.7 1039.1,129.1 1093.7,163.9 	"/>
	<polygon class="st4" points="1029.3,119.9 965.7,118.7 1031.3,96.6 	"/>
</g>
<g>
	<g>
		<g>
			<g class="st18">
				<path class="st39" d="M-940.1-111.8c-0.5-0.3-0.7-1-0.4-1.5c0.9-1.6,1.7-3.3,2.4-5c0.2-0.6,0.9-0.8,1.4-0.6
					c0.6,0.2,0.8,0.9,0.6,1.4c-0.7,1.8-1.6,3.6-2.5,5.3c0,0,0,0.1-0.1,0.1C-939-111.7-939.6-111.5-940.1-111.8z M-935.6-122.2
					c-0.6-0.2-0.9-0.8-0.8-1.4c0.5-1.8,0.9-3.6,1.1-5.4c0.1-0.6,0.6-1,1.3-0.9c0.6,0.1,1,0.6,0.9,1.3c-0.3,1.9-0.7,3.8-1.2,5.7
					c0,0.1-0.1,0.2-0.2,0.4C-934.7-122.3-935.2-122.1-935.6-122.2z"/>
				<path class="st39" d="M-932.8-134c0.1-0.2,0.2-0.4,0.2-0.6c0-1,0-1.9,0-2.8c0-0.6-0.5-1.1-1.2-1.1c-0.6,0-1.1,0.5-1.1,1.2
					c0,0.9,0,1.8,0,2.7c0,0.6,0.5,1.1,1.1,1.1C-933.4-133.5-933-133.7-932.8-134z"/>
			</g>
		</g>
	</g>
	<path class="st2" d="M-796-146.4v281.5c0,1.9-1.2,3.5-3.2,4.6c-1.5,0.8-3.5,1.3-5.6,1.2l-4.8-0.1c-4.9-0.1-9.3-3-9.3-6.2v-280.5
		L-796-146.4z"/>
	<g>
		<path class="st2" d="M-961.7-130.6l1.8,0.9l33.3-20.4l163.3,24.1l22.8,2.6l-1.3,4.3c-0.2,0.5-26.2,19.4-26.2,19.4l20.2,26.5
			l-1,2.7c-0.1,0.3-0.4,0.5-0.8,0.5l-21-3.3l-163.2-25.3c-0.5-0.1-0.9-0.3-1.2-0.6l-26.3-27.5c-0.3-0.4-0.5-0.9-0.5-1.4
			L-961.7-130.6z"/>
		<path class="st13" d="M-924.7-152l184.2,28.5c0.2,0,0.2,0.3,0.1,0.4l-26,19c-0.4,0.3-0.4,0.8-0.2,1.1l18.6,29.3
			c0.1,0.1,0,0.3-0.2,0.3L-932.6-102c-0.5-0.1-1-0.3-1.4-0.7l-27.5-27.8c-0.1-0.1-0.1-0.3,0.1-0.4l35-20.8
			C-925.9-151.9-925.3-152-924.7-152z"/>
	</g>
	<g>
		<path class="st2" d="M-696.1-51.7l-1.6,1l-33.7-17.6l-156.5,34.5l-21.1,3.9c-0.4,0.1-0.7,0.5-0.5,1l1.2,3.3
			c0.2,0.4,26.8,17,26.8,17l-17.8,27.2l1.1,2.6c0.1,0.3,0.5,0.5,0.8,0.4l20.1-4.6l156.5-35.7c0.4-0.1,0.8-0.3,1.1-0.7l23.6-28.5
			c0.3-0.4,0.4-0.9,0.4-1.4L-696.1-51.7z"/>
		<path class="st26" d="M-733.4-70l-176.1,40.1c-0.4,0.1-0.4,0.6-0.1,0.8l26,16.4c0.4,0.2,0.5,0.7,0.3,1.1l-16,29.8
			c-0.1,0.1,0.1,0.3,0.2,0.3l176.8-40.3c0.5-0.1,1-0.4,1.3-0.8l24.7-28.9c0.1-0.1,0.1-0.3-0.1-0.4l-35.3-17.9
			C-732.2-70-732.8-70.1-733.4-70z"/>
		<g>
			<path class="st23" d="M-829.5-27.2l93.4-21.9c1.6-0.4,2.6-2,2.2-3.6l0,0c-0.4-1.6-2-2.6-3.6-2.2L-830.9-33
				c-1.6,0.4-2.6,2-2.2,3.6l0,0C-832.7-27.8-831.1-26.8-829.5-27.2z"/>
			<path class="st23" d="M-827-11.6l97.1-22.8c0.4-0.1,0.6-0.4,0.5-0.8l-1-4.2c-0.1-0.4-0.4-0.6-0.8-0.5l-97.1,22.8
				c-0.4,0.1-0.6,0.4-0.5,0.8l1,4.2C-827.7-11.7-827.3-11.5-827-11.6z"/>
		</g>
	</g>
	<g>
		<circle class="st2" cx="-806.7" cy="-42" r="7"/>
		
			<ellipse transform="matrix(0.8576 -0.5144 0.5144 0.8576 -92.975 -421.4547)" class="st23" cx="-807.5" cy="-42.8" rx="4.3" ry="4.3"/>
	</g>
	<g>
		<path class="st23" d="M-830.6-118.6l-85.3-13.5c-1.5-0.2-2.6-1.7-2.4-3.3l0,0c0.2-1.5,1.7-2.6,3.3-2.4l85.3,13.5
			c1.5,0.2,2.6,1.7,2.4,3.3l0,0C-827.6-119.4-829.1-118.4-830.6-118.6z"/>
		<path class="st23" d="M-833.9-103.9l-84.9-13.4c-1.5-0.2-2.5-1.6-2.2-3.1l0,0c0.2-1.5,1.6-2.5,3.1-2.2l84.9,13.4
			c1.5,0.2,2.5,1.6,2.2,3.1l0,0C-831-104.7-832.4-103.6-833.9-103.9z"/>
	</g>
	<g>
		<circle class="st2" cx="-806.7" cy="-108.2" r="7"/>
		
			<ellipse transform="matrix(0.8576 -0.5144 0.5144 0.8576 -58.9236 -430.8878)" class="st23" cx="-807.5" cy="-109" rx="4.3" ry="4.3"/>
	</g>
</g>
<g>
	<line class="st24" x1="-785.9" y1="172.4" x2="-816" y2="183.7"/>
	<polygon class="st1" points="-759.6,406 -759.1,419.9 -731.8,419.8 -730.9,406.9 	"/>
	<path class="st13" d="M-697.9,449c-20.7,0.4-41.4,0.7-62,1.1c0.2-10.1,0.4-20.2,0.6-30.3c9.4-0.1,18.7-0.1,28.1-0.1l1,3.8
		l24.4,11.1c5,2.3,8.7,6.7,10,12.1C-695.7,447.8-696.6,449-697.9,449z"/>
	<polygon class="st1" points="-831.8,404.5 -832.3,418.3 -805.1,420.1 -803.3,407.3 	"/>
	<path class="st13" d="M-773.5,451.6c-20.6-1.2-41.2-2.4-61.8-3.6c1-10,1.9-20.1,2.9-30.1c9.3,0.7,18.6,1.3,27.9,2l0.7,3.9
		l23.4,12.8c4.8,2.6,8.2,7.4,9,12.8C-771.2,450.7-772.2,451.8-773.5,451.6z"/>
	<path class="st10" d="M-731.5,193.1c3.2,72.9,6.4,145.8,9.6,218.7c-15.5,0.1-31.1,0.2-46.6,0.3c-5.2-73-10.5-146-15.7-219"/>
	<path class="st15" d="M-805.5,193.1h73.4c-17.4,73-34.8,145.9-52.3,218.9c-18.9,0-37.9,0-56.8,0C-829.3,339-817.4,266-805.5,193.1z
		"/>
	<path class="st25" d="M-856.2,292.8v-69.5h43.7c0,23.1,0,46.1,0,69.2"/>
	<path class="st15" d="M-828.4,226.6h-12c-1.8,0-3.3-1.5-3.3-3.3l0,0c0-1.8,1.5-3.3,3.3-3.3h12c1.8,0,3.3,1.5,3.3,3.3l0,0
		C-825.1,225.1-826.6,226.6-828.4,226.6z"/>
	<g id="COU_5_">
		<path class="st1" d="M-785.7,49.1l-5.9,20.6c0,0,9.7-2.6,22.7,4.4l3-15.7C-765.8,58.4-778.8,41.7-785.7,49.1z"/>
	</g>
	<path class="st26" d="M-813,142.7l-9,50.5h94.2c0,0-14.8-114.6-37.8-119L-813,142.7z"/>
	<path class="st27" d="M-777.5,91.4c-1.4,5.4-6.5,16.8-14.6,32.5C-787.2,113.1-782.3,102.2-777.5,91.4z"/>
	<path class="st5" d="M-750.2,40.9c-0.1,2.1-0.3,4-0.7,5.8c-0.9,4.2-2.6,7.4-3.9,9.3c-1,1.5-2.5,2.6-4.2,3.1
		c-18.9,5.4-24.2-10.2-24.2-10.2c-0.3,0.6-1.5,2.6-3.6,3c-2.9,0.5-5.3-2.9-6.2-4.9c-0.3-0.8-1.3-3-0.3-5.6c0.8-2.1,2.6-3.7,4.8-4.2
		c2.8-0.7,5.8,0.5,7.6,2.9l2.7-11.1c0.9-3.9,4.7-6.4,8.6-5.7l16.7,2.8c1.5,4,2.3,7.7,2.5,11c0,0.2,0,0.5,0.1,0.7
		C-750.2,38.9-750.2,39.9-750.2,40.9z"/>
	<path class="st5" d="M-836.7,190l-4.5,22c-0.9,4.3-1,8.7-0.3,13c0.7,4.1,2,8.1,4.5,7.9c0,0,1.1,0.4,1.6-0.9c0,0,2.1,3.8,4,0.7
		l3.5-14.5c0,0,0.1,10.3,2.9,7.5c2.8-2.8,3.3-13.9,3.3-13.9l2-16.4L-836.7,190z"/>
	<ellipse class="st26" cx="-783.9" cy="98.1" rx="32.7" ry="29.8"/>
	<path class="st26" d="M-774.9,71.7c-0.1-1.4-1.2-2.6-2.6-2.8c-2.3-0.3-5.2-0.6-8.4-0.6c-6.5,0-12.4,1.1-15.7,2.1
		c-8.3,2.6-13.6,9.9-21,19.7c-21.6,28.5-25.7,65.6-25.7,65.6c-2.4,22.2,1,41,4.7,54.1l32.8-2.3l3.1-37.1
		c0.9-10.9,5.2-21.3,12.3-29.6c6.8-8,15.8-16.7,24.2-19.1C-772.4,105-773.6,88.3-774.9,71.7z"/>
	<path class="st16" d="M-754.5,48.8c-0.3,0.3-1.4,1.2-3,1c-1.7-0.3-2.7-1.8-2.9-2.1"/>
	<path class="st2" d="M-772.9,24.9c0,0,22.6,7,25.7,3.1c0,0-12.1-28.9-38.2-14c-3.2,1.8-10.7,6-13.5,15.2
		c-3.3,11.2,3.2,20.4,3.9,21.2c2.4,3.3,5.3,5.3,7.1,6.4c0.5-1.7,1-3.4,1.4-5.1c-0.4,0.1-0.9,0.1-1.5,0c-2.1-0.4-3.3-2.3-4-3.3
		c-0.7-1.1-1.6-2.5-1.5-4.5c0.1-1.8,1.1-3.1,1.6-3.6c6-6.5,12,1.5,12,1.5S-769.3,42.4-772.9,24.9z"/>
	<circle class="st1" cx="-770.7" cy="44" r="3.3"/>
	<path class="st1" d="M-750.2,40.9c-0.1,2.1-0.3,4-0.7,5.8c-0.8-0.6-1.4-1.6-1.4-2.7C-752.3,42.6-751.4,41.4-750.2,40.9z"/>
	<circle class="st6" cx="-760.4" cy="37.9" r="0.8"/>
	<path class="st6" d="M-750.2,37.8c-0.1,0.3-0.4,0.5-0.7,0.5c-0.4,0-0.8-0.4-0.8-0.8s0.3-0.8,0.8-0.8c0.3,0,0.5,0.1,0.6,0.4
		L-750.2,37.8z"/>
	<circle class="st28" cx="-760.4" cy="37.9" r="4.8"/>
	<ellipse class="st28" cx="-749.8" cy="37.6" rx="3.5" ry="4"/>
	<path class="st29" d="M-781.1,200.6c0,0-4,22.1-19.9,22.7"/>
	<path class="st2" d="M-779.9,41.8l3.5-0.9v7.4c0,1.5,0.7,2.9,1.8,3.9c3,2.4,9.9,6.2,20.6,2.5c0,0,0.1,11.6-6.4,10.6
		c-6.5-1.1-23.3-5-22.7-16.4L-779.9,41.8z"/>
	<path class="st30" d="M-835.3,448c0.2-2,0.4-4,0.6-5.9c20.9,1.6,41.8,3.1,62.7,4.7c0.2,0.7,0.4,1.3,0.5,1.8c0.2,0.8,0.2,1,0.2,1.3
		c0,0.2-0.1,0.9-0.7,1.4c0,0-0.4,0.4-1.2,0.4C-793.9,450.4-814.6,449.2-835.3,448z"/>
	<path class="st28" d="M-755.6,37.9c0,0,1.8-1.4,2.3,0"/>
	<path class="st28" d="M-765.1,37.9c0,0-3.6,1.9-8-0.8"/>
	<path class="st30" d="M-760,450l0.4-4.8l62.9-0.9l0.7,2.2c0,0,0.4,2.5-1.9,2.4C-700.2,448.8-760,450-760,450z"/>
	<polyline class="st31" points="-842,200.6 -818,198.8 -818,189 	"/>
	<path class="st32" d="M-761.2,29.8c0,0-3.7-1.9-6.2,1.2"/>
	<path class="st32" d="M-750.6,29.6c-1-0.3-2.2-0.3-3.5,0.5"/>
	<path class="st33" d="M-808.1,452h-56.4V302.4c0-5.3,4.3-9.6,9.6-9.6h48.2c5.3,0,9.6,4.3,9.6,9.6V441
		C-797.1,447.1-802,452-808.1,452z"/>
	<path class="st3" d="M-803.2,452h-67.4V302.3c0-5.3,4.3-9.6,9.6-9.6h48.2c5.3,0,9.6,4.3,9.6,9.6L-803.2,452L-803.2,452z"/>
	<circle class="st10" cx="-867.9" cy="452.8" r="8.1"/>
	<circle class="st10" cx="-804.7" cy="452.8" r="8.1"/>
	<path class="st34" d="M-835.4,390.9c0.7,0.1,6.2,0.4,10.1-3.9c3-3.4,3.1-7.3,3.1-8.3l-0.1-12.1c-0.1-7-5.9-12.5-12.9-12.1l0,0"/>
	<path class="st34" d="M-836.9,293.6c0,52.7,0,105.5,0,158.2"/>
</g>
<g>
	<polygon class="st1" points="-618.4,437.3 -618.1,446.1 -600.9,446 -600.4,437.9 	"/>
	<path class="st7" d="M-579.6,464.4c-13.2-0.4-26.4-0.8-39.7-1.2c0.1-3.1,0.3-6.2,0.4-9.3c0.2-2.7,0.4-5.3,0.6-8
		c5.9,0,11.8-0.1,17.7-0.1l0.6,2.4l15.3,7c3.2,1.4,5.5,4.2,6.3,7.6C-578.2,463.6-578.8,464.4-579.6,464.4z"/>
	<polygon class="st1" points="-663.8,436.4 -664.2,445.1 -647.1,446.2 -645.9,438.1 	"/>
	<path class="st7" d="M-627.1,465.9c-12.9-1.1-25.9-2.2-38.8-3.3c0.2-3.3,0.3-6.5,0.5-9.8c0.4-2.6,0.7-5.3,1.1-7.9
		c5.9,0.4,11.7,0.8,17.6,1.1l0.4,2.4l14.8,8c3,1.6,5.2,4.6,5.7,8C-625.7,465.3-626.3,466-627.1,465.9z"/>
	<path class="st26" d="M-600.7,303.4c2,45.9,4,91.7,6.1,137.6c-9.8,0.1-19.5,0.1-29.3,0.2c-3.3-45.9-6.6-91.8-9.9-137.8"/>
	<path class="st2" d="M-647.3,303.4h46.2c-11,45.9-21.9,91.8-32.9,137.7c-11.9,0-23.8,0-35.8,0
		C-662.3,395.2-654.8,349.3-647.3,303.4z"/>
	<path class="st6" d="M-650.6,209.9c-5-0.1-9.4-3.3-11.1-8c-1.7-4.7-0.4-10,3.3-13.3c0,0,8.9-2.3,8.9-7.5c0-7,0.2-13,3.8-15.2
		c2.1-1.3,4.4,0,6.3-2c1.4-1.4,1-3,1.6-4.7c1.8-5.7,12.3-8.6,20.5-7.5c2.6,0.3,6.6,1,10.2,4.2c5.2,4.5,5.6,11,5.6,11
		c0.7,2.2,1.4,5,1.6,8.5c0.3,5.8-1.2,10.5-2.2,13.2c3.9,4.2,5.5,9.5,3.9,14.1c-1.1,3.3-4,6.4-7.6,7.5c-7.7,2.4-12.7-5.8-25.3-5.9
		c-2.9,0-5.3,0.4-6.9,0.7C-642.2,206.6-646.4,208.3-650.6,209.9z"/>
	<path class="st1" d="M-591.8,255.5l2.2,8l31.6,23.4l-3.6,9.4l-31.4-14.9c-1.9-7.8-3.8-15.7-5.7-23.5
		C-596.3,257.1-594.1,256.3-591.8,255.5z"/>
	<path class="st1" d="M-669.3,234.9l-9.1,9.2c0,0-4.7,13.7,2.8,50l9.1-1.8l3.4-35.9l5.8-6.1L-669.3,234.9z"/>
	<g id="COU_4_">
		<path class="st1" d="M-632.4,185.8l-5.5,19.2c0,0,9-2.5,21.1,4l2.8-14.6C-613.9,194.4-626.1,179-632.4,185.8z"/>
	</g>
	<path class="st5" d="M-599.4,178v0.2c-0.1,2-0.3,3.7-0.7,5.4c0,0.1-0.1,0.2-0.1,0.3c-0.4,1.9-1.1,3.6-1.7,5s-1.3,2.5-1.8,3.4
		c-0.9,1.4-2.3,2.4-3.9,2.9c-17.6,5-22.5-9.5-22.5-9.5c-0.5,0.4-1.9,1.3-3.6,1.1c-2.6-0.3-4.4-3.1-4.5-5.6c-0.2-3.2,2.5-6.6,5.8-6.7
		c2.7,0,4.5,2.1,4.7,2.5c-0.1-0.9-0.8-5.5,2.2-9.8c2.9-4.1,7-5.1,8-5.3l15.5,2.6c1.4,3.7,2.1,7.1,2.3,10.2v0.1c0,0.2,0,0.5,0.1,0.7
		c0,0.2,0,0.4,0,0.6C-599.4,176.6-599.4,177.3-599.4,178z"/>
	<path class="st16" d="M-603.4,185.6c-0.3,0.2-1.3,1.1-2.8,0.9c-1.6-0.2-2.5-1.7-2.7-2"/>
	<path class="st1" d="M-618.5,178c1.7,0,3.1,1.4,3.1,3.1s-1.4,3.1-3.1,3.1s-3.1-1.4-3.1-3.1S-620.2,178-618.5,178z"/>
	<path class="st1" d="M-599.4,178v0.2c-0.1,2-0.3,3.7-0.7,5.4c0,0.1-0.1,0.2-0.1,0.3c-0.1-0.1-0.3-0.2-0.4-0.2
		c-0.9-0.5-1.4-1.5-1.4-2.6c0-1.4,0.9-2.5,2.2-2.9C-599.7,178-599.6,178-599.4,178z"/>
	<circle class="st6" cx="-608.9" cy="175.4" r="0.7"/>
	<circle class="st6" cx="-599.6" cy="175.3" r="0.7"/>
	<path class="st32" d="M-608.1,168.3c0,0-3.5-1.8-5.8,1.1"/>
	<path class="st32" d="M-603.5,167.9c0.8-0.5,1.5-0.7,2.2-0.7c0.1,0,0.3,0,0.4,0"/>
	<path class="st6" d="M-626.6,161.7l1.2,5.4l23.5-2.7c-0.8-1.7-1.5-3.4-2.3-5.2C-611.6,160.1-619.1,160.9-626.6,161.7z"/>
	<path class="st15" d="M-619.8,208.1c0,0,17-2.2,34.7,46.5l-12.4,6.1L-619.8,208.1z"/>
	<path class="st3" d="M-634.9,175.2c-2.5-10,1.2-19.3,7.8-22.7c4.1-2.1,8.5-1.3,10.6-0.8c0,0-2.5,0-5.2,0.7c-2.3,0.7-5,3.4-6.4,5.5
		c-4.5,6.9-1.2,16.6-0.9,17.6c-0.3-0.3-1.6-1.3-3.4-1.2C-633.6,174.5-634.5,174.9-634.9,175.2z"/>
	<path class="st6" d="M-627.7,171.7c0.2,0.1,3.3,1.5,6.1,0.1c2.6-1.3,3.9-4.4,2.8-7.3c-1.9-0.7-3.7-1.5-5.6-2.2
		C-625.5,165.5-626.6,168.6-627.7,171.7z"/>
	<path class="st10" d="M-652.5,262.5l-7.9,44.7h71.3l-9.2-68.8c0,0-6.8-32.4-34.1-34.6L-652.5,262.5z"/>
	<path class="st15" d="M-676.8,232.8c0,0,32.2-40.7,50.7-25.6c18.5,15.1-17.7,55.3-17.7,55.3L-676.8,232.8z"/>
	<path class="st1" d="M-675.6,294.2l1.5,6.1v8.1c0,0,4.4,12.9,7,10.5c0,0,0.9,3.4,2.8,0.6c0,0,2.1,1.3,2.1-1l-1.3-10.3
		c0,0,2.6,5,3.4,3.2c0,0-1.5-9.4-4.2-11.4l-2.1-7.6L-675.6,294.2z"/>
	<path class="st1" d="M-561.6,296.3h3.6c0,0,7.9,7.5,18.8,5.9c0,0,1.4-0.7,0.4-1.2c0,0,2.9-0.4,2.3-1.3c-0.6-0.8-0.6-0.8-0.6-0.8
		s2.4-0.8,1.3-1.8c-1.2-1-9.2-5.2-9.2-5.2s6.7,0.8,5.1-1.2s-9.9-2.9-9.9-2.9h-5.6l-2.4-0.9"/>
</g>
<g>
	<path class="st4" d="M636,639.2c0,0-36.6-33.6-61.1-20.2c-7,3.8-11.1,11.4-11.1,19.5c0.1,12.3,7.1,29.8,49.4,19.3L636,639.2z"/>
	<path class="st36" d="M573.7,632.8c0,0,23.6-3.8,44.8,15.9"/>
</g>
<path class="st13" d="M765.5,662.4c0,15.1-12.3,37.4-27.4,37.4c-0.8,0-1.6,0-2.5-0.1h-70c-0.1,0-0.1,0.1-0.2,0.1h-70.1
	c2.6-9,10.9-25.6,20.8-25.6c0.7,0,1.4,0,2.1,0.1c-1.6-3.7-2.5-7.7-2.5-11.8c0-16.8,14.5-30.5,32.6-31.1
	c3.8-10.3,13.7-18.6,25.4-18.6c5,0,9.6,2.3,13.6,4.7c4.1-5.3,10.6-8.8,17.9-8.8c12.5,0,22.7,10.2,22.7,22.7c0,2.1-0.3,4.1-0.8,6
	c3.4-1.5,7.1-2.3,11.1-2.3C753.3,635,765.5,647.2,765.5,662.4z"/>
<path class="st4" d="M875.7,700H655c20.9-17.3,34-34.8,47.1-36.8c27.2-4.1,34.3,7.7,58.9,0.2c19.7-6,25.7-16.7,47.4-18
	c12.7-0.7,22.2,2.2,24.7,3C860.3,657.5,872.7,693.3,875.7,700z"/>
<rect x="-1648.4" y="-204.5" class="st40" width="1320" height="700"/>
<g>
	<polygon class="st41" points="905.3,604.8 905.6,612.7 921.1,612.6 921.6,605.3 	"/>
	<path class="st42" d="M940.3,629.2c-11.9-0.4-23.8-0.7-35.8-1.1c0.1-2.8,0.3-5.6,0.4-8.4c0.2-2.4,0.4-4.8,0.5-7.2
		c5.3,0,10.6-0.1,15.9-0.1l0.5,2.2l13.8,6.3c2.9,1.3,5,3.8,5.7,6.8C941.6,628.5,941,629.2,940.3,629.2z"/>
	<polygon class="st41" points="864.5,604 864.1,611.8 879.5,612.8 880.6,605.5 	"/>
	<path class="st42" d="M897.5,630.5c-11.6-1-23.3-2-34.9-3c0.2-3,0.3-5.9,0.5-8.8c0.4-2.3,0.6-4.8,1-7.1c5.3,0.4,10.5,0.7,15.9,1
		l0.4,2.2l13.3,7.2c2.7,1.4,4.7,4.1,5.1,7.2C898.8,630,898.2,630.6,897.5,630.5z"/>
	<path class="st22" d="M921.3,484.2c1.8,41.3,3.6,82.6,5.5,123.9c-8.8,0.1-17.6,0.1-26.4,0.2c-3-41.3-5.9-82.7-8.9-124.1"/>
	<path class="st20" d="M879.3,484.2h41.6c-9.9,41.3-19.7,82.7-29.6,124c-10.7,0-21.4,0-32.2,0C865.8,566.9,872.6,525.5,879.3,484.2z
		"/>
	<path class="st43" d="M876.3,400c-4.5-0.1-8.5-3-10-7.2c-1.5-4.2-0.4-9,3-12c0,0,8-2.1,8-6.8c0-6.3,0.2-11.7,3.4-13.7
		c1.9-1.2,4,0,5.7-1.8c1.3-1.3,0.9-2.7,1.4-4.2c1.6-5.1,11.1-7.7,18.5-6.8c2.3,0.3,5.9,0.9,9.2,3.8c4.7,4.1,5,9.9,5,9.9
		c0.6,2,1.3,4.5,1.4,7.7c0.3,5.2-1.1,9.5-2,11.9c3.5,3.8,5,8.6,3.5,12.7c-1,3-3.6,5.8-6.8,6.8c-6.9,2.2-11.4-5.2-22.8-5.3
		c-2.6,0-4.8,0.4-6.2,0.6C883.9,397,880.1,398.5,876.3,400z"/>
	<path class="st41" d="M929.3,441l2,7.2l28.5,21.1l-3.2,8.5l-28.3-13.4c-1.7-7-3.4-14.1-5.1-21.2C925.3,442.5,927.2,441.8,929.3,441
		z"/>
	<path class="st41" d="M859.5,422.5l-8.2,8.3c0,0-4.2,12.3,2.5,45l8.2-1.6l3.1-32.3l5.2-5.5L859.5,422.5z"/>
	<g id="COU_3_">
		<path class="st41" d="M892.7,378.3l-5,17.3c0,0,8.1-2.3,19,3.6l2.5-13.1C909.4,386,898.4,372.1,892.7,378.3z"/>
	</g>
	<path class="st44" d="M922.5,371.2v0.2c-0.1,1.8-0.3,3.3-0.6,4.9c0,0.1-0.1,0.2-0.1,0.3c-0.4,1.7-1,3.2-1.5,4.5s-1.2,2.3-1.6,3.1
		c-0.8,1.3-2.1,2.2-3.5,2.6c-15.9,4.5-20.3-8.6-20.3-8.6c-0.5,0.4-1.7,1.2-3.2,1c-2.3-0.3-4-2.8-4.1-5c-0.2-2.9,2.3-5.9,5.2-6
		c2.4,0,4.1,1.9,4.2,2.3c-0.1-0.8-0.7-5,2-8.8c2.6-3.7,6.3-4.6,7.2-4.8l14,2.3c1.3,3.3,1.9,6.4,2.1,9.2v0.1c0,0.2,0,0.5,0.1,0.6
		c0,0.2,0,0.4,0,0.5C922.5,370,922.5,370.6,922.5,371.2z"/>
	<path class="st45" d="M918.9,378.1c-0.3,0.2-1.2,1-2.5,0.8c-1.4-0.2-2.3-1.5-2.4-1.8"/>
	<path class="st41" d="M905.3,371.2c1.5,0,2.8,1.2,2.8,2.8c0,1.5-1.3,2.8-2.8,2.8s-2.8-1.2-2.8-2.8
		C902.5,372.5,903.7,371.2,905.3,371.2z"/>
	<path class="st41" d="M922.5,371.2v0.2c-0.1,1.8-0.3,3.3-0.6,4.9c0,0.1-0.1,0.2-0.1,0.3c-0.1-0.1-0.3-0.2-0.4-0.2
		c-0.8-0.5-1.3-1.4-1.3-2.3c0-1.3,0.8-2.3,2-2.6C922.2,371.2,922.3,371.2,922.5,371.2z"/>
	<circle class="st43" cx="913.9" cy="368.9" r="0.6"/>
	<circle class="st43" cx="922.3" cy="368.8" r="0.6"/>
	<path class="st46" d="M914.6,362.5c0,0-3.2-1.6-5.2,1"/>
	<path class="st46" d="M918.8,362.2c0.7-0.5,1.4-0.6,2-0.6c0.1,0,0.3,0,0.4,0"/>
	<path class="st43" d="M898,356.6l1.1,4.9l21.2-2.4c-0.7-1.5-1.4-3.1-2.1-4.7C911.5,355.1,904.7,355.8,898,356.6z"/>
	<path class="st47" d="M904.1,398.4c0,0,15.3-2,31.3,41.9l-11.2,5.5L904.1,398.4z"/>
	<path class="st48" d="M890.5,368.7c-2.3-9,1.1-17.4,7-20.4c3.7-1.9,7.7-1.2,9.5-0.7c0,0-2.3,0-4.7,0.6c-2.1,0.6-4.5,3.1-5.8,5
		c-4.1,6.2-1.1,15-0.8,15.9c-0.3-0.3-1.4-1.2-3.1-1.1C891.7,368.1,890.8,368.5,890.5,368.7z"/>
	<path class="st43" d="M897,365.6c0.2,0.1,3,1.4,5.5,0.1c2.3-1.2,3.5-4,2.5-6.6c-1.7-0.6-3.3-1.4-5-2C899,360,898,362.8,897,365.6z"
		/>
	<path class="st49" d="M874.6,447.4l-7.1,40.3h64.2l-8.3-62c0,0-6.1-29.2-30.7-31.2L874.6,447.4z"/>
	<path class="st47" d="M852.8,420.6c0,0,29-36.7,45.7-23.1c16.7,13.6-15.9,49.8-15.9,49.8L852.8,420.6z"/>
	<path class="st41" d="M853.8,475.9l1.4,5.5v7.3c0,0,4,11.6,6.3,9.5c0,0,0.8,3.1,2.5,0.5c0,0,1.9,1.2,1.9-0.9l-1.2-9.3
		c0,0,2.3,4.5,3.1,2.9c0,0-1.4-8.5-3.8-10.3l-1.9-6.8L853.8,475.9z"/>
	<path class="st41" d="M956.5,477.8h3.2c0,0,7.1,6.8,16.9,5.3c0,0,1.3-0.6,0.4-1.1c0,0,2.6-0.4,2.1-1.2c-0.5-0.7-0.5-0.7-0.5-0.7
		s2.2-0.7,1.2-1.6c-1.1-0.9-8.3-4.7-8.3-4.7s6,0.7,4.6-1.1s-8.9-2.6-8.9-2.6h-5l-2.2-0.8"/>
</g>
<g>
	<g>
		<path class="st35" d="M1035.9,628.3c0,0,26.9-30.1,24.7-65.8c-0.3-4.6-1.3-9-2.7-13.4c-1.5-4.7-2.8-14.6,6.9-26.7
			c13.5-17,10.9-37.7-9.8-46.5c-12.9-5.5-30.2,9.7-35.3,23c-1.8,4.7-2,8.8-6.1,12.2c-5.4,4.4-10.2,1.6-16.4,4.3
			c-10.1,4.4-17.7,18.7-15.4,28.8c3.4,14.8,3.8,26.1-3.4,30.5c-7.1,4.4-12,14.4-9.8,21.3L1035.9,628.3z"/>
		<path class="st36" d="M1047.6,498.4c0,0-32.4,46.7-37.2,98.3"/>
	</g>
	<g>
		<path class="st4" d="M1019.7,615.8c0,0,35.2-47.5,66.8-37.3c9.1,2.9,15.6,10.8,17.3,20.2c2.7,14.4-1.6,36.4-53.3,33.6
			L1019.7,615.8z"/>
		<path class="st36" d="M1091,594.3c0,0-28.5,0.8-48.7,28.6"/>
	</g>
	<g>
		<path class="st4" d="M981.2,588.1c0,0-35.2-47.5-66.8-37.3c-9.1,2.9-15.6,10.8-17.3,20.2c-2.7,14.4,1.6,36.4,53.3,33.6
			L981.2,588.1z"/>
		<path class="st36" d="M909.9,566.6c0,0,28.5,0.8,48.7,28.6"/>
	</g>
	<path class="st13" d="M864,700c1.9-6.2,6.2-21.1,11.5-24.9c-13.7-4.2-23.7-16.4-23.7-30.8c0-17.9,15.3-32.3,34.1-32.3
		c5.2,0,10.2,1.1,14.6,3.1c1.3-16.8,16-30,34-30c5.7,0,11,1.3,15.7,3.6c5.7-7.4,15.8-12.3,27.4-12.3c10.2,0,19.2,3.8,25.1,9.8
		c4.8-2.7,10.4-4.3,16.4-4.3c17.6,0,31.9,13.6,31.9,30.3c0,2.8-0.4,5.5-1.2,8.1c4.8-2,10-3.1,15.6-3.1c21.6,0,38.9,16.4,38.9,36.6
		s-17,46.2-38.3,46.2c-1.2,0-2.8,0.1-4,0h-98"/>
</g>
</svg>
