<svg width="163" height="41" viewBox="0 0 163 41" fill="none" xmlns="http://www.w3.org/2000/svg">
<path d="M150.403 40.4766H12.0322C5.41449 40.4766 0 35.0625 0 28.4453V12.0312C0 5.41406 5.41449 0 12.0322 0H150.403C157.02 0 162.435 5.41406 162.435 12.0312V28.4453C162.435 35.0625 157.02 40.4766 150.403 40.4766Z" fill="#E3572C"/>
<path d="M25.7227 11.2422C25.7747 11.2422 25.8854 11.2422 26.0547 11.2422C26.224 11.2422 26.3932 11.2617 26.5625 11.3008C26.7448 11.3268 26.9076 11.3789 27.0508 11.457C27.207 11.5352 27.3047 11.6523 27.3438 11.8086C27.8125 11.6523 28.4635 11.5417 29.2969 11.4766C30.1432 11.4115 31.0547 11.4245 32.0312 11.5156C33.0208 11.5938 34.0169 11.763 35.0195 12.0234C36.0352 12.2839 36.9531 12.6549 37.7734 13.1367C38.6068 13.6185 39.2839 14.2305 39.8047 14.9727C40.3255 15.7148 40.5859 16.6133 40.5859 17.668C40.5859 18.4362 40.4167 19.1849 40.0781 19.9141C39.7526 20.6302 39.3099 21.3203 38.75 21.9844C38.2031 22.6354 37.5586 23.2539 36.8164 23.8398C36.0742 24.4128 35.2995 24.9401 34.4922 25.4219C33.6849 25.8906 32.8581 26.3008 32.0117 26.6523C31.1784 27.0039 30.3776 27.2839 29.6094 27.4922C28.8411 27.6875 28.138 27.8047 27.5 27.8438C26.862 27.8828 26.3411 27.8242 25.9375 27.668L25.7227 11.2422ZM38.9453 17.8633C38.8542 17.069 38.5807 16.3789 38.125 15.793C37.6823 15.207 37.1224 14.7188 36.4453 14.3281C35.7812 13.9375 35.0456 13.638 34.2383 13.4297C33.431 13.2083 32.6302 13.0651 31.8359 13C31.0417 12.9349 30.2865 12.9414 29.5703 13.0195C28.8542 13.0977 28.2552 13.2344 27.7734 13.4297L27.9883 26.2617C28.5221 26.2617 29.1602 26.151 29.9023 25.9297C30.6576 25.7083 31.4388 25.4023 32.2461 25.0117C33.0664 24.6211 33.8737 24.1589 34.668 23.625C35.4753 23.0781 36.1914 22.4987 36.8164 21.8867C37.4544 21.2617 37.9688 20.6107 38.3594 19.9336C38.75 19.2435 38.9453 18.5534 38.9453 17.8633ZM41.7383 24.7969C41.6211 23.7422 41.7122 22.694 42.0117 21.6523C42.3112 20.5977 42.7734 19.6602 43.3984 18.8398C44.0365 18.0065 44.8047 17.3424 45.7031 16.8477C46.6016 16.3398 47.5911 16.099 48.6719 16.125C49.1146 16.112 49.6224 16.2096 50.1953 16.418C50.7682 16.6263 51.2956 16.9193 51.7773 17.2969C52.2591 17.6615 52.6432 18.0911 52.9297 18.5859C53.2292 19.0677 53.3268 19.582 53.2227 20.1289C53.2357 20.4023 53.099 20.6302 52.8125 20.8125C52.526 20.9818 52.1419 21.1185 51.6602 21.2227C51.1914 21.3268 50.638 21.4049 50 21.457C49.375 21.4961 48.7109 21.5286 48.0078 21.5547C47.3177 21.5807 46.6146 21.6068 45.8984 21.6328C45.1823 21.6458 44.5052 21.6784 43.8672 21.7305C43.5026 22.7331 43.3919 23.5599 43.5352 24.2109C43.6914 24.849 44.0104 25.3372 44.4922 25.6758C44.987 26.0143 45.5924 26.2161 46.3086 26.2812C47.0378 26.3333 47.793 26.2812 48.5742 26.125C49.3555 25.9688 50.1237 25.7214 50.8789 25.3828C51.6341 25.0312 52.2852 24.6146 52.832 24.1328C52.9102 24.1328 53.0078 24.1589 53.125 24.2109C53.2552 24.263 53.3789 24.3346 53.4961 24.4258C53.6133 24.5039 53.7109 24.5951 53.7891 24.6992C53.8802 24.7904 53.9258 24.875 53.9258 24.9531C53.6003 25.513 53.1055 26.0143 52.4414 26.457C51.7773 26.8997 51.0286 27.2578 50.1953 27.5312C49.362 27.8047 48.4896 27.974 47.5781 28.0391C46.6797 28.1042 45.8333 28.0391 45.0391 27.8438C44.2448 27.6484 43.5482 27.3034 42.9492 26.8086C42.3503 26.3138 41.9466 25.6432 41.7383 24.7969ZM51.0742 19.582C51.0091 19.0872 50.8138 18.7161 50.4883 18.4688C50.1628 18.2214 49.7786 18.0651 49.3359 18C48.8932 17.9219 48.4245 17.9284 47.9297 18.0195C47.4349 18.1107 46.9727 18.2474 46.543 18.4297C46.1263 18.612 45.7747 18.8268 45.4883 19.0742C45.2148 19.3216 45.0716 19.569 45.0586 19.8164L51.0742 19.582ZM48.5156 12.5508C48.6849 12.3424 48.8477 12.2057 49.0039 12.1406C49.1602 12.0755 49.2904 12.069 49.3945 12.1211C49.4987 12.1602 49.5833 12.2448 49.6484 12.375C49.7135 12.4922 49.7461 12.6224 49.7461 12.7656C49.707 12.9219 49.6549 13.0651 49.5898 13.1953C49.5378 13.3125 49.4401 13.4557 49.2969 13.625C49.1536 13.7943 48.9453 14.0026 48.6719 14.25C48.3984 14.4844 48.0404 14.7839 47.5977 15.1484L46.8359 14.4648L48.5156 12.5508ZM54.5508 24.1523C54.4857 23.4753 54.6419 22.7396 55.0195 21.9453C55.4102 21.138 55.931 20.3633 56.582 19.6211C57.2461 18.8659 58.0013 18.1953 58.8477 17.6094C59.707 17.0104 60.5729 16.5807 61.4453 16.3203C62.3307 16.0469 63.1771 15.9948 63.9844 16.1641C64.8047 16.3333 65.5143 16.8021 66.1133 17.5703C66.1133 17.7396 66.0677 17.8893 65.9766 18.0195C65.8984 18.1497 65.7943 18.2734 65.6641 18.3906C65.5469 18.5078 65.4167 18.612 65.2734 18.7031C65.1302 18.7943 65 18.8854 64.8828 18.9766C64.6615 18.5078 64.3685 18.1823 64.0039 18C63.6393 17.8177 63.2357 17.7461 62.793 17.7852C62.3503 17.8112 61.8815 17.9349 61.3867 18.1562C60.8919 18.3646 60.4036 18.638 59.9219 18.9766C59.4401 19.3021 58.9844 19.6732 58.5547 20.0898C58.125 20.4935 57.7474 20.9167 57.4219 21.3594C57.1094 21.7891 56.8685 22.2188 56.6992 22.6484C56.5299 23.0651 56.4648 23.4427 56.5039 23.7812C56.5039 24.3542 56.6146 24.8164 56.8359 25.168C57.0573 25.5195 57.3438 25.793 57.6953 25.9883C58.0599 26.1836 58.4701 26.3138 58.9258 26.3789C59.3945 26.444 59.8698 26.4766 60.3516 26.4766C61.3411 26.4505 62.2266 26.3333 63.0078 26.125C63.8021 25.9036 64.4857 25.6758 65.0586 25.4414C65.6315 25.194 66.1068 24.9792 66.4844 24.7969C66.862 24.6146 67.1354 24.543 67.3047 24.582C67.4089 24.582 67.513 24.5885 67.6172 24.6016C67.7344 24.6146 67.832 24.6536 67.9102 24.7188C68.0013 24.7708 68.0599 24.8555 68.0859 24.9727C68.125 25.0768 68.125 25.2266 68.0859 25.4219C68.0469 25.6693 67.8776 25.9102 67.5781 26.1445C67.2786 26.3659 66.8945 26.5742 66.4258 26.7695C65.957 26.9648 65.4362 27.1471 64.8633 27.3164C64.2904 27.4727 63.7174 27.6094 63.1445 27.7266C62.5716 27.8307 62.0247 27.9089 61.5039 27.9609C60.9961 28.013 60.5729 28.026 60.2344 28C59.6615 28 59.043 27.9349 58.3789 27.8047C57.7148 27.6745 57.0964 27.4596 56.5234 27.1602C55.9635 26.8607 55.4948 26.4701 55.1172 25.9883C54.7396 25.4935 54.5508 24.8815 54.5508 24.1523ZM68.9648 23.3711C68.9648 22.3034 69.1536 21.3398 69.5312 20.4805C69.9089 19.6081 70.4036 18.8594 71.0156 18.2344C71.6276 17.6094 72.3112 17.1146 73.0664 16.75C73.8216 16.3854 74.5833 16.1641 75.3516 16.0859C76.2109 15.9688 77.0182 16.0469 77.7734 16.3203C78.5286 16.5807 79.1797 16.9844 79.7266 17.5312C80.2734 18.0651 80.6966 18.7161 80.9961 19.4844C81.3086 20.2526 81.4453 21.0859 81.4062 21.9844C81.2891 23.0521 81.0091 23.9701 80.5664 24.7383C80.1237 25.4935 79.5573 26.1185 78.8672 26.6133C78.1901 27.0951 77.4023 27.4531 76.5039 27.6875C75.6185 27.9089 74.668 28.0195 73.6523 28.0195C72.1159 28.0195 70.9505 27.6615 70.1562 26.9453C69.362 26.2292 68.9648 25.0378 68.9648 23.3711ZM70.6445 23.957C70.6966 24.7383 70.9505 25.3307 71.4062 25.7344C71.875 26.125 72.4414 26.3594 73.1055 26.4375C73.7826 26.5156 74.5052 26.457 75.2734 26.2617C76.0547 26.0534 76.7773 25.7409 77.4414 25.3242C78.1055 24.8945 78.6654 24.3802 79.1211 23.7812C79.5768 23.1693 79.8177 22.4987 79.8438 21.7695C79.8568 21.431 79.8112 21.0404 79.707 20.5977C79.6029 20.1419 79.4076 19.7057 79.1211 19.2891C78.8477 18.8724 78.4635 18.5013 77.9688 18.1758C77.487 17.8503 76.8685 17.6419 76.1133 17.5508C75.8398 17.5638 75.5078 17.6159 75.1172 17.707C74.7266 17.7852 74.3164 17.9219 73.8867 18.1172C73.4701 18.3125 73.0534 18.5729 72.6367 18.8984C72.2331 19.224 71.875 19.6211 71.5625 20.0898C71.25 20.5586 71.0026 21.112 70.8203 21.75C70.651 22.388 70.5924 23.1237 70.6445 23.957ZM82.1289 24.7969C82.0768 24.4583 82.0443 24.0417 82.0312 23.5469C82.0182 23.0391 82.0247 22.5052 82.0508 21.9453C82.0898 21.3724 82.1419 20.793 82.207 20.207C82.2852 19.6081 82.3763 19.0547 82.4805 18.5469C82.5846 18.026 82.7018 17.5703 82.832 17.1797C82.9622 16.776 83.1055 16.4766 83.2617 16.2812C83.6654 16.0599 84.0039 16.0339 84.2773 16.2031C84.5508 16.3594 84.668 16.6263 84.6289 17.0039C84.5898 17.3424 84.4987 17.7852 84.3555 18.332C84.2122 18.8659 84.069 19.4714 83.9258 20.1484C83.7956 20.8255 83.6979 21.5482 83.6328 22.3164C83.5807 23.0716 83.6263 23.8333 83.7695 24.6016C83.8867 25.0703 84.1211 25.4349 84.4727 25.6953C84.8372 25.9427 85.2669 26.1055 85.7617 26.1836C86.2565 26.2487 86.7839 26.2422 87.3438 26.1641C87.9167 26.0729 88.4701 25.9297 89.0039 25.7344C89.5378 25.526 90.026 25.2786 90.4688 24.9922C90.9115 24.6927 91.2565 24.3737 91.5039 24.0352C91.5299 23.5534 91.5365 23.013 91.5234 22.4141C91.5234 21.8021 91.5104 21.1641 91.4844 20.5C91.4714 19.8359 91.4583 19.1523 91.4453 18.4492C91.4453 17.7461 91.4583 17.0495 91.4844 16.3594C91.7318 16.0599 92.0247 15.9427 92.3633 16.0078C92.7148 16.0599 92.9818 16.2227 93.1641 16.4961L93.7305 27.7461C93.6133 27.8633 93.4766 27.9674 93.3203 28.0586C93.1771 28.1497 93.0273 28.2083 92.8711 28.2344C92.7148 28.2734 92.5651 28.2669 92.4219 28.2148C92.2786 28.1758 92.1549 28.0781 92.0508 27.9219L91.7383 26.0664C91.5299 26.2487 91.1654 26.4766 90.6445 26.75C90.1237 27.0104 89.5247 27.2513 88.8477 27.4727C88.1836 27.681 87.4805 27.8372 86.7383 27.9414C85.9961 28.0326 85.306 28 84.668 27.8438C84.0299 27.6875 83.4766 27.375 83.0078 26.9062C82.5391 26.4245 82.2461 25.7214 82.1289 24.7969ZM94.5703 17.2773C94.5052 17.069 94.5182 16.8542 94.6094 16.6328C94.7005 16.4115 94.8242 16.2357 94.9805 16.1055C95.1497 15.9753 95.3255 15.9167 95.5078 15.9297C95.6901 15.9297 95.8398 16.0469 95.957 16.2812L100.547 25.168L104.824 16.1055C104.98 16.0273 105.143 16.0013 105.312 16.0273C105.495 16.0404 105.658 16.0924 105.801 16.1836C105.957 16.2747 106.081 16.3984 106.172 16.5547C106.263 16.7109 106.309 16.8737 106.309 17.043C105.605 18.5534 105 19.875 104.492 21.0078C103.997 22.1406 103.574 23.1172 103.223 23.9375C102.884 24.7448 102.591 25.4154 102.344 25.9492C102.109 26.4831 101.901 26.9062 101.719 27.2188C101.549 27.5182 101.38 27.7331 101.211 27.8633C101.055 27.9805 100.879 28.0391 100.684 28.0391C100.514 28.0391 100.299 27.8958 100.039 27.6094C99.7786 27.3099 99.4857 26.9062 99.1602 26.3984C98.8346 25.8776 98.4831 25.2721 98.1055 24.582C97.7409 23.8919 97.3568 23.1497 96.9531 22.3555C96.5625 21.5482 96.1654 20.7148 95.7617 19.8555C95.3581 18.9961 94.9609 18.1367 94.5703 17.2773ZM107.148 16.3789C107.174 16.1315 107.279 15.9818 107.461 15.9297C107.643 15.8646 107.839 15.8451 108.047 15.8711C108.385 15.9102 108.639 16.0859 108.809 16.3984C108.978 16.6979 109.095 17.0365 109.16 17.4141C109.225 17.7917 109.258 18.1628 109.258 18.5273C109.258 18.8789 109.264 19.1328 109.277 19.2891C109.642 18.9766 110.046 18.6185 110.488 18.2148C110.944 17.8112 111.491 17.4466 112.129 17.1211C112.78 16.7826 113.555 16.5286 114.453 16.3594C115.365 16.1771 116.458 16.1641 117.734 16.3203C118.047 16.3984 118.275 16.5482 118.418 16.7695C118.574 16.9909 118.652 17.2253 118.652 17.4727C118.665 17.707 118.6 17.9284 118.457 18.1367C118.327 18.332 118.138 18.4427 117.891 18.4688C117.578 18.2344 117.161 18.0977 116.641 18.0586C116.12 18.0195 115.547 18.0651 114.922 18.1953C114.31 18.3255 113.685 18.5339 113.047 18.8203C112.409 19.1068 111.816 19.4648 111.27 19.8945C110.736 20.3242 110.273 20.819 109.883 21.3789C109.505 21.9388 109.271 22.5508 109.18 23.2148V27.4922C109.154 27.5573 109.049 27.6549 108.867 27.7852C108.685 27.9023 108.477 27.987 108.242 28.0391C108.021 28.1042 107.793 28.1042 107.559 28.0391C107.337 27.974 107.168 27.7917 107.051 27.4922C107.051 27.401 107.051 27.1146 107.051 26.6328C107.051 26.138 107.051 25.5456 107.051 24.8555C107.064 24.1523 107.077 23.3906 107.09 22.5703C107.103 21.737 107.109 20.9232 107.109 20.1289C107.122 19.3346 107.129 18.6055 107.129 17.9414C107.142 17.2773 107.148 16.7565 107.148 16.3789ZM121.875 16.5352C121.992 18.1367 122.096 19.8424 122.188 21.6523C122.279 23.4492 122.357 25.2656 122.422 27.1016C122.357 27.362 122.22 27.5508 122.012 27.668C121.816 27.7852 121.602 27.8503 121.367 27.8633C121.133 27.8633 120.911 27.8242 120.703 27.7461C120.508 27.668 120.384 27.5638 120.332 27.4336V16.5352H121.875ZM119.609 13.2148C119.609 12.9154 119.694 12.7005 119.863 12.5703C120.033 12.4401 120.234 12.3685 120.469 12.3555C120.703 12.3294 120.938 12.349 121.172 12.4141C121.406 12.4792 121.576 12.5573 121.68 12.6484C121.797 13.0781 121.777 13.3906 121.621 13.5859C121.465 13.7812 121.257 13.8919 120.996 13.918C120.749 13.931 120.488 13.8724 120.215 13.7422C119.941 13.612 119.74 13.4362 119.609 13.2148ZM123.398 16.3789C123.424 16.1315 123.529 15.9818 123.711 15.9297C123.893 15.8646 124.089 15.8451 124.297 15.8711C124.635 15.9102 124.889 16.0859 125.059 16.3984C125.228 16.6979 125.345 17.0365 125.41 17.4141C125.475 17.7917 125.508 18.1628 125.508 18.5273C125.508 18.8789 125.514 19.1328 125.527 19.2891C125.892 18.9766 126.296 18.6185 126.738 18.2148C127.194 17.8112 127.741 17.4466 128.379 17.1211C129.03 16.7826 129.805 16.5286 130.703 16.3594C131.615 16.1771 132.708 16.1641 133.984 16.3203C134.297 16.3984 134.525 16.5482 134.668 16.7695C134.824 16.9909 134.902 17.2253 134.902 17.4727C134.915 17.707 134.85 17.9284 134.707 18.1367C134.577 18.332 134.388 18.4427 134.141 18.4688C133.828 18.2344 133.411 18.0977 132.891 18.0586C132.37 18.0195 131.797 18.0651 131.172 18.1953C130.56 18.3255 129.935 18.5339 129.297 18.8203C128.659 19.1068 128.066 19.4648 127.52 19.8945C126.986 20.3242 126.523 20.819 126.133 21.3789C125.755 21.9388 125.521 22.5508 125.43 23.2148V27.4922C125.404 27.5573 125.299 27.6549 125.117 27.7852C124.935 27.9023 124.727 27.987 124.492 28.0391C124.271 28.1042 124.043 28.1042 123.809 28.0391C123.587 27.974 123.418 27.7917 123.301 27.4922C123.301 27.401 123.301 27.1146 123.301 26.6328C123.301 26.138 123.301 25.5456 123.301 24.8555C123.314 24.1523 123.327 23.3906 123.34 22.5703C123.353 21.737 123.359 20.9232 123.359 20.1289C123.372 19.3346 123.379 18.6055 123.379 17.9414C123.392 17.2773 123.398 16.7565 123.398 16.3789Z" fill="white"/>
</svg>
