<svg width="249" height="94" viewBox="0 0 249 94" fill="none" xmlns="http://www.w3.org/2000/svg">
<path d="M115.841 27.6713H104.681L102.371 32.9213H99.2806L108.791 11.9213H111.761L121.301 32.9213H118.151L115.841 27.6713ZM114.791 25.2713L110.261 14.9813L105.731 25.2713H114.791ZM141.56 11.9213L132.35 32.9213H129.38L120.14 11.9213H123.38L130.94 29.1713L138.56 11.9213H141.56ZM153.484 33.1613C151.364 33.1613 149.454 32.7013 147.754 31.7813C146.054 30.8413 144.714 29.5513 143.734 27.9113C142.774 26.2713 142.294 24.4413 142.294 22.4213C142.294 20.4013 142.774 18.5713 143.734 16.9313C144.714 15.2913 146.054 14.0113 147.754 13.0913C149.454 12.1513 151.364 11.6813 153.484 11.6813C155.584 11.6813 157.484 12.1513 159.184 13.0913C160.884 14.0113 162.214 15.2913 163.174 16.9313C164.134 18.5513 164.614 20.3813 164.614 22.4213C164.614 24.4613 164.134 26.3013 163.174 27.9413C162.214 29.5613 160.884 30.8413 159.184 31.7813C157.484 32.7013 155.584 33.1613 153.484 33.1613ZM153.484 30.4913C155.024 30.4913 156.404 30.1413 157.624 29.4413C158.864 28.7413 159.834 27.7813 160.534 26.5613C161.254 25.3213 161.614 23.9413 161.614 22.4213C161.614 20.9013 161.254 19.5313 160.534 18.3113C159.834 17.0713 158.864 16.1013 157.624 15.4013C156.404 14.7013 155.024 14.3513 153.484 14.3513C151.944 14.3513 150.544 14.7013 149.284 15.4013C148.044 16.1013 147.064 17.0713 146.344 18.3113C145.644 19.5313 145.294 20.9013 145.294 22.4213C145.294 23.9413 145.644 25.3213 146.344 26.5613C147.064 27.7813 148.044 28.7413 149.284 29.4413C150.544 30.1413 151.944 30.4913 153.484 30.4913ZM169.199 11.9213H172.199V32.9213H169.199V11.9213ZM184.606 33.1613C183.026 33.1613 181.496 32.9213 180.016 32.4413C178.556 31.9413 177.406 31.3013 176.566 30.5213L177.676 28.1813C178.476 28.9013 179.496 29.4913 180.736 29.9513C181.996 30.3913 183.286 30.6113 184.606 30.6113C186.346 30.6113 187.646 30.3213 188.506 29.7413C189.366 29.1413 189.796 28.3513 189.796 27.3713C189.796 26.6513 189.556 26.0713 189.076 25.6313C188.616 25.1713 188.036 24.8213 187.336 24.5813C186.656 24.3413 185.686 24.0713 184.426 23.7713C182.846 23.3913 181.566 23.0113 180.586 22.6313C179.626 22.2513 178.796 21.6713 178.096 20.8913C177.416 20.0913 177.076 19.0213 177.076 17.6813C177.076 16.5613 177.366 15.5513 177.946 14.6513C178.546 13.7513 179.446 13.0313 180.646 12.4913C181.846 11.9513 183.336 11.6813 185.116 11.6813C186.356 11.6813 187.576 11.8413 188.776 12.1613C189.976 12.4813 191.006 12.9413 191.866 13.5413L190.876 15.9413C189.996 15.3813 189.056 14.9613 188.056 14.6813C187.056 14.3813 186.076 14.2313 185.116 14.2313C183.416 14.2313 182.136 14.5413 181.276 15.1613C180.436 15.7813 180.016 16.5813 180.016 17.5613C180.016 18.2813 180.256 18.8713 180.736 19.3313C181.216 19.7713 181.806 20.1213 182.506 20.3813C183.226 20.6213 184.196 20.8813 185.416 21.1613C186.996 21.5413 188.266 21.9213 189.226 22.3013C190.186 22.6813 191.006 23.2613 191.686 24.0413C192.386 24.8213 192.736 25.8713 192.736 27.1913C192.736 28.2913 192.436 29.3013 191.836 30.2213C191.236 31.1213 190.326 31.8413 189.106 32.3813C187.886 32.9013 186.386 33.1613 184.606 33.1613ZM197.119 11.9213H200.119V32.9213H197.119V11.9213ZM206.706 10.4813C207.266 10.4813 207.726 10.6813 208.086 11.0813C208.466 11.4613 208.656 11.9413 208.656 12.5213C208.656 12.8213 208.626 13.1213 208.566 13.4213C208.506 13.7013 208.376 14.1113 208.176 14.6513L206.736 18.8513H204.846L205.956 14.3813C205.576 14.2413 205.266 14.0113 205.026 13.6913C204.806 13.3513 204.696 12.9613 204.696 12.5213C204.696 11.9213 204.886 11.4313 205.266 11.0513C205.646 10.6713 206.126 10.4813 206.706 10.4813Z" fill="#EEAD1E"/>
<path d="M101.386 67.005C100.606 66.555 100.201 66.09 100.171 65.61C100.141 65.37 100.531 63.735 101.341 60.705C101.581 59.865 101.851 58.83 102.151 57.6C103.351 52.95 104.776 48.48 106.426 44.19C106.756 43.29 107.011 42.6 107.191 42.12C107.401 41.61 107.611 41.085 107.821 40.545C108.241 39.525 108.721 38.94 109.261 38.79C109.441 38.73 109.591 38.67 109.711 38.61C110.251 38.37 111.031 38.385 112.051 38.655C113.071 38.895 113.911 39.3 114.571 39.87C115.021 40.26 115.276 40.635 115.336 40.995C115.366 41.115 115.396 41.55 115.426 42.3C115.516 44.46 115.771 46.71 116.191 49.05C116.581 51.15 117.106 53.295 117.766 55.485L118.261 56.925C118.261 56.895 118.351 56.55 118.531 55.89C119.281 53.22 119.926 51.15 120.466 49.68C121.516 46.77 123.241 42.975 125.641 38.295C125.881 37.845 126.061 37.575 126.181 37.485C126.301 37.365 126.526 37.29 126.856 37.26C127.186 37.23 127.486 37.245 127.756 37.305C128.896 37.545 129.931 38.07 130.861 38.88C131.251 39.24 131.506 39.6 131.626 39.96C131.776 40.32 131.761 40.635 131.581 40.905C131.221 41.415 130.381 43.11 129.061 45.99C128.221 47.79 127.411 49.65 126.631 51.57C126.091 52.89 125.656 53.925 125.326 54.675C123.976 57.855 122.926 60.78 122.176 63.45C121.876 64.5 121.726 65.07 121.726 65.16C121.756 65.22 121.891 65.355 122.131 65.565C122.461 65.895 122.641 66.165 122.671 66.375C122.731 67.005 122.086 67.395 120.736 67.545C120.316 67.575 120.001 67.59 119.791 67.59C119.161 67.56 118.576 67.47 118.036 67.32C116.986 66.99 116.191 66.42 115.651 65.61C115.051 64.71 114.376 63.36 113.626 61.56C112.876 59.76 112.276 58.05 111.826 56.43C111.346 54.75 110.986 53.265 110.746 51.975C110.686 51.765 110.656 51.645 110.656 51.615L110.026 53.46C109.396 55.47 108.796 57.615 108.226 59.895C107.926 61.095 107.656 62.145 107.416 63.045C107.176 63.915 106.936 64.83 106.696 65.79C106.456 66.75 106.306 67.29 106.246 67.41C105.946 67.8 105.271 67.95 104.221 67.86C103.201 67.77 102.256 67.485 101.386 67.005ZM124.068 64.845C123.948 64.485 123.978 64.14 124.158 63.81C124.638 62.85 126.093 60.36 128.523 56.34C129.183 55.29 129.828 54.27 130.458 53.28C131.208 52.11 132.198 50.715 133.428 49.095C134.688 47.445 136.053 45.735 137.523 43.965C138.993 42.195 140.433 40.545 141.843 39.015C142.293 38.475 142.578 38.16 142.698 38.07C142.848 37.98 143.073 37.95 143.373 37.98C143.613 38.01 143.958 38.115 144.408 38.295C144.558 38.385 144.753 38.445 144.993 38.475C146.193 38.655 147.333 39.27 148.413 40.32C148.923 40.86 149.238 41.355 149.358 41.805L149.448 42.12L149.268 43.11C148.578 46.14 148.098 48.78 147.828 51.03C147.228 55.59 146.958 60 147.018 64.26V66.24L147.198 66.555C147.318 66.765 147.378 66.99 147.378 67.23C147.378 67.83 147.123 68.205 146.613 68.355C146.283 68.445 145.833 68.43 145.263 68.31C144.063 68.07 142.998 67.5 142.068 66.6C141.528 66.09 141.198 65.565 141.078 65.025C140.958 64.485 140.898 63.225 140.898 61.245C140.898 59.715 140.883 58.95 140.853 58.95C140.583 58.95 139.743 59.1 138.333 59.4C136.953 59.7 135.618 60.045 134.328 60.435L133.878 60.57L133.383 61.38C131.043 65.31 129.843 67.395 129.783 67.635C129.663 68.055 129.318 68.265 128.748 68.265C127.938 68.265 127.023 67.89 126.003 67.14C124.953 66.39 124.308 65.625 124.068 64.845ZM141.528 49.815C141.498 49.815 141.108 50.295 140.358 51.255C139.608 52.215 138.858 53.19 138.108 54.18C137.358 55.17 136.983 55.695 136.983 55.755C136.983 55.755 137.058 55.74 137.208 55.71C137.358 55.68 137.838 55.545 138.648 55.305C139.458 55.125 140.058 55.005 140.448 54.945C140.838 54.885 141.048 54.855 141.078 54.855C141.108 54.825 141.153 54.315 141.213 53.325C141.303 52.335 141.378 51.51 141.438 50.85C141.498 50.19 141.528 49.845 141.528 49.815ZM149.946 67.005C149.166 66.555 148.761 66.09 148.731 65.61C148.701 65.37 149.091 63.735 149.901 60.705C150.141 59.865 150.411 58.83 150.711 57.6C151.911 52.95 153.336 48.48 154.986 44.19C155.316 43.29 155.571 42.6 155.751 42.12C155.961 41.61 156.171 41.085 156.381 40.545C156.801 39.525 157.281 38.94 157.821 38.79C158.001 38.73 158.151 38.67 158.271 38.61C158.811 38.37 159.591 38.385 160.611 38.655C161.631 38.895 162.471 39.3 163.131 39.87C163.581 40.26 163.836 40.635 163.896 40.995C163.926 41.115 163.956 41.55 163.986 42.3C164.076 44.46 164.331 46.71 164.751 49.05C165.141 51.15 165.666 53.295 166.326 55.485L166.821 56.925C166.821 56.895 166.911 56.55 167.091 55.89C167.841 53.22 168.486 51.15 169.026 49.68C170.076 46.77 171.801 42.975 174.201 38.295C174.441 37.845 174.621 37.575 174.741 37.485C174.861 37.365 175.086 37.29 175.416 37.26C175.746 37.23 176.046 37.245 176.316 37.305C177.456 37.545 178.491 38.07 179.421 38.88C179.811 39.24 180.066 39.6 180.186 39.96C180.336 40.32 180.321 40.635 180.141 40.905C179.781 41.415 178.941 43.11 177.621 45.99C176.781 47.79 175.971 49.65 175.191 51.57C174.651 52.89 174.216 53.925 173.886 54.675C172.536 57.855 171.486 60.78 170.736 63.45C170.436 64.5 170.286 65.07 170.286 65.16C170.316 65.22 170.451 65.355 170.691 65.565C171.021 65.895 171.201 66.165 171.231 66.375C171.291 67.005 170.646 67.395 169.296 67.545C168.876 67.575 168.561 67.59 168.351 67.59C167.721 67.56 167.136 67.47 166.596 67.32C165.546 66.99 164.751 66.42 164.211 65.61C163.611 64.71 162.936 63.36 162.186 61.56C161.436 59.76 160.836 58.05 160.386 56.43C159.906 54.75 159.546 53.265 159.306 51.975C159.246 51.765 159.216 51.645 159.216 51.615L158.586 53.46C157.956 55.47 157.356 57.615 156.786 59.895C156.486 61.095 156.216 62.145 155.976 63.045C155.736 63.915 155.496 64.83 155.256 65.79C155.016 66.75 154.866 67.29 154.806 67.41C154.506 67.8 153.831 67.95 152.781 67.86C151.761 67.77 150.816 67.485 149.946 67.005ZM179.602 42.885C179.302 42.105 179.122 41.4 179.062 40.77C179.032 40.26 179.077 39.9 179.197 39.69C179.317 39.45 179.587 39.195 180.007 38.925C181.807 37.815 185.212 36.66 190.222 35.46C192.382 34.92 194.842 34.38 197.602 33.84C200.392 33.27 202.267 32.925 203.227 32.805C203.617 32.775 204.112 32.76 204.712 32.76C205.312 32.73 205.657 32.73 205.747 32.76C206.227 32.94 206.677 33.54 207.097 34.56C207.637 35.91 207.847 37.185 207.727 38.385C207.667 38.985 207.547 39.405 207.367 39.645C207.247 39.795 207.097 39.9 206.917 39.96C206.767 39.99 206.392 40.02 205.792 40.05C204.442 40.08 201.562 40.56 197.152 41.49C196.702 41.58 196.432 41.64 196.342 41.67C196.282 41.7 196.252 41.76 196.252 41.85C196.222 41.97 196.132 42.21 195.982 42.57C194.212 46.23 192.517 50.595 190.897 55.665C190.597 56.595 190.252 57.615 189.862 58.725C189.082 61.035 188.512 62.85 188.152 64.17C187.582 66.06 187.252 67.125 187.162 67.365C187.012 67.725 186.652 67.905 186.082 67.905C185.782 67.905 185.572 67.89 185.452 67.86C184.612 67.59 183.817 67.155 183.067 66.555C182.317 65.925 181.822 65.28 181.582 64.62C181.492 64.32 181.507 63.975 181.627 63.585C181.717 63.345 181.957 62.535 182.347 61.155C182.887 59.385 183.547 57.33 184.327 54.99C185.797 50.61 187.057 47.13 188.107 44.55C188.377 43.86 188.512 43.515 188.512 43.515C188.452 43.425 187.492 43.71 185.632 44.37C184.762 44.67 183.952 45.03 183.202 45.45C182.692 45.78 182.347 45.93 182.167 45.9C181.897 45.87 181.597 45.72 181.267 45.45C180.967 45.18 180.667 44.82 180.367 44.37C180.097 43.92 179.842 43.425 179.602 42.885ZM199.876 67.59C199.306 67.38 198.766 67.095 198.256 66.735C197.746 66.345 197.401 65.985 197.221 65.655C197.071 65.355 197.131 64.905 197.401 64.305C197.761 63.435 198.151 62.4 198.571 61.2C199.801 57.75 201.331 53.925 203.161 49.725C204.361 47.025 205.201 45.21 205.681 44.28C205.741 44.16 205.771 44.085 205.771 44.055C205.741 44.025 205.396 44.085 204.736 44.235C204.346 44.325 203.986 44.205 203.656 43.875C203.296 43.485 203.026 43.005 202.846 42.435C202.696 41.865 202.696 41.43 202.846 41.13C203.086 40.59 204.241 40.065 206.311 39.555C206.941 39.405 207.436 39.3 207.796 39.24C208.066 39.18 208.231 39.12 208.291 39.06C208.351 39 208.486 38.805 208.696 38.475C208.876 38.145 209.221 37.995 209.731 38.025C210.121 38.055 210.556 38.175 211.036 38.385C211.216 38.505 211.366 38.565 211.486 38.565C211.606 38.535 212.086 38.46 212.926 38.34C214.936 38.07 217.081 37.875 219.361 37.755C219.991 37.725 220.681 37.725 221.431 37.755C222.421 37.845 223.066 37.935 223.366 38.025C223.696 38.085 223.981 38.235 224.221 38.475C224.701 39.015 224.986 39.825 225.076 40.905C225.196 41.955 225.046 42.63 224.626 42.93C224.416 43.08 223.651 43.2 222.331 43.29C221.671 43.35 220.786 43.365 219.676 43.335C218.836 43.305 217.666 43.305 216.166 43.335C214.666 43.335 213.841 43.35 213.691 43.38C213.601 43.41 213.286 43.95 212.746 45C211.276 47.88 210.586 49.365 210.676 49.455C210.676 49.455 210.976 49.38 211.576 49.23C212.776 48.93 213.976 48.78 215.176 48.78C216.016 48.78 216.541 48.81 216.751 48.87C216.961 48.9 217.186 49.035 217.426 49.275C217.756 49.635 218.026 50.1 218.236 50.67C218.476 51.21 218.596 51.75 218.596 52.29C218.596 52.83 218.491 53.19 218.281 53.37C218.191 53.43 217.936 53.52 217.516 53.64C217.126 53.73 216.766 53.82 216.436 53.91C215.716 54.12 214.606 54.3 213.106 54.45C210.976 54.69 209.551 54.855 208.831 54.945L208.201 55.035L207.616 56.43C207.286 57.24 206.836 58.395 206.266 59.895C205.696 61.365 205.411 62.115 205.411 62.145C205.441 62.145 205.816 62.07 206.536 61.92C209.206 61.35 211.786 60.915 214.276 60.615C215.776 60.435 217.006 60.375 217.966 60.435C218.626 60.495 219.181 60.585 219.631 60.705C219.991 60.825 220.261 60.915 220.441 60.975C221.041 61.095 221.476 61.455 221.746 62.055C222.046 62.685 222.196 63.39 222.196 64.17C222.226 64.92 222.091 65.49 221.791 65.88C221.641 66.09 221.326 66.225 220.846 66.285C220.606 66.315 220.366 66.375 220.126 66.465C219.886 66.525 219.526 66.57 219.046 66.6C218.566 66.63 218.056 66.675 217.516 66.735C216.946 66.765 216.091 66.825 214.951 66.915C208.771 67.275 204.541 67.755 202.261 68.355C201.691 68.505 201.286 68.52 201.046 68.4C200.896 68.34 200.716 68.22 200.506 68.04C200.326 67.83 200.116 67.68 199.876 67.59ZM229.368 67.95C227.448 67.32 225.888 66.225 224.688 64.665C223.758 63.465 223.563 62.565 224.103 61.965C224.493 61.515 225.183 61.425 226.173 61.695C226.563 61.815 226.968 61.995 227.388 62.235C227.838 62.445 228.243 62.7 228.603 63C228.993 63.3 229.293 63.585 229.503 63.855L229.683 64.17L229.998 64.08C231.438 63.87 232.878 63.375 234.318 62.595C234.798 62.355 235.248 62.01 235.668 61.56C236.088 61.08 236.358 60.645 236.478 60.255C236.538 60.075 236.553 59.985 236.523 59.985C236.493 59.955 235.983 59.82 234.993 59.58C233.523 59.19 232.413 58.83 231.663 58.5C229.233 57.42 227.388 55.95 226.128 54.09C225.108 52.65 224.823 51.12 225.273 49.5C225.603 48.24 226.323 46.86 227.433 45.36C228.093 44.46 228.858 43.575 229.728 42.705C231.378 41.145 233.103 39.855 234.903 38.835C235.773 38.355 236.673 37.965 237.603 37.665C238.563 37.335 239.448 37.14 240.258 37.08C241.098 36.99 241.863 37.005 242.553 37.125C243.813 37.425 245.028 38.145 246.198 39.285C247.878 40.875 248.523 42.525 248.133 44.235C247.953 44.985 247.533 46.185 246.873 47.835C246.333 49.095 245.718 50.325 245.028 51.525C244.488 52.425 244.188 52.95 244.128 53.1C244.008 53.4 243.813 53.58 243.543 53.64C243.303 53.67 243.003 53.625 242.643 53.505C242.313 53.385 241.968 53.205 241.608 52.965C241.248 52.695 240.948 52.41 240.708 52.11C240.378 51.69 240.123 51.225 239.943 50.715C239.733 49.995 239.748 49.065 239.988 47.925C240.168 47.145 240.498 46.275 240.978 45.315C241.188 44.835 241.398 44.385 241.608 43.965C241.818 43.515 241.968 43.155 242.058 42.885C242.178 42.585 242.238 42.435 242.238 42.435C242.208 42.465 241.983 42.54 241.563 42.66C240.063 43.2 238.473 44.1 236.793 45.36C235.383 46.44 234.198 47.535 233.238 48.645C232.278 49.785 231.558 50.895 231.078 51.975C230.688 52.845 230.508 53.55 230.538 54.09L230.583 54.495L230.988 54.63C231.288 54.75 231.948 54.945 232.968 55.215C234.588 55.605 235.758 55.965 236.478 56.295C237.198 56.625 237.888 57.045 238.548 57.555C239.238 58.035 239.838 58.575 240.348 59.175C240.888 59.745 241.293 60.315 241.563 60.885C241.863 61.485 242.028 62.07 242.058 62.64C242.088 63.06 242.058 63.405 241.968 63.675C241.818 64.245 241.473 64.83 240.933 65.43C240.513 65.94 240.093 66.33 239.673 66.6C239.283 66.84 238.713 67.11 237.963 67.41C237.063 67.77 236.283 68.04 235.623 68.22C235.293 68.28 235.083 68.325 234.993 68.355C234.453 68.475 233.658 68.52 232.608 68.49C231.498 68.46 230.418 68.28 229.368 67.95Z" fill="#EEAD1E"/>
<path d="M46.6 90.2C70.6796 90.2 90.2 70.6796 90.2 46.6C90.2 22.5204 70.6796 3 46.6 3C22.5204 3 3 22.5204 3 46.6C3 70.6796 22.5204 90.2 46.6 90.2Z" fill="#EEAD1E"/>
<path opacity="0.7" d="M18.3 51.2L56 68.7L47.9 88.5999" stroke="white" stroke-miterlimit="10"/>
<path d="M35.5 59.2L44.8 63.5C46.5 64.3 48.4 63.4 49 61.7L52.4 51.4C52.9 50 54.2 49.1 55.6 49.1H68C69.6 49.1 71 47.8 71 46.1V41.4" stroke="white" stroke-width="4" stroke-miterlimit="10"/>
<path d="M10.9 71.6C10.9 71.6 13 49.8 19.1 44.5C25.2 39.2 12 22.5 12 22.5" stroke="white" stroke-width="6" stroke-miterlimit="10"/>
<path d="M32.1 61.2C34.1987 61.2 35.9 59.4986 35.9 57.4C35.9 55.3013 34.1987 53.6 32.1 53.6C30.0013 53.6 28.3 55.3013 28.3 57.4C28.3 59.4986 30.0013 61.2 32.1 61.2Z" fill="#E08E2B" stroke="white" stroke-width="3" stroke-miterlimit="10"/>
<path d="M70.9 42.2999C72.9987 42.2999 74.7 40.5986 74.7 38.4999C74.7 36.4013 72.9987 34.7 70.9 34.7C68.8013 34.7 67.1 36.4013 67.1 38.4999C67.1 40.5986 68.8013 42.2999 70.9 42.2999Z" fill="#E08E2B" stroke="white" stroke-width="3" stroke-miterlimit="10"/>
<path opacity="0.7" d="M62.1 5.79993L45.7 16.7999L37.2 5.19995" stroke="white" stroke-width="3" stroke-miterlimit="10"/>
<path opacity="0.7" d="M3.20001 42.9001C3.20001 42.9001 14.7 40.7001 26.9 45.0001C26.9 45.0001 60.8 57.2 90.1 42.3" stroke="white" stroke-width="3" stroke-miterlimit="10"/>
<path opacity="0.7" d="M70.8 48.9L72 80.3" stroke="white" stroke-miterlimit="10"/>
<path opacity="0.7" d="M71.8 61.5L85.8 61" stroke="white" stroke-miterlimit="10"/>
<path opacity="0.7" d="M25.7 9.90002C25.7 9.90002 31.6 21.5 41.8 23.9C52 26.3 67.9 36.3 67.9 36.3" stroke="white" stroke-width="3" stroke-miterlimit="10"/>
<path d="M46.6 90.2C70.6796 90.2 90.2 70.6796 90.2 46.6C90.2 22.5204 70.6796 3 46.6 3C22.5204 3 3 22.5204 3 46.6C3 70.6796 22.5204 90.2 46.6 90.2Z" stroke="#E08E2C" stroke-width="6" stroke-miterlimit="10"/>
</svg>
