<svg id="Calque_1" data-name="Calque 1" xmlns="http://www.w3.org/2000/svg" viewBox="0 0 109.84 105.84"><defs><style>.cls-1{fill:#f7ebe7;}.cls-2{fill:#bee2ed;}.cls-3,.cls-4{fill:none;stroke:#000;stroke-miterlimit:10;stroke-width:3px;}.cls-4{stroke-linecap:round;}</style></defs><path class="cls-1" d="M32.81,34.61a22.52,22.52,0,0,1,13.53,8.32C50.29,48.06,60.48,59,76.27,67.42c8.42,4.49,15.54,3.51,20.92.57,9.79-5,14.54-16.3,12.14-27-2.57-10.32-9.61-23.89-29.57-33.73C50.55-7.06,31.35,6,24.88,11.66,16,17.67,17.79,32.6,32.81,34.61Z" transform="translate(-0.11 -0.77)"/><path class="cls-2" d="M34.75,44.08C27.22,38.43,18,40,13.47,42.43c-2.31,1.26-23,10.13-7.91,41.2,7.13,12.52,20.72,23.54,41.68,22.83a54.48,54.48,0,0,0,14.84-1c10.79-2.12,29.67-7.9,32.94-22.15V83h0c-.58-2.69-3.27-4.43-6.36-4.24-5.2.2-21-.57-39.88-18.68l-2.11-2.5C38.52,45,34.75,44.08,34.75,44.08Z" transform="translate(-0.11 -0.77)"/><path class="cls-3" d="M24.78,41.25H15a5.3,5.3,0,0,0-5.3,5.3V64a5.25,5.25,0,0,0,5.24,5.24h9.44a12.81,12.81,0,0,1,6.2,1.6L50.81,85a3.27,3.27,0,0,0,4.86-2.86v-52a3.45,3.45,0,0,0-5-3L30.17,39.94A11.72,11.72,0,0,1,24.78,41.25Z" transform="translate(-0.11 -0.77)"/><path class="cls-4" d="M82.43,22.21s27.86,29.81,0,67.92" transform="translate(-0.11 -0.77)"/><path class="cls-4" d="M72.22,32s19.81,21.2,0,48.3" transform="translate(-0.11 -0.77)"/><path class="cls-4" d="M65,44.81S74,55,65,67.53" transform="translate(-0.11 -0.77)"/></svg>