<svg width="181" height="105" viewBox="0 0 181 105" fill="none" xmlns="http://www.w3.org/2000/svg">
<path d="M152.87 19.4158C135.943 12.4083 92.5099 -1.03335 54.1863 1.26001C36.1976 2.33649 22.1267 8.3985 12.9884 17.6245C-2.20889 32.9677 -3.76446 57.0614 12.9884 81.5277C19.1046 90.46 27.7109 96.3128 37.8989 99.7994C72.3969 111.606 125.031 96.2819 160.534 81.5277C168.75 78.1135 173.806 73.8414 176.505 69.1054C185.891 52.6334 166.76 30.5484 152.87 19.4158Z" fill="#0574CF" stroke="white" stroke-width="2"/>
<path d="M52.7742 60.16C52.6142 61.8 52.2942 65 50.0942 65C47.1742 65 46.9742 56.6 46.9742 54.52C46.9742 52.36 47.1342 50.2 47.1342 48.04C47.1342 46.2 47.0142 44.36 47.0142 42.48C47.0142 40.76 47.1742 34.2 49.6542 34.2C52.0142 34.2 52.4542 38.84 52.6142 40.52C53.1742 40.36 53.7742 40.16 54.3742 40.08C54.6942 40 55.2942 40.08 55.2942 39.56C55.2942 39.32 55.1742 39.04 55.0542 38.84C55.0142 37.96 54.7342 37.12 54.4542 36.24C53.7342 33.96 52.4142 30.44 49.5342 30.44C47.4142 30.44 45.9342 32.4 45.2142 34.2C43.8542 37.68 44.2142 42.16 44.2142 45.88C44.2142 48.08 44.1342 50.32 44.1342 52.56C44.1342 54.16 44.1742 55.8 44.2942 57.4C44.5742 61.04 44.8542 68.68 49.9742 68.68C53.8942 68.68 55.6942 64.08 55.6942 60.8C55.6942 60.16 53.4542 60.16 53.0542 60.16H52.7742ZM71.7286 54.16H71.5686C70.8486 54.16 70.1686 54.04 69.4486 54.04C69.1286 54.04 68.7286 54.04 68.4486 54.24C67.6486 54.72 68.6086 59.68 65.9686 59.68C63.2886 59.68 63.3286 53.88 63.1286 52.04C63.0486 51.32 62.9286 50.6 62.9286 49.88C62.9286 48.48 64.2086 48.2 65.3286 48.2C66.6886 48.2 68.0486 48.32 69.4086 48.32C70.8886 48.32 71.8886 48.04 71.8886 46.32C71.8886 42.68 69.9686 36.2 65.4886 36.2C59.7286 36.2 59.3686 45.68 59.3686 49.76C59.3686 53.68 60.6486 62.92 65.9286 62.92C69.9686 62.92 72.1286 58.44 72.1286 54.92C72.1286 54.6 72.0886 54.24 71.7286 54.16ZM63.3686 44.24V43.36C63.3686 42.08 63.3686 39.32 65.2086 39.32C67.0886 39.32 68.4486 42.64 68.4486 44.16C68.4486 45.04 67.8886 45.04 67.2086 45.12C66.2486 45.24 65.3286 45.56 64.3686 45.56C64.0886 45.56 63.2886 45.52 63.2886 45.12C63.2886 44.8 63.3286 44.52 63.3686 44.24ZM88.6727 54.4C88.3127 51.36 88.5127 48.32 88.5127 45.28C88.5127 43.48 88.3127 41.72 88.3127 39.96C88.3127 39.24 88.4327 38.56 88.4327 37.84C88.4327 36.92 86.3127 36.52 85.6327 36.52C85.0727 36.52 85.0727 37.12 85.0727 37.52C85.0727 42.52 85.6727 47.48 85.6727 52.48C85.6727 52.96 85.6727 53.4 85.5527 53.88C83.6727 51.2 79.3127 38.12 78.3927 37.4C77.8727 37.04 77.2327 36.88 76.5927 36.88C75.7927 36.88 75.3527 37.32 75.3527 38.12C75.3527 38.96 75.6327 39.76 75.7527 40.56C75.9927 42.36 76.0327 44.24 76.0327 46.04C76.0327 48.36 75.9127 50.68 75.9127 52.96C75.9127 55.84 76.0727 58.64 76.3927 61.48C76.4727 62.04 76.4727 62.56 77.1927 62.56C77.7527 62.56 78.3127 62.64 78.8727 62.64C79.6727 62.64 79.6727 61.44 79.6727 60.88C79.6727 56.76 79.0327 52.68 78.6327 48.6C78.4727 47.08 78.2727 45.6 78.2727 44.12C78.2727 43.96 78.3127 43.76 78.3527 43.6C79.0327 44.08 80.7127 49.24 81.1527 50.36C82.1527 53 83.5527 55.48 84.5127 58.12C84.7527 58.72 85.1127 60.28 85.6327 60.6C85.9927 60.8 87.3927 60.8 87.8327 60.8C88.9527 60.8 88.9527 58.88 88.9527 58.12C88.9527 56.88 88.7927 55.64 88.6727 54.4ZM104.359 64.36C103.959 64 102.639 62.8 102.199 62.8C101.759 62.8 101.319 63.88 100.359 63.88C97.6786 63.88 97.6786 58.56 97.6786 56.72C97.6786 51.72 97.9586 46.68 98.2786 41.68C98.8786 41.68 102.359 41.68 102.359 40.96C102.359 40.56 102.239 40.2 102.239 39.8C102.239 39.56 102.279 39.36 102.279 39.12C102.279 38.52 101.599 38.44 101.159 38.44C100.359 38.44 99.5986 38.64 98.7986 38.64H98.4786C98.5986 36.88 98.8386 35.12 98.8386 33.36C98.8386 32.12 98.0386 31.48 96.7986 31.48C94.9186 31.48 95.3986 34.28 95.3986 35.44C95.3986 36.44 95.3186 37.44 95.3186 38.48H95.0386C92.9186 38.48 92.6386 38.52 92.6386 40.72C92.6386 40.88 92.6386 41.04 92.6786 41.16C93.2386 41.56 94.5586 41.6 95.2786 41.64C95.2386 46.28 94.7186 50.88 94.7186 55.52C94.7186 59.24 94.7186 67.64 100.039 67.64C101.359 67.64 104.519 66.24 104.519 64.68C104.519 64.56 104.439 64.44 104.359 64.36ZM114.855 49.92C114.575 48.76 113.935 47.68 113.935 46.48C113.935 46.12 114.055 45.76 114.295 45.48C114.615 45.2 115.415 45.04 115.855 44.84C117.255 44.04 118.255 41.2 118.255 39.64C118.255 35.76 113.975 33.88 110.615 33.88C109.735 33.88 108.895 34.04 108.895 35.08C108.895 35.88 109.095 36.64 109.095 37.44C109.095 40.56 108.975 43.72 108.975 46.84C108.975 52.36 109.055 57.92 109.055 63.44C109.055 65.16 109.055 65.28 110.815 65.28C111.575 65.28 111.975 65.12 111.975 64.28V57.48C111.975 54.16 111.655 50.84 111.655 47.52C111.655 47.2 111.655 46.84 111.735 46.52C112.415 47.92 114.975 58.6 115.295 60.64C115.415 61.16 115.535 63.56 116.255 63.56C116.855 63.56 118.335 63.12 118.335 62.36C118.335 61.64 117.895 60.92 117.655 60.24C116.415 56.92 115.615 53.36 114.855 49.92ZM111.855 43V40.88C111.855 39.8 111.615 38.76 111.615 37.72C111.615 37.08 111.895 36.32 112.615 36.32C114.175 36.32 115.495 38.16 115.495 39.6C115.495 40.28 115.295 40.92 114.895 41.48C114.535 42 112.775 43.32 112.135 43.32C111.975 43.32 111.855 43.2 111.855 43ZM133.682 54.16H133.522C132.802 54.16 132.122 54.04 131.402 54.04C131.082 54.04 130.682 54.04 130.402 54.24C129.602 54.72 130.562 59.68 127.922 59.68C125.242 59.68 125.282 53.88 125.082 52.04C125.002 51.32 124.882 50.6 124.882 49.88C124.882 48.48 126.162 48.2 127.282 48.2C128.642 48.2 130.002 48.32 131.362 48.32C132.842 48.32 133.842 48.04 133.842 46.32C133.842 42.68 131.922 36.2 127.442 36.2C121.682 36.2 121.322 45.68 121.322 49.76C121.322 53.68 122.602 62.92 127.882 62.92C131.922 62.92 134.082 58.44 134.082 54.92C134.082 54.6 134.042 54.24 133.682 54.16ZM125.322 44.24V43.36C125.322 42.08 125.322 39.32 127.162 39.32C129.042 39.32 130.402 42.64 130.402 44.16C130.402 45.04 129.842 45.04 129.162 45.12C128.202 45.24 127.282 45.56 126.322 45.56C126.042 45.56 125.242 45.52 125.242 45.12C125.242 44.8 125.282 44.52 125.322 44.24Z" fill="white"/>
</svg>
