<svg width="253" height="178" viewBox="0 0 253 178" fill="none" xmlns="http://www.w3.org/2000/svg">
<path d="M198.369 22.7585C206.581 19.3331 211.635 15.0473 214.333 10.2959C224.781 7.96846 238.09 4.74816 252 1C224.546 20.7154 172.512 66.6652 184.004 92.7408C198.369 125.335 233.804 129.17 229.015 144.509C224.227 159.847 200.284 192.442 184.004 168.475C167.723 144.509 129.416 86.0302 105.473 92.7408C86.3192 98.1093 29.1769 108.399 3 112.873C12.96 101.369 55.673 60.2238 75.7846 41.0893C110.268 52.9337 162.88 37.5604 198.369 22.7585Z" fill="#0574CF" stroke="white" stroke-width="2"/>
<path d="M129.753 60.76C129.433 59.88 129.233 58.92 129.233 57.96C129.233 56.72 129.753 54.88 131.313 54.88C133.673 54.88 133.033 58.8 133.793 59.12C134.313 59.36 134.873 59.36 135.433 59.36C136.113 59.36 136.313 58.88 136.313 58.28C136.313 55.52 134.673 52.48 131.553 52.48C128.233 52.48 126.553 55.12 126.553 58.2C126.553 63.96 132.913 68.44 134.433 74C134.793 75.44 134.833 76.96 134.833 78.44C134.833 80.04 134.793 84.8 132.473 84.8C129.913 84.8 129.993 80.04 129.993 78.28C129.993 76.84 129.713 76.16 128.113 76.16C127.113 76.16 126.913 77.16 126.913 77.92C126.913 81.52 128.073 86.64 132.553 86.64C136.113 86.64 138.073 82.6 138.073 79.48C138.073 74.52 136.073 69.76 133.153 65.84C131.953 64.2 130.473 62.72 129.753 60.76ZM155.279 57H154.879C153.879 57 152.679 57.04 152.679 58.36C152.679 59.12 152.759 59.84 152.759 60.56C152.759 62.56 152.719 64.56 152.719 66.56C152.719 69.76 153.559 78.08 148.599 78.08C143.999 78.08 143.799 72.28 143.799 68.92C143.799 65.4 143.919 61.92 143.919 58.4C143.919 57.84 143.239 57.84 142.879 57.84C142.119 57.84 141.639 57.88 141.039 58.4C140.879 58.56 140.719 66.08 140.719 67C140.719 71.68 141.159 80.96 147.679 80.96C154.999 80.96 156.199 73.04 156.199 67.32C156.199 64.28 155.839 61.28 155.839 58.24C155.839 57.72 155.839 57.24 155.279 57ZM169.429 58.76C167.869 55.28 164.389 52.72 160.549 52.72C159.989 52.72 159.549 52.84 159.549 53.52C159.549 53.96 159.629 54.4 159.669 54.88C159.829 56.52 159.829 58.12 159.869 59.76C160.069 66.64 160.549 73.52 160.829 80.4C160.909 82 161.029 83.56 161.029 85.16C161.029 86.04 161.229 86.4 162.189 86.4C169.469 86.4 171.629 79.12 171.629 73.36C171.629 68.44 171.429 63.32 169.429 58.76ZM164.549 82.72C163.949 82.72 163.949 81.96 163.949 81.56C163.949 79.24 163.749 77.04 163.589 74.72C163.309 70.76 163.109 66.8 162.789 62.84C162.749 62.32 162.229 56.04 162.429 56.04C165.789 56.04 168.349 64.28 168.349 70.24C168.349 72.44 168.389 82.72 164.549 82.72Z" fill="white"/>
</svg>
