<?xml version="1.0" encoding="utf-8"?>
<!-- Generator: Adobe Illustrator 25.1.0, SVG Export Plug-In . SVG Version: 6.00 Build 0)  -->
<svg version="1.1" id="Calque_1" xmlns="http://www.w3.org/2000/svg" xmlns:xlink="http://www.w3.org/1999/xlink" x="0px" y="0px"
	 viewBox="0 0 195.26 270.97" style="enable-background:new 0 0 195.26 270.97;" xml:space="preserve">
<style type="text/css">
	.st0{fill:#FA545A;}
	.st1{fill:#FFFFFF;stroke:#50333C;stroke-width:0.75;stroke-miterlimit:10;}
	.st2{fill:#FFD8B6;}
	.st3{fill:#FFFFFF;}
	.st4{fill:#50333C;}
	.st5{fill:#222122;}
</style>
<circle class="st0" cx="92.69" cy="181.83" r="67.01"/>
<path class="st1" d="M144.01,200.28c-0.55-1.22-0.63-2.66-0.24-3.95l-4.73-8.89l-6.43-10.53l-16.32-8.4l-17.03,2.19L72.49,169
	l-6.38-0.99l-18.2,18.53l-4.86,11.7c0.32,1.05,0.32,2.2,0,3.26c0.83,4.7,0.33,9.99,2.04,14.51c3.62,9.57,11.38,12.39,21,12.91
	c1.04,0.06,2.12,0.48,3.01,1.14l0.4-1.02l45.88,1.33c0.8-0.9,1.99-1.48,3.6-1.44c2.06,0.04,4.27,0.08,6.48,0.02
	c0.77-1.3,2.13-2.24,4.1-2.24c0.34,0,0.66,0.03,0.96,0.09c2.3-2.4,5.02-4.45,7.4-6.72c0.08-0.65,0.27-1.3,0.58-1.91
	c0.7-1.39,1.54-2.7,2.3-4.07c0.11-0.19,0.21-0.39,0.31-0.59c-0.15-1.26,0.18-2.55,0.94-3.62c0.01-0.04,0.02-0.07,0.03-0.11
	c0.24-1.26,0.91-2.15,1.77-2.73C143.87,204.78,143.73,202.48,144.01,200.28z"/>
<path class="st2" d="M43.37,202.62c0,0,46.36,42.42,98.64,0l-4.69,16.86l-10.23,6.79l-7.24,0.46l-14.8,1.22l-7.64,1.12l-9.69-1.06
	l-4.88,0.49l-10.31-1.46l-14.28,1.32l-3.91-2.92l-10.96-11.68V202.62z"/>
<polygon class="st1" points="78.78,169.18 110.83,170.12 128.44,163.17 139.27,151.13 142.64,135.77 138.32,113.28 129.27,99.88 
	114.36,88.62 98.31,84.97 83.61,86.03 66.5,92.2 53.99,105.98 47.97,119.27 45.22,135.18 50.81,154.15 61.37,164.2 "/>
<polygon class="st1" points="68.31,92.2 79.37,85.79 77,71.56 71.37,55.1 62.61,38.09 50.25,27.34 36.07,24.16 24.34,30.75 
	17.65,39.87 13.48,54.3 12.75,61.69 12.01,70.98 13.87,78.57 17.5,81.32 30.6,77.77 38.36,72.55 45.69,74.15 53.21,78.9 
	61.08,86.03 "/>
<polygon class="st3" points="116.79,90.64 105.73,84.23 108.1,70 113.73,53.54 122.49,36.53 134.85,25.78 149.03,22.6 160.76,29.19 
	167.45,38.3 171.62,52.74 172.36,60.13 173.1,69.42 171.24,77.01 167.61,79.76 154.5,76.21 146.75,70.99 139.41,72.59 131.9,77.34 
	124.02,84.47 "/>
<path class="st2" d="M72.91,89.65c0,0-12.77-35.68-25.22-42.51l-2.16,13.92l-2.96,7.78l-0.45,1.82l7.1,2.61l12.49,10.3l5.53,8.2
	L72.91,89.65z"/>
<path class="st2" d="M112.38,89.65c0,0,12.77-37.55,25.22-44.38l2.16,15.79l2.96,7.78l0.45,1.82l-7.1,2.61l-12.49,10.3l-5.53,8.2
	L112.38,89.65z"/>
<path class="st2" d="M143.08,127.75c-0.19-0.88-0.16-1.81,0.1-2.67c-1.89-1.87-2.55-4.34-3.13-6.94c-0.81-3.61-2.28-7.07-3.8-10.43
	c-2.34-5.19-5.24-10.76-10.94-12.4c6.08,7.51,12.57,20.59,11.63,41.79c-1.44,32.6-54.72,30.4-72.82,28.7
	c2.23,1.03,4.64,1.88,7.02,2.11c1.54,0.15,2.93,0.84,3.78,1.98c0.53,0.07,1.01,0.22,1.43,0.43c0.25-0.04,0.5-0.06,0.77-0.06
	c0.83,0,1.53,0.19,2.13,0.5c4.39-0.46,8.72,0.47,13.11,0.55c0.37,0.01,0.71,0.05,1.03,0.12c0.24-0.04,0.48-0.06,0.72-0.07
	c2.7-0.02,5.4-0.19,8.1-0.22c0.54-0.23,1.16-0.36,1.86-0.36c0.44,0,0.85,0.06,1.22,0.15c0.49-0.17,1.03-0.28,1.64-0.28
	c0.34,0,0.65,0.03,0.95,0.09c4.39-1.54,8.75-2.93,13.35-3.6l8.18-3.96c0.36-2.05,1.88-3.86,4.56-3.87c0-0.01,0.01-0.01,0.01-0.02
	c2.4-3.63,5.75-7.08,6.96-11.34c0.26-0.9,0.68-1.6,1.22-2.12l1.64-12.16C142.37,132.12,142.13,129.62,143.08,127.75z"/>
<path class="st4" d="M80,144.78"/>
<g>
	<g>
		<path class="st5" d="M75.19,182.17c4.44,4.44,8.97,8.82,13.34,13.34c2.02,2.09,2.41,5.27,0.82,7.74
			c-1.57,2.45-4.77,3.43-7.47,2.37c-1.32-0.52-2.24-1.54-3.21-2.52c-1.38-1.38-2.75-2.75-4.13-4.13c-2.63-2.63-5.25-5.25-7.88-7.88
			c-1.71-1.71-4.36,0.94-2.65,2.65c2.48,2.48,4.96,4.96,7.44,7.44c1.5,1.5,3.01,3.01,4.51,4.51c1.26,1.26,2.49,2.48,4.16,3.22
			c3.47,1.53,7.48,0.96,10.41-1.44c2.86-2.34,4.08-6.18,3.33-9.77c-0.83-3.96-4.64-6.83-7.36-9.56c-2.88-2.88-5.77-5.77-8.65-8.65
			C76.14,177.81,73.48,180.46,75.19,182.17L75.19,182.17z"/>
	</g>
</g>
<g>
	<g>
		<path class="st5" d="M102.09,185.22c-2.24,2.24-4.49,4.49-6.73,6.73c-1.34,1.34-2.51,2.69-3.2,4.49c-1.1,2.86-0.73,6.3,0.98,8.86
			c3.5,5.24,10.86,5.94,15.36,1.58c2.1-2.03,4.14-4.14,6.2-6.2c2.31-2.31,4.61-4.61,6.92-6.92c1.71-1.71-0.94-4.36-2.65-2.65
			c-4.06,4.06-8.12,8.12-12.17,12.17c-0.71,0.71-1.38,1.45-2.26,1.96c-2.16,1.25-4.95,1.05-6.92-0.51c-1.93-1.53-2.77-4.13-2.11-6.5
			c0.4-1.44,1.32-2.45,2.34-3.47c2.3-2.3,4.6-4.6,6.9-6.9C106.45,186.16,103.8,183.51,102.09,185.22L102.09,185.22z"/>
	</g>
</g>
<g>
	<g>
		<path class="st5" d="M119.23,213.83c-0.12-0.59-0.39-1.17-0.63-1.71c-0.51-1.1-1.27-2.13-2.17-2.93c-0.7-0.62-1.48-1.16-2.34-1.54
			c-0.48-0.21-0.92-0.33-1.44-0.19c-0.43,0.12-0.91,0.46-1.12,0.86c-0.23,0.44-0.35,0.96-0.19,1.44c0.14,0.44,0.43,0.93,0.86,1.12
			c0.56,0.25,1.09,0.56,1.57,0.93c-0.13-0.1-0.25-0.2-0.38-0.29c0.5,0.39,0.94,0.83,1.33,1.33c-0.1-0.13-0.2-0.25-0.29-0.38
			c0.42,0.54,0.77,1.13,1.03,1.76c-0.06-0.15-0.13-0.3-0.19-0.45c0.14,0.34,0.27,0.69,0.35,1.04c0.09,0.44,0.48,0.9,0.86,1.12
			c0.4,0.24,0.99,0.33,1.44,0.19c0.45-0.15,0.89-0.43,1.12-0.86C119.29,214.81,119.33,214.35,119.23,213.83L119.23,213.83z"/>
	</g>
</g>
<g>
	<g>
		<path class="st5" d="M68.99,214.83c0.07-0.36,0.21-0.71,0.35-1.04c-0.06,0.15-0.13,0.3-0.19,0.45c0.27-0.63,0.62-1.22,1.03-1.76
			c-0.1,0.13-0.2,0.25-0.29,0.38c0.39-0.5,0.83-0.94,1.33-1.33c-0.13,0.1-0.25,0.2-0.38,0.29c0.49-0.37,1.01-0.68,1.57-0.93
			c0.4-0.18,0.75-0.72,0.86-1.12c0.12-0.45,0.07-1.05-0.19-1.44c-0.26-0.4-0.64-0.75-1.12-0.86c-0.17-0.02-0.33-0.04-0.5-0.07
			c-0.34,0-0.65,0.09-0.95,0.26c-2.4,1.07-4.21,3.24-5.01,5.71c-0.05,0.15-0.1,0.31-0.13,0.47c-0.1,0.5-0.07,1,0.19,1.44
			c0.23,0.39,0.67,0.76,1.12,0.86c0.48,0.11,1.02,0.09,1.44-0.19C68.52,215.7,68.89,215.31,68.99,214.83L68.99,214.83z"/>
	</g>
</g>
<g>
	<g>
		<path class="st5" d="M117.59,169.63c1.22,0.56,2.41,1.16,3.58,1.81c1.26,0.69,2.44,1.58,3.71,2.24c0.41,0.21-0.33-0.27-0.04-0.03
			c0.25,0.21,0.5,0.4,0.75,0.61c2.14,1.76,4.14,3.7,6.01,5.75c5.42,5.96,10.14,13.6,10,21.92c-0.04,2.39-0.27,3.82-0.85,6.19
			c-0.69,2.84-1.64,5.34-3.07,7.83c-3.62,6.27-9.78,10.16-16.96,11.12c-2.74,0.37-5.52,0.24-8.27,0.37
			c-2.95,0.13-5.9,0.39-8.85,0.32c-3.07-0.08-6.1-0.63-9.18-0.66c-3.28-0.04-6.53,0.27-9.79,0.57c-2.91,0.27-5.85,0.02-8.76-0.17
			c-3.06-0.2-6.12-0.24-9.18-0.37c-3.69-0.16-7.42-0.93-10.69-2.68c-5.04-2.69-8.28-7.39-9.92-12.55c-0.37-1.16-0.67-2.34-0.91-3.54
			c-0.1-0.51-0.19-1.02-0.27-1.54c-0.02-0.12-0.13-0.9-0.07-0.42c-0.04-0.29-0.07-0.59-0.1-0.88c-0.16-1.47-0.24-2.96-0.21-4.44
			c0.01-0.49,0.04-0.96,0.08-1.45c0.01-0.14,0.03-0.27,0.05-0.4c-0.08,0.69,0,0.04,0.02-0.11c0.08-0.44,0.15-0.87,0.24-1.31
			c0.27-1.27,0.61-2.52,1.03-3.75c2.83-8.44,9-16.08,16.46-20.89c2.41-1.56,4.95-2.92,7.62-3.98c0.94-0.37,1.6-1.26,1.31-2.31
			c-0.25-0.9-1.36-1.68-2.31-1.31c-10.29,4.05-19.2,11.85-24.27,21.73c-2.03,3.97-3.66,8.44-3.96,12.93
			c-0.56,8.68,2.37,18.64,9.03,24.47c2.81,2.46,6.17,4.18,9.77,5.14c5.22,1.39,10.69,1.03,16.03,1.39c2.98,0.2,6,0.45,8.99,0.19
			c3.51-0.32,6.99-0.64,10.52-0.55c3.1,0.07,6.16,0.65,9.27,0.66c3.32,0.01,6.64-0.31,9.96-0.4c5.05-0.14,9.86-0.43,14.56-2.45
			c3.46-1.48,6.58-3.76,9.02-6.63c4.1-4.81,6.4-10.88,7.18-17.11c1.01-8.04-1.97-15.8-6.59-22.28c-3.23-4.53-7.2-8.95-11.76-12.21
			c-2.24-1.61-4.79-2.89-7.29-4.05C117.3,165.39,115.39,168.62,117.59,169.63L117.59,169.63z"/>
	</g>
</g>
<g>
	<g>
		<path class="st5" d="M140.76,133.33c-0.03,8.51-2.04,17.22-8.04,23.56c-5.64,5.95-13.57,8.88-21.48,10.3
			c-4.74,0.85-9.56,1.15-14.37,1.17c-5.06,0.02-10.12,0.04-15.16-0.5c-8.13-0.86-16.69-3.04-23.22-8.21
			c-6.49-5.13-9.94-12.79-10.79-20.91c-1.05-10.02,0.76-20.33,5.71-29.15c4.66-8.3,11.85-14.95,20.5-18.94
			c4.32-1.99,9.03-3.27,13.76-3.77c4.91-0.51,10.11-0.5,14.99,0.28c9.45,1.53,18.24,6,24.95,12.83
			c6.86,6.99,11.19,16.08,12.65,25.74C140.63,128.27,140.77,130.81,140.76,133.33c-0.01,2.41,3.74,2.42,3.75,0
			c0.02-10.75-3.1-21.48-9.44-30.23c-6.05-8.36-14.61-14.66-24.44-17.85c-4.99-1.62-10.27-2.4-15.51-2.36
			c-5.34,0.04-10.54,0.36-15.71,1.8c-9.87,2.75-18.74,8.68-25.05,16.75c-6.64,8.5-10.29,18.97-10.66,29.74
			c-0.33,9.53,1.59,19.29,7.75,26.82c5.57,6.81,13.98,10.58,22.42,12.4c4.94,1.06,10.01,1.55,15.06,1.68
			c5.35,0.14,10.77,0.15,16.11-0.32c9.04-0.79,18.46-2.92,25.91-8.37c7.31-5.35,11.66-13.33,12.99-22.23
			c0.39-2.6,0.57-5.21,0.58-7.83C144.52,130.92,140.77,130.92,140.76,133.33z"/>
	</g>
</g>
<g>
	<g>
		<path class="st5" d="M40.12,73.37c10.42,2.83,19.68,9.75,24.05,19.78c0.41,0.94,1.76,1.13,2.57,0.67
			c0.96-0.55,1.08-1.64,0.67-2.57c-4.74-10.86-15.05-18.45-26.3-21.5C38.78,69.12,37.79,72.74,40.12,73.37L40.12,73.37z"/>
	</g>
</g>
<g>
	<g>
		<path class="st5" d="M81.82,86.03c-0.88-10.17-3.47-20.46-7.16-29.94c-3.07-7.89-7.12-15.51-12.84-21.82
			c-6.5-7.17-16.04-13.31-26.09-11.69c-9.48,1.52-16.84,9.83-20.58,18.19c-2.97,6.62-4.58,14.18-5.48,21.36
			c-0.72,5.7-1.23,13.25,2.94,17.86c5.37,5.93,15.17,1.61,20.77-1.56c6.65-3.76,11.86-9.61,14.28-16.89
			c1.32-3.96,1.86-8.35,1.39-12.52c-0.04-0.37-0.09-0.74-0.15-1.11c-0.42-2.37-4.04-1.37-3.62,1c0.11,0.63-0.03-0.48,0.02,0.17
			c0.05,0.58,0.11,1.16,0.13,1.74c0.03,0.87,0.02,1.74-0.02,2.61c-0.07,1.25-0.16,2.01-0.32,2.96c-1.04,6.02-3.97,11.33-8.65,15.38
			c-3.31,2.87-7.34,4.93-11.47,6.34c-1.59,0.54-3.22,0.99-4.85,1.04c-0.67,0.02-1.35-0.02-1.72-0.09c-0.27-0.05-0.54-0.12-0.8-0.2
			c-0.14-0.04-0.28-0.09-0.42-0.14c-0.52-0.19,0.3,0.16-0.19-0.08c-0.25-0.12-0.49-0.26-0.73-0.41c-0.37-0.23-0.07-0.01-0.34-0.25
			c-0.49-0.43-0.8-0.79-0.97-1.05c-0.76-1.12-0.98-1.73-1.32-3.01c-0.71-2.66-0.71-5.5-0.52-8.41c0.39-5.96,1.79-11.9,3.45-17.65
			c2.41-8.33,7.81-17.18,16.22-20.57c8.84-3.56,18.02,1.38,24.35,7.52c5.61,5.43,9.65,12.28,12.74,19.4
			c2.78,6.39,4.77,13.15,6.25,19.95c0.53,2.45,1,4.92,1.38,7.4c0.07,0.47,0.14,0.95,0.21,1.43c0.03,0.21,0.06,0.42,0.09,0.63
			c-0.07-0.48,0-0.03,0.02,0.19c0.07,0.55,0.14,1.1,0.2,1.66c0.02,0.19,0.04,0.39,0.06,0.58C78.28,88.42,82.03,88.44,81.82,86.03
			L81.82,86.03z"/>
	</g>
</g>
<g>
	<g>
		<path class="st5" d="M120.85,91.1c4.43-9.94,13.61-16.79,23.98-19.6c2.33-0.63,1.34-4.25-1-3.62
			c-11.2,3.04-21.42,10.55-26.22,21.32c-0.42,0.93-0.26,2,0.67,2.57C119.08,92.25,120.44,92.03,120.85,91.1L120.85,91.1z"/>
	</g>
</g>
<g>
	<g>
		<path class="st5" d="M136.05,46.04c-1.76,9.85,2.69,20.57,10.25,26.87c3.74,3.11,8.09,5.36,12.68,6.93
			c3.18,1.09,6.89,1.78,10.12,0.49c5.9-2.37,6.76-9.62,6.58-15.17c-0.21-6.58-1.67-13.15-3.46-19.47
			c-2.61-9.23-8.1-18.56-16.97-22.99c-4.22-2.11-8.87-2.75-13.51-1.86c-5.36,1.02-10.25,3.98-14.37,7.46
			c-6.47,5.45-11.22,12.78-14.74,20.4c-5.03,10.9-8.17,22.89-9.44,34.83c-0.02,0.21-0.05,0.43-0.06,0.64c-0.21,2.4,3.54,2.39,3.75,0
			c0.06-0.75,0.16-1.49,0.25-2.24c0.02-0.14,0.11-0.79,0.02-0.19c0.03-0.21,0.06-0.42,0.09-0.63c0.07-0.48,0.14-0.95,0.21-1.43
			c0.18-1.15,0.37-2.29,0.58-3.43c1.18-6.42,2.84-12.77,5.06-18.9c2.61-7.2,6.09-14.3,10.94-20.27
			c5.43-6.68,13.54-13.26,22.62-12.89c8.72,0.36,15.54,7.79,19.18,15.09c1.71,3.41,2.73,7.09,3.66,10.77
			c0.77,3.05,1.43,6.14,1.89,9.25c0.44,2.97,0.69,6.11,0.5,9.15c-0.08,1.34-0.22,2.38-0.61,3.77c-0.34,1.22-0.59,1.87-1.37,2.96
			c-0.04,0.05-0.22,0.28-0.01,0.02c-0.09,0.11-0.18,0.21-0.27,0.31c-0.17,0.18-0.35,0.35-0.53,0.52c-0.36,0.33,0.02,0.04-0.41,0.31
			c-0.26,0.16-0.53,0.32-0.81,0.45c-0.3,0.14,0.41-0.15-0.11,0.04c-0.11,0.04-0.22,0.08-0.33,0.11c-0.29,0.09-0.59,0.16-0.89,0.22
			c-0.44,0.09-1.11,0.12-1.83,0.09c-3.89-0.16-8.03-2.1-11.41-4.03c-5.92-3.38-10.57-8.65-12.57-15.06
			c-0.76-2.44-1.08-4.33-1.21-6.62c-0.08-1.46-0.02-2.89,0.1-4.34c0.05-0.62-0.09,0.47,0.02-0.17
			C140.09,44.68,136.48,43.67,136.05,46.04L136.05,46.04z"/>
	</g>
</g>
<ellipse class="st2" cx="92.41" cy="140.47" rx="6.41" ry="3.99"/>
<g>
	<g>
		<g>
			<path class="st5" d="M66.07,117.4c4.13,1.87,8.26,3.75,12.38,5.62c0.59,0.27,1.18,0.54,1.77,0.8c0.92,0.42,2.02,0.26,2.57-0.67
				c0.47-0.8,0.25-2.15-0.67-2.57c-4.13-1.87-8.26-3.75-12.38-5.62c-0.59-0.27-1.18-0.54-1.77-0.8c-0.92-0.42-2.02-0.26-2.57,0.67
				C64.93,115.64,65.14,116.98,66.07,117.4L66.07,117.4z"/>
		</g>
	</g>
	<circle class="st5" cx="74.66" cy="123.29" r="3.81"/>
</g>
<g>
	<g>
		<g>
			<path class="st5" d="M116.58,114.16c-4.13,1.87-8.26,3.75-12.38,5.62c-0.59,0.27-1.18,0.54-1.77,0.8
				c-0.92,0.42-1.15,1.76-0.67,2.57c0.55,0.95,1.64,1.09,2.57,0.67c4.13-1.87,8.26-3.75,12.38-5.62c0.59-0.27,1.18-0.54,1.77-0.8
				c0.92-0.42,1.15-1.76,0.67-2.57C118.59,113.89,117.51,113.74,116.58,114.16L116.58,114.16z"/>
		</g>
	</g>
	<circle class="st5" cx="109.89" cy="123.29" r="3.81"/>
</g>
<g>
	<g>
		<path d="M84.44,154.31c4.58,0,9.15,0,13.73,0c0.65,0,1.29,0,1.94,0c2.41,0,2.42-3.75,0-3.75c-4.58,0-9.15,0-13.73,0
			c-0.65,0-1.29,0-1.94,0C82.03,150.56,82.02,154.31,84.44,154.31L84.44,154.31z"/>
	</g>
</g>
<polygon class="st3" points="61.56,227.48 54.55,233.23 55.41,234.81 57.78,236.7 82.99,235.99 87.16,235.44 87.16,232.62 
	81.1,229.14 74.89,227.04 "/>
<polygon class="st3" points="105.99,227.48 98.97,233.23 99.84,234.81 102.2,236.7 127.41,235.99 131.59,235.44 131.59,232.62 
	125.52,229.14 119.31,227.04 "/>
<rect x="55.81" y="232.75" class="st2" width="31.35" height="3.95"/>
<rect x="99.6" y="232.75" class="st2" width="31.35" height="3.95"/>
<g>
	<g>
		<path class="st5" d="M71.46,224.97c-4.61,0.03-9.43,0.91-13.42,3.31c-3.05,1.83-5.62,4.71-5.7,8.42
			c-0.02,1.01,0.88,1.88,1.88,1.88c10.05,0,20.09,0,30.14,0c1.45,0,2.9,0,4.35,0c1,0,1.9-0.86,1.88-1.88
			c-0.08-3.72-2.65-6.6-5.7-8.42C80.88,225.88,76.06,225,71.46,224.97c-2.41-0.02-2.42,3.73,0,3.75c3.75,0.03,7.64,0.65,10.96,2.47
			c2.09,1.14,4.36,2.97,4.41,5.51c0.62-0.62,1.25-1.25,1.88-1.88c-10.05,0-20.09,0-30.14,0c-1.45,0-2.9,0-4.35,0
			c0.62,0.62,1.25,1.25,1.88,1.88c0.05-2.54,2.32-4.37,4.41-5.51c3.33-1.82,7.21-2.44,10.96-2.47
			C73.87,228.7,73.88,224.95,71.46,224.97z"/>
	</g>
</g>
<g>
	<g>
		<path class="st5" d="M115.28,224.97c-4.61,0.03-9.43,0.91-13.42,3.31c-3.05,1.83-5.62,4.71-5.7,8.42
			c-0.02,1.01,0.88,1.88,1.88,1.88c10.05,0,20.09,0,30.14,0c1.45,0,2.9,0,4.35,0c1,0,1.9-0.86,1.88-1.88
			c-0.08-3.72-2.65-6.6-5.7-8.42C124.71,225.88,119.89,225,115.28,224.97c-2.41-0.02-2.42,3.73,0,3.75
			c3.75,0.03,7.64,0.65,10.96,2.47c2.09,1.14,4.36,2.97,4.41,5.51c0.62-0.62,1.25-1.25,1.88-1.88c-10.05,0-20.09,0-30.14,0
			c-1.45,0-2.9,0-4.35,0c0.62,0.62,1.25,1.25,1.88,1.88c0.05-2.54,2.32-4.37,4.41-5.51c3.33-1.82,7.21-2.44,10.96-2.47
			C117.69,228.7,117.7,224.95,115.28,224.97z"/>
	</g>
</g>
<g>
	<g>
		<path d="M151.22,83.19c0.62,1.95,0.94,3.91,1.18,5.86c0.05,0.49,0.11,0.98,0.14,1.46c0.02,0.25,0.05,0.47,0.05,0.75
			c0,0.31,0.01,0.62-0.04,0.92c-0.12,1.24-0.66,2.43-1.47,3.38c-0.41,0.48-0.89,0.88-1.41,1.23c-0.53,0.33-1.1,0.59-1.7,0.75
			c-0.6,0.14-1.22,0.25-1.83,0.21c-0.57-0.02-1-0.08-1.51-0.13c-1.95-0.23-3.91-0.55-5.86-1.18c1.95-0.62,3.91-0.95,5.86-1.18
			l1.42-0.15c0.37-0.04,0.72-0.15,1.05-0.28c0.66-0.27,1.25-0.69,1.7-1.22c0.46-0.53,0.79-1.17,0.94-1.87
			c0.05-0.17,0.07-0.35,0.09-0.53l0.06-0.71c0.04-0.49,0.09-0.98,0.14-1.46C150.28,87.09,150.6,85.14,151.22,83.19z"/>
	</g>
	<g>
		<path d="M156.44,83.19c0.62,1.95,0.94,3.91,1.18,5.86c0.05,0.49,0.11,0.98,0.14,1.46l0.06,0.71c0.03,0.18,0.04,0.36,0.09,0.53
			c0.15,0.7,0.49,1.34,0.94,1.87c0.45,0.54,1.04,0.95,1.7,1.22c0.33,0.12,0.68,0.23,1.05,0.28l1.42,0.15
			c1.95,0.23,3.91,0.55,5.86,1.18c-1.95,0.62-3.91,0.95-5.86,1.18c-0.51,0.05-0.93,0.12-1.51,0.13c-0.61,0.04-1.23-0.07-1.83-0.21
			c-0.6-0.17-1.17-0.43-1.7-0.75c-0.52-0.35-1-0.75-1.41-1.23c-0.81-0.95-1.35-2.15-1.47-3.38c-0.04-0.31-0.04-0.62-0.04-0.92
			c0-0.29,0.03-0.5,0.05-0.75c0.04-0.49,0.09-0.98,0.14-1.46C155.49,87.09,155.81,85.14,156.44,83.19z"/>
	</g>
	<g>
		<path d="M151.22,114.42c-0.62-1.95-0.94-3.91-1.18-5.86c-0.05-0.49-0.11-0.98-0.14-1.46l-0.06-0.71
			c-0.03-0.18-0.04-0.36-0.09-0.53c-0.15-0.7-0.49-1.34-0.94-1.87c-0.45-0.54-1.04-0.95-1.7-1.22c-0.33-0.12-0.68-0.23-1.05-0.28
			l-1.42-0.15c-1.95-0.23-3.91-0.55-5.86-1.18c1.95-0.62,3.91-0.95,5.86-1.18c0.51-0.05,0.93-0.12,1.51-0.13
			c0.61-0.04,1.23,0.07,1.83,0.21c0.6,0.17,1.17,0.43,1.7,0.75c0.52,0.35,1,0.75,1.41,1.23c0.81,0.95,1.35,2.15,1.47,3.38
			c0.04,0.31,0.04,0.62,0.04,0.92c0,0.29-0.03,0.5-0.05,0.75c-0.04,0.49-0.09,0.98-0.14,1.46
			C152.17,110.52,151.84,112.47,151.22,114.42z"/>
	</g>
	<g>
		<path d="M156.44,114.42c-0.62-1.95-0.94-3.91-1.18-5.86c-0.05-0.49-0.11-0.98-0.14-1.46c-0.02-0.25-0.05-0.47-0.05-0.75
			c0-0.31-0.01-0.62,0.04-0.92c0.12-1.24,0.66-2.43,1.47-3.38c0.41-0.48,0.89-0.88,1.41-1.23c0.53-0.33,1.1-0.59,1.7-0.75
			c0.6-0.14,1.22-0.25,1.83-0.21c0.57,0.02,1,0.08,1.51,0.13c1.95,0.23,3.91,0.55,5.86,1.18c-1.95,0.62-3.91,0.95-5.86,1.18
			l-1.42,0.15c-0.37,0.04-0.72,0.15-1.05,0.28c-0.66,0.27-1.25,0.69-1.7,1.22c-0.46,0.53-0.79,1.17-0.94,1.87
			c-0.05,0.17-0.07,0.35-0.09,0.53l-0.06,0.71c-0.04,0.49-0.09,0.98-0.14,1.46C157.38,110.52,157.06,112.47,156.44,114.42z"/>
	</g>
</g>
</svg>
