<?xml version="1.0" encoding="utf-8"?>
<!-- Generator: Adobe Illustrator 25.1.0, SVG Export Plug-In . SVG Version: 6.00 Build 0)  -->
<svg version="1.1" id="Calque_1" xmlns="http://www.w3.org/2000/svg" xmlns:xlink="http://www.w3.org/1999/xlink" x="0px" y="0px"
	 viewBox="0 0 195.26 270.97" style="enable-background:new 0 0 195.26 270.97;" xml:space="preserve">
<style type="text/css">
	.st0{fill:#FA545A;}
	.st1{fill:#FFFFFF;stroke:#50333C;stroke-width:0.75;stroke-miterlimit:10;}
	.st2{fill:#FFFFFF;}
	.st3{fill:#FFD8B6;}
	.st4{fill:#50333C;}
	.st5{fill:#222122;}
</style>
<circle class="st0" cx="92.69" cy="181.83" r="67.01"/>
<polygon class="st1" points="66.12,168.01 47.92,186.54 42.67,199.18 36.07,197.24 26.63,194.91 19.95,199.18 16.06,207.45 
	23.81,220.97 33.56,229.34 51.99,238.71 61.16,239.45 66.76,236.05 69.51,229.03 117.02,230.41 119.82,237.47 124.8,238.82 
	150.91,230.73 164.72,215.3 168.49,203.73 163.53,195.41 152.72,195.96 145.28,199.18 139.04,187.44 132.62,176.91 116.3,168.52 
	99.27,170.71 72.49,169 "/>
<polygon class="st1" points="78.78,169.18 110.83,170.12 128.44,163.17 139.27,151.13 142.64,135.77 138.32,113.28 129.27,99.88 
	114.36,88.62 98.31,84.97 83.61,86.03 66.5,92.2 53.99,105.98 47.97,119.27 45.22,135.18 50.81,154.15 61.37,164.2 "/>
<polygon class="st1" points="68.31,92.2 79.37,85.79 77,71.56 71.37,55.1 62.61,38.09 50.25,27.34 36.07,24.16 24.34,30.75 
	17.65,39.87 13.48,54.3 12.75,61.69 12.01,70.98 13.87,78.57 17.5,81.32 30.6,77.77 38.36,72.55 45.69,74.15 53.21,78.9 
	61.08,86.03 "/>
<polygon class="st2" points="116.79,90.64 105.73,84.23 108.1,70 113.73,53.54 122.49,36.53 134.85,25.78 149.03,22.6 160.76,29.19 
	167.45,38.3 171.62,52.74 172.36,60.13 173.1,69.42 171.24,77.01 167.61,79.76 154.5,76.21 146.75,70.99 139.41,72.59 131.9,77.34 
	124.02,84.47 "/>
<path class="st3" d="M72.91,89.65c0,0-12.77-35.68-25.22-42.51l-2.16,13.92l-2.96,7.78l-0.45,1.82l7.1,2.61l12.49,10.3l5.53,8.2
	L72.91,89.65z"/>
<path class="st3" d="M112.38,89.65c0,0,12.77-37.55,25.22-44.38l2.16,15.79l2.96,7.78l0.45,1.82l-7.1,2.61l-12.49,10.3l-5.53,8.2
	L112.38,89.65z"/>
<path class="st3" d="M143.08,127.75c-0.19-0.88-0.16-1.81,0.1-2.67c-1.89-1.87-2.55-4.34-3.13-6.94c-0.81-3.61-2.28-7.07-3.8-10.43
	c-2.34-5.19-5.24-10.76-10.94-12.4c6.08,7.51,12.57,20.59,11.63,41.79c-1.44,32.6-54.72,30.4-72.82,28.7
	c2.23,1.03,4.64,1.88,7.02,2.11c1.54,0.15,2.93,0.84,3.78,1.98c0.53,0.07,1.01,0.22,1.43,0.43c0.25-0.04,0.5-0.06,0.77-0.06
	c0.83,0,1.53,0.19,2.13,0.5c4.39-0.46,8.72,0.47,13.11,0.55c0.37,0.01,0.71,0.05,1.03,0.12c0.24-0.04,0.48-0.06,0.72-0.07
	c2.7-0.02,5.4-0.19,8.1-0.22c0.54-0.23,1.16-0.36,1.86-0.36c0.44,0,0.85,0.06,1.22,0.15c0.49-0.17,1.03-0.28,1.64-0.28
	c0.34,0,0.65,0.03,0.95,0.09c4.39-1.54,8.75-2.93,13.35-3.6l8.18-3.96c0.36-2.05,1.88-3.86,4.56-3.87c0-0.01,0.01-0.01,0.01-0.02
	c2.4-3.63,5.75-7.08,6.96-11.34c0.26-0.9,0.68-1.6,1.22-2.12l1.64-12.16C142.37,132.12,142.13,129.62,143.08,127.75z"/>
<path class="st3" d="M141.95,197.24c0,0-21.31,7.38-24.71,17.44c0.16-0.62,0.24-2.28-2.37-4.66c-3.65-3.34,3.96-13.53,6.22-16.31
	l-0.44,0.4c0.26-0.54,0.44-0.85,0.44-0.85l-1.17,1.14h0.41l-12.43,11.38l-5.11,3.05l-7.08-1.89l-3-2.88v-0.09L92.68,204l-0.05-0.04
	v0.09l-3,2.88l-7.08,1.89l-5.11-3.05l-12.43-11.38h0.41l-1.17-1.14c0,0,0.18,0.31,0.44,0.85l-0.44-0.4
	c2.26,2.78,9.87,12.97,6.22,16.31c-2.61,2.38-2.53,4.04-2.37,4.66c-3.39-10.06-24.71-17.44-24.71-17.44l-0.73,4.41l12.56,8.67
	l9.18,10.06l4.37,7.72l23.85,0.22v0l0.05,0l0.05,0v0l23.85-0.22l4.37-7.72l9.18-10.06l12.56-8.67L141.95,197.24z"/>
<g>
	<g>
		<path class="st3" d="M45.3,216.2c0.57,0.14,1.12,0.34,1.64,0.6c4.05,2.03,7.57,5.11,10.12,8.86c0.53,0.78,1.03,1.61,1.25,2.53
			c0.22,0.92,0.14,1.95-0.42,2.72c-0.6,0.83-1.67,1.23-2.7,1.25s-2.03-0.29-3-0.62c-4.07-1.41-8.08-3.5-10.7-6.93
			c-1.11-1.45-1.96-3.22-1.8-5.03C39.97,216.31,42.74,215.58,45.3,216.2z"/>
	</g>
	<g>
		<g>
			<path class="st3" d="M28.42,200.44c0.29,0.02,0.58,0.07,0.86,0.15c2.18,0.63,4.19,1.83,5.78,3.44c0.33,0.34,0.65,0.7,0.84,1.13
				s0.24,0.95,0.04,1.38c-0.22,0.46-0.71,0.76-1.21,0.86c-0.5,0.1-1.02,0.04-1.53-0.03c-2.13-0.32-4.29-0.99-5.89-2.43
				c-0.68-0.61-1.25-1.4-1.34-2.31C25.8,200.97,27.1,200.36,28.42,200.44z"/>
		</g>
		<g>
			<path class="st3" d="M24.11,205.26c0.21,0.01,0.41,0.05,0.61,0.1c1.54,0.44,2.96,1.29,4.08,2.43c0.23,0.24,0.46,0.49,0.6,0.8
				c0.14,0.31,0.17,0.67,0.03,0.97c-0.16,0.33-0.5,0.53-0.86,0.61c-0.36,0.07-0.72,0.03-1.08-0.02c-1.5-0.23-3.03-0.7-4.16-1.72
				c-0.48-0.43-0.89-0.99-0.95-1.63C22.27,205.64,23.18,205.2,24.11,205.26z"/>
		</g>
		<g>
			<path class="st3" d="M24.96,211.54c0.14,0.01,0.27,0.03,0.4,0.07c1.01,0.29,1.94,0.85,2.68,1.6c0.15,0.16,0.3,0.33,0.39,0.53
				c0.09,0.2,0.11,0.44,0.02,0.64c-0.1,0.22-0.33,0.35-0.56,0.4c-0.23,0.05-0.48,0.02-0.71-0.02c-0.99-0.15-1.99-0.46-2.73-1.13
				c-0.31-0.28-0.58-0.65-0.62-1.07C23.74,211.79,24.34,211.51,24.96,211.54z"/>
		</g>
	</g>
	<g>
		<g>
			<path class="st3" d="M155.56,200.44c-0.29,0.02-0.58,0.07-0.86,0.15c-2.18,0.63-4.19,1.83-5.78,3.44
				c-0.33,0.34-0.65,0.7-0.84,1.13c-0.19,0.43-0.24,0.95-0.04,1.38c0.22,0.46,0.71,0.76,1.21,0.86c0.5,0.1,1.02,0.04,1.53-0.03
				c2.13-0.32,4.29-0.99,5.89-2.43c0.68-0.61,1.25-1.4,1.34-2.31C158.17,200.97,156.88,200.36,155.56,200.44z"/>
		</g>
		<g>
			<path class="st3" d="M159.87,205.26c-0.21,0.01-0.41,0.05-0.61,0.1c-1.54,0.44-2.96,1.29-4.08,2.43c-0.23,0.24-0.46,0.49-0.6,0.8
				s-0.17,0.67-0.03,0.97c0.16,0.33,0.5,0.53,0.86,0.61c0.36,0.07,0.72,0.03,1.08-0.02c1.5-0.23,3.03-0.7,4.16-1.72
				c0.48-0.43,0.89-0.99,0.95-1.63C161.71,205.64,160.8,205.2,159.87,205.26z"/>
		</g>
		<g>
			<path class="st3" d="M159.02,211.54c-0.14,0.01-0.27,0.03-0.4,0.07c-1.01,0.29-1.94,0.85-2.68,1.6c-0.15,0.16-0.3,0.33-0.39,0.53
				c-0.09,0.2-0.11,0.44-0.02,0.64c0.1,0.22,0.33,0.35,0.56,0.4c0.23,0.05,0.48,0.02,0.71-0.02c0.99-0.15,1.99-0.46,2.73-1.13
				c0.31-0.28,0.58-0.65,0.62-1.07C160.23,211.79,159.63,211.51,159.02,211.54z"/>
		</g>
	</g>
	<g>
		<path class="st3" d="M138.7,216.2c-0.57,0.14-1.12,0.34-1.64,0.6c-4.05,2.03-7.57,5.11-10.12,8.86c-0.53,0.78-1.03,1.61-1.25,2.53
			c-0.22,0.92-0.14,1.95,0.42,2.72c0.6,0.83,1.67,1.23,2.7,1.25c1.03,0.02,2.03-0.29,3-0.62c4.07-1.41,8.08-3.5,10.7-6.93
			c1.11-1.45,1.96-3.22,1.8-5.03C144.03,216.31,141.26,215.58,138.7,216.2z"/>
	</g>
</g>
<path class="st4" d="M80,144.78"/>
<g>
	<g>
		<path class="st5" d="M75.19,182.17c4.44,4.44,8.97,8.82,13.34,13.34c2.02,2.09,2.41,5.27,0.82,7.74
			c-1.57,2.45-4.77,3.43-7.47,2.37c-1.32-0.52-2.24-1.54-3.21-2.52c-1.38-1.38-2.75-2.75-4.13-4.13c-2.63-2.63-5.25-5.25-7.88-7.88
			c-1.71-1.71-4.36,0.94-2.65,2.65c2.48,2.48,4.96,4.96,7.44,7.44c1.5,1.5,3.01,3.01,4.51,4.51c1.26,1.26,2.49,2.48,4.16,3.22
			c3.47,1.53,7.48,0.96,10.41-1.44c2.86-2.34,4.08-6.18,3.33-9.77c-0.83-3.96-4.64-6.83-7.36-9.56c-2.88-2.88-5.77-5.77-8.65-8.65
			C76.14,177.81,73.48,180.46,75.19,182.17L75.19,182.17z"/>
	</g>
</g>
<g>
	<g>
		<path class="st5" d="M102.09,185.22c-2.24,2.24-4.49,4.49-6.73,6.73c-1.34,1.34-2.51,2.69-3.2,4.49c-1.1,2.86-0.73,6.3,0.98,8.86
			c3.5,5.24,10.86,5.94,15.36,1.58c2.1-2.03,4.14-4.14,6.2-6.2c2.31-2.31,4.61-4.61,6.92-6.92c1.71-1.71-0.94-4.36-2.65-2.65
			c-4.06,4.06-8.12,8.12-12.17,12.17c-0.71,0.71-1.38,1.45-2.26,1.96c-2.16,1.25-4.95,1.05-6.92-0.51c-1.93-1.53-2.77-4.13-2.11-6.5
			c0.4-1.44,1.32-2.45,2.34-3.47c2.3-2.3,4.6-4.6,6.9-6.9C106.45,186.16,103.8,183.51,102.09,185.22L102.09,185.22z"/>
	</g>
</g>
<g>
	<g>
		<path class="st5" d="M119.23,213.83c-0.12-0.59-0.39-1.17-0.63-1.71c-0.51-1.1-1.27-2.13-2.17-2.93c-0.7-0.62-1.48-1.16-2.34-1.54
			c-0.48-0.21-0.92-0.33-1.44-0.19c-0.43,0.12-0.91,0.46-1.12,0.86c-0.23,0.44-0.35,0.96-0.19,1.44c0.14,0.44,0.43,0.93,0.86,1.12
			c0.56,0.25,1.09,0.56,1.57,0.93c-0.13-0.1-0.25-0.2-0.38-0.29c0.5,0.39,0.94,0.83,1.33,1.33c-0.1-0.13-0.2-0.25-0.29-0.38
			c0.42,0.54,0.77,1.13,1.03,1.76c-0.06-0.15-0.13-0.3-0.19-0.45c0.14,0.34,0.27,0.69,0.35,1.04c0.09,0.44,0.48,0.9,0.86,1.12
			c0.4,0.24,0.99,0.33,1.44,0.19c0.45-0.15,0.89-0.43,1.12-0.86C119.29,214.81,119.33,214.35,119.23,213.83L119.23,213.83z"/>
	</g>
</g>
<g>
	<g>
		<path class="st5" d="M68.99,214.83c0.07-0.36,0.21-0.71,0.35-1.04c-0.06,0.15-0.13,0.3-0.19,0.45c0.27-0.63,0.62-1.22,1.03-1.76
			c-0.1,0.13-0.2,0.25-0.29,0.38c0.39-0.5,0.83-0.94,1.33-1.33c-0.13,0.1-0.25,0.2-0.38,0.29c0.49-0.37,1.01-0.68,1.57-0.93
			c0.4-0.18,0.75-0.72,0.86-1.12c0.12-0.45,0.07-1.05-0.19-1.44c-0.26-0.4-0.64-0.75-1.12-0.86c-0.17-0.02-0.33-0.04-0.5-0.07
			c-0.34,0-0.65,0.09-0.95,0.26c-2.4,1.07-4.21,3.24-5.01,5.71c-0.05,0.15-0.1,0.31-0.13,0.47c-0.1,0.5-0.07,1,0.19,1.44
			c0.23,0.39,0.67,0.76,1.12,0.86c0.48,0.11,1.02,0.09,1.44-0.19C68.52,215.7,68.89,215.31,68.99,214.83L68.99,214.83z"/>
	</g>
</g>
<g>
	<g>
		<path class="st5" d="M117.59,169.63c2.57,1.19,5.16,2.53,7.47,4.17c0.13,0.09,0.25,0.19,0.38,0.28c0.22,0.16,0.07,0.06-0.08-0.06
			c0.12,0.09,0.24,0.19,0.36,0.28c0.58,0.47,1.15,0.95,1.71,1.45c3.9,3.5,7.21,7.64,9.77,12.22c2.06,3.68,3.57,7.6,4.55,11.69
			c0.56,2.35,4.18,1.35,3.62-1c-2.61-10.87-9.12-21.23-18.16-27.92c-2.36-1.75-5.06-3.13-7.72-4.36
			C117.3,165.39,115.39,168.62,117.59,169.63L117.59,169.63z"/>
	</g>
</g>
<g>
	<g>
		<path class="st5" d="M116.3,227.34c-8,0.72-16.04,0.32-24.06,0.33c-7.97,0.01-15.92,0.37-23.86-0.51
			c-1.01-0.11-1.88,0.94-1.88,1.88c0,1.11,0.86,1.76,1.88,1.88c7.94,0.88,15.89,0.53,23.86,0.51c8.02-0.01,16.06,0.39,24.06-0.33
			C118.69,230.87,118.71,227.12,116.3,227.34L116.3,227.34z"/>
	</g>
</g>
<g>
	<g>
		<path class="st5" d="M69.02,165.56c-4.59,1.81-8.9,4.21-12.58,7.5c-4.32,3.86-8,8.55-10.76,13.65c-2.21,4.08-3.84,8.46-4.82,13
			c-0.51,2.35,3.11,3.36,3.62,1c1.49-6.9,4.54-13.43,8.94-18.96c1.53-1.92,3.2-3.74,5-5.41c0.62-0.58,1.25-1.14,1.9-1.67
			c0.23-0.19,0.46-0.38,0.7-0.56c0.26-0.21-0.37,0.27-0.04,0.04c0.09-0.07,0.18-0.14,0.27-0.2c2.7-1.93,5.69-3.54,8.77-4.75
			c0.94-0.37,1.6-1.26,1.31-2.31C71.07,165.97,69.97,165.18,69.02,165.56L69.02,165.56z"/>
	</g>
</g>
<g>
	<g>
		<path class="st5" d="M31.97,197.77c4.49,1.15,8.64,3.81,12.43,6.4c3.85,2.63,7.41,5.65,10.67,8.98c3.22,3.3,6.17,6.9,8.63,10.79
			c2.13,3.37,4.4,8.82,0.63,11.97c-3.77,3.15-9.32,1.18-13.37-0.25c-4.33-1.53-8.55-3.35-12.57-5.59
			c-3.97-2.21-7.71-4.83-10.97-8.01c-3.3-3.22-6.4-7.09-7.76-11.56c-1.15-3.79-1.02-8.92,2.46-11.52
			C24.9,196.91,28.77,197.01,31.97,197.77c2.35,0.55,3.35-3.06,1-3.62c-3.82-0.9-7.97-0.94-11.54,0.87
			c-3.86,1.96-5.78,5.98-6.12,10.15c-0.47,5.66,2.31,11.02,5.71,15.35c3.21,4.09,7.18,7.51,11.51,10.37
			c4.38,2.9,9.14,5.17,14.02,7.1c5.02,1.98,10.82,4.4,16.27,2.82c5.36-1.56,8-6.54,7.06-11.92c-0.91-5.21-4.79-9.89-8.07-13.86
			c-3.78-4.58-8.11-8.65-12.86-12.21c-4.73-3.55-10.18-7.19-15.97-8.67C30.63,193.56,29.63,197.17,31.97,197.77z"/>
	</g>
</g>
<g>
	<g>
		<path class="st5" d="M152.23,194.15c-5.18,1.32-10.01,4.41-14.33,7.47c-4.34,3.07-8.37,6.58-11.96,10.49
			c-3.56,3.88-7.27,8.29-9.43,13.14c-2.14,4.81-1.98,10.76,2.65,14.05c4.7,3.32,10.71,1.86,15.69,0.11
			c5.01-1.76,9.94-3.85,14.55-6.5c4.55-2.61,8.84-5.79,12.43-9.64c3.64-3.9,6.97-8.67,7.85-14.04c0.82-5.02-0.43-10.48-4.76-13.53
			C161.27,193.15,156.38,193.17,152.23,194.15c-2.35,0.55-1.35,4.17,1,3.62c2.88-0.68,6.2-0.84,8.88,0.62
			c3.15,1.71,4.23,5.28,4.06,8.69c-0.24,4.72-3.03,9.05-6.05,12.51c-2.99,3.43-6.52,6.31-10.35,8.74
			c-3.94,2.49-8.15,4.52-12.48,6.21c-4.21,1.64-9.32,3.99-13.89,2.67c-4.62-1.33-5.29-6.07-3.64-10.05
			c1.75-4.22,5.02-8.09,8.02-11.48c3.4-3.83,7.21-7.33,11.36-10.34c4.22-3.06,8.99-6.27,14.09-7.57
			C155.56,197.17,154.57,193.55,152.23,194.15z"/>
	</g>
</g>
<g>
	<g>
		<path class="st5" d="M140.76,133.33c-0.03,8.51-2.04,17.22-8.04,23.56c-5.64,5.95-13.57,8.88-21.48,10.3
			c-4.74,0.85-9.56,1.15-14.37,1.17c-5.06,0.02-10.12,0.04-15.16-0.5c-8.13-0.86-16.69-3.04-23.22-8.21
			c-6.49-5.13-9.94-12.79-10.79-20.91c-1.05-10.02,0.76-20.33,5.71-29.15c4.66-8.3,11.85-14.95,20.5-18.94
			c4.32-1.99,9.03-3.27,13.76-3.77c4.91-0.51,10.11-0.5,14.99,0.28c9.45,1.53,18.24,6,24.95,12.83
			c6.86,6.99,11.19,16.08,12.65,25.74C140.63,128.27,140.77,130.81,140.76,133.33c-0.01,2.41,3.74,2.42,3.75,0
			c0.02-10.75-3.1-21.48-9.44-30.23c-6.05-8.36-14.61-14.66-24.44-17.85c-4.99-1.62-10.27-2.4-15.51-2.36
			c-5.34,0.04-10.54,0.36-15.71,1.8c-9.87,2.75-18.74,8.68-25.05,16.75c-6.64,8.5-10.29,18.97-10.66,29.74
			c-0.33,9.53,1.59,19.29,7.75,26.82c5.57,6.81,13.98,10.58,22.42,12.4c4.94,1.06,10.01,1.55,15.06,1.68
			c5.35,0.14,10.77,0.15,16.11-0.32c9.04-0.79,18.46-2.92,25.91-8.37c7.31-5.35,11.66-13.33,12.99-22.23
			c0.39-2.6,0.57-5.21,0.58-7.83C144.52,130.92,140.77,130.92,140.76,133.33z"/>
	</g>
</g>
<g>
	<g>
		<path class="st5" d="M40.12,73.37c10.42,2.83,19.68,9.75,24.05,19.78c0.41,0.94,1.76,1.13,2.57,0.67
			c0.96-0.55,1.08-1.64,0.67-2.57c-4.74-10.86-15.05-18.45-26.3-21.5C38.78,69.12,37.79,72.74,40.12,73.37L40.12,73.37z"/>
	</g>
</g>
<g>
	<g>
		<path class="st5" d="M81.82,86.03c-0.88-10.17-3.47-20.46-7.16-29.94c-3.07-7.89-7.12-15.51-12.84-21.82
			c-6.5-7.17-16.04-13.31-26.09-11.69c-9.48,1.52-16.84,9.83-20.58,18.19c-2.97,6.62-4.58,14.18-5.48,21.36
			c-0.72,5.7-1.23,13.25,2.94,17.86c5.37,5.93,15.17,1.61,20.77-1.56c6.65-3.76,11.86-9.61,14.28-16.89
			c1.32-3.96,1.86-8.35,1.39-12.52c-0.04-0.37-0.09-0.74-0.15-1.11c-0.42-2.37-4.04-1.37-3.62,1c0.11,0.63-0.03-0.48,0.02,0.17
			c0.05,0.58,0.11,1.16,0.13,1.74c0.03,0.87,0.02,1.74-0.02,2.61c-0.07,1.25-0.16,2.01-0.32,2.96c-1.04,6.02-3.97,11.33-8.65,15.38
			c-3.31,2.87-7.34,4.93-11.47,6.34c-1.59,0.54-3.22,0.99-4.85,1.04c-0.67,0.02-1.35-0.02-1.72-0.09c-0.27-0.05-0.54-0.12-0.8-0.2
			c-0.14-0.04-0.28-0.09-0.42-0.14c-0.52-0.19,0.3,0.16-0.19-0.08c-0.25-0.12-0.49-0.26-0.73-0.41c-0.37-0.23-0.07-0.01-0.34-0.25
			c-0.49-0.43-0.8-0.79-0.97-1.05c-0.76-1.12-0.98-1.73-1.32-3.01c-0.71-2.66-0.71-5.5-0.52-8.41c0.39-5.96,1.79-11.9,3.45-17.65
			c2.41-8.33,7.81-17.18,16.22-20.57c8.84-3.56,18.02,1.38,24.35,7.52c5.61,5.43,9.65,12.28,12.74,19.4
			c2.78,6.39,4.77,13.15,6.25,19.95c0.53,2.45,1,4.92,1.38,7.4c0.07,0.47,0.14,0.95,0.21,1.43c0.03,0.21,0.06,0.42,0.09,0.63
			c-0.07-0.48,0-0.03,0.02,0.19c0.07,0.55,0.14,1.1,0.2,1.66c0.02,0.19,0.04,0.39,0.06,0.58C78.28,88.42,82.03,88.44,81.82,86.03
			L81.82,86.03z"/>
	</g>
</g>
<g>
	<g>
		<path class="st5" d="M120.85,91.1c4.43-9.94,13.61-16.79,23.98-19.6c2.33-0.63,1.34-4.25-1-3.62
			c-11.2,3.04-21.42,10.55-26.22,21.32c-0.42,0.93-0.26,2,0.67,2.57C119.08,92.25,120.44,92.03,120.85,91.1L120.85,91.1z"/>
	</g>
</g>
<g>
	<g>
		<path class="st5" d="M136.05,46.04c-1.76,9.85,2.69,20.57,10.25,26.87c3.74,3.11,8.09,5.36,12.68,6.93
			c3.18,1.09,6.89,1.78,10.12,0.49c5.9-2.37,6.76-9.62,6.58-15.17c-0.21-6.58-1.67-13.15-3.46-19.47
			c-2.61-9.23-8.1-18.56-16.97-22.99c-4.22-2.11-8.87-2.75-13.51-1.86c-5.36,1.02-10.25,3.98-14.37,7.46
			c-6.47,5.45-11.22,12.78-14.74,20.4c-5.03,10.9-8.17,22.89-9.44,34.83c-0.02,0.21-0.05,0.43-0.06,0.64c-0.21,2.4,3.54,2.39,3.75,0
			c0.06-0.75,0.16-1.49,0.25-2.24c0.02-0.14,0.11-0.79,0.02-0.19c0.03-0.21,0.06-0.42,0.09-0.63c0.07-0.48,0.14-0.95,0.21-1.43
			c0.18-1.15,0.37-2.29,0.58-3.43c1.18-6.42,2.84-12.77,5.06-18.9c2.61-7.2,6.09-14.3,10.94-20.27
			c5.43-6.68,13.54-13.26,22.62-12.89c8.72,0.36,15.54,7.79,19.18,15.09c1.71,3.41,2.73,7.09,3.66,10.77
			c0.77,3.05,1.43,6.14,1.89,9.25c0.44,2.97,0.69,6.11,0.5,9.15c-0.08,1.34-0.22,2.38-0.61,3.77c-0.34,1.22-0.59,1.87-1.37,2.96
			c-0.04,0.05-0.22,0.28-0.01,0.02c-0.09,0.11-0.18,0.21-0.27,0.31c-0.17,0.18-0.35,0.35-0.53,0.52c-0.36,0.33,0.02,0.04-0.41,0.31
			c-0.26,0.16-0.53,0.32-0.81,0.45c-0.3,0.14,0.41-0.15-0.11,0.04c-0.11,0.04-0.22,0.08-0.33,0.11c-0.29,0.09-0.59,0.16-0.89,0.22
			c-0.44,0.09-1.11,0.12-1.83,0.09c-3.89-0.16-8.03-2.1-11.41-4.03c-5.92-3.38-10.57-8.65-12.57-15.06
			c-0.76-2.44-1.08-4.33-1.21-6.62c-0.08-1.46-0.02-2.89,0.1-4.34c0.05-0.62-0.09,0.47,0.02-0.17
			C140.09,44.68,136.48,43.67,136.05,46.04L136.05,46.04z"/>
	</g>
</g>
<ellipse class="st3" cx="92.41" cy="140.47" rx="6.41" ry="3.99"/>
<g>
	<g>
		<g>
			<path class="st5" d="M66.07,117.4c4.13,1.87,8.26,3.75,12.38,5.62c0.59,0.27,1.18,0.54,1.77,0.8c0.92,0.42,2.02,0.26,2.57-0.67
				c0.47-0.8,0.25-2.15-0.67-2.57c-4.13-1.87-8.26-3.75-12.38-5.62c-0.59-0.27-1.18-0.54-1.77-0.8c-0.92-0.42-2.02-0.26-2.57,0.67
				C64.93,115.64,65.14,116.98,66.07,117.4L66.07,117.4z"/>
		</g>
	</g>
	<circle class="st5" cx="74.66" cy="123.29" r="3.81"/>
</g>
<g>
	<g>
		<g>
			<path class="st5" d="M116.58,114.16c-4.13,1.87-8.26,3.75-12.38,5.62c-0.59,0.27-1.18,0.54-1.77,0.8
				c-0.92,0.42-1.15,1.76-0.67,2.57c0.55,0.95,1.64,1.09,2.57,0.67c4.13-1.87,8.26-3.75,12.38-5.62c0.59-0.27,1.18-0.54,1.77-0.8
				c0.92-0.42,1.15-1.76,0.67-2.57C118.59,113.89,117.51,113.74,116.58,114.16L116.58,114.16z"/>
		</g>
	</g>
	<circle class="st5" cx="109.89" cy="123.29" r="3.81"/>
</g>
<g>
	<g>
		<path d="M84.44,154.31c4.58,0,9.15,0,13.73,0c0.65,0,1.29,0,1.94,0c2.41,0,2.42-3.75,0-3.75c-4.58,0-9.15,0-13.73,0
			c-0.65,0-1.29,0-1.94,0C82.03,150.56,82.02,154.31,84.44,154.31L84.44,154.31z"/>
	</g>
</g>
<g>
	<g>
		<path d="M150.36,83.19c0.62,1.95,0.94,3.91,1.18,5.86c0.05,0.49,0.11,0.98,0.14,1.46c0.02,0.25,0.05,0.47,0.05,0.75
			c0,0.31,0.01,0.62-0.04,0.92c-0.12,1.24-0.66,2.43-1.47,3.38c-0.41,0.48-0.89,0.88-1.41,1.23c-0.53,0.33-1.1,0.59-1.7,0.75
			c-0.6,0.14-1.22,0.25-1.83,0.21c-0.57-0.02-1-0.08-1.51-0.13c-1.95-0.23-3.91-0.55-5.86-1.18c1.95-0.62,3.91-0.95,5.86-1.18
			l1.42-0.15c0.37-0.04,0.72-0.15,1.05-0.28c0.66-0.27,1.25-0.69,1.7-1.22c0.46-0.53,0.79-1.17,0.94-1.87
			c0.05-0.17,0.07-0.35,0.09-0.53l0.06-0.71c0.04-0.49,0.09-0.98,0.14-1.46C149.42,87.09,149.74,85.14,150.36,83.19z"/>
	</g>
	<g>
		<path d="M155.57,83.19c0.62,1.95,0.94,3.91,1.18,5.86c0.05,0.49,0.11,0.98,0.14,1.46l0.06,0.71c0.03,0.18,0.04,0.36,0.09,0.53
			c0.15,0.7,0.49,1.34,0.94,1.87c0.45,0.54,1.04,0.95,1.7,1.22c0.33,0.12,0.68,0.23,1.05,0.28l1.42,0.15
			c1.95,0.23,3.91,0.55,5.86,1.18c-1.95,0.62-3.91,0.95-5.86,1.18c-0.51,0.05-0.93,0.12-1.51,0.13c-0.61,0.04-1.23-0.07-1.83-0.21
			c-0.6-0.17-1.17-0.43-1.7-0.75c-0.52-0.35-1-0.75-1.41-1.23c-0.81-0.95-1.35-2.15-1.47-3.38c-0.04-0.31-0.04-0.62-0.04-0.92
			c0-0.29,0.03-0.5,0.05-0.75c0.04-0.49,0.09-0.98,0.14-1.46C154.63,87.09,154.95,85.14,155.57,83.19z"/>
	</g>
	<g>
		<path d="M150.36,114.42c-0.62-1.95-0.94-3.91-1.18-5.86c-0.05-0.49-0.11-0.98-0.14-1.46l-0.06-0.71
			c-0.03-0.18-0.04-0.36-0.09-0.53c-0.15-0.7-0.49-1.34-0.94-1.87c-0.45-0.54-1.04-0.95-1.7-1.22c-0.33-0.12-0.68-0.23-1.05-0.28
			l-1.42-0.15c-1.95-0.23-3.91-0.55-5.86-1.18c1.95-0.62,3.91-0.95,5.86-1.18c0.51-0.05,0.93-0.12,1.51-0.13
			c0.61-0.04,1.23,0.07,1.83,0.21c0.6,0.17,1.17,0.43,1.7,0.75c0.52,0.35,1,0.75,1.41,1.23c0.81,0.95,1.35,2.15,1.47,3.38
			c0.04,0.31,0.04,0.62,0.04,0.92c0,0.29-0.03,0.5-0.05,0.75c-0.04,0.49-0.09,0.98-0.14,1.46
			C151.3,110.52,150.98,112.47,150.36,114.42z"/>
	</g>
	<g>
		<path d="M155.57,114.42c-0.62-1.95-0.94-3.91-1.18-5.86c-0.05-0.49-0.11-0.98-0.14-1.46c-0.02-0.25-0.05-0.47-0.05-0.75
			c0-0.31-0.01-0.62,0.04-0.92c0.12-1.24,0.66-2.43,1.47-3.38c0.41-0.48,0.89-0.88,1.41-1.23c0.53-0.33,1.1-0.59,1.7-0.75
			c0.6-0.14,1.22-0.25,1.83-0.21c0.57,0.02,1,0.08,1.51,0.13c1.95,0.23,3.91,0.55,5.86,1.18c-1.95,0.62-3.91,0.95-5.86,1.18
			l-1.42,0.15c-0.37,0.04-0.72,0.15-1.05,0.28c-0.66,0.27-1.25,0.69-1.7,1.22c-0.46,0.53-0.79,1.17-0.94,1.87
			c-0.05,0.17-0.07,0.35-0.09,0.53l-0.06,0.71c-0.04,0.49-0.09,0.98-0.14,1.46C156.51,110.52,156.19,112.47,155.57,114.42z"/>
	</g>
</g>
</svg>
