<?xml version="1.0" encoding="utf-8"?>
<!-- Generator: Adobe Illustrator 25.1.0, SVG Export Plug-In . SVG Version: 6.00 Build 0)  -->
<svg version="1.1" id="Calque_1" xmlns="http://www.w3.org/2000/svg" xmlns:xlink="http://www.w3.org/1999/xlink" x="0px" y="0px"
	 viewBox="0 0 195.26 270.97" style="enable-background:new 0 0 195.26 270.97;" xml:space="preserve">
<style type="text/css">
	.st0{fill:#00D1FF;}
	.st1{fill:#FFFFFF;stroke:#50333C;stroke-width:0.75;stroke-miterlimit:10;}
	.st2{fill:#FFD8B6;}
	.st3{fill:#FFFFFF;}
	.st4{fill:#50333C;}
	.st5{fill:#222122;}
	.st6{fill:#FF3542;}
	.st7{fill:#191919;}
	.st8{fill:#00F14D;}
	.st9{fill:#211F1F;}
	.st10{fill:#FF7A00;}
	.st11{fill:#231F20;}
	.st12{fill:#F27320;}
</style>
<circle class="st0" cx="92.67" cy="181.83" r="67.01"/>
<path class="st1" d="M144,200.28c-0.55-1.22-0.63-2.66-0.24-3.95l-4.73-8.89l-6.43-10.53l-16.32-8.4l-17.03,2.19L72.47,169
	l-6.38-0.99l-18.2,18.53l-4.86,11.7c0.32,1.05,0.32,2.2,0,3.26c0.83,4.7,0.33,9.99,2.04,14.51c3.62,9.57,11.38,12.39,21,12.91
	c1.04,0.06,2.12,0.48,3.01,1.14l0.4-1.02l45.88,1.33c0.8-0.9,1.99-1.48,3.6-1.44c2.06,0.04,4.27,0.08,6.48,0.02
	c0.77-1.3,2.13-2.24,4.1-2.24c0.34,0,0.66,0.03,0.96,0.09c2.3-2.4,5.02-4.45,7.4-6.72c0.08-0.65,0.27-1.3,0.58-1.91
	c0.7-1.39,1.54-2.7,2.3-4.07c0.11-0.19,0.21-0.39,0.31-0.59c-0.15-1.26,0.18-2.55,0.94-3.62c0.01-0.04,0.02-0.07,0.03-0.11
	c0.24-1.26,0.91-2.15,1.77-2.73C143.85,204.78,143.71,202.48,144,200.28z"/>
<path class="st2" d="M43.98,203.2c0,0,46.36,42.42,98.64,0l-4.69,16.86l-10.23,6.79l-7.24,0.46l-14.8,1.22l-7.64,1.12l-9.69-1.06
	l-4.88,0.49l-10.31-1.46l-14.28,1.32l-3.91-2.92l-10.96-11.67V203.2z"/>
<polygon class="st1" points="78.76,169.18 110.82,170.12 128.42,163.17 139.26,151.13 142.62,135.77 138.3,113.28 129.26,99.88 
	114.34,88.62 98.3,84.97 83.59,86.03 66.48,92.2 53.97,105.98 47.95,119.27 45.2,135.18 50.79,154.15 61.35,164.2 "/>
<polygon class="st1" points="68.29,92.2 79.35,85.79 76.98,71.56 71.35,55.1 62.59,38.09 50.23,27.34 36.05,24.16 24.32,30.75 
	17.63,39.87 13.47,54.3 12.73,61.69 11.99,70.98 13.85,78.57 17.48,81.32 30.58,77.77 38.34,72.55 45.67,74.15 53.19,78.9 
	61.07,86.03 "/>
<polygon class="st3" points="116.77,90.64 105.71,84.23 108.08,70 113.71,53.54 122.47,36.53 134.83,25.78 149.01,22.6 
	160.74,29.19 167.43,38.3 171.6,52.74 172.34,60.13 173.08,69.42 171.22,77.01 167.59,79.76 154.48,76.21 146.73,70.99 
	139.39,72.59 131.88,77.34 124,84.47 "/>
<path class="st2" d="M72.9,89.65c0,0-12.77-35.68-25.22-42.51l-2.16,13.92l-2.96,7.78l-0.45,1.82l7.1,2.61l12.49,10.3l5.53,8.2
	L72.9,89.65z"/>
<path class="st2" d="M112.36,89.65c0,0,12.77-37.55,25.22-44.38l2.16,15.79l2.96,7.78l0.45,1.82l-7.1,2.61l-12.49,10.3l-5.53,8.2
	L112.36,89.65z"/>
<path class="st2" d="M143.06,127.75c-0.19-0.88-0.16-1.81,0.1-2.67c-1.89-1.87-2.55-4.34-3.13-6.94c-0.81-3.61-2.28-7.07-3.8-10.43
	c-2.34-5.19-5.24-10.76-10.94-12.4c6.08,7.51,12.57,20.59,11.63,41.79c-1.44,32.6-54.72,30.4-72.82,28.7
	c2.23,1.03,4.64,1.88,7.02,2.11c1.54,0.15,2.93,0.84,3.78,1.98c0.53,0.07,1.01,0.22,1.43,0.43c0.25-0.04,0.5-0.06,0.77-0.06
	c0.83,0,1.53,0.19,2.13,0.5c4.39-0.46,8.72,0.47,13.11,0.55c0.37,0.01,0.71,0.05,1.03,0.12c0.24-0.04,0.48-0.06,0.72-0.07
	c2.7-0.02,5.4-0.19,8.1-0.22c0.54-0.23,1.16-0.36,1.86-0.36c0.44,0,0.85,0.06,1.22,0.15c0.49-0.17,1.03-0.28,1.64-0.28
	c0.34,0,0.65,0.03,0.95,0.09c4.39-1.54,8.75-2.93,13.35-3.6l8.18-3.96c0.36-2.05,1.88-3.86,4.56-3.87c0-0.01,0.01-0.01,0.01-0.02
	c2.4-3.63,5.75-7.08,6.96-11.34c0.26-0.9,0.68-1.6,1.22-2.12l1.64-12.16C142.35,132.12,142.11,129.62,143.06,127.75z"/>
<path class="st4" d="M79.98,144.78"/>
<g>
	<g>
		<path class="st5" d="M119.21,213.83c-0.12-0.59-0.39-1.17-0.63-1.71c-0.51-1.1-1.27-2.13-2.17-2.93c-0.7-0.62-1.48-1.16-2.34-1.54
			c-0.48-0.21-0.92-0.33-1.44-0.19c-0.43,0.12-0.91,0.46-1.12,0.86c-0.23,0.44-0.35,0.96-0.19,1.44c0.14,0.44,0.43,0.93,0.86,1.12
			c0.56,0.25,1.09,0.56,1.57,0.93c-0.13-0.1-0.25-0.2-0.38-0.29c0.5,0.39,0.94,0.83,1.33,1.33c-0.1-0.13-0.2-0.25-0.29-0.38
			c0.42,0.54,0.77,1.13,1.03,1.76c-0.06-0.15-0.13-0.3-0.19-0.45c0.14,0.34,0.27,0.69,0.35,1.04c0.09,0.44,0.48,0.9,0.86,1.12
			c0.4,0.24,0.99,0.33,1.44,0.19c0.45-0.15,0.89-0.43,1.12-0.86C119.27,214.81,119.32,214.35,119.21,213.83L119.21,213.83z"/>
	</g>
</g>
<g>
	<g>
		<path class="st5" d="M68.97,214.83c0.07-0.36,0.21-0.71,0.35-1.04c-0.06,0.15-0.13,0.3-0.19,0.45c0.27-0.63,0.62-1.22,1.03-1.76
			c-0.1,0.13-0.2,0.25-0.29,0.38c0.39-0.5,0.83-0.94,1.33-1.33c-0.13,0.1-0.25,0.2-0.38,0.29c0.49-0.37,1.01-0.68,1.57-0.93
			c0.4-0.18,0.75-0.72,0.86-1.12c0.12-0.45,0.07-1.05-0.19-1.44c-0.26-0.4-0.64-0.75-1.12-0.86c-0.17-0.02-0.33-0.04-0.5-0.07
			c-0.34,0-0.65,0.09-0.95,0.26c-2.4,1.07-4.21,3.24-5.01,5.71c-0.05,0.15-0.1,0.31-0.13,0.47c-0.1,0.5-0.07,1,0.19,1.44
			c0.23,0.39,0.67,0.76,1.12,0.86c0.48,0.11,1.02,0.09,1.44-0.19C68.5,215.7,68.87,215.31,68.97,214.83L68.97,214.83z"/>
	</g>
</g>
<g>
	<g>
		<path class="st5" d="M117.57,169.63c1.22,0.56,2.41,1.16,3.58,1.81c1.26,0.69,2.44,1.58,3.71,2.24c0.41,0.21-0.33-0.27-0.04-0.03
			c0.25,0.21,0.5,0.4,0.75,0.61c2.14,1.76,4.14,3.7,6.01,5.75c5.42,5.96,10.14,13.6,10,21.92c-0.04,2.39-0.27,3.82-0.85,6.19
			c-0.69,2.84-1.64,5.34-3.07,7.83c-3.62,6.27-9.78,10.16-16.96,11.12c-2.74,0.37-5.52,0.24-8.27,0.37
			c-2.95,0.13-5.9,0.39-8.85,0.32c-3.07-0.08-6.1-0.63-9.18-0.66c-3.28-0.04-6.53,0.27-9.79,0.57c-2.91,0.27-5.85,0.02-8.76-0.17
			c-3.06-0.2-6.12-0.24-9.18-0.37c-3.69-0.16-7.42-0.93-10.69-2.68c-5.04-2.69-8.28-7.39-9.92-12.55c-0.37-1.16-0.67-2.34-0.91-3.54
			c-0.1-0.51-0.19-1.02-0.27-1.54c-0.02-0.12-0.13-0.9-0.07-0.42c-0.04-0.29-0.07-0.59-0.1-0.88c-0.16-1.47-0.24-2.96-0.21-4.44
			c0.01-0.49,0.04-0.96,0.08-1.45c0.01-0.14,0.03-0.27,0.05-0.4c-0.08,0.69,0,0.04,0.02-0.11c0.08-0.44,0.15-0.87,0.24-1.31
			c0.27-1.27,0.61-2.52,1.03-3.75c2.83-8.44,9-16.08,16.46-20.89c2.41-1.56,4.95-2.92,7.62-3.98c0.94-0.37,1.6-1.26,1.31-2.31
			c-0.25-0.9-1.36-1.68-2.31-1.31c-10.29,4.05-19.2,11.85-24.27,21.73c-2.03,3.97-3.66,8.44-3.96,12.93
			c-0.56,8.68,2.37,18.64,9.03,24.47c2.81,2.46,6.17,4.18,9.77,5.14c5.22,1.39,10.69,1.03,16.03,1.39c2.98,0.2,6,0.45,8.99,0.19
			c3.51-0.32,6.99-0.64,10.52-0.55c3.1,0.07,6.16,0.65,9.27,0.66c3.32,0.01,6.64-0.31,9.96-0.4c5.05-0.14,9.86-0.43,14.56-2.45
			c3.46-1.48,6.58-3.76,9.02-6.63c4.1-4.81,6.4-10.88,7.18-17.11c1.01-8.04-1.97-15.8-6.59-22.28c-3.23-4.53-7.2-8.95-11.76-12.21
			c-2.24-1.61-4.79-2.89-7.29-4.05C117.28,165.39,115.38,168.62,117.57,169.63L117.57,169.63z"/>
	</g>
</g>
<g>
	<g>
		<path class="st5" d="M140.75,133.33c-0.03,8.51-2.04,17.22-8.04,23.56c-5.64,5.95-13.57,8.88-21.48,10.3
			c-4.74,0.85-9.56,1.15-14.37,1.17c-5.06,0.02-10.12,0.04-15.16-0.5c-8.13-0.86-16.69-3.04-23.22-8.21
			c-6.49-5.13-9.94-12.79-10.79-20.91c-1.05-10.02,0.76-20.33,5.71-29.15c4.66-8.3,11.85-14.95,20.5-18.94
			c4.32-1.99,9.03-3.27,13.76-3.77c4.91-0.51,10.11-0.5,14.99,0.28c9.45,1.53,18.24,6,24.95,12.83
			c6.86,6.99,11.19,16.08,12.65,25.74C140.61,128.27,140.75,130.81,140.75,133.33c-0.01,2.41,3.74,2.42,3.75,0
			c0.02-10.75-3.1-21.48-9.44-30.23c-6.05-8.36-14.61-14.66-24.44-17.85c-4.99-1.62-10.27-2.4-15.51-2.36
			c-5.34,0.04-10.54,0.36-15.71,1.8c-9.87,2.75-18.74,8.68-25.05,16.75c-6.64,8.5-10.29,18.97-10.66,29.74
			c-0.33,9.53,1.59,19.29,7.75,26.82c5.57,6.81,13.98,10.58,22.42,12.4c4.94,1.06,10.01,1.55,15.06,1.68
			c5.35,0.14,10.77,0.15,16.11-0.32c9.04-0.79,18.46-2.92,25.91-8.37c7.31-5.35,11.66-13.33,12.99-22.23
			c0.39-2.6,0.57-5.21,0.58-7.83C144.5,130.92,140.75,130.92,140.75,133.33z"/>
	</g>
</g>
<g>
	<g>
		<path class="st5" d="M40.1,73.37c10.42,2.83,19.68,9.75,24.05,19.78c0.41,0.94,1.76,1.13,2.57,0.67c0.96-0.55,1.08-1.64,0.67-2.57
			c-4.74-10.86-15.05-18.45-26.3-21.5C38.77,69.12,37.77,72.74,40.1,73.37L40.1,73.37z"/>
	</g>
</g>
<g>
	<g>
		<path class="st5" d="M81.8,86.03c-0.88-10.17-3.47-20.46-7.16-29.94c-3.07-7.89-7.12-15.51-12.84-21.82
			c-6.5-7.17-16.04-13.31-26.09-11.69c-9.48,1.52-16.84,9.83-20.58,18.19c-2.97,6.62-4.58,14.18-5.48,21.36
			c-0.72,5.7-1.23,13.25,2.94,17.86c5.37,5.93,15.17,1.61,20.77-1.56c6.65-3.76,11.86-9.61,14.28-16.89
			c1.32-3.96,1.86-8.35,1.39-12.52c-0.04-0.37-0.09-0.74-0.15-1.11c-0.42-2.37-4.04-1.37-3.62,1c0.11,0.63-0.03-0.48,0.02,0.17
			c0.05,0.58,0.11,1.16,0.13,1.74c0.03,0.87,0.02,1.74-0.02,2.61c-0.07,1.25-0.16,2.01-0.32,2.96c-1.04,6.02-3.97,11.33-8.65,15.38
			c-3.31,2.87-7.34,4.93-11.47,6.34c-1.59,0.54-3.22,0.99-4.85,1.04c-0.67,0.02-1.35-0.02-1.72-0.09c-0.27-0.05-0.54-0.12-0.8-0.2
			c-0.14-0.04-0.28-0.09-0.42-0.14c-0.52-0.19,0.3,0.16-0.19-0.08c-0.25-0.12-0.49-0.26-0.73-0.41c-0.37-0.23-0.07-0.01-0.34-0.25
			c-0.49-0.43-0.8-0.79-0.97-1.05c-0.76-1.12-0.98-1.73-1.32-3.01c-0.71-2.66-0.71-5.5-0.52-8.41c0.39-5.96,1.79-11.9,3.45-17.65
			c2.41-8.33,7.81-17.18,16.22-20.57c8.84-3.56,18.02,1.38,24.35,7.52c5.61,5.43,9.65,12.28,12.74,19.4
			c2.78,6.39,4.77,13.15,6.25,19.95c0.53,2.45,1,4.92,1.38,7.4c0.07,0.47,0.14,0.95,0.21,1.43c0.03,0.21,0.06,0.42,0.09,0.63
			c-0.07-0.48,0-0.03,0.02,0.19c0.07,0.55,0.14,1.1,0.2,1.66c0.02,0.19,0.04,0.39,0.06,0.58C78.26,88.42,82.01,88.44,81.8,86.03
			L81.8,86.03z"/>
	</g>
</g>
<g>
	<g>
		<path class="st5" d="M120.83,91.1c4.43-9.94,13.61-16.79,23.98-19.6c2.33-0.63,1.34-4.25-1-3.62
			c-11.2,3.04-21.42,10.55-26.22,21.32c-0.42,0.93-0.26,2,0.67,2.57C119.06,92.25,120.42,92.03,120.83,91.1L120.83,91.1z"/>
	</g>
</g>
<g>
	<g>
		<path class="st5" d="M136.03,46.04c-1.76,9.85,2.69,20.57,10.25,26.87c3.74,3.11,8.09,5.36,12.68,6.93
			c3.18,1.09,6.89,1.78,10.12,0.49c5.9-2.37,6.76-9.62,6.58-15.17c-0.21-6.58-1.67-13.15-3.46-19.47
			c-2.61-9.23-8.1-18.56-16.97-22.99c-4.22-2.11-8.87-2.75-13.51-1.86c-5.36,1.02-10.25,3.98-14.37,7.46
			c-6.47,5.45-11.22,12.78-14.74,20.4c-5.03,10.9-8.17,22.89-9.44,34.83c-0.02,0.21-0.05,0.43-0.06,0.64c-0.21,2.4,3.54,2.39,3.75,0
			c0.06-0.75,0.16-1.49,0.25-2.24c0.02-0.14,0.11-0.79,0.02-0.19c0.03-0.21,0.06-0.42,0.09-0.63c0.07-0.48,0.14-0.95,0.21-1.43
			c0.18-1.15,0.37-2.29,0.58-3.43c1.18-6.42,2.84-12.77,5.06-18.9c2.61-7.2,6.09-14.3,10.94-20.27
			c5.43-6.68,13.54-13.26,22.62-12.89c8.72,0.36,15.54,7.79,19.18,15.09c1.71,3.41,2.73,7.09,3.66,10.77
			c0.77,3.05,1.43,6.14,1.89,9.25c0.44,2.97,0.69,6.11,0.5,9.15c-0.08,1.34-0.22,2.38-0.61,3.77c-0.34,1.22-0.59,1.87-1.37,2.96
			c-0.04,0.05-0.22,0.28-0.01,0.02c-0.09,0.11-0.18,0.21-0.27,0.31c-0.17,0.18-0.35,0.35-0.53,0.52c-0.36,0.33,0.02,0.04-0.41,0.31
			c-0.26,0.16-0.53,0.32-0.81,0.45c-0.3,0.14,0.41-0.15-0.11,0.04c-0.11,0.04-0.22,0.08-0.33,0.11c-0.29,0.09-0.59,0.16-0.89,0.22
			c-0.44,0.09-1.11,0.12-1.83,0.09c-3.89-0.16-8.03-2.1-11.41-4.03c-5.92-3.38-10.57-8.65-12.57-15.06
			c-0.76-2.44-1.08-4.33-1.21-6.62c-0.08-1.46-0.02-2.89,0.1-4.34c0.05-0.62-0.09,0.47,0.02-0.17
			C140.07,44.68,136.46,43.67,136.03,46.04L136.03,46.04z"/>
	</g>
</g>
<polygon class="st3" points="61.54,227.48 54.53,233.23 55.39,234.81 57.76,236.7 82.97,235.99 87.14,235.44 87.14,232.62 
	81.08,229.14 74.87,227.04 "/>
<polygon class="st3" points="105.97,227.48 98.96,233.23 99.82,234.81 102.19,236.7 127.39,235.99 131.57,235.44 131.57,232.62 
	125.5,229.14 119.29,227.04 "/>
<ellipse class="st2" cx="92.66" cy="136.57" rx="6.41" ry="3.99"/>
<polygon class="st6" points="78.01,154.33 93.66,150.31 105.62,151.45 107.61,155.68 102.87,156.95 93.66,158.14 86.82,157.29 
	81.06,156.57 78.65,155.81 76.28,154.22 "/>
<g>
	<g>
		<path class="st7" d="M111.26,153.53c-6.13,2.6-12.76,3.9-19.42,3.74c-3.31-0.08-6.6-0.51-9.82-1.29
			c-1.58-0.38-3.13-0.84-4.66-1.38c-1.49-0.53-3.18-1.01-4.35-2.11c-0.87-0.81-1.52-2.09-1.19-3.3c0.36-1.3,1.4-2.93,2.65-3.49
			c1.52-0.69,2.89-0.2,4.33,0.38c1.51,0.61,3.06,1.12,4.63,1.52c6.07,1.57,12.51,1.6,18.59,0.11c1.87-0.46,3.69-1.08,5.47-1.8
			c1.48-0.6,3.09-0.87,4.49,0.11c0.76,0.54,1.15,1.39,1.6,2.18c0.35,0.61,0.62,1.16,0.55,1.88
			C113.99,151.73,112.65,152.89,111.26,153.53c-0.73,0.34-0.09,1.42,0.63,1.08c2.18-1.01,4.19-3.46,3.28-6
			c-0.97-2.71-3.15-4.85-6.18-4.46c-1.78,0.23-3.48,1.23-5.19,1.76c-1.82,0.56-3.69,0.99-5.58,1.27c-4.08,0.6-8.28,0.5-12.32-0.3
			c-1.88-0.37-3.73-0.88-5.53-1.53c-1.58-0.57-3.05-1.4-4.78-1.22c-1.34,0.14-2.58,0.75-3.41,1.83c-0.78,1.01-1.65,2.4-1.7,3.72
			c-0.11,2.95,2.48,4.55,4.87,5.5c3.58,1.42,7.34,2.4,11.16,2.91c8.62,1.17,17.38-0.09,25.38-3.49
			C112.63,154.3,111.99,153.22,111.26,153.53z"/>
	</g>
</g>
<path class="st5" d="M77.57,155.3c0,0,13.2-5.08,29.53,0l3.17-0.93l2.79-1.95l1.14-2.24l-0.34-2.04l-1.23-1.68l-1.36-1.14
	l-3.73,0.25l-4.23,1.06l-6.99,1.51l-10.71-0.67l-5.25-1.69l-3.94-0.47l-3.09,0.47l-1.82,1.86l0.3,2.46l0.47,2.03l3.6,2.92
	L77.57,155.3z"/>
<path class="st4" d="M80.26,142.18"/>
<g>
	<g>
		<path class="st5" d="M106.9,118.29c3.97-2.39,8.74-2.39,12.72,0c2.07,1.25,3.96-1.99,1.89-3.24c-5.06-3.04-11.44-3.04-16.5,0
			C102.94,116.3,104.82,119.54,106.9,118.29L106.9,118.29z"/>
	</g>
</g>
<g>
	<g>
		<path class="st5" d="M67.71,118.29c3.97-2.39,8.74-2.39,12.72,0c2.07,1.25,3.96-1.99,1.89-3.24c-5.06-3.04-11.44-3.04-16.5,0
			C63.75,116.3,65.63,119.54,67.71,118.29L67.71,118.29z"/>
	</g>
</g>
<polygon class="st3" points="125.5,178.72 135.02,170.12 139.13,165.89 145.78,165.89 149.31,172.31 148.47,176.92 137.4,188.52 
	128.53,185.9 "/>
<g>
	<g>
		<path class="st5" d="M135.72,193.59c2.46-2.46,4.91-4.91,7.37-7.37c1.53-1.53,3.06-3.06,4.59-4.59c1.15-1.15,2.36-2.27,3.13-3.73
			c1.7-3.26,1.53-7.36-0.64-10.36c-2.18-3.03-5.82-4.63-9.53-4.11c-4.31,0.61-7.13,4.32-10.03,7.22c-2.91,2.91-5.81,5.81-8.72,8.72
			c-1.71,1.71,0.94,4.36,2.65,2.65c4.42-4.42,8.73-8.98,13.28-13.27c2.19-2.07,5.7-2.25,8.07-0.36c2.24,1.8,3.01,5.05,1.68,7.62
			c-0.6,1.16-1.58,2.01-2.49,2.92c-1.4,1.4-2.81,2.81-4.21,4.21c-2.6,2.6-5.2,5.2-7.8,7.8C131.36,192.65,134.01,195.3,135.72,193.59
			L135.72,193.59z"/>
	</g>
</g>
<rect x="55.79" y="232.75" class="st2" width="31.35" height="3.95"/>
<rect x="99.59" y="232.75" class="st2" width="31.35" height="3.95"/>
<g>
	<g>
		<path class="st5" d="M71.44,224.97c-4.61,0.03-9.43,0.91-13.42,3.31c-3.05,1.83-5.62,4.71-5.7,8.42
			c-0.02,1.01,0.88,1.88,1.88,1.88c10.05,0,20.09,0,30.14,0c1.45,0,2.9,0,4.35,0c1,0,1.9-0.86,1.88-1.88
			c-0.08-3.72-2.65-6.6-5.7-8.42C80.87,225.88,76.05,225,71.44,224.97c-2.41-0.02-2.42,3.73,0,3.75c3.75,0.03,7.64,0.65,10.96,2.47
			c2.09,1.14,4.36,2.97,4.41,5.51c0.62-0.62,1.25-1.25,1.88-1.88c-10.05,0-20.09,0-30.14,0c-1.45,0-2.9,0-4.35,0
			c0.62,0.62,1.25,1.25,1.88,1.88c0.05-2.54,2.32-4.37,4.41-5.51c3.33-1.82,7.21-2.44,10.96-2.47
			C73.85,228.7,73.86,224.95,71.44,224.97z"/>
	</g>
</g>
<g>
	<g>
		<path class="st5" d="M115.26,224.97c-4.61,0.03-9.43,0.91-13.42,3.31c-3.05,1.83-5.62,4.71-5.7,8.42
			c-0.02,1.01,0.88,1.88,1.88,1.88c10.05,0,20.09,0,30.14,0c1.45,0,2.9,0,4.35,0c1,0,1.9-0.86,1.88-1.88
			c-0.08-3.72-2.65-6.6-5.7-8.42C124.69,225.88,119.87,225,115.26,224.97c-2.41-0.02-2.42,3.73,0,3.75
			c3.75,0.03,7.64,0.65,10.96,2.47c2.09,1.14,4.36,2.97,4.41,5.51c0.62-0.62,1.25-1.25,1.88-1.88c-10.05,0-20.09,0-30.14,0
			c-1.45,0-2.9,0-4.35,0c0.62,0.62,1.25,1.25,1.88,1.88c0.05-2.54,2.32-4.37,4.41-5.51c3.33-1.82,7.21-2.44,10.96-2.47
			C117.67,228.7,117.68,224.95,115.26,224.97z"/>
	</g>
</g>
<g>
	<g>
		<path class="st8" d="M174.78,133.72c-6.8-0.96-12.37-0.92-16.94-0.26c0.09-0.09,0.17-0.17,0.26-0.26
			c9.78-9.78,15.78-19.63,13.4-22.01c-2.38-2.38-12.23,3.62-22.01,13.4c-0.09,0.09-0.17,0.17-0.26,0.26
			c0.66-4.57,0.7-10.14-0.26-16.94c-4.69-33.23-18.17,33.39-18.17,33.39l3.81,3.81c0,0,0.36-0.08,0.97-0.29
			c-0.05,0.77,0.11,1.38,0.51,1.77c0.39,0.39,1,0.55,1.77,0.51c-0.22,0.61-0.29,0.97-0.29,0.97l3.81,3.81
			C141.38,151.89,208.01,138.41,174.78,133.72z"/>
		<path class="st9" d="M140.86,153.63l-5.03-5.03l0.05-0.24c-0.4-0.18-0.7-0.42-0.92-0.63c-0.22-0.22-0.45-0.52-0.63-0.92
			l-0.24,0.05l-5.03-5.03l0.17-0.84c0.02-0.11,2.21-10.89,5.09-21.51c5.39-19.86,8.49-22.53,11.04-22.45
			c2.59,0.08,4.14,3.27,5.18,10.66c0.66,4.67,0.89,9.03,0.68,13c3.89-3.61,7.79-6.65,11.21-8.73c5.06-3.08,8.39-3.71,10.19-1.91
			s1.17,5.13-1.91,10.19c-2.08,3.42-5.12,7.31-8.73,11.21c3.98-0.2,8.33,0.02,13,0.68l-0.22,1.58l0.22-1.58
			c7.4,1.04,10.58,2.59,10.66,5.18c0.08,2.55-2.59,5.66-22.45,11.04c-10.62,2.88-21.4,5.07-21.51,5.09L140.86,153.63z
			 M137.32,142.52l-0.14,2.41c-0.02,0.38,0.04,0.53,0.05,0.56c0.01-0.01,0.16,0.06,0.54,0.03l2.41-0.14l-0.8,2.26l2.53,2.53
			c2.64-0.55,11.1-2.36,19.63-4.65c17.66-4.73,20.44-7.39,20.87-8.05c-0.36-0.33-1.89-1.32-7.85-2.16l0,0
			c-6.15-0.87-11.7-0.96-16.48-0.26l-4.78,0.69l3.68-3.66c4.48-4.48,8.31-9.13,10.79-13.1c2.81-4.51,2.77-6.4,2.6-6.66
			c-0.24-0.15-2.13-0.19-6.64,2.62c-3.97,2.48-8.62,6.31-13.1,10.79l-3.66,3.68l0.69-4.78c0.69-4.79,0.6-10.33-0.26-16.48
			c-0.84-5.96-1.83-7.5-2.16-7.85c-0.66,0.43-3.32,3.21-8.05,20.87c-2.28,8.53-4.09,17-4.65,19.63l2.53,2.53L137.32,142.52z"/>
	</g>
	<g>
		<path class="st10" d="M157.12,161.49l-35.91-35.91c-3.75-3.75-10.05-2.86-12.62,1.78l-30.51,55.2c0.51,0.41,0.95,0.95,1.28,1.62
			c0.22,0.13,0.17,0.07,0.19,0.24c0.14,0.16,0.27,0.34,0.4,0.47c0.63,0.62,1.27,1.21,1.94,1.79c1.51,1.33,3.08,2.59,4.55,3.96
			c2.86,2.68,6,6.37,4.85,10.61c-1.46,5.4-7.67,6.44-11.97,3.87c-3.62-2.17-5.85-5.74-8.87-8.55c-0.02-0.02-0.04-0.05-0.07-0.07
			l-7.04,12.74c-3.64,6.59,3.61,13.84,10.2,10.19l81.81-45.33C159.98,171.53,160.87,165.23,157.12,161.49z"/>
		<path class="st11" d="M158.25,160.36l-35.91-35.91c-2.15-2.15-5.1-3.13-8.1-2.71c-3,0.42-5.57,2.19-7.04,4.85l-30.51,55.19
			c0.99,0.36,1.89,1.04,2.5,2.08l30.8-55.72c0.98-1.77,2.69-2.95,4.69-3.23c2-0.28,3.97,0.38,5.4,1.81l35.91,35.91
			c1.43,1.43,2.09,3.4,1.81,5.4c-0.28,2-1.46,3.71-3.22,4.69l-81.81,45.33c-2.87,1.59-5.59,0.46-7.04-0.99c0,0,0,0,0,0
			c-1.45-1.45-2.58-4.16-0.99-7.04l6.82-12.35c-0.36-0.37-0.73-0.74-1.11-1.1c-0.5-0.47-0.86-0.97-1.12-1.48l-7.39,13.37
			c-2.01,3.64-1.41,7.89,1.53,10.84c0,0,0,0,0,0c2.95,2.94,7.2,3.54,10.84,1.52l81.81-45.33c2.65-1.47,4.42-4.04,4.84-7.04
			C161.38,165.45,160.39,162.5,158.25,160.36z"/>
	</g>
	<g>
		<line class="st12" x1="104.65" y1="134.5" x2="132.39" y2="162.24"/>
		<polygon class="st11" points="105.78,133.37 132.39,162.24 103.52,135.62 		"/>
	</g>
	<g>
		<line class="st12" x1="138.38" y1="182.78" x2="110.64" y2="155.03"/>
		<polygon class="st11" points="137.25,183.9 110.64,155.03 139.51,181.65 		"/>
	</g>
	<g>
		<line class="st12" x1="94.17" y1="151.74" x2="118.53" y2="176.1"/>
		<polygon class="st11" points="95.3,150.62 118.53,176.1 93.04,152.87 		"/>
	</g>
	<g>
		<line class="st12" x1="120.57" y1="192.69" x2="96.77" y2="168.89"/>
		<polygon class="st11" points="119.44,193.82 96.77,168.89 121.7,191.56 		"/>
	</g>
	<g>
		<line class="st12" x1="85.54" y1="170.53" x2="103.97" y2="188.97"/>
		<polygon class="st11" points="86.67,169.41 103.97,188.97 84.41,171.66 		"/>
	</g>
	<g>
		<line class="st12" x1="102.9" y1="202.45" x2="88.71" y2="188.25"/>
		<polygon class="st11" points="101.78,203.58 88.71,188.25 104.03,201.32 		"/>
	</g>
	<g>
		<path class="st12" d="M85.37,212.64c-2.55-2.55-5.1-5.1-7.65-7.65"/>
		<polygon class="st11" points="84.25,213.77 74.84,202.11 86.5,211.51 		"/>
	</g>
</g>
<g>
	<g>
		<path d="M74.49,181.09c4.44,4.44,8.97,8.82,13.34,13.34c2.02,2.09,2.41,5.27,0.82,7.74c-1.57,2.45-4.77,3.43-7.47,2.37
			c-1.32-0.52-2.24-1.54-3.21-2.52c-1.38-1.38-2.75-2.75-4.13-4.13c-2.63-2.63-5.25-5.25-7.88-7.88c-1.71-1.71-4.36,0.94-2.65,2.65
			c2.48,2.48,4.96,4.96,7.44,7.44c1.5,1.5,3.01,3.01,4.51,4.51c1.26,1.26,2.49,2.48,4.16,3.22c3.47,1.53,7.48,0.96,10.41-1.44
			c2.86-2.34,4.08-6.18,3.33-9.77c-0.83-3.96-4.64-6.83-7.36-9.56c-2.88-2.88-5.77-5.77-8.65-8.65
			C75.44,176.73,72.78,179.38,74.49,181.09L74.49,181.09z"/>
	</g>
</g>
</svg>
