<?xml version="1.0" encoding="utf-8"?>
<!-- Generator: Adobe Illustrator 25.1.0, SVG Export Plug-In . SVG Version: 6.00 Build 0)  -->
<svg version="1.1" id="Calque_1" xmlns="http://www.w3.org/2000/svg" xmlns:xlink="http://www.w3.org/1999/xlink" x="0px" y="0px"
	 viewBox="0 0 195.26 270.97" style="enable-background:new 0 0 195.26 270.97;" xml:space="preserve">
<style type="text/css">
	.st0{fill:#211D77;}
	.st1{fill:#FFFFFF;stroke:#50333C;stroke-width:0.75;stroke-miterlimit:10;}
	.st2{fill:#FFD8B6;}
	.st3{fill:#FFFFFF;}
	.st4{fill:#161616;}
	.st5{fill:#50333C;}
	.st6{fill:#222122;}
	.st7{fill:#FF3542;}
	.st8{fill:none;stroke:#222122;stroke-miterlimit:10;}
	.st9{fill:#F4F4F4;}
	.st10{fill:#C6C6C6;}
	.st11{stroke:#000000;stroke-width:0.5;stroke-miterlimit:10;}
</style>
<circle class="st0" cx="92.69" cy="181.83" r="67.01"/>
<path class="st1" d="M144.01,200.28c-0.55-1.22-0.63-2.66-0.24-3.95l-4.73-8.89l-6.43-10.53l-16.32-8.4l-17.03,2.19L72.49,169
	l-6.38-0.99l-18.2,18.53l-4.86,11.7c0.32,1.05,0.32,2.2,0,3.26c0.83,4.7,0.33,9.99,2.04,14.51c3.62,9.57,11.38,12.39,21,12.91
	c1.04,0.06,2.12,0.48,3.01,1.14l0.4-1.02l45.88,1.33c0.8-0.9,1.99-1.48,3.6-1.44c2.06,0.04,4.27,0.08,6.48,0.02
	c0.77-1.3,2.13-2.24,4.1-2.24c0.34,0,0.66,0.03,0.96,0.09c2.3-2.4,5.02-4.45,7.4-6.72c0.08-0.65,0.27-1.3,0.58-1.91
	c0.7-1.39,1.54-2.7,2.3-4.07c0.11-0.19,0.21-0.39,0.31-0.59c-0.15-1.26,0.18-2.55,0.94-3.62c0.01-0.04,0.02-0.07,0.03-0.11
	c0.24-1.26,0.91-2.15,1.77-2.73C143.87,204.78,143.73,202.48,144.01,200.28z"/>
<path class="st2" d="M140.06,212.08c-1.28,0-2.63-0.56-3.54-1.46c-0.39-0.4-0.78-0.82-1.12-1.27c-37.77,25.42-71.36,8.62-84.94-0.56
	c-0.03,0.05-0.06,0.1-0.09,0.15c-0.44,0.75-1.04,1.35-1.79,1.79c-0.4,0.17-0.8,0.34-1.19,0.5c-0.89,0.24-1.77,0.24-2.66,0
	c-0.22-0.09-0.44-0.18-0.65-0.28v4.1l10.96,11.67l3.91,2.92l14.28-1.32l10.31,1.46l4.88-0.49l9.69,1.06l7.64-1.12l14.8-1.22
	l7.24-0.46l10.23-6.79l2.43-8.72C140.33,212.07,140.19,212.08,140.06,212.08z"/>
<g>
	<g>
		<polyline class="st3" points="167.55,89.59 176.32,91.15 165.65,100.26 174.42,101.82 		"/>
		<g>
			<path class="st4" d="M167.22,90.79c2.92,0.52,5.85,1.04,8.77,1.56c-0.18-0.7-0.37-1.39-0.55-2.09c-3.11,2.66-6.23,5.31-9.34,7.97
				c-0.44,0.38-0.89,0.76-1.33,1.14c-0.68,0.58-0.35,1.93,0.55,2.09c2.92,0.52,5.85,1.04,8.77,1.56c0.66,0.12,1.35-0.18,1.54-0.87
				c0.17-0.6-0.2-1.42-0.87-1.54c-2.92-0.52-5.85-1.04-8.77-1.56c0.18,0.7,0.37,1.39,0.55,2.09c3.11-2.66,6.23-5.31,9.34-7.97
				c0.44-0.38,0.89-0.76,1.33-1.14c0.68-0.58,0.35-1.93-0.55-2.09c-2.92-0.52-5.85-1.04-8.77-1.56c-0.66-0.12-1.35,0.18-1.54,0.87
				C166.18,89.86,166.55,90.67,167.22,90.79L167.22,90.79z"/>
		</g>
	</g>
	<g>
		<polyline class="st3" points="157.95,105.88 165.62,105.88 157.95,115.22 165.62,115.22 		"/>
		<g>
			<path class="st4" d="M157.95,107.13c2.56,0,5.11,0,7.67,0c-0.29-0.71-0.59-1.42-0.88-2.13c-2.24,2.73-4.48,5.45-6.72,8.18
				c-0.32,0.39-0.64,0.77-0.95,1.16c-0.32,0.39-0.48,0.87-0.26,1.37c0.2,0.45,0.63,0.77,1.14,0.77c2.56,0,5.11,0,7.67,0
				c1.61,0,1.61-2.5,0-2.5c-2.56,0-5.11,0-7.67,0c0.29,0.71,0.59,1.42,0.88,2.13c2.24-2.73,4.48-5.45,6.72-8.18
				c0.32-0.39,0.64-0.77,0.95-1.16c0.32-0.39,0.48-0.87,0.26-1.37c-0.2-0.45-0.63-0.77-1.14-0.77c-2.56,0-5.11,0-7.67,0
				C156.34,104.63,156.33,107.13,157.95,107.13L157.95,107.13z"/>
		</g>
	</g>
	<g>
		<polyline class="st3" points="150.85,118.68 156.51,118.68 150.85,125.57 156.51,125.57 		"/>
		<g>
			<path class="st4" d="M150.85,119.93c1.89,0,3.77,0,5.66,0c-0.29-0.71-0.59-1.42-0.88-2.13c-1.65,2.01-3.3,4.02-4.95,6.03
				c-0.23,0.29-0.47,0.57-0.7,0.86c-0.33,0.4-0.47,0.87-0.26,1.37c0.19,0.45,0.64,0.77,1.14,0.77c1.89,0,3.77,0,5.66,0
				c0.65,0,1.28-0.57,1.25-1.25c-0.03-0.68-0.55-1.25-1.25-1.25c-1.89,0-3.77,0-5.66,0c0.29,0.71,0.59,1.42,0.88,2.13
				c1.65-2.01,3.3-4.02,4.95-6.03c0.23-0.29,0.47-0.57,0.7-0.86c0.33-0.4,0.47-0.87,0.26-1.37c-0.19-0.45-0.64-0.77-1.14-0.77
				c-1.89,0-3.77,0-5.66,0c-0.65,0-1.28,0.57-1.25,1.25C149.63,119.36,150.15,119.93,150.85,119.93L150.85,119.93z"/>
		</g>
	</g>
</g>
<polygon class="st1" points="78.78,169.18 110.83,170.12 128.44,163.17 139.27,151.13 142.64,135.77 138.32,113.28 129.27,99.88 
	114.36,88.62 98.31,84.97 83.61,86.03 66.5,92.2 53.99,105.98 47.97,119.27 45.22,135.18 50.81,154.15 61.37,164.2 "/>
<polygon class="st1" points="68.31,92.2 79.37,85.79 77,71.56 71.37,55.1 62.61,38.09 50.25,27.34 36.07,24.16 24.34,30.75 
	17.65,39.87 13.48,54.3 12.75,61.69 12.01,70.98 13.87,78.57 17.5,81.32 30.6,77.77 38.36,72.55 45.69,74.15 53.21,78.9 
	61.08,86.03 "/>
<polygon class="st3" points="116.79,90.64 105.73,84.23 108.1,70 113.73,53.54 122.49,36.53 134.85,25.78 149.03,22.6 160.76,29.19 
	167.45,38.3 171.62,52.74 172.36,60.13 173.1,69.42 171.24,77.01 167.61,79.76 154.5,76.21 146.75,70.99 139.41,72.59 131.9,77.34 
	124.02,84.47 "/>
<path class="st2" d="M72.91,89.65c0,0-12.77-35.68-25.22-42.51l-2.16,13.92l-2.96,7.78l-0.45,1.82l7.1,2.61l12.49,10.3l5.53,8.2
	L72.91,89.65z"/>
<path class="st2" d="M112.38,89.65c0,0,12.77-37.55,25.22-44.38l2.16,15.79l2.96,7.78l0.45,1.82l-7.1,2.61l-12.49,10.3l-5.53,8.2
	L112.38,89.65z"/>
<path class="st2" d="M143.08,127.75c-0.19-0.88-0.16-1.81,0.1-2.67c-1.89-1.87-2.55-4.34-3.13-6.94c-0.81-3.61-2.28-7.07-3.8-10.43
	c-2.34-5.19-5.24-10.76-10.94-12.4c6.08,7.51,12.57,20.59,11.63,41.79c-1.44,32.6-54.72,30.4-72.82,28.7
	c2.23,1.03,4.64,1.88,7.02,2.11c1.54,0.15,2.93,0.84,3.78,1.98c0.53,0.07,1.01,0.22,1.43,0.43c0.25-0.04,0.5-0.06,0.77-0.06
	c0.83,0,1.53,0.19,2.13,0.5c4.39-0.46,8.72,0.47,13.11,0.55c0.37,0.01,0.71,0.05,1.03,0.12c0.24-0.04,0.48-0.06,0.72-0.07
	c2.7-0.02,5.4-0.19,8.1-0.22c0.54-0.23,1.16-0.36,1.86-0.36c0.44,0,0.85,0.06,1.22,0.15c0.49-0.17,1.03-0.28,1.64-0.28
	c0.34,0,0.65,0.03,0.95,0.09c4.39-1.54,8.75-2.93,13.35-3.6l8.18-3.96c0.36-2.05,1.88-3.86,4.56-3.87c0-0.01,0.01-0.01,0.01-0.02
	c2.4-3.63,5.75-7.08,6.96-11.34c0.26-0.9,0.68-1.6,1.22-2.12l1.64-12.16C142.37,132.12,142.13,129.62,143.08,127.75z"/>
<path class="st5" d="M80,144.78"/>
<g>
	<g>
		<path class="st6" d="M119.23,213.83c-0.12-0.59-0.39-1.17-0.63-1.71c-0.51-1.1-1.27-2.13-2.17-2.93c-0.7-0.62-1.48-1.16-2.34-1.54
			c-0.48-0.21-0.92-0.33-1.44-0.19c-0.43,0.12-0.91,0.46-1.12,0.86c-0.23,0.44-0.35,0.96-0.19,1.44c0.14,0.44,0.43,0.93,0.86,1.12
			c0.56,0.25,1.09,0.56,1.57,0.93c-0.13-0.1-0.25-0.2-0.38-0.29c0.5,0.39,0.94,0.83,1.33,1.33c-0.1-0.13-0.2-0.25-0.29-0.38
			c0.42,0.54,0.77,1.13,1.03,1.76c-0.06-0.15-0.13-0.3-0.19-0.45c0.14,0.34,0.27,0.69,0.35,1.04c0.09,0.44,0.48,0.9,0.86,1.12
			c0.4,0.24,0.99,0.33,1.44,0.19c0.45-0.15,0.89-0.43,1.12-0.86C119.29,214.81,119.33,214.35,119.23,213.83L119.23,213.83z"/>
	</g>
</g>
<g>
	<g>
		<path class="st6" d="M68.99,214.83c0.07-0.36,0.21-0.71,0.35-1.04c-0.06,0.15-0.13,0.3-0.19,0.45c0.27-0.63,0.62-1.22,1.03-1.76
			c-0.1,0.13-0.2,0.25-0.29,0.38c0.39-0.5,0.83-0.94,1.33-1.33c-0.13,0.1-0.25,0.2-0.38,0.29c0.49-0.37,1.01-0.68,1.57-0.93
			c0.4-0.18,0.75-0.72,0.86-1.12c0.12-0.45,0.07-1.05-0.19-1.44c-0.26-0.4-0.64-0.75-1.12-0.86c-0.17-0.02-0.33-0.04-0.5-0.07
			c-0.34,0-0.65,0.09-0.95,0.26c-2.4,1.07-4.21,3.24-5.01,5.71c-0.05,0.15-0.1,0.31-0.13,0.47c-0.1,0.5-0.07,1,0.19,1.44
			c0.23,0.39,0.67,0.76,1.12,0.86c0.48,0.11,1.02,0.09,1.44-0.19C68.52,215.7,68.89,215.31,68.99,214.83L68.99,214.83z"/>
	</g>
</g>
<g>
	<g>
		<path class="st6" d="M117.59,169.63c1.22,0.56,2.41,1.16,3.58,1.81c1.26,0.69,2.44,1.58,3.71,2.24c0.41,0.21-0.33-0.27-0.04-0.03
			c0.25,0.21,0.5,0.4,0.75,0.61c2.14,1.76,4.14,3.7,6.01,5.75c5.42,5.96,10.14,13.6,10,21.92c-0.04,2.39-0.27,3.82-0.85,6.19
			c-0.69,2.84-1.64,5.34-3.07,7.83c-3.62,6.27-9.78,10.16-16.96,11.12c-2.74,0.37-5.52,0.24-8.27,0.37
			c-2.95,0.13-5.9,0.39-8.85,0.32c-3.07-0.08-6.1-0.63-9.18-0.66c-3.28-0.04-6.53,0.27-9.79,0.57c-2.91,0.27-5.85,0.02-8.76-0.17
			c-3.06-0.2-6.12-0.24-9.18-0.37c-3.69-0.16-7.42-0.93-10.69-2.68c-5.04-2.69-8.28-7.39-9.92-12.55c-0.37-1.16-0.67-2.34-0.91-3.54
			c-0.1-0.51-0.19-1.02-0.27-1.54c-0.02-0.12-0.13-0.9-0.07-0.42c-0.04-0.29-0.07-0.59-0.1-0.88c-0.16-1.47-0.24-2.96-0.21-4.44
			c0.01-0.49,0.04-0.96,0.08-1.45c0.01-0.14,0.03-0.27,0.05-0.4c-0.08,0.69,0,0.04,0.02-0.11c0.08-0.44,0.15-0.87,0.24-1.31
			c0.27-1.27,0.61-2.52,1.03-3.75c2.83-8.44,9-16.08,16.46-20.89c2.41-1.56,4.95-2.92,7.62-3.98c0.94-0.37,1.6-1.26,1.31-2.31
			c-0.25-0.9-1.36-1.68-2.31-1.31c-10.29,4.05-19.2,11.85-24.27,21.73c-2.03,3.97-3.66,8.44-3.96,12.93
			c-0.56,8.68,2.37,18.64,9.03,24.47c2.81,2.46,6.17,4.18,9.77,5.14c5.22,1.39,10.69,1.03,16.03,1.39c2.98,0.2,6,0.45,8.99,0.19
			c3.51-0.32,6.99-0.64,10.52-0.55c3.1,0.07,6.16,0.65,9.27,0.66c3.32,0.01,6.64-0.31,9.96-0.4c5.05-0.14,9.86-0.43,14.56-2.45
			c3.46-1.48,6.58-3.76,9.02-6.63c4.1-4.81,6.4-10.88,7.18-17.11c1.01-8.04-1.97-15.8-6.59-22.28c-3.23-4.53-7.2-8.95-11.76-12.21
			c-2.24-1.61-4.79-2.89-7.29-4.05C117.3,165.39,115.39,168.62,117.59,169.63L117.59,169.63z"/>
	</g>
</g>
<g>
	<g>
		<path class="st6" d="M140.76,133.33c-0.03,8.51-2.04,17.22-8.04,23.56c-5.64,5.95-13.57,8.88-21.48,10.3
			c-4.74,0.85-9.56,1.15-14.37,1.17c-5.06,0.02-10.12,0.04-15.16-0.5c-8.13-0.86-16.69-3.04-23.22-8.21
			c-6.49-5.13-9.94-12.79-10.79-20.91c-1.05-10.02,0.76-20.33,5.71-29.15c4.66-8.3,11.85-14.95,20.5-18.94
			c4.32-1.99,9.03-3.27,13.76-3.77c4.91-0.51,10.11-0.5,14.99,0.28c9.45,1.53,18.24,6,24.95,12.83
			c6.86,6.99,11.19,16.08,12.65,25.74C140.63,128.27,140.77,130.81,140.76,133.33c-0.01,2.41,3.74,2.42,3.75,0
			c0.02-10.75-3.1-21.48-9.44-30.23c-6.05-8.36-14.61-14.66-24.44-17.85c-4.99-1.62-10.27-2.4-15.51-2.36
			c-5.34,0.04-10.54,0.36-15.71,1.8c-9.87,2.75-18.74,8.68-25.05,16.75c-6.64,8.5-10.29,18.97-10.66,29.74
			c-0.33,9.53,1.59,19.29,7.75,26.82c5.57,6.81,13.98,10.58,22.42,12.4c4.94,1.06,10.01,1.55,15.06,1.68
			c5.35,0.14,10.77,0.15,16.11-0.32c9.04-0.79,18.46-2.92,25.91-8.37c7.31-5.35,11.66-13.33,12.99-22.23
			c0.39-2.6,0.57-5.21,0.58-7.83C144.52,130.92,140.77,130.92,140.76,133.33z"/>
	</g>
</g>
<g>
	<g>
		<path class="st6" d="M40.12,73.37c10.42,2.83,19.68,9.75,24.05,19.78c0.41,0.94,1.76,1.13,2.57,0.67
			c0.96-0.55,1.08-1.64,0.67-2.57c-4.74-10.86-15.05-18.45-26.3-21.5C38.78,69.12,37.79,72.74,40.12,73.37L40.12,73.37z"/>
	</g>
</g>
<g>
	<g>
		<path class="st6" d="M81.82,86.03c-0.88-10.17-3.47-20.46-7.16-29.94c-3.07-7.89-7.12-15.51-12.84-21.82
			c-6.5-7.17-16.04-13.31-26.09-11.69c-9.48,1.52-16.84,9.83-20.58,18.19c-2.97,6.62-4.58,14.18-5.48,21.36
			c-0.72,5.7-1.23,13.25,2.94,17.86c5.37,5.93,15.17,1.61,20.77-1.56c6.65-3.76,11.86-9.61,14.28-16.89
			c1.32-3.96,1.86-8.35,1.39-12.52c-0.04-0.37-0.09-0.74-0.15-1.11c-0.42-2.37-4.04-1.37-3.62,1c0.11,0.63-0.03-0.48,0.02,0.17
			c0.05,0.58,0.11,1.16,0.13,1.74c0.03,0.87,0.02,1.74-0.02,2.61c-0.07,1.25-0.16,2.01-0.32,2.96c-1.04,6.02-3.97,11.33-8.65,15.38
			c-3.31,2.87-7.34,4.93-11.47,6.34c-1.59,0.54-3.22,0.99-4.85,1.04c-0.67,0.02-1.35-0.02-1.72-0.09c-0.27-0.05-0.54-0.12-0.8-0.2
			c-0.14-0.04-0.28-0.09-0.42-0.14c-0.52-0.19,0.3,0.16-0.19-0.08c-0.25-0.12-0.49-0.26-0.73-0.41c-0.37-0.23-0.07-0.01-0.34-0.25
			c-0.49-0.43-0.8-0.79-0.97-1.05c-0.76-1.12-0.98-1.73-1.32-3.01c-0.71-2.66-0.71-5.5-0.52-8.41c0.39-5.96,1.79-11.9,3.45-17.65
			c2.41-8.33,7.81-17.18,16.22-20.57c8.84-3.56,18.02,1.38,24.35,7.52c5.61,5.43,9.65,12.28,12.74,19.4
			c2.78,6.39,4.77,13.15,6.25,19.95c0.53,2.45,1,4.92,1.38,7.4c0.07,0.47,0.14,0.95,0.21,1.43c0.03,0.21,0.06,0.42,0.09,0.63
			c-0.07-0.48,0-0.03,0.02,0.19c0.07,0.55,0.14,1.1,0.2,1.66c0.02,0.19,0.04,0.39,0.06,0.58C78.28,88.42,82.03,88.44,81.82,86.03
			L81.82,86.03z"/>
	</g>
</g>
<g>
	<g>
		<path class="st6" d="M120.85,91.1c4.43-9.94,13.61-16.79,23.98-19.6c2.33-0.63,1.34-4.25-1-3.62
			c-11.2,3.04-21.42,10.55-26.22,21.32c-0.42,0.93-0.26,2,0.67,2.57C119.08,92.25,120.44,92.03,120.85,91.1L120.85,91.1z"/>
	</g>
</g>
<g>
	<g>
		<path class="st6" d="M136.05,46.04c-1.76,9.85,2.69,20.57,10.25,26.87c3.74,3.11,8.09,5.36,12.68,6.93
			c3.18,1.09,6.89,1.78,10.12,0.49c5.9-2.37,6.76-9.62,6.58-15.17c-0.21-6.58-1.67-13.15-3.46-19.47
			c-2.61-9.23-8.1-18.56-16.97-22.99c-4.22-2.11-8.87-2.75-13.51-1.86c-5.36,1.02-10.25,3.98-14.37,7.46
			c-6.47,5.45-11.22,12.78-14.74,20.4c-5.03,10.9-8.17,22.89-9.44,34.83c-0.02,0.21-0.05,0.43-0.06,0.64c-0.21,2.4,3.54,2.39,3.75,0
			c0.06-0.75,0.16-1.49,0.25-2.24c0.02-0.14,0.11-0.79,0.02-0.19c0.03-0.21,0.06-0.42,0.09-0.63c0.07-0.48,0.14-0.95,0.21-1.43
			c0.18-1.15,0.37-2.29,0.58-3.43c1.18-6.42,2.84-12.77,5.06-18.9c2.61-7.2,6.09-14.3,10.94-20.27
			c5.43-6.68,13.54-13.26,22.62-12.89c8.72,0.36,15.54,7.79,19.18,15.09c1.71,3.41,2.73,7.09,3.66,10.77
			c0.77,3.05,1.43,6.14,1.89,9.25c0.44,2.97,0.69,6.11,0.5,9.15c-0.08,1.34-0.22,2.38-0.61,3.77c-0.34,1.22-0.59,1.87-1.37,2.96
			c-0.04,0.05-0.22,0.28-0.01,0.02c-0.09,0.11-0.18,0.21-0.27,0.31c-0.17,0.18-0.35,0.35-0.53,0.52c-0.36,0.33,0.02,0.04-0.41,0.31
			c-0.26,0.16-0.53,0.32-0.81,0.45c-0.3,0.14,0.41-0.15-0.11,0.04c-0.11,0.04-0.22,0.08-0.33,0.11c-0.29,0.09-0.59,0.16-0.89,0.22
			c-0.44,0.09-1.11,0.12-1.83,0.09c-3.89-0.16-8.03-2.1-11.41-4.03c-5.92-3.38-10.57-8.65-12.57-15.06
			c-0.76-2.44-1.08-4.33-1.21-6.62c-0.08-1.46-0.02-2.89,0.1-4.34c0.05-0.62-0.09,0.47,0.02-0.17
			C140.09,44.68,136.48,43.67,136.05,46.04L136.05,46.04z"/>
	</g>
</g>
<polygon class="st3" points="61.56,227.48 54.55,233.23 55.41,234.81 57.78,236.7 82.99,235.99 87.16,235.44 87.16,232.62 
	81.1,229.14 74.89,227.04 "/>
<polygon class="st3" points="105.99,227.48 98.97,233.23 99.84,234.81 102.2,236.7 127.41,235.99 131.59,235.44 131.59,232.62 
	125.52,229.14 119.31,227.04 "/>
<rect x="55.81" y="232.75" class="st2" width="31.35" height="3.95"/>
<rect x="99.6" y="232.75" class="st2" width="31.35" height="3.95"/>
<g>
	<g>
		<path class="st6" d="M71.46,224.97c-4.61,0.03-9.43,0.91-13.42,3.31c-3.05,1.83-5.62,4.71-5.7,8.42
			c-0.02,1.01,0.88,1.88,1.88,1.88c10.05,0,20.09,0,30.14,0c1.45,0,2.9,0,4.35,0c1,0,1.9-0.86,1.88-1.88
			c-0.08-3.72-2.65-6.6-5.7-8.42C80.88,225.88,76.06,225,71.46,224.97c-2.41-0.02-2.42,3.73,0,3.75c3.75,0.03,7.64,0.65,10.96,2.47
			c2.09,1.14,4.36,2.97,4.41,5.51c0.62-0.62,1.25-1.25,1.88-1.88c-10.05,0-20.09,0-30.14,0c-1.45,0-2.9,0-4.35,0
			c0.62,0.62,1.25,1.25,1.88,1.88c0.05-2.54,2.32-4.37,4.41-5.51c3.33-1.82,7.21-2.44,10.96-2.47
			C73.87,228.7,73.88,224.95,71.46,224.97z"/>
	</g>
</g>
<g>
	<g>
		<path class="st6" d="M115.28,224.97c-4.61,0.03-9.43,0.91-13.42,3.31c-3.05,1.83-5.62,4.71-5.7,8.42
			c-0.02,1.01,0.88,1.88,1.88,1.88c10.05,0,20.09,0,30.14,0c1.45,0,2.9,0,4.35,0c1,0,1.9-0.86,1.88-1.88
			c-0.08-3.72-2.65-6.6-5.7-8.42C124.71,225.88,119.89,225,115.28,224.97c-2.41-0.02-2.42,3.73,0,3.75
			c3.75,0.03,7.64,0.65,10.96,2.47c2.09,1.14,4.36,2.97,4.41,5.51c0.62-0.62,1.25-1.25,1.88-1.88c-10.05,0-20.09,0-30.14,0
			c-1.45,0-2.9,0-4.35,0c0.62,0.62,1.25,1.25,1.88,1.88c0.05-2.54,2.32-4.37,4.41-5.51c3.33-1.82,7.21-2.44,10.96-2.47
			C117.69,228.7,117.7,224.95,115.28,224.97z"/>
	</g>
</g>
<g>
	<path class="st5" d="M80.28,142.18"/>
</g>
<g>
	<path class="st5" d="M80.82,145.26"/>
	<g>
		<g>
			<path class="st6" d="M66.16,122.79c5.06,3.04,11.44,3.04,16.5,0c2.07-1.24,0.18-4.49-1.89-3.24c-3.97,2.39-8.74,2.39-12.72,0
				C65.97,118.31,64.09,121.55,66.16,122.79L66.16,122.79z"/>
		</g>
		<g>
			<path class="st6" d="M105.14,122.79c5.06,3.04,11.44,3.04,16.5,0c2.07-1.24,0.18-4.49-1.89-3.24c-3.97,2.39-8.74,2.39-12.72,0
				C104.95,118.31,103.07,121.55,105.14,122.79L105.14,122.79z"/>
		</g>
	</g>
	<path class="st7" d="M85.3,156.42l0.1,1.92l5.03,1.38l6.64-0.35l4.31-1.41l-1.4-2.54c0,0-8.25-1.37-8.34-1.37
		S85.3,156.42,85.3,156.42z"/>
	<ellipse class="st8" cx="93.09" cy="153.68" rx="11.64" ry="6.2"/>
	<path class="st6" d="M84.99,158.14c0,0,7.51-4.74,16.21,0l1.97-1.69l1.63-2.15l-1.06-3.12l-3.41-2.34l-5.58-1.28l-8.66,1.05
		l-3.1,2.26l-1.3,1.59v2.5l1.58,2.08L84.99,158.14z"/>
</g>
<g>
	<circle class="st9" cx="93.25" cy="196.01" r="14.76"/>
	<path class="st10" d="M111.82,195.76c0.01-0.09,0.01-0.14,0.01-0.14h-0.01c-0.53-17.84-18.52-18.18-18.52-18.18
		c-15.48,0-18.12,14.5-18.53,18.13h-0.07c0,0.23,0,0.45,0.01,0.67c-0.01,0.09-0.01,0.14-0.01,0.14h0.01
		c0.53,17.84,18.52,18.18,18.52,18.18c15.48,0,18.12-14.5,18.53-18.13h0.07C111.82,196.21,111.82,195.99,111.82,195.76z
		 M93.22,210.62c-14.12,0-14.69-15.05-14.69-15.05H78.5c0.55-13.56,14.79-14.18,14.79-14.18c14.12,0,14.69,15.05,14.69,15.05h0.03
		C107.46,210,93.22,210.62,93.22,210.62z"/>
	<path class="st11" d="M112.38,196.08c0.01,10.49-8.56,19.08-19.05,19.08c-10.63,0-19.13-8.52-19.14-19.18c0-10.44,8.58-19,19.04-19
		C103.84,176.98,112.37,185.49,112.38,196.08z M75.29,196.09c-0.02,9.85,8.02,17.96,17.85,17.98c10.04,0.02,18.1-7.94,18.14-17.93
		c0.04-9.96-8.03-18.06-18.01-18.07C83.34,178.07,75.31,186.11,75.29,196.09z"/>
	<path class="st11" d="M93.29,211.36c-8.34,0.04-15.25-6.83-15.28-15.2c-0.03-8.45,6.79-15.33,15.22-15.37
		c8.41-0.04,15.3,6.79,15.34,15.21C108.62,204.43,101.76,211.32,93.29,211.36z M93.28,181.89c-7.75-0.02-14.15,6.34-14.18,14.09
		c-0.03,7.87,6.3,14.27,14.14,14.29c7.83,0.02,14.23-6.34,14.24-14.15C107.49,188.27,101.14,181.91,93.28,181.89z"/>
	<path class="st11" d="M93.81,192.28c0,1.19,0.01,2.38-0.01,3.57c0,0.21-0.08,0.48-0.22,0.62c-0.94,0.98-1.91,1.93-2.87,2.89
		c-0.23,0.23-0.5,0.28-0.76,0.07c-0.24-0.19-0.25-0.44-0.1-0.7c0.06-0.1,0.15-0.18,0.23-0.26c0.8-0.81,1.62-1.6,2.41-2.43
		c0.13-0.14,0.24-0.37,0.24-0.56c0.02-2.23,0.01-4.45,0.01-6.68c0-0.1-0.01-0.21,0-0.31c0.03-0.31,0.21-0.5,0.52-0.53
		c0.29-0.03,0.53,0.21,0.55,0.53c0.02,0.32,0.01,0.65,0.01,0.97C93.81,190.41,93.81,191.34,93.81,192.28z"/>
	<g>
		<path class="st11" d="M93.81,185.41c0,0.25,0.01,0.5,0,0.75c-0.02,0.32-0.25,0.53-0.53,0.51c-0.3-0.02-0.49-0.2-0.5-0.51
			c-0.02-0.5-0.02-1,0-1.5c0.01-0.32,0.24-0.53,0.53-0.51c0.31,0.02,0.48,0.21,0.5,0.5C93.82,184.91,93.81,185.16,93.81,185.41z"/>
		<path class="st11" d="M82.61,196.6c-0.24,0-0.47,0.01-0.71,0c-0.31-0.02-0.52-0.18-0.54-0.51c-0.02-0.3,0.21-0.52,0.55-0.53
			c0.47-0.01,0.95-0.01,1.42,0c0.32,0.01,0.52,0.18,0.54,0.51c0.02,0.3-0.21,0.51-0.55,0.53C83.09,196.61,82.85,196.6,82.61,196.6z"
			/>
		<path class="st11" d="M103.96,196.6c-0.25,0-0.5,0.01-0.75,0c-0.32-0.02-0.53-0.25-0.51-0.53c0.02-0.31,0.2-0.49,0.51-0.5
			c0.5-0.02,1-0.02,1.5,0c0.32,0.01,0.53,0.24,0.51,0.53c-0.02,0.31-0.21,0.48-0.51,0.5C104.46,196.61,104.21,196.6,103.96,196.6z"
			/>
		<path class="st11" d="M93.81,206.74c0,0.24,0.01,0.47,0,0.71c-0.02,0.34-0.23,0.57-0.53,0.55c-0.33-0.02-0.5-0.22-0.51-0.54
			c-0.01-0.47-0.01-0.95,0-1.42c0.01-0.35,0.23-0.56,0.53-0.56c0.3,0.01,0.49,0.23,0.51,0.58c0,0.01,0,0.02,0,0.04
			C93.81,206.31,93.81,206.52,93.81,206.74z"/>
		<path class="st11" d="M86.81,189.11c-0.08,0.11-0.14,0.31-0.27,0.37c-0.15,0.07-0.42,0.1-0.51,0.01c-0.44-0.38-0.86-0.8-1.24-1.24
			c-0.09-0.1-0.03-0.46,0.08-0.56c0.13-0.12,0.48-0.19,0.59-0.11c0.45,0.37,0.85,0.81,1.26,1.23
			C86.76,188.86,86.76,188.96,86.81,189.11z"/>
		<path class="st11" d="M100.26,189.61c-0.13-0.1-0.34-0.18-0.39-0.32c-0.06-0.16-0.05-0.43,0.05-0.55c0.34-0.4,0.72-0.76,1.1-1.12
			c0.21-0.19,0.47-0.18,0.68,0.02c0.21,0.2,0.24,0.46,0.05,0.67c-0.36,0.4-0.75,0.77-1.13,1.14
			C100.55,189.53,100.42,189.55,100.26,189.61z"/>
		<path class="st11" d="M86.85,203.07c-0.11,0.19-0.17,0.33-0.26,0.43c-0.31,0.33-0.63,0.64-0.95,0.96
			c-0.27,0.26-0.58,0.27-0.79,0.04c-0.2-0.21-0.18-0.51,0.07-0.77c0.32-0.33,0.63-0.68,0.99-0.97c0.14-0.11,0.4-0.16,0.57-0.11
			C86.62,202.69,86.72,202.91,86.85,203.07z"/>
		<path class="st11" d="M101.9,204.23c-0.09,0.11-0.17,0.3-0.32,0.36c-0.15,0.06-0.41,0.05-0.52-0.04
			c-0.41-0.36-0.81-0.75-1.16-1.17c-0.1-0.12-0.07-0.47,0.04-0.59c0.11-0.13,0.48-0.21,0.58-0.13c0.46,0.38,0.87,0.82,1.29,1.25
			C101.86,203.96,101.85,204.07,101.9,204.23z"/>
	</g>
	<path class="st6" d="M84.48,179.6c-0.08-0.22-0.23-0.42-0.46-0.59c-4.39-3.14-8.78-6.28-13.17-9.41c-0.63-0.45-1.26-0.9-1.89-1.35
		c-1.31-0.94-2.56,1.23-1.26,2.16c4.39,3.14,8.78,6.28,13.17,9.41c0.58,0.42,1.17,0.84,1.75,1.25
		C83.08,180.44,83.7,179.93,84.48,179.6z"/>
	<path class="st6" d="M118.92,168.7c-0.32-0.54-1.16-0.84-1.71-0.45c-4.39,3.14-8.78,6.28-13.17,9.41c-0.63,0.45-1.26,0.9-1.89,1.35
		c-0.22,0.15-0.37,0.36-0.48,0.59c0.91,0.21,1.65,0.65,2.22,1.23c4.23-3.02,8.46-6.05,12.69-9.07c0.63-0.45,1.26-0.9,1.89-1.35
		C119.02,170.01,119.28,169.32,118.92,168.7z"/>
</g>
<g>
	<g>
		<path class="st6" d="M63.01,184.07c-0.47,2.88-1.3,5.74-2.25,8.5c-1.76,5.08-4.3,10.23-8.31,13.96c-2.25,2.09-5.08,3.64-8.16,4.04
			c-1,0.13-1.88,0.77-1.88,1.88c0,0.91,0.86,2.01,1.88,1.88c12.59-1.64,18.82-14.77,21.6-25.79c0.29-1.14,0.56-2.29,0.75-3.45
			c0.16-1.01-0.26-2.01-1.31-2.31C64.42,182.5,63.17,183.07,63.01,184.07L63.01,184.07z"/>
	</g>
</g>
<g>
	<g>
		<path class="st6" d="M117.8,185.07c0.51,3.17,1.45,6.31,2.55,9.32c2.06,5.65,4.99,11.4,9.63,15.37c2.94,2.51,6.33,4.06,10.17,4.56
			c1.01,0.13,1.88-0.96,1.88-1.88c0-1.12-0.87-1.74-1.88-1.88c-5.69-0.74-9.93-5.13-12.73-9.83c-2.51-4.2-4.18-8.82-5.34-13.58
			c-0.25-1.02-0.49-2.05-0.66-3.09c-0.16-1-1.41-1.56-2.31-1.31C118.04,183.06,117.63,184.06,117.8,185.07L117.8,185.07z"/>
	</g>
</g>
</svg>
