<?xml version="1.0" encoding="utf-8"?>
<!-- Generator: Adobe Illustrator 25.1.0, SVG Export Plug-In . SVG Version: 6.00 Build 0)  -->
<svg version="1.1" id="Calque_1" xmlns="http://www.w3.org/2000/svg" xmlns:xlink="http://www.w3.org/1999/xlink" x="0px" y="0px"
	 viewBox="0 0 195.26 270.97" style="enable-background:new 0 0 195.26 270.97;" xml:space="preserve">
<style type="text/css">
	.st0{fill:#00D1FF;}
	.st1{fill:#FFFFFF;stroke:#50333C;stroke-width:0.75;stroke-miterlimit:10;}
	.st2{fill:#FFD8B6;}
	.st3{fill:#FFFFFF;}
	.st4{fill:#50333C;}
	.st5{fill:#222122;}
	.st6{fill:#FF3542;}
	.st7{fill:#191919;}
	.st8{fill:#FFCA00;}
	.st9{opacity:0.4;fill:#FFFFFF;}
	.st10{fill:#E1E4FD;}
	.st11{fill:#3638C4;}
</style>
<circle class="st0" cx="101.3" cy="181.83" r="67.01"/>
<path class="st1" d="M152.63,200.28c-0.55-1.22-0.63-2.66-0.24-3.95l-4.73-8.89l-6.43-10.53l-16.32-8.4l-17.03,2.19L81.11,169
	l-6.38-0.99l-18.2,18.53l-4.86,11.7c0.32,1.05,0.32,2.2,0,3.26c0.83,4.7,0.33,9.99,2.04,14.51c3.62,9.57,11.38,12.39,21,12.91
	c1.04,0.06,2.12,0.48,3.01,1.14l0.4-1.02l45.88,1.33c0.8-0.9,1.99-1.48,3.6-1.44c2.06,0.04,4.27,0.08,6.48,0.02
	c0.77-1.3,2.13-2.24,4.1-2.24c0.34,0,0.66,0.03,0.96,0.09c2.3-2.4,5.02-4.45,7.4-6.72c0.08-0.65,0.27-1.3,0.58-1.91
	c0.7-1.39,1.54-2.7,2.3-4.07c0.11-0.19,0.21-0.39,0.31-0.59c-0.15-1.26,0.18-2.55,0.94-3.62c0.01-0.04,0.02-0.07,0.03-0.11
	c0.24-1.26,0.91-2.15,1.77-2.73C152.48,204.78,152.35,202.48,152.63,200.28z"/>
<path class="st2" d="M52.83,203.2c0,0,46.36,42.42,98.64,0l-4.69,16.86l-10.23,6.79l-7.24,0.46l-14.8,1.22l-7.64,1.12l-9.69-1.06
	l-4.88,0.49l-10.31-1.46l-14.28,1.32l-3.91-2.92l-10.96-11.67V203.2z"/>
<polygon class="st1" points="87.39,169.18 119.45,170.12 137.05,163.17 147.89,151.13 151.25,135.77 146.93,113.28 137.89,99.88 
	122.97,88.62 106.93,84.97 92.23,86.03 75.11,92.2 62.6,105.98 56.59,119.27 53.84,135.18 59.42,154.15 69.98,164.2 "/>
<polygon class="st1" points="76.93,92.2 87.98,85.79 85.61,71.56 79.99,55.1 71.23,38.09 58.87,27.34 44.68,24.16 32.96,30.75 
	26.27,39.87 22.1,54.3 21.36,61.69 20.62,70.98 22.48,78.57 26.11,81.32 39.21,77.77 46.97,72.55 54.3,74.15 61.82,78.9 69.7,86.03 
	"/>
<polygon class="st3" points="125.41,90.64 114.35,84.23 116.72,70 122.34,53.54 131.1,36.53 143.47,25.78 157.65,22.6 169.37,29.19 
	176.06,38.3 180.23,52.74 180.97,60.13 181.71,69.42 179.85,77.01 176.22,79.76 163.12,76.21 155.36,70.99 148.03,72.59 
	140.51,77.34 132.63,84.47 "/>
<path class="st2" d="M81.53,89.65c0,0-12.77-35.68-25.22-42.51l-2.16,13.92l-2.96,7.78l-0.45,1.82l7.1,2.61l12.49,10.3l5.53,8.2
	L81.53,89.65z"/>
<path class="st2" d="M120.99,89.65c0,0,12.77-37.55,25.22-44.38l2.16,15.79l2.96,7.78l0.45,1.82l-7.1,2.61l-12.49,10.3l-5.53,8.2
	L120.99,89.65z"/>
<path class="st2" d="M151.7,127.75c-0.19-0.88-0.16-1.81,0.1-2.67c-1.89-1.87-2.55-4.34-3.13-6.94c-0.81-3.61-2.28-7.07-3.8-10.43
	c-2.34-5.19-5.24-10.76-10.94-12.4c6.08,7.51,12.57,20.59,11.63,41.79c-1.44,32.6-54.72,30.4-72.82,28.7
	c2.23,1.03,4.64,1.88,7.02,2.11c1.54,0.15,2.93,0.84,3.78,1.98c0.53,0.07,1.01,0.22,1.43,0.43c0.25-0.04,0.5-0.06,0.77-0.06
	c0.83,0,1.53,0.19,2.13,0.5c4.39-0.46,8.72,0.47,13.11,0.55c0.37,0.01,0.71,0.05,1.03,0.12c0.24-0.04,0.48-0.06,0.72-0.07
	c2.7-0.02,5.4-0.19,8.1-0.22c0.54-0.23,1.16-0.36,1.86-0.36c0.44,0,0.85,0.06,1.22,0.15c0.49-0.17,1.03-0.28,1.64-0.28
	c0.34,0,0.65,0.03,0.95,0.09c4.39-1.54,8.75-2.93,13.35-3.6l8.18-3.96c0.36-2.05,1.88-3.86,4.56-3.87c0-0.01,0.01-0.01,0.01-0.02
	c2.4-3.63,5.75-7.08,6.96-11.34c0.26-0.9,0.68-1.6,1.22-2.12l1.64-12.16C150.98,132.12,150.75,129.62,151.7,127.75z"/>
<path class="st4" d="M88.61,144.78"/>
<g>
	<g>
		<path class="st5" d="M127.84,213.83c-0.12-0.59-0.39-1.17-0.63-1.71c-0.51-1.1-1.27-2.13-2.17-2.93c-0.7-0.62-1.48-1.16-2.34-1.54
			c-0.48-0.21-0.92-0.33-1.44-0.19c-0.43,0.12-0.91,0.46-1.12,0.86c-0.23,0.44-0.35,0.96-0.19,1.44c0.14,0.44,0.43,0.93,0.86,1.12
			c0.56,0.25,1.09,0.56,1.57,0.93c-0.13-0.1-0.25-0.2-0.38-0.29c0.5,0.39,0.94,0.83,1.33,1.33c-0.1-0.13-0.2-0.25-0.29-0.38
			c0.42,0.54,0.77,1.13,1.03,1.76c-0.06-0.15-0.13-0.3-0.19-0.45c0.14,0.34,0.27,0.69,0.35,1.04c0.09,0.44,0.48,0.9,0.86,1.12
			c0.4,0.24,0.99,0.33,1.44,0.19c0.45-0.15,0.89-0.43,1.12-0.86C127.9,214.81,127.95,214.35,127.84,213.83L127.84,213.83z"/>
	</g>
</g>
<g>
	<g>
		<path class="st5" d="M77.6,214.83c0.07-0.36,0.21-0.71,0.35-1.04c-0.06,0.15-0.13,0.3-0.19,0.45c0.27-0.63,0.62-1.22,1.03-1.76
			c-0.1,0.13-0.2,0.25-0.29,0.38c0.39-0.5,0.83-0.94,1.33-1.33c-0.13,0.1-0.25,0.2-0.38,0.29c0.49-0.37,1.01-0.68,1.57-0.93
			c0.4-0.18,0.75-0.72,0.86-1.12c0.12-0.45,0.07-1.05-0.19-1.44c-0.26-0.4-0.64-0.75-1.12-0.86c-0.17-0.02-0.33-0.04-0.5-0.07
			c-0.34,0-0.65,0.09-0.95,0.26c-2.4,1.07-4.21,3.24-5.01,5.71c-0.05,0.15-0.1,0.31-0.13,0.47c-0.1,0.5-0.07,1,0.19,1.44
			c0.23,0.39,0.67,0.76,1.12,0.86c0.48,0.11,1.02,0.09,1.44-0.19C77.13,215.7,77.5,215.31,77.6,214.83L77.6,214.83z"/>
	</g>
</g>
<g>
	<g>
		<path class="st5" d="M126.2,169.63c1.22,0.56,2.41,1.16,3.58,1.81c1.26,0.69,2.44,1.58,3.71,2.24c0.41,0.21-0.33-0.27-0.04-0.03
			c0.25,0.21,0.5,0.4,0.75,0.61c2.14,1.76,4.14,3.7,6.01,5.75c5.42,5.96,10.14,13.6,10,21.92c-0.04,2.39-0.27,3.82-0.85,6.19
			c-0.69,2.84-1.64,5.34-3.07,7.83c-3.62,6.27-9.78,10.16-16.96,11.12c-2.74,0.37-5.52,0.24-8.27,0.37
			c-2.95,0.13-5.9,0.39-8.85,0.32c-3.07-0.08-6.1-0.63-9.18-0.66c-3.28-0.04-6.53,0.27-9.79,0.57c-2.91,0.27-5.85,0.02-8.76-0.17
			c-3.06-0.2-6.12-0.24-9.18-0.37c-3.69-0.16-7.42-0.93-10.69-2.68c-5.04-2.69-8.28-7.39-9.92-12.55c-0.37-1.16-0.67-2.34-0.91-3.54
			c-0.1-0.51-0.19-1.02-0.27-1.54c-0.02-0.12-0.13-0.9-0.07-0.42c-0.04-0.29-0.07-0.59-0.1-0.88c-0.16-1.47-0.24-2.96-0.21-4.44
			c0.01-0.49,0.04-0.96,0.08-1.45c0.01-0.14,0.03-0.27,0.05-0.4c-0.08,0.69,0,0.04,0.02-0.11c0.08-0.44,0.15-0.87,0.24-1.31
			c0.27-1.27,0.61-2.52,1.03-3.75c2.83-8.44,9-16.08,16.46-20.89c2.41-1.56,4.95-2.92,7.62-3.98c0.94-0.37,1.6-1.26,1.31-2.31
			c-0.25-0.9-1.36-1.68-2.31-1.31c-10.29,4.05-19.2,11.85-24.27,21.73c-2.03,3.97-3.66,8.44-3.96,12.93
			c-0.56,8.68,2.37,18.64,9.03,24.47c2.81,2.46,6.17,4.18,9.77,5.14c5.22,1.39,10.69,1.03,16.03,1.39c2.98,0.2,6,0.45,8.99,0.19
			c3.51-0.32,6.99-0.64,10.52-0.55c3.1,0.07,6.16,0.65,9.27,0.66c3.32,0.01,6.64-0.31,9.96-0.4c5.05-0.14,9.86-0.43,14.56-2.45
			c3.46-1.48,6.58-3.76,9.02-6.63c4.1-4.81,6.4-10.88,7.18-17.11c1.01-8.04-1.97-15.8-6.59-22.28c-3.23-4.53-7.2-8.95-11.76-12.21
			c-2.24-1.61-4.79-2.89-7.29-4.05C125.92,165.39,124.01,168.62,126.2,169.63L126.2,169.63z"/>
	</g>
</g>
<g>
	<g>
		<path class="st5" d="M149.38,133.33c-0.03,8.51-2.04,17.22-8.04,23.56c-5.64,5.95-13.57,8.88-21.48,10.3
			c-4.74,0.85-9.56,1.15-14.37,1.17c-5.06,0.02-10.12,0.04-15.16-0.5c-8.13-0.86-16.69-3.04-23.22-8.21
			c-6.49-5.13-9.94-12.79-10.79-20.91c-1.05-10.02,0.76-20.33,5.71-29.15c4.66-8.3,11.85-14.95,20.5-18.94
			c4.32-1.99,9.03-3.27,13.76-3.77c4.91-0.51,10.11-0.5,14.99,0.28c9.45,1.53,18.24,6,24.95,12.83
			c6.86,6.99,11.19,16.08,12.65,25.74C149.25,128.27,149.38,130.81,149.38,133.33c-0.01,2.41,3.74,2.42,3.75,0
			c0.02-10.75-3.1-21.48-9.44-30.23c-6.05-8.36-14.61-14.66-24.44-17.85c-4.99-1.62-10.27-2.4-15.51-2.36
			c-5.34,0.04-10.54,0.36-15.71,1.8c-9.87,2.75-18.74,8.68-25.05,16.75c-6.64,8.5-10.29,18.97-10.66,29.74
			c-0.33,9.53,1.59,19.29,7.75,26.82c5.57,6.81,13.98,10.58,22.42,12.4c4.94,1.06,10.01,1.55,15.06,1.68
			c5.35,0.14,10.77,0.15,16.11-0.32c9.04-0.79,18.46-2.92,25.91-8.37c7.31-5.35,11.66-13.33,12.99-22.23
			c0.39-2.6,0.57-5.21,0.58-7.83C153.14,130.92,149.39,130.92,149.38,133.33z"/>
	</g>
</g>
<g>
	<g>
		<path class="st5" d="M48.73,73.37c10.42,2.83,19.68,9.75,24.05,19.78c0.41,0.94,1.76,1.13,2.57,0.67
			c0.96-0.55,1.08-1.64,0.67-2.57c-4.74-10.86-15.05-18.45-26.3-21.5C47.4,69.12,46.4,72.74,48.73,73.37L48.73,73.37z"/>
	</g>
</g>
<g>
	<g>
		<path class="st5" d="M90.43,86.03c-0.88-10.17-3.47-20.46-7.16-29.94c-3.07-7.89-7.12-15.51-12.84-21.82
			c-6.5-7.17-16.04-13.31-26.09-11.69c-9.48,1.52-16.84,9.83-20.58,18.19c-2.97,6.62-4.58,14.18-5.48,21.36
			c-0.72,5.7-1.23,13.25,2.94,17.86c5.37,5.93,15.17,1.61,20.77-1.56c6.65-3.76,11.86-9.61,14.28-16.89
			c1.32-3.96,1.86-8.35,1.39-12.52c-0.04-0.37-0.09-0.74-0.15-1.11c-0.42-2.37-4.04-1.37-3.62,1c0.11,0.63-0.03-0.48,0.02,0.17
			c0.05,0.58,0.11,1.16,0.13,1.74c0.03,0.87,0.02,1.74-0.02,2.61c-0.07,1.25-0.16,2.01-0.32,2.96c-1.04,6.02-3.97,11.33-8.65,15.38
			c-3.31,2.87-7.34,4.93-11.47,6.34c-1.59,0.54-3.22,0.99-4.85,1.04c-0.67,0.02-1.35-0.02-1.72-0.09c-0.27-0.05-0.54-0.12-0.8-0.2
			c-0.14-0.04-0.28-0.09-0.42-0.14c-0.52-0.19,0.3,0.16-0.19-0.08c-0.25-0.12-0.49-0.26-0.73-0.41c-0.37-0.23-0.07-0.01-0.34-0.25
			c-0.49-0.43-0.8-0.79-0.97-1.05c-0.76-1.12-0.98-1.73-1.32-3.01c-0.71-2.66-0.71-5.5-0.52-8.41c0.39-5.96,1.79-11.9,3.45-17.65
			c2.41-8.33,7.81-17.18,16.22-20.57c8.84-3.56,18.02,1.38,24.35,7.52c5.61,5.43,9.65,12.28,12.74,19.4
			c2.78,6.39,4.77,13.15,6.25,19.95c0.53,2.45,1,4.92,1.38,7.4c0.07,0.47,0.14,0.95,0.21,1.43c0.03,0.21,0.06,0.42,0.09,0.63
			c-0.07-0.48,0-0.03,0.02,0.19c0.07,0.55,0.14,1.1,0.2,1.66c0.02,0.19,0.04,0.39,0.06,0.58C86.89,88.42,90.64,88.44,90.43,86.03
			L90.43,86.03z"/>
	</g>
</g>
<g>
	<g>
		<path class="st5" d="M129.46,91.1c4.43-9.94,13.61-16.79,23.98-19.6c2.33-0.63,1.34-4.25-1-3.62
			c-11.2,3.04-21.42,10.55-26.22,21.32c-0.42,0.93-0.26,2,0.67,2.57C127.69,92.25,129.05,92.03,129.46,91.1L129.46,91.1z"/>
	</g>
</g>
<g>
	<g>
		<path class="st5" d="M144.66,46.04c-1.76,9.85,2.69,20.57,10.25,26.87c3.74,3.11,8.09,5.36,12.68,6.93
			c3.18,1.09,6.89,1.78,10.12,0.49c5.9-2.37,6.76-9.62,6.58-15.17c-0.21-6.58-1.67-13.15-3.46-19.47
			c-2.61-9.23-8.1-18.56-16.97-22.99c-4.22-2.11-8.87-2.75-13.51-1.86c-5.36,1.02-10.25,3.98-14.37,7.46
			c-6.47,5.45-11.22,12.78-14.74,20.4c-5.03,10.9-8.17,22.89-9.44,34.83c-0.02,0.21-0.05,0.43-0.06,0.64c-0.21,2.4,3.54,2.39,3.75,0
			c0.06-0.75,0.16-1.49,0.25-2.24c0.02-0.14,0.11-0.79,0.02-0.19c0.03-0.21,0.06-0.42,0.09-0.63c0.07-0.48,0.14-0.95,0.21-1.43
			c0.18-1.15,0.37-2.29,0.58-3.43c1.18-6.42,2.84-12.77,5.06-18.9c2.61-7.2,6.09-14.3,10.94-20.27
			c5.43-6.68,13.54-13.26,22.62-12.89c8.72,0.36,15.54,7.79,19.18,15.09c1.71,3.41,2.73,7.09,3.66,10.77
			c0.77,3.05,1.43,6.14,1.89,9.25c0.44,2.97,0.69,6.11,0.5,9.15c-0.08,1.34-0.22,2.38-0.61,3.77c-0.34,1.22-0.59,1.87-1.37,2.96
			c-0.04,0.05-0.22,0.28-0.01,0.02c-0.09,0.11-0.18,0.21-0.27,0.31c-0.17,0.18-0.35,0.35-0.53,0.52c-0.36,0.33,0.02,0.04-0.41,0.31
			c-0.26,0.16-0.53,0.32-0.81,0.45c-0.3,0.14,0.41-0.15-0.11,0.04c-0.11,0.04-0.22,0.08-0.33,0.11c-0.29,0.09-0.59,0.16-0.89,0.22
			c-0.44,0.09-1.11,0.12-1.83,0.09c-3.89-0.16-8.03-2.1-11.41-4.03c-5.92-3.38-10.57-8.65-12.57-15.06
			c-0.76-2.44-1.08-4.33-1.21-6.62c-0.08-1.46-0.02-2.89,0.1-4.34c0.05-0.62-0.09,0.47,0.02-0.17
			C148.7,44.68,145.09,43.67,144.66,46.04L144.66,46.04z"/>
	</g>
</g>
<polygon class="st3" points="70.17,227.48 63.16,233.23 64.03,234.81 66.39,236.7 91.6,235.99 95.78,235.44 95.78,232.62 
	89.71,229.14 83.5,227.04 "/>
<polygon class="st3" points="114.6,227.48 107.59,233.23 108.45,234.81 110.82,236.7 136.03,235.99 140.2,235.44 140.2,232.62 
	134.14,229.14 127.93,227.04 "/>
<rect x="64.42" y="232.75" class="st2" width="31.35" height="3.95"/>
<rect x="108.22" y="232.75" class="st2" width="31.35" height="3.95"/>
<g>
	<g>
		<path class="st5" d="M80.07,224.97c-4.61,0.03-9.43,0.91-13.42,3.31c-3.05,1.83-5.62,4.71-5.7,8.42
			c-0.02,1.01,0.88,1.88,1.88,1.88c10.05,0,20.09,0,30.14,0c1.45,0,2.9,0,4.35,0c1,0,1.9-0.86,1.88-1.88
			c-0.08-3.72-2.65-6.6-5.7-8.42C89.5,225.88,84.68,225,80.07,224.97c-2.41-0.02-2.42,3.73,0,3.75c3.75,0.03,7.64,0.65,10.96,2.47
			c2.09,1.14,4.36,2.97,4.41,5.51c0.62-0.62,1.25-1.25,1.88-1.88c-10.05,0-20.09,0-30.14,0c-1.45,0-2.9,0-4.35,0
			c0.62,0.62,1.25,1.25,1.88,1.88c0.05-2.54,2.32-4.37,4.41-5.51c3.33-1.82,7.21-2.44,10.96-2.47
			C82.49,228.7,82.49,224.95,80.07,224.97z"/>
	</g>
</g>
<g>
	<g>
		<path class="st5" d="M123.9,224.97c-4.61,0.03-9.43,0.91-13.42,3.31c-3.05,1.83-5.62,4.71-5.7,8.42
			c-0.02,1.01,0.88,1.88,1.88,1.88c10.05,0,20.09,0,30.14,0c1.45,0,2.9,0,4.35,0c1,0,1.9-0.86,1.88-1.88
			c-0.08-3.72-2.65-6.6-5.7-8.42C133.32,225.88,128.5,225,123.9,224.97c-2.41-0.02-2.42,3.73,0,3.75c3.75,0.03,7.64,0.65,10.96,2.47
			c2.09,1.14,4.36,2.97,4.41,5.51c0.62-0.62,1.25-1.25,1.88-1.88c-10.05,0-20.09,0-30.14,0c-1.45,0-2.9,0-4.35,0
			c0.62,0.62,1.25,1.25,1.88,1.88c0.05-2.54,2.32-4.37,4.41-5.51c3.33-1.82,7.21-2.44,10.96-2.47
			C126.31,228.7,126.31,224.95,123.9,224.97z"/>
	</g>
</g>
<g>
	<ellipse class="st2" cx="101.3" cy="136.57" rx="6.41" ry="3.99"/>
	<polygon class="st6" points="86.65,154.33 102.3,150.31 114.26,151.45 116.25,155.68 111.5,156.95 102.3,158.14 95.45,157.29 
		89.7,156.57 87.28,155.81 84.91,154.22 	"/>
	<g>
		<g>
			<path class="st7" d="M119.9,153.53c-6.13,2.6-12.76,3.9-19.42,3.74c-3.31-0.08-6.6-0.51-9.82-1.29
				c-1.58-0.38-3.13-0.84-4.66-1.38c-1.49-0.53-3.18-1.01-4.35-2.11c-0.87-0.81-1.52-2.09-1.19-3.3c0.36-1.3,1.4-2.93,2.65-3.49
				c1.52-0.69,2.89-0.2,4.33,0.38c1.51,0.61,3.06,1.12,4.63,1.52c6.07,1.57,12.51,1.6,18.59,0.11c1.87-0.46,3.69-1.08,5.47-1.8
				c1.48-0.6,3.09-0.87,4.49,0.11c0.76,0.54,1.15,1.39,1.6,2.18c0.35,0.61,0.62,1.16,0.55,1.88
				C122.62,151.73,121.29,152.89,119.9,153.53c-0.73,0.34-0.09,1.42,0.63,1.08c2.18-1.01,4.19-3.46,3.28-6
				c-0.97-2.71-3.15-4.85-6.18-4.46c-1.78,0.23-3.48,1.23-5.19,1.76c-1.82,0.56-3.69,0.99-5.58,1.27c-4.08,0.6-8.28,0.5-12.32-0.3
				c-1.88-0.37-3.73-0.88-5.53-1.53c-1.58-0.57-3.05-1.4-4.78-1.22c-1.34,0.14-2.58,0.75-3.41,1.83c-0.78,1.01-1.65,2.4-1.7,3.72
				c-0.11,2.95,2.48,4.55,4.87,5.5c3.58,1.42,7.34,2.4,11.16,2.91c8.62,1.17,17.38-0.09,25.38-3.49
				C121.26,154.3,120.63,153.22,119.9,153.53z"/>
		</g>
	</g>
	<path class="st5" d="M86.2,155.3c0,0,13.2-5.08,29.53,0l3.17-0.93l2.79-1.95l1.14-2.24l-0.34-2.04l-1.23-1.68l-1.36-1.14
		l-3.73,0.25l-4.23,1.06l-6.99,1.51l-10.71-0.67l-5.25-1.69l-3.94-0.47l-3.09,0.47l-1.82,1.86l0.3,2.46l0.47,2.03l3.6,2.92
		L86.2,155.3z"/>
	<path class="st4" d="M88.89,142.18"/>
	<g>
		<g>
			<path class="st5" d="M115.53,118.29c3.97-2.39,8.74-2.39,12.72,0c2.07,1.25,3.96-1.99,1.89-3.24c-5.06-3.04-11.44-3.04-16.5,0
				C111.57,116.3,113.46,119.54,115.53,118.29L115.53,118.29z"/>
		</g>
	</g>
	<g>
		<g>
			<path class="st5" d="M76.34,118.29c3.97-2.39,8.74-2.39,12.72,0c2.07,1.25,3.96-1.99,1.89-3.24c-5.06-3.04-11.44-3.04-16.5,0
				C72.38,116.3,74.26,119.54,76.34,118.29L76.34,118.29z"/>
		</g>
	</g>
</g>
<g>
	<g>
		<path class="st8" d="M165.44,97.78c-1.4,0.62-2.8,0.94-4.2,1.18c-1.4,0.22-2.8,0.32-4.19,0.32c-1.4,0-2.8-0.1-4.2-0.32
			c-1.4-0.23-2.8-0.55-4.2-1.18c1.4-0.62,2.8-0.95,4.2-1.18c1.4-0.22,2.8-0.32,4.2-0.32c1.4,0,2.8,0.1,4.19,0.32
			C162.64,96.84,164.04,97.16,165.44,97.78z"/>
	</g>
	<g>
		<path class="st8" d="M157.05,82.95c0.62,2.14,0.94,4.29,1.18,6.43c0.22,2.14,0.32,4.29,0.32,6.43c0,2.14-0.1,4.29-0.32,6.43
			c-0.24,2.14-0.55,4.29-1.18,6.43c-0.63-2.14-0.94-4.29-1.18-6.43c-0.22-2.14-0.32-4.29-0.32-6.43c0-2.14,0.1-4.29,0.32-6.43
			C156.11,87.24,156.42,85.09,157.05,82.95z"/>
	</g>
	<g>
		<path class="st8" d="M179.79,109.86c-0.84,0.62-1.68,0.94-2.52,1.18c-0.84,0.22-1.68,0.32-2.52,0.32c-0.84,0-1.68-0.1-2.52-0.32
			c-0.84-0.23-1.68-0.55-2.52-1.18c0.84-0.62,1.68-0.95,2.52-1.18c0.84-0.22,1.68-0.32,2.52-0.32c0.84,0,1.68,0.1,2.52,0.32
			C178.11,108.92,178.95,109.24,179.79,109.86z"/>
	</g>
	<g>
		<path class="st8" d="M174.75,100.95c0.62,1.29,0.94,2.58,1.18,3.86c0.22,1.29,0.32,2.58,0.32,3.86c0,1.29-0.1,2.58-0.32,3.86
			c-0.23,1.29-0.55,2.58-1.18,3.86c-0.62-1.29-0.95-2.58-1.18-3.86c-0.22-1.29-0.32-2.58-0.32-3.86c0-1.29,0.1-2.58,0.32-3.86
			C173.81,103.53,174.13,102.24,174.75,100.95z"/>
	</g>
	<g>
		<path class="st8" d="M170.82,124.99c-1.23,0.62-2.46,0.94-3.69,1.18c-1.23,0.22-2.46,0.32-3.69,0.32c-1.23,0-2.46-0.1-3.69-0.32
			c-1.23-0.23-2.46-0.55-3.69-1.18c1.23-0.62,2.46-0.95,3.69-1.18c1.23-0.22,2.46-0.32,3.69-0.32c1.23,0,2.46,0.1,3.69,0.32
			C168.36,124.05,169.59,124.37,170.82,124.99z"/>
	</g>
	<g>
		<path class="st8" d="M163.44,111.95c0.62,1.88,0.94,3.77,1.18,5.65c0.22,1.88,0.32,3.77,0.32,5.65c0,1.88-0.1,3.77-0.32,5.65
			c-0.23,1.88-0.55,3.77-1.18,5.65c-0.62-1.88-0.95-3.77-1.18-5.65c-0.22-1.88-0.32-3.77-0.32-5.65c0-1.88,0.1-3.77,0.32-5.65
			C162.5,115.72,162.82,113.84,163.44,111.95z"/>
	</g>
</g>
<g>
	<circle class="st9" cx="52.61" cy="126.16" r="36.39"/>
	<g>
		<path class="st10" d="M112.74,206.79c-3.82,1.21-8.36-0.96-9.49-4.87c-0.96-3.32,0.94-6.35,2.95-8.8c0.68-0.83,1.42-1.6,2.16-2.37
			c0.3-0.31,0.58-0.65,0.89-0.95c0.37-0.67,0.81-1.18,1.31-1.56l-23.21-30.1c-2.03-2.63-5.81-3.12-8.45-1.09l-3.12,2.41
			c-2.63,2.03-3.12,5.81-1.09,8.45l11.71,15.19c2.55,2.15,5,4.42,7.61,6.49c2.74,2.17,5.23,4.37,6.99,7.44
			c1.05,1.83,0.83,3.59-0.05,4.95l3.51,4.55c2.03,2.63,5.81,3.12,8.45,1.09l3.12-2.41c0.72-0.55,1.27-1.24,1.66-1.99
			C116.32,204.72,114.89,206.11,112.74,206.79z"/>
		<path d="M112.74,206.79c-0.21,0.07-0.43,0.12-0.64,0.17c-2.18,1.51-5.19,1.08-6.83-1.04l-3.81-4.94c-0.24,0.68-0.64,1.28-1.14,1.8
			l3.36,4.36c1.38,1.79,3.47,2.73,5.57,2.73c1.5,0,3.01-0.48,4.28-1.46l3.12-2.41c1.48-1.14,2.38-2.77,2.64-4.49
			C117.29,203.58,115.7,205.86,112.74,206.79z"/>
		<path d="M85.49,182.31c1.6,1.31,3.14,2.68,4.69,4.03l-14.69-19.06c-0.82-1.06-1.18-2.38-1-3.71c0.17-1.33,0.85-2.52,1.92-3.33
			l3.12-2.41c0.91-0.7,1.99-1.04,3.06-1.04c1.51,0,3,0.67,3.98,1.95l23.27,30.19c0.47-0.57,1.01-0.96,1.59-1.21l-23.28-30.2
			c-2.37-3.07-6.78-3.64-9.85-1.27l-3.12,2.41c-1.49,1.15-2.44,2.8-2.68,4.66c-0.24,1.86,0.26,3.7,1.4,5.19l9.86,12.79
			C84.37,181.54,84.96,181.88,85.49,182.31z"/>
	</g>
	<g>
		<path class="st11" d="M71.59,168.07l-1.05-1.36c-0.88-1.15-0.67-2.79,0.48-3.68l12.57-9.69c1.15-0.88,2.79-0.67,3.68,0.48
			l1.05,1.36c0.88,1.15,0.67,2.79-0.48,3.68l-12.57,9.69C74.12,169.43,72.47,169.21,71.59,168.07z"/>
		<path d="M73.67,170.09c-0.16,0-0.31-0.01-0.47-0.03c-0.96-0.12-1.81-0.61-2.4-1.38l-1.05-1.36c-1.22-1.58-0.92-3.86,0.66-5.08
			l12.57-9.69c1.58-1.22,3.86-0.92,5.08,0.66l1.05,1.36c0.59,0.77,0.85,1.72,0.72,2.68c-0.12,0.96-0.61,1.81-1.38,2.4l-12.57,9.69
			C75.23,169.83,74.47,170.09,73.67,170.09z M85.18,153.8c-0.35,0-0.69,0.11-0.99,0.34l-12.57,9.69c-0.71,0.55-0.84,1.57-0.29,2.28
			l1.05,1.36c0.26,0.34,0.65,0.56,1.08,0.62c0.43,0.05,0.86-0.06,1.2-0.32l12.57-9.69c0.34-0.26,0.56-0.65,0.62-1.08
			s-0.06-0.85-0.32-1.2l-1.05-1.36C86.15,154.01,85.67,153.8,85.18,153.8z"/>
	</g>
	<g>
		<path class="st11" d="M78.35,159.54c-8.92,6.87-19.98,9.86-31.14,8.42c-11.17-1.44-21.1-7.15-27.97-16.07
			c-6.87-8.92-9.86-19.98-8.42-31.14s7.15-21.1,16.07-27.97s19.98-9.86,31.14-8.42c11.17,1.44,21.1,7.15,27.97,16.07
			c6.87,8.92,9.86,19.98,8.42,31.14C92.97,142.73,87.26,152.67,78.35,159.54z M31.29,98.5c-15.25,11.76-18.09,33.73-6.34,48.98
			s33.73,18.09,48.98,6.34s18.09-33.73,6.34-48.98S46.54,86.75,31.29,98.5z"/>
		<path d="M52.7,169.32c-1.87,0-3.74-0.12-5.62-0.36c-11.43-1.48-21.6-7.32-28.64-16.45c-7.04-9.13-10.1-20.45-8.62-31.88
			c1.48-11.43,7.32-21.6,16.45-28.64c9.13-7.04,20.45-10.1,31.88-8.62c11.43,1.48,21.6,7.32,28.64,16.45
			c7.04,9.13,10.1,20.45,8.62,31.88c-1.48,11.43-7.32,21.6-16.45,28.64l0,0C71.33,166.21,62.17,169.32,52.7,169.32z M52.53,85.01
			c-9.03,0-17.77,2.96-25.04,8.57c-8.7,6.71-14.27,16.41-15.68,27.31c-1.41,10.9,1.51,21.7,8.22,30.4s16.41,14.28,27.31,15.68
			c10.9,1.41,21.7-1.51,30.4-8.22l0,0c8.7-6.71,14.27-16.41,15.68-27.31c1.41-10.9-1.51-21.7-8.22-30.4
			c-6.71-8.7-16.41-14.27-27.31-15.68C56.1,85.12,54.3,85.01,52.53,85.01z M52.65,162.07c-10.77,0-21.42-4.81-28.49-13.98
			c-12.09-15.69-9.17-38.29,6.52-50.38c7.59-5.85,17.01-8.39,26.54-7.16c9.53,1.23,18,6.09,23.84,13.68
			c5.85,7.59,8.39,17.01,7.16,26.54c-1.23,9.53-6.09,18-13.68,23.84C68.03,159.64,60.31,162.07,52.65,162.07z M52.52,92.25
			c-7.45,0-14.64,2.44-20.63,7.05c-14.81,11.42-17.57,32.77-6.15,47.58c11.42,14.81,32.76,17.57,47.58,6.15
			c7.16-5.52,11.75-13.52,12.92-22.52c1.16-9-1.24-17.9-6.76-25.06S65.96,93.7,56.96,92.53C55.48,92.34,54,92.25,52.52,92.25z"/>
	</g>
</g>
<g>
	<g>
		<path d="M110.7,185.22c-2.24,2.24-4.49,4.49-6.73,6.73c-1.34,1.34-2.51,2.69-3.2,4.49c-1.1,2.86-0.73,6.3,0.98,8.86
			c3.5,5.24,10.86,5.94,15.36,1.58c2.1-2.03,4.14-4.14,6.2-6.2c2.31-2.31,4.61-4.61,6.92-6.92c1.71-1.71-0.94-4.36-2.65-2.65
			c-4.06,4.06-8.12,8.12-12.17,12.17c-0.71,0.71-1.38,1.45-2.26,1.96c-2.16,1.25-4.95,1.05-6.92-0.51c-1.93-1.53-2.77-4.13-2.11-6.5
			c0.4-1.44,1.32-2.45,2.34-3.47c2.3-2.3,4.6-4.6,6.9-6.9C115.06,186.16,112.41,183.51,110.7,185.22L110.7,185.22z"/>
	</g>
</g>
<g>
	<g>
		<path d="M83.81,182.17c4.44,4.44,8.97,8.82,13.34,13.34c2.02,2.09,2.41,5.27,0.82,7.74c-1.57,2.45-4.77,3.43-7.47,2.37
			c-1.32-0.52-2.24-1.54-3.21-2.52c-1.38-1.38-2.75-2.75-4.13-4.13c-2.63-2.63-5.25-5.25-7.88-7.88c-1.71-1.71-4.36,0.94-2.65,2.65
			c2.48,2.48,4.96,4.96,7.44,7.44c1.5,1.5,3.01,3.01,4.51,4.51c1.26,1.26,2.49,2.48,4.16,3.22c3.47,1.53,7.48,0.96,10.41-1.44
			c2.86-2.34,4.08-6.18,3.33-9.77c-0.83-3.96-4.64-6.83-7.36-9.56c-2.88-2.88-5.77-5.77-8.65-8.65
			C84.75,177.81,82.1,180.46,83.81,182.17L83.81,182.17z"/>
	</g>
</g>
</svg>
