<svg width="30" height="30" viewBox="0 0 30 30" fill="none" xmlns="http://www.w3.org/2000/svg">
<path d="M27.3968 8.80618C25.7602 8.57652 24.426 8.58307 23.3284 8.74055C23.3481 8.72087 23.3678 8.70119 23.3941 8.6815C25.7471 6.33242 27.1865 3.97022 26.6147 3.39935C26.0429 2.82849 23.6767 4.27205 21.3238 6.61457C21.3041 6.63426 21.2843 6.65394 21.2646 6.68019C21.4224 5.58439 21.4289 4.24581 21.1989 2.61851C20.0684 -5.35392 16.8347 10.6303 16.8347 10.6303L17.7483 11.5424C17.7483 11.5424 17.8337 11.5227 17.9849 11.4702C17.9718 11.6539 18.0112 11.7983 18.1098 11.8967C18.2018 11.9886 18.353 12.028 18.537 12.0214C18.4844 12.1657 18.4647 12.2576 18.4647 12.2576L19.3783 13.1697C19.3717 13.1697 35.3825 9.93478 27.3968 8.80618Z" fill="#00F14D"/>
<path d="M19.2402 13.5831L18.0309 12.3758L18.044 12.3167C17.9454 12.2708 17.8731 12.2183 17.8205 12.1658C17.768 12.1133 17.7154 12.0411 17.6694 11.9427L17.6102 11.9558L16.4009 10.7485L16.4403 10.545C16.4469 10.5188 16.9727 7.9335 17.6628 5.38757C18.9576 0.623787 19.7003 -0.0192572 20.3181 0.000427812C20.9425 0.0201128 21.3106 0.781269 21.5603 2.55948C21.7181 3.68153 21.7707 4.72484 21.7246 5.67628C22.6579 4.81014 23.5978 4.08179 24.4194 3.5831C25.6353 2.84163 26.4372 2.69728 26.871 3.12379C27.3047 3.5503 27.1536 4.35739 26.4109 5.5713C25.9114 6.39151 25.1818 7.32326 24.3142 8.26158C25.2672 8.21565 26.3189 8.26814 27.4362 8.42563L27.3836 8.8062L27.4362 8.42563C29.2108 8.67497 29.9798 9.04898 29.9995 9.66578C30.0192 10.276 29.3751 11.024 24.6034 12.3167C22.0533 13.0057 19.4571 13.5306 19.4374 13.5372L19.2402 13.5831ZM18.3924 10.9191L18.3595 11.4965C18.3529 11.5884 18.3661 11.6212 18.3726 11.6277C18.3726 11.6277 18.4121 11.6408 18.5041 11.6343L19.0825 11.6015L18.8919 12.1461L19.4965 12.7498C20.1275 12.6185 22.165 12.1855 24.2156 11.6343C28.4615 10.4991 29.1253 9.86263 29.2305 9.70515C29.1451 9.62641 28.777 9.39019 27.3442 9.18678C25.8654 8.9768 24.5311 8.95712 23.3809 9.12116L22.2307 9.2852L23.118 8.40594C24.1959 7.32983 25.1161 6.21434 25.7142 5.2629C26.3912 4.18022 26.378 3.72746 26.3386 3.66841C26.2794 3.6356 25.8259 3.62248 24.7414 4.29833C23.7884 4.89544 22.6711 5.81407 21.5932 6.89019L20.7125 7.77602L20.8768 6.62773C21.0411 5.47943 21.0214 4.14741 20.8111 2.67103C20.6073 1.24058 20.3707 0.873134 20.2918 0.787832C20.1341 0.892819 19.4965 1.55555 18.3595 5.79439C17.8074 7.84163 17.3736 9.87575 17.2422 10.5057L17.8468 11.1093L18.3924 10.9191Z" fill="#6A6A6A"/>
<path d="M23.151 15.4663L14.5213 6.85083C13.6208 5.95188 12.1026 6.16185 11.4913 7.27734L4.15637 20.5188C4.28125 20.6172 4.38641 20.7485 4.46528 20.9059C4.51786 20.9388 4.50472 20.9191 4.51129 20.965C4.54415 21.0044 4.57702 21.0503 4.60988 21.0765C4.76105 21.2275 4.91879 21.3653 5.07653 21.5031C5.43802 21.818 5.81923 22.1264 6.16758 22.4545C6.85769 23.0975 7.61354 23.9834 7.33092 25.0004C6.976 26.2931 5.4906 26.549 4.45214 25.9256C3.57799 25.4073 3.04561 24.5477 2.32263 23.8718C2.31606 23.8653 2.30949 23.8587 2.30949 23.8521L0.613768 26.9099C-0.260381 28.4912 1.48135 30.2301 3.06533 29.3574L22.7304 18.4781C23.8412 17.881 24.0515 16.3653 23.151 15.4663Z" fill="#FF7A00"/>
<path d="M23.4204 15.1973L14.7907 6.5818C14.278 6.06998 13.5682 5.8272 12.8452 5.93219C12.1222 6.03718 11.5044 6.45713 11.1561 7.09361L3.8211 20.3351C4.05771 20.4204 4.2746 20.5844 4.4192 20.8338L11.8265 7.46763C12.0631 7.04112 12.4706 6.75896 12.9569 6.69335C13.4367 6.62773 13.91 6.78521 14.2583 7.12642L22.8881 15.7419C23.2298 16.0831 23.3876 16.5555 23.3219 17.0345C23.2561 17.5135 22.9735 17.9269 22.5463 18.1632L2.88122 29.0424C2.1911 29.423 1.54042 29.154 1.19208 28.8062C0.843732 28.4584 0.574257 27.8088 0.955465 27.1198L2.5986 24.1605C2.51316 24.0687 2.42114 23.9834 2.32913 23.8981C2.21082 23.7865 2.11881 23.6684 2.05965 23.5437L0.285062 26.7524C-0.201307 27.6251 -0.0567075 28.6487 0.653128 29.3508C1.36296 30.0595 2.38171 30.1973 3.25586 29.7183L22.9209 18.839C23.5585 18.4847 23.9857 17.8679 24.0843 17.1527C24.1763 16.4243 23.9397 15.7157 23.4204 15.1973Z" fill="#6A6A6A"/>
<path d="M10.8143 8.72089L17.2094 15.65L10.2688 9.26551L10.8143 8.72089Z" fill="#6A6A6A"/>
<path d="M18.3792 20.8469L11.9775 13.9177L18.9181 20.3088L18.3792 20.8469Z" fill="#6A6A6A"/>
<path d="M8.29699 12.8613L13.8771 18.9768L7.75146 13.3994L8.29699 12.8613Z" fill="#6A6A6A"/>
<path d="M14.0939 23.2288L8.64526 17.2445L14.6394 22.6841L14.0939 23.2288Z" fill="#6A6A6A"/>
<path d="M6.22008 17.3692L10.3805 22.0608L5.67456 17.9138L6.22008 17.3692Z" fill="#6A6A6A"/>
<path d="M9.84797 25.5713L6.7063 21.8902L10.3935 25.0267L9.84797 25.5713Z" fill="#6A6A6A"/>
<path d="M5.91112 27.7431C5.29987 27.1329 4.68205 26.5161 4.0708 25.9059Z" fill="#F27320"/>
<path d="M5.63522 28.0122L3.37427 25.2169L6.18075 27.4741L5.63522 28.0122Z" fill="#231F20"/>
</svg>
