<svg width="1440" height="457" fill="none" xmlns="http://www.w3.org/2000/svg"><path d="M1212.88 80.227c-102.37-21.308-197.83-2.144-302.23 9.239-22.62 2.468-45.34 3.355-68.12 2.565-42.48-1.476-54.08-11.278-86.56-24.944C603.39 2.86 483.87-.662 405.97.076c-75.08.711-183.89 30.722-256.99 67.012C57.71 112.398 24.5 157.884-6.46 226.442c-20.86 46.172-31.37 71.651-27.88 121.229 3.55 50.449 11.11 100.678 22.61 150.204 181.93-16.705 364.52-33.436 547.36-28.5 100.73 2.722 201.07 12.015 301.66 17.434 230.77 12.445 462.98 4.444 691.94-23.846 5.49-44.063-1.9-89.312-21.28-130.24-58.9-124.399-136.82-219.552-295.07-252.497z" fill="#FFF2EA"/></svg>