<svg width="1440" height="578" fill="none" xmlns="http://www.w3.org/2000/svg"><path fill-rule="evenodd" clip-rule="evenodd" d="M0 483.285h-30v184h1499v-184h-29V0c-22.23 5.058-23.72 31.859-25.68 66.826-3.04 54.426-7.19 128.637-92.32 171.442-26.99 13.565-54.73 18.391-86.5 16.087-44.91-3.252-125.32-29.81-169.5-50.436-171-93.481-437.5-80.002-521.5-51.741-97.1 32.669-150.13 67.687-191.568 95.051-43.808 28.928-74.66 49.301-130.932 49.301-15.408 0-38.928-5.067-65.312-10.751C100.595 273.695 31.557 258.822 0 283.921v199.364z" fill="#FFF2EA"/></svg>