<svg width="58" height="62" viewBox="0 0 58 62" fill="none" xmlns="http://www.w3.org/2000/svg">
<g clip-path="url(#clip0)">
<path d="M8.91918 33.0186C9.0654 33.0186 9.21162 33.1147 9.21162 33.2589C9.26036 33.4512 9.11414 33.5954 8.96792 33.6434C8.91918 33.6434 5.26372 34.4124 4.48389 36.0465C3.7528 37.6326 3.21666 42.4868 9.5528 45.6109C11.2587 46.476 13.257 46.8605 15.4015 47.293C20.7629 48.3985 26.7578 49.6481 28.8049 58.6837C30.852 49.6 36.8469 48.3504 42.2083 47.293C44.3528 46.8605 46.3511 46.4279 48.057 45.6109C50.6889 44.3132 55.1242 40.6124 52.9309 36.0465C52.1999 34.4605 49.373 33.7876 48.7881 33.6915C48.7393 33.6915 48.6419 33.6434 48.5931 33.6434C48.4469 33.5954 48.3007 33.4512 48.3494 33.2589C48.3982 33.1147 48.5444 32.9705 48.7393 33.0186C48.7393 33.0186 48.8368 33.0186 48.9343 33.0667C49.3242 33.1147 49.6654 33.1628 50.0553 33.1628C51.5175 33.1628 52.8335 32.5861 53.9057 31.4806C55.4654 29.8465 56.294 27.2031 56.1478 24.2713C56.0015 21.2434 55.0755 19.7054 53.4671 19.7054C51.42 19.7054 48.8856 22.0605 48.8856 22.1085C48.7394 22.2527 48.5444 22.2047 48.4469 22.1085C48.3007 21.9643 48.3494 21.7721 48.4469 21.676C55.173 15.1395 53.857 7.30543 51.6637 4.5659C50.0553 2.54729 47.3259 2.11473 45.3276 2.11473C43.9629 2.11473 42.5007 2.30698 40.941 2.69148C38.4066 3.31628 36.262 3.65272 34.4587 3.65272C32.0217 3.65272 30.1209 3.07597 28.8536 1.92249C27.5864 3.07597 25.6856 3.65272 23.2486 3.65272C21.3965 3.65272 19.3007 3.36435 16.7662 2.69148C15.1578 2.30698 13.6469 2.06667 12.2335 2.06667C10.2352 2.06667 7.55448 2.49923 6.04355 4.51783C5.06876 5.81551 4.77633 7.20931 5.1175 8.74729C5.6049 10.814 7.50574 14.0341 14.0368 17.5426L14.4755 17.783C14.6217 17.8791 14.6704 18.0713 14.6217 18.2155C14.5242 18.3597 14.378 18.4558 14.183 18.3597C14.1343 18.3597 14.0368 18.3116 13.9394 18.2155L13.7444 18.1194C11.5024 16.9178 9.45532 16.293 7.74944 16.293C4.77633 16.293 2.87549 18.1674 2.14439 21.8682C1.657 24.2233 1.70574 28.8372 3.80154 31.3364C5.02002 32.7783 6.72591 33.307 8.91918 32.9705C8.87044 33.0186 8.91918 33.0186 8.91918 33.0186Z" fill="white"/>
<path d="M7.99316 40.8527H8.33434V38.8821H7.99316V38.4496H9.21165V38.8821H8.82174V40.8527H9.60157V40.4682H10.089V41.2852H7.99316V40.8527Z" fill="#977C49"/>
<path d="M10.0889 39.5549C10.3813 39.3146 10.5275 39.1224 10.5275 39.0263C10.3813 38.9782 10.2838 38.8821 10.2838 38.6898C10.2838 38.5456 10.43 38.3534 10.625 38.3534C10.82 38.3534 10.9662 38.4976 10.9662 38.7379C10.9662 38.9782 10.7712 39.3627 10.2351 39.6991L10.0889 39.5549Z" fill="#977C49"/>
<path d="M11.2587 40.8527H11.5999V38.8821H11.2587V38.4496H13.4032V39.2666H12.9158V38.8821H12.0385V39.6511H12.9158V40.0837H12.0385V40.8527H12.9158V40.4682H13.4032V41.2852H11.21V40.8527H11.2587ZM12.1848 38.017L12.6721 37.3441C12.7209 37.248 12.8184 37.2 12.9158 37.2C13.0133 37.2 13.1108 37.2961 13.1108 37.4403C13.1108 37.5364 13.0621 37.6325 12.9646 37.6806L12.331 38.1612L12.1848 38.017Z" fill="#977C49"/>
<path d="M13.7446 39.8433C13.7446 38.9782 14.427 38.3534 15.2556 38.3534C15.9379 38.3534 16.3766 38.6898 16.3766 39.0263C16.3766 39.2185 16.2303 39.3627 16.0354 39.3627C15.8404 39.3627 15.6942 39.2185 15.6942 39.0743C15.6942 39.0263 15.6942 38.9782 15.7429 38.9301C15.6455 38.8821 15.4993 38.7859 15.2068 38.7859C14.6219 38.7859 14.232 39.2185 14.232 39.7953C14.232 40.372 14.6219 40.8045 15.2556 40.8045C15.5967 40.8045 15.8892 40.6604 16.0841 40.4201L16.4253 40.7565C16.1329 41.0449 15.7429 41.2371 15.2556 41.2371C14.3782 41.3332 13.7446 40.7565 13.7446 39.8433Z" fill="#977C49"/>
<path d="M16.7661 39.8433C16.7661 39.0263 17.3997 38.3534 18.277 38.3534C19.1543 38.3534 19.7392 38.9782 19.7392 39.8433C19.7392 40.6604 19.1056 41.3332 18.2283 41.3332C17.351 41.3332 16.7661 40.7084 16.7661 39.8433ZM19.2518 39.8433C19.2518 39.2666 18.8619 38.834 18.277 38.834C17.6922 38.834 17.3022 39.2666 17.3022 39.8433C17.3022 40.4201 17.6922 40.8526 18.277 40.8526C18.8132 40.9007 19.2518 40.4681 19.2518 39.8433Z" fill="#977C49"/>
<path d="M20.1294 40.8527H20.4706V38.8821H20.1294V38.4496H21.3479V38.8821H20.958V40.8527H21.7378V40.4682H22.2252V41.2852H20.1294V40.8527Z" fill="#977C49"/>
<path d="M22.5175 40.8527H22.8587V38.8821H22.5175V38.4496H24.662V39.2666H24.1746V38.8821H23.2973V39.6511H24.1746V40.0837H23.2973V40.8527H24.1746V40.4682H24.662V41.2852H22.4688V40.8527H22.5175Z" fill="#977C49"/>
<path d="M26.0269 40.8527H26.368V38.8821H26.0269V38.4496H27.1479C28.2201 38.4496 28.805 38.9783 28.805 39.8434C28.805 40.7085 28.2201 41.2852 27.0991 41.2852H26.0756V40.8527H26.0269ZM27.1479 40.8527C27.879 40.8527 28.2689 40.4682 28.2689 39.8434C28.2689 39.2186 27.8302 38.8821 27.0991 38.8821H26.8554V40.8527H27.1479Z" fill="#977C49"/>
<path d="M29.1947 40.8527H29.5359V38.8821H29.1947V38.4496H31.3393V39.2666H30.8519V38.8821H29.9746V39.6511H30.8519V40.0837H29.9746V40.8527H30.8519V40.4682H31.3393V41.2852H29.146V40.8527H29.1947Z" fill="#977C49"/>
<path d="M32.7041 40.8527H33.0453V38.8821H32.7041V38.4496H33.9226V38.8821H33.5327V40.8527H34.3125V40.4682H34.7999V41.2852H32.7041V40.8527Z" fill="#977C49"/>
<path d="M34.751 39.5549C35.0434 39.3146 35.1896 39.1224 35.1896 39.0263C35.0434 38.9782 34.9459 38.8821 34.9459 38.6898C34.9459 38.5456 35.0922 38.3534 35.2871 38.3534C35.4821 38.3534 35.6283 38.4976 35.6283 38.7379C35.6283 38.9782 35.4333 39.3627 34.8972 39.6991L34.751 39.5549Z" fill="#977C49"/>
<path d="M35.9209 40.8527H36.2621V38.8821H35.9209V38.4496H37.1394V38.8821H36.7982V40.8527H37.1394V41.2852H35.9209V40.8527Z" fill="#977C49"/>
<path d="M37.4316 40.8527H37.7728L37.8703 38.8821H37.5291V38.4496H38.3089L39.1863 40.0356L40.0636 38.4496H40.8434V38.8821H40.5022L40.5997 40.8527H40.9409V41.2852H39.7711V40.8527H40.1123L40.0636 39.3628L39.235 40.8046H39.1863L38.3577 39.3628L38.3089 40.8527H38.6501V41.2852H37.4804V40.8527H37.4316Z" fill="#977C49"/>
<path d="M41.1362 40.8527H41.3799L42.111 38.8821H41.8186V38.4496H43.4757V38.8821H43.1345L43.8656 40.8527H44.1093V41.2852H42.9883V40.8527H43.3295L43.1833 40.3721H42.111L41.9648 40.8527H42.306V41.2852H41.185V40.8527H41.1362ZM42.9883 39.9876L42.5984 38.8821L42.2085 39.9876H42.9883Z" fill="#977C49"/>
<path d="M44.2554 39.8433C44.2554 38.9782 44.9377 38.3534 45.7663 38.3534C46.4487 38.3534 46.8873 38.6898 46.8873 39.0263C46.8873 39.2185 46.7411 39.3627 46.5461 39.3627C46.3512 39.3627 46.205 39.2185 46.205 39.0743C46.205 39.0263 46.205 38.9782 46.2537 38.9301C46.1562 38.8821 46.01 38.7859 45.7176 38.7859C45.1327 38.7859 44.7428 39.2185 44.7428 39.7953C44.7428 40.4201 45.2302 40.8526 45.7176 40.8526C46.01 40.8526 46.2537 40.8046 46.3999 40.6604V40.1797H45.6688V39.7472H46.8873V41.2371H46.3999V41.0449C46.205 41.189 45.9125 41.3332 45.6201 41.3332C44.9377 41.3332 44.2554 40.8046 44.2554 39.8433Z" fill="#977C49"/>
<path d="M47.4233 40.8527H47.7645V38.8821H47.4233V38.4496H49.5679V39.2666H49.0805V38.8821H48.2519V39.6511H49.1292V40.0837H48.2519V40.8527H49.1292V40.4682H49.6166V41.2852H47.4233V40.8527Z" fill="#977C49"/>
<path d="M21.1528 10.1419V11.6798H21.494V12.1124H20.3242V11.6798H20.6654V9.70929H20.3242V9.27673H21.0553L22.4688 11.055V9.70929H22.1276V9.27673H23.2973V9.70929H22.9562V12.1124H22.6637L21.1528 10.1419Z" fill="#977C49"/>
<path d="M23.541 11.6798H23.7847L24.5158 9.70929H24.1746V9.27673H25.8318V9.70929H25.4906L26.2217 11.6798H26.4654V12.1124H25.3444V11.6798H25.6856L25.5393 11.1992H24.4671L24.3208 11.6798H24.662V12.1124H23.541V11.6798ZM25.3931 10.8147L25.0032 9.70929L24.6133 10.8147H25.3931Z" fill="#977C49"/>
<path d="M27.5376 10.1419V11.6798H27.8787V12.1124H26.709V11.6798H27.0502V9.70929H26.709V9.27673H27.4401L28.8535 11.055V9.70929H28.5123V9.27673H29.6821V9.70929H29.3409V12.1124H29.0485L27.5376 10.1419Z" fill="#977C49"/>
<path d="M30.5593 11.6791H30.9005V9.66046H30.3643V10.093H29.877V9.22791H32.4114V10.093H31.924V9.66046H31.3879V11.6791H31.7291V12.1116H30.5106V11.6791H30.5593Z" fill="#977C49"/>
<path d="M32.704 11.6798H33.0452V9.70929H32.704V9.27673H34.8485V10.0938H34.3612V9.70929H33.4838V10.4783H34.3612V10.9108H33.4838V11.7279H34.3612V11.3434H34.8485V12.1605H32.6553V11.6798H32.704Z" fill="#977C49"/>
<path d="M35.1899 11.5356C35.1899 11.3434 35.3362 11.1992 35.4824 11.1992C35.6773 11.1992 35.8236 11.3434 35.8236 11.4876C35.8236 11.5356 35.8236 11.6318 35.7748 11.6798C35.8723 11.776 36.0673 11.824 36.2135 11.824C36.5546 11.824 36.7496 11.6798 36.7496 11.4395C36.7496 11.1992 36.5059 11.1031 36.2135 11.007C35.6773 10.8147 35.2874 10.6225 35.2874 10.0938C35.2874 9.66123 35.6773 9.27673 36.2622 9.27673C36.7983 9.27673 37.237 9.56511 37.237 9.90154C37.237 10.0938 37.0908 10.238 36.9446 10.238C36.7496 10.238 36.6034 10.0938 36.6034 9.9496C36.6034 9.90154 36.6034 9.85348 36.6521 9.80542C36.5546 9.75735 36.4572 9.70929 36.2622 9.70929C35.9698 9.70929 35.8236 9.85348 35.8236 10.0457C35.8236 10.286 36.0673 10.3822 36.3597 10.4783C36.8958 10.6705 37.2857 10.8628 37.2857 11.3915C37.2857 11.9201 36.8471 12.2566 36.2622 12.2566C35.6773 12.1605 35.1899 11.8721 35.1899 11.5356Z" fill="#977C49"/>
<path d="M28.805 62C28.0251 62 27.3915 61.4713 27.294 60.7023C25.8806 51.3302 20.6167 50.2248 15.0604 49.1194C12.9159 48.6868 10.7226 48.2062 8.77304 47.293C1.90077 43.8806 1.46211 38.2574 2.82682 35.2775C3.07052 34.7969 3.41169 34.3643 3.85035 33.9318C3.26548 33.5473 2.72934 33.1147 2.29068 32.538C-0.243769 29.5101 -0.292508 24.3194 0.243626 21.5318C1.26716 16.4372 4.14279 14.8992 6.57976 14.5628C4.82514 12.8326 3.75287 11.0543 3.31421 9.22791C2.87556 7.2093 3.26548 5.1907 4.5327 3.50853C6.09237 1.3938 8.7243 0.288372 12.1848 0.288372C13.7445 0.288372 15.4016 0.528682 17.1562 0.96124C19.5445 1.53798 21.5428 1.87442 23.1999 1.87442C25.2957 1.87442 26.8067 1.3938 27.684 0.48062C27.9764 0.192248 28.3663 0 28.805 0C29.1949 0 29.6335 0.144186 29.926 0.48062C30.8033 1.3938 32.363 1.87442 34.41 1.87442C36.0672 1.87442 38.0655 1.58605 40.4537 0.96124C42.1596 0.528682 43.768 0.336434 45.2789 0.336434C48.6907 0.336434 51.3714 1.44186 53.0285 3.46046C55.4167 6.39225 56.2453 12.2558 53.4184 17.9271C55.3193 17.9271 57.6587 19.0326 57.9512 24.2233C58.1461 27.6357 57.1714 30.7597 55.2218 32.7783C54.7344 33.2589 54.247 33.6915 53.6621 34.0279C54.052 34.4124 54.3932 34.845 54.5882 35.2775C55.8066 37.8248 56.1966 43.6403 48.8856 47.293C46.9361 48.2543 44.7428 48.6868 42.5982 49.1194C37.0419 50.2729 31.7781 51.3302 30.3646 60.7023C30.2184 61.4233 29.5848 62 28.805 62ZM12.2335 0.913178C8.968 0.913178 6.53102 1.92248 5.06884 3.84496C3.89909 5.38295 3.55791 7.2093 3.94783 9.03566C4.38648 10.9101 5.60497 12.7364 7.55455 14.5628C7.65203 14.6589 7.70077 14.8031 7.65203 14.8992C7.60329 14.9953 7.50581 15.0915 7.35959 15.0915C5.0201 15.2837 1.94951 16.4853 0.925979 21.676C0.389845 24.3194 0.438584 29.3178 2.82682 32.1535C3.31421 32.7783 3.94783 33.2589 4.58144 33.5953C4.67892 33.6434 4.72766 33.7395 4.72766 33.8357C4.72766 33.9318 4.67892 34.0279 4.58144 34.124C3.99657 34.5566 3.60665 35.0372 3.36295 35.5178C2.09573 38.2574 2.58312 43.4961 9.01674 46.6682C10.8688 47.5814 13.0621 48.014 15.1579 48.4465C20.9579 49.6481 26.4167 50.7535 27.9277 60.5581C27.9764 60.9907 28.3663 61.3271 28.805 61.3271C29.2436 61.3271 29.6335 60.9907 29.6823 60.5581C31.1932 50.7535 36.652 49.6 42.452 48.4465C44.5478 48.014 46.7411 47.5814 48.5932 46.6682C55.4655 43.2558 55.173 37.8729 54.0033 35.5178C53.7596 35.0372 53.4184 34.6046 52.931 34.1721C52.8335 34.124 52.7848 33.9798 52.8335 33.8837C52.8335 33.7876 52.931 33.6915 53.0285 33.6434C53.6621 33.307 54.2957 32.8744 54.8319 32.2977C56.6352 30.4233 57.5613 27.4915 57.3663 24.2233C57.1714 20.5225 55.8066 18.5519 53.4672 18.5519C53.3209 18.5519 53.126 18.5519 52.9798 18.6C52.8823 18.6 52.7361 18.5519 52.6873 18.4558C52.6386 18.3597 52.5898 18.2155 52.6873 18.1194C55.7092 12.5442 54.9781 6.72868 52.6386 3.84496C51.1277 1.97054 48.5932 0.96124 45.3764 0.96124C43.9142 0.96124 42.3058 1.15349 40.6974 1.58605C38.2604 2.21085 36.2134 2.49922 34.5075 2.49922C32.2167 2.49922 30.5596 1.97054 29.5361 0.913178C29.1949 0.576744 28.61 0.576744 28.2688 0.913178C27.2453 1.97054 25.5882 2.49922 23.2974 2.49922C21.5428 2.49922 19.5445 2.21085 17.1075 1.58605C15.3529 1.15349 13.6957 0.913178 12.2335 0.913178Z" fill="#977C49"/>
<path d="M28.8051 60.7985C28.6589 60.7985 28.5126 60.7024 28.4639 60.5101C26.9042 50.321 21.0068 49.1194 15.2555 47.9179C13.111 47.4853 11.0639 47.0527 9.26055 46.1876C6.38492 44.7458 4.48407 42.7752 3.70424 40.4683C3.11937 38.5458 3.36307 36.8155 3.85046 35.7582C4.28912 34.7969 5.45886 34.1241 6.53113 33.6915C5.16643 33.4993 4.04542 32.8745 3.16811 31.8171C1.02357 29.1256 0.974831 24.3194 1.46223 21.8202C2.0471 19.0326 3.55802 15.7163 7.70088 15.7163C8.52945 15.7163 9.40676 15.8605 10.2841 16.1008C7.01853 13.7938 5.02021 11.3907 4.43534 8.98764C4.04542 7.30547 4.3866 5.67136 5.45886 4.2295C6.77483 2.4512 9.06559 1.48996 12.1362 1.48996C13.5984 1.48996 15.158 1.68221 16.8152 2.11477C19.3009 2.73958 21.3967 3.02795 23.1513 3.02795C25.5883 3.02795 27.3916 2.4512 28.5126 1.29771C28.6101 1.15353 28.8538 1.15353 28.9513 1.29771C30.0723 2.4512 31.8757 3.02795 34.3126 3.02795C36.116 3.02795 38.1631 2.73958 40.6488 2.11477C42.3547 1.73027 43.8656 1.48996 45.3278 1.48996C48.3496 1.48996 50.7379 2.40314 52.1513 4.18144C54.637 7.2574 55.2219 14.0341 50.7866 19.9458C51.6152 19.4652 52.5412 19.1287 53.4673 19.1287C55.4656 19.1287 56.5866 20.859 56.7816 24.2714C56.9765 27.3954 56.0992 30.183 54.3933 31.9613C53.4673 32.9225 52.2975 33.5473 51.079 33.7396C52.0538 34.1721 53.1261 34.845 53.5648 35.8062C54.637 38.0171 54.8807 43.0155 48.3984 46.2357C46.595 47.1008 44.5479 47.5334 42.4034 47.9659C36.6521 49.1675 30.7547 50.369 29.195 60.5582C29.0975 60.7024 29 60.7985 28.8051 60.7985ZM8.91937 33.0186C9.06559 33.0186 9.21181 33.1148 9.21181 33.259C9.26055 33.4512 9.11433 33.5954 8.96811 33.6434C8.91937 33.6434 5.26391 34.4124 4.48407 36.0466C3.75298 37.6326 3.21685 42.4869 9.55298 45.6109C11.2589 46.476 13.2572 46.8605 15.4017 47.2931C20.7631 48.3985 26.758 49.6481 28.8051 58.6838C30.8521 49.6 36.8471 48.3504 42.2084 47.2931C44.353 46.8605 46.3513 46.4279 48.0572 45.6109C50.6891 44.3132 55.1244 40.6124 52.9311 36.0466C52.2 34.4605 49.3732 33.7876 48.7883 33.6915C48.7395 33.6915 48.6421 33.6434 48.5933 33.6434C48.4471 33.5954 48.3009 33.4512 48.3496 33.259C48.3984 33.1148 48.5446 32.9706 48.7395 33.0186C48.7395 33.0186 48.837 33.0186 48.9345 33.0667C49.3244 33.1148 49.6656 33.1628 50.0555 33.1628C51.5177 33.1628 52.8337 32.5861 53.9059 31.4807C55.4656 29.8465 56.2942 27.2031 56.1479 24.2714C56.0017 21.2435 55.0757 19.7055 53.4673 19.7055C51.4202 19.7055 48.8858 22.0605 48.8858 22.1086C48.7395 22.2528 48.5446 22.2047 48.4471 22.1086C48.3009 21.9644 48.3496 21.7721 48.4471 21.676C55.1732 15.1396 53.8572 7.30547 51.6639 4.56593C50.0555 2.54733 47.3261 2.11477 45.3278 2.11477C43.9631 2.11477 42.5009 2.30702 40.9412 2.69151C38.4068 3.31632 36.2622 3.65275 34.4589 3.65275C32.0219 3.65275 30.1211 3.07601 28.8538 1.92252C27.5866 3.07601 25.6858 3.65275 23.2488 3.65275C21.3967 3.65275 19.3009 3.36438 16.7664 2.69151C15.158 2.30702 13.6471 2.06671 12.2337 2.06671C10.2353 2.06671 7.55466 2.49926 6.04374 4.51787C5.06895 5.81554 4.77651 7.20934 5.11769 8.74733C5.60508 10.814 7.50592 14.0341 14.037 17.5427L14.4757 17.783C14.6219 17.8791 14.6706 18.0714 14.6219 18.2155C14.5244 18.3597 14.3782 18.4559 14.1832 18.3597C14.1345 18.3597 14.037 18.3117 13.9395 18.2155L13.7446 18.1194C11.5026 16.9179 9.4555 16.2931 7.74962 16.2931C4.77651 16.2931 2.87567 18.1675 2.14458 21.8683C1.65718 24.2233 1.70592 28.8372 3.80172 31.3365C5.02021 32.7783 6.72609 33.307 8.91937 32.9706C8.87063 33.0186 8.91937 33.0186 8.91937 33.0186Z" fill="#977C49"/>
<path d="M16.766 25.4248C17.5946 22.8776 15.9375 19.7535 14.3291 18.5039C12.7206 19.7535 11.0635 22.8776 11.8921 25.4248H16.766ZM14.3291 19.369C15.5475 20.5706 16.6198 22.8295 16.2786 24.8H12.3795C11.9896 22.8295 13.1106 20.5225 14.3291 19.369Z" fill="#977C49"/>
<path d="M18.1797 25.2806C18.8621 22.1566 16.8638 18.6481 14.9142 17.3504C14.573 17.1101 14.1344 17.1101 13.7932 17.3504C11.8436 18.6961 9.84529 22.2047 10.5276 25.2806C8.04193 26.9147 7.16462 29.8946 7.99319 33.5954C8.09067 34.0279 8.48058 34.3163 8.91924 34.3163C8.96798 34.3163 9.06546 34.3163 9.1142 34.2682C9.65033 34.1721 9.94277 33.6434 9.84529 33.1147C9.40663 31.3364 9.16294 28.1644 11.8923 26.6264H16.7663C19.447 28.1644 19.2033 31.3364 18.8134 33.1147C18.7159 33.6434 19.0083 34.124 19.5444 34.2682C20.0806 34.3644 20.568 34.076 20.7142 33.5473C21.5428 29.8946 20.6167 26.9147 18.1797 25.2806ZM20.0318 33.4512L19.3982 33.307C19.8369 31.2884 20.1293 27.7318 16.9125 26.0496H11.6974C8.48058 27.7318 8.72428 31.3364 9.21168 33.307L8.57806 33.4512C7.74949 29.8465 8.67554 27.0109 11.21 25.569C10.2839 22.6372 12.2335 19.1287 14.0856 17.831L14.1831 17.783H14.3781L14.4755 17.831C16.3276 19.1287 18.2772 22.5892 17.3512 25.569C19.9344 27.0109 20.8604 29.8465 20.0318 33.4512Z" fill="#977C49"/>
<path d="M35.0922 25.3286C34.946 24.9922 34.6048 24.7519 34.2149 24.7519H28.8048C28.2687 24.7519 27.83 25.1844 27.83 25.7131C27.83 26.2418 28.2687 26.6744 28.8048 26.6744H33.5325C34.0687 28.2604 33.7762 30.0387 32.8502 31.1922C31.9729 32.2976 30.6082 32.7302 28.9998 32.3938C28.8536 32.3457 28.7073 32.3457 28.6099 32.3938C27.0502 32.7302 25.6855 32.2976 24.7594 31.1922C23.6872 29.8945 23.4922 27.8279 24.272 26.0976C24.3695 25.8573 24.3695 25.5689 24.272 25.3286C23.4922 23.5984 23.6872 21.5317 24.7594 20.2341C25.6367 19.1286 27.0015 18.7441 28.5124 19.0325C28.6586 19.0806 28.8048 19.0806 28.951 19.0325C30.8031 18.648 32.2166 19.1767 32.8015 20.3782C32.8502 20.4263 32.8502 20.5224 32.8502 20.5224C32.9964 21.0511 33.4838 21.3395 34.0199 21.1953C34.5561 21.0511 34.8485 20.5224 34.7023 20.0418C34.7023 19.9938 34.6536 19.7534 34.5073 19.5612C33.5813 17.5907 31.388 16.6294 28.7073 17.11C26.5141 16.7255 24.467 17.3984 23.151 18.9844C21.6888 20.7627 21.3477 23.3581 22.225 25.6651C21.3477 27.972 21.6888 30.5674 23.151 32.3457C24.467 33.9798 26.4653 34.6527 28.7073 34.2682C29.0973 34.3643 29.5359 34.3643 29.9258 34.3643C31.6317 34.3643 33.1914 33.6434 34.2636 32.3457C35.9208 30.5193 36.2132 27.7317 35.0922 25.3286ZM33.8737 32.0093C32.9477 33.1627 31.583 33.7875 30.0233 33.7875C29.6334 33.7875 29.2435 33.7395 28.8048 33.6434C26.8065 34.0279 24.9544 33.4511 23.7846 32.0093C22.4199 30.3271 22.1275 27.8759 23.0536 25.7131C22.1275 23.5503 22.4199 21.0992 23.7846 19.417C24.9544 17.9751 26.8065 17.3503 28.8048 17.7829C31.2418 17.3503 33.1914 18.1193 34.0199 19.8976C34.1174 20.0899 34.1662 20.2821 34.1662 20.2821L33.5325 20.4263C33.5325 20.4263 33.4838 20.2821 33.4351 20.1379C32.7527 18.648 31.0468 17.9751 28.9023 18.4077L28.5124 18.5038V18.3596C26.8065 18.0713 25.2956 18.6 24.3208 19.8015C23.0536 21.3395 22.8586 23.5984 23.7359 25.5689L23.7846 25.7131L23.7359 25.8573C22.8586 27.8279 23.0536 30.0868 24.3208 31.6248C25.393 32.9224 26.9527 33.4031 28.8048 33.0186H28.8536H28.9023C30.7057 33.4031 32.3141 32.8744 33.3863 31.6248C34.6048 30.1348 34.8485 27.972 34.0199 26.0496H28.8048V25.4248H34.4099L34.5073 25.617C35.5309 27.7798 35.2384 30.3271 33.8737 32.0093Z" fill="#977C49"/>
<path d="M47.1799 24.4636C48.0085 23.7907 48.4472 22.9256 48.3009 21.9643V21.8202L48.3497 21.7721C48.3984 20.8589 48.0085 20.0419 47.1799 19.4171C45.3766 17.9752 41.9648 17.5426 38.9917 18.4077V25.4729C41.9648 26.2899 45.3766 25.9054 47.1799 24.4636ZM39.6253 18.8403C42.306 18.2155 45.2304 18.6 46.7413 19.8496C47.4236 20.3783 47.7161 21.0031 47.6673 21.724C47.6673 21.8202 47.6673 21.9163 47.6673 21.9643C47.7648 22.6853 47.4236 23.3581 46.7413 23.8868C45.1816 25.1364 42.306 25.5209 39.6253 24.8961V18.8403Z" fill="#977C49"/>
<path d="M44.548 26.9148C45.864 26.6264 47.0825 26.1458 47.9598 25.4248C49.1296 24.5117 49.6657 23.262 49.5682 21.9163C49.6657 20.5706 49.1296 19.321 47.9598 18.3597C45.7665 16.5814 41.8186 16.1008 38.3581 17.1582C37.9682 17.3023 37.6758 17.6388 37.6758 18.0713V25.6171C37.6758 25.6651 37.6758 25.6651 37.6758 25.7132V25.7613V33.307C37.6758 33.8357 38.1144 34.2682 38.6506 34.2682C39.1867 34.2682 39.6254 33.8357 39.6254 33.307V27.0589C39.7716 27.107 39.8691 27.1551 40.0153 27.2031C43.1346 28.3085 48.4472 30.183 47.7649 33.1628C47.6674 33.6915 47.9598 34.1721 48.4959 34.3163C48.5447 34.3163 48.6422 34.3163 48.6909 34.3163C49.1296 34.3163 49.5195 34.0279 49.617 33.5473C50.3481 30.3752 47.5699 28.3085 44.548 26.9148ZM49.0321 33.4512L48.3985 33.307C49.1783 29.7504 43.817 27.876 40.2102 26.6264C39.7716 26.4822 39.3329 26.338 38.943 26.1938V33.3551H38.3094V17.8791L38.5531 17.831C41.7699 16.8698 45.5716 17.3023 47.5699 18.9365C48.5934 19.7535 49.0808 20.8109 48.9346 21.9644C49.0321 23.1179 48.5447 24.1752 47.5699 24.9923C46.2539 26.0977 44.0607 26.6264 41.8186 26.5783C45.3279 27.8279 49.8119 29.8465 49.0321 33.4512Z" fill="#977C49"/>
<path d="M15.3527 18.1194C15.3527 18.6962 14.9141 19.1287 14.3292 19.1287C13.7931 19.1287 13.3057 18.6962 13.3057 18.1194C13.3057 17.5907 13.7443 17.1101 14.3292 17.1101C14.8653 17.1101 15.3527 17.5427 15.3527 18.1194Z" fill="#E3000B"/>
<path d="M17.5461 25.7132C17.5461 26.0015 17.3024 26.1938 17.0587 26.1938C16.7662 26.1938 16.5713 25.9535 16.5713 25.7132C16.5713 25.4248 16.815 25.2325 17.0587 25.2325C17.3024 25.2325 17.5461 25.4729 17.5461 25.7132Z" fill="#E3000B"/>
<path d="M12.1359 25.7132C12.1359 26.0015 11.8922 26.1938 11.6485 26.1938C11.3561 26.1938 11.1611 25.9535 11.1611 25.7132C11.1611 25.4248 11.4048 25.2325 11.6485 25.2325C11.8922 25.2325 12.1359 25.4729 12.1359 25.7132Z" fill="#E3000B"/>
<path d="M20.7629 33.355C20.7629 33.8837 20.3242 34.3643 19.7393 34.3643C19.2032 34.3643 18.7158 33.9317 18.7158 33.355C18.7158 32.8263 19.1545 32.3457 19.7393 32.3457C20.3242 32.3457 20.7629 32.7783 20.7629 33.355Z" fill="#E3000B"/>
<path d="M9.94305 33.355C9.94305 33.8837 9.5044 34.3643 8.91952 34.3643C8.38339 34.3643 7.896 33.9317 7.896 33.355C7.896 32.8263 8.33465 32.3457 8.91952 32.3457C9.45566 32.3457 9.94305 32.7783 9.94305 33.355Z" fill="#E3000B"/>
<path d="M29.8283 18.1194C29.8283 18.6962 29.3897 19.1287 28.8048 19.1287C28.2686 19.1287 27.7812 18.6962 27.7812 18.1194C27.7812 17.5907 28.2199 17.1101 28.8048 17.1101C29.3897 17.1101 29.8283 17.5427 29.8283 18.1194Z" fill="#E3000B"/>
<path d="M24.4186 25.7132C24.4186 26.2418 23.98 26.7225 23.3951 26.7225C22.859 26.7225 22.3716 26.2899 22.3716 25.7132C22.3716 25.1845 22.8102 24.7039 23.3951 24.7039C23.98 24.7519 24.4186 25.1845 24.4186 25.7132Z" fill="#E3000B"/>
<path d="M29.341 25.7132C29.341 26.0015 29.0973 26.1938 28.8536 26.1938C28.5612 26.1938 28.3662 25.9535 28.3662 25.7132C28.3662 25.4248 28.6099 25.2325 28.8536 25.2325C29.0973 25.2325 29.341 25.4729 29.341 25.7132Z" fill="#E3000B"/>
<path d="M34.361 20.3302C34.361 20.6186 34.1173 20.8108 33.8736 20.8108C33.5812 20.8108 33.3862 20.5705 33.3862 20.3302C33.3862 20.0419 33.6299 19.8496 33.8736 19.8496C34.1173 19.8496 34.361 20.0899 34.361 20.3302Z" fill="#E3000B"/>
<path d="M35.2385 25.7132C35.2385 26.2418 34.7998 26.7225 34.2149 26.7225C33.6788 26.7225 33.1914 26.2899 33.1914 25.7132C33.1914 25.1845 33.6301 24.7039 34.2149 24.7039C34.7998 24.7519 35.2385 25.1845 35.2385 25.7132Z" fill="#E3000B"/>
<path d="M49.714 33.355C49.714 33.8837 49.2754 34.3643 48.6905 34.3643C48.1544 34.3643 47.667 33.9317 47.667 33.355C47.667 32.8263 48.1056 32.3457 48.6905 32.3457C49.2267 32.3457 49.714 32.7783 49.714 33.355Z" fill="#E3000B"/>
<path d="M39.674 33.355C39.674 33.8837 39.2354 34.3643 38.6505 34.3643C38.1144 34.3643 37.627 33.9317 37.627 33.355C37.627 32.8263 38.0656 32.3457 38.6505 32.3457C39.1866 32.3457 39.674 32.7783 39.674 33.355Z" fill="#E3000B"/>
<path d="M39.1379 25.7132C39.1379 26.0015 38.8942 26.1938 38.6505 26.1938C38.358 26.1938 38.1631 25.9535 38.1631 25.7132C38.1631 25.4248 38.4068 25.2325 38.6505 25.2325C38.9429 25.2325 39.1379 25.4729 39.1379 25.7132Z" fill="#E3000B"/>
<path d="M39.674 18.1194C39.674 18.6481 39.2354 19.1287 38.6505 19.1287C38.1144 19.1287 37.627 18.6962 37.627 18.1194C37.627 17.5907 38.0656 17.1101 38.6505 17.1101C39.1866 17.1101 39.674 17.5907 39.674 18.1194Z" fill="#E3000B"/>
<path d="M49.6169 21.9163C49.6169 22.493 49.1782 22.9256 48.5933 22.9256C48.0572 22.9256 47.5698 22.493 47.5698 21.9163C47.5698 21.3876 48.0085 20.907 48.5933 20.907C49.1782 20.907 49.6169 21.3395 49.6169 21.9163Z" fill="#E3000B"/>
<path d="M29.8283 33.355C29.8283 33.8837 29.3897 34.3643 28.8048 34.3643C28.2686 34.3643 27.7812 33.9317 27.7812 33.355C27.7812 32.8263 28.2199 32.3457 28.8048 32.3457C29.3897 32.3457 29.8283 32.7783 29.8283 33.355Z" fill="#E3000B"/>
</g>
<defs>
<clipPath id="clip0">
<rect width="58" height="62" fill="white"/>
</clipPath>
</defs>
</svg>
