<svg width="186" height="304" viewBox="0 0 186 304" fill="none" xmlns="http://www.w3.org/2000/svg">
<path d="M183.114 78.1216H3.08215V307.392H183.114V78.1216Z" fill="#42DBFD"/>
<path d="M174.896 40.7717H11.3V78.1215H174.896V40.7717Z" fill="#42DBFD"/>
<path d="M113.357 233.65H72.2665V307.392H113.357V233.65Z" fill="#C65D6A"/>
<path d="M69.5907 290.728H2.69995V307.392H69.5907V290.728Z" fill="#C65D6A"/>
<path d="M182.923 290.728H115.65V307.392H182.923V290.728Z" fill="#C65D6A"/>
<path d="M183.496 218.519H2.50869C1.17088 218.519 0.0241699 217.369 0.0241699 216.029V213.156C0.0241699 211.815 1.17088 210.666 2.50869 210.666H183.496C184.834 210.666 185.981 211.815 185.981 213.156V216.029C185.981 217.561 184.834 218.519 183.496 218.519Z" fill="#3BC3D1"/>
<path d="M183.496 149.565H2.50869C1.17088 149.565 0.0241699 148.416 0.0241699 147.075V144.202C0.0241699 142.861 1.17088 141.712 2.50869 141.712H183.496C184.834 141.712 185.981 142.861 185.981 144.202V147.075C185.981 148.416 184.834 149.565 183.496 149.565Z" fill="#3BC3D1"/>
<path d="M184.643 81.7608H1.74424C0.979777 81.7608 0.406433 81.1862 0.406433 80.42V79.4624C0.406433 78.6962 0.979777 78.1216 1.74424 78.1216H184.643C185.407 78.1216 185.981 78.6962 185.981 79.4624V80.42C185.981 81.1862 185.407 81.7608 184.643 81.7608Z" fill="#3BC3D1"/>
<path d="M175.469 48.6248H10.7268C9.38895 48.6248 8.24225 47.4755 8.24225 46.1348V43.2617C8.24225 41.921 9.38895 40.7717 10.7268 40.7717H175.469C176.807 40.7717 177.954 41.921 177.954 43.2617V46.1348C177.763 47.4755 176.807 48.6248 175.469 48.6248Z" fill="#3BC3D1"/>
<path d="M92.1424 236.906H75.8975V307.392H92.1424V236.906Z" fill="#E5E5E5"/>
<path d="M108.77 236.906H92.1425V307.392H108.77V236.906Z" fill="#E5E5E5"/>
<path d="M38.8208 88.6561H15.1223V137.69H38.8208V88.6561Z" fill="#2F4458"/>
<path d="M72.4575 88.6561H48.759V137.69H72.4575V88.6561Z" fill="#2F4458"/>
<path d="M106.094 88.6561H82.3954V137.69H106.094V88.6561Z" fill="#2F4458"/>
<path d="M139.731 88.6561H116.032V137.69H139.731V88.6561Z" fill="#2F4458"/>
<path d="M172.029 88.6561H148.331V137.69H172.029V88.6561Z" fill="#2F4458"/>
<path d="M160.562 161.823H136.099V201.663H160.562V161.823Z" fill="#2F4458"/>
<path d="M162.856 161.823H133.615C132.85 161.823 132.277 161.249 132.277 160.483V159.525C132.277 158.759 132.85 158.184 133.615 158.184H162.856C163.62 158.184 164.193 158.759 164.193 159.525V160.483C164.193 161.249 163.62 161.823 162.856 161.823Z" fill="#FED93F"/>
<path d="M135.717 183.658L160.371 192.852V203.387H136.29L135.717 183.658Z" fill="#385568"/>
<path d="M162.855 204.728H133.615C132.85 204.728 132.277 204.153 132.277 203.387V202.429C132.277 201.663 132.85 201.089 133.615 201.089H162.855C163.62 201.089 164.193 201.663 164.193 202.429V203.387C164.193 204.153 163.62 204.728 162.855 204.728Z" fill="#FED93F"/>
<path d="M137.437 161.823H135.143V201.663H137.437V161.823Z" fill="#FED93F"/>
<path d="M161.517 161.823H159.224V201.663H161.517V161.823Z" fill="#FED93F"/>
<path d="M149.477 161.823H147.375V201.28H149.477V161.823Z" fill="white"/>
<path d="M159.224 168.527H137.437V170.442H159.224V168.527Z" fill="white"/>
<path d="M159.224 191.129H137.437V193.044H159.224V191.129Z" fill="white"/>
<path d="M160.562 232.118H136.099V271.958H160.562V232.118Z" fill="#2F4458"/>
<path d="M162.856 232.118H133.615C132.85 232.118 132.277 231.543 132.277 230.777V229.819C132.277 229.053 132.85 228.478 133.615 228.478H162.856C163.62 228.478 164.193 229.053 164.193 229.819V230.777C164.193 231.543 163.62 232.118 162.856 232.118Z" fill="#FED93F"/>
<path d="M135.717 253.761L160.371 262.955V273.49H136.29L135.717 253.761Z" fill="#385568"/>
<path d="M162.855 274.83H133.615C132.85 274.83 132.277 274.256 132.277 273.49V272.532C132.277 271.766 132.85 271.191 133.615 271.191H162.855C163.62 271.191 164.193 271.766 164.193 272.532V273.49C164.193 274.447 163.62 274.83 162.855 274.83Z" fill="#FED93F"/>
<path d="M137.437 232.118H135.143V271.958H137.437V232.118Z" fill="#FED93F"/>
<path d="M161.517 232.118H159.224V271.958H161.517V232.118Z" fill="#FED93F"/>
<path d="M149.477 232.118H147.375V271.574H149.477V232.118Z" fill="white"/>
<path d="M159.224 238.63H137.437V240.545H159.224V238.63Z" fill="white"/>
<path d="M159.224 261.231H137.437V263.147H159.224V261.231Z" fill="white"/>
<path d="M123.486 161.823H99.0228V201.663H123.486V161.823Z" fill="#2F4458"/>
<path d="M125.97 161.823H96.7292C95.9647 161.823 95.3914 161.249 95.3914 160.483V159.525C95.3914 158.759 95.9647 158.184 96.7292 158.184H125.97C126.735 158.184 127.308 158.759 127.308 159.525V160.483C127.117 161.249 126.543 161.823 125.97 161.823Z" fill="#FED93F"/>
<path d="M98.6403 183.658L123.485 192.852V203.387H99.2136L98.6403 183.658Z" fill="#385568"/>
<path d="M125.97 204.728H96.7291C95.9646 204.728 95.3912 204.153 95.3912 203.387V202.429C95.3912 201.663 95.9646 201.089 96.7291 201.089H125.97C126.734 201.089 127.308 201.663 127.308 202.429V203.387C127.117 204.153 126.543 204.728 125.97 204.728Z" fill="#FED93F"/>
<path d="M100.36 161.823H98.0668V201.663H100.36V161.823Z" fill="#FED93F"/>
<path d="M124.441 161.823H122.148V201.663H124.441V161.823Z" fill="#FED93F"/>
<path d="M112.401 161.823H110.298V201.28H112.401V161.823Z" fill="white"/>
<path d="M122.148 168.527H100.36V170.442H122.148V168.527Z" fill="white"/>
<path d="M122.148 191.129H100.36V193.044H122.148V191.129Z" fill="white"/>
<path d="M86.4086 161.823H61.9457V201.663H86.4086V161.823Z" fill="#2F4458"/>
<path d="M88.8937 161.823H59.6528C58.8884 161.823 58.315 161.249 58.315 160.483V159.525C58.315 158.759 58.8884 158.184 59.6528 158.184H88.8937C89.6581 158.184 90.2315 158.759 90.2315 159.525V160.483C90.2315 161.249 89.6581 161.823 88.8937 161.823Z" fill="#FED93F"/>
<path d="M61.5639 183.658L86.4091 192.852V203.387H62.3284L61.5639 183.658Z" fill="#385568"/>
<path d="M88.8936 204.728H59.6527C58.8883 204.728 58.3149 204.153 58.3149 203.387V202.429C58.3149 201.663 58.8883 201.089 59.6527 201.089H88.8936C89.658 201.089 90.2314 201.663 90.2314 202.429V203.387C90.2314 204.153 89.658 204.728 88.8936 204.728Z" fill="#FED93F"/>
<path d="M63.2838 161.823H60.9904V201.663H63.2838V161.823Z" fill="#FED93F"/>
<path d="M87.5555 161.823H85.2621V201.663H87.5555V161.823Z" fill="#FED93F"/>
<path d="M75.3243 161.823H73.222V201.28H75.3243V161.823Z" fill="white"/>
<path d="M85.2624 168.527H63.4752V170.442H85.2624V168.527Z" fill="white"/>
<path d="M85.2624 191.129H63.4752V193.044H85.2624V191.129Z" fill="white"/>
<path d="M49.5234 161.823H25.0605V201.663H49.5234V161.823Z" fill="#2F4458"/>
<path d="M51.8167 161.823H22.5759C21.8114 161.823 21.2381 161.249 21.2381 160.483V159.525C21.2381 158.759 21.8114 158.184 22.5759 158.184H51.8167C52.5812 158.184 53.1545 158.759 53.1545 159.525V160.483C53.1545 161.249 52.5812 161.823 51.8167 161.823Z" fill="#FED93F"/>
<path d="M24.4874 183.658L49.3326 192.852V203.387H25.2519L24.4874 183.658Z" fill="#385568"/>
<path d="M51.8168 204.728H22.576C21.8116 204.728 21.2382 204.153 21.2382 203.387V202.429C21.2382 201.663 21.8116 201.089 22.576 201.089H51.8168C52.5813 201.089 53.1546 201.663 53.1546 202.429V203.387C53.1546 204.153 52.5813 204.728 51.8168 204.728Z" fill="#FED93F"/>
<path d="M26.3983 161.823H24.105V201.663H26.3983V161.823Z" fill="#FED93F"/>
<path d="M50.4788 161.823H48.1854V201.663H50.4788V161.823Z" fill="#FED93F"/>
<path d="M38.2478 161.823H36.1456V201.28H38.2478V161.823Z" fill="white"/>
<path d="M48.1855 168.527H26.3983V170.442H48.1855V168.527Z" fill="white"/>
<path d="M48.1855 191.129H26.3983V193.044H48.1855V191.129Z" fill="white"/>
<path d="M49.5234 234.033H25.0605V273.873H49.5234V234.033Z" fill="#2F4458"/>
<path d="M51.8167 234.033H22.5759C21.8114 234.033 21.2381 233.458 21.2381 232.692V231.735C21.2381 230.968 21.8114 230.394 22.5759 230.394H51.8167C52.5812 230.394 53.1545 230.968 53.1545 231.735V232.692C53.1545 233.458 52.5812 234.033 51.8167 234.033Z" fill="#FED93F"/>
<path d="M24.4874 255.677L49.3326 264.87V275.596H25.2519L24.4874 255.677Z" fill="#385568"/>
<path d="M51.8168 276.937H22.576C21.8116 276.937 21.2382 276.363 21.2382 275.597V274.639C21.2382 273.873 21.8116 273.298 22.576 273.298H51.8168C52.5813 273.298 53.1546 273.873 53.1546 274.639V275.597C53.1546 276.363 52.5813 276.937 51.8168 276.937Z" fill="#FED93F"/>
<path d="M26.3983 234.033H24.105V273.873H26.3983V234.033Z" fill="#FED93F"/>
<path d="M50.4788 234.033H48.1854V273.873H50.4788V234.033Z" fill="#FED93F"/>
<path d="M38.2478 234.033H36.1456V273.49H38.2478V234.033Z" fill="white"/>
<path d="M48.1855 240.737H26.3983V242.652H48.1855V240.737Z" fill="white"/>
<path d="M48.1855 263.338H26.3983V265.254H48.1855V263.338Z" fill="white"/>
<path d="M134.761 2.65601H121.957V11.4667H134.761V2.65601Z" fill="#31A4AA"/>
<path d="M135.908 0.740479H120.81C120.428 0.740479 120.236 0.932015 120.236 1.31509V2.08124C120.236 2.46432 120.428 2.65585 120.81 2.65585H135.908C136.29 2.65585 136.481 2.46432 136.481 2.08124V1.31509C136.481 0.932015 136.29 0.740479 135.908 0.740479Z" fill="#3BC3D1"/>
<path d="M90.8046 238.63H77.4265V252.037H90.8046V238.63Z" fill="white"/>
<path d="M90.8046 253.953H77.4265V304.519H90.8046V253.953Z" fill="white"/>
<path d="M107.814 238.63H94.4357V251.846H107.814V238.63Z" fill="white"/>
<path d="M107.814 253.953H94.4357V304.519H107.814V253.953Z" fill="white"/>
<path d="M52.0079 73.7162H39.3942C37.6742 73.7162 36.1453 72.1839 36.1453 70.4601V56.0948C36.1453 54.3709 37.6742 52.8386 39.3942 52.8386H52.199C53.9191 52.8386 55.448 54.3709 55.448 56.0948V70.4601C55.448 72.3754 53.9191 73.7162 52.0079 73.7162Z" fill="#2F4458"/>
<path d="M56.4055 54.9455H35.5738V54.3709C35.5738 53.6048 36.1471 52.8386 37.1027 52.8386H55.0677C55.8322 52.8386 56.5966 53.4132 56.5966 54.3709V54.9455H56.4055Z" fill="#FED93F"/>
<path d="M35.5719 71.8007H56.4036V72.3753C56.4036 73.1414 55.8302 73.9076 54.8746 73.9076H36.9097C36.1452 73.9076 35.3807 73.333 35.3807 72.3753V71.8007H35.5719Z" fill="#FED93F"/>
<path d="M35.572 72.3753V54.5623C35.572 53.7962 36.3365 53.03 37.1009 53.03H37.8654V73.9076H37.1009C36.3365 73.7161 35.572 73.1414 35.572 72.3753Z" fill="#FED93F"/>
<path d="M56.4036 72.3753V54.5623C56.4036 53.7962 55.6391 53.03 54.8747 53.03H54.1102V73.9076H54.8747C55.8302 73.7161 56.4036 73.1414 56.4036 72.3753Z" fill="#FED93F"/>
<path d="M54.4924 62.6069H37.1008V64.1392H54.4924V62.6069Z" fill="#FED93F"/>
<path d="M46.9199 71.7582V54.3282H45.3909V71.7582H46.9199Z" fill="#FED93F"/>
<path d="M84.3067 73.7162H71.5019C69.7819 73.7162 68.2529 72.1839 68.2529 70.4601V56.0948C68.2529 54.3709 69.7819 52.8386 71.5019 52.8386H84.3067C86.0268 52.8386 87.5557 54.3709 87.5557 56.0948V70.4601C87.5557 72.3754 86.0268 73.7162 84.3067 73.7162Z" fill="#2F4458"/>
<path d="M88.7024 54.9455H67.8707V54.3709C67.8707 53.6048 68.444 52.8386 69.3996 52.8386H87.3646C88.129 52.8386 88.8935 53.4132 88.8935 54.3709V54.9455H88.7024Z" fill="#FED93F"/>
<path d="M67.6793 71.8007H88.511V72.3753C88.511 73.1414 87.9377 73.9076 86.9821 73.9076H69.0172C68.2527 73.9076 67.4882 73.333 67.4882 72.3753V71.8007H67.6793Z" fill="#FED93F"/>
<path d="M67.6794 72.3753V54.5623C67.6794 53.7962 68.4439 53.03 69.2084 53.03H69.9728V73.9076H69.2084C68.4439 73.7161 67.6794 73.1414 67.6794 72.3753Z" fill="#FED93F"/>
<path d="M88.7024 72.3753V54.5623C88.7024 53.7962 87.938 53.03 87.1735 53.03H86.4091V73.9076H87.1735C87.938 73.7161 88.7024 73.1414 88.7024 72.3753Z" fill="#FED93F"/>
<path d="M86.6 62.6069H69.2084V64.1392H86.6V62.6069Z" fill="#FED93F"/>
<path d="M79.0746 71.7113V54.2814H77.5457V71.7113H79.0746Z" fill="#FED93F"/>
<path d="M116.414 73.7162H103.609C101.889 73.7162 100.36 72.1839 100.36 70.4601V56.0948C100.36 54.3709 101.889 52.8386 103.609 52.8386H116.414C118.134 52.8386 119.663 54.3709 119.663 56.0948V70.4601C119.663 72.3754 118.134 73.7162 116.414 73.7162Z" fill="#2F4458"/>
<path d="M120.813 54.9455H99.9816V54.3709C99.9816 53.6048 100.555 52.8386 101.51 52.8386H119.475C120.24 52.8386 121.004 53.4132 121.004 54.3709V54.9455H120.813Z" fill="#FED93F"/>
<path d="M99.9781 71.8007H120.81V72.3753C120.81 73.1414 120.236 73.9076 119.281 73.9076H101.316C100.551 73.9076 99.7869 73.333 99.7869 72.3753V71.8007H99.9781Z" fill="#FED93F"/>
<path d="M99.9781 72.3753V54.5623C99.9781 53.7962 100.743 53.03 101.507 53.03H102.271V73.9076H101.507C100.551 73.7161 99.9781 73.1414 99.9781 72.3753Z" fill="#FED93F"/>
<path d="M120.81 72.3753V54.5623C120.81 53.7962 120.045 53.03 119.281 53.03H118.516V73.9076H119.281C120.045 73.7161 120.81 73.1414 120.81 72.3753Z" fill="#FED93F"/>
<path d="M118.707 62.6069H101.316V64.1392H118.707V62.6069Z" fill="#FED93F"/>
<path d="M111.228 71.856V54.426H109.7V71.856H111.228Z" fill="#FED93F"/>
<path d="M148.522 73.7162H135.717C133.997 73.7162 132.468 72.1839 132.468 70.4601V56.0948C132.468 54.3709 133.997 52.8386 135.717 52.8386H148.522C150.242 52.8386 151.771 54.3709 151.771 56.0948V70.4601C151.771 72.3754 150.433 73.7162 148.522 73.7162Z" fill="#2F4458"/>
<path d="M152.92 54.9455H132.089V54.3709C132.089 53.6048 132.662 52.8386 133.618 52.8386H151.583C152.347 52.8386 153.112 53.4132 153.112 54.3709V54.9455H152.92Z" fill="#FED93F"/>
<path d="M132.086 71.8008H152.917V72.3754C152.917 73.1415 152.344 73.9077 151.388 73.9077H133.423C132.659 73.9077 131.895 73.3331 131.895 72.3754V71.8008H132.086Z" fill="#FED93F"/>
<path d="M132.086 72.3754V54.5624C132.086 53.7963 132.85 53.0302 133.615 53.0302H134.379V73.9077H133.615C132.85 73.7162 132.086 73.1416 132.086 72.3754Z" fill="#FED93F"/>
<path d="M152.918 72.3754V54.5624C152.918 53.7963 152.153 53.0302 151.389 53.0302H150.624V73.9077H151.389C152.344 73.7162 152.918 73.1416 152.918 72.3754Z" fill="#FED93F"/>
<path d="M151.006 62.6071H133.615V64.1393H151.006V62.6071Z" fill="#FED93F"/>
<path d="M143.383 71.8093V54.3794H141.854V71.8093H143.383Z" fill="#FED93F"/>
<path d="M27.5451 89.8055H25.4429V136.541H27.5451V89.8055Z" fill="white"/>
<path d="M60.99 89.8055H58.8877V136.541H60.99V89.8055Z" fill="white"/>
<path d="M94.6269 89.8055H92.5247V136.541H94.6269V89.8055Z" fill="white"/>
<path d="M128.264 89.8055H126.161V136.541H128.264V89.8055Z" fill="white"/>
<path d="M161.9 89.8055H159.797V136.541H161.9V89.8055Z" fill="white"/>
<path d="M174.896 40.7718L155.02 12.9989H31.1761L11.3 40.7718H174.896Z" fill="#31A4AA"/>
<path d="M149.095 9.93433H37.2919C34.8074 9.93433 32.7051 11.0835 31.1761 12.9989H155.02C153.682 11.0835 151.388 9.93433 149.095 9.93433Z" fill="#31A4AA"/>
<path d="M39.0119 90.9546H15.1224C14.549 90.9546 14.1668 90.5715 14.1668 89.9969V89.6138C14.1668 89.0392 14.549 88.6561 15.1224 88.6561H39.0119C39.5853 88.6561 39.9675 89.0392 39.9675 89.6138V89.9969C39.7764 90.5715 39.3942 90.9546 39.0119 90.9546Z" fill="#FED93F"/>
<path d="M39.0119 137.69H15.1224C14.549 137.69 14.1668 137.307 14.1668 136.732V136.349C14.1668 135.774 14.549 135.391 15.1224 135.391H39.0119C39.5853 135.391 39.9675 135.774 39.9675 136.349V136.732C39.7764 137.307 39.3942 137.69 39.0119 137.69Z" fill="#FED93F"/>
<path d="M72.4572 90.9546H48.5676C47.9943 90.9546 47.6121 90.5715 47.6121 89.9969V89.6138C47.6121 89.0392 47.9943 88.6561 48.5676 88.6561H72.4572C73.0306 88.6561 73.4128 89.0392 73.4128 89.6138V89.9969C73.4128 90.5715 73.0306 90.9546 72.4572 90.9546Z" fill="#FED93F"/>
<path d="M72.4572 137.69H48.5676C47.9943 137.69 47.6121 137.307 47.6121 136.732V136.349C47.6121 135.774 47.9943 135.391 48.5676 135.391H72.4572C73.0306 135.391 73.4128 135.774 73.4128 136.349V136.732C73.4128 137.307 73.0306 137.69 72.4572 137.69Z" fill="#FED93F"/>
<path d="M106.094 90.9546H82.2044C81.6311 90.9546 81.2488 90.5715 81.2488 89.9969V89.6138C81.2488 89.0392 81.6311 88.6561 82.2044 88.6561H106.094C106.667 88.6561 107.05 89.0392 107.05 89.6138V89.9969C107.05 90.5715 106.667 90.9546 106.094 90.9546Z" fill="#FED93F"/>
<path d="M106.094 137.69H82.2044C81.6311 137.69 81.2488 137.307 81.2488 136.732V136.349C81.2488 135.774 81.6311 135.391 82.2044 135.391H106.094C106.667 135.391 107.05 135.774 107.05 136.349V136.732C107.05 137.307 106.667 137.69 106.094 137.69Z" fill="#FED93F"/>
<path d="M139.731 90.9546H115.841C115.268 90.9546 114.885 90.5715 114.885 89.9969V89.6138C114.885 89.0392 115.268 88.6561 115.841 88.6561H139.731C140.304 88.6561 140.686 89.0392 140.686 89.6138V89.9969C140.686 90.5715 140.304 90.9546 139.731 90.9546Z" fill="#FED93F"/>
<path d="M139.731 137.69H115.841C115.268 137.69 114.885 137.307 114.885 136.732V136.349C114.885 135.774 115.268 135.391 115.841 135.391H139.731C140.304 135.391 140.686 135.774 140.686 136.349V136.732C140.686 137.307 140.304 137.69 139.731 137.69Z" fill="#FED93F"/>
<path d="M171.838 90.9546H147.949C147.375 90.9546 146.993 90.5715 146.993 89.9969V89.6138C146.993 89.0392 147.375 88.6561 147.949 88.6561H171.838C172.411 88.6561 172.794 89.0392 172.794 89.6138V89.9969C172.794 90.5715 172.411 90.9546 171.838 90.9546Z" fill="#FED93F"/>
<path d="M171.838 137.69H147.949C147.375 137.69 146.993 137.307 146.993 136.732V136.349C146.993 135.774 147.375 135.391 147.949 135.391H171.838C172.411 135.391 172.794 135.774 172.794 136.349V136.732C172.794 137.307 172.411 137.69 171.838 137.69Z" fill="#FED93F"/>
</svg>
