<svg width="175" height="68" viewBox="0 0 175 68" fill="none" xmlns="http://www.w3.org/2000/svg">
<path d="M50.928 9.05804L43.1978 41.5376H30.7257L25.464 21.0276L20.1373 41.5376H7.73014L0 9.05804H10.0037L14.356 31.1855L20.3972 9.05804H31.0505L37.2866 31.2502L41.6388 9.05804H50.928Z" fill="#1E6AFF"/>
<path d="M71.0005 10.2874C72.8193 11.3873 74.1185 12.9401 74.963 14.8811V9.05807H84.9017V41.5376H74.963V35.6499C74.1185 37.5909 72.7544 39.1437 71.0005 40.2436C69.1816 41.3435 67.038 41.9258 64.5695 41.9258C61.9062 41.9258 59.5027 41.2788 57.359 39.9201C55.2154 38.5614 53.5264 36.6204 52.3572 34.0971C51.123 31.5738 50.5383 28.5976 50.5383 25.2331C50.5383 21.804 51.123 18.8278 52.3572 16.3692C53.5914 13.8459 55.2803 11.9696 57.359 10.6109C59.5027 9.25217 61.9062 8.60516 64.5695 8.60516C67.038 8.60516 69.1816 9.18747 71.0005 10.2874ZM62.6207 19.4748C61.3216 20.8982 60.672 22.8392 60.672 25.2978C60.672 27.7564 61.3216 29.6975 62.6207 31.1209C63.9199 32.5443 65.6738 33.1913 67.8175 33.1913C69.8962 33.1913 71.6501 32.4796 73.0142 31.0562C74.3783 29.6328 75.0279 27.6917 75.0279 25.2978C75.0279 22.8392 74.3783 20.8982 73.0142 19.4748C71.6501 18.0514 69.9611 17.3397 67.8175 17.3397C65.6089 17.3397 63.9199 18.0514 62.6207 19.4748Z" fill="#1E6AFF"/>
<path d="M98.1534 33.1913H112.639V41.5376H87.2402V33.6442L101.271 17.275H87.5001V9.05804H112.704V16.9515L98.1534 33.1913Z" fill="#1E6AFF"/>
<path d="M126.151 33.1913H140.637V41.5376H115.173V33.6442L129.269 17.275H115.238V9.05804H140.702V16.9515L126.151 33.1913Z" fill="#1E6AFF"/>
<path d="M71.8449 50.0133C70.8705 48.9781 70.0261 47.8782 69.3115 46.7783L72.0398 44.9667C72.6894 45.9372 73.4689 46.9077 74.3134 47.8135L71.8449 50.0133Z" fill="#1E6AFF"/>
<path d="M112.38 64.3768C110.885 64.3768 109.391 64.3121 107.897 64.2474L108.092 61.0124C110.561 61.1418 113.159 61.1418 115.627 61.0771L115.757 64.3121C114.653 64.3768 113.484 64.3768 112.38 64.3768ZM123.552 63.6004L123.098 60.43C125.631 60.0418 128.1 59.5242 130.438 58.9419L131.283 62.0476C128.749 62.6946 126.216 63.2122 123.552 63.6004ZM100.102 63.4063C97.4389 62.9534 94.9055 62.3711 92.4371 61.7241L93.3465 58.6184C95.685 59.2654 98.1535 59.8477 100.687 60.2359L100.102 63.4063ZM138.753 59.5242L137.519 56.548C139.857 55.5775 142.131 54.4776 144.145 53.1836L145.833 55.9657C143.625 57.2597 141.286 58.489 138.753 59.5242ZM84.9667 59.0713C82.4333 57.9714 80.0948 56.6774 78.0161 55.254L79.835 52.6013C81.7837 53.8953 83.9274 55.1246 86.3309 56.1598L84.9667 59.0713Z" fill="#1E6AFF"/>
<path d="M152.199 51.178L149.991 48.7841C150.9 47.943 151.81 47.0372 152.589 46.1313L155.058 48.2665C154.213 49.237 153.239 50.2075 152.199 51.178Z" fill="#1E6AFF"/>
<path d="M112.249 68C115.155 68 117.511 65.6536 117.511 62.7593C117.511 59.8649 115.155 57.5186 112.249 57.5186C109.344 57.5186 106.988 59.8649 106.988 62.7593C106.988 65.6536 109.344 68 112.249 68Z" fill="#1E6AFF"/>
<path d="M158.111 0C152.329 0 147.652 4.65842 147.652 10.4167C147.652 18.7631 158.111 25.2978 158.111 25.2978C158.111 25.2978 168.569 18.7631 168.569 10.4167C168.504 4.65842 163.827 0 158.111 0ZM158.111 15.334C155.642 15.334 153.693 13.393 153.693 10.9343C153.693 8.47574 155.642 6.53473 158.111 6.53473C160.579 6.53473 162.528 8.47574 162.528 10.9343C162.528 13.393 160.514 15.334 158.111 15.334Z" fill="#1E6AFF"/>
<path d="M172.791 16.4339C172.467 15.8516 172.077 15.2693 171.622 14.687C170.323 17.7926 168.179 21.4805 164.736 24.3273C164.736 24.6508 164.736 24.9743 164.736 25.2978C164.736 27.8858 164.087 29.8915 162.788 31.2502C161.489 32.6089 159.929 33.3206 157.981 33.3206C156.032 33.3206 154.473 32.6736 153.174 31.2502C151.875 29.8915 151.225 27.8858 151.225 25.2978C151.225 24.9743 151.225 24.6508 151.225 24.3273C147.847 21.4805 145.703 17.7926 144.339 14.687C143.95 15.2046 143.56 15.7869 143.17 16.4339C141.741 18.9572 140.961 21.9334 140.961 25.2978C140.961 28.6622 141.676 31.6384 143.17 34.1617C144.599 36.685 146.678 38.6261 149.211 39.9848C151.81 41.3435 154.668 41.9905 157.916 41.9905C161.164 41.9905 164.022 41.3435 166.62 39.9848C169.154 38.6261 171.167 36.685 172.661 34.1617C174.091 31.6384 174.87 28.6622 174.87 25.2978C175 21.8687 174.285 18.9572 172.791 16.4339Z" fill="#1E6AFF"/>
</svg>
