<svg width="101" height="30" viewBox="0 0 101 30" fill="none" xmlns="http://www.w3.org/2000/svg">
<g clip-path="url(#clip0)">
<path d="M72.7336 11.5277L73.0119 12.7685C73.0119 12.7685 70.4078 13.0487 66.2136 8.06539C64.6234 6.16412 64.1065 4.90328 64.0866 4.06272C60.8863 3.02203 56.2547 1.9213 50.4901 1.3209C53.2929 5.78387 57.2287 13.9893 52.2593 12.008C46.8326 9.80655 46.3157 3.44231 46.3157 0.98067C43.0955 0.800549 39.597 0.780536 35.8599 1.00068C38.0863 5.74385 42.2805 15.8706 35.9792 13.0687C29.8568 10.3469 29.5984 4.36292 29.8568 1.54104C26.5371 1.9213 23.794 2.3816 21.508 2.86192C23.4561 7.10475 26.2787 14.4897 21.7466 13.2889C17.3336 12.1081 16.4789 7.08474 16.3795 4.20282C11.9865 5.62376 10.8733 6.90462 10.8733 6.90462L9.14392 13.9893L74.4232 15.8106C74.4232 15.8106 73.8666 13.8092 72.7336 11.5277Z" fill="#DBBC3A"/>
<path d="M35.9791 13.0488C42.2804 15.8706 38.0861 5.72388 35.8598 0.980713C34.5677 1.06077 33.2558 1.16083 31.9041 1.30093C31.1885 1.38098 30.5126 1.44102 29.8567 1.52107C29.5983 4.34295 29.8765 10.3269 35.9791 13.0488Z" fill="#BCA133"/>
<path d="M21.7466 13.249C26.2787 14.4698 23.4561 7.08486 21.508 2.82202C19.4407 3.26232 17.7511 3.70261 16.3795 4.1429C16.4789 7.04484 17.3337 12.0682 21.7466 13.249Z" fill="#BCA133"/>
<path d="M52.2791 12.0081C57.2287 14.0094 53.3128 5.80393 50.51 1.32094C49.1782 1.18085 47.7867 1.06077 46.3356 0.980713C46.3157 3.44235 46.8326 9.8066 52.2791 12.0081Z" fill="#BCA133"/>
<path d="M73.0318 12.7685L72.7535 11.5277C71.5608 9.08609 69.7519 6.32425 67.3268 5.24353C66.5118 4.88329 65.4185 4.48302 64.1265 4.06274C64.1463 4.9033 64.6632 6.18416 66.2534 8.06541C70.4079 13.0287 73.0318 12.7685 73.0318 12.7685Z" fill="#BCA133"/>
<path d="M82.9907 15.6104C82.2751 11.8679 76.5303 6.32422 66.3926 3.30221C66.3926 3.30221 64.524 3.32222 64.9613 4.76318C65.2595 5.76385 68.0424 8.86592 69.7321 10.6871C70.1495 11.1474 69.7321 11.8679 69.1357 11.7078C66.3131 10.9473 60.9659 8.62576 57.3083 1.48099C56.9704 0.840567 56.3144 0.4403 55.5988 0.4403H49.377C48.1446 0.4403 47.2302 1.58106 47.5085 2.80187C48.0253 5.0834 49.1584 8.48566 51.5636 10.3669C52.0407 10.7272 51.7624 11.5077 51.166 11.4677C48.4428 11.2875 43.8112 9.70648 41.7836 1.40094C41.5849 0.580393 40.8692 0.0200195 40.0344 0.0200195L32.6398 0.580393C31.5664 0.580393 30.7315 1.52102 30.8507 2.60174C31.1489 5.3836 31.9043 9.00601 36.0389 11.4677C36.3569 11.6478 36.2178 12.1481 35.86 12.1281C33.2162 12.048 27.4119 10.9273 24.8078 3.04203C24.5693 2.32155 23.8139 1.88126 23.0785 2.02135L18.3475 2.92195C17.4927 3.08206 16.9362 3.94263 17.1349 4.7832C17.5723 6.68446 18.6258 9.82656 20.9118 11.4076C21.2298 11.6278 21.0111 12.1481 20.6335 12.048C18.5264 11.5877 15.7037 10.1668 14.9086 6.02402C14.7695 5.28353 14.0737 4.80321 13.3382 4.90328C10.1776 5.34357 1.21268 6.96465 0.298292 12.2482C0.11939 13.2689 0.02 14.1494 0.00012207 14.95C8.03083 17.1915 33.097 20.2735 82.9907 15.6104Z" fill="#E28A2B"/>
<path d="M4.21408 20.7339C6.75846 20.934 78.1204 20.7339 78.1204 20.7339C78.1204 20.7339 82.4339 21.3343 83.0303 18.7526C83.1893 18.0721 83.4477 16.351 82.6327 14.4697C32.739 19.1328 8.03065 17.1915 -5.23413e-05 14.95C-0.11932 19.413 2.04738 20.5738 4.21408 20.7339Z" fill="#C67728"/>
<path d="M89.928 20.1536L90.2262 21.4745C90.2262 21.4745 87.4631 21.7547 83.0303 16.4912C81.3407 14.4898 80.804 13.1489 80.7642 12.2483C77.3651 11.1476 72.4552 9.98683 66.3527 9.3464C69.3145 14.0695 73.4889 22.7754 68.2411 20.6539C62.4765 18.3324 61.9199 11.5879 61.9398 8.98616C58.5407 8.78602 54.8235 8.76601 50.8678 9.00617C53.2332 14.0295 57.666 24.7567 51.0069 21.7747C44.5267 18.8928 44.2484 12.5485 44.5068 9.56654C41.0083 9.96681 38.0862 10.4471 35.6611 10.9675C37.7284 15.4705 40.7101 23.2957 35.9195 21.9948C31.2283 20.734 30.3537 15.4305 30.2344 12.3684C25.583 13.8694 24.4102 15.2303 24.4102 15.2303L22.5615 22.7754L91.717 24.6966C91.717 24.6966 91.1207 22.5752 89.928 20.1536Z" fill="#FED93F"/>
<path d="M51.0068 21.7746C57.6858 24.7566 53.2332 14.0295 50.8677 9.0061C49.4961 9.08616 48.1047 9.18622 46.6734 9.32632C45.9181 9.40637 45.2025 9.48642 44.5067 9.56648C44.2483 12.5485 44.5266 18.8727 51.0068 21.7746Z" fill="#E2C23B"/>
<path d="M35.9196 21.9949C40.7102 23.2957 37.7285 15.4505 35.6612 10.9675C33.4746 11.4278 31.6856 11.9082 30.2345 12.3685C30.3538 15.4105 31.2284 20.734 35.9196 21.9949Z" fill="#E2C23B"/>
<path d="M68.2411 20.6541C73.4889 22.7755 69.3344 14.0697 66.3527 9.34657C64.9414 9.20647 63.4704 9.08639 61.9199 8.98633C61.9398 11.5881 62.4964 18.3326 68.2411 20.6541Z" fill="#E2C23B"/>
<path d="M90.2261 21.4744L89.9279 20.1536C88.6756 17.5718 86.7475 14.6299 84.1832 13.5091C83.3086 13.1289 82.1755 12.6886 80.7841 12.2483C80.8039 13.1489 81.3605 14.4898 83.0501 16.4911C87.4631 21.7546 90.2261 21.4744 90.2261 21.4744Z" fill="#E2C23B"/>
<path d="M100.761 24.4963C100.006 20.5337 93.9234 14.6698 83.1893 11.4677C83.1893 11.4677 81.2015 11.4877 81.6786 13.0087C81.9966 14.0694 84.9585 17.3516 86.7276 19.2929C87.1649 19.7732 86.7077 20.5337 86.0915 20.3736C83.1098 19.5731 77.4446 17.1114 73.5684 9.54639C73.2305 8.86593 72.5149 8.44565 71.7595 8.44565H65.16C63.8679 8.44565 62.8939 9.66647 63.1722 10.9273C63.7089 13.3489 64.9215 16.9513 67.4658 18.9326C67.9628 19.3329 67.6646 20.1334 67.0285 20.0934C64.1462 19.9133 59.2364 18.2322 57.0895 9.42631C56.8709 8.56573 56.1155 7.96533 55.221 7.96533L47.3891 8.56573C46.2362 8.56573 45.3615 9.5664 45.4808 10.7072C45.7989 13.6491 46.594 17.4917 50.987 20.1134C51.3249 20.3136 51.1858 20.8339 50.7882 20.8139C47.9854 20.7338 41.8431 19.533 39.0801 11.1875C38.8217 10.407 38.0266 9.96667 37.2314 10.1068L32.2222 11.0674C31.3078 11.2475 30.7313 12.1481 30.9301 13.0487C31.4072 15.0701 32.5005 18.3923 34.9256 20.0734C35.2635 20.3136 35.025 20.8539 34.6274 20.7539C32.4409 20.2335 29.4592 18.7325 28.6044 14.3496C28.4454 13.5691 27.7099 13.0687 26.9347 13.1688C23.5952 13.6491 14.0935 15.3503 13.1195 20.934C12.9406 22.0147 12.8412 22.9553 12.8213 23.7959C21.3887 26.1575 47.9457 29.4196 100.761 24.4963Z" fill="#F79F2D"/>
<path d="M17.3542 29.9198C20.0576 30.12 95.6336 29.9198 95.6336 29.9198C95.6336 29.9198 100.206 30.5402 100.822 27.8384C100.981 27.118 101.259 25.2967 100.404 23.2954C47.5687 28.2187 21.4093 26.1773 12.9015 23.7957C12.7624 28.4989 15.0682 29.7397 17.3542 29.9198Z" fill="#E0892B"/>
</g>
<defs>
<clipPath id="clip0">
<rect width="101" height="30" fill="white"/>
</clipPath>
</defs>
</svg>
