<svg width="52" height="67" viewBox="0 0 52 67" fill="none" xmlns="http://www.w3.org/2000/svg">
<g clip-path="url(#clip0)">
<path d="M34.3005 9.76001H12.457V10.009C12.457 11.7518 11.8329 13.4449 10.6846 14.7645L10.3351 15.1877C9.41139 16.2583 8.91211 17.6028 8.91211 18.9971V64.3609H30.3312C31.854 59.7548 33.7014 52.0863 35.324 39.4382C36.8718 27.4872 35.8732 17.3538 34.3005 9.76001Z" fill="#3BC3D1"/>
<path d="M30.2313 0H12.2573C11.0839 0 10.1104 0.946117 10.1104 2.14121V7.61873C10.1104 8.78893 11.059 9.75994 12.2573 9.75994H12.457H34.3005C32.9774 3.411 31.2299 2.3155 30.2313 0Z" fill="#2F4458"/>
<path d="M45.7839 19.4951C45.7839 18.2253 45.3596 16.9804 44.5857 15.9845L43.7119 14.8392C42.7383 13.5694 42.2391 12.0257 42.2391 10.4323V9.76001H34.3005C35.8732 17.3538 36.8718 27.4872 35.349 39.4382C33.7263 52.0614 31.879 59.7548 30.3562 64.3609H45.8089V19.4951H45.7839Z" fill="#34ACB2"/>
<path d="M42.239 9.75994H42.3638C43.5371 9.75994 44.5107 8.81382 44.5107 7.61873V2.14121C44.5107 0.971015 43.5621 0 42.3638 0H30.2313C31.2299 2.3155 32.9774 3.411 34.3005 9.75994H42.239Z" fill="#22323F"/>
<path d="M2.97072 59.6301C1.34806 59.6301 0 60.9746 0 62.593C0 64.2113 1.34806 65.5558 2.97072 65.5558H8.16323V59.6301H2.97072Z" fill="white"/>
<path d="M17.7993 62.5681C17.7993 60.9497 16.4513 59.6052 14.8286 59.6052H8.16321V65.5309H14.8536C16.4762 65.5309 17.7993 64.2113 17.7993 62.5681Z" fill="#E56A75"/>
<path d="M37.7205 59.3813C36.0979 59.1323 34.6 60.2527 34.3504 61.8711C34.1008 63.4894 35.2241 64.9833 36.8468 65.2323L41.9894 66.0041L42.8631 60.1531L37.7205 59.3813Z" fill="white"/>
<path d="M51.9501 64.4853C52.1997 62.8669 51.0763 61.3731 49.4537 61.1241L42.8382 60.1282L41.9645 65.9792L48.5799 66.9751C50.2026 67.2241 51.7254 66.1036 51.9501 64.4853Z" fill="#E56A75"/>
<path d="M23.7906 60.2278C22.3927 61.0743 21.9683 62.9167 22.8171 64.311C23.6658 65.7053 25.5132 66.1285 26.9111 65.282L31.3298 62.5682L28.2093 57.489L23.7906 60.2278Z" fill="white"/>
<path d="M37.9701 54.9495C37.1214 53.5552 35.274 53.132 33.8761 53.9785L28.2092 57.4891L31.3297 62.5184L37.0215 59.0078C38.3945 58.1613 38.8189 56.3189 37.9701 54.9495Z" fill="#E56A75"/>
<path d="M45.7839 25.3958H8.91211V45.0152H45.7839V25.3958Z" fill="white"/>
<path d="M45.7839 23.0056H8.91211V24.2256H45.7839V23.0056Z" fill="white"/>
<path d="M45.7839 46.2102H8.91211V47.4302H45.7839V46.2102Z" fill="white"/>
<path d="M27.9097 41.8285H25.7877C25.2136 41.8285 24.7393 41.3554 24.7393 40.7828V28.782C24.7393 28.2094 25.2136 27.7363 25.7877 27.7363H27.9097C28.4839 27.7363 28.9582 28.2094 28.9582 28.782V40.7828C28.9582 41.3803 28.4839 41.8285 27.9097 41.8285Z" fill="#3BC3D1"/>
<path d="M19.7964 35.7534V33.8611C19.7964 33.2885 20.2707 32.8154 20.8449 32.8154H32.8775C33.4517 32.8154 33.926 33.2885 33.926 33.8611V35.7285C33.926 36.3011 33.4517 36.7742 32.8775 36.7742H20.8449C20.2707 36.7742 19.7964 36.3011 19.7964 35.7534Z" fill="#3BC3D1"/>
</g>
<defs>
<clipPath id="clip0">
<rect width="52" height="67" fill="white"/>
</clipPath>
</defs>
</svg>
