<svg width="90" height="57" viewBox="0 0 90 57" fill="none" xmlns="http://www.w3.org/2000/svg">
<g clip-path="url(#clip0)">
<path d="M0 56.939V49.1361V48.8084H4.58508C5.45265 48.8024 6.08953 49.0867 6.45267 49.5916C6.81581 50.0927 6.90522 50.7272 6.90742 51.3979C6.90522 51.7376 6.91294 52.366 6.61161 52.9505C6.31635 53.5438 5.64029 54.0416 4.53983 54.0285H1.60489V56.939H0ZM1.60489 52.6267H3.72634H3.77712C4.23574 52.6284 4.59557 52.6207 4.81743 52.5592C5.04039 52.4884 5.11379 52.4346 5.20761 52.2222C5.26501 52.0768 5.30364 51.843 5.30254 51.5082C5.30971 50.804 5.20982 50.4753 5.10441 50.3831C5.01942 50.2793 4.75286 50.2047 4.17282 50.2102H1.60489V52.6267Z" fill="#094270"/>
<path d="M15.2683 48.7492C16.3356 48.7613 17.1028 48.9134 17.6304 49.3985C18.1547 49.8919 18.3125 50.6241 18.3125 51.5879V54.2503C18.3142 55.1669 18.1282 55.8864 17.5962 56.3644C17.0647 56.8359 16.2981 56.9978 15.2655 57H14.1397C13.1066 56.9978 12.34 56.8359 11.808 56.3644C11.2776 55.8864 11.0922 55.1669 11.0933 54.2503V51.5879C11.0933 50.6241 11.2506 49.8919 11.7737 49.3985C12.3019 48.9134 13.069 48.7613 14.1397 48.7487H15.2655L15.2683 48.7492ZM14.1397 50.1504C13.4526 50.145 13.101 50.2426 12.957 50.3936C12.8019 50.5319 12.6937 50.8777 12.6971 51.5879V54.2503C12.6976 54.9643 12.8334 55.2558 13.0011 55.3859C13.1662 55.5297 13.5398 55.5972 14.1397 55.5972H15.2622C15.866 55.5972 16.2391 55.5297 16.4052 55.3859C16.5719 55.2558 16.7076 54.9643 16.7076 54.2503V51.5879C16.712 50.8777 16.6022 50.5319 16.4482 50.3936C16.3047 50.2426 15.9521 50.145 15.2655 50.1504H14.1397Z" fill="#094270"/>
<path d="M23.3574 56.939V48.8084H24.9634V55.5378H29.2196V56.939H23.3574Z" fill="#094270"/>
<path d="M35.3237 56.9385V53.5955L31.9561 48.8085H33.8623L36.1637 52.0659L38.4661 48.8085H40.406L36.9286 53.5977V56.9385H35.3237Z" fill="#094270"/>
<path d="M46.5747 56.9385V50.2091H43.8677V48.8085H50.886V50.2102L48.1796 50.2091V56.613V56.9385H46.5747Z" fill="#094270"/>
<path d="M55.3696 56.939V48.8084H61.3973V50.2102H56.9751V52.0982H61.2092V53.45H56.9751V55.5378H61.3973V56.939H55.3696Z" fill="#094270"/>
<path d="M69.078 56.999H69.073C68.2524 56.999 67.552 56.7647 67.0614 56.2905C66.5697 55.819 66.318 55.1297 66.3197 54.319V51.4272C66.3059 50.3048 66.7463 49.5403 67.4792 49.1704C68.1983 48.7988 69.1089 48.7527 70.1359 48.7489H70.9158C71.8258 48.7494 72.4975 48.9217 72.9478 49.369C73.3921 49.8213 73.5284 50.4596 73.5284 51.2291V51.7949H71.9241V51.4689V51.2587C71.9279 50.7516 71.8518 50.4832 71.7359 50.3718C71.6338 50.2538 71.3694 50.1484 70.7817 50.1506H70.2474C69.5206 50.1495 68.9831 50.1824 68.6315 50.2774C68.2766 50.3795 68.1387 50.4936 68.0344 50.7099C67.9654 50.8597 67.9234 51.0836 67.9245 51.3981V53.4519C67.9234 54.0863 67.9389 54.5786 68.0222 54.9036C68.1149 55.2318 68.2148 55.3646 68.4588 55.4771C68.6282 55.5506 68.8859 55.5978 69.2551 55.5967H70.3815C70.9384 55.5989 71.338 55.5682 71.5819 55.4941C71.8258 55.4134 71.8904 55.3492 71.9627 55.1933C72.0068 55.0847 72.0355 54.9118 72.0355 54.6686V53.7433H73.6404V54.7691C73.6553 55.695 73.2668 56.3503 72.6393 56.6538C72.0239 56.9606 71.2623 56.9963 70.4146 56.999H69.078Z" fill="#094270"/>
<path d="M84.3004 56.939L84.2998 53.4999H80.0663V56.939H78.4614V48.8084H80.0669L80.0663 52.0982H84.2998V48.8084H85.9047V56.939H84.3004Z" fill="#094270"/>
<path d="M88.8933 47.7089C89.4783 47.7089 89.9999 48.1277 89.9999 48.7808C89.9999 49.4323 89.4783 49.8527 88.8933 49.8527C88.3077 49.8527 87.7856 49.4323 87.7856 48.7808C87.7856 48.1277 88.3077 47.7089 88.8933 47.7089ZM88.8933 49.6238C89.3398 49.6238 89.7057 49.2682 89.7057 48.7808C89.7057 48.2907 89.3398 47.9378 88.8933 47.9378C88.4407 47.9378 88.0798 48.2907 88.0798 48.7808C88.0798 49.2682 88.4407 49.6238 88.8933 49.6238ZM89.4579 48.9586C89.4121 49.2456 89.1902 49.4119 88.933 49.4119C88.5594 49.4119 88.3127 49.1342 88.3127 48.7758C88.3127 48.4054 88.5445 48.1332 88.9281 48.1332C89.1924 48.1332 89.4093 48.2885 89.4496 48.5777H89.2244C89.1957 48.4427 89.0776 48.3626 88.9281 48.3626C88.7084 48.3626 88.5909 48.5344 88.5909 48.7698C88.5909 48.9926 88.7228 49.1825 88.933 49.1825C89.092 49.1825 89.2073 49.0964 89.2244 48.9586H89.4579Z" fill="#094270"/>
<path d="M42.9231 1.14441e-05C33.0156 0.00220871 24.7594 7.00926 22.8857 16.3132H31.249C31.8644 14.5377 32.8766 12.9483 34.1901 11.6393C36.4379 9.40989 39.5003 8.04383 42.9231 8.04163C46.3465 8.04383 49.4089 9.40989 51.6562 11.6393C53.8985 13.8742 55.2727 16.9202 55.2744 20.3241C55.2727 23.7292 53.8985 26.7741 51.6562 29.0101C49.4089 31.239 46.3465 32.6056 42.9231 32.6072C39.5003 32.6056 36.4379 31.239 34.1901 29.0101C32.8887 27.7121 31.8826 26.1397 31.2651 24.385L22.904 24.3828V24.385V34.6319C22.904 43.3672 30.5051 42.8524 30.5051 42.8524L30.5095 36.4683C33.9505 39.0901 38.2531 40.6488 42.9231 40.6494C54.2114 40.6466 63.3584 31.5507 63.3606 20.3241C63.3584 9.0976 54.2114 0.00220871 42.9231 1.14441e-05Z" fill="#00ADEF"/>
<path d="M69.1946 44.3471C69.2164 44.3471 69.2359 44.3627 69.2359 44.3867C69.2359 44.4108 69.2164 44.4263 69.1946 44.4263C69.1727 44.4263 69.1533 44.4108 69.1533 44.3867C69.1533 44.3627 69.1727 44.3471 69.1946 44.3471ZM69.1946 44.4178C69.2112 44.4178 69.2248 44.4048 69.2248 44.3867C69.2248 44.3688 69.2112 44.3556 69.1946 44.3556C69.1777 44.3556 69.1642 44.3688 69.1642 44.3867C69.1642 44.4048 69.1777 44.4178 69.1946 44.4178ZM69.2156 44.3933C69.214 44.404 69.2056 44.4101 69.1961 44.4101C69.182 44.4101 69.1729 44.3997 69.1729 44.3866C69.1729 44.3729 69.1815 44.3629 69.1959 44.3629C69.2057 44.3629 69.2138 44.3686 69.2153 44.3792H69.2068L69.1959 44.3713C69.1876 44.3713 69.1833 44.3777 69.1833 44.3863C69.1833 44.3946 69.1883 44.4016 69.1961 44.4016L69.2068 44.3933H69.2156Z" fill="white"/>
<path d="M67.4282 44.5862V44.4333V44.4266H67.5181C67.5352 44.4265 67.5477 44.4322 67.5549 44.4422C67.5619 44.4519 67.5637 44.4643 67.5639 44.4774C67.5637 44.4842 67.5639 44.4965 67.558 44.5079C67.5523 44.5195 67.5389 44.5293 67.5173 44.529H67.4598V44.5862H67.4282ZM67.4598 44.5016H67.5015H67.5024C67.5114 44.5016 67.5184 44.5015 67.5228 44.5001L67.5305 44.4937C67.5315 44.4908 67.5323 44.4863 67.5323 44.4797C67.5324 44.4658 67.5305 44.4594 67.5284 44.4574C67.5267 44.4556 67.5215 44.4541 67.5103 44.4542H67.4598V44.5016Z" fill="white"/>
<path d="M67.7275 44.4254C67.7484 44.4258 67.7633 44.4288 67.7738 44.4382C67.7841 44.4479 67.7871 44.4624 67.7871 44.4811V44.5334C67.7871 44.5513 67.7835 44.5656 67.7731 44.575C67.7628 44.5841 67.7477 44.5873 67.7274 44.5873H67.7053C67.6851 44.5873 67.6701 44.5841 67.6597 44.575C67.6492 44.5656 67.6455 44.5513 67.6455 44.5334V44.4811C67.6455 44.4624 67.6486 44.4479 67.6589 44.4382C67.6694 44.4288 67.6843 44.4258 67.7053 44.4254H67.7274H67.7275ZM67.7053 44.4531C67.6919 44.4529 67.6849 44.4548 67.6821 44.4575C67.679 44.4604 67.677 44.4672 67.677 44.4811V44.5334C67.677 44.5475 67.6797 44.5531 67.683 44.5556C67.6863 44.5584 67.6936 44.5597 67.7053 44.5597H67.7274C67.7391 44.5597 67.7465 44.5584 67.7497 44.5556C67.7531 44.5531 67.7558 44.5475 67.7558 44.5334V44.4811C67.7559 44.4672 67.7535 44.4604 67.7506 44.4575C67.7478 44.4548 67.7409 44.4529 67.7274 44.4531H67.7053Z" fill="white"/>
<path d="M67.8862 44.5862V44.4267H67.9178V44.5585H68.0012V44.5862H67.8862Z" fill="white"/>
<path d="M68.1208 44.5862V44.5204L68.0547 44.4267H68.092L68.1372 44.4906L68.1823 44.4267H68.2204L68.1523 44.5206V44.5862H68.1208Z" fill="white"/>
<path d="M68.3417 44.5862V44.4542H68.2886V44.4267H68.4262V44.4542L68.3731 44.4542V44.5798V44.5862H68.3417Z" fill="white"/>
<path d="M68.5142 44.5862V44.4267H68.6324V44.4542H68.5457V44.4912H68.6287V44.5176H68.5457V44.5585H68.6324V44.5862H68.5142Z" fill="white"/>
<path d="M68.7827 44.5873H68.7826C68.7665 44.5873 68.7528 44.5827 68.7431 44.5735C68.7335 44.5641 68.7285 44.5506 68.7285 44.5348V44.4779C68.7283 44.456 68.7369 44.4411 68.7513 44.4338C68.7654 44.4265 68.7832 44.4255 68.8034 44.4254H68.8188C68.8365 44.4254 68.8498 44.4288 68.8586 44.4376C68.8673 44.4465 68.8699 44.459 68.8699 44.4742V44.4853H68.8385V44.4788V44.4748C68.8385 44.4648 68.837 44.4595 68.8348 44.4573C68.8328 44.4551 68.8277 44.4529 68.8161 44.4531H68.8056C68.7913 44.4531 68.7809 44.4537 68.7739 44.4556C68.7668 44.4575 68.7643 44.4597 68.7622 44.464L68.7601 44.4774L68.76 44.5177C68.76 44.5301 68.7603 44.5398 68.762 44.5463L68.7706 44.5576C68.7739 44.5589 68.7789 44.5598 68.7861 44.5597H68.8082C68.8192 44.5598 68.827 44.5592 68.8317 44.5579L68.8392 44.5519L68.8407 44.5415V44.5234H68.8721V44.5436C68.8724 44.5617 68.8648 44.5745 68.8526 44.5804C68.8405 44.5866 68.8255 44.5872 68.8088 44.5873H68.7827Z" fill="white"/>
<path d="M69.0813 44.5862V44.5187H68.9983V44.5862H68.9668V44.4267H68.9983V44.4912H69.0813V44.4267H69.1128V44.5862H69.0813Z" fill="white"/>
</g>
<defs>
<clipPath id="clip0">
<rect width="90" height="57" fill="white"/>
</clipPath>
</defs>
</svg>
