<svg width="38" height="38" viewBox="0 0 38 38" fill="none" xmlns="http://www.w3.org/2000/svg">
<path d="M18.6586 38C13.5009 38 8.64658 36.0236 5.00586 32.4436L10.3532 27.1855C12.5528 29.3484 15.5108 30.579 18.6586 30.579C21.8063 30.579 24.7264 29.3857 26.9639 27.1855C29.1635 25.0226 30.415 22.1138 30.415 19.0186C30.415 15.9235 29.2015 13.052 26.9639 10.8518C24.7643 8.65162 21.8063 7.45829 18.6586 7.45829C15.5108 7.45829 12.5907 8.65162 10.3532 10.8518L5.00586 5.55643C8.64658 1.97645 13.5009 0 18.6586 0C23.8162 0 28.6705 1.97645 32.3112 5.55643C35.952 9.13641 37.9619 13.9097 37.9619 18.9814C37.9619 24.053 35.952 28.8263 32.3112 32.4063C28.6705 36.0236 23.8162 38 18.6586 38Z" fill="#FFDB27"/>
<path d="M14.6008 11.9332L0 15.7742L3.90619 1.41699L14.6008 11.9332Z" fill="#FFDB27"/>
</svg>
