<svg width="191" height="778" viewBox="0 0 191 778" fill="none" xmlns="http://www.w3.org/2000/svg">
<path d="M97.8049 0H96.7434V91.7923H97.8049V0Z" fill="#FED93F"/>
<path d="M102.354 101.047H92.3461V111.061H102.354V101.047Z" fill="#F79F2D"/>
<path d="M85.8256 79.351C85.8256 79.351 95.8335 72.6752 96.8949 59.4753V79.9579L85.8256 79.351Z" fill="#FED93F"/>
<path d="M108.268 79.351C108.268 79.351 98.2596 72.6752 97.1981 59.4753V79.9579L108.268 79.351Z" fill="#FED93F"/>
<path d="M108.268 79.3508H86.2805V101.351H108.268V79.3508Z" fill="white"/>
<path d="M96.895 96.1923C100.161 96.1923 102.809 93.5431 102.809 90.2751C102.809 87.0071 100.161 84.3579 96.895 84.3579C93.6289 84.3579 90.9812 87.0071 90.9812 90.2751C90.9812 93.5431 93.6289 96.1923 96.895 96.1923Z" fill="#42DBFD"/>
<path d="M97.0466 94.8265C99.559 94.8265 101.596 92.7887 101.596 90.2748C101.596 87.761 99.559 85.7231 97.0466 85.7231C94.5342 85.7231 92.4976 87.761 92.4976 90.2748C92.4976 92.7887 94.5342 94.8265 97.0466 94.8265Z" fill="#F79F2D"/>
<path d="M97.1982 65.0888C98.3707 65.0888 99.3211 64.1378 99.3211 62.9647C99.3211 61.7916 98.3707 60.8406 97.1982 60.8406C96.0258 60.8406 95.0753 61.7916 95.0753 62.9647C95.0753 64.1378 96.0258 65.0888 97.1982 65.0888Z" fill="#FED93F"/>
<path d="M99.4728 107.723C115.546 113.337 112.059 131.544 111.907 131.695C111.907 131.999 111.604 132.15 111.3 132.15C110.997 132.15 110.845 131.847 110.845 131.544C110.845 131.544 111.755 126.688 110.542 121.378C109.026 115.006 105.083 110.758 98.8663 108.633C99.9277 109.696 101.292 111.364 102.657 113.792C104.932 117.889 107.358 124.868 105.538 134.73C105.538 135.033 105.235 135.185 105.083 135.185C105.083 135.185 105.083 135.185 104.932 135.185C104.628 135.185 104.477 134.881 104.477 134.578C107.055 119.557 100.079 111.213 97.5016 108.785C98.7146 119.557 97.9565 130.633 97.9565 130.785C97.9565 131.088 97.6532 131.24 97.3499 131.24C97.0467 131.24 96.895 130.937 96.895 130.633C96.895 130.482 97.6532 118.951 96.2885 108.027C95.5303 108.785 86.7355 118.192 90.678 134.426C90.678 134.73 90.5263 135.033 90.2231 135.033H90.0714C89.7682 135.033 89.6165 134.881 89.6165 134.578C87.4936 125.475 89.1616 118.495 90.9812 114.247C92.0427 111.668 93.4074 109.847 94.3172 108.633C89.7682 110.606 80.67 116.22 83.3995 130.633C83.3995 130.937 83.2478 131.24 82.9446 131.24C82.9446 131.24 82.9446 131.24 82.7929 131.24C82.4897 131.24 82.338 131.088 82.338 130.785C79.3053 115.006 90.0714 109.089 94.6205 107.42C85.9773 108.33 79.1537 115.764 79.1537 124.716C79.1537 134.275 86.8871 142.164 96.5918 142.164C106.296 142.164 114.03 134.426 114.03 124.716C114.485 116.22 107.964 108.937 99.4728 107.723Z" fill="#42DBFD"/>
<path d="M96.5916 108.178C97.8046 119.102 97.0465 130.633 97.0465 130.785C97.0465 131.088 97.1981 131.24 97.5014 131.392C97.8046 131.392 97.9563 131.24 98.1079 130.937C98.1079 130.785 98.8661 119.709 97.653 108.937C97.0465 108.33 96.7432 108.178 96.7432 108.027C96.7432 108.027 96.7432 108.027 96.5916 108.178Z" fill="#E56A75"/>
<path d="M82.7928 131.09C82.7928 131.394 83.0961 131.545 83.2477 131.545C83.2477 131.545 83.2477 131.545 83.3994 131.545C83.7026 131.545 83.8543 131.242 83.8543 130.938C81.1248 116.525 90.0713 110.911 94.772 108.939C95.2269 108.332 95.6818 107.877 95.8334 107.725C95.5302 107.725 95.3785 107.725 95.2269 107.725C90.5262 109.394 79.7601 115.311 82.7928 131.09Z" fill="#E56A75"/>
<path d="M97.6533 108.786C100.231 111.365 107.206 119.558 104.629 134.579C104.629 134.882 104.78 135.186 105.083 135.186C105.083 135.186 105.083 135.186 105.235 135.186C105.538 135.186 105.69 135.034 105.69 134.73C107.358 124.868 105.083 117.889 102.809 113.793C101.444 111.365 100.079 109.696 99.018 108.634C105.235 110.758 109.026 115.006 110.694 121.379C111.907 126.689 110.997 131.544 110.997 131.544C110.997 131.848 111.149 132.151 111.452 132.151C111.755 132.151 112.059 131.999 112.059 131.696C112.059 131.544 115.546 113.337 99.6246 107.724C99.018 107.572 98.4115 107.572 97.805 107.572C97.6533 108.027 97.6533 108.482 97.6533 108.786Z" fill="#E56A75"/>
<path d="M97.0467 107.572C96.895 107.572 96.895 107.572 96.7434 107.572C96.7434 107.724 96.7434 107.875 96.7434 108.027C96.7434 108.027 97.1983 108.331 97.6532 108.938C97.6532 108.482 97.5016 108.179 97.5016 107.724C97.3499 107.572 97.1983 107.572 97.0467 107.572Z" fill="#E56A75"/>
<path d="M91.2846 114.551C89.4649 118.799 87.6453 125.778 89.9198 134.882C89.9198 135.185 90.2231 135.337 90.3748 135.337H90.5264C90.8297 135.337 90.9813 135.033 90.9813 134.73C87.1904 118.496 95.9853 109.089 96.5918 108.33C96.1369 108.482 95.5304 108.634 94.6205 109.089C93.7107 110.151 92.4976 111.972 91.2846 114.551Z" fill="#E56A75"/>
<path d="M96.7433 108.027C96.5917 107.875 96.5917 107.724 96.5917 107.572C96.2884 107.572 95.9852 107.572 95.8335 107.572C95.6819 107.875 95.227 108.179 94.7721 108.786C95.5303 108.482 96.2884 108.179 96.7433 108.027Z" fill="#E56A75"/>
<path d="M96.7432 108.027C96.7432 107.875 96.7432 107.724 96.7432 107.572H96.5916C96.5916 107.724 96.5916 107.875 96.7432 108.027Z" fill="#E56A75"/>
<path d="M81.8831 166.743H75.5144C80.8216 177.364 75.2111 194.054 70.3588 203.005H80.9732C85.219 191.323 85.3707 178.426 81.8831 166.743Z" fill="#42DBFD"/>
<path d="M81.8831 166.743C85.3707 178.426 85.2191 191.323 80.8217 203.005H91.7394C91.7394 191.019 91.5878 178.73 91.1329 166.743H81.8831Z" fill="#E56A75"/>
<path d="M110.997 166.743H100.079C100.231 178.881 100.989 190.867 102.96 203.005H113.878C109.632 191.323 106.903 178.274 110.997 166.743Z" fill="#E56A75"/>
<path d="M91.1327 166.743C91.5876 178.73 91.7392 191.019 91.7392 203.005H102.809C100.837 190.867 100.079 178.881 99.9276 166.743H91.1327Z" fill="#42DBFD"/>
<path d="M119.337 166.743H110.997C106.903 178.274 109.632 191.323 113.878 203.005H123.431C118.275 193.295 114.181 176.454 119.337 166.743Z" fill="#42DBFD"/>
<path d="M97.5016 359.583C142.138 359.583 178.323 323.377 178.323 278.714C178.323 234.052 142.138 197.846 97.5016 197.846C52.865 197.846 16.6799 234.052 16.6799 278.714C16.6799 323.377 52.865 359.583 97.5016 359.583Z" fill="#FED93F"/>
<path d="M58.0763 254.287C57.773 254.287 55.6501 253.073 55.6501 252.77C55.6501 252.315 55.3468 211.501 97.0465 197.846C97.3498 197.695 97.6531 197.846 97.6531 198.15C97.8047 198.453 97.6531 198.757 97.3498 198.757C56.4083 212.108 58.5312 253.225 58.5312 253.68C58.5312 253.984 56.4083 253.225 56.105 253.225C56.2566 253.225 58.2279 254.287 58.0763 254.287Z" fill="#EAC93D"/>
<path d="M142.082 251.253C141.779 251.253 141.627 251.101 141.627 250.798C141.627 250.343 135.562 205.736 97.8048 198.757C97.5015 198.757 97.3499 198.453 97.3499 198.15C97.3499 197.847 97.6531 197.695 97.9564 197.695C136.472 204.826 143.75 249.432 143.75 249.887C143.75 250.191 143.599 250.494 143.295 250.494L142.082 251.253Z" fill="#EAC93D"/>
<path d="M153 248.067L144.66 253.832C144.66 253.832 125.402 229.708 100.382 230.467C75.3626 231.225 58.0762 253.832 58.0762 253.832L56.2566 365.955H149.664L148.754 264.908L155.881 254.894L153 248.067Z" fill="white"/>
<path d="M50.1913 248.067L58.0764 253.832L60.1992 365.955H18.4995C18.4995 365.955 11.3727 245.943 50.1913 248.067Z" fill="white"/>
<path d="M50.1912 248.067C50.1912 248.067 4.54894 210.591 12.5856 365.803H24.2615C24.2615 365.803 13.7987 246.094 49.8879 258.535L50.1912 248.067Z" fill="white"/>
<path d="M145.267 248.067L138.292 253.832L135.107 365.955H176.959C176.959 365.955 184.086 245.943 145.267 248.067Z" fill="white"/>
<path d="M125.857 358.673V271.736C125.857 258.687 114.485 248.067 100.534 248.067C94.4688 248.067 88.8583 250.039 84.4609 253.529C83.3994 278.715 82.338 347.445 125.857 358.673Z" fill="#2F4458"/>
<path d="M75.2112 271.736V359.583C92.0427 356.093 109.026 356.093 125.857 359.583V358.824C95.2271 350.48 84.7642 298.287 84.4609 253.529C78.6988 257.777 75.2112 264.301 75.2112 271.736Z" fill="#2F4458"/>
<path d="M41.0933 258.688C40.0319 258.688 38.9704 258.839 37.909 259.294C34.4214 281.446 25.9298 344.107 36.3926 360.949C41.0933 360.19 45.794 359.887 50.6464 360.038V279.17C50.4947 266.122 49.4333 258.688 41.0933 258.688Z" fill="#2F4458"/>
<path d="M37.9088 259.294C30.7819 262.025 24.5648 274.011 22.8968 297.983L20.6223 365.197C25.9296 363.224 31.0852 361.859 36.3924 360.948C25.9296 344.107 34.4211 281.446 37.9088 259.294Z" fill="#385568"/>
<path d="M159.217 362.011C164.373 362.618 169.68 363.377 174.836 364.894L172.561 297.832C170.741 271.584 163.311 259.902 155.578 258.688C154.971 274.771 170.59 332.425 159.217 362.011Z" fill="#385568"/>
<path d="M144.963 279.17V360.948C149.664 361.252 154.516 361.404 159.217 362.011C163.918 345.776 171.348 311.79 155.578 258.687C155.123 258.687 154.668 258.536 154.365 258.536C146.176 258.687 144.963 266.122 144.963 279.17Z" fill="#2F4458"/>
<path d="M145.267 248.067C145.267 248.067 190.909 210.591 182.872 365.803H171.196C171.196 365.803 181.659 246.094 145.57 258.535L145.267 248.067Z" fill="white"/>
<path d="M74.1498 328.025C74.1498 328.025 100.686 323.169 125.857 328.025V332.425C125.857 332.425 99.9278 326.507 74.1498 332.425V328.025Z" fill="white"/>
<path d="M20.0159 335.61C20.0159 335.61 38.3638 328.024 57.6214 329.997L58.0763 333.183C58.0763 333.183 38.9703 330.452 20.4708 338.797L20.0159 335.61Z" fill="white"/>
<path d="M79.4569 328.783H77.0308V359.582H79.4569V328.783Z" fill="white"/>
<path d="M84.7639 328.783H82.3378V359.582H84.7639V328.783Z" fill="white"/>
<path d="M90.0715 328.783H87.6454V359.582H90.0715V328.783Z" fill="white"/>
<path d="M95.3787 328.783H92.9525V359.582H95.3787V328.783Z" fill="white"/>
<path d="M100.686 328.783H98.2598V359.582H100.686V328.783Z" fill="white"/>
<path d="M27.3502 334.822L25.0765 334.885L25.8703 363.397L28.1439 363.334L27.3502 334.822Z" fill="white"/>
<path d="M22.9543 335.732L20.6807 335.795L21.4742 364.308L23.7478 364.244L22.9543 335.732Z" fill="white"/>
<path d="M32.3254 332.546L30.0518 332.61L30.9086 363.397L33.1822 363.334L32.3254 332.546Z" fill="white"/>
<path d="M37.3292 332.396L35.0555 332.459L35.9126 363.247L38.1862 363.183L37.3292 332.396Z" fill="white"/>
<path d="M42.3328 332.246L40.0592 332.309L40.916 363.096L43.1896 363.033L42.3328 332.246Z" fill="white"/>
<path d="M47.3364 332.095L45.0627 332.158L45.9198 362.945L48.1934 362.882L47.3364 332.095Z" fill="white"/>
<path d="M175.442 335.61C175.442 335.61 157.094 328.024 137.837 329.997L137.382 333.183C137.382 333.183 156.488 330.452 174.987 338.797L175.442 335.61Z" fill="white"/>
<path d="M167.421 363.449L169.694 363.512L170.488 335L168.214 334.937L167.421 363.449Z" fill="white"/>
<path d="M162.369 363.225L164.643 363.288L165.5 332.501L163.226 332.438L162.369 363.225Z" fill="white"/>
<path d="M157.283 363.095L159.557 363.158L160.414 332.371L158.14 332.307L157.283 363.095Z" fill="white"/>
<path d="M152.35 362.968L154.623 363.032L155.48 332.244L153.206 332.181L152.35 362.968Z" fill="white"/>
<path d="M147.264 362.838L149.538 362.901L150.395 332.113L148.121 332.05L147.264 362.838Z" fill="white"/>
<path d="M105.993 328.783H103.567V359.582H105.993V328.783Z" fill="white"/>
<path d="M111.3 328.783H108.874V359.582H111.3V328.783Z" fill="white"/>
<path d="M116.608 328.783H114.182V359.582H116.608V328.783Z" fill="white"/>
<path d="M121.915 328.783H119.489V359.582H121.915V328.783Z" fill="white"/>
<path d="M127.222 328.783H124.796V359.582H127.222V328.783Z" fill="white"/>
<path d="M182.721 776.82V520.712C125.857 507.361 68.3876 507.209 10.4629 519.65V776.365C68.236 788.351 126.009 789.413 182.721 776.82Z" fill="#42DBFD"/>
<path d="M182.721 428.92C124.948 414.962 61.564 414.81 10.4629 428.92V519.499C67.6294 506.906 125.099 507.209 182.721 520.561V428.92Z" fill="#E56A75"/>
<path d="M182.721 803.068V771.51C126.009 784.255 68.3876 783.041 10.4629 771.055V803.068C67.7811 820.365 125.251 820.365 182.721 803.068Z" fill="white"/>
<path d="M57.7732 509.03H15.3153L57.015 501.292L15.3153 493.554H57.7732L18.1964 478.23L59.8961 486.119L23.8069 463.816L63.2321 479.14L31.9952 450.616L67.9328 472.92L42.458 439.237L73.6949 467.761L54.7405 429.83L80.3669 463.664L68.691 422.851L87.4937 460.933L83.5512 418.603L95.2271 459.416L99.018 417.237L102.961 459.416L114.485 418.603L110.542 460.933L129.345 422.851L117.821 463.664L143.296 429.83L124.341 467.761L155.578 439.237L130.103 472.92L166.041 450.616L134.804 479.14L174.229 463.816L138.14 486.119L179.84 478.23L140.263 493.554H182.721L141.021 501.292L182.721 509.03H140.263" fill="white"/>
<path d="M126.767 645.883H63.2319C61.5639 645.883 60.1992 644.518 60.1992 642.849V623.125C60.1992 621.456 61.5639 620.091 63.2319 620.091H126.767C128.435 620.091 129.8 621.456 129.8 623.125V642.849C129.8 644.518 128.435 645.883 126.767 645.883Z" fill="#34ADC1"/>
<path d="M95.9851 568.505C124.794 568.505 148.148 545.138 148.148 516.313C148.148 487.487 124.794 464.12 95.9851 464.12C67.1765 464.12 43.8225 487.487 43.8225 516.313C43.8225 545.138 67.1765 568.505 95.9851 568.505Z" fill="#FED93F"/>
<path d="M95.9851 555.76C117.926 555.76 135.714 537.963 135.714 516.009C135.714 494.055 117.926 476.258 95.9851 476.258C74.0436 476.258 56.2566 494.055 56.2566 516.009C56.2566 537.963 74.0436 555.76 95.9851 555.76Z" fill="white"/>
<path d="M145.418 532.091H46.0972V616.297H145.418V532.091Z" fill="#2F4458"/>
<path d="M46.0971 532.092H19.5609C19.5609 526.326 24.2616 521.774 29.8721 521.774H38.5153C49.4331 521.774 60.3508 518.133 68.6908 511.002C73.8464 506.602 80.8216 500.837 95.8335 500.837C109.481 500.837 119.034 506.299 123.431 510.547C132.074 518.74 143.295 523.747 155.275 523.747H158.459C163.918 523.747 168.315 528.147 168.315 533.609L46.0971 532.092Z" fill="#3BC3D1"/>
<path d="M95.8336 556.367C109.233 556.367 120.095 545.499 120.095 532.092C120.095 518.685 109.233 507.816 95.8336 507.816C82.4342 507.816 71.5719 518.685 71.5719 532.092C71.5719 545.499 82.4342 556.367 95.8336 556.367Z" fill="#2F4458"/>
<path d="M122.976 614.477H68.6908V635.111H122.976V614.477Z" fill="#2F4458"/>
<path d="M97.5014 507.816H94.0138V635.111H97.5014V507.816Z" fill="white"/>
<path d="M145.418 531.03H46.0972V536.34H145.418V531.03Z" fill="white"/>
<path d="M118.275 521.167H73.3914V522.533H118.275V521.167Z" fill="white"/>
<path d="M139.656 544.988H52.0109V546.354H139.656V544.988Z" fill="white"/>
<path d="M139.656 558.947H52.0109V560.312H139.656V558.947Z" fill="white"/>
<path d="M139.656 572.753H52.0109V574.119H139.656V572.753Z" fill="white"/>
<path d="M139.656 586.712H52.0109V588.077H139.656V586.712Z" fill="white"/>
<path d="M139.656 600.519H52.0109V601.884H139.656V600.519Z" fill="white"/>
<path d="M120.399 613.718H71.2687V615.084H120.399V613.718Z" fill="white"/>
<path d="M122.976 626.918H68.6908V628.284H122.976V626.918Z" fill="white"/>
<path d="M120.399 614.477H71.2687V615.842H120.399V614.477Z" fill="white"/>
<path d="M109.784 635.112H107.813V511.002L109.784 512.52V635.112Z" fill="white"/>
<path d="M83.7027 635.112H81.7314V512.52L83.7027 511.002V635.112Z" fill="white"/>
<path d="M59.7445 615.084H57.7732V536.188L59.7445 535.278V615.084Z" fill="white"/>
<path d="M133.742 615.084H131.771V536.188L133.742 535.278V615.084Z" fill="white"/>
<path d="M71.4203 530.271H65.8098V616.449H71.4203V530.271Z" fill="#3BC3D1"/>
<path d="M51.7077 530.271H46.0972V616.449H51.7077V530.271Z" fill="#3BC3D1"/>
<path d="M145.418 529.209H139.808V616.298H145.418V529.209Z" fill="#3BC3D1"/>
<path d="M125.706 528.45H120.095V616.298H125.706V528.45Z" fill="#3BC3D1"/>
<path d="M76.8792 620.091H72.785V637.69H76.8792V620.091Z" fill="#34ADC1"/>
<path d="M87.4937 620.091H83.3995V637.69H87.4937V620.091Z" fill="#34ADC1"/>
<path d="M98.1079 620.091H94.0138V637.69H98.1079V620.091Z" fill="#34ADC1"/>
<path d="M108.723 620.091H104.628V637.69H108.723V620.091Z" fill="#34ADC1"/>
<path d="M119.337 620.091H115.243V637.69H119.337V620.091Z" fill="#34ADC1"/>
<path d="M129.8 624.187L128.739 621.153L132.074 622.063C132.074 622.063 130.255 622.063 129.8 624.187Z" fill="#34ADC1"/>
<path d="M60.351 624.187L61.4124 621.153L58.0764 622.215C58.0764 622.063 59.896 622.063 60.351 624.187Z" fill="#34ADC1"/>
<path d="M146.176 622.063H45.7937C44.7322 622.063 43.6708 621.152 43.6708 619.938V617.207C43.6708 616.145 44.5806 615.083 45.7937 615.083H146.176C147.238 615.083 148.299 615.994 148.299 617.207V619.938C148.148 621.152 147.238 622.063 146.176 622.063Z" fill="#34ADC1"/>
<path d="M122.067 787.289H75.3628C73.8465 787.289 72.785 786.076 72.785 784.71V774.241C72.785 772.724 73.9981 771.662 75.3628 771.662H122.067C123.583 771.662 124.644 772.876 124.644 774.241V784.71C124.644 786.076 123.431 787.289 122.067 787.289Z" fill="white"/>
<path d="M112.665 779.248H85.3709C83.8545 779.248 82.7931 778.034 82.7931 776.669V768.172C82.7931 766.655 84.0062 765.593 85.3709 765.593H112.665C114.182 765.593 115.243 766.807 115.243 768.172V776.669C115.243 778.186 114.182 779.248 112.665 779.248Z" fill="white"/>
<path d="M102.202 771.661H94.9239C93.4075 771.661 92.3461 770.448 92.3461 769.082V761.799C92.3461 760.282 93.5592 759.22 94.9239 759.22H102.202C103.719 759.22 104.78 760.434 104.78 761.799V769.082C104.932 770.448 103.719 771.661 102.202 771.661Z" fill="white"/>
<path d="M172.258 769.993L171.955 764.379L165.738 764.682C165.131 764.682 164.676 765.138 164.676 765.744L165.283 776.062L182.569 775.151V769.538L172.258 769.993Z" fill="white"/>
<path d="M178.627 759.675L172.713 759.979C172.106 759.979 171.651 760.434 171.651 761.041L171.803 764.227L178.627 763.923V759.675Z" fill="white"/>
<path d="M182.721 769.386V763.924L178.93 764.076V763.924L171.955 764.227L172.258 769.993L182.721 769.386Z" fill="white"/>
<path d="M182.72 754.82L179.536 754.972C178.93 754.972 178.475 755.427 178.475 756.034L178.626 759.675L182.72 759.524V754.82Z" fill="white"/>
<path d="M182.721 763.772V759.524L178.626 759.676L178.93 763.924L182.721 763.772Z" fill="white"/>
<path d="M182.715 763.688L178.93 763.891L178.938 764.043L182.723 763.84L182.715 763.688Z" fill="white"/>
<path d="M178.666 636.616L171.852 636.981L172.077 641.224L178.891 640.859L178.666 636.616Z" fill="white"/>
<path d="M182.872 646.188V640.726L178.93 640.877V640.726L172.106 641.181L172.41 646.794L182.872 646.188Z" fill="white"/>
<path d="M182.872 631.773L178.475 631.925L178.778 636.628L182.872 636.325V631.773Z" fill="white"/>
<path d="M182.872 655.139L178.475 655.29L178.778 659.994L182.872 659.842V655.139Z" fill="white"/>
<path d="M182.872 640.574V636.326L178.778 636.629L178.93 640.726L182.872 640.574Z" fill="white"/>
<path d="M178.667 651.789L171.853 652.154L172.078 656.396L178.892 656.031L178.667 651.789Z" fill="white"/>
<path d="M182.872 655.746V651.497L178.778 651.801L178.93 655.897L182.872 655.746Z" fill="white"/>
<path d="M182.72 640.643L178.935 640.845L178.943 640.998L182.729 640.795L182.72 640.643Z" fill="white"/>
<path d="M21.4202 561.811L14.6062 562.176L14.8314 566.419L21.6453 566.054L21.4202 561.811Z" fill="white"/>
<path d="M10.7659 556.67V562.132L14.5568 561.981V562.132L21.3803 561.677L21.0771 556.063L10.7659 556.67Z" fill="white"/>
<path d="M10.7659 571.084L15.0117 570.933L14.7084 566.229L10.7659 566.533V571.084Z" fill="white"/>
<path d="M10.7667 547.719L15.0125 547.567L14.7092 542.864L10.7667 543.015V547.719Z" fill="white"/>
<path d="M10.7659 562.284V566.532L14.7084 566.229L14.5568 562.132L10.7659 562.284Z" fill="white"/>
<path d="M21.4189 546.638L14.605 547.003L14.8302 551.246L21.6441 550.881L21.4189 546.638Z" fill="white"/>
<path d="M10.7659 547.112V551.36L14.7084 551.056L14.5568 546.96L10.7659 547.112Z" fill="white"/>
<path d="M14.5477 561.891L10.7621 562.093L10.7702 562.245L14.5558 562.043L14.5477 561.891Z" fill="white"/>
<path d="M21.0773 769.992L21.3806 764.378L26.6878 764.682C27.7493 764.682 28.5075 765.592 28.5075 766.654L28.0525 776.061L10.7661 775.151V769.537L21.0773 769.992Z" fill="white"/>
<path d="M14.7083 759.675L19.7122 759.979C20.7737 759.979 21.5319 760.889 21.5319 761.951L21.3802 764.227L14.5566 763.923L14.7083 759.675Z" fill="white"/>
<path d="M10.7661 769.386V763.924L14.557 764.076V763.924L21.3806 764.227L21.0773 769.993L10.7661 769.386Z" fill="white"/>
<path d="M10.7683 754.82L13.1945 754.972C14.2559 754.972 15.0141 755.882 15.0141 756.944L14.8625 759.675L10.7683 759.524V754.82Z" fill="white"/>
<path d="M10.7661 763.772V759.524L14.7086 759.676L14.557 763.924L10.7661 763.772Z" fill="white"/>
<path d="M10.6883 763.672L10.6802 763.824L14.4658 764.027L14.4739 763.874L10.6883 763.672Z" fill="white"/>
<path d="M181.356 430.438C127.222 414.052 69.9039 414.658 9.40137 430.741C4.70067 432.107 0.151611 428.617 0.151611 423.762V409.196C62.1705 401.61 125.554 401.61 190.606 409.196V423.458C190.606 428.313 185.905 431.803 181.356 430.438Z" fill="#42DBFD"/>
<path d="M190.606 418.451C131.165 398.12 67.4777 398.727 0.151611 418.451V408.589C0.151611 406.768 1.36469 405.099 3.18432 404.493C63.3836 385.982 125.099 385.072 188.179 404.644C189.696 405.099 190.757 406.465 190.757 408.134L190.606 418.451Z" fill="white"/>
<path d="M184.237 404.038C124.493 386.135 71.117 386.135 7.88501 404.038V380.824C66.7195 373.238 122.521 373.238 184.237 380.824V404.038Z" fill="#FED93F"/>
<path d="M188.179 389.624C130.255 370.507 68.5392 370.962 3.03271 389.624C1.51635 390.079 0 388.865 0 387.348V373.541C0 369.445 3.18434 365.803 7.2785 365.348C64.5967 358.824 123.28 358.976 183.176 365.348C187.27 365.803 190.454 369.293 190.454 373.541V387.803C190.606 389.169 189.393 389.927 188.179 389.624Z" fill="#42DBFD"/>
<path d="M29.2655 411.017L31.3884 461.389L48.9781 459.872L46.097 405.403L29.2655 411.017Z" fill="white"/>
<path d="M48.978 459.872L51.7074 455.927L49.4329 407.375L46.2485 407.831L48.978 459.872Z" fill="#D6DCE5"/>
<path d="M27.901 375.21L30.0239 426.493L47.1587 425.886L44.7325 370.507L27.901 375.21Z" fill="white"/>
<path d="M45.9455 398.879L48.9782 394.479L48.0684 373.541L44.7324 370.507L45.9455 398.879Z" fill="#D6DCE5"/>
<path d="M37.4539 390.382C39.2125 390.382 40.6382 388.616 40.6382 386.438C40.6382 384.259 39.2125 382.493 37.4539 382.493C35.6952 382.493 34.2695 384.259 34.2695 386.438C34.2695 388.616 35.6952 390.382 37.4539 390.382Z" fill="#F79F2D"/>
<path d="M166.496 411.017L164.373 461.389L146.783 459.872L149.664 405.403L166.496 411.017Z" fill="white"/>
<path d="M146.783 459.872L144.054 455.927L146.328 407.375L149.513 407.831L146.783 459.872Z" fill="#D6DCE5"/>
<path d="M167.86 375.21L165.738 426.493L148.451 425.886L151.029 370.507L167.86 375.21Z" fill="white"/>
<path d="M149.664 398.879L146.783 394.479L147.693 373.541L151.029 370.507L149.664 398.879Z" fill="#D6DCE5"/>
<path d="M158.307 390.382C160.066 390.382 161.492 388.616 161.492 386.438C161.492 384.259 160.066 382.493 158.307 382.493C156.549 382.493 155.123 384.259 155.123 386.438C155.123 388.616 156.549 390.382 158.307 390.382Z" fill="#F79F2D"/>
<path d="M108.723 131.847L107.055 133.061C107.055 133.061 103.112 128.054 97.8048 128.206C92.6492 128.358 89.01 133.061 89.01 133.061L88.5551 156.426H107.964L107.813 135.337L109.329 133.213L108.723 131.847Z" fill="white"/>
<path d="M87.3419 131.847L89.0098 133.061L89.4648 156.426H80.8216C80.6699 156.426 79.1536 131.392 87.3419 131.847Z" fill="white"/>
<path d="M87.342 131.847C87.342 131.847 69.7523 121.075 79.457 156.426H81.8832C81.8832 156.426 79.7603 131.544 87.1904 134.123L87.342 131.847Z" fill="white"/>
<path d="M107.055 131.847L105.69 133.061L105.083 156.426H113.727C113.727 156.426 115.243 131.392 107.055 131.847Z" fill="white"/>
<path d="M103.112 154.909V136.854C103.112 134.123 100.686 131.999 97.8047 131.999C96.5916 131.999 95.3785 132.454 94.4687 133.061C94.1654 138.219 94.0138 152.633 103.112 154.909Z" fill="#2F4458"/>
<path d="M92.4977 136.854V155.212C95.9853 154.454 99.4729 154.454 103.112 155.212V155.061C96.7435 153.392 94.6206 142.468 94.4689 133.061C93.2559 133.971 92.4977 135.337 92.4977 136.854Z" fill="#2F4458"/>
<path d="M85.3706 134.123C85.2189 134.123 84.9157 134.123 84.764 134.275C84.0059 138.978 82.3379 152.027 84.4608 155.516C85.3706 155.364 86.432 155.364 87.3418 155.364V138.372C87.3418 135.641 87.1902 134.123 85.3706 134.123Z" fill="#2F4458"/>
<path d="M84.7644 134.279C83.248 134.886 82.0349 137.313 81.58 142.32L81.1251 156.279C82.1866 155.823 83.248 155.52 84.4611 155.368C82.1866 151.879 84.0062 138.83 84.7644 134.279Z" fill="#476984"/>
<path d="M110.087 155.668C111.149 155.82 112.21 155.972 113.272 156.275L112.817 142.317C112.513 136.855 110.845 134.427 109.329 134.124C109.177 137.461 108.571 150.661 110.087 155.668Z" fill="#2F4458"/>
<path d="M107.054 138.371V155.364C108.116 155.364 109.026 155.516 110.087 155.516C108.722 150.509 109.177 137.309 109.329 133.971C109.177 133.971 109.177 133.971 109.026 133.971C107.358 134.123 107.054 135.64 107.054 138.371Z" fill="#476984"/>
<path d="M107.054 131.847C107.054 131.847 124.947 119.254 114.939 156.426H112.513C112.513 156.426 114.636 131.544 107.206 134.123L107.054 131.847Z" fill="white"/>
<path d="M129.497 169.474C106.903 167.502 84.9157 167.198 63.6868 169.474C62.4737 169.626 61.2606 168.564 61.2606 167.35V158.702C61.2606 157.64 62.1704 156.578 63.2319 156.578C85.6739 154.454 107.813 154.454 129.8 156.578C130.861 156.729 131.771 157.64 131.771 158.702V167.35C131.771 168.564 130.71 169.626 129.497 169.474Z" fill="#FED93F"/>
<path d="M97.8049 130.33C98.9773 130.33 99.9278 129.379 99.9278 128.205C99.9278 127.032 98.9773 126.081 97.8049 126.081C96.6325 126.081 95.682 127.032 95.682 128.205C95.682 129.379 96.6325 130.33 97.8049 130.33Z" fill="#F79F2D"/>
<path d="M80.2149 131.24C80.9686 131.24 81.5797 130.629 81.5797 129.875C81.5797 129.121 80.9686 128.509 80.2149 128.509C79.4612 128.509 78.8502 129.121 78.8502 129.875C78.8502 130.629 79.4612 131.24 80.2149 131.24Z" fill="#F79F2D"/>
<path d="M114.636 131.24C115.39 131.24 116.001 130.629 116.001 129.875C116.001 129.121 115.39 128.509 114.636 128.509C113.883 128.509 113.272 129.121 113.272 129.875C113.272 130.629 113.883 131.24 114.636 131.24Z" fill="#F79F2D"/>
</svg>
