<svg width="213" height="367" viewBox="0 0 213 367" fill="none" xmlns="http://www.w3.org/2000/svg">
<path d="M204.331 26.7743H7.86356V339.172H204.331V26.7743Z" fill="white"/>
<path d="M204.331 345.875H7.86353V374.989H204.331V345.875Z" fill="#31A4AA"/>
<path d="M204.331 339.172H7.86353V345.875H204.331V339.172Z" fill="#42DBFD"/>
<path d="M202.42 85.3843C201.847 85.3843 201.273 85.9589 201.273 86.5335V97.4511C201.273 98.0258 201.847 98.6004 202.42 98.6004H204.522V85.3843H202.42Z" fill="#C65D6A"/>
<path d="M202.42 110.859C201.847 110.859 201.273 111.434 201.273 112.008V122.926C201.273 123.5 201.847 124.075 202.42 124.075H204.522V110.859H202.42Z" fill="#C65D6A"/>
<path d="M202.42 136.333C201.847 136.333 201.273 136.908 201.273 137.483V148.4C201.273 148.975 201.847 149.549 202.42 149.549H204.522V136.333H202.42Z" fill="#C65D6A"/>
<path d="M202.42 161.808C201.847 161.808 201.273 162.382 201.273 162.957V173.875C201.273 174.449 201.847 175.024 202.42 175.024H204.522V161.808H202.42Z" fill="#C65D6A"/>
<path d="M202.42 187.282C201.847 187.282 201.273 187.857 201.273 188.431V199.349C201.273 199.924 201.847 200.498 202.42 200.498H204.522V187.282H202.42Z" fill="#C65D6A"/>
<path d="M202.42 212.757C201.847 212.757 201.273 213.331 201.273 213.906V224.824C201.273 225.398 201.847 225.973 202.42 225.973H204.522V212.757H202.42Z" fill="#C65D6A"/>
<path d="M202.42 238.231C201.847 238.231 201.273 238.806 201.273 239.38V250.298C201.273 250.873 201.847 251.447 202.42 251.447H204.522V238.231H202.42Z" fill="#C65D6A"/>
<path d="M202.42 263.706C201.847 263.706 201.273 264.28 201.273 264.855V275.772C201.273 276.347 201.847 276.922 202.42 276.922H204.522V263.706H202.42Z" fill="#C65D6A"/>
<path d="M202.42 289.18C201.847 289.18 201.273 289.755 201.273 290.329V301.247C201.273 301.822 201.847 302.396 202.42 302.396H204.522V289.18H202.42Z" fill="#C65D6A"/>
<path d="M202.42 314.654C201.847 314.654 201.273 315.229 201.273 315.804V326.721C201.273 327.296 201.847 327.871 202.42 327.871H204.522V314.654H202.42Z" fill="#C65D6A"/>
<path d="M202.42 60.1014C201.847 60.1014 201.273 60.6761 201.273 61.2507V72.1683C201.273 72.7429 201.847 73.3175 202.42 73.3175H204.522V60.1014H202.42Z" fill="#C65D6A"/>
<path d="M202.42 34.627C201.847 34.627 201.273 35.2016 201.273 35.7762V46.6938C201.273 47.2684 201.847 47.843 202.42 47.843H204.522V34.627H202.42Z" fill="#C65D6A"/>
<path d="M9.9658 85.3843C10.5392 85.3843 11.1125 85.9589 11.1125 86.5335V97.4511C11.1125 98.0258 10.5392 98.6004 9.9658 98.6004H7.86353V85.3843H9.9658Z" fill="#C65D6A"/>
<path d="M9.9658 110.859C10.5392 110.859 11.1125 111.434 11.1125 112.008V122.926C11.1125 123.5 10.5392 124.075 9.9658 124.075H7.86353V110.859H9.9658Z" fill="#C65D6A"/>
<path d="M9.9658 136.333C10.5392 136.333 11.1125 136.908 11.1125 137.483V148.4C11.1125 148.975 10.5392 149.549 9.9658 149.549H7.86353V136.333H9.9658Z" fill="#C65D6A"/>
<path d="M9.9658 161.808C10.5392 161.808 11.1125 162.382 11.1125 162.957V173.875C11.1125 174.449 10.5392 175.024 9.9658 175.024H7.86353V161.808H9.9658Z" fill="#C65D6A"/>
<path d="M9.9658 187.282C10.5392 187.282 11.1125 187.857 11.1125 188.431V199.349C11.1125 199.924 10.5392 200.498 9.9658 200.498H7.86353V187.282H9.9658Z" fill="#C65D6A"/>
<path d="M9.9658 212.757C10.5392 212.757 11.1125 213.331 11.1125 213.906V224.824C11.1125 225.398 10.5392 225.973 9.9658 225.973H7.86353V212.757H9.9658Z" fill="#C65D6A"/>
<path d="M9.9658 238.231C10.5392 238.231 11.1125 238.806 11.1125 239.38V250.298C11.1125 250.873 10.5392 251.447 9.9658 251.447H7.86353V238.231H9.9658Z" fill="#C65D6A"/>
<path d="M9.9658 263.706C10.5392 263.706 11.1125 264.28 11.1125 264.855V275.772C11.1125 276.347 10.5392 276.922 9.9658 276.922H7.86353V263.706H9.9658Z" fill="#C65D6A"/>
<path d="M9.9658 289.18C10.5392 289.18 11.1125 289.755 11.1125 290.329V301.247C11.1125 301.822 10.5392 302.396 9.9658 302.396H7.86353V289.18H9.9658Z" fill="#C65D6A"/>
<path d="M9.9658 314.654C10.5392 314.654 11.1125 315.229 11.1125 315.804V326.721C11.1125 327.296 10.5392 327.871 9.9658 327.871H7.86353V314.654H9.9658Z" fill="#C65D6A"/>
<path d="M9.9658 60.1014C10.5392 60.1014 11.1125 60.6761 11.1125 61.2507V72.1683C11.1125 72.7429 10.5392 73.3175 9.9658 73.3175H7.86353V60.1014H9.9658Z" fill="#C65D6A"/>
<path d="M9.96583 34.627C10.5392 34.627 11.1125 35.2016 11.1125 35.7762V46.6938C11.1125 47.2684 10.5392 47.843 9.96583 47.843H7.86356V34.627H9.96583Z" fill="#C65D6A"/>
<path d="M212.167 11.2596H0.21875L7.86341 26.7742H204.522L212.167 11.2596Z" fill="#31A4AA"/>
<path d="M106.097 323.274C127.207 323.274 144.321 305.78 144.321 284.2C144.321 262.62 127.207 245.127 106.097 245.127C84.9871 245.127 67.8739 262.62 67.8739 284.2C67.8739 305.78 84.9871 323.274 106.097 323.274Z" fill="#42DBFD"/>
<path d="M75.9008 284.2C75.9008 267.153 89.47 253.171 106.097 253.171C122.724 253.171 136.294 266.962 136.294 284.2" fill="#31A4AA"/>
<path d="M144.321 284.2H68.0651V374.989H144.321V284.2Z" fill="#42DBFD"/>
<path d="M106.097 375.181H72.4607V288.223H106.097V375.181ZM76.2831 371.35H102.275V292.053H76.2831V371.35Z" fill="#34ADC1"/>
<path d="M141.072 375.181H107.435V288.223H141.072V375.181ZM111.258 371.35H137.249V292.053H111.258V371.35Z" fill="#34ADC1"/>
<path d="M64.2428 299.715H67.6829C68.4474 299.715 69.2118 299.14 69.2118 298.182V287.839C69.2118 287.073 68.6385 286.307 67.6829 286.307H64.2428C63.4783 286.307 62.7139 286.882 62.7139 287.839V298.182C62.905 298.949 63.4783 299.715 64.2428 299.715Z" fill="#42DBFD"/>
<path d="M64.2428 317.336H67.6829C68.4474 317.336 69.2118 316.762 69.2118 315.804V305.461C69.2118 304.695 68.6385 303.929 67.6829 303.929H64.2428C63.4783 303.929 62.7139 304.503 62.7139 305.461V315.804C62.905 316.57 63.4783 317.336 64.2428 317.336Z" fill="#42DBFD"/>
<path d="M64.2428 334.958H67.6829C68.4474 334.958 69.2118 334.383 69.2118 333.425V323.082C69.2118 322.316 68.6385 321.55 67.6829 321.55H64.2428C63.4783 321.55 62.7139 322.125 62.7139 323.082V333.425C62.905 334.192 63.4783 334.958 64.2428 334.958Z" fill="#42DBFD"/>
<path d="M64.2428 352.388H67.6829C68.4474 352.388 69.2118 351.813 69.2118 350.855V340.512C69.2118 339.746 68.6385 338.98 67.6829 338.98H64.2428C63.4783 338.98 62.7139 339.555 62.7139 340.512V350.855C62.905 351.813 63.4783 352.388 64.2428 352.388Z" fill="#42DBFD"/>
<path d="M64.2428 370.009H67.6829C68.4474 370.009 69.2118 369.434 69.2118 368.477V358.325C69.2118 357.559 68.6385 356.793 67.6829 356.793H64.2428C63.4783 356.793 62.7139 357.367 62.7139 358.325V368.668C62.905 369.434 63.4783 370.009 64.2428 370.009Z" fill="#42DBFD"/>
<path d="M142.6 299.715H146.041C146.805 299.715 147.569 299.14 147.569 298.182V287.839C147.569 287.073 146.996 286.307 146.041 286.307H142.6C141.836 286.307 141.072 286.882 141.072 287.839V298.182C141.263 298.949 141.836 299.715 142.6 299.715Z" fill="#42DBFD"/>
<path d="M142.6 317.336H146.041C146.805 317.336 147.569 316.762 147.569 315.804V305.461C147.569 304.695 146.996 303.929 146.041 303.929H142.6C141.836 303.929 141.072 304.503 141.072 305.461V315.804C141.263 316.57 141.836 317.336 142.6 317.336Z" fill="#42DBFD"/>
<path d="M142.6 334.958H146.041C146.805 334.958 147.569 334.383 147.569 333.425V323.082C147.569 322.316 146.996 321.55 146.041 321.55H142.6C141.836 321.55 141.072 322.125 141.072 323.082V333.425C141.263 334.192 141.836 334.958 142.6 334.958Z" fill="#42DBFD"/>
<path d="M142.6 352.388H146.041C146.805 352.388 147.569 351.813 147.569 350.855V340.512C147.569 339.746 146.996 338.98 146.041 338.98H142.6C141.836 338.98 141.072 339.555 141.072 340.512V350.855C141.263 351.813 141.836 352.388 142.6 352.388Z" fill="#42DBFD"/>
<path d="M142.6 370.009H146.041C146.805 370.009 147.569 369.434 147.569 368.477V358.325C147.569 357.559 146.996 356.793 146.041 356.793H142.6C141.836 356.793 141.072 357.367 141.072 358.325V368.668C141.263 369.434 141.836 370.009 142.6 370.009Z" fill="#42DBFD"/>
<path d="M210.638 133.269H1.74753L7.86327 141.313H204.522L210.638 133.269Z" fill="#D6DCE5"/>
<path d="M173.944 123.692V61.8253H139.734V92.0882C148.716 102.048 163.05 117.18 173.944 123.692Z" fill="#2F4458"/>
<path d="M173.944 126.757V123.692C163.241 117.18 148.908 102.048 139.734 92.0883V126.948H173.944V126.757Z" fill="#3F5770"/>
<path d="M177.766 61.8253H173.944V130.779H177.766V61.8253Z" fill="#42DBFD"/>
<path d="M139.734 61.8253H135.912V130.779H139.734V61.8253Z" fill="#42DBFD"/>
<path d="M139.734 159.126H135.912V226.548H139.734V159.126Z" fill="#42DBFD"/>
<path d="M177.766 159.701H173.944V226.548H177.766V159.701Z" fill="#42DBFD"/>
<path d="M158.272 60.4846H156.743V129.438H158.272V60.4846Z" fill="#FED93F"/>
<path d="M175.094 57.6117H138.782C137.253 57.6117 135.915 58.9525 135.915 60.4848V61.634H177.769V60.2932C177.769 58.9525 176.623 57.6117 175.094 57.6117Z" fill="#42DBFD"/>
<path d="M177.766 224.441H135.912V225.973C135.912 227.314 137.058 228.463 138.396 228.463H175.282C176.619 228.463 177.766 227.314 177.766 225.973V224.441Z" fill="#42DBFD"/>
<path d="M173.753 156.445H139.734C137.632 156.445 135.72 158.169 135.72 160.467H177.575C177.766 158.169 176.046 156.445 173.753 156.445Z" fill="#42DBFD"/>
<path d="M177.766 126.757H135.912V130.779H177.766V126.757Z" fill="#42DBFD"/>
<path d="M173.944 67.5714H139.734V69.1037H173.944V67.5714Z" fill="#FED93F"/>
<path d="M173.944 221.568V159.701H139.734V189.773C148.716 199.924 163.05 215.055 173.944 221.568Z" fill="#2F4458"/>
<path d="M173.944 224.632V221.568C163.241 215.056 148.908 199.924 139.734 189.964V224.824H173.944V224.632Z" fill="#385568"/>
<path d="M158.272 159.701H156.743V224.632H158.272V159.701Z" fill="#FED93F"/>
<path d="M173.944 179.046H139.734V180.579H173.944V179.046Z" fill="#FED93F"/>
<path d="M173.944 202.605H139.734V204.138H173.944V202.605Z" fill="#FED93F"/>
<path d="M123.107 123.692V61.8254H88.897V92.0883C98.0706 102.048 112.404 117.18 123.107 123.692Z" fill="#2F4458"/>
<path d="M123.107 126.757V123.692C112.404 117.18 98.0707 102.048 88.8971 92.0884V126.948H123.107V126.757Z" fill="#3F5770"/>
<path d="M126.929 61.8254H123.107V130.779H126.929V61.8254Z" fill="#42DBFD"/>
<path d="M88.8969 61.8254H85.0745V130.779H88.8969V61.8254Z" fill="#42DBFD"/>
<path d="M88.8969 159.127H85.0745V226.548H88.8969V159.127Z" fill="#42DBFD"/>
<path d="M126.929 159.701H123.107V226.548H126.929V159.701Z" fill="#42DBFD"/>
<path d="M107.626 60.4846H106.097V129.438H107.626V60.4846Z" fill="#FED93F"/>
<path d="M124.448 57.6117H88.1355C86.6065 57.6117 85.2687 58.9525 85.2687 60.4848V61.634H127.123V60.2932C127.123 58.9525 125.977 57.6117 124.448 57.6117Z" fill="#42DBFD"/>
<path d="M127.12 224.441H85.2655V225.973C85.2655 227.314 86.4122 228.463 87.7501 228.463H124.636C125.973 228.463 127.12 227.314 127.12 225.973V224.441Z" fill="#42DBFD"/>
<path d="M123.107 156.445H89.088C86.9857 156.445 85.0745 158.169 85.0745 160.467H126.929C127.12 158.169 125.4 156.445 123.107 156.445Z" fill="#42DBFD"/>
<path d="M126.929 126.757H85.0745V130.779H126.929V126.757Z" fill="#42DBFD"/>
<path d="M123.298 67.5714H89.0878V69.1037H123.298V67.5714Z" fill="#FED93F"/>
<path d="M123.107 221.568V159.701H88.897V189.773C98.0706 199.924 112.404 215.055 123.107 221.568Z" fill="#2F4458"/>
<path d="M123.107 224.632V221.568C112.404 215.056 98.0707 199.924 88.8971 189.964V224.824H123.107V224.632Z" fill="#385568"/>
<path d="M107.626 159.701H106.097V224.632H107.626V159.701Z" fill="#FED93F"/>
<path d="M123.298 179.046H89.0878V180.579H123.298V179.046Z" fill="#FED93F"/>
<path d="M123.298 202.605H89.0878V204.138H123.298V202.605Z" fill="#FED93F"/>
<path d="M72.4607 123.692V61.8254H38.2508V92.0883C47.4244 102.048 61.7582 117.18 72.4607 123.692Z" fill="#2F4458"/>
<path d="M72.4607 126.757V123.692C61.7582 117.18 47.4245 102.048 38.2509 92.0884V126.948L72.4607 126.757Z" fill="#3F5770"/>
<path d="M76.2831 61.8254H72.4607V130.779H76.2831V61.8254Z" fill="#42DBFD"/>
<path d="M38.251 61.8254H34.4286V130.779H38.251V61.8254Z" fill="#42DBFD"/>
<path d="M38.251 159.127H34.4286V226.548H38.251V159.127Z" fill="#42DBFD"/>
<path d="M76.2831 159.701H72.4607V226.548H76.2831V159.701Z" fill="#42DBFD"/>
<path d="M56.9803 60.4846H55.4513V129.438H56.9803V60.4846Z" fill="#FED93F"/>
<path d="M73.8016 57.6117H37.4895C35.9606 57.6117 34.6227 58.9525 34.6227 60.4848V61.634H76.4773V60.2932C76.4773 58.9525 75.3306 57.6117 73.8016 57.6117Z" fill="#42DBFD"/>
<path d="M76.4742 224.441H34.6197V225.973C34.6197 227.314 35.7664 228.463 37.1042 228.463H73.9897C75.3275 228.463 76.4742 227.314 76.4742 225.973V224.441Z" fill="#42DBFD"/>
<path d="M72.4608 156.445H38.4421C36.3398 156.445 34.4286 158.169 34.4286 160.467H76.2832C76.4743 158.169 74.5631 156.445 72.4608 156.445Z" fill="#42DBFD"/>
<path d="M76.2832 126.757H34.4286V130.779H76.2832V126.757Z" fill="#42DBFD"/>
<path d="M72.6518 67.5714H38.442V69.1037H72.6518V67.5714Z" fill="#FED93F"/>
<path d="M72.4607 221.568V159.701H38.2508V189.964C47.4244 199.924 61.7582 215.055 72.4607 221.568Z" fill="#2F4458"/>
<path d="M72.4607 224.632V221.568C61.7582 215.056 47.4245 199.924 38.2509 189.964V224.824L72.4607 224.632Z" fill="#385568"/>
<path d="M56.9803 159.701H55.4513V224.632H56.9803V159.701Z" fill="#FED93F"/>
<path d="M72.6518 179.046H38.442V180.579H72.6518V179.046Z" fill="#FED93F"/>
<path d="M72.6518 202.605H38.442V204.138H72.6518V202.605Z" fill="#FED93F"/>
<path d="M210.638 133.269H208.727V108.178C208.727 107.22 207.389 106.262 206.051 106.262H6.33433C4.8054 106.262 3.65869 107.028 3.65869 108.178V133.269H1.74753V108.178C1.74753 106.071 3.84981 104.347 6.33433 104.347H205.86C208.345 104.347 210.447 106.071 210.447 108.178V133.269H210.638Z" fill="#D6DCE5"/>
<path d="M13.4059 104.921H11.4947V133.269H13.4059V104.921Z" fill="#D6DCE5"/>
<path d="M18.1837 104.921H16.2725V133.269H18.1837V104.921Z" fill="#D6DCE5"/>
<path d="M22.7706 104.921H20.8594V133.269H22.7706V104.921Z" fill="#D6DCE5"/>
<path d="M27.5484 104.921H25.6372V133.269H27.5484V104.921Z" fill="#D6DCE5"/>
<path d="M32.1352 104.921H30.224V133.269H32.1352V104.921Z" fill="#D6DCE5"/>
<path d="M36.9131 104.921H35.0019V133.269H36.9131V104.921Z" fill="#D6DCE5"/>
<path d="M41.4999 104.921H39.5887V133.269H41.4999V104.921Z" fill="#D6DCE5"/>
<path d="M46.2777 104.921H44.3665V133.269H46.2777V104.921Z" fill="#D6DCE5"/>
<path d="M50.8645 104.921H48.9533V133.269H50.8645V104.921Z" fill="#D6DCE5"/>
<path d="M55.6426 104.921H53.7314V133.269H55.6426V104.921Z" fill="#D6DCE5"/>
<path d="M60.2294 104.921H58.3182V133.269H60.2294V104.921Z" fill="#D6DCE5"/>
<path d="M65.0073 104.921H63.0961V133.269H65.0073V104.921Z" fill="#D6DCE5"/>
<path d="M69.5941 104.921H67.6829V133.269H69.5941V104.921Z" fill="#D6DCE5"/>
<path d="M74.3719 104.921H72.4607V133.269H74.3719V104.921Z" fill="#D6DCE5"/>
<path d="M78.9587 104.921H77.0475V133.269H78.9587V104.921Z" fill="#D6DCE5"/>
<path d="M83.7365 104.921H81.8253V133.269H83.7365V104.921Z" fill="#D6DCE5"/>
<path d="M88.3234 104.921H86.4122V133.269H88.3234V104.921Z" fill="#D6DCE5"/>
<path d="M93.1012 104.921H91.19V133.269H93.1012V104.921Z" fill="#D6DCE5"/>
<path d="M97.6883 104.921H95.7772V133.269H97.6883V104.921Z" fill="#D6DCE5"/>
<path d="M102.466 104.921H100.555V133.269H102.466V104.921Z" fill="#D6DCE5"/>
<path d="M107.053 104.921H105.142V133.269H107.053V104.921Z" fill="#D6DCE5"/>
<path d="M111.831 104.921H109.92V133.269H111.831V104.921Z" fill="#D6DCE5"/>
<path d="M116.418 104.921H114.506V133.269H116.418V104.921Z" fill="#D6DCE5"/>
<path d="M121.196 104.921H119.285V133.269H121.196V104.921Z" fill="#D6DCE5"/>
<path d="M125.782 104.921H123.871V133.269H125.782V104.921Z" fill="#D6DCE5"/>
<path d="M130.56 104.921H128.649V133.269H130.56V104.921Z" fill="#D6DCE5"/>
<path d="M135.147 104.921H133.236V133.269H135.147V104.921Z" fill="#D6DCE5"/>
<path d="M139.925 104.921H138.014V133.269H139.925V104.921Z" fill="#D6DCE5"/>
<path d="M144.512 104.921H142.601V133.269H144.512V104.921Z" fill="#D6DCE5"/>
<path d="M149.29 104.921H147.378V133.269H149.29V104.921Z" fill="#D6DCE5"/>
<path d="M153.876 104.921H151.965V133.269H153.876V104.921Z" fill="#D6DCE5"/>
<path d="M158.654 104.921H156.743V133.269H158.654V104.921Z" fill="#D6DCE5"/>
<path d="M163.241 104.921H161.33V133.269H163.241V104.921Z" fill="#D6DCE5"/>
<path d="M167.828 104.921H165.917V133.269H167.828V104.921Z" fill="#D6DCE5"/>
<path d="M172.606 104.921H170.695V133.269H172.606V104.921Z" fill="#D6DCE5"/>
<path d="M177.193 104.921H175.282V133.269H177.193V104.921Z" fill="#D6DCE5"/>
<path d="M181.97 104.921H180.059V133.269H181.97V104.921Z" fill="#D6DCE5"/>
<path d="M186.557 104.921H184.646V133.269H186.557V104.921Z" fill="#D6DCE5"/>
<path d="M191.335 104.921H189.424V133.269H191.335V104.921Z" fill="#D6DCE5"/>
<path d="M195.922 104.921H194.011V133.269H195.922V104.921Z" fill="#D6DCE5"/>
<path d="M200.7 104.921H198.789V133.269H200.7V104.921Z" fill="#D6DCE5"/>
<path d="M170.312 14.1326H168.401C167.637 14.1326 167.063 13.558 167.063 12.7919V1.49115C167.063 0.725003 167.637 0.150391 168.401 0.150391H170.312C171.077 0.150391 171.65 0.725003 171.65 1.49115V12.6003C171.65 13.558 171.077 14.1326 170.312 14.1326Z" fill="#31A4AA"/>
<path d="M162.285 16.2394H160.374C159.61 16.2394 159.036 15.6648 159.036 14.8987V3.59796C159.036 2.83181 159.61 2.2572 160.374 2.2572H162.285C163.05 2.2572 163.623 2.83181 163.623 3.59796V14.7071C163.814 15.6648 163.241 16.2394 162.285 16.2394Z" fill="#31A4AA"/>
<path d="M154.259 18.1547H152.348C151.583 18.1547 151.01 17.5801 151.01 16.8139V5.70477C151.01 4.93863 151.583 4.36401 152.348 4.36401H154.259C155.023 4.36401 155.597 4.93863 155.597 5.70477V16.8139C155.788 17.5801 155.023 18.1547 154.259 18.1547Z" fill="#31A4AA"/>
</svg>
