<svg width="225" height="310" viewBox="0 0 225 310" fill="none" xmlns="http://www.w3.org/2000/svg">
<path d="M210.228 71.6721H13.7604V310.136H210.228V71.6721Z" fill="#FED93F"/>
<path d="M215.388 48.6877H9.55573V71.6722H215.388V48.6877Z" fill="#3BC3D1"/>
<path d="M212.521 303.624H12.6135C10.8934 303.624 9.74673 304.965 9.74673 306.497V311.286H215.579V306.497C215.388 304.965 214.05 303.624 212.521 303.624Z" fill="#42DBFD"/>
<path d="M224.944 14.9773H0V50.7948H224.944V14.9773Z" fill="#42DBFD"/>
<path d="M199.526 303.624H131.87V315.882H199.526V303.624Z" fill="#3BC3D1"/>
<path d="M204.686 309.753H126.901V322.012H204.686V309.753Z" fill="#3BC3D1"/>
<path d="M186.912 226.626H143.911V303.624H186.912V226.626Z" fill="white"/>
<path d="M182.325 232.755H148.689V306.88H182.325V232.755Z" fill="#3BC3D1"/>
<path d="M97.4695 294.047H121.932V226.626H23.8896V240.034C27.1386 247.312 44.9124 281.023 97.4695 294.047Z" fill="#2F4458"/>
<path d="M97.4695 294.047C45.1035 281.023 27.3297 247.312 24.0807 240.034V294.047H97.4695Z" fill="#385568"/>
<path d="M31.152 253.058C36.4296 253.058 40.7078 248.77 40.7078 243.481C40.7078 238.192 36.4296 233.904 31.152 233.904C25.8745 233.904 21.5962 238.192 21.5962 243.481C21.5962 248.77 25.8745 253.058 31.152 253.058Z" fill="#E56A75"/>
<path d="M49.4993 253.058C54.7768 253.058 59.0551 248.77 59.0551 243.481C59.0551 238.192 54.7768 233.904 49.4993 233.904C44.2217 233.904 39.9435 238.192 39.9435 243.481C39.9435 248.77 44.2217 253.058 49.4993 253.058Z" fill="#E56A75"/>
<path d="M67.8464 253.058C73.124 253.058 77.4022 248.77 77.4022 243.481C77.4022 238.192 73.124 233.904 67.8464 233.904C62.5689 233.904 58.2906 238.192 58.2906 243.481C58.2906 248.77 62.5689 253.058 67.8464 253.058Z" fill="#E56A75"/>
<path d="M86.1936 253.058C91.4711 253.058 95.7494 248.77 95.7494 243.481C95.7494 238.192 91.4711 233.904 86.1936 233.904C80.916 233.904 76.6378 238.192 76.6378 243.481C76.6378 248.77 80.916 253.058 86.1936 253.058Z" fill="#E56A75"/>
<path d="M104.541 253.058C109.818 253.058 114.096 248.77 114.096 243.481C114.096 238.192 109.818 233.904 104.541 233.904C99.2631 233.904 94.9848 238.192 94.9848 243.481C94.9848 248.77 99.2631 253.058 104.541 253.058Z" fill="#E56A75"/>
<path d="M122.888 233.904C124.608 233.904 126.328 234.479 127.857 235.245L119.448 220.305H23.125L13.187 233.904C18.3471 234.096 22.3606 238.31 22.3606 243.481C22.3606 244.63 22.1695 245.78 21.7872 246.929H113.905C113.523 245.971 113.332 244.822 113.332 243.481C113.332 238.118 117.537 233.904 122.888 233.904Z" fill="#C65D6A"/>
<path d="M132.444 243.481C132.444 244.63 132.253 245.78 131.87 246.929L132.444 243.481Z" fill="#E2C09F"/>
<path d="M127.666 235.245L132.253 243.481L127.666 235.245Z" fill="#E2C09F"/>
<path d="M113.905 246.738C115.243 250.377 118.683 252.867 122.888 252.867C126.901 252.867 130.532 250.377 131.87 246.738H113.905Z" fill="#E56A75"/>
<path d="M132.444 243.481L127.857 235.245C126.519 234.479 124.799 233.905 122.888 233.905C117.537 233.905 113.332 238.118 113.332 243.481C113.332 244.631 113.523 245.78 113.906 246.929H131.87C132.253 245.78 132.444 244.631 132.444 243.481Z" fill="#C65D6A"/>
<path d="M12.8048 253.058C16.8182 253.058 20.4494 250.568 21.7873 246.929H3.8223C5.16011 250.377 8.79133 253.058 12.8048 253.058Z" fill="#E56A75"/>
<path d="M13.187 233.905L3.8223 246.738C3.8223 246.738 3.8223 246.738 3.8223 246.929H21.5961C21.9784 245.971 22.1695 244.822 22.1695 243.481C22.3606 238.31 18.3472 234.096 13.187 233.905Z" fill="#C65D6A"/>
<path d="M189.779 211.878H162.831C159.582 211.878 157.098 209.388 157.098 206.131V160.737C157.098 157.481 159.582 154.991 162.831 154.991H189.779C193.028 154.991 195.512 157.481 195.512 160.737V206.131C195.512 209.388 193.028 211.878 189.779 211.878Z" fill="white"/>
<path d="M190.543 208.047C191.69 208.43 192.454 208.622 192.645 208.813V158.822H160.156V165.909C164.742 175.869 179.267 204.982 190.543 208.047Z" fill="#2F4458"/>
<path d="M192.645 209.005V209.388C192.836 209.196 192.836 209.005 192.645 209.005Z" fill="#3F5770"/>
<path d="M190.543 208.047C179.267 204.791 164.742 175.869 160.156 165.909V208.43C170.667 209.196 190.925 210.345 192.645 209.196V208.813C192.454 208.622 191.69 208.43 190.543 208.047Z" fill="#385568"/>
<path d="M177.738 158.822H175.445V208.047H177.738V158.822Z" fill="white"/>
<path d="M192.645 171.846H160.156V174.72H192.645V171.846Z" fill="white"/>
<path d="M192.645 187.169H160.156V190.042H192.645V187.169Z" fill="white"/>
<path d="M201.055 204.216H151.747L154.04 211.878H198.57L201.055 204.216Z" fill="#42DBFD"/>
<path d="M126.902 211.878H99.9542C96.7052 211.878 94.2207 209.388 94.2207 206.131V160.737C94.2207 157.481 96.7052 154.991 99.9542 154.991H126.902C130.151 154.991 132.635 157.481 132.635 160.737V206.131C132.635 209.388 130.151 211.878 126.902 211.878Z" fill="white"/>
<path d="M127.666 208.047C128.813 208.43 129.577 208.622 129.768 208.813V158.822H97.2784V165.909C101.865 175.869 116.39 204.982 127.666 208.047Z" fill="#2F4458"/>
<path d="M129.768 209.005V209.388C129.959 209.196 129.959 209.005 129.768 209.005Z" fill="#3F5770"/>
<path d="M127.666 208.047C116.39 204.791 101.865 175.869 97.2784 165.909V208.43C107.79 209.196 128.048 210.345 129.768 209.196V208.813C129.577 208.622 128.813 208.43 127.666 208.047Z" fill="#385568"/>
<path d="M115.052 158.822H112.759V208.047H115.052V158.822Z" fill="white"/>
<path d="M129.768 171.846H97.2784V174.72H129.768V171.846Z" fill="white"/>
<path d="M129.768 187.169H97.2784V190.042H129.768V187.169Z" fill="white"/>
<path d="M138.177 204.216H88.8694L91.1628 211.878H135.884L138.177 204.216Z" fill="#42DBFD"/>
<path d="M64.0242 211.878H37.0768C33.8278 211.878 31.3433 209.388 31.3433 206.131V160.737C31.3433 157.481 33.8278 154.991 37.0768 154.991H64.0242C67.2732 154.991 69.7577 157.481 69.7577 160.737V206.131C69.7577 209.388 67.2732 211.878 64.0242 211.878Z" fill="white"/>
<path d="M64.7886 208.047C65.9353 208.43 66.6997 208.622 66.8908 208.813V158.822H34.401V165.909C38.9878 175.869 53.5127 204.982 64.7886 208.047Z" fill="#2F4458"/>
<path d="M66.8908 209.005V209.388C67.0819 209.196 67.0819 209.005 66.8908 209.005Z" fill="#3F5770"/>
<path d="M64.7886 208.047C53.5127 204.791 38.9878 175.869 34.401 165.909V208.43C44.9124 209.196 65.1708 210.345 66.8908 209.196V208.813C66.6997 208.622 65.9353 208.43 64.7886 208.047Z" fill="#385568"/>
<path d="M52.1749 158.822H49.8815V208.047H52.1749V158.822Z" fill="white"/>
<path d="M66.8908 171.846H34.401V174.72H66.8908V171.846Z" fill="white"/>
<path d="M66.8908 187.169H34.401V190.042H66.8908V187.169Z" fill="white"/>
<path d="M75.2999 204.216H25.9919L28.4764 211.878H73.0065L75.2999 204.216Z" fill="#42DBFD"/>
<path d="M189.779 136.986H162.831C159.582 136.986 157.098 134.496 157.098 131.24V85.8457C157.098 82.5896 159.582 80.0996 162.831 80.0996H189.779C193.028 80.0996 195.512 82.5896 195.512 85.8457V131.24C195.512 134.496 193.028 136.986 189.779 136.986Z" fill="white"/>
<path d="M190.543 133.155C191.69 133.538 192.454 133.73 192.645 133.922V84.1218H160.156V91.2087C164.742 100.977 179.267 130.091 190.543 133.155Z" fill="#2F4458"/>
<path d="M192.645 134.113V134.496C192.836 134.305 192.836 134.305 192.645 134.113Z" fill="#3F5770"/>
<path d="M190.543 133.155C179.267 129.899 164.742 100.977 160.156 91.0171V133.538C170.667 134.305 190.925 135.454 192.645 134.305V133.921C192.454 133.921 191.69 133.538 190.543 133.155Z" fill="#385568"/>
<path d="M177.738 84.1218H175.445V133.347H177.738V84.1218Z" fill="white"/>
<path d="M192.645 96.9551H160.156V99.8281H192.645V96.9551Z" fill="white"/>
<path d="M192.645 112.278H160.156V115.151H192.645V112.278Z" fill="white"/>
<path d="M201.055 129.516H151.747L154.04 136.986H198.57L201.055 129.516Z" fill="#42DBFD"/>
<path d="M126.902 136.986H99.9542C96.7052 136.986 94.2207 134.496 94.2207 131.24V85.8457C94.2207 82.5896 96.7052 80.0996 99.9542 80.0996H126.902C130.151 80.0996 132.635 82.5896 132.635 85.8457V131.24C132.635 134.496 130.151 136.986 126.902 136.986Z" fill="white"/>
<path d="M127.666 133.155C128.813 133.538 129.577 133.73 129.768 133.922V84.1218H97.2784V91.2087C101.865 100.977 116.39 130.091 127.666 133.155Z" fill="#2F4458"/>
<path d="M129.768 134.113V134.496C129.959 134.305 129.959 134.305 129.768 134.113Z" fill="#3F5770"/>
<path d="M127.666 133.155C116.39 129.899 101.865 100.977 97.2784 91.0171V133.538C107.79 134.305 128.048 135.454 129.768 134.305V133.921C129.577 133.921 128.813 133.538 127.666 133.155Z" fill="#385568"/>
<path d="M115.052 84.1218H112.759V133.347H115.052V84.1218Z" fill="white"/>
<path d="M129.768 96.9551H97.2784V99.8281H129.768V96.9551Z" fill="white"/>
<path d="M129.768 112.278H97.2784V115.151H129.768V112.278Z" fill="white"/>
<path d="M138.177 129.516H88.8694L91.1628 136.986H135.884L138.177 129.516Z" fill="#42DBFD"/>
<path d="M64.0242 136.986H37.0768C33.8278 136.986 31.3433 134.496 31.3433 131.24V85.8457C31.3433 82.5896 33.8278 80.0996 37.0768 80.0996H64.0242C67.2732 80.0996 69.7577 82.5896 69.7577 85.8457V131.24C69.7577 134.496 67.2732 136.986 64.0242 136.986Z" fill="white"/>
<path d="M64.7886 133.155C65.9353 133.538 66.6997 133.73 66.8908 133.922V84.1218H34.401V91.2087C38.9878 100.977 53.5127 130.091 64.7886 133.155Z" fill="#2F4458"/>
<path d="M66.8908 134.113V134.496C67.0819 134.305 67.0819 134.305 66.8908 134.113Z" fill="#3F5770"/>
<path d="M64.7886 133.155C53.5127 130.091 38.9878 100.977 34.401 91.0171V133.538C44.9124 134.305 65.1708 135.454 66.8908 134.305V133.921C66.6997 133.921 65.9353 133.538 64.7886 133.155Z" fill="#385568"/>
<path d="M52.1749 84.1218H49.8815V133.347H52.1749V84.1218Z" fill="white"/>
<path d="M66.8908 96.9551H34.401V99.8281H66.8908V96.9551Z" fill="white"/>
<path d="M66.8908 112.278H34.401V115.151H66.8908V112.278Z" fill="white"/>
<path d="M75.2999 129.516H25.9919L28.4764 136.986H73.0065L75.2999 129.516Z" fill="#42DBFD"/>
<path d="M180.796 303.433H150.6V270.68H180.988V303.433H180.796ZM154.422 299.602H177.165V274.51H154.422V299.602Z" fill="#42DBFD"/>
<path d="M180.796 270.296H150.6V235.245H180.988V270.296H180.796ZM154.422 266.466H177.165V239.076H154.422V266.466Z" fill="#42DBFD"/>
<path d="M59.0549 14.9771H33.2542V5.01719C33.2542 2.33567 35.3564 0.22876 38.0321 0.22876H54.277C56.9526 0.22876 59.0549 2.33567 59.0549 5.01719V14.9771Z" fill="#3BC3D1"/>
</svg>
