<svg width="1440" height="800" viewBox="0 0 1440 800" fill="none" xmlns="http://www.w3.org/2000/svg">
    <g clip-path="url(#clip0)">
        <rect width="1440" height="800" fill="white"/>
        <path d="M1997 -611C1997 -606.622 478 860 478 860H1160L1997 -611Z" fill="url(#paint0_linear)" fill-opacity="0.5"/>
        <path d="M1846 -493C1846 -488.925 724 876 724 876H1227.76L1846 -493Z" fill="url(#paint1_linear)" fill-opacity="0.5"/>
        <circle cx="41.5" cy="553.5" r="153.5" fill="#FFCDB6"/>
        <circle cx="210" cy="845" r="299" fill="#FDECE0"/>
        <path fill-rule="evenodd" clip-rule="evenodd" d="M261.33 674.358C253.866 656.637 237.205 649.288 222.949 656.762L212.497 631.946C212.068 630.928 210.982 630.61 210.072 631.236L208.188 632.531C207.278 633.157 206.888 634.489 207.316 635.507L217.744 660.266C204.664 671.222 200.095 693.337 207.645 711.263C211.496 720.408 217.797 726.79 224.953 729.799C225.23 733.839 226.14 737.874 227.74 741.672C234.037 756.624 248.63 762.223 260.334 754.177C272.037 746.132 276.42 727.488 270.122 712.536C268.523 708.738 266.388 705.544 263.902 703.024C265.879 693.736 265.181 683.502 261.33 674.358Z" fill="#025949" fill-opacity="0.05"/>
        <path fill-rule="evenodd" clip-rule="evenodd" d="M401.734 663.456C390.052 635.72 363.973 624.217 341.659 635.916L324.86 596.031C324.431 595.013 323.346 594.695 322.436 595.321L317.624 598.628C316.714 599.254 316.324 600.587 316.752 601.605L333.513 641.399C313.039 658.549 305.888 693.163 317.705 721.221C323.734 735.534 333.596 745.524 344.796 750.234C345.229 756.557 346.654 762.873 349.158 768.817C359.015 792.221 381.856 800.985 400.174 788.391C418.493 775.798 425.353 746.617 415.496 723.213C412.992 717.269 409.651 712.27 405.76 708.325C408.854 693.788 407.762 677.769 401.734 663.456Z" fill="#025949" fill-opacity="0.05"/>
        <rect x="205.911" y="594.054" width="7.09852" height="41.9458" rx="2" fill="#FFCDB6"/>
        <circle cx="209.783" cy="570.823" r="36.7833" fill="#03A678"/>
        <circle cx="209.783" cy="534.039" r="29.0394" fill="#03A678"/>
        <rect x="316" y="538" width="11" height="65" rx="2" fill="#FFCDB6"/>
        <circle cx="322" cy="502" r="57" fill="#025949"/>
        <circle cx="322" cy="445" r="45" fill="#025949"/>
    </g>
    <defs>
        <linearGradient id="paint0_linear" x1="478" y1="124.497" x2="1996.99" y2="124.497" gradientUnits="userSpaceOnUse">
            <stop stop-color="white"/>
            <stop offset="1" stop-color="#FDECE0"/>
        </linearGradient>
        <linearGradient id="paint1_linear" x1="724" y1="191.497" x2="1845.99" y2="191.497" gradientUnits="userSpaceOnUse">
            <stop stop-color="white"/>
            <stop offset="1" stop-color="#FDECE0"/>
        </linearGradient>
        <clipPath id="clip0">
            <rect width="1440" height="800" fill="white"/>
        </clipPath>
    </defs>
</svg>
