<svg width="101" height="198" viewBox="0 0 101 198" fill="none" xmlns="http://www.w3.org/2000/svg">
    <path d="M23.6954 126.001C23.6954 126.001 4.38377 146.398 3.89058 147.382C3.39979 148.366 -1.24347 171.464 1.81434 197.76L31.637 163.141L23.6954 126.001Z" fill="url(#paint0_linear)"/>
    <path d="M23.6954 126.001C23.6954 126.001 4.38377 146.398 3.89058 147.382C3.39979 148.366 -1.24347 171.464 1.81434 197.76L31.637 163.141L23.6954 126.001Z" fill="#45396D"/>
    <path d="M77.9541 126.001C77.9541 126.001 97.2658 146.398 97.759 147.382C98.2498 148.366 102.893 171.464 99.8353 197.76L70.0125 163.141L77.9541 126.001Z" fill="#45396D"/>
    <path d="M83.502 93.2101C83.502 125.864 71.0879 169.121 67.982 176.795H33.6652C30.5592 169.121 18.1451 125.864 18.1451 93.2101C18.1451 81.3192 20.664 67.7443 24.3353 54.7059C24.6962 53.431 25.0667 52.1608 25.4444 50.8979C25.6586 50.193 25.8727 49.493 26.0916 48.7929C26.8927 46.2141 27.7324 43.6714 28.6033 41.1816C36.5642 18.3524 46.8155 0 50.8236 0C54.8317 0 65.083 18.3524 73.0439 41.1816C73.9148 43.6714 74.7544 46.2141 75.5556 48.7929C75.7745 49.493 75.9886 50.193 76.2027 50.8979C76.5804 52.1608 76.9509 53.431 77.3118 54.7059C80.9831 67.7443 83.502 81.3192 83.502 93.2101Z" fill="#FFCDB6"/>
    <path d="M50.8236 76.0364C40.5458 76.0364 32.212 84.3695 32.212 94.6462C32.212 104.925 40.5458 113.256 50.8236 113.256C61.1013 113.256 69.4351 104.925 69.4351 94.6462C69.4351 84.3695 61.1013 76.0364 50.8236 76.0364ZM61.0074 105.471V105.474C58.349 107.976 54.7643 109.508 50.8236 109.508C49.4691 109.508 48.1555 109.328 46.9093 108.988V108.986C40.5988 107.268 35.9603 101.5 35.9603 94.6462C35.9603 90.5038 37.6564 86.7558 40.3895 84.0616V84.0591C43.072 81.4154 46.7577 79.7844 50.8236 79.7844C51.4395 79.7844 52.0481 79.8229 52.6448 79.895V79.8974C59.9946 80.7923 65.6868 87.0541 65.6868 94.6462C65.6868 98.9138 63.8872 102.76 61.0074 105.471Z" fill="#45396D"/>
    <path d="M65.687 94.6462C65.687 98.9138 63.8874 102.76 61.0076 105.471V105.474C58.3491 107.976 54.7644 109.508 50.8236 109.508C49.4691 109.508 48.1556 109.328 46.9093 108.988V108.986C40.5988 107.268 35.9603 101.5 35.9603 94.6462C35.9603 90.5038 37.6565 86.7558 40.3895 84.0616V84.0592C43.072 81.4154 46.7578 79.7844 50.8236 79.7844C51.4395 79.7844 52.0482 79.8229 52.6448 79.895V79.8975C59.9947 80.7923 65.687 87.0541 65.687 94.6462Z" fill="#45396D"/>
    <path d="M65.687 94.6462C65.687 98.9138 63.8874 102.76 61.0076 105.471V105.474C58.3491 107.976 54.7644 109.508 50.8236 109.508C49.4691 109.508 48.1556 109.328 46.9093 108.988V108.986C40.5988 107.268 35.9603 101.5 35.9603 94.6462C35.9603 90.5038 37.6565 86.7558 40.3895 84.0616V84.0592C43.072 81.4154 46.7578 79.7844 50.8236 79.7844C51.4395 79.7844 52.0482 79.8229 52.6448 79.895V79.8975C59.9947 80.7923 65.687 87.0541 65.687 94.6462Z" fill="#3EE5B1"/>
    <path d="M30.795 35.1628H70.857C63.2955 15.2131 54.4733 0 50.8236 0C47.174 0 38.3542 15.2131 30.795 35.1628Z" fill="#45396D"/>
    <path d="M35.265 174.753C36.0373 177.276 36.6772 179.153 37.1031 180.202H64.5465C64.9699 179.153 65.6122 177.276 66.3845 174.753H35.265Z" fill="#FFCDB6"/>
    <path d="M31.37 169.983C32.3347 173.136 33.1359 175.487 33.6676 176.795H67.982C68.5113 175.484 69.3148 173.136 70.2796 169.983H31.37Z" fill="#FDECE0"/>
    <path d="M53.3351 153.398C53.3351 177.899 52.2116 197.76 50.8259 197.76C49.4402 197.76 48.3167 177.899 48.3167 153.398C48.3167 128.897 49.4402 126.001 50.8259 126.001C52.2116 126.001 53.3351 128.897 53.3351 153.398Z" fill="#45396D"/>
    <path d="M35.9339 33.4307C35.6356 33.4307 35.395 33.1902 35.395 32.8919V31.3619C35.395 31.0636 35.6356 30.8231 35.9339 30.8231C36.2323 30.8231 36.4728 31.0636 36.4728 31.3619V32.8919C36.4728 33.1902 36.2323 33.4307 35.9339 33.4307Z" fill="#3EE5B1"/>
    <path d="M39.651 33.4307C39.3526 33.4307 39.1121 33.1902 39.1121 32.8919V31.3619C39.1121 31.0636 39.3526 30.8231 39.651 30.8231C39.9493 30.8231 40.1899 31.0636 40.1899 31.3619V32.8919C40.1899 33.1902 39.9469 33.4307 39.651 33.4307Z" fill="#3EE5B1"/>
    <path d="M43.3656 33.4307C43.0672 33.4307 42.8267 33.1902 42.8267 32.8919V31.3619C42.8267 31.0636 43.0672 30.8231 43.3656 30.8231C43.6639 30.8231 43.9044 31.0636 43.9044 31.3619V32.8919C43.9044 33.1902 43.6639 33.4307 43.3656 33.4307Z" fill="#3EE5B1"/>
    <path d="M47.0826 33.4307C46.7843 33.4307 46.5437 33.1902 46.5437 32.8919V31.3619C46.5437 31.0636 46.7843 30.8231 47.0826 30.8231C47.3809 30.8231 47.6215 31.0636 47.6215 31.3619V32.8919C47.6215 33.1902 47.3809 33.4307 47.0826 33.4307Z" fill="#3EE5B1"/>
    <path d="M50.7972 33.4307C50.4989 33.4307 50.2583 33.1902 50.2583 32.8919V31.3619C50.2583 31.0636 50.4989 30.8231 50.7972 30.8231C51.0955 30.8231 51.3361 31.0636 51.3361 31.3619V32.8919C51.3361 33.1902 51.0955 33.4307 50.7972 33.4307Z" fill="#3EE5B1"/>
    <path d="M54.5142 33.4307C54.2159 33.4307 53.9753 33.1902 53.9753 32.8919V31.3619C53.9753 31.0636 54.2159 30.8231 54.5142 30.8231C54.8125 30.8231 55.0531 31.0636 55.0531 31.3619V32.8919C55.0531 33.1902 54.8125 33.4307 54.5142 33.4307Z" fill="#3EE5B1"/>
    <path d="M58.2288 33.4307C57.9305 33.4307 57.6899 33.1902 57.6899 32.8919V31.3619C57.6899 31.0636 57.9305 30.8231 58.2288 30.8231C58.5271 30.8231 58.7677 31.0636 58.7677 31.3619V32.8919C58.7701 33.1902 58.5271 33.4307 58.2288 33.4307Z" fill="#3EE5B1"/>
    <path d="M61.9459 33.4307C61.6476 33.4307 61.407 33.1902 61.407 32.8919V31.3619C61.407 31.0636 61.6476 30.8231 61.9459 30.8231C62.2442 30.8231 62.4848 31.0636 62.4848 31.3619V32.8919C62.4848 33.1902 62.2442 33.4307 61.9459 33.4307Z" fill="#3EE5B1"/>
    <path d="M65.6603 33.4307C65.362 33.4307 65.1213 33.1902 65.1213 32.8919V31.3619C65.1213 31.0636 65.362 30.8231 65.6603 30.8231C65.9586 30.8231 66.1992 31.0636 66.1992 31.3619V32.8919C66.2016 33.1902 65.9586 33.4307 65.6603 33.4307Z" fill="#3EE5B1"/>
    <path d="M23.9215 164.19L10.0904 180.563C10.0543 180.603 10.035 180.656 10.035 180.709V188.212L10.4921 187.683V180.793L23.8662 164.962V172.157L24.3233 171.628V164.339C24.3233 164.243 24.2632 164.159 24.1741 164.125C24.0827 164.091 23.9793 164.111 23.9215 164.19Z" fill="#3EE5B1"/>
    <path d="M19.656 140.848V130.278C19.5044 130.439 19.3553 130.596 19.1989 130.762V140.752L2.07656 157.873C2.04769 158.113 2.01642 158.359 1.98755 158.607L5.25948 155.335C3.4118 169.381 3.70533 184.917 4.22258 194.96L4.65321 194.46C4.14557 184.284 3.88574 168.753 5.78875 154.806L19.5887 141.007C19.6344 140.966 19.656 140.908 19.656 140.848Z" fill="#3EE5B1"/>
    <path d="M81.5629 129.821V140.786C81.5629 140.846 81.5869 140.904 81.6302 140.947L95.4303 154.746C97.3068 168.501 97.0807 183.805 96.585 193.986L97.0157 194.486C97.5185 184.433 97.7808 169.129 95.9571 155.275L99.7054 159.023C99.6766 158.78 99.6501 158.53 99.6212 158.291L82.0176 140.69V130.302C81.866 130.143 81.712 129.98 81.5629 129.821Z" fill="#3EE5B1"/>
    <path d="M90.7268 187.185L91.1839 187.714V180.649C91.1839 180.594 91.1647 180.543 91.1286 180.502L77.2974 164.13C77.2397 164.05 77.1362 164.031 77.0448 164.062C76.9558 164.096 76.8956 164.18 76.8956 164.277V171.128L77.3527 171.657V164.9L90.7268 180.731V187.185Z" fill="#3EE5B1"/>
    <path d="M61.0074 105.471V105.474C58.349 107.976 54.7643 109.508 50.8235 109.508C49.469 109.508 48.1554 109.328 46.9092 108.988V108.986L40.3894 84.0616V84.0592C43.0719 81.4154 46.7577 79.7844 50.8235 79.7844C51.4394 79.7844 52.0481 79.8229 52.6447 79.895V79.8975L61.0074 105.471Z" fill="white"/>
    <path d="M75.5555 48.793H26.0916C26.8927 46.2141 27.7323 43.6714 28.6033 41.1816H73.0437C73.9147 43.6714 74.7543 46.2141 75.5555 48.793Z" fill="#FDECE0"/>
    <path d="M77.3118 54.7059H24.3353C24.6962 53.431 25.0667 52.1608 25.4444 50.8979H76.2027C76.5804 52.1608 76.9509 53.431 77.3118 54.7059Z" fill="#FDECE0"/>
    <defs>
        <linearGradient id="paint0_linear" x1="26.6357" y1="130.897" x2="3.08032" y2="195.555" gradientUnits="userSpaceOnUse">
            <stop stop-color="#271A6B"/>
            <stop offset="0.2115" stop-color="#2E1B71"/>
            <stop offset="0.5268" stop-color="#431E81"/>
            <stop offset="0.9052" stop-color="#64249B"/>
            <stop offset="1" stop-color="#6D25A2"/>
        </linearGradient>
    </defs>
</svg>
