<svg width="759" height="250" viewBox="0 0 759 250" fill="none" xmlns="http://www.w3.org/2000/svg">
    <path d="M736.315 187.079C727.551 186.333 718.608 190.707 712.303 198.826C703.37 210.327 700.399 235.848 686.846 239.824C674.615 243.413 664.581 224.508 652.065 223.803C645.801 223.449 640.007 227.736 634.257 231.061C628.507 234.383 621.67 236.762 616.154 232.802C608.719 227.464 607.153 213.161 599.808 207.606C590.536 200.591 578.68 211.647 568.386 207.924C561.527 205.441 556.946 196.976 553.587 188.657C550.229 180.338 547.301 171.243 541.712 165.409C535.144 158.553 526.207 157.562 517.853 157.514C509.498 157.463 500.794 157.988 493.191 153.384C481.545 146.33 481.436 129.395 479.543 114.824C477.433 98.5814 472.672 79.784 460.727 75.2975C454.943 73.1253 448.7 74.9872 442.796 73.4957C433.529 71.1551 426.598 61.0996 420.802 51.215C415.006 41.3303 409.187 30.5701 400.516 25.641C397.785 24.0893 394.689 23.4471 391.655 23.6684C388.054 17.7241 393.544 0.204053 393.544 0.204053H379.821V30.5027V0.20166H366.098C366.098 0.20166 371.624 17.8299 367.956 23.7213C364.727 23.358 361.395 23.9811 358.479 25.6386C349.806 30.5677 343.989 41.3279 338.193 51.2126C332.397 61.0972 325.466 71.1503 316.199 73.4933C310.295 74.9848 304.052 73.1229 298.268 75.2951C286.323 79.7816 281.562 98.579 279.452 114.822C277.561 129.395 277.453 146.328 265.804 153.381C258.201 157.985 249.497 157.461 241.142 157.512C232.786 157.562 223.851 158.551 217.283 165.407C211.694 171.24 208.766 180.336 205.408 188.655C202.047 196.976 197.468 205.439 190.609 207.921C180.315 211.645 168.459 200.591 159.187 207.604C151.842 213.161 150.278 227.462 142.842 232.8C137.325 236.76 130.488 234.383 124.738 231.058C118.988 227.736 113.194 223.449 106.93 223.801C94.4145 224.505 84.3798 243.411 72.1485 239.822C58.5988 235.843 55.6252 210.324 46.6948 198.823C40.3891 190.704 31.4466 186.328 22.6821 187.077C13.9177 187.822 5.46839 193.68 -0.00488281 202.802V249.998H379.172H379.819H758.995V202.804C753.529 193.682 745.08 187.825 736.315 187.079Z" fill="url(#paint0_radial)"/>
    <defs>
        <radialGradient id="paint0_radial" cx="0" cy="0" r="1" gradientUnits="userSpaceOnUse" gradientTransform="translate(380.748 271.926) scale(191.244 191.226)">
            <stop offset="0.00292468" stop-color="#FFCDB6"/>
            <stop offset="1" stop-color="white"/>
        </radialGradient>
    </defs>
</svg>
