<svg width="247" height="395" viewBox="0 0 247 395" fill="none" xmlns="http://www.w3.org/2000/svg">
    <path fill-rule="evenodd" clip-rule="evenodd" d="M88.3297 274.358C80.8663 256.637 64.2048 249.288 49.9486 256.762L39.4965 231.946C39.0678 230.928 37.9823 230.61 37.0721 231.236L35.1882 232.531C34.278 233.157 33.8877 234.489 34.3164 235.507L44.7442 260.266C31.6639 271.222 27.095 293.337 34.645 311.263C38.4964 320.408 44.7972 326.79 51.9529 329.799C52.2296 333.839 53.1401 337.874 54.7395 341.672C61.0371 356.624 75.6299 362.223 87.3336 354.177C99.0372 346.132 103.42 327.488 97.1222 312.536C95.5228 308.738 93.3883 305.544 90.902 303.024C92.8789 293.736 92.1811 283.502 88.3297 274.358Z" fill="#025949" fill-opacity="0.05"/>
    <path fill-rule="evenodd" clip-rule="evenodd" d="M228.734 263.456C217.052 235.72 190.973 224.217 168.659 235.916L151.86 196.031C151.431 195.013 150.346 194.695 149.436 195.321L144.624 198.628C143.714 199.254 143.324 200.587 143.752 201.605L160.513 241.399C140.039 258.549 132.888 293.163 144.705 321.221C150.734 335.534 160.596 345.524 171.796 350.234C172.229 356.557 173.654 362.873 176.158 368.817C186.015 392.221 208.856 400.985 227.174 388.391C245.493 375.798 252.353 346.617 242.496 323.213C239.992 317.269 236.651 312.27 232.76 308.325C235.854 293.788 234.762 277.769 228.734 263.456Z" fill="#025949" fill-opacity="0.05"/>
    <rect x="32.9114" y="194.054" width="7.09852" height="41.9458" rx="2" fill="#FFCDB6"/>
    <circle cx="36.7833" cy="170.823" r="36.7833" fill="#03A678"/>
    <circle cx="36.7833" cy="134.039" r="29.0394" fill="#03A678"/>
    <rect x="143" y="138" width="11" height="65" rx="2" fill="#FFCDB6"/>
    <circle cx="149" cy="102" r="57" fill="#025949"/>
    <circle cx="149" cy="45" r="45" fill="#025949"/>
</svg>
