<svg width="328" height="54" viewBox="0 0 328 54" fill="none" xmlns="http://www.w3.org/2000/svg">
<g filter="url(#filter0_d)">
<path d="M15.9866 37.48C22.7466 37.48 24.5466 29.12 24.5466 23.8C24.5466 18.32 22.8266 11.4 16.0666 11.4C9.86656 11.4 7.26656 18.08 7.26656 23.36C7.26656 28.88 8.90656 37.48 15.9866 37.48ZM16.0666 14.6C20.2266 14.6 21.5866 20.36 21.5866 23.64C21.5866 27.24 20.8666 34.36 15.9866 34.36C10.6266 34.36 10.4266 27.56 10.4266 23.68C10.4266 20 11.3466 14.6 16.0666 14.6ZM40.0041 34.52C39.2041 32.16 34.0041 17.48 34.0041 16.52C34.0041 15.4 40.2041 10.88 40.2041 9.88C40.2041 9.4 38.7641 8.36 38.3241 8.36C38.0041 8.36 35.4441 11.08 35.0441 11.52C34.2441 12.28 31.4441 14.32 31.3641 15.32C31.3641 15 31.3241 14.64 31.3241 14.32C31.3241 12.04 31.8841 9.76 31.8841 7.44C31.8841 6.24 30.8441 6.12 29.8841 6.12C29.1641 6.12 27.8041 5.92 27.8041 6.96C27.8041 8.28 28.2041 9.52 28.3241 10.76C29.1241 18.8 29.5241 26.92 30.2041 34.96C30.4041 37.16 30.5641 39.36 30.5641 41.56C30.5641 42.68 31.2041 42.56 32.0441 42.72C32.5241 42.8 33.0041 43 33.5241 43C34.1241 43 34.1241 42.08 34.1241 41.68C34.1241 40.16 33.7641 38.76 33.5641 37.28C32.7641 31.12 32.3641 24.92 31.7641 18.76C32.5241 19.44 35.6041 30.24 36.2841 32.2C37.1641 34.8 37.8841 37.4 38.7641 40C38.8441 40.24 39.0041 41 39.3641 41C39.8041 41 41.8441 40.28 41.8441 39.8C41.8441 39.76 41.8041 39.68 41.8041 39.64C41.0841 37.96 40.5641 36.24 40.0041 34.52ZM51.3081 11.32C51.1881 10.28 51.3081 9.28 51.3081 8.24C51.3081 6.92 50.5481 6.92 49.4681 6.92C48.9081 6.92 48.2681 6.92 47.7881 7.24C47.2281 7.6 47.2681 10.72 47.1881 11.48C46.4681 18.72 45.3081 25.88 44.5081 33.08C44.3081 35.2 43.9881 37.28 43.7081 39.4C43.5081 41.36 43.3481 41.96 45.0281 42.08C45.2681 42.12 45.5481 42.2 45.8281 42.2C46.6681 42.2 46.5881 41.16 46.5881 40.56C46.5881 38.88 46.8281 37.24 46.8681 35.6C46.9081 34.76 46.9081 33.8 47.7881 33.36C47.9881 33.28 49.6681 33.36 49.9081 33.36C50.9881 33.32 51.0281 35.6 51.2681 37.16C51.4681 38.6 51.1081 42.12 51.9881 42.12C52.8281 42.12 53.5481 42.04 54.1881 41.6C54.5881 41.32 54.2281 37.76 54.0281 36.2C53.0681 27.92 52.6681 19.56 51.3081 11.32ZM50.2681 30.48C50.0281 30.64 49.7081 30.72 49.4281 30.72C48.5481 30.72 47.7481 30.84 47.7881 30.2C47.8281 28.72 48.7481 20.44 48.9881 18.92C49.4281 23 50.3081 26.08 50.3081 29.72C50.3081 29.96 50.3081 30.24 50.2681 30.48ZM49.0281 18.76C49.0281 18.68 49.0281 18.68 49.0281 18.64C49.0281 18.68 49.0281 18.72 49.0281 18.76ZM68.1156 8.32C67.5156 8.32 65.6356 8.16 65.6356 9.08C65.6356 10.2 65.9556 11.28 65.9556 12.4C65.9556 13.76 65.5556 17 63.6756 17C62.3956 17 61.5956 15.04 61.4356 14C61.1956 12.64 61.3956 11.28 61.3956 9.96C61.3956 9.08 61.2756 7.76 60.1156 7.76C58.9156 7.76 58.0356 8.32 58.0356 9.6C58.0356 13 58.8756 19.56 63.3956 19.56C65.0356 19.56 66.0756 18.08 66.6356 16.68C66.8756 17.08 66.8756 17.92 66.8756 18.4C66.8756 21.12 66.6356 23.84 66.5956 26.6C66.5156 28.72 66.3956 30.88 66.1956 33.04C66.0356 34.6 65.9956 37 64.7956 38.16C64.4756 38.44 64.0756 38.76 63.5956 38.76C61.8756 38.76 61.4756 34.44 61.4756 33.2C61.4756 32.8 61.7556 32.48 61.7556 32.12C61.7556 31.92 61.5556 31.8 61.3556 31.8C58.9556 31.8 58.9156 33.92 58.9156 35.72C58.9156 39 60.7556 41.36 64.1556 41.36C69.2356 41.36 69.5556 33 69.8356 29.4C69.9956 27.12 70.1156 24.8 70.1156 22.48C70.1156 18.4 69.4356 14.32 69.4356 10.24C69.4356 9.84 69.3556 8.32 68.7956 8.32H68.1156ZM106.536 22.72C106.456 20.48 106.576 18.24 106.576 15.96C106.576 14.12 106.416 12.32 106.176 10.52C106.016 9.56 106.296 9.76 105.256 9.64C104.976 9.6 104.696 9.56 104.376 9.56C104.296 9.56 103.376 9.64 103.296 9.64C101.536 10.6 96.5756 34.2 96.3756 34.12C95.4956 33.88 91.2156 17.8 90.1756 13.88C89.9356 13.04 89.4156 9.72 88.7756 9.36C88.4556 9.2 88.1756 9.16 87.8556 9.16C87.2556 9.16 85.5756 9.2 85.5756 10.04C85.5756 19.28 86.7356 29.64 86.7356 38.92C87.0556 39.84 87.0156 39.64 87.9356 39.8C88.4956 39.92 89.0156 39.96 89.6156 39.96C89.7356 39.96 89.8556 39.96 89.9756 39.92C90.1356 39.68 90.1356 39.36 90.1356 39.08C90.1356 37.64 89.7356 36.28 89.6156 34.88C89.0956 29.96 88.2556 24.4 88.2556 19.48C88.2556 19.24 88.2556 19 88.3756 18.8C88.3756 18.84 88.3356 18.92 88.3356 18.96C88.3356 19.08 92.0556 31.12 92.1356 31.4C92.7756 33.56 93.5356 35.68 94.0556 37.88C94.2156 38.6 94.2156 39.2 95.0156 39.48C95.2556 39.56 95.4956 39.56 95.7356 39.56C96.2156 39.56 96.9756 39.6 97.3756 39.4C97.8956 39.2 98.5756 35.16 98.7756 34.4C99.9356 30.4 101.016 26.28 102.096 22.28C102.256 21.68 103.136 18.96 103.056 18.56C103.376 19.04 103.216 21.68 103.216 22.36C103.216 24.6 103.576 26.84 103.656 29.04C103.776 31.88 103.776 34.72 103.776 37.52C103.776 38.44 104.176 38.92 104.296 39.68C104.736 39.92 105.176 39.92 105.656 39.92C106.736 39.92 107.136 39.68 107.136 38.52C107.136 37.52 106.856 36.56 106.816 35.56C106.536 31.28 106.696 27 106.536 22.72ZM119.003 11.32C118.883 10.28 119.003 9.28 119.003 8.24C119.003 6.92 118.243 6.92 117.163 6.92C116.603 6.92 115.963 6.92 115.483 7.24C114.923 7.6 114.963 10.72 114.883 11.48C114.163 18.72 113.003 25.88 112.203 33.08C112.003 35.2 111.683 37.28 111.403 39.4C111.203 41.36 111.043 41.96 112.723 42.08C112.963 42.12 113.243 42.2 113.523 42.2C114.363 42.2 114.283 41.16 114.283 40.56C114.283 38.88 114.523 37.24 114.563 35.6C114.603 34.76 114.603 33.8 115.483 33.36C115.683 33.28 117.363 33.36 117.603 33.36C118.683 33.32 118.723 35.6 118.963 37.16C119.163 38.6 118.803 42.12 119.683 42.12C120.523 42.12 121.243 42.04 121.883 41.6C122.283 41.32 121.923 37.76 121.723 36.2C120.763 27.92 120.363 19.56 119.003 11.32ZM117.963 30.48C117.723 30.64 117.403 30.72 117.123 30.72C116.243 30.72 115.443 30.84 115.483 30.2C115.523 28.72 116.443 20.44 116.683 18.92C117.123 23 118.003 26.08 118.003 29.72C118.003 29.96 118.003 30.24 117.963 30.48ZM116.723 18.76C116.723 18.68 116.723 18.68 116.723 18.64C116.723 18.68 116.723 18.72 116.723 18.76ZM130.411 37.8C130.451 37.56 130.491 37.32 130.491 37.04C130.491 35.84 130.171 34.68 130.051 33.48C129.691 29.96 129.771 26.44 129.771 22.92C129.771 22 129.651 21.12 128.531 21.12C126.691 21.12 126.331 21.68 126.331 23.44C126.331 24.92 126.651 26.4 126.811 27.92C127.091 30.48 127.011 33.12 127.011 35.68C127.011 38 127.251 38.08 129.491 38.08C129.811 38.08 130.171 38.08 130.411 37.8ZM126.811 17.72C127.291 17.72 127.771 17.84 128.251 17.84C129.091 17.84 129.371 17.24 129.371 16.48C129.371 15.76 129.211 15.08 129.171 14.36C129.171 13.76 129.251 13.2 129.251 12.6C129.251 11.24 128.251 11.04 127.091 11.04C126.731 11.04 126.371 11.04 126.051 11.12C125.891 11.2 125.851 11.4 125.851 11.56C125.851 12.12 126.091 12.6 126.171 13.12C126.331 14.28 126.251 15.44 126.251 16.6C126.251 16.96 126.251 17.4 126.371 17.76C126.531 17.72 126.651 17.72 126.811 17.72ZM142.928 25.68C141.528 23.12 137.448 19.96 137.448 16.96C137.448 16.44 137.528 15.24 138.288 15.24C139.968 15.24 138.568 17.4 140.528 17.4C141.168 17.4 141.808 17.32 142.448 17.24C142.368 15.04 140.768 12.44 138.368 12.44C136.088 12.44 134.568 14.6 134.568 16.72C134.568 22.24 141.448 25 141.448 31C141.448 32.04 140.968 33.8 139.648 33.8C138.048 33.8 138.168 31.8 138.168 30.68C138.168 29.8 137.328 29.24 136.488 29.24C135.408 29.24 135.007 30.12 135.007 31.08C135.007 33.6 136.808 36.68 139.608 36.68C142.688 36.68 144.288 33.56 144.288 30.84C144.288 29.04 143.768 27.24 142.928 25.68ZM166.66 11.32C166.54 10.28 166.66 9.28 166.66 8.24C166.66 6.92 165.9 6.92 164.82 6.92C164.26 6.92 163.62 6.92 163.14 7.24C162.58 7.6 162.62 10.72 162.54 11.48C161.82 18.72 160.66 25.88 159.86 33.08C159.66 35.2 159.34 37.28 159.06 39.4C158.86 41.36 158.7 41.96 160.38 42.08C160.62 42.12 160.9 42.2 161.18 42.2C162.02 42.2 161.94 41.16 161.94 40.56C161.94 38.88 162.18 37.24 162.22 35.6C162.26 34.76 162.26 33.8 163.14 33.36C163.34 33.28 165.02 33.36 165.26 33.36C166.34 33.32 166.38 35.6 166.62 37.16C166.82 38.6 166.46 42.12 167.34 42.12C168.18 42.12 168.9 42.04 169.54 41.6C169.94 41.32 169.58 37.76 169.38 36.2C168.42 27.92 168.02 19.56 166.66 11.32ZM165.62 30.48C165.38 30.64 165.06 30.72 164.78 30.72C163.9 30.72 163.1 30.84 163.14 30.2C163.18 28.72 164.1 20.44 164.34 18.92C164.78 23 165.66 26.08 165.66 29.72C165.66 29.96 165.66 30.24 165.62 30.48ZM164.38 18.76C164.38 18.68 164.38 18.68 164.38 18.64C164.38 18.68 164.38 18.72 164.38 18.76ZM185.507 11.88C185.227 11.68 184.427 11.68 184.067 11.68C183.827 11.68 183.627 11.68 183.387 11.72C182.227 12.04 182.467 12.04 182.387 13.2C182.267 15.32 181.707 17.4 181.507 19.52C181.147 23.4 180.547 27.24 179.947 31.08C179.507 30.8 179.027 26.84 178.827 26.08C178.307 24.12 177.947 22.12 177.427 20.12C176.987 18.24 176.347 16.36 175.907 14.48C175.507 12.8 175.827 11.92 173.747 11.76L173.187 11.72C172.867 11.72 172.387 11.72 172.387 12.2C172.387 12.68 173.747 17.32 174.027 18.32C175.307 23.64 176.747 28.96 177.907 34.32C178.067 35.08 178.227 36.96 178.987 37.32C179.307 37.44 179.747 37.44 180.067 37.44C180.507 37.44 181.467 37.44 181.787 37.16C182.427 36.64 182.387 33.56 182.507 32.68C183.067 28.88 183.747 25.08 184.227 21.28C184.627 18.44 184.587 14.68 185.827 12.12H185.667C185.587 12.12 185.507 11.96 185.507 11.88ZM201.764 29.16H201.604C200.884 29.16 200.204 29.04 199.484 29.04C199.164 29.04 198.764 29.04 198.484 29.24C197.684 29.72 198.644 34.68 196.004 34.68C193.324 34.68 193.364 28.88 193.164 27.04C193.084 26.32 192.964 25.6 192.964 24.88C192.964 23.48 194.244 23.2 195.364 23.2C196.724 23.2 198.084 23.32 199.444 23.32C200.924 23.32 201.924 23.04 201.924 21.32C201.924 17.68 200.004 11.2 195.524 11.2C189.764 11.2 189.404 20.68 189.404 24.76C189.404 28.68 190.684 37.92 195.964 37.92C200.004 37.92 202.164 33.44 202.164 29.92C202.164 29.6 202.124 29.24 201.764 29.16ZM193.404 19.24V18.36C193.404 17.08 193.404 14.32 195.244 14.32C197.124 14.32 198.484 17.64 198.484 19.16C198.484 20.04 197.924 20.04 197.244 20.12C196.284 20.24 195.364 20.56 194.404 20.56C194.124 20.56 193.324 20.52 193.324 20.12C193.324 19.8 193.364 19.52 193.404 19.24ZM213.708 5.92C212.988 5.48 212.148 5.28 211.308 5.28C206.628 5.28 205.508 9.8 205.188 13.6C204.868 17.08 204.908 20.6 204.908 24.12C204.908 29.2 204.988 36.92 208.948 40.64C209.748 41.4 210.788 41.88 211.908 41.88C213.268 41.88 214.508 41.16 215.388 40.12C217.308 37.84 217.188 34.52 217.348 31.72C216.708 31.84 216.028 31.92 215.348 31.96C214.428 32 214.348 31.88 214.108 32.88C213.828 33.84 214.028 34.88 213.788 35.84C213.548 36.84 212.748 38.36 211.588 38.36C207.708 38.36 207.988 24.6 207.988 21.84C207.988 20.48 207.908 19.12 207.908 17.76C207.908 15.6 207.908 8.8 211.068 8.8C214.988 8.8 213.788 16.56 214.468 18.96C214.708 19.88 214.868 19.96 215.828 19.96C216.388 19.96 216.948 19.92 217.508 19.92C217.548 19.48 217.548 19.04 217.548 18.6C217.548 15.08 217.028 7.96 213.708 5.92ZM245.598 34.24C245.278 33.92 244.678 33.44 244.678 32.96C244.678 32.6 244.838 32.16 244.958 31.8C245.158 30.96 245.238 30.16 245.238 29.28C245.238 26.56 245.278 23.84 245.038 21.12C244.798 18.28 242.838 12 239.238 12C238.078 12 237.038 12.68 236.198 13.44C233.878 15.6 233.598 19.4 233.598 22.4C233.598 24.08 233.678 25.76 233.718 27.4C233.798 31.24 234.638 36.96 239.638 36.96C240.958 36.96 242.158 36.44 243.038 35.48C243.478 36 245.038 38.08 245.798 38.08C246.038 38.08 247.478 36.92 247.478 36.48C247.478 36 245.918 34.52 245.598 34.24ZM239.318 33.88C236.558 33.88 236.478 28.96 236.478 27.08C236.478 26 236.558 24.96 236.558 23.92C236.558 21.72 236.198 15.4 239.438 15.4C242.518 15.4 242.318 24.72 242.318 26.96C242.318 28.92 242.198 33.88 239.318 33.88ZM263.693 12H263.293C262.293 12 261.093 12.04 261.093 13.36C261.093 14.12 261.173 14.84 261.173 15.56C261.173 17.56 261.133 19.56 261.133 21.56C261.133 24.76 261.973 33.08 257.013 33.08C252.413 33.08 252.213 27.28 252.213 23.92C252.213 20.4 252.333 16.92 252.333 13.4C252.333 12.84 251.653 12.84 251.293 12.84C250.533 12.84 250.053 12.88 249.453 13.4C249.293 13.56 249.133 21.08 249.133 22C249.133 26.68 249.573 35.96 256.093 35.96C263.413 35.96 264.613 28.04 264.613 22.32C264.613 19.28 264.253 16.28 264.253 13.24C264.253 12.72 264.253 12.24 263.693 12ZM276.963 37.48C283.723 37.48 285.523 29.12 285.523 23.8C285.523 18.32 283.803 11.4 277.043 11.4C270.843 11.4 268.243 18.08 268.243 23.36C268.243 28.88 269.883 37.48 276.963 37.48ZM277.043 14.6C281.203 14.6 282.563 20.36 282.563 23.64C282.563 27.24 281.843 34.36 276.963 34.36C271.603 34.36 271.403 27.56 271.403 23.68C271.403 20 272.323 14.6 277.043 14.6ZM293.341 37.8C293.381 37.56 293.421 37.32 293.421 37.04C293.421 35.84 293.101 34.68 292.981 33.48C292.621 29.96 292.701 26.44 292.701 22.92C292.701 22 292.581 21.12 291.461 21.12C289.621 21.12 289.261 21.68 289.261 23.44C289.261 24.92 289.581 26.4 289.741 27.92C290.021 30.48 289.941 33.12 289.941 35.68C289.941 38 290.181 38.08 292.421 38.08C292.741 38.08 293.101 38.08 293.341 37.8ZM289.741 17.72C290.221 17.72 290.701 17.84 291.181 17.84C292.021 17.84 292.301 17.24 292.301 16.48C292.301 15.76 292.141 15.08 292.101 14.36C292.101 13.76 292.181 13.2 292.181 12.6C292.181 11.24 291.181 11.04 290.021 11.04C289.661 11.04 289.301 11.04 288.981 11.12C288.821 11.2 288.781 11.4 288.781 11.56C288.781 12.12 289.021 12.6 289.101 13.12C289.261 14.28 289.181 15.44 289.181 16.6C289.181 16.96 289.181 17.4 289.301 17.76C289.461 17.72 289.581 17.72 289.741 17.72ZM311.856 34.12C311.496 34.12 311.056 34.2 310.856 34.52C310.696 34.8 310.616 36.76 310.616 37.2C310.616 37.8 310.896 38.16 311.536 38.16C312.256 38.16 313.016 38.04 313.736 37.96C314.376 37.92 314.296 37.16 314.296 36.72C314.296 34.36 314.096 34.12 311.856 34.12ZM317.616 11.2C316.776 10 315.376 9.12 313.896 9.12C310.936 9.12 309.416 12.28 309.416 14.84C309.416 15.84 309.696 17.04 310.896 17.04C311.736 17.04 312.656 16.48 312.656 15.6C312.656 15.04 312.456 14.56 312.456 14.04C312.456 13.2 312.976 12.08 313.936 12.08C315.456 12.08 315.976 14.24 315.976 15.4C315.976 20.2 312.536 22.52 310.976 26.52C310.816 26.92 310.616 30.4 310.616 30.96C310.616 31.36 310.896 31.68 311.296 31.68H312.776C313.176 31.68 313.456 31.4 313.496 31C313.816 27.84 314.416 25.92 316.096 23.2C316.776 22.16 317.536 21.12 318.016 19.96C318.576 18.6 318.896 17.04 318.896 15.6C318.896 14.04 318.536 12.48 317.616 11.2Z" fill="white"/>
</g>
<defs>
<filter id="filter0_d" x="0.266602" y="0.279999" width="327.629" height="53.72" filterUnits="userSpaceOnUse" color-interpolation-filters="sRGB">
<feFlood flood-opacity="0" result="BackgroundImageFix"/>
<feColorMatrix in="SourceAlpha" type="matrix" values="0 0 0 0 0 0 0 0 0 0 0 0 0 0 0 0 0 0 127 0"/>
<feOffset dx="1" dy="3"/>
<feGaussianBlur stdDeviation="4"/>
<feColorMatrix type="matrix" values="0 0 0 0 0.130833 0 0 0 0 0.415588 0 0 0 0 0.654167 0 0 0 1 0"/>
<feBlend mode="normal" in2="BackgroundImageFix" result="effect1_dropShadow"/>
<feBlend mode="normal" in="SourceGraphic" in2="effect1_dropShadow" result="shape"/>
</filter>
</defs>
</svg>
