<svg width="243" height="89" viewBox="0 0 243 89" fill="none" xmlns="http://www.w3.org/2000/svg">
<g filter="url(#filter0_d)">
<path d="M11.133 6.476V6.296C11.133 5.648 11.241 5 11.241 4.352C11.241 3.056 10.845 2.804 9.62105 2.804C9.04505 2.804 8.18105 2.912 8.18105 3.668C8.18105 4.064 8.25305 4.496 8.32505 4.892C8.50505 6.26 8.50505 7.628 8.50505 8.996C8.50505 12.236 8.46905 15.44 8.46905 18.68C8.46905 20.372 8.25305 30.632 6.45305 30.632C6.05705 30.632 5.84105 30.2 5.66105 29.912C4.47305 27.644 4.68905 24.656 4.61705 22.172C4.54505 17.672 4.32905 13.208 4.32905 8.708C4.32905 7.232 4.32905 5.684 4.68905 4.244C4.76105 3.848 4.90505 3.416 4.90505 3.02C4.90505 2.552 4.40105 2.444 4.07705 2.444C2.02505 2.444 2.20505 3.236 2.20505 4.856C2.20505 6.44 2.02505 8.024 1.91705 9.572C1.70105 12.92 1.55705 16.304 1.55705 19.652C1.55705 22.784 1.62905 33.8 6.16505 33.8C6.34505 33.8 6.48905 33.8 6.66905 33.764C10.377 32.792 10.629 27.716 10.917 24.62C11.277 20.66 11.385 16.7 11.385 12.704C11.385 10.616 11.241 8.564 11.133 6.476ZM26.9421 22.46C26.6181 19.724 26.7981 16.988 26.7981 14.252C26.7981 12.632 26.6181 11.048 26.6181 9.464C26.6181 8.816 26.7261 8.204 26.7261 7.556C26.7261 6.728 24.8181 6.368 24.2061 6.368C23.7021 6.368 23.7021 6.908 23.7021 7.268C23.7021 11.768 24.2421 16.232 24.2421 20.732C24.2421 21.164 24.2421 21.56 24.1341 21.992C22.4421 19.58 18.5181 7.808 17.6901 7.16C17.2221 6.836 16.6461 6.692 16.0701 6.692C15.3501 6.692 14.9541 7.088 14.9541 7.808C14.9541 8.564 15.2061 9.284 15.3141 10.004C15.5301 11.624 15.5661 13.316 15.5661 14.936C15.5661 17.024 15.4581 19.112 15.4581 21.164C15.4581 23.756 15.6021 26.276 15.8901 28.832C15.9621 29.336 15.9621 29.804 16.6101 29.804C17.1141 29.804 17.6181 29.876 18.1221 29.876C18.8421 29.876 18.8421 28.796 18.8421 28.292C18.8421 24.584 18.2661 20.912 17.9061 17.24C17.7621 15.872 17.5821 14.54 17.5821 13.208C17.5821 13.064 17.6181 12.884 17.6541 12.74C18.2661 13.172 19.7781 17.816 20.1741 18.824C21.0741 21.2 22.3341 23.432 23.1981 25.808C23.4141 26.348 23.7381 27.752 24.2061 28.04C24.5301 28.22 25.7901 28.22 26.1861 28.22C27.1941 28.22 27.1941 26.492 27.1941 25.808C27.1941 24.692 27.0501 23.576 26.9421 22.46ZM50.1663 22.532C49.8423 22.388 48.4383 22.064 48.4383 21.632C48.4383 21.596 48.9063 21.2 48.9783 21.128C50.6703 18.968 51.3183 17.78 51.3183 14.936C51.3183 11.912 50.3463 8.132 47.6103 6.404C46.6383 5.828 45.0183 5.252 43.9023 5.252C42.8583 5.252 42.4623 5.684 42.4623 6.728C42.4623 7.268 42.5703 7.772 42.5703 8.312C42.6423 10.112 42.5703 11.876 42.5703 13.676C42.5703 18.428 42.6423 23.144 42.6423 27.896C42.6423 28.58 42.6423 29.264 42.7143 29.912C42.7863 30.488 42.7143 30.992 43.3983 30.992C46.0983 30.992 53.8023 31.028 53.8023 27.032C53.8023 25.124 51.8223 23.252 50.1663 22.532ZM46.7103 28.292C46.5303 28.328 46.3143 28.364 46.1343 28.364C45.5223 28.364 45.3783 28.04 45.3783 27.5C45.3783 26.636 45.4503 25.772 45.4503 24.908C45.4503 24.44 45.4863 24.116 46.0263 24.116C47.2503 24.116 49.5543 24.728 49.5543 26.276C49.5543 27.752 47.8263 28.04 46.7103 28.292ZM45.3783 19.688C45.4863 19.328 45.5223 18.932 45.5223 18.572C45.5223 17.708 45.3423 16.844 45.3063 15.98C45.2703 14.792 45.3423 13.64 45.3423 12.452C45.3423 11.516 45.1623 10.58 45.1623 9.644C45.1623 9.536 45.1623 8.996 45.3423 8.996C45.7743 8.996 46.4223 9.932 46.6743 10.256C47.6823 11.552 48.1863 13.172 48.1863 14.792C48.1863 15.332 48.1143 15.836 48.0423 16.34C47.8623 17.168 46.4943 20.228 45.5583 20.228C45.5223 20.228 45.4503 20.192 45.3783 20.192C45.3423 20.12 45.3063 20.012 45.3063 19.94C45.3063 19.868 45.3423 19.76 45.3783 19.688ZM67.4503 22.244H67.3063C66.6583 22.244 66.0463 22.136 65.3983 22.136C65.1103 22.136 64.7503 22.136 64.4983 22.316C63.7783 22.748 64.6423 27.212 62.2663 27.212C59.8543 27.212 59.8903 21.992 59.7103 20.336C59.6383 19.688 59.5303 19.04 59.5303 18.392C59.5303 17.132 60.6823 16.88 61.6903 16.88C62.9143 16.88 64.1383 16.988 65.3623 16.988C66.6943 16.988 67.5943 16.736 67.5943 15.188C67.5943 11.912 65.8663 6.08 61.8343 6.08C56.6503 6.08 56.3263 14.612 56.3263 18.284C56.3263 21.812 57.4783 30.128 62.2303 30.128C65.8663 30.128 67.8103 26.096 67.8103 22.928C67.8103 22.64 67.7743 22.316 67.4503 22.244ZM59.9263 13.316V12.524C59.9263 11.372 59.9263 8.888 61.5823 8.888C63.2743 8.888 64.4983 11.876 64.4983 13.244C64.4983 14.036 63.9943 14.036 63.3823 14.108C62.5183 14.216 61.6903 14.504 60.8263 14.504C60.5743 14.504 59.8543 14.468 59.8543 14.108C59.8543 13.82 59.8903 13.568 59.9263 13.316ZM77.5519 6.188C77.4439 5.252 77.5519 4.352 77.5519 3.416C77.5519 2.228 76.8679 2.228 75.8959 2.228C75.3919 2.228 74.8159 2.228 74.3839 2.516C73.8799 2.84 73.9159 5.648 73.8439 6.332C73.1959 12.848 72.1519 19.292 71.4319 25.772C71.2519 27.68 70.9639 29.552 70.7119 31.46C70.5319 33.224 70.3879 33.764 71.8999 33.872C72.1159 33.908 72.3679 33.98 72.6199 33.98C73.3759 33.98 73.3039 33.044 73.3039 32.504C73.3039 30.992 73.5199 29.516 73.5559 28.04C73.5919 27.284 73.5919 26.42 74.3839 26.024C74.5639 25.952 76.0759 26.024 76.2919 26.024C77.2639 25.988 77.2999 28.04 77.5159 29.444C77.6959 30.74 77.3719 33.908 78.1639 33.908C78.9199 33.908 79.5679 33.836 80.1439 33.44C80.5039 33.188 80.1799 29.984 79.9999 28.58C79.1359 21.128 78.7759 13.604 77.5519 6.188ZM76.6159 23.432C76.3999 23.576 76.1119 23.648 75.8599 23.648C75.0679 23.648 74.3479 23.756 74.3839 23.18C74.4199 21.848 75.2479 14.396 75.4639 13.028C75.8599 16.7 76.6519 19.472 76.6519 22.748C76.6519 22.964 76.6519 23.216 76.6159 23.432ZM75.4999 12.884C75.4999 12.812 75.4999 12.812 75.4999 12.776C75.4999 12.812 75.4999 12.848 75.4999 12.884ZM96.8547 6.8H96.4947C95.5947 6.8 94.5147 6.836 94.5147 8.024C94.5147 8.708 94.5867 9.356 94.5867 10.004C94.5867 11.804 94.5507 13.604 94.5507 15.404C94.5507 18.284 95.3067 25.772 90.8427 25.772C86.7027 25.772 86.5227 20.552 86.5227 17.528C86.5227 14.36 86.6307 11.228 86.6307 8.06C86.6307 7.556 86.0187 7.556 85.6947 7.556C85.0107 7.556 84.5787 7.592 84.0387 8.06C83.8947 8.204 83.7507 14.972 83.7507 15.8C83.7507 20.012 84.1467 28.364 90.0147 28.364C96.6027 28.364 97.6827 21.236 97.6827 16.088C97.6827 13.352 97.3587 10.652 97.3587 7.916C97.3587 7.448 97.3587 7.016 96.8547 6.8ZM120.245 17.42C120.137 16.412 120.101 15.44 120.101 14.432C120.101 12.344 120.245 10.256 120.245 8.168C120.245 6.98 120.137 5.792 120.137 4.604C120.137 3.848 120.317 3.092 120.317 2.336C120.317 1.256 119.849 1.184 118.913 1.184C118.265 1.184 117.113 1.292 117.113 2.156C117.113 2.624 117.221 3.056 117.221 3.488C117.221 5.576 117.185 7.664 117.185 9.788C117.185 12.992 117.185 16.268 117.473 19.472C117.509 19.76 117.545 20.048 117.545 20.372C117.545 20.732 117.221 20.948 116.933 21.128C115.889 21.848 114.557 21.956 113.513 22.676C112.469 23.396 111.713 24.476 111.173 25.592C110.813 26.42 110.561 27.32 110.561 28.22C110.561 32.216 114.737 34.16 118.085 34.844C118.517 34.916 118.913 35.024 119.345 35.024C120.389 35.024 120.389 33.764 120.389 33.008C120.389 32.036 120.281 31.064 120.281 30.056C120.281 27.752 120.461 25.412 120.461 23.108C120.461 21.2 120.389 19.292 120.245 17.42ZM117.401 31.568C117.365 31.712 117.185 31.784 117.041 31.784C116.429 31.784 114.629 30.776 114.233 30.308C113.765 29.732 113.513 29.012 113.513 28.256C113.513 26.528 114.917 24.98 116.501 24.476C116.573 24.44 117.077 24.26 117.113 24.26C117.221 24.26 117.293 24.908 117.329 25.016C117.473 26.06 117.365 27.104 117.365 28.148C117.365 28.976 117.545 29.804 117.545 30.632C117.545 30.956 117.509 31.244 117.401 31.568ZM136.392 22.244H136.248C135.6 22.244 134.988 22.136 134.34 22.136C134.052 22.136 133.692 22.136 133.44 22.316C132.72 22.748 133.584 27.212 131.208 27.212C128.796 27.212 128.832 21.992 128.652 20.336C128.58 19.688 128.472 19.04 128.472 18.392C128.472 17.132 129.624 16.88 130.632 16.88C131.856 16.88 133.08 16.988 134.304 16.988C135.636 16.988 136.536 16.736 136.536 15.188C136.536 11.912 134.808 6.08 130.776 6.08C125.592 6.08 125.268 14.612 125.268 18.284C125.268 21.812 126.42 30.128 131.172 30.128C134.808 30.128 136.752 26.096 136.752 22.928C136.752 22.64 136.716 22.316 136.392 22.244ZM132.288 0.679998C131.604 1.184 128.796 3.38 128.796 4.172C128.796 4.748 129.84 4.928 130.272 4.928C131.388 4.928 134.448 3.092 134.448 1.868C134.448 1.328 133.62 0.391999 133.044 0.391999C132.792 0.391999 132.504 0.499998 132.288 0.679998ZM128.868 13.316V12.524C128.868 11.372 128.868 8.888 130.524 8.888C132.216 8.888 133.44 11.876 133.44 13.244C133.44 14.036 132.936 14.036 132.324 14.108C131.46 14.216 130.632 14.504 129.768 14.504C129.516 14.504 128.796 14.468 128.796 14.108C128.796 13.82 128.832 13.568 128.868 13.316ZM148.337 1.328C147.689 0.931999 146.933 0.751999 146.177 0.751999C141.965 0.751999 140.957 4.82 140.669 8.24C140.381 11.372 140.417 14.54 140.417 17.708C140.417 22.28 140.489 29.228 144.053 32.576C144.773 33.26 145.709 33.692 146.717 33.692C147.941 33.692 149.057 33.044 149.849 32.108C151.577 30.056 151.469 27.068 151.613 24.548C151.037 24.656 150.425 24.728 149.813 24.764C148.985 24.8 148.913 24.692 148.697 25.592C148.445 26.456 148.625 27.392 148.409 28.256C148.193 29.156 147.473 30.524 146.429 30.524C142.937 30.524 143.189 18.14 143.189 15.656C143.189 14.432 143.117 13.208 143.117 11.984C143.117 10.04 143.117 3.92 145.961 3.92C149.489 3.92 148.409 10.904 149.021 13.064C149.237 13.892 149.381 13.964 150.245 13.964C150.749 13.964 151.253 13.928 151.757 13.928C151.793 13.532 151.793 13.136 151.793 12.74C151.793 9.572 151.325 3.164 148.337 1.328ZM163.43 29.732C169.514 29.732 171.134 22.208 171.134 17.42C171.134 12.488 169.586 6.26 163.502 6.26C157.922 6.26 155.582 12.272 155.582 17.024C155.582 21.992 157.058 29.732 163.43 29.732ZM163.502 9.14C167.246 9.14 168.47 14.324 168.47 17.276C168.47 20.516 167.822 26.924 163.43 26.924C158.606 26.924 158.426 20.804 158.426 17.312C158.426 14 159.254 9.14 163.502 9.14ZM180.69 18.428C180.438 17.384 179.862 16.412 179.862 15.332C179.862 15.008 179.97 14.684 180.186 14.432C180.474 14.18 181.194 14.036 181.59 13.856C182.85 13.136 183.75 10.58 183.75 9.176C183.75 5.684 179.898 3.992 176.874 3.992C176.082 3.992 175.326 4.136 175.326 5.072C175.326 5.792 175.506 6.476 175.506 7.196C175.506 10.004 175.398 12.848 175.398 15.656C175.398 20.624 175.47 25.628 175.47 30.596C175.47 32.144 175.47 32.252 177.054 32.252C177.738 32.252 178.098 32.108 178.098 31.352V25.232C178.098 22.244 177.81 19.256 177.81 16.268C177.81 15.98 177.81 15.656 177.882 15.368C178.494 16.628 180.798 26.24 181.086 28.076C181.194 28.544 181.302 30.704 181.95 30.704C182.49 30.704 183.822 30.308 183.822 29.624C183.822 28.976 183.426 28.328 183.21 27.716C182.094 24.728 181.374 21.524 180.69 18.428ZM177.99 12.2V10.292C177.99 9.32 177.774 8.384 177.774 7.448C177.774 6.872 178.026 6.188 178.674 6.188C180.078 6.188 181.266 7.844 181.266 9.14C181.266 9.752 181.086 10.328 180.726 10.832C180.402 11.3 178.818 12.488 178.242 12.488C178.098 12.488 177.99 12.38 177.99 12.2ZM204.869 19.112C203.609 16.808 199.937 13.964 199.937 11.264C199.937 10.796 200.009 9.716 200.693 9.716C202.205 9.716 200.945 11.66 202.709 11.66C203.285 11.66 203.861 11.588 204.437 11.516C204.365 9.536 202.925 7.196 200.765 7.196C198.713 7.196 197.345 9.14 197.345 11.048C197.345 16.016 203.537 18.5 203.537 23.9C203.537 24.836 203.105 26.42 201.917 26.42C200.477 26.42 200.585 24.62 200.585 23.612C200.585 22.82 199.829 22.316 199.073 22.316C198.101 22.316 197.741 23.108 197.741 23.972C197.741 26.24 199.361 29.012 201.881 29.012C204.653 29.012 206.093 26.204 206.093 23.756C206.093 22.136 205.625 20.516 204.869 19.112ZM211.829 2.696C211.613 1.364 211.181 1.472 210.497 1.472C209.993 1.472 209.381 1.148 209.093 2.048C209.021 2.156 209.021 2.3 209.021 2.516C208.985 3.488 208.949 4.46 208.913 5.396C208.877 6.116 208.733 8.276 209.057 8.852C209.309 9.392 209.381 9.32 209.777 9.284C210.353 9.14 210.461 9.068 211.073 8.996C211.325 8.924 211.577 8.636 211.613 8.132C211.685 6.728 212.045 4.064 211.829 2.732V2.696ZM218.951 30.02C218.987 29.804 219.023 29.588 219.023 29.336C219.023 28.256 218.735 27.212 218.627 26.132C218.303 22.964 218.375 19.796 218.375 16.628C218.375 15.8 218.267 15.008 217.259 15.008C215.603 15.008 215.279 15.512 215.279 17.096C215.279 18.428 215.567 19.76 215.711 21.128C215.963 23.432 215.891 25.808 215.891 28.112C215.891 30.2 216.107 30.272 218.123 30.272C218.411 30.272 218.735 30.272 218.951 30.02ZM215.711 11.948C216.143 11.948 216.575 12.056 217.007 12.056C217.763 12.056 218.015 11.516 218.015 10.832C218.015 10.184 217.871 9.572 217.835 8.924C217.835 8.384 217.907 7.88 217.907 7.34C217.907 6.116 217.007 5.936 215.963 5.936C215.639 5.936 215.315 5.936 215.027 6.008C214.883 6.08 214.847 6.26 214.847 6.404C214.847 6.908 215.063 7.34 215.135 7.808C215.279 8.852 215.207 9.896 215.207 10.94C215.207 11.264 215.207 11.66 215.315 11.984C215.459 11.948 215.567 11.948 215.711 11.948ZM226.724 29.12C225.896 21.92 225.752 14.684 225.464 7.448C225.428 6.836 225.464 6.188 225.464 5.576C225.464 4.532 225.356 3.2 223.988 3.2C223.484 3.2 223.016 3.452 222.512 3.344C222.368 3.488 222.296 3.668 222.296 3.884C222.296 4.424 222.512 4.964 222.584 5.54C222.692 6.368 222.584 7.232 222.584 8.096C222.584 13.532 223.196 18.932 223.484 24.368C223.628 26.816 223.592 29.3 224.024 31.748C224.204 32.756 224.168 32.576 225.104 32.792C225.464 32.864 225.86 33.008 226.22 33.008C226.94 33.008 227.012 32.036 227.012 31.532C227.012 30.74 226.832 29.912 226.724 29.12ZM70.6786 69.424C70.3186 69.1 69.1306 68.02 68.7346 68.02C68.3386 68.02 67.9426 68.992 67.0786 68.992C64.6666 68.992 64.6666 64.204 64.6666 62.548C64.6666 58.048 64.9186 53.512 65.2066 49.012C65.7466 49.012 68.8786 49.012 68.8786 48.364C68.8786 48.004 68.7706 47.68 68.7706 47.32C68.7706 47.104 68.8066 46.924 68.8066 46.708C68.8066 46.168 68.1946 46.096 67.7986 46.096C67.0786 46.096 66.3946 46.276 65.6746 46.276H65.3866C65.4946 44.692 65.7106 43.108 65.7106 41.524C65.7106 40.408 64.9906 39.832 63.8746 39.832C62.1826 39.832 62.6146 42.352 62.6146 43.396C62.6146 44.296 62.5426 45.196 62.5426 46.132H62.2906C60.3826 46.132 60.1306 46.168 60.1306 48.148C60.1306 48.292 60.1306 48.436 60.1666 48.544C60.6706 48.904 61.8586 48.94 62.5066 48.976C62.4706 53.152 62.0026 57.292 62.0026 61.468C62.0026 64.816 62.0026 72.376 66.7906 72.376C67.9786 72.376 70.8226 71.116 70.8226 69.712C70.8226 69.604 70.7506 69.496 70.6786 69.424ZM84.5538 60.244H84.4098C83.7618 60.244 83.1498 60.136 82.5018 60.136C82.2138 60.136 81.8538 60.136 81.6018 60.316C80.8818 60.748 81.7458 65.212 79.3698 65.212C76.9578 65.212 76.9938 59.992 76.8138 58.336C76.7418 57.688 76.6338 57.04 76.6338 56.392C76.6338 55.132 77.7858 54.88 78.7938 54.88C80.0178 54.88 81.2418 54.988 82.4658 54.988C83.7978 54.988 84.6978 54.736 84.6978 53.188C84.6978 49.912 82.9698 44.08 78.9378 44.08C73.7538 44.08 73.4298 52.612 73.4298 56.284C73.4298 59.812 74.5818 68.128 79.3338 68.128C82.9698 68.128 84.9138 64.096 84.9138 60.928C84.9138 60.64 84.8778 60.316 84.5538 60.244ZM77.0298 51.316V50.524C77.0298 49.372 77.0298 46.888 78.6858 46.888C80.3778 46.888 81.6018 49.876 81.6018 51.244C81.6018 52.036 81.0978 52.036 80.4858 52.108C79.6218 52.216 78.7938 52.504 77.9298 52.504C77.6778 52.504 76.9578 52.468 76.9578 52.108C76.9578 51.82 76.9938 51.568 77.0298 51.316ZM98.2903 42.388C98.2183 43.252 98.1823 44.08 98.1823 44.944C98.1823 47.896 98.5783 50.776 98.7223 53.728C98.9743 58.372 98.9743 63.016 98.9743 67.66C98.9743 69.352 99.0103 69.82 100.882 69.82C102.07 69.82 102.106 69.424 102.106 68.344C102.106 67.048 101.782 65.752 101.674 64.42C101.422 61.54 101.17 58.66 101.17 55.744C101.17 55.06 101.026 54.412 101.026 53.728C101.026 53.188 101.098 52.756 101.53 52.36C101.962 51.964 103.402 51.784 104.086 51.388C105.598 50.524 107.074 48.436 107.074 46.672C107.074 45.952 106.822 45.268 106.426 44.692C104.77 42.208 100.918 42.496 98.2903 42.388ZM103.942 48.4C103.618 49.12 102.214 50.092 101.422 50.092C100.774 50.092 100.63 49.48 100.63 48.976C100.63 48.364 100.774 47.788 100.81 47.212C100.846 46.744 100.774 46.312 100.774 45.844C100.774 45.412 100.846 44.98 101.35 44.98C102.61 44.98 104.122 46.24 104.122 47.536C104.122 47.824 104.05 48.112 103.942 48.4ZM114.631 68.236C114.415 68.272 114.199 68.272 113.983 68.272C113.371 68.272 113.335 67.912 113.335 67.408C113.335 66.472 113.371 65.536 113.371 64.6C113.371 59.38 113.263 54.16 113.191 48.94C113.155 47.5 113.047 46.096 113.047 44.656C113.047 43.9 113.227 43.144 113.227 42.352C113.227 41.488 112.975 41.524 112.255 41.344C111.967 41.236 111.679 41.164 111.355 41.164C110.527 41.164 110.491 42.172 110.491 42.784C110.491 48.544 110.707 54.304 110.707 60.028C110.707 62.692 110.383 65.356 110.383 67.984C110.383 68.848 110.383 70.972 111.643 70.972C112.039 70.972 112.435 70.936 112.831 70.936C114.667 70.936 116.467 71.08 118.303 71.08C118.915 71.08 118.915 70.108 118.915 69.676C118.915 69.172 118.879 68.668 118.843 68.164C118.555 67.804 118.087 67.732 117.691 67.732C116.647 67.732 115.639 68.092 114.631 68.236ZM128.159 44.188C128.051 43.252 128.159 42.352 128.159 41.416C128.159 40.228 127.475 40.228 126.503 40.228C125.999 40.228 125.423 40.228 124.991 40.516C124.487 40.84 124.523 43.648 124.451 44.332C123.803 50.848 122.759 57.292 122.039 63.772C121.859 65.68 121.571 67.552 121.319 69.46C121.139 71.224 120.995 71.764 122.507 71.872C122.723 71.908 122.975 71.98 123.227 71.98C123.983 71.98 123.911 71.044 123.911 70.504C123.911 68.992 124.127 67.516 124.163 66.04C124.199 65.284 124.199 64.42 124.991 64.024C125.171 63.952 126.683 64.024 126.899 64.024C127.871 63.988 127.907 66.04 128.123 67.444C128.303 68.74 127.979 71.908 128.771 71.908C129.527 71.908 130.175 71.836 130.751 71.44C131.111 71.188 130.787 67.984 130.607 66.58C129.743 59.128 129.383 51.604 128.159 44.188ZM127.223 61.432C127.007 61.576 126.719 61.648 126.467 61.648C125.675 61.648 124.955 61.756 124.991 61.18C125.027 59.848 125.855 52.396 126.071 51.028C126.467 54.7 127.259 57.472 127.259 60.748C127.259 60.964 127.259 61.216 127.223 61.432ZM126.107 50.884C126.107 50.812 126.107 50.812 126.107 50.776C126.107 50.812 126.107 50.848 126.107 50.884ZM138.426 68.02C138.462 67.804 138.498 67.588 138.498 67.336C138.498 66.256 138.21 65.212 138.102 64.132C137.778 60.964 137.85 57.796 137.85 54.628C137.85 53.8 137.742 53.008 136.734 53.008C135.078 53.008 134.754 53.512 134.754 55.096C134.754 56.428 135.042 57.76 135.186 59.128C135.438 61.432 135.366 63.808 135.366 66.112C135.366 68.2 135.582 68.272 137.598 68.272C137.886 68.272 138.21 68.272 138.426 68.02ZM135.186 49.948C135.618 49.948 136.05 50.056 136.482 50.056C137.238 50.056 137.49 49.516 137.49 48.832C137.49 48.184 137.346 47.572 137.31 46.924C137.31 46.384 137.382 45.88 137.382 45.34C137.382 44.116 136.482 43.936 135.438 43.936C135.114 43.936 134.79 43.936 134.502 44.008C134.358 44.08 134.322 44.26 134.322 44.404C134.322 44.908 134.538 45.34 134.61 45.808C134.754 46.852 134.682 47.896 134.682 48.94C134.682 49.264 134.682 49.66 134.79 49.984C134.934 49.948 135.042 49.948 135.186 49.948ZM151.995 69.424C151.635 69.1 150.447 68.02 150.051 68.02C149.655 68.02 149.259 68.992 148.395 68.992C145.983 68.992 145.983 64.204 145.983 62.548C145.983 58.048 146.235 53.512 146.523 49.012C147.063 49.012 150.195 49.012 150.195 48.364C150.195 48.004 150.087 47.68 150.087 47.32C150.087 47.104 150.123 46.924 150.123 46.708C150.123 46.168 149.511 46.096 149.115 46.096C148.395 46.096 147.711 46.276 146.991 46.276H146.703C146.811 44.692 147.027 43.108 147.027 41.524C147.027 40.408 146.307 39.832 145.191 39.832C143.499 39.832 143.931 42.352 143.931 43.396C143.931 44.296 143.859 45.196 143.859 46.132H143.607C141.699 46.132 141.447 46.168 141.447 48.148C141.447 48.292 141.447 48.436 141.483 48.544C141.987 48.904 143.175 48.94 143.823 48.976C143.787 53.152 143.319 57.292 143.319 61.468C143.319 64.816 143.319 72.376 148.107 72.376C149.295 72.376 152.139 71.116 152.139 69.712C152.139 69.604 152.067 69.496 151.995 69.424ZM166.841 66.508C166.409 66.508 166.049 66.832 166.049 67.264C166.013 68.236 165.977 69.244 165.977 70.252C165.977 70.396 165.941 70.828 166.049 70.972C166.229 71.224 167.525 71.26 167.849 71.26C168.281 71.26 168.605 70.936 168.605 70.504C168.605 69.46 168.605 68.38 168.569 67.3C168.569 66.904 168.281 66.616 167.849 66.58C167.525 66.544 167.165 66.544 166.841 66.508ZM165.689 44.152C166.049 47.428 165.941 51.244 166.049 54.592C166.049 55.348 166.049 56.104 166.049 56.896C166.049 58.696 165.977 60.496 165.977 62.296C165.977 62.476 165.941 62.872 166.049 63.052C166.193 63.304 167.561 63.34 167.849 63.34C168.281 63.34 168.605 63.016 168.605 62.584C168.605 57.256 168.461 51.892 168.461 46.564C168.461 45.376 168.605 44.224 168.605 43.036C168.605 42.496 168.569 41.992 168.497 41.452C168.389 40.804 168.569 40.552 167.741 40.552C167.345 40.552 165.581 40.588 165.437 41.056C165.509 41.2 165.401 41.74 165.401 41.956C165.401 42.676 165.581 43.432 165.689 44.152Z" fill="white"/>
</g>
<defs>
<filter id="filter0_d" x="0.557129" y="0.391998" width="241.455" height="87.984" filterUnits="userSpaceOnUse" color-interpolation-filters="sRGB">
<feFlood flood-opacity="0" result="BackgroundImageFix"/>
<feColorMatrix in="SourceAlpha" type="matrix" values="0 0 0 0 0 0 0 0 0 0 0 0 0 0 0 0 0 0 127 0"/>
<feOffset dx="7" dy="8"/>
<feGaussianBlur stdDeviation="4"/>
<feColorMatrix type="matrix" values="0 0 0 0 0 0 0 0 0 0 0 0 0 0 0 0 0 0 0.25 0"/>
<feBlend mode="normal" in2="BackgroundImageFix" result="effect1_dropShadow"/>
<feBlend mode="normal" in="SourceGraphic" in2="effect1_dropShadow" result="shape"/>
</filter>
</defs>
</svg>
