<svg id="Calque_1" data-name="Calque 1" xmlns="http://www.w3.org/2000/svg" viewBox="0 0 401.38 399.89"><defs><style>.cls-1{fill:#333e9e;}.cls-2{fill:#a5b0f2;}.cls-3{fill:#65ada6;}.cls-4{fill:#9cf5f4;}.cls-5{fill:#fff;stroke:#ffb57c;stroke-width:7.4px;}.cls-21,.cls-22,.cls-5{stroke-miterlimit:10;}.cls-6{fill:#f9fcec;}.cls-7{fill:#e2bdca;}.cls-8{fill:#3343a8;}.cls-9{fill:#ffb57c;}.cls-10{fill:#f6f1e3;}.cls-11{fill:#eab890;}.cls-12{fill:#ebd7c8;}.cls-13{fill:#92a4f0;}.cls-14{fill:#69b2a6;}.cls-15{fill:#99e0e0;}.cls-16{fill:#e0b7c6;}.cls-17{fill:#dba7bc;}.cls-18{fill:#3542a7;}.cls-19{fill:#66b0a7;}.cls-20{fill:#99dfde;}.cls-21,.cls-22{fill:none;stroke-linecap:round;stroke-width:0.82px;}.cls-21{stroke:#333e9e;}.cls-22{stroke:#f9fcec;}</style></defs><title>Hyblab_picto1</title><circle class="cls-1" cx="180.94" cy="222.56" r="150.97"/><rect class="cls-2" x="3.35" y="225.32" width="398.04" height="35.28" rx="17.64" ry="17.64"/><path class="cls-3" d="M328.32,311.88H533.85s.48-28.2-33-18.16c0,0-9.45-31.14-59.83-23.13,0,0-33.49-37.49-78.14-14S328.32,311.88,328.32,311.88Z" transform="translate(-219.63 -88.87)"/><path class="cls-4" d="M481.3,232.72H590s-1.64-15.54-18.81-9c0,0-9.4-19.21-30.25-9,0,0-26.94-27.66-51.19-3.92C489.8,210.82,481.68,217.67,481.3,232.72Z" transform="translate(-219.63 -88.87)"/><circle class="cls-5" cx="180.94" cy="61.09" r="57.39"/><path class="cls-4" d="M294.69,237.48H219.63s1.13-10.72,13-6.21c0,0,6.49-13.26,20.88-6.21,0,0,18.59-19.09,35.33-2.7C288.82,222.36,294.42,227.1,294.69,237.48Z" transform="translate(-219.63 -88.87)"/><rect class="cls-6" x="213.73" y="190.61" width="70.2" height="30.58"/><rect class="cls-7" x="283.93" y="193.47" width="4.97" height="27.71"/><rect class="cls-6" x="288.9" y="190.61" width="52.44" height="21.13"/><path class="cls-7" d="M560.9,279.48s11.14,7.89,14.56,21.18L561,300.55Z" transform="translate(-219.63 -88.87)"/><rect class="cls-8" x="338.88" y="211.25" width="16.96" height="2.85"/><rect class="cls-6" x="288.88" y="214.18" width="41.01" height="7"/><path class="cls-6" d="M558.65,303h16.82a4.24,4.24,0,0,1-1.07,3.1c-1.24,1.24-2.92,3-2.92,3l-13,1.57Z" transform="translate(-219.63 -88.87)"/><rect class="cls-7" x="213.73" y="221.18" width="127.77" height="1.56"/><path class="cls-7" d="M575.59,304.41s-2.79,5.91-14.56,5.65l0,1.56s14.29.79,14.65-7.21" transform="translate(-219.63 -88.87)"/><rect class="cls-7" x="291.41" y="195.62" width="47.61" height="15.76"/><rect class="cls-7" x="215.75" y="195.74" width="65.61" height="15.52"/><rect class="cls-8" x="213.62" y="211.25" width="70.31" height="2.92"/><rect class="cls-7" x="238.06" y="211.12" width="21.02" height="10.06"/><rect class="cls-8" x="288.9" y="211.25" width="41.29" height="2.92"/><rect class="cls-9" x="329.89" y="211.25" width="9.12" height="9.93"/><path class="cls-3" d="M495.18,349.39h28.6c2.25-2.08,2-28.14-15.13-26.88C492.33,323.71,495.18,349.39,495.18,349.39Z" transform="translate(-219.63 -88.87)"/><path class="cls-4" d="M498,349.39s-1.59-20.6,8.21-26.5c0,0-13.2,1.46-11.06,26.5Z" transform="translate(-219.63 -88.87)"/><path class="cls-3" d="M458.92,349.39h28.6c2.25-2.08,2-28.14-15.13-26.88C456.08,323.71,458.92,349.39,458.92,349.39Z" transform="translate(-219.63 -88.87)"/><path class="cls-4" d="M461.77,349.39s-1.59-20.6,8.21-26.5c0,0-13.2,1.46-11.06,26.5Z" transform="translate(-219.63 -88.87)"/><path class="cls-3" d="M422.55,349.39h28.6c2.25-2.08,2-28.14-15.13-26.88C419.71,323.71,422.55,349.39,422.55,349.39Z" transform="translate(-219.63 -88.87)"/><path class="cls-4" d="M425.4,349.39s-1.59-20.6,8.21-26.5c0,0-13.2,1.46-11.06,26.5Z" transform="translate(-219.63 -88.87)"/><rect class="cls-6" x="81.24" y="152.48" width="15.45" height="28.51"/><polygon class="cls-10" points="112.05 130.28 96.28 152.48 96.28 180.99 127.81 180.99 127.81 152.48 112.05 130.28"/><polygon class="cls-7" points="96.28 152.48 112.05 130.28 96.69 130.28 81.24 152.48 96.28 152.48"/><rect class="cls-11" x="87.59" y="155.99" width="2.83" height="5.85"/><rect class="cls-12" x="87.57" y="155.99" width="1.7" height="5.85"/><rect class="cls-11" x="87.58" y="163.84" width="2.83" height="5.85"/><rect class="cls-12" x="87.58" y="163.84" width="1.68" height="5.85"/><rect class="cls-11" x="103.3" y="155.99" width="2.83" height="5.85"/><rect class="cls-12" x="103.3" y="155.99" width="1.68" height="5.85"/><rect class="cls-11" x="108.49" y="155.99" width="2.83" height="5.85"/><rect class="cls-12" x="108.49" y="155.99" width="1.68" height="5.85"/><rect class="cls-11" x="113.57" y="155.99" width="2.83" height="5.85"/><rect class="cls-12" x="113.57" y="155.99" width="1.68" height="5.85"/><rect class="cls-11" x="118.6" y="155.99" width="2.83" height="5.85"/><rect class="cls-12" x="118.6" y="155.99" width="1.68" height="5.85"/><rect class="cls-11" x="103.3" y="163.92" width="2.83" height="5.85"/><rect class="cls-12" x="103.3" y="163.92" width="1.68" height="5.85"/><rect class="cls-11" x="108.49" y="163.92" width="2.83" height="5.85"/><rect class="cls-12" x="108.49" y="163.92" width="1.68" height="5.85"/><rect class="cls-11" x="113.57" y="163.92" width="2.83" height="5.85"/><rect class="cls-12" x="113.57" y="163.92" width="1.68" height="5.85"/><rect class="cls-11" x="118.6" y="163.92" width="2.83" height="5.85"/><rect class="cls-12" x="118.6" y="163.92" width="1.68" height="5.85"/><rect class="cls-11" x="103.3" y="171.79" width="2.83" height="5.85"/><rect class="cls-12" x="103.3" y="171.79" width="1.68" height="5.85"/><rect class="cls-11" x="108.49" y="171.79" width="2.83" height="5.85"/><rect class="cls-12" x="108.49" y="171.79" width="1.68" height="5.85"/><rect class="cls-11" x="113.57" y="171.79" width="2.83" height="5.85"/><rect class="cls-12" x="113.57" y="171.79" width="1.68" height="5.85"/><rect class="cls-11" x="118.6" y="171.79" width="2.83" height="5.85"/><rect class="cls-12" x="118.6" y="171.79" width="1.68" height="5.85"/><rect class="cls-11" x="87.68" y="171.61" width="2.83" height="5.85"/><rect class="cls-12" x="87.68" y="171.61" width="1.68" height="5.85"/><rect class="cls-2" x="97.19" y="128.14" width="1.68" height="2.13"/><rect class="cls-2" x="99.07" y="127.55" width="1.68" height="2.72"/><rect class="cls-2" x="96.69" y="130.15" width="15.36" height="0.13"/><rect class="cls-2" x="126.13" y="153.63" width="15.45" height="38.67"/><polygon class="cls-13" points="156.87 131.46 141.23 153.56 141.1 192.3 172.63 192.3 172.63 158.09 156.87 131.46"/><polygon class="cls-6" points="141.17 153.63 156.93 131.43 141.58 131.43 126.13 153.63 141.17 153.63"/><rect class="cls-14" x="135.08" y="157.14" width="2.83" height="5.85"/><rect class="cls-4" x="135.07" y="157.14" width="1.7" height="5.85"/><rect class="cls-14" x="135.07" y="165.08" width="2.83" height="5.85"/><rect class="cls-4" x="135.09" y="165.09" width="1.68" height="5.85"/><rect class="cls-14" x="148.18" y="157.14" width="2.83" height="5.85"/><rect class="cls-4" x="148.18" y="157.14" width="1.68" height="5.85"/><rect class="cls-14" x="153.38" y="157.14" width="2.83" height="5.85"/><rect class="cls-4" x="153.38" y="157.14" width="1.68" height="5.85"/><rect class="cls-14" x="158.46" y="157.14" width="2.83" height="5.85"/><rect class="cls-4" x="158.46" y="157.14" width="1.68" height="5.85"/><rect class="cls-14" x="163.49" y="157.14" width="2.83" height="5.85"/><rect class="cls-4" x="163.49" y="157.14" width="1.68" height="5.85"/><rect class="cls-14" x="148.18" y="165.07" width="2.83" height="5.85"/><rect class="cls-4" x="148.18" y="165.07" width="1.68" height="5.85"/><rect class="cls-14" x="153.38" y="165.07" width="2.83" height="5.85"/><rect class="cls-4" x="153.38" y="165.07" width="1.68" height="5.85"/><rect class="cls-14" x="158.46" y="165.07" width="2.83" height="5.85"/><rect class="cls-4" x="158.46" y="165.07" width="1.68" height="5.85"/><rect class="cls-14" x="163.49" y="165.07" width="2.83" height="5.85"/><rect class="cls-4" x="163.49" y="165.07" width="1.68" height="5.85"/><rect class="cls-14" x="148.18" y="172.94" width="2.83" height="5.85"/><rect class="cls-4" x="148.18" y="172.94" width="1.68" height="5.85"/><rect class="cls-14" x="153.38" y="172.94" width="2.83" height="5.85"/><rect class="cls-4" x="153.38" y="172.94" width="1.68" height="5.85"/><rect class="cls-14" x="158.46" y="172.94" width="2.83" height="5.85"/><rect class="cls-4" x="158.46" y="172.94" width="1.68" height="5.85"/><rect class="cls-14" x="163.49" y="172.94" width="2.83" height="5.85"/><rect class="cls-4" x="163.49" y="172.94" width="1.68" height="5.85"/><rect class="cls-14" x="135.09" y="172.95" width="2.83" height="5.85"/><rect class="cls-4" x="135.09" y="172.95" width="1.68" height="5.85"/><rect class="cls-9" x="142.07" y="129.29" width="1.68" height="2.13"/><rect class="cls-9" x="143.96" y="128.7" width="1.68" height="2.72"/><rect class="cls-9" x="141.58" y="131.3" width="15.36" height="0.13"/><rect class="cls-14" x="148.09" y="180.61" width="2.83" height="5.85"/><rect class="cls-4" x="148.09" y="180.61" width="1.68" height="5.85"/><rect class="cls-14" x="153.29" y="180.61" width="2.83" height="5.85"/><rect class="cls-4" x="153.29" y="180.61" width="1.68" height="5.85"/><rect class="cls-14" x="158.37" y="180.61" width="2.83" height="5.85"/><rect class="cls-4" x="158.37" y="180.61" width="1.68" height="5.85"/><rect class="cls-14" x="163.4" y="180.61" width="2.83" height="5.85"/><rect class="cls-4" x="163.4" y="180.61" width="1.68" height="5.85"/><rect class="cls-14" x="135.09" y="180.66" width="2.83" height="5.85"/><rect class="cls-15" x="135.09" y="180.66" width="1.68" height="5.85"/><rect class="cls-14" x="129.16" y="180.68" width="2.83" height="5.85"/><rect class="cls-4" x="129.16" y="180.68" width="1.68" height="5.85"/><rect class="cls-14" x="129.15" y="172.89" width="2.83" height="5.85"/><rect class="cls-4" x="129.15" y="172.89" width="1.68" height="5.85"/><rect class="cls-14" x="129.16" y="165.12" width="2.83" height="5.85"/><rect class="cls-4" x="129.16" y="165.12" width="1.68" height="5.85"/><rect class="cls-14" x="129.15" y="157.09" width="2.83" height="5.85"/><rect class="cls-4" x="129.15" y="157.09" width="1.68" height="5.85"/><rect class="cls-16" x="172.63" y="182" width="12.12" height="30.32"/><polygon class="cls-17" points="196.74 164.61 184.47 181.94 184.37 212.32 209.1 212.32 209.1 185.5 196.74 164.61"/><polygon class="cls-9" points="184.43 182 196.79 164.59 184.75 164.59 172.63 182 184.43 182"/><rect class="cls-18" x="179.65" y="184.75" width="2.22" height="4.59"/><rect class="cls-13" x="179.65" y="184.75" width="1.33" height="4.59"/><rect class="cls-18" x="179.65" y="190.98" width="2.22" height="4.59"/><rect class="cls-13" x="179.66" y="190.99" width="1.32" height="4.59"/><rect class="cls-18" x="189.92" y="184.75" width="2.22" height="4.59"/><rect class="cls-13" x="189.92" y="184.75" width="1.32" height="4.59"/><rect class="cls-18" x="194" y="184.75" width="2.22" height="4.59"/><rect class="cls-13" x="194" y="184.75" width="1.32" height="4.59"/><rect class="cls-18" x="197.98" y="184.75" width="2.22" height="4.59"/><rect class="cls-13" x="197.98" y="184.75" width="1.32" height="4.59"/><rect class="cls-18" x="201.93" y="184.75" width="2.22" height="4.59"/><rect class="cls-13" x="201.93" y="184.75" width="1.32" height="4.59"/><rect class="cls-18" x="189.92" y="190.97" width="2.22" height="4.59"/><rect class="cls-13" x="189.92" y="190.97" width="1.32" height="4.59"/><rect class="cls-18" x="194" y="190.97" width="2.22" height="4.59"/><rect class="cls-13" x="194" y="190.97" width="1.32" height="4.59"/><rect class="cls-18" x="197.98" y="190.97" width="2.22" height="4.59"/><rect class="cls-13" x="197.98" y="190.97" width="1.32" height="4.59"/><rect class="cls-18" x="201.93" y="190.97" width="2.22" height="4.59"/><rect class="cls-13" x="201.93" y="190.97" width="1.32" height="4.59"/><rect class="cls-18" x="189.92" y="197.14" width="2.22" height="4.59"/><rect class="cls-13" x="189.92" y="197.14" width="1.32" height="4.59"/><rect class="cls-18" x="194" y="197.14" width="2.22" height="4.59"/><rect class="cls-13" x="194" y="197.14" width="1.32" height="4.59"/><rect class="cls-18" x="197.98" y="197.14" width="2.22" height="4.59"/><rect class="cls-13" x="197.98" y="197.14" width="1.32" height="4.59"/><rect class="cls-18" x="201.93" y="197.14" width="2.22" height="4.59"/><rect class="cls-13" x="201.93" y="197.14" width="1.32" height="4.59"/><rect class="cls-18" x="179.66" y="197.15" width="2.22" height="4.59"/><rect class="cls-13" x="179.66" y="197.15" width="1.32" height="4.59"/><rect class="cls-6" x="185.13" y="162.92" width="1.32" height="1.67"/><rect class="cls-6" x="186.61" y="162.45" width="1.32" height="2.13"/><rect class="cls-6" x="184.75" y="164.49" width="12.04" height="0.1"/><rect class="cls-18" x="189.85" y="203.16" width="2.22" height="4.59"/><rect class="cls-13" x="189.85" y="203.16" width="1.32" height="4.59"/><rect class="cls-18" x="193.93" y="203.16" width="2.22" height="4.59"/><rect class="cls-13" x="193.93" y="203.16" width="1.32" height="4.59"/><rect class="cls-18" x="197.91" y="203.16" width="2.22" height="4.59"/><rect class="cls-13" x="197.91" y="203.16" width="1.32" height="4.59"/><rect class="cls-18" x="201.86" y="203.16" width="2.22" height="4.59"/><rect class="cls-13" x="201.86" y="203.16" width="1.32" height="4.59"/><rect class="cls-18" x="179.66" y="203.19" width="2.22" height="4.59"/><rect class="cls-13" x="179.66" y="203.19" width="1.32" height="4.59"/><rect class="cls-18" x="175.01" y="203.21" width="2.22" height="4.59"/><rect class="cls-13" x="175.01" y="203.21" width="1.32" height="4.59"/><rect class="cls-18" x="175.01" y="197.1" width="2.22" height="4.59"/><rect class="cls-13" x="175.01" y="197.1" width="1.32" height="4.59"/><rect class="cls-18" x="175.01" y="191.01" width="2.22" height="4.59"/><rect class="cls-13" x="175.01" y="191.01" width="1.32" height="4.59"/><rect class="cls-18" x="175.01" y="184.71" width="2.22" height="4.59"/><rect class="cls-13" x="175.01" y="184.71" width="1.32" height="4.59"/><path class="cls-4" d="M227.39,312.37,443,311.88s.5-28.2-34.64-18.16c0,0-9.93-31.14-62.83-23.13,0,0-35.17-37.49-82.06-14S227.39,312.37,227.39,312.37Z" transform="translate(-219.63 -88.87)"/><polyline class="cls-19" points="21.42 225.21 389.13 225.21 389.13 222.56"/><rect class="cls-3" x="7.2" y="222.72" width="384.9" height="3.1" rx="1.55" ry="1.55"/><rect class="cls-3" x="21.82" y="272.85" width="343.71" height="2.77" rx="1.39" ry="1.39"/><path class="cls-3" d="M532.19,349.39h28.6c2.25-2.08,2-28.14-15.13-26.88C529.34,323.71,532.19,349.39,532.19,349.39Z" transform="translate(-219.63 -88.87)"/><path class="cls-4" d="M535,349.39s-1.59-20.6,8.21-26.5c0,0-13.2,1.46-11.06,26.5Z" transform="translate(-219.63 -88.87)"/><rect class="cls-4" x="16.06" y="259.41" width="355.65" height="13.44" rx="6.72" ry="6.72"/><path class="cls-9" d="M278.79,357.1l47.67.09s2.54-25.47-18.4-25.76c-18.29-.26-19.19,11.91-19.19,11.91S275.69,344.07,278.79,357.1Z" transform="translate(-219.63 -88.87)"/><path class="cls-6" d="M291.26,343.54s2.47-9.24,12.06-9.75v9.76Z" transform="translate(-219.63 -88.87)"/><path class="cls-6" d="M304.45,333.69s13.36-2.84,18.66,9.85H304.44Z" transform="translate(-219.63 -88.87)"/><ellipse class="cls-6" cx="106.66" cy="260.11" rx="1.05" ry="1.87"/><ellipse class="cls-1" cx="279.91" cy="351.7" rx="2.18" ry="1.46" transform="translate(-371.39 388.15) rotate(-67.67)"/><ellipse class="cls-6" cx="279.89" cy="351.74" rx="1.63" ry="1.09" transform="translate(-371.44 388.16) rotate(-67.67)"/><circle class="cls-1" cx="70.19" cy="267.88" r="4.95"/><circle class="cls-6" cx="70.14" cy="267.88" r="2.12"/><circle class="cls-1" cx="97.3" cy="267.88" r="4.95"/><circle class="cls-6" cx="97.25" cy="267.88" r="2.12"/><path class="cls-1" d="M348.56,357.1l47.67.09s2.54-25.47-18.4-25.76c-18.29-.26-19.19,11.91-19.19,11.91S345.45,344.07,348.56,357.1Z" transform="translate(-219.63 -88.87)"/><path class="cls-6" d="M361,343.54s2.47-9.24,12.06-9.75v9.76Z" transform="translate(-219.63 -88.87)"/><path class="cls-6" d="M374.22,333.69s13.36-2.84,18.66,9.85H374.21Z" transform="translate(-219.63 -88.87)"/><ellipse class="cls-9" cx="176.43" cy="260.11" rx="1.05" ry="1.87"/><ellipse class="cls-9" cx="349.67" cy="351.7" rx="2.18" ry="1.46" transform="translate(-328.13 452.69) rotate(-67.67)"/><ellipse class="cls-7" cx="349.66" cy="351.74" rx="1.63" ry="1.09" transform="translate(-328.18 452.7) rotate(-67.67)"/><circle class="cls-9" cx="139.95" cy="267.88" r="4.95"/><circle class="cls-6" cx="139.9" cy="267.88" r="2.12"/><circle class="cls-9" cx="167.07" cy="267.88" r="4.95"/><circle class="cls-6" cx="167.02" cy="267.88" r="2.12"/><rect class="cls-3" x="170.68" y="318.1" width="214.53" height="81.79" rx="39.31" ry="39.31"/><path class="cls-7" d="M465.87,415.23H590.32s.29-17.08-20-11c0,0-5.72-18.86-36.23-14,0,0-20.28-22.7-47.31-8.49S465.87,415.23,465.87,415.23Z" transform="translate(-219.63 -88.87)"/><path class="cls-9" d="M404.75,415.52l130.56-.29s.3-17.08-21-11c0,0-6-18.86-38-14,0,0-21.3-22.7-49.69-8.49S404.75,415.52,404.75,415.52Z" transform="translate(-219.63 -88.87)"/><rect class="cls-4" x="183.81" y="325.73" width="188.39" height="2.77" rx="1.39" ry="1.39"/><rect class="cls-7" x="198.71" y="342.57" width="1.79" height="5.88" rx="0.82" ry="0.82"/><ellipse class="cls-9" cx="199.71" cy="348.43" rx="3.69" ry="0.34"/><polygon class="cls-9" points="195.83 339.25 199.73 333.62 203.86 339.25 195.83 339.25"/><polygon class="cls-9" points="195.83 342.05 199.73 336.42 203.86 342.05 195.83 342.05"/><polygon class="cls-9" points="195.83 344.82 199.73 339.18 203.86 344.82 195.83 344.82"/><rect class="cls-1" x="183.92" y="354.76" width="1.79" height="5.88" rx="0.82" ry="0.82"/><ellipse class="cls-4" cx="184.92" cy="360.62" rx="3.69" ry="0.34"/><polygon class="cls-13" points="181.04 351.44 184.94 345.8 189.07 351.44 181.04 351.44"/><polygon class="cls-13" points="181.04 354.24 184.94 348.6 189.07 354.24 181.04 354.24"/><polygon class="cls-13" points="181.04 357 184.94 351.37 189.07 357 181.04 357"/><rect class="cls-6" x="202.78" y="364.36" width="1.79" height="5.88" rx="0.82" ry="0.82"/><ellipse class="cls-1" cx="203.78" cy="370.22" rx="3.69" ry="0.34"/><polygon class="cls-4" points="199.9 361.05 203.8 355.41 207.94 361.05 199.9 361.05"/><polygon class="cls-4" points="199.9 363.85 203.8 358.21 207.94 363.85 199.9 363.85"/><polygon class="cls-4" points="199.9 366.61 203.8 360.97 207.94 366.61 199.9 366.61"/><rect class="cls-13" x="190.01" y="378.73" width="1.79" height="5.88" rx="0.82" ry="0.82"/><ellipse class="cls-9" cx="191.01" cy="384.59" rx="3.69" ry="0.34"/><polygon class="cls-7" points="187.13 375.41 191.03 369.77 195.16 375.41 187.13 375.41"/><polygon class="cls-7" points="187.13 378.21 191.03 372.57 195.16 378.21 187.13 378.21"/><polygon class="cls-7" points="187.13 380.97 191.03 375.34 195.16 380.97 187.13 380.97"/><rect class="cls-9" x="208.61" y="385.56" width="1.79" height="5.88" rx="0.82" ry="0.82"/><ellipse class="cls-6" cx="209.61" cy="391.42" rx="3.69" ry="0.34"/><polygon class="cls-1" points="205.73 382.24 209.63 376.61 213.76 382.24 205.73 382.24"/><polygon class="cls-1" points="205.73 385.04 209.63 379.4 213.76 385.04 205.73 385.04"/><polygon class="cls-1" points="205.73 387.81 209.63 382.17 213.76 387.81 205.73 387.81"/><rect class="cls-4" x="218.81" y="352.47" width="1.79" height="5.88" rx="0.82" ry="0.82"/><ellipse class="cls-13" cx="219.81" cy="358.33" rx="3.69" ry="0.34"/><polygon class="cls-6" points="215.93 349.15 219.83 343.52 223.96 349.15 215.93 349.15"/><polygon class="cls-6" points="215.93 351.95 219.83 346.32 223.96 351.95 215.93 351.95"/><polygon class="cls-6" points="215.93 354.72 219.83 349.08 223.96 354.72 215.93 354.72"/><rect class="cls-1" x="223.47" y="374.13" width="1.79" height="5.88" rx="0.82" ry="0.82"/><ellipse class="cls-4" cx="224.47" cy="379.99" rx="3.69" ry="0.34"/><polygon class="cls-13" points="220.59 370.81 224.49 365.17 228.62 370.81 220.59 370.81"/><polygon class="cls-13" points="220.59 373.61 224.49 367.97 228.62 373.61 220.59 373.61"/><polygon class="cls-13" points="220.59 376.37 224.49 370.74 228.62 376.37 220.59 376.37"/><rect class="cls-7" x="237.14" y="388.87" width="1.79" height="5.88" rx="0.82" ry="0.82"/><ellipse class="cls-9" cx="238.14" cy="394.73" rx="3.69" ry="0.34"/><polygon class="cls-9" points="234.26 385.56 238.16 379.92 242.29 385.56 234.26 385.56"/><polygon class="cls-9" points="234.26 388.36 238.16 382.72 242.29 388.36 234.26 388.36"/><polygon class="cls-9" points="234.26 391.12 238.16 385.48 242.29 391.12 234.26 391.12"/><rect class="cls-13" x="235.84" y="342.32" width="1.79" height="5.88" rx="0.82" ry="0.82"/><ellipse class="cls-9" cx="236.84" cy="348.18" rx="3.69" ry="0.34"/><polygon class="cls-7" points="232.97 339 236.86 333.36 241 339 232.97 339"/><polygon class="cls-7" points="232.97 341.8 236.86 336.16 241 341.8 232.97 341.8"/><polygon class="cls-7" points="232.97 344.56 236.86 338.93 241 344.56 232.97 344.56"/><rect class="cls-4" x="251.7" y="379.9" width="1.79" height="5.88" rx="0.82" ry="0.82"/><ellipse class="cls-13" cx="252.7" cy="385.76" rx="3.69" ry="0.34"/><polygon class="cls-6" points="248.82 376.58 252.72 370.95 256.85 376.58 248.82 376.58"/><polygon class="cls-6" points="248.82 379.38 252.72 373.75 256.85 379.38 248.82 379.38"/><polygon class="cls-6" points="248.82 382.15 252.72 376.51 256.85 382.15 248.82 382.15"/><rect class="cls-9" x="237.95" y="363.94" width="1.79" height="5.88" rx="0.82" ry="0.82"/><ellipse class="cls-6" cx="238.96" cy="369.8" rx="3.69" ry="0.34"/><polygon class="cls-1" points="235.08 360.63 238.97 354.99 243.11 360.63 235.08 360.63"/><polygon class="cls-1" points="235.08 363.43 238.97 357.79 243.11 363.43 235.08 363.43"/><polygon class="cls-1" points="235.08 366.19 238.97 360.55 243.11 366.19 235.08 366.19"/><rect class="cls-9" x="284.69" y="355.3" width="1.79" height="5.88" rx="0.82" ry="0.82"/><ellipse class="cls-6" cx="285.7" cy="361.16" rx="3.69" ry="0.34"/><polygon class="cls-1" points="281.82 351.98 285.71 346.35 289.85 351.98 281.82 351.98"/><polygon class="cls-1" points="281.82 354.78 285.71 349.15 289.85 354.78 281.82 354.78"/><polygon class="cls-1" points="281.82 357.55 285.71 351.91 289.85 357.55 281.82 357.55"/><rect class="cls-13" x="269.88" y="388.55" width="1.79" height="5.88" rx="0.82" ry="0.82"/><ellipse class="cls-9" cx="270.88" cy="394.41" rx="3.69" ry="0.34"/><polygon class="cls-7" points="267 385.23 270.9 379.59 275.03 385.23 267 385.23"/><polygon class="cls-7" points="267 388.03 270.9 382.39 275.03 388.03 267 388.03"/><polygon class="cls-7" points="267 390.79 270.9 385.16 275.03 390.79 267 390.79"/><rect class="cls-6" x="253.14" y="351.31" width="1.79" height="5.88" rx="0.82" ry="0.82"/><ellipse class="cls-1" cx="254.14" cy="357.17" rx="3.69" ry="0.34"/><polygon class="cls-4" points="250.26 347.99 254.16 342.36 258.29 347.99 250.26 347.99"/><polygon class="cls-4" points="250.26 350.79 254.16 345.15 258.29 350.79 250.26 350.79"/><polygon class="cls-4" points="250.26 353.56 254.16 347.92 258.29 353.56 250.26 353.56"/><rect class="cls-6" x="287.28" y="379.38" width="1.79" height="5.88" rx="0.82" ry="0.82"/><ellipse class="cls-1" cx="288.28" cy="385.24" rx="3.69" ry="0.34"/><polygon class="cls-4" points="284.4 376.06 288.3 370.42 292.43 376.06 284.4 376.06"/><polygon class="cls-4" points="284.4 378.86 288.3 373.22 292.43 378.86 284.4 378.86"/><polygon class="cls-4" points="284.4 381.62 288.3 375.99 292.43 381.62 284.4 381.62"/><rect class="cls-7" x="266.99" y="366.06" width="1.79" height="5.88" rx="0.82" ry="0.82"/><ellipse class="cls-9" cx="267.99" cy="371.92" rx="3.69" ry="0.34"/><polygon class="cls-9" points="264.11 362.75 268.01 357.11 272.14 362.75 264.11 362.75"/><polygon class="cls-9" points="264.11 365.55 268.01 359.91 272.14 365.55 264.11 365.55"/><polygon class="cls-9" points="264.11 368.31 268.01 362.67 272.14 368.31 264.11 368.31"/><rect class="cls-20" x="304.33" y="342.92" width="1.79" height="5.88" rx="0.82" ry="0.82"/><ellipse class="cls-13" cx="305.33" cy="348.78" rx="3.69" ry="0.34"/><polygon class="cls-6" points="301.46 339.61 305.35 333.97 309.49 339.61 301.46 339.61"/><polygon class="cls-6" points="301.46 342.41 305.35 336.77 309.49 342.41 301.46 342.41"/><polygon class="cls-6" points="301.46 345.17 305.35 339.53 309.49 345.17 301.46 345.17"/><rect class="cls-13" x="302.56" y="365.61" width="1.79" height="5.88" rx="0.82" ry="0.82"/><ellipse class="cls-9" cx="303.56" cy="371.47" rx="3.69" ry="0.34"/><polygon class="cls-7" points="299.68 362.3 303.58 356.66 307.71 362.3 299.68 362.3"/><polygon class="cls-7" points="299.68 365.1 303.58 359.46 307.71 365.1 299.68 365.1"/><polygon class="cls-7" points="299.68 367.86 303.58 362.22 307.71 367.86 299.68 367.86"/><rect class="cls-1" x="270.31" y="341.72" width="1.79" height="5.88" rx="0.82" ry="0.82"/><ellipse class="cls-4" cx="271.32" cy="347.58" rx="3.69" ry="0.34"/><polygon class="cls-13" points="267.44 338.4 271.34 332.76 275.47 338.4 267.44 338.4"/><polygon class="cls-13" points="267.44 341.2 271.34 335.56 275.47 341.2 267.44 341.2"/><polygon class="cls-13" points="267.44 343.96 271.34 338.33 275.47 343.96 267.44 343.96"/><rect class="cls-9" x="353.62" y="359.89" width="1.79" height="5.88" rx="0.82" ry="0.82"/><ellipse class="cls-6" cx="354.62" cy="365.75" rx="3.69" ry="0.34"/><polygon class="cls-1" points="350.74 356.57 354.64 350.93 358.77 356.57 350.74 356.57"/><polygon class="cls-1" points="350.74 359.37 354.64 353.73 358.77 359.37 350.74 359.37"/><polygon class="cls-1" points="350.74 362.13 354.64 356.5 358.77 362.13 350.74 362.13"/><rect class="cls-13" x="352.57" y="384.31" width="1.79" height="5.88" rx="0.82" ry="0.82"/><ellipse class="cls-9" cx="353.57" cy="390.17" rx="3.69" ry="0.34"/><polygon class="cls-7" points="349.69 380.99 353.59 375.36 357.72 380.99 349.69 380.99"/><polygon class="cls-7" points="349.69 383.79 353.59 378.15 357.72 383.79 349.69 383.79"/><polygon class="cls-7" points="349.69 386.56 353.59 380.92 357.72 386.56 349.69 386.56"/><rect class="cls-7" x="327.84" y="342.58" width="1.79" height="5.88" rx="0.82" ry="0.82"/><ellipse class="cls-9" cx="328.84" cy="348.44" rx="3.69" ry="0.34"/><polygon class="cls-9" points="324.96 339.27 328.86 333.63 332.99 339.27 324.96 339.27"/><polygon class="cls-9" points="324.96 342.07 328.86 336.43 332.99 342.07 324.96 342.07"/><polygon class="cls-9" points="324.96 344.83 328.86 339.19 332.99 344.83 324.96 344.83"/><rect class="cls-4" x="331.07" y="389.03" width="1.79" height="5.88" rx="0.82" ry="0.82"/><ellipse class="cls-13" cx="332.07" cy="394.89" rx="3.69" ry="0.34"/><polygon class="cls-6" points="328.19 385.72 332.09 380.08 336.23 385.72 328.19 385.72"/><polygon class="cls-6" points="328.19 388.52 332.09 382.88 336.23 388.52 328.19 388.52"/><polygon class="cls-6" points="328.19 391.28 332.09 385.64 336.23 391.28 328.19 391.28"/><rect class="cls-9" x="308.34" y="388.83" width="1.79" height="5.88" rx="0.82" ry="0.82"/><ellipse class="cls-6" cx="309.34" cy="394.69" rx="3.69" ry="0.34"/><polygon class="cls-1" points="305.47 385.51 309.36 379.88 313.5 385.51 305.47 385.51"/><polygon class="cls-1" points="305.47 388.31 309.36 382.68 313.5 388.31 305.47 388.31"/><polygon class="cls-1" points="305.47 391.08 309.36 385.44 313.5 391.08 305.47 391.08"/><path class="cls-6" d="M544.52,443.64h0a.67.67,0,0,0-.06.2L542.09,467a.61.61,0,0,0,.55.67h0a.61.61,0,0,0,.67-.55L545.69,444a.61.61,0,0,1,.69-.39S545.1,442.42,544.52,443.64Z" transform="translate(-219.63 -88.87)"/><path class="cls-6" d="M561.72,443.62h0a.67.67,0,0,1,.06.2L564.14,467a.61.61,0,0,1-.55.67h0a.61.61,0,0,1-.67-.55L560.54,444a.61.61,0,0,0-.69-.39S561.13,442.4,561.72,443.62Z" transform="translate(-219.63 -88.87)"/><rect class="cls-6" x="537.4" y="452.6" width="19.23" height="1.35" rx="0.63" ry="0.63" transform="translate(718.66 -228.54) rotate(83.77)"/><rect class="cls-6" x="549.56" y="452.55" width="19.23" height="1.35" rx="0.63" ry="0.63" transform="translate(842.33 -150.72) rotate(95.28)"/><rect class="cls-1" x="324.95" y="354.64" width="17.07" height="1.23" rx="0.56" ry="0.56"/><rect class="cls-1" x="330.15" y="354.39" width="0.61" height="15.07" rx="0.31" ry="0.31"/><rect class="cls-1" x="336.19" y="354.42" width="0.61" height="15.07" rx="0.31" ry="0.31"/><polygon class="cls-6" points="330.15 369.16 329.67 371.41 329.97 371.54 330.64 369.63 331.15 369.63 330.76 369.16 330.15 369.16"/><polygon class="cls-6" points="335.75 369.66 336.19 369.02 336.8 369.03 337.23 371.24 336.86 371.41 336.42 369.66 335.75 369.66"/><path class="cls-1" d="M549.3,460.3s4.1,1.76,7.56-.19l-.81-1.58-5.28,0h-.5Z" transform="translate(-219.63 -88.87)"/><rect class="cls-1" x="369.58" y="373.25" width="1.79" height="5.88" rx="0.82" ry="0.82"/><ellipse class="cls-4" cx="370.58" cy="379.11" rx="3.69" ry="0.34"/><polygon class="cls-13" points="366.7 369.93 370.6 364.3 374.73 369.93 366.7 369.93"/><polygon class="cls-13" points="366.7 372.73 370.6 367.1 374.73 372.73 366.7 372.73"/><polygon class="cls-13" points="366.7 375.5 370.6 369.86 374.73 375.5 366.7 375.5"/><rect class="cls-6" x="369.7" y="345.3" width="1.79" height="5.88" rx="0.82" ry="0.82"/><ellipse class="cls-1" cx="370.7" cy="351.16" rx="3.69" ry="0.34"/><polygon class="cls-4" points="366.82 341.99 370.72 336.35 374.85 341.99 366.82 341.99"/><polygon class="cls-4" points="366.82 344.79 370.72 339.15 374.85 344.79 366.82 344.79"/><polygon class="cls-4" points="366.82 347.55 370.72 341.92 374.85 347.55 366.82 347.55"/><path class="cls-1" d="M387.53,129.81s3.61-.94,5.34-7.38h18.06s.63,5.18,5.18,7.38v-4.24h11l0,4.55s4.4-.94,6,3.3l-68.78-.16s.63-5.18,11.62-3l-.09-5,11.61-.06Z" transform="translate(-219.63 -88.87)"/><path class="cls-1" d="M364.05,135.33h69l.36,34.31s.72,4.78-6,5.62a65.08,65.08,0,0,1-14.11-.12s-11.72,7.53-22.71-.36l-18.65.12s-7.53,1.08-8-7.41S364.05,135.33,364.05,135.33Z" transform="translate(-219.63 -88.87)"/><path class="cls-2" d="M374.46,141.71s4.13-3.61,1.72-3.61-6.19,1-6.19,4.47.52,27.86.52,27.86h4Z" transform="translate(-219.63 -88.87)"/><circle class="cls-2" cx="182.47" cy="66.49" r="18.11"/><circle class="cls-1" cx="182.47" cy="66.61" r="12.63"/><circle class="cls-2" cx="182.52" cy="66.76" r="10.42"/><circle class="cls-1" cx="182.51" cy="66.74" r="9.68"/><circle class="cls-2" cx="206.91" cy="51.57" r="1.95"/><rect class="cls-2" x="201.51" y="76.52" width="7.67" height="4.06"/><ellipse class="cls-21" cx="508.04" cy="407.76" rx="6.3" ry="4.99" transform="translate(-193.25 757.49) rotate(-81.07)"/><ellipse class="cls-21" cx="526.64" cy="408.72" rx="5.37" ry="5.15" transform="translate(-178.49 776.68) rotate(-81.07)"/><polyline class="cls-21" points="288.07 318.64 291.32 311.3 304.98 311.38 307.46 319.32 299.94 319.32"/><circle class="cls-1" cx="307.46" cy="319.4" r="0.76"/><circle class="cls-1" cx="298.97" cy="319.32" r="1.27"/><line class="cls-21" x1="298.2" y1="319.32" x2="293.34" y2="311.29"/><line class="cls-21" x1="298.86" y1="319.12" x2="304.98" y2="311.38"/><line class="cls-21" x1="291.76" y1="311.3" x2="291.76" y2="308"/><ellipse class="cls-1" cx="511.74" cy="396.7" rx="0.56" ry="2.89" transform="translate(-267.37 633.75) rotate(-68.01)"/><path class="cls-1" d="M524.24,400.25v-.83h1.23a.67.67,0,0,0,.69-.66c0-.36-.35-.74-1.71-.74a.82.82,0,0,0-.58.25,1.32,1.32,0,0,1-1,.37c-.89,0-2.66.42-1.51.62a11.43,11.43,0,0,0,2.32.12v.79Z" transform="translate(-219.63 -88.87)"/><ellipse class="cls-22" cx="452.44" cy="408.08" rx="6.3" ry="4.99" transform="translate(-240.53 702.84) rotate(-81.07)"/><ellipse class="cls-22" cx="471.05" cy="409.04" rx="5.37" ry="5.15" transform="translate(-225.77 722.04) rotate(-81.07)"/><polyline class="cls-22" points="232.48 318.96 235.72 311.62 249.39 311.7 251.86 319.64 244.35 319.64"/><circle class="cls-6" cx="251.86" cy="319.72" r="0.76"/><circle class="cls-6" cx="243.37" cy="319.64" r="1.27"/><line class="cls-22" x1="242.61" y1="319.64" x2="237.74" y2="311.62"/><line class="cls-22" x1="243.26" y1="319.44" x2="249.39" y2="311.7"/><line class="cls-22" x1="236.16" y1="311.62" x2="236.16" y2="308.32"/><ellipse class="cls-6" cx="456.14" cy="397.02" rx="0.56" ry="2.89" transform="translate(-302.44 582.4) rotate(-68.01)"/><path class="cls-6" d="M468.65,400.57v-.83h1.23a.67.67,0,0,0,.69-.66c0-.36-.35-.74-1.71-.74a.82.82,0,0,0-.58.25,1.32,1.32,0,0,1-1,.37c-.89,0-2.66.42-1.51.62a11.43,11.43,0,0,0,2.32.12v.79Z" transform="translate(-219.63 -88.87)"/><rect class="cls-2" x="345.41" y="407.25" width="0.61" height="23.25" rx="0.31" ry="0.31" transform="translate(-198.86 -105.18) rotate(2.79)"/><rect class="cls-7" x="345.94" y="408.56" width="4.12" height="1.5" rx="0.75" ry="0.75" transform="translate(-199.32 -105.31) rotate(2.79)"/><rect class="cls-7" x="348.05" y="409.75" width="3.66" height="1.44" rx="0.72" ry="0.72" transform="translate(-199.26 -105.4) rotate(2.79)"/><rect class="cls-7" x="349.93" y="410.79" width="3.95" height="1.36" rx="0.68" ry="0.68" transform="translate(-199.21 -105.49) rotate(2.79)"/><path class="cls-9" d="M344.58,427.09c-1.82-8,.87-16.9.87-16.9l-15.06,15.06Z" transform="translate(-219.63 -88.87)"/><path class="cls-9" d="M346.18,427.26l8.46.37s-7.57-8.06-7.81-11.66Z" transform="translate(-219.63 -88.87)"/><polygon class="cls-13" points="130.84 341.35 132.27 339.88 138.47 340.07 138.97 341.83 130.84 341.35"/><path class="cls-13" d="M326.6,426.57s14.19,3.63,20.86,3.9,13.18.84,13.18.84l-3.19,3.13-25.68-1.3Z" transform="translate(-219.63 -88.87)"/><circle class="cls-6" cx="330.85" cy="429.48" r="0.78" transform="translate(-333.84 650.19) rotate(-87.21)"/><path class="cls-4" d="M294.8,437.4s6.07-14,18.32-3.26c0,0,3.6,3.71,9.33.22,5.48-3.33,8.49-6.87,17-.89a7.59,7.59,0,0,0,5.91,1.32l.56-.14A8.44,8.44,0,0,0,349,433c1.93-1.62,7.71-5.57,14.08-1.34a14.21,14.21,0,0,1,3.63,3.6l1.79,2.5Z" transform="translate(-219.63 -88.87)"/><path class="cls-3" d="M309.51,437.46s6.07-14,18.32-3.26c0,0,3.6,3.71,9.33.22,5.48-3.33,8.49-6.87,17-.89a7.59,7.59,0,0,0,5.91,1.32l.56-.14a8.44,8.44,0,0,0,3.08-1.7c1.93-1.62,7.71-5.57,14.08-1.34a14.21,14.21,0,0,1,3.63,3.6l1.79,2.5Z" transform="translate(-219.63 -88.87)"/><rect class="cls-16" x="313.32" y="371.84" width="0.61" height="23.25" rx="0.31" ry="0.31" transform="translate(425.9 662.36) rotate(177.21)"/><rect class="cls-9" x="309.28" y="373.15" width="4.12" height="1.5" rx="0.75" ry="0.75" transform="translate(420.87 643.35) rotate(177.21)"/><rect class="cls-9" x="307.64" y="374.34" width="3.66" height="1.44" rx="0.72" ry="0.72" transform="translate(417.17 645.76) rotate(177.21)"/><rect class="cls-9" x="305.46" y="375.39" width="3.95" height="1.36" rx="0.68" ry="0.68" transform="translate(413.16 647.87) rotate(177.21)"/><path class="cls-10" d="M314.76,391.68c1.82-8-.87-16.9-.87-16.9l15.06,15.06Z" transform="translate(-219.63 -88.87)"/><path class="cls-10" d="M313.16,391.85l-8.46.37s7.57-8.06,7.81-11.66Z" transform="translate(-219.63 -88.87)"/><polygon class="cls-17" points="89.24 305.94 87.81 304.47 81.6 304.66 81.11 306.43 89.24 305.94"/><path class="cls-17" d="M332.74,391.16s-14.19,3.63-20.86,3.9-13.18.84-13.18.84L301.9,399l25.68-1.3Z" transform="translate(-219.63 -88.87)"/><circle class="cls-13" cx="328.49" cy="394.07" r="0.78" transform="translate(-238.4 -72.43) rotate(-2.79)"/><path class="cls-4" d="M258.12,404.09s8.17-18.92,24.67-4.39c0,0,4.84,5,12.56.3,7.38-4.48,11.44-9.24,22.88-1.2a10.22,10.22,0,0,0,8,1.77l.75-.19a11.36,11.36,0,0,0,4.14-2.28c2.6-2.18,10.37-7.5,19-1.81a19.14,19.14,0,0,1,4.89,4.85l2.41,3.36Z" transform="translate(-219.63 -88.87)"/><path class="cls-3" d="M277.89,404.16s8.17-18.92,24.67-4.39c0,0,4.84,5,12.56.3,7.38-4.48,11.44-9.24,22.88-1.2a10.22,10.22,0,0,0,8,1.77l.75-.19a11.36,11.36,0,0,0,4.14-2.28c2.6-2.18,10.37-7.5,19-1.81a19.14,19.14,0,0,1,4.89,4.85l2.41,3.36Z" transform="translate(-219.63 -88.87)"/></svg>