<svg id="Calque_1" data-name="Calque 1" xmlns="http://www.w3.org/2000/svg" viewBox="0 0 358.86 347.11"><defs><style>.cls-1{fill:#a5a9f6;}.cls-2{fill:#f5b37b;}.cls-3{fill:#d88caa;}.cls-4{fill:#392ea3;}.cls-5{fill:#65ada5;}.cls-6{fill:#fffff9;}.cls-7{fill:#333e9c;}.cls-8{fill:#31cfff;}.cls-9{fill:#4900d6;}.cls-10{fill:#6faf00;}</style></defs><title>HyblabPictoHabitat</title><circle class="cls-1" cx="191.41" cy="167.45" r="167.45"/><path class="cls-2" d="M481.52,175.5h79.35s-1.19-11.34-13.72-6.56c0,0-6.86-14-22.08-6.56,0,0-19.66-20.18-37.35-2.86C487.72,159.51,481.8,164.52,481.52,175.5Z" transform="translate(-226.41 -125.22)"/><path class="cls-2" d="M371,217.25H250.73s1.81-17.19,20.8-9.95c0,0,10.4-21.26,33.47-9.95,0,0,29.8-30.6,56.63-4.33C361.63,193,370.61,200.6,371,217.25Z" transform="translate(-226.41 -125.22)"/><rect class="cls-3" x="54.11" y="196.69" width="7.75" height="67.13" rx="2.98" ry="2.98"/><path class="cls-4" d="M324,304.36a15.29,15.29,0,0,0-12.81,7.06H311a18.82,18.82,0,0,0,4.24-12c0-10.22-8-18.5-17.84-18.5a17.45,17.45,0,0,0-12.4,5.21,15.66,15.66,0,0,0-9.62-3.32,16.12,16.12,0,0,0-15.78,13.77,11.54,11.54,0,0,0-14,14.79h-13a6.18,6.18,0,0,0,0,12.36h11.84a6.52,6.52,0,0,0,2.47,12.55h76.16c.31,0,.62,0,.93,0,8.53,0,15.44-7.17,15.44-16S332.52,304.36,324,304.36Z" transform="translate(-226.41 -125.22)"/><rect class="cls-5" x="88.84" y="248.72" width="6.15" height="52.03" rx="2.34" ry="2.34"/><path class="cls-6" d="M349.72,360.33a12.2,12.2,0,0,0-10.16,5.47h-.16a14.37,14.37,0,0,0-10.78-23.6,14,14,0,0,0-9.83,4,12.65,12.65,0,0,0-20.15,8.1,9.35,9.35,0,0,0-2.41-.32,9.07,9.07,0,0,0-9.17,9,8.75,8.75,0,0,0,.47,2.83H277.22a4.79,4.79,0,1,0,0,9.58h9.39a5.07,5.07,0,0,0-3.21,4.67,5.13,5.13,0,0,0,5.18,5.06H349c.25,0,.49,0,.74,0a12.41,12.41,0,0,0,0-24.82Z" transform="translate(-226.41 -125.22)"/><rect class="cls-2" x="146.96" y="206.78" width="160.82" height="68.66"/><polygon class="cls-3" points="146.96 206.78 307.77 206.78 307.47 142.37 225.4 74.33 147.18 142.02 146.96 206.78"/><polygon class="cls-6" points="135.26 141.32 140.53 147.75 225.53 75.54 313.26 148.27 319.74 142.72 225.75 65.56 135.26 141.32"/><polygon class="cls-7" points="135.26 141.32 133.16 138.16 225.58 60.35 322.9 140.27 319.74 142.72 225.75 65.56 135.26 141.32"/><polygon class="cls-8" points="252.46 69.23 287.53 68.99 287.37 111.09 252.46 82.48 252.46 69.23"/><rect class="cls-9" x="250.99" y="66.87" width="37.58" height="2.36"/><rect class="cls-10" x="170.87" y="214.6" width="22.73" height="34.67"/><rect class="cls-5" x="171.02" y="154.04" width="22.73" height="34.67"/><rect class="cls-6" x="172.32" y="155.21" width="9.57" height="15.69"/><rect class="cls-6" x="172.39" y="171.57" width="9.57" height="15.69"/><rect class="cls-6" x="182.63" y="155.15" width="9.57" height="15.69"/><rect class="cls-6" x="182.7" y="171.52" width="9.57" height="15.69"/><rect class="cls-5" x="216.86" y="154.04" width="22.73" height="34.67"/><rect class="cls-6" x="218.15" y="155.21" width="9.57" height="15.69"/><rect class="cls-6" x="218.22" y="171.57" width="9.57" height="15.69"/><rect class="cls-6" x="228.47" y="155.15" width="9.57" height="15.69"/><rect class="cls-6" x="228.53" y="171.52" width="9.57" height="15.69"/><rect class="cls-5" x="262.86" y="154.04" width="22.73" height="34.67"/><rect class="cls-6" x="264.16" y="155.59" width="9.57" height="15.69"/><rect class="cls-6" x="264.22" y="171.96" width="9.57" height="15.69"/><rect class="cls-6" x="274.47" y="155.54" width="9.57" height="15.69"/><rect class="cls-6" x="274.54" y="171.9" width="9.57" height="15.69"/><rect class="cls-5" x="171.02" y="214.82" width="22.73" height="34.67"/><rect class="cls-6" x="172.32" y="215.98" width="9.57" height="15.69"/><rect class="cls-6" x="172.39" y="232.35" width="9.57" height="15.69"/><rect class="cls-6" x="182.63" y="215.93" width="9.57" height="15.69"/><rect class="cls-6" x="182.7" y="232.29" width="9.57" height="15.69"/><rect class="cls-5" x="262.86" y="214.82" width="22.73" height="34.67"/><rect class="cls-6" x="264.16" y="215.98" width="9.57" height="15.69"/><rect class="cls-6" x="264.22" y="232.35" width="9.57" height="15.69"/><rect class="cls-6" x="274.47" y="215.93" width="9.57" height="15.69"/><rect class="cls-6" x="274.54" y="232.29" width="9.57" height="15.69"/><rect class="cls-9" x="208.97" y="214.18" width="40.12" height="61.31"/><rect class="cls-8" x="212.36" y="216.64" width="33.72" height="58.97"/><rect class="cls-9" x="236.78" y="242.92" width="4.23" height="4.23" rx="2.12" ry="2.12"/><path class="cls-5" d="M464.5,245.69v-5.38a9.91,9.91,0,0,0-9.88-9.88h0a9.91,9.91,0,0,0-9.88,9.88v20.14h19.78V245.69Z" transform="translate(-226.41 -125.22)"/><path class="cls-6" d="M463.1,245.92v-4.76a8.64,8.64,0,0,0-8.48-8.73h0a8.64,8.64,0,0,0-8.48,8.73V259h17V245.92Z" transform="translate(-226.41 -125.22)"/><rect class="cls-3" x="132.03" y="275.31" width="194.87" height="23.5" rx="10.85" ry="10.85"/><rect class="cls-8" x="168.55" y="298.82" width="148.03" height="2.32" rx="1.13" ry="1.13"/><path class="cls-7" d="M284.95,472.33l244.9-.56s.57-32.78-39.34-21.11c0,0-11.28-36.2-71.37-26.89,0,0-39.95-43.58-93.21-16.3S284.95,472.33,284.95,472.33Z" transform="translate(-226.41 -125.22)"/></svg>