<svg id="Calque_1" data-name="Calque 1" xmlns="http://www.w3.org/2000/svg" viewBox="0 0 339.38 347.11"><defs><style>.cls-1{fill:#a5a9f6;}.cls-2{fill:#f5b37b;}.cls-3{fill:#31cfff;}.cls-4{fill:#333e9c;}.cls-5{fill:#d88caa;}</style></defs><title>HyblabPictoboulot</title><circle class="cls-1" cx="169.33" cy="167.45" r="167.45"/><path class="cls-2" d="M461.67,183.31H574.6s-1.7-16.13-19.53-9.34c0,0-9.76-20-31.42-9.34,0,0-28-28.72-53.16-4.07C470.49,160.57,462.06,167.69,461.67,183.31Z" transform="translate(-262.21 -123.3)"/><path class="cls-2" d="M411.19,223H264.45s2.21-21,25.38-12.14c0,0,12.69-25.93,40.82-12.14,0,0,36.35-37.32,69.07-5.28C399.72,193.43,410.68,202.69,411.19,223Z" transform="translate(-262.21 -123.3)"/><rect class="cls-3" x="274.09" y="238.75" width="16.54" height="14.5" rx="2.84" ry="2.84"/><rect class="cls-3" x="256.46" y="238.75" width="16.54" height="14.5" rx="2.84" ry="2.84"/><rect class="cls-2" x="7.1" y="218.4" width="323.74" height="16.49"/><rect class="cls-4" x="7.06" y="216.05" width="323.78" height="2.24"/><rect class="cls-4" x="7.11" y="234.88" width="10.68" height="23.46"/><rect class="cls-4" x="320.19" y="234.9" width="10.68" height="23.46"/><ellipse class="cls-4" cx="264.73" cy="246.01" rx="4.35" ry="4.25"/><ellipse class="cls-4" cx="282.35" cy="246" rx="4.35" ry="4.25"/><ellipse class="cls-2" cx="280.91" cy="245.97" rx="0.91" ry="0.89"/><ellipse class="cls-2" cx="284.1" cy="245.97" rx="0.91" ry="0.89"/><rect class="cls-5" x="107" y="124.28" width="120.4" height="79.29" rx="5.4" ry="5.4"/><ellipse class="cls-4" cx="167.38" cy="163.93" rx="8.88" ry="8.69"/><rect class="cls-4" x="153.47" y="201.18" width="28.3" height="13.05"/><rect class="cls-5" x="140.78" y="214.08" width="54.6" height="1.98"/><rect class="cls-3" x="13.94" y="134.37" width="14.21" height="81.65"/><rect class="cls-5" x="28.12" y="149.81" width="8.84" height="66.23"/><rect class="cls-2" x="36.71" y="134.24" width="11.38" height="81.85"/><rect class="cls-4" x="48.19" y="149.86" width="9.04" height="66.14"/><polygon class="cls-3" points="52.94 133.93 64.44 133.93 87.99 216.04 75.41 216.04 52.94 133.93"/><path class="cls-3" d="M486.78,339.37s1.8-8.78,12.71-7.9,11.07,7.9,11.07,7.9Z" transform="translate(-262.21 -123.3)"/><path class="cls-4" d="M550.16,314.82s7.19-.69,8.83,4.21,2.34,13.46-8.91,13.46l.16-2.52s6.41.84,7.43-5.12-3.36-8.26-7.43-7.8Z" transform="translate(-262.21 -123.3)"/><rect class="cls-2" x="259.99" y="183.98" width="28.06" height="32.15"/><rect class="cls-4" x="258.08" y="181.35" width="32.05" height="3.14" rx="1.57" ry="1.57"/><rect class="cls-5" y="256.26" width="339.38" height="38.47" rx="15.03" ry="15.03"/><rect class="cls-3" x="17.21" y="294.74" width="304.17" height="4.29" rx="1.71" ry="1.71"/><path class="cls-4" d="M298.67,470.41l244.9-.56s.57-32.78-39.34-21.11c0,0-11.28-36.2-71.37-26.89,0,0-39.95-43.58-93.21-16.3S298.67,470.41,298.67,470.41Z" transform="translate(-262.21 -123.3)"/></svg>