<?xml version="1.0" encoding="utf-8"?>
<!-- Generator: Adobe Illustrator 25.1.0, SVG Export Plug-In . SVG Version: 6.00 Build 0)  -->
<svg version="1.1" id="Calque_1" xmlns="http://www.w3.org/2000/svg" xmlns:xlink="http://www.w3.org/1999/xlink" x="0px" y="0px"
	 viewBox="0 0 300 300" style="enable-background:new 0 0 300 300;" xml:space="preserve">
<style type="text/css">
	.st0{fill:#2A2E6A;}
	.st1{fill:#FFFFFF;stroke:#4C343C;stroke-width:0.75;stroke-miterlimit:10;}
	.st2{fill:#FFFFFF;}
	.st3{fill:#FCD9BB;}
	.st4{fill:#4C343C;}
	.st5{fill:#222122;}
	.st6{fill:#EA4F50;}
	.st7{fill:none;stroke:#222122;stroke-miterlimit:10;}
	.st8{fill:#161617;}
</style>
<circle class="st0" cx="143.27" cy="192.07" r="67.01"/>
<polygon class="st1" points="116.7,178.26 98.5,196.79 93.25,209.42 86.65,207.48 77.21,205.16 70.53,209.42 66.64,217.69 
	74.39,231.21 84.14,239.58 102.57,248.96 111.73,249.69 117.34,246.29 120.09,239.27 167.6,240.65 170.4,247.71 175.38,249.06 
	201.49,240.97 215.3,225.55 219.07,213.97 214.11,205.65 203.3,206.2 195.86,209.42 189.62,197.68 183.2,187.16 166.88,178.76 
	149.85,180.95 123.07,179.25 "/>
<polygon class="st1" points="129.36,179.42 161.41,180.36 179.02,173.41 189.85,161.37 193.22,146.01 188.89,123.52 179.85,110.13 
	164.93,98.87 148.89,95.22 134.19,96.27 117.07,102.44 104.57,116.22 98.55,129.52 95.8,145.42 101.38,164.39 111.95,174.44 "/>
<polygon class="st1" points="118.89,102.44 129.95,96.04 127.58,81.8 121.95,65.34 113.19,48.33 100.83,37.58 86.65,34.4 74.92,41 
	68.23,50.11 64.06,64.55 63.33,71.93 62.59,81.22 64.45,88.82 68.07,91.56 81.18,88.01 88.94,82.79 96.27,84.39 103.78,89.14 
	111.66,96.27 "/>
<polygon class="st2" points="167.37,100.88 156.31,94.48 158.68,80.24 164.31,63.78 173.07,46.77 185.43,36.02 199.61,32.84 
	211.34,39.44 218.03,48.55 222.2,62.99 222.94,70.37 223.67,79.66 221.82,87.26 218.19,90 205.08,86.45 197.32,81.23 189.99,82.83 
	182.48,87.58 174.6,94.71 "/>
<g>
	<g>
		<path class="st3" d="M123.49,99.89c0,0-12.77-35.68-25.22-42.51l-2.16,13.92l-2.96,7.78l-0.45,1.82l7.1,2.61l12.49,10.3l5.53,8.2
			L123.49,99.89z"/>
		<path class="st3" d="M162.96,99.89c0,0,12.77-37.55,25.22-44.38l2.16,15.79l2.96,7.78l0.45,1.82l-7.1,2.61l-12.49,10.3l-5.53,8.2
			L162.96,99.89z"/>
		<g>
			<path class="st3" d="M193.66,137.99c-0.19-0.88-0.16-1.81,0.1-2.67c-1.89-1.87-2.55-4.34-3.13-6.94
				c-0.81-3.61-2.28-7.07-3.8-10.43c-2.34-5.19-5.24-10.76-10.94-12.4c6.08,7.51,12.57,20.59,11.63,41.79
				c-1.44,32.6-54.72,30.4-72.82,28.7c2.23,1.03,4.64,1.88,7.02,2.11c1.54,0.15,2.93,0.84,3.78,1.98c0.53,0.07,1.01,0.22,1.43,0.43
				c0.25-0.04,0.5-0.06,0.77-0.06c0.83,0,1.53,0.19,2.13,0.5c4.39-0.46,8.72,0.47,13.11,0.55c0.37,0.01,0.71,0.05,1.03,0.12
				c0.24-0.04,0.48-0.06,0.72-0.07c2.7-0.02,5.4-0.19,8.1-0.22c0.54-0.23,1.16-0.36,1.86-0.36c0.44,0,0.85,0.06,1.22,0.15
				c0.49-0.17,1.03-0.28,1.64-0.28c0.34,0,0.65,0.03,0.95,0.09c4.39-1.54,8.75-2.93,13.35-3.6l8.18-3.96
				c0.36-2.05,1.88-3.86,4.56-3.87c0-0.01,0.01-0.01,0.01-0.02c2.4-3.63,5.75-7.08,6.96-11.34c0.26-0.9,0.68-1.6,1.22-2.12
				l1.64-12.16C192.95,142.37,192.71,139.86,193.66,137.99z"/>
			<g>
				<path class="st3" d="M192.53,207.48c0,0-21.31,7.38-24.71,17.44c0.16-0.62,0.24-2.28-2.37-4.66
					c-3.65-3.34,3.96-13.53,6.22-16.31l-0.44,0.4c0.26-0.54,0.44-0.85,0.44-0.85l-1.17,1.14h0.41l-12.43,11.38l-5.11,3.05
					l-7.08-1.89l-3-2.88v-0.09l-0.05,0.04l-0.05-0.04v0.09l-3,2.88l-7.08,1.89l-5.11-3.05l-12.43-11.38H116l-1.17-1.14
					c0,0,0.18,0.31,0.44,0.85l-0.44-0.4c2.26,2.78,9.87,12.97,6.22,16.31c-2.61,2.38-2.53,4.04-2.37,4.66
					c-3.39-10.06-24.71-17.44-24.71-17.44l-0.73,4.41l12.56,8.67l9.18,10.06l4.37,7.72l23.85,0.22v0l0.05,0l0.05,0v0l23.85-0.22
					l4.37-7.72l9.18-10.06l12.56-8.67L192.53,207.48z"/>
				<g>
					<g>
						<path class="st3" d="M95.88,226.45c0.57,0.14,1.12,0.34,1.64,0.6c4.05,2.03,7.57,5.11,10.12,8.86
							c0.53,0.78,1.03,1.61,1.25,2.53c0.22,0.92,0.14,1.95-0.42,2.72c-0.6,0.83-1.67,1.23-2.7,1.25s-2.03-0.29-3-0.62
							c-4.07-1.41-8.08-3.5-10.7-6.93c-1.11-1.45-1.96-3.22-1.8-5.03C90.55,226.55,93.32,225.82,95.88,226.45z"/>
					</g>
					<g>
						<g>
							<path class="st3" d="M78.99,210.68c0.29,0.02,0.58,0.07,0.86,0.15c2.18,0.63,4.19,1.83,5.78,3.44
								c0.33,0.34,0.65,0.7,0.84,1.13c0.19,0.43,0.24,0.95,0.04,1.38c-0.22,0.46-0.71,0.76-1.21,0.86c-0.5,0.1-1.02,0.04-1.53-0.03
								c-2.13-0.32-4.29-0.99-5.89-2.43c-0.68-0.61-1.25-1.4-1.34-2.31C76.38,211.22,77.68,210.6,78.99,210.68z"/>
						</g>
						<g>
							<path class="st3" d="M74.69,215.5c0.21,0.01,0.41,0.05,0.61,0.1c1.54,0.44,2.96,1.29,4.08,2.43c0.23,0.24,0.46,0.49,0.6,0.8
								c0.14,0.31,0.17,0.67,0.03,0.97c-0.16,0.33-0.5,0.53-0.86,0.61c-0.36,0.07-0.72,0.03-1.08-0.02c-1.5-0.23-3.03-0.7-4.16-1.72
								c-0.48-0.43-0.89-0.99-0.95-1.63C72.84,215.88,73.76,215.45,74.69,215.5z"/>
						</g>
						<g>
							<path class="st3" d="M75.53,221.79c0.14,0.01,0.27,0.03,0.4,0.07c1.01,0.29,1.94,0.85,2.68,1.6c0.15,0.16,0.3,0.33,0.39,0.53
								s0.11,0.44,0.02,0.64c-0.1,0.22-0.33,0.35-0.56,0.4s-0.48,0.02-0.71-0.02c-0.99-0.15-1.99-0.46-2.73-1.13
								c-0.31-0.28-0.58-0.65-0.62-1.07C74.32,222.04,74.92,221.75,75.53,221.79z"/>
						</g>
					</g>
					<g>
						<g>
							<path class="st3" d="M206.14,210.68c-0.29,0.02-0.58,0.07-0.86,0.15c-2.18,0.63-4.19,1.83-5.78,3.44
								c-0.33,0.34-0.65,0.7-0.84,1.13c-0.19,0.43-0.24,0.95-0.04,1.38c0.22,0.46,0.71,0.76,1.21,0.86c0.5,0.1,1.02,0.04,1.53-0.03
								c2.13-0.32,4.29-0.99,5.89-2.43c0.68-0.61,1.25-1.4,1.34-2.31C208.75,211.22,207.45,210.6,206.14,210.68z"/>
						</g>
						<g>
							<path class="st3" d="M210.45,215.5c-0.21,0.01-0.41,0.05-0.61,0.1c-1.54,0.44-2.96,1.29-4.08,2.43
								c-0.23,0.24-0.46,0.49-0.6,0.8c-0.14,0.31-0.17,0.67-0.03,0.97c0.16,0.33,0.5,0.53,0.86,0.61c0.36,0.07,0.72,0.03,1.08-0.02
								c1.5-0.23,3.03-0.7,4.16-1.72c0.48-0.43,0.89-0.99,0.95-1.63C212.29,215.88,211.37,215.45,210.45,215.5z"/>
						</g>
						<g>
							<path class="st3" d="M209.6,221.79c-0.14,0.01-0.27,0.03-0.4,0.07c-1.01,0.29-1.94,0.85-2.68,1.6
								c-0.15,0.16-0.3,0.33-0.39,0.53c-0.09,0.2-0.11,0.44-0.02,0.64c0.1,0.22,0.33,0.35,0.56,0.4c0.23,0.05,0.48,0.02,0.71-0.02
								c0.99-0.15,1.99-0.46,2.73-1.13c0.31-0.28,0.58-0.65,0.62-1.07C210.81,222.04,210.21,221.75,209.6,221.79z"/>
						</g>
					</g>
					<g>
						<path class="st3" d="M189.28,226.45c-0.57,0.14-1.12,0.34-1.64,0.6c-4.05,2.03-7.57,5.11-10.12,8.86
							c-0.53,0.78-1.03,1.61-1.25,2.53c-0.22,0.92-0.14,1.95,0.42,2.72c0.6,0.83,1.67,1.23,2.7,1.25s2.03-0.29,3-0.62
							c4.07-1.41,8.08-3.5,10.7-6.93c1.11-1.45,1.96-3.22,1.8-5.03C194.61,226.55,191.84,225.82,189.28,226.45z"/>
					</g>
				</g>
			</g>
		</g>
	</g>
</g>
<path class="st4" d="M130.58,155.02"/>
<g>
	<g>
		<g>
			<path class="st5" d="M125.77,192.42c4.44,4.44,8.97,8.82,13.34,13.34c2.02,2.09,2.41,5.27,0.82,7.74
				c-1.57,2.45-4.77,3.43-7.47,2.37c-1.32-0.52-2.24-1.54-3.21-2.52c-1.38-1.38-2.75-2.75-4.13-4.13c-2.63-2.63-5.25-5.25-7.88-7.88
				c-1.71-1.71-4.36,0.94-2.65,2.65c2.48,2.48,4.96,4.96,7.44,7.44c1.5,1.5,3.01,3.01,4.51,4.51c1.26,1.26,2.49,2.48,4.16,3.22
				c3.47,1.53,7.48,0.96,10.41-1.44c2.86-2.34,4.08-6.18,3.33-9.77c-0.83-3.96-4.64-6.83-7.36-9.56c-2.88-2.88-5.77-5.77-8.65-8.65
				C126.72,188.06,124.06,190.71,125.77,192.42L125.77,192.42z"/>
		</g>
	</g>
	<g>
		<g>
			<path class="st5" d="M152.67,195.46c-2.24,2.24-4.49,4.49-6.73,6.73c-1.34,1.34-2.51,2.69-3.2,4.49c-1.1,2.86-0.73,6.3,0.98,8.86
				c3.5,5.24,10.86,5.94,15.36,1.58c2.1-2.03,4.14-4.14,6.2-6.2c2.31-2.31,4.61-4.61,6.92-6.92c1.71-1.71-0.94-4.36-2.65-2.65
				c-4.06,4.06-8.12,8.12-12.17,12.17c-0.71,0.71-1.38,1.45-2.26,1.96c-2.16,1.25-4.95,1.05-6.92-0.51
				c-1.93-1.53-2.77-4.13-2.11-6.5c0.4-1.44,1.32-2.45,2.34-3.47c2.3-2.3,4.6-4.6,6.9-6.9C157.03,196.4,154.37,193.75,152.67,195.46
				L152.67,195.46z"/>
		</g>
	</g>
	<g>
		<g>
			<path class="st5" d="M169.81,224.08c-0.12-0.59-0.39-1.17-0.63-1.71c-0.51-1.1-1.27-2.13-2.17-2.93
				c-0.7-0.62-1.48-1.16-2.34-1.54c-0.48-0.21-0.92-0.33-1.44-0.19c-0.43,0.12-0.91,0.46-1.12,0.86c-0.23,0.44-0.35,0.96-0.19,1.44
				c0.14,0.44,0.43,0.93,0.86,1.12c0.56,0.25,1.09,0.56,1.57,0.93c-0.13-0.1-0.25-0.2-0.38-0.29c0.5,0.39,0.94,0.83,1.33,1.33
				c-0.1-0.13-0.2-0.25-0.29-0.38c0.42,0.54,0.77,1.13,1.03,1.76c-0.06-0.15-0.13-0.3-0.19-0.45c0.14,0.34,0.27,0.69,0.35,1.04
				c0.09,0.44,0.48,0.9,0.86,1.12c0.4,0.24,0.99,0.33,1.44,0.19c0.45-0.15,0.89-0.43,1.12-0.86
				C169.87,225.06,169.91,224.59,169.81,224.08L169.81,224.08z"/>
		</g>
	</g>
	<g>
		<g>
			<path class="st5" d="M119.56,225.07c0.07-0.36,0.21-0.71,0.35-1.04c-0.06,0.15-0.13,0.3-0.19,0.45c0.27-0.63,0.62-1.22,1.03-1.76
				c-0.1,0.13-0.2,0.25-0.29,0.38c0.39-0.5,0.83-0.94,1.33-1.33c-0.13,0.1-0.25,0.2-0.38,0.29c0.49-0.37,1.01-0.68,1.57-0.93
				c0.4-0.18,0.75-0.72,0.86-1.12c0.12-0.45,0.07-1.05-0.19-1.44c-0.26-0.4-0.64-0.75-1.12-0.86c-0.17-0.02-0.33-0.04-0.5-0.07
				c-0.34,0-0.65,0.09-0.95,0.26c-2.4,1.07-4.21,3.24-5.01,5.71c-0.05,0.15-0.1,0.31-0.13,0.47c-0.1,0.5-0.07,1,0.19,1.44
				c0.23,0.39,0.67,0.76,1.12,0.86c0.48,0.11,1.02,0.09,1.44-0.19C119.1,225.94,119.47,225.55,119.56,225.07L119.56,225.07z"/>
		</g>
	</g>
	<g>
		<g>
			<g>
				<g>
					<g>
						<path class="st5" d="M168.17,179.88c2.57,1.19,5.16,2.53,7.47,4.17c0.13,0.09,0.25,0.19,0.38,0.28
							c0.22,0.16,0.07,0.06-0.08-0.06c0.12,0.09,0.24,0.19,0.36,0.28c0.58,0.47,1.15,0.95,1.71,1.45c3.9,3.5,7.21,7.64,9.77,12.22
							c2.06,3.68,3.57,7.6,4.55,11.69c0.56,2.35,4.18,1.35,3.62-1c-2.61-10.87-9.12-21.23-18.16-27.92
							c-2.36-1.75-5.06-3.13-7.72-4.36C167.88,175.64,165.97,178.87,168.17,179.88L168.17,179.88z"/>
					</g>
				</g>
				<g>
					<g>
						<path class="st5" d="M166.88,237.58c-8,0.72-16.04,0.32-24.06,0.33c-7.97,0.01-15.92,0.37-23.86-0.51
							c-1.01-0.11-1.88,0.94-1.88,1.88c0,1.11,0.86,1.76,1.88,1.88c7.94,0.88,15.89,0.53,23.86,0.51
							c8.02-0.01,16.06,0.39,24.06-0.33C169.26,241.11,169.29,237.36,166.88,237.58L166.88,237.58z"/>
					</g>
				</g>
				<g>
					<g>
						<path class="st5" d="M119.59,175.8c-4.59,1.81-8.9,4.21-12.58,7.5c-4.32,3.86-8,8.55-10.76,13.65
							c-2.21,4.08-3.84,8.46-4.82,13c-0.51,2.35,3.11,3.36,3.62,1c1.49-6.9,4.54-13.43,8.94-18.96c1.53-1.92,3.2-3.74,5-5.42
							c0.62-0.58,1.25-1.14,1.9-1.67c0.23-0.19,0.46-0.38,0.7-0.56c0.26-0.21-0.37,0.27-0.04,0.04c0.09-0.07,0.18-0.14,0.27-0.2
							c2.7-1.93,5.69-3.54,8.77-4.75c0.94-0.37,1.6-1.26,1.31-2.31C121.65,176.21,120.55,175.42,119.59,175.8L119.59,175.8z"/>
					</g>
				</g>
				<g>
					<g>
						<path class="st5" d="M82.55,208.01c4.49,1.15,8.64,3.81,12.43,6.4c3.85,2.63,7.41,5.65,10.67,8.98
							c3.22,3.3,6.17,6.9,8.63,10.79c2.13,3.37,4.4,8.82,0.63,11.97c-3.77,3.15-9.32,1.18-13.37-0.25
							c-4.33-1.53-8.55-3.35-12.57-5.59c-3.97-2.21-7.71-4.83-10.97-8.01c-3.3-3.22-6.4-7.09-7.76-11.56
							c-1.15-3.79-1.02-8.92,2.46-11.52C75.48,207.15,79.35,207.25,82.55,208.01c2.35,0.55,3.35-3.06,1-3.62
							c-3.82-0.9-7.97-0.94-11.54,0.87c-3.86,1.96-5.78,5.98-6.12,10.15c-0.47,5.66,2.31,11.02,5.71,15.35
							c3.21,4.09,7.18,7.51,11.51,10.37c4.38,2.9,9.14,5.17,14.02,7.1c5.02,1.98,10.82,4.4,16.27,2.82c5.36-1.56,8-6.54,7.06-11.92
							c-0.91-5.21-4.79-9.89-8.07-13.86c-3.78-4.58-8.11-8.65-12.86-12.21c-4.73-3.55-10.18-7.19-15.97-8.67
							C81.21,203.8,80.21,207.41,82.55,208.01z"/>
					</g>
				</g>
				<g>
					<g>
						<path class="st5" d="M202.8,204.39c-5.18,1.32-10.01,4.41-14.33,7.47c-4.34,3.07-8.37,6.58-11.96,10.49
							c-3.56,3.88-7.27,8.29-9.43,13.14c-2.14,4.81-1.98,10.76,2.65,14.05c4.7,3.32,10.71,1.86,15.69,0.11
							c5.01-1.76,9.94-3.85,14.55-6.5c4.55-2.61,8.84-5.79,12.43-9.64c3.64-3.9,6.97-8.67,7.85-14.04
							c0.82-5.02-0.43-10.48-4.76-13.53C211.85,203.4,206.96,203.41,202.8,204.39c-2.35,0.55-1.35,4.17,1,3.62
							c2.88-0.68,6.2-0.84,8.88,0.62c3.15,1.71,4.23,5.28,4.06,8.69c-0.24,4.72-3.03,9.05-6.05,12.51
							c-2.99,3.43-6.52,6.31-10.35,8.74c-3.94,2.49-8.15,4.52-12.48,6.21c-4.21,1.64-9.32,3.99-13.89,2.67
							c-4.62-1.33-5.29-6.07-3.64-10.05c1.75-4.22,5.02-8.09,8.02-11.48c3.4-3.83,7.21-7.33,11.36-10.34
							c4.22-3.06,8.99-6.27,14.09-7.57C206.14,207.41,205.15,203.8,202.8,204.39z"/>
					</g>
				</g>
				<g>
					<g>
						<path class="st5" d="M191.34,143.58c-0.03,8.51-2.04,17.22-8.04,23.56c-5.64,5.95-13.57,8.88-21.48,10.3
							c-4.74,0.85-9.56,1.15-14.37,1.17c-5.06,0.02-10.12,0.04-15.16-0.5c-8.13-0.86-16.69-3.04-23.22-8.21
							c-6.49-5.13-9.94-12.79-10.79-20.91c-1.05-10.02,0.76-20.33,5.71-29.15c4.66-8.3,11.85-14.95,20.5-18.94
							c4.32-1.99,9.03-3.27,13.76-3.77c4.91-0.51,10.11-0.5,14.99,0.28c9.45,1.53,18.24,6,24.95,12.83
							c6.86,6.99,11.19,16.08,12.65,25.74C191.21,138.51,191.35,141.05,191.34,143.58c-0.01,2.41,3.74,2.42,3.75,0
							c0.02-10.75-3.1-21.48-9.44-30.23c-6.05-8.36-14.61-14.66-24.44-17.85c-4.99-1.62-10.27-2.4-15.51-2.36
							c-5.34,0.04-10.54,0.36-15.71,1.8c-9.87,2.75-18.74,8.68-25.05,16.75c-6.64,8.5-10.29,18.97-10.66,29.74
							c-0.33,9.53,1.59,19.29,7.75,26.82c5.57,6.81,13.98,10.58,22.42,12.4c4.94,1.06,10.01,1.55,15.06,1.68
							c5.35,0.14,10.77,0.15,16.11-0.32c9.04-0.79,18.46-2.92,25.91-8.37c7.31-5.35,11.66-13.33,12.99-22.23
							c0.39-2.6,0.57-5.21,0.58-7.83C195.1,141.16,191.35,141.16,191.34,143.58z"/>
					</g>
				</g>
				<g>
					<g>
						<g>
							<path class="st5" d="M90.7,83.61c10.42,2.83,19.68,9.75,24.05,19.78c0.41,0.94,1.76,1.13,2.57,0.67
								c0.96-0.55,1.08-1.64,0.67-2.57c-4.74-10.86-15.05-18.45-26.3-21.5C89.36,79.36,88.37,82.98,90.7,83.61L90.7,83.61z"/>
						</g>
					</g>
					<g>
						<g>
							<path class="st5" d="M132.4,96.27c-0.88-10.17-3.47-20.46-7.16-29.94c-3.07-7.89-7.12-15.51-12.84-21.82
								c-6.5-7.17-16.04-13.31-26.09-11.69C76.83,34.34,69.47,42.65,65.73,51c-2.97,6.62-4.58,14.18-5.48,21.36
								c-0.72,5.7-1.23,13.25,2.94,17.86c5.37,5.93,15.17,1.61,20.77-1.56c6.65-3.76,11.86-9.61,14.28-16.89
								c1.32-3.96,1.86-8.35,1.39-12.52c-0.04-0.37-0.09-0.74-0.15-1.11c-0.42-2.37-4.04-1.37-3.62,1c0.11,0.63-0.03-0.48,0.02,0.17
								c0.05,0.58,0.11,1.16,0.13,1.74c0.03,0.87,0.02,1.74-0.02,2.61c-0.07,1.25-0.16,2.01-0.32,2.96
								c-1.04,6.02-3.97,11.33-8.65,15.38c-3.31,2.87-7.34,4.93-11.47,6.34c-1.59,0.54-3.22,0.99-4.85,1.04
								c-0.67,0.02-1.35-0.02-1.72-0.09c-0.27-0.05-0.54-0.12-0.8-0.2c-0.14-0.04-0.28-0.09-0.42-0.14
								c-0.52-0.19,0.3,0.16-0.19-0.08c-0.25-0.12-0.49-0.26-0.73-0.41c-0.37-0.23-0.07-0.01-0.34-0.25
								c-0.49-0.43-0.8-0.79-0.97-1.05c-0.76-1.12-0.98-1.73-1.32-3.01c-0.71-2.66-0.71-5.5-0.52-8.41
								c0.39-5.96,1.79-11.9,3.45-17.65c2.41-8.33,7.81-17.18,16.22-20.57c8.84-3.56,18.02,1.38,24.35,7.52
								c5.61,5.43,9.65,12.28,12.74,19.4c2.78,6.39,4.77,13.15,6.25,19.95c0.53,2.45,1,4.92,1.38,7.4c0.07,0.47,0.14,0.95,0.21,1.43
								c0.03,0.21,0.06,0.42,0.09,0.63c-0.07-0.48,0-0.03,0.02,0.19c0.07,0.55,0.14,1.1,0.2,1.66c0.02,0.19,0.04,0.39,0.06,0.58
								C128.86,98.66,132.61,98.68,132.4,96.27L132.4,96.27z"/>
						</g>
					</g>
				</g>
			</g>
			<g>
				<g>
					<g>
						<path class="st5" d="M171.43,101.34c4.43-9.94,13.61-16.79,23.98-19.6c2.33-0.63,1.34-4.25-1-3.62
							c-11.2,3.04-21.42,10.55-26.22,21.32c-0.42,0.93-0.26,2,0.67,2.57C169.66,102.49,171.02,102.27,171.43,101.34L171.43,101.34z"
							/>
					</g>
				</g>
				<g>
					<g>
						<path class="st5" d="M186.63,56.28c-1.76,9.85,2.69,20.57,10.25,26.87c3.74,3.11,8.09,5.36,12.68,6.93
							c3.18,1.09,6.89,1.78,10.12,0.49c5.9-2.37,6.76-9.62,6.58-15.17c-0.21-6.58-1.67-13.15-3.46-19.47
							c-2.61-9.23-8.1-18.56-16.97-22.99c-4.22-2.11-8.87-2.75-13.51-1.86c-5.36,1.02-10.25,3.98-14.37,7.46
							c-6.47,5.45-11.22,12.78-14.74,20.4c-5.03,10.9-8.17,22.89-9.44,34.83c-0.02,0.21-0.05,0.43-0.06,0.64
							c-0.21,2.4,3.54,2.39,3.75,0c0.06-0.75,0.16-1.49,0.25-2.24c0.02-0.14,0.11-0.79,0.02-0.19c0.03-0.21,0.06-0.42,0.09-0.63
							c0.07-0.48,0.14-0.95,0.21-1.43c0.18-1.15,0.37-2.29,0.58-3.43c1.18-6.42,2.84-12.77,5.06-18.9
							c2.61-7.2,6.09-14.3,10.94-20.27c5.43-6.68,13.54-13.26,22.62-12.89c8.72,0.36,15.54,7.79,19.18,15.09
							c1.71,3.41,2.73,7.09,3.66,10.77c0.77,3.05,1.43,6.14,1.89,9.25c0.44,2.97,0.69,6.11,0.5,9.15c-0.08,1.34-0.22,2.38-0.61,3.77
							c-0.34,1.22-0.59,1.87-1.37,2.96c-0.04,0.05-0.22,0.28-0.01,0.02c-0.09,0.11-0.18,0.21-0.27,0.31
							c-0.17,0.18-0.35,0.35-0.53,0.52c-0.36,0.33,0.02,0.04-0.41,0.31c-0.26,0.16-0.53,0.32-0.81,0.45
							c-0.3,0.14,0.41-0.15-0.11,0.04c-0.11,0.04-0.22,0.08-0.33,0.11c-0.29,0.09-0.59,0.16-0.89,0.22
							c-0.44,0.09-1.11,0.12-1.83,0.09c-3.89-0.16-8.03-2.1-11.41-4.03c-5.92-3.38-10.57-8.65-12.57-15.06
							c-0.76-2.44-1.08-4.33-1.21-6.62c-0.08-1.46-0.02-2.89,0.1-4.34c0.05-0.62-0.09,0.47,0.02-0.17
							C190.67,54.92,187.05,53.91,186.63,56.28L186.63,56.28z"/>
					</g>
				</g>
			</g>
		</g>
	</g>
</g>
<g>
	<g>
		<path class="st5" d="M115.92,132.55c5.06,3.04,11.44,3.04,16.5,0c2.07-1.24,0.18-4.49-1.89-3.24c-3.97,2.39-8.74,2.39-12.72,0
			C115.74,128.06,113.85,131.31,115.92,132.55L115.92,132.55z"/>
	</g>
	<g>
		<path class="st5" d="M154.9,132.55c5.06,3.04,11.44,3.04,16.5,0c2.07-1.24,0.18-4.49-1.89-3.24c-3.97,2.39-8.74,2.39-12.72,0
			C154.72,128.06,152.83,131.31,154.9,132.55L154.9,132.55z"/>
	</g>
</g>
<path class="st6" d="M135.07,166.18l0.1,1.92l5.03,1.38l6.64-0.35l4.31-1.41l-1.4-2.54c0,0-8.25-1.37-8.34-1.37
	S135.07,166.18,135.07,166.18z"/>
<ellipse class="st7" cx="142.85" cy="163.44" rx="11.64" ry="6.2"/>
<path class="st5" d="M134.75,167.89c0,0,7.51-4.74,16.21,0l1.97-1.69l1.63-2.15l-1.06-3.12l-3.41-2.34l-5.58-1.28l-8.66,1.05
	l-3.1,2.26l-1.3,1.59v2.5l1.58,2.08L134.75,167.89z"/>
<g>
	<g>
		<polyline class="st2" points="217.91,109.34 226.68,110.91 216,120.02 224.77,121.58 		"/>
		<g>
			<path class="st8" d="M217.57,110.55c2.92,0.52,5.85,1.04,8.77,1.56c-0.18-0.7-0.37-1.39-0.55-2.09
				c-3.11,2.66-6.23,5.31-9.34,7.97c-0.44,0.38-0.89,0.76-1.33,1.14c-0.68,0.58-0.35,1.93,0.55,2.09c2.92,0.52,5.85,1.04,8.77,1.56
				c0.66,0.12,1.35-0.18,1.54-0.87c0.17-0.6-0.2-1.42-0.87-1.54c-2.92-0.52-5.85-1.04-8.77-1.56c0.18,0.7,0.37,1.39,0.55,2.09
				c3.11-2.66,6.23-5.31,9.34-7.97c0.44-0.38,0.89-0.76,1.33-1.14c0.68-0.58,0.35-1.93-0.55-2.09c-2.92-0.52-5.85-1.04-8.77-1.56
				c-0.66-0.12-1.35,0.18-1.54,0.87C216.53,109.61,216.91,110.43,217.57,110.55L217.57,110.55z"/>
		</g>
	</g>
	<g>
		<polyline class="st2" points="208.3,125.63 215.97,125.63 208.3,134.97 215.97,134.97 		"/>
		<g>
			<path class="st8" d="M208.3,126.88c2.56,0,5.11,0,7.67,0c-0.29-0.71-0.59-1.42-0.88-2.13c-2.24,2.73-4.48,5.45-6.72,8.18
				c-0.32,0.39-0.64,0.77-0.95,1.16c-0.32,0.39-0.48,0.87-0.26,1.37c0.2,0.45,0.63,0.77,1.14,0.77c2.56,0,5.11,0,7.67,0
				c1.61,0,1.61-2.5,0-2.5c-2.56,0-5.11,0-7.67,0c0.29,0.71,0.59,1.42,0.88,2.13c2.24-2.73,4.48-5.45,6.72-8.18
				c0.32-0.39,0.64-0.77,0.95-1.16c0.32-0.39,0.48-0.87,0.26-1.37c-0.2-0.45-0.63-0.77-1.14-0.77c-2.56,0-5.11,0-7.67,0
				C206.69,124.38,206.69,126.88,208.3,126.88L208.3,126.88z"/>
		</g>
	</g>
	<g>
		<polyline class="st2" points="201.2,138.44 206.86,138.44 201.2,145.32 206.86,145.32 		"/>
		<g>
			<path class="st8" d="M201.2,139.69c1.89,0,3.77,0,5.66,0c-0.29-0.71-0.59-1.42-0.88-2.13c-1.65,2.01-3.3,4.02-4.95,6.03
				c-0.23,0.29-0.47,0.57-0.7,0.86c-0.33,0.4-0.47,0.87-0.26,1.37c0.19,0.45,0.64,0.77,1.14,0.77c1.89,0,3.77,0,5.66,0
				c0.65,0,1.28-0.57,1.25-1.25c-0.03-0.68-0.55-1.25-1.25-1.25c-1.89,0-3.77,0-5.66,0c0.29,0.71,0.59,1.42,0.88,2.13
				c1.65-2.01,3.3-4.02,4.95-6.03c0.23-0.29,0.47-0.57,0.7-0.86c0.33-0.4,0.47-0.87,0.26-1.37c-0.19-0.45-0.64-0.77-1.14-0.77
				c-1.89,0-3.77,0-5.66,0c-0.65,0-1.28,0.57-1.25,1.25C199.99,139.11,200.5,139.69,201.2,139.69L201.2,139.69z"/>
		</g>
	</g>
</g>
</svg>
