<svg width="323" height="89" viewBox="0 0 323 89" fill="none" xmlns="http://www.w3.org/2000/svg">
<g filter="url(#filter0_d)">
<path d="M91.6173 20.268C93.9933 19.764 95.1453 17.496 95.1453 15.228C95.1453 13.248 94.2813 11.196 92.4093 10.26C91.1853 9.648 88.8453 9.108 87.4773 9.108C85.7853 9.108 85.7853 9.828 85.7853 11.304C85.7853 13.212 86.1813 15.048 86.3253 16.92C86.6133 20.988 86.7213 25.056 87.1893 29.088C87.3693 30.636 87.4773 32.148 87.5853 33.696C87.6213 34.416 87.5853 35.136 88.4853 35.136C93.3453 35.136 95.3613 31.176 95.3613 26.856C95.3613 24.084 94.4973 21.276 91.6173 20.268ZM92.0133 29.844C91.7613 30.348 91.0773 31.608 90.5013 31.608C90.2133 31.608 90.1773 30.996 90.1773 30.816C90.1773 30.312 90.2853 29.844 90.2853 29.376C90.2853 26.928 89.8173 24.48 89.8173 22.068C89.8173 21.96 89.8173 21.888 89.8533 21.816H89.9613C90.6453 21.816 91.7973 23.58 92.0493 24.192C92.4453 25.056 92.6253 25.992 92.6253 26.928C92.6253 27.936 92.4453 28.944 92.0133 29.844ZM89.0973 17.28C88.9173 15.732 88.4853 14.22 88.4853 12.636C88.4853 12.24 88.4493 11.304 89.0253 11.304C89.6013 11.304 91.5453 12.348 91.9053 12.816C92.2653 13.32 92.4813 13.932 92.4813 14.58C92.4813 16.02 90.8253 18.252 89.3133 18.252C89.0973 18.252 89.0973 17.424 89.0973 17.28ZM108.148 33.732C114.232 33.732 115.852 26.208 115.852 21.42C115.852 16.488 114.304 10.26 108.22 10.26C102.64 10.26 100.3 16.272 100.3 21.024C100.3 25.992 101.776 33.732 108.148 33.732ZM108.22 13.14C111.964 13.14 113.188 18.324 113.188 21.276C113.188 24.516 112.54 30.924 108.148 30.924C103.324 30.924 103.144 24.804 103.144 21.312C103.144 18 103.972 13.14 108.22 13.14ZM132.788 26.46C132.464 23.724 132.644 20.988 132.644 18.252C132.644 16.632 132.464 15.048 132.464 13.464C132.464 12.816 132.572 12.204 132.572 11.556C132.572 10.728 130.664 10.368 130.052 10.368C129.548 10.368 129.548 10.908 129.548 11.268C129.548 15.768 130.088 20.232 130.088 24.732C130.088 25.164 130.088 25.56 129.98 25.992C128.288 23.58 124.364 11.808 123.536 11.16C123.068 10.836 122.492 10.692 121.916 10.692C121.196 10.692 120.8 11.088 120.8 11.808C120.8 12.564 121.052 13.284 121.16 14.004C121.376 15.624 121.412 17.316 121.412 18.936C121.412 21.024 121.304 23.112 121.304 25.164C121.304 27.756 121.448 30.276 121.736 32.832C121.808 33.336 121.808 33.804 122.456 33.804C122.96 33.804 123.464 33.876 123.968 33.876C124.688 33.876 124.688 32.796 124.688 32.292C124.688 28.584 124.112 24.912 123.752 21.24C123.608 19.872 123.428 18.54 123.428 17.208C123.428 17.064 123.464 16.884 123.5 16.74C124.112 17.172 125.624 21.816 126.02 22.824C126.92 25.2 128.18 27.432 129.044 29.808C129.26 30.348 129.584 31.752 130.052 32.04C130.376 32.22 131.636 32.22 132.032 32.22C133.04 32.22 133.04 30.492 133.04 29.808C133.04 28.692 132.896 27.576 132.788 26.46ZM146.653 5.832C145.573 5.832 144.817 6.372 144.817 7.524C144.817 7.92 144.853 8.316 144.889 8.712C145.429 15.3 145.861 21.924 145.861 28.548C145.861 30.204 145.861 34.992 143.449 34.992C141.757 34.992 141.109 31.932 140.893 30.672C139.777 30.78 138.409 30.852 138.409 32.328C138.409 33.228 138.769 34.056 139.129 34.884C140.065 36.792 141.433 38.376 143.701 38.376C148.597 38.376 148.561 30.672 148.561 27.288C148.561 24.552 148.309 21.852 148.165 19.152C147.985 15.444 147.985 11.7 147.985 7.992C147.985 7.056 147.877 5.832 146.653 5.832ZM161.958 33.732C168.042 33.732 169.662 26.208 169.662 21.42C169.662 16.488 168.114 10.26 162.03 10.26C156.45 10.26 154.11 16.272 154.11 21.024C154.11 25.992 155.586 33.732 161.958 33.732ZM162.03 13.14C165.774 13.14 166.998 18.324 166.998 21.276C166.998 24.516 166.35 30.924 161.958 30.924C157.134 30.924 156.954 24.804 156.954 21.312C156.954 18 157.782 13.14 162.03 13.14ZM187.534 10.8H187.174C186.274 10.8 185.194 10.836 185.194 12.024C185.194 12.708 185.266 13.356 185.266 14.004C185.266 15.804 185.23 17.604 185.23 19.404C185.23 22.284 185.986 29.772 181.522 29.772C177.382 29.772 177.202 24.552 177.202 21.528C177.202 18.36 177.31 15.228 177.31 12.06C177.31 11.556 176.698 11.556 176.374 11.556C175.69 11.556 175.258 11.592 174.718 12.06C174.574 12.204 174.43 18.972 174.43 19.8C174.43 24.012 174.826 32.364 180.694 32.364C187.282 32.364 188.362 25.236 188.362 20.088C188.362 17.352 188.038 14.652 188.038 11.916C188.038 11.448 188.038 11.016 187.534 10.8ZM199.693 22.428C199.441 21.384 198.865 20.412 198.865 19.332C198.865 19.008 198.973 18.684 199.189 18.432C199.477 18.18 200.197 18.036 200.593 17.856C201.853 17.136 202.753 14.58 202.753 13.176C202.753 9.684 198.901 7.992 195.877 7.992C195.085 7.992 194.329 8.136 194.329 9.072C194.329 9.792 194.509 10.476 194.509 11.196C194.509 14.004 194.401 16.848 194.401 19.656C194.401 24.624 194.473 29.628 194.473 34.596C194.473 36.144 194.473 36.252 196.057 36.252C196.741 36.252 197.101 36.108 197.101 35.352V29.232C197.101 26.244 196.813 23.256 196.813 20.268C196.813 19.98 196.813 19.656 196.885 19.368C197.497 20.628 199.801 30.24 200.089 32.076C200.197 32.544 200.305 34.704 200.953 34.704C201.493 34.704 202.825 34.308 202.825 33.624C202.825 32.976 202.429 32.328 202.213 31.716C201.097 28.728 200.377 25.524 199.693 22.428ZM196.993 16.2V14.292C196.993 13.32 196.777 12.384 196.777 11.448C196.777 10.872 197.029 10.188 197.677 10.188C199.081 10.188 200.269 11.844 200.269 13.14C200.269 13.752 200.089 14.328 199.729 14.832C199.405 15.3 197.821 16.488 197.245 16.488C197.101 16.488 196.993 16.38 196.993 16.2ZM221.207 32.508C220.775 32.508 220.415 32.832 220.415 33.264C220.379 34.236 220.343 35.244 220.343 36.252C220.343 36.396 220.307 36.828 220.415 36.972C220.595 37.224 221.891 37.26 222.215 37.26C222.647 37.26 222.971 36.936 222.971 36.504C222.971 35.46 222.971 34.38 222.935 33.3C222.935 32.904 222.647 32.616 222.215 32.58C221.891 32.544 221.531 32.544 221.207 32.508ZM220.055 10.152C220.415 13.428 220.307 17.244 220.415 20.592C220.415 21.348 220.415 22.104 220.415 22.896C220.415 24.696 220.343 26.496 220.343 28.296C220.343 28.476 220.307 28.872 220.415 29.052C220.559 29.304 221.927 29.34 222.215 29.34C222.647 29.34 222.971 29.016 222.971 28.584C222.971 23.256 222.827 17.892 222.827 12.564C222.827 11.376 222.971 10.224 222.971 9.036C222.971 8.496 222.935 7.992 222.863 7.452C222.755 6.804 222.935 6.552 222.107 6.552C221.711 6.552 219.947 6.588 219.803 7.056C219.875 7.2 219.767 7.74 219.767 7.956C219.767 8.676 219.947 9.432 220.055 10.152ZM16.5966 50.6C16.5606 50.024 16.6326 49.412 16.6326 48.836C16.6326 47.9 16.5246 46.64 15.3006 46.676C13.5006 46.712 11.7366 46.748 9.93655 46.748C9.03655 46.748 7.81255 46.856 7.81255 48.08C7.81255 49.196 8.35255 49.916 9.50455 49.916C10.8726 49.916 12.2046 49.736 13.5366 49.628C13.6806 51.356 14.1486 53.048 14.2566 54.74C14.4006 57.116 14.5086 59.492 14.5086 61.868C14.5086 63.164 14.4366 64.496 14.3646 65.792C14.2566 67.304 14.1846 70.184 12.0966 70.184C10.4046 70.184 9.75655 67.088 9.54055 65.828C8.42455 66.008 7.05655 65.936 7.05655 67.484C7.05655 68.348 7.41655 69.248 7.81255 70.04C8.67655 71.948 10.1166 73.532 12.3846 73.532C17.2446 73.532 17.2086 65.828 17.2086 62.444C17.2086 58.484 16.8126 54.56 16.5966 50.6ZM33.4479 64.244H33.3039C32.6559 64.244 32.0439 64.136 31.3959 64.136C31.1079 64.136 30.7479 64.136 30.4959 64.316C29.7759 64.748 30.6399 69.212 28.2639 69.212C25.8519 69.212 25.8879 63.992 25.7079 62.336C25.6359 61.688 25.5279 61.04 25.5279 60.392C25.5279 59.132 26.6799 58.88 27.6879 58.88C28.9119 58.88 30.1359 58.988 31.3599 58.988C32.6919 58.988 33.5919 58.736 33.5919 57.188C33.5919 53.912 31.8639 48.08 27.8319 48.08C22.6479 48.08 22.3239 56.612 22.3239 60.284C22.3239 63.812 23.4759 72.128 28.2279 72.128C31.8639 72.128 33.8079 68.096 33.8079 64.928C33.8079 64.64 33.7719 64.316 33.4479 64.244ZM25.9239 55.316V54.524C25.9239 53.372 25.9239 50.888 27.5799 50.888C29.2719 50.888 30.4959 53.876 30.4959 55.244C30.4959 56.036 29.9919 56.036 29.3799 56.108C28.5159 56.216 27.6879 56.504 26.8239 56.504C26.5719 56.504 25.8519 56.468 25.8519 56.108C25.8519 55.82 25.8879 55.568 25.9239 55.316ZM69.4325 58.448C69.3605 56.432 69.4685 54.416 69.4685 52.364C69.4685 50.708 69.3245 49.088 69.1085 47.468C68.9645 46.604 69.2165 46.784 68.2805 46.676C68.0285 46.64 67.7765 46.604 67.4885 46.604C67.4165 46.604 66.5885 46.676 66.5165 46.676C64.9325 47.54 60.4685 68.78 60.2885 68.708C59.4965 68.492 55.6445 54.02 54.7085 50.492C54.4925 49.736 54.0245 46.748 53.4485 46.424C53.1605 46.28 52.9085 46.244 52.6205 46.244C52.0805 46.244 50.5685 46.28 50.5685 47.036C50.5685 55.352 51.6125 64.676 51.6125 73.028C51.9005 73.856 51.8645 73.676 52.6925 73.82C53.1965 73.928 53.6645 73.964 54.2045 73.964C54.3125 73.964 54.4205 73.964 54.5285 73.928C54.6725 73.712 54.6725 73.424 54.6725 73.172C54.6725 71.876 54.3125 70.652 54.2045 69.392C53.7365 64.964 52.9805 59.96 52.9805 55.532C52.9805 55.316 52.9805 55.1 53.0885 54.92C53.0885 54.956 53.0525 55.028 53.0525 55.064C53.0525 55.172 56.4005 66.008 56.4725 66.26C57.0485 68.204 57.7325 70.112 58.2005 72.092C58.3445 72.74 58.3445 73.28 59.0645 73.532C59.2805 73.604 59.4965 73.604 59.7125 73.604C60.1445 73.604 60.8285 73.64 61.1885 73.46C61.6565 73.28 62.2685 69.644 62.4485 68.96C63.4925 65.36 64.4645 61.652 65.4365 58.052C65.5805 57.512 66.3725 55.064 66.3005 54.704C66.5885 55.136 66.4445 57.512 66.4445 58.124C66.4445 60.14 66.7685 62.156 66.8405 64.136C66.9485 66.692 66.9485 69.248 66.9485 71.768C66.9485 72.596 67.3085 73.028 67.4165 73.712C67.8125 73.928 68.2085 73.928 68.6405 73.928C69.6125 73.928 69.9725 73.712 69.9725 72.668C69.9725 71.768 69.7205 70.904 69.6845 70.004C69.4325 66.152 69.5765 62.3 69.4325 58.448ZM77.1255 49.556C77.1255 49.88 78.2055 50.276 78.4935 50.276C79.3575 50.276 81.5175 45.596 81.5175 44.588C81.5175 43.544 79.9695 43.472 79.1415 43.472C78.2775 43.472 77.1255 48.692 77.1255 49.556ZM94.4488 48.188C94.3408 47.252 94.4488 46.352 94.4488 45.416C94.4488 44.228 93.7648 44.228 92.7928 44.228C92.2888 44.228 91.7128 44.228 91.2808 44.516C90.7768 44.84 90.8128 47.648 90.7408 48.332C90.0928 54.848 89.0488 61.292 88.3288 67.772C88.1488 69.68 87.8608 71.552 87.6088 73.46C87.4288 75.224 87.2848 75.764 88.7968 75.872C89.0128 75.908 89.2648 75.98 89.5168 75.98C90.2728 75.98 90.2008 75.044 90.2008 74.504C90.2008 72.992 90.4168 71.516 90.4528 70.04C90.4888 69.284 90.4888 68.42 91.2808 68.024C91.4608 67.952 92.9728 68.024 93.1888 68.024C94.1608 67.988 94.1968 70.04 94.4128 71.444C94.5928 72.74 94.2688 75.908 95.0608 75.908C95.8168 75.908 96.4648 75.836 97.0408 75.44C97.4008 75.188 97.0768 71.984 96.8968 70.58C96.0328 63.128 95.6728 55.604 94.4488 48.188ZM93.5128 65.432C93.2968 65.576 93.0088 65.648 92.7568 65.648C91.9648 65.648 91.2448 65.756 91.2808 65.18C91.3168 63.848 92.1448 56.396 92.3608 55.028C92.7568 58.7 93.5488 61.472 93.5488 64.748C93.5488 64.964 93.5488 65.216 93.5128 65.432ZM92.3968 54.884C92.3968 54.812 92.3968 54.812 92.3968 54.776C92.3968 54.812 92.3968 54.848 92.3968 54.884ZM105.256 43.256C104.896 43.328 104.572 43.292 104.248 43.292C103.204 43.292 102.376 43.4 102.376 44.66C102.376 45.884 102.556 47.072 102.556 48.296C102.556 56.756 102.952 65.252 102.952 73.712C102.952 74.36 102.844 75.008 102.844 75.656C102.844 76.664 103.096 76.592 103.924 76.808C104.284 76.88 104.608 77.024 105.004 77.024C105.544 77.024 105.544 76.52 105.544 76.124C105.544 75.044 105.472 73.928 105.472 72.848C105.472 70.76 105.544 68.708 105.544 66.62C105.544 63.668 105.328 60.716 105.328 57.764C105.328 56.288 106.696 56.72 107.632 56.36C110.188 55.352 111.34 52.22 111.34 49.7C111.34 46.568 109.684 43.184 106.156 43.184C105.832 43.184 105.544 43.22 105.256 43.256ZM106.516 54.164C106.3 54.272 106.048 54.344 105.832 54.344C105.076 54.344 105.112 52.472 105.112 52.004C105.112 51.284 105.184 50.564 105.184 49.844C105.184 48.944 105.004 48.044 105.004 47.108C105.004 46.82 105.112 45.524 105.508 45.524C107.992 45.524 108.712 47.72 108.712 49.808C108.712 51.464 108.172 53.48 106.516 54.164ZM119.149 43.256C118.789 43.328 118.465 43.292 118.141 43.292C117.097 43.292 116.269 43.4 116.269 44.66C116.269 45.884 116.449 47.072 116.449 48.296C116.449 56.756 116.845 65.252 116.845 73.712C116.845 74.36 116.737 75.008 116.737 75.656C116.737 76.664 116.989 76.592 117.817 76.808C118.177 76.88 118.501 77.024 118.897 77.024C119.437 77.024 119.437 76.52 119.437 76.124C119.437 75.044 119.365 73.928 119.365 72.848C119.365 70.76 119.437 68.708 119.437 66.62C119.437 63.668 119.221 60.716 119.221 57.764C119.221 56.288 120.589 56.72 121.525 56.36C124.081 55.352 125.233 52.22 125.233 49.7C125.233 46.568 123.577 43.184 120.049 43.184C119.725 43.184 119.437 43.22 119.149 43.256ZM120.409 54.164C120.193 54.272 119.941 54.344 119.725 54.344C118.969 54.344 119.005 52.472 119.005 52.004C119.005 51.284 119.077 50.564 119.077 49.844C119.077 48.944 118.897 48.044 118.897 47.108C118.897 46.82 119.005 45.524 119.401 45.524C121.885 45.524 122.605 47.72 122.605 49.808C122.605 51.464 122.065 53.48 120.409 54.164ZM134.627 43.976C133.691 43.904 132.791 43.688 131.855 43.688C130.559 43.688 130.415 44.588 130.415 45.632C130.415 46.388 130.559 47.144 130.559 47.936C130.631 50.672 130.631 53.444 130.631 56.18C130.631 62.012 130.595 67.808 130.595 73.64C130.595 74.324 130.379 75.008 130.379 75.692C130.379 76.52 130.595 76.556 131.351 76.556C132.719 76.556 134.123 76.34 135.491 76.124C135.959 76.052 136.499 76.052 136.499 75.404C136.499 74.792 136.463 74.18 136.463 73.568C136.463 73.172 136.391 72.992 135.995 72.992C135.239 72.992 134.591 73.424 133.871 73.424C133.403 73.424 133.295 72.992 133.295 72.596C133.295 71.948 133.475 71.264 133.475 70.58C133.475 69.608 133.439 68.6 133.403 67.628C133.367 66.476 133.043 65.36 133.043 64.208C133.043 63.524 133.115 62.588 134.015 62.588C134.591 62.588 135.095 62.948 135.671 62.948C136.031 62.948 136.355 62.66 136.355 62.3C136.355 61.904 136.211 61.544 136.175 61.148C136.067 60.104 136.319 59.924 135.023 59.924C134.555 59.924 134.123 60.14 133.655 60.14C133.223 60.14 133.187 59.456 133.187 59.132C132.971 56.936 133.079 54.74 133.079 52.544C133.079 50.996 132.791 49.448 132.791 47.864C132.791 47.396 132.899 47.144 133.439 47.144C134.375 47.144 135.203 47.792 136.139 47.792C137.075 47.792 137.075 45.884 137.075 45.236C137.075 43.796 136.247 44.012 135.167 44.012L134.627 43.976ZM146.55 72.236C146.334 72.272 146.118 72.272 145.902 72.272C145.29 72.272 145.254 71.912 145.254 71.408C145.254 70.472 145.29 69.536 145.29 68.6C145.29 63.38 145.182 58.16 145.11 52.94C145.074 51.5 144.966 50.096 144.966 48.656C144.966 47.9 145.146 47.144 145.146 46.352C145.146 45.488 144.894 45.524 144.174 45.344C143.886 45.236 143.598 45.164 143.274 45.164C142.446 45.164 142.41 46.172 142.41 46.784C142.41 52.544 142.626 58.304 142.626 64.028C142.626 66.692 142.302 69.356 142.302 71.984C142.302 72.848 142.302 74.972 143.562 74.972C143.958 74.972 144.354 74.936 144.75 74.936C146.586 74.936 148.386 75.08 150.222 75.08C150.834 75.08 150.834 74.108 150.834 73.676C150.834 73.172 150.798 72.668 150.762 72.164C150.474 71.804 150.006 71.732 149.61 71.732C148.566 71.732 147.558 72.092 146.55 72.236ZM159.178 72.236C158.962 72.272 158.746 72.272 158.53 72.272C157.918 72.272 157.882 71.912 157.882 71.408C157.882 70.472 157.918 69.536 157.918 68.6C157.918 63.38 157.81 58.16 157.738 52.94C157.702 51.5 157.594 50.096 157.594 48.656C157.594 47.9 157.774 47.144 157.774 46.352C157.774 45.488 157.522 45.524 156.802 45.344C156.514 45.236 156.226 45.164 155.902 45.164C155.074 45.164 155.038 46.172 155.038 46.784C155.038 52.544 155.254 58.304 155.254 64.028C155.254 66.692 154.93 69.356 154.93 71.984C154.93 72.848 154.93 74.972 156.19 74.972C156.586 74.972 156.982 74.936 157.378 74.936C159.214 74.936 161.014 75.08 162.85 75.08C163.462 75.08 163.462 74.108 163.462 73.676C163.462 73.172 163.426 72.668 163.39 72.164C163.102 71.804 162.634 71.732 162.238 71.732C161.194 71.732 160.186 72.092 159.178 72.236ZM171.879 43.976C170.943 43.904 170.043 43.688 169.107 43.688C167.811 43.688 167.667 44.588 167.667 45.632C167.667 46.388 167.811 47.144 167.811 47.936C167.883 50.672 167.883 53.444 167.883 56.18C167.883 62.012 167.847 67.808 167.847 73.64C167.847 74.324 167.631 75.008 167.631 75.692C167.631 76.52 167.847 76.556 168.603 76.556C169.971 76.556 171.375 76.34 172.743 76.124C173.211 76.052 173.751 76.052 173.751 75.404C173.751 74.792 173.715 74.18 173.715 73.568C173.715 73.172 173.643 72.992 173.247 72.992C172.491 72.992 171.843 73.424 171.123 73.424C170.655 73.424 170.547 72.992 170.547 72.596C170.547 71.948 170.727 71.264 170.727 70.58C170.727 69.608 170.691 68.6 170.655 67.628C170.619 66.476 170.295 65.36 170.295 64.208C170.295 63.524 170.367 62.588 171.267 62.588C171.843 62.588 172.347 62.948 172.923 62.948C173.283 62.948 173.607 62.66 173.607 62.3C173.607 61.904 173.463 61.544 173.427 61.148C173.319 60.104 173.571 59.924 172.275 59.924C171.807 59.924 171.375 60.14 170.907 60.14C170.475 60.14 170.439 59.456 170.439 59.132C170.223 56.936 170.331 54.74 170.331 52.544C170.331 50.996 170.043 49.448 170.043 47.864C170.043 47.396 170.151 47.144 170.691 47.144C171.627 47.144 172.455 47.792 173.391 47.792C174.327 47.792 174.327 45.884 174.327 45.236C174.327 43.796 173.499 44.012 172.419 44.012L171.879 43.976ZM199.497 69.644C199.353 71.12 199.065 74 197.085 74C194.457 74 194.277 66.44 194.277 64.568C194.277 62.624 194.421 60.68 194.421 58.736C194.421 57.08 194.313 55.424 194.313 53.732C194.313 52.184 194.457 46.28 196.689 46.28C198.813 46.28 199.209 50.456 199.353 51.968C199.857 51.824 200.397 51.644 200.937 51.572C201.225 51.5 201.765 51.572 201.765 51.104C201.765 50.888 201.657 50.636 201.549 50.456C201.513 49.664 201.261 48.908 201.009 48.116C200.361 46.064 199.173 42.896 196.581 42.896C194.673 42.896 193.341 44.66 192.693 46.28C191.469 49.412 191.793 53.444 191.793 56.792C191.793 58.772 191.721 60.788 191.721 62.804C191.721 64.244 191.757 65.72 191.865 67.16C192.117 70.436 192.369 77.312 196.977 77.312C200.505 77.312 202.125 73.172 202.125 70.22C202.125 69.644 200.109 69.644 199.749 69.644H199.497ZM214.36 48.188C214.252 47.252 214.36 46.352 214.36 45.416C214.36 44.228 213.676 44.228 212.704 44.228C212.2 44.228 211.624 44.228 211.192 44.516C210.688 44.84 210.724 47.648 210.652 48.332C210.004 54.848 208.96 61.292 208.24 67.772C208.06 69.68 207.772 71.552 207.52 73.46C207.34 75.224 207.196 75.764 208.708 75.872C208.924 75.908 209.176 75.98 209.428 75.98C210.184 75.98 210.112 75.044 210.112 74.504C210.112 72.992 210.328 71.516 210.364 70.04C210.4 69.284 210.4 68.42 211.192 68.024C211.372 67.952 212.884 68.024 213.1 68.024C214.072 67.988 214.108 70.04 214.324 71.444C214.504 72.74 214.18 75.908 214.972 75.908C215.728 75.908 216.376 75.836 216.952 75.44C217.312 75.188 216.988 71.984 216.808 70.58C215.944 63.128 215.584 55.604 214.36 48.188ZM213.424 65.432C213.208 65.576 212.92 65.648 212.668 65.648C211.876 65.648 211.156 65.756 211.192 65.18C211.228 63.848 212.056 56.396 212.272 55.028C212.668 58.7 213.46 61.472 213.46 64.748C213.46 64.964 213.46 65.216 213.424 65.432ZM212.308 54.884C212.308 54.812 212.308 54.812 212.308 54.776C212.308 54.812 212.308 54.848 212.308 54.884ZM241.114 58.448C241.042 56.432 241.15 54.416 241.15 52.364C241.15 50.708 241.006 49.088 240.79 47.468C240.646 46.604 240.898 46.784 239.962 46.676C239.71 46.64 239.458 46.604 239.17 46.604C239.098 46.604 238.27 46.676 238.198 46.676C236.614 47.54 232.15 68.78 231.97 68.708C231.178 68.492 227.326 54.02 226.39 50.492C226.174 49.736 225.706 46.748 225.13 46.424C224.842 46.28 224.59 46.244 224.302 46.244C223.762 46.244 222.25 46.28 222.25 47.036C222.25 55.352 223.294 64.676 223.294 73.028C223.582 73.856 223.546 73.676 224.374 73.82C224.878 73.928 225.346 73.964 225.886 73.964C225.994 73.964 226.102 73.964 226.21 73.928C226.354 73.712 226.354 73.424 226.354 73.172C226.354 71.876 225.994 70.652 225.886 69.392C225.418 64.964 224.662 59.96 224.662 55.532C224.662 55.316 224.662 55.1 224.77 54.92C224.77 54.956 224.734 55.028 224.734 55.064C224.734 55.172 228.082 66.008 228.154 66.26C228.73 68.204 229.414 70.112 229.882 72.092C230.026 72.74 230.026 73.28 230.746 73.532C230.962 73.604 231.178 73.604 231.394 73.604C231.826 73.604 232.51 73.64 232.87 73.46C233.338 73.28 233.95 69.644 234.13 68.96C235.174 65.36 236.146 61.652 237.118 58.052C237.262 57.512 238.054 55.064 237.982 54.704C238.27 55.136 238.126 57.512 238.126 58.124C238.126 60.14 238.45 62.156 238.522 64.136C238.63 66.692 238.63 69.248 238.63 71.768C238.63 72.596 238.99 73.028 239.098 73.712C239.494 73.928 239.89 73.928 240.322 73.928C241.294 73.928 241.654 73.712 241.654 72.668C241.654 71.768 241.402 70.904 241.366 70.004C241.114 66.152 241.258 62.3 241.114 58.448ZM253.308 71.84C252.336 71.012 252.408 65.576 252.372 64.172C252.3 60.464 252.264 56.756 251.904 53.048C251.76 51.788 251.472 50.528 251.472 49.268C251.472 48.872 251.544 48.368 252.012 48.368C252.408 48.368 252.804 48.512 253.2 48.512C253.632 48.512 253.668 48.188 253.668 47.864C253.668 47.108 253.524 46.388 253.452 45.632C252.264 45.776 251.076 45.848 249.852 45.848C249.312 45.848 248.772 45.74 248.232 45.74C247.044 45.74 246.936 46.352 246.936 47.36C246.936 47.792 246.972 48.728 247.584 48.728C248.052 48.728 248.52 48.548 249.024 48.476C249.096 55.172 249.6 61.868 250.104 68.564C250.176 69.428 250.248 70.328 250.248 71.192C250.248 72.236 249.276 72.02 248.592 72.02H248.268C248.268 72.704 248.16 74.612 249.168 74.612C250.536 74.612 251.904 74.54 253.308 74.432C254.316 74.36 254.928 74.324 254.928 73.1V72.92C254.928 72.704 254.928 71.84 254.604 71.84C254.316 71.84 254.1 71.984 253.848 71.984C253.632 71.984 253.452 71.948 253.272 71.84H253.308ZM264.521 72.236C264.305 72.272 264.089 72.272 263.873 72.272C263.261 72.272 263.225 71.912 263.225 71.408C263.225 70.472 263.261 69.536 263.261 68.6C263.261 63.38 263.153 58.16 263.081 52.94C263.045 51.5 262.937 50.096 262.937 48.656C262.937 47.9 263.117 47.144 263.117 46.352C263.117 45.488 262.865 45.524 262.145 45.344C261.857 45.236 261.569 45.164 261.245 45.164C260.417 45.164 260.381 46.172 260.381 46.784C260.381 52.544 260.597 58.304 260.597 64.028C260.597 66.692 260.273 69.356 260.273 71.984C260.273 72.848 260.273 74.972 261.533 74.972C261.929 74.972 262.325 74.936 262.721 74.936C264.557 74.936 266.357 75.08 268.193 75.08C268.805 75.08 268.805 74.108 268.805 73.676C268.805 73.172 268.769 72.668 268.733 72.164C268.445 71.804 267.977 71.732 267.581 71.732C266.537 71.732 265.529 72.092 264.521 72.236ZM277.149 72.236C276.933 72.272 276.717 72.272 276.501 72.272C275.889 72.272 275.853 71.912 275.853 71.408C275.853 70.472 275.889 69.536 275.889 68.6C275.889 63.38 275.781 58.16 275.709 52.94C275.673 51.5 275.565 50.096 275.565 48.656C275.565 47.9 275.745 47.144 275.745 46.352C275.745 45.488 275.493 45.524 274.773 45.344C274.485 45.236 274.197 45.164 273.873 45.164C273.045 45.164 273.009 46.172 273.009 46.784C273.009 52.544 273.225 58.304 273.225 64.028C273.225 66.692 272.901 69.356 272.901 71.984C272.901 72.848 272.901 74.972 274.161 74.972C274.557 74.972 274.953 74.936 275.349 74.936C277.185 74.936 278.985 75.08 280.821 75.08C281.433 75.08 281.433 74.108 281.433 73.676C281.433 73.172 281.397 72.668 281.361 72.164C281.073 71.804 280.605 71.732 280.209 71.732C279.165 71.732 278.157 72.092 277.149 72.236ZM289.849 43.976C288.913 43.904 288.013 43.688 287.077 43.688C285.781 43.688 285.637 44.588 285.637 45.632C285.637 46.388 285.781 47.144 285.781 47.936C285.853 50.672 285.853 53.444 285.853 56.18C285.853 62.012 285.817 67.808 285.817 73.64C285.817 74.324 285.601 75.008 285.601 75.692C285.601 76.52 285.817 76.556 286.573 76.556C287.941 76.556 289.345 76.34 290.713 76.124C291.181 76.052 291.721 76.052 291.721 75.404C291.721 74.792 291.685 74.18 291.685 73.568C291.685 73.172 291.613 72.992 291.217 72.992C290.461 72.992 289.813 73.424 289.093 73.424C288.625 73.424 288.517 72.992 288.517 72.596C288.517 71.948 288.697 71.264 288.697 70.58C288.697 69.608 288.661 68.6 288.625 67.628C288.589 66.476 288.265 65.36 288.265 64.208C288.265 63.524 288.337 62.588 289.237 62.588C289.813 62.588 290.317 62.948 290.893 62.948C291.253 62.948 291.577 62.66 291.577 62.3C291.577 61.904 291.433 61.544 291.397 61.148C291.289 60.104 291.541 59.924 290.245 59.924C289.777 59.924 289.345 60.14 288.877 60.14C288.445 60.14 288.409 59.456 288.409 59.132C288.193 56.936 288.301 54.74 288.301 52.544C288.301 50.996 288.013 49.448 288.013 47.864C288.013 47.396 288.121 47.144 288.661 47.144C289.597 47.144 290.425 47.792 291.361 47.792C292.297 47.792 292.297 45.884 292.297 45.236C292.297 43.796 291.469 44.012 290.389 44.012L289.849 43.976ZM311.239 70.508C310.807 70.508 310.447 70.832 310.447 71.264C310.411 72.236 310.375 73.244 310.375 74.252C310.375 74.396 310.339 74.828 310.447 74.972C310.627 75.224 311.923 75.26 312.247 75.26C312.679 75.26 313.003 74.936 313.003 74.504C313.003 73.46 313.003 72.38 312.967 71.3C312.967 70.904 312.679 70.616 312.247 70.58C311.923 70.544 311.563 70.544 311.239 70.508ZM310.087 48.152C310.447 51.428 310.339 55.244 310.447 58.592C310.447 59.348 310.447 60.104 310.447 60.896C310.447 62.696 310.375 64.496 310.375 66.296C310.375 66.476 310.339 66.872 310.447 67.052C310.591 67.304 311.959 67.34 312.247 67.34C312.679 67.34 313.003 67.016 313.003 66.584C313.003 61.256 312.859 55.892 312.859 50.564C312.859 49.376 313.003 48.224 313.003 47.036C313.003 46.496 312.967 45.992 312.895 45.452C312.787 44.804 312.967 44.552 312.139 44.552C311.743 44.552 309.979 44.588 309.835 45.056C309.907 45.2 309.799 45.74 309.799 45.956C309.799 46.676 309.979 47.432 310.087 48.152Z" fill="white"/>
</g>
<defs>
<filter id="filter0_d" x="0.0566406" y="0.831997" width="321.947" height="87.48" filterUnits="userSpaceOnUse" color-interpolation-filters="sRGB">
<feFlood flood-opacity="0" result="BackgroundImageFix"/>
<feColorMatrix in="SourceAlpha" type="matrix" values="0 0 0 0 0 0 0 0 0 0 0 0 0 0 0 0 0 0 127 0"/>
<feOffset dx="1" dy="3"/>
<feGaussianBlur stdDeviation="4"/>
<feColorMatrix type="matrix" values="0 0 0 0 0.0901961 0 0 0 0 0.117647 0 0 0 0 0.694118 0 0 0 1 0"/>
<feBlend mode="normal" in2="BackgroundImageFix" result="effect1_dropShadow"/>
<feBlend mode="normal" in="SourceGraphic" in2="effect1_dropShadow" result="shape"/>
</filter>
</defs>
</svg>
