<svg width="206" height="188" viewBox="0 0 206 188" fill="none" xmlns="http://www.w3.org/2000/svg">
<path d="M35.8018 110.882C35.8018 110.882 83.6504 101.587 101.232 101.587C118.814 101.587 166.367 110.882 166.367 110.882V45.5876H35.8018V110.882Z" fill="black"/>
<path d="M110.5 111.112C112.078 111.112 113.261 112.59 112.866 114.101C111.552 119.323 106.819 123.166 101.2 123.166C95.5803 123.166 90.848 119.323 89.5335 114.101C89.1391 112.59 90.3222 111.112 91.8996 111.112H110.5Z" fill="#F3A2BE"/>
<path d="M101.167 123.823C95.3504 123.823 90.2895 119.881 88.8436 114.265C88.6135 113.345 88.8107 112.393 89.4022 111.67C89.9938 110.915 90.8811 110.488 91.8341 110.488H110.467C111.421 110.488 112.308 110.915 112.899 111.67C113.491 112.426 113.688 113.378 113.458 114.265C112.045 119.881 106.984 123.823 101.167 123.823ZM91.867 111.769C91.3083 111.769 90.8153 112.031 90.4539 112.458C90.1252 112.885 89.9938 113.411 90.1252 113.936C91.4069 118.994 95.942 122.509 101.167 122.509C106.392 122.509 110.928 118.994 112.209 113.936C112.341 113.411 112.242 112.885 111.881 112.458C111.552 112.031 111.026 111.769 110.467 111.769H91.867Z" fill="black"/>
<path d="M101.166 83.2271C101.166 99.255 88.1526 112.261 72.1154 112.261C56.0782 112.261 43.0645 99.255 43.0645 83.2271H101.166Z" fill="white"/>
<path d="M72.1155 112.918C55.7496 112.918 42.4072 99.5835 42.4072 83.2271C42.4072 82.8658 42.703 82.5702 43.0645 82.5702H101.166C101.528 82.5702 101.824 82.8658 101.824 83.2271C101.824 99.5835 88.5142 112.918 72.1155 112.918ZM43.7546 83.8511C44.1161 99.1893 56.7027 111.572 72.1483 111.572C87.594 111.572 100.181 99.1893 100.542 83.8511H43.7546Z" fill="black"/>
<path d="M159.269 83.2271C159.269 99.255 146.255 112.261 130.218 112.261C114.181 112.261 101.167 99.255 101.167 83.2271H159.269Z" fill="white"/>
<path d="M130.218 112.918C113.852 112.918 100.51 99.5835 100.51 83.2271C100.51 82.8658 100.806 82.5702 101.167 82.5702H159.269C159.631 82.5702 159.926 82.8658 159.926 83.2271C159.926 99.5835 146.617 112.918 130.218 112.918ZM101.857 83.8511C102.219 99.1893 114.805 111.572 130.251 111.572C145.697 111.572 158.283 99.1893 158.645 83.8511H101.857Z" fill="black"/>
<path d="M75.3039 97.4158C82.8542 97.4158 88.9749 91.2986 88.9749 83.7527C88.9749 76.2067 82.8542 70.0895 75.3039 70.0895C67.7536 70.0895 61.6328 76.2067 61.6328 83.7527C61.6328 91.2986 67.7536 97.4158 75.3039 97.4158Z" fill="black"/>
<path d="M126.865 97.4158C134.416 97.4158 140.536 91.2986 140.536 83.7527C140.536 76.2067 134.416 70.0895 126.865 70.0895C119.315 70.0895 113.194 76.2067 113.194 83.7527C113.194 91.2986 119.315 97.4158 126.865 97.4158Z" fill="black"/>
<path d="M101.101 148.094C88.9084 148.094 70.4064 144.941 51.3458 129.964C39.9752 121.031 33.8627 112.196 33.6326 111.801C32.8768 110.685 33.1397 109.141 34.2899 108.386C35.4072 107.63 36.9518 107.893 37.7077 109.043C37.7734 109.141 43.7216 117.746 54.5336 126.22C64.4254 133.971 80.5283 143.201 101.101 143.201C121.706 143.201 137.809 133.971 147.668 126.22C158.48 117.746 164.428 109.141 164.493 109.043C165.249 107.926 166.794 107.63 167.911 108.419C169.029 109.174 169.324 110.718 168.569 111.834C168.306 112.196 162.193 121.064 150.855 129.997C140.339 138.208 123.152 148.094 101.101 148.094Z" fill="black"/>
<path d="M169.161 96.5618H163.935C162.851 96.5618 161.931 97.4486 161.931 98.5653V109.404C161.931 110.488 162.818 111.407 163.935 111.407H169.161C170.245 111.407 171.165 110.521 171.165 109.404V98.5653C171.132 97.4486 170.245 96.5618 169.161 96.5618Z" fill="#EF6C46"/>
<path d="M169.161 112.031H163.935C162.489 112.031 161.273 110.849 161.273 109.371V98.5324C161.273 97.0873 162.457 95.8721 163.935 95.8721H169.161C170.607 95.8721 171.822 97.0545 171.822 98.5324V109.371C171.79 110.849 170.607 112.031 169.161 112.031ZM163.935 97.2187C163.212 97.2187 162.588 97.8099 162.588 98.5653V109.404C162.588 110.126 163.179 110.75 163.935 110.75H169.161C169.884 110.75 170.508 110.159 170.508 109.404V98.5653C170.508 97.8427 169.916 97.2187 169.161 97.2187H163.935Z" fill="black"/>
<path d="M108.528 141.953H96.4998C95.8097 141.953 95.251 142.511 95.251 143.201V148.029C95.251 148.718 95.8097 149.277 96.4998 149.277H108.528C109.218 149.277 109.776 148.718 109.776 148.029V143.201C109.776 142.544 109.218 141.953 108.528 141.953Z" fill="#EF6C46"/>
<path d="M108.528 149.934H96.4998C95.4482 149.934 94.5938 149.08 94.5938 148.029V143.201C94.5938 142.15 95.4482 141.296 96.4998 141.296H108.528C109.579 141.296 110.434 142.15 110.434 143.201V148.029C110.434 149.08 109.579 149.934 108.528 149.934ZM96.4998 142.609C96.1712 142.609 95.9083 142.872 95.9083 143.201V148.029C95.9083 148.357 96.1712 148.62 96.4998 148.62H108.528C108.856 148.62 109.119 148.357 109.119 148.029V143.201C109.119 142.872 108.856 142.609 108.528 142.609H96.4998Z" fill="black"/>
<path d="M108.528 141.953H99.6219C98.9317 141.953 98.373 142.511 98.373 143.201V148.029C98.373 148.718 98.9317 149.277 99.6219 149.277H108.528C109.218 149.277 109.777 148.718 109.777 148.029V143.201C109.777 142.544 109.218 141.953 108.528 141.953Z" fill="#EF6C46"/>
<path d="M108.528 149.934H99.6219C98.5703 149.934 97.7158 149.08 97.7158 148.029V143.201C97.7158 142.15 98.5703 141.296 99.6219 141.296H108.528C109.579 141.296 110.434 142.15 110.434 143.201V148.029C110.434 149.08 109.579 149.934 108.528 149.934ZM99.6548 142.609C99.3261 142.609 99.0632 142.872 99.0632 143.201V148.029C99.0632 148.357 99.3261 148.62 99.6548 148.62H108.561C108.889 148.62 109.152 148.357 109.152 148.029V143.201C109.152 142.872 108.889 142.609 108.561 142.609H99.6548Z" fill="black"/>
<path d="M38.4311 96.5618H33.2058C32.1213 96.5618 31.2012 97.4486 31.2012 98.5653V109.404C31.2012 110.488 32.0885 111.407 33.2058 111.407H38.4311C39.5155 111.407 40.4357 110.521 40.4357 109.404V98.5653C40.4028 97.4486 39.5155 96.5618 38.4311 96.5618Z" fill="#EF6C46"/>
<path d="M38.4311 112.031H33.2059C31.7599 112.031 30.5439 110.849 30.5439 109.371V98.5324C30.5439 97.0873 31.727 95.8721 33.2059 95.8721H38.4311C39.8771 95.8721 41.093 97.0545 41.093 98.5324V109.371C41.0601 110.849 39.8771 112.031 38.4311 112.031ZM33.2059 97.2187C32.4829 97.2187 31.8585 97.8099 31.8585 98.5653V109.404C31.8585 110.126 32.45 110.75 33.2059 110.75H38.4311C39.1541 110.75 39.7785 110.159 39.7785 109.404V98.5653C39.7785 97.8427 39.1869 97.2187 38.4311 97.2187H33.2059Z" fill="black"/>
<path d="M172.545 52.7807V101.784C172.545 104.543 170.31 106.776 167.55 106.776H165.249C162.489 106.776 160.254 104.543 160.254 101.784V76.5927C160.254 74.5892 159.071 72.7828 157.198 71.9945L146.024 67.265C145.104 66.8708 144.348 66.2139 143.823 65.4257C143.297 64.6374 143.001 63.6849 143.001 62.6668C143.001 59.9079 140.766 57.6745 138.006 57.6745L109.218 53.2733C103.795 52.4522 98.3072 52.4522 92.9177 53.2733L64.1296 57.6745C62.7494 57.6745 61.5006 58.2328 60.6132 59.1525C59.7259 60.0392 59.1344 61.3202 59.1344 62.6668C59.1344 64.6703 57.9513 66.4767 56.0781 67.265L44.9047 71.9945C43.0644 72.7828 41.8484 74.5892 41.8484 76.5927V101.784C41.8484 104.543 39.6137 106.776 36.8532 106.776H34.5528C31.7923 106.776 29.5576 104.543 29.5576 101.784V52.6493C29.6233 40.7926 34.7171 29.4942 43.5244 21.5787C43.9845 21.1846 44.4446 20.7905 44.9047 20.3963C45.5948 19.838 46.2849 19.2468 47.0079 18.7213C59.8245 8.86802 75.7631 2.46341 93.2135 0.985424C94.9223 0.821203 96.6312 0.722671 98.3401 0.689827C98.8002 0.689827 99.2603 0.656982 99.7203 0.656982C100.18 0.656982 100.542 0.656982 100.772 0.656982H101.396C101.659 0.656982 102.021 0.656982 102.514 0.656982H102.645C103.04 0.656982 103.434 0.656982 103.828 0.689827C105.57 0.755515 107.279 0.854047 108.955 0.985424C126.964 2.56194 143.33 9.36069 156.278 19.7394C156.672 20.035 157.066 20.3635 157.428 20.6919C158.02 21.1846 158.578 21.6773 159.137 22.2028C167.616 30.0854 172.512 41.1867 172.545 52.7807Z" fill="#F3A2BE"/>
<path d="M167.55 107.433H165.249C162.127 107.433 159.597 104.904 159.597 101.784V76.5926C159.597 74.8518 158.545 73.2753 156.935 72.6184L145.762 67.8889C144.743 67.4619 143.888 66.7393 143.264 65.8197C142.64 64.9001 142.344 63.8162 142.344 62.6995C142.344 60.3019 140.405 58.3641 138.006 58.3641H137.907L109.119 53.963C103.763 53.1419 98.3401 53.1419 93.0163 53.963L64.1954 58.3641H64.1296C62.9794 58.3641 61.8949 58.8239 61.0734 59.645C60.2518 60.4661 59.7917 61.55 59.7917 62.6995C59.7917 64.9658 58.4443 67.0021 56.3411 67.8889L45.1676 72.6184C43.5573 73.3082 42.5057 74.8518 42.5057 76.5926V101.784C42.5057 104.904 39.9753 107.433 36.8533 107.433H34.5528C31.4308 107.433 28.9004 104.904 28.9004 101.784V52.6492C28.9661 40.6282 34.1585 29.1328 43.0644 21.086C43.4587 20.7247 43.9188 20.3305 44.4775 19.8707C45.1676 19.3124 45.8906 18.7212 46.6136 18.1628C59.956 7.94829 76.0261 1.77358 93.1477 0.328442C94.8566 0.164221 96.5984 0.0656883 98.3072 0.0328442C98.7345 0.0328442 99.1945 0 99.6546 0H99.7204C100.016 0 100.246 0 100.443 0C100.575 0 100.706 0 100.805 0H101.429C101.528 0 101.659 0 101.791 0C101.988 0 102.251 0 102.547 0H102.744C103.138 0 103.532 0 103.894 0.0328442C105.669 0.0985325 107.41 0.197065 109.053 0.328442C126.767 1.87212 143.264 8.4081 156.705 19.2467C157.099 19.5751 157.494 19.8707 157.855 20.1992C158.48 20.7247 159.038 21.2173 159.597 21.7428C168.207 29.724 173.169 41.0552 173.202 52.7806V101.784C173.202 104.904 170.672 107.433 167.55 107.433ZM138.072 57.0175C141.161 57.0503 143.658 59.5793 143.658 62.6667C143.658 63.5206 143.921 64.3417 144.381 65.0643C144.874 65.7869 145.532 66.3452 146.287 66.6736L157.461 71.4032C159.564 72.29 160.911 74.3263 160.911 76.5926V101.784C160.911 104.182 162.85 106.119 165.249 106.119H167.55C169.949 106.119 171.888 104.182 171.888 101.784V52.7806C171.855 41.4165 167.024 30.4465 158.71 22.6953C158.184 22.2027 157.625 21.71 157.034 21.2173C156.639 20.8889 156.278 20.5933 155.883 20.2648C142.607 9.5905 126.372 3.15304 108.922 1.64221C107.279 1.51083 105.57 1.37945 103.828 1.34661C103.434 1.34661 103.072 1.31377 102.678 1.31377H102.547C102.251 1.31377 102.021 1.31377 101.791 1.31377C101.626 1.31377 101.528 1.31377 101.396 1.31377H100.772C100.673 1.31377 100.542 1.31377 100.41 1.31377C100.213 1.31377 99.9833 1.31377 99.7204 1.31377H99.6875C99.2603 1.31377 98.8002 1.31377 98.373 1.34661C96.6641 1.37945 94.9552 1.47799 93.2792 1.64221C76.3876 3.05451 60.5804 9.13068 47.5009 19.2138C46.7779 19.7722 46.0878 20.3305 45.3977 20.8889C44.8719 21.3159 44.4446 21.71 44.0503 22.0384C35.3744 29.8225 30.3792 40.9895 30.3135 52.6163V101.751C30.3135 104.149 32.2524 106.087 34.6514 106.087H36.9518C39.3509 106.087 41.2898 104.149 41.2898 101.751V76.5597C41.2898 74.2935 42.6372 72.2572 44.7404 71.3704L55.9139 66.6408C57.5241 65.9511 58.5429 64.4074 58.5429 62.6667C58.5429 61.1558 59.1344 59.7435 60.1861 58.6925C61.2377 57.6415 62.6508 57.0503 64.1296 57.0503L92.852 52.682C98.3401 51.8609 103.861 51.8609 109.349 52.682L138.072 57.0175Z" fill="black"/>
<path d="M136.988 53.3061L137.842 47.4927C137.941 46.8686 137.481 46.2774 136.856 46.1789L107.674 41.942C107.246 41.8763 106.819 42.1719 106.786 42.5989L105.899 48.7736C105.8 49.3976 106.261 49.9888 106.885 50.0874L135.673 54.2914C136.297 54.3899 136.889 53.9301 136.988 53.3061Z" fill="#EF6C46"/>
<path d="M135.838 54.9483C135.739 54.9483 135.673 54.9483 135.575 54.9155L106.787 50.7115C106.294 50.6458 105.867 50.383 105.604 49.9889C105.341 49.5948 105.176 49.1349 105.275 48.6423L106.162 42.4676C106.294 41.6793 107.017 41.121 107.805 41.2523L136.988 45.4892C137.481 45.5549 137.908 45.8177 138.171 46.2118C138.434 46.6059 138.598 47.0658 138.5 47.5584L137.645 53.3718C137.579 53.8645 137.317 54.2915 136.922 54.5542C136.626 54.817 136.232 54.9483 135.838 54.9483ZM107.575 42.5661C107.51 42.5661 107.444 42.6318 107.444 42.6975L106.557 48.8722C106.524 49.0036 106.557 49.1349 106.655 49.2335C106.721 49.332 106.852 49.3977 106.984 49.4305L135.772 53.6346C135.903 53.6674 136.035 53.6346 136.133 53.536C136.232 53.4704 136.298 53.339 136.331 53.2076L137.185 47.3942C137.218 47.2628 137.185 47.1314 137.086 47.0329C136.988 46.9344 136.889 46.8687 136.758 46.8358L107.575 42.5661Z" fill="black"/>
<path d="M65.3463 53.109L64.4918 47.2956C64.3933 46.6716 64.8533 46.0804 65.4777 45.9819L94.6602 41.745C95.0874 41.6793 95.5146 41.9749 95.5475 42.4019L96.4348 48.5766C96.5334 49.2006 96.0733 49.7918 95.4489 49.8903L66.6608 54.0944C66.0364 54.1929 65.4449 53.7659 65.3463 53.109Z" fill="#EF6C46"/>
<path d="M66.5292 54.7842C65.6419 54.7842 64.8532 54.1273 64.7218 53.2405L63.8673 47.4271C63.8016 46.9344 63.9331 46.4746 64.196 46.0805C64.4589 45.6863 64.919 45.4236 65.379 45.3579L94.5615 41.121C95.3502 40.9896 96.1061 41.548 96.2046 42.3362L97.0919 48.5109C97.2234 49.4963 96.5333 50.4159 95.5474 50.5801L66.7593 54.7842C66.6936 54.7513 66.595 54.7842 66.5292 54.7842ZM94.7915 42.4019C94.7587 42.4019 94.7587 42.4019 94.7915 42.4019L65.6091 46.6717C65.4776 46.7045 65.3462 46.7702 65.2805 46.8687C65.2147 46.9673 65.149 47.0986 65.1819 47.23L66.0363 53.0434C66.0692 53.1748 66.1349 53.3062 66.2335 53.3719C66.3321 53.4376 66.4635 53.5032 66.595 53.4704L95.3831 49.2663C95.646 49.2335 95.8431 48.9707 95.8103 48.6752L94.923 42.5004C94.923 42.4348 94.8572 42.4019 94.7915 42.4019Z" fill="black"/>
<path d="M96.6588 12.8907C98.5962 9.84414 99.1857 6.75125 97.9756 5.98258C96.7654 5.21392 94.2138 7.06055 92.2765 10.1072C90.3391 13.1538 89.7496 16.2467 90.9597 17.0153C92.1699 17.784 94.7215 15.9374 96.6588 12.8907Z" fill="black"/>
<path d="M111.41 16.9991C112.62 16.2304 112.031 13.1376 110.093 10.0909C108.156 7.04433 105.604 5.1977 104.394 5.96636C103.184 6.73503 103.774 9.82792 105.711 12.8745C107.648 15.9211 110.2 17.7678 111.41 16.9991Z" fill="black"/>
<path d="M109.054 1.44514C107.542 3.31726 105.866 4.49965 104.748 4.26974C103.763 4.07267 103.5 2.8246 103.927 1.1167C105.669 1.21523 107.377 1.31376 109.054 1.44514Z" fill="black"/>
<path d="M97.5844 4.3027C96.4999 4.53261 94.791 3.35022 93.2793 1.44526C94.9882 1.28103 96.6971 1.1825 98.4059 1.14966C98.8331 2.85755 98.5702 4.10563 97.5844 4.3027Z" fill="black"/>
<path d="M40.075 147.667L28.6058 152.298L11.6484 154.466L12.2728 173.976L12.6672 180.249L35.1127 182.187L48.5866 179.855L52.563 172.662L53.8775 168.261L53.6475 162.053L51.5771 155.386L40.075 147.667Z" fill="#15B06E"/>
<path d="M35.1124 182.843C35.0795 182.843 35.0795 182.843 35.0467 182.843L12.5683 180.906C12.2397 180.873 11.9768 180.61 11.9768 180.282L11.5824 174.008L10.958 154.499C10.958 154.17 11.188 153.875 11.5167 153.842L28.4083 151.674L39.8118 147.076C40.009 147.01 40.239 147.01 40.4362 147.142L51.9054 154.893C52.0369 154.992 52.1355 155.09 52.1683 155.254L54.2387 161.922C54.2716 161.987 54.2716 162.02 54.2716 162.086L54.5016 168.293C54.5016 168.359 54.5016 168.425 54.4688 168.49L53.1542 172.892C53.1542 172.924 53.1214 172.99 53.0885 173.023L49.1449 180.216C49.0463 180.38 48.882 180.511 48.6848 180.544L35.211 182.876C35.211 182.843 35.1453 182.843 35.1124 182.843ZM13.2584 179.658L35.0795 181.53L48.159 179.263L51.9383 172.399L53.22 168.162L52.9899 162.152L51.0181 155.78L40.009 148.357L28.8684 152.857C28.8027 152.89 28.7698 152.89 28.7041 152.89L12.3383 154.992L12.9298 173.91L13.2584 179.658Z" fill="black"/>
<path d="M32.417 150.492C34.6517 147.569 38.0694 145.565 41.7173 145.04C45.3651 144.514 49.21 145.467 52.1677 147.634C54.4024 149.277 56.2099 151.707 56.4071 154.466C56.6042 157.225 54.8296 160.181 52.102 160.739" fill="#15B06E"/>
<path d="M52.1346 161.363C51.8388 161.363 51.543 161.133 51.4773 160.838C51.4116 160.477 51.6416 160.148 52.0031 160.05C54.4678 159.557 55.9467 156.765 55.7824 154.466C55.618 152.134 54.1721 149.835 51.8059 148.127C48.9468 146.058 45.3319 145.138 41.8155 145.664C38.332 146.157 35.0786 148.061 32.9425 150.853C32.7125 151.149 32.3181 151.182 32.0223 150.985C31.7266 150.755 31.6937 150.361 31.8909 150.065C34.2242 146.978 37.7734 144.908 41.6184 144.35C45.4305 143.792 49.4398 144.777 52.5618 147.043C55.2237 148.981 56.8668 151.641 57.064 154.368C57.2941 157.619 55.1251 160.739 52.2331 161.331C52.2331 161.363 52.1674 161.363 52.1346 161.363Z" fill="black"/>
<path d="M20.5537 179.887C19.1405 182.548 16.0843 184.157 13.0937 184.19C10.0703 184.223 7.14552 182.745 5.07514 180.577C2.9719 178.377 1.69024 175.519 1.09871 172.563C-0.248681 166.027 1.7231 158.9 6.22535 153.973C7.40842 152.692 8.88726 151.477 10.629 151.28C12.3707 151.083 14.474 152.266 14.5397 154.039" fill="#15B06E"/>
<path d="M13.0279 184.847C9.97165 184.847 6.91538 183.468 4.5821 181.037C2.57745 178.902 1.13148 176.045 0.441352 172.695C-0.971761 165.962 1.06575 158.604 5.73231 153.514C7.3426 151.74 8.92003 150.788 10.5303 150.623C11.7134 150.492 13.0608 150.886 13.981 151.707C14.7039 152.331 15.1312 153.152 15.164 154.006C15.164 154.368 14.9011 154.663 14.5396 154.696C14.1781 154.729 13.8824 154.433 13.8495 154.072C13.8166 153.448 13.4551 152.988 13.1265 152.725C12.4692 152.167 11.5162 151.871 10.6946 151.97C9.41298 152.101 8.09845 152.922 6.7182 154.466C2.31455 159.196 0.408489 166.093 1.72301 172.432C2.34741 175.519 3.66194 178.147 5.53513 180.117C7.60551 182.285 10.3331 183.533 13.0279 183.533C13.0608 183.533 13.0608 183.533 13.0936 183.533C15.9856 183.5 18.7461 181.924 19.9949 179.592C20.1592 179.263 20.5536 179.165 20.8822 179.329C21.2108 179.493 21.3094 179.887 21.1451 180.216C19.6663 183.008 16.5114 184.847 13.0936 184.847C13.0608 184.847 13.0608 184.847 13.0279 184.847Z" fill="black"/>
<path d="M41.3558 151.215C39.4826 151.937 37.5437 152.66 35.5719 152.528C33.5673 152.397 31.4969 151.215 31.004 149.277C30.6096 147.635 31.3654 145.96 32.0556 144.416C33.5016 141.099 34.5532 137.519 34.1917 133.906C33.8302 130.293 31.7927 126.746 28.5064 125.268C25.22 123.79 20.7178 125.071 19.2718 128.388C17.5629 132.395 20.5864 136.862 20.2249 141.197C19.9948 144.087 18.2859 146.616 16.7742 149.113C15.2625 151.609 13.9151 154.466 14.5067 157.324" fill="#15B06E"/>
<path d="M14.5071 158.013C14.2113 158.013 13.9155 157.783 13.8498 157.488C13.2254 154.368 14.7042 151.346 16.2159 148.817C16.3803 148.554 16.5446 148.291 16.7089 148.029C18.0234 145.861 19.3708 143.628 19.568 141.197C19.6994 139.489 19.2722 137.683 18.845 135.909C18.2206 133.347 17.5633 130.687 18.6478 128.158C19.3379 126.581 20.6853 125.3 22.4928 124.611C24.5303 123.822 26.8636 123.855 28.7696 124.709C32.0231 126.154 34.4221 129.767 34.8493 133.873C35.1779 137.059 34.455 140.606 32.6804 144.711L32.5818 144.908C31.9574 146.321 31.333 147.766 31.6616 149.113C32.0888 150.788 33.962 151.773 35.6052 151.871C37.5112 151.97 39.4173 151.247 41.1262 150.59C41.4548 150.459 41.8492 150.623 41.9806 150.985C42.1121 151.346 41.9477 151.707 41.5863 151.839C39.7459 152.528 37.6755 153.317 35.5066 153.185C33.4362 153.054 30.9386 151.839 30.3471 149.441C29.887 147.667 30.6757 145.927 31.333 144.383L31.4316 144.186C33.1404 140.31 33.7977 136.96 33.5019 134.004C33.1404 130.358 31.0372 127.173 28.211 125.892C26.6335 125.169 24.6618 125.169 22.9529 125.826C21.5069 126.384 20.3896 127.403 19.8637 128.683C18.9436 130.785 19.5351 133.117 20.1266 135.614C20.5867 137.453 21.0468 139.391 20.8825 141.296C20.6525 144.055 19.2065 146.419 17.8262 148.718C17.6619 148.981 17.4976 149.244 17.3661 149.507C15.9859 151.839 14.6385 154.565 15.1643 157.225C15.23 157.586 15 157.915 14.6385 158.013C14.6056 158.013 14.5399 158.013 14.5071 158.013Z" fill="black"/>
<path d="M53.1865 160.378C54.5667 161.199 55.9141 162.086 57.0314 163.268C58.1159 164.451 58.9704 165.929 59.1347 167.505C59.3319 169.443 58.5103 171.414 57.0314 172.662C55.5526 173.877 53.4165 174.304 51.5762 173.713" fill="#15B06E"/>
<path d="M53.2853 174.632C52.628 174.632 52.0036 174.534 51.3792 174.337C51.0177 174.238 50.8534 173.844 50.952 173.516C51.0506 173.154 51.445 172.99 51.7736 173.089C53.4167 173.581 55.3228 173.22 56.6373 172.136C57.9518 171.052 58.6748 169.246 58.5105 167.571C58.3133 165.896 57.3603 164.549 56.5716 163.695C55.4871 162.513 54.074 161.626 52.8909 160.936C52.5623 160.739 52.4637 160.345 52.6609 160.05C52.8581 159.721 53.2524 159.623 53.5482 159.82C54.8298 160.575 56.3087 161.528 57.5246 162.841C58.4448 163.827 59.595 165.403 59.7922 167.472C60.0222 169.64 59.1349 171.841 57.4589 173.187C56.2758 174.14 54.797 174.632 53.2853 174.632Z" fill="black"/>
<path d="M51.576 173.713C53.9422 175.059 55.6511 179.362 54.5666 181.858C53.4821 184.354 50.9845 186.029 48.3883 186.752C45.7593 187.474 42.9988 187.409 40.2711 187.245C36.5247 187.015 32.7126 186.686 29.1634 185.438C25.6142 184.19 22.2622 182.022 20.3232 178.771" fill="#15B06E"/>
<path d="M43.2945 188C42.2429 188 41.2242 187.967 40.2054 187.901C36.7219 187.704 32.6797 187.376 28.9005 186.062C24.8255 184.65 21.5392 182.187 19.6988 179.132C19.5016 178.836 19.6002 178.41 19.9289 178.245C20.2246 178.048 20.6519 178.147 20.8162 178.475C22.5251 181.267 25.5156 183.533 29.3277 184.847C32.9427 186.095 36.8862 186.423 40.2711 186.621C42.9988 186.785 45.6278 186.85 48.1583 186.161C50.853 185.405 53.022 183.73 53.9093 181.628C54.8295 179.526 53.3506 175.552 51.2145 174.304C50.8859 174.107 50.7873 173.713 50.9845 173.417C51.1817 173.089 51.576 172.99 51.8718 173.187C54.5994 174.764 56.3083 179.461 55.1252 182.154C54.0408 184.617 51.6418 186.555 48.5198 187.409C46.8109 187.869 45.0363 188 43.2945 188Z" fill="black"/>
<path d="M164.954 146.321L176.423 150.984L193.414 153.152L192.789 172.662L192.395 178.935L169.917 180.873L156.443 178.541L152.499 171.348L151.185 166.914L151.415 160.739L153.485 154.072L164.954 146.321Z" fill="#15B06E"/>
<path d="M169.917 181.53C169.884 181.53 169.851 181.53 169.818 181.53L156.344 179.198C156.147 179.165 155.983 179.033 155.884 178.869L151.94 171.676C151.908 171.643 151.908 171.578 151.875 171.545L150.56 167.144C150.527 167.078 150.527 167.012 150.527 166.947L150.757 160.739C150.757 160.674 150.757 160.608 150.79 160.575L152.861 153.908C152.893 153.776 152.992 153.645 153.124 153.546L164.593 145.795C164.79 145.664 165.02 145.664 165.217 145.729L176.621 150.328L193.512 152.495C193.841 152.528 194.104 152.824 194.071 153.152L193.447 172.662L193.052 178.968C193.019 179.296 192.789 179.559 192.461 179.592L169.982 181.53C169.949 181.53 169.949 181.53 169.917 181.53ZM156.87 177.95L169.949 180.216L191.771 178.344L192.132 172.629L192.724 153.743L176.358 151.641C176.292 151.641 176.259 151.609 176.193 151.609L165.053 147.109L154.044 154.532L152.072 160.903L151.842 166.848L153.124 171.085L156.87 177.95Z" fill="black"/>
<path d="M172.611 149.145C170.377 146.222 166.959 144.219 163.311 143.693C159.663 143.168 155.818 144.12 152.861 146.288C150.626 147.93 148.819 150.361 148.621 153.119C148.424 155.878 150.199 158.834 152.926 159.393" fill="#15B06E"/>
<path d="M152.893 160.049C152.86 160.049 152.795 160.049 152.762 160.049C149.87 159.458 147.701 156.338 147.931 153.087C148.128 150.393 149.771 147.733 152.433 145.762C155.555 143.496 159.564 142.511 163.376 143.069C167.189 143.627 170.738 145.697 173.104 148.784C173.334 149.08 173.268 149.474 172.972 149.704C172.677 149.933 172.282 149.868 172.052 149.572C169.916 146.78 166.663 144.876 163.179 144.383C159.696 143.89 156.048 144.777 153.189 146.846C150.823 148.554 149.377 150.886 149.212 153.185C149.048 155.484 150.527 158.276 152.992 158.769C153.353 158.834 153.583 159.196 153.518 159.557C153.485 159.82 153.222 160.049 152.893 160.049Z" fill="black"/>
<path d="M184.475 178.574C185.888 181.234 188.944 182.843 191.935 182.876C194.958 182.909 197.883 181.431 199.953 179.263C202.024 177.096 203.305 174.238 203.93 171.282C205.277 164.746 203.305 157.619 198.803 152.693C197.62 151.412 196.141 150.196 194.399 149.999C192.658 149.802 190.554 150.985 190.489 152.758" fill="#15B06E"/>
<path d="M192 183.5C191.967 183.5 191.967 183.5 191.935 183.5C188.55 183.467 185.395 181.661 183.883 178.869C183.719 178.541 183.85 178.147 184.146 177.983C184.475 177.818 184.869 177.95 185.033 178.245C186.282 180.577 189.043 182.187 191.935 182.187C191.967 182.187 191.967 182.187 192 182.187C194.695 182.187 197.423 180.938 199.493 178.771C201.333 176.833 202.648 174.173 203.305 171.085C204.62 164.746 202.714 157.849 198.343 153.087C196.963 151.576 195.648 150.755 194.366 150.59C193.545 150.492 192.559 150.788 191.935 151.346C191.606 151.609 191.244 152.068 191.212 152.692C191.212 153.054 190.883 153.317 190.521 153.317C190.16 153.317 189.864 152.988 189.897 152.627C189.93 151.773 190.357 150.952 191.08 150.328C192 149.539 193.348 149.112 194.531 149.244C196.141 149.441 197.718 150.393 199.329 152.134C203.995 157.225 206 164.549 204.62 171.315C203.93 174.632 202.484 177.523 200.479 179.625C198.146 182.121 195.057 183.5 192 183.5Z" fill="black"/>
<path d="M163.673 149.901C165.546 150.623 167.485 151.346 169.457 151.214C171.461 151.083 173.532 149.901 174.025 147.963C174.419 146.321 173.663 144.646 172.973 143.102C171.527 139.785 170.476 136.205 170.837 132.592C171.198 129.012 173.236 125.432 176.522 123.954C179.809 122.476 184.311 123.757 185.757 127.074C187.466 131.081 184.442 135.548 184.804 139.883C185.034 142.774 186.743 145.303 188.254 147.799C189.733 150.295 191.114 153.152 190.522 156.01" fill="#15B06E"/>
<path d="M190.522 156.667C190.489 156.667 190.423 156.667 190.39 156.667C190.029 156.601 189.799 156.24 189.864 155.878C190.39 153.185 189.043 150.459 187.662 148.16C187.498 147.897 187.334 147.634 187.202 147.372C185.822 145.073 184.376 142.708 184.146 139.949C183.982 138.011 184.442 136.106 184.902 134.267C185.493 131.804 186.052 129.472 185.165 127.337C184.606 126.056 183.522 125.071 182.076 124.479C180.367 123.822 178.395 123.822 176.818 124.545C173.959 125.826 171.888 129.012 171.527 132.658C171.231 135.613 171.888 138.931 173.597 142.839L173.696 143.036C174.386 144.58 175.142 146.321 174.682 148.094C174.09 150.492 171.592 151.707 169.522 151.839C167.353 151.97 165.283 151.182 163.442 150.492C163.114 150.361 162.917 149.999 163.048 149.638C163.179 149.31 163.541 149.145 163.902 149.244C165.611 149.901 167.55 150.623 169.423 150.525C171.067 150.426 172.973 149.441 173.367 147.766C173.696 146.419 173.071 144.974 172.447 143.562L172.348 143.365C170.541 139.259 169.851 135.712 170.179 132.526C170.607 128.421 172.973 124.808 176.259 123.363C178.165 122.509 180.498 122.476 182.536 123.264C184.31 123.954 185.691 125.235 186.381 126.811C187.465 129.34 186.808 132.001 186.184 134.562C185.756 136.303 185.329 138.142 185.461 139.85C185.658 142.281 187.005 144.514 188.32 146.682C188.484 146.945 188.648 147.207 188.813 147.47C190.324 149.999 191.803 153.021 191.179 156.141C191.113 156.47 190.85 156.667 190.522 156.667Z" fill="black"/>
<path d="M151.841 159.031C150.461 159.853 149.114 160.739 147.996 161.922C146.879 163.104 146.058 164.582 145.893 166.159C145.696 168.096 146.518 170.067 147.996 171.315C149.475 172.53 151.611 172.957 153.452 172.366" fill="#15B06E"/>
<path d="M151.776 173.319C150.264 173.319 148.786 172.793 147.603 171.841C145.927 170.461 145.039 168.261 145.269 166.126C145.499 164.089 146.617 162.48 147.537 161.495C148.753 160.181 150.232 159.261 151.513 158.473C151.842 158.276 152.236 158.407 152.401 158.703C152.598 159.031 152.466 159.426 152.171 159.59C150.955 160.312 149.574 161.199 148.49 162.349C147.701 163.17 146.748 164.516 146.551 166.224C146.354 167.932 147.11 169.706 148.424 170.79C149.739 171.874 151.645 172.235 153.288 171.742C153.649 171.644 154.011 171.841 154.109 172.169C154.208 172.53 154.011 172.892 153.682 172.99C153.058 173.22 152.401 173.319 151.776 173.319Z" fill="black"/>
<path d="M153.485 172.399C151.119 173.746 149.41 178.048 150.495 180.544C151.579 183.041 154.077 184.716 156.673 185.438C159.302 186.161 162.062 186.095 164.79 185.931C168.536 185.701 172.349 185.372 175.898 184.124C179.447 182.876 182.799 180.709 184.738 177.457" fill="#15B06E"/>
<path d="M161.734 186.686C159.959 186.686 158.218 186.555 156.509 186.062C153.387 185.175 150.955 183.27 149.903 180.807C148.72 178.114 150.429 173.417 153.157 171.841C153.485 171.644 153.88 171.775 154.044 172.071C154.241 172.399 154.11 172.793 153.814 172.957C151.678 174.205 150.199 178.18 151.119 180.282C152.007 182.351 154.176 184.059 156.87 184.814C159.401 185.504 162.03 185.438 164.757 185.274C168.142 185.077 172.086 184.748 175.701 183.5C179.48 182.187 182.503 179.92 184.212 177.129C184.41 176.833 184.804 176.734 185.1 176.899C185.395 177.096 185.494 177.49 185.33 177.785C183.489 180.84 180.203 183.303 176.128 184.716C172.349 186.029 168.307 186.358 164.823 186.555C163.837 186.621 162.786 186.686 161.734 186.686Z" fill="black"/>
</svg>
