<svg width="244" height="189" viewBox="0 0 244 189" fill="none" xmlns="http://www.w3.org/2000/svg">
<path d="M39.7845 139.704C39.7845 139.704 100.036 127.993 122.175 127.993C144.315 127.993 204.194 139.704 204.194 139.704V57.4377H39.7845V139.704Z" fill="black"/>
<path d="M110.34 155.181C108.354 155.181 106.864 153.319 107.361 151.415C109.016 144.836 114.975 139.994 122.051 139.994C129.128 139.994 135.087 144.836 136.742 151.415C137.238 153.319 135.749 155.181 133.762 155.181H110.34Z" fill="#F3A2BE"/>
<path d="M133.804 156.009H110.34C109.14 156.009 108.023 155.471 107.278 154.519C106.533 153.567 106.285 152.367 106.575 151.25C108.395 144.174 114.768 139.208 122.093 139.208C129.417 139.208 135.79 144.174 137.611 151.25C137.9 152.409 137.652 153.609 136.907 154.519C136.162 155.429 135.045 156.009 133.804 156.009ZM122.093 140.822C115.513 140.822 109.802 145.25 108.188 151.622C108.023 152.284 108.147 152.947 108.602 153.484C109.016 154.022 109.678 154.354 110.382 154.354H133.845C134.549 154.354 135.169 154.022 135.624 153.484C136.038 152.947 136.204 152.284 136.038 151.622C134.383 145.25 128.631 140.822 122.093 140.822Z" fill="black"/>
<path d="M85.5113 141.442C105.715 141.442 122.093 125.064 122.093 104.861C122.093 84.6577 105.715 68.2797 85.5113 68.2797C65.308 68.2797 48.9299 84.6577 48.9299 104.861C48.9299 125.064 65.308 141.442 85.5113 141.442Z" fill="white"/>
<path d="M85.5113 142.27C64.9032 142.27 48.1023 125.469 48.1023 104.861C48.1023 84.253 64.9032 67.4521 85.5113 67.4521C106.119 67.4521 122.92 84.253 122.92 104.861C122.92 125.469 106.119 142.27 85.5113 142.27ZM85.5113 69.0659C65.8136 69.0659 49.7576 85.122 49.7576 104.82C49.7576 124.517 65.8136 140.573 85.5113 140.573C105.209 140.573 121.265 124.517 121.265 104.82C121.265 85.122 105.209 69.0659 85.5113 69.0659Z" fill="black"/>
<path d="M158.674 141.442C178.877 141.442 195.255 125.064 195.255 104.861C195.255 84.6577 178.877 68.2797 158.674 68.2797C138.471 68.2797 122.093 84.6577 122.093 104.861C122.093 125.064 138.471 141.442 158.674 141.442Z" fill="white"/>
<path d="M158.674 142.27C138.066 142.27 121.265 125.469 121.265 104.861C121.265 84.253 138.066 67.4521 158.674 67.4521C179.282 67.4521 196.083 84.253 196.083 104.861C196.083 125.469 179.282 142.27 158.674 142.27ZM158.674 69.0659C138.976 69.0659 122.92 85.122 122.92 104.82C122.92 124.517 138.976 140.573 158.674 140.573C178.372 140.573 194.428 124.517 194.428 104.82C194.428 85.122 178.372 69.0659 158.674 69.0659Z" fill="black"/>
<path d="M89.4839 122.738C98.9914 122.738 106.699 115.031 106.699 105.523C106.699 96.0157 98.9914 88.3083 89.4839 88.3083C79.9765 88.3083 72.2692 96.0157 72.2692 105.523C72.2692 115.031 79.9765 122.738 89.4839 122.738Z" fill="black"/>
<path d="M154.453 122.738C163.961 122.738 171.668 115.031 171.668 105.523C171.668 96.0157 163.961 88.3083 154.453 88.3083C144.946 88.3083 137.239 96.0157 137.239 105.523C137.239 115.031 144.946 122.738 154.453 122.738Z" fill="black"/>
<path d="M121.969 186.59C106.616 186.59 83.3181 182.617 59.3167 163.747C44.9987 152.491 37.3017 141.36 37.012 140.863C36.0602 139.456 36.3913 137.511 37.8397 136.559C39.2466 135.608 41.1916 135.939 42.1433 137.387C42.2261 137.511 49.7162 148.353 63.3307 159.03C75.7866 168.796 96.0636 180.424 121.969 180.424C147.915 180.424 168.192 168.796 180.606 159.03C194.221 148.353 201.711 137.511 201.794 137.387C202.745 135.98 204.69 135.608 206.097 136.601C207.504 137.553 207.877 139.497 206.925 140.904C206.594 141.36 198.897 152.533 184.62 163.788C171.378 174.134 149.736 186.59 121.969 186.59Z" fill="black"/>
<path d="M207.67 121.662H201.09C199.725 121.662 198.566 122.779 198.566 124.186V137.842C198.566 139.208 199.683 140.366 201.09 140.366H207.67C209.036 140.366 210.194 139.249 210.194 137.842V124.186C210.194 122.779 209.036 121.662 207.67 121.662Z" fill="#EF6C46"/>
<path d="M207.67 141.153H201.09C199.27 141.153 197.738 139.663 197.738 137.801V124.145C197.738 122.324 199.228 120.793 201.09 120.793H207.67C209.491 120.793 211.022 122.283 211.022 124.145V137.801C211.022 139.663 209.491 141.153 207.67 141.153ZM201.09 122.49C200.18 122.49 199.394 123.234 199.394 124.186V137.842C199.394 138.753 200.139 139.539 201.09 139.539H207.67C208.58 139.539 209.367 138.794 209.367 137.842V124.186C209.367 123.276 208.622 122.49 207.67 122.49H201.09Z" fill="black"/>
<path d="M131.362 178.852H116.216C115.347 178.852 114.644 179.555 114.644 180.424V186.507C114.644 187.376 115.347 188.08 116.216 188.08H131.362C132.231 188.08 132.934 187.376 132.934 186.507V180.424C132.934 179.596 132.19 178.852 131.362 178.852Z" fill="#EF6C46"/>
<path d="M131.362 188.907H116.216C114.892 188.907 113.816 187.831 113.816 186.507V180.424C113.816 179.1 114.892 178.024 116.216 178.024H131.362C132.686 178.024 133.762 179.1 133.762 180.424V186.507C133.762 187.831 132.686 188.907 131.362 188.907ZM116.216 179.679C115.803 179.679 115.472 180.01 115.472 180.424V186.507C115.472 186.921 115.803 187.252 116.216 187.252H131.362C131.776 187.252 132.107 186.921 132.107 186.507V180.424C132.107 180.01 131.776 179.679 131.362 179.679H116.216Z" fill="black"/>
<path d="M131.362 178.852H120.148C119.279 178.852 118.575 179.555 118.575 180.424V186.507C118.575 187.376 119.279 188.08 120.148 188.08H131.362C132.231 188.08 132.935 187.376 132.935 186.507V180.424C132.935 179.596 132.19 178.852 131.362 178.852Z" fill="#EF6C46"/>
<path d="M131.362 188.907H120.148C118.823 188.907 117.748 187.831 117.748 186.507V180.424C117.748 179.1 118.823 178.024 120.148 178.024H131.362C132.686 178.024 133.762 179.1 133.762 180.424V186.507C133.762 187.831 132.686 188.907 131.362 188.907ZM120.148 179.679C119.734 179.679 119.403 180.01 119.403 180.424V186.507C119.403 186.921 119.734 187.252 120.148 187.252H131.362C131.776 187.252 132.107 186.921 132.107 186.507V180.424C132.107 180.01 131.776 179.679 131.362 179.679H120.148Z" fill="black"/>
<path d="M43.0537 121.662H36.474C35.1084 121.662 33.9497 122.779 33.9497 124.186V137.842C33.9497 139.208 35.067 140.366 36.474 140.366H43.0537C44.4193 140.366 45.5779 139.249 45.5779 137.842V124.186C45.5779 122.779 44.4193 121.662 43.0537 121.662Z" fill="#EF6C46"/>
<path d="M43.0538 141.153H36.4741C34.6533 141.153 33.1222 139.663 33.1222 137.801V124.145C33.1222 122.324 34.6119 120.793 36.4741 120.793H43.0538C44.8746 120.793 46.4057 122.283 46.4057 124.145V137.801C46.4057 139.663 44.8746 141.153 43.0538 141.153ZM36.4741 122.49C35.5637 122.49 34.7775 123.234 34.7775 124.186V137.842C34.7775 138.753 35.5223 139.539 36.4741 139.539H43.0538C43.9642 139.539 44.7504 138.794 44.7504 137.842V124.186C44.7504 123.276 44.0056 122.49 43.0538 122.49H36.4741Z" fill="black"/>
<path d="M211.932 66.5003V128.242C211.932 131.718 209.118 134.532 205.642 134.532H202.745C199.269 134.532 196.455 131.718 196.455 128.242V96.5019C196.455 93.9777 194.966 91.7017 192.607 90.7085L178.537 84.7496C177.379 84.253 176.427 83.4253 175.765 82.4322C175.103 81.439 174.73 80.239 174.73 78.9561C174.73 75.4801 171.916 72.6661 168.44 72.6661L132.19 67.121C125.362 66.0864 118.451 66.0864 111.665 67.121L75.4142 72.6661C73.6762 72.6661 72.1037 73.3696 70.9864 74.5283C69.8691 75.6456 69.1242 77.2595 69.1242 78.9561C69.1242 81.4804 67.6345 83.7564 65.2757 84.7496L51.206 90.7085C48.8886 91.7017 47.3575 93.9777 47.3575 96.5019V128.242C47.3575 131.718 44.5435 134.532 41.0675 134.532H38.1707C34.6947 134.532 31.8807 131.718 31.8807 128.242V66.3347C31.9635 51.396 38.3777 37.1607 49.4679 27.1877C50.0473 26.6911 50.6266 26.1945 51.206 25.698C52.075 24.9945 52.944 24.2496 53.8544 23.5875C70.0346 11.173 90.0633 3.1036 112.037 1.24142C114.189 1.03451 116.341 0.910369 118.492 0.868988C119.072 0.868988 119.651 0.827606 120.231 0.827606C120.81 0.827606 121.265 0.827606 121.555 0.827606H122.341C122.672 0.827606 123.127 0.827606 123.748 0.827606H123.913C124.41 0.827606 124.907 0.827606 125.403 0.868988C127.596 0.951751 129.748 1.0759 131.859 1.24142C154.536 3.22774 175.144 11.7937 191.448 24.8703C191.945 25.2428 192.441 25.6566 192.897 26.0704C193.642 26.6911 194.345 27.3119 195.049 27.974C205.725 37.9055 211.891 51.8925 211.932 66.5003Z" fill="#F3A2BE"/>
<path d="M205.684 135.359H202.787C198.856 135.359 195.669 132.173 195.669 128.242V96.502C195.669 94.3087 194.345 92.3224 192.317 91.4948L178.248 85.5358C176.965 84.9979 175.889 84.0875 175.103 82.9288C174.316 81.7701 173.944 80.4045 173.944 78.9975C173.944 75.9767 171.502 73.5352 168.482 73.5352H168.357L132.107 67.99C125.362 66.9555 118.534 66.9555 111.83 67.99L75.5385 73.5352H75.4557C74.0074 73.5352 72.6418 74.1145 71.6072 75.149C70.5727 76.1836 69.9933 77.5492 69.9933 78.9975C69.9933 81.8529 68.2967 84.4185 65.6483 85.5358L51.5785 91.4948C49.5508 92.3638 48.2266 94.3087 48.2266 96.502V128.242C48.2266 132.173 45.0402 135.359 41.109 135.359H38.2122C34.281 135.359 31.0946 132.173 31.0946 128.242V66.3348C31.1774 51.1891 37.7157 36.7055 48.9301 26.567C49.4267 26.1118 50.006 25.6152 50.7095 25.0359C51.5785 24.3324 52.4475 23.5875 53.3993 22.884C70.1589 10.0144 90.3945 2.23461 111.954 0.413816C114.106 0.206908 116.299 0.0827633 118.451 0.0413816C118.989 0.0413816 119.569 0 120.148 0H120.231C120.603 0 120.893 0 121.141 0C121.307 0 121.472 0 121.596 0H122.382C122.507 0 122.672 0 122.838 0C123.086 0 123.417 0 123.789 0H124.038C124.534 0 125.031 0 125.486 0.0413816C127.721 0.124145 129.914 0.24829 131.983 0.413816C154.288 2.35875 175.02 10.5937 191.986 24.2496C192.483 24.6635 192.98 25.0359 193.435 25.4497C194.221 26.1118 194.924 26.7325 195.628 27.3946C206.47 37.4504 212.719 51.727 212.76 66.5003V128.242C212.76 132.173 209.574 135.359 205.684 135.359ZM168.564 71.8385C172.454 71.8799 175.599 75.0663 175.599 78.9562C175.599 80.0321 175.93 81.0666 176.51 81.977C177.13 82.8874 177.958 83.5909 178.91 84.0047L192.98 89.9637C195.628 91.081 197.325 93.6466 197.325 96.502V128.242C197.325 131.263 199.766 133.704 202.787 133.704H205.684C208.705 133.704 211.146 131.263 211.146 128.242V66.5003C211.105 52.1822 205.022 38.3608 194.552 28.5947C193.89 27.974 193.186 27.3533 192.442 26.7325C191.945 26.3187 191.49 25.9463 190.993 25.5325C174.275 12.0834 153.791 3.97264 131.817 2.06908C129.748 1.90356 127.597 1.73803 125.403 1.69665C124.948 1.65527 124.452 1.65527 123.996 1.65527H123.789C123.417 1.65527 123.127 1.65527 122.838 1.65527C122.631 1.65527 122.507 1.65527 122.341 1.65527H121.555C121.431 1.65527 121.265 1.65527 121.1 1.65527C120.851 1.65527 120.562 1.65527 120.231 1.65527H120.189C119.651 1.65527 119.072 1.65527 118.534 1.69665C116.382 1.73803 114.23 1.86217 112.12 2.06908C90.8497 3.84849 70.9451 11.5041 54.4752 24.2083C53.5648 24.9117 52.6958 25.6152 51.8268 26.3187C51.1647 26.8567 50.6267 27.3533 50.1302 27.7671C39.2054 37.5745 32.9154 51.6443 32.8326 66.2934V128.2C32.8326 131.221 35.2741 133.663 38.295 133.663H41.1917C44.2126 133.663 46.6541 131.221 46.6541 128.2V96.4606C46.6541 93.6052 48.3507 91.0396 50.9992 89.9223L65.0689 83.9633C67.0966 83.0943 68.3795 81.1494 68.3795 78.9562C68.3795 77.0526 69.1243 75.2732 70.4485 73.949C71.7728 72.6248 73.5522 71.8799 75.4143 71.8799L111.582 66.3761C118.493 65.3416 125.486 65.3416 132.355 66.3761L168.564 71.8385Z" fill="black"/>
<path d="M167.199 67.1624L168.275 59.8379C168.399 59.0516 167.819 58.3067 167.033 58.1826L130.286 52.8444C129.748 52.7616 129.21 53.134 129.169 53.672L128.052 61.4517C127.928 62.238 128.507 62.9829 129.293 63.107L165.543 68.4039C166.33 68.528 167.075 67.9487 167.199 67.1624Z" fill="#EF6C46"/>
<path d="M165.709 69.2314C165.585 69.2314 165.502 69.2314 165.378 69.1901L129.128 63.8932C127.886 63.7277 127.017 62.5276 127.183 61.2862L128.3 53.5064C128.383 53.0098 128.631 52.596 129.003 52.3064C129.376 52.0167 129.873 51.8925 130.369 51.9753L167.116 57.3135C168.357 57.4791 169.226 58.6791 169.061 59.9206L167.985 67.2451C167.819 68.4038 166.868 69.2314 165.709 69.2314ZM130.121 53.6306C130.038 53.6306 129.955 53.7133 129.955 53.7961L128.838 61.5758C128.797 61.9069 129.045 62.238 129.376 62.3207L165.626 67.6176C165.792 67.6589 165.957 67.6176 166.081 67.4934C166.206 67.4107 166.288 67.2451 166.33 67.0796L167.406 59.7551C167.447 59.424 167.199 59.0929 166.868 59.0102L130.121 53.6306C130.162 53.6306 130.162 53.6306 130.121 53.6306Z" fill="black"/>
<path d="M76.9866 66.9142L75.9107 59.5897C75.7866 58.8034 76.3659 58.0585 77.1522 57.9344L113.899 52.5962C114.437 52.5134 114.975 52.8858 115.016 53.4238L116.134 61.2035C116.258 61.9898 115.678 62.7347 114.892 62.8588L78.6419 68.1557C77.8556 68.2798 77.1108 67.7418 76.9866 66.9142Z" fill="#EF6C46"/>
<path d="M78.4351 69.0246C77.3178 69.0246 76.3247 68.197 76.1591 67.0797L75.0832 59.7551C74.9177 58.5137 75.7867 57.355 77.0281 57.1481L113.775 51.8099C114.768 51.6857 115.72 52.3478 115.844 53.341L116.961 61.1207C117.127 62.3622 116.258 63.5209 115.016 63.7278L78.7662 69.0246C78.642 68.9832 78.5593 69.0246 78.4351 69.0246ZM114.023 53.4237L77.2764 58.8034C76.9454 58.8447 76.6971 59.1758 76.7385 59.5482L77.8144 66.8728C77.8558 67.2038 78.1868 67.4521 78.5593 67.4107L114.81 62.1139C114.975 62.0725 115.141 61.9897 115.223 61.8656C115.306 61.7414 115.389 61.5759 115.348 61.4104L114.23 53.6307C114.189 53.4651 114.106 53.4237 114.023 53.4237Z" fill="black"/>
<path d="M116.382 16.254C118.821 12.4155 119.563 8.5186 118.04 7.55013C116.516 6.58166 113.303 8.90831 110.863 12.7468C108.424 16.5854 107.681 20.4822 109.205 21.4507C110.729 22.4192 113.942 20.0925 116.382 16.254Z" fill="black"/>
<path d="M134.952 21.4258C136.475 20.4573 135.733 16.5605 133.293 12.7219C130.854 8.88339 127.641 6.55674 126.117 7.52521C124.593 8.49368 125.336 12.3905 127.775 16.2291C130.215 20.0676 133.428 22.3943 134.952 21.4258Z" fill="black"/>
<path d="M131.983 1.8208C130.079 4.17955 127.969 5.66929 126.562 5.37962C125.32 5.13133 124.989 3.55883 125.527 1.40698C127.721 1.53113 129.872 1.65527 131.983 1.8208Z" fill="black"/>
<path d="M117.582 5.42103C116.217 5.7107 114.065 4.22096 112.161 1.82083C114.313 1.61392 116.465 1.48978 118.617 1.44839C119.113 3.60024 118.824 5.17274 117.582 5.42103Z" fill="black"/>
<path d="M234.154 153.236C236.72 152.864 239.906 153.981 242.306 157.292C243.838 159.402 242.886 162.423 242.224 164.906C239.658 174.589 232.085 182.783 222.65 186.093C220.167 186.962 217.478 187.5 214.912 186.879C212.346 186.259 210.029 184.19 209.739 181.583" fill="#15B06E"/>
<path d="M217.188 187.997C216.319 187.997 215.491 187.914 214.705 187.707C211.601 186.962 209.201 184.479 208.911 181.707C208.87 181.251 209.201 180.838 209.656 180.796C210.111 180.755 210.525 181.086 210.567 181.541C210.815 183.652 212.677 185.514 215.119 186.135C217.105 186.631 219.505 186.383 222.36 185.348C231.588 182.079 238.913 174.175 241.437 164.699L241.561 164.244C242.182 161.968 242.844 159.402 241.644 157.788C239.699 155.098 236.927 153.691 234.278 154.064C233.823 154.147 233.409 153.815 233.327 153.36C233.244 152.905 233.575 152.491 234.03 152.408C237.299 151.953 240.651 153.567 242.968 156.795C244.624 159.071 243.796 162.175 243.134 164.657L243.01 165.113C240.361 175.127 232.664 183.445 222.898 186.879C220.788 187.624 218.926 187.997 217.188 187.997Z" fill="black"/>
<path d="M213.96 179.514C196.745 181.665 178.703 175.706 166.164 163.747C164.467 162.133 162.771 160.312 161.985 158.078C161.198 155.843 161.447 153.071 163.185 151.498C165.585 149.264 169.433 150.091 172.578 151.084C180.068 153.443 187.558 155.802 195.049 158.161C186.814 155.512 179.075 151.25 172.413 145.746C170.385 144.049 168.399 142.229 167.199 139.87C165.999 137.511 165.668 134.573 166.95 132.297C168.275 129.856 171.171 128.573 173.944 128.449C176.716 128.324 179.448 129.235 182.055 130.228C189.503 133.125 196.497 137.139 202.746 142.063C197.987 138.877 193.104 135.566 189.71 130.973C186.276 126.379 184.538 120.089 186.689 114.793C188.841 109.496 195.793 106.144 200.759 109.041C203.449 110.613 205.021 113.468 206.47 116.2C210.111 123.028 213.794 129.856 217.436 136.684C216.691 132.504 215.946 128.242 216.401 123.979C216.815 119.758 218.595 115.455 222.029 112.889C225.423 110.323 230.678 110.034 233.823 112.889C237.382 116.117 237.216 121.662 236.761 126.462C235.644 138.09 234.485 149.719 233.368 161.388" fill="#15B06E"/>
<path d="M206.925 180.755C191.738 180.755 176.675 174.879 165.626 164.326C163.847 162.63 162.109 160.768 161.24 158.326C160.412 156.009 160.536 152.822 162.688 150.836C165.419 148.312 169.557 149.222 172.909 150.257L181.517 152.988C178.165 151.043 174.937 148.808 171.999 146.367C169.971 144.67 167.861 142.767 166.578 140.242C165.13 137.428 165.047 134.201 166.33 131.883C167.695 129.4 170.675 127.745 174.027 127.621C176.965 127.497 179.82 128.449 182.468 129.483C185.2 130.559 187.848 131.759 190.455 133.083C190 132.587 189.586 132.049 189.172 131.511C186.027 127.29 183.586 120.627 186.069 114.503C187.31 111.441 190.124 108.875 193.393 107.758C196.207 106.806 199.021 107.013 201.339 108.337C204.318 110.075 206.015 113.261 207.38 115.827L215.988 131.966C215.615 129.318 215.45 126.628 215.739 123.938C216.236 118.972 218.429 114.71 221.698 112.268C225.63 109.33 231.257 109.33 234.527 112.31C238.21 115.662 238.251 121.124 237.713 126.586L234.32 161.512C234.278 161.968 233.864 162.299 233.409 162.257C232.954 162.216 232.623 161.802 232.664 161.347L236.058 126.421C236.554 121.414 236.554 116.365 233.409 113.551C230.719 111.11 225.961 111.151 222.65 113.634C219.753 115.786 217.808 119.634 217.353 124.145C216.939 128.283 217.684 132.545 218.388 136.601C218.471 137.015 218.222 137.387 217.85 137.511C217.477 137.635 217.022 137.47 216.857 137.139L205.89 116.655C204.608 114.255 203.035 111.317 200.469 109.827C198.607 108.751 196.249 108.585 193.89 109.372C191.076 110.323 188.634 112.558 187.6 115.165C185.365 120.627 187.641 126.669 190.497 130.559C192.235 132.918 194.345 134.904 196.662 136.725C198.98 138.215 201.214 139.787 203.408 141.484C203.739 141.773 203.821 142.27 203.573 142.601C203.325 142.973 202.828 143.056 202.456 142.808C200.304 141.36 197.987 139.828 195.793 138.09C191.407 135.318 186.772 132.959 181.931 131.056C179.448 130.104 176.799 129.235 174.151 129.318C171.958 129.4 169.144 130.352 167.819 132.711C166.785 134.573 166.909 137.18 168.109 139.539C169.268 141.815 171.213 143.594 173.116 145.167C179.655 150.588 187.393 154.85 195.462 157.457C195.876 157.581 196.124 158.078 196 158.492C195.876 158.947 195.38 159.154 194.966 159.03L172.371 151.871C169.268 150.877 165.833 150.174 163.764 152.077C162.191 153.526 162.15 156.009 162.771 157.788C163.516 159.899 165.13 161.595 166.743 163.126C179.199 174.961 196.828 180.796 213.877 178.686C214.332 178.644 214.746 178.934 214.788 179.389C214.829 179.845 214.539 180.258 214.084 180.3C211.684 180.631 209.325 180.755 206.925 180.755Z" fill="black"/>
<path d="M9.78299 153.236C7.21733 152.864 4.03094 153.94 1.63081 157.25C0.0996899 159.361 1.05147 162.382 1.71357 164.864C4.27923 174.548 11.8521 182.741 21.2871 186.052C23.77 186.921 26.4598 187.459 29.0254 186.838C31.5911 186.217 33.9085 184.148 34.1982 181.541" fill="#15B06E"/>
<path d="M26.7494 187.997C25.0528 187.997 23.1492 187.624 21.0387 186.879C11.2727 183.445 3.57569 175.086 0.885886 165.113L0.803123 164.658C0.141017 162.175 -0.686616 159.071 0.968649 156.795C3.28602 153.609 6.63793 151.953 9.90708 152.409C10.3623 152.491 10.6933 152.905 10.6106 153.36C10.5278 153.816 10.114 154.147 9.65879 154.064C7.01037 153.691 4.2378 155.098 2.29286 157.788C1.09279 159.443 1.79628 162.009 2.37562 164.244L2.49977 164.699C5.02405 174.175 12.3072 182.079 21.5767 185.348C24.4734 186.383 26.8322 186.631 28.8185 186.135C31.26 185.555 33.1636 183.652 33.3705 181.541C33.4118 181.086 33.8257 180.755 34.2809 180.796C34.7361 180.838 35.0671 181.252 35.0257 181.707C34.7361 184.479 32.3359 186.962 29.2323 187.707C28.4461 187.873 27.6184 187.997 26.7494 187.997Z" fill="black"/>
<path d="M29.9771 179.514C47.1919 181.665 65.2342 175.706 77.7729 163.747C79.4695 162.133 81.1662 160.312 81.9524 158.078C82.7387 155.843 82.4904 153.071 80.7523 151.498C78.3522 149.264 74.5037 150.091 71.3587 151.084C63.8686 153.443 56.3786 155.802 48.8885 158.161C57.1234 155.512 64.8618 151.25 71.5242 145.746C73.5519 144.049 75.5383 142.229 76.7383 139.87C77.9384 137.511 78.2695 134.573 76.9866 132.297C75.6624 129.856 72.7657 128.573 69.9931 128.449C67.2206 128.324 64.4894 129.235 61.8823 130.228C54.4336 133.125 47.4401 137.139 41.1915 142.063C45.9504 138.877 50.8334 135.566 54.2267 130.973C57.6614 126.379 59.3994 120.089 57.2476 114.793C55.0957 109.496 48.1436 106.144 43.1778 109.041C40.488 110.613 38.9155 113.468 37.4672 116.2C33.8256 123.028 30.1426 129.856 26.501 136.684C27.2459 132.504 27.9908 128.242 27.5356 123.979C27.1218 119.758 25.3424 115.455 21.9077 112.889C18.473 110.323 13.2589 110.034 10.1139 112.889C6.55509 116.117 6.72062 121.662 7.17582 126.462C8.29312 138.09 9.45181 149.719 10.5691 161.388" fill="#15B06E"/>
<path d="M37.0121 180.755C34.6119 180.755 32.2532 180.589 29.853 180.3C29.3978 180.258 29.0668 179.845 29.1495 179.389C29.1909 178.934 29.6047 178.603 30.0599 178.686C47.1092 180.796 64.7377 175.003 77.1936 163.126C78.8075 161.595 80.4214 159.857 81.1662 157.788C81.787 156.009 81.7456 153.526 80.1731 152.077C78.104 150.174 74.6693 150.877 71.5657 151.871L49.0955 158.947C48.6403 159.071 48.1851 158.864 48.0609 158.409C47.9368 157.995 48.1437 157.498 48.5989 157.374C56.6683 154.767 64.4067 150.505 70.945 145.084C72.8485 143.511 74.7935 141.732 75.9522 139.456C77.1522 137.139 77.2764 134.532 76.2418 132.628C74.9176 130.228 72.1037 129.318 69.9104 129.235C67.262 129.152 64.6136 130.021 62.1721 130.973C57.3304 132.876 52.6957 135.235 48.3092 138.008C46.116 139.746 43.7986 141.277 41.6468 142.725C41.2744 142.973 40.7778 142.891 40.5295 142.518C40.2812 142.146 40.3226 141.649 40.695 141.401C42.8469 139.704 45.1228 138.09 47.4402 136.642C49.7162 134.821 51.8681 132.835 53.6061 130.476C56.4614 126.628 58.7374 120.545 56.5028 115.082C55.4269 112.475 53.0267 110.241 50.2128 109.289C47.854 108.503 45.5367 108.627 43.6331 109.744C41.0675 111.234 39.4949 114.172 38.2121 116.572L27.246 137.056C27.0391 137.428 26.6253 137.594 26.2528 137.428C25.8804 137.304 25.6321 136.89 25.7149 136.518C26.4184 132.421 27.1632 128.2 26.7494 124.062C26.2942 119.551 24.3493 115.744 21.4526 113.551C18.142 111.068 13.4245 111.027 10.6933 113.468C7.54833 116.324 7.54833 121.331 8.04491 126.338L11.4382 161.264C11.4796 161.719 11.1485 162.133 10.6933 162.175C10.2381 162.216 9.82432 161.885 9.78294 161.43L6.38964 126.504C5.85168 121.083 5.89306 115.579 9.57603 112.227C12.8452 109.289 18.5145 109.247 22.4043 112.186C25.6735 114.627 27.8253 118.889 28.3633 123.855C28.653 126.545 28.4461 129.235 28.115 131.883L36.7224 115.744C38.088 113.179 39.7846 109.992 42.7641 108.254C45.0815 106.93 47.8954 106.723 50.7094 107.675C53.9785 108.792 56.7925 111.358 58.0339 114.42C60.5168 120.503 58.0753 127.207 54.9303 131.428C54.5165 131.966 54.1027 132.504 53.6475 133.001C56.2131 131.676 58.9029 130.435 61.6341 129.4C64.2825 128.366 67.1379 127.414 70.076 127.538C73.4279 127.662 76.4074 129.318 77.773 131.8C79.0558 134.159 78.973 137.346 77.5247 140.16C76.2418 142.684 74.1728 144.587 72.1037 146.284C69.1242 148.726 65.9378 150.96 62.5859 152.905L71.1933 150.174C74.5452 149.139 78.6833 148.229 81.4145 150.753C83.525 152.74 83.6491 155.926 82.8629 158.243C81.9939 160.685 80.2559 162.547 78.4764 164.244C67.262 174.879 52.2405 180.755 37.0121 180.755Z" fill="black"/>
</svg>
