<svg width="230" height="202" viewBox="0 0 230 202" fill="none" xmlns="http://www.w3.org/2000/svg">
<path d="M41.9183 125.019C41.9183 125.019 95.5503 114.572 115.257 114.572C134.964 114.572 188.264 125.019 188.264 125.019V51.6351H41.9183V125.019Z" fill="black"/>
<path d="M125.645 125.277C127.413 125.277 128.739 126.938 128.297 128.636C126.823 134.505 121.519 138.824 115.22 138.824C108.921 138.824 103.617 134.505 102.144 128.636C101.702 126.938 103.028 125.277 104.796 125.277H125.645Z" fill="#F3A2BE"/>
<path d="M115.184 139.563C108.664 139.563 102.991 135.133 101.37 128.821C101.113 127.787 101.334 126.717 101.997 125.905C102.66 125.056 103.654 124.576 104.722 124.576H125.608C126.676 124.576 127.671 125.056 128.334 125.905C128.997 126.754 129.218 127.824 128.96 128.821C127.376 135.133 121.703 139.563 115.184 139.563ZM104.722 126.015C104.096 126.015 103.544 126.311 103.138 126.791C102.77 127.27 102.623 127.861 102.77 128.452C104.207 134.136 109.29 138.086 115.147 138.086C121.003 138.086 126.087 134.136 127.523 128.452C127.671 127.861 127.56 127.27 127.155 126.791C126.787 126.311 126.197 126.015 125.571 126.015H104.722Z" fill="black"/>
<path d="M82.6213 126.569C100.605 126.569 115.184 111.96 115.184 93.9379C115.184 75.9161 100.605 61.3065 82.6213 61.3065C64.6377 61.3065 50.0591 75.9161 50.0591 93.9379C50.0591 111.96 64.6377 126.569 82.6213 126.569Z" fill="white"/>
<path d="M82.6212 127.307C64.2773 127.307 49.3223 112.321 49.3223 93.9379C49.3223 75.555 64.2773 60.5682 82.6212 60.5682C100.965 60.5682 115.92 75.555 115.92 93.9379C115.92 112.321 100.965 127.307 82.6212 127.307ZM82.6212 62.0079C65.0877 62.0079 50.7957 76.3302 50.7957 93.9009C50.7957 111.472 65.0877 125.794 82.6212 125.794C100.155 125.794 114.447 111.472 114.447 93.9009C114.447 76.3302 100.155 62.0079 82.6212 62.0079Z" fill="black"/>
<path d="M147.746 126.569C165.729 126.569 180.308 111.96 180.308 93.9379C180.308 75.9161 165.729 61.3065 147.746 61.3065C129.762 61.3065 115.183 75.9161 115.183 93.9379C115.183 111.96 129.762 126.569 147.746 126.569Z" fill="white"/>
<path d="M147.746 127.307C129.402 127.307 114.447 112.321 114.447 93.9379C114.447 75.555 129.402 60.5682 147.746 60.5682C166.09 60.5682 181.045 75.555 181.045 93.9379C181.045 112.321 166.09 127.307 147.746 127.307ZM147.746 62.0079C130.212 62.0079 115.92 76.3302 115.92 93.9009C115.92 111.472 130.212 125.794 147.746 125.794C165.279 125.794 179.571 111.509 179.571 93.9379C179.571 76.3671 165.279 62.0079 147.746 62.0079Z" fill="black"/>
<path d="M86.1943 109.884C94.6571 109.884 101.518 103.009 101.518 94.5284C101.518 86.0476 94.6571 79.1725 86.1943 79.1725C77.7314 79.1725 70.8708 86.0476 70.8708 94.5284C70.8708 103.009 77.7314 109.884 86.1943 109.884Z" fill="black"/>
<path d="M143.988 109.884C152.451 109.884 159.312 103.009 159.312 94.5284C159.312 86.0476 152.451 79.1725 143.988 79.1725C135.526 79.1725 128.665 86.0476 128.665 94.5284C128.665 103.009 135.526 109.884 143.988 109.884Z" fill="black"/>
<path d="M115.073 166.842C101.407 166.842 80.6688 163.298 59.3044 146.465C46.5595 136.425 39.7082 126.495 39.4503 126.052C38.6031 124.797 38.8978 123.062 40.187 122.213C41.4394 121.364 43.1707 121.66 44.0179 122.952C44.0915 123.062 50.7587 132.734 62.8774 142.257C73.9648 150.969 92.014 161.342 115.073 161.342C138.168 161.342 156.218 150.969 167.268 142.257C179.387 132.734 186.054 123.062 186.128 122.952C186.975 121.697 188.706 121.364 189.959 122.25C191.211 123.099 191.543 124.834 190.695 126.089C190.401 126.495 183.549 136.462 170.841 146.502C159.054 155.731 139.826 166.842 115.073 166.842Z" fill="black"/>
<path d="M191.359 108.925H185.502C184.286 108.925 183.255 109.921 183.255 111.176V123.358C183.255 124.576 184.249 125.609 185.502 125.609H191.359C192.574 125.609 193.606 124.613 193.606 123.358V111.176C193.606 109.921 192.574 108.925 191.359 108.925Z" fill="#EF6C46"/>
<path d="M191.359 126.311H185.502C183.881 126.311 182.518 124.982 182.518 123.321V111.139C182.518 109.515 183.844 108.149 185.502 108.149H191.359C192.979 108.149 194.342 109.478 194.342 111.139V123.321C194.342 124.982 193.016 126.311 191.359 126.311ZM185.539 109.663C184.728 109.663 184.028 110.327 184.028 111.176V123.358C184.028 124.17 184.691 124.871 185.539 124.871H191.359C192.169 124.871 192.869 124.207 192.869 123.358V111.176C192.869 110.364 192.206 109.663 191.359 109.663H185.539Z" fill="black"/>
<path d="M123.435 159.939H109.953C109.179 159.939 108.553 160.566 108.553 161.342V166.768C108.553 167.543 109.179 168.17 109.953 168.17H123.435C124.208 168.17 124.834 167.543 124.834 166.768V161.342C124.834 160.603 124.208 159.939 123.435 159.939Z" fill="#EF6C46"/>
<path d="M123.435 168.909H109.953C108.774 168.909 107.817 167.949 107.817 166.768V161.342C107.817 160.16 108.774 159.201 109.953 159.201H123.435C124.613 159.201 125.571 160.16 125.571 161.342V166.768C125.571 167.949 124.613 168.909 123.435 168.909ZM109.953 160.677C109.585 160.677 109.29 160.972 109.29 161.342V166.768C109.29 167.137 109.585 167.432 109.953 167.432H123.435C123.803 167.432 124.098 167.137 124.098 166.768V161.342C124.098 160.972 123.803 160.677 123.435 160.677H109.953Z" fill="black"/>
<path d="M123.435 159.939H113.452C112.679 159.939 112.052 160.566 112.052 161.342V166.768C112.052 167.543 112.679 168.17 113.452 168.17H123.435C124.208 168.17 124.834 167.543 124.834 166.768V161.342C124.834 160.603 124.208 159.939 123.435 159.939Z" fill="#EF6C46"/>
<path d="M123.435 168.909H113.452C112.274 168.909 111.316 167.949 111.316 166.768V161.342C111.316 160.16 112.274 159.201 113.452 159.201H123.435C124.613 159.201 125.571 160.16 125.571 161.342V166.768C125.571 167.949 124.613 168.909 123.435 168.909ZM113.452 160.677C113.084 160.677 112.789 160.972 112.789 161.342V166.768C112.789 167.137 113.084 167.432 113.452 167.432H123.435C123.803 167.432 124.098 167.137 124.098 166.768V161.342C124.098 160.972 123.803 160.677 123.435 160.677H113.452Z" fill="black"/>
<path d="M44.8283 108.925H38.9716C37.756 108.925 36.7246 109.921 36.7246 111.176V123.358C36.7246 124.576 37.7192 125.609 38.9716 125.609H44.8283C46.0439 125.609 47.0753 124.613 47.0753 123.358V111.176C47.0753 109.921 46.0807 108.925 44.8283 108.925Z" fill="#EF6C46"/>
<path d="M44.8283 126.311H38.9716C37.3508 126.311 35.9879 124.982 35.9879 123.321V111.139C35.9879 109.515 37.314 108.149 38.9716 108.149H44.8283C46.4491 108.149 47.812 109.478 47.812 111.139V123.321C47.812 124.982 46.4859 126.311 44.8283 126.311ZM39.0084 109.663C38.198 109.663 37.4982 110.327 37.4982 111.176V123.358C37.4982 124.17 38.1612 124.871 39.0084 124.871H44.8652C45.6756 124.871 46.3754 124.207 46.3754 123.358V111.176C46.3754 110.364 45.7124 109.663 44.8652 109.663H39.0084Z" fill="black"/>
<path d="M195.189 59.7193V114.794C195.189 117.895 192.685 120.405 189.59 120.405H187.012C183.918 120.405 181.413 117.895 181.413 114.794V86.4815C181.413 84.2298 180.087 82.1995 177.987 81.3136L165.463 75.9981C164.432 75.5552 163.585 74.8169 162.996 73.931C162.406 73.045 162.075 71.9746 162.075 70.8303C162.075 67.7295 159.57 65.2194 156.476 65.2194L124.208 60.273C118.13 59.3502 111.979 59.3502 105.938 60.273L73.6703 65.2194C72.1233 65.2194 70.7235 65.847 69.729 66.8805C68.7344 67.8772 68.0714 69.3168 68.0714 70.8303C68.0714 73.082 66.7453 75.1122 64.6457 75.9981L52.1218 81.3136C50.059 82.1995 48.6961 84.2298 48.6961 86.4815V114.794C48.6961 117.895 46.1913 120.405 43.0972 120.405H40.5187C37.4246 120.405 34.9198 117.895 34.9198 114.794V59.5717C34.9935 46.246 40.7029 33.5478 50.5747 24.6517C51.0904 24.2087 51.6061 23.7658 52.1218 23.3228C52.8953 22.6953 53.6689 22.0309 54.4792 21.4403C68.8449 10.3663 86.6731 3.16817 106.233 1.50707C108.148 1.32251 110.063 1.21177 111.979 1.17485C112.495 1.17485 113.01 1.13794 113.526 1.13794C114.042 1.13794 114.447 1.13794 114.705 1.13794H115.405C115.699 1.13794 116.104 1.13794 116.657 1.13794H116.804C117.246 1.13794 117.688 1.13794 118.13 1.17485C120.083 1.24868 121.998 1.35942 123.877 1.50707C144.062 3.27891 162.406 10.92 176.919 22.5846C177.361 22.9168 177.803 23.2859 178.208 23.6551C178.871 24.2088 179.498 24.7625 180.124 25.3531C189.627 34.2123 195.116 46.6889 195.189 59.7193Z" fill="#F3A2BE"/>
<path d="M189.59 121.143H187.012C183.513 121.143 180.676 118.301 180.676 114.794V86.4813C180.676 84.5249 179.498 82.7531 177.693 82.0148L165.169 76.6993C164.027 76.2194 163.069 75.4074 162.369 74.3738C161.669 73.3402 161.338 72.1221 161.338 70.867C161.338 68.1723 159.165 65.9945 156.476 65.9945H156.365L124.098 61.0481C118.093 60.1253 112.016 60.1253 106.048 61.0481L73.7439 65.9945H73.6702C72.381 65.9945 71.1655 66.5113 70.2446 67.4341C69.3237 68.3569 68.808 69.5751 68.808 70.867C68.808 73.414 67.2978 75.7027 64.9403 76.6993L52.4164 82.0148C50.6115 82.79 49.4327 84.5249 49.4327 86.4813V114.794C49.4327 118.301 46.5964 121.143 43.0971 121.143H40.5186C37.0193 121.143 34.183 118.301 34.183 114.794V59.5716C34.2567 46.0613 40.0766 33.1416 50.0589 24.0979C50.5009 23.6918 51.0166 23.2489 51.6428 22.7321C52.4164 22.1046 53.2267 21.4401 54.0371 20.8126C68.9553 9.33255 86.9677 2.39285 106.196 0.768669C108.111 0.584103 110.063 0.473363 111.979 0.436449C112.458 0.436449 112.973 0.399536 113.489 0.399536H113.563C113.894 0.399536 114.152 0.399536 114.373 0.399536C114.52 0.399536 114.668 0.399536 114.778 0.399536H115.478C115.589 0.399536 115.736 0.399536 115.883 0.399536C116.104 0.399536 116.399 0.399536 116.73 0.399536H116.952C117.394 0.399536 117.836 0.399536 118.241 0.436449C120.23 0.510276 122.182 0.621016 124.024 0.768669C143.878 2.50359 162.369 9.84934 177.435 22.0307C177.877 22.3999 178.319 22.7321 178.724 23.1012C179.424 23.6918 180.05 24.2455 180.676 24.8361C190.327 33.8061 195.889 46.5412 195.926 59.7192V114.794C195.926 118.301 193.09 121.143 189.59 121.143ZM156.549 64.481C160.012 64.5179 162.811 67.3603 162.811 70.8301C162.811 71.7899 163.106 72.7127 163.622 73.5248C164.174 74.3369 164.911 74.9644 165.758 75.3335L178.282 80.649C180.639 81.6457 182.15 83.9343 182.15 86.4813V114.794C182.15 117.489 184.323 119.666 187.012 119.666H189.59C192.279 119.666 194.453 117.489 194.453 114.794V59.7192C194.416 46.9472 189.001 34.6182 179.682 25.9066C179.092 25.3529 178.466 24.7992 177.803 24.2455C177.361 23.8764 176.956 23.5442 176.514 23.175C161.633 11.1782 143.436 3.94321 123.84 2.2452C121.998 2.09755 120.083 1.94989 118.13 1.91298C117.725 1.87607 117.32 1.87607 116.878 1.87607H116.694C116.362 1.87607 116.104 1.87607 115.846 1.87607C115.662 1.87607 115.552 1.87607 115.404 1.87607H114.741C114.631 1.87607 114.484 1.87607 114.336 1.87607C114.115 1.87607 113.857 1.87607 113.563 1.87607H113.526C113.047 1.87607 112.531 1.87607 112.052 1.91298C110.137 1.94989 108.222 2.06063 106.343 2.2452C87.4097 3.83247 69.692 10.6614 55.0317 21.9938C54.2213 22.6213 53.4478 23.2489 52.6742 23.8764C52.0849 24.3563 51.606 24.7992 51.164 25.1684C41.4395 33.9168 35.8406 46.4673 35.7669 59.5346V114.757C35.7669 117.452 37.9402 119.629 40.6291 119.629H43.2076C45.8966 119.629 48.0698 117.452 48.0698 114.757V86.4444C48.0698 83.8974 49.5801 81.6088 51.9375 80.6121L64.4615 75.2966C66.2664 74.5214 67.4083 72.7865 67.4083 70.8301C67.4083 69.1321 68.0713 67.5448 69.25 66.3636C70.4287 65.1824 72.0127 64.5179 73.6702 64.5179L105.864 59.6085C112.016 58.6856 118.204 58.6856 124.355 59.6085L156.549 64.481Z" fill="black"/>
<path d="M155.334 60.3097L156.291 53.776C156.402 53.0747 155.886 52.4102 155.186 52.2995L122.477 47.5007C121.998 47.4269 121.519 47.7591 121.482 48.239L120.488 55.1787C120.377 55.8801 120.893 56.5445 121.593 56.6552L153.86 61.3801C154.56 61.5278 155.223 61.011 155.334 60.3097Z" fill="#EF6C46"/>
<path d="M154.044 62.1555C153.934 62.1555 153.86 62.1555 153.75 62.1186L121.482 57.3937C120.377 57.246 119.604 56.1755 119.751 55.0681L120.745 48.1284C120.893 47.2425 121.703 46.615 122.587 46.7627L155.297 51.5245C155.849 51.5983 156.328 51.8936 156.623 52.3366C156.918 52.7795 157.102 53.2963 156.991 53.85L156.034 60.3837C155.886 61.4172 155.039 62.1555 154.044 62.1555ZM122.366 48.2392C122.293 48.2392 122.219 48.313 122.219 48.3868L121.224 55.3265C121.187 55.6218 121.408 55.9172 121.703 55.991L153.971 60.7159C154.265 60.7528 154.56 60.5313 154.634 60.236L155.591 53.7023C155.628 53.5547 155.591 53.407 155.481 53.2963C155.37 53.1856 155.26 53.1117 155.113 53.0748L122.366 48.2392Z" fill="black"/>
<path d="M75.033 60.0883L74.0752 53.5546C73.9647 52.8533 74.4804 52.1889 75.1803 52.0781L107.89 47.3163C108.369 47.2425 108.848 47.5747 108.884 48.0546L109.879 54.9943C109.989 55.6956 109.474 56.3601 108.774 56.4708L76.5064 61.1957C75.8065 61.3064 75.1435 60.8266 75.033 60.0883Z" fill="#EF6C46"/>
<path d="M76.3222 61.9709C75.3277 61.9709 74.4436 61.2327 74.2963 60.236L73.3386 53.7023C73.2649 53.1486 73.4123 52.6319 73.7069 52.1889C74.0016 51.7459 74.5173 51.4506 75.033 51.3768L107.743 46.615C108.185 46.5412 108.59 46.6519 108.958 46.9103C109.29 47.1687 109.548 47.5378 109.584 47.9808L110.579 54.9205C110.653 55.4742 110.505 55.991 110.211 56.4339C109.879 56.8769 109.4 57.1722 108.884 57.246L76.6169 61.9709C76.5064 61.934 76.4327 61.9709 76.3222 61.9709ZM75.7697 59.9776C75.8065 60.2729 76.1012 60.4944 76.4327 60.4575L108.7 55.7326C108.848 55.6957 108.995 55.6218 109.069 55.5111C109.142 55.4004 109.216 55.2527 109.179 55.105L108.185 48.1653C108.185 48.1284 108.148 48.0915 108.111 48.0546C108.074 48.0177 108.037 48.0177 108 48.0177L75.2909 52.8164C75.1435 52.8533 74.9962 52.9272 74.9225 53.0379C74.8488 53.1486 74.7752 53.2963 74.812 53.4439L75.7697 59.9776Z" fill="black"/>
<path d="M110.123 14.8729C112.294 11.4488 112.955 7.97271 111.599 7.10881C110.242 6.24492 107.382 8.32035 105.211 11.7444C103.039 15.1685 102.379 18.6445 103.735 19.5084C105.091 20.3723 107.951 18.2969 110.123 14.8729Z" fill="black"/>
<path d="M126.631 19.5151C127.987 18.6512 127.326 15.1751 125.155 11.7511C122.983 8.32699 120.123 6.25157 118.767 7.11547C117.411 7.97936 118.071 11.4554 120.243 14.8795C122.414 18.3036 125.274 20.379 126.631 19.5151Z" fill="black"/>
<path d="M45.0861 156.211L32.2307 161.415L13.2238 163.852L13.9236 185.778L14.3656 192.829L39.524 195.006L54.6264 192.422L59.0835 184.302L60.5569 179.355L60.299 172.379L57.9784 164.922L45.0861 156.211Z" fill="#15B06E"/>
<path d="M39.524 195.745C39.4872 195.745 39.4872 195.745 39.4504 195.745L14.2551 193.567C13.8868 193.53 13.5921 193.235 13.5921 192.865L13.1501 185.815L12.4502 163.888C12.4502 163.519 12.708 163.187 13.0764 163.15L32.0097 160.714L44.7914 155.546C45.0125 155.472 45.2703 155.472 45.4913 155.62L58.3836 164.295C58.531 164.405 58.6415 164.516 58.6783 164.701L60.9989 172.194C61.0357 172.268 61.0357 172.305 61.0357 172.379L61.2936 179.355C61.2936 179.429 61.2936 179.503 61.2568 179.577L59.7833 184.523C59.7833 184.56 59.7465 184.634 59.7097 184.671L55.2895 192.755C55.179 192.939 54.9948 193.087 54.7738 193.124L39.6714 195.745C39.6345 195.745 39.5609 195.745 39.524 195.745ZM15.0287 192.164L39.4872 194.268L54.1476 191.721L58.3836 184.006L59.8202 179.244L59.5623 172.489L57.3522 165.328L45.0125 156.986L32.5253 162.043C32.4517 162.08 32.4148 162.08 32.3412 162.08L13.9973 164.442L14.6603 185.704L15.0287 192.164Z" fill="black"/>
<path d="M36.5033 159.385C39.0081 156.1 42.8389 153.848 46.9276 153.258C51.0163 152.667 55.326 153.737 58.6412 156.174C61.146 158.019 63.1719 160.751 63.3929 163.852C63.6139 166.952 61.6248 170.275 58.5675 170.902" fill="#15B06E"/>
<path d="M58.6045 171.603C58.273 171.603 57.9415 171.345 57.8678 171.013C57.7942 170.607 58.052 170.238 58.4572 170.127C61.2198 169.573 62.8774 166.436 62.6932 163.852C62.509 161.231 60.8883 158.647 58.2362 156.727C55.0315 154.402 50.9796 153.368 47.0383 153.959C43.1338 154.513 39.4871 156.654 37.0928 159.791C36.835 160.123 36.3929 160.16 36.0614 159.939C35.7299 159.68 35.6931 159.237 35.9141 158.905C38.5294 155.435 42.5076 153.11 46.8173 152.482C51.0902 151.855 55.584 152.962 59.0834 155.509C62.067 157.687 63.9088 160.677 64.1298 163.741C64.3876 167.395 61.9565 170.902 58.715 171.566C58.715 171.603 58.6414 171.603 58.6045 171.603Z" fill="black"/>
<path d="M23.2061 192.423C21.6222 195.413 18.1965 197.221 14.8445 197.258C11.4557 197.295 8.17739 195.634 5.85678 193.198C3.53616 190.761 2.06276 187.513 1.39973 184.228C-0.110515 176.882 2.09959 168.872 7.14601 163.335C8.47207 161.895 10.1297 160.529 12.0819 160.308C14.0342 160.087 16.3916 161.415 16.4653 163.409" fill="#15B06E"/>
<path d="M14.7708 197.996C11.3451 197.996 7.91943 196.446 5.30414 193.715C3.05719 191.315 1.43645 188.104 0.66291 184.375C-0.921001 176.808 1.36278 168.54 6.59336 162.818C8.39829 160.825 10.1664 159.754 11.9713 159.57C13.2974 159.422 14.8076 159.865 15.839 160.788C16.6494 161.489 17.1282 162.412 17.165 163.372C17.165 163.778 16.8704 164.11 16.4652 164.147C16.06 164.147 15.7285 163.852 15.6916 163.446C15.6548 162.744 15.2496 162.228 14.8813 161.932C14.1446 161.305 13.0763 160.972 12.1555 161.083C10.7189 161.231 9.24549 162.154 7.69842 163.889C2.76251 169.167 0.626074 176.956 2.09948 184.08C2.79935 187.55 4.27275 190.503 6.37235 192.718C8.69297 195.154 11.7503 196.557 14.7708 196.557C14.8076 196.557 14.8076 196.557 14.8444 196.557C18.0859 196.52 21.1801 194.748 22.5798 192.127C22.764 191.758 23.206 191.647 23.5744 191.832C23.9427 192.017 24.0532 192.459 23.869 192.829C22.2115 195.966 18.6753 198.033 14.8444 198.033C14.8076 197.996 14.8076 197.996 14.7708 197.996Z" fill="black"/>
<path d="M46.5226 160.234C44.423 161.046 42.2497 161.858 40.0396 161.711C37.8295 161.563 35.472 160.234 34.9195 158.056C34.4775 156.211 35.3247 154.328 36.0982 152.593C37.719 148.865 38.8977 144.841 38.4925 140.781C38.0873 136.757 35.8036 132.734 32.12 131.073C28.4365 129.412 23.3901 130.851 21.7694 134.579C19.8539 139.083 23.2428 144.103 22.8376 148.976C22.5797 152.224 20.6643 155.066 18.9699 157.872C17.3123 160.677 15.7652 163.889 16.4283 167.1" fill="#15B06E"/>
<path d="M16.4283 167.838C16.0968 167.838 15.7653 167.58 15.6916 167.248C14.9918 163.741 16.6493 160.345 18.3437 157.503C18.5279 157.207 18.7121 156.912 18.8963 156.617C20.3697 154.18 21.8799 151.67 22.1009 148.939C22.2483 147.019 21.7694 144.989 21.2906 142.996C20.5907 140.116 19.854 137.126 21.0695 134.284C21.8431 132.512 23.3533 131.073 25.3793 130.297C27.663 129.411 30.2783 129.448 32.4148 130.408C36.0614 132.032 38.7504 136.093 39.2293 140.707C39.5976 144.288 38.7872 148.274 36.7981 152.888L36.6876 153.11C35.9878 154.697 35.2879 156.321 35.6563 157.835C36.1351 159.717 38.2347 160.825 40.0765 160.935C42.2129 161.046 44.3494 160.234 46.2648 159.496C46.6331 159.348 47.0751 159.533 47.2225 159.939C47.3698 160.308 47.1857 160.751 46.7805 160.899C44.7177 161.674 42.3971 162.56 39.966 162.412C37.6454 162.264 34.8459 160.899 34.1829 158.204C33.6672 156.211 34.5512 154.254 35.2879 152.519L35.3984 152.298C37.3138 147.942 38.0505 144.177 37.719 140.855C37.3138 136.757 34.9564 133.177 31.7886 131.737C30.0205 130.925 27.8104 130.925 25.895 131.663C24.2742 132.291 23.0218 133.435 22.4325 134.875C21.4011 137.237 22.0641 139.858 22.7271 142.663C23.2428 144.731 23.7585 146.908 23.5743 149.049C23.3165 152.15 21.6957 154.808 20.1487 157.392C19.9645 157.687 19.7803 157.982 19.633 158.278C18.0859 160.899 16.5757 163.962 17.165 166.952C17.2387 167.358 16.9809 167.727 16.5757 167.838C16.5388 167.838 16.4652 167.838 16.4283 167.838Z" fill="black"/>
<path d="M59.7834 170.496C61.3305 171.419 62.8408 172.416 64.0931 173.744C65.3455 175.073 66.2664 176.734 66.4506 178.506C66.6716 180.684 65.7507 182.899 64.0931 184.302C62.4356 185.667 60.0413 186.147 57.9785 185.483" fill="#15B06E"/>
<path d="M59.8939 186.516C59.1572 186.516 58.4574 186.406 57.7575 186.184C57.3523 186.073 57.1681 185.63 57.2787 185.261C57.3892 184.855 57.8312 184.671 58.1995 184.781C60.0413 185.335 62.1777 184.929 63.6511 183.711C65.1245 182.493 65.9349 180.463 65.7507 178.58C65.5297 176.697 64.4615 175.184 63.5775 174.224C62.3251 172.895 60.778 171.899 59.4519 171.124C59.0836 170.902 58.9731 170.459 59.1941 170.127C59.4151 169.758 59.8571 169.647 60.1886 169.869C61.6252 170.718 63.2828 171.788 64.6457 173.265C65.6771 174.372 66.9663 176.144 67.1873 178.469C67.4451 180.906 66.4506 183.379 64.572 184.892C63.2459 185.963 61.5884 186.516 59.8939 186.516Z" fill="black"/>
<path d="M57.9782 185.483C60.6303 186.996 62.5458 191.832 61.3302 194.637C60.1146 197.443 57.3152 199.325 54.4052 200.137C51.4584 200.949 48.3642 200.876 45.3069 200.691C41.1077 200.433 36.8348 200.064 32.8566 198.661C28.8785 197.258 25.1213 194.822 22.948 191.167" fill="#15B06E"/>
<path d="M48.6958 201.54C47.5171 201.54 46.3752 201.503 45.2333 201.429C41.3288 201.208 36.798 200.839 32.562 199.362C27.9944 197.775 24.3109 195.006 22.2482 191.574C22.0272 191.241 22.1377 190.761 22.506 190.577C22.8375 190.355 23.3164 190.466 23.5006 190.835C25.416 193.973 28.768 196.52 33.0409 197.996C37.0927 199.399 41.5129 199.768 45.3069 199.99C48.3643 200.174 51.3111 200.248 54.1474 199.473C57.1679 198.624 59.599 196.741 60.5935 194.379C61.6249 192.016 59.9673 187.55 57.573 186.147C57.2047 185.926 57.0942 185.483 57.3152 185.151C57.5362 184.781 57.9782 184.671 58.3097 184.892C61.3671 186.664 63.2825 191.943 61.9564 194.97C60.7409 197.738 58.0519 199.916 54.5526 200.876C52.6371 201.392 50.648 201.54 48.6958 201.54Z" fill="black"/>
<path d="M185.06 154.697L197.915 159.939L216.959 162.375L216.259 184.301L215.817 191.352L190.622 193.53L175.519 190.909L171.099 182.825L169.626 177.879L169.884 170.902L172.204 163.409L185.06 154.697Z" fill="#15B06E"/>
<path d="M190.622 194.268C190.585 194.268 190.548 194.268 190.511 194.268L175.409 191.647C175.188 191.61 175.004 191.463 174.893 191.278L170.473 183.194C170.436 183.157 170.436 183.083 170.399 183.046L168.926 178.1C168.889 178.026 168.889 177.952 168.889 177.878L169.147 170.902C169.147 170.828 169.147 170.754 169.184 170.717L171.504 163.224C171.541 163.076 171.652 162.929 171.799 162.818L184.654 154.106C184.875 153.959 185.133 153.959 185.354 154.033L198.136 159.2L217.069 161.637C217.438 161.674 217.732 162.006 217.695 162.375L216.996 184.301L216.554 191.389C216.517 191.758 216.259 192.053 215.891 192.09L190.695 194.268C190.658 194.268 190.658 194.268 190.622 194.268ZM175.998 190.244L190.658 192.791L215.117 190.687L215.522 184.264L216.185 163.039L197.841 160.677C197.768 160.677 197.731 160.64 197.657 160.64L185.17 155.583L172.83 163.925L170.62 171.086L170.362 177.842L171.799 182.603L175.998 190.244Z" fill="black"/>
<path d="M193.642 157.908C191.137 154.623 187.307 152.371 183.218 151.781C179.129 151.19 174.819 152.261 171.504 154.697C168.999 156.543 166.974 159.274 166.753 162.375C166.532 165.476 168.521 168.798 171.578 169.425" fill="#15B06E"/>
<path d="M171.541 170.127C171.504 170.127 171.431 170.127 171.394 170.127C168.152 169.462 165.721 165.956 165.979 162.301C166.2 159.274 168.042 156.284 171.025 154.07C174.525 151.522 179.019 150.415 183.291 151.043C187.564 151.67 191.543 153.996 194.195 157.466C194.453 157.798 194.379 158.241 194.047 158.499C193.716 158.758 193.274 158.684 193.016 158.351C190.622 155.214 186.975 153.073 183.07 152.519C179.166 151.965 175.077 152.962 171.873 155.288C169.22 157.207 167.6 159.828 167.416 162.412C167.231 164.996 168.889 168.133 171.652 168.687C172.057 168.761 172.315 169.167 172.241 169.573C172.204 169.868 171.909 170.127 171.541 170.127Z" fill="black"/>
<path d="M206.94 190.946C208.523 193.936 211.949 195.744 215.301 195.781C218.69 195.818 221.968 194.157 224.289 191.721C226.61 189.285 228.046 186.073 228.746 182.751C230.256 175.405 228.046 167.395 223 161.858C221.674 160.418 220.016 159.053 218.064 158.831C216.112 158.61 213.754 159.939 213.68 161.932" fill="#15B06E"/>
<path d="M215.375 196.52C215.338 196.52 215.338 196.52 215.301 196.52C211.507 196.483 207.971 194.453 206.277 191.315C206.092 190.946 206.24 190.503 206.571 190.318C206.94 190.134 207.382 190.281 207.566 190.614C208.965 193.234 212.06 195.043 215.301 195.043C215.338 195.043 215.338 195.043 215.375 195.043C218.395 195.043 221.453 193.64 223.773 191.204C225.836 189.026 227.309 186.036 228.046 182.566C229.519 175.442 227.383 167.69 222.484 162.338C220.937 160.64 219.464 159.717 218.027 159.533C217.106 159.422 216.001 159.754 215.301 160.382C214.933 160.677 214.528 161.194 214.491 161.895C214.491 162.301 214.122 162.633 213.717 162.596C213.312 162.596 212.981 162.227 213.017 161.821C213.054 160.861 213.533 159.939 214.343 159.237C215.375 158.351 216.885 157.871 218.211 158.019C220.016 158.241 221.784 159.311 223.589 161.267C228.82 166.989 231.067 175.221 229.519 182.825C228.746 186.553 227.125 189.801 224.878 192.164C222.263 194.932 218.8 196.52 215.375 196.52Z" fill="black"/>
<path d="M183.623 158.72C185.723 159.532 187.896 160.345 190.106 160.197C192.353 160.049 194.674 158.72 195.226 156.543C195.668 154.697 194.821 152.814 194.048 151.079C192.427 147.351 191.248 143.328 191.653 139.267C192.058 135.244 194.342 131.22 198.026 129.559C201.709 127.898 206.756 129.337 208.376 133.066C210.292 137.569 206.903 142.589 207.308 147.462C207.566 150.71 209.481 153.553 211.176 156.358C212.833 159.163 214.381 162.375 213.717 165.586" fill="#15B06E"/>
<path d="M213.717 166.325C213.681 166.325 213.607 166.325 213.57 166.325C213.165 166.251 212.907 165.845 212.981 165.439C213.57 162.412 212.06 159.348 210.513 156.764C210.329 156.469 210.144 156.174 209.997 155.878C208.45 153.294 206.829 150.637 206.571 147.536C206.387 145.358 206.903 143.217 207.419 141.15C208.082 138.381 208.708 135.76 207.713 133.361C207.087 131.921 205.871 130.814 204.251 130.15C202.335 129.411 200.125 129.411 198.357 130.223C195.152 131.663 192.832 135.244 192.427 139.341C192.095 142.663 192.832 146.391 194.747 150.784L194.858 151.006C195.631 152.741 196.479 154.697 195.963 156.69C195.3 159.385 192.5 160.751 190.18 160.898C187.749 161.046 185.428 160.16 183.365 159.385C182.997 159.237 182.776 158.831 182.923 158.425C183.071 158.056 183.476 157.835 183.881 157.982C185.796 158.721 187.97 159.533 190.069 159.422C191.911 159.311 194.047 158.204 194.489 156.321C194.858 154.808 194.158 153.184 193.458 151.596L193.348 151.375C191.322 146.761 190.548 142.774 190.916 139.193C191.395 134.579 194.047 130.519 197.731 128.895C199.867 127.935 202.483 127.898 204.766 128.784C206.756 129.559 208.303 130.999 209.076 132.77C210.292 135.613 209.555 138.603 208.855 141.482C208.376 143.438 207.897 145.506 208.045 147.425C208.266 150.157 209.776 152.667 211.249 155.103C211.434 155.398 211.618 155.694 211.802 155.989C213.496 158.831 215.154 162.227 214.454 165.734C214.38 166.103 214.086 166.325 213.717 166.325Z" fill="black"/>
<path d="M170.362 168.982C168.815 169.905 167.305 170.902 166.053 172.231C164.8 173.56 163.879 175.221 163.695 176.993C163.474 179.17 164.395 181.385 166.053 182.788C167.71 184.191 170.104 184.634 172.167 183.969" fill="#15B06E"/>
<path d="M170.252 185.04C168.557 185.04 166.9 184.449 165.574 183.379C163.695 181.828 162.701 179.355 162.959 176.956C163.216 174.667 164.469 172.858 165.5 171.751C166.863 170.274 168.521 169.241 169.957 168.355C170.326 168.133 170.768 168.281 170.952 168.613C171.173 168.982 171.025 169.425 170.694 169.61C169.331 170.422 167.784 171.419 166.568 172.711C165.684 173.633 164.616 175.147 164.395 177.066C164.174 178.986 165.021 180.979 166.495 182.197C167.968 183.415 170.105 183.821 171.946 183.268C172.351 183.157 172.757 183.379 172.867 183.748C172.978 184.154 172.757 184.56 172.388 184.671C171.725 184.929 170.989 185.04 170.252 185.04Z" fill="black"/>
<path d="M172.204 184.006C169.552 185.52 167.637 190.355 168.852 193.161C170.068 195.966 172.867 197.849 175.777 198.661C178.724 199.473 181.818 199.399 184.875 199.214C189.075 198.956 193.348 198.587 197.326 197.184C201.304 195.818 205.061 193.345 207.234 189.691" fill="#15B06E"/>
<path d="M181.45 200.063C179.461 200.063 177.508 199.916 175.593 199.362C172.094 198.365 169.368 196.224 168.189 193.456C166.863 190.429 168.778 185.15 171.836 183.379C172.204 183.157 172.646 183.305 172.83 183.637C173.051 184.006 172.904 184.449 172.572 184.634C170.178 186.036 168.521 190.503 169.552 192.865C170.547 195.191 172.978 197.11 175.998 197.959C178.834 198.734 181.781 198.661 184.839 198.476C188.633 198.255 193.053 197.885 197.105 196.483C201.341 195.006 204.73 192.459 206.645 189.322C206.866 188.989 207.308 188.879 207.64 189.063C207.971 189.285 208.082 189.728 207.897 190.06C205.835 193.493 202.151 196.261 197.584 197.849C193.347 199.325 188.817 199.694 184.912 199.916C183.807 200.026 182.628 200.063 181.45 200.063Z" fill="black"/>
</svg>
