<svg width="157" height="79" viewBox="0 0 157 79" fill="none" xmlns="http://www.w3.org/2000/svg">
<path d="M30.2384 6.976C29.3024 6.904 28.4024 6.688 27.4664 6.688C26.1704 6.688 26.0264 7.588 26.0264 8.632C26.0264 9.388 26.1704 10.144 26.1704 10.936C26.2424 13.672 26.2424 16.444 26.2424 19.18C26.2424 25.012 26.2064 30.808 26.2064 36.64C26.2064 37.324 25.9904 38.008 25.9904 38.692C25.9904 39.52 26.2064 39.556 26.9624 39.556C28.3304 39.556 29.7344 39.34 31.1024 39.124C31.5704 39.052 32.1104 39.052 32.1104 38.404C32.1104 37.792 32.0744 37.18 32.0744 36.568C32.0744 36.172 32.0024 35.992 31.6064 35.992C30.8504 35.992 30.2024 36.424 29.4824 36.424C29.0144 36.424 28.9064 35.992 28.9064 35.596C28.9064 34.948 29.0864 34.264 29.0864 33.58C29.0864 32.608 29.0504 31.6 29.0144 30.628C28.9784 29.476 28.6544 28.36 28.6544 27.208C28.6544 26.524 28.7264 25.588 29.6264 25.588C30.2024 25.588 30.7064 25.948 31.2824 25.948C31.6424 25.948 31.9664 25.66 31.9664 25.3C31.9664 24.904 31.8224 24.544 31.7864 24.148C31.6784 23.104 31.9304 22.924 30.6344 22.924C30.1664 22.924 29.7344 23.14 29.2664 23.14C28.8344 23.14 28.7984 22.456 28.7984 22.132C28.5824 19.936 28.6904 17.74 28.6904 15.544C28.6904 13.996 28.4024 12.448 28.4024 10.864C28.4024 10.396 28.5104 10.144 29.0504 10.144C29.9864 10.144 30.8144 10.792 31.7504 10.792C32.6864 10.792 32.6864 8.884 32.6864 8.236C32.6864 6.796 31.8584 7.012 30.7784 7.012L30.2384 6.976ZM30.0224 1.18C29.3024 1.684 26.5304 3.88 26.5304 4.672C26.5304 5.248 27.5384 5.428 27.9704 5.428C29.0864 5.428 32.1464 3.592 32.1464 2.368C32.1464 1.828 31.3544 0.891999 30.7784 0.891999C30.4904 0.891999 30.2024 1 30.0224 1.18ZM43.7097 6.328C43.0617 5.932 42.3057 5.752 41.5497 5.752C37.3377 5.752 36.3297 9.82 36.0417 13.24C35.7537 16.372 35.7897 19.54 35.7897 22.708C35.7897 27.28 35.8617 34.228 39.4257 37.576C40.1457 38.26 41.0817 38.692 42.0897 38.692C43.3137 38.692 44.4297 38.044 45.2217 37.108C46.9497 35.056 46.8417 32.068 46.9857 29.548C46.4097 29.656 45.7977 29.728 45.1857 29.764C44.3577 29.8 44.2857 29.692 44.0697 30.592C43.8177 31.456 43.9977 32.392 43.7817 33.256C43.5657 34.156 42.8457 35.524 41.8017 35.524C38.3097 35.524 38.5617 23.14 38.5617 20.656C38.5617 19.432 38.4897 18.208 38.4897 16.984C38.4897 15.04 38.4897 8.92 41.3337 8.92C44.8617 8.92 43.7817 15.904 44.3937 18.064C44.6097 18.892 44.7537 18.964 45.6177 18.964C46.1217 18.964 46.6257 18.928 47.1297 18.928C47.1657 18.532 47.1657 18.136 47.1657 17.74C47.1657 14.572 46.6977 8.164 43.7097 6.328ZM58.8035 34.732C64.8875 34.732 66.5075 27.208 66.5075 22.42C66.5075 17.488 64.9595 11.26 58.8755 11.26C53.2955 11.26 50.9555 17.272 50.9555 22.024C50.9555 26.992 52.4315 34.732 58.8035 34.732ZM58.8755 14.14C62.6195 14.14 63.8435 19.324 63.8435 22.276C63.8435 25.516 63.1955 31.924 58.8035 31.924C53.9795 31.924 53.7995 25.804 53.7995 22.312C53.7995 19 54.6275 14.14 58.8755 14.14ZM82.5793 11.8H82.2193C81.3193 11.8 80.2393 11.836 80.2393 13.024C80.2393 13.708 80.3113 14.356 80.3113 15.004C80.3113 16.804 80.2753 18.604 80.2753 20.404C80.2753 23.284 81.0313 30.772 76.5673 30.772C72.4273 30.772 72.2473 25.552 72.2473 22.528C72.2473 19.36 72.3553 16.228 72.3553 13.06C72.3553 12.556 71.7433 12.556 71.4193 12.556C70.7353 12.556 70.3033 12.592 69.7633 13.06C69.6193 13.204 69.4753 19.972 69.4753 20.8C69.4753 25.012 69.8713 33.364 75.7393 33.364C82.3273 33.364 83.4073 26.236 83.4073 21.088C83.4073 18.352 83.0833 15.652 83.0833 12.916C83.0833 12.448 83.0833 12.016 82.5793 11.8ZM96.3583 36.424C95.9983 36.1 94.8103 35.02 94.4143 35.02C94.0183 35.02 93.6223 35.992 92.7583 35.992C90.3463 35.992 90.3463 31.204 90.3463 29.548C90.3463 25.048 90.5983 20.512 90.8863 16.012C91.4263 16.012 94.5583 16.012 94.5583 15.364C94.5583 15.004 94.4503 14.68 94.4503 14.32C94.4503 14.104 94.4863 13.924 94.4863 13.708C94.4863 13.168 93.8743 13.096 93.4783 13.096C92.7583 13.096 92.0743 13.276 91.3543 13.276H91.0663C91.1743 11.692 91.3903 10.108 91.3903 8.524C91.3903 7.408 90.6703 6.832 89.5543 6.832C87.8623 6.832 88.2943 9.352 88.2943 10.396C88.2943 11.296 88.2223 12.196 88.2223 13.132H87.9703C86.0623 13.132 85.8103 13.168 85.8103 15.148C85.8103 15.292 85.8103 15.436 85.8463 15.544C86.3503 15.904 87.5383 15.94 88.1863 15.976C88.1503 20.152 87.6823 24.292 87.6823 28.468C87.6823 31.816 87.6823 39.376 92.4703 39.376C93.6583 39.376 96.5023 38.116 96.5023 36.712C96.5023 36.604 96.4303 36.496 96.3583 36.424ZM110.233 27.244H110.089C109.441 27.244 108.829 27.136 108.181 27.136C107.893 27.136 107.533 27.136 107.281 27.316C106.561 27.748 107.425 32.212 105.049 32.212C102.637 32.212 102.673 26.992 102.493 25.336C102.421 24.688 102.313 24.04 102.313 23.392C102.313 22.132 103.465 21.88 104.473 21.88C105.697 21.88 106.921 21.988 108.145 21.988C109.477 21.988 110.377 21.736 110.377 20.188C110.377 16.912 108.649 11.08 104.617 11.08C99.4335 11.08 99.1095 19.612 99.1095 23.284C99.1095 26.812 100.261 35.128 105.013 35.128C108.649 35.128 110.593 31.096 110.593 27.928C110.593 27.64 110.557 27.316 110.233 27.244ZM102.709 18.316V17.524C102.709 16.372 102.709 13.888 104.365 13.888C106.057 13.888 107.281 16.876 107.281 18.244C107.281 19.036 106.777 19.036 106.165 19.108C105.301 19.216 104.473 19.504 103.609 19.504C103.357 19.504 102.637 19.468 102.637 19.108C102.637 18.82 102.673 18.568 102.709 18.316ZM119.903 23.428C119.651 22.384 119.075 21.412 119.075 20.332C119.075 20.008 119.183 19.684 119.399 19.432C119.687 19.18 120.407 19.036 120.803 18.856C122.063 18.136 122.963 15.58 122.963 14.176C122.963 10.684 119.111 8.992 116.087 8.992C115.295 8.992 114.539 9.136 114.539 10.072C114.539 10.792 114.719 11.476 114.719 12.196C114.719 15.004 114.611 17.848 114.611 20.656C114.611 25.624 114.683 30.628 114.683 35.596C114.683 37.144 114.683 37.252 116.267 37.252C116.951 37.252 117.311 37.108 117.311 36.352V30.232C117.311 27.244 117.023 24.256 117.023 21.268C117.023 20.98 117.023 20.656 117.095 20.368C117.707 21.628 120.011 31.24 120.299 33.076C120.407 33.544 120.515 35.704 121.163 35.704C121.703 35.704 123.035 35.308 123.035 34.624C123.035 33.976 122.639 33.328 122.423 32.716C121.307 29.728 120.587 26.524 119.903 23.428ZM117.203 17.2V15.292C117.203 14.32 116.987 13.384 116.987 12.448C116.987 11.872 117.239 11.188 117.887 11.188C119.291 11.188 120.479 12.844 120.479 14.14C120.479 14.752 120.299 15.328 119.939 15.832C119.615 16.3 118.031 17.488 117.455 17.488C117.311 17.488 117.203 17.38 117.203 17.2ZM10.4496 60.42C10.3416 59.412 10.3056 58.44 10.3056 57.432C10.3056 55.344 10.4496 53.256 10.4496 51.168C10.4496 49.98 10.3416 48.792 10.3416 47.604C10.3416 46.848 10.5216 46.092 10.5216 45.336C10.5216 44.256 10.0536 44.184 9.11763 44.184C8.46963 44.184 7.31763 44.292 7.31763 45.156C7.31763 45.624 7.42563 46.056 7.42563 46.488C7.42563 48.576 7.38963 50.664 7.38963 52.788C7.38963 55.992 7.38963 59.268 7.67763 62.472C7.71363 62.76 7.74963 63.048 7.74963 63.372C7.74963 63.732 7.42563 63.948 7.13763 64.128C6.09363 64.848 4.76163 64.956 3.71763 65.676C2.67363 66.396 1.91763 67.476 1.37763 68.592C1.01763 69.42 0.765625 70.32 0.765625 71.22C0.765625 75.216 4.94163 77.16 8.28963 77.844C8.72163 77.916 9.11763 78.024 9.54963 78.024C10.5936 78.024 10.5936 76.764 10.5936 76.008C10.5936 75.036 10.4856 74.064 10.4856 73.056C10.4856 70.752 10.6656 68.412 10.6656 66.108C10.6656 64.2 10.5936 62.292 10.4496 60.42ZM7.60563 74.568C7.56963 74.712 7.38963 74.784 7.24563 74.784C6.63363 74.784 4.83363 73.776 4.43763 73.308C3.96963 72.732 3.71763 72.012 3.71763 71.256C3.71763 69.528 5.12163 67.98 6.70563 67.476C6.77763 67.44 7.28163 67.26 7.31763 67.26C7.42563 67.26 7.49763 67.908 7.53363 68.016C7.67763 69.06 7.56963 70.104 7.56963 71.148C7.56963 71.976 7.74963 72.804 7.74963 73.632C7.74963 73.956 7.71363 74.244 7.60563 74.568ZM26.5968 65.244H26.4528C25.8048 65.244 25.1928 65.136 24.5448 65.136C24.2568 65.136 23.8968 65.136 23.6448 65.316C22.9248 65.748 23.7888 70.212 21.4128 70.212C19.0008 70.212 19.0368 64.992 18.8568 63.336C18.7848 62.688 18.6768 62.04 18.6768 61.392C18.6768 60.132 19.8288 59.88 20.8368 59.88C22.0608 59.88 23.2848 59.988 24.5088 59.988C25.8408 59.988 26.7408 59.736 26.7408 58.188C26.7408 54.912 25.0128 49.08 20.9808 49.08C15.7968 49.08 15.4728 57.612 15.4728 61.284C15.4728 64.812 16.6248 73.128 21.3768 73.128C25.0128 73.128 26.9568 69.096 26.9568 65.928C26.9568 65.64 26.9208 65.316 26.5968 65.244ZM19.0728 56.316V55.524C19.0728 54.372 19.0728 51.888 20.7288 51.888C22.4208 51.888 23.6448 54.876 23.6448 56.244C23.6448 57.036 23.1408 57.036 22.5288 57.108C21.6648 57.216 20.8368 57.504 19.9728 57.504C19.7207 57.504 19.0008 57.468 19.0008 57.108C19.0008 56.82 19.0368 56.568 19.0728 56.316ZM37.3824 62.112C36.1224 59.808 32.4504 56.964 32.4504 54.264C32.4504 53.796 32.5224 52.716 33.2064 52.716C34.7184 52.716 33.4584 54.66 35.2224 54.66C35.7984 54.66 36.3744 54.588 36.9504 54.516C36.8784 52.536 35.4384 50.196 33.2784 50.196C31.2264 50.196 29.8584 52.14 29.8584 54.048C29.8584 59.016 36.0504 61.5 36.0504 66.9C36.0504 67.836 35.6184 69.42 34.4304 69.42C32.9904 69.42 33.0984 67.62 33.0984 66.612C33.0984 65.82 32.3424 65.316 31.5864 65.316C30.6144 65.316 30.2544 66.108 30.2544 66.972C30.2544 69.24 31.8744 72.012 34.3944 72.012C37.1664 72.012 38.6064 69.204 38.6064 66.756C38.6064 65.136 38.1384 63.516 37.3824 62.112ZM58.7414 49.188C58.6334 48.252 58.7414 47.352 58.7414 46.416C58.7414 45.228 58.0574 45.228 57.0854 45.228C56.5814 45.228 56.0054 45.228 55.5734 45.516C55.0694 45.84 55.1054 48.648 55.0334 49.332C54.3854 55.848 53.3414 62.292 52.6214 68.772C52.4414 70.68 52.1534 72.552 51.9014 74.46C51.7214 76.224 51.5774 76.764 53.0894 76.872C53.3054 76.908 53.5574 76.98 53.8094 76.98C54.5654 76.98 54.4934 76.044 54.4934 75.504C54.4934 73.992 54.7094 72.516 54.7454 71.04C54.7814 70.284 54.7814 69.42 55.5734 69.024C55.7534 68.952 57.2654 69.024 57.4814 69.024C58.4534 68.988 58.4894 71.04 58.7054 72.444C58.8854 73.74 58.5614 76.908 59.3534 76.908C60.1094 76.908 60.7574 76.836 61.3334 76.44C61.6934 76.188 61.3694 72.984 61.1894 71.58C60.3254 64.128 59.9654 56.604 58.7414 49.188ZM57.8054 66.432C57.5894 66.576 57.3014 66.648 57.0494 66.648C56.2574 66.648 55.5374 66.756 55.5734 66.18C55.6094 64.848 56.4374 57.396 56.6534 56.028C57.0494 59.7 57.8414 62.472 57.8414 65.748C57.8414 65.964 57.8414 66.216 57.8054 66.432ZM56.6894 55.884C56.6894 55.812 56.6894 55.812 56.6894 55.776C56.6894 55.812 56.6894 55.848 56.6894 55.884ZM77.1081 65.46C76.7841 62.724 76.9641 59.988 76.9641 57.252C76.9641 55.632 76.7841 54.048 76.7841 52.464C76.7841 51.816 76.8921 51.204 76.8921 50.556C76.8921 49.728 74.9841 49.368 74.3721 49.368C73.8681 49.368 73.8681 49.908 73.8681 50.268C73.8681 54.768 74.4081 59.232 74.4081 63.732C74.4081 64.164 74.4081 64.56 74.3001 64.992C72.6081 62.58 68.6841 50.808 67.8561 50.16C67.3881 49.836 66.8121 49.692 66.2361 49.692C65.5161 49.692 65.1201 50.088 65.1201 50.808C65.1201 51.564 65.3721 52.284 65.4801 53.004C65.6961 54.624 65.7321 56.316 65.7321 57.936C65.7321 60.024 65.6241 62.112 65.6241 64.164C65.6241 66.756 65.7681 69.276 66.0561 71.832C66.1281 72.336 66.1281 72.804 66.7761 72.804C67.2801 72.804 67.7841 72.876 68.2881 72.876C69.0081 72.876 69.0081 71.796 69.0081 71.292C69.0081 67.584 68.4321 63.912 68.0721 60.24C67.9281 58.872 67.7481 57.54 67.7481 56.208C67.7481 56.064 67.7841 55.884 67.8201 55.74C68.4321 56.172 69.9441 60.816 70.3401 61.824C71.2401 64.2 72.5001 66.432 73.3641 68.808C73.5801 69.348 73.9041 70.752 74.3721 71.04C74.6961 71.22 75.9561 71.22 76.3521 71.22C77.3601 71.22 77.3601 69.492 77.3601 68.808C77.3601 67.692 77.2161 66.576 77.1081 65.46ZM85.2855 73.02C85.3215 72.804 85.3575 72.588 85.3575 72.336C85.3575 71.256 85.0695 70.212 84.9615 69.132C84.6375 65.964 84.7095 62.796 84.7095 59.628C84.7095 58.8 84.6015 58.008 83.5935 58.008C81.9375 58.008 81.6135 58.512 81.6135 60.096C81.6135 61.428 81.9015 62.76 82.0455 64.128C82.2975 66.432 82.2255 68.808 82.2255 71.112C82.2255 73.2 82.4415 73.272 84.4575 73.272C84.7455 73.272 85.0695 73.272 85.2855 73.02ZM82.0455 54.948C82.4775 54.948 82.9095 55.056 83.3415 55.056C84.0975 55.056 84.3495 54.516 84.3495 53.832C84.3495 53.184 84.2055 52.572 84.1695 51.924C84.1695 51.384 84.2415 50.88 84.2415 50.34C84.2415 49.116 83.3415 48.936 82.2975 48.936C81.9735 48.936 81.6495 48.936 81.3615 49.008C81.2175 49.08 81.1815 49.26 81.1815 49.404C81.1815 49.908 81.3975 50.34 81.4695 50.808C81.6135 51.852 81.5415 52.896 81.5415 53.94C81.5415 54.264 81.5415 54.66 81.6495 54.984C81.7935 54.948 81.9015 54.948 82.0455 54.948ZM112.75 63.696C112.678 60.168 112.606 56.676 112.606 53.148C112.606 52.32 112.462 51.96 111.562 51.96C111.166 51.96 110.23 51.96 109.87 52.104C109.042 52.464 108.178 54.408 107.71 55.2C106.234 57.612 104.578 59.916 103.102 62.328C102.814 62.76 101.194 65.748 100.978 65.748C100.222 65.748 97.5224 60.744 96.9824 59.844C95.4704 57.54 93.8864 55.308 92.3744 53.004C91.4384 51.6 90.9704 51.636 89.3504 51.636C88.7384 51.636 88.7384 53.148 88.7384 53.58C88.7384 54.516 88.8824 55.488 88.8824 56.424C88.8824 59.772 88.9184 63.12 88.9184 66.504C88.9184 67.512 88.7384 68.556 88.7384 69.564C88.7384 69.816 88.8104 70.14 89.0264 70.284C89.0624 70.248 89.0984 70.248 89.1344 70.248C89.7824 70.248 90.4304 70.608 91.1144 70.608C91.7624 70.608 92.0504 70.572 92.0504 69.816C92.0504 67.62 91.6904 65.46 91.6544 63.264C91.5824 60.852 91.4384 58.44 91.4024 56.028C91.7624 56.316 91.9784 57.108 92.1944 57.504C92.6624 58.368 93.2024 59.16 93.7424 59.988C94.4984 61.176 95.1824 62.436 95.8664 63.66C96.6944 65.028 97.5944 66.36 98.4224 67.728C99.0704 68.808 99.1064 69.492 100.51 69.708C100.654 69.744 100.834 69.744 100.978 69.744C102.13 69.744 102.382 68.88 102.85 68.016C103.75 66.36 109.69 56.532 110.086 56.496C110.59 56.892 110.302 67.944 110.77 69.636C111.022 70.428 110.806 70.14 111.562 70.356C111.85 70.464 112.138 70.608 112.426 70.608C112.93 70.608 113.146 70.248 113.146 69.78C113.146 69.096 112.966 68.448 112.93 67.8C112.858 66.432 112.786 65.064 112.75 63.696ZM123.675 49.188C123.567 48.252 123.675 47.352 123.675 46.416C123.675 45.228 122.991 45.228 122.019 45.228C121.515 45.228 120.939 45.228 120.507 45.516C120.003 45.84 120.039 48.648 119.967 49.332C119.319 55.848 118.275 62.292 117.555 68.772C117.375 70.68 117.087 72.552 116.835 74.46C116.655 76.224 116.511 76.764 118.023 76.872C118.239 76.908 118.491 76.98 118.743 76.98C119.499 76.98 119.427 76.044 119.427 75.504C119.427 73.992 119.643 72.516 119.679 71.04C119.715 70.284 119.715 69.42 120.507 69.024C120.687 68.952 122.199 69.024 122.415 69.024C123.387 68.988 123.423 71.04 123.639 72.444C123.819 73.74 123.495 76.908 124.287 76.908C125.043 76.908 125.691 76.836 126.267 76.44C126.627 76.188 126.303 72.984 126.123 71.58C125.259 64.128 124.899 56.604 123.675 49.188ZM122.739 66.432C122.523 66.576 122.235 66.648 121.983 66.648C121.191 66.648 120.471 66.756 120.507 66.18C120.543 64.848 121.371 57.396 121.587 56.028C121.983 59.7 122.775 62.472 122.775 65.748C122.775 65.964 122.775 66.216 122.739 66.432ZM121.623 55.884C121.623 55.812 121.623 55.812 121.623 55.776C121.623 55.812 121.623 55.848 121.623 55.884ZM142.978 49.8H142.618C141.718 49.8 140.638 49.836 140.638 51.024C140.638 51.708 140.71 52.356 140.71 53.004C140.71 54.804 140.674 56.604 140.674 58.404C140.674 61.284 141.43 68.772 136.966 68.772C132.826 68.772 132.646 63.552 132.646 60.528C132.646 57.36 132.754 54.228 132.754 51.06C132.754 50.556 132.142 50.556 131.818 50.556C131.134 50.556 130.702 50.592 130.162 51.06C130.018 51.204 129.874 57.972 129.874 58.8C129.874 63.012 130.27 71.364 136.138 71.364C142.726 71.364 143.806 64.236 143.806 59.088C143.806 56.352 143.482 53.652 143.482 50.916C143.482 50.448 143.482 50.016 142.978 49.8ZM156.541 49.836C156.469 49.8 156.397 49.728 156.397 49.656C156.397 49.476 156.577 49.296 156.577 49.116C156.577 48.684 154.849 48.72 154.489 48.72C153.085 48.72 153.553 50.304 153.553 51.204C153.553 52.5 153.409 60.24 151.645 60.24C149.845 60.24 149.773 50.952 149.773 49.476C149.773 48.684 149.125 48.684 148.513 48.684C148.189 48.684 147.793 48.684 147.469 48.756C147.325 48.72 147.181 48.684 147.037 48.684C146.749 48.684 146.641 48.828 146.641 49.08C146.641 49.62 146.677 50.196 146.677 50.736C146.677 53.4 146.929 56.892 147.793 59.412C148.009 60.06 149.125 61.392 149.125 61.896C149.125 62.148 148.369 63.3 148.261 63.66C148.045 64.164 147.901 64.704 147.793 65.244C147.145 67.908 146.965 70.644 146.893 73.38C147.505 73.344 148.117 73.344 148.729 73.344C149.701 73.344 149.629 73.56 149.845 72.624C150.097 71.616 149.953 70.572 149.953 69.528C149.953 68.376 150.133 62.94 151.789 62.94C153.121 62.94 153.589 68.772 153.589 69.816C153.589 70.644 153.481 71.472 153.481 72.336C153.481 73.992 153.769 73.488 155.173 73.488C155.497 73.488 155.821 73.56 156.145 73.56C156.829 73.56 156.829 72.048 156.829 71.544C156.829 69.492 156.145 64.812 155.317 63.012C155.065 62.436 154.489 61.86 154.489 61.212C154.489 61.14 154.741 60.6 154.777 60.492C155.101 59.448 155.569 58.44 155.785 57.36C156.289 54.876 156.469 52.356 156.541 49.836Z" fill="white"/>
</svg>
