<svg id="Calque_1" data-name="Calque 1" xmlns="http://www.w3.org/2000/svg" viewBox="0 0 1321 701.5"><defs><style>.cls-1{fill:#e3572b;opacity:0.64;isolation:isolate;}.cls-2{opacity:0.55;}.cls-3{fill:#f3b807;}.cls-4{fill:#f7ebe8;}.cls-5{fill:#29325a;}.cls-6{fill:#e1a205;}.cls-7{fill:#0c7aa0;}.cls-11,.cls-8{fill:none;stroke-linecap:round;stroke-miterlimit:10;}.cls-8{stroke:#fff;}.cls-9{fill:#f7e6e3;}.cls-10{fill:#2a305c;}.cls-11{stroke:#ffdca0;}.cls-12{fill:#eead00;}</style></defs><path class="cls-1" d="M1199,414.5a18.86,18.86,0,0,1-12.2,5.4h-95.2a13.81,13.81,0,0,1,5.2-7.1,15.27,15.27,0,0,1-11.1-14.4c0-8.3,7.1-15.1,15.9-15.1a15.4,15.4,0,0,1,6.8,1.5,14.23,14.23,0,0,1,3.3-8.2,16.57,16.57,0,0,1,19.9-4.1,2.7,2.7,0,0,1,.7-.8,16,16,0,0,1,9.3-4.7,13.55,13.55,0,0,1,2-.2h.8a16.37,16.37,0,0,1,11.7,4.6,18.2,18.2,0,0,1,4.4-1.7,16.55,16.55,0,0,1,3.2-.3,15.31,15.31,0,0,1,11.1,4.7,13.64,13.64,0,0,1,3.8,9.5v.2a14.87,14.87,0,0,1-.5,3.6,19.41,19.41,0,0,1,7.3-1.5,18.67,18.67,0,0,1,12,4.3C1203.3,395,1204.2,405.2,1199,414.5Z" transform="translate(0.4)"/><g class="cls-2"><path class="cls-3" d="M1013.8,313.6c.5,41.8,0,59.5.5,60.6,8.8,0,25.2,0,34,.1l.1-60.6Z" transform="translate(0.4)"/><path class="cls-3" d="M1049.7,302.7c3-12.3,6-24.6,9-37,.3-8.7.6-17.4.8-26.1l-54.1-.1c.4,8.8.7,17.6,1.1,26.3,2.1,12.2,4.2,24.5,6.3,36.7Z" transform="translate(0.4)"/><rect class="cls-3" x="1003.34" y="184.1" width="54.9" height="50.6" transform="translate(819.55 1239.73) rotate(-89.88)"/><rect class="cls-3" x="1057.53" y="183.91" width="39.2" height="37.1" transform="translate(872.73 1279.14) rotate(-89.88)"/><path class="cls-3" d="M1094.9,225.9h0a1.62,1.62,0,0,1-1.2,1.6l-32.9,10.6a2,2,0,0,1-1.8-.4l-1-1a1.87,1.87,0,0,1-.5-1.4l.5-9.7a1.71,1.71,0,0,1,1.8-1.7l33.4.1A1.87,1.87,0,0,1,1094.9,225.9Z" transform="translate(0.4)"/><path class="cls-4" d="M1058.8,222l37.3.1a.68.68,0,0,1,.7.7v1.7l-38.6-.1v-1.7A.56.56,0,0,1,1058.8,222Z" transform="translate(0.4)"/><path class="cls-5" d="M1080.1,200.1v12a.86.86,0,0,0,.8.8h4a.86.86,0,0,0,.8-.8v-12a.86.86,0,0,0-.8-.8h-4A.79.79,0,0,0,1080.1,200.1Z" transform="translate(0.4)"/><path class="cls-5" d="M1067.3,200.1v12a.86.86,0,0,0,.8.8h4a.86.86,0,0,0,.8-.8v-12a.86.86,0,0,0-.8-.8h-4A.74.74,0,0,0,1067.3,200.1Z" transform="translate(0.4)"/><path class="cls-3" d="M1115.9,157.4l-.1,25.7,29.8.1a.68.68,0,0,0,.7-.7l.1-24.4a.65.65,0,0,0-.6-.6Z" transform="translate(0.4)"/><rect class="cls-3" x="1083.59" y="116.66" width="4.9" height="68.6" transform="translate(627.74 1146.88) rotate(-73.18)"/><path class="cls-3" d="M1050.2,136.5l-.1,43.3h4.5l.1-42.8a.47.47,0,0,0-.5-.5Z" transform="translate(0.4)"/><path class="cls-3" d="M1011.7,181.8l.1-45.4h-4.1a.43.43,0,0,0-.4.4l-.1,45.1Z" transform="translate(0.4)"/><rect class="cls-3" x="1028.53" y="130.87" width="4.5" height="45.4" transform="translate(875.38 1184.02) rotate(-89.88)"/><rect class="cls-3" x="1028.19" y="144.31" width="4.5" height="45.4" transform="translate(861.6 1197.09) rotate(-89.88)"/><path class="cls-3" d="M898.8,160.7l108.6-24.3c15.4,0,30.7.1,46.1.1.3,1.5.5,3,.8,4.5l-46.9-.1v-.3L899.7,164.7Z" transform="translate(0.4)"/><path class="cls-3" d="M900.9,179a1.11,1.11,0,0,1,1.1-1.1l107,.2h0l54.6.1h0l55.2.1v2.3a21.66,21.66,0,0,1-.4,2.5c-20.9-.1-41.8-.3-62.7-.4l-48.5-.1v-.4L902,182a1.11,1.11,0,0,1-1.1-1.1Z" transform="translate(0.4)"/><path class="cls-3" d="M872.9,165.4v15.2a1.32,1.32,0,0,0,1.3,1.3c10,.1,20.1.1,30.1.2-.1-7.4-.2-14.8-.3-22.3l-29.6,4A1.62,1.62,0,0,0,872.9,165.4Z" transform="translate(0.4)"/><path class="cls-4" d="M1005.4,236.1l53.8.1a.92.92,0,0,1,.9,1v2.5l-55.7-.1v-2.5A1.17,1.17,0,0,1,1005.4,236.1Z" transform="translate(0.4)"/><path class="cls-4" d="M1059.4,182.5c-.1,18.5-.1,37-.2,55.5h-3.4l.1-55.6C1057,182.4,1058.2,182.5,1059.4,182.5Z" transform="translate(0.4)"/><path class="cls-4" d="M1009.5,302.5l45.7.1a.9.9,0,0,1,.9.9v9.6a.9.9,0,0,1-.9.9l-45.7-.1a.9.9,0,0,1-.9-.9v-9.6A.9.9,0,0,1,1009.5,302.5Z" transform="translate(0.4)"/><rect class="cls-3" x="1103.45" y="150.13" width="3.4" height="34" transform="translate(100.04 655.23) rotate(-34.49)"/><path class="cls-3" d="M1072,152.3c6.5,9.4,13,18.9,19.4,28.3l2.8-2c-6.8-9.9-13.7-19.9-20.5-29.8A16.15,16.15,0,0,1,1072,152.3Z" transform="translate(0.4)"/><path class="cls-3" d="M1053.2,146.7l18,33,3-1.7c-6.3-11.6-12.7-23.2-19-34.8C1054.6,144.4,1053.9,145.5,1053.2,146.7Z" transform="translate(0.4)"/><rect class="cls-3" x="1082.18" y="164.57" width="25.7" height="3" transform="translate(926.98 1260.73) rotate(-89.88)"/><rect class="cls-3" x="1058.08" y="161.63" width="30.4" height="3.5" transform="translate(907.97 1236.31) rotate(-89.88)"/><rect class="cls-3" x="932.55" y="163.32" width="38.4" height="3.9" transform="translate(273.94 853.14) rotate(-55.26)"/><rect class="cls-3" x="915.04" y="164.93" width="30.2" height="3.9" transform="translate(263.32 836.08) rotate(-55.26)"/><rect class="cls-3" x="897.47" y="168.56" width="26.5" height="3.5" transform="translate(200.23 764.49) rotate(-50.48)"/><path class="cls-3" d="M989.3,148.6c-7.4,10.6-14.8,21.3-22.2,31.9l-3.2-2.2c7.8-11.2,15.6-22.4,23.3-33.6C988,146,988.6,147.3,989.3,148.6Z" transform="translate(0.4)"/><path class="cls-3" d="M1010.7,142.3c-6.9,12.4-13.7,24.9-20.6,37.3l-3.4-1.9q10.8-19.65,21.7-39.3C1009.2,139.7,1009.9,141,1010.7,142.3Z" transform="translate(0.4)"/><rect class="cls-3" x="948.61" y="162.27" width="29.1" height="3.4" transform="translate(797.49 1126.78) rotate(-89.88)"/><rect class="cls-3" x="909.38" y="168.87" width="20.4" height="2.4" transform="translate(747.92 1089.28) rotate(-89.88)"/><rect class="cls-3" x="927.57" y="166.07" width="24.8" height="3.4" transform="matrix(0, -1, 1, 0, 770.55, 1107.37)"/><rect class="cls-3" x="970.68" y="159.22" width="34.4" height="3.9" transform="translate(824.96 1148.69) rotate(-89.88)"/><path class="cls-3" d="M883.3,186.5h11.4a.79.79,0,0,0,.8-.8v-3.8a.79.79,0,0,0-.8-.8H883.3a.79.79,0,0,0-.8.8v3.8A.79.79,0,0,0,883.3,186.5Z" transform="translate(0.4)"/><polygon class="cls-6" points="1048.7 374.3 1060 386 1074.1 412.3 1074.1 442.5 1067.5 442.5 1065.7 421.4 1047 398.2 1019.6 398.2 1001.8 420.5 999.6 442.5 994 442.5 994 411.7 1005.4 385.7 1014.7 374.2 1048.7 374.3"/><polygon class="cls-3" points="1044.9 374.2 1038.6 383.2 1035.5 442.5 1027.6 442.5 1026.2 382.9 1020.2 374.3 1044.9 374.2"/></g><path class="cls-7" d="M1320.1,421.6V701H390.2q29.1-26.4,61.9-52.4a1159.53,1159.53,0,0,1,129.1-88.8c3.1-1.8,6.2-3.7,9.4-5.5q36.3-21,72.5-38.3,38.55-18.6,76.7-33.3c.5-.2.9-.4,1.4-.6,2.7-1,5.4-2.1,8.1-3.1,23.8-9,47.4-16.9,70.7-24,.2-.1.5-.1.7-.2l3-.9a2.35,2.35,0,0,1,.8-.2c1.9-.6,3.9-1.1,5.8-1.7C1029.2,394.3,1207.2,405.1,1320.1,421.6Z" transform="translate(0.4)"/><path class="cls-8" d="M1320.1,470.6a1104.31,1104.31,0,0,0-416.8,29.9A1092.21,1092.21,0,0,0,506.1,701" transform="translate(0.4)"/><path class="cls-9" d="M.1,660.5V700H387s1-43.3-16.4-73.4c-14.6-25.3-40.2-37.9-47-41-61.8-28.4-111.9,22.7-154.4-.6-43.9-24.1-15.4-92.5-60.8-120.1-29.5-18-73-8.1-108.3,4.9V660.5Z" transform="translate(0.4)"/><path class="cls-8" d="M.1,501.5s86.3-40,106.8,27.3,22.8,90.7,78.9,94,136.9-41.7,177.1,66.6" transform="translate(0.4)"/><circle class="cls-8" cx="258.9" cy="606.2" r="49.2"/><polyline class="cls-8" points="0.5 660.5 43.2 683.1 62.9 545.7 0.5 602.7"/><path class="cls-7" d="M310.1,125.8c-37.9,55.3-108.7,17.9-150.7,71.4-31.1,39.6-9.6,82.1-47,105.5C86.4,319,54,279,49,278c-24.7-4.9-42.1-22.7-49-29V0Q146.7,0,293.4.1s15,7.3,25.3,25.2C325.8,37.7,335.9,88.2,310.1,125.8Z" transform="translate(0.4)"/><path class="cls-10" d="M123.2,344.4c-40.9,16.3-67.7-23.6-71.7-37.8,0-.1-.1-.2-.1-.4-2.2-7.7-5.8-13-10-16.6-9.3-8.1-19.5-1-35.6-10.4a42.24,42.24,0,0,1-5.8-4V0C31.7,37.6,52.6,62.3,65.7,77.8c.1.2.4.4.7.8C82.8,98,98,116,107.9,135.1c1.9,3.7,25,48.8,17.8,83-.7,3.4-3,11.2-.5,20.6,2,7.4,6.4,15.9,15.4,25.1C168.4,292.3,164.1,328.1,123.2,344.4Z" transform="translate(0.4)"/><path class="cls-11" d="M103.7,313a690.76,690.76,0,0,1-42.6-80.4A692.06,692.06,0,0,1,16.6,98" transform="translate(0.4)"/><path class="cls-12" d="M.1,0C7.5,24.9,27.8,82.9,72.8,119.9c11.2,9.2,35.4,29.1,60.5,24.7,11.4-2,22.1-8.5,22.1-8.5,15.4-9.2,21.9-21.4,21.9-21.4a78.18,78.18,0,0,0,5.5-20.4,70.19,70.19,0,0,0-.5-16c-3.4-21.3-29.3-41.2-31.6-43C125,16,70.4,1.3.1,0Z" transform="translate(0.4)"/><path class="cls-11" d="M151.4,98S94.6,94.2,56.3,37" transform="translate(0.4)"/></svg>