<svg id="Calque_1" data-name="Calque 1" xmlns="http://www.w3.org/2000/svg" viewBox="0 0 440.55 577.21"><defs><style>.cls-1{fill:#f8c6a5;}.cls-2,.cls-7{fill:#f5ae8c;}.cls-3{fill:#e3572b;}.cls-4{fill:#182624;}.cls-11,.cls-5,.cls-6{fill:none;}.cls-5{stroke:#f6e9e5;}.cls-11,.cls-5{stroke-linecap:round;stroke-width:2px;}.cls-11,.cls-5,.cls-6,.cls-7{stroke-miterlimit:10;}.cls-6{stroke:#f5ae8c;stroke-width:0.5px;}.cls-7{stroke:#1d1e1c;stroke-width:0.1px;}.cls-8{fill:#f6e9e5;}.cls-9{fill:#cf3e17;}.cls-10{fill:#2b315b;}.cls-11{stroke:#4b547e;}.cls-12{fill:#f1b705;}.cls-13{fill:#eead07;}</style></defs><path class="cls-1" d="M72.85,307.31s-2.4-11.2-10.9-15.4-23.3-40.2-25.4-44.5,2.1-10.6,6.4-4.2,6.4,14.8,8.5,14.8-12.65-25.4-10.6-29.7,4.2-6.4,12.7,8.5c7.2,12.6,10.6,19.1,4.2,4.2s-12.67-21.2-8.5-25.35,8.5,2.1,12.7,10.6,15.4,30.6,10.9,18.5-13-22.7-6.6-26.9,19.1,33.9,21.2,31.8,2.1-16.9,12.7-16.9c0,0,6.4,0,2.1,6.4s0,29.7-6.4,44.5c-1.7,3.9,5.9,11.8,5.9,11.8Z"/><g id="COU"><path class="cls-2" d="M274.65,357.51l-3.5,48.9s20.5,17.6,49.4.8l-.4-36.7C320.25,370.66,285.8,338.21,274.65,357.51Z"/></g><path class="cls-3" d="M402.08,577.18H190.15c2.9-53.09,12.5-111.88,38.5-147.48,9.17-12.61,20.47-22.41,34.11-27.86h0l.57-.23a.08.08,0,0,0,.1-.08v0h0l1-.36c1.87-.68,3.75-1.33,5.71-1.84l.1-.1c.5-.1.9-.2,1.3-.3h.14c4.3-.39,5.14,3.79,14.39,5.52l.47.09a58,58,0,0,0,9.3.7c7.7,0,12.7-.5,15.9-1.2l.58-.13h0c5.82-1.4,6-3.27,8-3.27h.13a10.18,10.18,0,0,1,3.67,1C379,421.91,397,504.89,402.08,577.18Z"/><path class="cls-1" d="M339.35,327.91s-1.3-22.9-5.9-29.5c-17.2-24.7-74.1-29.1-79,22.2,0,0-.9-4.7-1.5,4.2,0,0-9.1-7.2-9,5.2,0,11.3,1.6,16,10.6,24,0,0,14.9,33.2,50.6,31.4,13.6-.7,24.2-14.5,29.1-27.7h0A98.69,98.69,0,0,0,339.35,327.91Z"/><path class="cls-1" d="M337.65,327s4.5-4.8,7.4-1,2.1,22-7.5,26.2C327.85,356.21,337.65,327,337.65,327Z"/><circle class="cls-2" cx="269.45" cy="344.11" r="8.4"/><circle class="cls-2" cx="324.75" cy="344.11" r="8.4"/><circle class="cls-4" cx="283.75" cy="331.11" r="1.6"/><circle class="cls-4" cx="315.75" cy="330.21" r="1.6"/><path class="cls-2" d="M296,345.11s6.8,2.4,9.8-2.8C305.65,342.31,303.45,351.11,296,345.11Z"/><path class="cls-5" d="M288.35,314.91s-8.6-4.5-14.3,2.8"/><path class="cls-5" d="M312.08,315.81s8.6-4.5,14.3,2.8"/><path class="cls-3" d="M324.35,401.51"/><path class="cls-6" d="M277.08,336.91a13,13,0,0,0,3.8,2.5,11.54,11.54,0,0,0,6.4.5"/><path class="cls-6" d="M311.15,339.71a12.72,12.72,0,0,0,4.5.6,11.91,11.91,0,0,0,6-2.3"/><path class="cls-7" d="M291.55,361.31s.8,4.1,6.6,4.8,7.6-6.5,2.5-4.7S291.35,357.41,291.55,361.31Z"/><path class="cls-8" d="M285.25,357c4.4-4.4,15.5-13.1,24.7.2.6.8.1,2.1-.8,2.1l-23.2-.1C285,359.21,284.55,357.71,285.25,357Z"/><path class="cls-1" d="M295.25,364.11s1.4-1.1,2.6-.3c0,0,1.4-.9,2.9.9A6.16,6.16,0,0,1,295.25,364.11Z"/><path class="cls-9" d="M317.25,558.44c-2.79,6.25-5.67,12.39-8.45,18.64l-.05.1h-2.4l-.06-.1c-3.78-6.05-7.56-12.09-11.44-18.14L305.35,535C309.35,542.69,313.35,550.61,317.25,558.44Z"/><path class="cls-9" d="M282.65,502.51c1-2.2,1.9-4.4,2.9-6.6,4,7.9,7.9,15.7,11.9,23.6-3.2,7-6.4,13.9-9.5,20.9-2.7-4.4-5.4-8.7-8.2-13.1Z"/><path class="cls-9" d="M284.15,571.91c-.8,1.8-1.6,3.5-2.4,5.3H273l3-21.4.08.15C278.8,561.31,281.47,566.66,284.15,571.91Z"/><path class="cls-9" d="M318.45,523.21c-3.4-5.4-6.8-10.9-10.2-16.3,2.3-5.3,4.7-10.6,7-16Z"/><path class="cls-9" d="M296.35,446l-10.5,24c4.3,6.8,8.5,13.7,12.8,20.5,3.2-7,6.4-14,9.5-20.9C304.35,461.81,300.35,453.91,296.35,446Z"/><path class="cls-2" d="M262.8,317.71s4.5-9.2,5.9-8.7,64.5,1.4,64.5,1.4,2.9,4.6,3,6.2,1.6-12.7,1.6-12.7L264.3,305Z"/><path class="cls-8" d="M336.65,289.51c-7.7-8.8-17.8-11.4-42.6-10.4-40.4,1.7-43.4,24.1-41.5,45.3v.12c.4,4.16,1,8.27,1.47,12.16s.92,7.62,1,10.92a64.73,64.73,0,0,0,.1,7.5v.14c.1,1.25.2,2.4.39,3.56,1.5,11,6.5,20.7,17.1,26.5h0c6.8,3.79,16,5.89,28.09,5.89,8.29,0,14.68-1.7,19.58-4.39h0c13.9-7.8,15.9-24,16.2-34.5,0-.93.06-1.85.08-2.69v-2.11a47.65,47.65,0,0,1,.5-5.2c.3-2.1.6-4.2.9-5.3s.55-2.15.9-3.2c.06-.23.12-.47.19-.71.26-1,.57-2.06.81-3.19.4-1.6.8-3.4,1.2-5.3a76,76,0,0,0,1.7-14.8C343.08,302.41,341.45,295,336.65,289.51Zm-.9,42c-.4,2.4-.8,4.5-1.1,6.6,0-.2,0-.1-.1-.1-.2,1.3-.5,2.7-.8,4.1l-.6,2.1c-.4,1.35-.8,2.55-1.1,3.41s-.5,1.39-.5,1.39v.1q-.9,2.4-1.8,5.1c-1.8,5.2-7.8,9.2-14.7,11.9h0A61.34,61.34,0,0,1,296,370.3c-6,.2-14.5-3.7-21.6-8.1h0a66.82,66.82,0,0,1-9.27-6.88,22.12,22.12,0,0,1-2.6-2.7c-4.5-5.7-3.1-20.4-3.1-20.7a139.55,139.55,0,0,1,3.5-14.1,49.83,49.83,0,0,1,3.51-8.72,12.25,12.25,0,0,1,1.49-2.28l3.3.3c14.9,1.1,36.5,1,47.8.8,2.8,0,9.4.2,13.2.3,1.6.1,2.7.1,2.7.1a.91.91,0,0,1,.1.4,68,68,0,0,1,1.4,8v.1a54.42,54.42,0,0,1,.4,7.1,60.62,60.62,0,0,1-1,7.59Z"/><polygon class="cls-2" points="271.05 306.91 267.55 300.91 267.75 306.71 271.05 306.91"/><polygon class="cls-2" points="331.55 308.91 334.75 302.71 334.85 308.51 331.55 308.91"/><path class="cls-10" d="M291.55,414.27v.24c-.1,2.79-2,24.11-5.18,54.31V469a6.68,6.68,0,0,1-.2,1.48h0c-1,9.8-2.2,20.6-3.5,31.9-.9,7.6-1.8,15.5-2.8,23.5v.4c0,.3-.1.7-.1,1-1.2,9.3-2.4,18.9-3.7,28.5v.15l-3,21.25H180c6.8-47,14.8-79,14.8-79-25.6-6.3-62.9-40.4-88.4-67.7l-.6-.6c-28.6-30.8-46.2-123.2-46.2-123.2a113.75,113.75,0,0,1,10.9-5.8A241.81,241.81,0,0,1,97.67,290c9.8-3.3,16.8-5.2,16.8-5.2,6.1,13.6,19.4,53.9,27.2,70.9a53.72,53.72,0,0,0,20.9,23.6c.1.1.2.1.3.2,3.5,2.1,9.1,7.2,15.9,12.9,14.9,12.4,35.3,27.7,51.1,20.4,20.12-9.36,30.6-10.76,32.91-11h.47a.08.08,0,0,0,.1-.08v0h0l1.09-.56c2.27-1.2,6.8-3.66,7.21-4.24a.61.61,0,0,1,.19-.17c1.66-1.08,9.07,2.44,14.24,7.68l.37.39C289.54,407.5,291.63,410.88,291.55,414.27Z"/><path class="cls-10" d="M440.55,577.18H324.65c-2.3-18.2-4.3-36.49-6.1-54-1.2-11.1-2.2-22-3.2-32.2-1.85-19.39-3.35-36.74-4.48-50.35s-1.87-23.48-2.22-27.93a.88.88,0,0,0,0-.23c-.09-1.46-.18-2.27-.18-2.37-.2-.9,1.4-3.4,3.6-5.9l.28-.33h0a43.22,43.22,0,0,1,8.09-7.43l.22-.14c1.1-.6,1.8-.7,1.9.1.3,3.1,11.9,8,15.8,9.5.4.2.8.3,1.2.5a129.58,129.58,0,0,1,36.95,23.3c13.55,12.14,27.1,29.29,37,53.39C423.15,507.09,433.08,541.49,440.55,577.18Z"/><path class="cls-11" d="M267.25,405.11s11.9,8.6,16,15"/><path class="cls-11" d="M314.8,418.11s5.8-10.9,13.1-13"/><path class="cls-12" d="M0,30.54v122.9A30.59,30.59,0,0,0,30.54,184H241.47A30.48,30.48,0,0,0,272,153.56v-.12h0V30.54A30.57,30.57,0,0,0,241.47,0H30.54A30.59,30.59,0,0,0,0,30.54Z"/><path class="cls-13" d="M0,30.54v122.9A30.59,30.59,0,0,0,30.54,184H154.93l61.37,41.26a7.45,7.45,0,0,0,10.4-1.69l.07-.1a7,7,0,0,0,1-6.4l-8.64-33.17h22.49a30.45,30.45,0,0,0,30.54-30.36v0h0V144.4a164.84,164.84,0,0,1-54.52,9.24,164,164,0,0,1-77.87-19.76c-1.19-.74-2.53-1.34-3.72-2.08A161.74,161.74,0,0,1,55.27.15H30.54A30.46,30.46,0,0,0,0,30.53Z"/></svg>