<svg width="116" height="289" viewBox="0 0 116 289" fill="none" xmlns="http://www.w3.org/2000/svg">
<path d="M20.0999 40C20.8999 40.4 21.9 40.2 22.3 39.4C23 38.2 23.7 37 24.5 35.8C25 35.1 24.7 34.1 24 33.6C23.8 33.5 23.7 33.4 23.5 33.4C22.8 33.2 22.0999 33.6 21.6999 34.1C20.9999 35.4 20.3 36.5 19.5 37.8C19.1 38.6 19.3999 39.6 20.0999 40Z" fill="#BEE3EE"/>
<path d="M49.3001 7.89996C50.3001 6.99996 51.4 6.19996 52.5 5.29996C53.2 4.69996 53.3001 3.79996 52.8001 3.09996C52.6001 2.79996 52.2001 2.59996 51.9001 2.59996C51.4001 2.49996 50.9 2.59996 50.7 2.79996C49.6 3.59996 48.4001 4.59996 47.3001 5.39996C46.5001 5.89996 46.5 6.89996 47 7.59996C47.6 8.39996 48.6001 8.39996 49.3001 7.89996Z" fill="#BEE3EE"/>
<path d="M42.9001 13.5C44.0001 12.5 45 11.6 46 10.7C46.7 10.1 46.7 9.09996 46.2 8.49996C46 8.19996 45.7001 8.09996 45.4001 7.99996C44.9001 7.89996 44.4001 7.99996 43.9001 8.29996C42.8001 9.29996 41.8001 10.2 40.8001 11.2C40.1001 11.8 40.2 12.8 40.7 13.5C41.3 14.1 42.2001 14 42.9001 13.5Z" fill="#BEE3EE"/>
<path d="M31.5999 25.8C32.3999 24.7 33.2999 23.6 34.1999 22.5C34.7999 21.8 34.6999 20.9 33.9999 20.3C33.7999 20.2 33.6 20 33.4 19.9C32.8 19.7 32.3 19.9 31.8 20.4C30.9 21.5 29.9999 22.6 29.0999 23.7C28.4999 24.4 28.7 25.3 29.3 25.9C30.1 26.6 31.0999 26.4 31.5999 25.8Z" fill="#BEE3EE"/>
<path d="M24.5 32.9C25.2 33.4 26.2 33.1 26.7 32.4C27.5 31.3 28.3 30.1 29.1 29C29.6 28.2 29.5001 27.2 28.8001 26.7C28.6001 26.6 28.4 26.5 28.2 26.5C27.6 26.3 26.9 26.6 26.5 27.2C25.7 28.3 24.9 29.6 24 30.7C23.6 31.4 23.8 32.4 24.5 32.9Z" fill="#BEE3EE"/>
<path d="M37.1 19.4C38 18.4 39 17.4 39.9 16.4C40.5 15.7 40.5 14.7 39.9 14.1C39.6 13.9 39.5 13.8 39.2 13.7C38.6 13.5 38.1 13.7 37.7 14.2C36.7 15.2 35.7 16.2 34.7 17.3C34.1 17.9 34.2 18.9 34.9 19.5C35.5 20.1 36.5 20.1 37.1 19.4Z" fill="#BEE3EE"/>
<path d="M53.6 2.49998C54.1 3.09998 55.0001 3.39998 55.8001 2.89998C56.9001 2.19998 58.2001 1.29998 59.3001 0.599976C59.5001 0.499976 59.7001 0.299976 59.8001 0.0999756C58.0001 0.0999756 56.2001 0.0999756 54.4001 0.0999756C54.3001 0.199976 54.1 0.299976 54 0.399976C53.3 0.799976 53 1.69998 53.6 2.49998Z" fill="#BEE3EE"/>
<path d="M16.3 47.5C17.1 47.9 18 47.6 18.4 46.8C19 45.5 19.7 44.2 20.3 43.1C20.7 42.4 20.3 41.4 19.6 41C19.4 40.9 19.2999 40.9 19.1999 40.9C18.4999 40.7 17.7 40.9 17.5 41.6C16.9 42.9 16.2 44.2 15.6 45.4C15.2 46.2 15.5 47.1 16.3 47.5Z" fill="#BEE3EE"/>
<path d="M2.99995 129.9C3.79995 129.8 4.59995 129.1 4.49995 128.2C4.39995 126.8 4.2999 125.4 4.1999 124C4.1999 123.3 3.69995 122.7 2.99995 122.6C2.79995 122.5 2.69995 122.5 2.49995 122.5C1.69995 122.6 0.89995 123.3 0.99995 124.2C0.99995 125.7 1.0999 127.1 1.1999 128.5C1.3999 129.3 2.19995 130 2.99995 129.9Z" fill="#BEE3EE"/>
<path d="M2.40002 121.5C3.30002 121.4 4 120.7 4 119.8C3.9 118.4 4.00002 117 3.90002 115.7C3.90002 115 3.39995 114.3 2.69995 114.2C2.59995 114.2 2.39998 114.1 2.09998 114.1C1.29998 114.1 0.599976 114.8 0.599976 115.7C0.599976 117.2 0.699951 118.5 0.699951 120C0.799951 120.9 1.60002 121.5 2.40002 121.5Z" fill="#BEE3EE"/>
<path d="M6.89999 155C7.79999 154.8 8.29994 154 8.09994 153.1C7.79994 151.7 7.60002 150.4 7.30002 149C7.30002 148.4 6.79992 147.9 6.19992 147.8C5.89992 147.7 5.69994 147.7 5.59994 147.8C4.69994 148 4.10002 148.8 4.30002 149.6C4.60002 150.9 4.79994 152.3 5.09994 153.7C5.19994 154.6 5.99999 155.1 6.89999 155Z" fill="#BEE3EE"/>
<path d="M8.89997 163.2C9.69997 163 10.1999 162.2 9.99995 161.3C9.59995 160 9.29995 158.5 8.99995 157.2C8.89995 156.5 8.49997 156.1 7.89997 156C7.59997 155.9 7.4 155.9 7.3 156C6.4 156.2 5.89992 157 6.09992 157.9C6.49992 159.3 6.69992 160.7 7.09992 162.1C7.19992 162.9 7.99997 163.4 8.89997 163.2Z" fill="#BEE3EE"/>
<path d="M5.19994 146.8C6.09994 146.6 6.69998 145.8 6.49998 145C6.19998 143.6 6.00003 142.2 5.80003 140.8C5.70003 140.1 5.19996 139.6 4.59996 139.5C4.39996 139.5 4.19996 139.4 4.09996 139.6C3.09996 139.8 2.59994 140.6 2.69994 141.4C2.99994 142.8 3.10001 144.2 3.40001 145.6C3.60001 146.4 4.39994 147 5.19994 146.8Z" fill="#BEE3EE"/>
<path d="M2.30005 113C3.20005 113 3.90002 112.3 3.90002 111.5C3.90002 110 3.9 108.7 4 107.3C4.1 106.6 3.50005 105.9 2.80005 105.8C2.70005 105.8 2.60002 105.8 2.40002 105.7C1.50002 105.7 0.800049 106.3 0.800049 107.2C0.800049 108.5 0.799951 110 0.699951 111.4C0.699951 112.3 1.50005 113 2.30005 113Z" fill="#BEE3EE"/>
<path d="M4.10001 138.2C4.90001 138.1 5.60003 137.3 5.50003 136.5C5.30003 135.1 5.20003 133.7 5.00003 132.3C4.90003 131.6 4.40008 131.1 3.80008 131C3.60008 130.9 3.39998 130.9 3.19998 130.8C2.39998 130.9 1.70008 131.7 1.80008 132.5C2.00008 133.9 2.10008 135.4 2.30008 136.7C2.40008 137.7 3.20001 138.3 4.10001 138.2Z" fill="#BEE3EE"/>
<path d="M10.0001 63.2C10.9001 63.4 11.7001 63 12.0001 62.2C12.4001 60.9 13.0001 59.6 13.4001 58.2C13.7001 57.5 13.3001 56.5 12.5001 56.2C12.4001 56.2 12.4001 56.2 12.3001 56.2C11.5001 56 10.7001 56.4 10.4001 57.2C9.90008 58.5 9.40008 59.9 8.90008 61.3C8.70008 62.1 9.10006 62.9 10.0001 63.2Z" fill="#BEE3EE"/>
<path d="M13.0001 55.0999C13.8001 55.4999 14.7 55.1 15.1 54.3C15.5 53 16.2 51.8 16.7 50.5C17 49.8 16.7001 48.8 15.9001 48.4C15.8001 48.4 15.7 48.3 15.6 48.3C14.8 48.1 14.0001 48.4999 13.9001 49.1C13.3001 50.4 12.7 51.7 12.2 53C11.8 53.9 12.2001 54.7999 13.0001 55.0999Z" fill="#BEE3EE"/>
<path d="M2.69995 104.6C3.49995 104.6 4.30005 104 4.30005 103.1C4.40005 101.7 4.39998 100.3 4.59998 98.9C4.59998 98.1 4.20002 97.4 3.40002 97.2C3.30002 97.2 3.19995 97.1 3.19995 97.2C2.29995 97.1 1.6 97.7 1.5 98.6C1.4 100 1.29995 101.4 1.19995 102.9C1.19995 103.8 1.79995 104.6 2.69995 104.6Z" fill="#BEE3EE"/>
<path d="M7.59993 71.4C8.49993 71.6 9.29995 71.1 9.49995 70.3C9.89995 68.9 10.1999 67.6 10.5999 66.3C10.7999 65.4 10.3 64.5 9.49995 64.3C8.69995 64.1 7.89993 64.5 7.59993 65.4C7.19993 66.8 6.79998 68.2 6.39998 69.5C6.19998 70.3 6.69993 71.2 7.59993 71.4Z" fill="#BEE3EE"/>
<path d="M3.19995 96.2C3.99995 96.3 4.80002 95.7 4.90002 94.8C5.00002 93.5 5.20005 92.1 5.30005 90.7C5.40005 89.9 4.89998 89.1 4.09998 88.9H4C3.1 88.8 2.29995 89.4 2.19995 90.3C1.99995 91.7 1.89995 93.1 1.69995 94.5C1.69995 95.3 2.29995 96.1 3.19995 96.2Z" fill="#BEE3EE"/>
<path d="M4.2 87.8C5 87.9 5.90005 87.4 6.00005 86.5C6.30005 85.1 6.5001 83.7 6.8001 82.4C6.9001 81.5 6.40002 80.7 5.60002 80.5C5.60002 80.5 5.60002 80.5 5.60002 80.6C4.70002 80.5 3.9 81 3.7 81.9C3.4 83.3 3.20007 84.7 2.90007 86C2.80007 86.9 3.3 87.7 4.2 87.8Z" fill="#BEE3EE"/>
<path d="M5.70001 79.5C6.60001 79.7 7.30004 79.2 7.60004 78.3C8.00004 76.9 8.20004 75.6 8.60004 74.2C8.80004 73.3 8.30006 72.5 7.50006 72.3C6.60006 72.1 5.80004 72.7 5.60004 73.5C5.20004 74.9 4.90004 76.3 4.60004 77.7C4.30004 78.5 4.80001 79.2 5.70001 79.5Z" fill="#BEE3EE"/>
<path d="M11.0001 171.3C11.9001 171 12.3 170.2 12.1 169.3C11.7 168 11.3001 166.6 11.0001 165.3C10.8001 164.7 10.4001 164.3 9.80011 164.2C9.50011 164.1 9.30006 164.2 9.00006 164.1C8.10006 164.4 7.70008 165.2 7.90008 166.1C8.30008 167.5 8.60006 168.9 9.00006 170.2C9.30006 171.1 10.1001 171.5 11.0001 171.3Z" fill="#BEE3EE"/>
<path d="M112.7 283.3C111.4 282.9 110 282.4 108.7 282H108.6C107.8 281.8 107 282.2 106.8 283.1C106.5 283.9 106.9 284.8 107.7 285.1C109 285.5 110.4 286 111.7 286.4C112.6 286.6 113.4 286.2 113.7 285.4C114 284.5 113.6 283.6 112.7 283.3Z" fill="#BEE3EE"/>
<path d="M14.5 177.3C14.1 176.1 13.5999 174.7 13.1999 173.4C12.9999 172.9 12.6 172.5 12.1 172.4C11.8 172.3 11.5 172.2 11.1 172.2C10.3 172.5 9.79996 173.4 10.1 174.2C10.6 175.6 11 176.9 11.4 178.3C11.7 179.2 12.6 179.6 13.4 179.3C14.4 179 14.8 178.1 14.5 177.3Z" fill="#BEE3EE"/>
<path d="M50.8001 242.6C49.9001 241.6 49 240.5 48.1 239.4C48 239.2 47.6001 239 47.3001 238.9C46.8001 238.8 46.4001 239 45.9001 239.2C45.1001 239.7 45.1 240.7 45.6 241.4C46.5 242.6 47.4001 243.6 48.4001 244.7C49.0001 245.4 50 245.4 50.6 244.9C51.3 244.3 51.4001 243.3 50.8001 242.6Z" fill="#BEE3EE"/>
<path d="M40.6999 229.5C39.7999 228.5 39 227.2 38.3 226.1C38.1 225.7 37.7 225.5 37.3 225.4C36.9 225.3 36.4999 225.4 36.1999 225.6C35.4999 226 35.1999 227 35.6999 227.8C36.4999 229 37.3 230.2 38.1 231.3C38.6 231.9 39.5 232.2 40.3 231.7C41 231.2 41.1999 230.2 40.6999 229.5Z" fill="#BEE3EE"/>
<path d="M45.5999 236.3C44.7999 235.2 43.8999 234.1 43.0999 233C42.8999 232.6 42.4999 232.4 42.1999 232.4C41.6999 232.3 41.1999 232.3 40.9999 232.8C40.1999 233.3 40.0999 234.3 40.5999 235C41.4999 236 42.2999 237.2 43.0999 238.3C43.6999 239 44.6 239.1 45.3 238.6C46 238 46.1999 237 45.5999 236.3Z" fill="#BEE3EE"/>
<path d="M56.5999 248.9C55.6999 247.9 54.7 247 53.8 245.9C53.6 245.6 53.3 245.5 53 245.4C52.5 245.3 51.9 245.4 51.5 245.7C50.9 246.3 50.9 247.3 51.4 248C52.4 249.1 53.3 250.1 54.3 251.1C54.9 251.8 55.8999 251.7 56.5999 251.2C57.1999 250.5 57.0999 249.5 56.5999 248.9Z" fill="#BEE3EE"/>
<path d="M75.4 265.3C74.3 264.5 73.2 263.6 72 262.8C71.8 262.7 71.6 262.6 71.4 262.6C70.8 262.4 70.1 262.7 69.8 263.1C69.2 263.8 69.4 264.8 70 265.3C71.2 266.1 72.3 267 73.5 267.8C74.2 268.3 75.1999 268.1 75.6999 267.4C76.1999 266.7 76.1 265.8 75.4 265.3Z" fill="#BEE3EE"/>
<path d="M65.5999 257.6C65.3999 257.5 65.1999 257.3 64.9999 257.2C64.3999 257.1 63.7999 257.2 63.4999 257.7C62.8999 258.4 62.9999 259.3 63.6999 259.9C64.6999 260.9 65.8 261.8 66.9 262.7C67.6 263.2 68.4999 263.1 69.0999 262.5C69.5999 261.8 69.5 260.9 68.9 260.3C67.7 259.4 66.5999 258.5 65.5999 257.6Z" fill="#BEE3EE"/>
<path d="M59.4001 251.9C59.1001 251.7 59 251.6 58.7 251.5C58.2 251.4 57.7 251.5 57.2 251.7C56.6 252.4 56.6 253.4 57.2 254C58.2 255 59.3001 256 60.3001 257C60.9001 257.7 61.9 257.6 62.5 256.9C63.2 256.3 63.1001 255.3 62.4001 254.7C61.4001 253.8 60.4001 252.8 59.4001 251.9Z" fill="#BEE3EE"/>
<path d="M31.5999 215.4C30.8999 214.2 30.2999 213 29.4999 211.8C29.1999 211.4 28.8999 211.1 28.4999 211C28.1999 210.9 27.7999 211 27.4999 211.2C26.6999 211.6 26.4 212.6 26.9 213.3C27.5 214.6 28.2 215.8 28.9 217C29.3 217.7 30.2999 218 30.9999 217.6C31.7999 217.1 32.0999 216.1 31.5999 215.4Z" fill="#BEE3EE"/>
<path d="M36 222.6C35.3 221.4 34.5 220.3 33.8 219C33.6 218.6 33.2 218.4 32.8 218.3C32.3 218.2 31.8999 218.2 31.5999 218.5C30.8999 218.9 30.6 219.9 31 220.6C31.7 221.7 32.6 223 33.3 224.2C33.7 224.9 34.7 225.1 35.5 224.7C36.3 224.3 36.4 223.3 36 222.6Z" fill="#BEE3EE"/>
<path d="M23.8 200.5C23.2 199.3 22.7 198 22.1 196.8C21.9 196.3 21.6 196 21.1 195.9C20.8 195.8 20.4 195.8 20.1 195.9C19.3 196.2 19 197.2 19.3 198C19.9 199.3 20.5 200.6 21.1 201.9C21.4 202.7 22.3999 203 23.1999 202.6C23.8999 202.3 24.2 201.4 23.8 200.5Z" fill="#BEE3EE"/>
<path d="M20.5 192.9C20 191.6 19.4 190.3 18.9 189.1C18.7 188.6 18.3 188.3 17.8 188.2C17.5 188.1 17.2 188.1 16.9 188.2C16.1 188.5 15.7999 189.5 16.0999 190.3C16.5999 191.6 17.0999 192.9 17.6999 194.2C17.9999 195 19 195.3 19.8 195C20.5 194.6 20.8 193.7 20.5 192.9Z" fill="#BEE3EE"/>
<path d="M27.6 208C26.9 206.8 26.2999 205.5 25.6999 204.3C25.4999 203.9 25.0999 203.6 24.6999 203.5C24.2999 203.4 24 203.4 23.8 203.6C23 203.9 22.7 204.9 23.1 205.7C23.7 207 24.4 208.3 25 209.5C25.4 210.2 26.4 210.6 27.1 210.1C27.7 209.7 28.1 208.8 27.6 208Z" fill="#BEE3EE"/>
<path d="M82.3 270C81 269.3 79.9 268.6 78.8 267.7C78.6 267.6 78.5 267.5 78.3 267.5C77.6 267.3 76.9 267.6 76.5 268.2C76 268.9 76.3 269.9 77 270.4C78.3 271.1 79.5 272 80.6 272.7C81.4 273.2 82.3 272.9 82.8 272.2C83.3 271.4 83 270.5 82.3 270Z" fill="#BEE3EE"/>
<path d="M17.4 185.2C16.9 183.9 16.4 182.7 15.9 181.3C15.7 180.7 15.3 180.4 14.8 180.3C14.5 180.2 14.1 180.2 13.9 180.3C13.1 180.6 12.7 181.5 13 182.3C13.5 183.7 14 184.9 14.4 186.3C14.7 187.1 15.6 187.5 16.4 187.2C17.2 186.9 17.8 186 17.4 185.2Z" fill="#BEE3EE"/>
<path d="M120.7 285.9C119.3 285.6 118 285.1 116.6 284.6C115.8 284.4 115 284.8 114.7 285.7C114.5 286.6 114.9 287.4 115.7 287.7C117 288.1 118.4 288.5 119.7 288.9C120.6 289.1 121.5 288.7 121.7 287.9C122 287 121.6 286.1 120.7 285.9Z" fill="#BEE3EE"/>
<path d="M89.4 274.1C88.2 273.5 86.9 272.8 85.8 272.1C85.7 272 85.5 271.9 85.4 271.9C84.7 271.7 83.9999 272 83.5999 272.8C83.1999 273.5 83.4999 274.5 84.1999 274.9C85.3999 275.5 86.6 276.3 87.9 276.9C88.7 277.3 89.6 277 90 276.2C90.4 275.4 90.2 274.5 89.4 274.1Z" fill="#BEE3EE"/>
<path d="M97.0999 277.5C95.7999 277 94.6 276.4 93.3 275.8C93.2 275.8 93.1 275.7 93 275.7C92.2 275.5 91.3999 275.9 91.0999 276.6C90.7999 277.3 91.1 278.2 91.9 278.7C93.2 279.3 94.5 279.9 95.8 280.4C96.6 280.8 97.5 280.4 97.9 279.6C98.3 278.8 97.8999 277.8 97.0999 277.5Z" fill="#BEE3EE"/>
<path d="M104.9 280.5C103.6 280.1 102.2 279.6 100.9 279.1C100.8 279.1 100.8 279.1 100.7 279C99.8999 278.8 99.1 279.2 98.9 280C98.6 280.7 99 281.7 99.8 282C101.1 282.4 102.4 283 103.8 283.4C104.5 283.7 105.5 283.3 105.8 282.5C106.1 281.7 105.7 280.8 104.9 280.5Z" fill="#BEE3EE"/>
</svg>
