<svg width="593" height="53" viewBox="0 0 593 53" fill="none" xmlns="http://www.w3.org/2000/svg">
<g filter="url(#filter0_d)">
<path d="M19.0334 7C17.6334 7.16 17.8334 7.96 17.8334 9.04C17.8334 12.6 16.9534 17.92 16.5534 21.6C16.3134 23.84 16.0334 26.08 15.7534 28.32C15.6334 29.32 15.5934 30.32 15.4334 31.32C15.4334 31.4 15.3534 32.04 15.2734 32.04C15.1934 32.04 15.1934 31.96 15.1534 31.88C14.9134 31.32 15.0334 30.2 14.9134 29.56C14.7534 28.12 14.3934 26.68 14.1134 25.24C13.6334 22.76 13.3134 20.2 12.8334 17.72C12.4334 15.52 11.8734 13.36 11.5134 11.16C11.3134 10.12 11.3534 9.04 10.9934 8.08C10.6334 7.12 10.7534 7.4 9.79344 7.2C9.39344 7.08 8.95344 6.96 8.51344 6.96C8.03344 6.96 7.87344 7.24 7.87344 7.68C7.87344 9.48 8.87344 12.52 9.23344 14.44C10.1134 19.24 10.5934 24.12 11.8734 28.84C12.3134 30.56 12.6334 32.32 12.9534 34.04C13.1934 35.52 12.8334 40.2 14.8734 40.2C16.8334 40.2 16.9934 40.28 17.2734 38.4C18.2734 31.04 19.0734 23.68 19.8734 16.28C20.0334 14.52 20.2334 12.76 20.5134 11.04C20.6734 9.92 21.3534 8.64 21.3534 7.52C21.3534 7 20.1534 6.96 19.7934 6.96C19.5534 6.96 19.2734 6.96 19.0334 7ZM34.1819 36.48C40.9419 36.48 42.7419 28.12 42.7419 22.8C42.7419 17.32 41.0219 10.4 34.2619 10.4C28.0619 10.4 25.4619 17.08 25.4619 22.36C25.4619 27.88 27.1019 36.48 34.1819 36.48ZM34.2619 13.6C38.4219 13.6 39.7819 19.36 39.7819 22.64C39.7819 26.24 39.0619 33.36 34.1819 33.36C28.8219 33.36 28.6219 26.56 28.6219 22.68C28.6219 19 29.5419 13.6 34.2619 13.6ZM57.1594 38.36C56.7594 38 55.4394 36.8 54.9994 36.8C54.5594 36.8 54.1194 37.88 53.1594 37.88C50.4794 37.88 50.4794 32.56 50.4794 30.72C50.4794 25.72 50.7594 20.68 51.0794 15.68C51.6794 15.68 55.1594 15.68 55.1594 14.96C55.1594 14.56 55.0394 14.2 55.0394 13.8C55.0394 13.56 55.0794 13.36 55.0794 13.12C55.0794 12.52 54.3994 12.44 53.9594 12.44C53.1594 12.44 52.3994 12.64 51.5994 12.64H51.2794C51.3994 10.88 51.6394 9.12 51.6394 7.36C51.6394 6.12 50.8394 5.48 49.5994 5.48C47.7194 5.48 48.1994 8.28 48.1994 9.44C48.1994 10.44 48.1194 11.44 48.1194 12.48H47.8394C45.7194 12.48 45.4394 12.52 45.4394 14.72C45.4394 14.88 45.4394 15.04 45.4794 15.16C46.0394 15.56 47.3594 15.6 48.0794 15.64C48.0394 20.28 47.5194 24.88 47.5194 29.52C47.5194 33.24 47.5194 41.64 52.8394 41.64C54.1594 41.64 57.3194 40.24 57.3194 38.68C57.3194 38.56 57.2394 38.44 57.1594 38.36ZM67.6563 23.92C67.3763 22.76 66.7363 21.68 66.7363 20.48C66.7363 20.12 66.8563 19.76 67.0963 19.48C67.4163 19.2 68.2163 19.04 68.6563 18.84C70.0563 18.04 71.0563 15.2 71.0563 13.64C71.0563 9.76 66.7763 7.88 63.4163 7.88C62.5363 7.88 61.6963 8.04 61.6963 9.08C61.6963 9.88 61.8963 10.64 61.8963 11.44C61.8963 14.56 61.7763 17.72 61.7763 20.84C61.7763 26.36 61.8563 31.92 61.8563 37.44C61.8563 39.16 61.8563 39.28 63.6163 39.28C64.3763 39.28 64.7763 39.12 64.7763 38.28V31.48C64.7763 28.16 64.4563 24.84 64.4563 21.52C64.4563 21.2 64.4563 20.84 64.5363 20.52C65.2163 21.92 67.7763 32.6 68.0963 34.64C68.2163 35.16 68.3363 37.56 69.0563 37.56C69.6562 37.56 71.1363 37.12 71.1363 36.36C71.1363 35.64 70.6963 34.92 70.4563 34.24C69.2163 30.92 68.4163 27.36 67.6563 23.92ZM64.6562 17V14.88C64.6562 13.8 64.4163 12.76 64.4163 11.72C64.4163 11.08 64.6963 10.32 65.4163 10.32C66.9763 10.32 68.2963 12.16 68.2963 13.6C68.2963 14.28 68.0963 14.92 67.6963 15.48C67.3363 16 65.5763 17.32 64.9362 17.32C64.7763 17.32 64.6562 17.2 64.6562 17ZM86.4825 28.16H86.3225C85.6025 28.16 84.9225 28.04 84.2025 28.04C83.8825 28.04 83.4825 28.04 83.2025 28.24C82.4025 28.72 83.3625 33.68 80.7225 33.68C78.0425 33.68 78.0825 27.88 77.8825 26.04C77.8025 25.32 77.6825 24.6 77.6825 23.88C77.6825 22.48 78.9625 22.2 80.0825 22.2C81.4425 22.2 82.8025 22.32 84.1625 22.32C85.6425 22.32 86.6425 22.04 86.6425 20.32C86.6425 16.68 84.7225 10.2 80.2425 10.2C74.4825 10.2 74.1225 19.68 74.1225 23.76C74.1225 27.68 75.4025 36.92 80.6825 36.92C84.7225 36.92 86.8825 32.44 86.8825 28.92C86.8825 28.6 86.8425 28.24 86.4825 28.16ZM78.1225 18.24V17.36C78.1225 16.08 78.1225 13.32 79.9625 13.32C81.8425 13.32 83.2025 16.64 83.2025 18.16C83.2025 19.04 82.6425 19.04 81.9625 19.12C81.0025 19.24 80.0825 19.56 79.1225 19.56C78.8425 19.56 78.0425 19.52 78.0425 19.12C78.0425 18.8 78.0825 18.52 78.1225 18.24ZM113.865 28.16H113.705C112.985 28.16 112.305 28.04 111.585 28.04C111.265 28.04 110.865 28.04 110.585 28.24C109.785 28.72 110.745 33.68 108.105 33.68C105.425 33.68 105.465 27.88 105.265 26.04C105.185 25.32 105.065 24.6 105.065 23.88C105.065 22.48 106.345 22.2 107.465 22.2C108.825 22.2 110.185 22.32 111.545 22.32C113.025 22.32 114.025 22.04 114.025 20.32C114.025 16.68 112.105 10.2 107.625 10.2C101.865 10.2 101.505 19.68 101.505 23.76C101.505 27.68 102.785 36.92 108.065 36.92C112.105 36.92 114.265 32.44 114.265 28.92C114.265 28.6 114.225 28.24 113.865 28.16ZM105.505 18.24V17.36C105.505 16.08 105.505 13.32 107.345 13.32C109.225 13.32 110.585 16.64 110.585 18.16C110.585 19.04 110.025 19.04 109.345 19.12C108.385 19.24 107.465 19.56 106.505 19.56C106.225 19.56 105.425 19.52 105.425 19.12C105.425 18.8 105.465 18.52 105.505 18.24ZM130.809 28.4C130.449 25.36 130.649 22.32 130.649 19.28C130.649 17.48 130.449 15.72 130.449 13.96C130.449 13.24 130.569 12.56 130.569 11.84C130.569 10.92 128.449 10.52 127.769 10.52C127.209 10.52 127.209 11.12 127.209 11.52C127.209 16.52 127.809 21.48 127.809 26.48C127.809 26.96 127.809 27.4 127.689 27.88C125.809 25.2 121.449 12.12 120.529 11.4C120.009 11.04 119.369 10.88 118.729 10.88C117.929 10.88 117.489 11.32 117.489 12.12C117.489 12.96 117.769 13.76 117.889 14.56C118.129 16.36 118.169 18.24 118.169 20.04C118.169 22.36 118.049 24.68 118.049 26.96C118.049 29.84 118.209 32.64 118.529 35.48C118.609 36.04 118.609 36.56 119.329 36.56C119.889 36.56 120.449 36.64 121.009 36.64C121.809 36.64 121.809 35.44 121.809 34.88C121.809 30.76 121.169 26.68 120.769 22.6C120.609 21.08 120.409 19.6 120.409 18.12C120.409 17.96 120.449 17.76 120.489 17.6C121.169 18.08 122.849 23.24 123.289 24.36C124.289 27 125.689 29.48 126.649 32.12C126.889 32.72 127.249 34.28 127.769 34.6C128.129 34.8 129.529 34.8 129.969 34.8C131.089 34.8 131.089 32.88 131.089 32.12C131.089 30.88 130.929 29.64 130.809 28.4ZM146.775 9.08C145.855 6.96 144.255 5.16 141.815 5.16C135.895 5.16 135.615 14.32 135.615 18.48C135.615 20.88 135.735 23.24 135.935 25.64C136.055 27.12 136.215 28.64 136.215 30.12C136.215 32.2 136.335 34.28 136.335 36.36C136.335 37.56 136.055 38.72 136.055 39.92C136.055 41.4 136.655 41.96 138.215 41.96C139.535 41.96 139.615 40.88 139.615 39.8C139.615 38.68 139.375 37.6 139.375 36.48C139.255 32.12 139.095 27.76 139.095 23.4C139.095 22.92 139.135 22.72 139.695 22.72C141.095 22.72 142.535 23.04 143.975 23.04C145.375 23.04 146.455 23.12 146.455 21.48C146.455 20.72 146.455 18.92 145.455 18.92C143.695 18.92 141.975 19.64 140.215 19.64C139.095 19.64 139.255 18.08 139.255 17.32C139.255 16.12 139.375 14.96 139.455 13.76C139.575 12.16 139.655 8.92 142.015 8.92C143.855 8.92 144.575 12.32 144.815 13.76C146.095 13.52 147.575 13.68 147.575 11.92C147.575 10.96 147.135 9.92 146.775 9.08ZM163.872 17.16C163.512 13.56 162.992 5.96 158.032 5.96C154.392 5.96 150.272 10.36 150.272 13.92C150.272 14.88 151.592 14.84 152.232 14.84C152.392 14.84 152.552 14.88 152.712 14.84C154.232 14.72 154.192 14.4 154.192 13C154.192 11.32 155.312 9.28 157.192 9.28C158.072 9.28 158.752 9.88 159.232 10.52C160.912 12.84 160.912 26 160.912 29.48C160.872 29.52 160.792 29.52 160.712 29.52C159.672 29.52 158.352 28.36 156.912 28.36C154.152 28.36 152.832 30.76 152.832 33.24C152.832 38.88 156.552 41.4 161.872 41.4C164.592 41.4 164.272 40.28 164.272 38.12C164.272 34.68 164.392 31.24 164.392 27.8C164.392 24.24 164.272 20.68 163.872 17.16ZM159.952 38.24C157.832 38.24 156.352 35.96 156.352 34C156.352 32.64 157.272 31.56 158.672 31.56C160.472 31.56 161.032 32 161.032 33.84C161.032 34.84 161.352 35.8 161.352 36.8C161.352 37.4 161.232 38.24 160.472 38.24H159.952ZM181.786 28.4C181.426 25.36 181.626 22.32 181.626 19.28C181.626 17.48 181.426 15.72 181.426 13.96C181.426 13.24 181.546 12.56 181.546 11.84C181.546 10.92 179.426 10.52 178.746 10.52C178.186 10.52 178.186 11.12 178.186 11.52C178.186 16.52 178.786 21.48 178.786 26.48C178.786 26.96 178.786 27.4 178.666 27.88C176.786 25.2 172.426 12.12 171.506 11.4C170.986 11.04 170.346 10.88 169.706 10.88C168.906 10.88 168.466 11.32 168.466 12.12C168.466 12.96 168.746 13.76 168.866 14.56C169.106 16.36 169.146 18.24 169.146 20.04C169.146 22.36 169.026 24.68 169.026 26.96C169.026 29.84 169.186 32.64 169.506 35.48C169.586 36.04 169.586 36.56 170.306 36.56C170.866 36.56 171.426 36.64 171.986 36.64C172.786 36.64 172.786 35.44 172.786 34.88C172.786 30.76 172.146 26.68 171.746 22.6C171.586 21.08 171.386 19.6 171.386 18.12C171.386 17.96 171.426 17.76 171.466 17.6C172.146 18.08 173.826 23.24 174.266 24.36C175.266 27 176.666 29.48 177.626 32.12C177.866 32.72 178.226 34.28 178.746 34.6C179.106 34.8 180.506 34.8 180.946 34.8C182.066 34.8 182.066 32.88 182.066 32.12C182.066 30.88 181.906 29.64 181.786 28.4ZM197.472 38.36C197.072 38 195.752 36.8 195.312 36.8C194.872 36.8 194.432 37.88 193.472 37.88C190.792 37.88 190.792 32.56 190.792 30.72C190.792 25.72 191.072 20.68 191.392 15.68C191.992 15.68 195.472 15.68 195.472 14.96C195.472 14.56 195.352 14.2 195.352 13.8C195.352 13.56 195.392 13.36 195.392 13.12C195.392 12.52 194.712 12.44 194.272 12.44C193.472 12.44 192.712 12.64 191.912 12.64H191.592C191.712 10.88 191.952 9.12 191.952 7.36C191.952 6.12 191.152 5.48 189.912 5.48C188.032 5.48 188.512 8.28 188.512 9.44C188.512 10.44 188.432 11.44 188.432 12.48H188.152C186.032 12.48 185.752 12.52 185.752 14.72C185.752 14.88 185.752 15.04 185.792 15.16C186.352 15.56 187.672 15.6 188.392 15.64C188.352 20.28 187.832 24.88 187.832 29.52C187.832 33.24 187.832 41.64 193.152 41.64C194.472 41.64 197.632 40.24 197.632 38.68C197.632 38.56 197.552 38.44 197.472 38.36ZM224.608 28.16H224.448C223.728 28.16 223.048 28.04 222.328 28.04C222.008 28.04 221.608 28.04 221.328 28.24C220.528 28.72 221.488 33.68 218.848 33.68C216.168 33.68 216.208 27.88 216.008 26.04C215.928 25.32 215.808 24.6 215.808 23.88C215.808 22.48 217.088 22.2 218.208 22.2C219.568 22.2 220.928 22.32 222.288 22.32C223.768 22.32 224.768 22.04 224.768 20.32C224.768 16.68 222.848 10.2 218.368 10.2C212.608 10.2 212.248 19.68 212.248 23.76C212.248 27.68 213.528 36.92 218.808 36.92C222.848 36.92 225.008 32.44 225.008 28.92C225.008 28.6 224.968 28.24 224.608 28.16ZM216.248 18.24V17.36C216.248 16.08 216.248 13.32 218.088 13.32C219.968 13.32 221.328 16.64 221.328 18.16C221.328 19.04 220.768 19.04 220.088 19.12C219.128 19.24 218.208 19.56 217.248 19.56C216.967 19.56 216.168 19.52 216.168 19.12C216.168 18.8 216.208 18.52 216.248 18.24ZM236.592 24.68C235.192 22.12 231.112 18.96 231.112 15.96C231.112 15.44 231.192 14.24 231.952 14.24C233.632 14.24 232.232 16.4 234.192 16.4C234.832 16.4 235.472 16.32 236.112 16.24C236.032 14.04 234.432 11.44 232.032 11.44C229.752 11.44 228.232 13.6 228.232 15.72C228.232 21.24 235.112 24 235.112 30C235.112 31.04 234.632 32.8 233.312 32.8C231.712 32.8 231.832 30.8 231.832 29.68C231.832 28.8 230.992 28.24 230.152 28.24C229.072 28.24 228.672 29.12 228.672 30.08C228.672 32.6 230.472 35.68 233.272 35.68C236.352 35.68 237.952 32.56 237.952 29.84C237.952 28.04 237.432 26.24 236.592 24.68ZM251.925 38.36C251.525 38 250.205 36.8 249.765 36.8C249.325 36.8 248.885 37.88 247.925 37.88C245.245 37.88 245.245 32.56 245.245 30.72C245.245 25.72 245.525 20.68 245.845 15.68C246.445 15.68 249.925 15.68 249.925 14.96C249.925 14.56 249.805 14.2 249.805 13.8C249.805 13.56 249.845 13.36 249.845 13.12C249.845 12.52 249.165 12.44 248.725 12.44C247.925 12.44 247.165 12.64 246.365 12.64H246.045C246.165 10.88 246.405 9.12 246.405 7.36C246.405 6.12 245.605 5.48 244.365 5.48C242.485 5.48 242.965 8.28 242.965 9.44C242.965 10.44 242.885 11.44 242.885 12.48H242.605C240.485 12.48 240.205 12.52 240.205 14.72C240.205 14.88 240.205 15.04 240.245 15.16C240.805 15.56 242.125 15.6 242.845 15.64C242.805 20.28 242.285 24.88 242.285 29.52C242.285 33.24 242.285 41.64 247.605 41.64C248.925 41.64 252.085 40.24 252.085 38.68C252.085 38.56 252.005 38.44 251.925 38.36ZM258.422 25.08C259.822 24.72 264.862 24.6 266.582 24.6C267.622 24.6 268.662 24.72 269.702 24.72C269.822 24.72 269.982 24.68 270.102 24.6C270.342 24.24 270.262 21.84 270.302 21.24C266.822 21.36 263.342 21.44 259.902 21.44C259.222 21.44 258.542 21.28 257.862 21.28C257.502 21.28 257.182 21.32 256.862 21.44C256.222 21.64 256.342 21.6 256.342 22.44C256.342 22.8 256.382 25.24 256.622 25.44C256.702 25.32 257.022 25.44 257.142 25.44C257.582 25.44 257.982 25.2 258.422 25.08ZM278.45 36.8C278.49 36.56 278.53 36.32 278.53 36.04C278.53 34.84 278.21 33.68 278.09 32.48C277.73 28.96 277.81 25.44 277.81 21.92C277.81 21 277.69 20.12 276.57 20.12C274.73 20.12 274.37 20.68 274.37 22.44C274.37 23.92 274.69 25.4 274.85 26.92C275.13 29.48 275.05 32.12 275.05 34.68C275.05 37 275.29 37.08 277.53 37.08C277.85 37.08 278.21 37.08 278.45 36.8ZM274.85 16.72C275.33 16.72 275.81 16.84 276.29 16.84C277.13 16.84 277.41 16.24 277.41 15.48C277.41 14.76 277.25 14.08 277.21 13.36C277.21 12.76 277.29 12.2 277.29 11.6C277.29 10.24 276.29 10.04 275.13 10.04C274.77 10.04 274.41 10.04 274.09 10.12C273.93 10.2 273.89 10.4 273.89 10.56C273.89 11.12 274.13 11.6 274.21 12.12C274.37 13.28 274.29 14.44 274.29 15.6C274.29 15.96 274.29 16.4 274.41 16.76C274.57 16.72 274.69 16.72 274.85 16.72ZM287.087 35.8C286.167 27.8 286.007 19.76 285.687 11.72C285.647 11.04 285.687 10.32 285.687 9.64C285.687 8.48 285.567 7 284.047 7C283.487 7 282.967 7.28 282.407 7.16C282.247 7.32 282.167 7.52 282.167 7.76C282.167 8.36 282.407 8.96 282.487 9.6C282.607 10.52 282.487 11.48 282.487 12.44C282.487 18.48 283.167 24.48 283.487 30.52C283.647 33.24 283.607 36 284.087 38.72C284.287 39.84 284.247 39.64 285.287 39.88C285.687 39.96 286.127 40.12 286.527 40.12C287.327 40.12 287.407 39.04 287.407 38.48C287.407 37.6 287.207 36.68 287.087 35.8ZM317.826 11H317.426C316.426 11 315.226 11.04 315.226 12.36C315.226 13.12 315.306 13.84 315.306 14.56C315.306 16.56 315.266 18.56 315.266 20.56C315.266 23.76 316.106 32.08 311.146 32.08C306.546 32.08 306.346 26.28 306.346 22.92C306.346 19.4 306.466 15.92 306.466 12.4C306.466 11.84 305.786 11.84 305.426 11.84C304.666 11.84 304.186 11.88 303.586 12.4C303.426 12.56 303.266 20.08 303.266 21C303.266 25.68 303.706 34.96 310.226 34.96C317.546 34.96 318.746 27.04 318.746 21.32C318.746 18.28 318.386 15.28 318.386 12.24C318.386 11.72 318.386 11.24 317.826 11ZM335.536 28.4C335.176 25.36 335.376 22.32 335.376 19.28C335.376 17.48 335.176 15.72 335.176 13.96C335.176 13.24 335.296 12.56 335.296 11.84C335.296 10.92 333.176 10.52 332.496 10.52C331.936 10.52 331.936 11.12 331.936 11.52C331.936 16.52 332.536 21.48 332.536 26.48C332.536 26.96 332.536 27.4 332.416 27.88C330.536 25.2 326.176 12.12 325.256 11.4C324.736 11.04 324.096 10.88 323.456 10.88C322.656 10.88 322.216 11.32 322.216 12.12C322.216 12.96 322.496 13.76 322.616 14.56C322.856 16.36 322.896 18.24 322.896 20.04C322.896 22.36 322.776 24.68 322.776 26.96C322.776 29.84 322.936 32.64 323.256 35.48C323.336 36.04 323.336 36.56 324.056 36.56C324.616 36.56 325.176 36.64 325.736 36.64C326.536 36.64 326.536 35.44 326.536 34.88C326.536 30.76 325.896 26.68 325.496 22.6C325.336 21.08 325.136 19.6 325.136 18.12C325.136 17.96 325.176 17.76 325.216 17.6C325.896 18.08 327.576 23.24 328.016 24.36C329.016 27 330.416 29.48 331.376 32.12C331.616 32.72 331.976 34.28 332.496 34.6C332.856 34.8 334.256 34.8 334.696 34.8C335.816 34.8 335.816 32.88 335.816 32.12C335.816 30.88 335.656 29.64 335.536 28.4ZM351.941 8.32C351.861 9.28 351.821 10.2 351.821 11.16C351.821 14.44 352.261 17.64 352.421 20.92C352.701 26.08 352.701 31.24 352.701 36.4C352.701 38.28 352.741 38.8 354.821 38.8C356.141 38.8 356.181 38.36 356.181 37.16C356.181 35.72 355.821 34.28 355.701 32.8C355.421 29.6 355.141 26.4 355.141 23.16C355.141 22.4 354.981 21.68 354.981 20.92C354.981 20.32 355.061 19.84 355.541 19.4C356.021 18.96 357.621 18.76 358.381 18.32C360.061 17.36 361.701 15.04 361.701 13.08C361.701 12.28 361.421 11.52 360.981 10.88C359.141 8.12 354.861 8.44 351.941 8.32ZM358.221 15C357.861 15.8 356.301 16.88 355.421 16.88C354.701 16.88 354.541 16.2 354.541 15.64C354.541 14.96 354.701 14.32 354.741 13.68C354.781 13.16 354.701 12.68 354.701 12.16C354.701 11.68 354.781 11.2 355.341 11.2C356.741 11.2 358.421 12.6 358.421 14.04C358.421 14.36 358.341 14.68 358.221 15ZM367.177 11.84C367.177 12.2 368.377 12.64 368.697 12.64C369.657 12.64 372.057 7.44 372.057 6.32C372.057 5.16 370.337 5.08 369.417 5.08C368.457 5.08 367.177 10.88 367.177 11.84ZM385.585 7.28C385.105 7.08 384.625 7.04 384.145 7.04C383.225 7.04 382.305 7.2 381.345 7.2C380.185 7.2 378.985 7.24 377.865 6.96C377.465 6.88 377.105 6.68 376.705 6.68C376.065 6.68 375.945 8.28 375.945 8.76C375.945 9.48 376.065 10.32 377.025 10.32C377.745 10.32 378.385 9.88 379.105 9.88C380.385 9.88 380.305 10.88 380.305 11.84C380.505 19.76 381.065 27.64 381.305 35.56V35.68C381.305 36.72 381.185 37.76 381.185 38.8C381.185 39.96 381.345 40.44 382.625 40.44C383.425 40.44 384.585 40.32 384.585 39.24C384.585 38.6 384.385 38 384.305 37.4C384.225 36.68 384.265 36 384.265 35.28C384.265 34.64 384.225 33.96 384.185 33.28C383.865 29.6 383.665 25.92 383.505 22.24C383.345 18.68 383.385 15.16 383.025 11.64C382.985 11.36 382.945 11.08 382.945 10.76C382.945 10.48 382.945 9.96 383.345 9.96C383.905 9.96 384.425 10.44 385.025 10.44C385.825 10.44 386.385 9.68 386.385 8.92C386.385 8.32 386.145 7.6 385.585 7.28ZM394.934 36.8C394.974 36.56 395.014 36.32 395.014 36.04C395.014 34.84 394.694 33.68 394.574 32.48C394.214 28.96 394.294 25.44 394.294 21.92C394.294 21 394.174 20.12 393.054 20.12C391.214 20.12 390.854 20.68 390.854 22.44C390.854 23.92 391.174 25.4 391.334 26.92C391.614 29.48 391.534 32.12 391.534 34.68C391.534 37 391.774 37.08 394.014 37.08C394.334 37.08 394.694 37.08 394.934 36.8ZM391.334 16.72C391.814 16.72 392.294 16.84 392.774 16.84C393.614 16.84 393.894 16.24 393.894 15.48C393.894 14.76 393.734 14.08 393.694 13.36C393.694 12.76 393.774 12.2 393.774 11.6C393.774 10.24 392.774 10.04 391.614 10.04C391.254 10.04 390.894 10.04 390.574 10.12C390.414 10.2 390.374 10.4 390.374 10.56C390.374 11.12 390.614 11.6 390.694 12.12C390.854 13.28 390.774 14.44 390.774 15.6C390.774 15.96 390.774 16.4 390.894 16.76C391.054 16.72 391.174 16.72 391.334 16.72ZM423.13 17.16C422.77 13.56 422.25 5.96 417.29 5.96C413.65 5.96 409.53 10.36 409.53 13.92C409.53 14.88 410.85 14.84 411.49 14.84C411.65 14.84 411.81 14.88 411.97 14.84C413.49 14.72 413.45 14.4 413.45 13C413.45 11.32 414.57 9.28 416.45 9.28C417.33 9.28 418.01 9.88 418.49 10.52C420.17 12.84 420.17 26 420.17 29.48C420.13 29.52 420.05 29.52 419.97 29.52C418.93 29.52 417.61 28.36 416.17 28.36C413.41 28.36 412.09 30.76 412.09 33.24C412.09 38.88 415.81 41.4 421.13 41.4C423.85 41.4 423.53 40.28 423.53 38.12C423.53 34.68 423.65 31.24 423.65 27.8C423.65 24.24 423.53 20.68 423.13 17.16ZM419.21 38.24C417.09 38.24 415.61 35.96 415.61 34C415.61 32.64 416.53 31.56 417.93 31.56C419.73 31.56 420.29 32 420.29 33.84C420.29 34.84 420.61 35.8 420.61 36.8C420.61 37.4 420.49 38.24 419.73 38.24H419.21ZM439.484 10.88C439.204 10.68 438.404 10.68 438.044 10.68C437.804 10.68 437.604 10.68 437.364 10.72C436.204 11.04 436.444 11.04 436.364 12.2C436.244 14.32 435.684 16.4 435.484 18.52C435.124 22.4 434.524 26.24 433.924 30.08C433.484 29.8 433.004 25.84 432.804 25.08C432.284 23.12 431.924 21.12 431.404 19.12C430.964 17.24 430.324 15.36 429.884 13.48C429.484 11.8 429.804 10.92 427.724 10.76L427.164 10.72C426.844 10.72 426.364 10.72 426.364 11.2C426.364 11.68 427.724 16.32 428.004 17.32C429.284 22.64 430.724 27.96 431.884 33.32C432.044 34.08 432.204 35.96 432.964 36.32C433.284 36.44 433.724 36.44 434.044 36.44C434.484 36.44 435.444 36.44 435.764 36.16C436.404 35.64 436.364 32.56 436.484 31.68C437.044 27.88 437.724 24.08 438.204 20.28C438.604 17.44 438.564 13.68 439.804 11.12H439.644C439.564 11.12 439.484 10.96 439.484 10.88ZM455.74 28.16H455.58C454.86 28.16 454.18 28.04 453.46 28.04C453.14 28.04 452.74 28.04 452.46 28.24C451.66 28.72 452.62 33.68 449.98 33.68C447.3 33.68 447.34 27.88 447.14 26.04C447.06 25.32 446.94 24.6 446.94 23.88C446.94 22.48 448.22 22.2 449.34 22.2C450.7 22.2 452.06 22.32 453.42 22.32C454.9 22.32 455.9 22.04 455.9 20.32C455.9 16.68 453.98 10.2 449.5 10.2C443.74 10.2 443.38 19.68 443.38 23.76C443.38 27.68 444.66 36.92 449.94 36.92C453.98 36.92 456.14 32.44 456.14 28.92C456.14 28.6 456.1 28.24 455.74 28.16ZM447.38 18.24V17.36C447.38 16.08 447.38 13.32 449.22 13.32C451.1 13.32 452.46 16.64 452.46 18.16C452.46 19.04 451.9 19.04 451.22 19.12C450.26 19.24 449.34 19.56 448.38 19.56C448.1 19.56 447.3 19.52 447.3 19.12C447.3 18.8 447.34 18.52 447.38 18.24ZM472.684 28.4C472.324 25.36 472.524 22.32 472.524 19.28C472.524 17.48 472.324 15.72 472.324 13.96C472.324 13.24 472.444 12.56 472.444 11.84C472.444 10.92 470.324 10.52 469.644 10.52C469.084 10.52 469.084 11.12 469.084 11.52C469.084 16.52 469.684 21.48 469.684 26.48C469.684 26.96 469.684 27.4 469.564 27.88C467.684 25.2 463.324 12.12 462.404 11.4C461.884 11.04 461.244 10.88 460.604 10.88C459.804 10.88 459.364 11.32 459.364 12.12C459.364 12.96 459.644 13.76 459.764 14.56C460.004 16.36 460.044 18.24 460.044 20.04C460.044 22.36 459.924 24.68 459.924 26.96C459.924 29.84 460.084 32.64 460.404 35.48C460.484 36.04 460.484 36.56 461.204 36.56C461.764 36.56 462.324 36.64 462.884 36.64C463.684 36.64 463.684 35.44 463.684 34.88C463.684 30.76 463.044 26.68 462.644 22.6C462.484 21.08 462.284 19.6 462.284 18.12C462.284 17.96 462.324 17.76 462.364 17.6C463.044 18.08 464.724 23.24 465.164 24.36C466.164 27 467.564 29.48 468.524 32.12C468.764 32.72 469.124 34.28 469.644 34.6C470.004 34.8 471.404 34.8 471.844 34.8C472.964 34.8 472.964 32.88 472.964 32.12C472.964 30.88 472.804 29.64 472.684 28.4ZM488.37 38.36C487.97 38 486.65 36.8 486.21 36.8C485.77 36.8 485.33 37.88 484.37 37.88C481.69 37.88 481.69 32.56 481.69 30.72C481.69 25.72 481.97 20.68 482.29 15.68C482.89 15.68 486.37 15.68 486.37 14.96C486.37 14.56 486.25 14.2 486.25 13.8C486.25 13.56 486.29 13.36 486.29 13.12C486.29 12.52 485.61 12.44 485.17 12.44C484.37 12.44 483.61 12.64 482.81 12.64H482.49C482.61 10.88 482.85 9.12 482.85 7.36C482.85 6.12 482.05 5.48 480.81 5.48C478.93 5.48 479.41 8.28 479.41 9.44C479.41 10.44 479.33 11.44 479.33 12.48H479.05C476.93 12.48 476.65 12.52 476.65 14.72C476.65 14.88 476.65 15.04 476.69 15.16C477.25 15.56 478.57 15.6 479.29 15.64C479.25 20.28 478.73 24.88 478.73 29.52C478.73 33.24 478.73 41.64 484.05 41.64C485.37 41.64 488.53 40.24 488.53 38.68C488.53 38.56 488.45 38.44 488.37 38.36ZM506.107 11H505.707C504.707 11 503.507 11.04 503.507 12.36C503.507 13.12 503.587 13.84 503.587 14.56C503.587 16.56 503.547 18.56 503.547 20.56C503.547 23.76 504.387 32.08 499.427 32.08C494.827 32.08 494.627 26.28 494.627 22.92C494.627 19.4 494.747 15.92 494.747 12.4C494.747 11.84 494.067 11.84 493.707 11.84C492.947 11.84 492.467 11.88 491.867 12.4C491.707 12.56 491.547 20.08 491.547 21C491.547 25.68 491.987 34.96 498.507 34.96C505.827 34.96 507.027 27.04 507.027 21.32C507.027 18.28 506.667 15.28 506.667 12.24C506.667 11.72 506.667 11.24 506.107 11ZM517.617 23.92C517.337 22.76 516.697 21.68 516.697 20.48C516.697 20.12 516.817 19.76 517.057 19.48C517.377 19.2 518.177 19.04 518.617 18.84C520.017 18.04 521.017 15.2 521.017 13.64C521.017 9.76 516.737 7.88 513.377 7.88C512.497 7.88 511.657 8.04 511.657 9.08C511.657 9.88 511.857 10.64 511.857 11.44C511.857 14.56 511.737 17.72 511.737 20.84C511.737 26.36 511.817 31.92 511.817 37.44C511.817 39.16 511.817 39.28 513.577 39.28C514.337 39.28 514.737 39.12 514.737 38.28V31.48C514.737 28.16 514.417 24.84 514.417 21.52C514.417 21.2 514.417 20.84 514.497 20.52C515.177 21.92 517.737 32.6 518.057 34.64C518.177 35.16 518.297 37.56 519.017 37.56C519.617 37.56 521.097 37.12 521.097 36.36C521.097 35.64 520.657 34.92 520.417 34.24C519.177 30.92 518.377 27.36 517.617 23.92ZM514.617 17V14.88C514.617 13.8 514.377 12.76 514.377 11.72C514.377 11.08 514.657 10.32 515.377 10.32C516.937 10.32 518.257 12.16 518.257 13.6C518.257 14.28 518.057 14.92 517.657 15.48C517.297 16 515.537 17.32 514.897 17.32C514.737 17.32 514.617 17.2 514.617 17ZM528.723 36.8C528.763 36.56 528.803 36.32 528.803 36.04C528.803 34.84 528.483 33.68 528.363 32.48C528.003 28.96 528.083 25.44 528.083 21.92C528.083 21 527.963 20.12 526.843 20.12C525.003 20.12 524.643 20.68 524.643 22.44C524.643 23.92 524.963 25.4 525.123 26.92C525.403 29.48 525.323 32.12 525.323 34.68C525.323 37 525.563 37.08 527.803 37.08C528.123 37.08 528.483 37.08 528.723 36.8ZM525.123 16.72C525.603 16.72 526.083 16.84 526.563 16.84C527.403 16.84 527.683 16.24 527.683 15.48C527.683 14.76 527.523 14.08 527.483 13.36C527.483 12.76 527.563 12.2 527.563 11.6C527.563 10.24 526.563 10.04 525.403 10.04C525.043 10.04 524.683 10.04 524.363 10.12C524.203 10.2 524.163 10.4 524.163 10.56C524.163 11.12 524.403 11.6 524.483 12.12C524.643 13.28 524.563 14.44 524.563 15.6C524.563 15.96 524.563 16.4 524.683 16.76C524.843 16.72 524.963 16.72 525.123 16.72ZM544.92 28.16H544.76C544.04 28.16 543.36 28.04 542.64 28.04C542.32 28.04 541.92 28.04 541.64 28.24C540.84 28.72 541.8 33.68 539.16 33.68C536.48 33.68 536.52 27.88 536.32 26.04C536.24 25.32 536.12 24.6 536.12 23.88C536.12 22.48 537.4 22.2 538.52 22.2C539.88 22.2 541.24 22.32 542.6 22.32C544.08 22.32 545.08 22.04 545.08 20.32C545.08 16.68 543.16 10.2 538.68 10.2C532.92 10.2 532.56 19.68 532.56 23.76C532.56 27.68 533.84 36.92 539.12 36.92C543.16 36.92 545.32 32.44 545.32 28.92C545.32 28.6 545.28 28.24 544.92 28.16ZM536.56 18.24V17.36C536.56 16.08 536.56 13.32 538.4 13.32C540.28 13.32 541.64 16.64 541.64 18.16C541.64 19.04 541.08 19.04 540.4 19.12C539.44 19.24 538.52 19.56 537.56 19.56C537.28 19.56 536.48 19.52 536.48 19.12C536.48 18.8 536.52 18.52 536.56 18.24ZM555.664 23.92C555.384 22.76 554.744 21.68 554.744 20.48C554.744 20.12 554.864 19.76 555.104 19.48C555.424 19.2 556.224 19.04 556.664 18.84C558.064 18.04 559.064 15.2 559.064 13.64C559.064 9.76 554.784 7.88 551.424 7.88C550.544 7.88 549.704 8.04 549.704 9.08C549.704 9.88 549.904 10.64 549.904 11.44C549.904 14.56 549.784 17.72 549.784 20.84C549.784 26.36 549.864 31.92 549.864 37.44C549.864 39.16 549.864 39.28 551.624 39.28C552.384 39.28 552.784 39.12 552.784 38.28V31.48C552.784 28.16 552.464 24.84 552.464 21.52C552.464 21.2 552.464 20.84 552.544 20.52C553.224 21.92 555.784 32.6 556.104 34.64C556.224 35.16 556.344 37.56 557.064 37.56C557.664 37.56 559.144 37.12 559.144 36.36C559.144 35.64 558.704 34.92 558.464 34.24C557.224 30.92 556.424 27.36 555.664 23.92ZM552.664 17V14.88C552.664 13.8 552.424 12.76 552.424 11.72C552.424 11.08 552.704 10.32 553.424 10.32C554.984 10.32 556.304 12.16 556.304 13.6C556.304 14.28 556.104 14.92 555.704 15.48C555.344 16 553.584 17.32 552.944 17.32C552.784 17.32 552.664 17.2 552.664 17ZM576.809 33.12C576.449 33.12 576.009 33.2 575.809 33.52C575.649 33.8 575.569 35.76 575.569 36.2C575.569 36.8 575.849 37.16 576.489 37.16C577.209 37.16 577.969 37.04 578.689 36.96C579.329 36.92 579.249 36.16 579.249 35.72C579.249 33.36 579.049 33.12 576.809 33.12ZM582.569 10.2C581.729 9 580.329 8.12 578.849 8.12C575.889 8.12 574.369 11.28 574.369 13.84C574.369 14.84 574.649 16.04 575.849 16.04C576.689 16.04 577.609 15.48 577.609 14.6C577.609 14.04 577.409 13.56 577.409 13.04C577.409 12.2 577.929 11.08 578.889 11.08C580.409 11.08 580.929 13.24 580.929 14.4C580.929 19.2 577.489 21.52 575.929 25.52C575.769 25.92 575.569 29.4 575.569 29.96C575.569 30.36 575.849 30.68 576.249 30.68H577.729C578.129 30.68 578.409 30.4 578.449 30C578.769 26.84 579.369 24.92 581.049 22.2C581.729 21.16 582.489 20.12 582.969 18.96C583.529 17.6 583.849 16.04 583.849 14.6C583.849 13.04 583.489 11.48 582.569 10.2Z" fill="white"/>
</g>
<defs>
<filter id="filter0_d" x="0.873535" y="0.0800018" width="591.976" height="52.88" filterUnits="userSpaceOnUse" color-interpolation-filters="sRGB">
<feFlood flood-opacity="0" result="BackgroundImageFix"/>
<feColorMatrix in="SourceAlpha" type="matrix" values="0 0 0 0 0 0 0 0 0 0 0 0 0 0 0 0 0 0 127 0"/>
<feOffset dx="1" dy="3"/>
<feGaussianBlur stdDeviation="4"/>
<feColorMatrix type="matrix" values="0 0 0 0 0.101961 0 0 0 0 0.0784314 0 0 0 0 0.407843 0 0 0 1 0"/>
<feBlend mode="normal" in2="BackgroundImageFix" result="effect1_dropShadow"/>
<feBlend mode="normal" in="SourceGraphic" in2="effect1_dropShadow" result="shape"/>
</filter>
</defs>
</svg>
