<svg width="847" height="163" viewBox="0 0 847 163" fill="none" xmlns="http://www.w3.org/2000/svg">
<path d="M42.0867 158.897C31.324 158.897 20.5613 158.118 11.4049 157.379C9.39691 157.215 7.95117 156.354 7.95117 155.328C7.95117 154.425 9.07564 153.646 10.7623 153.359C43.8538 147.779 51.966 138.179 63.2106 124.927C64.5761 123.286 66.0218 121.563 67.6282 119.799C70.4393 116.558 73.1702 112.701 71.9654 108.516C70.9213 104.865 67.1463 101.993 63.8532 99.4493C62.9697 98.7518 62.0862 98.0954 61.3633 97.48C49.2351 87.2643 50.6006 72.6177 65.058 58.2172C71.0819 52.2273 78.5516 46.6887 87.3867 41.7244C107.788 30.2779 136.863 21.0468 173.971 14.3184C199.994 9.60031 227.061 6.52329 254.45 5.08735C268.024 4.38989 282.803 4.06168 299.75 4.06168C316.135 4.06168 332.761 4.38989 348.825 4.67708L609.058 9.51826C660.222 10.4619 718.212 11.5286 764.556 25.9701C808.732 39.7141 837.566 65.6841 837.968 92.1055C838.048 95.1004 837.727 98.1775 835.237 100.598C832.908 102.937 828.249 104.906 824.072 106.547C790.82 119.758 749.777 128.866 698.534 134.445C651.628 139.533 602.392 141.01 556.048 141.871C545.847 142.076 535.727 142.281 524.964 142.487C491.632 143.184 457.175 143.881 422.879 143.881C397.016 143.881 374.366 143.471 353.564 142.651C320.472 141.338 292.2 140.353 262.321 139.286C236.539 138.384 209.873 137.44 179.994 136.291C177.906 136.209 175.738 136.127 173.569 136.045C166.18 135.717 158.549 135.389 150.999 135.389C138.389 135.389 128.269 136.291 119.273 138.261C106.663 140.969 98.31 145.03 90.9207 148.641C82.8085 152.579 75.7404 156.025 63.8532 157.584C57.267 158.446 50.1186 158.897 42.0867 158.897Z" fill="#F98E12"/>
<path d="M299.75 8.20539C315.975 8.20539 332.521 8.49257 348.504 8.82079L608.738 13.662C637.813 14.1953 663.997 14.8107 689.378 16.9852C717.811 19.4057 741.023 23.5084 760.299 29.4984C802.146 42.5449 829.454 67.1201 829.856 92.1875C829.856 94.526 829.695 97.1518 828.008 98.7929C826.402 100.393 822.547 101.993 819.093 103.388C786.805 116.188 746.806 125.091 696.848 130.507C650.584 135.512 601.67 136.989 555.807 137.85C545.607 138.056 535.406 138.261 524.644 138.466C491.392 139.163 457.015 139.861 422.879 139.861C397.258 139.861 374.768 139.451 354.207 138.63C321.115 137.317 292.843 136.333 262.884 135.266C237.102 134.363 210.436 133.42 180.637 132.271C178.549 132.189 176.38 132.107 174.292 132.025C166.742 131.696 158.951 131.368 151 131.368C137.265 131.368 126.181 132.394 116.141 134.527C102.166 137.522 93.2503 141.871 85.3791 145.687C77.7488 149.379 71.7249 152.333 61.8456 153.646C55.902 154.425 49.3962 154.836 42.0872 154.836C37.1074 154.836 32.1276 154.672 27.2281 154.384C52.4483 147.984 60.6408 138.343 70.6004 126.568C71.9658 124.927 73.4116 123.245 74.9376 121.481C78.0701 117.952 81.3631 113.193 79.8371 107.942C78.4716 103.388 74.0541 99.9826 70.4398 97.1928C69.5562 96.5364 68.7531 95.921 68.1105 95.3466C62.6488 90.7926 60.3999 85.2129 61.2834 78.8127C62.1669 72.7408 65.8616 66.2995 72.0461 60.1455C77.6685 54.4838 84.8168 49.2323 93.17 44.5552C112.607 33.6011 140.639 24.7803 176.461 18.257C201.842 13.662 228.267 10.626 255.093 9.27209C268.506 8.5336 283.124 8.20539 299.75 8.20539ZM299.75 0C284.329 0 268.988 0.287189 253.647 1.0667C225.536 2.50264 197.826 5.66172 171.24 10.5029C137.667 16.5749 105.379 25.5188 81.4435 39.0166C72.1264 44.227 64.1749 50.0939 57.91 56.371C44.4967 69.7868 39.1153 86.7309 54.5366 99.5724C58.2313 102.649 63.0504 105.562 64.0946 109.091C64.9781 112.168 62.8898 115.245 60.3999 118.076C46.0228 134.486 41.6856 143.758 8.35317 149.42C3.3734 150.282 0 152.62 0 155.287C0 158.323 4.25691 160.908 10.1202 161.4C20.7223 162.262 31.485 163 42.0872 163C50.119 163 58.0706 162.59 65.9419 161.564C91.644 158.159 97.9088 147.328 122.406 142.076C131.482 140.107 141.201 139.533 151.08 139.533C160.477 139.533 170.116 140.066 179.433 140.435C242.885 142.897 290.433 144.333 353.002 146.794C375.813 147.697 399.346 148.025 422.96 148.025C468.34 148.025 514.122 146.794 556.45 146.015C651.949 144.251 753.713 139.779 829.053 109.829C834.273 107.778 839.414 105.521 842.466 102.526C845.679 99.3672 846.08 95.6748 846.08 92.1055C845.679 64.2482 815.398 36.9653 768.813 22.4828C721.907 7.87717 664.318 6.48226 609.46 5.45658C522.716 3.85653 435.971 2.21545 349.227 0.615404C332.681 0.287189 316.216 0 299.75 0Z" fill="#FFF2EA"/>
</svg>
