<svg width="847" height="163" viewBox="0 0 847 163" fill="none" xmlns="http://www.w3.org/2000/svg">
<path d="M803.993 158.897C814.756 158.897 825.519 158.118 834.675 157.379C836.683 157.215 838.129 156.354 838.129 155.328C838.129 154.425 837.004 153.646 835.318 153.359C802.226 147.779 794.114 138.179 782.869 124.927C781.504 123.286 780.058 121.563 778.452 119.799C775.641 116.557 772.91 112.701 774.115 108.516C775.159 104.865 778.934 101.993 782.227 99.4493C783.11 98.7518 783.994 98.0954 784.717 97.48C796.845 87.2643 795.48 72.6176 781.022 58.2172C774.998 52.2273 767.529 46.6886 758.693 41.7244C738.292 30.2779 709.217 21.0468 672.11 14.3184C646.086 9.60028 619.019 6.52326 591.63 5.08732C578.056 4.38986 563.277 4.06165 546.33 4.06165C529.945 4.06165 513.319 4.38986 497.255 4.67705L237.022 9.51823C185.858 10.4618 127.868 11.5285 81.524 25.97C37.3486 39.714 8.51398 65.6841 8.11243 92.1054C8.0321 95.1004 8.35339 98.1774 10.8433 100.598C13.1725 102.937 17.8311 104.906 22.0076 106.547C55.2597 119.758 96.3027 128.866 147.546 134.445C194.453 139.533 243.688 141.01 290.032 141.871C300.233 142.076 310.353 142.281 321.116 142.486C354.448 143.184 388.905 143.881 423.201 143.881C449.064 143.881 471.714 143.471 492.516 142.651C525.608 141.338 553.88 140.353 583.759 139.286C609.541 138.384 636.207 137.44 666.086 136.291C668.174 136.209 670.343 136.127 672.511 136.045C679.9 135.717 687.531 135.389 695.081 135.389C707.691 135.389 717.811 136.291 726.807 138.261C739.417 140.969 747.77 145.03 755.159 148.641C763.272 152.579 770.34 156.025 782.227 157.584C788.813 158.446 795.961 158.897 803.993 158.897Z" fill="#F98E12"/>
<path d="M546.33 8.20539C530.105 8.20539 513.559 8.49257 497.576 8.82079L237.342 13.662C208.267 14.1953 182.083 14.8107 156.702 16.9852C128.269 19.4057 105.057 23.5084 85.7806 29.4984C43.9344 42.5449 16.6259 67.1201 16.2244 92.1875C16.2244 94.526 16.3849 97.1518 18.0716 98.7929C19.678 100.393 23.5333 101.993 26.9871 103.388C59.2753 116.188 99.2742 125.091 149.233 130.507C195.496 135.512 244.411 136.989 290.273 137.85C300.473 138.056 310.674 138.261 321.436 138.466C354.689 139.163 389.065 139.861 423.201 139.861C448.822 139.861 471.312 139.451 491.873 138.63C524.965 137.317 553.237 136.333 583.196 135.266C608.978 134.363 635.644 133.42 665.443 132.271C667.531 132.189 669.7 132.107 671.788 132.025C679.338 131.696 687.129 131.368 695.08 131.368C708.815 131.368 719.899 132.394 729.939 134.527C743.914 137.522 752.83 141.871 760.701 145.687C768.331 149.379 774.355 152.333 784.234 153.646C790.178 154.425 796.684 154.836 803.993 154.836C808.973 154.836 813.952 154.672 818.852 154.384C793.632 147.984 785.439 138.343 775.48 126.568C774.114 124.927 772.669 123.245 771.142 121.481C768.01 117.952 764.717 113.193 766.243 107.942C767.608 103.388 772.026 99.9826 775.64 97.1928C776.524 96.5364 777.327 95.921 777.97 95.3466C783.431 90.7926 785.68 85.2129 784.797 78.8127C783.913 72.7408 780.219 66.2995 774.034 60.1455C768.412 54.4838 761.263 49.2323 752.91 44.5552C733.473 33.6011 705.442 24.7803 669.619 18.257C644.238 13.662 617.814 10.626 590.987 9.27209C577.574 8.5336 562.956 8.20539 546.33 8.20539ZM546.33 0C561.751 0 577.092 0.287189 592.433 1.0667C620.544 2.50264 648.254 5.66172 674.84 10.5029C708.413 16.5749 740.702 25.5188 764.637 39.0166C773.954 44.227 781.905 50.0939 788.17 56.371C801.583 69.7868 806.965 86.7309 791.543 99.5724C787.849 102.649 783.03 105.562 781.986 109.091C781.102 112.168 783.19 115.245 785.68 118.076C800.057 134.486 804.395 143.758 837.727 149.42C842.707 150.282 846.08 152.62 846.08 155.287C846.08 158.323 841.823 160.908 835.96 161.4C825.358 162.262 814.595 163 803.993 163C795.961 163 788.009 162.59 780.138 161.564C754.436 158.159 748.171 147.328 723.674 142.076C714.598 140.107 704.879 139.533 695 139.533C685.603 139.533 675.964 140.066 666.647 140.435C603.195 142.897 555.647 144.333 493.078 146.794C470.268 147.697 446.734 148.025 423.12 148.025C377.74 148.025 331.958 146.794 289.63 146.015C194.131 144.251 92.3668 139.779 17.0275 109.829C11.8068 107.778 6.66632 105.521 3.6142 102.526C0.401428 99.3672 -0.000183105 95.6748 -0.000183105 92.1055C0.401428 64.2482 30.6817 36.9653 77.2667 22.4828C124.173 7.87717 181.762 6.48226 236.62 5.45658C323.364 3.85653 410.109 2.21545 496.853 0.615404C513.399 0.287189 529.864 0 546.33 0Z" fill="#FFF2EA"/>
</svg>
