<svg width="823" height="623" viewBox="0 0 823 623" fill="none" xmlns="http://www.w3.org/2000/svg">
<path d="M43.028 618.335C38.4669 625.799 26.4746 623.29 25.6514 614.701L25.2509 610.491C24.1755 599.28 26.6748 589.517 28.8775 580.9C30.3978 574.961 31.8292 569.352 31.718 564.404C31.4584 552.68 31.6809 541.532 31.9034 530.75C32.556 498.496 33.1123 470.641 20.9568 440.418C9.63192 412.254 2.36384 380.534 0.494907 351.098C-1.67068 317.009 3.29831 285.935 14.8605 261.23C17.8567 254.827 20.052 248.831 22.1805 243.033C27.3868 228.828 32.3039 215.403 46.8252 201.732C50.7485 198.035 54.9684 194.401 59.0474 190.887C68.1251 183.064 77.5068 174.981 83.6625 166.139C91.0195 155.568 89.5882 144.02 87.7711 129.4C87.0221 123.398 86.2582 117.192 86.1099 110.69C85.2644 72.5736 107.528 44.7964 152.286 28.1385C187.996 14.8473 232.51 10.7777 265.016 7.80457C270.341 7.31959 275.376 6.8557 280.056 6.38478C397.176 -5.34604 516.892 1.14141 639.463 9.44928C677.813 12.0499 711.009 17.7431 738.123 26.3743C780.285 39.792 806.769 60.147 816.826 86.8699C820.734 97.2442 824.324 109.369 821.35 120.629C818.517 131.361 810.537 139.796 796.223 147.19C776.421 157.424 754.372 160.038 733.058 162.568C720.42 164.066 708.487 165.485 697.147 168.374C610.123 190.55 526.422 186.944 437.803 183.127C421.71 182.431 405.067 181.715 388.588 181.18C350.609 179.943 311.702 180.372 274.086 180.787C253.046 181.019 231.279 181.258 209.904 181.201C182.419 181.138 160.341 183.95 142.423 189.819C132.833 192.96 123.17 197.796 113.825 202.47C105.2 206.786 96.2852 211.249 87.1852 214.524C68.5404 221.237 58.0981 233.923 49.9401 259.768C38.8377 294.939 35.2853 341.778 39.9502 391.646C41.122 404.15 45.4086 416.31 49.9475 429.179C53.181 438.345 56.5258 447.826 58.7433 457.645C64.1944 481.782 64.0238 507.092 63.2748 526.449L63.1858 528.719C62.1475 555.66 60.8496 589.194 45.2826 614.666L43.028 618.335ZM418.491 20.3788C372.613 20.3788 327.21 22.1501 282.303 26.6484C277.52 27.1263 272.447 27.5902 267.063 28.0822C234.082 31.0975 193.04 34.8508 160.133 47.0947C143.12 53.4276 130.126 61.4754 121.508 71.0273C111.8 81.7882 107.247 94.6155 107.595 110.24C107.721 115.758 108.426 121.472 109.116 126.996C111.073 142.734 113.284 160.565 101.603 177.35C98.117 182.354 94.0603 186.937 89.7217 191.266C94.2976 189.186 98.9477 186.852 103.753 184.449C113.818 179.409 124.223 174.208 135.377 170.553C155.616 163.932 180.016 160.741 209.942 160.825C231.167 160.882 252.853 160.643 273.812 160.411C311.68 159.996 350.831 159.56 389.307 160.818C405.905 161.36 422.607 162.076 438.752 162.772C525.658 166.512 607.743 170.047 691.533 148.694C704.312 145.44 717.55 143.865 730.351 142.347C750.575 139.943 769.672 137.68 785.9 129.295C802.446 120.741 804.337 114.429 796.542 93.7158C788.814 73.1781 766.847 57.0262 731.248 45.696C705.847 37.6131 674.438 32.2573 637.898 29.7832C563.667 24.7436 490.497 20.3788 418.491 20.3788Z" fill="#FFF2EA"/>
<path d="M35.96 609.569C50.5925 585.629 51.4602 552.967 52.5134 526.083C53.3737 504.055 53.0993 481.387 48.2193 459.788C43.102 437.128 31.3915 415.719 29.2259 392.552C25.1691 349.171 26.378 298.818 39.6237 256.857C47.4628 232.032 58.5058 213.954 83.3508 205.007C101.565 198.449 119.484 186.55 138.9 180.189C161.164 172.9 186.32 170.96 209.919 171.016C269.48 171.164 329.427 169.055 388.944 171.002C492.862 174.397 592.769 184.42 694.336 158.54C726.108 150.443 762.026 153.248 791.061 138.249C814.653 126.061 815.172 112.847 806.687 90.2921C786.359 36.298 691.021 23.1615 638.684 19.619C521.275 11.6485 398.63 4.7464 281.176 16.5194C218.292 22.8171 95.002 27.3084 96.8561 110.464C97.3381 132.316 105.771 152.875 92.6361 171.74C82.8168 185.847 67.0273 197.064 54.4046 208.95C36.0935 226.198 35.1664 242.976 24.687 265.355C1.19187 315.553 10.1806 385.011 31.0058 436.784C48.16 479.44 41.4407 517.761 42.4716 564.192C42.7831 578.263 34.3135 592.37 35.96 609.569Z" fill="#F98E12"/>
</svg>
