<svg width="289" height="209" viewBox="0 0 289 209" fill="none" xmlns="http://www.w3.org/2000/svg">
<g clip-path="url(#clip0)">
<path d="M127.612 191.528C112.059 191.528 97.4229 189.883 84.2094 186.649C81.4566 185.969 78.7497 185.345 76.0886 184.721C51.6803 178.991 30.6212 173.998 14.2878 151.929C11.9021 148.696 6.4423 136.725 5.57058 132.81C4.65297 128.782 4.28593 118.287 4.88237 113.521C8.73632 82.035 14.7466 57.4699 31.6765 39.6559C39.9349 30.9192 50.625 25.87 59.9846 22.0122C86.1364 11.3465 114.077 5.67327 140.688 5.67327C145.047 5.67327 149.405 5.84347 153.672 6.12713C162.619 6.75118 171.428 6.75118 179.916 6.75118C201.112 6.75118 221.162 6.75118 242.084 15.9418C252.04 20.3102 259.197 25.0757 264.657 30.8624C280.118 47.4283 287.918 80.1061 283.146 108.642C280.577 124.074 275.439 137.803 268.281 148.298C261.353 158.453 252.544 165.602 242.818 169.006C200.149 183.926 161.426 191.528 127.612 191.528Z" fill="#F98E12"/>
<path d="M140.687 11.3465C144.954 11.3465 149.221 11.5167 153.396 11.8003C162.48 12.4244 171.335 12.4244 179.869 12.4244C200.653 12.4244 220.335 12.4244 240.477 21.2746C249.882 25.4161 256.581 29.7845 261.582 35.174C268.601 42.6627 274.107 54.2361 277.181 67.7384C280.163 80.9003 280.668 95.0267 278.557 107.508C276.126 122.031 271.308 134.853 264.656 144.667C258.324 153.915 250.295 160.496 241.44 163.616C199.276 178.423 160.966 185.912 127.611 185.912C112.333 185.912 98.0184 184.323 85.0801 181.146C82.3273 180.466 79.5745 179.842 76.9134 179.217C64.8928 176.381 53.5604 173.714 43.4667 169.062C32.7766 164.127 24.564 157.489 17.6361 148.185C15.755 145.632 10.6623 134.512 9.97408 131.392C9.23999 128.102 8.91883 118.457 9.42351 114.429C10.9376 102.005 13.0481 87.538 17.3608 74.4328C21.4441 61.9517 27.0874 52.0236 34.6577 44.081C42.3197 35.9683 52.5051 31.2028 61.4059 27.5152C87.1447 16.9062 114.535 11.3465 140.687 11.3465ZM140.687 0C112.884 0 84.8507 5.90016 58.5154 16.6226C47.8712 20.991 37.227 26.3238 28.6932 35.2875C9.83644 55.1438 4.05552 82.3186 0.339214 112.614C-0.303111 117.89 -0.0278287 129.123 1.11918 134.285C2.22031 139.221 8.09298 151.986 10.8917 155.73C30.1155 181.714 55.3497 185.345 83.2908 192.209C97.5137 195.67 112.425 197.202 127.611 197.202C166.839 197.202 207.993 187.103 243.964 174.452C265.436 166.907 281.907 143.476 287.55 109.777C292.321 81.2974 285.348 45.5561 267.592 26.5507C260.664 19.1755 252.176 14.3533 243.551 10.5522C213.27 -2.72315 184.87 2.55296 153.901 0.453859C149.496 0.170197 145.092 0 140.687 0Z" fill="#FFF2EA"/>
<path d="M68.7328 86.5102C64.8754 86.5102 61.5551 84.5693 58.7719 80.6875C57.6244 79.0761 56.6356 77.2085 55.8055 75.0844C55.7567 74.8647 55.6957 74.6572 55.6224 74.4619C54.9633 72.5576 54.5238 70.6045 54.3041 68.6025L54.2308 67.4673C54.1576 66.7104 54.121 65.9658 54.121 65.2334L54.1576 64.5009C54.2552 61.083 54.7679 58.1045 55.6957 55.5654C56.2816 53.6367 57.1483 51.8545 58.2958 50.2187C59.1991 48.8515 60.3954 47.5576 61.8846 46.3369C63.0565 45.3847 64.3749 44.6035 65.8397 43.9931C66.8651 43.5781 68.1713 43.3095 69.7582 43.1875C71.9799 43.1875 73.7377 43.7002 75.0316 44.7256C75.7396 45.2383 76.4232 45.9707 77.0824 46.9228C77.6683 47.875 78.0956 48.6684 78.3641 49.3032C78.6815 50.0356 78.8402 50.7314 78.8402 51.3906C78.8402 51.708 78.8036 51.9887 78.7303 52.2329V52.2695C78.4374 53.0508 77.8148 53.4414 76.8627 53.4414C76.1302 53.4414 75.3978 53.2461 74.6654 52.8554C73.9574 52.4648 73.4203 51.9033 73.0541 51.1709C72.1019 49.584 71.1986 48.7905 70.3441 48.7905C70.2465 48.7905 70.0389 48.8149 69.7216 48.8637C69.4286 48.8882 68.8549 49.1811 68.0004 49.7426C67.5365 50.0112 67.097 50.3042 66.682 50.6216C65.4857 51.6225 64.3749 53.1484 63.3495 55.1992C63.0565 55.9316 62.788 56.664 62.5438 57.3965C61.8114 59.789 61.4452 62.4013 61.4452 65.2334C61.4452 66.7715 61.7015 68.5415 62.2142 70.5434C62.5804 72.0571 63.2152 73.5952 64.1185 75.1577C65.9496 78.2339 67.744 79.7719 69.5018 79.7719C70.4296 79.7719 71.223 79.5156 71.8822 79.0029C72.6635 78.417 73.1884 77.9897 73.4569 77.7212L73.6766 77.5381C74.1893 77.0742 74.7753 76.3784 75.4344 75.4507C75.7762 75.0112 75.9594 74.7671 75.9838 74.7182C76.0326 74.645 76.0936 74.584 76.1669 74.5351C76.6552 74.0713 77.1434 73.8393 77.6317 73.8393C77.7538 73.8393 77.9857 73.8882 78.3275 73.9858C78.6937 74.0591 78.9867 74.4985 79.2064 75.3042L79.243 75.5971L79.2064 75.707C79.2064 76.2685 79.1454 76.83 79.0233 77.3916L78.8768 77.9409C78.535 79.479 77.9369 80.8706 77.0824 82.1157C76.0814 83.5317 74.8119 84.6303 73.2738 85.4116C71.9066 86.144 70.3929 86.5102 68.7328 86.5102ZM90.6688 81.7129C88.7157 81.7129 86.8969 81.1025 85.2123 79.8818C83.9427 78.9052 82.954 77.6601 82.246 76.1465C80.7323 73.29 79.9755 70.1528 79.9755 66.7348C79.9755 64.7329 80.2562 62.7431 80.8177 60.7656C80.8666 60.6679 80.9032 60.5581 80.9276 60.436C81.1229 59.728 81.3671 59.0322 81.66 58.3486C83.5887 54.6865 86.2499 52.8554 89.6434 52.8554C91.035 52.8554 92.4022 53.185 93.745 53.8442C95.0878 54.5034 96.2596 55.4677 97.2606 56.7373C99.0673 59.0322 100.215 61.6811 100.703 64.6841C100.825 65.4653 100.886 66.3686 100.886 67.394C100.886 67.9799 100.849 68.5781 100.776 69.1884C100.63 70.7754 100.325 72.228 99.8607 73.5464C99.2504 75.0844 98.64 76.3296 98.0297 77.2817C97.2728 78.4536 96.3329 79.4546 95.2098 80.2846C93.745 81.2368 92.2313 81.7129 90.6688 81.7129ZM90.5223 75.5971C90.6444 75.5971 90.913 75.5117 91.328 75.3408C91.743 75.1699 92.329 74.4008 93.0858 73.0337C93.33 72.643 93.5375 72.228 93.7084 71.7885V71.7153C94.1478 70.5678 94.4286 69.5547 94.5507 68.6758L94.5873 68.5659C94.6605 68.1508 94.6971 67.748 94.6971 67.3574C94.6971 66.6006 94.6483 65.9414 94.5507 65.3799C94.4042 64.3789 94.0746 63.3779 93.5619 62.3769C93.0736 61.3515 92.5609 60.5581 92.0238 59.9966C90.9496 59.0688 90.1073 58.6049 89.4969 58.6049C88.8378 58.6049 88.2396 59.2031 87.7025 60.3994C87.1898 61.5957 86.8358 62.8774 86.6405 64.2446C86.494 65.0991 86.4208 65.9658 86.4208 66.8447C86.4208 69.2373 87.0189 71.5322 88.2152 73.7295C89.1185 74.9746 89.8876 75.5971 90.5223 75.5971ZM105.171 83.2143C104.56 83.2143 103.889 82.9946 103.157 82.5551C102.449 82.0913 102.034 81.2246 101.911 79.955C101.741 78.3437 101.655 75.9511 101.655 72.7773L101.692 71.9716C101.716 70.1162 101.789 68.1997 101.911 66.2221C101.911 65.7827 101.936 65.331 101.985 64.8672C102.058 62.8896 102.314 60.8633 102.754 58.7881L103.193 57.1401C103.511 56.0171 103.962 55.0527 104.548 54.247C105.452 52.9043 106.684 52.2329 108.247 52.2329C108.686 52.2329 109.138 52.2939 109.602 52.416C110.53 52.7578 111.409 53.3681 112.239 54.247C112.751 54.8086 113.325 55.5898 113.96 56.5908C114.692 57.6894 115.376 58.8979 116.011 60.2163L116.45 61.1318C116.645 61.5224 116.828 61.9253 116.999 62.3403C117.512 63.4878 117.829 64.2568 117.952 64.6474C118.44 65.7461 118.769 66.5517 118.94 67.0644L120.698 71.3125L120.845 69.1884C120.918 68.0166 120.954 66.979 120.954 66.0757L120.991 64.7573L120.954 64.0615C120.954 63.1093 120.942 62.4746 120.918 62.1572C120.918 60.7656 120.954 59.5937 121.028 58.6416V57.0669L120.991 56.5542C120.991 56.2124 121.028 55.8706 121.101 55.5288C121.54 54.1616 122.261 53.478 123.262 53.478C124.067 53.478 124.739 54.0639 125.276 55.2358C125.447 55.6997 125.569 56.2124 125.642 56.7739C125.715 57.3354 125.849 58.08 126.045 59.0078C126.387 60.6191 126.606 62.2182 126.704 63.8051L126.924 65.8559C127.168 67.5893 127.302 69.2739 127.327 70.9096C127.327 71.3979 127.266 72.3623 127.143 73.8027L127.107 73.9126C126.936 76.061 126.387 77.7822 125.459 79.0761C124.482 80.3457 123.225 80.9804 121.687 80.9804C120.173 80.9804 118.855 80.3579 117.732 79.1128C116.975 78.4048 116.206 77.2939 115.425 75.7802C114.57 74.0713 113.606 71.8252 112.532 69.042C112.483 68.8711 112.41 68.688 112.312 68.4926C112.239 68.2729 111.714 66.8935 110.737 64.3545C110.737 64.3056 110.725 64.269 110.701 64.2446C110.286 63.0239 109.797 61.8764 109.236 60.8022L109.126 60.5825L108.54 65.27C108.54 65.4165 108.528 65.5508 108.503 65.6728C108.406 66.9179 108.332 68.1264 108.284 69.2983C108.284 69.6401 108.235 70.8364 108.137 72.8872C108.064 75.353 108.003 77.0132 107.954 77.8676L107.807 80.1382C107.783 80.5044 107.746 80.8584 107.698 81.2002C107.38 82.5429 106.538 83.2143 105.171 83.2143ZM139.521 84.6792C136.738 84.6792 134.285 83.9345 132.161 82.4453C131.037 81.664 130.134 80.7973 129.451 79.8452C128.694 78.6977 128.291 77.5625 128.242 76.4394C128.559 74.9746 129.206 74.2422 130.183 74.2422C130.232 74.2422 130.525 74.2666 131.062 74.3154C131.623 74.3398 132.453 74.8037 133.552 75.707C134.016 76.3418 134.504 76.8789 135.017 77.3183L135.237 77.5014C135.554 77.77 135.884 77.9897 136.225 78.1606C137.324 78.7954 138.398 79.1128 139.448 79.1128C140.449 79.1128 141.34 78.7588 142.121 78.0508L142.305 77.3549C142.329 77.2329 142.341 77.0986 142.341 76.9521C142.341 76.4883 142.097 75.9145 141.609 75.2309C141.243 74.7182 140.62 74.1201 139.741 73.4365L139.375 73.1069L138.349 72.3379L136.958 71.3491L136.409 71.0195C136.067 70.7998 135.701 70.58 135.31 70.3603C135.017 70.2138 134.443 69.8476 133.589 69.2617L133.406 69.1152C132.869 68.749 132.344 68.3462 131.831 67.9067C130.683 66.9057 129.768 65.7461 129.084 64.4277C128.425 63.1093 128.096 61.6811 128.096 60.143C128.096 58.5561 128.523 56.9936 129.377 55.4555C130.207 54.0151 131.257 52.8921 132.527 52.0864C133.821 51.2563 135.347 50.8413 137.104 50.8413C138.838 50.8413 140.376 51.3174 141.719 52.2695C142.622 53.0019 143.293 53.8808 143.733 54.9062C144.099 55.6875 144.282 56.4687 144.282 57.25C144.282 58.3242 143.928 59.2885 143.22 60.143C142.463 60.8022 141.816 61.1318 141.279 61.1318C141.255 61.1318 141.096 61.1196 140.803 61.0952C140.51 61.0708 139.985 60.5947 139.228 59.667C139.131 59.5449 139.082 59.4106 139.082 59.2641V58.7514V58.2387C139.082 58.019 139.07 57.8969 139.045 57.8725C138.972 57.726 138.923 57.6406 138.899 57.6162C138.874 57.5674 138.85 57.5307 138.826 57.5063C138.801 57.4819 138.777 57.4575 138.752 57.4331C138.264 56.9204 137.812 56.664 137.397 56.664C136.543 56.664 135.871 57.1401 135.383 58.0923C135.09 58.727 134.944 59.313 134.944 59.8501C134.944 60.1674 135.017 60.497 135.163 60.8388C135.408 61.5468 136.079 62.3159 137.178 63.146C137.349 63.3169 137.837 63.6465 138.642 64.1347C138.838 64.2324 139.021 64.3423 139.192 64.4643L140.913 65.4897C142.402 66.4663 143.354 67.1255 143.769 67.4673C145.015 68.4438 146.028 69.4082 146.809 70.3603C148.347 72.3134 149.116 74.4131 149.116 76.6591C149.116 77.2695 149.043 77.8799 148.896 78.4902C148.237 81.2246 146.467 83.0923 143.586 84.0932C142.292 84.4839 140.937 84.6792 139.521 84.6792ZM152.449 50.9145C152.4 50.9145 152.034 50.9023 151.35 50.8779C150.666 50.8535 150.166 50.1455 149.849 48.7539V46.5932C149.849 46.1538 149.861 45.8364 149.885 45.6411V45.3847C150.129 43.2851 151.069 42.2353 152.705 42.2353C153.34 42.2353 153.901 42.4306 154.39 42.8213C155.049 43.3828 155.378 44.2983 155.378 45.5678C155.452 46.0805 155.488 46.5566 155.488 46.9961C155.561 47.5332 155.598 48.1191 155.598 48.7539C155.598 49.0224 155.561 49.291 155.488 49.5595C154.682 50.4629 153.669 50.9145 152.449 50.9145ZM154.975 83.9467C153.804 83.9467 152.839 83.1655 152.082 81.603C151.472 79.5766 151.02 76.3662 150.727 71.9716L150.618 70.7998C150.52 69.1884 150.459 68.3584 150.434 68.3095C150.264 65.4287 150.19 63.3779 150.215 62.1572C150.215 60.5947 150.239 59.3862 150.288 58.5317C150.434 57.1645 150.837 56.1758 151.496 55.5654C152.082 55.0527 152.729 54.7964 153.437 54.7964C154.341 54.7964 155.085 55.1626 155.671 55.895C156.135 56.4565 156.367 57.1889 156.367 58.0923L156.33 58.6049L156.367 60.5459L156.477 62.8164C156.501 63.3291 156.538 63.8296 156.587 64.3178L156.733 66.7348C156.831 67.6626 156.904 68.5903 156.953 69.518L157.612 76.2929C157.856 78.2949 157.978 79.833 157.978 80.9072C157.588 82.9336 156.587 83.9467 154.975 83.9467ZM171.455 101.415C170.576 101.415 169.905 101.317 169.441 101.122L168.745 100.829C168.428 100.731 168.147 100.585 167.903 100.39L166.877 99.6572C166.511 99.3886 166.096 98.9492 165.632 98.3388L165.522 98.229C165.132 97.6919 164.936 97.3745 164.936 97.2768C164.643 96.7885 164.448 96.2514 164.35 95.6655L164.277 95.4091L164.241 94.8598C164.216 94.518 164.241 94.2129 164.314 93.9443C164.314 93.4072 164.399 92.8701 164.57 92.333L164.607 92.2964C164.68 91.9546 164.79 91.625 164.936 91.3076C165.596 89.8672 166.45 89.1469 167.5 89.1469C168.33 89.1469 168.745 89.6108 168.745 90.5385C168.745 90.8559 168.696 91.2343 168.599 91.6738C168.501 91.8447 168.415 92.0278 168.342 92.2231C168.293 92.4428 168.245 92.6504 168.196 92.8457C168.196 93.5293 168.22 93.9321 168.269 94.0542C168.318 94.1762 168.367 94.2983 168.415 94.4204C168.513 94.7622 168.611 94.9941 168.708 95.1162L168.745 95.226C168.867 95.4702 169.038 95.7021 169.258 95.9218C169.917 96.581 170.552 96.9106 171.162 96.9106C171.65 96.9106 172.126 96.7031 172.59 96.2881C172.688 96.1904 172.932 95.8974 173.323 95.4091L173.835 94.7133C174.104 94.2983 174.397 93.6269 174.714 92.6992C174.739 92.6748 174.751 92.6382 174.751 92.5893C175.093 91.686 175.325 90.5019 175.447 89.0371C175.52 88.4511 175.581 87.7431 175.63 86.9131L175.666 86.1806C175.666 83.666 175.654 82.0791 175.63 81.4199V79.479C175.605 79.1128 175.593 77.8066 175.593 75.5605C175.593 75.5849 175.581 75.5971 175.557 75.5971C174.873 76.7202 174.031 77.7944 173.03 78.8198C172.029 79.8208 170.93 80.6386 169.734 81.2734C168.635 81.8593 167.463 82.1523 166.218 82.1523C163.508 82.1523 161.482 81.0903 160.139 78.9663C159.748 78.2339 159.431 77.477 159.187 76.6958C158.87 75.4262 158.711 74.1323 158.711 72.8139C158.711 70.519 159.175 68.0654 160.102 65.4531C160.127 65.4287 160.139 65.3921 160.139 65.3432C160.505 64.3911 160.908 63.4511 161.348 62.5234C163.154 58.9834 165.547 56.31 168.525 54.5034C169.819 53.7466 171.138 53.2705 172.48 53.0752C173.091 53.0019 173.823 52.9653 174.678 52.9653C175.63 52.9653 176.496 53.0752 177.278 53.2949C180.476 54.3691 182.185 56.1269 182.405 58.5683C182.405 58.8613 182.392 59.1421 182.368 59.4106C182.368 60.5825 182.331 61.6445 182.258 62.5966L182.222 63.3291L182.185 64.8672C182.161 64.9892 182.148 65.2456 182.148 65.6362C182.075 66.8081 182.038 68.0166 182.038 69.2617C181.965 70.3115 181.929 71.6787 181.929 73.3633L181.892 75.3042C181.892 75.9389 181.904 76.5249 181.929 77.062L181.965 82.372C181.965 83.666 181.941 84.6303 181.892 85.2651C181.892 85.8999 181.855 86.5468 181.782 87.206C181.733 88.2802 181.599 89.3545 181.379 90.4287L181.269 90.9048C180.976 92.0522 180.806 92.687 180.757 92.8091C180.439 93.81 180.049 94.7988 179.585 95.7754C178.852 96.9472 178.352 97.7041 178.083 98.0459C178.01 98.0947 177.949 98.1557 177.9 98.229C177.607 98.5708 177.29 98.8759 176.948 99.1445C176.265 99.7793 175.679 100.194 175.19 100.39C175.141 100.438 175.08 100.475 175.007 100.499C173.957 101.085 172.773 101.391 171.455 101.415ZM167.463 75.8535C168.415 75.8535 169.319 75.4629 170.173 74.6816L170.466 74.4253C171.052 73.9614 171.76 73.2412 172.59 72.2646L173.872 70.4702C174.36 69.6401 174.629 69.1518 174.678 69.0053L175.813 66.9546L175.849 66.332C175.874 65.624 175.923 64.916 175.996 64.208L176.106 62.9629C176.155 61.9131 176.301 60.7656 176.545 59.5205C176.252 58.1533 175.618 57.4697 174.641 57.4697H174.458C173.555 57.5674 172.81 57.9458 172.224 58.6049C171.76 58.8735 171.333 59.1909 170.942 59.5571C169.38 61.1196 168.196 62.8896 167.39 64.8672C166.706 66.3076 166.157 67.9067 165.742 69.6645C165.498 70.8608 165.376 71.8496 165.376 72.6308C165.376 74.5351 165.876 75.5849 166.877 75.7802C167.073 75.8291 167.268 75.8535 167.463 75.8535ZM186.616 83.2143C186.006 83.2143 185.334 82.9946 184.602 82.5551C183.894 82.0913 183.479 81.2246 183.357 79.955C183.186 78.3437 183.1 75.9511 183.1 72.7773L183.137 71.9716C183.161 70.1162 183.235 68.1997 183.357 66.2221C183.357 65.7827 183.381 65.331 183.43 64.8672C183.503 62.8896 183.76 60.8633 184.199 58.7881L184.639 57.1401C184.956 56.0171 185.408 55.0527 185.994 54.247C186.897 52.9043 188.13 52.2329 189.692 52.2329C190.132 52.2329 190.583 52.2939 191.047 52.416C191.975 52.7578 192.854 53.3681 193.684 54.247C194.197 54.8086 194.77 55.5898 195.405 56.5908C196.138 57.6894 196.821 58.8979 197.456 60.2163L197.895 61.1318C198.091 61.5224 198.274 61.9253 198.445 62.3403C198.957 63.4878 199.275 64.2568 199.397 64.6474C199.885 65.7461 200.215 66.5517 200.386 67.0644L202.143 71.3125L202.29 69.1884C202.363 68.0166 202.4 66.979 202.4 66.0757L202.436 64.7573L202.4 64.0615C202.4 63.1093 202.388 62.4746 202.363 62.1572C202.363 60.7656 202.4 59.5937 202.473 58.6416V57.0669L202.436 56.5542C202.436 56.2124 202.473 55.8706 202.546 55.5288C202.986 54.1616 203.706 53.478 204.707 53.478C205.513 53.478 206.184 54.0639 206.721 55.2358C206.892 55.6997 207.014 56.2124 207.087 56.7739C207.161 57.3354 207.295 58.08 207.49 59.0078C207.832 60.6191 208.052 62.2182 208.149 63.8051L208.369 65.8559C208.613 67.5893 208.747 69.2739 208.772 70.9096C208.772 71.3979 208.711 72.3623 208.589 73.8027L208.552 73.9126C208.381 76.061 207.832 77.7822 206.904 79.0761C205.928 80.3457 204.67 80.9804 203.132 80.9804C201.619 80.9804 200.3 80.3579 199.177 79.1128C198.42 78.4048 197.651 77.2939 196.87 75.7802C196.016 74.0713 195.051 71.8252 193.977 69.042C193.928 68.8711 193.855 68.688 193.757 68.4926C193.684 68.2729 193.159 66.8935 192.182 64.3545C192.182 64.3056 192.17 64.269 192.146 64.2446C191.731 63.0239 191.243 61.8764 190.681 60.8022L190.571 60.5825L189.985 65.27C189.985 65.4165 189.973 65.5508 189.949 65.6728C189.851 66.9179 189.778 68.1264 189.729 69.2983C189.729 69.6401 189.68 70.8364 189.582 72.8872C189.509 75.353 189.448 77.0132 189.399 77.8676L189.253 80.1382C189.228 80.5044 189.192 80.8584 189.143 81.2002C188.826 82.5429 187.983 83.2143 186.616 83.2143ZM220.088 81.5664C218.672 81.5664 217.256 81.2612 215.84 80.6508C214.302 79.9673 213.02 78.9297 211.995 77.5381C210.359 75.1699 209.541 72.1425 209.541 68.456C209.541 66.2343 209.809 64.0615 210.347 61.9375C210.884 59.9599 211.567 58.2387 212.397 56.7739C213.252 55.3091 214.302 53.9663 215.547 52.7456C216.816 51.5005 218.147 50.5117 219.538 49.7793C220.954 49.0468 222.346 48.5952 223.713 48.4243H225.764C226.423 48.4487 227.082 48.5586 227.742 48.7539C230.427 49.7549 232.148 51.6103 232.905 54.3203C233.149 55.1504 233.271 56.0659 233.271 57.0669C233.271 58.7514 232.905 60.375 232.173 61.9375C231.66 63.1338 230.867 64.3789 229.792 65.6728C229.573 66.0146 229.06 66.5639 228.254 67.3208C225.593 69.6401 222.956 71.2514 220.344 72.1548C219.026 72.5942 217.817 72.8383 216.719 72.8872C216.743 72.9116 216.767 72.9604 216.792 73.0337C216.816 73.1069 216.841 73.1924 216.865 73.29C217.06 73.705 217.317 74.0957 217.634 74.4619C218.464 75.3896 219.355 75.8535 220.307 75.8535C221.235 75.8535 222.139 75.5971 223.017 75.0844C223.53 74.8159 224.018 74.5351 224.482 74.2422C225.239 73.7539 225.679 73.4487 225.801 73.3266C226.533 72.6674 227.29 72.1303 228.071 71.7153L228.328 71.5688C228.718 71.4956 229.097 71.459 229.463 71.459C229.975 71.459 230.525 71.5688 231.111 71.7885C231.721 71.9839 232.087 72.643 232.209 73.7661C232.063 74.3764 231.807 74.9502 231.44 75.4873C231.099 76.0244 230.683 76.5127 230.195 76.9521C227.925 79.0029 225.337 80.4555 222.432 81.31C221.65 81.4809 220.869 81.5664 220.088 81.5664ZM215.95 68.6025C215.998 68.6025 216.035 68.5903 216.059 68.5659C216.304 68.5659 216.828 68.4194 217.634 68.1264C219.612 67.2964 221.662 65.8803 223.786 63.8784C224.665 62.9751 225.361 62.1206 225.874 61.3149C226.655 59.8989 227.058 58.5805 227.082 57.3598C227.082 56.6274 226.863 55.8584 226.423 55.0527C226.203 54.7109 225.947 54.5034 225.654 54.4301H225.801H225.105H225.618C225.398 54.3569 225.093 54.3203 224.702 54.3203C224.287 54.3691 224.079 54.4057 224.079 54.4301H225.105C224.226 54.4301 223.188 54.8086 221.992 55.5654C219.844 57.0302 218.269 58.959 217.268 61.3515C216.389 63.4267 215.95 65.8437 215.95 68.6025Z" fill="#FFF2EA"/>
<path d="M175.012 160.894C177.911 160.894 180.61 160.233 183.108 158.906C184.993 157.846 186.456 156.49 187.51 154.848C189.756 151.747 190.877 148.339 190.877 144.626C190.877 142.453 190.461 140.29 189.626 138.142C189.552 138.034 189.497 137.915 189.463 137.784C189.17 137.015 188.813 136.262 188.376 135.517C185.514 131.539 181.565 129.55 176.534 129.55C174.47 129.55 172.44 129.908 170.447 130.625C168.457 131.341 166.716 132.386 165.229 133.767C162.549 136.259 160.848 139.138 160.124 142.399C159.945 143.25 159.856 144.23 159.856 145.344C159.856 145.98 159.912 146.628 160.019 147.294C160.238 149.019 160.694 150.595 161.378 152.028C162.28 153.699 163.189 155.051 164.092 156.085C165.213 157.358 166.612 158.447 168.275 159.346C170.447 160.377 172.696 160.894 175.012 160.894ZM175.231 154.252C175.052 154.252 174.652 154.158 174.036 153.973C173.42 153.789 172.548 152.95 171.427 151.468C171.066 151.045 170.758 150.593 170.502 150.116V150.037C169.852 148.794 169.437 147.692 169.252 146.736L169.196 146.617C169.088 146.164 169.033 145.73 169.033 145.303C169.033 144.482 169.107 143.767 169.252 143.155C169.47 142.067 169.948 140.974 170.693 139.874C171.433 138.774 172.209 137.919 173.004 137.308C174.596 136.302 175.847 135.796 176.75 135.796C177.726 135.796 178.607 136.444 179.387 137.746C180.166 139.044 180.699 140.436 180.992 141.923C181.21 142.852 181.318 143.792 181.318 144.748C181.318 147.347 180.431 149.839 178.653 152.226C177.313 153.575 176.174 154.252 175.231 154.252Z" fill="#FFF2EA"/>
<path d="M96.598 131.163C97.0693 129.188 97.7378 127.445 98.6065 125.943C99.6939 124.152 100.942 122.603 102.352 121.305C104.928 118.89 107.642 117.185 110.503 116.2C114.671 114.927 119.012 114.29 123.54 114.29C126.621 114.29 129.609 114.718 132.505 115.577C132.785 115.68 133.059 115.795 133.333 115.901C133.955 114.992 134.596 114.101 135.246 113.226C135.896 112.351 136.463 111.621 136.947 111.024L137.403 110.413C138.231 109.374 139.069 108.339 139.898 107.3L140.917 106.092C141.124 105.809 141.416 105.485 141.78 105.112C141.826 105.067 141.875 105.028 141.919 104.992C142.11 104.75 142.402 104.529 142.8 104.331C143.237 104.057 144.324 103.735 145.566 104.36C146.81 104.988 151.41 109.378 150.806 112.349C150.8 112.39 150.581 113.404 148.625 113.705C148.434 113.735 148.268 113.746 148.113 113.746C147.627 113.746 147.3 113.622 147.097 113.503C146.53 113.166 146.515 112.637 146.515 112.608C146.515 112.592 146.33 111.157 144.478 108.985C144.438 109.045 144.401 109.104 144.355 109.169L142.932 111.123L142.602 111.567L141.549 112.983L138.481 117.104C138.213 117.47 137.96 117.83 137.695 118.197C137.757 118.237 137.818 118.276 137.88 118.316C137.948 118.366 138.009 118.42 138.077 118.469C138.126 118.503 138.179 118.534 138.234 118.572C138.28 118.602 138.324 118.638 138.364 118.671C140.612 120.392 141.663 121.768 142.797 123.001L143.329 123.703C143.89 124.384 145.193 126.289 146.447 128.392C147.618 130.355 149.118 132.713 150.424 134.712C150.855 135.357 151.564 136.498 152.549 138.124C152.74 137.82 152.904 137.571 153.033 137.377C154.059 135.805 155.125 134.285 156.237 132.809C156.831 132.024 157.346 131.363 157.783 130.83L158.199 130.279C158.957 129.343 159.718 128.41 160.476 127.474L161.323 126.48C160.319 126.469 159.237 126.48 158.057 126.521C157.749 126.555 156.095 126.698 155.112 126.053C154.783 125.835 154.401 125.437 154.435 124.766C154.413 124.512 154.481 123.543 156.668 123.14C158.569 122.792 169.15 122.684 173.109 124.706C173.636 124.969 174.372 125.765 173.395 126.887C172.884 127.479 172.16 127.659 171.529 127.659C171.063 127.659 170.641 127.564 170.373 127.461C170.352 127.452 168.953 127.022 166.116 126.73C166.067 126.815 166.014 126.905 165.944 127.002C165.552 127.623 165.343 127.947 165.327 127.983C165.312 128.016 165.053 128.406 164.548 129.145L163.248 130.904L162.946 131.302L161.982 132.575L160.642 134.354C161.249 134.507 161.837 134.77 162.364 135.031C164.551 136.115 166.744 137.195 168.932 138.279C170.099 138.767 171.643 139.496 173.565 140.467C174.772 141.129 175.472 141.498 175.675 141.572L176.029 141.776C176.658 142.105 177.246 142.453 177.791 142.816C178.084 142.968 178.466 143.229 178.931 143.6C179.704 144.246 180.046 144.808 179.957 145.276C179.917 145.481 179.846 145.69 179.75 145.904C179.606 146.216 179.51 146.405 179.458 146.47C179.408 146.536 179.224 146.659 178.909 146.832L178.836 146.873C178.352 147.087 177.825 147.215 177.258 147.26C176.334 147.334 174.948 147.309 173.106 147.186C172.04 147.12 171.322 147.087 170.934 147.087C169.32 147.028 168.263 147.001 167.776 147.001C166.261 147.051 165.001 147.116 163.997 147.199C162.617 147.309 161.046 147.503 159.29 147.786C159.086 147.826 158.88 147.865 158.667 147.892L155.784 148.393C155.026 148.537 154.392 148.546 153.883 148.423C153.637 148.362 153.43 148.27 153.249 148.144C153.03 148.004 152.873 147.847 152.771 147.68C152.63 147.516 152.457 147.293 152.238 147.003L151.699 146.239C150.572 144.502 149.814 143.376 149.423 142.858L147.775 140.488C147.393 139.925 147.001 139.365 146.586 138.817L146.564 138.821C146.265 141.905 145.409 144.862 143.973 147.685C142.886 149.788 141.567 151.618 140.009 153.179C136.605 156.789 132.492 159.142 127.674 160.23C125.61 160.673 123.528 160.892 121.424 160.892C118.67 160.892 115.999 160.444 113.408 159.549C110.821 158.654 108.147 157.113 105.393 154.931C105.319 154.828 105.23 154.738 105.125 154.659C101.94 151.83 99.5645 148.618 98.0058 145.033C96.7766 142.307 96.1051 139.55 95.9973 136.774C95.9973 134.696 96.2006 132.823 96.598 131.163ZM155.587 143.517C155.79 144.044 156.114 144.655 156.844 144.77C156.871 144.774 156.905 144.77 156.933 144.774C157.74 144.626 158.572 144.491 159.428 144.363L160.214 144.259C162.167 143.985 164.083 143.812 165.981 143.733C167.163 143.697 167.927 143.684 168.263 143.699C169.508 143.69 170.749 143.733 171.975 143.828L172.434 143.841C172.311 143.796 172.074 143.672 171.732 143.468C171.122 143.139 170.487 142.816 169.837 142.494C167.897 141.491 165.759 140.544 163.421 139.651L163.066 139.523C162.302 139.239 161.76 139.06 161.434 138.976L160.793 138.778C160.494 138.697 160.192 138.61 159.878 138.511C159.496 138.392 159.099 138.306 158.717 138.194C158.541 138.209 158.369 138.252 158.199 138.333C157.749 138.551 157.481 138.916 157.235 139.266C156.779 139.907 156.326 140.548 155.867 141.185C155.636 141.504 155.408 141.833 155.334 142.19C155.257 142.642 155.424 143.09 155.587 143.517ZM106.918 138.684C107.17 140.011 107.657 141.477 108.387 143.088L108.655 143.67C109.086 144.631 109.835 145.827 110.882 147.255C111.859 148.528 112.912 149.608 114.034 150.492C116.461 152.466 118.996 153.454 121.64 153.454C125.444 153.454 128.956 151.52 132.181 147.647C133.302 146.218 134.174 144.698 134.79 143.088C135.554 140.83 135.93 138.619 135.93 136.464C135.93 135.011 135.801 133.684 135.548 132.488C135.295 131.552 135.003 130.619 134.679 129.683C134.1 128.176 133.379 126.878 132.508 125.785C132.458 125.731 132.412 125.682 132.363 125.632L131.719 126.586C131.158 127.387 130.607 128.201 130.071 129.026L127.311 133.266L126.362 134.723L126.063 135.18L124.739 137.173C124.156 137.982 123.845 138.405 123.811 138.437C123.777 138.47 123.509 138.814 123.004 139.476C122.662 139.997 122.24 140.297 121.726 140.371C121.214 140.445 120.722 140.4 120.256 140.231C119.643 140.013 119.191 139.68 118.889 139.228C118.621 138.81 118.587 138.383 118.787 137.944C118.984 137.505 119.181 137.143 119.369 136.851L120.109 135.537C120.771 134.433 121.433 133.329 122.095 132.227L122.505 131.595C122.881 130.958 123.358 130.194 123.947 129.294C124.997 127.688 126.128 126.073 127.335 124.461C127.317 124.47 127.302 124.476 127.289 124.481C127.548 124.049 128.029 123.356 128.586 122.583C126.913 121.649 125.164 121.181 123.325 121.181C120.426 121.181 117.675 121.714 115.066 122.778C112.456 123.997 110.377 125.842 108.815 128.311L108.597 128.66C107.873 129.854 107.401 131.026 107.183 132.166C106.856 133.309 106.693 134.519 106.693 135.789C106.699 136.786 106.773 137.746 106.918 138.684Z" fill="#FFF2EA"/>
<path d="M159.855 134.271C154.301 129.685 147.98 125.421 141.265 121.395C140.618 121.008 139.955 120.617 139.136 120.369C138.316 120.124 137.303 120.043 136.514 120.295C135.529 120.612 135.162 121.368 135.359 122.029C135.556 122.691 136.206 123.278 136.856 123.84C142.672 128.867 149.711 133.421 157.678 137.314L159.855 134.271Z" fill="#FFF2EA"/>
</g>
<defs>
<clipPath id="clip0">
<rect width="289" height="209" fill="white"/>
</clipPath>
</defs>
</svg>
