<svg width="625" height="337" fill="none" xmlns="http://www.w3.org/2000/svg"><g clip-path="url(#prefix__clip0)"><path d="M34.309 207.182c-.072 2.594-.188 5.289-1.474 7.535-4.781 8.274-18.26 2.202-26.652 6.723-7.353 3.956-7.816 15.128-3.077 21.997 4.752 6.882 12.842 10.462 20.556 13.649 65.917 27.228 134 48.731 201.997 70.206 18.201 5.752 37.097 11.563 56.021 9.143 13.752-1.753 26.566-7.781 39.09-13.751a7083.077 7083.077 0 00300.734-152.307c1.993-1.073 4.334-3.159 3.236-5.144-.564-1.029-1.835-1.406-2.976-1.696-8.509-2.115-17.003-4.216-25.511-6.332-.665-46.572-1.344-93.158-2.008-139.73-.044-3.043-.203-6.39-2.283-8.592-2.196-2.333-5.735-2.58-8.927-2.666L438.229 1.825C368.47-.29 298.35-2.391 229.154 6.724 169.233 14.62 110.742 30.82 52.568 47.31 21.596 56.092 32.72 79.175 33.76 103.46c1.473 34.53 1.502 69.176.549 103.721z" fill="#FFF2EA"/><path d="M301.037 32.777c-3.611.45-7.309 1.232-10.097 3.651-4.074 3.55-7.353 11.897-7.469 16.592-1.112 46.861 1.517 90.303.405 137.165-.419 17.591-.492 30.139-.318 47.731.058 4.868.419 13.316.202 16.316-.91 12.751 1.083 11.288 8.653 10.172 10.82-1.594 28.357-7.767 38.195-12.056 9.245-4.028 27.996-11.621 37.241-15.65 8.047-3.506 13.565-2.361 18.13-10.041 4.03-6.796 4.16-15.215 4.16-23.185.029-50.614.044-101.243.073-151.858 0-5.448-.275-11.577-4.175-15.258-3.019-2.84-7.397-3.39-11.47-3.724-24.761-2-48.712-2.912-73.53.145z" fill="#F98E12"/><path d="M398.995 214.383c.159 1.652-.116 3.464 2.499 4.304 1.43.464 2.976.348 4.377-.174l42.644-16.084c3.886-1.464 7.888-3 10.863-5.883 6.92-6.68 6.125-17.736 5.678-27.358-.882-18.779-1.878-33.139-1.358-51.947.578-20.808-.289-37.197-.549-61.004-.058-4.521.274-15.114-2.716-18.49-3.857-4.361-10.387-4.738-16.194-4.81-16.093-.189-49.477-5.927-49.448 10.2 0 .769 1.199 59.295 1.257 64.424.318 24.474.838 46.007 1.155 70.495.174 13.969.723 25.271 1.792 36.327zM481.437 42.065c-.159 54.585-.058 80.363 1.531 142.353.015.652.159 1.304.391 1.912 1.415 3.608 4.81 2.927 7.54 2.101a544.523 544.523 0 0029.614-9.853c8.104-2.971 13.579-10.607 13.811-19.258 1.083-40.819.52-81.681-1.691-122.442-.101-1.884-.26-3.898-1.415-5.376-1.748-2.217-4.984-2.362-7.787-2.319-9.274.145-18.49.015-27.75-.087-9.563-.101-14.215 3.232-14.244 12.97z" fill="#D86C00"/><path d="M546.602 28.836c-3.987-.522-8.248 1.507-8.797 5.506-1.286 9.26-.217 16.229.318 25.56 1.733 30.039 1.228 61.729.982 97.375-.014 1.927-.347 3.985.636 5.637 2.152 3.608 7.555 2.55 11.47 1.029 4.348-1.681 8.682-3.376 13.03-5.057 5.171-2.014 10.834-4.463 13.146-9.52 1.285-2.826 1.314-6.028 1.314-9.144.029-31.618-2.066-65.452-2.037-97.07 0-3.362-.014-6.81-1.314-9.911-2.832-6.724-5.62-4.13-16.209-3.463-3.582.231-8.971-.479-12.539-.942zM391.151 26.88c16.251.84 35.637-.479 51.889.362 7.628.39 19.646-1.725 29.21-1.638 13.998.116 39.48-1.666 53.464-.942 12.467.638 17.479-.057 29.96-.188 13.724-.145 29.311 1.666 31.738-1.275 1.329-1.609 1.271-4.405 1.083-6.477-.288-3.174-.317-4.159-3.394-5.115-3.077-.957-6.371-.667-9.578-.391-39.538 3.55-88.9-3.072-128.424.478-22.131 1.985-44.493-2.333-66.74-2.739-21.481-.406-41.098.739-62.16-2.174-6.168-.854-12.192-.826-18.39-.434-5.691.362-19.92-1.406-24.24 1.347-2.874 1.826-3.871 7.448-2.542 10.955 2.123 5.579 5.821 4.81 11.571 5.115 11.831.623 23.662 1.217 35.493 1.826 26.191 1.362 44.869-.058 71.06 1.29zM469.996 36.298c.26 46.427.535 92.854.795 139.28.057 10.752.13 21.533 1.3 32.227.115 1.058.289 2.217 1.083 2.927 1.329 1.217 3.655.304 4.507-1.29.853-1.594.679-3.521.506-5.318-1.517-15.693-1.632-31.487-1.762-47.252-.289-37.545-.564-75.089-.853-112.633-.014-2.565 1.344-11.723-.809-13.418-3.38-2.666-4.781 3.347-4.767 5.477z" fill="#F98E12"/><path d="M271.005 39.138c.26 67.858.534 135.701.794 203.559.058 15.722.13 31.473 1.3 47.108.116 1.551.289 3.232 1.084 4.289 1.329 1.768 3.654.435 4.507-1.883.852-2.333.679-5.144.505-7.767-1.517-22.938-1.632-46.007-1.762-69.061-.289-54.874-.563-109.749-.852-164.638-.015-3.739 1.343-17.128-.809-19.605-3.366-3.913-4.782 4.883-4.767 7.998zM583.28 34.24c.203 34.676.405 69.365.593 104.041.043 8.042.086 16.084.967 24.082.087.797.217 1.652.809 2.188.997.913 2.731.218 3.366-.97.636-1.189.506-2.623.376-3.971-1.127-11.722-1.228-23.517-1.315-35.298-.216-28.053-.419-56.092-.635-84.145-.015-1.913 1.011-8.752-.607-10.027-2.514-1.985-3.554 2.507-3.554 4.1z" fill="#D86C00"/><path d="M40.852 62.236l1.127 132.832c.058 6.97.26 14.418 4.233 20.141 6.24 8.999 18.75 10.057 29.282 12.998 7.15 2 13.897 5.188 20.917 7.564 13.435 4.564 27.679 6.1 41.46 9.433 40.058 9.694 76.418 34.545 117.56 36.805 2.312.131 4.926.073 6.544-1.593 1.488-1.536 1.604-3.913 1.633-6.057.953-79.726.823-159.48-.376-239.206-.101-6.39-.737-13.823-6.053-17.345-2.817-1.869-6.37-2.173-9.751-2.173-10.632 0-21.105 2.376-31.477 4.738C183 27.893 149.89 34.907 117.069 42.95c-9.881 2.42-76.216 14.07-76.216 19.287z" fill="#F98E12"/><path d="M7.7 232.916c15.876 12.172 35.233 18.707 54.2 25.025 56.989 18.997 113.978 37.979 170.967 56.976 10.647 3.55 21.467 7.129 32.662 7.665 20.095.957 39.206-7.882 57.379-16.533 96.109-45.702 192.217-91.39 288.325-137.093-6.847-5.781-17.19-1.956-25.208 2.058a7763.342 7763.342 0 01-269.69 128.761c-15.168 6.882-30.784 13.838-47.396 14.751-17.177.956-33.977-4.594-50.2-10.288-70.756-24.866-137.033-56.889-211.04-71.322z" fill="#D86C00"/><path d="M463.885 207.08c2.211 2.449 1.633 6.651-.419 9.289-2.036 2.622-5.128 4.057-8.104 5.404a3186.677 3186.677 0 01-148.864 62.482c-6.212 2.42-12.799 4.869-19.3 3.58-6.818-14.969 22.146-17.447 31.463-20.606a1191.072 1191.072 0 0049.997-18.228 1214.497 1214.497 0 0048.423-20.098c4.232-1.87 45.432-23.344 46.804-21.823zM483.228 206.515c.578 1.29 1.82 2.145 3.121 1.58a2727.218 2727.218 0 0084.436-38.066c2.427-1.145 4.94-2.362 6.558-4.507 1.618-2.144 1.979-5.492.072-7.375-1.184-1.174-34.713 17.04-38.166 18.62a1022.36 1022.36 0 01-39.567 17.301 995.802 995.802 0 01-15.341 6.173c.014 0-3.352 1.319-1.113 6.274z" fill="#F98E12"/><path d="M110.15 200.284c-3.886 0-7.512-1.217-10.864-3.651-2.528-1.956-4.492-4.434-5.908-7.463-3.02-5.709-4.522-11.969-4.522-18.794 0-3.999.564-7.969 1.676-11.925.101-.188.174-.42.217-.652.39-1.42.881-2.811 1.459-4.173 3.843-7.318 9.144-10.969 15.905-10.969 2.773 0 5.489.652 8.162 1.97 2.672 1.319 5.012 3.246 7.006 5.782 3.597 4.579 5.879 9.882 6.862 15.881.245 1.565.361 3.362.361 5.42 0 1.173-.072 2.362-.217 3.579-.289 3.173-.895 6.071-1.82 8.708-1.213 3.072-2.427 5.565-3.64 7.463a22.44 22.44 0 01-5.62 5.999c-2.932 1.869-5.937 2.825-9.057 2.825zm-.289-12.215c.245 0 .78-.174 1.603-.507.824-.348 1.994-1.884 3.496-4.608.491-.782.896-1.608 1.242-2.492v-.145c.882-2.29 1.431-4.318 1.676-6.072l.072-.217a14.02 14.02 0 00.217-2.42c0-1.507-.101-2.825-.289-3.956-.289-1.999-.939-4.013-1.936-6.028-.996-2.028-2.036-3.593-3.105-4.723-2.138-1.855-3.814-2.783-5.028-2.783-1.314 0-2.499 1.189-3.539 3.58-1.04 2.39-1.762 4.955-2.152 7.679a31.04 31.04 0 00-.434 5.188c0 4.782 1.185 9.361 3.569 13.751 1.805 2.507 3.336 3.753 4.608 3.753z" fill="#D76D27"/><path d="M215.417 145.598c-.636-3.637-1.532-6.825-2.702-9.607-1.459-3.304-3.135-6.144-5.027-8.535-3.452-4.448-7.093-7.578-10.935-9.389-5.591-2.348-11.427-3.507-17.509-3.507-4.131 0-8.147.782-12.033 2.362-.376.188-.737.391-1.113.594a157.48 157.48 0 00-2.571-4.927 105.274 105.274 0 00-2.282-4.042l-.607-1.131c-1.112-1.912-2.239-3.811-3.352-5.723l-1.372-2.217a19.685 19.685 0 00-1.156-1.812c-.057-.087-.13-.145-.187-.217-.26-.45-.65-.855-1.185-1.217-.592-.507-2.051-1.101-3.713.043-1.675 1.16-7.844 9.231-7.035 14.693.015.073.304 1.942 2.933 2.493.245.058.477.072.693.072.65 0 1.084-.232 1.358-.449.751-.623.78-1.594.78-1.652 0-.029.246-2.666 2.731-6.665.057.116.101.217.158.333l1.907 3.593.448.812 1.416 2.608 4.117 7.579c.361.666.708 1.333 1.054 2.014a3.846 3.846 0 00-.245.217c-.087.087-.174.188-.26.275-.072.058-.13.116-.217.189a2.295 2.295 0 00-.173.188c-3.019 3.159-4.435 5.695-5.952 7.97l-.708 1.289c-.751 1.247-2.499 4.753-4.189 8.622-1.575 3.608-3.583 7.941-5.345 11.621-.578 1.188-1.531 3.29-2.846 6.275a53.023 53.023 0 00-.65-1.377 141.7 141.7 0 00-4.305-8.39 93.658 93.658 0 00-2.08-3.637l-.563-1.014c-1.026-1.725-2.037-3.434-3.063-5.159l-1.141-1.826c1.343-.014 2.802 0 4.391.073.419.058 2.644.319 3.959-.855.447-.406.953-1.13.91-2.362.029-.464-.058-2.246-3.005-2.985-2.557-.637-16.757-.84-22.073 2.884-.708.478-1.691 1.941-.39 4.013.693 1.087 1.646 1.42 2.513 1.42.621 0 1.185-.173 1.546-.362.029-.014 1.907-.811 5.706-1.347.058.159.13.318.231.492.535 1.145.809 1.739.824 1.797.028.058.375.783 1.054 2.13l1.748 3.231.405.739 1.285 2.348 1.806 3.275c-.809.275-1.604.768-2.311 1.246-2.933 1.985-5.88 3.985-8.812 5.97-1.575.898-3.641 2.231-6.212 4.028-1.618 1.217-2.557 1.898-2.831 2.029l-.463.377a24.16 24.16 0 00-2.354 1.912c-.39.276-.91.768-1.532 1.449-1.04 1.188-1.502 2.217-1.372 3.087.058.376.144.753.289 1.159.188.565.318.913.39 1.043.072.131.318.348.737.667l.101.072c.65.391 1.358.623 2.109.71 1.242.145 3.106.087 5.576-.13a65.273 65.273 0 012.904-.189c2.166-.101 3.582-.159 4.247-.159a80.89 80.89 0 015.085.362c1.849.203 3.958.565 6.312 1.087.275.073.549.145.838.188l3.872.928c1.025.261 1.863.275 2.542.043.333-.116.607-.289.853-.507.289-.261.505-.55.65-.855.187-.304.419-.71.708-1.246l.722-1.405c1.517-3.203 2.528-5.275 3.062-6.217l2.211-4.361a61.304 61.304 0 011.603-3.072v-.015c.405 5.666 1.546 11.114 3.481 16.302 1.46 3.869 3.236 7.245 5.331 10.099 4.565 6.637 10.083 10.97 16.555 12.969a29.685 29.685 0 008.393 1.217c3.698 0 7.281-.826 10.762-2.477 3.482-1.652 7.064-4.478 10.762-8.492.101-.188.217-.362.361-.507 4.276-5.202 7.469-11.114 9.549-17.707 1.647-5.014 2.557-10.085 2.702-15.186-.015-3.767-.275-7.201-.809-10.259zm-79.193 22.721c-.274.971-.707 2.101-1.69 2.304-.043.014-.086 0-.115 0a68.13 68.13 0 00-3.352-.754l-1.054-.174a58.034 58.034 0 00-7.743-.97c-1.589-.073-2.615-.087-3.063-.058a43.906 43.906 0 00-4.984.231l-.621.029c.174-.086.477-.318.939-.695.824-.594 1.676-1.203 2.543-1.797 2.6-1.84 5.475-3.593 8.609-5.231l.477-.232c1.026-.521 1.748-.855 2.196-1l.852-.362c.405-.145.809-.304 1.228-.492.506-.218 1.04-.377 1.56-.58.231.029.462.116.694.261.606.405.967 1.072 1.3 1.724.606 1.174 1.228 2.348 1.834 3.536.304.594.622 1.188.708 1.854.13.797-.101 1.623-.318 2.406zm65.339-8.883c-.347 2.435-.997 5.13-1.965 8.1l-.361 1.073c-.578 1.767-1.574 3.97-2.99 6.593-1.315 2.347-2.73 4.318-4.233 5.941-3.264 3.637-6.659 5.448-10.213 5.448-5.099 0-9.823-3.565-14.142-10.679a36.321 36.321 0 01-3.496-8.39c-1.026-4.159-1.532-8.216-1.532-12.186 0-2.681.174-5.115.506-7.303a94.508 94.508 0 011.17-5.159c.78-2.768 1.748-5.159 2.918-7.173.058-.101.13-.188.188-.275l.867 1.753a185.636 185.636 0 012.21 4.492l3.713 7.796 1.271 2.681.404.84 1.777 3.666c.78 1.493 1.199 2.261 1.242 2.319.044.058.405.695 1.084 1.912.462.957 1.026 1.507 1.719 1.652a2.929 2.929 0 001.979-.261 3.905 3.905 0 001.835-1.84c.361-.768.404-1.55.144-2.362a15.55 15.55 0 00-.78-2.014l-.997-2.42c-.881-2.028-1.777-4.057-2.658-6.086l-.549-1.159a111.821 111.821 0 00-1.935-4.231c-1.402-2.956-2.933-5.912-4.551-8.883.015.015.043.029.058.044-.347-.783-.997-2.072-1.734-3.492 2.24-1.71 4.594-2.58 7.064-2.58 3.886 0 7.584.986 11.08 2.942 3.496 2.246 6.299 5.637 8.393 10.172l.289.652c.968 2.203 1.604 4.347 1.893 6.448.433 2.101.65 4.318.65 6.666a57.415 57.415 0 01-.318 5.303z" fill="#D76D27"/></g><defs><clipPath id="prefix__clip0"><path fill="#fff" d="M0 0h625v337H0z"/></clipPath></defs></svg>