<svg width="1440" height="165" viewBox="0 0 1440 165" fill="none" xmlns="http://www.w3.org/2000/svg">
<path fill-rule="evenodd" clip-rule="evenodd" d="M1594.23 273.985C1709.53 259.128 1867.24 238.808 1899.21 136.181C1899.91 134.327 1900.44 132.458 1900.81 130.583C1900.99 129.86 1901.18 129.134 1901.35 128.403C1901.81 126.48 1901.8 124.692 1901.34 123.033C1900.67 110.467 1892.19 98.0648 1875 88.1507C1873.78 87.4458 1872.51 86.7536 1871.2 86.0747C1870.89 85.9137 1870.58 85.7535 1870.26 85.5941C1869.58 85.2469 1868.89 84.9046 1868.19 84.5671C1863.29 82.2042 1857.94 80.0747 1852.27 78.1404C1819.93 67.0306 1776.52 62.3402 1735.46 58.4574C1154.71 3.56061 554.882 -12.8489 -37.0408 9.97989C-135.122 13.7634 -236.467 19.1057 -320.849 41.2685C-354.173 50.0259 -384.147 62.1134 -406.735 76.1281L-406.738 76.1281C-412.129 79.4501 -417.092 82.8766 -421.575 86.3968C-436.533 98.0898 -446.371 110.763 -449.164 123.716L-449.978 123.699C-481.111 156.617 -449.377 207.419 -364.436 227.498C-193.094 278.668 59.0223 283.727 290.011 286.108L1041.42 293.845C1224.83 295.73 1414.12 297.303 1584.95 275.182C1586.51 274.98 1588.09 274.776 1589.67 274.572L1594.21 273.987L1594.23 273.985Z" fill="#FFF2EA"/>
<path d="M1547.32 261.227C1383.92 280.781 1202.87 279.391 1027.44 277.725C787.854 275.445 548.31 273.165 308.724 270.885C87.7855 268.781 -153.361 264.309 -317.247 219.076C-398.492 201.326 -428.846 156.419 -399.067 127.321C217.334 139.621 829.627 147.576 1444.67 130.039C1538.86 127.358 1861.95 85.4073 1849.95 131.479C1824.16 230.738 1660.89 247.636 1547.32 261.227Z" fill="#666666"/>
<path d="M1844.53 144.594C1836.69 156.219 1821.41 166.754 1802.06 175.998C1792.53 180.583 1781.98 184.842 1770.8 188.762C1670.99 223.811 1531.42 232.354 1399.78 237.791C1183.2 246.722 965.42 251.181 747.685 251.144C647.711 251.131 547.243 251.181 448.008 246.597C360.766 242.563 273.196 247.962 185.051 246.722C71.7679 245.131 -41.104 238.216 -150.403 226.053C-231.319 217.034 -318.519 201.589 -365.221 175.309C-378.857 167.668 -389.044 159.1 -394.63 149.505C-407.691 127.145 -390.892 104.222 -357.704 85.2695C-336.099 72.8809 -307.429 62.1959 -275.556 54.4546C-194.845 34.8634 -97.9097 30.141 -4.09616 26.7964C562.071 6.61643 1135.8 21.122 1691.28 69.6491C1730.55 73.0813 1772.08 77.2276 1803.01 87.0482C1809.21 89.0024 1815 91.182 1820.22 93.6371C1849.42 107.266 1856.28 127.22 1844.53 144.594Z" fill="#999999"/>
<path d="M1844.53 144.594C1836.68 156.219 1821.4 166.754 1802.06 175.998C1638.83 175.948 1475.6 182.812 1312.37 183.702C876.615 186.094 440.817 184.328 5.06079 184.19C-118.367 184.153 -241.795 175.347 -365.223 175.309C-378.86 167.668 -389.046 159.1 -394.632 149.505C-404.901 131.918 -396.686 113.98 -376.56 97.9086C-371.138 93.5369 -364.813 89.3155 -357.707 85.2695C-202.61 84.2674 -45.8712 86.4344 108.609 86.4595C502.675 86.5346 896.782 82.8394 1290.85 82.9145C1327.86 82.9145 1621.62 87.0232 1803 87.0482C1809.2 89.0023 1815 91.1819 1820.21 93.6371C1824.28 95.5286 1827.89 97.5453 1831.06 99.6623C1850.98 112.765 1854.63 129.638 1844.53 144.594Z" fill="#666666"/>
<path d="M1844.53 144.595C1836.68 156.219 1821.4 166.754 1802.06 175.998C1638.83 175.948 1475.6 182.813 1312.37 183.702C876.615 186.094 440.817 184.328 5.06079 184.19C-118.367 184.153 -241.795 175.347 -365.223 175.309C-378.86 167.668 -389.046 159.1 -394.632 149.505C-404.901 131.918 -396.686 113.98 -376.56 97.9088C-239.454 97.984 -101.814 99.3243 34.3056 99.3494C475.853 99.4245 917.443 95.7293 1358.99 95.8044C1394.03 95.8044 1634.72 98.7356 1831.06 99.6625C1850.98 112.765 1854.63 129.638 1844.53 144.595Z" fill="#CCCCCC"/>
<path d="M91.1896 146.756C134.961 146.782 178.712 146.795 222.484 146.821C221.466 141.44 220.469 136.06 219.451 130.68C190.802 127.467 161.615 126.28 132.567 127.131C124.367 127.364 97.1548 126.086 91.2495 129.892C88.7955 131.441 91.9477 146.756 91.1896 146.756Z" fill="#FFF2EA"/>
<path d="M375.9 146.756C419.671 146.782 463.422 146.795 507.194 146.821C506.176 141.44 505.179 136.06 504.161 130.68C475.512 127.467 446.325 126.28 417.277 127.131C409.077 127.364 381.865 126.086 375.959 129.892C373.506 131.441 376.658 146.756 375.9 146.756Z" fill="#FFF2EA"/>
<path d="M660.61 146.756C704.381 146.782 748.132 146.795 791.904 146.821C790.886 141.44 789.889 136.06 788.871 130.68C760.222 127.467 731.035 126.28 701.987 127.131C693.787 127.364 666.575 126.086 660.669 129.892C658.215 131.441 661.368 146.756 660.61 146.756Z" fill="#FFF2EA"/>
<path d="M945.319 146.756C989.091 146.782 1032.84 146.795 1076.61 146.821C1075.6 141.44 1074.6 136.06 1073.58 130.68C1044.93 127.467 1015.74 126.28 986.697 127.131C978.497 127.364 951.285 126.086 945.379 129.892C942.925 131.441 946.078 146.756 945.319 146.756Z" fill="#FFF2EA"/>
<path d="M1230.03 146.756C1273.8 146.782 1317.55 146.795 1361.32 146.821C1360.31 141.44 1359.31 136.06 1358.29 130.68C1329.64 127.467 1300.45 126.28 1271.41 127.131C1263.21 127.364 1235.99 126.086 1230.09 129.892C1227.64 131.441 1230.79 146.756 1230.03 146.756Z" fill="#FFF2EA"/>
</svg>
