<svg width="211" height="209" viewBox="0 0 211 209" fill="none" xmlns="http://www.w3.org/2000/svg">
<g clip-path="url(#clip0)">
<path d="M93.1707 191.528C81.8151 191.528 71.1294 189.883 61.4822 186.649C59.4723 185.969 57.496 185.345 55.5531 184.721C37.7325 178.991 22.3572 173.998 10.4321 151.929C8.69028 148.695 4.70409 136.725 4.06764 132.81C3.39769 128.782 3.12971 118.287 3.56518 113.521C6.37896 82.035 10.7671 57.4698 23.1276 39.6559C29.1572 30.9191 36.9621 25.8699 43.7955 22.0121C62.889 11.3465 83.2889 5.67322 102.717 5.67322C105.9 5.67322 109.082 5.84341 112.197 6.12708C118.729 6.75113 125.161 6.75113 131.358 6.75113C146.833 6.75113 161.472 6.75113 176.747 15.9418C184.016 20.3102 189.241 25.0757 193.227 30.8624C204.516 47.4282 210.211 80.1061 206.727 108.642C204.851 124.074 201.099 137.803 195.874 148.298C190.816 158.453 184.384 165.602 177.283 169.006C146.13 183.926 117.858 191.528 93.1707 191.528Z" fill="#F98E12"/>
<path d="M102.716 11.3465C105.831 11.3465 108.947 11.5167 111.995 11.8003C118.627 12.4244 125.092 12.4244 131.323 12.4244C146.497 12.4244 160.868 12.4244 175.573 21.2746C182.44 25.4161 187.331 29.7845 190.982 35.174C196.107 42.6627 200.127 54.2361 202.371 67.7384C204.548 80.9003 204.917 95.0267 203.376 107.508C201.6 122.031 198.083 134.853 193.226 144.667C188.603 153.915 182.741 160.496 176.276 163.616C145.492 178.423 117.522 185.912 93.1694 185.912C82.0148 185.912 71.5636 184.323 62.1173 181.146C60.1075 180.466 58.0976 179.842 56.1548 179.217C47.3785 176.381 39.1046 173.714 31.7352 169.062C23.9303 164.127 17.9343 157.489 12.8762 148.185C11.5028 145.632 7.78457 134.512 7.28211 131.392C6.74615 128.102 6.51167 118.457 6.88014 114.429C7.98556 102.005 9.52644 87.538 12.6752 74.4328C15.6565 61.9517 19.7766 52.0236 25.3037 44.081C30.8978 35.9683 38.3342 31.2028 44.8327 27.5152C63.6247 16.9062 83.6226 11.3465 102.716 11.3465ZM102.716 0C82.4167 0 61.9498 5.90016 42.7223 16.6226C34.9509 20.991 27.1796 26.3238 20.949 35.2875C7.18162 55.1438 2.96095 82.3186 0.247661 112.614C-0.221302 117.89 -0.0203179 129.123 0.817117 134.285C1.62105 139.221 5.90872 151.986 7.95206 155.73C21.9875 181.714 40.411 185.345 60.8109 192.209C71.1951 195.67 82.0818 197.202 93.1694 197.202C121.81 197.202 151.857 187.103 178.119 174.452C193.796 166.907 205.821 143.476 209.941 109.777C213.425 81.2974 208.333 45.5561 195.37 26.5507C190.312 19.1755 184.115 14.3533 177.817 10.5522C155.709 -2.72315 134.974 2.55296 112.363 0.453859C109.148 0.170197 105.932 0 102.716 0Z" fill="#FFF2EA"/>
<path d="M87.2357 85.4116C85.8196 85.4116 84.4158 85.2041 83.0242 84.7891C79.7772 83.7637 77.0062 81.5542 74.7112 78.1606C73.6614 76.6958 72.7703 74.9746 72.0379 72.9971C70.8172 69.6523 70.2068 66.1123 70.2068 62.377C70.2068 60.9854 70.3289 59.4595 70.5731 57.7993C70.866 55.7729 71.3421 53.8687 72.0013 52.0864C73.1487 49.23 74.5281 46.9961 76.1395 45.3848C77.2381 44.335 78.4466 43.4805 79.765 42.8213C81.7181 42.0156 83.7322 41.6128 85.8074 41.6128C88.8592 41.6128 91.7889 42.2109 94.5965 43.4072C96.5252 44.335 98.3563 45.9341 100.09 48.2046C101.042 49.4253 101.884 50.8779 102.617 52.5625C103.202 53.9785 103.654 55.6143 103.971 57.4697C104.24 59.0322 104.374 60.79 104.374 62.7432C104.301 65.3555 103.849 67.9434 103.019 70.5068C101.97 73.876 100.37 76.8911 98.222 79.5522C98.1487 79.6255 98.0877 79.7109 98.0389 79.8086C96.1834 81.8594 94.3768 83.312 92.619 84.1665C90.8856 84.9966 89.0911 85.4116 87.2357 85.4116ZM87.0892 78.417C88.8714 78.417 90.5804 77.4893 92.2161 75.6338C92.973 74.8037 93.681 73.7905 94.3401 72.5942C95.0482 71.2515 95.5486 70.1284 95.8416 69.2251L96.0247 68.6758C96.513 67.1621 96.8426 65.7827 97.0135 64.5376C97.1111 63.6587 97.16 62.7554 97.16 61.8276C97.16 60.6313 97.0501 59.4961 96.8304 58.4219C96.6839 57.3477 96.3665 56.249 95.8782 55.126L95.7318 54.7964C94.6819 52.4771 93.2781 50.7437 91.5203 49.5962C89.7625 48.5952 87.907 48.0947 85.9539 48.0947C83.7078 48.0947 81.6448 49.5352 79.765 52.416C79.179 53.4414 78.6907 54.6621 78.3001 56.0781C78.0804 56.957 77.8851 57.8359 77.7142 58.7148C77.5433 59.8379 77.4578 61.083 77.4578 62.4502C77.4578 64.4766 77.7142 66.5518 78.2269 68.6758C78.6419 70.1895 79.2278 71.6177 79.9847 72.9604C82.1575 76.5981 84.5257 78.417 87.0892 78.417ZM117.118 82.0791C114.799 82.0791 112.687 81.3955 110.783 80.0283C109.611 79.0518 108.61 77.8799 107.78 76.5127L107.451 75.8901C106.498 74.23 105.803 72.1304 105.363 69.5913C105.265 68.688 105.192 67.7969 105.143 66.918C105.143 64.9893 105.302 63.2314 105.619 61.6445C105.986 59.5938 106.718 57.3721 107.817 54.9795C108.744 53.124 109.562 51.8667 110.27 51.2075C110.441 51.0854 110.673 51.0244 110.966 51.0244C111.869 51.0244 112.87 51.4395 113.969 52.2695C115.092 53.0752 115.654 53.8809 115.654 54.6865C115.654 55.1016 115.471 55.5166 115.104 55.9316C114.64 56.9814 114.25 58.1533 113.932 59.4473C113.566 60.9609 113.346 62.4502 113.273 63.915L113.237 65.1602C113.237 66.4785 113.346 67.626 113.566 68.6025C113.737 69.6768 113.884 70.2749 114.006 70.397C114.421 71.6177 114.824 72.582 115.214 73.29C116.069 74.6572 117.021 75.3408 118.071 75.3408C118.998 75.3408 120.158 74.7061 121.55 73.4365C122.233 72.7041 122.77 71.9595 123.161 71.2026C123.649 70.3726 124.015 69.4814 124.26 68.5293C124.65 67.2598 124.846 65.978 124.846 64.6841C124.846 63.561 124.76 62.4014 124.589 61.2051L124.553 61.0952C124.382 60.0698 124.113 58.9956 123.747 57.8726C123.332 56.5542 122.978 55.5898 122.685 54.9795L122.319 54.2104C122.075 53.771 121.952 53.4048 121.952 53.1118C121.952 52.3306 122.282 51.6836 122.941 51.1709C123.6 50.6338 124.406 50.3652 125.358 50.3652C127.067 50.3652 128.019 51.2441 128.215 53.002L128.837 54.7598L129.387 56.6274C129.972 59.0688 130.314 60.9365 130.412 62.2305L130.522 64.7939C130.522 66.3809 130.278 68.0654 129.789 69.8477L129.203 71.6421L129.02 72.0815C128.41 73.644 127.568 75.1333 126.493 76.5493C124.76 78.8442 122.844 80.4312 120.744 81.3101C119.572 81.8228 118.364 82.0791 117.118 82.0791ZM133.891 50.9146C133.842 50.9146 133.476 50.9023 132.792 50.8779C132.109 50.8535 131.608 50.1455 131.291 48.7539V46.5933C131.291 46.1538 131.303 45.8364 131.327 45.6411V45.3848C131.572 43.2852 132.512 42.2354 134.147 42.2354C134.782 42.2354 135.344 42.4307 135.832 42.8213C136.491 43.3828 136.821 44.2983 136.821 45.5679C136.894 46.0806 136.93 46.5566 136.93 46.9961C137.004 47.5332 137.04 48.1191 137.04 48.7539C137.04 49.0225 137.004 49.291 136.93 49.5596C136.125 50.4629 135.112 50.9146 133.891 50.9146ZM136.418 83.9468C135.246 83.9468 134.282 83.1655 133.525 81.603C132.914 79.5767 132.463 76.3662 132.17 71.9717L132.06 70.7998C131.962 69.1885 131.901 68.3584 131.877 68.3096C131.706 65.4287 131.633 63.3779 131.657 62.1572C131.657 60.5947 131.681 59.3862 131.73 58.5317C131.877 57.1646 132.28 56.1758 132.939 55.5654C133.525 55.0527 134.172 54.7964 134.88 54.7964C135.783 54.7964 136.528 55.1626 137.114 55.895C137.577 56.4565 137.809 57.189 137.809 58.0923L137.773 58.605L137.809 60.5459L137.919 62.8164C137.944 63.3291 137.98 63.8296 138.029 64.3179L138.176 66.7349C138.273 67.6626 138.346 68.5903 138.395 69.5181L139.055 76.293C139.299 78.2949 139.421 79.833 139.421 80.9072C139.03 82.9336 138.029 83.9468 136.418 83.9468Z" fill="#FFF2EA"/>
<path d="M81.6707 160.894C79.5543 160.894 77.5841 160.233 75.7601 158.906C74.3837 157.846 73.3153 156.49 72.5462 154.848C70.9066 151.747 70.0879 148.339 70.0879 144.626C70.0879 142.453 70.3915 140.29 71.001 138.142C71.055 138.034 71.0955 137.915 71.1202 137.784C71.3339 137.015 71.5948 136.262 71.9142 135.517C74.0036 131.539 76.8869 129.55 80.5597 129.55C82.0666 129.55 83.5487 129.908 85.0039 130.625C86.4568 131.341 87.7276 132.387 88.8139 133.767C90.7706 136.259 92.0121 139.138 92.5406 142.4C92.6711 143.25 92.7363 144.23 92.7363 145.344C92.7363 145.98 92.6958 146.628 92.6171 147.294C92.4574 149.019 92.1246 150.595 91.6253 152.028C90.9663 153.699 90.3028 155.051 89.6438 156.085C88.8251 157.358 87.804 158.447 86.5895 159.346C85.0039 160.377 83.3621 160.894 81.6707 160.894ZM81.5111 154.252C81.6415 154.252 81.9339 154.158 82.3837 153.973C82.8335 153.789 83.47 152.95 84.2887 151.468C84.5518 151.045 84.7768 150.593 84.9634 150.116V150.037C85.438 148.794 85.7416 147.692 85.8766 146.736L85.917 146.617C85.9958 146.165 86.0363 145.73 86.0363 145.303C86.0363 144.482 85.9823 143.767 85.8766 143.155C85.7169 142.067 85.3683 140.974 84.824 139.874C84.2842 138.774 83.7174 137.919 83.1372 137.308C81.9744 136.302 81.0612 135.796 80.4023 135.796C79.6893 135.796 79.0461 136.444 78.477 137.746C77.908 139.044 77.5189 140.436 77.3052 141.923C77.1456 142.852 77.0668 143.792 77.0668 144.748C77.0668 147.348 77.7146 149.84 79.0123 152.226C79.9907 153.575 80.8228 154.252 81.5111 154.252Z" fill="#FFF2EA"/>
<path d="M138.922 131.163C138.577 129.188 138.089 127.445 137.455 125.943C136.661 124.152 135.75 122.603 134.72 121.305C132.84 118.89 130.859 117.185 128.769 116.2C125.726 114.927 122.557 114.29 119.251 114.29C117.002 114.29 114.82 114.718 112.706 115.577C112.501 115.68 112.301 115.795 112.101 115.901C111.647 114.992 111.179 114.101 110.704 113.226C110.23 112.351 109.816 111.621 109.463 111.025L109.13 110.413C108.525 109.374 107.913 108.339 107.308 107.3L106.564 106.092C106.413 105.809 106.199 105.485 105.934 105.112C105.9 105.067 105.864 105.028 105.833 104.992C105.693 104.75 105.48 104.529 105.19 104.331C104.87 104.057 104.076 103.735 103.17 104.36C102.261 104.988 98.9033 109.378 99.3441 112.349C99.3486 112.39 99.5083 113.404 100.936 113.705C101.076 113.735 101.197 113.746 101.31 113.746C101.665 113.746 101.904 113.622 102.052 113.503C102.466 113.166 102.477 112.637 102.477 112.608C102.477 112.592 102.612 111.157 103.964 108.985C103.993 109.045 104.02 109.104 104.054 109.169L105.093 111.123L105.333 111.567L106.103 112.983L108.343 117.104C108.538 117.47 108.723 117.83 108.916 118.197C108.871 118.237 108.826 118.276 108.781 118.316C108.732 118.366 108.687 118.42 108.637 118.469C108.601 118.503 108.563 118.534 108.523 118.572C108.489 118.602 108.457 118.638 108.428 118.671C106.786 120.392 106.019 121.768 105.192 123.001L104.803 123.703C104.393 124.384 103.442 126.289 102.527 128.392C101.672 130.356 100.577 132.713 99.623 134.712C99.3082 135.357 98.7909 136.498 98.0711 138.124C97.9317 137.82 97.8125 137.571 97.718 137.377C96.9691 135.805 96.1909 134.285 95.379 132.809C94.9449 132.024 94.5693 131.363 94.2499 130.83L93.9463 130.279C93.393 129.343 92.8375 128.41 92.2842 127.474L91.6657 126.48C92.3989 126.469 93.1884 126.48 94.0498 126.521C94.2747 126.555 95.4824 126.698 96.1999 126.053C96.4405 125.835 96.7194 125.437 96.6947 124.766C96.7104 124.512 96.661 123.543 95.0641 123.14C93.6764 122.792 85.9508 122.684 83.0607 124.706C82.6761 124.969 82.1385 125.765 82.8515 126.887C83.2248 127.479 83.7534 127.659 84.2144 127.659C84.5541 127.659 84.8622 127.564 85.0579 127.461C85.0736 127.452 86.0947 127.022 88.1661 126.73C88.2021 126.815 88.2403 126.905 88.2921 127.002C88.5777 127.623 88.7306 127.947 88.7419 127.983C88.7531 128.016 88.9421 128.406 89.3109 129.145L90.26 130.904L90.4804 131.302L91.1844 132.575L92.1628 134.354C91.7197 134.507 91.2901 134.77 90.9055 135.031C89.3087 136.115 87.7073 137.195 86.1104 138.279C85.258 138.767 84.1312 139.496 82.7278 140.467C81.8461 141.129 81.3356 141.498 81.1872 141.572L80.9285 141.776C80.4697 142.105 80.0401 142.453 79.642 142.816C79.4284 142.968 79.1495 143.229 78.8099 143.6C78.2453 144.246 77.9957 144.808 78.0609 145.276C78.0902 145.481 78.1419 145.69 78.2116 145.904C78.3173 146.216 78.387 146.405 78.4253 146.47C78.4613 146.536 78.5962 146.659 78.8256 146.832L78.8796 146.873C79.2327 147.087 79.6173 147.215 80.0311 147.26C80.7059 147.334 81.7179 147.309 83.0629 147.186C83.8411 147.12 84.3651 147.087 84.6485 147.087C85.8271 147.028 86.5985 147.001 86.9539 147.001C88.0604 147.051 88.9803 147.116 89.7135 147.199C90.7211 147.309 91.8681 147.503 93.1501 147.786C93.2986 147.827 93.4492 147.865 93.6044 147.892L95.7096 148.393C96.2629 148.537 96.7262 148.546 97.0973 148.423C97.2772 148.362 97.4279 148.27 97.5606 148.144C97.7203 148.004 97.835 147.847 97.9092 147.68C98.0127 147.516 98.1386 147.293 98.2983 147.003L98.6919 146.239C99.5151 144.502 100.068 143.376 100.354 142.858L101.557 140.488C101.836 139.925 102.122 139.365 102.425 138.817L102.441 138.821C102.659 141.905 103.285 144.862 104.333 147.685C105.127 149.788 106.089 151.618 107.227 153.179C109.712 156.789 112.715 159.142 116.233 160.23C117.74 160.673 119.26 160.892 120.796 160.892C122.807 160.892 124.757 160.444 126.648 159.549C128.537 158.654 130.49 157.113 132.5 154.931C132.554 154.828 132.62 154.738 132.696 154.659C135.022 151.83 136.756 148.618 137.894 145.033C138.791 142.307 139.281 139.55 139.36 136.774C139.36 134.696 139.212 132.823 138.922 131.163ZM95.8535 143.517C95.7051 144.044 95.4689 144.655 94.9359 144.77C94.9157 144.774 94.8909 144.77 94.8707 144.774C94.2814 144.626 93.6742 144.491 93.0489 144.363L92.4754 144.259C91.0495 143.985 89.6505 143.812 88.2651 143.733C87.4014 143.697 86.8436 143.684 86.5985 143.699C85.6899 143.69 84.7835 143.733 83.8883 143.828L83.5532 143.841C83.6432 143.796 83.8164 143.672 84.066 143.468C84.5113 143.139 84.9746 142.816 85.4492 142.494C86.8661 141.491 88.427 140.544 90.1341 139.651L90.3927 139.523C90.9505 139.239 91.3463 139.06 91.5847 138.976L92.0526 138.778C92.2707 138.697 92.4911 138.61 92.7205 138.511C92.9994 138.392 93.2896 138.306 93.5685 138.194C93.6966 138.209 93.8226 138.252 93.9463 138.333C94.2747 138.551 94.4703 138.916 94.6503 139.266C94.9831 139.907 95.3138 140.548 95.6489 141.185C95.8175 141.504 95.984 141.833 96.038 142.19C96.0942 142.642 95.9727 143.09 95.8535 143.517ZM131.387 138.684C131.203 140.011 130.847 141.477 130.314 143.088L130.119 143.67C129.804 144.631 129.257 145.827 128.492 147.255C127.779 148.528 127.01 149.608 126.192 150.492C124.419 152.466 122.568 153.454 120.639 153.454C117.861 153.454 115.297 151.52 112.942 147.647C112.124 146.218 111.487 144.698 111.037 143.088C110.479 140.83 110.205 138.619 110.205 136.464C110.205 135.011 110.299 133.684 110.484 132.488C110.668 131.552 110.882 130.619 111.118 129.683C111.541 128.176 112.067 126.878 112.704 125.785C112.74 125.731 112.774 125.682 112.809 125.632L113.28 126.586C113.689 127.387 114.091 128.201 114.483 129.026L116.498 133.266L117.191 134.723L117.409 135.18L118.376 137.173C118.801 137.982 119.028 138.405 119.053 138.437C119.078 138.47 119.273 138.814 119.642 139.476C119.892 139.997 120.2 140.297 120.576 140.371C120.949 140.445 121.309 140.4 121.648 140.231C122.096 140.013 122.427 139.68 122.647 139.228C122.843 138.81 122.867 138.383 122.721 137.944C122.577 137.505 122.433 137.143 122.296 136.851L121.756 135.537C121.273 134.433 120.789 133.329 120.306 132.227L120.007 131.595C119.732 130.958 119.384 130.194 118.954 129.294C118.187 127.688 117.362 126.073 116.48 124.461C116.494 124.47 116.505 124.476 116.514 124.481C116.325 124.049 115.974 123.356 115.567 122.583C116.788 121.649 118.066 121.181 119.408 121.181C121.525 121.181 123.533 121.714 125.438 122.778C127.343 123.997 128.861 125.842 130.002 128.311L130.161 128.66C130.69 129.854 131.034 131.026 131.194 132.166C131.432 133.309 131.551 134.519 131.551 135.789C131.547 136.786 131.493 137.746 131.387 138.684Z" fill="#FFF2EA"/>
<path d="M92.7368 134.271C96.7919 129.685 101.407 125.421 106.31 121.395C106.782 121.008 107.266 120.617 107.864 120.369C108.463 120.124 109.202 120.043 109.778 120.295C110.498 120.612 110.766 121.368 110.622 122.029C110.478 122.691 110.003 123.278 109.529 123.84C105.282 128.867 100.143 133.421 94.3269 137.314L92.7368 134.271Z" fill="#FFF2EA"/>
</g>
<defs>
<clipPath id="clip0">
<rect width="211" height="209" fill="white"/>
</clipPath>
</defs>
</svg>
