<svg width="348" height="283" viewBox="0 0 348 283" fill="none" xmlns="http://www.w3.org/2000/svg">
<g clip-path="url(#clip0)">
<path d="M13.76 174.54C17.72 180.07 17.75 187.5 20.84 193.55C24.89 201.46 33.6 205.89 42.22 208.11C48.57 209.74 56.2 210.11 60.78 205.44C64.26 201.9 64.89 196.56 65.89 191.7C66.88 186.84 68.99 181.48 73.67 179.78C74.65 179.42 75.8 179.28 76.7 179.81C77.41 180.24 77.82 181.01 78.2 181.73C82.14 189.35 86.08 196.98 90.02 204.61C95.91 216.02 102.09 227.78 112.15 235.8C123.18 244.59 137.52 247.83 151.33 250.8C162.77 253.27 174.23 255.74 185.67 258.2C189.7 259.06 195.05 259.33 196.75 255.59C198.64 251.44 193.93 247.45 189.91 245.29C184.76 242.51 179.59 239.74 174.43 236.96C187.97 227.95 206.74 240.64 222.23 235.64C224.52 234.9 227.04 233.22 226.85 230.83C226.77 229.74 226.11 228.77 225.4 227.95C220.86 222.75 213.53 221.17 206.74 219.9C213.44 211.94 218.35 202.5 221.02 192.45C221.84 189.34 222.44 185.94 221.21 182.97C218.83 177.22 210.21 173.93 211.49 167.85C219.86 168.45 228.43 165.27 234.37 159.34C235.99 157.72 237.49 155.72 237.51 153.44C237.53 150.3 234.77 147.86 232.04 146.29C226.4 143.04 219.81 141.45 213.32 141.78C209.47 141.97 205.57 142.8 201.82 141.95C198.07 141.1 194.44 137.78 195.01 133.98C198.15 134.67 201.28 135.36 204.4 136.06C208.37 136.94 212.45 137.82 216.47 137.22C220.49 136.62 224.51 134.22 225.83 130.38C227.85 124.53 222.95 118.53 217.67 115.29C212.39 112.05 205.87 110.98 199.71 110.32C198.54 110.19 197.06 109.85 196.91 108.69C196.83 108.08 197.18 107.5 197.49 106.96C199.59 103.45 200.64 99.35 200.5 95.28C200.47 94.38 200.39 93.44 200.8 92.65C201.49 91.27 203.26 90.92 204.79 90.65C209.53 89.83 214.28 88.37 218.12 85.48C226.22 79.38 228.57 66.88 223.24 58.27C220.15 53.25 214.83 49.8 212.16 44.55C209.51 39.3 206.99 33.73 202.52 29.9C199.32 27.16 195.35 25.51 191.46 23.91C188.28 19.02 186.87 12.56 182.3 8.93C179.1 6.4 174.15 6.37 170.94 8.88C167.72 11.38 166.54 16.17 168.24 19.88C164.62 23.39 158.56 21.33 154.28 18.65C149.99 15.98 145.01 12.74 140.3 14.55C134.75 16.69 134.07 25.13 138.13 29.49C139 30.43 140.05 31.28 140.43 32.51C140.98 34.29 139.89 36.11 139 37.73C134.96 45.1 134.23 54.19 136.97 62.13C139.57 69.64 145.08 76 147.07 83.68C149.86 94.5 145.23 105.69 140.7 115.91C139.77 118 138.71 120.23 136.68 121.27C133.84 122.72 130.25 121.13 128.28 118.64C126.31 116.14 125.52 112.97 124.5 109.96C118.38 92 101.99 77.81 83.22 74.84C73.07 73.24 62.69 74.71 52.66 76.95C48.78 77.81 44.84 78.82 41.53 80.99C38.03 83.29 35.48 86.71 33.11 90.16C21.48 107.12 12.97 126.27 8.12996 146.3C7.33996 149.55 6.64996 152.9 7.14996 156.22C8.09996 162.34 13.6 168.33 13.76 174.54Z" fill="#FFF2EA" stroke="#FFF2EA" stroke-width="14" stroke-miterlimit="10"/>
<path d="M194.15 113.34C196.69 112.26 205.28 110.26 221.51 122.55C224.77 125.03 224.61 130.05 221.1 132.19C216.5 134.99 208.1 136.28 193.35 128.53C169.54 116.03 187.3 114.1 192.2 113.82C192.87 113.76 193.54 113.61 194.15 113.34Z" fill="#D86C00"/>
<path d="M197.76 89.24C197.76 89.24 222.44 89.19 223.79 71.93C224.91 57.7 214.84 60.91 208.05 42.91C203.64 31.18 191.99 27.52 186.37 24.86C185.25 15.93 181.74 9.12 177.17 8.49C167.92 7.22 171.26 22.32 171.26 22.32C171.26 22.32 162.89 23.28 157.39 25.65C157.39 25.65 146.12 11.04 140.18 17.71C133.97 25.52 143.22 30.62 144.8 34.63C144.8 34.63 131.42 50.4 140.25 61.67C144.9 67.6 144.32 72.91 149.33 76.1C149.91 76.48 150.89 77.26 150.99 79.39C151.29 85.49 151 112.28 136.33 125.08C136.33 125.08 130.28 128.43 126.29 120.87C120.58 110.09 112.82 73.85 64.1798 78.01C28.7498 81.03 22.5098 123.43 12.5898 148.22C8.73984 157.79 19.5398 167.78 20.3898 179.58C21.5198 195.16 40.9198 207.61 55.3398 204.61C55.3398 204.61 58.1798 205.6 63.8498 187.05C71.1098 163.26 82.6998 178.2 83.8198 181.52C84.9198 184.84 99.3398 228.35 128.91 237.2C128.91 237.2 131.13 245.59 139.26 245.31C157.57 244.67 179.05 254.55 188.05 256.74C192.24 257.76 196.92 256.38 191.01 249.37C185.1 242.36 169.2 236.84 162.55 239.04C162.55 239.04 182.14 231.67 183.98 230.19C183.98 230.19 227.28 236.38 225.55 231.21C223.82 226.04 208.88 222.03 199.96 221.16C199.96 221.16 228.42 197.06 213.76 179L209.6 175.54C209.59 175.56 184.43 135.68 197.76 89.24Z" fill="#F98E12"/>
<path d="M222.36 75.73C218.07 74.06 195.85 66.93 165.55 84.63C165.35 84.76 165.19 84.94 165.11 85.16C164.78 86.1 164.24 88.89 167.02 93.48C170.5 99.27 184.69 114.58 184.45 135.68C184.45 135.74 184.45 135.81 184.44 135.87C184.06 137.63 178.2 165.96 180.36 187.12C182.55 208.55 180.44 210.37 162.51 237.33C162.05 238.02 162.57 238.95 163.41 238.89C167.96 238.56 185.53 232.79 192.45 221.38C203.26 203.54 213.77 197.37 209.01 171.83C208.22 167.6 206.43 165.02 206.14 164.21C203.6 156.96 186.17 127.63 197.9 97.99C200.83 90.59 198.31 89.44 198.77 89.41C202.79 89.13 217.44 88.58 223.01 76.86C223.18 76.41 222.8 75.91 222.36 75.73Z" fill="#FFF2EA"/>
<path d="M189.79 65.77C189.79 65.77 198.47 65.99 195.43 55.58C192.39 45.19 179.36 43.88 174.38 45.39C170.09 46.69 172.05 58.03 172.68 61.22C172.81 61.82 173.14 62.35 173.62 62.71C175.35 64 180.16 66.58 189.79 65.77Z" fill="#FFF2EA"/>
<path d="M187.59 63.5C187.59 63.5 194.38 63.67 192 55.53C189.62 47.39 179.42 46.38 175.53 47.56C172.49 48.49 173.46 55.91 174.05 59.13C174.26 60.23 174.93 61.19 175.91 61.72C177.78 62.76 181.42 64.04 187.59 63.5Z" fill="#013507"/>
<path d="M124.92 235.75C124.92 235.75 87.4601 203.8 105.21 177.55C116.18 161.33 116.97 154.53 120.13 149.55C120.98 148.21 119.28 146.75 118.06 147.76C113.3 151.71 106.54 158.48 99.4301 169.49C99.4301 169.49 97.1101 172.3 95.2101 166.03C93.4501 160.23 54.3001 102.08 58.2901 124.6C63.8401 155.9 38.3101 190.9 55.3401 204.62C55.3401 204.62 61.5001 204.98 63.2001 190.72C64.9301 176.21 78.6001 165.68 85.5501 186.38C92.5101 207.09 112.33 234.86 124.92 235.75Z" fill="#D86C00"/>
<path d="M180.53 57.7C182.38 57.7 183.89 56.2 183.89 54.35C183.89 52.5 182.39 51 180.53 51C178.68 51 177.17 52.5 177.17 54.35C177.17 56.2 178.68 57.7 180.53 57.7Z" fill="#FFF2EA"/>
<path d="M223.71 68.86C223.71 68.86 212.52 66.77 209.7 71.85C209.7 71.85 213.09 78.61 219.3 82.37C219.3 82.37 223.97 79.22 223.71 68.86Z" fill="#013507"/>
<path d="M147.46 17.06C147.46 17.06 137.26 16.32 148.34 31.18C148.34 31.18 154.74 26.92 157.39 25.65C157.4 25.66 151.98 18.74 147.46 17.06Z" fill="#013507"/>
<path d="M171.68 11.18C171.68 11.18 177.39 7.22001 180.54 13.77C180.54 13.77 182.57 18.97 182.32 23.67C182.32 23.67 177.23 22.18 171.27 22.3C171.27 22.33 169.49 15.38 171.68 11.18Z" fill="#013507"/>
<path d="M179.51 131.61C179.04 129.28 178.41 126.99 177.38 124.85C174.24 118.29 167.25 106.77 158.25 110.51C149.83 114.01 147.94 134.58 155.44 139.17C166.93 146.21 170.57 175.56 228.5 160.49C232.54 159.44 235.45 155.1 233.62 151.21C230.47 147.34 229.44 151.3 224.29 146.57C218.92 141.65 183.4 150.77 179.51 131.61Z" fill="#D86C00"/>
<path d="M45.9201 194.08C44.7101 186.94 45.2601 179.51 47.4801 172.62C49.2901 166.99 52.1901 161.76 53.9101 156.11C56.1001 148.89 56.3101 141.08 54.4801 133.77C53.6601 130.5 52.4301 127.25 52.5401 123.88C52.6301 120.52 54.5401 116.87 57.8201 116.1C61.3001 115.27 64.6101 117.85 67.1501 120.35C78.9701 131.97 88.1601 146.23 93.8601 161.78C94.3001 162.97 94.8401 164.31 96.0201 164.78C97.6601 165.44 99.3501 164.04 100.56 162.77C104.61 158.53 108.68 154.28 112.73 150.04C114.12 148.59 115.61 147.07 117.57 146.6C119.52 146.13 122 147.21 122.2 149.21C122.37 150.89 120.99 152.28 119.9 153.58C115.2 159.19 114.94 167.3 111.26 173.62C108.2 178.9 102.73 183.05 101.76 189.07C101.29 191.98 101.96 194.95 102.82 197.78C106.89 211.43 114.97 223.85 125.78 233.14C127.1 234.27 128.54 235.48 128.99 237.16C127.35 238.8 124.53 238.67 122.53 237.51C120.53 236.35 119.14 234.38 117.82 232.48C114.53 227.73 111.23 223 107.94 218.25C103.62 212.04 99.1901 205.52 98.1501 198.03C97.0601 190.2 99.8801 182.31 103.74 175.41C107.6 168.51 112.52 162.24 116.22 155.24C117.18 153.43 118.02 151.07 116.74 149.47C111.84 155.3 106.94 161.15 102.04 166.98C100.75 168.52 99.2301 170.17 97.2201 170.3C94.5701 170.46 92.6501 167.93 91.3301 165.63C82.8801 151.04 77.1801 134.06 64.0401 123.5C62.4801 122.26 59.9901 121.19 58.7301 122.73C58.3001 123.25 58.1801 123.92 58.0801 124.58C57.3601 130.05 59.3401 135.51 59.6701 141.03C60.0801 148.17 57.6801 155.16 55.0401 161.81C52.3901 168.46 49.4001 175.1 48.5201 182.2C47.9801 186.52 48.3301 191.11 49.9501 195.19C50.7401 197.16 57.2901 203.59 57.1001 204.89C56.7401 207.26 52.2601 206.3 50.9201 205.46C47.7001 203.36 46.5101 197.57 45.9201 194.08Z" fill="#FFF2EA"/>
<path d="M181.97 131.7C180.84 128.59 179.7 125.47 178.57 122.35C177.95 120.67 177.34 118.97 176.32 117.51C175.63 116.52 174.76 115.65 173.91 114.8C172.21 113.12 170.52 111.42 168.82 109.74C167.91 108.83 166.98 107.9 165.84 107.3C163.78 106.2 161.24 106.28 159.06 107.13C156.88 107.96 155.04 109.5 153.45 111.22C152.19 112.57 151.05 114.07 150.34 115.78C149.38 118.09 149.27 120.64 149.16 123.14C149.02 126.55 148.86 129.96 148.72 133.37C148.64 135.18 148.59 137.08 149.46 138.65C151.21 141.79 154.69 142.66 157.4 145.03C159.28 146.67 160.17 149.13 161.75 151.05C162.74 152.26 164 153.22 165.15 154.29C167.4 156.33 169.34 158.74 171.72 160.63C174.1 162.52 178.05 163.4 181.08 162.96C181.41 161.91 180.13 161.1 179.13 160.66C175.11 158.92 171.63 156.16 168.35 153.27C167.58 152.59 166.82 151.89 166.17 151.08C165.52 150.26 165.04 149.37 164.48 148.49C162.27 144.92 159.33 141.82 155.88 139.45C155.08 138.9 154.23 138.36 153.59 137.63C152.09 135.87 152.11 133.34 152.19 131.04C152.32 127.61 152.43 124.19 152.55 120.77C152.58 119.72 152.63 118.66 152.83 117.63C153.73 113.18 158.49 109.69 162.93 110.7C165.59 111.3 167.72 113.23 169.71 115.1C172.23 117.46 174.8 119.86 176.36 122.94C177.67 125.52 178.19 128.39 179.01 131.16C179.83 133.93 181.04 136.73 183.33 138.49C183.79 138.84 184.31 139.15 184.87 139.24C186.07 139.41 187.3 138.34 187.28 137.13C187.25 135.13 185.61 135.57 184.44 135.15C183.06 134.58 182.46 133.05 181.97 131.7Z" fill="#FFF2EA"/>
<path d="M144.13 17.49C142.84 18.35 142 19.86 141.95 21.4C141.89 22.89 142.52 24.34 143.32 25.61C144.12 26.87 145.13 28 145.95 29.26C146.28 29.76 146.77 30.34 147.34 30.16C147.73 30.02 147.89 29.55 147.88 29.14C147.85 28.35 147.34 27.65 146.79 27.08C146.24 26.51 145.59 26.03 145.12 25.38C144.5 24.55 144.22 23.52 143.95 22.53C143.65 21.4 143.37 20.08 144.06 19.12C144.72 18.21 145.98 17.85 147.09 17.97C150.81 18.38 148.37 17.33 147 16.68C145.96 16.18 144.98 16.9 144.13 17.49Z" fill="#F98E12"/>
<path d="M171.35 11.9C172.75 10.74 173.97 10.41 175.79 10.39C176.63 10.39 177.48 10.61 178.08 11.19C178.63 11.72 178.96 12.42 179.29 13.11C180.65 15.92 182.11 18.68 181.78 21.79C181.73 22.25 181.8 22.89 182.27 22.91C182.66 22.91 182.82 22.39 182.84 22C182.95 20.25 183 18.38 182.11 16.87C181.87 16.46 181.56 16.08 181.34 15.68C180.87 14.78 180.79 13.71 180.43 12.76C179.64 10.65 177.36 9.21999 175.12 9.42999C174 9.53999 174.28 8.76999 173.26 9.23999C172.58 9.55999 171.05 11.21 171.35 11.9Z" fill="#F98E12"/>
<path d="M207.56 72.53C207.58 71.74 207.97 71.02 208.35 70.33C208.95 69.26 209.58 68.14 210.62 67.48C211.87 66.66 213.46 66.63 214.95 66.63C217.39 66.63 219.84 66.63 222.28 66.63C223.24 66.63 224.47 66.8 224.74 67.75C224.99 68.63 224.03 69.48 223.12 69.54C222.21 69.6 221.32 69.16 220.46 68.88C217.56 67.92 214.19 68.53 211.82 70.47C210.89 71.22 210.43 73.57 209.9 73.94C208.81 74.65 207.51 74.07 207.56 72.53Z" fill="#FFF2EA"/>
<path d="M132.11 235.59C137.34 237.48 142.76 239.03 148.33 239.3C153.89 239.57 159.65 238.48 164.29 235.43C164.81 235.08 165.38 234.71 165.99 234.82C167 234.99 167.28 236.47 166.68 237.3C166.1 238.13 165.03 238.48 164.05 238.76C159.43 240.05 154.74 241.09 149.99 241.84C148.38 242.09 146.74 242.33 145.1 242.22C138.83 241.8 133.42 236.5 127.17 237.03C126.73 237.06 126.27 237.12 125.88 236.94C125.64 236.81 125.45 236.61 125.3 236.37C124.42 234.99 122.49 230.14 123.54 231.07C125.8 233.1 130.61 235.04 132.11 235.59Z" fill="#FFF2EA"/>
<path d="M196.55 221.01C199.01 220.05 201.56 219.2 203.7 217.66C206.11 215.9 207.92 213.29 210.67 212.13C210.91 212.04 211.16 211.94 211.43 211.97C211.95 212.05 212.27 212.66 212.19 213.18C212.11 213.7 211.76 214.14 211.42 214.55C209.26 217.03 206.53 219.03 203.49 220.34C200.81 221.49 197.9 222.08 195.31 223.44C192.71 224.79 190.55 226.84 188.14 228.49C186.19 229.83 183.27 231.48 180.76 231.08C177.67 230.58 179.62 227.98 181.67 227.51C182.63 227.29 183.4 227.54 184.41 227.13C185.73 226.6 186.98 225.57 188.24 224.9C190.92 223.42 193.69 222.13 196.55 221.01Z" fill="#FFF2EA"/>
<path d="M145.79 33.57C146.78 32.63 147.82 31.73 148.96 30.96C151.72 29.1 154.95 28.11 158.12 27.12C162.47 25.78 166.85 24.43 171.37 23.88C176.22 23.28 181.19 23.6 185.91 24.81C187.12 25.12 188.38 25.49 189.6 25.2C188.94 23.22 186.51 22.56 184.45 22.24C179.22 21.42 173.91 20.87 168.63 21.31C157.82 22.21 147.44 27.44 140.31 35.6C139.16 36.9 138.21 39.12 140.64 38.49C142.56 37.99 144.42 34.87 145.79 33.57Z" fill="#FFF2EA"/>
</g>
<path d="M152.97 271.807L153.017 271.843L153.065 271.878C158.98 276.157 165.482 278.379 172.514 278.379C178.271 278.379 183.75 276.605 188.924 273.289L189.036 273.216L189.144 273.137C193.065 270.235 196.341 266.738 198.972 262.662L198.979 262.65L198.987 262.639C201.068 259.364 203.092 255.204 205.065 250.245L205.095 250.168L205.123 250.089C206.686 245.622 207.713 240.766 208.195 235.507C208.433 233.47 208.563 231.457 208.563 229.456C208.563 226.083 208.358 223.033 207.943 220.339L207.94 220.321L207.937 220.303C206.293 210.254 202.438 201.308 196.341 193.546L196.339 193.543C192.859 189.122 188.731 185.701 183.94 183.346C179.217 181.025 174.329 179.838 169.313 179.838C156.83 179.838 147.291 186.765 140.743 199.217L140.67 199.357L140.608 199.501C139.612 201.821 138.8 204.166 138.136 206.548L138.096 206.692L138.067 206.838C138.063 206.855 138.06 206.867 138.058 206.873L137.897 207.196L137.794 207.555C135.929 214.114 135 220.723 135 227.386C135 238.677 137.496 249.147 142.528 258.694C145.004 263.969 148.481 268.352 152.97 271.807ZM176.691 245.02L176.631 245.117L176.576 245.216C175.435 247.281 174.489 248.769 173.738 249.757C173.363 250.249 173.085 250.552 172.905 250.72C172.887 250.738 172.871 250.752 172.857 250.765C172.488 250.912 172.194 251.023 171.966 251.102C171.816 251.021 171.585 250.876 171.267 250.618C170.474 249.975 169.451 248.88 168.205 247.185C164.833 240.911 163.184 234.448 163.184 227.718C163.184 225.187 163.405 222.691 163.822 220.227L163.831 220.172L163.839 220.118C164.394 216.184 165.431 212.505 166.922 209.109L166.925 209.104C167.647 207.451 168.284 206.536 168.731 206.085C168.827 205.987 168.901 205.924 168.953 205.884C169.011 205.896 169.089 205.916 169.19 205.948C169.458 206.034 169.832 206.19 170.321 206.459C171.277 206.985 172.492 207.844 173.981 209.121C175.254 210.502 176.63 212.561 178.047 215.425C179.456 218.273 180.338 221.027 180.722 223.695L180.73 223.747L180.738 223.798C180.993 225.286 181.134 227.121 181.134 229.335C181.134 230.209 181.056 231.143 180.898 232.134L180.888 232.162L180.761 232.528L180.706 232.91C180.368 235.285 179.589 238.176 178.288 241.583L178.024 242.272V242.465C177.643 243.365 177.199 244.213 176.691 245.02ZM172.782 250.827C172.782 250.827 172.785 250.825 172.79 250.821C172.785 250.825 172.782 250.827 172.782 250.827ZM169.045 205.825C169.045 205.826 169.039 205.829 169.026 205.834C169.039 205.827 169.045 205.824 169.045 205.825Z" fill="#013507" stroke="#FFF2EA" stroke-width="8"/>
<mask id="path-22-outside-1" maskUnits="userSpaceOnUse" x="153.066" y="101" width="195" height="182" fill="black">
<rect fill="white" x="153.066" y="101" width="195" height="182"/>
<path d="M338.196 188.492C337.2 182.796 335.781 177.764 333.954 173.412C331.659 168.229 329.018 163.772 326.029 160.009C320.594 153.028 314.857 148.117 308.804 145.262C300.003 141.59 290.824 139.746 281.253 139.746C274.746 139.746 268.436 140.985 262.307 143.464C261.718 143.751 261.145 144.083 260.556 144.4C259.243 141.786 257.899 139.202 256.51 136.679C255.136 134.156 253.944 132.04 252.917 130.318L251.951 128.55C250.185 125.558 248.434 122.551 246.667 119.559L244.509 116.069C244.071 115.253 243.452 114.316 242.682 113.228C242.591 113.092 242.486 113.001 242.38 112.88C241.972 112.185 241.353 111.551 240.523 110.961C239.602 110.16 237.292 109.239 234.681 111.037C232.054 112.85 222.332 125.528 223.6 134.11C223.615 134.231 224.068 137.163 228.205 138.024C228.597 138.114 228.959 138.145 229.291 138.145C230.318 138.145 231.012 137.797 231.435 137.45C232.628 136.483 232.673 134.941 232.658 134.851C232.658 134.805 233.05 130.665 236.96 124.394C237.051 124.576 237.126 124.742 237.217 124.923L240.236 130.559L240.931 131.844L243.165 135.939L249.656 147.845C250.23 148.903 250.758 149.946 251.317 151.004C251.181 151.124 251.045 151.23 250.924 151.351C250.789 151.487 250.653 151.638 250.517 151.789C250.411 151.88 250.305 151.971 250.185 152.076C250.094 152.167 249.988 152.258 249.913 152.363C245.158 157.335 242.938 161.309 240.553 164.875L239.436 166.9C238.259 168.864 235.511 174.379 232.839 180.453C230.363 186.12 227.193 192.935 224.43 198.722C223.525 200.58 222.015 203.889 219.947 208.589C219.539 207.712 219.207 206.987 218.935 206.428C216.777 201.88 214.512 197.483 212.172 193.237C210.919 190.97 209.832 189.051 208.896 187.51L208.021 185.923C206.421 183.219 204.805 180.529 203.205 177.824L201.409 174.953C203.537 174.923 205.817 174.953 208.308 175.074C208.957 175.165 212.459 175.588 214.527 173.714C215.222 173.095 216.037 171.931 215.961 169.997C216.007 169.257 215.856 166.461 211.236 165.298C207.206 164.285 184.863 163.983 176.485 169.816C175.383 170.571 173.828 172.868 175.881 176.117C176.968 177.824 178.477 178.353 179.836 178.353C180.817 178.353 181.708 178.081 182.266 177.779C182.312 177.764 185.271 176.51 191.264 175.663C191.37 175.92 191.475 176.177 191.626 176.449C192.456 178.232 192.894 179.184 192.94 179.275C192.97 179.381 193.528 180.499 194.585 182.629L197.333 187.706L197.967 188.855L200.005 192.542L202.843 197.679C201.56 198.117 200.322 198.888 199.205 199.643C194.585 202.771 189.95 205.899 185.331 209.027C182.855 210.447 179.61 212.548 175.549 215.343C172.997 217.247 171.518 218.32 171.095 218.546L170.371 219.136C169.042 220.088 167.804 221.085 166.657 222.143C166.038 222.581 165.238 223.336 164.257 224.409C162.626 226.283 161.902 227.9 162.098 229.26C162.188 229.849 162.324 230.453 162.536 231.073C162.838 231.964 163.049 232.523 163.155 232.72C163.26 232.916 163.653 233.264 164.317 233.762L164.468 233.883C165.479 234.503 166.596 234.881 167.789 235.002C169.752 235.213 172.68 235.153 176.56 234.79C178.809 234.609 180.334 234.503 181.134 234.503C184.546 234.337 186.765 234.261 187.807 234.246C191.007 234.382 193.679 234.578 195.808 234.82C198.721 235.138 202.043 235.697 205.741 236.528C206.164 236.649 206.602 236.754 207.055 236.83L213.153 238.28C214.754 238.704 216.097 238.719 217.169 238.356C217.682 238.175 218.135 237.918 218.513 237.555C218.966 237.147 219.313 236.709 219.524 236.225C219.811 235.742 220.188 235.107 220.641 234.276L221.789 232.07C224.174 227.054 225.774 223.79 226.604 222.294L230.092 215.449C230.892 213.817 231.737 212.215 232.613 210.629L232.628 210.614C233.262 219.529 235.073 228.066 238.108 236.21C240.402 242.285 243.195 247.573 246.486 252.076C253.672 262.502 262.367 269.302 272.542 272.445C276.905 273.714 281.298 274.364 285.752 274.364C291.564 274.364 297.21 273.064 302.69 270.48C308.155 267.897 313.801 263.439 319.628 257.138C319.779 256.836 319.975 256.579 320.201 256.352C326.934 248.178 331.946 238.9 335.237 228.549C337.834 220.677 339.253 212.714 339.479 204.69C339.464 198.707 339.042 193.297 338.196 188.492ZM213.546 224.183C213.123 225.694 212.429 227.477 210.889 227.809C210.829 227.824 210.768 227.809 210.693 227.824C208.987 227.401 207.236 227.008 205.424 226.646L203.764 226.343C199.642 225.558 195.581 225.044 191.581 224.832C189.075 224.727 187.475 224.696 186.75 224.742C184.123 224.711 181.497 224.832 178.9 225.104L177.934 225.15C178.19 225.014 178.689 224.666 179.413 224.062C180.712 223.125 182.04 222.188 183.429 221.251C187.52 218.35 192.049 215.615 196.985 213.046L197.725 212.684C199.34 211.868 200.488 211.339 201.167 211.097L202.526 210.523C203.16 210.281 203.794 210.039 204.458 209.752C205.258 209.42 206.104 209.163 206.904 208.846C207.281 208.891 207.643 209.012 208.006 209.254C208.957 209.888 209.515 210.946 210.044 211.958C211.01 213.802 211.976 215.66 212.927 217.504C213.41 218.426 213.893 219.378 214.044 220.42C214.256 221.659 213.893 222.944 213.546 224.183ZM316.397 210.221C315.854 214.044 314.827 218.29 313.302 222.944L312.729 224.636C311.808 227.416 310.238 230.861 308.019 234.986C305.95 238.658 303.731 241.786 301.361 244.325C296.228 250.021 290.869 252.877 285.284 252.877C277.252 252.877 269.825 247.286 263.017 236.105C260.646 231.979 258.805 227.582 257.506 222.928C255.906 216.401 255.091 210.024 255.091 203.799C255.091 199.598 255.363 195.775 255.891 192.315C256.419 189.61 257.038 186.906 257.733 184.216C258.956 179.864 260.496 176.117 262.322 172.959C262.428 172.808 262.534 172.672 262.624 172.521L263.983 175.271C265.16 177.582 266.323 179.94 267.455 182.312L273.282 194.551L275.29 198.752L275.924 200.067L278.732 205.824C279.97 208.166 280.619 209.374 280.679 209.48C280.74 209.571 281.313 210.583 282.385 212.487C283.11 213.998 284 214.86 285.087 215.071C286.174 215.283 287.201 215.162 288.197 214.678C289.48 214.044 290.447 213.077 291.096 211.792C291.654 210.583 291.73 209.344 291.307 208.09C290.884 206.821 290.477 205.778 290.084 204.932L288.514 201.124C287.11 197.936 285.721 194.748 284.317 191.559L283.442 189.746C282.657 187.918 281.63 185.697 280.392 183.098C278.173 178.459 275.788 173.805 273.237 169.136C273.267 169.151 273.312 169.181 273.342 169.196C272.799 167.957 271.788 165.948 270.61 163.711C274.143 161.022 277.841 159.677 281.721 159.677C287.85 159.677 293.662 161.218 299.172 164.285C304.682 167.806 309.075 173.14 312.382 180.272L312.834 181.285C314.359 184.73 315.355 188.114 315.823 191.408C316.518 194.718 316.85 198.208 316.85 201.88C316.85 204.736 316.699 207.516 316.397 210.221Z"/>
</mask>
<path d="M338.196 188.492C337.2 182.796 335.781 177.764 333.954 173.412C331.659 168.229 329.018 163.772 326.029 160.009C320.594 153.028 314.857 148.117 308.804 145.262C300.003 141.59 290.824 139.746 281.253 139.746C274.746 139.746 268.436 140.985 262.307 143.464C261.718 143.751 261.145 144.083 260.556 144.4C259.243 141.786 257.899 139.202 256.51 136.679C255.136 134.156 253.944 132.04 252.917 130.318L251.951 128.55C250.185 125.558 248.434 122.551 246.667 119.559L244.509 116.069C244.071 115.253 243.452 114.316 242.682 113.228C242.591 113.092 242.486 113.001 242.38 112.88C241.972 112.185 241.353 111.551 240.523 110.961C239.602 110.16 237.292 109.239 234.681 111.037C232.054 112.85 222.332 125.528 223.6 134.11C223.615 134.231 224.068 137.163 228.205 138.024C228.597 138.114 228.959 138.145 229.291 138.145C230.318 138.145 231.012 137.797 231.435 137.45C232.628 136.483 232.673 134.941 232.658 134.851C232.658 134.805 233.05 130.665 236.96 124.394C237.051 124.576 237.126 124.742 237.217 124.923L240.236 130.559L240.931 131.844L243.165 135.939L249.656 147.845C250.23 148.903 250.758 149.946 251.317 151.004C251.181 151.124 251.045 151.23 250.924 151.351C250.789 151.487 250.653 151.638 250.517 151.789C250.411 151.88 250.305 151.971 250.185 152.076C250.094 152.167 249.988 152.258 249.913 152.363C245.158 157.335 242.938 161.309 240.553 164.875L239.436 166.9C238.259 168.864 235.511 174.379 232.839 180.453C230.363 186.12 227.193 192.935 224.43 198.722C223.525 200.58 222.015 203.889 219.947 208.589C219.539 207.712 219.207 206.987 218.935 206.428C216.777 201.88 214.512 197.483 212.172 193.237C210.919 190.97 209.832 189.051 208.896 187.51L208.021 185.923C206.421 183.219 204.805 180.529 203.205 177.824L201.409 174.953C203.537 174.923 205.817 174.953 208.308 175.074C208.957 175.165 212.459 175.588 214.527 173.714C215.222 173.095 216.037 171.931 215.961 169.997C216.007 169.257 215.856 166.461 211.236 165.298C207.206 164.285 184.863 163.983 176.485 169.816C175.383 170.571 173.828 172.868 175.881 176.117C176.968 177.824 178.477 178.353 179.836 178.353C180.817 178.353 181.708 178.081 182.266 177.779C182.312 177.764 185.271 176.51 191.264 175.663C191.37 175.92 191.475 176.177 191.626 176.449C192.456 178.232 192.894 179.184 192.94 179.275C192.97 179.381 193.528 180.499 194.585 182.629L197.333 187.706L197.967 188.855L200.005 192.542L202.843 197.679C201.56 198.117 200.322 198.888 199.205 199.643C194.585 202.771 189.95 205.899 185.331 209.027C182.855 210.447 179.61 212.548 175.549 215.343C172.997 217.247 171.518 218.32 171.095 218.546L170.371 219.136C169.042 220.088 167.804 221.085 166.657 222.143C166.038 222.581 165.238 223.336 164.257 224.409C162.626 226.283 161.902 227.9 162.098 229.26C162.188 229.849 162.324 230.453 162.536 231.073C162.838 231.964 163.049 232.523 163.155 232.72C163.26 232.916 163.653 233.264 164.317 233.762L164.468 233.883C165.479 234.503 166.596 234.881 167.789 235.002C169.752 235.213 172.68 235.153 176.56 234.79C178.809 234.609 180.334 234.503 181.134 234.503C184.546 234.337 186.765 234.261 187.807 234.246C191.007 234.382 193.679 234.578 195.808 234.82C198.721 235.138 202.043 235.697 205.741 236.528C206.164 236.649 206.602 236.754 207.055 236.83L213.153 238.28C214.754 238.704 216.097 238.719 217.169 238.356C217.682 238.175 218.135 237.918 218.513 237.555C218.966 237.147 219.313 236.709 219.524 236.225C219.811 235.742 220.188 235.107 220.641 234.276L221.789 232.07C224.174 227.054 225.774 223.79 226.604 222.294L230.092 215.449C230.892 213.817 231.737 212.215 232.613 210.629L232.628 210.614C233.262 219.529 235.073 228.066 238.108 236.21C240.402 242.285 243.195 247.573 246.486 252.076C253.672 262.502 262.367 269.302 272.542 272.445C276.905 273.714 281.298 274.364 285.752 274.364C291.564 274.364 297.21 273.064 302.69 270.48C308.155 267.897 313.801 263.439 319.628 257.138C319.779 256.836 319.975 256.579 320.201 256.352C326.934 248.178 331.946 238.9 335.237 228.549C337.834 220.677 339.253 212.714 339.479 204.69C339.464 198.707 339.042 193.297 338.196 188.492ZM213.546 224.183C213.123 225.694 212.429 227.477 210.889 227.809C210.829 227.824 210.768 227.809 210.693 227.824C208.987 227.401 207.236 227.008 205.424 226.646L203.764 226.343C199.642 225.558 195.581 225.044 191.581 224.832C189.075 224.727 187.475 224.696 186.75 224.742C184.123 224.711 181.497 224.832 178.9 225.104L177.934 225.15C178.19 225.014 178.689 224.666 179.413 224.062C180.712 223.125 182.04 222.188 183.429 221.251C187.52 218.35 192.049 215.615 196.985 213.046L197.725 212.684C199.34 211.868 200.488 211.339 201.167 211.097L202.526 210.523C203.16 210.281 203.794 210.039 204.458 209.752C205.258 209.42 206.104 209.163 206.904 208.846C207.281 208.891 207.643 209.012 208.006 209.254C208.957 209.888 209.515 210.946 210.044 211.958C211.01 213.802 211.976 215.66 212.927 217.504C213.41 218.426 213.893 219.378 214.044 220.42C214.256 221.659 213.893 222.944 213.546 224.183ZM316.397 210.221C315.854 214.044 314.827 218.29 313.302 222.944L312.729 224.636C311.808 227.416 310.238 230.861 308.019 234.986C305.95 238.658 303.731 241.786 301.361 244.325C296.228 250.021 290.869 252.877 285.284 252.877C277.252 252.877 269.825 247.286 263.017 236.105C260.646 231.979 258.805 227.582 257.506 222.928C255.906 216.401 255.091 210.024 255.091 203.799C255.091 199.598 255.363 195.775 255.891 192.315C256.419 189.61 257.038 186.906 257.733 184.216C258.956 179.864 260.496 176.117 262.322 172.959C262.428 172.808 262.534 172.672 262.624 172.521L263.983 175.271C265.16 177.582 266.323 179.94 267.455 182.312L273.282 194.551L275.29 198.752L275.924 200.067L278.732 205.824C279.97 208.166 280.619 209.374 280.679 209.48C280.74 209.571 281.313 210.583 282.385 212.487C283.11 213.998 284 214.86 285.087 215.071C286.174 215.283 287.201 215.162 288.197 214.678C289.48 214.044 290.447 213.077 291.096 211.792C291.654 210.583 291.73 209.344 291.307 208.09C290.884 206.821 290.477 205.778 290.084 204.932L288.514 201.124C287.11 197.936 285.721 194.748 284.317 191.559L283.442 189.746C282.657 187.918 281.63 185.697 280.392 183.098C278.173 178.459 275.788 173.805 273.237 169.136C273.267 169.151 273.312 169.181 273.342 169.196C272.799 167.957 271.788 165.948 270.61 163.711C274.143 161.022 277.841 159.677 281.721 159.677C287.85 159.677 293.662 161.218 299.172 164.285C304.682 167.806 309.075 173.14 312.382 180.272L312.834 181.285C314.359 184.73 315.355 188.114 315.823 191.408C316.518 194.718 316.85 198.208 316.85 201.88C316.85 204.736 316.699 207.516 316.397 210.221Z" fill="#013507"/>
<path d="M338.196 188.492C337.2 182.796 335.781 177.764 333.954 173.412C331.659 168.229 329.018 163.772 326.029 160.009C320.594 153.028 314.857 148.117 308.804 145.262C300.003 141.59 290.824 139.746 281.253 139.746C274.746 139.746 268.436 140.985 262.307 143.464C261.718 143.751 261.145 144.083 260.556 144.4C259.243 141.786 257.899 139.202 256.51 136.679C255.136 134.156 253.944 132.04 252.917 130.318L251.951 128.55C250.185 125.558 248.434 122.551 246.667 119.559L244.509 116.069C244.071 115.253 243.452 114.316 242.682 113.228C242.591 113.092 242.486 113.001 242.38 112.88C241.972 112.185 241.353 111.551 240.523 110.961C239.602 110.16 237.292 109.239 234.681 111.037C232.054 112.85 222.332 125.528 223.6 134.11C223.615 134.231 224.068 137.163 228.205 138.024C228.597 138.114 228.959 138.145 229.291 138.145C230.318 138.145 231.012 137.797 231.435 137.45C232.628 136.483 232.673 134.941 232.658 134.851C232.658 134.805 233.05 130.665 236.96 124.394C237.051 124.576 237.126 124.742 237.217 124.923L240.236 130.559L240.931 131.844L243.165 135.939L249.656 147.845C250.23 148.903 250.758 149.946 251.317 151.004C251.181 151.124 251.045 151.23 250.924 151.351C250.789 151.487 250.653 151.638 250.517 151.789C250.411 151.88 250.305 151.971 250.185 152.076C250.094 152.167 249.988 152.258 249.913 152.363C245.158 157.335 242.938 161.309 240.553 164.875L239.436 166.9C238.259 168.864 235.511 174.379 232.839 180.453C230.363 186.12 227.193 192.935 224.43 198.722C223.525 200.58 222.015 203.889 219.947 208.589C219.539 207.712 219.207 206.987 218.935 206.428C216.777 201.88 214.512 197.483 212.172 193.237C210.919 190.97 209.832 189.051 208.896 187.51L208.021 185.923C206.421 183.219 204.805 180.529 203.205 177.824L201.409 174.953C203.537 174.923 205.817 174.953 208.308 175.074C208.957 175.165 212.459 175.588 214.527 173.714C215.222 173.095 216.037 171.931 215.961 169.997C216.007 169.257 215.856 166.461 211.236 165.298C207.206 164.285 184.863 163.983 176.485 169.816C175.383 170.571 173.828 172.868 175.881 176.117C176.968 177.824 178.477 178.353 179.836 178.353C180.817 178.353 181.708 178.081 182.266 177.779C182.312 177.764 185.271 176.51 191.264 175.663C191.37 175.92 191.475 176.177 191.626 176.449C192.456 178.232 192.894 179.184 192.94 179.275C192.97 179.381 193.528 180.499 194.585 182.629L197.333 187.706L197.967 188.855L200.005 192.542L202.843 197.679C201.56 198.117 200.322 198.888 199.205 199.643C194.585 202.771 189.95 205.899 185.331 209.027C182.855 210.447 179.61 212.548 175.549 215.343C172.997 217.247 171.518 218.32 171.095 218.546L170.371 219.136C169.042 220.088 167.804 221.085 166.657 222.143C166.038 222.581 165.238 223.336 164.257 224.409C162.626 226.283 161.902 227.9 162.098 229.26C162.188 229.849 162.324 230.453 162.536 231.073C162.838 231.964 163.049 232.523 163.155 232.72C163.26 232.916 163.653 233.264 164.317 233.762L164.468 233.883C165.479 234.503 166.596 234.881 167.789 235.002C169.752 235.213 172.68 235.153 176.56 234.79C178.809 234.609 180.334 234.503 181.134 234.503C184.546 234.337 186.765 234.261 187.807 234.246C191.007 234.382 193.679 234.578 195.808 234.82C198.721 235.138 202.043 235.697 205.741 236.528C206.164 236.649 206.602 236.754 207.055 236.83L213.153 238.28C214.754 238.704 216.097 238.719 217.169 238.356C217.682 238.175 218.135 237.918 218.513 237.555C218.966 237.147 219.313 236.709 219.524 236.225C219.811 235.742 220.188 235.107 220.641 234.276L221.789 232.07C224.174 227.054 225.774 223.79 226.604 222.294L230.092 215.449C230.892 213.817 231.737 212.215 232.613 210.629L232.628 210.614C233.262 219.529 235.073 228.066 238.108 236.21C240.402 242.285 243.195 247.573 246.486 252.076C253.672 262.502 262.367 269.302 272.542 272.445C276.905 273.714 281.298 274.364 285.752 274.364C291.564 274.364 297.21 273.064 302.69 270.48C308.155 267.897 313.801 263.439 319.628 257.138C319.779 256.836 319.975 256.579 320.201 256.352C326.934 248.178 331.946 238.9 335.237 228.549C337.834 220.677 339.253 212.714 339.479 204.69C339.464 198.707 339.042 193.297 338.196 188.492ZM213.546 224.183C213.123 225.694 212.429 227.477 210.889 227.809C210.829 227.824 210.768 227.809 210.693 227.824C208.987 227.401 207.236 227.008 205.424 226.646L203.764 226.343C199.642 225.558 195.581 225.044 191.581 224.832C189.075 224.727 187.475 224.696 186.75 224.742C184.123 224.711 181.497 224.832 178.9 225.104L177.934 225.15C178.19 225.014 178.689 224.666 179.413 224.062C180.712 223.125 182.04 222.188 183.429 221.251C187.52 218.35 192.049 215.615 196.985 213.046L197.725 212.684C199.34 211.868 200.488 211.339 201.167 211.097L202.526 210.523C203.16 210.281 203.794 210.039 204.458 209.752C205.258 209.42 206.104 209.163 206.904 208.846C207.281 208.891 207.643 209.012 208.006 209.254C208.957 209.888 209.515 210.946 210.044 211.958C211.01 213.802 211.976 215.66 212.927 217.504C213.41 218.426 213.893 219.378 214.044 220.42C214.256 221.659 213.893 222.944 213.546 224.183ZM316.397 210.221C315.854 214.044 314.827 218.29 313.302 222.944L312.729 224.636C311.808 227.416 310.238 230.861 308.019 234.986C305.95 238.658 303.731 241.786 301.361 244.325C296.228 250.021 290.869 252.877 285.284 252.877C277.252 252.877 269.825 247.286 263.017 236.105C260.646 231.979 258.805 227.582 257.506 222.928C255.906 216.401 255.091 210.024 255.091 203.799C255.091 199.598 255.363 195.775 255.891 192.315C256.419 189.61 257.038 186.906 257.733 184.216C258.956 179.864 260.496 176.117 262.322 172.959C262.428 172.808 262.534 172.672 262.624 172.521L263.983 175.271C265.16 177.582 266.323 179.94 267.455 182.312L273.282 194.551L275.29 198.752L275.924 200.067L278.732 205.824C279.97 208.166 280.619 209.374 280.679 209.48C280.74 209.571 281.313 210.583 282.385 212.487C283.11 213.998 284 214.86 285.087 215.071C286.174 215.283 287.201 215.162 288.197 214.678C289.48 214.044 290.447 213.077 291.096 211.792C291.654 210.583 291.73 209.344 291.307 208.09C290.884 206.821 290.477 205.778 290.084 204.932L288.514 201.124C287.11 197.936 285.721 194.748 284.317 191.559L283.442 189.746C282.657 187.918 281.63 185.697 280.392 183.098C278.173 178.459 275.788 173.805 273.237 169.136C273.267 169.151 273.312 169.181 273.342 169.196C272.799 167.957 271.788 165.948 270.61 163.711C274.143 161.022 277.841 159.677 281.721 159.677C287.85 159.677 293.662 161.218 299.172 164.285C304.682 167.806 309.075 173.14 312.382 180.272L312.834 181.285C314.359 184.73 315.355 188.114 315.823 191.408C316.518 194.718 316.85 198.208 316.85 201.88C316.85 204.736 316.699 207.516 316.397 210.221Z" stroke="#FFF2EA" stroke-width="16" mask="url(#path-22-outside-1)"/>
<defs>
<clipPath id="clip0">
<rect width="244.49" height="265.74" fill="white"/>
</clipPath>
</defs>
</svg>
