<svg width="532" height="285" viewBox="0 0 532 285" fill="none" xmlns="http://www.w3.org/2000/svg">
<g clip-path="url(#clip0)">
<path d="M-18.8433 160.197C-21.227 166.04 -23.0409 172.428 -27.5273 176.883C-30.842 180.165 -35.3847 182.124 -38.2259 185.807C-43.5952 192.742 -39.6625 204.628 -31.2032 206.988C-27.5675 207.991 -23.4903 207.509 -20.2158 209.387C-14.6217 212.59 -14.2365 220.832 -9.35673 225.022C-6.21059 227.703 -1.80437 228.208 2.00792 229.837C15.9569 235.785 18.5252 254.1 27.2253 266.492C36.6717 279.935 54.3849 286.259 70.6935 284.205C87.0101 282.15 101.77 272.599 112.428 260.103C117.998 253.594 122.822 246.042 130.334 241.908C137.822 237.799 146.787 237.719 155.326 237.735C218.964 237.895 282.585 238.08 346.222 238.241C356.319 238.265 367.057 238.465 375.541 243.947C381.319 247.671 385.373 253.458 389.979 258.554C405.204 275.457 428.48 285.698 451.072 282.696C473.665 279.694 494.34 262.246 498.538 239.894C500.111 231.531 499.645 222.325 504.453 215.27C506.25 212.606 508.714 210.431 510.352 207.694C515.48 199.05 511.299 187.204 516.347 178.52C518.65 174.571 522.567 171.826 525.497 168.327C531.572 161.031 532.824 150.092 528.562 141.609C524.301 133.125 514.79 127.564 505.303 128.045C501.002 128.27 496.74 129.594 492.438 129.153C486.563 128.551 481.595 124.779 476.667 121.536C462.798 112.411 446.787 106.544 430.293 104.585C421.304 103.518 412.018 103.558 403.583 100.332C383.976 92.8596 374.915 70.8928 360.781 55.4188C351.816 45.6032 340.492 38.1873 328.678 32.0474C289.319 11.5252 252.111 -2.39967 207.792 0.345185C163.473 3.08201 122.139 13.6441 81.2154 30.8355C62.0576 38.8935 30.3794 60.3387 29.5688 81.0535C28.9027 98.261 27.4901 104.505 15.0099 115.998C1.3819 128.519 -11.7806 142.869 -18.8433 160.197Z" fill="#FFF2EA"/>
<path d="M313.958 126.055C314.881 125.124 315.74 123.984 315.748 122.676C315.756 120.878 314.182 119.481 312.625 118.583C309.407 116.721 305.651 115.814 301.951 115.998C299.752 116.111 297.521 116.584 295.386 116.103C294.005 115.782 292.657 114.883 291.959 113.695C291.574 113.045 291.389 112.306 291.501 111.536C291.533 111.544 291.566 111.552 291.598 111.56C293.355 111.953 295.113 112.338 296.863 112.724C299.126 113.229 301.453 113.735 303.741 113.39C306.036 113.053 308.332 111.672 309.086 109.481C310.234 106.134 307.441 102.691 304.431 100.837C301.413 98.9834 297.697 98.3734 294.182 97.9962C293.516 97.924 292.673 97.7313 292.577 97.0652C292.537 96.712 292.729 96.375 292.914 96.07C294.11 94.0635 294.712 91.7199 294.631 89.3844C294.615 88.8708 294.567 88.333 294.8 87.8836C295.193 87.089 296.204 86.8964 297.071 86.7439C299.784 86.2704 302.489 85.4357 304.68 83.7823C309.303 80.2911 310.643 73.14 307.601 68.2041C305.836 65.3389 302.802 63.3565 301.285 60.3548C299.768 57.3451 298.331 54.1588 295.779 51.9677C293.957 50.4027 291.694 49.4556 289.471 48.5407C287.657 45.7396 286.854 42.0397 284.246 39.961C282.424 38.5163 279.599 38.5003 277.769 39.9369C275.931 41.3655 275.257 44.1104 276.228 46.2372C274.165 48.2437 270.706 47.0639 268.266 45.531C265.818 44.006 262.977 42.1521 260.289 43.1874C257.126 44.4073 256.741 49.2389 259.053 51.735C259.542 52.2727 260.144 52.7623 260.361 53.4605C260.682 54.4798 260.056 55.5232 259.542 56.4462C257.247 60.6678 256.821 65.8686 258.387 70.4112C259.871 74.7131 263.017 78.3488 264.149 82.747C265.738 88.935 263.098 95.3396 260.513 101.19C259.984 102.386 259.382 103.662 258.226 104.256C256.605 105.091 254.558 104.176 253.435 102.756C252.311 101.327 251.861 99.5131 251.276 97.7875C247.808 87.5144 238.458 79.3922 227.752 77.6907C221.965 76.7757 216.042 77.6185 210.319 78.8946C208.112 79.3922 205.865 79.97 203.979 81.206C201.981 82.5223 200.52 84.4806 199.172 86.455C192.542 96.1663 187.686 107.122 184.926 118.583C184.476 120.445 184.083 122.363 184.372 124.265C184.901 127.772 188.04 131.199 188.128 134.755C190.383 137.917 190.399 142.163 192.165 145.63C194.476 150.156 199.444 152.693 204.364 153.961C207.984 154.9 212.334 155.1 214.95 152.428C216.941 150.405 217.294 147.347 217.864 144.57C218.434 141.785 219.638 138.72 222.302 137.748C222.864 137.54 223.514 137.459 224.028 137.764C224.437 138.013 224.67 138.447 224.886 138.864C227.134 143.23 229.381 147.588 231.628 151.954C234.991 158.487 238.514 165.221 244.245 169.804C250.537 174.836 258.716 176.69 266.589 178.392C273.122 179.804 279.655 181.217 286.18 182.629C288.484 183.119 291.525 183.271 292.497 181.136C293.58 178.761 290.891 176.473 288.596 175.237C285.658 173.648 282.713 172.067 279.767 170.47C287.496 165.317 298.195 172.581 307.031 169.716C308.34 169.29 309.776 168.327 309.672 166.963C309.624 166.345 309.247 165.783 308.845 165.317C306.253 162.34 302.071 161.441 298.195 160.71C302.015 156.16 304.824 150.75 306.341 145.004C306.807 143.222 307.152 141.272 306.454 139.578C305.097 136.28 300.177 134.402 300.908 130.918C305.675 131.263 310.571 129.442 313.958 126.055ZM278.034 41.6705C278.042 41.6384 278.05 41.5983 278.066 41.5662C278.114 41.4618 278.162 41.3575 278.21 41.2612C278.21 41.2612 278.21 41.2612 278.218 41.2532C278.427 40.7957 278.724 40.4185 279.133 40.1376C279.663 39.7603 280.385 39.5918 281.333 39.7202C283.716 40.0493 285.594 43.3238 286.381 47.7782C286.084 47.6979 285.779 47.6418 285.49 47.5936C285.185 47.5455 284.872 47.4973 284.567 47.4572C284.471 47.4411 284.366 47.4251 284.27 47.417C284.166 47.401 284.069 47.3849 283.965 47.3689C281.934 47.096 279.88 46.9275 277.841 46.9917C277.657 45.844 277.392 43.4121 278.034 41.6705ZM260.24 45.0012C261.276 43.8375 262.592 43.8054 263.924 44.3351C263.932 44.3351 263.948 44.3431 263.956 44.3511C264.077 44.3913 264.197 44.4394 264.318 44.4956C264.43 44.5438 264.542 44.6 264.655 44.6642C264.855 44.7685 265.056 44.8889 265.257 45.0173C265.281 45.0333 265.289 45.0494 265.297 45.0655C265.361 45.1939 265.096 45.242 264.181 45.1457C263.555 45.0735 262.833 45.2821 262.456 45.8038C262.062 46.3496 262.223 47.1121 262.391 47.7541C262.552 48.324 262.712 48.9099 263.058 49.3834C263.33 49.7526 263.7 50.0335 264.013 50.3545C264.294 50.6434 264.55 50.9966 264.615 51.3818C264.47 51.4781 264.326 51.5825 264.181 51.7029C264.061 51.7831 263.94 51.8714 263.82 51.9597C263.218 52.4252 262.632 52.9148 262.078 53.4284C260.401 51.3256 257.311 48.6932 260.24 45.0012Z" fill="#FFF2EA"/>
<path d="M291.02 99.7297C292.465 99.1117 297.368 97.964 306.622 105.003C308.484 106.423 308.396 109.297 306.39 110.516C303.765 112.122 298.974 112.852 290.562 108.422C276.983 101.271 287.111 100.163 289.904 100.003C290.298 99.9705 290.675 99.8822 291.02 99.7297Z" fill="#D86C00"/>
<path d="M270.048 49.5277C270.056 49.5358 270.056 49.5358 270.056 49.5358C270.056 49.5438 270.056 49.5438 270.056 49.5438C273.194 48.1874 277.962 47.6416 277.962 47.6416C277.962 47.6416 277.946 47.5855 277.93 47.4892C277.922 47.457 277.914 47.4169 277.906 47.3768C277.898 47.3286 277.889 47.2725 277.873 47.2082C277.865 47.144 277.857 47.0718 277.841 46.9915C279.88 46.9273 281.935 47.0959 283.965 47.3688C284.069 47.3848 284.166 47.4009 284.27 47.4169C284.366 47.4249 284.471 47.441 284.567 47.4571C284.872 47.4972 285.185 47.5453 285.49 47.5935C285.779 47.6416 286.084 47.6978 286.381 47.7781C286.461 48.2035 286.525 48.6369 286.582 49.0863C286.638 49.1184 286.702 49.1425 286.766 49.1666C290.033 50.6915 296.485 52.8264 298.957 59.4156C302.826 69.7209 308.572 67.8829 307.93 76.0292C307.16 85.9091 293.082 85.9332 293.082 85.9332C290.434 95.2031 290.45 104.015 291.598 111.56C291.71 112.282 291.83 112.996 291.959 113.695C294.351 126.624 299.832 135.332 299.832 135.332L302.208 137.307C310.571 147.644 294.335 161.441 294.335 161.441C299.423 161.93 307.946 164.226 308.934 167.187C309.921 170.149 285.217 166.601 285.217 166.601C284.214 167.412 274.021 171.28 273.066 171.642C276.902 170.446 285.883 173.592 289.23 177.581C292.601 181.594 289.928 182.388 287.537 181.802C282.408 180.55 270.153 174.892 259.711 175.261C255.072 175.422 253.804 170.614 253.804 170.614C236.941 165.55 228.715 140.646 228.081 138.743C227.447 136.849 220.841 128.302 216.692 141.914C213.458 152.532 211.844 151.962 211.844 151.962C203.618 153.68 192.55 146.561 191.9 137.644C191.419 130.886 185.263 125.172 187.454 119.69C193.12 105.5 196.676 81.238 216.885 79.5125C244.622 77.1207 249.052 97.8596 252.311 104.032C254.582 108.366 258.033 106.447 258.033 106.447C266.404 99.1197 266.565 83.7903 266.396 80.299C266.34 79.0871 265.786 78.6376 265.449 78.4209C262.592 76.591 262.929 73.5492 260.273 70.1623C255.963 64.6325 260.947 57.2165 262.456 55.2101C262.576 55.0656 262.688 54.9211 262.801 54.7847C262.825 54.7606 262.841 54.7365 262.857 54.7125C262.865 54.7044 262.873 54.6964 262.873 54.6884C262.721 54.2871 262.432 53.8697 262.078 53.4283C262.632 52.9147 263.218 52.4251 263.82 51.9596C263.94 51.8713 264.061 51.783 264.181 51.7027C264.326 51.5824 264.47 51.478 264.615 51.3817L270.048 49.5277Z" fill="#F98E12"/>
<path d="M283.572 128.125C283.467 128.141 283.355 128.157 283.243 128.157C283.259 127.893 283.283 127.62 283.315 127.355C283.54 127.571 283.668 127.828 283.572 128.125Z" fill="#EAD3C7"/>
<path d="M288.532 72.5059C288.532 72.5059 293.484 72.6343 291.75 66.6791C290.017 60.7319 282.585 59.9855 279.744 60.8523C277.296 61.5987 278.411 68.0836 278.773 69.9135C278.845 70.2586 279.029 70.5636 279.31 70.7643C280.298 71.4946 283.042 72.9714 288.532 72.5059Z" fill="#FFF2EA"/>
<path d="M287.28 71.2057C287.28 71.2057 291.156 71.302 289.8 66.647C288.444 61.9839 282.625 61.4141 280.41 62.0883C278.676 62.618 279.23 66.8637 279.567 68.7096C279.687 69.3357 280.073 69.8894 280.626 70.1944C281.686 70.7803 283.757 71.5107 287.28 71.2057Z" fill="#013507"/>
<path d="M251.532 169.78C251.532 169.78 230.167 151.497 240.288 136.472C246.548 127.186 246.998 123.302 248.804 120.445C249.285 119.682 248.322 118.839 247.624 119.417C244.911 121.672 241.051 125.557 236.998 131.849C236.998 131.849 235.673 133.462 234.59 129.867C233.587 126.544 211.25 93.2688 213.53 106.158C216.692 124.072 202.133 144.097 211.852 151.954C211.852 151.954 215.368 152.163 216.339 144C217.326 135.694 225.119 129.666 229.084 141.52C233.041 153.383 244.349 169.282 251.532 169.78Z" fill="#D86C00"/>
<path d="M283.259 67.8829C284.318 67.8829 285.177 67.0242 285.177 65.9648C285.177 64.9053 284.318 64.0466 283.259 64.0466C282.2 64.0466 281.341 64.9053 281.341 65.9648C281.341 67.0322 282.2 67.8829 283.259 67.8829Z" fill="#FFF2EA"/>
<path d="M284.27 47.417C284.166 47.401 284.069 47.3849 283.965 47.3689C281.934 47.096 279.88 46.9275 277.841 46.9917C277.657 45.844 277.392 43.4121 278.034 41.6705C278.042 41.6384 278.05 41.5983 278.066 41.5662C278.05 41.6063 278.034 41.6384 278.018 41.6785C277.32 43.4683 277.625 45.868 277.833 46.9917C277.849 47.0719 277.865 47.1442 277.873 47.2084C277.889 47.2726 277.897 47.3287 277.905 47.3769C277.914 47.417 277.922 47.4572 277.93 47.4893C277.954 47.5856 277.97 47.6337 277.97 47.6337C281.373 47.5615 284.278 48.4122 284.278 48.4122C284.286 48.2598 284.286 48.1153 284.286 47.9628C284.286 47.7782 284.278 47.6016 284.27 47.417Z" fill="#013507"/>
<path d="M282.673 110.179C282.4 108.847 282.047 107.531 281.461 106.311C279.671 102.563 275.682 95.9656 270.546 98.1085C265.746 100.115 264.671 111.881 268.949 114.513C275.498 118.542 277.576 135.341 310.619 126.713C312.922 126.111 314.584 123.623 313.54 121.408C311.743 119.192 311.157 121.464 308.219 118.751C305.153 115.934 284.888 121.151 282.673 110.179Z" fill="#D86C00"/>
<path d="M206.475 145.943C205.785 141.858 206.098 137.604 207.366 133.663C208.402 130.445 210.055 127.443 211.034 124.217C212.286 120.083 212.398 115.613 211.355 111.431C210.89 109.561 210.183 107.699 210.247 105.773C210.304 103.847 211.387 101.76 213.257 101.319C215.248 100.845 217.134 102.314 218.578 103.751C225.32 110.396 230.561 118.558 233.812 127.459C234.06 128.141 234.365 128.912 235.039 129.177C235.97 129.554 236.934 128.751 237.632 128.029C239.943 125.597 242.263 123.173 244.574 120.741C245.369 119.915 246.22 119.04 247.335 118.767C248.451 118.494 249.863 119.12 249.976 120.26C250.072 121.223 249.285 122.018 248.659 122.764C245.979 125.974 245.826 130.621 243.731 134.233C241.99 137.259 238.868 139.634 238.314 143.078C238.041 144.739 238.434 146.44 238.916 148.062C241.235 155.871 245.85 162.982 252.014 168.295C252.769 168.945 253.587 169.635 253.844 170.598C252.913 171.537 251.3 171.465 250.16 170.799C249.021 170.133 248.226 169.009 247.472 167.918C245.594 165.197 243.715 162.492 241.837 159.771C239.373 156.216 236.845 152.484 236.251 148.198C235.633 143.72 237.239 139.201 239.446 135.252C241.645 131.304 244.454 127.716 246.565 123.711C247.11 122.676 247.592 121.327 246.862 120.412C244.069 123.751 241.268 127.098 238.475 130.437C237.736 131.32 236.877 132.267 235.722 132.339C234.213 132.427 233.113 130.982 232.359 129.666C227.543 121.319 224.285 111.6 216.789 105.556C215.898 104.842 214.477 104.232 213.763 105.115C213.522 105.412 213.45 105.797 213.394 106.174C212.976 109.305 214.116 112.427 214.301 115.589C214.533 119.674 213.169 123.679 211.66 127.483C210.151 131.287 208.442 135.084 207.936 139.153C207.631 141.625 207.832 144.257 208.755 146.585C209.204 147.708 212.944 151.392 212.832 152.139C212.623 153.495 210.071 152.949 209.308 152.46C207.487 151.248 206.804 147.933 206.475 145.943Z" fill="#FFF2EA"/>
<path d="M307.473 78.8463C304.302 85.556 295.94 85.869 293.652 86.0295C293.387 86.0456 294.824 86.7037 293.155 90.9414C286.469 107.9 296.405 124.69 297.858 128.84C298.018 129.305 299.046 130.782 299.495 133.206C302.208 147.821 296.212 151.352 290.04 161.561C286.1 168.094 276.075 171.393 273.475 171.585C273.002 171.618 272.705 171.088 272.961 170.695C283.194 155.261 284.398 154.217 283.146 141.954C282.705 137.588 282.857 132.684 283.243 128.157C283.355 128.157 283.467 128.141 283.572 128.125C283.668 127.828 283.54 127.572 283.315 127.355C283.828 121.761 284.671 116.825 285.137 114.321C285.313 113.39 285.442 112.796 285.474 112.627C285.49 112.587 285.49 112.555 285.49 112.515V112.21C285.482 100.3 277.512 91.6557 275.546 88.365C273.965 85.7406 274.27 84.1515 274.454 83.6057C274.502 83.4853 274.591 83.3729 274.711 83.3007C291.991 73.172 304.672 77.2572 307.112 78.2123C307.368 78.3086 307.585 78.5975 307.473 78.8463Z" fill="#EAD3C7"/>
<path d="M285.49 112.21V112.515C285.49 112.555 285.49 112.587 285.474 112.627C285.442 112.796 285.313 113.39 285.137 114.321C285.041 114.265 284.944 114.2 284.856 114.128C283.556 113.117 282.858 111.52 282.392 109.939C281.927 108.35 281.63 106.704 280.883 105.227C279.992 103.47 278.532 102.089 277.087 100.741C275.955 99.6655 274.743 98.566 273.226 98.2208C270.69 97.643 267.978 99.6414 267.464 102.186C267.344 102.78 267.319 103.382 267.303 103.991C267.231 105.942 267.167 107.9 267.095 109.866C267.047 111.175 267.039 112.627 267.897 113.631C268.258 114.056 268.74 114.361 269.197 114.674C271.164 116.038 272.849 117.804 274.109 119.851C274.422 120.356 274.703 120.87 275.064 121.335C275.434 121.793 275.867 122.202 276.308 122.587C278.178 124.241 280.161 125.814 282.456 126.817C282.753 126.945 283.082 127.13 283.315 127.355C283.54 127.572 283.668 127.828 283.572 128.125C283.468 128.141 283.355 128.157 283.243 128.157C281.573 128.318 279.511 127.812 278.235 126.793C276.878 125.718 275.771 124.337 274.487 123.173C273.828 122.555 273.106 122.01 272.544 121.319C271.645 120.22 271.132 118.807 270.064 117.868C268.515 116.512 266.525 116.014 265.53 114.216C265.04 113.318 265.064 112.226 265.104 111.199C265.193 109.24 265.281 107.29 265.361 105.34C265.425 103.903 265.49 102.45 266.035 101.126C266.437 100.147 267.087 99.2883 267.801 98.5178C268.716 97.5386 269.767 96.6558 271.003 96.1742C272.247 95.6927 273.692 95.6445 274.872 96.2786C275.514 96.6157 276.052 97.1534 276.573 97.6751C277.536 98.6382 278.499 99.6093 279.471 100.572C279.96 101.054 280.45 101.552 280.851 102.113C281.429 102.956 281.782 103.927 282.135 104.89C282.777 106.68 283.427 108.462 284.077 110.244C284.35 111.014 284.695 111.881 285.49 112.21Z" fill="#FFF2EA"/>
<path d="M264.318 44.4955C264.197 44.4394 264.077 44.3912 263.957 44.3511C264.013 44.3591 264.077 44.3832 264.133 44.4073C264.189 44.4313 264.253 44.4634 264.318 44.4955Z" fill="#F98E12"/>
<path d="M264.614 51.3818C264.622 51.4299 264.63 51.4861 264.63 51.5343C264.638 51.7269 264.574 51.9516 264.422 52.056C264.39 52.0881 264.358 52.1041 264.325 52.1202C264.141 52.1844 263.964 52.0961 263.82 51.9596C263.94 51.8714 264.061 51.7831 264.181 51.7028C264.325 51.5824 264.47 51.4781 264.614 51.3818Z" fill="#F98E12"/>
<path d="M265.257 45.0172C265.056 44.8888 264.855 44.7684 264.655 44.6641C264.92 44.7845 265.16 44.9209 265.257 45.0172Z" fill="#F98E12"/>
<path d="M284.567 47.449V47.457C284.47 47.441 284.366 47.4249 284.27 47.4169C284.149 45.0413 283.259 42.7458 283.259 42.7458C281.525 39.1181 278.427 41.1166 278.218 41.253C278.427 40.7956 278.724 40.4183 279.133 40.1374C279.679 39.8886 279.535 40.314 280.169 40.2498C281.445 40.1374 282.745 40.9561 283.194 42.16C283.403 42.7057 283.443 43.3237 283.716 43.8374C283.844 44.0701 284.021 44.2868 284.157 44.5196C284.663 45.3783 284.631 46.4538 284.567 47.449Z" fill="#F98E12"/>
<path d="M283.965 47.3367C284.157 45.5549 283.323 43.9818 282.552 42.3686C282.36 41.9754 282.167 41.5741 281.854 41.2691C281.517 40.94 281.027 40.8116 280.554 40.8116C279.518 40.8196 278.828 41.0123 278.034 41.6704C278.042 41.6383 278.05 41.5982 278.066 41.5661C278.114 41.4617 278.162 41.3574 278.21 41.2611C278.21 41.2611 278.21 41.2611 278.218 41.253C278.427 41.1166 281.525 39.1182 283.259 42.7459C283.259 42.7459 284.149 45.0413 284.27 47.4169C284.165 47.4009 284.069 47.3848 283.965 47.3688V47.3367Z" fill="#F98E12"/>
<path d="M279.11 40.1455C279.118 40.1375 279.126 40.1375 279.134 40.1375C278.724 40.4184 278.427 40.7956 278.219 41.2531C278.211 41.2611 278.211 41.2611 278.211 41.2611C278.163 41.3574 278.114 41.4617 278.066 41.5661C278.05 41.5982 278.042 41.6383 278.034 41.6704C278.026 41.6704 278.026 41.6704 278.018 41.6784C277.85 41.2771 278.716 40.3301 279.11 40.1455Z" fill="#F98E12"/>
<path d="M284.567 47.4571C284.559 47.6658 284.479 47.9306 284.286 47.9627C284.27 47.9708 284.262 47.9708 284.246 47.9708C283.989 47.9628 283.941 47.6257 283.965 47.3688C284.069 47.3849 284.166 47.4009 284.27 47.417C284.366 47.425 284.471 47.4411 284.567 47.4571Z" fill="#F98E12"/>
<path d="M255.634 169.691C258.619 170.775 261.709 171.658 264.88 171.818C268.05 171.979 271.332 171.353 273.989 169.603C274.286 169.402 274.607 169.186 274.96 169.25C275.538 169.346 275.699 170.197 275.353 170.67C275.024 171.144 274.406 171.345 273.853 171.505C271.22 172.244 268.539 172.837 265.835 173.271C264.92 173.415 263.981 173.552 263.05 173.488C259.47 173.247 256.388 170.213 252.817 170.518C252.568 170.534 252.303 170.574 252.078 170.462C251.942 170.39 251.838 170.269 251.749 170.141C251.244 169.346 250.152 166.577 250.746 167.107C252.038 168.271 254.775 169.378 255.634 169.691Z" fill="#FFF2EA"/>
<path d="M292.392 161.352C293.797 160.807 295.25 160.317 296.478 159.434C297.85 158.423 298.885 156.93 300.45 156.264C300.587 156.208 300.731 156.16 300.884 156.176C301.181 156.224 301.357 156.569 301.317 156.866C301.269 157.163 301.076 157.412 300.876 157.644C299.648 159.065 298.091 160.213 296.357 160.959C294.832 161.617 293.163 161.954 291.694 162.733C290.209 163.503 288.981 164.675 287.601 165.622C286.485 166.385 284.824 167.332 283.395 167.107C281.63 166.818 282.745 165.333 283.917 165.068C284.463 164.94 284.904 165.084 285.482 164.852C286.237 164.547 286.951 163.961 287.665 163.576C289.182 162.725 290.763 161.986 292.392 161.352Z" fill="#FFF2EA"/>
<path d="M288.427 49.287C287.881 49.4154 287.32 49.311 286.766 49.1666C286.621 49.1345 286.469 49.1024 286.324 49.0622C283.628 48.372 280.795 48.1874 278.026 48.5325C275.449 48.8455 272.945 49.616 270.465 50.3865C268.659 50.9483 266.814 51.5182 265.24 52.5776C264.887 52.8264 264.542 53.0912 264.213 53.3721C263.948 53.5969 263.691 53.8296 263.435 54.0704C263.258 54.2309 263.073 54.4476 262.873 54.6884C262.873 54.6964 262.865 54.7044 262.857 54.7125C262.841 54.7365 262.825 54.7606 262.801 54.7847C262.688 54.9211 262.576 55.0656 262.455 55.2101C261.854 55.9404 261.187 56.7109 260.497 56.8955C259.117 57.2567 259.654 55.9886 260.313 55.2422C260.866 54.6081 261.46 53.9981 262.078 53.4283C262.632 52.9147 263.218 52.4251 263.82 51.9596C263.94 51.8713 264.061 51.783 264.181 51.7027C264.325 51.5824 264.47 51.478 264.614 51.3817C266.115 50.3303 267.728 49.4555 269.414 48.7733H269.422C271.669 47.8503 274.037 47.2644 276.461 47.0638C276.918 47.0237 277.376 46.9996 277.833 46.9915H277.841C279.88 46.9273 281.934 47.0959 283.965 47.3688C284.069 47.3848 284.165 47.4009 284.27 47.4169C284.366 47.4249 284.47 47.441 284.567 47.4571C284.872 47.4972 285.185 47.5453 285.49 47.5935C285.779 47.6416 286.084 47.6978 286.381 47.7781C287.288 48.0108 288.146 48.4362 288.427 49.287Z" fill="#FFF2EA"/>
<path d="M307.882 74.2716C307.882 74.2716 301.501 73.0757 299.888 75.9811C299.888 75.9811 301.822 79.8496 305.362 82.0005C305.37 82.0005 308.026 80.2027 307.882 74.2716Z" fill="#013507"/>
<path d="M298.669 76.3744C298.677 75.9249 298.901 75.5076 299.118 75.1143C299.463 74.5044 299.816 73.8623 300.41 73.4851C301.124 73.0196 302.031 72.9955 302.882 72.9955C304.279 72.9955 305.667 72.9955 307.064 72.9955C307.609 72.9955 308.316 73.0918 308.468 73.6376C308.613 74.1432 308.067 74.6247 307.545 74.6649C307.023 74.697 306.518 74.4482 306.028 74.2877C304.375 73.7419 302.449 74.087 301.1 75.1946C300.571 75.628 300.306 76.9683 300.001 77.185C299.383 77.5863 298.644 77.2492 298.669 76.3744Z" fill="#FFF2EA"/>
<path d="M303.556 80.0342C304.022 80.3633 304.536 80.6682 304.865 81.1337C305.194 81.5992 305.282 82.3055 304.881 82.7148C304.447 83.1563 303.717 83.0359 303.147 82.8031C300.804 81.8481 299.142 79.4242 299.086 76.8961C299.078 76.5108 299.11 76.1015 299.335 75.7885C300.234 74.5525 300.812 76.872 301.149 77.4258C301.767 78.4451 302.585 79.3359 303.556 80.0342Z" fill="#FFF2EA"/>
<path d="M286.381 47.7781C286.084 47.6978 285.779 47.6416 285.49 47.5935C285.185 47.5453 284.872 47.4972 284.567 47.457V47.449C284.631 46.4538 284.663 45.3783 284.157 44.5196C284.021 44.2868 283.844 44.0701 283.716 43.8374C283.443 43.3237 283.403 42.7057 283.194 42.1599C282.745 40.9561 281.445 40.1374 280.169 40.2498C279.535 40.314 279.679 39.8886 279.133 40.1374C279.663 39.7602 280.385 39.5917 281.332 39.7201C283.716 40.0491 285.594 43.3237 286.381 47.7781Z" fill="#F98E12"/>
<path d="M283.965 47.3367V47.3688C281.934 47.0959 279.88 46.9274 277.841 46.9916C277.657 45.8439 277.392 43.412 278.034 41.6704C278.828 41.0123 279.519 40.8197 280.554 40.8116C281.028 40.8116 281.517 40.9401 281.854 41.2691C282.167 41.5741 282.36 41.9754 282.552 42.3687C283.323 43.9819 284.158 45.5549 283.965 47.3367Z" fill="#013507"/>
<path d="M269.422 48.7734H269.414C267.729 49.4556 266.116 50.3304 264.615 51.3818C264.55 50.9966 264.294 50.6434 264.013 50.3545C263.7 50.0335 263.331 49.7525 263.058 49.3834C262.713 48.9098 262.552 48.3239 262.392 47.7541C262.223 47.112 262.062 46.3496 262.456 45.8038C262.833 45.2821 263.555 45.0735 264.181 45.1457C265.096 45.242 265.361 45.1938 265.297 45.0654C265.401 45.1296 265.514 45.1938 265.626 45.2661C266.124 45.5951 266.621 45.9804 267.087 46.3977C267.231 46.5181 267.376 46.6546 267.512 46.783C267.592 46.8472 267.656 46.9194 267.729 46.9916C267.865 47.1281 268.002 47.2565 268.13 47.3849C268.194 47.4491 268.258 47.5133 268.323 47.5775C268.347 47.6016 268.371 47.6257 268.395 47.6498C268.66 47.9226 268.9 48.1795 269.109 48.4203C269.125 48.4363 269.141 48.4524 269.149 48.4684C269.254 48.5727 269.342 48.6771 269.422 48.7734Z" fill="#013507"/>
<path d="M264.181 45.1456C263.555 45.0734 262.833 45.282 262.455 45.8037C262.062 46.3495 262.223 47.112 262.391 47.754C262.552 48.3239 262.712 48.9098 263.057 49.3833C263.33 49.7525 263.699 50.0334 264.012 50.3544C264.293 50.6433 264.55 50.9965 264.614 51.3817C264.47 51.478 264.325 51.5824 264.181 51.7028C264.061 51.783 263.94 51.8713 263.82 51.9596C263.218 52.4251 262.632 52.9147 262.078 53.4283C260.401 51.3255 257.311 48.6931 260.24 45.0011C261.276 43.8374 262.592 43.8053 263.924 44.335C263.932 44.335 263.948 44.343 263.956 44.351C264.077 44.3912 264.197 44.4393 264.317 44.4955C264.43 44.5437 264.542 44.5999 264.655 44.6641C264.855 44.7684 265.056 44.8888 265.256 45.0172C265.281 45.0332 265.289 45.0493 265.297 45.0654C265.361 45.1938 265.096 45.2419 264.181 45.1456Z" fill="#F98E12"/>
<path d="M333.412 83.9668C335.491 83.8063 346.912 83.3809 348.734 84.4002C350.556 85.4115 351.896 87.5303 351.454 89.5689C346.872 88.4774 332.626 89.8498 328.645 92.3699C324.664 94.8901 312.922 113.735 311.951 118.35C309.696 117.403 305.434 116.528 303.749 114.746C302.216 113.133 313.195 96.118 314.214 94.7376C317.072 90.8771 321.004 87.8192 325.426 85.9412C327.963 84.8657 330.667 84.1755 333.412 83.9668Z" fill="#F98E12"/>
<path d="M441.184 270.344C432.62 270.344 424.667 268.209 417.299 263.955C411.745 260.552 407.403 256.194 404.313 250.921C397.692 240.969 394.377 230.022 394.377 218.095C394.377 211.121 395.605 204.171 398.069 197.276C398.294 196.931 398.43 196.554 398.55 196.129C399.401 193.649 400.469 191.233 401.761 188.857C410.204 176.08 421.85 169.691 436.714 169.691C442.813 169.691 448.784 170.839 454.659 173.134C460.534 175.43 465.663 178.801 470.045 183.231C477.959 191.233 482.967 200.479 485.11 210.96C485.631 213.681 485.92 216.843 485.92 220.415C485.92 222.454 485.76 224.548 485.439 226.683C484.797 232.221 483.456 237.285 481.418 241.876C478.753 247.237 476.064 251.588 473.4 254.91C470.085 259.003 465.968 262.487 461.064 265.392C454.651 268.667 448.03 270.344 441.184 270.344ZM440.542 249.003C441.064 249.003 442.259 248.698 444.073 248.12C445.895 247.518 448.455 244.838 451.762 240.078C452.83 238.706 453.744 237.277 454.491 235.728V235.464C456.409 231.451 457.637 227.927 458.183 224.861L458.343 224.476C458.664 223.023 458.825 221.611 458.825 220.262C458.825 217.622 458.6 215.327 458.183 213.368C457.541 209.885 456.12 206.354 453.945 202.83C451.746 199.307 449.483 196.546 447.139 194.588C442.436 191.345 438.736 189.732 436.071 189.732C433.182 189.732 430.598 191.827 428.302 196C425.999 200.174 424.426 204.644 423.575 209.419C422.925 212.405 422.604 215.423 422.604 218.489C422.604 226.828 425.228 234.829 430.461 242.51C434.402 246.828 437.773 249.003 440.542 249.003Z" fill="#F98E12"/>
<path d="M69.3846 270.344C60.821 270.344 52.8673 268.209 45.4996 263.955C39.9457 260.552 35.6037 256.194 32.5137 250.921C25.8923 240.969 22.5776 230.022 22.5776 218.095C22.5776 211.121 23.8056 204.171 26.2695 197.276C26.4943 196.931 26.6307 196.554 26.7511 196.129C27.6018 193.649 28.6693 191.233 29.9615 188.857C38.4047 176.08 50.0503 169.691 64.9142 169.691C71.0139 169.691 76.9851 170.839 82.8601 173.134C88.735 175.43 93.8636 178.801 98.2457 183.231C106.159 191.233 111.167 200.479 113.31 210.96C113.832 213.681 114.121 216.843 114.121 220.415C114.121 222.454 113.96 224.548 113.639 226.683C112.997 232.221 111.657 237.285 109.618 241.876C106.954 247.237 104.265 251.588 101.601 254.91C98.2859 259.003 94.1686 262.487 89.2648 265.392C82.8521 268.667 76.2066 270.344 69.3846 270.344ZM68.7425 249.003C69.2642 249.003 70.4601 248.698 72.2739 248.12C74.0878 247.518 76.6561 244.838 79.9628 240.078C81.0302 238.706 81.9451 237.277 82.6916 235.728V235.464C84.6097 231.451 85.8377 227.927 86.3835 224.861L86.544 224.476C86.865 223.023 87.0255 221.611 87.0255 220.262C87.0255 217.622 86.8008 215.327 86.3835 213.368C85.7334 209.885 84.3208 206.354 82.1458 202.83C79.9467 199.307 77.6834 196.546 75.3398 194.588C70.6367 191.345 66.9448 189.732 64.2721 189.732C61.3828 189.732 58.7985 191.827 56.495 196C54.1916 200.174 52.6185 204.644 51.7678 209.419C51.1177 212.405 50.7967 215.423 50.7967 218.489C50.7967 226.828 53.4211 234.829 58.654 242.51C62.5787 246.828 65.9495 249.003 68.7425 249.003Z" fill="#F98E12"/>
<path d="M487.871 140.774C481.876 134.827 473.978 131.255 466.129 128.173C442.444 118.823 417.5 112.611 392.186 109.778C388.221 109.337 384.152 108.927 380.573 107.186C375.669 104.762 372.162 99.7538 371.544 94.3202C361.11 80.3151 350.532 65.0659 337.161 53.8216C326.173 44.5678 313.541 37.497 300.571 31.2929C281.252 22.0632 260.835 14.6553 239.558 12.1753C212.976 9.07728 186.089 13.8045 159.949 19.5751C131.722 25.8032 103.639 33.3395 77.3707 45.3704C67.539 49.8809 57.7474 55.186 50.6365 63.3483C43.5416 71.4946 39.8176 82.9315 43.1162 93.2287C36.5992 110.428 20.8123 122.042 8.05915 135.349C-1.24285 145.052 -9.28479 156.272 -13.4984 169.041C-17.728 181.794 -17.8003 196.265 -11.8451 208.312C-9.26072 213.553 -3.46602 218.834 1.73475 216.185C5.72362 214.179 6.42187 208.954 7.39301 204.628C10.0977 192.413 18.4687 182.099 28.1319 174.138C45.4116 159.916 68.9195 151.834 90.6375 157.235C112.364 162.637 130.47 183.689 128.279 205.936C127.693 211.843 126.425 219.211 131.401 222.454C133.568 223.834 136.289 223.898 138.849 223.922C167.421 224.099 195.977 224.283 224.541 224.46C231.837 224.5 239.1 224.564 246.396 224.596C286.429 224.861 326.478 225.11 366.519 225.375C371.672 225.415 377.603 225.086 380.773 221.033C382.579 218.738 383.053 215.688 383.655 212.831C388.872 187.782 400.196 165.662 433.086 158.848C454.05 154.482 479.492 171.939 483.97 189.291C484.861 192.686 485.503 196.297 487.478 199.211C489.484 202.108 493.521 204.066 496.603 202.333C499.508 200.687 500.142 196.851 500.375 193.52C501.796 174.884 501.146 153.929 487.871 140.774ZM173.224 105.171C172.397 105.548 171.546 105.701 170.664 105.813C135.43 110.589 103.535 109.321 76.5762 105.235C73.2053 104.706 68.8793 104.144 68.0366 99.9705C67.6353 97.964 68.2613 95.8853 68.9917 94.0233C77.443 72.3694 96.8496 62.008 114.731 53.2999C125.149 48.2597 139.218 44.4715 150.551 43.396C162.341 42.2643 176.065 39.5596 176.354 57.3771C176.466 65.4752 176.691 69.8012 177.116 77.9635C177.726 89.6412 179.966 102.21 173.224 105.171ZM341.727 95.484C340.925 99.8982 331.832 102.515 327.433 103.245C292.288 109.016 253.82 110.34 207.133 107.234C205.97 107.162 204.838 107.057 203.722 106.72C194.653 103.975 196.74 90.6685 196.74 78.3808C196.74 69.7931 196.916 59.7608 196.74 51.2373C196.202 26.7262 226.917 29.7439 240.978 33.0346C255.409 36.3974 272.191 41.4377 285.618 47.6898C313.581 60.7319 325.25 67.8027 340.074 89.3041C341.302 91.1019 342.129 93.3411 341.727 95.484Z" fill="#013507"/>
<path d="M-25.369 199.973C-22.9692 201.04 -20.3046 201.241 -17.6802 201.426C-11.2835 201.827 -2.05375 201.522 1.11648 194.572C3.59648 189.13 -1.74877 184.05 -7.4632 183.287C-11.9818 182.685 -20.425 184.258 -24.462 186.048C-30.8827 188.849 -32.6163 196.771 -25.369 199.973Z" fill="#D86C00"/>
<path d="M495.841 158.222C497.318 161.224 499.172 164.386 502.302 165.598C505.368 166.81 508.963 165.759 511.628 163.784C519.437 157.941 518.955 146.794 509.669 142.708C500.464 138.639 491.804 149.924 495.841 158.222Z" fill="#F98E12"/>
<path d="M476.097 155.847C476.803 157.757 478.841 159.129 480.864 158.929C485.222 158.503 489.468 150.831 484.299 148.511C480.029 146.617 474.459 151.408 476.097 155.847Z" fill="#F98E12"/>
</g>
<defs>
<clipPath id="clip0">
<rect width="571.764" height="284.59" fill="white" transform="translate(-40.6821)"/>
</clipPath>
</defs>
</svg>
