<svg width="1440" height="800" viewBox="0 0 1440 800" fill="none" xmlns="http://www.w3.org/2000/svg">
<g clip-path="url(#clip0)">
<rect width="1440" height="800" fill="white"/>
<path d="M1950 -797C1950 -789.473 -37 1732 -37 1732H855.128L1950 -797Z" fill="url(#paint0_linear)" fill-opacity="0.5"/>
<path d="M1763 -610C1763 -603.511 299 1570 299 1570H923.086L1763 -610Z" fill="url(#paint1_linear)" fill-opacity="0.5"/>
<circle r="8.69981" transform="matrix(-0.992799 -0.119796 -0.119796 0.992799 287.973 173.963)" stroke="#45396D" stroke-width="2"/>
<circle r="13.835" transform="matrix(-0.992799 -0.119796 -0.119796 0.992799 318.22 147.153)" stroke="#45396D" stroke-width="2"/>
<circle r="5.27635" transform="matrix(-0.992799 -0.119796 -0.119796 0.992799 264.983 193.029)" stroke="#45396D" stroke-width="2"/>
<path d="M376.24 118.36C374.704 118.36 373.276 118.144 371.956 117.712C370.66 117.256 369.532 116.62 368.572 115.804C367.612 114.988 366.88 114.04 366.376 112.96C366.184 112.576 366.172 112.228 366.34 111.916C366.532 111.58 366.844 111.352 367.276 111.232C367.612 111.136 367.936 111.172 368.248 111.34C368.584 111.508 368.836 111.76 369.004 112.096C369.364 112.792 369.892 113.416 370.588 113.968C371.284 114.52 372.112 114.952 373.072 115.264C374.032 115.552 375.088 115.696 376.24 115.696C377.512 115.696 378.64 115.492 379.624 115.084C380.608 114.652 381.376 114.04 381.928 113.248C382.504 112.432 382.792 111.448 382.792 110.296C382.792 108.832 382.252 107.572 381.172 106.516C380.092 105.46 378.4 104.788 376.096 104.5C373.288 104.164 371.092 103.3 369.508 101.908C367.924 100.492 367.132 98.764 367.132 96.724C367.132 95.26 367.516 93.988 368.284 92.908C369.076 91.828 370.156 91 371.524 90.424C372.892 89.824 374.464 89.524 376.24 89.524C377.56 89.524 378.76 89.74 379.84 90.172C380.92 90.58 381.856 91.132 382.648 91.828C383.464 92.5 384.124 93.244 384.628 94.06C384.868 94.444 384.94 94.816 384.844 95.176C384.772 95.536 384.568 95.812 384.232 96.004C383.872 96.172 383.5 96.196 383.116 96.076C382.756 95.956 382.48 95.728 382.288 95.392C381.928 94.84 381.472 94.324 380.92 93.844C380.392 93.34 379.744 92.944 378.976 92.656C378.208 92.368 377.284 92.212 376.204 92.188C374.308 92.188 372.784 92.596 371.632 93.412C370.48 94.204 369.904 95.368 369.904 96.904C369.904 97.72 370.12 98.476 370.552 99.172C370.984 99.844 371.692 100.432 372.676 100.936C373.684 101.416 375.028 101.776 376.708 102.016C379.708 102.448 381.928 103.372 383.368 104.788C384.832 106.18 385.564 108.004 385.564 110.26C385.564 111.556 385.324 112.708 384.844 113.716C384.388 114.724 383.728 115.576 382.864 116.272C382.024 116.944 381.028 117.46 379.876 117.82C378.748 118.18 377.536 118.36 376.24 118.36ZM400.004 118.18C398.06 118.18 396.332 117.76 394.82 116.92C393.332 116.056 392.156 114.868 391.292 113.356C390.452 111.844 390.032 110.116 390.032 108.172C390.032 106.204 390.428 104.476 391.22 102.988C392.036 101.476 393.152 100.288 394.568 99.424C395.984 98.56 397.616 98.128 399.464 98.128C401.288 98.128 402.872 98.548 404.216 99.388C405.584 100.204 406.64 101.344 407.384 102.808C408.128 104.272 408.5 105.94 408.5 107.812C408.5 108.196 408.38 108.508 408.14 108.748C407.9 108.964 407.588 109.072 407.204 109.072H391.904V106.768H407.492L405.944 107.884C405.968 106.492 405.716 105.244 405.188 104.14C404.66 103.036 403.904 102.172 402.92 101.548C401.96 100.924 400.808 100.612 399.464 100.612C398.096 100.612 396.896 100.936 395.864 101.584C394.832 102.232 394.028 103.132 393.452 104.284C392.9 105.412 392.624 106.708 392.624 108.172C392.624 109.636 392.936 110.932 393.56 112.06C394.208 113.188 395.084 114.076 396.188 114.724C397.292 115.372 398.564 115.696 400.004 115.696C400.868 115.696 401.732 115.552 402.596 115.264C403.484 114.952 404.192 114.568 404.72 114.112C404.984 113.896 405.284 113.788 405.62 113.788C405.956 113.764 406.244 113.848 406.484 114.04C406.796 114.328 406.952 114.64 406.952 114.976C406.976 115.312 406.844 115.6 406.556 115.84C405.764 116.512 404.756 117.076 403.532 117.532C402.308 117.964 401.132 118.18 400.004 118.18ZM430.757 126.424C430.349 126.424 430.013 126.292 429.749 126.028C429.485 125.788 429.353 125.452 429.353 125.02V114.436C428.561 115.564 427.517 116.476 426.221 117.172C424.925 117.844 423.473 118.18 421.865 118.18C420.017 118.18 418.361 117.748 416.897 116.884C415.433 115.996 414.269 114.796 413.405 113.284C412.565 111.772 412.145 110.068 412.145 108.172C412.145 106.252 412.577 104.536 413.441 103.024C414.329 101.512 415.529 100.324 417.041 99.46C418.553 98.572 420.257 98.128 422.153 98.128C424.025 98.128 425.705 98.56 427.193 99.424C428.705 100.288 429.893 101.476 430.757 102.988C431.645 104.476 432.113 106.156 432.161 108.028V125.02C432.161 125.452 432.029 125.788 431.765 126.028C431.501 126.292 431.165 126.424 430.757 126.424ZM422.153 115.66C423.545 115.66 424.781 115.336 425.861 114.688C426.965 114.04 427.829 113.152 428.453 112.024C429.101 110.872 429.425 109.588 429.425 108.172C429.425 106.732 429.101 105.448 428.453 104.32C427.829 103.192 426.965 102.304 425.861 101.656C424.781 100.984 423.545 100.648 422.153 100.648C420.785 100.648 419.549 100.984 418.445 101.656C417.341 102.304 416.465 103.192 415.817 104.32C415.169 105.448 414.845 106.732 414.845 108.172C414.845 109.588 415.169 110.872 415.817 112.024C416.465 113.152 417.341 114.04 418.445 114.688C419.549 115.336 420.785 115.66 422.153 115.66ZM447.21 118.216C445.506 118.216 443.982 117.868 442.638 117.172C441.294 116.452 440.226 115.408 439.434 114.04C438.666 112.672 438.282 111.004 438.282 109.036V99.676C438.282 99.292 438.414 98.968 438.678 98.704C438.942 98.44 439.266 98.308 439.65 98.308C440.058 98.308 440.394 98.44 440.658 98.704C440.922 98.968 441.054 99.292 441.054 99.676V109.036C441.054 110.524 441.33 111.748 441.882 112.708C442.458 113.668 443.226 114.388 444.186 114.868C445.17 115.348 446.274 115.588 447.498 115.588C448.674 115.588 449.73 115.36 450.666 114.904C451.626 114.448 452.382 113.824 452.934 113.032C453.486 112.24 453.762 111.34 453.762 110.332H455.742C455.67 111.844 455.25 113.2 454.482 114.4C453.738 115.576 452.73 116.512 451.458 117.208C450.186 117.88 448.77 118.216 447.21 118.216ZM455.13 118C454.722 118 454.386 117.88 454.122 117.64C453.882 117.376 453.762 117.028 453.762 116.596V99.676C453.762 99.268 453.882 98.944 454.122 98.704C454.386 98.44 454.722 98.308 455.13 98.308C455.538 98.308 455.874 98.44 456.138 98.704C456.402 98.944 456.534 99.268 456.534 99.676V116.596C456.534 117.028 456.402 117.376 456.138 117.64C455.874 117.88 455.538 118 455.13 118ZM460.666 98.884C460.378 98.884 460.126 98.752 459.91 98.488C459.718 98.224 459.694 97.924 459.838 97.588C460.198 96.748 460.414 96.04 460.486 95.464C460.558 94.888 460.57 94.396 460.522 93.988C460.474 93.556 460.402 93.148 460.306 92.764C460.21 92.38 460.162 91.948 460.162 91.468C460.162 90.892 460.342 90.436 460.702 90.1C461.062 89.74 461.506 89.56 462.034 89.56C462.634 89.56 463.114 89.824 463.474 90.352C463.834 90.856 464.014 91.552 464.014 92.44C464.014 92.992 463.894 93.628 463.654 94.348C463.438 95.068 463.162 95.776 462.826 96.472C462.49 97.168 462.13 97.744 461.746 98.2C461.362 98.656 461.002 98.884 460.666 98.884ZM477.981 118.18C476.061 118.18 474.345 117.748 472.833 116.884C471.321 116.02 470.133 114.832 469.269 113.32C468.405 111.808 467.973 110.092 467.973 108.172C467.973 106.228 468.405 104.5 469.269 102.988C470.133 101.476 471.321 100.288 472.833 99.424C474.345 98.56 476.061 98.128 477.981 98.128C479.901 98.128 481.605 98.56 483.093 99.424C484.605 100.288 485.793 101.476 486.657 102.988C487.521 104.5 487.965 106.228 487.989 108.172C487.989 110.092 487.545 111.808 486.657 113.32C485.793 114.832 484.605 116.02 483.093 116.884C481.605 117.748 479.901 118.18 477.981 118.18ZM477.981 115.66C479.373 115.66 480.621 115.336 481.725 114.688C482.829 114.04 483.693 113.152 484.317 112.024C484.941 110.896 485.253 109.612 485.253 108.172C485.253 106.732 484.941 105.448 484.317 104.32C483.693 103.168 482.829 102.268 481.725 101.62C480.621 100.972 479.373 100.648 477.981 100.648C476.589 100.648 475.341 100.972 474.237 101.62C473.133 102.268 472.257 103.168 471.609 104.32C470.985 105.448 470.673 106.732 470.673 108.172C470.673 109.612 470.985 110.896 471.609 112.024C472.257 113.152 473.133 114.04 474.237 114.688C475.341 115.336 476.589 115.66 477.981 115.66ZM495.675 126.568C495.483 126.568 495.267 126.52 495.027 126.424C494.211 126.064 493.983 125.488 494.343 124.696L505.971 99.064C506.331 98.296 506.907 98.08 507.699 98.416C508.515 98.752 508.743 99.316 508.383 100.108L496.719 125.74C496.479 126.292 496.131 126.568 495.675 126.568ZM499.671 117.388C499.311 117.556 498.975 117.592 498.663 117.496C498.351 117.376 498.099 117.136 497.907 116.776L489.879 100.144C489.711 99.784 489.687 99.448 489.807 99.136C489.927 98.824 490.167 98.584 490.527 98.416C490.887 98.248 491.223 98.224 491.535 98.344C491.847 98.44 492.087 98.668 492.255 99.028L500.139 115.66C500.331 116.02 500.391 116.356 500.319 116.668C500.247 116.98 500.031 117.22 499.671 117.388ZM519.986 118.18C518.138 118.18 516.482 117.748 515.018 116.884C513.554 115.996 512.39 114.796 511.526 113.284C510.686 111.772 510.266 110.068 510.266 108.172C510.266 106.252 510.698 104.536 511.562 103.024C512.45 101.512 513.65 100.324 515.162 99.46C516.674 98.572 518.378 98.128 520.274 98.128C522.17 98.128 523.862 98.572 525.35 99.46C526.862 100.324 528.05 101.512 528.914 103.024C529.802 104.536 530.258 106.252 530.282 108.172L529.166 109.036C529.166 110.764 528.758 112.324 527.942 113.716C527.15 115.084 526.058 116.176 524.666 116.992C523.298 117.784 521.738 118.18 519.986 118.18ZM520.274 115.66C521.666 115.66 522.902 115.336 523.982 114.688C525.086 114.04 525.95 113.152 526.574 112.024C527.222 110.872 527.546 109.588 527.546 108.172C527.546 106.732 527.222 105.448 526.574 104.32C525.95 103.192 525.086 102.304 523.982 101.656C522.902 100.984 521.666 100.648 520.274 100.648C518.906 100.648 517.67 100.984 516.566 101.656C515.462 102.304 514.586 103.192 513.938 104.32C513.29 105.448 512.966 106.732 512.966 108.172C512.966 109.588 513.29 110.872 513.938 112.024C514.586 113.152 515.462 114.04 516.566 114.688C517.67 115.336 518.906 115.66 520.274 115.66ZM528.878 118C528.47 118 528.134 117.88 527.87 117.64C527.606 117.376 527.474 117.04 527.474 116.632V110.476L528.158 107.632L530.282 108.172V116.632C530.282 117.04 530.15 117.376 529.886 117.64C529.622 117.88 529.286 118 528.878 118ZM535.35 123.832C535.11 123.832 534.918 123.76 534.774 123.616C534.654 123.496 534.594 123.328 534.594 123.112C534.594 122.752 534.702 122.416 534.918 122.104C535.134 121.816 535.35 121.504 535.566 121.168C535.806 120.832 535.926 120.424 535.926 119.944C535.926 119.512 535.842 119.152 535.674 118.864C535.506 118.576 535.302 118.312 535.062 118.072C534.846 117.856 534.654 117.616 534.486 117.352C534.318 117.064 534.234 116.716 534.234 116.308C534.234 115.708 534.426 115.228 534.81 114.868C535.218 114.508 535.722 114.328 536.322 114.328C537.042 114.328 537.63 114.616 538.086 115.192C538.542 115.744 538.77 116.524 538.77 117.532C538.77 118.204 538.674 118.912 538.482 119.656C538.29 120.4 538.026 121.084 537.69 121.708C537.354 122.356 536.982 122.872 536.574 123.256C536.166 123.64 535.758 123.832 535.35 123.832ZM563.126 118.18C561.23 118.18 559.538 117.748 558.05 116.884C556.586 115.996 555.422 114.796 554.558 113.284C553.718 111.772 553.298 110.068 553.298 108.172C553.298 106.252 553.706 104.536 554.522 103.024C555.338 101.512 556.454 100.324 557.87 99.46C559.286 98.572 560.918 98.128 562.766 98.128C564.23 98.128 565.574 98.416 566.798 98.992C568.046 99.568 569.138 100.432 570.074 101.584C570.338 101.872 570.434 102.184 570.362 102.52C570.29 102.832 570.086 103.108 569.75 103.348C569.486 103.54 569.186 103.612 568.85 103.564C568.538 103.492 568.262 103.312 568.022 103.024C566.63 101.44 564.878 100.648 562.766 100.648C561.422 100.648 560.234 100.972 559.202 101.62C558.194 102.268 557.402 103.156 556.826 104.284C556.274 105.412 555.998 106.708 555.998 108.172C555.998 109.612 556.298 110.896 556.898 112.024C557.498 113.152 558.338 114.04 559.418 114.688C560.498 115.336 561.734 115.66 563.126 115.66C564.062 115.66 564.914 115.54 565.682 115.3C566.474 115.036 567.17 114.64 567.77 114.112C568.058 113.872 568.358 113.74 568.67 113.716C568.982 113.692 569.27 113.788 569.534 114.004C569.822 114.268 569.978 114.568 570.002 114.904C570.05 115.24 569.942 115.528 569.678 115.768C567.926 117.376 565.742 118.18 563.126 118.18ZM573.447 98.884C573.159 98.884 572.907 98.752 572.691 98.488C572.499 98.224 572.475 97.924 572.619 97.588C572.979 96.748 573.195 96.04 573.267 95.464C573.339 94.888 573.351 94.396 573.303 93.988C573.255 93.556 573.183 93.148 573.087 92.764C572.991 92.38 572.943 91.948 572.943 91.468C572.943 90.892 573.123 90.436 573.483 90.1C573.843 89.74 574.287 89.56 574.815 89.56C575.415 89.56 575.895 89.824 576.255 90.352C576.615 90.856 576.795 91.552 576.795 92.44C576.795 92.992 576.675 93.628 576.435 94.348C576.219 95.068 575.943 95.776 575.607 96.472C575.271 97.168 574.911 97.744 574.527 98.2C574.143 98.656 573.783 98.884 573.447 98.884ZM590.727 118.18C588.783 118.18 587.055 117.76 585.543 116.92C584.055 116.056 582.879 114.868 582.015 113.356C581.175 111.844 580.755 110.116 580.755 108.172C580.755 106.204 581.151 104.476 581.943 102.988C582.759 101.476 583.875 100.288 585.291 99.424C586.707 98.56 588.339 98.128 590.187 98.128C592.011 98.128 593.595 98.548 594.939 99.388C596.307 100.204 597.363 101.344 598.107 102.808C598.851 104.272 599.223 105.94 599.223 107.812C599.223 108.196 599.103 108.508 598.863 108.748C598.623 108.964 598.311 109.072 597.927 109.072H582.627V106.768H598.215L596.667 107.884C596.691 106.492 596.439 105.244 595.911 104.14C595.383 103.036 594.627 102.172 593.643 101.548C592.683 100.924 591.531 100.612 590.187 100.612C588.819 100.612 587.619 100.936 586.587 101.584C585.555 102.232 584.751 103.132 584.175 104.284C583.623 105.412 583.347 106.708 583.347 108.172C583.347 109.636 583.659 110.932 584.283 112.06C584.931 113.188 585.807 114.076 586.911 114.724C588.015 115.372 589.287 115.696 590.727 115.696C591.591 115.696 592.455 115.552 593.319 115.264C594.207 114.952 594.915 114.568 595.443 114.112C595.707 113.896 596.007 113.788 596.343 113.788C596.679 113.764 596.967 113.848 597.207 114.04C597.519 114.328 597.675 114.64 597.675 114.976C597.699 115.312 597.567 115.6 597.279 115.84C596.487 116.512 595.479 117.076 594.255 117.532C593.031 117.964 591.855 118.18 590.727 118.18ZM610.788 118.18C609.372 118.18 607.968 117.94 606.576 117.46C605.184 116.98 604.056 116.26 603.192 115.3C602.928 115.012 602.82 114.688 602.868 114.328C602.916 113.968 603.096 113.656 603.408 113.392C603.744 113.152 604.092 113.056 604.452 113.104C604.812 113.152 605.112 113.308 605.352 113.572C605.928 114.244 606.684 114.76 607.62 115.12C608.58 115.48 609.636 115.66 610.788 115.66C612.564 115.66 613.848 115.36 614.64 114.76C615.432 114.136 615.84 113.392 615.864 112.528C615.864 111.664 615.456 110.956 614.64 110.404C613.824 109.828 612.48 109.384 610.608 109.072C608.184 108.688 606.408 108.016 605.28 107.056C604.152 106.096 603.588 104.956 603.588 103.636C603.588 102.412 603.912 101.392 604.56 100.576C605.208 99.76 606.072 99.148 607.152 98.74C608.232 98.332 609.42 98.128 610.716 98.128C612.324 98.128 613.704 98.404 614.856 98.956C616.032 99.508 616.98 100.252 617.7 101.188C617.94 101.5 618.036 101.824 617.988 102.16C617.94 102.496 617.748 102.772 617.412 102.988C617.124 103.156 616.788 103.216 616.404 103.168C616.044 103.096 615.732 102.916 615.468 102.628C614.868 101.932 614.172 101.428 613.38 101.116C612.588 100.78 611.676 100.612 610.644 100.612C609.324 100.612 608.268 100.888 607.476 101.44C606.684 101.968 606.288 102.64 606.288 103.456C606.288 104.008 606.432 104.488 606.72 104.896C607.032 105.304 607.548 105.664 608.268 105.976C609.012 106.288 610.044 106.552 611.364 106.768C613.164 107.056 614.58 107.488 615.612 108.064C616.668 108.616 617.412 109.276 617.844 110.044C618.3 110.788 618.528 111.604 618.528 112.492C618.528 113.62 618.192 114.616 617.52 115.48C616.872 116.32 615.96 116.98 614.784 117.46C613.632 117.94 612.3 118.18 610.788 118.18ZM631.022 118C629.75 118 628.61 117.7 627.602 117.1C626.618 116.5 625.838 115.684 625.262 114.652C624.686 113.596 624.398 112.396 624.398 111.052V93.448C624.398 93.04 624.518 92.704 624.758 92.44C625.022 92.176 625.358 92.044 625.766 92.044C626.174 92.044 626.51 92.176 626.774 92.44C627.038 92.704 627.17 93.04 627.17 93.448V111.052C627.17 112.276 627.53 113.284 628.25 114.076C628.97 114.844 629.894 115.228 631.022 115.228H631.994C632.378 115.228 632.69 115.36 632.93 115.624C633.17 115.888 633.29 116.224 633.29 116.632C633.29 117.04 633.146 117.376 632.858 117.64C632.57 117.88 632.21 118 631.778 118H631.022ZM622.058 101.44C621.698 101.44 621.398 101.332 621.158 101.116C620.918 100.876 620.798 100.588 620.798 100.252C620.798 99.892 620.918 99.604 621.158 99.388C621.398 99.148 621.698 99.028 622.058 99.028H631.238C631.598 99.028 631.898 99.148 632.138 99.388C632.378 99.604 632.498 99.892 632.498 100.252C632.498 100.588 632.378 100.876 632.138 101.116C631.898 101.332 631.598 101.44 631.238 101.44H622.058ZM665.917 126.424C665.509 126.424 665.173 126.292 664.909 126.028C664.645 125.788 664.513 125.452 664.513 125.02V114.436C663.721 115.564 662.677 116.476 661.381 117.172C660.085 117.844 658.633 118.18 657.025 118.18C655.177 118.18 653.521 117.748 652.057 116.884C650.593 115.996 649.429 114.796 648.565 113.284C647.725 111.772 647.305 110.068 647.305 108.172C647.305 106.252 647.737 104.536 648.601 103.024C649.489 101.512 650.689 100.324 652.201 99.46C653.713 98.572 655.417 98.128 657.313 98.128C659.185 98.128 660.865 98.56 662.353 99.424C663.865 100.288 665.053 101.476 665.917 102.988C666.805 104.476 667.273 106.156 667.321 108.028V125.02C667.321 125.452 667.189 125.788 666.925 126.028C666.661 126.292 666.325 126.424 665.917 126.424ZM657.313 115.66C658.705 115.66 659.941 115.336 661.021 114.688C662.125 114.04 662.989 113.152 663.613 112.024C664.261 110.872 664.585 109.588 664.585 108.172C664.585 106.732 664.261 105.448 663.613 104.32C662.989 103.192 662.125 102.304 661.021 101.656C659.941 100.984 658.705 100.648 657.313 100.648C655.945 100.648 654.709 100.984 653.605 101.656C652.501 102.304 651.625 103.192 650.977 104.32C650.329 105.448 650.005 106.732 650.005 108.172C650.005 109.588 650.329 110.872 650.977 112.024C651.625 113.152 652.501 114.04 653.605 114.688C654.709 115.336 655.945 115.66 657.313 115.66ZM682.371 118.216C680.667 118.216 679.143 117.868 677.799 117.172C676.455 116.452 675.387 115.408 674.595 114.04C673.827 112.672 673.443 111.004 673.443 109.036V99.676C673.443 99.292 673.575 98.968 673.839 98.704C674.103 98.44 674.427 98.308 674.811 98.308C675.219 98.308 675.555 98.44 675.819 98.704C676.083 98.968 676.215 99.292 676.215 99.676V109.036C676.215 110.524 676.491 111.748 677.043 112.708C677.619 113.668 678.387 114.388 679.347 114.868C680.331 115.348 681.435 115.588 682.659 115.588C683.835 115.588 684.891 115.36 685.827 114.904C686.787 114.448 687.543 113.824 688.095 113.032C688.647 112.24 688.923 111.34 688.923 110.332H690.902C690.831 111.844 690.411 113.2 689.643 114.4C688.899 115.576 687.891 116.512 686.619 117.208C685.347 117.88 683.931 118.216 682.371 118.216ZM690.291 118C689.883 118 689.547 117.88 689.283 117.64C689.043 117.376 688.923 117.028 688.923 116.596V99.676C688.923 99.268 689.043 98.944 689.283 98.704C689.547 98.44 689.883 98.308 690.291 98.308C690.699 98.308 691.035 98.44 691.299 98.704C691.563 98.944 691.695 99.268 691.695 99.676V116.596C691.695 117.028 691.563 117.376 691.299 117.64C691.035 117.88 690.699 118 690.291 118ZM707.13 118.18C705.21 118.18 703.494 117.748 701.982 116.884C700.47 116.02 699.282 114.832 698.418 113.32C697.554 111.808 697.122 110.092 697.122 108.172C697.122 106.228 697.554 104.5 698.418 102.988C699.282 101.476 700.47 100.288 701.982 99.424C703.494 98.56 705.21 98.128 707.13 98.128C709.05 98.128 710.754 98.56 712.242 99.424C713.754 100.288 714.942 101.476 715.806 102.988C716.67 104.5 717.114 106.228 717.138 108.172C717.138 110.092 716.694 111.808 715.806 113.32C714.942 114.832 713.754 116.02 712.242 116.884C710.754 117.748 709.05 118.18 707.13 118.18ZM707.13 115.66C708.522 115.66 709.77 115.336 710.874 114.688C711.978 114.04 712.842 113.152 713.466 112.024C714.09 110.896 714.402 109.612 714.402 108.172C714.402 106.732 714.09 105.448 713.466 104.32C712.842 103.168 711.978 102.268 710.874 101.62C709.77 100.972 708.522 100.648 707.13 100.648C705.738 100.648 704.49 100.972 703.386 101.62C702.282 102.268 701.406 103.168 700.758 104.32C700.134 105.448 699.822 106.732 699.822 108.172C699.822 109.612 700.134 110.896 700.758 112.024C701.406 113.152 702.282 114.04 703.386 114.688C704.49 115.336 705.738 115.66 707.13 115.66ZM724.509 118C724.077 118 723.729 117.88 723.465 117.64C723.225 117.376 723.105 117.028 723.105 116.596V99.712C723.105 99.28 723.225 98.944 723.465 98.704C723.729 98.44 724.077 98.308 724.509 98.308C724.917 98.308 725.241 98.44 725.481 98.704C725.745 98.944 725.877 99.28 725.877 99.712V116.596C725.877 117.028 725.745 117.376 725.481 117.64C725.241 117.88 724.917 118 724.509 118ZM724.473 94.564C723.945 94.564 723.489 94.372 723.105 93.988C722.721 93.604 722.529 93.136 722.529 92.584C722.529 91.984 722.721 91.516 723.105 91.18C723.513 90.82 723.981 90.64 724.509 90.64C725.013 90.64 725.457 90.82 725.841 91.18C726.249 91.516 726.453 91.984 726.453 92.584C726.453 93.136 726.261 93.604 725.877 93.988C725.493 94.372 725.025 94.564 724.473 94.564ZM750.07 111.628C749.662 111.628 749.326 111.496 749.062 111.232C748.798 110.968 748.666 110.62 748.666 110.188C748.666 109.228 748.894 108.196 749.35 107.092C749.83 105.988 750.49 105.04 751.33 104.248C752.074 103.552 752.782 102.88 753.454 102.232C754.126 101.584 754.666 100.864 755.074 100.072C755.506 99.28 755.722 98.284 755.722 97.084C755.722 96.148 755.494 95.296 755.038 94.528C754.582 93.736 753.934 93.112 753.094 92.656C752.278 92.2 751.318 91.972 750.214 91.972C749.014 91.972 747.982 92.224 747.118 92.728C746.254 93.208 745.582 93.88 745.102 94.744C744.646 95.608 744.418 96.604 744.418 97.732C744.418 98.14 744.286 98.476 744.022 98.74C743.782 98.98 743.458 99.1 743.05 99.1C742.642 99.1 742.306 98.98 742.042 98.74C741.778 98.476 741.646 98.14 741.646 97.732C741.646 96.076 742.006 94.624 742.726 93.376C743.446 92.104 744.442 91.108 745.714 90.388C747.01 89.668 748.51 89.308 750.214 89.308C751.798 89.308 753.214 89.656 754.462 90.352C755.71 91.024 756.694 91.96 757.414 93.16C758.134 94.336 758.494 95.692 758.494 97.228C758.494 98.572 758.254 99.712 757.774 100.648C757.294 101.584 756.658 102.448 755.866 103.24C755.098 104.008 754.246 104.824 753.31 105.688C752.566 106.36 752.074 107.116 751.834 107.956C751.594 108.796 751.474 109.54 751.474 110.188C751.474 110.62 751.342 110.968 751.078 111.232C750.814 111.496 750.478 111.628 750.07 111.628ZM750.07 118C749.47 118 748.966 117.796 748.558 117.388C748.174 116.98 747.982 116.488 747.982 115.912C747.982 115.312 748.186 114.808 748.594 114.4C749.002 113.992 749.494 113.788 750.07 113.788C750.646 113.788 751.138 113.992 751.546 114.4C751.978 114.808 752.194 115.312 752.194 115.912C752.194 116.488 751.978 116.98 751.546 117.388C751.138 117.796 750.646 118 750.07 118Z" fill="#45396D"/>
<circle cx="60" cy="703" r="198" fill="#FDECE0"/>
</g>
<defs>
<linearGradient id="paint0_linear" x1="-37" y1="467.495" x2="1949.99" y2="467.495" gradientUnits="userSpaceOnUse">
<stop stop-color="white"/>
<stop offset="1" stop-color="#FDECE0"/>
</linearGradient>
<linearGradient id="paint1_linear" x1="299" y1="479.995" x2="1688.99" y2="479.995" gradientUnits="userSpaceOnUse">
<stop stop-color="white"/>
<stop offset="1" stop-color="#FDECE0"/>
</linearGradient>
<clipPath id="clip0">
<rect width="1440" height="800" fill="white"/>
</clipPath>
</defs>
</svg>

