<svg xmlns="http://www.w3.org/2000/svg" viewBox="0 0 1082.16 1082.16"><defs><style>.cls-1{fill:#f3a2be;}.cls-2{fill:#ef6c46;}.cls-3{fill:#15b06e;}.cls-4{fill:#287eca;}.cls-5{fill:#b3d4ef;}.cls-6{fill:#fff;}</style></defs><g id="LES_PLUS" data-name="LES PLUS"><path d="M349.17,603.47s145.55-28.34,199.11-28.34,198.2,28.34,198.2,28.34V404.65H349.17V603.47"/><path class="cls-1" d="M576.45,620.1a7.35,7.35,0,0,1,7.18,9.09,36.69,36.69,0,0,1-71.09,0,7.36,7.36,0,0,1,7.18-9.09Z"/><path d="M548.09,658.78a38.64,38.64,0,0,1-37.48-29.1,9.13,9.13,0,0,1,1.67-7.93,9.35,9.35,0,0,1,7.44-3.65h56.73a9.37,9.37,0,0,1,7.45,3.65,9.13,9.13,0,0,1,1.67,7.93A38.65,38.65,0,0,1,548.09,658.78ZM519.72,622.1a5.38,5.38,0,0,0-4.28,2.1,5.17,5.17,0,0,0-1,4.49,34.69,34.69,0,0,0,67.21,0,5.19,5.19,0,0,0-1-4.49,5.39,5.39,0,0,0-4.29-2.1Z"/><path d="M591.86,625.34a2.05,2.05,0,0,1-.49-.06,2,2,0,0,1-1.45-2.44,5.2,5.2,0,0,0-.95-4.49,5.41,5.41,0,0,0-4.29-2.1,2,2,0,1,1,0-4,9.37,9.37,0,0,1,7.45,3.65,9.2,9.2,0,0,1,1.67,7.93A2,2,0,0,1,591.86,625.34Z"/><circle cx="469.37" cy="520.86" r="41.6"/><circle cx="626.28" cy="520.86" r="41.6"/><path d="M547.82,716.69c-37.06,0-93.41-9.58-151.39-55.22-34.56-27.2-53.16-54.14-53.94-55.27a7.5,7.5,0,1,1,12.38-8.47h0c.18.26,18.33,26.46,51.23,52.26,30.07,23.59,79.07,51.7,141.72,51.7S659.48,673.58,689.55,650c32.89-25.8,51-52,51.22-52.26a7.5,7.5,0,0,1,12.38,8.47c-.77,1.13-19.37,28.07-53.93,55.27C667.21,686.66,615,716.69,547.82,716.69Z"/><rect class="cls-2" x="733" y="559.84" width="27.97" height="45.13" rx="6.06"/><path d="M754.91,607H739.06A8.06,8.06,0,0,1,731,598.9v-33a8.06,8.06,0,0,1,8.06-8.06h15.85A8.06,8.06,0,0,1,763,565.9v33A8.06,8.06,0,0,1,754.91,607Zm-15.85-45.12A4.06,4.06,0,0,0,735,565.9v33a4.06,4.06,0,0,0,4.06,4.06h15.85A4.06,4.06,0,0,0,759,598.9v-33a4.06,4.06,0,0,0-4.06-4.06Z"/><rect class="cls-2" x="530.08" y="698.07" width="44.19" height="22.24" rx="3.79"/><path d="M570.48,722.31H533.87a5.8,5.8,0,0,1-5.79-5.79V701.87a5.8,5.8,0,0,1,5.79-5.8h36.61a5.8,5.8,0,0,1,5.79,5.8v14.65A5.8,5.8,0,0,1,570.48,722.31Zm-36.61-22.24a1.8,1.8,0,0,0-1.79,1.8v14.65a1.79,1.79,0,0,0,1.79,1.79h36.61a1.79,1.79,0,0,0,1.79-1.79V701.87a1.8,1.8,0,0,0-1.79-1.8Z"/><rect class="cls-2" x="539.63" y="698.07" width="34.64" height="22.24" rx="3.79"/><path d="M570.48,722.31H543.42a5.8,5.8,0,0,1-5.79-5.79V701.87a5.8,5.8,0,0,1,5.79-5.8h27.06a5.8,5.8,0,0,1,5.79,5.8v14.65A5.8,5.8,0,0,1,570.48,722.31Zm-27.06-22.24a1.8,1.8,0,0,0-1.79,1.8v14.65a1.79,1.79,0,0,0,1.79,1.79h27.06a1.79,1.79,0,0,0,1.79-1.79V701.87a1.8,1.8,0,0,0-1.79-1.8Z"/><rect class="cls-2" x="335.21" y="559.84" width="27.97" height="45.13" rx="6.06"/><path d="M357.12,607H341.27a8.07,8.07,0,0,1-8.07-8.06v-33a8.07,8.07,0,0,1,8.07-8.06h15.85a8.07,8.07,0,0,1,8.06,8.06v33A8.07,8.07,0,0,1,357.12,607Zm-15.85-45.12a4.07,4.07,0,0,0-4.07,4.06v33a4.07,4.07,0,0,0,4.07,4.06h15.85a4.06,4.06,0,0,0,4.06-4.06v-33a4.06,4.06,0,0,0-4.06-4.06Z"/><path class="cls-1" d="M765.27,426.57V575.74a15.16,15.16,0,0,1-15.16,15.16h-7a15.16,15.16,0,0,1-15.16-15.16V499a15.17,15.17,0,0,0-9.28-14l-34-14.38a15.17,15.17,0,0,1-9.25-14,15.2,15.2,0,0,0-15.19-15.18l-87.58-13.37a165.8,165.8,0,0,0-49.63,0l-87.58,13.37a15.19,15.19,0,0,0-15.19,15.18,15.2,15.2,0,0,1-9.26,14L377,485a15.17,15.17,0,0,0-9.28,14v76.74a15.16,15.16,0,0,1-15.18,15.16h-7a15.2,15.2,0,0,1-15.18-15.19V426.11a128.47,128.47,0,0,1,42.46-94.6c1.37-1.25,2.77-2.45,4.2-3.63,2.13-1.73,4.25-3.46,6.44-5.12,38.8-29.94,87.25-49.46,140.35-53.94,5.17-.46,10.36-.76,15.63-.9,1.38,0,2.79-.07,4.2-.09l3.23,0h1.89l3.44,0h.44c1.2,0,2.38.05,3.55.09q7.89.24,15.6.92c54.84,4.76,104.65,25.48,144,57.15,1.17.95,2.35,1.92,3.5,2.88q2.67,2.22,5.2,4.6A128,128,0,0,1,765.27,426.57Z"/><path d="M750.11,592.9h-7a17.18,17.18,0,0,1-17.16-17.16V499a13.17,13.17,0,0,0-8.06-12.14l-34-14.38a17.21,17.21,0,0,1-10.47-15.83,13.2,13.2,0,0,0-13.19-13.18l-.3,0-87.59-13.37a163.72,163.72,0,0,0-49,0l-87.73,13.39h-.15a13.21,13.21,0,0,0-13.19,13.18,17.15,17.15,0,0,1-10.48,15.83l-34,14.38A13.17,13.17,0,0,0,369.74,499v76.75a17.19,17.19,0,0,1-17.18,17.16h-7a17.21,17.21,0,0,1-17.18-17.19V426.11A130.6,130.6,0,0,1,371.51,330c1.23-1.13,2.63-2.34,4.26-3.68,2.1-1.71,4.27-3.48,6.51-5.18,40.37-31.14,89.26-49.94,141.38-54.33,5.2-.47,10.5-.77,15.74-.91,1.33,0,2.7-.07,4.06-.09h.16c.91,0,1.61,0,2.21,0h6.94c1.19,0,2.36.05,3.52.09,5.38.17,10.67.48,15.7.93,53.91,4.68,104.07,24.59,145,57.58,1.19,1,2.38,1.93,3.54,2.91,1.89,1.58,3.62,3.11,5.28,4.67a130.32,130.32,0,0,1,41.41,94.55V575.74A17.18,17.18,0,0,1,750.11,592.9ZM660.39,439.46a17.2,17.2,0,0,1,17,17.18,13.2,13.2,0,0,0,8,12.15l34,14.38A17.15,17.15,0,0,1,729.93,499v76.75a13.18,13.18,0,0,0,13.16,13.16h7a13.18,13.18,0,0,0,13.16-13.16V426.58a126.32,126.32,0,0,0-40.15-91.65c-1.6-1.52-3.27-3-5.1-4.52-1.16-1-2.32-1.92-3.49-2.86-40.36-32.5-89.77-52.11-142.89-56.71-5-.45-10.17-.76-15.49-.92-1.16-.05-2.29-.07-3.45-.09h-9.17c-1.34,0-2.69.05-4,.09-5.17.14-10.39.44-15.51.89-51.36,4.33-99.53,22.84-139.3,53.53-2.2,1.67-4.34,3.41-6.4,5.09-1.57,1.29-2.92,2.45-4.12,3.55a126.62,126.62,0,0,0-41.81,93.14V575.71a13.2,13.2,0,0,0,13.18,13.19h7a13.19,13.19,0,0,0,13.18-13.16V499a17.15,17.15,0,0,1,10.5-15.82l34-14.38a13.17,13.17,0,0,0,8-12.15,17.21,17.21,0,0,1,17-17.18l87.44-13.34a167.09,167.09,0,0,1,50.22,0Z"/><path class="cls-2" d="M602.11,364.54H620a3.54,3.54,0,0,1,3.54,3.54v88.57A3.54,3.54,0,0,1,620,460.2H601a2.42,2.42,0,0,1-2.42-2.42V368.08a3.54,3.54,0,0,1,3.54-3.54Z" transform="translate(1107.3 -132.73) rotate(98.3)"/><path d="M653.57,433.14a5.39,5.39,0,0,1-.8-.06L565.13,420.3a5.56,5.56,0,0,1-4.69-6.29l2.74-18.78a4.41,4.41,0,0,1,5-3.74l88.75,12.95a5.55,5.55,0,0,1,4.69,6.29l-2.58,17.67A5.55,5.55,0,0,1,653.57,433.14Zm-86-37.7a.42.42,0,0,0-.41.36l-2.74,18.79a1.54,1.54,0,0,0,1.3,1.75l87.64,12.78a1.53,1.53,0,0,0,1.75-1.3l2.58-17.67a1.54,1.54,0,0,0-1.3-1.75l-88.76-12.95Z"/><path class="cls-2" d="M475.09,364h19a3.54,3.54,0,0,1,3.54,3.54V456.1a3.54,3.54,0,0,1-3.54,3.54H476.21a3.54,3.54,0,0,1-3.54-3.54V366.41a2.42,2.42,0,0,1,2.42-2.42Z" transform="translate(822.61 -127.69) rotate(81.7)"/><path d="M442.61,432.59a5.56,5.56,0,0,1-5.49-4.74l-2.57-17.67a5.55,5.55,0,0,1,4.68-6.29L528,390.94a4.43,4.43,0,0,1,5,3.74l2.74,18.78a5.57,5.57,0,0,1-4.69,6.29l-87.64,12.78A5.49,5.49,0,0,1,442.61,432.59Zm-1.53-5.32a1.54,1.54,0,0,0,1.75,1.3l87.64-12.78a1.55,1.55,0,0,0,1.31-1.75L529,395.26a.43.43,0,0,0-.48-.36l-88.75,13a1.55,1.55,0,0,0-1.31,1.75Z"/><ellipse cx="527.67" cy="300.83" rx="19.91" ry="7.94" transform="translate(-9.25 584.83) rotate(-57.56)"/><ellipse cx="568.51" cy="300.83" rx="7.94" ry="19.91" transform="translate(-72.66 351.85) rotate(-32.44)"/><path d="M572.07,270.27c-4.57,5.73-9.74,9.3-13.09,8.63-3-.6-3.76-4.36-2.51-9.55C561.73,269.51,566.92,269.81,572.07,270.27Z"/><path d="M537.19,278.9c-3.34.67-8.51-2.93-13.1-8.65,5.17-.46,10.36-.76,15.62-.9C541,274.54,540.17,278.3,537.19,278.9Z"/><polygon class="cls-3" points="274.21 703.62 283.35 665.02 271.8 624.17 226.38 616.93 196.21 631.36 165.92 641.72 165.71 666.66 182.47 701.7 197.84 727.47 246.36 723.3 274.21 703.62"/><path class="cls-3" d="M273.55,692.66c6-1.34,12.35,2.79,14.65,8.47s1.07,12.37-2.09,17.63-8,9.29-13.12,12.69a91.18,91.18,0,0,1-50.23,15.16c-7.34,0-15-1-21-5.24s-10.6-11.93-7.88-18.74"/><path d="M222.84,748.61h-.08c-9.67,0-16.72-1.79-22.17-5.6-9.15-6.39-10.87-15.43-8.6-21.13a2,2,0,0,1,3.72,1.49c-2.33,5.82,1.84,12.64,7.17,16.36,4.75,3.32,11.07,4.87,19.88,4.88h.08a89.47,89.47,0,0,0,49-14.82c6-4,10-7.83,12.52-12.06,3.13-5.22,3.86-11.14,2-15.85-2.06-5.07-7.6-8.32-12.36-7.27a2,2,0,1,1-.88-3.9c6.7-1.5,14.14,2.75,16.95,9.67,2.37,5.86,1.54,13.12-2.23,19.41-2.85,4.76-7.22,9-13.73,13.33A93.54,93.54,0,0,1,222.84,748.61Z"/><path d="M236.41,694.39a2,2,0,0,1-1.73-1,31.48,31.48,0,0,1-3.45-22.34c1.72-7.79,8.61-15.56,14.67-19.79a2,2,0,0,1,2.29,3.28c-5.25,3.67-11.57,10.67-13.06,17.38a27.46,27.46,0,0,0,3,19.46,2,2,0,0,1-1.73,3Z"/><path class="cls-3" d="M177,629.1c-5.28-11.5-10.91-23.46-20.9-31.23s-25.71-9.74-34.74-.89c-5.75,5.64-7.55,14.4-6.42,22.37s4.83,15.32,8.79,22.33A266.24,266.24,0,0,0,197,724.54"/><path d="M197,726.54a2,2,0,0,1-1.19-.39A269.4,269.4,0,0,1,122,642.66c-4-7.07-7.85-14.75-9-23-1.34-9.46,1.27-18.46,7-24.07,7.92-7.77,24.06-9.62,37.37.74,10.59,8.24,16.38,20.84,21.49,32a2,2,0,0,1-3.64,1.67c-4.91-10.7-10.49-22.83-20.31-30.48-8.89-6.92-23.7-9.29-32.11-1-4.82,4.73-7,12.45-5.84,20.65,1,7.21,4.16,13.86,8.55,21.63a265.17,265.17,0,0,0,72.76,82.24,2,2,0,0,1-1.19,3.61Z"/><path class="cls-3" d="M212.73,611.14c-4.67-1.76-9.4-3.53-14.35-4.07s-10.25.28-14.23,3.28c-4.43,3.34-6.67,9-7.14,14.5s.61,11.06,1.69,16.51c1.72,8.74,3.56,17.74,8.54,25.12s14,12.8,22.68,10.86c7.91-1.78,13.57-9.18,15.67-17s1.24-19.74-3-28.64"/><path d="M206.22,679.75c-8.55,0-16.29-5.72-20.63-12.15-5.29-7.83-7.19-17.4-8.86-25.85-1.09-5.51-2.21-11.21-1.71-17.07.57-6.75,3.46-12.56,7.93-15.93,4-3,9.57-4.32,15.65-3.66,5.23.57,10.11,2.4,14.83,4.18A2,2,0,1,1,212,613c-4.49-1.69-9.13-3.43-13.86-4-5.06-.55-9.6.48-12.81,2.89-3.55,2.68-5.87,7.45-6.35,13.07-.45,5.29.62,10.71,1.66,16,1.59,8.08,3.4,17.23,8.24,24.39,4.14,6.12,12.34,11.87,20.59,10,6.46-1.44,12-7.55,14.16-15.56s.9-19.34-2.89-27.26a2,2,0,0,1,3.61-1.73c4.22,8.83,5.52,21.18,3.15,30-2.53,9.43-9.26,16.67-17.16,18.44A19,19,0,0,1,206.22,679.75Z"/><path class="cls-3" d="M252.87,602.84c1.1-9.19,2.21-18.48,1.1-27.67s-4.67-18.4-11.56-24.58-17.47-8.67-25.73-4.5c-6.56,3.31-10.76,10.23-12.28,17.42s-.68,14.66.73,21.87c3.15,16.19,18.13,44.41,17.57,46"/><path d="M222.7,633.39a1.92,1.92,0,0,1-.66-.12,2,2,0,0,1-1.34-2c-.26-1.09-2.12-5.23-3.93-9.24-4.59-10.22-11.53-25.67-13.6-36.3-1.24-6.32-2.43-14.61-.73-22.67,1.79-8.45,6.77-15.47,13.34-18.78,8.52-4.31,20-2.34,28,4.79,6.57,5.9,10.91,15.07,12.21,25.83,1.14,9.48,0,19-1.11,28.15a2,2,0,1,1-4-.48c1.08-8.94,2.19-18.19,1.1-27.19-1.18-9.8-5-18.08-10.9-23.33-6.75-6.05-16.41-7.78-23.5-4.2-5.49,2.77-9.68,8.77-11.22,16s-.43,15.13.73,21.08c2,10.18,8.81,25.37,13.33,35.42,4.29,9.54,4.6,10.4,4.17,11.63A2,2,0,0,1,222.7,633.39Zm-1.89-2.67Zm0,0h0Z"/><path class="cls-3" d="M277.76,692.27c15.43-14.67,27.2-36,31.22-56.94,1.73-9,2.06-18.91-3.07-26.44-4-5.93-11-9.43-18-10.62s-14.33-.28-21.36,1.1c-8.56,1.69-17.16,4.17-24.3,9.18s-12.67,12.92-13,21.64a22.35,22.35,0,0,0,35.46,19"/><path d="M277.76,694.27a2,2,0,0,1-1.38-3.45A108.22,108.22,0,0,0,307,635c2.11-11,1.2-19.11-2.76-24.94-3.4-5-9.5-8.56-16.72-9.77s-14.47-.12-20.65,1.1c-7.06,1.39-16.12,3.65-23.53,8.85s-11.87,12.64-12.16,20.08a20.35,20.35,0,0,0,32.28,17.26,2,2,0,1,1,2.35,3.24,24.35,24.35,0,0,1-38.63-20.66c.34-8.67,5.52-17.34,13.86-23.19,8-5.64,17.61-8,25.06-9.51,6.15-1.21,14.21-2.43,22.08-1.11,8.29,1.39,15.35,5.57,19.36,11.46,4.6,6.76,5.71,15.9,3.39,27.94a112.37,112.37,0,0,1-31.81,58A2,2,0,0,1,277.76,694.27Z"/><polygon class="cls-3" points="826.32 696.14 817.19 657.54 828.73 616.69 874.16 609.44 904.33 623.88 934.62 634.23 934.83 659.18 918.06 694.22 902.69 719.99 854.17 715.82 826.32 696.14"/><path class="cls-3" d="M827,685.18c-6-1.34-12.35,2.78-14.65,8.47s-1.06,12.37,2.09,17.63,8,9.29,13.12,12.69a91.11,91.11,0,0,0,50.23,15.15c7.34,0,15-1,21-5.23s10.6-11.93,7.88-18.75"/><path d="M877.69,741.13h.08c9.68,0,16.72-1.79,22.17-5.6,9.15-6.39,10.87-15.44,8.6-21.13a2,2,0,0,0-3.72,1.48c2.33,5.83-1.84,12.65-7.17,16.37-4.75,3.32-11.06,4.87-19.88,4.88h-.08a89.48,89.48,0,0,1-49-14.83c-6-4-10-7.82-12.52-12-3.13-5.22-3.86-11.15-2-15.85,2.06-5.07,7.61-8.33,12.36-7.27a2,2,0,0,0,.88-3.9c-6.7-1.5-14.14,2.74-16.95,9.67-2.37,5.86-1.54,13.12,2.23,19.41,2.86,4.76,7.22,9,13.73,13.33A93.54,93.54,0,0,0,877.69,741.13Z"/><path d="M864.12,686.9a2,2,0,0,0,1.73-1,31.48,31.48,0,0,0,3.45-22.34c-1.72-7.8-8.61-15.56-14.66-19.79a2,2,0,0,0-2.3,3.28c5.25,3.66,11.57,10.67,13.06,17.38a27.47,27.47,0,0,1-3,19.46,2,2,0,0,0,.73,2.73A1.91,1.91,0,0,0,864.12,686.9Z"/><path class="cls-3" d="M923.56,621.61c5.28-11.49,10.92-23.45,20.9-31.22s25.71-9.75,34.74-.89c5.75,5.64,7.55,14.4,6.42,22.36s-4.83,15.33-8.79,22.33a266.16,266.16,0,0,1-73.31,82.87"/><path d="M903.53,719.06a2,2,0,0,0,1.18-.39,269.4,269.4,0,0,0,73.86-83.49c4-7.07,7.85-14.75,9-23,1.34-9.46-1.27-18.46-7-24.08-7.93-7.76-24.07-9.61-37.38.74-10.59,8.25-16.38,20.85-21.49,32a2,2,0,0,0,3.64,1.67c4.91-10.7,10.49-22.84,20.31-30.48,8.9-6.92,23.7-9.29,32.11-1,4.82,4.73,7,12.45,5.84,20.65-1,7.21-4.16,13.86-8.55,21.63a265.25,265.25,0,0,1-72.75,82.24,2,2,0,0,0,1.19,3.61Z"/><path class="cls-3" d="M887.8,603.66c4.67-1.76,9.4-3.53,14.35-4.07s10.25.28,14.23,3.28c4.43,3.34,6.67,9,7.14,14.5s-.61,11.06-1.68,16.51c-1.73,8.74-3.56,17.74-8.55,25.12s-14,12.8-22.68,10.85c-7.91-1.77-13.57-9.17-15.66-17s-1.24-19.73,3-28.64"/><path d="M894.32,672.26c8.54,0,16.29-5.72,20.63-12.14,5.29-7.83,7.18-17.41,8.85-25.85,1.09-5.52,2.21-11.22,1.72-17.07-.58-6.76-3.47-12.56-7.93-15.93-4-3-9.58-4.32-15.65-3.67-5.23.57-10.12,2.41-14.84,4.19a2,2,0,1,0,1.41,3.74c4.49-1.69,9.13-3.44,13.86-3.95,5.06-.55,9.61.47,12.81,2.89,3.56,2.68,5.87,7.44,6.35,13.07.45,5.29-.62,10.71-1.66,16-1.59,8.08-3.4,17.23-8.24,24.39-4.13,6.12-12.34,11.87-20.59,10-6.46-1.44-12-7.55-14.16-15.56s-.9-19.34,2.89-27.26a2,2,0,0,0-3.61-1.73c-4.22,8.83-5.52,21.18-3.15,30,2.53,9.43,9.26,16.67,17.16,18.43A18.46,18.46,0,0,0,894.32,672.26Z"/><path class="cls-3" d="M847.66,595.36c-1.1-9.19-2.21-18.48-1.1-27.67s4.67-18.4,11.56-24.58,17.47-8.67,25.73-4.5c6.56,3.31,10.76,10.23,12.28,17.41s.68,14.67-.73,21.88c-3.15,16.19-18.13,44.41-17.57,46"/><path d="M875.94,624.57c-.43-1.23-.12-2.1,4.17-11.63,4.52-10.05,11.35-25.25,13.33-35.43,1.16-6,2.29-13.72.73-21.07s-5.73-13.27-11.22-16c-7.09-3.58-16.75-1.86-23.5,4.19-5.85,5.25-9.72,13.54-10.9,23.34-1.09,9,0,18.25,1.1,27.19a2,2,0,0,1-4,.48c-1.11-9.18-2.25-18.67-1.1-28.15,1.29-10.76,5.63-19.94,12.2-25.83,7.94-7.13,19.45-9.1,28-4.79,6.56,3.31,11.54,10.33,13.33,18.78,1.7,8.06.51,16.35-.72,22.67-2.07,10.63-9,26.08-13.61,36.3-1.8,4-3.66,8.14-3.93,9.24a2,2,0,0,1-1.34,2,1.91,1.91,0,0,1-.66.11A2,2,0,0,1,875.94,624.57Zm3.78-1.33Zm0,0Z"/><path class="cls-3" d="M822.77,684.79c-15.43-14.67-27.2-36-31.22-56.95-1.72-8.94-2.06-18.9,3.07-26.43,4-5.93,11-9.44,18-10.62s14.33-.28,21.37,1.1c8.55,1.69,17.15,4.17,24.29,9.18s12.67,12.92,13,21.64a22.35,22.35,0,0,1-35.46,19"/><path d="M822.77,686.79a2,2,0,0,0,1.38-3.45,108.26,108.26,0,0,1-30.64-55.87c-2.11-11-1.2-19.11,2.76-24.94,3.41-5,9.5-8.56,16.72-9.77s14.47-.12,20.65,1.09c7.06,1.4,16.12,3.66,23.53,8.86s11.87,12.64,12.16,20.07a20.35,20.35,0,0,1-32.28,17.27,2,2,0,0,0-2.35,3.23,24.35,24.35,0,0,0,38.63-20.65c-.34-8.67-5.52-17.34-13.86-23.2-8-5.63-17.61-8-25.06-9.5-6.14-1.21-14.21-2.43-22.08-1.11C804,590.21,797,594.38,793,600.28c-4.6,6.76-5.7,15.89-3.39,27.94a112.32,112.32,0,0,0,31.82,58A2,2,0,0,0,822.77,686.79Z"/><path class="cls-4" d="M580.17,515.21a8.82,8.82,0,0,1-8.83-8.82,23.52,23.52,0,0,0-47,0,8.83,8.83,0,0,1-17.65,0,41.17,41.17,0,1,1,82.34,0A8.82,8.82,0,0,1,580.17,515.21Z"/><path d="M580.17,517.21a10.84,10.84,0,0,1-10.83-10.82,21.52,21.52,0,0,0-43,0,10.83,10.83,0,0,1-21.65,0,43.17,43.17,0,1,1,86.34,0A10.83,10.83,0,0,1,580.17,517.21Zm-32.35-36.34a25.55,25.55,0,0,1,25.52,25.52,6.83,6.83,0,0,0,13.65,0,39.17,39.17,0,1,0-78.34,0,6.83,6.83,0,0,0,13.65,0A25.55,25.55,0,0,1,547.82,480.87Z"/><path class="cls-5" d="M538.69,511.39a97.35,97.35,0,1,1-161-73.61H505.05a97.37,97.37,0,0,1,33.64,73.61Z"/><path d="M441.36,610.73a99.32,99.32,0,0,1-65-174.46l.56-.49H505.79l.57.49a99.34,99.34,0,0,1-65,174.46Zm-62.94-171a95.35,95.35,0,1,0,125.88,0Z"/><path class="cls-5" d="M750.37,511.39a97.35,97.35,0,1,1-161-73.61H716.72a97.32,97.32,0,0,1,33.65,73.61Z"/><path d="M653,610.73a99.32,99.32,0,0,1-65-174.46l.57-.49H717.47l.56.49a99.34,99.34,0,0,1-65,174.46Zm-62.94-171a95.34,95.34,0,1,0,125.87,0Z"/><path d="M522.12,513.25a82,82,0,1,1-135.71-62H493.77A82.47,82.47,0,0,1,511,472.07,81.44,81.44,0,0,1,522.12,513.25Z"/><path d="M736.77,513.25a82,82,0,1,1-135.71-62H708.42a82.47,82.47,0,0,1,17.27,20.86A81.44,81.44,0,0,1,736.77,513.25Z"/><rect class="cls-6" x="433.65" y="465.02" width="12.88" height="116.48" rx="5.11" transform="translate(-241.1 464.45) rotate(-45)"/><path d="M476.71,568.87a7,7,0,0,1-5-2.08l-75.14-75.14a7.12,7.12,0,0,1,0-10l1.88-1.88a7.11,7.11,0,0,1,10.05,0l75.14,75.14a7.11,7.11,0,0,1,0,10h0l-1.88,1.88A7.06,7.06,0,0,1,476.71,568.87Zm-73.25-87.23a3.05,3.05,0,0,0-2.2.91l-1.88,1.88a3.11,3.11,0,0,0,0,4.39L474.52,564a3.18,3.18,0,0,0,4.39,0l1.88-1.88a3.1,3.1,0,0,0,0-4.39l-75.14-75.14A3,3,0,0,0,403.46,481.64Zm78.75,81.86h0Z"/><rect class="cls-6" x="449.95" y="478.08" width="12.88" height="57.75" rx="5.11" transform="translate(-224.8 471.2) rotate(-45)"/><path d="M472.25,531.8a7,7,0,0,1-5-2.08l-33.61-33.61a7.11,7.11,0,0,1,0-10.05l1.88-1.88a7.12,7.12,0,0,1,10.05,0l33.61,33.61a7.11,7.11,0,0,1,0,10.05l-1.88,1.88A7.09,7.09,0,0,1,472.25,531.8Zm-31.73-45.7a3.07,3.07,0,0,0-2.19.91l-1.88,1.88a3.11,3.11,0,0,0,0,4.4l33.61,33.61a3.11,3.11,0,0,0,4.39,0l1.88-1.89h0a3.1,3.1,0,0,0,0-4.39L442.72,487A3.07,3.07,0,0,0,440.52,486.1Z"/><rect class="cls-6" x="648.3" y="465.02" width="12.88" height="116.48" rx="5.11" transform="translate(-178.23 616.22) rotate(-45)"/><path d="M691.36,568.87a7,7,0,0,1-5-2.08L611.2,491.65a7.12,7.12,0,0,1,0-10l1.88-1.88a7.11,7.11,0,0,1,10,0l75.14,75.14a7.11,7.11,0,0,1,0,10l-1.88,1.88A7.07,7.07,0,0,1,691.36,568.87ZM618.1,481.64a3,3,0,0,0-2.19.91L614,484.43a3.09,3.09,0,0,0,0,4.39L689.17,564a3.18,3.18,0,0,0,4.39,0l1.88-1.88a3.1,3.1,0,0,0,0-4.39L620.3,482.55A3.05,3.05,0,0,0,618.1,481.64Z"/><rect class="cls-6" x="664.6" y="478.08" width="12.88" height="57.75" rx="5.11" transform="translate(-161.93 622.98) rotate(-45)"/><path d="M686.9,531.8a7.12,7.12,0,0,1-5-2.07l-33.6-33.62a7.11,7.11,0,0,1,0-10.05l1.88-1.88a7.12,7.12,0,0,1,10.05,0l33.61,33.61a7.13,7.13,0,0,1,0,10.05l-1.88,1.88A7.09,7.09,0,0,1,686.9,531.8Zm-31.73-45.7A3.07,3.07,0,0,0,653,487l-1.89,1.88a3.14,3.14,0,0,0,0,4.4L684.7,526.9a3.12,3.12,0,0,0,4.4,0L691,525h0a3.13,3.13,0,0,0,0-4.39L657.37,487A3.09,3.09,0,0,0,655.17,486.1Z"/><rect class="cls-4" x="330.67" y="432.98" width="197.6" height="18.23" rx="9.12"/><path d="M519.15,453.21H339.78a11.12,11.12,0,0,1,0-22.23H519.15a11.12,11.12,0,1,1,0,22.23ZM339.78,435a7.12,7.12,0,0,0,0,14.23H519.15a7.12,7.12,0,1,0,0-14.23Z"/><rect class="cls-4" x="567.38" y="432.98" width="197.6" height="18.23" rx="9.12"/><path d="M755.86,453.21H576.5a11.12,11.12,0,1,1,0-22.23H755.86a11.12,11.12,0,1,1,0,22.23ZM576.5,435a7.12,7.12,0,1,0,0,14.23H755.86a7.12,7.12,0,1,0,0-14.23Z"/></g></svg>
