<svg xmlns="http://www.w3.org/2000/svg" viewBox="0 0 1082.16 1082.16"><defs><style>.cls-1{fill:#f3a2be;}.cls-1,.cls-2,.cls-3,.cls-4{stroke:#000;stroke-width:4px;}.cls-1,.cls-3{stroke-miterlimit:10;}.cls-2{fill:#fff;}.cls-2,.cls-4{stroke-linecap:round;stroke-linejoin:round;}.cls-3{fill:#ef6c46;}.cls-4{fill:#15b06e;}</style></defs><g id="CASQUE_01" data-name="CASQUE 01"><path d="M349.17,603.47s145.55-28.34,199.11-28.34,198.2,28.34,198.2,28.34V404.65H349.17V603.47"/></g><g id="BOUCHE"><path class="cls-1" d="M576.45,604.11a7.35,7.35,0,0,1,7.18,9.08,36.69,36.69,0,0,1-71.09,0,7.36,7.36,0,0,1,7.18-9.08Z"/></g><g id="YEUX"><circle class="cls-2" cx="459.69" cy="519.18" r="88.4"/><circle class="cls-2" cx="636.49" cy="519.18" r="88.4"/><circle cx="469.37" cy="520.86" r="41.6"/><circle cx="626.28" cy="520.86" r="41.6"/></g><g id="CASQUE_02" data-name="CASQUE 02"><path d="M547.82,716.69c-37.06,0-93.41-9.58-151.39-55.22-34.56-27.2-53.16-54.14-53.94-55.27a7.5,7.5,0,1,1,12.38-8.47h0c.18.26,18.33,26.46,51.23,52.26,30.07,23.59,79.07,51.7,141.72,51.7S659.48,673.58,689.55,650c32.89-25.8,51-52,51.22-52.26a7.5,7.5,0,0,1,12.38,8.47c-.77,1.13-19.37,28.07-53.93,55.27C667.21,686.66,615,716.69,547.82,716.69Z"/><rect class="cls-3" x="733" y="559.84" width="27.97" height="45.13" rx="6.06"/><rect class="cls-3" x="530.08" y="698.07" width="44.19" height="22.24" rx="3.79"/><rect class="cls-3" x="539.63" y="698.07" width="34.64" height="22.24" rx="3.79"/><rect class="cls-3" x="335.21" y="559.84" width="27.97" height="45.13" rx="6.06"/><path class="cls-1" d="M765.27,426.57V575.74a15.16,15.16,0,0,1-15.16,15.16h-7a15.16,15.16,0,0,1-15.16-15.16V499a15.17,15.17,0,0,0-9.28-14l-34-14.38a15.17,15.17,0,0,1-9.25-14,15.2,15.2,0,0,0-15.19-15.18l-87.58-13.37a165.8,165.8,0,0,0-49.63,0l-87.58,13.37a15.19,15.19,0,0,0-15.19,15.18,15.2,15.2,0,0,1-9.26,14L377,485a15.17,15.17,0,0,0-9.28,14v76.74a15.16,15.16,0,0,1-15.18,15.16h-7a15.2,15.2,0,0,1-15.18-15.19V426.11a128.47,128.47,0,0,1,42.46-94.6c1.37-1.25,2.77-2.45,4.2-3.63,2.13-1.73,4.25-3.46,6.44-5.12,38.8-29.94,87.25-49.46,140.35-53.94,5.17-.46,10.36-.76,15.63-.9,1.38,0,2.79-.07,4.2-.09l3.23,0h1.89l3.44,0h.44c1.2,0,2.38.05,3.55.09q7.89.24,15.6.92c54.84,4.76,104.65,25.48,144,57.15,1.17.95,2.35,1.92,3.5,2.88q2.67,2.22,5.2,4.6A128,128,0,0,1,765.27,426.57Z"/><path class="cls-3" d="M602.11,364.54H620a3.54,3.54,0,0,1,3.54,3.54v88.57A3.54,3.54,0,0,1,620,460.2H601a2.42,2.42,0,0,1-2.42-2.42V368.08a3.54,3.54,0,0,1,3.54-3.54Z" transform="translate(1107.3 -132.73) rotate(98.3)"/><path class="cls-3" d="M475.09,364h19a3.54,3.54,0,0,1,3.54,3.54V456.1a3.54,3.54,0,0,1-3.54,3.54H476.21a3.54,3.54,0,0,1-3.54-3.54V366.41A2.42,2.42,0,0,1,475.09,364Z" transform="translate(822.61 -127.69) rotate(81.7)"/><ellipse cx="527.67" cy="300.83" rx="19.91" ry="7.94" transform="translate(-9.25 584.83) rotate(-57.56)"/><ellipse cx="568.51" cy="300.83" rx="7.94" ry="19.91" transform="matrix(0.84, -0.54, 0.54, 0.84, -72.66, 351.85)"/><path d="M572.07,270.27c-4.57,5.73-9.74,9.3-13.09,8.63-3-.6-3.76-4.36-2.51-9.55C561.73,269.51,566.92,269.81,572.07,270.27Z"/><path d="M537.19,278.9c-3.34.67-8.51-2.93-13.1-8.65,5.17-.46,10.36-.76,15.62-.9C541,274.54,540.17,278.3,537.19,278.9Z"/></g><g id="MAIN"><path class="cls-4" d="M651.09,806.78c4.47,1.39,7.14,6.49,6.61,11.14s-3.7,8.7-7.61,11.27c-3.74,2.46-8.12,3.74-12.5,4.69a117.44,117.44,0,0,1-24.72,2.71c-5.63,0-11.43-.34-16.58-2.65-5-2.24-9.27-6.62-10.13-12a11.8,11.8,0,0,1,2.35-8.89,3.25,3.25,0,0,0-1.87-5.18h0l-9.09-31.2-3.4-52.95,19.53-40.48,16.05-18.47,22.18,6.74,5.94,30.41,8.21,19.54,24.64,31.43L681,763.22l-24.84,36.29"/><path class="cls-4" d="M582,709.78c-13.76,4.37-21.5,10.16-27.24,24.08-5.49,13.34-1.5,29.07,4.58,42.16a78.38,78.38,0,0,0,31.74,34.63"/><path class="cls-4" d="M651.09,806.78c8.52-15.3,29.34-27.87,45.9-33.56,8.3-2.86,18-4.79,22.67-12.21,5.3-8.38.71-20.5-7.92-25.39s-19.67-3.65-28.57.72S667.05,747.8,660,754.77"/><path class="cls-4" d="M582.49,725.73l-3.42-53.18c-.43-6.68-.82-13.58,2.14-19.86A21.47,21.47,0,0,1,600,640.79a22.31,22.31,0,0,1,18.56,10.26c3.51,5.61,4.7,18,5.33,24.23"/><path class="cls-4" d="M666.09,748.53c-17.09-24.54-.56-55.88-16.85-80.75-2.89-4.4-8-8.9-14.32-8.27a11.8,11.8,0,0,0-9.08,6.13c-1.59,3-1.78,6.37-2,9.64q-1.32,25.62-2.63,51.25"/><path class="cls-4" d="M453.26,807.13c-4.47,1.39-7.13,6.49-6.61,11.14s3.7,8.7,7.61,11.27c3.74,2.45,8.12,3.73,12.5,4.69a117.44,117.44,0,0,0,24.72,2.71c5.63,0,11.44-.34,16.58-2.66,5-2.24,9.27-6.61,10.13-12a11.76,11.76,0,0,0-2.35-8.89,3.26,3.26,0,0,1,1.88-5.18h0l9.09-31.2,3.39-52.95-19.53-40.49-16.05-18.47-22.17,6.75-5.95,30.41-8.21,19.54-24.63,31.42-10.34,10.34,24.84,36.29"/><path class="cls-4" d="M522.34,710.12c13.75,4.38,21.5,10.17,27.23,24.09,5.49,13.34,1.51,29.07-4.57,42.15A78.39,78.39,0,0,1,513.26,811"/><path class="cls-4" d="M453.26,807.13c-8.51-15.3-29.34-27.87-45.9-33.57-8.3-2.85-18-4.79-22.67-12.2-5.29-8.39-.71-20.5,7.92-25.39s19.67-3.65,28.57.72,16.12,11.45,23.17,18.42"/><path class="cls-4" d="M521.86,726.08l3.42-53.18c.43-6.68.82-13.58-2.14-19.86a21.49,21.49,0,0,0-18.78-11.91,22.34,22.34,0,0,0-18.57,10.27c-3.51,5.6-4.7,18-5.33,24.22"/><path class="cls-4" d="M438.26,748.88c17.09-24.54.56-55.88,16.86-80.75,2.88-4.4,8-8.9,14.31-8.27a11.8,11.8,0,0,1,9.08,6.13c1.6,3,1.79,6.37,1.95,9.63l2.64,51.26"/></g></svg>
