<svg xmlns="http://www.w3.org/2000/svg" viewBox="0 0 1082.16 1082.16"><defs><style>.cls-1{fill:#f3a2be;}.cls-2{fill:#fff;}.cls-3{fill:#ef6c46;}.cls-4{fill:#15b06e;}</style></defs><g id="MAIN"><path d="M357.25,685.07s145.55-28.34,199.1-28.34,198.2,28.34,198.2,28.34V486.25H357.25V685.07"/><path class="cls-1" d="M527.8,722.38a7.35,7.35,0,0,1-7.18-9.08,36.69,36.69,0,0,1,71.09,0,7.36,7.36,0,0,1-7.18,9.08Z"/><path d="M584.53,724.38H527.8a9.39,9.39,0,0,1-7.45-3.65,9.19,9.19,0,0,1-1.67-7.93,38.69,38.69,0,0,1,75,0,9.16,9.16,0,0,1-1.68,7.93A9.35,9.35,0,0,1,584.53,724.38ZM556.16,687.7a34.64,34.64,0,0,0-33.6,26.09,5.19,5.19,0,0,0,1,4.49,5.39,5.39,0,0,0,4.29,2.1h56.73a5.4,5.4,0,0,0,4.29-2.1,5.19,5.19,0,0,0,.95-4.49A34.64,34.64,0,0,0,556.16,687.7Z"/><circle class="cls-2" cx="467.76" cy="600.78" r="88.4"/><path d="M467.76,691.18a90.4,90.4,0,1,1,90.4-90.4A90.5,90.5,0,0,1,467.76,691.18Zm0-176.8a86.4,86.4,0,1,0,86.4,86.4A86.5,86.5,0,0,0,467.76,514.38Z"/><circle class="cls-2" cx="644.57" cy="600.78" r="88.4"/><path d="M644.57,691.18a90.4,90.4,0,1,1,90.4-90.4A90.51,90.51,0,0,1,644.57,691.18Zm0-176.8a86.4,86.4,0,1,0,86.4,86.4A86.5,86.5,0,0,0,644.57,514.38Z"/><circle cx="477.44" cy="602.45" r="41.6"/><circle cx="634.36" cy="602.45" r="41.6"/><path d="M555.9,798.29c-37.06,0-93.41-9.58-151.39-55.22-34.57-27.2-53.17-54.14-53.94-55.27A7.5,7.5,0,1,1,363,679.33h0c.18.26,18.33,26.46,51.22,52.26,30.08,23.58,79.08,51.7,141.73,51.7s111.65-28.12,141.73-51.7c32.89-25.8,51-52,51.22-52.26a7.5,7.5,0,0,1,12.38,8.47c-.77,1.13-19.38,28.07-53.94,55.27C675.29,768.26,623,798.29,555.9,798.29Z"/><rect class="cls-3" x="741.07" y="641.43" width="27.97" height="45.13" rx="6.06"/><path d="M763,688.56H747.13a8.07,8.07,0,0,1-8.06-8.06v-33a8.07,8.07,0,0,1,8.06-8.06H763a8.07,8.07,0,0,1,8.06,8.06v33A8.07,8.07,0,0,1,763,688.56Zm-15.86-45.13a4.07,4.07,0,0,0-4.06,4.06v33a4.06,4.06,0,0,0,4.06,4.06H763a4.06,4.06,0,0,0,4.06-4.06v-33a4.07,4.07,0,0,0-4.06-4.06Z"/><rect class="cls-3" x="538.16" y="779.67" width="44.19" height="22.24" rx="3.79"/><path d="M578.55,803.91H542a5.8,5.8,0,0,1-5.79-5.79V783.47a5.8,5.8,0,0,1,5.79-5.8h36.6a5.8,5.8,0,0,1,5.8,5.8v14.65A5.8,5.8,0,0,1,578.55,803.91ZM542,781.67a1.8,1.8,0,0,0-1.79,1.8v14.65a1.79,1.79,0,0,0,1.79,1.79h36.6a1.8,1.8,0,0,0,1.8-1.79V783.47a1.81,1.81,0,0,0-1.8-1.8Z"/><rect class="cls-3" x="547.71" y="779.67" width="34.64" height="22.24" rx="3.79"/><path d="M578.55,803.91h-27a5.8,5.8,0,0,1-5.79-5.79V783.47a5.8,5.8,0,0,1,5.79-5.8h27a5.8,5.8,0,0,1,5.8,5.8v14.65A5.8,5.8,0,0,1,578.55,803.91Zm-27-22.24a1.8,1.8,0,0,0-1.79,1.8v14.65a1.79,1.79,0,0,0,1.79,1.79h27a1.8,1.8,0,0,0,1.8-1.79V783.47a1.81,1.81,0,0,0-1.8-1.8Z"/><rect class="cls-3" x="343.28" y="641.43" width="27.97" height="45.13" rx="6.06"/><path d="M365.2,688.56H349.34a8.07,8.07,0,0,1-8.06-8.06v-33a8.07,8.07,0,0,1,8.06-8.06H365.2a8.07,8.07,0,0,1,8.06,8.06v33A8.07,8.07,0,0,1,365.2,688.56Zm-15.86-45.13a4.07,4.07,0,0,0-4.06,4.06v33a4.06,4.06,0,0,0,4.06,4.06H365.2a4.06,4.06,0,0,0,4.06-4.06v-33a4.07,4.07,0,0,0-4.06-4.06Z"/><path class="cls-1" d="M773.34,508.17V657.33a15.16,15.16,0,0,1-15.16,15.17h-7A15.17,15.17,0,0,1,736,657.33V580.59a15.14,15.14,0,0,0-9.28-14l-34-14.38a15.17,15.17,0,0,1-9.25-14,15.19,15.19,0,0,0-15.19-15.18l-87.59-13.37a165.74,165.74,0,0,0-49.62,0l-87.59,13.37a15.19,15.19,0,0,0-15.18,15.18,15.2,15.2,0,0,1-9.26,14l-34,14.38a15.15,15.15,0,0,0-9.28,14v76.74a15.17,15.17,0,0,1-15.19,15.17h-7a15.2,15.2,0,0,1-15.19-15.19V507.71a128.5,128.5,0,0,1,42.47-94.61c1.36-1.24,2.77-2.44,4.2-3.62,2.12-1.73,4.25-3.46,6.44-5.12,38.8-29.94,87.24-49.46,140.35-53.94,5.17-.46,10.36-.76,15.62-.9,1.39,0,2.8-.07,4.2-.09l3.23,0h1.9l3.44,0h.43c1.2,0,2.38,0,3.56.09,5.26.16,10.45.46,15.6.92,54.84,4.76,104.64,25.48,144,57.15,1.18.94,2.36,1.91,3.51,2.88,1.78,1.48,3.51,3,5.19,4.6A128,128,0,0,1,773.34,508.17Z"/><path d="M758.18,674.5h-7A17.19,17.19,0,0,1,734,657.33V580.59a13.16,13.16,0,0,0-8-12.14l-34-14.38a17.17,17.17,0,0,1-10.47-15.83,13.2,13.2,0,0,0-13.19-13.18l-.3,0-87.59-13.36a163.72,163.72,0,0,0-49,0l-87.74,13.39h-.15a13.18,13.18,0,0,0-13.18,13.18,17.17,17.17,0,0,1-10.48,15.83l-34,14.38a13.15,13.15,0,0,0-8.06,12.14v76.74a17.2,17.2,0,0,1-17.19,17.17h-7a17.21,17.21,0,0,1-17.19-17.19V507.71a130.67,130.67,0,0,1,43.13-96.09c1.24-1.13,2.64-2.34,4.27-3.68,2.09-1.71,4.25-3.47,6.5-5.18,40.37-31.15,89.27-49.94,141.39-54.33,5.2-.47,10.5-.77,15.74-.91,1.33,0,2.69-.07,4.06-.09h9.31c1.19,0,2.35,0,3.52.09,5.38.17,10.67.48,15.7.93C634,353.12,684.14,373,725.12,406c1.18,1,2.37,1.93,3.54,2.91,1.89,1.58,3.62,3.11,5.28,4.67a130.28,130.28,0,0,1,41.4,94.55V657.33A17.18,17.18,0,0,1,758.18,674.5ZM668.46,521.06a17.21,17.21,0,0,1,17,17.18,13.19,13.19,0,0,0,8,12.14l34,14.38A17.16,17.16,0,0,1,738,580.59v76.74a13.19,13.19,0,0,0,13.17,13.17h7a13.18,13.18,0,0,0,13.16-13.17V508.17a126.23,126.23,0,0,0-40.14-91.64c-1.6-1.52-3.27-3-5.11-4.52-1.15-1-2.32-1.93-3.48-2.86-40.36-32.5-89.77-52.11-142.89-56.72-5-.44-10.17-.75-15.49-.91-1.16,0-2.3-.07-3.46-.09H551.6c-1.34,0-2.68,0-4,.09-5.17.13-10.39.43-15.51.89-51.37,4.33-99.53,22.84-139.31,53.53-2.21,1.67-4.34,3.41-6.4,5.09-1.57,1.29-2.92,2.46-4.11,3.55a126.67,126.67,0,0,0-41.82,93.14V657.31a13.21,13.21,0,0,0,13.19,13.19h7a13.2,13.2,0,0,0,13.19-13.17V580.59a17.16,17.16,0,0,1,10.5-15.83l34-14.37a13.18,13.18,0,0,0,8-12.15,17.21,17.21,0,0,1,17-17.18l87.44-13.34a167.09,167.09,0,0,1,50.22,0Z"/><path class="cls-3" d="M610.18,446.14H628a3.54,3.54,0,0,1,3.54,3.54v88.57a3.54,3.54,0,0,1-3.54,3.54h-19a2.42,2.42,0,0,1-2.42-2.42V449.68a3.54,3.54,0,0,1,3.54-3.54Z" transform="translate(1197.28 -47.35) rotate(98.3)"/><path d="M661.65,514.74a5.52,5.52,0,0,1-.81-.06L573.2,501.89a5.54,5.54,0,0,1-4.68-6.29l2.74-18.78a4.42,4.42,0,0,1,5-3.73L665,486a5.55,5.55,0,0,1,4.69,6.28L667.13,510A5.55,5.55,0,0,1,661.65,514.74Zm-86-37.7a.43.43,0,0,0-.42.36l-2.74,18.78a1.56,1.56,0,0,0,1.31,1.76l87.64,12.78a1.55,1.55,0,0,0,1.75-1.3l2.58-17.67a1.54,1.54,0,0,0-1.31-1.75l-88.75-12.95Z"/><path class="cls-3" d="M483.17,445.59h19a3.54,3.54,0,0,1,3.54,3.54V537.7a3.54,3.54,0,0,1-3.54,3.54H484.29a3.54,3.54,0,0,1-3.54-3.54V448a2.42,2.42,0,0,1,2.42-2.42Z" transform="translate(910.26 -65.87) rotate(81.7)"/><path d="M450.68,514.19a5.55,5.55,0,0,1-5.48-4.74l-2.58-17.67a5.55,5.55,0,0,1,4.69-6.29l88.75-12.95a4.42,4.42,0,0,1,5,3.74l2.74,18.78a5.56,5.56,0,0,1-4.68,6.29l-87.64,12.78A5.52,5.52,0,0,1,450.68,514.19Zm86-37.7h-.06l-88.75,12.95a1.55,1.55,0,0,0-1.31,1.75l2.58,17.67a1.53,1.53,0,0,0,1.75,1.3l87.64-12.78a1.57,1.57,0,0,0,1.31-1.75l-2.74-18.79A.43.43,0,0,0,536.7,476.49Z"/><ellipse cx="535.74" cy="382.43" rx="19.91" ry="7.94" transform="translate(-74.37 629.48) rotate(-57.56)"/><ellipse cx="576.59" cy="382.43" rx="7.94" ry="19.91" transform="translate(-115.17 368.92) rotate(-32.44)"/><path d="M580.14,351.87c-4.57,5.72-9.74,9.3-13.08,8.63-3-.6-3.76-4.36-2.52-9.55Q572.43,351.19,580.14,351.87Z"/><path d="M545.27,360.5c-3.35.67-8.52-2.93-13.11-8.65,5.17-.46,10.36-.76,15.63-.9C549,356.14,548.25,359.9,545.27,360.5Z"/><path class="cls-4" d="M827,717.68c6.18-.86,13.91,1.79,19.7,9.77,3.66,5.06,1.38,12.39-.22,18.42a75.91,75.91,0,0,1-47.33,51.24c-6,2.11-12.52,3.45-18.69,1.95s-11.83-6.47-12.51-12.78"/><path d="M786,801.69a25.36,25.36,0,0,1-6-.69c-7.53-1.84-13.3-7.8-14-14.5a2,2,0,1,1,4-.44c.56,5.06,5.08,9.61,11,11.05,4.84,1.19,10.58.57,17.55-1.88a73.53,73.53,0,0,0,46.06-49.87l.29-1.09c1.47-5.47,3.13-11.66.24-15.64-4.72-6.52-11.39-9.86-17.81-9a2,2,0,0,1-.55-4c7.93-1.11,16,2.85,21.6,10.58,4,5.52,2,13,.38,19l-.28,1.08A77.57,77.57,0,0,1,799.85,799,41.88,41.88,0,0,1,786,801.69Z"/><path class="cls-4" d="M778.24,781.2c-41.58,5.16-85.17-9.22-115.52-38.1-4.14-3.94-8.16-8.3-10.07-13.7s-1.27-12,2.92-15.94c5.85-5.42,15.13-3.35,22.73-1l54.32,17.14a165.64,165.64,0,0,1-54.7-30c-4.9-4.07-9.67-8.55-12.59-14.21s-3.7-12.77-.63-18.35c3.25-5.89,10.21-9,16.93-9.26s13.29,1.89,19.55,4.34a196.84,196.84,0,0,1,50,28.63C739.69,683,728,675.1,719.69,664s-12.49-26.28-7.26-39.11,22-20.86,34-13.9c6.47,3.75,10.31,10.68,13.84,17.28l26.48,49.51c-1.78-10.14-3.56-20.44-2.51-30.69s5.31-20.61,13.56-26.78,20.86-6.94,28.5,0c8.64,7.79,8.19,21.24,7.06,32.81q-4.1,42.18-8.2,84.36"/><path d="M761.19,784.25a145.85,145.85,0,0,1-99.85-39.7c-4.26-4-8.5-8.62-10.58-14.48-2-5.57-1.68-13.32,3.45-18.08,6.56-6.07,16.64-3.93,24.69-1.39l20.79,6.56a167.33,167.33,0,0,1-23.05-16c-4.94-4.1-9.95-8.74-13.08-14.84-3.5-6.8-3.74-14.55-.61-20.23,3.33-6,10.45-10,18.6-10.29,7.12-.26,14,2,20.36,4.48A196.17,196.17,0,0,1,721.16,669q-1.6-1.86-3.08-3.84c-7.56-10.2-13.5-26.34-7.5-41.06a29.79,29.79,0,0,1,17.66-16.28c6.79-2.32,13.6-1.82,19.15,1.41,7.16,4.15,11.29,11.87,14.6,18.07l20.84,39a82.72,82.72,0,0,1-.62-19.4c1.23-12,6.46-22.27,14.35-28.18,9.49-7.1,23.13-7.07,31.05.07,8.93,8.07,9,21.35,7.7,34.5l-8.2,84.35a2,2,0,1,1-4-.39l8.2-84.35c1.18-12.1,1.22-24.26-6.41-31.14-6.54-5.91-17.95-5.84-26,.16-7,5.24-11.66,14.49-12.77,25.38-1,10,.76,20.26,2.49,30.14a2,2,0,0,1-3.73,1.29l-26.49-49.51c-3.07-5.75-6.9-12.91-13.07-16.49-4.54-2.64-10.18-3-15.86-1.09a25.69,25.69,0,0,0-15.25,14c-5.37,13.18.1,27.83,7,37.16a80.27,80.27,0,0,0,14.88,14.87,195.62,195.62,0,0,1,16.28,11.54,2,2,0,0,1-2.36,3.23c-5.22-3.5-10.79-7.23-16.1-11.42a194.48,194.48,0,0,0-33.53-17c-6-2.33-12.36-4.43-18.75-4.2-5.3.2-12.09,2.47-15.26,8.22-2.49,4.53-2.24,10.84.66,16.47,2.81,5.46,7.47,9.76,12.09,13.59a164.62,164.62,0,0,0,54,29.68,2,2,0,0,1-1.22,3.81L677.7,714.41c-7.46-2.35-15.75-4.13-20.77.52-3.8,3.52-3.94,9.47-2.4,13.8,1.8,5.07,5.67,9.21,9.57,12.92A141.58,141.58,0,0,0,778,779.22a2,2,0,0,1,.5,4A141.19,141.19,0,0,1,761.19,784.25Z"/><path class="cls-4" d="M284.76,717.68c-6.18-.86-13.91,1.79-19.7,9.77-3.67,5.06-1.38,12.39.22,18.42a75.91,75.91,0,0,0,47.33,51.24c6,2.11,12.51,3.45,18.69,1.95s11.82-6.47,12.51-12.78"/><path d="M325.77,801.69A41.88,41.88,0,0,1,312,799a77.57,77.57,0,0,1-48.61-52.62l-.29-1.08c-1.61-6-3.62-13.5.39-19,5.61-7.73,13.68-11.68,21.6-10.58a2,2,0,0,1-.55,4c-6.43-.89-13.09,2.46-17.81,9-2.89,4-1.23,10.17.24,15.64l.29,1.09a73.53,73.53,0,0,0,46.06,49.87c7,2.45,12.71,3.07,17.55,1.88,5.93-1.44,10.45-6,11-11.05a2,2,0,0,1,4,.44c-.73,6.7-6.5,12.66-14,14.5A25.36,25.36,0,0,1,325.77,801.69Z"/><path class="cls-4" d="M333.56,781.2c41.58,5.16,85.16-9.22,115.52-38.1,4.14-3.94,8.16-8.3,10.07-13.7s1.27-12-2.92-15.94c-5.85-5.42-15.13-3.35-22.73-1l-54.32,17.14a165.73,165.73,0,0,0,54.7-30c4.9-4.07,9.67-8.55,12.58-14.21s3.71-12.77.64-18.35c-3.25-5.89-10.21-9-16.93-9.26s-13.29,1.89-19.56,4.34a196.78,196.78,0,0,0-50,28.63C372.1,683,383.85,675.1,392.11,664s12.49-26.28,7.26-39.11-22-20.86-34-13.9c-6.47,3.75-10.31,10.68-13.84,17.28l-26.48,49.51c1.78-10.14,3.56-20.44,2.51-30.69s-5.32-20.61-13.56-26.78-20.86-6.94-28.51,0c-8.63,7.79-8.18,21.24-7,32.81q4.09,42.18,8.2,84.36"/><path d="M350.61,784.25a141.31,141.31,0,0,1-17.3-1.06,2,2,0,0,1,.5-4A141.57,141.57,0,0,0,447.7,741.65c3.9-3.71,7.77-7.85,9.57-12.92,1.54-4.33,1.39-10.28-2.4-13.8-5-4.65-13.32-2.87-20.77-.52l-54.32,17.15a2,2,0,0,1-1.22-3.81,164.72,164.72,0,0,0,54-29.68c4.62-3.83,9.28-8.13,12.09-13.59,2.89-5.63,3.15-11.94.65-16.47-3.17-5.75-9.95-8-15.25-8.22-6.41-.24-12.79,1.87-18.75,4.2a194.48,194.48,0,0,0-33.53,17c-5.31,4.19-10.88,7.92-16.11,11.42a2,2,0,0,1-2.35-3.23,197.14,197.14,0,0,1,16.27-11.54,79.67,79.67,0,0,0,14.88-14.87c6.92-9.33,12.39-24,7-37.16a25.64,25.64,0,0,0-15.24-14c-5.69-1.94-11.32-1.55-15.86,1.09-6.17,3.58-10,10.74-13.08,16.49l-26.48,49.51a2,2,0,0,1-3.73-1.29c1.73-9.88,3.52-20.09,2.49-30.14-1.11-10.89-5.77-20.14-12.77-25.38-8-6-19.42-6.07-26-.16-7.62,6.88-7.58,19-6.4,31.14l8.2,84.35a2,2,0,1,1-4,.39l-8.2-84.35c-1.28-13.15-1.23-26.43,7.7-34.5,7.92-7.15,21.56-7.18,31.05-.07,7.89,5.91,13.12,16.18,14.35,28.18a82.19,82.19,0,0,1-.63,19.4l20.85-39c3.31-6.2,7.44-13.92,14.59-18.07,5.56-3.23,12.36-3.73,19.16-1.41a29.79,29.79,0,0,1,17.66,16.28c6,14.72.06,30.86-7.5,41.06q-1.47,2-3.09,3.84a197.41,197.41,0,0,1,19.26-8.73c6.36-2.49,13.25-4.76,20.36-4.48,8.14.32,15.27,4.26,18.6,10.29,3.12,5.68,2.89,13.43-.61,20.23-3.14,6.1-8.14,10.74-13.09,14.84a166.62,166.62,0,0,1-23,16l20.78-6.56c8.06-2.54,18.14-4.68,24.69,1.39,5.14,4.76,5.44,12.51,3.46,18.08-2.09,5.86-6.32,10.43-10.59,14.48A145.83,145.83,0,0,1,350.61,784.25Z"/></g></svg>
