<svg xmlns="http://www.w3.org/2000/svg" viewBox="0 0 1082.16 1082.16"><defs><style>.cls-1{fill:#f3a2be;}.cls-1,.cls-2,.cls-3,.cls-4,.cls-5{stroke:#000;stroke-width:4px;}.cls-1,.cls-3,.cls-4{stroke-miterlimit:10;}.cls-2{fill:#fff;}.cls-2,.cls-5{stroke-linecap:round;stroke-linejoin:round;}.cls-3{fill:#b3d4ef;}.cls-4{fill:#ef6c46;}.cls-5,.cls-6{fill:#15b06e;}</style></defs><g id="CASQUE_01" data-name="CASQUE 01"><path d="M349.17,603.47s145.55-28.34,199.11-28.34,198.2,28.34,198.2,28.34V404.65H349.17V603.47"/></g><g id="BOUCHE"><path class="cls-1" d="M519.72,640.78a7.36,7.36,0,0,1-7.18-9.08,36.69,36.69,0,0,1,71.09,0,7.35,7.35,0,0,1-7.18,9.08Z"/></g><g id="YEUX"><circle class="cls-2" cx="459.69" cy="519.18" r="88.4"/><circle class="cls-2" cx="636.49" cy="519.18" r="88.4"/><circle cx="469.37" cy="546.86" r="41.6"/><circle cx="626.28" cy="546.86" r="41.6"/><path class="cls-3" d="M418.72,575.43h22.71a0,0,0,0,1,0,0v22.71a22.71,22.71,0,0,1-22.71,22.71h0A22.71,22.71,0,0,1,396,598.14v0a22.71,22.71,0,0,1,22.71-22.71Z" transform="translate(-300.31 471.27) rotate(-45)"/><path class="cls-3" d="M685.63,577.48h22.71a0,0,0,0,1,0,0v22.71a22.71,22.71,0,0,1-22.71,22.71h0a22.71,22.71,0,0,1-22.71-22.71v0A22.71,22.71,0,0,1,685.63,577.48Z" transform="translate(-223.58 660.61) rotate(-45)"/></g><g id="CASQUE_02" data-name="CASQUE 02"><path d="M547.82,716.69c-37.06,0-93.41-9.58-151.39-55.22-34.56-27.2-53.16-54.14-53.94-55.27a7.5,7.5,0,1,1,12.38-8.47h0c.18.26,18.33,26.46,51.23,52.26,30.07,23.59,79.07,51.7,141.72,51.7S659.48,673.58,689.55,650c32.89-25.8,51-52,51.22-52.26a7.5,7.5,0,0,1,12.38,8.47c-.77,1.13-19.37,28.07-53.93,55.27C667.21,686.66,615,716.69,547.82,716.69Z"/><rect class="cls-4" x="733" y="559.84" width="27.97" height="45.13" rx="6.06"/><rect class="cls-4" x="530.08" y="698.07" width="44.19" height="22.24" rx="3.79"/><rect class="cls-4" x="539.63" y="698.07" width="34.64" height="22.24" rx="3.79"/><rect class="cls-4" x="335.21" y="559.84" width="27.97" height="45.13" rx="6.06"/><path class="cls-1" d="M765.27,426.57V575.74a15.16,15.16,0,0,1-15.16,15.16h-7a15.16,15.16,0,0,1-15.16-15.16V499a15.17,15.17,0,0,0-9.28-14l-34-14.38a15.17,15.17,0,0,1-9.25-14,15.2,15.2,0,0,0-15.19-15.18l-87.58-13.37a165.8,165.8,0,0,0-49.63,0l-87.58,13.37a15.19,15.19,0,0,0-15.19,15.18,15.2,15.2,0,0,1-9.26,14L377,485a15.17,15.17,0,0,0-9.28,14v76.74a15.16,15.16,0,0,1-15.18,15.16h-7a15.2,15.2,0,0,1-15.18-15.19V426.11a128.47,128.47,0,0,1,42.46-94.6c1.37-1.25,2.77-2.45,4.2-3.63,2.13-1.73,4.25-3.46,6.44-5.12,38.8-29.94,87.25-49.46,140.35-53.94,5.17-.46,10.36-.76,15.63-.9,1.38,0,2.79-.07,4.2-.09l3.23,0h1.89l3.44,0h.44c1.2,0,2.38.05,3.55.09q7.89.24,15.6.92c54.84,4.76,104.65,25.48,144,57.15,1.17.95,2.35,1.92,3.5,2.88q2.67,2.22,5.2,4.6A128,128,0,0,1,765.27,426.57Z"/><path class="cls-4" d="M602.11,364.54H620a3.54,3.54,0,0,1,3.54,3.54v88.57A3.54,3.54,0,0,1,620,460.2H601a2.42,2.42,0,0,1-2.42-2.42V368.08a3.54,3.54,0,0,1,3.54-3.54Z" transform="translate(1107.3 -132.73) rotate(98.3)"/><path class="cls-4" d="M475.09,364h19a3.54,3.54,0,0,1,3.54,3.54V456.1a3.54,3.54,0,0,1-3.54,3.54H476.21a3.54,3.54,0,0,1-3.54-3.54V366.41A2.42,2.42,0,0,1,475.09,364Z" transform="translate(822.61 -127.69) rotate(81.7)"/><ellipse cx="527.67" cy="300.83" rx="19.91" ry="7.94" transform="translate(-9.25 584.83) rotate(-57.56)"/><ellipse cx="568.51" cy="300.83" rx="7.94" ry="19.91" transform="translate(-72.66 351.85) rotate(-32.44)"/><path d="M572.07,270.27c-4.57,5.73-9.74,9.3-13.09,8.63-3-.6-3.76-4.36-2.51-9.55C561.73,269.51,566.92,269.81,572.07,270.27Z"/><path d="M537.19,278.9c-3.34.67-8.51-2.93-13.1-8.65,5.17-.46,10.36-.76,15.62-.9C541,274.54,540.17,278.3,537.19,278.9Z"/></g><g id="MAIN"><path class="cls-5" d="M495.61,836.89h0a92.65,92.65,0,0,1,27.77-25.48c7-4,35.6-20.7,48.74-5.9,6.48,7.29,7.68,20.54,4.48,29.91-5.76,16.81-27.79,27-52.86,18.12"/><path class="cls-5" d="M609.56,699.29h0a92.78,92.78,0,0,0-27.77-25.49c-6.95-4-35.6-20.69-48.74-5.9-6.48,7.3-7.69,20.55-4.48,29.91,5.76,16.82,27.78,27,52.86,18.12"/><path d="M616.43,980.52a74,74,0,0,1-74-74V420.18c0-6.08,22-6.08,22,0V906.56a52,52,0,0,0,103.93,0,11,11,0,0,1,22,0A74,74,0,0,1,616.43,980.52Z"/><path class="cls-6" d="M532.61,672.44a64.11,64.11,0,0,0,43.92,13.88l29.69,6.87-1.61,59.38-1,19.13-58.16,5.89-34.9-7.07-10.22-21.93-3.41-13.44.6-18.86L502.9,696Z"/><path class="cls-5" d="M552.41,681.05c-5.79-8.9-14.62-15-24-16.61a33.24,33.24,0,0,0-27.08,7.88c-5.79,5-10.46,12.39-11,20.79s4.08,17.41,11.1,19.07"/><path class="cls-5" d="M583.14,770.57c3.67,8.1,11.53,13,19.33,13.08s15.38-4.36,20.76-11,8.71-15.35,10.29-24.33c3.51-19.89-1.57-41.62-13.24-56.6-3.07-3.94-6.86-7.59-11.37-8.2s-9.95,3.05-10.11,8.39"/><path class="cls-5" d="M498.68,711.14a45.46,45.46,0,0,0-9.94,8.8,24.73,24.73,0,0,0-5.44,12.92,19.82,19.82,0,0,0,5.45,15.69,13.66,13.66,0,0,0,14.15,3.24"/><path class="cls-5" d="M502.9,751.79c-6.1,4.14-10.51,17.21-7.72,24.81s9.23,12.68,16,14.9,14,2,21,1.48c9.73-.67,19.57-1.73,28.79-5.48s17.87-10.44,22.91-20.25"/><rect x="542.29" y="32.31" width="18.69" height="27.94" rx="9.35"/><rect x="542.29" y="223.61" width="21.98" height="265.44" rx="9.75"/><path class="cls-5" d="M278.36,356.33s-44.56-55.1-216.73-26.4c0,0,148.25-282.34,491.55-282.34"/><path class="cls-5" d="M278.36,356.33S384,329,553.18,329V47.59S446.63,29.34,387.18,129,278.36,356.33,278.36,356.33Z"/><path class="cls-5" d="M826,356.33s44.56-55.1,216.73-26.4c0,0-148.25-282.34-491.55-282.34"/><path class="cls-5" d="M826,356.33S720.41,329,551.17,329V47.59s106.56-18.25,166,81.37S826,356.33,826,356.33Z"/><path class="cls-6" d="M572.55,810.05a64.11,64.11,0,0,1-43.92,13.88L499,830.79l1.61,59.39,1,19.13,58.16,5.89,34.89-7.07,10.23-21.93,3.41-13.44-.6-18.86-5.38-20.28Z"/><path class="cls-5" d="M552.76,818.66c5.79-8.91,14.61-15,24-16.61a33.22,33.22,0,0,1,27.08,7.88c5.79,5,10.45,12.39,11,20.79s-4.09,17.41-11.11,19.07"/><path class="cls-5" d="M522,908.18a21.86,21.86,0,0,1-19.33,13.07c-7.8.06-15.37-4.35-20.76-11s-8.7-15.35-10.28-24.34c-3.51-19.89,1.57-41.61,13.24-56.59,3.07-3.94,6.85-7.59,11.37-8.2s9.94,3,10.11,8.38"/><path class="cls-5" d="M606.49,848.75a45.15,45.15,0,0,1,9.93,8.8,24.65,24.65,0,0,1,5.44,12.92,19.86,19.86,0,0,1-5.44,15.69,13.7,13.7,0,0,1-14.15,3.24"/><path class="cls-5" d="M602.27,889.4c6.1,4.14,10.51,17.21,7.72,24.8a25.2,25.2,0,0,1-16,14.91c-6.79,2.21-14,1.95-21,1.47-9.74-.66-19.57-1.72-28.79-5.47s-17.87-10.45-22.92-20.26"/></g></svg>
