<svg xmlns="http://www.w3.org/2000/svg" viewBox="0 0 1082.16 1082.16"><defs><style>.cls-1{fill:#002c25;}.cls-1,.cls-2,.cls-3,.cls-4,.cls-5{stroke:#000;stroke-width:4px;}.cls-1,.cls-3,.cls-5{stroke-linecap:round;stroke-linejoin:round;}.cls-2{fill:#f3a2be;}.cls-2,.cls-4{stroke-miterlimit:10;}.cls-3{fill:#fff;}.cls-4{fill:#ef6c46;}.cls-5{fill:#15b06e;}</style></defs><g id="FOND"><ellipse class="cls-1" cx="544.44" cy="246.43" rx="62.79" ry="57.82"/></g><g id="CASQUE_01" data-name="CASQUE 01"><path d="M349.17,603.47s145.55-28.34,199.11-28.34,198.2,28.34,198.2,28.34V404.65H349.17V603.47"/></g><g id="BOUCHE"><path class="cls-2" d="M548.49,604.11c23.72,0,24.81,35.68,1.11,36.64-.5,0-1,0-1.51,0s-1,0-1.51,0c-23.71-1-22.61-36.64,1.11-36.64Z"/></g><g id="YEUX"><circle class="cls-3" cx="459.69" cy="519.18" r="88.4"/><circle class="cls-3" cx="636.49" cy="519.18" r="88.4"/><circle cx="469.4" cy="520.86" r="54.81"/><circle cx="626.77" cy="520.86" r="54.81"/></g><g id="CASQUE_02" data-name="CASQUE 02"><path d="M547.82,716.69c-37.06,0-93.41-9.58-151.39-55.22-34.56-27.2-53.16-54.14-53.94-55.27a7.5,7.5,0,1,1,12.38-8.47h0c.18.26,18.33,26.46,51.23,52.26,30.07,23.59,79.07,51.7,141.72,51.7S659.48,673.58,689.55,650c32.89-25.8,51-52,51.22-52.26a7.5,7.5,0,0,1,12.38,8.47c-.77,1.13-19.37,28.07-53.93,55.27C667.21,686.66,615,716.69,547.82,716.69Z"/><rect class="cls-4" x="733" y="559.84" width="27.97" height="45.13" rx="6.06"/><rect class="cls-4" x="530.08" y="698.07" width="44.19" height="22.24" rx="3.79"/><rect class="cls-4" x="539.63" y="698.07" width="34.64" height="22.24" rx="3.79"/><rect class="cls-4" x="335.21" y="559.84" width="27.97" height="45.13" rx="6.06"/><path class="cls-2" d="M765.27,426.57V575.74a15.16,15.16,0,0,1-15.16,15.16h-7a15.16,15.16,0,0,1-15.16-15.16V499a15.17,15.17,0,0,0-9.28-14l-34-14.38a15.17,15.17,0,0,1-9.25-14,15.2,15.2,0,0,0-15.19-15.18l-87.58-13.37a165.8,165.8,0,0,0-49.63,0l-87.58,13.37a15.19,15.19,0,0,0-15.19,15.18,15.2,15.2,0,0,1-9.26,14L377,485a15.17,15.17,0,0,0-9.28,14v76.74a15.16,15.16,0,0,1-15.18,15.16h-7a15.2,15.2,0,0,1-15.18-15.19V426.11a128.47,128.47,0,0,1,42.46-94.6c1.37-1.25,2.77-2.45,4.2-3.63,2.13-1.73,4.25-3.46,6.44-5.12,38.8-29.94,87.25-49.46,140.35-53.94,5.17-.46,10.36-.76,15.63-.9,1.38,0,2.79-.07,4.2-.09l3.23,0h1.89l3.44,0h.44c1.2,0,2.38.05,3.55.09q7.89.24,15.6.92c54.84,4.76,104.65,25.48,144,57.15,1.17.95,2.35,1.92,3.5,2.88q2.67,2.22,5.2,4.6A128,128,0,0,1,765.27,426.57Z"/><path class="cls-4" d="M602.11,364.54H620a3.54,3.54,0,0,1,3.54,3.54v88.57A3.54,3.54,0,0,1,620,460.2H601a2.42,2.42,0,0,1-2.42-2.42V368.08a3.54,3.54,0,0,1,3.54-3.54Z" transform="translate(1107.3 -132.73) rotate(98.3)"/><path class="cls-4" d="M475.09,364h19a3.54,3.54,0,0,1,3.54,3.54V456.1a3.54,3.54,0,0,1-3.54,3.54H476.21a3.54,3.54,0,0,1-3.54-3.54V366.41a2.42,2.42,0,0,1,2.42-2.42Z" transform="translate(822.61 -127.69) rotate(81.7)"/><ellipse cx="527.67" cy="300.83" rx="19.91" ry="7.94" transform="translate(-9.25 584.83) rotate(-57.56)"/><ellipse cx="568.51" cy="300.83" rx="7.94" ry="19.91" transform="translate(-72.66 351.85) rotate(-32.44)"/><path d="M572.07,270.27c-4.57,5.73-9.74,9.3-13.09,8.63-3-.6-3.76-4.36-2.51-9.55C561.73,269.51,566.92,269.81,572.07,270.27Z"/><path d="M537.19,278.9c-3.34.67-8.51-2.93-13.1-8.65,5.17-.46,10.36-.76,15.62-.9C541,274.54,540.17,278.3,537.19,278.9Z"/></g><g id="MAIN"><path class="cls-5" d="M819,621.22c6.18-.86,13.91,1.79,19.7,9.77,3.67,5,1.39,12.39-.21,18.42a75.9,75.9,0,0,1-47.34,51.24c-6,2.11-12.51,3.45-18.68,1.94s-11.83-6.46-12.52-12.77"/><path class="cls-5" d="M770.16,684.74c-41.58,5.16-85.16-9.22-115.51-38.1-4.15-3.94-8.16-8.31-10.08-13.7S643.3,620.89,647.5,617c5.84-5.42,15.13-3.36,22.73-1l54.31,17.15a165.76,165.76,0,0,1-54.7-30.05c-4.9-4.06-9.67-8.54-12.58-14.21s-3.71-12.76-.63-18.34c3.24-5.89,10.2-9,16.92-9.26s13.29,1.89,19.56,4.34a196.48,196.48,0,0,1,50,28.63c-11.51-7.72-23.26-15.66-31.52-26.79s-12.49-26.28-7.25-39.11,22-20.87,33.95-13.9c6.47,3.75,10.31,10.68,13.84,17.28l26.48,49.51c-1.77-10.15-3.56-20.45-2.51-30.69s5.32-20.61,13.56-26.78,20.86-7,28.51,0c8.63,7.79,8.18,21.23,7,32.81q-4.1,42.18-8.2,84.35"/><path class="cls-5" d="M276.69,621.22c-6.18-.86-13.92,1.79-19.71,9.77-3.66,5-1.38,12.39.22,18.42a75.91,75.91,0,0,0,47.33,51.24c6,2.11,12.52,3.45,18.69,1.94s11.83-6.46,12.52-12.77"/><path class="cls-5" d="M325.48,684.74c41.58,5.16,85.17-9.22,115.52-38.1,4.15-3.94,8.16-8.31,10.08-13.7s1.27-12.05-2.93-15.94c-5.85-5.42-15.13-3.36-22.73-1L371.1,633.19a165.66,165.66,0,0,0,54.7-30.05c4.91-4.06,9.67-8.54,12.59-14.21s3.71-12.76.63-18.34c-3.25-5.89-10.21-9-16.93-9.26s-13.29,1.89-19.55,4.34a196.54,196.54,0,0,0-50,28.63c11.52-7.72,23.27-15.66,31.53-26.79s12.49-26.28,7.25-39.11-22-20.87-34-13.9c-6.47,3.75-10.31,10.68-13.84,17.28L317,581.29c1.78-10.15,3.56-20.45,2.51-30.69S314.21,530,306,523.82s-20.86-7-28.5,0c-8.64,7.79-8.18,21.23-7.06,32.81q4.11,42.18,8.2,84.35"/></g><g id="LES_PLUS" data-name="LES PLUS"><path class="cls-5" d="M762.35,382.1c0,21.8-7.4,42.44-20.66,60.89H355.17c-13.26-18.45-20.66-39.09-20.66-60.89,0-1.37,0-2.74.08-4.1,3.28-76.46,97.77-137.77,213.84-137.77,115.48,0,209.59,60.69,213.78,136.6C762.3,378.58,762.35,380.33,762.35,382.1Z"/><path class="cls-1" d="M790.87,409.37A33.72,33.72,0,0,1,757.25,443H343.14a33.62,33.62,0,0,1,0-67.24H757.25A33.33,33.33,0,0,1,781,385.63,33.47,33.47,0,0,1,790.87,409.37Z"/></g></svg>
