<svg xmlns="http://www.w3.org/2000/svg" viewBox="0 0 1082.16 1082.16"><defs><style>.cls-1{fill:#f3a2be;}.cls-2{fill:#fff;}.cls-3{fill:#ef6c46;}.cls-4{fill:#15b06e;}</style></defs><g id="CASQUE_02" data-name="CASQUE 02"><path d="M572.07,270.27c-4.57,5.73-9.74,9.3-13.09,8.63-3-.6-3.76-4.36-2.51-9.55C561.73,269.51,566.92,269.81,572.07,270.27Z"/><path d="M537.19,278.9c-3.34.67-8.51-2.93-13.1-8.65,5.17-.46,10.36-.76,15.62-.9C541,274.54,540.17,278.3,537.19,278.9Z"/></g><g id="MAIN"><path d="M349.17,603.47s145.55-28.34,199.11-28.34,198.2,28.34,198.2,28.34V404.65H349.17V603.47"/><path class="cls-1" d="M576.45,604.11a7.35,7.35,0,0,1,7.18,9.08,36.69,36.69,0,0,1-71.09,0,7.36,7.36,0,0,1,7.18-9.08Z"/><path d="M548.09,642.78a38.63,38.63,0,0,1-37.48-29.09,9.16,9.16,0,0,1,1.67-7.94,9.37,9.37,0,0,1,7.44-3.64h56.73a9.39,9.39,0,0,1,7.45,3.64,9.16,9.16,0,0,1,1.67,7.94A38.64,38.64,0,0,1,548.09,642.78Zm-28.37-36.67a5.38,5.38,0,0,0-4.28,2.1,5.17,5.17,0,0,0-1,4.49,34.69,34.69,0,0,0,67.21,0,5.19,5.19,0,0,0-1-4.49,5.39,5.39,0,0,0-4.29-2.1Z"/><circle class="cls-2" cx="459.69" cy="519.18" r="88.4"/><path d="M459.69,609.58a90.4,90.4,0,1,1,90.4-90.4A90.51,90.51,0,0,1,459.69,609.58Zm0-176.8a86.4,86.4,0,1,0,86.4,86.4A86.5,86.5,0,0,0,459.69,432.78Z"/><circle class="cls-2" cx="636.49" cy="519.18" r="88.4"/><path d="M636.49,609.58a90.4,90.4,0,1,1,90.4-90.4A90.5,90.5,0,0,1,636.49,609.58Zm0-176.8a86.4,86.4,0,1,0,86.4,86.4A86.5,86.5,0,0,0,636.49,432.78Z"/><circle cx="469.37" cy="520.86" r="41.6"/><circle cx="626.28" cy="520.86" r="41.6"/><path d="M547.82,716.69c-37.06,0-93.41-9.58-151.39-55.22-34.56-27.2-53.16-54.14-53.94-55.27a7.5,7.5,0,1,1,12.38-8.47h0c.18.26,18.33,26.46,51.23,52.26,30.07,23.59,79.07,51.7,141.72,51.7S659.48,673.58,689.55,650c32.89-25.8,51-52,51.22-52.26a7.5,7.5,0,0,1,12.38,8.47c-.77,1.13-19.37,28.07-53.93,55.27C667.21,686.66,615,716.69,547.82,716.69Z"/><rect class="cls-3" x="733" y="559.84" width="27.97" height="45.13" rx="6.06"/><path d="M754.91,607H739.06A8.06,8.06,0,0,1,731,598.9v-33a8.06,8.06,0,0,1,8.06-8.06h15.85A8.06,8.06,0,0,1,763,565.9v33A8.06,8.06,0,0,1,754.91,607Zm-15.85-45.12A4.06,4.06,0,0,0,735,565.9v33a4.06,4.06,0,0,0,4.06,4.06h15.85A4.06,4.06,0,0,0,759,598.9v-33a4.06,4.06,0,0,0-4.06-4.06Z"/><rect class="cls-3" x="530.08" y="698.07" width="44.19" height="22.24" rx="3.79"/><path d="M570.48,722.31H533.87a5.8,5.8,0,0,1-5.79-5.79V701.87a5.8,5.8,0,0,1,5.79-5.8h36.61a5.8,5.8,0,0,1,5.79,5.8v14.65A5.8,5.8,0,0,1,570.48,722.31Zm-36.61-22.24a1.8,1.8,0,0,0-1.79,1.8v14.65a1.79,1.79,0,0,0,1.79,1.79h36.61a1.79,1.79,0,0,0,1.79-1.79V701.87a1.8,1.8,0,0,0-1.79-1.8Z"/><rect class="cls-3" x="539.63" y="698.07" width="34.64" height="22.24" rx="3.79"/><path d="M570.48,722.31H543.42a5.8,5.8,0,0,1-5.79-5.79V701.87a5.8,5.8,0,0,1,5.79-5.8h27.06a5.8,5.8,0,0,1,5.79,5.8v14.65A5.8,5.8,0,0,1,570.48,722.31Zm-27.06-22.24a1.8,1.8,0,0,0-1.79,1.8v14.65a1.79,1.79,0,0,0,1.79,1.79h27.06a1.79,1.79,0,0,0,1.79-1.79V701.87a1.8,1.8,0,0,0-1.79-1.8Z"/><rect class="cls-3" x="335.21" y="559.84" width="27.97" height="45.13" rx="6.06"/><path d="M357.12,607H341.27a8.07,8.07,0,0,1-8.07-8.06v-33a8.07,8.07,0,0,1,8.07-8.06h15.85a8.07,8.07,0,0,1,8.06,8.06v33A8.07,8.07,0,0,1,357.12,607Zm-15.85-45.12a4.07,4.07,0,0,0-4.07,4.06v33a4.07,4.07,0,0,0,4.07,4.06h15.85a4.06,4.06,0,0,0,4.06-4.06v-33a4.06,4.06,0,0,0-4.06-4.06Z"/><path class="cls-1" d="M765.27,426.57V575.74a15.16,15.16,0,0,1-15.16,15.16h-7a15.16,15.16,0,0,1-15.16-15.16V499a15.17,15.17,0,0,0-9.28-14l-34-14.38a15.17,15.17,0,0,1-9.25-14,15.2,15.2,0,0,0-15.19-15.18l-87.58-13.37a165.8,165.8,0,0,0-49.63,0l-87.58,13.37a15.19,15.19,0,0,0-15.19,15.18,15.2,15.2,0,0,1-9.26,14L377,485a15.17,15.17,0,0,0-9.28,14v76.74a15.16,15.16,0,0,1-15.18,15.16h-7a15.2,15.2,0,0,1-15.18-15.19V426.11a128.47,128.47,0,0,1,42.46-94.6c1.37-1.25,2.77-2.45,4.2-3.63,2.13-1.73,4.25-3.46,6.44-5.12,38.8-29.94,87.25-49.46,140.35-53.94,5.17-.46,10.36-.76,15.63-.9,1.38,0,2.79-.07,4.2-.09l3.23,0h1.89l3.44,0h.44c1.2,0,2.38.05,3.55.09q7.89.24,15.6.92c54.84,4.76,104.65,25.48,144,57.15,1.17.95,2.35,1.92,3.5,2.88q2.67,2.22,5.2,4.6A128,128,0,0,1,765.27,426.57Z"/><path d="M750.11,592.9h-7a17.18,17.18,0,0,1-17.16-17.16V499a13.17,13.17,0,0,0-8.06-12.14l-34-14.38a17.21,17.21,0,0,1-10.47-15.83,13.2,13.2,0,0,0-13.19-13.18l-.3,0-87.59-13.37a163.72,163.72,0,0,0-49,0l-87.73,13.39h-.15a13.21,13.21,0,0,0-13.19,13.18,17.15,17.15,0,0,1-10.47,15.83l-34,14.38A13.17,13.17,0,0,0,369.74,499v76.75a17.19,17.19,0,0,1-17.18,17.16h-7a17.21,17.21,0,0,1-17.18-17.19V426.11A130.6,130.6,0,0,1,371.51,330c1.24-1.14,2.64-2.34,4.26-3.68,2.1-1.71,4.26-3.47,6.51-5.18,40.37-31.14,89.26-49.94,141.38-54.33,5.2-.47,10.5-.77,15.74-.91,1.33,0,2.7-.07,4.06-.09h9.31c1.19,0,2.36.05,3.52.09,5.38.17,10.67.48,15.7.93,53.91,4.68,104.07,24.59,145,57.58,1.19,1,2.38,1.93,3.54,2.91,1.89,1.58,3.62,3.11,5.28,4.67a130.32,130.32,0,0,1,41.41,94.55V575.74A17.18,17.18,0,0,1,750.11,592.9ZM660.39,439.46a17.2,17.2,0,0,1,17,17.18,13.2,13.2,0,0,0,8,12.15l34,14.38A17.15,17.15,0,0,1,729.93,499v76.75a13.18,13.18,0,0,0,13.16,13.16h7a13.18,13.18,0,0,0,13.16-13.16V426.57a126.28,126.28,0,0,0-40.15-91.64c-1.6-1.52-3.27-3-5.1-4.52-1.16-1-2.32-1.92-3.49-2.86-40.36-32.5-89.77-52.11-142.89-56.71-5-.45-10.17-.76-15.49-.92-1.16-.05-2.3-.07-3.46-.09h-9.16c-1.34,0-2.69.05-4,.09-5.17.14-10.38.44-15.51.89-51.36,4.33-99.53,22.84-139.3,53.53-2.21,1.67-4.34,3.41-6.4,5.09-1.57,1.29-2.92,2.45-4.12,3.55a126.62,126.62,0,0,0-41.81,93.14V575.71a13.2,13.2,0,0,0,13.18,13.19h7a13.19,13.19,0,0,0,13.18-13.16V499a17.13,17.13,0,0,1,10.5-15.82l34-14.38a13.17,13.17,0,0,0,8-12.15,17.21,17.21,0,0,1,17-17.18l87.44-13.34a167.09,167.09,0,0,1,50.22,0Z"/><path class="cls-3" d="M602.11,364.54H620a3.54,3.54,0,0,1,3.54,3.54v88.57A3.54,3.54,0,0,1,620,460.2H601a2.42,2.42,0,0,1-2.42-2.42V368.08A3.54,3.54,0,0,1,602.11,364.54Z" transform="translate(1107.3 -132.73) rotate(98.3)"/><path d="M653.57,433.14a5.39,5.39,0,0,1-.8-.06L565.13,420.3a5.56,5.56,0,0,1-4.69-6.29l2.74-18.78a4.41,4.41,0,0,1,5-3.74l88.75,12.95a5.49,5.49,0,0,1,3.65,2.17,5.56,5.56,0,0,1,1,4.12l-2.58,17.67A5.55,5.55,0,0,1,653.57,433.14Zm-86-37.7a.42.42,0,0,0-.41.36l-2.74,18.79a1.54,1.54,0,0,0,1.3,1.75l87.64,12.78a1.53,1.53,0,0,0,1.75-1.3l2.58-17.67a1.54,1.54,0,0,0-1.3-1.75l-88.76-12.95Z"/><path class="cls-3" d="M475.09,364h19a3.54,3.54,0,0,1,3.54,3.54V456.1a3.54,3.54,0,0,1-3.54,3.54H476.21a3.54,3.54,0,0,1-3.54-3.54V366.41a2.42,2.42,0,0,1,2.42-2.42Z" transform="translate(822.61 -127.69) rotate(81.7)"/><path d="M442.61,432.59a5.56,5.56,0,0,1-5.49-4.74l-2.57-17.67a5.56,5.56,0,0,1,4.68-6.29L528,390.94a4.43,4.43,0,0,1,5,3.74l2.74,18.78a5.57,5.57,0,0,1-4.69,6.29l-87.64,12.78A5.49,5.49,0,0,1,442.61,432.59Zm-1.53-5.32a1.54,1.54,0,0,0,1.75,1.3l87.64-12.78a1.55,1.55,0,0,0,1.31-1.75L529,395.26a.43.43,0,0,0-.48-.36l-88.75,13a1.52,1.52,0,0,0-1,.61,1.56,1.56,0,0,0-.3,1.14Z"/><ellipse cx="527.67" cy="300.83" rx="19.91" ry="7.94" transform="translate(-9.25 584.83) rotate(-57.56)"/><ellipse cx="568.51" cy="300.83" rx="7.94" ry="19.91" transform="translate(-72.66 351.85) rotate(-32.44)"/><polygon class="cls-4" points="357.82 687.91 322.92 702.06 271.29 708.66 273.18 768.04 274.35 787.17 342.73 793.07 383.75 786 395.78 764.07 399.78 750.63 399.08 731.77 392.75 711.49 357.82 687.91"/><path d="M342.73,795.07h-.17l-68.38-5.89a2,2,0,0,1-1.82-1.87l-1.18-19.13-1.89-59.44a2,2,0,0,1,1.75-2.05l51.37-6.57,34.66-14.05a2,2,0,0,1,1.87.2l34.93,23.57a2,2,0,0,1,.79,1.07L401,731.17a1.88,1.88,0,0,1,.08.52l.71,18.86a2,2,0,0,1-.08.65l-4,13.44a1.68,1.68,0,0,1-.16.39L385.5,787a2,2,0,0,1-1.41,1l-41,7.07Zm-66.49-9.74,66.4,5.72,39.82-6.86,11.46-20.9,3.85-12.92-.68-18.26-6-19.35-33.47-22.59-33.91,13.74a1.69,1.69,0,0,1-.49.13l-49.83,6.37L275.17,768Zm46.68-83.27h0Z"/><path class="cls-4" d="M334.55,696.53a43.45,43.45,0,0,1,60.11-8.74c6.8,5,12.29,12.4,12.89,20.79s-4.8,17.42-13.05,19.08"/><path d="M394.49,729.66a2,2,0,0,1-.39-4c7.48-1.5,12-10,11.46-17s-4.91-14.1-12.08-19.32a41.46,41.46,0,0,0-57.35,8.33,2,2,0,1,1-3.17-2.43,45.44,45.44,0,0,1,62.88-9.13c8.12,5.91,13.11,14,13.71,22.26.71,9.91-5.86,19.41-14.66,21.18A2.71,2.71,0,0,1,394.49,729.66Z"/><path class="cls-4" d="M298.41,786.05c-4.31,8.1-13.55,13-22.72,13.07s-18.08-4.35-24.41-11-10.23-15.35-12.09-24.34a65.53,65.53,0,0,1,15.57-56.6c3.61-3.93,8.05-7.58,13.36-8.19s11.69,3,11.89,8.38"/><path d="M275.5,801.12c-9.28,0-18.62-4.22-25.67-11.62-6.15-6.45-10.51-15.2-12.6-25.3a67.51,67.51,0,0,1,16.05-58.36c4.93-5.38,9.71-8.27,14.61-8.83a14.22,14.22,0,0,1,10.51,3.27,9.82,9.82,0,0,1,3.61,7,2,2,0,0,1-4,.15,5.84,5.84,0,0,0-2.21-4.14,10.16,10.16,0,0,0-7.45-2.33c-3.91.44-7.87,2.92-12.12,7.56a63.45,63.45,0,0,0-15.08,54.84c1.94,9.37,5.94,17.44,11.58,23.35,6.29,6.61,14.58,10.38,22.77,10.38h.17c8.76-.06,17.18-4.88,21-12a2,2,0,0,1,3.53,1.87c-4.53,8.52-14.14,14.07-24.48,14.14Z"/><path class="cls-4" d="M361.7,698.8c-5.69,2.16-11.58,4.35-17.65,4s-12.38-4-13.85-9.9c-1.25-5,1.14-10.06,3.19-14.76,4.4-10.08,7.59-21,6.47-32s-7.25-21.85-17.3-26.33-23.74-.6-28.08,9.51c-5.22,12.16,4,25.83,2.94,39-.71,8.82-5.92,16.51-10.46,24.11s-8.67,16.29-6.94,25"/><path d="M280,719.42a2,2,0,0,1-1.95-1.61c-1.89-9.48,2.57-18.65,7.18-26.38L286.7,689c4-6.59,8.13-13.4,8.72-20.82.42-5.21-.92-10.73-2.21-16.07-1.9-7.82-3.86-15.91-.57-23.58a20.5,20.5,0,0,1,11.66-10.82,25.23,25.23,0,0,1,19.08.28c9.93,4.43,17.19,15.4,18.47,27.94,1,9.71-1.17,20.5-6.63,33l-.27.63c-1.89,4.3-3.84,8.75-2.81,12.85,1.27,5.11,7,8.09,12,8.38,5.76.34,11.63-1.89,16.81-3.86a2,2,0,1,1,1.43,3.73c-5.57,2.12-11.87,4.52-18.48,4.13-6.27-.37-13.85-4.1-15.67-11.42-1.36-5.42,1-10.73,3-15.42l.27-.62c5.17-11.84,7.24-22,6.31-31-1.14-11.15-7.47-20.84-16.12-24.7a21.15,21.15,0,0,0-16-.2,16.5,16.5,0,0,0-9.44,8.67c-2.77,6.44-1.05,13.54.78,21.06,1.37,5.64,2.78,11.48,2.31,17.33-.67,8.36-5.05,15.59-9.29,22.58l-1.44,2.39c-4.23,7.07-8.33,15.4-6.7,23.55a2,2,0,0,1-1.57,2.35A1.81,1.81,0,0,1,280,719.42Z"/><path class="cls-4" d="M397.71,726.62a50.89,50.89,0,0,1,11.68,8.8,22.94,22.94,0,0,1,6.4,12.92,17.82,17.82,0,0,1-23,18.92"/><path d="M398,770.06a19.37,19.37,0,0,1-5.83-.89,2,2,0,1,1,1.19-3.81,15.82,15.82,0,0,0,20.45-16.81c-.55-5.13-3.5-9.23-5.87-11.77a50.06,50.06,0,0,0-11.23-8.44,2,2,0,1,1,2-3.44,53.22,53.22,0,0,1,12.12,9.15c2.79,3,6.26,7.84,6.93,14.07A19.8,19.8,0,0,1,398,770.06Z"/><path class="cls-4" d="M392.75,767.26c7.17,4.14,12.36,17.21,9.08,24.81S391,804.76,383,807s-16.4,2-24.67,1.48c-11.44-.66-23-1.73-33.84-5.47s-21-10.45-26.95-20.26"/><path d="M367.59,810.77c-3.16,0-6.3-.15-9.37-.32-10.6-.62-22.88-1.6-34.39-5.58-12.42-4.3-22.36-11.79-28-21.12a2,2,0,0,1,3.43-2.06c5.15,8.52,14.34,15.41,25.88,19.4,11,3.81,23,4.77,33.31,5.36,8.27.48,16.34.73,24-1.4,8.24-2.29,14.79-7.44,17.52-13.77s-1.69-18.5-8.24-22.28a2,2,0,0,1,2-3.47c8.29,4.79,13.48,19.09,9.92,27.33-3.26,7.55-10.6,13.39-20.13,16A59.25,59.25,0,0,1,367.59,810.77Z"/><polygon class="cls-4" points="737.83 683.87 772.72 698.02 824.36 704.62 822.47 764 821.29 783.13 752.92 789.02 711.89 781.95 699.87 760.02 695.86 746.59 696.57 727.73 702.89 707.45 737.83 683.87"/><path d="M752.92,791a1.87,1.87,0,0,1-.34,0l-41-7.08a2,2,0,0,1-1.41-1l-12-21.92a2.2,2.2,0,0,1-.17-.39l-4-13.44a2,2,0,0,1-.09-.65l.71-18.86a2.27,2.27,0,0,1,.09-.52L701,706.85a2.09,2.09,0,0,1,.79-1.06l34.94-23.58a2,2,0,0,1,1.87-.19l34.65,14.05,51.38,6.57a2,2,0,0,1,1.75,2l-1.89,59.39-1.18,19.18a2,2,0,0,1-1.83,1.87L753.09,791Zm-39.74-10.88L753,787l66.4-5.72,1.07-17.41,1.83-57.51L772.47,700a1.76,1.76,0,0,1-.5-.13l-33.91-13.74-33.47,22.58-6,19.36-.69,18.26,3.86,12.92Z"/><path class="cls-4" d="M761.1,692.48A43.46,43.46,0,0,0,701,683.75c-6.81,5-12.29,12.39-12.9,20.79s4.81,17.41,13.06,19.07"/><path d="M701.15,725.61a1.72,1.72,0,0,1-.39,0c-8.8-1.77-15.38-11.26-14.66-21.17.59-8.23,5.59-16.35,13.71-22.26a45.45,45.45,0,0,1,62.88,9.13,2,2,0,0,1-3.18,2.43,41.44,41.44,0,0,0-57.34-8.33c-7.17,5.22-11.57,12.26-12.08,19.32s4,15.46,11.45,17a2,2,0,0,1-.39,4Z"/><path class="cls-4" d="M797.23,782c4.31,8.1,13.55,13,22.73,13.08s18.07-4.35,24.41-11,10.22-15.35,12.09-24.33a65.55,65.55,0,0,0-15.57-56.6c-3.61-3.94-8.06-7.59-13.36-8.19s-11.7,3-11.89,8.38"/><path d="M820.14,797.08H820c-10.34-.07-20-5.62-24.48-14.14a2,2,0,0,1,3.53-1.88c3.79,7.13,12.22,12,21,12h.17c8.2,0,16.49-3.78,22.78-10.38,5.63-5.91,9.64-14,11.58-23.36a63.43,63.43,0,0,0-15.09-54.84c-4.25-4.64-8.21-7.11-12.11-7.56a10.24,10.24,0,0,0-7.45,2.34,5.88,5.88,0,0,0-2.22,4.13,2,2,0,1,1-4-.14,9.76,9.76,0,0,1,3.6-7A14.24,14.24,0,0,1,827.75,693c4.91.56,9.68,3.45,14.61,8.83a67.53,67.53,0,0,1,16.06,58.36c-2.1,10.1-6.46,18.85-12.61,25.3C838.77,792.85,829.42,797.08,820.14,797.08Z"/><path class="cls-4" d="M734,694.75c5.68,2.16,11.58,4.36,17.64,4s12.39-4,13.86-9.9c1.24-5-1.14-10.06-3.2-14.76-4.4-10.08-7.59-21-6.47-32s7.26-21.85,17.3-26.33,23.74-.6,28.08,9.5c5.23,12.17-4,25.84-2.93,39,.71,8.82,5.92,16.51,10.46,24.1s8.67,16.3,6.94,25"/><path d="M815.63,715.38a1.72,1.72,0,0,1-.39,0,2,2,0,0,1-1.57-2.35c1.62-8.15-2.48-16.48-6.7-23.55-.48-.8-1-1.6-1.45-2.4-4.23-7-8.61-14.21-9.29-22.57-.47-5.85.95-11.69,2.32-17.34,1.82-7.51,3.55-14.61.78-21.06a16.55,16.55,0,0,0-9.44-8.66,21.11,21.11,0,0,0-16,.2c-8.66,3.85-15,13.55-16.13,24.7-.92,9,1.15,19.14,6.32,31l.27.62c2,4.69,4.38,10,3,15.42-1.82,7.31-9.4,11-15.68,11.41-6.6.41-12.91-2-18.47-4.12a2,2,0,0,1,1.42-3.74c5.19,2,11.07,4.22,16.82,3.87,5-.3,10.75-3.27,12-8.39,1-4.1-.93-8.54-2.81-12.85l-.28-.62c-5.45-12.49-7.62-23.28-6.63-33,1.29-12.55,8.54-23.52,18.48-27.95a25.23,25.23,0,0,1,19.08-.27A20.51,20.51,0,0,1,803,624.5c3.3,7.67,1.33,15.76-.56,23.58-1.3,5.33-2.64,10.86-2.22,16.07.6,7.41,4.73,14.23,8.72,20.82.49.81,1,1.61,1.46,2.42,4.62,7.72,9.08,16.9,7.19,26.38A2,2,0,0,1,815.63,715.38Z"/><path class="cls-4" d="M697.93,722.58a51.36,51.36,0,0,0-11.68,8.79,23,23,0,0,0-6.39,12.93,17.82,17.82,0,0,0,23,18.92"/><path d="M697.65,766a19.77,19.77,0,0,1-19.78-21.93c.67-6.23,4.14-11.09,6.92-14.07a53.62,53.62,0,0,1,12.13-9.16,2,2,0,1,1,2,3.45,49.58,49.58,0,0,0-11.24,8.44c-2.37,2.54-5.31,6.64-5.87,11.77a15.82,15.82,0,0,0,20.45,16.8,2,2,0,0,1,1.2,3.82A19.69,19.69,0,0,1,697.65,766Z"/><path class="cls-4" d="M702.89,763.22c-7.17,4.14-12.36,17.21-9.07,24.81s10.85,12.68,18.82,14.9,16.41,2,24.67,1.48c11.45-.66,23-1.73,33.85-5.47s21-10.45,26.94-20.26"/><path d="M728.05,806.73a59.53,59.53,0,0,1-15.94-1.87c-9.54-2.65-16.87-8.5-20.13-16-3.56-8.24,1.63-22.55,9.91-27.33a2,2,0,0,1,2,3.46c-6.55,3.78-11,15.86-8.24,22.29s9.29,11.47,17.53,13.76c7.68,2.14,15.74,1.89,24,1.41,10.33-.6,22.28-1.55,33.31-5.37,11.54-4,20.73-10.87,25.88-19.4a2,2,0,1,1,3.42,2.07c-5.63,9.32-15.58,16.82-28,21.12-11.51,4-23.78,5-34.38,5.57C734.35,806.58,731.21,806.73,728.05,806.73Z"/></g></svg>
