<svg width="18" height="273" viewBox="0 0 18 273" fill="none" xmlns="http://www.w3.org/2000/svg">
    <path d="M9 104L8.99999 265" stroke="#FFCDB6" stroke-width="2"/>
    <circle cx="9" cy="264" r="9" transform="rotate(90 9 264)" fill="#04D99D"/>
    <circle cx="9" cy="225" r="9" transform="rotate(90 9 225)" fill="#04D99D"/>
    <circle cx="9" cy="186" r="9" transform="rotate(90 9 186)" fill="#04D99D"/>
    <circle cx="9" cy="147" r="9" transform="rotate(90 9 147)" fill="#04D99D"/>
    <circle cx="9" cy="108" r="9" transform="rotate(90 9 108)" fill="#04D99D"/>
    <circle cx="9" cy="9" r="9" transform="rotate(90 9 9)" fill="#025949"/>
    <path d="M12 89.1803C12 89.287 11.9633 89.3803 11.89 89.4603C11.8167 89.5336 11.7233 89.5703 11.61 89.5703L4.58 89.5703C4.47333 89.5703 4.38333 89.5336 4.31 89.4603C4.23 89.3803 4.19 89.287 4.19 89.1803C4.19 89.0736 4.23 88.9836 4.31 88.9103C4.38333 88.8303 4.47333 88.7903 4.58 88.7903L11.26 88.7903L11.26 84.8803C11.26 84.7736 11.2967 84.6836 11.37 84.6103C11.4367 84.5303 11.5233 84.4903 11.63 84.4903C11.7367 84.4903 11.8267 84.5303 11.9 84.6103C11.9667 84.6836 12 84.7736 12 84.8803L12 89.1803ZM12.05 80.8522C12.05 81.3855 11.93 81.8622 11.69 82.2822C11.45 82.7022 11.12 83.0322 10.7 83.2722C10.28 83.5122 9.80333 83.6322 9.27 83.6322C8.73 83.6322 8.25 83.5122 7.83 83.2722C7.41 83.0322 7.08 82.7022 6.84 82.2822C6.6 81.8622 6.48 81.3855 6.48 80.8522C6.48 80.3189 6.6 79.8455 6.84 79.4322C7.08 79.0122 7.41 78.6822 7.83 78.4422C8.25 78.2022 8.73 78.0789 9.27 78.0722C9.80333 78.0722 10.28 78.1955 10.7 78.4422C11.12 78.6822 11.45 79.0122 11.69 79.4322C11.93 79.8455 12.05 80.3189 12.05 80.8522ZM11.35 80.8522C11.35 80.4655 11.26 80.1189 11.08 79.8122C10.9 79.5055 10.6533 79.2655 10.34 79.0922C10.0267 78.9189 9.67 78.8322 9.27 78.8322C8.87 78.8322 8.51333 78.9189 8.2 79.0922C7.88 79.2655 7.63 79.5055 7.45 79.8122C7.27 80.1189 7.18 80.4655 7.18 80.8522C7.18 81.2389 7.27 81.5855 7.45 81.8922C7.63 82.1989 7.88 82.4422 8.2 82.6222C8.51333 82.7955 8.87 82.8822 9.27 82.8822C9.67 82.8822 10.0267 82.7955 10.34 82.6222C10.6533 82.4422 10.9 82.1989 11.08 81.8922C11.26 81.5855 11.35 81.2389 11.35 80.8522ZM12.05 74.1346C12.05 74.6613 11.93 75.1313 11.69 75.5446C11.4433 75.9513 11.11 76.2746 10.69 76.5146C10.27 76.7479 9.79667 76.8646 9.27 76.8646C8.73667 76.8646 8.26 76.7513 7.84 76.5246C7.42 76.2979 7.09 75.9879 6.85 75.5946C6.60333 75.2013 6.48 74.7479 6.48 74.2346C6.48 73.4013 6.8 72.7246 7.44 72.2046C7.52 72.1313 7.60667 72.1046 7.7 72.1246C7.78667 72.1446 7.86333 72.2013 7.93 72.2946C7.98333 72.3679 8.00333 72.4513 7.99 72.5446C7.97 72.6313 7.92 72.7079 7.84 72.7746C7.4 73.1613 7.18 73.6479 7.18 74.2346C7.18 74.6079 7.27 74.9379 7.45 75.2246C7.63 75.5046 7.87667 75.7246 8.19 75.8846C8.50333 76.0379 8.86333 76.1146 9.27 76.1146C9.67 76.1146 10.0267 76.0313 10.34 75.8646C10.6533 75.6979 10.9 75.4646 11.08 75.1646C11.26 74.8646 11.35 74.5213 11.35 74.1346C11.35 73.6013 11.2067 73.1713 10.92 72.8446C10.8533 72.7646 10.8167 72.6813 10.81 72.5946C10.8033 72.5079 10.83 72.4279 10.89 72.3546C10.9633 72.2746 11.0467 72.2313 11.14 72.2246C11.2333 72.2113 11.3133 72.2413 11.38 72.3146C11.8267 72.8013 12.05 73.4079 12.05 74.1346ZM12.05 68.2076C12.05 68.7209 11.93 69.1809 11.69 69.5876C11.4433 69.9942 11.11 70.3176 10.69 70.5576C10.27 70.7909 9.79667 70.9076 9.27 70.9076C8.73667 70.9076 8.26 70.7876 7.84 70.5476C7.42 70.3009 7.09 69.9676 6.85 69.5476C6.60333 69.1276 6.48 68.6542 6.48 68.1276C6.48 67.6009 6.60333 67.1309 6.85 66.7176C7.09 66.2976 7.42 65.9676 7.84 65.7276C8.26 65.4809 8.73667 65.3542 9.27 65.3476L11.62 65.3476C11.7333 65.3476 11.8267 65.3842 11.9 65.4576C11.9667 65.5309 12 65.6242 12 65.7376C12 65.8509 11.9667 65.9442 11.9 66.0176C11.8267 66.0909 11.7333 66.1276 11.62 66.1276L11.01 66.1276C11.33 66.3542 11.5833 66.6476 11.77 67.0076C11.9567 67.3676 12.05 67.7676 12.05 68.2076ZM11.35 68.1276C11.35 67.7409 11.26 67.3976 11.08 67.0976C10.9 66.7909 10.6533 66.5509 10.34 66.3776C10.02 66.1976 9.66333 66.1076 9.27 66.1076C8.87 66.1076 8.51333 66.1976 8.2 66.3776C7.88667 66.5509 7.64 66.7909 7.46 67.0976C7.27333 67.3976 7.18 67.7409 7.18 68.1276C7.18 68.5076 7.27333 68.8509 7.46 69.1576C7.64 69.4642 7.88667 69.7076 8.2 69.8876C8.51333 70.0676 8.87 70.1576 9.27 70.1576C9.66333 70.1576 10.02 70.0676 10.34 69.8876C10.6533 69.7076 10.9 69.4642 11.08 69.1576C11.26 68.8509 11.35 68.5076 11.35 68.1276ZM12 62.67C12 63.07 11.84 63.4 11.52 63.66C11.1933 63.92 10.7767 64.05 10.27 64.05L4.57 64.05C4.45667 64.05 4.36667 64.0167 4.3 63.95C4.22667 63.8767 4.19 63.7833 4.19 63.67C4.19 63.5567 4.22667 63.4667 4.3 63.4C4.36667 63.3267 4.45667 63.29 4.57 63.29L10.27 63.29C10.5567 63.29 10.79 63.2333 10.97 63.12C11.15 63 11.24 62.85 11.24 62.67L11.24 62.42C11.24 62.32 11.2767 62.24 11.35 62.18C11.4167 62.12 11.5067 62.09 11.62 62.09C11.7333 62.09 11.8267 62.1333 11.9 62.22C11.9667 62.3 12 62.4067 12 62.54L12 62.67ZM12 60.4777C12 60.5977 11.9667 60.6944 11.9 60.7677C11.8267 60.8344 11.73 60.8677 11.61 60.8677L6.92 60.8677C6.8 60.8677 6.70667 60.8344 6.64 60.7677C6.56667 60.6944 6.53 60.5977 6.53 60.4777C6.53 60.3644 6.56667 60.2744 6.64 60.2077C6.70667 60.1344 6.8 60.0977 6.92 60.0977L11.61 60.0977C11.73 60.0977 11.8267 60.1344 11.9 60.2077C11.9667 60.2744 12 60.3644 12 60.4777ZM5.49 60.4877C5.49 60.6344 5.43667 60.7611 5.33 60.8677C5.22333 60.9744 5.09333 61.0277 4.94 61.0277C4.77333 61.0277 4.64333 60.9744 4.55 60.8677C4.45 60.7544 4.4 60.6244 4.4 60.4777C4.4 60.3377 4.45 60.2144 4.55 60.1077C4.64333 59.9944 4.77333 59.9377 4.94 59.9377C5.09333 59.9377 5.22333 59.9911 5.33 60.0977C5.43667 60.2044 5.49 60.3344 5.49 60.4877ZM12.05 56.2271C12.05 56.6204 11.9833 57.0104 11.85 57.3971C11.7167 57.7838 11.5167 58.0971 11.25 58.3371C11.17 58.4104 11.08 58.4404 10.98 58.4271C10.88 58.4138 10.7933 58.3638 10.72 58.2771C10.6533 58.1838 10.6267 58.0871 10.64 57.9871C10.6533 57.8871 10.6967 57.8038 10.77 57.7371C10.9567 57.5771 11.1 57.3671 11.2 57.1071C11.3 56.8404 11.35 56.5471 11.35 56.2271C11.35 55.7338 11.2667 55.3771 11.1 55.1571C10.9267 54.9371 10.72 54.8238 10.48 54.8171C10.24 54.8171 10.0433 54.9304 9.89 55.1571C9.73 55.3838 9.60667 55.7571 9.52 56.2771C9.41333 56.9504 9.22667 57.4438 8.96 57.7571C8.69333 58.0704 8.37667 58.2271 8.01 58.2271C7.67 58.2271 7.38667 58.1371 7.16 57.9571C6.93333 57.7771 6.76333 57.5371 6.65 57.2371C6.53667 56.9371 6.48 56.6071 6.48 56.2471C6.48 55.8004 6.55667 55.4171 6.71 55.0971C6.86333 54.7704 7.07 54.5071 7.33 54.3071C7.41667 54.2404 7.50667 54.2138 7.6 54.2271C7.69333 54.2404 7.77 54.2938 7.83 54.3871C7.87667 54.4671 7.89333 54.5604 7.88 54.6671C7.86 54.7671 7.81 54.8538 7.73 54.9271C7.35667 55.2538 7.17 55.7004 7.17 56.2671C7.17 56.6338 7.24667 56.9271 7.4 57.1471C7.54667 57.3671 7.73333 57.4771 7.96 57.4771C8.18667 57.4771 8.37333 57.3804 8.52 57.1871C8.66667 56.9871 8.78667 56.6138 8.88 56.0671C8.96 55.5671 9.08 55.1738 9.24 54.8871C9.39333 54.5938 9.57667 54.3871 9.79 54.2671C9.99667 54.1404 10.2233 54.0771 10.47 54.0771C10.7833 54.0771 11.06 54.1704 11.3 54.3571C11.5333 54.5371 11.7167 54.7904 11.85 55.1171C11.9833 55.4371 12.05 55.8071 12.05 56.2271ZM12.05 50.3365C12.05 50.8498 11.93 51.3098 11.69 51.7165C11.4433 52.1232 11.11 52.4465 10.69 52.6865C10.27 52.9198 9.79667 53.0365 9.27 53.0365C8.73667 53.0365 8.26 52.9165 7.84 52.6765C7.42 52.4298 7.09 52.0965 6.85 51.6765C6.60333 51.2565 6.48 50.7832 6.48 50.2565C6.48 49.7298 6.60333 49.2598 6.85 48.8465C7.09 48.4265 7.42 48.0965 7.84 47.8565C8.26 47.6098 8.73667 47.4832 9.27 47.4765L11.62 47.4765C11.7333 47.4765 11.8267 47.5132 11.9 47.5865C11.9667 47.6598 12 47.7532 12 47.8665C12 47.9798 11.9667 48.0732 11.9 48.1465C11.8267 48.2198 11.7333 48.2565 11.62 48.2565L11.01 48.2565C11.33 48.4832 11.5833 48.7765 11.77 49.1365C11.9567 49.4965 12.05 49.8965 12.05 50.3365ZM11.35 50.2565C11.35 49.8698 11.26 49.5265 11.08 49.2265C10.9 48.9198 10.6533 48.6798 10.34 48.5065C10.02 48.3265 9.66333 48.2365 9.27 48.2365C8.87 48.2365 8.51333 48.3265 8.2 48.5065C7.88667 48.6798 7.64 48.9198 7.46 49.2265C7.27333 49.5265 7.18 49.8698 7.18 50.2565C7.18 50.6365 7.27333 50.9798 7.46 51.2865C7.64 51.5932 7.88667 51.8365 8.2 52.0165C8.51333 52.1965 8.87 52.2865 9.27 52.2865C9.66333 52.2865 10.02 52.1965 10.34 52.0165C10.6533 51.8365 10.9 51.5932 11.08 51.2865C11.26 50.9798 11.35 50.6365 11.35 50.2565ZM12 43.8389C12 44.1922 11.9167 44.5089 11.75 44.7889C11.5833 45.0622 11.3567 45.2789 11.07 45.4389C10.7767 45.5989 10.4433 45.6789 10.07 45.6789L7.4 45.6789L7.4 46.3289C7.4 46.4289 7.37 46.5122 7.31 46.5789C7.24333 46.6456 7.16333 46.6789 7.07 46.6789C6.97 46.6789 6.89 46.6456 6.83 46.5789C6.76333 46.5122 6.73 46.4289 6.73 46.3289L6.73 45.6789L5.18 45.6789C5.06667 45.6789 4.97333 45.6456 4.9 45.5789C4.82667 45.5056 4.79 45.4122 4.79 45.2989C4.79 45.1856 4.82667 45.0922 4.9 45.0189C4.97333 44.9456 5.06667 44.9089 5.18 44.9089L6.73 44.9089L6.73 43.7789C6.73 43.6789 6.76333 43.5956 6.83 43.5289C6.89 43.4622 6.97 43.4289 7.07 43.4289C7.16333 43.4289 7.24333 43.4622 7.31 43.5289C7.37 43.5956 7.4 43.6789 7.4 43.7789L7.4 44.9089L10.07 44.9089C10.41 44.9089 10.69 44.8089 10.91 44.6089C11.1233 44.4089 11.23 44.1522 11.23 43.8389L11.23 43.5689C11.23 43.4622 11.2667 43.3756 11.34 43.3089C11.4133 43.2422 11.5067 43.2089 11.62 43.2089C11.7333 43.2089 11.8267 43.2489 11.9 43.3289C11.9667 43.4089 12 43.5089 12 43.6289L12 43.8389ZM12 41.4055C12 41.5255 11.9667 41.6221 11.9 41.6955C11.8267 41.7621 11.73 41.7955 11.61 41.7955L6.92 41.7955C6.8 41.7955 6.70667 41.7621 6.64 41.6955C6.56667 41.6221 6.53 41.5255 6.53 41.4055C6.53 41.2921 6.56667 41.2021 6.64 41.1355C6.70667 41.0621 6.8 41.0255 6.92 41.0255L11.61 41.0255C11.73 41.0255 11.8267 41.0621 11.9 41.1355C11.9667 41.2021 12 41.2921 12 41.4055ZM5.49 41.4155C5.49 41.5621 5.43667 41.6888 5.33 41.7955C5.22333 41.9021 5.09333 41.9555 4.94 41.9555C4.77333 41.9555 4.64333 41.9021 4.55 41.7955C4.45 41.6821 4.4 41.5521 4.4 41.4055C4.4 41.2655 4.45 41.1421 4.55 41.0355C4.64333 40.9221 4.77333 40.8655 4.94 40.8655C5.09333 40.8655 5.22333 40.9188 5.33 41.0255C5.43667 41.1321 5.49 41.2621 5.49 41.4155ZM12.05 36.5748C12.05 37.1082 11.93 37.5848 11.69 38.0048C11.45 38.4248 11.12 38.7548 10.7 38.9948C10.28 39.2348 9.80333 39.3548 9.27 39.3548C8.73 39.3548 8.25 39.2348 7.83 38.9948C7.41 38.7548 7.08 38.4248 6.84 38.0048C6.6 37.5848 6.48 37.1082 6.48 36.5748C6.48 36.0415 6.6 35.5682 6.84 35.1548C7.08 34.7348 7.41 34.4048 7.83 34.1648C8.25 33.9248 8.73 33.8015 9.27 33.7948C9.80333 33.7948 10.28 33.9182 10.7 34.1648C11.12 34.4048 11.45 34.7348 11.69 35.1548C11.93 35.5682 12.05 36.0415 12.05 36.5748ZM11.35 36.5748C11.35 36.1882 11.26 35.8415 11.08 35.5348C10.9 35.2282 10.6533 34.9882 10.34 34.8148C10.0267 34.6415 9.67 34.5548 9.27 34.5548C8.87 34.5548 8.51333 34.6415 8.2 34.8148C7.88 34.9882 7.63 35.2282 7.45 35.5348C7.27 35.8415 7.18 36.1882 7.18 36.5748C7.18 36.9615 7.27 37.3082 7.45 37.6148C7.63 37.9215 7.88 38.1648 8.2 38.3448C8.51333 38.5182 8.87 38.6048 9.27 38.6048C9.67 38.6048 10.0267 38.5182 10.34 38.3448C10.6533 38.1648 10.9 37.9215 11.08 37.6148C11.26 37.3082 11.35 36.9615 11.35 36.5748ZM12 31.9073C12 32.0273 11.9667 32.1239 11.9 32.1973C11.8267 32.2639 11.7333 32.2973 11.62 32.2973L6.92 32.2973C6.8 32.2973 6.70667 32.2639 6.64 32.1973C6.56667 32.1239 6.53 32.0273 6.53 31.9073C6.53 31.7939 6.56667 31.7039 6.64 31.6373C6.70667 31.5639 6.8 31.5273 6.92 31.5273L7.26 31.5273C7.01333 31.3139 6.82 31.0506 6.68 30.7373C6.54 30.4173 6.47 30.0739 6.47 29.7073C6.47 29.2339 6.57 28.8106 6.77 28.4373C6.96333 28.0639 7.25 27.7706 7.63 27.5573C8.01 27.3373 8.47333 27.2273 9.02 27.2273L11.62 27.2273C11.7267 27.2273 11.8167 27.2639 11.89 27.3373C11.9633 27.4106 12 27.5006 12 27.6073C12 27.7206 11.9633 27.8139 11.89 27.8873C11.8167 27.9606 11.7267 27.9973 11.62 27.9973L9.02 27.9973C8.4 27.9973 7.94333 28.1706 7.65 28.5173C7.35 28.8573 7.2 29.2806 7.2 29.7873C7.2 30.1139 7.26333 30.4106 7.39 30.6773C7.51667 30.9373 7.69 31.1439 7.91 31.2973C8.13 31.4506 8.38 31.5273 8.66 31.5273L11.62 31.5273C11.7333 31.5273 11.8267 31.5639 11.9 31.6373C11.9667 31.7039 12 31.7939 12 31.9073Z" fill="#45396D"/>
</svg>
