<svg width="1440" height="347" viewBox="0 0 1440 347" fill="none" xmlns="http://www.w3.org/2000/svg">
<path d="M255.5 251C101 221.5 78 89.5 -1.5 69V347.5H1440V236C1440 236 1293 229.5 1126 256.5C891.046 294.487 886.5 276 747 280.5C551.86 286.795 410 280.5 255.5 251Z" fill="#025949"/>
<rect x="143.921" y="151.316" width="12.0614" height="71.2719" rx="2" fill="#FFCDB6"/>
<circle cx="150.5" cy="111.842" r="62.5" fill="#03A678"/>
<circle cx="150.5" cy="49.3421" r="49.3421" fill="#03A678"/>
<path d="M1205.01 268.031C1218.82 268.031 1230.02 256.828 1230.02 243.009C1230.02 229.19 1218.82 217.987 1205.01 217.987C1191.2 217.987 1180 229.19 1180 243.009C1180 256.828 1191.2 268.031 1205.01 268.031Z" fill="#03A678"/>
<path d="M1245.59 268.031C1259.4 268.031 1270.6 256.828 1270.6 243.009C1270.6 229.19 1259.4 217.987 1245.59 217.987C1231.78 217.987 1220.58 229.19 1220.58 243.009C1220.58 256.828 1231.78 268.031 1245.59 268.031Z" fill="#03A678"/>
<path d="M1225.77 251.044C1239.58 251.044 1250.78 239.841 1250.78 226.022C1250.78 212.203 1239.58 201 1225.77 201C1211.96 201 1200.76 212.203 1200.76 226.022C1200.76 239.841 1211.96 251.044 1225.77 251.044Z" fill="#03A678"/>
<path d="M1225.77 273.693C1239.58 273.693 1250.78 262.491 1250.78 248.672C1250.78 234.853 1239.58 223.65 1225.77 223.65C1211.96 223.65 1200.76 234.853 1200.76 248.672C1200.76 262.491 1211.96 273.693 1225.77 273.693Z" fill="#03A678"/>
</svg>
