<?xml version="1.0" encoding="utf-8"?>
<!-- Generator: Adobe Illustrator 25.1.0, SVG Export Plug-In . SVG Version: 6.00 Build 0)  -->
<svg version="1.1" id="Calque_1" xmlns="http://www.w3.org/2000/svg" xmlns:xlink="http://www.w3.org/1999/xlink" x="0px" y="0px"
	 viewBox="0 0 50 50" style="enable-background:new 0 0 50 50;" xml:space="preserve">
<style type="text/css">
	.st0{fill:#BEE2ED;}
	.st1{fill:#F7EBE7;}
	.st2{stroke:#000000;stroke-width:0.5;stroke-miterlimit:10;}
</style>
<g>
	<path class="st0" d="M22.8,4.3c0,0-3.5-1.3-6.5,1c-1.1,0.8-1.9,2-2.4,3.3C13.4,9.9,12,12.3,8.8,12c0,0-2.7-0.2-4.3,1.7
		c-1,1.2-1.1,3-0.4,4.5c0.6,1.3,1.2,3.5-0.8,5.3C2,24.6,1,26,0.5,27.5c-1,3-0.9,7.7,6.1,11.9c11.8,7.1,20.7-6.6,20.7-6.6
		s5.5-7.1,0.9-12.6c-3.4-4.1-3-6.9-2.7-8c0.2-0.6,0.4-1.3,0.4-2C26,8.4,25.6,5.3,22.8,4.3z"/>
	<path class="st1" d="M36.1,5.8C32.8,4.6,29.3,7,29,10.5c-0.3,3.1,0.3,7.1,3.7,9.2c6.4,3.9-5.3,19.6-5.3,19.6s-4.3,5.6,3.6,6.7
		c2.6,0.4,5.2-0.3,7.5-1.4c6.2-3,10.4-8.9,11.3-15.7c0.4-2.8,0.2-6-0.9-9.1C46.2,12.1,40.5,8.3,38.2,7c-0.5-0.3-0.9-0.6-1.4-0.8
		C36.7,6.1,36.5,5.9,36.1,5.8z"/>
	<g>
		<g>
			<g>
				<path class="st2" d="M43.7,25.9c-0.2-0.2-0.6-0.2-0.8,0.1c-0.2,0.2-0.2,0.6,0.1,0.8c1.2,1.1,1.9,2.2,1.9,3.4
					c0,0.8-0.3,1.5-0.9,2.1c-1,1-2.8,1.7-5.4,2.2c-2.4,0.4-5.3,0.6-9,0.6c-5.7,0-9.8-0.5-12.3-1.5c1-0.7,2-1.5,3.1-2.5
					c0.3,0.4,0.8,0.7,1.4,0.7c1.1,0.1,2.1-0.7,2.3-1.9c0.1-0.8,0.1-1.5,0-2.3c1-1,1.9-2,2.7-2.9c0.5,0.8,0.8,1.6,0.9,2.5
					c0.1,0.7,0.2,1.5,0.1,2.3c-0.1,1.1,0.7,2.2,1.9,2.3c1.1,0.1,2.1-0.7,2.2-1.9c0.1-1.2,0.1-2.3-0.2-3.5c-0.2-1.2-0.6-2.3-1.2-3.4
					c1.1,0,2.2,0.1,3.2,0.3c1,1.2,1.6,2.5,1.8,4c0.1,0.7,0.1,1.5,0,2.3c-0.2,1.1,0.6,2.2,1.7,2.3c1.1,0.2,2.2-0.6,2.3-1.8
					c0.2-1.2,0.2-2.3,0-3.5c-0.1-0.7-0.3-1.4-0.5-2c0.6,0.2,1.1,0.5,1.6,0.7c0.3,0.1,0.6,0,0.8-0.3c0.1-0.3,0-0.6-0.3-0.8
					c-3.2-1.6-7.6-2.5-12.1-2.5c0.3-0.4,0.6-0.8,0.9-1.2c1.7-2.4,2.5-4.4,2.5-6c0-1.1-0.4-2.1-1.2-2.9c-1.6-1.6-4.4-1.9-7.8-0.7
					c-3.2,1.1-6.7,3.4-9.8,6.5c-4.4,4.4-7.2,9.6-7.2,13.6c0,1.6,0.5,3,1.4,3.9c0.8,0.8,1.7,1.2,2.9,1.2c1.2,0,2.6-0.4,4.2-1.3
					c0.3-0.2,0.7-0.4,1-0.6c2.6,1.3,7,1.9,13.4,1.9c3.7,0,6.8-0.2,9.2-0.6c2.9-0.5,4.9-1.3,6-2.5c0.8-0.8,1.2-1.8,1.2-2.9
					C46,28.7,45.2,27.2,43.7,25.9L43.7,25.9z M37.7,24.1c0.4,0.9,0.6,1.8,0.8,2.7c0.2,1,0.2,2.1,0,3.1c-0.1,0.5-0.5,0.8-1,0.8
					c-0.5-0.1-0.8-0.5-0.8-1c0.1-0.9,0.1-1.7,0-2.6c-0.2-1.2-0.6-2.4-1.3-3.5C36.2,23.7,36.9,23.9,37.7,24.1L37.7,24.1z M22.9,29.8
					c0,0.5-0.4,0.8-0.9,0.8c-0.3,0-0.5-0.1-0.7-0.4c0.5-0.5,1.1-1,1.7-1.6C22.9,29.1,22.9,29.4,22.9,29.8L22.9,29.8z M30.6,26.7
					c0.2,1,0.2,2.1,0.1,3.1c0,0.5-0.5,0.9-1,0.8c-0.5-0.1-0.9-0.5-0.8-1c0.1-0.9,0-1.7-0.1-2.6c-0.2-1.1-0.6-2.2-1.3-3.2
					c0.2-0.3,0.5-0.6,0.7-0.8c0.3,0,0.6,0,0.9,0C29.9,24.2,30.4,25.4,30.6,26.7L30.6,26.7z M21.2,13.4c0.9,0.3,1.7,0.8,2.4,1.4
					c0.8,0.6,1.6,1.4,2.2,2.2c0.3,0.4,0.2,0.9-0.1,1.2c-0.4,0.4-1,0.3-1.4-0.1c-0.5-0.7-1.1-1.3-1.8-1.8c-1-0.7-2.1-1.3-3.4-1.6
					C19.8,14.1,20.5,13.7,21.2,13.4L21.2,13.4z M9.9,24.5c0.9,0.3,1.7,0.7,2.5,1.3c0.9,0.6,1.6,1.3,2.3,2.1c0.3,0.4,0.3,0.9,0,1.2
					c-0.4,0.4-1,0.3-1.4-0.1c-0.6-0.7-1.2-1.3-1.9-1.7c-0.7-0.5-1.5-0.9-2.3-1.1C9.3,25.6,9.6,25,9.9,24.5L9.9,24.5z M14.6,33.9
					c-2.6,1.4-4.5,1.5-5.7,0.3c-0.7-0.7-1.1-1.8-1.1-3.1c0-1.2,0.3-2.5,0.8-3.9c0.8,0.2,1.5,0.6,2.1,1c0.6,0.4,1.2,0.9,1.7,1.5
					c0.8,0.9,2.2,1,3.1,0.2c0.8-0.8,0.8-1.9,0.1-2.8c-0.7-0.9-1.6-1.7-2.6-2.3c-0.8-0.5-1.6-1-2.6-1.3c0.5-0.7,1-1.5,1.6-2.2
					c1.2,0.1,2.8,0.4,4.3,1.4c0.6,0.4,1.2,0.9,1.7,1.5c0.7,0.9,2,1,2.9,0.3c0.9-0.7,1-2,0.3-2.9c-0.5-0.6-1-1.1-1.5-1.5
					c-0.2-0.2-0.6-0.2-0.8,0.1c-0.2,0.2-0.2,0.6,0.1,0.8c0.5,0.4,1,0.9,1.4,1.4c0.3,0.4,0.3,1-0.1,1.3c-0.4,0.3-1,0.3-1.3-0.1
					c-0.6-0.7-1.2-1.3-1.9-1.7c-1.2-0.8-2.6-1.3-4-1.5c0.5-0.5,0.9-1.1,1.4-1.6c0.9,0.2,1.7,0.5,2.4,0.9c0.3,0.1,0.6,0,0.8-0.3
					c0.1-0.3,0-0.6-0.3-0.8c-0.6-0.3-1.3-0.6-2-0.8c0.8-0.8,1.6-1.5,2.5-2.1c1.5,0.2,2.9,0.7,4,1.5c0.6,0.4,1.1,1,1.6,1.6
					c0.7,1,2.2,1.1,3.1,0.3c0.8-0.7,0.9-1.9,0.3-2.8c-0.7-0.9-1.5-1.8-2.4-2.4c-0.6-0.4-1.1-0.8-1.8-1.1c0.5-0.2,1-0.4,1.4-0.6
					c1.3-0.4,2.4-0.7,3.5-0.7c1.3,0,2.4,0.4,3.1,1.1c0.6,0.6,0.8,1.2,0.8,2.1c0,1.4-0.8,3.2-2.3,5.4c-0.8,1.1-1.7,2.4-2.7,3.4
					C23,27,18.8,31.5,14.6,33.9L14.6,33.9z"/>
			</g>
		</g>
	</g>
</g>
</svg>
