<?xml version="1.0" encoding="utf-8"?>
<!-- Generator: Adobe Illustrator 25.1.0, SVG Export Plug-In . SVG Version: 6.00 Build 0)  -->
<svg version="1.1" id="Calque_1" xmlns="http://www.w3.org/2000/svg" xmlns:xlink="http://www.w3.org/1999/xlink" x="0px" y="0px"
	 viewBox="0 0 1320 700" style="enable-background:new 0 0 1320 700;" xml:space="preserve">
<style type="text/css">
	.st0{fill:#E3572C;}
	.st1{fill:#EEAD1C;}
	.st2{fill:#1A2347;}
	.st3{fill:none;stroke:#FFDDA4;stroke-linecap:round;stroke-miterlimit:10;}
	.st4{fill:#BEE2ED;}
	.st5{fill:#E3572B;}
	.st6{fill:none;stroke:#FDDBA3;stroke-linecap:round;stroke-miterlimit:10;}
	.st7{fill:#EDAC1D;}
	.st8{fill:#BEE2EC;}
</style>
<g>
	<polygon class="st0" points="1186.6,434.3 1278.2,448.7 1217.9,406.3 1214.6,419.5 1192.2,423.3 	"/>
	<polygon class="st1" points="1278.2,448.7 1202.4,408.2 1127.6,403.4 	"/>
	<polygon class="st1" points="1217.9,406.3 1278.2,448.7 1232,383.1 	"/>
</g>
<g>
	<g>
		<path class="st2" d="M60.5,660.8c0,0-21.5-14-24.1-35.1c-0.3-2.7-0.2-5.5,0.3-8.2c0.5-2.9,0.2-8.8-7.7-14.7
			c-11.1-8.1-11.6-20.5,1.4-28.3c13-7.9,24.3,4.2,26.4,8.8s12,6.9,16.9,5.9c4.8-0.9,14.4,6.5,13.8,15.6c-0.6,9,0.3,15.8,5.6,17.4
			c5.3,1.6,9.7,6.8,9,11.2L60.5,660.8z"/>
		<path class="st3" d="M38,586.7c0,0,27.1,23,36.2,52.4"/>
	</g>
	<g>
		<path class="st1" d="M69.8,650.2c0,0-30-27.5-50-16.5c-5.7,3.1-9.1,9.3-9.1,16c0.1,10.1,5.8,24.4,40.4,15.8L69.8,650.2z"/>
		<path class="st3" d="M18.8,645c0,0,19.3-3.1,36.7,13"/>
	</g>
	<path class="st4" d="M175.8,669.2c0,12.4-10.1,30.6-22.4,30.6c-0.7,0-1.3,0-2-0.1H94c-0.1,0-0.1,0.1-0.2,0.1H36.5
		c2.1-7.4,8.9-21,17-21c0.6,0,1.1,0,1.7,0.1c-1.3-3-2-6.3-2-9.7c0-13.8,11.9-25,26.7-25.5c3.1-8.4,11.2-15.2,20.8-15.2
		c4.1,0,7.9,1.9,11.1,3.8c3.4-4.3,8.7-7.2,14.7-7.2c10.2,0,18.6,8.4,18.6,18.6c0,1.7-0.2,3.4-0.7,4.9c2.8-1.2,5.8-1.9,9.1-1.9
		C165.8,646.8,175.8,656.8,175.8,669.2z"/>
	<path class="st1" d="M266,700H85.4c17.1-14.2,27.8-28.5,38.6-30.1c22.3-3.4,28.1,6.3,48.2,0.2c16.1-4.9,21-13.7,38.8-14.7
		c10.4-0.6,18.2,1.8,20.2,2.5C253.4,665.2,263.6,694.5,266,700z"/>
	<g>
		<g>
			<path class="st2" d="M397.2,641.3c0,0,22-24.6,20.2-53.9c-0.2-3.8-1.1-7.4-2.2-11c-1.2-3.8-2.3-12,5.6-21.9
				c11.1-13.9,8.9-30.9-8-38.1c-10.6-4.5-24.7,7.9-28.9,18.8c-1.5,3.8-1.6,7.2-5,10c-4.4,3.6-8.4,1.3-13.4,3.5
				c-8.3,3.6-14.5,15.3-12.6,23.6c2.8,12.1,3.1,21.4-2.8,25c-5.8,3.6-9.8,11.8-8,17.4L397.2,641.3z"/>
			<path class="st3" d="M406.8,535c0,0-26.5,38.2-30.5,80.5"/>
		</g>
		<g>
			<path class="st1" d="M383.9,631.1c0,0,28.8-38.9,54.7-30.5c7.4,2.4,12.8,8.8,14.2,16.5c2.2,11.8-1.3,29.8-43.6,27.5L383.9,631.1z
				"/>
			<path class="st3" d="M442.3,613.5c0,0-23.3,0.7-39.9,23.4"/>
		</g>
		<g>
			<path class="st1" d="M352.4,608.4c0,0-28.8-38.9-54.7-30.5c-7.4,2.4-12.8,8.8-14.2,16.5c-2.2,11.8,1.3,29.8,43.6,27.5
				L352.4,608.4z"/>
			<path class="st3" d="M294,590.8c0,0,23.3,0.7,39.9,23.4"/>
		</g>
		<path class="st4" d="M256.5,700c1.6-5.1,5.1-17.3,9.4-20.4c-11.2-3.4-19.4-13.4-19.4-25.2c0-14.7,12.5-26.4,27.9-26.4
			c4.3,0,8.4,0.9,12,2.5c1.1-13.8,13.1-24.6,27.8-24.6c4.7,0,9,1.1,12.9,2.9c4.7-6.1,12.9-10.1,22.4-10.1c8.4,0,15.7,3.1,20.5,8
			c3.9-2.2,8.5-3.5,13.4-3.5c14.4,0,26.1,11.1,26.1,24.8c0,2.3-0.3,4.5-1,6.6c3.9-1.6,8.2-2.5,12.8-2.5c17.7,0,31.8,13.4,31.8,30
			c0,16.5-13.9,37.8-31.4,37.8c-1,0-2.3,0.1-3.3,0h-80.2"/>
	</g>
</g>
<g>
	<g>
		<path class="st5" d="M137.5,117c-8.1,25.1-32.1,30.3-53.4,16.3c-15.2-10.1-26.6-7.5-32-5.3c-5,2.1-10,3.7-15.4,4.6
			c-7.7,1.2-15.2,1.2-22.4,0.3c-5.1-0.6-10-1.5-14.7-2.7V28.3c5.5,1.5,10.9,5,14.2,9.4c5.9,8,19.1,6.3,36,0.8
			c11.6-3.8,29.1,3.7,35.3,15c3.8,7,1,12.9,6.7,18.7c4.4,4.4,9.2,4.2,14.9,5.9C123,82.7,142.6,101.3,137.5,117z"/>
		<path class="st6" d="M110.4,110.7c0,0-49.4-33.4-110.2-33.6"/>
	</g>
	<path class="st7" d="M20.8,164.5c-2.4,10.7-10.6,19-21.1,22.1v-72.5c5.5,5.6,10.7,11.9,14.7,18.7C20.1,142.8,23.3,153.6,20.8,164.5
		z"/>
</g>
<g>
	<g>
		<path class="st5" d="M1275.8,668.7c0,0,28.9-32.4,26.6-70.8c-0.3-4.9-1.4-9.7-2.9-14.4c-1.6-5.1-3-15.7,7.4-28.7
			c14.5-18.3,11.7-40.5-10.5-50c-13.9-5.9-32.5,10.4-38,24.7c-1.9,5.1-2.2,9.5-6.6,13.1c-5.8,4.7-11,1.7-17.6,4.6
			c-10.9,4.7-19,20.1-16.6,31c3.7,15.9,4.1,28.1-3.7,32.8c-7.6,4.7-12.9,15.5-10.5,22.9L1275.8,668.7z"/>
		<path class="st6" d="M1288.3,529.1c0,0-34.8,50.2-40,105.7"/>
	</g>
	<path class="st7" d="M1320.2,613.7v58.1c-7.6,1.4-17,2-28.8,1.3l-33.1-17.7c0,0,12.9-17.4,30.4-29.7
		C1298.3,618.8,1309.3,613.6,1320.2,613.7z"/>
	<path class="st8" d="M1320.2,702.7H983.5c11-15.8,30.7-26.3,53.2-26.3c5.9,0,11.6,0.7,17,2.1c5,1.2,10-1.7,11.5-6.7
		c7-23.8,47.9-28.3,76.9-28.3c32.5,0,66.8-46.6,103.8-14.8c2.6,2.2,6.4,2.5,9.5,1.2c7.5-3.1,15.9-4.9,24.8-4.9
		c2.9,0,5.8,0.2,8.7,0.6c12.1,1.6,23,6.5,31.4,13.6L1320.2,702.7z"/>
</g>
</svg>
