<?xml version="1.0" encoding="utf-8"?>
<!-- Generator: Adobe Illustrator 25.1.0, SVG Export Plug-In . SVG Version: 6.00 Build 0)  -->
<svg version="1.1" xmlns="http://www.w3.org/2000/svg" xmlns:xlink="http://www.w3.org/1999/xlink" x="0px" y="0px"
	 viewBox="0 0 1320 700" style="enable-background:new 0 0 1320 700;" xml:space="preserve">
<style type="text/css">
	.st0{fill:#2A315B;}
</style>
<g id="Calque_1">
	<g>
		<path class="st0" d="M776.2,312.1l-112.5-82.4c-2.2-1.6-5.1-1.6-7.3,0l-112.5,82.4c-2.7,2-3.3,5.9-1.3,8.6c2,2.7,5.9,3.3,8.6,1.3
			L660,242.4l108.9,79.7c1.1,0.8,2.4,1.2,3.6,1.2c1.9,0,3.8-0.9,5-2.5C779.5,318,778.9,314.1,776.2,312.1L776.2,312.1z"/>
		<path d="M776.2,312.1"/>
		<path class="st0" d="M746.3,323.5c-3.4,0-6.2,2.8-6.2,6.2v98.2h-49.3v-53.6c0-17-13.8-30.8-30.8-30.8c-17,0-30.8,13.8-30.8,30.8
			v53.6h-49.3v-98.2c0-3.4-2.8-6.2-6.2-6.2c-3.4,0-6.2,2.8-6.2,6.2V434c0,3.4,2.8,6.2,6.2,6.2h61.7c3.2,0,5.9-2.5,6.1-5.7
			c0-0.1,0-0.3,0-0.5v-59.8c0-10.2,8.3-18.5,18.5-18.5c10.2,0,18.5,8.3,18.5,18.5V434c0,0.2,0,0.3,0,0.5c0.2,3.2,2.9,5.7,6.1,5.7
			h61.7c3.4,0,6.2-2.8,6.2-6.2V329.7C752.5,326.2,749.7,323.5,746.3,323.5L746.3,323.5z M746.3,323.5"/>
		<rect x="567.5" y="301.1" class="st0" width="12.3" height="41.5"/>
		<rect x="740.2" y="301.1" class="st0" width="12.3" height="41.5"/>
	</g>
</g>
<g id="Calque_2">
</g>
</svg>
