<svg width="238" height="213" viewBox="0 0 238 213" fill="none" xmlns="http://www.w3.org/2000/svg">
<path d="M235.2 84.1L122.7 1.7C120.5 0.1 117.6 0.1 115.4 1.7L2.90005 84.1C0.200047 86.1 -0.400002 90 1.6 92.7C3.6 95.4 7.50004 96 10.2 94L119 14.4L227.9 94.1C229 94.9 230.3 95.3 231.5 95.3C233.4 95.3 235.3 94.4 236.5 92.8C238.5 90 237.9 86.1 235.2 84.1Z" fill="#2A315B"/>
<path d="M205.3 95.5C201.9 95.5 199.1 98.3 199.1 101.7V199.9H149.8V146.3C149.8 129.3 136 115.5 119 115.5C102 115.5 88.2 129.3 88.2 146.3V199.9H38.9V101.7C38.9 98.3 36.1 95.5 32.7 95.5C29.3 95.5 26.5 98.3 26.5 101.7V206C26.5 209.4 29.3 212.2 32.7 212.2H94.4C97.6 212.2 100.3 209.7 100.5 206.5C100.5 206.4 100.5 206.2 100.5 206V146.2C100.5 136 108.8 127.7 119 127.7C129.2 127.7 137.5 136 137.5 146.2V206C137.5 206.2 137.5 206.3 137.5 206.5C137.7 209.7 140.4 212.2 143.6 212.2H205.3C208.7 212.2 211.5 209.4 211.5 206V101.7C211.5 98.2 208.7 95.5 205.3 95.5Z" fill="#2A315B"/>
<path d="M38.8 73.1H26.5V114.6H38.8V73.1Z" fill="#2A315B"/>
<path d="M211.5 73.1H199.2V114.6H211.5V73.1Z" fill="#2A315B"/>
</svg>
