<svg width="441" height="579" viewBox="0 0 441 579" fill="none" xmlns="http://www.w3.org/2000/svg">
<g clip-path="url(#clip0)">
<g clip-path="url(#clip1)">
<path d="M269.36 358.06L265.71 409.2C265.71 409.2 287.19 427.65 317.4 410.09L317 371.74C317 371.74 281 337.81 269.36 358.06Z" fill="#F6AF8D"/>
<path d="M269.18 577.18H401.74C395.45 504.18 375.74 424.43 321.37 404.18C320.104 403.62 318.751 403.281 317.37 403.18C315.15 403.24 315.08 405.34 308.37 406.75C302.875 407.719 297.298 408.138 291.72 408C288.461 408.033 285.205 407.779 281.99 407.24C271.68 405.41 270.99 400.86 266.3 401.39C265.83 401.44 265.365 401.53 264.91 401.66H264.85H264.77C262.37 402.327 260.037 403.093 257.77 403.96H257.69C243.1 409.69 231.14 419.96 221.38 433.36C195.99 468.28 185.52 524.42 181.84 577.01H269.37L269.18 577.18Z" fill="#E3572C"/>
<path d="M337.06 327.06C337.06 327.06 335.68 303.06 330.92 296.24C312.92 270.41 253.43 265.82 248.36 319.41C248.36 319.41 247.36 314.48 246.77 323.82C246.77 323.82 237.3 316.26 237.31 329.23C237.31 341.01 238.98 345.99 248.31 354.33C248.31 354.33 263.88 389.01 301.17 387.15C315.42 386.44 326.47 372 331.59 358.21C334.999 348.168 336.844 337.662 337.06 327.06Z" fill="#F9C7A6"/>
<path d="M335.22 326.1C335.22 326.1 339.92 321.1 342.91 325.1C345.9 329.1 345.1 348.15 335.06 352.44C325.02 356.73 335.22 326.1 335.22 326.1Z" fill="#F9C7A6"/>
<path d="M263.91 352.83C268.77 352.83 272.71 348.89 272.71 344.03C272.71 339.17 268.77 335.23 263.91 335.23C259.05 335.23 255.11 339.17 255.11 344.03C255.11 348.89 259.05 352.83 263.91 352.83Z" fill="#F6AF8D"/>
<path d="M321.79 352.83C326.65 352.83 330.59 348.89 330.59 344.03C330.59 339.17 326.65 335.23 321.79 335.23C316.93 335.23 312.99 339.17 312.99 344.03C312.99 348.89 316.93 352.83 321.79 352.83Z" fill="#F6AF8D"/>
<path d="M278.89 332.03C279.801 332.03 280.54 331.291 280.54 330.38C280.54 329.469 279.801 328.73 278.89 328.73C277.979 328.73 277.24 329.469 277.24 330.38C277.24 331.291 277.979 332.03 278.89 332.03Z" fill="#192624"/>
<path d="M312.39 331.12C313.301 331.12 314.04 330.381 314.04 329.47C314.04 328.559 313.301 327.82 312.39 327.82C311.479 327.82 310.74 328.559 310.74 329.47C310.74 330.381 311.479 331.12 312.39 331.12Z" fill="#192624"/>
<path d="M291.59 345C291.59 345 298.66 347.46 301.8 342.08C301.8 342.1 299.53 351.29 291.59 345Z" fill="#F6AF8D"/>
<path d="M283.66 313.45C283.66 313.45 274.66 308.8 268.66 316.39" stroke="#F7EAE6" stroke-width="2" stroke-miterlimit="10" stroke-linecap="round"/>
<path d="M308.43 314.47C308.43 314.47 317.43 309.81 323.43 317.41" stroke="#F7EAE6" stroke-width="2" stroke-miterlimit="10" stroke-linecap="round"/>
<path d="M252.84 576.18H125C132.06 537.3 183 481.28 199 457.23C204.84 448.48 212.8 440.07 221.18 432.53C234.709 420.597 249.311 409.938 264.8 400.69C264.8 400.98 264.99 404.18 265.21 409.61C266.41 438.26 268.51 528.91 252.84 576.18Z" fill="#2A315B"/>
<path d="M210.8 478.32C203.8 506.49 197.44 543.48 192.49 576.18" stroke="#2A315B" stroke-width="2" stroke-miterlimit="10"/>
<path d="M369.61 576.18C366.39 545.83 362.29 515.54 357.27 494.1" stroke="#2A315B" stroke-width="2" stroke-miterlimit="10"/>
<path d="M271.91 336.48C273.051 337.602 274.413 338.474 275.91 339.04C278.047 339.855 280.373 340.035 282.61 339.56" stroke="#F6AF8D" stroke-width="0.5" stroke-miterlimit="10"/>
<path d="M307.52 339.37C309.027 339.883 310.623 340.08 312.21 339.95C314.487 339.746 316.659 338.896 318.47 337.5" stroke="#F6AF8D" stroke-width="0.5" stroke-miterlimit="10"/>
<path d="M287 362C287 362 287.84 366.28 293.9 367C299.96 367.72 301.9 360.25 296.55 362.11C291.2 363.97 286.79 358 287 362Z" fill="#F6AF8D" stroke="#1D1D1B" stroke-width="0.1" stroke-miterlimit="10"/>
<path d="M280.46 357.49C285.09 352.85 296.65 343.84 306.25 357.74C306.84 358.59 306.31 359.94 305.37 359.93L281.11 359.78C280.11 359.77 279.68 358.28 280.46 357.49Z" fill="#F7EAE6"/>
<path d="M290.85 364.92C291.239 364.621 291.703 364.433 292.191 364.376C292.679 364.32 293.173 364.397 293.62 364.6C293.62 364.6 295.09 363.71 296.69 365.55C295.734 365.904 294.709 366.031 293.696 365.922C292.683 365.812 291.708 365.469 290.85 364.92Z" fill="#F9C7A6"/>
<path d="M269.18 577.18C269.707 573.393 270.223 569.61 270.73 565.83L270.79 565.38C272.15 555.27 273.44 545.21 274.65 535.38L274.77 534.43C275.82 525.91 276.77 517.56 277.77 509.49C279.13 497.66 280.36 486.43 281.45 476.15C281.51 475.64 281.56 475.15 281.61 474.64C284.96 442.93 286.91 420.53 287.04 417.64C287.045 417.57 287.045 417.5 287.04 417.43C287.12 413.87 284.94 410.28 281.97 407.2C276.27 401.3 267.67 397.29 266.45 398.97C265.91 399.71 259.02 403.3 257.74 403.97L257.64 404.02C255.56 404.45 188.56 419.02 146.77 509.4C138.55 527.16 129.5 551.15 121.31 577.13H269.18V577.18Z" fill="#2A315B"/>
<path d="M440.52 577.18H320.3C318.44 561.67 316.73 546.18 315.18 531.25V530.9C313.96 519.35 312.87 508.15 311.86 497.53C308 456.93 305.57 424.94 304.86 415.67C304.72 414.02 304.64 413.09 304.61 412.95C304.4 411.95 306.11 409.46 308.43 406.77C311.29 403.43 315.08 399.84 317.37 398.55C318.52 397.89 319.3 397.82 319.37 398.65C319.71 401.84 331.84 407.02 335.84 408.65C336.25 408.81 336.67 408.97 337.08 409.15H337.13C357.76 417.61 393.76 439.01 414.37 489.31C423.64 512.09 433 543.73 440.52 577.18Z" fill="#2A315B"/>
<path d="M313.92 568.14L309.8 577.14H295.92L290.55 568.54L301.55 543.44L313.92 568.14Z" fill="#D03E18"/>
<path d="M277.71 509.58C278.71 507.3 279.71 505 280.71 502.7L293.13 527.36C289.797 534.647 286.463 541.947 283.13 549.26C280.28 544.71 277.45 540.15 274.59 535.6L277.71 509.58Z" fill="#D03E18"/>
<path d="M269.18 577.18H276.72L270.79 565.38L270.73 565.83L269.12 577.18H269.18Z" fill="#D03E18"/>
<path d="M315.18 531.25C311.59 525.57 308.05 519.89 304.5 514.25L311.82 497.55L315.18 531.25Z" fill="#D03E18"/>
<path d="M292.1 450.59L281.1 475.69L294.51 497.14L304.51 475.25L292.1 450.59Z" fill="#D03E18"/>
<path d="M261.58 407.76C261.58 407.76 274.07 416.71 278.35 423.43" stroke="#4A547E" stroke-width="2" stroke-miterlimit="10" stroke-linecap="round"/>
<path d="M311.25 421.38C311.25 421.38 317.25 409.93 324.94 407.76" stroke="#4A547E" stroke-width="2" stroke-miterlimit="10" stroke-linecap="round"/>
<path d="M231.83 472.86C212.31 502.5 201 542.25 194.47 576.18" stroke="#1A213D" stroke-miterlimit="10" stroke-linecap="round"/>
<path d="M390.54 576.18C386.391 551.047 380.774 526.177 373.72 501.7" stroke="#1A213D" stroke-miterlimit="10" stroke-linecap="round"/>
<path d="M257 316.39C257 316.39 261.76 306.77 263.21 307.26C264.66 307.75 330.62 308.73 330.62 308.73C330.62 308.73 333.62 313.53 333.81 315.23C334 316.93 335.46 302 335.46 302L258.66 303.11L257 316.39Z" fill="#F6AF8D"/>
<path d="M262.19 304.87C263.19 304.96 264.19 305.05 265.28 305.13L262.19 304.87ZM334.19 286.93C326.14 277.69 315.63 274.93 289.6 276.06C247.36 277.83 244.22 301.29 246.2 323.39C246.99 332.18 248.59 340.77 248.85 347.69C248.743 350.314 248.786 352.941 248.98 355.56C249.93 368.69 254.91 380.41 267.3 387.21C274.43 391.14 284.02 393.43 296.72 393.43C305.42 393.43 312.09 391.67 317.21 388.8C331.72 380.68 333.79 363.69 334.21 352.7C334.25 351.44 334.28 350.27 334.3 349.19C334.3 348.68 334.3 348.19 334.3 347.73C334.56 344.032 335.078 340.356 335.85 336.73C336.07 335.82 336.39 334.67 336.75 333.32C337.45 330.72 338.33 327.39 339.09 323.64C340.176 318.563 340.755 313.391 340.82 308.2C340.83 300.46 339.21 292.7 334.17 286.93H334.19ZM332.09 337.44C332.09 337.44 332.09 337.51 332.09 337.54C331.893 339.116 331.585 340.677 331.17 342.21C330.99 342.88 330.81 343.53 330.62 344.21C329.78 347.02 328.93 349.21 328.93 349.21C328.3 350.88 327.65 352.69 327 354.57C325.14 360 318.84 364.19 311.6 367.03C305.201 369.522 298.454 371.003 291.6 371.42C285.36 371.67 276.45 367.59 269.05 362.92C263.39 359.34 258.6 355.42 256.56 352.82C251.89 346.9 253.31 331.45 253.37 331.14C254.302 326.156 255.514 321.228 257 316.38C259.85 307.38 262.21 304.89 262.21 304.89C263.21 304.98 264.21 305.07 265.3 305.15H265.67C281.25 306.3 303.87 306.15 315.67 305.99C318.58 305.99 325.49 306.17 329.42 306.31L332.27 306.41C332.27 306.53 332.34 306.66 332.38 306.81C333.044 309.611 333.538 312.45 333.86 315.31C334.152 317.732 334.273 320.171 334.22 322.61C333.72 329.36 332.61 333.21 332.15 337.38C332.141 337.377 332.131 337.376 332.121 337.377C332.111 337.379 332.102 337.383 332.094 337.389C332.086 337.394 332.08 337.402 332.075 337.411C332.071 337.42 332.069 337.43 332.07 337.44H332.09Z" fill="#F7EAE6"/>
<path d="M265.65 305.16L261.99 298.8L262.18 304.87L265.65 305.16Z" fill="#F6AF8D"/>
<path d="M328.86 307.26L332.23 300.75L332.31 306.82L328.86 307.26Z" fill="#F6AF8D"/>
<path d="M0 30.54V153.44C0.0079321 161.539 3.22744 169.305 8.95251 175.033C14.6776 180.762 22.4409 183.987 30.54 184H241.47C245.474 184.007 249.439 183.224 253.14 181.698C256.841 180.172 260.206 177.931 263.041 175.104C265.876 172.278 268.126 168.92 269.664 165.223C271.201 161.527 271.995 157.564 272 153.56V153.44V30.54C271.992 22.4445 268.773 14.6826 263.05 8.95726C257.326 3.23191 249.566 0.0105889 241.47 0L30.54 0C22.4444 0.0132217 14.6841 3.23506 8.95956 8.95956C3.23506 14.6841 0.0132217 22.4444 0 30.54H0Z" fill="#F1B705"/>
<path d="M0 30.54V153.44C0.0079321 161.539 3.22744 169.305 8.95251 175.033C14.6776 180.762 22.4409 183.987 30.54 184H154.93L216.3 225.26C217.094 225.832 217.993 226.242 218.945 226.467C219.897 226.691 220.884 226.726 221.85 226.569C222.816 226.412 223.741 226.067 224.573 225.552C225.405 225.037 226.128 224.364 226.7 223.57L226.77 223.47C227.44 222.563 227.881 221.507 228.055 220.393C228.229 219.278 228.131 218.138 227.77 217.07L219.13 183.9H241.62C245.619 183.912 249.581 183.136 253.28 181.617C256.978 180.097 260.342 177.864 263.178 175.045C266.014 172.226 268.267 168.876 269.808 165.186C271.349 161.496 272.148 157.539 272.16 153.54V144.4C254.637 150.528 236.204 153.652 217.64 153.64C190.447 153.611 163.687 146.821 139.77 133.88C138.58 133.14 137.24 132.54 136.05 131.8C112.674 118.334 93.0383 99.2344 78.9295 76.2408C64.8207 53.2472 56.6874 27.0898 55.27 0.150008H30.54C26.5399 0.139488 22.577 0.916947 18.8774 2.43799C15.1778 3.95904 11.814 6.19389 8.97807 9.01494C6.14216 11.836 3.88968 15.188 2.34922 18.8795C0.808756 22.5711 0.010492 26.5299 0 30.53L0 30.54Z" fill="#EEAD07"/>
<path d="M14.4841 54.114C13.7241 54.114 13.0211 53.9493 12.3751 53.62C11.7291 53.2907 11.2034 52.822 10.7981 52.214L11.6341 51.264C12.3687 52.3533 13.3251 52.898 14.5031 52.898C16.1497 52.898 16.9731 51.9227 16.9731 49.972V41.916H12.1091V40.7H18.3601V49.915C18.3601 51.3083 18.0307 52.3597 17.3721 53.069C16.7261 53.7657 15.7634 54.114 14.4841 54.114ZM30.9946 49.421H22.6346C22.7106 50.4597 23.1096 51.302 23.8316 51.948C24.5536 52.5813 25.4656 52.898 26.5676 52.898C27.1883 52.898 27.7583 52.7903 28.2776 52.575C28.797 52.347 29.2466 52.0177 29.6266 51.587L30.3866 52.461C29.9433 52.993 29.386 53.3983 28.7146 53.677C28.056 53.9557 27.3276 54.095 26.5296 54.095C25.5036 54.095 24.5916 53.8797 23.7936 53.449C23.0083 53.0057 22.394 52.3977 21.9506 51.625C21.5073 50.8523 21.2856 49.9783 21.2856 49.003C21.2856 48.0277 21.4946 47.1537 21.9126 46.381C22.3433 45.6083 22.926 45.0067 23.6606 44.576C24.408 44.1453 25.244 43.93 26.1686 43.93C27.0933 43.93 27.923 44.1453 28.6576 44.576C29.3923 45.0067 29.9686 45.6083 30.3866 46.381C30.8046 47.141 31.0136 48.015 31.0136 49.003L30.9946 49.421ZM26.1686 45.089C25.206 45.089 24.3953 45.3993 23.7366 46.02C23.0906 46.628 22.7233 47.426 22.6346 48.414H29.7216C29.633 47.426 29.2593 46.628 28.6006 46.02C27.9546 45.3993 27.144 45.089 26.1686 45.089ZM47.1301 44.006L42.6841 54H41.2971L36.8701 44.006H38.2761L42.0191 52.518L45.8001 44.006H47.1301ZM52.8366 54.095C51.8739 54.095 51.0063 53.8797 50.2336 53.449C49.4609 53.0057 48.8529 52.3977 48.4096 51.625C47.9663 50.8523 47.7446 49.9783 47.7446 49.003C47.7446 48.0277 47.9663 47.1537 48.4096 46.381C48.8529 45.6083 49.4609 45.0067 50.2336 44.576C51.0063 44.1453 51.8739 43.93 52.8366 43.93C53.7993 43.93 54.6669 44.1453 55.4396 44.576C56.2123 45.0067 56.8139 45.6083 57.2446 46.381C57.6879 47.1537 57.9096 48.0277 57.9096 49.003C57.9096 49.9783 57.6879 50.8523 57.2446 51.625C56.8139 52.3977 56.2123 53.0057 55.4396 53.449C54.6669 53.8797 53.7993 54.095 52.8366 54.095ZM52.8366 52.898C53.5459 52.898 54.1793 52.7397 54.7366 52.423C55.3066 52.0937 55.7499 51.6313 56.0666 51.036C56.3833 50.4407 56.5416 49.763 56.5416 49.003C56.5416 48.243 56.3833 47.5653 56.0666 46.97C55.7499 46.3747 55.3066 45.9187 54.7366 45.602C54.1793 45.2727 53.5459 45.108 52.8366 45.108C52.1273 45.108 51.4876 45.2727 50.9176 45.602C50.3603 45.9187 49.9169 46.3747 49.5876 46.97C49.2709 47.5653 49.1126 48.243 49.1126 49.003C49.1126 49.763 49.2709 50.4407 49.5876 51.036C49.9169 51.6313 50.3603 52.0937 50.9176 52.423C51.4876 52.7397 52.1273 52.898 52.8366 52.898ZM69.6697 44.006V54H68.3777V52.176C68.023 52.784 67.5354 53.259 66.9147 53.601C66.294 53.9303 65.5847 54.095 64.7867 54.095C63.482 54.095 62.4497 53.734 61.6897 53.012C60.9424 52.2773 60.5687 51.207 60.5687 49.801V44.006H61.9177V49.668C61.9177 50.7193 62.1774 51.5173 62.6967 52.062C63.216 52.6067 63.957 52.879 64.9197 52.879C65.971 52.879 66.8007 52.5623 67.4087 51.929C68.0167 51.283 68.3207 50.39 68.3207 49.25V44.006H69.6697ZM76.1269 54.095C75.3162 54.095 74.5372 53.981 73.7899 53.753C73.0552 53.5123 72.4789 53.2147 72.0609 52.86L72.6689 51.796C73.0869 52.1253 73.6126 52.3977 74.2459 52.613C74.8792 52.8157 75.5379 52.917 76.2219 52.917C77.1339 52.917 77.8052 52.7777 78.2359 52.499C78.6792 52.2077 78.9009 51.8023 78.9009 51.283C78.9009 50.9157 78.7806 50.6307 78.5399 50.428C78.2992 50.2127 77.9952 50.0543 77.6279 49.953C77.2606 49.839 76.7729 49.7313 76.1649 49.63C75.3542 49.478 74.7019 49.326 74.2079 49.174C73.7139 49.0093 73.2896 48.737 72.9349 48.357C72.5929 47.977 72.4219 47.4513 72.4219 46.78C72.4219 45.944 72.7702 45.26 73.4669 44.728C74.1636 44.196 75.1326 43.93 76.3739 43.93C77.0199 43.93 77.6659 44.0187 78.3119 44.196C78.9579 44.3607 79.4899 44.5823 79.9079 44.861L79.3189 45.944C78.4956 45.374 77.5139 45.089 76.3739 45.089C75.5126 45.089 74.8602 45.241 74.4169 45.545C73.9862 45.849 73.7709 46.248 73.7709 46.742C73.7709 47.122 73.8912 47.426 74.1319 47.654C74.3852 47.882 74.6956 48.053 75.0629 48.167C75.4302 48.2683 75.9369 48.376 76.5829 48.49C77.3809 48.642 78.0206 48.794 78.5019 48.946C78.9832 49.098 79.3949 49.3577 79.7369 49.725C80.0789 50.0923 80.2499 50.599 80.2499 51.245C80.2499 52.119 79.8826 52.8157 79.1479 53.335C78.4259 53.8417 77.4189 54.095 76.1269 54.095ZM87.7164 39.902H89.0654V54H87.7164V39.902ZM96.315 43.93C97.6197 43.93 98.6203 44.2593 99.317 44.918C100.014 45.564 100.362 46.5267 100.362 47.806V54H99.07V52.442C98.766 52.9613 98.3163 53.3667 97.721 53.658C97.1383 53.9493 96.4417 54.095 95.631 54.095C94.5163 54.095 93.6297 53.829 92.971 53.297C92.3123 52.765 91.983 52.062 91.983 51.188C91.983 50.3393 92.287 49.6553 92.895 49.136C93.5157 48.6167 94.4973 48.357 95.84 48.357H99.013V47.749C99.013 46.8877 98.7723 46.2353 98.291 45.792C97.8097 45.336 97.1067 45.108 96.182 45.108C95.5487 45.108 94.9407 45.2157 94.358 45.431C93.7753 45.6337 93.275 45.9187 92.857 46.286L92.249 45.279C92.7557 44.8483 93.3637 44.519 94.073 44.291C94.7823 44.0503 95.5297 43.93 96.315 43.93ZM95.84 53.031C96.6 53.031 97.2523 52.86 97.797 52.518C98.3417 52.1633 98.747 51.6567 99.013 50.998V49.364H95.878C94.168 49.364 93.313 49.9593 93.313 51.15C93.313 51.7327 93.5347 52.195 93.978 52.537C94.4213 52.8663 95.042 53.031 95.84 53.031ZM104.026 44.006H105.375V54H104.026V44.006ZM104.71 41.821C104.431 41.821 104.197 41.726 104.007 41.536C103.817 41.346 103.722 41.118 103.722 40.852C103.722 40.5987 103.817 40.377 104.007 40.187C104.197 39.997 104.431 39.902 104.71 39.902C104.989 39.902 105.223 39.997 105.413 40.187C105.603 40.3643 105.698 40.5797 105.698 40.833C105.698 41.1117 105.603 41.346 105.413 41.536C105.223 41.726 104.989 41.821 104.71 41.821ZM111.808 54.095C110.997 54.095 110.218 53.981 109.471 53.753C108.736 53.5123 108.16 53.2147 107.742 52.86L108.35 51.796C108.768 52.1253 109.293 52.3977 109.927 52.613C110.56 52.8157 111.219 52.917 111.903 52.917C112.815 52.917 113.486 52.7777 113.917 52.499C114.36 52.2077 114.582 51.8023 114.582 51.283C114.582 50.9157 114.461 50.6307 114.221 50.428C113.98 50.2127 113.676 50.0543 113.309 49.953C112.941 49.839 112.454 49.7313 111.846 49.63C111.035 49.478 110.383 49.326 109.889 49.174C109.395 49.0093 108.97 48.737 108.616 48.357C108.274 47.977 108.103 47.4513 108.103 46.78C108.103 45.944 108.451 45.26 109.148 44.728C109.844 44.196 110.813 43.93 112.055 43.93C112.701 43.93 113.347 44.0187 113.993 44.196C114.639 44.3607 115.171 44.5823 115.589 44.861L115 45.944C114.176 45.374 113.195 45.089 112.055 45.089C111.193 45.089 110.541 45.241 110.098 45.545C109.667 45.849 109.452 46.248 109.452 46.742C109.452 47.122 109.572 47.426 109.813 47.654C110.066 47.882 110.376 48.053 110.744 48.167C111.111 48.2683 111.618 48.376 112.264 48.49C113.062 48.642 113.701 48.794 114.183 48.946C114.664 49.098 115.076 49.3577 115.418 49.725C115.76 50.0923 115.931 50.599 115.931 51.245C115.931 52.119 115.563 52.8157 114.829 53.335C114.107 53.8417 113.1 54.095 111.808 54.095ZM121.103 54.095C120.293 54.095 119.514 53.981 118.766 53.753C118.032 53.5123 117.455 53.2147 117.037 52.86L117.645 51.796C118.063 52.1253 118.589 52.3977 119.222 52.613C119.856 52.8157 120.514 52.917 121.198 52.917C122.11 52.917 122.782 52.7777 123.212 52.499C123.656 52.2077 123.877 51.8023 123.877 51.283C123.877 50.9157 123.757 50.6307 123.516 50.428C123.276 50.2127 122.972 50.0543 122.604 49.953C122.237 49.839 121.749 49.7313 121.141 49.63C120.331 49.478 119.678 49.326 119.184 49.174C118.69 49.0093 118.266 48.737 117.911 48.357C117.569 47.977 117.398 47.4513 117.398 46.78C117.398 45.944 117.747 45.26 118.443 44.728C119.14 44.196 120.109 43.93 121.35 43.93C121.996 43.93 122.642 44.0187 123.288 44.196C123.934 44.3607 124.466 44.5823 124.884 44.861L124.295 45.944C123.472 45.374 122.49 45.089 121.35 45.089C120.489 45.089 119.837 45.241 119.393 45.545C118.963 45.849 118.747 46.248 118.747 46.742C118.747 47.122 118.868 47.426 119.108 47.654C119.362 47.882 119.672 48.053 120.039 48.167C120.407 48.2683 120.913 48.376 121.559 48.49C122.357 48.642 122.997 48.794 123.478 48.946C123.96 49.098 124.371 49.3577 124.713 49.725C125.055 50.0923 125.226 50.599 125.226 51.245C125.226 52.119 124.859 52.8157 124.124 53.335C123.402 53.8417 122.395 54.095 121.103 54.095ZM136.422 49.421H128.062C128.138 50.4597 128.537 51.302 129.259 51.948C129.981 52.5813 130.893 52.898 131.995 52.898C132.616 52.898 133.186 52.7903 133.705 52.575C134.225 52.347 134.674 52.0177 135.054 51.587L135.814 52.461C135.371 52.993 134.814 53.3983 134.142 53.677C133.484 53.9557 132.755 54.095 131.957 54.095C130.931 54.095 130.019 53.8797 129.221 53.449C128.436 53.0057 127.822 52.3977 127.378 51.625C126.935 50.8523 126.713 49.9783 126.713 49.003C126.713 48.0277 126.922 47.1537 127.34 46.381C127.771 45.6083 128.354 45.0067 129.088 44.576C129.836 44.1453 130.672 43.93 131.596 43.93C132.521 43.93 133.351 44.1453 134.085 44.576C134.82 45.0067 135.396 45.6083 135.814 46.381C136.232 47.141 136.441 48.015 136.441 49.003L136.422 49.421ZM131.596 45.089C130.634 45.089 129.823 45.3993 129.164 46.02C128.518 46.628 128.151 47.426 128.062 48.414H135.149C135.061 47.426 134.687 46.628 134.028 46.02C133.382 45.3993 132.572 45.089 131.596 45.089ZM148.302 54.095C147.314 54.095 146.427 53.8797 145.642 53.449C144.869 53.0183 144.261 52.4167 143.818 51.644C143.374 50.8587 143.153 49.9783 143.153 49.003C143.153 48.0277 143.374 47.1537 143.818 46.381C144.261 45.6083 144.869 45.0067 145.642 44.576C146.427 44.1453 147.314 43.93 148.302 43.93C149.163 43.93 149.929 44.101 150.601 44.443C151.285 44.7723 151.823 45.26 152.216 45.906L151.209 46.59C150.879 46.096 150.461 45.7287 149.955 45.488C149.448 45.2347 148.897 45.108 148.302 45.108C147.58 45.108 146.927 45.2727 146.345 45.602C145.775 45.9187 145.325 46.3747 144.996 46.97C144.679 47.5653 144.521 48.243 144.521 49.003C144.521 49.7757 144.679 50.4597 144.996 51.055C145.325 51.6377 145.775 52.0937 146.345 52.423C146.927 52.7397 147.58 52.898 148.302 52.898C148.897 52.898 149.448 52.7777 149.955 52.537C150.461 52.2963 150.879 51.929 151.209 51.435L152.216 52.119C151.823 52.765 151.285 53.259 150.601 53.601C149.917 53.9303 149.15 54.095 148.302 54.095ZM158.784 54.095C157.821 54.095 156.954 53.8797 156.181 53.449C155.408 53.0057 154.8 52.3977 154.357 51.625C153.914 50.8523 153.692 49.9783 153.692 49.003C153.692 48.0277 153.914 47.1537 154.357 46.381C154.8 45.6083 155.408 45.0067 156.181 44.576C156.954 44.1453 157.821 43.93 158.784 43.93C159.747 43.93 160.614 44.1453 161.387 44.576C162.16 45.0067 162.761 45.6083 163.192 46.381C163.635 47.1537 163.857 48.0277 163.857 49.003C163.857 49.9783 163.635 50.8523 163.192 51.625C162.761 52.3977 162.16 53.0057 161.387 53.449C160.614 53.8797 159.747 54.095 158.784 54.095ZM158.784 52.898C159.493 52.898 160.127 52.7397 160.684 52.423C161.254 52.0937 161.697 51.6313 162.014 51.036C162.331 50.4407 162.489 49.763 162.489 49.003C162.489 48.243 162.331 47.5653 162.014 46.97C161.697 46.3747 161.254 45.9187 160.684 45.602C160.127 45.2727 159.493 45.108 158.784 45.108C158.075 45.108 157.435 45.2727 156.865 45.602C156.308 45.9187 155.864 46.3747 155.535 46.97C155.218 47.5653 155.06 48.243 155.06 49.003C155.06 49.763 155.218 50.4407 155.535 51.036C155.864 51.6313 156.308 52.0937 156.865 52.423C157.435 52.7397 158.075 52.898 158.784 52.898ZM171.703 43.93C172.957 43.93 173.951 44.2973 174.686 45.032C175.433 45.754 175.807 46.8117 175.807 48.205V54H174.458V48.338C174.458 47.2993 174.198 46.5077 173.679 45.963C173.16 45.4183 172.419 45.146 171.456 45.146C170.379 45.146 169.524 45.469 168.891 46.115C168.27 46.7483 167.96 47.6287 167.96 48.756V54H166.611V44.006H167.903V45.849C168.27 45.241 168.777 44.7723 169.423 44.443C170.082 44.101 170.842 43.93 171.703 43.93ZM182.148 54.095C181.338 54.095 180.559 53.981 179.811 53.753C179.077 53.5123 178.5 53.2147 178.082 52.86L178.69 51.796C179.108 52.1253 179.634 52.3977 180.267 52.613C180.901 52.8157 181.559 52.917 182.243 52.917C183.155 52.917 183.827 52.7777 184.257 52.499C184.701 52.2077 184.922 51.8023 184.922 51.283C184.922 50.9157 184.802 50.6307 184.561 50.428C184.321 50.2127 184.017 50.0543 183.649 49.953C183.282 49.839 182.794 49.7313 182.186 49.63C181.376 49.478 180.723 49.326 180.229 49.174C179.735 49.0093 179.311 48.737 178.956 48.357C178.614 47.977 178.443 47.4513 178.443 46.78C178.443 45.944 178.792 45.26 179.488 44.728C180.185 44.196 181.154 43.93 182.395 43.93C183.041 43.93 183.687 44.0187 184.333 44.196C184.979 44.3607 185.511 44.5823 185.929 44.861L185.34 45.944C184.517 45.374 183.535 45.089 182.395 45.089C181.534 45.089 180.882 45.241 180.438 45.545C180.008 45.849 179.792 46.248 179.792 46.742C179.792 47.122 179.913 47.426 180.153 47.654C180.407 47.882 180.717 48.053 181.084 48.167C181.452 48.2683 181.958 48.376 182.604 48.49C183.402 48.642 184.042 48.794 184.523 48.946C185.005 49.098 185.416 49.3577 185.758 49.725C186.1 50.0923 186.271 50.599 186.271 51.245C186.271 52.119 185.904 52.8157 185.169 53.335C184.447 53.8417 183.44 54.095 182.148 54.095ZM194.028 53.392C193.775 53.62 193.458 53.7973 193.078 53.924C192.711 54.038 192.325 54.095 191.919 54.095C190.982 54.095 190.26 53.8417 189.753 53.335C189.247 52.8283 188.993 52.1127 188.993 51.188V45.146H187.207V44.006H188.993V41.821H190.342V44.006H193.382V45.146H190.342V51.112C190.342 51.7073 190.488 52.1633 190.779 52.48C191.083 52.784 191.514 52.936 192.071 52.936C192.35 52.936 192.616 52.8917 192.869 52.803C193.135 52.7143 193.363 52.5877 193.553 52.423L194.028 53.392ZM199.98 43.93C201.285 43.93 202.285 44.2593 202.982 44.918C203.679 45.564 204.027 46.5267 204.027 47.806V54H202.735V52.442C202.431 52.9613 201.981 53.3667 201.386 53.658C200.803 53.9493 200.107 54.095 199.296 54.095C198.181 54.095 197.295 53.829 196.636 53.297C195.977 52.765 195.648 52.062 195.648 51.188C195.648 50.3393 195.952 49.6553 196.56 49.136C197.181 48.6167 198.162 48.357 199.505 48.357H202.678V47.749C202.678 46.8877 202.437 46.2353 201.956 45.792C201.475 45.336 200.772 45.108 199.847 45.108C199.214 45.108 198.606 45.2157 198.023 45.431C197.44 45.6337 196.94 45.9187 196.522 46.286L195.914 45.279C196.421 44.8483 197.029 44.519 197.738 44.291C198.447 44.0503 199.195 43.93 199.98 43.93ZM199.505 53.031C200.265 53.031 200.917 52.86 201.462 52.518C202.007 52.1633 202.412 51.6567 202.678 50.998V49.364H199.543C197.833 49.364 196.978 49.9593 196.978 51.15C196.978 51.7327 197.2 52.195 197.643 52.537C198.086 52.8663 198.707 53.031 199.505 53.031ZM212.954 53.392C212.701 53.62 212.384 53.7973 212.004 53.924C211.637 54.038 211.25 54.095 210.845 54.095C209.908 54.095 209.186 53.8417 208.679 53.335C208.172 52.8283 207.919 52.1127 207.919 51.188V45.146H206.133V44.006H207.919V41.821H209.268V44.006H212.308V45.146H209.268V51.112C209.268 51.7073 209.414 52.1633 209.705 52.48C210.009 52.784 210.44 52.936 210.997 52.936C211.276 52.936 211.542 52.8917 211.795 52.803C212.061 52.7143 212.289 52.5877 212.479 52.423L212.954 53.392ZM223.759 49.421H215.399C215.475 50.4597 215.874 51.302 216.596 51.948C217.318 52.5813 218.23 52.898 219.332 52.898C219.953 52.898 220.523 52.7903 221.042 52.575C221.562 52.347 222.011 52.0177 222.391 51.587L223.151 52.461C222.708 52.993 222.151 53.3983 221.479 53.677C220.821 53.9557 220.092 54.095 219.294 54.095C218.268 54.095 217.356 53.8797 216.558 53.449C215.773 53.0057 215.159 52.3977 214.715 51.625C214.272 50.8523 214.05 49.9783 214.05 49.003C214.05 48.0277 214.259 47.1537 214.677 46.381C215.108 45.6083 215.691 45.0067 216.425 44.576C217.173 44.1453 218.009 43.93 218.933 43.93C219.858 43.93 220.688 44.1453 221.422 44.576C222.157 45.0067 222.733 45.6083 223.151 46.381C223.569 47.141 223.778 48.015 223.778 49.003L223.759 49.421ZM218.933 45.089C217.971 45.089 217.16 45.3993 216.501 46.02C215.855 46.628 215.488 47.426 215.399 48.414H222.486C222.398 47.426 222.024 46.628 221.365 46.02C220.719 45.3993 219.909 45.089 218.933 45.089ZM227.816 45.963C228.133 45.2917 228.601 44.785 229.222 44.443C229.855 44.101 230.634 43.93 231.559 43.93V45.241L231.236 45.222C230.185 45.222 229.361 45.545 228.766 46.191C228.171 46.837 227.873 47.7427 227.873 48.908V54H226.524V44.006H227.816V45.963ZM239.123 39.902H240.472V54H239.123V39.902ZM252.927 49.421H244.567C244.643 50.4597 245.042 51.302 245.764 51.948C246.486 52.5813 247.398 52.898 248.5 52.898C249.121 52.898 249.691 52.7903 250.21 52.575C250.73 52.347 251.179 52.0177 251.559 51.587L252.319 52.461C251.876 52.993 251.319 53.3983 250.647 53.677C249.989 53.9557 249.26 54.095 248.462 54.095C247.436 54.095 246.524 53.8797 245.726 53.449C244.941 53.0057 244.327 52.3977 243.883 51.625C243.44 50.8523 243.218 49.9783 243.218 49.003C243.218 48.0277 243.427 47.1537 243.845 46.381C244.276 45.6083 244.859 45.0067 245.593 44.576C246.341 44.1453 247.177 43.93 248.101 43.93C249.026 43.93 249.856 44.1453 250.59 44.576C251.325 45.0067 251.901 45.6083 252.319 46.381C252.737 47.141 252.946 48.015 252.946 49.003L252.927 49.421ZM248.101 45.089C247.139 45.089 246.328 45.3993 245.669 46.02C245.023 46.628 244.656 47.426 244.567 48.414H251.654C251.566 47.426 251.192 46.628 250.533 46.02C249.887 45.3993 249.077 45.089 248.101 45.089ZM258.371 54.095C257.56 54.095 256.781 53.981 256.034 53.753C255.299 53.5123 254.723 53.2147 254.305 52.86L254.913 51.796C255.331 52.1253 255.857 52.3977 256.49 52.613C257.123 52.8157 257.782 52.917 258.466 52.917C259.378 52.917 260.049 52.7777 260.48 52.499C260.923 52.2077 261.145 51.8023 261.145 51.283C261.145 50.9157 261.025 50.6307 260.784 50.428C260.543 50.2127 260.239 50.0543 259.872 49.953C259.505 49.839 259.017 49.7313 258.409 49.63C257.598 49.478 256.946 49.326 256.452 49.174C255.958 49.0093 255.534 48.737 255.179 48.357C254.837 47.977 254.666 47.4513 254.666 46.78C254.666 45.944 255.014 45.26 255.711 44.728C256.408 44.196 257.377 43.93 258.618 43.93C259.264 43.93 259.91 44.0187 260.556 44.196C261.202 44.3607 261.734 44.5823 262.152 44.861L261.563 45.944C260.74 45.374 259.758 45.089 258.618 45.089C257.757 45.089 257.104 45.241 256.661 45.545C256.23 45.849 256.015 46.248 256.015 46.742C256.015 47.122 256.135 47.426 256.376 47.654C256.629 47.882 256.94 48.053 257.307 48.167C257.674 48.2683 258.181 48.376 258.827 48.49C259.625 48.642 260.265 48.794 260.746 48.946C261.227 49.098 261.639 49.3577 261.981 49.725C262.323 50.0923 262.494 50.599 262.494 51.245C262.494 52.119 262.127 52.8157 261.392 53.335C260.67 53.8417 259.663 54.095 258.371 54.095ZM25.9204 62.902V77H24.6284V75.024C24.2231 75.6953 23.6848 76.2083 23.0134 76.563C22.3548 76.9177 21.6074 77.095 20.7714 77.095C19.8341 77.095 18.9854 76.8797 18.2254 76.449C17.4654 76.0183 16.8701 75.4167 16.4394 74.644C16.0088 73.8713 15.7934 72.991 15.7934 72.003C15.7934 71.015 16.0088 70.1347 16.4394 69.362C16.8701 68.5893 17.4654 67.994 18.2254 67.576C18.9854 67.1453 19.8341 66.93 20.7714 66.93C21.5821 66.93 22.3104 67.101 22.9564 67.443C23.6151 67.7723 24.1534 68.26 24.5714 68.906V62.902H25.9204ZM20.8854 75.898C21.5821 75.898 22.2091 75.7397 22.7664 75.423C23.3364 75.0937 23.7798 74.6313 24.0964 74.036C24.4258 73.4407 24.5904 72.763 24.5904 72.003C24.5904 71.243 24.4258 70.5653 24.0964 69.97C23.7798 69.3747 23.3364 68.9187 22.7664 68.602C22.2091 68.2727 21.5821 68.108 20.8854 68.108C20.1761 68.108 19.5364 68.2727 18.9664 68.602C18.4091 68.9187 17.9658 69.3747 17.6364 69.97C17.3198 70.5653 17.1614 71.243 17.1614 72.003C17.1614 72.763 17.3198 73.4407 17.6364 74.036C17.9658 74.6313 18.4091 75.0937 18.9664 75.423C19.5364 75.7397 20.1761 75.898 20.8854 75.898ZM29.6774 67.006H31.0264V77H29.6774V67.006ZM30.3614 64.821C30.0827 64.821 29.8484 64.726 29.6584 64.536C29.4684 64.346 29.3734 64.118 29.3734 63.852C29.3734 63.5987 29.4684 63.377 29.6584 63.187C29.8484 62.997 30.0827 62.902 30.3614 62.902C30.6401 62.902 30.8744 62.997 31.0644 63.187C31.2544 63.3643 31.3494 63.5797 31.3494 63.833C31.3494 64.1117 31.2544 64.346 31.0644 64.536C30.8744 64.726 30.6401 64.821 30.3614 64.821ZM38.0859 63.947C37.5033 63.947 37.0599 64.1053 36.7559 64.422C36.4646 64.7387 36.3189 65.2073 36.3189 65.828V67.006H39.3969V68.146H36.3569V77H35.0079V68.146H33.2219V67.006H35.0079V65.771C35.0079 64.859 35.2676 64.137 35.7869 63.605C36.3189 63.073 37.0663 62.807 38.0289 62.807C38.4089 62.807 38.7763 62.864 39.1309 62.978C39.4856 63.0793 39.7833 63.2313 40.0239 63.434L39.5679 64.441C39.1753 64.1117 38.6813 63.947 38.0859 63.947ZM44.5244 63.947C43.9417 63.947 43.4984 64.1053 43.1944 64.422C42.9031 64.7387 42.7574 65.2073 42.7574 65.828V67.006H45.8354V68.146H42.7954V77H41.4464V68.146H39.6604V67.006H41.4464V65.771C41.4464 64.859 41.7061 64.137 42.2254 63.605C42.7574 63.073 43.5047 62.807 44.4674 62.807C44.8474 62.807 45.2147 62.864 45.5694 62.978C45.9241 63.0793 46.2217 63.2313 46.4624 63.434L46.0064 64.441C45.6137 64.1117 45.1197 63.947 44.5244 63.947ZM56.1919 72.421H47.8319C47.9079 73.4597 48.3069 74.302 49.0289 74.948C49.7509 75.5813 50.6629 75.898 51.7649 75.898C52.3856 75.898 52.9556 75.7903 53.4749 75.575C53.9942 75.347 54.4439 75.0177 54.8239 74.587L55.5839 75.461C55.1406 75.993 54.5832 76.3983 53.9119 76.677C53.2532 76.9557 52.5249 77.095 51.7269 77.095C50.7009 77.095 49.7889 76.8797 48.9909 76.449C48.2056 76.0057 47.5912 75.3977 47.1479 74.625C46.7046 73.8523 46.4829 72.9783 46.4829 72.003C46.4829 71.0277 46.6919 70.1537 47.1099 69.381C47.5406 68.6083 48.1232 68.0067 48.8579 67.576C49.6052 67.1453 50.4412 66.93 51.3659 66.93C52.2906 66.93 53.1202 67.1453 53.8549 67.576C54.5896 68.0067 55.1659 68.6083 55.5839 69.381C56.0019 70.141 56.2109 71.015 56.2109 72.003L56.1919 72.421ZM51.3659 68.089C50.4032 68.089 49.5926 68.3993 48.9339 69.02C48.2879 69.628 47.9206 70.426 47.8319 71.414H54.9189C54.8302 70.426 54.4566 69.628 53.7979 69.02C53.1519 68.3993 52.3412 68.089 51.3659 68.089ZM52.7339 63.092H54.5389L51.4609 65.448H50.1309L52.7339 63.092ZM60.2487 68.963C60.5654 68.2917 61.034 67.785 61.6547 67.443C62.288 67.101 63.067 66.93 63.9917 66.93V68.241L63.6687 68.222C62.6174 68.222 61.794 68.545 61.1987 69.191C60.6034 69.837 60.3057 70.7427 60.3057 71.908V77H58.9567V67.006H60.2487V68.963ZM75.0434 72.421H66.6834C66.7594 73.4597 67.1584 74.302 67.8804 74.948C68.6024 75.5813 69.5144 75.898 70.6164 75.898C71.2371 75.898 71.8071 75.7903 72.3264 75.575C72.8458 75.347 73.2954 75.0177 73.6754 74.587L74.4354 75.461C73.9921 75.993 73.4348 76.3983 72.7634 76.677C72.1048 76.9557 71.3764 77.095 70.5784 77.095C69.5524 77.095 68.6404 76.8797 67.8424 76.449C67.0571 76.0057 66.4428 75.3977 65.9994 74.625C65.5561 73.8523 65.3344 72.9783 65.3344 72.003C65.3344 71.0277 65.5434 70.1537 65.9614 69.381C66.3921 68.6083 66.9748 68.0067 67.7094 67.576C68.4568 67.1453 69.2928 66.93 70.2174 66.93C71.1421 66.93 71.9718 67.1453 72.7064 67.576C73.4411 68.0067 74.0174 68.6083 74.4354 69.381C74.8534 70.141 75.0624 71.015 75.0624 72.003L75.0434 72.421ZM70.2174 68.089C69.2548 68.089 68.4441 68.3993 67.7854 69.02C67.1394 69.628 66.7721 70.426 66.6834 71.414H73.7704C73.6818 70.426 73.3081 69.628 72.6494 69.02C72.0034 68.3993 71.1928 68.089 70.2174 68.089ZM82.9002 66.93C84.1542 66.93 85.1486 67.2973 85.8832 68.032C86.6306 68.754 87.0042 69.8117 87.0042 71.205V77H85.6552V71.338C85.6552 70.2993 85.3956 69.5077 84.8762 68.963C84.3569 68.4183 83.6159 68.146 82.6532 68.146C81.5766 68.146 80.7216 68.469 80.0882 69.115C79.4676 69.7483 79.1572 70.6287 79.1572 71.756V77H77.8082V67.006H79.1002V68.849C79.4676 68.241 79.9742 67.7723 80.6202 67.443C81.2789 67.101 82.0389 66.93 82.9002 66.93ZM94.8458 77.095C93.8578 77.095 92.9711 76.8797 92.1858 76.449C91.4131 76.0183 90.8051 75.4167 90.3618 74.644C89.9184 73.8587 89.6968 72.9783 89.6968 72.003C89.6968 71.0277 89.9184 70.1537 90.3618 69.381C90.8051 68.6083 91.4131 68.0067 92.1858 67.576C92.9711 67.1453 93.8578 66.93 94.8458 66.93C95.7071 66.93 96.4734 67.101 97.1448 67.443C97.8288 67.7723 98.3671 68.26 98.7598 68.906L97.7528 69.59C97.4234 69.096 97.0054 68.7287 96.4988 68.488C95.9921 68.2347 95.4411 68.108 94.8458 68.108C94.1238 68.108 93.4714 68.2727 92.8888 68.602C92.3188 68.9187 91.8691 69.3747 91.5398 69.97C91.2231 70.5653 91.0648 71.243 91.0648 72.003C91.0648 72.7757 91.2231 73.4597 91.5398 74.055C91.8691 74.6377 92.3188 75.0937 92.8888 75.423C93.4714 75.7397 94.1238 75.898 94.8458 75.898C95.4411 75.898 95.9921 75.7777 96.4988 75.537C97.0054 75.2963 97.4234 74.929 97.7528 74.435L98.7598 75.119C98.3671 75.765 97.8288 76.259 97.1448 76.601C96.4608 76.9303 95.6944 77.095 94.8458 77.095ZM109.945 72.421H101.585C101.661 73.4597 102.06 74.302 102.782 74.948C103.504 75.5813 104.416 75.898 105.518 75.898C106.138 75.898 106.708 75.7903 107.228 75.575C107.747 75.347 108.197 75.0177 108.577 74.587L109.337 75.461C108.893 75.993 108.336 76.3983 107.665 76.677C107.006 76.9557 106.278 77.095 105.48 77.095C104.454 77.095 103.542 76.8797 102.744 76.449C101.958 76.0057 101.344 75.3977 100.901 74.625C100.457 73.8523 100.236 72.9783 100.236 72.003C100.236 71.0277 100.445 70.1537 100.863 69.381C101.293 68.6083 101.876 68.0067 102.611 67.576C103.358 67.1453 104.194 66.93 105.119 66.93C106.043 66.93 106.873 67.1453 107.608 67.576C108.342 68.0067 108.919 68.6083 109.337 69.381C109.755 70.141 109.964 71.015 109.964 72.003L109.945 72.421ZM105.119 68.089C104.156 68.089 103.345 68.3993 102.687 69.02C102.041 69.628 101.673 70.426 101.585 71.414H108.672C108.583 70.426 108.209 69.628 107.551 69.02C106.905 68.3993 106.094 68.089 105.119 68.089ZM115.389 77.095C114.578 77.095 113.799 76.981 113.052 76.753C112.317 76.5123 111.741 76.2147 111.323 75.86L111.931 74.796C112.349 75.1253 112.874 75.3977 113.508 75.613C114.141 75.8157 114.8 75.917 115.484 75.917C116.396 75.917 117.067 75.7777 117.498 75.499C117.941 75.2077 118.163 74.8023 118.163 74.283C118.163 73.9157 118.042 73.6307 117.802 73.428C117.561 73.2127 117.257 73.0543 116.89 72.953C116.522 72.839 116.035 72.7313 115.427 72.63C114.616 72.478 113.964 72.326 113.47 72.174C112.976 72.0093 112.551 71.737 112.197 71.357C111.855 70.977 111.684 70.4513 111.684 69.78C111.684 68.944 112.032 68.26 112.729 67.728C113.425 67.196 114.394 66.93 115.636 66.93C116.282 66.93 116.928 67.0187 117.574 67.196C118.22 67.3607 118.752 67.5823 119.17 67.861L118.581 68.944C117.757 68.374 116.776 68.089 115.636 68.089C114.774 68.089 114.122 68.241 113.679 68.545C113.248 68.849 113.033 69.248 113.033 69.742C113.033 70.122 113.153 70.426 113.394 70.654C113.647 70.882 113.957 71.053 114.325 71.167C114.692 71.2683 115.199 71.376 115.845 71.49C116.643 71.642 117.282 71.794 117.764 71.946C118.245 72.098 118.657 72.3577 118.999 72.725C119.341 73.0923 119.512 73.599 119.512 74.245C119.512 75.119 119.144 75.8157 118.41 76.335C117.688 76.8417 116.681 77.095 115.389 77.095ZM135.68 72.421H127.32C127.396 73.4597 127.795 74.302 128.517 74.948C129.239 75.5813 130.151 75.898 131.253 75.898C131.874 75.898 132.444 75.7903 132.963 75.575C133.483 75.347 133.932 75.0177 134.312 74.587L135.072 75.461C134.629 75.993 134.072 76.3983 133.4 76.677C132.742 76.9557 132.013 77.095 131.215 77.095C130.189 77.095 129.277 76.8797 128.479 76.449C127.694 76.0057 127.08 75.3977 126.636 74.625C126.193 73.8523 125.971 72.9783 125.971 72.003C125.971 71.0277 126.18 70.1537 126.598 69.381C127.029 68.6083 127.612 68.0067 128.346 67.576C129.094 67.1453 129.93 66.93 130.854 66.93C131.779 66.93 132.609 67.1453 133.343 67.576C134.078 68.0067 134.654 68.6083 135.072 69.381C135.49 70.141 135.699 71.015 135.699 72.003L135.68 72.421ZM130.854 68.089C129.892 68.089 129.081 68.3993 128.422 69.02C127.776 69.628 127.409 70.426 127.32 71.414H134.407C134.319 70.426 133.945 69.628 133.286 69.02C132.64 68.3993 131.83 68.089 130.854 68.089ZM143.537 66.93C144.791 66.93 145.785 67.2973 146.52 68.032C147.267 68.754 147.641 69.8117 147.641 71.205V77H146.292V71.338C146.292 70.2993 146.032 69.5077 145.513 68.963C144.994 68.4183 144.253 68.146 143.29 68.146C142.213 68.146 141.358 68.469 140.725 69.115C140.104 69.7483 139.794 70.6287 139.794 71.756V77H138.445V67.006H139.737V68.849C140.104 68.241 140.611 67.7723 141.257 67.443C141.916 67.101 142.676 66.93 143.537 66.93ZM156.566 76.392C156.313 76.62 155.996 76.7973 155.616 76.924C155.249 77.038 154.863 77.095 154.457 77.095C153.52 77.095 152.798 76.8417 152.291 76.335C151.785 75.8283 151.531 75.1127 151.531 74.188V68.146H149.745V67.006H151.531V64.821H152.88V67.006H155.92V68.146H152.88V74.112C152.88 74.7073 153.026 75.1633 153.317 75.48C153.621 75.784 154.052 75.936 154.609 75.936C154.888 75.936 155.154 75.8917 155.407 75.803C155.673 75.7143 155.901 75.5877 156.091 75.423L156.566 76.392ZM160.314 68.963C160.631 68.2917 161.099 67.785 161.72 67.443C162.353 67.101 163.132 66.93 164.057 66.93V68.241L163.734 68.222C162.683 68.222 161.859 68.545 161.264 69.191C160.669 69.837 160.371 70.7427 160.371 71.908V77H159.022V67.006H160.314V68.963ZM175.109 72.421H166.749C166.825 73.4597 167.224 74.302 167.946 74.948C168.668 75.5813 169.58 75.898 170.682 75.898C171.303 75.898 171.873 75.7903 172.392 75.575C172.911 75.347 173.361 75.0177 173.741 74.587L174.501 75.461C174.058 75.993 173.5 76.3983 172.829 76.677C172.17 76.9557 171.442 77.095 170.644 77.095C169.618 77.095 168.706 76.8797 167.908 76.449C167.123 76.0057 166.508 75.3977 166.065 74.625C165.622 73.8523 165.4 72.9783 165.4 72.003C165.4 71.0277 165.609 70.1537 166.027 69.381C166.458 68.6083 167.04 68.0067 167.775 67.576C168.522 67.1453 169.358 66.93 170.283 66.93C171.208 66.93 172.037 67.1453 172.772 67.576C173.507 68.0067 174.083 68.6083 174.501 69.381C174.919 70.141 175.128 71.015 175.128 72.003L175.109 72.421ZM170.283 68.089C169.32 68.089 168.51 68.3993 167.851 69.02C167.205 69.628 166.838 70.426 166.749 71.414H173.836C173.747 70.426 173.374 69.628 172.715 69.02C172.069 68.3993 171.258 68.089 170.283 68.089ZM182.846 62.902H184.195V77H182.846V62.902ZM196.651 72.421H188.291C188.367 73.4597 188.766 74.302 189.488 74.948C190.21 75.5813 191.122 75.898 192.224 75.898C192.845 75.898 193.415 75.7903 193.934 75.575C194.453 75.347 194.903 75.0177 195.283 74.587L196.043 75.461C195.6 75.993 195.042 76.3983 194.371 76.677C193.712 76.9557 192.984 77.095 192.186 77.095C191.16 77.095 190.248 76.8797 189.45 76.449C188.665 76.0057 188.05 75.3977 187.607 74.625C187.164 73.8523 186.942 72.9783 186.942 72.003C186.942 71.0277 187.151 70.1537 187.569 69.381C188 68.6083 188.582 68.0067 189.317 67.576C190.064 67.1453 190.9 66.93 191.825 66.93C192.75 66.93 193.579 67.1453 194.314 67.576C195.049 68.0067 195.625 68.6083 196.043 69.381C196.461 70.141 196.67 71.015 196.67 72.003L196.651 72.421ZM191.825 68.089C190.862 68.089 190.052 68.3993 189.393 69.02C188.747 69.628 188.38 70.426 188.291 71.414H195.378C195.289 70.426 194.916 69.628 194.257 69.02C193.611 68.3993 192.8 68.089 191.825 68.089ZM202.095 77.095C201.284 77.095 200.505 76.981 199.758 76.753C199.023 76.5123 198.447 76.2147 198.029 75.86L198.637 74.796C199.055 75.1253 199.58 75.3977 200.214 75.613C200.847 75.8157 201.506 75.917 202.19 75.917C203.102 75.917 203.773 75.7777 204.204 75.499C204.647 75.2077 204.869 74.8023 204.869 74.283C204.869 73.9157 204.748 73.6307 204.508 73.428C204.267 73.2127 203.963 73.0543 203.596 72.953C203.228 72.839 202.741 72.7313 202.133 72.63C201.322 72.478 200.67 72.326 200.176 72.174C199.682 72.0093 199.257 71.737 198.903 71.357C198.561 70.977 198.39 70.4513 198.39 69.78C198.39 68.944 198.738 68.26 199.435 67.728C200.131 67.196 201.1 66.93 202.342 66.93C202.988 66.93 203.634 67.0187 204.28 67.196C204.926 67.3607 205.458 67.5823 205.876 67.861L205.287 68.944C204.463 68.374 203.482 68.089 202.342 68.089C201.48 68.089 200.828 68.241 200.385 68.545C199.954 68.849 199.739 69.248 199.739 69.742C199.739 70.122 199.859 70.426 200.1 70.654C200.353 70.882 200.663 71.053 201.031 71.167C201.398 71.2683 201.905 71.376 202.551 71.49C203.349 71.642 203.988 71.794 204.47 71.946C204.951 72.098 205.363 72.3577 205.705 72.725C206.047 73.0923 206.218 73.599 206.218 74.245C206.218 75.119 205.85 75.8157 205.116 76.335C204.394 76.8417 203.387 77.095 202.095 77.095ZM222.804 62.902V77H221.512V75.024C221.107 75.6953 220.569 76.2083 219.897 76.563C219.239 76.9177 218.491 77.095 217.655 77.095C216.718 77.095 215.869 76.8797 215.109 76.449C214.349 76.0183 213.754 75.4167 213.323 74.644C212.893 73.8713 212.677 72.991 212.677 72.003C212.677 71.015 212.893 70.1347 213.323 69.362C213.754 68.5893 214.349 67.994 215.109 67.576C215.869 67.1453 216.718 66.93 217.655 66.93C218.466 66.93 219.194 67.101 219.84 67.443C220.499 67.7723 221.037 68.26 221.455 68.906V62.902H222.804ZM217.769 75.898C218.466 75.898 219.093 75.7397 219.65 75.423C220.22 75.0937 220.664 74.6313 220.98 74.036C221.31 73.4407 221.474 72.763 221.474 72.003C221.474 71.243 221.31 70.5653 220.98 69.97C220.664 69.3747 220.22 68.9187 219.65 68.602C219.093 68.2727 218.466 68.108 217.769 68.108C217.06 68.108 216.42 68.2727 215.85 68.602C215.293 68.9187 214.85 69.3747 214.52 69.97C214.204 70.5653 214.045 71.243 214.045 72.003C214.045 72.763 214.204 73.4407 214.52 74.036C214.85 74.6313 215.293 75.0937 215.85 75.423C216.42 75.7397 217.06 75.898 217.769 75.898ZM235.263 72.421H226.903C226.979 73.4597 227.378 74.302 228.1 74.948C228.822 75.5813 229.734 75.898 230.836 75.898C231.457 75.898 232.027 75.7903 232.546 75.575C233.066 75.347 233.515 75.0177 233.895 74.587L234.655 75.461C234.212 75.993 233.655 76.3983 232.983 76.677C232.325 76.9557 231.596 77.095 230.798 77.095C229.772 77.095 228.86 76.8797 228.062 76.449C227.277 76.0057 226.663 75.3977 226.219 74.625C225.776 73.8523 225.554 72.9783 225.554 72.003C225.554 71.0277 225.763 70.1537 226.181 69.381C226.612 68.6083 227.195 68.0067 227.929 67.576C228.677 67.1453 229.513 66.93 230.437 66.93C231.362 66.93 232.192 67.1453 232.926 67.576C233.661 68.0067 234.237 68.6083 234.655 69.381C235.073 70.141 235.282 71.015 235.282 72.003L235.263 72.421ZM230.437 68.089C229.475 68.089 228.664 68.3993 228.005 69.02C227.359 69.628 226.992 70.426 226.903 71.414H233.99C233.902 70.426 233.528 69.628 232.869 69.02C232.223 68.3993 231.413 68.089 230.437 68.089ZM247.034 67.006V77H245.742V75.176C245.387 75.784 244.9 76.259 244.279 76.601C243.658 76.9303 242.949 77.095 242.151 77.095C240.846 77.095 239.814 76.734 239.054 76.012C238.307 75.2773 237.933 74.207 237.933 72.801V67.006H239.282V72.668C239.282 73.7193 239.542 74.5173 240.061 75.062C240.58 75.6067 241.321 75.879 242.284 75.879C243.335 75.879 244.165 75.5623 244.773 74.929C245.381 74.283 245.685 73.39 245.685 72.25V67.006H247.034ZM257.177 77L254.004 72.82L250.812 77H249.292L253.244 71.87L249.482 67.006H251.002L254.004 70.92L257.006 67.006H258.488L254.726 71.87L258.716 77H257.177ZM96.7139 89.93C98.0186 89.93 99.0192 90.2593 99.7159 90.918C100.413 91.564 100.761 92.5267 100.761 93.806V100H99.4689V98.442C99.1649 98.9613 98.7152 99.3667 98.1199 99.658C97.5372 99.9493 96.8406 100.095 96.0299 100.095C94.9152 100.095 94.0286 99.829 93.3699 99.297C92.7112 98.765 92.3819 98.062 92.3819 97.188C92.3819 96.3393 92.6859 95.6553 93.2939 95.136C93.9146 94.6167 94.8962 94.357 96.2389 94.357H99.4119V93.749C99.4119 92.8877 99.1712 92.2353 98.6899 91.792C98.2086 91.336 97.5056 91.108 96.5809 91.108C95.9476 91.108 95.3396 91.2157 94.7569 91.431C94.1742 91.6337 93.6739 91.9187 93.2559 92.286L92.6479 91.279C93.1546 90.8483 93.7626 90.519 94.4719 90.291C95.1812 90.0503 95.9286 89.93 96.7139 89.93ZM96.2389 99.031C96.9989 99.031 97.6512 98.86 98.1959 98.518C98.7406 98.1633 99.1459 97.6567 99.4119 96.998V95.364H96.2769C94.5669 95.364 93.7119 95.9593 93.7119 97.15C93.7119 97.7327 93.9336 98.195 94.3769 98.537C94.8202 98.8663 95.4409 99.031 96.2389 99.031ZM113.582 85.902V100H112.29V98.024C111.885 98.6953 111.346 99.2083 110.675 99.563C110.016 99.9177 109.269 100.095 108.433 100.095C107.496 100.095 106.647 99.8797 105.887 99.449C105.127 99.0183 104.532 98.4167 104.101 97.644C103.67 96.8713 103.455 95.991 103.455 95.003C103.455 94.015 103.67 93.1347 104.101 92.362C104.532 91.5893 105.127 90.994 105.887 90.576C106.647 90.1453 107.496 89.93 108.433 89.93C109.244 89.93 109.972 90.101 110.618 90.443C111.277 90.7723 111.815 91.26 112.233 91.906V85.902H113.582ZM108.547 98.898C109.244 98.898 109.871 98.7397 110.428 98.423C110.998 98.0937 111.441 97.6313 111.758 97.036C112.087 96.4407 112.252 95.763 112.252 95.003C112.252 94.243 112.087 93.5653 111.758 92.97C111.441 92.3747 110.998 91.9187 110.428 91.602C109.871 91.2727 109.244 91.108 108.547 91.108C107.838 91.108 107.198 91.2727 106.628 91.602C106.071 91.9187 105.627 92.3747 105.298 92.97C104.981 93.5653 104.823 94.243 104.823 95.003C104.823 95.763 104.981 96.4407 105.298 97.036C105.627 97.6313 106.071 98.0937 106.628 98.423C107.198 98.7397 107.838 98.898 108.547 98.898ZM118.631 91.963C118.948 91.2917 119.416 90.785 120.037 90.443C120.67 90.101 121.449 89.93 122.374 89.93V91.241L122.051 91.222C121 91.222 120.176 91.545 119.581 92.191C118.986 92.837 118.688 93.7427 118.688 94.908V100H117.339V90.006H118.631V91.963ZM133.426 95.421H125.066C125.142 96.4597 125.541 97.302 126.263 97.948C126.985 98.5813 127.897 98.898 128.999 98.898C129.619 98.898 130.189 98.7903 130.709 98.575C131.228 98.347 131.678 98.0177 132.058 97.587L132.818 98.461C132.374 98.993 131.817 99.3983 131.146 99.677C130.487 99.9557 129.759 100.095 128.961 100.095C127.935 100.095 127.023 99.8797 126.225 99.449C125.439 99.0057 124.825 98.3977 124.382 97.625C123.938 96.8523 123.717 95.9783 123.717 95.003C123.717 94.0277 123.926 93.1537 124.344 92.381C124.774 91.6083 125.357 91.0067 126.092 90.576C126.839 90.1453 127.675 89.93 128.6 89.93C129.524 89.93 130.354 90.1453 131.089 90.576C131.823 91.0067 132.4 91.6083 132.818 92.381C133.236 93.141 133.445 94.015 133.445 95.003L133.426 95.421ZM128.6 91.089C127.637 91.089 126.826 91.3993 126.168 92.02C125.522 92.628 125.154 93.426 125.066 94.414H132.153C132.064 93.426 131.69 92.628 131.032 92.02C130.386 91.3993 129.575 91.089 128.6 91.089ZM138.87 100.095C138.059 100.095 137.28 99.981 136.533 99.753C135.798 99.5123 135.222 99.2147 134.804 98.86L135.412 97.796C135.83 98.1253 136.355 98.3977 136.989 98.613C137.622 98.8157 138.281 98.917 138.965 98.917C139.877 98.917 140.548 98.7777 140.979 98.499C141.422 98.2077 141.644 97.8023 141.644 97.283C141.644 96.9157 141.523 96.6307 141.283 96.428C141.042 96.2127 140.738 96.0543 140.371 95.953C140.003 95.839 139.516 95.7313 138.908 95.63C138.097 95.478 137.445 95.326 136.951 95.174C136.457 95.0093 136.032 94.737 135.678 94.357C135.336 93.977 135.165 93.4513 135.165 92.78C135.165 91.944 135.513 91.26 136.21 90.728C136.906 90.196 137.875 89.93 139.117 89.93C139.763 89.93 140.409 90.0187 141.055 90.196C141.701 90.3607 142.233 90.5823 142.651 90.861L142.062 91.944C141.238 91.374 140.257 91.089 139.117 91.089C138.255 91.089 137.603 91.241 137.16 91.545C136.729 91.849 136.514 92.248 136.514 92.742C136.514 93.122 136.634 93.426 136.875 93.654C137.128 93.882 137.438 94.053 137.806 94.167C138.173 94.2683 138.68 94.376 139.326 94.49C140.124 94.642 140.763 94.794 141.245 94.946C141.726 95.098 142.138 95.3577 142.48 95.725C142.822 96.0923 142.993 96.599 142.993 97.245C142.993 98.119 142.625 98.8157 141.891 99.335C141.169 99.8417 140.162 100.095 138.87 100.095ZM148.165 100.095C147.355 100.095 146.576 99.981 145.828 99.753C145.094 99.5123 144.517 99.2147 144.099 98.86L144.707 97.796C145.125 98.1253 145.651 98.3977 146.284 98.613C146.918 98.8157 147.576 98.917 148.26 98.917C149.172 98.917 149.844 98.7777 150.274 98.499C150.718 98.2077 150.939 97.8023 150.939 97.283C150.939 96.9157 150.819 96.6307 150.578 96.428C150.338 96.2127 150.034 96.0543 149.666 95.953C149.299 95.839 148.811 95.7313 148.203 95.63C147.393 95.478 146.74 95.326 146.246 95.174C145.752 95.0093 145.328 94.737 144.973 94.357C144.631 93.977 144.46 93.4513 144.46 92.78C144.46 91.944 144.809 91.26 145.505 90.728C146.202 90.196 147.171 89.93 148.412 89.93C149.058 89.93 149.704 90.0187 150.35 90.196C150.996 90.3607 151.528 90.5823 151.946 90.861L151.357 91.944C150.534 91.374 149.552 91.089 148.412 91.089C147.551 91.089 146.899 91.241 146.455 91.545C146.025 91.849 145.809 92.248 145.809 92.742C145.809 93.122 145.93 93.426 146.17 93.654C146.424 93.882 146.734 94.053 147.101 94.167C147.469 94.2683 147.975 94.376 148.621 94.49C149.419 94.642 150.059 94.794 150.54 94.946C151.022 95.098 151.433 95.3577 151.775 95.725C152.117 96.0923 152.288 96.599 152.288 97.245C152.288 98.119 151.921 98.8157 151.186 99.335C150.464 99.8417 149.457 100.095 148.165 100.095ZM163.484 95.421H155.124C155.2 96.4597 155.599 97.302 156.321 97.948C157.043 98.5813 157.955 98.898 159.057 98.898C159.678 98.898 160.248 98.7903 160.767 98.575C161.287 98.347 161.736 98.0177 162.116 97.587L162.876 98.461C162.433 98.993 161.876 99.3983 161.204 99.677C160.546 99.9557 159.817 100.095 159.019 100.095C157.993 100.095 157.081 99.8797 156.283 99.449C155.498 99.0057 154.884 98.3977 154.44 97.625C153.997 96.8523 153.775 95.9783 153.775 95.003C153.775 94.0277 153.984 93.1537 154.402 92.381C154.833 91.6083 155.416 91.0067 156.15 90.576C156.898 90.1453 157.734 89.93 158.658 89.93C159.583 89.93 160.413 90.1453 161.147 90.576C161.882 91.0067 162.458 91.6083 162.876 92.381C163.294 93.141 163.503 94.015 163.503 95.003L163.484 95.421ZM158.658 91.089C157.696 91.089 156.885 91.3993 156.226 92.02C155.58 92.628 155.213 93.426 155.124 94.414H162.211C162.123 93.426 161.749 92.628 161.09 92.02C160.444 91.3993 159.634 91.089 158.658 91.089ZM168.928 100.095C168.117 100.095 167.338 99.981 166.591 99.753C165.856 99.5123 165.28 99.2147 164.862 98.86L165.47 97.796C165.888 98.1253 166.414 98.3977 167.047 98.613C167.68 98.8157 168.339 98.917 169.023 98.917C169.935 98.917 170.606 98.7777 171.037 98.499C171.48 98.2077 171.702 97.8023 171.702 97.283C171.702 96.9157 171.582 96.6307 171.341 96.428C171.1 96.2127 170.796 96.0543 170.429 95.953C170.062 95.839 169.574 95.7313 168.966 95.63C168.155 95.478 167.503 95.326 167.009 95.174C166.515 95.0093 166.091 94.737 165.736 94.357C165.394 93.977 165.223 93.4513 165.223 92.78C165.223 91.944 165.571 91.26 166.268 90.728C166.965 90.196 167.934 89.93 169.175 89.93C169.821 89.93 170.467 90.0187 171.113 90.196C171.759 90.3607 172.291 90.5823 172.709 90.861L172.12 91.944C171.297 91.374 170.315 91.089 169.175 91.089C168.314 91.089 167.661 91.241 167.218 91.545C166.787 91.849 166.572 92.248 166.572 92.742C166.572 93.122 166.692 93.426 166.933 93.654C167.186 93.882 167.497 94.053 167.864 94.167C168.231 94.2683 168.738 94.376 169.384 94.49C170.182 94.642 170.822 94.794 171.303 94.946C171.784 95.098 172.196 95.3577 172.538 95.725C172.88 96.0923 173.051 96.599 173.051 97.245C173.051 98.119 172.684 98.8157 171.949 99.335C171.227 99.8417 170.22 100.095 168.928 100.095ZM175.678 100.095C175.399 100.095 175.159 99.9937 174.956 99.791C174.766 99.5883 174.671 99.3413 174.671 99.05C174.671 98.7587 174.766 98.518 174.956 98.328C175.159 98.1253 175.399 98.024 175.678 98.024C175.957 98.024 176.197 98.1253 176.4 98.328C176.603 98.518 176.704 98.7587 176.704 99.05C176.704 99.3413 176.603 99.5883 176.4 99.791C176.197 99.9937 175.957 100.095 175.678 100.095ZM18.7052 123.114C17.3879 123.114 16.1972 122.823 15.1332 122.24C14.0819 121.657 13.2522 120.853 12.6442 119.827C12.0489 118.788 11.7512 117.629 11.7512 116.35C11.7512 115.071 12.0489 113.918 12.6442 112.892C13.2522 111.853 14.0882 111.043 15.1522 110.46C16.2162 109.877 17.4069 109.586 18.7242 109.586C19.7122 109.586 20.6242 109.751 21.4602 110.08C22.2962 110.409 23.0055 110.891 23.5882 111.524L22.6952 112.417C21.6565 111.366 20.3455 110.84 18.7622 110.84C17.7109 110.84 16.7545 111.081 15.8932 111.562C15.0319 112.043 14.3542 112.702 13.8602 113.538C13.3789 114.374 13.1382 115.311 13.1382 116.35C13.1382 117.389 13.3789 118.326 13.8602 119.162C14.3542 119.998 15.0319 120.657 15.8932 121.138C16.7545 121.619 17.7109 121.86 18.7622 121.86C20.3582 121.86 21.6692 121.328 22.6952 120.264L23.5882 121.157C23.0055 121.79 22.2899 122.278 21.4412 122.62C20.6052 122.949 19.6932 123.114 18.7052 123.114ZM26.3004 108.902H27.6494V123H26.3004V108.902ZM31.403 113.006H32.752V123H31.403V113.006ZM32.087 110.821C31.8083 110.821 31.574 110.726 31.384 110.536C31.194 110.346 31.099 110.118 31.099 109.852C31.099 109.599 31.194 109.377 31.384 109.187C31.574 108.997 31.8083 108.902 32.087 108.902C32.3656 108.902 32.6 108.997 32.79 109.187C32.98 109.364 33.075 109.58 33.075 109.833C33.075 110.112 32.98 110.346 32.79 110.536C32.6 110.726 32.3656 110.821 32.087 110.821ZM45.6255 113.006V126.686H44.2765V121.119C43.8585 121.765 43.3202 122.259 42.6615 122.601C42.0155 122.93 41.2872 123.095 40.4765 123.095C39.5265 123.095 38.6715 122.886 37.9115 122.468C37.1642 122.037 36.5752 121.436 36.1445 120.663C35.7138 119.89 35.4985 119.004 35.4985 118.003C35.4985 117.015 35.7138 116.135 36.1445 115.362C36.5752 114.589 37.1705 113.994 37.9305 113.576C38.6905 113.145 39.5392 112.93 40.4765 112.93C41.3125 112.93 42.0598 113.107 42.7185 113.462C43.3898 113.817 43.9282 114.323 44.3335 114.982V113.006H45.6255ZM40.5905 121.898C41.2872 121.898 41.9142 121.74 42.4715 121.423C43.0415 121.094 43.4848 120.631 43.8015 120.036C44.1308 119.441 44.2955 118.763 44.2955 118.003C44.2955 117.243 44.1308 116.572 43.8015 115.989C43.4848 115.394 43.0415 114.931 42.4715 114.602C41.9142 114.273 41.2872 114.108 40.5905 114.108C39.8812 114.108 39.2415 114.273 38.6715 114.602C38.1142 114.931 37.6708 115.394 37.3415 115.989C37.0248 116.572 36.8665 117.243 36.8665 118.003C36.8665 118.763 37.0248 119.441 37.3415 120.036C37.6708 120.631 38.1142 121.094 38.6715 121.423C39.2415 121.74 39.8812 121.898 40.5905 121.898ZM58.3885 113.006V123H57.0965V121.176C56.7418 121.784 56.2541 122.259 55.6335 122.601C55.0128 122.93 54.3035 123.095 53.5055 123.095C52.2008 123.095 51.1685 122.734 50.4085 122.012C49.6611 121.277 49.2875 120.207 49.2875 118.801V113.006H50.6365V118.668C50.6365 119.719 50.8961 120.517 51.4155 121.062C51.9348 121.607 52.6758 121.879 53.6385 121.879C54.6898 121.879 55.5195 121.562 56.1275 120.929C56.7355 120.283 57.0395 119.39 57.0395 118.25V113.006H58.3885ZM70.8686 118.421H62.5086C62.5846 119.46 62.9836 120.302 63.7056 120.948C64.4276 121.581 65.3396 121.898 66.4416 121.898C67.0623 121.898 67.6323 121.79 68.1516 121.575C68.671 121.347 69.1206 121.018 69.5006 120.587L70.2606 121.461C69.8173 121.993 69.26 122.398 68.5886 122.677C67.93 122.956 67.2016 123.095 66.4036 123.095C65.3776 123.095 64.4656 122.88 63.6676 122.449C62.8823 122.006 62.268 121.398 61.8246 120.625C61.3813 119.852 61.1596 118.978 61.1596 118.003C61.1596 117.028 61.3686 116.154 61.7866 115.381C62.2173 114.608 62.8 114.007 63.5346 113.576C64.282 113.145 65.118 112.93 66.0426 112.93C66.9673 112.93 67.797 113.145 68.5316 113.576C69.2663 114.007 69.8426 114.608 70.2606 115.381C70.6786 116.141 70.8876 117.015 70.8876 118.003L70.8686 118.421ZM66.0426 114.089C65.08 114.089 64.2693 114.399 63.6106 115.02C62.9646 115.628 62.5973 116.426 62.5086 117.414H69.5956C69.507 116.426 69.1333 115.628 68.4746 115.02C67.8286 114.399 67.018 114.089 66.0426 114.089ZM80.5897 121.879V123H72.4577V122.107L78.7467 114.146H72.5717V113.006H80.4757V113.899L74.1867 121.879H80.5897ZM90.8964 123.095C90.0858 123.095 89.3068 122.981 88.5594 122.753C87.8248 122.512 87.2484 122.215 86.8304 121.86L87.4384 120.796C87.8564 121.125 88.3821 121.398 89.0154 121.613C89.6488 121.816 90.3074 121.917 90.9914 121.917C91.9034 121.917 92.5748 121.778 93.0054 121.499C93.4488 121.208 93.6704 120.802 93.6704 120.283C93.6704 119.916 93.5501 119.631 93.3094 119.428C93.0688 119.213 92.7648 119.054 92.3974 118.953C92.0301 118.839 91.5424 118.731 90.9344 118.63C90.1238 118.478 89.4714 118.326 88.9774 118.174C88.4834 118.009 88.0591 117.737 87.7044 117.357C87.3624 116.977 87.1914 116.451 87.1914 115.78C87.1914 114.944 87.5398 114.26 88.2364 113.728C88.9331 113.196 89.9021 112.93 91.1434 112.93C91.7894 112.93 92.4354 113.019 93.0814 113.196C93.7274 113.361 94.2594 113.582 94.6774 113.861L94.0884 114.944C93.2651 114.374 92.2834 114.089 91.1434 114.089C90.2821 114.089 89.6298 114.241 89.1864 114.545C88.7558 114.849 88.5404 115.248 88.5404 115.742C88.5404 116.122 88.6608 116.426 88.9014 116.654C89.1548 116.882 89.4651 117.053 89.8324 117.167C90.1998 117.268 90.7064 117.376 91.3524 117.49C92.1504 117.642 92.7901 117.794 93.2714 117.946C93.7528 118.098 94.1644 118.358 94.5064 118.725C94.8484 119.092 95.0194 119.599 95.0194 120.245C95.0194 121.119 94.6521 121.816 93.9174 122.335C93.1954 122.842 92.1884 123.095 90.8964 123.095ZM106.519 113.006V123H105.227V121.176C104.873 121.784 104.385 122.259 103.764 122.601C103.144 122.93 102.434 123.095 101.636 123.095C100.332 123.095 99.2993 122.734 98.5393 122.012C97.792 121.277 97.4183 120.207 97.4183 118.801V113.006H98.7673V118.668C98.7673 119.719 99.027 120.517 99.5463 121.062C100.066 121.607 100.807 121.879 101.769 121.879C102.821 121.879 103.65 121.562 104.258 120.929C104.866 120.283 105.17 119.39 105.17 118.25V113.006H106.519ZM111.59 114.963C111.906 114.292 112.375 113.785 112.996 113.443C113.629 113.101 114.408 112.93 115.333 112.93V114.241L115.01 114.222C113.958 114.222 113.135 114.545 112.54 115.191C111.944 115.837 111.647 116.743 111.647 117.908V123H110.298V113.006H111.59V114.963ZM122.896 108.902H124.245V123H122.896V108.902ZM136.701 118.421H128.341C128.417 119.46 128.816 120.302 129.538 120.948C130.26 121.581 131.172 121.898 132.274 121.898C132.894 121.898 133.464 121.79 133.984 121.575C134.503 121.347 134.953 121.018 135.333 120.587L136.093 121.461C135.649 121.993 135.092 122.398 134.421 122.677C133.762 122.956 133.034 123.095 132.236 123.095C131.21 123.095 130.298 122.88 129.5 122.449C128.714 122.006 128.1 121.398 127.657 120.625C127.213 119.852 126.992 118.978 126.992 118.003C126.992 117.028 127.201 116.154 127.619 115.381C128.049 114.608 128.632 114.007 129.367 113.576C130.114 113.145 130.95 112.93 131.875 112.93C132.799 112.93 133.629 113.145 134.364 113.576C135.098 114.007 135.675 114.608 136.093 115.381C136.511 116.141 136.72 117.015 136.72 118.003L136.701 118.421ZM131.875 114.089C130.912 114.089 130.101 114.399 129.443 115.02C128.797 115.628 128.429 116.426 128.341 117.414H135.428C135.339 116.426 134.965 115.628 134.307 115.02C133.661 114.399 132.85 114.089 131.875 114.089ZM142.144 123.095C141.334 123.095 140.555 122.981 139.807 122.753C139.073 122.512 138.496 122.215 138.078 121.86L138.686 120.796C139.104 121.125 139.63 121.398 140.263 121.613C140.897 121.816 141.555 121.917 142.239 121.917C143.151 121.917 143.823 121.778 144.253 121.499C144.697 121.208 144.918 120.802 144.918 120.283C144.918 119.916 144.798 119.631 144.557 119.428C144.317 119.213 144.013 119.054 143.645 118.953C143.278 118.839 142.79 118.731 142.182 118.63C141.372 118.478 140.719 118.326 140.225 118.174C139.731 118.009 139.307 117.737 138.952 117.357C138.61 116.977 138.439 116.451 138.439 115.78C138.439 114.944 138.788 114.26 139.484 113.728C140.181 113.196 141.15 112.93 142.391 112.93C143.037 112.93 143.683 113.019 144.329 113.196C144.975 113.361 145.507 113.582 145.925 113.861L145.336 114.944C144.513 114.374 143.531 114.089 142.391 114.089C141.53 114.089 140.878 114.241 140.434 114.545C140.004 114.849 139.788 115.248 139.788 115.742C139.788 116.122 139.909 116.426 140.149 116.654C140.403 116.882 140.713 117.053 141.08 117.167C141.448 117.268 141.954 117.376 142.6 117.49C143.398 117.642 144.038 117.794 144.519 117.946C145.001 118.098 145.412 118.358 145.754 118.725C146.096 119.092 146.267 119.599 146.267 120.245C146.267 121.119 145.9 121.816 145.165 122.335C144.443 122.842 143.436 123.095 142.144 123.095ZM153.734 113.006H155.083V123H153.734V113.006ZM154.418 110.821C154.139 110.821 153.905 110.726 153.715 110.536C153.525 110.346 153.43 110.118 153.43 109.852C153.43 109.599 153.525 109.377 153.715 109.187C153.905 108.997 154.139 108.902 154.418 108.902C154.697 108.902 154.931 108.997 155.121 109.187C155.311 109.364 155.406 109.58 155.406 109.833C155.406 110.112 155.311 110.346 155.121 110.536C154.931 110.726 154.697 110.821 154.418 110.821ZM162.979 123.095C161.991 123.095 161.104 122.88 160.319 122.449C159.546 122.018 158.938 121.417 158.495 120.644C158.051 119.859 157.83 118.978 157.83 118.003C157.83 117.028 158.051 116.154 158.495 115.381C158.938 114.608 159.546 114.007 160.319 113.576C161.104 113.145 161.991 112.93 162.979 112.93C163.84 112.93 164.606 113.101 165.278 113.443C165.962 113.772 166.5 114.26 166.893 114.906L165.886 115.59C165.556 115.096 165.138 114.729 164.632 114.488C164.125 114.235 163.574 114.108 162.979 114.108C162.257 114.108 161.604 114.273 161.022 114.602C160.452 114.919 160.002 115.375 159.673 115.97C159.356 116.565 159.198 117.243 159.198 118.003C159.198 118.776 159.356 119.46 159.673 120.055C160.002 120.638 160.452 121.094 161.022 121.423C161.604 121.74 162.257 121.898 162.979 121.898C163.574 121.898 164.125 121.778 164.632 121.537C165.138 121.296 165.556 120.929 165.886 120.435L166.893 121.119C166.5 121.765 165.962 122.259 165.278 122.601C164.594 122.93 163.827 123.095 162.979 123.095ZM173.461 123.095C172.498 123.095 171.63 122.88 170.858 122.449C170.085 122.006 169.477 121.398 169.034 120.625C168.59 119.852 168.369 118.978 168.369 118.003C168.369 117.028 168.59 116.154 169.034 115.381C169.477 114.608 170.085 114.007 170.858 113.576C171.63 113.145 172.498 112.93 173.461 112.93C174.423 112.93 175.291 113.145 176.064 113.576C176.836 114.007 177.438 114.608 177.869 115.381C178.312 116.154 178.534 117.028 178.534 118.003C178.534 118.978 178.312 119.852 177.869 120.625C177.438 121.398 176.836 122.006 176.064 122.449C175.291 122.88 174.423 123.095 173.461 123.095ZM173.461 121.898C174.17 121.898 174.803 121.74 175.361 121.423C175.931 121.094 176.374 120.631 176.691 120.036C177.007 119.441 177.166 118.763 177.166 118.003C177.166 117.243 177.007 116.565 176.691 115.97C176.374 115.375 175.931 114.919 175.361 114.602C174.803 114.273 174.17 114.108 173.461 114.108C172.751 114.108 172.112 114.273 171.542 114.602C170.984 114.919 170.541 115.375 170.212 115.97C169.895 116.565 169.737 117.243 169.737 118.003C169.737 118.763 169.895 119.441 170.212 120.036C170.541 120.631 170.984 121.094 171.542 121.423C172.112 121.74 172.751 121.898 173.461 121.898ZM175.323 111.448L173.442 109.871L171.561 111.448H170.307L172.758 109.092H174.126L176.577 111.448H175.323ZM186.38 112.93C187.634 112.93 188.628 113.297 189.363 114.032C190.11 114.754 190.484 115.812 190.484 117.205V123H189.135V117.338C189.135 116.299 188.875 115.508 188.356 114.963C187.836 114.418 187.095 114.146 186.133 114.146C185.056 114.146 184.201 114.469 183.568 115.115C182.947 115.748 182.637 116.629 182.637 117.756V123H181.288V113.006H182.58V114.849C182.947 114.241 183.454 113.772 184.1 113.443C184.758 113.101 185.518 112.93 186.38 112.93ZM202.885 118.421H194.525C194.601 119.46 195 120.302 195.722 120.948C196.444 121.581 197.356 121.898 198.458 121.898C199.079 121.898 199.649 121.79 200.168 121.575C200.688 121.347 201.137 121.018 201.517 120.587L202.277 121.461C201.834 121.993 201.277 122.398 200.605 122.677C199.947 122.956 199.218 123.095 198.42 123.095C197.394 123.095 196.482 122.88 195.684 122.449C194.899 122.006 194.285 121.398 193.841 120.625C193.398 119.852 193.176 118.978 193.176 118.003C193.176 117.028 193.385 116.154 193.803 115.381C194.234 114.608 194.817 114.007 195.551 113.576C196.299 113.145 197.135 112.93 198.059 112.93C198.984 112.93 199.814 113.145 200.548 113.576C201.283 114.007 201.859 114.608 202.277 115.381C202.695 116.141 202.904 117.015 202.904 118.003L202.885 118.421ZM198.059 114.089C197.097 114.089 196.286 114.399 195.627 115.02C194.981 115.628 194.614 116.426 194.525 117.414H201.612C201.524 116.426 201.15 115.628 200.491 115.02C199.845 114.399 199.035 114.089 198.059 114.089ZM208.329 123.095C207.518 123.095 206.739 122.981 205.992 122.753C205.257 122.512 204.681 122.215 204.263 121.86L204.871 120.796C205.289 121.125 205.815 121.398 206.448 121.613C207.081 121.816 207.74 121.917 208.424 121.917C209.336 121.917 210.007 121.778 210.438 121.499C210.881 121.208 211.103 120.802 211.103 120.283C211.103 119.916 210.983 119.631 210.742 119.428C210.501 119.213 210.197 119.054 209.83 118.953C209.463 118.839 208.975 118.731 208.367 118.63C207.556 118.478 206.904 118.326 206.41 118.174C205.916 118.009 205.492 117.737 205.137 117.357C204.795 116.977 204.624 116.451 204.624 115.78C204.624 114.944 204.972 114.26 205.669 113.728C206.366 113.196 207.335 112.93 208.576 112.93C209.222 112.93 209.868 113.019 210.514 113.196C211.16 113.361 211.692 113.582 212.11 113.861L211.521 114.944C210.698 114.374 209.716 114.089 208.576 114.089C207.715 114.089 207.062 114.241 206.619 114.545C206.188 114.849 205.973 115.248 205.973 115.742C205.973 116.122 206.093 116.426 206.334 116.654C206.587 116.882 206.898 117.053 207.265 117.167C207.632 117.268 208.139 117.376 208.785 117.49C209.583 117.642 210.223 117.794 210.704 117.946C211.185 118.098 211.597 118.358 211.939 118.725C212.281 119.092 212.452 119.599 212.452 120.245C212.452 121.119 212.085 121.816 211.35 122.335C210.628 122.842 209.621 123.095 208.329 123.095ZM225.068 112.93C226.005 112.93 226.854 113.145 227.614 113.576C228.374 113.994 228.969 114.589 229.4 115.362C229.83 116.135 230.046 117.015 230.046 118.003C230.046 119.004 229.83 119.89 229.4 120.663C228.969 121.436 228.374 122.037 227.614 122.468C226.866 122.886 226.018 123.095 225.068 123.095C224.257 123.095 223.522 122.93 222.864 122.601C222.218 122.259 221.686 121.765 221.268 121.119V126.686H219.919V113.006H221.211V114.982C221.616 114.323 222.148 113.817 222.807 113.462C223.478 113.107 224.232 112.93 225.068 112.93ZM224.973 121.898C225.669 121.898 226.303 121.74 226.873 121.423C227.443 121.094 227.886 120.631 228.203 120.036C228.532 119.441 228.697 118.763 228.697 118.003C228.697 117.243 228.532 116.572 228.203 115.989C227.886 115.394 227.443 114.931 226.873 114.602C226.303 114.273 225.669 114.108 224.973 114.108C224.263 114.108 223.624 114.273 223.054 114.602C222.496 114.931 222.053 115.394 221.724 115.989C221.407 116.572 221.249 117.243 221.249 118.003C221.249 118.763 221.407 119.441 221.724 120.036C222.053 120.631 222.496 121.094 223.054 121.423C223.624 121.74 224.263 121.898 224.973 121.898ZM236.881 123.095C235.918 123.095 235.05 122.88 234.278 122.449C233.505 122.006 232.897 121.398 232.454 120.625C232.01 119.852 231.789 118.978 231.789 118.003C231.789 117.028 232.01 116.154 232.454 115.381C232.897 114.608 233.505 114.007 234.278 113.576C235.05 113.145 235.918 112.93 236.881 112.93C237.843 112.93 238.711 113.145 239.484 113.576C240.256 114.007 240.858 114.608 241.289 115.381C241.732 116.154 241.954 117.028 241.954 118.003C241.954 118.978 241.732 119.852 241.289 120.625C240.858 121.398 240.256 122.006 239.484 122.449C238.711 122.88 237.843 123.095 236.881 123.095ZM236.881 121.898C237.59 121.898 238.223 121.74 238.781 121.423C239.351 121.094 239.794 120.631 240.111 120.036C240.427 119.441 240.586 118.763 240.586 118.003C240.586 117.243 240.427 116.565 240.111 115.97C239.794 115.375 239.351 114.919 238.781 114.602C238.223 114.273 237.59 114.108 236.881 114.108C236.171 114.108 235.532 114.273 234.962 114.602C234.404 114.919 233.961 115.375 233.632 115.97C233.315 116.565 233.157 117.243 233.157 118.003C233.157 118.763 233.315 119.441 233.632 120.036C233.961 120.631 234.404 121.094 234.962 121.423C235.532 121.74 236.171 121.898 236.881 121.898ZM253.714 113.006V123H252.422V121.176C252.067 121.784 251.579 122.259 250.959 122.601C250.338 122.93 249.629 123.095 248.831 123.095C247.526 123.095 246.494 122.734 245.734 122.012C244.986 121.277 244.613 120.207 244.613 118.801V113.006H245.962V118.668C245.962 119.719 246.221 120.517 246.741 121.062C247.26 121.607 248.001 121.879 248.964 121.879C250.015 121.879 250.845 121.562 251.453 120.929C252.061 120.283 252.365 119.39 252.365 118.25V113.006H253.714ZM258.784 114.963C259.101 114.292 259.569 113.785 260.19 113.443C260.823 113.101 261.602 112.93 262.527 112.93V114.241L262.204 114.222C261.153 114.222 260.329 114.545 259.734 115.191C259.139 115.837 258.841 116.743 258.841 117.908V123H257.492V113.006H258.784V114.963ZM19.5079 135.93C20.8125 135.93 21.8132 136.259 22.5099 136.918C23.2065 137.564 23.5549 138.527 23.5549 139.806V146H22.2629V144.442C21.9589 144.961 21.5092 145.367 20.9139 145.658C20.3312 145.949 19.6345 146.095 18.8239 146.095C17.7092 146.095 16.8225 145.829 16.1639 145.297C15.5052 144.765 15.1759 144.062 15.1759 143.188C15.1759 142.339 15.4799 141.655 16.0879 141.136C16.7085 140.617 17.6902 140.357 19.0329 140.357H22.2059V139.749C22.2059 138.888 21.9652 138.235 21.4839 137.792C21.0025 137.336 20.2995 137.108 19.3749 137.108C18.7415 137.108 18.1335 137.216 17.5509 137.431C16.9682 137.634 16.4679 137.919 16.0499 138.286L15.4419 137.279C15.9485 136.848 16.5565 136.519 17.2659 136.291C17.9752 136.05 18.7225 135.93 19.5079 135.93ZM19.0329 145.031C19.7929 145.031 20.4452 144.86 20.9899 144.518C21.5345 144.163 21.9399 143.657 22.2059 142.998V141.364H19.0709C17.3609 141.364 16.5059 141.959 16.5059 143.15C16.5059 143.733 16.7275 144.195 17.1709 144.537C17.6142 144.866 18.2349 145.031 19.0329 145.031ZM31.398 146.095C30.41 146.095 29.5233 145.88 28.738 145.449C27.9653 145.018 27.3573 144.417 26.914 143.644C26.4707 142.859 26.249 141.978 26.249 141.003C26.249 140.028 26.4707 139.154 26.914 138.381C27.3573 137.608 27.9653 137.007 28.738 136.576C29.5233 136.145 30.41 135.93 31.398 135.93C32.2593 135.93 33.0257 136.101 33.697 136.443C34.381 136.772 34.9193 137.26 35.312 137.906L34.305 138.59C33.9757 138.096 33.5577 137.729 33.051 137.488C32.5443 137.235 31.9933 137.108 31.398 137.108C30.676 137.108 30.0237 137.273 29.441 137.602C28.871 137.919 28.4213 138.375 28.092 138.97C27.7753 139.565 27.617 140.243 27.617 141.003C27.617 141.776 27.7753 142.46 28.092 143.055C28.4213 143.638 28.871 144.094 29.441 144.423C30.0237 144.74 30.676 144.898 31.398 144.898C31.9933 144.898 32.5443 144.778 33.051 144.537C33.5577 144.296 33.9757 143.929 34.305 143.435L35.312 144.119C34.9193 144.765 34.381 145.259 33.697 145.601C33.013 145.93 32.2467 146.095 31.398 146.095ZM41.9371 146.095C40.9491 146.095 40.0624 145.88 39.2771 145.449C38.5044 145.018 37.8964 144.417 37.4531 143.644C37.0097 142.859 36.7881 141.978 36.7881 141.003C36.7881 140.028 37.0097 139.154 37.4531 138.381C37.8964 137.608 38.5044 137.007 39.2771 136.576C40.0624 136.145 40.9491 135.93 41.9371 135.93C42.7984 135.93 43.5647 136.101 44.2361 136.443C44.9201 136.772 45.4584 137.26 45.8511 137.906L44.8441 138.59C44.5147 138.096 44.0967 137.729 43.5901 137.488C43.0834 137.235 42.5324 137.108 41.9371 137.108C41.2151 137.108 40.5627 137.273 39.9801 137.602C39.4101 137.919 38.9604 138.375 38.6311 138.97C38.3144 139.565 38.1561 140.243 38.1561 141.003C38.1561 141.776 38.3144 142.46 38.6311 143.055C38.9604 143.638 39.4101 144.094 39.9801 144.423C40.5627 144.74 41.2151 144.898 41.9371 144.898C42.5324 144.898 43.0834 144.778 43.5901 144.537C44.0967 144.296 44.5147 143.929 44.8441 143.435L45.8511 144.119C45.4584 144.765 44.9201 145.259 44.2361 145.601C43.5521 145.93 42.7857 146.095 41.9371 146.095ZM57.0361 141.421H48.6761C48.7521 142.46 49.1511 143.302 49.8731 143.948C50.5951 144.581 51.5071 144.898 52.6091 144.898C53.2298 144.898 53.7998 144.79 54.3191 144.575C54.8385 144.347 55.2881 144.018 55.6681 143.587L56.4281 144.461C55.9848 144.993 55.4275 145.398 54.7561 145.677C54.0975 145.956 53.3691 146.095 52.5711 146.095C51.5451 146.095 50.6331 145.88 49.8351 145.449C49.0498 145.006 48.4355 144.398 47.9921 143.625C47.5488 142.852 47.3271 141.978 47.3271 141.003C47.3271 140.028 47.5361 139.154 47.9541 138.381C48.3848 137.608 48.9675 137.007 49.7021 136.576C50.4495 136.145 51.2855 135.93 52.2101 135.93C53.1348 135.93 53.9645 136.145 54.6991 136.576C55.4338 137.007 56.0101 137.608 56.4281 138.381C56.8461 139.141 57.0551 140.015 57.0551 141.003L57.0361 141.421ZM52.2101 137.089C51.2475 137.089 50.4368 137.399 49.7781 138.02C49.1321 138.628 48.7648 139.426 48.6761 140.414H55.7631C55.6745 139.426 55.3008 138.628 54.6421 138.02C53.9961 137.399 53.1855 137.089 52.2101 137.089ZM53.5781 132.092H55.3831L52.3051 134.448H50.9751L53.5781 132.092ZM68.9209 131.902V146H67.6289V144.024C67.2236 144.695 66.6853 145.208 66.0139 145.563C65.3553 145.918 64.6079 146.095 63.7719 146.095C62.8346 146.095 61.9859 145.88 61.2259 145.449C60.4659 145.018 59.8706 144.417 59.4399 143.644C59.0093 142.871 58.7939 141.991 58.7939 141.003C58.7939 140.015 59.0093 139.135 59.4399 138.362C59.8706 137.589 60.4659 136.994 61.2259 136.576C61.9859 136.145 62.8346 135.93 63.7719 135.93C64.5826 135.93 65.3109 136.101 65.9569 136.443C66.6156 136.772 67.1539 137.26 67.5719 137.906V131.902H68.9209ZM63.8859 144.898C64.5826 144.898 65.2096 144.74 65.7669 144.423C66.3369 144.094 66.7803 143.631 67.0969 143.036C67.4263 142.441 67.5909 141.763 67.5909 141.003C67.5909 140.243 67.4263 139.565 67.0969 138.97C66.7803 138.375 66.3369 137.919 65.7669 137.602C65.2096 137.273 64.5826 137.108 63.8859 137.108C63.1766 137.108 62.5369 137.273 61.9669 137.602C61.4096 137.919 60.9663 138.375 60.6369 138.97C60.3203 139.565 60.1619 140.243 60.1619 141.003C60.1619 141.763 60.3203 142.441 60.6369 143.036C60.9663 143.631 61.4096 144.094 61.9669 144.423C62.5369 144.74 63.1766 144.898 63.8859 144.898ZM81.3799 141.421H73.0199C73.0959 142.46 73.4949 143.302 74.2169 143.948C74.9389 144.581 75.8509 144.898 76.9529 144.898C77.5735 144.898 78.1435 144.79 78.6629 144.575C79.1822 144.347 79.6319 144.018 80.0119 143.587L80.7719 144.461C80.3285 144.993 79.7712 145.398 79.0999 145.677C78.4412 145.956 77.7129 146.095 76.9149 146.095C75.8889 146.095 74.9769 145.88 74.1789 145.449C73.3935 145.006 72.7792 144.398 72.3359 143.625C71.8925 142.852 71.6709 141.978 71.6709 141.003C71.6709 140.028 71.8799 139.154 72.2979 138.381C72.7285 137.608 73.3112 137.007 74.0459 136.576C74.7932 136.145 75.6292 135.93 76.5539 135.93C77.4785 135.93 78.3082 136.145 79.0429 136.576C79.7775 137.007 80.3539 137.608 80.7719 138.381C81.1899 139.141 81.3989 140.015 81.3989 141.003L81.3799 141.421ZM76.5539 137.089C75.5912 137.089 74.7805 137.399 74.1219 138.02C73.4759 138.628 73.1085 139.426 73.0199 140.414H80.1069C80.0182 139.426 79.6445 138.628 78.9859 138.02C78.3399 137.399 77.5292 137.089 76.5539 137.089ZM85.4367 137.963C85.7533 137.292 86.222 136.785 86.8427 136.443C87.476 136.101 88.255 135.93 89.1797 135.93V137.241L88.8567 137.222C87.8053 137.222 86.982 137.545 86.3867 138.191C85.7913 138.837 85.4937 139.743 85.4937 140.908V146H84.1447V136.006H85.4367V137.963ZM100.239 135.93C101.544 135.93 102.545 136.259 103.241 136.918C103.938 137.564 104.286 138.527 104.286 139.806V146H102.994V144.442C102.69 144.961 102.241 145.367 101.645 145.658C101.063 145.949 100.366 146.095 99.5553 146.095C98.4406 146.095 97.554 145.829 96.8953 145.297C96.2366 144.765 95.9073 144.062 95.9073 143.188C95.9073 142.339 96.2113 141.655 96.8193 141.136C97.44 140.617 98.4216 140.357 99.7643 140.357H102.937V139.749C102.937 138.888 102.697 138.235 102.215 137.792C101.734 137.336 101.031 137.108 100.106 137.108C99.473 137.108 98.865 137.216 98.2823 137.431C97.6996 137.634 97.1993 137.919 96.7813 138.286L96.1733 137.279C96.68 136.848 97.288 136.519 97.9973 136.291C98.7066 136.05 99.454 135.93 100.239 135.93ZM99.7643 145.031C100.524 145.031 101.177 144.86 101.721 144.518C102.266 144.163 102.671 143.657 102.937 142.998V141.364H99.8023C98.0923 141.364 97.2373 141.959 97.2373 143.15C97.2373 143.733 97.459 144.195 97.9023 144.537C98.3456 144.866 98.9663 145.031 99.7643 145.031ZM116.956 136.006V146H115.664V144.176C115.31 144.784 114.822 145.259 114.201 145.601C113.581 145.93 112.871 146.095 112.073 146.095C110.769 146.095 109.736 145.734 108.976 145.012C108.229 144.277 107.855 143.207 107.855 141.801V136.006H109.204V141.668C109.204 142.719 109.464 143.517 109.983 144.062C110.503 144.607 111.244 144.879 112.206 144.879C113.258 144.879 114.087 144.562 114.695 143.929C115.303 143.283 115.607 142.39 115.607 141.25V136.006H116.956ZM127.1 146L123.927 141.82L120.735 146H119.215L123.167 140.87L119.405 136.006H120.925L123.927 139.92L126.929 136.006H128.411L124.649 140.87L128.639 146H127.1ZM135.857 136.006H137.206V146H135.857V136.006ZM136.541 133.821C136.262 133.821 136.028 133.726 135.838 133.536C135.648 133.346 135.553 133.118 135.553 132.852C135.553 132.599 135.648 132.377 135.838 132.187C136.028 131.997 136.262 131.902 136.541 131.902C136.819 131.902 137.054 131.997 137.244 132.187C137.434 132.364 137.529 132.58 137.529 132.833C137.529 133.112 137.434 133.346 137.244 133.536C137.054 133.726 136.819 133.821 136.541 133.821ZM146.051 135.93C147.305 135.93 148.299 136.297 149.034 137.032C149.781 137.754 150.155 138.812 150.155 140.205V146H148.806V140.338C148.806 139.299 148.546 138.508 148.027 137.963C147.508 137.418 146.767 137.146 145.804 137.146C144.727 137.146 143.872 137.469 143.239 138.115C142.618 138.748 142.308 139.629 142.308 140.756V146H140.959V136.006H142.251V137.849C142.618 137.241 143.125 136.772 143.771 136.443C144.43 136.101 145.19 135.93 146.051 135.93ZM157.124 132.947C156.541 132.947 156.098 133.105 155.794 133.422C155.502 133.739 155.357 134.207 155.357 134.828V136.006H158.435V137.146H155.395V146H154.046V137.146H152.26V136.006H154.046V134.771C154.046 133.859 154.305 133.137 154.825 132.605C155.357 132.073 156.104 131.807 157.067 131.807C157.447 131.807 157.814 131.864 158.169 131.978C158.523 132.079 158.821 132.231 159.062 132.434L158.606 133.441C158.213 133.112 157.719 132.947 157.124 132.947ZM164.174 146.095C163.211 146.095 162.344 145.88 161.571 145.449C160.798 145.006 160.19 144.398 159.747 143.625C159.304 142.852 159.082 141.978 159.082 141.003C159.082 140.028 159.304 139.154 159.747 138.381C160.19 137.608 160.798 137.007 161.571 136.576C162.344 136.145 163.211 135.93 164.174 135.93C165.137 135.93 166.004 136.145 166.777 136.576C167.55 137.007 168.151 137.608 168.582 138.381C169.025 139.154 169.247 140.028 169.247 141.003C169.247 141.978 169.025 142.852 168.582 143.625C168.151 144.398 167.55 145.006 166.777 145.449C166.004 145.88 165.137 146.095 164.174 146.095ZM164.174 144.898C164.883 144.898 165.517 144.74 166.074 144.423C166.644 144.094 167.087 143.631 167.404 143.036C167.721 142.441 167.879 141.763 167.879 141.003C167.879 140.243 167.721 139.565 167.404 138.97C167.087 138.375 166.644 137.919 166.074 137.602C165.517 137.273 164.883 137.108 164.174 137.108C163.465 137.108 162.825 137.273 162.255 137.602C161.698 137.919 161.254 138.375 160.925 138.97C160.608 139.565 160.45 140.243 160.45 141.003C160.45 141.763 160.608 142.441 160.925 143.036C161.254 143.631 161.698 144.094 162.255 144.423C162.825 144.74 163.465 144.898 164.174 144.898ZM173.293 137.963C173.61 137.292 174.078 136.785 174.699 136.443C175.332 136.101 176.111 135.93 177.036 135.93V137.241L176.713 137.222C175.662 137.222 174.838 137.545 174.243 138.191C173.648 138.837 173.35 139.743 173.35 140.908V146H172.001V136.006H173.293V137.963ZM191.943 135.93C193.197 135.93 194.178 136.291 194.888 137.013C195.61 137.735 195.971 138.799 195.971 140.205V146H194.622V140.338C194.622 139.299 194.368 138.508 193.862 137.963C193.368 137.418 192.665 137.146 191.753 137.146C190.714 137.146 189.897 137.469 189.302 138.115C188.706 138.748 188.409 139.629 188.409 140.756V146H187.06V140.338C187.06 139.299 186.806 138.508 186.3 137.963C185.806 137.418 185.096 137.146 184.172 137.146C183.146 137.146 182.329 137.469 181.721 138.115C181.125 138.748 180.828 139.629 180.828 140.756V146H179.479V136.006H180.771V137.83C181.125 137.222 181.619 136.753 182.253 136.424C182.886 136.095 183.614 135.93 184.438 135.93C185.274 135.93 185.996 136.107 186.604 136.462C187.224 136.817 187.687 137.342 187.991 138.039C188.358 137.38 188.884 136.867 189.568 136.5C190.264 136.12 191.056 135.93 191.943 135.93ZM203.125 135.93C204.43 135.93 205.43 136.259 206.127 136.918C206.824 137.564 207.172 138.527 207.172 139.806V146H205.88V144.442C205.576 144.961 205.126 145.367 204.531 145.658C203.948 145.949 203.252 146.095 202.441 146.095C201.326 146.095 200.44 145.829 199.781 145.297C199.122 144.765 198.793 144.062 198.793 143.188C198.793 142.339 199.097 141.655 199.705 141.136C200.326 140.617 201.307 140.357 202.65 140.357H205.823V139.749C205.823 138.888 205.582 138.235 205.101 137.792C204.62 137.336 203.917 137.108 202.992 137.108C202.359 137.108 201.751 137.216 201.168 137.431C200.585 137.634 200.085 137.919 199.667 138.286L199.059 137.279C199.566 136.848 200.174 136.519 200.883 136.291C201.592 136.05 202.34 135.93 203.125 135.93ZM202.65 145.031C203.41 145.031 204.062 144.86 204.607 144.518C205.152 144.163 205.557 143.657 205.823 142.998V141.364H202.688C200.978 141.364 200.123 141.959 200.123 143.15C200.123 143.733 200.345 144.195 200.788 144.537C201.231 144.866 201.852 145.031 202.65 145.031ZM216.099 145.392C215.846 145.62 215.529 145.797 215.149 145.924C214.782 146.038 214.395 146.095 213.99 146.095C213.053 146.095 212.331 145.842 211.824 145.335C211.317 144.828 211.064 144.113 211.064 143.188V137.146H209.278V136.006H211.064V133.821H212.413V136.006H215.453V137.146H212.413V143.112C212.413 143.707 212.559 144.163 212.85 144.48C213.154 144.784 213.585 144.936 214.142 144.936C214.421 144.936 214.687 144.892 214.94 144.803C215.206 144.714 215.434 144.588 215.624 144.423L216.099 145.392ZM218.555 136.006H219.904V146H218.555V136.006ZM219.239 133.821C218.96 133.821 218.726 133.726 218.536 133.536C218.346 133.346 218.251 133.118 218.251 132.852C218.251 132.599 218.346 132.377 218.536 132.187C218.726 131.997 218.96 131.902 219.239 131.902C219.517 131.902 219.752 131.997 219.942 132.187C220.132 132.364 220.227 132.58 220.227 132.833C220.227 133.112 220.132 133.346 219.942 133.536C219.752 133.726 219.517 133.821 219.239 133.821ZM227.742 146.095C226.78 146.095 225.912 145.88 225.139 145.449C224.367 145.006 223.759 144.398 223.315 143.625C222.872 142.852 222.65 141.978 222.65 141.003C222.65 140.028 222.872 139.154 223.315 138.381C223.759 137.608 224.367 137.007 225.139 136.576C225.912 136.145 226.78 135.93 227.742 135.93C228.705 135.93 229.573 136.145 230.345 136.576C231.118 137.007 231.72 137.608 232.15 138.381C232.594 139.154 232.815 140.028 232.815 141.003C232.815 141.978 232.594 142.852 232.15 143.625C231.72 144.398 231.118 145.006 230.345 145.449C229.573 145.88 228.705 146.095 227.742 146.095ZM227.742 144.898C228.452 144.898 229.085 144.74 229.642 144.423C230.212 144.094 230.656 143.631 230.972 143.036C231.289 142.441 231.447 141.763 231.447 141.003C231.447 140.243 231.289 139.565 230.972 138.97C230.656 138.375 230.212 137.919 229.642 137.602C229.085 137.273 228.452 137.108 227.742 137.108C227.033 137.108 226.393 137.273 225.823 137.602C225.266 137.919 224.823 138.375 224.493 138.97C224.177 139.565 224.018 140.243 224.018 141.003C224.018 141.763 224.177 142.441 224.493 143.036C224.823 143.631 225.266 144.094 225.823 144.423C226.393 144.74 227.033 144.898 227.742 144.898ZM240.661 135.93C241.915 135.93 242.91 136.297 243.644 137.032C244.392 137.754 244.765 138.812 244.765 140.205V146H243.416V140.338C243.416 139.299 243.157 138.508 242.637 137.963C242.118 137.418 241.377 137.146 240.414 137.146C239.338 137.146 238.483 137.469 237.849 138.115C237.229 138.748 236.918 139.629 236.918 140.756V146H235.569V136.006H236.861V137.849C237.229 137.241 237.735 136.772 238.381 136.443C239.04 136.101 239.8 135.93 240.661 135.93ZM251.107 146.095C250.296 146.095 249.517 145.981 248.77 145.753C248.035 145.512 247.459 145.215 247.041 144.86L247.649 143.796C248.067 144.125 248.593 144.398 249.226 144.613C249.859 144.816 250.518 144.917 251.202 144.917C252.114 144.917 252.785 144.778 253.216 144.499C253.659 144.208 253.881 143.802 253.881 143.283C253.881 142.916 253.761 142.631 253.52 142.428C253.279 142.213 252.975 142.054 252.608 141.953C252.241 141.839 251.753 141.731 251.145 141.63C250.334 141.478 249.682 141.326 249.188 141.174C248.694 141.009 248.27 140.737 247.915 140.357C247.573 139.977 247.402 139.451 247.402 138.78C247.402 137.944 247.75 137.26 248.447 136.728C249.144 136.196 250.113 135.93 251.354 135.93C252 135.93 252.646 136.019 253.292 136.196C253.938 136.361 254.47 136.582 254.888 136.861L254.299 137.944C253.476 137.374 252.494 137.089 251.354 137.089C250.493 137.089 249.84 137.241 249.397 137.545C248.966 137.849 248.751 138.248 248.751 138.742C248.751 139.122 248.871 139.426 249.112 139.654C249.365 139.882 249.676 140.053 250.043 140.167C250.41 140.268 250.917 140.376 251.563 140.49C252.361 140.642 253.001 140.794 253.482 140.946C253.963 141.098 254.375 141.358 254.717 141.725C255.059 142.092 255.23 142.599 255.23 143.245C255.23 144.119 254.863 144.816 254.128 145.335C253.406 145.842 252.399 146.095 251.107 146.095ZM257.857 146.095C257.578 146.095 257.337 145.994 257.135 145.791C256.945 145.588 256.85 145.341 256.85 145.05C256.85 144.759 256.945 144.518 257.135 144.328C257.337 144.125 257.578 144.024 257.857 144.024C258.135 144.024 258.376 144.125 258.579 144.328C258.781 144.518 258.883 144.759 258.883 145.05C258.883 145.341 258.781 145.588 258.579 145.791C258.376 145.994 258.135 146.095 257.857 146.095Z" fill="white"/>
</g>
</g>
<defs>
<clipPath id="clip0">
<rect width="441" height="579" fill="white"/>
</clipPath>
<clipPath id="clip1">
<rect width="440.52" height="709.95" fill="white"/>
</clipPath>
</defs>
</svg>
