<svg width="441" height="579" viewBox="0 0 441 579" fill="none" xmlns="http://www.w3.org/2000/svg">
<g clip-path="url(#clip0)">
<path d="M72.9 307.9C72.9 307.9 70.5 296.7 62 292.5C53.5 288.3 38.7 252.3 36.6 248C34.5 243.7 38.7 237.4 43 243.8C47.3 250.2 49.4 258.6 51.5 258.6C53.6 258.6 38.8 233.2 40.9 228.9C43 224.6 45.1 222.5 53.6 237.4C60.8 250 64.2 256.5 57.8 241.6C51.4 226.7 45.13 220.4 49.3 216.25C53.47 212.1 57.8 218.35 62 226.85C66.2 235.35 77.4 257.45 72.9 245.35C68.4 233.25 59.9 222.65 66.3 218.45C72.7 214.25 85.4 252.35 87.5 250.25C89.6 248.15 89.6 233.35 100.2 233.35C100.2 233.35 106.6 233.35 102.3 239.75C98 246.15 102.3 269.45 95.9 284.25C94.2 288.15 101.8 296.05 101.8 296.05L72.9 307.9Z" fill="#F8C6A5"/>
<path d="M274.7 358.1L271.2 407C271.2 407 291.7 424.6 320.6 407.8L320.2 371.1C320.3 371.25 285.8 338.8 274.7 358.1Z" fill="#F5AE8C"/>
<path d="M402.13 577.8H190.2C193.1 524.7 202.7 465.9 228.7 430.3C237.87 417.68 249.17 407.88 262.81 402.43L263.38 402.2C263.407 402.2 263.432 402.189 263.451 402.171C263.469 402.152 263.48 402.127 263.48 402.1L264.48 401.74C266.35 401.06 268.23 400.41 270.19 399.9L270.29 399.8C270.79 399.7 271.19 399.6 271.59 399.5H271.73C276.03 399.11 276.87 403.29 286.12 405.02L286.59 405.11C289.666 405.593 292.776 405.827 295.89 405.81C303.59 405.81 308.59 405.31 311.79 404.61L312.37 404.48C318.19 403.08 318.37 401.21 320.37 401.21H320.5C321.775 401.312 323.02 401.651 324.17 402.21C379 422.5 397 505.5 402.13 577.8Z" fill="#E3572B"/>
<path d="M339.4 328.5C339.4 328.5 338.1 305.6 333.5 299C316.3 274.3 259.4 269.9 254.5 321.2C254.5 321.2 253.6 316.5 253 325.4C253 325.4 243.9 318.2 244 330.6C244 341.9 245.6 346.6 254.6 354.6C254.6 354.6 269.5 387.8 305.2 386C318.8 385.3 329.4 371.5 334.3 358.3C337.521 348.688 339.241 338.636 339.4 328.5V328.5Z" fill="#F8C6A5"/>
<path d="M337.7 327.6C337.7 327.6 342.2 322.8 345.1 326.6C348 330.4 347.2 348.6 337.6 352.8C327.9 356.8 337.7 327.6 337.7 327.6Z" fill="#F8C6A5"/>
<path d="M269.5 353.1C274.139 353.1 277.9 349.339 277.9 344.7C277.9 340.061 274.139 336.3 269.5 336.3C264.861 336.3 261.1 340.061 261.1 344.7C261.1 349.339 264.861 353.1 269.5 353.1Z" fill="#F5AE8C"/>
<path d="M324.8 353.1C329.439 353.1 333.2 349.339 333.2 344.7C333.2 340.061 329.439 336.3 324.8 336.3C320.161 336.3 316.4 340.061 316.4 344.7C316.4 349.339 320.161 353.1 324.8 353.1Z" fill="#F5AE8C"/>
<path d="M283.8 333.3C284.684 333.3 285.4 332.584 285.4 331.7C285.4 330.816 284.684 330.1 283.8 330.1C282.916 330.1 282.2 330.816 282.2 331.7C282.2 332.584 282.916 333.3 283.8 333.3Z" fill="#182624"/>
<path d="M315.8 332.4C316.684 332.4 317.4 331.684 317.4 330.8C317.4 329.916 316.684 329.2 315.8 329.2C314.916 329.2 314.2 329.916 314.2 330.8C314.2 331.684 314.916 332.4 315.8 332.4Z" fill="#182624"/>
<path d="M296 345.7C296 345.7 302.8 348.1 305.8 342.9C305.7 342.9 303.5 351.7 296 345.7Z" fill="#F5AE8C"/>
<path d="M288.4 315.5C288.4 315.5 279.8 311 274.1 318.3" stroke="#F6E9E5" stroke-width="2" stroke-miterlimit="10" stroke-linecap="round"/>
<path d="M312.13 316.4C312.13 316.4 320.73 311.9 326.43 319.2" stroke="#F6E9E5" stroke-width="2" stroke-miterlimit="10" stroke-linecap="round"/>
<path d="M277.13 337.5C278.24 338.55 279.526 339.396 280.93 340C282.973 340.77 285.192 340.943 287.33 340.5" stroke="#F5AE8C" stroke-width="0.5" stroke-miterlimit="10"/>
<path d="M311.2 340.3C312.652 340.767 314.176 340.97 315.7 340.9C317.873 340.698 319.949 339.902 321.7 338.6" stroke="#F5AE8C" stroke-width="0.5" stroke-miterlimit="10"/>
<path d="M291.6 361.9C291.6 361.9 292.4 366 298.2 366.7C304 367.4 305.8 360.2 300.7 362C295.6 363.8 291.4 358 291.6 361.9Z" fill="#F5AE8C" stroke="#1D1E1C" stroke-width="0.1" stroke-miterlimit="10"/>
<path d="M285.3 357.6C289.7 353.2 300.8 344.5 310 357.8C310.6 358.6 310.1 359.9 309.2 359.9L286 359.8C285 359.8 284.6 358.3 285.3 357.6Z" fill="#F6E9E5"/>
<path d="M295.3 364.7C295.3 364.7 296.7 363.6 297.9 364.4C297.9 364.4 299.3 363.5 300.8 365.3C299.9 365.634 298.934 365.754 297.979 365.65C297.024 365.546 296.107 365.22 295.3 364.7V364.7Z" fill="#F8C6A5"/>
<path d="M317.3 559.1C314.51 565.37 311.63 571.53 308.85 577.8L308.8 577.9H306.4L306.34 577.8C302.56 571.73 298.78 565.67 294.9 559.6L305.4 535.6C309.4 543.3 313.4 551.25 317.3 559.1Z" fill="#CF3E17"/>
<path d="M282.7 503.1C283.7 500.9 284.6 498.7 285.6 496.5C289.6 504.4 293.5 512.2 297.5 520.1C294.3 527.1 291.1 534 288 541C285.3 536.6 282.6 532.3 279.8 527.9L282.7 503.1Z" fill="#CF3E17"/>
<path d="M284.2 572.5C283.4 574.3 282.6 576 281.8 577.8H273L276 556.4L276.08 556.55C278.85 561.9 281.52 567.25 284.2 572.5Z" fill="#CF3E17"/>
<path d="M318.5 523.8C315.1 518.4 311.7 512.9 308.3 507.5C310.6 502.2 313 496.9 315.3 491.5L318.5 523.8Z" fill="#CF3E17"/>
<path d="M296.4 446.6L285.9 470.6C290.2 477.4 294.4 484.3 298.7 491.1C301.9 484.1 305.1 477.1 308.2 470.2C304.4 462.4 300.4 454.5 296.4 446.6Z" fill="#CF3E17"/>
<path d="M392.3 577.8C388.122 550.312 382.176 523.123 374.5 496.4" stroke="#19213C" stroke-miterlimit="10" stroke-linecap="round"/>
<path d="M262.8 318.3C262.8 318.3 267.3 309.1 268.7 309.6C270.1 310.1 333.2 311 333.2 311C333.2 311 336.1 315.6 336.2 317.2C336.3 318.8 337.8 304.5 337.8 304.5L264.3 305.6L262.8 318.3Z" fill="#F5AE8C"/>
<path d="M336.7 290.1C329 281.3 318.9 278.7 294.1 279.7C253.7 281.4 250.7 303.8 252.6 325C252.6 325 252.6 325.08 252.6 325.12C253 329.28 253.6 333.39 254.07 337.28C254.54 341.17 254.99 344.9 255.07 348.2C254.953 350.7 254.986 353.204 255.17 355.7C255.17 355.75 255.17 355.79 255.17 355.84C255.27 357.09 255.37 358.24 255.56 359.4C257.06 370.4 262.06 380.1 272.66 385.9C279.46 389.69 288.66 391.79 300.75 391.79C309.04 391.79 315.43 390.09 320.33 387.4C334.23 379.6 336.23 363.4 336.53 352.9C336.53 351.97 336.59 351.05 336.61 350.21C336.61 349.97 336.61 349.73 336.61 349.5V348.1C336.678 346.359 336.845 344.622 337.11 342.9C337.41 340.8 337.71 338.7 338.01 337.6C338.256 336.519 338.556 335.451 338.91 334.4C338.97 334.17 339.03 333.93 339.1 333.69C339.36 332.69 339.67 331.63 339.91 330.5C340.31 328.9 340.71 327.1 341.11 325.2C342.16 320.334 342.729 315.377 342.81 310.4C343.13 303 341.5 295.6 336.7 290.1ZM335.8 332.1C335.4 334.5 335 336.6 334.7 338.7C334.7 338.5 334.7 338.6 334.6 338.6C334.4 339.9 334.1 341.3 333.8 342.7L333.2 344.8C332.8 346.15 332.4 347.35 332.1 348.21C331.8 349.07 331.6 349.6 331.6 349.6V349.7C331 351.3 330.4 353 329.8 354.8C328 360 322 364 315.1 366.7C309.001 369.106 302.556 370.521 296.01 370.89C290.01 371.09 281.51 367.19 274.41 362.79C271.124 360.773 268.022 358.471 265.14 355.91C264.195 355.089 263.324 354.186 262.54 353.21C258.04 347.51 259.44 332.81 259.44 332.51C260.357 327.751 261.525 323.045 262.94 318.41C263.829 315.398 265.005 312.478 266.45 309.69C266.854 308.873 267.354 308.108 267.94 307.41L271.24 307.71C286.14 308.81 307.74 308.71 319.04 308.51C321.84 308.51 328.44 308.71 332.24 308.81C333.84 308.91 334.94 308.91 334.94 308.91C334.94 308.91 335.04 309.11 335.04 309.31C335.663 311.947 336.131 314.618 336.44 317.31V317.41C336.723 319.766 336.856 322.137 336.84 324.51C336.651 327.059 336.304 329.594 335.8 332.1V332.1Z" fill="#F6E9E5"/>
<path d="M271.1 307.5L267.6 301.5L267.8 307.3L271.1 307.5Z" fill="#F5AE8C"/>
<path d="M331.6 309.5L334.8 303.3L334.9 309.1L331.6 309.5Z" fill="#F5AE8C"/>
<path d="M291.6 414.86V415.1C291.5 417.89 289.6 439.21 286.42 469.41C286.42 469.47 286.42 469.54 286.42 469.6C286.403 470.099 286.336 470.595 286.22 471.08V471.08C285.22 480.88 284.02 491.68 282.72 502.98C281.82 510.58 280.92 518.48 279.92 526.48V526.88C279.92 527.18 279.82 527.58 279.82 527.88C278.62 537.18 277.42 546.78 276.12 556.38C276.12 556.43 276.12 556.48 276.12 556.53L273.12 577.78H180.02C186.82 530.78 194.82 498.78 194.82 498.78C169.22 492.48 131.92 458.38 106.42 431.08L105.82 430.48C77.22 399.68 59.62 307.28 59.62 307.28C63.1442 305.148 66.7831 303.212 70.52 301.48C79.3569 297.298 88.4404 293.658 97.72 290.58C107.52 287.28 114.52 285.38 114.52 285.38C120.62 298.98 133.92 339.28 141.72 356.28C146.171 366.059 153.451 374.279 162.62 379.88C162.72 379.98 162.82 379.98 162.92 380.08C166.42 382.18 172.02 387.28 178.82 392.98C193.72 405.38 214.12 420.68 229.92 413.38C250.04 404.02 260.52 402.62 262.83 402.38H263.3C263.327 402.38 263.352 402.369 263.371 402.351C263.389 402.332 263.4 402.307 263.4 402.28L264.49 401.72C266.76 400.52 271.29 398.06 271.7 397.48C271.751 397.411 271.815 397.353 271.89 397.31C273.55 396.23 280.96 399.75 286.13 404.99L286.5 405.38C289.59 408.09 291.68 411.47 291.6 414.86Z" fill="#2B315B"/>
<path d="M440.6 577.8H324.7C322.4 559.6 320.4 541.3 318.6 523.8C317.4 512.7 316.4 501.8 315.4 491.6C313.55 472.2 312.05 454.85 310.92 441.24C309.79 427.63 309.05 417.75 308.7 413.3C308.705 413.223 308.705 413.147 308.7 413.07C308.61 411.61 308.52 410.8 308.52 410.7C308.32 409.8 309.92 407.3 312.12 404.8L312.4 404.47C314.765 401.655 317.484 399.157 320.49 397.04L320.71 396.9C321.81 396.3 322.51 396.2 322.61 397C322.91 400.1 334.51 405 338.41 406.5C338.81 406.7 339.21 406.8 339.61 407C353.156 412.625 365.65 420.507 376.56 430.31C390.11 442.45 403.66 459.6 413.51 483.7C423.2 507.7 433.13 542.1 440.6 577.8Z" fill="#2B315B"/>
<path d="M267.3 405.7C267.3 405.7 279.2 414.3 283.3 420.7" stroke="#4B547E" stroke-width="2" stroke-miterlimit="10" stroke-linecap="round"/>
<path d="M314.8 418.7C314.8 418.7 320.6 407.8 327.9 405.7" stroke="#4B547E" stroke-width="2" stroke-miterlimit="10" stroke-linecap="round"/>
<path d="M30.5 0.5C26.4866 0.501298 22.513 1.29441 18.8066 2.83389C15.1002 4.37337 11.734 6.62898 8.90077 9.47151C6.06754 12.314 3.82296 15.6876 2.29561 19.399C0.768268 23.1104 -0.0118284 27.0866 1.06898e-05 31.1V154.6C-0.0185783 162.709 3.18405 170.493 8.90363 176.24C14.6232 181.988 22.3914 185.229 30.5 185.25H154.7L216 226.75C217.265 227.6 218.759 228.047 220.283 228.03C221.807 228.014 223.291 227.535 224.537 226.657C225.783 225.779 226.734 224.544 227.263 223.114C227.792 221.684 227.875 220.128 227.5 218.65L218.9 185.25H241.3C245.313 185.249 249.287 184.456 252.993 182.916C256.7 181.377 260.066 179.121 262.899 176.278C265.732 173.436 267.977 170.062 269.504 166.351C271.032 162.64 271.812 158.663 271.8 154.65V145.45C254.332 151.65 235.936 154.829 217.4 154.85C130.4 154.85 59.4 86.55 55.2 0.65H30.5V0.5Z" fill="#F7E6E3"/>
<path d="M30.5 185.25C26.4866 185.249 22.513 184.456 18.8066 182.916C15.1002 181.377 11.734 179.121 8.90077 176.278C6.06754 173.436 3.82296 170.062 2.29561 166.351C0.768268 162.64 -0.0118284 158.663 1.06898e-05 154.65V31.25C-0.00531457 23.1501 3.20317 15.3789 8.92132 9.64198C14.6395 3.90509 22.4001 0.671182 30.5 0.649994H241.2C245.213 0.651292 249.187 1.4444 252.893 2.98388C256.6 4.52337 259.966 6.77898 262.799 9.6215C265.632 12.464 267.877 15.8376 269.404 19.549C270.932 23.2604 271.712 27.2366 271.7 31.25V154.75C271.705 162.85 268.497 170.621 262.779 176.358C257.061 182.095 249.3 185.329 241.2 185.35H218.8L227.4 218.75C227.775 220.228 227.692 221.784 227.163 223.214C226.634 224.644 225.683 225.879 224.437 226.757C223.191 227.635 221.707 228.114 220.183 228.13C218.659 228.147 217.165 227.7 215.9 226.85L154.6 185.35H30.5V185.25Z" fill="#F7E6E3"/>
<path d="M308.85 577.8L308.8 577.9H306.4L306.34 577.8H308.85Z" fill="#F7E6E3"/>
<text fill="black" xml:space="preserve" style="white-space: pre" font-family="Roboto" font-size="18" letter-spacing="0em"><tspan x="19.7354" y="36.6523">&#10;</tspan><tspan x="19.7354" y="57.6523">Voici ma comparaison de vos </tspan><tspan x="75.0273" y="78.6523">deux adresses !&#10;</tspan><tspan x="45.5137" y="99.6523">Vous pouvez avoir plus </tspan><tspan x="18.4258" y="120.652">d&#x2019;informations en cliquant sur </tspan><tspan x="95.3037" y="141.652">les bulles !</tspan></text>
</g>
<defs>
<clipPath id="clip0">
<rect width="440.6" height="578.3" fill="white"/>
</clipPath>
</defs>
</svg>
