<?xml version="1.0" encoding="utf-8"?>
<!-- Generator: Adobe Illustrator 25.1.0, SVG Export Plug-In . SVG Version: 6.00 Build 0)  -->
<svg version="1.1" id="Calque_1" xmlns="http://www.w3.org/2000/svg" xmlns:xlink="http://www.w3.org/1999/xlink" x="0px" y="0px"
	 viewBox="0 0 50 50" style="enable-background:new 0 0 50 50;" xml:space="preserve">
<style type="text/css">
	.st0{fill:#F7EBE7;}
	.st1{fill:#BEE2ED;}
	.st2{fill:none;stroke:#000000;stroke-width:2;stroke-miterlimit:10;}
	.st3{fill:none;stroke:#000000;stroke-width:2;stroke-linecap:round;stroke-linejoin:round;stroke-miterlimit:10;}
</style>
<g>
	<path class="st0" d="M8.1,38.4c-0.8-1.7-0.1-3.6,1.5-4.5c2-1.1,5.4-2.4,9.8-2.1c7.1,0.5,12.2-7.1,12.2-7.1s8.1-11.1,15.2-0.7
		c0.1,0.2,0.2,0.4,0.4,0.6c5,7.7,2.3,18.1-5.6,22.7c-2.3,1.4-5.1,2.5-8.2,2.6c-3.9,0.2-7.5-2.2-9.1-5.8c-0.7-1.5-2.1-3.1-4.7-3.6
		C15.2,39.7,9.7,41.7,8.1,38.4z"/>
	<path class="st1" d="M28.9,6.9c1.2,1.7,2.2,3.6,2.7,5.7c1,4.1,0.8,10.2-6.2,14.7c-5.7,3.7-11.3,3.3-15.5,1.8
		C4,27.2-0.2,21.6,0,15.4c0.2-4.5,2.5-9.7,10.7-13.1C24.1-3.3,25.7,2.5,28.9,6.9z"/>
	<ellipse class="st2" cx="26.3" cy="24.7" rx="17.5" ry="17.6"/>
	<line class="st3" x1="26.3" y1="14.6" x2="26.3" y2="34.9"/>
	<line class="st3" x1="36.3" y1="24.7" x2="16.2" y2="24.7"/>
</g>
</svg>
