<svg width="473" height="95" viewBox="0 0 473 95" fill="none" xmlns="http://www.w3.org/2000/svg">
    <rect width="472.062" height="95" rx="47.5" fill="#FFF2EA"/>
    <rect x="6.21704" y="5.87628" width="460.24" height="82.9616" rx="41.4808" fill="#F98E12"/>
    <path d="M42.2441 64.2383C39.5697 64.2383 37.2676 62.8926 35.3379 60.2012C34.5423 59.084 33.8568 57.7891 33.2812 56.3164C33.2474 56.1641 33.2051 56.0202 33.1543 55.8848C32.6973 54.5645 32.3926 53.2103 32.2402 51.8223L32.1895 51.0352C32.1387 50.5104 32.1133 49.9941 32.1133 49.4863L32.1387 48.9785C32.2064 46.6087 32.5618 44.5436 33.2051 42.7832C33.6113 41.446 34.2122 40.2103 35.0078 39.0762C35.6341 38.1283 36.4635 37.2311 37.4961 36.3848C38.3086 35.7246 39.2227 35.1829 40.2383 34.7598C40.9492 34.472 41.8548 34.2858 42.9551 34.2012C44.4954 34.2012 45.7142 34.5566 46.6113 35.2676C47.1022 35.623 47.5762 36.1309 48.0332 36.791C48.4395 37.4512 48.7357 38.0013 48.9219 38.4414C49.1419 38.9492 49.252 39.4316 49.252 39.8887C49.252 40.1087 49.2266 40.3034 49.1758 40.4727V40.498C48.9727 41.0397 48.541 41.3105 47.8809 41.3105C47.373 41.3105 46.8652 41.1751 46.3574 40.9043C45.8665 40.6335 45.4941 40.2441 45.2402 39.7363C44.5801 38.6361 43.9538 38.0859 43.3613 38.0859C43.2936 38.0859 43.1497 38.1029 42.9297 38.1367C42.7266 38.1536 42.3288 38.3568 41.7363 38.7461C41.4147 38.9323 41.11 39.1354 40.8223 39.3555C39.9928 40.0495 39.2227 41.1074 38.5117 42.5293C38.3086 43.0371 38.1224 43.5449 37.9531 44.0527C37.4453 45.7116 37.1914 47.5228 37.1914 49.4863C37.1914 50.5527 37.3691 51.7799 37.7246 53.168C37.9785 54.2174 38.4186 55.2839 39.0449 56.3672C40.3145 58.5 41.5586 59.5664 42.7773 59.5664C43.4206 59.5664 43.9707 59.3887 44.4277 59.0332C44.9694 58.627 45.3333 58.3307 45.5195 58.1445L45.6719 58.0176C46.0273 57.696 46.4336 57.2135 46.8906 56.5703C47.1276 56.2656 47.2546 56.0964 47.2715 56.0625C47.3053 56.0117 47.3477 55.9694 47.3984 55.9355C47.737 55.6139 48.0755 55.4531 48.4141 55.4531C48.4987 55.4531 48.6595 55.487 48.8965 55.5547C49.1504 55.6055 49.3535 55.9102 49.5059 56.4688L49.5312 56.6719L49.5059 56.748C49.5059 57.1374 49.4635 57.5267 49.3789 57.916L49.2773 58.2969C49.0404 59.3633 48.6257 60.3281 48.0332 61.1914C47.3392 62.1732 46.459 62.9349 45.3926 63.4766C44.4447 63.9844 43.3952 64.2383 42.2441 64.2383ZM52.7051 62.918C52.4681 62.918 52.138 62.8249 51.7148 62.6387C51.1224 62.3848 50.7331 61.1999 50.5469 59.084C50.3776 57.5436 50.293 56.5872 50.293 56.2148C50.2083 55.1992 50.1491 54.1836 50.1152 53.168C50.0645 52.4062 50.0391 51.416 50.0391 50.1973C50.0391 49.1816 50.0898 47.6328 50.1914 45.5508C50.2591 44.1797 50.3522 42.8424 50.4707 41.5391L50.5977 40.2695C50.8177 38.0013 51.0801 36.2578 51.3848 35.0391C51.6217 33.9388 51.8587 33.1094 52.0957 32.5508C52.6204 31.5013 53.3229 30.9766 54.2031 30.9766C54.8125 30.9766 55.3118 31.3743 55.7012 32.1699C55.752 32.4577 55.7858 32.7539 55.8027 33.0586C55.8027 33.6849 55.7435 34.5312 55.625 35.5977L55.1426 40.0918C55.0241 41.429 54.9564 42.2923 54.9395 42.6816L54.8379 44.0527C54.8887 44.002 54.9479 43.9258 55.0156 43.8242C55.625 43.1133 56.3867 42.4616 57.3008 41.8691C57.6055 41.7168 57.9271 41.5729 58.2656 41.4375C58.6042 41.2852 59.0273 41.209 59.5352 41.209L59.9922 41.2344C60.9232 41.2344 61.7272 41.5983 62.4043 42.3262C62.9629 42.9186 63.3945 43.6042 63.6992 44.3828C64.3255 45.7539 64.6471 47.4974 64.6641 49.6133C64.6641 50.8659 64.5879 52.3809 64.4355 54.1582C64.3001 55.7663 64.1393 56.9681 63.9531 57.7637C63.6484 58.5592 63.166 59.0924 62.5059 59.3633C62.2012 59.4987 61.8965 59.5664 61.5918 59.5664C61.2533 59.5664 60.847 59.4395 60.373 59.1855C59.7298 58.8639 59.4082 57.9922 59.4082 56.5703C59.4082 55.8086 59.4674 54.8776 59.5859 53.7773C59.6706 53.1849 59.7383 52.5924 59.7891 52L59.9668 50.2988L59.9922 49.8926C60.026 49.5202 60.043 49.1478 60.043 48.7754C60.0768 48.5384 60.0938 48.0983 60.0938 47.4551C60.0938 47.0827 60.0853 46.7188 60.0684 46.3633C60.0345 45.8555 59.916 45.3561 59.7129 44.8652C59.5605 44.6113 59.3913 44.4844 59.2051 44.4844C58.8835 44.4844 58.4857 44.7214 58.0117 45.1953C57.4701 45.6693 56.8522 46.3971 56.1582 47.3789L55.3965 48.5723L54.9395 49.3594L54.6602 49.7656V53.9043C54.6602 55.4785 54.6771 56.6042 54.7109 57.2812C54.7109 58.1107 54.7194 58.7201 54.7363 59.1094L54.7617 59.9473C54.7617 61.2676 54.4147 62.1478 53.7207 62.5879C53.3822 62.8079 53.0436 62.918 52.7051 62.918ZM72.5859 60.9121C71.2318 60.9121 69.9707 60.4889 68.8027 59.6426C67.9225 58.9655 67.237 58.1022 66.7461 57.0527C65.6966 55.0723 65.1719 52.8971 65.1719 50.5273C65.1719 49.1393 65.3665 47.7598 65.7559 46.3887C65.7897 46.321 65.8151 46.2448 65.832 46.1602C65.9674 45.6693 66.1367 45.1868 66.3398 44.7129C67.6771 42.1738 69.5221 40.9043 71.875 40.9043C72.8398 40.9043 73.7878 41.1328 74.7188 41.5898C75.6497 42.0469 76.4622 42.7155 77.1562 43.5957C78.4089 45.1868 79.2044 47.0234 79.543 49.1055C79.6276 49.6471 79.6699 50.2734 79.6699 50.9844C79.6699 51.3906 79.6445 51.8053 79.5938 52.2285C79.4922 53.3288 79.2806 54.3359 78.959 55.25C78.5358 56.3164 78.1126 57.1797 77.6895 57.8398C77.1647 58.6523 76.513 59.3464 75.7344 59.9219C74.7188 60.582 73.6693 60.9121 72.5859 60.9121ZM72.4844 56.6719C72.569 56.6719 72.7552 56.6126 73.043 56.4941C73.3307 56.3757 73.737 55.8424 74.2617 54.8945C74.431 54.6237 74.5749 54.3359 74.6934 54.0312V53.9805C74.998 53.1849 75.1927 52.4824 75.2773 51.873L75.3027 51.7969C75.3535 51.5091 75.3789 51.2298 75.3789 50.959C75.3789 50.4342 75.3451 49.9772 75.2773 49.5879C75.1758 48.8939 74.9473 48.1999 74.5918 47.5059C74.2533 46.7949 73.8978 46.2448 73.5254 45.8555C72.7806 45.2122 72.1966 44.8906 71.7734 44.8906C71.3164 44.8906 70.9017 45.3053 70.5293 46.1348C70.1738 46.9642 69.9284 47.8529 69.793 48.8008C69.6914 49.3932 69.6406 49.9941 69.6406 50.6035C69.6406 52.2624 70.0553 53.8535 70.8848 55.377C71.5111 56.2402 72.0443 56.6719 72.4844 56.6719ZM82.0059 39.5586C81.972 39.5586 81.7181 39.5501 81.2441 39.5332C80.7702 39.5163 80.4232 39.0254 80.2031 38.0605V36.5625C80.2031 36.2578 80.2116 36.0378 80.2285 35.9023V35.7246C80.3978 34.2689 81.0495 33.541 82.1836 33.541C82.6237 33.541 83.013 33.6764 83.3516 33.9473C83.8086 34.3366 84.0371 34.9714 84.0371 35.8516C84.0879 36.207 84.1133 36.5371 84.1133 36.8418C84.1641 37.2142 84.1895 37.6204 84.1895 38.0605C84.1895 38.2467 84.1641 38.4329 84.1133 38.6191C83.5547 39.2454 82.8522 39.5586 82.0059 39.5586ZM83.7578 62.4609C82.9453 62.4609 82.2767 61.9193 81.752 60.8359C81.3288 59.431 81.0156 57.2051 80.8125 54.1582L80.7363 53.3457C80.6686 52.2285 80.6263 51.653 80.6094 51.6191C80.4909 49.6217 80.4401 48.1999 80.457 47.3535C80.457 46.2702 80.474 45.4323 80.5078 44.8398C80.6094 43.8919 80.8887 43.2064 81.3457 42.7832C81.752 42.4277 82.2005 42.25 82.6914 42.25C83.3177 42.25 83.834 42.5039 84.2402 43.0117C84.5618 43.401 84.7227 43.9089 84.7227 44.5352L84.6973 44.8906L84.7227 46.2363L84.7988 47.8105C84.8158 48.166 84.8411 48.513 84.875 48.8516L84.9766 50.5273C85.0443 51.1706 85.0951 51.8138 85.1289 52.457L85.5859 57.1543C85.7552 58.5423 85.8398 59.6087 85.8398 60.3535C85.569 61.7585 84.875 62.4609 83.7578 62.4609ZM94.2695 62.9688C92.3398 62.9688 90.6387 62.4525 89.166 61.4199C88.3874 60.8783 87.7611 60.2773 87.2871 59.6172C86.7624 58.8216 86.4831 58.0345 86.4492 57.2559C86.6693 56.2402 87.1178 55.7324 87.7949 55.7324C87.8288 55.7324 88.0319 55.7493 88.4043 55.7832C88.7936 55.8001 89.3691 56.1217 90.1309 56.748C90.4525 57.1882 90.791 57.5605 91.1465 57.8652L91.2988 57.9922C91.5189 58.1784 91.7474 58.3307 91.9844 58.4492C92.7461 58.8893 93.4909 59.1094 94.2188 59.1094C94.9128 59.1094 95.5306 58.8639 96.0723 58.373L96.1992 57.8906C96.2161 57.806 96.2246 57.7129 96.2246 57.6113C96.2246 57.2897 96.0553 56.8919 95.7168 56.418C95.4629 56.0625 95.0312 55.6478 94.4219 55.1738L94.168 54.9453L93.457 54.4121L92.4922 53.7266L92.1113 53.498C91.8743 53.3457 91.6204 53.1934 91.3496 53.041C91.1465 52.9395 90.7487 52.6855 90.1562 52.2793L90.0293 52.1777C89.6569 51.9238 89.293 51.6445 88.9375 51.3398C88.1419 50.6458 87.5072 49.8418 87.0332 48.9277C86.5762 48.0137 86.3477 47.0234 86.3477 45.957C86.3477 44.8568 86.6439 43.7734 87.2363 42.707C87.8118 41.7083 88.5397 40.9297 89.4199 40.3711C90.3171 39.7956 91.375 39.5078 92.5938 39.5078C93.7956 39.5078 94.862 39.8379 95.793 40.498C96.4193 41.0059 96.8848 41.6152 97.1895 42.3262C97.4434 42.8678 97.5703 43.4095 97.5703 43.9512C97.5703 44.696 97.3249 45.3646 96.834 45.957C96.3092 46.4141 95.8607 46.6426 95.4883 46.6426C95.4714 46.6426 95.3613 46.6341 95.1582 46.6172C94.9551 46.6003 94.5911 46.2702 94.0664 45.627C93.9987 45.5423 93.9648 45.4492 93.9648 45.3477V44.9922V44.6367C93.9648 44.4844 93.9564 44.3997 93.9395 44.3828C93.8887 44.2812 93.8548 44.222 93.8379 44.2051C93.821 44.1712 93.804 44.1458 93.7871 44.1289C93.7702 44.112 93.7533 44.0951 93.7363 44.0781C93.3978 43.7227 93.0846 43.5449 92.7969 43.5449C92.2044 43.5449 91.7389 43.875 91.4004 44.5352C91.1973 44.9753 91.0957 45.3815 91.0957 45.7539C91.0957 45.974 91.1465 46.2025 91.248 46.4395C91.4173 46.9303 91.8828 47.4635 92.6445 48.0391C92.763 48.1576 93.1016 48.3861 93.6602 48.7246C93.7956 48.7923 93.9225 48.8685 94.041 48.9531L95.2344 49.6641C96.2669 50.3411 96.9271 50.7982 97.2148 51.0352C98.0781 51.7122 98.7806 52.3809 99.3223 53.041C100.389 54.3952 100.922 55.8509 100.922 57.4082C100.922 57.8314 100.871 58.2546 100.77 58.6777C100.312 60.5736 99.0853 61.8685 97.0879 62.5625C96.1908 62.8333 95.2513 62.9688 94.2695 62.9688ZM103.232 39.5586C103.199 39.5586 102.945 39.5501 102.471 39.5332C101.997 39.5163 101.65 39.0254 101.43 38.0605V36.5625C101.43 36.2578 101.438 36.0378 101.455 35.9023V35.7246C101.624 34.2689 102.276 33.541 103.41 33.541C103.85 33.541 104.24 33.6764 104.578 33.9473C105.035 34.3366 105.264 34.9714 105.264 35.8516C105.314 36.207 105.34 36.5371 105.34 36.8418C105.391 37.2142 105.416 37.6204 105.416 38.0605C105.416 38.2467 105.391 38.4329 105.34 38.6191C104.781 39.2454 104.079 39.5586 103.232 39.5586ZM104.984 62.4609C104.172 62.4609 103.503 61.9193 102.979 60.8359C102.555 59.431 102.242 57.2051 102.039 54.1582L101.963 53.3457C101.895 52.2285 101.853 51.653 101.836 51.6191C101.717 49.6217 101.667 48.1999 101.684 47.3535C101.684 46.2702 101.701 45.4323 101.734 44.8398C101.836 43.8919 102.115 43.2064 102.572 42.7832C102.979 42.4277 103.427 42.25 103.918 42.25C104.544 42.25 105.061 42.5039 105.467 43.0117C105.788 43.401 105.949 43.9089 105.949 44.5352L105.924 44.8906L105.949 46.2363L106.025 47.8105C106.042 48.166 106.068 48.513 106.102 48.8516L106.203 50.5273C106.271 51.1706 106.322 51.8138 106.355 52.457L106.812 57.1543C106.982 58.5423 107.066 59.6087 107.066 60.3535C106.796 61.7585 106.102 62.4609 104.984 62.4609ZM115.496 62.9688C113.566 62.9688 111.865 62.4525 110.393 61.4199C109.614 60.8783 108.988 60.2773 108.514 59.6172C107.989 58.8216 107.71 58.0345 107.676 57.2559C107.896 56.2402 108.344 55.7324 109.021 55.7324C109.055 55.7324 109.258 55.7493 109.631 55.7832C110.02 55.8001 110.596 56.1217 111.357 56.748C111.679 57.1882 112.018 57.5605 112.373 57.8652L112.525 57.9922C112.745 58.1784 112.974 58.3307 113.211 58.4492C113.973 58.8893 114.717 59.1094 115.445 59.1094C116.139 59.1094 116.757 58.8639 117.299 58.373L117.426 57.8906C117.443 57.806 117.451 57.7129 117.451 57.6113C117.451 57.2897 117.282 56.8919 116.943 56.418C116.689 56.0625 116.258 55.6478 115.648 55.1738L115.395 54.9453L114.684 54.4121L113.719 53.7266L113.338 53.498C113.101 53.3457 112.847 53.1934 112.576 53.041C112.373 52.9395 111.975 52.6855 111.383 52.2793L111.256 52.1777C110.883 51.9238 110.52 51.6445 110.164 51.3398C109.368 50.6458 108.734 49.8418 108.26 48.9277C107.803 48.0137 107.574 47.0234 107.574 45.957C107.574 44.8568 107.87 43.7734 108.463 42.707C109.038 41.7083 109.766 40.9297 110.646 40.3711C111.544 39.7956 112.602 39.5078 113.82 39.5078C115.022 39.5078 116.089 39.8379 117.02 40.498C117.646 41.0059 118.111 41.6152 118.416 42.3262C118.67 42.8678 118.797 43.4095 118.797 43.9512C118.797 44.696 118.551 45.3646 118.061 45.957C117.536 46.4141 117.087 46.6426 116.715 46.6426C116.698 46.6426 116.588 46.6341 116.385 46.6172C116.182 46.6003 115.818 46.2702 115.293 45.627C115.225 45.5423 115.191 45.4492 115.191 45.3477V44.9922V44.6367C115.191 44.4844 115.183 44.3997 115.166 44.3828C115.115 44.2812 115.081 44.222 115.064 44.2051C115.048 44.1712 115.031 44.1458 115.014 44.1289C114.997 44.112 114.98 44.0951 114.963 44.0781C114.624 43.7227 114.311 43.5449 114.023 43.5449C113.431 43.5449 112.965 43.875 112.627 44.5352C112.424 44.9753 112.322 45.3815 112.322 45.7539C112.322 45.974 112.373 46.2025 112.475 46.4395C112.644 46.9303 113.109 47.4635 113.871 48.0391C113.99 48.1576 114.328 48.3861 114.887 48.7246C115.022 48.7923 115.149 48.8685 115.268 48.9531L116.461 49.6641C117.493 50.3411 118.154 50.7982 118.441 51.0352C119.305 51.7122 120.007 52.3809 120.549 53.041C121.615 54.3952 122.148 55.8509 122.148 57.4082C122.148 57.8314 122.098 58.2546 121.996 58.6777C121.539 60.5736 120.312 61.8685 118.314 62.5625C117.417 62.8333 116.478 62.9688 115.496 62.9688ZM138.297 59.8965C137.281 59.8965 136.376 59.6003 135.58 59.0078C134.598 58.2799 133.837 57.0527 133.295 55.3262C133.024 54.5645 132.821 53.7096 132.686 52.7617C132.669 52.5924 132.643 52.4316 132.609 52.2793L132.482 51.2891C132.482 51.0859 132.465 50.8828 132.432 50.6797C132.347 49.9518 132.305 48.7754 132.305 47.1504L132.355 46.2871C132.372 45.7116 132.415 45.1276 132.482 44.5352C132.55 43.9427 132.601 43.5957 132.635 43.4941C132.398 43.4941 131.924 43.6042 131.213 43.8242L130.68 43.9512L130.35 43.9766C130.18 43.875 129.994 43.7819 129.791 43.6973C129.012 43.4264 128.623 43.0964 128.623 42.707C128.623 42.4531 128.911 42.123 129.486 41.7168L129.537 41.6914C130.265 41.2513 131.171 40.8789 132.254 40.5742C132.796 40.4388 133.126 40.3711 133.244 40.3711L133.27 40.2188L133.422 39.6855C133.54 38.9915 133.735 38.3652 134.006 37.8066C134.463 36.9095 135.005 36.4609 135.631 36.4609C136.46 36.4779 137.188 37.0534 137.814 38.1875L137.688 38.7969L137.51 39.6348L137.434 39.9395C137.434 39.9733 137.425 39.9987 137.408 40.0156L137.662 40.041C138.204 40.041 138.652 40.0495 139.008 40.0664C139.363 40.0833 139.71 40.1172 140.049 40.168C140.76 40.2018 141.352 40.2949 141.826 40.4473C142.148 40.6842 142.309 40.9805 142.309 41.3359C142.309 41.4036 142.283 41.5814 142.232 41.8691C142.182 42.14 141.97 42.4701 141.598 42.8594C141.225 43.2487 140.802 43.4772 140.328 43.5449L139.566 43.4688C138.737 43.3672 138.136 43.3079 137.764 43.291L136.951 43.2656L136.926 43.3926C136.892 43.7988 136.85 44.1966 136.799 44.5859C136.799 44.8229 136.782 45.026 136.748 45.1953C136.663 46.2956 136.621 47.0404 136.621 47.4297L136.57 48.0391C136.57 49.5286 136.596 50.5189 136.646 51.0098C136.646 51.2129 136.68 51.653 136.748 52.3301C136.816 52.7025 136.875 53.0664 136.926 53.4219C136.993 53.7773 137.07 54.1159 137.154 54.4375C137.273 54.9622 137.459 55.4616 137.713 55.9355C137.967 56.3926 138.271 56.6211 138.627 56.6211C138.932 56.6211 139.262 56.3164 139.617 55.707C139.786 55.4362 139.888 55.25 139.922 55.1484C140.26 54.3021 140.616 53.8789 140.988 53.8789C141.411 53.8789 141.674 54.6406 141.775 56.1641C141.758 56.1979 141.75 56.2402 141.75 56.291V56.4434C141.75 57.002 141.538 57.6536 141.115 58.3984C140.777 58.9062 140.379 59.2871 139.922 59.541C139.465 59.778 138.923 59.8965 138.297 59.8965ZM137.408 43.2656C137.273 43.2656 137.146 43.2572 137.027 43.2402H136.951V43.2656H137.408ZM150.23 60.9121C148.876 60.9121 147.615 60.4889 146.447 59.6426C145.567 58.9655 144.882 58.1022 144.391 57.0527C143.341 55.0723 142.816 52.8971 142.816 50.5273C142.816 49.1393 143.011 47.7598 143.4 46.3887C143.434 46.321 143.46 46.2448 143.477 46.1602C143.612 45.6693 143.781 45.1868 143.984 44.7129C145.322 42.1738 147.167 40.9043 149.52 40.9043C150.484 40.9043 151.432 41.1328 152.363 41.5898C153.294 42.0469 154.107 42.7155 154.801 43.5957C156.053 45.1868 156.849 47.0234 157.188 49.1055C157.272 49.6471 157.314 50.2734 157.314 50.9844C157.314 51.3906 157.289 51.8053 157.238 52.2285C157.137 53.3288 156.925 54.3359 156.604 55.25C156.18 56.3164 155.757 57.1797 155.334 57.8398C154.809 58.6523 154.158 59.3464 153.379 59.9219C152.363 60.582 151.314 60.9121 150.23 60.9121ZM150.129 56.6719C150.214 56.6719 150.4 56.6126 150.688 56.4941C150.975 56.3757 151.382 55.8424 151.906 54.8945C152.076 54.6237 152.219 54.3359 152.338 54.0312V53.9805C152.643 53.1849 152.837 52.4824 152.922 51.873L152.947 51.7969C152.998 51.5091 153.023 51.2298 153.023 50.959C153.023 50.4342 152.99 49.9772 152.922 49.5879C152.82 48.8939 152.592 48.1999 152.236 47.5059C151.898 46.7949 151.542 46.2448 151.17 45.8555C150.425 45.2122 149.841 44.8906 149.418 44.8906C148.961 44.8906 148.546 45.3053 148.174 46.1348C147.818 46.9642 147.573 47.8529 147.438 48.8008C147.336 49.3932 147.285 49.9941 147.285 50.6035C147.285 52.2624 147.7 53.8535 148.529 55.377C149.156 56.2402 149.689 56.6719 150.129 56.6719ZM160.285 61.9531C159.862 61.9531 159.396 61.8008 158.889 61.4961C158.398 61.1745 158.11 60.5736 158.025 59.6934C157.907 58.5762 157.848 56.9173 157.848 54.7168L157.873 54.1582C157.89 52.8717 157.941 51.543 158.025 50.1719C158.025 49.8672 158.042 49.554 158.076 49.2324C158.127 47.8613 158.305 46.4564 158.609 45.0176L158.914 43.875C159.134 43.0964 159.447 42.4277 159.854 41.8691C160.48 40.9382 161.335 40.4727 162.418 40.4727C162.723 40.4727 163.036 40.515 163.357 40.5996C164.001 40.8366 164.61 41.2598 165.186 41.8691C165.541 42.2585 165.939 42.8001 166.379 43.4941C166.887 44.2559 167.361 45.0938 167.801 46.0078L168.105 46.6426C168.241 46.9134 168.368 47.1927 168.486 47.4805C168.842 48.276 169.062 48.8092 169.146 49.0801C169.485 49.8418 169.714 50.4004 169.832 50.7559L171.051 53.7012L171.152 52.2285C171.203 51.416 171.229 50.6966 171.229 50.0703L171.254 49.1562L171.229 48.6738C171.229 48.0137 171.22 47.5736 171.203 47.3535C171.203 46.3887 171.229 45.5762 171.279 44.916V43.8242L171.254 43.4688C171.254 43.2318 171.279 42.9948 171.33 42.7578C171.635 41.8099 172.134 41.3359 172.828 41.3359C173.387 41.3359 173.852 41.7422 174.225 42.5547C174.343 42.8763 174.428 43.2318 174.479 43.6211C174.529 44.0104 174.622 44.5267 174.758 45.1699C174.995 46.2871 175.147 47.3958 175.215 48.4961L175.367 49.918C175.536 51.1198 175.63 52.2878 175.646 53.4219C175.646 53.7604 175.604 54.429 175.52 55.4277L175.494 55.5039C175.376 56.9935 174.995 58.1868 174.352 59.084C173.674 59.9642 172.803 60.4043 171.736 60.4043C170.687 60.4043 169.773 59.9727 168.994 59.1094C168.469 58.6185 167.936 57.8483 167.395 56.7988C166.802 55.6139 166.133 54.0566 165.389 52.127C165.355 52.0085 165.304 51.8815 165.236 51.7461C165.186 51.5938 164.822 50.6374 164.145 48.877C164.145 48.8431 164.136 48.8177 164.119 48.8008C163.831 47.9544 163.493 47.1589 163.104 46.4141L163.027 46.2617L162.621 49.5117C162.621 49.6133 162.613 49.7064 162.596 49.791C162.528 50.6543 162.477 51.4922 162.443 52.3047C162.443 52.5417 162.41 53.3711 162.342 54.793C162.291 56.5026 162.249 57.6536 162.215 58.2461L162.113 59.8203C162.096 60.0742 162.071 60.3197 162.037 60.5566C161.817 61.4876 161.233 61.9531 160.285 61.9531ZM192.734 62.9688C190.805 62.9688 189.104 62.4525 187.631 61.4199C186.852 60.8783 186.226 60.2773 185.752 59.6172C185.227 58.8216 184.948 58.0345 184.914 57.2559C185.134 56.2402 185.583 55.7324 186.26 55.7324C186.294 55.7324 186.497 55.7493 186.869 55.7832C187.258 55.8001 187.834 56.1217 188.596 56.748C188.917 57.1882 189.256 57.5605 189.611 57.8652L189.764 57.9922C189.984 58.1784 190.212 58.3307 190.449 58.4492C191.211 58.8893 191.956 59.1094 192.684 59.1094C193.378 59.1094 193.995 58.8639 194.537 58.373L194.664 57.8906C194.681 57.806 194.689 57.7129 194.689 57.6113C194.689 57.2897 194.52 56.8919 194.182 56.418C193.928 56.0625 193.496 55.6478 192.887 55.1738L192.633 54.9453L191.922 54.4121L190.957 53.7266L190.576 53.498C190.339 53.3457 190.085 53.1934 189.814 53.041C189.611 52.9395 189.214 52.6855 188.621 52.2793L188.494 52.1777C188.122 51.9238 187.758 51.6445 187.402 51.3398C186.607 50.6458 185.972 49.8418 185.498 48.9277C185.041 48.0137 184.812 47.0234 184.812 45.957C184.812 44.8568 185.109 43.7734 185.701 42.707C186.277 41.7083 187.005 40.9297 187.885 40.3711C188.782 39.7956 189.84 39.5078 191.059 39.5078C192.26 39.5078 193.327 39.8379 194.258 40.498C194.884 41.0059 195.35 41.6152 195.654 42.3262C195.908 42.8678 196.035 43.4095 196.035 43.9512C196.035 44.696 195.79 45.3646 195.299 45.957C194.774 46.4141 194.326 46.6426 193.953 46.6426C193.936 46.6426 193.826 46.6341 193.623 46.6172C193.42 46.6003 193.056 46.2702 192.531 45.627C192.464 45.5423 192.43 45.4492 192.43 45.3477V44.9922V44.6367C192.43 44.4844 192.421 44.3997 192.404 44.3828C192.354 44.2812 192.32 44.222 192.303 44.2051C192.286 44.1712 192.269 44.1458 192.252 44.1289C192.235 44.112 192.218 44.0951 192.201 44.0781C191.863 43.7227 191.549 43.5449 191.262 43.5449C190.669 43.5449 190.204 43.875 189.865 44.5352C189.662 44.9753 189.561 45.3815 189.561 45.7539C189.561 45.974 189.611 46.2025 189.713 46.4395C189.882 46.9303 190.348 47.4635 191.109 48.0391C191.228 48.1576 191.566 48.3861 192.125 48.7246C192.26 48.7923 192.387 48.8685 192.506 48.9531L193.699 49.6641C194.732 50.3411 195.392 50.7982 195.68 51.0352C196.543 51.7122 197.245 52.3809 197.787 53.041C198.854 54.3952 199.387 55.8509 199.387 57.4082C199.387 57.8314 199.336 58.2546 199.234 58.6777C198.777 60.5736 197.55 61.8685 195.553 62.5625C194.656 62.8333 193.716 62.9688 192.734 62.9688ZM207.207 60.8105C206.225 60.8105 205.243 60.599 204.262 60.1758C203.195 59.7018 202.307 58.9824 201.596 58.0176C200.462 56.3757 199.895 54.2767 199.895 51.7207C199.895 50.1803 200.081 48.6738 200.453 47.2012C200.826 45.8301 201.299 44.6367 201.875 43.6211C202.467 42.6055 203.195 41.6745 204.059 40.8281C204.939 39.9648 205.861 39.2793 206.826 38.7715C207.808 38.2637 208.773 37.9505 209.721 37.832H211.143C211.6 37.849 212.057 37.9251 212.514 38.0605C214.376 38.7546 215.569 40.041 216.094 41.9199C216.263 42.4954 216.348 43.1302 216.348 43.8242C216.348 44.9922 216.094 46.1178 215.586 47.2012C215.23 48.0306 214.68 48.8939 213.936 49.791C213.783 50.028 213.428 50.4089 212.869 50.9336C211.024 52.5417 209.196 53.6589 207.385 54.2852C206.471 54.5898 205.633 54.7591 204.871 54.793C204.888 54.8099 204.905 54.8438 204.922 54.8945C204.939 54.9453 204.956 55.0046 204.973 55.0723C205.108 55.36 205.286 55.6309 205.506 55.8848C206.081 56.528 206.699 56.8496 207.359 56.8496C208.003 56.8496 208.629 56.6719 209.238 56.3164C209.594 56.1302 209.932 55.9355 210.254 55.7324C210.779 55.3939 211.083 55.1823 211.168 55.0977C211.676 54.6406 212.201 54.2682 212.742 53.9805L212.92 53.8789C213.191 53.8281 213.453 53.8027 213.707 53.8027C214.062 53.8027 214.443 53.8789 214.85 54.0312C215.273 54.1667 215.527 54.6237 215.611 55.4023C215.51 55.8255 215.332 56.2233 215.078 56.5957C214.841 56.9681 214.553 57.3066 214.215 57.6113C212.641 59.0332 210.846 60.0404 208.832 60.6328C208.29 60.7513 207.749 60.8105 207.207 60.8105ZM204.338 51.8223C204.372 51.8223 204.397 51.8138 204.414 51.7969C204.583 51.7969 204.947 51.6953 205.506 51.4922C206.877 50.9167 208.299 49.9349 209.771 48.5469C210.381 47.9206 210.863 47.3281 211.219 46.7695C211.76 45.7878 212.04 44.8737 212.057 44.0273C212.057 43.5195 211.904 42.9863 211.6 42.4277C211.447 42.1908 211.27 42.0469 211.066 41.9961H211.168H210.686H211.041C210.889 41.9453 210.677 41.9199 210.406 41.9199C210.118 41.9538 209.975 41.9792 209.975 41.9961H210.686C210.076 41.9961 209.357 42.2585 208.527 42.7832C207.038 43.7988 205.946 45.1361 205.252 46.7949C204.643 48.2337 204.338 49.9095 204.338 51.8223ZM225.818 61.5977C223.855 61.5977 222.077 60.8021 220.486 59.2109C219.725 58.4154 219.073 57.5098 218.531 56.4941C217.414 54.5137 216.855 52.3047 216.855 49.8672V49.4863C217.008 46.778 217.736 44.5859 219.039 42.9102C219.665 42.0977 220.427 41.3783 221.324 40.752C222.221 40.1257 223.11 39.7109 223.99 39.5078C224.481 39.4062 224.989 39.3555 225.514 39.3555C226.326 39.3555 227.071 39.5247 227.748 39.8633C228.51 40.2357 229.077 40.7858 229.449 41.5137C229.771 42.0892 229.932 42.724 229.932 43.418L229.855 44.3828C229.686 45.3477 229.153 46.1855 228.256 46.8965C228.053 47.0658 227.926 47.1842 227.875 47.252C227.74 47.3874 227.579 47.4551 227.393 47.4551C227.173 47.4551 226.927 47.4043 226.656 47.3027C226.132 47.0827 225.869 46.778 225.869 46.3887C225.869 46.2702 225.895 46.1432 225.945 46.0078C226.047 45.8047 226.098 45.6608 226.098 45.5762C226.199 45.2376 226.258 44.9753 226.275 44.7891V44.4082C226.123 43.8327 225.785 43.5449 225.26 43.5449C224.481 43.5449 223.626 44.0781 222.695 45.1445C222.221 45.7201 221.866 46.3548 221.629 47.0488C221.629 47.0658 221.62 47.0742 221.604 47.0742C221.485 47.4805 221.383 47.9036 221.299 48.3438C221.231 48.7669 221.197 49.2832 221.197 49.8926C221.197 50.6204 221.316 51.4329 221.553 52.3301C221.773 53.1257 222.12 53.9297 222.594 54.7422C223.626 56.4349 224.71 57.2812 225.844 57.2812C226.859 57.2812 227.909 56.6126 228.992 55.2754C229.432 54.6152 229.729 54.1328 229.881 53.8281L230.16 53.3457C230.533 52.7533 230.998 52.457 231.557 52.457C232.064 52.457 232.564 52.6771 233.055 53.1172C233.089 53.151 233.105 53.2103 233.105 53.2949C233.122 53.3796 233.131 53.4727 233.131 53.5742C233.148 53.6758 233.165 53.752 233.182 53.8027L233.207 54.3105C233.207 55.6139 232.742 56.9342 231.811 58.2715C231.133 59.2194 230.338 59.9642 229.424 60.5059C228.307 61.2337 227.105 61.5977 225.818 61.5977ZM240.723 59.8965C239.707 59.8965 238.801 59.6003 238.006 59.0078C237.024 58.2799 236.262 57.0527 235.721 55.3262C235.45 54.5645 235.247 53.7096 235.111 52.7617C235.094 52.5924 235.069 52.4316 235.035 52.2793L234.908 51.2891C234.908 51.0859 234.891 50.8828 234.857 50.6797C234.773 49.9518 234.73 48.7754 234.73 47.1504L234.781 46.2871C234.798 45.7116 234.84 45.1276 234.908 44.5352C234.976 43.9427 235.027 43.5957 235.061 43.4941C234.824 43.4941 234.35 43.6042 233.639 43.8242L233.105 43.9512L232.775 43.9766C232.606 43.875 232.42 43.7819 232.217 43.6973C231.438 43.4264 231.049 43.0964 231.049 42.707C231.049 42.4531 231.337 42.123 231.912 41.7168L231.963 41.6914C232.691 41.2513 233.596 40.8789 234.68 40.5742C235.221 40.4388 235.551 40.3711 235.67 40.3711L235.695 40.2188L235.848 39.6855C235.966 38.9915 236.161 38.3652 236.432 37.8066C236.889 36.9095 237.43 36.4609 238.057 36.4609C238.886 36.4779 239.614 37.0534 240.24 38.1875L240.113 38.7969L239.936 39.6348L239.859 39.9395C239.859 39.9733 239.851 39.9987 239.834 40.0156L240.088 40.041C240.63 40.041 241.078 40.0495 241.434 40.0664C241.789 40.0833 242.136 40.1172 242.475 40.168C243.186 40.2018 243.778 40.2949 244.252 40.4473C244.574 40.6842 244.734 40.9805 244.734 41.3359C244.734 41.4036 244.709 41.5814 244.658 41.8691C244.607 42.14 244.396 42.4701 244.023 42.8594C243.651 43.2487 243.228 43.4772 242.754 43.5449L241.992 43.4688C241.163 43.3672 240.562 43.3079 240.189 43.291L239.377 43.2656L239.352 43.3926C239.318 43.7988 239.275 44.1966 239.225 44.5859C239.225 44.8229 239.208 45.026 239.174 45.1953C239.089 46.2956 239.047 47.0404 239.047 47.4297L238.996 48.0391C238.996 49.5286 239.021 50.5189 239.072 51.0098C239.072 51.2129 239.106 51.653 239.174 52.3301C239.242 52.7025 239.301 53.0664 239.352 53.4219C239.419 53.7773 239.495 54.1159 239.58 54.4375C239.699 54.9622 239.885 55.4616 240.139 55.9355C240.393 56.3926 240.697 56.6211 241.053 56.6211C241.357 56.6211 241.688 56.3164 242.043 55.707C242.212 55.4362 242.314 55.25 242.348 55.1484C242.686 54.3021 243.042 53.8789 243.414 53.8789C243.837 53.8789 244.1 54.6406 244.201 56.1641C244.184 56.1979 244.176 56.2402 244.176 56.291V56.4434C244.176 57.002 243.964 57.6536 243.541 58.3984C243.202 58.9062 242.805 59.2871 242.348 59.541C241.891 59.778 241.349 59.8965 240.723 59.8965ZM239.834 43.2656C239.699 43.2656 239.572 43.2572 239.453 43.2402H239.377V43.2656H239.834ZM252.555 60.8105C251.573 60.8105 250.591 60.599 249.609 60.1758C248.543 59.7018 247.654 58.9824 246.943 58.0176C245.809 56.3757 245.242 54.2767 245.242 51.7207C245.242 50.1803 245.428 48.6738 245.801 47.2012C246.173 45.8301 246.647 44.6367 247.223 43.6211C247.815 42.6055 248.543 41.6745 249.406 40.8281C250.286 39.9648 251.209 39.2793 252.174 38.7715C253.156 38.2637 254.12 37.9505 255.068 37.832H256.49C256.947 37.849 257.404 37.9251 257.861 38.0605C259.723 38.7546 260.917 40.041 261.441 41.9199C261.611 42.4954 261.695 43.1302 261.695 43.8242C261.695 44.9922 261.441 46.1178 260.934 47.2012C260.578 48.0306 260.028 48.8939 259.283 49.791C259.131 50.028 258.775 50.4089 258.217 50.9336C256.372 52.5417 254.544 53.6589 252.732 54.2852C251.818 54.5898 250.98 54.7591 250.219 54.793C250.236 54.8099 250.253 54.8438 250.27 54.8945C250.286 54.9453 250.303 55.0046 250.32 55.0723C250.456 55.36 250.633 55.6309 250.854 55.8848C251.429 56.528 252.047 56.8496 252.707 56.8496C253.35 56.8496 253.977 56.6719 254.586 56.3164C254.941 56.1302 255.28 55.9355 255.602 55.7324C256.126 55.3939 256.431 55.1823 256.516 55.0977C257.023 54.6406 257.548 54.2682 258.09 53.9805L258.268 53.8789C258.538 53.8281 258.801 53.8027 259.055 53.8027C259.41 53.8027 259.791 53.8789 260.197 54.0312C260.62 54.1667 260.874 54.6237 260.959 55.4023C260.857 55.8255 260.68 56.2233 260.426 56.5957C260.189 56.9681 259.901 57.3066 259.562 57.6113C257.988 59.0332 256.194 60.0404 254.18 60.6328C253.638 60.7513 253.096 60.8105 252.555 60.8105ZM249.686 51.8223C249.719 51.8223 249.745 51.8138 249.762 51.7969C249.931 51.7969 250.295 51.6953 250.854 51.4922C252.225 50.9167 253.646 49.9349 255.119 48.5469C255.729 47.9206 256.211 47.3281 256.566 46.7695C257.108 45.7878 257.387 44.8737 257.404 44.0273C257.404 43.5195 257.252 42.9863 256.947 42.4277C256.795 42.1908 256.617 42.0469 256.414 41.9961H256.516H256.033H256.389C256.236 41.9453 256.025 41.9199 255.754 41.9199C255.466 41.9538 255.322 41.9792 255.322 41.9961H256.033C255.424 41.9961 254.704 42.2585 253.875 42.7832C252.385 43.7988 251.294 45.1361 250.6 46.7949C249.99 48.2337 249.686 49.9095 249.686 51.8223ZM270.506 61.166C268.898 61.166 267.434 60.6921 266.113 59.7441C265.301 59.0671 264.607 58.2546 264.031 57.3066L263.803 56.875C263.143 55.724 262.66 54.2682 262.355 52.5078C262.288 51.8815 262.237 51.2637 262.203 50.6543C262.203 49.3171 262.313 48.0983 262.533 46.998C262.787 45.5762 263.295 44.0358 264.057 42.377C264.7 41.0905 265.267 40.2188 265.758 39.7617C265.876 39.6771 266.037 39.6348 266.24 39.6348C266.867 39.6348 267.561 39.9225 268.322 40.498C269.101 41.0566 269.49 41.6152 269.49 42.1738C269.49 42.4616 269.363 42.7493 269.109 43.0371C268.788 43.765 268.517 44.5775 268.297 45.4746C268.043 46.5241 267.891 47.5566 267.84 48.5723L267.814 49.4355C267.814 50.3496 267.891 51.1452 268.043 51.8223C268.161 52.5671 268.263 52.9818 268.348 53.0664C268.635 53.9128 268.915 54.5814 269.186 55.0723C269.778 56.0202 270.438 56.4941 271.166 56.4941C271.809 56.4941 272.613 56.054 273.578 55.1738C274.052 54.666 274.424 54.1497 274.695 53.625C275.034 53.0495 275.288 52.4316 275.457 51.7715C275.728 50.8913 275.863 50.0026 275.863 49.1055C275.863 48.3268 275.804 47.5228 275.686 46.6934L275.66 46.6172C275.542 45.9062 275.355 45.1615 275.102 44.3828C274.814 43.4688 274.568 42.8001 274.365 42.377L274.111 41.8438C273.942 41.5391 273.857 41.2852 273.857 41.082C273.857 40.5404 274.086 40.0918 274.543 39.7363C275 39.3639 275.559 39.1777 276.219 39.1777C277.404 39.1777 278.064 39.7871 278.199 41.0059L278.631 42.2246L279.012 43.5195C279.418 45.2122 279.655 46.5072 279.723 47.4043L279.799 49.1816C279.799 50.2819 279.63 51.4499 279.291 52.6855L278.885 53.9297L278.758 54.2344C278.335 55.3177 277.751 56.3503 277.006 57.332C275.804 58.9232 274.475 60.0234 273.02 60.6328C272.207 60.9883 271.369 61.166 270.506 61.166ZM285.156 60.4297C284.97 60.4297 284.665 60.3789 284.242 60.2773C283.548 60.0742 282.99 59.0247 282.566 57.1289L282.16 55.1992L281.779 53.2441C281.678 52.7363 281.525 51.873 281.322 50.6543C281.119 49.5033 280.95 48.3438 280.814 47.1758C280.764 46.5156 280.704 45.8639 280.637 45.2207C280.484 43.3926 280.383 41.793 280.332 40.4219V39.3301C280.4 38.7884 280.671 38.3906 281.145 38.1367C281.618 37.8659 282.16 37.7305 282.77 37.7305C283.396 37.7305 283.938 37.8659 284.395 38.1367C284.868 38.3906 285.131 38.7715 285.182 39.2793C285.182 39.4655 285.19 39.6348 285.207 39.7871C285.224 39.9395 285.232 40.1003 285.232 40.2695C285.249 40.4388 285.266 40.6081 285.283 40.7773L285.359 41.5137L285.461 42.8594L285.537 42.7578C286.299 41.776 287.035 41.099 287.746 40.7266C288.254 40.4557 288.846 40.3203 289.523 40.3203C290.505 40.3203 291.428 40.5742 292.291 41.082C293.12 41.6914 293.704 42.2246 294.043 42.6816C294.382 43.1217 294.712 43.7396 295.033 44.5352L295.465 45.8555L295.795 47.3281C295.88 47.7852 295.922 48.2845 295.922 48.8262C295.922 49.1986 295.854 49.554 295.719 49.8926C295.651 50.1634 295.49 50.3581 295.236 50.4766C294.999 50.5951 294.83 50.6966 294.729 50.7812L294.373 51.0605L293.078 51.2129C292.943 51.1113 292.816 51.0352 292.697 50.9844L292.037 50.7812C291.936 50.7643 291.851 50.7389 291.783 50.7051C291.732 50.6712 291.631 50.5527 291.479 50.3496C291.106 49.8079 290.852 49.0293 290.717 48.0137C290.666 47.5059 290.581 47.0065 290.463 46.5156L290.361 46.084C290.107 45.0007 289.693 44.459 289.117 44.459C288.542 44.459 287.89 44.9837 287.162 46.0332C286.807 46.5918 286.595 47.0065 286.527 47.2773C286.29 47.7344 286.146 48.0645 286.096 48.2676L286.045 48.3438C286.079 48.4792 286.096 48.6061 286.096 48.7246L286.477 51.7207L286.604 52.6094L286.73 53.6758L286.857 54.5391C286.857 54.5898 286.866 54.6322 286.883 54.666C287.137 56.4434 287.264 57.6621 287.264 58.3223C287.179 59.1348 286.866 59.7188 286.324 60.0742C285.952 60.3112 285.562 60.4297 285.156 60.4297ZM317.885 63.6035H317.758C316.59 63.6035 315.87 61.9277 315.6 58.5762C314.465 59.2025 313.221 59.5156 311.867 59.5156C309.684 59.5156 307.957 58.737 306.688 57.1797C305.926 56.2487 305.443 55.1823 305.24 53.9805C305.122 53.3711 305.062 52.6517 305.062 51.8223C305.062 50.2142 305.367 48.6061 305.977 46.998C306.467 45.8809 307.035 44.9499 307.678 44.2051C309.1 42.6478 310.843 41.8691 312.908 41.8691C313.247 41.8691 313.585 41.8861 313.924 41.9199L315.117 42.1992C315.117 41.4714 315.126 40.8789 315.143 40.4219C315.176 39.9648 315.193 39.5247 315.193 39.1016C315.227 37.9844 315.32 36.6133 315.473 34.9883C315.574 33.8372 315.735 32.7285 315.955 31.6621C316.107 31.002 316.243 30.5788 316.361 30.3926C316.395 30.1725 316.488 29.9948 316.641 29.8594C316.962 29.5716 317.36 29.4277 317.834 29.4277C318.291 29.4277 318.672 29.6055 318.977 29.9609C319.095 30.1471 319.171 30.3503 319.205 30.5703L319.23 30.7227C319.315 31.0951 319.374 31.4759 319.408 31.8652C319.459 32.4746 319.484 33.2702 319.484 34.252L319.459 35.166C319.425 36.3509 319.408 37.502 319.408 38.6191C319.391 39.0423 319.383 39.6432 319.383 40.4219V46.6426C319.383 47.4043 319.391 48.0306 319.408 48.5215V52.457L319.51 57.7129L319.561 59.3887C319.561 62.0801 319.002 63.485 317.885 63.6035ZM312.146 55.1992C312.214 55.1992 312.273 55.1908 312.324 55.1738C312.477 55.1738 312.578 55.1654 312.629 55.1484H312.502C312.925 55.1146 313.458 54.9622 314.102 54.6914C314.203 54.6406 314.313 54.5983 314.432 54.5645C314.906 54.3444 315.176 54.2005 315.244 54.1328H315.27C315.253 53.5911 315.227 53.0579 315.193 52.5332C315.126 51.196 315.092 49.3763 315.092 47.0742V46.5918C315.058 46.5918 315.024 46.5749 314.99 46.541C314.195 46.084 313.475 45.8555 312.832 45.8555C312.172 45.8555 311.588 46.1178 311.08 46.6426C310.623 47.0996 310.259 47.6582 309.988 48.3184C309.751 48.877 309.633 49.2663 309.633 49.4863C309.464 50.1634 309.379 50.8574 309.379 51.5684C309.379 52.2116 309.455 52.7702 309.607 53.2441C309.98 54.3613 310.555 54.9961 311.334 55.1484H312.502L312.4 55.1738L311.969 55.1992L311.436 55.1738C311.554 55.1908 311.732 55.1992 311.969 55.1992H312.146ZM328.066 60.8105C327.085 60.8105 326.103 60.599 325.121 60.1758C324.055 59.7018 323.166 58.9824 322.455 58.0176C321.321 56.3757 320.754 54.2767 320.754 51.7207C320.754 50.1803 320.94 48.6738 321.312 47.2012C321.685 45.8301 322.159 44.6367 322.734 43.6211C323.327 42.6055 324.055 41.6745 324.918 40.8281C325.798 39.9648 326.721 39.2793 327.686 38.7715C328.667 38.2637 329.632 37.9505 330.58 37.832H332.002C332.459 37.849 332.916 37.9251 333.373 38.0605C335.235 38.7546 336.428 40.041 336.953 41.9199C337.122 42.4954 337.207 43.1302 337.207 43.8242C337.207 44.9922 336.953 46.1178 336.445 47.2012C336.09 48.0306 335.54 48.8939 334.795 49.791C334.643 50.028 334.287 50.4089 333.729 50.9336C331.883 52.5417 330.055 53.6589 328.244 54.2852C327.33 54.5898 326.492 54.7591 325.73 54.793C325.747 54.8099 325.764 54.8438 325.781 54.8945C325.798 54.9453 325.815 55.0046 325.832 55.0723C325.967 55.36 326.145 55.6309 326.365 55.8848C326.941 56.528 327.559 56.8496 328.219 56.8496C328.862 56.8496 329.488 56.6719 330.098 56.3164C330.453 56.1302 330.792 55.9355 331.113 55.7324C331.638 55.3939 331.943 55.1823 332.027 55.0977C332.535 54.6406 333.06 54.2682 333.602 53.9805L333.779 53.8789C334.05 53.8281 334.312 53.8027 334.566 53.8027C334.922 53.8027 335.303 53.8789 335.709 54.0312C336.132 54.1667 336.386 54.6237 336.471 55.4023C336.369 55.8255 336.191 56.2233 335.938 56.5957C335.701 56.9681 335.413 57.3066 335.074 57.6113C333.5 59.0332 331.706 60.0404 329.691 60.6328C329.15 60.7513 328.608 60.8105 328.066 60.8105ZM325.197 51.8223C325.231 51.8223 325.257 51.8138 325.273 51.7969C325.443 51.7969 325.807 51.6953 326.365 51.4922C327.736 50.9167 329.158 49.9349 330.631 48.5469C331.24 47.9206 331.723 47.3281 332.078 46.7695C332.62 45.7878 332.899 44.8737 332.916 44.0273C332.916 43.5195 332.764 42.9863 332.459 42.4277C332.307 42.1908 332.129 42.0469 331.926 41.9961H332.027H331.545H331.9C331.748 41.9453 331.536 41.9199 331.266 41.9199C330.978 41.9538 330.834 41.9792 330.834 41.9961H331.545C330.936 41.9961 330.216 42.2585 329.387 42.7832C327.897 43.7988 326.805 45.1361 326.111 46.7949C325.502 48.2337 325.197 49.9095 325.197 51.8223ZM359.17 63.6035H359.043C357.875 63.6035 357.156 61.9277 356.885 58.5762C355.751 59.2025 354.507 59.5156 353.152 59.5156C350.969 59.5156 349.242 58.737 347.973 57.1797C347.211 56.2487 346.729 55.1823 346.525 53.9805C346.407 53.3711 346.348 52.6517 346.348 51.8223C346.348 50.2142 346.652 48.6061 347.262 46.998C347.753 45.8809 348.32 44.9499 348.963 44.2051C350.385 42.6478 352.128 41.8691 354.193 41.8691C354.532 41.8691 354.87 41.8861 355.209 41.9199L356.402 42.1992C356.402 41.4714 356.411 40.8789 356.428 40.4219C356.462 39.9648 356.479 39.5247 356.479 39.1016C356.512 37.9844 356.605 36.6133 356.758 34.9883C356.859 33.8372 357.02 32.7285 357.24 31.6621C357.393 31.002 357.528 30.5788 357.646 30.3926C357.68 30.1725 357.773 29.9948 357.926 29.8594C358.247 29.5716 358.645 29.4277 359.119 29.4277C359.576 29.4277 359.957 29.6055 360.262 29.9609C360.38 30.1471 360.456 30.3503 360.49 30.5703L360.516 30.7227C360.6 31.0951 360.66 31.4759 360.693 31.8652C360.744 32.4746 360.77 33.2702 360.77 34.252L360.744 35.166C360.71 36.3509 360.693 37.502 360.693 38.6191C360.676 39.0423 360.668 39.6432 360.668 40.4219V46.6426C360.668 47.4043 360.676 48.0306 360.693 48.5215V52.457L360.795 57.7129L360.846 59.3887C360.846 62.0801 360.287 63.485 359.17 63.6035ZM353.432 55.1992C353.499 55.1992 353.559 55.1908 353.609 55.1738C353.762 55.1738 353.863 55.1654 353.914 55.1484H353.787C354.21 55.1146 354.743 54.9622 355.387 54.6914C355.488 54.6406 355.598 54.5983 355.717 54.5645C356.191 54.3444 356.462 54.2005 356.529 54.1328H356.555C356.538 53.5911 356.512 53.0579 356.479 52.5332C356.411 51.196 356.377 49.3763 356.377 47.0742V46.5918C356.343 46.5918 356.309 46.5749 356.275 46.541C355.48 46.084 354.76 45.8555 354.117 45.8555C353.457 45.8555 352.873 46.1178 352.365 46.6426C351.908 47.0996 351.544 47.6582 351.273 48.3184C351.036 48.877 350.918 49.2663 350.918 49.4863C350.749 50.1634 350.664 50.8574 350.664 51.5684C350.664 52.2116 350.74 52.7702 350.893 53.2441C351.265 54.3613 351.84 54.9961 352.619 55.1484H353.787L353.686 55.1738L353.254 55.1992L352.721 55.1738C352.839 55.1908 353.017 55.1992 353.254 55.1992H353.432ZM367.6 37.5781C366.719 37.5781 366 37.248 365.441 36.5879C365.289 36.4017 365.213 36.207 365.213 36.0039C365.213 35.6992 365.458 35.3522 365.949 34.9629L366.025 34.9121C366.229 34.7259 366.576 34.472 367.066 34.1504L368.285 33.3633C368.522 33.194 368.725 33.0755 368.895 33.0078C368.979 32.9232 369.377 32.6693 370.088 32.2461C370.308 32.1276 370.511 32.0091 370.697 31.8906C370.883 31.7721 371.078 31.6621 371.281 31.5605L372.373 30.9004C372.542 30.8496 372.72 30.8242 372.906 30.8242C373.617 30.8919 374.227 31.2051 374.734 31.7637C374.988 32.0514 375.115 32.3561 375.115 32.6777C375.115 32.9655 375.005 33.2617 374.785 33.5664C374.633 33.668 374.455 33.7695 374.252 33.8711C374.15 33.9219 374.057 33.9811 373.973 34.0488C373.786 34.1504 373.609 34.252 373.439 34.3535C373.27 34.4551 373.101 34.5482 372.932 34.6328L372.297 35.0391C371.941 35.2422 371.713 35.3776 371.611 35.4453C371.527 35.4961 371.434 35.5469 371.332 35.5977C371.247 35.6484 371.154 35.7077 371.053 35.7754C370.968 35.8262 370.875 35.8854 370.773 35.9531C370.672 36.0208 370.57 36.0801 370.469 36.1309L369.555 36.7148L368.514 37.3496C368.243 37.502 367.938 37.5781 367.6 37.5781ZM369.352 61.3691C368.302 61.3691 367.32 61.1576 366.406 60.7344C364.324 59.8711 362.97 58.0514 362.344 55.2754C362.141 54.3613 362.039 53.4303 362.039 52.4824C362.039 50.8405 362.225 49.2747 362.598 47.7852C362.97 46.4141 363.444 45.2292 364.02 44.2305L364.045 44.2051C364.654 43.1725 365.382 42.2331 366.229 41.3867C367.092 40.5234 367.997 39.8464 368.945 39.3555C369.978 38.8138 370.951 38.5007 371.865 38.416C372.035 38.416 372.195 38.4076 372.348 38.3906H373.287C373.744 38.4076 374.201 38.4922 374.658 38.6445C375.572 38.9492 376.359 39.4655 377.02 40.1934C378.018 41.429 378.518 42.8255 378.518 44.3828C378.518 45.5508 378.255 46.6764 377.73 47.7598C377.155 49.1139 376.241 50.3581 374.988 51.4922C374.159 52.2708 373.296 52.9225 372.398 53.4473C370.435 54.6491 368.641 55.2839 367.016 55.3516C367.016 55.3854 367.024 55.4277 367.041 55.4785C367.075 55.5124 367.1 55.5632 367.117 55.6309C367.253 55.9186 367.422 56.1895 367.625 56.4434C368.217 57.0866 368.869 57.4082 369.58 57.4082C370.511 57.4082 371.73 56.8411 373.236 55.707L373.312 55.6562C373.973 55.1146 374.497 54.7422 374.887 54.5391L375.064 54.4375C375.335 54.3867 375.598 54.3613 375.852 54.3613C376.207 54.3613 376.588 54.4375 376.994 54.5898C377.417 54.7253 377.671 55.1823 377.756 55.9609C377.502 56.9935 376.664 58.0345 375.242 59.084C374.413 59.7103 373.507 60.235 372.525 60.6582C371.442 61.1322 370.384 61.3691 369.352 61.3691ZM366.482 52.3809L366.686 52.3555C367.786 52.0677 368.835 51.5599 369.834 50.832C371.493 49.6133 372.669 48.4453 373.363 47.3281C373.905 46.3464 374.184 45.4323 374.201 44.5859C374.201 44.3997 374.133 44.0273 373.998 43.4688L373.744 42.9863C373.592 42.7493 373.414 42.6055 373.211 42.5547H372.83H373.186C373.033 42.5039 372.906 42.4785 372.805 42.4785C372.602 42.4785 372.415 42.4954 372.246 42.5293L372.119 42.5547H372.83C372.221 42.5547 371.501 42.8171 370.672 43.3418C369.216 44.2897 368.124 45.627 367.396 47.3535C366.787 48.7923 366.482 50.4681 366.482 52.3809ZM382.809 66.8789C381.928 66.8789 381.217 66.168 380.676 64.7461C380.557 64.306 380.456 63.8659 380.371 63.4258L380.295 62.9941C379.956 61.2168 379.711 59.5664 379.559 58.043C379.389 56.8919 379.22 54.8268 379.051 51.8477C379.017 50.9336 379 49.8926 379 48.7246C379 46.5579 379.118 44.7298 379.355 43.2402C379.491 42.1569 379.711 41.1667 380.016 40.2695C380.557 38.9492 381.226 38.2891 382.021 38.2891C382.597 38.2891 383.071 38.543 383.443 39.0508C383.816 39.5417 384.002 40.1257 384.002 40.8027L383.977 41.1582L383.799 42.25C383.799 42.3854 383.782 42.5208 383.748 42.6562C384.984 41.9453 386.296 41.5898 387.684 41.5898C389.156 41.5898 390.392 41.9622 391.391 42.707C392.152 43.2318 392.804 43.9596 393.346 44.8906C393.854 45.7539 394.192 46.7357 394.361 47.8359C394.412 48.3438 394.438 48.9362 394.438 49.6133C394.438 50.4596 394.336 51.306 394.133 52.1523C393.997 52.9648 393.752 53.7435 393.396 54.4883L393.27 54.7422L392.838 55.5547C392.398 56.2148 391.882 56.748 391.289 57.1543C390.223 57.9499 389.055 58.3477 387.785 58.3477C386.871 58.3477 385.923 58.1276 384.941 57.6875L383.951 57.1543L384.383 60.6074C384.417 60.8952 384.459 61.1914 384.51 61.4961C384.561 61.8008 384.603 62.1055 384.637 62.4102L384.738 63.0957C384.806 63.4342 384.857 63.7643 384.891 64.0859C384.772 65.9479 384.078 66.8789 382.809 66.8789ZM387.633 54.1582C388.107 54.1582 388.53 53.9466 388.902 53.5234C388.936 53.4727 388.979 53.4303 389.029 53.3965C389.249 53.0918 389.419 52.7279 389.537 52.3047C389.757 51.543 389.893 50.9167 389.943 50.4258C389.994 50.138 390.028 49.8503 390.045 49.5625C390.045 48.7331 389.952 48.0645 389.766 47.5566C389.596 47.0488 389.309 46.6003 388.902 46.2109C388.31 45.7201 387.726 45.4746 387.15 45.4746C386.558 45.4746 385.923 45.6354 385.246 45.957C384.721 46.1771 384.171 46.5749 383.596 47.1504C383.562 47.235 383.503 47.2943 383.418 47.3281V48.3945C383.418 49.1732 383.426 49.6895 383.443 49.9434V50.1973C383.714 50.8405 384.104 51.4583 384.611 52.0508C384.95 52.457 385.161 52.7025 385.246 52.7871C385.348 52.8548 385.432 52.9225 385.5 52.9902C386.296 53.7689 387.007 54.1582 387.633 54.1582ZM409.748 65.6602C409.613 65.6602 409.486 65.6517 409.367 65.6348C409.249 65.6178 409.062 65.4824 408.809 65.2285L408.555 64.8477C408.233 64.4076 407.92 63.6966 407.615 62.7148C407.598 62.6133 407.573 62.5202 407.539 62.4355C407.201 61.1491 406.938 59.7272 406.752 58.1699C406.718 57.8822 406.701 57.6029 406.701 57.332L406.625 57.4336C405.643 58.8385 404.568 59.8711 403.4 60.5312H403.375C402.495 61.0391 401.564 61.293 400.582 61.293C399.092 61.293 397.84 60.7344 396.824 59.6172C395.572 58.2969 394.945 56.3249 394.945 53.7012C395.081 51.0944 395.834 48.6992 397.205 46.5156C397.916 45.3646 398.678 44.4421 399.49 43.748C399.49 43.6634 399.913 43.3418 400.76 42.7832C401.945 42.0723 403.29 41.7083 404.797 41.6914C405.88 41.6914 406.803 41.9453 407.564 42.4531C407.734 42.5378 407.945 42.707 408.199 42.9609C408.199 42.9779 408.208 42.9863 408.225 42.9863C408.631 43.4264 408.834 43.8665 408.834 44.3066C408.834 44.5267 408.817 44.6706 408.783 44.7383C408.749 44.806 408.699 44.8822 408.631 44.9668C408.326 45.3223 407.505 45.5 406.168 45.5H405.838C404.975 45.5 404.188 45.6185 403.477 45.8555C402.546 46.3802 401.708 47.2096 400.963 48.3438C399.896 50.1211 399.329 51.9492 399.262 53.8281C399.262 54.6068 399.38 55.3177 399.617 55.9609C399.871 56.6888 400.26 57.0527 400.785 57.0527C401.259 57.0527 401.97 56.6211 402.918 55.7578C402.918 55.7409 402.926 55.7324 402.943 55.7324C403.367 55.3431 403.993 54.6322 404.822 53.5996L405.381 52.9141C405.533 52.6771 405.694 52.457 405.863 52.2539C406.033 52.0508 406.185 51.8392 406.32 51.6191L406.65 51.1113C406.65 50.8405 406.684 50.5358 406.752 50.1973C406.82 49.7064 406.913 49.2493 407.031 48.8262L407.26 48.3945C407.429 48.0729 407.818 47.9121 408.428 47.9121C408.597 47.9121 408.817 47.929 409.088 47.9629C409.697 48.0645 410.002 48.276 410.002 48.5977L409.977 48.75C409.977 48.7669 409.985 48.7839 410.002 48.8008C410.036 48.8177 410.087 48.86 410.154 48.9277C410.222 49.0462 410.256 49.2409 410.256 49.5117L410.23 50.2227L410.205 52.7871C410.205 54.0566 410.239 55.0638 410.307 55.8086C410.307 56.1133 410.357 56.7904 410.459 57.8398C410.594 58.8555 410.696 59.4902 410.764 59.7441C410.95 60.8952 411.178 61.9277 411.449 62.8418L411.525 63.0957C411.644 63.3835 411.712 63.6712 411.729 63.959C411.729 64.6022 411.475 65.0677 410.967 65.3555C410.594 65.5586 410.188 65.6602 409.748 65.6602ZM405.914 48.4961C405.897 48.4792 405.872 48.4707 405.838 48.4707C405.821 48.4707 405.804 48.4707 405.787 48.4707C405.77 48.4707 405.762 48.4622 405.762 48.4453L405.838 48.3691C405.855 48.3691 405.863 48.3776 405.863 48.3945C405.88 48.3945 405.889 48.4115 405.889 48.4453C405.906 48.4622 405.914 48.4792 405.914 48.4961ZM417.086 60.4297C416.9 60.4297 416.595 60.3789 416.172 60.2773C415.478 60.0742 414.919 59.0247 414.496 57.1289L414.09 55.1992L413.709 53.2441C413.607 52.7363 413.455 51.873 413.252 50.6543C413.049 49.5033 412.88 48.3438 412.744 47.1758C412.693 46.5156 412.634 45.8639 412.566 45.2207C412.414 43.3926 412.312 41.793 412.262 40.4219V39.3301C412.329 38.7884 412.6 38.3906 413.074 38.1367C413.548 37.8659 414.09 37.7305 414.699 37.7305C415.326 37.7305 415.867 37.8659 416.324 38.1367C416.798 38.3906 417.061 38.7715 417.111 39.2793C417.111 39.4655 417.12 39.6348 417.137 39.7871C417.154 39.9395 417.162 40.1003 417.162 40.2695C417.179 40.4388 417.196 40.6081 417.213 40.7773L417.289 41.5137L417.391 42.8594L417.467 42.7578C418.229 41.776 418.965 41.099 419.676 40.7266C420.184 40.4557 420.776 40.3203 421.453 40.3203C422.435 40.3203 423.357 40.5742 424.221 41.082C425.05 41.6914 425.634 42.2246 425.973 42.6816C426.311 43.1217 426.641 43.7396 426.963 44.5352L427.395 45.8555L427.725 47.3281C427.809 47.7852 427.852 48.2845 427.852 48.8262C427.852 49.1986 427.784 49.554 427.648 49.8926C427.581 50.1634 427.42 50.3581 427.166 50.4766C426.929 50.5951 426.76 50.6966 426.658 50.7812L426.303 51.0605L425.008 51.2129C424.872 51.1113 424.745 51.0352 424.627 50.9844L423.967 50.7812C423.865 50.7643 423.781 50.7389 423.713 50.7051C423.662 50.6712 423.561 50.5527 423.408 50.3496C423.036 49.8079 422.782 49.0293 422.646 48.0137C422.596 47.5059 422.511 47.0065 422.393 46.5156L422.291 46.084C422.037 45.0007 421.622 44.459 421.047 44.459C420.471 44.459 419.82 44.9837 419.092 46.0332C418.736 46.5918 418.525 47.0065 418.457 47.2773C418.22 47.7344 418.076 48.0645 418.025 48.2676L417.975 48.3438C418.008 48.4792 418.025 48.6061 418.025 48.7246L418.406 51.7207L418.533 52.6094L418.66 53.6758L418.787 54.5391C418.787 54.5898 418.796 54.6322 418.812 54.666C419.066 56.4434 419.193 57.6621 419.193 58.3223C419.109 59.1348 418.796 59.7188 418.254 60.0742C417.882 60.3112 417.492 60.4297 417.086 60.4297ZM435.367 59.8965C434.352 59.8965 433.446 59.6003 432.65 59.0078C431.669 58.2799 430.907 57.0527 430.365 55.3262C430.094 54.5645 429.891 53.7096 429.756 52.7617C429.739 52.5924 429.714 52.4316 429.68 52.2793L429.553 51.2891C429.553 51.0859 429.536 50.8828 429.502 50.6797C429.417 49.9518 429.375 48.7754 429.375 47.1504L429.426 46.2871C429.443 45.7116 429.485 45.1276 429.553 44.5352C429.62 43.9427 429.671 43.5957 429.705 43.4941C429.468 43.4941 428.994 43.6042 428.283 43.8242L427.75 43.9512L427.42 43.9766C427.251 43.875 427.064 43.7819 426.861 43.6973C426.083 43.4264 425.693 43.0964 425.693 42.707C425.693 42.4531 425.981 42.123 426.557 41.7168L426.607 41.6914C427.335 41.2513 428.241 40.8789 429.324 40.5742C429.866 40.4388 430.196 40.3711 430.314 40.3711L430.34 40.2188L430.492 39.6855C430.611 38.9915 430.805 38.3652 431.076 37.8066C431.533 36.9095 432.075 36.4609 432.701 36.4609C433.531 36.4779 434.258 37.0534 434.885 38.1875L434.758 38.7969L434.58 39.6348L434.504 39.9395C434.504 39.9733 434.495 39.9987 434.479 40.0156L434.732 40.041C435.274 40.041 435.723 40.0495 436.078 40.0664C436.434 40.0833 436.781 40.1172 437.119 40.168C437.83 40.2018 438.423 40.2949 438.896 40.4473C439.218 40.6842 439.379 40.9805 439.379 41.3359C439.379 41.4036 439.354 41.5814 439.303 41.8691C439.252 42.14 439.04 42.4701 438.668 42.8594C438.296 43.2487 437.872 43.4772 437.398 43.5449L436.637 43.4688C435.807 43.3672 435.206 43.3079 434.834 43.291L434.021 43.2656L433.996 43.3926C433.962 43.7988 433.92 44.1966 433.869 44.5859C433.869 44.8229 433.852 45.026 433.818 45.1953C433.734 46.2956 433.691 47.0404 433.691 47.4297L433.641 48.0391C433.641 49.5286 433.666 50.5189 433.717 51.0098C433.717 51.2129 433.751 51.653 433.818 52.3301C433.886 52.7025 433.945 53.0664 433.996 53.4219C434.064 53.7773 434.14 54.1159 434.225 54.4375C434.343 54.9622 434.529 55.4616 434.783 55.9355C435.037 56.3926 435.342 56.6211 435.697 56.6211C436.002 56.6211 436.332 56.3164 436.688 55.707C436.857 55.4362 436.958 55.25 436.992 55.1484C437.331 54.3021 437.686 53.8789 438.059 53.8789C438.482 53.8789 438.744 54.6406 438.846 56.1641C438.829 56.1979 438.82 56.2402 438.82 56.291V56.4434C438.82 57.002 438.609 57.6536 438.186 58.3984C437.847 58.9062 437.449 59.2871 436.992 59.541C436.535 59.778 435.993 59.8965 435.367 59.8965ZM434.479 43.2656C434.343 43.2656 434.216 43.2572 434.098 43.2402H434.021V43.2656H434.479Z" fill="#F8FEFA"/>
</svg>
