<svg width="61" height="61" fill="none" xmlns="http://www.w3.org/2000/svg"><g clip-path="url(#prefix__clip0)"><path d="M49.303 58.97c-2.599 0-5.035-.975-6.822-2.843L30.459 44.105 18.438 56.127a9.65 9.65 0 01-6.823 2.842c-2.6 0-4.955-1.056-6.742-2.843-3.736-3.736-3.736-9.909 0-13.645l12.022-12.022L4.873 18.44a9.465 9.465 0 010-13.565 9.65 9.65 0 016.823-2.843c2.6 0 5.036.974 6.823 2.843l12.022 12.02 11.94-12.02a9.65 9.65 0 016.822-2.843c2.6 0 5.037.974 6.823 2.843 3.737 3.736 3.737 9.909 0 13.645l-12.02 11.94 12.02 12.022c3.737 3.736 3.737 9.91 0 13.645a9.65 9.65 0 01-6.822 2.843z" fill="#F98E12"/><path d="M49.304 4.061c1.949 0 3.898.731 5.36 2.193 2.925 2.924 2.925 7.798 0 10.722L41.262 30.459l13.484 13.484c2.924 2.924 2.924 7.797 0 10.721-1.462 1.462-3.412 2.194-5.361 2.194-1.95 0-3.899-.731-5.361-2.194L30.459 41.262 17.057 54.664c-1.462 1.462-3.411 2.194-5.36 2.194-1.95 0-3.9-.731-5.361-2.194-2.925-2.924-2.925-7.797 0-10.721l13.483-13.484L6.254 17.057c-2.924-2.924-2.924-7.797 0-10.721C7.798 4.792 9.747 4.06 11.696 4.06c1.95 0 3.9.731 5.361 2.193l13.484 13.484L43.943 6.254c1.462-1.462 3.411-2.193 5.36-2.193zm0-4.061c-3.087 0-6.092 1.218-8.285 3.411l-10.56 10.56L19.9 3.41A11.555 11.555 0 0011.696 0C8.61 0 5.605 1.218 3.411 3.411 1.218 5.605 0 8.53 0 11.696c0 3.168 1.218 6.092 3.411 8.285l10.56 10.56L3.41 41.1c-4.548 4.548-4.548 11.94 0 16.489C5.605 59.782 8.53 61 11.696 61c3.087 0 6.092-1.218 8.285-3.411l10.56-10.56L41.1 57.59C43.293 59.782 46.217 61 49.385 61c3.086 0 6.092-1.218 8.285-3.411 4.548-4.549 4.548-11.94 0-16.49L47.11 30.542l10.56-10.56c2.193-2.193 3.411-5.117 3.411-8.285 0-3.167-1.218-6.091-3.411-8.285C55.395 1.218 52.47 0 49.304 0z" fill="#FFF2EA"/></g><defs><clipPath id="prefix__clip0"><path fill="#fff" d="M0 0h61v61H0z"/></clipPath></defs></svg>