<svg width="145" height="64" viewBox="0 0 145 64" fill="none" xmlns="http://www.w3.org/2000/svg">
    <g clip-path="url(#clip0)">
        <path d="M11.6408 19.988H11.3772C10.9082 19.8721 10.4615 19.6 10.0416 19.1808C9.6798 18.7884 9.35817 18.3781 9.07229 17.95C8.71046 17.3747 8.38884 16.8128 8.10296 16.2642L8.04042 16.1617C7.79474 15.6845 7.48652 14.9932 7.11576 14.0924C6.812 13.3699 6.51272 12.5538 6.2179 11.6441L5.79353 10.4266L4.42664 6.46645C4.41771 6.45753 4.41324 6.44415 4.41324 6.42185C4.40431 6.48875 4.39537 6.55564 4.38197 6.61808C4.37304 6.68051 4.36857 6.74295 4.36857 6.80092L4.3373 7.10863C4.22116 8.00948 4.16309 8.7141 4.16309 9.21804C4.13182 9.50345 4.10502 10.1278 4.07375 11.0955C4.06482 11.2427 4.06035 11.4835 4.06035 11.8135L4.07375 13.3521L4.11842 14.6409C4.13629 14.8951 4.16309 15.3857 4.18989 16.1081L4.17649 16.7682C4.12735 17.2587 3.93081 17.6155 3.58685 17.8385C3.3635 17.9856 3.13569 18.057 2.91234 18.057C2.7828 18.057 2.59965 18.0169 2.3629 17.9321C2.12169 17.8474 1.96534 17.5352 1.88494 16.9867C1.63032 16.0502 1.46504 14.8684 1.38464 13.4547C1.35337 12.3977 1.33997 11.6039 1.33997 11.0643C1.33997 10.663 1.3489 10.2616 1.37123 9.86022L1.38464 9.30277C1.4025 8.84343 1.44271 8.2726 1.50078 7.58581C1.56778 6.75633 1.67052 5.92684 1.809 5.10627L1.85367 4.81193L1.98768 4.10731L2.12169 3.50526C2.12169 3.43837 2.16189 3.25552 2.23783 2.96119C2.36737 2.47955 2.56838 2.0871 2.84087 1.80169C3.06422 1.57871 3.26523 1.44046 3.44391 1.3914C3.56005 1.36018 3.69853 1.34681 3.85487 1.34681L4.11842 1.36018H4.51598C4.78847 1.44938 5.02968 1.58317 5.23516 1.77047C5.52998 2.04251 5.798 2.41711 6.04368 2.88537C6.24023 3.32688 6.42338 3.78622 6.60206 4.2634L6.64672 4.35259C6.76287 4.7049 6.87007 5.00369 6.96835 5.24897L7.32124 6.23009C7.56692 6.85444 7.83047 7.60365 8.11636 8.47328C8.57646 9.79333 8.86234 10.5961 8.96955 10.877C9.31351 11.8358 9.59939 12.6252 9.83614 13.254L10.0863 13.8694C10.2114 14.2217 10.4124 14.6944 10.6893 15.292C10.9261 15.8317 11.1182 16.2196 11.279 16.4649L11.2343 15.7603C11.203 15.301 11.1539 14.7613 11.0869 14.1459C11.069 14.0478 11.0512 13.9452 11.0422 13.8382C11.0333 13.7312 10.9797 13.3075 10.8814 12.5628C10.7429 11.4389 10.667 10.7611 10.6447 10.5247L10.6313 10.4667C10.5151 9.10654 10.457 7.93366 10.457 6.94809C10.457 6.75187 10.4615 6.5601 10.4705 6.37726C10.4705 5.82872 10.5017 5.36492 10.5598 4.98586L10.5911 4.62017C10.6491 4.19204 10.7295 3.755 10.8278 3.3135C10.9261 2.93443 11.0467 2.5509 11.1941 2.17184C11.5649 1.3914 11.9624 0.833949 12.3823 0.499477C12.695 0.23636 13.0345 0.0758135 13.3963 0.0133789L13.8564 0C14.3254 0 14.7587 0.182844 15.1474 0.544074C15.402 0.816111 15.5271 1.11491 15.5271 1.44046C15.5271 1.73479 15.4333 1.98453 15.2412 2.18967C15.0491 2.39482 14.8436 2.49739 14.6158 2.49739C14.4863 2.49739 14.3567 2.45725 14.2182 2.38144C14.0306 2.30116 13.9145 2.26549 13.8653 2.26549C13.7492 2.26549 13.6331 2.37698 13.5259 2.60442L13.5125 2.6178C13.3829 2.82294 13.2802 3.04146 13.1953 3.27782C13.1104 3.51418 13.0345 3.84419 12.9675 4.27678C12.9496 4.31691 12.9183 4.51314 12.8781 4.86545C12.7888 5.51209 12.7441 6.20333 12.7441 6.94809L12.7575 7.71068C12.7888 8.15219 12.8022 8.42422 12.8022 8.53125L12.9496 10.2928L12.9943 10.6317L13.0524 11.2026C13.0926 11.4568 13.1328 11.7556 13.1685 12.0989L13.1998 12.2907C13.2578 12.7233 13.3204 13.1425 13.3918 13.5572C13.4589 13.972 13.5169 14.3823 13.5661 14.7836C13.6554 15.3812 13.7179 15.9075 13.7581 16.3668C13.7671 16.6032 13.7715 16.893 13.7715 17.2454C13.7715 18.0392 13.6509 18.6368 13.4052 19.047C13.0836 19.5956 12.6995 19.8988 12.2617 19.9568C12.0964 19.9702 11.882 19.988 11.6408 19.988Z" fill="#F98E12"/>
        <path d="M23.3443 19.93C23.2639 19.93 23.1924 19.9256 23.1254 19.9166C23.0584 19.9077 22.9512 19.8275 22.8038 19.6803L22.6563 19.4618C22.4687 19.2076 22.2901 18.7973 22.1114 18.2309C22.1024 18.1729 22.0846 18.1194 22.0667 18.0704C21.8702 17.3256 21.7183 16.505 21.6111 15.6087C21.5932 15.4437 21.5798 15.2831 21.5798 15.1226L21.5351 15.1805C20.9678 15.9922 20.3469 16.5898 19.6679 16.9688H19.6545C19.1453 17.2632 18.6048 17.4103 18.0375 17.4103C17.1754 17.4103 16.4517 17.0893 15.8621 16.4426C15.1384 15.68 14.7766 14.5428 14.7766 13.0265C14.857 11.5192 15.2903 10.1367 16.0854 8.87463C16.4964 8.21015 16.9386 7.67945 17.4077 7.27809C17.4077 7.22903 17.6533 7.04173 18.1402 6.72063C18.8237 6.31035 19.6054 6.10075 20.4765 6.09183C21.1018 6.09183 21.6379 6.23899 22.0756 6.53333C22.1739 6.58239 22.2945 6.6805 22.4419 6.82766C22.4419 6.83658 22.4464 6.84104 22.4553 6.84104C22.6921 7.09524 22.8082 7.34944 22.8082 7.60364C22.8082 7.73297 22.7993 7.81324 22.777 7.85338C22.7591 7.89351 22.7278 7.93811 22.6876 7.98717C22.5134 8.19231 22.0354 8.29488 21.2626 8.29488H21.084C20.5837 8.29488 20.128 8.36177 19.7171 8.50002C19.1766 8.80328 18.6941 9.28046 18.2608 9.93602C17.6444 10.9617 17.3138 12.0187 17.2781 13.1023C17.2781 13.5528 17.3451 13.9631 17.4836 14.3332C17.631 14.7524 17.8544 14.962 18.1581 14.962C18.4306 14.962 18.8416 14.7123 19.391 14.2128C19.391 14.2039 19.3955 14.1994 19.4044 14.1994C19.6501 13.9764 20.0119 13.5662 20.4899 12.9686L20.8115 12.5717C20.9008 12.4334 20.9946 12.3085 21.0884 12.1926C21.1867 12.0766 21.2761 11.9518 21.352 11.8269L21.5441 11.5326C21.5441 11.3765 21.5619 11.2026 21.6021 11.0063C21.6423 10.7209 21.6959 10.4578 21.763 10.2125L21.897 9.96278C21.9952 9.77547 22.2186 9.68628 22.5715 9.68628C22.6697 9.68628 22.7948 9.6952 22.9512 9.7175C23.3041 9.77547 23.4783 9.90034 23.4783 10.0832L23.4649 10.1724C23.4649 10.1813 23.4738 10.1902 23.4872 10.2036C23.5006 10.2125 23.5274 10.2393 23.5676 10.275C23.6078 10.3418 23.6257 10.4578 23.6257 10.6139L23.6123 11.0242L23.5989 12.5048C23.5989 13.2361 23.6167 13.8203 23.6569 14.2485C23.6569 14.4224 23.6882 14.8148 23.7463 15.4214C23.8267 16.01 23.8848 16.3757 23.9205 16.5229C24.0277 17.1874 24.1617 17.785 24.3181 18.3112L24.3627 18.4584C24.4297 18.6234 24.4699 18.7928 24.4789 18.9578C24.4789 19.328 24.3315 19.6 24.0366 19.765C23.8356 19.8676 23.5989 19.93 23.3443 19.93ZM21.1286 10.0163C21.1197 10.0074 21.1063 10.0029 21.0929 10.0029C21.0795 10.0029 21.0661 10.0029 21.0572 10.0029C21.0482 10.0029 21.0438 9.99845 21.0438 9.98954L21.0884 9.94494C21.0974 9.94494 21.1063 9.9494 21.1108 9.95386C21.1152 9.95832 21.1197 9.96724 21.1242 9.98508C21.1242 9.99399 21.1286 10.0074 21.1286 10.0163Z" fill="#F98E12"/>
        <path d="M26.1942 17.7894C25.9485 17.7894 25.6805 17.7002 25.3946 17.5174C25.1043 17.3345 24.9345 16.9911 24.8898 16.4827C24.8228 15.8361 24.7871 14.8817 24.7871 13.6108L24.8005 13.2897C24.8094 12.5449 24.8407 11.7778 24.8898 10.9885C24.8898 10.8146 24.8988 10.6317 24.9211 10.4444C24.9524 9.65061 25.0551 8.84342 25.2293 8.00947L25.4035 7.34944C25.5286 6.89902 25.7118 6.5155 25.9485 6.18994C26.3103 5.65033 26.8062 5.38275 27.4316 5.38275C27.6058 5.38275 27.7889 5.40951 27.9765 5.45411C28.3473 5.59235 28.7002 5.83317 29.0352 6.18548C29.2407 6.40846 29.4685 6.7251 29.7276 7.122C30.0224 7.56351 30.2949 8.04514 30.5495 8.57584L30.7237 8.94153C30.8041 9.09761 30.8756 9.25816 30.9426 9.42763C31.1481 9.88697 31.2731 10.1947 31.3223 10.3508C31.5188 10.7923 31.6484 11.1134 31.7198 11.3185L32.4256 13.0176L32.4837 12.1658C32.515 11.6976 32.5284 11.2828 32.5284 10.9216L32.5418 10.3954L32.5284 10.1189C32.5284 9.7398 32.5239 9.4856 32.515 9.35627C32.515 8.79882 32.5284 8.33056 32.5596 7.94703V7.31823L32.5462 7.11308C32.5462 6.97484 32.5596 6.84105 32.5909 6.7028C32.7651 6.15427 33.0555 5.88223 33.4575 5.88223C33.7791 5.88223 34.0516 6.11859 34.266 6.58685C34.333 6.77415 34.3822 6.9793 34.4134 7.20228C34.4447 7.42526 34.4983 7.72405 34.5742 8.09866C34.7127 8.74531 34.7976 9.38303 34.8378 10.0208L34.9271 10.8413C35.0254 11.537 35.079 12.2104 35.0879 12.866C35.0879 13.0622 35.0611 13.4457 35.0165 14.0255L35.0031 14.0701C34.9361 14.9308 34.7127 15.6176 34.342 16.1394C33.9489 16.6478 33.4441 16.902 32.8276 16.902C32.2201 16.902 31.693 16.6522 31.2419 16.1527C30.9381 15.8673 30.6299 15.4258 30.3172 14.8193C29.9733 14.137 29.5891 13.2361 29.1558 12.1212C29.1379 12.0543 29.1111 11.9785 29.0754 11.8938C29.0397 11.8091 28.8297 11.2605 28.4366 10.2437C28.4366 10.2259 28.4322 10.2081 28.4232 10.1991C28.2579 9.70858 28.0614 9.24924 27.8336 8.82112L27.7889 8.73193L27.5522 10.6094C27.5522 10.6674 27.5477 10.7209 27.5388 10.77C27.4986 11.2695 27.4718 11.7511 27.4494 12.2238C27.4494 12.3621 27.4316 12.8392 27.3914 13.6598C27.3601 14.6454 27.3377 15.3099 27.3199 15.6533L27.2618 16.563C27.2529 16.7102 27.235 16.8529 27.2171 16.9867C27.0831 17.5174 26.7436 17.7894 26.1942 17.7894Z" fill="#F98E12"/>
        <path d="M39.4298 16.5987C38.8402 16.5987 38.3175 16.4292 37.8574 16.0858C37.2901 15.6666 36.8479 14.9576 36.5352 13.9586C36.3789 13.5171 36.2627 13.0265 36.1823 12.478C36.1734 12.3799 36.1555 12.2862 36.1376 12.2015L36.0662 11.6307C36.0662 11.5147 36.0572 11.3943 36.0349 11.2784C35.9858 10.8592 35.9634 10.1768 35.9634 9.24032L35.9947 8.74084C36.0036 8.41083 36.0304 8.0719 36.0662 7.72851C36.1064 7.38512 36.1332 7.18444 36.1555 7.12646C36.017 7.12646 35.7446 7.1889 35.3336 7.31822L35.0254 7.38958L34.8333 7.40296C34.735 7.34498 34.6278 7.29147 34.5117 7.24241C34.0605 7.08632 33.8372 6.89456 33.8372 6.67158C33.8372 6.52441 34.0024 6.33265 34.3375 6.10075L34.3687 6.08737C34.7886 5.83317 35.3157 5.61911 35.9411 5.44072C36.2538 5.36045 36.4459 5.32477 36.5129 5.32477L36.5263 5.23558L36.6156 4.92787C36.6826 4.5265 36.7988 4.16527 36.9551 3.84418C37.2187 3.32686 37.5313 3.06821 37.8932 3.06821C38.3711 3.07713 38.7955 3.4116 39.1573 4.06716L39.0769 4.41501L38.9742 4.90111L38.9295 5.07504C38.9295 5.09287 38.925 5.11071 38.9161 5.11963L39.0635 5.13301C39.3762 5.13301 39.6353 5.13747 39.8408 5.14639C40.0462 5.15531 40.2473 5.17761 40.4438 5.20436C40.8548 5.2222 41.1987 5.27572 41.4712 5.36491C41.6588 5.50316 41.7482 5.67262 41.7482 5.87777C41.7482 5.9179 41.7348 6.01602 41.7035 6.17656C41.6722 6.33711 41.5516 6.52887 41.3372 6.75631C41.1228 6.97929 40.8771 7.11308 40.6046 7.15322L40.1624 7.10862C39.6844 7.05065 39.336 7.01497 39.1216 7.00605L38.6525 6.99267L38.6391 7.06403C38.6213 7.30039 38.5945 7.52783 38.5677 7.75527C38.5677 7.89351 38.5587 8.00947 38.5364 8.10758C38.4873 8.7453 38.4649 9.17343 38.4649 9.39641L38.4337 9.74872C38.4337 10.6094 38.4471 11.1803 38.4783 11.4657C38.4783 11.5816 38.4962 11.8358 38.5364 12.2283C38.5766 12.4423 38.6123 12.6519 38.6481 12.8571C38.6838 13.0622 38.724 13.2584 38.7732 13.4457C38.8402 13.749 38.9474 14.0344 39.0948 14.302C39.2422 14.5696 39.4164 14.7034 39.6219 14.7034C39.7961 14.7034 39.9882 14.5294 40.1937 14.1771C40.2919 14.021 40.35 13.914 40.3679 13.856C40.5644 13.3655 40.7699 13.1246 40.9843 13.1246C41.23 13.1246 41.3819 13.5662 41.4399 14.4447C41.431 14.4625 41.4265 14.4893 41.4265 14.516V14.6052C41.4265 14.9263 41.3059 15.3054 41.0602 15.7335C40.8637 16.0279 40.6359 16.2464 40.3679 16.3846C40.1043 16.5273 39.7916 16.5987 39.4298 16.5987ZM38.9161 6.99267C38.8357 6.99267 38.7642 6.98821 38.6972 6.97929H38.6525V6.99267H38.9161Z" fill="#F98E12"/>
        <path d="M50.6062 19.93C50.5258 19.93 50.4543 19.9256 50.3873 19.9166C50.3203 19.9077 50.2131 19.8275 50.0657 19.6803L49.9183 19.4618C49.7307 19.2076 49.552 18.7973 49.3733 18.2309C49.3644 18.1729 49.3465 18.1194 49.3287 18.0704C49.1321 17.3256 48.9802 16.505 48.873 15.6087C48.8552 15.4437 48.8418 15.2831 48.8418 15.1226L48.7971 15.1805C48.2298 15.9922 47.6089 16.5898 46.9299 16.9688H46.9165C46.4073 17.2632 45.8668 17.4103 45.2995 17.4103C44.4373 17.4103 43.7137 17.0893 43.124 16.4426C42.4004 15.68 42.0386 14.5428 42.0386 13.0265C42.119 11.5192 42.5523 10.1367 43.3474 8.87463C43.7584 8.21015 44.2006 7.67945 44.6696 7.27809C44.6696 7.22903 44.9153 7.04173 45.4022 6.72063C46.0856 6.31035 46.8674 6.10075 47.7384 6.09183C48.3638 6.09183 48.8998 6.23899 49.3376 6.53333C49.4359 6.58239 49.5565 6.6805 49.7039 6.82766C49.7039 6.83658 49.7084 6.84104 49.7173 6.84104C49.954 7.09524 50.0702 7.34944 50.0702 7.60364C50.0702 7.73297 50.0612 7.81324 50.0389 7.85338C50.021 7.89351 49.9898 7.93811 49.9496 7.98717C49.7754 8.19231 49.2974 8.29488 48.5246 8.29488H48.3325C47.8322 8.29488 47.3766 8.36177 46.9656 8.50002C46.4251 8.80328 45.9427 9.28046 45.5094 9.93602C44.893 10.9617 44.5624 12.0187 44.5267 13.1023C44.5267 13.5528 44.5937 13.9631 44.7322 14.3332C44.8796 14.7524 45.1029 14.962 45.4067 14.962C45.6792 14.962 46.0901 14.7123 46.6396 14.2128C46.6396 14.2039 46.644 14.1994 46.653 14.1994C46.8986 13.9764 47.2605 13.5662 47.7384 12.9686L48.06 12.5717C48.1494 12.4334 48.2432 12.3085 48.337 12.1926C48.4353 12.0766 48.5246 11.9518 48.6006 11.8269L48.7926 11.5326C48.7926 11.3765 48.8105 11.2026 48.8507 11.0063C48.8909 10.7209 48.9445 10.4578 49.0115 10.2125L49.1455 9.96278C49.2438 9.77547 49.4671 9.68628 49.82 9.68628C49.9183 9.68628 50.0434 9.6952 50.1997 9.7175C50.5526 9.77547 50.7268 9.90034 50.7268 10.0832L50.7134 10.1724C50.7134 10.1813 50.7224 10.1902 50.7358 10.2036C50.7492 10.2125 50.776 10.2393 50.8162 10.275C50.8564 10.3418 50.8742 10.4578 50.8742 10.6139L50.8608 11.0242L50.8474 12.5048C50.8474 13.2361 50.8653 13.8203 50.9055 14.2485C50.9055 14.4224 50.9368 14.8148 50.9949 15.4214C51.0753 16.01 51.1333 16.3757 51.1691 16.5229C51.2763 17.1874 51.4103 17.785 51.5666 18.3112L51.6113 18.4584C51.6783 18.6234 51.7185 18.7928 51.7274 18.9578C51.7274 19.328 51.58 19.6 51.2852 19.765C51.0976 19.8676 50.8608 19.93 50.6062 19.93ZM48.3906 10.0163C48.3817 10.0074 48.3683 10.0029 48.3549 10.0029C48.3415 10.0029 48.3281 10.0029 48.3191 10.0029C48.3102 10.0029 48.3057 9.99845 48.3057 9.98954L48.3504 9.94494C48.3593 9.94494 48.3683 9.9494 48.3727 9.95386C48.3772 9.95832 48.3817 9.96724 48.3861 9.98508C48.3861 9.99399 48.3906 10.0074 48.3906 10.0163Z" fill="#F98E12"/>
        <path d="M11.681 63.5674C11.1628 63.5674 10.6715 63.5228 10.2114 63.4381C9.14376 63.2374 8.12083 62.2875 7.13809 60.5884C6.58866 59.5805 6.2313 58.7912 6.05709 58.2114C5.56572 57.0876 5.13242 55.9058 4.7572 54.6705L4.49812 53.9792C4.44004 53.6046 4.02015 52.2221 3.2429 49.8318C2.00108 45.4569 1.19256 42.13 0.8218 39.8556C0.330434 37.2022 0.0579485 34.5531 -0.00012207 31.9041L0.0445476 30.1782C0.388504 26.2895 1.33997 24.3451 2.89894 24.3451C4.08269 24.3451 5.27983 25.6696 6.49038 28.3186L6.57526 29.5717C6.57526 30.147 6.678 31.1415 6.87901 32.5508L6.96388 33.1974C7.62499 37.5455 8.52285 41.6216 9.64406 45.4212C9.98802 46.6878 10.3498 47.9275 10.7251 49.1361C10.9842 49.8273 11.1271 50.2867 11.1584 50.5186L11.3728 49.7827C11.8329 47.767 12.4091 45.7825 13.1015 43.8202C13.2444 43.2717 13.6777 42.0765 14.4014 40.2347C15.5851 37.2958 16.9967 34.3881 18.6405 31.5117L19.2882 30.3433C20.1236 28.9028 20.9768 27.5203 21.8389 26.1958L21.8836 26.1111C22.978 24.412 24.0456 23.1588 25.0864 22.3516C26.0959 21.7763 27.034 21.4865 27.9006 21.4865C29.3121 21.4865 30.2815 22.1063 30.7996 23.3417C30.9738 23.7163 31.0587 24.1176 31.0587 24.5502C31.0587 25.4421 30.6969 26.4366 29.9777 27.5292L27.3377 31.7168C27.1635 32.0335 26.9759 32.3367 26.7749 32.6221C25.2159 35.1864 23.9473 37.5188 22.969 39.6193C22.2498 41.1445 21.4279 43.0888 20.5033 45.4524C20.2442 46.2284 19.7394 47.9142 18.989 50.5052C18.7879 51.1117 18.4708 52.2757 18.0375 54.006C17.3183 57.0029 16.6259 59.2059 15.9604 60.6152C15.5583 61.4803 14.9955 62.2117 14.2718 62.8182L14.1423 62.9029C13.5929 63.2775 13.2355 63.4782 13.0613 63.5094C12.8915 63.554 12.4315 63.5674 11.681 63.5674Z" fill="#F98E12"/>
        <path d="M39.126 61.9664C37.4509 61.9664 35.7803 61.6052 34.1052 60.8872C32.2871 60.08 30.7728 58.8581 29.5623 57.2169C27.6281 54.4252 26.6632 50.853 26.6632 46.5049C26.6632 43.8826 26.9804 41.3228 27.6147 38.8165C28.249 36.4841 29.062 34.455 30.0581 32.7247C31.0542 30.9988 32.2916 29.4067 33.7791 27.9529C35.2621 26.499 36.8345 25.3395 38.4962 24.4744C40.1535 23.6092 41.7928 23.0785 43.4054 22.8778H45.8265C46.6038 22.9046 47.3855 23.0384 48.1627 23.2658C51.3343 24.4476 53.3667 26.6328 54.2646 29.8304C54.5505 30.8115 54.6979 31.8907 54.6979 33.0681C54.6979 35.0571 54.2646 36.9702 53.398 38.8121C52.7905 40.2213 51.8569 41.693 50.5838 43.2182C50.3247 43.6195 49.7172 44.2706 48.7658 45.1626C45.621 47.8963 42.5075 49.8006 39.4209 50.862C37.8619 51.3793 36.4369 51.6691 35.137 51.7271C35.1639 51.7539 35.1951 51.8119 35.2219 51.901C35.2487 51.9858 35.28 52.0883 35.3068 52.2043C35.5391 52.6949 35.8384 53.1542 36.2136 53.5868C37.1919 54.6794 38.2461 55.2279 39.3717 55.2279C40.4661 55.2279 41.5337 54.9247 42.5746 54.3226C43.1821 54.006 43.7583 53.676 44.3033 53.3281C45.1967 52.7528 45.7148 52.3916 45.8622 52.2489C46.7288 51.4729 47.6222 50.8397 48.5424 50.3491L48.8462 50.1752C49.3063 50.0904 49.753 50.0458 50.1863 50.0458C50.7938 50.0458 51.446 50.1707 52.1562 50.4115C52.862 50.6568 53.2863 51.4417 53.4338 52.7662C53.2595 53.4842 52.9647 54.1621 52.5493 54.7953C52.1294 55.4286 51.6336 56.0039 51.0573 56.5212C48.3771 58.9383 45.3173 60.6553 41.8866 61.6632C40.9754 61.8683 40.0507 61.9664 39.126 61.9664ZM34.2392 46.6788C34.2973 46.6788 34.3419 46.6655 34.3687 46.6342C34.6546 46.6342 35.2755 46.4603 36.227 46.1169C38.5632 45.1403 40.9843 43.4679 43.4947 41.1043C44.5311 40.0385 45.353 39.0306 45.9605 38.0807C46.8852 36.4128 47.3587 34.8564 47.3899 33.4159C47.3899 32.5508 47.1309 31.6455 46.6127 30.6956C46.3536 30.2942 46.0499 30.0489 45.7059 29.9597H45.8801H45.0582H45.6657C45.4066 29.875 45.0448 29.8304 44.5847 29.8304C44.0933 29.8884 43.8476 29.933 43.8476 29.9597H45.0582C44.0219 29.9597 42.7934 30.4057 41.3819 31.2976C38.8446 33.0235 36.9819 35.3023 35.8026 38.1208C34.7574 40.5736 34.2392 43.4233 34.2392 46.6788Z" fill="#F98E12"/>
        <path d="M63.346 64H62.3096C61.6753 64 60.9829 62.6309 60.2325 59.8927C60.0002 58.5236 59.7858 57.1367 59.5848 55.7319C59.3838 54.3271 59.1827 52.9045 58.9773 51.4596C58.7762 50.0191 58.602 48.5608 58.4591 47.0802C58.0258 42.3619 57.7667 39.151 57.6818 37.4608C57.4228 33.135 57.2932 28.885 57.2932 24.7063C57.2932 22.472 57.32 20.5811 57.3781 19.0292V17.4639C57.463 14.7613 57.5523 12.0588 57.6372 9.35628L57.8114 6.16765C57.8114 5.44519 57.8739 4.57557 58.0079 3.54539C58.1375 2.51968 58.6065 1.68127 59.415 1.03017C60.3084 0.347846 61.318 0.00445557 62.4436 0.00445557C63.3102 0.00445557 64.0875 0.267573 64.7799 0.789349C65.4722 1.31112 65.8162 2.22089 65.8162 3.51864C65.9323 5.21329 65.9949 6.10522 66.0127 6.19441C66.0261 6.2836 66.0797 7.35837 66.1646 9.40979L66.2093 14.3823V15.5195V19.1407V29.6788C66.2093 31.7347 66.2361 33.7682 66.2942 35.7884L66.3388 38.9771L66.4237 41.8401C66.4237 43.0665 66.4505 44.2929 66.5086 45.5149L66.6828 50.7059C66.6828 51.8609 66.7989 54.3092 67.0267 58.0553L67.0714 59.7322C67.0714 60.9229 67.0446 61.6587 66.9865 61.9486C65.7983 63.3132 64.5878 64 63.346 64Z" fill="#F98E12"/>
        <path d="M81.9509 62.1403C79.6415 62.1403 77.4929 61.4223 75.5051 59.9819C74.0042 58.8313 72.8383 57.3596 71.9985 55.5758C70.2118 52.2088 69.3184 48.5073 69.3184 44.4758C69.3184 42.1167 69.6489 39.7664 70.3145 37.434C70.3726 37.3181 70.4172 37.1888 70.444 37.0461C70.6763 36.2121 70.9622 35.3915 71.3106 34.5844C73.5888 30.263 76.7335 28.1045 80.7404 28.1045C82.3842 28.1045 84.0013 28.4925 85.5871 29.2729C87.1728 30.0489 88.5576 31.1861 89.7413 32.6846C91.8765 35.3915 93.23 38.5177 93.8063 42.0587C93.9492 42.9818 94.0207 44.0477 94.0207 45.2562C94.0207 45.9475 93.976 46.6521 93.8912 47.3745C93.7169 49.2476 93.3551 50.9601 92.8101 52.5165C92.091 54.3315 91.3673 55.7988 90.6481 56.9226C89.7547 58.3051 88.6425 59.4869 87.3158 60.4635C85.5871 61.5784 83.7958 62.1403 81.9509 62.1403ZM81.7767 54.9291C81.9197 54.9291 82.2368 54.8266 82.7282 54.6259C83.2196 54.4252 83.9119 53.5154 84.8053 51.9055C85.0912 51.4462 85.3369 50.9556 85.5424 50.4383V50.3536C86.0606 49.0023 86.3911 47.8071 86.5385 46.768L86.5832 46.6387C86.6681 46.1481 86.7127 45.6754 86.7127 45.2116C86.7127 44.3197 86.6547 43.5437 86.5385 42.8792C86.3643 41.6974 85.9846 40.5112 85.3905 39.316C84.8009 38.1208 84.1844 37.1932 83.5501 36.5287C82.2815 35.4361 81.2854 34.8876 80.5662 34.8876C79.7889 34.8876 79.0876 35.5922 78.4667 37.0059C77.8458 38.4152 77.4214 39.927 77.1892 41.5414C77.0149 42.5492 76.9301 43.5705 76.9301 44.6096C76.9301 47.4325 77.6359 50.1395 79.0519 52.7305C80.1195 54.1933 81.0308 54.9291 81.7767 54.9291Z" fill="#F98E12"/>
        <path d="M144.395 29.8571C144.019 27.7121 143.488 25.8212 142.795 24.189C141.929 22.2446 140.937 20.5633 139.812 19.1541C137.761 16.5318 135.599 14.6811 133.321 13.6108C130.002 12.2283 126.545 11.537 122.94 11.537C120.487 11.537 118.107 12.0008 115.802 12.9329C115.578 13.0444 115.359 13.1693 115.14 13.2852C114.645 12.2996 114.135 11.3319 113.617 10.382C113.099 9.43209 112.648 8.63828 112.264 7.99164L111.902 7.32715C111.241 6.19887 110.575 5.07504 109.914 3.94676L109.101 2.63563C108.936 2.32792 108.704 1.97561 108.413 1.56978C108.377 1.52073 108.337 1.48059 108.302 1.44045C108.15 1.17734 107.917 0.936517 107.6 0.722456C107.252 0.423661 106.385 0.0758108 105.398 0.753673C104.406 1.43599 100.743 6.20333 101.226 9.42763C101.23 9.47223 101.405 10.5738 102.964 10.8993C103.115 10.9305 103.249 10.9439 103.37 10.9439C103.759 10.9439 104.018 10.8101 104.179 10.6808C104.63 10.3151 104.643 9.73981 104.643 9.70859C104.643 9.69075 104.79 8.13434 106.265 5.7752C106.296 5.8421 106.327 5.90453 106.363 5.97589L107.497 8.09867L107.761 8.58031L108.601 10.1189L111.044 14.5919C111.259 14.9888 111.46 15.3812 111.67 15.7781C111.62 15.8227 111.571 15.8629 111.522 15.9075C111.469 15.961 111.419 16.019 111.366 16.0725C111.326 16.1081 111.285 16.1438 111.241 16.184C111.205 16.2152 111.169 16.2553 111.138 16.291C109.347 18.1596 108.511 19.6535 107.609 20.9914L107.185 21.754C106.738 22.4943 105.702 24.5636 104.701 26.8469C103.768 28.9786 102.575 31.5384 101.534 33.7103C101.19 34.4104 100.627 35.6502 99.8411 37.4162C99.6892 37.0862 99.5597 36.8142 99.4569 36.6046C98.6395 34.8965 97.7908 33.2465 96.9063 31.6455C96.4328 30.7937 96.0218 30.0757 95.6734 29.4959L95.3429 28.8983C94.7398 27.8815 94.1323 26.8692 93.5293 25.8524L92.8548 24.7732C93.6543 24.7598 94.5165 24.7732 95.4545 24.8178C95.7002 24.8535 97.018 25.0095 97.7997 24.3094C98.0632 24.073 98.367 23.6404 98.3402 22.9135C98.3581 22.637 98.3045 21.5846 96.5623 21.1475C95.048 20.7684 86.6233 20.6525 83.4697 22.8466C83.0498 23.132 82.4646 23.9972 83.2418 25.2147C83.6483 25.8569 84.2246 26.0531 84.7293 26.0531C85.1001 26.0531 85.4351 25.9505 85.6495 25.839C85.6674 25.8301 86.7797 25.3619 89.04 25.0452C89.0802 25.1389 89.1204 25.237 89.1784 25.3396C89.4911 26.013 89.6564 26.3653 89.6698 26.4054C89.6832 26.4411 89.8887 26.8647 90.2907 27.6675L91.3271 29.5762L91.5683 30.0088L92.3366 31.3913L93.4042 33.3223C92.9218 33.4873 92.4527 33.7727 92.0328 34.0581C90.2907 35.2355 88.5441 36.4083 86.802 37.5857C85.8729 38.1164 84.6445 38.9057 83.1123 39.9627C82.1519 40.6806 81.5935 41.082 81.4327 41.1623L81.1602 41.3853C80.6599 41.742 80.1909 42.1211 79.7576 42.5136C79.5253 42.6786 79.2216 42.964 78.8508 43.3653C78.2344 44.0655 77.9619 44.6765 78.0334 45.1849C78.0646 45.4078 78.1227 45.6353 78.1986 45.8672C78.3148 46.2061 78.3907 46.4113 78.4309 46.4826C78.4711 46.554 78.6185 46.6878 78.8687 46.8751L78.9267 46.9197C79.3109 47.1516 79.7308 47.2898 80.182 47.3389C80.919 47.4191 82.0224 47.3924 83.4875 47.2586C84.3362 47.1872 84.908 47.1516 85.2162 47.1516C86.5027 47.0891 87.3425 47.0579 87.7311 47.0579C88.9372 47.1114 89.9423 47.1828 90.7419 47.272C91.8408 47.3924 93.0915 47.602 94.4897 47.9097C94.6505 47.9543 94.8158 47.9944 94.9855 48.0256L97.2815 48.5697C97.8846 48.7258 98.3893 48.7347 98.7958 48.6009C98.9924 48.534 99.1577 48.4359 99.3006 48.2977C99.4748 48.1461 99.5999 47.9766 99.6803 47.7937C99.792 47.6154 99.9304 47.3745 100.105 47.0579L100.533 46.2284C101.431 44.342 102.034 43.1201 102.347 42.5581L103.66 39.985C103.964 39.374 104.277 38.7675 104.607 38.1699L104.612 38.1654C104.849 41.5146 105.532 44.7255 106.676 47.7893C107.542 50.0726 108.592 52.0616 109.834 53.7563C112.545 57.6763 115.819 60.2316 119.657 61.4134C121.3 61.8951 122.958 62.1314 124.633 62.1314C126.826 62.1314 128.952 61.6453 131.016 60.6731C133.075 59.7009 135.206 58.0286 137.399 55.6605C137.457 55.549 137.529 55.4509 137.614 55.3662C140.151 52.2935 142.041 48.8061 143.282 44.9128C144.261 41.9516 144.797 38.9592 144.882 35.9445C144.873 33.6924 144.712 31.6588 144.395 29.8571ZM97.42 43.2717C97.2592 43.8425 97.0001 44.507 96.4194 44.6319C96.3971 44.6363 96.3703 44.6319 96.3479 44.6363C95.7047 44.4758 95.0436 44.3286 94.3601 44.1904L93.7347 44.0789C92.1802 43.7801 90.6525 43.5928 89.1427 43.508C88.2002 43.4679 87.5927 43.4545 87.3247 43.4724C86.333 43.4635 85.3458 43.508 84.3675 43.6106L84.0012 43.624C84.0995 43.5749 84.2871 43.4412 84.5596 43.2182C85.0465 42.8614 85.5513 42.5091 86.0694 42.1612C87.615 41.0731 89.3169 40.0429 91.1796 39.0752L91.4611 38.9369C92.0686 38.6292 92.5019 38.433 92.761 38.3438L93.2702 38.1297C93.5069 38.0406 93.7481 37.9469 93.9983 37.8399C94.3021 37.7105 94.6192 37.6169 94.923 37.4965C95.0614 37.5143 95.1999 37.5589 95.3339 37.6481C95.6913 37.8845 95.9057 38.2814 96.1022 38.6604C96.4641 39.3561 96.8259 40.0518 97.1922 40.7431C97.3753 41.0909 97.5585 41.4477 97.6165 41.8357C97.6835 42.3262 97.5495 42.8079 97.42 43.2717ZM136.175 38.0227C135.974 39.4632 135.586 41.0553 135.005 42.8034L134.791 43.4367C134.447 44.4802 133.853 45.778 133.017 47.3299C132.24 48.7124 131.4 49.8853 130.507 50.8441C128.573 52.9892 126.554 54.0595 124.45 54.0595C121.421 54.0595 118.625 51.959 116.056 47.7536C115.163 46.2017 114.47 44.5516 113.979 42.8034C113.372 40.3506 113.072 37.9514 113.072 35.6101C113.072 34.0314 113.175 32.5909 113.376 31.2931C113.577 30.2764 113.809 29.264 114.068 28.2472C114.528 26.6105 115.105 25.2013 115.797 24.015C115.837 23.9571 115.873 23.9036 115.913 23.85L116.427 24.8847C116.874 25.7543 117.311 26.6373 117.74 27.5337L119.938 32.136L120.693 33.7192L120.93 34.2142L121.984 36.3771C122.448 37.2557 122.694 37.715 122.721 37.7507C122.748 37.7864 122.962 38.161 123.364 38.879C123.637 39.4453 123.972 39.7709 124.383 39.8512C124.789 39.9314 125.182 39.8824 125.553 39.6995C126.04 39.4632 126.402 39.1019 126.643 38.6114C126.857 38.1565 126.884 37.6927 126.723 37.2155C126.567 36.7383 126.411 36.3459 126.259 36.0293L125.669 34.6022C125.142 33.4025 124.615 32.2029 124.088 31.0077L123.762 30.3254C123.462 29.6342 123.083 28.8047 122.614 27.828C121.778 26.0843 120.876 24.3317 119.916 22.5791C119.929 22.588 119.942 22.5969 119.951 22.6014C119.746 22.1331 119.362 21.3794 118.92 20.541C120.251 19.5287 121.644 19.0203 123.11 19.0203C125.419 19.0203 127.608 19.6 129.685 20.7551C131.762 22.0796 133.419 24.0819 134.661 26.7622L134.835 27.1412C135.412 28.439 135.787 29.71 135.961 30.9498C136.22 32.1895 136.35 33.5051 136.35 34.8831C136.35 35.9624 136.292 37.0059 136.175 38.0227Z" fill="#013507"/>
    </g>
    <defs>
        <clipPath id="clip0">
            <rect width="144.873" height="64" fill="white"/>
        </clipPath>
    </defs>
</svg>
