<svg width="588" height="264" fill="none" xmlns="http://www.w3.org/2000/svg"><path d="M172.8 111.28c4.26-.08 7.72-3.34 11.7-4.87.31-.11.6-.22.91-.32 4.99-1.56 10.68-.43 15.06 2.47 4.67 3.08 7.97 7.92 9.93 13.16 3.34 8.94 2.96 18.75 3.17 28.29.2 9.53 1.19 19.58 6.69 27.39 1.89 2.68 4.47 4.95 7.38 6.58.58.32 1.16.6 1.75.87-.62 3.78-1.02 7.63-.71 11.31h95.61c4.39-14.57 1.71-32.08-1.32-47.72l-14.1-72.96c1.18-1.16 2.27-2.41 3.24-3.75 1.69-2.34 3.01-4.96 3.88-7.72 2.39-7.66 5.55-21.39 1.22-28.15-1.27-1.98-3.43-3.71-6.03-5.23.99-2.84 2.26-11.84 1.89-11.75.44-.96-1.09-3.54-1.89-4.16 0-.02 0-.02-.03-.02-1.08-1.2-2.73-1.99-5.12-2.16-4.7-.35-9.59 3.97-13.53 10.95-.43-.12-.86-.25-1.26-.36-7.54-2.2-12.69-2.72-20.45-1.46-1.34.22-2.81.6-4.33 1.09-3.87-6.55-8.58-10.57-13.12-10.23-2.39.17-4.04.96-5.12 2.16-.03.01-.03.01-.03.02-.57.43-1.49 1.86-1.84 3 .01.25.01 1.24.01 1.23-.64 4.57 1.3 10.35 2.32 13.02.02 0 .03-.01.05-.01-4.02 3.66-7.27 9.48-8.81 14.27-2.16 6.72 1.68 14.19 4.76 20.54 1.54 3.19 3.5 6.12 5.66 8.92-.13.48-.28.96-.38 1.47-1.64 7.44-3.17 14.93-4.66 22.43-3.3-18.52-9.88-36.5-19.32-52.77-5.06-8.7-12.1-17.7-22.09-18.96-11.32-1.45-21.21 7.63-27.44 17.15-9.25 14.12-14.47 30.84-14.92 47.7-.12 4.07.09 8.27 1.82 11.94 1.75 3.68 5.38 6.71 9.45 6.64z" stroke="#FFF2EA" stroke-width="23.021" stroke-miterlimit="10"/><path d="M254.75 164.67c-.73 7.52-2.92 15.75-9.29 19.8-5.29 3.35-12.02 2.61-17.56-.5-2.91-1.63-5.49-3.9-7.38-6.58-5.5-7.81-6.49-17.84-6.69-27.39-.21-9.54.16-19.35-3.18-28.29-1.96-5.24-5.26-10.08-9.93-13.16-4.38-2.9-10.07-4.03-15.06-2.47-.31.1-.6.19-.91.32-3.98 1.53-7.44 4.79-11.7 4.87-4.07.07-7.69-2.97-9.44-6.64-1.74-3.67-1.94-7.88-1.82-11.94.46-16.85 5.67-33.56 14.91-47.69 6.22-9.53 16.12-18.61 27.41-17.16 9.99 1.28 17.04 10.26 22.1 18.96 10.74 18.54 17.79 39.28 20.49 60.54 2.47 19.46 10 37.25 8.05 57.33z" fill="#F98E12"/><path d="M231.79 124.61c.12 4.08-1.81 7.88-3.38 11.64-6.22 15.06-6.45 32.47-.78 47.73-2.91-1.63-5.49-3.9-7.38-6.58-5.5-7.81-6.49-17.84-6.69-27.39-.21-9.54.16-19.35-3.17-28.29-1.96-5.24-5.26-10.08-9.93-13.16-4.38-2.9-10.07-4.03-15.06-2.47l-.03-.1c-.94-2.89.03-6.05 2.46-7.86 3.35-2.48 6.09-5.77 7.97-9.5 2.35-4.65 8.57-5.67 12.05-1.79 2.9 3.22 5.45 6.84 7.93 10.4 3.51 5.02 7.02 10.05 10.52 15.07 2.64 3.74 5.35 7.76 5.49 12.3z" fill="#D86C00"/><path d="M324.53 196.15c4.38-14.58 1.71-32.09-1.32-47.73-5.14-26.59-10.28-53.19-15.42-79.79-1.77-9.2-28.71-9.73-34.46-8.89-11.06 1.59-20.43 4.98-23.15 17.39-7.52 34.22-13.2 69.07-19.79 103.53-.97 5.06-1.89 10.43-1.46 15.49h95.6zM269.97 29.44c-.77-.02-1.55-.01-2.28.03-1.01.06-2.01.1-3.03.19-1.53-5.72-4.86-10.79-4.86-10.79-6.29-8.16-12.99-.98-12.99-.98-.1.35-.17.7-.22 1.05 0 .02-.01.02-.03.04-.6-.87 1.03-3.63 1.86-4.27 0-.02 0-.02.03-.02 1.08-1.2 2.73-2 5.12-2.16 5.93-.45 12.17 6.53 16.4 16.91z" fill="#F98E12"/><path d="M264.66 29.66c-5.3.36-10.61 1.03-15.75 2.29-1.03-2.67-2.96-8.45-2.32-13.02.05-.35.12-.7.22-1.05 0 0 6.7-7.18 12.99.98 0 .01 3.34 5.09 4.86 10.8z" fill="#013507"/><path d="M289.86 29.44c.77-.02 1.54-.01 2.28.03 1.01.06 2.01.1 3.03.19 1.52-5.72 4.86-10.79 4.86-10.79 6.29-8.16 12.99-.98 12.99-.98.1.35.17.7.22 1.05 0 .02.01.02.03.04.59-.87-1.03-3.63-1.86-4.27 0-.02 0-.02-.03-.02-1.08-1.2-2.73-2-5.12-2.16-5.93-.45-12.17 6.53-16.4 16.91z" fill="#F98E12"/><path d="M295.17 29.66c5.3.36 10.61 1.03 15.75 2.29 1.03-2.67 2.95-8.45 2.32-13.02-.05-.35-.12-.7-.22-1.05 0 0-6.7-7.18-12.99.98.01.01-3.33 5.09-4.86 10.8z" fill="#013507"/><path d="M316.23 64c-.86 2.76-2.19 5.38-3.88 7.72-2.98 4.17-7.12 7.54-11.86 9.52l-43.08 2.5c-2.21-2.45-4.43-4.93-6.46-7.54-2.32-2.96-4.41-6.07-6.05-9.45-3.09-6.35-6.92-13.81-4.76-20.54 1.85-5.77 6.17-13.02 11.33-16.21 5.14-3.19 13.55-7.38 19.54-8.35 7.76-1.26 12.92-.74 20.45 1.46 7.54 2.2 21.74 6.13 25.98 12.75 4.34 6.75 1.18 20.49-1.21 28.14z" fill="#F98E12"/><path d="M270.38 52.8s7.25.18 4.71-8.55c-2.54-8.71-13.42-9.81-17.58-8.55-3.58 1.09-1.95 10.6-1.42 13.28.11.5.38.95.79 1.26 1.44 1.08 5.46 3.25 13.5 2.56z" fill="#FFF2EA"/><path d="M268.55 50.9s5.67.14 3.68-6.69c-1.98-6.83-10.5-7.67-13.75-6.69-2.54.78-1.73 7-1.24 9.71.17.92.74 1.73 1.55 2.18 1.56.88 4.6 1.94 9.76 1.49z" fill="#013507"/><path d="M268.89 45.44c1.55 0 2.8-1.26 2.8-2.81a2.81 2.81 0 00-2.8-2.81 2.81 2.81 0 000 5.62zM303.94 50.24c.4-.31.68-.75.79-1.26.53-2.68 2.16-12.18-1.42-13.28-4.15-1.27-15.04-.17-17.58 8.55-2.54 8.73 4.71 8.55 4.71 8.55 8.04.69 12.05-1.48 13.5-2.56z" fill="#FFF2EA"/><path d="M302.02 49.41c.82-.45 1.38-1.26 1.55-2.18.49-2.71 1.3-8.92-1.24-9.71-3.25-.99-11.77-.14-13.76 6.69-1.98 6.83 3.68 6.69 3.68 6.69 5.18.45 8.22-.61 9.77-1.49z" fill="#013507"/><path d="M293.02 43.23a2.81 2.81 0 00-2.8-2.81 2.81 2.81 0 000 5.62c1.56 0 2.8-1.26 2.8-2.81zM312.35 71.72c-2.98 4.17-7.12 7.54-11.85 9.52l-43.08 2.5c-2.21-2.45-4.43-4.93-6.46-7.54 1.37-2.64 3.02-5.12 5.05-7.28 2.39-2.53 5.38-4.58 8.7-5.69 2.29-.75 4.06-.51 6.37-.17 3.18.46 6.5.05 9.71.18 6.95.29 13.85 1.37 20.54 3.26 3.91 1.12 7.97 2.67 11.02 5.22z" fill="#FFF2EA"/><path d="M290.2 63.64c-.01-.73-.38-1.41-.73-2.05-.56-1-1.17-2.03-2.13-2.66-1.16-.77-2.64-.8-4.05-.8h-7.5c-1.4 0-2.89.03-4.05.8-.96.62-1.55 1.66-2.11 2.66-.35.65-.72 1.32-.73 2.05 0 0-.9 4.48 9.46 10.23 0 0 .73.1 1.18-.01.45.11 1.18.01 1.18.01 10.38-5.74 9.48-10.23 9.48-10.23zm-9.16 8.21c-.73.46-1.21.83-1.49 1.11-.28-.28-.76-.65-1.49-1.11-3.96-2.54-6.13-7.01-6.01-8.91.23-.51.49-.97.82-1.24.59-.49 1.25-.89 1.94-1.18.27.17.58.29.9.31.85.07 1.66-.33 2.48-.61.44-.14.89-.25 1.35-.34.47.08.92.18 1.37.34.82.28 1.62.68 2.47.61.32-.01.64-.13.9-.31.71.29 1.37.69 1.96 1.18.32.27.59.73.8 1.24.13 1.9-2.03 6.37-6 8.91z" fill="#FFF2EA"/><path d="M288.78 63.35c-.13.36-.34.71-.54 1.04-1.9 3.09-4.33 5.85-7.15 8.12-.38.31-.81.62-1.3.69-.75.11-1.44-.37-2.02-.85-2.69-2.2-5.02-4.84-6.84-7.8-.15-.25-.3-.5-.43-.76s-.24-.53-.33-.81c-.08-.27-.13-.56-.11-.83 0-.05.02-.09.04-.12.03-.05.06-.1.1-.15.07-.11.13-.21.2-.32.14-.2.31-.39.49-.57.18-.18.37-.35.58-.49.2-.15.41-.29.63-.41.22-.12.45-.24.68-.34.1-.04.2-.09.31-.12 1.24-.46 2.56-.6 3.88-.7 3.45-.28 7.1-.31 10.17 1.3.82.43 1.65 1.07 1.79 1.99.07.37-.01.76-.15 1.13z" fill="#013507"/><path d="M266.48 92.87c4.84 5.1 3.08 36.76-3.02 67.31-3.56 17.84-12.49 17.52-17.05 35.98h34.28V79.08l-1.14-.16-22.13 4.81c.1.03.99.63 9.06 9.14z" fill="#FFF2EA"/><path d="M312.87 196.15c-3.56-15.42-12.19-15.63-15.48-30.73-6.97-32.08-9.24-67.14-4.12-72.55 9.14-9.62 13.48-15.31 13.48-15.31l-27.19 1.37-.48.14v117.07h33.79v.01z" fill="#FFF2EA"/><path d="M269.94 125.77c.27 8.78-.04 17.6-.91 26.26-.4 4.03-.99 8.2-2.55 11.26-1.56 3.06-4.4 4.53-6.35 2.22-2.01-2.39-2.18-7.32-2.16-11.54.07-10.05.12-20.11.19-30.15l11.78 1.95zM287.18 125.77c-.27 8.78.04 17.6.91 26.26.4 4.03.99 8.2 2.55 11.26 1.56 3.06 4.4 4.53 6.35 2.22 2-2.39 2.18-7.32 2.16-11.54-.07-10.05-.12-20.11-.19-30.15l-11.78 1.95z" fill="#D86C00" stroke="#FFF2EA" stroke-width="2.805" stroke-miterlimit="10" stroke-linejoin="round"/><path d="M185.67 106.09l-.03-.1c-.94-2.89.03-6.05 2.46-7.86 3.35-2.48 6.09-5.77 7.97-9.5 2.35-4.65 8.57-5.67 12.05-1.79 2.9 3.22 5.45 6.84 7.93 10.4 3.51 5.02 7.02 10.05 10.52 15.07 2.61 3.72 5.31 7.75 5.46 12.29.12 4.08-1.81 7.88-3.38 11.64-6.22 15.06-7.93 34.1-2.26 49.35" stroke="#FFF2EA" stroke-width="3.701" stroke-miterlimit="10"/><path d="M279.73 80.5c-1.57-.03-3.14-.41-4.51-1.17-1.11-.61-2.1-4.31-3.21-4.93-1.11-.62-2.43-1.02-3.65-.69-3.15.85-2.88 4.92-1.16 6.88 1.02 1.16 2.43 1.92 3.87 2.47 2.65 1 5.52 1.33 8.33 1.04" fill="#013507"/><path d="M236.13 26.98l-1.01-5.89 2.02-6.12 7.55.41 1.01 9.02-6.91 4.23-2.66-1.65z" fill="#FFF2E9"/><g clip-path="url(#prefix__clip0)"><path d="M24.572 224.229c57.96-9.804 93.54-33.98 151.787-41.404 6.217-.762 32.041-.476 38.162.666 6.122 1.142 15.686 3.903 21.138 6.948 18.459 10.185 31.658 22.844 46.865 37.502 13.39 12.85 26.876 28.174 45.336 30.934 13.198 1.999 26.397-3.046 38.735-8.281 13.391-5.806 26.59-11.992 39.597-18.655 9.756-5.045 19.512-10.28 30.128-13.231 8.895-2.379 18.077-3.141 27.259-3.616 30.51-1.714 61.116-1.904 91.722-.476" stroke="#2B8354" stroke-width="8.336"/></g><rect x="50.673" y="115.154" width="460.839" height="92.742" rx="46.371" fill="#FFF2EA"/><rect x="56.742" y="120.89" width="449.298" height="80.989" rx="40.495" fill="#F98E12"/><path d="M205.114 180.743c-.714 0-1.419-.406-2.113-1.216-.753-1.1-1.496-2.943-2.229-5.528a43.578 43.578 0 01-.897-4.284c-.155-1.023-.309-2.596-.463-4.718a34.061 34.061 0 01-.087-2.431v-1.448c0-.636.01-1.215.029-1.736.019-.541.048-1.071.087-1.592l.029-.29c.057-1.003.164-2.016.318-3.039.058-.27.106-.53.145-.781.038-.27.077-.512.115-.724-.501.502-1.061.753-1.678.753-.753 0-1.129-.28-1.129-.84v-.347c0-.154.077-.405.231-.753l.203-.347c.232-.463.521-.917.868-1.36l.174-.203c.81-.849 1.65-1.544 2.518-2.084.753-.463 1.332-.762 1.737-.897a12.53 12.53 0 011.765-.724c.058 0 .107-.01.145-.029 1.428-.463 2.981-.694 4.66-.694h.753c1.486.077 2.846.337 4.081.781 2.528.926 4.612 2.499 6.252 4.718 1.409 1.968 2.287 4.428 2.634 7.381.096.791.145 1.65.145 2.576 0 1.042-.068 2.103-.203 3.184a34.063 34.063 0 01-.839 3.56c-.502 1.331-.994 2.393-1.477 3.184-.463.772-1.167 1.65-2.113 2.634-.791.752-1.572 1.331-2.344 1.736l-.029.058c-.328.174-.656.328-.984.463-.656.328-1.524.57-2.605.724-.521.058-1.177.087-1.968.087-.444 0-.926-.058-1.447-.174-.869-.212-1.496-.405-1.882-.579h-.029a9.12 9.12 0 01-.868-.434l-.319-.26.145.521.261.868c.347.868.521 1.534.521 1.997 0 1.061-.434 1.766-1.303 2.113-.27.116-.54.174-.81.174zm6.396-8.047l.666-.087c.618-.154 1.09-.308 1.418-.463.328-.174.657-.357.985-.55a6.442 6.442 0 001.707-1.534 8.81 8.81 0 001.361-2.2l.029-.057c.193-.406.347-.821.463-1.245.54-1.66.81-3.541.81-5.644 0-1.968-.27-3.715-.81-5.239-.618-1.93-1.756-3.445-3.416-4.544a.203.203 0 01-.087-.087 10.128 10.128 0 00-5.644-1.679h.984c0-.019-.048-.029-.144-.029l-1.245.029c-.579.039-1.148.116-1.708.232a9.225 9.225 0 00-1.592.434l-.463.173h.145c.058.155.087.309.087.463 0 .386-.135 1.93-.405 4.632 0 .231-.01.453-.029.665a.315.315 0 00-.029.145 41.887 41.887 0 00-.203 4.11l.029 2.258c.077 2.682.261 4.901.55 6.657.193 1.312.309 1.968.347 1.968 0 .135.029.27.087.405l.087-.058c.309-.096.608-.221.897-.376h.116c.174 0 .338.029.492.087.232.097.386.183.463.261l.492.318a.359.359 0 01.145.087c.347.231.772.395 1.274.492.212.077.414.135.607.173.348.097.676.165.985.203h.549zm-.26.029l.145-.029h-.232l.087.029zm19.103-23.358c-1.003 0-1.823-.376-2.46-1.129-.174-.212-.261-.434-.261-.666 0-.347.28-.743.84-1.186l.087-.058c.231-.212.627-.502 1.186-.869l1.39-.897a3.47 3.47 0 01.694-.405c.097-.097.55-.386 1.361-.868.251-.135.482-.271.694-.406.213-.135.435-.26.666-.376l1.245-.752c.193-.058.395-.087.608-.087.81.077 1.505.434 2.084 1.071.289.328.434.675.434 1.042 0 .328-.126.665-.377 1.013a5.65 5.65 0 01-.607.347 1.822 1.822 0 00-.319.203c-.212.115-.415.231-.608.347a8.515 8.515 0 01-.578.318l-.724.464c-.405.231-.666.385-.782.463a4.566 4.566 0 01-.318.173 8.17 8.17 0 00-.318.203 7.123 7.123 0 00-.319.203 3.275 3.275 0 01-.347.202l-1.042.666-1.187.723a2.086 2.086 0 01-1.042.261zm1.997 27.121a7.884 7.884 0 01-3.357-.724c-2.374-.984-3.917-3.058-4.631-6.223a14.604 14.604 0 01-.348-3.184c0-1.871.213-3.656.637-5.354.425-1.563.965-2.914 1.621-4.053l.029-.029a16.07 16.07 0 012.489-3.212c.984-.985 2.017-1.756 3.097-2.316 1.177-.617 2.287-.974 3.329-1.071.193 0 .376-.01.55-.029h1.071a5.555 5.555 0 011.563.29 6.247 6.247 0 012.692 1.765c1.138 1.409 1.707 3.001 1.707 4.776a8.734 8.734 0 01-.897 3.85c-.656 1.543-1.698 2.962-3.126 4.254a16.46 16.46 0 01-2.952 2.229c-2.239 1.37-4.284 2.094-6.137 2.171 0 .039.01.087.029.145a.356.356 0 01.087.173c.155.328.348.637.579.927.676.733 1.418 1.099 2.229 1.099 1.061 0 2.451-.646 4.168-1.939l.087-.058c.752-.617 1.35-1.042 1.794-1.273l.203-.116a4.86 4.86 0 01.897-.087c.405 0 .84.087 1.303.261.482.154.771.675.868 1.563-.289 1.177-1.245 2.363-2.866 3.56a14.855 14.855 0 01-3.097 1.794c-1.235.541-2.441.811-3.618.811zm-3.27-10.246l.231-.029c1.254-.328 2.451-.907 3.589-1.737 1.891-1.389 3.232-2.721 4.024-3.994.617-1.12.935-2.162.955-3.126 0-.213-.077-.637-.232-1.274l-.289-.55c-.174-.27-.377-.434-.608-.492h-.434.405a1.426 1.426 0 00-.434-.087c-.232 0-.444.02-.637.058l-.145.029h.811c-.695 0-1.515.299-2.461.897-1.659 1.081-2.904 2.605-3.733 4.574-.695 1.64-1.042 3.55-1.042 5.731zm17.453 12.764c-.251 0-.569-.077-.955-.232-.618-.212-1.167-1.756-1.65-4.631a53.842 53.842 0 01-.463-4.052 41.242 41.242 0 01-.116-3.097c0-1.351.048-2.682.145-3.994.135-1.756.299-3.213.492-4.371.193-1.273.502-2.499.926-3.676.907-2.508 2.248-4.12 4.024-4.833.617-.213 1.186-.319 1.707-.319 1.37 0 2.625.637 3.763 1.91 1.081 1.216 1.978 3.165 2.692 5.847l.029.087c.308-.849.733-1.727 1.273-2.634 1.004-1.601 2.248-2.798 3.734-3.589.811-.386 1.592-.579 2.345-.579.559 0 1.109.116 1.649.347.811.406 1.438.965 1.882 1.679a7.56 7.56 0 01.955 2.374c.135.54.251 1.437.347 2.691l.029 1.506v1.62c0 .541-.029 1.708-.087 3.503-.019.135-.028.28-.028.434l-.145 3.242-.029 1.447c0 1.891-.106 3.213-.319 3.965-.405 1.177-1.032 1.766-1.881 1.766-.81 0-1.409-.579-1.794-1.737a7.753 7.753 0 01-.261-1.765l-.029-2.2.029-1.563c0-.714.019-1.341.058-1.882l.058-1.852c.058-.579.087-1.698.087-3.358-.02-3.396-.348-5.094-.984-5.094-.386 0-.898.743-1.535 2.229-.347.675-.646 1.36-.897 2.055l-.145.405a68.934 68.934 0 00-.839 3.097c-.096.367-.27 1.235-.521 2.605-.135.676-.26 1.361-.376 2.055-.058.425-.126.84-.203 1.245-.038.154-.096.502-.173 1.042a3.667 3.667 0 01-.203.752 1.39 1.39 0 01-.811.956l-1.678.26c-.676-.058-1.148-.666-1.419-1.823a61.98 61.98 0 00-2.315-10.594l-.116-.434a40.232 40.232 0 00-.839-2.692c-.444-.888-.83-1.331-1.158-1.331-.482 0-.888.984-1.216 2.952-.405 2.007-.646 4.264-.723 6.773l-.029.579c0 .54.009 1.071.029 1.592.077 2.528.154 4.004.231 4.428.155 1.718.299 3.078.434 4.081l.145.811c-.038.212-.27.511-.695.897-.405.367-.906.666-1.505.897a2.438 2.438 0 01-.926.203zm40.262 2.373c-.155 0-.299-.009-.434-.029-.136-.019-.348-.173-.637-.463l-.29-.434c-.366-.502-.723-1.312-1.071-2.431a1.565 1.565 0 00-.086-.319c-.386-1.466-.685-3.087-.898-4.862a8.315 8.315 0 01-.058-.955l-.086.115c-1.12 1.602-2.345 2.779-3.676 3.532h-.029a6.275 6.275 0 01-3.184.868c-1.698 0-3.126-.637-4.284-1.91-1.428-1.505-2.142-3.753-2.142-6.744.155-2.972 1.013-5.702 2.576-8.192.811-1.312 1.679-2.363 2.605-3.155 0-.096.483-.463 1.447-1.099 1.351-.811 2.885-1.226 4.603-1.245 1.235 0 2.286.289 3.155.868.192.097.434.29.723.579 0 .019.01.029.029.029.463.502.695 1.004.695 1.505 0 .251-.02.415-.058.492a1.589 1.589 0 01-.174.261c-.347.405-1.283.608-2.807.608h-.377c-.984 0-1.881.135-2.692.405-1.061.598-2.016 1.544-2.865 2.836-1.216 2.026-1.862 4.11-1.939 6.252 0 .888.135 1.698.405 2.432.289.829.733 1.244 1.331 1.244.541 0 1.351-.492 2.432-1.476 0-.019.009-.029.029-.029.482-.444 1.196-1.254 2.142-2.431l.636-.782c.174-.27.357-.521.55-.752a6.21 6.21 0 00.521-.724l.377-.579c0-.308.038-.656.115-1.042.077-.559.184-1.08.319-1.563l.26-.492c.193-.366.637-.55 1.332-.55.193 0 .443.02.752.058.695.116 1.042.357 1.042.724l-.029.173c0 .02.01.039.029.058.039.02.097.068.174.145.077.135.116.357.116.666l-.029.81-.029 2.924c0 1.447.038 2.595.116 3.444 0 .347.057 1.119.173 2.316.155 1.157.27 1.881.348 2.17.212 1.313.472 2.49.781 3.532l.087.289c.135.328.212.656.231.984 0 .733-.289 1.264-.868 1.592a2.849 2.849 0 01-1.389.347zm-4.371-19.566c-.019-.019-.048-.029-.087-.029h-.058c-.019 0-.029-.01-.029-.029l.087-.087c.02 0 .029.01.029.029.02 0 .029.02.029.058.019.019.029.039.029.058zm12.736 13.604c-.213 0-.56-.058-1.042-.174-.791-.231-1.428-1.428-1.911-3.589l-.463-2.2-.434-2.228a107.66 107.66 0 01-.521-2.953 67.817 67.817 0 01-.579-3.965 80.558 80.558 0 00-.202-2.229c-.174-2.084-.29-3.907-.348-5.47v-1.245c.077-.617.386-1.071.926-1.36.541-.309 1.158-.463 1.853-.463.714 0 1.331.154 1.852.463.541.289.84.723.898 1.302 0 .212.009.405.029.579.019.174.028.357.028.55l.058.579.087.839.116 1.534.087-.115c.868-1.12 1.708-1.891 2.518-2.316.579-.309 1.254-.463 2.026-.463a6.12 6.12 0 013.155.868c.946.695 1.611 1.303 1.997 1.824.386.501.762 1.206 1.129 2.113l.492 1.505.376 1.679c.097.521.145 1.09.145 1.707 0 .425-.077.83-.232 1.216a.957.957 0 01-.549.666 3.164 3.164 0 00-.579.347l-.406.318-1.476.174a2.086 2.086 0 00-.434-.26l-.752-.232a1.006 1.006 0 01-.29-.087c-.058-.038-.174-.173-.347-.405-.425-.618-.714-1.505-.869-2.663a12.506 12.506 0 00-.289-1.708l-.116-.492c-.289-1.235-.762-1.852-1.418-1.852-.656 0-1.399.598-2.229 1.794-.405.637-.646 1.11-.723 1.419-.271.521-.435.897-.492 1.129l-.058.086c.038.155.058.299.058.435l.434 3.415.144 1.013.145 1.216.145.984c0 .058.01.106.029.145.289 2.026.434 3.415.434 4.167-.096.927-.453 1.592-1.071 1.998-.424.27-.868.405-1.331.405zm18.35 0c-.212 0-.559-.058-1.042-.174-.791-.231-1.428-1.428-1.91-3.589l-.463-2.2-.434-2.228c-.116-.579-.29-1.563-.521-2.953a66.978 66.978 0 01-.579-3.965 80.533 80.533 0 00-.203-2.229 121.818 121.818 0 01-.347-5.47v-1.245c.077-.617.386-1.071.926-1.36.54-.309 1.158-.463 1.853-.463.714 0 1.331.154 1.852.463.54.289.839.723.897 1.302 0 .212.01.405.029.579.02.174.029.357.029.55l.058.579.087.839.116 1.534.087-.115c.868-1.12 1.707-1.891 2.518-2.316.579-.309 1.254-.463 2.026-.463a6.12 6.12 0 013.155.868c.945.695 1.611 1.303 1.997 1.824.386.501.762 1.206 1.129 2.113l.492 1.505.376 1.679c.097.521.145 1.09.145 1.707 0 .425-.077.83-.232 1.216a.956.956 0 01-.55.666c-.27.135-.463.251-.579.347l-.405.318-1.476.174a2.086 2.086 0 00-.434-.26l-.753-.232a1.008 1.008 0 01-.289-.087c-.058-.038-.174-.173-.347-.405-.425-.618-.714-1.505-.869-2.663a12.662 12.662 0 00-.289-1.708l-.116-.492c-.289-1.235-.762-1.852-1.418-1.852-.656 0-1.399.598-2.229 1.794-.405.637-.646 1.11-.724 1.419-.27.521-.434.897-.492 1.129l-.058.086c.039.155.058.299.058.435l.434 3.415.145 1.013.145 1.216.145.984c0 .058.009.106.029.145.289 2.026.434 3.415.434 4.167-.097.927-.454 1.592-1.071 1.998-.425.27-.869.405-1.332.405zm21.188.434c-1.12 0-2.239-.241-3.358-.724a7.507 7.507 0 01-3.039-2.46c-1.293-1.872-1.939-4.264-1.939-7.178 0-1.756.212-3.473.636-5.152.425-1.563.965-2.924 1.621-4.081a15.099 15.099 0 012.49-3.184c1.003-.984 2.055-1.766 3.154-2.345 1.12-.579 2.22-.936 3.3-1.071h1.621c.521.02 1.042.107 1.563.261 2.123.791 3.483 2.258 4.081 4.399.193.657.29 1.38.29 2.171 0 1.332-.29 2.615-.869 3.85-.405.945-1.032 1.929-1.881 2.952-.174.27-.579.705-1.216 1.303-2.103 1.833-4.187 3.106-6.252 3.82-1.042.348-1.997.541-2.865.579.019.02.038.058.058.116.019.058.038.125.058.203.154.328.357.636.607.926.656.733 1.361 1.1 2.113 1.1.734 0 1.448-.203 2.142-.608.405-.212.791-.434 1.158-.666.598-.386.945-.627 1.042-.723a9.002 9.002 0 011.795-1.274l.202-.116a4.86 4.86 0 01.897-.087c.406 0 .84.087 1.303.261.482.154.772.675.868 1.563a4.087 4.087 0 01-.608 1.36c-.27.425-.598.811-.984 1.158a15.616 15.616 0 01-6.136 3.444 8.584 8.584 0 01-1.852.203zm-3.271-10.246c.039 0 .067-.01.087-.029.193 0 .608-.116 1.244-.348 1.563-.656 3.184-1.775 4.863-3.357.695-.714 1.245-1.389 1.65-2.026.617-1.119.936-2.161.955-3.126 0-.579-.174-1.187-.521-1.824-.174-.27-.376-.434-.608-.492h.116-.55.405c-.173-.058-.415-.087-.723-.087-.328.039-.492.068-.492.087h.81c-.695 0-1.515.299-2.46.898a10.176 10.176 0 00-3.734 4.573c-.695 1.64-1.042 3.55-1.042 5.731zm19.769 9.812c-.212 0-.56-.058-1.042-.174-.791-.231-1.428-1.428-1.91-3.589l-.464-2.2-.434-2.228c-.115-.579-.289-1.563-.521-2.953a68.678 68.678 0 01-.579-3.965 76.865 76.865 0 00-.202-2.229c-.174-2.084-.29-3.907-.347-5.47v-1.245c.077-.617.385-1.071.926-1.36.54-.309 1.157-.463 1.852-.463.714 0 1.332.154 1.853.463.54.289.839.723.897 1.302 0 .212.01.405.029.579.019.174.029.357.029.55l.058.579.086.839.116 1.534.087-.115c.868-1.12 1.708-1.891 2.518-2.316.579-.309 1.255-.463 2.026-.463 1.12 0 2.171.289 3.155.868.946.695 1.612 1.303 1.997 1.824.386.501.763 1.206 1.129 2.113l.492 1.505.377 1.679c.096.521.144 1.09.144 1.707 0 .425-.077.83-.231 1.216a.958.958 0 01-.55.666c-.27.135-.463.251-.579.347l-.405.318-1.476.174a2.117 2.117 0 00-.435-.26l-.752-.232a1.016 1.016 0 01-.29-.087c-.057-.038-.173-.173-.347-.405-.424-.618-.714-1.505-.868-2.663a12.664 12.664 0 00-.29-1.708l-.115-.492c-.29-1.235-.763-1.852-1.419-1.852s-1.399.598-2.228 1.794c-.406.637-.647 1.11-.724 1.419-.27.521-.434.897-.492 1.129l-.058.086c.039.155.058.299.058.435l.434 3.415.145 1.013.144 1.216.145.984c0 .058.01.106.029.145.29 2.026.434 3.415.434 4.167-.096.927-.453 1.592-1.071 1.998-.424.27-.868.405-1.331.405z" fill="#FFF2EA"/><g clip-path="url(#prefix__clip1)"><path d="M535.293 146.363l.001-.001c4.689-6.308 12.582-10.233 20.521-10.174h.001c8.419.058 16.756 4.599 21.902 11.496 5.143 6.894 7.26 16.013 6.182 24.765v.002c-1.932 15.737-13.072 28.851-24.739 41.878l-.004.004c-2.009 2.252-3.288 2.25-4.064 2.078-1.232-.274-2.913-1.411-4.946-3.805-2.995-3.525-5.549-8.222-7.765-12.296-.804-1.478-1.563-2.875-2.283-4.103-4.75-8.109-8.637-16.495-9.954-25.276-1.317-8.775.186-17.898 5.148-24.568z" fill="#F98E12" stroke="#FFF2EA" stroke-width="7.649"/><path d="M544.389 175.787c-1.186-4.018-.61-8.577 1.627-12.156.576-.912 1.254-1.79 2.169-2.364.881-.574 1.897-.81 2.914-1.08 2.406-.54 4.913-1.047 7.353-.574 5.354 1.08 8.742 6.753 9.183 12.156.203 2.768-.203 5.706-1.796 8.002-1.084 1.553-2.609 2.735-4.202 3.748-7.59 4.795-14.808.507-17.248-7.732z" fill="#2B8354"/></g><g clip-path="url(#prefix__clip2)"><path d="M7.272 171.846h0c3.607-4.868 9.676-7.894 15.775-7.848h.002c6.468.045 12.878 3.545 16.837 8.868 3.956 5.321 5.586 12.36 4.756 19.117v.001c-1.486 12.148-10.057 22.269-19.03 32.322l-.004.003c-1.546 1.738-2.524 1.731-3.111 1.6-.943-.21-2.235-1.085-3.8-2.933-2.302-2.72-4.267-6.345-5.972-9.489a118.344 118.344 0 00-1.756-3.166c-3.654-6.259-6.645-12.731-7.658-19.509-1.013-6.774.144-13.817 3.961-18.966z" fill="#F98E12" stroke="#FFF2EA" stroke-width="5.903"/><path d="M14.258 194.558c-.912-3.101-.469-6.619 1.251-9.381.444-.704.965-1.381 1.669-1.824.677-.443 1.46-.626 2.241-.834 1.85-.417 3.78-.808 5.657-.443 4.118.834 6.725 5.212 7.063 9.381.157 2.137-.156 4.404-1.381 6.176-.834 1.199-2.007 2.111-3.232 2.892-5.839 3.701-11.391.391-13.268-5.967z" fill="#2B8354"/></g><defs><clipPath id="prefix__clip0"><path fill="#fff" transform="translate(23.902 178.256)" d="M0 0h531.59v85.093H0z"/></clipPath><clipPath id="prefix__clip1"><path fill="#fff" transform="translate(525.854 132.363)" d="M0 0h62.146v87.961H0z"/></clipPath><clipPath id="prefix__clip2"><path fill="#fff" transform="translate(0 161.046)" d="M0 0h47.805v67.883H0z"/></clipPath></defs></svg>