<svg width="588" height="288" viewBox="0 0 588 288" fill="none" xmlns="http://www.w3.org/2000/svg">
    <path
        d="M181.749 154.405C185.382 159.505 185.411 166.344 188.248 171.922C191.969 179.21 199.973 183.296 207.891 185.339C213.725 186.846 220.731 187.179 224.943 182.876C228.143 179.616 228.722 174.69 229.633 170.213C230.545 165.736 232.485 160.795 236.784 159.23C237.682 158.897 238.738 158.766 239.564 159.259C240.215 159.65 240.591 160.36 240.939 161.027C244.558 168.054 248.176 175.081 251.795 182.108C257.209 192.627 262.883 203.464 272.119 210.854C282.252 218.953 295.424 221.938 308.105 224.676C318.614 226.951 329.137 229.225 339.646 231.5C343.352 232.297 348.259 232.543 349.823 229.095C351.56 225.27 347.232 221.59 343.54 219.605C338.807 217.04 334.059 214.49 329.326 211.926C341.76 203.624 359 215.316 373.229 210.709C375.328 210.028 377.644 208.477 377.471 206.275C377.398 205.275 376.79 204.377 376.139 203.624C371.97 198.828 365.239 197.379 359 196.205C365.152 188.874 369.668 180.166 372.115 170.908C372.867 168.039 373.418 164.91 372.288 162.171C370.103 156.868 362.185 153.84 363.357 148.233C371.044 148.784 378.918 145.857 384.375 140.395C385.866 138.902 387.242 137.062 387.256 134.961C387.27 132.064 384.737 129.818 382.233 128.369C377.051 125.37 371 123.906 365.036 124.211C361.504 124.385 357.914 125.152 354.469 124.37C351.024 123.588 347.695 120.531 348.216 117.024C351.096 117.662 353.977 118.299 356.843 118.937C360.491 119.748 364.24 120.559 367.931 120.009C371.623 119.458 375.314 117.242 376.53 113.706C378.383 108.316 373.881 102.782 369.032 99.7971C364.182 96.8124 358.189 95.8271 352.53 95.2186C351.458 95.1027 350.098 94.7839 349.953 93.7118C349.881 93.1467 350.199 92.6106 350.489 92.118C352.414 88.887 353.384 85.1054 353.253 81.3528C353.224 80.527 353.152 79.6576 353.528 78.9332C354.165 77.6582 355.787 77.3394 357.191 77.0931C361.548 76.3397 365.905 74.9922 369.437 72.3263C376.877 66.7047 379.034 55.1861 374.141 47.2462C371.304 42.6243 366.411 39.4368 363.965 34.5975C361.533 29.7583 359.217 24.6292 355.106 21.094C352.168 18.5729 348.52 17.0516 344.944 15.5737C342.02 11.0677 340.732 5.11284 336.534 1.76593C333.596 -0.566768 329.05 -0.595746 326.097 1.72246C323.145 4.02618 322.059 8.44526 323.622 11.8646C320.293 15.0956 314.734 13.1976 310.797 10.7345C306.86 8.27139 302.285 5.2867 297.957 6.95291C292.862 8.92339 292.24 16.7039 295.96 20.7173C296.756 21.5866 297.726 22.369 298.073 23.4991C298.58 25.1363 297.581 26.817 296.756 28.3094C293.05 35.1046 292.37 43.4791 294.889 50.796C297.277 57.7216 302.343 63.5751 304.167 70.6601C306.729 80.6284 302.474 90.9444 298.319 100.362C297.465 102.289 296.495 104.347 294.628 105.303C292.022 106.636 288.722 105.172 286.913 102.883C285.103 100.579 284.379 97.6527 283.439 94.8854C277.851 78.3392 262.797 65.2558 245.556 62.5174C236.234 61.0395 226.695 62.4015 217.489 64.4589C213.928 65.2558 210.309 66.1831 207.269 68.1825C204.055 70.2979 201.71 73.4564 199.539 76.6295C188.856 92.2629 181.04 109.91 176.596 128.369C175.872 131.368 175.235 134.454 175.698 137.511C176.552 143.162 181.604 148.682 181.749 154.405Z"
        fill="#FFF2EA" />
    <path
        d="M347.449 98.0013C349.779 97.0016 357.668 95.1615 372.578 106.492C375.574 108.781 375.43 113.403 372.202 115.373C367.975 117.952 360.259 119.14 346.711 111.997C324.838 100.479 341.152 98.6967 345.654 98.4359C346.276 98.3925 346.884 98.2476 347.449 98.0013Z"
        fill="#D86C00" />
    <path
        d="M350.763 75.79C350.763 75.79 373.432 75.7465 374.677 59.8378C375.705 46.7255 366.455 49.6812 360.216 33.0915C356.163 22.2829 345.465 18.907 340.298 16.4584C339.27 8.22876 336.042 1.95512 331.844 1.37557C323.347 0.201974 326.416 14.1257 326.416 14.1257C326.416 14.1257 318.729 15.0095 313.678 17.1973C313.678 17.1973 303.328 3.73724 297.87 9.88048C292.167 17.0814 300.664 21.7758 302.112 25.4704C302.112 25.4704 289.822 40.0027 297.928 50.3911C302.199 55.8534 301.663 60.7506 306.266 63.6918C306.802 64.0396 307.699 64.764 307.786 66.72C308.061 72.3416 307.801 97.0305 294.324 108.824C294.324 108.824 288.765 111.911 285.103 104.941C279.863 95.0021 272.727 61.6054 228.056 65.445C195.515 68.2268 189.783 107.303 180.663 130.152C177.131 138.976 187.047 148.176 187.828 159.057C188.871 173.415 206.69 184.891 219.935 182.123C219.935 182.123 222.54 183.036 227.752 165.939C234.425 144.018 245.064 157.782 246.092 160.839C247.105 163.896 260.35 204.001 287.506 212.158C287.506 212.158 289.547 219.895 297.016 219.635C313.837 219.041 333.567 228.154 341.832 230.168C345.683 231.11 349.982 229.835 344.554 223.373C339.125 216.911 324.52 211.825 318.411 213.854C318.411 213.854 336.404 207.058 338.098 205.696C338.098 205.696 377.876 211.405 376.284 206.638C374.691 201.871 360.969 198.177 352.776 197.38C352.776 197.38 378.918 175.169 365.456 158.521L361.635 155.333C361.635 155.348 338.517 118.59 350.763 75.79Z"
        fill="#F98E12" />
    <path
        d="M373.36 63.3441C369.422 61.8083 349.012 55.2304 321.176 71.5448C320.988 71.6607 320.843 71.8345 320.771 72.0374C320.467 72.9067 319.974 75.4712 322.522 79.7019C325.721 85.0338 338.749 99.1459 338.532 118.59C338.532 118.648 338.532 118.706 338.517 118.764C338.17 120.386 332.785 146.495 334.768 165.997C336.78 185.745 334.841 187.426 318.368 212.274C317.948 212.912 318.426 213.767 319.193 213.709C323.376 213.404 339.516 208.087 345.871 197.568C355.801 181.123 365.456 175.444 361.084 151.9C360.361 148.002 358.711 145.626 358.45 144.872C356.119 138.193 340.11 111.157 350.879 83.8457C353.572 77.0215 351.256 75.9638 351.675 75.9349C355.367 75.6741 368.829 75.1669 373.939 64.3728C374.112 63.9671 373.765 63.5035 373.36 63.3441Z"
        fill="#FFF2EA" />
    <path
        d="M343.439 54.1582C343.439 54.1582 351.415 54.3611 348.621 44.7695C345.827 35.1924 333.856 33.9898 329.282 35.3807C325.344 36.5833 327.139 47.0297 327.718 49.971C327.834 50.5215 328.138 51.0142 328.587 51.3474C330.179 52.5355 334.594 54.9116 343.439 54.1582Z"
        fill="#FFF2EA" />
    <path
        d="M341.427 52.0718C341.427 52.0718 347.666 52.2312 345.48 44.726C343.294 37.2208 333.929 36.2935 330.353 37.3802C327.56 38.235 328.457 45.0738 328.993 48.044C329.181 49.0582 329.803 49.942 330.701 50.4346C332.409 51.3909 335.753 52.5645 341.427 52.0718Z"
        fill="#013507" />
    <path
        d="M283.858 210.811C283.858 210.811 249.45 181.37 265.749 157.173C275.824 142.221 276.548 135.962 279.458 131.369C280.239 130.137 278.676 128.79 277.561 129.717C273.19 133.354 266.98 139.599 260.451 149.741C260.451 149.741 258.323 152.334 256.572 146.553C254.951 141.207 218.994 87.6128 222.656 108.375C227.751 137.222 204.301 169.474 219.949 182.123C219.949 182.123 225.609 182.456 227.172 169.315C228.765 155.942 241.315 146.234 247.698 165.316C254.082 184.398 272.292 210 283.858 210.811Z"
        fill="#D86C00" />
    <path
        d="M334.942 46.7255C336.645 46.7255 338.025 45.3438 338.025 43.6394C338.025 41.935 336.645 40.5533 334.942 40.5533C333.239 40.5533 331.859 41.935 331.859 43.6394C331.859 45.3438 333.239 46.7255 334.942 46.7255Z"
        fill="#FFF2EA" />
    <path
        d="M374.604 57.0125C374.604 57.0125 364.327 55.0855 361.736 59.7654C361.736 59.7654 364.848 65.9955 370.551 69.4584C370.551 69.4584 374.836 66.5606 374.604 57.0125Z"
        fill="#013507" />
    <path
        d="M304.558 9.27195C304.558 9.27195 295.193 8.59097 305.369 22.2829C305.369 22.2829 311.246 18.3564 313.678 17.1828C313.692 17.1973 308.713 10.8222 304.558 9.27195Z"
        fill="#013507" />
    <path
        d="M326.807 3.85315C326.807 3.85315 332.047 0.20198 334.942 6.2438C334.942 6.2438 336.809 11.0396 336.578 15.3717C336.578 15.3717 331.902 13.9953 326.43 14.1112C326.43 14.1257 324.795 7.72166 326.807 3.85315Z"
        fill="#013507" />
    <path
        d="M211.293 172.416C210.178 165.838 210.685 158.985 212.726 152.638C214.391 147.451 217.054 142.627 218.632 137.425C220.644 130.775 220.832 123.574 219.153 116.837C218.4 113.823 217.271 110.824 217.373 107.723C217.459 104.623 219.211 101.261 222.222 100.551C225.421 99.7834 228.461 102.16 230.791 104.463C241.648 115.17 250.087 128.312 255.327 142.641C255.732 143.742 256.224 144.974 257.31 145.409C258.816 146.017 260.364 144.728 261.479 143.554C265.199 139.642 268.934 135.73 272.654 131.818C273.928 130.485 275.303 129.08 277.098 128.645C278.893 128.21 281.166 129.21 281.354 131.05C281.513 132.6 280.239 133.876 279.24 135.078C274.927 140.251 274.681 147.727 271.308 153.551C268.5 158.42 263.477 162.245 262.579 167.794C262.145 170.474 262.767 173.213 263.549 175.821C267.284 188.397 274.71 199.843 284.64 208.406C285.856 209.449 287.173 210.565 287.593 212.115C286.087 213.622 283.496 213.506 281.658 212.434C279.819 211.362 278.546 209.55 277.33 207.797C274.304 203.422 271.279 199.061 268.254 194.685C264.287 188.962 260.22 182.949 259.264 176.052C258.266 168.837 260.857 161.564 264.403 155.203C267.95 148.842 272.466 143.061 275.868 136.614C276.751 134.948 277.518 132.774 276.345 131.296C271.843 136.672 267.342 142.062 262.84 147.437C261.653 148.857 260.263 150.378 258.41 150.494C255.978 150.639 254.212 148.306 252.996 146.191C245.238 132.745 239.998 117.097 227.925 107.361C226.492 106.216 224.205 105.231 223.047 106.651C222.656 107.129 222.54 107.752 222.453 108.361C221.788 113.403 223.611 118.43 223.915 123.516C224.292 130.094 222.092 136.541 219.66 142.67C217.228 148.799 214.477 154.913 213.667 161.462C213.175 165.447 213.493 169.677 214.984 173.43C215.708 175.241 221.73 181.167 221.556 182.369C221.223 184.557 217.112 183.673 215.882 182.891C212.929 180.964 211.828 175.632 211.293 172.416Z"
        fill="#FFF2EA" />
    <path
        d="M336.259 114.924C335.217 112.055 334.175 109.187 333.132 106.303C332.568 104.753 332.003 103.188 331.062 101.841C330.426 100.928 329.629 100.131 328.848 99.3487C327.284 97.7984 325.736 96.2336 324.172 94.6833C323.333 93.843 322.479 92.9882 321.436 92.4376C319.54 91.4234 317.209 91.4958 315.212 92.2782C313.214 93.0461 311.521 94.466 310.059 96.0453C308.901 97.2913 307.858 98.6678 307.207 100.247C306.324 102.377 306.223 104.724 306.121 107.028C305.991 110.172 305.846 113.316 305.716 116.46C305.644 118.126 305.6 119.879 306.396 121.328C308.003 124.226 311.202 125.023 313.692 127.211C315.415 128.718 316.24 130.992 317.687 132.76C318.599 133.876 319.757 134.759 320.814 135.745C322.884 137.628 324.664 139.845 326.85 141.584C329.036 143.322 332.669 144.134 335.449 143.728C335.752 142.757 334.58 142.018 333.654 141.613C329.962 140.004 326.763 137.469 323.752 134.803C323.043 134.18 322.348 133.528 321.755 132.789C321.161 132.035 320.713 131.21 320.206 130.398C318.179 127.109 315.472 124.255 312.302 122.067C311.564 121.56 310.782 121.067 310.203 120.386C308.828 118.764 308.843 116.431 308.915 114.316C309.031 111.157 309.132 107.999 309.248 104.854C309.277 103.884 309.32 102.913 309.509 101.957C310.334 97.8564 314.705 94.6399 318.787 95.5672C321.234 96.1177 323.188 97.8999 325.012 99.624C327.328 101.797 329.687 104.014 331.12 106.854C332.322 109.23 332.8 111.882 333.552 114.432C334.305 116.982 335.42 119.561 337.518 121.183C337.938 121.502 338.416 121.792 338.937 121.879C340.037 122.038 341.166 121.053 341.152 119.937C341.123 118.097 339.617 118.503 338.546 118.112C337.258 117.576 336.708 116.17 336.259 114.924Z"
        fill="#FFF2EA" />
    <path
        d="M301.504 9.66314C300.317 10.46 299.55 11.8509 299.506 13.2708C299.448 14.6473 300.027 15.9802 300.766 17.1538C301.504 18.3129 302.43 19.3561 303.183 20.5152C303.487 20.9789 303.936 21.515 304.457 21.3411C304.819 21.2107 304.964 20.776 304.949 20.3993C304.92 19.6749 304.457 19.0229 303.95 18.5013C303.444 17.9797 302.85 17.5305 302.416 16.9365C301.851 16.1686 301.591 15.2268 301.345 14.314C301.07 13.2708 300.809 12.0538 301.446 11.17C302.054 10.3296 303.212 9.99638 304.225 10.1123C307.641 10.489 305.398 9.51825 304.138 8.92421C303.183 8.46057 302.286 9.12705 301.504 9.66314Z"
        fill="#F98E12" />
    <path
        d="M326.502 4.51962C327.791 3.44745 328.905 3.14319 330.585 3.1287C331.352 3.1287 332.133 3.33154 332.683 3.86763C333.19 4.36024 333.494 4.99775 333.798 5.63526C335.043 8.22875 336.389 10.7643 336.085 13.6331C336.042 14.0532 336.1 14.6473 336.534 14.6618C336.896 14.6618 337.041 14.1836 337.055 13.8214C337.156 12.2132 337.2 10.489 336.389 9.09808C336.172 8.72137 335.883 8.37364 335.68 7.99693C335.246 7.17107 335.173 6.18583 334.84 5.30202C334.117 3.36052 332.018 2.04204 329.962 2.23039C328.934 2.33181 329.195 1.62186 328.254 2.05653C327.632 2.36079 326.227 3.88211 326.502 4.51962Z"
        fill="#F98E12" />
    <path
        d="M359.767 60.3884C359.782 59.6639 360.143 58.9975 360.491 58.36C361.041 57.3747 361.62 56.346 362.575 55.7375C363.719 54.9841 365.181 54.9551 366.556 54.9551C368.8 54.9551 371.043 54.9551 373.287 54.9551C374.17 54.9551 375.299 55.1145 375.545 55.9838C375.777 56.7952 374.894 57.5776 374.054 57.6355C373.215 57.6935 372.404 57.2878 371.608 57.027C368.944 56.1432 365.847 56.7082 363.675 58.4904C362.821 59.1858 362.402 61.3446 361.909 61.6924C360.911 62.3444 359.724 61.8083 359.767 60.3884Z"
        fill="#FFF2EA" />
    <path
        d="M290.459 210.666C295.265 212.405 300.244 213.839 305.354 214.085C310.464 214.332 315.747 213.332 320.018 210.521C320.495 210.202 321.016 209.855 321.581 209.956C322.507 210.116 322.768 211.477 322.218 212.245C321.682 213.013 320.698 213.332 319.801 213.593C315.559 214.781 311.246 215.737 306.888 216.433C305.412 216.664 303.907 216.882 302.401 216.78C296.64 216.389 291.675 211.506 285.928 211.999C285.523 212.028 285.103 212.086 284.741 211.912C284.524 211.796 284.35 211.608 284.206 211.391C283.395 210.116 281.629 205.653 282.584 206.508C284.669 208.377 289.084 210.159 290.459 210.666Z"
        fill="#FFF2EA" />
    <path
        d="M349.649 197.235C351.907 196.351 354.252 195.569 356.221 194.149C358.435 192.526 360.1 190.121 362.619 189.049C362.836 188.962 363.068 188.875 363.314 188.904C363.791 188.976 364.081 189.541 364.008 190.02C363.936 190.498 363.618 190.903 363.299 191.28C361.316 193.569 358.812 195.409 356.018 196.612C353.557 197.67 350.879 198.22 348.505 199.466C346.117 200.712 344.134 202.596 341.919 204.117C340.124 205.349 337.446 206.87 335.145 206.508C332.307 206.044 334.102 203.653 335.984 203.219C336.867 203.016 337.576 203.248 338.503 202.871C339.719 202.378 340.862 201.437 342.02 200.814C344.481 199.452 347.029 198.264 349.649 197.235Z"
        fill="#FFF2EA" />
    <path
        d="M303.023 24.4852C303.935 23.6159 304.891 22.79 305.933 22.08C308.466 20.3704 311.433 19.4576 314.343 18.5448C318.338 17.3132 322.362 16.0672 326.517 15.5601C330.975 15.0095 335.535 15.2993 339.878 16.4149C340.992 16.7047 342.15 17.0379 343.265 16.7771C342.657 14.9516 340.428 14.343 338.531 14.0533C333.726 13.2998 328.847 12.7927 323.998 13.1984C314.068 14.0243 304.529 18.849 297.986 26.3687C296.929 27.5713 296.061 29.6142 298.29 29.0347C300.056 28.5565 301.764 25.6877 303.023 24.4852Z"
        fill="#FFF2EA" />
    <g clip-path="url(#clip0)">
        <path
            d="M24.572 248.229C82.5323 238.425 118.112 214.249 176.359 206.825C182.576 206.063 208.4 206.349 214.521 207.491C220.643 208.633 230.207 211.394 235.659 214.439C254.118 224.624 267.317 237.283 282.524 251.941C295.914 264.791 309.4 280.115 327.86 282.875C341.058 284.874 354.257 279.829 366.595 274.594C379.986 268.788 393.185 262.602 406.192 255.939C415.948 250.894 425.704 245.659 436.32 242.708C445.215 240.329 454.397 239.567 463.579 239.092C494.089 237.378 524.695 237.188 555.301 238.616"
            stroke="#2B8354" stroke-width="8.33602" />
    </g>
    <rect x="50.6732" y="139.154" width="460.839" height="92.7415" rx="46.3707" fill="#FFF2EA" />
    <rect x="56.7423" y="144.89" width="449.298" height="80.9893" rx="40.4946" fill="#F98E12" />
    <path
        d="M106.356 204.743C105.642 204.743 104.937 204.337 104.243 203.527C103.49 202.427 102.747 200.584 102.014 197.999C101.628 196.513 101.329 195.085 101.117 193.715C100.962 192.692 100.808 191.119 100.654 188.997C100.596 188.186 100.567 187.376 100.567 186.566V185.118C100.567 184.482 100.576 183.903 100.596 183.382C100.615 182.841 100.644 182.311 100.682 181.79L100.711 181.5C100.769 180.497 100.875 179.484 101.03 178.461C101.088 178.191 101.136 177.931 101.175 177.68C101.213 177.41 101.252 177.168 101.29 176.956C100.789 177.458 100.229 177.709 99.6115 177.709C98.859 177.709 98.4827 177.429 98.4827 176.869V176.522C98.4827 176.368 98.5599 176.117 98.7143 175.769L98.9169 175.422C99.1484 174.959 99.4379 174.505 99.7852 174.062L99.9589 173.859C100.769 173.01 101.609 172.315 102.477 171.775C103.23 171.312 103.808 171.013 104.214 170.878C104.793 170.588 105.381 170.347 105.979 170.154C106.037 170.154 106.085 170.144 106.124 170.125C107.552 169.662 109.105 169.431 110.784 169.431H111.537C113.022 169.508 114.383 169.768 115.618 170.212C118.146 171.138 120.23 172.711 121.87 174.93C123.278 176.898 124.156 179.358 124.504 182.311C124.6 183.102 124.648 183.961 124.648 184.887C124.648 185.929 124.581 186.99 124.446 188.071C124.195 189.421 123.915 190.608 123.606 191.631C123.105 192.962 122.613 194.024 122.13 194.815C121.667 195.587 120.963 196.465 120.017 197.449C119.226 198.201 118.445 198.78 117.673 199.185L117.644 199.243C117.316 199.417 116.988 199.571 116.66 199.706C116.004 200.034 115.135 200.276 114.055 200.43C113.534 200.488 112.878 200.517 112.087 200.517C111.643 200.517 111.16 200.459 110.639 200.343C109.771 200.131 109.144 199.938 108.758 199.764H108.729C108.42 199.629 108.131 199.484 107.861 199.33L107.542 199.07L107.687 199.591L107.948 200.459C108.295 201.327 108.469 201.993 108.469 202.456C108.469 203.517 108.034 204.222 107.166 204.569C106.896 204.685 106.626 204.743 106.356 204.743ZM112.752 196.696L113.418 196.609C114.035 196.455 114.508 196.301 114.836 196.146C115.164 195.972 115.492 195.789 115.82 195.596C116.476 195.191 117.046 194.68 117.528 194.062C118.107 193.368 118.56 192.634 118.888 191.862L118.917 191.805C119.11 191.399 119.265 190.984 119.381 190.56C119.921 188.9 120.191 187.019 120.191 184.916C120.191 182.948 119.921 181.201 119.381 179.677C118.763 177.747 117.625 176.232 115.965 175.133C115.927 175.113 115.898 175.084 115.878 175.046C114.161 173.927 112.28 173.367 110.234 173.367H111.218C111.218 173.348 111.17 173.338 111.074 173.338L109.829 173.367C109.25 173.406 108.681 173.483 108.121 173.599C107.581 173.695 107.05 173.84 106.529 174.033L106.066 174.206H106.211C106.269 174.361 106.298 174.515 106.298 174.669C106.298 175.055 106.163 176.599 105.892 179.301C105.892 179.532 105.883 179.754 105.864 179.966C105.844 180.005 105.835 180.053 105.835 180.111C105.7 181.481 105.632 182.851 105.632 184.221L105.661 186.479C105.738 189.161 105.921 191.38 106.211 193.136C106.404 194.448 106.52 195.104 106.558 195.104C106.558 195.239 106.587 195.374 106.645 195.509L106.732 195.451C107.041 195.355 107.34 195.23 107.629 195.075H107.745C107.919 195.075 108.083 195.104 108.237 195.162C108.469 195.259 108.623 195.345 108.7 195.423L109.192 195.741C109.25 195.76 109.298 195.789 109.337 195.828C109.684 196.059 110.109 196.223 110.61 196.32C110.823 196.397 111.025 196.455 111.218 196.493C111.566 196.59 111.894 196.658 112.202 196.696H112.752ZM112.492 196.725L112.637 196.696H112.405L112.492 196.725ZM131.595 173.367C130.592 173.367 129.772 172.991 129.135 172.238C128.961 172.026 128.874 171.804 128.874 171.572C128.874 171.225 129.154 170.829 129.714 170.386L129.801 170.328C130.032 170.116 130.428 169.826 130.987 169.459L132.377 168.562C132.647 168.369 132.878 168.234 133.071 168.157C133.168 168.06 133.621 167.771 134.432 167.289C134.682 167.154 134.914 167.018 135.126 166.883C135.339 166.748 135.56 166.623 135.792 166.507L137.037 165.755C137.23 165.697 137.432 165.668 137.644 165.668C138.455 165.745 139.15 166.102 139.728 166.739C140.018 167.067 140.163 167.414 140.163 167.781C140.163 168.109 140.037 168.446 139.786 168.794C139.613 168.91 139.41 169.025 139.178 169.141C139.063 169.199 138.957 169.267 138.86 169.344C138.648 169.459 138.445 169.575 138.252 169.691C138.059 169.807 137.866 169.913 137.673 170.009L136.95 170.473C136.545 170.704 136.284 170.858 136.168 170.936C136.072 170.994 135.966 171.051 135.85 171.109C135.753 171.167 135.647 171.235 135.531 171.312C135.435 171.37 135.329 171.437 135.213 171.515C135.097 171.592 134.982 171.659 134.866 171.717L133.824 172.383L132.637 173.106C132.328 173.28 131.981 173.367 131.595 173.367ZM133.592 200.488C132.396 200.488 131.277 200.247 130.235 199.764C127.861 198.78 126.318 196.706 125.604 193.541C125.372 192.499 125.256 191.438 125.256 190.357C125.256 188.486 125.469 186.701 125.893 185.003C126.318 183.44 126.858 182.089 127.514 180.95L127.543 180.921C128.238 179.744 129.067 178.673 130.032 177.709C131.016 176.724 132.049 175.953 133.129 175.393C134.306 174.776 135.416 174.419 136.458 174.322C136.651 174.322 136.834 174.312 137.008 174.293H138.079C138.6 174.312 139.121 174.409 139.642 174.583C140.684 174.93 141.581 175.518 142.333 176.348C143.472 177.757 144.041 179.349 144.041 181.124C144.041 182.455 143.742 183.739 143.144 184.974C142.488 186.517 141.446 187.936 140.018 189.228C139.072 190.116 138.088 190.859 137.066 191.457C134.827 192.827 132.782 193.551 130.929 193.628C130.929 193.667 130.939 193.715 130.958 193.773C130.997 193.811 131.026 193.869 131.045 193.946C131.199 194.274 131.392 194.583 131.624 194.873C132.299 195.606 133.042 195.972 133.853 195.972C134.914 195.972 136.303 195.326 138.021 194.033L138.108 193.975C138.86 193.358 139.458 192.933 139.902 192.702L140.105 192.586C140.413 192.528 140.713 192.499 141.002 192.499C141.407 192.499 141.841 192.586 142.304 192.76C142.787 192.914 143.076 193.435 143.173 194.323C142.883 195.5 141.928 196.686 140.307 197.883C139.362 198.597 138.329 199.195 137.21 199.677C135.975 200.218 134.769 200.488 133.592 200.488ZM130.322 190.242L130.553 190.213C131.807 189.885 133.004 189.306 134.142 188.476C136.033 187.087 137.374 185.755 138.165 184.482C138.783 183.362 139.101 182.32 139.121 181.356C139.121 181.143 139.043 180.719 138.889 180.082L138.6 179.532C138.426 179.262 138.223 179.098 137.992 179.04H137.558H137.963C137.789 178.982 137.644 178.953 137.529 178.953C137.297 178.953 137.085 178.973 136.892 179.011L136.747 179.04H137.558C136.863 179.04 136.043 179.339 135.097 179.937C133.438 181.018 132.193 182.542 131.364 184.511C130.669 186.151 130.322 188.061 130.322 190.242ZM147.775 203.006C147.524 203.006 147.206 202.929 146.82 202.774C146.202 202.562 145.652 201.018 145.17 198.143C144.977 196.908 144.823 195.558 144.707 194.091C144.63 193.068 144.591 192.036 144.591 190.994C144.591 189.643 144.639 188.312 144.736 187C144.871 185.244 145.035 183.787 145.228 182.629C145.421 181.356 145.73 180.13 146.154 178.953C147.061 176.445 148.402 174.833 150.177 174.12C150.795 173.907 151.364 173.801 151.885 173.801C153.255 173.801 154.509 174.438 155.648 175.711C156.728 176.927 157.626 178.876 158.34 181.558L158.369 181.645C158.677 180.796 159.102 179.918 159.642 179.011C160.646 177.41 161.89 176.213 163.376 175.422C164.186 175.036 164.968 174.843 165.72 174.843C166.28 174.843 166.83 174.959 167.37 175.19C168.181 175.596 168.808 176.155 169.252 176.869C169.695 177.583 170.014 178.374 170.207 179.243C170.342 179.783 170.458 180.68 170.554 181.934L170.583 183.44V185.06C170.583 185.601 170.554 186.768 170.496 188.563C170.477 188.698 170.467 188.843 170.467 188.997L170.323 192.239L170.294 193.686C170.294 195.577 170.188 196.899 169.975 197.651C169.57 198.828 168.943 199.417 168.094 199.417C167.283 199.417 166.685 198.838 166.299 197.68C166.145 197.101 166.058 196.513 166.039 195.915L166.01 193.715L166.039 192.152C166.039 191.438 166.058 190.811 166.097 190.27L166.155 188.418C166.213 187.839 166.241 186.72 166.241 185.06C166.222 181.664 165.894 179.966 165.257 179.966C164.871 179.966 164.36 180.709 163.723 182.195C163.376 182.87 163.077 183.555 162.826 184.25L162.681 184.655C162.373 185.697 162.093 186.73 161.842 187.752C161.745 188.119 161.572 188.987 161.321 190.357C161.186 191.033 161.06 191.718 160.945 192.412C160.887 192.837 160.819 193.252 160.742 193.657C160.703 193.811 160.646 194.159 160.568 194.699C160.53 194.95 160.462 195.201 160.366 195.451C160.25 195.895 159.98 196.214 159.555 196.407L157.877 196.667C157.201 196.609 156.728 196.001 156.458 194.844C156.014 191.332 155.243 187.801 154.143 184.25L154.027 183.816C153.718 182.716 153.438 181.819 153.188 181.124C152.744 180.236 152.358 179.793 152.03 179.793C151.547 179.793 151.142 180.777 150.814 182.745C150.409 184.752 150.168 187.009 150.091 189.518L150.062 190.097C150.062 190.637 150.071 191.168 150.091 191.689C150.168 194.217 150.245 195.693 150.322 196.117C150.476 197.835 150.621 199.195 150.756 200.198L150.901 201.009C150.862 201.221 150.631 201.52 150.206 201.906C149.801 202.273 149.299 202.572 148.701 202.803C148.373 202.938 148.064 203.006 147.775 203.006ZM188.037 205.379C187.882 205.379 187.737 205.37 187.602 205.35C187.467 205.331 187.255 205.177 186.966 204.887L186.676 204.453C186.31 203.951 185.953 203.141 185.605 202.022C185.586 201.906 185.557 201.8 185.518 201.703C185.132 200.237 184.833 198.616 184.621 196.841C184.583 196.513 184.563 196.194 184.563 195.886L184.476 196.001C183.357 197.603 182.132 198.78 180.8 199.533H180.772C179.768 200.112 178.707 200.401 177.588 200.401C175.89 200.401 174.462 199.764 173.304 198.491C171.876 196.986 171.162 194.738 171.162 191.747C171.316 188.775 172.175 186.045 173.738 183.555C174.548 182.243 175.417 181.192 176.343 180.4C176.343 180.304 176.825 179.937 177.79 179.301C179.141 178.49 180.675 178.075 182.392 178.056C183.627 178.056 184.679 178.345 185.547 178.924C185.74 179.021 185.982 179.214 186.271 179.503C186.271 179.522 186.281 179.532 186.3 179.532C186.763 180.034 186.995 180.536 186.995 181.037C186.995 181.288 186.975 181.452 186.937 181.529C186.898 181.606 186.84 181.693 186.763 181.79C186.416 182.195 185.48 182.398 183.955 182.398H183.579C182.595 182.398 181.698 182.533 180.887 182.803C179.826 183.401 178.871 184.347 178.022 185.639C176.806 187.665 176.16 189.749 176.083 191.891C176.083 192.779 176.218 193.589 176.488 194.323C176.777 195.152 177.221 195.567 177.819 195.567C178.36 195.567 179.17 195.075 180.251 194.091C180.251 194.072 180.26 194.062 180.279 194.062C180.762 193.618 181.476 192.808 182.421 191.631L183.058 190.849C183.232 190.579 183.415 190.328 183.608 190.097C183.801 189.865 183.975 189.624 184.129 189.373L184.505 188.794C184.505 188.486 184.544 188.138 184.621 187.752C184.698 187.193 184.804 186.672 184.94 186.189L185.2 185.697C185.393 185.331 185.837 185.147 186.531 185.147C186.724 185.147 186.975 185.167 187.284 185.205C187.979 185.321 188.326 185.562 188.326 185.929L188.297 186.102C188.297 186.122 188.307 186.141 188.326 186.16C188.365 186.18 188.422 186.228 188.5 186.305C188.577 186.44 188.615 186.662 188.615 186.971L188.587 187.781L188.558 190.705C188.558 192.152 188.596 193.3 188.673 194.149C188.673 194.496 188.731 195.268 188.847 196.465C189.001 197.622 189.117 198.346 189.194 198.635C189.407 199.948 189.667 201.125 189.976 202.167L190.063 202.456C190.198 202.784 190.275 203.112 190.294 203.44C190.294 204.173 190.005 204.704 189.426 205.032C189.001 205.264 188.538 205.379 188.037 205.379ZM183.666 185.813C183.647 185.794 183.618 185.784 183.579 185.784C183.56 185.784 183.541 185.784 183.521 185.784C183.502 185.784 183.492 185.774 183.492 185.755L183.579 185.668C183.598 185.668 183.608 185.678 183.608 185.697C183.627 185.697 183.637 185.717 183.637 185.755C183.656 185.774 183.666 185.794 183.666 185.813ZM196.401 199.417C196.189 199.417 195.842 199.359 195.359 199.243C194.568 199.012 193.932 197.815 193.449 195.654L192.986 193.454L192.552 191.226C192.436 190.647 192.262 189.663 192.031 188.273C191.799 186.961 191.606 185.639 191.452 184.308C191.394 183.555 191.327 182.812 191.249 182.079C191.076 179.995 190.96 178.172 190.902 176.609V175.364C190.979 174.747 191.288 174.293 191.828 174.004C192.369 173.695 192.986 173.541 193.681 173.541C194.395 173.541 195.012 173.695 195.533 174.004C196.073 174.293 196.373 174.727 196.43 175.306C196.43 175.518 196.44 175.711 196.459 175.885C196.479 176.059 196.488 176.242 196.488 176.435C196.508 176.628 196.527 176.821 196.546 177.014L196.633 177.853L196.749 179.387L196.836 179.272C197.704 178.152 198.543 177.381 199.354 176.956C199.933 176.647 200.608 176.493 201.38 176.493C202.499 176.493 203.551 176.782 204.535 177.361C205.48 178.056 206.146 178.664 206.532 179.185C206.918 179.686 207.294 180.391 207.661 181.298L208.153 182.803L208.529 184.482C208.626 185.003 208.674 185.572 208.674 186.189C208.674 186.614 208.597 187.019 208.442 187.405C208.365 187.714 208.182 187.936 207.892 188.071C207.622 188.206 207.429 188.322 207.314 188.418L206.908 188.736L205.432 188.91C205.278 188.794 205.133 188.707 204.998 188.65L204.245 188.418C204.13 188.399 204.033 188.37 203.956 188.331C203.898 188.293 203.782 188.158 203.609 187.926C203.184 187.308 202.895 186.421 202.74 185.263C202.682 184.684 202.586 184.115 202.451 183.555L202.335 183.063C202.046 181.828 201.573 181.211 200.917 181.211C200.261 181.211 199.518 181.809 198.688 183.005C198.283 183.642 198.042 184.115 197.964 184.424C197.694 184.945 197.53 185.321 197.472 185.553L197.415 185.639C197.453 185.794 197.472 185.938 197.472 186.074L197.907 189.489L198.051 190.502L198.196 191.718L198.341 192.702C198.341 192.76 198.35 192.808 198.37 192.847C198.659 194.873 198.804 196.262 198.804 197.014C198.707 197.941 198.35 198.606 197.733 199.012C197.308 199.282 196.865 199.417 196.401 199.417ZM214.752 199.417C214.54 199.417 214.193 199.359 213.71 199.243C212.919 199.012 212.282 197.815 211.8 195.654L211.337 193.454L210.903 191.226C210.787 190.647 210.613 189.663 210.382 188.273C210.15 186.961 209.957 185.639 209.803 184.308C209.745 183.555 209.677 182.812 209.6 182.079C209.426 179.995 209.311 178.172 209.253 176.609V175.364C209.33 174.747 209.639 174.293 210.179 174.004C210.719 173.695 211.337 173.541 212.031 173.541C212.745 173.541 213.363 173.695 213.884 174.004C214.424 174.293 214.723 174.727 214.781 175.306C214.781 175.518 214.791 175.711 214.81 175.885C214.829 176.059 214.839 176.242 214.839 176.435C214.858 176.628 214.878 176.821 214.897 177.014L214.984 177.853L215.1 179.387L215.186 179.272C216.055 178.152 216.894 177.381 217.705 176.956C218.283 176.647 218.959 176.493 219.731 176.493C220.85 176.493 221.901 176.782 222.886 177.361C223.831 178.056 224.497 178.664 224.883 179.185C225.269 179.686 225.645 180.391 226.012 181.298L226.504 182.803L226.88 184.482C226.976 185.003 227.025 185.572 227.025 186.189C227.025 186.614 226.947 187.019 226.793 187.405C226.716 187.714 226.533 187.936 226.243 188.071C225.973 188.206 225.78 188.322 225.664 188.418L225.259 188.736L223.783 188.91C223.628 188.794 223.484 188.707 223.349 188.65L222.596 188.418C222.48 188.399 222.384 188.37 222.307 188.331C222.249 188.293 222.133 188.158 221.959 187.926C221.535 187.308 221.245 186.421 221.091 185.263C221.033 184.684 220.937 184.115 220.802 183.555L220.686 183.063C220.396 181.828 219.924 181.211 219.268 181.211C218.611 181.211 217.869 181.809 217.039 183.005C216.634 183.642 216.392 184.115 216.315 184.424C216.045 184.945 215.881 185.321 215.823 185.553L215.765 185.639C215.804 185.794 215.823 185.938 215.823 186.074L216.257 189.489L216.402 190.502L216.547 191.718L216.691 192.702C216.691 192.76 216.701 192.808 216.72 192.847C217.01 194.873 217.155 196.262 217.155 197.014C217.058 197.941 216.701 198.606 216.084 199.012C215.659 199.282 215.215 199.417 214.752 199.417ZM235.939 199.851C234.82 199.851 233.701 199.61 232.582 199.127C231.366 198.587 230.353 197.767 229.543 196.667C228.25 194.795 227.604 192.403 227.604 189.489C227.604 187.733 227.816 186.016 228.24 184.337C228.665 182.774 229.205 181.413 229.861 180.256C230.537 179.098 231.366 178.037 232.35 177.072C233.354 176.088 234.405 175.306 235.505 174.727C236.624 174.148 237.724 173.791 238.805 173.656H240.426C240.947 173.676 241.468 173.763 241.989 173.917C244.111 174.708 245.472 176.175 246.07 178.316C246.263 178.973 246.359 179.696 246.359 180.487C246.359 181.819 246.07 183.102 245.491 184.337C245.086 185.282 244.459 186.266 243.61 187.289C243.436 187.559 243.031 187.994 242.394 188.592C240.291 190.425 238.207 191.698 236.142 192.412C235.1 192.76 234.145 192.953 233.277 192.991C233.296 193.011 233.315 193.049 233.334 193.107C233.354 193.165 233.373 193.232 233.392 193.31C233.547 193.638 233.749 193.946 234 194.236C234.656 194.969 235.361 195.336 236.113 195.336C236.846 195.336 237.56 195.133 238.255 194.728C238.66 194.516 239.046 194.294 239.413 194.062C240.011 193.676 240.358 193.435 240.455 193.339C241.034 192.818 241.632 192.393 242.249 192.065L242.452 191.949C242.761 191.891 243.06 191.862 243.349 191.862C243.754 191.862 244.189 191.949 244.652 192.123C245.134 192.277 245.424 192.798 245.52 193.686C245.404 194.168 245.202 194.622 244.912 195.046C244.642 195.471 244.314 195.857 243.928 196.204C242.134 197.825 240.088 198.973 237.792 199.648C237.174 199.784 236.557 199.851 235.939 199.851ZM232.669 189.605C232.707 189.605 232.736 189.595 232.756 189.576C232.949 189.576 233.363 189.46 234 189.228C235.563 188.572 237.184 187.453 238.863 185.871C239.558 185.157 240.107 184.482 240.513 183.845C241.13 182.726 241.449 181.684 241.468 180.719C241.468 180.14 241.294 179.532 240.947 178.895C240.773 178.625 240.571 178.461 240.339 178.403H240.455H239.905H240.31C240.136 178.345 239.895 178.316 239.586 178.316C239.258 178.355 239.094 178.384 239.094 178.403H239.905C239.21 178.403 238.39 178.702 237.445 179.301C235.747 180.458 234.502 181.983 233.711 183.874C233.016 185.514 232.669 187.424 232.669 189.605ZM252.438 199.417C252.226 199.417 251.878 199.359 251.396 199.243C250.605 199.012 249.968 197.815 249.485 195.654L249.022 193.454L248.588 191.226C248.472 190.647 248.299 189.663 248.067 188.273C247.836 186.961 247.643 185.639 247.488 184.308C247.43 183.555 247.363 182.812 247.286 182.079C247.112 179.995 246.996 178.172 246.938 176.609V175.364C247.016 174.747 247.324 174.293 247.865 174.004C248.405 173.695 249.022 173.541 249.717 173.541C250.431 173.541 251.048 173.695 251.569 174.004C252.11 174.293 252.409 174.727 252.467 175.306C252.467 175.518 252.476 175.711 252.496 175.885C252.515 176.059 252.525 176.242 252.525 176.435C252.544 176.628 252.563 176.821 252.582 177.014L252.669 177.853L252.785 179.387L252.872 179.272C253.74 178.152 254.58 177.381 255.39 176.956C255.969 176.647 256.644 176.493 257.416 176.493C258.535 176.493 259.587 176.782 260.571 177.361C261.517 178.056 262.182 178.664 262.568 179.185C262.954 179.686 263.33 180.391 263.697 181.298L264.189 182.803L264.565 184.482C264.662 185.003 264.71 185.572 264.71 186.189C264.71 186.614 264.633 187.019 264.479 187.405C264.401 187.714 264.218 187.936 263.929 188.071C263.659 188.206 263.466 188.322 263.35 188.418L262.945 188.736L261.468 188.91C261.314 188.794 261.169 188.707 261.034 188.65L260.282 188.418C260.166 188.399 260.069 188.37 259.992 188.331C259.934 188.293 259.819 188.158 259.645 187.926C259.22 187.308 258.931 186.421 258.777 185.263C258.719 184.684 258.622 184.115 258.487 183.555L258.371 183.063C258.082 181.828 257.609 181.211 256.953 181.211C256.297 181.211 255.554 181.809 254.724 183.005C254.319 183.642 254.078 184.115 254.001 184.424C253.731 184.945 253.567 185.321 253.509 185.553L253.451 185.639C253.489 185.794 253.509 185.938 253.509 186.074L253.943 189.489L254.088 190.502L254.232 191.718L254.377 192.702C254.377 192.76 254.387 192.808 254.406 192.847C254.695 194.873 254.84 196.262 254.84 197.014C254.744 197.941 254.387 198.606 253.769 199.012C253.345 199.282 252.901 199.417 252.438 199.417ZM282.945 200.922C282.598 200.922 282.27 200.893 281.961 200.835C281.247 200.7 280.562 200.063 279.906 198.925C279.539 198.249 279.298 197.719 279.182 197.333C278.854 196.58 278.565 195.789 278.314 194.959L278.14 194.496C278.102 194.245 277.822 193.319 277.301 191.718C276.471 188.785 275.931 186.556 275.68 185.032C275.352 183.256 275.169 181.481 275.13 179.706L275.159 178.548C275.391 175.943 276.027 174.641 277.069 174.641C277.861 174.641 278.661 175.528 279.472 177.303L279.53 178.143C279.53 178.529 279.597 179.194 279.732 180.14L279.79 180.574C280.234 183.488 280.832 186.218 281.585 188.765C281.816 189.614 282.057 190.444 282.308 191.255C282.482 191.718 282.578 192.026 282.598 192.181L282.743 191.689C283.051 190.338 283.437 189.007 283.9 187.694C283.997 187.328 284.286 186.527 284.769 185.292C285.56 183.324 286.505 181.375 287.605 179.445L288.039 178.664C288.599 177.699 289.168 176.773 289.747 175.885L289.776 175.827C290.509 174.689 291.223 173.849 291.918 173.309C292.593 172.923 293.22 172.73 293.799 172.73C294.745 172.73 295.391 173.145 295.739 173.975C295.854 174.226 295.912 174.496 295.912 174.785C295.912 175.383 295.671 176.049 295.189 176.782L293.423 179.59C293.307 179.802 293.182 180.005 293.047 180.198C292.005 181.915 291.156 183.478 290.5 184.887C290.017 185.91 289.467 187.212 288.85 188.794C288.676 189.315 288.338 190.444 287.837 192.181C287.702 192.586 287.489 193.368 287.2 194.525C286.718 196.532 286.254 198.008 285.811 198.954C285.54 199.533 285.164 200.025 284.682 200.43L284.595 200.488C284.228 200.739 283.987 200.874 283.871 200.893C283.756 200.912 283.447 200.922 282.945 200.922ZM300.254 199.967C298.71 199.967 297.273 199.484 295.941 198.52C294.938 197.748 294.156 196.764 293.597 195.567C292.4 193.31 291.802 190.83 291.802 188.129C291.802 186.546 292.024 184.974 292.468 183.411C292.506 183.333 292.535 183.247 292.555 183.15C292.709 182.591 292.902 182.041 293.134 181.5C294.658 178.606 296.761 177.159 299.443 177.159C300.543 177.159 301.624 177.419 302.685 177.94C303.746 178.461 304.673 179.223 305.464 180.227C306.892 182.041 307.799 184.134 308.185 186.508C308.281 187.125 308.329 187.839 308.329 188.65C308.329 189.113 308.3 189.585 308.242 190.068C308.127 191.322 307.886 192.47 307.519 193.512C307.036 194.728 306.554 195.712 306.072 196.465C305.473 197.391 304.731 198.182 303.843 198.838C302.685 199.591 301.489 199.967 300.254 199.967ZM300.138 195.133C300.235 195.133 300.447 195.066 300.775 194.931C301.103 194.795 301.566 194.188 302.164 193.107C302.357 192.798 302.521 192.47 302.656 192.123V192.065C303.004 191.158 303.225 190.357 303.322 189.663L303.351 189.576C303.409 189.248 303.438 188.929 303.438 188.621C303.438 188.022 303.399 187.501 303.322 187.058C303.206 186.266 302.946 185.475 302.54 184.684C302.155 183.874 301.749 183.247 301.325 182.803C300.476 182.07 299.81 181.703 299.328 181.703C298.807 181.703 298.334 182.176 297.909 183.121C297.504 184.067 297.224 185.08 297.07 186.16C296.954 186.836 296.896 187.521 296.896 188.215C296.896 190.106 297.369 191.92 298.315 193.657C299.029 194.641 299.636 195.133 300.138 195.133ZM316.926 198.809C315.768 198.809 314.736 198.471 313.829 197.796C312.71 196.966 311.841 195.567 311.224 193.599C310.915 192.731 310.683 191.756 310.529 190.676C310.51 190.483 310.481 190.299 310.442 190.126L310.298 188.997C310.298 188.765 310.278 188.534 310.24 188.302C310.143 187.473 310.095 186.131 310.095 184.279L310.153 183.295C310.172 182.639 310.22 181.973 310.298 181.298C310.375 180.622 310.433 180.227 310.471 180.111C310.201 180.111 309.661 180.236 308.85 180.487L308.242 180.632L307.866 180.661C307.673 180.545 307.461 180.439 307.229 180.343C306.342 180.034 305.898 179.658 305.898 179.214C305.898 178.924 306.226 178.548 306.882 178.085L306.94 178.056C307.77 177.554 308.802 177.13 310.037 176.782C310.655 176.628 311.031 176.551 311.166 176.551L311.195 176.377L311.368 175.769C311.504 174.978 311.725 174.264 312.034 173.627C312.555 172.605 313.173 172.093 313.887 172.093C314.832 172.113 315.662 172.769 316.376 174.062L316.231 174.756L316.029 175.711L315.942 176.059C315.942 176.097 315.932 176.126 315.913 176.146L316.202 176.175C316.82 176.175 317.331 176.184 317.736 176.203C318.141 176.223 318.537 176.261 318.923 176.319C319.733 176.358 320.409 176.464 320.949 176.638C321.316 176.908 321.499 177.245 321.499 177.651C321.499 177.728 321.47 177.931 321.412 178.259C321.354 178.567 321.113 178.944 320.689 179.387C320.264 179.831 319.782 180.092 319.241 180.169L318.373 180.082C317.428 179.966 316.742 179.899 316.318 179.879L315.392 179.85L315.363 179.995C315.324 180.458 315.276 180.912 315.218 181.356C315.218 181.626 315.199 181.857 315.16 182.05C315.064 183.305 315.015 184.154 315.015 184.597L314.958 185.292C314.958 186.99 314.987 188.119 315.044 188.679C315.044 188.91 315.083 189.412 315.16 190.184C315.237 190.608 315.305 191.023 315.363 191.428C315.44 191.833 315.527 192.219 315.623 192.586C315.758 193.184 315.971 193.753 316.26 194.294C316.55 194.815 316.897 195.075 317.302 195.075C317.649 195.075 318.026 194.728 318.431 194.033C318.624 193.724 318.74 193.512 318.778 193.396C319.164 192.432 319.569 191.949 319.994 191.949C320.476 191.949 320.775 192.818 320.891 194.554C320.872 194.593 320.862 194.641 320.862 194.699V194.873C320.862 195.509 320.621 196.252 320.139 197.101C319.753 197.68 319.299 198.114 318.778 198.404C318.257 198.674 317.64 198.809 316.926 198.809ZM315.913 179.85C315.758 179.85 315.614 179.841 315.479 179.822H315.392V179.85H315.913ZM327.577 199.417C327.365 199.417 327.018 199.359 326.535 199.243C325.744 199.012 325.107 197.815 324.625 195.654L324.162 193.454L323.728 191.226C323.612 190.647 323.438 189.663 323.207 188.273C322.975 186.961 322.782 185.639 322.628 184.308C322.57 183.555 322.502 182.812 322.425 182.079C322.252 179.995 322.136 178.172 322.078 176.609V175.364C322.155 174.747 322.464 174.293 323.004 174.004C323.544 173.695 324.162 173.541 324.857 173.541C325.571 173.541 326.188 173.695 326.709 174.004C327.249 174.293 327.548 174.727 327.606 175.306C327.606 175.518 327.616 175.711 327.635 175.885C327.655 176.059 327.664 176.242 327.664 176.435C327.683 176.628 327.703 176.821 327.722 177.014L327.809 177.853L327.925 179.387L328.012 179.272C328.88 178.152 329.719 177.381 330.53 176.956C331.109 176.647 331.784 176.493 332.556 176.493C333.675 176.493 334.727 176.782 335.711 177.361C336.656 178.056 337.322 178.664 337.708 179.185C338.094 179.686 338.47 180.391 338.837 181.298L339.329 182.803L339.705 184.482C339.802 185.003 339.85 185.572 339.85 186.189C339.85 186.614 339.773 187.019 339.618 187.405C339.541 187.714 339.358 187.936 339.068 188.071C338.798 188.206 338.605 188.322 338.489 188.418L338.084 188.736L336.608 188.91C336.454 188.794 336.309 188.707 336.174 188.65L335.421 188.418C335.305 188.399 335.209 188.37 335.132 188.331C335.074 188.293 334.958 188.158 334.784 187.926C334.36 187.308 334.071 186.421 333.916 185.263C333.858 184.684 333.762 184.115 333.627 183.555L333.511 183.063C333.221 181.828 332.749 181.211 332.093 181.211C331.437 181.211 330.694 181.809 329.864 183.005C329.459 183.642 329.218 184.115 329.14 184.424C328.87 184.945 328.706 185.321 328.648 185.553L328.59 185.639C328.629 185.794 328.648 185.938 328.648 186.074L329.082 189.489L329.227 190.502L329.372 191.718L329.517 192.702C329.517 192.76 329.526 192.808 329.546 192.847C329.835 194.873 329.98 196.262 329.98 197.014C329.883 197.941 329.526 198.606 328.909 199.012C328.484 199.282 328.04 199.417 327.577 199.417ZM348.765 199.851C347.645 199.851 346.526 199.61 345.407 199.127C344.191 198.587 343.178 197.767 342.368 196.667C341.075 194.795 340.429 192.403 340.429 189.489C340.429 187.733 340.641 186.016 341.065 184.337C341.49 182.774 342.03 181.413 342.686 180.256C343.362 179.098 344.191 178.037 345.175 177.072C346.179 176.088 347.231 175.306 348.33 174.727C349.45 174.148 350.549 173.791 351.63 173.656H353.251C353.772 173.676 354.293 173.763 354.814 173.917C356.937 174.708 358.297 176.175 358.895 178.316C359.088 178.973 359.185 179.696 359.185 180.487C359.185 181.819 358.895 183.102 358.316 184.337C357.911 185.282 357.284 186.266 356.435 187.289C356.261 187.559 355.856 187.994 355.219 188.592C353.116 190.425 351.032 191.698 348.967 192.412C347.925 192.76 346.97 192.953 346.102 192.991C346.121 193.011 346.14 193.049 346.16 193.107C346.179 193.165 346.198 193.232 346.217 193.31C346.372 193.638 346.574 193.946 346.825 194.236C347.481 194.969 348.186 195.336 348.938 195.336C349.672 195.336 350.385 195.133 351.08 194.728C351.485 194.516 351.871 194.294 352.238 194.062C352.836 193.676 353.183 193.435 353.28 193.339C353.859 192.818 354.457 192.393 355.074 192.065L355.277 191.949C355.586 191.891 355.885 191.862 356.174 191.862C356.58 191.862 357.014 191.949 357.477 192.123C357.959 192.277 358.249 192.798 358.345 193.686C358.229 194.168 358.027 194.622 357.737 195.046C357.467 195.471 357.139 195.857 356.753 196.204C354.959 197.825 352.913 198.973 350.617 199.648C350 199.784 349.382 199.851 348.765 199.851ZM345.494 189.605C345.532 189.605 345.561 189.595 345.581 189.576C345.774 189.576 346.189 189.46 346.825 189.228C348.388 188.572 350.009 187.453 351.688 185.871C352.383 185.157 352.933 184.482 353.338 183.845C353.955 182.726 354.274 181.684 354.293 180.719C354.293 180.14 354.119 179.532 353.772 178.895C353.598 178.625 353.396 178.461 353.164 178.403H353.28H352.73H353.135C352.962 178.345 352.72 178.316 352.412 178.316C352.084 178.355 351.92 178.384 351.92 178.403H352.73C352.035 178.403 351.215 178.702 350.27 179.301C348.572 180.458 347.327 181.983 346.536 183.874C345.841 185.514 345.494 187.424 345.494 189.605ZM377.593 198.809C376.435 198.809 375.403 198.471 374.496 197.796C373.377 196.966 372.509 195.567 371.891 193.599C371.582 192.731 371.351 191.756 371.196 190.676C371.177 190.483 371.148 190.299 371.11 190.126L370.965 188.997C370.965 188.765 370.946 188.534 370.907 188.302C370.811 187.473 370.762 186.131 370.762 184.279L370.82 183.295C370.839 182.639 370.888 181.973 370.965 181.298C371.042 180.622 371.1 180.227 371.139 180.111C370.868 180.111 370.328 180.236 369.518 180.487L368.91 180.632L368.534 180.661C368.341 180.545 368.128 180.439 367.897 180.343C367.009 180.034 366.565 179.658 366.565 179.214C366.565 178.924 366.893 178.548 367.549 178.085L367.607 178.056C368.437 177.554 369.469 177.13 370.704 176.782C371.322 176.628 371.698 176.551 371.833 176.551L371.862 176.377L372.036 175.769C372.171 174.978 372.393 174.264 372.702 173.627C373.223 172.605 373.84 172.093 374.554 172.093C375.5 172.113 376.329 172.769 377.043 174.062L376.899 174.756L376.696 175.711L376.609 176.059C376.609 176.097 376.599 176.126 376.58 176.146L376.87 176.175C377.487 176.175 377.998 176.184 378.404 176.203C378.809 176.223 379.204 176.261 379.59 176.319C380.401 176.358 381.076 176.464 381.616 176.638C381.983 176.908 382.166 177.245 382.166 177.651C382.166 177.728 382.137 177.931 382.08 178.259C382.022 178.567 381.78 178.944 381.356 179.387C380.931 179.831 380.449 180.092 379.909 180.169L379.04 180.082C378.095 179.966 377.41 179.899 376.985 179.879L376.059 179.85L376.03 179.995C375.992 180.458 375.943 180.912 375.885 181.356C375.885 181.626 375.866 181.857 375.828 182.05C375.731 183.305 375.683 184.154 375.683 184.597L375.625 185.292C375.625 186.99 375.654 188.119 375.712 188.679C375.712 188.91 375.75 189.412 375.828 190.184C375.905 190.608 375.972 191.023 376.03 191.428C376.107 191.833 376.194 192.219 376.291 192.586C376.426 193.184 376.638 193.753 376.927 194.294C377.217 194.815 377.564 195.075 377.969 195.075C378.317 195.075 378.693 194.728 379.098 194.033C379.291 193.724 379.407 193.512 379.446 193.396C379.832 192.432 380.237 191.949 380.661 191.949C381.144 191.949 381.443 192.818 381.559 194.554C381.539 194.593 381.53 194.641 381.53 194.699V194.873C381.53 195.509 381.288 196.252 380.806 197.101C380.42 197.68 379.967 198.114 379.446 198.404C378.925 198.674 378.307 198.809 377.593 198.809ZM376.58 179.85C376.426 179.85 376.281 179.841 376.146 179.822H376.059V179.85H376.58ZM388.245 199.417C388.032 199.417 387.685 199.359 387.203 199.243C386.412 199.012 385.775 197.815 385.292 195.654L384.829 193.454L384.395 191.226C384.279 190.647 384.106 189.663 383.874 188.273C383.643 186.961 383.45 185.639 383.295 184.308C383.237 183.555 383.17 182.812 383.093 182.079C382.919 179.995 382.803 178.172 382.745 176.609V175.364C382.822 174.747 383.131 174.293 383.671 174.004C384.212 173.695 384.829 173.541 385.524 173.541C386.238 173.541 386.855 173.695 387.376 174.004C387.917 174.293 388.216 174.727 388.274 175.306C388.274 175.518 388.283 175.711 388.303 175.885C388.322 176.059 388.332 176.242 388.332 176.435C388.351 176.628 388.37 176.821 388.389 177.014L388.476 177.853L388.592 179.387L388.679 179.272C389.547 178.152 390.387 177.381 391.197 176.956C391.776 176.647 392.451 176.493 393.223 176.493C394.342 176.493 395.394 176.782 396.378 177.361C397.324 178.056 397.989 178.664 398.375 179.185C398.761 179.686 399.137 180.391 399.504 181.298L399.996 182.803L400.372 184.482C400.469 185.003 400.517 185.572 400.517 186.189C400.517 186.614 400.44 187.019 400.286 187.405C400.208 187.714 400.025 187.936 399.736 188.071C399.465 188.206 399.272 188.322 399.157 188.418L398.752 188.736L397.275 188.91C397.121 188.794 396.976 188.707 396.841 188.65L396.089 188.418C395.973 188.399 395.876 188.37 395.799 188.331C395.741 188.293 395.626 188.158 395.452 187.926C395.027 187.308 394.738 186.421 394.584 185.263C394.526 184.684 394.429 184.115 394.294 183.555L394.178 183.063C393.889 181.828 393.416 181.211 392.76 181.211C392.104 181.211 391.361 181.809 390.531 183.005C390.126 183.642 389.885 184.115 389.808 184.424C389.538 184.945 389.374 185.321 389.316 185.553L389.258 185.639C389.296 185.794 389.316 185.938 389.316 186.074L389.75 189.489L389.895 190.502L390.039 191.718L390.184 192.702C390.184 192.76 390.194 192.808 390.213 192.847C390.502 194.873 390.647 196.262 390.647 197.014C390.551 197.941 390.194 198.606 389.576 199.012C389.152 199.282 388.708 199.417 388.245 199.417ZM417.971 205.379C417.816 205.379 417.671 205.37 417.536 205.35C417.401 205.331 417.189 205.177 416.9 204.887L416.61 204.453C416.244 203.951 415.887 203.141 415.539 202.022C415.52 201.906 415.491 201.8 415.452 201.703C415.066 200.237 414.767 198.616 414.555 196.841C414.517 196.513 414.497 196.194 414.497 195.886L414.41 196.001C413.291 197.603 412.066 198.78 410.734 199.533H410.706C409.702 200.112 408.641 200.401 407.522 200.401C405.824 200.401 404.396 199.764 403.238 198.491C401.81 196.986 401.096 194.738 401.096 191.747C401.25 188.775 402.109 186.045 403.672 183.555C404.482 182.243 405.351 181.192 406.277 180.4C406.277 180.304 406.759 179.937 407.724 179.301C409.075 178.49 410.609 178.075 412.326 178.056C413.561 178.056 414.613 178.345 415.481 178.924C415.674 179.021 415.915 179.214 416.205 179.503C416.205 179.522 416.215 179.532 416.234 179.532C416.697 180.034 416.929 180.536 416.929 181.037C416.929 181.288 416.909 181.452 416.871 181.529C416.832 181.606 416.774 181.693 416.697 181.79C416.35 182.195 415.414 182.398 413.889 182.398H413.513C412.529 182.398 411.632 182.533 410.821 182.803C409.76 183.401 408.805 184.347 407.956 185.639C406.74 187.665 406.094 189.749 406.017 191.891C406.017 192.779 406.152 193.589 406.422 194.323C406.711 195.152 407.155 195.567 407.753 195.567C408.293 195.567 409.104 195.075 410.185 194.091C410.185 194.072 410.194 194.062 410.213 194.062C410.696 193.618 411.41 192.808 412.355 191.631L412.992 190.849C413.166 190.579 413.349 190.328 413.542 190.097C413.735 189.865 413.909 189.624 414.063 189.373L414.439 188.794C414.439 188.486 414.478 188.138 414.555 187.752C414.632 187.193 414.738 186.672 414.873 186.189L415.134 185.697C415.327 185.331 415.771 185.147 416.465 185.147C416.658 185.147 416.909 185.167 417.218 185.205C417.913 185.321 418.26 185.562 418.26 185.929L418.231 186.102C418.231 186.122 418.241 186.141 418.26 186.16C418.299 186.18 418.356 186.228 418.434 186.305C418.511 186.44 418.549 186.662 418.549 186.971L418.52 187.781L418.492 190.705C418.492 192.152 418.53 193.3 418.607 194.149C418.607 194.496 418.665 195.268 418.781 196.465C418.935 197.622 419.051 198.346 419.128 198.635C419.341 199.948 419.601 201.125 419.91 202.167L419.997 202.456C420.132 202.784 420.209 203.112 420.228 203.44C420.228 204.173 419.939 204.704 419.36 205.032C418.935 205.264 418.472 205.379 417.971 205.379ZM413.6 185.813C413.581 185.794 413.552 185.784 413.513 185.784C413.494 185.784 413.475 185.784 413.455 185.784C413.436 185.784 413.426 185.774 413.426 185.755L413.513 185.668C413.532 185.668 413.542 185.678 413.542 185.697C413.561 185.697 413.571 185.717 413.571 185.755C413.59 185.774 413.6 185.794 413.6 185.813ZM425.033 175.104C424.396 175.104 423.75 174.997 423.094 174.785C422.746 174.457 422.573 173.984 422.573 173.367L422.602 172.383L422.631 172.18C422.631 171.987 422.64 171.804 422.66 171.63C422.679 171.553 422.688 171.466 422.688 171.37C422.766 170.81 423.094 170.415 423.673 170.183C424.136 169.99 424.695 169.894 425.351 169.894C425.853 169.894 426.307 170 426.712 170.212C427.117 170.405 427.358 170.723 427.435 171.167C427.455 171.283 427.464 171.476 427.464 171.746C427.484 171.997 427.493 172.489 427.493 173.222C427.493 173.936 427.31 174.457 426.943 174.785C426.326 174.997 425.689 175.104 425.033 175.104ZM422.862 214.265C421.878 214.265 420.981 214.082 420.17 213.715C419.746 213.503 419.254 213.146 418.694 212.644C418.135 212.162 417.633 211.516 417.189 210.705L417.131 210.618C416.88 210.059 416.697 209.499 416.581 208.94L416.523 208.621C416.446 208.39 416.408 208.187 416.408 208.013C416.369 207.763 416.35 207.512 416.35 207.261C416.35 206.933 416.359 206.692 416.379 206.537L416.408 206.421C416.774 205.63 417.314 205.235 418.028 205.235C418.125 205.235 418.414 205.264 418.897 205.322C419.36 205.399 419.784 205.814 420.17 206.566C420.17 206.624 420.18 206.692 420.199 206.769C420.219 206.865 420.228 206.962 420.228 207.058C420.228 207.174 420.247 207.367 420.286 207.637L420.315 207.811C420.354 208.139 420.431 208.428 420.547 208.679C420.817 209.142 420.99 209.422 421.068 209.518C421.145 209.615 421.241 209.721 421.357 209.837C421.994 210.339 422.486 210.589 422.833 210.589C423.161 210.589 423.557 210.329 424.02 209.808C424.174 209.557 424.251 209.364 424.251 209.229C424.406 208.612 424.483 208.033 424.483 207.492C424.483 206.663 424.464 205.833 424.425 205.003C424.367 204.501 424.3 203.99 424.223 203.469C424.165 202.929 424.107 202.379 424.049 201.819C423.991 201.24 423.923 200.671 423.846 200.112V199.967L423.47 197.275L423.181 194.583L423.036 193.454L422.775 190.589L422.37 184.337L422.341 183.555C422.303 183.073 422.283 182.494 422.283 181.819C422.283 181.182 422.293 180.757 422.312 180.545C422.351 180.314 422.37 180.101 422.37 179.908C422.467 179.368 422.766 178.963 423.267 178.693C423.788 178.403 424.377 178.249 425.033 178.23C426.615 178.23 427.599 178.702 427.985 179.648L428.159 180.516C428.313 181.23 428.458 182.089 428.593 183.092L428.68 183.787C429.008 186.566 429.172 188.196 429.172 188.679C429.23 189.2 429.268 189.711 429.288 190.213C429.384 191.158 429.433 192.113 429.433 193.078C429.568 195.644 429.635 197.13 429.635 197.535C429.654 197.941 429.664 198.635 429.664 199.619L429.722 201.559C429.722 202.003 429.683 202.996 429.606 204.54L429.375 206.595C429.066 208.525 428.545 210.155 427.812 211.487C427.484 212.085 427.078 212.577 426.596 212.963L426.451 213.079C425.525 213.87 424.329 214.265 422.862 214.265ZM438.666 199.851C437.547 199.851 436.427 199.61 435.308 199.127C434.093 198.587 433.08 197.767 432.269 196.667C430.976 194.795 430.33 192.403 430.33 189.489C430.33 187.733 430.542 186.016 430.967 184.337C431.391 182.774 431.931 181.413 432.587 180.256C433.263 179.098 434.093 178.037 435.077 177.072C436.08 176.088 437.132 175.306 438.232 174.727C439.351 174.148 440.451 173.791 441.531 173.656H443.152C443.673 173.676 444.194 173.763 444.715 173.917C446.838 174.708 448.198 176.175 448.796 178.316C448.989 178.973 449.086 179.696 449.086 180.487C449.086 181.819 448.796 183.102 448.217 184.337C447.812 185.282 447.185 186.266 446.336 187.289C446.162 187.559 445.757 187.994 445.12 188.592C443.017 190.425 440.933 191.698 438.868 192.412C437.826 192.76 436.871 192.953 436.003 192.991C436.022 193.011 436.041 193.049 436.061 193.107C436.08 193.165 436.099 193.232 436.119 193.31C436.273 193.638 436.476 193.946 436.727 194.236C437.383 194.969 438.087 195.336 438.839 195.336C439.573 195.336 440.287 195.133 440.981 194.728C441.387 194.516 441.772 194.294 442.139 194.062C442.737 193.676 443.085 193.435 443.181 193.339C443.76 192.818 444.358 192.393 444.976 192.065L445.178 191.949C445.487 191.891 445.786 191.862 446.076 191.862C446.481 191.862 446.915 191.949 447.378 192.123C447.86 192.277 448.15 192.798 448.246 193.686C448.131 194.168 447.928 194.622 447.639 195.046C447.368 195.471 447.04 195.857 446.654 196.204C444.86 197.825 442.814 198.973 440.518 199.648C439.901 199.784 439.283 199.851 438.666 199.851ZM435.395 189.605C435.434 189.605 435.463 189.595 435.482 189.576C435.675 189.576 436.09 189.46 436.727 189.228C438.29 188.572 439.91 187.453 441.589 185.871C442.284 185.157 442.834 184.482 443.239 183.845C443.856 182.726 444.175 181.684 444.194 180.719C444.194 180.14 444.02 179.532 443.673 178.895C443.499 178.625 443.297 178.461 443.065 178.403H443.181H442.631H443.036C442.863 178.345 442.622 178.316 442.313 178.316C441.985 178.355 441.821 178.384 441.821 178.403H442.631C441.936 178.403 441.116 178.702 440.171 179.301C438.473 180.458 437.228 181.983 436.437 183.874C435.742 185.514 435.395 187.424 435.395 189.605ZM457.653 198.809C456.496 198.809 455.463 198.471 454.556 197.796C453.437 196.966 452.569 195.567 451.951 193.599C451.643 192.731 451.411 191.756 451.257 190.676C451.237 190.483 451.208 190.299 451.17 190.126L451.025 188.997C451.025 188.765 451.006 188.534 450.967 188.302C450.871 187.473 450.822 186.131 450.822 184.279L450.88 183.295C450.9 182.639 450.948 181.973 451.025 181.298C451.102 180.622 451.16 180.227 451.199 180.111C450.929 180.111 450.388 180.236 449.578 180.487L448.97 180.632L448.594 180.661C448.401 180.545 448.188 180.439 447.957 180.343C447.069 180.034 446.625 179.658 446.625 179.214C446.625 178.924 446.954 178.548 447.61 178.085L447.667 178.056C448.497 177.554 449.53 177.13 450.765 176.782C451.382 176.628 451.758 176.551 451.893 176.551L451.922 176.377L452.096 175.769C452.231 174.978 452.453 174.264 452.762 173.627C453.283 172.605 453.9 172.093 454.614 172.093C455.56 172.113 456.389 172.769 457.103 174.062L456.959 174.756L456.756 175.711L456.669 176.059C456.669 176.097 456.66 176.126 456.64 176.146L456.93 176.175C457.547 176.175 458.059 176.184 458.464 176.203C458.869 176.223 459.265 176.261 459.65 176.319C460.461 176.358 461.136 176.464 461.677 176.638C462.043 176.908 462.226 177.245 462.226 177.651C462.226 177.728 462.198 177.931 462.14 178.259C462.082 178.567 461.841 178.944 461.416 179.387C460.992 179.831 460.509 180.092 459.969 180.169L459.101 180.082C458.155 179.966 457.47 179.899 457.045 179.879L456.119 179.85L456.09 179.995C456.052 180.458 456.003 180.912 455.946 181.356C455.946 181.626 455.926 181.857 455.888 182.05C455.791 183.305 455.743 184.154 455.743 184.597L455.685 185.292C455.685 186.99 455.714 188.119 455.772 188.679C455.772 188.91 455.81 189.412 455.888 190.184C455.965 190.608 456.032 191.023 456.09 191.428C456.167 191.833 456.254 192.219 456.351 192.586C456.486 193.184 456.698 193.753 456.988 194.294C457.277 194.815 457.624 195.075 458.03 195.075C458.377 195.075 458.753 194.728 459.158 194.033C459.351 193.724 459.467 193.512 459.506 193.396C459.892 192.432 460.297 191.949 460.721 191.949C461.204 191.949 461.503 192.818 461.619 194.554C461.599 194.593 461.59 194.641 461.59 194.699V194.873C461.59 195.509 461.349 196.252 460.866 197.101C460.48 197.68 460.027 198.114 459.506 198.404C458.985 198.674 458.367 198.809 457.653 198.809ZM456.64 179.85C456.486 179.85 456.341 179.841 456.206 179.822H456.119V179.85H456.64Z"
        fill="white" />
    <g clip-path="url(#clip1)">
        <path
            d="M535.293 170.363L535.294 170.362C539.983 164.054 547.876 160.129 555.815 160.188L555.816 160.188C564.235 160.246 572.572 164.787 577.718 171.684C582.861 178.578 584.978 187.697 583.9 196.449L583.9 196.451C581.968 212.188 570.828 225.302 559.161 238.329L559.157 238.333C557.148 240.585 555.869 240.583 555.093 240.411C553.861 240.137 552.18 239 550.147 236.606C547.152 233.081 544.598 228.384 542.382 224.31C541.578 222.832 540.819 221.435 540.099 220.207C535.349 212.098 531.462 203.712 530.145 194.931C528.828 186.156 530.331 177.033 535.293 170.363Z"
            fill="#F98E12" stroke="#FFF2EA" stroke-width="7.64878" />
        <path
            d="M544.389 199.787C543.203 195.769 543.779 191.21 546.016 187.631C546.592 186.719 547.27 185.841 548.185 185.267C549.066 184.693 550.082 184.457 551.099 184.187C553.505 183.647 556.012 183.14 558.452 183.613C563.806 184.693 567.194 190.366 567.635 195.769C567.838 198.537 567.432 201.475 565.839 203.771C564.755 205.324 563.23 206.506 561.637 207.519C554.047 212.314 546.829 208.026 544.389 199.787Z"
            fill="#2B8354" />
    </g>
    <g clip-path="url(#clip2)">
        <path
            d="M7.2722 195.846L7.27276 195.846C10.8795 190.978 16.948 187.952 23.0474 187.998L23.0487 187.998C29.5172 188.043 35.9271 191.543 39.8855 196.866C43.8425 202.187 45.4718 209.226 44.6418 215.983L44.6416 215.984C43.1557 228.132 34.5848 238.253 25.6114 248.306L25.6083 248.309C24.0625 250.047 23.0839 250.04 22.4965 249.909C21.5537 249.699 20.2625 248.824 18.6978 246.976C16.3946 244.256 14.4295 240.631 12.7251 237.487C12.1067 236.346 11.5226 235.269 10.9691 234.321C7.31533 228.062 4.32426 221.59 3.31093 214.812C2.29811 208.038 3.45483 200.995 7.2722 195.846Z"
            fill="#F98E12" stroke="#FFF2EA" stroke-width="5.90286" />
        <path
            d="M14.2582 218.558C13.3459 215.457 13.789 211.939 15.5094 209.177C15.9525 208.473 16.4738 207.796 17.1776 207.353C17.8553 206.91 18.6373 206.727 19.4193 206.519C21.2699 206.102 23.1988 205.711 25.0756 206.076C29.194 206.91 31.8006 211.288 32.1394 215.457C32.2958 217.594 31.983 219.861 30.7579 221.633C29.9238 222.832 28.7509 223.744 27.5258 224.525C21.687 228.226 16.135 224.916 14.2582 218.558Z"
            fill="#2B8354" />
    </g>
    <path
        d="M334.197 114.86C333.766 112.743 333.192 110.654 332.259 108.709C329.402 102.745 323.029 92.2605 314.832 95.6646C307.166 98.8543 305.444 117.563 312.277 121.739C322.741 128.147 326.058 154.851 378.827 141.135C382.502 140.176 385.157 136.229 383.492 132.696C380.621 129.177 379.688 132.782 374.994 128.476C370.099 123.999 337.743 132.295 334.197 114.86Z"
        fill="#D86C00" />
    <defs>
        <clipPath id="clip0">
            <rect width="531.59" height="85.0927" fill="white" transform="translate(23.9024 202.256)" />
        </clipPath>
        <clipPath id="clip1">
            <rect width="62.1463" height="87.961" fill="white" transform="translate(525.854 156.363)" />
        </clipPath>
        <clipPath id="clip2">
            <rect width="47.8049" height="67.8829" fill="white" transform="translate(0 185.046)" />
        </clipPath>
    </defs>
</svg>