<svg width="484" height="252" viewBox="0 0 484 252" fill="none" xmlns="http://www.w3.org/2000/svg">
<path d="M418.821 239.261C383.863 252.978 345.127 252.003 307.595 250.834C256.336 249.235 205.086 247.635 153.828 246.036C106.559 244.56 54.966 241.422 19.9031 209.69C2.52098 197.238 -3.97314 165.734 2.39795 145.32C134.275 153.95 265.273 159.53 396.86 147.227C417.011 145.346 486.135 115.916 483.569 148.238C478.05 217.871 443.119 229.726 418.821 239.261Z" fill="#666666"/>
<path d="M482.409 157.438C480.73 165.593 477.461 172.984 473.322 179.469C471.284 182.685 469.025 185.673 466.635 188.424C445.281 213.012 415.42 219.005 387.255 222.819C340.918 229.084 294.326 232.213 247.742 232.187C226.353 232.178 204.858 232.213 183.627 228.997C164.962 226.167 146.226 229.954 127.368 229.084C103.131 227.968 78.9829 223.118 55.5988 214.585C38.287 208.258 19.6307 197.422 9.6391 178.986C6.72158 173.625 4.54223 167.614 3.3471 160.883C0.552611 145.197 4.14678 129.116 11.2472 115.82C15.8696 107.129 22.0034 99.6328 28.8227 94.202C46.0905 80.458 66.8295 77.1451 86.9006 74.7988C208.03 60.6418 330.777 70.8179 449.622 104.861C458.023 107.269 466.907 110.178 473.524 117.068C474.851 118.438 476.09 119.968 477.206 121.69C483.454 131.251 484.922 145.25 482.409 157.438Z" fill="#999999"/>
<path d="M482.409 157.438C480.73 165.593 477.461 172.984 473.322 179.469C438.4 179.434 403.477 184.25 368.555 184.874C275.326 186.552 182.089 185.313 88.8601 185.216C62.453 185.19 36.046 179.012 9.63893 178.986C6.72141 173.625 4.54206 167.615 3.34693 160.883C1.15 148.545 2.90754 135.961 7.21352 124.687C8.3735 121.62 9.7268 118.658 11.2471 115.82C44.4294 115.117 77.9633 116.637 111.014 116.655C195.323 116.707 279.641 114.115 363.95 114.168C371.868 114.168 434.718 117.05 473.524 117.068C474.851 118.439 476.09 119.968 477.206 121.69C478.076 123.017 478.85 124.432 479.526 125.917C483.788 135.109 484.57 146.946 482.409 157.438Z" fill="#666666"/>
<path d="M482.409 157.438C480.73 165.593 477.461 172.984 473.322 179.469C438.4 179.434 403.477 184.25 368.555 184.874C275.326 186.552 182.089 185.313 88.8601 185.216C62.453 185.19 36.046 179.012 9.63893 178.986C6.72141 173.625 4.54206 167.615 3.34693 160.883C1.15 148.545 2.90754 135.961 7.21352 124.687C36.5469 124.739 65.9945 125.68 95.1169 125.697C189.585 125.75 284.061 123.158 378.529 123.21C386.025 123.21 437.521 125.267 479.526 125.917C483.788 135.109 484.57 146.946 482.409 157.438Z" fill="#CCCCCC"/>
<path d="M57.7253 158.633C77.0055 158.651 96.2769 158.66 115.557 158.677C115.109 155.013 114.67 151.348 114.221 147.684C101.602 145.496 88.7458 144.687 75.951 145.267C72.3392 145.425 60.3528 144.555 57.7516 147.148C56.6707 148.202 58.0592 158.633 57.7253 158.633Z" fill="#FFF2EA"/>
<path d="M201.562 158.633C220.843 158.651 240.114 158.66 259.394 158.677C258.946 155.013 258.507 151.348 258.059 147.684C245.439 145.496 232.583 144.687 219.788 145.267C216.176 145.425 204.19 144.555 201.589 147.148C200.517 148.202 201.905 158.633 201.562 158.633Z" fill="white"/>
<path d="M345.408 158.633C364.689 158.651 383.96 158.66 403.24 158.677C402.792 155.013 402.353 151.348 401.904 147.684C389.285 145.496 376.429 144.687 363.634 145.267C360.022 145.425 348.036 144.555 345.435 147.148C344.363 148.202 345.751 158.633 345.408 158.633Z" fill="#FFF2EA"/>
<path opacity="0.7" d="M239 170C361.055 170 460 163.732 460 156C460 148.268 361.055 142 239 142C116.945 142 18 148.268 18 156C18 163.732 116.945 170 239 170Z" fill="#666666"/>
<g clip-path="url(#clip0)">
<path d="M479.36 80.33C479.36 92.53 477.76 104.72 474.55 116.44C472.49 123.95 469.29 131.9 462.66 135.62C457.69 138.4 451.73 138.26 446.1 138.05C426.82 137.34 407.53 136.63 388.26 135.92C383.06 135.73 377.6 135.59 372.94 138.02C366.48 141.39 363.13 148.85 357.85 153.97C347.91 163.62 330.48 163.15 321.02 152.99C317.49 149.2 314.95 144.26 310.56 141.6C306.53 139.15 301.65 139.01 296.98 138.94C238.94 138.08 180.89 137.21 122.85 136.35C117.62 136.27 112.05 136.29 107.65 139.24C103.22 142.2 100.91 147.54 97.52 151.74C86.61 165.29 62.84 163.6 53.82 148.63C51.98 145.59 50.67 142.13 48.22 139.58C39.93 131 26.3 137.91 15.46 142.55V102.09C13.5 102.35 11.54 102.59 9.57 102.82C10.4 77.1 10.21 51.29 9 25.61C11.17 25.32 13.32 25.02 15.46 24.69V0C18.24 1.32 21.63 2.48 28.66 3.12C56.5 5.62 98.03 3.42 119.82 2.64C150.16 1.55 180.54 1.53 210.89 1.5C279.81 1.44 348.72 1.38 417.64 1.3C431.39 1.28 446.31 1.69 457.04 10.61C463.81 16.25 467.93 24.6 471.02 33.01C476.57 48.08 479.36 64.21 479.36 80.33Z" fill="#FFF2EA"/>
<path d="M15.46 24.6902C16.11 24.6102 16.76 24.5102 17.41 24.4102C39.77 20.9902 62.43 18.6002 85 20.2402C97.43 21.1502 109.72 23.2502 122.13 24.3002C135.93 25.4702 149.8 25.3002 163.65 25.1302C255.37 24.0002 347.11 22.8802 438.85 21.7502C443.29 21.7102 447.92 21.6902 451.86 23.7202C457.8 26.7602 460.64 33.5802 462.64 39.9502C468.32 58.1002 470.94 77.2002 470.35 96.2102C470.24 99.7402 466.39 105.64 464.26 102.81C457.68 94.0402 445.07 93.2002 434.09 93.1402C406.34 92.9802 378.59 92.8102 350.84 92.6502C341.76 92.6102 332.66 92.5402 323.59 93.1102C311.98 93.8202 300.46 95.5302 288.96 97.2402C274.27 99.4302 261.02 102.31 246.26 103.91C237.7 104.83 229.12 105.48 220.52 105.87C197.95 106.91 175.3 106.14 152.86 103.57C144.06 102.57 135.29 101.28 126.57 99.7202C106.14 96.0602 85.13 87.6102 64.99 92.6502C48.67 96.7402 32.13 99.8902 15.46 102.09" fill="#013507"/>
<path d="M150.94 49.1002C153.17 69.8602 153.69 90.9101 152.45 111.81C152.09 117.97 152.01 125.4 156.01 128.85C157.96 130.53 160.43 130.78 162.77 130.92C177.81 131.87 192.89 130.72 207.94 129.58C210.59 129.38 213.39 129.11 215.57 127.21C219.19 124.07 219.89 117.74 220.21 112.15C221.44 89.8302 221.37 67.3902 219.99 45.0802C219.68 40.1002 219.02 34.4702 215.79 31.6602C207.55 24.4802 187.52 29.8802 177.52 29.6802C164.02 29.4202 148.9 25.5302 150.94 49.1002Z" fill="#D86C00"/>
<path d="M375.19 49.1002C377.42 69.8602 377.94 90.9101 376.7 111.81C376.34 117.97 376.26 125.4 380.26 128.85C382.21 130.53 384.68 130.78 387.02 130.92C402.07 131.87 417.14 130.72 432.19 129.58C434.84 129.38 437.64 129.11 439.82 127.21C443.44 124.07 444.14 117.74 444.46 112.15C445.68 89.8302 445.61 67.3902 444.24 45.0802C443.93 40.1002 443.27 34.4702 440.04 31.6602C431.8 24.4802 411.77 29.8802 401.77 29.6802C388.26 29.4202 373.15 25.5302 375.19 49.1002Z" fill="#D86C00"/>
<path d="M414.43 55.5898C415.04 72.8498 415.18 90.3798 414.84 107.75C414.75 112.88 414.72 119.05 415.81 121.94C416.34 123.34 417 123.55 417.64 123.67C421.7 124.47 425.77 123.5 429.83 122.55C430.55 122.38 431.3 122.16 431.89 120.57C432.87 117.95 433.06 112.69 433.14 108.05C433.47 89.4798 433.45 70.8098 433.08 52.2598C433 48.1198 432.81 43.4398 431.94 41.0998C429.71 35.1398 424.31 39.6198 421.61 39.4498C417.96 39.2198 413.87 35.9898 414.43 55.5898Z" fill="#FFF2EA"/>
<path d="M405.85 55.5898C405.24 72.8498 405.12 90.3798 405.44 107.75C405.53 112.88 405.56 119.05 404.47 121.94C403.94 123.34 403.28 123.55 402.64 123.67C398.58 124.47 394.51 123.5 390.45 122.55C389.73 122.38 388.98 122.16 388.39 120.57C387.41 117.95 387.22 112.69 387.14 108.05C386.81 89.4798 386.83 70.8098 387.2 52.2598C387.28 48.1198 387.46 43.4398 388.34 41.0998C390.57 35.1398 395.97 39.6198 398.67 39.4498C402.32 39.2198 406.39 35.9898 405.85 55.5898Z" fill="#FFF2EA"/>
<path d="M190.21 55.5898C190.82 72.8498 190.96 90.3798 190.62 107.75C190.53 112.88 190.5 119.05 191.59 121.94C192.12 123.34 192.78 123.55 193.42 123.67C197.48 124.47 201.55 123.5 205.61 122.55C206.33 122.38 207.08 122.16 207.67 120.57C208.65 117.95 208.84 112.69 208.92 108.05C209.25 89.4798 209.23 70.8098 208.86 52.2598C208.78 48.1198 208.59 43.4398 207.72 41.0998C205.49 35.1398 200.09 39.6198 197.39 39.4498C193.74 39.2198 189.65 35.9898 190.21 55.5898Z" fill="#FFF2EA"/>
<path d="M181.63 55.5898C181.02 72.8498 180.88 90.3798 181.22 107.75C181.31 112.88 181.34 119.05 180.25 121.94C179.72 123.34 179.06 123.55 178.42 123.67C174.36 124.47 170.29 123.5 166.23 122.55C165.51 122.38 164.76 122.16 164.17 120.57C163.19 117.95 163 112.69 162.92 108.05C162.59 89.4798 162.61 70.8098 162.98 52.2598C163.06 48.1198 163.25 43.4398 164.12 41.0998C166.35 35.1398 171.75 39.6198 174.45 39.4498C178.1 39.2198 182.19 35.9898 181.63 55.5898Z" fill="#FFF2EA"/>
<path d="M113.24 48.2501C114.13 57.8301 114.33 67.5401 113.83 77.1801C113.69 80.0201 113.66 83.4501 115.23 85.0501C116 85.8301 116.98 85.9401 117.9 86.0001C123.85 86.4401 129.81 85.9101 135.76 85.3801C136.81 85.2901 137.91 85.1601 138.77 84.2901C140.21 82.8401 140.49 79.9201 140.6 77.3501C141.08 67.0501 141.05 56.7001 140.51 46.4001C140.39 44.1101 140.12 41.5001 138.86 40.2001C135.6 36.8901 127.69 39.3701 123.74 39.2801C118.4 39.1701 112.43 37.3901 113.24 48.2501Z" fill="#FFF2EA"/>
<path d="M244.11 86.0998C256.77 85.0698 269.61 84.8398 282.35 85.4098C286.11 85.5798 290.64 85.6098 292.74 83.7698C293.77 82.8798 293.91 81.7398 294.01 80.6598C294.59 73.7298 293.89 66.7998 293.18 59.8898C293.06 58.6698 292.9 57.3898 291.73 56.3798C289.81 54.7098 285.96 54.3798 282.55 54.2398C268.94 53.6798 255.25 53.7098 241.64 54.3498C238.61 54.4898 235.18 54.7998 233.46 56.2898C229.09 60.0798 232.37 69.2898 232.24 73.8898C232.1 80.0898 229.73 87.0398 244.11 86.0998Z" fill="#D86C00"/>
<path d="M243.22 46.0699C255.88 45.7599 268.72 45.6999 281.46 45.8699C285.22 45.9199 289.75 45.9299 291.86 45.3899C292.89 45.1199 293.03 44.7799 293.12 44.4699C293.7 42.4099 293 40.3299 292.29 38.2699C292.17 37.9099 292.01 37.5199 290.84 37.2199C288.92 36.7199 285.07 36.6299 281.66 36.5799C268.05 36.4099 254.36 36.4199 240.75 36.6099C237.72 36.6599 234.29 36.7499 232.57 37.1899C228.2 38.3099 231.48 41.0799 231.35 42.4499C231.21 44.2699 228.84 46.3499 243.22 46.0699Z" fill="#F98E12"/>
<path d="M316.46 86.0998C329.12 85.0698 341.96 84.8398 354.7 85.4098C358.46 85.5798 362.99 85.6098 365.09 83.7698C366.12 82.8798 366.26 81.7398 366.36 80.6598C366.94 73.7298 366.24 66.7998 365.53 59.8898C365.41 58.6698 365.25 57.3898 364.08 56.3798C362.16 54.7098 358.3 54.3798 354.9 54.2398C341.29 53.6798 327.6 53.7098 313.99 54.3498C310.96 54.4898 307.53 54.7998 305.81 56.2898C301.44 60.0798 304.72 69.2898 304.59 73.8898C304.46 80.0898 302.09 87.0398 316.46 86.0998Z" fill="#D86C00"/>
<path d="M50.31 81.3702C62.97 79.8902 75.8101 79.5402 88.55 80.3702C92.31 80.6202 96.84 80.6702 98.94 78.0002C99.97 76.7002 100.11 75.0702 100.2 73.5102C100.78 63.5102 100.08 53.4902 99.37 43.4802C99.25 41.7202 99.09 39.8602 97.92 38.4102C96 36.0102 92.15 35.5402 88.74 35.3202C75.13 34.5102 61.44 34.5602 47.83 35.4802C44.8 35.6802 41.37 36.1202 39.65 38.2702C35.28 43.7502 38.56 57.0602 38.43 63.7102C38.31 72.6902 35.93 82.7302 50.31 81.3702Z" fill="#F98E12"/>
<path d="M315.57 46.0699C328.23 45.7599 341.07 45.6999 353.81 45.8699C357.57 45.9199 362.1 45.9299 364.21 45.3899C365.24 45.1199 365.38 44.7799 365.47 44.4699C366.05 42.4099 365.35 40.3299 364.64 38.2699C364.52 37.9099 364.36 37.5199 363.19 37.2199C361.27 36.7199 357.42 36.6299 354.01 36.5799C340.4 36.4099 326.71 36.4199 313.1 36.6099C310.07 36.6599 306.64 36.7499 304.92 37.1899C300.55 38.3099 303.83 41.0799 303.7 42.4499C303.57 44.2699 301.2 46.3499 315.57 46.0699Z" fill="#F98E12"/>
<path d="M94.07 129.16C93.15 124.66 91.01 120.71 87.63 117.28C85.75 115.39 83.55 113.94 81.04 112.96C78.53 111.97 75.97 111.48 73.36 111.48C67.01 111.48 62.01 114.21 58.41 119.68C57.86 120.71 57.39 121.74 57.03 122.81C56.99 122.99 56.93 123.16 56.83 123.3C55.79 126.27 55.26 129.23 55.26 132.23C55.26 137.33 56.66 142.02 59.5 146.29C60.83 148.56 62.68 150.43 65.06 151.88C68.23 153.71 71.63 154.61 75.28 154.61C78.2 154.61 81.04 153.89 83.79 152.49C85.88 151.24 87.64 149.74 89.06 147.99C90.22 146.57 91.36 144.7 92.49 142.41C93.37 140.44 93.93 138.27 94.21 135.9C94.35 134.98 94.41 134.09 94.41 133.21C94.41 131.67 94.31 130.33 94.07 129.16ZM82.62 134.95L82.55 135.12C82.32 136.43 81.8 137.94 80.98 139.66V139.77C80.65 140.42 80.26 141.05 79.81 141.63C78.39 143.67 77.29 144.83 76.51 145.08C75.73 145.34 75.23 145.47 75 145.47C73.81 145.47 72.38 144.53 70.68 142.67C68.44 139.39 67.32 135.96 67.32 132.39C67.32 131.08 67.44 129.78 67.73 128.5C68.1 126.46 68.77 124.55 69.75 122.76C70.74 120.96 71.85 120.07 73.08 120.07C74.22 120.07 75.79 120.76 77.81 122.15C78.82 122.99 79.79 124.16 80.73 125.68C81.66 127.19 82.26 128.69 82.54 130.19C82.72 131.01 82.82 132.01 82.82 133.14C82.82 133.73 82.76 134.32 82.62 134.95Z" fill="#D86C00"/>
<path d="M337.94 154.61C334.29 154.61 330.89 153.71 327.72 151.88C325.35 150.43 323.49 148.56 322.16 146.29C319.32 142.01 317.92 137.33 317.92 132.23C317.92 129.23 318.45 126.27 319.5 123.3C319.59 123.16 319.66 122.99 319.7 122.8C320.06 121.74 320.53 120.71 321.07 119.68C324.68 114.2 329.67 111.47 336.02 111.47C338.63 111.47 341.19 111.97 343.7 112.95C346.21 113.93 348.41 115.38 350.29 117.27C353.68 120.7 355.81 124.65 356.74 129.15C356.97 130.32 357.08 131.66 357.08 133.21C357.08 134.08 357.02 134.97 356.88 135.89C356.6 138.26 356.04 140.43 355.16 142.4C354.02 144.69 352.88 146.57 351.73 147.99C350.31 149.74 348.55 151.24 346.46 152.48C343.7 153.89 340.87 154.61 337.94 154.61ZM337.67 145.47C337.9 145.47 338.4 145.35 339.18 145.08C339.96 144.83 341.05 143.67 342.47 141.63C342.92 141.05 343.31 140.43 343.64 139.77V139.66C344.47 137.94 344.98 136.43 345.22 135.12L345.28 134.95C345.42 134.33 345.48 133.73 345.48 133.14C345.48 132.02 345.39 131.02 345.2 130.19C344.92 128.69 344.33 127.19 343.39 125.68C342.45 124.17 341.49 123 340.47 122.15C338.46 120.76 336.88 120.08 335.74 120.08C334.51 120.08 333.4 120.97 332.41 122.76C331.43 124.55 330.76 126.46 330.38 128.5C330.1 129.78 329.97 131.07 329.97 132.39C329.97 135.96 331.09 139.4 333.32 142.67C335.03 144.53 336.49 145.47 337.67 145.47Z" fill="#D86C00"/>
<path d="M17.0201 114.46C17.0501 118.42 17.1601 118.83 17.3201 122.79C17.3701 124.07 17.4901 125.47 18.5801 126.4C19.4201 127.1 20.6901 127.35 21.8701 127.54C28.3501 128.52 35.0301 128.52 41.5001 127.52C43.0401 127.29 44.6501 126.96 45.8401 126.1C47.9301 124.57 47.9801 121.98 48.5701 119.73C50.4601 112.66 58.9201 107.9 67.4901 106.26C73.9801 105.01 81.2901 105.24 86.7501 108.4C88.7901 109.59 90.4901 111.12 92.0201 112.72C95.1301 115.97 97.6701 119.59 99.5601 123.43C100.17 124.68 100.78 126.02 102.04 126.88C103.38 127.78 105.24 127.97 106.97 128.11C117.13 128.87 127.37 128.87 137.51 128.14C138.77 128.05 140.05 127.94 141.18 127.44C142.48 126.86 143.38 125.83 144.07 124.77C146.88 120.42 146.77 115.23 146.58 110.32C146.56 109.81 146.52 109.26 146.14 108.87C145.8 108.53 145.25 108.36 144.74 108.22C139.76 106.86 134.67 105.79 129.51 105.02C120.07 103.63 118.96 104.43 109.56 102.84C101.91 101.54 90.5801 98.08 82.7901 97.55C75.5201 97.05 67.6401 97.66 60.4101 98.55C51.6401 99.63 38.7601 104.73 30.0101 105.79C22.7101 106.64 16.9401 107.14 17.0201 114.46Z" fill="#F98E12"/>
<path d="M224.27 125.27C224.33 126.41 224.5 127.69 225.53 128.41C226.36 128.99 227.5 129.02 228.54 129.03C253.78 129.39 279.01 129.15 304.24 128.31C305.71 128.26 307.22 128.2 308.52 127.62C311.58 126.25 312.16 122.78 313.31 119.97C315.45 114.73 320.72 110.65 326.81 108.91C332.9 107.16 339.67 107.63 345.62 109.69C350.79 111.47 355.52 114.53 358.14 118.77C359.57 121.11 360.36 123.76 362.15 125.93C363.94 128.08 367.3 129.66 370.06 128.52C373.21 127.23 373.57 123.51 373.49 120.48C373.32 114.39 373.16 108.31 372.99 102.22C372.94 100.35 372.74 98.2098 371.01 97.0798C369.82 96.2998 368.23 96.2398 366.76 96.2098C346.25 95.7098 325.6 95.2298 305.36 98.0798C296.79 99.2798 288.35 101.08 279.86 102.62C268.67 104.66 257.35 106.27 246.01 107.46C241.36 107.94 236.83 108.32 232.15 108.26C229.31 108.23 226.36 108.03 224.89 110.51C222.71 114.19 224.02 121.28 224.27 125.27Z" fill="#F98E12"/>
<path d="M449.72 100.27C448.63 101.19 448.52 102.81 448.5 104.25C448.42 110.65 448.48 117.06 448.67 123.46C448.7 124.29 448.73 125.16 449.18 125.85C449.88 126.96 451.35 127.24 452.64 127.43C456.32 127.96 460.48 128.38 463.36 126.03C466.42 123.53 466.7 119.04 466.71 115.09C466.73 112.47 466.63 109.58 464.88 107.65C463.71 106.37 462.01 105.73 460.67 104.62C457.94 102.33 454.03 96.6001 449.72 100.27Z" fill="#F98E12"/>
<path d="M46.9799 10.6899L28.0999 10.7399C24.8199 10.7399 22.1499 11.1099 21.9999 11.5799C21.5199 13.0199 21.0299 14.4399 20.5499 15.8699C20.4099 16.2899 20.3499 16.7599 22.1699 17.0999C24.3499 17.5099 28.3699 17.5699 31.9399 17.5999C63.3399 17.8699 94.8699 18.0699 126.23 17.6899C139.06 17.5299 154.32 17.6899 167.18 17.6899C177.53 17.6899 185.36 17.4399 195.68 17.5299C268.69 18.2299 335.74 17.3099 414.9 17.9799C422.83 18.0399 430.83 18.1699 438.55 17.8899C440.47 17.8299 442.26 17.6999 443.4 17.4699C444.76 17.1999 444.85 16.8499 444.88 16.5199C445.04 15.1499 445.18 13.7599 445.33 12.3799C445.36 12.0199 445.36 11.6499 443.97 11.3699C440.65 10.6699 431.88 10.9299 428.35 10.8599C421.62 10.6999 414.94 10.6899 408.14 10.7199C324.91 11.1999 245.56 9.80989 164.29 10.5799C155.05 10.6699 145.84 10.8099 136.6 10.8899C127.53 10.9699 118.43 10.9999 109.35 11.0099C90.5599 11.0799 65.7399 10.6399 46.9799 10.6899Z" fill="#F98E12"/>
<path d="M9 25.61V0H15.46L17.02 16.17L15.23 26.21L9 25.61Z" fill="#FFF2EA"/>
<path d="M9.57007 102.82V142.67H15.4601L16.0101 102.82L14.7401 101.28L9.57007 102.82Z" fill="#FFF2EA"/>
</g>
<defs>
<clipPath id="clip0">
<rect width="470.36" height="160.96" fill="white" transform="translate(9)"/>
</clipPath>
</defs>
</svg>
