<svg width="396" height="39" viewBox="0 0 396 39" fill="none" xmlns="http://www.w3.org/2000/svg">
<path d="M11.4627 30.88C11.4627 30.8 11.4627 30.72 11.4627 30.64C11.4627 29.68 11.9427 28.68 12.0627 27.72C12.3427 24.96 12.5027 22.16 12.5027 19.4C12.5027 15.6 12.1027 11.48 10.3427 8.04C9.46266 6.36 7.54266 4.4 5.50266 4.4C4.66266 4.4 3.94266 4.72 3.34266 5.24C0.942656 7.28 1.02266 11.52 0.942656 14.4C0.862656 16.64 0.782656 18.92 0.782656 21.2C0.782656 25.36 0.582656 35.16 6.66266 35.16C8.14266 35.16 9.42266 34.4 10.2627 33.24C11.0627 34 13.2227 36.76 14.2227 36.76C14.4227 36.76 14.7427 35.92 14.8627 35.76C14.8627 35.72 15.2627 35.16 15.2627 35.08C15.2627 33.88 11.8227 32.32 11.4627 30.88ZM6.90266 32.16C6.74266 32.2 6.54266 32.2 6.38266 32.2C3.50266 32.2 3.50266 25.6 3.50266 23.72C3.50266 22.48 3.58266 21.28 3.58266 20.04C3.58266 18.48 3.46266 16.96 3.46266 15.4C3.46266 13.64 3.42266 7.48 6.10266 7.48C9.66266 7.48 9.14266 17.36 9.14266 19.64C9.14266 21.44 9.38266 23.28 9.38266 25.12C9.38266 27 9.30266 31.56 6.90266 32.16ZM31.4392 8H31.0392C30.0392 8 28.8392 8.04 28.8392 9.36C28.8392 10.12 28.9192 10.84 28.9192 11.56C28.9192 13.56 28.8792 15.56 28.8792 17.56C28.8792 20.76 29.7192 29.08 24.7592 29.08C20.1592 29.08 19.9592 23.28 19.9592 19.92C19.9592 16.4 20.0792 12.92 20.0792 9.4C20.0792 8.84 19.3992 8.84 19.0392 8.84C18.2792 8.84 17.7992 8.88 17.1992 9.4C17.0392 9.56 16.8792 17.08 16.8792 18C16.8792 22.68 17.3192 31.96 23.8392 31.96C31.1592 31.96 32.3592 24.04 32.3592 18.32C32.3592 15.28 31.9992 12.28 31.9992 9.24C31.9992 8.72 31.9992 8.24 31.4392 8ZM39.1492 3.44C38.9092 1.96 38.4292 2.08 37.6692 2.08C37.1092 2.08 36.4292 1.72 36.1092 2.72C36.0292 2.84 36.0292 3 36.0292 3.24C35.9892 4.32 35.9492 5.4 35.9092 6.44C35.8692 7.24 35.7092 9.64 36.0692 10.28C36.3492 10.88 36.4292 10.8 36.8692 10.76C37.5092 10.6 37.6292 10.52 38.3092 10.44C38.5892 10.36 38.8692 10.04 38.9092 9.48C38.9892 7.92 39.3892 4.96 39.1492 3.48V3.44ZM54.7833 25.16H54.6233C53.9033 25.16 53.2233 25.04 52.5033 25.04C52.1833 25.04 51.7833 25.04 51.5033 25.24C50.7033 25.72 51.6633 30.68 49.0233 30.68C46.3433 30.68 46.3833 24.88 46.1833 23.04C46.1033 22.32 45.9833 21.6 45.9833 20.88C45.9833 19.48 47.2633 19.2 48.3833 19.2C49.7433 19.2 51.1033 19.32 52.4633 19.32C53.9433 19.32 54.9433 19.04 54.9433 17.32C54.9433 13.68 53.0233 7.2 48.5433 7.2C42.7833 7.2 42.4233 16.68 42.4233 20.76C42.4233 24.68 43.7033 33.92 48.9833 33.92C53.0233 33.92 55.1833 29.44 55.1833 25.92C55.1833 25.6 55.1433 25.24 54.7833 25.16ZM46.4233 15.24V14.36C46.4233 13.08 46.4233 10.32 48.2633 10.32C50.1433 10.32 51.5033 13.64 51.5033 15.16C51.5033 16.04 50.9433 16.04 50.2633 16.12C49.3033 16.24 48.3833 16.56 47.4233 16.56C47.1433 16.56 46.3433 16.52 46.3433 16.12C46.3433 15.8 46.3833 15.52 46.4233 15.24ZM66.7673 21.68C65.3673 19.12 61.2873 15.96 61.2873 12.96C61.2873 12.44 61.3673 11.24 62.1273 11.24C63.8073 11.24 62.4073 13.4 64.3673 13.4C65.0073 13.4 65.6473 13.32 66.2873 13.24C66.2073 11.04 64.6073 8.44 62.2073 8.44C59.9273 8.44 58.4073 10.6 58.4073 12.72C58.4073 18.24 65.2873 21 65.2873 27C65.2873 28.04 64.8073 29.8 63.4873 29.8C61.8873 29.8 62.0073 27.8 62.0073 26.68C62.0073 25.8 61.1673 25.24 60.3273 25.24C59.2473 25.24 58.8473 26.12 58.8473 27.08C58.8473 29.6 60.6473 32.68 63.4473 32.68C66.5273 32.68 68.1273 29.56 68.1273 26.84C68.1273 25.04 67.6073 23.24 66.7673 21.68ZM82.1008 35.36C81.7008 35 80.3808 33.8 79.9408 33.8C79.5008 33.8 79.0608 34.88 78.1008 34.88C75.4208 34.88 75.4208 29.56 75.4208 27.72C75.4208 22.72 75.7008 17.68 76.0208 12.68C76.6208 12.68 80.1008 12.68 80.1008 11.96C80.1008 11.56 79.9808 11.2 79.9808 10.8C79.9808 10.56 80.0208 10.36 80.0208 10.12C80.0208 9.52 79.3408 9.44 78.9008 9.44C78.1008 9.44 77.3408 9.64 76.5408 9.64H76.2208C76.3408 7.88 76.5808 6.12 76.5808 4.36C76.5808 3.12 75.7808 2.48 74.5408 2.48C72.6608 2.48 73.1408 5.28 73.1408 6.44C73.1408 7.44 73.0608 8.44 73.0608 9.48H72.7808C70.6608 9.48 70.3808 9.52 70.3808 11.72C70.3808 11.88 70.3808 12.04 70.4208 12.16C70.9808 12.56 72.3008 12.6 73.0208 12.64C72.9808 17.28 72.4608 21.88 72.4608 26.52C72.4608 30.24 72.4608 38.64 77.7808 38.64C79.1008 38.64 82.2608 37.24 82.2608 35.68C82.2608 35.56 82.1808 35.44 82.1008 35.36ZM88.5977 22.08C89.9977 21.72 95.0377 21.6 96.7577 21.6C97.7977 21.6 98.8377 21.72 99.8777 21.72C99.9977 21.72 100.158 21.68 100.278 21.6C100.518 21.24 100.438 18.84 100.478 18.24C96.9977 18.36 93.5177 18.44 90.0777 18.44C89.3977 18.44 88.7177 18.28 88.0377 18.28C87.6777 18.28 87.3577 18.32 87.0377 18.44C86.3977 18.64 86.5177 18.6 86.5177 19.44C86.5177 19.8 86.5577 22.24 86.7977 22.44C86.8777 22.32 87.1977 22.44 87.3177 22.44C87.7577 22.44 88.1577 22.2 88.5977 22.08ZM112.626 1.92C111.906 1.48 111.066 1.28 110.226 1.28C105.546 1.28 104.426 5.8 104.106 9.6C103.786 13.08 103.826 16.6 103.826 20.12C103.826 25.2 103.906 32.92 107.866 36.64C108.666 37.4 109.706 37.88 110.826 37.88C112.186 37.88 113.426 37.16 114.306 36.12C116.226 33.84 116.106 30.52 116.266 27.72C115.626 27.84 114.946 27.92 114.266 27.96C113.346 28 113.266 27.88 113.026 28.88C112.746 29.84 112.946 30.88 112.706 31.84C112.466 32.84 111.666 34.36 110.506 34.36C106.626 34.36 106.906 20.6 106.906 17.84C106.906 16.48 106.826 15.12 106.826 13.76C106.826 11.6 106.826 4.8 109.986 4.8C113.906 4.8 112.706 12.56 113.386 14.96C113.626 15.88 113.786 15.96 114.746 15.96C115.306 15.96 115.866 15.92 116.426 15.92C116.466 15.48 116.466 15.04 116.466 14.6C116.466 11.08 115.946 3.96 112.626 1.92ZM132.557 25.16H132.397C131.677 25.16 130.997 25.04 130.277 25.04C129.957 25.04 129.557 25.04 129.277 25.24C128.477 25.72 129.437 30.68 126.797 30.68C124.117 30.68 124.157 24.88 123.957 23.04C123.877 22.32 123.757 21.6 123.757 20.88C123.757 19.48 125.037 19.2 126.157 19.2C127.517 19.2 128.877 19.32 130.237 19.32C131.717 19.32 132.717 19.04 132.717 17.32C132.717 13.68 130.797 7.2 126.317 7.2C120.557 7.2 120.197 16.68 120.197 20.76C120.197 24.68 121.477 33.92 126.757 33.92C130.797 33.92 132.957 29.44 132.957 25.92C132.957 25.6 132.917 25.24 132.557 25.16ZM124.197 15.24V14.36C124.197 13.08 124.197 10.32 126.037 10.32C127.917 10.32 129.277 13.64 129.277 15.16C129.277 16.04 128.717 16.04 128.037 16.12C127.077 16.24 126.157 16.56 125.197 16.56C124.917 16.56 124.117 16.52 124.117 16.12C124.117 15.8 124.157 15.52 124.197 15.24ZM160.18 30.24C159.86 29.92 159.26 29.44 159.26 28.96C159.26 28.6 159.42 28.16 159.54 27.8C159.74 26.96 159.82 26.16 159.82 25.28C159.82 22.56 159.86 19.84 159.62 17.12C159.38 14.28 157.42 8 153.82 8C152.66 8 151.62 8.68 150.78 9.44C148.46 11.6 148.18 15.4 148.18 18.4C148.18 20.08 148.26 21.76 148.3 23.4C148.38 27.24 149.22 32.96 154.22 32.96C155.54 32.96 156.74 32.44 157.62 31.48C158.06 32 159.62 34.08 160.38 34.08C160.62 34.08 162.06 32.92 162.06 32.48C162.06 32 160.5 30.52 160.18 30.24ZM153.9 29.88C151.14 29.88 151.06 24.96 151.06 23.08C151.06 22 151.14 20.96 151.14 19.92C151.14 17.72 150.78 11.4 154.02 11.4C157.1 11.4 156.9 20.72 156.9 22.96C156.9 24.92 156.78 29.88 153.9 29.88ZM178.275 8H177.875C176.875 8 175.675 8.04 175.675 9.36C175.675 10.12 175.755 10.84 175.755 11.56C175.755 13.56 175.715 15.56 175.715 17.56C175.715 20.76 176.555 29.08 171.595 29.08C166.995 29.08 166.795 23.28 166.795 19.92C166.795 16.4 166.915 12.92 166.915 9.4C166.915 8.84 166.235 8.84 165.875 8.84C165.115 8.84 164.635 8.88 164.035 9.4C163.875 9.56 163.715 17.08 163.715 18C163.715 22.68 164.155 31.96 170.675 31.96C177.995 31.96 179.195 24.04 179.195 18.32C179.195 15.28 178.835 12.28 178.835 9.24C178.835 8.72 178.835 8.24 178.275 8ZM194.705 25.16H194.545C193.825 25.16 193.145 25.04 192.425 25.04C192.105 25.04 191.705 25.04 191.425 25.24C190.625 25.72 191.585 30.68 188.945 30.68C186.265 30.68 186.305 24.88 186.105 23.04C186.025 22.32 185.905 21.6 185.905 20.88C185.905 19.48 187.185 19.2 188.305 19.2C189.665 19.2 191.025 19.32 192.385 19.32C193.865 19.32 194.865 19.04 194.865 17.32C194.865 13.68 192.945 7.2 188.465 7.2C182.705 7.2 182.345 16.68 182.345 20.76C182.345 24.68 183.625 33.92 188.905 33.92C192.945 33.92 195.105 29.44 195.105 25.92C195.105 25.6 195.065 25.24 194.705 25.16ZM186.345 15.24V14.36C186.345 13.08 186.345 10.32 188.185 10.32C190.065 10.32 191.425 13.64 191.425 15.16C191.425 16.04 190.865 16.04 190.185 16.12C189.225 16.24 188.305 16.56 187.345 16.56C187.065 16.56 186.265 16.52 186.265 16.12C186.265 15.8 186.305 15.52 186.345 15.24ZM220.968 35.36C220.568 35 219.248 33.8 218.808 33.8C218.368 33.8 217.928 34.88 216.968 34.88C214.288 34.88 214.288 29.56 214.288 27.72C214.288 22.72 214.568 17.68 214.888 12.68C215.488 12.68 218.968 12.68 218.968 11.96C218.968 11.56 218.848 11.2 218.848 10.8C218.848 10.56 218.888 10.36 218.888 10.12C218.888 9.52 218.208 9.44 217.768 9.44C216.968 9.44 216.208 9.64 215.408 9.64H215.088C215.208 7.88 215.448 6.12 215.448 4.36C215.448 3.12 214.648 2.48 213.408 2.48C211.528 2.48 212.008 5.28 212.008 6.44C212.008 7.44 211.928 8.44 211.928 9.48H211.648C209.528 9.48 209.248 9.52 209.248 11.72C209.248 11.88 209.248 12.04 209.288 12.16C209.848 12.56 211.168 12.6 211.888 12.64C211.848 17.28 211.328 21.88 211.328 26.52C211.328 30.24 211.328 38.64 216.648 38.64C217.968 38.64 221.128 37.24 221.128 35.68C221.128 35.56 221.048 35.44 220.968 35.36ZM238.705 8H238.305C237.305 8 236.105 8.04 236.105 9.36C236.105 10.12 236.185 10.84 236.185 11.56C236.185 13.56 236.145 15.56 236.145 17.56C236.145 20.76 236.985 29.08 232.025 29.08C227.425 29.08 227.225 23.28 227.225 19.92C227.225 16.4 227.345 12.92 227.345 9.4C227.345 8.84 226.665 8.84 226.305 8.84C225.545 8.84 225.065 8.88 224.465 9.4C224.305 9.56 224.145 17.08 224.145 18C224.145 22.68 224.585 31.96 231.105 31.96C238.425 31.96 239.625 24.04 239.625 18.32C239.625 15.28 239.265 12.28 239.265 9.24C239.265 8.72 239.265 8.24 238.705 8ZM254.734 5.32C254.654 6.28 254.614 7.2 254.614 8.16C254.614 11.44 255.054 14.64 255.214 17.92C255.494 23.08 255.494 28.24 255.494 33.4C255.494 35.28 255.534 35.8 257.614 35.8C258.934 35.8 258.974 35.36 258.974 34.16C258.974 32.72 258.614 31.28 258.494 29.8C258.214 26.6 257.934 23.4 257.934 20.16C257.934 19.4 257.774 18.68 257.774 17.92C257.774 17.32 257.854 16.84 258.334 16.4C258.814 15.96 260.414 15.76 261.174 15.32C262.854 14.36 264.494 12.04 264.494 10.08C264.494 9.28 264.214 8.52 263.774 7.88C261.934 5.12 257.654 5.44 254.734 5.32ZM261.014 12C260.654 12.8 259.094 13.88 258.214 13.88C257.494 13.88 257.334 13.2 257.334 12.64C257.334 11.96 257.494 11.32 257.534 10.68C257.574 10.16 257.494 9.68 257.494 9.16C257.494 8.68 257.574 8.2 258.134 8.2C259.534 8.2 261.214 9.6 261.214 11.04C261.214 11.36 261.134 11.68 261.014 12ZM275.41 20.92C275.13 19.76 274.49 18.68 274.49 17.48C274.49 17.12 274.61 16.76 274.85 16.48C275.17 16.2 275.97 16.04 276.41 15.84C277.81 15.04 278.81 12.2 278.81 10.64C278.81 6.76 274.53 4.88 271.17 4.88C270.29 4.88 269.45 5.04 269.45 6.08C269.45 6.88 269.65 7.64 269.65 8.44C269.65 11.56 269.53 14.72 269.53 17.84C269.53 23.36 269.61 28.92 269.61 34.44C269.61 36.16 269.61 36.28 271.37 36.28C272.13 36.28 272.53 36.12 272.53 35.28V28.48C272.53 25.16 272.21 21.84 272.21 18.52C272.21 18.2 272.21 17.84 272.29 17.52C272.97 18.92 275.53 29.6 275.85 31.64C275.97 32.16 276.09 34.56 276.81 34.56C277.41 34.56 278.89 34.12 278.89 33.36C278.89 32.64 278.45 31.92 278.21 31.24C276.97 27.92 276.17 24.36 275.41 20.92ZM272.41 14V11.88C272.41 10.8 272.17 9.76 272.17 8.72C272.17 8.08 272.45 7.32 273.17 7.32C274.73 7.32 276.05 9.16 276.05 10.6C276.05 11.28 275.85 11.92 275.45 12.48C275.09 13 273.33 14.32 272.69 14.32C272.53 14.32 272.41 14.2 272.41 14ZM294.236 25.16H294.076C293.356 25.16 292.676 25.04 291.956 25.04C291.636 25.04 291.236 25.04 290.956 25.24C290.156 25.72 291.116 30.68 288.476 30.68C285.796 30.68 285.836 24.88 285.636 23.04C285.556 22.32 285.436 21.6 285.436 20.88C285.436 19.48 286.716 19.2 287.836 19.2C289.196 19.2 290.556 19.32 291.916 19.32C293.396 19.32 294.396 19.04 294.396 17.32C294.396 13.68 292.476 7.2 287.996 7.2C282.236 7.2 281.876 16.68 281.876 20.76C281.876 24.68 283.156 33.92 288.436 33.92C292.476 33.92 294.636 29.44 294.636 25.92C294.636 25.6 294.596 25.24 294.236 25.16ZM289.676 1.2C288.916 1.76 285.796 4.2 285.796 5.08C285.796 5.72 286.956 5.92 287.436 5.92C288.676 5.92 292.076 3.88 292.076 2.52C292.076 1.92 291.156 0.879999 290.516 0.879999C290.236 0.879999 289.916 0.999998 289.676 1.2ZM285.876 15.24V14.36C285.876 13.08 285.876 10.32 287.716 10.32C289.596 10.32 290.956 13.64 290.956 15.16C290.956 16.04 290.396 16.04 289.716 16.12C288.756 16.24 287.836 16.56 286.876 16.56C286.596 16.56 285.796 16.52 285.796 16.12C285.796 15.8 285.836 15.52 285.876 15.24ZM310.389 6.08C309.469 3.96 307.869 2.16 305.429 2.16C299.509 2.16 299.229 11.32 299.229 15.48C299.229 17.88 299.349 20.24 299.549 22.64C299.669 24.12 299.829 25.64 299.829 27.12C299.829 29.2 299.949 31.28 299.949 33.36C299.949 34.56 299.669 35.72 299.669 36.92C299.669 38.4 300.269 38.96 301.829 38.96C303.149 38.96 303.229 37.88 303.229 36.8C303.229 35.68 302.989 34.6 302.989 33.48C302.869 29.12 302.709 24.76 302.709 20.4C302.709 19.92 302.749 19.72 303.309 19.72C304.709 19.72 306.149 20.04 307.589 20.04C308.989 20.04 310.069 20.12 310.069 18.48C310.069 17.72 310.069 15.92 309.069 15.92C307.309 15.92 305.589 16.64 303.829 16.64C302.709 16.64 302.869 15.08 302.869 14.32C302.869 13.12 302.989 11.96 303.069 10.76C303.189 9.16 303.269 5.92 305.629 5.92C307.469 5.92 308.189 9.32 308.429 10.76C309.709 10.52 311.189 10.68 311.189 8.92C311.189 7.96 310.749 6.92 310.389 6.08ZM327.205 25.16H327.045C326.325 25.16 325.645 25.04 324.925 25.04C324.605 25.04 324.205 25.04 323.925 25.24C323.125 25.72 324.085 30.68 321.445 30.68C318.765 30.68 318.805 24.88 318.605 23.04C318.525 22.32 318.405 21.6 318.405 20.88C318.405 19.48 319.685 19.2 320.805 19.2C322.165 19.2 323.525 19.32 324.885 19.32C326.365 19.32 327.365 19.04 327.365 17.32C327.365 13.68 325.445 7.2 320.965 7.2C315.205 7.2 314.845 16.68 314.845 20.76C314.845 24.68 316.125 33.92 321.405 33.92C325.445 33.92 327.605 29.44 327.605 25.92C327.605 25.6 327.565 25.24 327.205 25.16ZM320.285 1.08C320.045 0.879999 319.725 0.759998 319.445 0.759998C318.925 0.759998 317.925 1.92 317.925 2.4C317.925 3.72 321.325 5.8 322.525 5.8C322.965 5.8 324.165 5.56 324.165 5C324.165 4.28 320.965 1.6 320.285 1.08ZM318.845 15.24V14.36C318.845 13.08 318.845 10.32 320.685 10.32C322.565 10.32 323.925 13.64 323.925 15.16C323.925 16.04 323.365 16.04 322.685 16.12C321.725 16.24 320.805 16.56 319.845 16.56C319.565 16.56 318.765 16.52 318.765 16.12C318.765 15.8 318.805 15.52 318.845 15.24ZM339.277 20.92C338.997 19.76 338.357 18.68 338.357 17.48C338.357 17.12 338.477 16.76 338.717 16.48C339.037 16.2 339.837 16.04 340.277 15.84C341.677 15.04 342.677 12.2 342.677 10.64C342.677 6.76 338.397 4.88 335.037 4.88C334.157 4.88 333.317 5.04 333.317 6.08C333.317 6.88 333.517 7.64 333.517 8.44C333.517 11.56 333.397 14.72 333.397 17.84C333.397 23.36 333.477 28.92 333.477 34.44C333.477 36.16 333.477 36.28 335.237 36.28C335.997 36.28 336.397 36.12 336.397 35.28V28.48C336.397 25.16 336.077 21.84 336.077 18.52C336.077 18.2 336.077 17.84 336.157 17.52C336.837 18.92 339.397 29.6 339.717 31.64C339.837 32.16 339.957 34.56 340.677 34.56C341.277 34.56 342.757 34.12 342.757 33.36C342.757 32.64 342.317 31.92 342.077 31.24C340.837 27.92 340.037 24.36 339.277 20.92ZM336.277 14V11.88C336.277 10.8 336.037 9.76 336.037 8.72C336.037 8.08 336.317 7.32 337.037 7.32C338.597 7.32 339.917 9.16 339.917 10.6C339.917 11.28 339.717 11.92 339.317 12.48C338.957 13 337.197 14.32 336.557 14.32C336.397 14.32 336.277 14.2 336.277 14ZM358.104 25.16H357.944C357.224 25.16 356.544 25.04 355.824 25.04C355.504 25.04 355.104 25.04 354.824 25.24C354.024 25.72 354.984 30.68 352.344 30.68C349.664 30.68 349.704 24.88 349.504 23.04C349.424 22.32 349.304 21.6 349.304 20.88C349.304 19.48 350.584 19.2 351.704 19.2C353.064 19.2 354.424 19.32 355.784 19.32C357.264 19.32 358.264 19.04 358.264 17.32C358.264 13.68 356.344 7.2 351.864 7.2C346.104 7.2 345.744 16.68 345.744 20.76C345.744 24.68 347.024 33.92 352.304 33.92C356.344 33.92 358.504 29.44 358.504 25.92C358.504 25.6 358.464 25.24 358.104 25.16ZM349.744 15.24V14.36C349.744 13.08 349.744 10.32 351.584 10.32C353.464 10.32 354.824 13.64 354.824 15.16C354.824 16.04 354.264 16.04 353.584 16.12C352.624 16.24 351.704 16.56 350.744 16.56C350.464 16.56 349.664 16.52 349.664 16.12C349.664 15.8 349.704 15.52 349.744 15.24ZM370.088 21.68C368.688 19.12 364.608 15.96 364.608 12.96C364.608 12.44 364.688 11.24 365.448 11.24C367.128 11.24 365.728 13.4 367.688 13.4C368.328 13.4 368.968 13.32 369.608 13.24C369.528 11.04 367.928 8.44 365.528 8.44C363.248 8.44 361.728 10.6 361.728 12.72C361.728 18.24 368.608 21 368.608 27C368.608 28.04 368.128 29.8 366.808 29.8C365.208 29.8 365.328 27.8 365.328 26.68C365.328 25.8 364.488 25.24 363.648 25.24C362.568 25.24 362.168 26.12 362.168 27.08C362.168 29.6 363.968 32.68 366.768 32.68C369.848 32.68 371.448 29.56 371.448 26.84C371.448 25.04 370.928 23.24 370.088 21.68ZM388.86 30.12C388.5 30.12 388.06 30.2 387.86 30.52C387.7 30.8 387.62 32.76 387.62 33.2C387.62 33.8 387.9 34.16 388.54 34.16C389.26 34.16 390.02 34.04 390.74 33.96C391.38 33.92 391.3 33.16 391.3 32.72C391.3 30.36 391.1 30.12 388.86 30.12ZM394.62 7.2C393.78 6 392.38 5.12 390.9 5.12C387.94 5.12 386.42 8.28 386.42 10.84C386.42 11.84 386.7 13.04 387.9 13.04C388.74 13.04 389.66 12.48 389.66 11.6C389.66 11.04 389.46 10.56 389.46 10.04C389.46 9.2 389.98 8.08 390.94 8.08C392.46 8.08 392.98 10.24 392.98 11.4C392.98 16.2 389.54 18.52 387.98 22.52C387.82 22.92 387.62 26.4 387.62 26.96C387.62 27.36 387.9 27.68 388.3 27.68H389.78C390.18 27.68 390.46 27.4 390.5 27C390.82 23.84 391.42 21.92 393.1 19.2C393.78 18.16 394.54 17.12 395.02 15.96C395.58 14.6 395.9 13.04 395.9 11.6C395.9 10.04 395.54 8.48 394.62 7.2Z" fill="white"/>
</svg>
