<svg width="229" height="79" viewBox="0 0 229 79" fill="none" xmlns="http://www.w3.org/2000/svg">
<path d="M4.44541 6.976C3.50941 6.904 2.60941 6.688 1.67341 6.688C0.377406 6.688 0.233406 7.588 0.233406 8.632C0.233406 9.388 0.377406 10.144 0.377406 10.936C0.449406 13.672 0.449406 16.444 0.449406 19.18C0.449406 25.012 0.413406 30.808 0.413406 36.64C0.413406 37.324 0.197406 38.008 0.197406 38.692C0.197406 39.52 0.413406 39.556 1.16941 39.556C2.53741 39.556 3.94141 39.34 5.30941 39.124C5.77741 39.052 6.31741 39.052 6.31741 38.404C6.31741 37.792 6.28141 37.18 6.28141 36.568C6.28141 36.172 6.20941 35.992 5.81341 35.992C5.05741 35.992 4.40941 36.424 3.68941 36.424C3.22141 36.424 3.11341 35.992 3.11341 35.596C3.11341 34.948 3.29341 34.264 3.29341 33.58C3.29341 32.608 3.25741 31.6 3.22141 30.628C3.18541 29.476 2.86141 28.36 2.86141 27.208C2.86141 26.524 2.93341 25.588 3.83341 25.588C4.40941 25.588 4.91341 25.948 5.48941 25.948C5.84941 25.948 6.17341 25.66 6.17341 25.3C6.17341 24.904 6.02941 24.544 5.99341 24.148C5.88541 23.104 6.13741 22.924 4.84141 22.924C4.37341 22.924 3.94141 23.14 3.47341 23.14C3.04141 23.14 3.00541 22.456 3.00541 22.132C2.78941 19.936 2.89741 17.74 2.89741 15.544C2.89741 13.996 2.60941 12.448 2.60941 10.864C2.60941 10.396 2.71741 10.144 3.25741 10.144C4.19341 10.144 5.02141 10.792 5.95741 10.792C6.89341 10.792 6.89341 8.884 6.89341 8.236C6.89341 6.796 6.06541 7.012 4.98541 7.012L4.44541 6.976ZM4.22941 1.18C3.50941 1.684 0.737406 3.88 0.737406 4.672C0.737406 5.248 1.74541 5.428 2.17741 5.428C3.29341 5.428 6.35341 3.592 6.35341 2.368C6.35341 1.828 5.56141 0.891999 4.98541 0.891999C4.69741 0.891999 4.40941 1 4.22941 1.18ZM17.9167 6.328C17.2687 5.932 16.5127 5.752 15.7567 5.752C11.5447 5.752 10.5367 9.82 10.2487 13.24C9.96072 16.372 9.99672 19.54 9.99672 22.708C9.99672 27.28 10.0687 34.228 13.6327 37.576C14.3527 38.26 15.2887 38.692 16.2967 38.692C17.5207 38.692 18.6367 38.044 19.4287 37.108C21.1567 35.056 21.0487 32.068 21.1927 29.548C20.6167 29.656 20.0047 29.728 19.3927 29.764C18.5647 29.8 18.4927 29.692 18.2767 30.592C18.0247 31.456 18.2047 32.392 17.9887 33.256C17.7727 34.156 17.0527 35.524 16.0087 35.524C12.5167 35.524 12.7687 23.14 12.7687 20.656C12.7687 19.432 12.6967 18.208 12.6967 16.984C12.6967 15.04 12.6967 8.92 15.5407 8.92C19.0687 8.92 17.9887 15.904 18.6007 18.064C18.8167 18.892 18.9607 18.964 19.8247 18.964C20.3287 18.964 20.8327 18.928 21.3367 18.928C21.3727 18.532 21.3727 18.136 21.3727 17.74C21.3727 14.572 20.9047 8.164 17.9167 6.328ZM33.0106 34.732C39.0946 34.732 40.7146 27.208 40.7146 22.42C40.7146 17.488 39.1666 11.26 33.0826 11.26C27.5026 11.26 25.1626 17.272 25.1626 22.024C25.1626 26.992 26.6386 34.732 33.0106 34.732ZM33.0826 14.14C36.8266 14.14 38.0506 19.324 38.0506 22.276C38.0506 25.516 37.4026 31.924 33.0106 31.924C28.1866 31.924 28.0066 25.804 28.0066 22.312C28.0066 19 28.8346 14.14 33.0826 14.14ZM56.7863 11.8H56.4263C55.5263 11.8 54.4463 11.836 54.4463 13.024C54.4463 13.708 54.5183 14.356 54.5183 15.004C54.5183 16.804 54.4823 18.604 54.4823 20.404C54.4823 23.284 55.2383 30.772 50.7743 30.772C46.6343 30.772 46.4543 25.552 46.4543 22.528C46.4543 19.36 46.5623 16.228 46.5623 13.06C46.5623 12.556 45.9503 12.556 45.6263 12.556C44.9423 12.556 44.5103 12.592 43.9703 13.06C43.8263 13.204 43.6823 19.972 43.6823 20.8C43.6823 25.012 44.0783 33.364 49.9463 33.364C56.5343 33.364 57.6143 26.236 57.6143 21.088C57.6143 18.352 57.2903 15.652 57.2903 12.916C57.2903 12.448 57.2903 12.016 56.7863 11.8ZM70.5653 36.424C70.2053 36.1 69.0173 35.02 68.6213 35.02C68.2253 35.02 67.8293 35.992 66.9653 35.992C64.5533 35.992 64.5533 31.204 64.5533 29.548C64.5533 25.048 64.8053 20.512 65.0933 16.012C65.6333 16.012 68.7653 16.012 68.7653 15.364C68.7653 15.004 68.6573 14.68 68.6573 14.32C68.6573 14.104 68.6933 13.924 68.6933 13.708C68.6933 13.168 68.0813 13.096 67.6853 13.096C66.9653 13.096 66.2813 13.276 65.5613 13.276H65.2733C65.3813 11.692 65.5973 10.108 65.5973 8.524C65.5973 7.408 64.8773 6.832 63.7613 6.832C62.0693 6.832 62.5013 9.352 62.5013 10.396C62.5013 11.296 62.4293 12.196 62.4293 13.132H62.1773C60.2693 13.132 60.0173 13.168 60.0173 15.148C60.0173 15.292 60.0173 15.436 60.0533 15.544C60.5573 15.904 61.7453 15.94 62.3933 15.976C62.3573 20.152 61.8893 24.292 61.8893 28.468C61.8893 31.816 61.8893 39.376 66.6773 39.376C67.8653 39.376 70.7093 38.116 70.7093 36.712C70.7093 36.604 70.6373 36.496 70.5653 36.424ZM84.4405 27.244H84.2965C83.6485 27.244 83.0365 27.136 82.3885 27.136C82.1005 27.136 81.7405 27.136 81.4885 27.316C80.7685 27.748 81.6325 32.212 79.2565 32.212C76.8445 32.212 76.8805 26.992 76.7005 25.336C76.6285 24.688 76.5205 24.04 76.5205 23.392C76.5205 22.132 77.6725 21.88 78.6805 21.88C79.9045 21.88 81.1285 21.988 82.3525 21.988C83.6845 21.988 84.5845 21.736 84.5845 20.188C84.5845 16.912 82.8565 11.08 78.8245 11.08C73.6405 11.08 73.3165 19.612 73.3165 23.284C73.3165 26.812 74.4685 35.128 79.2205 35.128C82.8565 35.128 84.8005 31.096 84.8005 27.928C84.8005 27.64 84.7645 27.316 84.4405 27.244ZM76.9165 18.316V17.524C76.9165 16.372 76.9165 13.888 78.5725 13.888C80.2645 13.888 81.4885 16.876 81.4885 18.244C81.4885 19.036 80.9845 19.036 80.3725 19.108C79.5085 19.216 78.6805 19.504 77.8165 19.504C77.5645 19.504 76.8445 19.468 76.8445 19.108C76.8445 18.82 76.8805 18.568 76.9165 18.316ZM94.1102 23.428C93.8582 22.384 93.2822 21.412 93.2822 20.332C93.2822 20.008 93.3902 19.684 93.6062 19.432C93.8942 19.18 94.6142 19.036 95.0102 18.856C96.2702 18.136 97.1702 15.58 97.1702 14.176C97.1702 10.684 93.3182 8.992 90.2942 8.992C89.5022 8.992 88.7462 9.136 88.7462 10.072C88.7462 10.792 88.9262 11.476 88.9262 12.196C88.9262 15.004 88.8182 17.848 88.8182 20.656C88.8182 25.624 88.8902 30.628 88.8902 35.596C88.8902 37.144 88.8902 37.252 90.4742 37.252C91.1582 37.252 91.5182 37.108 91.5182 36.352V30.232C91.5182 27.244 91.2302 24.256 91.2302 21.268C91.2302 20.98 91.2302 20.656 91.3022 20.368C91.9142 21.628 94.2182 31.24 94.5062 33.076C94.6142 33.544 94.7222 35.704 95.3702 35.704C95.9102 35.704 97.2422 35.308 97.2422 34.624C97.2422 33.976 96.8462 33.328 96.6302 32.716C95.5142 29.728 94.7942 26.524 94.1102 23.428ZM91.4102 17.2V15.292C91.4102 14.32 91.1942 13.384 91.1942 12.448C91.1942 11.872 91.4462 11.188 92.0942 11.188C93.4982 11.188 94.6862 12.844 94.6862 14.14C94.6862 14.752 94.5062 15.328 94.1462 15.832C93.8222 16.3 92.2382 17.488 91.6622 17.488C91.5182 17.488 91.4102 17.38 91.4102 17.2ZM114.797 34.12C113.969 26.92 113.825 19.684 113.537 12.448C113.501 11.836 113.537 11.188 113.537 10.576C113.537 9.532 113.429 8.2 112.061 8.2C111.557 8.2 111.089 8.452 110.585 8.344C110.441 8.488 110.369 8.668 110.369 8.884C110.369 9.424 110.585 9.964 110.657 10.54C110.765 11.368 110.657 12.232 110.657 13.096C110.657 18.532 111.269 23.932 111.557 29.368C111.701 31.816 111.665 34.3 112.097 36.748C112.277 37.756 112.241 37.576 113.177 37.792C113.537 37.864 113.933 38.008 114.293 38.008C115.013 38.008 115.085 37.036 115.085 36.532C115.085 35.74 114.905 34.912 114.797 34.12ZM129.827 27.244H129.683C129.035 27.244 128.423 27.136 127.775 27.136C127.487 27.136 127.127 27.136 126.875 27.316C126.155 27.748 127.019 32.212 124.643 32.212C122.231 32.212 122.267 26.992 122.087 25.336C122.015 24.688 121.907 24.04 121.907 23.392C121.907 22.132 123.059 21.88 124.067 21.88C125.291 21.88 126.515 21.988 127.739 21.988C129.071 21.988 129.971 21.736 129.971 20.188C129.971 16.912 128.243 11.08 124.211 11.08C119.027 11.08 118.703 19.612 118.703 23.284C118.703 26.812 119.855 35.128 124.607 35.128C128.243 35.128 130.187 31.096 130.187 27.928C130.187 27.64 130.151 27.316 129.827 27.244ZM122.303 18.316V17.524C122.303 16.372 122.303 13.888 123.959 13.888C125.651 13.888 126.875 16.876 126.875 18.244C126.875 19.036 126.371 19.036 125.759 19.108C124.895 19.216 124.067 19.504 123.203 19.504C122.951 19.504 122.231 19.468 122.231 19.108C122.231 18.82 122.267 18.568 122.303 18.316ZM140.613 24.112C139.353 21.808 135.681 18.964 135.681 16.264C135.681 15.796 135.753 14.716 136.437 14.716C137.949 14.716 136.689 16.66 138.453 16.66C139.029 16.66 139.605 16.588 140.181 16.516C140.109 14.536 138.669 12.196 136.509 12.196C134.457 12.196 133.089 14.14 133.089 16.048C133.089 21.016 139.281 23.5 139.281 28.9C139.281 29.836 138.849 31.42 137.661 31.42C136.221 31.42 136.329 29.62 136.329 28.612C136.329 27.82 135.573 27.316 134.817 27.316C133.845 27.316 133.485 28.108 133.485 28.972C133.485 31.24 135.105 34.012 137.625 34.012C140.397 34.012 141.837 31.204 141.837 28.756C141.837 27.136 141.369 25.516 140.613 24.112ZM163.52 27.532C163.196 27.388 161.792 27.064 161.792 26.632C161.792 26.596 162.26 26.2 162.332 26.128C164.024 23.968 164.672 22.78 164.672 19.936C164.672 16.912 163.7 13.132 160.964 11.404C159.992 10.828 158.372 10.252 157.256 10.252C156.212 10.252 155.816 10.684 155.816 11.728C155.816 12.268 155.924 12.772 155.924 13.312C155.996 15.112 155.924 16.876 155.924 18.676C155.924 23.428 155.996 28.144 155.996 32.896C155.996 33.58 155.996 34.264 156.068 34.912C156.14 35.488 156.068 35.992 156.752 35.992C159.452 35.992 167.156 36.028 167.156 32.032C167.156 30.124 165.176 28.252 163.52 27.532ZM160.064 33.292C159.884 33.328 159.668 33.364 159.488 33.364C158.876 33.364 158.732 33.04 158.732 32.5C158.732 31.636 158.804 30.772 158.804 29.908C158.804 29.44 158.84 29.116 159.38 29.116C160.604 29.116 162.908 29.728 162.908 31.276C162.908 32.752 161.18 33.04 160.064 33.292ZM158.732 24.688C158.84 24.328 158.876 23.932 158.876 23.572C158.876 22.708 158.696 21.844 158.66 20.98C158.624 19.792 158.696 18.64 158.696 17.452C158.696 16.516 158.516 15.58 158.516 14.644C158.516 14.536 158.516 13.996 158.696 13.996C159.128 13.996 159.776 14.932 160.028 15.256C161.036 16.552 161.54 18.172 161.54 19.792C161.54 20.332 161.468 20.836 161.396 21.34C161.216 22.168 159.848 25.228 158.912 25.228C158.876 25.228 158.804 25.192 158.732 25.192C158.696 25.12 158.66 25.012 158.66 24.94C158.66 24.868 158.696 24.76 158.732 24.688ZM176.376 23.428C176.124 22.384 175.548 21.412 175.548 20.332C175.548 20.008 175.656 19.684 175.872 19.432C176.16 19.18 176.88 19.036 177.276 18.856C178.536 18.136 179.436 15.58 179.436 14.176C179.436 10.684 175.584 8.992 172.56 8.992C171.768 8.992 171.012 9.136 171.012 10.072C171.012 10.792 171.192 11.476 171.192 12.196C171.192 15.004 171.084 17.848 171.084 20.656C171.084 25.624 171.156 30.628 171.156 35.596C171.156 37.144 171.156 37.252 172.74 37.252C173.424 37.252 173.784 37.108 173.784 36.352V30.232C173.784 27.244 173.496 24.256 173.496 21.268C173.496 20.98 173.496 20.656 173.568 20.368C174.18 21.628 176.484 31.24 176.772 33.076C176.88 33.544 176.988 35.704 177.636 35.704C178.176 35.704 179.508 35.308 179.508 34.624C179.508 33.976 179.112 33.328 178.896 32.716C177.78 29.728 177.06 26.524 176.376 23.428ZM173.676 17.2V15.292C173.676 14.32 173.46 13.384 173.46 12.448C173.46 11.872 173.712 11.188 174.36 11.188C175.764 11.188 176.952 12.844 176.952 14.14C176.952 14.752 176.772 15.328 176.412 15.832C176.088 16.3 174.504 17.488 173.928 17.488C173.784 17.488 173.676 17.38 173.676 17.2ZM195.407 11.8H195.047C194.147 11.8 193.067 11.836 193.067 13.024C193.067 13.708 193.139 14.356 193.139 15.004C193.139 16.804 193.103 18.604 193.103 20.404C193.103 23.284 193.859 30.772 189.395 30.772C185.255 30.772 185.075 25.552 185.075 22.528C185.075 19.36 185.183 16.228 185.183 13.06C185.183 12.556 184.571 12.556 184.247 12.556C183.563 12.556 183.131 12.592 182.591 13.06C182.447 13.204 182.303 19.972 182.303 20.8C182.303 25.012 182.699 33.364 188.567 33.364C195.155 33.364 196.235 26.236 196.235 21.088C196.235 18.352 195.911 15.652 195.911 12.916C195.911 12.448 195.911 12.016 195.407 11.8ZM203.246 35.02C203.282 34.804 203.318 34.588 203.318 34.336C203.318 33.256 203.03 32.212 202.922 31.132C202.598 27.964 202.67 24.796 202.67 21.628C202.67 20.8 202.562 20.008 201.554 20.008C199.898 20.008 199.574 20.512 199.574 22.096C199.574 23.428 199.862 24.76 200.006 26.128C200.258 28.432 200.186 30.808 200.186 33.112C200.186 35.2 200.402 35.272 202.418 35.272C202.706 35.272 203.03 35.272 203.246 35.02ZM200.006 16.948C200.438 16.948 200.87 17.056 201.302 17.056C202.058 17.056 202.31 16.516 202.31 15.832C202.31 15.184 202.166 14.572 202.13 13.924C202.13 13.384 202.202 12.88 202.202 12.34C202.202 11.116 201.302 10.936 200.258 10.936C199.934 10.936 199.61 10.936 199.322 11.008C199.178 11.08 199.142 11.26 199.142 11.404C199.142 11.908 199.358 12.34 199.43 12.808C199.574 13.852 199.502 14.896 199.502 15.94C199.502 16.264 199.502 16.66 199.61 16.984C199.754 16.948 199.862 16.948 200.006 16.948ZM216.815 36.424C216.455 36.1 215.267 35.02 214.871 35.02C214.475 35.02 214.079 35.992 213.215 35.992C210.803 35.992 210.803 31.204 210.803 29.548C210.803 25.048 211.055 20.512 211.343 16.012C211.883 16.012 215.015 16.012 215.015 15.364C215.015 15.004 214.907 14.68 214.907 14.32C214.907 14.104 214.943 13.924 214.943 13.708C214.943 13.168 214.331 13.096 213.935 13.096C213.215 13.096 212.531 13.276 211.811 13.276H211.523C211.631 11.692 211.847 10.108 211.847 8.524C211.847 7.408 211.127 6.832 210.011 6.832C208.319 6.832 208.751 9.352 208.751 10.396C208.751 11.296 208.679 12.196 208.679 13.132H208.427C206.519 13.132 206.267 13.168 206.267 15.148C206.267 15.292 206.267 15.436 206.303 15.544C206.807 15.904 207.995 15.94 208.643 15.976C208.607 20.152 208.139 24.292 208.139 28.468C208.139 31.816 208.139 39.376 212.927 39.376C214.115 39.376 216.959 38.116 216.959 36.712C216.959 36.604 216.887 36.496 216.815 36.424ZM227.379 24.112C226.119 21.808 222.447 18.964 222.447 16.264C222.447 15.796 222.519 14.716 223.203 14.716C224.715 14.716 223.455 16.66 225.219 16.66C225.795 16.66 226.371 16.588 226.947 16.516C226.875 14.536 225.435 12.196 223.275 12.196C221.223 12.196 219.855 14.14 219.855 16.048C219.855 21.016 226.047 23.5 226.047 28.9C226.047 29.836 225.615 31.42 224.427 31.42C222.987 31.42 223.095 29.62 223.095 28.612C223.095 27.82 222.339 27.316 221.583 27.316C220.611 27.316 220.25 28.108 220.25 28.972C220.25 31.24 221.871 34.012 224.391 34.012C227.163 34.012 228.603 31.204 228.603 28.756C228.603 27.136 228.135 25.516 227.379 24.112ZM46.3383 60.42C46.2303 59.412 46.1943 58.44 46.1943 57.432C46.1943 55.344 46.3383 53.256 46.3383 51.168C46.3383 49.98 46.2303 48.792 46.2303 47.604C46.2303 46.848 46.4103 46.092 46.4103 45.336C46.4103 44.256 45.9423 44.184 45.0063 44.184C44.3583 44.184 43.2063 44.292 43.2063 45.156C43.2063 45.624 43.3143 46.056 43.3143 46.488C43.3143 48.576 43.2783 50.664 43.2783 52.788C43.2783 55.992 43.2783 59.268 43.5663 62.472C43.6023 62.76 43.6383 63.048 43.6383 63.372C43.6383 63.732 43.3143 63.948 43.0263 64.128C41.9823 64.848 40.6503 64.956 39.6063 65.676C38.5623 66.396 37.8063 67.476 37.2663 68.592C36.9063 69.42 36.6543 70.32 36.6543 71.22C36.6543 75.216 40.8303 77.16 44.1783 77.844C44.6103 77.916 45.0063 78.024 45.4383 78.024C46.4823 78.024 46.4823 76.764 46.4823 76.008C46.4823 75.036 46.3743 74.064 46.3743 73.056C46.3743 70.752 46.5543 68.412 46.5543 66.108C46.5543 64.2 46.4823 62.292 46.3383 60.42ZM43.4943 74.568C43.4583 74.712 43.2783 74.784 43.1343 74.784C42.5223 74.784 40.7223 73.776 40.3263 73.308C39.8583 72.732 39.6063 72.012 39.6063 71.256C39.6063 69.528 41.0103 67.98 42.5943 67.476C42.6663 67.44 43.1703 67.26 43.2063 67.26C43.3143 67.26 43.3863 67.908 43.4223 68.016C43.5663 69.06 43.4583 70.104 43.4583 71.148C43.4583 71.976 43.6383 72.804 43.6383 73.632C43.6383 73.956 43.6023 74.244 43.4943 74.568ZM62.4854 65.244H62.3414C61.6934 65.244 61.0814 65.136 60.4334 65.136C60.1454 65.136 59.7854 65.136 59.5334 65.316C58.8134 65.748 59.6774 70.212 57.3014 70.212C54.8894 70.212 54.9254 64.992 54.7454 63.336C54.6734 62.688 54.5654 62.04 54.5654 61.392C54.5654 60.132 55.7174 59.88 56.7254 59.88C57.9494 59.88 59.1734 59.988 60.3974 59.988C61.7294 59.988 62.6294 59.736 62.6294 58.188C62.6294 54.912 60.9014 49.08 56.8694 49.08C51.6854 49.08 51.3614 57.612 51.3614 61.284C51.3614 64.812 52.5134 73.128 57.2654 73.128C60.9014 73.128 62.8454 69.096 62.8454 65.928C62.8454 65.64 62.8094 65.316 62.4854 65.244ZM54.9614 56.316V55.524C54.9614 54.372 54.9614 51.888 56.6174 51.888C58.3094 51.888 59.5334 54.876 59.5334 56.244C59.5334 57.036 59.0294 57.036 58.4174 57.108C57.5534 57.216 56.7254 57.504 55.8614 57.504C55.6094 57.504 54.8894 57.468 54.8894 57.108C54.8894 56.82 54.9254 56.568 54.9614 56.316ZM80.326 72.12C79.498 64.92 79.354 57.684 79.066 50.448C79.03 49.836 79.066 49.188 79.066 48.576C79.066 47.532 78.958 46.2 77.59 46.2C77.086 46.2 76.618 46.452 76.114 46.344C75.97 46.488 75.898 46.668 75.898 46.884C75.898 47.424 76.114 47.964 76.186 48.54C76.294 49.368 76.186 50.232 76.186 51.096C76.186 56.532 76.798 61.932 77.086 67.368C77.23 69.816 77.194 72.3 77.626 74.748C77.806 75.756 77.77 75.576 78.706 75.792C79.066 75.864 79.462 76.008 79.822 76.008C80.542 76.008 80.614 75.036 80.614 74.532C80.614 73.74 80.434 72.912 80.326 72.12ZM91.3605 49.188C91.2525 48.252 91.3605 47.352 91.3605 46.416C91.3605 45.228 90.6765 45.228 89.7045 45.228C89.2005 45.228 88.6245 45.228 88.1925 45.516C87.6885 45.84 87.7245 48.648 87.6525 49.332C87.0045 55.848 85.9605 62.292 85.2405 68.772C85.0605 70.68 84.7725 72.552 84.5205 74.46C84.3405 76.224 84.1965 76.764 85.7085 76.872C85.9245 76.908 86.1765 76.98 86.4285 76.98C87.1845 76.98 87.1125 76.044 87.1125 75.504C87.1125 73.992 87.3285 72.516 87.3645 71.04C87.4005 70.284 87.4005 69.42 88.1925 69.024C88.3725 68.952 89.8845 69.024 90.1005 69.024C91.0725 68.988 91.1085 71.04 91.3245 72.444C91.5045 73.74 91.1805 76.908 91.9725 76.908C92.7285 76.908 93.3765 76.836 93.9525 76.44C94.3125 76.188 93.9885 72.984 93.8085 71.58C92.9445 64.128 92.5845 56.604 91.3605 49.188ZM90.4245 66.432C90.2085 66.576 89.9205 66.648 89.6685 66.648C88.8765 66.648 88.1565 66.756 88.1925 66.18C88.2285 64.848 89.0565 57.396 89.2725 56.028C89.6685 59.7 90.4605 62.472 90.4605 65.748C90.4605 65.964 90.4605 66.216 90.4245 66.432ZM89.3085 55.884C89.3085 55.812 89.3085 55.812 89.3085 55.776C89.3085 55.812 89.3085 55.848 89.3085 55.884ZM120.274 65.46C119.95 62.724 120.13 59.988 120.13 57.252C120.13 55.632 119.95 54.048 119.95 52.464C119.95 51.816 120.058 51.204 120.058 50.556C120.058 49.728 118.15 49.368 117.538 49.368C117.034 49.368 117.034 49.908 117.034 50.268C117.034 54.768 117.574 59.232 117.574 63.732C117.574 64.164 117.574 64.56 117.466 64.992C115.774 62.58 111.85 50.808 111.022 50.16C110.554 49.836 109.978 49.692 109.402 49.692C108.682 49.692 108.286 50.088 108.286 50.808C108.286 51.564 108.538 52.284 108.646 53.004C108.862 54.624 108.898 56.316 108.898 57.936C108.898 60.024 108.79 62.112 108.79 64.164C108.79 66.756 108.934 69.276 109.222 71.832C109.294 72.336 109.294 72.804 109.942 72.804C110.446 72.804 110.95 72.876 111.454 72.876C112.174 72.876 112.174 71.796 112.174 71.292C112.174 67.584 111.598 63.912 111.238 60.24C111.094 58.872 110.914 57.54 110.914 56.208C110.914 56.064 110.95 55.884 110.986 55.74C111.598 56.172 113.11 60.816 113.506 61.824C114.406 64.2 115.666 66.432 116.53 68.808C116.746 69.348 117.07 70.752 117.538 71.04C117.862 71.22 119.122 71.22 119.518 71.22C120.526 71.22 120.526 69.492 120.526 68.808C120.526 67.692 120.382 66.576 120.274 65.46ZM131.403 49.188C131.295 48.252 131.403 47.352 131.403 46.416C131.403 45.228 130.719 45.228 129.747 45.228C129.243 45.228 128.667 45.228 128.235 45.516C127.731 45.84 127.767 48.648 127.695 49.332C127.047 55.848 126.003 62.292 125.283 68.772C125.103 70.68 124.815 72.552 124.563 74.46C124.383 76.224 124.239 76.764 125.751 76.872C125.967 76.908 126.219 76.98 126.471 76.98C127.227 76.98 127.155 76.044 127.155 75.504C127.155 73.992 127.371 72.516 127.407 71.04C127.443 70.284 127.443 69.42 128.235 69.024C128.415 68.952 129.927 69.024 130.143 69.024C131.115 68.988 131.151 71.04 131.367 72.444C131.547 73.74 131.223 76.908 132.015 76.908C132.771 76.908 133.419 76.836 133.995 76.44C134.355 76.188 134.031 72.984 133.851 71.58C132.987 64.128 132.627 56.604 131.403 49.188ZM130.467 66.432C130.251 66.576 129.963 66.648 129.711 66.648C128.919 66.648 128.199 66.756 128.235 66.18C128.271 64.848 129.099 57.396 129.315 56.028C129.711 59.7 130.503 62.472 130.503 65.748C130.503 65.964 130.503 66.216 130.467 66.432ZM129.351 55.884C129.351 55.812 129.351 55.812 129.351 55.776C129.351 55.812 129.351 55.848 129.351 55.884ZM147.61 74.424C147.25 74.1 146.062 73.02 145.666 73.02C145.27 73.02 144.874 73.992 144.01 73.992C141.598 73.992 141.598 69.204 141.598 67.548C141.598 63.048 141.85 58.512 142.138 54.012C142.678 54.012 145.81 54.012 145.81 53.364C145.81 53.004 145.702 52.68 145.702 52.32C145.702 52.104 145.738 51.924 145.738 51.708C145.738 51.168 145.126 51.096 144.73 51.096C144.01 51.096 143.326 51.276 142.606 51.276H142.318C142.426 49.692 142.642 48.108 142.642 46.524C142.642 45.408 141.922 44.832 140.806 44.832C139.114 44.832 139.546 47.352 139.546 48.396C139.546 49.296 139.474 50.196 139.474 51.132H139.222C137.314 51.132 137.062 51.168 137.062 53.148C137.062 53.292 137.062 53.436 137.098 53.544C137.602 53.904 138.79 53.94 139.438 53.976C139.402 58.152 138.934 62.292 138.934 66.468C138.934 69.816 138.934 77.376 143.722 77.376C144.91 77.376 147.754 76.116 147.754 74.712C147.754 74.604 147.682 74.496 147.61 74.424ZM163.573 49.8H163.213C162.313 49.8 161.233 49.836 161.233 51.024C161.233 51.708 161.305 52.356 161.305 53.004C161.305 54.804 161.269 56.604 161.269 58.404C161.269 61.284 162.025 68.772 157.561 68.772C153.421 68.772 153.241 63.552 153.241 60.528C153.241 57.36 153.349 54.228 153.349 51.06C153.349 50.556 152.737 50.556 152.413 50.556C151.729 50.556 151.297 50.592 150.757 51.06C150.613 51.204 150.469 57.972 150.469 58.8C150.469 63.012 150.865 71.364 156.733 71.364C163.321 71.364 164.401 64.236 164.401 59.088C164.401 56.352 164.077 53.652 164.077 50.916C164.077 50.448 164.077 50.016 163.573 49.8ZM173.932 61.428C173.68 60.384 173.104 59.412 173.104 58.332C173.104 58.008 173.212 57.684 173.428 57.432C173.716 57.18 174.436 57.036 174.832 56.856C176.092 56.136 176.992 53.58 176.992 52.176C176.992 48.684 173.14 46.992 170.116 46.992C169.324 46.992 168.568 47.136 168.568 48.072C168.568 48.792 168.748 49.476 168.748 50.196C168.748 53.004 168.64 55.848 168.64 58.656C168.64 63.624 168.712 68.628 168.712 73.596C168.712 75.144 168.712 75.252 170.296 75.252C170.98 75.252 171.34 75.108 171.34 74.352V68.232C171.34 65.244 171.052 62.256 171.052 59.268C171.052 58.98 171.052 58.656 171.124 58.368C171.736 59.628 174.04 69.24 174.328 71.076C174.436 71.544 174.544 73.704 175.192 73.704C175.732 73.704 177.064 73.308 177.064 72.624C177.064 71.976 176.668 71.328 176.452 70.716C175.336 67.728 174.616 64.524 173.932 61.428ZM171.232 55.2V53.292C171.232 52.32 171.016 51.384 171.016 50.448C171.016 49.872 171.268 49.188 171.916 49.188C173.32 49.188 174.508 50.844 174.508 52.14C174.508 52.752 174.328 53.328 173.968 53.832C173.644 54.3 172.06 55.488 171.484 55.488C171.34 55.488 171.232 55.38 171.232 55.2ZM190.876 65.244H190.732C190.084 65.244 189.472 65.136 188.824 65.136C188.536 65.136 188.176 65.136 187.924 65.316C187.204 65.748 188.068 70.212 185.692 70.212C183.28 70.212 183.316 64.992 183.136 63.336C183.064 62.688 182.956 62.04 182.956 61.392C182.956 60.132 184.108 59.88 185.116 59.88C186.34 59.88 187.564 59.988 188.788 59.988C190.12 59.988 191.02 59.736 191.02 58.188C191.02 54.912 189.292 49.08 185.26 49.08C180.076 49.08 179.752 57.612 179.752 61.284C179.752 64.812 180.904 73.128 185.656 73.128C189.292 73.128 191.236 69.096 191.236 65.928C191.236 65.64 191.2 65.316 190.876 65.244ZM183.352 56.316V55.524C183.352 54.372 183.352 51.888 185.008 51.888C186.7 51.888 187.924 54.876 187.924 56.244C187.924 57.036 187.42 57.036 186.808 57.108C185.944 57.216 185.116 57.504 184.252 57.504C184 57.504 183.28 57.468 183.28 57.108C183.28 56.82 183.316 56.568 183.352 56.316Z" fill="white"/>
</svg>
