<svg width="1440" height="800" viewBox="0 0 1440 800" fill="none" xmlns="http://www.w3.org/2000/svg">
    <g clip-path="url(#clip0)">
        <rect width="1440" height="800" fill="white"/>
        <circle cx="188.5" cy="40.5" r="17.5" fill="#FFCDB6"/>
        <path d="M188.5 33V48" stroke="white" stroke-width="2" stroke-miterlimit="10" stroke-linecap="round"/>
        <path d="M196 40.5H181" stroke="white" stroke-width="2" stroke-miterlimit="10" stroke-linecap="round"/>
        <path d="M35.792 42.354H30.104L28.97 45H25.586L31.58 32.184H34.244L40.256 45H36.926L35.792 42.354ZM34.694 39.816L32.948 35.766L31.202 39.816H34.694ZM50.436 31.752V45H47.232V43.758C46.968 44.19 46.584 44.532 46.08 44.784C45.576 45.024 45.024 45.144 44.424 45.144C43.644 45.144 42.948 44.946 42.336 44.55C41.724 44.142 41.244 43.578 40.896 42.858C40.56 42.126 40.392 41.286 40.392 40.338C40.392 39.402 40.56 38.574 40.896 37.854C41.244 37.134 41.724 36.582 42.336 36.198C42.948 35.802 43.644 35.604 44.424 35.604C45 35.604 45.528 35.724 46.008 35.964C46.5 36.204 46.89 36.528 47.178 36.936V31.752H50.436ZM45.432 42.714C46.008 42.714 46.452 42.516 46.764 42.12C47.076 41.712 47.232 41.13 47.232 40.374C47.232 39.642 47.07 39.078 46.746 38.682C46.434 38.274 45.996 38.07 45.432 38.07C44.844 38.07 44.394 38.268 44.082 38.664C43.77 39.048 43.614 39.606 43.614 40.338C43.614 41.094 43.77 41.682 44.082 42.102C44.406 42.51 44.856 42.714 45.432 42.714ZM56.9804 45.144C55.9604 45.144 55.0724 44.952 54.3164 44.568C53.5604 44.184 52.9784 43.632 52.5704 42.912C52.1624 42.192 51.9584 41.346 51.9584 40.374C51.9584 39.402 52.1624 38.556 52.5704 37.836C52.9784 37.116 53.5604 36.564 54.3164 36.18C55.0724 35.796 55.9604 35.604 56.9804 35.604C57.9884 35.604 58.8644 35.802 59.6084 36.198C60.3644 36.582 60.9464 37.134 61.3544 37.854C61.7624 38.562 61.9664 39.402 61.9664 40.374C61.9664 41.346 61.7624 42.192 61.3544 42.912C60.9464 43.62 60.3644 44.172 59.6084 44.568C58.8644 44.952 57.9884 45.144 56.9804 45.144ZM56.9804 42.714C58.1564 42.714 58.7444 41.934 58.7444 40.374C58.7444 39.582 58.5944 39 58.2944 38.628C58.0064 38.244 57.5684 38.052 56.9804 38.052C56.3804 38.052 55.9304 38.244 55.6304 38.628C55.3304 39 55.1804 39.582 55.1804 40.374C55.1804 41.178 55.3304 41.772 55.6304 42.156C55.9304 42.528 56.3804 42.714 56.9804 42.714ZM69.5293 35.604C70.3093 35.604 71.0053 35.808 71.6173 36.216C72.2293 36.624 72.7093 37.194 73.0573 37.926C73.4053 38.658 73.5793 39.498 73.5793 40.446C73.5793 41.382 73.4053 42.21 73.0573 42.93C72.7213 43.638 72.2473 44.184 71.6353 44.568C71.0233 44.952 70.3213 45.144 69.5293 45.144C68.9293 45.144 68.3833 45.03 67.8913 44.802C67.3993 44.562 67.0213 44.232 66.7573 43.812V48.888H63.4993V38.484C63.4993 37.5 63.4513 36.624 63.3553 35.856H66.4153L66.5953 37.278C66.8233 36.774 67.2013 36.372 67.7293 36.072C68.2573 35.76 68.8573 35.604 69.5293 35.604ZM68.5393 42.714C69.1273 42.714 69.5713 42.522 69.8713 42.138C70.1713 41.754 70.3213 41.19 70.3213 40.446C70.3213 39.69 70.1653 39.108 69.8533 38.7C69.5533 38.28 69.1153 38.07 68.5393 38.07C67.9513 38.07 67.5013 38.268 67.1893 38.664C66.8773 39.06 66.7213 39.642 66.7213 40.41C66.7213 41.154 66.8773 41.724 67.1893 42.12C67.5013 42.516 67.9513 42.714 68.5393 42.714ZM80.3954 42.516C80.6114 42.516 80.8994 42.48 81.2594 42.408V44.874C80.8154 45.054 80.2514 45.144 79.5674 45.144C78.3314 45.144 77.3894 44.796 76.7414 44.1C76.1054 43.404 75.7874 42.438 75.7874 41.202V38.25H74.0774V35.856H75.7874V33.786L79.0454 32.742V35.856H81.2414V38.25H79.0454V41.202C79.0454 41.634 79.1714 41.964 79.4234 42.192C79.6874 42.408 80.0114 42.516 80.3954 42.516ZM90.9257 40.752H85.1837C85.2437 41.46 85.4477 41.97 85.7957 42.282C86.1437 42.594 86.6537 42.75 87.3257 42.75C87.7817 42.75 88.2377 42.678 88.6937 42.534C89.1497 42.378 89.5637 42.168 89.9357 41.904L90.7637 44.064C90.3077 44.4 89.7557 44.664 89.1077 44.856C88.4597 45.048 87.8117 45.144 87.1637 45.144C86.1197 45.144 85.2137 44.952 84.4457 44.568C83.6777 44.184 83.0897 43.638 82.6817 42.93C82.2737 42.21 82.0697 41.364 82.0697 40.392C82.0697 39.468 82.2617 38.646 82.6457 37.926C83.0417 37.194 83.5817 36.624 84.2657 36.216C84.9617 35.808 85.7537 35.604 86.6417 35.604C87.5057 35.604 88.2617 35.796 88.9097 36.18C89.5577 36.564 90.0557 37.116 90.4037 37.836C90.7517 38.544 90.9257 39.372 90.9257 40.32V40.752ZM86.7317 37.836C85.9277 37.836 85.4237 38.304 85.2197 39.24H88.1357C88.0157 38.304 87.5477 37.836 86.7317 37.836ZM98.2469 45.162C96.3749 45.162 94.9589 44.694 93.9989 43.758C93.0389 42.81 92.5589 41.424 92.5589 39.6V32.184H95.8529V39.726C95.8529 40.65 96.0569 41.358 96.4649 41.85C96.8849 42.342 97.4789 42.588 98.2469 42.588C99.0029 42.588 99.5849 42.342 99.9929 41.85C100.401 41.346 100.605 40.638 100.605 39.726V32.184H103.935V39.6C103.935 41.4 103.443 42.78 102.459 43.74C101.487 44.688 100.083 45.162 98.2469 45.162ZM112.088 35.604C113.168 35.604 113.972 35.934 114.5 36.594C115.04 37.242 115.31 38.226 115.31 39.546V45H112.052V39.69C112.052 39.126 111.956 38.724 111.764 38.484C111.572 38.232 111.272 38.106 110.864 38.106C110.372 38.106 109.976 38.274 109.676 38.61C109.376 38.934 109.226 39.366 109.226 39.906V45H105.968V38.484C105.968 37.5 105.92 36.624 105.824 35.856H108.884L109.046 37.206C109.394 36.69 109.826 36.294 110.342 36.018C110.858 35.742 111.44 35.604 112.088 35.604ZM117.381 32.184H123.483C124.947 32.184 126.081 32.538 126.885 33.246C127.689 33.942 128.091 34.89 128.091 36.09C128.091 37.278 127.683 38.226 126.867 38.934C126.051 39.642 124.923 39.996 123.483 39.996H120.765V45H117.381V32.184ZM123.033 37.476C124.305 37.476 124.941 37.026 124.941 36.126C124.941 35.67 124.785 35.328 124.473 35.1C124.173 34.86 123.693 34.74 123.033 34.74H120.765V37.476H123.033ZM138.766 35.856V45H135.562V43.758C135.298 44.19 134.914 44.532 134.41 44.784C133.906 45.024 133.354 45.144 132.754 45.144C131.974 45.144 131.278 44.952 130.666 44.568C130.054 44.184 129.574 43.638 129.226 42.93C128.89 42.21 128.722 41.382 128.722 40.446C128.722 39.498 128.896 38.658 129.244 37.926C129.592 37.194 130.072 36.624 130.684 36.216C131.296 35.808 131.986 35.604 132.754 35.604C133.354 35.604 133.9 35.736 134.392 36C134.896 36.252 135.286 36.594 135.562 37.026V35.856H138.766ZM133.762 42.714C134.338 42.714 134.782 42.516 135.094 42.12C135.406 41.724 135.562 41.154 135.562 40.41C135.562 39.654 135.406 39.078 135.094 38.682C134.782 38.274 134.338 38.07 133.762 38.07C133.198 38.07 132.754 38.28 132.43 38.7C132.106 39.108 131.944 39.69 131.944 40.446C131.944 41.178 132.1 41.742 132.412 42.138C132.724 42.522 133.174 42.714 133.762 42.714ZM146.48 35.64C146.924 35.64 147.266 35.706 147.506 35.838V38.808C146.99 38.568 146.492 38.448 146.012 38.448C144.644 38.448 143.96 39.102 143.96 40.41V45H140.702V38.484C140.702 37.5 140.654 36.624 140.558 35.856H143.618L143.816 37.386C144.032 36.822 144.38 36.39 144.86 36.09C145.34 35.79 145.88 35.64 146.48 35.64ZM152.797 45.144C151.249 45.144 150.037 44.724 149.161 43.884C148.285 43.044 147.847 41.898 147.847 40.446C147.847 39.486 148.057 38.64 148.477 37.908C148.909 37.176 149.509 36.612 150.277 36.216C151.045 35.808 151.933 35.604 152.941 35.604C153.613 35.604 154.273 35.706 154.921 35.91C155.569 36.102 156.085 36.366 156.469 36.702L155.641 38.952C155.317 38.688 154.939 38.478 154.507 38.322C154.075 38.166 153.661 38.088 153.265 38.088C152.593 38.088 152.077 38.28 151.717 38.664C151.357 39.048 151.177 39.618 151.177 40.374C151.177 41.142 151.357 41.724 151.717 42.12C152.077 42.504 152.599 42.696 153.283 42.696C153.679 42.696 154.087 42.618 154.507 42.462C154.939 42.306 155.317 42.096 155.641 41.832L156.469 44.046C156.073 44.394 155.545 44.664 154.885 44.856C154.237 45.048 153.541 45.144 152.797 45.144Z" fill="#025949"/>
        <path d="M577.001 372.024C572.055 372.024 568.027 367.982 568.027 363.012C568.027 358.042 572.055 354 577.001 354C581.946 354 585.974 358.042 585.974 363.012C585.974 367.982 581.946 372.024 577.001 372.024Z" fill="#FFCDB6"/>
        <path d="M577.001 415C574.847 415 572.665 414.65 570.522 413.951C564.873 412.102 560.247 407.634 558.245 402.016C555.921 395.494 556.886 388.565 560.841 383.126C564.634 377.915 570.699 374.809 577.055 374.827C577.867 374.831 578.513 375.537 578.513 376.349V391.85C578.513 392.702 579.202 393.394 580.05 393.394H595.484C596.296 393.394 596.996 394.045 597 394.857C597.018 401.24 593.925 407.332 588.733 411.14C585.271 413.686 581.192 415 577.001 415Z" fill="#FFCDB6"/>
        <path d="M895.272 585.71H874.513C873.683 585.71 873.013 585.047 873.013 584.227C873.013 583.407 873.683 582.745 874.513 582.745H895.272C896.102 582.745 896.772 583.407 896.772 584.227C896.772 585.047 896.098 585.71 895.272 585.71Z" fill="#3EE5B1"/>
        <path d="M895.272 599.544H874.513C873.683 599.544 873.013 598.882 873.013 598.062C873.013 597.242 873.683 596.579 874.513 596.579H895.272C896.102 596.579 896.772 597.242 896.772 598.062C896.772 598.882 896.098 599.544 895.272 599.544Z" fill="#3EE5B1"/>
        <path d="M874.513 616H857.5C857.101 616 856.721 615.842 856.438 615.567C856.156 615.287 856 614.911 856 614.517L856.047 565.454C856.326 560.118 860.699 556 866.007 556C871.31 556 875.687 560.118 875.966 565.376C875.966 565.401 875.966 565.429 875.966 565.454L876.009 614.517C876.009 614.908 875.85 615.287 875.571 615.567C875.292 615.846 874.912 616 874.513 616Z" fill="#FFCDB6"/>
        <path d="M912.286 616H895.272C894.874 616 894.493 615.842 894.211 615.567C893.928 615.291 893.772 614.911 893.772 614.517L893.82 565.454C894.099 560.118 898.471 556 903.779 556C909.083 556 913.459 560.118 913.738 565.376C913.738 565.401 913.738 565.429 913.738 565.454L913.782 614.517C913.782 614.908 913.622 615.287 913.343 615.567C913.064 615.846 912.684 616 912.286 616Z" fill="#FFCDB6"/>
        <path d="M732.744 387.778C731.887 387.778 731.195 388.473 731.195 389.335V413.443C731.195 414.305 731.887 415 732.744 415H741.253C742.11 415 742.802 414.305 742.802 413.443V388.557C742.802 387.695 733.551 387.778 732.744 387.778Z" fill="#FFCDB6"/>
        <path d="M763.134 390.113H710.862C710.005 390.113 709.313 389.418 709.313 388.557C709.313 387.695 710.005 387 710.862 387H763.134C763.992 387 764.683 387.695 764.683 388.557C764.683 389.414 763.992 390.113 763.134 390.113Z" fill="#3EE5B1"/>
        <path d="M718.179 401.95H713.168H710.862H708.56H703.549C702.692 401.95 702 402.645 702 403.507C702 404.368 702.692 405.063 703.549 405.063H707.011V413.443C707.011 414.305 707.703 415 708.56 415H713.168C714.025 415 714.717 414.305 714.717 413.443V405.063H718.179C719.036 405.063 719.728 404.368 719.728 403.507C719.728 402.645 719.033 401.95 718.179 401.95Z" fill="#FFCDB6"/>
        <path d="M770.451 401.95H765.44H763.134H760.832H755.821C754.964 401.95 754.272 402.645 754.272 403.507C754.272 404.368 754.964 405.063 755.821 405.063H759.283V413.443C759.283 414.305 759.975 415 760.832 415H765.44C766.297 415 766.989 414.305 766.989 413.443V405.063H770.451C771.308 405.063 772 404.368 772 403.507C772 402.645 771.308 401.95 770.451 401.95Z" fill="#FFCDB6"/>
        <path d="M720.862 308.774C719.996 308.774 719.297 308.075 719.297 307.21V288.605C719.297 287.74 719.996 287.041 720.862 287.041C721.728 287.041 722.427 287.74 722.427 288.605V307.21C722.427 308.072 721.728 308.774 720.862 308.774Z" fill="#3EE5B1"/>
        <path d="M711.224 313.974C710.358 313.974 709.659 313.276 709.659 312.41V290.314C709.659 289.449 710.358 288.75 711.224 288.75C712.091 288.75 712.789 289.449 712.789 290.314V312.41C712.789 313.276 712.087 313.974 711.224 313.974Z" fill="#3EE5B1"/>
        <path d="M761.78 313.974C760.914 313.974 760.215 313.276 760.215 312.41V290.314C760.215 289.449 760.914 288.75 761.78 288.75C762.646 288.75 763.345 289.449 763.345 290.314V312.41C763.341 313.276 762.643 313.974 761.78 313.974Z" fill="#3EE5B1"/>
        <path d="M752.142 308.774C751.275 308.774 750.577 308.075 750.577 307.21V288.605C750.577 287.74 751.275 287.041 752.142 287.041C753.008 287.041 753.707 287.74 753.707 288.605V307.21C753.703 308.072 753.004 308.774 752.142 308.774Z" fill="#3EE5B1"/>
        <path d="M772.914 283.147H700.09C698.387 283.147 697.004 281.761 697.004 280.063C697.004 278.361 698.391 276.975 700.09 276.975H772.914C774.617 276.975 776 278.361 776 280.063C776 281.761 774.617 283.147 772.914 283.147Z" fill="#FFCDB6"/>
        <path d="M772.914 274.168H700.09C698.387 274.168 697.004 272.782 697.004 271.084C697.004 269.386 698.391 268 700.09 268H772.914C774.617 268 776 269.386 776 271.084C776 272.782 774.617 274.168 772.914 274.168Z" fill="#FFCDB6"/>
        <path d="M774.439 291.518H698.565C697.699 291.518 697 290.82 697 289.954C697 287.601 698.914 285.688 701.269 285.688H771.727C774.082 285.688 775.996 287.601 775.996 289.954C776 290.82 775.301 291.518 774.439 291.518Z" fill="#FFCDB6"/>
        <path d="M599.888 470.77C597.11 461.489 588.18 455.004 578.167 455H557.227C555.999 455 555 455.998 555 457.225V513.775C555 515.002 555.999 516 557.227 516H568.454C569.682 516 570.681 515.002 570.681 513.775V501.075C572.004 501.017 573.352 501.028 574.661 501.042C577.121 501.071 579.673 501.09 582.18 500.634C588.526 499.48 594.333 495.5 597.715 489.995C601.149 484.399 601.921 477.571 599.888 470.77ZM579.188 485.688C578.215 485.724 577.227 485.735 576.25 485.735C575.616 485.735 574.125 485.735 572.835 485.735C571.606 485.735 570.611 484.737 570.611 483.51V472.445C570.611 471.214 571.603 470.216 572.835 470.22C575.087 470.224 578.28 470.238 579.531 470.358C583.19 470.715 586.31 474.375 586.204 478.187C586.095 482.112 582.884 485.546 579.188 485.688Z" fill="#FFCDB6"/>
        <path d="M597.814 611.4L592.592 593.84H562.408L557.186 611.4C556.356 614.189 558.406 617 561.267 617H577.502H593.736C596.594 616.996 598.644 614.186 597.814 611.4ZM565.577 602.327H577.652H589.648L590.417 604.708H577.652H564.808L565.577 602.327ZM577.652 610.526H563.442L564.211 608.145H577.652H591.093L591.862 610.526H577.652Z" fill="#3EE5B1"/>
        <path d="M585.578 556H569.726C563.138 556 557.798 561.436 557.798 568.142V584.279C557.798 590.986 563.138 596.422 569.726 596.422H585.578C592.166 596.422 597.506 590.986 597.506 584.279V568.142C597.506 561.436 592.166 556 585.578 556ZM572.562 559.765H582.438C583.271 559.765 583.947 560.453 583.947 561.301C583.947 562.15 583.271 562.838 582.438 562.838H572.562C571.729 562.838 571.053 562.15 571.053 561.301C571.053 560.453 571.726 559.765 572.562 559.765ZM566.6 589.704C564.855 589.704 563.442 588.266 563.442 586.489C563.442 584.712 564.855 583.274 566.6 583.274C568.346 583.274 569.758 584.712 569.758 586.489C569.758 588.266 568.346 589.704 566.6 589.704ZM588.704 589.704C586.959 589.704 585.546 588.266 585.546 586.489C585.546 584.712 586.959 583.274 588.704 583.274C590.45 583.274 591.862 584.712 591.862 586.489C591.862 588.266 590.45 589.704 588.704 589.704ZM591.862 576.873C591.862 579.324 589.91 581.312 587.502 581.312H567.805C565.398 581.312 563.445 579.324 563.445 576.873V568.521C563.445 566.071 565.398 564.083 567.805 564.083H587.502C589.91 564.083 591.862 566.071 591.862 568.521V576.873Z" fill="#FFCDB6"/>
        <path d="M738.711 563.719H734.289C732.347 563.719 730.771 562.109 730.771 560.136V559.583C730.771 557.609 732.351 556 734.289 556H738.711C740.649 556 742.229 557.606 742.229 559.583V560.136C742.229 562.109 740.649 563.719 738.711 563.719ZM734.285 559.146C734.053 559.146 733.852 559.346 733.852 559.583V560.136C733.852 560.376 734.049 560.577 734.285 560.577H738.708C738.94 560.577 739.137 560.376 739.137 560.136V559.583C739.137 559.346 738.94 559.146 738.708 559.146H734.285Z" fill="#3EE5B1"/>
        <path d="M745.078 573.8H727.917C724.235 573.8 721.235 570.749 721.235 566.999C721.235 563.245 724.231 560.194 727.917 560.194H745.078C748.765 560.194 751.761 563.245 751.761 566.999C751.761 570.746 748.761 573.8 745.078 573.8Z" fill="#FFCDB6"/>
        <path d="M750.57 579.003C749.169 577.052 746.998 575.934 744.624 575.934H728.371C725.994 575.938 723.827 577.059 722.425 579.011C721.024 580.962 720.634 583.405 721.353 585.71L729.479 611.768C730.47 614.947 733.226 617 736.501 617C739.776 617 742.533 614.947 743.523 611.768L751.65 585.71C752.365 583.402 751.975 580.955 750.57 579.003ZM731.832 607.126C731.735 607.151 731.642 607.162 731.55 607.162C731.031 607.162 730.559 606.805 730.427 606.27L725.321 585.572C725.168 584.938 725.543 584.297 726.162 584.141C726.784 583.977 727.409 584.366 727.567 584.993L732.672 605.691C732.826 606.328 732.451 606.969 731.832 607.126ZM737.656 605.986C737.656 606.638 737.138 607.166 736.498 607.166C735.858 607.166 735.339 606.638 735.339 605.986V585.288C735.339 584.636 735.858 584.108 736.498 584.108C737.138 584.108 737.656 584.636 737.656 585.288V605.986ZM748.064 585.575L742.958 606.274C742.826 606.809 742.354 607.166 741.836 607.166C741.743 607.166 741.646 607.155 741.553 607.129C740.935 606.973 740.556 606.332 740.713 605.699L745.819 585C745.976 584.37 746.605 583.988 747.224 584.148C747.842 584.301 748.221 584.942 748.064 585.575Z" fill="#FFCDB6"/>
        <path d="M723.256 482.385C719.671 480.372 717.843 477.263 718.011 473.099C718.089 471.162 718.509 469.24 718.787 467.314C719.272 463.998 719.775 460.69 720.252 457.375C720.338 456.769 720.591 456.312 721.107 456C721.414 456 721.72 456 722.027 456C722.494 456.287 722.818 456.66 722.868 457.248C722.971 458.51 723.096 459.769 723.196 461.031C723.438 464.02 723.673 467.009 723.905 470.002C723.944 470.484 724.183 470.785 724.657 470.792C725.11 470.796 725.323 470.517 725.359 470.045C725.462 468.609 725.591 467.172 725.712 465.736C725.933 463.077 726.164 460.418 726.364 457.759C726.417 457.041 726.578 456.417 727.205 456.007C727.551 456.007 727.896 456.007 728.238 456.007C728.741 456.366 728.998 456.86 729.047 457.48C729.247 460.019 729.45 462.558 729.653 465.097C729.785 466.726 729.917 468.355 730.049 469.98C730.085 470.437 730.263 470.789 730.765 470.792C731.3 470.796 731.481 470.411 731.521 469.943C731.645 468.453 731.763 466.958 731.881 465.467C732.084 462.888 732.29 460.309 732.49 457.73C732.543 457.045 732.718 456.432 733.299 456.004C733.645 456.004 733.99 456.004 734.332 456.004C734.881 456.348 735.099 456.863 735.191 457.505C735.89 462.322 736.613 467.136 737.326 471.953C737.967 476.302 736.057 480.245 732.258 482.342C731.841 482.57 731.674 482.817 731.71 483.292C731.902 485.777 732.073 488.265 732.248 490.753C732.38 492.64 732.504 494.526 732.636 496.408C732.85 499.459 733.078 502.51 733.288 505.56C733.392 507.076 733.534 508.593 733.548 510.113C733.577 513.363 730.929 515.985 727.704 515.985C724.472 515.985 721.859 513.366 721.884 510.091C721.902 507.889 722.152 505.698 722.305 503.504C722.433 501.657 722.554 499.811 722.686 497.965C722.904 494.856 723.128 491.747 723.345 488.639C723.474 486.832 723.588 485.022 723.723 483.216C723.755 482.806 723.613 482.588 723.256 482.385Z" fill="#FFCDB6"/>
        <path d="M755.152 456.004C755.772 456.348 756 456.881 756 457.6C755.989 475.022 755.996 492.444 755.989 509.866C755.989 512.971 753.673 515.651 750.772 515.963C747.704 516.293 744.992 514.36 744.254 511.353C743.979 510.239 744.136 509.144 744.243 508.041C744.489 505.462 744.749 502.887 745.006 500.308C745.298 497.362 745.59 494.417 745.882 491.472C745.893 491.356 745.918 491.24 745.915 491.123C745.89 489.807 746.274 488.704 747.336 487.848C747.996 487.318 747.939 487.257 747.429 486.564C746.004 484.631 745.123 482.44 744.525 480.118C743.741 477.075 743.438 473.966 743.659 470.839C744.054 465.246 746.656 460.904 751.167 457.723C752.133 457.045 753.177 456.515 754.236 456.007C754.539 456.004 754.845 456.004 755.152 456.004Z" fill="#FFCDB6"/>
        <path d="M555.105 272.376C550.196 272.376 546.201 268.401 546.201 263.509C546.201 258.617 550.196 254.641 555.105 254.641C560.014 254.641 564.009 258.617 564.009 263.509C564.009 268.401 560.014 272.376 555.105 272.376Z" fill="#FFCDB6"/>
        <path d="M563.024 314H547.187C544.871 314 542.76 312.933 541.393 311.074C540.027 309.212 539.642 306.884 540.343 304.685L548.262 279.855C549.229 276.825 551.916 274.869 555.105 274.869C558.295 274.869 560.981 276.828 561.945 279.855L569.864 304.685C570.565 306.884 570.184 309.212 568.814 311.074C567.447 312.933 565.336 314 563.024 314Z" fill="#FFCDB6"/>
        <path d="M600.895 272.376C595.986 272.376 591.991 268.401 591.991 263.509C591.991 258.616 595.986 254.645 600.895 254.645C605.803 254.645 609.799 258.62 609.799 263.512C609.799 268.405 605.803 272.376 600.895 272.376Z" fill="#FFCDB6"/>
        <path d="M600.895 314C597.705 314 595.019 312.041 594.055 309.015L586.136 284.184C585.435 281.989 585.816 279.665 587.183 277.802C588.549 275.94 590.66 274.873 592.976 274.869H608.813C611.126 274.869 613.24 275.936 614.607 277.795C615.973 279.658 616.358 281.982 615.657 284.184L607.738 309.015C606.771 312.045 604.088 314 600.895 314Z" fill="#FFCDB6"/>
        <path d="M577.998 314C577.168 314 576.495 313.33 576.495 312.503V255.497C576.495 254.67 577.168 254 577.998 254C578.829 254 579.502 254.67 579.502 255.497V312.503C579.505 313.33 578.833 314 577.998 314Z" fill="#3EE5B1"/>
        <path d="M1011.87 380.674C1024.25 380.674 1034.3 378.497 1034.3 375.81C1034.3 373.124 1024.25 370.946 1011.87 370.946C999.48 370.946 989.438 373.124 989.438 375.81C989.438 378.497 999.48 380.674 1011.87 380.674Z" stroke="#3EE5B1" stroke-width="2" stroke-miterlimit="10"/>
        <path d="M1011.87 378.324C1013.18 378.249 1014.46 377.587 1015.27 376.356L1027.09 358.229H996.642L1008.47 376.356C1009.27 377.587 1010.55 378.249 1011.87 378.324Z" fill="#FDECE0"/>
        <path d="M1011.87 369.505C1012.23 369.501 1012.6 369.487 1012.98 369.468C1025.65 368.848 1036.85 340.414 1036.33 335.056C1035.82 329.698 1029.05 324.638 1029.05 324.638H994.67C994.67 324.638 987.905 329.698 987.392 335.056C986.878 340.414 998.071 368.848 1010.74 369.468C1011.13 369.487 1011.5 369.501 1011.87 369.505Z" fill="#FFCDB6"/>
        <path d="M1011.87 391.065C1021.86 391.065 1029.97 389.728 1029.97 388.08C1029.97 386.432 1021.86 385.095 1011.87 385.095C1001.87 385.095 993.764 386.432 993.764 388.08C993.764 389.728 1001.87 391.065 1011.87 391.065Z" stroke="#3EE5B1" stroke-width="2" stroke-miterlimit="10"/>
        <path d="M1011.87 400C1017.21 400 1021.54 398.989 1021.54 397.743C1021.54 396.496 1017.21 395.486 1011.87 395.486C1006.53 395.486 1002.2 396.496 1002.2 397.743C1002.2 398.989 1006.53 400 1011.87 400Z" stroke="#3EE5B1" stroke-width="2" stroke-miterlimit="10"/>
        <path d="M1019.78 265.486H1005.2V283.174H1019.78V265.486Z" fill="#45396D"/>
        <path d="M1011.87 336.236C1023.84 336.236 1033.55 322.959 1033.55 306.581C1033.55 290.202 1023.84 276.925 1011.87 276.925C999.892 276.925 990.185 290.202 990.185 306.581C990.185 322.959 999.892 336.236 1011.87 336.236Z" fill="#45396D"/>
        <path d="M1079.2 340.503C1078.77 344.294 1077.42 354.857 1075.14 360.994C1074.34 363.154 1071.33 363.252 1070.34 361.172C1066.18 352.427 1063.95 340.279 1065.37 334.79C1066.72 329.562 1075.18 335.737 1078.25 338.18C1078.94 338.74 1079.3 339.617 1079.2 340.503Z" fill="#45396D"/>
        <path d="M1058.65 283.174C1063.48 283.174 1067.4 277.011 1067.4 269.408C1067.4 261.805 1063.48 255.641 1058.65 255.641C1053.82 255.641 1049.91 261.805 1049.91 269.408C1049.91 277.011 1053.82 283.174 1058.65 283.174Z" fill="#45396D"/>
        <path d="M1014.32 270.648L1014.33 294.6V294.605C1014.45 294.605 1016.18 294.493 1036.5 292.525C1040.84 292.105 1044.34 290.44 1047.17 288.02C1047.17 288.015 1047.17 288.015 1047.17 288.015C1059.31 277.578 1058.84 252.992 1058.83 252.563C1046.79 263.611 1031.29 270.368 1014.32 270.648Z" fill="#FFCDB6"/>
        <path d="M1014.33 294.605C1014.33 294.721 1014.34 298.042 1015.33 305C1036.78 310.932 1038.23 319.904 1039.24 319.466C1040.26 319.032 1052.14 313.539 1049.53 307.173C1046.96 300.886 1047.16 288.342 1047.17 288.02C1044.34 290.44 1040.84 292.105 1036.5 292.525C1016.18 294.493 1014.45 294.605 1014.33 294.605Z" fill="#FDECE0"/>
        <path d="M1063.76 258.243C1063.76 258.243 1067.12 248.664 1071.89 258.243C1076.65 267.822 1087.71 313.086 1078.48 342.098C1075.95 346.482 1070.61 347.853 1067.4 340.946C1064.18 334.039 1057.28 299.539 1058.65 283.17C1060.03 266.801 1063.76 258.243 1063.76 258.243Z" fill="#FDECE0"/>
        <path d="M1011.87 118.137C1012.24 118.133 1012.61 118.128 1012.98 118.128C1051.93 118.128 1083.5 152.274 1083.5 194.395C1083.5 217.708 1073.83 238.573 1058.59 252.558C1058.59 252.558 1058.59 252.558 1058.59 252.563C1046.55 263.611 1031.04 270.368 1014.08 270.648C1013.72 270.653 1013.35 270.658 1012.98 270.658C1012.61 270.658 1012.24 270.653 1011.87 270.648C1011.5 270.653 1011.12 270.658 1010.75 270.658C1010.39 270.658 1010.02 270.653 1009.65 270.648C992.689 270.368 977.184 263.611 965.145 252.563C965.145 252.558 965.145 252.558 965.145 252.558C949.906 238.573 940.235 217.708 940.235 194.395C940.235 152.274 971.807 118.128 1010.75 118.128C1011.12 118.128 1011.5 118.133 1011.87 118.137Z" fill="#FDECE0"/>
        <path d="M1011.45 189.065C985.355 189.373 967.696 186.173 960.665 186.351C950.705 186.598 952.695 209.967 966.145 234.077C976.969 253.486 992.633 260.654 1011.45 259.731H1011.87C1030.68 260.654 1046.34 253.486 1057.17 234.077C1070.61 209.967 1072.61 186.598 1062.65 186.351C1055.62 186.173 1037.96 189.377 1011.87 189.065H1011.45Z" fill="#FFCDB6"/>
        <path d="M914.494 145.876L904.497 126.201C904.497 126.201 902.035 121.425 906.09 119.98L941.548 179.696L940.436 188.412L936.666 188.356L914.494 145.876Z" fill="#45396D"/>
        <path d="M914.494 145.876C914.784 146.454 934.615 205.378 934.615 205.378L938.46 187.344L914.494 145.876Z" fill="#FFCDB6"/>
        <path d="M943.44 223.528C943.44 223.528 934.709 216.426 934.615 203.969C934.522 191.513 938.456 187.339 938.456 187.339L943.44 223.528Z" fill="#FFCDB6"/>
        <path d="M949.252 231.647C949.252 231.647 945.108 233.046 942.772 220.492C940.436 207.938 937.988 186.878 938.418 184.145C938.848 181.412 938.189 179.015 941.282 177.966C944.375 176.912 949.252 231.647 949.252 231.647Z" fill="#45396D"/>
        <path d="M1109.26 145.918L1119.26 126.243C1119.26 126.243 1121.72 121.467 1117.67 120.022L1082.2 179.738L1083.32 188.454L1087.09 188.398L1109.26 145.918Z" fill="#45396D"/>
        <path d="M1109.26 145.918C1108.97 146.496 1089.14 205.42 1089.14 205.42L1085.29 187.386L1109.26 145.918Z" fill="#FFCDB6"/>
        <path d="M1080.31 223.575C1080.31 223.575 1089.04 216.472 1089.14 204.016C1089.23 191.56 1085.3 187.386 1085.3 187.386L1080.31 223.575Z" fill="#FFCDB6"/>
        <path d="M1074.5 231.689C1074.5 231.689 1078.64 233.088 1080.98 220.534C1083.32 207.98 1085.76 186.92 1085.33 184.187C1084.9 181.454 1085.56 179.057 1082.47 178.008C1079.38 176.954 1074.5 231.689 1074.5 231.689Z" fill="#45396D"/>
        <path d="M1009.64 294.605C1009.64 294.6 1009.64 294.6 1009.64 294.6C1009.64 294.6 1009.66 294.605 1009.64 294.605Z" fill="#03A678"/>
        <path d="M885.419 288.488C881.655 289.099 871.179 290.933 865.176 293.231C863.064 294.039 863.136 296.543 865.27 297.22C874.241 300.082 886.504 301.111 891.907 299.565C897.054 298.094 890.408 291.501 887.793 289.122C887.194 288.583 886.298 288.343 885.419 288.488Z" fill="#45396D"/>
        <path d="M966.552 277.939C966.552 277.939 974.588 271.726 963.979 270.238C953.37 268.75 906.869 272.58 882.231 290.499C878.87 294.29 879.258 299.78 886.837 300.643C894.416 301.506 929.377 297.142 944.492 290.665C959.606 284.187 966.552 277.939 966.552 277.939Z" fill="#FDECE0"/>
        <path d="M954.237 284.123C957.953 287.204 964.909 284.96 969.774 279.111C974.638 273.262 975.57 266.023 971.854 262.942C968.139 259.86 961.183 262.104 956.318 267.953C951.453 273.802 950.522 281.042 954.237 284.123Z" fill="#45396D"/>
        <path d="M1009.65 270.648L1009.64 294.6V294.605C1009.53 294.605 1007.79 294.493 987.471 292.525C983.131 292.105 979.631 290.44 976.81 288.02C976.81 288.015 976.81 288.015 976.81 288.015C964.663 277.578 965.135 252.992 965.145 252.563C977.184 263.611 992.689 270.368 1009.65 270.648Z" fill="#FFCDB6"/>
        <path d="M1009.64 294.605C1009.64 294.721 1009.63 298.042 1008.64 305C987.195 310.932 985.747 319.904 984.733 319.466C983.72 319.032 971.835 313.539 974.442 307.173C977.016 300.886 976.815 288.342 976.81 288.02C979.632 290.44 983.131 292.105 987.471 292.525C1007.79 294.493 1009.53 294.605 1009.64 294.605Z" fill="#FDECE0"/>
        <path d="M1029.11 281.817C1029.1 282.829 1028.47 283.841 1027.09 283.841C1025.71 283.841 1025.07 282.853 1025.07 281.822C1025.07 280.791 1025.74 279.756 1027.09 279.756C1028.45 279.761 1029.12 280.796 1029.11 281.817ZM1025.81 281.836C1025.83 282.48 1026.17 283.165 1027.1 283.165C1028.02 283.165 1028.37 282.47 1028.38 281.827C1028.39 281.164 1028.02 280.428 1027.1 280.428C1026.17 280.432 1025.79 281.174 1025.81 281.836Z" fill="#FDECE0"/>
        <path d="M1031.44 281.454L1032.48 279.836H1033.37V279.868L1031.81 282.135V283.753H1031.07V282.135L1029.56 279.868V279.836H1030.44L1031.44 281.454Z" fill="#FDECE0"/>
        <path d="M1036.9 283.016H1034.85L1034.51 283.753H1033.71L1035.47 279.836H1036.28L1038.04 283.753H1037.23L1036.9 283.016ZM1035.87 280.661L1035.15 282.326H1036.6L1035.87 280.661Z" fill="#FDECE0"/>
        <path d="M1007.62 106.222C1011.51 99.0544 1015.97 103.704 1020.24 91.8866C1024.51 80.0692 1015.52 75 1015.52 75C1018.76 79.962 1017.47 90.7533 1005.79 95.9298C994.119 101.111 997.361 112.117 1003.63 117.513C1009.62 122.666 1011.02 126.807 1011.31 127.213C1010.83 126.494 1003.85 113.203 1007.62 106.222Z" fill="#3EE5B1"/>
        <path d="M1017.52 77.5369C1017.52 77.5369 1023.74 82.9326 1019.55 93.7893C1015.37 104.651 1012.46 99.9591 1008.97 106.46C1005.56 112.793 1011.03 126.499 1011.31 127.208C1011.32 127.213 1011.32 127.217 1011.32 127.222C1011.25 126.877 1009.93 120.161 1012.03 112.555C1014.2 104.749 1021.5 106.236 1024.13 96.8299C1026.78 87.4236 1015.55 72.6356 1017.52 77.5369Z" fill="#3EE5B1"/>
        <path d="M1008.99 219.462C1009.62 205.57 1001.27 193.907 990.328 193.41C979.389 192.914 970.009 203.773 969.377 217.665C968.744 231.557 977.099 243.22 988.038 243.717C998.977 244.213 1008.36 233.354 1008.99 219.462Z" fill="white"/>
        <path d="M1037.73 243.716C1048.67 243.22 1057.03 231.556 1056.39 217.664C1055.76 203.773 1046.38 192.913 1035.44 193.41C1024.5 193.906 1016.15 205.57 1016.78 219.461C1017.41 233.353 1026.79 244.212 1037.73 243.716Z" fill="white"/>
        <path d="M554.436 86.644V98.524C553.428 99.052 552.108 99.484 550.476 99.82C548.844 100.132 547.188 100.288 545.508 100.288C542.964 100.288 540.768 99.772 538.92 98.74C537.072 97.684 535.656 96.172 534.672 94.204C533.712 92.236 533.232 89.884 533.232 87.148C533.232 84.436 533.712 82.108 534.672 80.164C535.656 78.196 537.048 76.696 538.848 75.664C540.672 74.608 542.82 74.08 545.292 74.08C547.092 74.08 548.736 74.356 550.224 74.908C551.736 75.436 553.032 76.24 554.112 77.32L552.96 79.588C551.712 78.532 550.488 77.776 549.288 77.32C548.112 76.84 546.78 76.6 545.292 76.6C542.388 76.6 540.156 77.512 538.596 79.336C537.06 81.136 536.292 83.74 536.292 87.148C536.292 90.628 537.084 93.28 538.668 95.104C540.252 96.904 542.556 97.804 545.58 97.804C547.716 97.804 549.768 97.468 551.736 96.796V88.984H545.364V86.644H554.436ZM560.14 73.504H563.056V100H560.14V73.504ZM568.718 81.892H571.634V100H568.718V81.892ZM571.994 74.224V77.536H568.43V74.224H571.994ZM583.416 100.252C580.368 100.252 577.956 99.472 576.18 97.912L577.152 95.752C578.136 96.52 579.132 97.072 580.14 97.408C581.148 97.744 582.276 97.912 583.524 97.912C584.892 97.912 585.924 97.684 586.62 97.228C587.34 96.748 587.7 96.064 587.7 95.176C587.7 94.456 587.46 93.88 586.98 93.448C586.5 93.016 585.708 92.68 584.604 92.44L581.544 91.72C580.032 91.384 578.856 90.784 578.016 89.92C577.2 89.056 576.792 88.024 576.792 86.824C576.792 85.24 577.428 83.956 578.7 82.972C579.972 81.964 581.652 81.46 583.74 81.46C585.012 81.46 586.212 81.664 587.34 82.072C588.468 82.48 589.416 83.068 590.184 83.836L589.212 85.96C587.508 84.544 585.684 83.836 583.74 83.836C582.444 83.836 581.436 84.088 580.716 84.592C580.02 85.072 579.672 85.756 579.672 86.644C579.672 87.388 579.888 87.976 580.32 88.408C580.776 88.84 581.496 89.176 582.48 89.416L585.54 90.172C587.22 90.556 588.468 91.156 589.284 91.972C590.1 92.764 590.508 93.808 590.508 95.104C590.508 96.664 589.872 97.912 588.6 98.848C587.328 99.784 585.6 100.252 583.416 100.252ZM601.276 100.252C598.228 100.252 595.816 99.472 594.04 97.912L595.012 95.752C595.996 96.52 596.992 97.072 598 97.408C599.008 97.744 600.136 97.912 601.384 97.912C602.752 97.912 603.784 97.684 604.48 97.228C605.2 96.748 605.56 96.064 605.56 95.176C605.56 94.456 605.32 93.88 604.84 93.448C604.36 93.016 603.568 92.68 602.464 92.44L599.404 91.72C597.892 91.384 596.716 90.784 595.876 89.92C595.06 89.056 594.652 88.024 594.652 86.824C594.652 85.24 595.288 83.956 596.56 82.972C597.832 81.964 599.512 81.46 601.6 81.46C602.872 81.46 604.072 81.664 605.2 82.072C606.328 82.48 607.276 83.068 608.044 83.836L607.072 85.96C605.368 84.544 603.544 83.836 601.6 83.836C600.304 83.836 599.296 84.088 598.576 84.592C597.88 85.072 597.532 85.756 597.532 86.644C597.532 87.388 597.748 87.976 598.18 88.408C598.636 88.84 599.356 89.176 600.34 89.416L603.4 90.172C605.08 90.556 606.328 91.156 607.144 91.972C607.96 92.764 608.368 93.808 608.368 95.104C608.368 96.664 607.732 97.912 606.46 98.848C605.188 99.784 603.46 100.252 601.276 100.252ZM628.171 90.856H614.887C614.911 93.16 615.439 94.9 616.471 96.076C617.527 97.252 619.051 97.84 621.043 97.84C623.155 97.84 625.099 97.132 626.875 95.716L627.847 97.84C627.055 98.584 626.035 99.172 624.787 99.604C623.563 100.036 622.303 100.252 621.007 100.252C618.175 100.252 615.955 99.424 614.347 97.768C612.739 96.088 611.935 93.796 611.935 90.892C611.935 89.044 612.295 87.412 613.015 85.996C613.735 84.556 614.743 83.44 616.039 82.648C617.335 81.856 618.811 81.46 620.467 81.46C622.867 81.46 624.751 82.252 626.119 83.836C627.487 85.396 628.171 87.556 628.171 90.316V90.856ZM620.503 83.728C618.991 83.728 617.755 84.184 616.795 85.096C615.859 86.008 615.259 87.292 614.995 88.948H625.543C625.399 87.244 624.895 85.948 624.031 85.06C623.191 84.172 622.015 83.728 620.503 83.728ZM638.717 100.252C635.669 100.252 633.257 99.472 631.481 97.912L632.453 95.752C633.437 96.52 634.433 97.072 635.441 97.408C636.449 97.744 637.577 97.912 638.825 97.912C640.193 97.912 641.225 97.684 641.921 97.228C642.641 96.748 643.001 96.064 643.001 95.176C643.001 94.456 642.761 93.88 642.281 93.448C641.801 93.016 641.009 92.68 639.905 92.44L636.845 91.72C635.333 91.384 634.157 90.784 633.317 89.92C632.501 89.056 632.093 88.024 632.093 86.824C632.093 85.24 632.729 83.956 634.001 82.972C635.273 81.964 636.953 81.46 639.041 81.46C640.313 81.46 641.513 81.664 642.641 82.072C643.769 82.48 644.717 83.068 645.485 83.836L644.513 85.96C642.809 84.544 640.985 83.836 639.041 83.836C637.745 83.836 636.737 84.088 636.017 84.592C635.321 85.072 634.973 85.756 634.973 86.644C634.973 87.388 635.189 87.976 635.621 88.408C636.077 88.84 636.797 89.176 637.781 89.416L640.841 90.172C642.521 90.556 643.769 91.156 644.585 91.972C645.401 92.764 645.809 93.808 645.809 95.104C645.809 96.664 645.173 97.912 643.901 98.848C642.629 99.784 640.901 100.252 638.717 100.252ZM659.843 73.504H662.759V100H659.843V73.504ZM683.577 90.856H670.293C670.317 93.16 670.845 94.9 671.877 96.076C672.933 97.252 674.457 97.84 676.449 97.84C678.561 97.84 680.505 97.132 682.281 95.716L683.253 97.84C682.461 98.584 681.441 99.172 680.193 99.604C678.969 100.036 677.709 100.252 676.413 100.252C673.581 100.252 671.361 99.424 669.753 97.768C668.145 96.088 667.341 93.796 667.341 90.892C667.341 89.044 667.701 87.412 668.421 85.996C669.141 84.556 670.149 83.44 671.445 82.648C672.741 81.856 674.217 81.46 675.873 81.46C678.273 81.46 680.157 82.252 681.525 83.836C682.893 85.396 683.577 87.556 683.577 90.316V90.856ZM675.909 83.728C674.397 83.728 673.161 84.184 672.201 85.096C671.265 86.008 670.665 87.292 670.401 88.948H680.949C680.805 87.244 680.301 85.948 679.437 85.06C678.597 84.172 677.421 83.728 675.909 83.728ZM694.123 100.252C691.075 100.252 688.663 99.472 686.887 97.912L687.859 95.752C688.843 96.52 689.839 97.072 690.847 97.408C691.855 97.744 692.983 97.912 694.231 97.912C695.599 97.912 696.631 97.684 697.327 97.228C698.047 96.748 698.407 96.064 698.407 95.176C698.407 94.456 698.167 93.88 697.687 93.448C697.207 93.016 696.415 92.68 695.311 92.44L692.251 91.72C690.739 91.384 689.563 90.784 688.723 89.92C687.907 89.056 687.499 88.024 687.499 86.824C687.499 85.24 688.135 83.956 689.407 82.972C690.679 81.964 692.359 81.46 694.447 81.46C695.719 81.46 696.919 81.664 698.047 82.072C699.175 82.48 700.123 83.068 700.891 83.836L699.919 85.96C698.215 84.544 696.391 83.836 694.447 83.836C693.151 83.836 692.143 84.088 691.423 84.592C690.727 85.072 690.379 85.756 690.379 86.644C690.379 87.388 690.595 87.976 691.027 88.408C691.483 88.84 692.203 89.176 693.187 89.416L696.247 90.172C697.927 90.556 699.175 91.156 699.991 91.972C700.807 92.764 701.215 93.808 701.215 95.104C701.215 96.664 700.579 97.912 699.307 98.848C698.035 99.784 696.307 100.252 694.123 100.252ZM715.249 81.892H718.165V100H715.249V81.892ZM718.525 74.224V77.536H714.961V74.224H718.525ZM731.424 100.252C729.672 100.252 728.136 99.868 726.816 99.1C725.52 98.332 724.512 97.252 723.792 95.86C723.096 94.444 722.748 92.8 722.748 90.928C722.748 89.056 723.108 87.412 723.828 85.996C724.548 84.556 725.568 83.44 726.888 82.648C728.232 81.856 729.792 81.46 731.568 81.46C732.792 81.46 733.968 81.676 735.096 82.108C736.248 82.516 737.196 83.092 737.94 83.836L736.968 85.996C736.056 85.276 735.168 84.748 734.304 84.412C733.464 84.076 732.6 83.908 731.712 83.908C729.864 83.908 728.412 84.532 727.356 85.78C726.3 87.004 725.772 88.72 725.772 90.928C725.772 93.112 726.288 94.816 727.32 96.04C728.376 97.24 729.84 97.84 731.712 97.84C732.6 97.84 733.464 97.672 734.304 97.336C735.168 97 736.056 96.472 736.968 95.752L737.94 97.912C737.172 98.632 736.2 99.208 735.024 99.64C733.872 100.048 732.672 100.252 731.424 100.252ZM749.14 100.252C747.436 100.252 745.936 99.868 744.64 99.1C743.344 98.332 742.336 97.24 741.616 95.824C740.92 94.408 740.572 92.752 740.572 90.856C740.572 88.96 740.92 87.304 741.616 85.888C742.336 84.472 743.344 83.38 744.64 82.612C745.936 81.844 747.436 81.46 749.14 81.46C750.844 81.46 752.344 81.844 753.64 82.612C754.936 83.38 755.932 84.472 756.628 85.888C757.348 87.304 757.708 88.96 757.708 90.856C757.708 92.752 757.348 94.408 756.628 95.824C755.932 97.24 754.936 98.332 753.64 99.1C752.344 99.868 750.844 100.252 749.14 100.252ZM749.14 97.84C750.94 97.84 752.32 97.252 753.28 96.076C754.24 94.876 754.72 93.136 754.72 90.856C754.72 88.648 754.228 86.944 753.244 85.744C752.26 84.52 750.892 83.908 749.14 83.908C747.364 83.908 745.984 84.52 745 85.744C744.016 86.944 743.524 88.648 743.524 90.856C743.524 93.136 744.004 94.876 744.964 96.076C745.948 97.252 747.34 97.84 749.14 97.84ZM771.289 81.46C775.633 81.46 777.805 83.848 777.805 88.624V100H774.889V88.768C774.889 87.088 774.553 85.864 773.881 85.096C773.209 84.304 772.153 83.908 770.713 83.908C769.033 83.908 767.689 84.424 766.681 85.456C765.673 86.488 765.169 87.88 765.169 89.632V100H762.253V86.968C762.253 85.096 762.157 83.404 761.965 81.892H764.737L765.025 85.132C765.577 83.956 766.405 83.056 767.509 82.432C768.613 81.784 769.873 81.46 771.289 81.46ZM798.468 90.856H785.184C785.208 93.16 785.736 94.9 786.768 96.076C787.824 97.252 789.348 97.84 791.34 97.84C793.452 97.84 795.396 97.132 797.172 95.716L798.144 97.84C797.352 98.584 796.332 99.172 795.084 99.604C793.86 100.036 792.6 100.252 791.304 100.252C788.472 100.252 786.252 99.424 784.644 97.768C783.036 96.088 782.232 93.796 782.232 90.892C782.232 89.044 782.592 87.412 783.312 85.996C784.032 84.556 785.04 83.44 786.336 82.648C787.632 81.856 789.108 81.46 790.764 81.46C793.164 81.46 795.048 82.252 796.416 83.836C797.784 85.396 798.468 87.556 798.468 90.316V90.856ZM790.8 83.728C789.288 83.728 788.052 84.184 787.092 85.096C786.156 86.008 785.556 87.292 785.292 88.948H795.84C795.696 87.244 795.192 85.948 794.328 85.06C793.488 84.172 792.312 83.728 790.8 83.728ZM809.014 100.252C805.966 100.252 803.554 99.472 801.778 97.912L802.75 95.752C803.734 96.52 804.73 97.072 805.738 97.408C806.746 97.744 807.874 97.912 809.122 97.912C810.49 97.912 811.522 97.684 812.218 97.228C812.938 96.748 813.298 96.064 813.298 95.176C813.298 94.456 813.058 93.88 812.578 93.448C812.098 93.016 811.306 92.68 810.202 92.44L807.142 91.72C805.63 91.384 804.454 90.784 803.614 89.92C802.798 89.056 802.39 88.024 802.39 86.824C802.39 85.24 803.026 83.956 804.298 82.972C805.57 81.964 807.25 81.46 809.338 81.46C810.61 81.46 811.81 81.664 812.938 82.072C814.066 82.48 815.014 83.068 815.782 83.836L814.81 85.96C813.106 84.544 811.282 83.836 809.338 83.836C808.042 83.836 807.034 84.088 806.314 84.592C805.618 85.072 805.27 85.756 805.27 86.644C805.27 87.388 805.486 87.976 805.918 88.408C806.374 88.84 807.094 89.176 808.078 89.416L811.138 90.172C812.818 90.556 814.066 91.156 814.882 91.972C815.698 92.764 816.106 93.808 816.106 95.104C816.106 96.664 815.47 97.912 814.198 98.848C812.926 99.784 811.198 100.252 809.014 100.252ZM846.088 73.504V100H843.208V96.724C842.68 97.852 841.876 98.728 840.796 99.352C839.74 99.952 838.504 100.252 837.088 100.252C835.504 100.252 834.1 99.856 832.876 99.064C831.676 98.272 830.74 97.168 830.068 95.752C829.396 94.312 829.06 92.656 829.06 90.784C829.06 88.912 829.384 87.28 830.032 85.888C830.704 84.472 831.652 83.38 832.876 82.612C834.1 81.844 835.504 81.46 837.088 81.46C838.504 81.46 839.74 81.772 840.796 82.396C841.852 82.996 842.644 83.848 843.172 84.952V73.504H846.088ZM837.664 97.84C839.44 97.84 840.808 97.24 841.768 96.04C842.728 94.816 843.208 93.088 843.208 90.856C843.208 88.648 842.728 86.944 841.768 85.744C840.808 84.52 839.44 83.908 837.664 83.908C835.888 83.908 834.496 84.508 833.488 85.708C832.504 86.908 832.012 88.6 832.012 90.784C832.012 93.016 832.504 94.756 833.488 96.004C834.496 97.228 835.888 97.84 837.664 97.84ZM867.674 81.892V100H864.794V96.724C864.266 97.852 863.462 98.728 862.382 99.352C861.326 99.952 860.09 100.252 858.674 100.252C857.066 100.252 855.65 99.868 854.426 99.1C853.226 98.332 852.29 97.252 851.618 95.86C850.97 94.444 850.646 92.8 850.646 90.928C850.646 89.056 850.982 87.412 851.654 85.996C852.326 84.556 853.262 83.44 854.462 82.648C855.686 81.856 857.09 81.46 858.674 81.46C860.09 81.46 861.326 81.772 862.382 82.396C863.438 83.02 864.242 83.896 864.794 85.024V81.892H867.674ZM859.25 97.84C861.026 97.84 862.394 97.24 863.354 96.04C864.314 94.816 864.794 93.088 864.794 90.856C864.794 88.624 864.314 86.908 863.354 85.708C862.394 84.508 861.026 83.908 859.25 83.908C857.474 83.908 856.082 84.532 855.074 85.78C854.09 87.004 853.598 88.72 853.598 90.928C853.598 93.136 854.09 94.84 855.074 96.04C856.058 97.24 857.45 97.84 859.25 97.84ZM882.348 81.46C886.692 81.46 888.864 83.848 888.864 88.624V100H885.948V88.768C885.948 87.088 885.612 85.864 884.94 85.096C884.268 84.304 883.212 83.908 881.772 83.908C880.092 83.908 878.748 84.424 877.74 85.456C876.732 86.488 876.228 87.88 876.228 89.632V100H873.312V86.968C873.312 85.096 873.216 83.404 873.024 81.892H875.796L876.084 85.132C876.636 83.956 877.464 83.056 878.568 82.432C879.672 81.784 880.932 81.46 882.348 81.46ZM900.491 100.252C897.443 100.252 895.031 99.472 893.255 97.912L894.227 95.752C895.211 96.52 896.207 97.072 897.215 97.408C898.223 97.744 899.351 97.912 900.599 97.912C901.967 97.912 902.999 97.684 903.695 97.228C904.415 96.748 904.775 96.064 904.775 95.176C904.775 94.456 904.535 93.88 904.055 93.448C903.575 93.016 902.783 92.68 901.679 92.44L898.619 91.72C897.107 91.384 895.931 90.784 895.091 89.92C894.275 89.056 893.867 88.024 893.867 86.824C893.867 85.24 894.503 83.956 895.775 82.972C897.047 81.964 898.727 81.46 900.814 81.46C902.087 81.46 903.287 81.664 904.415 82.072C905.543 82.48 906.491 83.068 907.259 83.836L906.287 85.96C904.583 84.544 902.759 83.836 900.814 83.836C899.519 83.836 898.511 84.088 897.791 84.592C897.095 85.072 896.747 85.756 896.747 86.644C896.747 87.388 896.963 87.976 897.395 88.408C897.851 88.84 898.571 89.176 899.555 89.416L902.615 90.172C904.295 90.556 905.543 91.156 906.359 91.972C907.175 92.764 907.583 93.808 907.583 95.104C907.583 96.664 906.947 97.912 905.675 98.848C904.403 99.784 902.675 100.252 900.491 100.252ZM533.808 118.504H536.724V145H533.808V118.504ZM557.542 135.856H544.258C544.282 138.16 544.81 139.9 545.842 141.076C546.898 142.252 548.422 142.84 550.414 142.84C552.526 142.84 554.47 142.132 556.246 140.716L557.218 142.84C556.426 143.584 555.406 144.172 554.158 144.604C552.934 145.036 551.674 145.252 550.378 145.252C547.546 145.252 545.326 144.424 543.718 142.768C542.11 141.088 541.306 138.796 541.306 135.892C541.306 134.044 541.666 132.412 542.386 130.996C543.106 129.556 544.114 128.44 545.41 127.648C546.706 126.856 548.182 126.46 549.838 126.46C552.238 126.46 554.122 127.252 555.49 128.836C556.858 130.396 557.542 132.556 557.542 135.316V135.856ZM549.874 128.728C548.362 128.728 547.126 129.184 546.166 130.096C545.23 131.008 544.63 132.292 544.366 133.948H554.914C554.77 132.244 554.266 130.948 553.402 130.06C552.562 129.172 551.386 128.728 549.874 128.728ZM568.088 145.252C565.04 145.252 562.628 144.472 560.852 142.912L561.824 140.752C562.808 141.52 563.804 142.072 564.812 142.408C565.82 142.744 566.948 142.912 568.196 142.912C569.564 142.912 570.596 142.684 571.292 142.228C572.012 141.748 572.372 141.064 572.372 140.176C572.372 139.456 572.132 138.88 571.652 138.448C571.172 138.016 570.38 137.68 569.276 137.44L566.216 136.72C564.704 136.384 563.528 135.784 562.688 134.92C561.872 134.056 561.464 133.024 561.464 131.824C561.464 130.24 562.1 128.956 563.372 127.972C564.644 126.964 566.324 126.46 568.412 126.46C569.684 126.46 570.884 126.664 572.012 127.072C573.14 127.48 574.088 128.068 574.856 128.836L573.884 130.96C572.18 129.544 570.356 128.836 568.412 128.836C567.116 128.836 566.108 129.088 565.388 129.592C564.692 130.072 564.344 130.756 564.344 131.644C564.344 132.388 564.56 132.976 564.992 133.408C565.448 133.84 566.168 134.176 567.152 134.416L570.212 135.172C571.892 135.556 573.14 136.156 573.956 136.972C574.772 137.764 575.18 138.808 575.18 140.104C575.18 141.664 574.544 142.912 573.272 143.848C572 144.784 570.272 145.252 568.088 145.252ZM598.25 126.46C599.834 126.46 601.238 126.844 602.462 127.612C603.686 128.38 604.634 129.472 605.306 130.888C605.978 132.28 606.314 133.912 606.314 135.784C606.314 137.656 605.978 139.312 605.306 140.752C604.634 142.168 603.686 143.272 602.462 144.064C601.238 144.856 599.834 145.252 598.25 145.252C596.834 145.252 595.598 144.94 594.542 144.316C593.486 143.692 592.682 142.804 592.13 141.652V145H589.214V118.504H592.13V130.096C592.658 128.92 593.45 128.02 594.506 127.396C595.586 126.772 596.834 126.46 598.25 126.46ZM597.71 142.84C599.462 142.84 600.83 142.228 601.814 141.004C602.798 139.756 603.29 138.016 603.29 135.784C603.29 133.6 602.798 131.908 601.814 130.708C600.854 129.508 599.486 128.908 597.71 128.908C595.91 128.908 594.53 129.508 593.57 130.708C592.61 131.908 592.13 133.624 592.13 135.856C592.13 138.088 592.61 139.816 593.57 141.04C594.53 142.24 595.91 142.84 597.71 142.84ZM625.956 126.892V145H623.112V141.868C622.536 142.972 621.732 143.812 620.7 144.388C619.668 144.964 618.504 145.252 617.208 145.252C615.072 145.252 613.452 144.652 612.348 143.452C611.244 142.252 610.692 140.476 610.692 138.124V126.892H613.608V138.052C613.608 139.684 613.944 140.884 614.616 141.652C615.288 142.42 616.308 142.804 617.676 142.804C619.284 142.804 620.58 142.288 621.564 141.256C622.548 140.2 623.04 138.82 623.04 137.116V126.892H625.956ZM631.578 118.504H634.494V145H631.578V118.504ZM640.156 118.504H643.072V145H640.156V118.504ZM663.89 135.856H650.606C650.63 138.16 651.158 139.9 652.19 141.076C653.246 142.252 654.77 142.84 656.762 142.84C658.874 142.84 660.818 142.132 662.594 140.716L663.566 142.84C662.774 143.584 661.754 144.172 660.506 144.604C659.282 145.036 658.022 145.252 656.726 145.252C653.894 145.252 651.674 144.424 650.066 142.768C648.458 141.088 647.654 138.796 647.654 135.892C647.654 134.044 648.014 132.412 648.734 130.996C649.454 129.556 650.462 128.44 651.758 127.648C653.054 126.856 654.53 126.46 656.186 126.46C658.586 126.46 660.47 127.252 661.838 128.836C663.206 130.396 663.89 132.556 663.89 135.316V135.856ZM656.222 128.728C654.71 128.728 653.474 129.184 652.514 130.096C651.578 131.008 650.978 132.292 650.714 133.948H661.262C661.118 132.244 660.614 130.948 659.75 130.06C658.91 129.172 657.734 128.728 656.222 128.728ZM674.436 145.252C671.388 145.252 668.976 144.472 667.2 142.912L668.172 140.752C669.156 141.52 670.152 142.072 671.16 142.408C672.168 142.744 673.296 142.912 674.544 142.912C675.912 142.912 676.944 142.684 677.64 142.228C678.36 141.748 678.72 141.064 678.72 140.176C678.72 139.456 678.48 138.88 678 138.448C677.52 138.016 676.728 137.68 675.624 137.44L672.564 136.72C671.052 136.384 669.876 135.784 669.036 134.92C668.22 134.056 667.812 133.024 667.812 131.824C667.812 130.24 668.448 128.956 669.72 127.972C670.992 126.964 672.672 126.46 674.76 126.46C676.032 126.46 677.232 126.664 678.36 127.072C679.488 127.48 680.436 128.068 681.204 128.836L680.232 130.96C678.528 129.544 676.704 128.836 674.76 128.836C673.464 128.836 672.456 129.088 671.736 129.592C671.04 130.072 670.692 130.756 670.692 131.644C670.692 132.388 670.908 132.976 671.34 133.408C671.796 133.84 672.516 134.176 673.5 134.416L676.56 135.172C678.24 135.556 679.488 136.156 680.304 136.972C681.12 137.764 681.528 138.808 681.528 140.104C681.528 141.664 680.892 142.912 679.62 143.848C678.348 144.784 676.62 145.252 674.436 145.252ZM710.718 135.856H697.434C697.458 138.16 697.986 139.9 699.018 141.076C700.074 142.252 701.598 142.84 703.59 142.84C705.702 142.84 707.646 142.132 709.422 140.716L710.394 142.84C709.602 143.584 708.582 144.172 707.334 144.604C706.11 145.036 704.85 145.252 703.554 145.252C700.722 145.252 698.502 144.424 696.894 142.768C695.286 141.088 694.482 138.796 694.482 135.892C694.482 134.044 694.842 132.412 695.562 130.996C696.282 129.556 697.29 128.44 698.586 127.648C699.882 126.856 701.358 126.46 703.014 126.46C705.414 126.46 707.298 127.252 708.666 128.836C710.034 130.396 710.718 132.556 710.718 135.316V135.856ZM703.05 128.728C701.538 128.728 700.302 129.184 699.342 130.096C698.406 131.008 697.806 132.292 697.542 133.948H708.09C707.946 132.244 707.442 130.948 706.578 130.06C705.738 129.172 704.562 128.728 703.05 128.728ZM724.18 126.46C728.524 126.46 730.696 128.848 730.696 133.624V145H727.78V133.768C727.78 132.088 727.444 130.864 726.772 130.096C726.1 129.304 725.044 128.908 723.604 128.908C721.924 128.908 720.58 129.424 719.572 130.456C718.564 131.488 718.06 132.88 718.06 134.632V145H715.144V131.968C715.144 130.096 715.048 128.404 714.856 126.892H717.628L717.916 130.132C718.468 128.956 719.296 128.056 720.4 127.432C721.504 126.784 722.764 126.46 724.18 126.46ZM752.537 120.88C751.577 120.88 750.821 121.156 750.269 121.708C749.741 122.236 749.477 123.16 749.477 124.48V126.892H753.905V129.196H749.477V145H746.561V129.196H743.033V126.892H746.561V124.12C746.561 122.224 747.029 120.796 747.965 119.836C748.925 118.852 750.257 118.36 751.961 118.36C752.801 118.36 753.617 118.468 754.409 118.684V121.168C753.737 120.976 753.113 120.88 752.537 120.88ZM765.03 145.252C763.326 145.252 761.826 144.868 760.53 144.1C759.234 143.332 758.226 142.24 757.506 140.824C756.81 139.408 756.462 137.752 756.462 135.856C756.462 133.96 756.81 132.304 757.506 130.888C758.226 129.472 759.234 128.38 760.53 127.612C761.826 126.844 763.326 126.46 765.03 126.46C766.734 126.46 768.234 126.844 769.53 127.612C770.826 128.38 771.822 129.472 772.518 130.888C773.238 132.304 773.598 133.96 773.598 135.856C773.598 137.752 773.238 139.408 772.518 140.824C771.822 142.24 770.826 143.332 769.53 144.1C768.234 144.868 766.734 145.252 765.03 145.252ZM765.03 142.84C766.83 142.84 768.21 142.252 769.17 141.076C770.13 139.876 770.61 138.136 770.61 135.856C770.61 133.648 770.118 131.944 769.134 130.744C768.15 129.52 766.782 128.908 765.03 128.908C763.254 128.908 761.874 129.52 760.89 130.744C759.906 131.944 759.414 133.648 759.414 135.856C759.414 138.136 759.894 139.876 760.854 141.076C761.838 142.252 763.23 142.84 765.03 142.84ZM787.18 126.46C791.524 126.46 793.696 128.848 793.696 133.624V145H790.78V133.768C790.78 132.088 790.444 130.864 789.772 130.096C789.1 129.304 788.044 128.908 786.604 128.908C784.924 128.908 783.58 129.424 782.572 130.456C781.564 131.488 781.06 132.88 781.06 134.632V145H778.144V131.968C778.144 130.096 778.048 128.404 777.856 126.892H780.628L780.916 130.132C781.468 128.956 782.296 128.056 783.4 127.432C784.504 126.784 785.764 126.46 787.18 126.46ZM806.799 145.252C805.047 145.252 803.511 144.868 802.191 144.1C800.895 143.332 799.887 142.252 799.167 140.86C798.471 139.444 798.123 137.8 798.123 135.928C798.123 134.056 798.483 132.412 799.203 130.996C799.923 129.556 800.943 128.44 802.263 127.648C803.607 126.856 805.167 126.46 806.943 126.46C808.167 126.46 809.343 126.676 810.471 127.108C811.623 127.516 812.571 128.092 813.315 128.836L812.343 130.996C811.431 130.276 810.543 129.748 809.679 129.412C808.839 129.076 807.975 128.908 807.087 128.908C805.239 128.908 803.787 129.532 802.731 130.78C801.675 132.004 801.147 133.72 801.147 135.928C801.147 138.112 801.663 139.816 802.695 141.04C803.751 142.24 805.215 142.84 807.087 142.84C807.975 142.84 808.839 142.672 809.679 142.336C810.543 142 811.431 141.472 812.343 140.752L813.315 142.912C812.547 143.632 811.575 144.208 810.399 144.64C809.247 145.048 808.047 145.252 806.799 145.252ZM820.95 129.196V139.096C820.95 140.44 821.226 141.388 821.778 141.94C822.33 142.468 823.11 142.732 824.118 142.732C824.79 142.732 825.438 142.624 826.062 142.408V144.892C825.318 145.132 824.478 145.252 823.542 145.252C821.814 145.252 820.458 144.772 819.474 143.812C818.514 142.828 818.034 141.388 818.034 139.492V129.196H814.506V126.892H818.034V122.248L820.95 121.204V126.892H826.134V129.196H820.95ZM829.648 126.892H832.564V145H829.648V126.892ZM832.924 119.224V122.536H829.36V119.224H832.924ZM845.714 145.252C844.01 145.252 842.51 144.868 841.214 144.1C839.918 143.332 838.91 142.24 838.19 140.824C837.494 139.408 837.146 137.752 837.146 135.856C837.146 133.96 837.494 132.304 838.19 130.888C838.91 129.472 839.918 128.38 841.214 127.612C842.51 126.844 844.01 126.46 845.714 126.46C847.418 126.46 848.918 126.844 850.214 127.612C851.51 128.38 852.506 129.472 853.202 130.888C853.922 132.304 854.282 133.96 854.282 135.856C854.282 137.752 853.922 139.408 853.202 140.824C852.506 142.24 851.51 143.332 850.214 144.1C848.918 144.868 847.418 145.252 845.714 145.252ZM845.714 142.84C847.514 142.84 848.894 142.252 849.854 141.076C850.814 139.876 851.294 138.136 851.294 135.856C851.294 133.648 850.802 131.944 849.818 130.744C848.834 129.52 847.466 128.908 845.714 128.908C843.938 128.908 842.558 129.52 841.574 130.744C840.59 131.944 840.098 133.648 840.098 135.856C840.098 138.136 840.578 139.876 841.538 141.076C842.522 142.252 843.914 142.84 845.714 142.84ZM867.864 126.46C872.208 126.46 874.38 128.848 874.38 133.624V145H871.464V133.768C871.464 132.088 871.128 130.864 870.456 130.096C869.784 129.304 868.728 128.908 867.288 128.908C865.608 128.908 864.264 129.424 863.256 130.456C862.248 131.488 861.744 132.88 861.744 134.632V145H858.828V131.968C858.828 130.096 858.732 128.404 858.54 126.892H861.312L861.6 130.132C862.152 128.956 862.98 128.056 864.084 127.432C865.188 126.784 866.448 126.46 867.864 126.46ZM549.756 163.504V190H546.876V186.724C546.348 187.852 545.544 188.728 544.464 189.352C543.408 189.952 542.172 190.252 540.756 190.252C539.172 190.252 537.768 189.856 536.544 189.064C535.344 188.272 534.408 187.168 533.736 185.752C533.064 184.312 532.728 182.656 532.728 180.784C532.728 178.912 533.052 177.28 533.7 175.888C534.372 174.472 535.32 173.38 536.544 172.612C537.768 171.844 539.172 171.46 540.756 171.46C542.172 171.46 543.408 171.772 544.464 172.396C545.52 172.996 546.312 173.848 546.84 174.952V163.504H549.756ZM541.332 187.84C543.108 187.84 544.476 187.24 545.436 186.04C546.396 184.816 546.876 183.088 546.876 180.856C546.876 178.648 546.396 176.944 545.436 175.744C544.476 174.52 543.108 173.908 541.332 173.908C539.556 173.908 538.164 174.508 537.156 175.708C536.172 176.908 535.68 178.6 535.68 180.784C535.68 183.016 536.172 184.756 537.156 186.004C538.164 187.228 539.556 187.84 541.332 187.84ZM570.55 180.856H557.266C557.29 183.16 557.818 184.9 558.85 186.076C559.906 187.252 561.43 187.84 563.422 187.84C565.534 187.84 567.478 187.132 569.254 185.716L570.226 187.84C569.434 188.584 568.414 189.172 567.166 189.604C565.942 190.036 564.682 190.252 563.386 190.252C560.554 190.252 558.334 189.424 556.726 187.768C555.118 186.088 554.314 183.796 554.314 180.892C554.314 179.044 554.674 177.412 555.394 175.996C556.114 174.556 557.122 173.44 558.418 172.648C559.714 171.856 561.19 171.46 562.846 171.46C565.246 171.46 567.13 172.252 568.498 173.836C569.866 175.396 570.55 177.556 570.55 180.316V180.856ZM562.882 173.728C561.37 173.728 560.134 174.184 559.174 175.096C558.238 176.008 557.638 177.292 557.374 178.948H567.922C567.778 177.244 567.274 175.948 566.41 175.06C565.57 174.172 564.394 173.728 562.882 173.728ZM588.251 174.196V184.096C588.251 185.44 588.527 186.388 589.079 186.94C589.631 187.468 590.411 187.732 591.419 187.732C592.091 187.732 592.739 187.624 593.363 187.408V189.892C592.619 190.132 591.779 190.252 590.843 190.252C589.115 190.252 587.759 189.772 586.775 188.812C585.815 187.828 585.335 186.388 585.335 184.492V174.196H581.807V171.892H585.335V167.248L588.251 166.204V171.892H593.435V174.196H588.251ZM612.105 180.856H598.821C598.845 183.16 599.373 184.9 600.405 186.076C601.461 187.252 602.985 187.84 604.977 187.84C607.089 187.84 609.033 187.132 610.809 185.716L611.781 187.84C610.989 188.584 609.969 189.172 608.721 189.604C607.497 190.036 606.237 190.252 604.941 190.252C602.109 190.252 599.889 189.424 598.281 187.768C596.673 186.088 595.869 183.796 595.869 180.892C595.869 179.044 596.229 177.412 596.949 175.996C597.669 174.556 598.677 173.44 599.973 172.648C601.269 171.856 602.745 171.46 604.401 171.46C606.801 171.46 608.685 172.252 610.053 173.836C611.421 175.396 612.105 177.556 612.105 180.316V180.856ZM604.437 173.728C602.925 173.728 601.689 174.184 600.729 175.096C599.793 176.008 599.193 177.292 598.929 178.948H609.477C609.333 177.244 608.829 175.948 607.965 175.06C607.125 174.172 605.949 173.728 604.437 173.728ZM622.651 190.252C619.603 190.252 617.191 189.472 615.415 187.912L616.387 185.752C617.371 186.52 618.367 187.072 619.375 187.408C620.383 187.744 621.511 187.912 622.759 187.912C624.127 187.912 625.159 187.684 625.855 187.228C626.575 186.748 626.935 186.064 626.935 185.176C626.935 184.456 626.695 183.88 626.215 183.448C625.735 183.016 624.943 182.68 623.839 182.44L620.779 181.72C619.267 181.384 618.091 180.784 617.251 179.92C616.435 179.056 616.027 178.024 616.027 176.824C616.027 175.24 616.663 173.956 617.935 172.972C619.207 171.964 620.887 171.46 622.975 171.46C624.247 171.46 625.447 171.664 626.575 172.072C627.703 172.48 628.651 173.068 629.419 173.836L628.447 175.96C626.743 174.544 624.919 173.836 622.975 173.836C621.679 173.836 620.671 174.088 619.951 174.592C619.255 175.072 618.907 175.756 618.907 176.644C618.907 177.388 619.123 177.976 619.555 178.408C620.011 178.84 620.731 179.176 621.715 179.416L624.775 180.172C626.455 180.556 627.703 181.156 628.519 181.972C629.335 182.764 629.743 183.808 629.743 185.104C629.743 186.664 629.107 187.912 627.835 188.848C626.563 189.784 624.835 190.252 622.651 190.252ZM652.813 171.46C654.397 171.46 655.801 171.856 657.025 172.648C658.249 173.44 659.197 174.556 659.869 175.996C660.541 177.412 660.877 179.056 660.877 180.928C660.877 182.8 660.541 184.444 659.869 185.86C659.197 187.252 658.249 188.332 657.025 189.1C655.825 189.868 654.421 190.252 652.813 190.252C651.397 190.252 650.161 189.94 649.105 189.316C648.049 188.692 647.245 187.804 646.693 186.652V197.776H643.777V176.968C643.777 175.096 643.681 173.404 643.489 171.892H646.261L646.549 175.384C647.053 174.136 647.845 173.176 648.925 172.504C650.029 171.808 651.325 171.46 652.813 171.46ZM652.273 187.84C654.049 187.84 655.417 187.24 656.377 186.04C657.361 184.84 657.853 183.136 657.853 180.928C657.853 178.72 657.361 177.004 656.377 175.78C655.393 174.532 654.025 173.908 652.273 173.908C650.473 173.908 649.093 174.508 648.133 175.708C647.173 176.908 646.693 178.624 646.693 180.856C646.693 183.088 647.173 184.816 648.133 186.04C649.093 187.24 650.473 187.84 652.273 187.84ZM673.787 171.46C674.387 171.46 674.939 171.532 675.443 171.676L675.371 174.34C674.819 174.148 674.183 174.052 673.463 174.052C671.711 174.052 670.403 174.604 669.539 175.708C668.699 176.788 668.279 178.108 668.279 179.668V190H665.363V176.968C665.363 175.096 665.267 173.404 665.075 171.892H667.847L668.135 175.24C668.591 174.016 669.323 173.08 670.331 172.432C671.339 171.784 672.491 171.46 673.787 171.46ZM693.21 180.856H679.926C679.95 183.16 680.478 184.9 681.51 186.076C682.566 187.252 684.09 187.84 686.082 187.84C688.194 187.84 690.138 187.132 691.914 185.716L692.886 187.84C692.094 188.584 691.074 189.172 689.826 189.604C688.602 190.036 687.342 190.252 686.046 190.252C683.214 190.252 680.994 189.424 679.386 187.768C677.778 186.088 676.974 183.796 676.974 180.892C676.974 179.044 677.334 177.412 678.054 175.996C678.774 174.556 679.782 173.44 681.078 172.648C682.374 171.856 683.85 171.46 685.506 171.46C687.906 171.46 689.79 172.252 691.158 173.836C692.526 175.396 693.21 177.556 693.21 180.316V180.856ZM685.542 173.728C684.03 173.728 682.794 174.184 681.834 175.096C680.898 176.008 680.298 177.292 680.034 178.948H690.582C690.438 177.244 689.934 175.948 689.07 175.06C688.23 174.172 687.054 173.728 685.542 173.728ZM684.462 169.552L688.062 162.208H691.446L686.514 169.552H684.462ZM704.549 165.88C703.589 165.88 702.833 166.156 702.281 166.708C701.753 167.236 701.489 168.16 701.489 169.48V171.892H705.917V174.196H701.489V190H698.573V174.196H695.045V171.892H698.573V169.12C698.573 167.224 699.041 165.796 699.977 164.836C700.937 163.852 702.269 163.36 703.973 163.36C704.813 163.36 705.629 163.468 706.421 163.684V166.168C705.749 165.976 705.125 165.88 704.549 165.88ZM724.71 180.856H711.426C711.45 183.16 711.978 184.9 713.01 186.076C714.066 187.252 715.59 187.84 717.582 187.84C719.694 187.84 721.638 187.132 723.414 185.716L724.386 187.84C723.594 188.584 722.574 189.172 721.326 189.604C720.102 190.036 718.842 190.252 717.546 190.252C714.714 190.252 712.494 189.424 710.886 187.768C709.278 186.088 708.474 183.796 708.474 180.892C708.474 179.044 708.834 177.412 709.554 175.996C710.274 174.556 711.282 173.44 712.578 172.648C713.874 171.856 715.35 171.46 717.006 171.46C719.406 171.46 721.29 172.252 722.658 173.836C724.026 175.396 724.71 177.556 724.71 180.316V180.856ZM717.042 173.728C715.53 173.728 714.294 174.184 713.334 175.096C712.398 176.008 711.798 177.292 711.534 178.948H722.082C721.938 177.244 721.434 175.948 720.57 175.06C719.73 174.172 718.554 173.728 717.042 173.728ZM715.962 169.552L719.562 162.208H722.946L718.014 169.552H715.962ZM737.56 171.46C738.16 171.46 738.712 171.532 739.216 171.676L739.144 174.34C738.592 174.148 737.956 174.052 737.236 174.052C735.484 174.052 734.176 174.604 733.312 175.708C732.472 176.788 732.052 178.108 732.052 179.668V190H729.136V176.968C729.136 175.096 729.04 173.404 728.848 171.892H731.62L731.908 175.24C732.364 174.016 733.096 173.08 734.104 172.432C735.112 171.784 736.264 171.46 737.56 171.46ZM756.984 180.856H743.7C743.724 183.16 744.252 184.9 745.284 186.076C746.34 187.252 747.864 187.84 749.856 187.84C751.968 187.84 753.912 187.132 755.688 185.716L756.66 187.84C755.868 188.584 754.848 189.172 753.6 189.604C752.376 190.036 751.116 190.252 749.82 190.252C746.988 190.252 744.768 189.424 743.16 187.768C741.552 186.088 740.748 183.796 740.748 180.892C740.748 179.044 741.108 177.412 741.828 175.996C742.548 174.556 743.556 173.44 744.852 172.648C746.148 171.856 747.624 171.46 749.28 171.46C751.68 171.46 753.564 172.252 754.932 173.836C756.3 175.396 756.984 177.556 756.984 180.316V180.856ZM749.316 173.728C747.804 173.728 746.568 174.184 745.608 175.096C744.672 176.008 744.072 177.292 743.808 178.948H754.356C754.212 177.244 753.708 175.948 752.844 175.06C752.004 174.172 750.828 173.728 749.316 173.728ZM770.446 171.46C774.79 171.46 776.962 173.848 776.962 178.624V190H774.046V178.768C774.046 177.088 773.71 175.864 773.038 175.096C772.366 174.304 771.31 173.908 769.87 173.908C768.19 173.908 766.846 174.424 765.838 175.456C764.83 176.488 764.326 177.88 764.326 179.632V190H761.41V176.968C761.41 175.096 761.314 173.404 761.122 171.892H763.894L764.182 175.132C764.734 173.956 765.562 173.056 766.666 172.432C767.77 171.784 769.03 171.46 770.446 171.46ZM790.064 190.252C788.312 190.252 786.776 189.868 785.456 189.1C784.16 188.332 783.152 187.252 782.432 185.86C781.736 184.444 781.388 182.8 781.388 180.928C781.388 179.056 781.748 177.412 782.468 175.996C783.188 174.556 784.208 173.44 785.528 172.648C786.872 171.856 788.432 171.46 790.208 171.46C791.432 171.46 792.608 171.676 793.736 172.108C794.888 172.516 795.836 173.092 796.58 173.836L795.608 175.996C794.696 175.276 793.808 174.748 792.944 174.412C792.104 174.076 791.24 173.908 790.352 173.908C788.504 173.908 787.052 174.532 785.996 175.78C784.94 177.004 784.412 178.72 784.412 180.928C784.412 183.112 784.928 184.816 785.96 186.04C787.016 187.24 788.48 187.84 790.352 187.84C791.24 187.84 792.104 187.672 792.944 187.336C793.808 187 794.696 186.472 795.608 185.752L796.58 187.912C795.812 188.632 794.84 189.208 793.664 189.64C792.512 190.048 791.312 190.252 790.064 190.252ZM815.448 180.856H802.164C802.188 183.16 802.716 184.9 803.748 186.076C804.804 187.252 806.328 187.84 808.32 187.84C810.432 187.84 812.376 187.132 814.152 185.716L815.124 187.84C814.332 188.584 813.312 189.172 812.064 189.604C810.84 190.036 809.58 190.252 808.284 190.252C805.452 190.252 803.232 189.424 801.624 187.768C800.016 186.088 799.212 183.796 799.212 180.892C799.212 179.044 799.572 177.412 800.292 175.996C801.012 174.556 802.02 173.44 803.316 172.648C804.612 171.856 806.088 171.46 807.744 171.46C810.144 171.46 812.028 172.252 813.396 173.836C814.764 175.396 815.448 177.556 815.448 180.316V180.856ZM807.78 173.728C806.268 173.728 805.032 174.184 804.072 175.096C803.136 176.008 802.536 177.292 802.272 178.948H812.82C812.676 177.244 812.172 175.948 811.308 175.06C810.468 174.172 809.292 173.728 807.78 173.728ZM825.994 190.252C822.946 190.252 820.534 189.472 818.758 187.912L819.73 185.752C820.714 186.52 821.71 187.072 822.718 187.408C823.726 187.744 824.854 187.912 826.102 187.912C827.47 187.912 828.502 187.684 829.198 187.228C829.918 186.748 830.278 186.064 830.278 185.176C830.278 184.456 830.038 183.88 829.558 183.448C829.078 183.016 828.286 182.68 827.182 182.44L824.122 181.72C822.61 181.384 821.434 180.784 820.594 179.92C819.778 179.056 819.37 178.024 819.37 176.824C819.37 175.24 820.006 173.956 821.278 172.972C822.55 171.964 824.23 171.46 826.318 171.46C827.59 171.46 828.79 171.664 829.918 172.072C831.046 172.48 831.994 173.068 832.762 173.836L831.79 175.96C830.086 174.544 828.262 173.836 826.318 173.836C825.022 173.836 824.014 174.088 823.294 174.592C822.598 175.072 822.25 175.756 822.25 176.644C822.25 177.388 822.466 177.976 822.898 178.408C823.354 178.84 824.074 179.176 825.058 179.416L828.118 180.172C829.798 180.556 831.046 181.156 831.862 181.972C832.678 182.764 833.086 183.808 833.086 185.104C833.086 186.664 832.45 187.912 831.178 188.848C829.906 189.784 828.178 190.252 825.994 190.252Z" fill="#45396D"/>
        <circle cx="890.5" cy="218.5" r="7.5" stroke="#45396D" stroke-width="2"/>
        <circle cx="867" cy="192" r="12" stroke="#45396D" stroke-width="2"/>
        <circle cx="908.5" cy="237.5" r="4.5" stroke="#45396D" stroke-width="2"/>
        <circle cx="-35.5" cy="654.5" r="380.5" fill="#FFCDB6"/>
        <path d="M118.34 502.504C114.495 502.504 111.135 501.683 108.26 500.04C105.423 498.36 103.22 495.989 101.652 492.928C100.121 489.829 99.356 486.189 99.356 482.008C99.356 477.864 100.121 474.261 101.652 471.2C103.183 468.101 105.367 465.731 108.204 464.088C111.079 462.445 114.457 461.624 118.34 461.624C122.223 461.624 125.583 462.445 128.42 464.088C131.295 465.731 133.479 468.101 134.972 471.2C136.503 474.261 137.268 477.864 137.268 482.008C137.268 486.189 136.503 489.829 134.972 492.928C133.441 495.989 131.257 498.36 128.42 500.04C125.583 501.683 122.223 502.504 118.34 502.504ZM118.34 496.736C122.036 496.736 124.911 495.467 126.964 492.928C129.017 490.389 130.044 486.749 130.044 482.008C130.044 477.304 129.017 473.701 126.964 471.2C124.911 468.661 122.036 467.392 118.34 467.392C114.644 467.392 111.769 468.643 109.716 471.144C107.663 473.645 106.636 477.267 106.636 482.008C106.636 486.749 107.663 490.389 109.716 492.928C111.769 495.467 114.644 496.736 118.34 496.736ZM161.131 502.504C155.643 502.504 151.481 501.104 148.643 498.304C145.843 495.467 144.443 491.323 144.443 485.872V462.128H151.555V486.264C151.555 489.699 152.358 492.312 153.963 494.104C155.569 495.859 157.958 496.736 161.131 496.736C164.23 496.736 166.582 495.84 168.187 494.048C169.83 492.256 170.651 489.661 170.651 486.264V462.128H177.763V485.872C177.763 491.285 176.345 495.411 173.507 498.248C170.67 501.085 166.545 502.504 161.131 502.504ZM186.121 462.128H193.345V502H186.121V462.128Z" fill="white"/>
        <circle cx="1475.5" cy="654.5" r="380.5" fill="#FDECE0"/>
        <path d="M1268.13 462.128V502H1262.75L1241.25 474.056V502H1234.53V462.128H1239.9L1261.35 490.016V462.128H1268.13ZM1294.5 502.504C1290.65 502.504 1287.29 501.683 1284.42 500.04C1281.58 498.36 1279.38 495.989 1277.81 492.928C1276.28 489.829 1275.51 486.189 1275.51 482.008C1275.51 477.864 1276.28 474.261 1277.81 471.2C1279.34 468.101 1281.52 465.731 1284.36 464.088C1287.23 462.445 1290.61 461.624 1294.5 461.624C1298.38 461.624 1301.74 462.445 1304.58 464.088C1307.45 465.731 1309.63 468.101 1311.13 471.2C1312.66 474.261 1313.42 477.864 1313.42 482.008C1313.42 486.189 1312.66 489.829 1311.13 492.928C1309.6 495.989 1307.41 498.36 1304.58 500.04C1301.74 501.683 1298.38 502.504 1294.5 502.504ZM1294.5 496.736C1298.19 496.736 1301.07 495.467 1303.12 492.928C1305.17 490.389 1306.2 486.749 1306.2 482.008C1306.2 477.304 1305.17 473.701 1303.12 471.2C1301.07 468.661 1298.19 467.392 1294.5 467.392C1290.8 467.392 1287.93 468.643 1285.87 471.144C1283.82 473.645 1282.79 477.267 1282.79 482.008C1282.79 486.749 1283.82 490.389 1285.87 492.928C1287.93 495.467 1290.8 496.736 1294.5 496.736ZM1354.42 462.128V502H1349.05L1327.54 474.056V502H1320.82V462.128H1326.2L1347.65 490.016V462.128H1354.42Z" fill="white"/>
        <path d="M590.5 716.5C388.449 687.979 111.5 686.333 0 677V800H1440V693.5C1120.5 716.5 865 755.247 590.5 716.5Z" fill="#025949"/>
        <path d="M-165.007 -119L-161.926 -101.956L-178.227 -107.81L-165.007 -119ZM-11.0068 78L-11.9111 79.1968L-11.0068 78ZM326.993 135L325.797 135.905L326.993 135ZM799.493 390L786.185 378.914L802.44 372.932L799.493 390ZM-168.084 -106.077C-169.965 -93.6632 -165.379 -79.1823 -156.123 -63.5026C-146.886 -47.8567 -133.123 -31.2241 -116.995 -14.5865C-84.7415 18.6841 -43.2194 51.7816 -10.1026 76.8032L-11.9111 79.1968C-45.0533 54.156 -86.7279 20.9451 -119.148 -12.4984C-135.357 -29.2178 -149.3 -46.0436 -158.706 -61.9775C-168.092 -77.8776 -173.085 -93.0979 -171.05 -106.527L-168.084 -106.077ZM-10.1026 76.8032C12.0197 93.5178 38.4687 98.2366 67.2831 97.6183C96.1472 96.999 127.114 91.0424 158.307 86.5798C220.484 77.6844 283.33 74.7729 328.19 134.095L325.797 135.905C282.059 78.0663 220.904 80.6548 158.731 89.5496C127.749 93.9821 96.4526 99.9931 67.3475 100.618C38.1929 101.243 10.9666 96.4822 -11.9111 79.1968L-10.1026 76.8032ZM328.19 134.095C408.832 240.735 512.263 272.228 602.331 291.524C647.293 301.157 689.137 307.783 722.908 319.244C756.739 330.724 782.866 347.175 796.198 376.715L793.464 377.949C780.629 349.511 755.435 333.45 721.944 322.085C688.393 310.699 646.914 304.144 601.702 294.458C511.421 275.116 407.101 243.421 325.797 135.905L328.19 134.095Z" fill="#00FFF0"/>
        <path d="M260.124 153C260.124 153 267.948 186.347 236.653 184.957C205.355 183.567 260.124 165.043 260.124 153Z" fill="#025949"/>
        <path d="M216.124 124.999C216.124 124.999 223.948 91.6522 192.653 93.0423C161.355 94.4323 216.124 112.956 216.124 124.999Z" fill="#03A678"/>
        <path d="M93.9256 86.7117C93.9256 86.7117 97.5669 60.2236 82.2438 52.7427C82.2438 52.7427 75.6767 65.5547 93.9256 86.7117Z" fill="#025949"/>
        <path d="M116.591 151.431C116.591 151.431 144.395 157.398 153.547 141.741C153.547 141.741 140.481 133.758 116.591 151.431Z" fill="#03A678"/>
        <rect x="568" y="677" width="306" height="72" rx="17" fill="#04D99D"/>
        <path d="M650.448 726.324C648.48 726.324 646.632 726.06 644.904 725.532C643.2 725.004 641.748 724.248 640.548 723.264L642.132 719.88C643.38 720.816 644.676 721.512 646.02 721.968C647.388 722.4 648.876 722.616 650.484 722.616C652.26 722.616 653.628 722.304 654.588 721.68C655.572 721.056 656.064 720.18 656.064 719.052C656.064 718.092 655.608 717.36 654.696 716.856C653.808 716.328 652.332 715.836 650.268 715.38C647.052 714.684 644.712 713.784 643.248 712.68C641.784 711.576 641.052 709.968 641.052 707.856C641.052 706.344 641.46 705 642.276 703.824C643.092 702.648 644.244 701.724 645.732 701.052C647.244 700.38 648.984 700.044 650.952 700.044C652.752 700.044 654.456 700.32 656.064 700.872C657.696 701.4 659.028 702.144 660.06 703.104L658.512 706.488C656.232 704.664 653.712 703.752 650.952 703.752C649.296 703.752 647.988 704.1 647.028 704.796C646.068 705.468 645.588 706.392 645.588 707.568C645.588 708.576 646.008 709.344 646.848 709.872C647.712 710.4 649.176 710.892 651.24 711.348C653.376 711.852 655.116 712.404 656.46 713.004C657.804 713.58 658.836 714.336 659.556 715.272C660.276 716.184 660.636 717.336 660.636 718.728C660.636 720.264 660.228 721.608 659.412 722.76C658.596 723.888 657.42 724.764 655.884 725.388C654.348 726.012 652.536 726.324 650.448 726.324ZM675.524 726.324C671.996 726.324 669.32 725.424 667.496 723.624C665.696 721.8 664.796 719.136 664.796 715.632V700.368H669.368V715.884C669.368 718.092 669.884 719.772 670.916 720.924C671.948 722.052 673.484 722.616 675.524 722.616C677.516 722.616 679.028 722.04 680.06 720.888C681.116 719.736 681.644 718.068 681.644 715.884V700.368H686.216V715.632C686.216 719.112 685.304 721.764 683.48 723.588C681.656 725.412 679.004 726.324 675.524 726.324ZM691.588 700.368H696.232V726H691.588V700.368ZM725.292 700.368L713.88 726H710.1L698.688 700.368H703.512L712.044 720.168L720.576 700.368H725.292ZM742.296 719.988H729.768L727.176 726H722.496L734.088 700.368H737.868L749.496 726H744.852L742.296 719.988ZM740.748 716.388L736.032 705.408L731.316 716.388H740.748ZM773.868 700.368V726H770.412L756.588 708.036V726H752.268V700.368H755.724L769.512 718.296V700.368H773.868ZM785.456 704.184H777.104V700.368H798.524V704.184H790.136V726H785.456V704.184Z" fill="white"/>
        <circle cx="237.5" cy="40.5" r="17.5" fill="#FFCDB6"/>
        <path d="M232 33L228 38L232 43" stroke="white" stroke-width="2" stroke-linecap="round" stroke-linejoin="round"/>
        <path d="M228.5 38H240.5C243.261 38 245.5 40.2386 245.5 43V43C245.5 45.7614 243.261 48 240.5 48H238" stroke="white" stroke-width="2" stroke-linecap="round"/>
    </g>
    <defs>
        <clipPath id="clip0">
            <rect width="1440" height="800" fill="white"/>
        </clipPath>
    </defs>
</svg>
