<svg width="1440" height="800" viewBox="0 0 1440 800" fill="none" xmlns="http://www.w3.org/2000/svg">
    <g clip-path="url(#clip0)">
        <rect width="1440" height="800" fill="white"/>
        <path d="M2132 -1086C2132 -1080.28 118 837 118 837H1022.25L2132 -1086Z" fill="url(#paint0_linear)" fill-opacity="0.5"/>
        <path d="M1904 -671C1904 -666.631 448 797 448 797H1101.72L1904 -671Z" fill="url(#paint1_linear)" fill-opacity="0.5"/>
        <path fill-rule="evenodd" clip-rule="evenodd" d="M1095 654.5C1095 684.969 1098.58 714.602 1105.35 743H1440V275.634C1246.5 293.537 1095 456.326 1095 654.5Z" fill="#FDECE0"/>
        <rect x="974" y="433" width="437" height="173" rx="17" fill="#FFCDB6" fill-opacity="0.5"/>
        <path d="M182.5 288.539C106.9 252.939 28 245.373 -2 246.039V797.039L523.5 760.039C523.5 760.039 430.5 566.539 403 491.039C375.5 415.539 277 333.039 182.5 288.539Z" fill="#FDECE0"/>
        <path d="M850.5 724.646C1052.55 698.908 1328.5 697.423 1440 689V800H0V703.658C319.5 724.414 576 759.614 850.5 724.646Z" fill="#025949"/>
        <rect x="543" y="337" width="73" height="73" rx="16" fill="white" stroke="#04D99D" stroke-width="2"/>
        <path d="M579.001 361.024C574.055 361.024 570.027 356.982 570.027 352.012C570.027 347.042 574.055 343 579.001 343C583.946 343 587.974 347.042 587.974 352.012C587.974 356.982 583.946 361.024 579.001 361.024Z" fill="#FFCDB6"/>
        <path d="M579.001 404C576.847 404 574.665 403.65 572.522 402.951C566.873 401.102 562.247 396.634 560.245 391.016C557.921 384.494 558.886 377.565 562.841 372.126C566.634 366.915 572.699 363.809 579.055 363.827C579.867 363.831 580.513 364.537 580.513 365.349V380.85C580.513 381.702 581.202 382.394 582.05 382.394H597.484C598.296 382.394 598.996 383.045 599 383.857C599.018 390.24 595.925 396.332 590.733 400.14C587.271 402.686 583.192 404 579.001 404Z" fill="#FFCDB6"/>
        <rect x="824" y="524" width="73" height="73" rx="16" fill="white" stroke="#04D99D" stroke-width="2"/>
        <path d="M871.272 559.71H850.513C849.683 559.71 849.013 559.047 849.013 558.227C849.013 557.407 849.683 556.745 850.513 556.745H871.272C872.102 556.745 872.772 557.407 872.772 558.227C872.772 559.047 872.098 559.71 871.272 559.71Z" fill="#3EE5B1"/>
        <path d="M871.272 573.544H850.513C849.683 573.544 849.013 572.882 849.013 572.062C849.013 571.242 849.683 570.579 850.513 570.579H871.272C872.102 570.579 872.772 571.242 872.772 572.062C872.772 572.882 872.098 573.544 871.272 573.544Z" fill="#3EE5B1"/>
        <path d="M850.513 590H833.5C833.101 590 832.721 589.842 832.438 589.567C832.156 589.287 832 588.911 832 588.517L832.047 539.454C832.326 534.118 836.699 530 842.007 530C847.31 530 851.687 534.118 851.966 539.376C851.966 539.401 851.966 539.429 851.966 539.454L852.009 588.517C852.009 588.908 851.85 589.287 851.571 589.567C851.292 589.846 850.912 590 850.513 590Z" fill="#FFCDB6"/>
        <path d="M888.286 590H871.272C870.874 590 870.493 589.842 870.211 589.567C869.928 589.291 869.772 588.911 869.772 588.517L869.82 539.454C870.099 534.118 874.471 530 879.779 530C885.083 530 889.459 534.118 889.738 539.376C889.738 539.401 889.738 539.429 889.738 539.454L889.782 588.517C889.782 588.908 889.622 589.287 889.343 589.567C889.064 589.846 888.684 590 888.286 590Z" fill="#FFCDB6"/>
        <rect x="684" y="337" width="73" height="73" rx="16" fill="white" stroke="#04D99D" stroke-width="2"/>
        <path d="M717.109 361.723C716.325 361.723 715.692 362.368 715.692 363.168V385.555C715.692 386.355 716.325 387 717.109 387H724.888C725.672 387 726.305 386.355 726.305 385.555V362.445C726.305 361.645 717.846 361.723 717.109 361.723Z" fill="#FFCDB6"/>
        <path d="M744.894 363.891H697.102C696.318 363.891 695.686 363.245 695.686 362.445C695.686 361.645 696.318 361 697.102 361H744.894C745.678 361 746.31 361.645 746.31 362.445C746.31 363.242 745.678 363.891 744.894 363.891Z" fill="#3EE5B1"/>
        <path d="M703.792 374.882H699.21H697.103H694.998H690.416C689.632 374.882 689 375.528 689 376.328C689 377.128 689.632 377.773 690.416 377.773H693.582V385.555C693.582 386.355 694.214 387 694.998 387H699.21C699.994 387 700.627 386.355 700.627 385.555V377.773H703.792C704.576 377.773 705.208 377.128 705.208 376.328C705.208 375.528 704.573 374.882 703.792 374.882Z" fill="#FFCDB6"/>
        <path d="M751.584 374.882H747.002H744.894H742.789H738.208C737.424 374.882 736.792 375.528 736.792 376.328C736.792 377.128 737.424 377.773 738.208 377.773H741.373V385.555C741.373 386.355 742.005 387 742.789 387H747.002C747.786 387 748.418 386.355 748.418 385.555V377.773H751.584C752.367 377.773 753 377.128 753 376.328C753 375.528 752.367 374.882 751.584 374.882Z" fill="#FFCDB6"/>
        <rect x="684" y="243" width="73" height="73" rx="16" fill="white" stroke="#04D99D" stroke-width="2"/>
        <path d="M708.821 298.154C708.174 298.154 707.652 297.638 707.652 296.998V283.238C707.652 282.598 708.174 282.082 708.821 282.082C709.468 282.082 709.99 282.598 709.99 283.238V296.998C709.99 297.635 709.468 298.154 708.821 298.154Z" fill="#3EE5B1"/>
        <path d="M701.623 302C700.976 302 700.454 301.484 700.454 300.844V284.502C700.454 283.862 700.976 283.346 701.623 283.346C702.27 283.346 702.792 283.862 702.792 284.502V300.844C702.792 301.484 702.267 302 701.623 302Z" fill="#3EE5B1"/>
        <path d="M739.38 302C738.733 302 738.211 301.484 738.211 300.844V284.502C738.211 283.862 738.733 283.346 739.38 283.346C740.027 283.346 740.549 283.862 740.549 284.502V300.844C740.546 301.484 740.024 302 739.38 302Z" fill="#3EE5B1"/>
        <path d="M732.182 298.154C731.535 298.154 731.013 297.638 731.013 296.998V283.238C731.013 282.598 731.535 282.082 732.182 282.082C732.828 282.082 733.35 282.598 733.35 283.238V296.998C733.348 297.635 732.826 298.154 732.182 298.154Z" fill="#3EE5B1"/>
        <path d="M747.695 279.202H693.308C692.036 279.202 691.003 278.177 691.003 276.921C691.003 275.662 692.039 274.638 693.308 274.638H747.695C748.967 274.638 750 275.662 750 276.921C750 278.177 748.967 279.202 747.695 279.202Z" fill="#FFCDB6"/>
        <path d="M747.696 272.561H693.309C692.037 272.561 691.004 271.537 691.004 270.281C691.004 269.025 692.04 268 693.309 268H747.696C748.968 268 750.001 269.025 750.001 270.281C750.001 271.537 748.968 272.561 747.696 272.561Z" fill="#FFCDB6"/>
        <path d="M748.834 285.393H692.169C691.522 285.393 691 284.876 691 284.236C691 282.496 692.43 281.081 694.189 281.081H746.809C748.567 281.081 749.997 282.496 749.997 284.236C750 284.876 749.478 285.393 748.834 285.393Z" fill="#FFCDB6"/>
        <rect x="544" y="431" width="73" height="73" rx="16" fill="white" stroke="#04D99D" stroke-width="2"/>
        <path d="M600.008 454.219C597.533 445.85 589.573 440.003 580.649 440H561.985C560.89 440 560 440.9 560 442.006V492.994C560 494.1 560.89 495 561.985 495H571.991C573.086 495 573.976 494.1 573.976 492.994V481.543C575.155 481.49 576.358 481.5 577.524 481.513C579.717 481.54 581.991 481.556 584.226 481.146C589.882 480.105 595.057 476.517 598.072 471.553C601.133 466.507 601.821 460.351 600.008 454.219ZM581.559 467.669C580.691 467.702 579.811 467.712 578.94 467.712C578.375 467.712 577.046 467.712 575.896 467.712C574.801 467.712 573.914 466.812 573.914 465.706V455.729C573.914 454.619 574.798 453.72 575.896 453.723C577.904 453.726 580.75 453.739 581.864 453.848C585.126 454.169 587.907 457.469 587.813 460.906C587.715 464.445 584.853 467.541 581.559 467.669Z" fill="#FFCDB6"/>
        <rect x="545" y="524" width="73" height="73" rx="16" fill="white" stroke="#04D99D" stroke-width="2"/>
        <path d="M601.814 585.4L596.592 567.84H566.408L561.186 585.4C560.356 588.189 562.406 591 565.267 591H581.502H597.736C600.594 590.996 602.644 588.186 601.814 585.4ZM569.577 576.327H581.652H593.648L594.417 578.708H581.652H568.808L569.577 576.327ZM581.652 584.526H567.442L568.211 582.145H581.652H595.093L595.862 584.526H581.652Z" fill="#3EE5B1"/>
        <path d="M589.578 530H573.726C567.138 530 561.798 535.436 561.798 542.142V558.279C561.798 564.986 567.138 570.422 573.726 570.422H589.578C596.166 570.422 601.506 564.986 601.506 558.279V542.142C601.506 535.436 596.166 530 589.578 530ZM576.562 533.765H586.438C587.271 533.765 587.947 534.453 587.947 535.301C587.947 536.15 587.271 536.838 586.438 536.838H576.562C575.729 536.838 575.053 536.15 575.053 535.301C575.053 534.453 575.726 533.765 576.562 533.765ZM570.6 563.704C568.855 563.704 567.442 562.266 567.442 560.489C567.442 558.712 568.855 557.274 570.6 557.274C572.346 557.274 573.758 558.712 573.758 560.489C573.758 562.266 572.346 563.704 570.6 563.704ZM592.704 563.704C590.959 563.704 589.546 562.266 589.546 560.489C589.546 558.712 590.959 557.274 592.704 557.274C594.45 557.274 595.862 558.712 595.862 560.489C595.862 562.266 594.45 563.704 592.704 563.704ZM595.862 550.873C595.862 553.324 593.91 555.312 591.502 555.312H571.805C569.398 555.312 567.445 553.324 567.445 550.873V542.521C567.445 540.071 569.398 538.083 571.805 538.083H591.502C593.91 538.083 595.862 540.071 595.862 542.521V550.873Z" fill="#FFCDB6"/>
        <rect x="685" y="524" width="73" height="73" rx="16" fill="white" stroke="#04D99D" stroke-width="2"/>
        <path d="M723.711 537.719H719.289C717.347 537.719 715.771 536.109 715.771 534.136V533.583C715.771 531.609 717.351 530 719.289 530H723.711C725.649 530 727.229 531.606 727.229 533.583V534.136C727.229 536.109 725.649 537.719 723.711 537.719ZM719.285 533.146C719.053 533.146 718.852 533.346 718.852 533.583V534.136C718.852 534.376 719.049 534.577 719.285 534.577H723.708C723.94 534.577 724.137 534.376 724.137 534.136V533.583C724.137 533.346 723.94 533.146 723.708 533.146H719.285Z" fill="#3EE5B1"/>
        <path d="M730.078 547.8H712.917C709.235 547.8 706.235 544.749 706.235 540.999C706.235 537.245 709.231 534.194 712.917 534.194H730.078C733.765 534.194 736.761 537.245 736.761 540.999C736.761 544.746 733.761 547.8 730.078 547.8Z" fill="#FFCDB6"/>
        <path d="M735.57 553.003C734.169 551.052 731.998 549.934 729.624 549.934H713.371C710.994 549.938 708.827 551.059 707.425 553.011C706.024 554.962 705.634 557.405 706.353 559.71L714.479 585.768C715.47 588.947 718.226 591 721.501 591C724.776 591 727.533 588.947 728.523 585.768L736.65 559.71C737.365 557.402 736.975 554.955 735.57 553.003ZM716.832 581.126C716.735 581.151 716.642 581.162 716.55 581.162C716.031 581.162 715.559 580.805 715.427 580.27L710.321 559.572C710.168 558.938 710.543 558.297 711.162 558.141C711.784 557.977 712.409 558.366 712.567 558.993L717.672 579.691C717.826 580.328 717.451 580.969 716.832 581.126ZM722.656 579.986C722.656 580.638 722.138 581.166 721.498 581.166C720.858 581.166 720.339 580.638 720.339 579.986V559.288C720.339 558.636 720.858 558.108 721.498 558.108C722.138 558.108 722.656 558.636 722.656 559.288V579.986ZM733.064 559.575L727.958 580.274C727.826 580.809 727.354 581.166 726.836 581.166C726.743 581.166 726.646 581.155 726.553 581.129C725.935 580.973 725.556 580.332 725.713 579.699L730.819 559C730.976 558.37 731.605 557.988 732.224 558.148C732.842 558.301 733.221 558.942 733.064 559.575Z" fill="#FFCDB6"/>
        <rect x="685" y="430" width="73" height="73" rx="16" fill="white" stroke="#04D99D" stroke-width="2"/>
        <path d="M707.256 463.385C703.671 461.372 701.843 458.263 702.011 454.099C702.089 452.162 702.509 450.24 702.787 448.314C703.272 444.998 703.775 441.69 704.252 438.375C704.338 437.769 704.591 437.312 705.107 437C705.414 437 705.72 437 706.027 437C706.494 437.287 706.818 437.66 706.868 438.248C706.971 439.51 707.096 440.769 707.196 442.031C707.438 445.02 707.673 448.009 707.905 451.002C707.944 451.484 708.183 451.785 708.657 451.792C709.11 451.796 709.323 451.517 709.359 451.045C709.462 449.609 709.591 448.172 709.712 446.736C709.933 444.077 710.164 441.418 710.364 438.759C710.417 438.041 710.578 437.417 711.205 437.007C711.551 437.007 711.896 437.007 712.238 437.007C712.741 437.366 712.998 437.86 713.047 438.48C713.247 441.019 713.45 443.558 713.653 446.097C713.785 447.726 713.917 449.355 714.049 450.98C714.085 451.437 714.263 451.789 714.765 451.792C715.3 451.796 715.481 451.411 715.521 450.943C715.645 449.453 715.763 447.958 715.881 446.467C716.084 443.888 716.29 441.309 716.49 438.73C716.543 438.045 716.718 437.432 717.299 437.004C717.645 437.004 717.99 437.004 718.332 437.004C718.881 437.348 719.099 437.863 719.191 438.505C719.89 443.322 720.613 448.136 721.326 452.953C721.967 457.302 720.057 461.245 716.258 463.342C715.841 463.57 715.674 463.817 715.71 464.292C715.902 466.777 716.073 469.265 716.248 471.753C716.38 473.64 716.504 475.526 716.636 477.408C716.85 480.459 717.078 483.51 717.288 486.56C717.392 488.076 717.534 489.593 717.548 491.113C717.577 494.363 714.929 496.985 711.704 496.985C708.472 496.985 705.859 494.366 705.884 491.091C705.902 488.889 706.152 486.698 706.305 484.504C706.433 482.657 706.554 480.811 706.686 478.965C706.904 475.856 707.128 472.747 707.345 469.639C707.474 467.832 707.588 466.022 707.723 464.216C707.755 463.806 707.613 463.588 707.256 463.385Z" fill="#FFCDB6"/>
        <path d="M739.152 437.004C739.772 437.348 740 437.881 740 438.6C739.989 456.022 739.996 473.444 739.989 490.866C739.989 493.971 737.673 496.651 734.772 496.963C731.704 497.293 728.992 495.36 728.254 492.353C727.979 491.239 728.136 490.144 728.243 489.041C728.489 486.462 728.749 483.887 729.006 481.308C729.298 478.362 729.59 475.417 729.882 472.472C729.893 472.356 729.918 472.24 729.915 472.123C729.89 470.807 730.274 469.704 731.336 468.848C731.996 468.318 731.939 468.257 731.429 467.564C730.004 465.631 729.123 463.44 728.525 461.118C727.741 458.075 727.438 454.966 727.659 451.839C728.054 446.246 730.656 441.904 735.167 438.723C736.133 438.045 737.177 437.515 738.236 437.007C738.539 437.004 738.845 437.004 739.152 437.004Z" fill="#FFCDB6"/>
        <rect x="542" y="243" width="73" height="73" rx="16" fill="white" stroke="#04D99D" stroke-width="2"/>
        <path d="M560.925 270.701C557.05 270.701 553.896 267.521 553.896 263.607C553.896 259.693 557.05 256.513 560.925 256.513C564.801 256.513 567.955 259.693 567.955 263.607C567.955 267.521 564.801 270.701 560.925 270.701Z" fill="#FFCDB6"/>
        <path d="M567.177 304H554.674C552.845 304 551.179 303.146 550.1 301.659C549.021 300.169 548.717 298.307 549.271 296.548L555.523 276.684C556.286 274.26 558.407 272.695 560.925 272.695C563.443 272.695 565.564 274.263 566.325 276.684L572.577 296.548C573.13 298.307 572.829 300.169 571.748 301.659C570.669 303.146 569.002 304 567.177 304Z" fill="#FFCDB6"/>
        <path d="M597.075 270.701C593.2 270.701 590.045 267.521 590.045 263.607C590.045 259.693 593.2 256.516 597.075 256.516C600.95 256.516 604.104 259.696 604.104 263.61C604.104 267.524 600.95 270.701 597.075 270.701Z" fill="#FFCDB6"/>
        <path d="M597.075 304C594.557 304 592.436 302.433 591.675 300.012L585.424 280.148C584.87 278.391 585.171 276.532 586.25 275.042C587.328 273.552 588.995 272.698 590.823 272.695H603.327C605.152 272.695 606.821 273.549 607.9 275.036C608.979 276.526 609.283 278.386 608.729 280.148L602.478 300.012C601.714 302.436 599.596 304 597.075 304Z" fill="#FFCDB6"/>
        <path d="M578.999 304C578.343 304 577.812 303.464 577.812 302.802V257.198C577.812 256.536 578.343 256 578.999 256C579.655 256 580.185 256.536 580.185 257.198V302.802C580.188 303.464 579.657 304 578.999 304Z" fill="#3EE5B1"/>
        <path d="M1011.87 380.674C1024.25 380.674 1034.3 378.497 1034.3 375.81C1034.3 373.124 1024.25 370.946 1011.87 370.946C999.48 370.946 989.438 373.124 989.438 375.81C989.438 378.497 999.48 380.674 1011.87 380.674Z" stroke="#3EE5B1" stroke-width="2" stroke-miterlimit="10"/>
        <path d="M1011.87 378.324C1013.18 378.249 1014.46 377.587 1015.27 376.356L1027.09 358.229H996.642L1008.47 376.356C1009.27 377.587 1010.55 378.249 1011.87 378.324Z" fill="#FDECE0"/>
        <path d="M1011.87 369.505C1012.23 369.501 1012.6 369.487 1012.98 369.468C1025.65 368.848 1036.85 340.414 1036.33 335.056C1035.82 329.698 1029.05 324.638 1029.05 324.638H994.67C994.67 324.638 987.905 329.698 987.392 335.056C986.878 340.414 998.071 368.848 1010.74 369.468C1011.13 369.487 1011.5 369.501 1011.87 369.505Z" fill="#FFCDB6"/>
        <path d="M1011.87 391.065C1021.86 391.065 1029.97 389.728 1029.97 388.08C1029.97 386.432 1021.86 385.095 1011.87 385.095C1001.87 385.095 993.764 386.432 993.764 388.08C993.764 389.728 1001.87 391.065 1011.87 391.065Z" stroke="#3EE5B1" stroke-width="2" stroke-miterlimit="10"/>
        <path d="M1011.87 400C1017.21 400 1021.54 398.989 1021.54 397.743C1021.54 396.496 1017.21 395.486 1011.87 395.486C1006.53 395.486 1002.2 396.496 1002.2 397.743C1002.2 398.989 1006.53 400 1011.87 400Z" stroke="#3EE5B1" stroke-width="2" stroke-miterlimit="10"/>
        <path d="M1019.78 265.486H1005.2V283.174H1019.78V265.486Z" fill="#45396D"/>
        <path d="M1011.87 336.236C1023.84 336.236 1033.55 322.959 1033.55 306.581C1033.55 290.202 1023.84 276.925 1011.87 276.925C999.892 276.925 990.185 290.202 990.185 306.581C990.185 322.959 999.892 336.236 1011.87 336.236Z" fill="#45396D"/>
        <path d="M1079.2 340.503C1078.77 344.294 1077.42 354.857 1075.14 360.994C1074.34 363.154 1071.33 363.252 1070.34 361.172C1066.18 352.427 1063.95 340.279 1065.37 334.79C1066.72 329.562 1075.18 335.737 1078.25 338.18C1078.94 338.74 1079.3 339.617 1079.2 340.503Z" fill="#45396D"/>
        <path d="M1058.65 283.174C1063.48 283.174 1067.4 277.011 1067.4 269.408C1067.4 261.805 1063.48 255.641 1058.65 255.641C1053.82 255.641 1049.91 261.805 1049.91 269.408C1049.91 277.011 1053.82 283.174 1058.65 283.174Z" fill="#45396D"/>
        <path d="M1014.32 270.648L1014.33 294.6V294.605C1014.45 294.605 1016.18 294.493 1036.5 292.525C1040.84 292.105 1044.34 290.44 1047.17 288.02C1047.17 288.015 1047.17 288.015 1047.17 288.015C1059.31 277.578 1058.84 252.992 1058.83 252.563C1046.79 263.611 1031.29 270.368 1014.32 270.648Z" fill="#FFCDB6"/>
        <path d="M1014.33 294.605C1014.33 294.721 1014.34 298.042 1015.33 305C1036.78 310.932 1038.23 319.904 1039.24 319.466C1040.26 319.032 1052.14 313.539 1049.53 307.173C1046.96 300.886 1047.16 288.342 1047.17 288.02C1044.34 290.44 1040.84 292.105 1036.5 292.525C1016.18 294.493 1014.45 294.605 1014.33 294.605Z" fill="#FDECE0"/>
        <path d="M1063.76 258.243C1063.76 258.243 1067.12 248.664 1071.89 258.243C1076.65 267.822 1087.71 313.086 1078.48 342.098C1075.95 346.482 1070.61 347.853 1067.4 340.946C1064.18 334.039 1057.28 299.539 1058.65 283.17C1060.03 266.801 1063.76 258.243 1063.76 258.243Z" fill="#FDECE0"/>
        <path d="M1011.87 118.137C1012.24 118.133 1012.61 118.128 1012.98 118.128C1051.93 118.128 1083.5 152.274 1083.5 194.395C1083.5 217.708 1073.83 238.573 1058.59 252.558C1058.59 252.558 1058.59 252.558 1058.59 252.563C1046.55 263.611 1031.04 270.368 1014.08 270.648C1013.72 270.653 1013.35 270.658 1012.98 270.658C1012.61 270.658 1012.24 270.653 1011.87 270.648C1011.5 270.653 1011.12 270.658 1010.75 270.658C1010.39 270.658 1010.02 270.653 1009.65 270.648C992.689 270.368 977.184 263.611 965.145 252.563C965.145 252.558 965.145 252.558 965.145 252.558C949.906 238.573 940.235 217.708 940.235 194.395C940.235 152.274 971.807 118.128 1010.75 118.128C1011.12 118.128 1011.5 118.133 1011.87 118.137Z" fill="#FDECE0"/>
        <path d="M1011.45 189.065C985.355 189.373 967.696 186.173 960.665 186.351C950.705 186.598 952.695 209.967 966.145 234.077C976.969 253.486 992.633 260.654 1011.45 259.731H1011.87C1030.68 260.654 1046.34 253.486 1057.17 234.077C1070.61 209.967 1072.61 186.598 1062.65 186.351C1055.62 186.173 1037.96 189.377 1011.87 189.065H1011.45Z" fill="#FFCDB6"/>
        <path d="M914.494 145.876L904.497 126.201C904.497 126.201 902.035 121.425 906.09 119.98L941.548 179.696L940.436 188.412L936.666 188.356L914.494 145.876Z" fill="#45396D"/>
        <path d="M914.494 145.876C914.784 146.454 934.615 205.378 934.615 205.378L938.46 187.344L914.494 145.876Z" fill="#FFCDB6"/>
        <path d="M943.44 223.528C943.44 223.528 934.709 216.426 934.615 203.969C934.522 191.513 938.456 187.339 938.456 187.339L943.44 223.528Z" fill="#FFCDB6"/>
        <path d="M949.252 231.647C949.252 231.647 945.108 233.046 942.772 220.492C940.436 207.938 937.988 186.878 938.418 184.145C938.848 181.412 938.189 179.015 941.282 177.966C944.375 176.912 949.252 231.647 949.252 231.647Z" fill="#45396D"/>
        <path d="M1109.26 145.918L1119.26 126.243C1119.26 126.243 1121.72 121.467 1117.67 120.022L1082.2 179.738L1083.32 188.454L1087.09 188.398L1109.26 145.918Z" fill="#45396D"/>
        <path d="M1109.26 145.918C1108.97 146.496 1089.14 205.42 1089.14 205.42L1085.29 187.386L1109.26 145.918Z" fill="#FFCDB6"/>
        <path d="M1080.31 223.575C1080.31 223.575 1089.04 216.472 1089.14 204.016C1089.23 191.56 1085.3 187.386 1085.3 187.386L1080.31 223.575Z" fill="#FFCDB6"/>
        <path d="M1074.5 231.689C1074.5 231.689 1078.64 233.088 1080.98 220.534C1083.32 207.98 1085.76 186.92 1085.33 184.187C1084.9 181.454 1085.56 179.057 1082.47 178.008C1079.38 176.954 1074.5 231.689 1074.5 231.689Z" fill="#45396D"/>
        <path d="M1009.64 294.605C1009.64 294.6 1009.64 294.6 1009.64 294.6C1009.64 294.6 1009.66 294.605 1009.64 294.605Z" fill="#03A678"/>
        <path d="M885.419 288.488C881.655 289.099 871.179 290.933 865.176 293.231C863.064 294.039 863.136 296.543 865.27 297.22C874.241 300.082 886.504 301.111 891.907 299.565C897.054 298.094 890.408 291.501 887.793 289.122C887.194 288.583 886.298 288.343 885.419 288.488Z" fill="#45396D"/>
        <path d="M966.552 277.939C966.552 277.939 974.588 271.726 963.979 270.238C953.37 268.75 906.869 272.58 882.231 290.499C878.87 294.29 879.258 299.78 886.837 300.643C894.416 301.506 929.377 297.142 944.492 290.665C959.606 284.187 966.552 277.939 966.552 277.939Z" fill="#FDECE0"/>
        <path d="M954.237 284.123C957.953 287.204 964.909 284.96 969.774 279.111C974.638 273.262 975.57 266.023 971.854 262.942C968.139 259.86 961.183 262.104 956.318 267.953C951.453 273.802 950.522 281.042 954.237 284.123Z" fill="#45396D"/>
        <path d="M1009.65 270.648L1009.64 294.6V294.605C1009.53 294.605 1007.79 294.493 987.471 292.525C983.131 292.105 979.631 290.44 976.81 288.02C976.81 288.015 976.81 288.015 976.81 288.015C964.663 277.578 965.135 252.992 965.145 252.563C977.184 263.611 992.689 270.368 1009.65 270.648Z" fill="#FFCDB6"/>
        <path d="M1009.64 294.605C1009.64 294.721 1009.63 298.042 1008.64 305C987.195 310.932 985.747 319.904 984.733 319.466C983.72 319.032 971.835 313.539 974.442 307.173C977.016 300.886 976.815 288.342 976.81 288.02C979.632 290.44 983.131 292.105 987.471 292.525C1007.79 294.493 1009.53 294.605 1009.64 294.605Z" fill="#FDECE0"/>
        <path d="M1029.11 281.817C1029.1 282.829 1028.47 283.841 1027.09 283.841C1025.71 283.841 1025.07 282.853 1025.07 281.822C1025.07 280.791 1025.74 279.756 1027.09 279.756C1028.45 279.761 1029.12 280.796 1029.11 281.817ZM1025.81 281.836C1025.83 282.48 1026.17 283.165 1027.1 283.165C1028.02 283.165 1028.37 282.47 1028.38 281.827C1028.39 281.164 1028.02 280.428 1027.1 280.428C1026.17 280.432 1025.79 281.174 1025.81 281.836Z" fill="#FDECE0"/>
        <path d="M1031.44 281.454L1032.48 279.836H1033.37V279.868L1031.81 282.135V283.753H1031.07V282.135L1029.56 279.868V279.836H1030.44L1031.44 281.454Z" fill="#FDECE0"/>
        <path d="M1036.9 283.016H1034.85L1034.51 283.753H1033.71L1035.47 279.836H1036.28L1038.04 283.753H1037.23L1036.9 283.016ZM1035.87 280.661L1035.15 282.326H1036.6L1035.87 280.661Z" fill="#FDECE0"/>
        <path d="M1008.99 219.462C1009.62 205.57 1001.27 193.907 990.328 193.41C979.389 192.914 970.009 203.773 969.377 217.665C968.744 231.557 977.099 243.22 988.038 243.717C998.977 244.213 1008.36 233.354 1008.99 219.462Z" fill="white"/>
        <path d="M1037.73 243.716C1048.67 243.22 1057.03 231.556 1056.39 217.664C1055.76 203.773 1046.38 192.913 1035.44 193.41C1024.5 193.906 1016.15 205.57 1016.78 219.461C1017.41 233.353 1026.79 244.212 1037.73 243.716Z" fill="white"/>
        <path d="M1024.08 82.3974C1023.94 81.9118 1023.33 81.8188 1022.99 82.2032C1017.41 88.4668 1009.33 89.6766 1007.08 97.3767C1005.63 102.346 1007.15 106.242 1008.12 108.059C1008.15 108.115 1008.18 108.164 1008.22 108.2C1006.49 115.468 1006.85 118.992 1007.27 120.517C1007.43 121.084 1008.06 121.375 1008.6 121.144C1009.06 120.946 1009.3 120.432 1009.15 119.951C1008.64 118.316 1007.21 114.525 1009.26 107.428C1010.9 102.629 1012.82 100.136 1014.35 98.8374C1015.88 97.6276 1017.06 97.4374 1017.06 97.4374C1013.38 101.735 1012.31 106.809 1012.01 109.402C1011.89 110.398 1012.6 111.288 1013.59 111.373C1020.7 111.972 1024.27 106.347 1025.74 99.4686C1027.01 93.5368 1024.95 85.3997 1024.08 82.3974Z" fill="#04D99D"/>
        <path d="M554.436 86.644V98.524C553.428 99.052 552.108 99.484 550.476 99.82C548.844 100.132 547.188 100.288 545.508 100.288C542.964 100.288 540.768 99.772 538.92 98.74C537.072 97.684 535.656 96.172 534.672 94.204C533.712 92.236 533.232 89.884 533.232 87.148C533.232 84.436 533.712 82.108 534.672 80.164C535.656 78.196 537.048 76.696 538.848 75.664C540.672 74.608 542.82 74.08 545.292 74.08C547.092 74.08 548.736 74.356 550.224 74.908C551.736 75.436 553.032 76.24 554.112 77.32L552.96 79.588C551.712 78.532 550.488 77.776 549.288 77.32C548.112 76.84 546.78 76.6 545.292 76.6C542.388 76.6 540.156 77.512 538.596 79.336C537.06 81.136 536.292 83.74 536.292 87.148C536.292 90.628 537.084 93.28 538.668 95.104C540.252 96.904 542.556 97.804 545.58 97.804C547.716 97.804 549.768 97.468 551.736 96.796V88.984H545.364V86.644H554.436ZM560.14 73.504H563.056V100H560.14V73.504ZM568.718 81.892H571.634V100H568.718V81.892ZM571.994 74.224V77.536H568.43V74.224H571.994ZM583.416 100.252C580.368 100.252 577.956 99.472 576.18 97.912L577.152 95.752C578.136 96.52 579.132 97.072 580.14 97.408C581.148 97.744 582.276 97.912 583.524 97.912C584.892 97.912 585.924 97.684 586.62 97.228C587.34 96.748 587.7 96.064 587.7 95.176C587.7 94.456 587.46 93.88 586.98 93.448C586.5 93.016 585.708 92.68 584.604 92.44L581.544 91.72C580.032 91.384 578.856 90.784 578.016 89.92C577.2 89.056 576.792 88.024 576.792 86.824C576.792 85.24 577.428 83.956 578.7 82.972C579.972 81.964 581.652 81.46 583.74 81.46C585.012 81.46 586.212 81.664 587.34 82.072C588.468 82.48 589.416 83.068 590.184 83.836L589.212 85.96C587.508 84.544 585.684 83.836 583.74 83.836C582.444 83.836 581.436 84.088 580.716 84.592C580.02 85.072 579.672 85.756 579.672 86.644C579.672 87.388 579.888 87.976 580.32 88.408C580.776 88.84 581.496 89.176 582.48 89.416L585.54 90.172C587.22 90.556 588.468 91.156 589.284 91.972C590.1 92.764 590.508 93.808 590.508 95.104C590.508 96.664 589.872 97.912 588.6 98.848C587.328 99.784 585.6 100.252 583.416 100.252ZM601.276 100.252C598.228 100.252 595.816 99.472 594.04 97.912L595.012 95.752C595.996 96.52 596.992 97.072 598 97.408C599.008 97.744 600.136 97.912 601.384 97.912C602.752 97.912 603.784 97.684 604.48 97.228C605.2 96.748 605.56 96.064 605.56 95.176C605.56 94.456 605.32 93.88 604.84 93.448C604.36 93.016 603.568 92.68 602.464 92.44L599.404 91.72C597.892 91.384 596.716 90.784 595.876 89.92C595.06 89.056 594.652 88.024 594.652 86.824C594.652 85.24 595.288 83.956 596.56 82.972C597.832 81.964 599.512 81.46 601.6 81.46C602.872 81.46 604.072 81.664 605.2 82.072C606.328 82.48 607.276 83.068 608.044 83.836L607.072 85.96C605.368 84.544 603.544 83.836 601.6 83.836C600.304 83.836 599.296 84.088 598.576 84.592C597.88 85.072 597.532 85.756 597.532 86.644C597.532 87.388 597.748 87.976 598.18 88.408C598.636 88.84 599.356 89.176 600.34 89.416L603.4 90.172C605.08 90.556 606.328 91.156 607.144 91.972C607.96 92.764 608.368 93.808 608.368 95.104C608.368 96.664 607.732 97.912 606.46 98.848C605.188 99.784 603.46 100.252 601.276 100.252ZM628.171 90.856H614.887C614.911 93.16 615.439 94.9 616.471 96.076C617.527 97.252 619.051 97.84 621.043 97.84C623.155 97.84 625.099 97.132 626.875 95.716L627.847 97.84C627.055 98.584 626.035 99.172 624.787 99.604C623.563 100.036 622.303 100.252 621.007 100.252C618.175 100.252 615.955 99.424 614.347 97.768C612.739 96.088 611.935 93.796 611.935 90.892C611.935 89.044 612.295 87.412 613.015 85.996C613.735 84.556 614.743 83.44 616.039 82.648C617.335 81.856 618.811 81.46 620.467 81.46C622.867 81.46 624.751 82.252 626.119 83.836C627.487 85.396 628.171 87.556 628.171 90.316V90.856ZM620.503 83.728C618.991 83.728 617.755 84.184 616.795 85.096C615.859 86.008 615.259 87.292 614.995 88.948H625.543C625.399 87.244 624.895 85.948 624.031 85.06C623.191 84.172 622.015 83.728 620.503 83.728ZM641.984 73.504H644.9V100H641.984V73.504ZM665.718 90.856H652.434C652.458 93.16 652.986 94.9 654.018 96.076C655.074 97.252 656.598 97.84 658.59 97.84C660.702 97.84 662.646 97.132 664.422 95.716L665.394 97.84C664.602 98.584 663.582 99.172 662.334 99.604C661.11 100.036 659.85 100.252 658.554 100.252C655.722 100.252 653.502 99.424 651.894 97.768C650.286 96.088 649.482 93.796 649.482 90.892C649.482 89.044 649.842 87.412 650.562 85.996C651.282 84.556 652.29 83.44 653.586 82.648C654.882 81.856 656.358 81.46 658.014 81.46C660.414 81.46 662.298 82.252 663.666 83.836C665.034 85.396 665.718 87.556 665.718 90.316V90.856ZM658.05 83.728C656.538 83.728 655.302 84.184 654.342 85.096C653.406 86.008 652.806 87.292 652.542 88.948H663.09C662.946 87.244 662.442 85.948 661.578 85.06C660.738 84.172 659.562 83.728 658.05 83.728ZM676.264 100.252C673.216 100.252 670.804 99.472 669.028 97.912L670 95.752C670.984 96.52 671.98 97.072 672.988 97.408C673.996 97.744 675.124 97.912 676.372 97.912C677.74 97.912 678.772 97.684 679.468 97.228C680.188 96.748 680.548 96.064 680.548 95.176C680.548 94.456 680.308 93.88 679.828 93.448C679.348 93.016 678.556 92.68 677.452 92.44L674.392 91.72C672.88 91.384 671.704 90.784 670.864 89.92C670.048 89.056 669.64 88.024 669.64 86.824C669.64 85.24 670.276 83.956 671.548 82.972C672.82 81.964 674.5 81.46 676.588 81.46C677.86 81.46 679.06 81.664 680.188 82.072C681.316 82.48 682.264 83.068 683.032 83.836L682.06 85.96C680.356 84.544 678.532 83.836 676.588 83.836C675.292 83.836 674.284 84.088 673.564 84.592C672.868 85.072 672.52 85.756 672.52 86.644C672.52 87.388 672.736 87.976 673.168 88.408C673.624 88.84 674.344 89.176 675.328 89.416L678.388 90.172C680.068 90.556 681.316 91.156 682.132 91.972C682.948 92.764 683.356 93.808 683.356 95.104C683.356 96.664 682.72 97.912 681.448 98.848C680.176 99.784 678.448 100.252 676.264 100.252ZM697.39 81.892H700.306V100H697.39V81.892ZM700.666 74.224V77.536H697.102V74.224H700.666ZM713.564 100.252C711.812 100.252 710.276 99.868 708.956 99.1C707.66 98.332 706.652 97.252 705.932 95.86C705.236 94.444 704.888 92.8 704.888 90.928C704.888 89.056 705.248 87.412 705.968 85.996C706.688 84.556 707.708 83.44 709.028 82.648C710.372 81.856 711.932 81.46 713.708 81.46C714.932 81.46 716.108 81.676 717.236 82.108C718.388 82.516 719.336 83.092 720.08 83.836L719.108 85.996C718.196 85.276 717.308 84.748 716.444 84.412C715.604 84.076 714.74 83.908 713.852 83.908C712.004 83.908 710.552 84.532 709.496 85.78C708.44 87.004 707.912 88.72 707.912 90.928C707.912 93.112 708.428 94.816 709.46 96.04C710.516 97.24 711.98 97.84 713.852 97.84C714.74 97.84 715.604 97.672 716.444 97.336C717.308 97 718.196 96.472 719.108 95.752L720.08 97.912C719.312 98.632 718.34 99.208 717.164 99.64C716.012 100.048 714.812 100.252 713.564 100.252ZM731.28 100.252C729.576 100.252 728.076 99.868 726.78 99.1C725.484 98.332 724.476 97.24 723.756 95.824C723.06 94.408 722.712 92.752 722.712 90.856C722.712 88.96 723.06 87.304 723.756 85.888C724.476 84.472 725.484 83.38 726.78 82.612C728.076 81.844 729.576 81.46 731.28 81.46C732.984 81.46 734.484 81.844 735.78 82.612C737.076 83.38 738.072 84.472 738.768 85.888C739.488 87.304 739.848 88.96 739.848 90.856C739.848 92.752 739.488 94.408 738.768 95.824C738.072 97.24 737.076 98.332 735.78 99.1C734.484 99.868 732.984 100.252 731.28 100.252ZM731.28 97.84C733.08 97.84 734.46 97.252 735.42 96.076C736.38 94.876 736.86 93.136 736.86 90.856C736.86 88.648 736.368 86.944 735.384 85.744C734.4 84.52 733.032 83.908 731.28 83.908C729.504 83.908 728.124 84.52 727.14 85.744C726.156 86.944 725.664 88.648 725.664 90.856C725.664 93.136 726.144 94.876 727.104 96.076C728.088 97.252 729.48 97.84 731.28 97.84ZM725.952 79.552L730.236 72.208H732.288L736.572 79.552H733.872L731.28 74.368L728.652 79.552H725.952ZM753.43 81.46C757.774 81.46 759.946 83.848 759.946 88.624V100H757.03V88.768C757.03 87.088 756.694 85.864 756.022 85.096C755.35 84.304 754.294 83.908 752.854 83.908C751.174 83.908 749.83 84.424 748.822 85.456C747.814 86.488 747.31 87.88 747.31 89.632V100H744.394V86.968C744.394 85.096 744.298 83.404 744.106 81.892H746.878L747.166 85.132C747.718 83.956 748.546 83.056 749.65 82.432C750.754 81.784 752.014 81.46 753.43 81.46ZM780.609 90.856H767.325C767.349 93.16 767.877 94.9 768.909 96.076C769.965 97.252 771.489 97.84 773.481 97.84C775.593 97.84 777.537 97.132 779.313 95.716L780.285 97.84C779.493 98.584 778.473 99.172 777.225 99.604C776.001 100.036 774.741 100.252 773.445 100.252C770.613 100.252 768.393 99.424 766.785 97.768C765.177 96.088 764.373 93.796 764.373 90.892C764.373 89.044 764.733 87.412 765.453 85.996C766.173 84.556 767.181 83.44 768.477 82.648C769.773 81.856 771.249 81.46 772.905 81.46C775.305 81.46 777.189 82.252 778.557 83.836C779.925 85.396 780.609 87.556 780.609 90.316V90.856ZM772.941 83.728C771.429 83.728 770.193 84.184 769.233 85.096C768.297 86.008 767.697 87.292 767.433 88.948H777.981C777.837 87.244 777.333 85.948 776.469 85.06C775.629 84.172 774.453 83.728 772.941 83.728ZM791.155 100.252C788.107 100.252 785.695 99.472 783.919 97.912L784.891 95.752C785.875 96.52 786.871 97.072 787.879 97.408C788.887 97.744 790.015 97.912 791.263 97.912C792.631 97.912 793.663 97.684 794.359 97.228C795.079 96.748 795.439 96.064 795.439 95.176C795.439 94.456 795.199 93.88 794.719 93.448C794.239 93.016 793.447 92.68 792.343 92.44L789.283 91.72C787.771 91.384 786.595 90.784 785.755 89.92C784.939 89.056 784.531 88.024 784.531 86.824C784.531 85.24 785.167 83.956 786.439 82.972C787.711 81.964 789.391 81.46 791.479 81.46C792.751 81.46 793.951 81.664 795.079 82.072C796.207 82.48 797.155 83.068 797.923 83.836L796.951 85.96C795.247 84.544 793.423 83.836 791.479 83.836C790.183 83.836 789.175 84.088 788.455 84.592C787.759 85.072 787.411 85.756 787.411 86.644C787.411 87.388 787.627 87.976 788.059 88.408C788.515 88.84 789.235 89.176 790.219 89.416L793.279 90.172C794.959 90.556 796.207 91.156 797.023 91.972C797.839 92.764 798.247 93.808 798.247 95.104C798.247 96.664 797.611 97.912 796.339 98.848C795.067 99.784 793.339 100.252 791.155 100.252ZM828.229 73.504V100H825.349V96.724C824.821 97.852 824.017 98.728 822.937 99.352C821.881 99.952 820.645 100.252 819.229 100.252C817.645 100.252 816.241 99.856 815.017 99.064C813.817 98.272 812.881 97.168 812.209 95.752C811.537 94.312 811.201 92.656 811.201 90.784C811.201 88.912 811.525 87.28 812.173 85.888C812.845 84.472 813.793 83.38 815.017 82.612C816.241 81.844 817.645 81.46 819.229 81.46C820.645 81.46 821.881 81.772 822.937 82.396C823.993 82.996 824.785 83.848 825.313 84.952V73.504H828.229ZM819.805 97.84C821.581 97.84 822.949 97.24 823.909 96.04C824.869 94.816 825.349 93.088 825.349 90.856C825.349 88.648 824.869 86.944 823.909 85.744C822.949 84.52 821.581 83.908 819.805 83.908C818.029 83.908 816.637 84.508 815.629 85.708C814.645 86.908 814.153 88.6 814.153 90.784C814.153 93.016 814.645 94.756 815.629 96.004C816.637 97.228 818.029 97.84 819.805 97.84ZM849.815 81.892V100H846.935V96.724C846.407 97.852 845.603 98.728 844.523 99.352C843.467 99.952 842.231 100.252 840.815 100.252C839.207 100.252 837.791 99.868 836.567 99.1C835.367 98.332 834.431 97.252 833.759 95.86C833.111 94.444 832.787 92.8 832.787 90.928C832.787 89.056 833.123 87.412 833.795 85.996C834.467 84.556 835.403 83.44 836.603 82.648C837.827 81.856 839.231 81.46 840.815 81.46C842.231 81.46 843.467 81.772 844.523 82.396C845.579 83.02 846.383 83.896 846.935 85.024V81.892H849.815ZM841.391 97.84C843.167 97.84 844.535 97.24 845.495 96.04C846.455 94.816 846.935 93.088 846.935 90.856C846.935 88.624 846.455 86.908 845.495 85.708C844.535 84.508 843.167 83.908 841.391 83.908C839.615 83.908 838.223 84.532 837.215 85.78C836.231 87.004 835.739 88.72 835.739 90.928C835.739 93.136 836.231 94.84 837.215 96.04C838.199 97.24 839.591 97.84 841.391 97.84ZM864.489 81.46C868.833 81.46 871.005 83.848 871.005 88.624V100H868.089V88.768C868.089 87.088 867.753 85.864 867.081 85.096C866.409 84.304 865.353 83.908 863.913 83.908C862.233 83.908 860.889 84.424 859.881 85.456C858.873 86.488 858.369 87.88 858.369 89.632V100H855.453V86.968C855.453 85.096 855.357 83.404 855.165 81.892H857.937L858.225 85.132C858.777 83.956 859.605 83.056 860.709 82.432C861.813 81.784 863.073 81.46 864.489 81.46ZM882.631 100.252C879.583 100.252 877.171 99.472 875.395 97.912L876.367 95.752C877.351 96.52 878.347 97.072 879.355 97.408C880.363 97.744 881.491 97.912 882.739 97.912C884.107 97.912 885.139 97.684 885.835 97.228C886.555 96.748 886.915 96.064 886.915 95.176C886.915 94.456 886.675 93.88 886.195 93.448C885.715 93.016 884.923 92.68 883.819 92.44L880.759 91.72C879.247 91.384 878.071 90.784 877.231 89.92C876.415 89.056 876.007 88.024 876.007 86.824C876.007 85.24 876.643 83.956 877.915 82.972C879.187 81.964 880.867 81.46 882.955 81.46C884.227 81.46 885.427 81.664 886.555 82.072C887.683 82.48 888.631 83.068 889.399 83.836L888.427 85.96C886.723 84.544 884.899 83.836 882.955 83.836C881.659 83.836 880.651 84.088 879.931 84.592C879.235 85.072 878.887 85.756 878.887 86.644C878.887 87.388 879.103 87.976 879.535 88.408C879.991 88.84 880.711 89.176 881.695 89.416L884.755 90.172C886.435 90.556 887.683 91.156 888.499 91.972C889.315 92.764 889.723 93.808 889.723 95.104C889.723 96.664 889.087 97.912 887.815 98.848C886.543 99.784 884.815 100.252 882.631 100.252ZM533.808 118.504H536.724V145H533.808V118.504ZM557.542 135.856H544.258C544.282 138.16 544.81 139.9 545.842 141.076C546.898 142.252 548.422 142.84 550.414 142.84C552.526 142.84 554.47 142.132 556.246 140.716L557.218 142.84C556.426 143.584 555.406 144.172 554.158 144.604C552.934 145.036 551.674 145.252 550.378 145.252C547.546 145.252 545.326 144.424 543.718 142.768C542.11 141.088 541.306 138.796 541.306 135.892C541.306 134.044 541.666 132.412 542.386 130.996C543.106 129.556 544.114 128.44 545.41 127.648C546.706 126.856 548.182 126.46 549.838 126.46C552.238 126.46 554.122 127.252 555.49 128.836C556.858 130.396 557.542 132.556 557.542 135.316V135.856ZM549.874 128.728C548.362 128.728 547.126 129.184 546.166 130.096C545.23 131.008 544.63 132.292 544.366 133.948H554.914C554.77 132.244 554.266 130.948 553.402 130.06C552.562 129.172 551.386 128.728 549.874 128.728ZM568.088 145.252C565.04 145.252 562.628 144.472 560.852 142.912L561.824 140.752C562.808 141.52 563.804 142.072 564.812 142.408C565.82 142.744 566.948 142.912 568.196 142.912C569.564 142.912 570.596 142.684 571.292 142.228C572.012 141.748 572.372 141.064 572.372 140.176C572.372 139.456 572.132 138.88 571.652 138.448C571.172 138.016 570.38 137.68 569.276 137.44L566.216 136.72C564.704 136.384 563.528 135.784 562.688 134.92C561.872 134.056 561.464 133.024 561.464 131.824C561.464 130.24 562.1 128.956 563.372 127.972C564.644 126.964 566.324 126.46 568.412 126.46C569.684 126.46 570.884 126.664 572.012 127.072C573.14 127.48 574.088 128.068 574.856 128.836L573.884 130.96C572.18 129.544 570.356 128.836 568.412 128.836C567.116 128.836 566.108 129.088 565.388 129.592C564.692 130.072 564.344 130.756 564.344 131.644C564.344 132.388 564.56 132.976 564.992 133.408C565.448 133.84 566.168 134.176 567.152 134.416L570.212 135.172C571.892 135.556 573.14 136.156 573.956 136.972C574.772 137.764 575.18 138.808 575.18 140.104C575.18 141.664 574.544 142.912 573.272 143.848C572 144.784 570.272 145.252 568.088 145.252ZM598.25 126.46C599.834 126.46 601.238 126.844 602.462 127.612C603.686 128.38 604.634 129.472 605.306 130.888C605.978 132.28 606.314 133.912 606.314 135.784C606.314 137.656 605.978 139.312 605.306 140.752C604.634 142.168 603.686 143.272 602.462 144.064C601.238 144.856 599.834 145.252 598.25 145.252C596.834 145.252 595.598 144.94 594.542 144.316C593.486 143.692 592.682 142.804 592.13 141.652V145H589.214V118.504H592.13V130.096C592.658 128.92 593.45 128.02 594.506 127.396C595.586 126.772 596.834 126.46 598.25 126.46ZM597.71 142.84C599.462 142.84 600.83 142.228 601.814 141.004C602.798 139.756 603.29 138.016 603.29 135.784C603.29 133.6 602.798 131.908 601.814 130.708C600.854 129.508 599.486 128.908 597.71 128.908C595.91 128.908 594.53 129.508 593.57 130.708C592.61 131.908 592.13 133.624 592.13 135.856C592.13 138.088 592.61 139.816 593.57 141.04C594.53 142.24 595.91 142.84 597.71 142.84ZM625.956 126.892V145H623.112V141.868C622.536 142.972 621.732 143.812 620.7 144.388C619.668 144.964 618.504 145.252 617.208 145.252C615.072 145.252 613.452 144.652 612.348 143.452C611.244 142.252 610.692 140.476 610.692 138.124V126.892H613.608V138.052C613.608 139.684 613.944 140.884 614.616 141.652C615.288 142.42 616.308 142.804 617.676 142.804C619.284 142.804 620.58 142.288 621.564 141.256C622.548 140.2 623.04 138.82 623.04 137.116V126.892H625.956ZM631.578 118.504H634.494V145H631.578V118.504ZM640.156 118.504H643.072V145H640.156V118.504ZM663.89 135.856H650.606C650.63 138.16 651.158 139.9 652.19 141.076C653.246 142.252 654.77 142.84 656.762 142.84C658.874 142.84 660.818 142.132 662.594 140.716L663.566 142.84C662.774 143.584 661.754 144.172 660.506 144.604C659.282 145.036 658.022 145.252 656.726 145.252C653.894 145.252 651.674 144.424 650.066 142.768C648.458 141.088 647.654 138.796 647.654 135.892C647.654 134.044 648.014 132.412 648.734 130.996C649.454 129.556 650.462 128.44 651.758 127.648C653.054 126.856 654.53 126.46 656.186 126.46C658.586 126.46 660.47 127.252 661.838 128.836C663.206 130.396 663.89 132.556 663.89 135.316V135.856ZM656.222 128.728C654.71 128.728 653.474 129.184 652.514 130.096C651.578 131.008 650.978 132.292 650.714 133.948H661.262C661.118 132.244 660.614 130.948 659.75 130.06C658.91 129.172 657.734 128.728 656.222 128.728ZM674.436 145.252C671.388 145.252 668.976 144.472 667.2 142.912L668.172 140.752C669.156 141.52 670.152 142.072 671.16 142.408C672.168 142.744 673.296 142.912 674.544 142.912C675.912 142.912 676.944 142.684 677.64 142.228C678.36 141.748 678.72 141.064 678.72 140.176C678.72 139.456 678.48 138.88 678 138.448C677.52 138.016 676.728 137.68 675.624 137.44L672.564 136.72C671.052 136.384 669.876 135.784 669.036 134.92C668.22 134.056 667.812 133.024 667.812 131.824C667.812 130.24 668.448 128.956 669.72 127.972C670.992 126.964 672.672 126.46 674.76 126.46C676.032 126.46 677.232 126.664 678.36 127.072C679.488 127.48 680.436 128.068 681.204 128.836L680.232 130.96C678.528 129.544 676.704 128.836 674.76 128.836C673.464 128.836 672.456 129.088 671.736 129.592C671.04 130.072 670.692 130.756 670.692 131.644C670.692 132.388 670.908 132.976 671.34 133.408C671.796 133.84 672.516 134.176 673.5 134.416L676.56 135.172C678.24 135.556 679.488 136.156 680.304 136.972C681.12 137.764 681.528 138.808 681.528 140.104C681.528 141.664 680.892 142.912 679.62 143.848C678.348 144.784 676.62 145.252 674.436 145.252ZM710.718 135.856H697.434C697.458 138.16 697.986 139.9 699.018 141.076C700.074 142.252 701.598 142.84 703.59 142.84C705.702 142.84 707.646 142.132 709.422 140.716L710.394 142.84C709.602 143.584 708.582 144.172 707.334 144.604C706.11 145.036 704.85 145.252 703.554 145.252C700.722 145.252 698.502 144.424 696.894 142.768C695.286 141.088 694.482 138.796 694.482 135.892C694.482 134.044 694.842 132.412 695.562 130.996C696.282 129.556 697.29 128.44 698.586 127.648C699.882 126.856 701.358 126.46 703.014 126.46C705.414 126.46 707.298 127.252 708.666 128.836C710.034 130.396 710.718 132.556 710.718 135.316V135.856ZM703.05 128.728C701.538 128.728 700.302 129.184 699.342 130.096C698.406 131.008 697.806 132.292 697.542 133.948H708.09C707.946 132.244 707.442 130.948 706.578 130.06C705.738 129.172 704.562 128.728 703.05 128.728ZM724.18 126.46C728.524 126.46 730.696 128.848 730.696 133.624V145H727.78V133.768C727.78 132.088 727.444 130.864 726.772 130.096C726.1 129.304 725.044 128.908 723.604 128.908C721.924 128.908 720.58 129.424 719.572 130.456C718.564 131.488 718.06 132.88 718.06 134.632V145H715.144V131.968C715.144 130.096 715.048 128.404 714.856 126.892H717.628L717.916 130.132C718.468 128.956 719.296 128.056 720.4 127.432C721.504 126.784 722.764 126.46 724.18 126.46ZM752.537 120.88C751.577 120.88 750.821 121.156 750.269 121.708C749.741 122.236 749.477 123.16 749.477 124.48V126.892H753.905V129.196H749.477V145H746.561V129.196H743.033V126.892H746.561V124.12C746.561 122.224 747.029 120.796 747.965 119.836C748.925 118.852 750.257 118.36 751.961 118.36C752.801 118.36 753.617 118.468 754.409 118.684V121.168C753.737 120.976 753.113 120.88 752.537 120.88ZM765.03 145.252C763.326 145.252 761.826 144.868 760.53 144.1C759.234 143.332 758.226 142.24 757.506 140.824C756.81 139.408 756.462 137.752 756.462 135.856C756.462 133.96 756.81 132.304 757.506 130.888C758.226 129.472 759.234 128.38 760.53 127.612C761.826 126.844 763.326 126.46 765.03 126.46C766.734 126.46 768.234 126.844 769.53 127.612C770.826 128.38 771.822 129.472 772.518 130.888C773.238 132.304 773.598 133.96 773.598 135.856C773.598 137.752 773.238 139.408 772.518 140.824C771.822 142.24 770.826 143.332 769.53 144.1C768.234 144.868 766.734 145.252 765.03 145.252ZM765.03 142.84C766.83 142.84 768.21 142.252 769.17 141.076C770.13 139.876 770.61 138.136 770.61 135.856C770.61 133.648 770.118 131.944 769.134 130.744C768.15 129.52 766.782 128.908 765.03 128.908C763.254 128.908 761.874 129.52 760.89 130.744C759.906 131.944 759.414 133.648 759.414 135.856C759.414 138.136 759.894 139.876 760.854 141.076C761.838 142.252 763.23 142.84 765.03 142.84ZM787.18 126.46C791.524 126.46 793.696 128.848 793.696 133.624V145H790.78V133.768C790.78 132.088 790.444 130.864 789.772 130.096C789.1 129.304 788.044 128.908 786.604 128.908C784.924 128.908 783.58 129.424 782.572 130.456C781.564 131.488 781.06 132.88 781.06 134.632V145H778.144V131.968C778.144 130.096 778.048 128.404 777.856 126.892H780.628L780.916 130.132C781.468 128.956 782.296 128.056 783.4 127.432C784.504 126.784 785.764 126.46 787.18 126.46ZM806.799 145.252C805.047 145.252 803.511 144.868 802.191 144.1C800.895 143.332 799.887 142.252 799.167 140.86C798.471 139.444 798.123 137.8 798.123 135.928C798.123 134.056 798.483 132.412 799.203 130.996C799.923 129.556 800.943 128.44 802.263 127.648C803.607 126.856 805.167 126.46 806.943 126.46C808.167 126.46 809.343 126.676 810.471 127.108C811.623 127.516 812.571 128.092 813.315 128.836L812.343 130.996C811.431 130.276 810.543 129.748 809.679 129.412C808.839 129.076 807.975 128.908 807.087 128.908C805.239 128.908 803.787 129.532 802.731 130.78C801.675 132.004 801.147 133.72 801.147 135.928C801.147 138.112 801.663 139.816 802.695 141.04C803.751 142.24 805.215 142.84 807.087 142.84C807.975 142.84 808.839 142.672 809.679 142.336C810.543 142 811.431 141.472 812.343 140.752L813.315 142.912C812.547 143.632 811.575 144.208 810.399 144.64C809.247 145.048 808.047 145.252 806.799 145.252ZM820.95 129.196V139.096C820.95 140.44 821.226 141.388 821.778 141.94C822.33 142.468 823.11 142.732 824.118 142.732C824.79 142.732 825.438 142.624 826.062 142.408V144.892C825.318 145.132 824.478 145.252 823.542 145.252C821.814 145.252 820.458 144.772 819.474 143.812C818.514 142.828 818.034 141.388 818.034 139.492V129.196H814.506V126.892H818.034V122.248L820.95 121.204V126.892H826.134V129.196H820.95ZM829.648 126.892H832.564V145H829.648V126.892ZM832.924 119.224V122.536H829.36V119.224H832.924ZM845.714 145.252C844.01 145.252 842.51 144.868 841.214 144.1C839.918 143.332 838.91 142.24 838.19 140.824C837.494 139.408 837.146 137.752 837.146 135.856C837.146 133.96 837.494 132.304 838.19 130.888C838.91 129.472 839.918 128.38 841.214 127.612C842.51 126.844 844.01 126.46 845.714 126.46C847.418 126.46 848.918 126.844 850.214 127.612C851.51 128.38 852.506 129.472 853.202 130.888C853.922 132.304 854.282 133.96 854.282 135.856C854.282 137.752 853.922 139.408 853.202 140.824C852.506 142.24 851.51 143.332 850.214 144.1C848.918 144.868 847.418 145.252 845.714 145.252ZM845.714 142.84C847.514 142.84 848.894 142.252 849.854 141.076C850.814 139.876 851.294 138.136 851.294 135.856C851.294 133.648 850.802 131.944 849.818 130.744C848.834 129.52 847.466 128.908 845.714 128.908C843.938 128.908 842.558 129.52 841.574 130.744C840.59 131.944 840.098 133.648 840.098 135.856C840.098 138.136 840.578 139.876 841.538 141.076C842.522 142.252 843.914 142.84 845.714 142.84ZM867.864 126.46C872.208 126.46 874.38 128.848 874.38 133.624V145H871.464V133.768C871.464 132.088 871.128 130.864 870.456 130.096C869.784 129.304 868.728 128.908 867.288 128.908C865.608 128.908 864.264 129.424 863.256 130.456C862.248 131.488 861.744 132.88 861.744 134.632V145H858.828V131.968C858.828 130.096 858.732 128.404 858.54 126.892H861.312L861.6 130.132C862.152 128.956 862.98 128.056 864.084 127.432C865.188 126.784 866.448 126.46 867.864 126.46ZM549.756 163.504V190H546.876V186.724C546.348 187.852 545.544 188.728 544.464 189.352C543.408 189.952 542.172 190.252 540.756 190.252C539.172 190.252 537.768 189.856 536.544 189.064C535.344 188.272 534.408 187.168 533.736 185.752C533.064 184.312 532.728 182.656 532.728 180.784C532.728 178.912 533.052 177.28 533.7 175.888C534.372 174.472 535.32 173.38 536.544 172.612C537.768 171.844 539.172 171.46 540.756 171.46C542.172 171.46 543.408 171.772 544.464 172.396C545.52 172.996 546.312 173.848 546.84 174.952V163.504H549.756ZM541.332 187.84C543.108 187.84 544.476 187.24 545.436 186.04C546.396 184.816 546.876 183.088 546.876 180.856C546.876 178.648 546.396 176.944 545.436 175.744C544.476 174.52 543.108 173.908 541.332 173.908C539.556 173.908 538.164 174.508 537.156 175.708C536.172 176.908 535.68 178.6 535.68 180.784C535.68 183.016 536.172 184.756 537.156 186.004C538.164 187.228 539.556 187.84 541.332 187.84ZM570.55 180.856H557.266C557.29 183.16 557.818 184.9 558.85 186.076C559.906 187.252 561.43 187.84 563.422 187.84C565.534 187.84 567.478 187.132 569.254 185.716L570.226 187.84C569.434 188.584 568.414 189.172 567.166 189.604C565.942 190.036 564.682 190.252 563.386 190.252C560.554 190.252 558.334 189.424 556.726 187.768C555.118 186.088 554.314 183.796 554.314 180.892C554.314 179.044 554.674 177.412 555.394 175.996C556.114 174.556 557.122 173.44 558.418 172.648C559.714 171.856 561.19 171.46 562.846 171.46C565.246 171.46 567.13 172.252 568.498 173.836C569.866 175.396 570.55 177.556 570.55 180.316V180.856ZM562.882 173.728C561.37 173.728 560.134 174.184 559.174 175.096C558.238 176.008 557.638 177.292 557.374 178.948H567.922C567.778 177.244 567.274 175.948 566.41 175.06C565.57 174.172 564.394 173.728 562.882 173.728ZM588.251 174.196V184.096C588.251 185.44 588.527 186.388 589.079 186.94C589.631 187.468 590.411 187.732 591.419 187.732C592.091 187.732 592.739 187.624 593.363 187.408V189.892C592.619 190.132 591.779 190.252 590.843 190.252C589.115 190.252 587.759 189.772 586.775 188.812C585.815 187.828 585.335 186.388 585.335 184.492V174.196H581.807V171.892H585.335V167.248L588.251 166.204V171.892H593.435V174.196H588.251ZM612.105 180.856H598.821C598.845 183.16 599.373 184.9 600.405 186.076C601.461 187.252 602.985 187.84 604.977 187.84C607.089 187.84 609.033 187.132 610.809 185.716L611.781 187.84C610.989 188.584 609.969 189.172 608.721 189.604C607.497 190.036 606.237 190.252 604.941 190.252C602.109 190.252 599.889 189.424 598.281 187.768C596.673 186.088 595.869 183.796 595.869 180.892C595.869 179.044 596.229 177.412 596.949 175.996C597.669 174.556 598.677 173.44 599.973 172.648C601.269 171.856 602.745 171.46 604.401 171.46C606.801 171.46 608.685 172.252 610.053 173.836C611.421 175.396 612.105 177.556 612.105 180.316V180.856ZM604.437 173.728C602.925 173.728 601.689 174.184 600.729 175.096C599.793 176.008 599.193 177.292 598.929 178.948H609.477C609.333 177.244 608.829 175.948 607.965 175.06C607.125 174.172 605.949 173.728 604.437 173.728ZM622.651 190.252C619.603 190.252 617.191 189.472 615.415 187.912L616.387 185.752C617.371 186.52 618.367 187.072 619.375 187.408C620.383 187.744 621.511 187.912 622.759 187.912C624.127 187.912 625.159 187.684 625.855 187.228C626.575 186.748 626.935 186.064 626.935 185.176C626.935 184.456 626.695 183.88 626.215 183.448C625.735 183.016 624.943 182.68 623.839 182.44L620.779 181.72C619.267 181.384 618.091 180.784 617.251 179.92C616.435 179.056 616.027 178.024 616.027 176.824C616.027 175.24 616.663 173.956 617.935 172.972C619.207 171.964 620.887 171.46 622.975 171.46C624.247 171.46 625.447 171.664 626.575 172.072C627.703 172.48 628.651 173.068 629.419 173.836L628.447 175.96C626.743 174.544 624.919 173.836 622.975 173.836C621.679 173.836 620.671 174.088 619.951 174.592C619.255 175.072 618.907 175.756 618.907 176.644C618.907 177.388 619.123 177.976 619.555 178.408C620.011 178.84 620.731 179.176 621.715 179.416L624.775 180.172C626.455 180.556 627.703 181.156 628.519 181.972C629.335 182.764 629.743 183.808 629.743 185.104C629.743 186.664 629.107 187.912 627.835 188.848C626.563 189.784 624.835 190.252 622.651 190.252ZM652.813 171.46C654.397 171.46 655.801 171.856 657.025 172.648C658.249 173.44 659.197 174.556 659.869 175.996C660.541 177.412 660.877 179.056 660.877 180.928C660.877 182.8 660.541 184.444 659.869 185.86C659.197 187.252 658.249 188.332 657.025 189.1C655.825 189.868 654.421 190.252 652.813 190.252C651.397 190.252 650.161 189.94 649.105 189.316C648.049 188.692 647.245 187.804 646.693 186.652V197.776H643.777V176.968C643.777 175.096 643.681 173.404 643.489 171.892H646.261L646.549 175.384C647.053 174.136 647.845 173.176 648.925 172.504C650.029 171.808 651.325 171.46 652.813 171.46ZM652.273 187.84C654.049 187.84 655.417 187.24 656.377 186.04C657.361 184.84 657.853 183.136 657.853 180.928C657.853 178.72 657.361 177.004 656.377 175.78C655.393 174.532 654.025 173.908 652.273 173.908C650.473 173.908 649.093 174.508 648.133 175.708C647.173 176.908 646.693 178.624 646.693 180.856C646.693 183.088 647.173 184.816 648.133 186.04C649.093 187.24 650.473 187.84 652.273 187.84ZM673.787 171.46C674.387 171.46 674.939 171.532 675.443 171.676L675.371 174.34C674.819 174.148 674.183 174.052 673.463 174.052C671.711 174.052 670.403 174.604 669.539 175.708C668.699 176.788 668.279 178.108 668.279 179.668V190H665.363V176.968C665.363 175.096 665.267 173.404 665.075 171.892H667.847L668.135 175.24C668.591 174.016 669.323 173.08 670.331 172.432C671.339 171.784 672.491 171.46 673.787 171.46ZM693.21 180.856H679.926C679.95 183.16 680.478 184.9 681.51 186.076C682.566 187.252 684.09 187.84 686.082 187.84C688.194 187.84 690.138 187.132 691.914 185.716L692.886 187.84C692.094 188.584 691.074 189.172 689.826 189.604C688.602 190.036 687.342 190.252 686.046 190.252C683.214 190.252 680.994 189.424 679.386 187.768C677.778 186.088 676.974 183.796 676.974 180.892C676.974 179.044 677.334 177.412 678.054 175.996C678.774 174.556 679.782 173.44 681.078 172.648C682.374 171.856 683.85 171.46 685.506 171.46C687.906 171.46 689.79 172.252 691.158 173.836C692.526 175.396 693.21 177.556 693.21 180.316V180.856ZM685.542 173.728C684.03 173.728 682.794 174.184 681.834 175.096C680.898 176.008 680.298 177.292 680.034 178.948H690.582C690.438 177.244 689.934 175.948 689.07 175.06C688.23 174.172 687.054 173.728 685.542 173.728ZM684.462 169.552L688.062 162.208H691.446L686.514 169.552H684.462ZM704.549 165.88C703.589 165.88 702.833 166.156 702.281 166.708C701.753 167.236 701.489 168.16 701.489 169.48V171.892H705.917V174.196H701.489V190H698.573V174.196H695.045V171.892H698.573V169.12C698.573 167.224 699.041 165.796 699.977 164.836C700.937 163.852 702.269 163.36 703.973 163.36C704.813 163.36 705.629 163.468 706.421 163.684V166.168C705.749 165.976 705.125 165.88 704.549 165.88ZM724.71 180.856H711.426C711.45 183.16 711.978 184.9 713.01 186.076C714.066 187.252 715.59 187.84 717.582 187.84C719.694 187.84 721.638 187.132 723.414 185.716L724.386 187.84C723.594 188.584 722.574 189.172 721.326 189.604C720.102 190.036 718.842 190.252 717.546 190.252C714.714 190.252 712.494 189.424 710.886 187.768C709.278 186.088 708.474 183.796 708.474 180.892C708.474 179.044 708.834 177.412 709.554 175.996C710.274 174.556 711.282 173.44 712.578 172.648C713.874 171.856 715.35 171.46 717.006 171.46C719.406 171.46 721.29 172.252 722.658 173.836C724.026 175.396 724.71 177.556 724.71 180.316V180.856ZM717.042 173.728C715.53 173.728 714.294 174.184 713.334 175.096C712.398 176.008 711.798 177.292 711.534 178.948H722.082C721.938 177.244 721.434 175.948 720.57 175.06C719.73 174.172 718.554 173.728 717.042 173.728ZM715.962 169.552L719.562 162.208H722.946L718.014 169.552H715.962ZM737.56 171.46C738.16 171.46 738.712 171.532 739.216 171.676L739.144 174.34C738.592 174.148 737.956 174.052 737.236 174.052C735.484 174.052 734.176 174.604 733.312 175.708C732.472 176.788 732.052 178.108 732.052 179.668V190H729.136V176.968C729.136 175.096 729.04 173.404 728.848 171.892H731.62L731.908 175.24C732.364 174.016 733.096 173.08 734.104 172.432C735.112 171.784 736.264 171.46 737.56 171.46ZM756.984 180.856H743.7C743.724 183.16 744.252 184.9 745.284 186.076C746.34 187.252 747.864 187.84 749.856 187.84C751.968 187.84 753.912 187.132 755.688 185.716L756.66 187.84C755.868 188.584 754.848 189.172 753.6 189.604C752.376 190.036 751.116 190.252 749.82 190.252C746.988 190.252 744.768 189.424 743.16 187.768C741.552 186.088 740.748 183.796 740.748 180.892C740.748 179.044 741.108 177.412 741.828 175.996C742.548 174.556 743.556 173.44 744.852 172.648C746.148 171.856 747.624 171.46 749.28 171.46C751.68 171.46 753.564 172.252 754.932 173.836C756.3 175.396 756.984 177.556 756.984 180.316V180.856ZM749.316 173.728C747.804 173.728 746.568 174.184 745.608 175.096C744.672 176.008 744.072 177.292 743.808 178.948H754.356C754.212 177.244 753.708 175.948 752.844 175.06C752.004 174.172 750.828 173.728 749.316 173.728ZM770.446 171.46C774.79 171.46 776.962 173.848 776.962 178.624V190H774.046V178.768C774.046 177.088 773.71 175.864 773.038 175.096C772.366 174.304 771.31 173.908 769.87 173.908C768.19 173.908 766.846 174.424 765.838 175.456C764.83 176.488 764.326 177.88 764.326 179.632V190H761.41V176.968C761.41 175.096 761.314 173.404 761.122 171.892H763.894L764.182 175.132C764.734 173.956 765.562 173.056 766.666 172.432C767.77 171.784 769.03 171.46 770.446 171.46ZM790.064 190.252C788.312 190.252 786.776 189.868 785.456 189.1C784.16 188.332 783.152 187.252 782.432 185.86C781.736 184.444 781.388 182.8 781.388 180.928C781.388 179.056 781.748 177.412 782.468 175.996C783.188 174.556 784.208 173.44 785.528 172.648C786.872 171.856 788.432 171.46 790.208 171.46C791.432 171.46 792.608 171.676 793.736 172.108C794.888 172.516 795.836 173.092 796.58 173.836L795.608 175.996C794.696 175.276 793.808 174.748 792.944 174.412C792.104 174.076 791.24 173.908 790.352 173.908C788.504 173.908 787.052 174.532 785.996 175.78C784.94 177.004 784.412 178.72 784.412 180.928C784.412 183.112 784.928 184.816 785.96 186.04C787.016 187.24 788.48 187.84 790.352 187.84C791.24 187.84 792.104 187.672 792.944 187.336C793.808 187 794.696 186.472 795.608 185.752L796.58 187.912C795.812 188.632 794.84 189.208 793.664 189.64C792.512 190.048 791.312 190.252 790.064 190.252ZM815.448 180.856H802.164C802.188 183.16 802.716 184.9 803.748 186.076C804.804 187.252 806.328 187.84 808.32 187.84C810.432 187.84 812.376 187.132 814.152 185.716L815.124 187.84C814.332 188.584 813.312 189.172 812.064 189.604C810.84 190.036 809.58 190.252 808.284 190.252C805.452 190.252 803.232 189.424 801.624 187.768C800.016 186.088 799.212 183.796 799.212 180.892C799.212 179.044 799.572 177.412 800.292 175.996C801.012 174.556 802.02 173.44 803.316 172.648C804.612 171.856 806.088 171.46 807.744 171.46C810.144 171.46 812.028 172.252 813.396 173.836C814.764 175.396 815.448 177.556 815.448 180.316V180.856ZM807.78 173.728C806.268 173.728 805.032 174.184 804.072 175.096C803.136 176.008 802.536 177.292 802.272 178.948H812.82C812.676 177.244 812.172 175.948 811.308 175.06C810.468 174.172 809.292 173.728 807.78 173.728ZM825.994 190.252C822.946 190.252 820.534 189.472 818.758 187.912L819.73 185.752C820.714 186.52 821.71 187.072 822.718 187.408C823.726 187.744 824.854 187.912 826.102 187.912C827.47 187.912 828.502 187.684 829.198 187.228C829.918 186.748 830.278 186.064 830.278 185.176C830.278 184.456 830.038 183.88 829.558 183.448C829.078 183.016 828.286 182.68 827.182 182.44L824.122 181.72C822.61 181.384 821.434 180.784 820.594 179.92C819.778 179.056 819.37 178.024 819.37 176.824C819.37 175.24 820.006 173.956 821.278 172.972C822.55 171.964 824.23 171.46 826.318 171.46C827.59 171.46 828.79 171.664 829.918 172.072C831.046 172.48 831.994 173.068 832.762 173.836L831.79 175.96C830.086 174.544 828.262 173.836 826.318 173.836C825.022 173.836 824.014 174.088 823.294 174.592C822.598 175.072 822.25 175.756 822.25 176.644C822.25 177.388 822.466 177.976 822.898 178.408C823.354 178.84 824.074 179.176 825.058 179.416L828.118 180.172C829.798 180.556 831.046 181.156 831.862 181.972C832.678 182.764 833.086 183.808 833.086 185.104C833.086 186.664 832.45 187.912 831.178 188.848C829.906 189.784 828.178 190.252 825.994 190.252Z" fill="#45396D"/>
        <circle cx="890.5" cy="218.5" r="7.5" stroke="#45396D" stroke-width="2"/>
        <circle cx="867" cy="192" r="12" stroke="#45396D" stroke-width="2"/>
        <circle cx="908.5" cy="237.5" r="4.5" stroke="#45396D" stroke-width="2"/>
        <rect x="568" y="677" width="306" height="72" rx="17" fill="#FFCDB6"/>
        <path d="M650.448 726.324C648.48 726.324 646.632 726.06 644.904 725.532C643.2 725.004 641.748 724.248 640.548 723.264L642.132 719.88C643.38 720.816 644.676 721.512 646.02 721.968C647.388 722.4 648.876 722.616 650.484 722.616C652.26 722.616 653.628 722.304 654.588 721.68C655.572 721.056 656.064 720.18 656.064 719.052C656.064 718.092 655.608 717.36 654.696 716.856C653.808 716.328 652.332 715.836 650.268 715.38C647.052 714.684 644.712 713.784 643.248 712.68C641.784 711.576 641.052 709.968 641.052 707.856C641.052 706.344 641.46 705 642.276 703.824C643.092 702.648 644.244 701.724 645.732 701.052C647.244 700.38 648.984 700.044 650.952 700.044C652.752 700.044 654.456 700.32 656.064 700.872C657.696 701.4 659.028 702.144 660.06 703.104L658.512 706.488C656.232 704.664 653.712 703.752 650.952 703.752C649.296 703.752 647.988 704.1 647.028 704.796C646.068 705.468 645.588 706.392 645.588 707.568C645.588 708.576 646.008 709.344 646.848 709.872C647.712 710.4 649.176 710.892 651.24 711.348C653.376 711.852 655.116 712.404 656.46 713.004C657.804 713.58 658.836 714.336 659.556 715.272C660.276 716.184 660.636 717.336 660.636 718.728C660.636 720.264 660.228 721.608 659.412 722.76C658.596 723.888 657.42 724.764 655.884 725.388C654.348 726.012 652.536 726.324 650.448 726.324ZM675.524 726.324C671.996 726.324 669.32 725.424 667.496 723.624C665.696 721.8 664.796 719.136 664.796 715.632V700.368H669.368V715.884C669.368 718.092 669.884 719.772 670.916 720.924C671.948 722.052 673.484 722.616 675.524 722.616C677.516 722.616 679.028 722.04 680.06 720.888C681.116 719.736 681.644 718.068 681.644 715.884V700.368H686.216V715.632C686.216 719.112 685.304 721.764 683.48 723.588C681.656 725.412 679.004 726.324 675.524 726.324ZM691.588 700.368H696.232V726H691.588V700.368ZM725.292 700.368L713.88 726H710.1L698.688 700.368H703.512L712.044 720.168L720.576 700.368H725.292ZM742.296 719.988H729.768L727.176 726H722.496L734.088 700.368H737.868L749.496 726H744.852L742.296 719.988ZM740.748 716.388L736.032 705.408L731.316 716.388H740.748ZM773.868 700.368V726H770.412L756.588 708.036V726H752.268V700.368H755.724L769.512 718.296V700.368H773.868ZM785.456 704.184H777.104V700.368H798.524V704.184H790.136V726H785.456V704.184Z" fill="white"/>
        <rect x="987" y="445" width="410" height="152" rx="17" fill="#FFCDB6"/>
        <circle cx="105.5" cy="40.5" r="17.5" fill="#FFCDB6"/>
        <path d="M105.5 33V48" stroke="white" stroke-width="2" stroke-miterlimit="10" stroke-linecap="round"/>
        <path d="M113 40.5H98" stroke="white" stroke-width="2" stroke-miterlimit="10" stroke-linecap="round"/>
        <circle cx="202.5" cy="40.5" r="17.5" fill="#FFCDB6"/>
        <path d="M197 33L193 38L197 43" stroke="white" stroke-width="2" stroke-linecap="round" stroke-linejoin="round"/>
        <path d="M193.5 38H205.5C208.261 38 210.5 40.2386 210.5 43V43C210.5 45.7614 208.261 48 205.5 48H203" stroke="white" stroke-width="2" stroke-linecap="round"/>
        <circle cx="154.5" cy="40.5" r="17.5" fill="#FFCDB6"/>
        <path d="M163.584 41.4397L165.803 39.2209C166.066 38.9577 166.066 38.5314 165.803 38.2681C165.539 38.0049 165.113 38.0049 164.85 38.2681L162.631 40.4869L160.412 38.2681C160.149 38.0049 159.723 38.0049 159.46 38.2681C159.196 38.5314 159.196 38.9577 159.46 39.2209L161.678 41.4397L159.46 43.6584C159.196 43.9216 159.196 44.348 159.46 44.6112C159.723 44.8745 160.149 44.8745 160.412 44.6112L162.631 42.3925L164.85 44.6112C165.113 44.8745 165.539 44.8745 165.803 44.6112C166.066 44.348 166.066 43.9216 165.803 43.6584L163.584 41.4397Z" fill="white"/>
        <path d="M156.659 29.194C155.941 28.8576 155.117 28.964 154.508 29.4717L148.82 34.2115H145.021C143.907 34.2115 143 35.1185 143 36.233V44.7674C143 45.882 143.907 46.7889 145.021 46.7889H148.82L154.508 51.5287C155.117 52.0368 155.942 52.1424 156.659 51.8064C157.377 51.4699 157.823 50.7686 157.823 49.9758V31.0247C157.823 30.2318 157.377 29.5301 156.659 29.194ZM148.39 45.4498H145.021C144.65 45.4498 144.348 45.1385 144.348 44.767V36.233C144.348 35.8615 144.65 35.5592 145.021 35.5592H148.39V45.4498ZM156.476 49.9758C156.476 50.3733 156.179 50.5431 156.088 50.5858C155.996 50.6285 155.676 50.748 155.371 50.4933L149.738 45.7993V35.2007L155.371 30.5067C155.676 30.252 155.997 30.3715 156.088 30.4142C156.179 30.4568 156.476 30.6266 156.476 31.0242V49.9758Z" fill="white"/>
        <path d="M288.117 214.065C287.429 213.98 286.948 214.749 287.349 215.297C288.482 216.836 290.912 219.134 295.645 219.917C302.98 221.13 307.228 214.867 314.699 212.721C315.159 212.592 315.324 212.045 314.976 211.73C312.817 209.801 306.84 204.817 301.372 203.499C295.034 201.967 288.904 202.69 286.556 208.868C286.227 209.733 286.684 210.684 287.566 210.982C289.856 211.771 294.525 212.912 299.593 211.56C299.593 211.56 297.562 215.197 288.117 214.065Z" fill="#04D99D"/>
        <path d="M233.989 190.911C234.358 190.817 234.451 190.327 234.135 190.126C233.247 189.563 231.54 188.871 228.956 189.417C224.951 190.263 224.026 194.326 220.624 196.922C220.414 197.08 220.438 197.394 220.68 197.485C222.174 198.043 226.237 199.403 229.305 198.984C232.863 198.501 235.862 196.903 235.829 193.264C235.825 192.755 235.4 192.359 234.888 192.383C233.556 192.436 230.933 192.785 228.604 194.493C228.604 194.493 228.918 192.221 233.989 190.911Z" fill="#04D99D"/>
        <path d="M269.633 182.715C269.413 183.02 269.653 183.449 270.019 183.402C271.046 183.265 272.774 182.71 274.383 180.665C276.877 177.494 275.009 173.837 275.941 169.724C276 169.472 275.783 169.25 275.542 169.334C274.061 169.856 270.129 171.395 268.073 173.651C265.689 176.264 264.431 179.368 266.754 182.099C267.08 182.481 267.651 182.512 268.023 182.171C268.997 181.288 270.76 179.366 271.441 176.603C271.441 176.603 272.64 178.52 269.633 182.715Z" fill="#03A678"/>
        <path d="M215.162 145.787C215.918 146.426 217.095 145.883 217.045 144.913C216.895 142.186 215.787 137.535 210.739 132.892C202.914 125.698 192.928 129.864 182.311 126.581C181.659 126.376 181.034 126.9 181.204 127.55C182.277 131.548 185.524 142.19 191.032 148.048C197.416 154.842 205.313 158.777 212.96 153.226C214.03 152.448 214.228 150.953 213.406 149.906C211.284 147.169 206.593 142.148 199.472 139.798C199.472 139.798 204.75 137.037 215.162 145.787Z" fill="#025949"/>
        <path d="M1173.15 534.324C1170.68 534.324 1168.52 533.796 1166.67 532.74C1164.84 531.66 1163.43 530.136 1162.42 528.168C1161.44 526.176 1160.94 523.836 1160.94 521.148C1160.94 518.484 1161.44 516.168 1162.42 514.2C1163.4 512.208 1164.81 510.684 1166.63 509.628C1168.48 508.572 1170.65 508.044 1173.15 508.044C1175.64 508.044 1177.8 508.572 1179.63 509.628C1181.48 510.684 1182.88 512.208 1183.84 514.2C1184.82 516.168 1185.32 518.484 1185.32 521.148C1185.32 523.836 1184.82 526.176 1183.84 528.168C1182.86 530.136 1181.45 531.66 1179.63 532.74C1177.8 533.796 1175.64 534.324 1173.15 534.324ZM1173.15 530.616C1175.52 530.616 1177.37 529.8 1178.69 528.168C1180.01 526.536 1180.67 524.196 1180.67 521.148C1180.67 518.124 1180.01 515.808 1178.69 514.2C1177.37 512.568 1175.52 511.752 1173.15 511.752C1170.77 511.752 1168.92 512.556 1167.6 514.164C1166.28 515.772 1165.62 518.1 1165.62 521.148C1165.62 524.196 1166.28 526.536 1167.6 528.168C1168.92 529.8 1170.77 530.616 1173.15 530.616ZM1200.66 534.324C1197.13 534.324 1194.45 533.424 1192.63 531.624C1190.83 529.8 1189.93 527.136 1189.93 523.632V508.368H1194.5V523.884C1194.5 526.092 1195.02 527.772 1196.05 528.924C1197.08 530.052 1198.62 530.616 1200.66 530.616C1202.65 530.616 1204.16 530.04 1205.19 528.888C1206.25 527.736 1206.78 526.068 1206.78 523.884V508.368H1211.35V523.632C1211.35 527.112 1210.44 529.764 1208.61 531.588C1206.79 533.412 1204.14 534.324 1200.66 534.324ZM1216.72 508.368H1221.37V534H1216.72V508.368Z" fill="white"/>
        <rect x="8" y="435" width="437" height="173" rx="17" fill="#FFCDB6" fill-opacity="0.5"/>
        <rect x="21" y="445" width="410" height="152" rx="17" fill="#FFCDB6"/>
        <path d="M217.372 508.368V534H213.916L200.092 516.036V534H195.772V508.368H199.228L213.016 526.296V508.368H217.372ZM234.324 534.324C231.852 534.324 229.692 533.796 227.844 532.74C226.02 531.66 224.604 530.136 223.596 528.168C222.612 526.176 222.12 523.836 222.12 521.148C222.12 518.484 222.612 516.168 223.596 514.2C224.58 512.208 225.984 510.684 227.808 509.628C229.656 508.572 231.828 508.044 234.324 508.044C236.82 508.044 238.98 508.572 240.804 509.628C242.652 510.684 244.056 512.208 245.016 514.2C246 516.168 246.492 518.484 246.492 521.148C246.492 523.836 246 526.176 245.016 528.168C244.032 530.136 242.628 531.66 240.804 532.74C238.98 533.796 236.82 534.324 234.324 534.324ZM234.324 530.616C236.7 530.616 238.548 529.8 239.868 528.168C241.188 526.536 241.848 524.196 241.848 521.148C241.848 518.124 241.188 515.808 239.868 514.2C238.548 512.568 236.7 511.752 234.324 511.752C231.948 511.752 230.1 512.556 228.78 514.164C227.46 515.772 226.8 518.1 226.8 521.148C226.8 524.196 227.46 526.536 228.78 528.168C230.1 529.8 231.948 530.616 234.324 530.616ZM272.849 508.368V534H269.393L255.569 516.036V534H251.249V508.368H254.705L268.493 526.296V508.368H272.849Z" fill="white"/>
        <path d="M45.8072 57.1173C42.8812 55.4689 40.3991 53.0969 38.6435 50.2625C39.3094 44.855 40.0964 39.9903 41.0045 37.5177C39.9955 39.8295 38.4821 43.6489 37.352 47.7698C36.7265 46.3426 36.2825 44.855 36 43.287C37.352 40.2516 39.0269 37.8796 41.065 35.7688C41.4484 35.3668 41.7511 35.206 42.0336 35.2261C42.3161 35.2462 42.5785 35.4874 42.8812 35.9699C45.1009 39.6687 46.4327 43.669 46.6749 48.011C46.7556 49.3177 46.4731 53.7803 45.8072 57.1173Z" fill="#45396D"/>
        <path d="M47.8252 34.3215C45.2422 35.5879 42.1144 34.5627 40.8028 31.9897C39.4709 29.4568 40.5202 26.2203 43.0427 24.9338C45.6256 23.6272 48.7131 24.6725 50.0651 27.2657C51.3767 29.8789 50.3879 33.035 47.8252 34.3215Z" fill="#45396D"/>
        <path d="M49.6008 37.8594C49.5201 35.5879 51.4372 33.5777 53.6973 33.5375C55.9977 33.4772 57.9349 35.3467 57.9551 37.6584C57.9955 40.0506 56.2802 41.8598 53.8991 41.9603C51.6591 42.0206 49.6614 40.131 49.6008 37.8594Z" fill="#45396D"/>
        <path d="M49.0762 43.5886C49.2377 42.8448 49.3789 42.3825 49.6009 42.1412C49.6009 42.1412 50.6301 52.916 52.8094 59.4894C52.7287 59.4894 52.6682 59.4692 52.5875 59.4491C52.5673 59.4692 52.5471 59.4491 52.5269 59.4491C52.0023 59.228 51.4978 59.0069 50.9933 58.7657C50.3274 57.9415 49.8431 56.9766 49.5202 55.9112C48.8139 53.6999 48.5112 51.4284 48.4507 49.3378C48.491 47.2271 48.6928 45.4179 49.0762 43.5886Z" fill="#45396D"/>
        <path d="M57.6524 59.5497C54.8677 55.5493 50.5291 48.5337 49.6008 42.1412C49.9237 41.7794 50.408 41.9804 51.3564 42.6036C57.2892 46.5034 60.7197 51.9109 62.1322 58.5647C60.6995 59.0471 59.2062 59.3888 57.6524 59.5497Z" fill="#45396D"/>
        <path d="M57.935 29.6176C56.6233 27.0646 57.6525 23.8483 60.1749 22.5618C61.6076 21.8381 63.222 21.8381 64.574 22.4211C64.796 22.5216 64.9978 22.6422 65.1996 22.7628C66.0269 23.2653 66.713 23.989 67.1973 24.8936C68.5292 27.4868 67.5404 30.6428 64.9776 31.9092C62.4148 33.2159 59.2668 32.1907 57.935 29.6176Z" fill="#45396D"/>
        <path d="M70.9104 52.3129C72.4239 45.1163 72.4642 36.9549 72.3432 32.5324C72.1212 39.5882 69.0741 49.6996 66.8947 56.0921C65.906 56.7956 64.8566 57.3987 63.7468 57.9013C63.101 54.9865 61.9912 52.2124 60.5181 49.4986C59.2669 47.2069 59.2064 44.7545 60.3566 42.3422C62.7781 37.2966 65.9867 33.1556 70.527 29.7784C71.092 29.3563 71.5562 29.1955 71.8992 29.296C72.0808 29.3563 72.2019 29.4769 72.3432 29.6779C72.4844 29.8789 72.6257 30.1201 72.8073 30.4016C73.0091 30.7232 73.2109 31.0448 73.3723 31.4067C73.5338 31.7283 73.675 32.0701 73.8163 32.3917C73.9575 32.7334 74.0786 33.0752 74.2199 33.4169C74.3207 33.7385 74.4418 34.0803 74.5427 34.422C74.5629 34.4823 74.5831 34.5225 74.6033 34.5828C74.684 34.8843 74.7647 35.1859 74.8454 35.5075C74.9261 35.8693 75.0068 36.2111 75.0674 36.593C75.249 37.6986 75.3499 38.8043 75.3499 39.9702C75.3095 44.6339 73.6548 48.9357 70.9104 52.3129Z" fill="#45396D"/>
        <path d="M45.8072 57.1173C42.8812 55.4689 40.3991 53.0969 38.6435 50.2625C39.3094 44.855 40.0964 39.9903 41.0045 37.5177C39.9955 39.8295 38.4821 43.6489 37.352 47.7698C36.7265 46.3426 36.2825 44.855 36 43.287C37.352 40.2516 39.0269 37.8796 41.065 35.7688C41.4484 35.3668 41.7511 35.206 42.0336 35.2261C42.3161 35.2462 42.5785 35.4874 42.8812 35.9699C45.1009 39.6687 46.4327 43.669 46.6749 48.011C46.7556 49.3177 46.4731 53.7803 45.8072 57.1173Z" fill="#04D99D"/>
        <path d="M70.9104 52.3129C72.4239 45.1163 72.4642 36.9549 72.3432 32.5324C72.1212 39.5882 69.0741 49.6996 66.8947 56.0921C65.906 56.7956 64.8566 57.3987 63.7468 57.9013C63.101 54.9865 61.9912 52.2124 60.5181 49.4986C59.2669 47.2069 59.2064 44.7545 60.3566 42.3422C62.7781 37.2966 65.9867 33.1556 70.527 29.7784C71.092 29.3563 71.5562 29.1955 71.8992 29.296C72.0808 29.3563 72.2019 29.4769 72.3432 29.6779C72.4844 29.8789 72.6257 30.1201 72.8073 30.4016C73.0091 30.7232 73.2109 31.0448 73.3723 31.4067C73.5338 31.7283 73.675 32.0701 73.8163 32.3917C73.9575 32.7334 74.0786 33.0752 74.2199 33.4169C74.3207 33.7385 74.4418 34.0803 74.5427 34.422C74.5629 34.4823 74.5831 34.5225 74.6033 34.5828C74.684 34.8843 74.7647 35.1859 74.8454 35.5075C74.9261 35.8693 75.0068 36.2111 75.0674 36.593C75.249 37.6986 75.3499 38.8043 75.3499 39.9702C75.3095 44.6339 73.6548 48.9357 70.9104 52.3129Z" fill="#04D99D"/>
        <path d="M52.8096 59.5497C52.7289 59.5095 52.6482 59.4894 52.5674 59.4492C52.5473 59.4693 52.5271 59.4492 52.5069 59.4492C51.9822 59.228 51.4778 59.0069 50.9733 58.7657C50.3073 57.9415 49.823 56.9766 49.5002 55.9112C48.7939 53.6999 48.4912 51.4284 48.4307 49.3378C48.471 47.2271 48.6728 45.4179 49.0562 43.5886C49.2177 42.8448 49.3589 42.3825 49.5809 42.1412C49.5809 42.1412 50.61 52.916 52.7894 59.4894C52.7894 59.4894 52.8096 59.5296 52.8096 59.5497Z" fill="#04D99D"/>
        <path d="M62.112 58.5445C60.6994 59.0471 59.1859 59.3888 57.6321 59.5497C54.8474 55.5493 50.5088 48.5337 49.5806 42.1412C49.9034 41.7794 50.3877 41.9804 51.3362 42.6036C57.2891 46.5034 60.6994 51.9109 62.112 58.5445Z" fill="#04D99D"/>
        <path d="M64.9776 31.9293C62.3946 33.236 59.2466 32.1907 57.935 29.6377C56.6233 27.0847 57.6525 23.8684 60.1749 22.5819C61.6076 21.8582 63.222 21.8582 64.574 22.4411C64.796 22.5416 64.9978 22.6623 65.1996 22.7829C66.0269 23.2854 66.713 24.0091 67.1973 24.9137C68.5292 27.5069 67.5404 30.6428 64.9776 31.9293Z" fill="#FFCDB6"/>
        <path d="M47.8252 34.3215C45.2422 35.5879 42.1144 34.5627 40.8028 31.9897C39.4709 29.4568 40.5202 26.2203 43.0427 24.9338C45.6256 23.6272 48.7131 24.6725 50.0651 27.2657C51.3767 29.8789 50.3879 33.035 47.8252 34.3215Z" fill="#FFCDB6"/>
        <path d="M57.9551 37.6584C57.9955 40.0506 56.2802 41.8598 53.8991 41.9603C51.6591 42.0407 49.6816 40.1511 49.6008 37.8595C49.5201 35.5879 51.4372 33.5777 53.6973 33.5375C55.9977 33.4973 57.9349 35.3467 57.9551 37.6584Z" fill="#FFCDB6"/>
    </g>
    <defs>
        <linearGradient id="paint0_linear" x1="118" y1="-124.504" x2="2131.99" y2="-124.504" gradientUnits="userSpaceOnUse">
            <stop stop-color="white"/>
            <stop offset="1" stop-color="#FDECE0"/>
        </linearGradient>
        <linearGradient id="paint1_linear" x1="448" y1="62.9968" x2="1903.99" y2="62.9968" gradientUnits="userSpaceOnUse">
            <stop stop-color="white"/>
            <stop offset="1" stop-color="#FDECE0"/>
        </linearGradient>
        <clipPath id="clip0">
            <rect width="1440" height="800" fill="white"/>
        </clipPath>
    </defs>
</svg>
