<svg width="1440" height="800" viewBox="0 0 1440 800" fill="none" xmlns="http://www.w3.org/2000/svg">
    <g clip-path="url(#clip0)">
        <rect width="1440" height="800" fill="white"/>
        <rect x="558" y="161" width="293" height="95" rx="47.5" fill="#FFCDB6" fill-opacity="0.5"/>
        <rect x="564" y="166" width="280" height="85" rx="42.5" fill="#45396D" fill-opacity="0.81"/>
        <rect x="558" y="370" width="293" height="95" rx="47.5" fill="#FFCDB6" fill-opacity="0.5"/>
        <rect x="564" y="375" width="280" height="85" rx="42.5" fill="#685A82"/>
        <rect x="558" y="475" width="293" height="95" rx="47.5" fill="#FFCDB6" fill-opacity="0.5"/>
        <rect x="564" y="480" width="280" height="85" rx="42.5" fill="#685A82"/>
        <rect x="558" y="580" width="293" height="95" rx="47.5" fill="#FFCDB6" fill-opacity="0.5"/>
        <rect x="564" y="585" width="280" height="85" rx="42.5" fill="#685A82"/>
        <rect x="558" y="265" width="293" height="95" rx="47.5" fill="#FFCDB6" fill-opacity="0.5"/>
        <rect x="564" y="270" width="280" height="85" rx="42.5" fill="#FFCDB6"/>
        <path d="M762 -348C762 -343.622 -757 1123 -757 1123H-74.9956L762 -348Z" fill="url(#paint0_linear)" fill-opacity="0.5"/>
        <path d="M611 -250C611 -245.925 -511 1119 -511 1119H-7.24164L611 -250Z" fill="url(#paint1_linear)" fill-opacity="0.5"/>
        <path d="M428.168 85.368H444.008V87.852H431.084V96.744H443.288V99.228H431.084V111H428.168V85.368ZM463.69 92.892V111H460.81V107.724C460.282 108.852 459.478 109.728 458.398 110.352C457.342 110.952 456.106 111.252 454.69 111.252C453.082 111.252 451.666 110.868 450.442 110.1C449.242 109.332 448.306 108.252 447.634 106.86C446.986 105.444 446.662 103.8 446.662 101.928C446.662 100.056 446.998 98.412 447.67 96.996C448.342 95.556 449.278 94.44 450.478 93.648C451.702 92.856 453.106 92.46 454.69 92.46C456.106 92.46 457.342 92.772 458.398 93.396C459.454 94.02 460.258 94.896 460.81 96.024V92.892H463.69ZM455.266 108.84C457.042 108.84 458.41 108.24 459.37 107.04C460.33 105.816 460.81 104.088 460.81 101.856C460.81 99.624 460.33 97.908 459.37 96.708C458.41 95.508 457.042 94.908 455.266 94.908C453.49 94.908 452.098 95.532 451.09 96.78C450.106 98.004 449.614 99.72 449.614 101.928C449.614 104.136 450.106 105.84 451.09 107.04C452.074 108.24 453.466 108.84 455.266 108.84ZM469.328 92.892H472.244V111H469.328V92.892ZM472.604 85.224V88.536H469.04V85.224H472.604ZM484.026 111.252C480.978 111.252 478.566 110.472 476.79 108.912L477.762 106.752C478.746 107.52 479.742 108.072 480.75 108.408C481.758 108.744 482.886 108.912 484.134 108.912C485.502 108.912 486.534 108.684 487.23 108.228C487.95 107.748 488.31 107.064 488.31 106.176C488.31 105.456 488.07 104.88 487.59 104.448C487.11 104.016 486.318 103.68 485.214 103.44L482.154 102.72C480.642 102.384 479.466 101.784 478.626 100.92C477.81 100.056 477.402 99.024 477.402 97.824C477.402 96.24 478.038 94.956 479.31 93.972C480.582 92.964 482.262 92.46 484.35 92.46C485.622 92.46 486.822 92.664 487.95 93.072C489.078 93.48 490.026 94.068 490.794 94.836L489.822 96.96C488.118 95.544 486.294 94.836 484.35 94.836C483.054 94.836 482.046 95.088 481.326 95.592C480.63 96.072 480.282 96.756 480.282 97.644C480.282 98.388 480.498 98.976 480.93 99.408C481.386 99.84 482.106 100.176 483.09 100.416L486.15 101.172C487.83 101.556 489.078 102.156 489.894 102.972C490.71 103.764 491.118 104.808 491.118 106.104C491.118 107.664 490.482 108.912 489.21 109.848C487.938 110.784 486.21 111.252 484.026 111.252ZM503.253 111.252C501.549 111.252 500.049 110.868 498.753 110.1C497.457 109.332 496.449 108.24 495.729 106.824C495.033 105.408 494.685 103.752 494.685 101.856C494.685 99.96 495.033 98.304 495.729 96.888C496.449 95.472 497.457 94.38 498.753 93.612C500.049 92.844 501.549 92.46 503.253 92.46C504.957 92.46 506.457 92.844 507.753 93.612C509.049 94.38 510.045 95.472 510.741 96.888C511.461 98.304 511.821 99.96 511.821 101.856C511.821 103.752 511.461 105.408 510.741 106.824C510.045 108.24 509.049 109.332 507.753 110.1C506.457 110.868 504.957 111.252 503.253 111.252ZM503.253 108.84C505.053 108.84 506.433 108.252 507.393 107.076C508.353 105.876 508.833 104.136 508.833 101.856C508.833 99.648 508.341 97.944 507.357 96.744C506.373 95.52 505.005 94.908 503.253 94.908C501.477 94.908 500.097 95.52 499.113 96.744C498.129 97.944 497.637 99.648 497.637 101.856C497.637 104.136 498.117 105.876 499.077 107.076C500.061 108.252 501.453 108.84 503.253 108.84ZM525.403 92.46C529.747 92.46 531.919 94.848 531.919 99.624V111H529.003V99.768C529.003 98.088 528.667 96.864 527.995 96.096C527.323 95.304 526.267 94.908 524.827 94.908C523.147 94.908 521.803 95.424 520.795 96.456C519.787 97.488 519.283 98.88 519.283 100.632V111H516.367V97.968C516.367 96.096 516.271 94.404 516.079 92.892H518.851L519.139 96.132C519.691 94.956 520.519 94.056 521.623 93.432C522.727 92.784 523.987 92.46 525.403 92.46ZM543.545 111.252C540.497 111.252 538.085 110.472 536.309 108.912L537.281 106.752C538.265 107.52 539.261 108.072 540.269 108.408C541.277 108.744 542.405 108.912 543.653 108.912C545.021 108.912 546.053 108.684 546.749 108.228C547.469 107.748 547.829 107.064 547.829 106.176C547.829 105.456 547.589 104.88 547.109 104.448C546.629 104.016 545.837 103.68 544.733 103.44L541.673 102.72C540.161 102.384 538.985 101.784 538.145 100.92C537.329 100.056 536.921 99.024 536.921 97.824C536.921 96.24 537.557 94.956 538.829 93.972C540.101 92.964 541.781 92.46 543.869 92.46C545.141 92.46 546.341 92.664 547.469 93.072C548.597 93.48 549.545 94.068 550.313 94.836L549.341 96.96C547.637 95.544 545.813 94.836 543.869 94.836C542.573 94.836 541.565 95.088 540.845 95.592C540.149 96.072 539.801 96.756 539.801 97.644C539.801 98.388 540.017 98.976 540.449 99.408C540.905 99.84 541.625 100.176 542.609 100.416L545.669 101.172C547.349 101.556 548.597 102.156 549.413 102.972C550.229 103.764 550.637 104.808 550.637 106.104C550.637 107.664 550.001 108.912 548.729 109.848C547.457 110.784 545.729 111.252 543.545 111.252ZM564.671 84.504H567.587V111H564.671V84.504ZM588.405 101.856H575.121C575.145 104.16 575.673 105.9 576.705 107.076C577.761 108.252 579.285 108.84 581.277 108.84C583.389 108.84 585.333 108.132 587.109 106.716L588.081 108.84C587.289 109.584 586.269 110.172 585.021 110.604C583.797 111.036 582.537 111.252 581.241 111.252C578.409 111.252 576.189 110.424 574.581 108.768C572.973 107.088 572.169 104.796 572.169 101.892C572.169 100.044 572.529 98.412 573.249 96.996C573.969 95.556 574.977 94.44 576.273 93.648C577.569 92.856 579.045 92.46 580.701 92.46C583.101 92.46 584.985 93.252 586.353 94.836C587.721 96.396 588.405 98.556 588.405 101.316V101.856ZM580.737 94.728C579.225 94.728 577.989 95.184 577.029 96.096C576.093 97.008 575.493 98.292 575.229 99.948H585.777C585.633 98.244 585.129 96.948 584.265 96.06C583.425 95.172 582.249 94.728 580.737 94.728ZM611.254 92.46C612.838 92.46 614.242 92.856 615.466 93.648C616.69 94.44 617.638 95.556 618.31 96.996C618.982 98.412 619.318 100.056 619.318 101.928C619.318 103.8 618.982 105.444 618.31 106.86C617.638 108.252 616.69 109.332 615.466 110.1C614.266 110.868 612.862 111.252 611.254 111.252C609.838 111.252 608.602 110.94 607.546 110.316C606.49 109.692 605.686 108.804 605.134 107.652V118.776H602.218V97.968C602.218 96.096 602.122 94.404 601.93 92.892H604.702L604.99 96.384C605.494 95.136 606.286 94.176 607.366 93.504C608.47 92.808 609.766 92.46 611.254 92.46ZM610.714 108.84C612.49 108.84 613.858 108.24 614.818 107.04C615.802 105.84 616.294 104.136 616.294 101.928C616.294 99.72 615.802 98.004 614.818 96.78C613.834 95.532 612.466 94.908 610.714 94.908C608.914 94.908 607.534 95.508 606.574 96.708C605.614 97.908 605.134 99.624 605.134 101.856C605.134 104.088 605.614 105.816 606.574 107.04C607.534 108.24 608.914 108.84 610.714 108.84ZM623.804 84.504H626.72V111H623.804V84.504ZM647.538 101.856H634.254C634.278 104.16 634.806 105.9 635.838 107.076C636.894 108.252 638.418 108.84 640.41 108.84C642.522 108.84 644.466 108.132 646.242 106.716L647.214 108.84C646.422 109.584 645.402 110.172 644.154 110.604C642.93 111.036 641.67 111.252 640.374 111.252C637.542 111.252 635.322 110.424 633.714 108.768C632.106 107.088 631.302 104.796 631.302 101.892C631.302 100.044 631.662 98.412 632.382 96.996C633.102 95.556 634.11 94.44 635.406 93.648C636.702 92.856 638.178 92.46 639.834 92.46C642.234 92.46 644.118 93.252 645.486 94.836C646.854 96.396 647.538 98.556 647.538 101.316V101.856ZM639.87 94.728C638.358 94.728 637.122 95.184 636.162 96.096C635.226 97.008 634.626 98.292 634.362 99.948H644.91C644.766 98.244 644.262 96.948 643.398 96.06C642.558 95.172 641.382 94.728 639.87 94.728ZM651.964 92.892H654.88V111H651.964V92.892ZM655.24 85.224V88.536H651.676V85.224H655.24ZM669.578 92.46C673.922 92.46 676.094 94.848 676.094 99.624V111H673.178V99.768C673.178 98.088 672.842 96.864 672.17 96.096C671.498 95.304 670.442 94.908 669.002 94.908C667.322 94.908 665.978 95.424 664.97 96.456C663.962 97.488 663.458 98.88 663.458 100.632V111H660.542V97.968C660.542 96.096 660.446 94.404 660.254 92.892H663.026L663.314 96.132C663.866 94.956 664.694 94.056 665.798 93.432C666.902 92.784 668.162 92.46 669.578 92.46ZM706.936 84.504V111H704.056V107.724C703.528 108.852 702.724 109.728 701.644 110.352C700.588 110.952 699.352 111.252 697.936 111.252C696.352 111.252 694.948 110.856 693.724 110.064C692.524 109.272 691.588 108.168 690.916 106.752C690.244 105.312 689.908 103.656 689.908 101.784C689.908 99.912 690.232 98.28 690.88 96.888C691.552 95.472 692.5 94.38 693.724 93.612C694.948 92.844 696.352 92.46 697.936 92.46C699.352 92.46 700.588 92.772 701.644 93.396C702.7 93.996 703.492 94.848 704.02 95.952V84.504H706.936ZM698.512 108.84C700.288 108.84 701.656 108.24 702.616 107.04C703.576 105.816 704.056 104.088 704.056 101.856C704.056 99.648 703.576 97.944 702.616 96.744C701.656 95.52 700.288 94.908 698.512 94.908C696.736 94.908 695.344 95.508 694.336 96.708C693.352 97.908 692.86 99.6 692.86 101.784C692.86 104.016 693.352 105.756 694.336 107.004C695.344 108.228 696.736 108.84 698.512 108.84ZM715.778 85.368V87.996C715.778 89.004 715.61 89.928 715.274 90.768C714.938 91.608 714.374 92.436 713.582 93.252L712.214 92.172C713.15 91.092 713.678 90.06 713.798 89.076H712.07V85.368H715.778ZM734.691 101.856H721.407C721.431 104.16 721.959 105.9 722.991 107.076C724.047 108.252 725.571 108.84 727.563 108.84C729.675 108.84 731.619 108.132 733.395 106.716L734.367 108.84C733.575 109.584 732.555 110.172 731.307 110.604C730.083 111.036 728.823 111.252 727.527 111.252C724.695 111.252 722.475 110.424 720.867 108.768C719.259 107.088 718.455 104.796 718.455 101.892C718.455 100.044 718.815 98.412 719.535 96.996C720.255 95.556 721.263 94.44 722.559 93.648C723.855 92.856 725.331 92.46 726.987 92.46C729.387 92.46 731.271 93.252 732.639 94.836C734.007 96.396 734.691 98.556 734.691 101.316V101.856ZM727.023 94.728C725.511 94.728 724.275 95.184 723.315 96.096C722.379 97.008 721.779 98.292 721.515 99.948H732.063C731.919 98.244 731.415 96.948 730.551 96.06C729.711 95.172 728.535 94.728 727.023 94.728ZM725.943 90.552L729.543 83.208H732.927L727.995 90.552H725.943ZM748.153 92.46C752.497 92.46 754.669 94.848 754.669 99.624V111H751.753V99.768C751.753 98.088 751.417 96.864 750.745 96.096C750.073 95.304 749.017 94.908 747.577 94.908C745.897 94.908 744.553 95.424 743.545 96.456C742.537 97.488 742.033 98.88 742.033 100.632V111H739.117V97.968C739.117 96.096 739.021 94.404 738.829 92.892H741.601L741.889 96.132C742.441 94.956 743.269 94.056 744.373 93.432C745.477 92.784 746.737 92.46 748.153 92.46ZM775.331 101.856H762.047C762.071 104.16 762.599 105.9 763.631 107.076C764.687 108.252 766.211 108.84 768.203 108.84C770.315 108.84 772.259 108.132 774.035 106.716L775.007 108.84C774.215 109.584 773.195 110.172 771.947 110.604C770.723 111.036 769.463 111.252 768.167 111.252C765.335 111.252 763.115 110.424 761.507 108.768C759.899 107.088 759.095 104.796 759.095 101.892C759.095 100.044 759.455 98.412 760.175 96.996C760.895 95.556 761.903 94.44 763.199 93.648C764.495 92.856 765.971 92.46 767.627 92.46C770.027 92.46 771.911 93.252 773.279 94.836C774.647 96.396 775.331 98.556 775.331 101.316V101.856ZM767.663 94.728C766.151 94.728 764.915 95.184 763.955 96.096C763.019 97.008 762.419 98.292 762.155 99.948H772.703C772.559 98.244 772.055 96.948 771.191 96.06C770.351 95.172 769.175 94.728 767.663 94.728ZM788.181 92.46C788.781 92.46 789.333 92.532 789.837 92.676L789.765 95.34C789.213 95.148 788.577 95.052 787.857 95.052C786.105 95.052 784.797 95.604 783.933 96.708C783.093 97.788 782.673 99.108 782.673 100.668V111H779.757V97.968C779.757 96.096 779.661 94.404 779.469 92.892H782.241L782.529 96.24C782.985 95.016 783.717 94.08 784.725 93.432C785.733 92.784 786.885 92.46 788.181 92.46ZM808.577 92.892V110.856C808.577 113.544 807.881 115.572 806.489 116.94C805.121 118.332 803.093 119.028 800.405 119.028C797.645 119.028 795.269 118.404 793.277 117.156L793.781 114.78C794.933 115.428 796.013 115.896 797.021 116.184C798.053 116.472 799.181 116.616 800.405 116.616C802.157 116.616 803.477 116.148 804.365 115.212C805.253 114.3 805.697 112.932 805.697 111.108V106.824C805.145 107.976 804.329 108.876 803.249 109.524C802.193 110.148 800.933 110.46 799.469 110.46C797.885 110.46 796.469 110.088 795.221 109.344C793.997 108.6 793.049 107.544 792.377 106.176C791.705 104.808 791.369 103.236 791.369 101.46C791.369 99.684 791.705 98.112 792.377 96.744C793.049 95.376 793.997 94.32 795.221 93.576C796.469 92.832 797.885 92.46 799.469 92.46C800.909 92.46 802.157 92.772 803.213 93.396C804.293 94.02 805.109 94.896 805.661 96.024V92.892H808.577ZM800.045 108.012C801.797 108.012 803.165 107.436 804.149 106.284C805.157 105.108 805.661 103.5 805.661 101.46C805.661 99.42 805.157 97.824 804.149 96.672C803.165 95.496 801.797 94.908 800.045 94.908C798.269 94.908 796.865 95.496 795.833 96.672C794.825 97.824 794.321 99.42 794.321 101.46C794.321 103.5 794.825 105.108 795.833 106.284C796.865 107.436 798.269 108.012 800.045 108.012ZM814.175 92.892H817.091V111H814.175V92.892ZM817.451 85.224V88.536H813.887V85.224H817.451ZM837.909 101.856H824.625C824.649 104.16 825.177 105.9 826.209 107.076C827.265 108.252 828.789 108.84 830.781 108.84C832.893 108.84 834.837 108.132 836.613 106.716L837.585 108.84C836.793 109.584 835.773 110.172 834.525 110.604C833.301 111.036 832.041 111.252 830.745 111.252C827.913 111.252 825.693 110.424 824.085 108.768C822.477 107.088 821.673 104.796 821.673 101.892C821.673 100.044 822.033 98.412 822.753 96.996C823.473 95.556 824.481 94.44 825.777 93.648C827.073 92.856 828.549 92.46 830.205 92.46C832.605 92.46 834.489 93.252 835.857 94.836C837.225 96.396 837.909 98.556 837.909 101.316V101.856ZM830.241 94.728C828.729 94.728 827.493 95.184 826.533 96.096C825.597 97.008 824.997 98.292 824.733 99.948H835.281C835.137 98.244 834.633 96.948 833.769 96.06C832.929 95.172 831.753 94.728 830.241 94.728Z" fill="#45396D"/>
        <circle r="7.5" transform="matrix(-1 0 0 1 418.5 187.5)" stroke="#45396D" stroke-width="2"/>
        <circle r="12" transform="matrix(-1 0 0 1 442 161)" stroke="#45396D" stroke-width="2"/>
        <circle r="4.5" transform="matrix(-1 0 0 1 400.5 206.5)" stroke="#45396D" stroke-width="2"/>
        <path d="M225.336 308.42C222.025 306.453 212.699 301.097 206.373 299.176C204.15 298.503 202.233 300.857 203.307 302.918C207.81 311.592 216.227 320.789 221.507 323.001C226.538 325.105 226.721 314.553 226.622 310.599C226.599 309.7 226.114 308.881 225.336 308.42Z" fill="#45396D"/>
        <path d="M282.123 370.984C282.123 370.984 291.877 374.133 287.073 364.466C282.269 354.799 252.585 318.313 223.618 308.02C218.545 307.385 214.188 310.83 217.786 317.621C221.385 324.413 244.936 351 258.949 359.882C272.961 368.763 282.123 370.984 282.123 370.984Z" fill="#FDECE0"/>
        <path d="M291.393 377.578C296.262 377.578 300.21 371.358 300.21 363.685C300.21 356.011 296.262 349.791 291.393 349.791C286.523 349.791 282.575 356.011 282.575 363.685C282.575 371.358 286.523 377.578 291.393 377.578Z" fill="#45396D"/>
        <path d="M449.664 308.42C452.975 306.453 462.301 301.097 468.627 299.176C470.85 298.503 472.767 300.857 471.693 302.918C467.19 311.592 458.773 320.789 453.493 323.001C448.463 325.105 448.279 314.553 448.378 310.599C448.402 309.7 448.887 308.881 449.664 308.42Z" fill="#45396D"/>
        <path d="M392.878 370.984C392.878 370.984 383.123 374.133 387.927 364.466C392.732 354.799 422.415 318.313 451.383 308.025C456.456 307.389 460.813 310.835 457.214 317.626C453.615 324.418 430.065 351.005 416.052 359.886C402.039 368.768 392.878 370.984 392.878 370.984Z" fill="#FDECE0"/>
        <path d="M383.608 377.578C388.478 377.578 392.425 371.358 392.425 363.685C392.425 356.011 388.478 349.791 383.608 349.791C378.738 349.791 374.791 356.011 374.791 363.685C374.791 371.358 378.738 377.578 383.608 377.578Z" fill="#45396D"/>
        <path d="M337.698 476.496C350.187 476.496 360.312 474.298 360.312 471.587C360.312 468.876 350.187 466.678 337.698 466.678C325.209 466.678 315.084 468.876 315.084 471.587C315.084 474.298 325.209 476.496 337.698 476.496Z" stroke="#3EE5B1" stroke-width="2" stroke-miterlimit="10"/>
        <path d="M337.698 474.124C339.022 474.049 340.317 473.38 341.127 472.138L353.049 453.843H322.348L334.269 472.138C335.079 473.38 336.375 474.049 337.698 474.124Z" fill="#FDECE0"/>
        <path d="M337.698 465.224C338.066 465.219 338.442 465.205 338.824 465.186C351.598 464.56 362.888 435.864 362.365 430.456C361.847 425.049 355.027 419.942 355.027 419.942H320.36C320.36 419.942 313.54 425.049 313.022 430.456C312.503 435.864 323.789 464.56 336.563 465.186C336.954 465.205 337.331 465.219 337.698 465.224Z" fill="#FFCDB6"/>
        <path d="M337.698 486.982C347.778 486.982 355.95 485.634 355.95 483.97C355.95 482.306 347.778 480.958 337.698 480.958C327.618 480.958 319.446 482.306 319.446 483.97C319.446 485.634 327.618 486.982 337.698 486.982Z" stroke="#3EE5B1" stroke-width="2" stroke-miterlimit="10"/>
        <path d="M337.698 496C343.083 496 347.448 494.98 347.448 493.722C347.448 492.464 343.083 491.444 337.698 491.444C332.313 491.444 327.948 492.464 327.948 493.722C327.948 494.98 332.313 496 337.698 496Z" stroke="#3EE5B1" stroke-width="2" stroke-miterlimit="10"/>
        <path d="M345.673 360.244H330.972V378.096H345.673V360.244Z" fill="#45396D"/>
        <path d="M337.698 431.647C349.771 431.647 359.558 418.248 359.558 401.718C359.558 385.189 349.771 371.789 337.698 371.789C325.625 371.789 315.838 385.189 315.838 401.718C315.838 418.248 325.625 431.647 337.698 431.647Z" fill="#45396D"/>
        <path d="M340.176 365.454L340.185 389.627V389.632C340.303 389.632 342.05 389.519 362.54 387.533C366.915 387.109 370.443 385.429 373.288 382.986C373.288 382.981 373.288 382.981 373.288 382.981C385.535 372.448 385.059 347.635 385.05 347.202C372.911 358.352 357.278 365.172 340.176 365.454Z" fill="#FFCDB6"/>
        <path d="M340.185 389.632C340.185 389.749 340.194 393.101 341.193 400.123C362.817 406.109 364.278 415.165 365.3 414.722C366.322 414.285 378.304 408.74 375.676 402.316C373.081 395.972 373.283 383.311 373.288 382.986C370.443 385.429 366.915 387.109 362.54 387.533C342.05 389.519 340.303 389.632 340.185 389.632Z" fill="#FDECE0"/>
        <path d="M337.698 211.536C338.07 211.531 338.447 211.526 338.824 211.526C378.088 211.526 409.919 245.988 409.919 288.497C409.919 312.025 400.169 333.083 384.805 347.197C384.805 347.197 384.805 347.197 384.805 347.202C372.666 358.352 357.033 365.172 339.931 365.454C339.563 365.459 339.191 365.464 338.824 365.464C338.447 365.464 338.075 365.459 337.698 365.454C337.326 365.459 336.949 365.464 336.572 365.464C336.205 365.464 335.833 365.459 335.466 365.454C318.363 365.172 302.73 358.352 290.592 347.202C290.592 347.197 290.592 347.197 290.592 347.197C275.227 333.083 265.477 312.025 265.477 288.497C265.477 245.988 297.308 211.526 336.572 211.526C336.949 211.526 337.326 211.531 337.698 211.536Z" fill="#FDECE0"/>
        <path d="M337.274 283.118C310.968 283.428 293.164 280.2 286.075 280.378C276.033 280.628 278.039 304.212 291.6 328.545C302.513 348.134 318.306 355.368 337.274 354.436H337.698C356.671 355.368 372.459 348.134 383.373 328.545C396.929 304.212 398.94 280.628 388.898 280.378C381.809 280.2 364.005 283.433 337.698 283.118H337.274Z" fill="#FFCDB6"/>
        <path d="M239.524 239.53L229.439 219.673C229.439 219.673 226.957 214.854 231.046 213.395L266.8 273.662L265.679 282.459L261.878 282.402L239.524 239.53Z" fill="#45396D"/>
        <path d="M239.524 239.53C239.816 240.114 259.811 299.581 259.811 299.581L263.687 281.381L239.524 239.53Z" fill="#FFCDB6"/>
        <path d="M268.708 317.899C268.708 317.899 259.905 310.731 259.811 298.16C259.717 285.589 263.682 281.376 263.682 281.376L268.708 317.899Z" fill="#FFCDB6"/>
        <path d="M274.567 326.093C274.567 326.093 270.39 327.505 268.034 314.835C265.679 302.165 263.211 280.91 263.645 278.152C264.078 275.394 263.414 272.975 266.532 271.916C269.65 270.852 274.567 326.093 274.567 326.093Z" fill="#45396D"/>
        <path d="M435.891 239.573L445.975 219.716C445.975 219.716 448.458 214.896 444.369 213.437L408.614 273.705L409.735 282.501L413.536 282.445L435.891 239.573Z" fill="#45396D"/>
        <path d="M435.891 239.573C435.599 240.156 415.604 299.624 415.604 299.624L411.728 281.423L435.891 239.573Z" fill="#FFCDB6"/>
        <path d="M406.707 317.946C406.707 317.946 415.51 310.778 415.604 298.207C415.698 285.636 411.732 281.423 411.732 281.423L406.707 317.946Z" fill="#FFCDB6"/>
        <path d="M400.847 326.136C400.847 326.136 405.025 327.548 407.38 314.878C409.735 302.208 412.203 280.953 411.77 278.195C411.337 275.437 412.001 273.017 408.883 271.958C405.765 270.895 400.847 326.136 400.847 326.136Z" fill="#45396D"/>
        <path d="M335.456 389.632C335.456 389.627 335.456 389.627 335.456 389.627C335.456 389.627 335.47 389.632 335.456 389.632Z" fill="#03A678"/>
        <path d="M335.466 365.454L335.456 389.627V389.632C335.339 389.632 333.591 389.519 313.102 387.533C308.726 387.109 305.198 385.429 302.353 382.986C302.353 382.981 302.353 382.981 302.353 382.981C290.107 372.448 290.582 347.635 290.592 347.202C302.73 358.352 318.363 365.172 335.466 365.454Z" fill="#FFCDB6"/>
        <path d="M335.456 389.632C335.456 389.749 335.447 393.101 334.448 400.123C312.824 406.109 311.364 415.165 310.342 414.722C309.32 414.285 297.337 408.74 299.965 402.316C302.56 395.972 302.358 383.311 302.353 382.986C305.198 385.429 308.726 387.109 313.102 387.533C333.591 389.519 335.339 389.632 335.456 389.632Z" fill="#FDECE0"/>
        <path d="M355.079 376.726C355.069 377.748 354.438 378.769 353.048 378.769C351.659 378.769 351.014 377.771 351.014 376.731C351.014 375.691 351.683 374.646 353.048 374.646C354.414 374.651 355.093 375.696 355.079 376.726ZM351.753 376.745C351.772 377.395 352.121 378.087 353.053 378.087C353.986 378.087 354.334 377.385 354.348 376.736C354.358 376.068 353.986 375.324 353.053 375.324C352.121 375.329 351.734 376.077 351.753 376.745Z" fill="#FDECE0"/>
        <path d="M357.424 376.359L358.475 374.726H359.374V374.759L357.796 377.046V378.68H357.052V377.046L355.531 374.759V374.726H356.416L357.424 376.359Z" fill="#FDECE0"/>
        <path d="M362.935 377.936H360.868L360.528 378.68H359.718L361.494 374.726H362.309L364.085 378.68H363.27L362.935 377.936ZM361.904 375.559L361.169 377.239H362.639L361.904 375.559Z" fill="#FDECE0"/>
        <path d="M315.085 311.785C307.836 311.785 303.012 312.802 299.993 313.828C298.25 314.421 296.63 312.651 297.37 310.966C299.659 305.756 304.736 298.306 315.085 298.306C325.433 298.306 330.515 305.756 332.799 310.966C333.539 312.647 331.919 314.416 330.176 313.828C327.157 312.807 322.333 311.785 315.085 311.785Z" fill="white"/>
        <path d="M361.903 311.785C354.654 311.785 349.831 312.802 346.812 313.828C345.069 314.421 343.449 312.651 344.188 310.966C346.478 305.756 351.555 298.306 361.903 298.306C372.252 298.306 377.334 305.756 379.618 310.966C380.358 312.647 378.738 314.416 376.995 313.828C373.976 312.807 369.152 311.785 361.903 311.785Z" fill="white"/>
        <path d="M355.557 175.246C355.41 174.741 354.777 174.645 354.424 175.044C348.641 181.55 340.265 182.806 337.94 190.804C336.438 195.965 338.008 200.013 339.01 201.9C339.044 201.959 339.078 202.009 339.115 202.047C337.328 209.595 337.701 213.256 338.138 214.84C338.301 215.429 338.952 215.731 339.514 215.492C339.992 215.286 340.236 214.752 340.081 214.252C339.552 212.554 338.075 208.616 340.198 201.244C341.893 196.26 343.887 193.671 345.469 192.322C347.051 191.065 348.281 190.867 348.281 190.867C344.462 195.331 343.354 200.601 343.043 203.295C342.917 204.329 343.656 205.254 344.684 205.342C352.053 205.964 355.746 200.122 357.274 192.977C358.591 186.816 356.455 178.364 355.557 175.246Z" fill="#04D99D"/>
        <rect x="551" y="689" width="306" height="72" rx="17" fill="#FFCDB6"/>
        <path d="M633.448 738.324C631.48 738.324 629.632 738.06 627.904 737.532C626.2 737.004 624.748 736.248 623.548 735.264L625.132 731.88C626.38 732.816 627.676 733.512 629.02 733.968C630.388 734.4 631.876 734.616 633.484 734.616C635.26 734.616 636.628 734.304 637.588 733.68C638.572 733.056 639.064 732.18 639.064 731.052C639.064 730.092 638.608 729.36 637.696 728.856C636.808 728.328 635.332 727.836 633.268 727.38C630.052 726.684 627.712 725.784 626.248 724.68C624.784 723.576 624.052 721.968 624.052 719.856C624.052 718.344 624.46 717 625.276 715.824C626.092 714.648 627.244 713.724 628.732 713.052C630.244 712.38 631.984 712.044 633.952 712.044C635.752 712.044 637.456 712.32 639.064 712.872C640.696 713.4 642.028 714.144 643.06 715.104L641.512 718.488C639.232 716.664 636.712 715.752 633.952 715.752C632.296 715.752 630.988 716.1 630.028 716.796C629.068 717.468 628.588 718.392 628.588 719.568C628.588 720.576 629.008 721.344 629.848 721.872C630.712 722.4 632.176 722.892 634.24 723.348C636.376 723.852 638.116 724.404 639.46 725.004C640.804 725.58 641.836 726.336 642.556 727.272C643.276 728.184 643.636 729.336 643.636 730.728C643.636 732.264 643.228 733.608 642.412 734.76C641.596 735.888 640.42 736.764 638.884 737.388C637.348 738.012 635.536 738.324 633.448 738.324ZM658.524 738.324C654.996 738.324 652.32 737.424 650.496 735.624C648.696 733.8 647.796 731.136 647.796 727.632V712.368H652.368V727.884C652.368 730.092 652.884 731.772 653.916 732.924C654.948 734.052 656.484 734.616 658.524 734.616C660.516 734.616 662.028 734.04 663.06 732.888C664.116 731.736 664.644 730.068 664.644 727.884V712.368H669.216V727.632C669.216 731.112 668.304 733.764 666.48 735.588C664.656 737.412 662.004 738.324 658.524 738.324ZM674.588 712.368H679.232V738H674.588V712.368ZM708.292 712.368L696.88 738H693.1L681.688 712.368H686.512L695.044 732.168L703.576 712.368H708.292ZM725.296 731.988H712.768L710.176 738H705.496L717.088 712.368H720.868L732.496 738H727.852L725.296 731.988ZM723.748 728.388L719.032 717.408L714.316 728.388H723.748ZM756.868 712.368V738H753.412L739.588 720.036V738H735.268V712.368H738.724L752.512 730.296V712.368H756.868ZM768.456 716.184H760.104V712.368H781.524V716.184H773.136V738H768.456V716.184Z" fill="white"/>
        <path d="M1156.12 644.065C1155.43 643.98 1154.95 644.749 1155.35 645.297C1156.48 646.836 1158.91 649.134 1163.64 649.917C1170.98 651.13 1175.23 644.867 1182.7 642.721C1183.16 642.592 1183.32 642.045 1182.98 641.73C1180.82 639.801 1174.84 634.817 1169.37 633.499C1163.03 631.967 1156.9 632.69 1154.56 638.868C1154.23 639.733 1154.68 640.684 1155.57 640.982C1157.86 641.771 1162.53 642.912 1167.59 641.56C1167.59 641.56 1165.56 645.197 1156.12 644.065Z" fill="#04D99D"/>
        <path d="M1101.99 620.911C1102.36 620.817 1102.45 620.327 1102.14 620.126C1101.25 619.563 1099.54 618.871 1096.96 619.417C1092.95 620.263 1092.03 624.326 1088.62 626.922C1088.41 627.08 1088.44 627.394 1088.68 627.485C1090.17 628.043 1094.24 629.403 1097.3 628.984C1100.86 628.501 1103.86 626.903 1103.83 623.264C1103.82 622.755 1103.4 622.359 1102.89 622.383C1101.56 622.436 1098.93 622.785 1096.6 624.493C1096.6 624.493 1096.92 622.221 1101.99 620.911Z" fill="#04D99D"/>
        <path d="M1137.63 612.715C1137.41 613.02 1137.65 613.449 1138.02 613.402C1139.05 613.265 1140.77 612.71 1142.38 610.665C1144.88 607.494 1143.01 603.837 1143.94 599.724C1144 599.472 1143.78 599.25 1143.54 599.334C1142.06 599.856 1138.13 601.395 1136.07 603.651C1133.69 606.264 1132.43 609.368 1134.75 612.099C1135.08 612.481 1135.65 612.512 1136.02 612.171C1137 611.288 1138.76 609.366 1139.44 606.603C1139.44 606.603 1140.64 608.52 1137.63 612.715Z" fill="#03A678"/>
        <path d="M1083.16 575.787C1083.92 576.426 1085.1 575.883 1085.04 574.913C1084.89 572.186 1083.79 567.535 1078.74 562.892C1070.91 555.698 1060.93 559.864 1050.31 556.581C1049.66 556.376 1049.03 556.9 1049.2 557.55C1050.28 561.548 1053.52 572.19 1059.03 578.048C1065.42 584.842 1073.31 588.777 1080.96 583.226C1082.03 582.448 1082.23 580.953 1081.41 579.906C1079.28 577.169 1074.59 572.148 1067.47 569.798C1067.47 569.798 1072.75 567.037 1083.16 575.787Z" fill="#025949"/>
        <circle cx="-70.5" cy="566.5" r="215.5" fill="#FDECE0"/>
        <circle cx="1220.5" cy="266.5" r="123.5" fill="#FFCDB6"/>
        <circle cx="607.5" cy="417.5" r="36.5" fill="white" stroke="#04D99D" stroke-width="2"/>
        <path d="M612.465 417.501C612.465 414.926 610.606 412.771 608.143 412.276V399.681H605.977V412.274C603.512 412.769 601.653 414.924 601.653 417.499C601.653 420.074 603.514 422.231 605.977 422.726V435.402H608.143V422.726C610.606 422.231 612.465 420.076 612.465 417.501Z" fill="#3EE5B1"/>
        <path d="M629.754 426.065H626.626C625.212 426.065 624.063 424.93 624.063 423.536V411.466C624.063 410.07 625.214 408.935 626.626 408.935H629.754V426.065Z" fill="#3EE5B1"/>
        <path d="M590.054 423.536C590.054 424.93 588.904 426.065 587.492 426.065H584.361V408.935H587.49C588.904 408.935 590.052 410.07 590.052 411.466V423.536H590.054Z" fill="#3EE5B1"/>
        <path d="M624.167 436.471H589.948C585.761 436.471 582.353 433.111 582.353 428.978V406.024C582.353 401.891 585.761 398.529 589.948 398.529H624.167C628.355 398.529 631.765 401.891 631.765 406.024V428.978C631.765 433.111 628.357 436.471 624.167 436.471ZM589.948 400.667C586.954 400.667 584.519 403.071 584.519 406.024V428.978C584.519 431.931 586.954 434.333 589.948 434.333H624.167C627.161 434.333 629.598 431.931 629.598 428.978V406.024C629.598 403.071 627.164 400.667 624.167 400.667H589.948Z" fill="#FFCDB6"/>
        <circle cx="607.5" cy="522.5" r="36.5" fill="white" stroke="#04D99D" stroke-width="2"/>
        <path d="M609.658 547.5C609.656 547.5 609.651 547.5 609.649 547.5C608.99 547.495 608.425 547.006 608.301 546.333L604.775 527.353L602.594 532.828C602.38 533.366 601.875 533.715 601.315 533.715H593.883C593.119 533.715 592.5 533.071 592.5 532.276C592.5 531.482 593.119 530.837 593.883 530.837H600.39L603.981 521.823C604.215 521.236 604.792 520.881 605.399 520.943C606.005 521.008 606.503 521.479 606.617 522.103L609.713 538.771L615.433 510.394C615.564 509.74 616.112 509.268 616.751 509.25C617.4 509.237 617.959 509.677 618.123 510.325L623.313 530.834H628.617C629.381 530.834 630 531.479 630 532.274C630 533.068 629.381 533.713 628.617 533.713H622.246C621.617 533.713 621.068 533.273 620.908 532.639L616.937 516.946L611.009 546.356C610.877 547.024 610.313 547.5 609.658 547.5Z" fill="#FFCDB6"/>
        <path d="M598.645 523.5H592.355C591.607 523.5 591 522.828 591 522C591 521.172 591.607 520.5 592.355 520.5H598.645C599.393 520.5 600 521.172 600 522C600 522.828 599.393 523.5 598.645 523.5Z" fill="#3EE5B1"/>
        <path d="M608.384 515.25H592.366C591.612 515.25 591 514.578 591 513.75C591 512.922 591.612 512.25 592.366 512.25H608.384C609.138 512.25 609.75 512.922 609.75 513.75C609.752 514.578 609.141 515.25 608.384 515.25Z" fill="#3EE5B1"/>
        <path d="M608.384 507H592.366C591.612 507 591 506.329 591 505.501C591 504.674 591.612 504 592.366 504H608.384C609.138 504 609.75 504.671 609.75 505.499C609.75 506.326 609.141 507 608.384 507Z" fill="#3EE5B1"/>
        <path d="M586.5 507C587.328 507 588 506.328 588 505.5C588 504.672 587.328 504 586.5 504C585.672 504 585 504.672 585 505.5C585 506.328 585.672 507 586.5 507Z" fill="#FFCDB6"/>
        <path d="M586.5 515.25C587.328 515.25 588 514.578 588 513.75C588 512.922 587.328 512.25 586.5 512.25C585.672 512.25 585 512.922 585 513.75C585 514.578 585.672 515.25 586.5 515.25Z" fill="#FFCDB6"/>
        <path d="M586.5 523.5C587.328 523.5 588 522.828 588 522C588 521.172 587.328 520.5 586.5 520.5C585.672 520.5 585 521.172 585 522C585 522.828 585.672 523.5 586.5 523.5Z" fill="#FFCDB6"/>
        <circle cx="607.5" cy="627.5" r="36.5" fill="white" stroke="#04D99D" stroke-width="2"/>
        <path d="M593.689 654.412C591.674 654.412 589.744 653.29 588.992 651.419C587.874 648.648 585.894 646.423 582.704 645.658C581.633 645.402 580.825 644.84 580.626 643.686C580.427 642.53 581.049 641.775 581.93 641.127C583.452 640.008 585.246 639.477 586.943 638.744C589.782 637.521 592.647 636.361 595.499 635.173C596.964 634.563 597.444 632.617 596.329 631.485C594.937 630.073 594.166 628.407 593.926 626.477C593.863 625.965 593.673 625.608 593.266 625.295C592.296 624.549 591.724 623.528 591.598 622.327C591.412 620.555 591.371 618.772 591.649 616.999C591.807 615.985 592.268 615.097 593.057 614.484C593.758 613.941 593.923 613.312 593.894 612.5C593.818 610.36 594.1 608.278 595.227 606.404C596.999 603.455 599.608 601.749 603.044 601.553C605.511 601.411 607.99 601.49 610.464 601.518C615.817 601.578 619.974 605.658 620.188 611.027C620.204 611.428 620.226 611.83 620.195 612.228C620.119 613.138 620.277 613.874 621.041 614.494C621.815 615.122 622.349 616.042 622.466 617.034C622.684 618.918 622.725 620.811 622.425 622.694C622.282 623.588 621.888 624.397 621.19 624.944C620.469 625.51 620.176 626.173 620.068 627.055C619.863 628.73 619.096 630.139 617.902 631.343C616.724 632.531 617.106 634.538 618.65 635.183C622.339 636.728 626.038 638.261 629.73 639.8C630.741 640.22 631.71 640.713 632.566 641.411C633.302 642.015 633.656 642.776 633.489 643.721C633.321 644.676 632.702 645.276 631.793 645.529C630.276 645.952 628.814 646.442 627.592 647.51C626.332 648.61 625.52 649.924 624.983 651.369C624.272 653.277 622.292 654.412 620.258 654.412H593.689Z" fill="#FFCDB6"/>
        <circle cx="607.5" cy="208.5" r="36.5" fill="white" stroke="#04D99D" stroke-width="2"/>
        <path d="M590.692 231C594.322 231 597.266 228.066 597.266 224.447C597.266 220.828 594.322 217.894 590.692 217.894C587.061 217.894 584.118 220.828 584.118 224.447C584.118 228.066 587.061 231 590.692 231Z" fill="#FFCDB6"/>
        <path d="M623.157 199.988C626.788 199.988 629.731 197.054 629.731 193.435C629.731 189.816 626.788 186.882 623.157 186.882C619.526 186.882 616.583 189.816 616.583 193.435C616.583 197.054 619.526 199.988 623.157 199.988Z" fill="#FFCDB6"/>
        <path d="M591.276 215.901C592.359 215.901 593.237 215.026 593.237 213.946C593.237 212.866 592.359 211.991 591.276 211.991C590.192 211.991 589.314 212.866 589.314 213.946C589.314 215.026 590.192 215.901 591.276 215.901Z" fill="#FFCDB6"/>
        <path d="M592.876 209.8C593.959 209.8 594.838 208.925 594.838 207.845C594.838 206.765 593.959 205.889 592.876 205.889C591.792 205.889 590.914 206.765 590.914 207.845C590.914 208.925 591.792 209.8 592.876 209.8Z" fill="#FFCDB6"/>
        <path d="M597.947 206.025C599.03 206.025 599.908 205.15 599.908 204.07C599.908 202.99 599.03 202.115 597.947 202.115C596.863 202.115 595.985 202.99 595.985 204.07C595.985 205.15 596.863 206.025 597.947 206.025Z" fill="#FFCDB6"/>
        <path d="M604.7 204.895C605.783 204.895 606.662 204.02 606.662 202.94C606.662 201.86 605.783 200.984 604.7 200.984C603.617 200.984 602.738 201.86 602.738 202.94C602.738 204.02 603.617 204.895 604.7 204.895Z" fill="#FFCDB6"/>
        <path d="M611.052 204.895C612.135 204.895 613.013 204.02 613.013 202.94C613.013 201.86 612.135 200.984 611.052 200.984C609.968 200.984 609.09 201.86 609.09 202.94C609.09 204.02 609.968 204.895 611.052 204.895Z" fill="#FFCDB6"/>
        <path d="M617.044 203.247C618.127 203.247 619.006 202.372 619.006 201.292C619.006 200.212 618.127 199.336 617.044 199.336C615.96 199.336 615.082 200.212 615.082 201.292C615.082 202.372 615.96 203.247 617.044 203.247Z" fill="#FFCDB6"/>
        <path d="M598.107 193.435L600.554 190.996C600.91 190.641 600.91 190.061 600.554 189.706C600.198 189.351 599.616 189.351 599.26 189.706L596.813 192.145L594.366 189.706C594.01 189.351 593.428 189.351 593.072 189.706C592.715 190.061 592.715 190.641 593.072 190.996L595.518 193.435L593.072 195.874C592.715 196.229 592.715 196.809 593.072 197.164C593.251 197.343 593.484 197.432 593.72 197.432C593.953 197.432 594.189 197.343 594.369 197.164L596.815 194.726L599.262 197.164C599.442 197.343 599.675 197.432 599.911 197.432C600.144 197.432 600.38 197.343 600.559 197.164C600.916 196.809 600.916 196.229 600.559 195.874L598.107 193.435Z" fill="#3EE5B1"/>
        <path d="M608.819 220.114L611.266 217.675C611.622 217.32 611.622 216.74 611.266 216.385C610.909 216.03 610.328 216.03 609.971 216.385L607.525 218.824L605.078 216.385C604.721 216.03 604.14 216.03 603.783 216.385C603.427 216.74 603.427 217.32 603.783 217.675L606.23 220.114L603.783 222.553C603.427 222.908 603.427 223.488 603.783 223.843C603.963 224.022 604.196 224.111 604.432 224.111C604.665 224.111 604.901 224.022 605.081 223.843L607.527 221.404L609.974 223.843C610.154 224.022 610.387 224.111 610.623 224.111C610.859 224.111 611.092 224.022 611.271 223.843C611.628 223.488 611.628 222.908 611.271 222.553L608.819 220.114Z" fill="#3EE5B1"/>
        <circle cx="799.5" cy="312.5" r="36.5" fill="white" stroke="#04D99D" stroke-width="2"/>
        <path d="M805.373 329.06L801.884 317.953C801.147 315.603 797.856 315.603 797.118 317.953L793.629 329.06C793.118 330.69 794.321 332.353 796.012 332.353H802.99C804.681 332.35 805.884 330.69 805.373 329.06Z" fill="#3EE5B1"/>
        <path d="M827.968 323.47C827.874 323.47 827.775 323.457 827.681 323.432L770.748 307.795C770.165 307.636 769.822 307.029 769.98 306.44C770.14 305.851 770.75 305.509 771.32 305.664L828.253 321.3C828.835 321.46 829.178 322.066 829.021 322.655C828.889 323.146 828.449 323.47 827.968 323.47Z" fill="#FFCDB6"/>
        <path d="M782.326 299.038C782.12 299.038 781.916 299.018 781.71 298.977C780.884 298.815 780.167 298.336 779.696 297.627C779.223 296.92 779.053 296.066 779.216 295.231C779.549 293.503 781.21 292.377 782.921 292.703C784.632 293.045 785.751 294.724 785.418 296.452V296.454C785.255 297.293 784.782 298.018 784.081 298.493C783.554 298.851 782.946 299.038 782.326 299.038Z" fill="#FFCDB6"/>
        <path d="M780.531 309.597C777.802 309.597 775.584 307.353 775.584 304.597C775.584 301.841 777.805 299.596 780.531 299.596C783.257 299.596 785.479 301.838 785.479 304.594C785.479 307.35 783.259 309.597 780.531 309.597Z" fill="#FFCDB6"/>
        <path d="M818.946 309.484C818.913 309.484 818.877 309.482 818.841 309.482C818 309.453 817.214 309.098 816.637 308.474C816.059 307.852 815.754 307.039 815.782 306.186C815.807 305.332 816.161 304.54 816.779 303.957C817.394 303.373 818.18 303.093 819.042 303.09C819.884 303.118 820.67 303.473 821.247 304.098C821.824 304.72 822.129 305.533 822.101 306.386C822.076 307.24 821.723 308.032 821.105 308.615C820.517 309.178 819.752 309.484 818.946 309.484Z" fill="#FFCDB6"/>
        <path d="M818.556 320.221C817.527 320.221 816.525 319.894 815.675 319.274C814.605 318.49 813.895 317.336 813.684 316.017C813.473 314.698 813.781 313.377 814.554 312.292C815.327 311.207 816.471 310.492 817.773 310.279C819.073 310.06 820.387 310.379 821.458 311.158C822.529 311.939 823.238 313.096 823.449 314.415C823.66 315.734 823.353 317.056 822.579 318.141C821.806 319.226 820.662 319.94 819.36 320.154C819.093 320.2 818.823 320.221 818.556 320.221Z" fill="#FFCDB6"/>
        <circle cx="1132.5" cy="353.5" r="54.5" fill="#FDECE0"/>
        <circle cx="1343.5" cy="141.5" r="24.5" fill="#03A678"/>
        <circle cx="88.5" cy="41.5" r="17.5" fill="#FFCDB6"/>
        <path d="M88.5 34V49" stroke="white" stroke-width="2" stroke-miterlimit="10" stroke-linecap="round"/>
        <path d="M96 41.5H81" stroke="white" stroke-width="2" stroke-miterlimit="10" stroke-linecap="round"/>
        <circle cx="185.5" cy="41.5" r="17.5" fill="#FFCDB6"/>
        <path d="M180 34L176 39L180 44" stroke="white" stroke-width="2" stroke-linecap="round" stroke-linejoin="round"/>
        <path d="M176.5 39H188.5C191.261 39 193.5 41.2386 193.5 44V44C193.5 46.7614 191.261 49 188.5 49H186" stroke="white" stroke-width="2" stroke-linecap="round"/>
        <circle cx="137.5" cy="41.5" r="17.5" fill="#FFCDB6"/>
        <path d="M146.584 42.4397L148.803 40.2209C149.066 39.9577 149.066 39.5314 148.803 39.2681C148.539 39.0049 148.113 39.0049 147.85 39.2681L145.631 41.4869L143.412 39.2681C143.149 39.0049 142.723 39.0049 142.46 39.2681C142.196 39.5314 142.196 39.9577 142.46 40.2209L144.678 42.4397L142.46 44.6584C142.196 44.9216 142.196 45.348 142.46 45.6112C142.723 45.8745 143.149 45.8745 143.412 45.6112L145.631 43.3925L147.85 45.6112C148.113 45.8745 148.539 45.8745 148.803 45.6112C149.066 45.348 149.066 44.9216 148.803 44.6584L146.584 42.4397Z" fill="white"/>
        <path d="M139.659 30.194C138.941 29.8576 138.117 29.964 137.508 30.4717L131.82 35.2115H128.021C126.907 35.2115 126 36.1185 126 37.233V45.7674C126 46.882 126.907 47.7889 128.021 47.7889H131.82L137.508 52.5287C138.117 53.0368 138.942 53.1424 139.659 52.8064C140.377 52.4699 140.823 51.7686 140.823 50.9758V32.0247C140.823 31.2318 140.377 30.5301 139.659 30.194ZM131.39 46.4498H128.021C127.65 46.4498 127.348 46.1385 127.348 45.767V37.233C127.348 36.8615 127.65 36.5592 128.021 36.5592H131.39V46.4498ZM139.476 50.9758C139.476 51.3733 139.179 51.5431 139.088 51.5858C138.996 51.6285 138.676 51.748 138.371 51.4933L132.738 46.7993V36.2007L138.371 31.5067C138.676 31.252 138.997 31.3715 139.088 31.4142C139.179 31.4568 139.476 31.6266 139.476 32.0242V50.9758Z" fill="white"/>
        <path d="M28.8072 58.1173C25.8812 56.4689 23.3991 54.0969 21.6435 51.2625C22.3094 45.855 23.0964 40.9903 24.0045 38.5177C22.9955 40.8295 21.4821 44.6489 20.352 48.7698C19.7265 47.3426 19.2825 45.855 19 44.2871C20.352 41.2516 22.0269 38.8796 24.065 36.7689C24.4484 36.3668 24.7511 36.206 25.0336 36.2261C25.3161 36.2462 25.5785 36.4874 25.8812 36.9699C28.1009 40.6687 29.4327 44.669 29.6749 49.011C29.7556 50.3177 29.4731 54.7803 28.8072 58.1173Z" fill="#45396D"/>
        <path d="M30.8249 35.3215C28.242 36.5879 25.1142 35.5627 23.8025 32.9897C22.4707 30.4568 23.52 27.2203 26.0424 25.9338C28.6254 24.6272 31.7128 25.6725 33.0648 28.2657C34.3765 30.8789 33.3877 34.035 30.8249 35.3215Z" fill="#45396D"/>
        <path d="M32.6011 38.8595C32.5204 36.5879 34.4374 34.5777 36.6975 34.5375C38.998 34.4772 40.9352 36.3467 40.9553 38.6585C40.9957 41.0506 39.2805 42.8598 36.8993 42.9603C34.6594 43.0206 32.6616 41.131 32.6011 38.8595Z" fill="#45396D"/>
        <path d="M32.0762 44.5886C32.2377 43.8448 32.3789 43.3824 32.6009 43.1412C32.6009 43.1412 33.6301 53.9159 35.8094 60.4893C35.7287 60.4893 35.6682 60.4692 35.5875 60.4491C35.5673 60.4692 35.5471 60.4491 35.5269 60.4491C35.0023 60.228 34.4978 60.0069 33.9933 59.7657C33.3274 58.9415 32.8431 57.9766 32.5202 56.9112C31.8139 54.6999 31.5112 52.4284 31.4507 50.3378C31.491 48.2271 31.6928 46.4179 32.0762 44.5886Z" fill="#45396D"/>
        <path d="M40.6526 60.5497C37.8679 56.5493 33.5293 49.5337 32.6011 43.1412C32.9239 42.7794 33.4083 42.9804 34.3567 43.6036C40.2894 47.5034 43.7199 52.9109 45.1325 59.5647C43.6997 60.0471 42.2065 60.3888 40.6526 60.5497Z" fill="#45396D"/>
        <path d="M40.9347 30.6176C39.6231 28.0646 40.6522 24.8483 43.1747 23.5618C44.6074 22.8381 46.2217 22.8381 47.5738 23.4211C47.7957 23.5216 47.9975 23.6422 48.1993 23.7628C49.0267 24.2653 49.7128 24.989 50.1971 25.8936C51.5289 28.4868 50.5401 31.6428 47.9773 32.9092C45.4146 34.2159 42.2666 33.1907 40.9347 30.6176Z" fill="#45396D"/>
        <path d="M53.9102 53.3129C55.4236 46.1163 55.464 37.9549 55.3429 33.5324C55.121 40.5883 52.0739 50.6996 49.8945 57.0921C48.9057 57.7957 47.8564 58.3987 46.7465 58.9013C46.1008 55.9865 44.9909 53.2124 43.5178 50.4986C42.2667 48.207 42.2062 45.7545 43.3564 43.3422C45.7779 38.2966 48.9864 34.1556 53.5268 30.7784C54.0918 30.3563 54.5559 30.1955 54.899 30.296C55.0806 30.3563 55.2017 30.4769 55.3429 30.6779C55.4842 30.8789 55.6254 31.1202 55.8071 31.4016C56.0088 31.7232 56.2106 32.0449 56.3721 32.4067C56.5335 32.7283 56.6748 33.0701 56.816 33.3917C56.9573 33.7334 57.0784 34.0752 57.2196 34.4169C57.3205 34.7385 57.4416 35.0803 57.5425 35.422C57.5627 35.4823 57.5828 35.5225 57.603 35.5828C57.6837 35.8844 57.7645 36.1859 57.8452 36.5075C57.9259 36.8694 58.0066 37.2111 58.0671 37.593C58.2488 38.6987 58.3497 39.8043 58.3497 40.9702C58.3093 45.6339 56.6546 49.9357 53.9102 53.3129Z" fill="#45396D"/>
        <path d="M28.8072 58.1173C25.8812 56.4689 23.3991 54.0969 21.6435 51.2625C22.3094 45.855 23.0964 40.9903 24.0045 38.5177C22.9955 40.8295 21.4821 44.6489 20.352 48.7698C19.7265 47.3426 19.2825 45.855 19 44.2871C20.352 41.2516 22.0269 38.8796 24.065 36.7689C24.4484 36.3668 24.7511 36.206 25.0336 36.2261C25.3161 36.2462 25.5785 36.4874 25.8812 36.9699C28.1009 40.6687 29.4327 44.669 29.6749 49.011C29.7556 50.3177 29.4731 54.7803 28.8072 58.1173Z" fill="#04D99D"/>
        <path d="M53.9102 53.3129C55.4236 46.1163 55.464 37.9549 55.3429 33.5324C55.121 40.5883 52.0739 50.6996 49.8945 57.0921C48.9057 57.7957 47.8564 58.3987 46.7465 58.9013C46.1008 55.9865 44.9909 53.2124 43.5178 50.4986C42.2667 48.207 42.2062 45.7545 43.3564 43.3422C45.7779 38.2966 48.9864 34.1556 53.5268 30.7784C54.0918 30.3563 54.5559 30.1955 54.899 30.296C55.0806 30.3563 55.2017 30.4769 55.3429 30.6779C55.4842 30.8789 55.6254 31.1202 55.8071 31.4016C56.0088 31.7232 56.2106 32.0449 56.3721 32.4067C56.5335 32.7283 56.6748 33.0701 56.816 33.3917C56.9573 33.7334 57.0784 34.0752 57.2196 34.4169C57.3205 34.7385 57.4416 35.0803 57.5425 35.422C57.5627 35.4823 57.5828 35.5225 57.603 35.5828C57.6837 35.8844 57.7645 36.1859 57.8452 36.5075C57.9259 36.8694 58.0066 37.2111 58.0671 37.593C58.2488 38.6987 58.3497 39.8043 58.3497 40.9702C58.3093 45.6339 56.6546 49.9357 53.9102 53.3129Z" fill="#04D99D"/>
        <path d="M35.8096 60.5496C35.7289 60.5094 35.6482 60.4893 35.5674 60.4491C35.5473 60.4692 35.5271 60.4491 35.5069 60.4491C34.9822 60.228 34.4778 60.0069 33.9733 59.7657C33.3073 58.9415 32.823 57.9766 32.5002 56.9112C31.7939 54.6999 31.4912 52.4284 31.4307 50.3378C31.471 48.2271 31.6728 46.4179 32.0562 44.5886C32.2177 43.8448 32.3589 43.3824 32.5809 43.1412C32.5809 43.1412 33.61 53.9159 35.7894 60.4893C35.7894 60.4893 35.8096 60.5295 35.8096 60.5496Z" fill="#04D99D"/>
        <path d="M45.112 59.5445C43.6994 60.0471 42.1859 60.3888 40.6321 60.5497C37.8474 56.5493 33.5088 49.5337 32.5806 43.1412C32.9034 42.7794 33.3877 42.9804 34.3362 43.6036C40.2891 47.5034 43.6994 52.9109 45.112 59.5445Z" fill="#04D99D"/>
        <path d="M47.9773 32.9294C45.3944 34.236 42.2464 33.1907 40.9347 30.6377C39.6231 28.0848 40.6522 24.8684 43.1747 23.5819C44.6074 22.8582 46.2217 22.8582 47.5738 23.4412C47.7957 23.5417 47.9975 23.6623 48.1993 23.7829C49.0267 24.2855 49.7128 25.0091 50.1971 25.9137C51.5289 28.5069 50.5401 31.6428 47.9773 32.9294Z" fill="#FFCDB6"/>
        <path d="M30.8249 35.3215C28.242 36.5879 25.1142 35.5627 23.8025 32.9897C22.4707 30.4568 23.52 27.2203 26.0424 25.9338C28.6254 24.6272 31.7128 25.6725 33.0648 28.2657C34.3765 30.8789 33.3877 34.035 30.8249 35.3215Z" fill="#FFCDB6"/>
        <path d="M40.9553 38.6585C40.9957 41.0506 39.2805 42.8598 36.8993 42.9603C34.6594 43.0407 32.6818 41.1511 32.6011 38.8595C32.5204 36.5879 34.4374 34.5777 36.6975 34.5375C38.998 34.4973 40.9352 36.3467 40.9553 38.6585Z" fill="#FFCDB6"/>
    </g>
    <defs>
        <linearGradient id="paint0_linear" x1="-757" y1="387.497" x2="761.993" y2="387.497" gradientUnits="userSpaceOnUse">
            <stop stop-color="white"/>
            <stop offset="1" stop-color="#FDECE0"/>
        </linearGradient>
        <linearGradient id="paint1_linear" x1="-511" y1="434.497" x2="610.995" y2="434.497" gradientUnits="userSpaceOnUse">
            <stop stop-color="white"/>
            <stop offset="1" stop-color="#FDECE0"/>
        </linearGradient>
        <clipPath id="clip0">
            <rect width="1440" height="800" fill="white"/>
        </clipPath>
    </defs>
</svg>
