<svg width="1440" height="800" viewBox="0 0 1440 800" fill="none" xmlns="http://www.w3.org/2000/svg">
    <g clip-path="url(#clip0)">
        <rect width="1440" height="800" fill="white"/>
        <path d="M1949.7 -1587C1949.7 -1579.98 96 772.337 96 772.337H928.278L1949.7 -1587Z" fill="url(#paint0_linear)" fill-opacity="0.5"/>
        <path d="M1689 -1410C1689 -1403.51 299 770 299 770H923.086L1689 -1410Z" fill="url(#paint1_linear)" fill-opacity="0.5"/>
        <path d="M1009.5 409C1021.93 409 1032 407.433 1032 405.5C1032 403.567 1021.93 402 1009.5 402C997.074 402 987 403.567 987 405.5C987 407.433 997.074 409 1009.5 409Z" stroke="#3EE5B1" stroke-width="2" stroke-miterlimit="10"/>
        <path d="M1009.5 422C1018.06 422 1025 420.433 1025 418.5C1025 416.567 1018.06 415 1009.5 415C1000.94 415 994 416.567 994 418.5C994 420.433 1000.94 422 1009.5 422Z" stroke="#3EE5B1" stroke-width="2" stroke-miterlimit="10"/>
        <path d="M1010.5 343C998.073 343 988 353.008 988 365.352C988 371.666 994.196 382.984 994.196 382.984L1007.48 405.531C1008.48 407.219 1010.91 407.249 1011.95 405.585L1025.82 383.291C1025.82 383.291 1033 372.493 1033 365.352C1032.99 353.008 1022.92 343 1010.5 343ZM1010.4 377.668C1003.02 377.668 997.105 371.478 997.542 364.001C997.919 357.587 1003.12 352.353 1009.53 351.934C1017.04 351.444 1023.28 357.38 1023.28 364.78C1023.28 371.902 1017.51 377.668 1010.4 377.668Z" fill="#04D99D"/>
        <circle cx="210" cy="45" r="299" fill="#FDECE0"/>
        <rect x="567" y="416" width="306" height="72" rx="17" fill="#FFCDB6"/>
        <path d="M631.4 465.324C628.88 465.324 626.672 464.784 624.776 463.704C622.904 462.624 621.464 461.1 620.456 459.132C619.448 457.14 618.944 454.812 618.944 452.148C618.944 449.508 619.448 447.204 620.456 445.236C621.464 443.244 622.904 441.72 624.776 440.664C626.672 439.584 628.88 439.044 631.4 439.044C633.128 439.044 634.748 439.32 636.26 439.872C637.796 440.4 639.068 441.144 640.076 442.104L638.564 445.488C637.412 444.552 636.26 443.88 635.108 443.472C633.98 443.04 632.768 442.824 631.472 442.824C629 442.824 627.08 443.628 625.712 445.236C624.368 446.844 623.696 449.148 623.696 452.148C623.696 455.172 624.368 457.5 625.712 459.132C627.056 460.74 628.976 461.544 631.472 461.544C632.768 461.544 633.98 461.34 635.108 460.932C636.26 460.5 637.412 459.816 638.564 458.88L640.076 462.264C639.068 463.224 637.796 463.98 636.26 464.532C634.748 465.06 633.128 465.324 631.4 465.324ZM651.985 465.288C650.137 465.288 648.505 464.904 647.089 464.136C645.697 463.368 644.617 462.276 643.849 460.86C643.105 459.42 642.733 457.74 642.733 455.82C642.733 453.9 643.105 452.232 643.849 450.816C644.617 449.376 645.697 448.272 647.089 447.504C648.505 446.736 650.137 446.352 651.985 446.352C653.809 446.352 655.417 446.736 656.809 447.504C658.201 448.272 659.269 449.376 660.013 450.816C660.781 452.232 661.165 453.9 661.165 455.82C661.165 457.74 660.781 459.42 660.013 460.86C659.269 462.276 658.201 463.368 656.809 464.136C655.417 464.904 653.809 465.288 651.985 465.288ZM651.949 461.76C653.485 461.76 654.649 461.268 655.441 460.284C656.257 459.276 656.665 457.788 656.665 455.82C656.665 453.876 656.257 452.4 655.441 451.392C654.625 450.36 653.473 449.844 651.985 449.844C650.473 449.844 649.309 450.36 648.493 451.392C647.677 452.4 647.269 453.876 647.269 455.82C647.269 457.788 647.665 459.276 648.457 460.284C649.273 461.268 650.437 461.76 651.949 461.76ZM682.434 438.504V465H678.006V462.084C677.454 463.092 676.662 463.884 675.63 464.46C674.598 465.012 673.422 465.288 672.102 465.288C670.542 465.288 669.15 464.892 667.926 464.1C666.702 463.308 665.742 462.192 665.046 460.752C664.374 459.288 664.038 457.62 664.038 455.748C664.038 453.876 664.374 452.232 665.046 450.816C665.718 449.4 666.666 448.308 667.89 447.54C669.114 446.748 670.518 446.352 672.102 446.352C673.398 446.352 674.55 446.628 675.558 447.18C676.59 447.708 677.382 448.464 677.934 449.448V438.504H682.434ZM673.29 461.76C674.778 461.76 675.93 461.244 676.746 460.212C677.586 459.18 678.006 457.716 678.006 455.82C678.006 453.924 677.598 452.46 676.782 451.428C675.966 450.396 674.814 449.88 673.326 449.88C671.814 449.88 670.638 450.396 669.798 451.428C668.982 452.436 668.574 453.876 668.574 455.748C668.574 457.644 668.982 459.12 669.798 460.176C670.638 461.232 671.802 461.76 673.29 461.76ZM703.247 456.144H690.719C690.815 458.088 691.295 459.528 692.159 460.464C693.047 461.376 694.355 461.832 696.083 461.832C698.075 461.832 699.923 461.184 701.627 459.888L702.923 462.984C702.059 463.68 700.991 464.244 699.719 464.676C698.471 465.084 697.199 465.288 695.903 465.288C692.927 465.288 690.587 464.448 688.883 462.768C687.179 461.088 686.327 458.784 686.327 455.856C686.327 454.008 686.699 452.364 687.443 450.924C688.187 449.484 689.231 448.368 690.575 447.576C691.919 446.76 693.443 446.352 695.147 446.352C697.643 446.352 699.611 447.168 701.051 448.8C702.515 450.408 703.247 452.628 703.247 455.46V456.144ZM695.255 449.592C694.055 449.592 693.071 449.952 692.303 450.672C691.559 451.368 691.079 452.388 690.863 453.732H699.323C699.179 452.364 698.759 451.332 698.063 450.636C697.391 449.94 696.455 449.592 695.255 449.592ZM727.304 446.352C728.864 446.352 730.244 446.76 731.444 447.576C732.668 448.368 733.616 449.496 734.288 450.96C734.984 452.4 735.332 454.056 735.332 455.928C735.332 457.8 734.996 459.444 734.324 460.86C733.652 462.276 732.704 463.368 731.48 464.136C730.28 464.904 728.888 465.288 727.304 465.288C725.984 465.288 724.808 465.012 723.776 464.46C722.744 463.884 721.952 463.092 721.4 462.084V472.776H716.936V451.968C716.936 450.048 716.84 448.332 716.648 446.82H720.86L721.22 449.952C721.7 448.824 722.48 447.948 723.56 447.324C724.64 446.676 725.888 446.352 727.304 446.352ZM726.08 461.76C727.592 461.76 728.756 461.256 729.572 460.248C730.388 459.24 730.796 457.8 730.796 455.928C730.796 454.032 730.388 452.556 729.572 451.5C728.756 450.42 727.604 449.88 726.116 449.88C724.58 449.88 723.404 450.396 722.588 451.428C721.772 452.46 721.364 453.936 721.364 455.856C721.364 457.752 721.772 459.216 722.588 460.248C723.404 461.256 724.568 461.76 726.08 461.76ZM747.505 465.288C745.657 465.288 744.025 464.904 742.609 464.136C741.217 463.368 740.137 462.276 739.369 460.86C738.625 459.42 738.253 457.74 738.253 455.82C738.253 453.9 738.625 452.232 739.369 450.816C740.137 449.376 741.217 448.272 742.609 447.504C744.025 446.736 745.657 446.352 747.505 446.352C749.329 446.352 750.937 446.736 752.329 447.504C753.721 448.272 754.789 449.376 755.533 450.816C756.301 452.232 756.685 453.9 756.685 455.82C756.685 457.74 756.301 459.42 755.533 460.86C754.789 462.276 753.721 463.368 752.329 464.136C750.937 464.904 749.329 465.288 747.505 465.288ZM747.469 461.76C749.005 461.76 750.169 461.268 750.961 460.284C751.777 459.276 752.185 457.788 752.185 455.82C752.185 453.876 751.777 452.4 750.961 451.392C750.145 450.36 748.993 449.844 747.505 449.844C745.993 449.844 744.829 450.36 744.013 451.392C743.197 452.4 742.789 453.876 742.789 455.82C742.789 457.788 743.185 459.276 743.977 460.284C744.793 461.268 745.957 461.76 747.469 461.76ZM767.225 465.288C763.937 465.288 761.321 464.52 759.377 462.984L760.637 459.816C762.581 461.256 764.801 461.976 767.297 461.976C768.377 461.976 769.205 461.796 769.781 461.436C770.381 461.076 770.681 460.572 770.681 459.924C770.681 459.372 770.477 458.94 770.069 458.628C769.661 458.292 768.965 458.004 767.981 457.764L764.957 457.08C761.645 456.36 759.989 454.668 759.989 452.004C759.989 450.9 760.301 449.928 760.925 449.088C761.549 448.224 762.425 447.552 763.553 447.072C764.681 446.592 765.989 446.352 767.477 446.352C768.773 446.352 770.021 446.556 771.221 446.964C772.421 447.348 773.477 447.912 774.389 448.656L773.057 451.716C771.233 450.372 769.361 449.7 767.441 449.7C766.409 449.7 765.605 449.892 765.029 450.276C764.453 450.66 764.165 451.188 764.165 451.86C764.165 452.388 764.333 452.808 764.669 453.12C765.029 453.432 765.629 453.696 766.469 453.912L769.565 454.596C771.365 455.004 772.673 455.64 773.489 456.504C774.329 457.344 774.749 458.448 774.749 459.816C774.749 461.496 774.077 462.828 772.733 463.812C771.389 464.796 769.553 465.288 767.225 465.288ZM784.149 450.204V458.34C784.149 460.476 785.145 461.544 787.137 461.544C787.689 461.544 788.289 461.448 788.937 461.256V464.82C788.145 465.108 787.185 465.252 786.057 465.252C783.993 465.252 782.409 464.676 781.305 463.524C780.201 462.372 779.649 460.716 779.649 458.556V450.204H776.157V446.82H779.649V442.392L784.149 440.88V446.82H788.973V450.204H784.149ZM809.453 446.82V465H805.025V462.084C804.473 463.092 803.681 463.884 802.649 464.46C801.617 465.012 800.441 465.288 799.121 465.288C797.537 465.288 796.133 464.904 794.909 464.136C793.685 463.368 792.737 462.276 792.065 460.86C791.393 459.444 791.057 457.8 791.057 455.928C791.057 454.056 791.393 452.4 792.065 450.96C792.761 449.496 793.721 448.368 794.945 447.576C796.169 446.76 797.561 446.352 799.121 446.352C800.441 446.352 801.617 446.64 802.649 447.216C803.681 447.768 804.473 448.548 805.025 449.556V446.82H809.453ZM800.345 461.76C801.833 461.76 802.985 461.244 803.801 460.212C804.617 459.18 805.025 457.728 805.025 455.856C805.025 453.936 804.617 452.46 803.801 451.428C802.985 450.396 801.821 449.88 800.309 449.88C798.821 449.88 797.657 450.42 796.817 451.5C796.001 452.556 795.593 454.032 795.593 455.928C795.593 457.8 796.001 459.24 796.817 460.248C797.657 461.256 798.833 461.76 800.345 461.76ZM814.354 438.504H818.818V465H814.354V438.504Z" fill="white"/>
        <rect x="567" y="498" width="306" height="72" rx="17" fill="#FFCDB6"/>
        <path d="M597.772 521.368H602.416V543.184H614.404V547H597.772V521.368ZM625.731 547.288C623.883 547.288 622.251 546.904 620.835 546.136C619.443 545.368 618.363 544.276 617.595 542.86C616.851 541.42 616.479 539.74 616.479 537.82C616.479 535.9 616.851 534.232 617.595 532.816C618.363 531.376 619.443 530.272 620.835 529.504C622.251 528.736 623.883 528.352 625.731 528.352C627.555 528.352 629.163 528.736 630.555 529.504C631.947 530.272 633.015 531.376 633.759 532.816C634.527 534.232 634.911 535.9 634.911 537.82C634.911 539.74 634.527 541.42 633.759 542.86C633.015 544.276 631.947 545.368 630.555 546.136C629.163 546.904 627.555 547.288 625.731 547.288ZM625.695 543.76C627.231 543.76 628.395 543.268 629.187 542.284C630.003 541.276 630.411 539.788 630.411 537.82C630.411 535.876 630.003 534.4 629.187 533.392C628.371 532.36 627.219 531.844 625.731 531.844C624.219 531.844 623.055 532.36 622.239 533.392C621.423 534.4 621.015 535.876 621.015 537.82C621.015 539.788 621.411 541.276 622.203 542.284C623.019 543.268 624.183 543.76 625.695 543.76ZM647.036 547.288C645.14 547.288 643.496 546.904 642.104 546.136C640.712 545.368 639.644 544.288 638.9 542.896C638.156 541.48 637.784 539.824 637.784 537.928C637.784 536.032 638.168 534.364 638.936 532.924C639.728 531.484 640.832 530.368 642.248 529.576C643.688 528.76 645.344 528.352 647.216 528.352C648.512 528.352 649.76 528.556 650.96 528.964C652.184 529.372 653.156 529.936 653.876 530.656L652.616 533.824C651.848 533.2 651.032 532.732 650.168 532.42C649.304 532.084 648.452 531.916 647.612 531.916C645.98 531.916 644.708 532.432 643.796 533.464C642.884 534.472 642.428 535.936 642.428 537.856C642.428 539.776 642.872 541.24 643.76 542.248C644.672 543.256 645.956 543.76 647.612 543.76C648.452 543.76 649.304 543.592 650.168 543.256C651.032 542.92 651.848 542.44 652.616 541.816L653.876 544.984C653.108 545.704 652.112 546.268 650.888 546.676C649.664 547.084 648.38 547.288 647.036 547.288ZM674.285 528.82V547H669.857V544.084C669.305 545.092 668.513 545.884 667.481 546.46C666.449 547.012 665.273 547.288 663.953 547.288C662.369 547.288 660.965 546.904 659.741 546.136C658.517 545.368 657.569 544.276 656.897 542.86C656.225 541.444 655.889 539.8 655.889 537.928C655.889 536.056 656.225 534.4 656.897 532.96C657.593 531.496 658.553 530.368 659.777 529.576C661.001 528.76 662.393 528.352 663.953 528.352C665.273 528.352 666.449 528.64 667.481 529.216C668.513 529.768 669.305 530.548 669.857 531.556V528.82H674.285ZM665.177 543.76C666.665 543.76 667.817 543.244 668.633 542.212C669.449 541.18 669.857 539.728 669.857 537.856C669.857 535.936 669.449 534.46 668.633 533.428C667.817 532.396 666.653 531.88 665.141 531.88C663.653 531.88 662.489 532.42 661.649 533.5C660.833 534.556 660.425 536.032 660.425 537.928C660.425 539.8 660.833 541.24 661.649 542.248C662.489 543.256 663.665 543.76 665.177 543.76ZM679.186 520.504H683.65V547H679.186V520.504ZM688.573 528.82H693.037V547H688.573V528.82ZM693.289 520.576V525.004H688.285V520.576H693.289ZM704.62 547.288C701.332 547.288 698.716 546.52 696.772 544.984L698.032 541.816C699.976 543.256 702.196 543.976 704.692 543.976C705.772 543.976 706.6 543.796 707.176 543.436C707.776 543.076 708.076 542.572 708.076 541.924C708.076 541.372 707.872 540.94 707.464 540.628C707.056 540.292 706.36 540.004 705.376 539.764L702.352 539.08C699.04 538.36 697.384 536.668 697.384 534.004C697.384 532.9 697.696 531.928 698.32 531.088C698.944 530.224 699.82 529.552 700.948 529.072C702.076 528.592 703.384 528.352 704.872 528.352C706.168 528.352 707.416 528.556 708.616 528.964C709.816 529.348 710.872 529.912 711.784 530.656L710.452 533.716C708.628 532.372 706.756 531.7 704.836 531.7C703.804 531.7 703 531.892 702.424 532.276C701.848 532.66 701.56 533.188 701.56 533.86C701.56 534.388 701.728 534.808 702.064 535.12C702.424 535.432 703.024 535.696 703.864 535.912L706.96 536.596C708.76 537.004 710.068 537.64 710.884 538.504C711.724 539.344 712.144 540.448 712.144 541.816C712.144 543.496 711.472 544.828 710.128 545.812C708.784 546.796 706.948 547.288 704.62 547.288ZM731.907 538.144H719.379C719.475 540.088 719.955 541.528 720.819 542.464C721.707 543.376 723.015 543.832 724.743 543.832C726.735 543.832 728.583 543.184 730.287 541.888L731.583 544.984C730.719 545.68 729.651 546.244 728.379 546.676C727.131 547.084 725.859 547.288 724.563 547.288C721.587 547.288 719.247 546.448 717.543 544.768C715.839 543.088 714.987 540.784 714.987 537.856C714.987 536.008 715.359 534.364 716.103 532.924C716.847 531.484 717.891 530.368 719.235 529.576C720.579 528.76 722.103 528.352 723.807 528.352C726.303 528.352 728.271 529.168 729.711 530.8C731.175 532.408 731.907 534.628 731.907 537.46V538.144ZM723.915 531.592C722.715 531.592 721.731 531.952 720.963 532.672C720.219 533.368 719.739 534.388 719.523 535.732H727.983C727.839 534.364 727.419 533.332 726.723 532.636C726.051 531.94 725.115 531.592 723.915 531.592ZM767.052 528.352C769.116 528.352 770.652 528.976 771.66 530.224C772.668 531.448 773.172 533.32 773.172 535.84V547H768.672V535.984C768.672 534.544 768.432 533.512 767.952 532.888C767.496 532.24 766.728 531.916 765.648 531.916C764.4 531.916 763.416 532.36 762.696 533.248C762 534.112 761.652 535.312 761.652 536.848V547H757.152V535.984C757.152 534.568 756.9 533.536 756.396 532.888C755.916 532.24 755.148 531.916 754.092 531.916C752.844 531.916 751.86 532.36 751.14 533.248C750.42 534.112 750.06 535.312 750.06 536.848V547H745.596V533.968C745.596 532.048 745.5 530.332 745.308 528.82H749.52L749.844 531.7C750.372 530.62 751.128 529.792 752.112 529.216C753.12 528.64 754.272 528.352 755.568 528.352C758.352 528.352 760.164 529.504 761.004 531.808C761.58 530.728 762.396 529.888 763.452 529.288C764.532 528.664 765.732 528.352 767.052 528.352ZM786.219 547.288C784.371 547.288 782.739 546.904 781.323 546.136C779.931 545.368 778.851 544.276 778.083 542.86C777.339 541.42 776.967 539.74 776.967 537.82C776.967 535.9 777.339 534.232 778.083 532.816C778.851 531.376 779.931 530.272 781.323 529.504C782.739 528.736 784.371 528.352 786.219 528.352C788.043 528.352 789.651 528.736 791.043 529.504C792.435 530.272 793.503 531.376 794.247 532.816C795.015 534.232 795.399 535.9 795.399 537.82C795.399 539.74 795.015 541.42 794.247 542.86C793.503 544.276 792.435 545.368 791.043 546.136C789.651 546.904 788.043 547.288 786.219 547.288ZM786.183 543.76C787.719 543.76 788.883 543.268 789.675 542.284C790.491 541.276 790.899 539.788 790.899 537.82C790.899 535.876 790.491 534.4 789.675 533.392C788.859 532.36 787.707 531.844 786.219 531.844C784.707 531.844 783.543 532.36 782.727 533.392C781.911 534.4 781.503 535.876 781.503 537.82C781.503 539.788 781.899 541.276 782.691 542.284C783.507 543.268 784.671 543.76 786.183 543.76ZM799.28 528.82H803.744V547H799.28V528.82ZM803.996 520.576V525.004H798.992V520.576H803.996Z" fill="white"/>
        <rect x="567" y="580" width="306" height="72" rx="17" fill="#FFCDB6"/>
        <path d="M619.772 603.368H630.896C633.656 603.368 635.804 604.04 637.34 605.384C638.876 606.704 639.644 608.516 639.644 610.82C639.644 613.124 638.864 614.948 637.304 616.292C635.768 617.636 633.632 618.308 630.896 618.308H624.416V629H619.772V603.368ZM630.356 614.708C631.964 614.708 633.176 614.384 633.992 613.736C634.832 613.064 635.252 612.104 635.252 610.856C635.252 609.584 634.844 608.624 634.028 607.976C633.212 607.304 631.988 606.968 630.356 606.968H624.416V614.708H630.356ZM658.669 620.144H646.141C646.237 622.088 646.717 623.528 647.581 624.464C648.469 625.376 649.777 625.832 651.505 625.832C653.497 625.832 655.345 625.184 657.049 623.888L658.345 626.984C657.481 627.68 656.413 628.244 655.141 628.676C653.893 629.084 652.621 629.288 651.325 629.288C648.349 629.288 646.009 628.448 644.305 626.768C642.601 625.088 641.749 622.784 641.749 619.856C641.749 618.008 642.121 616.364 642.865 614.924C643.609 613.484 644.653 612.368 645.997 611.576C647.341 610.76 648.865 610.352 650.569 610.352C653.065 610.352 655.033 611.168 656.473 612.8C657.937 614.408 658.669 616.628 658.669 619.46V620.144ZM650.677 613.592C649.477 613.592 648.493 613.952 647.725 614.672C646.981 615.368 646.501 616.388 646.285 617.732H654.745C654.601 616.364 654.181 615.332 653.485 614.636C652.813 613.94 651.877 613.592 650.677 613.592ZM679.039 610.82V629H674.647V626.192C674.071 627.2 673.303 627.968 672.343 628.496C671.383 629.024 670.279 629.288 669.031 629.288C664.591 629.288 662.371 626.792 662.371 621.8V610.82H666.835V621.836C666.835 623.156 667.099 624.128 667.627 624.752C668.179 625.376 669.019 625.688 670.147 625.688C671.467 625.688 672.523 625.256 673.315 624.392C674.107 623.528 674.503 622.376 674.503 620.936V610.82H679.039ZM693.803 610.82H698.267V629H693.803V610.82ZM698.519 602.576V607.004H693.515V602.576H698.519ZM724.646 610.352C726.71 610.352 728.246 610.976 729.254 612.224C730.262 613.448 730.766 615.32 730.766 617.84V629H726.266V617.984C726.266 616.544 726.026 615.512 725.546 614.888C725.09 614.24 724.322 613.916 723.242 613.916C721.994 613.916 721.01 614.36 720.29 615.248C719.594 616.112 719.246 617.312 719.246 618.848V629H714.746V617.984C714.746 616.568 714.494 615.536 713.99 614.888C713.51 614.24 712.742 613.916 711.686 613.916C710.438 613.916 709.454 614.36 708.734 615.248C708.014 616.112 707.654 617.312 707.654 618.848V629H703.19V615.968C703.19 614.048 703.094 612.332 702.902 610.82H707.114L707.438 613.7C707.966 612.62 708.722 611.792 709.706 611.216C710.714 610.64 711.866 610.352 713.162 610.352C715.946 610.352 717.758 611.504 718.598 613.808C719.174 612.728 719.99 611.888 721.046 611.288C722.126 610.664 723.326 610.352 724.646 610.352ZM745.937 610.352C747.497 610.352 748.877 610.76 750.077 611.576C751.301 612.368 752.249 613.496 752.921 614.96C753.617 616.4 753.965 618.056 753.965 619.928C753.965 621.8 753.629 623.444 752.957 624.86C752.285 626.276 751.337 627.368 750.113 628.136C748.913 628.904 747.521 629.288 745.937 629.288C744.617 629.288 743.441 629.012 742.409 628.46C741.377 627.884 740.585 627.092 740.033 626.084V636.776H735.569V615.968C735.569 614.048 735.473 612.332 735.281 610.82H739.493L739.853 613.952C740.333 612.824 741.113 611.948 742.193 611.324C743.273 610.676 744.521 610.352 745.937 610.352ZM744.713 625.76C746.225 625.76 747.389 625.256 748.205 624.248C749.021 623.24 749.429 621.8 749.429 619.928C749.429 618.032 749.021 616.556 748.205 615.5C747.389 614.42 746.237 613.88 744.749 613.88C743.213 613.88 742.037 614.396 741.221 615.428C740.405 616.46 739.997 617.936 739.997 619.856C739.997 621.752 740.405 623.216 741.221 624.248C742.037 625.256 743.201 625.76 744.713 625.76ZM766.137 629.288C764.289 629.288 762.657 628.904 761.241 628.136C759.849 627.368 758.769 626.276 758.001 624.86C757.257 623.42 756.885 621.74 756.885 619.82C756.885 617.9 757.257 616.232 758.001 614.816C758.769 613.376 759.849 612.272 761.241 611.504C762.657 610.736 764.289 610.352 766.137 610.352C767.961 610.352 769.569 610.736 770.961 611.504C772.353 612.272 773.421 613.376 774.165 614.816C774.933 616.232 775.317 617.9 775.317 619.82C775.317 621.74 774.933 623.42 774.165 624.86C773.421 626.276 772.353 627.368 770.961 628.136C769.569 628.904 767.961 629.288 766.137 629.288ZM766.101 625.76C767.637 625.76 768.801 625.268 769.593 624.284C770.409 623.276 770.817 621.788 770.817 619.82C770.817 617.876 770.409 616.4 769.593 615.392C768.777 614.36 767.625 613.844 766.137 613.844C764.625 613.844 763.461 614.36 762.645 615.392C761.829 616.4 761.421 617.876 761.421 619.82C761.421 621.788 761.817 623.276 762.609 624.284C763.425 625.268 764.589 625.76 766.101 625.76ZM788.99 610.388C789.686 610.388 790.286 610.484 790.79 610.676L790.754 614.78C789.986 614.468 789.194 614.312 788.378 614.312C786.842 614.312 785.666 614.756 784.85 615.644C784.058 616.532 783.662 617.708 783.662 619.172V629H779.198V615.968C779.198 614.048 779.102 612.332 778.91 610.82H783.122L783.482 614.024C783.938 612.848 784.658 611.948 785.642 611.324C786.626 610.7 787.742 610.388 788.99 610.388ZM800.672 614.204V622.34C800.672 624.476 801.668 625.544 803.66 625.544C804.212 625.544 804.812 625.448 805.46 625.256V628.82C804.668 629.108 803.708 629.252 802.58 629.252C800.516 629.252 798.932 628.676 797.828 627.524C796.724 626.372 796.172 624.716 796.172 622.556V614.204H792.68V610.82H796.172V606.392L800.672 604.88V610.82H805.496V614.204H800.672ZM824.501 620.144H811.973C812.069 622.088 812.549 623.528 813.413 624.464C814.301 625.376 815.609 625.832 817.337 625.832C819.329 625.832 821.177 625.184 822.881 623.888L824.177 626.984C823.313 627.68 822.245 628.244 820.973 628.676C819.725 629.084 818.453 629.288 817.157 629.288C814.181 629.288 811.841 628.448 810.137 626.768C808.433 625.088 807.581 622.784 807.581 619.856C807.581 618.008 807.953 616.364 808.697 614.924C809.441 613.484 810.485 612.368 811.829 611.576C813.173 610.76 814.697 610.352 816.401 610.352C818.897 610.352 820.865 611.168 822.305 612.8C823.769 614.408 824.501 616.628 824.501 619.46V620.144ZM816.509 613.592C815.309 613.592 814.325 613.952 813.557 614.672C812.813 615.368 812.333 616.388 812.117 617.732H820.577C820.433 616.364 820.013 615.332 819.317 614.636C818.645 613.94 817.709 613.592 816.509 613.592Z" fill="white"/>
        <rect x="568" y="329" width="304" height="70" rx="16" stroke="#FFCDB6" stroke-width="2"/>
        <path d="M255.5 704C101 674.5 78 542.5 -1.5 522V800.5H1440V689C1440 689 1293 682.5 1126 709.5C891.046 747.487 886.5 729 747 733.5C551.86 739.795 410 733.5 255.5 704Z" fill="#025949"/>
        <rect x="567" y="256" width="306" height="72" rx="17" fill="#FFCDB6"/>
        <path d="M618.28 279.368L606.868 305H603.088L591.676 279.368H596.5L605.032 299.168L613.564 279.368H618.28ZM626.528 305.288C624.68 305.288 623.048 304.904 621.632 304.136C620.24 303.368 619.16 302.276 618.392 300.86C617.648 299.42 617.276 297.74 617.276 295.82C617.276 293.9 617.648 292.232 618.392 290.816C619.16 289.376 620.24 288.272 621.632 287.504C623.048 286.736 624.68 286.352 626.528 286.352C628.352 286.352 629.96 286.736 631.352 287.504C632.744 288.272 633.812 289.376 634.556 290.816C635.324 292.232 635.708 293.9 635.708 295.82C635.708 297.74 635.324 299.42 634.556 300.86C633.812 302.276 632.744 303.368 631.352 304.136C629.96 304.904 628.352 305.288 626.528 305.288ZM626.492 301.76C628.028 301.76 629.192 301.268 629.984 300.284C630.8 299.276 631.208 297.788 631.208 295.82C631.208 293.876 630.8 292.4 629.984 291.392C629.168 290.36 628.016 289.844 626.528 289.844C625.016 289.844 623.852 290.36 623.036 291.392C622.22 292.4 621.812 293.876 621.812 295.82C621.812 297.788 622.208 299.276 623 300.284C623.816 301.268 624.98 301.76 626.492 301.76ZM645.207 290.204V298.34C645.207 300.476 646.203 301.544 648.195 301.544C648.747 301.544 649.347 301.448 649.995 301.256V304.82C649.203 305.108 648.243 305.252 647.115 305.252C645.051 305.252 643.467 304.676 642.363 303.524C641.259 302.372 640.707 300.716 640.707 298.556V290.204H637.215V286.82H640.707V282.392L645.207 280.88V286.82H650.031V290.204H645.207ZM662.916 286.388C663.612 286.388 664.212 286.484 664.716 286.676L664.68 290.78C663.912 290.468 663.12 290.312 662.304 290.312C660.768 290.312 659.592 290.756 658.776 291.644C657.984 292.532 657.588 293.708 657.588 295.172V305H653.124V291.968C653.124 290.048 653.028 288.332 652.836 286.82H657.048L657.408 290.024C657.864 288.848 658.584 287.948 659.568 287.324C660.552 286.7 661.668 286.388 662.916 286.388ZM682.782 296.144H670.254C670.35 298.088 670.83 299.528 671.694 300.464C672.582 301.376 673.89 301.832 675.618 301.832C677.61 301.832 679.458 301.184 681.162 299.888L682.458 302.984C681.594 303.68 680.526 304.244 679.254 304.676C678.006 305.084 676.734 305.288 675.438 305.288C672.462 305.288 670.122 304.448 668.418 302.768C666.714 301.088 665.862 298.784 665.862 295.856C665.862 294.008 666.234 292.364 666.978 290.924C667.722 289.484 668.766 288.368 670.11 287.576C671.454 286.76 672.978 286.352 674.682 286.352C677.178 286.352 679.146 287.168 680.586 288.8C682.05 290.408 682.782 292.628 682.782 295.46V296.144ZM674.79 289.592C673.59 289.592 672.606 289.952 671.838 290.672C671.094 291.368 670.614 292.388 670.398 293.732H678.858C678.714 292.364 678.294 291.332 677.598 290.636C676.926 289.94 675.99 289.592 674.79 289.592ZM713.859 286.82V305H709.431V302.084C708.879 303.092 708.087 303.884 707.055 304.46C706.023 305.012 704.847 305.288 703.527 305.288C701.943 305.288 700.539 304.904 699.315 304.136C698.091 303.368 697.143 302.276 696.471 300.86C695.799 299.444 695.463 297.8 695.463 295.928C695.463 294.056 695.799 292.4 696.471 290.96C697.167 289.496 698.127 288.368 699.351 287.576C700.575 286.76 701.967 286.352 703.527 286.352C704.847 286.352 706.023 286.64 707.055 287.216C708.087 287.768 708.879 288.548 709.431 289.556V286.82H713.859ZM704.751 301.76C706.239 301.76 707.391 301.244 708.207 300.212C709.023 299.18 709.431 297.728 709.431 295.856C709.431 293.936 709.023 292.46 708.207 291.428C707.391 290.396 706.227 289.88 704.715 289.88C703.227 289.88 702.063 290.42 701.223 291.5C700.407 292.556 699.999 294.032 699.999 295.928C699.999 297.8 700.407 299.24 701.223 300.248C702.063 301.256 703.239 301.76 704.751 301.76ZM736.148 278.504V305H731.721V302.084C731.169 303.092 730.377 303.884 729.345 304.46C728.313 305.012 727.137 305.288 725.816 305.288C724.257 305.288 722.865 304.892 721.641 304.1C720.417 303.308 719.457 302.192 718.761 300.752C718.089 299.288 717.753 297.62 717.753 295.748C717.753 293.876 718.089 292.232 718.761 290.816C719.433 289.4 720.381 288.308 721.604 287.54C722.829 286.748 724.233 286.352 725.816 286.352C727.113 286.352 728.265 286.628 729.273 287.18C730.305 287.708 731.097 288.464 731.649 289.448V278.504H736.148ZM727.005 301.76C728.493 301.76 729.645 301.244 730.461 300.212C731.301 299.18 731.721 297.716 731.721 295.82C731.721 293.924 731.313 292.46 730.497 291.428C729.681 290.396 728.529 289.88 727.041 289.88C725.529 289.88 724.353 290.396 723.513 291.428C722.697 292.436 722.289 293.876 722.289 295.748C722.289 297.644 722.697 299.12 723.513 300.176C724.353 301.232 725.517 301.76 727.005 301.76ZM750.842 286.388C751.538 286.388 752.138 286.484 752.642 286.676L752.606 290.78C751.838 290.468 751.046 290.312 750.23 290.312C748.694 290.312 747.518 290.756 746.702 291.644C745.91 292.532 745.514 293.708 745.514 295.172V305H741.05V291.968C741.05 290.048 740.954 288.332 740.762 286.82H744.974L745.334 290.024C745.79 288.848 746.51 287.948 747.494 287.324C748.478 286.7 749.594 286.388 750.842 286.388ZM770.708 296.144H758.18C758.276 298.088 758.756 299.528 759.62 300.464C760.508 301.376 761.816 301.832 763.544 301.832C765.536 301.832 767.384 301.184 769.088 299.888L770.384 302.984C769.52 303.68 768.452 304.244 767.18 304.676C765.932 305.084 764.66 305.288 763.364 305.288C760.388 305.288 758.048 304.448 756.344 302.768C754.64 301.088 753.788 298.784 753.788 295.856C753.788 294.008 754.16 292.364 754.904 290.924C755.648 289.484 756.692 288.368 758.036 287.576C759.38 286.76 760.904 286.352 762.608 286.352C765.104 286.352 767.072 287.168 768.512 288.8C769.976 290.408 770.708 292.628 770.708 295.46V296.144ZM762.716 289.592C761.516 289.592 760.532 289.952 759.764 290.672C759.02 291.368 758.54 292.388 758.324 293.732H766.784C766.64 292.364 766.22 291.332 765.524 290.636C764.852 289.94 763.916 289.592 762.716 289.592ZM781.178 305.288C777.89 305.288 775.274 304.52 773.33 302.984L774.59 299.816C776.534 301.256 778.754 301.976 781.25 301.976C782.33 301.976 783.158 301.796 783.734 301.436C784.334 301.076 784.634 300.572 784.634 299.924C784.634 299.372 784.43 298.94 784.022 298.628C783.614 298.292 782.918 298.004 781.934 297.764L778.91 297.08C775.598 296.36 773.942 294.668 773.942 292.004C773.942 290.9 774.254 289.928 774.878 289.088C775.502 288.224 776.378 287.552 777.506 287.072C778.634 286.592 779.942 286.352 781.43 286.352C782.726 286.352 783.974 286.556 785.174 286.964C786.374 287.348 787.43 287.912 788.342 288.656L787.01 291.716C785.186 290.372 783.314 289.7 781.394 289.7C780.362 289.7 779.558 289.892 778.982 290.276C778.406 290.66 778.118 291.188 778.118 291.86C778.118 292.388 778.286 292.808 778.622 293.12C778.982 293.432 779.582 293.696 780.422 293.912L783.518 294.596C785.318 295.004 786.626 295.64 787.442 296.504C788.282 297.344 788.702 298.448 788.702 299.816C788.702 301.496 788.03 302.828 786.686 303.812C785.342 304.796 783.506 305.288 781.178 305.288ZM799.213 305.288C795.925 305.288 793.309 304.52 791.365 302.984L792.625 299.816C794.569 301.256 796.789 301.976 799.285 301.976C800.365 301.976 801.193 301.796 801.769 301.436C802.369 301.076 802.669 300.572 802.669 299.924C802.669 299.372 802.465 298.94 802.057 298.628C801.649 298.292 800.953 298.004 799.969 297.764L796.945 297.08C793.633 296.36 791.977 294.668 791.977 292.004C791.977 290.9 792.289 289.928 792.913 289.088C793.537 288.224 794.413 287.552 795.541 287.072C796.669 286.592 797.977 286.352 799.465 286.352C800.761 286.352 802.009 286.556 803.209 286.964C804.409 287.348 805.465 287.912 806.377 288.656L805.045 291.716C803.221 290.372 801.349 289.7 799.429 289.7C798.397 289.7 797.593 289.892 797.017 290.276C796.441 290.66 796.153 291.188 796.153 291.86C796.153 292.388 796.321 292.808 796.657 293.12C797.017 293.432 797.617 293.696 798.457 293.912L801.553 294.596C803.353 295.004 804.661 295.64 805.477 296.504C806.317 297.344 806.737 298.448 806.737 299.816C806.737 301.496 806.065 302.828 804.721 303.812C803.377 304.796 801.541 305.288 799.213 305.288ZM826.501 296.144H813.973C814.069 298.088 814.549 299.528 815.413 300.464C816.301 301.376 817.609 301.832 819.337 301.832C821.329 301.832 823.177 301.184 824.881 299.888L826.177 302.984C825.313 303.68 824.245 304.244 822.973 304.676C821.725 305.084 820.453 305.288 819.157 305.288C816.181 305.288 813.841 304.448 812.137 302.768C810.433 301.088 809.581 298.784 809.581 295.856C809.581 294.008 809.953 292.364 810.697 290.924C811.441 289.484 812.485 288.368 813.829 287.576C815.173 286.76 816.697 286.352 818.401 286.352C820.897 286.352 822.865 287.168 824.305 288.8C825.769 290.408 826.501 292.628 826.501 295.46V296.144ZM818.509 289.592C817.309 289.592 816.325 289.952 815.557 290.672C814.813 291.368 814.333 292.388 814.117 293.732H822.577C822.433 292.364 822.013 291.332 821.317 290.636C820.645 289.94 819.709 289.592 818.509 289.592ZM844.762 287.216V292.22H839.722V287.216H844.762ZM844.762 299.96V305H839.722V299.96H844.762Z" fill="white"/>
        <line x1="593" y1="345" x2="593" y2="384" stroke="#04D99D" stroke-width="2"/>
        <path d="M1225.68 570.743C1245.22 570.743 1261.05 567.304 1261.05 563.062C1261.05 558.819 1245.22 555.38 1225.68 555.38C1206.15 555.38 1190.31 558.819 1190.31 563.062C1190.31 567.304 1206.15 570.743 1225.68 570.743Z" stroke="#3EE5B1" stroke-width="2" stroke-miterlimit="10"/>
        <path d="M1225.68 567.031C1227.75 566.913 1229.78 565.868 1231.05 563.923L1249.69 535.296H1201.67L1220.32 563.923C1221.59 565.868 1223.61 566.913 1225.68 567.031Z" fill="#FDECE0"/>
        <path d="M1225.68 553.104C1226.26 553.097 1226.85 553.075 1227.44 553.045C1247.42 552.066 1265.08 507.161 1264.26 498.699C1263.45 490.237 1252.79 482.246 1252.79 482.246H1198.56C1198.56 482.246 1187.9 490.237 1187.09 498.699C1186.28 507.161 1203.93 552.066 1223.91 553.045C1224.53 553.075 1225.11 553.097 1225.68 553.104Z" fill="#FFCDB6"/>
        <path d="M1225.68 587.152C1241.45 587.152 1254.23 585.042 1254.23 582.439C1254.23 579.835 1241.45 577.725 1225.68 577.725C1209.92 577.725 1197.14 579.835 1197.14 582.439C1197.14 585.042 1209.92 587.152 1225.68 587.152Z" stroke="#3EE5B1" stroke-width="2" stroke-miterlimit="10"/>
        <path d="M1225.68 601.263C1234.1 601.263 1240.93 599.668 1240.93 597.699C1240.93 595.73 1234.1 594.134 1225.68 594.134C1217.26 594.134 1210.43 595.73 1210.43 597.699C1210.43 599.668 1217.26 601.263 1225.68 601.263Z" stroke="#3EE5B1" stroke-width="2" stroke-miterlimit="10"/>
        <path d="M1238.15 388.829H1215.16V416.764H1238.15V388.829Z" fill="#45396D"/>
        <path d="M1225.68 500.562C1244.56 500.562 1259.87 479.594 1259.87 453.729C1259.87 427.863 1244.56 406.895 1225.68 406.895C1206.8 406.895 1191.49 427.863 1191.49 453.729C1191.49 479.594 1206.8 500.562 1225.68 500.562Z" fill="#45396D"/>
        <path d="M1331.86 507.301C1331.18 513.289 1329.05 529.971 1325.46 539.663C1324.2 543.073 1319.45 543.228 1317.89 539.943C1311.33 526.134 1307.82 506.948 1310.06 498.279C1312.18 490.023 1325.52 499.774 1330.36 503.634C1331.46 504.518 1332.02 505.902 1331.86 507.301Z" fill="#45396D"/>
        <path d="M1299.46 416.764C1307.08 416.764 1313.25 407.03 1313.25 395.023C1313.25 383.015 1307.08 373.281 1299.46 373.281C1291.85 373.281 1285.67 383.015 1285.67 395.023C1285.67 407.03 1291.85 416.764 1299.46 416.764Z" fill="#45396D"/>
        <path d="M1229.56 396.982L1229.57 434.808V434.816C1229.76 434.816 1232.49 434.639 1264.54 431.531C1271.38 430.868 1276.9 428.239 1281.35 424.416C1281.35 424.409 1281.35 424.409 1281.35 424.409C1300.5 407.926 1299.76 369.098 1299.74 368.421C1280.76 385.868 1256.31 396.54 1229.56 396.982Z" fill="#FFCDB6"/>
        <path d="M1229.57 434.816C1229.57 435 1229.59 440.244 1231.15 451.232C1264.97 460.6 1267.25 474.77 1268.85 474.078C1270.45 473.393 1289.19 464.717 1285.08 454.664C1281.02 444.736 1281.34 424.924 1281.35 424.416C1276.9 428.239 1271.38 430.868 1264.54 431.531C1232.49 434.639 1229.76 434.816 1229.57 434.816Z" fill="#FDECE0"/>
        <path d="M1307.52 377.391C1307.52 377.391 1312.82 362.263 1320.33 377.391C1327.85 392.519 1345.28 464.003 1330.73 509.82C1326.73 516.743 1318.32 518.909 1313.25 508.001C1308.18 497.094 1297.3 442.608 1299.46 416.757C1301.63 390.906 1307.52 377.391 1307.52 377.391Z" fill="#FDECE0"/>
        <path d="M1225.68 156.126C1226.26 156.118 1226.85 156.111 1227.44 156.111C1288.85 156.111 1338.64 210.037 1338.64 276.557C1338.64 313.375 1323.39 346.326 1299.36 368.413C1299.36 368.413 1299.36 368.413 1299.36 368.421C1280.37 385.868 1255.92 396.54 1229.17 396.982C1228.6 396.989 1228.02 396.997 1227.44 396.997C1226.85 396.997 1226.27 396.989 1225.68 396.982C1225.1 396.989 1224.51 396.997 1223.92 396.997C1223.35 396.997 1222.76 396.989 1222.19 396.982C1195.44 396.54 1170.99 385.868 1152.01 368.421C1152.01 368.413 1152.01 368.413 1152.01 368.413C1127.97 346.326 1112.73 313.375 1112.73 276.557C1112.73 210.037 1162.51 156.111 1223.92 156.111C1224.51 156.111 1225.1 156.118 1225.68 156.126Z" fill="#FDECE0"/>
        <path d="M1225.02 268.139C1183.87 268.625 1156.03 263.573 1144.94 263.853C1129.23 264.243 1132.37 301.149 1153.58 339.226C1170.65 369.879 1195.35 381.199 1225.02 379.74H1225.68C1255.36 381.199 1280.05 369.879 1297.12 339.226C1318.32 301.149 1321.47 264.243 1305.76 263.853C1294.67 263.573 1266.83 268.633 1225.68 268.139H1225.02Z" fill="#FFCDB6"/>
        <path d="M1072.13 199.933L1056.37 168.86C1056.37 168.86 1052.49 161.318 1058.88 159.035L1114.8 253.343L1113.04 267.108L1107.1 267.02L1072.13 199.933Z" fill="#45396D"/>
        <path d="M1072.13 199.933C1072.59 200.846 1103.86 293.902 1103.86 293.902L1109.93 265.422L1072.13 199.933Z" fill="#FFCDB6"/>
        <path d="M1117.78 322.566C1117.78 322.566 1104.01 311.35 1103.86 291.678C1103.72 272.006 1109.92 265.414 1109.92 265.414L1117.78 322.566Z" fill="#FFCDB6"/>
        <path d="M1126.94 335.389C1126.94 335.389 1120.41 337.598 1116.73 317.772C1113.04 297.945 1109.18 264.685 1109.86 260.369C1110.54 256.053 1109.5 252.268 1114.38 250.611C1119.25 248.946 1126.94 335.389 1126.94 335.389Z" fill="#45396D"/>
        <path d="M1379.26 199.999L1395.03 168.926C1395.03 168.926 1398.92 161.384 1392.52 159.101L1336.6 253.409L1338.35 267.175L1344.3 267.086L1379.26 199.999Z" fill="#45396D"/>
        <path d="M1379.26 199.999C1378.8 200.912 1347.53 293.968 1347.53 293.968L1341.47 265.488L1379.26 199.999Z" fill="#FFCDB6"/>
        <path d="M1333.62 322.64C1333.62 322.64 1347.38 311.423 1347.53 291.751C1347.68 272.08 1341.48 265.488 1341.48 265.488L1333.62 322.64Z" fill="#FFCDB6"/>
        <path d="M1324.45 335.455C1324.45 335.455 1330.99 337.664 1334.67 317.838C1338.35 298.012 1342.21 264.751 1341.53 260.436C1340.86 256.12 1341.9 252.334 1337.02 250.677C1332.14 249.013 1324.45 335.455 1324.45 335.455Z" fill="#45396D"/>
        <path d="M1222.18 434.816C1222.18 434.808 1222.18 434.808 1222.18 434.808C1222.18 434.808 1222.2 434.816 1222.18 434.816Z" fill="#03A678"/>
        <path d="M1026.29 425.16C1020.35 426.127 1003.83 429.026 994.361 432.657C991.03 433.932 991.142 437.883 994.507 438.951C1008.65 443.461 1027.99 445.079 1036.52 442.636C1044.63 440.312 1034.16 429.912 1030.03 426.158C1029.09 425.308 1027.68 424.931 1026.29 425.16Z" fill="#45396D"/>
        <path d="M1154.23 408.478C1154.23 408.478 1166.9 398.667 1150.17 396.325C1133.45 393.982 1060.12 400.055 1021.26 428.352C1015.95 434.337 1016.56 443.003 1028.51 444.36C1040.46 445.718 1095.6 438.81 1119.43 428.577C1143.27 418.344 1154.23 408.478 1154.23 408.478Z" fill="#FDECE0"/>
        <path d="M1134.81 418.262C1140.67 423.128 1151.63 419.585 1159.31 410.347C1166.98 401.11 1168.45 389.677 1162.59 384.811C1156.73 379.945 1145.76 383.488 1138.09 392.726C1130.42 401.963 1128.95 413.396 1134.81 418.262Z" fill="#45396D"/>
        <path d="M1222.19 396.982L1222.18 434.808V434.816C1221.99 434.816 1219.26 434.639 1187.21 431.531C1180.37 430.868 1174.85 428.239 1170.4 424.416C1170.4 424.409 1170.4 424.409 1170.4 424.409C1151.25 407.926 1151.99 369.098 1152.01 368.421C1170.99 385.868 1195.44 396.54 1222.19 396.982Z" fill="#FFCDB6"/>
        <path d="M1222.18 434.816C1222.18 435 1222.16 440.244 1220.6 451.232C1186.78 460.6 1184.49 474.771 1182.89 474.078C1181.3 473.393 1162.55 464.717 1166.67 454.664C1170.72 444.736 1170.41 424.925 1170.4 424.416C1174.85 428.239 1180.37 430.868 1187.21 431.531C1219.26 434.639 1221.99 434.816 1222.18 434.816Z" fill="#FDECE0"/>
        <path d="M1252.87 414.621C1252.85 416.219 1251.86 417.817 1249.69 417.817C1247.52 417.817 1246.51 416.256 1246.51 414.628C1246.51 413.001 1247.55 411.366 1249.69 411.366C1251.83 411.373 1252.89 413.008 1252.87 414.621ZM1247.67 414.65C1247.69 415.667 1248.24 416.749 1249.7 416.749C1251.16 416.749 1251.7 415.652 1251.72 414.636C1251.74 413.59 1251.16 412.426 1249.7 412.426C1248.24 412.434 1247.64 413.605 1247.67 414.65Z" fill="#FDECE0"/>
        <path d="M1256.54 414.047L1258.19 411.491H1259.59V411.543L1257.12 415.122V417.678H1255.96V415.122L1253.58 411.543V411.491H1254.97L1256.54 414.047Z" fill="#FDECE0"/>
        <path d="M1265.15 416.514H1261.92L1261.39 417.678H1260.12L1262.9 411.491H1264.17L1266.95 417.678H1265.68L1265.15 416.514ZM1263.54 412.795L1262.39 415.424H1264.69L1263.54 412.795Z" fill="#FDECE0"/>
        <path d="M1221.15 316.145C1222.14 294.206 1208.97 275.786 1191.72 275.002C1174.47 274.218 1159.68 291.368 1158.68 313.307C1157.68 335.246 1170.86 353.666 1188.11 354.449C1205.36 355.233 1220.15 338.084 1221.15 316.145Z" fill="white"/>
        <path d="M1266.47 354.448C1283.72 353.665 1296.9 335.244 1295.9 313.306C1294.9 291.367 1280.11 274.217 1262.86 275.001C1245.61 275.785 1232.43 294.205 1233.43 316.144C1234.43 338.083 1249.22 355.232 1266.47 354.448Z" fill="white"/>
        <path d="M1244.95 99.6825C1244.72 98.9157 1243.76 98.7687 1243.22 99.3758C1234.43 109.268 1221.68 111.178 1218.14 123.339C1215.86 131.186 1218.24 137.34 1219.77 140.209C1219.82 140.298 1219.87 140.375 1219.93 140.433C1217.21 151.909 1217.78 157.475 1218.44 159.884C1218.69 160.779 1219.68 161.239 1220.54 160.875C1221.26 160.562 1221.63 159.75 1221.4 158.99C1220.59 156.408 1218.35 150.42 1221.58 139.212C1224.16 131.633 1227.19 127.697 1229.6 125.646C1232 123.735 1233.88 123.435 1233.88 123.435C1228.06 130.221 1226.38 138.234 1225.91 142.33C1225.72 143.902 1226.84 145.308 1228.4 145.442C1239.62 146.388 1245.24 137.506 1247.56 126.643C1249.57 117.275 1246.31 104.424 1244.95 99.6825Z" fill="#04D99D"/>
        <path d="M784.112 76.288C781.688 76.288 779.576 75.76 777.776 74.704C776 73.648 774.632 72.136 773.672 70.168C772.712 68.176 772.232 65.836 772.232 63.148C772.232 60.46 772.712 58.144 773.672 56.2C774.632 54.232 776 52.72 777.776 51.664C779.576 50.608 781.688 50.08 784.112 50.08C785.888 50.08 787.508 50.356 788.972 50.908C790.46 51.436 791.744 52.24 792.824 53.32L791.708 55.588C790.484 54.532 789.272 53.776 788.072 53.32C786.896 52.864 785.588 52.636 784.148 52.636C781.34 52.636 779.156 53.548 777.596 55.372C776.06 57.196 775.292 59.788 775.292 63.148C775.292 66.532 776.06 69.148 777.596 70.996C779.132 72.82 781.316 73.732 784.148 73.732C785.588 73.732 786.896 73.504 788.072 73.048C789.272 72.592 790.484 71.836 791.708 70.78L792.824 73.048C791.744 74.128 790.46 74.944 788.972 75.496C787.508 76.024 785.888 76.288 784.112 76.288ZM804.554 76.252C802.85 76.252 801.35 75.868 800.054 75.1C798.758 74.332 797.75 73.24 797.03 71.824C796.334 70.408 795.986 68.752 795.986 66.856C795.986 64.96 796.334 63.304 797.03 61.888C797.75 60.472 798.758 59.38 800.054 58.612C801.35 57.844 802.85 57.46 804.554 57.46C806.258 57.46 807.758 57.844 809.054 58.612C810.35 59.38 811.346 60.472 812.042 61.888C812.762 63.304 813.122 64.96 813.122 66.856C813.122 68.752 812.762 70.408 812.042 71.824C811.346 73.24 810.35 74.332 809.054 75.1C807.758 75.868 806.258 76.252 804.554 76.252ZM804.554 73.84C806.354 73.84 807.734 73.252 808.694 72.076C809.654 70.876 810.134 69.136 810.134 66.856C810.134 64.648 809.642 62.944 808.658 61.744C807.674 60.52 806.306 59.908 804.554 59.908C802.778 59.908 801.398 60.52 800.414 61.744C799.43 62.944 798.938 64.648 798.938 66.856C798.938 69.136 799.418 70.876 800.378 72.076C801.362 73.252 802.754 73.84 804.554 73.84ZM837.755 57.46C841.763 57.46 843.767 59.848 843.767 64.624V76H840.851V64.768C840.851 63.064 840.551 61.828 839.951 61.06C839.375 60.292 838.427 59.908 837.107 59.908C835.571 59.908 834.371 60.424 833.507 61.456C832.643 62.488 832.211 63.892 832.211 65.668V76H829.295V64.768C829.295 63.088 828.995 61.864 828.395 61.096C827.795 60.304 826.835 59.908 825.515 59.908C823.979 59.908 822.767 60.424 821.879 61.456C821.015 62.488 820.583 63.892 820.583 65.668V76H817.667V62.968C817.667 61.096 817.571 59.404 817.379 57.892H820.151L820.439 61.06C820.943 59.908 821.687 59.02 822.671 58.396C823.679 57.772 824.843 57.46 826.163 57.46C827.603 57.46 828.779 57.748 829.691 58.324C830.603 58.9 831.275 59.788 831.707 60.988C832.259 59.908 833.063 59.056 834.119 58.432C835.199 57.784 836.411 57.46 837.755 57.46ZM869.396 57.46C873.404 57.46 875.408 59.848 875.408 64.624V76H872.492V64.768C872.492 63.064 872.192 61.828 871.592 61.06C871.016 60.292 870.068 59.908 868.748 59.908C867.212 59.908 866.012 60.424 865.148 61.456C864.284 62.488 863.852 63.892 863.852 65.668V76H860.936V64.768C860.936 63.088 860.636 61.864 860.036 61.096C859.436 60.304 858.476 59.908 857.156 59.908C855.62 59.908 854.408 60.424 853.52 61.456C852.656 62.488 852.224 63.892 852.224 65.668V76H849.308V62.968C849.308 61.096 849.212 59.404 849.02 57.892H851.792L852.08 61.06C852.584 59.908 853.328 59.02 854.312 58.396C855.32 57.772 856.484 57.46 857.804 57.46C859.244 57.46 860.42 57.748 861.332 58.324C862.244 58.9 862.916 59.788 863.348 60.988C863.9 59.908 864.704 59.056 865.76 58.432C866.84 57.784 868.052 57.46 869.396 57.46ZM896.105 66.856H882.821C882.845 69.16 883.373 70.9 884.405 72.076C885.461 73.252 886.985 73.84 888.977 73.84C891.089 73.84 893.033 73.132 894.809 71.716L895.781 73.84C894.989 74.584 893.969 75.172 892.721 75.604C891.497 76.036 890.237 76.252 888.941 76.252C886.109 76.252 883.889 75.424 882.281 73.768C880.673 72.088 879.869 69.796 879.869 66.892C879.869 65.044 880.229 63.412 880.949 61.996C881.669 60.556 882.677 59.44 883.973 58.648C885.269 57.856 886.745 57.46 888.401 57.46C890.801 57.46 892.685 58.252 894.053 59.836C895.421 61.396 896.105 63.556 896.105 66.316V66.856ZM888.437 59.728C886.925 59.728 885.689 60.184 884.729 61.096C883.793 62.008 883.193 63.292 882.929 64.948H893.477C893.333 63.244 892.829 61.948 891.965 61.06C891.125 60.172 889.949 59.728 888.437 59.728ZM909.567 57.46C913.911 57.46 916.083 59.848 916.083 64.624V76H913.167V64.768C913.167 63.088 912.831 61.864 912.159 61.096C911.487 60.304 910.431 59.908 908.991 59.908C907.311 59.908 905.967 60.424 904.959 61.456C903.951 62.488 903.447 63.88 903.447 65.632V76H900.531V62.968C900.531 61.096 900.435 59.404 900.243 57.892H903.015L903.303 61.132C903.855 59.956 904.683 59.056 905.787 58.432C906.891 57.784 908.151 57.46 909.567 57.46ZM925.477 60.196V70.096C925.477 71.44 925.753 72.388 926.305 72.94C926.857 73.468 927.637 73.732 928.645 73.732C929.317 73.732 929.965 73.624 930.589 73.408V75.892C929.845 76.132 929.005 76.252 928.069 76.252C926.341 76.252 924.985 75.772 924.001 74.812C923.041 73.828 922.561 72.388 922.561 70.492V60.196H919.033V57.892H922.561V53.248L925.477 52.204V57.892H930.661V60.196H925.477ZM959.474 57.928L951.662 76H948.89L941.186 57.928H944.246L950.366 72.832L956.558 57.928H959.474ZM977.632 66.856H964.348C964.372 69.16 964.9 70.9 965.932 72.076C966.988 73.252 968.512 73.84 970.504 73.84C972.616 73.84 974.56 73.132 976.336 71.716L977.308 73.84C976.516 74.584 975.496 75.172 974.248 75.604C973.024 76.036 971.764 76.252 970.468 76.252C967.636 76.252 965.416 75.424 963.808 73.768C962.2 72.088 961.396 69.796 961.396 66.892C961.396 65.044 961.756 63.412 962.476 61.996C963.196 60.556 964.204 59.44 965.5 58.648C966.796 57.856 968.272 57.46 969.928 57.46C972.328 57.46 974.212 58.252 975.58 59.836C976.948 61.396 977.632 63.556 977.632 66.316V66.856ZM969.964 59.728C968.452 59.728 967.216 60.184 966.256 61.096C965.32 62.008 964.72 63.292 964.456 64.948H975.004C974.86 63.244 974.356 61.948 973.492 61.06C972.652 60.172 971.476 59.728 969.964 59.728ZM997.214 57.892V76H994.37V72.868C993.794 73.972 992.99 74.812 991.958 75.388C990.926 75.964 989.762 76.252 988.466 76.252C986.33 76.252 984.71 75.652 983.606 74.452C982.502 73.252 981.95 71.476 981.95 69.124V57.892H984.866V69.052C984.866 70.684 985.202 71.884 985.874 72.652C986.546 73.42 987.566 73.804 988.934 73.804C990.542 73.804 991.838 73.288 992.822 72.256C993.806 71.2 994.298 69.82 994.298 68.116V57.892H997.214ZM1018.86 76H1015.36L1009.64 68.872L1003.99 76H1000.42L1007.95 66.676L1000.86 57.892H1004.38L1009.64 64.552L1014.9 57.892H1018.46L1011.4 66.676L1018.86 76ZM1035.38 60.196V70.096C1035.38 71.44 1035.65 72.388 1036.2 72.94C1036.76 73.468 1037.54 73.732 1038.54 73.732C1039.22 73.732 1039.86 73.624 1040.49 73.408V75.892C1039.74 76.132 1038.9 76.252 1037.97 76.252C1036.24 76.252 1034.88 75.772 1033.9 74.812C1032.94 73.828 1032.46 72.388 1032.46 70.492V60.196H1028.93V57.892H1032.46V53.248L1035.38 52.204V57.892H1040.56V60.196H1035.38ZM1059.23 57.892V76H1056.39V72.868C1055.81 73.972 1055.01 74.812 1053.97 75.388C1052.94 75.964 1051.78 76.252 1050.48 76.252C1048.35 76.252 1046.73 75.652 1045.62 74.452C1044.52 73.252 1043.97 71.476 1043.97 69.124V57.892H1046.88V69.052C1046.88 70.684 1047.22 71.884 1047.89 72.652C1048.56 73.42 1049.58 73.804 1050.95 73.804C1052.56 73.804 1053.85 73.288 1054.84 72.256C1055.82 71.2 1056.31 69.82 1056.31 68.116V57.892H1059.23ZM789.044 102.892C788.852 104.404 788.756 106.096 788.756 107.968V128.776H785.84V117.796C785.312 118.9 784.52 119.752 783.464 120.352C782.408 120.952 781.172 121.252 779.756 121.252C778.148 121.252 776.732 120.868 775.508 120.1C774.308 119.332 773.372 118.252 772.7 116.86C772.052 115.444 771.728 113.8 771.728 111.928C771.728 110.056 772.064 108.412 772.736 106.996C773.408 105.556 774.344 104.44 775.544 103.648C776.768 102.856 778.172 102.46 779.756 102.46C781.22 102.46 782.492 102.796 783.572 103.468C784.652 104.116 785.456 105.052 785.984 106.276L786.344 102.892H789.044ZM780.332 118.84C782.108 118.84 783.476 118.24 784.436 117.04C785.396 115.816 785.876 114.088 785.876 111.856C785.876 109.624 785.396 107.908 784.436 106.708C783.476 105.508 782.108 104.908 780.332 104.908C778.556 104.908 777.164 105.532 776.156 106.78C775.172 108.004 774.68 109.72 774.68 111.928C774.68 114.136 775.172 115.84 776.156 117.04C777.14 118.24 778.532 118.84 780.332 118.84ZM809.55 102.892V121H806.706V117.868C806.13 118.972 805.326 119.812 804.294 120.388C803.262 120.964 802.098 121.252 800.802 121.252C798.666 121.252 797.046 120.652 795.942 119.452C794.838 118.252 794.286 116.476 794.286 114.124V102.892H797.202V114.052C797.202 115.684 797.538 116.884 798.21 117.652C798.882 118.42 799.902 118.804 801.27 118.804C802.878 118.804 804.174 118.288 805.158 117.256C806.142 116.2 806.634 114.82 806.634 113.116V102.892H809.55ZM830.327 111.856H817.043C817.067 114.16 817.595 115.9 818.627 117.076C819.683 118.252 821.207 118.84 823.199 118.84C825.311 118.84 827.255 118.132 829.031 116.716L830.003 118.84C829.211 119.584 828.191 120.172 826.943 120.604C825.719 121.036 824.459 121.252 823.163 121.252C820.331 121.252 818.111 120.424 816.503 118.768C814.895 117.088 814.091 114.796 814.091 111.892C814.091 110.044 814.451 108.412 815.171 106.996C815.891 105.556 816.899 104.44 818.195 103.648C819.491 102.856 820.967 102.46 822.623 102.46C825.023 102.46 826.907 103.252 828.275 104.836C829.643 106.396 830.327 108.556 830.327 111.316V111.856ZM822.659 104.728C821.147 104.728 819.911 105.184 818.951 106.096C818.015 107.008 817.415 108.292 817.151 109.948H827.699C827.555 108.244 827.051 106.948 826.187 106.06C825.347 105.172 824.171 104.728 822.659 104.728ZM839.352 126.112C840 126.304 840.588 126.4 841.116 126.4C843.132 126.4 844.14 125.2 844.14 122.8V102.892H847.056V123.16C847.056 125.056 846.576 126.484 845.616 127.444C844.68 128.428 843.384 128.92 841.728 128.92C840.936 128.92 840.144 128.812 839.352 128.596V126.112ZM847.38 95.224V98.536H843.816V95.224H847.38ZM867.874 111.856H854.59C854.614 114.16 855.142 115.9 856.174 117.076C857.23 118.252 858.754 118.84 860.746 118.84C862.858 118.84 864.802 118.132 866.578 116.716L867.55 118.84C866.758 119.584 865.738 120.172 864.49 120.604C863.266 121.036 862.006 121.252 860.71 121.252C857.878 121.252 855.658 120.424 854.05 118.768C852.442 117.088 851.638 114.796 851.638 111.892C851.638 110.044 851.998 108.412 852.718 106.996C853.438 105.556 854.446 104.44 855.742 103.648C857.038 102.856 858.514 102.46 860.17 102.46C862.57 102.46 864.454 103.252 865.822 104.836C867.19 106.396 867.874 108.556 867.874 111.316V111.856ZM860.206 104.728C858.694 104.728 857.458 105.184 856.498 106.096C855.562 107.008 854.962 108.292 854.698 109.948H865.246C865.102 108.244 864.598 106.948 863.734 106.06C862.894 105.172 861.718 104.728 860.206 104.728ZM885.575 105.196V115.096C885.575 116.44 885.851 117.388 886.403 117.94C886.955 118.468 887.735 118.732 888.743 118.732C889.415 118.732 890.063 118.624 890.687 118.408V120.892C889.943 121.132 889.103 121.252 888.167 121.252C886.439 121.252 885.083 120.772 884.099 119.812C883.139 118.828 882.659 117.388 882.659 115.492V105.196H879.131V102.892H882.659V98.248L885.575 97.204V102.892H890.759V105.196H885.575ZM909.429 111.856H896.145C896.169 114.16 896.697 115.9 897.729 117.076C898.785 118.252 900.309 118.84 902.301 118.84C904.413 118.84 906.357 118.132 908.133 116.716L909.105 118.84C908.313 119.584 907.293 120.172 906.045 120.604C904.821 121.036 903.561 121.252 902.265 121.252C899.433 121.252 897.213 120.424 895.605 118.768C893.997 117.088 893.193 114.796 893.193 111.892C893.193 110.044 893.553 108.412 894.273 106.996C894.993 105.556 896.001 104.44 897.297 103.648C898.593 102.856 900.069 102.46 901.725 102.46C904.125 102.46 906.009 103.252 907.377 104.836C908.745 106.396 909.429 108.556 909.429 111.316V111.856ZM901.761 104.728C900.249 104.728 899.013 105.184 898.053 106.096C897.117 107.008 896.517 108.292 896.253 109.948H906.801C906.657 108.244 906.153 106.948 905.289 106.06C904.449 105.172 903.273 104.728 901.761 104.728ZM923.242 94.504H926.158V121H923.242V94.504ZM939.308 121.252C937.604 121.252 936.104 120.868 934.808 120.1C933.512 119.332 932.504 118.24 931.784 116.824C931.088 115.408 930.74 113.752 930.74 111.856C930.74 109.96 931.088 108.304 931.784 106.888C932.504 105.472 933.512 104.38 934.808 103.612C936.104 102.844 937.604 102.46 939.308 102.46C941.012 102.46 942.512 102.844 943.808 103.612C945.104 104.38 946.1 105.472 946.796 106.888C947.516 108.304 947.876 109.96 947.876 111.856C947.876 113.752 947.516 115.408 946.796 116.824C946.1 118.24 945.104 119.332 943.808 120.1C942.512 120.868 941.012 121.252 939.308 121.252ZM939.308 118.84C941.108 118.84 942.488 118.252 943.448 117.076C944.408 115.876 944.888 114.136 944.888 111.856C944.888 109.648 944.396 107.944 943.412 106.744C942.428 105.52 941.06 104.908 939.308 104.908C937.532 104.908 936.152 105.52 935.168 106.744C934.184 107.944 933.692 109.648 933.692 111.856C933.692 114.136 934.172 115.876 935.132 117.076C936.116 118.252 937.508 118.84 939.308 118.84ZM960.017 121.252C958.265 121.252 956.729 120.868 955.409 120.1C954.113 119.332 953.105 118.252 952.385 116.86C951.689 115.444 951.341 113.8 951.341 111.928C951.341 110.056 951.701 108.412 952.421 106.996C953.141 105.556 954.161 104.44 955.481 103.648C956.825 102.856 958.385 102.46 960.161 102.46C961.385 102.46 962.561 102.676 963.689 103.108C964.841 103.516 965.789 104.092 966.533 104.836L965.561 106.996C964.649 106.276 963.761 105.748 962.897 105.412C962.057 105.076 961.193 104.908 960.305 104.908C958.457 104.908 957.005 105.532 955.949 106.78C954.893 108.004 954.365 109.72 954.365 111.928C954.365 114.112 954.881 115.816 955.913 117.04C956.969 118.24 958.433 118.84 960.305 118.84C961.193 118.84 962.057 118.672 962.897 118.336C963.761 118 964.649 117.472 965.561 116.752L966.533 118.912C965.765 119.632 964.793 120.208 963.617 120.64C962.465 121.048 961.265 121.252 960.017 121.252ZM986.194 102.892V121H983.314V117.724C982.786 118.852 981.982 119.728 980.902 120.352C979.846 120.952 978.61 121.252 977.194 121.252C975.586 121.252 974.17 120.868 972.946 120.1C971.746 119.332 970.81 118.252 970.138 116.86C969.49 115.444 969.166 113.8 969.166 111.928C969.166 110.056 969.502 108.412 970.174 106.996C970.846 105.556 971.782 104.44 972.982 103.648C974.206 102.856 975.61 102.46 977.194 102.46C978.61 102.46 979.846 102.772 980.902 103.396C981.958 104.02 982.762 104.896 983.314 106.024V102.892H986.194ZM977.77 118.84C979.546 118.84 980.914 118.24 981.874 117.04C982.834 115.816 983.314 114.088 983.314 111.856C983.314 109.624 982.834 107.908 981.874 106.708C980.914 105.508 979.546 104.908 977.77 104.908C975.994 104.908 974.602 105.532 973.594 106.78C972.61 108.004 972.118 109.72 972.118 111.928C972.118 114.136 972.61 115.84 973.594 117.04C974.578 118.24 975.97 118.84 977.77 118.84ZM991.831 94.504H994.747V121H991.831V94.504ZM1000.41 102.892H1003.33V121H1000.41V102.892ZM1003.69 95.224V98.536H1000.12V95.224H1003.69ZM1015.11 121.252C1012.06 121.252 1009.65 120.472 1007.87 118.912L1008.84 116.752C1009.83 117.52 1010.82 118.072 1011.83 118.408C1012.84 118.744 1013.97 118.912 1015.22 118.912C1016.58 118.912 1017.62 118.684 1018.31 118.228C1019.03 117.748 1019.39 117.064 1019.39 116.176C1019.39 115.456 1019.15 114.88 1018.67 114.448C1018.19 114.016 1017.4 113.68 1016.3 113.44L1013.24 112.72C1011.72 112.384 1010.55 111.784 1009.71 110.92C1008.89 110.056 1008.48 109.024 1008.48 107.824C1008.48 106.24 1009.12 104.956 1010.39 103.972C1011.66 102.964 1013.34 102.46 1015.43 102.46C1016.7 102.46 1017.9 102.664 1019.03 103.072C1020.16 103.48 1021.11 104.068 1021.88 104.836L1020.9 106.96C1019.2 105.544 1017.38 104.836 1015.43 104.836C1014.14 104.836 1013.13 105.088 1012.41 105.592C1011.71 106.072 1011.36 106.756 1011.36 107.644C1011.36 108.388 1011.58 108.976 1012.01 109.408C1012.47 109.84 1013.19 110.176 1014.17 110.416L1017.23 111.172C1018.91 111.556 1020.16 112.156 1020.98 112.972C1021.79 113.764 1022.2 114.808 1022.2 116.104C1022.2 117.664 1021.56 118.912 1020.29 119.848C1019.02 120.784 1017.29 121.252 1015.11 121.252ZM1042 111.856H1028.72C1028.74 114.16 1029.27 115.9 1030.3 117.076C1031.36 118.252 1032.88 118.84 1034.88 118.84C1036.99 118.84 1038.93 118.132 1040.71 116.716L1041.68 118.84C1040.89 119.584 1039.87 120.172 1038.62 120.604C1037.4 121.036 1036.14 121.252 1034.84 121.252C1032.01 121.252 1029.79 120.424 1028.18 118.768C1026.57 117.088 1025.77 114.796 1025.77 111.892C1025.77 110.044 1026.13 108.412 1026.85 106.996C1027.57 105.556 1028.58 104.44 1029.87 103.648C1031.17 102.856 1032.64 102.46 1034.3 102.46C1036.7 102.46 1038.58 103.252 1039.95 104.836C1041.32 106.396 1042 108.556 1042 111.316V111.856ZM1034.34 104.728C1032.82 104.728 1031.59 105.184 1030.63 106.096C1029.69 107.008 1029.09 108.292 1028.83 109.948H1039.38C1039.23 108.244 1038.73 106.948 1037.86 106.06C1037.02 105.172 1035.85 104.728 1034.34 104.728ZM1056.18 96.412C1056.94 95.98 1057.77 95.656 1058.66 95.44C1059.55 95.2 1060.42 95.08 1061.29 95.08C1063.35 95.08 1065.02 95.608 1066.29 96.664C1067.59 97.696 1068.24 99.064 1068.24 100.768C1068.24 101.656 1068.08 102.472 1067.77 103.216C1067.48 103.96 1067.12 104.632 1066.69 105.232C1066.26 105.808 1065.67 106.528 1064.92 107.392C1063.89 108.544 1063.09 109.576 1062.51 110.488C1061.96 111.4 1061.62 112.456 1061.5 113.656L1061.4 114.304H1059.67V113.404C1059.67 111.892 1059.93 110.62 1060.46 109.588C1060.99 108.532 1061.77 107.356 1062.8 106.06C1063.62 105.028 1064.22 104.152 1064.6 103.432C1065.01 102.688 1065.21 101.86 1065.21 100.948C1065.21 99.916 1064.85 99.1 1064.13 98.5C1063.41 97.9 1062.42 97.6 1061.14 97.6C1059.46 97.6 1057.81 98.104 1056.18 99.112V96.412ZM1058.7 117.292H1062.4V121H1058.7V117.292Z" fill="#45396D"/>
        <circle cx="1024.5" cy="179.5" r="7.5" stroke="#45396D" stroke-width="2"/>
        <circle cx="1001" cy="153" r="12" stroke="#45396D" stroke-width="2"/>
        <circle cx="1042.5" cy="198.5" r="4.5" stroke="#45396D" stroke-width="2"/>
        <path fill-rule="evenodd" clip-rule="evenodd" d="M229.734 737.456C218.052 709.72 191.973 698.217 169.659 709.916L152.86 670.031C152.431 669.013 151.346 668.695 150.436 669.321L145.624 672.628C144.714 673.254 144.324 674.587 144.752 675.605L161.513 715.399C141.039 732.549 133.888 767.163 145.705 795.221C151.734 809.534 161.596 819.524 172.796 824.234C173.229 830.557 174.654 836.873 177.158 842.817C187.015 866.221 209.856 874.985 228.174 862.391C246.493 849.798 253.353 820.617 243.496 797.213C240.992 791.269 237.651 786.27 233.76 782.325C236.854 767.788 235.762 751.769 229.734 737.456Z" fill="#002922" fill-opacity="0.15"/>
        <rect x="143.921" y="604.316" width="12.0614" height="71.2719" rx="2" fill="#FFCDB6"/>
        <circle cx="150.5" cy="564.842" r="62.5" fill="#03A678"/>
        <circle cx="150.5" cy="502.342" r="49.3421" fill="#03A678"/>
        <circle cx="99.5" cy="40.5" r="17.5" fill="white"/>
        <path d="M99.5 33V48" stroke="#FFCDB6" stroke-width="2" stroke-miterlimit="10" stroke-linecap="round"/>
        <path d="M107 40.5H92" stroke="#FFCDB6" stroke-width="2" stroke-miterlimit="10" stroke-linecap="round"/>
        <circle cx="143.5" cy="40.5" r="17.5" fill="white"/>
        <path d="M152.584 41.4397L154.803 39.2209C155.066 38.9577 155.066 38.5314 154.803 38.2681C154.539 38.0049 154.113 38.0049 153.85 38.2681L151.631 40.4869L149.413 38.2681C149.149 38.0049 148.723 38.0049 148.46 38.2681C148.197 38.5314 148.197 38.9577 148.46 39.2209L150.678 41.4397L148.46 43.6584C148.197 43.9216 148.197 44.348 148.46 44.6112C148.723 44.8745 149.149 44.8745 149.413 44.6112L151.631 42.3925L153.85 44.6112C154.113 44.8745 154.539 44.8745 154.803 44.6112C155.066 44.348 155.066 43.9216 154.803 43.6584L152.584 41.4397Z" fill="#FFCDB6"/>
        <path d="M145.659 29.194C144.941 28.8576 144.117 28.964 143.508 29.4717L137.82 34.2115H134.021C132.907 34.2115 132 35.1185 132 36.233V44.7674C132 45.882 132.907 46.7889 134.021 46.7889H137.82L143.508 51.5287C144.117 52.0368 144.942 52.1424 145.659 51.8064C146.377 51.4699 146.823 50.7686 146.823 49.9758V31.0247C146.823 30.2318 146.377 29.5301 145.659 29.194ZM137.39 45.4498H134.021C133.65 45.4498 133.348 45.1385 133.348 44.767V36.233C133.348 35.8615 133.65 35.5592 134.021 35.5592H137.39V45.4498ZM145.476 49.9758C145.476 50.3733 145.179 50.5431 145.088 50.5858C144.996 50.6285 144.676 50.748 144.371 50.4933L138.738 45.7993V35.2007L144.371 30.5067C144.676 30.252 144.997 30.3715 145.088 30.4142C145.179 30.4568 145.476 30.6266 145.476 31.0242V49.9758Z" fill="#FFCDB6"/>
        <path d="M838 511C829.163 511 822 518.057 822 526.762C822 531.214 826.406 539.195 826.406 539.195L835.856 555.095C836.565 556.285 838.294 556.306 839.028 555.132L848.897 539.412C848.897 539.412 854 531.797 854 526.762C853.996 518.057 846.833 511 838 511ZM837.929 535.446C832.683 535.446 828.475 531.081 828.785 525.809C829.054 521.286 832.755 517.595 837.312 517.3C842.649 516.954 847.089 521.141 847.089 526.359C847.089 531.381 842.985 535.446 837.929 535.446Z" fill="white"/>
        <path d="M207.79 184.065C208.478 183.98 208.959 184.749 208.557 185.297C207.425 186.836 204.995 189.134 200.262 189.917C192.927 191.13 188.679 184.867 181.208 182.721C180.748 182.592 180.582 182.045 180.931 181.73C183.09 179.801 189.067 174.817 194.534 173.499C200.873 171.967 207.002 172.69 209.351 178.868C209.68 179.733 209.223 180.684 208.34 180.982C206.05 181.771 201.382 182.912 196.314 181.56C196.314 181.56 198.345 185.197 207.79 184.065Z" fill="#04D99D"/>
        <path d="M261.918 160.911C261.549 160.817 261.456 160.327 261.771 160.126C262.66 159.563 264.366 158.871 266.951 159.417C270.956 160.263 271.881 164.326 275.283 166.922C275.493 167.08 275.469 167.394 275.227 167.485C273.733 168.043 269.67 169.403 266.602 168.984C263.044 168.501 260.045 166.903 260.077 163.264C260.082 162.755 260.507 162.359 261.019 162.383C262.351 162.436 264.974 162.785 267.303 164.493C267.303 164.493 266.989 162.221 261.918 160.911Z" fill="#04D99D"/>
        <path d="M226.274 152.715C226.493 153.02 226.254 153.449 225.888 153.402C224.86 153.265 223.133 152.71 221.523 150.665C219.03 147.494 220.898 143.837 219.966 139.724C219.907 139.472 220.124 139.25 220.365 139.334C221.846 139.856 225.778 141.395 227.833 143.651C230.218 146.264 231.476 149.368 229.152 152.099C228.827 152.481 228.255 152.512 227.883 152.171C226.91 151.288 225.147 149.366 224.466 146.603C224.466 146.603 223.267 148.52 226.274 152.715Z" fill="#03A678"/>
        <path d="M280.745 115.787C279.989 116.426 278.811 115.883 278.862 114.913C279.012 112.186 280.119 107.535 285.168 102.892C292.992 95.6979 302.979 99.8642 313.596 96.5812C314.247 96.376 314.873 96.9002 314.702 97.5501C313.63 101.548 310.383 112.19 304.875 118.048C298.491 124.842 290.593 128.777 282.947 123.226C281.877 122.448 281.678 120.953 282.501 119.906C284.622 117.169 289.313 112.148 296.434 109.798C296.434 109.798 291.156 107.037 280.745 115.787Z" fill="#025949"/>
        <circle cx="187.5" cy="40.5" r="17.5" fill="white"/>
        <path d="M182 33L178 38L182 43" stroke="#FFCDB6" stroke-width="2" stroke-linecap="round" stroke-linejoin="round"/>
        <path d="M178.5 38H190.5C193.261 38 195.5 40.2386 195.5 43V43C195.5 45.7614 193.261 48 190.5 48H188" stroke="#FFCDB6" stroke-width="2" stroke-linecap="round"/>
        <path d="M35.8072 57.1173C32.8812 55.4689 30.3991 53.0969 28.6435 50.2625C29.3094 44.855 30.0964 39.9903 31.0045 37.5177C29.9955 39.8295 28.4821 43.6489 27.352 47.7698C26.7265 46.3426 26.2825 44.855 26 43.287C27.352 40.2516 29.0269 37.8796 31.065 35.7688C31.4484 35.3668 31.7511 35.206 32.0336 35.2261C32.3161 35.2462 32.5785 35.4874 32.8812 35.9699C35.1009 39.6687 36.4327 43.669 36.6749 48.011C36.7556 49.3177 36.4731 53.7803 35.8072 57.1173Z" fill="#45396D"/>
        <path d="M37.8251 34.3215C35.2421 35.5879 32.1143 34.5627 30.8027 31.9897C29.4709 29.4568 30.5202 26.2203 33.0426 24.9338C35.6256 23.6272 38.713 24.6725 40.065 27.2657C41.3767 29.8789 40.3879 33.035 37.8251 34.3215Z" fill="#45396D"/>
        <path d="M39.6009 37.8594C39.5202 35.5879 41.4372 33.5777 43.6973 33.5375C45.9978 33.4772 47.935 35.3467 47.9552 37.6584C47.9955 40.0506 46.2803 41.8598 43.8991 41.9603C41.6592 42.0206 39.6614 40.131 39.6009 37.8594Z" fill="#45396D"/>
        <path d="M39.0763 43.5886C39.2377 42.8448 39.379 42.3825 39.601 42.1412C39.601 42.1412 40.6301 52.916 42.8095 59.4894C42.7288 59.4894 42.6682 59.4692 42.5875 59.4491C42.5673 59.4692 42.5472 59.4491 42.527 59.4491C42.0023 59.228 41.4978 59.0069 40.9933 58.7657C40.3274 57.9415 39.8431 56.9766 39.5203 55.9112C38.814 53.6999 38.5113 51.4284 38.4507 49.3378C38.4911 47.2271 38.6929 45.4179 39.0763 43.5886Z" fill="#45396D"/>
        <path d="M47.6525 59.5497C44.8677 55.5493 40.5291 48.5337 39.6009 42.1412C39.9238 41.7794 40.4081 41.9804 41.3565 42.6036C47.2892 46.5034 50.7197 51.9109 52.1323 58.5647C50.6996 59.0471 49.2063 59.3888 47.6525 59.5497Z" fill="#45396D"/>
        <path d="M47.9349 29.6176C46.6233 27.0646 47.6524 23.8483 50.1748 22.5618C51.6076 21.8381 53.2219 21.8381 54.5739 22.4211C54.7959 22.5216 54.9977 22.6422 55.1995 22.7628C56.0269 23.2653 56.713 23.989 57.1973 24.8936C58.5291 27.4868 57.5403 30.6428 54.9775 31.9092C52.4147 33.2159 49.2668 32.1907 47.9349 29.6176Z" fill="#45396D"/>
        <path d="M60.9104 52.3129C62.4238 45.1163 62.4642 36.9549 62.3431 32.5324C62.1211 39.5882 59.0741 49.6996 56.8947 56.0921C55.9059 56.7956 54.8566 57.3987 53.7467 57.9013C53.101 54.9865 51.9911 52.2124 50.518 49.4986C49.2669 47.2069 49.2063 44.7545 50.3566 42.3422C52.7781 37.2966 55.9866 33.1556 60.527 29.7784C61.092 29.3563 61.5561 29.1955 61.8992 29.296C62.0808 29.3563 62.2019 29.4769 62.3431 29.6779C62.4844 29.8789 62.6256 30.1201 62.8072 30.4016C63.009 30.7232 63.2108 31.0448 63.3723 31.4067C63.5337 31.7283 63.6749 32.0701 63.8162 32.3917C63.9575 32.7334 64.0785 33.0752 64.2198 33.4169C64.3207 33.7385 64.4418 34.0803 64.5427 34.422C64.5628 34.4823 64.583 34.5225 64.6032 34.5828C64.6839 34.8843 64.7646 35.1859 64.8454 35.5075C64.9261 35.8693 65.0068 36.2111 65.0673 36.593C65.2489 37.6986 65.3498 38.8043 65.3498 39.9702C65.3095 44.6339 63.6548 48.9357 60.9104 52.3129Z" fill="#45396D"/>
        <path d="M35.8072 57.1173C32.8812 55.4689 30.3991 53.0969 28.6435 50.2625C29.3094 44.855 30.0964 39.9903 31.0045 37.5177C29.9955 39.8295 28.4821 43.6489 27.352 47.7698C26.7265 46.3426 26.2825 44.855 26 43.287C27.352 40.2516 29.0269 37.8796 31.065 35.7688C31.4484 35.3668 31.7511 35.206 32.0336 35.2261C32.3161 35.2462 32.5785 35.4874 32.8812 35.9699C35.1009 39.6687 36.4327 43.669 36.6749 48.011C36.7556 49.3177 36.4731 53.7803 35.8072 57.1173Z" fill="#04D99D"/>
        <path d="M60.9104 52.3129C62.4238 45.1163 62.4642 36.9549 62.3431 32.5324C62.1211 39.5882 59.0741 49.6996 56.8947 56.0921C55.9059 56.7956 54.8566 57.3987 53.7467 57.9013C53.101 54.9865 51.9911 52.2124 50.518 49.4986C49.2669 47.2069 49.2063 44.7545 50.3566 42.3422C52.7781 37.2966 55.9866 33.1556 60.527 29.7784C61.092 29.3563 61.5561 29.1955 61.8992 29.296C62.0808 29.3563 62.2019 29.4769 62.3431 29.6779C62.4844 29.8789 62.6256 30.1201 62.8072 30.4016C63.009 30.7232 63.2108 31.0448 63.3723 31.4067C63.5337 31.7283 63.6749 32.0701 63.8162 32.3917C63.9575 32.7334 64.0785 33.0752 64.2198 33.4169C64.3207 33.7385 64.4418 34.0803 64.5427 34.422C64.5628 34.4823 64.583 34.5225 64.6032 34.5828C64.6839 34.8843 64.7646 35.1859 64.8454 35.5075C64.9261 35.8693 65.0068 36.2111 65.0673 36.593C65.2489 37.6986 65.3498 38.8043 65.3498 39.9702C65.3095 44.6339 63.6548 48.9357 60.9104 52.3129Z" fill="#04D99D"/>
        <path d="M42.8095 59.5497C42.7287 59.5095 42.648 59.4894 42.5673 59.4491C42.5471 59.4693 42.527 59.4491 42.5068 59.4491C41.9821 59.228 41.4776 59.0069 40.9731 58.7657C40.3072 57.9415 39.8229 56.9766 39.5001 55.9112C38.7938 53.6999 38.4911 51.4284 38.4305 49.3378C38.4709 47.2271 38.6727 45.4179 39.0561 43.5886C39.2175 42.8448 39.3588 42.3825 39.5808 42.1412C39.5808 42.1412 40.6099 52.916 42.7893 59.4894C42.7893 59.4894 42.8095 59.5296 42.8095 59.5497Z" fill="#04D99D"/>
        <path d="M52.1121 58.5445C50.6995 59.0471 49.1861 59.3888 47.6323 59.5497C44.8475 55.5493 40.5089 48.5337 39.5807 42.1412C39.9036 41.7794 40.3879 41.9804 41.3363 42.6036C47.2892 46.5034 50.6995 51.9109 52.1121 58.5445Z" fill="#04D99D"/>
        <path d="M54.9775 31.9293C52.3946 33.236 49.2466 32.1907 47.9349 29.6377C46.6233 27.0847 47.6524 23.8684 50.1748 22.5819C51.6076 21.8582 53.2219 21.8582 54.5739 22.4411C54.7959 22.5416 54.9977 22.6623 55.1995 22.7829C56.0269 23.2854 56.713 24.0091 57.1973 24.9137C58.5291 27.5069 57.5403 30.6428 54.9775 31.9293Z" fill="#FFCDB6"/>
        <path d="M37.8251 34.3215C35.2421 35.5879 32.1143 34.5627 30.8027 31.9897C29.4709 29.4568 30.5202 26.2203 33.0426 24.9338C35.6256 23.6272 38.713 24.6725 40.065 27.2657C41.3767 29.8789 40.3879 33.035 37.8251 34.3215Z" fill="#FFCDB6"/>
        <path d="M47.9552 37.6584C47.9955 40.0506 46.2803 41.8598 43.8991 41.9603C41.6592 42.0407 39.6816 40.1511 39.6009 37.8595C39.5202 35.5879 41.4372 33.5777 43.6973 33.5375C45.9978 33.4973 47.935 35.3467 47.9552 37.6584Z" fill="#FFCDB6"/>
    </g>
    <defs>
        <linearGradient id="paint0_linear" x1="96" y1="-407.336" x2="1949.69" y2="-407.336" gradientUnits="userSpaceOnUse">
            <stop stop-color="white"/>
            <stop offset="1" stop-color="#FDECE0"/>
        </linearGradient>
        <linearGradient id="paint1_linear" x1="299" y1="-320.005" x2="1688.99" y2="-320.005" gradientUnits="userSpaceOnUse">
            <stop stop-color="white"/>
            <stop offset="1" stop-color="#FDECE0"/>
        </linearGradient>
        <clipPath id="clip0">
            <rect width="1440" height="800" fill="white"/>
        </clipPath>
    </defs>
</svg>
