<svg width="1440" height="800" viewBox="0 0 1440 800" fill="none" xmlns="http://www.w3.org/2000/svg">
    <g clip-path="url(#clip0)">
        <rect width="1440" height="800" fill="white"/>
        <path d="M1913.7 -1585C1913.7 -1577.98 60 774.337 60 774.337H892.278L1913.7 -1585Z" fill="url(#paint0_linear)" fill-opacity="0.5"/>
        <path d="M1729.43 -1395.74C1729.43 -1389.2 360.204 800 360.204 800H974.961L1729.43 -1395.74Z" fill="url(#paint1_linear)" fill-opacity="0.5"/>
        <path d="M1009.5 409C1021.93 409 1032 407.433 1032 405.5C1032 403.567 1021.93 402 1009.5 402C997.074 402 987 403.567 987 405.5C987 407.433 997.074 409 1009.5 409Z" stroke="#3EE5B1" stroke-width="2" stroke-miterlimit="10"/>
        <path d="M1009.5 422C1018.06 422 1025 420.433 1025 418.5C1025 416.567 1018.06 415 1009.5 415C1000.94 415 994 416.567 994 418.5C994 420.433 1000.94 422 1009.5 422Z" stroke="#3EE5B1" stroke-width="2" stroke-miterlimit="10"/>
        <circle cx="720" cy="615" r="45" fill="#FFCDB6"/>
        <path d="M719.87 615C712.066 615 705.74 621.285 705.74 629.037C705.74 633.003 709.631 640.11 709.631 640.11L717.976 654.27C718.603 655.33 720.129 655.348 720.778 654.303L729.494 640.303C729.494 640.303 734 633.521 734 629.037C733.996 621.285 727.671 615 719.87 615ZM719.807 636.771C715.175 636.771 711.458 632.884 711.732 628.189C711.969 624.161 715.238 620.874 719.262 620.61C723.976 620.303 727.897 624.031 727.897 628.678C727.897 633.151 724.272 636.771 719.807 636.771Z" fill="white"/>
        <path d="M1010.5 343C998.073 343 988 353.008 988 365.352C988 371.666 994.196 382.984 994.196 382.984L1007.48 405.531C1008.48 407.219 1010.91 407.249 1011.95 405.585L1025.82 383.291C1025.82 383.291 1033 372.493 1033 365.352C1032.99 353.008 1022.92 343 1010.5 343ZM1010.4 377.668C1003.02 377.668 997.105 371.478 997.542 364.001C997.919 357.587 1003.12 352.353 1009.53 351.934C1017.04 351.444 1023.28 357.38 1023.28 364.78C1023.28 371.902 1017.51 377.668 1010.4 377.668Z" fill="#04D99D"/>
        <circle cx="719.5" cy="614.5" r="50.5" stroke="#04D99D" stroke-width="2"/>
        <circle cx="210" cy="45" r="299" fill="#FDECE0"/>
        <path d="M636 -124L632.919 -106.956L649.22 -112.81L636 -124ZM482 73L482.904 74.1968L482 73ZM-89 279.5L-73.5406 287.311L-74.506 270.017L-89 279.5ZM639.077 -111.077C640.958 -98.6632 636.372 -84.1823 627.116 -68.5026C617.879 -52.8567 604.116 -36.2241 587.988 -19.5865C555.735 13.6841 514.213 46.7816 481.096 71.8032L482.904 74.1968C516.046 49.156 557.721 15.9451 590.142 -17.4984C606.35 -34.2178 620.293 -51.0436 629.699 -66.9775C639.086 -82.8776 644.078 -98.0979 642.043 -111.527L639.077 -111.077ZM481.096 71.8032C436.561 105.452 386.575 105.876 330.282 104.688C274.075 103.501 211.765 100.726 143.433 128.611L144.567 131.389C212.235 103.774 273.925 106.499 330.218 107.687C386.425 108.874 437.439 108.548 482.904 74.1968L481.096 71.8032ZM143.433 128.611C77.4877 155.523 51.3499 190.565 27.3135 219.882C15.3085 234.524 3.90647 247.635 -11.6434 257.711C-27.1646 267.77 -46.9155 274.863 -75.6624 277.254L-75.4138 280.243C-46.2645 277.819 -26.0182 270.602 -10.012 260.229C5.96556 249.875 17.6212 236.435 29.6335 221.784C53.6316 192.514 79.3666 157.996 144.567 131.389L143.433 128.611Z" fill="#00FFF0"/>
        <path d="M210.869 168C210.869 168 203.046 201.347 234.34 199.957C265.638 198.567 210.869 180.043 210.869 168Z" fill="#025949"/>
        <path d="M254.869 139.999C254.869 139.999 247.046 106.652 278.34 108.042C309.638 109.432 254.869 127.956 254.869 139.999Z" fill="#03A678"/>
        <path d="M377.068 101.712C377.068 101.712 373.426 75.2236 388.749 67.7427C388.749 67.7427 395.316 80.5547 377.068 101.712Z" fill="#025949"/>
        <path d="M354.402 166.431C354.402 166.431 326.598 172.398 317.446 156.741C317.446 156.741 330.512 148.758 354.402 166.431Z" fill="#03A678"/>
        <path d="M35.792 42.354H30.104L28.97 45H25.586L31.58 32.184H34.244L40.256 45H36.926L35.792 42.354ZM34.694 39.816L32.948 35.766L31.202 39.816H34.694ZM50.436 31.752V45H47.232V43.758C46.968 44.19 46.584 44.532 46.08 44.784C45.576 45.024 45.024 45.144 44.424 45.144C43.644 45.144 42.948 44.946 42.336 44.55C41.724 44.142 41.244 43.578 40.896 42.858C40.56 42.126 40.392 41.286 40.392 40.338C40.392 39.402 40.56 38.574 40.896 37.854C41.244 37.134 41.724 36.582 42.336 36.198C42.948 35.802 43.644 35.604 44.424 35.604C45 35.604 45.528 35.724 46.008 35.964C46.5 36.204 46.89 36.528 47.178 36.936V31.752H50.436ZM45.432 42.714C46.008 42.714 46.452 42.516 46.764 42.12C47.076 41.712 47.232 41.13 47.232 40.374C47.232 39.642 47.07 39.078 46.746 38.682C46.434 38.274 45.996 38.07 45.432 38.07C44.844 38.07 44.394 38.268 44.082 38.664C43.77 39.048 43.614 39.606 43.614 40.338C43.614 41.094 43.77 41.682 44.082 42.102C44.406 42.51 44.856 42.714 45.432 42.714ZM56.9804 45.144C55.9604 45.144 55.0724 44.952 54.3164 44.568C53.5604 44.184 52.9784 43.632 52.5704 42.912C52.1624 42.192 51.9584 41.346 51.9584 40.374C51.9584 39.402 52.1624 38.556 52.5704 37.836C52.9784 37.116 53.5604 36.564 54.3164 36.18C55.0724 35.796 55.9604 35.604 56.9804 35.604C57.9884 35.604 58.8644 35.802 59.6084 36.198C60.3644 36.582 60.9464 37.134 61.3544 37.854C61.7624 38.562 61.9664 39.402 61.9664 40.374C61.9664 41.346 61.7624 42.192 61.3544 42.912C60.9464 43.62 60.3644 44.172 59.6084 44.568C58.8644 44.952 57.9884 45.144 56.9804 45.144ZM56.9804 42.714C58.1564 42.714 58.7444 41.934 58.7444 40.374C58.7444 39.582 58.5944 39 58.2944 38.628C58.0064 38.244 57.5684 38.052 56.9804 38.052C56.3804 38.052 55.9304 38.244 55.6304 38.628C55.3304 39 55.1804 39.582 55.1804 40.374C55.1804 41.178 55.3304 41.772 55.6304 42.156C55.9304 42.528 56.3804 42.714 56.9804 42.714ZM69.5293 35.604C70.3093 35.604 71.0053 35.808 71.6173 36.216C72.2293 36.624 72.7093 37.194 73.0573 37.926C73.4053 38.658 73.5793 39.498 73.5793 40.446C73.5793 41.382 73.4053 42.21 73.0573 42.93C72.7213 43.638 72.2473 44.184 71.6353 44.568C71.0233 44.952 70.3213 45.144 69.5293 45.144C68.9293 45.144 68.3833 45.03 67.8913 44.802C67.3993 44.562 67.0213 44.232 66.7573 43.812V48.888H63.4993V38.484C63.4993 37.5 63.4513 36.624 63.3553 35.856H66.4153L66.5953 37.278C66.8233 36.774 67.2013 36.372 67.7293 36.072C68.2573 35.76 68.8573 35.604 69.5293 35.604ZM68.5393 42.714C69.1273 42.714 69.5713 42.522 69.8713 42.138C70.1713 41.754 70.3213 41.19 70.3213 40.446C70.3213 39.69 70.1653 39.108 69.8533 38.7C69.5533 38.28 69.1153 38.07 68.5393 38.07C67.9513 38.07 67.5013 38.268 67.1893 38.664C66.8773 39.06 66.7213 39.642 66.7213 40.41C66.7213 41.154 66.8773 41.724 67.1893 42.12C67.5013 42.516 67.9513 42.714 68.5393 42.714ZM80.3954 42.516C80.6114 42.516 80.8994 42.48 81.2594 42.408V44.874C80.8154 45.054 80.2514 45.144 79.5674 45.144C78.3314 45.144 77.3894 44.796 76.7414 44.1C76.1054 43.404 75.7874 42.438 75.7874 41.202V38.25H74.0774V35.856H75.7874V33.786L79.0454 32.742V35.856H81.2414V38.25H79.0454V41.202C79.0454 41.634 79.1714 41.964 79.4234 42.192C79.6874 42.408 80.0114 42.516 80.3954 42.516ZM90.9257 40.752H85.1837C85.2437 41.46 85.4477 41.97 85.7957 42.282C86.1437 42.594 86.6537 42.75 87.3257 42.75C87.7817 42.75 88.2377 42.678 88.6937 42.534C89.1497 42.378 89.5637 42.168 89.9357 41.904L90.7637 44.064C90.3077 44.4 89.7557 44.664 89.1077 44.856C88.4597 45.048 87.8117 45.144 87.1637 45.144C86.1197 45.144 85.2137 44.952 84.4457 44.568C83.6777 44.184 83.0897 43.638 82.6817 42.93C82.2737 42.21 82.0697 41.364 82.0697 40.392C82.0697 39.468 82.2617 38.646 82.6457 37.926C83.0417 37.194 83.5817 36.624 84.2657 36.216C84.9617 35.808 85.7537 35.604 86.6417 35.604C87.5057 35.604 88.2617 35.796 88.9097 36.18C89.5577 36.564 90.0557 37.116 90.4037 37.836C90.7517 38.544 90.9257 39.372 90.9257 40.32V40.752ZM86.7317 37.836C85.9277 37.836 85.4237 38.304 85.2197 39.24H88.1357C88.0157 38.304 87.5477 37.836 86.7317 37.836ZM98.2469 45.162C96.3749 45.162 94.9589 44.694 93.9989 43.758C93.0389 42.81 92.5589 41.424 92.5589 39.6V32.184H95.8529V39.726C95.8529 40.65 96.0569 41.358 96.4649 41.85C96.8849 42.342 97.4789 42.588 98.2469 42.588C99.0029 42.588 99.5849 42.342 99.9929 41.85C100.401 41.346 100.605 40.638 100.605 39.726V32.184H103.935V39.6C103.935 41.4 103.443 42.78 102.459 43.74C101.487 44.688 100.083 45.162 98.2469 45.162ZM112.088 35.604C113.168 35.604 113.972 35.934 114.5 36.594C115.04 37.242 115.31 38.226 115.31 39.546V45H112.052V39.69C112.052 39.126 111.956 38.724 111.764 38.484C111.572 38.232 111.272 38.106 110.864 38.106C110.372 38.106 109.976 38.274 109.676 38.61C109.376 38.934 109.226 39.366 109.226 39.906V45H105.968V38.484C105.968 37.5 105.92 36.624 105.824 35.856H108.884L109.046 37.206C109.394 36.69 109.826 36.294 110.342 36.018C110.858 35.742 111.44 35.604 112.088 35.604ZM117.381 32.184H123.483C124.947 32.184 126.081 32.538 126.885 33.246C127.689 33.942 128.091 34.89 128.091 36.09C128.091 37.278 127.683 38.226 126.867 38.934C126.051 39.642 124.923 39.996 123.483 39.996H120.765V45H117.381V32.184ZM123.033 37.476C124.305 37.476 124.941 37.026 124.941 36.126C124.941 35.67 124.785 35.328 124.473 35.1C124.173 34.86 123.693 34.74 123.033 34.74H120.765V37.476H123.033ZM138.766 35.856V45H135.562V43.758C135.298 44.19 134.914 44.532 134.41 44.784C133.906 45.024 133.354 45.144 132.754 45.144C131.974 45.144 131.278 44.952 130.666 44.568C130.054 44.184 129.574 43.638 129.226 42.93C128.89 42.21 128.722 41.382 128.722 40.446C128.722 39.498 128.896 38.658 129.244 37.926C129.592 37.194 130.072 36.624 130.684 36.216C131.296 35.808 131.986 35.604 132.754 35.604C133.354 35.604 133.9 35.736 134.392 36C134.896 36.252 135.286 36.594 135.562 37.026V35.856H138.766ZM133.762 42.714C134.338 42.714 134.782 42.516 135.094 42.12C135.406 41.724 135.562 41.154 135.562 40.41C135.562 39.654 135.406 39.078 135.094 38.682C134.782 38.274 134.338 38.07 133.762 38.07C133.198 38.07 132.754 38.28 132.43 38.7C132.106 39.108 131.944 39.69 131.944 40.446C131.944 41.178 132.1 41.742 132.412 42.138C132.724 42.522 133.174 42.714 133.762 42.714ZM146.48 35.64C146.924 35.64 147.266 35.706 147.506 35.838V38.808C146.99 38.568 146.492 38.448 146.012 38.448C144.644 38.448 143.96 39.102 143.96 40.41V45H140.702V38.484C140.702 37.5 140.654 36.624 140.558 35.856H143.618L143.816 37.386C144.032 36.822 144.38 36.39 144.86 36.09C145.34 35.79 145.88 35.64 146.48 35.64ZM152.797 45.144C151.249 45.144 150.037 44.724 149.161 43.884C148.285 43.044 147.847 41.898 147.847 40.446C147.847 39.486 148.057 38.64 148.477 37.908C148.909 37.176 149.509 36.612 150.277 36.216C151.045 35.808 151.933 35.604 152.941 35.604C153.613 35.604 154.273 35.706 154.921 35.91C155.569 36.102 156.085 36.366 156.469 36.702L155.641 38.952C155.317 38.688 154.939 38.478 154.507 38.322C154.075 38.166 153.661 38.088 153.265 38.088C152.593 38.088 152.077 38.28 151.717 38.664C151.357 39.048 151.177 39.618 151.177 40.374C151.177 41.142 151.357 41.724 151.717 42.12C152.077 42.504 152.599 42.696 153.283 42.696C153.679 42.696 154.087 42.618 154.507 42.462C154.939 42.306 155.317 42.096 155.641 41.832L156.469 44.046C156.073 44.394 155.545 44.664 154.885 44.856C154.237 45.048 153.541 45.144 152.797 45.144Z" fill="#025949"/>
        <rect x="567" y="543" width="306" height="72" rx="17" fill="#FFCDB6"/>
        <path d="M631.4 592.324C628.88 592.324 626.672 591.784 624.776 590.704C622.904 589.624 621.464 588.1 620.456 586.132C619.448 584.14 618.944 581.812 618.944 579.148C618.944 576.508 619.448 574.204 620.456 572.236C621.464 570.244 622.904 568.72 624.776 567.664C626.672 566.584 628.88 566.044 631.4 566.044C633.128 566.044 634.748 566.32 636.26 566.872C637.796 567.4 639.068 568.144 640.076 569.104L638.564 572.488C637.412 571.552 636.26 570.88 635.108 570.472C633.98 570.04 632.768 569.824 631.472 569.824C629 569.824 627.08 570.628 625.712 572.236C624.368 573.844 623.696 576.148 623.696 579.148C623.696 582.172 624.368 584.5 625.712 586.132C627.056 587.74 628.976 588.544 631.472 588.544C632.768 588.544 633.98 588.34 635.108 587.932C636.26 587.5 637.412 586.816 638.564 585.88L640.076 589.264C639.068 590.224 637.796 590.98 636.26 591.532C634.748 592.06 633.128 592.324 631.4 592.324ZM651.985 592.288C650.137 592.288 648.505 591.904 647.089 591.136C645.697 590.368 644.617 589.276 643.849 587.86C643.105 586.42 642.733 584.74 642.733 582.82C642.733 580.9 643.105 579.232 643.849 577.816C644.617 576.376 645.697 575.272 647.089 574.504C648.505 573.736 650.137 573.352 651.985 573.352C653.809 573.352 655.417 573.736 656.809 574.504C658.201 575.272 659.269 576.376 660.013 577.816C660.781 579.232 661.165 580.9 661.165 582.82C661.165 584.74 660.781 586.42 660.013 587.86C659.269 589.276 658.201 590.368 656.809 591.136C655.417 591.904 653.809 592.288 651.985 592.288ZM651.949 588.76C653.485 588.76 654.649 588.268 655.441 587.284C656.257 586.276 656.665 584.788 656.665 582.82C656.665 580.876 656.257 579.4 655.441 578.392C654.625 577.36 653.473 576.844 651.985 576.844C650.473 576.844 649.309 577.36 648.493 578.392C647.677 579.4 647.269 580.876 647.269 582.82C647.269 584.788 647.665 586.276 648.457 587.284C649.273 588.268 650.437 588.76 651.949 588.76ZM682.434 565.504V592H678.006V589.084C677.454 590.092 676.662 590.884 675.63 591.46C674.598 592.012 673.422 592.288 672.102 592.288C670.542 592.288 669.15 591.892 667.926 591.1C666.702 590.308 665.742 589.192 665.046 587.752C664.374 586.288 664.038 584.62 664.038 582.748C664.038 580.876 664.374 579.232 665.046 577.816C665.718 576.4 666.666 575.308 667.89 574.54C669.114 573.748 670.518 573.352 672.102 573.352C673.398 573.352 674.55 573.628 675.558 574.18C676.59 574.708 677.382 575.464 677.934 576.448V565.504H682.434ZM673.29 588.76C674.778 588.76 675.93 588.244 676.746 587.212C677.586 586.18 678.006 584.716 678.006 582.82C678.006 580.924 677.598 579.46 676.782 578.428C675.966 577.396 674.814 576.88 673.326 576.88C671.814 576.88 670.638 577.396 669.798 578.428C668.982 579.436 668.574 580.876 668.574 582.748C668.574 584.644 668.982 586.12 669.798 587.176C670.638 588.232 671.802 588.76 673.29 588.76ZM703.247 583.144H690.719C690.815 585.088 691.295 586.528 692.159 587.464C693.047 588.376 694.355 588.832 696.083 588.832C698.075 588.832 699.923 588.184 701.627 586.888L702.923 589.984C702.059 590.68 700.991 591.244 699.719 591.676C698.471 592.084 697.199 592.288 695.903 592.288C692.927 592.288 690.587 591.448 688.883 589.768C687.179 588.088 686.327 585.784 686.327 582.856C686.327 581.008 686.699 579.364 687.443 577.924C688.187 576.484 689.231 575.368 690.575 574.576C691.919 573.76 693.443 573.352 695.147 573.352C697.643 573.352 699.611 574.168 701.051 575.8C702.515 577.408 703.247 579.628 703.247 582.46V583.144ZM695.255 576.592C694.055 576.592 693.071 576.952 692.303 577.672C691.559 578.368 691.079 579.388 690.863 580.732H699.323C699.179 579.364 698.759 578.332 698.063 577.636C697.391 576.94 696.455 576.592 695.255 576.592ZM727.304 573.352C728.864 573.352 730.244 573.76 731.444 574.576C732.668 575.368 733.616 576.496 734.288 577.96C734.984 579.4 735.332 581.056 735.332 582.928C735.332 584.8 734.996 586.444 734.324 587.86C733.652 589.276 732.704 590.368 731.48 591.136C730.28 591.904 728.888 592.288 727.304 592.288C725.984 592.288 724.808 592.012 723.776 591.46C722.744 590.884 721.952 590.092 721.4 589.084V599.776H716.936V578.968C716.936 577.048 716.84 575.332 716.648 573.82H720.86L721.22 576.952C721.7 575.824 722.48 574.948 723.56 574.324C724.64 573.676 725.888 573.352 727.304 573.352ZM726.08 588.76C727.592 588.76 728.756 588.256 729.572 587.248C730.388 586.24 730.796 584.8 730.796 582.928C730.796 581.032 730.388 579.556 729.572 578.5C728.756 577.42 727.604 576.88 726.116 576.88C724.58 576.88 723.404 577.396 722.588 578.428C721.772 579.46 721.364 580.936 721.364 582.856C721.364 584.752 721.772 586.216 722.588 587.248C723.404 588.256 724.568 588.76 726.08 588.76ZM747.505 592.288C745.657 592.288 744.025 591.904 742.609 591.136C741.217 590.368 740.137 589.276 739.369 587.86C738.625 586.42 738.253 584.74 738.253 582.82C738.253 580.9 738.625 579.232 739.369 577.816C740.137 576.376 741.217 575.272 742.609 574.504C744.025 573.736 745.657 573.352 747.505 573.352C749.329 573.352 750.937 573.736 752.329 574.504C753.721 575.272 754.789 576.376 755.533 577.816C756.301 579.232 756.685 580.9 756.685 582.82C756.685 584.74 756.301 586.42 755.533 587.86C754.789 589.276 753.721 590.368 752.329 591.136C750.937 591.904 749.329 592.288 747.505 592.288ZM747.469 588.76C749.005 588.76 750.169 588.268 750.961 587.284C751.777 586.276 752.185 584.788 752.185 582.82C752.185 580.876 751.777 579.4 750.961 578.392C750.145 577.36 748.993 576.844 747.505 576.844C745.993 576.844 744.829 577.36 744.013 578.392C743.197 579.4 742.789 580.876 742.789 582.82C742.789 584.788 743.185 586.276 743.977 587.284C744.793 588.268 745.957 588.76 747.469 588.76ZM767.225 592.288C763.937 592.288 761.321 591.52 759.377 589.984L760.637 586.816C762.581 588.256 764.801 588.976 767.297 588.976C768.377 588.976 769.205 588.796 769.781 588.436C770.381 588.076 770.681 587.572 770.681 586.924C770.681 586.372 770.477 585.94 770.069 585.628C769.661 585.292 768.965 585.004 767.981 584.764L764.957 584.08C761.645 583.36 759.989 581.668 759.989 579.004C759.989 577.9 760.301 576.928 760.925 576.088C761.549 575.224 762.425 574.552 763.553 574.072C764.681 573.592 765.989 573.352 767.477 573.352C768.773 573.352 770.021 573.556 771.221 573.964C772.421 574.348 773.477 574.912 774.389 575.656L773.057 578.716C771.233 577.372 769.361 576.7 767.441 576.7C766.409 576.7 765.605 576.892 765.029 577.276C764.453 577.66 764.165 578.188 764.165 578.86C764.165 579.388 764.333 579.808 764.669 580.12C765.029 580.432 765.629 580.696 766.469 580.912L769.565 581.596C771.365 582.004 772.673 582.64 773.489 583.504C774.329 584.344 774.749 585.448 774.749 586.816C774.749 588.496 774.077 589.828 772.733 590.812C771.389 591.796 769.553 592.288 767.225 592.288ZM784.149 577.204V585.34C784.149 587.476 785.145 588.544 787.137 588.544C787.689 588.544 788.289 588.448 788.937 588.256V591.82C788.145 592.108 787.185 592.252 786.057 592.252C783.993 592.252 782.409 591.676 781.305 590.524C780.201 589.372 779.649 587.716 779.649 585.556V577.204H776.157V573.82H779.649V569.392L784.149 567.88V573.82H788.973V577.204H784.149ZM809.453 573.82V592H805.025V589.084C804.473 590.092 803.681 590.884 802.649 591.46C801.617 592.012 800.441 592.288 799.121 592.288C797.537 592.288 796.133 591.904 794.909 591.136C793.685 590.368 792.737 589.276 792.065 587.86C791.393 586.444 791.057 584.8 791.057 582.928C791.057 581.056 791.393 579.4 792.065 577.96C792.761 576.496 793.721 575.368 794.945 574.576C796.169 573.76 797.561 573.352 799.121 573.352C800.441 573.352 801.617 573.64 802.649 574.216C803.681 574.768 804.473 575.548 805.025 576.556V573.82H809.453ZM800.345 588.76C801.833 588.76 802.985 588.244 803.801 587.212C804.617 586.18 805.025 584.728 805.025 582.856C805.025 580.936 804.617 579.46 803.801 578.428C802.985 577.396 801.821 576.88 800.309 576.88C798.821 576.88 797.657 577.42 796.817 578.5C796.001 579.556 795.593 581.032 795.593 582.928C795.593 584.8 796.001 586.24 796.817 587.248C797.657 588.256 798.833 588.76 800.345 588.76ZM814.354 565.504H818.818V592H814.354V565.504Z" fill="white"/>
        <rect x="568" y="443" width="304" height="70" rx="16" stroke="#FFCDB6" stroke-width="2"/>
        <rect x="567" y="370" width="306" height="72" rx="17" fill="#FFCDB6"/>
        <path d="M618.28 393.368L606.868 419H603.088L591.676 393.368H596.5L605.032 413.168L613.564 393.368H618.28ZM626.528 419.288C624.68 419.288 623.048 418.904 621.632 418.136C620.24 417.368 619.16 416.276 618.392 414.86C617.648 413.42 617.276 411.74 617.276 409.82C617.276 407.9 617.648 406.232 618.392 404.816C619.16 403.376 620.24 402.272 621.632 401.504C623.048 400.736 624.68 400.352 626.528 400.352C628.352 400.352 629.96 400.736 631.352 401.504C632.744 402.272 633.812 403.376 634.556 404.816C635.324 406.232 635.708 407.9 635.708 409.82C635.708 411.74 635.324 413.42 634.556 414.86C633.812 416.276 632.744 417.368 631.352 418.136C629.96 418.904 628.352 419.288 626.528 419.288ZM626.492 415.76C628.028 415.76 629.192 415.268 629.984 414.284C630.8 413.276 631.208 411.788 631.208 409.82C631.208 407.876 630.8 406.4 629.984 405.392C629.168 404.36 628.016 403.844 626.528 403.844C625.016 403.844 623.852 404.36 623.036 405.392C622.22 406.4 621.812 407.876 621.812 409.82C621.812 411.788 622.208 413.276 623 414.284C623.816 415.268 624.98 415.76 626.492 415.76ZM645.207 404.204V412.34C645.207 414.476 646.203 415.544 648.195 415.544C648.747 415.544 649.347 415.448 649.995 415.256V418.82C649.203 419.108 648.243 419.252 647.115 419.252C645.051 419.252 643.467 418.676 642.363 417.524C641.259 416.372 640.707 414.716 640.707 412.556V404.204H637.215V400.82H640.707V396.392L645.207 394.88V400.82H650.031V404.204H645.207ZM662.916 400.388C663.612 400.388 664.212 400.484 664.716 400.676L664.68 404.78C663.912 404.468 663.12 404.312 662.304 404.312C660.768 404.312 659.592 404.756 658.776 405.644C657.984 406.532 657.588 407.708 657.588 409.172V419H653.124V405.968C653.124 404.048 653.028 402.332 652.836 400.82H657.048L657.408 404.024C657.864 402.848 658.584 401.948 659.568 401.324C660.552 400.7 661.668 400.388 662.916 400.388ZM682.782 410.144H670.254C670.35 412.088 670.83 413.528 671.694 414.464C672.582 415.376 673.89 415.832 675.618 415.832C677.61 415.832 679.458 415.184 681.162 413.888L682.458 416.984C681.594 417.68 680.526 418.244 679.254 418.676C678.006 419.084 676.734 419.288 675.438 419.288C672.462 419.288 670.122 418.448 668.418 416.768C666.714 415.088 665.862 412.784 665.862 409.856C665.862 408.008 666.234 406.364 666.978 404.924C667.722 403.484 668.766 402.368 670.11 401.576C671.454 400.76 672.978 400.352 674.682 400.352C677.178 400.352 679.146 401.168 680.586 402.8C682.05 404.408 682.782 406.628 682.782 409.46V410.144ZM674.79 403.592C673.59 403.592 672.606 403.952 671.838 404.672C671.094 405.368 670.614 406.388 670.398 407.732H678.858C678.714 406.364 678.294 405.332 677.598 404.636C676.926 403.94 675.99 403.592 674.79 403.592ZM713.859 400.82V419H709.431V416.084C708.879 417.092 708.087 417.884 707.055 418.46C706.023 419.012 704.847 419.288 703.527 419.288C701.943 419.288 700.539 418.904 699.315 418.136C698.091 417.368 697.143 416.276 696.471 414.86C695.799 413.444 695.463 411.8 695.463 409.928C695.463 408.056 695.799 406.4 696.471 404.96C697.167 403.496 698.127 402.368 699.351 401.576C700.575 400.76 701.967 400.352 703.527 400.352C704.847 400.352 706.023 400.64 707.055 401.216C708.087 401.768 708.879 402.548 709.431 403.556V400.82H713.859ZM704.751 415.76C706.239 415.76 707.391 415.244 708.207 414.212C709.023 413.18 709.431 411.728 709.431 409.856C709.431 407.936 709.023 406.46 708.207 405.428C707.391 404.396 706.227 403.88 704.715 403.88C703.227 403.88 702.063 404.42 701.223 405.5C700.407 406.556 699.999 408.032 699.999 409.928C699.999 411.8 700.407 413.24 701.223 414.248C702.063 415.256 703.239 415.76 704.751 415.76ZM736.148 392.504V419H731.721V416.084C731.169 417.092 730.377 417.884 729.345 418.46C728.313 419.012 727.137 419.288 725.816 419.288C724.257 419.288 722.865 418.892 721.641 418.1C720.417 417.308 719.457 416.192 718.761 414.752C718.089 413.288 717.753 411.62 717.753 409.748C717.753 407.876 718.089 406.232 718.761 404.816C719.433 403.4 720.381 402.308 721.604 401.54C722.829 400.748 724.233 400.352 725.816 400.352C727.113 400.352 728.265 400.628 729.273 401.18C730.305 401.708 731.097 402.464 731.649 403.448V392.504H736.148ZM727.005 415.76C728.493 415.76 729.645 415.244 730.461 414.212C731.301 413.18 731.721 411.716 731.721 409.82C731.721 407.924 731.313 406.46 730.497 405.428C729.681 404.396 728.529 403.88 727.041 403.88C725.529 403.88 724.353 404.396 723.513 405.428C722.697 406.436 722.289 407.876 722.289 409.748C722.289 411.644 722.697 413.12 723.513 414.176C724.353 415.232 725.517 415.76 727.005 415.76ZM750.842 400.388C751.538 400.388 752.138 400.484 752.642 400.676L752.606 404.78C751.838 404.468 751.046 404.312 750.23 404.312C748.694 404.312 747.518 404.756 746.702 405.644C745.91 406.532 745.514 407.708 745.514 409.172V419H741.05V405.968C741.05 404.048 740.954 402.332 740.762 400.82H744.974L745.334 404.024C745.79 402.848 746.51 401.948 747.494 401.324C748.478 400.7 749.594 400.388 750.842 400.388ZM770.708 410.144H758.18C758.276 412.088 758.756 413.528 759.62 414.464C760.508 415.376 761.816 415.832 763.544 415.832C765.536 415.832 767.384 415.184 769.088 413.888L770.384 416.984C769.52 417.68 768.452 418.244 767.18 418.676C765.932 419.084 764.66 419.288 763.364 419.288C760.388 419.288 758.048 418.448 756.344 416.768C754.64 415.088 753.788 412.784 753.788 409.856C753.788 408.008 754.16 406.364 754.904 404.924C755.648 403.484 756.692 402.368 758.036 401.576C759.38 400.76 760.904 400.352 762.608 400.352C765.104 400.352 767.072 401.168 768.512 402.8C769.976 404.408 770.708 406.628 770.708 409.46V410.144ZM762.716 403.592C761.516 403.592 760.532 403.952 759.764 404.672C759.02 405.368 758.54 406.388 758.324 407.732H766.784C766.64 406.364 766.22 405.332 765.524 404.636C764.852 403.94 763.916 403.592 762.716 403.592ZM781.178 419.288C777.89 419.288 775.274 418.52 773.33 416.984L774.59 413.816C776.534 415.256 778.754 415.976 781.25 415.976C782.33 415.976 783.158 415.796 783.734 415.436C784.334 415.076 784.634 414.572 784.634 413.924C784.634 413.372 784.43 412.94 784.022 412.628C783.614 412.292 782.918 412.004 781.934 411.764L778.91 411.08C775.598 410.36 773.942 408.668 773.942 406.004C773.942 404.9 774.254 403.928 774.878 403.088C775.502 402.224 776.378 401.552 777.506 401.072C778.634 400.592 779.942 400.352 781.43 400.352C782.726 400.352 783.974 400.556 785.174 400.964C786.374 401.348 787.43 401.912 788.342 402.656L787.01 405.716C785.186 404.372 783.314 403.7 781.394 403.7C780.362 403.7 779.558 403.892 778.982 404.276C778.406 404.66 778.118 405.188 778.118 405.86C778.118 406.388 778.286 406.808 778.622 407.12C778.982 407.432 779.582 407.696 780.422 407.912L783.518 408.596C785.318 409.004 786.626 409.64 787.442 410.504C788.282 411.344 788.702 412.448 788.702 413.816C788.702 415.496 788.03 416.828 786.686 417.812C785.342 418.796 783.506 419.288 781.178 419.288ZM799.213 419.288C795.925 419.288 793.309 418.52 791.365 416.984L792.625 413.816C794.569 415.256 796.789 415.976 799.285 415.976C800.365 415.976 801.193 415.796 801.769 415.436C802.369 415.076 802.669 414.572 802.669 413.924C802.669 413.372 802.465 412.94 802.057 412.628C801.649 412.292 800.953 412.004 799.969 411.764L796.945 411.08C793.633 410.36 791.977 408.668 791.977 406.004C791.977 404.9 792.289 403.928 792.913 403.088C793.537 402.224 794.413 401.552 795.541 401.072C796.669 400.592 797.977 400.352 799.465 400.352C800.761 400.352 802.009 400.556 803.209 400.964C804.409 401.348 805.465 401.912 806.377 402.656L805.045 405.716C803.221 404.372 801.349 403.7 799.429 403.7C798.397 403.7 797.593 403.892 797.017 404.276C796.441 404.66 796.153 405.188 796.153 405.86C796.153 406.388 796.321 406.808 796.657 407.12C797.017 407.432 797.617 407.696 798.457 407.912L801.553 408.596C803.353 409.004 804.661 409.64 805.477 410.504C806.317 411.344 806.737 412.448 806.737 413.816C806.737 415.496 806.065 416.828 804.721 417.812C803.377 418.796 801.541 419.288 799.213 419.288ZM826.501 410.144H813.973C814.069 412.088 814.549 413.528 815.413 414.464C816.301 415.376 817.609 415.832 819.337 415.832C821.329 415.832 823.177 415.184 824.881 413.888L826.177 416.984C825.313 417.68 824.245 418.244 822.973 418.676C821.725 419.084 820.453 419.288 819.157 419.288C816.181 419.288 813.841 418.448 812.137 416.768C810.433 415.088 809.581 412.784 809.581 409.856C809.581 408.008 809.953 406.364 810.697 404.924C811.441 403.484 812.485 402.368 813.829 401.576C815.173 400.76 816.697 400.352 818.401 400.352C820.897 400.352 822.865 401.168 824.305 402.8C825.769 404.408 826.501 406.628 826.501 409.46V410.144ZM818.509 403.592C817.309 403.592 816.325 403.952 815.557 404.672C814.813 405.368 814.333 406.388 814.117 407.732H822.577C822.433 406.364 822.013 405.332 821.317 404.636C820.645 403.94 819.709 403.592 818.509 403.592ZM844.762 401.216V406.22H839.722V401.216H844.762ZM844.762 413.96V419H839.722V413.96H844.762Z" fill="white"/>
        <line x1="593" y1="459" x2="593" y2="498" stroke="#04D99D" stroke-width="2"/>
        <path d="M1225.68 570.743C1245.22 570.743 1261.05 567.304 1261.05 563.062C1261.05 558.819 1245.22 555.38 1225.68 555.38C1206.15 555.38 1190.31 558.819 1190.31 563.062C1190.31 567.304 1206.15 570.743 1225.68 570.743Z" stroke="#3EE5B1" stroke-width="2" stroke-miterlimit="10"/>
        <path d="M1225.68 567.031C1227.75 566.913 1229.78 565.868 1231.05 563.923L1249.69 535.296H1201.67L1220.32 563.923C1221.59 565.868 1223.61 566.913 1225.68 567.031Z" fill="#FDECE0"/>
        <path d="M1225.68 553.104C1226.26 553.097 1226.85 553.075 1227.44 553.045C1247.42 552.066 1265.08 507.161 1264.26 498.699C1263.45 490.237 1252.79 482.246 1252.79 482.246H1198.56C1198.56 482.246 1187.9 490.237 1187.09 498.699C1186.28 507.161 1203.93 552.066 1223.91 553.045C1224.53 553.075 1225.11 553.097 1225.68 553.104Z" fill="#FFCDB6"/>
        <path d="M1225.68 587.152C1241.45 587.152 1254.23 585.042 1254.23 582.439C1254.23 579.835 1241.45 577.725 1225.68 577.725C1209.92 577.725 1197.14 579.835 1197.14 582.439C1197.14 585.042 1209.92 587.152 1225.68 587.152Z" stroke="#3EE5B1" stroke-width="2" stroke-miterlimit="10"/>
        <path d="M1225.68 601.263C1234.1 601.263 1240.93 599.668 1240.93 597.699C1240.93 595.73 1234.1 594.134 1225.68 594.134C1217.26 594.134 1210.43 595.73 1210.43 597.699C1210.43 599.668 1217.26 601.263 1225.68 601.263Z" stroke="#3EE5B1" stroke-width="2" stroke-miterlimit="10"/>
        <path d="M1238.15 388.829H1215.16V416.764H1238.15V388.829Z" fill="#45396D"/>
        <path d="M1225.68 500.562C1244.56 500.562 1259.87 479.594 1259.87 453.729C1259.87 427.863 1244.56 406.895 1225.68 406.895C1206.8 406.895 1191.49 427.863 1191.49 453.729C1191.49 479.594 1206.8 500.562 1225.68 500.562Z" fill="#45396D"/>
        <path d="M1331.86 507.301C1331.18 513.289 1329.05 529.971 1325.46 539.663C1324.2 543.073 1319.45 543.228 1317.89 539.943C1311.33 526.134 1307.82 506.948 1310.06 498.279C1312.18 490.023 1325.52 499.774 1330.36 503.634C1331.46 504.518 1332.02 505.902 1331.86 507.301Z" fill="#45396D"/>
        <path d="M1299.46 416.764C1307.08 416.764 1313.25 407.03 1313.25 395.023C1313.25 383.015 1307.08 373.281 1299.46 373.281C1291.85 373.281 1285.67 383.015 1285.67 395.023C1285.67 407.03 1291.85 416.764 1299.46 416.764Z" fill="#45396D"/>
        <path d="M1229.56 396.982L1229.57 434.808V434.816C1229.76 434.816 1232.49 434.639 1264.54 431.531C1271.38 430.868 1276.9 428.239 1281.35 424.416C1281.35 424.409 1281.35 424.409 1281.35 424.409C1300.5 407.926 1299.76 369.098 1299.74 368.421C1280.76 385.868 1256.31 396.54 1229.56 396.982Z" fill="#FFCDB6"/>
        <path d="M1229.57 434.816C1229.57 435 1229.59 440.244 1231.15 451.232C1264.97 460.6 1267.25 474.77 1268.85 474.078C1270.45 473.393 1289.19 464.717 1285.08 454.664C1281.02 444.736 1281.34 424.924 1281.35 424.416C1276.9 428.239 1271.38 430.868 1264.54 431.531C1232.49 434.639 1229.76 434.816 1229.57 434.816Z" fill="#FDECE0"/>
        <path d="M1307.52 377.391C1307.52 377.391 1312.82 362.263 1320.33 377.391C1327.85 392.519 1345.28 464.003 1330.73 509.82C1326.73 516.743 1318.32 518.909 1313.25 508.001C1308.18 497.094 1297.3 442.608 1299.46 416.757C1301.63 390.906 1307.52 377.391 1307.52 377.391Z" fill="#FDECE0"/>
        <path d="M1225.68 156.126C1226.26 156.118 1226.85 156.111 1227.44 156.111C1288.85 156.111 1338.64 210.037 1338.64 276.557C1338.64 313.375 1323.39 346.326 1299.36 368.413C1299.36 368.413 1299.36 368.413 1299.36 368.421C1280.37 385.868 1255.92 396.54 1229.17 396.982C1228.6 396.989 1228.02 396.997 1227.44 396.997C1226.85 396.997 1226.27 396.989 1225.68 396.982C1225.1 396.989 1224.51 396.997 1223.92 396.997C1223.35 396.997 1222.76 396.989 1222.19 396.982C1195.44 396.54 1170.99 385.868 1152.01 368.421C1152.01 368.413 1152.01 368.413 1152.01 368.413C1127.97 346.326 1112.73 313.375 1112.73 276.557C1112.73 210.037 1162.51 156.111 1223.92 156.111C1224.51 156.111 1225.1 156.118 1225.68 156.126Z" fill="#FDECE0"/>
        <path d="M1225.02 268.139C1183.87 268.625 1156.03 263.573 1144.94 263.853C1129.23 264.243 1132.37 301.149 1153.58 339.226C1170.65 369.879 1195.35 381.199 1225.02 379.74H1225.68C1255.36 381.199 1280.05 369.879 1297.12 339.226C1318.32 301.149 1321.47 264.243 1305.76 263.853C1294.67 263.573 1266.83 268.633 1225.68 268.139H1225.02Z" fill="#FFCDB6"/>
        <path d="M1072.13 199.933L1056.37 168.86C1056.37 168.86 1052.49 161.318 1058.88 159.035L1114.8 253.343L1113.04 267.108L1107.1 267.02L1072.13 199.933Z" fill="#45396D"/>
        <path d="M1072.13 199.933C1072.59 200.846 1103.86 293.902 1103.86 293.902L1109.93 265.422L1072.13 199.933Z" fill="#FFCDB6"/>
        <path d="M1117.78 322.566C1117.78 322.566 1104.01 311.35 1103.86 291.678C1103.72 272.006 1109.92 265.414 1109.92 265.414L1117.78 322.566Z" fill="#FFCDB6"/>
        <path d="M1126.94 335.389C1126.94 335.389 1120.41 337.598 1116.73 317.772C1113.04 297.945 1109.18 264.685 1109.86 260.369C1110.54 256.053 1109.5 252.268 1114.38 250.611C1119.25 248.946 1126.94 335.389 1126.94 335.389Z" fill="#45396D"/>
        <path d="M1379.26 199.999L1395.03 168.926C1395.03 168.926 1398.92 161.384 1392.52 159.101L1336.6 253.409L1338.35 267.175L1344.3 267.086L1379.26 199.999Z" fill="#45396D"/>
        <path d="M1379.26 199.999C1378.8 200.912 1347.53 293.968 1347.53 293.968L1341.47 265.488L1379.26 199.999Z" fill="#FFCDB6"/>
        <path d="M1333.62 322.64C1333.62 322.64 1347.38 311.423 1347.53 291.751C1347.68 272.08 1341.48 265.488 1341.48 265.488L1333.62 322.64Z" fill="#FFCDB6"/>
        <path d="M1324.45 335.455C1324.45 335.455 1330.99 337.664 1334.67 317.838C1338.35 298.012 1342.21 264.751 1341.53 260.436C1340.86 256.12 1341.9 252.334 1337.02 250.677C1332.14 249.013 1324.45 335.455 1324.45 335.455Z" fill="#45396D"/>
        <path d="M1222.18 434.816C1222.18 434.808 1222.18 434.808 1222.18 434.808C1222.18 434.808 1222.2 434.816 1222.18 434.816Z" fill="#03A678"/>
        <path d="M1026.29 425.16C1020.35 426.127 1003.83 429.026 994.361 432.657C991.03 433.932 991.142 437.883 994.507 438.951C1008.65 443.461 1027.99 445.079 1036.52 442.636C1044.63 440.312 1034.16 429.912 1030.03 426.158C1029.09 425.308 1027.68 424.931 1026.29 425.16Z" fill="#45396D"/>
        <path d="M1154.23 408.478C1154.23 408.478 1166.9 398.667 1150.17 396.325C1133.45 393.982 1060.12 400.055 1021.26 428.352C1015.95 434.337 1016.56 443.003 1028.51 444.36C1040.46 445.718 1095.6 438.81 1119.43 428.577C1143.27 418.344 1154.23 408.478 1154.23 408.478Z" fill="#FDECE0"/>
        <path d="M1134.81 418.262C1140.67 423.128 1151.63 419.585 1159.31 410.347C1166.98 401.11 1168.45 389.677 1162.59 384.811C1156.73 379.945 1145.76 383.488 1138.09 392.726C1130.42 401.963 1128.95 413.396 1134.81 418.262Z" fill="#45396D"/>
        <path d="M1222.19 396.982L1222.18 434.808V434.816C1221.99 434.816 1219.26 434.639 1187.21 431.531C1180.37 430.868 1174.85 428.239 1170.4 424.416C1170.4 424.409 1170.4 424.409 1170.4 424.409C1151.25 407.926 1151.99 369.098 1152.01 368.421C1170.99 385.868 1195.44 396.54 1222.19 396.982Z" fill="#FFCDB6"/>
        <path d="M1222.18 434.816C1222.18 435 1222.16 440.244 1220.6 451.232C1186.78 460.6 1184.49 474.771 1182.89 474.078C1181.3 473.393 1162.55 464.717 1166.67 454.664C1170.72 444.736 1170.41 424.925 1170.4 424.416C1174.85 428.239 1180.37 430.868 1187.21 431.531C1219.26 434.639 1221.99 434.816 1222.18 434.816Z" fill="#FDECE0"/>
        <path d="M1252.87 414.621C1252.85 416.219 1251.86 417.817 1249.69 417.817C1247.52 417.817 1246.51 416.256 1246.51 414.628C1246.51 413.001 1247.55 411.366 1249.69 411.366C1251.83 411.373 1252.89 413.008 1252.87 414.621ZM1247.67 414.65C1247.69 415.667 1248.24 416.749 1249.7 416.749C1251.16 416.749 1251.7 415.652 1251.72 414.636C1251.74 413.59 1251.16 412.426 1249.7 412.426C1248.24 412.434 1247.64 413.605 1247.67 414.65Z" fill="#FDECE0"/>
        <path d="M1256.54 414.047L1258.19 411.491H1259.59V411.543L1257.12 415.122V417.678H1255.96V415.122L1253.58 411.543V411.491H1254.97L1256.54 414.047Z" fill="#FDECE0"/>
        <path d="M1265.15 416.514H1261.92L1261.39 417.678H1260.12L1262.9 411.491H1264.17L1266.95 417.678H1265.68L1265.15 416.514ZM1263.54 412.795L1262.39 415.424H1264.69L1263.54 412.795Z" fill="#FDECE0"/>
        <path d="M1218.99 137.308C1225.12 125.988 1232.16 133.331 1238.89 114.668C1245.62 96.0057 1231.44 88 1231.44 88C1236.56 95.8363 1234.52 112.879 1216.11 121.054C1197.7 129.236 1202.81 146.618 1212.69 155.139C1222.15 163.277 1224.34 169.817 1224.8 170.458C1224.05 169.324 1213.03 148.334 1218.99 137.308Z" fill="#3EE5B1"/>
        <path d="M1234.6 92.0065C1234.6 92.0065 1244.4 100.528 1237.8 117.673C1231.2 134.826 1226.62 127.417 1221.11 137.684C1215.74 147.686 1224.36 169.331 1224.81 170.451C1224.81 170.458 1224.81 170.465 1224.81 170.473C1224.71 169.928 1222.62 159.322 1225.94 147.31C1229.36 134.981 1240.87 137.33 1245.03 122.475C1249.2 107.62 1231.49 84.266 1234.6 92.0065Z" fill="#3EE5B1"/>
        <path d="M1221.15 316.145C1222.14 294.206 1208.97 275.786 1191.72 275.002C1174.47 274.218 1159.68 291.368 1158.68 313.307C1157.68 335.246 1170.86 353.666 1188.11 354.449C1205.36 355.233 1220.15 338.084 1221.15 316.145Z" fill="white"/>
        <path d="M1266.47 354.448C1283.72 353.665 1296.9 335.244 1295.9 313.306C1294.9 291.367 1280.11 274.217 1262.86 275.001C1245.61 275.785 1232.43 294.205 1233.43 316.144C1234.43 338.083 1249.22 355.232 1266.47 354.448Z" fill="white"/>
        <path d="M778.944 100.412H765.552L762.708 107H759.648L770.916 81.368H773.508L784.776 107H781.752L778.944 100.412ZM777.9 97.964L772.248 84.788L766.596 97.964H777.9ZM797.282 88.46C798.866 88.46 800.27 88.856 801.494 89.648C802.718 90.44 803.666 91.556 804.338 92.996C805.01 94.412 805.346 96.056 805.346 97.928C805.346 99.8 805.01 101.444 804.338 102.86C803.666 104.252 802.718 105.332 801.494 106.1C800.294 106.868 798.89 107.252 797.282 107.252C795.866 107.252 794.63 106.94 793.574 106.316C792.518 105.692 791.714 104.804 791.162 103.652V114.776H788.246V93.968C788.246 92.096 788.15 90.404 787.958 88.892H790.729L791.018 92.384C791.522 91.136 792.314 90.176 793.394 89.504C794.498 88.808 795.794 88.46 797.282 88.46ZM796.742 104.84C798.518 104.84 799.886 104.24 800.846 103.04C801.83 101.84 802.322 100.136 802.322 97.928C802.322 95.72 801.83 94.004 800.846 92.78C799.862 91.532 798.494 90.908 796.742 90.908C794.942 90.908 793.562 91.508 792.602 92.708C791.642 93.908 791.162 95.624 791.162 97.856C791.162 100.088 791.642 101.816 792.602 103.04C793.562 104.24 794.942 104.84 796.742 104.84ZM818.867 88.46C820.451 88.46 821.855 88.856 823.079 89.648C824.303 90.44 825.251 91.556 825.923 92.996C826.595 94.412 826.931 96.056 826.931 97.928C826.931 99.8 826.595 101.444 825.923 102.86C825.251 104.252 824.303 105.332 823.079 106.1C821.879 106.868 820.475 107.252 818.867 107.252C817.451 107.252 816.215 106.94 815.159 106.316C814.103 105.692 813.299 104.804 812.747 103.652V114.776H809.831V93.968C809.831 92.096 809.735 90.404 809.543 88.892H812.315L812.603 92.384C813.107 91.136 813.899 90.176 814.979 89.504C816.083 88.808 817.379 88.46 818.867 88.46ZM818.327 104.84C820.103 104.84 821.471 104.24 822.431 103.04C823.415 101.84 823.907 100.136 823.907 97.928C823.907 95.72 823.415 94.004 822.431 92.78C821.447 91.532 820.079 90.908 818.327 90.908C816.527 90.908 815.147 91.508 814.187 92.708C813.227 93.908 812.747 95.624 812.747 97.856C812.747 100.088 813.227 101.816 814.187 103.04C815.147 104.24 816.527 104.84 818.327 104.84ZM846.573 88.892V107H843.729V103.868C843.153 104.972 842.349 105.812 841.317 106.388C840.285 106.964 839.121 107.252 837.825 107.252C835.689 107.252 834.069 106.652 832.965 105.452C831.861 104.252 831.309 102.476 831.309 100.124V88.892H834.225V100.052C834.225 101.684 834.561 102.884 835.233 103.652C835.905 104.42 836.925 104.804 838.293 104.804C839.901 104.804 841.197 104.288 842.181 103.256C843.165 102.2 843.657 100.82 843.657 99.116V88.892H846.573ZM852.195 88.892H855.111V107H852.195V88.892ZM855.471 81.224V84.536H851.907V81.224H855.471ZM866.893 107.252C863.845 107.252 861.433 106.472 859.657 104.912L860.629 102.752C861.613 103.52 862.609 104.072 863.617 104.408C864.625 104.744 865.753 104.912 867.001 104.912C868.369 104.912 869.401 104.684 870.097 104.228C870.817 103.748 871.177 103.064 871.177 102.176C871.177 101.456 870.937 100.88 870.457 100.448C869.977 100.016 869.185 99.68 868.081 99.44L865.021 98.72C863.509 98.384 862.333 97.784 861.493 96.92C860.677 96.056 860.269 95.024 860.269 93.824C860.269 92.24 860.905 90.956 862.177 89.972C863.449 88.964 865.129 88.46 867.217 88.46C868.489 88.46 869.689 88.664 870.817 89.072C871.945 89.48 872.893 90.068 873.661 90.836L872.689 92.96C870.985 91.544 869.161 90.836 867.217 90.836C865.921 90.836 864.913 91.088 864.193 91.592C863.497 92.072 863.149 92.756 863.149 93.644C863.149 94.388 863.365 94.976 863.797 95.408C864.253 95.84 864.973 96.176 865.957 96.416L869.017 97.172C870.697 97.556 871.945 98.156 872.761 98.972C873.577 99.764 873.985 100.808 873.985 102.104C873.985 103.664 873.349 104.912 872.077 105.848C870.805 106.784 869.077 107.252 866.893 107.252ZM894.139 107.252C891.091 107.252 888.679 106.472 886.903 104.912L887.875 102.752C888.859 103.52 889.855 104.072 890.863 104.408C891.871 104.744 892.999 104.912 894.247 104.912C895.615 104.912 896.647 104.684 897.343 104.228C898.063 103.748 898.423 103.064 898.423 102.176C898.423 101.456 898.183 100.88 897.703 100.448C897.223 100.016 896.431 99.68 895.327 99.44L892.267 98.72C890.755 98.384 889.579 97.784 888.739 96.92C887.923 96.056 887.515 95.024 887.515 93.824C887.515 92.24 888.151 90.956 889.423 89.972C890.695 88.964 892.375 88.46 894.463 88.46C895.735 88.46 896.935 88.664 898.063 89.072C899.191 89.48 900.139 90.068 900.907 90.836L899.935 92.96C898.231 91.544 896.407 90.836 894.463 90.836C893.167 90.836 892.159 91.088 891.439 91.592C890.743 92.072 890.395 92.756 890.395 93.644C890.395 94.388 890.611 94.976 891.043 95.408C891.499 95.84 892.219 96.176 893.203 96.416L896.263 97.172C897.943 97.556 899.191 98.156 900.007 98.972C900.823 99.764 901.231 100.808 901.231 102.104C901.231 103.664 900.595 104.912 899.323 105.848C898.051 106.784 896.323 107.252 894.139 107.252ZM921.034 88.892V107H918.19V103.868C917.614 104.972 916.81 105.812 915.778 106.388C914.746 106.964 913.582 107.252 912.286 107.252C910.15 107.252 908.53 106.652 907.426 105.452C906.322 104.252 905.77 102.476 905.77 100.124V88.892H908.686V100.052C908.686 101.684 909.022 102.884 909.694 103.652C910.366 104.42 911.386 104.804 912.754 104.804C914.362 104.804 915.658 104.288 916.642 103.256C917.626 102.2 918.118 100.82 918.118 99.116V88.892H921.034ZM935.08 88.46C935.68 88.46 936.232 88.532 936.736 88.676L936.664 91.34C936.112 91.148 935.476 91.052 934.756 91.052C933.004 91.052 931.696 91.604 930.832 92.708C929.992 93.788 929.572 95.108 929.572 96.668V107H926.656V93.968C926.656 92.096 926.56 90.404 926.368 88.892H929.14L929.428 92.24C929.884 91.016 930.616 90.08 931.624 89.432C932.632 88.784 933.784 88.46 935.08 88.46ZM995.668 88.46C997.252 88.46 998.656 88.856 999.88 89.648C1001.1 90.44 1002.05 91.556 1002.72 92.996C1003.4 94.412 1003.73 96.056 1003.73 97.928C1003.73 99.8 1003.4 101.444 1002.72 102.86C1002.05 104.252 1001.1 105.332 999.88 106.1C998.68 106.868 997.276 107.252 995.668 107.252C994.252 107.252 993.016 106.94 991.96 106.316C990.904 105.692 990.1 104.804 989.548 103.652V114.776H986.632V93.968C986.632 92.096 986.536 90.404 986.344 88.892H989.116L989.404 92.384C989.908 91.136 990.7 90.176 991.78 89.504C992.884 88.808 994.18 88.46 995.668 88.46ZM995.128 104.84C996.904 104.84 998.272 104.24 999.232 103.04C1000.22 101.84 1000.71 100.136 1000.71 97.928C1000.71 95.72 1000.22 94.004 999.232 92.78C998.248 91.532 996.88 90.908 995.128 90.908C993.328 90.908 991.948 91.508 990.988 92.708C990.028 93.908 989.548 95.624 989.548 97.856C989.548 100.088 990.028 101.816 990.988 103.04C991.948 104.24 993.328 104.84 995.128 104.84ZM1015.71 107.252C1014 107.252 1012.5 106.868 1011.21 106.1C1009.91 105.332 1008.9 104.24 1008.18 102.824C1007.49 101.408 1007.14 99.752 1007.14 97.856C1007.14 95.96 1007.49 94.304 1008.18 92.888C1008.9 91.472 1009.91 90.38 1011.21 89.612C1012.5 88.844 1014 88.46 1015.71 88.46C1017.41 88.46 1018.91 88.844 1020.21 89.612C1021.5 90.38 1022.5 91.472 1023.19 92.888C1023.91 94.304 1024.27 95.96 1024.27 97.856C1024.27 99.752 1023.91 101.408 1023.19 102.824C1022.5 104.24 1021.5 105.332 1020.21 106.1C1018.91 106.868 1017.41 107.252 1015.71 107.252ZM1015.71 104.84C1017.51 104.84 1018.89 104.252 1019.85 103.076C1020.81 101.876 1021.29 100.136 1021.29 97.856C1021.29 95.648 1020.79 93.944 1019.81 92.744C1018.83 91.52 1017.46 90.908 1015.71 90.908C1013.93 90.908 1012.55 91.52 1011.57 92.744C1010.58 93.944 1010.09 95.648 1010.09 97.856C1010.09 100.136 1010.57 101.876 1011.53 103.076C1012.51 104.252 1013.91 104.84 1015.71 104.84ZM1043.98 88.892V107H1041.13V103.868C1040.56 104.972 1039.75 105.812 1038.72 106.388C1037.69 106.964 1036.52 107.252 1035.23 107.252C1033.09 107.252 1031.47 106.652 1030.37 105.452C1029.26 104.252 1028.71 102.476 1028.71 100.124V88.892H1031.63V100.052C1031.63 101.684 1031.96 102.884 1032.64 103.652C1033.31 104.42 1034.33 104.804 1035.7 104.804C1037.3 104.804 1038.6 104.288 1039.58 103.256C1040.57 102.2 1041.06 100.82 1041.06 99.116V88.892H1043.98ZM1058.02 88.46C1058.62 88.46 1059.17 88.532 1059.68 88.676L1059.61 91.34C1059.05 91.148 1058.42 91.052 1057.7 91.052C1055.95 91.052 1054.64 91.604 1053.77 92.708C1052.93 93.788 1052.51 95.108 1052.51 96.668V107H1049.6V93.968C1049.6 92.096 1049.5 90.404 1049.31 88.892H1052.08L1052.37 92.24C1052.83 91.016 1053.56 90.08 1054.57 89.432C1055.57 88.784 1056.73 88.46 1058.02 88.46ZM1088.26 88.892C1088.07 90.404 1087.97 92.096 1087.97 93.968V114.776H1085.06V103.796C1084.53 104.9 1083.74 105.752 1082.68 106.352C1081.63 106.952 1080.39 107.252 1078.97 107.252C1077.37 107.252 1075.95 106.868 1074.73 106.1C1073.53 105.332 1072.59 104.252 1071.92 102.86C1071.27 101.444 1070.95 99.8 1070.95 97.928C1070.95 96.056 1071.28 94.412 1071.95 92.996C1072.63 91.556 1073.56 90.44 1074.76 89.648C1075.99 88.856 1077.39 88.46 1078.97 88.46C1080.44 88.46 1081.71 88.796 1082.79 89.468C1083.87 90.116 1084.67 91.052 1085.2 92.276L1085.56 88.892H1088.26ZM1079.55 104.84C1081.33 104.84 1082.69 104.24 1083.65 103.04C1084.61 101.816 1085.09 100.088 1085.09 97.856C1085.09 95.624 1084.61 93.908 1083.65 92.708C1082.69 91.508 1081.33 90.908 1079.55 90.908C1077.77 90.908 1076.38 91.532 1075.37 92.78C1074.39 94.004 1073.9 95.72 1073.9 97.928C1073.9 100.136 1074.39 101.84 1075.37 103.04C1076.36 104.24 1077.75 104.84 1079.55 104.84ZM1108.77 88.892V107H1105.92V103.868C1105.35 104.972 1104.54 105.812 1103.51 106.388C1102.48 106.964 1101.32 107.252 1100.02 107.252C1097.88 107.252 1096.26 106.652 1095.16 105.452C1094.06 104.252 1093.5 102.476 1093.5 100.124V88.892H1096.42V100.052C1096.42 101.684 1096.76 102.884 1097.43 103.652C1098.1 104.42 1099.12 104.804 1100.49 104.804C1102.1 104.804 1103.39 104.288 1104.38 103.256C1105.36 102.2 1105.85 100.82 1105.85 99.116V88.892H1108.77ZM1129.55 97.856H1116.26C1116.29 100.16 1116.81 101.9 1117.85 103.076C1118.9 104.252 1120.43 104.84 1122.42 104.84C1124.53 104.84 1126.47 104.132 1128.25 102.716L1129.22 104.84C1128.43 105.584 1127.41 106.172 1126.16 106.604C1124.94 107.036 1123.68 107.252 1122.38 107.252C1119.55 107.252 1117.33 106.424 1115.72 104.768C1114.11 103.088 1113.31 100.796 1113.31 97.892C1113.31 96.044 1113.67 94.412 1114.39 92.996C1115.11 91.556 1116.12 90.44 1117.41 89.648C1118.71 88.856 1120.19 88.46 1121.84 88.46C1124.24 88.46 1126.13 89.252 1127.49 90.836C1128.86 92.396 1129.55 94.556 1129.55 97.316V97.856ZM1121.88 90.728C1120.37 90.728 1119.13 91.184 1118.17 92.096C1117.23 93.008 1116.63 94.292 1116.37 95.948H1126.92C1126.77 94.244 1126.27 92.948 1125.41 92.06C1124.57 91.172 1123.39 90.728 1121.88 90.728ZM757.02 157.112C757.668 157.304 758.256 157.4 758.784 157.4C760.8 157.4 761.808 156.2 761.808 153.8V133.892H764.724V154.16C764.724 156.056 764.244 157.484 763.284 158.444C762.348 159.428 761.052 159.92 759.396 159.92C758.604 159.92 757.812 159.812 757.02 159.596V157.112ZM765.048 126.224V129.536H761.484V126.224H765.048ZM785.542 142.856H772.258C772.282 145.16 772.81 146.9 773.842 148.076C774.898 149.252 776.422 149.84 778.414 149.84C780.526 149.84 782.47 149.132 784.246 147.716L785.218 149.84C784.426 150.584 783.406 151.172 782.158 151.604C780.934 152.036 779.674 152.252 778.378 152.252C775.546 152.252 773.326 151.424 771.718 149.768C770.11 148.088 769.306 145.796 769.306 142.892C769.306 141.044 769.666 139.412 770.386 137.996C771.106 136.556 772.114 135.44 773.41 134.648C774.706 133.856 776.182 133.46 777.838 133.46C780.238 133.46 782.122 134.252 783.49 135.836C784.858 137.396 785.542 139.556 785.542 142.316V142.856ZM777.874 135.728C776.362 135.728 775.126 136.184 774.166 137.096C773.23 138.008 772.63 139.292 772.366 140.948H782.914C782.77 139.244 782.266 137.948 781.402 137.06C780.562 136.172 779.386 135.728 777.874 135.728ZM803.243 136.196V146.096C803.243 147.44 803.519 148.388 804.071 148.94C804.623 149.468 805.403 149.732 806.411 149.732C807.083 149.732 807.731 149.624 808.355 149.408V151.892C807.611 152.132 806.771 152.252 805.835 152.252C804.107 152.252 802.751 151.772 801.767 150.812C800.807 149.828 800.327 148.388 800.327 146.492V136.196H796.799V133.892H800.327V129.248L803.243 128.204V133.892H808.427V136.196H803.243ZM827.097 142.856H813.813C813.837 145.16 814.365 146.9 815.397 148.076C816.453 149.252 817.977 149.84 819.969 149.84C822.081 149.84 824.025 149.132 825.801 147.716L826.773 149.84C825.981 150.584 824.961 151.172 823.713 151.604C822.489 152.036 821.229 152.252 819.933 152.252C817.101 152.252 814.881 151.424 813.273 149.768C811.665 148.088 810.861 145.796 810.861 142.892C810.861 141.044 811.221 139.412 811.941 137.996C812.661 136.556 813.669 135.44 814.965 134.648C816.261 133.856 817.737 133.46 819.393 133.46C821.793 133.46 823.677 134.252 825.045 135.836C826.413 137.396 827.097 139.556 827.097 142.316V142.856ZM819.429 135.728C817.917 135.728 816.681 136.184 815.721 137.096C814.785 138.008 814.185 139.292 813.921 140.948H824.469C824.325 139.244 823.821 137.948 822.957 137.06C822.117 136.172 820.941 135.728 819.429 135.728ZM840.91 125.504H843.826V152H840.91V125.504ZM856.976 152.252C855.272 152.252 853.772 151.868 852.476 151.1C851.18 150.332 850.172 149.24 849.452 147.824C848.756 146.408 848.408 144.752 848.408 142.856C848.408 140.96 848.756 139.304 849.452 137.888C850.172 136.472 851.18 135.38 852.476 134.612C853.772 133.844 855.272 133.46 856.976 133.46C858.68 133.46 860.18 133.844 861.476 134.612C862.772 135.38 863.768 136.472 864.464 137.888C865.184 139.304 865.544 140.96 865.544 142.856C865.544 144.752 865.184 146.408 864.464 147.824C863.768 149.24 862.772 150.332 861.476 151.1C860.18 151.868 858.68 152.252 856.976 152.252ZM856.976 149.84C858.776 149.84 860.156 149.252 861.116 148.076C862.076 146.876 862.556 145.136 862.556 142.856C862.556 140.648 862.064 138.944 861.08 137.744C860.096 136.52 858.728 135.908 856.976 135.908C855.2 135.908 853.82 136.52 852.836 137.744C851.852 138.944 851.36 140.648 851.36 142.856C851.36 145.136 851.84 146.876 852.8 148.076C853.784 149.252 855.176 149.84 856.976 149.84ZM877.685 152.252C875.933 152.252 874.397 151.868 873.077 151.1C871.781 150.332 870.773 149.252 870.053 147.86C869.357 146.444 869.009 144.8 869.009 142.928C869.009 141.056 869.369 139.412 870.089 137.996C870.809 136.556 871.829 135.44 873.149 134.648C874.493 133.856 876.053 133.46 877.829 133.46C879.053 133.46 880.229 133.676 881.357 134.108C882.509 134.516 883.457 135.092 884.201 135.836L883.229 137.996C882.317 137.276 881.429 136.748 880.565 136.412C879.725 136.076 878.861 135.908 877.973 135.908C876.125 135.908 874.673 136.532 873.617 137.78C872.561 139.004 872.033 140.72 872.033 142.928C872.033 145.112 872.549 146.816 873.581 148.04C874.637 149.24 876.101 149.84 877.973 149.84C878.861 149.84 879.725 149.672 880.565 149.336C881.429 149 882.317 148.472 883.229 147.752L884.201 149.912C883.433 150.632 882.461 151.208 881.285 151.64C880.133 152.048 878.933 152.252 877.685 152.252ZM903.861 133.892V152H900.981V148.724C900.453 149.852 899.649 150.728 898.569 151.352C897.513 151.952 896.277 152.252 894.861 152.252C893.253 152.252 891.837 151.868 890.613 151.1C889.413 150.332 888.477 149.252 887.805 147.86C887.157 146.444 886.833 144.8 886.833 142.928C886.833 141.056 887.169 139.412 887.841 137.996C888.513 136.556 889.449 135.44 890.649 134.648C891.873 133.856 893.277 133.46 894.861 133.46C896.277 133.46 897.513 133.772 898.569 134.396C899.625 135.02 900.429 135.896 900.981 137.024V133.892H903.861ZM895.437 149.84C897.213 149.84 898.581 149.24 899.541 148.04C900.501 146.816 900.981 145.088 900.981 142.856C900.981 140.624 900.501 138.908 899.541 137.708C898.581 136.508 897.213 135.908 895.437 135.908C893.661 135.908 892.269 136.532 891.261 137.78C890.277 139.004 889.785 140.72 889.785 142.928C889.785 145.136 890.277 146.84 891.261 148.04C892.245 149.24 893.637 149.84 895.437 149.84ZM909.499 125.504H912.415V152H909.499V125.504ZM918.078 133.892H920.994V152H918.078V133.892ZM921.354 126.224V129.536H917.79V126.224H921.354ZM932.776 152.252C929.728 152.252 927.316 151.472 925.54 149.912L926.512 147.752C927.496 148.52 928.492 149.072 929.5 149.408C930.508 149.744 931.636 149.912 932.884 149.912C934.252 149.912 935.284 149.684 935.98 149.228C936.7 148.748 937.06 148.064 937.06 147.176C937.06 146.456 936.82 145.88 936.34 145.448C935.86 145.016 935.068 144.68 933.964 144.44L930.904 143.72C929.392 143.384 928.216 142.784 927.376 141.92C926.56 141.056 926.152 140.024 926.152 138.824C926.152 137.24 926.788 135.956 928.06 134.972C929.332 133.964 931.012 133.46 933.1 133.46C934.372 133.46 935.572 133.664 936.7 134.072C937.828 134.48 938.776 135.068 939.544 135.836L938.572 137.96C936.868 136.544 935.044 135.836 933.1 135.836C931.804 135.836 930.796 136.088 930.076 136.592C929.38 137.072 929.032 137.756 929.032 138.644C929.032 139.388 929.248 139.976 929.68 140.408C930.136 140.84 930.856 141.176 931.84 141.416L934.9 142.172C936.58 142.556 937.828 143.156 938.644 143.972C939.46 144.764 939.868 145.808 939.868 147.104C939.868 148.664 939.232 149.912 937.96 150.848C936.688 151.784 934.96 152.252 932.776 152.252ZM959.671 142.856H946.387C946.411 145.16 946.939 146.9 947.971 148.076C949.027 149.252 950.551 149.84 952.543 149.84C954.655 149.84 956.599 149.132 958.375 147.716L959.347 149.84C958.555 150.584 957.535 151.172 956.287 151.604C955.063 152.036 953.803 152.252 952.507 152.252C949.675 152.252 947.455 151.424 945.847 149.768C944.239 148.088 943.435 145.796 943.435 142.892C943.435 141.044 943.795 139.412 944.515 137.996C945.235 136.556 946.243 135.44 947.539 134.648C948.835 133.856 950.311 133.46 951.967 133.46C954.367 133.46 956.251 134.252 957.619 135.836C958.987 137.396 959.671 139.556 959.671 142.316V142.856ZM952.003 135.728C950.491 135.728 949.255 136.184 948.295 137.096C947.359 138.008 946.759 139.292 946.495 140.948H957.043C956.899 139.244 956.395 137.948 955.531 137.06C954.691 136.172 953.515 135.728 952.003 135.728Z" fill="#45396D"/>
        <path d="M959.5 72C952.044 72 946 78.0047 946 85.4115C946 89.1998 949.718 95.9906 949.718 95.9906L957.691 109.519C958.289 110.531 959.748 110.549 960.367 109.551L968.695 96.1747C968.695 96.1747 973 89.6955 973 85.4115C972.996 78.0047 966.953 72 959.5 72ZM959.44 92.8005C955.014 92.8005 951.463 89.0865 951.725 84.6007C951.952 80.7522 955.074 77.6117 958.919 77.3603C963.423 77.0665 967.169 80.6282 967.169 85.0681C967.169 89.3415 963.706 92.8005 959.44 92.8005Z" fill="#45396D"/>
        <circle cx="1024.5" cy="179.5" r="7.5" stroke="#45396D" stroke-width="2"/>
        <circle cx="1001" cy="153" r="12" stroke="#45396D" stroke-width="2"/>
        <circle cx="1042.5" cy="198.5" r="4.5" stroke="#45396D" stroke-width="2"/>
        <path fill-rule="evenodd" clip-rule="evenodd" d="M1440 802.348H0V551C69.5773 579.761 155.536 624.382 256.951 677.027C262.914 680.123 268.93 683.246 275 686.395C331 715.451 529.5 782.951 817 749.895C850.255 746.072 882.263 742.362 913.139 738.784C1131.96 713.425 1293.91 694.657 1440 688.537V802.348Z" fill="#025949"/>
        <path fill-rule="evenodd" clip-rule="evenodd" d="M243.734 716.456C232.052 688.72 205.973 677.217 183.659 688.916L166.86 649.031C166.431 648.013 165.346 647.695 164.436 648.321L159.624 651.628C158.714 652.254 158.324 653.587 158.752 654.605L175.513 694.399C155.039 711.549 147.888 746.163 159.705 774.221C165.734 788.534 175.596 798.524 186.796 803.234C187.229 809.557 188.654 815.873 191.158 821.817C201.015 845.221 223.856 853.985 242.174 841.391C260.493 828.798 267.353 799.617 257.496 776.213C254.992 770.269 251.651 765.27 247.76 761.325C250.854 746.788 249.762 730.769 243.734 716.456Z" fill="#002922" fill-opacity="0.15"/>
        <rect x="157.921" y="583.316" width="12.0614" height="71.2719" rx="2" fill="#FFCDB6"/>
        <circle cx="164.5" cy="543.842" r="62.5" fill="#03A678"/>
        <circle cx="164.5" cy="481.342" r="49.3421" fill="#03A678"/>
        <circle cx="188.5" cy="40.5" r="17.5" fill="white"/>
        <path d="M188.5 33V48" stroke="#FFCDB6" stroke-width="2" stroke-miterlimit="10" stroke-linecap="round"/>
        <path d="M196 40.5H181" stroke="#FFCDB6" stroke-width="2" stroke-miterlimit="10" stroke-linecap="round"/>
    </g>
    <defs>
        <linearGradient id="paint0_linear" x1="60" y1="-405.336" x2="1913.69" y2="-405.336" gradientUnits="userSpaceOnUse">
            <stop stop-color="white"/>
            <stop offset="1" stop-color="#FDECE0"/>
        </linearGradient>
        <linearGradient id="paint1_linear" x1="360.204" y1="-297.875" x2="1729.42" y2="-297.875" gradientUnits="userSpaceOnUse">
            <stop stop-color="white"/>
            <stop offset="1" stop-color="#FDECE0"/>
        </linearGradient>
        <clipPath id="clip0">
            <rect width="1440" height="800" fill="white"/>
        </clipPath>
    </defs>
</svg>
