<svg width="1440" height="800" viewBox="0 0 1440 800" fill="none" xmlns="http://www.w3.org/2000/svg">
    <g clip-path="url(#clip0)">
        <rect width="1440" height="800" fill="white"/>
        <path d="M1141.5 565C1019.1 565 978.833 696.333 974 762V797H1440.5V246C1291.5 246 1267 334.5 1257.5 384C1248 433.5 1294.5 565 1141.5 565Z" fill="#FDECE0"/>
        <path d="M727.201 786.519H707.445V810.432H727.201V786.519Z" fill="#45396D"/>
        <path d="M779.878 810.432C786.423 810.432 791.728 802.1 791.728 791.821C791.728 781.542 786.423 773.21 779.878 773.21C773.334 773.21 768.029 781.542 768.029 791.821C768.029 802.1 773.334 810.432 779.878 810.432Z" fill="#45396D"/>
        <path d="M719.814 793.498L719.826 825.879V825.885C719.985 825.885 722.333 825.734 749.868 823.073C755.749 822.506 760.49 820.255 764.313 816.983C764.313 816.976 764.313 816.976 764.313 816.976C780.771 802.867 780.132 769.629 780.119 769.049C763.807 783.984 742.798 793.12 719.814 793.498Z" fill="#FFCDB6"/>
        <path d="M786.803 776.728C786.803 776.728 791.355 763.778 797.811 776.728C804.268 789.677 819.251 850.87 806.749 890.091C803.312 896.018 796.083 897.871 791.728 888.534C787.373 879.197 778.018 832.555 779.879 810.426C781.74 788.297 786.803 776.728 786.803 776.728Z" fill="#FDECE0"/>
        <path d="M716.484 587.318C716.984 587.311 717.491 587.305 717.997 587.305C770.763 587.305 813.541 633.468 813.541 690.411C813.541 721.928 800.438 750.135 779.79 769.042C779.79 769.042 779.79 769.042 779.79 769.049C763.478 783.984 742.469 793.12 719.485 793.498C718.991 793.504 718.491 793.511 717.997 793.511C717.491 793.511 716.991 793.504 716.484 793.498C715.984 793.504 715.478 793.511 714.971 793.511C714.478 793.511 713.977 793.504 713.484 793.498C690.5 793.12 669.491 783.984 653.178 769.049C653.178 769.042 653.178 769.042 653.178 769.042C632.53 750.135 619.427 721.928 619.427 690.411C619.427 633.468 662.205 587.305 714.971 587.305C715.478 587.305 715.984 587.311 716.484 587.318Z" fill="#FDECE0"/>
        <path d="M715.914 683.205C680.562 683.621 656.635 679.296 647.108 679.536C633.613 679.87 636.309 711.462 654.533 744.057C669.199 770.297 690.424 779.987 715.914 778.739H716.484C741.981 779.987 763.199 770.297 777.865 744.057C796.083 711.462 798.786 679.87 785.29 679.536C775.764 679.296 751.837 683.627 716.484 683.205H715.914Z" fill="#FFCDB6"/>
        <path d="M584.549 624.818L571.003 598.218C571.003 598.218 567.667 591.763 573.162 589.808L621.206 670.539L619.699 682.322L614.591 682.247L584.549 624.818Z" fill="#45396D"/>
        <path d="M584.549 624.818C584.942 625.599 611.812 705.258 611.812 705.258L617.022 680.878L584.549 624.818Z" fill="#FFCDB6"/>
        <path d="M623.77 729.796C623.77 729.796 611.939 720.194 611.812 703.355C611.686 686.515 617.015 680.872 617.015 680.872L623.77 729.796Z" fill="#FFCDB6"/>
        <path d="M631.644 740.772C631.644 740.772 626.029 742.664 622.864 725.692C619.7 708.72 616.383 680.248 616.965 676.554C617.547 672.859 616.655 669.618 620.845 668.2C625.036 666.775 631.644 740.772 631.644 740.772Z" fill="#45396D"/>
        <path d="M848.444 624.874L861.997 598.275C861.997 598.275 865.333 591.819 859.838 589.865L811.788 670.596L813.294 682.379L818.402 682.303L848.444 624.874Z" fill="#45396D"/>
        <path d="M848.444 624.875C848.052 625.656 821.181 705.315 821.181 705.315L815.972 680.935L848.444 624.875Z" fill="#FFCDB6"/>
        <path d="M809.224 729.859C809.224 729.859 821.055 720.257 821.181 703.418C821.308 686.578 815.978 680.935 815.978 680.935L809.224 729.859Z" fill="#FFCDB6"/>
        <path d="M801.35 740.829C801.35 740.829 806.964 742.721 810.129 725.749C813.294 708.776 816.611 680.305 816.029 676.61C815.446 672.916 816.339 669.675 812.148 668.257C807.958 666.832 801.35 740.829 801.35 740.829Z" fill="#45396D"/>
        <path d="M653.425 810.432C659.97 810.432 665.275 802.1 665.275 791.821C665.275 781.542 659.97 773.21 653.425 773.21C646.881 773.21 641.576 781.542 641.576 791.821C641.576 802.1 646.881 810.432 653.425 810.432Z" fill="#45396D"/>
        <path d="M713.484 793.498L713.471 825.879V825.885C713.313 825.885 710.964 825.734 683.429 823.073C677.549 822.506 672.807 820.255 668.984 816.983C668.984 816.976 668.984 816.976 668.984 816.976C652.526 802.867 653.166 769.629 653.178 769.049C669.491 783.984 690.5 793.12 713.484 793.498Z" fill="#FFCDB6"/>
        <path d="M646.5 776.728C646.5 776.728 641.949 763.778 635.493 776.728C629.036 789.677 614.053 850.87 626.555 890.091C629.992 896.018 637.221 897.871 641.576 888.534C645.931 879.197 655.286 832.555 653.425 810.426C651.564 788.297 646.5 776.728 646.5 776.728Z" fill="#FDECE0"/>
        <path d="M712.587 724.299C713.444 705.519 702.123 689.751 687.301 689.08C672.479 688.409 659.769 703.089 658.912 721.87C658.055 740.65 669.376 756.418 684.198 757.089C699.02 757.76 711.73 743.079 712.587 724.299Z" fill="white"/>
        <path d="M751.531 757.088C766.353 756.417 777.674 740.649 776.817 721.869C775.96 703.088 763.25 688.408 748.428 689.079C733.606 689.75 722.285 705.518 723.142 724.298C723.999 743.078 736.709 757.759 751.531 757.088Z" fill="white"/>
        <path d="M734.169 540.595C733.975 539.927 733.135 539.799 732.668 540.328C725.004 548.944 713.904 550.608 710.823 561.2C708.832 568.035 710.912 573.395 712.241 575.894C712.286 575.972 712.33 576.039 712.38 576.089C710.011 586.085 710.506 590.933 711.084 593.031C711.301 593.811 712.163 594.211 712.908 593.894C713.542 593.621 713.865 592.914 713.659 592.252C712.959 590.004 711.001 584.788 713.815 575.026C716.062 568.425 718.703 564.996 720.8 563.209C722.897 561.545 724.526 561.284 724.526 561.284C719.465 567.195 717.997 574.174 717.585 577.742C717.419 579.111 718.397 580.336 719.76 580.452C729.526 581.276 734.419 573.54 736.444 564.078C738.19 555.918 735.359 544.725 734.169 540.595Z" fill="#04D99D"/>
        <rect x="342" y="355" width="161" height="124" rx="33" fill="#FFCDB6"/>
        <rect x="540" y="355" width="161" height="124" rx="33" fill="#FFCDB6"/>
        <rect x="738" y="355" width="161" height="124" rx="33" fill="#FFCDB6"/>
        <rect x="936" y="355" width="161" height="124" rx="33" fill="#FFCDB6"/>
        <path d="M406.036 420.324C402.988 420.324 400.66 419.208 399.052 416.976C397.468 414.72 396.676 411.444 396.676 407.148C396.676 402.924 397.468 399.696 399.052 397.464C400.66 395.232 402.988 394.116 406.036 394.116C409.084 394.116 411.4 395.232 412.984 397.464C414.592 399.672 415.396 402.9 415.396 407.148C415.396 411.42 414.592 414.684 412.984 416.94C411.4 419.196 409.084 420.324 406.036 420.324ZM406.036 416.688C407.692 416.688 408.892 415.932 409.636 414.42C410.404 412.884 410.788 410.46 410.788 407.148C410.788 403.884 410.404 401.508 409.636 400.02C408.892 398.508 407.692 397.752 406.036 397.752C404.38 397.752 403.168 398.508 402.4 400.02C401.656 401.508 401.284 403.884 401.284 407.148C401.284 410.46 401.656 412.884 402.4 414.42C403.168 415.932 404.38 416.688 406.036 416.688ZM415.922 422.124L425.246 392.892H429.098L419.702 422.124H415.922ZM442.938 406.824C444.45 407.232 445.602 407.976 446.394 409.056C447.21 410.136 447.618 411.468 447.618 413.052C447.618 415.284 446.79 417.048 445.134 418.344C443.502 419.64 441.294 420.288 438.51 420.288C436.782 420.288 435.114 420.024 433.506 419.496C431.922 418.968 430.614 418.236 429.582 417.3L431.166 413.916C433.446 415.692 435.834 416.58 438.33 416.58C439.962 416.58 441.174 416.256 441.966 415.608C442.782 414.96 443.19 413.976 443.19 412.656C443.19 411.36 442.782 410.412 441.966 409.812C441.15 409.188 439.89 408.876 438.186 408.876H434.802V405.168H437.574C440.886 405.168 442.542 403.908 442.542 401.388C442.542 400.212 442.182 399.312 441.462 398.688C440.742 398.064 439.734 397.752 438.438 397.752C436.134 397.752 433.83 398.64 431.526 400.416L429.978 397.032C431.01 396.12 432.306 395.4 433.866 394.872C435.45 394.32 437.07 394.044 438.726 394.044C441.246 394.044 443.25 394.668 444.738 395.916C446.25 397.14 447.006 398.784 447.006 400.848C446.982 402.264 446.61 403.5 445.89 404.556C445.194 405.588 444.21 406.344 442.938 406.824Z" fill="white"/>
        <path d="M411.328 437.82V456H406.9V453.084C406.348 454.092 405.556 454.884 404.524 455.46C403.492 456.012 402.316 456.288 400.996 456.288C399.412 456.288 398.008 455.904 396.784 455.136C395.56 454.368 394.612 453.276 393.94 451.86C393.268 450.444 392.932 448.8 392.932 446.928C392.932 445.056 393.268 443.4 393.94 441.96C394.636 440.496 395.596 439.368 396.82 438.576C398.044 437.76 399.436 437.352 400.996 437.352C402.316 437.352 403.492 437.64 404.524 438.216C405.556 438.768 406.348 439.548 406.9 440.556V437.82H411.328ZM402.22 452.76C403.708 452.76 404.86 452.244 405.676 451.212C406.492 450.18 406.9 448.728 406.9 446.856C406.9 444.936 406.492 443.46 405.676 442.428C404.86 441.396 403.696 440.88 402.184 440.88C400.696 440.88 399.532 441.42 398.692 442.5C397.876 443.556 397.468 445.032 397.468 446.928C397.468 448.8 397.876 450.24 398.692 451.248C399.532 452.256 400.708 452.76 402.22 452.76ZM426.633 437.352C430.977 437.352 433.149 439.848 433.149 444.84V456H428.649V445.056C428.649 443.616 428.373 442.572 427.821 441.924C427.269 441.252 426.417 440.916 425.265 440.916C423.897 440.916 422.793 441.36 421.953 442.248C421.113 443.112 420.693 444.264 420.693 445.704V456H416.229V442.968C416.229 441.048 416.133 439.332 415.941 437.82H420.153L420.477 440.808C421.101 439.704 421.941 438.852 422.997 438.252C424.077 437.652 425.289 437.352 426.633 437.352ZM444.581 456.288C441.293 456.288 438.677 455.52 436.733 453.984L437.993 450.816C439.937 452.256 442.157 452.976 444.653 452.976C445.733 452.976 446.561 452.796 447.137 452.436C447.737 452.076 448.037 451.572 448.037 450.924C448.037 450.372 447.833 449.94 447.425 449.628C447.017 449.292 446.321 449.004 445.337 448.764L442.313 448.08C439.001 447.36 437.345 445.668 437.345 443.004C437.345 441.9 437.657 440.928 438.281 440.088C438.905 439.224 439.781 438.552 440.909 438.072C442.037 437.592 443.345 437.352 444.833 437.352C446.129 437.352 447.377 437.556 448.577 437.964C449.777 438.348 450.833 438.912 451.745 439.656L450.413 442.716C448.589 441.372 446.717 440.7 444.797 440.7C443.765 440.7 442.961 440.892 442.385 441.276C441.809 441.66 441.521 442.188 441.521 442.86C441.521 443.388 441.689 443.808 442.025 444.12C442.385 444.432 442.985 444.696 443.825 444.912L446.921 445.596C448.721 446.004 450.029 446.64 450.845 447.504C451.685 448.344 452.105 449.448 452.105 450.816C452.105 452.496 451.433 453.828 450.089 454.812C448.745 455.796 446.909 456.288 444.581 456.288Z" fill="white"/>
        <path d="M609.328 437.82V456H604.9V453.084C604.348 454.092 603.556 454.884 602.524 455.46C601.492 456.012 600.316 456.288 598.996 456.288C597.412 456.288 596.008 455.904 594.784 455.136C593.56 454.368 592.612 453.276 591.94 451.86C591.268 450.444 590.932 448.8 590.932 446.928C590.932 445.056 591.268 443.4 591.94 441.96C592.636 440.496 593.596 439.368 594.82 438.576C596.044 437.76 597.436 437.352 598.996 437.352C600.316 437.352 601.492 437.64 602.524 438.216C603.556 438.768 604.348 439.548 604.9 440.556V437.82H609.328ZM600.22 452.76C601.708 452.76 602.86 452.244 603.676 451.212C604.492 450.18 604.9 448.728 604.9 446.856C604.9 444.936 604.492 443.46 603.676 442.428C602.86 441.396 601.696 440.88 600.184 440.88C598.696 440.88 597.532 441.42 596.692 442.5C595.876 443.556 595.468 445.032 595.468 446.928C595.468 448.8 595.876 450.24 596.692 451.248C597.532 452.256 598.708 452.76 600.22 452.76ZM624.633 437.352C628.977 437.352 631.149 439.848 631.149 444.84V456H626.649V445.056C626.649 443.616 626.373 442.572 625.821 441.924C625.269 441.252 624.417 440.916 623.265 440.916C621.897 440.916 620.793 441.36 619.953 442.248C619.113 443.112 618.693 444.264 618.693 445.704V456H614.229V442.968C614.229 441.048 614.133 439.332 613.941 437.82H618.153L618.477 440.808C619.101 439.704 619.941 438.852 620.997 438.252C622.077 437.652 623.289 437.352 624.633 437.352ZM642.581 456.288C639.293 456.288 636.677 455.52 634.733 453.984L635.993 450.816C637.937 452.256 640.157 452.976 642.653 452.976C643.733 452.976 644.561 452.796 645.137 452.436C645.737 452.076 646.037 451.572 646.037 450.924C646.037 450.372 645.833 449.94 645.425 449.628C645.017 449.292 644.321 449.004 643.337 448.764L640.313 448.08C637.001 447.36 635.345 445.668 635.345 443.004C635.345 441.9 635.657 440.928 636.281 440.088C636.905 439.224 637.781 438.552 638.909 438.072C640.037 437.592 641.345 437.352 642.833 437.352C644.129 437.352 645.377 437.556 646.577 437.964C647.777 438.348 648.833 438.912 649.745 439.656L648.413 442.716C646.589 441.372 644.717 440.7 642.797 440.7C641.765 440.7 640.961 440.892 640.385 441.276C639.809 441.66 639.521 442.188 639.521 442.86C639.521 443.388 639.689 443.808 640.025 444.12C640.385 444.432 640.985 444.696 641.825 444.912L644.921 445.596C646.721 446.004 648.029 446.64 648.845 447.504C649.685 448.344 650.105 449.448 650.105 450.816C650.105 452.496 649.433 453.828 648.089 454.812C646.745 455.796 644.909 456.288 642.581 456.288Z" fill="white"/>
        <path d="M807.328 437.82V456H802.9V453.084C802.348 454.092 801.556 454.884 800.524 455.46C799.492 456.012 798.316 456.288 796.996 456.288C795.412 456.288 794.008 455.904 792.784 455.136C791.56 454.368 790.612 453.276 789.94 451.86C789.268 450.444 788.932 448.8 788.932 446.928C788.932 445.056 789.268 443.4 789.94 441.96C790.636 440.496 791.596 439.368 792.82 438.576C794.044 437.76 795.436 437.352 796.996 437.352C798.316 437.352 799.492 437.64 800.524 438.216C801.556 438.768 802.348 439.548 802.9 440.556V437.82H807.328ZM798.22 452.76C799.708 452.76 800.86 452.244 801.676 451.212C802.492 450.18 802.9 448.728 802.9 446.856C802.9 444.936 802.492 443.46 801.676 442.428C800.86 441.396 799.696 440.88 798.184 440.88C796.696 440.88 795.532 441.42 794.692 442.5C793.876 443.556 793.468 445.032 793.468 446.928C793.468 448.8 793.876 450.24 794.692 451.248C795.532 452.256 796.708 452.76 798.22 452.76ZM822.633 437.352C826.977 437.352 829.149 439.848 829.149 444.84V456H824.649V445.056C824.649 443.616 824.373 442.572 823.821 441.924C823.269 441.252 822.417 440.916 821.265 440.916C819.897 440.916 818.793 441.36 817.953 442.248C817.113 443.112 816.693 444.264 816.693 445.704V456H812.229V442.968C812.229 441.048 812.133 439.332 811.941 437.82H816.153L816.477 440.808C817.101 439.704 817.941 438.852 818.997 438.252C820.077 437.652 821.289 437.352 822.633 437.352ZM840.581 456.288C837.293 456.288 834.677 455.52 832.733 453.984L833.993 450.816C835.937 452.256 838.157 452.976 840.653 452.976C841.733 452.976 842.561 452.796 843.137 452.436C843.737 452.076 844.037 451.572 844.037 450.924C844.037 450.372 843.833 449.94 843.425 449.628C843.017 449.292 842.321 449.004 841.337 448.764L838.313 448.08C835.001 447.36 833.345 445.668 833.345 443.004C833.345 441.9 833.657 440.928 834.281 440.088C834.905 439.224 835.781 438.552 836.909 438.072C838.037 437.592 839.345 437.352 840.833 437.352C842.129 437.352 843.377 437.556 844.577 437.964C845.777 438.348 846.833 438.912 847.745 439.656L846.413 442.716C844.589 441.372 842.717 440.7 840.797 440.7C839.765 440.7 838.961 440.892 838.385 441.276C837.809 441.66 837.521 442.188 837.521 442.86C837.521 443.388 837.689 443.808 838.025 444.12C838.385 444.432 838.985 444.696 839.825 444.912L842.921 445.596C844.721 446.004 846.029 446.64 846.845 447.504C847.685 448.344 848.105 449.448 848.105 450.816C848.105 452.496 847.433 453.828 846.089 454.812C844.745 455.796 842.909 456.288 840.581 456.288Z" fill="white"/>
        <path d="M1005.33 437.82V456H1000.9V453.084C1000.35 454.092 999.556 454.884 998.524 455.46C997.492 456.012 996.316 456.288 994.996 456.288C993.412 456.288 992.008 455.904 990.784 455.136C989.56 454.368 988.612 453.276 987.94 451.86C987.268 450.444 986.932 448.8 986.932 446.928C986.932 445.056 987.268 443.4 987.94 441.96C988.636 440.496 989.596 439.368 990.82 438.576C992.044 437.76 993.436 437.352 994.996 437.352C996.316 437.352 997.492 437.64 998.524 438.216C999.556 438.768 1000.35 439.548 1000.9 440.556V437.82H1005.33ZM996.22 452.76C997.708 452.76 998.86 452.244 999.676 451.212C1000.49 450.18 1000.9 448.728 1000.9 446.856C1000.9 444.936 1000.49 443.46 999.676 442.428C998.86 441.396 997.696 440.88 996.184 440.88C994.696 440.88 993.532 441.42 992.692 442.5C991.876 443.556 991.468 445.032 991.468 446.928C991.468 448.8 991.876 450.24 992.692 451.248C993.532 452.256 994.708 452.76 996.22 452.76ZM1020.63 437.352C1024.98 437.352 1027.15 439.848 1027.15 444.84V456H1022.65V445.056C1022.65 443.616 1022.37 442.572 1021.82 441.924C1021.27 441.252 1020.42 440.916 1019.27 440.916C1017.9 440.916 1016.79 441.36 1015.95 442.248C1015.11 443.112 1014.69 444.264 1014.69 445.704V456H1010.23V442.968C1010.23 441.048 1010.13 439.332 1009.94 437.82H1014.15L1014.48 440.808C1015.1 439.704 1015.94 438.852 1017 438.252C1018.08 437.652 1019.29 437.352 1020.63 437.352ZM1038.58 456.288C1035.29 456.288 1032.68 455.52 1030.73 453.984L1031.99 450.816C1033.94 452.256 1036.16 452.976 1038.65 452.976C1039.73 452.976 1040.56 452.796 1041.14 452.436C1041.74 452.076 1042.04 451.572 1042.04 450.924C1042.04 450.372 1041.83 449.94 1041.42 449.628C1041.02 449.292 1040.32 449.004 1039.34 448.764L1036.31 448.08C1033 447.36 1031.34 445.668 1031.34 443.004C1031.34 441.9 1031.66 440.928 1032.28 440.088C1032.9 439.224 1033.78 438.552 1034.91 438.072C1036.04 437.592 1037.34 437.352 1038.83 437.352C1040.13 437.352 1041.38 437.556 1042.58 437.964C1043.78 438.348 1044.83 438.912 1045.74 439.656L1044.41 442.716C1042.59 441.372 1040.72 440.7 1038.8 440.7C1037.76 440.7 1036.96 440.892 1036.38 441.276C1035.81 441.66 1035.52 442.188 1035.52 442.86C1035.52 443.388 1035.69 443.808 1036.02 444.12C1036.38 444.432 1036.98 444.696 1037.82 444.912L1040.92 445.596C1042.72 446.004 1044.03 446.64 1044.84 447.504C1045.68 448.344 1046.1 449.448 1046.1 450.816C1046.1 452.496 1045.43 453.828 1044.09 454.812C1042.74 455.796 1040.91 456.288 1038.58 456.288Z" fill="white"/>
        <path d="M607.76 406.824C609.272 407.232 610.424 407.976 611.216 409.056C612.032 410.136 612.44 411.468 612.44 413.052C612.44 415.284 611.612 417.048 609.956 418.344C608.324 419.64 606.116 420.288 603.332 420.288C601.604 420.288 599.936 420.024 598.328 419.496C596.744 418.968 595.436 418.236 594.404 417.3L595.988 413.916C598.268 415.692 600.656 416.58 603.152 416.58C604.784 416.58 605.996 416.256 606.788 415.608C607.604 414.96 608.012 413.976 608.012 412.656C608.012 411.36 607.604 410.412 606.788 409.812C605.972 409.188 604.712 408.876 603.008 408.876H599.624V405.168H602.396C605.708 405.168 607.364 403.908 607.364 401.388C607.364 400.212 607.004 399.312 606.284 398.688C605.564 398.064 604.556 397.752 603.26 397.752C600.956 397.752 598.652 398.64 596.348 400.416L594.8 397.032C595.832 396.12 597.128 395.4 598.688 394.872C600.272 394.32 601.892 394.044 603.548 394.044C606.068 394.044 608.072 394.668 609.56 395.916C611.072 397.14 611.828 398.784 611.828 400.848C611.804 402.264 611.432 403.5 610.712 404.556C610.016 405.588 609.032 406.344 607.76 406.824ZM613.686 422.124L623.01 392.892H626.862L617.466 422.124H613.686ZM638.325 403.548C639.837 403.548 641.181 403.896 642.357 404.592C643.557 405.288 644.493 406.26 645.165 407.508C645.837 408.756 646.173 410.184 646.173 411.792C646.173 413.424 645.801 414.888 645.057 416.184C644.337 417.48 643.317 418.5 641.997 419.244C640.701 419.964 639.225 420.324 637.569 420.324C634.329 420.324 631.833 419.232 630.081 417.048C628.329 414.84 627.453 411.708 627.453 407.652C627.453 404.82 627.861 402.384 628.677 400.344C629.517 398.304 630.717 396.744 632.277 395.664C633.861 394.584 635.733 394.044 637.893 394.044C639.429 394.044 640.917 394.308 642.357 394.836C643.821 395.34 645.093 396.072 646.173 397.032L644.589 400.416C642.333 398.64 640.161 397.752 638.073 397.752C636.177 397.752 634.713 398.556 633.681 400.164C632.649 401.772 632.109 404.076 632.061 407.076C632.613 405.996 633.453 405.144 634.581 404.52C635.709 403.872 636.957 403.548 638.325 403.548ZM637.353 416.652C638.673 416.652 639.729 416.22 640.521 415.356C641.337 414.492 641.745 413.352 641.745 411.936C641.745 410.52 641.337 409.392 640.521 408.552C639.729 407.688 638.661 407.256 637.317 407.256C635.973 407.256 634.881 407.688 634.041 408.552C633.201 409.416 632.781 410.544 632.781 411.936C632.781 413.328 633.201 414.468 634.041 415.356C634.905 416.22 636.009 416.652 637.353 416.652Z" fill="white"/>
        <path d="M803.384 403.548C804.896 403.548 806.24 403.896 807.416 404.592C808.616 405.288 809.552 406.26 810.224 407.508C810.896 408.756 811.232 410.184 811.232 411.792C811.232 413.424 810.86 414.888 810.116 416.184C809.396 417.48 808.376 418.5 807.056 419.244C805.76 419.964 804.284 420.324 802.628 420.324C799.388 420.324 796.892 419.232 795.14 417.048C793.388 414.84 792.512 411.708 792.512 407.652C792.512 404.82 792.92 402.384 793.736 400.344C794.576 398.304 795.776 396.744 797.336 395.664C798.92 394.584 800.792 394.044 802.952 394.044C804.488 394.044 805.976 394.308 807.416 394.836C808.88 395.34 810.152 396.072 811.232 397.032L809.648 400.416C807.392 398.64 805.22 397.752 803.132 397.752C801.236 397.752 799.772 398.556 798.74 400.164C797.708 401.772 797.168 404.076 797.12 407.076C797.672 405.996 798.512 405.144 799.64 404.52C800.768 403.872 802.016 403.548 803.384 403.548ZM802.412 416.652C803.732 416.652 804.788 416.22 805.58 415.356C806.396 414.492 806.804 413.352 806.804 411.936C806.804 410.52 806.396 409.392 805.58 408.552C804.788 407.688 803.72 407.256 802.376 407.256C801.032 407.256 799.94 407.688 799.1 408.552C798.26 409.416 797.84 410.544 797.84 411.936C797.84 413.328 798.26 414.468 799.1 415.356C799.964 416.22 801.068 416.652 802.412 416.652ZM811.686 422.124L821.01 392.892H824.862L815.466 422.124H811.686ZM833.913 394.044C837.153 394.044 839.649 395.148 841.401 397.356C843.177 399.54 844.065 402.66 844.065 406.716C844.065 409.548 843.645 411.984 842.805 414.024C841.965 416.064 840.753 417.624 839.169 418.704C837.609 419.784 835.749 420.324 833.589 420.324C832.053 420.324 830.553 420.072 829.089 419.568C827.649 419.04 826.401 418.296 825.345 417.336L826.893 413.952C829.173 415.728 831.345 416.616 833.409 416.616C835.305 416.616 836.769 415.812 837.801 414.204C838.857 412.572 839.409 410.244 839.457 407.22C838.905 408.324 838.065 409.2 836.937 409.848C835.833 410.496 834.573 410.82 833.157 410.82C831.645 410.82 830.289 410.472 829.089 409.776C827.913 409.08 826.989 408.108 826.317 406.86C825.645 405.612 825.309 404.184 825.309 402.576C825.309 400.944 825.669 399.48 826.389 398.184C827.133 396.888 828.153 395.88 829.449 395.16C830.769 394.416 832.257 394.044 833.913 394.044ZM834.165 407.112C835.509 407.112 836.601 406.68 837.441 405.816C838.281 404.952 838.701 403.824 838.701 402.432C838.701 401.04 838.281 399.912 837.441 399.048C836.601 398.16 835.509 397.716 834.165 397.716C832.821 397.716 831.741 398.148 830.925 399.012C830.133 399.876 829.737 401.016 829.737 402.432C829.737 403.848 830.133 404.988 830.925 405.852C831.741 406.692 832.821 407.112 834.165 407.112Z" fill="white"/>
        <path d="M1014.66 411.216H1007.38V418.488H1004.22V411.216H996.944V408.012H1004.22V400.74H1007.38V408.012H1014.66V411.216ZM1026.56 394.044C1029.8 394.044 1032.29 395.148 1034.05 397.356C1035.82 399.54 1036.71 402.66 1036.71 406.716C1036.71 409.548 1036.29 411.984 1035.45 414.024C1034.61 416.064 1033.4 417.624 1031.81 418.704C1030.25 419.784 1028.39 420.324 1026.23 420.324C1024.7 420.324 1023.2 420.072 1021.73 419.568C1020.29 419.04 1019.05 418.296 1017.99 417.336L1019.54 413.952C1021.82 415.728 1023.99 416.616 1026.05 416.616C1027.95 416.616 1029.41 415.812 1030.45 414.204C1031.5 412.572 1032.05 410.244 1032.1 407.22C1031.55 408.324 1030.71 409.2 1029.58 409.848C1028.48 410.496 1027.22 410.82 1025.8 410.82C1024.29 410.82 1022.93 410.472 1021.73 409.776C1020.56 409.08 1019.63 408.108 1018.96 406.86C1018.29 405.612 1017.95 404.184 1017.95 402.576C1017.95 400.944 1018.31 399.48 1019.03 398.184C1019.78 396.888 1020.8 395.88 1022.09 395.16C1023.41 394.416 1024.9 394.044 1026.56 394.044ZM1026.81 407.112C1028.15 407.112 1029.25 406.68 1030.09 405.816C1030.93 404.952 1031.35 403.824 1031.35 402.432C1031.35 401.04 1030.93 399.912 1030.09 399.048C1029.25 398.16 1028.15 397.716 1026.81 397.716C1025.47 397.716 1024.39 398.148 1023.57 399.012C1022.78 399.876 1022.38 401.016 1022.38 402.432C1022.38 403.848 1022.78 404.988 1023.57 405.852C1024.39 406.692 1025.47 407.112 1026.81 407.112Z" fill="white"/>
        <path d="M880.9 567.14C881.5 567.247 881.98 567.3 882.34 567.3C883.02 567.3 883.493 567.107 883.76 566.72C884.04 566.347 884.18 565.7 884.18 564.78V550.76H885.82V564.8C885.82 566.187 885.567 567.187 885.06 567.8C884.567 568.413 883.747 568.72 882.6 568.72C882.147 568.72 881.58 568.667 880.9 568.56V567.14ZM897.562 559.92H890.182C890.195 561.2 890.489 562.167 891.062 562.82C891.649 563.473 892.495 563.8 893.602 563.8C894.775 563.8 895.855 563.407 896.842 562.62L897.382 563.8C896.942 564.213 896.375 564.54 895.682 564.78C895.002 565.02 894.302 565.14 893.582 565.14C892.009 565.14 890.775 564.68 889.882 563.76C888.989 562.827 888.542 561.553 888.542 559.94C888.542 558.913 888.742 558.007 889.142 557.22C889.542 556.42 890.102 555.8 890.822 555.36C891.542 554.92 892.362 554.7 893.282 554.7C894.615 554.7 895.662 555.14 896.422 556.02C897.182 556.887 897.562 558.087 897.562 559.62V559.92ZM893.302 555.96C892.462 555.96 891.775 556.213 891.242 556.72C890.722 557.227 890.389 557.94 890.242 558.86H896.102C896.022 557.913 895.742 557.193 895.262 556.7C894.795 556.207 894.142 555.96 893.302 555.96ZM905.236 550.28H906.856V565H905.236V550.28ZM918.421 559.92H911.041C911.055 561.2 911.348 562.167 911.921 562.82C912.508 563.473 913.355 563.8 914.461 563.8C915.635 563.8 916.715 563.407 917.701 562.62L918.241 563.8C917.801 564.213 917.235 564.54 916.541 564.78C915.861 565.02 915.161 565.14 914.441 565.14C912.868 565.14 911.635 564.68 910.741 563.76C909.848 562.827 909.401 561.553 909.401 559.94C909.401 558.913 909.601 558.007 910.001 557.22C910.401 556.42 910.961 555.8 911.681 555.36C912.401 554.92 913.221 554.7 914.141 554.7C915.475 554.7 916.521 555.14 917.281 556.02C918.041 556.887 918.421 558.087 918.421 559.62V559.92ZM914.161 555.96C913.321 555.96 912.635 556.213 912.101 556.72C911.581 557.227 911.248 557.94 911.101 558.86H916.961C916.881 557.913 916.601 557.193 916.121 556.7C915.655 556.207 915.001 555.96 914.161 555.96ZM934.955 550.28V565H933.355V563.18C933.062 563.807 932.615 564.293 932.015 564.64C931.428 564.973 930.742 565.14 929.955 565.14C929.075 565.14 928.295 564.92 927.615 564.48C926.948 564.04 926.428 563.427 926.055 562.64C925.682 561.84 925.495 560.92 925.495 559.88C925.495 558.84 925.675 557.933 926.035 557.16C926.408 556.373 926.935 555.767 927.615 555.34C928.295 554.913 929.075 554.7 929.955 554.7C930.742 554.7 931.428 554.873 932.015 555.22C932.602 555.553 933.042 556.027 933.335 556.64V550.28H934.955ZM930.275 563.8C931.262 563.8 932.022 563.467 932.555 562.8C933.088 562.12 933.355 561.16 933.355 559.92C933.355 558.693 933.088 557.747 932.555 557.08C932.022 556.4 931.262 556.06 930.275 556.06C929.288 556.06 928.515 556.393 927.955 557.06C927.408 557.727 927.135 558.667 927.135 559.88C927.135 561.12 927.408 562.087 927.955 562.78C928.515 563.46 929.288 563.8 930.275 563.8ZM938.087 554.94H939.707V565H938.087V554.94ZM939.907 550.68V552.52H937.927V550.68H939.907ZM947.533 554.7C947.866 554.7 948.173 554.74 948.453 554.82L948.413 556.3C948.106 556.193 947.753 556.14 947.353 556.14C946.38 556.14 945.653 556.447 945.173 557.06C944.706 557.66 944.473 558.393 944.473 559.26V565H942.853V557.76C942.853 556.72 942.8 555.78 942.693 554.94H944.233L944.393 556.8C944.646 556.12 945.053 555.6 945.613 555.24C946.173 554.88 946.813 554.7 947.533 554.7ZM958.764 554.94V565H957.164V563.18C956.87 563.807 956.424 564.293 955.824 564.64C955.237 564.973 954.55 565.14 953.764 565.14C952.87 565.14 952.084 564.927 951.404 564.5C950.737 564.073 950.217 563.473 949.844 562.7C949.484 561.913 949.304 561 949.304 559.96C949.304 558.92 949.49 558.007 949.864 557.22C950.237 556.42 950.757 555.8 951.424 555.36C952.104 554.92 952.884 554.7 953.764 554.7C954.55 554.7 955.237 554.873 955.824 555.22C956.41 555.567 956.857 556.053 957.164 556.68V554.94H958.764ZM954.084 563.8C955.07 563.8 955.83 563.467 956.364 562.8C956.897 562.12 957.164 561.16 957.164 559.92C957.164 558.68 956.897 557.727 956.364 557.06C955.83 556.393 955.07 556.06 954.084 556.06C953.097 556.06 952.324 556.407 951.764 557.1C951.217 557.78 950.944 558.733 950.944 559.96C950.944 561.187 951.217 562.133 951.764 562.8C952.31 563.467 953.084 563.8 954.084 563.8ZM961.896 554.94H963.516V565H961.896V554.94ZM963.716 550.68V552.52H961.736V550.68H963.716ZM970.062 565.14C968.368 565.14 967.028 564.707 966.042 563.84L966.582 562.64C967.128 563.067 967.682 563.373 968.242 563.56C968.802 563.747 969.428 563.84 970.122 563.84C970.882 563.84 971.455 563.713 971.842 563.46C972.242 563.193 972.442 562.813 972.442 562.32C972.442 561.92 972.308 561.6 972.042 561.36C971.775 561.12 971.335 560.933 970.722 560.8L969.022 560.4C968.182 560.213 967.528 559.88 967.062 559.4C966.608 558.92 966.382 558.347 966.382 557.68C966.382 556.8 966.735 556.087 967.442 555.54C968.148 554.98 969.082 554.7 970.242 554.7C970.948 554.7 971.615 554.813 972.242 555.04C972.868 555.267 973.395 555.593 973.822 556.02L973.282 557.2C972.335 556.413 971.322 556.02 970.242 556.02C969.522 556.02 968.962 556.16 968.562 556.44C968.175 556.707 967.982 557.087 967.982 557.58C967.982 557.993 968.102 558.32 968.342 558.56C968.595 558.8 968.995 558.987 969.542 559.12L971.242 559.54C972.175 559.753 972.868 560.087 973.322 560.54C973.775 560.98 974.002 561.56 974.002 562.28C974.002 563.147 973.648 563.84 972.942 564.36C972.235 564.88 971.275 565.14 970.062 565.14ZM990.658 554.94V565H989.058V563.18C988.765 563.807 988.318 564.293 987.718 564.64C987.132 564.973 986.445 565.14 985.658 565.14C984.765 565.14 983.978 564.927 983.298 564.5C982.632 564.073 982.112 563.473 981.738 562.7C981.378 561.913 981.198 561 981.198 559.96C981.198 558.92 981.385 558.007 981.758 557.22C982.132 556.42 982.652 555.8 983.318 555.36C983.998 554.92 984.778 554.7 985.658 554.7C986.445 554.7 987.132 554.873 987.718 555.22C988.305 555.567 988.752 556.053 989.058 556.68V554.94H990.658ZM985.978 563.8C986.965 563.8 987.725 563.467 988.258 562.8C988.792 562.12 989.058 561.16 989.058 559.92C989.058 558.68 988.792 557.727 988.258 557.06C987.725 556.393 986.965 556.06 985.978 556.06C984.992 556.06 984.218 556.407 983.658 557.1C983.112 557.78 982.838 558.733 982.838 559.96C982.838 561.187 983.112 562.133 983.658 562.8C984.205 563.467 984.978 563.8 985.978 563.8ZM982.938 549.56H984.818L986.818 553.64H985.678L982.938 549.56ZM1004.03 554.7C1004.91 554.7 1005.69 554.92 1006.37 555.36C1007.05 555.8 1007.57 556.42 1007.95 557.22C1008.32 558.007 1008.51 558.92 1008.51 559.96C1008.51 561 1008.32 561.913 1007.95 562.7C1007.57 563.473 1007.05 564.073 1006.37 564.5C1005.7 564.927 1004.92 565.14 1004.03 565.14C1003.24 565.14 1002.55 564.967 1001.97 564.62C1001.38 564.273 1000.93 563.78 1000.63 563.14V569.32H999.005V557.76C999.005 556.72 998.952 555.78 998.845 554.94H1000.39L1000.55 556.88C1000.83 556.187 1001.27 555.653 1001.87 555.28C1002.48 554.893 1003.2 554.7 1004.03 554.7ZM1003.73 563.8C1004.71 563.8 1005.47 563.467 1006.01 562.8C1006.55 562.133 1006.83 561.187 1006.83 559.96C1006.83 558.733 1006.55 557.78 1006.01 557.1C1005.46 556.407 1004.7 556.06 1003.73 556.06C1002.73 556.06 1001.96 556.393 1001.43 557.06C1000.89 557.727 1000.63 558.68 1000.63 559.92C1000.63 561.16 1000.89 562.12 1001.43 562.8C1001.96 563.467 1002.73 563.8 1003.73 563.8ZM1019.42 559.92H1012.04C1012.05 561.2 1012.34 562.167 1012.92 562.82C1013.5 563.473 1014.35 563.8 1015.46 563.8C1016.63 563.8 1017.71 563.407 1018.7 562.62L1019.24 563.8C1018.8 564.213 1018.23 564.54 1017.54 564.78C1016.86 565.02 1016.16 565.14 1015.44 565.14C1013.86 565.14 1012.63 564.68 1011.74 563.76C1010.84 562.827 1010.4 561.553 1010.4 559.94C1010.4 558.913 1010.6 558.007 1011 557.22C1011.4 556.42 1011.96 555.8 1012.68 555.36C1013.4 554.92 1014.22 554.7 1015.14 554.7C1016.47 554.7 1017.52 555.14 1018.28 556.02C1019.04 556.887 1019.42 558.087 1019.42 559.62V559.92ZM1015.16 555.96C1014.32 555.96 1013.63 556.213 1013.1 556.72C1012.58 557.227 1012.24 557.94 1012.1 558.86H1017.96C1017.88 557.913 1017.6 557.193 1017.12 556.7C1016.65 556.207 1016 555.96 1015.16 555.96ZM1026.56 554.7C1026.89 554.7 1027.2 554.74 1027.48 554.82L1027.44 556.3C1027.13 556.193 1026.78 556.14 1026.38 556.14C1025.4 556.14 1024.68 556.447 1024.2 557.06C1023.73 557.66 1023.5 558.393 1023.5 559.26V565H1021.88V557.76C1021.88 556.72 1021.82 555.78 1021.72 554.94H1023.26L1023.42 556.8C1023.67 556.12 1024.08 555.6 1024.64 555.24C1025.2 554.88 1025.84 554.7 1026.56 554.7ZM1032.42 565.14C1030.73 565.14 1029.39 564.707 1028.4 563.84L1028.94 562.64C1029.49 563.067 1030.04 563.373 1030.6 563.56C1031.16 563.747 1031.79 563.84 1032.48 563.84C1033.24 563.84 1033.82 563.713 1034.2 563.46C1034.6 563.193 1034.8 562.813 1034.8 562.32C1034.8 561.92 1034.67 561.6 1034.4 561.36C1034.14 561.12 1033.7 560.933 1033.08 560.8L1031.38 560.4C1030.54 560.213 1029.89 559.88 1029.42 559.4C1028.97 558.92 1028.74 558.347 1028.74 557.68C1028.74 556.8 1029.1 556.087 1029.8 555.54C1030.51 554.98 1031.44 554.7 1032.6 554.7C1033.31 554.7 1033.98 554.813 1034.6 555.04C1035.23 555.267 1035.76 555.593 1036.18 556.02L1035.64 557.2C1034.7 556.413 1033.68 556.02 1032.6 556.02C1031.88 556.02 1031.32 556.16 1030.92 556.44C1030.54 556.707 1030.34 557.087 1030.34 557.58C1030.34 557.993 1030.46 558.32 1030.7 558.56C1030.96 558.8 1031.36 558.987 1031.9 559.12L1033.6 559.54C1034.54 559.753 1035.23 560.087 1035.68 560.54C1036.14 560.98 1036.36 561.56 1036.36 562.28C1036.36 563.147 1036.01 563.84 1035.3 564.36C1034.6 564.88 1033.64 565.14 1032.42 565.14ZM1043.11 565.14C1042.16 565.14 1041.33 564.927 1040.61 564.5C1039.89 564.073 1039.33 563.467 1038.93 562.68C1038.54 561.893 1038.35 560.973 1038.35 559.92C1038.35 558.867 1038.54 557.947 1038.93 557.16C1039.33 556.373 1039.89 555.767 1040.61 555.34C1041.33 554.913 1042.16 554.7 1043.11 554.7C1044.05 554.7 1044.89 554.913 1045.61 555.34C1046.33 555.767 1046.88 556.373 1047.27 557.16C1047.67 557.947 1047.87 558.867 1047.87 559.92C1047.87 560.973 1047.67 561.893 1047.27 562.68C1046.88 563.467 1046.33 564.073 1045.61 564.5C1044.89 564.927 1044.05 565.14 1043.11 565.14ZM1043.11 563.8C1044.11 563.8 1044.87 563.473 1045.41 562.82C1045.94 562.153 1046.21 561.187 1046.21 559.92C1046.21 558.693 1045.93 557.747 1045.39 557.08C1044.84 556.4 1044.08 556.06 1043.11 556.06C1042.12 556.06 1041.35 556.4 1040.81 557.08C1040.26 557.747 1039.99 558.693 1039.99 559.92C1039.99 561.187 1040.25 562.153 1040.79 562.82C1041.33 563.473 1042.11 563.8 1043.11 563.8ZM1055.41 554.7C1057.83 554.7 1059.03 556.027 1059.03 558.68V565H1057.41V558.76C1057.41 557.827 1057.23 557.147 1056.85 556.72C1056.48 556.28 1055.89 556.06 1055.09 556.06C1054.16 556.06 1053.41 556.347 1052.85 556.92C1052.29 557.493 1052.01 558.267 1052.01 559.24V565H1050.39V557.76C1050.39 556.72 1050.34 555.78 1050.23 554.94H1051.77L1051.93 556.74C1052.24 556.087 1052.7 555.587 1053.31 555.24C1053.93 554.88 1054.63 554.7 1055.41 554.7ZM1067.11 554.7C1069.52 554.7 1070.73 556.027 1070.73 558.68V565H1069.11V558.76C1069.11 557.827 1068.92 557.147 1068.55 556.72C1068.18 556.28 1067.59 556.06 1066.79 556.06C1065.86 556.06 1065.11 556.347 1064.55 556.92C1063.99 557.493 1063.71 558.267 1063.71 559.24V565H1062.09V557.76C1062.09 556.72 1062.04 555.78 1061.93 554.94H1063.47L1063.63 556.74C1063.94 556.087 1064.4 555.587 1065.01 555.24C1065.62 554.88 1066.32 554.7 1067.11 554.7ZM1082.21 559.92H1074.83C1074.84 561.2 1075.14 562.167 1075.71 562.82C1076.3 563.473 1077.14 563.8 1078.25 563.8C1079.42 563.8 1080.5 563.407 1081.49 562.62L1082.03 563.8C1081.59 564.213 1081.02 564.54 1080.33 564.78C1079.65 565.02 1078.95 565.14 1078.23 565.14C1076.66 565.14 1075.42 564.68 1074.53 563.76C1073.64 562.827 1073.19 561.553 1073.19 559.94C1073.19 558.913 1073.39 558.007 1073.79 557.22C1074.19 556.42 1074.75 555.8 1075.47 555.36C1076.19 554.92 1077.01 554.7 1077.93 554.7C1079.26 554.7 1080.31 555.14 1081.07 556.02C1081.83 556.887 1082.21 558.087 1082.21 559.62V559.92ZM1077.95 555.96C1077.11 555.96 1076.42 556.213 1075.89 556.72C1075.37 557.227 1075.04 557.94 1074.89 558.86H1080.75C1080.67 557.913 1080.39 557.193 1079.91 556.7C1079.44 556.207 1078.79 555.96 1077.95 555.96ZM886.78 590.14C885.807 590.14 884.953 589.927 884.22 589.5C883.5 589.073 882.94 588.473 882.54 587.7C882.153 586.913 881.96 586 881.96 584.96C881.96 583.92 882.16 583.007 882.56 582.22C882.96 581.42 883.527 580.8 884.26 580.36C885.007 579.92 885.873 579.7 886.86 579.7C887.54 579.7 888.193 579.82 888.82 580.06C889.46 580.287 889.987 580.607 890.4 581.02L889.86 582.22C889.353 581.82 888.86 581.527 888.38 581.34C887.913 581.153 887.433 581.06 886.94 581.06C885.913 581.06 885.107 581.407 884.52 582.1C883.933 582.78 883.64 583.733 883.64 584.96C883.64 586.173 883.927 587.12 884.5 587.8C885.087 588.467 885.9 588.8 886.94 588.8C887.433 588.8 887.913 588.707 888.38 588.52C888.86 588.333 889.353 588.04 889.86 587.64L890.4 588.84C889.973 589.24 889.433 589.56 888.78 589.8C888.14 590.027 887.473 590.14 886.78 590.14ZM894.301 575.76V577.22C894.301 577.78 894.208 578.293 894.021 578.76C893.834 579.227 893.521 579.687 893.081 580.14L892.321 579.54C892.841 578.94 893.134 578.367 893.201 577.82H892.241V575.76H894.301ZM904.808 584.92H897.428C897.441 586.2 897.735 587.167 898.308 587.82C898.895 588.473 899.741 588.8 900.848 588.8C902.021 588.8 903.101 588.407 904.088 587.62L904.628 588.8C904.188 589.213 903.621 589.54 902.928 589.78C902.248 590.02 901.548 590.14 900.828 590.14C899.255 590.14 898.021 589.68 897.128 588.76C896.235 587.827 895.788 586.553 895.788 584.94C895.788 583.913 895.988 583.007 896.388 582.22C896.788 581.42 897.348 580.8 898.068 580.36C898.788 579.92 899.608 579.7 900.528 579.7C901.861 579.7 902.908 580.14 903.668 581.02C904.428 581.887 904.808 583.087 904.808 584.62V584.92ZM900.548 580.96C899.708 580.96 899.021 581.213 898.488 581.72C897.968 582.227 897.635 582.94 897.488 583.86H903.348C903.268 582.913 902.988 582.193 902.508 581.7C902.041 581.207 901.388 580.96 900.548 580.96ZM910.667 590.14C908.974 590.14 907.634 589.707 906.647 588.84L907.187 587.64C907.734 588.067 908.287 588.373 908.847 588.56C909.407 588.747 910.034 588.84 910.727 588.84C911.487 588.84 912.06 588.713 912.447 588.46C912.847 588.193 913.047 587.813 913.047 587.32C913.047 586.92 912.914 586.6 912.647 586.36C912.38 586.12 911.94 585.933 911.327 585.8L909.627 585.4C908.787 585.213 908.134 584.88 907.667 584.4C907.214 583.92 906.987 583.347 906.987 582.68C906.987 581.8 907.34 581.087 908.047 580.54C908.754 579.98 909.687 579.7 910.847 579.7C911.554 579.7 912.22 579.813 912.847 580.04C913.474 580.267 914 580.593 914.427 581.02L913.887 582.2C912.94 581.413 911.927 581.02 910.847 581.02C910.127 581.02 909.567 581.16 909.167 581.44C908.78 581.707 908.587 582.087 908.587 582.58C908.587 582.993 908.707 583.32 908.947 583.56C909.2 583.8 909.6 583.987 910.147 584.12L911.847 584.54C912.78 584.753 913.474 585.087 913.927 585.54C914.38 585.98 914.607 586.56 914.607 587.28C914.607 588.147 914.254 588.84 913.547 589.36C912.84 589.88 911.88 590.14 910.667 590.14ZM919.251 581.22V586.72C919.251 587.467 919.405 587.993 919.711 588.3C920.018 588.593 920.451 588.74 921.011 588.74C921.385 588.74 921.745 588.68 922.091 588.56V589.94C921.678 590.073 921.211 590.14 920.691 590.14C919.731 590.14 918.978 589.873 918.431 589.34C917.898 588.793 917.631 587.993 917.631 586.94V581.22H915.671V579.94H917.631V577.36L919.251 576.78V579.94H922.131V581.22H919.251ZM934.318 579.7C935.198 579.7 935.978 579.92 936.658 580.36C937.338 580.8 937.865 581.42 938.238 582.22C938.612 583.007 938.798 583.92 938.798 584.96C938.798 586 938.612 586.913 938.238 587.7C937.865 588.473 937.338 589.073 936.658 589.5C935.992 589.927 935.212 590.14 934.318 590.14C933.532 590.14 932.845 589.967 932.258 589.62C931.672 589.273 931.225 588.78 930.918 588.14V594.32H929.298V582.76C929.298 581.72 929.245 580.78 929.138 579.94H930.678L930.838 581.88C931.118 581.187 931.558 580.653 932.158 580.28C932.772 579.893 933.492 579.7 934.318 579.7ZM934.018 588.8C935.005 588.8 935.765 588.467 936.298 587.8C936.845 587.133 937.118 586.187 937.118 584.96C937.118 583.733 936.845 582.78 936.298 582.1C935.752 581.407 934.992 581.06 934.018 581.06C933.018 581.06 932.252 581.393 931.718 582.06C931.185 582.727 930.918 583.68 930.918 584.92C930.918 586.16 931.185 587.12 931.718 587.8C932.252 588.467 933.018 588.8 934.018 588.8ZM945.97 579.7C946.304 579.7 946.61 579.74 946.89 579.82L946.85 581.3C946.544 581.193 946.19 581.14 945.79 581.14C944.817 581.14 944.09 581.447 943.61 582.06C943.144 582.66 942.91 583.393 942.91 584.26V590H941.29V582.76C941.29 581.72 941.237 580.78 941.13 579.94H942.67L942.83 581.8C943.084 581.12 943.49 580.6 944.05 580.24C944.61 579.88 945.25 579.7 945.97 579.7ZM952.501 590.14C951.555 590.14 950.721 589.927 950.001 589.5C949.281 589.073 948.721 588.467 948.321 587.68C947.935 586.893 947.741 585.973 947.741 584.92C947.741 583.867 947.935 582.947 948.321 582.16C948.721 581.373 949.281 580.767 950.001 580.34C950.721 579.913 951.555 579.7 952.501 579.7C953.448 579.7 954.281 579.913 955.001 580.34C955.721 580.767 956.275 581.373 956.661 582.16C957.061 582.947 957.261 583.867 957.261 584.92C957.261 585.973 957.061 586.893 956.661 587.68C956.275 588.467 955.721 589.073 955.001 589.5C954.281 589.927 953.448 590.14 952.501 590.14ZM952.501 588.8C953.501 588.8 954.268 588.473 954.801 587.82C955.335 587.153 955.601 586.187 955.601 584.92C955.601 583.693 955.328 582.747 954.781 582.08C954.235 581.4 953.475 581.06 952.501 581.06C951.515 581.06 950.748 581.4 950.201 582.08C949.655 582.747 949.381 583.693 949.381 584.92C949.381 586.187 949.648 587.153 950.181 587.82C950.728 588.473 951.501 588.8 952.501 588.8ZM970.947 579.7C973.173 579.7 974.287 581.027 974.287 583.68V590H972.667V583.76C972.667 582.813 972.5 582.127 972.167 581.7C971.847 581.273 971.32 581.06 970.587 581.06C969.733 581.06 969.067 581.347 968.587 581.92C968.107 582.493 967.867 583.273 967.867 584.26V590H966.247V583.76C966.247 582.827 966.08 582.147 965.747 581.72C965.413 581.28 964.88 581.06 964.147 581.06C963.293 581.06 962.62 581.347 962.127 581.92C961.647 582.493 961.407 583.273 961.407 584.26V590H959.787V582.76C959.787 581.72 959.733 580.78 959.627 579.94H961.167L961.327 581.7C961.607 581.06 962.02 580.567 962.567 580.22C963.127 579.873 963.773 579.7 964.507 579.7C965.307 579.7 965.96 579.86 966.467 580.18C966.973 580.5 967.347 580.993 967.587 581.66C967.893 581.06 968.34 580.587 968.927 580.24C969.527 579.88 970.2 579.7 970.947 579.7ZM977.365 579.94H978.985V590H977.365V579.94ZM979.185 575.68V577.52H977.205V575.68H979.185ZM985.53 590.14C983.837 590.14 982.497 589.707 981.51 588.84L982.05 587.64C982.597 588.067 983.15 588.373 983.71 588.56C984.27 588.747 984.897 588.84 985.59 588.84C986.35 588.84 986.924 588.713 987.31 588.46C987.71 588.193 987.91 587.813 987.91 587.32C987.91 586.92 987.777 586.6 987.51 586.36C987.244 586.12 986.804 585.933 986.19 585.8L984.49 585.4C983.65 585.213 982.997 584.88 982.53 584.4C982.077 583.92 981.85 583.347 981.85 582.68C981.85 581.8 982.204 581.087 982.91 580.54C983.617 579.98 984.55 579.7 985.71 579.7C986.417 579.7 987.084 579.813 987.71 580.04C988.337 580.267 988.864 580.593 989.29 581.02L988.75 582.2C987.804 581.413 986.79 581.02 985.71 581.02C984.99 581.02 984.43 581.16 984.03 581.44C983.644 581.707 983.45 582.087 983.45 582.58C983.45 582.993 983.57 583.32 983.81 583.56C984.064 583.8 984.464 583.987 985.01 584.12L986.71 584.54C987.644 584.753 988.337 585.087 988.79 585.54C989.244 585.98 989.47 586.56 989.47 587.28C989.47 588.147 989.117 588.84 988.41 589.36C987.704 589.88 986.744 590.14 985.53 590.14ZM997.007 575.76H999.027L998.507 586.26H997.507L997.007 575.76ZM999.047 587.94V590H996.987V587.94H999.047Z" fill="#45396D"/>
        <path d="M488.216 179.568C489.272 181.464 490.82 183.276 492.86 185.004L490.808 186.876C489.8 186.108 488.792 185.124 487.784 183.924C486.776 182.748 485.9 181.512 485.156 180.216C484.628 180.264 484.208 180.288 483.896 180.288C481.52 180.288 479.456 179.76 477.704 178.704C475.952 177.648 474.596 176.136 473.636 174.168C472.7 172.176 472.232 169.848 472.232 167.184C472.232 164.496 472.7 162.168 473.636 160.2C474.572 158.232 475.916 156.72 477.668 155.664C479.42 154.608 481.496 154.08 483.896 154.08C486.296 154.08 488.372 154.608 490.124 155.664C491.876 156.72 493.22 158.232 494.156 160.2C495.092 162.168 495.56 164.484 495.56 167.148C495.56 170.292 494.912 172.944 493.616 175.104C492.344 177.24 490.544 178.728 488.216 179.568ZM475.256 167.148C475.256 170.532 476.012 173.148 477.524 174.996C479.036 176.844 481.16 177.768 483.896 177.768C486.608 177.768 488.72 176.844 490.232 174.996C491.744 173.148 492.5 170.532 492.5 167.148C492.5 163.764 491.744 161.16 490.232 159.336C488.744 157.512 486.632 156.6 483.896 156.6C481.16 156.6 479.036 157.524 477.524 159.372C476.012 161.196 475.256 163.788 475.256 167.148ZM515.773 161.892V180H512.929V176.868C512.353 177.972 511.549 178.812 510.517 179.388C509.485 179.964 508.321 180.252 507.025 180.252C504.889 180.252 503.269 179.652 502.165 178.452C501.061 177.252 500.509 175.476 500.509 173.124V161.892H503.425V173.052C503.425 174.684 503.761 175.884 504.433 176.652C505.105 177.42 506.125 177.804 507.493 177.804C509.101 177.804 510.397 177.288 511.381 176.256C512.365 175.2 512.857 173.82 512.857 172.116V161.892H515.773ZM536.55 170.856H523.266C523.29 173.16 523.818 174.9 524.85 176.076C525.906 177.252 527.43 177.84 529.422 177.84C531.534 177.84 533.478 177.132 535.254 175.716L536.226 177.84C535.434 178.584 534.414 179.172 533.166 179.604C531.942 180.036 530.682 180.252 529.386 180.252C526.554 180.252 524.334 179.424 522.726 177.768C521.118 176.088 520.314 173.796 520.314 170.892C520.314 169.044 520.674 167.412 521.394 165.996C522.114 164.556 523.122 163.44 524.418 162.648C525.714 161.856 527.19 161.46 528.846 161.46C531.246 161.46 533.13 162.252 534.498 163.836C535.866 165.396 536.55 167.556 536.55 170.316V170.856ZM528.882 163.728C527.37 163.728 526.134 164.184 525.174 165.096C524.238 166.008 523.638 167.292 523.374 168.948H533.922C533.778 167.244 533.274 165.948 532.41 165.06C531.57 164.172 530.394 163.728 528.882 163.728ZM540.976 153.504H543.892V180H540.976V153.504ZM574.889 161.892V180H572.009V176.724C571.481 177.852 570.677 178.728 569.597 179.352C568.541 179.952 567.305 180.252 565.889 180.252C564.281 180.252 562.865 179.868 561.641 179.1C560.441 178.332 559.505 177.252 558.833 175.86C558.185 174.444 557.861 172.8 557.861 170.928C557.861 169.056 558.197 167.412 558.869 165.996C559.541 164.556 560.477 163.44 561.677 162.648C562.901 161.856 564.305 161.46 565.889 161.46C567.305 161.46 568.541 161.772 569.597 162.396C570.653 163.02 571.457 163.896 572.009 165.024V161.892H574.889ZM566.465 177.84C568.241 177.84 569.609 177.24 570.569 176.04C571.529 174.816 572.009 173.088 572.009 170.856C572.009 168.624 571.529 166.908 570.569 165.708C569.609 164.508 568.241 163.908 566.465 163.908C564.689 163.908 563.297 164.532 562.289 165.78C561.305 167.004 560.813 168.72 560.813 170.928C560.813 173.136 561.305 174.84 562.289 176.04C563.273 177.24 564.665 177.84 566.465 177.84ZM561.641 159.552L565.925 152.208H567.977L572.261 159.552H569.561L566.969 154.368L564.341 159.552H561.641ZM596.655 161.892V179.856C596.655 182.544 595.959 184.572 594.567 185.94C593.199 187.332 591.171 188.028 588.483 188.028C585.723 188.028 583.347 187.404 581.355 186.156L581.859 183.78C583.011 184.428 584.091 184.896 585.099 185.184C586.131 185.472 587.259 185.616 588.483 185.616C590.235 185.616 591.555 185.148 592.443 184.212C593.331 183.3 593.775 181.932 593.775 180.108V175.824C593.223 176.976 592.407 177.876 591.327 178.524C590.271 179.148 589.011 179.46 587.547 179.46C585.963 179.46 584.547 179.088 583.299 178.344C582.075 177.6 581.127 176.544 580.455 175.176C579.783 173.808 579.447 172.236 579.447 170.46C579.447 168.684 579.783 167.112 580.455 165.744C581.127 164.376 582.075 163.32 583.299 162.576C584.547 161.832 585.963 161.46 587.547 161.46C588.987 161.46 590.235 161.772 591.291 162.396C592.371 163.02 593.187 163.896 593.739 165.024V161.892H596.655ZM588.123 177.012C589.875 177.012 591.243 176.436 592.227 175.284C593.235 174.108 593.739 172.5 593.739 170.46C593.739 168.42 593.235 166.824 592.227 165.672C591.243 164.496 589.875 163.908 588.123 163.908C586.347 163.908 584.943 164.496 583.911 165.672C582.903 166.824 582.399 168.42 582.399 170.46C582.399 172.5 582.903 174.108 583.911 175.284C584.943 176.436 586.347 177.012 588.123 177.012ZM617.409 170.856H604.125C604.149 173.16 604.677 174.9 605.709 176.076C606.765 177.252 608.289 177.84 610.281 177.84C612.393 177.84 614.337 177.132 616.113 175.716L617.085 177.84C616.293 178.584 615.273 179.172 614.025 179.604C612.801 180.036 611.541 180.252 610.245 180.252C607.413 180.252 605.193 179.424 603.585 177.768C601.977 176.088 601.173 173.796 601.173 170.892C601.173 169.044 601.533 167.412 602.253 165.996C602.973 164.556 603.981 163.44 605.277 162.648C606.573 161.856 608.049 161.46 609.705 161.46C612.105 161.46 613.989 162.252 615.357 163.836C616.725 165.396 617.409 167.556 617.409 170.316V170.856ZM609.741 163.728C608.229 163.728 606.993 164.184 606.033 165.096C605.097 166.008 604.497 167.292 604.233 168.948H614.781C614.637 167.244 614.133 165.948 613.269 165.06C612.429 164.172 611.253 163.728 609.741 163.728ZM638.71 180.252C637.006 180.252 635.506 179.868 634.21 179.1C632.914 178.332 631.906 177.24 631.186 175.824C630.49 174.408 630.142 172.752 630.142 170.856C630.142 168.96 630.49 167.304 631.186 165.888C631.906 164.472 632.914 163.38 634.21 162.612C635.506 161.844 637.006 161.46 638.71 161.46C640.414 161.46 641.914 161.844 643.21 162.612C644.506 163.38 645.502 164.472 646.198 165.888C646.918 167.304 647.278 168.96 647.278 170.856C647.278 172.752 646.918 174.408 646.198 175.824C645.502 177.24 644.506 178.332 643.21 179.1C641.914 179.868 640.414 180.252 638.71 180.252ZM638.71 177.84C640.51 177.84 641.89 177.252 642.85 176.076C643.81 174.876 644.29 173.136 644.29 170.856C644.29 168.648 643.798 166.944 642.814 165.744C641.83 164.52 640.462 163.908 638.71 163.908C636.934 163.908 635.554 164.52 634.57 165.744C633.586 166.944 633.094 168.648 633.094 170.856C633.094 173.136 633.574 174.876 634.534 176.076C635.518 177.252 636.91 177.84 638.71 177.84ZM660.86 161.46C665.204 161.46 667.376 163.848 667.376 168.624V180H664.46V168.768C664.46 167.088 664.124 165.864 663.452 165.096C662.78 164.304 661.724 163.908 660.284 163.908C658.604 163.908 657.26 164.424 656.252 165.456C655.244 166.488 654.74 167.88 654.74 169.632V180H651.824V166.968C651.824 165.096 651.728 163.404 651.536 161.892H654.308L654.596 165.132C655.148 163.956 655.976 163.056 657.08 162.432C658.184 161.784 659.444 161.46 660.86 161.46ZM676.77 164.196V174.096C676.77 175.44 677.046 176.388 677.598 176.94C678.15 177.468 678.93 177.732 679.938 177.732C680.61 177.732 681.258 177.624 681.882 177.408V179.892C681.138 180.132 680.298 180.252 679.362 180.252C677.634 180.252 676.278 179.772 675.294 178.812C674.334 177.828 673.854 176.388 673.854 174.492V164.196H670.326V161.892H673.854V157.248L676.77 156.204V161.892H681.954V164.196H676.77ZM694.855 153.504H697.771V180H694.855V153.504ZM718.589 170.856H705.305C705.329 173.16 705.857 174.9 706.889 176.076C707.945 177.252 709.469 177.84 711.461 177.84C713.573 177.84 715.517 177.132 717.293 175.716L718.265 177.84C717.473 178.584 716.453 179.172 715.205 179.604C713.981 180.036 712.721 180.252 711.425 180.252C708.593 180.252 706.373 179.424 704.765 177.768C703.157 176.088 702.353 173.796 702.353 170.892C702.353 169.044 702.713 167.412 703.433 165.996C704.153 164.556 705.161 163.44 706.457 162.648C707.753 161.856 709.229 161.46 710.885 161.46C713.285 161.46 715.169 162.252 716.537 163.836C717.905 165.396 718.589 167.556 718.589 170.316V170.856ZM710.921 163.728C709.409 163.728 708.173 164.184 707.213 165.096C706.277 166.008 705.677 167.292 705.413 168.948H715.961C715.817 167.244 715.313 165.948 714.449 165.06C713.609 164.172 712.433 163.728 710.921 163.728ZM729.135 180.252C726.087 180.252 723.675 179.472 721.899 177.912L722.871 175.752C723.855 176.52 724.851 177.072 725.859 177.408C726.867 177.744 727.995 177.912 729.243 177.912C730.611 177.912 731.643 177.684 732.339 177.228C733.059 176.748 733.419 176.064 733.419 175.176C733.419 174.456 733.179 173.88 732.699 173.448C732.219 173.016 731.427 172.68 730.323 172.44L727.263 171.72C725.751 171.384 724.575 170.784 723.735 169.92C722.919 169.056 722.511 168.024 722.511 166.824C722.511 165.24 723.147 163.956 724.419 162.972C725.691 161.964 727.371 161.46 729.459 161.46C730.731 161.46 731.931 161.664 733.059 162.072C734.187 162.48 735.135 163.068 735.903 163.836L734.931 165.96C733.227 164.544 731.403 163.836 729.459 163.836C728.163 163.836 727.155 164.088 726.435 164.592C725.739 165.072 725.391 165.756 725.391 166.644C725.391 167.388 725.607 167.976 726.039 168.408C726.495 168.84 727.215 169.176 728.199 169.416L731.259 170.172C732.939 170.556 734.187 171.156 735.003 171.972C735.819 172.764 736.227 173.808 736.227 175.104C736.227 176.664 735.591 177.912 734.319 178.848C733.047 179.784 731.319 180.252 729.135 180.252ZM765.417 170.856H752.133C752.157 173.16 752.685 174.9 753.717 176.076C754.773 177.252 756.297 177.84 758.289 177.84C760.401 177.84 762.345 177.132 764.121 175.716L765.093 177.84C764.301 178.584 763.281 179.172 762.033 179.604C760.809 180.036 759.549 180.252 758.253 180.252C755.421 180.252 753.201 179.424 751.593 177.768C749.985 176.088 749.181 173.796 749.181 170.892C749.181 169.044 749.541 167.412 750.261 165.996C750.981 164.556 751.989 163.44 753.285 162.648C754.581 161.856 756.057 161.46 757.713 161.46C760.113 161.46 761.997 162.252 763.365 163.836C764.733 165.396 765.417 167.556 765.417 170.316V170.856ZM757.749 163.728C756.237 163.728 755.001 164.184 754.041 165.096C753.105 166.008 752.505 167.292 752.241 168.948H762.789C762.645 167.244 762.141 165.948 761.277 165.06C760.437 164.172 759.261 163.728 757.749 163.728ZM778.879 161.46C783.223 161.46 785.395 163.848 785.395 168.624V180H782.479V168.768C782.479 167.088 782.143 165.864 781.471 165.096C780.799 164.304 779.743 163.908 778.303 163.908C776.623 163.908 775.279 164.424 774.271 165.456C773.263 166.488 772.759 167.88 772.759 169.632V180H769.843V166.968C769.843 165.096 769.747 163.404 769.555 161.892H772.327L772.615 165.132C773.167 163.956 773.995 163.056 775.099 162.432C776.203 161.784 777.463 161.46 778.879 161.46ZM797.85 155.88C796.89 155.88 796.134 156.156 795.582 156.708C795.054 157.236 794.79 158.16 794.79 159.48V161.892H799.218V164.196H794.79V180H791.874V164.196H788.346V161.892H791.874V159.12C791.874 157.224 792.342 155.796 793.278 154.836C794.238 153.852 795.57 153.36 797.274 153.36C798.114 153.36 798.93 153.468 799.722 153.684V156.168C799.05 155.976 798.426 155.88 797.85 155.88ZM818.803 161.892V180H815.923V176.724C815.395 177.852 814.591 178.728 813.511 179.352C812.455 179.952 811.219 180.252 809.803 180.252C808.195 180.252 806.779 179.868 805.555 179.1C804.355 178.332 803.419 177.252 802.747 175.86C802.099 174.444 801.775 172.8 801.775 170.928C801.775 169.056 802.111 167.412 802.783 165.996C803.455 164.556 804.391 163.44 805.591 162.648C806.815 161.856 808.219 161.46 809.803 161.46C811.219 161.46 812.455 161.772 813.511 162.396C814.567 163.02 815.371 163.896 815.923 165.024V161.892H818.803ZM810.379 177.84C812.155 177.84 813.523 177.24 814.483 176.04C815.443 174.816 815.923 173.088 815.923 170.856C815.923 168.624 815.443 166.908 814.483 165.708C813.523 164.508 812.155 163.908 810.379 163.908C808.603 163.908 807.211 164.532 806.203 165.78C805.219 167.004 804.727 168.72 804.727 170.928C804.727 173.136 805.219 174.84 806.203 176.04C807.187 177.24 808.579 177.84 810.379 177.84ZM833.477 161.46C837.821 161.46 839.993 163.848 839.993 168.624V180H837.077V168.768C837.077 167.088 836.741 165.864 836.069 165.096C835.397 164.304 834.341 163.908 832.901 163.908C831.221 163.908 829.877 164.424 828.869 165.456C827.861 166.488 827.357 167.88 827.357 169.632V180H824.441V166.968C824.441 165.096 824.345 163.404 824.153 161.892H826.925L827.213 165.132C827.765 163.956 828.593 163.056 829.697 162.432C830.801 161.784 832.061 161.46 833.477 161.46ZM849.387 164.196V174.096C849.387 175.44 849.663 176.388 850.215 176.94C850.767 177.468 851.547 177.732 852.555 177.732C853.227 177.732 853.875 177.624 854.499 177.408V179.892C853.755 180.132 852.915 180.252 851.979 180.252C850.251 180.252 848.895 179.772 847.911 178.812C846.951 177.828 846.471 176.388 846.471 174.492V164.196H842.943V161.892H846.471V157.248L849.387 156.204V161.892H854.571V164.196H849.387ZM864.205 180.252C861.157 180.252 858.745 179.472 856.969 177.912L857.941 175.752C858.925 176.52 859.921 177.072 860.929 177.408C861.937 177.744 863.065 177.912 864.313 177.912C865.681 177.912 866.713 177.684 867.409 177.228C868.129 176.748 868.489 176.064 868.489 175.176C868.489 174.456 868.249 173.88 867.769 173.448C867.289 173.016 866.497 172.68 865.393 172.44L862.333 171.72C860.821 171.384 859.645 170.784 858.805 169.92C857.989 169.056 857.581 168.024 857.581 166.824C857.581 165.24 858.217 163.956 859.489 162.972C860.761 161.964 862.441 161.46 864.529 161.46C865.801 161.46 867.001 161.664 868.129 162.072C869.257 162.48 870.205 163.068 870.973 163.836L870.001 165.96C868.297 164.544 866.473 163.836 864.529 163.836C863.233 163.836 862.225 164.088 861.505 164.592C860.809 165.072 860.461 165.756 860.461 166.644C860.461 167.388 860.677 167.976 861.109 168.408C861.565 168.84 862.285 169.176 863.269 169.416L866.329 170.172C868.009 170.556 869.257 171.156 870.073 171.972C870.889 172.764 871.297 173.808 871.297 175.104C871.297 176.664 870.661 177.912 869.389 178.848C868.117 179.784 866.389 180.252 864.205 180.252ZM885.691 155.412C886.459 154.98 887.287 154.656 888.175 154.44C889.063 154.2 889.939 154.08 890.803 154.08C892.867 154.08 894.535 154.608 895.807 155.664C897.103 156.696 897.751 158.064 897.751 159.768C897.751 160.656 897.595 161.472 897.283 162.216C896.995 162.96 896.635 163.632 896.203 164.232C895.771 164.808 895.183 165.528 894.439 166.392C893.407 167.544 892.603 168.576 892.027 169.488C891.475 170.4 891.139 171.456 891.019 172.656L890.911 173.304H889.183V172.404C889.183 170.892 889.447 169.62 889.975 168.588C890.503 167.532 891.283 166.356 892.315 165.06C893.131 164.028 893.731 163.152 894.115 162.432C894.523 161.688 894.727 160.86 894.727 159.948C894.727 158.916 894.367 158.1 893.647 157.5C892.927 156.9 891.931 156.6 890.659 156.6C888.979 156.6 887.323 157.104 885.691 158.112V155.412ZM888.211 176.292H891.919V180H888.211V176.292ZM910.352 154.368H913.988L913.052 173.268H911.252L910.352 154.368ZM914.024 176.292V180H910.316V176.292H914.024Z" fill="#45396D"/>
        <circle cx="858.876" cy="667.056" r="5.5" transform="rotate(-6.89509 858.876 667.056)" stroke="#45396D" stroke-width="2"/>
        <circle cx="891.559" cy="620.797" r="10.5" transform="rotate(-6.89509 891.559 620.797)" stroke="#45396D" stroke-width="2"/>
        <circle cx="873.592" cy="647.145" r="8.5" transform="rotate(-6.89509 873.592 647.145)" stroke="#45396D" stroke-width="2"/>
        <circle cx="398.935" cy="219.4" r="5.5" transform="rotate(14.6835 398.935 219.4)" stroke="#45396D" stroke-width="2"/>
        <circle cx="446.341" cy="188.404" r="10.5" transform="rotate(14.6835 446.341 188.404)" stroke="#45396D" stroke-width="2"/>
        <circle cx="419.943" cy="206.297" r="8.5" transform="rotate(14.6835 419.943 206.297)" stroke="#45396D" stroke-width="2"/>
        <rect x="237.143" y="742.618" width="8.36233" height="71.0168" rx="2" transform="rotate(128.837 237.143 742.618)" fill="#025243"/>
        <g clip-path="url(#clip1)">
            <path d="M212.495 778.014C244.287 790.094 294.525 809.281 318.966 819.128C323.968 821.144 327.177 817.158 324.143 812.698C309.302 790.926 279.833 745.943 261.245 717.461C253.499 705.591 237.167 701.288 230.647 709.388L214.363 729.614L198.079 749.841C191.549 757.939 199.248 772.977 212.495 778.014Z" fill="#025243"/>
        </g>
        <circle cx="196.5" cy="40.5" r="17.5" fill="#FFCDB6"/>
        <path d="M191 33L187 38L191 43" stroke="white" stroke-width="2" stroke-linecap="round" stroke-linejoin="round"/>
        <path d="M187.5 38H199.5C202.261 38 204.5 40.2386 204.5 43V43C204.5 45.7614 202.261 48 199.5 48H197" stroke="white" stroke-width="2" stroke-linecap="round"/>
        <circle cx="108.5" cy="40.5" r="17.5" fill="#FFCDB6"/>
        <path d="M108.5 33V48" stroke="white" stroke-width="2" stroke-miterlimit="10" stroke-linecap="round"/>
        <path d="M116 40.5H101" stroke="white" stroke-width="2" stroke-miterlimit="10" stroke-linecap="round"/>
        <rect x="177.517" y="640" width="11.0216" height="65.1278" rx="2" fill="#FFCDB6"/>
        <g clip-path="url(#clip2)">
            <path d="M234.229 637.251C220.353 607.593 198.528 560.672 188.436 537.55C186.372 532.817 179.627 532.817 177.556 537.55C167.471 560.672 145.646 607.593 131.77 637.251C125.986 649.61 135.067 663.751 148.771 663.751H182.996H217.221C230.932 663.759 240.006 649.61 234.229 637.251Z" fill="#03A678"/>
        </g>
        <path d="M353.252 308C305.586 433.667 281.452 685.5 566.252 687.5" stroke="#00FFF0" stroke-width="2"/>
        <circle cx="152.5" cy="40.5" r="17.5" fill="#FFCDB6"/>
        <path d="M161.584 41.4397L163.803 39.2209C164.066 38.9577 164.066 38.5314 163.803 38.2681C163.539 38.0049 163.113 38.0049 162.85 38.2681L160.631 40.4869L158.412 38.2681C158.149 38.0049 157.723 38.0049 157.46 38.2681C157.196 38.5314 157.196 38.9577 157.46 39.2209L159.678 41.4397L157.46 43.6584C157.196 43.9216 157.196 44.348 157.46 44.6112C157.723 44.8745 158.149 44.8745 158.412 44.6112L160.631 42.3925L162.85 44.6112C163.113 44.8745 163.539 44.8745 163.803 44.6112C164.066 44.348 164.066 43.9216 163.803 43.6584L161.584 41.4397Z" fill="white"/>
        <path d="M154.659 29.194C153.941 28.8576 153.117 28.964 152.508 29.4717L146.82 34.2115H143.021C141.907 34.2115 141 35.1185 141 36.233V44.7674C141 45.882 141.907 46.7889 143.021 46.7889H146.82L152.508 51.5287C153.117 52.0368 153.942 52.1424 154.659 51.8064C155.377 51.4699 155.823 50.7686 155.823 49.9758V31.0247C155.823 30.2318 155.377 29.5301 154.659 29.194ZM146.39 45.4498H143.021C142.65 45.4498 142.348 45.1385 142.348 44.767V36.233C142.348 35.8615 142.65 35.5592 143.021 35.5592H146.39V45.4498ZM154.476 49.9758C154.476 50.3733 154.179 50.5431 154.088 50.5858C153.996 50.6285 153.676 50.748 153.371 50.4933L147.738 45.7993V35.2007L153.371 30.5067C153.676 30.252 153.997 30.3715 154.088 30.4142C154.179 30.4568 154.476 30.6266 154.476 31.0242V49.9758Z" fill="white"/>
        <path d="M225.354 340.812C228.616 332.49 227.417 324.223 222.677 322.347C217.937 320.472 211.449 325.699 208.188 334.021C204.926 342.343 206.124 350.61 210.865 352.486C215.605 354.361 222.092 349.134 225.354 340.812Z" fill="#45396D"/>
        <path d="M332.51 352.497C337.251 350.622 338.449 342.355 335.187 334.033C331.926 325.71 325.439 320.484 320.698 322.359C315.958 324.235 314.759 332.501 318.021 340.824C321.283 349.146 327.77 354.373 332.51 352.497Z" fill="#45396D"/>
        <path d="M271.987 449.593C285.621 449.593 296.673 447.181 296.673 444.205C296.673 441.23 285.621 438.818 271.987 438.818C258.354 438.818 247.302 441.23 247.302 444.205C247.302 447.181 258.354 449.593 271.987 449.593Z" stroke="#3EE5B1" stroke-width="2" stroke-miterlimit="10"/>
        <path d="M271.987 446.99C273.432 446.907 274.846 446.173 275.73 444.81L288.744 424.731H255.23L268.244 444.81C269.128 446.173 270.542 446.907 271.987 446.99Z" fill="#FDECE0"/>
        <path d="M271.987 437.221C272.388 437.216 272.8 437.201 273.216 437.18C287.16 436.493 299.485 404.997 298.914 399.062C298.349 393.127 290.904 387.522 290.904 387.522H253.061C253.061 387.522 245.615 393.127 245.05 399.062C244.484 404.997 256.804 436.493 270.748 437.18C271.18 437.201 271.586 437.216 271.987 437.221Z" fill="#FFCDB6"/>
        <path d="M271.987 461.102C282.991 461.102 291.911 459.622 291.911 457.796C291.911 455.971 282.991 454.49 271.987 454.49C260.983 454.49 252.063 455.971 252.063 457.796C252.063 459.622 260.983 461.102 271.987 461.102Z" stroke="#3EE5B1" stroke-width="2" stroke-miterlimit="10"/>
        <path d="M271.987 471C277.865 471 282.631 469.881 282.631 468.5C282.631 467.119 277.865 466 271.987 466C266.109 466 261.344 467.119 261.344 468.5C261.344 469.881 266.109 471 271.987 471Z" stroke="#3EE5B1" stroke-width="2" stroke-miterlimit="10"/>
        <path d="M280.692 322H264.645V341.593H280.692V322Z" fill="#45396D"/>
        <path d="M271.987 400.369C285.166 400.369 295.85 385.662 295.85 367.52C295.85 349.378 285.166 334.671 271.987 334.671C258.808 334.671 248.125 349.378 248.125 367.52C248.125 385.662 258.808 400.369 271.987 400.369Z" fill="#45396D"/>
        <path d="M274.692 327.718L274.702 354.249V354.254C274.83 354.254 276.738 354.13 299.105 351.95C303.881 351.486 307.732 349.641 310.838 346.96C310.838 346.955 310.838 346.955 310.838 346.955C324.206 335.394 323.687 308.161 323.677 307.685C310.427 319.923 293.361 327.408 274.692 327.718Z" fill="#FFCDB6"/>
        <path d="M274.702 354.254C274.702 354.384 274.712 358.062 275.802 365.769C299.408 372.34 301.002 382.279 302.118 381.793C303.233 381.313 316.314 375.227 313.445 368.176C310.612 361.213 310.833 347.317 310.838 346.96C307.732 349.641 303.881 351.486 299.105 351.95C276.738 354.13 274.83 354.254 274.702 354.254Z" fill="#FDECE0"/>
        <path d="M271.987 158.783C272.393 158.778 272.805 158.773 273.216 158.773C316.078 158.773 350.825 196.596 350.825 243.253C350.825 269.077 340.182 292.188 323.41 307.68C323.41 307.68 323.41 307.68 323.41 307.685C310.159 319.923 293.094 327.408 274.424 327.718C274.023 327.723 273.617 327.728 273.216 327.728C272.805 327.728 272.399 327.723 271.987 327.718C271.581 327.723 271.17 327.728 270.758 327.728C270.357 327.728 269.951 327.723 269.55 327.718C250.88 327.408 233.815 319.923 220.565 307.685C220.565 307.68 220.565 307.68 220.565 307.68C203.793 292.188 193.149 269.077 193.149 243.253C193.149 196.596 227.897 158.773 270.758 158.773C271.17 158.773 271.581 158.778 271.987 158.783Z" fill="#FDECE0"/>
        <path d="M271.525 237.349C242.808 237.69 223.372 234.146 215.634 234.342C204.672 234.616 206.862 260.501 221.665 287.208C233.579 308.708 250.819 316.648 271.525 315.625H271.987C292.698 316.648 309.933 308.708 321.847 287.208C336.644 260.501 338.84 234.616 327.878 234.342C320.14 234.146 300.704 237.695 271.987 237.349H271.525Z" fill="#FFCDB6"/>
        <path d="M164.818 189.509L153.815 167.715C153.815 167.715 151.105 162.425 155.568 160.823L194.594 226.971L193.37 236.625L189.221 236.564L164.818 189.509Z" fill="#45396D"/>
        <path d="M164.818 189.509C165.137 190.149 186.964 255.418 186.964 255.418L191.195 235.442L164.818 189.509Z" fill="#FFCDB6"/>
        <path d="M196.676 275.523C196.676 275.523 187.067 267.656 186.964 253.858C186.861 240.061 191.19 235.437 191.19 235.437L196.676 275.523Z" fill="#FFCDB6"/>
        <path d="M203.073 284.517C203.073 284.517 198.512 286.067 195.941 272.161C193.37 258.254 190.676 234.926 191.149 231.899C191.622 228.872 190.897 226.217 194.301 225.054C197.705 223.887 203.073 284.517 203.073 284.517Z" fill="#45396D"/>
        <path d="M379.177 189.555L390.185 167.761C390.185 167.761 392.895 162.471 388.432 160.87L349.401 227.017L350.625 236.672L354.774 236.61L379.177 189.555Z" fill="#45396D"/>
        <path d="M379.177 189.555C378.858 190.196 357.031 255.465 357.031 255.465L352.8 235.489L379.177 189.555Z" fill="#FFCDB6"/>
        <path d="M347.319 275.575C347.319 275.575 356.929 267.708 357.031 253.91C357.134 240.112 352.805 235.489 352.805 235.489L347.319 275.575Z" fill="#FFCDB6"/>
        <path d="M340.922 284.564C340.922 284.564 345.483 286.113 348.054 272.207C350.625 258.301 353.319 234.972 352.846 231.945C352.373 228.918 353.098 226.263 349.694 225.101C346.29 223.933 340.922 284.564 340.922 284.564Z" fill="#45396D"/>
        <path d="M269.54 354.255C269.54 354.249 269.54 354.249 269.54 354.249C269.54 354.249 269.556 354.255 269.54 354.255Z" fill="#03A678"/>
        <path d="M269.55 327.718L269.54 354.249V354.254C269.411 354.254 267.503 354.13 245.137 351.95C240.36 351.486 236.509 349.641 233.404 346.96C233.404 346.955 233.404 346.955 233.404 346.955C220.035 335.394 220.554 308.161 220.565 307.685C233.815 319.923 250.88 327.408 269.55 327.718Z" fill="#FFCDB6"/>
        <path d="M269.54 354.254C269.54 354.384 269.529 358.062 268.439 365.769C244.834 372.34 243.24 382.279 242.124 381.793C241.008 381.313 227.928 375.227 230.797 368.176C233.63 361.213 233.409 347.317 233.404 346.96C236.509 349.641 240.36 351.486 245.137 351.95C267.503 354.13 269.411 354.254 269.54 354.254Z" fill="#FDECE0"/>
        <path d="M290.96 340.09C290.95 341.211 290.261 342.332 288.744 342.332C287.227 342.332 286.523 341.237 286.523 340.095C286.523 338.953 287.253 337.807 288.744 337.807C290.235 337.812 290.975 338.959 290.96 340.09ZM287.33 340.111C287.351 340.823 287.731 341.583 288.749 341.583C289.767 341.583 290.148 340.813 290.163 340.1C290.173 339.367 289.767 338.551 288.749 338.551C287.731 338.556 287.309 339.377 287.33 340.111Z" fill="#FDECE0"/>
        <path d="M293.526 339.687L294.672 337.894H295.654V337.93L293.932 340.441V342.234H293.119V340.441L291.459 337.93V337.894H292.425L293.526 339.687Z" fill="#FDECE0"/>
        <path d="M299.536 341.417H297.279L296.909 342.234H296.025L297.963 337.894H298.853L300.791 342.234H299.902L299.536 341.417ZM298.41 338.809L297.608 340.653H299.213L298.41 338.809Z" fill="#FDECE0"/>
        <path d="M300.481 294.259C312.521 293.709 321.716 280.789 321.02 265.401C320.324 250.014 310 237.985 297.96 238.535C285.921 239.085 276.725 252.004 277.421 267.392C278.117 282.78 288.441 294.808 300.481 294.259Z" fill="white"/>
        <path d="M268.942 267.39C269.638 252.002 260.442 239.082 248.403 238.532C236.363 237.983 226.039 250.011 225.343 265.399C224.647 280.787 233.843 293.707 245.882 294.256C257.922 294.806 268.246 282.777 268.942 267.39Z" fill="white"/>
        <path d="M258.994 282.931C260.454 278.235 261.724 267.207 260.948 260C260.675 257.464 257.23 256.359 255.873 258.513C249.919 267.94 244.772 279.362 244.808 285.638C244.844 291.615 254.187 287.141 258.12 285.338C259.015 284.925 258.701 283.871 258.994 282.931Z" fill="#45396D"/>
        <path d="M248.819 273.643C242.402 279.088 241.61 299.162 210.456 338.597C201.155 350.303 201.417 358.64 211.341 363.563C214.559 365.159 221.11 363.909 222.817 362.38C228.087 357.659 256.156 311.095 260.418 277.652C260.948 271.35 255.235 268.198 248.819 273.643Z" fill="#FDECE0"/>
        <path d="M284.245 282.931C282.785 278.235 281.515 267.207 282.291 260C282.564 257.464 286.009 256.359 287.366 258.513C293.32 267.94 298.467 279.362 298.431 285.638C298.395 291.615 289.053 287.141 285.119 285.338C284.225 284.925 284.538 283.871 284.245 282.931Z" fill="#45396D"/>
        <path d="M294.42 273.643C300.837 279.088 301.629 299.162 332.783 338.597C342.084 350.303 341.822 358.64 331.899 363.563C328.68 365.159 322.129 363.909 320.422 362.38C315.152 357.659 287.083 311.095 282.821 277.652C282.291 271.35 288.004 268.199 294.42 273.643Z" fill="#FDECE0"/>
        <path d="M285.728 119.72C285.568 119.171 284.876 119.065 284.491 119.5C278.18 126.592 269.039 127.962 266.501 136.68C264.862 142.306 266.575 146.718 267.669 148.775C267.706 148.839 267.743 148.894 267.784 148.935C265.833 157.163 266.24 161.153 266.717 162.88C266.895 163.522 267.605 163.851 268.219 163.59C268.741 163.366 269.007 162.784 268.837 162.239C268.26 160.388 266.648 156.095 268.965 148.06C270.816 142.627 272.991 139.804 274.718 138.334C276.444 136.964 277.786 136.749 277.786 136.749C273.619 141.614 272.41 147.359 272.071 150.296C271.933 151.423 272.739 152.43 273.861 152.527C281.904 153.205 285.934 146.837 287.601 139.049C289.039 132.332 286.708 123.12 285.728 119.72Z" fill="#04D99D"/>
        <path d="M589.5 724.646C387.449 698.908 111.5 697.423 0 689V800H1440V703.658C1120.5 724.414 864 759.614 589.5 724.646Z" fill="#025949"/>
        <path d="M45.8072 57.1173C42.8812 55.4689 40.3991 53.0969 38.6435 50.2625C39.3094 44.855 40.0964 39.9903 41.0045 37.5177C39.9955 39.8295 38.4821 43.6489 37.352 47.7698C36.7265 46.3426 36.2825 44.855 36 43.287C37.352 40.2516 39.0269 37.8796 41.065 35.7688C41.4484 35.3668 41.7511 35.206 42.0336 35.2261C42.3161 35.2462 42.5785 35.4874 42.8812 35.9699C45.1009 39.6687 46.4327 43.669 46.6749 48.011C46.7556 49.3177 46.4731 53.7803 45.8072 57.1173Z" fill="#45396D"/>
        <path d="M47.8252 34.3215C45.2422 35.5879 42.1144 34.5627 40.8028 31.9897C39.4709 29.4568 40.5202 26.2203 43.0427 24.9338C45.6256 23.6272 48.7131 24.6725 50.0651 27.2657C51.3767 29.8789 50.3879 33.035 47.8252 34.3215Z" fill="#45396D"/>
        <path d="M49.6008 37.8594C49.5201 35.5879 51.4372 33.5777 53.6973 33.5375C55.9977 33.4772 57.9349 35.3467 57.9551 37.6584C57.9955 40.0506 56.2802 41.8598 53.8991 41.9603C51.6591 42.0206 49.6614 40.131 49.6008 37.8594Z" fill="#45396D"/>
        <path d="M49.0762 43.5886C49.2377 42.8448 49.3789 42.3825 49.6009 42.1412C49.6009 42.1412 50.6301 52.916 52.8094 59.4894C52.7287 59.4894 52.6682 59.4692 52.5875 59.4491C52.5673 59.4692 52.5471 59.4491 52.5269 59.4491C52.0023 59.228 51.4978 59.0069 50.9933 58.7657C50.3274 57.9415 49.8431 56.9766 49.5202 55.9112C48.8139 53.6999 48.5112 51.4284 48.4507 49.3378C48.491 47.2271 48.6928 45.4179 49.0762 43.5886Z" fill="#45396D"/>
        <path d="M57.6524 59.5497C54.8677 55.5493 50.5291 48.5337 49.6008 42.1412C49.9237 41.7794 50.408 41.9804 51.3564 42.6036C57.2892 46.5034 60.7197 51.9109 62.1322 58.5647C60.6995 59.0471 59.2062 59.3888 57.6524 59.5497Z" fill="#45396D"/>
        <path d="M57.935 29.6176C56.6233 27.0646 57.6525 23.8483 60.1749 22.5618C61.6076 21.8381 63.222 21.8381 64.574 22.4211C64.796 22.5216 64.9978 22.6422 65.1996 22.7628C66.0269 23.2653 66.713 23.989 67.1973 24.8936C68.5292 27.4868 67.5404 30.6428 64.9776 31.9092C62.4148 33.2159 59.2668 32.1907 57.935 29.6176Z" fill="#45396D"/>
        <path d="M70.9104 52.3129C72.4239 45.1163 72.4642 36.9549 72.3432 32.5324C72.1212 39.5882 69.0741 49.6996 66.8947 56.0921C65.906 56.7956 64.8566 57.3987 63.7468 57.9013C63.101 54.9865 61.9912 52.2124 60.5181 49.4986C59.2669 47.2069 59.2064 44.7545 60.3566 42.3422C62.7781 37.2966 65.9867 33.1556 70.527 29.7784C71.092 29.3563 71.5562 29.1955 71.8992 29.296C72.0808 29.3563 72.2019 29.4769 72.3432 29.6779C72.4844 29.8789 72.6257 30.1201 72.8073 30.4016C73.0091 30.7232 73.2109 31.0448 73.3723 31.4067C73.5338 31.7283 73.675 32.0701 73.8163 32.3917C73.9575 32.7334 74.0786 33.0752 74.2199 33.4169C74.3207 33.7385 74.4418 34.0803 74.5427 34.422C74.5629 34.4823 74.5831 34.5225 74.6033 34.5828C74.684 34.8843 74.7647 35.1859 74.8454 35.5075C74.9261 35.8693 75.0068 36.2111 75.0674 36.593C75.249 37.6986 75.3499 38.8043 75.3499 39.9702C75.3095 44.6339 73.6548 48.9357 70.9104 52.3129Z" fill="#45396D"/>
        <path d="M45.8072 57.1173C42.8812 55.4689 40.3991 53.0969 38.6435 50.2625C39.3094 44.855 40.0964 39.9903 41.0045 37.5177C39.9955 39.8295 38.4821 43.6489 37.352 47.7698C36.7265 46.3426 36.2825 44.855 36 43.287C37.352 40.2516 39.0269 37.8796 41.065 35.7688C41.4484 35.3668 41.7511 35.206 42.0336 35.2261C42.3161 35.2462 42.5785 35.4874 42.8812 35.9699C45.1009 39.6687 46.4327 43.669 46.6749 48.011C46.7556 49.3177 46.4731 53.7803 45.8072 57.1173Z" fill="#04D99D"/>
        <path d="M70.9104 52.3129C72.4239 45.1163 72.4642 36.9549 72.3432 32.5324C72.1212 39.5882 69.0741 49.6996 66.8947 56.0921C65.906 56.7956 64.8566 57.3987 63.7468 57.9013C63.101 54.9865 61.9912 52.2124 60.5181 49.4986C59.2669 47.2069 59.2064 44.7545 60.3566 42.3422C62.7781 37.2966 65.9867 33.1556 70.527 29.7784C71.092 29.3563 71.5562 29.1955 71.8992 29.296C72.0808 29.3563 72.2019 29.4769 72.3432 29.6779C72.4844 29.8789 72.6257 30.1201 72.8073 30.4016C73.0091 30.7232 73.2109 31.0448 73.3723 31.4067C73.5338 31.7283 73.675 32.0701 73.8163 32.3917C73.9575 32.7334 74.0786 33.0752 74.2199 33.4169C74.3207 33.7385 74.4418 34.0803 74.5427 34.422C74.5629 34.4823 74.5831 34.5225 74.6033 34.5828C74.684 34.8843 74.7647 35.1859 74.8454 35.5075C74.9261 35.8693 75.0068 36.2111 75.0674 36.593C75.249 37.6986 75.3499 38.8043 75.3499 39.9702C75.3095 44.6339 73.6548 48.9357 70.9104 52.3129Z" fill="#04D99D"/>
        <path d="M52.8096 59.5497C52.7289 59.5095 52.6482 59.4894 52.5674 59.4492C52.5473 59.4693 52.5271 59.4492 52.5069 59.4492C51.9822 59.228 51.4778 59.0069 50.9733 58.7657C50.3073 57.9415 49.823 56.9766 49.5002 55.9112C48.7939 53.6999 48.4912 51.4284 48.4307 49.3378C48.471 47.2271 48.6728 45.4179 49.0562 43.5886C49.2177 42.8448 49.3589 42.3825 49.5809 42.1412C49.5809 42.1412 50.61 52.916 52.7894 59.4894C52.7894 59.4894 52.8096 59.5296 52.8096 59.5497Z" fill="#04D99D"/>
        <path d="M62.112 58.5445C60.6994 59.0471 59.1859 59.3888 57.6321 59.5497C54.8474 55.5493 50.5088 48.5337 49.5806 42.1412C49.9034 41.7794 50.3877 41.9804 51.3362 42.6036C57.2891 46.5034 60.6994 51.9109 62.112 58.5445Z" fill="#04D99D"/>
        <path d="M64.9776 31.9293C62.3946 33.236 59.2466 32.1907 57.935 29.6377C56.6233 27.0847 57.6525 23.8684 60.1749 22.5819C61.6076 21.8582 63.222 21.8582 64.574 22.4411C64.796 22.5416 64.9978 22.6623 65.1996 22.7829C66.0269 23.2854 66.713 24.0091 67.1973 24.9137C68.5292 27.5069 67.5404 30.6428 64.9776 31.9293Z" fill="#FFCDB6"/>
        <path d="M47.8252 34.3215C45.2422 35.5879 42.1144 34.5627 40.8028 31.9897C39.4709 29.4568 40.5202 26.2203 43.0427 24.9338C45.6256 23.6272 48.7131 24.6725 50.0651 27.2657C51.3767 29.8789 50.3879 33.035 47.8252 34.3215Z" fill="#FFCDB6"/>
        <path d="M57.9551 37.6584C57.9955 40.0506 56.2802 41.8598 53.8991 41.9603C51.6591 42.0407 49.6816 40.1511 49.6008 37.8595C49.5201 35.5879 51.4372 33.5777 53.6973 33.5375C55.9977 33.4973 57.9349 35.3467 57.9551 37.6584Z" fill="#FFCDB6"/>
    </g>
    <defs>
        <clipPath id="clip0">
            <rect width="1440" height="800" fill="white"/>
        </clipPath>
        <clipPath id="clip1">
            <rect width="80.4243" height="141.492" fill="white" transform="translate(349.785 787.02) rotate(128.837)"/>
        </clipPath>
        <clipPath id="clip2">
            <rect width="106" height="129.759" fill="white" transform="translate(130 534)"/>
        </clipPath>
    </defs>
</svg>
