<svg width="1440" height="800" viewBox="0 0 1440 800" fill="none" xmlns="http://www.w3.org/2000/svg">
    <g clip-path="url(#clip0)">
        <rect width="1440" height="800" fill="white"/>
        <path d="M35.792 42.354H30.104L28.97 45H25.586L31.58 32.184H34.244L40.256 45H36.926L35.792 42.354ZM34.694 39.816L32.948 35.766L31.202 39.816H34.694ZM50.436 31.752V45H47.232V43.758C46.968 44.19 46.584 44.532 46.08 44.784C45.576 45.024 45.024 45.144 44.424 45.144C43.644 45.144 42.948 44.946 42.336 44.55C41.724 44.142 41.244 43.578 40.896 42.858C40.56 42.126 40.392 41.286 40.392 40.338C40.392 39.402 40.56 38.574 40.896 37.854C41.244 37.134 41.724 36.582 42.336 36.198C42.948 35.802 43.644 35.604 44.424 35.604C45 35.604 45.528 35.724 46.008 35.964C46.5 36.204 46.89 36.528 47.178 36.936V31.752H50.436ZM45.432 42.714C46.008 42.714 46.452 42.516 46.764 42.12C47.076 41.712 47.232 41.13 47.232 40.374C47.232 39.642 47.07 39.078 46.746 38.682C46.434 38.274 45.996 38.07 45.432 38.07C44.844 38.07 44.394 38.268 44.082 38.664C43.77 39.048 43.614 39.606 43.614 40.338C43.614 41.094 43.77 41.682 44.082 42.102C44.406 42.51 44.856 42.714 45.432 42.714ZM56.9804 45.144C55.9604 45.144 55.0724 44.952 54.3164 44.568C53.5604 44.184 52.9784 43.632 52.5704 42.912C52.1624 42.192 51.9584 41.346 51.9584 40.374C51.9584 39.402 52.1624 38.556 52.5704 37.836C52.9784 37.116 53.5604 36.564 54.3164 36.18C55.0724 35.796 55.9604 35.604 56.9804 35.604C57.9884 35.604 58.8644 35.802 59.6084 36.198C60.3644 36.582 60.9464 37.134 61.3544 37.854C61.7624 38.562 61.9664 39.402 61.9664 40.374C61.9664 41.346 61.7624 42.192 61.3544 42.912C60.9464 43.62 60.3644 44.172 59.6084 44.568C58.8644 44.952 57.9884 45.144 56.9804 45.144ZM56.9804 42.714C58.1564 42.714 58.7444 41.934 58.7444 40.374C58.7444 39.582 58.5944 39 58.2944 38.628C58.0064 38.244 57.5684 38.052 56.9804 38.052C56.3804 38.052 55.9304 38.244 55.6304 38.628C55.3304 39 55.1804 39.582 55.1804 40.374C55.1804 41.178 55.3304 41.772 55.6304 42.156C55.9304 42.528 56.3804 42.714 56.9804 42.714ZM69.5293 35.604C70.3093 35.604 71.0053 35.808 71.6173 36.216C72.2293 36.624 72.7093 37.194 73.0573 37.926C73.4053 38.658 73.5793 39.498 73.5793 40.446C73.5793 41.382 73.4053 42.21 73.0573 42.93C72.7213 43.638 72.2473 44.184 71.6353 44.568C71.0233 44.952 70.3213 45.144 69.5293 45.144C68.9293 45.144 68.3833 45.03 67.8913 44.802C67.3993 44.562 67.0213 44.232 66.7573 43.812V48.888H63.4993V38.484C63.4993 37.5 63.4513 36.624 63.3553 35.856H66.4153L66.5953 37.278C66.8233 36.774 67.2013 36.372 67.7293 36.072C68.2573 35.76 68.8573 35.604 69.5293 35.604ZM68.5393 42.714C69.1273 42.714 69.5713 42.522 69.8713 42.138C70.1713 41.754 70.3213 41.19 70.3213 40.446C70.3213 39.69 70.1653 39.108 69.8533 38.7C69.5533 38.28 69.1153 38.07 68.5393 38.07C67.9513 38.07 67.5013 38.268 67.1893 38.664C66.8773 39.06 66.7213 39.642 66.7213 40.41C66.7213 41.154 66.8773 41.724 67.1893 42.12C67.5013 42.516 67.9513 42.714 68.5393 42.714ZM80.3954 42.516C80.6114 42.516 80.8994 42.48 81.2594 42.408V44.874C80.8154 45.054 80.2514 45.144 79.5674 45.144C78.3314 45.144 77.3894 44.796 76.7414 44.1C76.1054 43.404 75.7874 42.438 75.7874 41.202V38.25H74.0774V35.856H75.7874V33.786L79.0454 32.742V35.856H81.2414V38.25H79.0454V41.202C79.0454 41.634 79.1714 41.964 79.4234 42.192C79.6874 42.408 80.0114 42.516 80.3954 42.516ZM90.9257 40.752H85.1837C85.2437 41.46 85.4477 41.97 85.7957 42.282C86.1437 42.594 86.6537 42.75 87.3257 42.75C87.7817 42.75 88.2377 42.678 88.6937 42.534C89.1497 42.378 89.5637 42.168 89.9357 41.904L90.7637 44.064C90.3077 44.4 89.7557 44.664 89.1077 44.856C88.4597 45.048 87.8117 45.144 87.1637 45.144C86.1197 45.144 85.2137 44.952 84.4457 44.568C83.6777 44.184 83.0897 43.638 82.6817 42.93C82.2737 42.21 82.0697 41.364 82.0697 40.392C82.0697 39.468 82.2617 38.646 82.6457 37.926C83.0417 37.194 83.5817 36.624 84.2657 36.216C84.9617 35.808 85.7537 35.604 86.6417 35.604C87.5057 35.604 88.2617 35.796 88.9097 36.18C89.5577 36.564 90.0557 37.116 90.4037 37.836C90.7517 38.544 90.9257 39.372 90.9257 40.32V40.752ZM86.7317 37.836C85.9277 37.836 85.4237 38.304 85.2197 39.24H88.1357C88.0157 38.304 87.5477 37.836 86.7317 37.836ZM98.2469 45.162C96.3749 45.162 94.9589 44.694 93.9989 43.758C93.0389 42.81 92.5589 41.424 92.5589 39.6V32.184H95.8529V39.726C95.8529 40.65 96.0569 41.358 96.4649 41.85C96.8849 42.342 97.4789 42.588 98.2469 42.588C99.0029 42.588 99.5849 42.342 99.9929 41.85C100.401 41.346 100.605 40.638 100.605 39.726V32.184H103.935V39.6C103.935 41.4 103.443 42.78 102.459 43.74C101.487 44.688 100.083 45.162 98.2469 45.162ZM112.088 35.604C113.168 35.604 113.972 35.934 114.5 36.594C115.04 37.242 115.31 38.226 115.31 39.546V45H112.052V39.69C112.052 39.126 111.956 38.724 111.764 38.484C111.572 38.232 111.272 38.106 110.864 38.106C110.372 38.106 109.976 38.274 109.676 38.61C109.376 38.934 109.226 39.366 109.226 39.906V45H105.968V38.484C105.968 37.5 105.92 36.624 105.824 35.856H108.884L109.046 37.206C109.394 36.69 109.826 36.294 110.342 36.018C110.858 35.742 111.44 35.604 112.088 35.604ZM117.381 32.184H123.483C124.947 32.184 126.081 32.538 126.885 33.246C127.689 33.942 128.091 34.89 128.091 36.09C128.091 37.278 127.683 38.226 126.867 38.934C126.051 39.642 124.923 39.996 123.483 39.996H120.765V45H117.381V32.184ZM123.033 37.476C124.305 37.476 124.941 37.026 124.941 36.126C124.941 35.67 124.785 35.328 124.473 35.1C124.173 34.86 123.693 34.74 123.033 34.74H120.765V37.476H123.033ZM138.766 35.856V45H135.562V43.758C135.298 44.19 134.914 44.532 134.41 44.784C133.906 45.024 133.354 45.144 132.754 45.144C131.974 45.144 131.278 44.952 130.666 44.568C130.054 44.184 129.574 43.638 129.226 42.93C128.89 42.21 128.722 41.382 128.722 40.446C128.722 39.498 128.896 38.658 129.244 37.926C129.592 37.194 130.072 36.624 130.684 36.216C131.296 35.808 131.986 35.604 132.754 35.604C133.354 35.604 133.9 35.736 134.392 36C134.896 36.252 135.286 36.594 135.562 37.026V35.856H138.766ZM133.762 42.714C134.338 42.714 134.782 42.516 135.094 42.12C135.406 41.724 135.562 41.154 135.562 40.41C135.562 39.654 135.406 39.078 135.094 38.682C134.782 38.274 134.338 38.07 133.762 38.07C133.198 38.07 132.754 38.28 132.43 38.7C132.106 39.108 131.944 39.69 131.944 40.446C131.944 41.178 132.1 41.742 132.412 42.138C132.724 42.522 133.174 42.714 133.762 42.714ZM146.48 35.64C146.924 35.64 147.266 35.706 147.506 35.838V38.808C146.99 38.568 146.492 38.448 146.012 38.448C144.644 38.448 143.96 39.102 143.96 40.41V45H140.702V38.484C140.702 37.5 140.654 36.624 140.558 35.856H143.618L143.816 37.386C144.032 36.822 144.38 36.39 144.86 36.09C145.34 35.79 145.88 35.64 146.48 35.64ZM152.797 45.144C151.249 45.144 150.037 44.724 149.161 43.884C148.285 43.044 147.847 41.898 147.847 40.446C147.847 39.486 148.057 38.64 148.477 37.908C148.909 37.176 149.509 36.612 150.277 36.216C151.045 35.808 151.933 35.604 152.941 35.604C153.613 35.604 154.273 35.706 154.921 35.91C155.569 36.102 156.085 36.366 156.469 36.702L155.641 38.952C155.317 38.688 154.939 38.478 154.507 38.322C154.075 38.166 153.661 38.088 153.265 38.088C152.593 38.088 152.077 38.28 151.717 38.664C151.357 39.048 151.177 39.618 151.177 40.374C151.177 41.142 151.357 41.724 151.717 42.12C152.077 42.504 152.599 42.696 153.283 42.696C153.679 42.696 154.087 42.618 154.507 42.462C154.939 42.306 155.317 42.096 155.641 41.832L156.469 44.046C156.073 44.394 155.545 44.664 154.885 44.856C154.237 45.048 153.541 45.144 152.797 45.144Z" fill="#025949"/>
        <path d="M727.201 786.519H707.445V810.432H727.201V786.519Z" fill="#45396D"/>
        <path d="M779.878 810.432C786.423 810.432 791.728 802.1 791.728 791.821C791.728 781.542 786.423 773.21 779.878 773.21C773.334 773.21 768.029 781.542 768.029 791.821C768.029 802.1 773.334 810.432 779.878 810.432Z" fill="#45396D"/>
        <path d="M719.814 793.498L719.826 825.879V825.885C719.985 825.885 722.333 825.734 749.868 823.073C755.749 822.506 760.49 820.255 764.313 816.983C764.313 816.976 764.313 816.976 764.313 816.976C780.771 802.867 780.132 769.629 780.119 769.049C763.807 783.984 742.798 793.12 719.814 793.498Z" fill="#FFCDB6"/>
        <path d="M786.803 776.728C786.803 776.728 791.355 763.778 797.811 776.728C804.268 789.677 819.251 850.87 806.749 890.091C803.312 896.018 796.083 897.871 791.728 888.534C787.373 879.197 778.018 832.555 779.879 810.426C781.74 788.297 786.803 776.728 786.803 776.728Z" fill="#FDECE0"/>
        <path d="M716.484 587.318C716.984 587.311 717.491 587.305 717.997 587.305C770.763 587.305 813.541 633.468 813.541 690.411C813.541 721.928 800.438 750.135 779.79 769.042C779.79 769.042 779.79 769.042 779.79 769.049C763.478 783.984 742.469 793.12 719.485 793.498C718.991 793.504 718.491 793.511 717.997 793.511C717.491 793.511 716.991 793.504 716.484 793.498C715.984 793.504 715.478 793.511 714.971 793.511C714.478 793.511 713.977 793.504 713.484 793.498C690.5 793.12 669.491 783.984 653.178 769.049C653.178 769.042 653.178 769.042 653.178 769.042C632.53 750.135 619.427 721.928 619.427 690.411C619.427 633.468 662.205 587.305 714.971 587.305C715.478 587.305 715.984 587.311 716.484 587.318Z" fill="#FDECE0"/>
        <path d="M715.914 683.205C680.562 683.621 656.635 679.296 647.108 679.536C633.613 679.87 636.309 711.462 654.533 744.057C669.199 770.297 690.424 779.987 715.914 778.739H716.484C741.981 779.987 763.199 770.297 777.865 744.057C796.083 711.462 798.786 679.87 785.29 679.536C775.764 679.296 751.837 683.627 716.484 683.205H715.914Z" fill="#FFCDB6"/>
        <path d="M584.549 624.818L571.003 598.218C571.003 598.218 567.667 591.763 573.162 589.808L621.206 670.539L619.699 682.322L614.591 682.247L584.549 624.818Z" fill="#45396D"/>
        <path d="M584.549 624.818C584.942 625.599 611.812 705.258 611.812 705.258L617.022 680.878L584.549 624.818Z" fill="#FFCDB6"/>
        <path d="M623.77 729.796C623.77 729.796 611.939 720.194 611.812 703.355C611.686 686.515 617.015 680.872 617.015 680.872L623.77 729.796Z" fill="#FFCDB6"/>
        <path d="M631.644 740.772C631.644 740.772 626.029 742.664 622.864 725.692C619.7 708.72 616.383 680.248 616.965 676.554C617.547 672.859 616.655 669.618 620.845 668.2C625.036 666.775 631.644 740.772 631.644 740.772Z" fill="#45396D"/>
        <path d="M848.444 624.874L861.997 598.275C861.997 598.275 865.333 591.819 859.838 589.865L811.788 670.596L813.294 682.379L818.402 682.303L848.444 624.874Z" fill="#45396D"/>
        <path d="M848.444 624.875C848.052 625.656 821.181 705.315 821.181 705.315L815.972 680.935L848.444 624.875Z" fill="#FFCDB6"/>
        <path d="M809.224 729.859C809.224 729.859 821.055 720.257 821.181 703.418C821.308 686.578 815.978 680.935 815.978 680.935L809.224 729.859Z" fill="#FFCDB6"/>
        <path d="M801.35 740.829C801.35 740.829 806.964 742.721 810.129 725.749C813.294 708.776 816.611 680.305 816.029 676.61C815.446 672.916 816.339 669.675 812.148 668.257C807.958 666.832 801.35 740.829 801.35 740.829Z" fill="#45396D"/>
        <path d="M653.425 810.432C659.97 810.432 665.275 802.1 665.275 791.821C665.275 781.542 659.97 773.21 653.425 773.21C646.881 773.21 641.576 781.542 641.576 791.821C641.576 802.1 646.881 810.432 653.425 810.432Z" fill="#45396D"/>
        <path d="M713.484 793.498L713.471 825.879V825.885C713.313 825.885 710.964 825.734 683.429 823.073C677.549 822.506 672.807 820.255 668.984 816.983C668.984 816.976 668.984 816.976 668.984 816.976C652.526 802.867 653.166 769.629 653.178 769.049C669.491 783.984 690.5 793.12 713.484 793.498Z" fill="#FFCDB6"/>
        <path d="M646.5 776.728C646.5 776.728 641.949 763.778 635.493 776.728C629.036 789.677 614.053 850.87 626.555 890.091C629.992 896.018 637.221 897.871 641.576 888.534C645.931 879.197 655.286 832.555 653.425 810.426C651.564 788.297 646.5 776.728 646.5 776.728Z" fill="#FDECE0"/>
        <path d="M710.736 571.209C715.997 561.519 722.048 567.805 727.834 551.829C733.619 535.853 721.434 529 721.434 529C725.827 535.708 724.074 550.297 708.255 557.295C692.437 564.3 696.83 579.179 705.324 586.473C713.446 593.44 715.332 599.038 715.724 599.587C715.085 598.616 705.616 580.648 710.736 571.209Z" fill="#3EE5B1"/>
        <path d="M724.143 532.43C724.143 532.43 732.569 539.724 726.897 554.401C721.225 569.085 717.288 562.742 712.553 571.531C707.939 580.093 715.345 598.622 715.731 599.58C715.737 599.587 715.737 599.593 715.737 599.599C715.649 599.133 713.857 590.054 716.706 579.771C719.643 569.217 729.53 571.228 733.107 558.512C736.689 545.795 721.472 525.804 724.143 532.43Z" fill="#3EE5B1"/>
        <path d="M712.587 724.299C713.444 705.519 702.123 689.751 687.301 689.08C672.479 688.409 659.769 703.089 658.912 721.87C658.055 740.65 669.376 756.418 684.198 757.089C699.02 757.76 711.73 743.079 712.587 724.299Z" fill="white"/>
        <path d="M751.531 757.088C766.353 756.417 777.674 740.649 776.817 721.869C775.96 703.088 763.25 688.408 748.428 689.079C733.606 689.75 722.285 705.518 723.142 724.298C723.999 743.078 736.709 757.759 751.531 757.088Z" fill="white"/>
        <rect x="342" y="371" width="161" height="124" rx="33" fill="#FFCDB6"/>
        <rect x="540" y="371" width="161" height="124" rx="33" fill="#FFCDB6"/>
        <rect x="738" y="371" width="161" height="124" rx="33" fill="#FFCDB6"/>
        <rect x="936" y="371" width="161" height="124" rx="33" fill="#FFCDB6"/>
        <path d="M406.036 436.324C402.988 436.324 400.66 435.208 399.052 432.976C397.468 430.72 396.676 427.444 396.676 423.148C396.676 418.924 397.468 415.696 399.052 413.464C400.66 411.232 402.988 410.116 406.036 410.116C409.084 410.116 411.4 411.232 412.984 413.464C414.592 415.672 415.396 418.9 415.396 423.148C415.396 427.42 414.592 430.684 412.984 432.94C411.4 435.196 409.084 436.324 406.036 436.324ZM406.036 432.688C407.692 432.688 408.892 431.932 409.636 430.42C410.404 428.884 410.788 426.46 410.788 423.148C410.788 419.884 410.404 417.508 409.636 416.02C408.892 414.508 407.692 413.752 406.036 413.752C404.38 413.752 403.168 414.508 402.4 416.02C401.656 417.508 401.284 419.884 401.284 423.148C401.284 426.46 401.656 428.884 402.4 430.42C403.168 431.932 404.38 432.688 406.036 432.688ZM415.922 438.124L425.246 408.892H429.098L419.702 438.124H415.922ZM442.938 422.824C444.45 423.232 445.602 423.976 446.394 425.056C447.21 426.136 447.618 427.468 447.618 429.052C447.618 431.284 446.79 433.048 445.134 434.344C443.502 435.64 441.294 436.288 438.51 436.288C436.782 436.288 435.114 436.024 433.506 435.496C431.922 434.968 430.614 434.236 429.582 433.3L431.166 429.916C433.446 431.692 435.834 432.58 438.33 432.58C439.962 432.58 441.174 432.256 441.966 431.608C442.782 430.96 443.19 429.976 443.19 428.656C443.19 427.36 442.782 426.412 441.966 425.812C441.15 425.188 439.89 424.876 438.186 424.876H434.802V421.168H437.574C440.886 421.168 442.542 419.908 442.542 417.388C442.542 416.212 442.182 415.312 441.462 414.688C440.742 414.064 439.734 413.752 438.438 413.752C436.134 413.752 433.83 414.64 431.526 416.416L429.978 413.032C431.01 412.12 432.306 411.4 433.866 410.872C435.45 410.32 437.07 410.044 438.726 410.044C441.246 410.044 443.25 410.668 444.738 411.916C446.25 413.14 447.006 414.784 447.006 416.848C446.982 418.264 446.61 419.5 445.89 420.556C445.194 421.588 444.21 422.344 442.938 422.824Z" fill="white"/>
        <path d="M411.328 453.82V472H406.9V469.084C406.348 470.092 405.556 470.884 404.524 471.46C403.492 472.012 402.316 472.288 400.996 472.288C399.412 472.288 398.008 471.904 396.784 471.136C395.56 470.368 394.612 469.276 393.94 467.86C393.268 466.444 392.932 464.8 392.932 462.928C392.932 461.056 393.268 459.4 393.94 457.96C394.636 456.496 395.596 455.368 396.82 454.576C398.044 453.76 399.436 453.352 400.996 453.352C402.316 453.352 403.492 453.64 404.524 454.216C405.556 454.768 406.348 455.548 406.9 456.556V453.82H411.328ZM402.22 468.76C403.708 468.76 404.86 468.244 405.676 467.212C406.492 466.18 406.9 464.728 406.9 462.856C406.9 460.936 406.492 459.46 405.676 458.428C404.86 457.396 403.696 456.88 402.184 456.88C400.696 456.88 399.532 457.42 398.692 458.5C397.876 459.556 397.468 461.032 397.468 462.928C397.468 464.8 397.876 466.24 398.692 467.248C399.532 468.256 400.708 468.76 402.22 468.76ZM426.633 453.352C430.977 453.352 433.149 455.848 433.149 460.84V472H428.649V461.056C428.649 459.616 428.373 458.572 427.821 457.924C427.269 457.252 426.417 456.916 425.265 456.916C423.897 456.916 422.793 457.36 421.953 458.248C421.113 459.112 420.693 460.264 420.693 461.704V472H416.229V458.968C416.229 457.048 416.133 455.332 415.941 453.82H420.153L420.477 456.808C421.101 455.704 421.941 454.852 422.997 454.252C424.077 453.652 425.289 453.352 426.633 453.352ZM444.581 472.288C441.293 472.288 438.677 471.52 436.733 469.984L437.993 466.816C439.937 468.256 442.157 468.976 444.653 468.976C445.733 468.976 446.561 468.796 447.137 468.436C447.737 468.076 448.037 467.572 448.037 466.924C448.037 466.372 447.833 465.94 447.425 465.628C447.017 465.292 446.321 465.004 445.337 464.764L442.313 464.08C439.001 463.36 437.345 461.668 437.345 459.004C437.345 457.9 437.657 456.928 438.281 456.088C438.905 455.224 439.781 454.552 440.909 454.072C442.037 453.592 443.345 453.352 444.833 453.352C446.129 453.352 447.377 453.556 448.577 453.964C449.777 454.348 450.833 454.912 451.745 455.656L450.413 458.716C448.589 457.372 446.717 456.7 444.797 456.7C443.765 456.7 442.961 456.892 442.385 457.276C441.809 457.66 441.521 458.188 441.521 458.86C441.521 459.388 441.689 459.808 442.025 460.12C442.385 460.432 442.985 460.696 443.825 460.912L446.921 461.596C448.721 462.004 450.029 462.64 450.845 463.504C451.685 464.344 452.105 465.448 452.105 466.816C452.105 468.496 451.433 469.828 450.089 470.812C448.745 471.796 446.909 472.288 444.581 472.288Z" fill="white"/>
        <path d="M609.328 453.82V472H604.9V469.084C604.348 470.092 603.556 470.884 602.524 471.46C601.492 472.012 600.316 472.288 598.996 472.288C597.412 472.288 596.008 471.904 594.784 471.136C593.56 470.368 592.612 469.276 591.94 467.86C591.268 466.444 590.932 464.8 590.932 462.928C590.932 461.056 591.268 459.4 591.94 457.96C592.636 456.496 593.596 455.368 594.82 454.576C596.044 453.76 597.436 453.352 598.996 453.352C600.316 453.352 601.492 453.64 602.524 454.216C603.556 454.768 604.348 455.548 604.9 456.556V453.82H609.328ZM600.22 468.76C601.708 468.76 602.86 468.244 603.676 467.212C604.492 466.18 604.9 464.728 604.9 462.856C604.9 460.936 604.492 459.46 603.676 458.428C602.86 457.396 601.696 456.88 600.184 456.88C598.696 456.88 597.532 457.42 596.692 458.5C595.876 459.556 595.468 461.032 595.468 462.928C595.468 464.8 595.876 466.24 596.692 467.248C597.532 468.256 598.708 468.76 600.22 468.76ZM624.633 453.352C628.977 453.352 631.149 455.848 631.149 460.84V472H626.649V461.056C626.649 459.616 626.373 458.572 625.821 457.924C625.269 457.252 624.417 456.916 623.265 456.916C621.897 456.916 620.793 457.36 619.953 458.248C619.113 459.112 618.693 460.264 618.693 461.704V472H614.229V458.968C614.229 457.048 614.133 455.332 613.941 453.82H618.153L618.477 456.808C619.101 455.704 619.941 454.852 620.997 454.252C622.077 453.652 623.289 453.352 624.633 453.352ZM642.581 472.288C639.293 472.288 636.677 471.52 634.733 469.984L635.993 466.816C637.937 468.256 640.157 468.976 642.653 468.976C643.733 468.976 644.561 468.796 645.137 468.436C645.737 468.076 646.037 467.572 646.037 466.924C646.037 466.372 645.833 465.94 645.425 465.628C645.017 465.292 644.321 465.004 643.337 464.764L640.313 464.08C637.001 463.36 635.345 461.668 635.345 459.004C635.345 457.9 635.657 456.928 636.281 456.088C636.905 455.224 637.781 454.552 638.909 454.072C640.037 453.592 641.345 453.352 642.833 453.352C644.129 453.352 645.377 453.556 646.577 453.964C647.777 454.348 648.833 454.912 649.745 455.656L648.413 458.716C646.589 457.372 644.717 456.7 642.797 456.7C641.765 456.7 640.961 456.892 640.385 457.276C639.809 457.66 639.521 458.188 639.521 458.86C639.521 459.388 639.689 459.808 640.025 460.12C640.385 460.432 640.985 460.696 641.825 460.912L644.921 461.596C646.721 462.004 648.029 462.64 648.845 463.504C649.685 464.344 650.105 465.448 650.105 466.816C650.105 468.496 649.433 469.828 648.089 470.812C646.745 471.796 644.909 472.288 642.581 472.288Z" fill="white"/>
        <path d="M807.328 453.82V472H802.9V469.084C802.348 470.092 801.556 470.884 800.524 471.46C799.492 472.012 798.316 472.288 796.996 472.288C795.412 472.288 794.008 471.904 792.784 471.136C791.56 470.368 790.612 469.276 789.94 467.86C789.268 466.444 788.932 464.8 788.932 462.928C788.932 461.056 789.268 459.4 789.94 457.96C790.636 456.496 791.596 455.368 792.82 454.576C794.044 453.76 795.436 453.352 796.996 453.352C798.316 453.352 799.492 453.64 800.524 454.216C801.556 454.768 802.348 455.548 802.9 456.556V453.82H807.328ZM798.22 468.76C799.708 468.76 800.86 468.244 801.676 467.212C802.492 466.18 802.9 464.728 802.9 462.856C802.9 460.936 802.492 459.46 801.676 458.428C800.86 457.396 799.696 456.88 798.184 456.88C796.696 456.88 795.532 457.42 794.692 458.5C793.876 459.556 793.468 461.032 793.468 462.928C793.468 464.8 793.876 466.24 794.692 467.248C795.532 468.256 796.708 468.76 798.22 468.76ZM822.633 453.352C826.977 453.352 829.149 455.848 829.149 460.84V472H824.649V461.056C824.649 459.616 824.373 458.572 823.821 457.924C823.269 457.252 822.417 456.916 821.265 456.916C819.897 456.916 818.793 457.36 817.953 458.248C817.113 459.112 816.693 460.264 816.693 461.704V472H812.229V458.968C812.229 457.048 812.133 455.332 811.941 453.82H816.153L816.477 456.808C817.101 455.704 817.941 454.852 818.997 454.252C820.077 453.652 821.289 453.352 822.633 453.352ZM840.581 472.288C837.293 472.288 834.677 471.52 832.733 469.984L833.993 466.816C835.937 468.256 838.157 468.976 840.653 468.976C841.733 468.976 842.561 468.796 843.137 468.436C843.737 468.076 844.037 467.572 844.037 466.924C844.037 466.372 843.833 465.94 843.425 465.628C843.017 465.292 842.321 465.004 841.337 464.764L838.313 464.08C835.001 463.36 833.345 461.668 833.345 459.004C833.345 457.9 833.657 456.928 834.281 456.088C834.905 455.224 835.781 454.552 836.909 454.072C838.037 453.592 839.345 453.352 840.833 453.352C842.129 453.352 843.377 453.556 844.577 453.964C845.777 454.348 846.833 454.912 847.745 455.656L846.413 458.716C844.589 457.372 842.717 456.7 840.797 456.7C839.765 456.7 838.961 456.892 838.385 457.276C837.809 457.66 837.521 458.188 837.521 458.86C837.521 459.388 837.689 459.808 838.025 460.12C838.385 460.432 838.985 460.696 839.825 460.912L842.921 461.596C844.721 462.004 846.029 462.64 846.845 463.504C847.685 464.344 848.105 465.448 848.105 466.816C848.105 468.496 847.433 469.828 846.089 470.812C844.745 471.796 842.909 472.288 840.581 472.288Z" fill="white"/>
        <path d="M1005.33 453.82V472H1000.9V469.084C1000.35 470.092 999.556 470.884 998.524 471.46C997.492 472.012 996.316 472.288 994.996 472.288C993.412 472.288 992.008 471.904 990.784 471.136C989.56 470.368 988.612 469.276 987.94 467.86C987.268 466.444 986.932 464.8 986.932 462.928C986.932 461.056 987.268 459.4 987.94 457.96C988.636 456.496 989.596 455.368 990.82 454.576C992.044 453.76 993.436 453.352 994.996 453.352C996.316 453.352 997.492 453.64 998.524 454.216C999.556 454.768 1000.35 455.548 1000.9 456.556V453.82H1005.33ZM996.22 468.76C997.708 468.76 998.86 468.244 999.676 467.212C1000.49 466.18 1000.9 464.728 1000.9 462.856C1000.9 460.936 1000.49 459.46 999.676 458.428C998.86 457.396 997.696 456.88 996.184 456.88C994.696 456.88 993.532 457.42 992.692 458.5C991.876 459.556 991.468 461.032 991.468 462.928C991.468 464.8 991.876 466.24 992.692 467.248C993.532 468.256 994.708 468.76 996.22 468.76ZM1020.63 453.352C1024.98 453.352 1027.15 455.848 1027.15 460.84V472H1022.65V461.056C1022.65 459.616 1022.37 458.572 1021.82 457.924C1021.27 457.252 1020.42 456.916 1019.27 456.916C1017.9 456.916 1016.79 457.36 1015.95 458.248C1015.11 459.112 1014.69 460.264 1014.69 461.704V472H1010.23V458.968C1010.23 457.048 1010.13 455.332 1009.94 453.82H1014.15L1014.48 456.808C1015.1 455.704 1015.94 454.852 1017 454.252C1018.08 453.652 1019.29 453.352 1020.63 453.352ZM1038.58 472.288C1035.29 472.288 1032.68 471.52 1030.73 469.984L1031.99 466.816C1033.94 468.256 1036.16 468.976 1038.65 468.976C1039.73 468.976 1040.56 468.796 1041.14 468.436C1041.74 468.076 1042.04 467.572 1042.04 466.924C1042.04 466.372 1041.83 465.94 1041.42 465.628C1041.02 465.292 1040.32 465.004 1039.34 464.764L1036.31 464.08C1033 463.36 1031.34 461.668 1031.34 459.004C1031.34 457.9 1031.66 456.928 1032.28 456.088C1032.9 455.224 1033.78 454.552 1034.91 454.072C1036.04 453.592 1037.34 453.352 1038.83 453.352C1040.13 453.352 1041.38 453.556 1042.58 453.964C1043.78 454.348 1044.83 454.912 1045.74 455.656L1044.41 458.716C1042.59 457.372 1040.72 456.7 1038.8 456.7C1037.76 456.7 1036.96 456.892 1036.38 457.276C1035.81 457.66 1035.52 458.188 1035.52 458.86C1035.52 459.388 1035.69 459.808 1036.02 460.12C1036.38 460.432 1036.98 460.696 1037.82 460.912L1040.92 461.596C1042.72 462.004 1044.03 462.64 1044.84 463.504C1045.68 464.344 1046.1 465.448 1046.1 466.816C1046.1 468.496 1045.43 469.828 1044.09 470.812C1042.74 471.796 1040.91 472.288 1038.58 472.288Z" fill="white"/>
        <path d="M607.76 422.824C609.272 423.232 610.424 423.976 611.216 425.056C612.032 426.136 612.44 427.468 612.44 429.052C612.44 431.284 611.612 433.048 609.956 434.344C608.324 435.64 606.116 436.288 603.332 436.288C601.604 436.288 599.936 436.024 598.328 435.496C596.744 434.968 595.436 434.236 594.404 433.3L595.988 429.916C598.268 431.692 600.656 432.58 603.152 432.58C604.784 432.58 605.996 432.256 606.788 431.608C607.604 430.96 608.012 429.976 608.012 428.656C608.012 427.36 607.604 426.412 606.788 425.812C605.972 425.188 604.712 424.876 603.008 424.876H599.624V421.168H602.396C605.708 421.168 607.364 419.908 607.364 417.388C607.364 416.212 607.004 415.312 606.284 414.688C605.564 414.064 604.556 413.752 603.26 413.752C600.956 413.752 598.652 414.64 596.348 416.416L594.8 413.032C595.832 412.12 597.128 411.4 598.688 410.872C600.272 410.32 601.892 410.044 603.548 410.044C606.068 410.044 608.072 410.668 609.56 411.916C611.072 413.14 611.828 414.784 611.828 416.848C611.804 418.264 611.432 419.5 610.712 420.556C610.016 421.588 609.032 422.344 607.76 422.824ZM613.686 438.124L623.01 408.892H626.862L617.466 438.124H613.686ZM638.325 419.548C639.837 419.548 641.181 419.896 642.357 420.592C643.557 421.288 644.493 422.26 645.165 423.508C645.837 424.756 646.173 426.184 646.173 427.792C646.173 429.424 645.801 430.888 645.057 432.184C644.337 433.48 643.317 434.5 641.997 435.244C640.701 435.964 639.225 436.324 637.569 436.324C634.329 436.324 631.833 435.232 630.081 433.048C628.329 430.84 627.453 427.708 627.453 423.652C627.453 420.82 627.861 418.384 628.677 416.344C629.517 414.304 630.717 412.744 632.277 411.664C633.861 410.584 635.733 410.044 637.893 410.044C639.429 410.044 640.917 410.308 642.357 410.836C643.821 411.34 645.093 412.072 646.173 413.032L644.589 416.416C642.333 414.64 640.161 413.752 638.073 413.752C636.177 413.752 634.713 414.556 633.681 416.164C632.649 417.772 632.109 420.076 632.061 423.076C632.613 421.996 633.453 421.144 634.581 420.52C635.709 419.872 636.957 419.548 638.325 419.548ZM637.353 432.652C638.673 432.652 639.729 432.22 640.521 431.356C641.337 430.492 641.745 429.352 641.745 427.936C641.745 426.52 641.337 425.392 640.521 424.552C639.729 423.688 638.661 423.256 637.317 423.256C635.973 423.256 634.881 423.688 634.041 424.552C633.201 425.416 632.781 426.544 632.781 427.936C632.781 429.328 633.201 430.468 634.041 431.356C634.905 432.22 636.009 432.652 637.353 432.652Z" fill="white"/>
        <path d="M803.384 419.548C804.896 419.548 806.24 419.896 807.416 420.592C808.616 421.288 809.552 422.26 810.224 423.508C810.896 424.756 811.232 426.184 811.232 427.792C811.232 429.424 810.86 430.888 810.116 432.184C809.396 433.48 808.376 434.5 807.056 435.244C805.76 435.964 804.284 436.324 802.628 436.324C799.388 436.324 796.892 435.232 795.14 433.048C793.388 430.84 792.512 427.708 792.512 423.652C792.512 420.82 792.92 418.384 793.736 416.344C794.576 414.304 795.776 412.744 797.336 411.664C798.92 410.584 800.792 410.044 802.952 410.044C804.488 410.044 805.976 410.308 807.416 410.836C808.88 411.34 810.152 412.072 811.232 413.032L809.648 416.416C807.392 414.64 805.22 413.752 803.132 413.752C801.236 413.752 799.772 414.556 798.74 416.164C797.708 417.772 797.168 420.076 797.12 423.076C797.672 421.996 798.512 421.144 799.64 420.52C800.768 419.872 802.016 419.548 803.384 419.548ZM802.412 432.652C803.732 432.652 804.788 432.22 805.58 431.356C806.396 430.492 806.804 429.352 806.804 427.936C806.804 426.52 806.396 425.392 805.58 424.552C804.788 423.688 803.72 423.256 802.376 423.256C801.032 423.256 799.94 423.688 799.1 424.552C798.26 425.416 797.84 426.544 797.84 427.936C797.84 429.328 798.26 430.468 799.1 431.356C799.964 432.22 801.068 432.652 802.412 432.652ZM811.686 438.124L821.01 408.892H824.862L815.466 438.124H811.686ZM833.913 410.044C837.153 410.044 839.649 411.148 841.401 413.356C843.177 415.54 844.065 418.66 844.065 422.716C844.065 425.548 843.645 427.984 842.805 430.024C841.965 432.064 840.753 433.624 839.169 434.704C837.609 435.784 835.749 436.324 833.589 436.324C832.053 436.324 830.553 436.072 829.089 435.568C827.649 435.04 826.401 434.296 825.345 433.336L826.893 429.952C829.173 431.728 831.345 432.616 833.409 432.616C835.305 432.616 836.769 431.812 837.801 430.204C838.857 428.572 839.409 426.244 839.457 423.22C838.905 424.324 838.065 425.2 836.937 425.848C835.833 426.496 834.573 426.82 833.157 426.82C831.645 426.82 830.289 426.472 829.089 425.776C827.913 425.08 826.989 424.108 826.317 422.86C825.645 421.612 825.309 420.184 825.309 418.576C825.309 416.944 825.669 415.48 826.389 414.184C827.133 412.888 828.153 411.88 829.449 411.16C830.769 410.416 832.257 410.044 833.913 410.044ZM834.165 423.112C835.509 423.112 836.601 422.68 837.441 421.816C838.281 420.952 838.701 419.824 838.701 418.432C838.701 417.04 838.281 415.912 837.441 415.048C836.601 414.16 835.509 413.716 834.165 413.716C832.821 413.716 831.741 414.148 830.925 415.012C830.133 415.876 829.737 417.016 829.737 418.432C829.737 419.848 830.133 420.988 830.925 421.852C831.741 422.692 832.821 423.112 834.165 423.112Z" fill="white"/>
        <path d="M1014.66 427.216H1007.38V434.488H1004.22V427.216H996.944V424.012H1004.22V416.74H1007.38V424.012H1014.66V427.216ZM1026.56 410.044C1029.8 410.044 1032.29 411.148 1034.05 413.356C1035.82 415.54 1036.71 418.66 1036.71 422.716C1036.71 425.548 1036.29 427.984 1035.45 430.024C1034.61 432.064 1033.4 433.624 1031.81 434.704C1030.25 435.784 1028.39 436.324 1026.23 436.324C1024.7 436.324 1023.2 436.072 1021.73 435.568C1020.29 435.04 1019.05 434.296 1017.99 433.336L1019.54 429.952C1021.82 431.728 1023.99 432.616 1026.05 432.616C1027.95 432.616 1029.41 431.812 1030.45 430.204C1031.5 428.572 1032.05 426.244 1032.1 423.22C1031.55 424.324 1030.71 425.2 1029.58 425.848C1028.48 426.496 1027.22 426.82 1025.8 426.82C1024.29 426.82 1022.93 426.472 1021.73 425.776C1020.56 425.08 1019.63 424.108 1018.96 422.86C1018.29 421.612 1017.95 420.184 1017.95 418.576C1017.95 416.944 1018.31 415.48 1019.03 414.184C1019.78 412.888 1020.8 411.88 1022.09 411.16C1023.41 410.416 1024.9 410.044 1026.56 410.044ZM1026.81 423.112C1028.15 423.112 1029.25 422.68 1030.09 421.816C1030.93 420.952 1031.35 419.824 1031.35 418.432C1031.35 417.04 1030.93 415.912 1030.09 415.048C1029.25 414.16 1028.15 413.716 1026.81 413.716C1025.47 413.716 1024.39 414.148 1023.57 415.012C1022.78 415.876 1022.38 417.016 1022.38 418.432C1022.38 419.848 1022.78 420.988 1023.57 421.852C1024.39 422.692 1025.47 423.112 1026.81 423.112Z" fill="white"/>
        <path d="M935.9 624.14C936.5 624.247 936.98 624.3 937.34 624.3C938.02 624.3 938.493 624.107 938.76 623.72C939.04 623.347 939.18 622.7 939.18 621.78V607.76H940.82V621.8C940.82 623.187 940.567 624.187 940.06 624.8C939.567 625.413 938.747 625.72 937.6 625.72C937.147 625.72 936.58 625.667 935.9 625.56V624.14ZM952.562 616.92H945.182C945.195 618.2 945.489 619.167 946.062 619.82C946.649 620.473 947.495 620.8 948.602 620.8C949.775 620.8 950.855 620.407 951.842 619.62L952.382 620.8C951.942 621.213 951.375 621.54 950.682 621.78C950.002 622.02 949.302 622.14 948.582 622.14C947.009 622.14 945.775 621.68 944.882 620.76C943.989 619.827 943.542 618.553 943.542 616.94C943.542 615.913 943.742 615.007 944.142 614.22C944.542 613.42 945.102 612.8 945.822 612.36C946.542 611.92 947.362 611.7 948.282 611.7C949.615 611.7 950.662 612.14 951.422 613.02C952.182 613.887 952.562 615.087 952.562 616.62V616.92ZM948.302 612.96C947.462 612.96 946.775 613.213 946.242 613.72C945.722 614.227 945.389 614.94 945.242 615.86H951.102C951.022 614.913 950.742 614.193 950.262 613.7C949.795 613.207 949.142 612.96 948.302 612.96ZM960.236 607.28H961.856V622H960.236V607.28ZM973.421 616.92H966.041C966.055 618.2 966.348 619.167 966.921 619.82C967.508 620.473 968.355 620.8 969.461 620.8C970.635 620.8 971.715 620.407 972.701 619.62L973.241 620.8C972.801 621.213 972.235 621.54 971.541 621.78C970.861 622.02 970.161 622.14 969.441 622.14C967.868 622.14 966.635 621.68 965.741 620.76C964.848 619.827 964.401 618.553 964.401 616.94C964.401 615.913 964.601 615.007 965.001 614.22C965.401 613.42 965.961 612.8 966.681 612.36C967.401 611.92 968.221 611.7 969.141 611.7C970.475 611.7 971.521 612.14 972.281 613.02C973.041 613.887 973.421 615.087 973.421 616.62V616.92ZM969.161 612.96C968.321 612.96 967.635 613.213 967.101 613.72C966.581 614.227 966.248 614.94 966.101 615.86H971.961C971.881 614.913 971.601 614.193 971.121 613.7C970.655 613.207 970.001 612.96 969.161 612.96ZM989.955 607.28V622H988.355V620.18C988.062 620.807 987.615 621.293 987.015 621.64C986.428 621.973 985.742 622.14 984.955 622.14C984.075 622.14 983.295 621.92 982.615 621.48C981.948 621.04 981.428 620.427 981.055 619.64C980.682 618.84 980.495 617.92 980.495 616.88C980.495 615.84 980.675 614.933 981.035 614.16C981.408 613.373 981.935 612.767 982.615 612.34C983.295 611.913 984.075 611.7 984.955 611.7C985.742 611.7 986.428 611.873 987.015 612.22C987.602 612.553 988.042 613.027 988.335 613.64V607.28H989.955ZM985.275 620.8C986.262 620.8 987.022 620.467 987.555 619.8C988.088 619.12 988.355 618.16 988.355 616.92C988.355 615.693 988.088 614.747 987.555 614.08C987.022 613.4 986.262 613.06 985.275 613.06C984.288 613.06 983.515 613.393 982.955 614.06C982.408 614.727 982.135 615.667 982.135 616.88C982.135 618.12 982.408 619.087 982.955 619.78C983.515 620.46 984.288 620.8 985.275 620.8ZM993.087 611.94H994.707V622H993.087V611.94ZM994.907 607.68V609.52H992.927V607.68H994.907ZM1002.53 611.7C1002.87 611.7 1003.17 611.74 1003.45 611.82L1003.41 613.3C1003.11 613.193 1002.75 613.14 1002.35 613.14C1001.38 613.14 1000.65 613.447 1000.17 614.06C999.706 614.66 999.473 615.393 999.473 616.26V622H997.853V614.76C997.853 613.72 997.8 612.78 997.693 611.94H999.233L999.393 613.8C999.646 613.12 1000.05 612.6 1000.61 612.24C1001.17 611.88 1001.81 611.7 1002.53 611.7ZM1013.76 611.94V622H1012.16V620.18C1011.87 620.807 1011.42 621.293 1010.82 621.64C1010.24 621.973 1009.55 622.14 1008.76 622.14C1007.87 622.14 1007.08 621.927 1006.4 621.5C1005.74 621.073 1005.22 620.473 1004.84 619.7C1004.48 618.913 1004.3 618 1004.3 616.96C1004.3 615.92 1004.49 615.007 1004.86 614.22C1005.24 613.42 1005.76 612.8 1006.42 612.36C1007.1 611.92 1007.88 611.7 1008.76 611.7C1009.55 611.7 1010.24 611.873 1010.82 612.22C1011.41 612.567 1011.86 613.053 1012.16 613.68V611.94H1013.76ZM1009.08 620.8C1010.07 620.8 1010.83 620.467 1011.36 619.8C1011.9 619.12 1012.16 618.16 1012.16 616.92C1012.16 615.68 1011.9 614.727 1011.36 614.06C1010.83 613.393 1010.07 613.06 1009.08 613.06C1008.1 613.06 1007.32 613.407 1006.76 614.1C1006.22 614.78 1005.94 615.733 1005.94 616.96C1005.94 618.187 1006.22 619.133 1006.76 619.8C1007.31 620.467 1008.08 620.8 1009.08 620.8ZM1016.9 611.94H1018.52V622H1016.9V611.94ZM1018.72 607.68V609.52H1016.74V607.68H1018.72ZM1025.06 622.14C1023.37 622.14 1022.03 621.707 1021.04 620.84L1021.58 619.64C1022.13 620.067 1022.68 620.373 1023.24 620.56C1023.8 620.747 1024.43 620.84 1025.12 620.84C1025.88 620.84 1026.45 620.713 1026.84 620.46C1027.24 620.193 1027.44 619.813 1027.44 619.32C1027.44 618.92 1027.31 618.6 1027.04 618.36C1026.77 618.12 1026.33 617.933 1025.72 617.8L1024.02 617.4C1023.18 617.213 1022.53 616.88 1022.06 616.4C1021.61 615.92 1021.38 615.347 1021.38 614.68C1021.38 613.8 1021.73 613.087 1022.44 612.54C1023.15 611.98 1024.08 611.7 1025.24 611.7C1025.95 611.7 1026.61 611.813 1027.24 612.04C1027.87 612.267 1028.39 612.593 1028.82 613.02L1028.28 614.2C1027.33 613.413 1026.32 613.02 1025.24 613.02C1024.52 613.02 1023.96 613.16 1023.56 613.44C1023.17 613.707 1022.98 614.087 1022.98 614.58C1022.98 614.993 1023.1 615.32 1023.34 615.56C1023.59 615.8 1023.99 615.987 1024.54 616.12L1026.24 616.54C1027.17 616.753 1027.87 617.087 1028.32 617.54C1028.77 617.98 1029 618.56 1029 619.28C1029 620.147 1028.65 620.84 1027.94 621.36C1027.23 621.88 1026.27 622.14 1025.06 622.14ZM1045.66 611.94V622H1044.06V620.18C1043.76 620.807 1043.32 621.293 1042.72 621.64C1042.13 621.973 1041.44 622.14 1040.66 622.14C1039.76 622.14 1038.98 621.927 1038.3 621.5C1037.63 621.073 1037.11 620.473 1036.74 619.7C1036.38 618.913 1036.2 618 1036.2 616.96C1036.2 615.92 1036.38 615.007 1036.76 614.22C1037.13 613.42 1037.65 612.8 1038.32 612.36C1039 611.92 1039.78 611.7 1040.66 611.7C1041.44 611.7 1042.13 611.873 1042.72 612.22C1043.3 612.567 1043.75 613.053 1044.06 613.68V611.94H1045.66ZM1040.98 620.8C1041.96 620.8 1042.72 620.467 1043.26 619.8C1043.79 619.12 1044.06 618.16 1044.06 616.92C1044.06 615.68 1043.79 614.727 1043.26 614.06C1042.72 613.393 1041.96 613.06 1040.98 613.06C1039.99 613.06 1039.22 613.407 1038.66 614.1C1038.11 614.78 1037.84 615.733 1037.84 616.96C1037.84 618.187 1038.11 619.133 1038.66 619.8C1039.2 620.467 1039.98 620.8 1040.98 620.8ZM1037.94 606.56H1039.82L1041.82 610.64H1040.68L1037.94 606.56ZM1059.03 611.7C1059.91 611.7 1060.69 611.92 1061.37 612.36C1062.05 612.8 1062.57 613.42 1062.95 614.22C1063.32 615.007 1063.51 615.92 1063.51 616.96C1063.51 618 1063.32 618.913 1062.95 619.7C1062.57 620.473 1062.05 621.073 1061.37 621.5C1060.7 621.927 1059.92 622.14 1059.03 622.14C1058.24 622.14 1057.55 621.967 1056.97 621.62C1056.38 621.273 1055.93 620.78 1055.63 620.14V626.32H1054.01V614.76C1054.01 613.72 1053.95 612.78 1053.85 611.94H1055.39L1055.55 613.88C1055.83 613.187 1056.27 612.653 1056.87 612.28C1057.48 611.893 1058.2 611.7 1059.03 611.7ZM1058.73 620.8C1059.71 620.8 1060.47 620.467 1061.01 619.8C1061.55 619.133 1061.83 618.187 1061.83 616.96C1061.83 615.733 1061.55 614.78 1061.01 614.1C1060.46 613.407 1059.7 613.06 1058.73 613.06C1057.73 613.06 1056.96 613.393 1056.43 614.06C1055.89 614.727 1055.63 615.68 1055.63 616.92C1055.63 618.16 1055.89 619.12 1056.43 619.8C1056.96 620.467 1057.73 620.8 1058.73 620.8ZM1074.42 616.92H1067.04C1067.05 618.2 1067.34 619.167 1067.92 619.82C1068.5 620.473 1069.35 620.8 1070.46 620.8C1071.63 620.8 1072.71 620.407 1073.7 619.62L1074.24 620.8C1073.8 621.213 1073.23 621.54 1072.54 621.78C1071.86 622.02 1071.16 622.14 1070.44 622.14C1068.86 622.14 1067.63 621.68 1066.74 620.76C1065.84 619.827 1065.4 618.553 1065.4 616.94C1065.4 615.913 1065.6 615.007 1066 614.22C1066.4 613.42 1066.96 612.8 1067.68 612.36C1068.4 611.92 1069.22 611.7 1070.14 611.7C1071.47 611.7 1072.52 612.14 1073.28 613.02C1074.04 613.887 1074.42 615.087 1074.42 616.62V616.92ZM1070.16 612.96C1069.32 612.96 1068.63 613.213 1068.1 613.72C1067.58 614.227 1067.24 614.94 1067.1 615.86H1072.96C1072.88 614.913 1072.6 614.193 1072.12 613.7C1071.65 613.207 1071 612.96 1070.16 612.96ZM1081.56 611.7C1081.89 611.7 1082.2 611.74 1082.48 611.82L1082.44 613.3C1082.13 613.193 1081.78 613.14 1081.38 613.14C1080.4 613.14 1079.68 613.447 1079.2 614.06C1078.73 614.66 1078.5 615.393 1078.5 616.26V622H1076.88V614.76C1076.88 613.72 1076.82 612.78 1076.72 611.94H1078.26L1078.42 613.8C1078.67 613.12 1079.08 612.6 1079.64 612.24C1080.2 611.88 1080.84 611.7 1081.56 611.7ZM1087.42 622.14C1085.73 622.14 1084.39 621.707 1083.4 620.84L1083.94 619.64C1084.49 620.067 1085.04 620.373 1085.6 620.56C1086.16 620.747 1086.79 620.84 1087.48 620.84C1088.24 620.84 1088.82 620.713 1089.2 620.46C1089.6 620.193 1089.8 619.813 1089.8 619.32C1089.8 618.92 1089.67 618.6 1089.4 618.36C1089.14 618.12 1088.7 617.933 1088.08 617.8L1086.38 617.4C1085.54 617.213 1084.89 616.88 1084.42 616.4C1083.97 615.92 1083.74 615.347 1083.74 614.68C1083.74 613.8 1084.1 613.087 1084.8 612.54C1085.51 611.98 1086.44 611.7 1087.6 611.7C1088.31 611.7 1088.98 611.813 1089.6 612.04C1090.23 612.267 1090.76 612.593 1091.18 613.02L1090.64 614.2C1089.7 613.413 1088.68 613.02 1087.6 613.02C1086.88 613.02 1086.32 613.16 1085.92 613.44C1085.54 613.707 1085.34 614.087 1085.34 614.58C1085.34 614.993 1085.46 615.32 1085.7 615.56C1085.96 615.8 1086.36 615.987 1086.9 616.12L1088.6 616.54C1089.54 616.753 1090.23 617.087 1090.68 617.54C1091.14 617.98 1091.36 618.56 1091.36 619.28C1091.36 620.147 1091.01 620.84 1090.3 621.36C1089.6 621.88 1088.64 622.14 1087.42 622.14ZM1098.11 622.14C1097.16 622.14 1096.33 621.927 1095.61 621.5C1094.89 621.073 1094.33 620.467 1093.93 619.68C1093.54 618.893 1093.35 617.973 1093.35 616.92C1093.35 615.867 1093.54 614.947 1093.93 614.16C1094.33 613.373 1094.89 612.767 1095.61 612.34C1096.33 611.913 1097.16 611.7 1098.11 611.7C1099.05 611.7 1099.89 611.913 1100.61 612.34C1101.33 612.767 1101.88 613.373 1102.27 614.16C1102.67 614.947 1102.87 615.867 1102.87 616.92C1102.87 617.973 1102.67 618.893 1102.27 619.68C1101.88 620.467 1101.33 621.073 1100.61 621.5C1099.89 621.927 1099.05 622.14 1098.11 622.14ZM1098.11 620.8C1099.11 620.8 1099.87 620.473 1100.41 619.82C1100.94 619.153 1101.21 618.187 1101.21 616.92C1101.21 615.693 1100.93 614.747 1100.39 614.08C1099.84 613.4 1099.08 613.06 1098.11 613.06C1097.12 613.06 1096.35 613.4 1095.81 614.08C1095.26 614.747 1094.99 615.693 1094.99 616.92C1094.99 618.187 1095.25 619.153 1095.79 619.82C1096.33 620.473 1097.11 620.8 1098.11 620.8ZM1110.41 611.7C1112.83 611.7 1114.03 613.027 1114.03 615.68V622H1112.41V615.76C1112.41 614.827 1112.23 614.147 1111.85 613.72C1111.48 613.28 1110.89 613.06 1110.09 613.06C1109.16 613.06 1108.41 613.347 1107.85 613.92C1107.29 614.493 1107.01 615.267 1107.01 616.24V622H1105.39V614.76C1105.39 613.72 1105.34 612.78 1105.23 611.94H1106.77L1106.93 613.74C1107.24 613.087 1107.7 612.587 1108.31 612.24C1108.93 611.88 1109.63 611.7 1110.41 611.7ZM1122.11 611.7C1124.52 611.7 1125.73 613.027 1125.73 615.68V622H1124.11V615.76C1124.11 614.827 1123.92 614.147 1123.55 613.72C1123.18 613.28 1122.59 613.06 1121.79 613.06C1120.86 613.06 1120.11 613.347 1119.55 613.92C1118.99 614.493 1118.71 615.267 1118.71 616.24V622H1117.09V614.76C1117.09 613.72 1117.04 612.78 1116.93 611.94H1118.47L1118.63 613.74C1118.94 613.087 1119.4 612.587 1120.01 612.24C1120.62 611.88 1121.32 611.7 1122.11 611.7ZM1137.21 616.92H1129.83C1129.84 618.2 1130.14 619.167 1130.71 619.82C1131.3 620.473 1132.14 620.8 1133.25 620.8C1134.42 620.8 1135.5 620.407 1136.49 619.62L1137.03 620.8C1136.59 621.213 1136.02 621.54 1135.33 621.78C1134.65 622.02 1133.95 622.14 1133.23 622.14C1131.66 622.14 1130.42 621.68 1129.53 620.76C1128.64 619.827 1128.19 618.553 1128.19 616.94C1128.19 615.913 1128.39 615.007 1128.79 614.22C1129.19 613.42 1129.75 612.8 1130.47 612.36C1131.19 611.92 1132.01 611.7 1132.93 611.7C1134.26 611.7 1135.31 612.14 1136.07 613.02C1136.83 613.887 1137.21 615.087 1137.21 616.62V616.92ZM1132.95 612.96C1132.11 612.96 1131.42 613.213 1130.89 613.72C1130.37 614.227 1130.04 614.94 1129.89 615.86H1135.75C1135.67 614.913 1135.39 614.193 1134.91 613.7C1134.44 613.207 1133.79 612.96 1132.95 612.96ZM941.78 647.14C940.807 647.14 939.953 646.927 939.22 646.5C938.5 646.073 937.94 645.473 937.54 644.7C937.153 643.913 936.96 643 936.96 641.96C936.96 640.92 937.16 640.007 937.56 639.22C937.96 638.42 938.527 637.8 939.26 637.36C940.007 636.92 940.873 636.7 941.86 636.7C942.54 636.7 943.193 636.82 943.82 637.06C944.46 637.287 944.987 637.607 945.4 638.02L944.86 639.22C944.353 638.82 943.86 638.527 943.38 638.34C942.913 638.153 942.433 638.06 941.94 638.06C940.913 638.06 940.107 638.407 939.52 639.1C938.933 639.78 938.64 640.733 938.64 641.96C938.64 643.173 938.927 644.12 939.5 644.8C940.087 645.467 940.9 645.8 941.94 645.8C942.433 645.8 942.913 645.707 943.38 645.52C943.86 645.333 944.353 645.04 944.86 644.64L945.4 645.84C944.973 646.24 944.433 646.56 943.78 646.8C943.14 647.027 942.473 647.14 941.78 647.14ZM949.301 632.76V634.22C949.301 634.78 949.208 635.293 949.021 635.76C948.834 636.227 948.521 636.687 948.081 637.14L947.321 636.54C947.841 635.94 948.134 635.367 948.201 634.82H947.241V632.76H949.301ZM959.808 641.92H952.428C952.441 643.2 952.735 644.167 953.308 644.82C953.895 645.473 954.741 645.8 955.848 645.8C957.021 645.8 958.101 645.407 959.088 644.62L959.628 645.8C959.188 646.213 958.621 646.54 957.928 646.78C957.248 647.02 956.548 647.14 955.828 647.14C954.255 647.14 953.021 646.68 952.128 645.76C951.235 644.827 950.788 643.553 950.788 641.94C950.788 640.913 950.988 640.007 951.388 639.22C951.788 638.42 952.348 637.8 953.068 637.36C953.788 636.92 954.608 636.7 955.528 636.7C956.861 636.7 957.908 637.14 958.668 638.02C959.428 638.887 959.808 640.087 959.808 641.62V641.92ZM955.548 637.96C954.708 637.96 954.021 638.213 953.488 638.72C952.968 639.227 952.635 639.94 952.488 640.86H958.348C958.268 639.913 957.988 639.193 957.508 638.7C957.041 638.207 956.388 637.96 955.548 637.96ZM965.667 647.14C963.974 647.14 962.634 646.707 961.647 645.84L962.187 644.64C962.734 645.067 963.287 645.373 963.847 645.56C964.407 645.747 965.034 645.84 965.727 645.84C966.487 645.84 967.06 645.713 967.447 645.46C967.847 645.193 968.047 644.813 968.047 644.32C968.047 643.92 967.914 643.6 967.647 643.36C967.38 643.12 966.94 642.933 966.327 642.8L964.627 642.4C963.787 642.213 963.134 641.88 962.667 641.4C962.214 640.92 961.987 640.347 961.987 639.68C961.987 638.8 962.34 638.087 963.047 637.54C963.754 636.98 964.687 636.7 965.847 636.7C966.554 636.7 967.22 636.813 967.847 637.04C968.474 637.267 969 637.593 969.427 638.02L968.887 639.2C967.94 638.413 966.927 638.02 965.847 638.02C965.127 638.02 964.567 638.16 964.167 638.44C963.78 638.707 963.587 639.087 963.587 639.58C963.587 639.993 963.707 640.32 963.947 640.56C964.2 640.8 964.6 640.987 965.147 641.12L966.847 641.54C967.78 641.753 968.474 642.087 968.927 642.54C969.38 642.98 969.607 643.56 969.607 644.28C969.607 645.147 969.254 645.84 968.547 646.36C967.84 646.88 966.88 647.14 965.667 647.14ZM974.251 638.22V643.72C974.251 644.467 974.405 644.993 974.711 645.3C975.018 645.593 975.451 645.74 976.011 645.74C976.385 645.74 976.745 645.68 977.091 645.56V646.94C976.678 647.073 976.211 647.14 975.691 647.14C974.731 647.14 973.978 646.873 973.431 646.34C972.898 645.793 972.631 644.993 972.631 643.94V638.22H970.671V636.94H972.631V634.36L974.251 633.78V636.94H977.131V638.22H974.251ZM989.318 636.7C990.198 636.7 990.978 636.92 991.658 637.36C992.338 637.8 992.865 638.42 993.238 639.22C993.612 640.007 993.798 640.92 993.798 641.96C993.798 643 993.612 643.913 993.238 644.7C992.865 645.473 992.338 646.073 991.658 646.5C990.992 646.927 990.212 647.14 989.318 647.14C988.532 647.14 987.845 646.967 987.258 646.62C986.672 646.273 986.225 645.78 985.918 645.14V651.32H984.298V639.76C984.298 638.72 984.245 637.78 984.138 636.94H985.678L985.838 638.88C986.118 638.187 986.558 637.653 987.158 637.28C987.772 636.893 988.492 636.7 989.318 636.7ZM989.018 645.8C990.005 645.8 990.765 645.467 991.298 644.8C991.845 644.133 992.118 643.187 992.118 641.96C992.118 640.733 991.845 639.78 991.298 639.1C990.752 638.407 989.992 638.06 989.018 638.06C988.018 638.06 987.252 638.393 986.718 639.06C986.185 639.727 985.918 640.68 985.918 641.92C985.918 643.16 986.185 644.12 986.718 644.8C987.252 645.467 988.018 645.8 989.018 645.8ZM1000.97 636.7C1001.3 636.7 1001.61 636.74 1001.89 636.82L1001.85 638.3C1001.54 638.193 1001.19 638.14 1000.79 638.14C999.817 638.14 999.09 638.447 998.61 639.06C998.144 639.66 997.91 640.393 997.91 641.26V647H996.29V639.76C996.29 638.72 996.237 637.78 996.13 636.94H997.67L997.83 638.8C998.084 638.12 998.49 637.6 999.05 637.24C999.61 636.88 1000.25 636.7 1000.97 636.7ZM1007.5 647.14C1006.55 647.14 1005.72 646.927 1005 646.5C1004.28 646.073 1003.72 645.467 1003.32 644.68C1002.93 643.893 1002.74 642.973 1002.74 641.92C1002.74 640.867 1002.93 639.947 1003.32 639.16C1003.72 638.373 1004.28 637.767 1005 637.34C1005.72 636.913 1006.55 636.7 1007.5 636.7C1008.45 636.7 1009.28 636.913 1010 637.34C1010.72 637.767 1011.27 638.373 1011.66 639.16C1012.06 639.947 1012.26 640.867 1012.26 641.92C1012.26 642.973 1012.06 643.893 1011.66 644.68C1011.27 645.467 1010.72 646.073 1010 646.5C1009.28 646.927 1008.45 647.14 1007.5 647.14ZM1007.5 645.8C1008.5 645.8 1009.27 645.473 1009.8 644.82C1010.33 644.153 1010.6 643.187 1010.6 641.92C1010.6 640.693 1010.33 639.747 1009.78 639.08C1009.23 638.4 1008.47 638.06 1007.5 638.06C1006.51 638.06 1005.75 638.4 1005.2 639.08C1004.65 639.747 1004.38 640.693 1004.38 641.92C1004.38 643.187 1004.65 644.153 1005.18 644.82C1005.73 645.473 1006.5 645.8 1007.5 645.8ZM1025.95 636.7C1028.17 636.7 1029.29 638.027 1029.29 640.68V647H1027.67V640.76C1027.67 639.813 1027.5 639.127 1027.17 638.7C1026.85 638.273 1026.32 638.06 1025.59 638.06C1024.73 638.06 1024.07 638.347 1023.59 638.92C1023.11 639.493 1022.87 640.273 1022.87 641.26V647H1021.25V640.76C1021.25 639.827 1021.08 639.147 1020.75 638.72C1020.41 638.28 1019.88 638.06 1019.15 638.06C1018.29 638.06 1017.62 638.347 1017.13 638.92C1016.65 639.493 1016.41 640.273 1016.41 641.26V647H1014.79V639.76C1014.79 638.72 1014.73 637.78 1014.63 636.94H1016.17L1016.33 638.7C1016.61 638.06 1017.02 637.567 1017.57 637.22C1018.13 636.873 1018.77 636.7 1019.51 636.7C1020.31 636.7 1020.96 636.86 1021.47 637.18C1021.97 637.5 1022.35 637.993 1022.59 638.66C1022.89 638.06 1023.34 637.587 1023.93 637.24C1024.53 636.88 1025.2 636.7 1025.95 636.7ZM1032.36 636.94H1033.98V647H1032.36V636.94ZM1034.18 632.68V634.52H1032.2V632.68H1034.18ZM1040.53 647.14C1038.84 647.14 1037.5 646.707 1036.51 645.84L1037.05 644.64C1037.6 645.067 1038.15 645.373 1038.71 645.56C1039.27 645.747 1039.9 645.84 1040.59 645.84C1041.35 645.84 1041.92 645.713 1042.31 645.46C1042.71 645.193 1042.91 644.813 1042.91 644.32C1042.91 643.92 1042.78 643.6 1042.51 643.36C1042.24 643.12 1041.8 642.933 1041.19 642.8L1039.49 642.4C1038.65 642.213 1038 641.88 1037.53 641.4C1037.08 640.92 1036.85 640.347 1036.85 639.68C1036.85 638.8 1037.2 638.087 1037.91 637.54C1038.62 636.98 1039.55 636.7 1040.71 636.7C1041.42 636.7 1042.08 636.813 1042.71 637.04C1043.34 637.267 1043.86 637.593 1044.29 638.02L1043.75 639.2C1042.8 638.413 1041.79 638.02 1040.71 638.02C1039.99 638.02 1039.43 638.16 1039.03 638.44C1038.64 638.707 1038.45 639.087 1038.45 639.58C1038.45 639.993 1038.57 640.32 1038.81 640.56C1039.06 640.8 1039.46 640.987 1040.01 641.12L1041.71 641.54C1042.64 641.753 1043.34 642.087 1043.79 642.54C1044.24 642.98 1044.47 643.56 1044.47 644.28C1044.47 645.147 1044.12 645.84 1043.41 646.36C1042.7 646.88 1041.74 647.14 1040.53 647.14ZM1052.01 632.76H1054.03L1053.51 643.26H1052.51L1052.01 632.76ZM1054.05 644.94V647H1051.99V644.94H1054.05Z" fill="#45396D"/>
        <circle cx="854.935" cy="672.4" r="5.5" transform="rotate(14.6835 854.935 672.4)" stroke="#45396D" stroke-width="2"/>
        <circle cx="902.341" cy="641.404" r="10.5" transform="rotate(14.6835 902.341 641.404)" stroke="#45396D" stroke-width="2"/>
        <circle cx="875.943" cy="659.297" r="8.5" transform="rotate(14.6835 875.943 659.297)" stroke="#45396D" stroke-width="2"/>
        <path d="M589.5 716.5C387.449 687.979 111.5 686.333 0 677V800H1440V693.243C1120.5 716.243 864 755.247 589.5 716.5Z" fill="#025949"/>
        <rect x="200.517" y="643" width="11.0216" height="65.1278" rx="2" fill="#FFCDB6"/>
        <g clip-path="url(#clip1)">
            <path d="M257.229 640.251C243.353 610.593 221.528 563.672 211.436 540.55C209.372 535.817 202.627 535.817 200.556 540.55C190.471 563.672 168.646 610.593 154.77 640.251C148.986 652.61 158.067 666.751 171.771 666.751H205.996H240.221C253.932 666.759 263.006 652.61 257.229 640.251Z" fill="#03A678"/>
        </g>
        <circle cx="237.5" cy="40.5" r="17.5" fill="#FFCDB6"/>
        <path d="M232 33L228 38L232 43" stroke="white" stroke-width="2" stroke-linecap="round" stroke-linejoin="round"/>
        <path d="M228.5 38H240.5C243.261 38 245.5 40.2386 245.5 43V43C245.5 45.7614 243.261 48 240.5 48H238" stroke="white" stroke-width="2" stroke-linecap="round"/>
        <circle cx="187.5" cy="40.5" r="17.5" fill="#FFCDB6"/>
        <path d="M187.5 33V48" stroke="white" stroke-width="2" stroke-miterlimit="10" stroke-linecap="round"/>
        <path d="M195 40.5H180" stroke="white" stroke-width="2" stroke-miterlimit="10" stroke-linecap="round"/>
    </g>
    <defs>
        <clipPath id="clip0">
            <rect width="1440" height="800" fill="white"/>
        </clipPath>
        <clipPath id="clip1">
            <rect width="106" height="129.759" fill="white" transform="translate(153 537)"/>
        </clipPath>
    </defs>
</svg>
