<svg width="1440" height="800" viewBox="0 0 1440 800" fill="none" xmlns="http://www.w3.org/2000/svg">
    <g clip-path="url(#clip0)">
        <rect width="1440" height="800" fill="white"/>
        <circle cx="188.5" cy="40.5" r="17.5" fill="#FFCDB6"/>
        <path d="M188.5 33V48" stroke="white" stroke-width="2" stroke-miterlimit="10" stroke-linecap="round"/>
        <path d="M196 40.5H181" stroke="white" stroke-width="2" stroke-miterlimit="10" stroke-linecap="round"/>
        <circle cx="-30" cy="653" r="382" fill="#FFCDB6"/>
        <path d="M118.34 502.504C114.495 502.504 111.135 501.683 108.26 500.04C105.423 498.36 103.22 495.989 101.652 492.928C100.121 489.829 99.356 486.189 99.356 482.008C99.356 477.864 100.121 474.261 101.652 471.2C103.183 468.101 105.367 465.731 108.204 464.088C111.079 462.445 114.457 461.624 118.34 461.624C122.223 461.624 125.583 462.445 128.42 464.088C131.295 465.731 133.479 468.101 134.972 471.2C136.503 474.261 137.268 477.864 137.268 482.008C137.268 486.189 136.503 489.829 134.972 492.928C133.441 495.989 131.257 498.36 128.42 500.04C125.583 501.683 122.223 502.504 118.34 502.504ZM118.34 496.736C122.036 496.736 124.911 495.467 126.964 492.928C129.017 490.389 130.044 486.749 130.044 482.008C130.044 477.304 129.017 473.701 126.964 471.2C124.911 468.661 122.036 467.392 118.34 467.392C114.644 467.392 111.769 468.643 109.716 471.144C107.663 473.645 106.636 477.267 106.636 482.008C106.636 486.749 107.663 490.389 109.716 492.928C111.769 495.467 114.644 496.736 118.34 496.736ZM161.131 502.504C155.643 502.504 151.481 501.104 148.643 498.304C145.843 495.467 144.443 491.323 144.443 485.872V462.128H151.555V486.264C151.555 489.699 152.358 492.312 153.963 494.104C155.569 495.859 157.958 496.736 161.131 496.736C164.23 496.736 166.582 495.84 168.187 494.048C169.83 492.256 170.651 489.661 170.651 486.264V462.128H177.763V485.872C177.763 491.285 176.345 495.411 173.507 498.248C170.67 501.085 166.545 502.504 161.131 502.504ZM186.121 462.128H193.345V502H186.121V462.128Z" fill="white"/>
        <path d="M35.792 42.354H30.104L28.97 45H25.586L31.58 32.184H34.244L40.256 45H36.926L35.792 42.354ZM34.694 39.816L32.948 35.766L31.202 39.816H34.694ZM50.436 31.752V45H47.232V43.758C46.968 44.19 46.584 44.532 46.08 44.784C45.576 45.024 45.024 45.144 44.424 45.144C43.644 45.144 42.948 44.946 42.336 44.55C41.724 44.142 41.244 43.578 40.896 42.858C40.56 42.126 40.392 41.286 40.392 40.338C40.392 39.402 40.56 38.574 40.896 37.854C41.244 37.134 41.724 36.582 42.336 36.198C42.948 35.802 43.644 35.604 44.424 35.604C45 35.604 45.528 35.724 46.008 35.964C46.5 36.204 46.89 36.528 47.178 36.936V31.752H50.436ZM45.432 42.714C46.008 42.714 46.452 42.516 46.764 42.12C47.076 41.712 47.232 41.13 47.232 40.374C47.232 39.642 47.07 39.078 46.746 38.682C46.434 38.274 45.996 38.07 45.432 38.07C44.844 38.07 44.394 38.268 44.082 38.664C43.77 39.048 43.614 39.606 43.614 40.338C43.614 41.094 43.77 41.682 44.082 42.102C44.406 42.51 44.856 42.714 45.432 42.714ZM56.9804 45.144C55.9604 45.144 55.0724 44.952 54.3164 44.568C53.5604 44.184 52.9784 43.632 52.5704 42.912C52.1624 42.192 51.9584 41.346 51.9584 40.374C51.9584 39.402 52.1624 38.556 52.5704 37.836C52.9784 37.116 53.5604 36.564 54.3164 36.18C55.0724 35.796 55.9604 35.604 56.9804 35.604C57.9884 35.604 58.8644 35.802 59.6084 36.198C60.3644 36.582 60.9464 37.134 61.3544 37.854C61.7624 38.562 61.9664 39.402 61.9664 40.374C61.9664 41.346 61.7624 42.192 61.3544 42.912C60.9464 43.62 60.3644 44.172 59.6084 44.568C58.8644 44.952 57.9884 45.144 56.9804 45.144ZM56.9804 42.714C58.1564 42.714 58.7444 41.934 58.7444 40.374C58.7444 39.582 58.5944 39 58.2944 38.628C58.0064 38.244 57.5684 38.052 56.9804 38.052C56.3804 38.052 55.9304 38.244 55.6304 38.628C55.3304 39 55.1804 39.582 55.1804 40.374C55.1804 41.178 55.3304 41.772 55.6304 42.156C55.9304 42.528 56.3804 42.714 56.9804 42.714ZM69.5293 35.604C70.3093 35.604 71.0053 35.808 71.6173 36.216C72.2293 36.624 72.7093 37.194 73.0573 37.926C73.4053 38.658 73.5793 39.498 73.5793 40.446C73.5793 41.382 73.4053 42.21 73.0573 42.93C72.7213 43.638 72.2473 44.184 71.6353 44.568C71.0233 44.952 70.3213 45.144 69.5293 45.144C68.9293 45.144 68.3833 45.03 67.8913 44.802C67.3993 44.562 67.0213 44.232 66.7573 43.812V48.888H63.4993V38.484C63.4993 37.5 63.4513 36.624 63.3553 35.856H66.4153L66.5953 37.278C66.8233 36.774 67.2013 36.372 67.7293 36.072C68.2573 35.76 68.8573 35.604 69.5293 35.604ZM68.5393 42.714C69.1273 42.714 69.5713 42.522 69.8713 42.138C70.1713 41.754 70.3213 41.19 70.3213 40.446C70.3213 39.69 70.1653 39.108 69.8533 38.7C69.5533 38.28 69.1153 38.07 68.5393 38.07C67.9513 38.07 67.5013 38.268 67.1893 38.664C66.8773 39.06 66.7213 39.642 66.7213 40.41C66.7213 41.154 66.8773 41.724 67.1893 42.12C67.5013 42.516 67.9513 42.714 68.5393 42.714ZM80.3954 42.516C80.6114 42.516 80.8994 42.48 81.2594 42.408V44.874C80.8154 45.054 80.2514 45.144 79.5674 45.144C78.3314 45.144 77.3894 44.796 76.7414 44.1C76.1054 43.404 75.7874 42.438 75.7874 41.202V38.25H74.0774V35.856H75.7874V33.786L79.0454 32.742V35.856H81.2414V38.25H79.0454V41.202C79.0454 41.634 79.1714 41.964 79.4234 42.192C79.6874 42.408 80.0114 42.516 80.3954 42.516ZM90.9257 40.752H85.1837C85.2437 41.46 85.4477 41.97 85.7957 42.282C86.1437 42.594 86.6537 42.75 87.3257 42.75C87.7817 42.75 88.2377 42.678 88.6937 42.534C89.1497 42.378 89.5637 42.168 89.9357 41.904L90.7637 44.064C90.3077 44.4 89.7557 44.664 89.1077 44.856C88.4597 45.048 87.8117 45.144 87.1637 45.144C86.1197 45.144 85.2137 44.952 84.4457 44.568C83.6777 44.184 83.0897 43.638 82.6817 42.93C82.2737 42.21 82.0697 41.364 82.0697 40.392C82.0697 39.468 82.2617 38.646 82.6457 37.926C83.0417 37.194 83.5817 36.624 84.2657 36.216C84.9617 35.808 85.7537 35.604 86.6417 35.604C87.5057 35.604 88.2617 35.796 88.9097 36.18C89.5577 36.564 90.0557 37.116 90.4037 37.836C90.7517 38.544 90.9257 39.372 90.9257 40.32V40.752ZM86.7317 37.836C85.9277 37.836 85.4237 38.304 85.2197 39.24H88.1357C88.0157 38.304 87.5477 37.836 86.7317 37.836ZM98.2469 45.162C96.3749 45.162 94.9589 44.694 93.9989 43.758C93.0389 42.81 92.5589 41.424 92.5589 39.6V32.184H95.8529V39.726C95.8529 40.65 96.0569 41.358 96.4649 41.85C96.8849 42.342 97.4789 42.588 98.2469 42.588C99.0029 42.588 99.5849 42.342 99.9929 41.85C100.401 41.346 100.605 40.638 100.605 39.726V32.184H103.935V39.6C103.935 41.4 103.443 42.78 102.459 43.74C101.487 44.688 100.083 45.162 98.2469 45.162ZM112.088 35.604C113.168 35.604 113.972 35.934 114.5 36.594C115.04 37.242 115.31 38.226 115.31 39.546V45H112.052V39.69C112.052 39.126 111.956 38.724 111.764 38.484C111.572 38.232 111.272 38.106 110.864 38.106C110.372 38.106 109.976 38.274 109.676 38.61C109.376 38.934 109.226 39.366 109.226 39.906V45H105.968V38.484C105.968 37.5 105.92 36.624 105.824 35.856H108.884L109.046 37.206C109.394 36.69 109.826 36.294 110.342 36.018C110.858 35.742 111.44 35.604 112.088 35.604ZM117.381 32.184H123.483C124.947 32.184 126.081 32.538 126.885 33.246C127.689 33.942 128.091 34.89 128.091 36.09C128.091 37.278 127.683 38.226 126.867 38.934C126.051 39.642 124.923 39.996 123.483 39.996H120.765V45H117.381V32.184ZM123.033 37.476C124.305 37.476 124.941 37.026 124.941 36.126C124.941 35.67 124.785 35.328 124.473 35.1C124.173 34.86 123.693 34.74 123.033 34.74H120.765V37.476H123.033ZM138.766 35.856V45H135.562V43.758C135.298 44.19 134.914 44.532 134.41 44.784C133.906 45.024 133.354 45.144 132.754 45.144C131.974 45.144 131.278 44.952 130.666 44.568C130.054 44.184 129.574 43.638 129.226 42.93C128.89 42.21 128.722 41.382 128.722 40.446C128.722 39.498 128.896 38.658 129.244 37.926C129.592 37.194 130.072 36.624 130.684 36.216C131.296 35.808 131.986 35.604 132.754 35.604C133.354 35.604 133.9 35.736 134.392 36C134.896 36.252 135.286 36.594 135.562 37.026V35.856H138.766ZM133.762 42.714C134.338 42.714 134.782 42.516 135.094 42.12C135.406 41.724 135.562 41.154 135.562 40.41C135.562 39.654 135.406 39.078 135.094 38.682C134.782 38.274 134.338 38.07 133.762 38.07C133.198 38.07 132.754 38.28 132.43 38.7C132.106 39.108 131.944 39.69 131.944 40.446C131.944 41.178 132.1 41.742 132.412 42.138C132.724 42.522 133.174 42.714 133.762 42.714ZM146.48 35.64C146.924 35.64 147.266 35.706 147.506 35.838V38.808C146.99 38.568 146.492 38.448 146.012 38.448C144.644 38.448 143.96 39.102 143.96 40.41V45H140.702V38.484C140.702 37.5 140.654 36.624 140.558 35.856H143.618L143.816 37.386C144.032 36.822 144.38 36.39 144.86 36.09C145.34 35.79 145.88 35.64 146.48 35.64ZM152.797 45.144C151.249 45.144 150.037 44.724 149.161 43.884C148.285 43.044 147.847 41.898 147.847 40.446C147.847 39.486 148.057 38.64 148.477 37.908C148.909 37.176 149.509 36.612 150.277 36.216C151.045 35.808 151.933 35.604 152.941 35.604C153.613 35.604 154.273 35.706 154.921 35.91C155.569 36.102 156.085 36.366 156.469 36.702L155.641 38.952C155.317 38.688 154.939 38.478 154.507 38.322C154.075 38.166 153.661 38.088 153.265 38.088C152.593 38.088 152.077 38.28 151.717 38.664C151.357 39.048 151.177 39.618 151.177 40.374C151.177 41.142 151.357 41.724 151.717 42.12C152.077 42.504 152.599 42.696 153.283 42.696C153.679 42.696 154.087 42.618 154.507 42.462C154.939 42.306 155.317 42.096 155.641 41.832L156.469 44.046C156.073 44.394 155.545 44.664 154.885 44.856C154.237 45.048 153.541 45.144 152.797 45.144Z" fill="#025949"/>
        <circle cx="1475.5" cy="654.5" r="380.5" fill="#FDECE0"/>
        <path d="M1268.13 462.128V502H1262.75L1241.25 474.056V502H1234.53V462.128H1239.9L1261.35 490.016V462.128H1268.13ZM1294.5 502.504C1290.65 502.504 1287.29 501.683 1284.42 500.04C1281.58 498.36 1279.38 495.989 1277.81 492.928C1276.28 489.829 1275.51 486.189 1275.51 482.008C1275.51 477.864 1276.28 474.261 1277.81 471.2C1279.34 468.101 1281.52 465.731 1284.36 464.088C1287.23 462.445 1290.61 461.624 1294.5 461.624C1298.38 461.624 1301.74 462.445 1304.58 464.088C1307.45 465.731 1309.63 468.101 1311.13 471.2C1312.66 474.261 1313.42 477.864 1313.42 482.008C1313.42 486.189 1312.66 489.829 1311.13 492.928C1309.6 495.989 1307.41 498.36 1304.58 500.04C1301.74 501.683 1298.38 502.504 1294.5 502.504ZM1294.5 496.736C1298.19 496.736 1301.07 495.467 1303.12 492.928C1305.17 490.389 1306.2 486.749 1306.2 482.008C1306.2 477.304 1305.17 473.701 1303.12 471.2C1301.07 468.661 1298.19 467.392 1294.5 467.392C1290.8 467.392 1287.93 468.643 1285.87 471.144C1283.82 473.645 1282.79 477.267 1282.79 482.008C1282.79 486.749 1283.82 490.389 1285.87 492.928C1287.93 495.467 1290.8 496.736 1294.5 496.736ZM1354.42 462.128V502H1349.05L1327.54 474.056V502H1320.82V462.128H1326.2L1347.65 490.016V462.128H1354.42Z" fill="white"/>
        <path d="M534.168 114.368H544.392C547.032 114.368 549.084 115.004 550.548 116.276C552.036 117.548 552.78 119.3 552.78 121.532C552.78 123.764 552.036 125.528 550.548 126.824C549.06 128.096 547.008 128.732 544.392 128.732H537.12V140H534.168V114.368ZM544.14 126.284C546.036 126.284 547.464 125.876 548.424 125.06C549.384 124.244 549.864 123.068 549.864 121.532C549.864 119.996 549.384 118.832 548.424 118.04C547.464 117.224 546.036 116.816 544.14 116.816H537.12V126.284H544.14ZM572.643 121.892V140H569.763V136.724C569.235 137.852 568.431 138.728 567.351 139.352C566.295 139.952 565.059 140.252 563.643 140.252C562.035 140.252 560.619 139.868 559.395 139.1C558.195 138.332 557.259 137.252 556.587 135.86C555.939 134.444 555.615 132.8 555.615 130.928C555.615 129.056 555.951 127.412 556.623 125.996C557.295 124.556 558.231 123.44 559.431 122.648C560.655 121.856 562.059 121.46 563.643 121.46C565.059 121.46 566.295 121.772 567.351 122.396C568.407 123.02 569.211 123.896 569.763 125.024V121.892H572.643ZM564.219 137.84C565.995 137.84 567.363 137.24 568.323 136.04C569.283 134.816 569.763 133.088 569.763 130.856C569.763 128.624 569.283 126.908 568.323 125.708C567.363 124.508 565.995 123.908 564.219 123.908C562.443 123.908 561.051 124.532 560.043 125.78C559.059 127.004 558.567 128.72 558.567 130.928C558.567 133.136 559.059 134.84 560.043 136.04C561.027 137.24 562.419 137.84 564.219 137.84ZM586.705 121.46C587.305 121.46 587.857 121.532 588.361 121.676L588.289 124.34C587.737 124.148 587.101 124.052 586.381 124.052C584.629 124.052 583.321 124.604 582.457 125.708C581.617 126.788 581.197 128.108 581.197 129.668V140H578.281V126.968C578.281 125.096 578.185 123.404 577.993 121.892H580.765L581.053 125.24C581.509 124.016 582.241 123.08 583.249 122.432C584.257 121.784 585.409 121.46 586.705 121.46ZM591.324 113.504H594.24V140H591.324V113.504ZM607.39 140.252C605.686 140.252 604.186 139.868 602.89 139.1C601.594 138.332 600.586 137.24 599.866 135.824C599.17 134.408 598.822 132.752 598.822 130.856C598.822 128.96 599.17 127.304 599.866 125.888C600.586 124.472 601.594 123.38 602.89 122.612C604.186 121.844 605.686 121.46 607.39 121.46C609.094 121.46 610.594 121.844 611.89 122.612C613.186 123.38 614.182 124.472 614.878 125.888C615.598 127.304 615.958 128.96 615.958 130.856C615.958 132.752 615.598 134.408 614.878 135.824C614.182 137.24 613.186 138.332 611.89 139.1C610.594 139.868 609.094 140.252 607.39 140.252ZM607.39 137.84C609.19 137.84 610.57 137.252 611.53 136.076C612.49 134.876 612.97 133.136 612.97 130.856C612.97 128.648 612.478 126.944 611.494 125.744C610.51 124.52 609.142 123.908 607.39 123.908C605.614 123.908 604.234 124.52 603.25 125.744C602.266 126.944 601.774 128.648 601.774 130.856C601.774 133.136 602.254 134.876 603.214 136.076C604.198 137.252 605.59 137.84 607.39 137.84ZM629.539 121.46C633.883 121.46 636.055 123.848 636.055 128.624V140H633.139V128.768C633.139 127.088 632.803 125.864 632.131 125.096C631.459 124.304 630.403 123.908 628.963 123.908C627.283 123.908 625.939 124.424 624.931 125.456C623.923 126.488 623.419 127.88 623.419 129.632V140H620.503V126.968C620.503 125.096 620.407 123.404 620.215 121.892H622.987L623.275 125.132C623.827 123.956 624.655 123.056 625.759 122.432C626.863 121.784 628.123 121.46 629.539 121.46ZM647.682 140.252C644.634 140.252 642.222 139.472 640.446 137.912L641.418 135.752C642.402 136.52 643.398 137.072 644.406 137.408C645.414 137.744 646.542 137.912 647.79 137.912C649.158 137.912 650.19 137.684 650.886 137.228C651.606 136.748 651.966 136.064 651.966 135.176C651.966 134.456 651.726 133.88 651.246 133.448C650.766 133.016 649.974 132.68 648.87 132.44L645.81 131.72C644.298 131.384 643.122 130.784 642.282 129.92C641.466 129.056 641.058 128.024 641.058 126.824C641.058 125.24 641.694 123.956 642.966 122.972C644.238 121.964 645.918 121.46 648.006 121.46C649.278 121.46 650.478 121.664 651.606 122.072C652.734 122.48 653.682 123.068 654.45 123.836L653.478 125.96C651.774 124.544 649.95 123.836 648.006 123.836C646.71 123.836 645.702 124.088 644.982 124.592C644.286 125.072 643.938 125.756 643.938 126.644C643.938 127.388 644.154 127.976 644.586 128.408C645.042 128.84 645.762 129.176 646.746 129.416L649.806 130.172C651.486 130.556 652.734 131.156 653.55 131.972C654.366 132.764 654.774 133.808 654.774 135.104C654.774 136.664 654.138 137.912 652.866 138.848C651.594 139.784 649.866 140.252 647.682 140.252ZM675.756 115.88C674.796 115.88 674.04 116.156 673.488 116.708C672.96 117.236 672.696 118.16 672.696 119.48V121.892H677.124V124.196H672.696V140H669.78V124.196H666.252V121.892H669.78V119.12C669.78 117.224 670.248 115.796 671.184 114.836C672.144 113.852 673.476 113.36 675.18 113.36C676.02 113.36 676.836 113.468 677.628 113.684V116.168C676.956 115.976 676.332 115.88 675.756 115.88ZM696.709 121.892V140H693.829V136.724C693.301 137.852 692.497 138.728 691.417 139.352C690.361 139.952 689.125 140.252 687.709 140.252C686.101 140.252 684.685 139.868 683.461 139.1C682.261 138.332 681.325 137.252 680.653 135.86C680.005 134.444 679.681 132.8 679.681 130.928C679.681 129.056 680.017 127.412 680.689 125.996C681.361 124.556 682.297 123.44 683.497 122.648C684.721 121.856 686.125 121.46 687.709 121.46C689.125 121.46 690.361 121.772 691.417 122.396C692.473 123.02 693.277 123.896 693.829 125.024V121.892H696.709ZM688.285 137.84C690.061 137.84 691.429 137.24 692.389 136.04C693.349 134.816 693.829 133.088 693.829 130.856C693.829 128.624 693.349 126.908 692.389 125.708C691.429 124.508 690.061 123.908 688.285 123.908C686.509 123.908 685.117 124.532 684.109 125.78C683.125 127.004 682.633 128.72 682.633 130.928C682.633 133.136 683.125 134.84 684.109 136.04C685.093 137.24 686.485 137.84 688.285 137.84ZM717.503 121.892V140H714.659V136.868C714.083 137.972 713.279 138.812 712.247 139.388C711.215 139.964 710.051 140.252 708.755 140.252C706.619 140.252 704.999 139.652 703.895 138.452C702.791 137.252 702.239 135.476 702.239 133.124V121.892H705.155V133.052C705.155 134.684 705.491 135.884 706.163 136.652C706.835 137.42 707.855 137.804 709.223 137.804C710.831 137.804 712.127 137.288 713.111 136.256C714.095 135.2 714.587 133.82 714.587 132.116V121.892H717.503ZM732.16 121.46C736.504 121.46 738.676 123.848 738.676 128.624V140H735.76V128.768C735.76 127.088 735.424 125.864 734.752 125.096C734.08 124.304 733.024 123.908 731.584 123.908C729.904 123.908 728.56 124.424 727.552 125.456C726.544 126.488 726.04 127.88 726.04 129.632V140H723.124V126.968C723.124 125.096 723.028 123.404 722.836 121.892H725.608L725.896 125.132C726.448 123.956 727.276 123.056 728.38 122.432C729.484 121.784 730.744 121.46 732.16 121.46ZM759.339 130.856H746.055C746.079 133.16 746.607 134.9 747.639 136.076C748.695 137.252 750.219 137.84 752.211 137.84C754.323 137.84 756.267 137.132 758.043 135.716L759.015 137.84C758.223 138.584 757.203 139.172 755.955 139.604C754.731 140.036 753.471 140.252 752.175 140.252C749.343 140.252 747.123 139.424 745.515 137.768C743.907 136.088 743.103 133.796 743.103 130.892C743.103 129.044 743.463 127.412 744.183 125.996C744.903 124.556 745.911 123.44 747.207 122.648C748.503 121.856 749.979 121.46 751.635 121.46C754.035 121.46 755.919 122.252 757.287 123.836C758.655 125.396 759.339 127.556 759.339 130.316V130.856ZM751.671 123.728C750.159 123.728 748.923 124.184 747.963 125.096C747.027 126.008 746.427 127.292 746.163 128.948H756.711C756.567 127.244 756.063 125.948 755.199 125.06C754.359 124.172 753.183 123.728 751.671 123.728ZM788.308 130.856H775.024C775.048 133.16 775.576 134.9 776.608 136.076C777.664 137.252 779.188 137.84 781.18 137.84C783.292 137.84 785.236 137.132 787.012 135.716L787.984 137.84C787.192 138.584 786.172 139.172 784.924 139.604C783.7 140.036 782.44 140.252 781.144 140.252C778.312 140.252 776.092 139.424 774.484 137.768C772.876 136.088 772.072 133.796 772.072 130.892C772.072 129.044 772.432 127.412 773.152 125.996C773.872 124.556 774.88 123.44 776.176 122.648C777.472 121.856 778.948 121.46 780.604 121.46C783.004 121.46 784.888 122.252 786.256 123.836C787.624 125.396 788.308 127.556 788.308 130.316V130.856ZM780.64 123.728C779.128 123.728 777.892 124.184 776.932 125.096C775.996 126.008 775.396 127.292 775.132 128.948H785.68C785.536 127.244 785.032 125.948 784.168 125.06C783.328 124.172 782.152 123.728 780.64 123.728ZM796.516 124.196V134.096C796.516 135.44 796.792 136.388 797.344 136.94C797.896 137.468 798.676 137.732 799.684 137.732C800.356 137.732 801.004 137.624 801.628 137.408V139.892C800.884 140.132 800.044 140.252 799.108 140.252C797.38 140.252 796.024 139.772 795.04 138.812C794.08 137.828 793.6 136.388 793.6 134.492V124.196H790.072V121.892H793.6V117.248L796.516 116.204V121.892H801.7V124.196H796.516ZM821.549 115.88C820.589 115.88 819.833 116.156 819.281 116.708C818.753 117.236 818.489 118.16 818.489 119.48V121.892H822.917V124.196H818.489V140H815.573V124.196H812.045V121.892H815.573V119.12C815.573 117.224 816.041 115.796 816.977 114.836C817.937 113.852 819.269 113.36 820.973 113.36C821.813 113.36 822.629 113.468 823.421 113.684V116.168C822.749 115.976 822.125 115.88 821.549 115.88ZM826.733 113.504H829.649V140H826.733V113.504ZM842.796 140.252C841.092 140.252 839.592 139.868 838.296 139.1C837 138.332 835.992 137.24 835.272 135.824C834.576 134.408 834.228 132.752 834.228 130.856C834.228 128.96 834.576 127.304 835.272 125.888C835.992 124.472 837 123.38 838.296 122.612C839.592 121.844 841.092 121.46 842.796 121.46C844.5 121.46 846 121.844 847.296 122.612C848.592 123.38 849.588 124.472 850.284 125.888C851.004 127.304 851.364 128.96 851.364 130.856C851.364 132.752 851.004 134.408 850.284 135.824C849.588 137.24 848.592 138.332 847.296 139.1C846 139.868 844.5 140.252 842.796 140.252ZM842.796 137.84C844.596 137.84 845.976 137.252 846.936 136.076C847.896 134.876 848.376 133.136 848.376 130.856C848.376 128.648 847.884 126.944 846.9 125.744C845.916 124.52 844.548 123.908 842.796 123.908C841.02 123.908 839.64 124.52 838.656 125.744C837.672 126.944 837.18 128.648 837.18 130.856C837.18 133.136 837.66 134.876 838.62 136.076C839.604 137.252 840.996 137.84 842.796 137.84ZM864.334 121.46C864.934 121.46 865.486 121.532 865.99 121.676L865.918 124.34C865.366 124.148 864.73 124.052 864.01 124.052C862.258 124.052 860.95 124.604 860.086 125.708C859.246 126.788 858.826 128.108 858.826 129.668V140H855.91V126.968C855.91 125.096 855.814 123.404 855.622 121.892H858.394L858.682 125.24C859.138 124.016 859.87 123.08 860.878 122.432C861.886 121.784 863.038 121.46 864.334 121.46ZM883.757 130.856H870.473C870.497 133.16 871.025 134.9 872.057 136.076C873.113 137.252 874.637 137.84 876.629 137.84C878.741 137.84 880.685 137.132 882.461 135.716L883.433 137.84C882.641 138.584 881.621 139.172 880.373 139.604C879.149 140.036 877.889 140.252 876.593 140.252C873.761 140.252 871.541 139.424 869.933 137.768C868.325 136.088 867.521 133.796 867.521 130.892C867.521 129.044 867.881 127.412 868.601 125.996C869.321 124.556 870.329 123.44 871.625 122.648C872.921 121.856 874.397 121.46 876.053 121.46C878.453 121.46 880.337 122.252 881.705 123.836C883.073 125.396 883.757 127.556 883.757 130.316V130.856ZM876.089 123.728C874.577 123.728 873.341 124.184 872.381 125.096C871.445 126.008 870.845 127.292 870.581 128.948H881.129C880.985 127.244 880.481 125.948 879.617 125.06C878.777 124.172 877.601 123.728 876.089 123.728ZM553.896 166.46C557.904 166.46 559.908 168.848 559.908 173.624V185H556.992V173.768C556.992 172.064 556.692 170.828 556.092 170.06C555.516 169.292 554.568 168.908 553.248 168.908C551.712 168.908 550.512 169.424 549.648 170.456C548.784 171.488 548.352 172.892 548.352 174.668V185H545.436V173.768C545.436 172.088 545.136 170.864 544.536 170.096C543.936 169.304 542.976 168.908 541.656 168.908C540.12 168.908 538.908 169.424 538.02 170.456C537.156 171.488 536.724 172.892 536.724 174.668V185H533.808V171.968C533.808 170.096 533.712 168.404 533.52 166.892H536.292L536.58 170.06C537.084 168.908 537.828 168.02 538.812 167.396C539.82 166.772 540.984 166.46 542.304 166.46C543.744 166.46 544.92 166.748 545.832 167.324C546.744 167.9 547.416 168.788 547.848 169.988C548.4 168.908 549.204 168.056 550.26 167.432C551.34 166.784 552.552 166.46 553.896 166.46ZM581.397 166.892V185H578.517V181.724C577.989 182.852 577.185 183.728 576.105 184.352C575.049 184.952 573.813 185.252 572.397 185.252C570.789 185.252 569.373 184.868 568.149 184.1C566.949 183.332 566.013 182.252 565.341 180.86C564.693 179.444 564.369 177.8 564.369 175.928C564.369 174.056 564.705 172.412 565.377 170.996C566.049 169.556 566.985 168.44 568.185 167.648C569.409 166.856 570.813 166.46 572.397 166.46C573.813 166.46 575.049 166.772 576.105 167.396C577.161 168.02 577.965 168.896 578.517 170.024V166.892H581.397ZM572.973 182.84C574.749 182.84 576.117 182.24 577.077 181.04C578.037 179.816 578.517 178.088 578.517 175.856C578.517 173.624 578.037 171.908 577.077 170.708C576.117 169.508 574.749 168.908 572.973 168.908C571.197 168.908 569.805 169.532 568.797 170.78C567.813 172.004 567.321 173.72 567.321 175.928C567.321 178.136 567.813 179.84 568.797 181.04C569.781 182.24 571.173 182.84 572.973 182.84ZM587.035 166.892H589.951V185H587.035V166.892ZM590.311 159.224V162.536H586.747V159.224H590.311ZM604.649 166.46C608.993 166.46 611.165 168.848 611.165 173.624V185H608.249V173.768C608.249 172.088 607.913 170.864 607.241 170.096C606.569 169.304 605.513 168.908 604.073 168.908C602.393 168.908 601.049 169.424 600.041 170.456C599.033 171.488 598.529 172.88 598.529 174.632V185H595.613V171.968C595.613 170.096 595.517 168.404 595.325 166.892H598.097L598.385 170.132C598.937 168.956 599.765 168.056 600.869 167.432C601.973 166.784 603.233 166.46 604.649 166.46ZM620.559 169.196V179.096C620.559 180.44 620.835 181.388 621.387 181.94C621.939 182.468 622.719 182.732 623.727 182.732C624.399 182.732 625.047 182.624 625.671 182.408V184.892C624.927 185.132 624.087 185.252 623.151 185.252C621.423 185.252 620.067 184.772 619.083 183.812C618.123 182.828 617.643 181.388 617.643 179.492V169.196H614.115V166.892H617.643V162.248L620.559 161.204V166.892H625.743V169.196H620.559ZM644.413 175.856H631.129C631.153 178.16 631.681 179.9 632.713 181.076C633.769 182.252 635.293 182.84 637.285 182.84C639.397 182.84 641.341 182.132 643.117 180.716L644.089 182.84C643.297 183.584 642.277 184.172 641.029 184.604C639.805 185.036 638.545 185.252 637.249 185.252C634.417 185.252 632.197 184.424 630.589 182.768C628.981 181.088 628.177 178.796 628.177 175.892C628.177 174.044 628.537 172.412 629.257 170.996C629.977 169.556 630.985 168.44 632.281 167.648C633.577 166.856 635.053 166.46 636.709 166.46C639.109 166.46 640.993 167.252 642.361 168.836C643.729 170.396 644.413 172.556 644.413 175.316V175.856ZM636.745 168.728C635.233 168.728 633.997 169.184 633.037 170.096C632.101 171.008 631.501 172.292 631.237 173.948H641.785C641.641 172.244 641.137 170.948 640.273 170.06C639.433 169.172 638.257 168.728 636.745 168.728ZM657.875 166.46C662.219 166.46 664.391 168.848 664.391 173.624V185H661.475V173.768C661.475 172.088 661.139 170.864 660.467 170.096C659.795 169.304 658.739 168.908 657.299 168.908C655.619 168.908 654.275 169.424 653.267 170.456C652.259 171.488 651.755 172.88 651.755 174.632V185H648.839V171.968C648.839 170.096 648.743 168.404 648.551 166.892H651.323L651.611 170.132C652.163 168.956 652.991 168.056 654.095 167.432C655.199 166.784 656.459 166.46 657.875 166.46ZM685.846 166.892V185H682.966V181.724C682.438 182.852 681.634 183.728 680.554 184.352C679.498 184.952 678.262 185.252 676.846 185.252C675.238 185.252 673.822 184.868 672.598 184.1C671.398 183.332 670.462 182.252 669.79 180.86C669.142 179.444 668.818 177.8 668.818 175.928C668.818 174.056 669.154 172.412 669.826 170.996C670.498 169.556 671.434 168.44 672.634 167.648C673.858 166.856 675.262 166.46 676.846 166.46C678.262 166.46 679.498 166.772 680.554 167.396C681.61 168.02 682.414 168.896 682.966 170.024V166.892H685.846ZM677.422 182.84C679.198 182.84 680.566 182.24 681.526 181.04C682.486 179.816 682.966 178.088 682.966 175.856C682.966 173.624 682.486 171.908 681.526 170.708C680.566 169.508 679.198 168.908 677.422 168.908C675.646 168.908 674.254 169.532 673.246 170.78C672.262 172.004 671.77 173.72 671.77 175.928C671.77 178.136 672.262 179.84 673.246 181.04C674.23 182.24 675.622 182.84 677.422 182.84ZM700.52 166.46C704.864 166.46 707.036 168.848 707.036 173.624V185H704.12V173.768C704.12 172.088 703.784 170.864 703.112 170.096C702.44 169.304 701.384 168.908 699.944 168.908C698.264 168.908 696.92 169.424 695.912 170.456C694.904 171.488 694.4 172.88 694.4 174.632V185H691.484V171.968C691.484 170.096 691.388 168.404 691.196 166.892H693.968L694.256 170.132C694.808 168.956 695.636 168.056 696.74 167.432C697.844 166.784 699.104 166.46 700.52 166.46ZM716.43 169.196V179.096C716.43 180.44 716.706 181.388 717.258 181.94C717.81 182.468 718.59 182.732 719.598 182.732C720.27 182.732 720.918 182.624 721.542 182.408V184.892C720.798 185.132 719.958 185.252 719.022 185.252C717.294 185.252 715.938 184.772 714.954 183.812C713.994 182.828 713.514 181.388 713.514 179.492V169.196H709.986V166.892H713.514V162.248L716.43 161.204V166.892H721.614V169.196H716.43Z" fill="#45396D"/>
        <circle r="7.5" transform="matrix(-1 0 0 1 524.5 260.5)" stroke="#45396D" stroke-width="2"/>
        <circle r="12" transform="matrix(-1 0 0 1 548 234)" stroke="#45396D" stroke-width="2"/>
        <circle r="4.5" transform="matrix(-1 0 0 1 506.5 279.5)" stroke="#45396D" stroke-width="2"/>
        <path d="M414.49 432.112C425.316 432.112 434.093 430.209 434.093 427.862C434.093 425.515 425.316 423.612 414.49 423.612C403.663 423.612 394.887 425.515 394.887 427.862C394.887 430.209 403.663 432.112 414.49 432.112Z" stroke="#3EE5B1" stroke-width="2" stroke-miterlimit="10"/>
        <path d="M414.49 430.059C415.637 429.993 416.76 429.415 417.462 428.339L427.796 412.499H401.183L411.517 428.339C412.219 429.415 413.342 429.993 414.49 430.059Z" fill="#FDECE0"/>
        <path d="M414.49 422.352C414.808 422.348 415.135 422.336 415.466 422.32C426.539 421.778 436.327 396.931 435.873 392.249C435.424 387.566 429.512 383.145 429.512 383.145H399.46C399.46 383.145 393.548 387.566 393.098 392.249C392.649 396.931 402.432 421.778 413.506 422.32C413.849 422.336 414.171 422.348 414.49 422.352Z" fill="#FFCDB6"/>
        <path d="M414.49 441.192C423.228 441.192 430.312 440.024 430.312 438.584C430.312 437.143 423.228 435.976 414.49 435.976C405.751 435.976 398.667 437.143 398.667 438.584C398.667 440.024 405.751 441.192 414.49 441.192Z" stroke="#3EE5B1" stroke-width="2" stroke-miterlimit="10"/>
        <path d="M414.49 449C419.158 449 422.942 448.117 422.942 447.028C422.942 445.938 419.158 445.055 414.49 445.055C409.822 445.055 406.038 445.938 406.038 447.028C406.038 448.117 409.822 449 414.49 449Z" stroke="#3EE5B1" stroke-width="2" stroke-miterlimit="10"/>
        <path d="M421.403 331.455H408.659V346.912H421.403V331.455Z" fill="#45396D"/>
        <path d="M414.49 393.28C424.956 393.28 433.44 381.678 433.44 367.366C433.44 353.054 424.956 341.452 414.49 341.452C404.024 341.452 395.54 353.054 395.54 367.366C395.54 381.678 404.024 393.28 414.49 393.28Z" fill="#45396D"/>
        <path d="M473.34 397.009C472.965 400.322 471.78 409.552 469.792 414.915C469.094 416.802 466.46 416.887 465.599 415.07C461.961 407.429 460.013 396.813 461.254 392.017C462.434 387.448 469.825 392.844 472.507 394.979C473.116 395.468 473.426 396.234 473.34 397.009Z" fill="#45396D"/>
        <path d="M455.382 346.912C459.604 346.912 463.026 341.526 463.026 334.882C463.026 328.238 459.604 322.852 455.382 322.852C451.161 322.852 447.739 328.238 447.739 334.882C447.739 341.526 451.161 346.912 455.382 346.912Z" fill="#45396D"/>
        <path d="M416.638 335.966L416.646 356.897V356.901C416.748 356.901 418.263 356.803 436.024 355.083C439.818 354.716 442.876 353.262 445.342 351.146C445.342 351.142 445.342 351.142 445.342 351.142C455.958 342.022 455.546 320.538 455.538 320.163C445.016 329.817 431.464 335.722 416.638 335.966Z" fill="#FFCDB6"/>
        <path d="M416.646 356.901C416.646 357.003 416.654 359.904 417.52 365.984C436.265 371.168 437.531 379.009 438.417 378.626C439.303 378.247 449.691 373.446 447.412 367.883C445.163 362.39 445.338 351.428 445.342 351.147C442.876 353.262 439.818 354.716 436.025 355.083C418.263 356.803 416.748 356.901 416.646 356.901Z" fill="#FDECE0"/>
        <path d="M459.849 325.126C459.849 325.126 462.785 316.756 466.95 325.126C471.115 333.497 480.78 373.051 472.715 398.402C470.498 402.233 465.835 403.431 463.026 397.396C460.217 391.36 454.182 361.212 455.383 346.908C456.583 332.604 459.849 325.126 459.849 325.126Z" fill="#FDECE0"/>
        <path d="M414.49 202.696C414.813 202.691 415.139 202.687 415.466 202.687C449.503 202.687 477.097 232.526 477.097 269.333C477.097 289.705 468.645 307.937 455.325 320.159C455.325 320.159 455.325 320.159 455.325 320.163C444.803 329.817 431.251 335.722 416.425 335.966C416.107 335.971 415.784 335.975 415.466 335.975C415.139 335.975 414.817 335.971 414.49 335.966C414.167 335.971 413.841 335.975 413.514 335.975C413.196 335.975 412.873 335.971 412.555 335.966C397.729 335.722 384.177 329.817 373.655 320.163C373.655 320.159 373.655 320.159 373.655 320.159C360.335 307.937 351.883 289.705 351.883 269.333C351.883 232.526 379.477 202.687 413.514 202.687C413.841 202.687 414.167 202.691 414.49 202.696Z" fill="#FDECE0"/>
        <path d="M414.122 264.675C391.318 264.944 375.884 262.148 369.739 262.303C361.033 262.519 362.773 282.94 374.528 304.009C383.989 320.97 397.68 327.233 414.122 326.426H414.49C430.937 327.233 444.623 320.97 454.084 304.009C465.835 282.94 467.579 262.519 458.874 262.303C452.728 262.148 437.294 264.948 414.49 264.675H414.122Z" fill="#FFCDB6"/>
        <path d="M329.385 226.935L320.647 209.741C320.647 209.741 318.495 205.568 322.039 204.305L353.03 256.488L352.059 264.105L348.764 264.056L329.385 226.935Z" fill="#45396D"/>
        <path d="M329.385 226.935C329.638 227.44 346.971 278.93 346.971 278.93L350.331 263.171L329.385 226.935Z" fill="#FFCDB6"/>
        <path d="M354.684 294.791C354.684 294.791 347.053 288.584 346.971 277.699C346.889 266.815 350.327 263.167 350.327 263.167L354.684 294.791Z" fill="#FFCDB6"/>
        <path d="M359.763 301.886C359.763 301.886 356.142 303.108 354.1 292.138C352.059 281.167 349.919 262.764 350.295 260.376C350.67 257.988 350.095 255.893 352.798 254.976C355.501 254.055 359.763 301.886 359.763 301.886Z" fill="#45396D"/>
        <path d="M499.611 226.971L508.353 209.778C508.353 209.778 510.505 205.605 506.96 204.342L475.965 256.525L476.937 264.141L480.232 264.092L499.611 226.971Z" fill="#45396D"/>
        <path d="M499.611 226.971C499.358 227.477 482.025 278.967 482.025 278.967L478.665 263.208L499.611 226.971Z" fill="#FFCDB6"/>
        <path d="M474.312 294.831C474.312 294.831 481.943 288.625 482.025 277.74C482.107 266.855 478.669 263.208 478.669 263.208L474.312 294.831Z" fill="#FFCDB6"/>
        <path d="M469.232 301.922C469.232 301.922 472.854 303.145 474.896 292.174C476.937 281.204 479.077 262.801 478.701 260.412C478.326 258.024 478.901 255.93 476.198 255.013C473.495 254.092 469.232 301.922 469.232 301.922Z" fill="#45396D"/>
        <path d="M412.546 356.901C412.546 356.897 412.546 356.897 412.546 356.897C412.546 356.897 412.56 356.901 412.546 356.901Z" fill="#03A678"/>
        <path d="M355.856 397.009C356.232 400.322 357.416 409.552 359.404 414.915C360.102 416.802 362.736 416.887 363.598 415.07C367.236 407.429 369.183 396.813 367.942 392.017C366.762 387.448 359.372 392.844 356.689 394.979C356.081 395.468 355.766 396.234 355.856 397.009Z" fill="#45396D"/>
        <path d="M373.814 346.912C378.035 346.912 381.457 341.526 381.457 334.882C381.457 328.238 378.035 322.852 373.814 322.852C369.592 322.852 366.17 328.238 366.17 334.882C366.17 341.526 369.592 346.912 373.814 346.912Z" fill="#45396D"/>
        <path d="M412.554 335.966L412.546 356.897V356.901C412.444 356.901 410.929 356.803 393.168 355.083C389.374 354.716 386.316 353.262 383.85 351.146C383.85 351.142 383.85 351.142 383.85 351.142C373.234 342.022 373.646 320.538 373.654 320.163C384.176 329.817 397.728 335.722 412.554 335.966Z" fill="#FFCDB6"/>
        <path d="M412.546 356.901C412.546 357.003 412.538 359.904 411.673 365.984C392.927 371.168 391.661 379.009 390.775 378.626C389.889 378.247 379.501 373.446 381.78 367.883C384.03 362.39 383.854 351.428 383.85 351.147C386.316 353.262 389.375 354.716 393.168 355.083C410.929 356.803 412.444 356.901 412.546 356.901Z" fill="#FDECE0"/>
        <path d="M369.347 325.126C369.347 325.126 366.411 316.756 362.246 325.126C358.081 333.497 348.417 373.051 356.481 398.402C358.698 402.233 363.361 403.431 366.17 397.396C368.979 391.36 375.014 361.212 373.814 346.908C372.613 332.604 369.347 325.126 369.347 325.126Z" fill="#FDECE0"/>
        <path d="M429.556 345.727C429.548 346.611 429.001 347.495 427.797 347.495C426.592 347.495 426.033 346.631 426.033 345.731C426.033 344.83 426.613 343.925 427.797 343.925C428.981 343.929 429.569 344.834 429.556 345.727ZM426.674 345.743C426.69 346.305 426.992 346.904 427.801 346.904C428.609 346.904 428.911 346.297 428.924 345.735C428.932 345.156 428.609 344.512 427.801 344.512C426.992 344.516 426.657 345.164 426.674 345.743Z" fill="#FDECE0"/>
        <path d="M431.594 345.408L432.505 343.994H433.284V344.023L431.917 346.003V347.418H431.271V346.003L429.953 344.023V343.994H430.72L431.594 345.408Z" fill="#FDECE0"/>
        <path d="M436.367 346.774H434.574L434.28 347.418H433.578L435.117 343.994H435.824L437.363 347.418H436.657L436.367 346.774ZM435.473 344.716L434.836 346.171H436.11L435.473 344.716Z" fill="#FDECE0"/>
        <path d="M410.782 192.283C414.176 186.02 418.079 190.083 421.811 179.756C425.543 169.43 417.683 165 417.683 165C420.517 169.336 419.386 178.766 409.182 183.289C398.978 187.817 401.812 197.434 407.291 202.149C412.53 206.653 413.747 210.271 414 210.626C413.588 209.998 407.479 198.384 410.782 192.283Z" fill="#3EE5B1"/>
        <path d="M419.43 167.217C419.43 167.217 424.865 171.932 421.207 181.419C417.548 190.91 415.008 186.81 411.954 192.491C408.978 198.025 413.755 210.002 414.004 210.622C414.008 210.626 414.008 210.63 414.008 210.634C413.951 210.332 412.795 204.464 414.633 197.818C416.527 190.996 422.905 192.296 425.212 184.076C427.523 175.856 417.707 162.934 419.43 167.217Z" fill="#3EE5B1"/>
        <path d="M437.097 312.432C446.658 311.998 453.96 301.806 453.408 289.667C452.855 277.527 444.656 268.038 435.095 268.472C425.534 268.905 418.232 279.098 418.785 291.237C419.337 303.376 427.536 312.865 437.097 312.432Z" fill="white"/>
        <path d="M394.658 283.608C381.992 283.608 377.868 290.451 377.868 290.451C377.868 290.451 380.865 275.201 394.658 275.201C408.451 275.201 411.448 290.451 411.448 290.451C411.448 290.451 407.324 283.608 394.658 283.608Z" fill="white"/>
        <path d="M709.315 276C706.935 276 704.508 275.396 701.987 274.187C696.473 271.543 689.373 267.418 691.333 262.175L692.21 259.826C692.21 259.823 692.213 259.819 692.213 259.819C692.507 259.043 693.369 258.639 694.144 258.938C694.919 259.229 695.31 260.096 695.021 260.879C694.358 262.652 697.64 265.288 704.773 268.711C708.511 270.502 711.822 270.706 715.184 269.348C715.771 269.107 716.441 269.268 716.861 269.745C717.281 270.218 717.361 270.906 717.057 271.467L715.561 274.223C715.394 274.529 715.126 274.769 714.804 274.9C712.996 275.632 711.17 276 709.315 276Z" fill="#3EE5B1"/>
        <path d="M749.906 239.877C748.595 238.089 746.508 237.426 744.947 237.401C743.672 237.419 742.505 237.415 741.382 237.419C739.876 237.426 738.474 237.419 736.905 237.597C736.901 237.59 736.854 237.51 736.782 237.241C735.507 232.449 732.348 229.358 727.649 228.305C725.896 227.912 724.186 227.974 722.531 228.032C721.962 228.054 721.393 228.069 720.679 228.065C720.122 225.145 719.52 222.232 718.897 219.323C718.35 216.778 716.716 215.208 714.412 215.023C711.873 214.811 710.007 216.089 709.08 218.591L704.762 230.235C702.15 237.281 699.542 244.33 696.908 251.368C694.948 256.615 702.049 260.737 707.562 263.38C710.337 264.709 712.782 265.208 714.927 265.208C719.02 265.208 722.02 263.402 724.103 262.149C724.751 261.76 725.642 261.221 725.91 261.192C728.088 261.235 730.268 261.228 732.449 261.199C738.053 261.119 742.803 258.829 746.566 254.386C748.501 252.103 749.809 249.293 750.664 245.615C751.461 242.811 750.692 240.944 749.906 239.877ZM723.788 243.751C721.781 243.751 720.151 242.112 720.151 240.095C720.151 238.074 721.781 236.439 723.788 236.439C725.795 236.439 727.425 238.078 727.425 240.095C727.425 242.112 725.798 243.751 723.788 243.751Z" fill="#FFCDB6"/>
        <path d="M700.008 417.556C702.737 416.621 703.816 412.617 702.416 408.613C701.017 404.609 697.671 402.121 694.942 403.056C692.212 403.99 691.134 407.994 692.533 411.998C693.932 416.002 697.279 418.49 700.008 417.556Z" fill="#FFCDB6"/>
        <path d="M731.214 397.045C731.813 392.85 729.98 389.124 727.12 388.724C724.26 388.324 721.457 391.401 720.858 395.597C720.259 399.792 722.092 403.518 724.952 403.918C727.812 404.317 730.615 401.241 731.214 397.045Z" fill="#FFCDB6"/>
        <path d="M747.739 410.268C748.988 406.215 747.761 402.253 744.998 401.419C742.236 400.585 738.984 403.194 737.735 407.246C736.487 411.299 737.713 415.261 740.476 416.095C743.238 416.929 746.49 414.32 747.739 410.268Z" fill="#FFCDB6"/>
        <path d="M716.629 446.5C718.886 445.396 721.587 445.396 723.847 446.5C725.643 447.379 728.058 448.117 730.981 447.985C737.68 447.68 741.425 442.482 741.721 435.767C742.018 429.052 738.527 428.981 734.026 418.018C729.525 407.055 720.24 407.958 720.24 407.958C720.24 407.958 710.958 407.055 706.454 418.018C701.949 428.981 698.458 429.052 698.758 435.767C699.055 442.482 702.8 447.68 709.499 447.985C712.418 448.117 714.833 447.375 716.629 446.5Z" fill="#3EE5B1"/>
        <path d="M710.868 404.218C713.68 403.567 715.17 399.695 714.195 395.569C713.221 391.443 710.151 388.627 707.339 389.278C704.527 389.929 703.038 393.801 704.012 397.927C704.987 402.052 708.056 404.869 710.868 404.218Z" fill="#FFCDB6"/>
        <path d="M705.669 327.846C696.388 327.846 689.81 322.535 689.716 322.452C688.869 321.753 688.761 320.512 689.459 319.673C690.165 318.841 691.42 318.719 692.267 319.415C692.777 319.831 704.866 329.477 718.821 319.343C718.868 319.297 733.663 307.344 750.184 319.343C751.071 319.989 751.266 321.226 750.615 322.108C749.96 322.979 748.715 323.18 747.829 322.531C733.794 312.333 721.405 322.348 721.278 322.452C715.71 326.501 710.344 327.846 705.669 327.846Z" fill="#FFCDB6"/>
        <path d="M705.669 342.426C696.388 342.426 689.81 337.115 689.716 337.033C688.869 336.334 688.761 335.093 689.459 334.254C690.165 333.422 691.42 333.304 692.267 333.996C692.777 334.412 704.866 344.058 718.821 333.924C718.868 333.877 733.663 321.929 750.184 333.924C751.071 334.569 751.266 335.807 750.615 336.689C749.96 337.564 748.715 337.757 747.829 337.112C733.794 326.917 721.405 336.925 721.278 337.033C715.71 341.078 710.344 342.426 705.669 342.426Z" fill="#3EE5B1"/>
        <path d="M705.669 357C696.388 357 689.81 351.689 689.716 351.607C688.869 350.907 688.761 349.667 689.459 348.827C690.165 347.996 691.42 347.877 692.267 348.569C692.777 348.985 704.866 358.632 718.821 348.498C718.868 348.447 733.663 336.499 750.184 348.498C751.071 349.143 751.266 350.38 750.615 351.262C749.96 352.137 748.715 352.335 747.829 351.686C733.794 341.49 721.405 351.503 721.278 351.607C715.71 355.652 710.344 357 705.669 357Z" fill="#FFCDB6"/>
        <path d="M709.316 549C708.743 548.595 708.561 548.065 708.67 547.37C709.127 544.419 709.439 541.454 709.61 538.474C709.798 535.161 709.827 531.848 709.689 528.528C709.573 525.756 709.341 522.998 708.913 520.262C707.77 512.97 705.637 506.036 701.088 500.022C701.015 499.929 700.943 499.836 700.878 499.739C700.471 499.145 700.486 498.568 700.914 498.138C701.346 497.705 701.933 497.662 702.532 498.052C703.918 498.958 705.256 499.926 706.537 500.975C712.443 505.817 716.978 511.705 720.297 518.521C722.728 523.51 724.346 528.761 725.358 534.197C726.022 537.768 726.439 541.368 726.562 544.999C726.591 545.837 726.624 546.676 726.667 547.514C726.7 548.148 726.501 548.663 725.927 549C720.388 549 714.852 549 709.316 549Z" fill="#FFCDB6"/>
        <path d="M731.264 549C730.981 548.696 730.872 548.345 730.887 547.929C731.064 542.02 731.971 536.25 734.311 530.759C736.92 524.638 740.888 519.595 746.464 515.831C746.562 515.767 746.66 515.699 746.762 515.641C747.139 515.427 747.487 515.484 747.781 515.788C748.068 516.086 748.06 516.426 747.832 516.752C747.273 517.554 746.686 518.338 746.196 519.191C744.473 522.196 743.431 525.43 742.797 528.807C742.089 532.564 741.879 536.354 741.991 540.161C742.064 542.596 742.274 545.024 742.633 547.438C742.713 547.986 742.873 548.577 742.292 548.996C738.617 549 734.942 549 731.264 549Z" fill="#FFCDB6"/>
        <path d="M696.027 549C695.839 548.731 695.791 548.452 695.842 548.115C696.23 545.372 696.437 542.61 696.336 539.838C696.205 536.196 695.693 532.618 694.213 529.237C693.702 528.069 693.071 526.97 692.309 525.942C692.171 525.756 692.011 525.566 692 525.319C691.993 525.086 692.106 524.903 692.312 524.792C692.574 524.653 692.809 524.738 693.034 524.889C694.739 526.035 696.296 527.353 697.649 528.893C701.429 533.191 703.33 538.284 704.099 543.843C704.302 545.311 704.382 546.79 704.411 548.269C704.415 548.534 704.331 548.767 704.211 548.993C701.487 549 698.755 549 696.027 549Z" fill="#FFCDB6"/>
        <path d="M729.098 533.356C728.909 532.489 728.721 531.622 728.525 530.756C726.921 523.65 724.295 516.949 720.301 510.806C719.927 510.233 719.931 509.825 720.286 509.241C724.48 502.339 729.871 496.562 736.709 492.143C738.396 491.05 740.163 490.091 741.966 489.199C742.644 488.862 743.243 488.959 743.624 489.446C744.008 489.94 743.957 490.542 743.417 491.075C738.607 495.853 735.599 501.666 733.451 507.97C731.783 512.866 730.734 517.901 730.081 523.023C729.718 525.888 729.428 528.757 729.363 531.644C729.352 532.206 729.279 532.765 729.236 533.327C729.196 533.334 729.149 533.345 729.098 533.356Z" fill="#3EE5B1"/>
        <path d="M722.411 649C721.548 649 720.848 648.32 720.848 647.481V598.33C720.848 597.492 721.548 596.811 722.411 596.811C723.274 596.811 723.975 597.492 723.975 598.33V647.485C723.979 648.323 723.278 649 722.411 649Z" fill="#FFCDB6"/>
        <path d="M722.072 610.525C728.193 610.525 733.155 605.706 733.155 599.762C733.155 593.818 728.193 589 722.072 589C715.952 589 710.99 593.818 710.99 599.762C710.99 605.706 715.952 610.525 722.072 610.525Z" fill="#3EE5B1"/>
        <path d="M722.5 631.755C731.613 631.755 739 624.581 739 615.732C739 606.882 731.613 599.708 722.5 599.708C713.387 599.708 706 606.882 706 615.732C706 624.581 713.387 631.755 722.5 631.755Z" fill="#3EE5B1"/>
        <path d="M849.5 716.5C1051.55 687.979 1328.5 705.333 1440 696V800H0V693.5C319.5 716.5 575 755.247 849.5 716.5Z" fill="#025949"/>
        <path fill-rule="evenodd" clip-rule="evenodd" d="M1436.73 492.456C1425.05 464.72 1398.97 453.217 1376.66 464.916L1359.86 425.031C1359.43 424.013 1358.35 423.695 1357.44 424.321L1352.62 427.628C1351.71 428.254 1351.32 429.587 1351.75 430.605L1368.51 470.399C1348.04 487.549 1340.89 522.163 1352.71 550.221C1358.73 564.534 1368.6 574.524 1379.8 579.234C1380.23 585.557 1381.65 591.873 1384.16 597.817C1394.01 621.221 1416.86 629.985 1435.17 617.391C1453.49 604.798 1460.35 575.617 1450.5 552.213C1447.99 546.269 1444.65 541.27 1440.76 537.325C1443.85 522.788 1442.76 506.769 1436.73 492.456Z" fill="#002922" fill-opacity="0.15"/>
        <rect x="1350.92" y="359.316" width="12.0614" height="71.2719" rx="2" fill="#FFCDB6"/>
        <circle cx="1357.5" cy="319.842" r="62.5" fill="#03A678"/>
        <circle cx="1357.5" cy="257.342" r="49.3421" fill="#03A678"/>
        <path d="M-13.0068 212L-9.92389 229.044L-26.2258 223.192L-13.0068 212ZM146.5 370L145.596 371.197L146.5 370ZM478.993 466L477.797 466.905L478.993 466ZM995 577L977.901 579.76L984.06 563.572L995 577ZM-16.0793 224.894C-17.4814 235.833 -12.3996 247.163 -2.55029 258.935C7.28217 270.687 21.6746 282.649 38.4056 294.79C55.1266 306.923 74.0929 319.173 93.0402 331.527C111.97 343.87 130.876 356.316 147.404 368.803L145.596 371.197C129.163 358.781 110.34 346.389 91.4016 334.04C72.4807 321.703 53.4397 309.406 36.6437 297.218C19.8577 285.037 5.22345 272.902 -4.8512 260.86C-14.9089 248.839 -20.6144 236.68 -19.0549 224.513L-16.0793 224.894ZM147.404 368.803C169.602 385.575 195.793 392.701 224.121 395.72C252.498 398.745 282.787 397.636 313.293 398.065C374.156 398.921 435.437 405.915 480.19 465.095L477.797 466.905C433.951 408.924 373.985 401.919 313.251 401.065C282.959 400.639 252.362 401.747 223.803 398.703C195.194 395.654 168.398 388.425 145.596 371.197L147.404 368.803ZM480.19 465.095C521.047 519.124 560.738 548.386 600.229 563.05C639.732 577.719 679.194 577.842 719.722 573.313C739.993 571.048 760.49 567.625 781.397 564.286C802.288 560.95 823.572 557.701 845.341 555.806C888.894 552.012 934.434 553.63 982.887 570.787L981.885 573.615C933.965 556.646 888.888 555.024 845.601 558.794C823.949 560.68 802.758 563.913 781.87 567.249C760.999 570.582 740.415 574.02 720.055 576.295C679.321 580.847 639.32 580.766 599.184 565.863C559.036 550.954 518.911 521.273 477.797 466.905L480.19 465.095Z" fill="#00FFF0"/>
        <path d="M412.124 533C412.124 533 419.948 566.347 388.653 564.957C357.355 563.567 412.124 545.043 412.124 533Z" fill="#025949"/>
        <path d="M368.124 504.999C368.124 504.999 375.948 471.652 344.653 473.042C313.355 474.432 368.124 492.956 368.124 504.999Z" fill="#03A678"/>
        <path d="M245.926 466.712C245.926 466.712 249.567 440.224 234.244 432.743C234.244 432.743 227.677 445.555 245.926 466.712Z" fill="#025949"/>
        <path d="M268.591 531.431C268.591 531.431 296.395 537.398 305.547 521.741C305.547 521.741 292.481 513.758 268.591 531.431Z" fill="#03A678"/>
        <rect x="571" y="677" width="306" height="72" rx="17" fill="#04D99D"/>
        <path d="M653.448 726.324C651.48 726.324 649.632 726.06 647.904 725.532C646.2 725.004 644.748 724.248 643.548 723.264L645.132 719.88C646.38 720.816 647.676 721.512 649.02 721.968C650.388 722.4 651.876 722.616 653.484 722.616C655.26 722.616 656.628 722.304 657.588 721.68C658.572 721.056 659.064 720.18 659.064 719.052C659.064 718.092 658.608 717.36 657.696 716.856C656.808 716.328 655.332 715.836 653.268 715.38C650.052 714.684 647.712 713.784 646.248 712.68C644.784 711.576 644.052 709.968 644.052 707.856C644.052 706.344 644.46 705 645.276 703.824C646.092 702.648 647.244 701.724 648.732 701.052C650.244 700.38 651.984 700.044 653.952 700.044C655.752 700.044 657.456 700.32 659.064 700.872C660.696 701.4 662.028 702.144 663.06 703.104L661.512 706.488C659.232 704.664 656.712 703.752 653.952 703.752C652.296 703.752 650.988 704.1 650.028 704.796C649.068 705.468 648.588 706.392 648.588 707.568C648.588 708.576 649.008 709.344 649.848 709.872C650.712 710.4 652.176 710.892 654.24 711.348C656.376 711.852 658.116 712.404 659.46 713.004C660.804 713.58 661.836 714.336 662.556 715.272C663.276 716.184 663.636 717.336 663.636 718.728C663.636 720.264 663.228 721.608 662.412 722.76C661.596 723.888 660.42 724.764 658.884 725.388C657.348 726.012 655.536 726.324 653.448 726.324ZM678.524 726.324C674.996 726.324 672.32 725.424 670.496 723.624C668.696 721.8 667.796 719.136 667.796 715.632V700.368H672.368V715.884C672.368 718.092 672.884 719.772 673.916 720.924C674.948 722.052 676.484 722.616 678.524 722.616C680.516 722.616 682.028 722.04 683.06 720.888C684.116 719.736 684.644 718.068 684.644 715.884V700.368H689.216V715.632C689.216 719.112 688.304 721.764 686.48 723.588C684.656 725.412 682.004 726.324 678.524 726.324ZM694.588 700.368H699.232V726H694.588V700.368ZM728.292 700.368L716.88 726H713.1L701.688 700.368H706.512L715.044 720.168L723.576 700.368H728.292ZM745.296 719.988H732.768L730.176 726H725.496L737.088 700.368H740.868L752.496 726H747.852L745.296 719.988ZM743.748 716.388L739.032 705.408L734.316 716.388H743.748ZM776.868 700.368V726H773.412L759.588 708.036V726H755.268V700.368H758.724L772.512 718.296V700.368H776.868ZM788.456 704.184H780.104V700.368H801.524V704.184H793.136V726H788.456V704.184Z" fill="white"/>
        <circle cx="237.5" cy="40.5" r="17.5" fill="#FFCDB6"/>
        <path d="M232 33L228 38L232 43" stroke="white" stroke-width="2" stroke-linecap="round" stroke-linejoin="round"/>
        <path d="M228.5 38H240.5C243.261 38 245.5 40.2386 245.5 43V43C245.5 45.7614 243.261 48 240.5 48H238" stroke="white" stroke-width="2" stroke-linecap="round"/>
    </g>
    <defs>
        <clipPath id="clip0">
            <rect width="1440" height="800" fill="white"/>
        </clipPath>
    </defs>
</svg>
