<svg width="1440" height="800" viewBox="0 0 1440 800" fill="none" xmlns="http://www.w3.org/2000/svg">
    <g clip-path="url(#clip0)">
        <rect width="1440" height="800" fill="white"/>
        <g opacity="0.3">
            <rect x="559" y="520" width="321" height="85" rx="17" fill="#FFCDB6"/>
            <path d="M631.096 575.324C628.576 575.324 626.368 574.784 624.472 573.704C622.6 572.624 621.16 571.1 620.152 569.132C619.144 567.14 618.64 564.812 618.64 562.148C618.64 559.508 619.144 557.204 620.152 555.236C621.16 553.244 622.6 551.72 624.472 550.664C626.368 549.584 628.576 549.044 631.096 549.044C632.824 549.044 634.444 549.32 635.956 549.872C637.492 550.4 638.764 551.144 639.772 552.104L638.26 555.488C637.108 554.552 635.956 553.88 634.804 553.472C633.676 553.04 632.464 552.824 631.168 552.824C628.696 552.824 626.776 553.628 625.408 555.236C624.064 556.844 623.392 559.148 623.392 562.148C623.392 565.172 624.064 567.5 625.408 569.132C626.752 570.74 628.672 571.544 631.168 571.544C632.464 571.544 633.676 571.34 634.804 570.932C635.956 570.5 637.108 569.816 638.26 568.88L639.772 572.264C638.764 573.224 637.492 573.98 635.956 574.532C634.444 575.06 632.824 575.324 631.096 575.324ZM648.361 549.368V552.68C648.361 553.952 648.145 555.104 647.713 556.136C647.281 557.144 646.549 558.164 645.517 559.196L643.681 557.756C644.761 556.604 645.409 555.488 645.625 554.408H643.321V549.368H648.361ZM667.541 566.144H655.013C655.109 568.088 655.589 569.528 656.453 570.464C657.341 571.376 658.649 571.832 660.377 571.832C662.369 571.832 664.217 571.184 665.921 569.888L667.217 572.984C666.353 573.68 665.285 574.244 664.013 574.676C662.765 575.084 661.493 575.288 660.197 575.288C657.221 575.288 654.881 574.448 653.177 572.768C651.473 571.088 650.621 568.784 650.621 565.856C650.621 564.008 650.993 562.364 651.737 560.924C652.481 559.484 653.525 558.368 654.869 557.576C656.213 556.76 657.737 556.352 659.441 556.352C661.937 556.352 663.905 557.168 665.345 558.8C666.809 560.408 667.541 562.628 667.541 565.46V566.144ZM659.549 559.592C658.349 559.592 657.365 559.952 656.597 560.672C655.853 561.368 655.373 562.388 655.157 563.732H663.617C663.473 562.364 663.053 561.332 662.357 560.636C661.685 559.94 660.749 559.592 659.549 559.592ZM678.011 575.288C674.723 575.288 672.107 574.52 670.163 572.984L671.423 569.816C673.367 571.256 675.587 571.976 678.083 571.976C679.163 571.976 679.991 571.796 680.567 571.436C681.167 571.076 681.467 570.572 681.467 569.924C681.467 569.372 681.263 568.94 680.855 568.628C680.447 568.292 679.751 568.004 678.767 567.764L675.743 567.08C672.431 566.36 670.775 564.668 670.775 562.004C670.775 560.9 671.087 559.928 671.711 559.088C672.335 558.224 673.211 557.552 674.339 557.072C675.467 556.592 676.775 556.352 678.263 556.352C679.559 556.352 680.807 556.556 682.007 556.964C683.207 557.348 684.263 557.912 685.175 558.656L683.843 561.716C682.019 560.372 680.147 559.7 678.227 559.7C677.195 559.7 676.391 559.892 675.815 560.276C675.239 560.66 674.951 561.188 674.951 561.86C674.951 562.388 675.119 562.808 675.455 563.12C675.815 563.432 676.415 563.696 677.255 563.912L680.351 564.596C682.151 565.004 683.459 565.64 684.275 566.504C685.115 567.344 685.535 568.448 685.535 569.816C685.535 571.496 684.863 572.828 683.519 573.812C682.175 574.796 680.339 575.288 678.011 575.288ZM694.935 560.204V568.34C694.935 570.476 695.931 571.544 697.923 571.544C698.475 571.544 699.075 571.448 699.723 571.256V574.82C698.931 575.108 697.971 575.252 696.843 575.252C694.779 575.252 693.195 574.676 692.091 573.524C690.987 572.372 690.435 570.716 690.435 568.556V560.204H686.943V556.82H690.435V552.392L694.935 550.88V556.82H699.759V560.204H694.935ZM723.098 556.352C724.658 556.352 726.038 556.76 727.238 557.576C728.462 558.368 729.41 559.496 730.082 560.96C730.778 562.4 731.126 564.056 731.126 565.928C731.126 567.8 730.79 569.444 730.118 570.86C729.446 572.276 728.498 573.368 727.274 574.136C726.074 574.904 724.682 575.288 723.098 575.288C721.778 575.288 720.602 575.012 719.57 574.46C718.538 573.884 717.746 573.092 717.194 572.084V582.776H712.73V561.968C712.73 560.048 712.634 558.332 712.442 556.82H716.654L717.014 559.952C717.494 558.824 718.274 557.948 719.354 557.324C720.434 556.676 721.682 556.352 723.098 556.352ZM721.874 571.76C723.386 571.76 724.55 571.256 725.366 570.248C726.182 569.24 726.59 567.8 726.59 565.928C726.59 564.032 726.182 562.556 725.366 561.5C724.55 560.42 723.398 559.88 721.91 559.88C720.374 559.88 719.198 560.396 718.382 561.428C717.566 562.46 717.158 563.936 717.158 565.856C717.158 567.752 717.566 569.216 718.382 570.248C719.198 571.256 720.362 571.76 721.874 571.76ZM752.442 556.82V575H748.014V572.084C747.462 573.092 746.67 573.884 745.638 574.46C744.606 575.012 743.43 575.288 742.11 575.288C740.526 575.288 739.122 574.904 737.898 574.136C736.674 573.368 735.726 572.276 735.054 570.86C734.382 569.444 734.046 567.8 734.046 565.928C734.046 564.056 734.382 562.4 735.054 560.96C735.75 559.496 736.71 558.368 737.934 557.576C739.158 556.76 740.55 556.352 742.11 556.352C743.43 556.352 744.606 556.64 745.638 557.216C746.67 557.768 747.462 558.548 748.014 559.556V556.82H752.442ZM743.334 571.76C744.822 571.76 745.974 571.244 746.79 570.212C747.606 569.18 748.014 567.728 748.014 565.856C748.014 563.936 747.606 562.46 746.79 561.428C745.974 560.396 744.81 559.88 743.298 559.88C741.81 559.88 740.646 560.42 739.806 561.5C738.99 562.556 738.582 564.032 738.582 565.928C738.582 567.8 738.99 569.24 739.806 570.248C740.646 571.256 741.822 571.76 743.334 571.76ZM767.135 556.388C767.831 556.388 768.431 556.484 768.935 556.676L768.899 560.78C768.131 560.468 767.339 560.312 766.523 560.312C764.987 560.312 763.811 560.756 762.995 561.644C762.203 562.532 761.807 563.708 761.807 565.172V575H757.343V561.968C757.343 560.048 757.247 558.332 757.055 556.82H761.267L761.627 560.024C762.083 558.848 762.803 557.948 763.787 557.324C764.771 556.7 765.887 556.388 767.135 556.388ZM778.817 560.204V568.34C778.817 570.476 779.813 571.544 781.805 571.544C782.357 571.544 782.957 571.448 783.605 571.256V574.82C782.813 575.108 781.853 575.252 780.725 575.252C778.661 575.252 777.077 574.676 775.973 573.524C774.869 572.372 774.317 570.716 774.317 568.556V560.204H770.825V556.82H774.317V552.392L778.817 550.88V556.82H783.641V560.204H778.817ZM786.734 556.82H791.198V575H786.734V556.82ZM791.45 548.576V553.004H786.446V548.576H791.45ZM805.244 549.332L810.824 549.368L809.42 567.296H806.684L805.244 549.332ZM810.572 569.96V575H805.532V569.96H810.572Z" fill="white"/>
        </g>
        <circle cx="133.5" cy="37.5" r="17.5" fill="#FFCDB6"/>
        <path d="M133.5 30V45" stroke="white" stroke-width="2" stroke-miterlimit="10" stroke-linecap="round"/>
        <path d="M141 37.5H126" stroke="white" stroke-width="2" stroke-miterlimit="10" stroke-linecap="round"/>
        <path d="M1997 -611C1997 -606.622 478 860 478 860H1160L1997 -611Z" fill="url(#paint0_linear)" fill-opacity="0.5"/>
        <path d="M1846 -493C1846 -488.925 724 876 724 876H1227.76L1846 -493Z" fill="url(#paint1_linear)" fill-opacity="0.5"/>
        <path d="M1094.79 636.065C1095.48 635.98 1095.96 636.749 1095.56 637.297C1094.42 638.836 1092 641.134 1087.26 641.917C1079.93 643.13 1075.68 636.867 1068.21 634.721C1067.75 634.592 1067.58 634.045 1067.93 633.73C1070.09 631.801 1076.07 626.817 1081.53 625.499C1087.87 623.967 1094 624.69 1096.35 630.868C1096.68 631.733 1096.22 632.684 1095.34 632.982C1093.05 633.771 1088.38 634.912 1083.31 633.56C1083.31 633.56 1085.35 637.197 1094.79 636.065Z" fill="#04D99D"/>
        <path d="M1148.92 612.911C1148.55 612.817 1148.46 612.327 1148.77 612.126C1149.66 611.563 1151.37 610.871 1153.95 611.417C1157.96 612.263 1158.88 616.326 1162.28 618.922C1162.49 619.08 1162.47 619.394 1162.23 619.485C1160.73 620.043 1156.67 621.403 1153.6 620.984C1150.04 620.501 1147.05 618.903 1147.08 615.264C1147.08 614.755 1147.51 614.359 1148.02 614.383C1149.35 614.436 1151.97 614.785 1154.3 616.493C1154.3 616.493 1153.99 614.221 1148.92 612.911Z" fill="#04D99D"/>
        <path d="M1113.27 604.715C1113.49 605.02 1113.25 605.449 1112.89 605.402C1111.86 605.265 1110.13 604.71 1108.52 602.665C1106.03 599.494 1107.9 595.837 1106.97 591.724C1106.91 591.472 1107.12 591.25 1107.36 591.334C1108.85 591.856 1112.78 593.395 1114.83 595.651C1117.22 598.264 1118.48 601.368 1116.15 604.099C1115.83 604.481 1115.26 604.512 1114.88 604.171C1113.91 603.288 1112.15 601.366 1111.47 598.603C1111.47 598.603 1110.27 600.52 1113.27 604.715Z" fill="#03A678"/>
        <path d="M1167.74 567.787C1166.99 568.426 1165.81 567.883 1165.86 566.913C1166.01 564.186 1167.12 559.535 1172.17 554.892C1179.99 547.698 1189.98 551.864 1200.6 548.581C1201.25 548.376 1201.87 548.9 1201.7 549.55C1200.63 553.548 1197.38 564.19 1191.87 570.048C1185.49 576.842 1177.59 580.777 1169.95 575.226C1168.88 574.448 1168.68 572.953 1169.5 571.906C1171.62 569.169 1176.31 564.148 1183.43 561.798C1183.43 561.798 1178.16 559.037 1167.74 567.787Z" fill="#025949"/>
        <rect x="567" y="526" width="306" height="72" rx="17" fill="#FFCDB6"/>
        <path d="M636.4 575.324C633.88 575.324 631.672 574.784 629.776 573.704C627.904 572.624 626.464 571.1 625.456 569.132C624.448 567.14 623.944 564.812 623.944 562.148C623.944 559.508 624.448 557.204 625.456 555.236C626.464 553.244 627.904 551.72 629.776 550.664C631.672 549.584 633.88 549.044 636.4 549.044C638.128 549.044 639.748 549.32 641.26 549.872C642.796 550.4 644.068 551.144 645.076 552.104L643.564 555.488C642.412 554.552 641.26 553.88 640.108 553.472C638.98 553.04 637.768 552.824 636.472 552.824C634 552.824 632.08 553.628 630.712 555.236C629.368 556.844 628.696 559.148 628.696 562.148C628.696 565.172 629.368 567.5 630.712 569.132C632.056 570.74 633.976 571.544 636.472 571.544C637.768 571.544 638.98 571.34 640.108 570.932C641.26 570.5 642.412 569.816 643.564 568.88L645.076 572.264C644.068 573.224 642.796 573.98 641.26 574.532C639.748 575.06 638.128 575.324 636.4 575.324ZM653.665 549.368V552.68C653.665 553.952 653.449 555.104 653.017 556.136C652.585 557.144 651.853 558.164 650.821 559.196L648.985 557.756C650.065 556.604 650.713 555.488 650.929 554.408H648.625V549.368H653.665ZM672.844 566.144H660.316C660.412 568.088 660.892 569.528 661.756 570.464C662.644 571.376 663.952 571.832 665.68 571.832C667.672 571.832 669.52 571.184 671.224 569.888L672.52 572.984C671.656 573.68 670.588 574.244 669.316 574.676C668.068 575.084 666.796 575.288 665.5 575.288C662.524 575.288 660.184 574.448 658.48 572.768C656.776 571.088 655.924 568.784 655.924 565.856C655.924 564.008 656.296 562.364 657.04 560.924C657.784 559.484 658.828 558.368 660.172 557.576C661.516 556.76 663.04 556.352 664.744 556.352C667.24 556.352 669.208 557.168 670.648 558.8C672.112 560.408 672.844 562.628 672.844 565.46V566.144ZM664.852 559.592C663.652 559.592 662.668 559.952 661.9 560.672C661.156 561.368 660.676 562.388 660.46 563.732H668.92C668.776 562.364 668.356 561.332 667.66 560.636C666.988 559.94 666.052 559.592 664.852 559.592ZM683.315 575.288C680.027 575.288 677.411 574.52 675.467 572.984L676.727 569.816C678.671 571.256 680.891 571.976 683.387 571.976C684.467 571.976 685.295 571.796 685.871 571.436C686.471 571.076 686.771 570.572 686.771 569.924C686.771 569.372 686.567 568.94 686.159 568.628C685.751 568.292 685.055 568.004 684.071 567.764L681.047 567.08C677.735 566.36 676.079 564.668 676.079 562.004C676.079 560.9 676.391 559.928 677.015 559.088C677.639 558.224 678.515 557.552 679.643 557.072C680.771 556.592 682.079 556.352 683.567 556.352C684.863 556.352 686.111 556.556 687.311 556.964C688.511 557.348 689.567 557.912 690.479 558.656L689.147 561.716C687.323 560.372 685.451 559.7 683.531 559.7C682.499 559.7 681.695 559.892 681.119 560.276C680.543 560.66 680.255 561.188 680.255 561.86C680.255 562.388 680.423 562.808 680.759 563.12C681.119 563.432 681.719 563.696 682.559 563.912L685.655 564.596C687.455 565.004 688.763 565.64 689.579 566.504C690.419 567.344 690.839 568.448 690.839 569.816C690.839 571.496 690.167 572.828 688.823 573.812C687.479 574.796 685.643 575.288 683.315 575.288ZM700.238 560.204V568.34C700.238 570.476 701.234 571.544 703.226 571.544C703.778 571.544 704.378 571.448 705.026 571.256V574.82C704.234 575.108 703.274 575.252 702.146 575.252C700.082 575.252 698.498 574.676 697.394 573.524C696.29 572.372 695.738 570.716 695.738 568.556V560.204H692.246V556.82H695.738V552.392L700.238 550.88V556.82H705.062V560.204H700.238ZM728.402 556.352C729.962 556.352 731.342 556.76 732.542 557.576C733.766 558.368 734.714 559.496 735.386 560.96C736.082 562.4 736.43 564.056 736.43 565.928C736.43 567.8 736.094 569.444 735.422 570.86C734.75 572.276 733.802 573.368 732.578 574.136C731.378 574.904 729.986 575.288 728.402 575.288C727.082 575.288 725.906 575.012 724.874 574.46C723.842 573.884 723.05 573.092 722.498 572.084V582.776H718.034V561.968C718.034 560.048 717.938 558.332 717.746 556.82H721.958L722.318 559.952C722.798 558.824 723.578 557.948 724.658 557.324C725.738 556.676 726.986 556.352 728.402 556.352ZM727.178 571.76C728.69 571.76 729.854 571.256 730.67 570.248C731.486 569.24 731.894 567.8 731.894 565.928C731.894 564.032 731.486 562.556 730.67 561.5C729.854 560.42 728.702 559.88 727.214 559.88C725.678 559.88 724.502 560.396 723.686 561.428C722.87 562.46 722.462 563.936 722.462 565.856C722.462 567.752 722.87 569.216 723.686 570.248C724.502 571.256 725.666 571.76 727.178 571.76ZM757.746 556.82V575H753.318V572.084C752.766 573.092 751.974 573.884 750.942 574.46C749.91 575.012 748.734 575.288 747.414 575.288C745.83 575.288 744.426 574.904 743.202 574.136C741.978 573.368 741.03 572.276 740.358 570.86C739.686 569.444 739.35 567.8 739.35 565.928C739.35 564.056 739.686 562.4 740.358 560.96C741.054 559.496 742.014 558.368 743.238 557.576C744.462 556.76 745.854 556.352 747.414 556.352C748.734 556.352 749.91 556.64 750.942 557.216C751.974 557.768 752.766 558.548 753.318 559.556V556.82H757.746ZM748.638 571.76C750.126 571.76 751.278 571.244 752.094 570.212C752.91 569.18 753.318 567.728 753.318 565.856C753.318 563.936 752.91 562.46 752.094 561.428C751.278 560.396 750.114 559.88 748.602 559.88C747.114 559.88 745.95 560.42 745.11 561.5C744.294 562.556 743.886 564.032 743.886 565.928C743.886 567.8 744.294 569.24 745.11 570.248C745.95 571.256 747.126 571.76 748.638 571.76ZM772.439 556.388C773.135 556.388 773.735 556.484 774.239 556.676L774.203 560.78C773.435 560.468 772.643 560.312 771.827 560.312C770.291 560.312 769.115 560.756 768.299 561.644C767.507 562.532 767.111 563.708 767.111 565.172V575H762.647V561.968C762.647 560.048 762.551 558.332 762.359 556.82H766.571L766.931 560.024C767.387 558.848 768.107 557.948 769.091 557.324C770.075 556.7 771.191 556.388 772.439 556.388ZM784.121 560.204V568.34C784.121 570.476 785.117 571.544 787.109 571.544C787.661 571.544 788.261 571.448 788.909 571.256V574.82C788.117 575.108 787.157 575.252 786.029 575.252C783.965 575.252 782.381 574.676 781.277 573.524C780.173 572.372 779.621 570.716 779.621 568.556V560.204H776.129V556.82H779.621V552.392L784.121 550.88V556.82H788.945V560.204H784.121ZM792.038 556.82H796.502V575H792.038V556.82ZM796.754 548.576V553.004H791.75V548.576H796.754ZM810.547 549.332L816.127 549.368L814.723 567.296H811.987L810.547 549.332ZM815.875 569.96V575H810.835V569.96H815.875Z" fill="white"/>
        <path d="M603.128 636.144C601.892 636.144 600.812 635.88 599.888 635.352C598.976 634.812 598.274 634.05 597.782 633.066C597.29 632.082 597.044 630.918 597.044 629.574C597.044 628.242 597.29 627.084 597.782 626.1C598.274 625.116 598.976 624.36 599.888 623.832C600.812 623.304 601.892 623.04 603.128 623.04C604.004 623.04 604.814 623.178 605.558 623.454C606.314 623.718 606.95 624.108 607.466 624.624L606.818 625.992C606.218 625.5 605.624 625.146 605.036 624.93C604.46 624.702 603.83 624.588 603.146 624.588C601.814 624.588 600.782 625.02 600.05 625.884C599.33 626.748 598.97 627.978 598.97 629.574C598.97 631.182 599.33 632.424 600.05 633.3C600.782 634.164 601.814 634.596 603.146 634.596C603.83 634.596 604.46 634.488 605.036 634.272C605.624 634.044 606.218 633.684 606.818 633.192L607.466 634.56C606.95 635.076 606.314 635.472 605.558 635.748C604.814 636.012 604.004 636.144 603.128 636.144ZM617.201 631.5H610.721C610.781 633.624 611.747 634.686 613.619 634.686C614.663 634.686 615.617 634.344 616.481 633.66L617.039 634.956C616.631 635.316 616.109 635.604 615.473 635.82C614.849 636.024 614.219 636.126 613.583 636.126C612.131 636.126 610.991 635.712 610.163 634.884C609.335 634.044 608.921 632.898 608.921 631.446C608.921 630.522 609.101 629.7 609.461 628.98C609.833 628.26 610.349 627.702 611.009 627.306C611.669 626.91 612.419 626.712 613.259 626.712C614.483 626.712 615.443 627.108 616.139 627.9C616.847 628.692 617.201 629.79 617.201 631.194V631.5ZM613.295 628.062C612.611 628.062 612.053 628.266 611.621 628.674C611.189 629.082 610.913 629.664 610.793 630.42H615.599C615.527 629.652 615.293 629.07 614.897 628.674C614.501 628.266 613.967 628.062 613.295 628.062ZM623.229 636.126C622.317 636.126 621.519 635.934 620.835 635.55C620.163 635.166 619.647 634.626 619.287 633.93C618.927 633.222 618.747 632.4 618.747 631.464C618.747 630.528 618.933 629.7 619.305 628.98C619.689 628.26 620.223 627.702 620.907 627.306C621.591 626.91 622.389 626.712 623.301 626.712C623.937 626.712 624.549 626.82 625.137 627.036C625.725 627.24 626.199 627.522 626.559 627.882L626.001 629.196C625.149 628.524 624.291 628.188 623.427 628.188C622.551 628.188 621.867 628.476 621.375 629.052C620.883 629.616 620.637 630.414 620.637 631.446C620.637 632.478 620.883 633.276 621.375 633.84C621.867 634.392 622.551 634.668 623.427 634.668C624.315 634.668 625.173 634.332 626.001 633.66L626.559 634.974C626.175 635.334 625.683 635.616 625.083 635.82C624.495 636.024 623.877 636.126 623.229 636.126ZM628.27 626.928H630.07V636H628.27V626.928ZM630.214 622.968V624.876H628.108V622.968H630.214ZM645.273 631.5H638.793C638.853 633.624 639.819 634.686 641.691 634.686C642.735 634.686 643.689 634.344 644.553 633.66L645.111 634.956C644.703 635.316 644.181 635.604 643.545 635.82C642.921 636.024 642.291 636.126 641.655 636.126C640.203 636.126 639.063 635.712 638.235 634.884C637.407 634.044 636.993 632.898 636.993 631.446C636.993 630.522 637.173 629.7 637.533 628.98C637.905 628.26 638.421 627.702 639.081 627.306C639.741 626.91 640.491 626.712 641.331 626.712C642.555 626.712 643.515 627.108 644.211 627.9C644.919 628.692 645.273 629.79 645.273 631.194V631.5ZM641.367 628.062C640.683 628.062 640.125 628.266 639.693 628.674C639.261 629.082 638.985 629.664 638.865 630.42H643.671C643.599 629.652 643.365 629.07 642.969 628.674C642.573 628.266 642.039 628.062 641.367 628.062ZM650.527 636.126C648.943 636.126 647.695 635.742 646.783 634.974L647.323 633.66C648.271 634.38 649.357 634.74 650.581 634.74C651.205 634.74 651.679 634.638 652.003 634.434C652.327 634.218 652.489 633.918 652.489 633.534C652.489 633.21 652.375 632.958 652.147 632.778C651.931 632.586 651.559 632.424 651.031 632.292L649.519 631.932C648.727 631.764 648.121 631.47 647.701 631.05C647.293 630.618 647.089 630.084 647.089 629.448C647.089 628.632 647.413 627.972 648.061 627.468C648.721 626.964 649.591 626.712 650.671 626.712C651.319 626.712 651.931 626.814 652.507 627.018C653.095 627.222 653.593 627.51 654.001 627.882L653.443 629.16C652.567 628.464 651.643 628.116 650.671 628.116C650.083 628.116 649.627 628.23 649.303 628.458C648.979 628.674 648.817 628.98 648.817 629.376C648.817 629.688 648.919 629.94 649.123 630.132C649.327 630.324 649.651 630.474 650.095 630.582L651.643 630.96C652.507 631.152 653.143 631.458 653.551 631.878C653.971 632.286 654.181 632.82 654.181 633.48C654.181 634.296 653.851 634.944 653.191 635.424C652.543 635.892 651.655 636.126 650.527 636.126ZM658.594 628.332V632.886C658.594 633.51 658.726 633.954 658.99 634.218C659.266 634.47 659.644 634.596 660.124 634.596C660.436 634.596 660.754 634.548 661.078 634.452V635.928C660.682 636.06 660.232 636.126 659.728 636.126C658.792 636.126 658.066 635.862 657.55 635.334C657.034 634.806 656.776 634.038 656.776 633.03V628.332H655.012V626.928H656.776V624.66L658.594 624.03V626.928H661.096V628.332H658.594ZM667.574 622.752H669.374V636H667.574V622.752ZM680.337 626.928V636H678.537V634.452C678.273 634.992 677.877 635.406 677.349 635.694C676.833 635.982 676.227 636.126 675.531 636.126C674.727 636.126 674.019 635.934 673.407 635.55C672.807 635.166 672.339 634.626 672.003 633.93C671.667 633.222 671.499 632.4 671.499 631.464C671.499 630.528 671.667 629.7 672.003 628.98C672.351 628.26 672.831 627.702 673.443 627.306C674.055 626.91 674.751 626.712 675.531 626.712C676.227 626.712 676.833 626.862 677.349 627.162C677.865 627.45 678.261 627.864 678.537 628.404V626.928H680.337ZM675.963 634.686C676.779 634.686 677.409 634.404 677.853 633.84C678.309 633.264 678.537 632.46 678.537 631.428C678.537 630.384 678.309 629.58 677.853 629.016C677.409 628.452 676.773 628.17 675.945 628.17C675.129 628.17 674.487 628.464 674.019 629.052C673.563 629.628 673.335 630.432 673.335 631.464C673.335 632.484 673.563 633.276 674.019 633.84C674.487 634.404 675.135 634.686 675.963 634.686ZM692.613 626.712C693.393 626.712 694.089 626.91 694.701 627.306C695.313 627.702 695.787 628.26 696.123 628.98C696.471 629.7 696.645 630.528 696.645 631.464C696.645 632.4 696.477 633.222 696.141 633.93C695.805 634.626 695.331 635.166 694.719 635.55C694.107 635.934 693.405 636.126 692.613 636.126C691.917 636.126 691.305 635.982 690.777 635.694C690.261 635.394 689.871 634.968 689.607 634.416V639.888H687.807V629.484C687.807 628.536 687.759 627.684 687.663 626.928H689.355L689.535 628.602C689.775 628.002 690.165 627.54 690.705 627.216C691.245 626.88 691.881 626.712 692.613 626.712ZM692.199 634.686C693.015 634.686 693.651 634.404 694.107 633.84C694.563 633.276 694.791 632.484 694.791 631.464C694.791 630.432 694.563 629.628 694.107 629.052C693.651 628.464 693.015 628.17 692.199 628.17C691.359 628.17 690.717 628.452 690.273 629.016C689.829 629.58 689.607 630.384 689.607 631.428C689.607 632.472 689.829 633.276 690.273 633.84C690.729 634.404 691.371 634.686 692.199 634.686ZM703.599 626.712C705.771 626.712 706.857 627.924 706.857 630.348V636H705.039V630.456C705.039 629.664 704.883 629.088 704.571 628.728C704.271 628.368 703.785 628.188 703.113 628.188C702.345 628.188 701.727 628.428 701.259 628.908C700.803 629.388 700.575 630.03 700.575 630.834V636H698.775V622.752H700.575V628.332C700.875 627.804 701.289 627.402 701.817 627.126C702.345 626.85 702.939 626.712 703.599 626.712ZM713.963 626.712C714.239 626.712 714.527 626.754 714.827 626.838L714.791 628.494C714.467 628.374 714.113 628.314 713.729 628.314C712.901 628.314 712.277 628.566 711.857 629.07C711.449 629.562 711.245 630.186 711.245 630.942V636H709.445V629.484C709.445 628.536 709.397 627.684 709.301 626.928H710.993L711.155 628.566C711.395 627.966 711.767 627.51 712.271 627.198C712.775 626.874 713.339 626.712 713.963 626.712ZM724.335 626.928V636H722.535V634.452C722.271 634.992 721.875 635.406 721.347 635.694C720.831 635.982 720.225 636.126 719.529 636.126C718.725 636.126 718.017 635.934 717.405 635.55C716.805 635.166 716.337 634.626 716.001 633.93C715.665 633.222 715.497 632.4 715.497 631.464C715.497 630.528 715.665 629.7 716.001 628.98C716.349 628.26 716.829 627.702 717.441 627.306C718.053 626.91 718.749 626.712 719.529 626.712C720.225 626.712 720.831 626.862 721.347 627.162C721.863 627.45 722.259 627.864 722.535 628.404V626.928H724.335ZM719.961 634.686C720.777 634.686 721.407 634.404 721.851 633.84C722.307 633.264 722.535 632.46 722.535 631.428C722.535 630.384 722.307 629.58 721.851 629.016C721.407 628.452 720.771 628.17 719.943 628.17C719.127 628.17 718.485 628.464 718.017 629.052C717.561 629.628 717.333 630.432 717.333 631.464C717.333 632.484 717.561 633.276 718.017 633.84C718.485 634.404 719.133 634.686 719.961 634.686ZM730.174 636.126C728.59 636.126 727.342 635.742 726.43 634.974L726.97 633.66C727.918 634.38 729.004 634.74 730.228 634.74C730.852 634.74 731.326 634.638 731.65 634.434C731.974 634.218 732.136 633.918 732.136 633.534C732.136 633.21 732.022 632.958 731.794 632.778C731.578 632.586 731.206 632.424 730.678 632.292L729.166 631.932C728.374 631.764 727.768 631.47 727.348 631.05C726.94 630.618 726.736 630.084 726.736 629.448C726.736 628.632 727.06 627.972 727.708 627.468C728.368 626.964 729.238 626.712 730.318 626.712C730.966 626.712 731.578 626.814 732.154 627.018C732.742 627.222 733.24 627.51 733.648 627.882L733.09 629.16C732.214 628.464 731.29 628.116 730.318 628.116C729.73 628.116 729.274 628.23 728.95 628.458C728.626 628.674 728.464 628.98 728.464 629.376C728.464 629.688 728.566 629.94 728.77 630.132C728.974 630.324 729.298 630.474 729.742 630.582L731.29 630.96C732.154 631.152 732.79 631.458 733.198 631.878C733.618 632.286 733.828 632.82 733.828 633.48C733.828 634.296 733.498 634.944 732.838 635.424C732.19 635.892 731.302 636.126 730.174 636.126ZM743.711 631.5H737.231C737.291 633.624 738.257 634.686 740.129 634.686C741.173 634.686 742.127 634.344 742.991 633.66L743.549 634.956C743.141 635.316 742.619 635.604 741.983 635.82C741.359 636.024 740.729 636.126 740.093 636.126C738.641 636.126 737.501 635.712 736.673 634.884C735.845 634.044 735.431 632.898 735.431 631.446C735.431 630.522 735.611 629.7 735.971 628.98C736.343 628.26 736.859 627.702 737.519 627.306C738.179 626.91 738.929 626.712 739.769 626.712C740.993 626.712 741.953 627.108 742.649 627.9C743.357 628.692 743.711 629.79 743.711 631.194V631.5ZM739.805 628.062C739.121 628.062 738.563 628.266 738.131 628.674C737.699 629.082 737.423 629.664 737.303 630.42H742.109C742.037 629.652 741.803 629.07 741.407 628.674C741.011 628.266 740.477 628.062 739.805 628.062ZM758.894 622.752V636H757.094V634.452C756.83 634.992 756.434 635.406 755.906 635.694C755.39 635.982 754.784 636.126 754.088 636.126C753.308 636.126 752.612 635.928 752 635.532C751.388 635.136 750.908 634.584 750.56 633.876C750.224 633.156 750.056 632.328 750.056 631.392C750.056 630.456 750.224 629.634 750.56 628.926C750.896 628.218 751.364 627.672 751.964 627.288C752.576 626.904 753.284 626.712 754.088 626.712C754.772 626.712 755.372 626.856 755.888 627.144C756.416 627.432 756.812 627.84 757.076 628.368V622.752H758.894ZM754.502 634.686C755.33 634.686 755.966 634.404 756.41 633.84C756.866 633.264 757.094 632.46 757.094 631.428C757.094 630.396 756.866 629.598 756.41 629.034C755.966 628.458 755.336 628.17 754.52 628.17C753.692 628.17 753.044 628.452 752.576 629.016C752.12 629.58 751.892 630.372 751.892 631.392C751.892 632.424 752.12 633.234 752.576 633.822C753.044 634.398 753.686 634.686 754.502 634.686ZM763.472 623.184V624.66C763.472 625.224 763.376 625.734 763.184 626.19C762.992 626.646 762.668 627.102 762.212 627.558L761.438 626.946C761.942 626.394 762.23 625.86 762.302 625.344H761.312V623.184H763.472ZM773.536 626.928V636H771.736V634.452C771.472 634.992 771.076 635.406 770.548 635.694C770.032 635.982 769.426 636.126 768.73 636.126C767.926 636.126 767.218 635.934 766.606 635.55C766.006 635.166 765.538 634.626 765.202 633.93C764.866 633.222 764.698 632.4 764.698 631.464C764.698 630.528 764.866 629.7 765.202 628.98C765.55 628.26 766.03 627.702 766.642 627.306C767.254 626.91 767.95 626.712 768.73 626.712C769.426 626.712 770.032 626.862 770.548 627.162C771.064 627.45 771.46 627.864 771.736 628.404V626.928H773.536ZM769.162 634.686C769.978 634.686 770.608 634.404 771.052 633.84C771.508 633.264 771.736 632.46 771.736 631.428C771.736 630.384 771.508 629.58 771.052 629.016C770.608 628.452 769.972 628.17 769.144 628.17C768.328 628.17 767.686 628.464 767.218 629.052C766.762 629.628 766.534 630.432 766.534 631.464C766.534 632.484 766.762 633.276 767.218 633.84C767.686 634.404 768.334 634.686 769.162 634.686ZM780.149 636.126C779.237 636.126 778.439 635.934 777.755 635.55C777.083 635.166 776.567 634.626 776.207 633.93C775.847 633.222 775.667 632.4 775.667 631.464C775.667 630.528 775.853 629.7 776.225 628.98C776.609 628.26 777.143 627.702 777.827 627.306C778.511 626.91 779.309 626.712 780.221 626.712C780.857 626.712 781.469 626.82 782.057 627.036C782.645 627.24 783.119 627.522 783.479 627.882L782.921 629.196C782.069 628.524 781.211 628.188 780.347 628.188C779.471 628.188 778.787 628.476 778.295 629.052C777.803 629.616 777.557 630.414 777.557 631.446C777.557 632.478 777.803 633.276 778.295 633.84C778.787 634.392 779.471 634.668 780.347 634.668C781.235 634.668 782.093 634.332 782.921 633.66L783.479 634.974C783.095 635.334 782.603 635.616 782.003 635.82C781.415 636.024 780.797 636.126 780.149 636.126ZM789.131 636.126C788.219 636.126 787.421 635.934 786.737 635.55C786.065 635.166 785.549 634.626 785.189 633.93C784.829 633.222 784.649 632.4 784.649 631.464C784.649 630.528 784.835 629.7 785.207 628.98C785.591 628.26 786.125 627.702 786.809 627.306C787.493 626.91 788.291 626.712 789.203 626.712C789.839 626.712 790.451 626.82 791.039 627.036C791.627 627.24 792.101 627.522 792.461 627.882L791.903 629.196C791.051 628.524 790.193 628.188 789.329 628.188C788.453 628.188 787.769 628.476 787.277 629.052C786.785 629.616 786.539 630.414 786.539 631.446C786.539 632.478 786.785 633.276 787.277 633.84C787.769 634.392 788.453 634.668 789.329 634.668C790.217 634.668 791.075 634.332 791.903 633.66L792.461 634.974C792.077 635.334 791.585 635.616 790.985 635.82C790.397 636.024 789.779 636.126 789.131 636.126ZM798.69 626.712C798.966 626.712 799.254 626.754 799.554 626.838L799.518 628.494C799.194 628.374 798.84 628.314 798.456 628.314C797.628 628.314 797.004 628.566 796.584 629.07C796.176 629.562 795.972 630.186 795.972 630.942V636H794.172V629.484C794.172 628.536 794.124 627.684 794.028 626.928H795.72L795.882 628.566C796.122 627.966 796.494 627.51 796.998 627.198C797.502 626.874 798.066 626.712 798.69 626.712ZM804.67 636.126C803.782 636.126 803.002 635.934 802.33 635.55C801.658 635.166 801.136 634.62 800.764 633.912C800.404 633.204 800.224 632.376 800.224 631.428C800.224 630.48 800.404 629.652 800.764 628.944C801.136 628.224 801.658 627.672 802.33 627.288C803.002 626.904 803.782 626.712 804.67 626.712C805.546 626.712 806.32 626.904 806.992 627.288C807.664 627.672 808.18 628.224 808.54 628.944C808.912 629.652 809.098 630.48 809.098 631.428C809.098 632.376 808.912 633.204 808.54 633.912C808.18 634.62 807.664 635.166 806.992 635.55C806.32 635.934 805.546 636.126 804.67 636.126ZM804.652 634.686C805.492 634.686 806.134 634.41 806.578 633.858C807.022 633.306 807.244 632.496 807.244 631.428C807.244 630.384 807.016 629.58 806.56 629.016C806.116 628.452 805.486 628.17 804.67 628.17C803.842 628.17 803.2 628.452 802.744 629.016C802.288 629.58 802.06 630.384 802.06 631.428C802.06 632.496 802.282 633.306 802.726 633.858C803.182 634.41 803.824 634.686 804.652 634.686ZM815.165 636.126C814.253 636.126 813.455 635.934 812.771 635.55C812.099 635.166 811.583 634.626 811.223 633.93C810.863 633.222 810.683 632.4 810.683 631.464C810.683 630.528 810.869 629.7 811.241 628.98C811.625 628.26 812.159 627.702 812.843 627.306C813.527 626.91 814.325 626.712 815.237 626.712C815.873 626.712 816.485 626.82 817.073 627.036C817.661 627.24 818.135 627.522 818.495 627.882L817.937 629.196C817.085 628.524 816.227 628.188 815.363 628.188C814.487 628.188 813.803 628.476 813.311 629.052C812.819 629.616 812.573 630.414 812.573 631.446C812.573 632.478 812.819 633.276 813.311 633.84C813.803 634.392 814.487 634.668 815.363 634.668C816.251 634.668 817.109 634.332 817.937 633.66L818.495 634.974C818.111 635.334 817.619 635.616 817.019 635.82C816.431 636.024 815.813 636.126 815.165 636.126ZM825.029 626.712C827.201 626.712 828.287 627.924 828.287 630.348V636H826.469V630.456C826.469 629.664 826.313 629.088 826.001 628.728C825.701 628.368 825.215 628.188 824.543 628.188C823.775 628.188 823.157 628.428 822.689 628.908C822.233 629.388 822.005 630.03 822.005 630.834V636H820.205V622.752H822.005V628.332C822.305 627.804 822.719 627.402 823.247 627.126C823.775 626.85 824.369 626.712 825.029 626.712ZM838.615 631.5H832.135C832.195 633.624 833.161 634.686 835.033 634.686C836.077 634.686 837.031 634.344 837.895 633.66L838.453 634.956C838.045 635.316 837.523 635.604 836.887 635.82C836.263 636.024 835.633 636.126 834.997 636.126C833.545 636.126 832.405 635.712 831.577 634.884C830.749 634.044 830.335 632.898 830.335 631.446C830.335 630.522 830.515 629.7 830.875 628.98C831.247 628.26 831.763 627.702 832.423 627.306C833.083 626.91 833.833 626.712 834.673 626.712C835.897 626.712 836.857 627.108 837.553 627.9C838.261 628.692 838.615 629.79 838.615 631.194V631.5ZM834.709 628.062C834.025 628.062 833.467 628.266 833.035 628.674C832.603 629.082 832.327 629.664 832.207 630.42H837.013C836.941 629.652 836.707 629.07 836.311 628.674C835.915 628.266 835.381 628.062 834.709 628.062Z" fill="#025949"/>
        <circle cx="41.5" cy="553.5" r="153.5" fill="#FFCDB6"/>
        <circle cx="210" cy="845" r="299" fill="#FDECE0"/>
        <path fill-rule="evenodd" clip-rule="evenodd" d="M261.33 674.358C253.866 656.637 237.205 649.288 222.949 656.762L212.497 631.946C212.068 630.928 210.982 630.61 210.072 631.236L208.188 632.531C207.278 633.157 206.888 634.489 207.316 635.507L217.744 660.266C204.664 671.222 200.095 693.337 207.645 711.263C211.496 720.408 217.797 726.79 224.953 729.799C225.23 733.839 226.14 737.874 227.74 741.672C234.037 756.624 248.63 762.223 260.334 754.177C272.037 746.132 276.42 727.488 270.122 712.536C268.523 708.738 266.388 705.544 263.902 703.024C265.879 693.736 265.181 683.502 261.33 674.358Z" fill="#025949" fill-opacity="0.05"/>
        <path fill-rule="evenodd" clip-rule="evenodd" d="M401.734 663.456C390.052 635.72 363.973 624.217 341.659 635.916L324.86 596.031C324.431 595.013 323.346 594.695 322.436 595.321L317.624 598.628C316.714 599.254 316.324 600.587 316.752 601.605L333.513 641.399C313.039 658.549 305.888 693.163 317.705 721.221C323.734 735.534 333.596 745.524 344.796 750.234C345.229 756.557 346.654 762.873 349.158 768.817C359.015 792.221 381.856 800.985 400.174 788.391C418.493 775.798 425.353 746.617 415.496 723.213C412.992 717.269 409.651 712.27 405.76 708.325C408.854 693.788 407.762 677.769 401.734 663.456Z" fill="#025949" fill-opacity="0.05"/>
        <rect x="205.911" y="594.054" width="7.09852" height="41.9458" rx="2" fill="#FFCDB6"/>
        <circle cx="209.783" cy="570.823" r="36.7833" fill="#03A678"/>
        <circle cx="209.783" cy="534.039" r="29.0394" fill="#03A678"/>
        <rect x="316" y="538" width="11" height="65" rx="2" fill="#FFCDB6"/>
        <circle cx="322" cy="502" r="57" fill="#025949"/>
        <circle cx="322" cy="445" r="45" fill="#025949"/>
        <path d="M572.985 244.65C568.54 242.003 556.02 234.796 547.528 232.212C544.544 231.306 541.97 234.473 543.412 237.247C549.457 248.919 560.756 261.294 567.844 264.271C574.597 267.102 574.844 252.902 574.711 247.583C574.679 246.373 574.028 245.271 572.985 244.65Z" fill="#45396D"/>
        <path d="M649.215 328.839C649.215 328.839 662.31 333.076 655.861 320.067C649.411 307.058 609.564 257.963 570.677 244.112C563.867 243.257 558.018 247.893 562.849 257.032C567.68 266.171 599.295 301.947 618.106 313.898C636.917 325.849 649.215 328.839 649.215 328.839Z" fill="#FDECE0"/>
        <path d="M724.649 470.122C741.414 470.122 755.005 467.164 755.005 463.516C755.005 459.868 741.414 456.91 724.649 456.91C707.883 456.91 694.292 459.868 694.292 463.516C694.292 467.164 707.883 470.122 724.649 470.122Z" stroke="#3EE5B1" stroke-width="2" stroke-miterlimit="10"/>
        <path d="M724.649 466.93C726.425 466.828 728.164 465.929 729.252 464.257L745.255 439.639H704.042L720.046 464.257C721.127 465.929 722.866 466.828 724.649 466.93Z" fill="#FDECE0"/>
        <path d="M724.649 454.953C725.142 454.947 725.648 454.928 726.16 454.903C743.308 454.06 758.464 415.446 757.762 408.169C757.067 400.892 747.911 394.021 747.911 394.021H701.374C701.374 394.021 692.218 400.892 691.522 408.169C690.827 415.446 705.977 454.06 723.125 454.903C723.65 454.928 724.155 454.947 724.649 454.953Z" fill="#FFCDB6"/>
        <path d="M724.649 484.232C738.181 484.232 749.15 482.417 749.15 480.179C749.15 477.94 738.181 476.125 724.649 476.125C711.117 476.125 700.147 477.94 700.147 480.179C700.147 482.417 711.117 484.232 724.649 484.232Z" stroke="#3EE5B1" stroke-width="2" stroke-miterlimit="10"/>
        <path d="M724.649 496.367C731.877 496.367 737.737 494.994 737.737 493.301C737.737 491.608 731.877 490.236 724.649 490.236C717.42 490.236 711.56 491.608 711.56 493.301C711.56 494.994 717.42 496.367 724.649 496.367Z" stroke="#3EE5B1" stroke-width="2" stroke-miterlimit="10"/>
        <path d="M735.354 313.689H715.619V337.712H735.354V313.689Z" fill="#45396D"/>
        <path d="M724.649 409.772C740.856 409.772 753.994 391.741 753.994 369.498C753.994 347.256 740.856 329.225 724.649 329.225C708.442 329.225 695.304 347.256 695.304 369.498C695.304 391.741 708.442 409.772 724.649 409.772Z" fill="#45396D"/>
        <path d="M815.776 415.567C815.194 420.716 813.361 435.06 810.281 443.395C809.2 446.327 805.122 446.46 803.788 443.636C798.154 431.761 795.138 415.263 797.06 407.808C798.887 400.709 810.332 409.094 814.486 412.413C815.428 413.173 815.915 414.363 815.776 415.567Z" fill="#45396D"/>
        <path d="M787.967 337.712C794.505 337.712 799.804 329.341 799.804 319.016C799.804 308.69 794.505 300.32 787.967 300.32C781.43 300.32 776.131 308.69 776.131 319.016C776.131 329.341 781.43 337.712 787.967 337.712Z" fill="#45396D"/>
        <path d="M727.975 320.7L727.987 353.228V353.234C728.145 353.234 730.491 353.082 757.996 350.41C763.87 349.84 768.606 347.579 772.425 344.292C772.425 344.285 772.425 344.285 772.425 344.285C788.865 330.112 788.227 296.723 788.214 296.14C771.92 311.143 750.933 320.32 727.975 320.7Z" fill="#FFCDB6"/>
        <path d="M727.987 353.234C727.987 353.393 728 357.902 729.34 367.351C758.369 375.407 760.329 387.592 761.701 386.997C763.074 386.408 779.159 378.948 775.631 370.303C772.147 361.765 772.419 344.729 772.425 344.292C768.606 347.579 763.87 349.84 757.996 350.41C730.491 353.082 728.145 353.234 727.987 353.234Z" fill="#FDECE0"/>
        <path d="M794.891 303.854C794.891 303.854 799.437 290.845 805.887 303.854C812.336 316.862 827.303 378.333 814.815 417.733C811.381 423.686 804.16 425.548 799.81 416.168C795.46 406.789 786.115 359.935 787.974 337.705C789.833 315.475 794.891 303.854 794.891 303.854Z" fill="#FDECE0"/>
        <path d="M724.649 113.583C725.148 113.577 725.654 113.57 726.16 113.57C778.868 113.57 821.599 159.943 821.599 217.145C821.599 248.805 808.511 277.14 787.885 296.133C787.885 296.133 787.885 296.133 787.885 296.14C771.591 311.143 750.605 320.32 727.646 320.7C727.153 320.707 726.653 320.713 726.16 320.713C725.654 320.713 725.154 320.707 724.649 320.7C724.149 320.707 723.643 320.713 723.137 320.713C722.644 320.713 722.145 320.707 721.652 320.7C698.693 320.32 677.707 311.143 661.412 296.14C661.412 296.133 661.412 296.133 661.412 296.133C640.787 277.14 627.698 248.805 627.698 217.145C627.698 159.943 670.429 113.57 723.137 113.57C723.643 113.57 724.143 113.577 724.649 113.583Z" fill="#FDECE0"/>
        <path d="M724.08 209.906C688.766 210.324 664.865 205.979 655.348 206.22C641.868 206.556 644.561 238.292 662.765 271.035C677.416 297.394 698.617 307.128 724.08 305.874H724.649C750.118 307.128 771.313 297.394 785.963 271.035C804.161 238.292 806.861 206.556 793.38 206.22C783.864 205.979 759.963 210.33 724.649 209.906H724.08Z" fill="#FFCDB6"/>
        <path d="M592.858 151.253L579.32 124.533C579.32 124.533 575.988 118.048 581.477 116.085L629.475 197.182L627.97 209.019L622.867 208.943L592.858 151.253Z" fill="#45396D"/>
        <path d="M592.858 151.253C593.25 152.039 620.091 232.06 620.091 232.06L625.295 207.569L592.858 151.253Z" fill="#FFCDB6"/>
        <path d="M632.029 256.709C632.029 256.709 620.211 247.063 620.085 230.147C619.959 213.231 625.282 207.563 625.282 207.563L632.029 256.709Z" fill="#FFCDB6"/>
        <path d="M639.901 267.735C639.901 267.735 634.293 269.635 631.131 252.586C627.97 235.537 624.656 206.936 625.238 203.224C625.82 199.513 624.928 196.258 629.114 194.833C633.294 193.401 639.901 267.735 639.901 267.735Z" fill="#45396D"/>
        <path d="M856.458 151.31L869.996 124.59C869.996 124.59 873.328 118.105 867.84 116.142L819.842 197.239L821.347 209.076L826.449 209L856.458 151.31Z" fill="#45396D"/>
        <path d="M856.458 151.31C856.066 152.096 829.225 232.117 829.225 232.117L824.021 207.626L856.458 151.31Z" fill="#FFCDB6"/>
        <path d="M817.287 256.772C817.287 256.772 829.105 247.127 829.231 230.21C829.358 213.294 824.034 207.626 824.034 207.626L817.287 256.772Z" fill="#FFCDB6"/>
        <path d="M809.415 267.792C809.415 267.792 815.024 269.692 818.185 252.643C821.347 235.594 824.66 206.993 824.078 203.281C823.496 199.57 824.388 196.315 820.202 194.89C816.023 193.458 809.415 267.792 809.415 267.792Z" fill="#45396D"/>
        <path d="M721.639 353.235C721.639 353.228 721.639 353.228 721.639 353.228C721.639 353.228 721.659 353.235 721.639 353.235Z" fill="#03A678"/>
        <path d="M661.659 337.712C668.196 337.712 673.495 329.341 673.495 319.016C673.495 308.69 668.196 300.32 661.659 300.32C655.122 300.32 649.822 308.69 649.822 319.016C649.822 329.341 655.122 337.712 661.659 337.712Z" fill="#45396D"/>
        <path d="M721.652 320.7L721.639 353.228V353.234C721.481 353.234 719.135 353.082 691.63 350.41C685.756 349.84 681.02 347.579 677.201 344.292C677.201 344.285 677.201 344.285 677.201 344.285C660.761 330.112 661.4 296.723 661.412 296.14C677.707 311.143 698.693 320.32 721.652 320.7Z" fill="#FFCDB6"/>
        <path d="M721.639 353.234C721.639 353.393 721.626 357.902 720.286 367.351C691.257 375.407 689.297 387.592 687.925 386.997C686.552 386.408 670.467 378.948 673.995 370.303C677.479 361.765 677.207 344.729 677.201 344.292C681.02 347.579 685.756 349.84 691.63 350.41C719.135 353.082 721.481 353.234 721.639 353.234Z" fill="#FDECE0"/>
        <path d="M747.981 335.869C747.968 337.243 747.121 338.617 745.255 338.617C743.39 338.617 742.524 337.275 742.524 335.875C742.524 334.475 743.422 333.069 745.255 333.069C747.083 333.076 747.993 334.482 747.981 335.869ZM743.51 335.894C743.535 336.768 744.003 337.699 745.255 337.699C746.507 337.699 746.975 336.755 746.994 335.881C747.007 334.982 746.507 333.981 745.255 333.981C744.003 333.988 743.491 334.995 743.51 335.894Z" fill="#FDECE0"/>
        <path d="M751.129 335.375L752.539 333.177H753.747V333.221L751.629 336.299V338.497H750.63V336.299L748.588 333.221V333.177H749.776L751.129 335.375Z" fill="#FDECE0"/>
        <path d="M758.527 337.496H755.752L755.296 338.497H754.209L756.593 333.177H757.686L760.07 338.497H758.976L758.527 337.496ZM757.143 334.298L756.156 336.559H758.129L757.143 334.298Z" fill="#FDECE0"/>
        <path d="M759.658 284.124C774.464 283.45 785.773 267.61 784.917 248.744C784.061 229.879 771.364 215.131 756.559 215.805C741.753 216.479 730.445 232.319 731.3 251.185C732.156 270.051 744.853 284.798 759.658 284.124Z" fill="white"/>
        <path d="M694.083 246.74C674.469 246.74 668.083 257.374 668.083 257.374C668.083 257.374 672.724 233.675 694.083 233.675C715.442 233.675 720.083 257.374 720.083 257.374C720.083 257.374 713.697 246.74 694.083 246.74Z" fill="white"/>
        <path d="M743.17 66.5954C742.976 65.9275 742.136 65.7994 741.669 66.3282C734.005 74.9442 722.905 76.6084 719.824 87.2002C717.833 94.0351 719.913 99.395 721.242 101.894C721.287 101.972 721.331 102.039 721.381 102.089C719.012 112.085 719.507 116.933 720.086 119.031C720.302 119.811 721.164 120.211 721.91 119.894C722.544 119.621 722.866 118.914 722.66 118.252C721.96 116.004 720.002 110.788 722.816 101.026C725.063 94.4247 727.705 90.9961 729.801 89.2095C731.898 87.5453 733.527 87.2837 733.527 87.2837C728.466 93.1946 726.998 100.174 726.587 103.742C726.42 105.111 727.399 106.336 728.761 106.453C738.527 107.276 743.421 99.5397 745.445 90.0777C747.191 81.9182 744.361 70.7252 743.17 66.5954Z" fill="#04D99D"/>
        <circle cx="177.5" cy="37.5" r="17.5" fill="#FFCDB6"/>
        <path d="M186.584 38.4397L188.803 36.2209C189.066 35.9577 189.066 35.5314 188.803 35.2681C188.539 35.0049 188.113 35.0049 187.85 35.2681L185.631 37.4869L183.413 35.2681C183.149 35.0049 182.723 35.0049 182.46 35.2681C182.197 35.5314 182.197 35.9577 182.46 36.2209L184.678 38.4397L182.46 40.6584C182.197 40.9216 182.197 41.348 182.46 41.6112C182.723 41.8745 183.149 41.8745 183.413 41.6112L185.631 39.3925L187.85 41.6112C188.113 41.8745 188.539 41.8745 188.803 41.6112C189.066 41.348 189.066 40.9216 188.803 40.6584L186.584 38.4397Z" fill="white"/>
        <path d="M179.659 26.194C178.941 25.8576 178.117 25.964 177.508 26.4717L171.82 31.2115H168.021C166.907 31.2115 166 32.1185 166 33.233V41.7674C166 42.882 166.907 43.7889 168.021 43.7889H171.82L177.508 48.5287C178.117 49.0368 178.942 49.1424 179.659 48.8064C180.377 48.4699 180.823 47.7686 180.823 46.9758V28.0247C180.823 27.2318 180.377 26.5301 179.659 26.194ZM171.39 42.4498H168.021C167.65 42.4498 167.348 42.1385 167.348 41.767V33.233C167.348 32.8615 167.65 32.5592 168.021 32.5592H171.39V42.4498ZM179.476 46.9758C179.476 47.3733 179.179 47.5431 179.088 47.5858C178.996 47.6285 178.676 47.748 178.371 47.4933L172.738 42.7993V32.2007L178.371 27.5067C178.676 27.252 178.997 27.3715 179.088 27.4142C179.179 27.4568 179.476 27.6266 179.476 28.0242V46.9758Z" fill="white"/>
        <path d="M21.7422 78.2559C20.7938 78.2559 19.9261 78.1152 19.1391 77.8338C18.3319 77.5523 17.7063 77.1704 17.2624 76.7482C17.0606 76.5271 16.9799 76.2859 17.0202 76.0045C17.0606 75.723 17.1817 75.5019 17.4238 75.3411C17.6861 75.12 17.9485 75.0396 18.2108 75.0798C18.4731 75.12 18.6951 75.2205 18.8969 75.4215C19.1189 75.6828 19.4821 75.9241 19.9866 76.1251C20.4911 76.3462 21.0561 76.4668 21.6615 76.4668C22.4485 76.4668 23.0337 76.3462 23.4373 76.0849C23.8408 75.8235 24.0628 75.5019 24.0628 75.0999C24.083 74.6978 23.8812 74.3561 23.4978 74.0546C23.0942 73.753 22.3678 73.5118 21.3184 73.3309C19.9664 73.0696 18.9776 72.6675 18.3722 72.1248C17.7669 71.582 17.444 70.9387 17.444 70.1548C17.444 69.4713 17.6458 68.9084 18.0494 68.4662C18.453 68.0239 18.9776 67.6822 19.6032 67.4611C20.2287 67.24 20.8947 67.1193 21.5808 67.1193C22.4687 67.1193 23.2556 67.2601 23.9417 67.5415C24.6278 67.8229 25.1727 68.2049 25.5763 68.7074C25.7579 68.9285 25.8588 69.1496 25.8386 69.3708C25.8184 69.612 25.7175 69.7929 25.4956 69.9537C25.2736 70.0944 25.0314 70.1548 24.7287 70.0944C24.4261 70.0341 24.1839 69.9135 23.9821 69.7326C23.6391 69.411 23.2758 69.1899 22.8924 69.0692C22.509 68.9486 22.0449 68.8883 21.5404 68.8883C20.9552 68.8883 20.4507 68.9888 20.0471 69.1899C19.6435 69.3909 19.4216 69.6924 19.4216 70.0743C19.4216 70.3156 19.4821 70.5367 19.6234 70.7377C19.7444 70.9387 20.0068 71.0996 20.3902 71.2604C20.7736 71.4212 21.3184 71.5619 22.0449 71.7227C23.0539 71.9237 23.861 72.1851 24.4462 72.4866C25.0314 72.7881 25.4552 73.15 25.7175 73.5721C25.9799 73.9742 26.1009 74.4566 26.1009 74.9994C26.1009 75.6225 25.9395 76.1653 25.5965 76.6678C25.2736 77.1704 24.7893 77.5523 24.1435 77.8539C23.4978 78.1152 22.6906 78.2559 21.7422 78.2559Z" fill="#45396D"/>
        <path d="M33.87 78.2559C32.7601 78.2559 31.7512 78.0147 30.8835 77.5322C30.0158 77.0498 29.3297 76.4065 28.8454 75.5622C28.361 74.7179 28.1189 73.753 28.1189 72.6675C28.1189 71.5619 28.3409 70.597 28.805 69.7728C29.2691 68.9486 29.9149 68.2853 30.7422 67.8028C31.5696 67.3204 32.4978 67.0992 33.5673 67.0992C34.6167 67.0992 35.5247 67.3405 36.2714 67.7827C37.018 68.2451 37.6032 68.8883 37.9866 69.6924C38.3902 70.4965 38.5718 71.4413 38.5718 72.4866C38.5718 72.7479 38.4911 72.949 38.3095 73.1299C38.1279 73.2907 37.9059 73.3711 37.6436 73.3711H29.5315V71.7629H37.6032L36.7758 72.3459C36.7557 71.6825 36.6346 71.0795 36.3723 70.5568C36.1099 70.0341 35.7467 69.612 35.2826 69.3105C34.8184 69.0089 34.2332 68.8481 33.5673 68.8481C32.8005 68.8481 32.1548 69.0089 31.6099 69.3507C31.0651 69.6924 30.6413 70.1548 30.3588 70.7377C30.0763 71.3207 29.935 71.9841 29.935 72.7077C29.935 73.4515 30.0965 74.0948 30.4395 74.6777C30.7826 75.2607 31.2467 75.7029 31.8319 76.0447C32.4171 76.3864 33.1032 76.5472 33.87 76.5472C34.2938 76.5472 34.7175 76.4668 35.1413 76.3261C35.5853 76.1653 35.9283 75.9844 36.1906 75.7834C36.3924 75.6426 36.6144 75.5622 36.8566 75.5421C37.0987 75.5421 37.3005 75.6024 37.4619 75.7633C37.6839 75.9643 37.805 76.1854 37.8252 76.4266C37.8454 76.6678 37.7243 76.8689 37.5023 77.0498C37.0382 77.4116 36.4732 77.7132 35.8072 77.9343C35.1413 78.1353 34.4956 78.2559 33.87 78.2559Z" fill="#45396D"/>
        <path d="M50.7601 82.8794C50.4574 82.8794 50.195 82.7789 49.9932 82.598C49.7914 82.4171 49.6905 82.1557 49.6905 81.8542V76.4266C49.2264 76.9895 48.6614 77.4317 47.9955 77.7735C47.3296 78.1152 46.5829 78.276 45.7959 78.276C44.8071 78.276 43.9394 78.0348 43.1524 77.5322C42.3654 77.0498 41.76 76.3864 41.2959 75.5421C40.852 74.6978 40.63 73.753 40.63 72.6876C40.63 71.6222 40.8722 70.6774 41.3565 69.8331C41.8408 68.9888 42.5067 68.3255 43.3542 67.843C44.2018 67.3606 45.13 67.0992 46.1793 67.0992C47.2287 67.0992 48.1771 67.3405 49.0044 67.843C49.8318 68.3255 50.4977 68.9888 51.0022 69.8331C51.4865 70.6774 51.7287 71.6222 51.7287 72.6876V81.8542C51.7287 82.1557 51.6278 82.3969 51.4462 82.598C51.3049 82.7789 51.0627 82.8794 50.7601 82.8794ZM46.2197 76.4467C46.9058 76.4467 47.5112 76.2859 48.056 75.9442C48.6009 75.6225 49.0246 75.1602 49.3273 74.5973C49.63 74.0345 49.7914 73.3912 49.7914 72.6675C49.7914 71.9439 49.63 71.3006 49.3273 70.7377C49.0246 70.1749 48.6009 69.7125 48.056 69.3909C47.5112 69.0692 46.9058 68.8883 46.2197 68.8883C45.5538 68.8883 44.9484 69.0491 44.4035 69.3909C43.8587 69.7125 43.4349 70.1749 43.1121 70.7377C42.7892 71.3006 42.6479 71.964 42.6479 72.6675C42.6479 73.3711 42.8094 74.0144 43.1121 74.5973C43.4349 75.1602 43.8587 75.6225 44.4035 75.9442C44.9282 76.2859 45.5538 76.4467 46.2197 76.4467Z" fill="#45396D"/>
        <path d="M60.0427 78.276C59.1144 78.276 58.2871 78.075 57.5404 77.693C56.814 77.291 56.2288 76.708 55.805 75.9442C55.3812 75.1803 55.1794 74.2355 55.1794 73.1299V68.1847C55.1794 67.8832 55.2803 67.642 55.4821 67.441C55.6839 67.2399 55.9261 67.1394 56.2086 67.1394C56.5113 67.1394 56.7534 67.2399 56.9552 67.441C57.157 67.642 57.2579 67.8832 57.2579 68.1847V73.1299C57.2579 73.8736 57.3992 74.4968 57.6817 74.9793C57.9642 75.4617 58.3476 75.8235 58.8319 76.0648C59.3162 76.306 59.8611 76.4065 60.4664 76.4065C61.0516 76.4065 61.5561 76.2859 62.0203 76.0648C62.4642 75.8436 62.8274 75.522 63.1099 75.1401C63.3723 74.7581 63.5135 74.3159 63.5135 73.8334H64.7848C64.7848 74.6576 64.583 75.4215 64.1794 76.0849C63.7759 76.7482 63.2108 77.291 62.5046 77.6729C61.7983 78.0549 60.9507 78.276 60.0427 78.276ZM64.5023 78.1755C64.1996 78.1755 63.9575 78.075 63.7557 77.8941C63.5539 77.7131 63.453 77.4518 63.453 77.1503V68.1847C63.453 67.8832 63.5539 67.6219 63.7557 67.441C63.9575 67.26 64.1996 67.1595 64.5023 67.1595C64.805 67.1595 65.0673 67.26 65.249 67.441C65.4306 67.6219 65.5315 67.8832 65.5315 68.1847V77.1503C65.5315 77.4518 65.4306 77.693 65.249 77.8941C65.0673 78.0951 64.805 78.1755 64.5023 78.1755Z" fill="#45396D"/>
        <path d="M67.9328 68.0842C67.7108 68.0842 67.5494 67.9837 67.4283 67.7827C67.3072 67.5817 67.3072 67.3807 67.3879 67.1796C67.6301 66.6369 67.7713 66.1745 67.8319 65.8328C67.8924 65.4911 67.8924 65.1895 67.8319 64.9282C67.7713 64.6669 67.731 64.4257 67.6704 64.1844C67.6099 63.9432 67.5695 63.6819 67.5695 63.4004C67.5695 63.0587 67.6906 62.7572 67.9328 62.5361C68.1749 62.3149 68.4574 62.1943 68.8005 62.1943C69.2242 62.1943 69.5471 62.3752 69.7691 62.717C69.9911 63.0587 70.1121 63.501 70.1121 64.0236C70.1121 64.3653 70.0314 64.7674 69.8902 65.2297C69.7489 65.6921 69.5471 66.1343 69.3453 66.5766C69.1233 67.0188 68.8812 67.3807 68.639 67.6621C68.3767 67.9435 68.1346 68.0842 67.9328 68.0842Z" fill="#45396D"/>
        <path d="M77.9618 78.2559C76.8722 78.2559 75.9035 78.0147 75.0762 77.5322C74.2488 77.0498 73.5829 76.4065 73.0986 75.5622C72.6143 74.7179 72.3923 73.753 72.3923 72.6675C72.3923 71.5619 72.6345 70.597 73.0986 69.7728C73.5829 68.9285 74.2287 68.2853 75.0762 67.8028C75.9035 67.3204 76.8722 67.0992 77.9618 67.0992C79.0313 67.0992 80 67.3405 80.8273 67.8028C81.6547 68.2853 82.3206 68.9285 82.8049 69.7728C83.2892 70.6171 83.5112 71.582 83.5112 72.6675C83.5112 73.753 83.269 74.7179 82.8049 75.5622C82.3408 76.4065 81.6748 77.0498 80.8475 77.5322C80 78.0147 79.0515 78.2559 77.9618 78.2559ZM77.9618 76.4467C78.6681 76.4467 79.2735 76.2859 79.8183 75.9643C80.3632 75.6426 80.787 75.2004 81.0695 74.6375C81.3722 74.0747 81.5336 73.4314 81.5336 72.6876C81.5336 71.9438 81.3923 71.3006 81.0695 70.7377C80.7668 70.1749 80.343 69.7326 79.8183 69.3909C79.2937 69.0491 78.6681 68.9084 77.9618 68.9084C77.2556 68.9084 76.6502 69.0692 76.1053 69.3909C75.5605 69.7125 75.1367 70.1548 74.834 70.7377C74.5313 71.3207 74.3699 71.964 74.3699 72.6876C74.3699 73.4314 74.5313 74.0747 74.834 74.6375C75.1367 75.2004 75.5605 75.6426 76.1053 75.9643C76.63 76.2859 77.2556 76.4467 77.9618 76.4467Z" fill="#45396D"/>
        <path d="M90.3318 77.7332C90.0695 77.8338 89.8274 77.8539 89.6256 77.7533C89.4036 77.6729 89.222 77.492 89.0807 77.2508L84.4596 68.5064C84.3184 68.245 84.3184 68.0038 84.4193 67.7626C84.5202 67.5214 84.7018 67.3606 84.9641 67.26C85.2265 67.1595 85.4686 67.1394 85.6906 67.2198C85.9126 67.3003 86.0942 67.4812 86.2152 67.7224L90.6345 76.4668C90.7758 76.7281 90.8162 76.9694 90.7758 77.2106C90.7354 77.4518 90.574 77.6327 90.3318 77.7332ZM87.9507 83C87.8094 83 87.648 82.9598 87.4664 82.8794C86.8812 82.6181 86.7197 82.1959 86.9821 81.6129L93.1368 67.7626C93.3991 67.1997 93.8229 67.0389 94.4081 67.2801C95.0135 67.5415 95.1749 67.9636 94.9126 68.5466L88.7377 82.3768C88.5762 82.799 88.3139 83 87.9507 83Z" fill="#45396D"/>
        <path d="M101.047 78.2559C100.058 78.2559 99.1905 78.0147 98.4035 77.5121C97.6165 77.0297 97.0111 76.3663 96.547 75.522C96.1031 74.6777 95.8811 73.7329 95.8811 72.6675C95.8811 71.6021 96.1233 70.6573 96.6076 69.813C97.0919 68.9687 97.7578 68.3054 98.6053 67.8229C99.4528 67.3405 100.381 67.0791 101.43 67.0791C102.48 67.0791 103.428 67.3204 104.256 67.8229C105.083 68.3054 105.749 68.9687 106.253 69.813C106.738 70.6573 106.98 71.6021 106.98 72.6675H106.193C106.193 73.7329 105.971 74.6777 105.507 75.522C105.063 76.3663 104.437 77.0297 103.67 77.5121C102.904 78.0147 102.016 78.2559 101.047 78.2559ZM101.451 76.4467C102.137 76.4467 102.742 76.2859 103.287 75.9442C103.832 75.6225 104.256 75.1602 104.558 74.5973C104.861 74.0345 105.022 73.3912 105.022 72.6675C105.022 71.9438 104.861 71.3006 104.558 70.7377C104.256 70.1749 103.832 69.7125 103.287 69.3909C102.742 69.0692 102.137 68.8883 101.451 68.8883C100.785 68.8883 100.179 69.0491 99.6345 69.3909C99.0896 69.7125 98.6659 70.1749 98.343 70.7377C98.0201 71.3006 97.8789 71.9639 97.8789 72.6675C97.8789 73.3711 98.0403 74.0144 98.343 74.5973C98.6659 75.1602 99.0896 75.6225 99.6345 75.9442C100.159 76.2859 100.765 76.4467 101.451 76.4467ZM105.971 78.1956C105.668 78.1956 105.426 78.0951 105.224 77.9142C105.022 77.7332 104.921 77.4719 104.921 77.1704V74.0948L105.305 71.9639L106.98 72.6876V77.1704C106.98 77.4719 106.879 77.7131 106.677 77.9142C106.475 78.1152 106.253 78.1956 105.971 78.1956Z" fill="#45396D"/>
        <path d="M50.9618 55.1184C48.0358 53.47 45.5538 51.098 43.7982 48.2636C44.4641 42.8561 45.2511 37.9914 46.1591 35.5188C45.1502 37.8306 43.6367 41.65 42.5067 45.7709C41.8811 44.3437 41.4372 42.8561 41.1547 41.2881C42.5067 38.2527 44.1816 35.8807 46.2197 33.7699C46.6031 33.3679 46.9058 33.2071 47.1883 33.2272C47.4708 33.2473 47.7331 33.4885 48.0358 33.971C50.2556 37.6698 51.5874 41.6701 51.8295 46.0121C51.9103 47.3188 51.6278 51.7814 50.9618 55.1184Z" fill="#45396D"/>
        <path d="M52.9798 32.3226C50.3968 33.589 47.269 32.5638 45.9574 29.9907C44.6255 27.4579 45.6748 24.2214 48.1973 22.9349C50.7802 21.6283 53.8677 22.6736 55.2197 25.2667C56.5313 27.88 55.5426 31.036 52.9798 32.3226Z" fill="#45396D"/>
        <path d="M54.7556 35.8606C54.6749 33.589 56.5919 31.5788 58.852 31.5386C61.1524 31.4783 63.0897 33.3478 63.1098 35.6595C63.1502 38.0517 61.4349 39.8609 59.0538 39.9614C56.8139 40.0217 54.8161 38.1321 54.7556 35.8606Z" fill="#45396D"/>
        <path d="M54.231 41.5897C54.3924 40.8459 54.5337 40.3835 54.7556 40.1423C54.7556 40.1423 55.7848 50.917 57.9641 57.4904C57.8834 57.4904 57.8229 57.4703 57.7422 57.4502C57.722 57.4703 57.7018 57.4502 57.6816 57.4502C57.157 57.2291 56.6525 57.008 56.148 56.7667C55.4821 55.9426 54.9978 54.9777 54.6749 53.9122C53.9686 51.701 53.6659 49.4295 53.6054 47.3389C53.6458 45.2281 53.8476 43.4189 54.231 41.5897Z" fill="#45396D"/>
        <path d="M62.8071 57.5507C60.0224 53.5504 55.6838 46.5348 54.7556 40.1423C55.0784 39.7805 55.5627 39.9815 56.5112 40.6046C62.4439 44.5045 65.8744 49.9119 67.2869 56.5657C65.8542 57.0482 64.3609 57.3899 62.8071 57.5507Z" fill="#45396D"/>
        <path d="M63.0896 27.6187C61.7779 25.0657 62.8071 21.8494 65.3295 20.5629C66.7622 19.8392 68.3766 19.8392 69.7286 20.4221C69.9506 20.5226 70.1524 20.6433 70.3542 20.7639C71.1815 21.2664 71.8676 21.9901 72.3519 22.8947C73.6838 25.4879 72.695 28.6439 70.1322 29.9103C67.5694 31.217 64.4214 30.1918 63.0896 27.6187Z" fill="#45396D"/>
        <path d="M76.065 50.314C77.5785 43.1174 77.6188 34.956 77.4978 30.5335C77.2758 37.5893 74.2287 47.7007 72.0493 54.0932C71.0606 54.7967 70.0112 55.3998 68.9014 55.9024C68.2556 52.9876 67.1458 50.2135 65.6727 47.4997C64.4215 45.208 64.361 42.7556 65.5112 40.3433C67.9328 35.2977 71.1413 31.1567 75.6816 27.7795C76.2467 27.3574 76.7108 27.1965 77.0538 27.2971C77.2354 27.3574 77.3565 27.478 77.4978 27.679C77.639 27.88 77.7803 28.1212 77.9619 28.4027C78.1637 28.7243 78.3655 29.0459 78.5269 29.4078C78.6884 29.7294 78.8296 30.0712 78.9709 30.3928C79.1121 30.7345 79.2332 31.0763 79.3745 31.418C79.4754 31.7396 79.5964 32.0814 79.6973 32.4231C79.7175 32.4834 79.7377 32.5236 79.7579 32.5839C79.8386 32.8854 79.9193 33.187 80 33.5086C80.0807 33.8704 80.1615 34.2122 80.222 34.5941C80.4036 35.6997 80.5045 36.8054 80.5045 37.9713C80.4641 42.635 78.8094 46.9368 76.065 50.314Z" fill="#45396D"/>
        <path d="M50.9618 55.1184C48.0358 53.47 45.5538 51.098 43.7982 48.2636C44.4641 42.8561 45.2511 37.9914 46.1591 35.5188C45.1502 37.8306 43.6367 41.65 42.5067 45.7709C41.8811 44.3437 41.4372 42.8561 41.1547 41.2881C42.5067 38.2527 44.1816 35.8807 46.2197 33.7699C46.6031 33.3679 46.9058 33.2071 47.1883 33.2272C47.4708 33.2473 47.7331 33.4885 48.0358 33.971C50.2556 37.6698 51.5874 41.6701 51.8295 46.0121C51.9103 47.3188 51.6278 51.7814 50.9618 55.1184Z" fill="#04D99D"/>
        <path d="M76.065 50.314C77.5785 43.1174 77.6188 34.956 77.4978 30.5335C77.2758 37.5893 74.2287 47.7007 72.0493 54.0932C71.0606 54.7967 70.0112 55.3998 68.9014 55.9024C68.2556 52.9876 67.1458 50.2135 65.6727 47.4997C64.4215 45.208 64.361 42.7556 65.5112 40.3433C67.9328 35.2977 71.1413 31.1567 75.6816 27.7795C76.2467 27.3574 76.7108 27.1965 77.0538 27.2971C77.2354 27.3574 77.3565 27.478 77.4978 27.679C77.639 27.88 77.7803 28.1212 77.9619 28.4027C78.1637 28.7243 78.3655 29.0459 78.5269 29.4078C78.6884 29.7294 78.8296 30.0712 78.9709 30.3928C79.1121 30.7345 79.2332 31.0763 79.3745 31.418C79.4754 31.7396 79.5964 32.0814 79.6973 32.4231C79.7175 32.4834 79.7377 32.5236 79.7579 32.5839C79.8386 32.8854 79.9193 33.187 80 33.5086C80.0807 33.8704 80.1615 34.2122 80.222 34.5941C80.4036 35.6997 80.5045 36.8054 80.5045 37.9713C80.4641 42.635 78.8094 46.9368 76.065 50.314Z" fill="#04D99D"/>
        <path d="M57.9641 57.5507C57.8834 57.5105 57.8027 57.4904 57.722 57.4502C57.7018 57.4703 57.6816 57.4502 57.6614 57.4502C57.1368 57.2291 56.6323 57.008 56.1278 56.7667C55.4619 55.9426 54.9776 54.9777 54.6547 53.9122C53.9484 51.701 53.6457 49.4295 53.5852 47.3389C53.6256 45.2281 53.8274 43.4189 54.2108 41.5897C54.3722 40.8459 54.5135 40.3835 54.7354 40.1423C54.7354 40.1423 55.7646 50.917 57.944 57.4904C57.944 57.4904 57.9641 57.5306 57.9641 57.5507Z" fill="#04D99D"/>
        <path d="M67.2667 56.5456C65.8542 57.0482 64.3407 57.3899 62.7869 57.5507C60.0022 53.5504 55.6636 46.5348 54.7354 40.1423C55.0582 39.7805 55.5425 39.9815 56.491 40.6046C62.4439 44.5045 65.8542 49.9119 67.2667 56.5456Z" fill="#04D99D"/>
        <path d="M70.1322 29.9304C67.5492 31.2371 64.4012 30.1918 63.0896 27.6388C61.7779 25.0858 62.8071 21.8695 65.3295 20.583C66.7622 19.8593 68.3766 19.8593 69.7286 20.4422C69.9506 20.5428 70.1524 20.6634 70.3542 20.784C71.1815 21.2865 71.8676 22.0102 72.3519 22.9148C73.6838 25.508 72.695 28.6439 70.1322 29.9304Z" fill="#FFCDB6"/>
        <path d="M52.9798 32.3226C50.3968 33.589 47.269 32.5638 45.9574 29.9907C44.6255 27.4579 45.6748 24.2214 48.1973 22.9349C50.7802 21.6283 53.8677 22.6736 55.2197 25.2667C56.5313 27.88 55.5426 31.036 52.9798 32.3226Z" fill="#FFCDB6"/>
        <path d="M63.1098 35.6595C63.1502 38.0517 61.4349 39.8609 59.0538 39.9614C56.8139 40.0418 54.8363 38.1522 54.7556 35.8606C54.6749 33.589 56.5919 31.5788 58.852 31.5386C61.1524 31.4984 63.0897 33.3478 63.1098 35.6595Z" fill="#FFCDB6"/>
    </g>
    <defs>
        <linearGradient id="paint0_linear" x1="478" y1="124.497" x2="1996.99" y2="124.497" gradientUnits="userSpaceOnUse">
            <stop stop-color="white"/>
            <stop offset="1" stop-color="#FDECE0"/>
        </linearGradient>
        <linearGradient id="paint1_linear" x1="724" y1="191.497" x2="1845.99" y2="191.497" gradientUnits="userSpaceOnUse">
            <stop stop-color="white"/>
            <stop offset="1" stop-color="#FDECE0"/>
        </linearGradient>
        <clipPath id="clip0">
            <rect width="1440" height="800" fill="white"/>
        </clipPath>
    </defs>
</svg>
