<svg class="rotate" width="86" height="87" viewBox="0 0 86 87" fill="none" xmlns="http://www.w3.org/2000/svg">
    <path d="M53.8825 0.35228C53.7599 -0.0434978 53.2312 -0.119355 52.937 0.193969C48.1116 5.2995 41.122 6.28565 39.182 12.562C37.9284 16.6121 39.2381 19.7883 40.075 21.2691C40.103 21.3153 40.131 21.3549 40.1625 21.3846C38.6708 27.308 38.9824 30.1807 39.3466 31.4241C39.4832 31.8859 40.026 32.1233 40.4952 31.9353C40.8944 31.7737 41.0975 31.3549 40.9679 30.9624C40.5267 29.6299 39.2941 26.5396 41.066 20.7546C42.4807 16.843 44.144 14.8114 45.4642 13.7527C46.7844 12.7665 47.8104 12.6115 47.8104 12.6115C44.6238 16.1141 43.6993 20.25 43.4402 22.3641C43.3351 23.1755 43.9515 23.9011 44.8094 23.9703C50.9585 24.4584 54.0401 19.874 55.3147 14.2672C56.4143 9.43208 54.6319 2.79951 53.8825 0.35228Z" fill="white"/>
    <path d="M37.5933 75.1767C37.6725 75.6704 37.6727 75.6704 37.6729 75.6703L37.6734 75.6703L37.6742 75.6701L37.6763 75.6698L37.6814 75.6689L37.6954 75.6664C37.7066 75.6643 37.7212 75.6614 37.739 75.6576C37.7747 75.65 37.8236 75.6385 37.8843 75.622C38.0058 75.5889 38.1747 75.5355 38.3806 75.4514C38.7928 75.283 39.352 74.9924 39.9743 74.4985L39.9811 74.4931L39.9877 74.4875C41.2376 73.4225 42.7482 71.4329 44.0176 67.7037L44.0214 67.6924L44.0247 67.681C44.043 67.6174 44.061 67.5541 44.0787 67.4912C44.779 68.8849 45.7337 71.626 44.7265 75.0833L44.7265 75.0834C43.9204 77.8544 42.072 79.4728 39.8107 81.0196C39.3419 81.3402 38.853 81.6587 38.353 81.9845C36.4685 83.2125 34.4256 84.5436 32.7013 86.4801C32.3726 85.3338 31.8315 83.2563 31.4866 80.9138C31.1352 78.5274 30.9942 75.9091 31.4608 73.7292L31.4608 73.7291C32.014 71.1435 32.9491 68.8502 34.3662 67.2669C35.7639 65.7052 37.6484 64.8109 40.1992 65.0261C40.6677 65.0666 41.0122 65.4877 40.953 65.9732L40.9527 65.9763C40.7295 67.9108 39.9334 71.675 37.2135 74.8515L36.3274 75.8863L37.6725 75.6704L37.5933 75.1767ZM44.5796 57.6736C44.7359 58.2411 44.8927 59.2583 44.7993 60.9389C44.6683 59.5839 44.362 58.6224 44.1679 58.013C44.1465 57.9458 44.1265 57.8829 44.1082 57.8242C44.0692 57.6983 44.1305 57.5698 44.2447 57.5203C44.3886 57.4597 44.5423 57.5408 44.5796 57.6736Z" stroke="white"/>
    <path d="M84.2012 23.8654C84.3624 23.4995 84.0406 23.1336 83.64 23.1942C77.0898 24.1629 71.5967 20.8036 66.3307 24.3316C62.9314 26.6072 61.8659 29.734 61.5271 31.3244C61.5179 31.3751 61.5128 31.4209 61.5163 31.4614C56.7831 34.9896 55.2102 37.3066 54.6894 38.4438C54.497 38.8668 54.7278 39.361 55.1725 39.4961C55.5518 39.6097 55.9547 39.4174 56.1088 39.0499C56.6314 37.8015 57.6972 34.7835 62.5395 31.5222C65.9649 29.4439 68.3922 28.908 69.9735 28.8942C71.5095 28.9344 72.3223 29.4199 72.3223 29.4199C67.915 30.157 64.692 32.6889 63.1935 34.1082C62.6145 34.6495 62.5924 35.5495 63.148 36.1033C67.1357 40.066 72.1439 38.4635 76.5282 35.0435C80.3092 32.0945 83.199 26.1225 84.2012 23.8654Z" fill="white"/>
    <path d="M1.91973 63.9972C1.91961 63.9978 1.91952 63.9981 1.91952 63.9981C1.91952 63.9981 1.91974 63.9974 1.92041 63.9959L1.92 63.9957L1.91973 63.9972ZM1.91973 63.9972L1.46282 63.7943L1.91973 63.9972ZM13.0854 58.669L13.3418 58.2398C13.0854 58.669 13.0855 58.6692 13.0857 58.6693L13.0861 58.6695L13.0869 58.6699L13.0886 58.671L13.0932 58.6736L13.1058 58.6809C13.1159 58.6865 13.1292 58.6939 13.1458 58.7026C13.1789 58.7202 13.2249 58.7434 13.2836 58.7704C13.4011 58.8246 13.5697 58.894 13.7879 58.9638C14.2245 59.1035 14.8586 59.2439 15.6776 59.2653L15.6863 59.2655L15.695 59.2654C17.3879 59.2506 19.9025 58.6772 23.3839 56.5649L23.3941 56.5588L23.4039 56.5522C23.4724 56.506 23.5401 56.4599 23.6072 56.4139C23.2427 57.9779 22.1822 60.8193 19.0552 62.9125L19.055 62.9126C16.57 64.5776 14.0268 64.6334 11.2088 64.3589C10.6241 64.3019 10.0251 64.2299 9.41273 64.1564C7.10357 63.879 4.60285 63.5787 1.95092 63.9709L1.94927 63.9711C1.94176 63.9722 1.93576 63.9723 1.93108 63.9718C2.43033 62.8495 3.38844 60.8288 4.68305 58.7269C5.99205 56.6016 7.62254 54.4306 9.44341 53.0104L9.44344 53.0104C11.6014 51.327 13.8686 50.1279 16.0463 49.8126C18.1952 49.5015 20.2853 50.0446 22.1635 51.911C22.5132 52.26 22.5064 52.8335 22.1291 53.1863L22.1268 53.1885C20.6629 54.5749 17.5275 57.0328 13.2593 57.7467L11.917 57.9711L13.0854 58.669ZM30.5197 49.0085C30.2547 49.5869 29.6658 50.5513 28.3695 51.9054C29.2495 50.6668 29.6738 49.6352 29.9381 48.9924C29.9658 48.925 29.9917 48.8619 30.0163 48.8033C30.0727 48.6687 30.2161 48.6035 30.3472 48.6423C30.5096 48.6922 30.5832 48.8682 30.5197 49.0085Z" stroke="white"/>
    <path d="M10.5154 15.3917C10.5148 15.3917 10.5145 15.3917 10.5145 15.3917C10.5145 15.3917 10.5152 15.3918 10.5168 15.3921L10.5169 15.3917L10.5154 15.3917ZM10.5154 15.3917L10.6359 14.9065L10.5154 15.3917ZM17.6996 25.4638L18.1668 25.6419C17.6996 25.4638 17.6995 25.464 17.6995 25.4642L17.6993 25.4646L17.699 25.4655L17.6983 25.4674L17.6964 25.4723L17.6915 25.486C17.6877 25.4969 17.6828 25.5113 17.677 25.5291C17.6655 25.5648 17.6506 25.6141 17.6341 25.6767C17.6012 25.8018 17.562 25.9799 17.5312 26.2068C17.4694 26.6611 17.4411 27.3099 17.5621 28.1201L17.5634 28.1288L17.565 28.1373C17.8732 29.8021 18.8741 32.1791 21.5583 35.2413L21.5661 35.2502L21.5743 35.2587C21.6316 35.3182 21.6887 35.3769 21.7457 35.4349C20.1422 35.3473 17.16 34.7957 14.556 32.0792L14.5559 32.0791C12.4851 29.9205 11.9889 27.4256 11.7705 24.6027C11.7252 24.0169 11.6922 23.4146 11.6584 22.7987C11.531 20.4765 11.393 17.9616 10.5467 15.4179L10.5462 15.4163C10.5438 15.4091 10.5427 15.4032 10.5423 15.3985C11.7343 15.6955 13.8905 16.2886 16.1851 17.1989C18.5053 18.1194 20.9262 19.3486 22.6407 20.8955L22.6407 20.8955C24.6729 22.7288 26.2471 24.7536 26.9354 26.8436C27.6145 28.9059 27.4422 31.0586 25.93 33.2321C25.6469 33.637 25.0809 33.7298 24.668 33.4194L24.6655 33.4175C23.0461 32.2163 20.0816 29.5548 18.6382 25.4751L18.1843 24.1921L17.6996 25.4638ZM30.238 40.9581C29.6224 40.7974 28.5704 40.3848 27.012 39.343C28.3845 39.9948 29.474 40.2337 30.1529 40.3825C30.2241 40.3981 30.2907 40.4127 30.3528 40.4267C30.495 40.4589 30.5841 40.5889 30.5687 40.7247C30.5477 40.8932 30.3871 40.9963 30.238 40.9581Z" stroke="white"/>
    <path d="M75.1482 72.2679C75.1488 72.268 75.1491 72.268 75.1491 72.268C75.1491 72.268 75.1484 72.2679 75.1468 72.2675L75.1466 72.268L75.1482 72.2679ZM75.1482 72.2679L75.0276 72.7531L75.1482 72.2679ZM67.964 62.1958L67.4968 62.0178C67.964 62.1958 67.964 62.1956 67.9641 62.1955L67.9643 62.1951L67.9646 62.1942L67.9653 62.1923L67.9671 62.1874L67.9721 62.1736C67.9759 62.1627 67.9808 62.1483 67.9866 62.1305C67.9981 62.0949 68.013 62.0456 68.0294 61.983C68.0624 61.8579 68.1015 61.6798 68.1324 61.4529C68.1942 60.9986 68.2225 60.3498 68.1015 59.5395L68.1002 59.5309L68.0986 59.5223C67.7904 57.8576 66.7895 55.4806 64.1053 52.4184L64.0975 52.4095L64.0893 52.401C64.032 52.3415 63.9748 52.2828 63.9179 52.2247C65.5213 52.3124 68.5036 52.8639 71.1076 55.5804L71.1077 55.5806C73.1785 57.7392 73.6746 60.2341 73.893 63.057C73.9384 63.6427 73.9714 64.2451 74.0052 64.8609C74.1326 67.1832 74.2706 69.6981 75.1168 72.2418L75.1174 72.2434C75.1198 72.2506 75.1209 72.2565 75.1212 72.2612C73.9293 71.9642 71.7731 71.3711 69.4785 70.4607C67.1583 69.5403 64.7374 68.3111 63.0229 66.7642L63.0228 66.7641C60.9907 64.9309 59.4164 62.9061 58.7282 60.8161C58.049 58.7537 58.2213 56.6011 59.7336 54.4276C60.0166 54.0226 60.5827 53.9299 60.9955 54.2403L60.9981 54.2422C62.6175 55.4434 65.582 58.1049 67.0254 62.1845L67.4793 63.4675L67.964 62.1958ZM55.4256 46.7016C56.0412 46.8623 57.0932 47.2749 58.6516 48.3166C57.2791 47.6648 56.1895 47.426 55.5107 47.2772C55.4395 47.2616 55.3728 47.247 55.3108 47.233C55.1686 47.2007 55.0795 47.0708 55.0949 46.9349C55.1159 46.7664 55.2764 46.6633 55.4256 46.7016Z" stroke="white"/>
</svg>
