<svg width="28" height="39" viewBox="0 0 28 39" fill="none" xmlns="http://www.w3.org/2000/svg">
    <path d="M14 0C6.26751 0 0 6.11622 0 13.6605C0 17.5192 3.85523 24.436 3.85523 24.436L12.1238 38.2155C12.7443 39.2469 14.257 39.2649 14.8996 38.248L23.5353 24.6235C23.5353 24.6235 28 18.0241 28 13.6605C27.9963 6.11622 21.7288 0 14 0ZM13.9376 21.1868C9.34802 21.1868 5.66536 17.4038 5.93706 12.8347C6.17204 8.91467 9.41044 5.71592 13.3978 5.45988C18.0682 5.16056 21.9528 8.78845 21.9528 13.3107C21.9528 17.6635 18.3619 21.1868 13.9376 21.1868Z" fill="white"/>
</svg>
