<svg width="1440" height="800" viewBox="0 0 1440 800" fill="none" xmlns="http://www.w3.org/2000/svg">
    <rect width="1440" height="800" fill="white"/>
    <path d="M720.484 593.651C737.268 593.651 750.874 590.712 750.874 587.085C750.874 583.459 737.268 580.519 720.484 580.519C703.7 580.519 690.094 583.459 690.094 587.085C690.094 590.712 703.7 593.651 720.484 593.651Z" stroke="#3EE5B1" stroke-width="2" stroke-miterlimit="10"/>
    <path d="M720.484 590.478C722.263 590.378 724.004 589.484 725.092 587.822L741.113 563.351H699.855L715.876 587.822C716.965 589.484 718.706 590.378 720.484 590.478Z" fill="#FDECE0"/>
    <path d="M720.484 578.573C720.978 578.567 721.484 578.548 721.997 578.523C739.164 577.686 754.336 539.302 753.634 532.068C752.938 524.834 743.772 518.004 743.772 518.004H697.183C697.183 518.004 688.018 524.834 687.321 532.068C686.625 539.302 701.792 577.686 718.958 578.523C719.49 578.548 719.99 578.567 720.484 578.573Z" fill="#FFCDB6"/>
    <path d="M720.484 607.678C734.031 607.678 745.013 605.874 745.013 603.649C745.013 601.424 734.031 599.62 720.484 599.62C706.937 599.62 695.956 601.424 695.956 603.649C695.956 605.874 706.937 607.678 720.484 607.678Z" stroke="#3EE5B1" stroke-width="2" stroke-miterlimit="10"/>
    <path d="M720.484 619.74C727.72 619.74 733.587 618.376 733.587 616.693C733.587 615.011 727.72 613.646 720.484 613.646C713.247 613.646 707.381 615.011 707.381 616.693C707.381 618.376 713.247 619.74 720.484 619.74Z" stroke="#3EE5B1" stroke-width="2" stroke-miterlimit="10"/>
    <path d="M731.201 438.15H711.445V462.029H731.201V438.15Z" fill="#45396D"/>
    <path d="M720.484 533.661C736.709 533.661 749.861 515.737 749.861 493.627C749.861 471.517 736.709 453.593 720.484 453.593C704.26 453.593 691.107 471.517 691.107 493.627C691.107 515.737 704.26 533.661 720.484 533.661Z" fill="#45396D"/>
    <path d="M811.717 539.421C811.135 544.539 809.299 558.799 806.216 567.084C805.134 569.999 801.051 570.131 799.716 567.323C794.076 555.519 791.056 539.119 792.981 531.709C794.81 524.652 806.267 532.987 810.426 536.286C811.369 537.041 811.85 538.225 811.717 539.421Z" fill="#45396D"/>
    <path d="M783.878 462.029C790.423 462.029 795.728 453.709 795.728 443.445C795.728 433.181 790.423 424.86 783.878 424.86C777.334 424.86 772.029 433.181 772.029 443.445C772.029 453.709 777.334 462.029 783.878 462.029Z" fill="#45396D"/>
    <path d="M723.813 445.119L723.826 477.454V477.46C723.984 477.46 726.333 477.309 753.868 474.652C759.749 474.085 764.49 471.838 768.313 468.57C768.313 468.564 768.313 468.564 768.313 468.564C784.771 454.475 784.131 421.284 784.119 420.705C767.807 435.619 746.797 444.742 723.813 445.119Z" fill="#FFCDB6"/>
    <path d="M723.826 477.46C723.826 477.617 723.839 482.1 725.181 491.493C754.242 499.501 756.204 511.613 757.577 511.022C758.951 510.436 775.054 503.02 771.522 494.426C768.034 485.94 768.307 469.005 768.313 468.57C764.49 471.838 759.749 474.085 753.868 474.652C726.333 477.309 723.984 477.46 723.826 477.46Z" fill="#FDECE0"/>
    <path d="M790.803 428.373C790.803 428.373 795.354 415.442 801.811 428.373C808.267 441.304 823.25 502.409 810.749 541.574C807.311 547.492 800.083 549.343 795.728 540.019C791.373 530.695 782.017 484.121 783.878 462.023C785.739 439.925 790.803 428.373 790.803 428.373Z" fill="#FDECE0"/>
    <path d="M721.997 239.222C774.763 239.222 817.541 285.318 817.541 342.18C817.541 373.652 804.438 401.818 783.79 420.699C783.79 420.699 783.79 420.699 783.79 420.705C767.478 435.619 746.469 444.742 723.485 445.119C722.991 445.126 722.491 445.132 721.997 445.132C721.491 445.132 720.991 445.126 720.484 445.119C719.984 445.126 719.478 445.132 718.971 445.132C718.478 445.132 717.977 445.126 717.484 445.119C694.5 444.742 673.491 435.619 657.178 420.705C657.178 420.699 657.178 420.699 657.178 420.699C636.53 401.818 623.427 373.652 623.427 342.18C623.427 285.318 666.205 239.222 718.971 239.222C719.478 239.222 721.491 239.222 721.997 239.222Z" fill="#FDECE0"/>
    <path d="M719.914 334.984C684.561 335.4 660.634 331.081 651.108 331.32C637.612 331.654 640.309 363.201 658.533 395.749C673.199 421.952 694.423 431.628 719.914 430.381H720.484C745.981 431.628 767.199 421.952 781.865 395.749C800.083 363.201 802.786 331.654 789.29 331.32C779.764 331.081 755.836 335.406 720.484 334.984H719.914Z" fill="#FFCDB6"/>
    <path d="M588.549 276.681L575.003 250.119C575.003 250.119 571.667 243.673 577.162 241.721L625.206 322.336L623.699 334.103L618.591 334.027L588.549 276.681Z" fill="#45396D"/>
    <path d="M588.549 276.681C588.942 277.461 615.812 357.006 615.812 357.006L621.022 332.661L588.549 276.681Z" fill="#FFCDB6"/>
    <path d="M627.77 381.509C627.77 381.509 615.939 371.92 615.812 355.105C615.686 338.289 621.015 332.655 621.015 332.655L627.77 381.509Z" fill="#FFCDB6"/>
    <path d="M635.644 392.469C635.644 392.469 630.029 394.358 626.864 377.41C623.7 360.462 620.383 332.031 620.965 328.342C621.547 324.653 620.655 321.417 624.845 320.001C629.036 318.578 635.644 392.469 635.644 392.469Z" fill="#45396D"/>
    <path d="M852.444 276.737L865.997 250.176C865.997 250.176 869.333 243.729 863.838 241.778L815.788 322.393L817.294 334.159L822.402 334.084L852.444 276.737Z" fill="#45396D"/>
    <path d="M852.444 276.737C852.052 277.518 825.181 357.063 825.181 357.063L819.972 332.718L852.444 276.737Z" fill="#FFCDB6"/>
    <path d="M813.224 381.572C813.224 381.572 825.055 371.983 825.181 355.168C825.308 338.352 819.978 332.718 819.978 332.718L813.224 381.572Z" fill="#FFCDB6"/>
    <path d="M805.35 392.526C805.35 392.526 810.964 394.415 814.129 377.467C817.294 360.519 820.611 332.088 820.029 328.399C819.446 324.71 820.339 321.474 816.148 320.057C811.958 318.634 805.35 392.526 805.35 392.526Z" fill="#45396D"/>
    <path d="M717.471 477.46C717.471 477.454 717.471 477.454 717.471 477.454C717.471 477.454 717.49 477.46 717.471 477.46Z" fill="#03A678"/>
    <path d="M629.586 539.421C630.169 544.539 632.004 558.799 635.087 567.084C636.17 569.999 640.252 570.131 641.588 567.323C647.228 555.519 650.247 539.119 648.323 531.709C646.494 524.652 635.037 532.987 630.878 536.286C629.935 537.041 629.447 538.225 629.586 539.421Z" fill="#45396D"/>
    <path d="M657.425 462.029C663.97 462.029 669.275 453.709 669.275 443.445C669.275 433.181 663.97 424.86 657.425 424.86C650.881 424.86 645.576 433.181 645.576 443.445C645.576 453.709 650.881 462.029 657.425 462.029Z" fill="#45396D"/>
    <path d="M717.484 445.119L717.471 477.454V477.46C717.313 477.46 714.964 477.309 687.429 474.652C681.549 474.085 676.807 471.838 672.984 468.57C672.984 468.564 672.984 468.564 672.984 468.564C656.526 454.475 657.166 421.284 657.178 420.705C673.491 435.619 694.5 444.742 717.484 445.119Z" fill="#FFCDB6"/>
    <path d="M717.471 477.46C717.471 477.617 717.458 482.1 716.117 491.493C687.056 499.501 685.094 511.613 683.72 511.022C682.346 510.436 666.243 503.02 669.775 494.426C673.263 485.94 672.991 469.005 672.984 468.57C676.808 471.838 681.549 474.085 687.429 474.652C714.964 477.309 717.313 477.46 717.471 477.46Z" fill="#FDECE0"/>
    <path d="M650.5 428.373C650.5 428.373 645.949 415.442 639.493 428.373C633.036 441.304 618.053 502.409 630.555 541.574C633.992 547.492 641.221 549.343 645.576 540.019C649.931 530.695 659.286 484.121 657.425 462.023C655.564 439.925 650.5 428.373 650.5 428.373Z" fill="#FDECE0"/>
    <path d="M743.842 460.197C743.829 461.563 742.981 462.93 741.113 462.93C739.246 462.93 738.379 461.595 738.379 460.204C738.379 458.812 739.278 457.415 741.113 457.415C742.949 457.421 743.861 458.819 743.842 460.197ZM739.373 460.222C739.398 461.091 739.866 462.017 741.12 462.017C742.373 462.017 742.842 461.079 742.861 460.21C742.873 459.316 742.373 458.321 741.12 458.321C739.866 458.328 739.347 459.329 739.373 460.222Z" fill="#FDECE0"/>
    <path d="M747 459.706L748.412 457.522H749.621V457.566L747.5 460.625V462.81H746.5V460.625L744.456 457.566V457.522H745.646L747 459.706Z" fill="#FDECE0"/>
    <path d="M754.4 461.815H751.621L751.165 462.81H750.077L752.463 457.522H753.558L755.945 462.81H754.849L754.4 461.815ZM753.014 458.636L752.026 460.884H754.001L753.014 458.636Z" fill="#FDECE0"/>
    <path d="M747.235 396.832C746.519 396.524 746.076 395.863 745.766 395.189C745.12 393.791 744.222 393.048 742.62 393.577C742.576 393.59 742.525 393.59 742.481 393.584C740.86 393.206 740.025 394.037 739.544 395.447C739.43 395.781 739.234 396.089 739.05 396.391C738.335 397.606 736.911 398.06 735.651 397.418C732.505 395.825 729.372 394.213 726.245 392.589C724.991 391.934 724.529 390.511 725.137 389.24C725.504 388.472 725.903 387.71 726.314 386.967C726.529 386.583 726.523 386.281 726.245 385.934C725.65 385.192 725.124 384.398 724.694 383.548C724.479 383.12 724.156 383.001 723.706 383.032C722.921 383.082 722.137 383.127 721.352 383.133C719.75 383.139 718.661 382.182 718.566 380.589C718.37 377.158 718.212 373.721 718.085 370.29C718.028 368.735 719.01 367.696 720.586 367.558C721.39 367.488 722.206 367.463 723.016 367.444C723.453 367.432 723.706 367.255 723.896 366.865C724.32 365.99 724.77 365.127 725.238 364.278C725.434 363.919 725.422 363.635 725.188 363.295C724.732 362.628 724.289 361.954 723.877 361.256C723.067 359.896 723.32 358.511 724.643 357.648C727.549 355.747 730.479 353.877 733.429 352.039C734.771 351.208 736.145 351.535 737.062 352.82C737.563 353.512 738.012 354.242 738.461 354.966C738.651 355.269 738.867 355.382 739.221 355.331C740.24 355.187 741.259 355.13 742.285 355.18C742.671 355.199 742.899 355.042 743.07 354.702C743.437 353.959 743.823 353.222 744.215 352.492C744.924 351.183 746.368 350.666 747.684 351.327C750.811 352.901 753.925 354.5 757.027 356.125C758.375 356.83 758.8 358.303 758.129 359.663C757.774 360.387 757.401 361.105 757.014 361.81C756.818 362.162 756.799 362.458 757.059 362.785C757.679 363.572 758.198 364.422 758.66 365.304C758.837 365.644 759.072 365.77 759.458 365.738C760.192 365.675 760.933 365.656 761.673 365.625C763.528 365.543 764.648 366.475 764.75 368.3C764.94 371.662 765.104 375.024 765.237 378.386C765.3 380.029 764.262 381.106 762.597 381.219C761.838 381.269 761.072 381.307 760.312 381.32C759.914 381.326 759.654 381.465 759.47 381.842C759.034 382.736 758.572 383.624 758.091 384.499C757.888 384.864 757.926 385.16 758.148 385.487C758.584 386.142 759.008 386.797 759.42 387.464C760.243 388.818 759.977 390.272 758.641 391.141C755.755 393.03 752.837 394.868 749.919 396.712C749.077 397.248 748.178 397.348 747.235 396.832ZM736.708 383.97C741.525 386.558 748.336 385.122 751.318 379.311C754.369 373.356 751.393 367.18 746.614 364.769C741.278 362.074 734.689 364.158 731.973 369.44C729.239 374.76 731.347 381.232 736.708 383.97Z" fill="white"/>
    <path d="M722.497 395.202C722.004 396.247 721.155 396.524 720.199 396.643C718.712 396.832 717.604 398.009 717.541 399.432C717.516 400.011 717.952 400.364 718.256 400.773C719.623 402.611 719.51 403.524 717.718 404.89C715.933 406.25 714.148 407.604 712.357 408.951C710.983 409.984 709.913 409.839 708.837 408.498C707.609 406.968 707.059 406.811 705.172 407.352C704.603 407.516 704.476 407.969 704.286 408.397C703.159 410.909 702.368 411.224 699.798 410.16C697.981 409.411 696.165 408.668 694.354 407.9C692.417 407.075 692.044 406.156 692.829 404.229C693.329 403.008 692.677 401.044 691.557 400.465C691.056 400.213 690.531 400.446 690.025 400.509C687.892 400.767 687.138 400.225 686.847 398.123C686.537 395.913 686.246 393.697 685.993 391.475C685.777 389.567 686.372 388.824 688.246 388.509C689.854 388.245 690.708 387.351 690.955 385.746C691.044 385.185 690.67 384.858 690.392 384.48C688.873 382.396 688.993 381.609 691.075 380.042C692.734 378.789 694.392 377.523 696.044 376.264C697.57 375.106 698.564 375.219 699.741 376.68C700.855 378.059 701.849 378.317 703.545 377.725C704.14 377.517 704.229 376.976 704.425 376.516C705.432 374.206 706.058 373.941 708.394 374.911C710.394 375.736 712.395 376.56 714.395 377.404C716.047 378.103 716.642 379.141 715.8 380.715C714.914 382.371 715.819 383.309 716.693 384.392C717.104 384.908 717.642 384.713 718.142 384.656C720.845 384.342 721.39 384.757 721.75 387.464C722.023 389.523 722.288 391.582 722.567 393.634C722.656 394.213 722.668 394.761 722.497 395.202ZM704.356 384.417C699.741 384.386 696.006 388.018 695.994 392.538C695.981 396.977 699.672 400.71 704.166 400.811C708.609 400.905 712.433 397.185 712.477 392.727C712.515 388.075 708.97 384.442 704.356 384.417Z" fill="white"/>
    <path d="M739.169 190.595C738.975 189.927 738.135 189.799 737.668 190.328C730.004 198.944 718.904 200.608 715.823 211.2C713.832 218.035 715.912 223.395 717.241 225.894C717.286 225.972 717.33 226.039 717.38 226.089C715.011 236.085 715.506 240.933 716.084 243.031C716.301 243.811 717.163 244.211 717.908 243.894C718.542 243.621 718.865 242.914 718.659 242.252C717.959 240.004 716.001 234.788 718.815 225.026C721.062 218.425 723.703 214.996 725.8 213.209C727.897 211.545 729.526 211.284 729.526 211.284C724.465 217.195 722.997 224.174 722.585 227.742C722.419 229.111 723.397 230.336 724.76 230.453C734.526 231.276 739.419 223.54 741.444 214.078C743.19 205.918 740.359 194.725 739.169 190.595Z" fill="#04D99D"/>
    <circle cx="98.5" cy="41.5" r="17.5" fill="#FFCDB6"/>
    <path d="M98.5 34V49" stroke="white" stroke-width="2" stroke-miterlimit="10" stroke-linecap="round"/>
    <path d="M106 41.5H91" stroke="white" stroke-width="2" stroke-miterlimit="10" stroke-linecap="round"/>
    <circle cx="195.5" cy="41.5" r="17.5" fill="#FFCDB6"/>
    <path d="M190 34L186 39L190 44" stroke="white" stroke-width="2" stroke-linecap="round" stroke-linejoin="round"/>
    <path d="M186.5 39H198.5C201.261 39 203.5 41.2386 203.5 44V44C203.5 46.7614 201.261 49 198.5 49H196" stroke="white" stroke-width="2" stroke-linecap="round"/>
    <circle cx="147.5" cy="41.5" r="17.5" fill="#FFCDB6"/>
    <path d="M156.584 42.4397L158.803 40.2209C159.066 39.9577 159.066 39.5314 158.803 39.2681C158.539 39.0049 158.113 39.0049 157.85 39.2681L155.631 41.4869L153.412 39.2681C153.149 39.0049 152.723 39.0049 152.46 39.2681C152.196 39.5314 152.196 39.9577 152.46 40.2209L154.678 42.4397L152.46 44.6584C152.196 44.9216 152.196 45.348 152.46 45.6112C152.723 45.8745 153.149 45.8745 153.412 45.6112L155.631 43.3925L157.85 45.6112C158.113 45.8745 158.539 45.8745 158.803 45.6112C159.066 45.348 159.066 44.9216 158.803 44.6584L156.584 42.4397Z" fill="white"/>
    <path d="M149.659 30.194C148.941 29.8576 148.117 29.964 147.508 30.4717L141.82 35.2115H138.021C136.907 35.2115 136 36.1185 136 37.233V45.7674C136 46.882 136.907 47.7889 138.021 47.7889H141.82L147.508 52.5287C148.117 53.0368 148.942 53.1424 149.659 52.8064C150.377 52.4699 150.823 51.7686 150.823 50.9758V32.0247C150.823 31.2318 150.377 30.5301 149.659 30.194ZM141.39 46.4498H138.021C137.65 46.4498 137.348 46.1385 137.348 45.767V37.233C137.348 36.8615 137.65 36.5592 138.021 36.5592H141.39V46.4498ZM149.476 50.9758C149.476 51.3733 149.179 51.5431 149.088 51.5858C148.996 51.6285 148.676 51.748 148.371 51.4933L142.738 46.7993V36.2007L148.371 31.5067C148.676 31.252 148.997 31.3715 149.088 31.4142C149.179 31.4568 149.476 31.6266 149.476 32.0242V50.9758Z" fill="white"/>
    <path d="M38.8072 58.1173C35.8812 56.4689 33.3991 54.0969 31.6435 51.2625C32.3094 45.855 33.0964 40.9903 34.0045 38.5177C32.9955 40.8295 31.4821 44.6489 30.352 48.7698C29.7265 47.3426 29.2825 45.855 29 44.2871C30.352 41.2516 32.0269 38.8796 34.065 36.7689C34.4484 36.3668 34.7511 36.206 35.0336 36.2261C35.3161 36.2462 35.5785 36.4874 35.8812 36.9699C38.1009 40.6687 39.4327 44.669 39.6749 49.011C39.7556 50.3177 39.4731 54.7803 38.8072 58.1173Z" fill="#45396D"/>
    <path d="M40.8249 35.3215C38.242 36.5879 35.1142 35.5627 33.8025 32.9897C32.4707 30.4568 33.52 27.2203 36.0424 25.9338C38.6254 24.6272 41.7128 25.6725 43.0648 28.2657C44.3765 30.8789 43.3877 34.035 40.8249 35.3215Z" fill="#45396D"/>
    <path d="M42.6011 38.8595C42.5204 36.5879 44.4374 34.5777 46.6975 34.5375C48.998 34.4772 50.9352 36.3467 50.9553 38.6585C50.9957 41.0506 49.2805 42.8598 46.8993 42.9603C44.6594 43.0206 42.6616 41.131 42.6011 38.8595Z" fill="#45396D"/>
    <path d="M42.0762 44.5886C42.2377 43.8448 42.3789 43.3824 42.6009 43.1412C42.6009 43.1412 43.6301 53.9159 45.8094 60.4893C45.7287 60.4893 45.6682 60.4692 45.5875 60.4491C45.5673 60.4692 45.5471 60.4491 45.5269 60.4491C45.0023 60.228 44.4978 60.0069 43.9933 59.7657C43.3274 58.9415 42.8431 57.9766 42.5202 56.9112C41.8139 54.6999 41.5112 52.4284 41.4507 50.3378C41.491 48.2271 41.6928 46.4179 42.0762 44.5886Z" fill="#45396D"/>
    <path d="M50.6526 60.5497C47.8679 56.5493 43.5293 49.5337 42.6011 43.1412C42.9239 42.7794 43.4083 42.9804 44.3567 43.6036C50.2894 47.5034 53.7199 52.9109 55.1325 59.5647C53.6997 60.0471 52.2065 60.3888 50.6526 60.5497Z" fill="#45396D"/>
    <path d="M50.9347 30.6176C49.6231 28.0646 50.6522 24.8483 53.1747 23.5618C54.6074 22.8381 56.2217 22.8381 57.5738 23.4211C57.7957 23.5216 57.9975 23.6422 58.1993 23.7628C59.0267 24.2653 59.7128 24.989 60.1971 25.8936C61.5289 28.4868 60.5401 31.6428 57.9773 32.9092C55.4146 34.2159 52.2666 33.1907 50.9347 30.6176Z" fill="#45396D"/>
    <path d="M63.9102 53.3129C65.4236 46.1163 65.464 37.9549 65.3429 33.5324C65.121 40.5883 62.0739 50.6996 59.8945 57.0921C58.9057 57.7957 57.8564 58.3987 56.7465 58.9013C56.1008 55.9865 54.9909 53.2124 53.5178 50.4986C52.2667 48.207 52.2062 45.7545 53.3564 43.3422C55.7779 38.2966 58.9864 34.1556 63.5268 30.7784C64.0918 30.3563 64.5559 30.1955 64.899 30.296C65.0806 30.3563 65.2017 30.4769 65.3429 30.6779C65.4842 30.8789 65.6254 31.1202 65.8071 31.4016C66.0088 31.7232 66.2106 32.0449 66.3721 32.4067C66.5335 32.7283 66.6748 33.0701 66.816 33.3917C66.9573 33.7334 67.0784 34.0752 67.2196 34.4169C67.3205 34.7385 67.4416 35.0803 67.5425 35.422C67.5627 35.4823 67.5828 35.5225 67.603 35.5828C67.6837 35.8844 67.7645 36.1859 67.8452 36.5075C67.9259 36.8694 68.0066 37.2111 68.0671 37.593C68.2488 38.6987 68.3497 39.8043 68.3497 40.9702C68.3093 45.6339 66.6546 49.9357 63.9102 53.3129Z" fill="#45396D"/>
    <path d="M38.8072 58.1173C35.8812 56.4689 33.3991 54.0969 31.6435 51.2625C32.3094 45.855 33.0964 40.9903 34.0045 38.5177C32.9955 40.8295 31.4821 44.6489 30.352 48.7698C29.7265 47.3426 29.2825 45.855 29 44.2871C30.352 41.2516 32.0269 38.8796 34.065 36.7689C34.4484 36.3668 34.7511 36.206 35.0336 36.2261C35.3161 36.2462 35.5785 36.4874 35.8812 36.9699C38.1009 40.6687 39.4327 44.669 39.6749 49.011C39.7556 50.3177 39.4731 54.7803 38.8072 58.1173Z" fill="#04D99D"/>
    <path d="M63.9102 53.3129C65.4236 46.1163 65.464 37.9549 65.3429 33.5324C65.121 40.5883 62.0739 50.6996 59.8945 57.0921C58.9057 57.7957 57.8564 58.3987 56.7465 58.9013C56.1008 55.9865 54.9909 53.2124 53.5178 50.4986C52.2667 48.207 52.2062 45.7545 53.3564 43.3422C55.7779 38.2966 58.9864 34.1556 63.5268 30.7784C64.0918 30.3563 64.5559 30.1955 64.899 30.296C65.0806 30.3563 65.2017 30.4769 65.3429 30.6779C65.4842 30.8789 65.6254 31.1202 65.8071 31.4016C66.0088 31.7232 66.2106 32.0449 66.3721 32.4067C66.5335 32.7283 66.6748 33.0701 66.816 33.3917C66.9573 33.7334 67.0784 34.0752 67.2196 34.4169C67.3205 34.7385 67.4416 35.0803 67.5425 35.422C67.5627 35.4823 67.5828 35.5225 67.603 35.5828C67.6837 35.8844 67.7645 36.1859 67.8452 36.5075C67.9259 36.8694 68.0066 37.2111 68.0671 37.593C68.2488 38.6987 68.3497 39.8043 68.3497 40.9702C68.3093 45.6339 66.6546 49.9357 63.9102 53.3129Z" fill="#04D99D"/>
    <path d="M45.8096 60.5496C45.7289 60.5094 45.6482 60.4893 45.5674 60.4491C45.5473 60.4692 45.5271 60.4491 45.5069 60.4491C44.9822 60.228 44.4778 60.0069 43.9733 59.7657C43.3073 58.9415 42.823 57.9766 42.5002 56.9112C41.7939 54.6999 41.4912 52.4284 41.4307 50.3378C41.471 48.2271 41.6728 46.4179 42.0562 44.5886C42.2177 43.8448 42.3589 43.3824 42.5809 43.1412C42.5809 43.1412 43.61 53.9159 45.7894 60.4893C45.7894 60.4893 45.8096 60.5295 45.8096 60.5496Z" fill="#04D99D"/>
    <path d="M55.112 59.5445C53.6994 60.0471 52.1859 60.3888 50.6321 60.5497C47.8474 56.5493 43.5088 49.5337 42.5806 43.1412C42.9034 42.7794 43.3877 42.9804 44.3362 43.6036C50.2891 47.5034 53.6994 52.9109 55.112 59.5445Z" fill="#04D99D"/>
    <path d="M57.9773 32.9294C55.3944 34.236 52.2464 33.1907 50.9347 30.6377C49.6231 28.0848 50.6522 24.8684 53.1747 23.5819C54.6074 22.8582 56.2217 22.8582 57.5738 23.4412C57.7957 23.5417 57.9975 23.6623 58.1993 23.7829C59.0267 24.2855 59.7128 25.0091 60.1971 25.9137C61.5289 28.5069 60.5401 31.6428 57.9773 32.9294Z" fill="#FFCDB6"/>
    <path d="M40.8249 35.3215C38.242 36.5879 35.1142 35.5627 33.8025 32.9897C32.4707 30.4568 33.52 27.2203 36.0424 25.9338C38.6254 24.6272 41.7128 25.6725 43.0648 28.2657C44.3765 30.8789 43.3877 34.035 40.8249 35.3215Z" fill="#FFCDB6"/>
    <path d="M50.9553 38.6585C50.9957 41.0506 49.2805 42.8598 46.8993 42.9603C44.6594 43.0407 42.6818 41.1511 42.6011 38.8595C42.5204 36.5879 44.4374 34.5777 46.6975 34.5375C48.998 34.4973 50.9352 36.3467 50.9553 38.6585Z" fill="#FFCDB6"/>
</svg>
