<svg width="1440" height="800" viewBox="0 0 1440 800" fill="none" xmlns="http://www.w3.org/2000/svg">
    <g clip-path="url(#clip0)">
        <rect width="1440" height="800" fill="white"/>
        <circle cx="188.5" cy="40.5" r="17.5" fill="#FFCDB6"/>
        <path d="M188.5 33V48" stroke="white" stroke-width="2" stroke-miterlimit="10" stroke-linecap="round"/>
        <path d="M196 40.5H181" stroke="white" stroke-width="2" stroke-miterlimit="10" stroke-linecap="round"/>
        <path d="M1578.2 -642.547C1578.99 -638.239 345.942 1075.8 345.942 1075.8L1017.01 954.156L1578.2 -642.547Z" fill="url(#paint0_linear)" fill-opacity="0.5"/>
        <path d="M1450.67 -499.506C1451.4 -495.497 590.851 1047.67 590.851 1047.67L1086.53 957.815L1450.67 -499.506Z" fill="url(#paint1_linear)" fill-opacity="0.5"/>
        <path d="M35.792 42.354H30.104L28.97 45H25.586L31.58 32.184H34.244L40.256 45H36.926L35.792 42.354ZM34.694 39.816L32.948 35.766L31.202 39.816H34.694ZM50.436 31.752V45H47.232V43.758C46.968 44.19 46.584 44.532 46.08 44.784C45.576 45.024 45.024 45.144 44.424 45.144C43.644 45.144 42.948 44.946 42.336 44.55C41.724 44.142 41.244 43.578 40.896 42.858C40.56 42.126 40.392 41.286 40.392 40.338C40.392 39.402 40.56 38.574 40.896 37.854C41.244 37.134 41.724 36.582 42.336 36.198C42.948 35.802 43.644 35.604 44.424 35.604C45 35.604 45.528 35.724 46.008 35.964C46.5 36.204 46.89 36.528 47.178 36.936V31.752H50.436ZM45.432 42.714C46.008 42.714 46.452 42.516 46.764 42.12C47.076 41.712 47.232 41.13 47.232 40.374C47.232 39.642 47.07 39.078 46.746 38.682C46.434 38.274 45.996 38.07 45.432 38.07C44.844 38.07 44.394 38.268 44.082 38.664C43.77 39.048 43.614 39.606 43.614 40.338C43.614 41.094 43.77 41.682 44.082 42.102C44.406 42.51 44.856 42.714 45.432 42.714ZM56.9804 45.144C55.9604 45.144 55.0724 44.952 54.3164 44.568C53.5604 44.184 52.9784 43.632 52.5704 42.912C52.1624 42.192 51.9584 41.346 51.9584 40.374C51.9584 39.402 52.1624 38.556 52.5704 37.836C52.9784 37.116 53.5604 36.564 54.3164 36.18C55.0724 35.796 55.9604 35.604 56.9804 35.604C57.9884 35.604 58.8644 35.802 59.6084 36.198C60.3644 36.582 60.9464 37.134 61.3544 37.854C61.7624 38.562 61.9664 39.402 61.9664 40.374C61.9664 41.346 61.7624 42.192 61.3544 42.912C60.9464 43.62 60.3644 44.172 59.6084 44.568C58.8644 44.952 57.9884 45.144 56.9804 45.144ZM56.9804 42.714C58.1564 42.714 58.7444 41.934 58.7444 40.374C58.7444 39.582 58.5944 39 58.2944 38.628C58.0064 38.244 57.5684 38.052 56.9804 38.052C56.3804 38.052 55.9304 38.244 55.6304 38.628C55.3304 39 55.1804 39.582 55.1804 40.374C55.1804 41.178 55.3304 41.772 55.6304 42.156C55.9304 42.528 56.3804 42.714 56.9804 42.714ZM69.5293 35.604C70.3093 35.604 71.0053 35.808 71.6173 36.216C72.2293 36.624 72.7093 37.194 73.0573 37.926C73.4053 38.658 73.5793 39.498 73.5793 40.446C73.5793 41.382 73.4053 42.21 73.0573 42.93C72.7213 43.638 72.2473 44.184 71.6353 44.568C71.0233 44.952 70.3213 45.144 69.5293 45.144C68.9293 45.144 68.3833 45.03 67.8913 44.802C67.3993 44.562 67.0213 44.232 66.7573 43.812V48.888H63.4993V38.484C63.4993 37.5 63.4513 36.624 63.3553 35.856H66.4153L66.5953 37.278C66.8233 36.774 67.2013 36.372 67.7293 36.072C68.2573 35.76 68.8573 35.604 69.5293 35.604ZM68.5393 42.714C69.1273 42.714 69.5713 42.522 69.8713 42.138C70.1713 41.754 70.3213 41.19 70.3213 40.446C70.3213 39.69 70.1653 39.108 69.8533 38.7C69.5533 38.28 69.1153 38.07 68.5393 38.07C67.9513 38.07 67.5013 38.268 67.1893 38.664C66.8773 39.06 66.7213 39.642 66.7213 40.41C66.7213 41.154 66.8773 41.724 67.1893 42.12C67.5013 42.516 67.9513 42.714 68.5393 42.714ZM80.3954 42.516C80.6114 42.516 80.8994 42.48 81.2594 42.408V44.874C80.8154 45.054 80.2514 45.144 79.5674 45.144C78.3314 45.144 77.3894 44.796 76.7414 44.1C76.1054 43.404 75.7874 42.438 75.7874 41.202V38.25H74.0774V35.856H75.7874V33.786L79.0454 32.742V35.856H81.2414V38.25H79.0454V41.202C79.0454 41.634 79.1714 41.964 79.4234 42.192C79.6874 42.408 80.0114 42.516 80.3954 42.516ZM90.9257 40.752H85.1837C85.2437 41.46 85.4477 41.97 85.7957 42.282C86.1437 42.594 86.6537 42.75 87.3257 42.75C87.7817 42.75 88.2377 42.678 88.6937 42.534C89.1497 42.378 89.5637 42.168 89.9357 41.904L90.7637 44.064C90.3077 44.4 89.7557 44.664 89.1077 44.856C88.4597 45.048 87.8117 45.144 87.1637 45.144C86.1197 45.144 85.2137 44.952 84.4457 44.568C83.6777 44.184 83.0897 43.638 82.6817 42.93C82.2737 42.21 82.0697 41.364 82.0697 40.392C82.0697 39.468 82.2617 38.646 82.6457 37.926C83.0417 37.194 83.5817 36.624 84.2657 36.216C84.9617 35.808 85.7537 35.604 86.6417 35.604C87.5057 35.604 88.2617 35.796 88.9097 36.18C89.5577 36.564 90.0557 37.116 90.4037 37.836C90.7517 38.544 90.9257 39.372 90.9257 40.32V40.752ZM86.7317 37.836C85.9277 37.836 85.4237 38.304 85.2197 39.24H88.1357C88.0157 38.304 87.5477 37.836 86.7317 37.836ZM98.2469 45.162C96.3749 45.162 94.9589 44.694 93.9989 43.758C93.0389 42.81 92.5589 41.424 92.5589 39.6V32.184H95.8529V39.726C95.8529 40.65 96.0569 41.358 96.4649 41.85C96.8849 42.342 97.4789 42.588 98.2469 42.588C99.0029 42.588 99.5849 42.342 99.9929 41.85C100.401 41.346 100.605 40.638 100.605 39.726V32.184H103.935V39.6C103.935 41.4 103.443 42.78 102.459 43.74C101.487 44.688 100.083 45.162 98.2469 45.162ZM112.088 35.604C113.168 35.604 113.972 35.934 114.5 36.594C115.04 37.242 115.31 38.226 115.31 39.546V45H112.052V39.69C112.052 39.126 111.956 38.724 111.764 38.484C111.572 38.232 111.272 38.106 110.864 38.106C110.372 38.106 109.976 38.274 109.676 38.61C109.376 38.934 109.226 39.366 109.226 39.906V45H105.968V38.484C105.968 37.5 105.92 36.624 105.824 35.856H108.884L109.046 37.206C109.394 36.69 109.826 36.294 110.342 36.018C110.858 35.742 111.44 35.604 112.088 35.604ZM117.381 32.184H123.483C124.947 32.184 126.081 32.538 126.885 33.246C127.689 33.942 128.091 34.89 128.091 36.09C128.091 37.278 127.683 38.226 126.867 38.934C126.051 39.642 124.923 39.996 123.483 39.996H120.765V45H117.381V32.184ZM123.033 37.476C124.305 37.476 124.941 37.026 124.941 36.126C124.941 35.67 124.785 35.328 124.473 35.1C124.173 34.86 123.693 34.74 123.033 34.74H120.765V37.476H123.033ZM138.766 35.856V45H135.562V43.758C135.298 44.19 134.914 44.532 134.41 44.784C133.906 45.024 133.354 45.144 132.754 45.144C131.974 45.144 131.278 44.952 130.666 44.568C130.054 44.184 129.574 43.638 129.226 42.93C128.89 42.21 128.722 41.382 128.722 40.446C128.722 39.498 128.896 38.658 129.244 37.926C129.592 37.194 130.072 36.624 130.684 36.216C131.296 35.808 131.986 35.604 132.754 35.604C133.354 35.604 133.9 35.736 134.392 36C134.896 36.252 135.286 36.594 135.562 37.026V35.856H138.766ZM133.762 42.714C134.338 42.714 134.782 42.516 135.094 42.12C135.406 41.724 135.562 41.154 135.562 40.41C135.562 39.654 135.406 39.078 135.094 38.682C134.782 38.274 134.338 38.07 133.762 38.07C133.198 38.07 132.754 38.28 132.43 38.7C132.106 39.108 131.944 39.69 131.944 40.446C131.944 41.178 132.1 41.742 132.412 42.138C132.724 42.522 133.174 42.714 133.762 42.714ZM146.48 35.64C146.924 35.64 147.266 35.706 147.506 35.838V38.808C146.99 38.568 146.492 38.448 146.012 38.448C144.644 38.448 143.96 39.102 143.96 40.41V45H140.702V38.484C140.702 37.5 140.654 36.624 140.558 35.856H143.618L143.816 37.386C144.032 36.822 144.38 36.39 144.86 36.09C145.34 35.79 145.88 35.64 146.48 35.64ZM152.797 45.144C151.249 45.144 150.037 44.724 149.161 43.884C148.285 43.044 147.847 41.898 147.847 40.446C147.847 39.486 148.057 38.64 148.477 37.908C148.909 37.176 149.509 36.612 150.277 36.216C151.045 35.808 151.933 35.604 152.941 35.604C153.613 35.604 154.273 35.706 154.921 35.91C155.569 36.102 156.085 36.366 156.469 36.702L155.641 38.952C155.317 38.688 154.939 38.478 154.507 38.322C154.075 38.166 153.661 38.088 153.265 38.088C152.593 38.088 152.077 38.28 151.717 38.664C151.357 39.048 151.177 39.618 151.177 40.374C151.177 41.142 151.357 41.724 151.717 42.12C152.077 42.504 152.599 42.696 153.283 42.696C153.679 42.696 154.087 42.618 154.507 42.462C154.939 42.306 155.317 42.096 155.641 41.832L156.469 44.046C156.073 44.394 155.545 44.664 154.885 44.856C154.237 45.048 153.541 45.144 152.797 45.144Z" fill="#025949"/>
        <path d="M720.484 530.651C737.268 530.651 750.874 527.712 750.874 524.085C750.874 520.459 737.268 517.519 720.484 517.519C703.7 517.519 690.094 520.459 690.094 524.085C690.094 527.712 703.7 530.651 720.484 530.651Z" stroke="#3EE5B1" stroke-width="2" stroke-miterlimit="10"/>
        <path d="M720.484 527.478C722.262 527.378 724.003 526.484 725.092 524.822L741.113 500.351H699.854L715.876 524.822C716.964 526.484 718.705 527.378 720.484 527.478Z" fill="#FDECE0"/>
        <path d="M720.484 515.574C720.978 515.567 721.485 515.548 721.997 515.523C739.164 514.686 754.337 476.302 753.634 469.068C752.938 461.834 743.772 455.004 743.772 455.004H697.184C697.184 455.004 688.018 461.834 687.322 469.068C686.626 476.302 701.792 514.686 718.959 515.523C719.491 515.548 719.991 515.567 720.484 515.574Z" fill="#FFCDB6"/>
        <path d="M720.485 544.678C734.031 544.678 745.013 542.874 745.013 540.649C745.013 538.424 734.031 536.62 720.485 536.62C706.938 536.62 695.956 538.424 695.956 540.649C695.956 542.874 706.938 544.678 720.485 544.678Z" stroke="#3EE5B1" stroke-width="2" stroke-miterlimit="10"/>
        <path d="M720.484 556.74C727.72 556.74 733.587 555.376 733.587 553.693C733.587 552.01 727.72 550.646 720.484 550.646C713.247 550.646 707.381 552.01 707.381 553.693C707.381 555.376 713.247 556.74 720.484 556.74Z" stroke="#3EE5B1" stroke-width="2" stroke-miterlimit="10"/>
        <path d="M731.201 375.15H711.445V399.029H731.201V375.15Z" fill="#45396D"/>
        <path d="M720.484 470.661C736.708 470.661 749.861 452.737 749.861 430.627C749.861 408.517 736.708 390.593 720.484 390.593C704.259 390.593 691.106 408.517 691.106 430.627C691.106 452.737 704.259 470.661 720.484 470.661Z" fill="#45396D"/>
        <path d="M811.717 476.421C811.135 481.539 809.299 495.799 806.216 504.084C805.134 506.999 801.051 507.131 799.716 504.323C794.076 492.519 791.056 476.119 792.981 468.709C794.81 461.652 806.267 469.987 810.426 473.286C811.369 474.041 811.85 475.225 811.717 476.421Z" fill="#45396D"/>
        <path d="M783.878 399.029C790.422 399.029 795.728 390.709 795.728 380.445C795.728 370.181 790.422 361.86 783.878 361.86C777.334 361.86 772.028 370.181 772.028 380.445C772.028 390.709 777.334 399.029 783.878 399.029Z" fill="#45396D"/>
        <path d="M723.813 382.119L723.826 414.454V414.46C723.984 414.46 726.333 414.309 753.868 411.652C759.749 411.085 764.49 408.838 768.313 405.57C768.313 405.564 768.313 405.564 768.313 405.564C784.771 391.475 784.131 358.284 784.119 357.705C767.807 372.619 746.797 381.742 723.813 382.119Z" fill="#FFCDB6"/>
        <path d="M723.826 414.46C723.826 414.617 723.839 419.1 725.181 428.493C754.242 436.501 756.204 448.614 757.577 448.022C758.951 447.436 775.054 440.02 771.522 431.427C768.034 422.94 768.307 406.005 768.313 405.57C764.49 408.838 759.749 411.085 753.868 411.652C726.333 414.309 723.984 414.46 723.826 414.46Z" fill="#FDECE0"/>
        <path d="M790.803 365.373C790.803 365.373 795.355 352.442 801.811 365.373C808.268 378.304 823.251 439.409 810.749 478.574C807.312 484.492 800.083 486.343 795.728 477.019C791.373 467.695 782.018 421.121 783.879 399.023C785.74 376.925 790.803 365.373 790.803 365.373Z" fill="#FDECE0"/>
        <path d="M721.996 176.222C774.763 176.222 817.541 222.318 817.541 279.18C817.541 310.652 804.438 338.818 783.789 357.699C783.789 357.699 783.789 357.699 783.789 357.705C767.477 372.619 746.468 381.742 723.484 382.119C722.99 382.126 722.49 382.132 721.996 382.132C721.49 382.132 720.99 382.126 720.484 382.119C719.984 382.126 719.477 382.132 718.971 382.132C718.477 382.132 717.977 382.126 717.483 382.119C694.499 381.742 673.49 372.619 657.178 357.705C657.178 357.699 657.178 357.699 657.178 357.699C636.53 338.818 623.427 310.652 623.427 279.18C623.427 222.318 666.204 176.222 718.971 176.222C719.477 176.222 721.49 176.222 721.996 176.222Z" fill="#FDECE0"/>
        <path d="M719.914 271.984C684.561 272.4 660.634 268.081 651.108 268.32C637.612 268.654 640.309 300.201 658.533 332.749C673.199 358.952 694.423 368.628 719.914 367.381H720.484C745.981 368.628 767.199 358.952 781.865 332.749C800.083 300.201 802.786 268.654 789.29 268.32C779.764 268.081 755.836 272.406 720.484 271.984H719.914Z" fill="#FFCDB6"/>
        <path d="M588.549 213.681L575.003 187.119C575.003 187.119 571.667 180.673 577.162 178.721L625.206 259.336L623.699 271.103L618.591 271.027L588.549 213.681Z" fill="#45396D"/>
        <path d="M588.549 213.681C588.941 214.461 615.812 294.006 615.812 294.006L621.021 269.661L588.549 213.681Z" fill="#FFCDB6"/>
        <path d="M627.77 318.509C627.77 318.509 615.939 308.92 615.813 292.105C615.686 275.289 621.016 269.655 621.016 269.655L627.77 318.509Z" fill="#FFCDB6"/>
        <path d="M635.644 329.469C635.644 329.469 630.029 331.358 626.864 314.41C623.699 297.462 620.382 269.031 620.964 265.342C621.547 261.653 620.654 258.417 624.845 257.001C629.035 255.578 635.644 329.469 635.644 329.469Z" fill="#45396D"/>
        <path d="M852.445 213.737L865.997 187.176C865.997 187.176 869.333 180.729 863.839 178.778L815.788 259.393L817.295 271.159L822.403 271.084L852.445 213.737Z" fill="#45396D"/>
        <path d="M852.444 213.737C852.052 214.518 825.181 294.063 825.181 294.063L819.972 269.718L852.444 213.737Z" fill="#FFCDB6"/>
        <path d="M813.224 318.572C813.224 318.572 825.054 308.983 825.181 292.168C825.307 275.352 819.978 269.718 819.978 269.718L813.224 318.572Z" fill="#FFCDB6"/>
        <path d="M805.35 329.526C805.35 329.526 810.964 331.415 814.129 314.467C817.294 297.519 820.611 269.088 820.029 265.399C819.446 261.71 820.339 258.474 816.148 257.057C811.958 255.634 805.35 329.526 805.35 329.526Z" fill="#45396D"/>
        <path d="M717.471 414.46C717.471 414.454 717.471 414.454 717.471 414.454C717.471 414.454 717.49 414.46 717.471 414.46Z" fill="#03A678"/>
        <path d="M629.586 476.421C630.168 481.539 632.004 495.799 635.087 504.084C636.169 506.999 640.252 507.131 641.588 504.323C647.227 492.519 650.247 476.119 648.323 468.709C646.493 461.652 635.036 469.987 630.877 473.286C629.934 474.041 629.447 475.225 629.586 476.421Z" fill="#45396D"/>
        <path d="M657.425 399.029C663.969 399.029 669.274 390.709 669.274 380.445C669.274 370.181 663.969 361.86 657.425 361.86C650.88 361.86 645.575 370.181 645.575 380.445C645.575 390.709 650.88 399.029 657.425 399.029Z" fill="#45396D"/>
        <path d="M717.483 382.119L717.471 414.454V414.46C717.312 414.46 714.964 414.309 687.429 411.652C681.548 411.085 676.807 408.838 672.984 405.57C672.984 405.564 672.984 405.564 672.984 405.564C656.526 391.475 657.165 358.284 657.178 357.705C673.49 372.619 694.499 381.742 717.483 382.119Z" fill="#FFCDB6"/>
        <path d="M717.471 414.46C717.471 414.617 717.458 419.1 716.116 428.493C687.055 436.501 685.093 448.614 683.719 448.022C682.346 447.436 666.242 440.02 669.775 431.427C673.262 422.94 672.99 406.005 672.984 405.57C676.807 408.838 681.548 411.085 687.429 411.652C714.964 414.309 717.312 414.46 717.471 414.46Z" fill="#FDECE0"/>
        <path d="M650.5 365.373C650.5 365.373 645.949 352.442 639.492 365.373C633.036 378.304 618.053 439.409 630.554 478.574C633.991 484.492 641.22 486.343 645.575 477.019C649.93 467.695 659.286 421.121 657.425 399.023C655.564 376.925 650.5 365.373 650.5 365.373Z" fill="#FDECE0"/>
        <path d="M743.842 397.197C743.829 398.563 742.981 399.93 741.113 399.93C739.246 399.93 738.379 398.595 738.379 397.204C738.379 395.812 739.278 394.415 741.113 394.415C742.949 394.421 743.861 395.819 743.842 397.197ZM739.373 397.223C739.398 398.091 739.866 399.017 741.12 399.017C742.373 399.017 742.842 398.079 742.861 397.21C742.873 396.316 742.373 395.321 741.12 395.321C739.866 395.328 739.347 396.329 739.373 397.223Z" fill="#FDECE0"/>
        <path d="M747.001 396.706L748.412 394.522H749.621V394.566L747.501 397.625V399.81H746.501V397.625L744.456 394.566V394.522H745.646L747.001 396.706Z" fill="#FDECE0"/>
        <path d="M754.4 398.815H751.621L751.165 399.81H750.076L752.463 394.522H753.558L755.944 399.81H754.849L754.4 398.815ZM753.013 395.636L752.026 397.884H754.001L753.013 395.636Z" fill="#FDECE0"/>
        <path d="M714.736 160.149C719.997 150.473 726.048 156.749 731.834 140.796C737.619 124.843 725.434 118 725.434 118C729.827 124.699 728.074 139.267 712.255 146.255C696.437 153.249 700.83 168.107 709.324 175.391C717.446 182.347 719.332 187.938 719.724 188.486C719.085 187.516 709.616 169.574 714.736 160.149Z" fill="#3EE5B1"/>
        <path d="M728.143 121.425C728.143 121.425 736.568 128.709 730.896 143.365C725.225 158.027 721.288 151.694 716.553 160.47C711.938 169.02 719.344 187.522 719.73 188.479C719.737 188.486 719.737 188.492 719.737 188.498C719.648 188.032 717.857 178.967 720.705 168.698C723.642 158.16 733.53 160.168 737.106 147.47C740.689 134.771 725.472 114.808 728.143 121.425Z" fill="#3EE5B1"/>
        <path d="M747.234 333.832C746.518 333.524 746.075 332.863 745.765 332.189C745.12 330.791 744.221 330.048 742.619 330.577C742.575 330.59 742.524 330.59 742.48 330.584C740.859 330.206 740.024 331.037 739.543 332.447C739.429 332.781 739.233 333.089 739.049 333.391C738.334 334.606 736.91 335.06 735.65 334.418C732.504 332.825 729.371 331.213 726.244 329.589C724.99 328.934 724.528 327.511 725.136 326.24C725.503 325.472 725.902 324.71 726.313 323.967C726.529 323.583 726.522 323.281 726.244 322.934C725.649 322.192 725.123 321.398 724.693 320.548C724.478 320.12 724.155 320.001 723.705 320.032C722.92 320.083 722.136 320.127 721.351 320.133C719.749 320.139 718.66 319.182 718.565 317.589C718.369 314.158 718.211 310.721 718.084 307.29C718.027 305.735 719.009 304.696 720.585 304.558C721.389 304.488 722.205 304.463 723.015 304.444C723.452 304.432 723.705 304.255 723.895 303.865C724.319 302.99 724.769 302.127 725.237 301.278C725.433 300.919 725.421 300.635 725.187 300.295C724.731 299.628 724.288 298.954 723.876 298.256C723.066 296.896 723.319 295.511 724.642 294.648C727.548 292.747 730.478 290.877 733.428 289.039C734.77 288.208 736.144 288.535 737.062 289.82C737.562 290.512 738.011 291.242 738.46 291.966C738.65 292.269 738.866 292.382 739.22 292.332C740.239 292.187 741.258 292.13 742.284 292.18C742.67 292.199 742.898 292.042 743.069 291.702C743.436 290.959 743.822 290.222 744.214 289.492C744.923 288.183 746.367 287.666 747.683 288.327C750.81 289.901 753.924 291.5 757.026 293.125C758.374 293.83 758.799 295.303 758.128 296.663C757.773 297.387 757.4 298.105 757.013 298.81C756.817 299.162 756.798 299.458 757.058 299.785C757.678 300.572 758.197 301.422 758.659 302.304C758.837 302.644 759.071 302.77 759.457 302.738C760.191 302.675 760.932 302.656 761.672 302.625C763.527 302.543 764.647 303.475 764.749 305.3C764.939 308.662 765.103 312.024 765.236 315.386C765.299 317.029 764.261 318.106 762.596 318.219C761.837 318.269 761.071 318.307 760.311 318.32C759.913 318.326 759.653 318.465 759.469 318.842C759.033 319.736 758.571 320.624 758.09 321.499C757.887 321.864 757.925 322.16 758.147 322.487C758.583 323.142 759.007 323.797 759.419 324.464C760.242 325.818 759.976 327.272 758.64 328.141C755.754 330.03 752.836 331.868 749.918 333.712C749.076 334.248 748.177 334.348 747.234 333.832ZM736.707 320.97C741.524 323.558 748.335 322.122 751.317 316.311C754.368 310.356 751.393 304.18 746.613 301.769C741.277 299.074 734.688 301.158 731.972 306.44C729.238 311.76 731.346 318.232 736.707 320.97Z" fill="white"/>
        <path d="M722.497 332.202C722.003 333.247 721.155 333.524 720.199 333.643C718.711 333.832 717.604 335.009 717.54 336.432C717.515 337.011 717.952 337.364 718.256 337.773C719.623 339.611 719.509 340.524 717.718 341.89C715.933 343.25 714.148 344.604 712.356 345.951C710.983 346.984 709.913 346.839 708.837 345.498C707.609 343.968 707.058 343.811 705.172 344.352C704.602 344.516 704.475 344.969 704.286 345.397C703.159 347.909 702.368 348.224 699.798 347.16C697.981 346.411 696.164 345.668 694.354 344.9C692.417 344.075 692.043 343.156 692.828 341.229C693.328 340.008 692.676 338.044 691.556 337.465C691.056 337.213 690.531 337.446 690.024 337.509C687.891 337.767 687.138 337.225 686.847 335.123C686.536 332.913 686.245 330.697 685.992 328.475C685.777 326.567 686.372 325.824 688.245 325.509C689.853 325.245 690.708 324.351 690.955 322.746C691.043 322.185 690.67 321.858 690.391 321.48C688.872 319.396 688.992 318.609 691.075 317.042C692.733 315.789 694.392 314.524 696.044 313.264C697.569 312.106 698.563 312.219 699.741 313.68C700.855 315.059 701.849 315.317 703.545 314.725C704.14 314.517 704.229 313.976 704.425 313.516C705.431 311.206 706.058 310.941 708.394 311.911C710.394 312.736 712.394 313.56 714.394 314.404C716.047 315.103 716.642 316.141 715.8 317.715C714.914 319.371 715.819 320.309 716.692 321.392C717.104 321.908 717.642 321.713 718.142 321.656C720.845 321.342 721.389 321.757 721.75 324.464C722.022 326.523 722.288 328.582 722.566 330.634C722.655 331.213 722.668 331.761 722.497 332.202ZM704.355 321.417C699.741 321.386 696.006 325.018 695.993 329.539C695.981 333.977 699.671 337.71 704.165 337.811C708.609 337.905 712.432 334.185 712.476 329.727C712.514 325.075 708.97 321.442 704.355 321.417Z" fill="white"/>
        <path d="M1140.37 533C1140.37 533 1132.55 566.347 1163.84 564.957C1195.14 563.567 1140.37 545.043 1140.37 533Z" fill="#025949"/>
        <path d="M1184.37 504.999C1184.37 504.999 1176.55 471.652 1207.84 473.042C1239.14 474.432 1184.37 492.956 1184.37 504.999Z" fill="#03A678"/>
        <path d="M1306.57 466.712C1306.57 466.712 1302.93 440.224 1318.25 432.743C1318.25 432.743 1324.82 445.555 1306.57 466.712Z" fill="#025949"/>
        <path d="M1283.9 531.431C1283.9 531.431 1256.1 537.398 1246.95 521.741C1246.95 521.741 1260.01 513.758 1283.9 531.431Z" fill="#03A678"/>
        <path d="M1592 257L1588.92 274.044L1605.22 268.19L1592 257ZM1438 454L1438.9 455.197L1438 454ZM867 660.5L882.459 668.311L881.494 651.017L867 660.5ZM1595.08 269.923C1596.96 282.337 1592.37 296.818 1583.12 312.497C1573.88 328.143 1560.12 344.776 1543.99 361.414C1511.73 394.684 1470.21 427.782 1437.1 452.803L1438.9 455.197C1472.05 430.156 1513.72 396.945 1546.14 363.502C1562.35 346.782 1576.29 329.956 1585.7 314.022C1595.09 298.122 1600.08 282.902 1598.04 269.473L1595.08 269.923ZM1437.1 452.803C1392.56 486.452 1342.57 486.876 1286.28 485.688C1230.08 484.501 1167.76 481.726 1099.43 509.611L1100.57 512.389C1168.24 484.774 1229.92 487.499 1286.22 488.687C1342.43 489.874 1393.44 489.548 1438.9 455.197L1437.1 452.803ZM1099.43 509.611C1033.49 536.523 1007.35 571.565 983.314 600.882C971.308 615.524 959.906 628.635 944.357 638.711C928.835 648.77 909.085 655.863 880.338 658.254L880.586 661.243C909.735 658.819 929.982 651.602 945.988 641.229C961.966 630.875 973.621 617.435 985.633 602.784C1009.63 573.514 1035.37 538.996 1100.57 512.389L1099.43 509.611Z" fill="#00FFF0"/>
        <circle cx="237.5" cy="40.5" r="17.5" fill="#FFCDB6"/>
        <path d="M232 33L228 38L232 43" stroke="white" stroke-width="2" stroke-linecap="round" stroke-linejoin="round"/>
        <path d="M228.5 38H240.5C243.261 38 245.5 40.2386 245.5 43V43C245.5 45.7614 243.261 48 240.5 48H238" stroke="white" stroke-width="2" stroke-linecap="round"/>
    </g>
    <defs>
        <linearGradient id="paint0_linear" x1="214.752" y1="352.095" x2="1709.39" y2="81.1562" gradientUnits="userSpaceOnUse">
            <stop stop-color="white"/>
            <stop offset="1" stop-color="#FDECE0"/>
        </linearGradient>
        <linearGradient id="paint1_linear" x1="468.758" y1="374.143" x2="1572.76" y2="174.015" gradientUnits="userSpaceOnUse">
            <stop stop-color="white"/>
            <stop offset="1" stop-color="#FDECE0"/>
        </linearGradient>
        <clipPath id="clip0">
            <rect width="1440" height="800" fill="white"/>
        </clipPath>
    </defs>
</svg>
