<svg width="1440" height="800" viewBox="0 0 1440 800" fill="none" xmlns="http://www.w3.org/2000/svg">
    <rect width="1440" height="800" fill="white"/>
    <circle cx="98.5" cy="41.5" r="17.5" fill="#FFCDB6"/>
    <path d="M98.5 34V49" stroke="white" stroke-width="2" stroke-miterlimit="10" stroke-linecap="round"/>
    <path d="M106 41.5H91" stroke="white" stroke-width="2" stroke-miterlimit="10" stroke-linecap="round"/>
    <circle cx="195.5" cy="41.5" r="17.5" fill="#FFCDB6"/>
    <path d="M190 34L186 39L190 44" stroke="white" stroke-width="2" stroke-linecap="round" stroke-linejoin="round"/>
    <path d="M186.5 39H198.5C201.261 39 203.5 41.2386 203.5 44V44C203.5 46.7614 201.261 49 198.5 49H196" stroke="white" stroke-width="2" stroke-linecap="round"/>
    <path d="M38.8072 58.1173C35.8812 56.4689 33.3991 54.0969 31.6435 51.2625C32.3094 45.855 33.0964 40.9903 34.0045 38.5177C32.9955 40.8295 31.4821 44.6489 30.352 48.7698C29.7265 47.3426 29.2825 45.855 29 44.2871C30.352 41.2516 32.0269 38.8796 34.065 36.7689C34.4484 36.3668 34.7511 36.206 35.0336 36.2261C35.3161 36.2462 35.5785 36.4874 35.8812 36.9699C38.1009 40.6687 39.4327 44.669 39.6749 49.011C39.7556 50.3177 39.4731 54.7803 38.8072 58.1173Z" fill="#45396D"/>
    <path d="M40.8249 35.3215C38.242 36.5879 35.1142 35.5627 33.8025 32.9897C32.4707 30.4568 33.52 27.2203 36.0424 25.9338C38.6254 24.6272 41.7128 25.6725 43.0648 28.2657C44.3765 30.8789 43.3877 34.035 40.8249 35.3215Z" fill="#45396D"/>
    <path d="M42.6011 38.8595C42.5204 36.5879 44.4374 34.5777 46.6975 34.5375C48.998 34.4772 50.9352 36.3467 50.9553 38.6585C50.9957 41.0506 49.2805 42.8598 46.8993 42.9603C44.6594 43.0206 42.6616 41.131 42.6011 38.8595Z" fill="#45396D"/>
    <path d="M42.0762 44.5886C42.2377 43.8448 42.3789 43.3824 42.6009 43.1412C42.6009 43.1412 43.6301 53.9159 45.8094 60.4893C45.7287 60.4893 45.6682 60.4692 45.5875 60.4491C45.5673 60.4692 45.5471 60.4491 45.5269 60.4491C45.0023 60.228 44.4978 60.0069 43.9933 59.7657C43.3274 58.9415 42.8431 57.9766 42.5202 56.9112C41.8139 54.6999 41.5112 52.4284 41.4507 50.3378C41.491 48.2271 41.6928 46.4179 42.0762 44.5886Z" fill="#45396D"/>
    <path d="M50.6526 60.5497C47.8679 56.5493 43.5293 49.5337 42.6011 43.1412C42.9239 42.7794 43.4083 42.9804 44.3567 43.6036C50.2894 47.5034 53.7199 52.9109 55.1325 59.5647C53.6997 60.0471 52.2065 60.3888 50.6526 60.5497Z" fill="#45396D"/>
    <path d="M50.9347 30.6176C49.6231 28.0646 50.6522 24.8483 53.1747 23.5618C54.6074 22.8381 56.2217 22.8381 57.5738 23.4211C57.7957 23.5216 57.9975 23.6422 58.1993 23.7628C59.0267 24.2653 59.7128 24.989 60.1971 25.8936C61.5289 28.4868 60.5401 31.6428 57.9773 32.9092C55.4146 34.2159 52.2666 33.1907 50.9347 30.6176Z" fill="#45396D"/>
    <path d="M63.9102 53.3129C65.4236 46.1163 65.464 37.9549 65.3429 33.5324C65.121 40.5883 62.0739 50.6996 59.8945 57.0921C58.9057 57.7957 57.8564 58.3987 56.7465 58.9013C56.1008 55.9865 54.9909 53.2124 53.5178 50.4986C52.2667 48.207 52.2062 45.7545 53.3564 43.3422C55.7779 38.2966 58.9864 34.1556 63.5268 30.7784C64.0918 30.3563 64.5559 30.1955 64.899 30.296C65.0806 30.3563 65.2017 30.4769 65.3429 30.6779C65.4842 30.8789 65.6254 31.1202 65.8071 31.4016C66.0088 31.7232 66.2106 32.0449 66.3721 32.4067C66.5335 32.7283 66.6748 33.0701 66.816 33.3917C66.9573 33.7334 67.0784 34.0752 67.2196 34.4169C67.3205 34.7385 67.4416 35.0803 67.5425 35.422C67.5627 35.4823 67.5828 35.5225 67.603 35.5828C67.6837 35.8844 67.7645 36.1859 67.8452 36.5075C67.9259 36.8694 68.0066 37.2111 68.0671 37.593C68.2488 38.6987 68.3497 39.8043 68.3497 40.9702C68.3093 45.6339 66.6546 49.9357 63.9102 53.3129Z" fill="#45396D"/>
    <path d="M38.8072 58.1173C35.8812 56.4689 33.3991 54.0969 31.6435 51.2625C32.3094 45.855 33.0964 40.9903 34.0045 38.5177C32.9955 40.8295 31.4821 44.6489 30.352 48.7698C29.7265 47.3426 29.2825 45.855 29 44.2871C30.352 41.2516 32.0269 38.8796 34.065 36.7689C34.4484 36.3668 34.7511 36.206 35.0336 36.2261C35.3161 36.2462 35.5785 36.4874 35.8812 36.9699C38.1009 40.6687 39.4327 44.669 39.6749 49.011C39.7556 50.3177 39.4731 54.7803 38.8072 58.1173Z" fill="#04D99D"/>
    <path d="M63.9102 53.3129C65.4236 46.1163 65.464 37.9549 65.3429 33.5324C65.121 40.5883 62.0739 50.6996 59.8945 57.0921C58.9057 57.7957 57.8564 58.3987 56.7465 58.9013C56.1008 55.9865 54.9909 53.2124 53.5178 50.4986C52.2667 48.207 52.2062 45.7545 53.3564 43.3422C55.7779 38.2966 58.9864 34.1556 63.5268 30.7784C64.0918 30.3563 64.5559 30.1955 64.899 30.296C65.0806 30.3563 65.2017 30.4769 65.3429 30.6779C65.4842 30.8789 65.6254 31.1202 65.8071 31.4016C66.0088 31.7232 66.2106 32.0449 66.3721 32.4067C66.5335 32.7283 66.6748 33.0701 66.816 33.3917C66.9573 33.7334 67.0784 34.0752 67.2196 34.4169C67.3205 34.7385 67.4416 35.0803 67.5425 35.422C67.5627 35.4823 67.5828 35.5225 67.603 35.5828C67.6837 35.8844 67.7645 36.1859 67.8452 36.5075C67.9259 36.8694 68.0066 37.2111 68.0671 37.593C68.2488 38.6987 68.3497 39.8043 68.3497 40.9702C68.3093 45.6339 66.6546 49.9357 63.9102 53.3129Z" fill="#04D99D"/>
    <path d="M45.8096 60.5496C45.7289 60.5094 45.6482 60.4893 45.5674 60.4491C45.5473 60.4692 45.5271 60.4491 45.5069 60.4491C44.9822 60.228 44.4778 60.0069 43.9733 59.7657C43.3073 58.9415 42.823 57.9766 42.5002 56.9112C41.7939 54.6999 41.4912 52.4284 41.4307 50.3378C41.471 48.2271 41.6728 46.4179 42.0562 44.5886C42.2177 43.8448 42.3589 43.3824 42.5809 43.1412C42.5809 43.1412 43.61 53.9159 45.7894 60.4893C45.7894 60.4893 45.8096 60.5295 45.8096 60.5496Z" fill="#04D99D"/>
    <path d="M55.112 59.5445C53.6994 60.0471 52.1859 60.3888 50.6321 60.5497C47.8474 56.5493 43.5088 49.5337 42.5806 43.1412C42.9034 42.7794 43.3877 42.9804 44.3362 43.6036C50.2891 47.5034 53.6994 52.9109 55.112 59.5445Z" fill="#04D99D"/>
    <path d="M57.9773 32.9294C55.3944 34.236 52.2464 33.1907 50.9347 30.6377C49.6231 28.0848 50.6522 24.8684 53.1747 23.5819C54.6074 22.8582 56.2217 22.8582 57.5738 23.4412C57.7957 23.5417 57.9975 23.6623 58.1993 23.7829C59.0267 24.2855 59.7128 25.0091 60.1971 25.9137C61.5289 28.5069 60.5401 31.6428 57.9773 32.9294Z" fill="#FFCDB6"/>
    <path d="M40.8249 35.3215C38.242 36.5879 35.1142 35.5627 33.8025 32.9897C32.4707 30.4568 33.52 27.2203 36.0424 25.9338C38.6254 24.6272 41.7128 25.6725 43.0648 28.2657C44.3765 30.8789 43.3877 34.035 40.8249 35.3215Z" fill="#FFCDB6"/>
    <path d="M50.9553 38.6585C50.9957 41.0506 49.2805 42.8598 46.8993 42.9603C44.6594 43.0407 42.6818 41.1511 42.6011 38.8595C42.5204 36.5879 44.4374 34.5777 46.6975 34.5375C48.998 34.4973 50.9352 36.3467 50.9553 38.6585Z" fill="#FFCDB6"/>
    <circle cx="147.5" cy="41.5" r="17.5" fill="#FFCDB6"/>
    <path d="M149.659 30.194C148.941 29.8576 148.117 29.964 147.508 30.4717L141.82 35.2115H138.021C136.907 35.2115 136 36.1185 136 37.233V45.7674C136 46.882 136.907 47.7889 138.021 47.7889H141.82L147.508 52.5287C148.117 53.0368 148.942 53.1424 149.659 52.8064C150.377 52.4699 150.823 51.7686 150.823 50.9758V32.0247C150.823 31.2318 150.377 30.5301 149.659 30.194ZM141.39 46.4498H138.021C137.65 46.4498 137.348 46.1385 137.348 45.767V37.233C137.348 36.8615 137.65 36.5592 138.021 36.5592H141.39V46.4498ZM149.476 50.9758C149.476 51.3733 149.179 51.5431 149.088 51.5858C148.996 51.6285 148.676 51.748 148.371 51.4933L142.738 46.7993V36.2007L148.371 31.5067C148.676 31.252 148.997 31.3715 149.088 31.4142C149.179 31.4568 149.476 31.6266 149.476 32.0242V50.9758Z" fill="white"/>
    <path d="M156.584 42.4397L158.803 40.2209C159.066 39.9577 159.066 39.5314 158.803 39.2681C158.539 39.0049 158.113 39.0049 157.85 39.2681L155.631 41.4869L153.412 39.2681C153.149 39.0049 152.723 39.0049 152.46 39.2681C152.196 39.5314 152.196 39.9577 152.46 40.2209L154.678 42.4397L152.46 44.6584C152.196 44.9216 152.196 45.348 152.46 45.6112C152.723 45.8745 153.149 45.8745 153.412 45.6112L155.631 43.3925L157.85 45.6112C158.113 45.8745 158.539 45.8745 158.803 45.6112C159.066 45.348 159.066 44.9216 158.803 44.6584L156.584 42.4397Z" fill="white"/>
</svg>
