<svg width="50" height="50" viewBox="0 0 50 50" fill="none" xmlns="http://www.w3.org/2000/svg">
    <circle cx="25" cy="25" r="25" fill="#45396D"/>
    <path d="M19.6476 16.7619C20.0685 16.4043 20.1196 15.7732 19.7619 15.3524C19.4043 14.9315 18.7732 14.8804 18.3524 15.2381L19.6476 16.7619ZM9 24.5L8.35235 23.7381C8.12882 23.9281 8 24.2066 8 24.5C8 24.7934 8.12882 25.0719 8.35235 25.2619L9 24.5ZM18.3524 33.7619C18.7732 34.1196 19.4043 34.0685 19.7619 33.6476C20.1196 33.2268 20.0685 32.5957 19.6476 32.2381L18.3524 33.7619ZM18.3524 15.2381L8.35235 23.7381L9.64765 25.2619L19.6476 16.7619L18.3524 15.2381ZM8.35235 25.2619L18.3524 33.7619L19.6476 32.2381L9.64765 23.7381L8.35235 25.2619Z" fill="white"/>
    <path d="M30.3134 16.727C29.9119 16.3478 29.8938 15.7149 30.273 15.3134C30.6522 14.9119 31.2851 14.8938 31.6866 15.273L30.3134 16.727ZM40 24.5L40.6866 23.773C40.8866 23.9619 41 24.2249 41 24.5C41 24.7751 40.8866 25.0381 40.6866 25.227L40 24.5ZM31.6866 33.727C31.2851 34.1062 30.6522 34.0881 30.273 33.6866C29.8938 33.2851 29.9119 32.6522 30.3134 32.273L31.6866 33.727ZM31.6866 15.273L40.6866 23.773L39.3134 25.227L30.3134 16.727L31.6866 15.273ZM40.6866 25.227L31.6866 33.727L30.3134 32.273L39.3134 23.773L40.6866 25.227Z" fill="white"/>
</svg>
