<svg width="18" height="253" viewBox="0 0 18 253" fill="none" xmlns="http://www.w3.org/2000/svg">
    <path d="M9 5L9 124" stroke="#FFCDB6" stroke-width="2"/>
    <path d="M9 196L9 244" stroke="#FFCDB6" stroke-width="2"/>
    <circle cx="9" cy="244" r="9" transform="rotate(90 9 244)" fill="#04D99D"/>
    <circle cx="9" cy="205" r="9" transform="rotate(90 9 205)" fill="#04D99D"/>
    <circle cx="9" cy="126" r="9" transform="rotate(90 9 126)" fill="#025949"/>
    <circle cx="9" cy="87" r="9" transform="rotate(90 9 87)" fill="#04D99D"/>
    <circle cx="9" cy="9" r="9" transform="rotate(90 9 9)" fill="#04D99D"/>
    <path d="M12 180.072C12 180.225 11.9367 180.335 11.81 180.402C11.6833 180.468 11.56 180.475 11.44 180.422L4.46 177.482C4.28 177.408 4.19 177.282 4.19 177.102C4.19 176.928 4.28 176.805 4.46 176.732L11.45 173.782C11.5767 173.722 11.7 173.732 11.82 173.812C11.94 173.885 12 173.992 12 174.132C12 174.212 11.98 174.285 11.94 174.352C11.9 174.412 11.84 174.462 11.76 174.502L5.09 177.252L5.09 176.942L11.76 179.712C11.84 179.745 11.9 179.795 11.94 179.862C11.98 179.922 12 179.992 12 180.072ZM10.14 179.412L9.47 179.112L9.47 175.052L10.14 174.752L10.14 179.412ZM12.05 170.466C12.05 170.992 11.93 171.462 11.69 171.876C11.4433 172.282 11.11 172.606 10.69 172.846C10.27 173.079 9.79667 173.196 9.27 173.196C8.73667 173.196 8.26 173.082 7.84 172.856C7.42 172.629 7.09 172.319 6.85 171.926C6.60333 171.532 6.48 171.079 6.48 170.566C6.48 170.159 6.56 169.786 6.72 169.446C6.88 169.099 7.12 168.796 7.44 168.536C7.52 168.462 7.60667 168.436 7.7 168.456C7.78667 168.476 7.86333 168.532 7.93 168.626C7.98333 168.699 8.00333 168.782 7.99 168.876C7.97 168.962 7.92 169.039 7.84 169.106C7.4 169.492 7.18 169.979 7.18 170.566C7.18 170.939 7.27 171.269 7.45 171.556C7.63 171.836 7.87667 172.056 8.19 172.216C8.50333 172.369 8.86333 172.446 9.27 172.446C9.67 172.446 10.0267 172.362 10.34 172.196C10.6533 172.029 10.9 171.796 11.08 171.496C11.26 171.196 11.35 170.852 11.35 170.466C11.35 170.206 11.3167 169.969 11.25 169.756C11.1767 169.536 11.0667 169.342 10.92 169.176C10.8533 169.096 10.8167 169.012 10.81 168.926C10.8033 168.839 10.83 168.759 10.89 168.686C10.9633 168.606 11.0467 168.562 11.14 168.556C11.2333 168.542 11.3133 168.572 11.38 168.646C11.8267 169.132 12.05 169.739 12.05 170.466ZM12.05 164.509C12.05 165.035 11.93 165.505 11.69 165.919C11.4433 166.325 11.11 166.649 10.69 166.889C10.27 167.122 9.79667 167.239 9.27 167.239C8.73667 167.239 8.26 167.125 7.84 166.899C7.42 166.672 7.09 166.362 6.85 165.969C6.60333 165.575 6.48 165.122 6.48 164.609C6.48 164.202 6.56 163.829 6.72 163.489C6.88 163.142 7.12 162.839 7.44 162.579C7.52 162.505 7.60667 162.479 7.7 162.499C7.78667 162.519 7.86333 162.575 7.93 162.669C7.98333 162.742 8.00333 162.825 7.99 162.919C7.97 163.005 7.92 163.082 7.84 163.149C7.4 163.535 7.18 164.022 7.18 164.609C7.18 164.982 7.27 165.312 7.45 165.599C7.63 165.879 7.87667 166.099 8.19 166.259C8.50333 166.412 8.86333 166.489 9.27 166.489C9.67 166.489 10.0267 166.405 10.34 166.239C10.6533 166.072 10.9 165.839 11.08 165.539C11.26 165.239 11.35 164.895 11.35 164.509C11.35 164.249 11.3167 164.012 11.25 163.799C11.1767 163.579 11.0667 163.385 10.92 163.219C10.8533 163.139 10.8167 163.055 10.81 162.969C10.8033 162.882 10.83 162.802 10.89 162.729C10.9633 162.649 11.0467 162.605 11.14 162.599C11.2333 162.585 11.3133 162.615 11.38 162.689C11.8267 163.175 12.05 163.782 12.05 164.509ZM12.05 158.512C12.05 159.052 11.9333 159.532 11.7 159.952C11.46 160.365 11.13 160.692 10.71 160.932C10.29 161.165 9.81 161.282 9.27 161.282C8.72333 161.282 8.24333 161.172 7.83 160.952C7.41 160.725 7.08 160.415 6.84 160.022C6.6 159.628 6.48 159.175 6.48 158.662C6.48 158.155 6.59667 157.715 6.83 157.342C7.05667 156.962 7.37333 156.668 7.78 156.462C8.18667 156.255 8.65 156.152 9.17 156.152C9.27667 156.152 9.36333 156.185 9.43 156.252C9.49 156.318 9.52 156.405 9.52 156.512L9.52 160.762L8.88 160.762L8.88 156.432L9.19 156.862C8.80333 156.855 8.45667 156.925 8.15 157.072C7.84333 157.218 7.60333 157.428 7.43 157.702C7.25667 157.968 7.17 158.288 7.17 158.662C7.17 159.042 7.26 159.375 7.44 159.662C7.62 159.948 7.87 160.172 8.19 160.332C8.50333 160.485 8.86333 160.562 9.27 160.562C9.67667 160.562 10.0367 160.475 10.35 160.302C10.6633 160.122 10.91 159.878 11.09 159.572C11.27 159.265 11.36 158.912 11.36 158.512C11.36 158.272 11.32 158.032 11.24 157.792C11.1533 157.545 11.0467 157.348 10.92 157.202C10.86 157.128 10.83 157.045 10.83 156.952C10.8233 156.858 10.8467 156.778 10.9 156.712C10.98 156.625 11.0667 156.582 11.16 156.582C11.2533 156.575 11.3333 156.612 11.4 156.692C11.5867 156.912 11.7433 157.192 11.87 157.532C11.99 157.872 12.05 158.198 12.05 158.512ZM5.64 158.722C5.64 158.822 5.60333 158.908 5.53 158.982L4.41 160.112C4.33 160.178 4.24 160.212 4.14 160.212C4.02667 160.212 3.93333 160.175 3.86 160.102C3.78 160.028 3.74 159.938 3.74 159.832C3.74 159.725 3.78 159.632 3.86 159.552L4.99 158.432C5.04333 158.365 5.12667 158.332 5.24 158.332C5.35333 158.332 5.45 158.368 5.53 158.442C5.60333 158.515 5.64 158.608 5.64 158.722ZM12.05 152.939C12.05 153.332 11.9833 153.722 11.85 154.109C11.7167 154.496 11.5167 154.809 11.25 155.049C11.17 155.122 11.08 155.152 10.98 155.139C10.88 155.126 10.7933 155.076 10.72 154.989C10.6533 154.896 10.6267 154.799 10.64 154.699C10.6533 154.599 10.6967 154.516 10.77 154.449C10.9567 154.289 11.1 154.079 11.2 153.819C11.3 153.552 11.35 153.259 11.35 152.939C11.35 152.446 11.2667 152.089 11.1 151.869C10.9267 151.649 10.72 151.536 10.48 151.529C10.24 151.529 10.0433 151.642 9.89 151.869C9.73 152.096 9.60667 152.469 9.52 152.989C9.41333 153.662 9.22667 154.156 8.96 154.469C8.69333 154.782 8.37667 154.939 8.01 154.939C7.67 154.939 7.38667 154.849 7.16 154.669C6.93333 154.489 6.76333 154.249 6.65 153.949C6.53667 153.649 6.48 153.319 6.48 152.959C6.48 152.512 6.55667 152.129 6.71 151.809C6.86333 151.482 7.07 151.219 7.33 151.019C7.41667 150.952 7.50667 150.926 7.6 150.939C7.69333 150.952 7.77 151.006 7.83 151.099C7.87667 151.179 7.89333 151.272 7.88 151.379C7.86 151.479 7.81 151.566 7.73 151.639C7.53667 151.806 7.39667 151.999 7.31 152.219C7.21667 152.439 7.17 152.692 7.17 152.979C7.17 153.346 7.24667 153.639 7.4 153.859C7.54667 154.079 7.73333 154.189 7.96 154.189C8.11333 154.189 8.24667 154.149 8.36 154.069C8.47333 153.982 8.57333 153.839 8.66 153.639C8.74667 153.432 8.82 153.146 8.88 152.779C8.96 152.279 9.08 151.886 9.24 151.599C9.39333 151.306 9.57667 151.099 9.79 150.979C9.99667 150.852 10.2233 150.789 10.47 150.789C10.7833 150.789 11.06 150.882 11.3 151.069C11.5333 151.249 11.7167 151.502 11.85 151.829C11.9833 152.149 12.05 152.519 12.05 152.939Z" fill="#45396D"/>
    <circle cx="9" cy="48" r="9" transform="rotate(90 9 48)" fill="#04D99D"/>
</svg>
