<svg width="1440" height="230" viewBox="0 0 1440 230" fill="none" xmlns="http://www.w3.org/2000/svg">
<path d="M589.5 154.646C387.449 128.908 111.5 141.184 0 132.761V230H1440V133.658C1120.5 154.414 864 189.614 589.5 154.646Z" fill="#025949"/>
<path opacity="0.1" d="M1399.75 258.053C1398.51 252.866 1396.15 250.352 1392.56 246.96C1396.65 240.435 1398.54 232.293 1395.12 225.062C1393.24 221.102 1390.02 218.673 1386.4 216.719C1386.13 210.087 1384.44 205.227 1380.16 199.662C1371.37 188.246 1358.06 184.886 1344.16 189.026C1339.63 181.886 1335.54 174.195 1331.26 167.146C1330.1 165.226 1328.72 165.106 1326.91 166.121C1323.93 167.791 1319.89 170.282 1317.1 172.265C1315.4 173.473 1314.77 174.746 1315.9 176.775C1320.07 184.229 1324.8 190.505 1330.41 197.061C1322.31 205.441 1318.77 220.731 1326.86 230.162C1330.81 234.759 1335.97 235.466 1341.56 235.627C1340.85 238.855 1340.42 241.868 1341.26 245.233C1342.8 251.374 1347.43 256.169 1353.08 258.833C1351.17 262.824 1348.77 266.456 1349.87 271.206C1352.74 283.58 1367.22 286.765 1378.75 284.305C1390.27 281.85 1402.97 271.559 1399.75 258.053Z" fill="#025949"/>
<path d="M1329.99 175.155H1318.46C1316.74 175.155 1315.33 173.747 1315.33 172.025V68.429C1315.33 66.7072 1316.74 65.2985 1318.46 65.2985H1329.99C1331.71 65.2985 1333.12 66.7072 1333.12 68.429V172.025C1333.12 173.747 1331.71 175.155 1329.99 175.155Z" fill="#FFCDB6"/>
<path d="M1324.22 137.787C1344.23 137.787 1360.45 121.56 1360.45 101.543C1360.45 81.5255 1344.23 65.2985 1324.22 65.2985C1304.22 65.2985 1288 81.5255 1288 101.543C1288 121.56 1304.22 137.787 1324.22 137.787Z" fill="#03A678"/>
<path d="M1324.22 97.4598C1341.98 97.4598 1356.37 83.0607 1356.37 65.2984C1356.37 47.5362 1341.98 33.1371 1324.22 33.1371C1306.47 33.1371 1292.08 47.5362 1292.08 65.2984C1292.08 83.0607 1306.47 97.4598 1324.22 97.4598Z" fill="#03A678"/>
<path d="M1324.22 53.0266C1338.86 53.0266 1350.72 41.1562 1350.72 26.5133C1350.72 11.8704 1338.86 0 1324.22 0C1309.59 0 1297.73 11.8704 1297.73 26.5133C1297.73 41.1562 1309.59 53.0266 1324.22 53.0266Z" fill="#03A678"/>
</svg>
