<svg width="113" height="230" viewBox="0 0 113 230" fill="none" xmlns="http://www.w3.org/2000/svg">
    <path opacity="0.1" d="M111.746 258.053C110.51 252.866 108.145 250.352 104.558 246.96C108.646 240.435 110.539 232.293 107.118 225.062C105.243 221.102 102.021 218.673 98.3964 216.719C98.1331 210.087 96.4435 205.227 92.1596 199.662C83.3703 188.246 70.0571 184.886 56.1574 189.026C51.6284 181.886 47.5375 174.195 43.264 167.146C42.0985 165.226 40.7219 165.106 38.9071 166.121C35.9269 167.791 31.8882 170.282 29.0983 172.265C27.3983 173.473 26.7673 174.746 27.9041 176.775C32.0707 184.229 36.803 190.505 42.414 197.061C34.3104 205.441 30.767 220.731 38.8602 230.162C42.8051 234.759 47.9703 235.466 53.5605 235.627C52.8513 238.855 52.4184 241.868 53.2606 245.233C54.7963 251.374 59.4322 256.169 65.0797 258.833C63.1685 262.824 60.7672 266.456 61.8701 271.206C64.7408 283.58 79.2194 286.765 90.7465 284.305C102.274 281.85 114.966 271.559 111.746 258.053Z" fill="#025949"/>
    <path d="M41.9889 175.155H30.4618C28.741 175.155 27.333 173.747 27.333 172.025V68.429C27.333 66.7072 28.741 65.2985 30.4618 65.2985H41.9889C43.7098 65.2985 45.1177 66.7072 45.1177 68.429V172.025C45.1177 173.747 43.7098 175.155 41.9889 175.155Z" fill="#FFCDB6"/>
    <path d="M36.2239 137.787C56.2298 137.787 72.4478 121.56 72.4478 101.543C72.4478 81.5255 56.2298 65.2985 36.2239 65.2985C16.218 65.2985 0 81.5255 0 101.543C0 121.56 16.218 137.787 36.2239 137.787Z" fill="#03A678"/>
    <path d="M36.224 97.4598C53.9763 97.4598 68.3674 83.0607 68.3674 65.2984C68.3674 47.5362 53.9763 33.1371 36.224 33.1371C18.4717 33.1371 4.08057 47.5362 4.08057 65.2984C4.08057 83.0607 18.4717 97.4598 36.224 97.4598Z" fill="#03A678"/>
    <path d="M36.2241 53.0266C50.8588 53.0266 62.7226 41.1562 62.7226 26.5133C62.7226 11.8704 50.8588 0 36.2241 0C21.5894 0 9.72559 11.8704 9.72559 26.5133C9.72559 41.1562 21.5894 53.0266 36.2241 53.0266Z" fill="#03A678"/>
</svg>
