<?xml version="1.0" encoding="utf-8"?>
<!-- Generator: Adobe Illustrator 25.1.0, SVG Export Plug-In . SVG Version: 6.00 Build 0)  -->
<svg version="1.1" id="Calque_1" xmlns="http://www.w3.org/2000/svg" xmlns:xlink="http://www.w3.org/1999/xlink" x="0px" y="0px"
	 viewBox="0 0 373 55" style="enable-background:new 0 0 373 55;" xml:space="preserve">
<style type="text/css">
	.st0{fill:#E8863D;}
</style>
<g>
	<path class="st0" d="M0.1,55.4c0,0-3.5-30.1,25.7-39.6c29.1-9.5,36.5,18,36.5,18s10-6.8,18.9-1.9c0,0,12.7-14.2,36.6-8.8
		c0,0,8.9-23.7,32.6-22c14.9,1,28.3,22.1,28.3,22.1s14.1-23.6,39.4-3c0,0,12.8-9.1,25.4,0c0,0,11.1-4.5,17.7-0.9
		c0,0,16.7-4.8,25.9,11.3c0,0,22.6-8.2,38.1,4.7c0,0,5.5-3.9,11.8-2.6c0,0,7.7-4.6,15.9,0c8.2,4.6,7.5,13.9,7.5,13.9
		s11.4-2.5,12.5,9.4L0.1,55.4z"/>
</g>
</svg>
