<svg width="171" height="44" viewBox="0 0 171 44" fill="none" xmlns="http://www.w3.org/2000/svg">
<rect x="1.25" y="1.25" width="168.5" height="41.5" rx="18.75" stroke="white" stroke-width="2.5"/>
<path d="M34.664 26.986V24.214H36.75C38.99 24.214 40.236 22.576 40.236 20.756C40.236 18.908 39.032 17.186 36.75 17.186C35.35 17.186 33.964 17.172 32.564 17.186V26.986H34.664ZM34.622 22.422V19.02C35.336 19.02 36.036 19.006 36.75 19.02C37.674 19.02 38.234 19.79 38.234 20.7C38.234 21.638 37.646 22.422 36.75 22.422H34.622ZM45.1991 20.084C43.4071 20.084 41.6991 21.19 41.6571 23.542C41.6571 25.824 43.2531 27.21 45.5211 27.168C46.4171 27.168 47.3411 26.944 48.1391 26.566L47.9151 25.138C47.5091 25.32 46.9071 25.474 46.3051 25.544C46.0111 25.586 45.6891 25.572 45.4091 25.558C44.4711 25.488 43.6871 25.082 43.6171 24.032H48.1951C48.7131 21.736 47.6631 20.084 45.1991 20.084ZM45.1991 21.582C45.9271 21.582 46.6411 21.89 46.5991 22.772H43.6311C43.7851 21.988 44.4571 21.582 45.1991 21.582ZM54.9124 20.252V24.074C54.9124 24.984 54.3104 25.572 53.5264 25.558C52.8404 25.558 52.3224 25.068 52.3644 24.116V20.252H50.3904V24.116C50.3904 25.796 50.9504 27.098 52.8964 27.098C53.7364 27.098 54.6744 26.804 55.0524 26.02C55.0524 27.322 56.5644 27.224 57.5164 27L57.5024 25.782C56.9004 25.824 56.8724 25.6 56.8724 24.97V20.252H54.9124ZM63.6146 18.306C63.6146 19.076 64.2166 19.454 64.8046 19.44C65.3646 19.426 65.9106 19.048 65.9106 18.306C65.9106 17.578 65.3506 17.2 64.7906 17.186C64.2026 17.172 63.6146 17.536 63.6146 18.306ZM65.7426 20.336H63.7826V27H65.7426V20.336ZM79.189 27V23.094C79.231 21.456 78.783 20.098 76.865 20.098C75.927 20.098 74.933 20.504 74.527 21.33C74.205 20.504 73.645 20.098 72.469 20.098C71.629 20.098 70.663 20.406 70.299 21.176C70.299 19.832 68.745 19.986 67.863 20.238V21.428C68.479 21.428 68.507 21.652 68.507 22.31V27H70.453V23.15C70.453 22.24 71.069 21.68 71.783 21.666C72.497 21.652 72.959 22.198 72.945 23.108V27H74.877V23.108C74.891 22.212 75.437 21.68 76.123 21.666C76.795 21.652 77.257 22.198 77.215 23.094V27H79.189ZM83.4632 21.288C83.4632 20 82.1472 20.014 81.2372 20.21L81.2512 21.512C81.9652 21.47 81.8812 21.89 81.8812 22.534V30.458H83.8412V26.706C86.1932 27.896 88.6292 26.244 88.6292 23.57C88.6292 21.736 87.5652 20.056 85.5912 20.056C84.7232 20.056 83.8412 20.448 83.4632 21.288ZM83.7852 23.318C83.7992 22.52 84.3032 21.792 85.1852 21.778C86.1792 21.778 86.6552 22.674 86.6552 23.57C86.6552 25.278 85.1712 25.908 83.7852 25.082V23.318ZM97.4994 23.598C97.4994 21.218 95.6934 20.042 93.8874 20.056C92.1094 20.07 90.3454 21.26 90.3454 23.598C90.3454 25.964 92.1514 27.14 93.9434 27.14C95.7214 27.14 97.4994 25.964 97.4994 23.598ZM92.2914 23.598C92.2914 22.38 93.1174 21.778 93.9434 21.778C94.7694 21.778 95.5534 22.394 95.5534 23.598C95.5534 24.83 94.7274 25.446 93.9014 25.432C93.0894 25.432 92.2914 24.816 92.2914 23.598ZM101.728 21.19C101.616 19.986 100.174 19.986 99.1935 20.21V21.414C99.8095 21.316 99.8655 21.68 99.8655 22.24V27H101.784V23.346C101.784 22.31 102.512 21.75 103.366 21.75C103.8 21.736 104.22 21.848 104.626 22.114L105.06 20.476C104.668 20.182 104.136 20.028 103.618 20.042C102.792 20.042 102.008 20.42 101.728 21.19ZM109.37 18.166H107.802L107.592 20.266H106.178V21.61L107.452 21.736V24.396C107.452 27.168 109.51 27.546 111.834 26.902L111.652 25.418C110.532 25.824 109.37 25.754 109.37 24.354V21.736H111.568V20.266H109.37V18.166ZM116.933 20.084C115.141 20.084 113.433 21.19 113.391 23.542C113.391 25.824 114.987 27.21 117.255 27.168C118.151 27.168 119.075 26.944 119.873 26.566L119.649 25.138C119.243 25.32 118.641 25.474 118.039 25.544C117.745 25.586 117.423 25.572 117.143 25.558C116.205 25.488 115.421 25.082 115.351 24.032H119.929C120.447 21.736 119.397 20.084 116.933 20.084ZM116.933 21.582C117.661 21.582 118.375 21.89 118.333 22.772H115.365C115.519 21.988 116.191 21.582 116.933 21.582Z" fill="white"/>
<path d="M134 31L141 23L134 15" stroke="white" stroke-width="2"/>
</svg>
