<svg width="200" height="147" viewBox="0 0 200 147" fill="none" xmlns="http://www.w3.org/2000/svg">
<path d="M1.96548 70.3607C-1.66508 58.188 5.25965 45.3769 17.4323 41.7463L150.811 1.96548C162.983 -1.66508 175.794 5.25968 179.425 17.4323L197.081 76.6299C200.712 88.8026 193.787 101.614 181.614 105.244L48.2358 145.025C36.0631 148.656 23.2521 141.731 19.6215 129.558L1.96548 70.3607Z" fill="#0574CF" stroke="white" stroke-width="2"/>
<path d="M71.7742 81.16C71.6142 82.8 71.2942 86 69.0942 86C66.1742 86 65.9742 77.6 65.9742 75.52C65.9742 73.36 66.1342 71.2 66.1342 69.04C66.1342 67.2 66.0142 65.36 66.0142 63.48C66.0142 61.76 66.1742 55.2 68.6542 55.2C71.0142 55.2 71.4542 59.84 71.6142 61.52C72.1742 61.36 72.7742 61.16 73.3742 61.08C73.6942 61 74.2942 61.08 74.2942 60.56C74.2942 60.32 74.1742 60.04 74.0542 59.84C74.0142 58.96 73.7342 58.12 73.4542 57.24C72.7342 54.96 71.4142 51.44 68.5342 51.44C66.4142 51.44 64.9342 53.4 64.2142 55.2C62.8542 58.68 63.2142 63.16 63.2142 66.88C63.2142 69.08 63.1342 71.32 63.1342 73.56C63.1342 75.16 63.1742 76.8 63.2942 78.4C63.5742 82.04 63.8542 89.68 68.9742 89.68C72.8942 89.68 74.6942 85.08 74.6942 81.8C74.6942 81.16 72.4542 81.16 72.0542 81.16H71.7742ZM90.7286 75.16H90.5686C89.8486 75.16 89.1686 75.04 88.4486 75.04C88.1286 75.04 87.7286 75.04 87.4486 75.24C86.6486 75.72 87.6086 80.68 84.9686 80.68C82.2886 80.68 82.3286 74.88 82.1286 73.04C82.0486 72.32 81.9286 71.6 81.9286 70.88C81.9286 69.48 83.2086 69.2 84.3286 69.2C85.6886 69.2 87.0486 69.32 88.4086 69.32C89.8886 69.32 90.8886 69.04 90.8886 67.32C90.8886 63.68 88.9686 57.2 84.4886 57.2C78.7286 57.2 78.3686 66.68 78.3686 70.76C78.3686 74.68 79.6486 83.92 84.9286 83.92C88.9686 83.92 91.1286 79.44 91.1286 75.92C91.1286 75.6 91.0886 75.24 90.7286 75.16ZM82.3686 65.24V64.36C82.3686 63.08 82.3686 60.32 84.2086 60.32C86.0886 60.32 87.4486 63.64 87.4486 65.16C87.4486 66.04 86.8886 66.04 86.2086 66.12C85.2486 66.24 84.3286 66.56 83.3686 66.56C83.0886 66.56 82.2886 66.52 82.2886 66.12C82.2886 65.8 82.3286 65.52 82.3686 65.24ZM107.673 75.4C107.313 72.36 107.513 69.32 107.513 66.28C107.513 64.48 107.313 62.72 107.313 60.96C107.313 60.24 107.433 59.56 107.433 58.84C107.433 57.92 105.313 57.52 104.633 57.52C104.073 57.52 104.073 58.12 104.073 58.52C104.073 63.52 104.673 68.48 104.673 73.48C104.673 73.96 104.673 74.4 104.553 74.88C102.673 72.2 98.3127 59.12 97.3927 58.4C96.8727 58.04 96.2327 57.88 95.5927 57.88C94.7927 57.88 94.3527 58.32 94.3527 59.12C94.3527 59.96 94.6327 60.76 94.7527 61.56C94.9927 63.36 95.0327 65.24 95.0327 67.04C95.0327 69.36 94.9127 71.68 94.9127 73.96C94.9127 76.84 95.0727 79.64 95.3927 82.48C95.4727 83.04 95.4727 83.56 96.1927 83.56C96.7527 83.56 97.3127 83.64 97.8727 83.64C98.6727 83.64 98.6727 82.44 98.6727 81.88C98.6727 77.76 98.0327 73.68 97.6327 69.6C97.4727 68.08 97.2727 66.6 97.2727 65.12C97.2727 64.96 97.3127 64.76 97.3527 64.6C98.0327 65.08 99.7127 70.24 100.153 71.36C101.153 74 102.553 76.48 103.513 79.12C103.753 79.72 104.113 81.28 104.633 81.6C104.993 81.8 106.393 81.8 106.833 81.8C107.953 81.8 107.953 79.88 107.953 79.12C107.953 77.88 107.793 76.64 107.673 75.4ZM123.359 85.36C122.959 85 121.639 83.8 121.199 83.8C120.759 83.8 120.319 84.88 119.359 84.88C116.679 84.88 116.679 79.56 116.679 77.72C116.679 72.72 116.959 67.68 117.279 62.68C117.879 62.68 121.359 62.68 121.359 61.96C121.359 61.56 121.239 61.2 121.239 60.8C121.239 60.56 121.279 60.36 121.279 60.12C121.279 59.52 120.599 59.44 120.159 59.44C119.359 59.44 118.599 59.64 117.799 59.64H117.479C117.599 57.88 117.839 56.12 117.839 54.36C117.839 53.12 117.039 52.48 115.799 52.48C113.919 52.48 114.399 55.28 114.399 56.44C114.399 57.44 114.319 58.44 114.319 59.48H114.039C111.919 59.48 111.639 59.52 111.639 61.72C111.639 61.88 111.639 62.04 111.679 62.16C112.239 62.56 113.559 62.6 114.279 62.64C114.239 67.28 113.719 71.88 113.719 76.52C113.719 80.24 113.719 88.64 119.039 88.64C120.359 88.64 123.519 87.24 123.519 85.68C123.519 85.56 123.439 85.44 123.359 85.36ZM133.855 70.92C133.575 69.76 132.935 68.68 132.935 67.48C132.935 67.12 133.055 66.76 133.295 66.48C133.615 66.2 134.415 66.04 134.855 65.84C136.255 65.04 137.255 62.2 137.255 60.64C137.255 56.76 132.975 54.88 129.615 54.88C128.735 54.88 127.895 55.04 127.895 56.08C127.895 56.88 128.095 57.64 128.095 58.44C128.095 61.56 127.975 64.72 127.975 67.84C127.975 73.36 128.055 78.92 128.055 84.44C128.055 86.16 128.055 86.28 129.815 86.28C130.575 86.28 130.975 86.12 130.975 85.28V78.48C130.975 75.16 130.655 71.84 130.655 68.52C130.655 68.2 130.655 67.84 130.735 67.52C131.415 68.92 133.975 79.6 134.295 81.64C134.415 82.16 134.535 84.56 135.255 84.56C135.855 84.56 137.335 84.12 137.335 83.36C137.335 82.64 136.895 81.92 136.655 81.24C135.415 77.92 134.615 74.36 133.855 70.92ZM130.855 64V61.88C130.855 60.8 130.615 59.76 130.615 58.72C130.615 58.08 130.895 57.32 131.615 57.32C133.175 57.32 134.495 59.16 134.495 60.6C134.495 61.28 134.295 61.92 133.895 62.48C133.535 63 131.775 64.32 131.135 64.32C130.975 64.32 130.855 64.2 130.855 64ZM152.682 75.16H152.522C151.802 75.16 151.122 75.04 150.402 75.04C150.082 75.04 149.682 75.04 149.402 75.24C148.602 75.72 149.562 80.68 146.922 80.68C144.242 80.68 144.282 74.88 144.082 73.04C144.002 72.32 143.882 71.6 143.882 70.88C143.882 69.48 145.162 69.2 146.282 69.2C147.642 69.2 149.002 69.32 150.362 69.32C151.842 69.32 152.842 69.04 152.842 67.32C152.842 63.68 150.922 57.2 146.442 57.2C140.682 57.2 140.322 66.68 140.322 70.76C140.322 74.68 141.602 83.92 146.882 83.92C150.922 83.92 153.082 79.44 153.082 75.92C153.082 75.6 153.042 75.24 152.682 75.16ZM144.322 65.24V64.36C144.322 63.08 144.322 60.32 146.162 60.32C148.042 60.32 149.402 63.64 149.402 65.16C149.402 66.04 148.842 66.04 148.162 66.12C147.202 66.24 146.282 66.56 145.322 66.56C145.042 66.56 144.242 66.52 144.242 66.12C144.242 65.8 144.282 65.52 144.322 65.24Z" fill="white"/>
</svg>
