<svg width="80" height="68" viewBox="0 0 80 68" fill="none" xmlns="http://www.w3.org/2000/svg">
<mask id="path-1-inside-1" fill="white">
<rect x="64" y="31" width="37" height="15" rx="1" transform="rotate(90 64 31)"/>
</mask>
<rect x="64" y="31" width="37" height="15" rx="1" transform="rotate(90 64 31)" stroke="white" stroke-width="3" mask="url(#path-1-inside-1)"/>
<path d="M50.8691 16.2273V31.7929H62.3742V16.2273L56.6217 1L50.8691 16.2273Z" stroke="white" stroke-width="1.5" stroke-linejoin="round"/>
<path d="M50.8691 16.2273V31.7929H62.3742V16.2273L56.6217 1L50.8691 16.2273Z" stroke="white" stroke-width="1.5" stroke-linejoin="round"/>
<rect x="29.8154" y="31.5278" width="35.7222" height="14.0657" rx="1.25" transform="rotate(90 29.8154 31.5278)" stroke="white" stroke-width="1.5"/>
<path d="M17.0303 16.2273V31.7929H28.5353V16.2273L22.7828 1L17.0303 16.2273Z" stroke="white" stroke-width="1.5" stroke-linejoin="round"/>
<path d="M17.0303 16.2273V31.7929H28.5353V16.2273L22.7828 1L17.0303 16.2273Z" stroke="white" stroke-width="1.5" stroke-linejoin="round"/>
<line x1="62" y1="16.75" x2="17" y2="16.75" stroke="white" stroke-width="1.5"/>
<rect x="0.75" y="31.75" width="78.5" height="35.5" rx="4.25" stroke="white" stroke-width="1.5"/>
<rect x="20.75" y="20.75" width="4.5" height="7.5" stroke="white" stroke-width="1.5" stroke-linejoin="round"/>
<rect x="54.75" y="20.75" width="4.5" height="7.5" stroke="white" stroke-width="1.5" stroke-linejoin="round"/>
<rect x="20.75" y="37.75" width="4.5" height="7.5" stroke="white" stroke-width="1.5" stroke-linejoin="round"/>
<rect x="54.75" y="37.75" width="4.5" height="7.5" stroke="white" stroke-width="1.5" stroke-linejoin="round"/>
<rect x="20.75" y="52.75" width="4.5" height="7.5" stroke="white" stroke-width="1.5" stroke-linejoin="round"/>
<rect x="54.75" y="52.75" width="4.5" height="7.5" stroke="white" stroke-width="1.5" stroke-linejoin="round"/>
<path d="M33 66.5V42.5H46.5V66.5" stroke="white" stroke-width="1.5" stroke-linejoin="round"/>
</svg>
