<svg width="169" height="42" viewBox="0 0 169 42" fill="none" xmlns="http://www.w3.org/2000/svg">
<path d="M1 11.4459L49.4021 1M1 11.4459V41H4M1 11.4459H4M49.4021 1L53.9226 8.89809H96.0303M49.4021 1H61.0592V6.09554H96.0303V8.89809M96.0303 8.89809H134.549V11.4459H131.508H128.467H124.159H124M115.036 20.6178V17.5605H106M115.036 20.6178H99.5782M115.036 20.6178H107.181V28.5159M115.036 20.6178H118M63.8467 20.6178H67M63.8467 20.6178V30.8089M63.8467 20.6178H61.0592M63.8467 41H67M63.8467 41V33.1019M63.8467 41L61 40.949M67 41V20.6178M67 41H107.181V28.5159M67 20.6178H96.0303M96.0303 20.6178V41H99.5782V20.6178M96.0303 20.6178H99.5782M107.181 28.5159H109M63.8467 30.8089V33.1019M63.8467 30.8089H61.0592M63.8467 33.1019H61M4 11.4459V30.8089M4 11.4459H7M4 30.8089H1V33.1019H4M4 30.8089H7M4 33.1019V41M4 33.1019H7M4 41H7M7 41V33.1019M7 41H10M7 33.1019H10M7 30.8089V11.4459M7 30.8089H10M7 11.4459H10M10 11.4459V30.8089M10 11.4459H13M10 30.8089H13M13 30.8089V11.4459M13 30.8089H16M13 11.4459H16M16 11.4459V30.8089M16 11.4459H19M16 30.8089H19M19 30.8089V11.4459M19 30.8089H22M19 11.4459H22M22 11.4459V30.8089M22 11.4459H25M22 30.8089H25M25 30.8089V11.4459M25 30.8089H28.041M25 11.4459H28.041M28.041 11.4459V30.8089M28.041 11.4459H31M28.041 30.8089H31M31 30.8089V11.4459M31 30.8089H34M31 11.4459H34M34 11.4459V30.8089M34 11.4459H37M34 30.8089H37M37 30.8089V11.4459M37 30.8089H40M37 11.4459H40M40 11.4459V30.8089M40 11.4459H43M40 30.8089H43M55 30.8089V11.4459M55 30.8089H58M55 30.8089H43M55 11.4459H58M55 11.4459H43M58 11.4459V30.8089M58 11.4459H61.0592M58 30.8089H61.0592M61.0592 30.8089V20.6178M61.0592 20.6178H58.2716V17.5605H61.0592M61.0592 17.5605V11.4459M61.0592 17.5605H63.8467M61.0592 11.4459H63.8467M63.8467 11.4459V17.5605M63.8467 11.4459H67M63.8467 17.5605H67M67 17.5605V11.4459M67 17.5605H70M67 11.4459H70M70 11.4459V17.5605M70 11.4459H73M70 17.5605H73M73 17.5605V11.4459M73 17.5605H76M73 11.4459H76M76 11.4459V17.5605M76 11.4459H79M76 17.5605H79M79 17.5605V11.4459M79 17.5605H82M79 11.4459H82M82 11.4459V17.5605M82 11.4459H85M82 17.5605H85M85 17.5605V11.4459M85 17.5605H87.9522M85 11.4459H87.9522M87.9522 11.4459V17.5605M87.9522 11.4459H91M87.9522 17.5605H91M91 17.5605V11.4459M91 17.5605H94M91 11.4459H94M94 11.4459V17.5605M94 11.4459H97M94 17.5605H97M97 17.5605V11.4459M97 17.5605H100M97 11.4459H100M100 11.4459V17.5605M100 11.4459H106M100 17.5605H106M106 17.5605V11.4459M106 11.4459H118M118 11.4459H124M118 11.4459V16.0318V20.6178M118 20.6178H124M124 20.6178V11.4459M124 20.6178H124.159H128.467H131.508H168V28.5159H164.072H160.144H156.596H153.302H148.001M43 30.8089V11.4459M10 33.1019V41M10 33.1019H13M10 41H13M13 41V33.1019M13 41H16M13 33.1019H16M16 33.1019V41M16 33.1019H19M16 41H19M19 41V33.1019M19 41H22M19 33.1019H22M22 33.1019V41M22 33.1019H25M22 41H25M25 41V33.1019M25 41H28.041M25 33.1019H28.041M28.041 33.1019V41M28.041 33.1019H31M28.041 41H31M31 41V33.1019M31 41H34M31 33.1019H34M34 33.1019V41M34 33.1019H37M34 41H37M37 41V33.1019M37 41H40M37 33.1019H40M40 33.1019V41M40 33.1019H46M40 41H46M46 41V33.1019M46 41H58.0319M46 33.1019H58.0319M58.0319 41L61 40.949M58.0319 41V37.051V33.1019M58.0319 33.1019H61M61 33.1019V37V40.949M109 28.5159V38.4522M109 28.5159H112M112 28.5159V38.4522M112 28.5159H115.036M115.036 28.5159V38.4522M115.036 28.5159H121M121 28.5159C121 32.3963 121 34.5719 121 38.4522M121 28.5159H120.358H124.159H126.313H128.467H131.508H134.549H138.604H142.405H145.953H148.001M148.001 28.5159L148 38.4522M46 30.8089V11.4459M52 41V33.1019M43 41V33.1019M55 41V33.1019M49 41V33.1019M49 30.8089V11.4459M52 30.8089V11.4459M109 17.5605V11.4459M112 17.5605V11.4459M115 17.5605V11.4459M103 17.5605V11.4459M127 20.6178V11.4459M130 20.6178V11.4459M133 20.6178V11.4459M121 20.6178V11.4459M124 28.5159V38.4522M157 28.5159V38.4522M118 28.5159V38.4522M133 28.5159V38.4522M130 28.5159V38.4522M136 28.5159V38.4522M139 28.5159V38.4522M142.036 28.5159V38.4522M151 28.5159V38.4522M145 28.5159V38.4522M163 28.5159V38.4522M154 28.5159V38.4522M127 28.5159V38.4522M166 28.5159V38.4522M160 28.5159V38.4522" stroke="white" stroke-width="1.5" stroke-linejoin="round"/>
</svg>
