<svg width="451" height="349" viewBox="0 0 451 349" fill="none" xmlns="http://www.w3.org/2000/svg">
<path d="M220.836 244.087L87.4576 283.868L66.4168 249.442C63.7502 246.442 61.4168 237.842 73.4168 227.442C85.4168 217.042 99.0837 201.108 104.417 194.442C107.084 191.108 109.617 181.442 98.4168 169.442C87.217 157.442 65.7504 123.775 56.4171 108.442C53.0839 101.775 48.4173 88.4417 56.4171 88.4417C64.4169 88.4417 117.084 101.775 142.417 108.442C147.75 110.442 156.089 117.128 158.417 126.442C160.917 136.442 164.917 146.942 165.417 154.442C165.75 159.442 168.617 169.442 177.417 169.442H207.417C211.084 168.442 218.417 164.042 218.417 154.442C218.417 144.842 221.584 61.1084 225.917 20.4417C226.876 11.4417 229.617 2.24172 242.417 1.44172C255.217 0.641721 280.417 1.10839 291.417 1.44172C295.75 1.10839 306.143 4.87269 309.917 20.4417C313.917 36.9417 349.75 201.775 373.417 282.442C376.084 290.108 379.817 306.042 373.417 308.442C367.025 310.839 290.498 335.637 251.785 347.322C263.867 343.633 270.722 330.876 267.106 318.752L249.45 259.554C245.82 247.381 233.009 240.457 220.836 244.087Z" fill="#0574CF" stroke="white" stroke-width="2"/>
<path d="M176.726 198.56C176.646 195.52 176.486 192.48 176.486 189.44C176.486 188.44 176.606 187.48 176.606 186.52C176.606 184.44 176.006 184.72 174.286 184.56C174.006 184.52 173.726 184.48 173.446 184.48C173.086 184.48 172.846 184.84 172.846 185.2C172.846 193.64 173.806 202.68 174.006 211.24C173.526 210.56 173.246 208.76 173.006 207.88C171.006 200.36 168.526 193 166.606 185.44C166.246 183.84 164.686 184.4 163.566 184.24C163.406 184.52 163.406 184.8 163.406 185.08C163.406 187.04 163.686 189 163.766 190.96C164.086 200.36 164.566 209.76 164.566 219.16C164.566 220.48 165.606 220.4 166.566 220.4C167.686 220.4 168.046 220.16 168.046 218.96C168.046 217.88 167.846 216.76 167.766 215.68C167.446 210.8 167.646 205.92 167.086 201.04C166.966 199.84 166.726 199 166.726 196.88C167.486 198.2 168.406 201.96 168.886 203.52C170.286 208.16 171.806 212.84 172.886 217.56C173.086 218.28 173.286 220.88 174.326 220.88C174.766 220.88 176.726 220.68 177.006 220.44C177.166 220.28 177.166 220 177.166 219.8C177.166 218.8 176.966 217.84 176.966 216.84C176.966 215.4 177.006 214 177.006 212.56C177.006 207.88 176.806 203.24 176.726 198.56ZM190.143 215.48C196.903 215.48 198.703 207.12 198.703 201.8C198.703 196.32 196.983 189.4 190.223 189.4C184.023 189.4 181.423 196.08 181.423 201.36C181.423 206.88 183.063 215.48 190.143 215.48ZM190.223 192.6C194.383 192.6 195.743 198.36 195.743 201.64C195.743 205.24 195.023 212.36 190.143 212.36C184.783 212.36 184.583 205.56 184.583 201.68C184.583 198 185.503 192.6 190.223 192.6ZM209.32 202.92C209.04 201.76 208.4 200.68 208.4 199.48C208.4 199.12 208.52 198.76 208.76 198.48C209.08 198.2 209.88 198.04 210.32 197.84C211.72 197.04 212.72 194.2 212.72 192.64C212.72 188.76 208.44 186.88 205.08 186.88C204.2 186.88 203.36 187.04 203.36 188.08C203.36 188.88 203.56 189.64 203.56 190.44C203.56 193.56 203.44 196.72 203.44 199.84C203.44 205.36 203.52 210.92 203.52 216.44C203.52 218.16 203.52 218.28 205.28 218.28C206.04 218.28 206.44 218.12 206.44 217.28V210.48C206.44 207.16 206.12 203.84 206.12 200.52C206.12 200.2 206.12 199.84 206.2 199.52C206.88 200.92 209.44 211.6 209.76 213.64C209.88 214.16 210 216.56 210.72 216.56C211.32 216.56 212.8 216.12 212.8 215.36C212.8 214.64 212.36 213.92 212.12 213.24C210.88 209.92 210.08 206.36 209.32 202.92ZM206.32 196V193.88C206.32 192.8 206.08 191.76 206.08 190.72C206.08 190.08 206.36 189.32 207.08 189.32C208.64 189.32 209.96 191.16 209.96 192.6C209.96 193.28 209.76 193.92 209.36 194.48C209 195 207.24 196.32 206.6 196.32C206.44 196.32 206.32 196.2 206.32 196ZM225.987 201.8C225.867 200.68 225.827 199.6 225.827 198.48C225.827 196.16 225.987 193.84 225.987 191.52C225.987 190.2 225.867 188.88 225.867 187.56C225.867 186.72 226.067 185.88 226.067 185.04C226.067 183.84 225.547 183.76 224.507 183.76C223.787 183.76 222.507 183.88 222.507 184.84C222.507 185.36 222.627 185.84 222.627 186.32C222.627 188.64 222.587 190.96 222.587 193.32C222.587 196.88 222.587 200.52 222.907 204.08C222.947 204.4 222.987 204.72 222.987 205.08C222.987 205.48 222.627 205.72 222.307 205.92C221.147 206.72 219.667 206.84 218.507 207.64C217.347 208.44 216.507 209.64 215.907 210.88C215.507 211.8 215.227 212.8 215.227 213.8C215.227 218.24 219.867 220.4 223.587 221.16C224.067 221.24 224.507 221.36 224.987 221.36C226.147 221.36 226.147 219.96 226.147 219.12C226.147 218.04 226.027 216.96 226.027 215.84C226.027 213.28 226.227 210.68 226.227 208.12C226.227 206 226.147 203.88 225.987 201.8ZM222.827 217.52C222.787 217.68 222.587 217.76 222.427 217.76C221.747 217.76 219.747 216.64 219.307 216.12C218.787 215.48 218.507 214.68 218.507 213.84C218.507 211.92 220.067 210.2 221.827 209.64C221.907 209.6 222.467 209.4 222.507 209.4C222.627 209.4 222.707 210.12 222.747 210.24C222.907 211.4 222.787 212.56 222.787 213.72C222.787 214.64 222.987 215.56 222.987 216.48C222.987 216.84 222.947 217.16 222.827 217.52ZM235.008 204.08C236.408 203.72 241.448 203.6 243.168 203.6C244.208 203.6 245.248 203.72 246.288 203.72C246.408 203.72 246.568 203.68 246.688 203.6C246.928 203.24 246.848 200.84 246.888 200.24C243.408 200.36 239.928 200.44 236.488 200.44C235.808 200.44 235.128 200.28 234.448 200.28C234.088 200.28 233.768 200.32 233.448 200.44C232.808 200.64 232.928 200.6 232.928 201.44C232.928 201.8 232.968 204.24 233.208 204.44C233.288 204.32 233.608 204.44 233.728 204.44C234.168 204.44 234.568 204.2 235.008 204.08ZM255.396 184.64C254.356 184.56 253.356 184.32 252.316 184.32C250.876 184.32 250.716 185.32 250.716 186.48C250.716 187.32 250.876 188.16 250.876 189.04C250.956 192.08 250.956 195.16 250.956 198.2C250.956 204.68 250.916 211.12 250.916 217.6C250.916 218.36 250.676 219.12 250.676 219.88C250.676 220.8 250.916 220.84 251.756 220.84C253.276 220.84 254.836 220.6 256.356 220.36C256.876 220.28 257.476 220.28 257.476 219.56C257.476 218.88 257.436 218.2 257.436 217.52C257.436 217.08 257.356 216.88 256.916 216.88C256.076 216.88 255.356 217.36 254.556 217.36C254.036 217.36 253.916 216.88 253.916 216.44C253.916 215.72 254.116 214.96 254.116 214.2C254.116 213.12 254.076 212 254.036 210.92C253.996 209.64 253.636 208.4 253.636 207.12C253.636 206.36 253.716 205.32 254.716 205.32C255.356 205.32 255.916 205.72 256.556 205.72C256.956 205.72 257.316 205.4 257.316 205C257.316 204.56 257.156 204.16 257.116 203.72C256.996 202.56 257.276 202.36 255.836 202.36C255.316 202.36 254.836 202.6 254.316 202.6C253.836 202.6 253.796 201.84 253.796 201.48C253.556 199.04 253.676 196.6 253.676 194.16C253.676 192.44 253.356 190.72 253.356 188.96C253.356 188.44 253.476 188.16 254.076 188.16C255.116 188.16 256.036 188.88 257.076 188.88C258.116 188.88 258.116 186.76 258.116 186.04C258.116 184.44 257.196 184.68 255.996 184.68L255.396 184.64ZM270.404 203.68C269.004 201.12 264.924 197.96 264.924 194.96C264.924 194.44 265.004 193.24 265.764 193.24C267.444 193.24 266.044 195.4 268.004 195.4C268.644 195.4 269.284 195.32 269.924 195.24C269.844 193.04 268.244 190.44 265.844 190.44C263.564 190.44 262.044 192.6 262.044 194.72C262.044 200.24 268.924 203 268.924 209C268.924 210.04 268.444 211.8 267.124 211.8C265.524 211.8 265.644 209.8 265.644 208.68C265.644 207.8 264.804 207.24 263.964 207.24C262.884 207.24 262.484 208.12 262.484 209.08C262.484 211.6 264.284 214.68 267.084 214.68C270.164 214.68 271.764 211.56 271.764 208.84C271.764 207.04 271.244 205.24 270.404 203.68ZM285.738 217.36C285.338 217 284.018 215.8 283.578 215.8C283.138 215.8 282.698 216.88 281.738 216.88C279.058 216.88 279.058 211.56 279.058 209.72C279.058 204.72 279.338 199.68 279.658 194.68C280.258 194.68 283.738 194.68 283.738 193.96C283.738 193.56 283.618 193.2 283.618 192.8C283.618 192.56 283.658 192.36 283.658 192.12C283.658 191.52 282.978 191.44 282.538 191.44C281.738 191.44 280.978 191.64 280.178 191.64H279.858C279.978 189.88 280.218 188.12 280.218 186.36C280.218 185.12 279.418 184.48 278.178 184.48C276.298 184.48 276.778 187.28 276.778 188.44C276.778 189.44 276.698 190.44 276.698 191.48H276.418C274.298 191.48 274.018 191.52 274.018 193.72C274.018 193.88 274.018 194.04 274.058 194.16C274.618 194.56 275.938 194.6 276.658 194.64C276.618 199.28 276.098 203.88 276.098 208.52C276.098 212.24 276.098 220.64 281.418 220.64C282.738 220.64 285.898 219.24 285.898 217.68C285.898 217.56 285.818 217.44 285.738 217.36Z" fill="white"/>
</svg>
