<svg width="336" height="338" viewBox="0 0 336 338" fill="none" xmlns="http://www.w3.org/2000/svg">
<path d="M191.947 286.152C175.004 279.122 131.527 265.638 93.165 267.938C75.1583 269.018 61.0733 275.1 51.9259 284.355L22.1956 257.255L9.72754 245.89C27.3101 234.707 59.0228 204.862 45.2124 174.953C27.9495 137.567 -18.0849 97.3054 9.72754 98.264C37.54 99.2226 104.674 99.2226 106.592 127.022C108.51 154.822 110.428 182.622 136.323 174.953C162.217 167.284 207.292 89.6365 199.62 61.8367C191.947 34.0369 165.094 11.0302 191.947 9.11301C218.801 7.19578 245.654 -8.14202 246.613 9.11301C247.572 26.368 269.631 119.353 253.327 153.864C237.023 188.374 289.771 136.609 294.566 148.112C299.361 159.615 337.723 273.69 334.846 291.904C333.165 302.544 291.037 316.558 253.327 326.705C239.397 330.453 226.069 333.673 215.606 336C225.002 319.476 205.852 297.32 191.947 286.152Z" fill="#0574CF" stroke="white" stroke-width="2"/>
<path d="M120.726 204.56C120.646 201.52 120.486 198.48 120.486 195.44C120.486 194.44 120.606 193.48 120.606 192.52C120.606 190.44 120.006 190.72 118.286 190.56C118.006 190.52 117.726 190.48 117.446 190.48C117.086 190.48 116.846 190.84 116.846 191.2C116.846 199.64 117.806 208.68 118.006 217.24C117.526 216.56 117.246 214.76 117.006 213.88C115.006 206.36 112.526 199 110.606 191.44C110.246 189.84 108.686 190.4 107.566 190.24C107.406 190.52 107.406 190.8 107.406 191.08C107.406 193.04 107.686 195 107.766 196.96C108.086 206.36 108.566 215.76 108.566 225.16C108.566 226.48 109.606 226.4 110.566 226.4C111.686 226.4 112.046 226.16 112.046 224.96C112.046 223.88 111.846 222.76 111.766 221.68C111.446 216.8 111.646 211.92 111.086 207.04C110.966 205.84 110.726 205 110.726 202.88C111.486 204.2 112.406 207.96 112.886 209.52C114.286 214.16 115.806 218.84 116.886 223.56C117.086 224.28 117.286 226.88 118.326 226.88C118.766 226.88 120.726 226.68 121.006 226.44C121.166 226.28 121.166 226 121.166 225.8C121.166 224.8 120.966 223.84 120.966 222.84C120.966 221.4 121.006 220 121.006 218.56C121.006 213.88 120.806 209.24 120.726 204.56ZM134.143 221.48C140.903 221.48 142.703 213.12 142.703 207.8C142.703 202.32 140.983 195.4 134.223 195.4C128.023 195.4 125.423 202.08 125.423 207.36C125.423 212.88 127.063 221.48 134.143 221.48ZM134.223 198.6C138.383 198.6 139.743 204.36 139.743 207.64C139.743 211.24 139.023 218.36 134.143 218.36C128.783 218.36 128.583 211.56 128.583 207.68C128.583 204 129.503 198.6 134.223 198.6ZM153.32 208.92C153.04 207.76 152.4 206.68 152.4 205.48C152.4 205.12 152.52 204.76 152.76 204.48C153.08 204.2 153.88 204.04 154.32 203.84C155.72 203.04 156.72 200.2 156.72 198.64C156.72 194.76 152.44 192.88 149.08 192.88C148.2 192.88 147.36 193.04 147.36 194.08C147.36 194.88 147.56 195.64 147.56 196.44C147.56 199.56 147.44 202.72 147.44 205.84C147.44 211.36 147.52 216.92 147.52 222.44C147.52 224.16 147.52 224.28 149.28 224.28C150.04 224.28 150.44 224.12 150.44 223.28V216.48C150.44 213.16 150.12 209.84 150.12 206.52C150.12 206.2 150.12 205.84 150.2 205.52C150.88 206.92 153.44 217.6 153.76 219.64C153.88 220.16 154 222.56 154.72 222.56C155.32 222.56 156.8 222.12 156.8 221.36C156.8 220.64 156.36 219.92 156.12 219.24C154.88 215.92 154.08 212.36 153.32 208.92ZM150.32 202V199.88C150.32 198.8 150.08 197.76 150.08 196.72C150.08 196.08 150.36 195.32 151.08 195.32C152.64 195.32 153.96 197.16 153.96 198.6C153.96 199.28 153.76 199.92 153.36 200.48C153 201 151.24 202.32 150.6 202.32C150.44 202.32 150.32 202.2 150.32 202ZM169.987 207.8C169.867 206.68 169.827 205.6 169.827 204.48C169.827 202.16 169.987 199.84 169.987 197.52C169.987 196.2 169.867 194.88 169.867 193.56C169.867 192.72 170.067 191.88 170.067 191.04C170.067 189.84 169.547 189.76 168.507 189.76C167.787 189.76 166.507 189.88 166.507 190.84C166.507 191.36 166.627 191.84 166.627 192.32C166.627 194.64 166.587 196.96 166.587 199.32C166.587 202.88 166.587 206.52 166.907 210.08C166.947 210.4 166.987 210.72 166.987 211.08C166.987 211.48 166.627 211.72 166.307 211.92C165.147 212.72 163.667 212.84 162.507 213.64C161.347 214.44 160.507 215.64 159.907 216.88C159.507 217.8 159.227 218.8 159.227 219.8C159.227 224.24 163.867 226.4 167.587 227.16C168.067 227.24 168.507 227.36 168.987 227.36C170.147 227.36 170.147 225.96 170.147 225.12C170.147 224.04 170.027 222.96 170.027 221.84C170.027 219.28 170.227 216.68 170.227 214.12C170.227 212 170.147 209.88 169.987 207.8ZM166.827 223.52C166.787 223.68 166.587 223.76 166.427 223.76C165.747 223.76 163.747 222.64 163.307 222.12C162.787 221.48 162.507 220.68 162.507 219.84C162.507 217.92 164.067 216.2 165.827 215.64C165.907 215.6 166.467 215.4 166.507 215.4C166.627 215.4 166.707 216.12 166.747 216.24C166.907 217.4 166.787 218.56 166.787 219.72C166.787 220.64 166.987 221.56 166.987 222.48C166.987 222.84 166.947 223.16 166.827 223.52ZM179.008 210.08C180.408 209.72 185.448 209.6 187.168 209.6C188.208 209.6 189.248 209.72 190.288 209.72C190.408 209.72 190.568 209.68 190.688 209.6C190.928 209.24 190.848 206.84 190.888 206.24C187.408 206.36 183.928 206.44 180.488 206.44C179.808 206.44 179.128 206.28 178.448 206.28C178.088 206.28 177.768 206.32 177.448 206.44C176.808 206.64 176.928 206.6 176.928 207.44C176.928 207.8 176.968 210.24 177.208 210.44C177.288 210.32 177.608 210.44 177.728 210.44C178.168 210.44 178.568 210.2 179.008 210.08ZM199.396 190.64C198.356 190.56 197.356 190.32 196.316 190.32C194.876 190.32 194.716 191.32 194.716 192.48C194.716 193.32 194.876 194.16 194.876 195.04C194.956 198.08 194.956 201.16 194.956 204.2C194.956 210.68 194.916 217.12 194.916 223.6C194.916 224.36 194.676 225.12 194.676 225.88C194.676 226.8 194.916 226.84 195.756 226.84C197.276 226.84 198.836 226.6 200.356 226.36C200.876 226.28 201.476 226.28 201.476 225.56C201.476 224.88 201.436 224.2 201.436 223.52C201.436 223.08 201.356 222.88 200.916 222.88C200.076 222.88 199.356 223.36 198.556 223.36C198.036 223.36 197.916 222.88 197.916 222.44C197.916 221.72 198.116 220.96 198.116 220.2C198.116 219.12 198.076 218 198.036 216.92C197.996 215.64 197.636 214.4 197.636 213.12C197.636 212.36 197.716 211.32 198.716 211.32C199.356 211.32 199.916 211.72 200.556 211.72C200.956 211.72 201.316 211.4 201.316 211C201.316 210.56 201.156 210.16 201.116 209.72C200.996 208.56 201.276 208.36 199.836 208.36C199.316 208.36 198.836 208.6 198.316 208.6C197.836 208.6 197.796 207.84 197.796 207.48C197.556 205.04 197.676 202.6 197.676 200.16C197.676 198.44 197.356 196.72 197.356 194.96C197.356 194.44 197.476 194.16 198.076 194.16C199.116 194.16 200.036 194.88 201.076 194.88C202.116 194.88 202.116 192.76 202.116 192.04C202.116 190.44 201.196 190.68 199.996 190.68L199.396 190.64ZM214.404 209.68C213.004 207.12 208.924 203.96 208.924 200.96C208.924 200.44 209.004 199.24 209.764 199.24C211.444 199.24 210.044 201.4 212.004 201.4C212.644 201.4 213.284 201.32 213.924 201.24C213.844 199.04 212.244 196.44 209.844 196.44C207.564 196.44 206.044 198.6 206.044 200.72C206.044 206.24 212.924 209 212.924 215C212.924 216.04 212.444 217.8 211.124 217.8C209.524 217.8 209.644 215.8 209.644 214.68C209.644 213.8 208.804 213.24 207.964 213.24C206.884 213.24 206.484 214.12 206.484 215.08C206.484 217.6 208.284 220.68 211.084 220.68C214.164 220.68 215.764 217.56 215.764 214.84C215.764 213.04 215.244 211.24 214.404 209.68ZM229.738 223.36C229.338 223 228.018 221.8 227.578 221.8C227.138 221.8 226.698 222.88 225.738 222.88C223.058 222.88 223.058 217.56 223.058 215.72C223.058 210.72 223.338 205.68 223.658 200.68C224.258 200.68 227.738 200.68 227.738 199.96C227.738 199.56 227.618 199.2 227.618 198.8C227.618 198.56 227.658 198.36 227.658 198.12C227.658 197.52 226.978 197.44 226.538 197.44C225.738 197.44 224.978 197.64 224.178 197.64H223.858C223.978 195.88 224.218 194.12 224.218 192.36C224.218 191.12 223.418 190.48 222.178 190.48C220.298 190.48 220.778 193.28 220.778 194.44C220.778 195.44 220.698 196.44 220.698 197.48H220.418C218.298 197.48 218.018 197.52 218.018 199.72C218.018 199.88 218.018 200.04 218.058 200.16C218.618 200.56 219.938 200.6 220.658 200.64C220.618 205.28 220.098 209.88 220.098 214.52C220.098 218.24 220.098 226.64 225.418 226.64C226.738 226.64 229.898 225.24 229.898 223.68C229.898 223.56 229.818 223.44 229.738 223.36Z" fill="white"/>
</svg>
