<svg width="328" height="349" viewBox="0 0 328 349" fill="none" xmlns="http://www.w3.org/2000/svg">
<path d="M216.731 318.752L199.075 259.554C195.445 247.381 182.634 240.457 170.461 244.087L37.0826 283.868L16.0418 249.442C13.3752 246.442 11.0418 237.842 23.0418 227.442C35.0418 217.042 48.7087 201.108 54.0421 194.442C56.7086 191.108 59.2416 181.442 48.0418 169.442C36.842 157.442 15.3754 123.775 6.0421 108.442C2.70885 101.775 -1.95769 88.4417 6.0421 88.4417C14.0419 88.4417 66.7086 101.775 92.042 108.442C97.3753 110.442 105.714 117.128 108.042 126.442C110.542 136.442 114.542 146.942 115.042 154.442C115.375 159.442 118.242 169.442 127.042 169.442H157.042C160.709 168.442 168.042 164.042 168.042 154.442C168.042 144.842 171.209 61.1084 175.542 20.4417C176.501 11.4417 179.242 2.24169 192.042 1.44169C204.842 0.641691 230.042 1.10836 241.042 1.44169C245.375 1.10836 255.768 4.87266 259.542 20.4417C263.542 36.9417 299.375 201.775 323.042 282.442C325.709 290.108 329.442 306.042 323.042 308.442C316.642 310.842 239.931 335.699 201.264 347.366C213.437 343.735 220.362 330.924 216.731 318.752Z" stroke="white" stroke-width="2"/>
</svg>
