<svg width="27" height="35" viewBox="0 0 27 35" fill="none" xmlns="http://www.w3.org/2000/svg">
<path d="M3.14094 32.64C3.14094 33.2 3.18094 33.76 3.22094 34.32C3.38094 34.4 3.54094 34.44 3.70094 34.44C4.38094 34.44 5.02094 34.28 5.66094 34.2C7.06094 34.04 8.50094 34.04 9.94094 34.04C10.2609 34.04 10.8209 33.92 10.8209 33.48C10.8209 31.88 10.4209 31.44 8.78094 31.44C7.26094 31.44 5.70094 31.56 4.18094 31.68C3.38094 31.72 3.14094 31.72 3.14094 32.64ZM6.42094 0.879999C6.02094 0.759998 5.58094 0.719998 5.18094 0.719998C0.940938 0.719998 0.900938 8.36 0.900938 11.28C0.900938 12.68 0.940938 14.04 0.940938 15.44C0.940938 19.36 0.540938 29.28 6.38094 29.28C12.2609 29.28 12.3809 21.6 12.3809 17.36C12.3809 12.44 12.3409 2.56 6.42094 0.879999ZM9.14094 21.76C8.86094 23.44 8.82094 26.36 6.50094 26.36C3.38094 26.36 3.42094 19.68 3.42094 17.56C3.42094 14.44 3.74094 11.36 3.82094 8.24C3.86094 6.92 3.74094 5 4.98094 4.16C5.30094 3.92 5.66094 3.76 6.06094 3.76C9.50094 3.76 9.42094 14.2 9.42094 16.6C9.42094 18.32 9.46094 20.08 9.14094 21.76ZM26.1734 4.64V4.44C26.1734 3.72 26.2934 3 26.2934 2.28C26.2934 0.839999 25.8534 0.559998 24.4934 0.559998C23.8534 0.559998 22.8934 0.679999 22.8934 1.52C22.8934 1.96 22.9734 2.44 23.0534 2.88C23.2534 4.4 23.2534 5.92 23.2534 7.44C23.2534 11.04 23.2134 14.6 23.2134 18.2C23.2134 20.08 22.9734 31.48 20.9734 31.48C20.5334 31.48 20.2934 31 20.0934 30.68C18.7734 28.16 19.0134 24.84 18.9334 22.08C18.8534 17.08 18.6134 12.12 18.6134 7.12C18.6134 5.48 18.6134 3.76 19.0134 2.16C19.0934 1.72 19.2534 1.24 19.2534 0.799997C19.2534 0.279999 18.6934 0.159998 18.3334 0.159998C16.0534 0.159998 16.2534 1.04 16.2534 2.84C16.2534 4.6 16.0534 6.36 15.9334 8.08C15.6934 11.8 15.5334 15.56 15.5334 19.28C15.5334 22.76 15.6134 35 20.6534 35C20.8534 35 21.0134 35 21.2134 34.96C25.3334 33.88 25.6134 28.24 25.9334 24.8C26.3334 20.4 26.4534 16 26.4534 11.56C26.4534 9.24 26.2934 6.96 26.1734 4.64Z" fill="white"/>
</svg>
