<svg width="229" height="226" viewBox="0 0 229 226" fill="none" xmlns="http://www.w3.org/2000/svg">
<path d="M202.058 29.1998C186.842 44.6486 185.285 68.9083 202.058 93.5432C208.182 102.537 216.799 108.43 227 111.941C206.855 131.145 164.071 172.439 154.094 183.985C141.623 198.417 135.867 219.585 99.4144 224.395C62.9613 229.206 9.24128 204.19 2.52625 188.796C-4.18878 173.402 10.2006 199.38 66.7987 188.796C123.397 178.212 100.374 137.802 112.845 81.0352C122.821 35.6218 156.652 9.42281 172.321 2L202.058 29.1998Z" fill="#0574CF" stroke="white" stroke-width="2"/>
<path d="M128.549 123.48C135.309 123.48 137.109 115.12 137.109 109.8C137.109 104.32 135.389 97.4 128.629 97.4C122.429 97.4 119.829 104.08 119.829 109.36C119.829 114.88 121.469 123.48 128.549 123.48ZM128.629 100.6C132.789 100.6 134.149 106.36 134.149 109.64C134.149 113.24 133.429 120.36 128.549 120.36C123.189 120.36 122.989 113.56 122.989 109.68C122.989 106 123.909 100.6 128.629 100.6ZM154.967 98H154.567C153.567 98 152.367 98.04 152.367 99.36C152.367 100.12 152.447 100.84 152.447 101.56C152.447 103.56 152.407 105.56 152.407 107.56C152.407 110.76 153.247 119.08 148.287 119.08C143.687 119.08 143.487 113.28 143.487 109.92C143.487 106.4 143.607 102.92 143.607 99.4C143.607 98.84 142.927 98.84 142.567 98.84C141.807 98.84 141.327 98.88 140.727 99.4C140.567 99.56 140.407 107.08 140.407 108C140.407 112.68 140.847 121.96 147.367 121.96C154.687 121.96 155.887 114.04 155.887 108.32C155.887 105.28 155.527 102.28 155.527 99.24C155.527 98.72 155.527 98.24 154.967 98ZM171.397 115.16H171.237C170.517 115.16 169.837 115.04 169.117 115.04C168.797 115.04 168.397 115.04 168.117 115.24C167.317 115.72 168.277 120.68 165.637 120.68C162.957 120.68 162.997 114.88 162.797 113.04C162.717 112.32 162.597 111.6 162.597 110.88C162.597 109.48 163.877 109.2 164.997 109.2C166.357 109.2 167.717 109.32 169.077 109.32C170.557 109.32 171.557 109.04 171.557 107.32C171.557 103.68 169.637 97.2 165.157 97.2C159.397 97.2 159.037 106.68 159.037 110.76C159.037 114.68 160.317 123.92 165.597 123.92C169.637 123.92 171.797 119.44 171.797 115.92C171.797 115.6 171.757 115.24 171.397 115.16ZM163.037 105.24V104.36C163.037 103.08 163.037 100.32 164.877 100.32C166.757 100.32 168.117 103.64 168.117 105.16C168.117 106.04 167.557 106.04 166.877 106.12C165.917 106.24 164.997 106.56 164.037 106.56C163.757 106.56 162.957 106.52 162.957 106.12C162.957 105.8 162.997 105.52 163.037 105.24ZM183.381 111.68C181.981 109.12 177.901 105.96 177.901 102.96C177.901 102.44 177.981 101.24 178.741 101.24C180.421 101.24 179.021 103.4 180.981 103.4C181.621 103.4 182.261 103.32 182.901 103.24C182.821 101.04 181.221 98.44 178.821 98.44C176.541 98.44 175.021 100.6 175.021 102.72C175.021 108.24 181.901 111 181.901 117C181.901 118.04 181.421 119.8 180.101 119.8C178.501 119.8 178.621 117.8 178.621 116.68C178.621 115.8 177.781 115.24 176.941 115.24C175.861 115.24 175.461 116.12 175.461 117.08C175.461 119.6 177.261 122.68 180.061 122.68C183.141 122.68 184.741 119.56 184.741 116.84C184.741 115.04 184.221 113.24 183.381 111.68ZM198.714 125.36C198.314 125 196.994 123.8 196.554 123.8C196.114 123.8 195.674 124.88 194.714 124.88C192.034 124.88 192.034 119.56 192.034 117.72C192.034 112.72 192.314 107.68 192.634 102.68C193.234 102.68 196.714 102.68 196.714 101.96C196.714 101.56 196.594 101.2 196.594 100.8C196.594 100.56 196.634 100.36 196.634 100.12C196.634 99.52 195.954 99.44 195.514 99.44C194.714 99.44 193.954 99.64 193.154 99.64H192.834C192.954 97.88 193.194 96.12 193.194 94.36C193.194 93.12 192.394 92.48 191.154 92.48C189.274 92.48 189.754 95.28 189.754 96.44C189.754 97.44 189.674 98.44 189.674 99.48H189.394C187.274 99.48 186.994 99.52 186.994 101.72C186.994 101.88 186.994 102.04 187.034 102.16C187.594 102.56 188.914 102.6 189.634 102.64C189.594 107.28 189.074 111.88 189.074 116.52C189.074 120.24 189.074 128.64 194.394 128.64C195.714 128.64 198.874 127.24 198.874 125.68C198.874 125.56 198.794 125.44 198.714 125.36Z" fill="white"/>
</svg>
