<svg width="208" height="219" viewBox="0 0 208 219" fill="none" xmlns="http://www.w3.org/2000/svg">
<path d="M158.042 192.442C141.242 216.442 120.375 219.108 112.042 217.442C85.7084 212.775 29.0415 202.842 13.0415 200.442C-2.95854 198.042 -1.29182 188.442 8.04146 186.442C17.3748 184.442 39.8415 180.442 55.0415 180.442C70.2415 180.442 76.042 167.942 79.0415 162.442L178.042 2.89493L192.082 25.868C179.91 29.4985 172.985 42.3096 176.616 54.4823C176.616 54.4823 191.543 103.86 194.272 113.68C197 123.5 206 127.665 206 127.665C198.46 137.439 173.175 171.392 158.042 192.442ZM158.042 192.442C160.767 188.549 155.113 196.517 158.042 192.442Z" stroke="white" stroke-width="2"/>
</svg>
