<svg width="227" height="218" viewBox="0 0 227 218" fill="none" xmlns="http://www.w3.org/2000/svg">
<path d="M79.0415 161.547L178.042 2L192.082 24.9731C179.91 28.6036 172.985 41.4147 176.616 53.5874C176.616 53.5874 191.543 102.965 194.272 112.785C197 122.605 206 126.77 206 126.77C198.46 136.544 173.175 170.497 158.042 191.547C141.242 215.547 120.375 218.213 112.042 216.547C85.7084 211.88 29.0415 201.947 13.0415 199.547C-2.95854 197.147 -1.29182 187.547 8.04146 185.547C17.3748 183.547 39.8415 179.547 55.0415 179.547C70.2415 179.547 76.042 167.047 79.0415 161.547Z" fill="#0574CF"/>
<path d="M158.042 191.547C141.242 215.547 120.375 218.213 112.042 216.547C85.7084 211.88 29.0415 201.947 13.0415 199.547C-2.95854 197.147 -1.29182 187.547 8.04146 185.547C17.3748 183.547 39.8415 179.547 55.0415 179.547C70.2415 179.547 76.042 167.047 79.0415 161.547L178.042 2L192.082 24.9731C179.91 28.6036 172.985 41.4147 176.616 53.5874C176.616 53.5874 191.543 102.965 194.272 112.785C197 122.605 206 126.77 206 126.77C198.46 136.544 173.175 170.497 158.042 191.547ZM158.042 191.547C160.767 187.654 155.113 195.622 158.042 191.547Z" stroke="white" stroke-width="2"/>
<path d="M106.549 163.48C113.309 163.48 115.109 155.12 115.109 149.8C115.109 144.32 113.389 137.4 106.629 137.4C100.429 137.4 97.8291 144.08 97.8291 149.36C97.8291 154.88 99.4691 163.48 106.549 163.48ZM106.629 140.6C110.789 140.6 112.149 146.36 112.149 149.64C112.149 153.24 111.429 160.36 106.549 160.36C101.189 160.36 100.989 153.56 100.989 149.68C100.989 146 101.909 140.6 106.629 140.6ZM132.967 138H132.567C131.567 138 130.367 138.04 130.367 139.36C130.367 140.12 130.447 140.84 130.447 141.56C130.447 143.56 130.407 145.56 130.407 147.56C130.407 150.76 131.247 159.08 126.287 159.08C121.687 159.08 121.487 153.28 121.487 149.92C121.487 146.4 121.607 142.92 121.607 139.4C121.607 138.84 120.927 138.84 120.567 138.84C119.807 138.84 119.327 138.88 118.727 139.4C118.567 139.56 118.407 147.08 118.407 148C118.407 152.68 118.847 161.96 125.367 161.96C132.687 161.96 133.887 154.04 133.887 148.32C133.887 145.28 133.527 142.28 133.527 139.24C133.527 138.72 133.527 138.24 132.967 138ZM149.397 155.16H149.237C148.517 155.16 147.837 155.04 147.117 155.04C146.797 155.04 146.397 155.04 146.117 155.24C145.317 155.72 146.277 160.68 143.637 160.68C140.957 160.68 140.997 154.88 140.797 153.04C140.717 152.32 140.597 151.6 140.597 150.88C140.597 149.48 141.877 149.2 142.997 149.2C144.357 149.2 145.717 149.32 147.077 149.32C148.557 149.32 149.557 149.04 149.557 147.32C149.557 143.68 147.637 137.2 143.157 137.2C137.397 137.2 137.037 146.68 137.037 150.76C137.037 154.68 138.317 163.92 143.597 163.92C147.637 163.92 149.797 159.44 149.797 155.92C149.797 155.6 149.757 155.24 149.397 155.16ZM141.037 145.24V144.36C141.037 143.08 141.037 140.32 142.877 140.32C144.757 140.32 146.117 143.64 146.117 145.16C146.117 146.04 145.557 146.04 144.877 146.12C143.917 146.24 142.997 146.56 142.037 146.56C141.757 146.56 140.957 146.52 140.957 146.12C140.957 145.8 140.997 145.52 141.037 145.24ZM161.381 151.68C159.981 149.12 155.901 145.96 155.901 142.96C155.901 142.44 155.981 141.24 156.741 141.24C158.421 141.24 157.021 143.4 158.981 143.4C159.621 143.4 160.261 143.32 160.901 143.24C160.821 141.04 159.221 138.44 156.821 138.44C154.541 138.44 153.021 140.6 153.021 142.72C153.021 148.24 159.901 151 159.901 157C159.901 158.04 159.421 159.8 158.101 159.8C156.501 159.8 156.621 157.8 156.621 156.68C156.621 155.8 155.781 155.24 154.941 155.24C153.861 155.24 153.461 156.12 153.461 157.08C153.461 159.6 155.261 162.68 158.061 162.68C161.141 162.68 162.741 159.56 162.741 156.84C162.741 155.04 162.221 153.24 161.381 151.68ZM176.714 165.36C176.314 165 174.994 163.8 174.554 163.8C174.114 163.8 173.674 164.88 172.714 164.88C170.034 164.88 170.034 159.56 170.034 157.72C170.034 152.72 170.314 147.68 170.634 142.68C171.234 142.68 174.714 142.68 174.714 141.96C174.714 141.56 174.594 141.2 174.594 140.8C174.594 140.56 174.634 140.36 174.634 140.12C174.634 139.52 173.954 139.44 173.514 139.44C172.714 139.44 171.954 139.64 171.154 139.64H170.834C170.954 137.88 171.194 136.12 171.194 134.36C171.194 133.12 170.394 132.48 169.154 132.48C167.274 132.48 167.754 135.28 167.754 136.44C167.754 137.44 167.674 138.44 167.674 139.48H167.394C165.274 139.48 164.994 139.52 164.994 141.72C164.994 141.88 164.994 142.04 165.034 142.16C165.594 142.56 166.914 142.6 167.634 142.64C167.594 147.28 167.074 151.88 167.074 156.52C167.074 160.24 167.074 168.64 172.394 168.64C173.714 168.64 176.874 167.24 176.874 165.68C176.874 165.56 176.794 165.44 176.714 165.36Z" fill="white"/>
</svg>
