<svg width="334" height="37" viewBox="0 0 334 37" fill="none" xmlns="http://www.w3.org/2000/svg">
<path d="M2.29328 33.64C2.29328 34.2 2.33328 34.76 2.37328 35.32C2.53328 35.4 2.69328 35.44 2.85328 35.44C3.53328 35.44 4.17328 35.28 4.81328 35.2C6.21328 35.04 7.65328 35.04 9.09328 35.04C9.41328 35.04 9.97328 34.92 9.97328 34.48C9.97328 32.88 9.57328 32.44 7.93328 32.44C6.41328 32.44 4.85328 32.56 3.33328 32.68C2.53328 32.72 2.29328 32.72 2.29328 33.64ZM5.57328 1.88C5.17328 1.76 4.73328 1.72 4.33328 1.72C0.0932813 1.72 0.0532813 9.36 0.0532813 12.28C0.0532813 13.68 0.0932813 15.04 0.0932813 16.44C0.0932813 20.36 -0.306719 30.28 5.53328 30.28C11.4133 30.28 11.5333 22.6 11.5333 18.36C11.5333 13.44 11.4933 3.56 5.57328 1.88ZM8.29328 22.76C8.01328 24.44 7.97328 27.36 5.65328 27.36C2.53328 27.36 2.57328 20.68 2.57328 18.56C2.57328 15.44 2.89328 12.36 2.97328 9.24C3.01328 7.92 2.89328 6 4.13328 5.16C4.45328 4.92 4.81328 4.76 5.21328 4.76C8.65328 4.76 8.57328 15.2 8.57328 17.6C8.57328 19.32 8.61328 21.08 8.29328 22.76ZM28.1258 23.4C27.7658 20.36 27.9658 17.32 27.9658 14.28C27.9658 12.48 27.7658 10.72 27.7658 8.96C27.7658 8.24 27.8858 7.56 27.8858 6.84C27.8858 5.92 25.7658 5.52 25.0858 5.52C24.5258 5.52 24.5258 6.12 24.5258 6.52C24.5258 11.52 25.1258 16.48 25.1258 21.48C25.1258 21.96 25.1258 22.4 25.0058 22.88C23.1258 20.2 18.7658 7.12 17.8458 6.4C17.3258 6.04 16.6858 5.88 16.0458 5.88C15.2458 5.88 14.8058 6.32 14.8058 7.12C14.8058 7.96 15.0858 8.76 15.2058 9.56C15.4458 11.36 15.4858 13.24 15.4858 15.04C15.4858 17.36 15.3658 19.68 15.3658 21.96C15.3658 24.84 15.5258 27.64 15.8458 30.48C15.9258 31.04 15.9258 31.56 16.6458 31.56C17.2058 31.56 17.7658 31.64 18.3258 31.64C19.1258 31.64 19.1258 30.44 19.1258 29.88C19.1258 25.76 18.4858 21.68 18.0858 17.6C17.9258 16.08 17.7258 14.6 17.7258 13.12C17.7258 12.96 17.7658 12.76 17.8058 12.6C18.4858 13.08 20.1658 18.24 20.6058 19.36C21.6058 22 23.0058 24.48 23.9658 27.12C24.2058 27.72 24.5658 29.28 25.0858 29.6C25.4458 29.8 26.8458 29.8 27.2858 29.8C28.4058 29.8 28.4058 27.88 28.4058 27.12C28.4058 25.88 28.2458 24.64 28.1258 23.4ZM56.3705 5.88C56.0905 5.68 55.2905 5.68 54.9305 5.68C54.6905 5.68 54.4905 5.68 54.2505 5.72C53.0905 6.04 53.3305 6.04 53.2505 7.2C53.1305 9.32 52.5705 11.4 52.3705 13.52C52.0105 17.4 51.4105 21.24 50.8105 25.08C50.3705 24.8 49.8905 20.84 49.6905 20.08C49.1705 18.12 48.8105 16.12 48.2905 14.12C47.8505 12.24 47.2105 10.36 46.7705 8.48C46.3705 6.8 46.6905 5.92 44.6105 5.76L44.0505 5.72C43.7305 5.72 43.2505 5.72 43.2505 6.2C43.2505 6.68 44.6105 11.32 44.8905 12.32C46.1705 17.64 47.6105 22.96 48.7705 28.32C48.9305 29.08 49.0905 30.96 49.8505 31.32C50.1705 31.44 50.6105 31.44 50.9305 31.44C51.3705 31.44 52.3305 31.44 52.6505 31.16C53.2905 30.64 53.2505 27.56 53.3705 26.68C53.9305 22.88 54.6105 19.08 55.0905 15.28C55.4905 12.44 55.4505 8.68 56.6905 6.12H56.5305C56.4505 6.12 56.3705 5.96 56.3705 5.88ZM72.907 12.16C72.547 8.56 72.027 0.959999 67.067 0.959999C63.427 0.959999 59.307 5.36 59.307 8.92C59.307 9.88 60.627 9.84 61.267 9.84C61.427 9.84 61.587 9.88 61.747 9.84C63.267 9.72 63.227 9.4 63.227 8C63.227 6.32 64.347 4.28 66.227 4.28C67.107 4.28 67.787 4.88 68.267 5.52C69.947 7.84 69.947 21 69.947 24.48C69.907 24.52 69.827 24.52 69.747 24.52C68.707 24.52 67.387 23.36 65.947 23.36C63.187 23.36 61.867 25.76 61.867 28.24C61.867 33.88 65.587 36.4 70.907 36.4C73.627 36.4 73.307 35.28 73.307 33.12C73.307 29.68 73.427 26.24 73.427 22.8C73.427 19.24 73.307 15.68 72.907 12.16ZM68.987 33.24C66.867 33.24 65.387 30.96 65.387 29C65.387 27.64 66.307 26.56 67.707 26.56C69.507 26.56 70.067 27 70.067 28.84C70.067 29.84 70.387 30.8 70.387 31.8C70.387 32.4 70.267 33.24 69.507 33.24H68.987ZM98.0998 31.48C104.86 31.48 106.66 23.12 106.66 17.8C106.66 12.32 104.94 5.4 98.1798 5.4C91.9798 5.4 89.3798 12.08 89.3798 17.36C89.3798 22.88 91.0198 31.48 98.0998 31.48ZM98.1798 8.6C102.34 8.6 103.7 14.36 103.7 17.64C103.7 21.24 102.98 28.36 98.0998 28.36C92.7398 28.36 92.5398 21.56 92.5398 17.68C92.5398 14 93.4598 8.6 98.1798 8.6ZM124.517 6H124.117C123.117 6 121.917 6.04 121.917 7.36C121.917 8.12 121.997 8.84 121.997 9.56C121.997 11.56 121.957 13.56 121.957 15.56C121.957 18.76 122.797 27.08 117.837 27.08C113.237 27.08 113.037 21.28 113.037 17.92C113.037 14.4 113.157 10.92 113.157 7.4C113.157 6.84 112.477 6.84 112.117 6.84C111.357 6.84 110.877 6.88 110.277 7.4C110.117 7.56 109.957 15.08 109.957 16C109.957 20.68 110.397 29.96 116.917 29.96C124.237 29.96 125.437 22.04 125.437 16.32C125.437 13.28 125.077 10.28 125.077 7.24C125.077 6.72 125.077 6.24 124.517 6ZM115.837 0.679997C115.557 0.479998 115.277 0.359999 114.957 0.359999C114.437 0.359999 113.437 1.52 113.437 2C113.437 3.32 116.877 5.4 118.077 5.4C118.517 5.4 119.677 5.16 119.677 4.6C119.677 3.88 116.517 1.2 115.837 0.679997ZM151.089 7.76C149.529 4.28 146.049 1.72 142.209 1.72C141.649 1.72 141.209 1.84 141.209 2.52C141.209 2.96 141.289 3.4 141.329 3.88C141.489 5.52 141.489 7.12 141.529 8.76C141.729 15.64 142.209 22.52 142.489 29.4C142.569 31 142.689 32.56 142.689 34.16C142.689 35.04 142.889 35.4 143.849 35.4C151.129 35.4 153.289 28.12 153.289 22.36C153.289 17.44 153.089 12.32 151.089 7.76ZM146.209 31.72C145.609 31.72 145.609 30.96 145.609 30.56C145.609 28.24 145.409 26.04 145.249 23.72C144.969 19.76 144.769 15.8 144.449 11.84C144.409 11.32 143.889 5.04 144.089 5.04C147.449 5.04 150.009 13.28 150.009 19.24C150.009 21.44 150.049 31.72 146.209 31.72ZM169.587 12.16C169.227 8.56 168.707 0.959999 163.747 0.959999C160.107 0.959999 155.987 5.36 155.987 8.92C155.987 9.88 157.307 9.84 157.947 9.84C158.107 9.84 158.267 9.88 158.427 9.84C159.947 9.72 159.907 9.4 159.907 8C159.907 6.32 161.027 4.28 162.907 4.28C163.787 4.28 164.467 4.88 164.947 5.52C166.627 7.84 166.627 21 166.627 24.48C166.587 24.52 166.507 24.52 166.427 24.52C165.387 24.52 164.067 23.36 162.627 23.36C159.867 23.36 158.547 25.76 158.547 28.24C158.547 33.88 162.267 36.4 167.587 36.4C170.307 36.4 169.987 35.28 169.987 33.12C169.987 29.68 170.107 26.24 170.107 22.8C170.107 19.24 169.987 15.68 169.587 12.16ZM165.667 33.24C163.547 33.24 162.067 30.96 162.067 29C162.067 27.64 162.987 26.56 164.387 26.56C166.187 26.56 166.747 27 166.747 28.84C166.747 29.84 167.067 30.8 167.067 31.8C167.067 32.4 166.947 33.24 166.187 33.24H165.667ZM187.501 23.4C187.141 20.36 187.341 17.32 187.341 14.28C187.341 12.48 187.141 10.72 187.141 8.96C187.141 8.24 187.261 7.56 187.261 6.84C187.261 5.92 185.141 5.52 184.461 5.52C183.901 5.52 183.901 6.12 183.901 6.52C183.901 11.52 184.501 16.48 184.501 21.48C184.501 21.96 184.501 22.4 184.381 22.88C182.501 20.2 178.141 7.12 177.221 6.4C176.701 6.04 176.061 5.88 175.421 5.88C174.621 5.88 174.181 6.32 174.181 7.12C174.181 7.96 174.461 8.76 174.581 9.56C174.821 11.36 174.861 13.24 174.861 15.04C174.861 17.36 174.741 19.68 174.741 21.96C174.741 24.84 174.901 27.64 175.221 30.48C175.301 31.04 175.301 31.56 176.021 31.56C176.581 31.56 177.141 31.64 177.701 31.64C178.501 31.64 178.501 30.44 178.501 29.88C178.501 25.76 177.861 21.68 177.461 17.6C177.301 16.08 177.101 14.6 177.101 13.12C177.101 12.96 177.141 12.76 177.181 12.6C177.861 13.08 179.541 18.24 179.981 19.36C180.981 22 182.381 24.48 183.341 27.12C183.581 27.72 183.941 29.28 184.461 29.6C184.821 29.8 186.221 29.8 186.661 29.8C187.781 29.8 187.781 27.88 187.781 27.12C187.781 25.88 187.621 24.64 187.501 23.4ZM200.627 19.68C199.227 17.12 195.147 13.96 195.147 10.96C195.147 10.44 195.227 9.24 195.987 9.24C197.667 9.24 196.267 11.4 198.227 11.4C198.867 11.4 199.507 11.32 200.147 11.24C200.067 9.04 198.467 6.44 196.067 6.44C193.787 6.44 192.267 8.6 192.267 10.72C192.267 16.24 199.147 19 199.147 25C199.147 26.04 198.667 27.8 197.347 27.8C195.747 27.8 195.867 25.8 195.867 24.68C195.867 23.8 195.027 23.24 194.187 23.24C193.107 23.24 192.707 24.12 192.707 25.08C192.707 27.6 194.507 30.68 197.307 30.68C200.387 30.68 201.987 27.56 201.987 24.84C201.987 23.04 201.467 21.24 200.627 19.68ZM229.839 14.56C229.759 11.52 229.599 8.48 229.599 5.44C229.599 4.44 229.719 3.48 229.719 2.52C229.719 0.439998 229.119 0.719999 227.399 0.559999C227.119 0.52 226.839 0.479998 226.559 0.479998C226.199 0.479998 225.959 0.839998 225.959 1.2C225.959 9.64 226.919 18.68 227.119 27.24C226.639 26.56 226.359 24.76 226.119 23.88C224.119 16.36 221.639 9 219.719 1.44C219.359 -0.160001 217.799 0.399999 216.679 0.239998C216.519 0.52 216.519 0.799998 216.519 1.08C216.519 3.04 216.799 5 216.879 6.96C217.199 16.36 217.679 25.76 217.679 35.16C217.679 36.48 218.719 36.4 219.679 36.4C220.799 36.4 221.159 36.16 221.159 34.96C221.159 33.88 220.959 32.76 220.879 31.68C220.559 26.8 220.759 21.92 220.199 17.04C220.079 15.84 219.839 15 219.839 12.88C220.599 14.2 221.519 17.96 221.999 19.52C223.399 24.16 224.919 28.84 225.999 33.56C226.199 34.28 226.399 36.88 227.439 36.88C227.879 36.88 229.839 36.68 230.119 36.44C230.279 36.28 230.279 36 230.279 35.8C230.279 34.8 230.079 33.84 230.079 32.84C230.079 31.4 230.119 30 230.119 28.56C230.119 23.88 229.919 19.24 229.839 14.56ZM246.696 12.16C246.336 8.56 245.816 0.959999 240.856 0.959999C237.216 0.959999 233.096 5.36 233.096 8.92C233.096 9.88 234.416 9.84 235.056 9.84C235.216 9.84 235.376 9.88 235.536 9.84C237.056 9.72 237.016 9.4 237.016 8C237.016 6.32 238.136 4.28 240.016 4.28C240.896 4.28 241.576 4.88 242.056 5.52C243.736 7.84 243.736 21 243.736 24.48C243.696 24.52 243.616 24.52 243.536 24.52C242.496 24.52 241.176 23.36 239.736 23.36C236.976 23.36 235.656 25.76 235.656 28.24C235.656 33.88 239.376 36.4 244.696 36.4C247.416 36.4 247.096 35.28 247.096 33.12C247.096 29.68 247.216 26.24 247.216 22.8C247.216 19.24 247.096 15.68 246.696 12.16ZM242.776 33.24C240.656 33.24 239.176 30.96 239.176 29C239.176 27.64 240.096 26.56 241.496 26.56C243.296 26.56 243.856 27 243.856 28.84C243.856 29.84 244.176 30.8 244.176 31.8C244.176 32.4 244.056 33.24 243.296 33.24H242.776ZM264.61 23.4C264.25 20.36 264.45 17.32 264.45 14.28C264.45 12.48 264.25 10.72 264.25 8.96C264.25 8.24 264.37 7.56 264.37 6.84C264.37 5.92 262.25 5.52 261.57 5.52C261.01 5.52 261.01 6.12 261.01 6.52C261.01 11.52 261.61 16.48 261.61 21.48C261.61 21.96 261.61 22.4 261.49 22.88C259.61 20.2 255.25 7.12 254.33 6.4C253.81 6.04 253.17 5.88 252.53 5.88C251.73 5.88 251.29 6.32 251.29 7.12C251.29 7.96 251.57 8.76 251.69 9.56C251.93 11.36 251.97 13.24 251.97 15.04C251.97 17.36 251.85 19.68 251.85 21.96C251.85 24.84 252.01 27.64 252.33 30.48C252.41 31.04 252.41 31.56 253.13 31.56C253.69 31.56 254.25 31.64 254.81 31.64C255.61 31.64 255.61 30.44 255.61 29.88C255.61 25.76 254.97 21.68 254.57 17.6C254.41 16.08 254.21 14.6 254.21 13.12C254.21 12.96 254.25 12.76 254.29 12.6C254.97 13.08 256.65 18.24 257.09 19.36C258.09 22 259.49 24.48 260.45 27.12C260.69 27.72 261.05 29.28 261.57 29.6C261.93 29.8 263.33 29.8 263.77 29.8C264.89 29.8 264.89 27.88 264.89 27.12C264.89 25.88 264.73 24.64 264.61 23.4ZM280.296 33.36C279.896 33 278.576 31.8 278.136 31.8C277.696 31.8 277.256 32.88 276.296 32.88C273.616 32.88 273.616 27.56 273.616 25.72C273.616 20.72 273.896 15.68 274.216 10.68C274.816 10.68 278.296 10.68 278.296 9.96C278.296 9.56 278.176 9.2 278.176 8.8C278.176 8.56 278.216 8.36 278.216 8.12C278.216 7.52 277.536 7.44 277.096 7.44C276.296 7.44 275.536 7.64 274.736 7.64H274.416C274.536 5.88 274.776 4.12 274.776 2.36C274.776 1.12 273.976 0.479998 272.736 0.479998C270.856 0.479998 271.336 3.28 271.336 4.44C271.336 5.44 271.256 6.44 271.256 7.48H270.976C268.856 7.48 268.576 7.52 268.576 9.72C268.576 9.88 268.576 10.04 268.616 10.16C269.176 10.56 270.496 10.6 271.216 10.64C271.176 15.28 270.656 19.88 270.656 24.52C270.656 28.24 270.656 36.64 275.976 36.64C277.296 36.64 280.456 35.24 280.456 33.68C280.456 33.56 280.376 33.44 280.296 33.36ZM295.713 23.16H295.553C294.833 23.16 294.153 23.04 293.433 23.04C293.113 23.04 292.713 23.04 292.433 23.24C291.633 23.72 292.593 28.68 289.953 28.68C287.273 28.68 287.313 22.88 287.113 21.04C287.033 20.32 286.913 19.6 286.913 18.88C286.913 17.48 288.193 17.2 289.313 17.2C290.673 17.2 292.033 17.32 293.393 17.32C294.873 17.32 295.873 17.04 295.873 15.32C295.873 11.68 293.953 5.2 289.473 5.2C283.713 5.2 283.353 14.68 283.353 18.76C283.353 22.68 284.633 31.92 289.913 31.92C293.953 31.92 296.113 27.44 296.113 23.92C296.113 23.6 296.073 23.24 295.713 23.16ZM287.353 13.24V12.36C287.353 11.08 287.353 8.32 289.193 8.32C291.073 8.32 292.433 11.64 292.433 13.16C292.433 14.04 291.873 14.04 291.193 14.12C290.233 14.24 289.313 14.56 288.353 14.56C288.073 14.56 287.273 14.52 287.273 14.12C287.273 13.8 287.313 13.52 287.353 13.24ZM307.697 19.68C306.297 17.12 302.217 13.96 302.217 10.96C302.217 10.44 302.297 9.24 303.057 9.24C304.737 9.24 303.337 11.4 305.297 11.4C305.937 11.4 306.577 11.32 307.217 11.24C307.137 9.04 305.537 6.44 303.137 6.44C300.857 6.44 299.337 8.6 299.337 10.72C299.337 16.24 306.217 19 306.217 25C306.217 26.04 305.737 27.8 304.417 27.8C302.817 27.8 302.937 25.8 302.937 24.68C302.937 23.8 302.097 23.24 301.257 23.24C300.177 23.24 299.777 24.12 299.777 25.08C299.777 27.6 301.577 30.68 304.377 30.68C307.457 30.68 309.057 27.56 309.057 24.84C309.057 23.04 308.537 21.24 307.697 19.68ZM326.469 28.12C326.109 28.12 325.669 28.2 325.469 28.52C325.309 28.8 325.229 30.76 325.229 31.2C325.229 31.8 325.509 32.16 326.149 32.16C326.869 32.16 327.629 32.04 328.349 31.96C328.989 31.92 328.909 31.16 328.909 30.72C328.909 28.36 328.709 28.12 326.469 28.12ZM332.229 5.2C331.389 4 329.989 3.12 328.509 3.12C325.549 3.12 324.029 6.28 324.029 8.84C324.029 9.84 324.309 11.04 325.509 11.04C326.349 11.04 327.269 10.48 327.269 9.6C327.269 9.04 327.069 8.56 327.069 8.04C327.069 7.2 327.589 6.08 328.549 6.08C330.069 6.08 330.589 8.24 330.589 9.4C330.589 14.2 327.149 16.52 325.589 20.52C325.429 20.92 325.229 24.4 325.229 24.96C325.229 25.36 325.509 25.68 325.909 25.68H327.389C327.789 25.68 328.069 25.4 328.109 25C328.429 21.84 329.029 19.92 330.709 17.2C331.389 16.16 332.149 15.12 332.629 13.96C333.189 12.6 333.509 11.04 333.509 9.6C333.509 8.04 333.149 6.48 332.229 5.2Z" fill="white"/>
</svg>
