<svg width="274" height="177" viewBox="0 0 274 177" fill="none" xmlns="http://www.w3.org/2000/svg">
<path d="M50.8678 62C43.3273 71.7745 18.0006 105.95 2.86781 127L119.868 97C123.534 96.3333 134.068 99 146.868 115C159.668 131 184.868 159 195.868 171C199.201 174.667 208.068 179.8 216.868 171C225.668 162.2 233.034 156.333 236.368 152C239.701 147.667 236.468 136.6 222.868 127C209.268 117.4 190.534 92.3333 182.868 81C180.201 77.3333 179.068 67.4 195.868 57C212.668 46.6 254.201 15.3333 272.868 1C272.868 1 239.757 12.2575 201.09 23.9242L67.7118 63.705C58.3262 67.0583 52.7777 63.1367 50.8678 62Z" fill="#0574CF"/>
<path d="M2.86781 127C5.59245 123.108 -0.0615904 131.075 2.86781 127ZM2.86781 127C18.0006 105.95 43.3273 71.7745 50.8678 62C52.7777 63.1367 58.3262 67.0583 67.7118 63.705L201.09 23.9242C239.757 12.2575 272.868 1 272.868 1C254.201 15.3333 212.668 46.6 195.868 57C179.068 67.4 180.201 77.3333 182.868 81C190.534 92.3333 209.268 117.4 222.868 127C236.468 136.6 239.701 147.667 236.368 152C233.034 156.333 225.668 162.2 216.868 171C208.068 179.8 199.201 174.667 195.868 171C184.868 159 159.668 131 146.868 115C134.068 99 123.534 96.3333 119.868 97L2.86781 127Z" stroke="white" stroke-width="2"/>
<path d="M116.753 63.76C116.433 62.88 116.233 61.92 116.233 60.96C116.233 59.72 116.753 57.88 118.313 57.88C120.673 57.88 120.033 61.8 120.793 62.12C121.313 62.36 121.873 62.36 122.433 62.36C123.113 62.36 123.313 61.88 123.313 61.28C123.313 58.52 121.673 55.48 118.553 55.48C115.233 55.48 113.553 58.12 113.553 61.2C113.553 66.96 119.913 71.44 121.433 77C121.793 78.44 121.833 79.96 121.833 81.44C121.833 83.04 121.793 87.8 119.473 87.8C116.913 87.8 116.993 83.04 116.993 81.28C116.993 79.84 116.713 79.16 115.113 79.16C114.113 79.16 113.913 80.16 113.913 80.92C113.913 84.52 115.073 89.64 119.553 89.64C123.113 89.64 125.073 85.6 125.073 82.48C125.073 77.52 123.073 72.76 120.153 68.84C118.953 67.2 117.473 65.72 116.753 63.76ZM142.279 60H141.879C140.879 60 139.679 60.04 139.679 61.36C139.679 62.12 139.759 62.84 139.759 63.56C139.759 65.56 139.719 67.56 139.719 69.56C139.719 72.76 140.559 81.08 135.599 81.08C130.999 81.08 130.799 75.28 130.799 71.92C130.799 68.4 130.919 64.92 130.919 61.4C130.919 60.84 130.239 60.84 129.879 60.84C129.119 60.84 128.639 60.88 128.039 61.4C127.879 61.56 127.719 69.08 127.719 70C127.719 74.68 128.159 83.96 134.679 83.96C141.999 83.96 143.199 76.04 143.199 70.32C143.199 67.28 142.839 64.28 142.839 61.24C142.839 60.72 142.839 60.24 142.279 60ZM156.429 61.76C154.869 58.28 151.389 55.72 147.549 55.72C146.989 55.72 146.549 55.84 146.549 56.52C146.549 56.96 146.629 57.4 146.669 57.88C146.829 59.52 146.829 61.12 146.869 62.76C147.069 69.64 147.549 76.52 147.829 83.4C147.909 85 148.029 86.56 148.029 88.16C148.029 89.04 148.229 89.4 149.189 89.4C156.469 89.4 158.629 82.12 158.629 76.36C158.629 71.44 158.429 66.32 156.429 61.76ZM151.549 85.72C150.949 85.72 150.949 84.96 150.949 84.56C150.949 82.24 150.749 80.04 150.589 77.72C150.309 73.76 150.109 69.8 149.789 65.84C149.749 65.32 149.229 59.04 149.429 59.04C152.789 59.04 155.349 67.28 155.349 73.24C155.349 75.44 155.389 85.72 151.549 85.72Z" fill="white"/>
</svg>
