<svg width="273" height="178" viewBox="0 0 273 178" fill="none" xmlns="http://www.w3.org/2000/svg">
<path d="M2.04164 127.442C4.76628 123.549 -0.887762 131.517 2.04164 127.442ZM2.04164 127.442C17.1744 106.392 42.5012 72.2162 50.0416 62.4417C51.9515 63.5784 57.5 67.5 66.8856 64.1467L200.264 24.3659C238.931 12.6992 272.042 1.44171 272.042 1.44171C253.375 15.775 211.842 47.0417 195.042 57.4417C178.242 67.8417 179.375 77.775 182.042 81.4417C189.708 92.775 208.442 117.842 222.042 127.442C235.642 137.042 238.875 148.108 235.542 152.442C232.208 156.775 224.842 162.642 216.042 171.442C207.242 180.242 198.375 175.108 195.042 171.442C184.042 159.442 158.842 131.442 146.042 115.442C133.242 99.4417 122.708 96.775 119.042 97.4417L2.04164 127.442Z" stroke="white" stroke-width="2"/>
</svg>
