<svg width="293" height="440" viewBox="0 0 293 440" fill="none" xmlns="http://www.w3.org/2000/svg">
    <path d="M146.484 412.651C163.268 412.651 176.874 409.712 176.874 406.085C176.874 402.459 163.268 399.519 146.484 399.519C129.7 399.519 116.094 402.459 116.094 406.085C116.094 409.712 129.7 412.651 146.484 412.651Z" stroke="#3EE5B1" stroke-width="2" stroke-miterlimit="10"/>
    <path d="M146.484 409.478C148.263 409.378 150.004 408.484 151.092 406.822L167.113 382.351H125.855L141.876 406.822C142.965 408.484 144.706 409.378 146.484 409.478Z" fill="#FDECE0"/>
    <path d="M146.484 397.573C146.978 397.567 147.484 397.548 147.997 397.523C165.164 396.686 180.336 358.302 179.634 351.068C178.938 343.834 169.772 337.004 169.772 337.004H123.183C123.183 337.004 114.018 343.834 113.321 351.068C112.625 358.302 127.792 396.686 144.958 397.523C145.49 397.548 145.99 397.567 146.484 397.573Z" fill="#FFCDB6"/>
    <path d="M146.484 426.678C160.031 426.678 171.013 424.874 171.013 422.649C171.013 420.424 160.031 418.62 146.484 418.62C132.937 418.62 121.956 420.424 121.956 422.649C121.956 424.874 132.937 426.678 146.484 426.678Z" stroke="#3EE5B1" stroke-width="2" stroke-miterlimit="10"/>
    <path d="M146.484 438.74C153.72 438.74 159.587 437.376 159.587 435.693C159.587 434.011 153.72 432.646 146.484 432.646C139.247 432.646 133.381 434.011 133.381 435.693C133.381 437.376 139.247 438.74 146.484 438.74Z" stroke="#3EE5B1" stroke-width="2" stroke-miterlimit="10"/>
    <path d="M157.201 257.15H137.445V281.029H157.201V257.15Z" fill="#45396D"/>
    <path d="M146.484 352.661C162.709 352.661 175.861 334.737 175.861 312.627C175.861 290.517 162.709 272.593 146.484 272.593C130.26 272.593 117.107 290.517 117.107 312.627C117.107 334.737 130.26 352.661 146.484 352.661Z" fill="#45396D"/>
    <path d="M237.717 358.421C237.135 363.539 235.299 377.799 232.216 386.084C231.134 388.999 227.051 389.131 225.716 386.323C220.076 374.519 217.056 358.119 218.981 350.709C220.81 343.652 232.267 351.987 236.426 355.286C237.369 356.041 237.85 357.225 237.717 358.421Z" fill="#45396D"/>
    <path d="M209.878 281.029C216.423 281.029 221.728 272.709 221.728 262.445C221.728 252.181 216.423 243.86 209.878 243.86C203.334 243.86 198.029 252.181 198.029 262.445C198.029 272.709 203.334 281.029 209.878 281.029Z" fill="#45396D"/>
    <path d="M149.813 264.119L149.826 296.454V296.46C149.984 296.46 152.333 296.309 179.868 293.652C185.749 293.085 190.49 290.838 194.313 287.57C194.313 287.564 194.313 287.564 194.313 287.564C210.771 273.475 210.131 240.284 210.119 239.705C193.807 254.619 172.797 263.742 149.813 264.119Z" fill="#FFCDB6"/>
    <path d="M149.826 296.46C149.826 296.617 149.839 301.1 151.181 310.493C180.242 318.501 182.204 330.613 183.577 330.022C184.951 329.436 201.054 322.02 197.522 313.426C194.034 304.94 194.307 288.005 194.313 287.57C190.49 290.838 185.749 293.085 179.868 293.652C152.333 296.309 149.984 296.46 149.826 296.46Z" fill="#FDECE0"/>
    <path d="M216.803 247.373C216.803 247.373 221.354 234.442 227.811 247.373C234.267 260.304 249.25 321.409 236.749 360.574C233.311 366.492 226.083 368.343 221.728 359.019C217.373 349.695 208.017 303.121 209.878 281.023C211.739 258.925 216.803 247.373 216.803 247.373Z" fill="#FDECE0"/>
    <path d="M147.997 58.2217C200.763 58.2217 243.541 104.318 243.541 161.18C243.541 192.652 230.438 220.818 209.79 239.699C209.79 239.699 209.79 239.699 209.79 239.705C193.478 254.619 172.469 263.742 149.485 264.119C148.991 264.126 148.491 264.132 147.997 264.132C147.491 264.132 146.991 264.126 146.484 264.119C145.984 264.126 145.478 264.132 144.971 264.132C144.478 264.132 143.977 264.126 143.484 264.119C120.5 263.742 99.4907 254.619 83.1785 239.705C83.1785 239.699 83.1785 239.699 83.1785 239.699C62.5302 220.818 49.4272 192.652 49.4272 161.18C49.4272 104.318 92.2049 58.2217 144.971 58.2217C145.478 58.2217 147.491 58.2217 147.997 58.2217Z" fill="#FDECE0"/>
    <path d="M145.914 153.984C110.561 154.4 86.6343 150.081 77.1077 150.32C63.6123 150.654 66.3089 182.201 84.5327 214.749C99.1992 240.952 120.423 250.628 145.914 249.381H146.484C171.981 250.628 193.199 240.952 207.865 214.749C226.083 182.201 228.786 150.654 215.29 150.32C205.764 150.081 181.836 154.406 146.484 153.984H145.914Z" fill="#FFCDB6"/>
    <path d="M14.5493 95.6805L1.00319 69.1194C1.00319 69.1194 -2.33268 62.6727 3.1617 60.7211L51.2059 141.336L49.6994 153.103L44.5911 153.027L14.5493 95.6805Z" fill="#45396D"/>
    <path d="M14.5493 95.6805C14.9418 96.4612 41.8123 176.006 41.8123 176.006L47.0219 151.661L14.5493 95.6805Z" fill="#FFCDB6"/>
    <path d="M53.7695 200.509C53.7695 200.509 41.9389 190.92 41.8123 174.105C41.6857 157.289 47.0155 151.655 47.0155 151.655L53.7695 200.509Z" fill="#FFCDB6"/>
    <path d="M61.6441 211.469C61.6441 211.469 56.0294 213.358 52.8645 196.41C49.6995 179.462 46.3826 151.031 46.965 147.342C47.5473 143.653 46.6548 140.417 50.8452 139.001C55.0356 137.578 61.6441 211.469 61.6441 211.469Z" fill="#45396D"/>
    <path d="M278.444 95.7372L291.997 69.1761C291.997 69.1761 295.333 62.7294 289.838 60.7777L241.788 141.393L243.294 153.159L248.402 153.084L278.444 95.7372Z" fill="#45396D"/>
    <path d="M278.444 95.7372C278.052 96.5179 251.181 176.063 251.181 176.063L245.972 151.718L278.444 95.7372Z" fill="#FFCDB6"/>
    <path d="M239.224 200.572C239.224 200.572 251.055 190.983 251.181 174.168C251.308 157.352 245.978 151.718 245.978 151.718L239.224 200.572Z" fill="#FFCDB6"/>
    <path d="M231.35 211.526C231.35 211.526 236.964 213.415 240.129 196.467C243.294 179.519 246.611 151.088 246.029 147.399C245.446 143.71 246.339 140.474 242.148 139.057C237.958 137.634 231.35 211.526 231.35 211.526Z" fill="#45396D"/>
    <path d="M143.471 296.46C143.471 296.454 143.471 296.454 143.471 296.454C143.471 296.454 143.49 296.46 143.471 296.46Z" fill="#03A678"/>
    <path d="M55.5864 358.421C56.1688 363.539 58.0045 377.799 61.0872 386.084C62.1696 388.999 66.2524 389.131 67.588 386.323C73.228 374.519 76.2473 358.119 74.323 350.709C72.4937 343.652 61.0365 351.987 56.8777 355.286C55.9346 356.041 55.4472 357.225 55.5864 358.421Z" fill="#45396D"/>
    <path d="M83.4253 281.029C89.9697 281.029 95.275 272.709 95.275 262.445C95.275 252.181 89.9697 243.86 83.4253 243.86C76.8809 243.86 71.5757 252.181 71.5757 262.445C71.5757 272.709 76.8809 281.029 83.4253 281.029Z" fill="#45396D"/>
    <path d="M143.484 264.119L143.471 296.454V296.46C143.313 296.46 140.964 296.309 113.429 293.652C107.549 293.085 102.807 290.838 98.9842 287.57C98.9842 287.564 98.9842 287.564 98.9842 287.564C82.5264 273.475 83.1657 240.284 83.1784 239.705C99.4906 254.619 120.5 263.742 143.484 264.119Z" fill="#FFCDB6"/>
    <path d="M143.471 296.46C143.471 296.617 143.458 301.1 142.117 310.493C113.056 318.501 111.094 330.613 109.72 330.022C108.346 329.436 92.243 322.02 95.7751 313.426C99.2629 304.94 98.9907 288.005 98.9844 287.57C102.808 290.838 107.549 293.085 113.429 293.652C140.964 296.309 143.313 296.46 143.471 296.46Z" fill="#FDECE0"/>
    <path d="M76.5004 247.373C76.5004 247.373 71.9491 234.442 65.4926 247.373C59.0361 260.304 44.0531 321.409 56.5547 360.574C59.9919 366.492 67.2207 368.343 71.5757 359.019C75.9307 349.695 85.2863 303.121 83.4253 281.023C81.5643 258.925 76.5004 247.373 76.5004 247.373Z" fill="#FDECE0"/>
    <path d="M169.842 279.197C169.829 280.563 168.981 281.93 167.113 281.93C165.246 281.93 164.379 280.595 164.379 279.204C164.379 277.812 165.278 276.415 167.113 276.415C168.949 276.421 169.861 277.819 169.842 279.197ZM165.373 279.222C165.398 280.091 165.866 281.017 167.12 281.017C168.373 281.017 168.842 280.079 168.861 279.21C168.873 278.316 168.373 277.321 167.12 277.321C165.866 277.328 165.347 278.329 165.373 279.222Z" fill="#FDECE0"/>
    <path d="M173 278.706L174.412 276.522H175.621V276.566L173.5 279.625V281.81H172.5V279.625L170.456 276.566V276.522H171.646L173 278.706Z" fill="#FDECE0"/>
    <path d="M180.4 280.815H177.621L177.165 281.81H176.077L178.463 276.522H179.558L181.945 281.81H180.849L180.4 280.815ZM179.014 277.636L178.026 279.884H180.001L179.014 277.636Z" fill="#FDECE0"/>
    <path d="M165.169 9.59537C164.975 8.92746 164.135 8.79945 163.668 9.32821C156.004 17.9442 144.904 19.6084 141.823 30.2002C139.832 37.0351 141.912 42.395 143.241 44.8941C143.286 44.972 143.33 45.0388 143.38 45.0889C141.011 55.0852 141.506 59.933 142.084 62.0314C142.301 62.8106 143.163 63.2113 143.908 62.8941C144.542 62.6213 144.865 61.9145 144.659 61.2521C143.959 59.0035 142.001 53.7883 144.815 44.0258C147.062 37.4247 149.703 33.9961 151.8 32.2095C153.897 30.5453 155.526 30.2837 155.526 30.2837C150.465 36.1946 148.997 43.1742 148.585 46.7419C148.419 48.1111 149.397 49.3356 150.76 49.4525C160.526 50.2763 165.419 42.5397 167.444 33.0777C169.19 24.9182 166.359 13.7252 165.169 9.59537Z" fill="#04D99D"/>
</svg>
