<svg width="189" height="285" viewBox="0 0 189 285" fill="none" xmlns="http://www.w3.org/2000/svg">
    <path d="M94.4898 267.112C105.316 267.112 114.093 265.209 114.093 262.862C114.093 260.515 105.316 258.612 94.4898 258.612C83.6633 258.612 74.8867 260.515 74.8867 262.862C74.8867 265.209 83.6633 267.112 94.4898 267.112Z" stroke="#3EE5B1" stroke-width="2" stroke-miterlimit="10"/>
    <path d="M94.4896 265.059C95.6369 264.993 96.7598 264.415 97.4621 263.339L107.797 247.499H81.1826L91.517 263.339C92.2193 264.415 93.3422 264.993 94.4896 265.059Z" fill="#FDECE0"/>
    <path d="M94.4899 257.352C94.8084 257.348 95.135 257.336 95.4658 257.32C106.539 256.778 116.327 231.931 115.873 227.249C115.424 222.567 109.512 218.145 109.512 218.145H79.4599C79.4599 218.145 73.5475 222.567 73.0984 227.249C72.6492 231.931 82.4324 256.778 93.5059 257.32C93.8489 257.336 94.1714 257.348 94.4899 257.352Z" fill="#FFCDB6"/>
    <path d="M94.4896 276.192C103.228 276.192 110.312 275.024 110.312 273.584C110.312 272.143 103.228 270.976 94.4896 270.976C85.7513 270.976 78.6675 272.143 78.6675 273.584C78.6675 275.024 85.7513 276.192 94.4896 276.192Z" stroke="#3EE5B1" stroke-width="2" stroke-miterlimit="10"/>
    <path d="M94.4897 284C99.1576 284 102.942 283.117 102.942 282.028C102.942 280.938 99.1576 280.055 94.4897 280.055C89.8217 280.055 86.0376 280.938 86.0376 282.028C86.0376 283.117 89.8217 284 94.4897 284Z" stroke="#3EE5B1" stroke-width="2" stroke-miterlimit="10"/>
    <path d="M101.403 166.455H88.6592V181.912H101.403V166.455Z" fill="#45396D"/>
    <path d="M94.4899 228.28C104.956 228.28 113.44 216.678 113.44 202.366C113.44 188.054 104.956 176.452 94.4899 176.452C84.0242 176.452 75.54 188.054 75.54 202.366C75.54 216.678 84.0242 228.28 94.4899 228.28Z" fill="#45396D"/>
    <path d="M153.34 232.009C152.965 235.322 151.78 244.552 149.792 249.915C149.094 251.802 146.46 251.887 145.599 250.07C141.961 242.429 140.013 231.813 141.254 227.017C142.434 222.448 149.825 227.844 152.507 229.979C153.116 230.468 153.426 231.234 153.34 232.009Z" fill="#45396D"/>
    <path d="M135.382 181.912C139.604 181.912 143.026 176.526 143.026 169.882C143.026 163.239 139.604 157.853 135.382 157.853C131.161 157.853 127.739 163.239 127.739 169.882C127.739 176.526 131.161 181.912 135.382 181.912Z" fill="#45396D"/>
    <path d="M96.6377 170.966L96.6459 191.897V191.901C96.7479 191.901 98.2628 191.803 116.024 190.083C119.818 189.716 122.876 188.262 125.342 186.147C125.342 186.142 125.342 186.142 125.342 186.142C135.958 177.022 135.546 155.538 135.538 155.163C125.016 164.817 111.464 170.722 96.6377 170.966Z" fill="#FFCDB6"/>
    <path d="M96.646 191.901C96.646 192.003 96.6542 194.904 97.5198 200.984C116.265 206.168 117.531 214.009 118.417 213.626C119.303 213.247 129.691 208.446 127.412 202.883C125.163 197.39 125.338 186.428 125.342 186.147C122.876 188.262 119.818 189.716 116.025 190.083C98.2629 191.803 96.7481 191.901 96.646 191.901Z" fill="#FDECE0"/>
    <path d="M139.849 160.126C139.849 160.126 142.785 151.756 146.95 160.126C151.115 168.497 160.78 208.051 152.715 233.402C150.498 237.233 145.835 238.431 143.026 232.396C140.217 226.361 134.182 196.212 135.383 181.908C136.583 167.604 139.849 160.126 139.849 160.126Z" fill="#FDECE0"/>
    <path d="M94.49 37.6955C94.8126 37.6914 95.1392 37.6874 95.4659 37.6874C129.503 37.6874 157.097 67.5259 157.097 104.333C157.097 124.705 148.645 142.937 135.325 155.159C135.325 155.159 135.325 155.159 135.325 155.163C124.803 164.817 111.251 170.722 96.4254 170.966C96.1069 170.971 95.7844 170.975 95.4659 170.975C95.1392 170.975 94.8166 170.971 94.49 170.966C94.1674 170.971 93.8408 170.975 93.5141 170.975C93.1956 170.975 92.8731 170.971 92.5546 170.966C77.7287 170.722 64.1768 164.817 53.6546 155.163C53.6546 155.159 53.6546 155.159 53.6546 155.159C40.3354 142.937 31.8833 124.705 31.8833 104.333C31.8833 67.5259 59.4771 37.6874 93.5141 37.6874C93.8408 37.6874 94.1674 37.6914 94.49 37.6955Z" fill="#FDECE0"/>
    <path d="M94.1224 99.6751C71.3181 99.944 55.8838 97.1485 49.7387 97.3033C41.0334 97.5193 42.7729 117.94 54.5282 139.009C63.9888 155.97 77.6796 162.233 94.1224 161.426H94.4898C110.937 162.233 124.623 155.97 134.084 139.009C145.835 117.94 147.579 97.5193 138.874 97.3033C132.728 97.1485 117.294 99.9481 94.4898 99.6751H94.1224Z" fill="#FFCDB6"/>
    <path d="M9.38502 61.9347L0.647111 44.7415C0.647111 44.7415 -1.5047 40.5685 2.03946 39.3052L33.0304 91.488L32.0587 99.1046L28.7636 99.0557L9.38502 61.9347Z" fill="#45396D"/>
    <path d="M9.38477 61.9347C9.63792 62.4401 26.9708 113.93 26.9708 113.93L30.3312 98.1713L9.38477 61.9347Z" fill="#FFCDB6"/>
    <path d="M34.6842 129.791C34.6842 129.791 27.0528 123.584 26.9712 112.699C26.8895 101.815 30.3275 98.1673 30.3275 98.1673L34.6842 129.791Z" fill="#FFCDB6"/>
    <path d="M39.7635 136.886C39.7635 136.886 36.1417 138.108 34.1002 127.138C32.0586 116.167 29.9191 97.7638 30.2947 95.3757C30.6703 92.9877 30.0946 90.893 32.7977 89.9761C35.5007 89.0551 39.7635 136.886 39.7635 136.886Z" fill="#45396D"/>
    <path d="M179.611 61.9714L188.353 44.7782C188.353 44.7782 190.505 40.6052 186.96 39.3419L155.965 91.5247L156.937 99.1412L160.232 99.0923L179.611 61.9714Z" fill="#45396D"/>
    <path d="M179.611 61.9714C179.358 62.4767 162.025 113.967 162.025 113.967L158.665 98.208L179.611 61.9714Z" fill="#FFCDB6"/>
    <path d="M154.312 129.831C154.312 129.831 161.943 123.625 162.025 112.74C162.107 101.855 158.669 98.208 158.669 98.208L154.312 129.831Z" fill="#FFCDB6"/>
    <path d="M149.232 136.922C149.232 136.922 152.854 138.145 154.896 127.174C156.937 116.204 159.077 97.8005 158.701 95.4124C158.326 93.0244 158.901 90.9297 156.198 90.0128C153.495 89.0918 149.232 136.922 149.232 136.922Z" fill="#45396D"/>
    <path d="M92.5464 191.901C92.5464 191.897 92.5464 191.897 92.5464 191.897C92.5464 191.897 92.5598 191.901 92.5464 191.901Z" fill="#03A678"/>
    <path d="M35.8559 232.009C36.2316 235.322 37.4157 244.552 39.4042 249.915C40.1024 251.802 42.736 251.887 43.5976 250.07C47.2356 242.429 49.1833 231.813 47.942 227.017C46.762 222.448 39.3715 227.844 36.6889 229.979C36.0805 230.468 35.7661 231.234 35.8559 232.009Z" fill="#45396D"/>
    <path d="M53.8135 181.912C58.035 181.912 61.4572 176.526 61.4572 169.882C61.4572 163.239 58.035 157.853 53.8135 157.853C49.5921 157.853 46.1699 163.239 46.1699 169.882C46.1699 176.526 49.5921 181.912 53.8135 181.912Z" fill="#45396D"/>
    <path d="M92.5543 170.966L92.5461 191.897V191.901C92.444 191.901 90.9292 191.803 73.1676 190.083C69.3743 189.716 66.3161 188.262 63.8498 186.147C63.8498 186.142 63.8498 186.142 63.8498 186.142C53.2337 177.022 53.6461 155.538 53.6543 155.163C64.1765 164.817 77.7284 170.722 92.5543 170.966Z" fill="#FFCDB6"/>
    <path d="M92.5463 191.901C92.5463 192.003 92.5381 194.904 91.6725 200.984C72.9268 206.168 71.6611 214.009 70.775 213.626C69.889 213.247 59.5015 208.446 61.7799 202.883C64.0297 197.39 63.8541 186.428 63.85 186.147C66.3163 188.262 69.3745 189.716 73.1677 190.083C90.9294 191.803 92.4442 191.901 92.5463 191.901Z" fill="#FDECE0"/>
    <path d="M49.3468 160.126C49.3468 160.126 46.411 151.756 42.2462 160.126C38.0814 168.497 28.4166 208.051 36.4808 233.402C38.698 237.233 43.3609 238.431 46.1701 232.396C48.9793 226.361 55.0142 196.212 53.8137 181.908C52.6133 167.604 49.3468 160.126 49.3468 160.126Z" fill="#FDECE0"/>
    <path d="M109.556 180.727C109.548 181.611 109.001 182.495 107.797 182.495C106.592 182.495 106.033 181.631 106.033 180.731C106.033 179.83 106.613 178.925 107.797 178.925C108.981 178.929 109.569 179.834 109.556 180.727ZM106.674 180.743C106.69 181.305 106.992 181.904 107.801 181.904C108.609 181.904 108.911 181.297 108.924 180.735C108.932 180.156 108.609 179.512 107.801 179.512C106.992 179.516 106.657 180.164 106.674 180.743Z" fill="#FDECE0"/>
    <path d="M111.594 180.409L112.505 178.994H113.284V179.023L111.917 181.003V182.418H111.271V181.003L109.953 179.023V178.994H110.72L111.594 180.409Z" fill="#FDECE0"/>
    <path d="M116.367 181.774H114.574L114.28 182.418H113.578L115.117 178.994H115.824L117.363 182.418H116.657L116.367 181.774ZM115.473 179.716L114.836 181.171H116.11L115.473 179.716Z" fill="#FDECE0"/>
    <path d="M117.097 147.432C126.658 146.998 133.96 136.806 133.408 124.667C132.855 112.527 124.656 103.038 115.095 103.472C105.534 103.905 98.2318 114.098 98.7845 126.237C99.3373 138.376 107.536 147.865 117.097 147.432Z" fill="white"/>
    <path d="M74.658 118.608C61.9921 118.608 57.8682 125.451 57.8682 125.451C57.8682 125.451 60.8652 110.201 74.658 110.201C88.4508 110.201 91.4479 125.451 91.4479 125.451C91.4479 125.451 87.3239 118.608 74.658 118.608Z" fill="white"/>
    <path d="M107.92 6.2017C107.794 5.76998 107.248 5.68723 106.945 6.02901C101.968 11.5982 94.7582 12.6739 92.7572 19.5203C91.4641 23.9382 92.815 27.4027 93.6782 29.0181C93.7071 29.0685 93.736 29.1116 93.7685 29.144C92.2298 35.6054 92.5513 38.739 92.9269 40.0953C93.0678 40.599 93.6277 40.858 94.1117 40.653C94.5234 40.4767 94.7329 40.0198 94.5993 39.5916C94.1442 38.1382 92.8728 34.7672 94.7004 28.4569C96.1596 24.19 97.8753 21.9739 99.237 20.819C100.599 19.7433 101.657 19.5742 101.657 19.5742C98.3702 23.395 97.4166 27.9064 97.1493 30.2125C97.041 31.0976 97.6767 31.889 98.5616 31.9646C104.904 32.497 108.083 27.4963 109.398 21.3803C110.532 16.1061 108.693 8.87117 107.92 6.2017Z" fill="#04D99D"/>
</svg>
