<svg width="238" height="361" viewBox="0 0 238 361" fill="none" xmlns="http://www.w3.org/2000/svg">
<path d="M72.3539 229.812C75.6158 221.49 74.4172 213.223 69.6769 211.347C64.9365 209.472 58.4495 214.699 55.1876 223.021C51.9258 231.343 53.1243 239.61 57.8647 241.486C62.605 243.361 69.0921 238.134 72.3539 229.812Z" fill="#45396D"/>
<path d="M179.51 241.497C184.251 239.622 185.449 231.355 182.187 223.033C178.926 214.71 172.439 209.484 167.698 211.359C162.958 213.235 161.759 221.501 165.021 229.824C168.283 238.146 174.77 243.373 179.51 241.497Z" fill="#45396D"/>
<path d="M118.987 338.593C132.621 338.593 143.673 336.181 143.673 333.205C143.673 330.23 132.621 327.818 118.987 327.818C105.354 327.818 94.3018 330.23 94.3018 333.205C94.3018 336.181 105.354 338.593 118.987 338.593Z" stroke="#3EE5B1" stroke-width="2" stroke-miterlimit="10"/>
<path d="M118.987 335.99C120.432 335.907 121.846 335.173 122.73 333.81L135.744 313.731H102.23L115.244 333.81C116.128 335.173 117.542 335.907 118.987 335.99Z" fill="#FDECE0"/>
<path d="M118.987 326.221C119.388 326.216 119.8 326.201 120.216 326.18C134.16 325.493 146.485 293.997 145.914 288.062C145.349 282.127 137.904 276.522 137.904 276.522H100.061C100.061 276.522 92.6153 282.127 92.0497 288.062C91.4842 293.997 103.804 325.493 117.748 326.18C118.18 326.201 118.586 326.216 118.987 326.221Z" fill="#FFCDB6"/>
<path d="M118.987 350.102C129.991 350.102 138.911 348.622 138.911 346.796C138.911 344.971 129.991 343.49 118.987 343.49C107.983 343.49 99.063 344.971 99.063 346.796C99.063 348.622 107.983 350.102 118.987 350.102Z" stroke="#3EE5B1" stroke-width="2" stroke-miterlimit="10"/>
<path d="M118.987 360C124.865 360 129.631 358.881 129.631 357.5C129.631 356.119 124.865 355 118.987 355C113.109 355 108.344 356.119 108.344 357.5C108.344 358.881 113.109 360 118.987 360Z" stroke="#3EE5B1" stroke-width="2" stroke-miterlimit="10"/>
<path d="M127.692 211H111.645V230.593H127.692V211Z" fill="#45396D"/>
<path d="M118.987 289.369C132.166 289.369 142.85 274.662 142.85 256.52C142.85 238.378 132.166 223.671 118.987 223.671C105.808 223.671 95.1245 238.378 95.1245 256.52C95.1245 274.662 105.808 289.369 118.987 289.369Z" fill="#45396D"/>
<path d="M121.692 216.718L121.702 243.249V243.254C121.83 243.254 123.738 243.13 146.105 240.95C150.881 240.486 154.732 238.641 157.838 235.96C157.838 235.955 157.838 235.955 157.838 235.955C171.206 224.394 170.687 197.161 170.677 196.685C157.427 208.923 140.361 216.408 121.692 216.718Z" fill="#FFCDB6"/>
<path d="M121.702 243.254C121.702 243.384 121.712 247.062 122.802 254.769C146.408 261.34 148.002 271.279 149.118 270.793C150.233 270.313 163.314 264.227 160.445 257.176C157.612 250.213 157.833 236.317 157.838 235.96C154.732 238.641 150.881 240.486 146.105 240.951C123.738 243.13 121.83 243.254 121.702 243.254Z" fill="#FDECE0"/>
<path d="M118.987 47.783C119.393 47.7779 119.805 47.7727 120.216 47.7727C163.078 47.7727 197.825 85.5962 197.825 132.253C197.825 158.077 187.182 181.188 170.41 196.68C170.41 196.68 170.41 196.68 170.41 196.685C157.159 208.923 140.094 216.408 121.424 216.718C121.023 216.723 120.617 216.728 120.216 216.728C119.805 216.728 119.399 216.723 118.987 216.718C118.581 216.723 118.17 216.728 117.758 216.728C117.357 216.728 116.951 216.723 116.55 216.718C97.8805 216.408 80.8151 208.923 67.5649 196.685C67.5649 196.68 67.5649 196.68 67.5649 196.68C50.7925 181.188 40.1492 158.077 40.1492 132.253C40.1492 85.5962 74.8969 47.7727 117.758 47.7727C118.17 47.7727 118.581 47.7779 118.987 47.783Z" fill="#FDECE0"/>
<path d="M118.525 126.349C89.808 126.69 70.3722 123.146 62.6339 123.342C51.6718 123.616 53.8622 149.501 68.6652 176.208C80.5786 197.708 97.8188 205.648 118.525 204.625H118.987C139.698 205.648 156.933 197.708 168.847 176.208C183.644 149.501 185.84 123.616 174.878 123.342C167.14 123.146 147.704 126.695 118.987 126.349H118.525Z" fill="#FFCDB6"/>
<path d="M11.8182 78.5088L0.814881 56.7146C0.814881 56.7146 -1.89481 51.4249 2.56821 49.8235L41.5939 115.971L40.3702 125.625L36.2208 125.564L11.8182 78.5088Z" fill="#45396D"/>
<path d="M11.8181 78.5088C12.1369 79.1493 33.9635 144.418 33.9635 144.418L38.1952 124.442L11.8181 78.5088Z" fill="#FFCDB6"/>
<path d="M43.6764 164.523C43.6764 164.523 34.0666 156.656 33.9637 142.858C33.8609 129.061 38.1902 124.437 38.1902 124.437L43.6764 164.523Z" fill="#FFCDB6"/>
<path d="M50.0726 173.517C50.0726 173.517 45.5119 175.067 42.941 161.161C40.3702 147.254 37.6759 123.926 38.1489 120.899C38.622 117.872 37.897 115.217 41.3008 114.054C44.7046 112.887 50.0726 173.517 50.0726 173.517Z" fill="#45396D"/>
<path d="M226.177 78.5553L237.185 56.7611C237.185 56.7611 239.895 51.4714 235.432 49.87L196.401 116.017L197.625 125.672L201.774 125.61L226.177 78.5553Z" fill="#45396D"/>
<path d="M226.177 78.5553C225.858 79.1958 204.031 144.465 204.031 144.465L199.8 124.489L226.177 78.5553Z" fill="#FFCDB6"/>
<path d="M194.319 164.575C194.319 164.575 203.928 156.708 204.031 142.91C204.134 129.112 199.805 124.489 199.805 124.489L194.319 164.575Z" fill="#FFCDB6"/>
<path d="M187.922 173.564C187.922 173.564 192.483 175.113 195.054 161.207C197.625 147.301 200.319 123.972 199.846 120.945C199.373 117.918 200.098 115.263 196.694 114.101C193.29 112.933 187.922 173.564 187.922 173.564Z" fill="#45396D"/>
<path d="M116.54 243.255C116.54 243.249 116.54 243.249 116.54 243.249C116.54 243.249 116.556 243.255 116.54 243.255Z" fill="#03A678"/>
<path d="M116.55 216.718L116.54 243.249V243.254C116.411 243.254 114.503 243.13 92.137 240.95C87.3603 240.486 83.5092 238.641 80.4036 235.96C80.4036 235.955 80.4036 235.955 80.4036 235.955C67.0351 224.394 67.5544 197.161 67.5647 196.685C80.8149 208.923 97.8803 216.408 116.55 216.718Z" fill="#FFCDB6"/>
<path d="M116.54 243.254C116.54 243.384 116.529 247.062 115.439 254.769C91.8336 261.34 90.2397 271.279 89.1239 270.793C88.0082 270.313 74.9276 264.227 77.7967 257.176C80.6298 250.213 80.4087 236.317 80.4036 235.96C83.5092 238.641 87.3603 240.486 92.137 240.951C114.504 243.13 116.411 243.254 116.54 243.254Z" fill="#FDECE0"/>
<path d="M137.96 229.09C137.95 230.211 137.261 231.332 135.744 231.332C134.227 231.332 133.523 230.237 133.523 229.095C133.523 227.953 134.253 226.807 135.744 226.807C137.235 226.812 137.975 227.959 137.96 229.09ZM134.33 229.111C134.351 229.823 134.731 230.583 135.749 230.583C136.767 230.583 137.148 229.813 137.163 229.1C137.173 228.367 136.767 227.551 135.749 227.551C134.731 227.556 134.309 228.377 134.33 229.111Z" fill="#FDECE0"/>
<path d="M140.526 228.687L141.672 226.894H142.654V226.93L140.932 229.441V231.234H140.119V229.441L138.459 226.93V226.894H139.425L140.526 228.687Z" fill="#FDECE0"/>
<path d="M146.536 230.417H144.279L143.909 231.234H143.025L144.963 226.894H145.853L147.791 231.234H146.901L146.536 230.417ZM145.41 227.809L144.608 229.653H146.212L145.41 227.809Z" fill="#FDECE0"/>
<path d="M147.481 183.259C159.521 182.709 168.716 169.789 168.02 154.401C167.324 139.014 157 126.985 144.96 127.535C132.921 128.085 123.725 141.004 124.421 156.392C125.117 171.78 135.441 183.808 147.481 183.259Z" fill="white"/>
<path d="M115.942 156.39C116.638 141.002 107.442 128.082 95.4028 127.532C83.3632 126.983 73.0389 139.011 72.3428 154.399C71.6468 169.787 80.8426 182.707 92.8822 183.256C104.922 183.806 115.246 171.777 115.942 156.39Z" fill="white"/>
<path d="M105.994 171.931C107.454 167.235 108.724 156.207 107.948 149C107.675 146.464 104.23 145.359 102.873 147.513C96.9189 156.94 91.7721 168.362 91.808 174.638C91.844 180.615 101.187 176.141 105.12 174.338C106.015 173.925 105.701 172.871 105.994 171.931Z" fill="#45396D"/>
<path d="M95.8186 162.643C89.4017 168.088 88.6099 188.162 57.4562 227.597C48.1548 239.303 48.417 247.64 58.3406 252.563C61.5593 254.159 68.1098 252.909 69.8169 251.38C75.0872 246.659 103.156 200.095 107.418 166.652C107.948 160.35 102.235 157.198 95.8186 162.643Z" fill="#FDECE0"/>
<path d="M131.245 171.931C129.785 167.235 128.515 156.207 129.291 149C129.564 146.464 133.009 145.359 134.366 147.513C140.32 156.94 145.467 168.362 145.431 174.638C145.395 180.615 136.053 176.141 132.119 174.338C131.225 173.925 131.538 172.871 131.245 171.931Z" fill="#45396D"/>
<path d="M141.42 162.643C147.837 168.088 148.629 188.162 179.783 227.597C189.084 239.303 188.822 247.64 178.899 252.563C175.68 254.159 169.129 252.909 167.422 251.38C162.152 246.659 134.083 200.095 129.821 166.652C129.291 160.35 135.004 157.198 141.42 162.643Z" fill="#FDECE0"/>
<path d="M132.728 8.72029C132.568 8.17054 131.876 8.06517 131.491 8.50039C125.18 15.5922 116.039 16.9619 113.501 25.6801C111.862 31.3058 113.575 35.7176 114.669 37.7746C114.706 37.8387 114.743 37.8937 114.784 37.9349C112.833 46.1628 113.24 50.1531 113.717 51.8802C113.895 52.5216 114.605 52.8514 115.219 52.5903C115.741 52.3658 116.007 51.784 115.837 51.2388C115.26 49.388 113.648 45.0954 115.965 37.0599C117.816 31.6265 119.991 28.8045 121.718 27.3339C123.444 25.9641 124.786 25.7488 124.786 25.7488C120.619 30.6141 119.41 36.3589 119.071 39.2955C118.933 40.4225 119.739 41.4304 120.861 41.5266C128.904 42.2046 132.934 35.8367 134.601 28.0486C136.039 21.3325 133.708 12.1196 132.728 8.72029Z" fill="#04D99D"/>
</svg>
