<svg width="238" height="246" viewBox="0 0 238 246" fill="none" xmlns="http://www.w3.org/2000/svg">
<path d="M72.3542 221.581C75.616 213.259 74.4175 204.992 69.6771 203.116C64.9368 201.241 58.4497 206.468 55.1878 214.79C51.926 223.112 53.1246 231.379 57.8649 233.255C62.6053 235.13 69.0923 229.903 72.3542 221.581Z" fill="#45396D"/>
<path d="M179.51 233.266C184.251 231.391 185.449 223.124 182.187 214.802C178.925 206.479 172.438 201.253 167.698 203.128C162.958 205.004 161.759 213.27 165.021 221.593C168.283 229.915 174.77 235.142 179.51 233.266Z" fill="#45396D"/>
<path d="M127.692 202.769H111.645V222.362H127.692V202.769Z" fill="#45396D"/>
<path d="M121.692 208.487L121.702 235.018V235.023C121.831 235.023 123.738 234.899 146.105 232.72C150.881 232.255 154.733 230.41 157.838 227.729C157.838 227.724 157.838 227.724 157.838 227.724C171.207 216.163 170.687 188.93 170.677 188.454C157.427 200.692 140.361 208.177 121.692 208.487Z" fill="#FFCDB6"/>
<path d="M118.987 39.5521C119.393 39.5469 119.805 39.5417 120.216 39.5417C163.077 39.5417 197.825 77.3652 197.825 124.022C197.825 149.846 187.182 172.957 170.409 188.449C170.409 188.449 170.409 188.449 170.409 188.454C157.159 200.692 140.094 208.177 121.424 208.487C121.023 208.492 120.617 208.497 120.216 208.497C119.805 208.497 119.398 208.492 118.987 208.487C118.581 208.492 118.169 208.497 117.758 208.497C117.357 208.497 116.951 208.492 116.55 208.487C97.8802 208.177 80.8148 200.692 67.5646 188.454C67.5646 188.449 67.5646 188.449 67.5646 188.449C50.7923 172.957 40.1489 149.846 40.1489 124.022C40.1489 77.3652 74.8967 39.5417 117.758 39.5417C118.169 39.5417 118.581 39.5469 118.987 39.5521Z" fill="#FDECE0"/>
<path d="M118.524 118.118C89.8077 118.459 70.372 114.915 62.6337 115.111C51.6715 115.385 53.8619 141.271 68.6649 167.977C80.5783 189.477 97.8185 197.417 118.524 196.394H118.987C139.698 197.417 156.933 189.477 168.846 167.977C183.644 141.271 185.84 115.385 174.878 115.111C167.139 114.915 147.704 118.464 118.987 118.118H118.524Z" fill="#FFCDB6"/>
<path d="M11.8182 70.2779L0.814881 48.4836C0.814881 48.4836 -1.89481 43.1939 2.56821 41.5925L41.5939 107.74L40.3702 117.395L36.2208 117.333L11.8182 70.2779Z" fill="#45396D"/>
<path d="M11.8181 70.2778C12.1369 70.9184 33.9635 136.187 33.9635 136.187L38.1952 116.212L11.8181 70.2778Z" fill="#FFCDB6"/>
<path d="M43.6764 156.293C43.6764 156.293 34.0666 148.425 33.9637 134.627C33.8609 120.83 38.1902 116.206 38.1902 116.206L43.6764 156.293Z" fill="#FFCDB6"/>
<path d="M50.0726 165.286C50.0726 165.286 45.5119 166.836 42.941 152.93C40.3702 139.023 37.6759 115.695 38.1489 112.668C38.622 109.641 37.897 106.986 41.3008 105.823C44.7046 104.656 50.0726 165.286 50.0726 165.286Z" fill="#45396D"/>
<path d="M226.177 70.3244L237.185 48.5301C237.185 48.5301 239.895 43.2404 235.432 41.639L196.401 107.786L197.625 117.441L201.774 117.379L226.177 70.3244Z" fill="#45396D"/>
<path d="M226.177 70.3243C225.858 70.9649 204.031 136.234 204.031 136.234L199.8 116.258L226.177 70.3243Z" fill="#FFCDB6"/>
<path d="M194.319 156.344C194.319 156.344 203.929 148.477 204.032 134.679C204.134 120.881 199.805 116.258 199.805 116.258L194.319 156.344Z" fill="#FFCDB6"/>
<path d="M187.922 165.333C187.922 165.333 192.483 166.882 195.054 152.976C197.625 139.07 200.319 115.742 199.846 112.714C199.373 109.687 200.098 107.032 196.694 105.87C193.29 104.702 187.922 165.333 187.922 165.333Z" fill="#45396D"/>
<path d="M116.54 235.024C116.54 235.018 116.54 235.018 116.54 235.018C116.54 235.018 116.556 235.024 116.54 235.024Z" fill="#03A678"/>
<path d="M116.55 208.487L116.54 235.018V235.023C116.411 235.023 114.504 234.899 92.1372 232.72C87.3606 232.255 83.5094 230.41 80.4038 227.729C80.4038 227.724 80.4038 227.724 80.4038 227.724C67.0353 216.163 67.5546 188.93 67.5649 188.454C80.8152 200.692 97.8805 208.177 116.55 208.487Z" fill="#FFCDB6"/>
<path d="M137.96 220.859C137.95 221.98 137.261 223.101 135.744 223.101C134.227 223.101 133.523 222.006 133.523 220.864C133.523 219.723 134.253 218.576 135.744 218.576C137.235 218.581 137.976 219.728 137.96 220.859ZM134.33 220.88C134.351 221.593 134.731 222.352 135.749 222.352C136.767 222.352 137.148 221.582 137.163 220.869C137.174 220.136 136.767 219.32 135.749 219.32C134.731 219.325 134.31 220.146 134.33 220.88Z" fill="#FDECE0"/>
<path d="M140.526 220.456L141.673 218.663H142.655V218.7L140.932 221.21V223.003H140.12V221.21L138.459 218.7V218.663H139.426L140.526 220.456Z" fill="#FDECE0"/>
<path d="M146.537 222.186H144.279L143.909 223.003H143.025L144.963 218.663H145.853L147.791 223.003H146.902L146.537 222.186ZM145.411 219.578L144.609 221.422H146.213L145.411 219.578Z" fill="#FDECE0"/>
<path d="M147.481 175.028C159.521 174.478 168.716 161.558 168.02 146.17C167.324 130.783 157 118.754 144.96 119.304C132.921 119.854 123.725 132.773 124.421 148.161C125.117 163.549 135.441 175.577 147.481 175.028Z" fill="white"/>
<path d="M115.942 148.159C116.638 132.771 107.442 119.851 95.4028 119.302C83.3632 118.752 73.0389 130.78 72.3428 146.168C71.6468 161.556 80.8426 174.476 92.8822 175.025C104.922 175.575 115.246 163.546 115.942 148.159Z" fill="white"/>
<path d="M105.994 163.7C107.454 159.004 108.724 147.976 107.948 140.769C107.675 138.233 104.23 137.128 102.873 139.282C96.9187 148.709 91.7718 160.131 91.8078 166.407C91.8438 172.384 101.186 167.91 105.12 166.107C106.014 165.694 105.701 164.64 105.994 163.7Z" fill="#45396D"/>
<path d="M95.8186 154.412C89.4017 159.857 88.6099 179.931 57.4562 219.366C48.1548 231.072 48.417 239.409 58.3406 244.332C61.5593 245.928 68.1098 244.678 69.8169 243.149C75.0872 238.428 103.156 191.864 107.418 158.421C107.948 152.119 102.235 148.967 95.8186 154.412Z" fill="#FDECE0"/>
<path d="M131.245 163.7C129.785 159.004 128.515 147.976 129.291 140.769C129.564 138.233 133.009 137.128 134.366 139.282C140.32 148.709 145.467 160.131 145.431 166.407C145.395 172.384 136.053 167.91 132.119 166.107C131.225 165.694 131.538 164.64 131.245 163.7Z" fill="#45396D"/>
<path d="M141.42 154.412C147.837 159.857 148.629 179.931 179.783 219.366C189.084 231.072 188.822 239.409 178.899 244.332C175.68 245.928 169.129 244.678 167.422 243.149C162.152 238.428 134.083 191.864 129.821 158.421C129.291 152.119 135.004 148.967 141.42 154.412Z" fill="#FDECE0"/>
<path d="M132.728 0.48933C132.568 -0.0604201 131.876 -0.165789 131.491 0.26943C125.18 7.3612 116.039 8.73099 113.501 17.4491C111.862 23.0749 113.575 27.4866 114.669 29.5436C114.706 29.6077 114.743 29.6627 114.784 29.7039C112.833 37.9319 113.24 41.9221 113.717 43.6493C113.895 44.2906 114.605 44.6205 115.219 44.3593C115.741 44.1349 116.007 43.553 115.837 43.0079C115.26 41.1571 113.648 36.8644 115.965 28.8289C117.816 23.3956 119.991 20.5735 121.718 19.1029C123.444 17.7331 124.786 17.5178 124.786 17.5178C120.619 22.3831 119.41 28.128 119.071 31.0646C118.933 32.1916 119.739 33.1994 120.861 33.2956C128.904 33.9737 132.934 27.6057 134.601 19.8176C136.039 13.1015 133.708 3.88861 132.728 0.48933Z" fill="#04D99D"/>
</svg>
