<svg width="328" height="443" viewBox="0 0 328 443" fill="none" xmlns="http://www.w3.org/2000/svg">
    <path d="M29.9848 189.65C25.5398 187.003 13.0202 179.796 4.52838 177.212C1.54392 176.306 -1.02955 179.473 0.412101 182.247C6.4569 193.919 17.7561 206.294 24.8442 209.271C31.5972 212.102 31.8438 197.902 31.711 192.583C31.6794 191.373 31.0281 190.271 29.9848 189.65Z" fill="#45396D"/>
    <path d="M106.215 273.839C106.215 273.839 119.31 278.076 112.861 265.067C106.411 252.058 66.5635 202.963 27.677 189.112C20.8671 188.257 15.0183 192.893 19.8491 202.032C24.6799 211.171 56.2949 246.947 75.1059 258.898C93.9169 270.849 106.215 273.839 106.215 273.839Z" fill="#FDECE0"/>
    <path d="M181.649 415.122C198.414 415.122 212.005 412.164 212.005 408.516C212.005 404.868 198.414 401.91 181.649 401.91C164.883 401.91 151.292 404.868 151.292 408.516C151.292 412.164 164.883 415.122 181.649 415.122Z" stroke="#3EE5B1" stroke-width="2" stroke-miterlimit="10"/>
    <path d="M181.649 411.93C183.425 411.828 185.164 410.929 186.252 409.257L202.255 384.639H161.042L177.046 409.257C178.127 410.929 179.866 411.828 181.649 411.93Z" fill="#FDECE0"/>
    <path d="M181.649 399.953C182.142 399.947 182.648 399.928 183.16 399.903C200.308 399.06 215.464 360.446 214.762 353.169C214.067 345.892 204.911 339.021 204.911 339.021H158.374C158.374 339.021 149.218 345.892 148.522 353.169C147.827 360.446 162.977 399.06 180.125 399.903C180.65 399.928 181.155 399.947 181.649 399.953Z" fill="#FFCDB6"/>
    <path d="M181.649 429.232C195.181 429.232 206.15 427.417 206.15 425.179C206.15 422.94 195.181 421.125 181.649 421.125C168.117 421.125 157.147 422.94 157.147 425.179C157.147 427.417 168.117 429.232 181.649 429.232Z" stroke="#3EE5B1" stroke-width="2" stroke-miterlimit="10"/>
    <path d="M181.649 441.367C188.877 441.367 194.737 439.994 194.737 438.301C194.737 436.608 188.877 435.236 181.649 435.236C174.42 435.236 168.56 436.608 168.56 438.301C168.56 439.994 174.42 441.367 181.649 441.367Z" stroke="#3EE5B1" stroke-width="2" stroke-miterlimit="10"/>
    <path d="M192.354 258.689H172.619V282.712H192.354V258.689Z" fill="#45396D"/>
    <path d="M181.649 354.772C197.856 354.772 210.994 336.741 210.994 314.498C210.994 292.256 197.856 274.225 181.649 274.225C165.442 274.225 152.304 292.256 152.304 314.498C152.304 336.741 165.442 354.772 181.649 354.772Z" fill="#45396D"/>
    <path d="M272.776 360.567C272.194 365.716 270.361 380.06 267.281 388.395C266.2 391.327 262.122 391.46 260.788 388.636C255.154 376.761 252.138 360.263 254.06 352.808C255.887 345.709 267.332 354.094 271.486 357.413C272.428 358.173 272.915 359.363 272.776 360.567Z" fill="#45396D"/>
    <path d="M244.967 282.712C251.505 282.712 256.804 274.341 256.804 264.016C256.804 253.69 251.505 245.32 244.967 245.32C238.43 245.32 233.131 253.69 233.131 264.016C233.131 274.341 238.43 282.712 244.967 282.712Z" fill="#45396D"/>
    <path d="M184.975 265.7L184.987 298.228V298.234C185.145 298.234 187.491 298.082 214.996 295.41C220.87 294.84 225.606 292.579 229.425 289.292C229.425 289.285 229.425 289.285 229.425 289.285C245.865 275.112 245.227 241.723 245.214 241.14C228.92 256.143 207.933 265.32 184.975 265.7Z" fill="#FFCDB6"/>
    <path d="M184.987 298.234C184.987 298.393 185 302.902 186.34 312.351C215.369 320.407 217.329 332.592 218.701 331.997C220.074 331.408 236.159 323.948 232.631 315.303C229.147 306.765 229.419 289.729 229.425 289.292C225.606 292.579 220.87 294.84 214.996 295.41C187.491 298.082 185.145 298.234 184.987 298.234Z" fill="#FDECE0"/>
    <path d="M251.891 248.854C251.891 248.854 256.437 235.845 262.887 248.854C269.336 261.862 284.303 323.333 271.815 362.733C268.381 368.686 261.16 370.548 256.81 361.168C252.46 351.789 243.115 304.935 244.974 282.705C246.833 260.475 251.891 248.854 251.891 248.854Z" fill="#FDECE0"/>
    <path d="M181.649 58.5829C182.148 58.5766 182.654 58.5702 183.16 58.5702C235.868 58.5702 278.599 104.943 278.599 162.145C278.599 193.805 265.511 222.14 244.885 241.133C244.885 241.133 244.885 241.133 244.885 241.14C228.591 256.143 207.605 265.32 184.646 265.7C184.153 265.707 183.653 265.713 183.16 265.713C182.654 265.713 182.154 265.707 181.649 265.7C181.149 265.707 180.643 265.713 180.137 265.713C179.644 265.713 179.145 265.707 178.652 265.7C155.693 265.32 134.707 256.143 118.412 241.14C118.412 241.133 118.412 241.133 118.412 241.133C97.7865 222.14 84.6979 193.805 84.6979 162.145C84.6979 104.943 127.429 58.5702 180.137 58.5702C180.643 58.5702 181.143 58.5766 181.649 58.5829Z" fill="#FDECE0"/>
    <path d="M181.08 154.906C145.766 155.324 121.865 150.979 112.348 151.22C98.8678 151.556 101.561 183.292 119.765 216.035C134.416 242.394 155.617 252.128 181.08 250.874H181.649C207.118 252.128 228.313 242.394 242.963 216.035C261.161 183.292 263.861 151.556 250.38 151.22C240.864 150.979 216.963 155.33 181.649 154.906H181.08Z" fill="#FFCDB6"/>
    <path d="M49.858 96.2533L36.3205 69.5331C36.3205 69.5331 32.9882 63.0479 38.4766 61.0845L86.4746 142.182L84.9697 154.019L79.8671 153.943L49.858 96.2533Z" fill="#45396D"/>
    <path d="M49.858 96.2533C50.2501 97.0386 77.0913 177.06 77.0913 177.06L82.2951 152.569L49.858 96.2533Z" fill="#FFCDB6"/>
    <path d="M89.0291 201.709C89.0291 201.709 77.2114 192.063 77.085 175.147C76.9585 158.231 82.2825 152.563 82.2825 152.563L89.0291 201.709Z" fill="#FFCDB6"/>
    <path d="M96.9013 212.735C96.9013 212.735 91.2928 214.635 88.1313 197.586C84.9698 180.537 81.6565 151.936 82.2382 148.224C82.8199 144.513 81.9284 141.258 86.1142 139.833C90.2937 138.401 96.9013 212.735 96.9013 212.735Z" fill="#45396D"/>
    <path d="M313.458 96.3103L326.996 69.5901C326.996 69.5901 330.328 63.1049 324.84 61.1415L276.842 142.239L278.347 154.076L283.449 154L313.458 96.3103Z" fill="#45396D"/>
    <path d="M313.458 96.3103C313.066 97.0956 286.225 177.117 286.225 177.117L281.021 152.626L313.458 96.3103Z" fill="#FFCDB6"/>
    <path d="M274.287 201.772C274.287 201.772 286.105 192.127 286.231 175.21C286.358 158.294 281.034 152.626 281.034 152.626L274.287 201.772Z" fill="#FFCDB6"/>
    <path d="M266.415 212.792C266.415 212.792 272.024 214.692 275.185 197.643C278.347 180.594 281.66 151.993 281.078 148.281C280.496 144.57 281.388 141.315 277.202 139.89C273.023 138.458 266.415 212.792 266.415 212.792Z" fill="#45396D"/>
    <path d="M178.639 298.235C178.639 298.228 178.639 298.228 178.639 298.228C178.639 298.228 178.659 298.235 178.639 298.235Z" fill="#03A678"/>
    <path d="M118.659 282.712C125.196 282.712 130.495 274.341 130.495 264.016C130.495 253.69 125.196 245.32 118.659 245.32C112.122 245.32 106.822 253.69 106.822 264.016C106.822 274.341 112.122 282.712 118.659 282.712Z" fill="#45396D"/>
    <path d="M178.652 265.7L178.639 298.228V298.234C178.481 298.234 176.135 298.082 148.63 295.41C142.756 294.84 138.02 292.579 134.201 289.292C134.201 289.285 134.201 289.285 134.201 289.285C117.761 275.112 118.4 241.723 118.412 241.14C134.707 256.143 155.693 265.32 178.652 265.7Z" fill="#FFCDB6"/>
    <path d="M178.639 298.234C178.639 298.393 178.626 302.902 177.286 312.351C148.257 320.407 146.297 332.592 144.925 331.997C143.552 331.408 127.467 323.948 130.995 315.303C134.479 306.765 134.207 289.729 134.201 289.292C138.02 292.579 142.756 294.84 148.63 295.41C176.135 298.082 178.481 298.234 178.639 298.234Z" fill="#FDECE0"/>
    <path d="M204.981 280.869C204.968 282.243 204.121 283.617 202.255 283.617C200.39 283.617 199.524 282.275 199.524 280.875C199.524 279.475 200.422 278.069 202.255 278.069C204.083 278.076 204.993 279.482 204.981 280.869ZM200.51 280.894C200.535 281.768 201.003 282.699 202.255 282.699C203.507 282.699 203.975 281.755 203.994 280.881C204.007 279.982 203.507 278.981 202.255 278.981C201.003 278.988 200.491 279.995 200.51 280.894Z" fill="#FDECE0"/>
    <path d="M208.129 280.375L209.539 278.177H210.747V278.221L208.629 281.299V283.497H207.63V281.299L205.588 278.221V278.177H206.776L208.129 280.375Z" fill="#FDECE0"/>
    <path d="M215.527 282.496H212.752L212.296 283.497H211.209L213.593 278.177H214.686L217.07 283.497H215.976L215.527 282.496ZM214.143 279.298L213.156 281.559H215.129L214.143 279.298Z" fill="#FDECE0"/>
    <path d="M216.658 229.124C231.464 228.45 242.773 212.61 241.917 193.744C241.061 174.879 228.364 160.131 213.559 160.805C198.753 161.479 187.445 177.319 188.3 196.185C189.156 215.051 201.853 229.798 216.658 229.124Z" fill="white"/>
    <path d="M151.083 191.74C131.469 191.74 125.083 202.374 125.083 202.374C125.083 202.374 129.724 178.675 151.083 178.675C172.442 178.675 177.083 202.374 177.083 202.374C177.083 202.374 170.697 191.74 151.083 191.74Z" fill="white"/>
    <path d="M200.17 11.5954C199.976 10.9275 199.136 10.7994 198.669 11.3282C191.005 19.9442 179.905 21.6084 176.824 32.2002C174.833 39.0351 176.913 44.395 178.242 46.8941C178.287 46.972 178.331 47.0388 178.381 47.0889C176.012 57.0852 176.507 61.933 177.086 64.0314C177.302 64.8106 178.164 65.2113 178.91 64.8941C179.544 64.6213 179.866 63.9145 179.66 63.2521C178.96 61.0035 177.002 55.7883 179.816 46.0258C182.063 39.4247 184.705 35.9961 186.801 34.2095C188.898 32.5453 190.527 32.2837 190.527 32.2837C185.466 38.1946 183.998 45.1742 183.587 48.7419C183.42 50.1111 184.399 51.3356 185.761 51.4525C195.527 52.2763 200.421 44.5397 202.445 35.0777C204.191 26.9182 201.361 15.7252 200.17 11.5954Z" fill="#04D99D"/>
</svg>
