<svg width="291" height="441" viewBox="0 0 291 441" fill="none" xmlns="http://www.w3.org/2000/svg">
<path d="M145.484 413.243C162.154 413.243 175.667 410.299 175.667 406.667C175.667 403.036 162.154 400.092 145.484 400.092C128.815 400.092 115.302 403.036 115.302 406.667C115.302 410.299 128.815 413.243 145.484 413.243Z" stroke="#3EE5B1" stroke-width="2" stroke-miterlimit="10"/>
<path d="M145.484 410.066C147.251 409.965 148.979 409.069 150.061 407.405L165.972 382.899H124.996L140.907 407.405C141.989 409.069 143.717 409.965 145.484 410.066Z" fill="#FDECE0"/>
<path d="M145.484 398.144C145.975 398.137 146.478 398.118 146.987 398.093C164.036 397.255 179.106 358.815 178.408 351.571C177.716 344.327 168.613 337.487 168.613 337.487H122.343C122.343 337.487 113.24 344.327 112.548 351.571C111.857 358.815 126.92 397.255 143.969 398.093C144.497 398.118 144.994 398.137 145.484 398.144Z" fill="#FFCDB6"/>
<path d="M145.484 427.29C158.938 427.29 169.845 425.483 169.845 423.255C169.845 421.026 158.938 419.22 145.484 419.22C132.03 419.22 121.123 421.026 121.123 423.255C121.123 425.483 132.03 427.29 145.484 427.29Z" stroke="#3EE5B1" stroke-width="2" stroke-miterlimit="10"/>
<path d="M145.484 439.369C152.671 439.369 158.498 438.003 158.498 436.318C158.498 434.633 152.671 433.267 145.484 433.267C138.297 433.267 132.471 434.633 132.471 436.318C132.471 438.003 138.297 439.369 145.484 439.369Z" stroke="#3EE5B1" stroke-width="2" stroke-miterlimit="10"/>
<path d="M156.128 257.519H136.507V281.432H156.128V257.519Z" fill="#45396D"/>
<path d="M145.484 353.166C161.598 353.166 174.661 335.217 174.661 313.075C174.661 290.933 161.598 272.984 145.484 272.984C129.37 272.984 116.307 290.933 116.307 313.075C116.307 335.217 129.37 353.166 145.484 353.166Z" fill="#45396D"/>
<path d="M236.095 358.935C235.516 364.061 233.693 378.341 230.632 386.638C229.557 389.557 225.502 389.689 224.175 386.877C218.574 375.056 215.575 358.632 217.486 351.212C219.303 344.144 230.682 352.492 234.812 355.795C235.749 356.552 236.227 357.737 236.095 358.935Z" fill="#45396D"/>
<path d="M208.446 281.432C214.945 281.432 220.214 273.1 220.214 262.821C220.214 252.542 214.945 244.21 208.446 244.21C201.946 244.21 196.677 252.542 196.677 262.821C196.677 273.1 201.946 281.432 208.446 281.432Z" fill="#45396D"/>
<path d="M148.791 264.498L148.804 296.879V296.885C148.961 296.885 151.293 296.734 178.64 294.073C184.481 293.506 189.19 291.255 192.987 287.983C192.987 287.976 192.987 287.976 192.987 287.976C209.332 273.867 208.697 240.629 208.685 240.049C192.484 254.984 171.618 264.12 148.791 264.498Z" fill="#FFCDB6"/>
<path d="M148.804 296.885C148.804 297.043 148.816 301.531 150.149 310.938C179.011 318.957 180.96 331.088 182.325 330.495C183.689 329.909 199.682 322.482 196.174 313.876C192.71 305.377 192.981 288.418 192.987 287.983C189.19 291.255 184.481 293.506 178.641 294.073C151.293 296.734 148.961 296.885 148.804 296.885Z" fill="#FDECE0"/>
<path d="M215.323 247.728C215.323 247.728 219.844 234.778 226.256 247.728C232.668 260.677 247.549 321.87 235.133 361.091C231.719 367.018 224.54 368.871 220.214 359.534C215.889 350.197 206.597 303.555 208.446 281.426C210.294 259.297 215.323 247.728 215.323 247.728Z" fill="#FDECE0"/>
<path d="M145.484 58.3178C145.981 58.3115 146.484 58.3052 146.987 58.3052C199.393 58.3052 241.879 104.468 241.879 161.411C241.879 192.928 228.865 221.135 208.358 240.042C208.358 240.042 208.358 240.042 208.358 240.049C192.157 254.984 171.291 264.12 148.464 264.498C147.974 264.504 147.477 264.511 146.987 264.511C146.484 264.511 145.987 264.504 145.484 264.498C144.988 264.504 144.485 264.511 143.982 264.511C143.491 264.511 142.995 264.504 142.504 264.498C119.677 264.12 98.8116 254.984 82.6107 240.049C82.6107 240.042 82.6107 240.042 82.6107 240.042C62.1034 221.135 49.0898 192.928 49.0898 161.411C49.0898 104.468 91.5755 58.3052 143.982 58.3052C144.485 58.3052 144.988 58.3115 145.484 58.3178Z" fill="#FDECE0"/>
<path d="M144.918 154.205C109.807 154.621 86.0431 150.296 76.5816 150.536C63.1783 150.87 65.8564 182.462 83.9559 215.057C98.5222 241.297 119.602 250.987 144.918 249.739H145.484C170.807 250.987 191.88 241.297 206.446 215.057C224.54 182.462 227.224 150.87 213.821 150.536C204.359 150.296 180.595 154.627 145.484 154.205H144.918Z" fill="#FFCDB6"/>
<path d="M14.4499 95.8177L0.996345 69.2185C0.996345 69.2185 -2.31676 62.7625 3.14012 60.8081L50.8564 141.539L49.3601 153.322L44.2867 153.247L14.4499 95.8177Z" fill="#45396D"/>
<path d="M14.45 95.8177C14.8397 96.5995 41.5269 176.258 41.5269 176.258L46.7009 151.878L14.45 95.8177Z" fill="#FFCDB6"/>
<path d="M53.4025 200.796C53.4025 200.796 41.6526 191.194 41.5269 174.354C41.4011 157.515 46.6946 151.872 46.6946 151.872L53.4025 200.796Z" fill="#FFCDB6"/>
<path d="M61.2231 211.772C61.2231 211.772 55.6468 213.664 52.5034 196.692C49.3601 179.72 46.0658 151.248 46.6442 147.553C47.2226 143.859 46.3362 140.618 50.498 139.2C54.6598 137.775 61.2231 211.772 61.2231 211.772Z" fill="#45396D"/>
<path d="M276.544 95.8745L290.004 69.2752C290.004 69.2752 293.317 62.8193 287.86 60.8649L240.137 141.596L241.633 153.379L246.707 153.303L276.544 95.8745Z" fill="#45396D"/>
<path d="M276.543 95.8745C276.154 96.6562 249.466 176.315 249.466 176.315L244.292 151.935L276.543 95.8745Z" fill="#FFCDB6"/>
<path d="M237.591 200.859C237.591 200.859 249.341 191.257 249.467 174.417C249.592 157.578 244.299 151.935 244.299 151.935L237.591 200.859Z" fill="#FFCDB6"/>
<path d="M229.77 211.829C229.77 211.829 235.347 213.721 238.49 196.749C241.633 179.776 244.928 151.305 244.349 147.61C243.771 143.916 244.657 140.675 240.495 139.257C236.334 137.832 229.77 211.829 229.77 211.829Z" fill="#45396D"/>
<path d="M142.492 296.886C142.492 296.879 142.492 296.879 142.492 296.879C142.492 296.879 142.512 296.886 142.492 296.886Z" fill="#03A678"/>
<path d="M55.2069 358.935C55.7853 364.061 57.6084 378.341 60.6701 386.638C61.7451 389.557 65.8 389.689 67.1265 386.877C72.728 375.056 75.7268 358.632 73.8156 351.212C71.9987 344.144 60.6198 352.492 56.4894 355.795C55.5527 356.552 55.0686 357.737 55.2069 358.935Z" fill="#45396D"/>
<path d="M82.8559 281.432C89.3556 281.432 94.6247 273.1 94.6247 262.821C94.6247 252.542 89.3556 244.21 82.8559 244.21C76.3562 244.21 71.0872 252.542 71.0872 262.821C71.0872 273.1 76.3562 281.432 82.8559 281.432Z" fill="#45396D"/>
<path d="M142.504 264.498L142.492 296.879V296.885C142.335 296.885 140.002 296.734 112.655 294.073C106.815 293.506 102.106 291.255 98.3086 287.983C98.3086 287.976 98.3086 287.976 98.3086 287.976C81.9632 273.867 82.5981 240.629 82.6107 240.049C98.8116 254.984 119.677 264.12 142.504 264.498Z" fill="#FFCDB6"/>
<path d="M142.492 296.885C142.492 297.043 142.479 301.531 141.146 310.938C112.284 318.957 110.335 331.088 108.971 330.495C107.607 329.909 91.6132 322.482 95.1212 313.876C98.5852 305.377 98.3149 288.418 98.3086 287.983C102.106 291.255 106.815 293.506 112.655 294.073C140.002 296.734 142.335 296.885 142.492 296.885Z" fill="#FDECE0"/>
<path d="M75.9782 247.728C75.9782 247.728 71.4581 234.778 65.0456 247.728C58.6332 260.677 43.7525 321.87 56.1688 361.091C59.5825 367.018 66.7619 368.871 71.0872 359.534C75.4124 350.197 84.7042 303.555 82.8559 281.426C81.0076 259.297 75.9782 247.728 75.9782 247.728Z" fill="#FDECE0"/>
<path d="M168.682 279.598C168.67 280.966 167.827 282.334 165.973 282.334C164.118 282.334 163.257 280.997 163.257 279.604C163.257 278.211 164.15 276.811 165.973 276.811C167.796 276.817 168.701 278.217 168.682 279.598ZM164.244 279.623C164.269 280.493 164.734 281.42 165.979 281.42C167.224 281.42 167.689 280.48 167.708 279.61C167.72 278.715 167.224 277.719 165.979 277.719C164.734 277.725 164.219 278.728 164.244 279.623Z" fill="#FDECE0"/>
<path d="M171.819 279.106L173.221 276.918H174.422V276.962L172.316 280.026V282.214H171.323V280.026L169.292 276.962V276.918H170.474L171.819 279.106Z" fill="#FDECE0"/>
<path d="M179.169 281.218H176.409L175.956 282.214H174.875L177.245 276.918H178.332L180.703 282.214H179.615L179.169 281.218ZM177.792 278.034L176.811 280.285H178.772L177.792 278.034Z" fill="#FDECE0"/>
<path d="M180.292 228.088C195.013 227.417 206.256 211.649 205.405 192.869C204.554 174.088 191.931 159.408 177.21 160.079C162.489 160.75 151.246 176.518 152.097 195.298C152.948 214.078 165.571 228.759 180.292 228.088Z" fill="white"/>
<path d="M114.95 183.496C95.4482 183.496 89.0986 194.082 89.0986 194.082C89.0986 194.082 93.7131 170.49 114.95 170.49C136.186 170.49 140.801 194.082 140.801 194.082C140.801 194.082 134.451 183.496 114.95 183.496Z" fill="white"/>
<path d="M166.163 9.5945C165.968 8.92659 165.128 8.79858 164.661 9.32734C156.998 17.9433 145.897 19.6075 142.816 30.1993C140.825 37.0342 142.905 42.3941 144.235 44.8932C144.279 44.9711 144.323 45.0379 144.374 45.088C142.004 55.0843 142.499 59.9322 143.078 62.0305C143.295 62.8097 144.157 63.2105 144.902 62.8932C145.536 62.6205 145.858 61.9136 145.653 61.2513C144.952 59.0027 142.994 53.7875 145.808 44.0249C148.055 37.4238 150.697 33.9952 152.793 32.2086C154.89 30.5444 156.519 30.2828 156.519 30.2828C151.459 36.1938 149.99 43.1734 149.579 46.7411C149.412 48.1103 150.391 49.3348 151.753 49.4516C161.519 50.2754 166.413 42.5388 168.437 33.0769C170.183 24.9173 167.353 13.7244 166.163 9.5945Z" fill="#04D99D"/>
</svg>
