<svg width="260" height="326" viewBox="0 0 260 326" fill="none" xmlns="http://www.w3.org/2000/svg">
    <path d="M151.867 305.674C164.254 305.674 174.296 303.497 174.296 300.81C174.296 298.124 164.254 295.946 151.867 295.946C139.48 295.946 129.438 298.124 129.438 300.81C129.438 303.497 139.48 305.674 151.867 305.674Z" stroke="#3EE5B1" stroke-width="2" stroke-miterlimit="10"/>
    <path d="M151.867 303.324C153.179 303.249 154.464 302.587 155.268 301.356L167.092 283.229H136.642L148.466 301.356C149.269 302.587 150.554 303.249 151.867 303.324Z" fill="#FDECE0"/>
    <path d="M151.867 294.505C152.231 294.501 152.605 294.487 152.983 294.468C165.653 293.848 176.851 265.414 176.332 260.056C175.818 254.698 169.054 249.638 169.054 249.638H134.67C134.67 249.638 127.905 254.698 127.392 260.056C126.878 265.414 138.071 293.848 150.741 294.468C151.133 294.487 151.502 294.501 151.867 294.505Z" fill="#FFCDB6"/>
    <path d="M151.867 316.065C161.864 316.065 169.969 314.728 169.969 313.08C169.969 311.432 161.864 310.095 151.867 310.095C141.869 310.095 133.764 311.432 133.764 313.08C133.764 314.728 141.869 316.065 151.867 316.065Z" stroke="#3EE5B1" stroke-width="2" stroke-miterlimit="10"/>
    <path d="M151.867 325C157.208 325 161.537 323.989 161.537 322.743C161.537 321.496 157.208 320.486 151.867 320.486C146.526 320.486 142.196 321.496 142.196 322.743C142.196 323.989 146.526 325 151.867 325Z" stroke="#3EE5B1" stroke-width="2" stroke-miterlimit="10"/>
    <path d="M159.776 190.486H145.195V208.174H159.776V190.486Z" fill="#45396D"/>
    <path d="M151.866 261.236C163.841 261.236 173.548 247.959 173.548 231.581C173.548 215.202 163.841 201.925 151.866 201.925C139.892 201.925 130.185 215.202 130.185 231.581C130.185 247.959 139.892 261.236 151.866 261.236Z" fill="#45396D"/>
    <path d="M219.2 265.503C218.77 269.294 217.415 279.857 215.14 285.994C214.341 288.154 211.328 288.252 210.342 286.172C206.18 277.427 203.951 265.279 205.372 259.79C206.722 254.562 215.177 260.737 218.247 263.18C218.943 263.74 219.298 264.617 219.2 265.503Z" fill="#45396D"/>
    <path d="M198.654 208.174C203.484 208.174 207.399 202.011 207.399 194.408C207.399 186.805 203.484 180.641 198.654 180.641C193.824 180.641 189.908 186.805 189.908 194.408C189.908 202.011 193.824 208.174 198.654 208.174Z" fill="#45396D"/>
    <path d="M154.324 195.648L154.333 219.6V219.605C154.45 219.605 156.183 219.493 176.505 217.525C180.845 217.105 184.344 215.44 187.166 213.02C187.166 213.015 187.166 213.015 187.166 213.015C199.312 202.578 198.84 177.992 198.831 177.563C186.792 188.611 171.287 195.368 154.324 195.648Z" fill="#FFCDB6"/>
    <path d="M154.333 219.605C154.333 219.721 154.342 223.042 155.333 230C176.781 235.932 178.229 244.904 179.243 244.466C180.256 244.032 192.141 238.539 189.534 232.173C186.96 225.886 187.161 213.342 187.166 213.02C184.344 215.44 180.845 217.105 176.505 217.525C156.183 219.493 154.45 219.605 154.333 219.605Z" fill="#FDECE0"/>
    <path d="M203.764 183.243C203.764 183.243 207.123 173.664 211.888 183.243C216.654 192.822 227.711 238.086 218.485 267.098C215.948 271.482 210.613 272.853 207.399 265.946C204.185 259.039 197.28 224.539 198.654 208.17C200.027 191.801 203.764 183.243 203.764 183.243Z" fill="#FDECE0"/>
    <path d="M151.866 43.1374C152.236 43.1328 152.609 43.1281 152.983 43.1281C191.926 43.1281 223.498 77.2743 223.498 119.395C223.498 142.708 213.827 163.573 198.588 177.558C198.588 177.558 198.588 177.558 198.588 177.563C186.549 188.611 171.044 195.368 154.081 195.648C153.716 195.653 153.347 195.658 152.983 195.658C152.609 195.658 152.24 195.653 151.866 195.648C151.497 195.653 151.124 195.658 150.75 195.658C150.386 195.658 150.016 195.653 149.652 195.648C132.689 195.368 117.184 188.611 105.145 177.563C105.145 177.558 105.145 177.558 105.145 177.558C89.9058 163.573 80.2354 142.708 80.2354 119.395C80.2354 77.2743 111.807 43.1281 150.75 43.1281C151.124 43.1281 151.497 43.1328 151.866 43.1374Z" fill="#FDECE0"/>
    <path d="M151.446 114.065C125.355 114.373 107.696 111.173 100.665 111.351C90.7047 111.598 92.6949 134.967 106.145 159.077C116.969 178.486 132.633 185.654 151.446 184.731H151.867C170.684 185.654 186.344 178.486 197.168 159.077C210.613 134.967 212.608 111.598 202.648 111.351C195.617 111.173 177.958 114.377 151.867 114.065H151.446Z" fill="#FFCDB6"/>
    <path d="M54.4942 70.876L44.4967 51.2007C44.4967 51.2007 42.0348 46.4252 46.0898 44.9796L81.548 104.696L80.4361 113.412L76.666 113.356L54.4942 70.876Z" fill="#45396D"/>
    <path d="M54.4941 70.876C54.7838 71.4543 74.6151 130.378 74.6151 130.378L78.46 112.344L54.4941 70.876Z" fill="#FFCDB6"/>
    <path d="M83.4402 148.528C83.4402 148.528 74.7088 141.426 74.6154 128.969C74.522 116.513 78.4555 112.339 78.4555 112.339L83.4402 148.528Z" fill="#FFCDB6"/>
    <path d="M89.2518 156.647C89.2518 156.647 85.108 158.046 82.7721 145.492C80.4363 132.938 77.9883 111.878 78.4181 109.145C78.8479 106.412 78.1892 104.015 81.2819 102.966C84.3745 101.912 89.2518 156.647 89.2518 156.647Z" fill="#45396D"/>
    <path d="M249.257 70.918L259.26 51.2427C259.26 51.2427 261.722 46.4672 257.667 45.0215L222.204 104.738L223.315 113.454L227.086 113.398L249.257 70.918Z" fill="#45396D"/>
    <path d="M249.257 70.918C248.968 71.4963 229.136 130.42 229.136 130.42L225.292 112.386L249.257 70.918Z" fill="#FFCDB6"/>
    <path d="M220.312 148.575C220.312 148.575 229.043 141.472 229.136 129.016C229.23 116.56 225.296 112.386 225.296 112.386L220.312 148.575Z" fill="#FFCDB6"/>
    <path d="M214.5 156.689C214.5 156.689 218.644 158.088 220.98 145.534C223.316 132.98 225.763 111.92 225.334 109.187C224.904 106.454 225.563 104.057 222.47 103.008C219.377 101.954 214.5 156.689 214.5 156.689Z" fill="#45396D"/>
    <path d="M149.643 219.605C149.643 219.6 149.643 219.6 149.643 219.6C149.643 219.6 149.657 219.605 149.643 219.605Z" fill="#03A678"/>
    <path d="M25.4187 213.488C21.6552 214.099 11.1788 215.933 5.17593 218.231C3.06389 219.039 3.13624 221.543 5.26988 222.22C14.2408 225.082 26.5036 226.111 31.9072 224.565C37.0538 223.094 30.4075 216.501 27.7928 214.122C27.1944 213.583 26.2982 213.343 25.4187 213.488Z" fill="#45396D"/>
    <path d="M106.552 202.939C106.552 202.939 114.588 196.726 103.979 195.238C93.3704 193.75 46.8691 197.58 22.2314 215.499C18.8705 219.29 19.2577 224.78 26.8367 225.643C34.4157 226.506 69.3768 222.142 84.4916 215.665C99.6064 209.187 106.552 202.939 106.552 202.939Z" fill="#FDECE0"/>
    <path d="M94.2374 209.123C97.9531 212.204 104.909 209.96 109.774 204.111C114.638 198.262 115.57 191.023 111.854 187.942C108.139 184.86 101.183 187.104 96.318 192.953C91.4532 198.802 90.5217 206.042 94.2374 209.123Z" fill="#45396D"/>
    <path d="M149.652 195.648L149.642 219.6V219.605C149.526 219.605 147.792 219.493 127.471 217.525C123.131 217.105 119.631 215.44 116.81 213.02C116.81 213.015 116.81 213.015 116.81 213.015C104.663 202.578 105.135 177.992 105.145 177.563C117.184 188.611 132.689 195.368 149.652 195.648Z" fill="#FFCDB6"/>
    <path d="M149.643 219.605C149.643 219.721 149.634 223.042 148.643 230C127.195 235.932 125.747 244.904 124.733 244.466C123.72 244.032 111.835 238.539 114.442 232.173C117.016 225.886 116.815 213.342 116.81 213.02C119.632 215.44 123.131 217.105 127.471 217.525C147.793 219.493 149.526 219.605 149.643 219.605Z" fill="#FDECE0"/>
    <path d="M169.105 206.817C169.096 207.829 168.47 208.841 167.092 208.841C165.714 208.841 165.074 207.853 165.074 206.822C165.074 205.791 165.737 204.756 167.092 204.756C168.447 204.761 169.119 205.796 169.105 206.817ZM165.807 206.836C165.826 207.48 166.172 208.165 167.097 208.165C168.022 208.165 168.367 207.47 168.381 206.827C168.391 206.164 168.022 205.428 167.097 205.428C166.172 205.432 165.789 206.174 165.807 206.836Z" fill="#FDECE0"/>
    <path d="M171.437 206.454L172.478 204.836H173.371V204.868L171.806 207.135V208.753H171.068V207.135L169.559 204.868V204.836H170.437L171.437 206.454Z" fill="#FDECE0"/>
    <path d="M176.898 208.016H174.847L174.511 208.753H173.707L175.468 204.836H176.276L178.038 208.753H177.229L176.898 208.016ZM175.875 205.661L175.146 207.326H176.603L175.875 205.661Z" fill="#FDECE0"/>
    <path d="M148.99 144.462C149.623 130.57 141.268 118.907 130.328 118.41C119.389 117.914 110.009 128.773 109.377 142.665C108.744 156.557 117.099 168.22 128.038 168.717C138.977 169.213 148.358 158.354 148.99 144.462Z" fill="white"/>
    <path d="M177.732 168.716C188.671 168.22 197.026 156.556 196.394 142.664C195.762 128.773 186.381 117.913 175.442 118.41C164.503 118.906 156.148 130.57 156.78 144.461C157.413 158.353 166.793 169.212 177.732 168.716Z" fill="white"/>
    <path d="M164.084 7.3974C163.942 6.91185 163.331 6.81878 162.991 7.20318C157.411 13.4668 149.328 14.6766 147.085 22.3767C145.635 27.3455 147.149 31.2421 148.117 33.0588C148.15 33.1155 148.182 33.164 148.218 33.2005C146.493 40.4676 146.854 43.9919 147.275 45.5173C147.433 46.0838 148.061 46.3751 148.603 46.1445C149.065 45.9462 149.3 45.4323 149.15 44.9508C148.64 43.3161 147.214 39.5248 149.263 32.4276C150.899 27.6287 152.823 25.1362 154.349 23.8374C155.876 22.6276 157.062 22.4374 157.062 22.4374C153.377 26.7345 152.308 31.8085 152.009 34.4022C151.887 35.3976 152.6 36.2878 153.592 36.3727C160.703 36.9716 164.266 31.3473 165.74 24.4686C167.012 18.5368 164.951 10.3997 164.084 7.3974Z" fill="#04D99D"/>
</svg>
