<svg width="269" height="329" viewBox="0 0 269 329" fill="none" xmlns="http://www.w3.org/2000/svg">
    <path d="M22.3365 140.42C19.0252 138.453 9.69906 133.097 3.37331 131.176C1.1501 130.503 -0.766935 132.857 0.306984 134.918C4.80991 143.592 13.227 152.789 18.5071 155.001C23.5375 157.105 23.7212 146.553 23.6223 142.599C23.5988 141.7 23.1136 140.881 22.3365 140.42Z" fill="#45396D"/>
    <path d="M79.1226 202.984C79.1226 202.984 88.8774 206.133 84.073 196.466C79.2686 186.799 49.5851 150.313 20.6176 140.02C15.5447 139.385 11.1878 142.83 14.7864 149.621C18.385 156.413 41.9358 183 55.9486 191.882C69.9613 200.763 79.1226 202.984 79.1226 202.984Z" fill="#FDECE0"/>
    <path d="M88.3926 209.578C93.2624 209.578 97.2101 203.358 97.2101 195.685C97.2101 188.011 93.2624 181.791 88.3926 181.791C83.5229 181.791 79.5752 188.011 79.5752 195.685C79.5752 203.358 83.5229 209.578 88.3926 209.578Z" fill="#45396D"/>
    <path d="M246.664 140.42C249.975 138.453 259.301 133.097 265.627 131.176C267.85 130.503 269.767 132.857 268.693 134.918C264.19 143.592 255.773 152.789 250.493 155.001C245.463 157.105 245.279 146.553 245.378 142.599C245.402 141.7 245.887 140.881 246.664 140.42Z" fill="#45396D"/>
    <path d="M189.878 202.984C189.878 202.984 180.123 206.133 184.927 196.466C189.732 186.799 219.415 150.313 248.383 140.025C253.456 139.389 257.813 142.835 254.214 149.626C250.615 156.418 227.065 183.005 213.052 191.886C199.039 200.768 189.878 202.984 189.878 202.984Z" fill="#FDECE0"/>
    <path d="M180.608 209.578C185.478 209.578 189.425 203.358 189.425 195.685C189.425 188.011 185.478 181.791 180.608 181.791C175.738 181.791 171.791 188.011 171.791 195.685C171.791 203.358 175.738 209.578 180.608 209.578Z" fill="#45396D"/>
    <path d="M134.698 308.496C147.187 308.496 157.312 306.298 157.312 303.587C157.312 300.876 147.187 298.678 134.698 298.678C122.209 298.678 112.084 300.876 112.084 303.587C112.084 306.298 122.209 308.496 134.698 308.496Z" stroke="#3EE5B1" stroke-width="2" stroke-miterlimit="10"/>
    <path d="M134.698 306.124C136.022 306.049 137.317 305.38 138.127 304.138L150.049 285.843H119.348L131.269 304.138C132.079 305.38 133.375 306.049 134.698 306.124Z" fill="#FDECE0"/>
    <path d="M134.698 297.224C135.066 297.219 135.442 297.205 135.824 297.186C148.598 296.56 159.888 267.864 159.365 262.456C158.847 257.049 152.027 251.942 152.027 251.942H117.36C117.36 251.942 110.54 257.049 110.022 262.456C109.503 267.864 120.789 296.56 133.563 297.186C133.954 297.205 134.331 297.219 134.698 297.224Z" fill="#FFCDB6"/>
    <path d="M134.698 318.982C144.778 318.982 152.95 317.634 152.95 315.97C152.95 314.306 144.778 312.958 134.698 312.958C124.618 312.958 116.446 314.306 116.446 315.97C116.446 317.634 124.618 318.982 134.698 318.982Z" stroke="#3EE5B1" stroke-width="2" stroke-miterlimit="10"/>
    <path d="M134.698 328C140.083 328 144.448 326.98 144.448 325.722C144.448 324.464 140.083 323.444 134.698 323.444C129.313 323.444 124.948 324.464 124.948 325.722C124.948 326.98 129.313 328 134.698 328Z" stroke="#3EE5B1" stroke-width="2" stroke-miterlimit="10"/>
    <path d="M142.673 192.244H127.972V210.096H142.673V192.244Z" fill="#45396D"/>
    <path d="M134.698 263.647C146.771 263.647 156.558 250.248 156.558 233.718C156.558 217.189 146.771 203.789 134.698 203.789C122.625 203.789 112.838 217.189 112.838 233.718C112.838 250.248 122.625 263.647 134.698 263.647Z" fill="#45396D"/>
    <path d="M137.176 197.454L137.185 221.627V221.632C137.303 221.632 139.05 221.519 159.54 219.533C163.915 219.109 167.443 217.429 170.288 214.986C170.288 214.981 170.288 214.981 170.288 214.981C182.535 204.448 182.059 179.635 182.05 179.202C169.911 190.352 154.278 197.172 137.176 197.454Z" fill="#FFCDB6"/>
    <path d="M137.185 221.632C137.185 221.749 137.194 225.101 138.193 232.123C159.817 238.109 161.278 247.165 162.3 246.722C163.322 246.285 175.304 240.74 172.676 234.316C170.081 227.972 170.283 215.311 170.288 214.986C167.443 217.429 163.915 219.109 159.54 219.533C139.05 221.519 137.303 221.632 137.185 221.632Z" fill="#FDECE0"/>
    <path d="M134.698 43.5357C135.07 43.531 135.447 43.5262 135.824 43.5262C175.088 43.5262 206.919 77.9877 206.919 120.497C206.919 144.025 197.169 165.083 181.805 179.197C181.805 179.197 181.805 179.197 181.805 179.202C169.666 190.352 154.033 197.172 136.931 197.454C136.563 197.459 136.191 197.464 135.824 197.464C135.447 197.464 135.075 197.459 134.698 197.454C134.326 197.459 133.949 197.464 133.572 197.464C133.205 197.464 132.833 197.459 132.466 197.454C115.363 197.172 99.7298 190.352 87.5917 179.202C87.5917 179.197 87.5917 179.197 87.5917 179.197C72.2271 165.083 62.4771 144.025 62.4771 120.497C62.4771 77.9877 94.3084 43.5262 133.572 43.5262C133.949 43.5262 134.326 43.531 134.698 43.5357Z" fill="#FDECE0"/>
    <path d="M134.274 115.118C107.968 115.428 90.1636 112.2 83.0748 112.378C73.0327 112.628 75.0392 136.212 88.5998 160.545C99.5133 180.134 115.306 187.368 134.274 186.436H134.698C153.671 187.368 169.459 180.134 180.373 160.545C193.929 136.212 195.94 112.628 185.898 112.378C178.809 112.2 161.005 115.433 134.698 115.118H134.274Z" fill="#FFCDB6"/>
    <path d="M36.5238 71.5303L26.4394 51.6733C26.4394 51.6733 23.9571 46.8538 28.0455 45.3947L63.8004 105.662L62.6794 114.459L58.8783 114.402L36.5238 71.5303Z" fill="#45396D"/>
    <path d="M36.5239 71.5303C36.816 72.1139 56.8106 131.581 56.8106 131.581L60.6871 113.381L36.5239 71.5303Z" fill="#FFCDB6"/>
    <path d="M65.7082 149.899C65.7082 149.899 56.9049 142.731 56.8107 130.16C56.7165 117.589 60.6825 113.376 60.6825 113.376L65.7082 149.899Z" fill="#FFCDB6"/>
    <path d="M71.5675 158.093C71.5675 158.093 67.3896 159.505 65.0345 146.835C62.6794 134.165 60.2113 112.91 60.6446 110.152C61.0779 107.394 60.4138 104.975 63.5319 103.916C66.6501 102.852 71.5675 158.093 71.5675 158.093Z" fill="#45396D"/>
    <path d="M232.891 71.5726L242.975 51.7157C242.975 51.7157 245.458 46.8961 241.369 45.4371L205.614 105.705L206.735 114.501L210.536 114.445L232.891 71.5726Z" fill="#45396D"/>
    <path d="M232.891 71.5726C232.599 72.1562 212.604 131.624 212.604 131.624L208.728 113.423L232.891 71.5726Z" fill="#FFCDB6"/>
    <path d="M203.707 149.946C203.707 149.946 212.51 142.778 212.604 130.207C212.698 117.636 208.732 113.423 208.732 113.423L203.707 149.946Z" fill="#FFCDB6"/>
    <path d="M197.847 158.136C197.847 158.136 202.025 159.548 204.38 146.878C206.735 134.208 209.203 112.953 208.77 110.195C208.337 107.437 209.001 105.017 205.883 103.958C202.765 102.895 197.847 158.136 197.847 158.136Z" fill="#45396D"/>
    <path d="M132.456 221.632C132.456 221.627 132.456 221.627 132.456 221.627C132.456 221.627 132.47 221.632 132.456 221.632Z" fill="#03A678"/>
    <path d="M132.466 197.454L132.456 221.627V221.632C132.339 221.632 130.591 221.519 110.102 219.533C105.726 219.109 102.198 217.429 99.3532 214.986C99.3532 214.981 99.3532 214.981 99.3532 214.981C87.1067 204.448 87.5824 179.635 87.5919 179.202C99.73 190.352 115.363 197.172 132.466 197.454Z" fill="#FFCDB6"/>
    <path d="M132.456 221.632C132.456 221.749 132.447 225.101 131.448 232.123C109.824 238.109 108.364 247.165 107.342 246.722C106.32 246.285 94.3369 240.74 96.9652 234.316C99.5605 227.972 99.3579 215.311 99.3532 214.986C102.198 217.429 105.726 219.109 110.102 219.533C130.591 221.519 132.339 221.632 132.456 221.632Z" fill="#FDECE0"/>
    <path d="M152.079 208.726C152.069 209.748 151.438 210.769 150.048 210.769C148.659 210.769 148.014 209.771 148.014 208.731C148.014 207.691 148.683 206.646 150.048 206.646C151.414 206.651 152.093 207.696 152.079 208.726ZM148.753 208.745C148.772 209.395 149.121 210.087 150.053 210.087C150.986 210.087 151.334 209.385 151.348 208.736C151.358 208.068 150.986 207.324 150.053 207.324C149.121 207.329 148.734 208.077 148.753 208.745Z" fill="#FDECE0"/>
    <path d="M154.424 208.359L155.475 206.726H156.374V206.759L154.796 209.046V210.68H154.052V209.046L152.531 206.759V206.726H153.416L154.424 208.359Z" fill="#FDECE0"/>
    <path d="M159.935 209.936H157.868L157.528 210.68H156.718L158.494 206.726H159.309L161.085 210.68H160.27L159.935 209.936ZM158.904 207.559L158.169 209.239H159.639L158.904 207.559Z" fill="#FDECE0"/>
    <path d="M112.085 143.785C104.836 143.785 100.012 144.802 96.9931 145.828C95.2504 146.421 93.6301 144.651 94.3696 142.966C96.6587 137.756 101.736 130.306 112.085 130.306C122.433 130.306 127.515 137.756 129.799 142.966C130.539 144.647 128.919 146.416 127.176 145.828C124.157 144.807 119.333 143.785 112.085 143.785Z" fill="white"/>
    <path d="M158.903 143.785C151.654 143.785 146.831 144.802 143.812 145.828C142.069 146.421 140.449 144.651 141.188 142.966C143.478 137.756 148.555 130.306 158.903 130.306C169.252 130.306 174.334 137.756 176.618 142.966C177.358 144.647 175.738 146.416 173.995 145.828C170.976 144.807 166.152 143.785 158.903 143.785Z" fill="white"/>
    <path d="M152.557 7.24551C152.41 6.74117 151.777 6.64451 151.424 7.04377C145.641 13.5497 137.265 14.8064 134.94 22.8043C133.438 27.9654 135.008 32.0127 136.01 33.8997C136.044 33.9586 136.078 34.009 136.115 34.0468C134.328 41.5951 134.701 45.2557 135.138 46.8402C135.301 47.4286 135.952 47.7312 136.514 47.4916C136.992 47.2857 137.236 46.7519 137.081 46.2518C136.552 44.5539 135.075 40.6158 137.198 33.2441C138.893 28.2596 140.887 25.6706 142.469 24.3215C144.051 23.0649 145.281 22.8674 145.281 22.8674C141.462 27.3307 140.354 32.6011 140.043 35.2951C139.917 36.329 140.656 37.2536 141.684 37.3418C149.053 37.9639 152.746 32.1219 154.274 24.9772C155.591 18.8158 153.455 10.364 152.557 7.24551Z" fill="#04D99D"/>
</svg>
