<svg width="38" height="37" viewBox="0 0 38 37" fill="none" xmlns="http://www.w3.org/2000/svg">
    <path d="M37.4973 21.2015C37.0035 22.2466 36.1553 22.5236 35.1995 22.6432C33.712 22.8321 32.6042 24.0093 32.5409 25.4322C32.5156 26.0113 32.9524 26.3639 33.2562 26.7731C34.6235 28.6114 34.5095 29.5243 32.7182 30.8904C30.9331 32.2503 29.1481 33.6038 27.3567 34.9511C25.9831 35.9836 24.9134 35.8388 23.8373 34.4978C22.6093 32.968 22.0585 32.8106 20.1722 33.352C19.6025 33.5157 19.4759 33.969 19.286 34.3971C18.1593 36.909 17.3681 37.2238 14.7981 36.1599C12.9814 35.4107 11.1647 34.6678 9.35437 33.8997C7.41741 33.075 7.04394 32.1559 7.82885 30.2294C8.32892 29.0081 7.67694 27.0438 6.55654 26.4646C6.05647 26.2128 5.53109 26.4458 5.0247 26.5087C2.89151 26.7668 2.13824 26.2254 1.84707 24.1227C1.5369 21.9129 1.24572 19.6969 0.99252 17.4745C0.777302 15.567 1.37232 14.8241 3.24599 14.5093C4.85379 14.2449 5.70833 13.3509 5.9552 11.7455C6.04382 11.1852 5.67035 10.8578 5.39183 10.4801C3.87265 8.39626 3.99292 7.60932 6.07547 6.04171C7.73391 4.78889 9.39235 3.52347 11.0445 2.26435C12.57 1.10596 13.5638 1.21928 14.7411 2.67986C15.8552 4.0586 16.849 4.31672 18.5454 3.72494C19.1405 3.51718 19.2291 2.97575 19.4253 2.51617C20.4318 0.205686 21.0584 -0.0587215 23.3942 0.910801C25.3944 1.73552 27.3947 2.56024 29.3949 3.40385C31.0471 4.10267 31.6421 5.14145 30.8002 6.71535C29.914 8.37109 30.8192 9.30913 31.6927 10.392C32.1042 10.9082 32.6422 10.713 33.1423 10.6564C35.8451 10.3416 36.3895 10.7571 36.7503 13.4642C37.0225 15.5229 37.2884 17.5815 37.5669 19.6339C37.6555 20.2131 37.6682 20.7608 37.4973 21.2015ZM19.3557 10.4171C14.7411 10.3857 11.0065 14.0182 10.9938 18.5385C10.9812 22.9769 14.6715 26.7102 19.1658 26.8109C23.6094 26.9053 27.4327 23.1846 27.477 18.7273C27.515 14.0749 23.9702 10.4423 19.3557 10.4171Z" fill="white"/>
</svg>
