<svg width="48" height="47" viewBox="0 0 48 47" fill="none" xmlns="http://www.w3.org/2000/svg">
    <path d="M29.2347 45.8321C28.5194 45.5236 28.0763 44.8626 27.7662 44.1889C27.1205 42.7913 26.2217 42.0484 24.6202 42.5773C24.5759 42.5898 24.5252 42.5899 24.4809 42.5836C22.8605 42.2058 22.0249 43.0368 21.5438 44.4471C21.4299 44.7807 21.2337 45.0892 21.0501 45.3914C20.3348 46.6064 18.9106 47.0597 17.6509 46.4176C14.505 44.8248 11.3716 43.2131 8.24465 41.5888C6.99132 40.9341 6.52923 39.5113 7.13691 38.2396C7.50404 37.4715 7.90283 36.7098 8.31428 35.9669C8.52949 35.5828 8.52316 35.2807 8.24465 34.9344C7.64963 34.1915 7.12425 33.3983 6.69381 32.5484C6.4786 32.1203 6.15576 32.0007 5.70634 32.0321C4.92143 32.0825 4.13651 32.1266 3.3516 32.1329C1.75013 32.1392 0.661382 31.1822 0.566433 29.5894C0.370205 26.1583 0.211961 22.7209 0.0853618 19.2898C0.0283924 17.7348 1.00953 16.696 2.58568 16.5575C3.38959 16.4883 4.20614 16.4631 5.01638 16.4442C5.45314 16.4316 5.70634 16.2554 5.89624 15.865C6.32034 14.9899 6.76976 14.1274 7.23818 13.2775C7.43441 12.9187 7.42176 12.6354 7.18755 12.2954C6.73179 11.6281 6.28869 10.9545 5.87725 10.2557C5.06702 8.89581 5.32022 7.51077 6.64317 6.64827C9.54861 4.747 12.4794 2.8772 15.4291 1.03889C16.7711 0.207869 18.1447 0.535253 19.0625 1.81956C19.5626 2.51207 20.012 3.24234 20.4614 3.96634C20.6513 4.26853 20.8665 4.38186 21.221 4.33149C22.2401 4.18669 23.2592 4.13004 24.2847 4.1804C24.6708 4.19929 24.8987 4.0419 25.0696 3.70193C25.4367 2.95905 25.8229 2.22246 26.2153 1.49217C26.9243 0.182687 28.3675 -0.333556 29.6841 0.327482C32.8111 1.90138 35.9254 3.50048 39.0271 5.12474C40.3754 5.82985 40.7995 7.30302 40.1285 8.66287C39.7741 9.38686 39.4006 10.1046 39.0145 10.8097C38.8182 11.1622 38.7992 11.4581 39.0588 11.7855C39.6791 12.5724 40.1982 13.4223 40.6602 14.3037C40.8375 14.6437 41.0717 14.7696 41.4578 14.7381C42.1921 14.6752 42.9327 14.6563 43.6733 14.6248C45.5279 14.543 46.6484 15.4747 46.7496 17.3004C46.9395 20.6623 47.1041 24.0241 47.237 27.386C47.3003 29.0291 46.2622 30.1057 44.5975 30.219C43.8379 30.2694 43.0719 30.3071 42.3123 30.3197C41.9136 30.326 41.654 30.4645 41.4705 30.8423C41.0337 31.7362 40.5716 32.6239 40.0905 33.499C39.888 33.8641 39.926 34.16 40.1475 34.4874C40.5843 35.1422 41.0084 35.7969 41.4198 36.4642C42.2427 37.8178 41.9769 39.2721 40.6413 40.1409C37.7548 42.0295 34.8367 43.8679 31.9186 45.7125C31.0767 46.2476 30.1779 46.3483 29.2347 45.8321ZM18.708 32.9702C23.5251 35.5577 30.3361 34.1223 33.3175 28.3114C36.3685 22.3558 33.3935 16.1798 28.6144 13.7686C23.2782 11.0741 16.6888 13.1579 13.9732 18.4399C11.2387 23.7597 13.3466 30.2316 18.708 32.9702Z" fill="white"/>
</svg>
