<svg width="581" height="55" viewBox="0 0 581 55" fill="none" xmlns="http://www.w3.org/2000/svg">
<g filter="url(#filter0_d)">
<path d="M16.7923 8.28C16.3123 8.08 15.8323 8.04 15.3523 8.04C14.4323 8.04 13.5123 8.2 12.5523 8.2C11.3923 8.2 10.1923 8.24 9.07234 7.96C8.67234 7.88 8.31234 7.68 7.91234 7.68C7.27234 7.68 7.15234 9.28 7.15234 9.76C7.15234 10.48 7.27234 11.32 8.23234 11.32C8.95234 11.32 9.59234 10.88 10.3123 10.88C11.5923 10.88 11.5123 11.88 11.5123 12.84C11.7123 20.76 12.2723 28.64 12.5123 36.56V36.68C12.5123 37.72 12.3923 38.76 12.3923 39.8C12.3923 40.96 12.5523 41.44 13.8323 41.44C14.6323 41.44 15.7923 41.32 15.7923 40.24C15.7923 39.6 15.5923 39 15.5123 38.4C15.4323 37.68 15.4723 37 15.4723 36.28C15.4723 35.64 15.4323 34.96 15.3923 34.28C15.0723 30.6 14.8723 26.92 14.7123 23.24C14.5523 19.68 14.5923 16.16 14.2323 12.64C14.1923 12.36 14.1523 12.08 14.1523 11.76C14.1523 11.48 14.1523 10.96 14.5523 10.96C15.1123 10.96 15.6323 11.44 16.2323 11.44C17.0323 11.44 17.5923 10.68 17.5923 9.92C17.5923 9.32 17.3523 8.6 16.7923 8.28ZM36.1814 12H35.7814C34.7814 12 33.5814 12.04 33.5814 13.36C33.5814 14.12 33.6614 14.84 33.6614 15.56C33.6614 17.56 33.6214 19.56 33.6214 21.56C33.6214 24.76 34.4614 33.08 29.5014 33.08C24.9014 33.08 24.7014 27.28 24.7014 23.92C24.7014 20.4 24.8214 16.92 24.8214 13.4C24.8214 12.84 24.1414 12.84 23.7814 12.84C23.0214 12.84 22.5414 12.88 21.9414 13.4C21.7814 13.56 21.6214 21.08 21.6214 22C21.6214 26.68 22.0614 35.96 28.5814 35.96C35.9014 35.96 37.1014 28.04 37.1014 22.32C37.1014 19.28 36.7414 16.28 36.7414 13.24C36.7414 12.72 36.7414 12.24 36.1814 12ZM64.0502 11.88C63.7702 11.68 62.9702 11.68 62.6102 11.68C62.3702 11.68 62.1702 11.68 61.9302 11.72C60.7702 12.04 61.0102 12.04 60.9302 13.2C60.8102 15.32 60.2502 17.4 60.0502 19.52C59.6902 23.4 59.0902 27.24 58.4902 31.08C58.0502 30.8 57.5702 26.84 57.3702 26.08C56.8502 24.12 56.4902 22.12 55.9702 20.12C55.5302 18.24 54.8902 16.36 54.4502 14.48C54.0502 12.8 54.3702 11.92 52.2902 11.76L51.7302 11.72C51.4102 11.72 50.9302 11.72 50.9302 12.2C50.9302 12.68 52.2902 17.32 52.5702 18.32C53.8502 23.64 55.2902 28.96 56.4502 34.32C56.6102 35.08 56.7702 36.96 57.5302 37.32C57.8502 37.44 58.2902 37.44 58.6102 37.44C59.0502 37.44 60.0102 37.44 60.3302 37.16C60.9702 36.64 60.9302 33.56 61.0502 32.68C61.6102 28.88 62.2902 25.08 62.7702 21.28C63.1702 18.44 63.1302 14.68 64.3702 12.12H64.2102C64.1302 12.12 64.0502 11.96 64.0502 11.88ZM80.3067 29.16H80.1467C79.4267 29.16 78.7467 29.04 78.0267 29.04C77.7067 29.04 77.3067 29.04 77.0267 29.24C76.2267 29.72 77.1867 34.68 74.5467 34.68C71.8667 34.68 71.9067 28.88 71.7067 27.04C71.6267 26.32 71.5067 25.6 71.5067 24.88C71.5067 23.48 72.7867 23.2 73.9067 23.2C75.2667 23.2 76.6267 23.32 77.9867 23.32C79.4667 23.32 80.4667 23.04 80.4667 21.32C80.4667 17.68 78.5467 11.2 74.0667 11.2C68.3067 11.2 67.9467 20.68 67.9467 24.76C67.9467 28.68 69.2267 37.92 74.5067 37.92C78.5467 37.92 80.7067 33.44 80.7067 29.92C80.7067 29.6 80.6667 29.24 80.3067 29.16ZM71.9467 19.24V18.36C71.9467 17.08 71.9467 14.32 73.7867 14.32C75.6667 14.32 77.0267 17.64 77.0267 19.16C77.0267 20.04 76.4667 20.04 75.7867 20.12C74.8267 20.24 73.9067 20.56 72.9467 20.56C72.6667 20.56 71.8667 20.52 71.8667 20.12C71.8667 19.8 71.9067 19.52 71.9467 19.24ZM98.2908 12H97.8908C96.8908 12 95.6908 12.04 95.6908 13.36C95.6908 14.12 95.7708 14.84 95.7708 15.56C95.7708 17.56 95.7308 19.56 95.7308 21.56C95.7308 24.76 96.5708 33.08 91.6108 33.08C87.0108 33.08 86.8108 27.28 86.8108 23.92C86.8108 20.4 86.9308 16.92 86.9308 13.4C86.9308 12.84 86.2508 12.84 85.8908 12.84C85.1308 12.84 84.6508 12.88 84.0508 13.4C83.8908 13.56 83.7308 21.08 83.7308 22C83.7308 26.68 84.1708 35.96 90.6908 35.96C98.0108 35.96 99.2108 28.04 99.2108 22.32C99.2108 19.28 98.8508 16.28 98.8508 13.24C98.8508 12.72 98.8508 12.24 98.2908 12ZM113.361 12.04C113.281 12 113.201 11.92 113.201 11.84C113.201 11.64 113.401 11.44 113.401 11.24C113.401 10.76 111.481 10.8 111.081 10.8C109.521 10.8 110.041 12.56 110.041 13.56C110.041 15 109.881 23.6 107.921 23.6C105.921 23.6 105.841 13.28 105.841 11.64C105.841 10.76 105.121 10.76 104.441 10.76C104.081 10.76 103.641 10.76 103.281 10.84C103.121 10.8 102.961 10.76 102.801 10.76C102.481 10.76 102.361 10.92 102.361 11.2C102.361 11.8 102.401 12.44 102.401 13.04C102.401 16 102.681 19.88 103.641 22.68C103.881 23.4 105.121 24.88 105.121 25.44C105.121 25.72 104.281 27 104.161 27.4C103.921 27.96 103.761 28.56 103.641 29.16C102.921 32.12 102.721 35.16 102.641 38.2C103.321 38.16 104.001 38.16 104.681 38.16C105.761 38.16 105.681 38.4 105.921 37.36C106.201 36.24 106.041 35.08 106.041 33.92C106.041 32.64 106.241 26.6 108.081 26.6C109.561 26.6 110.081 33.08 110.081 34.24C110.081 35.16 109.961 36.08 109.961 37.04C109.961 38.88 110.281 38.32 111.841 38.32C112.201 38.32 112.561 38.4 112.921 38.4C113.681 38.4 113.681 36.72 113.681 36.16C113.681 33.88 112.921 28.68 112.001 26.68C111.721 26.04 111.081 25.4 111.081 24.68C111.081 24.6 111.361 24 111.401 23.88C111.761 22.72 112.281 21.6 112.521 20.4C113.081 17.64 113.281 14.84 113.361 12.04ZM138.424 25.68C137.024 23.12 132.944 19.96 132.944 16.96C132.944 16.44 133.024 15.24 133.784 15.24C135.464 15.24 134.064 17.4 136.024 17.4C136.664 17.4 137.304 17.32 137.944 17.24C137.864 15.04 136.264 12.44 133.864 12.44C131.584 12.44 130.064 14.6 130.064 16.72C130.064 22.24 136.944 25 136.944 31C136.944 32.04 136.464 33.8 135.144 33.8C133.544 33.8 133.664 31.8 133.664 30.68C133.664 29.8 132.824 29.24 131.984 29.24C130.904 29.24 130.504 30.12 130.504 31.08C130.504 33.6 132.304 36.68 135.104 36.68C138.184 36.68 139.784 33.56 139.784 30.84C139.784 29.04 139.264 27.24 138.424 25.68ZM154.877 29.16H154.717C153.997 29.16 153.317 29.04 152.597 29.04C152.277 29.04 151.877 29.04 151.597 29.24C150.797 29.72 151.757 34.68 149.117 34.68C146.437 34.68 146.477 28.88 146.277 27.04C146.197 26.32 146.077 25.6 146.077 24.88C146.077 23.48 147.357 23.2 148.477 23.2C149.837 23.2 151.197 23.32 152.557 23.32C154.037 23.32 155.037 23.04 155.037 21.32C155.037 17.68 153.117 11.2 148.637 11.2C142.877 11.2 142.517 20.68 142.517 24.76C142.517 28.68 143.797 37.92 149.077 37.92C153.117 37.92 155.277 33.44 155.277 29.92C155.277 29.6 155.237 29.24 154.877 29.16ZM146.517 19.24V18.36C146.517 17.08 146.517 14.32 148.357 14.32C150.237 14.32 151.597 17.64 151.597 19.16C151.597 20.04 151.037 20.04 150.357 20.12C149.397 20.24 148.477 20.56 147.517 20.56C147.237 20.56 146.437 20.52 146.437 20.12C146.437 19.8 146.477 19.52 146.517 19.24ZM171.821 29.4C171.461 26.36 171.661 23.32 171.661 20.28C171.661 18.48 171.461 16.72 171.461 14.96C171.461 14.24 171.581 13.56 171.581 12.84C171.581 11.92 169.461 11.52 168.781 11.52C168.221 11.52 168.221 12.12 168.221 12.52C168.221 17.52 168.821 22.48 168.821 27.48C168.821 27.96 168.821 28.4 168.701 28.88C166.821 26.2 162.461 13.12 161.541 12.4C161.021 12.04 160.381 11.88 159.741 11.88C158.941 11.88 158.501 12.32 158.501 13.12C158.501 13.96 158.781 14.76 158.901 15.56C159.141 17.36 159.181 19.24 159.181 21.04C159.181 23.36 159.061 25.68 159.061 27.96C159.061 30.84 159.221 33.64 159.541 36.48C159.621 37.04 159.621 37.56 160.341 37.56C160.901 37.56 161.461 37.64 162.021 37.64C162.821 37.64 162.821 36.44 162.821 35.88C162.821 31.76 162.181 27.68 161.781 23.6C161.621 22.08 161.421 20.6 161.421 19.12C161.421 18.96 161.461 18.76 161.501 18.6C162.181 19.08 163.861 24.24 164.301 25.36C165.301 28 166.701 30.48 167.661 33.12C167.901 33.72 168.261 35.28 168.781 35.6C169.141 35.8 170.541 35.8 170.981 35.8C172.101 35.8 172.101 33.88 172.101 33.12C172.101 31.88 171.941 30.64 171.821 29.4ZM187.507 39.36C187.107 39 185.787 37.8 185.347 37.8C184.907 37.8 184.467 38.88 183.507 38.88C180.827 38.88 180.827 33.56 180.827 31.72C180.827 26.72 181.107 21.68 181.427 16.68C182.027 16.68 185.507 16.68 185.507 15.96C185.507 15.56 185.387 15.2 185.387 14.8C185.387 14.56 185.427 14.36 185.427 14.12C185.427 13.52 184.747 13.44 184.307 13.44C183.507 13.44 182.747 13.64 181.947 13.64H181.627C181.747 11.88 181.987 10.12 181.987 8.36C181.987 7.12 181.187 6.48 179.947 6.48C178.067 6.48 178.547 9.28 178.547 10.44C178.547 11.44 178.467 12.44 178.467 13.48H178.187C176.067 13.48 175.787 13.52 175.787 15.72C175.787 15.88 175.787 16.04 175.827 16.16C176.387 16.56 177.707 16.6 178.427 16.64C178.387 21.28 177.867 25.88 177.867 30.52C177.867 34.24 177.867 42.64 183.187 42.64C184.507 42.64 187.667 41.24 187.667 39.68C187.667 39.56 187.587 39.44 187.507 39.36ZM195.204 37.8C195.244 37.56 195.284 37.32 195.284 37.04C195.284 35.84 194.964 34.68 194.844 33.48C194.484 29.96 194.564 26.44 194.564 22.92C194.564 22 194.444 21.12 193.324 21.12C191.484 21.12 191.124 21.68 191.124 23.44C191.124 24.92 191.444 26.4 191.604 27.92C191.884 30.48 191.804 33.12 191.804 35.68C191.804 38 192.044 38.08 194.284 38.08C194.604 38.08 194.964 38.08 195.204 37.8ZM191.604 17.72C192.084 17.72 192.564 17.84 193.044 17.84C193.884 17.84 194.164 17.24 194.164 16.48C194.164 15.76 194.004 15.08 193.964 14.36C193.964 13.76 194.044 13.2 194.044 12.6C194.044 11.24 193.044 11.04 191.884 11.04C191.524 11.04 191.164 11.04 190.844 11.12C190.684 11.2 190.644 11.4 190.644 11.56C190.644 12.12 190.884 12.6 190.964 13.12C191.124 14.28 191.044 15.44 191.044 16.6C191.044 16.96 191.044 17.4 191.164 17.76C191.324 17.72 191.444 17.72 191.604 17.72ZM206.48 24.92C206.2 23.76 205.56 22.68 205.56 21.48C205.56 21.12 205.68 20.76 205.92 20.48C206.24 20.2 207.04 20.04 207.48 19.84C208.88 19.04 209.88 16.2 209.88 14.64C209.88 10.76 205.6 8.88 202.24 8.88C201.36 8.88 200.52 9.04 200.52 10.08C200.52 10.88 200.72 11.64 200.72 12.44C200.72 15.56 200.6 18.72 200.6 21.84C200.6 27.36 200.68 32.92 200.68 38.44C200.68 40.16 200.68 40.28 202.44 40.28C203.2 40.28 203.6 40.12 203.6 39.28V32.48C203.6 29.16 203.28 25.84 203.28 22.52C203.28 22.2 203.28 21.84 203.36 21.52C204.04 22.92 206.6 33.6 206.92 35.64C207.04 36.16 207.16 38.56 207.88 38.56C208.48 38.56 209.96 38.12 209.96 37.36C209.96 36.64 209.52 35.92 209.28 35.24C208.04 31.92 207.24 28.36 206.48 24.92ZM203.48 18V15.88C203.48 14.8 203.24 13.76 203.24 12.72C203.24 12.08 203.52 11.32 204.24 11.32C205.8 11.32 207.12 13.16 207.12 14.6C207.12 15.28 206.92 15.92 206.52 16.48C206.16 17 204.4 18.32 203.76 18.32C203.6 18.32 203.48 18.2 203.48 18ZM234.865 23.8C234.745 22.68 234.705 21.6 234.705 20.48C234.705 18.16 234.865 15.84 234.865 13.52C234.865 12.2 234.745 10.88 234.745 9.56C234.745 8.72 234.945 7.88 234.945 7.04C234.945 5.84 234.425 5.76 233.385 5.76C232.665 5.76 231.385 5.88 231.385 6.84C231.385 7.36 231.505 7.84 231.505 8.32C231.505 10.64 231.465 12.96 231.465 15.32C231.465 18.88 231.465 22.52 231.785 26.08C231.825 26.4 231.865 26.72 231.865 27.08C231.865 27.48 231.505 27.72 231.185 27.92C230.025 28.72 228.545 28.84 227.385 29.64C226.225 30.44 225.385 31.64 224.785 32.88C224.385 33.8 224.105 34.8 224.105 35.8C224.105 40.24 228.745 42.4 232.465 43.16C232.945 43.24 233.385 43.36 233.865 43.36C235.025 43.36 235.025 41.96 235.025 41.12C235.025 40.04 234.905 38.96 234.905 37.84C234.905 35.28 235.105 32.68 235.105 30.12C235.105 28 235.025 25.88 234.865 23.8ZM231.705 39.52C231.665 39.68 231.465 39.76 231.305 39.76C230.625 39.76 228.625 38.64 228.185 38.12C227.665 37.48 227.385 36.68 227.385 35.84C227.385 33.92 228.945 32.2 230.705 31.64C230.785 31.6 231.345 31.4 231.385 31.4C231.505 31.4 231.585 32.12 231.625 32.24C231.785 33.4 231.665 34.56 231.665 35.72C231.665 36.64 231.865 37.56 231.865 38.48C231.865 38.84 231.825 39.16 231.705 39.52ZM252.807 29.16H252.647C251.927 29.16 251.247 29.04 250.527 29.04C250.207 29.04 249.807 29.04 249.527 29.24C248.727 29.72 249.687 34.68 247.047 34.68C244.367 34.68 244.407 28.88 244.207 27.04C244.127 26.32 244.007 25.6 244.007 24.88C244.007 23.48 245.287 23.2 246.407 23.2C247.767 23.2 249.127 23.32 250.487 23.32C251.967 23.32 252.967 23.04 252.967 21.32C252.967 17.68 251.047 11.2 246.567 11.2C240.807 11.2 240.447 20.68 240.447 24.76C240.447 28.68 241.727 37.92 247.007 37.92C251.047 37.92 253.207 33.44 253.207 29.92C253.207 29.6 253.167 29.24 252.807 29.16ZM244.447 19.24V18.36C244.447 17.08 244.447 14.32 246.287 14.32C248.167 14.32 249.527 17.64 249.527 19.16C249.527 20.04 248.967 20.04 248.287 20.12C247.327 20.24 246.407 20.56 245.447 20.56C245.167 20.56 244.367 20.52 244.367 20.12C244.367 19.8 244.407 19.52 244.447 19.24ZM281.47 29.4C281.11 26.36 281.31 23.32 281.31 20.28C281.31 18.48 281.11 16.72 281.11 14.96C281.11 14.24 281.23 13.56 281.23 12.84C281.23 11.92 279.11 11.52 278.43 11.52C277.87 11.52 277.87 12.12 277.87 12.52C277.87 17.52 278.47 22.48 278.47 27.48C278.47 27.96 278.47 28.4 278.35 28.88C276.47 26.2 272.11 13.12 271.19 12.4C270.67 12.04 270.03 11.88 269.39 11.88C268.59 11.88 268.15 12.32 268.15 13.12C268.15 13.96 268.43 14.76 268.55 15.56C268.79 17.36 268.83 19.24 268.83 21.04C268.83 23.36 268.71 25.68 268.71 27.96C268.71 30.84 268.87 33.64 269.19 36.48C269.27 37.04 269.27 37.56 269.99 37.56C270.55 37.56 271.11 37.64 271.67 37.64C272.47 37.64 272.47 36.44 272.47 35.88C272.47 31.76 271.83 27.68 271.43 23.6C271.27 22.08 271.07 20.6 271.07 19.12C271.07 18.96 271.11 18.76 271.15 18.6C271.83 19.08 273.51 24.24 273.95 25.36C274.95 28 276.35 30.48 277.31 33.12C277.55 33.72 277.91 35.28 278.43 35.6C278.79 35.8 280.19 35.8 280.63 35.8C281.75 35.8 281.75 33.88 281.75 33.12C281.75 31.88 281.59 30.64 281.47 29.4ZM295.115 37.48C301.875 37.48 303.675 29.12 303.675 23.8C303.675 18.32 301.955 11.4 295.195 11.4C288.995 11.4 286.395 18.08 286.395 23.36C286.395 28.88 288.035 37.48 295.115 37.48ZM295.195 14.6C299.355 14.6 300.715 20.36 300.715 23.64C300.715 27.24 299.995 34.36 295.115 34.36C289.755 34.36 289.555 27.56 289.555 23.68C289.555 20 290.475 14.6 295.195 14.6ZM321.533 12H321.133C320.133 12 318.933 12.04 318.933 13.36C318.933 14.12 319.013 14.84 319.013 15.56C319.013 17.56 318.973 19.56 318.973 21.56C318.973 24.76 319.813 33.08 314.853 33.08C310.253 33.08 310.053 27.28 310.053 23.92C310.053 20.4 310.173 16.92 310.173 13.4C310.173 12.84 309.493 12.84 309.133 12.84C308.373 12.84 307.893 12.88 307.293 13.4C307.133 13.56 306.973 21.08 306.973 22C306.973 26.68 307.413 35.96 313.933 35.96C321.253 35.96 322.453 28.04 322.453 22.32C322.453 19.28 322.093 16.28 322.093 13.24C322.093 12.72 322.093 12.24 321.533 12ZM337.683 11.88C337.403 11.68 336.603 11.68 336.243 11.68C336.003 11.68 335.803 11.68 335.563 11.72C334.403 12.04 334.643 12.04 334.563 13.2C334.443 15.32 333.883 17.4 333.683 19.52C333.323 23.4 332.723 27.24 332.123 31.08C331.683 30.8 331.203 26.84 331.003 26.08C330.483 24.12 330.123 22.12 329.603 20.12C329.163 18.24 328.523 16.36 328.083 14.48C327.683 12.8 328.003 11.92 325.923 11.76L325.363 11.72C325.043 11.72 324.563 11.72 324.563 12.2C324.563 12.68 325.923 17.32 326.203 18.32C327.483 23.64 328.923 28.96 330.083 34.32C330.243 35.08 330.403 36.96 331.163 37.32C331.483 37.44 331.923 37.44 332.243 37.44C332.683 37.44 333.643 37.44 333.963 37.16C334.603 36.64 334.563 33.56 334.683 32.68C335.243 28.88 335.923 25.08 336.403 21.28C336.803 18.44 336.763 14.68 338.003 12.12H337.843C337.763 12.12 337.683 11.96 337.683 11.88ZM353.94 29.16H353.78C353.06 29.16 352.38 29.04 351.66 29.04C351.34 29.04 350.94 29.04 350.66 29.24C349.86 29.72 350.82 34.68 348.18 34.68C345.5 34.68 345.54 28.88 345.34 27.04C345.26 26.32 345.14 25.6 345.14 24.88C345.14 23.48 346.42 23.2 347.54 23.2C348.9 23.2 350.26 23.32 351.62 23.32C353.1 23.32 354.1 23.04 354.1 21.32C354.1 17.68 352.18 11.2 347.7 11.2C341.94 11.2 341.58 20.68 341.58 24.76C341.58 28.68 342.86 37.92 348.14 37.92C352.18 37.92 354.34 33.44 354.34 29.92C354.34 29.6 354.3 29.24 353.94 29.16ZM345.58 19.24V18.36C345.58 17.08 345.58 14.32 347.42 14.32C349.3 14.32 350.66 17.64 350.66 19.16C350.66 20.04 350.1 20.04 349.42 20.12C348.46 20.24 347.54 20.56 346.58 20.56C346.3 20.56 345.5 20.52 345.5 20.12C345.5 19.8 345.54 19.52 345.58 19.24ZM365.164 11.32C365.044 10.28 365.164 9.28 365.164 8.24C365.164 6.92 364.404 6.92 363.324 6.92C362.764 6.92 362.124 6.92 361.644 7.24C361.084 7.6 361.124 10.72 361.044 11.48C360.324 18.72 359.164 25.88 358.364 33.08C358.164 35.2 357.844 37.28 357.564 39.4C357.364 41.36 357.204 41.96 358.884 42.08C359.124 42.12 359.404 42.2 359.684 42.2C360.524 42.2 360.444 41.16 360.444 40.56C360.444 38.88 360.684 37.24 360.724 35.6C360.764 34.76 360.764 33.8 361.644 33.36C361.844 33.28 363.524 33.36 363.764 33.36C364.844 33.32 364.884 35.6 365.124 37.16C365.324 38.6 364.964 42.12 365.844 42.12C366.684 42.12 367.404 42.04 368.044 41.6C368.444 41.32 368.084 37.76 367.884 36.2C366.924 27.92 366.524 19.56 365.164 11.32ZM364.124 30.48C363.884 30.64 363.564 30.72 363.284 30.72C362.404 30.72 361.604 30.84 361.644 30.2C361.684 28.72 362.604 20.44 362.844 18.92C363.284 23 364.164 26.08 364.164 29.72C364.164 29.96 364.164 30.24 364.124 30.48ZM362.884 18.76C362.884 18.68 362.884 18.68 362.884 18.64C362.884 18.68 362.884 18.72 362.884 18.76ZM386.611 12H386.211C385.211 12 384.011 12.04 384.011 13.36C384.011 14.12 384.091 14.84 384.091 15.56C384.091 17.56 384.051 19.56 384.051 21.56C384.051 24.76 384.891 33.08 379.931 33.08C375.331 33.08 375.131 27.28 375.131 23.92C375.131 20.4 375.251 16.92 375.251 13.4C375.251 12.84 374.571 12.84 374.211 12.84C373.451 12.84 372.971 12.88 372.371 13.4C372.211 13.56 372.051 21.08 372.051 22C372.051 26.68 372.491 35.96 379.011 35.96C386.331 35.96 387.531 28.04 387.531 22.32C387.531 19.28 387.171 16.28 387.171 13.24C387.171 12.72 387.171 12.24 386.611 12ZM401.681 12.04C401.601 12 401.521 11.92 401.521 11.84C401.521 11.64 401.721 11.44 401.721 11.24C401.721 10.76 399.801 10.8 399.401 10.8C397.841 10.8 398.361 12.56 398.361 13.56C398.361 15 398.201 23.6 396.241 23.6C394.241 23.6 394.161 13.28 394.161 11.64C394.161 10.76 393.441 10.76 392.761 10.76C392.401 10.76 391.961 10.76 391.601 10.84C391.441 10.8 391.281 10.76 391.121 10.76C390.801 10.76 390.681 10.92 390.681 11.2C390.681 11.8 390.721 12.44 390.721 13.04C390.721 16 391.001 19.88 391.961 22.68C392.201 23.4 393.441 24.88 393.441 25.44C393.441 25.72 392.601 27 392.481 27.4C392.241 27.96 392.081 28.56 391.961 29.16C391.241 32.12 391.041 35.16 390.961 38.2C391.641 38.16 392.321 38.16 393.001 38.16C394.081 38.16 394.001 38.4 394.241 37.36C394.521 36.24 394.361 35.08 394.361 33.92C394.361 32.64 394.561 26.6 396.401 26.6C397.881 26.6 398.401 33.08 398.401 34.24C398.401 35.16 398.281 36.08 398.281 37.04C398.281 38.88 398.601 38.32 400.161 38.32C400.521 38.32 400.881 38.4 401.241 38.4C402.001 38.4 402.001 36.72 402.001 36.16C402.001 33.88 401.241 28.68 400.321 26.68C400.041 26.04 399.401 25.4 399.401 24.68C399.401 24.6 399.681 24 399.721 23.88C400.081 22.72 400.601 21.6 400.841 20.4C401.401 17.64 401.601 14.84 401.681 12.04ZM418.304 9.32C418.224 10.28 418.184 11.2 418.184 12.16C418.184 15.44 418.624 18.64 418.784 21.92C419.064 27.08 419.064 32.24 419.064 37.4C419.064 39.28 419.104 39.8 421.184 39.8C422.504 39.8 422.544 39.36 422.544 38.16C422.544 36.72 422.184 35.28 422.064 33.8C421.784 30.6 421.504 27.4 421.504 24.16C421.504 23.4 421.344 22.68 421.344 21.92C421.344 21.32 421.424 20.84 421.904 20.4C422.384 19.96 423.984 19.76 424.744 19.32C426.424 18.36 428.064 16.04 428.064 14.08C428.064 13.28 427.784 12.52 427.344 11.88C425.504 9.12 421.224 9.44 418.304 9.32ZM424.584 16C424.224 16.8 422.664 17.88 421.784 17.88C421.064 17.88 420.904 17.2 420.904 16.64C420.904 15.96 421.064 15.32 421.104 14.68C421.144 14.16 421.064 13.68 421.064 13.16C421.064 12.68 421.144 12.2 421.704 12.2C423.104 12.2 424.784 13.6 424.784 15.04C424.784 15.36 424.704 15.68 424.584 16ZM439.46 11.32C439.34 10.28 439.46 9.28 439.46 8.24C439.46 6.92 438.7 6.92 437.62 6.92C437.06 6.92 436.42 6.92 435.94 7.24C435.38 7.6 435.42 10.72 435.34 11.48C434.62 18.72 433.46 25.88 432.66 33.08C432.46 35.2 432.14 37.28 431.86 39.4C431.66 41.36 431.5 41.96 433.18 42.08C433.42 42.12 433.7 42.2 433.98 42.2C434.82 42.2 434.74 41.16 434.74 40.56C434.74 38.88 434.98 37.24 435.02 35.6C435.06 34.76 435.06 33.8 435.94 33.36C436.14 33.28 437.82 33.36 438.06 33.36C439.14 33.32 439.18 35.6 439.42 37.16C439.62 38.6 439.26 42.12 440.14 42.12C440.98 42.12 441.7 42.04 442.34 41.6C442.74 41.32 442.38 37.76 442.18 36.2C441.22 27.92 440.82 19.56 439.46 11.32ZM438.42 30.48C438.18 30.64 437.86 30.72 437.58 30.72C436.7 30.72 435.9 30.84 435.94 30.2C435.98 28.72 436.9 20.44 437.14 18.92C437.58 23 438.46 26.08 438.46 29.72C438.46 29.96 438.46 30.24 438.42 30.48ZM437.18 18.76C437.18 18.68 437.18 18.68 437.18 18.64C437.18 18.68 437.18 18.72 437.18 18.76ZM453.668 24.92C453.388 23.76 452.748 22.68 452.748 21.48C452.748 21.12 452.868 20.76 453.108 20.48C453.428 20.2 454.228 20.04 454.668 19.84C456.068 19.04 457.068 16.2 457.068 14.64C457.068 10.76 452.788 8.88 449.428 8.88C448.548 8.88 447.708 9.04 447.708 10.08C447.708 10.88 447.908 11.64 447.908 12.44C447.908 15.56 447.788 18.72 447.788 21.84C447.788 27.36 447.868 32.92 447.868 38.44C447.868 40.16 447.868 40.28 449.628 40.28C450.388 40.28 450.788 40.12 450.788 39.28V32.48C450.788 29.16 450.468 25.84 450.468 22.52C450.468 22.2 450.468 21.84 450.548 21.52C451.228 22.92 453.788 33.6 454.108 35.64C454.228 36.16 454.348 38.56 455.068 38.56C455.668 38.56 457.148 38.12 457.148 37.36C457.148 36.64 456.708 35.92 456.468 35.24C455.228 31.92 454.428 28.36 453.668 24.92ZM450.668 18V15.88C450.668 14.8 450.428 13.76 450.428 12.72C450.428 12.08 450.708 11.32 451.428 11.32C452.988 11.32 454.308 13.16 454.308 14.6C454.308 15.28 454.108 15.92 453.708 16.48C453.348 17 451.588 18.32 450.948 18.32C450.788 18.32 450.668 18.2 450.668 18ZM471.654 10.08C470.734 7.96 469.134 6.16 466.694 6.16C460.774 6.16 460.494 15.32 460.494 19.48C460.494 21.88 460.614 24.24 460.814 26.64C460.934 28.12 461.094 29.64 461.094 31.12C461.094 33.2 461.214 35.28 461.214 37.36C461.214 38.56 460.934 39.72 460.934 40.92C460.934 42.4 461.534 42.96 463.094 42.96C464.414 42.96 464.494 41.88 464.494 40.8C464.494 39.68 464.254 38.6 464.254 37.48C464.134 33.12 463.974 28.76 463.974 24.4C463.974 23.92 464.014 23.72 464.574 23.72C465.974 23.72 467.414 24.04 468.854 24.04C470.254 24.04 471.334 24.12 471.334 22.48C471.334 21.72 471.334 19.92 470.334 19.92C468.574 19.92 466.854 20.64 465.094 20.64C463.974 20.64 464.134 19.08 464.134 18.32C464.134 17.12 464.254 15.96 464.334 14.76C464.454 13.16 464.534 9.92 466.894 9.92C468.734 9.92 469.454 13.32 469.694 14.76C470.974 14.52 472.454 14.68 472.454 12.92C472.454 11.96 472.014 10.92 471.654 10.08ZM490.791 12H490.391C489.391 12 488.191 12.04 488.191 13.36C488.191 14.12 488.271 14.84 488.271 15.56C488.271 17.56 488.231 19.56 488.231 21.56C488.231 24.76 489.071 33.08 484.111 33.08C479.511 33.08 479.311 27.28 479.311 23.92C479.311 20.4 479.431 16.92 479.431 13.4C479.431 12.84 478.751 12.84 478.391 12.84C477.631 12.84 477.151 12.88 476.551 13.4C476.391 13.56 476.231 21.08 476.231 22C476.231 26.68 476.671 35.96 483.191 35.96C490.511 35.96 491.711 28.04 491.711 22.32C491.711 19.28 491.351 16.28 491.351 13.24C491.351 12.72 491.351 12.24 490.791 12ZM521.541 27.44C521.461 23.52 521.381 19.64 521.381 15.72C521.381 14.8 521.221 14.4 520.221 14.4C519.781 14.4 518.741 14.4 518.341 14.56C517.421 14.96 516.461 17.12 515.941 18C514.301 20.68 512.461 23.24 510.821 25.92C510.501 26.4 508.701 29.72 508.461 29.72C507.621 29.72 504.621 24.16 504.021 23.16C502.341 20.6 500.581 18.12 498.901 15.56C497.861 14 497.341 14.04 495.541 14.04C494.861 14.04 494.861 15.72 494.861 16.2C494.861 17.24 495.021 18.32 495.021 19.36C495.021 23.08 495.061 26.8 495.061 30.56C495.061 31.68 494.861 32.84 494.861 33.96C494.861 34.24 494.941 34.6 495.181 34.76C495.221 34.72 495.261 34.72 495.301 34.72C496.021 34.72 496.741 35.12 497.501 35.12C498.221 35.12 498.541 35.08 498.541 34.24C498.541 31.8 498.141 29.4 498.101 26.96C498.021 24.28 497.861 21.6 497.821 18.92C498.221 19.24 498.461 20.12 498.701 20.56C499.221 21.52 499.821 22.4 500.421 23.32C501.261 24.64 502.021 26.04 502.781 27.4C503.701 28.92 504.701 30.4 505.621 31.92C506.341 33.12 506.381 33.88 507.941 34.12C508.101 34.16 508.301 34.16 508.461 34.16C509.741 34.16 510.021 33.2 510.541 32.24C511.541 30.4 518.141 19.48 518.581 19.44C519.141 19.88 518.821 32.16 519.341 34.04C519.621 34.92 519.381 34.6 520.221 34.84C520.541 34.96 520.861 35.12 521.181 35.12C521.741 35.12 521.981 34.72 521.981 34.2C521.981 33.44 521.781 32.72 521.741 32C521.661 30.48 521.581 28.96 521.541 27.44ZM534.439 25.68C533.039 23.12 528.959 19.96 528.959 16.96C528.959 16.44 529.039 15.24 529.799 15.24C531.479 15.24 530.079 17.4 532.039 17.4C532.679 17.4 533.319 17.32 533.959 17.24C533.879 15.04 532.279 12.44 529.879 12.44C527.599 12.44 526.079 14.6 526.079 16.72C526.079 22.24 532.959 25 532.959 31C532.959 32.04 532.479 33.8 531.159 33.8C529.559 33.8 529.679 31.8 529.679 30.68C529.679 29.8 528.839 29.24 527.999 29.24C526.919 29.24 526.519 30.12 526.519 31.08C526.519 33.6 528.319 36.68 531.119 36.68C534.199 36.68 535.799 33.56 535.799 30.84C535.799 29.04 535.279 27.24 534.439 25.68ZM564.93 34.12C564.57 34.12 564.13 34.2 563.93 34.52C563.77 34.8 563.69 36.76 563.69 37.2C563.69 37.8 563.97 38.16 564.61 38.16C565.33 38.16 566.09 38.04 566.81 37.96C567.45 37.92 567.37 37.16 567.37 36.72C567.37 34.36 567.17 34.12 564.93 34.12ZM570.69 11.2C569.85 10 568.45 9.12 566.97 9.12C564.01 9.12 562.49 12.28 562.49 14.84C562.49 15.84 562.77 17.04 563.97 17.04C564.81 17.04 565.73 16.48 565.73 15.6C565.73 15.04 565.53 14.56 565.53 14.04C565.53 13.2 566.05 12.08 567.01 12.08C568.53 12.08 569.05 14.24 569.05 15.4C569.05 20.2 565.61 22.52 564.05 26.52C563.89 26.92 563.69 30.4 563.69 30.96C563.69 31.36 563.97 31.68 564.37 31.68H565.85C566.25 31.68 566.53 31.4 566.57 31C566.89 27.84 567.49 25.92 569.17 23.2C569.85 22.16 570.61 21.12 571.09 19.96C571.65 18.6 571.97 17.04 571.97 15.6C571.97 14.04 571.61 12.48 570.69 11.2Z" fill="white"/>
</g>
<defs>
<filter id="filter0_d" x="0.152344" y="0.759995" width="580.818" height="53.6" filterUnits="userSpaceOnUse" color-interpolation-filters="sRGB">
<feFlood flood-opacity="0" result="BackgroundImageFix"/>
<feColorMatrix in="SourceAlpha" type="matrix" values="0 0 0 0 0 0 0 0 0 0 0 0 0 0 0 0 0 0 127 0"/>
<feOffset dx="1" dy="3"/>
<feGaussianBlur stdDeviation="4"/>
<feColorMatrix type="matrix" values="0 0 0 0 0.130833 0 0 0 0 0.415588 0 0 0 0 0.654167 0 0 0 1 0"/>
<feBlend mode="normal" in2="BackgroundImageFix" result="effect1_dropShadow"/>
<feBlend mode="normal" in="SourceGraphic" in2="effect1_dropShadow" result="shape"/>
</filter>
</defs>
</svg>
