<?xml version="1.0" encoding="utf-8"?>
<!-- Generator: Adobe Illustrator 25.1.0, SVG Export Plug-In . SVG Version: 6.00 Build 0)  -->
<svg version="1.1" id="Calque_1" xmlns="http://www.w3.org/2000/svg" xmlns:xlink="http://www.w3.org/1999/xlink" x="0px" y="0px"
	 viewBox="0 0 1320 700" style="enable-background:new 0 0 1320 700;" xml:space="preserve">
<style type="text/css">
	.st0{fill:#BDE1ED;}
	.st1{fill:none;}
	.st2{fill:#F7E6E3;}
	.st3{opacity:0.64;fill:#E3572B;}
	.st4{opacity:0.55;}
	.st5{fill:#F3B807;}
	.st6{fill:#F7EBE8;}
	.st7{fill:#29325A;}
	.st8{fill:#E1A205;}
	.st9{fill:#0C7AA0;}
	.st10{fill:none;stroke:#FFFFFF;stroke-linecap:round;stroke-miterlimit:10;}
	.st11{fill:#F8C6A5;}
	.st12{fill:#F5AE8C;}
	.st13{fill:#E3572B;}
	.st14{fill:#182624;}
	.st15{fill:none;stroke:#F6E9E5;stroke-width:2;stroke-linecap:round;stroke-miterlimit:10;}
	.st16{fill:none;stroke:#F5AE8C;stroke-width:0.5;stroke-miterlimit:10;}
	.st17{fill:#F5AE8C;stroke:#1D1E1C;stroke-width:0.1;stroke-miterlimit:10;}
	.st18{fill:#F6E9E5;}
	.st19{fill:#CF3E17;}
	.st20{fill:none;stroke:#19213C;stroke-linecap:round;stroke-miterlimit:10;}
	.st21{fill:#2B315B;}
	.st22{fill:none;stroke:#4B547E;stroke-width:2;stroke-linecap:round;stroke-miterlimit:10;}
	.st23{fill:#2A305C;}
	.st24{fill:none;stroke:#FFDCA0;stroke-linecap:round;stroke-miterlimit:10;}
	.st25{fill:#EEAD00;}
</style>
<g>
	<path class="st0" d="M1223.8,32.2c0.8,0.3,1.7,0.1,2-0.5c0.7-0.9,1.3-1.9,2-2.9c0.5-0.6,0.2-1.4-0.4-1.8c-0.2-0.1-0.2-0.1-0.4-0.2
		c-0.6-0.1-1.3,0.1-1.7,0.5c-0.7,1-1.3,1.9-2,2.9C1222.8,31.1,1223.1,31.9,1223.8,32.2z"/>
	<path class="st0" d="M1250.6,6.5c1-0.7,1.9-1.4,3-2.1c0.6-0.4,0.7-1.2,0.2-1.8c-0.2-0.2-0.6-0.4-0.8-0.4c-0.4-0.1-1,0-1.1,0.2
		c-1.1,0.7-2.1,1.4-3.1,2.1c-0.7,0.4-0.7,1.2-0.2,1.8C1249,6.9,1250,6.9,1250.6,6.5z"/>
	<path class="st0" d="M1244.7,10.9c1-0.8,1.9-1.6,2.9-2.3c0.6-0.4,0.7-1.3,0.1-1.8c-0.2-0.2-0.5-0.4-0.7-0.4c-0.4-0.1-1,0-1.4,0.3
		c-1,0.8-1.9,1.6-2.9,2.3c-0.6,0.5-0.6,1.3-0.1,1.8C1243.2,11.4,1244.1,11.4,1244.7,10.9z"/>
	<path class="st0" d="M1234.4,20.8c0.7-0.9,1.6-1.8,2.4-2.6c0.5-0.5,0.5-1.3-0.1-1.8c-0.2-0.1-0.4-0.3-0.6-0.3c-0.5-0.1-1,0-1.5,0.4
		c-0.8,0.9-1.7,1.8-2.5,2.7c-0.5,0.5-0.4,1.3,0.2,1.8C1232.9,21.5,1233.8,21.3,1234.4,20.8z"/>
	<path class="st0" d="M1227.8,26.5c0.6,0.4,1.6,0.2,2-0.4c0.7-0.9,1.5-1.8,2.2-2.7c0.5-0.6,0.3-1.4-0.3-1.8
		c-0.2-0.1-0.3-0.2-0.5-0.2c-0.5-0.1-1.2,0.1-1.6,0.6c-0.7,0.9-1.5,1.9-2.3,2.8C1226.9,25.3,1227.2,26.1,1227.8,26.5z"/>
	<path class="st0" d="M1239.4,15.7c0.8-0.8,1.7-1.6,2.6-2.4c0.5-0.5,0.6-1.4,0-1.8c-0.2-0.1-0.4-0.3-0.7-0.3c-0.5-0.1-1,0-1.4,0.4
		c-0.9,0.8-1.8,1.6-2.7,2.5c-0.5,0.5-0.5,1.3,0.1,1.8C1237.9,16.3,1238.8,16.3,1239.4,15.7z"/>
	<path class="st0" d="M1254.5,2.1c0.4,0.5,1.3,0.7,2,0.3c1-0.6,2.2-1.3,3.2-1.8c0.2-0.1,0.3-0.3,0.5-0.4c-1.6,0-3.3,0-4.9,0
		c-0.1,0.1-0.3,0.2-0.4,0.3C1254.3,0.7,1254,1.5,1254.5,2.1z"/>
	<path class="st0" d="M1220.3,38.3c0.8,0.3,1.6,0.1,2-0.6c0.6-1,1.2-2.1,1.7-3c0.4-0.6,0-1.4-0.6-1.7c-0.2,0-0.3-0.1-0.4-0.1
		c-0.6-0.1-1.3,0-1.6,0.6c-0.6,1-1.2,2.1-1.8,3.1C1219.2,37.2,1219.5,37.9,1220.3,38.3z"/>
	<path class="st0" d="M1208,104.4c0.8-0.1,1.4-0.7,1.4-1.4c-0.1-1.1-0.2-2.3-0.2-3.4c0-0.6-0.5-1-1.1-1.2c-0.2,0-0.3-0.1-0.4-0.1
		c-0.8,0.1-1.4,0.7-1.4,1.4c0,1.2,0.1,2.3,0.2,3.4C1206.5,103.9,1207.2,104.4,1208,104.4z"/>
	<path class="st0" d="M1207.4,97.6c0.9-0.1,1.4-0.7,1.4-1.3c-0.1-1.1,0-2.2-0.1-3.3c0-0.6-0.4-1.1-1.1-1.2c-0.1,0-0.3-0.1-0.6,0
		c-0.8,0-1.4,0.6-1.4,1.3c0,1.2,0.1,2.3,0.1,3.4C1206,97.1,1206.7,97.6,1207.4,97.6z"/>
	<path class="st0" d="M1211.6,124.5c0.8-0.2,1.3-0.8,1.1-1.5c-0.2-1.1-0.5-2.2-0.7-3.3c0-0.5-0.5-0.9-1-1c-0.3-0.1-0.4-0.1-0.6,0
		c-0.8,0.2-1.4,0.8-1.2,1.5c0.3,1.1,0.5,2.2,0.7,3.3C1210,124.2,1210.7,124.6,1211.6,124.5z"/>
	<path class="st0" d="M1213.4,131.1c0.7-0.2,1.2-0.8,1-1.5c-0.3-1.1-0.7-2.2-0.9-3.3c-0.1-0.5-0.5-0.9-1-1c-0.3-0.1-0.4-0.1-0.6,0
		c-0.8,0.2-1.3,0.8-1.1,1.5c0.3,1.2,0.6,2.3,0.9,3.4C1211.9,130.8,1212.6,131.2,1213.4,131.1z"/>
	<path class="st0" d="M1210.1,117.9c0.8-0.2,1.4-0.8,1.2-1.5c-0.2-1.1-0.5-2.3-0.6-3.4c-0.1-0.5-0.6-1-1.1-1.1
		c-0.2,0-0.4-0.1-0.5,0.1c-0.9,0.1-1.4,0.8-1.3,1.5c0.2,1.1,0.4,2.2,0.6,3.4C1208.6,117.6,1209.3,118.1,1210.1,117.9z"/>
	<path class="st0" d="M1207.4,90.8c0.8,0,1.5-0.6,1.5-1.2c0-1.2,0-2.2,0.1-3.4c0.1-0.6-0.4-1.1-1.1-1.2c-0.1,0-0.2,0-0.4-0.1
		c-0.8,0-1.5,0.5-1.5,1.2c0,1.1,0,2.2-0.1,3.4C1205.9,90.2,1206.6,90.8,1207.4,90.8z"/>
	<path class="st0" d="M1209,111c0.8-0.1,1.3-0.7,1.3-1.4c-0.1-1.1-0.3-2.2-0.4-3.3c-0.1-0.5-0.6-1-1.1-1.1c-0.2,0-0.4-0.1-0.5-0.1
		c-0.8,0.1-1.3,0.7-1.3,1.4c0.1,1.1,0.3,2.3,0.4,3.4C1207.5,110.6,1208.2,111.1,1209,111z"/>
	<path class="st0" d="M1214.4,50.9c0.8,0.2,1.6-0.1,1.9-0.8c0.4-1.1,0.9-2.1,1.3-3.2c0.3-0.6-0.1-1.3-0.9-1.6c-0.1,0-0.1,0-0.2,0
		c-0.7-0.2-1.5,0.2-1.7,0.8c-0.5,1-0.9,2.2-1.3,3.3C1213.3,49.9,1213.7,50.6,1214.4,50.9z"/>
	<path class="st0" d="M1217.2,44.4c0.8,0.3,1.6,0,1.9-0.6c0.4-1.1,1-2,1.5-3.1c0.3-0.6,0-1.4-0.7-1.7c-0.1,0-0.2,0-0.3-0.1
		c-0.7-0.2-1.5,0.2-1.5,0.7c-0.6,1-1.1,2.1-1.6,3.1C1216.1,43.4,1216.4,44.1,1217.2,44.4z"/>
	<path class="st0" d="M1207.7,84.1c0.8,0,1.5-0.5,1.5-1.2c0.1-1.1,0.1-2.2,0.2-3.3c0-0.7-0.4-1.2-1.1-1.3c-0.1,0-0.2,0-0.2,0
		c-0.8-0.1-1.5,0.4-1.6,1.1c-0.1,1.1-0.2,2.3-0.3,3.4C1206.3,83.4,1206.9,84,1207.7,84.1z"/>
	<path class="st0" d="M1212.2,57.4c0.8,0.2,1.6-0.2,1.8-0.9c0.3-1.1,0.6-2.2,1.1-3.2c0.2-0.7-0.2-1.5-1-1.6
		c-0.7-0.2-1.5,0.2-1.8,0.9c-0.3,1.1-0.8,2.2-1.1,3.3C1210.9,56.5,1211.4,57.2,1212.2,57.4z"/>
	<path class="st0" d="M1208.2,77.3c0.7,0.1,1.5-0.4,1.6-1.1c0.1-1,0.3-2.2,0.4-3.3c0.1-0.6-0.4-1.2-1.1-1.4l-0.1,0
		c-0.8-0.1-1.5,0.4-1.7,1.1c-0.1,1.1-0.3,2.3-0.4,3.4C1206.8,76.6,1207.4,77.2,1208.2,77.3z"/>
	<path class="st0" d="M1209.1,70.6c0.7,0.1,1.5-0.3,1.6-1c0.2-1.1,0.5-2.2,0.7-3.3c0.1-0.7-0.4-1.3-1.1-1.5c0,0,0,0,0,0.1
		c-0.8-0.1-1.6,0.3-1.7,1c-0.2,1.1-0.5,2.2-0.7,3.3C1207.8,69.8,1208.2,70.5,1209.1,70.6z"/>
	<path class="st0" d="M1210.5,63.9c0.8,0.2,1.5-0.2,1.7-0.9c0.3-1.1,0.6-2.2,0.9-3.3c0.2-0.7-0.3-1.4-1.1-1.6
		c-0.8-0.2-1.6,0.3-1.7,0.9c-0.3,1.1-0.7,2.3-0.9,3.4C1209.2,63.1,1209.7,63.7,1210.5,63.9z"/>
	<path class="st0" d="M1215.4,137.6c0.8-0.2,1.2-0.9,1-1.6c-0.3-1.1-0.7-2.1-1-3.2c-0.2-0.4-0.5-0.8-1.1-0.9c-0.3-0.1-0.5,0-0.7-0.1
		c-0.8,0.2-1.2,0.9-1,1.6c0.3,1.2,0.7,2.2,1,3.3C1213.8,137.4,1214.6,137.7,1215.4,137.6z"/>
	<path class="st0" d="M1309,227.4c-1.2-0.4-2.4-0.7-3.7-1.1l-0.1,0c-0.7-0.2-1.5,0.2-1.7,0.9c-0.3,0.7,0.1,1.3,0.9,1.6
		c1.2,0.4,2.4,0.7,3.7,1.1c0.8,0.2,1.6-0.1,1.9-0.8C1310.1,228.4,1309.8,227.7,1309,227.4z"/>
	<path class="st0" d="M1218.6,142.4c-0.4-1-0.8-2.1-1.2-3.2c-0.2-0.4-0.6-0.7-1-0.8c-0.3-0.1-0.5-0.1-0.9-0.1c-0.7,0.2-1.2,1-1,1.6
		c0.4,1.1,0.8,2.2,1.2,3.3c0.3,0.7,1.1,1.1,1.8,0.8C1218.5,143.7,1218.9,143,1218.6,142.4z"/>
	<path class="st0" d="M1252,194.8c-0.8-0.8-1.7-1.7-2.5-2.5c-0.1-0.2-0.5-0.4-0.7-0.4c-0.4-0.1-0.9,0.1-1.3,0.2
		c-0.7,0.4-0.7,1.2-0.2,1.8c0.9,0.9,1.7,1.8,2.5,2.6c0.5,0.5,1.4,0.6,2.1,0.1C1252.5,196.1,1252.5,195.3,1252,194.8z"/>
	<path class="st0" d="M1242.7,184.3c-0.8-0.8-1.5-1.8-2.2-2.7c-0.2-0.3-0.5-0.5-0.9-0.5c-0.4-0.1-0.8,0-1,0.2
		c-0.7,0.3-0.9,1.1-0.4,1.7c0.8,1,1.4,1.9,2.2,2.8c0.4,0.5,1.3,0.7,2,0.3C1243,185.6,1243.2,184.9,1242.7,184.3z"/>
	<path class="st0" d="M1247.2,189.7c-0.8-0.9-1.6-1.8-2.3-2.7c-0.2-0.3-0.5-0.5-0.8-0.5c-0.4-0.1-0.9,0-1.1,0.3
		c-0.7,0.4-0.8,1.2-0.3,1.7c0.8,0.8,1.6,1.8,2.3,2.7c0.5,0.5,1.4,0.7,2,0.2C1247.6,191.1,1247.8,190.3,1247.2,189.7z"/>
	<path class="st0" d="M1257.3,199.8c-0.8-0.8-1.7-1.5-2.6-2.4c-0.2-0.2-0.5-0.4-0.7-0.4c-0.4-0.1-1,0-1.4,0.3
		c-0.5,0.5-0.6,1.3-0.1,1.8c0.9,0.9,1.8,1.7,2.7,2.5c0.6,0.5,1.5,0.5,2.1,0.1C1257.9,201.1,1257.8,200.3,1257.3,199.8z"/>
	<path class="st0" d="M1274.6,213c-1-0.6-2.1-1.4-3.1-2c-0.2-0.1-0.3-0.2-0.5-0.2c-0.5-0.1-1.2,0.1-1.5,0.4
		c-0.5,0.5-0.4,1.4,0.2,1.8c1.1,0.7,2.2,1.4,3.2,2c0.6,0.4,1.5,0.3,2-0.3C1275.4,214.1,1275.2,213.4,1274.6,213z"/>
	<path class="st0" d="M1265.6,206.8c-0.2-0.1-0.4-0.3-0.6-0.3c-0.5-0.1-1.1,0-1.4,0.4c-0.5,0.5-0.5,1.3,0.1,1.8
		c0.9,0.8,1.9,1.5,2.9,2.2c0.6,0.4,1.5,0.3,2.1-0.2c0.5-0.6,0.4-1.3-0.2-1.8C1267.5,208.2,1266.5,207.5,1265.6,206.8z"/>
	<path class="st0" d="M1259.9,202.2c-0.2-0.1-0.4-0.3-0.7-0.3c-0.4-0.1-1,0-1.4,0.2c-0.5,0.5-0.6,1.4,0,1.8c0.9,0.8,1.9,1.6,2.8,2.4
		c0.5,0.5,1.5,0.5,2,0c0.6-0.4,0.6-1.3-0.1-1.8C1261.7,203.8,1260.8,203,1259.9,202.2z"/>
	<path class="st0" d="M1234.4,172.9c-0.7-1-1.2-1.9-1.9-2.9c-0.3-0.3-0.6-0.5-1-0.6c-0.3-0.1-0.7,0-0.9,0.1c-0.8,0.3-1,1.1-0.6,1.7
		c0.5,1,1.2,2,1.9,3c0.4,0.6,1.3,0.8,2,0.4C1234.5,174.3,1234.8,173.5,1234.4,172.9z"/>
	<path class="st0" d="M1238.3,178.7c-0.7-1-1.3-1.9-2-2.9c-0.2-0.3-0.5-0.5-0.9-0.5c-0.4-0.1-0.8-0.1-1.1,0.2
		c-0.7,0.3-0.9,1.1-0.5,1.7c0.7,0.9,1.4,1.9,2.1,2.9c0.4,0.6,1.3,0.7,2,0.4C1238.6,180.1,1238.7,179.3,1238.3,178.7z"/>
	<path class="st0" d="M1227.1,161c-0.6-1-1-2-1.6-3c-0.2-0.4-0.5-0.6-0.9-0.7c-0.3-0.1-0.6-0.1-1,0c-0.7,0.2-1.1,1-0.8,1.6
		c0.5,1,1.1,2.1,1.6,3.1c0.3,0.6,1.2,0.9,1.9,0.6C1227.2,162.4,1227.5,161.7,1227.1,161z"/>
	<path class="st0" d="M1224.1,154.9c-0.5-1-1-2.1-1.5-3.1c-0.2-0.4-0.6-0.6-1-0.7c-0.3-0.1-0.6,0-0.8,0c-0.7,0.2-1.1,1-0.8,1.6
		c0.5,1,0.9,2.1,1.4,3.1c0.3,0.6,1.2,0.9,1.9,0.7C1224.1,156.3,1224.4,155.5,1224.1,154.9z"/>
	<path class="st0" d="M1230.7,167c-0.7-1-1.2-2-1.8-3c-0.2-0.3-0.6-0.5-1-0.6c-0.4-0.1-0.6-0.1-0.9,0.1c-0.7,0.2-1.1,1-0.7,1.7
		c0.5,1,1.2,2.1,1.8,3c0.4,0.6,1.3,0.9,1.9,0.5S1231.1,167.6,1230.7,167z"/>
	<path class="st0" d="M1281,216.7c-1.2-0.6-2.2-1.2-3.3-1.8c-0.2-0.1-0.2-0.1-0.4-0.2c-0.6-0.1-1.3,0-1.7,0.5
		c-0.5,0.6-0.2,1.4,0.4,1.8c1.2,0.6,2.3,1.3,3.4,1.8c0.7,0.4,1.6,0.2,2-0.4C1281.9,217.8,1281.6,217.1,1281,216.7z"/>
	<path class="st0" d="M1221.3,148.7c-0.5-1-0.9-2-1.4-3.1c-0.2-0.4-0.6-0.7-1-0.8c-0.3-0.1-0.6-0.1-0.8,0c-0.7,0.2-1.1,1-0.9,1.6
		c0.4,1.1,0.9,2.1,1.3,3.2c0.3,0.6,1.1,1,1.9,0.8C1221.2,150.1,1221.6,149.3,1221.3,148.7z"/>
	<path class="st0" d="M1316.4,229.5c-1.2-0.3-2.5-0.6-3.8-1c-0.7-0.2-1.5,0.2-1.8,0.8c-0.2,0.7,0.2,1.4,0.9,1.6
		c1.2,0.4,2.5,0.6,3.7,1c0.8,0.2,1.7-0.1,1.9-0.8C1317.5,230.4,1317.2,229.7,1316.4,229.5z"/>
	<path class="st0" d="M1287.5,220c-1.1-0.5-2.3-1-3.3-1.6c-0.1-0.1-0.2-0.1-0.3-0.2c-0.6-0.1-1.3,0-1.6,0.7
		c-0.4,0.6-0.1,1.4,0.5,1.7c1.1,0.5,2.2,1.1,3.4,1.6c0.8,0.3,1.6,0.1,2-0.6C1288.5,221.1,1288.3,220.4,1287.5,220z"/>
	<path class="st0" d="M1320,230.5C1320,230.5,1320,230.5,1320,230.5L1320,230.5z"/>
	<path class="st0" d="M1294.6,222.8c-1.2-0.4-2.3-0.9-3.5-1.4c-0.1,0-0.2,0-0.3-0.1c-0.7-0.2-1.5,0.2-1.7,0.7
		c-0.3,0.6,0,1.3,0.7,1.7c1.2,0.5,2.4,1,3.6,1.4c0.8,0.3,1.6,0,1.9-0.6C1295.7,223.8,1295.4,223,1294.6,222.8z"/>
	<path class="st0" d="M1301.8,225.1c-1.2-0.4-2.4-0.7-3.7-1.2c-0.1,0-0.1,0-0.2,0c-0.7-0.2-1.5,0.2-1.7,0.8
		c-0.3,0.6,0.1,1.3,0.9,1.6c1.2,0.4,2.4,0.8,3.7,1.2c0.7,0.2,1.5-0.1,1.8-0.7C1302.9,226.1,1302.6,225.4,1301.8,225.1z"/>
	<path class="st0" d="M1312.6,228.5C1312.6,228.5,1312.6,228.5,1312.6,228.5C1312.6,228.5,1312.6,228.5,1312.6,228.5z"/>
	<path class="st0" d="M1312.6,228.5C1312.6,228.5,1312.6,228.5,1312.6,228.5L1312.6,228.5z"/>
</g>
<rect x="913.1" y="-96.9" class="st1" width="59.3" height="13"/>
<text transform="matrix(1 0 0 1 913.0991 -85.748)" style="fill:#A3CDD7; font-family:'Montserrat-SemiBold'; font-size:15px;">Accueil</text>
<circle class="st0" cx="994.3" cy="-91" r="12.6"/>
<rect x="913" y="-104" class="st1" width="94" height="26"/>
<path class="st2" d="M2723.4,971.4C2723.4,971.4,2723.4,971.4,2723.4,971.4l0,0.3L2723.4,971.4z"/>
<path class="st2" d="M2864.8,912.6C2864.8,912.6,2864.8,912.6,2864.8,912.6L2864.8,912.6L2864.8,912.6z"/>
<path class="st2" d="M2872.1,944.8C2872.1,944.9,2872.1,944.9,2872.1,944.8L2872.1,944.8L2872.1,944.8
	C2872.1,944.9,2872.1,944.9,2872.1,944.8L2872.1,944.8L2872.1,944.8z"/>
<rect x="3147.4" y="58" class="st1" width="59.3" height="13"/>
<text transform="matrix(1 0 0 1 3147.4084 69.1687)" style="fill:#A3CDD7; font-family:'Montserrat-SemiBold'; font-size:15px;">Accueil</text>
<g>
	<path class="st3" d="M1199,414.5c-3.1,3.1-7.4,5.1-12.2,5.4c-0.3,0-0.7,0-1,0c-0.3,0-0.6,0-1,0c-0.2,0-0.4,0-0.7,0h-46.1
		c0,0-0.1,0-0.1,0c0,0,0,0-0.1,0h-46.2c0,0,0,0,0,0c0.9-2.9,2.8-5.4,5.2-7.1c-6.4-1.9-11.1-7.7-11.1-14.4c0-8.3,7.1-15.1,15.9-15.1
		c2.4,0,4.8,0.5,6.8,1.5c0.2-3.1,1.4-5.9,3.3-8.2c2.9-3.5,7.5-5.8,12.6-5.8c2.6,0,5.1,0.6,7.3,1.7c0.2-0.3,0.4-0.6,0.7-0.8
		c2.2-2.4,5.5-4.1,9.3-4.7c0.7-0.1,1.3-0.2,2-0.2c0.3,0,0.5,0,0.8,0c4.7,0,9,1.8,11.7,4.6c1.4-0.8,2.9-1.3,4.4-1.7
		c1-0.2,2.1-0.3,3.2-0.3c4.4,0,8.3,1.8,11.1,4.7c1.7,1.8,3,4.1,3.5,6.6c0.2,0.9,0.3,1.9,0.3,2.9c0,0.1,0,0.1,0,0.2
		c0,1.2-0.2,2.4-0.5,3.6c2.2-0.9,4.7-1.5,7.3-1.5c4.5,0,9.1,1.7,12,4.3C1203.3,395,1204.2,405.2,1199,414.5z"/>
	<g class="st4">
		<path class="st5" d="M1013.8,313.6c0.5,41.8,0,59.5,0.5,60.6c8.8,0,25.2,0,34,0.1l0.1-60.6L1013.8,313.6z"/>
		<path class="st5" d="M1049.7,302.7c3-12.3,6-24.6,9-37c0.3-8.7,0.6-17.4,0.8-26.1l-54.1-0.1c0.4,8.8,0.7,17.6,1.1,26.3
			c2.1,12.2,4.2,24.5,6.3,36.7L1049.7,302.7z"/>
		
			<rect x="1003.3" y="184.1" transform="matrix(2.171867e-03 -1 1 2.171867e-03 819.1511 1239.6954)" class="st5" width="54.9" height="50.6"/>
		
			<rect x="1057.4" y="183.9" transform="matrix(2.171861e-03 -1 1 2.171861e-03 872.3367 1279.016)" class="st5" width="39.2" height="37.1"/>
		<path class="st5" d="M1094.9,225.9L1094.9,225.9c0,0.8-0.5,1.4-1.2,1.6l-32.9,10.6c-0.6,0.2-1.3,0-1.8-0.4l-1-1
			c-0.4-0.4-0.5-0.9-0.5-1.4l0.5-9.7c0-1,0.8-1.7,1.8-1.7l33.4,0.1C1094.1,224,1094.9,224.9,1094.9,225.9z"/>
		<path class="st6" d="M1058.8,222l37.3,0.1c0.4,0,0.7,0.3,0.7,0.7l0,1.7l-38.6-0.1l0-1.7C1058.1,222.3,1058.4,222,1058.8,222z"/>
		<path class="st7" d="M1080.1,200.1l0,12c0,0.4,0.4,0.8,0.8,0.8l4,0c0.4,0,0.8-0.4,0.8-0.8l0-12c0-0.4-0.4-0.8-0.8-0.8l-4,0
			C1080.5,199.3,1080.1,199.6,1080.1,200.1z"/>
		<path class="st7" d="M1067.3,200.1l0,12c0,0.4,0.4,0.8,0.8,0.8l4,0c0.4,0,0.8-0.4,0.8-0.8l0-12c0-0.4-0.4-0.8-0.8-0.8l-4,0
			C1067.6,199.3,1067.3,199.6,1067.3,200.1z"/>
		<path class="st5" d="M1115.9,157.4l-0.1,25.7l29.8,0.1c0.4,0,0.7-0.3,0.7-0.7l0.1-24.4c0-0.3-0.3-0.6-0.6-0.6L1115.9,157.4z"/>
		
			<rect x="1051.7" y="148.4" transform="matrix(-0.9572 -0.2893 0.2893 -0.9572 2081.9175 609.5283)" class="st5" width="68.6" height="4.9"/>
		<path class="st5" d="M1050.2,136.5l-0.1,43.3l4.5,0l0.1-42.8c0-0.3-0.2-0.5-0.5-0.5L1050.2,136.5z"/>
		<path class="st5" d="M1011.7,181.8l0.1-45.4l-4.1,0c-0.2,0-0.4,0.2-0.4,0.4l-0.1,45.1L1011.7,181.8z"/>
		
			<rect x="1008" y="151.3" transform="matrix(-1 -2.171861e-03 2.171861e-03 -1 2061.1501 309.3571)" class="st5" width="45.4" height="4.5"/>
		
			<rect x="1007.7" y="164.7" transform="matrix(-1 -2.171861e-03 2.171861e-03 -1 2060.4805 336.1981)" class="st5" width="45.4" height="4.5"/>
		<path class="st5" d="M898.8,160.7l108.6-24.3c15.4,0,30.7,0.1,46.1,0.1c0.3,1.5,0.5,3,0.8,4.5l-46.9-0.1l0-0.3l-107.7,24.1
			L898.8,160.7z"/>
		<path class="st5" d="M900.9,179c0-0.6,0.5-1.1,1.1-1.1l107,0.2c0,0,0,0,0,0l54.6,0.1l0,0l55.2,0.1l0,2.3c-0.1,0.8-0.2,1.7-0.4,2.5
			c-20.9-0.1-41.8-0.3-62.7-0.4l-48.5-0.1l0-0.4L902,182c-0.6,0-1.1-0.5-1.1-1.1L900.9,179z"/>
		<path class="st5" d="M872.9,165.4l0,15.2c0,0.7,0.6,1.3,1.3,1.3c10,0.1,20.1,0.1,30.1,0.2c-0.1-7.4-0.2-14.8-0.3-22.3l-29.6,4
			C873.5,163.9,872.9,164.6,872.9,165.4z"/>
		<path class="st6" d="M1005.4,236.1l53.8,0.1c0.5,0,0.9,0.4,0.9,1l0,2.5l-55.7-0.1l0-2.5C1004.5,236.6,1004.9,236.1,1005.4,236.1z"
			/>
		<path class="st6" d="M1059.4,182.5c-0.1,18.5-0.1,37-0.2,55.5c0,0,0,0,0,0l-3.4,0l0.1-55.6C1057,182.4,1058.2,182.5,1059.4,182.5z
			"/>
		<path class="st6" d="M1009.5,302.5l45.7,0.1c0.5,0,0.9,0.4,0.9,0.9l0,9.6c0,0.5-0.4,0.9-0.9,0.9l-45.7-0.1c-0.5,0-0.9-0.4-0.9-0.9
			l0-9.6C1008.6,302.9,1009,302.5,1009.5,302.5z"/>
		
			<rect x="1088.3" y="165.4" transform="matrix(-0.5663 -0.8242 0.8242 -0.5663 1593.3623 1172.7426)" class="st5" width="34" height="3.4"/>
		<path class="st5" d="M1072,152.3c6.5,9.4,13,18.9,19.4,28.3l2.8-2c-6.8-9.9-13.7-19.9-20.5-29.8
			C1073.3,150,1072.7,151.2,1072,152.3z"/>
		<path class="st5" d="M1053.2,146.7c6,11,12,22,18,33l3-1.7c-6.3-11.6-12.7-23.2-19-34.8C1054.6,144.4,1053.9,145.5,1053.2,146.7z"
			/>
		
			<rect x="1082.2" y="164.5" transform="matrix(2.171861e-03 -1 1 2.171861e-03 926.648 1260.7545)" class="st5" width="25.7" height="3"/>
		
			<rect x="1058.1" y="161.7" transform="matrix(2.171861e-03 -1 1 2.171861e-03 907.5033 1236.3252)" class="st5" width="30.4" height="3.5"/>
		
			<rect x="932.5" y="163.3" transform="matrix(0.5699 -0.8217 0.8217 0.5699 273.5875 853.1027)" class="st5" width="38.4" height="3.9"/>
		
			<rect x="915" y="164.9" transform="matrix(0.5699 -0.8217 0.8217 0.5699 262.9763 836.0534)" class="st5" width="30.2" height="3.9"/>
		
			<rect x="897.5" y="168.5" transform="matrix(0.6363 -0.7714 0.7714 0.6363 199.878 764.5358)" class="st5" width="26.5" height="3.5"/>
		<path class="st5" d="M989.3,148.6c-7.4,10.6-14.8,21.3-22.2,31.9l-3.2-2.2c7.8-11.2,15.6-22.4,23.3-33.6
			C988,146,988.6,147.3,989.3,148.6z"/>
		<path class="st5" d="M1010.7,142.3c-6.9,12.4-13.7,24.9-20.6,37.3l-3.4-1.9c7.2-13.1,14.4-26.2,21.7-39.3
			C1009.2,139.7,1009.9,141,1010.7,142.3z"/>
		
			<rect x="948.7" y="162.3" transform="matrix(2.171861e-03 -1 1 2.171861e-03 797.0684 1126.8683)" class="st5" width="29.1" height="3.4"/>
		
			<rect x="909.4" y="168.9" transform="matrix(2.171861e-03 -1 1 2.171861e-03 747.4841 1089.297)" class="st5" width="20.4" height="2.4"/>
		
			<rect x="927.6" y="166" transform="matrix(2.171861e-03 -1 1 2.171861e-03 770.2258 1107.4084)" class="st5" width="24.8" height="3.4"/>
		
			<rect x="970.7" y="159.2" transform="matrix(2.171861e-03 -1 1 2.171861e-03 824.5804 1148.7196)" class="st5" width="34.4" height="3.9"/>
		<path class="st5" d="M883.3,186.5l11.4,0c0.4,0,0.8-0.3,0.8-0.8l0-3.8c0-0.4-0.3-0.8-0.8-0.8l-11.4,0c-0.4,0-0.8,0.3-0.8,0.8
			l0,3.8C882.5,186.1,882.8,186.5,883.3,186.5z"/>
		<polygon class="st8" points="1048.3,374.3 1059.6,386 1073.7,412.3 1073.7,442.5 1067.1,442.5 1065.3,421.4 1046.6,398.2 
			1019.2,398.2 1001.4,420.5 999.2,442.5 993.6,442.5 993.6,411.7 1005,385.7 1014.3,374.2 		"/>
		<polygon class="st5" points="1044.5,374.2 1038.2,383.2 1035.1,442.5 1027.2,442.5 1025.8,382.9 1019.8,374.3 		"/>
	</g>
	<g>
		<path class="st9" d="M1320.1,421.6V701H390.2c19.4-17.6,40-35.1,61.9-52.4c39-30.9,82-60.9,129.1-88.8c3.1-1.8,6.2-3.7,9.4-5.5
			c24.2-14,48.4-26.8,72.5-38.3c25.7-12.4,51.3-23.5,76.7-33.3c0.5-0.2,0.9-0.4,1.4-0.6c2.7-1,5.4-2.1,8.1-3.1
			c23.8-9,47.4-16.9,70.7-24c0.2-0.1,0.5-0.1,0.7-0.2c1-0.3,2-0.6,3-0.9c0.3-0.1,0.5-0.2,0.8-0.2c1.9-0.6,3.9-1.1,5.8-1.7
			C1029.2,394.3,1207.2,405.1,1320.1,421.6z"/>
		<path class="st10" d="M1320.1,470.6c-90.4-10.8-240.8-17.4-416.8,29.9c-191,51.3-324.6,142.6-397.2,200.5"/>
	</g>
</g>
<g>
	<path class="st0" d="M3389.5-287.2c0.5,0.1,0.8,0.4,1,0.9l1.3,2.8c0.4,0.8,0.1,1.8-0.7,2.1c-0.8,0.4-1.8,0.1-2.1-0.7l-1.3-2.8
		c-0.4-0.8-0.1-1.8,0.7-2.1C3388.7-287.3,3389.1-287.3,3389.5-287.2z M3392.6-280.6c0.5,0.1,0.8,0.4,1,0.9c0.6,1.3,1.2,2.6,1.8,3.9
		c0.4,0.8,0.1,1.8-0.7,2.1c-0.8,0.4-1.8,0.1-2.1-0.7c-0.6-1.3-1.2-2.6-1.8-3.9c-0.4-0.8-0.1-1.8,0.7-2.1
		C3391.9-280.7,3392.3-280.7,3392.6-280.6z M3396-272.9c0.5,0.1,0.8,0.4,1,0.9c0.6,1.3,1.2,2.6,1.8,3.9c0.3,0.8,0,1.7-0.7,2.1
		c-0.8,0.3-1.7,0-2.1-0.7c-0.6-1.3-1.2-2.6-1.7-3.8c-0.3-0.8,0-1.7,0.7-2.1C3395.3-273,3395.8-273,3396-272.9z M3399.6-265.3
		c0.5,0.1,0.8,0.4,1,0.9c0.6,1.3,1.1,2.6,1.7,3.8c0.3,0.8,0,1.7-0.8,2.1c-0.8,0.3-1.7,0-2.1-0.8c-0.6-1.3-1.1-2.6-1.7-3.8
		c-0.3-0.8,0-1.7,0.8-2.1C3398.8-265.3,3399.3-265.4,3399.6-265.3z M3402.9-257.5c0.5,0.1,0.8,0.4,1.1,0.9c0.6,1.3,1.1,2.6,1.7,3.9
		c0.3,0.8,0,1.7-0.8,2.1c-0.8,0.3-1.7,0-2.1-0.8c-0.6-1.3-1.1-2.6-1.7-3.8c-0.3-0.8,0-1.7,0.8-2.1
		C3402.3-257.5,3402.6-257.6,3402.9-257.5z M3406.2-249.7c0.5,0.1,0.9,0.4,1.1,0.9c0.5,1.3,1.1,2.7,1.6,3.9c0.3,0.8,0,1.7-0.8,2.1
		c-0.8,0.3-1.7,0-2.1-0.8c-0.5-1.3-1.1-2.7-1.6-3.9c-0.3-0.8,0-1.7,0.8-2.1C3405.6-249.8,3405.9-249.8,3406.2-249.7z M3409.4-241.9
		c0.5,0.1,0.9,0.4,1.1,1c0.5,1.3,1.1,2.7,1.6,3.9c0.3,0.8-0.1,1.7-0.9,2c-0.8,0.3-1.7-0.1-2-0.9c-0.5-1.3-1-2.6-1.6-3.9
		c-0.3-0.8,0-1.7,0.8-2.1C3408.7-241.9,3409-242,3409.4-241.9z M3412.5-234.1c0.5,0.1,0.9,0.4,1.1,1c0.5,1.4,1,2.6,1.4,4
		c0.3,0.8-0.1,1.7-0.9,2c-0.8,0.3-1.7-0.1-2-0.9c-0.5-1.4-1-2.6-1.4-4c-0.3-0.8,0.1-1.7,0.9-2
		C3411.8-234.1,3412.2-234.1,3412.5-234.1z M3415.4-226.1c0.5,0.1,0.9,0.4,1.1,1c0.5,1.4,1,2.6,1.4,4c0.3,0.8-0.1,1.7-0.9,2
		c-0.8,0.3-1.7-0.1-2-0.9c-0.5-1.4-1-2.6-1.4-4c-0.3-0.8,0.1-1.7,0.9-2C3414.7-226.2,3415.1-226.2,3415.4-226.1z M3418.1-218.2
		c0.5,0.1,0.9,0.5,1.1,1c0.5,1.4,0.9,2.7,1.3,4.1c0.3,0.8-0.2,1.7-1,2c-0.8,0.3-1.7-0.2-2-1c-0.4-1.3-0.9-2.7-1.4-4
		c-0.3-0.8,0.1-1.7,1-2C3417.5-218.2,3417.8-218.2,3418.1-218.2z M3420.6-210.1c0.5,0.1,1,0.6,1.1,1.1c0.4,1.3,0.9,2.7,1.2,4
		c0.2,0.8-0.2,1.7-1,2c-0.9,0.2-1.7-0.2-2-1c-0.4-1.3-0.8-2.7-1.2-4c-0.3-0.8,0.2-1.7,1-2C3420-210.1,3420.3-210.1,3420.6-210.1z
		 M3423-202c0.5,0.1,1,0.6,1.2,1.1c0.4,1.3,0.8,2.7,1.1,4.1c0.2,0.9-0.2,1.7-1.1,2c-0.9,0.2-1.7-0.2-2-1.1c-0.4-1.3-0.8-2.7-1.1-4
		c-0.2-0.9,0.2-1.7,1.1-2C3422.5-202,3422.8-202.1,3423-202z M3425.2-193.8c0.6,0.1,1,0.6,1.2,1.1c0.4,1.3,0.6,2.7,1,4.1
		c0.2,0.9-0.3,1.7-1.2,1.9c-0.9,0.2-1.7-0.3-1.9-1.2c-0.4-1.3-0.6-2.7-1-4.1c-0.2-0.9,0.3-1.7,1.1-1.9
		C3424.7-193.9,3424.9-193.9,3425.2-193.8z M3427.1-185.6c0.6,0.2,1,0.6,1.1,1.2c0.3,1.4,0.6,2.7,0.9,4.2c0.2,0.9-0.3,1.7-1.2,1.9
		c-0.9,0.2-1.7-0.3-1.9-1.2c-0.3-1.4-0.5-2.7-0.9-4.2c-0.2-0.9,0.3-1.7,1.2-1.9C3426.6-185.7,3426.9-185.6,3427.1-185.6z
		 M3428.8-177.4c0.6,0.1,1.1,0.6,1.1,1.2c0.3,1.4,0.5,2.8,0.8,4.2c0.2,0.9-0.4,1.6-1.3,1.8c-0.9,0.2-1.6-0.4-1.8-1.3
		c-0.3-1.4-0.5-2.7-0.8-4.1c-0.2-0.9,0.4-1.6,1.3-1.8C3428.4-177.4,3428.6-177.4,3428.8-177.4z M3430.3-169c0.6,0.2,1.1,0.7,1.2,1.3
		c0.3,1.4,0.4,2.8,0.7,4.2c0.1,0.8-0.5,1.6-1.4,1.8c-0.8,0.1-1.6-0.5-1.8-1.4c-0.2-1.4-0.4-2.8-0.6-4.2c-0.1-0.8,0.4-1.6,1.3-1.8
		C3429.9-169,3430.1-169.1,3430.3-169z M3431.4-160.7c0.6,0.1,1.1,0.7,1.2,1.3c0.2,1.4,0.3,2.8,0.5,4.2c0.1,0.8-0.5,1.6-1.4,1.7
		s-1.6-0.5-1.7-1.4c-0.2-1.4-0.3-2.8-0.5-4.2c-0.1-0.8,0.5-1.6,1.4-1.7C3431.1-160.7,3431.3-160.7,3431.4-160.7z M3432.3-152.2
		c0.7,0.2,1.2,0.7,1.2,1.4c0.2,1.4,0.2,2.8,0.4,4.2c0.1,0.8-0.6,1.6-1.5,1.7s-1.6-0.6-1.7-1.5c-0.1-1.4-0.2-2.7-0.3-4.2
		c-0.1-0.8,0.5-1.6,1.5-1.7C3431.9-152.3,3432.1-152.2,3432.3-152.2z M3432.8-143.8c0.7,0.2,1.2,0.7,1.2,1.4c0,1.5,0.1,2.8,0.1,4.3
		c0,0.8-0.7,1.6-1.5,1.6c-0.8,0-1.6-0.7-1.6-1.5c-0.1-1.4-0.1-2.8-0.2-4.2c-0.1-0.8,0.6-1.6,1.6-1.7
		C3432.5-143.9,3432.6-143.8,3432.8-143.8z M3433-135.4c0.7,0.2,1.1,0.8,1.2,1.5c0,1.5,0,2.9-0.1,4.2c0,0.9-0.7,1.6-1.6,1.5
		s-1.6-0.7-1.5-1.6c0-1.3,0.1-2.8,0.1-4.2c0-0.8,0.7-1.6,1.5-1.6C3432.8-135.5,3432.8-135.4,3433-135.4z M3432.8-127
		c0.7,0.2,1.2,0.8,1.1,1.6c-0.1,1.4-0.1,2.9-0.3,4.3c0,0.9-0.8,1.5-1.7,1.4c-0.9-0.1-1.5-0.8-1.4-1.7c0.2-1.4,0.2-2.7,0.3-4.2
		c0-0.9,0.8-1.5,1.6-1.5C3432.6-127,3432.7-127,3432.8-127z M3432.2-118.6c0.8,0.2,1.2,0.9,1.2,1.7c-0.2,1.4-0.3,2.8-0.5,4.2
		c-0.1,0.9-0.9,1.5-1.8,1.4c-0.9-0.1-1.5-0.9-1.4-1.8c0.2-1.4,0.3-2.8,0.4-4.1c0.1-0.9,0.9-1.5,1.7-1.4
		C3432-118.6,3432.1-118.6,3432.2-118.6z M3431.2-110.1c0.8,0.2,1.3,1,1.2,1.8c-0.3,1.4-0.4,2.8-0.7,4.2c-0.1,0.9-1,1.4-1.9,1.3
		c-0.9-0.1-1.4-1-1.3-1.9c0.3-1.4,0.5-2.8,0.7-4.2c0.1-0.9,0.9-1.4,1.8-1.3C3431.1-110.2,3431.1-110.2,3431.2-110.1z M3429.7-101.9
		c0.8,0.2,1.3,1.1,1.2,1.9c-0.3,1.4-0.6,2.8-1,4.2c-0.2,0.9-1.1,1.4-1.9,1.2c-0.9-0.2-1.4-1.1-1.2-1.9c0.4-1.4,0.6-2.7,1-4.1
		C3427.9-101.5,3428.8-102,3429.7-101.9L3429.7-101.9z M3427.7-93.6L3427.7-93.6c0.9,0.2,1.4,1.1,1.1,1.9c-0.4,1.4-0.7,2.8-1.2,4.1
		c-0.2,0.9-1.1,1.3-1.9,1.1c-0.9-0.2-1.3-1.2-1.1-1.9c0.4-1.3,0.8-2.7,1.1-4C3426-93.3,3426.9-93.8,3427.7-93.6z M3425.3-85.5
		L3425.3-85.5c0.9,0.3,1.3,1.2,1.1,2c-0.4,1.3-0.9,2.8-1.4,4.1c-0.3,0.8-1.2,1.2-2,0.9c-0.8-0.3-1.2-1.2-0.9-2
		c0.4-1.3,0.9-2.7,1.3-4C3423.7-85.3,3424.6-85.7,3425.3-85.5z M3422.5-77.6c0.1,0,0.1,0,0.2,0c0.8,0.3,1.2,1.2,0.9,2.1
		c-0.5,1.3-1.1,2.6-1.6,3.9c-0.3,0.8-1.2,1.1-2.1,0.8s-1.2-1.2-0.8-2.1c0.5-1.3,1.1-2.6,1.6-3.8
		C3420.9-77.4,3421.7-77.8,3422.5-77.6z M3419-69.9c0.1,0,0.2,0,0.3,0.1c0.8,0.4,1.1,1.3,0.8,2.1c-0.6,1.3-1.3,2.6-1.9,3.8
		c-0.4,0.8-1.3,1.1-2.1,0.7c-0.8-0.4-1.1-1.3-0.7-2.1c0.6-1.3,1.3-2.5,1.8-3.8C3417.5-69.7,3418.3-70.1,3419-69.9z M3415.2-62.3
		c0.1,0,0.3,0.1,0.4,0.1c0.7,0.4,1.1,1.4,0.6,2.1c-0.6,1.3-1.4,2.5-2.1,3.7c-0.4,0.7-1.4,1-2.2,0.6c-0.7-0.4-1-1.4-0.6-2.2
		c0.7-1.2,1.4-2.4,2.1-3.6C3413.9-62.3,3414.5-62.5,3415.2-62.3z M3411-55.1c0.2,0,0.3,0.1,0.5,0.2c0.7,0.5,1,1.5,0.5,2.2
		c-0.7,1.2-1.5,2.4-2.3,3.5c-0.5,0.7-1.5,1-2.2,0.5c-0.7-0.5-1-1.5-0.5-2.2c0.8-1.1,1.5-2.3,2.3-3.5
		C3409.6-55,3410.4-55.2,3411-55.1z M3406.3-48.1c0.2,0,0.4,0.1,0.6,0.2c0.7,0.5,0.9,1.5,0.4,2.2c-0.8,1.1-1.6,2.3-2.5,3.5
		c-0.5,0.7-1.6,0.8-2.3,0.3c-0.7-0.5-0.8-1.6-0.3-2.3c0.8-1.1,1.7-2.2,2.4-3.4C3405-48,3405.7-48.3,3406.3-48.1z M3401.2-41.4
		c0.2,0,0.4,0.1,0.6,0.2c0.7,0.6,0.8,1.6,0.2,2.2c-0.9,1.1-1.8,2.2-2.7,3.3c-0.6,0.7-1.5,0.7-2.2,0.2c-0.7-0.6-0.7-1.5-0.2-2.2
		c0.9-1.1,1.8-2.1,2.7-3.2C3400-41.3,3400.6-41.5,3401.2-41.4z M3395.7-34.9c0.2,0,0.5,0.2,0.6,0.4c0.7,0.6,0.7,1.6,0.2,2.2
		c-0.9,1-1.9,2.1-2.9,3.2c-0.6,0.7-1.6,0.6-2.2,0.1c-0.7-0.6-0.6-1.6-0.1-2.2c1-1,1.9-2.1,2.9-3.1
		C3394.6-34.9,3395.3-35,3395.7-34.9z M3390-28.8c0.3,0.1,0.5,0.2,0.7,0.4c0.7,0.6,0.6,1.6,0,2.3c-1,1-2,2-3,2.9
		c-0.7,0.6-1.6,0.6-2.3-0.1c-0.6-0.7-0.6-1.6,0.1-2.3c1-1,2.1-1.9,3-2.9C3388.9-28.7,3389.4-28.9,3390-28.8z M3383.9-22.9
		c0.3,0.1,0.6,0.2,0.8,0.5c0.6,0.7,0.5,1.7-0.1,2.3c-1.1,1-2.1,1.9-3.2,2.8c-0.7,0.6-1.7,0.5-2.2-0.2c-0.6-0.7-0.5-1.7,0.2-2.2
		c1-0.9,2.1-1.8,3.1-2.8C3382.8-23,3383.4-23,3383.9-22.9z M3377.5-17.4c0.3,0.1,0.6,0.2,0.8,0.5c0.6,0.7,0.5,1.7-0.2,2.2
		c-1,0.9-2.2,1.8-3.3,2.7c-0.7,0.6-1.7,0.4-2.2-0.3c-0.6-0.7-0.4-1.7,0.3-2.2c1-0.9,2.2-1.7,3.3-2.7
		C3376.6-17.5,3377.1-17.5,3377.5-17.4z M3371-12.2c0.3,0.1,0.7,0.3,0.9,0.5c0.6,0.7,0.4,1.7-0.3,2.2c-1.1,0.8-2.3,1.7-3.4,2.5
		c-0.8,0.5-1.7,0.4-2.2-0.4c-0.5-0.8-0.4-1.7,0.4-2.2c1.1-0.8,2.3-1.7,3.3-2.5C3370-12.2,3370.5-12.3,3371-12.2z M3364.1-7.2
		c0.4,0.1,0.7,0.3,0.9,0.6c0.5,0.8,0.3,1.7-0.4,2.2c-1.1,0.8-2.3,1.6-3.5,2.4c-0.8,0.5-1.7,0.3-2.2-0.5c-0.5-0.8-0.3-1.7,0.5-2.2
		c1.1-0.7,2.4-1.6,3.5-2.3C3363.2-7.3,3363.7-7.3,3364.1-7.2z M3357.1-2.5c0.4,0.1,0.7,0.3,1,0.7c0.4,0.7,0.3,1.7-0.5,2.2
		c-1.2,0.7-2.4,1.6-3.6,2.3c-0.7,0.4-1.7,0.2-2.1-0.6s-0.2-1.7,0.6-2.1c1.2-0.7,2.3-1.5,3.6-2.2C3356.2-2.6,3356.7-2.6,3357.1-2.5z
		 M3349.9,1.9c0.4,0.1,0.7,0.4,0.9,0.8c0.4,0.7,0.2,1.7-0.6,2.1c-1.2,0.7-2.4,1.4-3.7,2.2c-0.7,0.4-1.7,0.2-2.1-0.6
		s-0.2-1.7,0.6-2.1c1.2-0.7,2.4-1.4,3.6-2.1C3349.1,1.9,3349.5,1.8,3349.9,1.9z M3342.6,6.1c0.4,0.1,0.7,0.4,1,0.8
		c0.4,0.7,0.2,1.7-0.6,2.1c-1.2,0.7-2.5,1.3-3.7,2c-0.7,0.4-1.7,0.1-2.1-0.6s-0.1-1.7,0.6-2.1c1.2-0.6,2.5-1.3,3.7-1.9
		C3341.8,6,3342.2,6,3342.6,6.1z M3335.1,10c0.4,0.1,0.8,0.4,1,0.8c0.4,0.8,0.1,1.8-0.6,2.1c-1.3,0.6-2.5,1.3-3.8,1.9
		c-0.8,0.4-1.8,0.1-2.1-0.7c-0.4-0.8-0.1-1.8,0.7-2.1c1.3-0.6,2.5-1.2,3.8-1.9C3334.4,10,3334.8,10,3335.1,10z M3327.5,13.7
		c0.5,0.1,0.8,0.4,1,0.9c0.4,0.8,0.1,1.8-0.7,2.1c-1.3,0.6-2.6,1.2-3.9,1.8c-0.8,0.3-1.7,0-2.1-0.7c-0.3-0.8,0-1.7,0.7-2.1
		c1.3-0.6,2.6-1.2,3.8-1.8C3326.8,13.7,3327.2,13.6,3327.5,13.7z M3319.9,17.3c0.5,0.1,0.8,0.4,1,0.9c0.4,0.8,0.1,1.8-0.7,2.1
		c-1.3,0.6-2.5,1.2-3.7,1.8c-0.8,0.4-1.8,0.1-2.1-0.6c-0.4-0.8-0.1-1.8,0.6-2.1c1.2-0.6,2.5-1.3,3.8-1.9
		C3319.2,17.2,3319.5,17.2,3319.9,17.3z M3312.4,21.1c0.4,0.1,0.7,0.4,0.9,0.8c0.4,0.7,0.2,1.7-0.6,2.1c-1.2,0.7-2.4,1.3-3.6,2.1
		c-0.7,0.4-1.7,0.2-2.1-0.6c-0.4-0.7-0.2-1.7,0.6-2.1c1.2-0.7,2.4-1.4,3.7-2.2C3311.6,21,3312,21,3312.4,21.1z M3305.2,25.5
		c0.4,0.1,0.7,0.3,1,0.7c0.4,0.7,0.3,1.7-0.5,2.2c-1.1,0.7-2.4,1.6-3.5,2.3c-0.8,0.5-1.7,0.3-2.2-0.4c-0.5-0.8-0.3-1.7,0.4-2.2
		c1.1-0.8,2.4-1.7,3.5-2.4C3304.3,25.4,3304.8,25.4,3305.2,25.5z M3298.3,30.3c0.3,0.1,0.7,0.3,0.9,0.5c0.6,0.7,0.4,1.7-0.3,2.2
		c-1.1,0.8-2.2,1.7-3.2,2.6c-0.7,0.6-1.7,0.5-2.2-0.3c-0.6-0.7-0.5-1.7,0.3-2.2c1-0.9,2.2-1.8,3.4-2.6
		C3297.3,30.3,3297.9,30.2,3298.3,30.3z M3291.8,35.6c0.3,0.1,0.6,0.2,0.8,0.5c0.6,0.7,0.5,1.7-0.2,2.2c-1,0.9-2,1.9-3.1,2.8
		c-0.7,0.6-1.6,0.6-2.3-0.1c-0.6-0.7-0.6-1.6,0.1-2.3c1.1-1,2.1-1.9,3.1-2.9C3290.8,35.7,3291.3,35.5,3291.8,35.6z M3285.6,41.5
		c0.3,0.1,0.5,0.2,0.7,0.4c0.7,0.6,0.6,1.6,0,2.3c-1,1-2,2-2.8,3c-0.6,0.7-1.6,0.7-2.2,0.2c-0.7-0.6-0.7-1.6-0.2-2.2
		c1-1.1,2-2.1,3-3.1C3284.5,41.5,3285.1,41.3,3285.6,41.5z M3279.9,47.6c0.2,0,0.5,0.2,0.6,0.4c0.7,0.6,0.7,1.5,0.2,2.2
		c-0.9,1-1.8,2.1-2.6,3.3c-0.6,0.7-1.6,0.8-2.2,0.2c-0.7-0.6-0.8-1.6-0.2-2.2c0.9-1.1,1.8-2.2,2.7-3.3
		C3278.8,47.7,3279.3,47.5,3279.9,47.6z M3274.7,54.3c0.2,0,0.4,0.1,0.6,0.2c0.7,0.5,0.9,1.5,0.3,2.3c-0.8,1.1-1.6,2.3-2.4,3.4
		c-0.5,0.7-1.5,1-2.2,0.5c-0.7-0.5-1-1.5-0.5-2.2c0.8-1.1,1.6-2.4,2.5-3.5C3273.4,54.3,3274.1,54.1,3274.7,54.3z M3270,61.2
		c0.2,0,0.3,0.1,0.5,0.2c0.7,0.5,1,1.5,0.5,2.2c-0.7,1.2-1.4,2.4-2.2,3.6c-0.4,0.7-1.4,1-2.2,0.6c-0.7-0.4-1-1.4-0.6-2.2
		c0.7-1.3,1.4-2.4,2.2-3.7C3268.6,61.4,3269.3,61,3270,61.2z M3265.7,68.6c0.1,0,0.2,0,0.4,0.1c0.7,0.4,1.1,1.4,0.7,2.1
		c-0.6,1.2-1.3,2.5-1.9,3.7c-0.4,0.8-1.3,1.1-2.1,0.7s-1.1-1.3-0.7-2.1c0.6-1.3,1.3-2.6,1.9-3.8
		C3264.3,68.6,3265.1,68.4,3265.7,68.6z M3262,76.1c0.1,0,0.2,0,0.3,0.1c0.8,0.3,1.1,1.3,0.8,2.1c-0.5,1.3-1.2,2.5-1.6,3.8
		c-0.3,0.8-1.2,1.2-2.1,0.8c-0.8-0.3-1.2-1.2-0.8-2.1c0.5-1.3,1.1-2.6,1.7-3.9C3260.4,76.3,3261.3,75.9,3262,76.1z M3258.8,83.9
		c0.1,0,0.1,0,0.2,0c0.8,0.3,1.2,1.2,0.9,2c-0.4,1.3-1,2.6-1.4,4c-0.3,0.8-1.1,1.3-2,1c-0.8-0.3-1.3-1.1-1-2
		c0.4-1.3,0.9-2.8,1.5-4.1C3257.2,84.1,3258,83.7,3258.8,83.9z M3256,91.9C3256.1,91.9,3256.1,91.9,3256,91.9c0.9,0.2,1.3,1.2,1.1,2
		c-0.4,1.3-0.8,2.7-1.1,4c-0.2,0.9-1.1,1.4-1.9,1.1c-0.9-0.2-1.4-1.1-1.1-1.9c0.4-1.4,0.8-2.8,1.2-4.1
		C3254.4,92.1,3255.2,91.7,3256,91.9z M3253.8,100c0.9,0.2,1.4,1.1,1.1,1.9c-0.4,1.4-0.6,2.7-1,4.1c-0.2,0.9-1,1.4-1.9,1.2
		c-0.9-0.2-1.4-1-1.2-1.9c0.3-1.4,0.6-2.8,1-4.2C3252.1,100.4,3252.9,99.8,3253.8,100L3253.8,100z M3252,108.3
		c0.8,0.2,1.3,1,1.2,1.9c-0.3,1.4-0.5,2.8-0.8,4.1c-0.1,0.9-1,1.4-1.8,1.3c-0.9-0.1-1.4-1-1.3-1.8c0.3-1.4,0.5-2.8,0.8-4.1
		C3250.2,108.8,3251.1,108.3,3252,108.3C3252,108.3,3252,108.3,3252,108.3z M3250.6,116.6c0.8,0.2,1.3,1,1.2,1.8
		c-0.2,1.4-0.3,2.8-0.4,4.1c-0.1,0.9-0.9,1.5-1.7,1.4c-0.9-0.1-1.5-0.9-1.4-1.7c0.2-1.4,0.3-2.8,0.5-4.2
		C3248.9,117.1,3249.7,116.5,3250.6,116.6L3250.6,116.6z M3249.8,125c0.8,0.2,1.2,0.8,1.2,1.7c-0.2,1.4-0.2,2.7-0.3,4.2
		c0,0.9-0.8,1.5-1.6,1.5c-0.9,0-1.5-0.8-1.5-1.6c0.1-1.4,0.2-2.8,0.3-4.3c0.1-0.9,0.8-1.5,1.7-1.4
		C3249.6,124.9,3249.7,125,3249.8,125z M3249.3,133.4c0.7,0.2,1.2,0.8,1.2,1.5c-0.1,1.4-0.1,2.8-0.1,4.2c0,0.8-0.7,1.6-1.6,1.5
		c-0.8,0-1.6-0.7-1.5-1.6c0.1-1.4,0-2.9,0.1-4.2c0-0.9,0.7-1.6,1.6-1.5C3249.1,133.4,3249.2,133.4,3249.3,133.4z M3249.2,141.9
		c0.7,0.2,1.1,0.8,1.2,1.5c0.1,1.4,0,2.8,0.1,4.1c0,0.8-0.6,1.6-1.6,1.7c-0.8,0-1.6-0.6-1.7-1.6c0-1.5-0.1-2.8-0.1-4.3
		c0-0.8,0.7-1.6,1.5-1.6C3248.9,141.8,3249.1,141.8,3249.2,141.9z M3249.5,150.3c0.7,0.2,1.2,0.7,1.2,1.4c0.1,1.4,0.2,2.8,0.3,4.2
		c0.1,0.8-0.6,1.6-1.5,1.7c-0.8,0.1-1.6-0.6-1.7-1.5c-0.2-1.4-0.2-2.8-0.2-4.3c-0.1-0.8,0.6-1.6,1.5-1.7
		C3249.2,150.2,3249.3,150.2,3249.5,150.3z M3250.2,158.7c0.6,0.1,1.1,0.7,1.2,1.3c0.2,1.4,0.3,2.8,0.5,4.2c0.1,0.8-0.5,1.6-1.4,1.7
		s-1.6-0.5-1.8-1.4c-0.2-1.4-0.3-2.9-0.5-4.2c-0.1-0.8,0.5-1.6,1.4-1.7C3249.8,158.6,3250,158.7,3250.2,158.7z M3251.1,167.1
		c0.6,0.1,1.1,0.7,1.2,1.3c0.2,1.4,0.4,2.8,0.7,4.2c0.2,0.9-0.4,1.6-1.3,1.8c-0.9,0.2-1.6-0.4-1.8-1.3c-0.3-1.4-0.4-2.8-0.7-4.2
		c-0.1-0.8,0.4-1.6,1.4-1.8C3250.7,167,3250.9,167.1,3251.1,167.1z M3252.6,175.5c0.6,0.2,1.1,0.6,1.1,1.2c0.3,1.4,0.5,2.7,0.8,4.1
		c0.2,0.9-0.3,1.7-1.2,1.9c-0.9,0.2-1.7-0.3-1.9-1.2c-0.3-1.4-0.5-2.8-0.8-4.1c-0.2-0.9,0.4-1.6,1.3-1.8
		C3252.1,175.4,3252.3,175.4,3252.6,175.5z M3605.9,273.4c0.3,0.1,0.6,0.2,0.7,0.4c0.7,0.6,0.6,1.6,0,2.3c0,0.1-1.1,1.2-3.2,2.9
		c-0.7,0.6-1.7,0.5-2.2-0.2c-0.6-0.7-0.5-1.7,0.2-2.2c2-1.8,3.1-2.8,3.1-2.8C3604.8,273.3,3605.3,273.3,3605.9,273.4z M3254.3,183.8
		c0.6,0.2,1,0.6,1.1,1.2c0.3,1.3,0.6,2.7,1,4.1c0.2,0.9-0.3,1.7-1.1,1.9c-0.9,0.2-1.7-0.3-1.9-1.1c-0.4-1.3-0.6-2.7-1-4.2
		c-0.2-0.9,0.3-1.7,1.2-1.9C3253.8,183.6,3254,183.7,3254.3,183.8z M3599.5,279c0.3,0.1,0.7,0.3,0.8,0.5c0.6,0.7,0.5,1.7-0.3,2.2
		c-1,0.9-2.2,1.8-3.4,2.6c-0.7,0.6-1.7,0.4-2.2-0.3c-0.6-0.7-0.4-1.7,0.3-2.2c1.1-0.8,2.2-1.7,3.2-2.6
		C3598.5,278.9,3599,278.9,3599.5,279z M3256.3,191.9c0.6,0.2,1,0.6,1.2,1.1c0.4,1.3,0.8,2.7,1.1,4c0.2,0.9-0.2,1.7-1.1,2
		c-0.9,0.2-1.7-0.2-2-1.1c-0.4-1.3-0.8-2.7-1.1-4.1c-0.2-0.9,0.2-1.7,1.1-2C3255.8,191.9,3256,191.8,3256.3,191.9z M3592.8,284.1
		c0.4,0.1,0.7,0.3,0.9,0.6c0.5,0.8,0.4,1.7-0.4,2.2c-1.1,0.8-2.3,1.7-3.4,2.5c-0.8,0.5-1.7,0.3-2.2-0.4c-0.5-0.8-0.3-1.7,0.4-2.2
		c1.1-0.8,2.3-1.7,3.4-2.4C3591.9,284.1,3592.4,284,3592.8,284.1z M3258.6,200.1c0.5,0.1,0.9,0.5,1.1,1c0.4,1.3,0.9,2.7,1.3,3.9
		c0.3,0.8-0.1,1.7-1,2c-0.8,0.3-1.7-0.1-2-1c-0.5-1.4-0.9-2.7-1.3-4.1c-0.3-0.8,0.2-1.7,1-2C3258.1,199.9,3258.3,200,3258.6,200.1z
		 M3585.9,289c0.4,0.1,0.7,0.3,1,0.7c0.5,0.8,0.3,1.7-0.5,2.2c-1.1,0.8-2.4,1.6-3.6,2.3c-0.7,0.4-1.7,0.3-2.2-0.5
		c-0.4-0.7-0.3-1.7,0.5-2.2c1.1-0.7,2.4-1.6,3.5-2.3C3585,288.9,3585.5,288.9,3585.9,289z M3261.3,208c0.5,0.1,0.9,0.4,1.1,1
		c0.5,1.4,1,2.6,1.5,3.9c0.3,0.8-0.1,1.7-0.9,2c-0.8,0.3-1.7-0.1-2-0.9c-0.5-1.4-1-2.6-1.4-4c-0.3-0.8,0.1-1.7,0.9-2
		C3260.6,207.9,3261.1,207.9,3261.3,208z M3578.8,293.5c0.4,0.1,0.7,0.3,1,0.7c0.4,0.7,0.2,1.7-0.6,2.1c-1.2,0.7-2.4,1.4-3.7,2.2
		c-0.7,0.4-1.7,0.2-2.1-0.6c-0.4-0.7-0.2-1.7,0.6-2.1c1.2-0.7,2.4-1.4,3.6-2.2C3577.9,293.5,3578.4,293.4,3578.8,293.5z
		 M3264.3,215.9c0.5,0.1,0.9,0.4,1.1,0.9c0.5,1.3,1.1,2.6,1.6,3.8c0.3,0.8,0,1.7-0.8,2.1c-0.8,0.3-1.7,0-2.1-0.8
		c-0.6-1.3-1.1-2.7-1.6-3.9c-0.3-0.8,0-1.7,0.8-2.1C3263.7,215.8,3264,215.8,3264.3,215.9z M3571.4,297.8c0.4,0.1,0.7,0.4,0.9,0.8
		c0.4,0.7,0.2,1.7-0.6,2.1c-1.2,0.7-2.4,1.3-3.7,2c-0.7,0.4-1.7,0.1-2.1-0.6s-0.1-1.7,0.6-2.1c1.2-0.7,2.5-1.3,3.7-2
		C3570.7,297.7,3571.2,297.7,3571.4,297.8z M3267.5,223.6c0.5,0.1,0.8,0.4,1,0.9c0.6,1.3,1.1,2.6,1.7,3.7c0.4,0.8,0.1,1.8-0.7,2.1
		c-0.8,0.4-1.8,0.1-2.1-0.7c-0.6-1.3-1.2-2.6-1.8-3.9c-0.3-0.8,0-1.7,0.8-2.1C3266.8,223.6,3267.2,223.6,3267.5,223.6z M3564,301.7
		c0.4,0.1,0.8,0.4,1,0.8c0.4,0.8,0.1,1.8-0.6,2.1c-1.2,0.6-2.5,1.3-3.8,1.9c-0.8,0.4-1.8,0.1-2.1-0.7c-0.4-0.8-0.1-1.8,0.7-2.1
		c1.3-0.6,2.5-1.2,3.8-1.8C3563.3,301.7,3563.7,301.7,3564,301.7z M3271.1,231.3c0.4,0.1,0.8,0.4,1,0.8c0.6,1.2,1.2,2.5,1.9,3.7
		c0.4,0.7,0.1,1.7-0.6,2.1s-1.7,0.1-2.1-0.6c-0.6-1.2-1.3-2.5-1.9-3.8c-0.4-0.8-0.1-1.8,0.7-2.1
		C3270.4,231.2,3270.7,231.2,3271.1,231.3z M3556.4,305.5c0.5,0.1,0.8,0.4,1,0.9c0.4,0.8,0.1,1.8-0.7,2.1c-1.3,0.6-2.6,1.2-3.9,1.8
		c-0.8,0.3-1.7,0-2.1-0.8c-0.3-0.8,0-1.7,0.8-2.1c1.3-0.6,2.6-1.2,3.8-1.7C3555.7,305.4,3556.2,305.4,3556.4,305.5z M3548.8,308.9
		c0.5,0.1,0.8,0.4,1.1,0.9c0.3,0.8,0,1.7-0.8,2.1c-1.3,0.5-2.6,1.1-3.9,1.6c-0.8,0.3-1.7,0-2.1-0.8c-0.3-0.8,0-1.7,0.8-2.1
		c1.3-0.5,2.7-1.1,3.9-1.6C3548,308.8,3548.5,308.8,3548.8,308.9z M3275,238.7c0.4,0.1,0.7,0.4,1,0.8c0.7,1.2,1.3,2.4,2.1,3.6
		c0.4,0.7,0.2,1.7-0.6,2.1c-0.7,0.4-1.7,0.2-2.1-0.6c-0.7-1.2-1.4-2.4-2-3.7c-0.4-0.7-0.2-1.7,0.6-2.1
		C3274.3,238.7,3274.7,238.6,3275,238.7z M3540.9,312c0.5,0.1,0.9,0.4,1.1,1c0.3,0.8-0.1,1.7-0.9,2c-1.3,0.5-2.6,1-4,1.4
		c-0.8,0.3-1.7-0.1-2-0.9c-0.3-0.8,0.1-1.7,0.9-2c1.4-0.5,2.6-1,3.9-1.5C3540.3,311.9,3540.6,311.9,3540.9,312z M3279.3,246.1
		c0.4,0.1,0.7,0.3,1,0.7c0.7,1.2,1.5,2.3,2.2,3.6c0.4,0.7,0.3,1.7-0.5,2.2c-0.7,0.4-1.7,0.3-2.2-0.5c-0.7-1.2-1.5-2.5-2.3-3.6
		c-0.4-0.7-0.2-1.7,0.6-2.1C3278.4,246,3278.8,246,3279.3,246.1z M3533,314.8c0.5,0.1,0.9,0.5,1.1,1c0.3,0.8-0.1,1.7-1,2
		c-1.4,0.5-2.7,0.9-4.1,1.3c-0.8,0.3-1.7-0.2-2-1s0.2-1.7,1-2c1.3-0.4,2.7-0.9,4-1.4C3532.4,314.7,3532.7,314.7,3533,314.8z
		 M3283.8,253.1c0.4,0.1,0.7,0.3,1,0.7c0.7,1.1,1.6,2.4,2.4,3.4c0.5,0.8,0.3,1.7-0.4,2.2c-0.8,0.5-1.7,0.3-2.2-0.4
		c-0.8-1.1-1.6-2.3-2.4-3.5c-0.5-0.8-0.3-1.7,0.5-2.2C3282.9,253.1,3283.4,253,3283.8,253.1z M3525,317.4c0.5,0.1,1,0.6,1.2,1.1
		c0.3,0.8-0.2,1.7-1,2c-1.3,0.4-2.7,0.8-4.1,1.2c-0.9,0.2-1.7-0.2-2-1.1c-0.2-0.9,0.2-1.7,1.1-2c1.3-0.4,2.7-0.8,4-1.1
		C3524.4,317.3,3524.7,317.3,3525,317.4z M3288.7,260.1c0.3,0.1,0.7,0.3,0.9,0.6c0.8,1.1,1.7,2.2,2.5,3.3c0.6,0.7,0.4,1.7-0.3,2.2
		s-1.7,0.4-2.2-0.3c-0.8-1.1-1.7-2.3-2.5-3.3c-0.6-0.7-0.4-1.7,0.4-2.2C3287.7,260,3288.2,260,3288.7,260.1z M3516.8,319.6
		c0.6,0.1,1,0.6,1.2,1.1c0.2,0.9-0.3,1.7-1.1,2c-1.3,0.4-2.8,0.7-4.1,1c-0.9,0.2-1.7-0.3-1.9-1.2c-0.2-0.9,0.3-1.7,1.2-1.9
		c1.3-0.4,2.7-0.6,4.1-1C3516.2,319.6,3516.6,319.5,3516.8,319.6z M3508.6,321.6c0.6,0.1,1,0.6,1.1,1.2c0.2,0.9-0.3,1.7-1.2,1.9
		c-1.4,0.3-2.7,0.6-4.2,0.9c-0.9,0.2-1.7-0.3-1.9-1.2c-0.2-0.9,0.3-1.7,1.2-1.9c1.4-0.3,2.7-0.5,4.1-0.9
		C3508.1,321.6,3508.4,321.6,3508.6,321.6z M3293.8,266.7c0.3,0.1,0.7,0.3,0.8,0.5c0.9,1,1.8,2.1,2.7,3.2c0.6,0.7,0.5,1.7-0.2,2.2
		c-0.7,0.6-1.7,0.5-2.2-0.2c-1-1.1-1.8-2.1-2.8-3.3c-0.6-0.7-0.5-1.7,0.3-2.2C3292.9,266.7,3293.3,266.5,3293.8,266.7z
		 M3500.3,323.3c0.6,0.2,1.1,0.6,1.1,1.2c0.2,0.9-0.4,1.6-1.3,1.8c-1.4,0.3-2.8,0.5-4.2,0.8c-0.9,0.2-1.6-0.4-1.8-1.3
		c-0.2-0.9,0.4-1.6,1.3-1.8c1.4-0.3,2.8-0.5,4.1-0.7C3499.9,323.3,3500.1,323.3,3500.3,323.3z M3299.4,273.1
		c0.3,0.1,0.6,0.2,0.8,0.5c1,1.1,1.9,2.1,2.8,3c0.6,0.7,0.6,1.6-0.1,2.3c-0.7,0.6-1.6,0.6-2.3-0.1c-1-1-1.9-2.1-2.9-3.1
		c-0.6-0.7-0.5-1.7,0.1-2.3C3298.2,273.1,3298.9,272.9,3299.4,273.1z M3492,324.7c0.6,0.2,1.1,0.7,1.2,1.3c0.1,0.8-0.4,1.6-1.3,1.8
		c-1.4,0.3-2.8,0.4-4.2,0.6c-0.8,0.1-1.6-0.5-1.8-1.4c-0.1-0.8,0.5-1.6,1.4-1.8c1.4-0.2,2.8-0.4,4.2-0.6
		C3491.6,324.7,3491.8,324.6,3492,324.7z M3305.1,279.2c0.3,0.1,0.5,0.2,0.7,0.4c1,1,2,2,3,2.8c0.7,0.6,0.7,1.6,0.1,2.2
		c-0.6,0.7-1.6,0.7-2.2,0.1c-1-1-2.1-2-3.1-3c-0.7-0.6-0.6-1.6,0-2.3C3304.1,279.2,3304.6,279.1,3305.1,279.2z M3483.6,325.8
		c0.6,0.1,1.1,0.7,1.2,1.3c0.1,0.8-0.5,1.6-1.4,1.7c-1.4,0.2-2.8,0.3-4.2,0.5c-0.8,0.1-1.6-0.5-1.7-1.4c-0.1-0.8,0.5-1.6,1.4-1.7
		c1.4-0.2,2.8-0.3,4.2-0.5C3483.3,325.7,3483.5,325.8,3483.6,325.8z M3475.3,326.6c0.7,0.2,1.2,0.7,1.2,1.4c0.1,0.8-0.6,1.6-1.5,1.7
		c-1.4,0.2-2.8,0.2-4.2,0.4c-0.8,0.1-1.6-0.6-1.7-1.5c-0.1-0.8,0.6-1.6,1.5-1.7c1.4-0.1,2.8-0.2,4.2-0.3
		C3475,326.6,3475.1,326.6,3475.3,326.6z M3311.4,285c0.2,0,0.5,0.2,0.6,0.4c1,0.9,2.1,1.8,3.2,2.7c0.7,0.6,0.7,1.5,0.2,2.2
		c-0.6,0.7-1.5,0.7-2.2,0.2c-1.1-0.9-2.2-1.8-3.2-2.8c-0.7-0.6-0.7-1.5-0.2-2.2C3310.2,284.9,3310.8,284.8,3311.4,285z
		 M3466.9,327.2c0.7,0.2,1.2,0.7,1.2,1.4c0.1,0.8-0.6,1.6-1.5,1.7c-1.4,0.1-2.8,0.1-4.3,0.1c-0.8,0-1.6-0.6-1.7-1.6
		c0-0.8,0.6-1.6,1.6-1.7c1.4-0.1,2.8-0.1,4.2-0.2C3466.6,327.2,3466.7,327.1,3466.9,327.2z M3317.9,290.2c0.2,0,0.4,0.1,0.6,0.2
		c1.1,0.8,2.2,1.7,3.4,2.5c0.7,0.5,0.9,1.5,0.4,2.2c-0.5,0.7-1.5,0.9-2.2,0.4c-1.1-0.8-2.2-1.7-3.5-2.5c-0.7-0.5-0.8-1.6-0.2-2.2
		C3316.6,290.3,3317.3,290.1,3317.9,290.2z M3458.4,327.5c0.7,0.2,1.1,0.8,1.2,1.5c0,0.8-0.7,1.6-1.5,1.6c-1.5,0-2.8,0-4.2,0
		c-0.8,0-1.6-0.7-1.6-1.5c0-0.8,0.7-1.6,1.5-1.6c1.4,0.1,2.8,0,4.2,0C3458.1,327.4,3458.3,327.4,3458.4,327.5z M3450,327.4
		c0.7,0.2,1.2,0.8,1.2,1.5c0,0.8-0.7,1.6-1.6,1.5c-1.4-0.1-2.8-0.1-4.2-0.1c-0.9,0-1.6-0.7-1.5-1.6c0-0.9,0.7-1.6,1.6-1.5
		c1.4,0.1,2.8,0.1,4.2,0.2C3449.8,327.4,3449.9,327.4,3450,327.4z M3324.7,295.2c0.2,0,0.3,0.1,0.5,0.2c1.1,0.8,2.3,1.5,3.5,2.3
		c0.7,0.5,1,1.4,0.5,2.2c-0.5,0.7-1.4,1-2.2,0.5c-1.2-0.7-2.4-1.5-3.6-2.3c-0.7-0.5-1-1.5-0.5-2.2
		C3323.4,295.3,3324.1,295,3324.7,295.2z M3441.6,327.1c0.7,0.2,1.2,0.8,1.1,1.6c0,0.9-0.8,1.5-1.6,1.5c-1.4-0.1-2.9-0.1-4.3-0.3
		c-0.9,0-1.5-0.8-1.4-1.7c0-0.9,0.8-1.5,1.7-1.4c1.4,0.1,2.8,0.2,4.2,0.3C3441.4,327.2,3441.5,327.1,3441.6,327.1z M3331.9,299.6
		c0.1,0,0.3,0.1,0.4,0.2c1.2,0.7,2.4,1.4,3.6,2c0.8,0.4,1.1,1.3,0.7,2.1s-1.3,1.1-2.1,0.7c-1.3-0.6-2.5-1.4-3.7-2
		c-0.7-0.4-1-1.4-0.6-2.1C3330.5,299.7,3331.2,299.5,3331.9,299.6z M3433.1,326.6c0.8,0.2,1.2,0.8,1.2,1.7c0,0.9-0.8,1.5-1.7,1.4
		c-1.4-0.2-2.8-0.2-4.2-0.4c-0.9-0.1-1.5-0.9-1.4-1.7c0.1-0.9,0.9-1.5,1.7-1.4c1.4,0.2,2.8,0.2,4.1,0.3
		C3432.9,326.6,3433,326.6,3433.1,326.6z M3339.5,303.5c0.1,0,0.2,0,0.3,0.1c1.3,0.6,2.5,1.2,3.8,1.7c0.8,0.3,1.2,1.2,0.8,2.1
		c-0.3,0.8-1.2,1.2-2.1,0.8c-1.3-0.5-2.6-1.1-3.9-1.7c-0.8-0.4-1.1-1.3-0.8-2.1C3337.9,303.7,3338.7,303.3,3339.5,303.5z
		 M3424.8,325.8c0.8,0.2,1.3,1,1.2,1.8c-0.1,0.9-0.9,1.5-1.7,1.4c-1.4-0.2-2.8-0.3-4.2-0.5c-0.9-0.1-1.5-0.9-1.4-1.8
		c0.1-0.9,0.9-1.5,1.8-1.4C3421.9,325.5,3423.3,325.6,3424.8,325.8C3424.6,325.8,3424.7,325.8,3424.8,325.8z M3347.2,306.7
		c0.1,0,0.1,0,0.2,0c1.3,0.5,2.6,1,4,1.4c0.8,0.3,1.2,1.2,0.9,2c-0.3,0.8-1.2,1.2-2,0.9c-1.3-0.4-2.6-1-4-1.4
		c-0.8-0.3-1.2-1.2-0.9-2C3345.6,306.9,3346.4,306.5,3347.2,306.7z M3416.4,324.8c0.8,0.2,1.3,1,1.2,1.8c-0.1,0.9-0.9,1.5-1.8,1.3
		c-1.4-0.2-2.8-0.4-4.2-0.7c-0.9-0.1-1.4-0.9-1.3-1.8c0.1-0.9,0.9-1.4,1.8-1.3C3413.5,324.3,3414.9,324.5,3416.4,324.8
		C3416.3,324.7,3416.4,324.8,3416.4,324.8z M3355.1,309.7L3355.1,309.7c1.4,0.5,2.8,0.9,4.1,1.4c0.8,0.3,1.3,1.1,1,2
		c-0.3,0.8-1.1,1.3-2,1c-1.3-0.4-2.7-0.9-4-1.3c-0.8-0.3-1.3-1.1-0.9-2C3353.5,309.9,3354.3,309.5,3355.1,309.7z M3408,323.4
		c0.8,0.2,1.3,1,1.2,1.8c-0.1,0.9-1,1.4-1.8,1.3c-1.4-0.3-2.8-0.5-4.1-0.8c-0.9-0.1-1.4-1-1.3-1.9c0.1-0.9,1-1.4,1.9-1.3
		C3405.3,322.8,3406.7,323.1,3408,323.4C3408,323.5,3408,323.4,3408,323.4z M3363.1,312.3C3363.1,312.3,3363.2,312.4,3363.1,312.3
		c1.4,0.5,2.8,0.9,4.1,1.3c0.9,0.2,1.3,1.1,1,2c-0.2,0.9-1.1,1.3-2,1c-1.3-0.4-2.7-0.8-4-1.2c-0.8-0.3-1.3-1.1-1-2
		C3361.5,312.6,3362.3,312.1,3363.1,312.3z M3399.8,321.9c0.8,0.2,1.3,1.1,1.2,1.9c-0.2,0.9-1,1.4-1.9,1.3c-1.4-0.3-2.7-0.6-4.1-0.9
		c-0.9-0.2-1.4-1-1.2-1.9c0.2-0.9,1-1.4,1.9-1.2C3397,321.4,3398.4,321.7,3399.8,321.9L3399.8,321.9z M3371.1,314.8
		C3371.1,314.8,3371.2,314.9,3371.1,314.8c1.4,0.5,2.8,0.8,4.1,1.2c0.9,0.2,1.4,1.1,1.1,1.9c-0.2,0.9-1.1,1.4-1.9,1.1
		c-1.4-0.4-2.7-0.8-4-1.1c-0.9-0.2-1.3-1.2-1.1-1.9C3369.5,315.1,3370.3,314.6,3371.1,314.8z M3391.5,320.2c0.9,0.2,1.4,1.1,1.2,1.9
		c-0.2,0.9-1.1,1.4-1.9,1.2c-1.4-0.4-2.7-0.6-4.1-1l0,0c-0.9-0.2-1.4-1.1-1.1-1.9c0.2-0.9,1.1-1.4,1.9-1.1
		C3388.8,319.6,3390.2,319.9,3391.5,320.2L3391.5,320.2z M3379.3,317.2L3379.3,317.2c1.2,0.3,2.4,0.6,3.6,0.9l0.5,0.1l0,0
		c0.9,0.2,1.4,1.1,1.1,1.9c-0.2,0.9-1.1,1.4-1.9,1.1l-0.5-0.1c-1.2-0.3-2.4-0.6-3.6-0.9c-0.9-0.2-1.4-1.1-1.1-1.9
		C3377.6,317.4,3378.4,316.9,3379.3,317.2z"/>
</g>
<circle class="st0" cx="3268.7" cy="64.9" r="12.6"/>
<g>
	<path class="st11" d="M529.1,430.1c0,0-2.4-11.2-10.9-15.4s-23.3-40.2-25.4-44.5s2.1-10.6,6.4-4.2c4.2,6.4,6.4,14.8,8.5,14.8
		s-12.7-25.4-10.6-29.7s4.2-6.4,12.7,8.5c7.2,12.6,10.6,19.1,4.2,4.2c-6.4-14.8-12.7-21.2-8.5-25.4c4.2-4.2,8.5,2.1,12.7,10.6
		c4.2,8.5,15.4,30.6,10.9,18.5s-13-22.7-6.6-26.9c6.4-4.2,19.1,33.9,21.2,31.8s2.1-16.9,12.7-16.9c0,0,6.4,0,2.1,6.4
		c-4.2,6.4,0,29.7-6.4,44.5c-1.7,3.9,5.9,11.8,5.9,11.8L529.1,430.1z"/>
	<path class="st1" d="M801.1,816.8L801.1,816.8L801.1,816.8C801.1,816.9,801.1,816.9,801.1,816.8L801.1,816.8 M801.1,816.9
		C801.1,816.9,801.1,816.9,801.1,816.9"/>
	<g id="COU_14_">
		<path class="st12" d="M730.9,480.3l-3.5,48.9c0,0,20.5,17.6,49.4,0.8l-0.4-36.7C776.5,493.4,742,461,730.9,480.3z"/>
	</g>
	<line class="st1" x1="793.8" y1="784.6" x2="793.7" y2="784.6"/>
	<path class="st13" d="M858.3,700H646.4c2.9-53.1,12.5-111.9,38.5-147.5c9.3-12.8,20.8-22.7,34.7-28.1c0,0,0,0,0,0c0,0,0,0,0,0
		c0,0,0,0,0,0c0,0,0.1,0,0.1-0.1c2.2-0.8,4.4-1.6,6.7-2.2c0.1-0.1,0.1-0.1,0.1-0.1c0.5-0.1,0.9-0.2,1.3-0.3c4.5-0.5,5.2,3.9,15,5.6
		c0,0,0,0,0,0c2.5,0.4,5.5,0.7,9.3,0.7c7.7,0,12.7-0.5,15.9-1.2c6.4-1.4,6.5-3.4,8.6-3.4c0.8,0,1.9,0.2,3.8,1
		C835.2,544.7,853.2,627.7,858.3,700z"/>
	<path class="st11" d="M795.6,450.7c0,0-1.3-22.9-5.9-29.5c-17.2-24.7-74.1-29.1-79,22.2c0,0-0.9-4.7-1.5,4.2c0,0-9.1-7.2-9,5.2
		c0,11.3,1.6,16,10.6,24c0,0,14.9,33.2,50.6,31.4c13.6-0.7,24.2-14.5,29.1-27.7c0,0,0,0,0,0C795.7,465.9,795.6,450.7,795.6,450.7z"
		/>
	<path class="st11" d="M793.9,449.8c0,0,4.5-4.8,7.4-1c2.9,3.8,2.1,22-7.5,26.2C784.1,479,793.9,449.8,793.9,449.8z"/>
	<circle class="st12" cx="725.7" cy="466.9" r="8.4"/>
	<circle class="st12" cx="781" cy="466.9" r="8.4"/>
	<circle class="st14" cx="740" cy="453.9" r="1.6"/>
	<circle class="st14" cx="772" cy="453" r="1.6"/>
	<path class="st12" d="M752.2,467.9c0,0,6.8,2.4,9.8-2.8C761.9,465.1,759.7,473.9,752.2,467.9z"/>
	<path class="st15" d="M744.6,437.7c0,0-8.6-4.5-14.3,2.8"/>
	<path class="st15" d="M768.3,438.6c0,0,8.6-4.5,14.3,2.8"/>
	<path class="st13" d="M780.6,524.3"/>
	<path d="M747.9,791.6"/>
	<path class="st16" d="M733.3,459.7c0.7,0.7,2,1.7,3.8,2.5c2.8,1.1,5.3,0.7,6.4,0.5"/>
	<path class="st16" d="M767.4,462.5c1,0.3,2.5,0.7,4.5,0.6c3-0.2,5.1-1.7,6-2.3"/>
	<path class="st17" d="M747.8,484.1c0,0,0.8,4.1,6.6,4.8c5.8,0.7,7.6-6.5,2.5-4.7C751.8,485.9,747.6,480.2,747.8,484.1z"/>
	<path class="st18" d="M741.5,479.8c4.4-4.4,15.5-13.1,24.7,0.2c0.6,0.8,0.1,2.1-0.8,2.1l-23.2-0.1
		C741.2,482,740.8,480.5,741.5,479.8z"/>
	<path class="st11" d="M751.5,486.9c0,0,1.4-1.1,2.6-0.3c0,0,1.4-0.9,2.9,0.9C757,487.5,754.1,488.7,751.5,486.9z"/>
	<path class="st19" d="M773.5,681.3c-2.8,6.3-5.7,12.5-8.5,18.8h-2.4c-3.8-6.1-7.6-12.2-11.5-18.3c3.5-8,7-16,10.5-24
		C765.6,665.5,769.6,673.4,773.5,681.3z"/>
	<path class="st19" d="M738.9,625.3c1-2.2,1.9-4.4,2.9-6.6c4,7.9,7.9,15.7,11.9,23.6c-3.2,7-6.4,13.9-9.5,20.9
		c-2.7-4.4-5.4-8.7-8.2-13.1L738.9,625.3z"/>
	<path class="st19" d="M740.4,694.7c-0.8,1.8-1.6,3.5-2.4,5.3h-8.8l3-21.4c0,0,0,0,0,0C735,684,737.7,689.4,740.4,694.7z"/>
	<line class="st1" x1="793.8" y1="784.6" x2="793.7" y2="784.6"/>
	<line class="st1" x1="793.8" y1="784.6" x2="793.7" y2="784.6"/>
	<path class="st1" d="M801.1,816.8L801.1,816.8L801.1,816.8C801.1,816.9,801.1,816.9,801.1,816.8L801.1,816.8"/>
	<path class="st19" d="M774.7,646c-3.4-5.4-6.8-10.9-10.2-16.3c2.3-5.3,4.7-10.6,7-16L774.7,646z"/>
	<path class="st19" d="M752.6,568.8c-3.5,8-7,16-10.5,24c4.3,6.8,8.5,13.7,12.8,20.5c3.2-7,6.4-14,9.5-20.9
		C760.6,584.6,756.6,576.7,752.6,568.8z"/>
	<path class="st20" d="M848.5,700c-4.2-26.8-10-54.9-17.8-81.4"/>
	<path class="st12" d="M719,440.5c0,0,4.5-9.2,5.9-8.7c1.4,0.5,64.5,1.4,64.5,1.4s2.9,4.6,3,6.2c0.2,1.6,1.6-12.7,1.6-12.7
		l-73.5,1.1L719,440.5z"/>
	<path class="st18" d="M724,429.5c1.1,0.1,2.2,0.2,3.3,0.3L724,429.5z M724,429.5c1.1,0.1,2.2,0.2,3.3,0.3L724,429.5z M724,429.5
		c1.1,0.1,2.2,0.2,3.3,0.3L724,429.5z M792.9,412.3c-7.7-8.8-17.8-11.4-42.6-10.4c-40.4,1.7-43.4,24.1-41.5,45.3v0
		c0.8,8.4,2.3,16.6,2.5,23.2c-0.1,2.5-0.1,5.1,0.1,7.5c0.1,1.3,0.2,2.5,0.4,3.7c1.5,11,6.5,20.7,17.1,26.5c6.8,3.8,16,5.9,28.1,5.9
		c8.3,0,14.7-1.7,19.6-4.4c13.9-7.8,15.9-24,16.2-34.5c0-1.2,0.1-2.4,0.1-3.4c0,0,0,0,0,0c0-0.5,0-0.9,0-1.4c0-1,0.2-3.1,0.5-5.2
		c0.3-2.1,0.6-4.2,0.9-5.3c0.2-0.9,0.5-2,0.9-3.2v0c0,0,0,0,0,0c0.3-1.2,0.7-2.5,1-3.9c0.4-1.6,0.8-3.4,1.2-5.3
		c0.9-4.5,1.7-9.6,1.7-14.8C799.3,425.2,797.7,417.8,792.9,412.3z M790.8,460.8c-0.2,1.3-0.5,2.7-0.8,4.1c0,0,0,0,0,0
		c-0.2,0.7-0.4,1.4-0.6,2.1v0c-0.8,2.7-1.6,4.8-1.6,4.8c0,0,0,0,0,0.1v0c-0.6,1.6-1.2,3.3-1.8,5.1c-1.8,5.2-7.8,9.2-14.7,11.9
		c-6.5,2.6-13.8,4-19.1,4.2c-6,0.2-14.5-3.7-21.6-8.1c-3.7-2.3-7-4.8-9.3-6.9c-1.1-1-2-1.9-2.6-2.7c-4.5-5.7-3.1-20.4-3.1-20.7
		c1.2-6,2.4-10.6,3.5-14.1c0,0,0,0,0,0c2.7-8.6,5-11,5-11c1.1,0.1,2.2,0.2,3.3,0.3c14.9,1.1,36.5,1,47.8,0.8c2.8,0,9.4,0.2,13.2,0.3
		c1.6,0.1,2.7,0.1,2.7,0.1c0,0.1,0.1,0.2,0.1,0.4c0.4,1.6,1,4.6,1.4,8v0c0,0,0,0,0,0.1c0.3,2.3,0.4,4.8,0.4,7.1
		c-0.2,3-0.6,5.5-1,7.6c-0.4,2.4-0.8,4.5-1.1,6.6C790.9,460.7,790.9,460.8,790.8,460.8L790.8,460.8z M724,429.5
		c1.1,0.1,2.2,0.2,3.3,0.3L724,429.5z M724,429.5c1.1,0.1,2.2,0.2,3.3,0.3L724,429.5z"/>
	<polygon class="st12" points="727.3,429.7 723.8,423.7 724,429.5 	"/>
	<polygon class="st12" points="787.8,431.7 791,425.5 791.1,431.3 	"/>
	<g>
		<path class="st21" d="M747.8,537.1c0,0.1,0,0.1,0,0.2c-0.1,2.8-2,24.2-5.2,54.5v0c0,0.5-0.1,1-0.2,1.5c-1,9.8-2.2,20.6-3.5,31.9v0
			c-0.9,7.6-1.8,15.5-2.8,23.5c0,0.1,0,0.2,0,0.4c0,0.3-0.1,0.7-0.1,1c-1.2,9.3-2.4,18.9-3.7,28.5c-1,7.1-2,14.3-3,21.4h-93.1
			c6.8-47,14.8-79,14.8-79c-25.6-6.3-62.9-40.4-88.4-67.7c-0.2-0.2-0.4-0.4-0.6-0.6c-28.6-30.8-46.2-123.2-46.2-123.2
			c3.4-2.1,7.1-4,10.9-5.8c9.3-4.5,19.2-8.2,27.2-10.9c9.8-3.3,16.8-5.2,16.8-5.2c6.1,13.6,19.4,53.9,27.2,70.9
			c4.5,9.8,11.7,18,20.9,23.6c0.1,0.1,0.2,0.1,0.3,0.2c3.5,2.1,9.1,7.2,15.9,12.9c14.9,12.4,35.3,27.7,51.1,20.4
			c23-10.7,33.4-11,33.4-11c0,0,0.1,0,0.1-0.1c1.2-0.6,7.8-4.1,8.3-4.8c1.2-1.6,9.4,2.2,14.8,7.9
			C745.8,530.3,747.9,533.7,747.8,537.1z"/>
		<path class="st1" d="M801.1,816.8L801.1,816.8L801.1,816.8C801.1,816.9,801.1,816.9,801.1,816.8L801.1,816.8"/>
		<path class="st21" d="M896.8,700H780.9c-2.3-18.2-4.3-36.5-6.1-54v0c-1.2-11.1-2.2-22-3.2-32.2v0c-3.7-38.8-6-69.4-6.7-78.3
			c-0.1-1.6-0.2-2.5-0.2-2.6c-0.2-0.9,1.4-3.4,3.6-5.9c2.7-3.2,6.4-6.6,8.6-7.9c1.1-0.6,1.8-0.7,1.9,0.1c0.3,3.1,11.9,8,15.8,9.5
			c0.4,0.2,0.8,0.3,1.2,0.5c0,0,0,0,0,0c19.7,8.1,54.2,28.5,73.9,76.7C879.4,629.9,889.3,664.3,896.8,700z"/>
	</g>
	<path class="st22" d="M723.5,527.9c0,0,11.9,8.6,16,15"/>
	<path class="st22" d="M771,540.9c0,0,5.8-10.9,13.1-13"/>
</g>
<g>
	<path class="st2" d="M0.1,660.5V700H387c0,0,1-43.3-16.4-73.4c-14.6-25.3-40.2-37.9-47-41c-61.8-28.4-111.9,22.7-154.4-0.6
		c-43.9-24.1-15.4-92.5-60.8-120.1c-29.5-18-73-8.1-108.3,4.9v133V660.5z"/>
	<path class="st10" d="M0.1,501.5c0,0,86.3-40,106.8,27.3s22.8,90.7,78.9,94c56,3.4,136.9-41.7,177.1,66.6"/>
	<circle class="st10" cx="258.5" cy="606.2" r="49.2"/>
	<polyline class="st10" points="0.1,660.5 42.8,683.1 62.5,545.7 0.1,602.7 	"/>
</g>
<g>
	<path class="st2" d="M486.7,122.7c-16.9,0-30.5,13.7-30.5,30.6v123.5c0,16.9,13.7,30.6,30.5,30.6h124.2l61.3,41.5
		c5.7,3.9,13.2-1.4,11.5-8.1l-8.6-33.4h22.4c16.9,0,30.5-13.7,30.5-30.6v-9.2c-17,6-35.3,9.4-54.4,9.4c-87,0-158-68.3-162.2-154.2
		H486.7L486.7,122.7z M486.7,122.7"/>
	<rect x="456.2" y="122.5" class="st1" width="271.8" height="227.9"/>
	<g>
		<path class="st2" d="M486.7,307.4c-16.9,0-30.5-13.7-30.5-30.6V153.4c0-16.9,13.7-30.6,30.5-30.6h210.7
			c16.9,0,30.5,13.7,30.5,30.6v123.5c0,16.9-13.7,30.6-30.5,30.6H675l8.6,33.4c1.7,6.7-5.8,12-11.5,8.1l-61.3-41.5H486.7
			L486.7,307.4z M486.7,307.4"/>
		<path class="st10" d="M511.4,122.7c0,0,22.5,201.9,216.6,144.9"/>
	</g>
</g>
<path class="st9" d="M310.1,125.8c-37.9,55.3-108.7,17.9-150.7,71.4c-31.1,39.6-9.6,82.1-47,105.5C86.4,319,54,279,49,278
	c-24.7-4.9-42.1-22.7-49-29V0C97.8,0,195.6,0,293.4,0.1c0,0,15,7.3,25.3,25.2C325.8,37.7,335.9,88.2,310.1,125.8z"/>
<g>
	<path class="st23" d="M123.2,344.4c-40.9,16.3-67.7-23.6-71.7-37.8c0-0.1-0.1-0.2-0.1-0.4c-2.2-7.7-5.8-13-10-16.6
		c-9.3-8.1-19.5-1-35.6-10.4c-2.6-1.5-4.6-3-5.8-4C0,183.4,0,91.7,0,0c31.7,37.6,52.6,62.3,65.7,77.8c0.1,0.2,0.4,0.4,0.7,0.8
		C82.8,98,98,116,107.9,135.1c1.9,3.7,25,48.8,17.8,83c-0.7,3.4-3,11.2-0.5,20.6c2,7.4,6.4,15.9,15.4,25.1
		C168.4,292.3,164.1,328.1,123.2,344.4z"/>
	<path class="st24" d="M103.7,313c-14.3-23.2-29-50-42.6-80.4C38.8,183,25.2,136.9,16.6,98"/>
</g>
<g>
	<path class="st25" d="M0.1,0c7.4,24.9,27.7,82.9,72.7,119.9c11.2,9.2,35.4,29.1,60.5,24.7c11.4-2,22.1-8.5,22.1-8.5
		c15.4-9.2,21.9-21.4,21.9-21.4c3.1-7.6,4.8-14.4,5.5-20.4c0,0,0.8-8.1-0.5-16C178.9,57,153,37.1,150.7,35.3C125,16,70.4,1.3,0.1,0z
		"/>
	<path class="st24" d="M151.4,98c0,0-56.8-3.8-95.1-61"/>
</g>
</svg>
