<svg width="1440" height="800" viewBox="0 0 1440 800" fill="none" xmlns="http://www.w3.org/2000/svg">
<g clip-path="url(#clip0)">
<rect width="1440" height="800" fill="white"/>
<g clip-path="url(#clip1)">
<path d="M1244.73 31.5C1245.64 31.5 1246.43 31.65 1247.1 31.95C1247.78 32.25 1248.3 32.68 1248.66 33.24C1249.02 33.8 1249.2 34.465 1249.2 35.235C1249.2 35.995 1249.02 36.66 1248.66 37.23C1248.3 37.79 1247.78 38.22 1247.1 38.52C1246.43 38.82 1245.64 38.97 1244.73 38.97H1242.36V42H1240.41V31.5H1244.73ZM1244.64 37.32C1245.49 37.32 1246.14 37.14 1246.57 36.78C1247.02 36.42 1247.24 35.905 1247.24 35.235C1247.24 34.565 1247.02 34.05 1246.57 33.69C1246.14 33.33 1245.49 33.15 1244.64 33.15H1242.36V37.32H1244.64ZM1258.47 38.04C1258.47 38.17 1258.46 38.355 1258.44 38.595H1252.15C1252.26 39.185 1252.55 39.655 1253.01 40.005C1253.48 40.345 1254.06 40.515 1254.75 40.515C1255.63 40.515 1256.35 40.225 1256.92 39.645L1257.93 40.8C1257.57 41.23 1257.11 41.555 1256.56 41.775C1256.01 41.995 1255.39 42.105 1254.7 42.105C1253.82 42.105 1253.05 41.93 1252.38 41.58C1251.71 41.23 1251.19 40.745 1250.82 40.125C1250.46 39.495 1250.28 38.785 1250.28 37.995C1250.28 37.215 1250.45 36.515 1250.8 35.895C1251.16 35.265 1251.66 34.775 1252.29 34.425C1252.92 34.075 1253.63 33.9 1254.42 33.9C1255.2 33.9 1255.89 34.075 1256.5 34.425C1257.12 34.765 1257.6 35.25 1257.94 35.88C1258.29 36.5 1258.47 37.22 1258.47 38.04ZM1254.42 35.4C1253.82 35.4 1253.31 35.58 1252.89 35.94C1252.48 36.29 1252.23 36.76 1252.14 37.35H1256.68C1256.6 36.77 1256.36 36.3 1255.95 35.94C1255.54 35.58 1255.03 35.4 1254.42 35.4ZM1262.05 35.16C1262.59 34.32 1263.54 33.9 1264.9 33.9V35.685C1264.74 35.655 1264.6 35.64 1264.47 35.64C1263.74 35.64 1263.17 35.855 1262.76 36.285C1262.35 36.705 1262.14 37.315 1262.14 38.115V42H1260.27V33.99H1262.05V35.16ZM1269 42.105C1268.35 42.105 1267.71 42.02 1267.09 41.85C1266.47 41.68 1265.98 41.465 1265.61 41.205L1266.33 39.78C1266.69 40.02 1267.12 40.215 1267.62 40.365C1268.13 40.505 1268.63 40.575 1269.12 40.575C1270.24 40.575 1270.8 40.28 1270.8 39.69C1270.8 39.41 1270.65 39.215 1270.36 39.105C1270.08 38.995 1269.63 38.89 1269 38.79C1268.34 38.69 1267.8 38.575 1267.38 38.445C1266.97 38.315 1266.61 38.09 1266.3 37.77C1266 37.44 1265.85 36.985 1265.85 36.405C1265.85 35.645 1266.16 35.04 1266.79 34.59C1267.43 34.13 1268.29 33.9 1269.37 33.9C1269.92 33.9 1270.47 33.965 1271.02 34.095C1271.57 34.215 1272.02 34.38 1272.37 34.59L1271.65 36.015C1270.97 35.615 1270.21 35.415 1269.36 35.415C1268.81 35.415 1268.39 35.5 1268.1 35.67C1267.82 35.83 1267.68 36.045 1267.68 36.315C1267.68 36.615 1267.83 36.83 1268.13 36.96C1268.44 37.08 1268.91 37.195 1269.55 37.305C1270.19 37.405 1270.72 37.52 1271.13 37.65C1271.54 37.78 1271.89 38 1272.18 38.31C1272.48 38.62 1272.63 39.06 1272.63 39.63C1272.63 40.38 1272.3 40.98 1271.65 41.43C1271 41.88 1270.12 42.105 1269 42.105ZM1277.84 42.105C1277.03 42.105 1276.3 41.93 1275.65 41.58C1275 41.23 1274.49 40.745 1274.12 40.125C1273.76 39.495 1273.58 38.785 1273.58 37.995C1273.58 37.205 1273.76 36.5 1274.12 35.88C1274.49 35.26 1275 34.775 1275.65 34.425C1276.3 34.075 1277.03 33.9 1277.84 33.9C1278.66 33.9 1279.4 34.075 1280.05 34.425C1280.7 34.775 1281.2 35.26 1281.56 35.88C1281.93 36.5 1282.12 37.205 1282.12 37.995C1282.12 38.785 1281.93 39.495 1281.56 40.125C1281.2 40.745 1280.7 41.23 1280.05 41.58C1279.4 41.93 1278.66 42.105 1277.84 42.105ZM1277.84 40.5C1278.53 40.5 1279.1 40.27 1279.55 39.81C1280 39.35 1280.23 38.745 1280.23 37.995C1280.23 37.245 1280 36.64 1279.55 36.18C1279.1 35.72 1278.53 35.49 1277.84 35.49C1277.15 35.49 1276.58 35.72 1276.13 36.18C1275.69 36.64 1275.47 37.245 1275.47 37.995C1275.47 38.745 1275.69 39.35 1276.13 39.81C1276.58 40.27 1277.15 40.5 1277.84 40.5ZM1288.46 33.9C1289.47 33.9 1290.28 34.195 1290.89 34.785C1291.5 35.375 1291.8 36.25 1291.8 37.41V42H1289.93V37.65C1289.93 36.95 1289.76 36.425 1289.43 36.075C1289.1 35.715 1288.63 35.535 1288.02 35.535C1287.33 35.535 1286.79 35.745 1286.39 36.165C1285.99 36.575 1285.79 37.17 1285.79 37.95V42H1283.91V33.99H1285.7V35.025C1286.01 34.655 1286.4 34.375 1286.87 34.185C1287.34 33.995 1287.87 33.9 1288.46 33.9ZM1298.73 33.9C1299.74 33.9 1300.55 34.195 1301.16 34.785C1301.77 35.375 1302.07 36.25 1302.07 37.41V42H1300.2V37.65C1300.2 36.95 1300.03 36.425 1299.7 36.075C1299.37 35.715 1298.9 35.535 1298.29 35.535C1297.6 35.535 1297.06 35.745 1296.66 36.165C1296.26 36.575 1296.06 37.17 1296.06 37.95V42H1294.18V33.99H1295.97V35.025C1296.28 34.655 1296.67 34.375 1297.14 34.185C1297.61 33.995 1298.14 33.9 1298.73 33.9ZM1307.51 33.9C1308.69 33.9 1309.59 34.185 1310.21 34.755C1310.84 35.315 1311.15 36.165 1311.15 37.305V42H1309.38V41.025C1309.15 41.375 1308.82 41.645 1308.39 41.835C1307.97 42.015 1307.46 42.105 1306.86 42.105C1306.26 42.105 1305.74 42.005 1305.29 41.805C1304.84 41.595 1304.49 41.31 1304.24 40.95C1304 40.58 1303.88 40.165 1303.88 39.705C1303.88 38.985 1304.14 38.41 1304.67 37.98C1305.21 37.54 1306.06 37.32 1307.21 37.32H1309.28V37.2C1309.28 36.64 1309.11 36.21 1308.77 35.91C1308.44 35.61 1307.94 35.46 1307.28 35.46C1306.83 35.46 1306.39 35.53 1305.95 35.67C1305.52 35.81 1305.15 36.005 1304.85 36.255L1304.12 34.89C1304.54 34.57 1305.04 34.325 1305.63 34.155C1306.22 33.985 1306.85 33.9 1307.51 33.9ZM1307.25 40.74C1307.72 40.74 1308.14 40.635 1308.5 40.425C1308.87 40.205 1309.13 39.895 1309.28 39.495V38.565H1307.34C1306.26 38.565 1305.72 38.92 1305.72 39.63C1305.72 39.97 1305.86 40.24 1306.13 40.44C1306.4 40.64 1306.77 40.74 1307.25 40.74Z" fill="#A6CED7"/>
<path d="M1247.22 103.57H1241.97L1240.94 106H1238.92L1243.65 95.5H1245.57L1250.31 106H1248.27L1247.22 103.57ZM1246.57 102.04L1244.6 97.45L1242.63 102.04H1246.57ZM1259.24 94.87V106H1257.44V104.965C1257.13 105.345 1256.74 105.63 1256.28 105.82C1255.83 106.01 1255.33 106.105 1254.78 106.105C1254.01 106.105 1253.32 105.935 1252.7 105.595C1252.09 105.255 1251.61 104.775 1251.26 104.155C1250.91 103.525 1250.73 102.805 1250.73 101.995C1250.73 101.185 1250.91 100.47 1251.26 99.85C1251.61 99.23 1252.09 98.75 1252.7 98.41C1253.32 98.07 1254.01 97.9 1254.78 97.9C1255.31 97.9 1255.8 97.99 1256.24 98.17C1256.68 98.35 1257.05 98.62 1257.36 98.98V94.87H1259.24ZM1255.01 104.5C1255.46 104.5 1255.86 104.4 1256.22 104.2C1256.58 103.99 1256.87 103.695 1257.08 103.315C1257.29 102.935 1257.39 102.495 1257.39 101.995C1257.39 101.495 1257.29 101.055 1257.08 100.675C1256.87 100.295 1256.58 100.005 1256.22 99.805C1255.86 99.595 1255.46 99.49 1255.01 99.49C1254.56 99.49 1254.15 99.595 1253.79 99.805C1253.43 100.005 1253.15 100.295 1252.94 100.675C1252.73 101.055 1252.62 101.495 1252.62 101.995C1252.62 102.495 1252.73 102.935 1252.94 103.315C1253.15 103.695 1253.43 103.99 1253.79 104.2C1254.15 104.4 1254.56 104.5 1255.01 104.5ZM1263.47 99.16C1264.01 98.32 1264.96 97.9 1266.32 97.9V99.685C1266.16 99.655 1266.02 99.64 1265.89 99.64C1265.16 99.64 1264.59 99.855 1264.18 100.285C1263.77 100.705 1263.56 101.315 1263.56 102.115V106H1261.69V97.99H1263.47V99.16ZM1275.37 102.04C1275.37 102.17 1275.36 102.355 1275.34 102.595H1269.06C1269.17 103.185 1269.45 103.655 1269.91 104.005C1270.38 104.345 1270.96 104.515 1271.65 104.515C1272.53 104.515 1273.26 104.225 1273.83 103.645L1274.83 104.8C1274.47 105.23 1274.02 105.555 1273.47 105.775C1272.92 105.995 1272.3 106.105 1271.61 106.105C1270.73 106.105 1269.95 105.93 1269.28 105.58C1268.61 105.23 1268.09 104.745 1267.72 104.125C1267.36 103.495 1267.18 102.785 1267.18 101.995C1267.18 101.215 1267.36 100.515 1267.71 99.895C1268.07 99.265 1268.56 98.775 1269.19 98.425C1269.82 98.075 1270.53 97.9 1271.32 97.9C1272.1 97.9 1272.8 98.075 1273.41 98.425C1274.03 98.765 1274.51 99.25 1274.85 99.88C1275.2 100.5 1275.37 101.22 1275.37 102.04ZM1271.32 99.4C1270.72 99.4 1270.21 99.58 1269.79 99.94C1269.38 100.29 1269.13 100.76 1269.04 101.35H1273.59C1273.51 100.77 1273.26 100.3 1272.85 99.94C1272.44 99.58 1271.93 99.4 1271.32 99.4ZM1279.65 106.105C1279 106.105 1278.36 106.02 1277.74 105.85C1277.12 105.68 1276.63 105.465 1276.26 105.205L1276.98 103.78C1277.34 104.02 1277.77 104.215 1278.27 104.365C1278.78 104.505 1279.28 104.575 1279.77 104.575C1280.89 104.575 1281.45 104.28 1281.45 103.69C1281.45 103.41 1281.3 103.215 1281.01 103.105C1280.73 102.995 1280.28 102.89 1279.65 102.79C1278.99 102.69 1278.45 102.575 1278.03 102.445C1277.62 102.315 1277.26 102.09 1276.95 101.77C1276.65 101.44 1276.5 100.985 1276.5 100.405C1276.5 99.645 1276.81 99.04 1277.44 98.59C1278.08 98.13 1278.94 97.9 1280.02 97.9C1280.57 97.9 1281.12 97.965 1281.67 98.095C1282.22 98.215 1282.67 98.38 1283.02 98.59L1282.3 100.015C1281.62 99.615 1280.86 99.415 1280.01 99.415C1279.46 99.415 1279.04 99.5 1278.75 99.67C1278.47 99.83 1278.33 100.045 1278.33 100.315C1278.33 100.615 1278.48 100.83 1278.78 100.96C1279.09 101.08 1279.56 101.195 1280.2 101.305C1280.84 101.405 1281.37 101.52 1281.78 101.65C1282.19 101.78 1282.54 102 1282.83 102.31C1283.13 102.62 1283.28 103.06 1283.28 103.63C1283.28 104.38 1282.95 104.98 1282.3 105.43C1281.65 105.88 1280.77 106.105 1279.65 106.105ZM1287.37 106.105C1286.72 106.105 1286.08 106.02 1285.46 105.85C1284.84 105.68 1284.35 105.465 1283.98 105.205L1284.7 103.78C1285.06 104.02 1285.49 104.215 1285.99 104.365C1286.5 104.505 1287 104.575 1287.49 104.575C1288.61 104.575 1289.17 104.28 1289.17 103.69C1289.17 103.41 1289.02 103.215 1288.73 103.105C1288.45 102.995 1288 102.89 1287.37 102.79C1286.71 102.69 1286.17 102.575 1285.75 102.445C1285.34 102.315 1284.98 102.09 1284.67 101.77C1284.37 101.44 1284.22 100.985 1284.22 100.405C1284.22 99.645 1284.53 99.04 1285.16 98.59C1285.8 98.13 1286.66 97.9 1287.74 97.9C1288.29 97.9 1288.84 97.965 1289.39 98.095C1289.94 98.215 1290.39 98.38 1290.74 98.59L1290.02 100.015C1289.34 99.615 1288.58 99.415 1287.73 99.415C1287.18 99.415 1286.76 99.5 1286.47 99.67C1286.19 99.83 1286.05 100.045 1286.05 100.315C1286.05 100.615 1286.2 100.83 1286.5 100.96C1286.81 101.08 1287.28 101.195 1287.92 101.305C1288.56 101.405 1289.09 101.52 1289.5 101.65C1289.91 101.78 1290.26 102 1290.55 102.31C1290.85 102.62 1291 103.06 1291 103.63C1291 104.38 1290.67 104.98 1290.02 105.43C1289.37 105.88 1288.49 106.105 1287.37 106.105ZM1300.14 102.04C1300.14 102.17 1300.13 102.355 1300.11 102.595H1293.83C1293.94 103.185 1294.22 103.655 1294.68 104.005C1295.15 104.345 1295.73 104.515 1296.42 104.515C1297.3 104.515 1298.03 104.225 1298.6 103.645L1299.6 104.8C1299.24 105.23 1298.79 105.555 1298.24 105.775C1297.69 105.995 1297.07 106.105 1296.38 106.105C1295.5 106.105 1294.72 105.93 1294.05 105.58C1293.38 105.23 1292.86 104.745 1292.49 104.125C1292.13 103.495 1291.95 102.785 1291.95 101.995C1291.95 101.215 1292.13 100.515 1292.48 99.895C1292.84 99.265 1293.33 98.775 1293.96 98.425C1294.59 98.075 1295.3 97.9 1296.09 97.9C1296.87 97.9 1297.57 98.075 1298.18 98.425C1298.8 98.765 1299.28 99.25 1299.62 99.88C1299.97 100.5 1300.14 101.22 1300.14 102.04ZM1296.09 99.4C1295.49 99.4 1294.98 99.58 1294.56 99.94C1294.15 100.29 1293.9 100.76 1293.81 101.35H1298.36C1298.28 100.77 1298.03 100.3 1297.62 99.94C1297.21 99.58 1296.7 99.4 1296.09 99.4ZM1304.42 106.105C1303.77 106.105 1303.13 106.02 1302.51 105.85C1301.89 105.68 1301.4 105.465 1301.03 105.205L1301.75 103.78C1302.11 104.02 1302.54 104.215 1303.04 104.365C1303.55 104.505 1304.05 104.575 1304.54 104.575C1305.66 104.575 1306.22 104.28 1306.22 103.69C1306.22 103.41 1306.07 103.215 1305.78 103.105C1305.5 102.995 1305.05 102.89 1304.42 102.79C1303.76 102.69 1303.22 102.575 1302.8 102.445C1302.39 102.315 1302.03 102.09 1301.72 101.77C1301.42 101.44 1301.27 100.985 1301.27 100.405C1301.27 99.645 1301.58 99.04 1302.21 98.59C1302.85 98.13 1303.71 97.9 1304.79 97.9C1305.34 97.9 1305.89 97.965 1306.44 98.095C1306.99 98.215 1307.44 98.38 1307.79 98.59L1307.07 100.015C1306.39 99.615 1305.63 99.415 1304.78 99.415C1304.23 99.415 1303.81 99.5 1303.52 99.67C1303.24 99.83 1303.1 100.045 1303.1 100.315C1303.1 100.615 1303.25 100.83 1303.55 100.96C1303.86 101.08 1304.33 101.195 1304.97 101.305C1305.61 101.405 1306.14 101.52 1306.55 101.65C1306.96 101.78 1307.31 102 1307.6 102.31C1307.9 102.62 1308.05 103.06 1308.05 103.63C1308.05 104.38 1307.72 104.98 1307.07 105.43C1306.42 105.88 1305.54 106.105 1304.42 106.105Z" fill="#A6CED7"/>
<path opacity="0.64" d="M1318.9 513.66C1315.8 516.76 1311.5 518.76 1306.7 519.06C1306.4 519.06 1306 519.06 1305.7 519.06C1305.4 519.06 1305.1 519.06 1304.7 519.06C1304.5 519.06 1304.3 519.06 1304 519.06H1257.9H1257.8C1257.8 519.06 1257.8 519.06 1257.7 519.06H1211.5C1212.4 516.16 1214.3 513.66 1216.7 511.96C1210.3 510.06 1205.6 504.26 1205.6 497.56C1205.6 489.26 1212.7 482.46 1221.5 482.46C1223.9 482.46 1226.3 482.96 1228.3 483.96C1228.5 480.86 1229.7 478.06 1231.6 475.76C1234.5 472.26 1239.1 469.96 1244.2 469.96C1246.8 469.96 1249.3 470.56 1251.5 471.66C1251.7 471.36 1251.9 471.06 1252.2 470.86C1254.4 468.46 1257.7 466.76 1261.5 466.16C1262.2 466.06 1262.8 465.96 1263.5 465.96C1263.8 465.96 1264 465.96 1264.3 465.96C1269 465.96 1273.3 467.76 1276 470.56C1277.4 469.76 1278.9 469.26 1280.4 468.86C1281.4 468.66 1282.5 468.56 1283.6 468.56C1288 468.56 1291.9 470.36 1294.7 473.26C1296.4 475.06 1297.7 477.36 1298.2 479.86C1298.4 480.76 1298.5 481.76 1298.5 482.76C1298.5 482.86 1298.5 482.86 1298.5 482.96C1298.5 484.16 1298.3 485.36 1298 486.56C1300.2 485.66 1302.7 485.06 1305.3 485.06C1309.8 485.06 1314.4 486.76 1317.3 489.36C1323.2 494.16 1324.1 504.46 1318.9 513.66Z" fill="#E15935"/>
<g opacity="0.55">
<path opacity="0.55" d="M1133.7 412.859C1134.2 454.659 1133.7 472.359 1134.2 473.459C1143 473.459 1159.4 473.459 1168.2 473.559L1168.3 412.959L1133.7 412.859Z" fill="#F1B62C"/>
<path opacity="0.55" d="M1169.6 401.96C1172.6 389.66 1175.6 377.36 1178.6 364.96C1178.9 356.26 1179.2 347.56 1179.4 338.86L1125.3 338.76C1125.7 347.56 1126 356.36 1126.4 365.06C1128.5 377.26 1130.6 389.56 1132.7 401.76L1169.6 401.96Z" fill="#F1B62C"/>
<path opacity="0.55" d="M1125.5 281.107L1125.38 336.007L1175.98 336.117L1176.1 281.217L1125.5 281.107Z" fill="#F1B62C"/>
<path opacity="0.55" d="M1178.47 282.027L1178.39 321.227L1215.49 321.307L1215.57 282.107L1178.47 282.027Z" fill="#F1B62C"/>
<path opacity="0.55" d="M1214.8 325.16C1214.8 325.96 1214.3 326.56 1213.6 326.76L1180.7 337.36C1180.1 337.56 1179.4 337.36 1178.9 336.96L1177.9 335.96C1177.5 335.56 1177.4 335.06 1177.4 334.56L1177.9 324.86C1177.9 323.86 1178.7 323.16 1179.7 323.16L1213.1 323.26C1214 323.26 1214.8 324.06 1214.8 325.16Z" fill="#F1B62C"/>
<path opacity="0.55" d="M1178.7 321.16L1216 321.26C1216.4 321.26 1216.7 321.56 1216.7 321.96V323.66L1178.1 323.56V321.86C1178 321.46 1178.3 321.16 1178.7 321.16Z" fill="#F7EBE9"/>
<path opacity="0.55" d="M1200 299.259V311.259C1200 311.659 1200.4 312.059 1200.8 312.059H1204.8C1205.2 312.059 1205.6 311.659 1205.6 311.259V299.259C1205.6 298.859 1205.2 298.459 1204.8 298.459H1200.8C1200.4 298.459 1200 298.859 1200 299.259Z" fill="#2A3359"/>
<path opacity="0.55" d="M1187.2 299.259V311.259C1187.2 311.659 1187.6 312.059 1188 312.059H1192C1192.4 312.059 1192.8 311.659 1192.8 311.259V299.259C1192.8 298.859 1192.4 298.459 1192 298.459H1188C1187.5 298.459 1187.2 298.859 1187.2 299.259Z" fill="#2A3359"/>
<path opacity="0.55" d="M1235.9 256.56L1235.8 282.26L1265.6 282.36C1266 282.36 1266.3 282.06 1266.3 281.66L1266.4 257.26C1266.4 256.96 1266.1 256.66 1265.8 256.66L1235.9 256.56Z" fill="#F1B62C"/>
<path opacity="0.55" d="M1172.41 242.555L1238.07 262.401L1239.49 257.711L1173.83 237.865L1172.41 242.555Z" fill="#F1B62C"/>
<path opacity="0.55" d="M1170.1 235.66L1170 278.96H1174.5L1174.6 236.16C1174.6 235.86 1174.4 235.66 1174.1 235.66H1170.1Z" fill="#F1B62C"/>
<path opacity="0.55" d="M1131.6 281.06L1131.7 235.66H1127.6C1127.4 235.66 1127.2 235.86 1127.2 236.06L1127.1 281.16L1131.6 281.06Z" fill="#F1B62C"/>
<path opacity="0.55" d="M1127.98 255.028L1173.38 255.126L1173.39 250.626L1127.99 250.528L1127.98 255.028Z" fill="#F1B62C"/>
<path opacity="0.55" d="M1127.64 268.37L1173.04 268.468L1173.05 263.968L1127.65 263.87L1127.64 268.37Z" fill="#F1B62C"/>
<path opacity="0.55" d="M1018.7 259.86L1127.3 235.56C1142.7 235.56 1158 235.66 1173.4 235.66C1173.7 237.16 1173.9 238.66 1174.2 240.16L1127.3 240.06V239.76L1019.6 263.96L1018.7 259.86Z" fill="#F1B62C"/>
<path opacity="0.55" d="M1020.8 278.16C1020.8 277.56 1021.3 277.06 1021.9 277.06L1128.9 277.26L1183.5 277.36L1238.7 277.46V279.76C1238.6 280.56 1238.5 281.46 1238.3 282.26C1217.4 282.16 1196.5 281.96 1175.6 281.86L1127.1 281.76V281.36L1021.9 281.16C1021.3 281.16 1020.8 280.66 1020.8 280.06V278.16Z" fill="#F1B62C"/>
<path opacity="0.55" d="M992.8 264.66V279.86C992.8 280.56 993.4 281.16 994.1 281.16C1004.1 281.26 1014.2 281.26 1024.2 281.36C1024.1 273.96 1024 266.56 1023.9 259.06L994.3 263.06C993.4 263.06 992.8 263.76 992.8 264.66Z" fill="#F1B62C"/>
<path opacity="0.55" d="M1125.4 335.359L1179.2 335.459C1179.7 335.459 1180.1 335.859 1180.1 336.459V338.959L1124.4 338.859V336.359C1124.4 335.759 1124.8 335.359 1125.4 335.359Z" fill="#F7EBE9"/>
<path opacity="0.55" d="M1179.3 281.66C1179.2 300.16 1179.2 318.66 1179.1 337.16H1175.7L1175.8 281.56C1176.9 281.66 1178.1 281.66 1179.3 281.66Z" fill="#F7EBE9"/>
<path opacity="0.55" d="M1129.4 401.66L1175.1 401.76C1175.6 401.76 1176 402.16 1176 402.66V412.26C1176 412.76 1175.6 413.16 1175.1 413.16L1129.4 413.06C1128.9 413.06 1128.5 412.66 1128.5 412.16V402.56C1128.5 402.16 1128.9 401.66 1129.4 401.66Z" fill="#F7EBE9"/>
<path opacity="0.55" d="M1214.06 253.254L1233.32 281.276L1236.12 279.351L1216.87 251.328L1214.06 253.254Z" fill="#F1B62C"/>
<path opacity="0.55" d="M1192 251.56C1198.5 260.96 1205 270.46 1211.4 279.86L1214.2 277.86C1207.4 267.96 1200.5 257.96 1193.7 248.06C1193.2 249.26 1192.6 250.36 1192 251.56Z" fill="#F1B62C"/>
<path opacity="0.55" d="M1173.1 245.859C1179.1 256.859 1185.1 267.859 1191.1 278.859L1194.1 277.159C1187.8 265.559 1181.4 253.959 1175.1 242.359C1174.5 243.559 1173.8 244.759 1173.1 245.859Z" fill="#F1B62C"/>
<path opacity="0.55" d="M1213.51 252.423L1213.45 278.123L1216.45 278.13L1216.51 252.429L1213.51 252.423Z" fill="#F1B62C"/>
<path opacity="0.55" d="M1191.42 247.388L1191.35 277.788L1194.85 277.795L1194.92 247.395L1191.42 247.388Z" fill="#F1B62C"/>
<path opacity="0.55" d="M1080.93 247.585L1059.05 279.139L1062.25 281.361L1084.14 249.808L1080.93 247.585Z" fill="#F1B62C"/>
<path opacity="0.55" d="M1056.99 252.566L1039.78 277.381L1042.98 279.603L1060.2 254.788L1056.99 252.566Z" fill="#F1B62C"/>
<path opacity="0.55" d="M1037.72 258.22L1020.86 278.662L1023.56 280.889L1040.42 260.447L1037.72 258.22Z" fill="#F1B62C"/>
<path opacity="0.55" d="M1109.2 247.859C1101.8 258.459 1094.4 269.159 1087 279.759L1083.8 277.559C1091.6 266.359 1099.4 255.159 1107.1 243.959C1107.9 245.259 1108.5 246.559 1109.2 247.859Z" fill="#F1B62C"/>
<path opacity="0.55" d="M1130.6 241.56C1123.7 253.96 1116.9 266.46 1110 278.86L1106.6 276.96C1113.8 263.86 1121 250.76 1128.3 237.66C1129.1 238.96 1129.8 240.26 1130.6 241.56Z" fill="#F1B62C"/>
<path opacity="0.55" d="M1081.44 248.632L1081.38 277.732L1084.78 277.74L1084.84 248.64L1081.44 248.632Z" fill="#F1B62C"/>
<path opacity="0.55" d="M1038.26 259.075L1038.21 279.475L1040.61 279.48L1040.66 259.08L1038.26 259.075Z" fill="#F1B62C"/>
<path opacity="0.55" d="M1058.25 254.58L1058.19 279.38L1061.59 279.388L1061.65 254.588L1058.25 254.58Z" fill="#F1B62C"/>
<path opacity="0.55" d="M1105.92 243.177L1105.84 277.577L1109.74 277.586L1109.82 243.186L1105.92 243.177Z" fill="#F1B62C"/>
<path opacity="0.55" d="M1003.2 285.66H1014.6C1015 285.66 1015.4 285.36 1015.4 284.86V281.06C1015.4 280.66 1015.1 280.26 1014.6 280.26H1003.2C1002.8 280.26 1002.4 280.56 1002.4 281.06V284.86C1002.4 285.36 1002.7 285.66 1003.2 285.66Z" fill="#F1B62C"/>
<path opacity="0.55" d="M1168.2 473.459L1179.5 485.259L1193.6 511.459V541.759H1187L1185.2 520.659L1166.5 497.459H1139.1L1121.3 519.759L1119.1 541.759H1113.5V510.859L1124.9 484.959L1134.2 473.459H1168.2Z" fill="#E1A328"/>
<path opacity="0.55" d="M1164.4 473.459L1158.1 482.359L1155 541.759H1147.1L1145.7 482.159L1139.7 473.459H1164.4Z" fill="#F1B62C"/>
</g>
<path d="M0 741.36V800.26H576.8C576.8 800.26 578.2 735.66 552.3 690.76C530.6 653.06 492.4 634.26 482.3 629.56C390.2 587.26 315.4 663.36 252.1 628.66C186.7 592.76 229.1 490.76 161.5 449.56C117.5 422.76 52.6 437.46 0 456.86V655.16V741.36Z" fill="#F7E7E5"/>
<path d="M0 504.26C0 504.26 128.6 444.56 159.2 544.96C189.8 645.36 193.3 680.16 276.8 685.16C360.3 690.16 481 622.96 540.8 784.46" stroke="white" stroke-miterlimit="10" stroke-linecap="round"/>
<path d="M1440 520.86V800.26H510.1C529.5 782.66 550.1 765.16 572 747.86C611 716.96 654 686.96 701.1 659.06C704.2 657.26 707.3 655.36 710.5 653.56C734.7 639.56 758.9 626.76 783 615.26C808.7 602.86 834.3 591.76 859.7 581.96C860.2 581.76 860.6 581.56 861.1 581.36C863.8 580.36 866.5 579.26 869.2 578.26C893 569.26 916.6 561.36 939.9 554.26C940.1 554.16 940.4 554.16 940.6 554.06C941.6 553.76 942.6 553.46 943.6 553.16C943.9 553.06 944.1 552.96 944.4 552.96C946.3 552.36 948.3 551.86 950.2 551.26C1149.1 493.56 1327.1 504.36 1440 520.86Z" fill="#1A7B9F"/>
<path d="M1440 569.86C1349.6 559.06 1199.2 552.46 1023.2 599.76C832.2 651.06 698.6 742.36 626 800.26" stroke="white" stroke-miterlimit="10" stroke-linecap="round"/>
<path d="M1466.4 -314.94C1466.9 -314.84 1467.2 -314.54 1467.4 -314.04L1468.7 -311.24C1469.1 -310.44 1468.8 -309.44 1468 -309.14C1467.2 -308.74 1466.2 -309.04 1465.9 -309.84L1464.6 -312.64C1464.2 -313.44 1464.5 -314.44 1465.3 -314.74C1465.6 -315.04 1466 -315.04 1466.4 -314.94ZM1469.5 -308.44C1470 -308.34 1470.3 -308.04 1470.5 -307.54C1471.1 -306.24 1471.7 -304.94 1472.3 -303.64C1472.7 -302.84 1472.4 -301.84 1471.6 -301.54C1470.8 -301.14 1469.8 -301.44 1469.5 -302.24C1468.9 -303.54 1468.3 -304.84 1467.7 -306.14C1467.3 -306.94 1467.6 -307.94 1468.4 -308.24C1468.8 -308.44 1469.2 -308.44 1469.5 -308.44ZM1472.9 -300.64C1473.4 -300.54 1473.7 -300.24 1473.9 -299.74C1474.5 -298.44 1475.1 -297.14 1475.7 -295.84C1476 -295.04 1475.7 -294.14 1475 -293.74C1474.2 -293.44 1473.3 -293.74 1472.9 -294.44C1472.3 -295.74 1471.7 -297.04 1471.2 -298.24C1470.9 -299.04 1471.2 -299.94 1471.9 -300.34C1472.2 -300.74 1472.7 -300.74 1472.9 -300.64ZM1476.5 -293.04C1477 -292.94 1477.3 -292.64 1477.5 -292.14C1478.1 -290.84 1478.6 -289.54 1479.2 -288.34C1479.5 -287.54 1479.2 -286.64 1478.4 -286.24C1477.6 -285.94 1476.7 -286.24 1476.3 -287.04C1475.7 -288.34 1475.2 -289.64 1474.6 -290.84C1474.3 -291.64 1474.6 -292.54 1475.4 -292.94C1475.7 -293.04 1476.2 -293.14 1476.5 -293.04ZM1479.8 -285.24C1480.3 -285.14 1480.6 -284.84 1480.9 -284.34C1481.5 -283.04 1482 -281.74 1482.6 -280.44C1482.9 -279.64 1482.6 -278.74 1481.8 -278.34C1481 -278.04 1480.1 -278.34 1479.7 -279.14C1479.1 -280.44 1478.6 -281.74 1478 -282.94C1477.7 -283.74 1478 -284.64 1478.8 -285.04C1479.2 -285.34 1479.5 -285.34 1479.8 -285.24ZM1483.1 -277.54C1483.6 -277.44 1484 -277.14 1484.2 -276.64C1484.7 -275.34 1485.3 -273.94 1485.8 -272.74C1486.1 -271.94 1485.8 -271.04 1485 -270.64C1484.2 -270.34 1483.3 -270.64 1482.9 -271.44C1482.4 -272.74 1481.8 -274.14 1481.3 -275.34C1481 -276.14 1481.3 -277.04 1482.1 -277.44C1482.5 -277.54 1482.8 -277.64 1483.1 -277.54ZM1486.3 -269.64C1486.8 -269.54 1487.2 -269.24 1487.4 -268.64C1487.9 -267.34 1488.5 -265.94 1489 -264.74C1489.3 -263.94 1488.9 -263.04 1488.1 -262.74C1487.3 -262.44 1486.4 -262.84 1486.1 -263.64C1485.6 -264.94 1485.1 -266.24 1484.5 -267.54C1484.2 -268.34 1484.5 -269.24 1485.3 -269.64C1485.6 -269.74 1485.9 -269.74 1486.3 -269.64ZM1489.4 -261.84C1489.9 -261.74 1490.3 -261.44 1490.5 -260.84C1491 -259.44 1491.5 -258.24 1491.9 -256.84C1492.2 -256.04 1491.8 -255.14 1491 -254.84C1490.2 -254.54 1489.3 -254.94 1489 -255.74C1488.5 -257.14 1488 -258.34 1487.6 -259.74C1487.3 -260.54 1487.7 -261.44 1488.5 -261.74C1488.7 -261.94 1489.1 -261.94 1489.4 -261.84ZM1492.3 -253.84C1492.8 -253.74 1493.2 -253.44 1493.4 -252.84C1493.9 -251.44 1494.4 -250.24 1494.8 -248.84C1495.1 -248.04 1494.7 -247.14 1493.9 -246.84C1493.1 -246.54 1492.2 -246.94 1491.9 -247.74C1491.4 -249.14 1490.9 -250.34 1490.5 -251.74C1490.2 -252.54 1490.6 -253.44 1491.4 -253.74C1491.6 -253.94 1492 -253.94 1492.3 -253.84ZM1495 -245.94C1495.5 -245.84 1495.9 -245.44 1496.1 -244.94C1496.6 -243.54 1497 -242.24 1497.4 -240.84C1497.7 -240.04 1497.2 -239.14 1496.4 -238.84C1495.6 -238.54 1494.7 -239.04 1494.4 -239.84C1494 -241.14 1493.5 -242.54 1493 -243.84C1492.7 -244.64 1493.1 -245.54 1494 -245.84C1494.4 -246.04 1494.7 -246.04 1495 -245.94ZM1497.5 -237.84C1498 -237.74 1498.5 -237.24 1498.6 -236.74C1499 -235.44 1499.5 -234.04 1499.8 -232.74C1500 -231.94 1499.6 -231.04 1498.8 -230.74C1497.9 -230.54 1497.1 -230.94 1496.8 -231.74C1496.4 -233.04 1496 -234.44 1495.6 -235.74C1495.3 -236.54 1495.8 -237.44 1496.6 -237.74C1496.9 -237.94 1497.2 -237.94 1497.5 -237.84ZM1499.9 -229.84C1500.4 -229.74 1500.9 -229.24 1501.1 -228.74C1501.5 -227.44 1501.9 -226.04 1502.2 -224.64C1502.4 -223.74 1502 -222.94 1501.1 -222.64C1500.2 -222.44 1499.4 -222.84 1499.1 -223.74C1498.7 -225.04 1498.3 -226.44 1498 -227.74C1497.8 -228.64 1498.2 -229.44 1499.1 -229.74C1499.4 -229.84 1499.7 -229.84 1499.9 -229.84ZM1502.1 -221.54C1502.7 -221.34 1503.1 -220.94 1503.3 -220.44C1503.7 -219.14 1503.9 -217.74 1504.3 -216.34C1504.5 -215.44 1504 -214.64 1503.1 -214.44C1502.2 -214.24 1501.4 -214.74 1501.2 -215.64C1500.8 -216.94 1500.6 -218.34 1500.2 -219.74C1500 -220.64 1500.5 -221.44 1501.3 -221.64C1501.6 -221.74 1501.8 -221.64 1502.1 -221.54ZM1504 -213.34C1504.6 -213.14 1505 -212.74 1505.1 -212.14C1505.4 -210.74 1505.7 -209.44 1506 -207.94C1506.2 -207.04 1505.7 -206.24 1504.8 -206.04C1503.9 -205.84 1503.1 -206.34 1502.9 -207.24C1502.6 -208.64 1502.4 -209.94 1502 -211.44C1501.8 -212.34 1502.3 -213.14 1503.2 -213.34C1503.5 -213.44 1503.8 -213.44 1504 -213.34ZM1505.7 -205.14C1506.3 -204.94 1506.8 -204.54 1506.8 -203.94C1507.1 -202.54 1507.3 -201.14 1507.6 -199.74C1507.8 -198.84 1507.2 -198.14 1506.3 -197.94C1505.4 -197.74 1504.7 -198.34 1504.5 -199.24C1504.2 -200.64 1504 -201.94 1503.7 -203.34C1503.5 -204.24 1504.1 -204.94 1505 -205.14C1505.3 -205.14 1505.5 -205.24 1505.7 -205.14ZM1507.2 -196.84C1507.8 -196.64 1508.3 -196.14 1508.4 -195.54C1508.7 -194.14 1508.8 -192.74 1509.1 -191.34C1509.2 -190.54 1508.6 -189.74 1507.7 -189.54C1506.9 -189.44 1506.1 -190.04 1505.9 -190.94C1505.7 -192.34 1505.5 -193.74 1505.3 -195.14C1505.2 -195.94 1505.7 -196.74 1506.6 -196.94C1506.8 -196.84 1507 -196.84 1507.2 -196.84ZM1508.3 -188.44C1508.9 -188.24 1509.4 -187.74 1509.5 -187.14C1509.7 -185.74 1509.8 -184.34 1510 -182.94C1510.1 -182.14 1509.5 -181.34 1508.6 -181.24C1507.7 -181.14 1507 -181.74 1506.9 -182.64C1506.7 -184.04 1506.6 -185.44 1506.4 -186.84C1506.3 -187.64 1506.9 -188.44 1507.8 -188.54C1508 -188.44 1508.2 -188.54 1508.3 -188.44ZM1509.2 -179.94C1509.9 -179.74 1510.4 -179.24 1510.4 -178.54C1510.6 -177.14 1510.6 -175.74 1510.8 -174.34C1510.9 -173.54 1510.2 -172.74 1509.3 -172.64C1508.5 -172.54 1507.7 -173.24 1507.6 -174.14C1507.5 -175.54 1507.4 -176.84 1507.3 -178.34C1507.2 -179.14 1507.8 -179.94 1508.8 -180.04C1508.8 -180.04 1509 -180.04 1509.2 -179.94ZM1509.7 -171.54C1510.4 -171.34 1510.9 -170.84 1510.9 -170.14C1510.9 -168.64 1511 -167.34 1511 -165.84C1511 -165.04 1510.3 -164.24 1509.5 -164.24C1508.7 -164.24 1507.9 -164.94 1507.9 -165.74C1507.8 -167.14 1507.8 -168.54 1507.7 -169.94C1507.6 -170.74 1508.3 -171.54 1509.3 -171.64C1509.5 -171.64 1509.5 -171.64 1509.7 -171.54ZM1509.9 -163.14C1510.6 -162.94 1511 -162.34 1511.1 -161.64C1511.1 -160.14 1511.1 -158.74 1511 -157.44C1511 -156.54 1510.3 -155.84 1509.4 -155.94C1508.5 -156.04 1507.8 -156.64 1507.9 -157.54C1507.9 -158.84 1508 -160.34 1508 -161.74C1508 -162.54 1508.7 -163.34 1509.5 -163.34C1509.7 -163.24 1509.8 -163.24 1509.9 -163.14ZM1509.7 -154.74C1510.4 -154.54 1510.9 -153.94 1510.8 -153.14C1510.7 -151.74 1510.7 -150.24 1510.5 -148.84C1510.5 -147.94 1509.7 -147.34 1508.8 -147.44C1507.9 -147.54 1507.3 -148.24 1507.4 -149.14C1507.6 -150.54 1507.6 -151.84 1507.7 -153.34C1507.7 -154.24 1508.5 -154.84 1509.3 -154.84C1509.5 -154.84 1509.6 -154.74 1509.7 -154.74ZM1509.1 -146.34C1509.9 -146.14 1510.3 -145.44 1510.3 -144.64C1510.1 -143.24 1510 -141.84 1509.8 -140.44C1509.7 -139.54 1508.9 -138.94 1508 -139.04C1507.1 -139.14 1506.5 -139.94 1506.6 -140.84C1506.8 -142.24 1506.9 -143.64 1507 -144.94C1507.1 -145.84 1507.9 -146.44 1508.7 -146.34C1508.9 -146.44 1509 -146.34 1509.1 -146.34ZM1508.1 -137.94C1508.9 -137.74 1509.4 -136.94 1509.3 -136.14C1509 -134.74 1508.9 -133.34 1508.6 -131.94C1508.5 -131.04 1507.6 -130.54 1506.7 -130.64C1505.8 -130.74 1505.3 -131.64 1505.4 -132.54C1505.7 -133.94 1505.9 -135.34 1506.1 -136.74C1506.2 -137.64 1507 -138.14 1507.9 -138.04C1508 -137.94 1508 -137.94 1508.1 -137.94ZM1506.6 -129.64C1507.4 -129.44 1507.9 -128.54 1507.8 -127.74C1507.5 -126.34 1507.2 -124.94 1506.8 -123.54C1506.6 -122.64 1505.7 -122.14 1504.9 -122.34C1504 -122.54 1503.5 -123.44 1503.7 -124.24C1504.1 -125.64 1504.3 -126.94 1504.7 -128.34C1504.8 -129.24 1505.7 -129.74 1506.6 -129.64ZM1504.6 -121.34C1505.5 -121.14 1506 -120.24 1505.7 -119.44C1505.3 -118.04 1505 -116.64 1504.5 -115.34C1504.3 -114.44 1503.4 -114.04 1502.6 -114.24C1501.7 -114.44 1501.3 -115.44 1501.5 -116.14C1501.9 -117.44 1502.3 -118.84 1502.6 -120.14C1502.9 -121.14 1503.8 -121.64 1504.6 -121.34ZM1502.2 -113.34C1503.1 -113.04 1503.5 -112.14 1503.3 -111.34C1502.9 -110.04 1502.4 -108.54 1501.9 -107.24C1501.6 -106.44 1500.7 -106.04 1499.9 -106.34C1499.1 -106.64 1498.7 -107.54 1499 -108.34C1499.4 -109.64 1499.9 -111.04 1500.3 -112.34C1500.6 -113.14 1501.5 -113.54 1502.2 -113.34ZM1499.4 -105.34C1499.5 -105.34 1499.5 -105.34 1499.6 -105.34C1500.4 -105.04 1500.8 -104.14 1500.5 -103.24C1500 -101.94 1499.4 -100.64 1498.9 -99.3402C1498.6 -98.5402 1497.7 -98.2402 1496.8 -98.5402C1496 -98.8402 1495.6 -99.7402 1496 -100.64C1496.5 -101.94 1497.1 -103.24 1497.6 -104.44C1497.8 -105.14 1498.6 -105.54 1499.4 -105.34ZM1495.9 -97.7402C1496 -97.7402 1496.1 -97.7402 1496.2 -97.6402C1497 -97.2402 1497.3 -96.3402 1497 -95.5402C1496.4 -94.2402 1495.7 -92.9402 1495.1 -91.7402C1494.7 -90.9402 1493.8 -90.6402 1493 -91.0402C1492.2 -91.4402 1491.9 -92.3402 1492.3 -93.1402C1492.9 -94.4402 1493.6 -95.6402 1494.1 -96.9402C1494.4 -97.4402 1495.3 -97.8402 1495.9 -97.7402ZM1492.1 -90.1402C1492.2 -90.1402 1492.4 -90.0402 1492.5 -90.0402C1493.2 -89.6402 1493.6 -88.6402 1493.1 -87.9402C1492.5 -86.6402 1491.7 -85.4402 1491 -84.2402C1490.6 -83.5402 1489.6 -83.2402 1488.8 -83.6402C1488.1 -84.0402 1487.8 -85.0402 1488.2 -85.8402C1488.9 -87.0402 1489.6 -88.2402 1490.3 -89.4402C1490.8 -90.0402 1491.4 -90.2402 1492.1 -90.1402ZM1487.9 -82.8402C1488.1 -82.7402 1488.2 -82.7402 1488.4 -82.6402C1489.1 -82.1402 1489.4 -81.1402 1488.9 -80.4402C1488.2 -79.2402 1487.4 -78.0402 1486.6 -76.9402C1486.1 -76.2402 1485.1 -75.9402 1484.4 -76.4402C1483.7 -76.9402 1483.4 -77.9402 1483.9 -78.6402C1484.7 -79.7402 1485.4 -80.9402 1486.2 -82.1402C1486.5 -82.7402 1487.3 -83.0402 1487.9 -82.8402ZM1483.2 -75.9402C1483.4 -75.9402 1483.6 -75.8402 1483.8 -75.7402C1484.5 -75.2402 1484.7 -74.2402 1484.2 -73.5402C1483.4 -72.4402 1482.6 -71.2402 1481.7 -70.0402C1481.2 -69.3402 1480.1 -69.2402 1479.4 -69.7402C1478.7 -70.2402 1478.6 -71.3402 1479.1 -72.0402C1479.9 -73.1402 1480.8 -74.2402 1481.5 -75.4402C1481.9 -75.8402 1482.6 -76.0402 1483.2 -75.9402ZM1478.1 -69.1402C1478.3 -69.1402 1478.5 -69.0402 1478.7 -68.9402C1479.4 -68.3402 1479.5 -67.3402 1478.9 -66.7402C1478 -65.6402 1477.1 -64.5402 1476.2 -63.4402C1475.6 -62.7402 1474.7 -62.7402 1474 -63.2402C1473.3 -63.8402 1473.3 -64.7402 1473.8 -65.4402C1474.7 -66.5402 1475.6 -67.5402 1476.5 -68.6402C1476.9 -69.0402 1477.5 -69.3402 1478.1 -69.1402ZM1472.6 -62.7402C1472.8 -62.6402 1473.1 -62.5402 1473.2 -62.3402C1473.9 -61.7402 1473.9 -60.7402 1473.4 -60.1402C1472.5 -59.1402 1471.5 -58.0402 1470.5 -56.9402C1469.9 -56.2402 1468.9 -56.3402 1468.3 -56.8402C1467.6 -57.4402 1467.7 -58.4402 1468.2 -59.0402C1469.2 -60.0402 1470.1 -61.1402 1471.1 -62.1402C1471.5 -62.7402 1472.2 -62.8402 1472.6 -62.7402ZM1466.9 -56.5402C1467.2 -56.4402 1467.4 -56.3402 1467.6 -56.1402C1468.3 -55.5402 1468.2 -54.5402 1467.6 -53.8402C1466.6 -52.8402 1465.6 -51.8402 1464.6 -50.9402C1463.9 -50.3402 1463 -50.3402 1462.3 -51.0402C1461.7 -51.7402 1461.7 -52.6402 1462.4 -53.3402C1463.4 -54.3402 1464.5 -55.2402 1465.4 -56.2402C1465.8 -56.5402 1466.3 -56.7402 1466.9 -56.5402ZM1460.8 -50.7402C1461.1 -50.6402 1461.4 -50.5402 1461.6 -50.2402C1462.2 -49.5402 1462.1 -48.5402 1461.5 -47.9402C1460.4 -46.9402 1459.4 -46.0402 1458.3 -45.1402C1457.6 -44.5402 1456.6 -44.6402 1456.1 -45.3402C1455.6 -46.0402 1455.6 -47.0402 1456.3 -47.5402C1457.3 -48.4402 1458.4 -49.3402 1459.4 -50.3402C1459.7 -50.7402 1460.3 -50.8402 1460.8 -50.7402ZM1454.4 -45.2402C1454.7 -45.1402 1455 -45.0402 1455.2 -44.7402C1455.8 -44.0402 1455.7 -43.0402 1455 -42.5402C1454 -41.6402 1452.8 -40.7402 1451.7 -39.8402C1451 -39.2402 1450 -39.4402 1449.5 -40.1402C1448.9 -40.8402 1449.1 -41.8402 1449.8 -42.3402C1450.8 -43.2402 1452 -44.0402 1453.1 -45.0402C1453.5 -45.2402 1454 -45.3402 1454.4 -45.2402ZM1447.9 -39.9402C1448.2 -39.8402 1448.6 -39.6402 1448.8 -39.4402C1449.4 -38.7402 1449.2 -37.7402 1448.5 -37.2402C1447.4 -36.4402 1446.2 -35.5402 1445.1 -34.7402C1444.3 -34.2402 1443.4 -34.3402 1442.9 -35.1402C1442.4 -35.9402 1442.5 -36.8402 1443.3 -37.3402C1444.4 -38.1402 1445.6 -39.0402 1446.6 -39.8402C1446.9 -40.0402 1447.4 -40.1402 1447.9 -39.9402ZM1441 -35.0402C1441.4 -34.9402 1441.7 -34.7402 1441.9 -34.4402C1442.4 -33.6402 1442.2 -32.7402 1441.5 -32.2402C1440.4 -31.4402 1439.2 -30.6402 1438 -29.8402C1437.2 -29.3402 1436.3 -29.5402 1435.8 -30.3402C1435.3 -31.1402 1435.5 -32.0402 1436.3 -32.5402C1437.4 -33.2402 1438.7 -34.1402 1439.8 -34.8402C1440.1 -35.0402 1440.6 -35.1402 1441 -35.0402ZM1434 -30.3402C1434.4 -30.2402 1434.7 -30.0402 1435 -29.6402C1435.4 -28.9402 1435.3 -27.9402 1434.5 -27.4402C1433.3 -26.7402 1432.1 -25.8402 1430.9 -25.1402C1430.2 -24.7402 1429.2 -24.9402 1428.8 -25.7402C1428.4 -26.5402 1428.6 -27.4402 1429.4 -27.8402C1430.6 -28.5402 1431.7 -29.3402 1433 -30.0402C1433.1 -30.3402 1433.6 -30.4402 1434 -30.3402ZM1426.8 -25.9402C1427.2 -25.8402 1427.5 -25.5402 1427.7 -25.1402C1428.1 -24.4402 1427.9 -23.4402 1427.1 -23.0402C1425.9 -22.3402 1424.7 -21.6402 1423.4 -20.8402C1422.7 -20.4402 1421.7 -20.6402 1421.3 -21.4402C1420.9 -22.2402 1421.1 -23.1402 1421.9 -23.5402C1423.1 -24.2402 1424.3 -24.9402 1425.5 -25.6402C1426 -25.9402 1426.4 -26.0402 1426.8 -25.9402ZM1419.5 -21.7402C1419.9 -21.6402 1420.2 -21.3402 1420.5 -20.9402C1420.9 -20.2402 1420.7 -19.2402 1419.9 -18.8402C1418.7 -18.1402 1417.4 -17.5402 1416.2 -16.8402C1415.5 -16.4402 1414.5 -16.7402 1414.1 -17.4402C1413.7 -18.1402 1414 -19.1402 1414.7 -19.5402C1415.9 -20.1402 1417.2 -20.8402 1418.4 -21.4402C1418.7 -21.8402 1419.1 -21.8402 1419.5 -21.7402ZM1412 -17.7402C1412.4 -17.6402 1412.8 -17.3402 1413 -16.9402C1413.4 -16.1402 1413.1 -15.1402 1412.4 -14.8402C1411.1 -14.2402 1409.9 -13.5402 1408.6 -12.9402C1407.8 -12.5402 1406.8 -12.8402 1406.5 -13.6402C1406.1 -14.4402 1406.4 -15.4402 1407.2 -15.7402C1408.5 -16.3402 1409.7 -16.9402 1411 -17.6402C1411.3 -17.8402 1411.7 -17.8402 1412 -17.7402ZM1404.4 -14.1402C1404.9 -14.0402 1405.2 -13.7402 1405.4 -13.2402C1405.8 -12.4402 1405.5 -11.4402 1404.7 -11.1402C1403.4 -10.5402 1402.1 -9.94019 1400.8 -9.34018C1400 -9.04019 1399.1 -9.34018 1398.7 -10.0402C1398.4 -10.8402 1398.7 -11.7402 1399.4 -12.1402C1400.7 -12.7402 1402 -13.3402 1403.2 -13.9402C1403.7 -14.1402 1404.1 -14.2402 1404.4 -14.1402ZM1396.8 -10.5402C1397.3 -10.4402 1397.6 -10.1402 1397.8 -9.6402C1398.2 -8.84021 1397.9 -7.84018 1397.1 -7.54019C1395.8 -6.94019 1394.6 -6.34021 1393.4 -5.7402C1392.6 -5.34021 1391.6 -5.64017 1391.3 -6.34018C1390.9 -7.14017 1391.2 -8.1402 1391.9 -8.44019C1393.1 -9.04019 1394.4 -9.74017 1395.7 -10.3402C1396.1 -10.6402 1396.4 -10.6402 1396.8 -10.5402ZM1389.3 -6.6402C1389.7 -6.54019 1390 -6.24017 1390.2 -5.84018C1390.6 -5.14017 1390.4 -4.1402 1389.6 -3.7402C1388.4 -3.04019 1387.2 -2.44019 1386 -1.6402C1385.3 -1.2402 1384.3 -1.44022 1383.9 -2.2402C1383.5 -3.04019 1383.7 -3.94019 1384.5 -4.34018C1385.7 -5.04019 1386.9 -5.7402 1388.2 -6.54019C1388.5 -6.7402 1388.9 -6.7402 1389.3 -6.6402ZM1382.1 -2.34018C1382.5 -2.24017 1382.8 -2.04019 1383.1 -1.6402C1383.5 -0.940186 1383.4 0.0598145 1382.6 0.559814C1381.5 1.25983 1380.2 2.15979 1379.1 2.8598C1378.3 3.3598 1377.4 3.15982 1376.9 2.45981C1376.4 1.65982 1376.6 0.759796 1377.3 0.259796C1378.4 -0.540192 1379.7 -1.44019 1380.8 -2.1402C1381.2 -2.34021 1381.7 -2.44019 1382.1 -2.34018ZM1375.2 2.55981C1375.5 2.65982 1375.9 2.8598 1376.1 3.05981C1376.7 3.75983 1376.5 4.7598 1375.8 5.2598C1374.7 6.05978 1373.6 6.95981 1372.6 7.8598C1371.9 8.45981 1370.9 8.3598 1370.4 7.55981C1369.8 6.8598 1369.9 5.8598 1370.7 5.3598C1371.7 4.45981 1372.9 3.55978 1374.1 2.7598C1374.2 2.55978 1374.8 2.3598 1375.2 2.55981ZM1368.7 7.8598C1369 7.95981 1369.3 8.05981 1369.5 8.3598C1370.1 9.05981 1370 10.0598 1369.3 10.5598C1368.3 11.4598 1367.3 12.4598 1366.2 13.3598C1365.5 13.9598 1364.6 13.9598 1363.9 13.2598C1363.3 12.5598 1363.3 11.6598 1364 10.9598C1365.1 9.95981 1366.1 9.05981 1367.1 8.05981C1367.7 7.8598 1368.2 7.7598 1368.7 7.8598ZM1362.5 13.6598C1362.8 13.7598 1363 13.8598 1363.2 14.0598C1363.9 14.6598 1363.8 15.6598 1363.2 16.3598C1362.2 17.3598 1361.2 18.3598 1360.4 19.3598C1359.8 20.0598 1358.8 20.0598 1358.2 19.5598C1357.5 18.9598 1357.5 17.9598 1358 17.3598C1359 16.2598 1360 15.2598 1361 14.2598C1361.4 13.6598 1362 13.5598 1362.5 13.6598ZM1356.8 19.8598C1357 19.8598 1357.3 20.0598 1357.4 20.2598C1358.1 20.8598 1358.1 21.7598 1357.6 22.4598C1356.7 23.4598 1355.8 24.5598 1355 25.7598C1354.4 26.4598 1353.4 26.5598 1352.8 25.9598C1352.2 25.3598 1352 24.3598 1352.6 23.7598C1353.5 22.6598 1354.4 21.5598 1355.3 20.4598C1355.7 19.8598 1356.2 19.6598 1356.8 19.8598ZM1351.6 26.4598C1351.8 26.4598 1352 26.5598 1352.2 26.6598C1352.9 27.1598 1353.1 28.1598 1352.5 28.9598C1351.7 30.0598 1350.9 31.2598 1350.1 32.3598C1349.6 33.0598 1348.6 33.3598 1347.9 32.8598C1347.2 32.3598 1346.9 31.3598 1347.4 30.6598C1348.2 29.5598 1349 28.2598 1349.9 27.1598C1350.3 26.5598 1351 26.3598 1351.6 26.4598ZM1346.9 33.4598C1347.1 33.5598 1347.2 33.5598 1347.4 33.6598C1348.1 34.1598 1348.4 35.1598 1347.9 35.8598C1347.2 37.0598 1346.5 38.2598 1345.7 39.4598C1345.3 40.1598 1344.3 40.4598 1343.5 40.0598C1342.8 39.6598 1342.5 38.6598 1342.9 37.8598C1343.6 36.5598 1344.3 35.4598 1345.1 34.1598C1345.5 33.5598 1346.2 33.2598 1346.9 33.4598ZM1342.6 40.7598C1342.7 40.7598 1342.8 40.7598 1343 40.8598C1343.7 41.2598 1344.1 42.2598 1343.7 42.9598C1343.1 44.1598 1342.4 45.4598 1341.8 46.6598C1341.4 47.4598 1340.5 47.7598 1339.7 47.3598C1338.9 46.9598 1338.6 46.0598 1339 45.2598C1339.6 43.9598 1340.3 42.6598 1340.9 41.4598C1341.2 40.8598 1342 40.5598 1342.6 40.7598ZM1338.9 48.2598C1339 48.2598 1339.1 48.2598 1339.2 48.3598C1340 48.6598 1340.3 49.6598 1340 50.4598C1339.5 51.7598 1338.8 52.9598 1338.4 54.2598C1338.1 55.0598 1337.2 55.4598 1336.3 55.0598C1335.5 54.7598 1335.1 53.8598 1335.5 52.9598C1336 51.6598 1336.6 50.3598 1337.2 49.0598C1337.3 48.4598 1338.2 48.0598 1338.9 48.2598ZM1335.7 56.1598C1335.8 56.1598 1335.8 56.1598 1335.9 56.1598C1336.7 56.4598 1337.1 57.3598 1336.8 58.1598C1336.4 59.4598 1335.8 60.7598 1335.4 62.1598C1335.1 62.9598 1334.3 63.4598 1333.4 63.1598C1332.6 62.8598 1332.1 62.0598 1332.4 61.1598C1332.8 59.8598 1333.3 58.3598 1333.9 57.0598C1334.1 56.3598 1334.9 55.9598 1335.7 56.1598ZM1332.9 64.0598C1333 64.0598 1333 64.0598 1332.9 64.0598C1333.8 64.2598 1334.2 65.2598 1334 66.0598C1333.6 67.3598 1333.2 68.7598 1332.9 70.0598C1332.7 70.9598 1331.8 71.4598 1331 71.1598C1330.1 70.9598 1329.6 70.0598 1329.9 69.2598C1330.3 67.8598 1330.7 66.4598 1331.1 65.1598C1331.3 64.2598 1332.1 63.8598 1332.9 64.0598ZM1330.7 72.1598C1331.6 72.3598 1332.1 73.2598 1331.8 74.0598C1331.4 75.4598 1331.2 76.7598 1330.8 78.1598C1330.6 79.0598 1329.8 79.5598 1328.9 79.3598C1328 79.1598 1327.5 78.3598 1327.7 77.4598C1328 76.0598 1328.3 74.6598 1328.7 73.2598C1329 72.5598 1329.8 71.9598 1330.7 72.1598ZM1328.9 80.4598C1329.7 80.6598 1330.2 81.4598 1330.1 82.3598C1329.8 83.7598 1329.6 85.1598 1329.3 86.4598C1329.2 87.3598 1328.3 87.8598 1327.5 87.7598C1326.6 87.6598 1326.1 86.7598 1326.2 85.9598C1326.5 84.5598 1326.7 83.1598 1327 81.8598C1327.1 80.9598 1328 80.4598 1328.9 80.4598ZM1327.5 88.8598C1328.3 89.0598 1328.8 89.8598 1328.7 90.6598C1328.5 92.0598 1328.4 93.4598 1328.3 94.7598C1328.2 95.6598 1327.4 96.2598 1326.6 96.1598C1325.7 96.0598 1325.1 95.2598 1325.2 94.4598C1325.4 93.0598 1325.5 91.6598 1325.7 90.2598C1325.8 89.2598 1326.6 88.6598 1327.5 88.8598ZM1326.7 97.1598C1327.5 97.3598 1327.9 97.9598 1327.9 98.8598C1327.7 100.26 1327.7 101.56 1327.6 103.06C1327.6 103.96 1326.8 104.56 1326 104.56C1325.1 104.56 1324.5 103.76 1324.5 102.96C1324.6 101.56 1324.7 100.16 1324.8 98.6598C1324.9 97.7598 1325.6 97.1598 1326.5 97.2598C1326.5 97.1598 1326.6 97.1598 1326.7 97.1598ZM1326.2 105.66C1326.9 105.86 1327.4 106.46 1327.4 107.16C1327.3 108.56 1327.3 109.96 1327.3 111.36C1327.3 112.16 1326.6 112.96 1325.7 112.86C1324.9 112.86 1324.1 112.16 1324.2 111.26C1324.3 109.86 1324.2 108.36 1324.3 107.06C1324.3 106.16 1325 105.46 1325.9 105.56C1326 105.56 1326.1 105.56 1326.2 105.66ZM1326.1 114.06C1326.8 114.26 1327.2 114.86 1327.3 115.56C1327.4 116.96 1327.3 118.36 1327.4 119.66C1327.4 120.46 1326.8 121.26 1325.8 121.36C1325 121.36 1324.2 120.76 1324.1 119.76C1324.1 118.26 1324 116.96 1324 115.46C1324 114.66 1324.7 113.86 1325.5 113.86C1325.8 113.96 1326 114.06 1326.1 114.06ZM1326.4 122.56C1327.1 122.76 1327.6 123.26 1327.6 123.96C1327.7 125.36 1327.8 126.76 1327.9 128.16C1328 128.96 1327.3 129.76 1326.4 129.86C1325.5 129.96 1324.8 129.26 1324.7 128.36C1324.5 126.96 1324.5 125.56 1324.5 124.06C1324.4 123.26 1325.1 122.46 1326 122.36C1326.1 122.46 1326.2 122.46 1326.4 122.56ZM1327.1 130.96C1327.7 131.06 1328.2 131.66 1328.3 132.26C1328.5 133.66 1328.6 135.06 1328.8 136.46C1328.9 137.26 1328.3 138.06 1327.4 138.16C1326.6 138.26 1325.8 137.66 1325.6 136.76C1325.4 135.36 1325.3 133.86 1325.1 132.56C1325 131.76 1325.6 130.96 1326.5 130.86C1326.7 130.86 1326.9 130.86 1327.1 130.96ZM1328 139.36C1328.6 139.56 1329.1 140.06 1329.2 140.66C1329.4 142.06 1329.6 143.46 1329.9 144.86C1330.1 145.76 1329.5 146.46 1328.6 146.66C1327.7 146.86 1327 146.26 1326.8 145.36C1326.5 143.96 1326.4 142.56 1326.1 141.16C1326 140.36 1326.5 139.56 1327.5 139.36C1327.6 139.26 1327.8 139.26 1328 139.36ZM1329.5 147.66C1330.1 147.76 1330.6 148.26 1330.6 148.86C1330.9 150.26 1331.1 151.56 1331.4 152.96C1331.6 153.86 1331.1 154.66 1330.2 154.86C1329.3 155.06 1328.5 154.56 1328.3 153.66C1328 152.26 1327.8 150.86 1327.5 149.56C1327.3 148.66 1327.9 147.96 1328.8 147.76C1329 147.56 1329.2 147.66 1329.5 147.66ZM1682.8 245.66C1683.1 245.76 1683.4 245.86 1683.5 246.06C1684.2 246.66 1684.1 247.66 1683.5 248.36C1683.5 248.46 1682.4 249.56 1680.3 251.26C1679.6 251.86 1678.6 251.76 1678.1 251.06C1677.5 250.36 1677.6 249.36 1678.3 248.86C1680.3 247.06 1681.4 246.06 1681.4 246.06C1681.7 245.56 1682.2 245.46 1682.8 245.66ZM1331.2 155.96C1331.8 156.06 1332.2 156.56 1332.3 157.16C1332.6 158.46 1332.9 159.86 1333.3 161.26C1333.5 162.16 1333 162.96 1332.2 163.16C1331.3 163.36 1330.5 162.86 1330.3 162.06C1329.9 160.76 1329.7 159.36 1329.3 157.86C1329.1 156.96 1329.6 156.16 1330.5 155.96C1330.7 155.86 1330.9 155.86 1331.2 155.96ZM1676.4 251.26C1676.7 251.36 1677.1 251.56 1677.2 251.76C1677.8 252.46 1677.7 253.46 1676.9 253.96C1675.9 254.86 1674.7 255.76 1673.5 256.56C1672.8 257.16 1671.8 256.96 1671.3 256.26C1670.7 255.56 1670.9 254.56 1671.6 254.06C1672.7 253.26 1673.8 252.36 1674.8 251.46C1675.4 251.16 1675.9 251.06 1676.4 251.26ZM1333.2 164.16C1333.8 164.26 1334.2 164.76 1334.4 165.26C1334.8 166.56 1335.2 167.96 1335.5 169.26C1335.7 170.16 1335.3 170.96 1334.4 171.26C1333.5 171.46 1332.7 171.06 1332.4 170.16C1332 168.86 1331.6 167.46 1331.3 166.06C1331.1 165.16 1331.5 164.36 1332.4 164.06C1332.7 164.06 1332.9 164.06 1333.2 164.16ZM1669.7 256.26C1670.1 256.36 1670.4 256.56 1670.6 256.86C1671.1 257.66 1671 258.56 1670.2 259.06C1669.1 259.86 1667.9 260.76 1666.8 261.56C1666 262.06 1665.1 261.86 1664.6 261.16C1664.1 260.36 1664.3 259.46 1665 258.96C1666.1 258.16 1667.3 257.26 1668.4 256.56C1668.8 256.26 1669.3 256.16 1669.7 256.26ZM1335.5 172.26C1336 172.36 1336.4 172.76 1336.6 173.26C1337 174.56 1337.5 175.96 1337.9 177.16C1338.2 177.96 1337.8 178.86 1336.9 179.16C1336.1 179.46 1335.2 179.06 1334.9 178.16C1334.4 176.76 1334 175.46 1333.6 174.06C1333.3 173.26 1333.8 172.36 1334.6 172.06C1335 172.16 1335.2 172.16 1335.5 172.26ZM1662.8 261.26C1663.2 261.36 1663.5 261.56 1663.8 261.96C1664.3 262.76 1664.1 263.66 1663.3 264.16C1662.2 264.96 1660.9 265.76 1659.7 266.46C1659 266.86 1658 266.76 1657.5 265.96C1657.1 265.26 1657.2 264.26 1658 263.76C1659.1 263.06 1660.4 262.16 1661.5 261.46C1661.9 261.06 1662.4 261.16 1662.8 261.26ZM1338.2 180.16C1338.7 180.26 1339.1 180.56 1339.3 181.16C1339.8 182.56 1340.3 183.76 1340.8 185.06C1341.1 185.86 1340.7 186.76 1339.9 187.06C1339.1 187.36 1338.2 186.96 1337.9 186.16C1337.4 184.76 1336.9 183.56 1336.5 182.16C1336.2 181.36 1336.6 180.46 1337.4 180.16C1337.5 180.16 1338 180.16 1338.2 180.16ZM1655.7 265.66C1656.1 265.76 1656.4 265.96 1656.7 266.36C1657.1 267.06 1656.9 268.06 1656.2 268.46C1655 269.16 1653.8 269.86 1652.5 270.66C1651.8 271.06 1650.8 270.86 1650.4 270.16C1650 269.46 1650.2 268.46 1650.9 268.06C1652.1 267.36 1653.3 266.66 1654.5 265.86C1654.8 265.66 1655.3 265.56 1655.7 265.66ZM1341.2 188.06C1341.7 188.16 1342.1 188.46 1342.3 188.96C1342.8 190.26 1343.4 191.56 1343.9 192.76C1344.2 193.56 1343.9 194.46 1343.1 194.86C1342.3 195.16 1341.4 194.86 1341 194.06C1340.4 192.76 1339.9 191.36 1339.4 190.16C1339.1 189.36 1339.4 188.46 1340.2 188.06C1340.6 188.06 1340.9 188.06 1341.2 188.06ZM1648.3 269.96C1648.7 270.06 1649 270.36 1649.2 270.76C1649.6 271.46 1649.4 272.46 1648.6 272.86C1647.4 273.56 1646.2 274.16 1644.9 274.86C1644.2 275.26 1643.2 274.96 1642.8 274.26C1642.4 273.56 1642.7 272.56 1643.4 272.16C1644.6 271.46 1645.9 270.86 1647.1 270.16C1647.6 269.86 1648.1 269.96 1648.3 269.96ZM1344.4 195.86C1344.9 195.96 1345.2 196.26 1345.4 196.76C1346 198.06 1346.5 199.36 1347.1 200.46C1347.5 201.26 1347.2 202.26 1346.4 202.56C1345.6 202.96 1344.6 202.66 1344.3 201.86C1343.7 200.56 1343.1 199.26 1342.5 197.96C1342.2 197.16 1342.5 196.26 1343.3 195.86C1343.7 195.76 1344.1 195.76 1344.4 195.86ZM1640.9 273.96C1641.3 274.06 1641.7 274.36 1641.9 274.76C1642.3 275.56 1642 276.56 1641.3 276.86C1640.1 277.46 1638.8 278.16 1637.5 278.76C1636.7 279.16 1635.7 278.86 1635.4 278.06C1635 277.26 1635.3 276.26 1636.1 275.96C1637.4 275.36 1638.6 274.76 1639.9 274.16C1640.2 273.86 1640.6 273.86 1640.9 273.96ZM1348 203.46C1348.4 203.56 1348.8 203.86 1349 204.26C1349.6 205.46 1350.2 206.76 1350.9 207.96C1351.3 208.66 1351 209.66 1350.3 210.06C1349.6 210.46 1348.6 210.16 1348.2 209.46C1347.6 208.26 1346.9 206.96 1346.3 205.66C1345.9 204.86 1346.2 203.86 1347 203.56C1347.3 203.46 1347.6 203.36 1348 203.46ZM1633.3 277.66C1633.8 277.76 1634.1 278.06 1634.3 278.56C1634.7 279.36 1634.4 280.36 1633.6 280.66C1632.3 281.26 1631 281.86 1629.7 282.46C1628.9 282.76 1628 282.46 1627.6 281.66C1627.3 280.86 1627.6 279.96 1628.4 279.56C1629.7 278.96 1631 278.36 1632.2 277.86C1632.6 277.56 1633.1 277.56 1633.3 277.66ZM1625.7 281.06C1626.2 281.16 1626.5 281.46 1626.8 281.96C1627.1 282.76 1626.8 283.66 1626 284.06C1624.7 284.56 1623.4 285.16 1622.1 285.66C1621.3 285.96 1620.4 285.66 1620 284.86C1619.7 284.06 1620 283.16 1620.8 282.76C1622.1 282.26 1623.5 281.66 1624.7 281.16C1625 280.96 1625.4 280.96 1625.7 281.06ZM1351.9 210.86C1352.3 210.96 1352.6 211.26 1352.9 211.66C1353.6 212.86 1354.2 214.06 1355 215.26C1355.4 215.96 1355.2 216.96 1354.5 217.36C1353.8 217.76 1352.8 217.56 1352.4 216.76C1351.7 215.56 1351 214.36 1350.4 213.06C1350 212.36 1350.2 211.36 1351 210.96C1351.2 210.96 1351.6 210.86 1351.9 210.86ZM1617.8 284.16C1618.3 284.26 1618.7 284.56 1618.9 285.16C1619.2 285.96 1618.8 286.86 1618 287.16C1616.7 287.66 1615.4 288.16 1614 288.56C1613.2 288.86 1612.3 288.46 1612 287.66C1611.7 286.86 1612.1 285.96 1612.9 285.66C1614.3 285.16 1615.5 284.66 1616.8 284.16C1617.2 284.16 1617.5 284.16 1617.8 284.16ZM1356.2 218.26C1356.6 218.36 1356.9 218.56 1357.2 218.96C1357.9 220.16 1358.7 221.26 1359.4 222.56C1359.8 223.26 1359.7 224.26 1358.9 224.76C1358.2 225.16 1357.2 225.06 1356.7 224.26C1356 223.06 1355.2 221.76 1354.4 220.66C1354 219.96 1354.2 218.96 1355 218.56C1355.3 218.16 1355.7 218.16 1356.2 218.26ZM1609.9 286.96C1610.4 287.06 1610.8 287.46 1611 287.96C1611.3 288.76 1610.9 289.66 1610 289.96C1608.6 290.46 1607.3 290.86 1605.9 291.26C1605.1 291.56 1604.2 291.06 1603.9 290.26C1603.6 289.46 1604.1 288.56 1604.9 288.26C1606.2 287.86 1607.6 287.36 1608.9 286.86C1609.3 286.96 1609.6 286.96 1609.9 286.96ZM1360.7 225.36C1361.1 225.46 1361.4 225.66 1361.7 226.06C1362.4 227.16 1363.3 228.46 1364.1 229.46C1364.6 230.26 1364.4 231.16 1363.7 231.66C1362.9 232.16 1362 231.96 1361.5 231.26C1360.7 230.16 1359.9 228.96 1359.1 227.76C1358.6 226.96 1358.8 226.06 1359.6 225.56C1359.8 225.36 1360.3 225.26 1360.7 225.36ZM1601.9 289.56C1602.4 289.66 1602.9 290.16 1603.1 290.66C1603.4 291.46 1602.9 292.36 1602.1 292.66C1600.8 293.06 1599.4 293.46 1598 293.86C1597.1 294.06 1596.3 293.66 1596 292.76C1595.8 291.86 1596.2 291.06 1597.1 290.76C1598.4 290.36 1599.8 289.96 1601.1 289.66C1601.3 289.56 1601.6 289.56 1601.9 289.56ZM1365.6 232.26C1365.9 232.36 1366.3 232.56 1366.5 232.86C1367.3 233.96 1368.2 235.06 1369 236.16C1369.6 236.86 1369.4 237.86 1368.7 238.36C1368 238.96 1367 238.76 1366.5 238.06C1365.7 236.96 1364.8 235.76 1364 234.76C1363.4 234.06 1363.6 233.06 1364.4 232.56C1364.6 232.26 1365.1 232.16 1365.6 232.26ZM1593.7 291.86C1594.3 292.06 1594.7 292.46 1594.9 292.96C1595.1 293.86 1594.6 294.66 1593.8 294.96C1592.5 295.36 1591 295.66 1589.7 295.96C1588.8 296.16 1588 295.66 1587.8 294.76C1587.6 293.86 1588.1 293.06 1589 292.86C1590.3 292.46 1591.7 292.26 1593.1 291.86C1593.1 291.76 1593.5 291.76 1593.7 291.86ZM1585.5 293.86C1586.1 293.96 1586.5 294.46 1586.6 295.06C1586.8 295.96 1586.3 296.76 1585.4 296.96C1584 297.26 1582.7 297.56 1581.2 297.86C1580.3 298.06 1579.5 297.56 1579.3 296.66C1579.1 295.76 1579.6 294.96 1580.5 294.76C1581.9 294.46 1583.2 294.26 1584.6 293.86C1585 293.76 1585.3 293.76 1585.5 293.86ZM1370.7 238.86C1371 238.96 1371.4 239.16 1371.5 239.36C1372.4 240.36 1373.3 241.46 1374.2 242.56C1374.8 243.26 1374.7 244.26 1374 244.76C1373.3 245.36 1372.3 245.26 1371.8 244.56C1370.8 243.46 1370 242.46 1369 241.26C1368.4 240.56 1368.5 239.56 1369.3 239.06C1369.8 238.96 1370.2 238.76 1370.7 238.86ZM1577.2 295.56C1577.8 295.66 1578.3 296.16 1578.3 296.76C1578.5 297.66 1577.9 298.36 1577 298.56C1575.6 298.86 1574.2 299.06 1572.8 299.36C1571.9 299.56 1571.2 298.96 1571 298.06C1570.8 297.16 1571.4 296.46 1572.3 296.26C1573.7 295.96 1575.1 295.76 1576.4 295.56C1576.8 295.46 1577 295.46 1577.2 295.56ZM1376.3 245.26C1376.6 245.36 1376.9 245.46 1377.1 245.76C1378.1 246.86 1379 247.86 1379.9 248.76C1380.5 249.46 1380.5 250.36 1379.8 251.06C1379.1 251.66 1378.2 251.66 1377.5 250.96C1376.5 249.96 1375.6 248.86 1374.6 247.86C1374 247.16 1374.1 246.16 1374.7 245.56C1375.1 245.26 1375.8 245.16 1376.3 245.26ZM1568.9 296.86C1569.5 297.06 1570 297.56 1570.1 298.16C1570.2 298.96 1569.7 299.76 1568.8 299.96C1567.4 300.26 1566 300.36 1564.6 300.56C1563.8 300.66 1563 300.06 1562.8 299.16C1562.7 298.36 1563.3 297.56 1564.2 297.36C1565.6 297.16 1567 296.96 1568.4 296.76C1568.5 296.86 1568.7 296.86 1568.9 296.86ZM1382 251.46C1382.3 251.56 1382.5 251.66 1382.7 251.86C1383.7 252.86 1384.7 253.86 1385.7 254.66C1386.4 255.26 1386.4 256.26 1385.8 256.86C1385.2 257.56 1384.2 257.56 1383.6 256.96C1382.6 255.96 1381.5 254.96 1380.5 253.96C1379.8 253.36 1379.9 252.36 1380.5 251.66C1381 251.46 1381.5 251.26 1382 251.46ZM1560.5 298.06C1561.1 298.26 1561.6 298.76 1561.7 299.36C1561.8 300.16 1561.2 300.96 1560.3 301.06C1558.9 301.26 1557.5 301.36 1556.1 301.56C1555.3 301.66 1554.5 301.06 1554.4 300.16C1554.3 299.36 1554.9 298.56 1555.8 298.46C1557.2 298.26 1558.6 298.16 1560 297.96C1560.2 297.96 1560.4 297.96 1560.5 298.06ZM1552.2 298.86C1552.9 299.06 1553.4 299.56 1553.4 300.26C1553.5 301.06 1552.8 301.86 1551.9 301.96C1550.5 302.16 1549.1 302.16 1547.7 302.36C1546.9 302.46 1546.1 301.76 1546 300.86C1545.9 300.06 1546.6 299.26 1547.5 299.16C1548.9 299.06 1550.3 298.96 1551.7 298.86C1551.9 298.76 1552 298.76 1552.2 298.86ZM1388.3 257.16C1388.5 257.16 1388.8 257.36 1388.9 257.56C1389.9 258.46 1391 259.36 1392.1 260.26C1392.8 260.86 1392.8 261.76 1392.3 262.46C1391.7 263.16 1390.8 263.16 1390.1 262.66C1389 261.76 1387.9 260.86 1386.9 259.86C1386.2 259.26 1386.2 258.36 1386.7 257.66C1387.1 257.16 1387.7 257.06 1388.3 257.16ZM1543.8 299.36C1544.5 299.56 1545 300.06 1545 300.76C1545.1 301.56 1544.4 302.36 1543.5 302.46C1542.1 302.56 1540.7 302.56 1539.2 302.56C1538.4 302.56 1537.6 301.96 1537.5 300.96C1537.5 300.16 1538.1 299.36 1539.1 299.26C1540.5 299.16 1541.9 299.16 1543.3 299.06C1543.5 299.36 1543.6 299.36 1543.8 299.36ZM1394.8 262.46C1395 262.46 1395.2 262.56 1395.4 262.66C1396.5 263.46 1397.6 264.36 1398.8 265.16C1399.5 265.66 1399.7 266.66 1399.2 267.36C1398.7 268.06 1397.7 268.26 1397 267.76C1395.9 266.96 1394.8 266.06 1393.5 265.26C1392.8 264.76 1392.7 263.66 1393.3 263.06C1393.5 262.56 1394.2 262.26 1394.8 262.46ZM1535.3 299.66C1536 299.86 1536.4 300.46 1536.5 301.16C1536.5 301.96 1535.8 302.76 1535 302.76C1533.5 302.76 1532.2 302.76 1530.8 302.76C1530 302.76 1529.2 302.06 1529.2 301.26C1529.2 300.46 1529.9 299.66 1530.7 299.66C1532.1 299.76 1533.5 299.66 1534.9 299.66C1535 299.56 1535.2 299.66 1535.3 299.66ZM1526.9 299.66C1527.6 299.86 1528.1 300.46 1528.1 301.16C1528.1 301.96 1527.4 302.76 1526.5 302.66C1525.1 302.56 1523.7 302.56 1522.3 302.56C1521.4 302.56 1520.7 301.86 1520.8 300.96C1520.8 300.06 1521.5 299.36 1522.4 299.46C1523.8 299.56 1525.2 299.56 1526.6 299.66C1526.7 299.56 1526.8 299.66 1526.9 299.66ZM1401.7 267.46C1401.9 267.46 1402 267.56 1402.2 267.66C1403.3 268.46 1404.5 269.16 1405.7 269.96C1406.4 270.46 1406.7 271.36 1406.2 272.16C1405.7 272.86 1404.8 273.16 1404 272.66C1402.8 271.96 1401.6 271.16 1400.4 270.36C1399.7 269.86 1399.4 268.86 1399.9 268.16C1400.3 267.46 1401 267.26 1401.7 267.46ZM1518.5 299.36C1519.2 299.56 1519.7 300.16 1519.6 300.96C1519.6 301.86 1518.8 302.46 1518 302.46C1516.6 302.36 1515.1 302.36 1513.7 302.16C1512.8 302.16 1512.2 301.36 1512.3 300.46C1512.3 299.56 1513.1 298.96 1514 299.06C1515.4 299.16 1516.8 299.26 1518.2 299.36C1518.3 299.36 1518.4 299.36 1518.5 299.36ZM1408.8 271.86C1408.9 271.86 1409.1 271.96 1409.2 272.06C1410.4 272.76 1411.6 273.46 1412.8 274.06C1413.6 274.46 1413.9 275.36 1413.5 276.16C1413.1 276.96 1412.2 277.26 1411.4 276.86C1410.1 276.26 1408.9 275.46 1407.7 274.86C1407 274.46 1406.7 273.46 1407.1 272.76C1407.4 271.96 1408.1 271.66 1408.8 271.86ZM1510 298.86C1510.8 299.06 1511.2 299.66 1511.2 300.56C1511.2 301.46 1510.4 302.06 1509.5 301.96C1508.1 301.76 1506.7 301.76 1505.3 301.56C1504.4 301.46 1503.8 300.66 1503.9 299.86C1504 298.96 1504.8 298.36 1505.6 298.46C1507 298.66 1508.4 298.66 1509.7 298.76C1509.8 298.76 1509.9 298.76 1510 298.86ZM1416.4 275.66C1416.5 275.66 1416.6 275.66 1416.7 275.76C1418 276.36 1419.2 276.96 1420.5 277.46C1421.3 277.76 1421.7 278.66 1421.3 279.56C1421 280.36 1420.1 280.76 1419.2 280.36C1417.9 279.86 1416.6 279.26 1415.3 278.66C1414.5 278.26 1414.2 277.36 1414.5 276.56C1414.8 275.86 1415.6 275.46 1416.4 275.66ZM1501.7 297.96C1502.5 298.16 1503 298.96 1502.9 299.76C1502.8 300.66 1502 301.26 1501.2 301.16C1499.8 300.96 1498.4 300.86 1497 300.66C1496.1 300.56 1495.5 299.76 1495.6 298.86C1495.7 297.96 1496.5 297.36 1497.4 297.46C1498.8 297.66 1500.2 297.86 1501.7 297.96C1501.5 298.06 1501.6 297.96 1501.7 297.96ZM1424.1 278.86C1424.2 278.86 1424.2 278.86 1424.3 278.86C1425.6 279.36 1426.9 279.86 1428.3 280.26C1429.1 280.56 1429.5 281.46 1429.2 282.26C1428.9 283.06 1428 283.46 1427.2 283.16C1425.9 282.76 1424.6 282.16 1423.2 281.76C1422.4 281.46 1422 280.56 1422.3 279.76C1422.5 279.06 1423.3 278.66 1424.1 278.86ZM1493.3 296.96C1494.1 297.16 1494.6 297.96 1494.5 298.76C1494.4 299.66 1493.6 300.26 1492.7 300.06C1491.3 299.86 1489.9 299.66 1488.5 299.36C1487.6 299.26 1487.1 298.46 1487.2 297.56C1487.3 296.66 1488.1 296.16 1489 296.26C1490.4 296.56 1491.8 296.66 1493.3 296.96C1493.2 296.96 1493.3 296.96 1493.3 296.96ZM1432 281.86C1433.4 282.36 1434.8 282.76 1436.1 283.26C1436.9 283.56 1437.4 284.36 1437.1 285.26C1436.8 286.06 1436 286.56 1435.1 286.26C1433.8 285.86 1432.4 285.36 1431.1 284.96C1430.3 284.66 1429.8 283.86 1430.2 282.96C1430.4 282.06 1431.2 281.66 1432 281.86ZM1484.9 295.66C1485.7 295.86 1486.2 296.66 1486.1 297.46C1486 298.36 1485.1 298.86 1484.3 298.76C1482.9 298.46 1481.5 298.26 1480.2 297.96C1479.3 297.86 1478.8 296.96 1478.9 296.06C1479 295.16 1479.9 294.66 1480.8 294.76C1482.2 295.06 1483.6 295.26 1484.9 295.66C1484.9 295.76 1484.9 295.66 1484.9 295.66ZM1440 284.56C1440 284.56 1440.1 284.56 1440 284.56C1441.4 285.06 1442.8 285.46 1444.1 285.86C1445 286.06 1445.4 286.96 1445.1 287.86C1444.9 288.76 1444 289.16 1443.1 288.86C1441.8 288.46 1440.4 288.06 1439.1 287.66C1438.3 287.36 1437.8 286.56 1438.1 285.66C1438.4 284.76 1439.2 284.36 1440 284.56ZM1476.7 294.16C1477.5 294.36 1478 295.26 1477.9 296.06C1477.7 296.96 1476.9 297.46 1476 297.36C1474.6 297.06 1473.3 296.76 1471.9 296.46C1471 296.26 1470.5 295.46 1470.7 294.56C1470.9 293.66 1471.7 293.16 1472.6 293.36C1473.9 293.66 1475.3 293.86 1476.7 294.16ZM1448 287.06C1448 287.06 1448.1 287.06 1448 287.06C1449.4 287.56 1450.8 287.86 1452.1 288.26C1453 288.46 1453.5 289.36 1453.2 290.16C1453 291.06 1452.1 291.56 1451.3 291.26C1449.9 290.96 1448.6 290.46 1447.3 290.16C1446.4 289.96 1446 288.96 1446.2 288.26C1446.4 287.36 1447.2 286.86 1448 287.06ZM1468.4 292.46C1469.3 292.66 1469.8 293.56 1469.6 294.36C1469.4 295.26 1468.5 295.76 1467.7 295.56C1466.3 295.16 1465 294.96 1463.6 294.56C1462.7 294.36 1462.2 293.46 1462.5 292.66C1462.8 291.86 1463.6 291.26 1464.4 291.56C1465.7 291.86 1467.1 292.06 1468.4 292.46ZM1456.2 289.36C1457.4 289.66 1458.6 289.96 1459.8 290.26L1460.3 290.36C1461.2 290.56 1461.7 291.46 1461.4 292.26C1461.2 293.16 1460.3 293.66 1459.5 293.36L1459 293.26C1457.8 292.96 1456.6 292.66 1455.4 292.36C1454.5 292.16 1454 291.26 1454.3 290.46C1454.5 289.66 1455.3 289.16 1456.2 289.36Z" fill="#BFE3ED"/>
<path d="M1345.6 49.7596C1352.56 49.7596 1358.2 44.1184 1358.2 37.1596C1358.2 30.2008 1352.56 24.5596 1345.6 24.5596C1338.64 24.5596 1333 30.2008 1333 37.1596C1333 44.1184 1338.64 49.7596 1345.6 49.7596Z" fill="#BFE3ED"/>
<path d="M1327.6 117.2C1334.56 117.2 1340.2 111.559 1340.2 104.6C1340.2 97.6412 1334.56 92 1327.6 92C1320.64 92 1315 97.6412 1315 104.6C1315 111.559 1320.64 117.2 1327.6 117.2Z" fill="#BFE3ED"/>
<path d="M677 530.26C677 530.26 674.6 519.06 666.1 514.86C657.6 510.66 642.8 474.66 640.7 470.36C638.6 466.06 642.8 459.76 647.1 466.16C651.3 472.56 653.5 480.96 655.6 480.96C657.7 480.96 642.9 455.56 645 451.26C647.1 446.96 649.2 444.86 657.7 459.76C664.9 472.36 668.3 478.86 661.9 463.96C655.5 449.16 649.2 442.76 653.4 438.56C657.6 434.36 661.9 440.66 666.1 449.16C670.3 457.66 681.5 479.76 677 467.66C672.5 455.56 664 444.96 670.4 440.76C676.8 436.56 689.5 474.66 691.6 472.56C693.7 470.46 693.7 455.66 704.3 455.66C704.3 455.66 710.7 455.66 706.4 462.06C702.2 468.46 706.4 491.76 700 506.56C698.3 510.46 705.9 518.36 705.9 518.36L677 530.26Z" fill="#F8C7A8"/>
<path d="M878.8 580.56L875.3 629.46C875.3 629.46 895.8 647.06 924.7 630.26L924.3 593.56C924.4 593.66 889.9 561.16 878.8 580.56Z" fill="#F5B091"/>
<path d="M1006.2 800.26H794.3C797.2 747.16 806.8 688.36 832.8 652.76C842.1 639.96 853.6 630.06 867.5 624.66C867.5 624.66 867.6 624.66 867.6 624.56C869.8 623.76 872 622.96 874.3 622.36C874.4 622.26 874.4 622.26 874.4 622.26C874.9 622.16 875.3 622.06 875.7 621.96C880.2 621.46 880.9 625.86 890.7 627.56C893.2 627.96 896.2 628.26 900 628.26C907.7 628.26 912.7 627.76 915.9 627.06C922.3 625.66 922.4 623.66 924.5 623.66C925.3 623.66 926.4 623.86 928.3 624.66C983.1 644.96 1001.1 727.86 1006.2 800.26Z" fill="#E15935"/>
<path d="M943.5 550.86C943.5 550.86 942.2 527.96 937.6 521.36C920.4 496.66 863.5 492.26 858.6 543.56C858.6 543.56 857.7 538.86 857.1 547.76C857.1 547.76 848 540.56 848.1 552.96C848.1 564.26 849.7 568.96 858.7 576.96C858.7 576.96 873.6 610.16 909.3 608.36C922.9 607.66 933.5 593.86 938.4 580.66C943.6 566.06 943.5 550.86 943.5 550.86Z" fill="#F8C7A8"/>
<path d="M941.8 549.96C941.8 549.96 946.3 545.16 949.2 548.96C952.1 552.76 951.3 570.96 941.7 575.16C932.1 579.36 941.8 549.96 941.8 549.96Z" fill="#F8C7A8"/>
<path d="M873.6 575.56C878.239 575.56 882 571.799 882 567.16C882 562.521 878.239 558.76 873.6 558.76C868.961 558.76 865.2 562.521 865.2 567.16C865.2 571.799 868.961 575.56 873.6 575.56Z" fill="#F5B091"/>
<path d="M928.9 575.56C933.539 575.56 937.3 571.799 937.3 567.16C937.3 562.521 933.539 558.76 928.9 558.76C924.261 558.76 920.5 562.521 920.5 567.16C920.5 571.799 924.261 575.56 928.9 575.56Z" fill="#F5B091"/>
<path d="M887.9 555.66C888.784 555.66 889.5 554.944 889.5 554.06C889.5 553.176 888.784 552.46 887.9 552.46C887.016 552.46 886.3 553.176 886.3 554.06C886.3 554.944 887.016 555.66 887.9 555.66Z" fill="#192624"/>
<path d="M919.9 554.76C920.784 554.76 921.5 554.044 921.5 553.16C921.5 552.276 920.784 551.56 919.9 551.56C919.016 551.56 918.3 552.276 918.3 553.16C918.3 554.044 919.016 554.76 919.9 554.76Z" fill="#192624"/>
<path d="M900.1 568.06C900.1 568.06 906.9 570.46 909.9 565.26C909.8 565.26 907.6 574.06 900.1 568.06Z" fill="#F5B091"/>
<path d="M892.5 537.86C892.5 537.86 883.9 533.36 878.2 540.66" stroke="#F7EAE7" stroke-width="2" stroke-miterlimit="10" stroke-linecap="round"/>
<path d="M916.2 538.86C916.2 538.86 924.8 534.36 930.5 541.66" stroke="#F7EAE7" stroke-width="2" stroke-miterlimit="10" stroke-linecap="round"/>
<path d="M881.2 559.86C881.9 560.56 883.2 561.56 885 562.36C887.8 563.46 890.3 563.06 891.4 562.86" stroke="#F5B091" stroke-width="0.5" stroke-miterlimit="10"/>
<path d="M915.3 562.66C916.3 562.96 917.8 563.36 919.8 563.26C922.8 563.06 924.9 561.56 925.8 560.96" stroke="#F5B091" stroke-width="0.5" stroke-miterlimit="10"/>
<path d="M895.7 584.26C895.7 584.26 896.5 588.36 902.3 589.06C908.1 589.76 909.9 582.56 904.8 584.36C899.7 586.16 895.5 580.46 895.7 584.26Z" fill="#F5B091" stroke="#1E1E1C" stroke-width="0.1" stroke-miterlimit="10"/>
<path d="M889.4 579.96C893.8 575.56 904.9 566.86 914.1 580.16C914.7 580.96 914.2 582.26 913.3 582.26L890.1 582.16C889.1 582.16 888.7 580.76 889.4 579.96Z" fill="#F7EAE7"/>
<path d="M899.4 587.06C899.4 587.06 900.8 585.96 902 586.76C902 586.76 903.4 585.86 904.9 587.66C904.9 587.66 902 588.96 899.4 587.06Z" fill="#F8C7A8"/>
<path d="M921.4 781.46C918.6 787.76 915.7 793.96 912.9 800.26H910.5C906.7 794.16 902.9 788.06 899 781.96C902.5 773.96 906 765.96 909.5 757.96C913.5 765.76 917.5 773.66 921.4 781.46Z" fill="#CE4023"/>
<path d="M886.8 725.46C887.8 723.26 888.7 721.06 889.7 718.86C893.7 726.76 897.6 734.56 901.6 742.46C898.4 749.46 895.2 756.36 892.1 763.36C889.4 758.96 886.7 754.66 883.9 750.26L886.8 725.46Z" fill="#CE4023"/>
<path d="M888.3 794.96C887.5 796.76 886.7 798.46 885.9 800.26H877.1L880.1 778.86C882.9 784.26 885.6 789.56 888.3 794.96Z" fill="#CE4023"/>
<path d="M922.6 746.16C919.2 740.76 915.8 735.26 912.4 729.86C914.7 724.56 917.1 719.26 919.4 713.86L922.6 746.16Z" fill="#CE4023"/>
<path d="M900.5 669.06C897 677.06 893.5 685.06 890 693.06C894.3 699.86 898.5 706.76 902.8 713.56C906 706.56 909.2 699.56 912.3 692.66C908.5 684.76 904.5 676.86 900.5 669.06Z" fill="#CE4023"/>
<path d="M996.4 800.26C992.2 773.46 986.4 745.36 978.6 718.96" stroke="#1A223C" stroke-miterlimit="10" stroke-linecap="round"/>
<path d="M866.9 540.66C866.9 540.66 871.4 531.46 872.8 531.96C874.2 532.46 937.3 533.36 937.3 533.36C937.3 533.36 940.2 537.96 940.3 539.56C940.5 541.16 941.9 526.86 941.9 526.86L868.4 527.96L866.9 540.66Z" fill="#F5B091"/>
<path d="M871.9 529.66C873 529.76 874.1 529.86 875.2 529.96L871.9 529.66ZM871.9 529.66C873 529.76 874.1 529.86 875.2 529.96L871.9 529.66ZM871.9 529.66C873 529.76 874.1 529.86 875.2 529.96L871.9 529.66ZM940.8 512.56C933.1 503.76 923 501.16 898.2 502.16C857.8 503.86 854.8 526.26 856.7 547.46C857.5 555.86 859 564.06 859.2 570.66C859.1 573.16 859.1 575.76 859.3 578.16C859.4 579.46 859.5 580.66 859.7 581.86C861.2 592.86 866.2 602.56 876.8 608.36C883.6 612.16 892.8 614.26 904.9 614.26C913.2 614.26 919.6 612.56 924.5 609.86C938.4 602.06 940.4 585.86 940.7 575.36C940.7 574.16 940.8 572.96 940.8 571.96C940.8 571.46 940.8 571.06 940.8 570.56C940.8 569.56 941 567.46 941.3 565.36C941.6 563.26 941.9 561.16 942.2 560.06C942.4 559.16 942.7 558.06 943.1 556.86C943.4 555.66 943.8 554.36 944.1 552.96C944.5 551.36 944.9 549.56 945.3 547.66C946.2 543.16 947 538.06 947 532.86C947.2 525.46 945.6 518.06 940.8 512.56ZM938.7 561.06C938.5 562.36 938.2 563.76 937.9 565.16C937.7 565.86 937.5 566.56 937.3 567.26C936.5 569.96 935.7 572.06 935.7 572.06C935.7 572.06 935.7 572.06 935.7 572.16C935.1 573.76 934.5 575.46 933.9 577.26C932.1 582.46 926.1 586.46 919.2 589.16C912.7 591.76 905.4 593.16 900.1 593.36C894.1 593.56 885.6 589.66 878.5 585.26C874.8 582.96 871.5 580.46 869.2 578.36C868.1 577.36 867.2 576.46 866.6 575.66C862.1 569.96 863.5 555.26 863.5 554.96C864.7 548.96 865.9 544.36 867 540.86C869.7 532.26 872 529.86 872 529.86C873.1 529.96 874.2 530.06 875.3 530.16C890.2 531.26 911.8 531.16 923.1 530.96C925.9 530.96 932.5 531.16 936.3 531.26C937.9 531.36 939 531.36 939 531.36C939 531.46 939.1 531.56 939.1 531.76C939.5 533.36 940.1 536.36 940.5 539.76C940.5 539.76 940.5 539.76 940.5 539.86C940.8 542.16 940.9 544.66 940.9 546.96C940.7 549.96 940.3 552.46 939.9 554.56C939.5 556.96 939.1 559.06 938.8 561.16C938.8 560.96 938.8 560.96 938.7 561.06ZM871.9 529.66C873 529.76 874.1 529.86 875.2 529.96L871.9 529.66ZM871.9 529.66C873 529.76 874.1 529.86 875.2 529.96L871.9 529.66Z" fill="#F7EAE7"/>
<path d="M875.2 529.96L871.7 523.86L871.9 529.66L875.2 529.96Z" fill="#F5B091"/>
<path d="M935.7 531.96L938.9 525.76L939 531.56L935.7 531.96Z" fill="#F5B091"/>
<path d="M895.7 637.36C895.7 637.46 895.7 637.46 895.7 637.56C895.6 640.36 893.7 661.76 890.5 692.06C890.5 692.56 890.4 693.06 890.3 693.56C889.3 703.36 888.1 714.16 886.8 725.46C885.9 733.06 885 740.96 884 748.96C884 749.06 884 749.16 884 749.36C884 749.66 883.9 750.06 883.9 750.36C882.7 759.66 881.5 769.26 880.2 778.86C879.2 785.96 878.2 793.16 877.2 800.26H784.1C790.9 753.26 798.9 721.26 798.9 721.26C773.3 714.96 736 680.86 710.5 653.56C710.3 653.36 710.1 653.16 709.9 652.96C681.3 622.16 663.7 529.76 663.7 529.76C667.1 527.66 670.8 525.76 674.6 523.96C683.9 519.46 693.8 515.76 701.8 513.06C711.6 509.76 718.6 507.86 718.6 507.86C724.7 521.46 738 561.76 745.8 578.76C750.3 588.56 757.5 596.76 766.7 602.36C766.8 602.46 766.9 602.46 767 602.56C770.5 604.66 776.1 609.76 782.9 615.46C797.8 627.86 818.2 643.16 834 635.86C857 625.16 867.4 624.86 867.4 624.86C867.4 624.86 867.5 624.86 867.5 624.76C868.7 624.16 875.3 620.66 875.8 619.96C877 618.36 885.2 622.16 890.6 627.86C893.7 630.56 895.8 633.96 895.7 637.36Z" fill="#2C325A"/>
<path d="M1044.7 800.26H928.8C926.5 782.06 924.5 763.76 922.7 746.26C921.5 735.16 920.5 724.26 919.5 714.06C915.8 675.26 913.5 644.66 912.8 635.76C912.7 634.16 912.6 633.26 912.6 633.16C912.4 632.26 914 629.76 916.2 627.26C918.9 624.06 922.6 620.66 924.8 619.36C925.9 618.76 926.6 618.66 926.7 619.46C927 622.56 938.6 627.46 942.5 628.96C942.9 629.16 943.3 629.26 943.7 629.46C963.4 637.56 997.9 657.96 1017.6 706.16C1027.3 730.16 1037.2 764.56 1044.7 800.26Z" fill="#2C325A"/>
<path d="M871.4 628.06C871.4 628.06 883.3 636.66 887.4 643.06" stroke="#4C557D" stroke-width="2" stroke-miterlimit="10" stroke-linecap="round"/>
<path d="M918.9 641.06C918.9 641.06 924.7 630.16 932 628.06" stroke="#4C557D" stroke-width="2" stroke-miterlimit="10" stroke-linecap="round"/>
<path d="M488.6 381.36C467.3 381.36 450 364.06 450 342.66V186.86C450 165.46 467.3 148.16 488.6 148.16H754.7C776 148.16 793.3 165.46 793.3 186.86V342.76C793.3 364.16 776 381.46 754.7 381.46H726.4L737.3 423.56C739.5 432.06 730 438.76 722.8 433.86L645.5 381.46H488.6V381.36Z" fill="#F7E7E5"/>
<path d="M488.6 148.16C467.3 148.16 450 165.46 450 186.86V342.76C450 364.16 467.3 381.46 488.6 381.46H645.3L722.6 433.86C729.9 438.76 739.3 432.06 737.1 423.56L726.2 381.46H754.5C775.8 381.46 793.1 364.16 793.1 342.76V331.16C771.6 338.76 748.5 342.96 724.4 342.96C614.6 342.96 525 256.66 519.6 148.26H488.6V148.16Z" fill="#F7E7E5"/>
<path d="M310.1 126.06C272.2 181.36 201.4 143.96 159.4 197.46C128.3 237.06 149.8 279.56 112.4 302.96C86.4 319.26 52.9 313.16 47.9 312.16C23.2 307.26 6.9 294.26 0 287.86V0.159668C97.8 0.159668 195.6 0.259644 293.4 0.259644C293.4 0.259644 308.4 7.55966 318.7 25.4597C325.8 37.9597 335.9 88.4597 310.1 126.06Z" fill="#1A7B9F"/>
<path d="M123.2 344.56C82.2 360.86 55.5 320.96 51.5 306.76C51.5 306.66 51.4 306.56 51.4 306.36C49.2 298.66 45.6 293.36 41.4 289.76C32.1 281.66 21.9 288.76 5.8 279.36C3.2 277.86 1.2 276.36 0 275.36C0 183.66 0 91.8597 0 0.159668C31.7 37.7597 52.6 62.4597 65.7 77.9597C65.8 78.1597 66.1 78.3596 66.4 78.7596C82.8 98.2596 98 116.26 108 135.26C109.9 138.96 133 184.06 125.8 218.26C125.1 221.66 122.8 229.46 125.3 238.86C127.3 246.26 131.7 254.76 140.7 263.96C168.4 292.56 164.1 328.26 123.2 344.56Z" fill="#2B325B"/>
<path d="M0 0.259766C7.4 25.1598 27.7 83.1598 72.7 120.16C83.9 129.36 108.1 149.26 133.2 144.86C144.6 142.86 155.3 136.36 155.3 136.36C170.7 127.16 177.2 114.96 177.2 114.96C180.3 107.36 182 100.56 182.7 94.5598C182.7 94.5598 183.5 86.4598 182.2 78.5598C178.8 57.2598 153 37.4598 150.6 35.6598C124.9 16.2598 70.3 1.45977 0 0.259766Z" fill="#EDAD1E"/>
<path d="M151.3 98.2598C151.3 98.2598 94.5 94.4598 56.2 37.2598" stroke="#FEDDA5" stroke-miterlimit="10" stroke-linecap="round"/>
<path d="M103.7 313.26C89.4 290.06 74.7 263.26 61.1 232.86C38.8 183.26 25.2 137.16 16.7 98.2598" stroke="#FEDDA5" stroke-miterlimit="10" stroke-linecap="round"/>
<path d="M385.3 733.76C425.782 733.76 458.6 700.942 458.6 660.46C458.6 619.977 425.782 587.16 385.3 587.16C344.818 587.16 312 619.977 312 660.46C312 700.942 344.818 733.76 385.3 733.76Z" stroke="white" stroke-miterlimit="10" stroke-linecap="round"/>
<path d="M0 741.36L63.7 775.06L93 570.16L0 655.16" stroke="white" stroke-miterlimit="10" stroke-linecap="round"/>
<path d="M519.7 148.16C519.7 148.16 548.2 403.06 793.2 331.06" stroke="white" stroke-miterlimit="10" stroke-linecap="round"/>
</g>
</g>
<defs>
<clipPath id="clip0">
<rect width="1440" height="800" fill="white"/>
</clipPath>
<clipPath id="clip1">
<rect width="1684.5" height="1258.9" fill="white" transform="translate(0 -314)"/>
</clipPath>
</defs>
</svg>
