<svg width="75" height="75" viewBox="0 0 75 75" fill="none" xmlns="http://www.w3.org/2000/svg">
    <circle cx="37.5" cy="37.5" r="36.5" fill="white" stroke="#04D99D" stroke-width="2"/>
    <path d="M39.6585 62.5C39.656 62.5 39.651 62.5 39.6485 62.5C38.9896 62.4948 38.4251 62.0056 38.3007 61.3325L34.7745 42.3526L32.5937 47.8276C32.3798 48.366 31.875 48.7155 31.3155 48.7155H23.8826C23.1192 48.7155 22.5 48.0709 22.5 47.2762C22.5 46.4815 23.1192 45.8369 23.8826 45.8369H30.3904L33.9813 36.8233C34.215 36.2357 34.7919 35.881 35.3987 35.9432C36.0055 36.0079 36.5028 36.479 36.6172 37.1029L39.7132 53.7711L45.4327 25.3945C45.5645 24.7395 46.1116 24.2684 46.7507 24.2503C47.3997 24.2373 47.9592 24.6774 48.1233 25.3246L53.3132 45.8343H58.6174C59.3808 45.8343 60 46.4789 60 47.2736C60 48.0683 59.3808 48.7129 58.6174 48.7129H52.2464C51.6172 48.7129 51.0676 48.2728 50.9085 47.6386L46.9372 31.9463L41.0088 61.3558C40.877 62.0237 40.3125 62.5 39.6585 62.5Z" fill="#FFCDB6"/>
    <path d="M28.6454 38.5H22.3546C21.6067 38.5 21 37.8282 21 37C21 36.1718 21.6067 35.5 22.3546 35.5H28.6454C29.3933 35.5 30 36.1718 30 37C30 37.8282 29.3933 38.5 28.6454 38.5Z" fill="#3EE5B1"/>
    <path d="M38.3837 30.25H22.3663C21.6119 30.25 21 29.5782 21 28.75C21 27.9218 21.6119 27.25 22.3663 27.25H38.3837C39.1381 27.25 39.75 27.9218 39.75 28.75C39.7525 29.5782 39.1406 30.25 38.3837 30.25Z" fill="#3EE5B1"/>
    <path d="M38.3837 22H22.3663C21.6119 22 21 21.3288 21 20.5013C21 19.6739 21.6119 19 22.3663 19H38.3837C39.1381 19 39.75 19.6712 39.75 20.4987C39.75 21.3261 39.1406 22 38.3837 22Z" fill="#3EE5B1"/>
    <path d="M16.5 22C17.3284 22 18 21.3284 18 20.5C18 19.6716 17.3284 19 16.5 19C15.6716 19 15 19.6716 15 20.5C15 21.3284 15.6716 22 16.5 22Z" fill="#FFCDB6"/>
    <path d="M16.5 30.25C17.3284 30.25 18 29.5784 18 28.75C18 27.9216 17.3284 27.25 16.5 27.25C15.6716 27.25 15 27.9216 15 28.75C15 29.5784 15.6716 30.25 16.5 30.25Z" fill="#FFCDB6"/>
    <path d="M16.5 38.5C17.3284 38.5 18 37.8284 18 37C18 36.1716 17.3284 35.5 16.5 35.5C15.6716 35.5 15 36.1716 15 37C15 37.8284 15.6716 38.5 16.5 38.5Z" fill="#FFCDB6"/>
</svg>
