<svg width="75" height="75" viewBox="0 0 75 75" fill="none" xmlns="http://www.w3.org/2000/svg">
    <rect x="1" y="1" width="73" height="73" rx="16" fill="white" stroke="#04D99D" stroke-width="2"/>
    <path d="M18.0083 38.5555C20.7374 37.6209 21.8156 33.6174 20.4165 29.6134C19.0173 25.6094 15.6707 23.1211 12.9416 24.0557C10.2124 24.9903 9.13422 28.9939 10.5333 32.9979C11.9325 37.0019 15.2791 39.4901 18.0083 38.5555Z" fill="#FFCDB6"/>
    <path d="M49.2139 18.0451C49.8127 13.8495 47.9799 10.1242 45.1202 9.72422C42.2605 9.32424 39.4569 12.4011 38.8581 16.5966C38.2593 20.7921 40.0922 24.5175 42.9518 24.9175C45.8115 25.3175 48.6152 22.2406 49.2139 18.0451Z" fill="#FFCDB6"/>
    <path d="M65.7389 31.2676C66.9878 27.2149 65.7608 23.2532 62.9985 22.4189C60.2361 21.5847 56.9844 24.1937 55.7355 28.2465C54.4866 32.2992 55.7135 36.2609 58.4758 37.0952C61.2382 37.9294 64.49 35.3203 65.7389 31.2676Z" fill="#FFCDB6"/>
    <path d="M34.6294 67.5003C36.8855 66.3962 39.587 66.3962 41.8467 67.5003C43.6429 68.3787 46.0583 69.1172 48.9807 68.9845C55.6801 68.6798 59.4245 63.4816 59.7215 56.7669C60.0184 50.0523 56.5275 49.9806 52.0262 39.0177C47.5249 28.0548 38.2399 28.9583 38.2399 28.9583C38.2399 28.9583 28.9585 28.0548 24.4536 39.0177C19.9487 49.9806 16.4577 50.0523 16.7583 56.7669C17.0552 63.4816 20.7997 68.6798 27.4991 68.9845C30.4179 69.1172 32.8333 68.3751 34.6294 67.5003Z" fill="#3EE5B1"/>
    <path d="M28.8683 25.2179C31.6804 24.5669 33.17 20.6947 32.1954 16.5691C31.2209 12.4435 28.1512 9.62674 25.3392 10.2777C22.5271 10.9287 21.0376 14.8009 22.0121 18.9265C22.9867 23.0522 26.0563 25.8689 28.8683 25.2179Z" fill="#FFCDB6"/>
</svg>
