<svg width="75" height="75" viewBox="0 0 75 75" fill="none" xmlns="http://www.w3.org/2000/svg">
    <rect x="1" y="1" width="73" height="73" rx="16" fill="white" stroke="#04D99D" stroke-width="2"/>
    <path d="M25.8207 56.1541C25.1738 56.1541 24.6519 55.6377 24.6519 54.9976V41.2384C24.6519 40.5983 25.1738 40.082 25.8207 40.082C26.4677 40.082 26.9896 40.5983 26.9896 41.2384V54.9976C26.9896 55.635 26.4677 56.1541 25.8207 56.1541Z" fill="#3EE5B1"/>
    <path d="M18.623 60C17.976 60 17.4541 59.4836 17.4541 58.8435V42.5025C17.4541 41.8624 17.976 41.346 18.623 41.346C19.2699 41.346 19.7918 41.8624 19.7918 42.5025V58.8435C19.7918 59.4836 19.2672 60 18.623 60Z" fill="#3EE5B1"/>
    <path d="M56.3798 60C55.7328 60 55.2109 59.4836 55.2109 58.8435V42.5025C55.2109 41.8624 55.7328 41.346 56.3798 41.346C57.0267 41.346 57.5487 41.8624 57.5487 42.5025V58.8435C57.5459 59.4836 57.024 60 56.3798 60Z" fill="#3EE5B1"/>
    <path d="M49.1815 56.1541C48.5346 56.1541 48.0127 55.6377 48.0127 54.9976V41.2384C48.0127 40.5983 48.5346 40.082 49.1815 40.082C49.8285 40.082 50.3504 40.5983 50.3504 41.2384V54.9976C50.3477 55.635 49.8258 56.1541 49.1815 56.1541Z" fill="#3EE5B1"/>
    <path d="M64.6951 37.2016H10.308C9.03587 37.2016 8.00293 36.1769 8.00293 34.921C8.00293 33.6623 9.03858 32.6376 10.308 32.6376H64.6951C65.9673 32.6376 67.0002 33.6623 67.0002 34.921C67.0002 36.1769 65.9673 37.2016 64.6951 37.2016Z" fill="#FFCDB6"/>
    <path d="M64.6961 30.5613H10.309C9.03684 30.5613 8.00391 29.5366 8.00391 28.2807C8.00391 27.0247 9.03956 26 10.309 26H64.6961C65.9682 26 67.0012 27.0247 67.0012 28.2807C67.0012 29.5366 65.9682 30.5613 64.6961 30.5613Z" fill="#FFCDB6"/>
    <path d="M65.8338 43.3927H9.16886C8.52191 43.3927 8 42.8763 8 42.2362C8 40.4961 9.42981 39.0815 11.1885 39.0815H63.8087C65.5674 39.0815 66.9973 40.4961 66.9973 42.2362C67 42.8763 66.4781 43.3927 65.8338 43.3927Z" fill="#FFCDB6"/>
</svg>
