<svg width="75" height="75" viewBox="0 0 75 75" fill="none" xmlns="http://www.w3.org/2000/svg">
<rect x="1" y="1" width="73" height="73" rx="16" fill="white" stroke="#04D99D" stroke-width="2"/>
<path d="M39.711 14.7188H35.2884C33.347 14.7188 31.7703 13.1095 31.7703 11.1361V10.5827C31.7703 8.60929 33.3506 7 35.2884 7H39.711C41.6488 7 43.2291 8.60565 43.2291 10.5827V11.1361C43.2291 13.1095 41.6488 14.7188 39.711 14.7188ZM35.2848 10.1458C35.0524 10.1458 34.8522 10.346 34.8522 10.5827V11.1361C34.8522 11.3764 35.0488 11.5766 35.2848 11.5766H39.7074C39.9398 11.5766 40.1364 11.3764 40.1364 11.1361V10.5827C40.1364 10.346 39.9398 10.1458 39.7074 10.1458H35.2848Z" fill="#3EE5B1"/>
<path d="M46.0784 24.8005H28.917C25.2345 24.8005 22.2349 21.7494 22.2349 17.9992C22.2349 14.2454 25.2309 11.1943 28.917 11.1943H46.0784C49.7645 11.1943 52.7606 14.2454 52.7606 17.9992C52.7606 21.7457 49.761 24.8005 46.0784 24.8005Z" fill="#FFCDB6"/>
<path fill-rule="evenodd" clip-rule="evenodd" d="M27 27C24.2386 27 22 29.2386 22 32V63C22 65.7614 24.2386 68 27 68H48C50.7614 68 53 65.7614 53 63V32C53 29.2386 50.7614 27 48 27H27ZM30 34C28.8954 34 28 34.8954 28 36V60C28 61.1046 28.8954 62 30 62C31.1046 62 32 61.1046 32 60V36C32 34.8954 31.1046 34 30 34ZM36 36C36 34.8954 36.8954 34 38 34C39.1046 34 40 34.8954 40 36V60C40 61.1046 39.1046 62 38 62C36.8954 62 36 61.1046 36 60V36ZM46 34C44.8954 34 44 34.8954 44 36V60C44 61.1046 44.8954 62 46 62C47.1046 62 48 61.1046 48 60V36C48 34.8954 47.1046 34 46 34Z" fill="#FFCDB6"/>
</svg>
