<svg width="75" height="75" viewBox="0 0 75 75" fill="none" xmlns="http://www.w3.org/2000/svg">
    <rect x="1" y="1" width="73" height="73" rx="16" fill="white" stroke="#04D99D" stroke-width="2"/>
    <path d="M39.7112 14.7188H35.2886C33.3472 14.7188 31.7705 13.1095 31.7705 11.1361V10.5827C31.7705 8.60929 33.3508 7 35.2886 7H39.7112C41.649 7 43.2293 8.60565 43.2293 10.5827V11.1361C43.2293 13.1095 41.649 14.7188 39.7112 14.7188ZM35.285 10.1458C35.0526 10.1458 34.8524 10.346 34.8524 10.5827V11.1361C34.8524 11.3764 35.0491 11.5766 35.285 11.5766H39.7076C39.94 11.5766 40.1366 11.3764 40.1366 11.1361V10.5827C40.1366 10.346 39.94 10.1458 39.7076 10.1458H35.285Z" fill="#3EE5B1"/>
    <path d="M46.0784 24.8005H28.917C25.2345 24.8005 22.2349 21.7494 22.2349 17.9992C22.2349 14.2454 25.2309 11.1943 28.917 11.1943H46.0784C49.7645 11.1943 52.7606 14.2454 52.7606 17.9992C52.7606 21.7457 49.761 24.8005 46.0784 24.8005Z" fill="#FFCDB6"/>
    <path d="M51.5701 30.0034C50.1686 28.0518 47.9984 26.9341 45.6244 26.9341H29.3712C26.9936 26.9377 24.8269 28.0591 23.4254 30.0107C22.0239 31.9622 21.6342 34.4053 22.3528 36.71L30.4794 62.768C31.4698 65.9466 34.2264 68 37.5013 68C40.7763 68 43.5328 65.9466 44.5232 62.768L52.6498 36.71C53.3648 34.4016 52.9752 31.9549 51.5701 30.0034ZM32.832 58.1259C32.7355 58.1513 32.6425 58.1623 32.5495 58.1623C32.0311 58.1623 31.5592 57.8055 31.4269 57.2702L26.3214 36.5716C26.1677 35.9381 26.5431 35.2973 27.1617 35.1407C27.7838 34.9769 28.4094 35.3665 28.5667 35.9927L33.6722 56.6913C33.826 57.3285 33.4505 57.9693 32.832 58.1259ZM38.6562 56.9862C38.6562 57.638 38.1377 58.1659 37.4978 58.1659C36.8578 58.1659 36.3394 57.638 36.3394 56.9862V36.2876C36.3394 35.6359 36.8578 35.108 37.4978 35.108C38.1377 35.108 38.6562 35.6359 38.6562 36.2876V56.9862ZM49.0638 36.5752L43.9583 57.2739C43.826 57.8091 43.3541 58.1659 42.8356 58.1659C42.7427 58.1659 42.6461 58.155 42.5532 58.1295C41.9347 57.9729 41.5557 57.3321 41.713 56.6986L46.8186 36C46.9759 35.3701 47.6051 34.9878 48.2236 35.148C48.8421 35.3009 49.2212 35.9417 49.0638 36.5752Z" fill="#FFCDB6"/>
</svg>
