<svg width="75" height="75" viewBox="0 0 75 75" fill="none" xmlns="http://www.w3.org/2000/svg">
    <rect x="1" y="1" width="73" height="73" rx="16" fill="white" stroke="#04D99D" stroke-width="2"/>
    <path d="M37.0008 25.0236C32.0554 25.0236 28.0273 20.982 28.0273 16.0118C28.0273 11.0417 32.0554 7 37.0008 7C41.9462 7 45.9743 11.0417 45.9743 16.0118C45.9743 20.982 41.9462 25.0236 37.0008 25.0236Z" fill="#FFCDB6"/>
    <path d="M37.0008 68C34.8471 68 32.6645 67.6505 30.5218 66.9514C24.873 65.1017 20.2467 60.634 18.2453 55.0157C15.9213 48.4945 16.8856 41.5654 20.8412 36.1255C24.6337 30.915 30.6995 27.8091 37.0552 27.8274C37.8674 27.831 38.5126 28.5374 38.5126 29.3493V44.8497C38.5126 45.7017 39.2016 46.3935 40.05 46.3935H55.4843C56.2965 46.3935 56.9963 47.0453 56.9999 47.8573C57.018 54.2402 53.9254 60.3318 48.7334 64.1404C45.2709 66.6856 41.192 68 37.0008 68Z" fill="#FFCDB6"/>
</svg>
