<svg width="75" height="75" viewBox="0 0 75 75" fill="none" xmlns="http://www.w3.org/2000/svg">
    <rect x="1" y="1" width="73" height="73" rx="16" fill="white" stroke="#04D99D" stroke-width="2"/>
    <path d="M25.3154 68C22.9353 68 20.5082 67.3956 17.9869 66.1867C12.4733 63.5433 5.37308 59.4179 7.3329 54.1748L8.20953 51.8262C8.20953 51.8226 8.21316 51.819 8.21316 51.819C8.50659 51.0434 9.36879 50.6392 10.144 50.9378C10.9193 51.2291 11.3105 52.0957 11.0207 52.8785C10.3577 54.6517 13.6398 57.2879 20.7727 60.7105C24.5112 62.5019 27.8222 62.7058 31.1839 61.3477C31.7708 61.1074 32.441 61.2676 32.8612 61.7446C33.2814 62.2179 33.3611 62.9061 33.0568 63.4668L31.5607 66.2231C31.3941 66.529 31.126 66.7693 30.8036 66.9004C28.9959 67.6322 27.1701 68 25.3154 68Z" fill="#3EE5B1"/>
    <path d="M65.9064 31.8767C64.595 30.0889 62.5084 29.4262 60.9471 29.4007C59.672 29.4189 58.5055 29.4153 57.3825 29.4189C55.8755 29.4262 54.4735 29.4189 52.9049 29.5974C52.9013 29.5901 52.8542 29.51 52.7818 29.2405C51.5066 24.4488 48.3478 21.3576 43.6493 20.3053C41.896 19.912 40.1861 19.9739 38.5306 20.0322C37.9618 20.054 37.3931 20.0686 36.6795 20.065C36.1216 17.1448 35.5202 14.2319 34.8971 11.3227C34.3501 8.77757 32.7163 7.20825 30.4124 7.02256C27.8729 6.81137 26.0073 8.0894 25.0799 10.5908L20.7618 22.2351C18.1499 29.2806 15.5417 36.3297 12.9081 43.368C10.9483 48.6148 18.0485 52.7365 23.5621 55.38C26.337 56.709 28.7822 57.2078 30.9268 57.2078C35.0203 57.2078 38.0198 55.4018 40.1028 54.1493C40.7512 53.7597 41.6424 53.2208 41.9104 53.1917C44.0876 53.2354 46.2684 53.2281 48.4492 53.1989C54.0533 53.1188 58.8025 50.8286 62.5664 46.3865C64.5008 44.1035 65.8086 41.2926 66.6635 37.6151C67.4605 34.8114 66.6925 32.9435 65.9064 31.8767ZM39.7876 35.7508C37.7807 35.7508 36.1505 34.1123 36.1505 32.0952C36.1505 30.0743 37.7807 28.4395 39.7876 28.4395C41.7945 28.4395 43.4247 30.078 43.4247 32.0952C43.4247 34.1123 41.7981 35.7508 39.7876 35.7508Z" fill="#FFCDB6"/>
</svg>
