<svg width="75" height="75" viewBox="0 0 75 75" fill="none" xmlns="http://www.w3.org/2000/svg">
    <rect x="1" y="1" width="73" height="73" rx="16" fill="white" stroke="#04D99D" stroke-width="2"/>
    <path d="M48.2724 36.7099H27.513C26.6834 36.7099 26.0132 36.0474 26.0132 35.2273C26.0132 34.4072 26.6834 33.7446 27.513 33.7446H48.2724C49.102 33.7446 49.7722 34.4072 49.7722 35.2273C49.7722 36.0474 49.0984 36.7099 48.2724 36.7099Z" fill="#3EE5B1"/>
    <path d="M48.2724 50.5443H27.513C26.6834 50.5443 26.0132 49.8817 26.0132 49.0616C26.0132 48.2415 26.6834 47.579 27.513 47.579H48.2724C49.102 47.579 49.7722 48.2415 49.7722 49.0616C49.7722 49.8817 49.0984 50.5443 48.2724 50.5443Z" fill="#3EE5B1"/>
    <path d="M27.5131 67H10.4999C10.1014 67 9.72103 66.8424 9.43845 66.5667C9.15586 66.2873 9 65.9113 9 65.5174L9.04714 16.4545C9.32611 11.1184 13.699 7 19.0065 7C24.3105 7 28.687 11.1184 28.9659 16.3757C28.9659 16.4007 28.9659 16.4294 28.9659 16.4545L29.0094 65.5174C29.0094 65.9077 28.85 66.2873 28.571 66.5667C28.292 66.846 27.9117 67 27.5131 67Z" fill="#FFCDB6"/>
    <path d="M65.2856 67H48.2724C47.8739 67 47.4935 66.8424 47.2109 66.5667C46.9283 66.2909 46.7725 65.9113 46.7725 65.5174L46.8196 16.4545C47.0986 11.1184 51.4714 7 56.779 7C62.0829 7 66.4594 11.1184 66.7384 16.3757C66.7384 16.4007 66.7384 16.4294 66.7384 16.4545L66.7818 65.5174C66.7818 65.9077 66.6224 66.2873 66.3434 66.5667C66.0645 66.846 65.6841 67 65.2856 67Z" fill="#FFCDB6"/>
</svg>
