<svg width="75" height="75" viewBox="0 0 75 75" fill="none" xmlns="http://www.w3.org/2000/svg">
<rect x="1" y="1" width="73" height="73" rx="16" fill="white" stroke="#04D99D" stroke-width="2"/>
<path d="M58.1619 36.2921H43.2844C42.6898 36.2921 42.2095 35.8173 42.2095 35.2295C42.2095 34.6418 42.6898 34.167 43.2844 34.167H58.1619C58.7565 34.167 59.2368 34.6418 59.2368 35.2295C59.2368 35.8173 58.7539 36.2921 58.1619 36.2921Z" fill="#3EE5B1"/>
<path d="M33.1453 36.2921H18.2678C17.6732 36.2921 17.1929 35.8173 17.1929 35.2295C17.1929 34.6418 17.6732 34.167 18.2678 34.167H33.1453C33.7399 34.167 34.2202 34.6418 34.2202 35.2295C34.2202 35.8173 33.7373 36.2921 33.1453 36.2921Z" fill="#3EE5B1"/>
<path d="M58.1619 46.2067H43.2844C42.6898 46.2067 42.2095 45.7319 42.2095 45.1442C42.2095 44.5564 42.6898 44.0816 43.2844 44.0816H58.1619C58.7565 44.0816 59.2368 44.5564 59.2368 45.1442C59.2368 45.7319 58.7539 46.2067 58.1619 46.2067Z" fill="#3EE5B1"/>
<path d="M33.1453 46.2067H18.2678C17.6732 46.2067 17.1929 45.7319 17.1929 45.1442C17.1929 44.5564 17.6732 44.0816 18.2678 44.0816H33.1453C33.7399 44.0816 34.2202 44.5564 34.2202 45.1442C34.2202 45.7319 33.7373 46.2067 33.1453 46.2067Z" fill="#3EE5B1"/>
<path d="M43.2843 58H31.0916C30.8059 58 30.5333 57.8871 30.3308 57.6894C30.1283 57.4893 30.0166 57.2198 30.0166 56.9374L30.0504 21.7757C30.2503 17.9515 33.3842 15 37.188 15C40.9891 15 44.1256 17.9515 44.3255 21.7192C44.3255 21.7372 44.3255 21.7577 44.3255 21.7757L44.3566 56.9374C44.3566 57.2172 44.2424 57.4893 44.0425 57.6894C43.8426 57.8896 43.57 58 43.2843 58Z" fill="#FFCDB6"/>
<path d="M18.2677 58H6.07495C5.78935 58 5.51674 57.8871 5.31422 57.6894C5.1117 57.4893 5 57.2198 5 56.9374L5.03379 21.7757C5.23371 17.9515 8.36759 15 12.1714 15C15.9725 15 19.109 17.9515 19.3089 21.7192C19.3089 21.7372 19.3089 21.7577 19.3089 21.7757L19.34 56.9374C19.34 57.2172 19.2258 57.4893 19.0259 57.6894C18.826 57.8896 18.5534 58 18.2677 58Z" fill="#FFCDB6"/>
<path d="M70.3547 58H58.1619C57.8763 58 57.6037 57.8871 57.4011 57.6894C57.1986 57.4918 57.0869 57.2198 57.0869 56.9374L57.1207 21.7757C57.3206 17.9515 60.4545 15 64.2583 15C68.0594 15 71.1959 17.9515 71.3958 21.7192C71.3958 21.7372 71.3958 21.7577 71.3958 21.7757L71.4269 56.9374C71.4269 57.2172 71.3127 57.4893 71.1128 57.6894C70.9129 57.8896 70.6403 58 70.3547 58Z" fill="#FFCDB6"/>
</svg>

