<svg width="75" height="75" viewBox="0 0 75 75" fill="none" xmlns="http://www.w3.org/2000/svg">
    <circle cx="37.5" cy="37.5" r="36.5" fill="white" stroke="#04D99D" stroke-width="2"/>
    <path d="M43.3731 54.0595L39.8841 42.9529C39.1466 40.6031 35.856 40.6031 35.1185 42.9529L31.6295 54.0595C31.1184 55.6895 32.3212 57.3529 34.0123 57.3529H40.9903C42.6814 57.3504 43.8842 55.6895 43.3731 54.0595Z" fill="#3EE5B1"/>
    <path d="M65.968 48.4702C65.8739 48.4702 65.7747 48.4574 65.6806 48.4317L8.7477 32.795C8.16536 32.6356 7.82204 32.0288 7.97971 31.4401C8.13992 30.8513 8.75025 30.5094 9.31988 30.6637L66.2528 46.3003C66.8351 46.4597 67.1784 47.0665 67.0208 47.6552C66.8885 48.1463 66.4486 48.4702 65.968 48.4702Z" fill="#FFCDB6"/>
    <path d="M20.3259 24.0383C20.12 24.0383 19.9165 24.0177 19.7105 23.9766C18.884 23.8146 18.1669 23.3364 17.6965 22.6268C17.2235 21.9198 17.0531 21.0662 17.2159 20.2306C17.549 18.503 19.2095 17.3769 20.921 17.7034C22.6324 18.0453 23.7514 19.7242 23.4182 21.4519V21.4544C23.2555 22.2926 22.7825 23.0176 22.0806 23.4932C21.5542 23.8506 20.9464 24.0383 20.3259 24.0383Z" fill="#FFCDB6"/>
    <path d="M18.5306 34.5972C15.802 34.5972 13.5845 32.3528 13.5845 29.5967C13.5845 26.8406 15.8045 24.5962 18.5306 24.5962C21.2567 24.5962 23.4793 26.838 23.4793 29.5941C23.4793 32.3502 21.2593 34.5972 18.5306 34.5972Z" fill="#FFCDB6"/>
    <path d="M56.9456 34.4841C56.9125 34.4841 56.8769 34.4816 56.8413 34.4816C55.9996 34.4533 55.2138 34.0985 54.6365 33.4737C54.0593 32.8516 53.7541 32.0391 53.782 31.1856C53.8075 30.332 54.161 29.5401 54.7789 28.9565C55.3944 28.3729 56.1801 28.0927 57.0422 28.0901C57.8839 28.1184 58.6697 28.4732 59.247 29.0979C59.8242 29.7201 60.1294 30.5325 60.1015 31.3861C60.076 32.2397 59.7226 33.0315 59.1046 33.6151C58.5172 34.1782 57.7517 34.4841 56.9456 34.4841Z" fill="#FFCDB6"/>
    <path d="M56.5565 45.2205C55.5265 45.2205 54.5246 44.894 53.6752 44.2744C52.6046 43.4902 51.8951 42.3359 51.684 41.017C51.4729 39.6981 51.7807 38.3766 52.5538 37.2916C53.3268 36.2067 54.4712 35.4919 55.7732 35.2786C57.0727 35.06 58.3874 35.3788 59.458 36.1578C60.5286 36.9394 61.2381 38.0963 61.4492 39.4153C61.6603 40.7342 61.3525 42.0556 60.5795 43.1406C59.8064 44.2255 58.662 44.9403 57.36 45.1537C57.093 45.1999 56.8235 45.2205 56.5565 45.2205Z" fill="#FFCDB6"/>
</svg>
