<svg width="75" height="75" viewBox="0 0 75 75" fill="none" xmlns="http://www.w3.org/2000/svg">
    <circle cx="37.5" cy="37.5" r="36.5" fill="white" stroke="#FF949A" stroke-width="2"/>
    <path d="M20.6917 60C24.3224 60 27.2656 57.0662 27.2656 53.4471C27.2656 49.8281 24.3224 46.8943 20.6917 46.8943C17.0609 46.8943 14.1177 49.8281 14.1177 53.4471C14.1177 57.0662 17.0609 60 20.6917 60Z" fill="#FFCDB6"/>
    <path d="M53.157 28.9881C56.7877 28.9881 59.731 26.0543 59.731 22.4352C59.731 18.8162 56.7877 15.8824 53.157 15.8824C49.5263 15.8824 46.583 18.8162 46.583 22.4352C46.583 26.0543 49.5263 28.9881 53.157 28.9881Z" fill="#FFCDB6"/>
    <path d="M21.2757 44.9014C22.3591 44.9014 23.2374 44.0259 23.2374 42.946C23.2374 41.866 22.3591 40.9905 21.2757 40.9905C20.1923 40.9905 19.314 41.866 19.314 42.946C19.314 44.0259 20.1923 44.9014 21.2757 44.9014Z" fill="#FFCDB6"/>
    <path d="M22.8758 38.8C23.9592 38.8 24.8375 37.9245 24.8375 36.8446C24.8375 35.7646 23.9592 34.8891 22.8758 34.8891C21.7924 34.8891 20.9141 35.7646 20.9141 36.8446C20.9141 37.9245 21.7924 38.8 22.8758 38.8Z" fill="#FFCDB6"/>
    <path d="M27.9464 35.0254C29.0298 35.0254 29.9081 34.1499 29.9081 33.07C29.9081 31.99 29.0298 31.1145 27.9464 31.1145C26.8629 31.1145 25.9846 31.99 25.9846 33.07C25.9846 34.1499 26.8629 35.0254 27.9464 35.0254Z" fill="#FFCDB6"/>
    <path d="M34.7 33.8954C35.7835 33.8954 36.6618 33.0199 36.6618 31.9399C36.6618 30.86 35.7835 29.9845 34.7 29.9845C33.6166 29.9845 32.7383 30.86 32.7383 31.9399C32.7383 33.0199 33.6166 33.8954 34.7 33.8954Z" fill="#FFCDB6"/>
    <path d="M41.0516 33.8954C42.135 33.8954 43.0133 33.0199 43.0133 31.9399C43.0133 30.86 42.135 29.9845 41.0516 29.9845C39.9681 29.9845 39.0898 30.86 39.0898 31.9399C39.0898 33.0199 39.9681 33.8954 41.0516 33.8954Z" fill="#FFCDB6"/>
    <path d="M47.0438 32.2472C48.1272 32.2472 49.0055 31.3717 49.0055 30.2917C49.0055 29.2118 48.1272 28.3363 47.0438 28.3363C45.9603 28.3363 45.082 29.2118 45.082 30.2917C45.082 31.3717 45.9603 32.2472 47.0438 32.2472Z" fill="#FFCDB6"/>
    <path d="M28.1072 22.4352L30.554 19.9963C30.9105 19.641 30.9105 19.0613 30.554 18.706C30.1976 18.3507 29.616 18.3507 29.2596 18.706L26.8128 21.145L24.366 18.706C24.0095 18.3507 23.428 18.3507 23.0715 18.706C22.7151 19.0613 22.7151 19.641 23.0715 19.9963L25.5183 22.4352L23.0715 24.8742C22.7151 25.2295 22.7151 25.8092 23.0715 26.1645C23.2511 26.3435 23.4842 26.4316 23.7201 26.4316C23.9532 26.4316 24.1891 26.3435 24.3686 26.1645L26.8155 23.7255L29.2623 26.1645C29.4418 26.3435 29.675 26.4316 29.9108 26.4316C30.144 26.4316 30.3798 26.3435 30.5594 26.1645C30.9158 25.8092 30.9158 25.2295 30.5594 24.8742L28.1072 22.4352Z" fill="#FF949A"/>
    <path d="M38.8189 49.1142L41.2657 46.6752C41.6221 46.3199 41.6221 45.7403 41.2657 45.385C40.9092 45.0297 40.3277 45.0297 39.9713 45.385L37.5244 47.8239L35.0776 45.385C34.7212 45.0297 34.1396 45.0297 33.7832 45.385C33.4268 45.7403 33.4268 46.3199 33.7832 46.6752L36.23 49.1142L33.7832 51.5532C33.4268 51.9084 33.4268 52.4881 33.7832 52.8434C33.9628 53.0224 34.1959 53.1106 34.4318 53.1106C34.6649 53.1106 34.9007 53.0224 35.0803 52.8434L37.5271 50.4045L39.9739 52.8434C40.1535 53.0224 40.3867 53.1106 40.6225 53.1106C40.8583 53.1106 41.0915 53.0224 41.271 52.8434C41.6275 52.4881 41.6275 51.9084 41.271 51.5532L38.8189 49.1142Z" fill="#FF949A"/>
</svg>
