<svg width="75" height="75" viewBox="0 0 75 75" fill="none" xmlns="http://www.w3.org/2000/svg">
    <circle cx="37.5" cy="37.5" r="36.5" fill="white" stroke="#FF949A" stroke-width="2"/>
    <path d="M43.3731 54.0595L39.8841 42.9529C39.1466 40.6031 35.856 40.6031 35.1185 42.9529L31.6295 54.0595C31.1184 55.6895 32.3212 57.3529 34.0123 57.3529H40.9903C42.6814 57.3504 43.8842 55.6895 43.3731 54.0595Z" fill="#FF949A"/>
    <path d="M65.9677 48.4702C65.8736 48.4702 65.7744 48.4574 65.6803 48.4317L8.74746 32.795C8.16511 32.6356 7.8218 32.0289 7.97947 31.4401C8.13968 30.8514 8.75 30.5094 9.31964 30.6637L66.2525 46.3003C66.8349 46.4597 67.1782 47.0665 67.0205 47.6552C66.8883 48.1463 66.4484 48.4702 65.9677 48.4702Z" fill="#FFCDB6"/>
    <path d="M20.3257 24.0383C20.1197 24.0383 19.9162 24.0177 19.7103 23.9766C18.8838 23.8146 18.1667 23.3364 17.6962 22.6268C17.2232 21.9198 17.0529 21.0662 17.2156 20.2306C17.5487 18.503 19.2093 17.3769 20.9207 17.7034C22.6322 18.0453 23.7511 19.7242 23.418 21.4519V21.4544C23.2552 22.2926 22.7822 23.0176 22.0804 23.4932C21.554 23.8506 20.9462 24.0383 20.3257 24.0383Z" fill="#FFCDB6"/>
    <path d="M18.5304 34.5972C15.8017 34.5972 13.5842 32.3528 13.5842 29.5967C13.5842 26.8406 15.8043 24.5962 18.5304 24.5962C21.2565 24.5962 23.4791 26.838 23.4791 29.5941C23.4791 32.3502 21.259 34.5972 18.5304 34.5972Z" fill="#FFCDB6"/>
    <path d="M56.9451 34.4841C56.912 34.4841 56.8764 34.4816 56.8408 34.4816C55.9991 34.4533 55.2133 34.0985 54.636 33.4737C54.0588 32.8516 53.7536 32.0391 53.7816 31.1856C53.807 30.332 54.1605 29.5401 54.7785 28.9565C55.3939 28.3729 56.1796 28.0927 57.0417 28.0901C57.8834 28.1184 58.6692 28.4732 59.2465 29.0979C59.8237 29.7201 60.1289 30.5325 60.101 31.3861C60.0755 32.2397 59.7221 33.0315 59.1041 33.6151C58.5167 34.1782 57.7512 34.4841 56.9451 34.4841Z" fill="#FFCDB6"/>
    <path d="M56.556 45.2205C55.526 45.2205 54.5241 44.894 53.6747 44.2744C52.6041 43.4903 51.8946 42.3359 51.6835 41.017C51.4724 39.6981 51.7802 38.3766 52.5533 37.2916C53.3263 36.2067 54.4707 35.492 55.7727 35.2786C57.0722 35.06 58.3869 35.3788 59.4575 36.1578C60.5281 36.9394 61.2376 38.0964 61.4487 39.4153C61.6598 40.7342 61.352 42.0557 60.579 43.1406C59.8059 44.2256 58.6616 44.9403 57.3595 45.1537C57.0925 45.2 56.823 45.2205 56.556 45.2205Z" fill="#FFCDB6"/>
</svg>
