<svg width="75" height="75" viewBox="0 0 75 75" fill="none" xmlns="http://www.w3.org/2000/svg">
<circle cx="37.5" cy="37.5" r="36.5" fill="white" stroke="#FF949A" stroke-width="2"/>
<path d="M42.465 37.5011C42.465 34.9258 40.6063 32.7715 38.1432 32.2757V19.6813H35.9768V32.2735C33.5115 32.7694 31.6528 34.9236 31.6528 37.4989C31.6528 40.0742 33.5137 42.2306 35.9768 42.7264V55.402H38.1432V42.7264C40.6063 42.2306 42.465 40.0763 42.465 37.5011Z" fill="#FF949A"/>
<path d="M59.7544 46.0647H56.6262C55.2116 46.0647 54.0635 44.9299 54.0635 43.5365V31.4657C54.0635 30.0701 55.2138 28.9353 56.6262 28.9353H59.7544V46.0647Z" fill="#FF949A"/>
<path d="M20.0542 43.5365C20.0542 44.9299 18.9039 46.0647 17.4914 46.0647H14.3611V28.9353H17.4893C18.9039 28.9353 20.052 30.0701 20.052 31.4657V43.5365H20.0542Z" fill="#FF949A"/>
<path d="M54.1675 56.4706H19.9482C15.7607 56.4706 12.353 53.111 12.353 48.9777V26.0245C12.353 21.8912 15.7607 18.5294 19.9482 18.5294H54.1675C58.355 18.5294 61.7648 21.8912 61.7648 26.0245V48.9777C61.7648 53.111 58.3572 56.4706 54.1675 56.4706ZM19.9482 20.6666C16.9543 20.6666 14.5194 23.0709 14.5194 26.0245V48.9777C14.5194 51.9312 16.9543 54.3334 19.9482 54.3334H54.1675C57.1614 54.3334 59.5985 51.9312 59.5985 48.9777V26.0245C59.5985 23.0709 57.1635 20.6666 54.1675 20.6666H19.9482Z" fill="#FFCDB6"/>
</svg>
