<svg width="75" height="75" viewBox="0 0 75 75" fill="none" xmlns="http://www.w3.org/2000/svg">
<circle cx="37.5" cy="37.5" r="36.5" fill="white" stroke="#FF949A" stroke-width="2"/>
<path d="M23.6887 64.4118C21.6736 64.4118 19.7438 63.2899 18.9921 61.4191C17.874 58.6478 15.8937 56.4231 12.7036 55.6583C11.6329 55.4023 10.8243 54.8398 10.6254 53.6864C10.4264 52.5298 11.0486 51.7746 11.9298 51.1267C13.4522 50.0081 15.2462 49.4772 16.9423 48.744C19.7817 47.5211 22.6464 46.3613 25.4985 45.1731C26.964 44.5632 27.4441 42.6166 26.3292 41.4853C24.9363 40.0728 24.1657 38.4074 23.9256 36.4766C23.8624 35.9646 23.6729 35.6076 23.2655 35.2947C22.2958 34.5489 21.7242 33.5282 21.5978 32.3274C21.4115 30.5546 21.3704 28.7723 21.6484 26.9995C21.8063 25.9851 22.2674 25.0971 23.057 24.484C23.7582 23.9405 23.9225 23.3117 23.894 22.4995C23.8182 20.3601 24.0993 18.2776 25.2269 16.4037C26.9988 13.4553 29.6077 11.7489 33.0441 11.553C35.5108 11.4108 37.9902 11.4898 40.4633 11.5182C45.8168 11.5782 49.9734 15.6579 50.1881 21.0269C50.2039 21.4282 50.226 21.8296 50.1945 22.2277C50.1187 23.1378 50.2766 23.8741 51.0409 24.4935C51.8147 25.1224 52.3485 26.042 52.4654 27.0342C52.6833 28.9176 52.7244 30.8105 52.4243 32.694C52.2822 33.5883 51.8874 34.3972 51.1894 34.9439C50.4692 35.5096 50.1755 36.1732 50.0681 37.0549C49.8628 38.7297 49.0953 40.1391 47.9014 41.3431C46.7233 42.5313 47.1055 44.538 48.65 45.1826C52.3391 46.7279 56.0376 48.2605 59.7298 49.7995C60.7405 50.2198 61.7102 50.7128 62.5661 51.4112C63.302 52.0147 63.6558 52.7763 63.4884 53.7212C63.321 54.6755 62.7019 55.2759 61.7923 55.5287C60.2762 55.9522 58.8139 56.442 57.5916 57.5101C56.3313 58.6098 55.5196 59.9244 54.9827 61.3686C54.272 63.2773 52.2917 64.4118 50.2576 64.4118H23.6887Z" fill="#FFCDB6"/>
</svg>
