<svg width="75" height="75" viewBox="0 0 75 75" fill="none" xmlns="http://www.w3.org/2000/svg">
    <rect x="1" y="1" width="73" height="73" rx="16" fill="white" stroke="#04D99D" stroke-width="2"/>
    <path d="M57.0085 24.2186C54.5329 15.8503 46.5735 10.0033 37.6491 10H18.985C17.8902 10 17 10.8995 17 12.0059V62.9941C17 64.1005 17.8902 65 18.985 65H28.9912C30.086 65 30.9762 64.1005 30.9762 62.9941V51.543C32.1555 51.4905 33.3575 51.5003 34.5238 51.5135C36.7167 51.5397 38.9909 51.5561 41.226 51.1458C46.8821 50.1051 52.0574 46.5167 55.0722 41.5529C58.1325 36.5069 58.8213 30.3513 57.0085 24.2186ZM38.5587 37.6691C37.6913 37.7019 36.8109 37.7118 35.9403 37.7118C35.375 37.7118 34.0462 37.7118 32.8962 37.7118C31.8014 37.7118 30.9145 36.8122 30.9145 35.7058V25.7288C30.9145 24.6192 31.7981 23.7196 32.8962 23.7229C34.9039 23.7262 37.7498 23.7393 38.8642 23.8477C42.1259 24.1694 44.9068 27.4688 44.8126 30.9061C44.7151 34.4452 41.853 37.541 38.5587 37.6691Z" fill="#FFCDB6"/>
</svg>
