<svg width="75" height="75" viewBox="0 0 75 75" fill="none" xmlns="http://www.w3.org/2000/svg">
    <rect x="1" y="1" width="73" height="73" rx="16" fill="white" stroke="#04D99D" stroke-width="2"/>
    <path d="M23.1311 30.2017C14.1497 30.2017 7.78385 25.1378 7.69281 25.0591C6.87345 24.3924 6.76842 23.2093 7.44421 22.4092C8.12702 21.616 9.34203 21.4997 10.1614 22.1631C10.6551 22.5597 22.3538 31.7574 35.8592 22.0947C35.9048 22.0502 50.2226 10.6539 66.2107 22.0947C67.0685 22.7101 67.2576 23.8898 66.6273 24.7309C65.9935 25.5618 64.789 25.7532 63.9311 25.1344C50.3487 15.4101 38.3594 24.96 38.2368 25.0591C32.8479 28.9194 27.6551 30.2017 23.1311 30.2017Z" fill="#FFCDB6"/>
    <path d="M23.1311 44.1043C14.1497 44.1043 7.78385 39.0404 7.69281 38.9617C6.87345 38.295 6.76842 37.1119 7.44421 36.3118C8.12702 35.5186 9.34203 35.4057 10.1614 36.0656C10.6551 36.4623 22.3538 45.66 35.8592 35.9973C35.9048 35.9528 50.2226 24.5599 66.2107 35.9973C67.0685 36.6127 67.2576 37.7924 66.6273 38.6335C65.9935 39.4678 64.789 39.6524 63.9311 39.037C50.3487 29.3161 38.3594 38.8592 38.2368 38.9617C32.8479 42.8186 27.6551 44.1043 23.1311 44.1043Z" fill="#3EE5B1"/>
    <path d="M23.1311 58C14.1497 58 7.78385 52.9361 7.69281 52.8575C6.87345 52.1907 6.76842 51.0077 7.44421 50.2076C8.12702 49.4143 9.34203 49.3015 10.1614 49.9614C10.6551 50.358 22.3538 59.5557 35.8592 49.893C35.9048 49.8451 50.2226 38.4523 66.2107 49.893C67.0685 50.5085 67.2576 51.6881 66.6273 52.5292C65.9935 53.3635 64.789 53.5516 63.9311 52.9327C50.3487 43.2118 38.3594 52.7583 38.2368 52.8575C32.8479 56.7144 27.6551 58 23.1311 58Z" fill="#FFCDB6"/>
</svg>
