<svg width="75" height="75" viewBox="0 0 75 75" fill="none" xmlns="http://www.w3.org/2000/svg">
    <rect x="1" y="1" width="73" height="73" rx="16" fill="white" stroke="#04D99D" stroke-width="2"/>
    <path d="M23.2564 34.3852C19.6713 32.372 17.8431 29.2634 18.0106 25.0992C18.089 23.1622 18.5095 21.2398 18.7875 19.3136C19.2721 15.9983 19.7746 12.6901 20.2522 9.37476C20.3377 8.76899 20.5907 8.31195 21.1074 8C21.4139 8 21.7204 8 22.0269 8C22.4937 8.28656 22.818 8.66017 22.8679 9.2478C22.9713 10.5101 23.096 11.7688 23.1958 13.0311C23.4381 16.02 23.6734 19.009 23.905 22.0015C23.9442 22.4839 24.183 22.785 24.6569 22.7923C25.1095 22.7959 25.3233 22.5166 25.359 22.045C25.4623 20.6086 25.5906 19.1722 25.7118 17.7358C25.9327 15.0769 26.1644 12.4181 26.364 9.75926C26.4174 9.04104 26.5778 8.41714 27.205 8.00725C27.5507 8.00725 27.8964 8.00725 28.2385 8.00725C28.741 8.36636 28.9976 8.85968 29.0475 9.47995C29.247 12.0191 29.4501 14.5582 29.6533 17.0973C29.7851 18.726 29.917 20.3547 30.0489 21.9797C30.0845 22.4368 30.2627 22.7886 30.7652 22.7923C31.2997 22.7959 31.4815 22.4114 31.5207 21.9435C31.6454 20.4526 31.763 18.9582 31.8806 17.4673C32.0837 14.8883 32.2904 12.3093 32.49 9.73024C32.5435 9.04467 32.7181 8.43165 33.299 8.00363C33.6447 8.00363 33.9903 8.00363 34.3325 8.00363C34.8813 8.34822 35.0987 8.86331 35.1913 9.50534C35.8898 14.3224 36.6133 19.1359 37.326 23.953C37.9675 28.3022 36.0573 32.2451 32.2584 34.3417C31.8414 34.5702 31.6739 34.8169 31.7096 35.292C31.902 37.7768 32.0731 40.2651 32.2477 42.7535C32.3795 44.6397 32.5043 46.5259 32.6361 48.4085C32.85 51.4591 33.078 54.5097 33.2883 57.5602C33.3916 59.0765 33.5342 60.5927 33.5485 62.1125C33.577 65.3626 30.9291 67.9852 27.7039 67.9852C24.4716 67.9852 21.8594 65.3663 21.8843 62.0908C21.9022 59.889 22.1516 57.6981 22.3049 55.5035C22.4332 53.6572 22.5543 51.8109 22.6862 49.9646C22.9036 46.856 23.1281 43.7474 23.3455 40.6387C23.4738 38.8323 23.5878 37.0223 23.7232 35.2159C23.7553 34.806 23.6128 34.5883 23.2564 34.3852Z" fill="#FFCDB6"/>
    <path d="M55.1517 8.0036C55.7718 8.3482 55.9999 8.88142 55.9999 9.59963C55.9892 27.0217 55.9963 44.4438 55.9892 61.8659C55.9892 64.9708 53.6728 67.6514 50.7719 67.9634C47.7035 68.2935 44.9915 66.3601 44.2538 63.3531C43.9794 62.2395 44.1362 61.144 44.2431 60.0413C44.489 57.4623 44.7492 54.8869 45.0058 52.3078C45.298 49.3624 45.5902 46.417 45.8824 43.4717C45.8931 43.3556 45.9181 43.2395 45.9145 43.1234C45.8896 41.8067 46.2745 40.704 47.3365 39.848C47.9957 39.3184 47.9387 39.2567 47.4291 38.5639C46.0036 36.6305 45.1234 34.4396 44.5247 32.1181C43.7406 29.0748 43.4377 25.9662 43.6587 22.8394C44.0543 17.246 46.6558 12.9041 51.1675 9.72296C52.1332 9.04465 53.1774 8.51505 54.2358 8.00723C54.5388 8.0036 54.8452 8.0036 55.1517 8.0036Z" fill="#FFCDB6"/>
</svg>
