<svg width="75" height="75" viewBox="0 0 75 75" fill="none" xmlns="http://www.w3.org/2000/svg">
    <rect x="1" y="1" width="73" height="73" rx="16" fill="white" stroke="#04D99D" stroke-width="2"/>
    <path d="M57.8139 62.4003L52.5919 44.8401H22.4081L17.1861 62.4003C16.3563 65.1892 18.4057 68 21.2671 68H37.5018H53.7364C56.5942 67.9963 58.6437 65.1856 57.8139 62.4003ZM25.577 53.3271H37.652H49.6483L50.4173 55.7082H37.652H24.808L25.577 53.3271ZM37.652 61.5264H23.4417L24.2107 59.1453H37.652H51.0933L51.8623 61.5264H37.652Z" fill="#3EE5B1"/>
    <path d="M45.5781 7H29.7262C23.1379 7 17.7979 12.4359 17.7979 19.1425V35.279C17.7979 41.9856 23.1379 47.4215 29.7262 47.4215H45.5781C52.1664 47.4215 57.5065 41.9856 57.5065 35.279V19.1425C57.5065 12.4359 52.1664 7 45.5781 7ZM32.5625 10.7647H42.4378C43.2712 10.7647 43.9472 11.4528 43.9472 12.3012C43.9472 13.1495 43.2712 13.8377 42.4378 13.8377H32.5625C31.7291 13.8377 31.0531 13.1495 31.0531 12.3012C31.0531 11.4528 31.7256 10.7647 32.5625 10.7647ZM26.6001 40.704C24.8547 40.704 23.4419 39.2658 23.4419 37.4891C23.4419 35.7123 24.8547 34.2741 26.6001 34.2741C28.3456 34.2741 29.7584 35.7123 29.7584 37.4891C29.7584 39.2658 28.3456 40.704 26.6001 40.704ZM48.7042 40.704C46.9587 40.704 45.5459 39.2658 45.5459 37.4891C45.5459 35.7123 46.9587 34.2741 48.7042 34.2741C50.4496 34.2741 51.8624 35.7123 51.8624 37.4891C51.8624 39.2658 50.4496 40.704 48.7042 40.704ZM51.8624 27.8734C51.8624 30.3237 49.9095 32.3117 47.5024 32.3117H27.8055C25.3983 32.3117 23.4455 30.3237 23.4455 27.8734V19.5211C23.4455 17.0708 25.3983 15.0828 27.8055 15.0828H47.5024C49.9095 15.0828 51.8624 17.0708 51.8624 19.5211V27.8734Z" fill="#FFCDB6"/>
</svg>
