<svg width="75" height="75" viewBox="0 0 75 75" fill="none" xmlns="http://www.w3.org/2000/svg">
    <rect x="1" y="1" width="73" height="73" rx="16" fill="white" stroke="#04D99D" stroke-width="2"/>
    <path d="M37.4114 68C36.5484 68 35.8477 67.3195 35.8477 66.4815V17.3297C35.8477 16.4916 36.5484 15.8111 37.4114 15.8111C38.2743 15.8111 38.975 16.4916 38.975 17.3297V66.485C38.9787 67.3231 38.278 68 37.4114 68Z" fill="#FFCDB6"/>
    <path d="M37.0721 29.5245C43.1928 29.5245 48.1545 24.7061 48.1545 18.7623C48.1545 12.8184 43.1928 8 37.0721 8C30.9515 8 25.9897 12.8184 25.9897 18.7623C25.9897 24.7061 30.9515 29.5245 37.0721 29.5245Z" fill="#3EE5B1"/>
    <path d="M37.5 50.7553C46.6127 50.7553 54 43.5814 54 34.7319C54 25.8824 46.6127 18.7085 37.5 18.7085C28.3873 18.7085 21 25.8824 21 34.7319C21 43.5814 28.3873 50.7553 37.5 50.7553Z" fill="#3EE5B1"/>
</svg>
