<svg width="713" height="148" fill="none" xmlns="http://www.w3.org/2000/svg"><g clip-path="url(#prefix__clip0)"><path d="M431.11 141.8c-17.24 0-34.77-.25-51.72-.49-16.85-.24-34.27-.48-51.3-.48-13.26 0-26.53-.01-39.81-.02-13.28-.01-26.55-.02-39.83-.02-13.27 0-26.53.01-39.78.04h-.39c-18.98 0-38.01-3.12-56.42-6.13-17.88-2.93-36.37-5.96-54.28-5.96-3.82 0-7.56.14-11.13.41-.14.01-.28.02-.42.02-.84 0-1.68-.19-2.44-.57-8.44-4.18-17.56-5.72-27.23-7.35-11.24-1.9-22.87-3.87-33.36-10.32C11.22 103.68 5.34 95.19 5.5 85.7c.29-16.2 18.73-29.06 29.7-35.27 2.77-1.57 5.52-3.19 8.43-4.91 13.43-7.93 27.31-16.12 42.89-18.81 8.48-1.46 16.72-2.54 24.7-3.58 9.96-1.3 20.26-2.65 30.9-4.74 33.22-6.53 66.31-10.17 110.64-12.17 10.53-.48 21.29-.71 32.89-.71 30.79 0 61.88 1.7 91.94 3.34 20.08 1.1 40.83 2.23 61.22 2.84 55.12 1.65 108.76 5.03 163.99 10.34 22.24 2.14 83.58 13.96 100.2 42.6 5.56 9.58 5.87 20.01.93 30.99-9.45 20.98-26.13 21.28-42.27 21.56-2.72.05-5.53.1-8.38.23-20.05.96-40.47 5.28-60.22 9.46-5.83 1.23-11.87 2.51-17.79 3.68-50.2 9.91-101.05 11.25-144.16 11.25z" fill="#22C79E"/><path d="M285.65 11c51.21 0 102.07 4.66 152.99 6.18 55.51 1.66 109.25 5.09 163.63 10.32 27.11 2.61 117.04 20.58 96.64 65.86-9.39 20.86-25.88 17.6-45.89 18.56-26.49 1.27-52.83 8.12-78.81 13.24-46.74 9.22-94.8 11.14-143.1 11.14-34.36 0-68.84-.97-103.02-.97-26.53 0-53.09-.04-79.64-.04-13.27 0-26.54.01-39.79.04h-.38c-37.01 0-73.93-12.09-110.7-12.09-3.85 0-7.7.13-11.55.43-19.49-9.64-42.06-6.31-60.14-17.43-29.15-17.91-10.25-38.4 12.03-51.03 15.54-8.81 31.73-20.02 49.54-23.08 19-3.27 36.4-4.55 55.73-8.34C180.6 16.43 215.34 13.41 253 11.7c10.91-.49 21.78-.7 32.65-.7zm0-11c-11.68 0-22.53.23-33.14.71-44.62 2.02-77.95 5.69-111.45 12.27-10.47 2.06-20.23 3.33-30.56 4.68-8.03 1.05-16.33 2.14-24.92 3.61-16.57 2.85-31.54 11.69-44.75 19.49-2.89 1.71-5.62 3.32-8.35 4.86C5.96 60.68.18 75.67 0 85.6c-.14 7.96 3.24 19.63 20.12 30.01 11.4 7.01 23.56 9.06 35.32 11.05 9.25 1.57 17.99 3.04 25.7 6.86a11.03 11.03 0 005.72 1.11c3.43-.26 7.04-.39 10.72-.39 17.46 0 34.91 2.86 53.39 5.89 18.62 3.05 37.88 6.21 57.31 6.21h.39c11.9-.03 24.91-.04 39.78-.04 13.27 0 26.55.01 39.82.02 13.28.01 26.55.02 39.81.02 16.99 0 34.4.25 51.23.48 16.97.24 34.52.49 51.79.49 43.38 0 94.56-1.35 145.23-11.34 5.96-1.18 12.01-2.46 17.86-3.7 19.54-4.13 39.74-8.41 59.34-9.35 2.76-.13 5.53-.18 8.21-.23 8.87-.16 17.26-.3 25.32-3.26 9.81-3.6 16.96-10.65 21.87-21.54 5.64-12.51 5.22-24.96-1.19-36.01-8.05-13.88-25.5-25.32-51.87-34.02-19.69-6.5-40.62-10.14-52.56-11.29C547.96 11.24 494.2 7.85 438.96 6.2c-20.32-.61-41.04-1.74-61.08-2.83C347.75 1.7 316.59 0 285.65 0z" fill="#FFF2E9"/></g><path d="M218.076 97.297c-.407 0-.83-.155-1.269-.464-.424-.293-.692-.806-.806-1.538a15.787 15.787 0 01-.415-2.05c-.098-.392-.171-.774-.22-1.148a33.387 33.387 0 00-.171-1.148l-.244-1.806a77.097 77.097 0 01-.22-2.051 53.51 53.51 0 00-.244-2.149l-.219-2.612a114.826 114.826 0 01-.293-5.054l-.098-2.636c0-.863-.016-1.726-.049-2.588 0-3.174.033-5.428.098-6.763l.024-.537c.016-.407.049-.814.098-1.22.081-1.108.195-1.913.342-2.418.13-.374.39-.65.781-.83a2.799 2.799 0 011.269-.293c.456.017.847.139 1.172.366.342.212.529.538.562.977.032.342.049 1.245.049 2.71 1.155-.765 2.522-1.148 4.101-1.148.879 0 1.742.155 2.588.464.928.293 1.758.806 2.49 1.538 1.384 1.384 2.222 3.264 2.515 5.64.081.716.122 1.432.122 2.148 0 1.351-.179 2.71-.537 4.078-.293 1.009-.651 1.855-1.074 2.539a6.886 6.886 0 01-1.66 2.026 6.786 6.786 0 01-2.369 1.27 9.724 9.724 0 01-2.368.293c-1.269 0-2.4-.236-3.393-.708 0 .406.057 1.22.171 2.441l.195 2.148.366 3.32.22 2.052.073.854c.098 1.074.147 1.75.147 2.026 0 .342-.033.676-.098 1.001-.326.847-.871 1.27-1.636 1.27zm3.931-18.628c.39 0 .838-.114 1.343-.342.52-.244.992-.797 1.416-1.66a6.79 6.79 0 00.561-1.953c.163-.814.244-1.636.244-2.466-.032-.944-.122-1.742-.268-2.392-.423-1.547-1.018-2.523-1.782-2.93a3.528 3.528 0 00-1.441-.489l-.049-.024h-.342l.708-.024.464.024-.244-.049-.635-.024c-.13.016-.268.024-.415.024a6.393 6.393 0 00-.805.147l-.049.024a4.17 4.17 0 00-1.294.635c-.016.016-.041.024-.073.024-.57.44-.952.757-1.148.953 0 2.018.025 3.857.073 5.517l.025.879c.016 1.22.057 2.433.122 3.638l.024.415h.049l.513-.293h.122c.016-.016.089-.025.22-.025.195 0 .545.05 1.05.147.667.163 1.204.244 1.611.244zm13.159 9.937c-.179 0-.472-.05-.879-.147-.667-.195-1.204-1.204-1.611-3.027l-.391-1.856-.366-1.88a91.087 91.087 0 01-.44-2.49 57.137 57.137 0 01-.488-3.345 68.256 68.256 0 00-.171-1.88 102.815 102.815 0 01-.293-4.614v-1.05c.065-.52.326-.903.782-1.147.455-.26.976-.39 1.562-.39.602 0 1.123.13 1.563.39.455.244.708.61.756 1.099 0 .179.009.341.025.488.016.146.024.3.024.464l.049.488.073.708.098 1.294.073-.098c.733-.944 1.441-1.595 2.124-1.953.489-.26 1.058-.39 1.709-.39.944 0 1.831.244 2.661.732.798.586 1.359 1.099 1.685 1.538.325.423.643 1.017.952 1.782l.415 1.27.318 1.416c.081.44.122.92.122 1.44 0 .358-.066.7-.196 1.026a.806.806 0 01-.464.561c-.227.114-.39.212-.488.293l-.342.269-1.245.146a1.806 1.806 0 00-.366-.22l-.635-.195a.875.875 0 01-.244-.073c-.049-.033-.146-.147-.293-.342-.358-.52-.602-1.27-.732-2.246a10.82 10.82 0 00-.244-1.44l-.098-.416c-.244-1.041-.643-1.562-1.196-1.562-.554 0-1.18.505-1.88 1.514-.342.537-.546.936-.611 1.196-.227.44-.366.757-.415.952l-.048.073c.032.13.048.253.048.367l.367 2.88.122.855.122 1.025.122.83c0 .05.008.09.024.123.244 1.709.366 2.88.366 3.515-.081.781-.382 1.343-.903 1.685a2.06 2.06 0 01-1.123.342zm17.871.366c-.944 0-1.888-.204-2.832-.61a6.336 6.336 0 01-2.563-2.076c-1.091-1.579-1.636-3.597-1.636-6.055 0-1.48.179-2.93.537-4.345.358-1.319.814-2.466 1.367-3.443.57-.976 1.27-1.871 2.1-2.685.846-.83 1.733-1.49 2.661-1.978.944-.488 1.872-.79 2.783-.903h1.367c.44.016.879.09 1.319.22 1.79.667 2.937 1.904 3.442 3.71.163.554.244 1.164.244 1.832a7.569 7.569 0 01-.732 3.247c-.342.797-.871 1.627-1.587 2.49-.147.228-.488.594-1.026 1.099-1.774 1.546-3.531 2.62-5.273 3.222-.879.293-1.685.456-2.417.489a.265.265 0 01.049.097c.016.049.032.106.049.171.13.277.301.537.512.781.554.619 1.148.928 1.783.928.618 0 1.22-.17 1.806-.513.342-.179.668-.366.977-.561.504-.326.797-.53.879-.61.488-.44.993-.798 1.513-1.075l.171-.097c.261-.05.513-.074.757-.074.342 0 .708.074 1.099.22.407.13.651.57.732 1.319-.097.406-.268.789-.513 1.147a4.678 4.678 0 01-.83.977A13.178 13.178 0 01254.6 88.8a7.299 7.299 0 01-1.563.17zm-2.759-8.643c.033 0 .057-.008.074-.024.162 0 .512-.098 1.049-.293 1.319-.554 2.686-1.498 4.102-2.832.586-.603 1.05-1.172 1.392-1.71.52-.943.789-1.822.805-2.636 0-.488-.146-1.001-.439-1.538-.147-.228-.318-.366-.513-.415h.098-.464.342a2.009 2.009 0 00-.611-.073c-.276.032-.415.057-.415.073h.684c-.586 0-1.278.252-2.075.757a8.589 8.589 0 00-3.15 3.857c-.586 1.384-.879 2.995-.879 4.834zm14.38 9.741c-.407 0-.854-.146-1.343-.44-.472-.308-.748-.886-.83-1.733-.114-1.074-.171-2.669-.171-4.785l.025-.537c.016-1.237.065-2.514.146-3.833 0-.293.017-.594.049-.903.049-1.319.22-2.67.513-4.053l.293-1.099c.211-.748.513-1.391.903-1.928.602-.895 1.424-1.343 2.466-1.343.293 0 .594.04.903.122.619.228 1.205.635 1.758 1.22.342.375.724.896 1.148 1.563.488.733.944 1.538 1.367 2.417l.293.61c.13.261.252.53.366.806.342.765.553 1.278.635 1.538.325.733.545 1.27.659 1.612l1.172 2.832.097-1.416c.049-.781.074-1.473.074-2.076l.024-.878-.024-.464c0-.635-.008-1.058-.025-1.27 0-.927.025-1.709.073-2.343v-1.05l-.024-.342c0-.228.024-.456.073-.684.293-.911.773-1.367 1.441-1.367.537 0 .984.39 1.343 1.172.113.31.195.651.244 1.025.048.375.138.871.268 1.49.228 1.074.375 2.14.44 3.198l.146 1.367a27.15 27.15 0 01.269 3.37c0 .325-.041.968-.122 1.928l-.025.073c-.114 1.432-.48 2.58-1.098 3.442-.651.847-1.49 1.27-2.515 1.27-1.009 0-1.888-.415-2.637-1.245-.504-.472-1.017-1.213-1.538-2.222-.57-1.14-1.212-2.636-1.929-4.492a2.1 2.1 0 00-.146-.366c-.049-.147-.399-1.066-1.05-2.759 0-.032-.008-.057-.024-.073a16.17 16.17 0 00-.977-2.295l-.073-.147-.391 3.125c0 .098-.008.188-.024.269-.065.83-.114 1.636-.147 2.417 0 .228-.032 1.025-.097 2.392-.049 1.644-.09 2.751-.122 3.32l-.098 1.514c-.016.245-.041.48-.073.709-.212.895-.773 1.342-1.685 1.342zm27.613 1.587h-.123c-1.123 0-1.814-1.611-2.075-4.834-1.09.603-2.287.904-3.589.904-2.099 0-3.759-.75-4.98-2.246a6.482 6.482 0 01-1.392-3.077c-.114-.586-.171-1.277-.171-2.075 0-1.546.293-3.092.879-4.639.472-1.074 1.018-1.969 1.636-2.685 1.367-1.498 3.044-2.246 5.029-2.246.326 0 .651.016.977.049l1.147.268c0-.7.009-1.27.025-1.709.032-.44.049-.862.049-1.27a64.33 64.33 0 01.268-3.954 27.98 27.98 0 01.464-3.199c.147-.634.277-1.041.391-1.22a.83.83 0 01.268-.513c.309-.277.692-.415 1.148-.415.439 0 .805.17 1.098.513.114.179.187.374.22.586l.024.146c.082.358.139.724.171 1.099.049.586.074 1.35.074 2.295l-.025.879a118.41 118.41 0 00-.049 3.32c-.016.407-.024.984-.024 1.733v5.982c0 .732.008 1.334.024 1.806v3.784l.098 5.054.049 1.612c0 2.587-.537 3.938-1.611 4.052zm-5.518-8.08a.545.545 0 00.171-.025c.146 0 .244-.008.293-.025h-.122c.407-.032.919-.179 1.538-.44.097-.048.203-.089.317-.121.456-.212.716-.35.781-.415h.025a47.173 47.173 0 00-.073-1.538c-.065-1.286-.098-3.036-.098-5.25V75.3c-.033 0-.065-.016-.098-.049-.765-.44-1.456-.66-2.075-.66-.635 0-1.196.253-1.684.758-.44.44-.79.976-1.05 1.611-.228.537-.342.911-.342 1.123a8.211 8.211 0 00-.244 2.002c0 .619.073 1.156.22 1.611.358 1.075.911 1.685 1.66 1.831h1.123l-.098.025-.415.024-.513-.024c.114.016.285.024.513.024h.171zm12.915 5.029c-.179 0-.472-.05-.879-.147-.667-.195-1.204-1.204-1.611-3.027l-.391-1.856-.366-1.88a91.087 91.087 0 01-.44-2.49 57.137 57.137 0 01-.488-3.345 68.256 68.256 0 00-.171-1.88 102.815 102.815 0 01-.293-4.614v-1.05c.065-.52.326-.903.782-1.147.455-.26.976-.39 1.562-.39.602 0 1.123.13 1.563.39.455.244.708.61.756 1.099 0 .179.009.341.025.488.016.146.024.3.024.464l.049.488.073.708.098 1.294.073-.098c.733-.944 1.441-1.595 2.124-1.953.488-.26 1.058-.39 1.709-.39.944 0 1.831.244 2.661.732.798.586 1.359 1.099 1.685 1.538.325.423.643 1.017.952 1.782l.415 1.27.317 1.416c.082.44.123.92.123 1.44 0 .358-.066.7-.196 1.026a.808.808 0 01-.464.561c-.228.114-.39.212-.488.293l-.342.269-1.245.146a1.806 1.806 0 00-.366-.22l-.635-.195a.875.875 0 01-.244-.073c-.049-.033-.146-.147-.293-.342-.358-.52-.602-1.27-.732-2.246a10.82 10.82 0 00-.244-1.44l-.098-.416c-.244-1.041-.643-1.562-1.196-1.562-.554 0-1.18.505-1.88 1.514-.342.537-.546.936-.611 1.196-.228.44-.366.757-.415.952l-.049.073c.033.13.049.253.049.367l.367 2.88.122.855.122 1.025.122.83c0 .05.008.09.024.123.244 1.709.366 2.88.366 3.515-.081.781-.382 1.343-.903 1.685a2.06 2.06 0 01-1.123.342zm25.073 5.029c-.13 0-.252-.008-.366-.025-.114-.016-.293-.146-.537-.39l-.244-.367c-.309-.423-.611-1.106-.904-2.05a1.252 1.252 0 00-.073-.269 30.37 30.37 0 01-.757-4.101 7.013 7.013 0 01-.048-.806l-.074.098c-.944 1.35-1.977 2.343-3.1 2.978h-.025a5.289 5.289 0 01-2.685.733c-1.433 0-2.637-.538-3.614-1.612-1.204-1.27-1.806-3.165-1.806-5.688.13-2.507.854-4.81 2.173-6.91.683-1.106 1.416-1.993 2.197-2.66 0-.082.407-.391 1.221-.928 1.139-.684 2.433-1.034 3.881-1.05 1.042 0 1.929.244 2.662.732.162.082.366.245.61.489 0 .016.008.024.024.024.391.423.586.846.586 1.27 0 .211-.016.35-.049.415a1.25 1.25 0 01-.146.22c-.293.341-1.082.512-2.368.512h-.318c-.83 0-1.586.114-2.27.342-.895.504-1.701 1.302-2.417 2.392-1.025 1.71-1.571 3.467-1.636 5.274 0 .749.114 1.432.342 2.05.244.7.618 1.05 1.123 1.05.456 0 1.139-.415 2.051-1.245 0-.016.008-.024.024-.024.407-.374 1.009-1.058 1.807-2.05l.537-.66c.146-.228.301-.44.464-.635.163-.195.309-.399.439-.61l.318-.489c0-.26.032-.553.097-.878.065-.472.155-.912.269-1.319l.22-.415c.162-.309.537-.464 1.123-.464.162 0 .374.017.634.05.586.097.879.3.879.61l-.024.146c0 .016.008.033.024.049a.682.682 0 01.147.122c.065.114.097.301.097.561l-.024.684-.024 2.466c0 1.22.032 2.189.097 2.905 0 .293.049.944.147 1.953.13.977.228 1.587.293 1.831.179 1.107.399 2.1.659 2.979l.073.244c.114.277.179.553.196.83 0 .619-.245 1.066-.733 1.343a2.409 2.409 0 01-1.172.293zm-3.686-16.504c-.017-.016-.041-.025-.074-.025h-.048c-.017 0-.025-.008-.025-.024l.073-.073c.017 0 .025.008.025.024.016 0 .024.016.024.049.017.016.025.033.025.049zm13.72 13.916c-1.855 0-3.491-.496-4.907-1.49-.749-.52-1.351-1.098-1.806-1.733-.505-.765-.774-1.522-.806-2.27.211-.977.643-1.465 1.294-1.465.032 0 .228.016.586.049.374.016.927.325 1.66.927.309.424.635.782.976 1.075l.147.122c.212.179.431.325.659.44.733.422 1.449.634 2.149.634.667 0 1.261-.236 1.782-.708l.122-.464c.016-.081.024-.17.024-.269 0-.309-.162-.691-.488-1.147-.244-.342-.659-.74-1.245-1.196l-.244-.22-.684-.513-.928-.659-.366-.22a14.747 14.747 0 00-.732-.439c-.196-.098-.578-.342-1.148-.732l-.122-.098a12.038 12.038 0 01-1.05-.806 7.86 7.86 0 01-1.831-2.32 6.304 6.304 0 01-.659-2.856c0-1.057.285-2.1.855-3.124.553-.96 1.253-1.71 2.099-2.247.863-.553 1.88-.83 3.052-.83 1.156 0 2.181.318 3.076.952a4.548 4.548 0 011.343 1.758c.244.521.366 1.042.366 1.563 0 .716-.236 1.359-.708 1.928-.504.44-.936.66-1.294.66-.016 0-.122-.008-.317-.025-.195-.016-.545-.333-1.05-.952a.421.421 0 01-.098-.269v-.683c0-.147-.008-.228-.024-.244a.909.909 0 00-.098-.171.284.284 0 00-.048-.073 2.053 2.053 0 01-.049-.05c-.326-.341-.627-.512-.904-.512-.569 0-1.017.317-1.342.952-.196.423-.293.814-.293 1.172 0 .212.048.431.146.66.163.471.61.984 1.343 1.537.114.114.439.334.976.66.131.065.253.138.367.22l1.147.683c.993.65 1.628 1.09 1.904 1.318.831.651 1.506 1.294 2.027 1.929 1.025 1.302 1.538 2.702 1.538 4.2 0 .406-.049.813-.147 1.22-.439 1.823-1.619 3.068-3.54 3.735a9.32 9.32 0 01-2.71.39zm7.813-12.11c-.342.196-.586.48-.733.855-.13.358-.113.684.049.977.228.39.611.7 1.148.927.553.212 1.408.4 2.563.562.961.114 2.515.22 4.663.317 2.165.098 4.24.163 6.226.195 2.002.033 3.223.017 3.662-.048a2.433 2.433 0 001.05-.635c.309-.326.464-.635.464-.928 0-.146-.057-.317-.171-.513a1.974 1.974 0 00-.366-.512 1.475 1.475 0 00-.586-.342c-.245-.081-.668-.147-1.27-.195a73.339 73.339 0 00-2.759-.147 501.078 501.078 0 01-4.052-.244c-1.53-.098-2.889-.195-4.078-.293-1.22-.098-2.181-.17-2.88-.22-.7-.049-1.229-.073-1.587-.073-.358 0-.627.024-.806.073-.179.05-.358.13-.537.245zm26.318 9.156a4.261 4.261 0 01-2.612-.855c-.944-.7-1.676-1.88-2.197-3.54a12.689 12.689 0 01-.586-2.466 4.236 4.236 0 00-.073-.463l-.123-.953c0-.195-.016-.39-.048-.585-.082-.7-.122-1.832-.122-3.394l.048-.83c.017-.553.057-1.115.122-1.685.066-.57.114-.903.147-1-.228 0-.684.105-1.367.317l-.513.122-.317.024a4.162 4.162 0 00-.537-.268c-.749-.26-1.124-.578-1.124-.953 0-.244.277-.561.831-.952l.048-.024c.7-.423 1.571-.781 2.613-1.074.521-.13.838-.196.952-.196l.024-.146.147-.513c.114-.667.301-1.27.561-1.806.44-.863.961-1.294 1.563-1.294.797.016 1.497.57 2.099 1.66l-.122.586-.171.805-.073.293c0 .033-.008.057-.024.074l.244.024c.521 0 .952.008 1.294.024.342.017.675.05 1.001.098.683.033 1.253.122 1.709.269.309.228.464.512.464.854 0 .065-.025.236-.074.513-.048.26-.252.578-.61.952s-.765.594-1.221.66l-.732-.074a25.746 25.746 0 00-1.733-.171l-.782-.024-.024.122c-.033.39-.073.773-.122 1.147 0 .228-.016.423-.049.586-.081 1.058-.122 1.774-.122 2.149l-.049.585c0 1.433.025 2.385.073 2.857 0 .195.033.618.098 1.27.065.358.122.707.171 1.05.065.341.138.666.22.976.114.504.293.985.537 1.44.244.44.537.66.879.66.293 0 .61-.294.952-.88.163-.26.26-.439.293-.537.325-.814.667-1.22 1.025-1.22.407 0 .659.732.757 2.197a.276.276 0 00-.024.122v.146c0 .538-.204 1.164-.611 1.88-.325.489-.708.855-1.147 1.099-.44.228-.961.342-1.563.342zm-.854-15.991c-.13 0-.253-.009-.366-.025h-.074v.025h.44zm13.183 17.212a7.074 7.074 0 01-4.223-1.368 9.29 9.29 0 01-2.002-2.343l-.22-.415c-.635-1.107-1.099-2.507-1.392-4.2a34.878 34.878 0 01-.146-1.782c0-1.286.106-2.458.317-3.516.244-1.367.733-2.848 1.465-4.443.619-1.237 1.164-2.075 1.636-2.515.114-.081.268-.122.464-.122.602 0 1.269.277 2.002.83.748.538 1.123 1.075 1.123 1.612 0 .276-.122.553-.366.83-.31.7-.57 1.481-.782 2.344a16.088 16.088 0 00-.439 2.978l-.025.83c0 .88.074 1.644.22 2.295.114.716.212 1.115.293 1.196.277.814.545 1.457.806 1.93.569.91 1.204 1.366 1.904 1.366.619 0 1.392-.423 2.319-1.27a6.728 6.728 0 001.075-1.489 6.88 6.88 0 00.732-1.782c.261-.846.391-1.7.391-2.563 0-.749-.057-1.522-.171-2.32l-.025-.073c-.114-.683-.293-1.4-.537-2.148-.276-.88-.512-1.522-.708-1.929l-.244-.513c-.163-.293-.244-.537-.244-.732 0-.52.22-.952.659-1.294.44-.358.977-.537 1.612-.537 1.139 0 1.774.586 1.904 1.758l.415 1.172.366 1.245c.391 1.627.619 2.872.684 3.735l.073 1.709c0 1.058-.163 2.181-.488 3.37l-.391 1.196-.122.292a12.371 12.371 0 01-1.685 2.979c-1.155 1.53-2.433 2.588-3.833 3.174a5.97 5.97 0 01-2.417.513zm25.733 0a7.08 7.08 0 01-4.224-1.368 9.33 9.33 0 01-2.002-2.343l-.22-.415c-.634-1.107-1.098-2.507-1.391-4.2a34.893 34.893 0 01-.147-1.782c0-1.286.106-2.458.318-3.516.244-1.367.732-2.848 1.465-4.443.618-1.237 1.163-2.075 1.635-2.515.114-.081.269-.122.464-.122.602 0 1.27.277 2.002.83.749.538 1.123 1.075 1.123 1.612 0 .276-.122.553-.366.83-.309.7-.57 1.481-.781 2.344a16.091 16.091 0 00-.44 2.978l-.024.83c0 .88.073 1.644.22 2.295.114.716.211 1.115.293 1.196.276.814.545 1.457.805 1.93.57.91 1.205 1.366 1.905 1.366.618 0 1.391-.423 2.319-1.27a6.69 6.69 0 001.074-1.489c.326-.553.57-1.147.733-1.782.26-.846.39-1.7.39-2.563 0-.749-.057-1.522-.171-2.32l-.024-.073c-.114-.683-.293-1.4-.537-2.148-.277-.88-.513-1.522-.708-1.929l-.244-.513c-.163-.293-.245-.537-.245-.732 0-.52.22-.952.66-1.294.439-.358.976-.537 1.611-.537 1.139 0 1.774.586 1.904 1.758l.415 1.172.366 1.245c.391 1.627.619 2.872.684 3.735l.073 1.709c0 1.058-.162 2.181-.488 3.37l-.391 1.196-.122.292a12.367 12.367 0 01-1.684 2.979c-1.156 1.53-2.433 2.588-3.833 3.174a5.97 5.97 0 01-2.417.513zm11.792.756c-.407 0-.855-.146-1.343-.44-.472-.308-.749-.886-.83-1.733-.114-1.074-.171-2.669-.171-4.785l.024-.537c.017-1.237.066-2.514.147-3.833 0-.293.016-.594.049-.903.049-1.319.219-2.67.512-4.053l.293-1.099c.212-.748.513-1.391.904-1.928.602-.895 1.424-1.343 2.466-1.343.293 0 .594.04.903.122.618.228 1.204.635 1.758 1.22.341.375.724.896 1.147 1.563.488.733.944 1.538 1.367 2.417l.293.61c.131.261.253.53.367.806.341.765.553 1.278.634 1.538.326.733.546 1.27.659 1.612l1.172 2.832.098-1.416c.049-.781.073-1.473.073-2.076l.025-.878-.025-.464c0-.635-.008-1.058-.024-1.27 0-.927.024-1.709.073-2.343v-1.05l-.024-.342c0-.228.024-.456.073-.684.293-.911.773-1.367 1.44-1.367.537 0 .985.39 1.343 1.172.114.31.195.651.244 1.025.049.375.139.871.269 1.49.228 1.074.374 2.14.439 3.198l.147 1.367c.162 1.156.252 2.279.268 3.37 0 .325-.04.968-.122 1.928l-.024.073c-.114 1.432-.48 2.58-1.099 3.442-.651.847-1.489 1.27-2.514 1.27-1.01 0-1.889-.415-2.637-1.245-.505-.472-1.017-1.213-1.538-2.222-.57-1.14-1.213-2.636-1.929-4.492a2.182 2.182 0 00-.146-.366c-.049-.147-.399-1.066-1.05-2.759 0-.032-.008-.057-.025-.073a16.168 16.168 0 00-.976-2.295l-.074-.147-.39 3.125c0 .098-.008.188-.025.269-.065.83-.113 1.636-.146 2.417 0 .228-.033 1.025-.098 2.392a147.69 147.69 0 01-.122 3.32l-.097 1.514c-.017.245-.041.48-.074.709-.211.895-.773 1.342-1.684 1.342zm27.417 1.856c-.196 0-.489-.04-.879-.122-.684-.147-1.205-.985-1.563-2.515-.407-1.481-.716-3.255-.927-5.322a50.537 50.537 0 01-.367-4.077c0-.391-.016-.782-.048-1.172-.033-.651-.049-1.693-.049-3.125 0-1.22.057-2.629.171-4.224l.268-2.612c.13-1.481.383-2.962.757-4.444.358-1.334.659-2.123.903-2.368.114-.195.245-.366.391-.512.618-.26 1.131-.4 1.538-.415 1.237.032 1.856.887 1.856 2.563 0 .423-.066.855-.196 1.294l-.317 1.66-.22 1.612c-.195 1.302-.35 3.124-.464 5.468v.293a11.52 11.52 0 012.613-1.953c.976-.537 2.058-.806 3.247-.806l.83.025c1.058.146 1.961.504 2.71 1.074.748.57 1.351 1.351 1.806 2.344.391.944.586 1.97.586 3.076 0 .537-.049 1.082-.146 1.636-.179 1.172-.497 2.238-.952 3.198-1.042 2.214-2.515 3.89-4.419 5.03-.505.26-1.026.48-1.563.658a7.306 7.306 0 01-2.173.318 5.573 5.573 0 01-1.489-.195l.049.317c.065.456.098.92.098 1.392l-.049.585a2.175 2.175 0 01-.122.489c-.131.244-.44.455-.928.635-.309.13-.627.195-.952.195zm3.076-6.665c.846 0 1.693-.375 2.539-1.123a6.18 6.18 0 001.538-1.782c.879-1.547 1.351-3.101 1.416-4.664 0-1.285-.391-2.14-1.172-2.563a1.417 1.417 0 00-.683-.171l.488-.024-.244-.025c-.293 0-.505.016-.635.049h-.049c-.407.049-.879.228-1.416.537a9.906 9.906 0 00-1.929 1.416c-.618.57-1.302 1.351-2.05 2.344l.024.415c.163 2.311.334 3.988.513 5.03v.072c.553.326 1.107.489 1.66.489zm11.816-16.724c-.032 0-.276-.008-.732-.024-.456-.017-.789-.489-1.001-1.416v-1.44c0-.294.008-.505.024-.635v-.171c.163-1.4.79-2.1 1.88-2.1.423 0 .798.13 1.123.39.44.375.659.985.659 1.832.049.341.074.659.074.952.049.358.073.749.073 1.172 0 .179-.024.358-.073.537-.537.602-1.213.903-2.027.903zm1.685 22.022c-.781 0-1.424-.521-1.929-1.563-.407-1.35-.708-3.491-.903-6.42l-.073-.782c-.065-1.074-.106-1.628-.122-1.66-.114-1.92-.163-3.288-.147-4.102 0-1.041.016-1.847.049-2.417.098-.911.366-1.57.806-1.977.39-.342.822-.513 1.294-.513.602 0 1.098.244 1.489.732.309.375.464.863.464 1.465l-.025.342.025 1.294.073 1.514c.016.342.041.675.073 1l.098 1.612c.065.618.114 1.237.146 1.855l.44 4.517c.162 1.335.244 2.36.244 3.076-.261 1.351-.928 2.027-2.002 2.027zm11.108-.83c-1.888 0-3.597-.766-5.127-2.295a11.764 11.764 0 01-1.88-2.613c-1.074-1.904-1.611-4.028-1.611-6.372v-.366c.147-2.604.846-4.712 2.1-6.323a9.894 9.894 0 012.197-2.075c.863-.603 1.717-1.001 2.563-1.197a7.215 7.215 0 011.465-.146c.782 0 1.498.163 2.149.488a3.523 3.523 0 011.636 1.587c.309.553.463 1.164.463 1.831l-.073.928c-.163.927-.675 1.733-1.538 2.417a2.76 2.76 0 00-.366.342.634.634 0 01-.464.195c-.212 0-.448-.049-.708-.147-.505-.211-.757-.504-.757-.879 0-.113.025-.236.073-.366.098-.195.147-.333.147-.415a4.2 4.2 0 00.171-.757V73.2c-.147-.553-.472-.83-.977-.83-.749 0-1.57.513-2.466 1.538a5.832 5.832 0 00-1.025 1.831c0 .016-.008.025-.024.025-.114.39-.212.797-.293 1.22a9.507 9.507 0 00-.098 1.49c0 .7.114 1.48.342 2.343a9.764 9.764 0 001.001 2.32c.993 1.627 2.034 2.441 3.125 2.441.976 0 1.985-.643 3.027-1.929.423-.634.708-1.098.855-1.391l.268-.464c.358-.57.806-.855 1.343-.855.488 0 .968.212 1.44.635.033.033.049.09.049.171.016.081.025.171.025.269.016.097.032.17.048.22l.025.488c0 1.253-.448 2.523-1.343 3.808-.651.912-1.416 1.628-2.295 2.149-1.074.7-2.23 1.05-3.467 1.05zm11.011.39h-.586c-.358 0-.749-.618-1.172-1.855a64.968 64.968 0 01-.366-1.88c-.114-.635-.228-1.278-.342-1.929a39.14 39.14 0 01-.293-1.977c-.244-2.133-.39-3.581-.439-4.346a76.76 76.76 0 01-.22-5.762c0-1.009.016-1.864.049-2.563v-.708l.146-3.663.098-1.44c0-.325.033-.716.098-1.172.081-.472.35-.854.805-1.147a3.207 3.207 0 011.709-.464c.489 0 .928.122 1.319.366.39.228.586.635.586 1.22.065.766.097 1.173.097 1.221.017.033.049.513.098 1.44l.024 2.247v6.909c0 .928.017 1.847.049 2.759l.025 1.44.048 1.294c0 .554.017 1.107.049 1.66l.098 2.344c0 .521.065 1.628.195 3.32l.025.757c0 .538-.017.871-.049 1.001-.667.619-1.351.928-2.051.928zm10.498-1.05c-1.302 0-2.515-.407-3.638-1.22a6.632 6.632 0 01-1.977-2.49c-1.009-1.905-1.514-3.996-1.514-6.275 0-1.335.187-2.661.562-3.98a.883.883 0 00.073-.22c.13-.471.293-.935.488-1.39 1.286-2.442 3.06-3.663 5.323-3.663.927 0 1.839.22 2.734.66.895.439 1.676 1.082 2.344 1.928 1.204 1.53 1.969 3.296 2.295 5.298.081.52.122 1.123.122 1.806 0 .391-.025.79-.074 1.197a12.058 12.058 0 01-.61 2.905c-.407 1.025-.814 1.856-1.221 2.49a7.576 7.576 0 01-1.88 2.002c-.976.635-1.985.952-3.027.952zm-.098-4.077c.082 0 .261-.057.538-.17.276-.115.667-.627 1.171-1.539.163-.26.302-.537.415-.83v-.049c.293-.765.481-1.44.562-2.026l.024-.073a4.62 4.62 0 00.074-.806c0-.504-.033-.944-.098-1.318a6.427 6.427 0 00-.659-2.002c-.326-.684-.668-1.213-1.026-1.587-.716-.619-1.277-.928-1.684-.928-.44 0-.838.399-1.196 1.196a10.087 10.087 0 00-.708 2.564c-.098.57-.147 1.147-.147 1.733 0 1.595.399 3.125 1.196 4.59.603.83 1.115 1.245 1.538 1.245zm14.551 4.077c-1.302 0-2.514-.407-3.637-1.22a6.625 6.625 0 01-1.978-2.49c-1.009-1.905-1.514-3.996-1.514-6.275 0-1.335.187-2.661.562-3.98a.883.883 0 00.073-.22c.13-.471.293-.935.488-1.39 1.286-2.442 3.06-3.663 5.323-3.663.927 0 1.839.22 2.734.66.895.439 1.676 1.082 2.344 1.928 1.204 1.53 1.969 3.296 2.295 5.298.081.52.122 1.123.122 1.806 0 .391-.025.79-.074 1.197a12.058 12.058 0 01-.61 2.905c-.407 1.025-.814 1.856-1.221 2.49a7.589 7.589 0 01-1.879 2.002c-.977.635-1.986.952-3.028.952zm-.097-4.077c.081 0 .26-.057.537-.17.276-.115.667-.627 1.172-1.539.162-.26.301-.537.415-.83v-.049c.293-.765.48-1.44.561-2.026l.025-.073c.048-.277.073-.546.073-.806 0-.504-.033-.944-.098-1.318a6.427 6.427 0 00-.659-2.002c-.326-.684-.667-1.213-1.025-1.587-.717-.619-1.278-.928-1.685-.928-.439 0-.838.399-1.196 1.196a10.087 10.087 0 00-.708 2.564c-.098.57-.147 1.147-.147 1.733 0 1.595.399 3.125 1.196 4.59.603.83 1.115 1.245 1.539 1.245zm21.582.025h-.098c-.928 0-1.611-.44-2.051-1.319a3.724 3.724 0 01-.098-.854c0-.342.049-.83.147-1.465 0-.082.065-.545.195-1.392.342-1.692.936-3.108 1.783-4.248l.097-.122c.293-.423.627-.846 1.001-1.27l1.343-1.513c.114-.114.22-.236.317-.366l.513-.562c.13-.179.277-.366.439-.561.131-.13.253-.285.367-.464.244-.39.431-.724.561-1.001v-.024c.13-.26.196-.424.196-.489a.825.825 0 00.073-.317v-.415a2.512 2.512 0 00-.44-1.294c-.244-.39-.504-.692-.781-.903-.781-.7-1.44-1.05-1.977-1.05-.082 0-.285.04-.611.122-.309.081-.7.44-1.172 1.074a3.19 3.19 0 00-.757 1.123l-.024.049a3.994 3.994 0 00-.317 1.562v.318c0 .456.114.903.341 1.343.066.146.163.317.293.512.082.228.122.464.122.708 0 .39-.146.88-.439 1.465-.293.57-.716.944-1.27 1.123-.227 0-.439-.04-.634-.122a4.35 4.35 0 01-1.294-.855 6.024 6.024 0 01-1.441-2.66 7.44 7.44 0 01-.244-1.783 9.281 9.281 0 01.513-2.954c.179-.472.358-.846.537-1.123 0-.016.008-.024.024-.024a9.137 9.137 0 011.368-1.88v-.025a7.396 7.396 0 011.904-1.562c.814-.456 1.644-.684 2.49-.684l.879.025c.57 0 1.131.13 1.685.39 1.09.489 2.181 1.392 3.271 2.71.391.472.741.977 1.05 1.514.309.602.521 1.18.635 1.733.097.489.146.928.146 1.319l-.024.463c-.13 1.058-.529 2.157-1.197 3.296-.358.57-.642.96-.854 1.172l-.147.171c-.179.228-.358.448-.537.66a6.14 6.14 0 00-.317.341 4.21 4.21 0 01-.269.293c-.309.31-.618.635-.927.977a41.909 41.909 0 01-.415.512 4.475 4.475 0 01-.269.293c-.602.684-.96 1.547-1.074 2.588a12.14 12.14 0 00-.22 1.856c-.016 1.058-.097 1.847-.244 2.368-.456.797-1.172 1.204-2.148 1.22zm.512 6.127c-.765 0-1.375-.317-1.831-.952-.114-.309-.171-.789-.171-1.44.033-.635.31-1.115.83-1.44.538-.326 1.091-.489 1.661-.489h.146c1.091.065 1.636.57 1.636 1.514l-.025.195.049.537c.016.065.025.18.025.342 0 .18-.017.358-.049.537-.472.798-1.229 1.197-2.271 1.197z" fill="#FFF2EA"/><defs><clipPath id="prefix__clip0"><path fill="#fff" d="M0 0h712.89v147.3H0z"/></clipPath></defs></svg>