<svg width="918" height="434" viewBox="0 0 918 434" fill="none" xmlns="http://www.w3.org/2000/svg">
<g clip-path="url(#clip0)">
<path d="M8.91162 428.574C8.07812 428.574 7.24463 428.344 6.51597 427.873C4.98003 426.893 4.19371 425.071 4.53969 423.279C7.55915 407.583 18.5309 399.057 29.141 390.813C32.3282 388.341 35.6202 385.78 38.6397 383.062C74.4696 350.826 82.4743 308.629 90.9456 263.954C97.2518 230.713 103.773 196.34 122.561 165.675C130.047 153.457 139.299 144.647 147.466 136.875C161.85 123.185 173.21 112.37 173.152 88.3879C173.147 86.1567 172.964 83.2343 172.765 80.139C172.136 70.2405 171.354 57.9275 175.097 50.5218C188.318 24.3561 224.499 20.8261 258.148 20.8261C262.221 20.8261 266.153 20.8732 269.948 20.9151C273.382 20.957 276.621 20.9937 279.662 20.9937C283.824 20.9937 286.985 20.9204 289.611 20.7685C319.827 18.993 351.332 18.3279 381.799 17.6785C425.372 16.7567 470.433 15.8035 513.392 11.6136C518.634 11.1004 523.892 10.5661 529.171 10.0319C555.513 7.35565 582.756 4.59033 609.622 4.59033C616.363 4.59033 622.947 4.7684 629.185 5.1193C642.988 5.89443 656.738 8.09935 670.032 10.2362C685.806 12.7711 702.114 15.3897 718.223 15.5154C743.946 15.7092 769.449 17.6156 794.108 19.4644C811.045 20.7318 828.564 22.0412 845.994 22.7849C880.383 24.2513 901.173 31.9293 909.555 46.2534C915.819 56.9585 914.692 70.8532 906.205 87.5394C891.344 116.769 852.033 121.179 823.338 124.4C821.393 124.62 819.49 124.829 817.645 125.049C772.505 130.318 722.516 132.774 660.313 132.774C642.228 132.774 623.786 132.874 605.952 132.973C588.072 133.073 569.577 133.172 551.392 133.172C506.184 133.172 471.807 132.518 439.919 131.046C422.541 130.245 403.475 128.406 383.288 126.458C352.187 123.457 320.026 120.351 288.154 120.351C259.826 120.351 236.037 122.855 215.42 128.008C191.128 134.084 171.59 143.679 155.686 157.343C131.824 177.847 125.255 216.499 119.457 250.604C118.047 258.911 116.711 266.756 115.175 274.078C102.2 335.894 67.3246 387.592 11.517 427.736C10.7411 428.292 9.82899 428.574 8.91162 428.574Z" fill="#22C79E"/>
<path d="M609.617 9.04191C616.07 9.04191 622.513 9.20427 628.929 9.56041C658.93 11.2416 688.139 19.7313 718.181 19.9618C761.382 20.2917 802.899 25.3929 845.796 27.226C880.336 28.6977 926.729 37.3341 902.227 85.5176C887.502 114.475 845.811 117.272 817.121 120.618C765.146 126.688 712.656 128.312 660.308 128.312C624.08 128.312 587.716 128.71 551.388 128.71C514.179 128.71 477.007 128.291 440.124 126.589C396.504 124.578 341.263 115.889 288.155 115.889C236.923 115.889 187.674 123.981 152.782 153.959C121.733 180.638 118.719 235.499 110.814 273.156C97.635 335.952 61.7947 386.078 8.91216 424.122C12.4716 405.598 28.6225 398.067 41.6177 386.377C106.096 328.368 83.3503 238.191 126.362 168.001C146.077 135.828 177.703 129.108 177.609 88.3825C177.588 79.0966 174.789 61.0226 179.077 52.5328C191.563 27.8021 227.933 25.2777 258.149 25.2777C265.897 25.2777 273.23 25.4453 279.662 25.4453C283.405 25.4453 286.849 25.3877 289.874 25.2096C363.002 20.9097 440.464 23.1985 513.823 16.0442C545.401 12.9647 577.666 9.04191 609.617 9.04191ZM609.617 0.138428C582.526 0.138428 555.172 2.91946 528.721 5.60622C523.542 6.12995 518.189 6.67463 512.958 7.18789C470.166 11.3568 425.194 12.31 381.706 13.2318C351.196 13.876 319.655 14.5464 289.35 16.3271C286.807 16.4789 283.73 16.547 279.662 16.547C276.648 16.547 273.419 16.5104 270.001 16.4685C266.19 16.4266 262.253 16.3794 258.149 16.3794C243.974 16.3794 225.669 16.9084 209.738 21.0145C190.877 25.88 177.881 35.1344 171.119 48.521C166.836 57.0055 167.623 69.4442 168.32 80.4217C168.514 83.4436 168.692 86.3032 168.697 88.4034C168.723 98.4958 166.569 106.661 161.924 114.114C157.542 121.137 151.157 127.217 144.395 133.654C136.034 141.615 126.556 150.639 118.761 163.355C99.5432 194.716 92.9486 229.497 86.5689 263.132C78.2339 307.047 70.3655 348.527 35.6574 379.757C32.7586 382.365 29.6709 384.764 26.4051 387.299C15.664 395.642 3.49705 405.095 0.16306 422.441C-0.523657 426.024 1.04374 429.664 4.12086 431.622C5.58865 432.555 7.25041 433.021 8.9174 433.021C10.7469 433.021 12.5712 432.46 14.1228 431.345C41.7698 411.453 64.6464 388.44 82.1079 362.945C100.256 336.455 112.848 306.858 119.537 274.984C121.094 267.578 122.43 259.691 123.851 251.342C129.523 217.981 135.95 180.167 158.59 160.71C173.955 147.507 192.9 138.221 216.5 132.319C236.756 127.254 260.193 124.792 288.149 124.792C319.807 124.792 351.857 127.888 382.854 130.878C403.099 132.832 422.217 134.675 439.704 135.482C471.66 136.954 506.106 137.613 551.382 137.613C569.583 137.613 588.082 137.514 605.969 137.414C623.797 137.315 642.228 137.215 660.303 137.215C722.679 137.215 772.836 134.749 818.149 129.459C819.989 129.244 821.886 129.029 823.821 128.815C838.567 127.16 855.273 125.285 870.753 120.163C879.607 117.23 886.951 113.611 893.2 109.096C900.57 103.77 906.279 97.1917 910.164 89.5504C919.384 71.4239 920.464 56.0995 913.387 43.996C907.925 34.6578 897.75 27.7864 883.14 23.5703C873.123 20.6793 861.029 18.9614 846.168 18.3277C828.806 17.5893 811.329 16.2799 794.423 15.0177C769.69 13.1689 744.109 11.2573 718.239 11.0583C702.471 10.9378 687.048 8.46057 670.719 5.83666C657.315 3.68411 643.45 1.453 629.417 0.6674C623.105 0.316497 616.437 0.138428 609.617 0.138428Z" fill="#FFF2E9"/>
</g>
<defs>
<clipPath id="clip0">
<rect width="918" height="432.887" fill="white" transform="translate(0 0.138428)"/>
</clipPath>
</defs>
</svg>
