<svg width="918" height="434" viewBox="0 0 918 434" fill="none" xmlns="http://www.w3.org/2000/svg">
    <g clip-path="url(#clip0)">
        <path d="M8.91162 428.574C8.07812 428.574 7.24463 428.344 6.51597 427.873C4.98003 426.893 4.19371 425.071 4.53969 423.279C7.55915 407.583 18.5309 399.057 29.141 390.813C32.3282 388.341 35.6202 385.78 38.6397 383.062C74.4696 350.826 82.4743 308.629 90.9456 263.954C97.2518 230.713 103.773 196.34 122.561 165.675C130.047 153.457 139.299 144.647 147.466 136.875C161.85 123.185 173.21 112.37 173.152 88.3879C173.147 86.1567 172.964 83.2343 172.765 80.139C172.136 70.2405 171.354 57.9275 175.097 50.5218C188.318 24.3561 224.499 20.8261 258.148 20.8261C262.221 20.8261 266.153 20.8732 269.948 20.9151C273.382 20.957 276.621 20.9937 279.662 20.9937C283.824 20.9937 286.985 20.9204 289.611 20.7685C319.827 18.993 351.332 18.3279 381.799 17.6785C425.372 16.7567 470.433 15.8035 513.392 11.6136C518.634 11.1004 523.892 10.5661 529.171 10.0319C555.513 7.35565 582.756 4.59033 609.622 4.59033C616.363 4.59033 622.947 4.7684 629.185 5.1193C642.988 5.89443 656.738 8.09935 670.032 10.2362C685.806 12.7711 702.114 15.3897 718.223 15.5154C743.946 15.7092 769.449 17.6156 794.108 19.4644C811.045 20.7318 828.564 22.0412 845.994 22.7849C880.383 24.2513 901.173 31.9293 909.555 46.2534C915.819 56.9585 914.692 70.8532 906.205 87.5394C891.344 116.769 852.033 121.179 823.338 124.4C821.393 124.62 819.49 124.829 817.645 125.049C772.505 130.318 722.516 132.774 660.313 132.774C642.228 132.774 623.786 132.874 605.952 132.973C588.072 133.073 569.577 133.172 551.392 133.172C506.184 133.172 471.807 132.518 439.919 131.046C422.541 130.245 403.475 128.406 383.288 126.458C352.187 123.457 320.026 120.351 288.154 120.351C259.826 120.351 236.037 122.855 215.42 128.008C191.128 134.084 171.59 143.679 155.686 157.343C131.824 177.847 125.255 216.499 119.457 250.604C118.047 258.911 116.711 266.756 115.175 274.078C102.2 335.894 67.3246 387.592 11.517 427.736C10.7411 428.292 9.82899 428.574 8.91162 428.574Z" fill="#22C79E"/>
        <path d="M609.617 9.04191C616.07 9.04191 622.513 9.20427 628.929 9.56041C658.93 11.2416 688.139 19.7313 718.181 19.9618C761.382 20.2917 802.899 25.3929 845.796 27.226C880.336 28.6977 926.729 37.3341 902.227 85.5176C887.502 114.475 845.811 117.272 817.121 120.618C765.146 126.688 712.656 128.312 660.308 128.312C624.08 128.312 587.716 128.71 551.388 128.71C514.179 128.71 477.007 128.291 440.124 126.589C396.504 124.578 341.263 115.889 288.155 115.889C236.923 115.889 187.674 123.981 152.782 153.959C121.733 180.638 118.719 235.499 110.814 273.156C97.635 335.952 61.7947 386.078 8.91216 424.122C12.4716 405.598 28.6225 398.067 41.6177 386.377C106.096 328.368 83.3503 238.191 126.362 168.001C146.077 135.828 177.703 129.108 177.609 88.3825C177.588 79.0966 174.789 61.0226 179.077 52.5328C191.563 27.8021 227.933 25.2777 258.149 25.2777C265.897 25.2777 273.23 25.4453 279.662 25.4453C283.405 25.4453 286.849 25.3877 289.874 25.2096C363.002 20.9097 440.464 23.1985 513.823 16.0442C545.401 12.9647 577.666 9.04191 609.617 9.04191ZM609.617 0.138428C582.526 0.138428 555.172 2.91946 528.721 5.60622C523.542 6.12995 518.189 6.67463 512.958 7.18789C470.166 11.3568 425.194 12.31 381.706 13.2318C351.196 13.876 319.655 14.5464 289.35 16.3271C286.807 16.4789 283.73 16.547 279.662 16.547C276.648 16.547 273.419 16.5104 270.001 16.4685C266.19 16.4266 262.253 16.3794 258.149 16.3794C243.974 16.3794 225.669 16.9084 209.738 21.0145C190.877 25.88 177.881 35.1344 171.119 48.521C166.836 57.0055 167.623 69.4442 168.32 80.4217C168.514 83.4436 168.692 86.3032 168.697 88.4034C168.723 98.4958 166.569 106.661 161.924 114.114C157.542 121.137 151.157 127.217 144.395 133.654C136.034 141.615 126.556 150.639 118.761 163.355C99.5432 194.716 92.9486 229.497 86.5689 263.132C78.2339 307.047 70.3655 348.527 35.6574 379.757C32.7586 382.365 29.6709 384.764 26.4051 387.299C15.664 395.642 3.49705 405.095 0.16306 422.441C-0.523657 426.024 1.04374 429.664 4.12086 431.622C5.58865 432.555 7.25041 433.021 8.9174 433.021C10.7469 433.021 12.5712 432.46 14.1228 431.345C41.7698 411.453 64.6464 388.44 82.1079 362.945C100.256 336.455 112.848 306.858 119.537 274.984C121.094 267.578 122.43 259.691 123.851 251.342C129.523 217.981 135.95 180.167 158.59 160.71C173.955 147.507 192.9 138.221 216.5 132.319C236.756 127.254 260.193 124.792 288.149 124.792C319.807 124.792 351.857 127.888 382.854 130.878C403.099 132.832 422.217 134.675 439.704 135.482C471.66 136.954 506.106 137.613 551.382 137.613C569.583 137.613 588.082 137.514 605.969 137.414C623.797 137.315 642.228 137.215 660.303 137.215C722.679 137.215 772.836 134.749 818.149 129.459C819.989 129.244 821.886 129.029 823.821 128.815C838.567 127.16 855.273 125.285 870.753 120.163C879.607 117.23 886.951 113.611 893.2 109.096C900.57 103.77 906.279 97.1917 910.164 89.5504C919.384 71.4239 920.464 56.0995 913.387 43.996C907.925 34.6578 897.75 27.7864 883.14 23.5703C873.123 20.6793 861.029 18.9614 846.168 18.3277C828.806 17.5893 811.329 16.2799 794.423 15.0177C769.69 13.1689 744.109 11.2573 718.239 11.0583C702.471 10.9378 687.048 8.46057 670.719 5.83666C657.315 3.68411 643.45 1.453 629.417 0.6674C623.105 0.316497 616.437 0.138428 609.617 0.138428Z" fill="#FFF2E9"/>
    </g>
    <path d="M334.98 90.2969C334.574 90.2969 334.15 90.1423 333.711 89.833C333.288 89.54 333.019 89.0273 332.905 88.2949C332.71 87.5625 332.572 86.8789 332.49 86.2441C332.393 85.8535 332.319 85.471 332.271 85.0967C332.222 84.7223 332.165 84.3398 332.1 83.9492L331.855 82.1426C331.774 81.4753 331.701 80.7917 331.636 80.0918C331.571 79.3919 331.489 78.6758 331.392 77.9434L331.172 75.3311C331.042 73.7197 330.944 72.0352 330.879 70.2773L330.781 67.6406C330.781 66.778 330.765 65.9154 330.732 65.0527C330.732 61.8789 330.765 59.6247 330.83 58.29L330.854 57.7529C330.871 57.346 330.903 56.9391 330.952 56.5322C331.034 55.4255 331.147 54.6198 331.294 54.1152C331.424 53.7409 331.685 53.4642 332.075 53.2852C332.466 53.0898 332.889 52.9922 333.345 52.9922C333.8 53.0085 334.191 53.1305 334.517 53.3584C334.858 53.57 335.046 53.8955 335.078 54.335C335.111 54.6768 335.127 55.5801 335.127 57.0449C336.283 56.2799 337.65 55.8975 339.229 55.8975C340.107 55.8975 340.97 56.0521 341.816 56.3613C342.744 56.6543 343.574 57.167 344.307 57.8994C345.69 59.2829 346.528 61.1628 346.821 63.5391C346.903 64.2552 346.943 64.9714 346.943 65.6875C346.943 67.0384 346.764 68.3975 346.406 69.7646C346.113 70.7738 345.755 71.6201 345.332 72.3037C344.909 73.085 344.355 73.7604 343.672 74.3301C342.988 74.8997 342.199 75.3229 341.304 75.5996C340.522 75.7949 339.733 75.8926 338.936 75.8926C337.666 75.8926 336.535 75.6566 335.542 75.1846C335.542 75.5915 335.599 76.4053 335.713 77.626L335.908 79.7744L336.274 83.0947L336.494 85.1455L336.567 86C336.665 87.0742 336.714 87.7497 336.714 88.0264C336.714 88.3682 336.681 88.7018 336.616 89.0273C336.291 89.8737 335.745 90.2969 334.98 90.2969ZM338.911 71.6689C339.302 71.6689 339.749 71.555 340.254 71.3271C340.775 71.083 341.247 70.5296 341.67 69.667C341.963 69.016 342.15 68.3649 342.231 67.7139C342.394 66.9001 342.476 66.0781 342.476 65.248C342.443 64.304 342.354 63.5065 342.207 62.8555C341.784 61.3092 341.19 60.3327 340.425 59.9258C340.002 59.6654 339.521 59.5026 338.984 59.4375L338.936 59.4131H338.594L339.302 59.3887L339.766 59.4131L339.521 59.3643L338.887 59.3398C338.757 59.3561 338.618 59.3643 338.472 59.3643C338.195 59.3968 337.926 59.4456 337.666 59.5107L337.617 59.5352C337.129 59.6816 336.698 59.8932 336.323 60.1699C336.307 60.1862 336.283 60.1943 336.25 60.1943C335.68 60.6338 335.298 60.9512 335.103 61.1465C335.103 63.1647 335.127 65.0039 335.176 66.6641L335.2 67.543C335.216 68.7637 335.257 69.9762 335.322 71.1807L335.347 71.5957H335.396L335.908 71.3027H336.03C336.047 71.2865 336.12 71.2783 336.25 71.2783C336.445 71.2783 336.795 71.3271 337.3 71.4248C337.967 71.5876 338.504 71.6689 338.911 71.6689ZM352.07 81.6055C351.891 81.6055 351.598 81.5566 351.191 81.459C350.524 81.2637 349.987 80.2546 349.58 78.4316L349.189 76.5762L348.823 74.6963C348.726 74.208 348.579 73.3779 348.384 72.2061C348.188 71.0993 348.026 69.9844 347.896 68.8613C347.847 68.2266 347.79 67.5999 347.725 66.9814C347.578 65.2236 347.48 63.6855 347.432 62.3672V61.3174C347.497 60.7965 347.757 60.4141 348.213 60.1699C348.669 59.9095 349.189 59.7793 349.775 59.7793C350.378 59.7793 350.898 59.9095 351.338 60.1699C351.794 60.4141 352.046 60.7803 352.095 61.2686C352.095 61.4476 352.103 61.6104 352.119 61.7568C352.135 61.9033 352.144 62.0579 352.144 62.2207C352.16 62.3835 352.176 62.5462 352.192 62.709L352.266 63.417L352.363 64.7109L352.437 64.6133C353.169 63.6693 353.877 63.0182 354.561 62.6602C355.049 62.3997 355.618 62.2695 356.27 62.2695C357.214 62.2695 358.101 62.5137 358.931 63.002C359.728 63.5879 360.29 64.1006 360.615 64.54C360.941 64.9632 361.258 65.5573 361.567 66.3223L361.982 67.5918L362.3 69.0078C362.381 69.4473 362.422 69.9274 362.422 70.4482C362.422 70.8063 362.357 71.1481 362.227 71.4736C362.161 71.734 362.007 71.9212 361.763 72.0352C361.535 72.1491 361.372 72.2467 361.274 72.3281L360.933 72.5967L359.688 72.7432C359.557 72.6455 359.435 72.5723 359.321 72.5234L358.687 72.3281C358.589 72.3118 358.507 72.2874 358.442 72.2549C358.394 72.2223 358.296 72.1084 358.149 71.9131C357.791 71.3923 357.547 70.6436 357.417 69.667C357.368 69.1787 357.287 68.6986 357.173 68.2266L357.075 67.8115C356.831 66.7699 356.432 66.249 355.879 66.249C355.326 66.249 354.699 66.7536 353.999 67.7627C353.657 68.2998 353.454 68.6986 353.389 68.959C353.161 69.3984 353.022 69.7158 352.974 69.9111L352.925 69.9844C352.957 70.1146 352.974 70.2367 352.974 70.3506L353.34 73.2314L353.462 74.0859L353.584 75.1113L353.706 75.9414C353.706 75.9902 353.714 76.0309 353.73 76.0635C353.975 77.7725 354.097 78.9443 354.097 79.5791C354.015 80.3604 353.714 80.9219 353.193 81.2637C352.835 81.4915 352.461 81.6055 352.07 81.6055ZM369.941 81.9717C368.997 81.9717 368.053 81.7682 367.109 81.3613C366.084 80.9056 365.229 80.2139 364.546 79.2861C363.455 77.7074 362.91 75.6891 362.91 73.2314C362.91 71.7503 363.089 70.3018 363.447 68.8857C363.805 67.5674 364.261 66.4199 364.814 65.4434C365.384 64.4668 366.084 63.5716 366.914 62.7578C367.76 61.9277 368.647 61.2686 369.575 60.7803C370.519 60.292 371.447 59.9909 372.358 59.877H373.726C374.165 59.8932 374.604 59.9665 375.044 60.0967C376.834 60.764 377.982 62.001 378.486 63.8076C378.649 64.361 378.73 64.9714 378.73 65.6387C378.73 66.7617 378.486 67.8441 377.998 68.8857C377.656 69.6833 377.127 70.5133 376.411 71.376C376.265 71.6038 375.923 71.9701 375.386 72.4746C373.612 74.0208 371.854 75.0951 370.112 75.6973C369.233 75.9902 368.428 76.153 367.695 76.1855C367.712 76.2018 367.728 76.2344 367.744 76.2832C367.76 76.332 367.777 76.389 367.793 76.4541C367.923 76.7308 368.094 76.9912 368.306 77.2354C368.859 77.8538 369.453 78.1631 370.088 78.1631C370.706 78.1631 371.309 77.9922 371.895 77.6504C372.236 77.4714 372.562 77.2842 372.871 77.0889C373.376 76.7633 373.669 76.5599 373.75 76.4785C374.238 76.0391 374.743 75.681 375.264 75.4043L375.435 75.3066C375.695 75.2578 375.947 75.2334 376.191 75.2334C376.533 75.2334 376.899 75.3066 377.29 75.4531C377.697 75.5833 377.941 76.0228 378.022 76.7715C377.925 77.1784 377.754 77.5609 377.51 77.9189C377.282 78.277 377.005 78.6025 376.68 78.8955C375.166 80.2627 373.441 81.2311 371.504 81.8008C370.983 81.9147 370.462 81.9717 369.941 81.9717ZM367.183 73.3291C367.215 73.3291 367.24 73.321 367.256 73.3047C367.419 73.3047 367.769 73.207 368.306 73.0117C369.624 72.4583 370.991 71.5143 372.407 70.1797C372.993 69.5775 373.457 69.0078 373.799 68.4707C374.32 67.5267 374.588 66.6478 374.604 65.834C374.604 65.3457 374.458 64.833 374.165 64.2959C374.019 64.068 373.848 63.9297 373.652 63.8809H373.75H373.286H373.628C373.481 63.832 373.278 63.8076 373.018 63.8076C372.741 63.8402 372.603 63.8646 372.603 63.8809H373.286C372.7 63.8809 372.008 64.1331 371.211 64.6377C369.779 65.6143 368.729 66.9001 368.062 68.4951C367.476 69.8786 367.183 71.4899 367.183 73.3291ZM381.562 83.0703C381.156 83.0703 380.708 82.9238 380.22 82.6309C379.748 82.3216 379.471 81.7438 379.39 80.8975C379.276 79.8232 379.219 78.2282 379.219 76.1123L379.243 75.5752C379.259 74.3382 379.308 73.0605 379.39 71.7422C379.39 71.4492 379.406 71.1481 379.438 70.8389C379.487 69.5205 379.658 68.1696 379.951 66.7861L380.244 65.6875C380.456 64.9388 380.757 64.2959 381.147 63.7588C381.75 62.8636 382.572 62.416 383.613 62.416C383.906 62.416 384.207 62.4567 384.517 62.5381C385.135 62.766 385.721 63.1729 386.274 63.7588C386.616 64.1331 386.999 64.654 387.422 65.3213C387.91 66.0537 388.366 66.8594 388.789 67.7383L389.082 68.3486C389.212 68.609 389.334 68.8776 389.448 69.1543C389.79 69.9193 390.002 70.432 390.083 70.6924C390.409 71.4248 390.628 71.9619 390.742 72.3037L391.914 75.1357L392.012 73.7197C392.061 72.9385 392.085 72.2467 392.085 71.6445L392.109 70.7656L392.085 70.3018C392.085 69.667 392.077 69.2438 392.061 69.0322C392.061 68.1045 392.085 67.3232 392.134 66.6885V65.6387L392.109 65.2969C392.109 65.069 392.134 64.8411 392.183 64.6133C392.476 63.7018 392.956 63.2461 393.623 63.2461C394.16 63.2461 394.608 63.6367 394.966 64.418C395.08 64.7272 395.161 65.069 395.21 65.4434C395.259 65.8177 395.348 66.3141 395.479 66.9326C395.706 68.0068 395.853 69.0729 395.918 70.1309L396.064 71.498C396.227 72.6536 396.317 73.7767 396.333 74.8672C396.333 75.1927 396.292 75.8356 396.211 76.7959L396.187 76.8691C396.073 78.3014 395.706 79.4489 395.088 80.3115C394.437 81.1579 393.599 81.5811 392.573 81.5811C391.564 81.5811 390.685 81.166 389.937 80.3359C389.432 79.8639 388.919 79.1234 388.398 78.1143C387.829 76.9749 387.186 75.4775 386.47 73.6221C386.437 73.5081 386.388 73.3861 386.323 73.2559C386.274 73.1094 385.924 72.1898 385.273 70.4971C385.273 70.4645 385.265 70.4401 385.249 70.4238C384.972 69.61 384.647 68.8451 384.272 68.1289L384.199 67.9824L383.809 71.1074C383.809 71.2051 383.8 71.2946 383.784 71.376C383.719 72.2061 383.67 73.0117 383.638 73.793C383.638 74.0208 383.605 74.8184 383.54 76.1855C383.491 77.8294 383.451 78.9362 383.418 79.5059L383.32 81.0195C383.304 81.2637 383.28 81.4997 383.247 81.7275C383.035 82.6227 382.474 83.0703 381.562 83.0703ZM409.175 84.6572H409.053C407.93 84.6572 407.238 83.0459 406.978 79.8232C405.887 80.4255 404.691 80.7266 403.389 80.7266C401.289 80.7266 399.629 79.9779 398.408 78.4805C397.676 77.5853 397.212 76.5599 397.017 75.4043C396.903 74.8184 396.846 74.1266 396.846 73.3291C396.846 71.7829 397.139 70.2367 397.725 68.6904C398.197 67.6162 398.742 66.721 399.36 66.0049C400.728 64.5075 402.404 63.7588 404.39 63.7588C404.715 63.7588 405.041 63.7751 405.366 63.8076L406.514 64.0762C406.514 63.3763 406.522 62.8066 406.538 62.3672C406.571 61.9277 406.587 61.5046 406.587 61.0977C406.619 60.0234 406.709 58.7051 406.855 57.1426C406.953 56.0358 407.108 54.9697 407.319 53.9443C407.466 53.3096 407.596 52.9027 407.71 52.7236C407.743 52.512 407.832 52.3411 407.979 52.2109C408.288 51.9342 408.67 51.7959 409.126 51.7959C409.565 51.7959 409.932 51.9668 410.225 52.3086C410.339 52.4876 410.412 52.6829 410.444 52.8945L410.469 53.041C410.55 53.3991 410.607 53.7653 410.64 54.1396C410.688 54.7256 410.713 55.4906 410.713 56.4346L410.688 57.3135C410.656 58.4528 410.64 59.5596 410.64 60.6338C410.623 61.0407 410.615 61.6185 410.615 62.3672V68.3486C410.615 69.0811 410.623 69.6833 410.64 70.1553V73.9395L410.737 78.9932L410.786 80.6045C410.786 83.1924 410.249 84.5433 409.175 84.6572ZM403.657 76.5762C403.722 76.5762 403.779 76.568 403.828 76.5518C403.975 76.5518 404.072 76.5436 404.121 76.5273H403.999C404.406 76.4948 404.919 76.3483 405.537 76.0879C405.635 76.0391 405.741 75.9984 405.854 75.9658C406.31 75.7542 406.571 75.6159 406.636 75.5508H406.66C406.644 75.0299 406.619 74.5173 406.587 74.0127C406.522 72.7269 406.489 70.9772 406.489 68.7637V68.2998C406.457 68.2998 406.424 68.2835 406.392 68.251C405.627 67.8115 404.935 67.5918 404.316 67.5918C403.682 67.5918 403.12 67.8441 402.632 68.3486C402.192 68.7881 401.842 69.3252 401.582 69.96C401.354 70.4971 401.24 70.8714 401.24 71.083C401.077 71.734 400.996 72.4014 400.996 73.085C400.996 73.7035 401.069 74.2406 401.216 74.6963C401.574 75.7705 402.127 76.3809 402.876 76.5273H403.999L403.901 76.5518L403.486 76.5762L402.974 76.5518C403.088 76.568 403.258 76.5762 403.486 76.5762H403.657ZM416.572 81.6055C416.393 81.6055 416.1 81.5566 415.693 81.459C415.026 81.2637 414.489 80.2546 414.082 78.4316L413.691 76.5762L413.325 74.6963C413.228 74.208 413.081 73.3779 412.886 72.2061C412.69 71.0993 412.528 69.9844 412.397 68.8613C412.349 68.2266 412.292 67.5999 412.227 66.9814C412.08 65.2236 411.982 63.6855 411.934 62.3672V61.3174C411.999 60.7965 412.259 60.4141 412.715 60.1699C413.171 59.9095 413.691 59.7793 414.277 59.7793C414.88 59.7793 415.4 59.9095 415.84 60.1699C416.296 60.4141 416.548 60.7803 416.597 61.2686C416.597 61.4476 416.605 61.6104 416.621 61.7568C416.637 61.9033 416.646 62.0579 416.646 62.2207C416.662 62.3835 416.678 62.5462 416.694 62.709L416.768 63.417L416.865 64.7109L416.938 64.6133C417.671 63.6693 418.379 63.0182 419.062 62.6602C419.551 62.3997 420.12 62.2695 420.771 62.2695C421.715 62.2695 422.603 62.5137 423.433 63.002C424.23 63.5879 424.792 64.1006 425.117 64.54C425.443 64.9632 425.76 65.5573 426.069 66.3223L426.484 67.5918L426.802 69.0078C426.883 69.4473 426.924 69.9274 426.924 70.4482C426.924 70.8063 426.859 71.1481 426.729 71.4736C426.663 71.734 426.509 71.9212 426.265 72.0352C426.037 72.1491 425.874 72.2467 425.776 72.3281L425.435 72.5967L424.189 72.7432C424.059 72.6455 423.937 72.5723 423.823 72.5234L423.188 72.3281C423.091 72.3118 423.009 72.2874 422.944 72.2549C422.896 72.2223 422.798 72.1084 422.651 71.9131C422.293 71.3923 422.049 70.6436 421.919 69.667C421.87 69.1787 421.789 68.6986 421.675 68.2266L421.577 67.8115C421.333 66.7699 420.934 66.249 420.381 66.249C419.827 66.249 419.201 66.7536 418.501 67.7627C418.159 68.2998 417.956 68.6986 417.891 68.959C417.663 69.3984 417.524 69.7158 417.476 69.9111L417.427 69.9844C417.459 70.1146 417.476 70.2367 417.476 70.3506L417.842 73.2314L417.964 74.0859L418.086 75.1113L418.208 75.9414C418.208 75.9902 418.216 76.0309 418.232 76.0635C418.477 77.7725 418.599 78.9443 418.599 79.5791C418.517 80.3604 418.216 80.9219 417.695 81.2637C417.337 81.4915 416.963 81.6055 416.572 81.6055ZM441.646 86.6348C441.515 86.6348 441.393 86.6266 441.279 86.6104C441.165 86.5941 440.986 86.4639 440.742 86.2197L440.498 85.8535C440.189 85.4303 439.888 84.7467 439.595 83.8027C439.578 83.7051 439.554 83.6156 439.521 83.5342C439.196 82.2972 438.944 80.93 438.765 79.4326C438.732 79.1559 438.716 78.8874 438.716 78.627L438.643 78.7246C437.699 80.0755 436.665 81.0684 435.542 81.7031H435.518C434.671 82.1914 433.776 82.4355 432.832 82.4355C431.4 82.4355 430.195 81.8984 429.219 80.8242C428.014 79.5547 427.412 77.6585 427.412 75.1357C427.542 72.6292 428.267 70.3262 429.585 68.2266C430.269 67.1198 431.001 66.2327 431.782 65.5654C431.782 65.484 432.189 65.1748 433.003 64.6377C434.142 63.9541 435.436 63.6042 436.885 63.5879C437.926 63.5879 438.813 63.832 439.546 64.3203C439.709 64.4017 439.912 64.5645 440.156 64.8086C440.156 64.8249 440.164 64.833 440.181 64.833C440.571 65.2562 440.767 65.6794 440.767 66.1025C440.767 66.3141 440.75 66.4525 440.718 66.5176C440.685 66.5827 440.636 66.6559 440.571 66.7373C440.278 67.0791 439.489 67.25 438.203 67.25H437.886C437.056 67.25 436.299 67.3639 435.615 67.5918C434.72 68.0964 433.914 68.8939 433.198 69.9844C432.173 71.6934 431.628 73.4512 431.562 75.2578C431.562 76.0065 431.676 76.6901 431.904 77.3086C432.148 78.0085 432.523 78.3584 433.027 78.3584C433.483 78.3584 434.167 77.9434 435.078 77.1133C435.078 77.097 435.086 77.0889 435.103 77.0889C435.509 76.7145 436.112 76.0309 436.909 75.0381L437.446 74.3789C437.593 74.151 437.747 73.9395 437.91 73.7441C438.073 73.5488 438.219 73.3454 438.35 73.1338L438.667 72.6455C438.667 72.3851 438.7 72.0921 438.765 71.7666C438.83 71.2946 438.919 70.8551 439.033 70.4482L439.253 70.0332C439.416 69.724 439.79 69.5693 440.376 69.5693C440.539 69.5693 440.75 69.5856 441.011 69.6182C441.597 69.7158 441.89 69.9193 441.89 70.2285L441.865 70.375C441.865 70.3913 441.873 70.4076 441.89 70.4238C441.922 70.4401 441.971 70.4808 442.036 70.5459C442.101 70.6598 442.134 70.847 442.134 71.1074L442.109 71.791L442.085 74.2568C442.085 75.4775 442.118 76.446 442.183 77.1621C442.183 77.4551 442.231 78.1061 442.329 79.1152C442.459 80.0918 442.557 80.7021 442.622 80.9463C442.801 82.0531 443.021 83.0459 443.281 83.9248L443.354 84.1689C443.468 84.4456 443.534 84.7223 443.55 84.999C443.55 85.6175 443.306 86.0651 442.817 86.3418C442.459 86.5371 442.069 86.6348 441.646 86.6348ZM437.959 70.1309C437.943 70.1146 437.918 70.1064 437.886 70.1064C437.869 70.1064 437.853 70.1064 437.837 70.1064C437.821 70.1064 437.812 70.0983 437.812 70.082L437.886 70.0088C437.902 70.0088 437.91 70.0169 437.91 70.0332C437.926 70.0332 437.935 70.0495 437.935 70.082C437.951 70.0983 437.959 70.1146 437.959 70.1309ZM451.68 84.0469C449.824 84.0469 448.188 83.5505 446.772 82.5576C446.024 82.0368 445.422 81.459 444.966 80.8242C444.461 80.0592 444.193 79.3024 444.16 78.5537C444.372 77.5771 444.803 77.0889 445.454 77.0889C445.487 77.0889 445.682 77.1051 446.04 77.1377C446.414 77.154 446.968 77.4632 447.7 78.0654C448.009 78.4886 448.335 78.8467 448.677 79.1396L448.823 79.2617C449.035 79.4408 449.255 79.5872 449.482 79.7012C450.215 80.1243 450.931 80.3359 451.631 80.3359C452.298 80.3359 452.892 80.0999 453.413 79.6279L453.535 79.1641C453.551 79.0827 453.56 78.9932 453.56 78.8955C453.56 78.5863 453.397 78.2038 453.071 77.748C452.827 77.4062 452.412 77.0075 451.826 76.5518L451.582 76.332L450.898 75.8193L449.971 75.1602L449.604 74.9404C449.377 74.7939 449.132 74.6475 448.872 74.501C448.677 74.4033 448.294 74.1592 447.725 73.7686L447.603 73.6709C447.244 73.4268 446.895 73.1582 446.553 72.8652C445.788 72.1979 445.177 71.4248 444.722 70.5459C444.282 69.667 444.062 68.7148 444.062 67.6895C444.062 66.6315 444.347 65.5898 444.917 64.5645C445.47 63.6042 446.17 62.8555 447.017 62.3184C447.879 61.765 448.896 61.4883 450.068 61.4883C451.224 61.4883 452.249 61.8057 453.145 62.4404C453.747 62.9287 454.194 63.5146 454.487 64.1982C454.731 64.7191 454.854 65.2399 454.854 65.7607C454.854 66.4769 454.618 67.1198 454.146 67.6895C453.641 68.1289 453.21 68.3486 452.852 68.3486C452.835 68.3486 452.729 68.3405 452.534 68.3242C452.339 68.3079 451.989 67.9906 451.484 67.3721C451.419 67.2907 451.387 67.2012 451.387 67.1035V66.7617V66.4199C451.387 66.2734 451.379 66.1921 451.362 66.1758C451.313 66.0781 451.281 66.0212 451.265 66.0049C451.248 65.9723 451.232 65.9479 451.216 65.9316C451.2 65.9154 451.183 65.8991 451.167 65.8828C450.841 65.541 450.54 65.3701 450.264 65.3701C449.694 65.3701 449.246 65.6875 448.921 66.3223C448.726 66.7454 448.628 67.1361 448.628 67.4941C448.628 67.7057 448.677 67.9255 448.774 68.1533C448.937 68.6253 449.385 69.138 450.117 69.6914C450.231 69.8053 450.557 70.0251 451.094 70.3506C451.224 70.4157 451.346 70.4889 451.46 70.5703L452.607 71.2539C453.6 71.9049 454.235 72.3444 454.512 72.5723C455.342 73.2233 456.017 73.8662 456.538 74.501C457.563 75.8031 458.076 77.2028 458.076 78.7002C458.076 79.1071 458.027 79.514 457.93 79.9209C457.49 81.7438 456.31 82.9889 454.39 83.6562C453.527 83.9167 452.624 84.0469 451.68 84.0469ZM459.492 71.9375C459.15 72.1328 458.906 72.4176 458.76 72.792C458.63 73.1501 458.646 73.4756 458.809 73.7686C459.036 74.1592 459.419 74.4684 459.956 74.6963C460.509 74.9079 461.364 75.0951 462.52 75.2578C463.48 75.3717 465.034 75.4775 467.183 75.5752C469.347 75.6729 471.423 75.738 473.408 75.7705C475.41 75.8031 476.631 75.7868 477.07 75.7217C477.461 75.6077 477.811 75.3962 478.12 75.0869C478.429 74.7614 478.584 74.4521 478.584 74.1592C478.584 74.0127 478.527 73.8418 478.413 73.6465C478.315 73.4512 478.193 73.2803 478.047 73.1338C477.9 72.9873 477.705 72.8734 477.461 72.792C477.217 72.7106 476.794 72.6455 476.191 72.5967C475.589 72.5479 474.67 72.499 473.433 72.4502C472.261 72.3851 470.91 72.3037 469.38 72.2061C467.85 72.1084 466.491 72.0107 465.303 71.9131C464.082 71.8154 463.122 71.7422 462.422 71.6934C461.722 71.6445 461.193 71.6201 460.835 71.6201C460.477 71.6201 460.208 71.6445 460.029 71.6934C459.85 71.7422 459.671 71.8236 459.492 71.9375ZM485.811 81.0928C484.834 81.0928 483.963 80.8079 483.198 80.2383C482.254 79.5384 481.522 78.3584 481.001 76.6982C480.741 75.9658 480.545 75.1439 480.415 74.2324C480.399 74.0697 480.374 73.915 480.342 73.7686L480.22 72.8164C480.22 72.6211 480.203 72.4258 480.171 72.2305C480.09 71.5306 480.049 70.3994 480.049 68.8369L480.098 68.0068C480.114 67.4535 480.155 66.8919 480.22 66.3223C480.285 65.7526 480.334 65.4189 480.366 65.3213C480.138 65.3213 479.683 65.4271 478.999 65.6387L478.486 65.7607L478.169 65.7852C478.006 65.6875 477.827 65.598 477.632 65.5166C476.883 65.2562 476.509 64.9388 476.509 64.5645C476.509 64.3203 476.785 64.0029 477.339 63.6123L477.388 63.5879C478.088 63.1647 478.958 62.8066 480 62.5137C480.521 62.3835 480.838 62.3184 480.952 62.3184L480.977 62.1719L481.123 61.6592C481.237 60.9919 481.424 60.3896 481.685 59.8525C482.124 58.9899 482.645 58.5586 483.247 58.5586C484.045 58.5749 484.744 59.1283 485.347 60.2188L485.225 60.8047L485.054 61.6104L484.98 61.9033C484.98 61.9359 484.972 61.9603 484.956 61.9766L485.2 62.001C485.721 62.001 486.152 62.0091 486.494 62.0254C486.836 62.0417 487.17 62.0742 487.495 62.123C488.179 62.1556 488.748 62.2451 489.204 62.3916C489.513 62.6195 489.668 62.9043 489.668 63.2461C489.668 63.3112 489.644 63.4821 489.595 63.7588C489.546 64.0192 489.342 64.3366 488.984 64.7109C488.626 65.0853 488.219 65.305 487.764 65.3701L487.031 65.2969C486.234 65.1992 485.656 65.1423 485.298 65.126L484.517 65.1016L484.492 65.2236C484.46 65.6143 484.419 65.9967 484.37 66.3711C484.37 66.599 484.354 66.7943 484.321 66.957C484.24 68.015 484.199 68.7311 484.199 69.1055L484.15 69.6914C484.15 71.1237 484.175 72.0758 484.224 72.5479C484.224 72.7432 484.256 73.1663 484.321 73.8174C484.386 74.1755 484.443 74.5254 484.492 74.8672C484.557 75.209 484.631 75.5345 484.712 75.8438C484.826 76.3483 485.005 76.8285 485.249 77.2842C485.493 77.7236 485.786 77.9434 486.128 77.9434C486.421 77.9434 486.738 77.6504 487.08 77.0645C487.243 76.804 487.34 76.625 487.373 76.5273C487.699 75.7135 488.04 75.3066 488.398 75.3066C488.805 75.3066 489.058 76.0391 489.155 77.5039C489.139 77.5365 489.131 77.5771 489.131 77.626V77.7725C489.131 78.3096 488.927 78.9362 488.521 79.6523C488.195 80.1406 487.812 80.5068 487.373 80.751C486.934 80.9788 486.413 81.0928 485.811 81.0928ZM484.956 65.1016C484.826 65.1016 484.704 65.0934 484.59 65.0771H484.517V65.1016H484.956ZM498.14 82.3135C496.593 82.3135 495.186 81.8577 493.916 80.9463C493.135 80.2952 492.467 79.514 491.914 78.6025L491.694 78.1875C491.06 77.0807 490.596 75.681 490.303 73.9883C490.238 73.3861 490.189 72.792 490.156 72.2061C490.156 70.9202 490.262 69.7484 490.474 68.6904C490.718 67.3232 491.206 65.8421 491.938 64.2471C492.557 63.0101 493.102 62.1719 493.574 61.7324C493.688 61.651 493.843 61.6104 494.038 61.6104C494.64 61.6104 495.308 61.887 496.04 62.4404C496.789 62.9775 497.163 63.5146 497.163 64.0518C497.163 64.3285 497.041 64.6051 496.797 64.8818C496.488 65.5817 496.227 66.363 496.016 67.2256C495.771 68.2347 495.625 69.2275 495.576 70.2041L495.552 71.0342C495.552 71.9131 495.625 72.6781 495.771 73.3291C495.885 74.0452 495.983 74.444 496.064 74.5254C496.341 75.3392 496.61 75.9821 496.87 76.4541C497.44 77.3656 498.075 77.8213 498.774 77.8213C499.393 77.8213 500.166 77.3981 501.094 76.5518C501.549 76.0635 501.908 75.5671 502.168 75.0625C502.493 74.5091 502.738 73.915 502.9 73.2803C503.161 72.4339 503.291 71.5794 503.291 70.7168C503.291 69.9681 503.234 69.195 503.12 68.3975L503.096 68.3242C502.982 67.6406 502.803 66.9245 502.559 66.1758C502.282 65.2969 502.046 64.654 501.851 64.2471L501.606 63.7344C501.444 63.4414 501.362 63.1973 501.362 63.002C501.362 62.4811 501.582 62.0498 502.021 61.708C502.461 61.3499 502.998 61.1709 503.633 61.1709C504.772 61.1709 505.407 61.7568 505.537 62.9287L505.952 64.1006L506.318 65.3457C506.709 66.9733 506.937 68.2184 507.002 69.0811L507.075 70.79C507.075 71.848 506.912 72.971 506.587 74.1592L506.196 75.3555L506.074 75.6484C505.667 76.6901 505.106 77.6829 504.39 78.627C503.234 80.1569 501.956 81.2148 500.557 81.8008C499.775 82.1426 498.97 82.3135 498.14 82.3135ZM522.627 81.0928C521.65 81.0928 520.78 80.8079 520.015 80.2383C519.071 79.5384 518.338 78.3584 517.817 76.6982C517.557 75.9658 517.362 75.1439 517.231 74.2324C517.215 74.0697 517.191 73.915 517.158 73.7686L517.036 72.8164C517.036 72.6211 517.02 72.4258 516.987 72.2305C516.906 71.5306 516.865 70.3994 516.865 68.8369L516.914 68.0068C516.93 67.4535 516.971 66.8919 517.036 66.3223C517.101 65.7526 517.15 65.4189 517.183 65.3213C516.955 65.3213 516.499 65.4271 515.815 65.6387L515.303 65.7607L514.985 65.7852C514.823 65.6875 514.644 65.598 514.448 65.5166C513.7 65.2562 513.325 64.9388 513.325 64.5645C513.325 64.3203 513.602 64.0029 514.155 63.6123L514.204 63.5879C514.904 63.1647 515.775 62.8066 516.816 62.5137C517.337 62.3835 517.655 62.3184 517.769 62.3184L517.793 62.1719L517.939 61.6592C518.053 60.9919 518.241 60.3896 518.501 59.8525C518.94 58.9899 519.461 58.5586 520.063 58.5586C520.861 58.5749 521.561 59.1283 522.163 60.2188L522.041 60.8047L521.87 61.6104L521.797 61.9033C521.797 61.9359 521.789 61.9603 521.772 61.9766L522.017 62.001C522.537 62.001 522.969 62.0091 523.311 62.0254C523.652 62.0417 523.986 62.0742 524.312 62.123C524.995 62.1556 525.565 62.2451 526.021 62.3916C526.33 62.6195 526.484 62.9043 526.484 63.2461C526.484 63.3112 526.46 63.4821 526.411 63.7588C526.362 64.0192 526.159 64.3366 525.801 64.7109C525.443 65.0853 525.036 65.305 524.58 65.3701L523.848 65.2969C523.05 65.1992 522.472 65.1423 522.114 65.126L521.333 65.1016L521.309 65.2236C521.276 65.6143 521.235 65.9967 521.187 66.3711C521.187 66.599 521.17 66.7943 521.138 66.957C521.056 68.015 521.016 68.7311 521.016 69.1055L520.967 69.6914C520.967 71.1237 520.991 72.0758 521.04 72.5479C521.04 72.7432 521.073 73.1663 521.138 73.8174C521.203 74.1755 521.26 74.5254 521.309 74.8672C521.374 75.209 521.447 75.5345 521.528 75.8438C521.642 76.3483 521.821 76.8285 522.065 77.2842C522.31 77.7236 522.603 77.9434 522.944 77.9434C523.237 77.9434 523.555 77.6504 523.896 77.0645C524.059 76.804 524.157 76.625 524.189 76.5273C524.515 75.7135 524.857 75.3066 525.215 75.3066C525.622 75.3066 525.874 76.0391 525.972 77.5039C525.955 77.5365 525.947 77.5771 525.947 77.626V77.7725C525.947 78.3096 525.744 78.9362 525.337 79.6523C525.011 80.1406 524.629 80.5068 524.189 80.751C523.75 80.9788 523.229 81.0928 522.627 81.0928ZM521.772 65.1016C521.642 65.1016 521.52 65.0934 521.406 65.0771H521.333V65.1016H521.772ZM534.102 82.0693C532.799 82.0693 531.587 81.6624 530.464 80.8486C529.618 80.1976 528.958 79.3675 528.486 78.3584C527.477 76.4541 526.973 74.3626 526.973 72.084C526.973 70.7493 527.16 69.4229 527.534 68.1045C527.567 68.0394 527.591 67.9661 527.607 67.8848C527.738 67.4128 527.9 66.9489 528.096 66.4932C529.382 64.0518 531.156 62.8311 533.418 62.8311C534.346 62.8311 535.257 63.0508 536.152 63.4902C537.048 63.9297 537.829 64.5726 538.496 65.4189C539.701 66.9489 540.465 68.7148 540.791 70.7168C540.872 71.2376 540.913 71.8398 540.913 72.5234C540.913 72.9141 540.889 73.3128 540.84 73.7197C540.742 74.7777 540.539 75.7461 540.229 76.625C539.823 77.6504 539.416 78.4805 539.009 79.1152C538.504 79.8965 537.878 80.5638 537.129 81.1172C536.152 81.752 535.143 82.0693 534.102 82.0693ZM534.004 77.9922C534.085 77.9922 534.264 77.9352 534.541 77.8213C534.818 77.7074 535.208 77.1947 535.713 76.2832C535.876 76.0228 536.014 75.7461 536.128 75.4531V75.4043C536.421 74.6393 536.608 73.9639 536.689 73.3779L536.714 73.3047C536.763 73.028 536.787 72.7594 536.787 72.499C536.787 71.9945 536.755 71.555 536.689 71.1807C536.592 70.5133 536.372 69.846 536.03 69.1787C535.705 68.4951 535.363 67.9661 535.005 67.5918C534.289 66.9733 533.727 66.6641 533.32 66.6641C532.881 66.6641 532.482 67.0628 532.124 67.8604C531.782 68.6579 531.546 69.5124 531.416 70.4238C531.318 70.9935 531.27 71.5713 531.27 72.1572C531.27 73.7523 531.668 75.2822 532.466 76.7471C533.068 77.5771 533.581 77.9922 534.004 77.9922ZM543.77 83.0703C543.363 83.0703 542.915 82.9238 542.427 82.6309C541.955 82.3216 541.678 81.7438 541.597 80.8975C541.483 79.8232 541.426 78.2282 541.426 76.1123L541.45 75.5752C541.466 74.3382 541.515 73.0605 541.597 71.7422C541.597 71.4492 541.613 71.1481 541.646 70.8389C541.694 69.5205 541.865 68.1696 542.158 66.7861L542.451 65.6875C542.663 64.9388 542.964 64.2959 543.354 63.7588C543.957 62.8636 544.779 62.416 545.82 62.416C546.113 62.416 546.414 62.4567 546.724 62.5381C547.342 62.766 547.928 63.1729 548.481 63.7588C548.823 64.1331 549.206 64.654 549.629 65.3213C550.117 66.0537 550.573 66.8594 550.996 67.7383L551.289 68.3486C551.419 68.609 551.541 68.8776 551.655 69.1543C551.997 69.9193 552.209 70.432 552.29 70.6924C552.616 71.4248 552.835 71.9619 552.949 72.3037L554.121 75.1357L554.219 73.7197C554.268 72.9385 554.292 72.2467 554.292 71.6445L554.316 70.7656L554.292 70.3018C554.292 69.667 554.284 69.2438 554.268 69.0322C554.268 68.1045 554.292 67.3232 554.341 66.6885V65.6387L554.316 65.2969C554.316 65.069 554.341 64.8411 554.39 64.6133C554.683 63.7018 555.163 63.2461 555.83 63.2461C556.367 63.2461 556.815 63.6367 557.173 64.418C557.287 64.7272 557.368 65.069 557.417 65.4434C557.466 65.8177 557.555 66.3141 557.686 66.9326C557.913 68.0068 558.06 69.0729 558.125 70.1309L558.271 71.498C558.434 72.6536 558.524 73.7767 558.54 74.8672C558.54 75.1927 558.499 75.8356 558.418 76.7959L558.394 76.8691C558.28 78.3014 557.913 79.4489 557.295 80.3115C556.644 81.1579 555.806 81.5811 554.78 81.5811C553.771 81.5811 552.892 81.166 552.144 80.3359C551.639 79.8639 551.126 79.1234 550.605 78.1143C550.036 76.9749 549.393 75.4775 548.677 73.6221C548.644 73.5081 548.595 73.3861 548.53 73.2559C548.481 73.1094 548.132 72.1898 547.48 70.4971C547.48 70.4645 547.472 70.4401 547.456 70.4238C547.179 69.61 546.854 68.8451 546.479 68.1289L546.406 67.9824L546.016 71.1074C546.016 71.2051 546.007 71.2946 545.991 71.376C545.926 72.2061 545.877 73.0117 545.845 73.793C545.845 74.0208 545.812 74.8184 545.747 76.1855C545.698 77.8294 545.658 78.9362 545.625 79.5059L545.527 81.0195C545.511 81.2637 545.487 81.4997 545.454 81.7275C545.243 82.6227 544.681 83.0703 543.77 83.0703ZM573.945 82.875C573.652 82.875 573.376 82.8506 573.115 82.8018C572.513 82.6878 571.935 82.1507 571.382 81.1904C571.073 80.6208 570.869 80.1732 570.771 79.8477C570.495 79.2129 570.251 78.5456 570.039 77.8457L569.893 77.4551C569.86 77.2435 569.624 76.4622 569.185 75.1113C568.485 72.6374 568.029 70.7575 567.817 69.4717C567.541 67.9743 567.386 66.4769 567.354 64.9795L567.378 64.0029C567.573 61.8057 568.11 60.707 568.989 60.707C569.657 60.707 570.332 61.4557 571.016 62.9531L571.064 63.6611C571.064 63.9867 571.121 64.5482 571.235 65.3457L571.284 65.7119C571.659 68.1696 572.163 70.4727 572.798 72.6211C572.993 73.3372 573.197 74.0371 573.408 74.7207C573.555 75.1113 573.636 75.3717 573.652 75.502L573.774 75.0869C574.035 73.9476 574.36 72.8245 574.751 71.7178C574.832 71.4085 575.076 70.7331 575.483 69.6914C576.151 68.0312 576.948 66.3874 577.876 64.7598L578.242 64.1006C578.714 63.2868 579.194 62.5055 579.683 61.7568L579.707 61.708C580.326 60.7477 580.928 60.0397 581.514 59.584C582.083 59.2585 582.612 59.0957 583.101 59.0957C583.898 59.0957 584.443 59.4456 584.736 60.1455C584.834 60.3571 584.883 60.585 584.883 60.8291C584.883 61.3337 584.679 61.8952 584.272 62.5137L582.783 64.8818C582.686 65.0609 582.58 65.2318 582.466 65.3945C581.587 66.8431 580.871 68.1615 580.317 69.3496C579.91 70.2122 579.447 71.3109 578.926 72.6455C578.779 73.085 578.494 74.0371 578.071 75.502C577.957 75.8438 577.778 76.5029 577.534 77.4795C577.127 79.1722 576.737 80.4173 576.362 81.2148C576.134 81.7031 575.817 82.1182 575.41 82.46L575.337 82.5088C575.028 82.7204 574.824 82.8343 574.727 82.8506C574.629 82.8669 574.368 82.875 573.945 82.875ZM586.763 59.6328C585.916 59.6328 585.225 59.3154 584.688 58.6807C584.541 58.5016 584.468 58.3145 584.468 58.1191C584.468 57.8262 584.704 57.4925 585.176 57.1182L585.249 57.0693C585.444 56.8903 585.778 56.6462 586.25 56.3369L587.422 55.5801C587.65 55.4173 587.845 55.3034 588.008 55.2383C588.089 55.1569 588.472 54.9128 589.155 54.5059C589.367 54.3919 589.562 54.278 589.741 54.1641C589.92 54.0501 590.107 53.9443 590.303 53.8467L591.353 53.2119C591.515 53.1631 591.686 53.1387 591.865 53.1387C592.549 53.2038 593.135 53.5049 593.623 54.042C593.867 54.3187 593.989 54.6117 593.989 54.9209C593.989 55.1976 593.883 55.4824 593.672 55.7754C593.525 55.873 593.354 55.9707 593.159 56.0684C593.062 56.1172 592.972 56.1742 592.891 56.2393C592.712 56.3369 592.541 56.4346 592.378 56.5322C592.215 56.6299 592.052 56.7194 591.89 56.8008L591.279 57.1914C590.938 57.3867 590.718 57.5169 590.62 57.582C590.539 57.6309 590.449 57.6797 590.352 57.7285C590.27 57.7773 590.181 57.8343 590.083 57.8994C590.002 57.9482 589.912 58.0052 589.814 58.0703C589.717 58.1354 589.619 58.1924 589.521 58.2412L588.643 58.8027L587.642 59.4131C587.381 59.5596 587.088 59.6328 586.763 59.6328ZM588.447 82.5088C587.438 82.5088 586.494 82.3053 585.615 81.8984C583.613 81.0684 582.311 79.3187 581.709 76.6494C581.514 75.7705 581.416 74.8753 581.416 73.9639C581.416 72.3851 581.595 70.8796 581.953 69.4473C582.311 68.1289 582.767 66.9896 583.32 66.0293L583.345 66.0049C583.931 65.012 584.631 64.1087 585.444 63.2949C586.274 62.4648 587.145 61.8138 588.057 61.3418C589.049 60.821 589.985 60.5199 590.864 60.4385C591.027 60.4385 591.182 60.4303 591.328 60.4141H592.231C592.671 60.4303 593.11 60.5117 593.55 60.6582C594.429 60.9512 595.186 61.4476 595.82 62.1475C596.781 63.3356 597.261 64.6784 597.261 66.1758C597.261 67.2988 597.008 68.3812 596.504 69.4229C595.951 70.7249 595.072 71.9212 593.867 73.0117C593.07 73.7604 592.24 74.387 591.377 74.8916C589.489 76.0472 587.764 76.6576 586.201 76.7227C586.201 76.7552 586.209 76.7959 586.226 76.8447C586.258 76.8773 586.283 76.9261 586.299 76.9912C586.429 77.2679 586.592 77.5283 586.787 77.7725C587.357 78.391 587.983 78.7002 588.667 78.7002C589.562 78.7002 590.734 78.1549 592.183 77.0645L592.256 77.0156C592.891 76.4948 593.395 76.1367 593.77 75.9414L593.94 75.8438C594.201 75.7949 594.453 75.7705 594.697 75.7705C595.039 75.7705 595.405 75.8438 595.796 75.9902C596.203 76.1204 596.447 76.5599 596.528 77.3086C596.284 78.3014 595.479 79.3024 594.111 80.3115C593.314 80.9137 592.443 81.4183 591.499 81.8252C590.457 82.2809 589.44 82.5088 588.447 82.5088ZM585.688 73.8662L585.884 73.8418C586.942 73.5651 587.951 73.0768 588.911 72.377C590.506 71.2051 591.637 70.082 592.305 69.0078C592.826 68.0638 593.094 67.1849 593.11 66.3711C593.11 66.1921 593.045 65.834 592.915 65.2969L592.671 64.833C592.524 64.6051 592.354 64.4668 592.158 64.418H591.792H592.134C591.987 64.3691 591.865 64.3447 591.768 64.3447C591.572 64.3447 591.393 64.361 591.23 64.3936L591.108 64.418H591.792C591.206 64.418 590.514 64.6702 589.717 65.1748C588.317 66.0863 587.267 67.3721 586.567 69.0322C585.981 70.4157 585.688 72.027 585.688 73.8662ZM601.143 83.1191H600.557C600.199 83.1191 599.808 82.5007 599.385 81.2637C599.255 80.6452 599.132 80.0186 599.019 79.3838C598.905 78.749 598.791 78.1061 598.677 77.4551C598.563 76.804 598.465 76.1449 598.384 75.4775C598.14 73.3454 597.993 71.8968 597.944 71.1318C597.798 69.1787 597.725 67.2581 597.725 65.3701C597.725 64.361 597.741 63.5065 597.773 62.8066V62.0986C597.822 60.8779 597.871 59.6572 597.92 58.4365L598.018 56.9961C598.018 56.6706 598.05 56.2799 598.115 55.8242C598.197 55.3522 598.465 54.9697 598.921 54.6768C599.425 54.3675 599.995 54.2129 600.63 54.2129C601.118 54.2129 601.558 54.335 601.948 54.5791C602.339 54.807 602.534 55.2139 602.534 55.7998C602.599 56.5648 602.632 56.9717 602.632 57.0205C602.648 57.0531 602.681 57.5332 602.729 58.4609L602.754 60.707V61.2197V62.8555V67.6162C602.754 68.5439 602.77 69.4635 602.803 70.375L602.827 71.8154L602.876 73.1094C602.876 73.6628 602.892 74.2161 602.925 74.7695L603.022 77.1133C603.022 77.6341 603.088 78.7409 603.218 80.4336L603.242 81.1904C603.242 81.7275 603.226 82.0612 603.193 82.1914C602.526 82.8099 601.842 83.1191 601.143 83.1191ZM611.641 82.0693C610.339 82.0693 609.126 81.6624 608.003 80.8486C607.157 80.1976 606.497 79.3675 606.025 78.3584C605.016 76.4541 604.512 74.3626 604.512 72.084C604.512 70.7493 604.699 69.4229 605.073 68.1045C605.106 68.0394 605.13 67.9661 605.146 67.8848C605.277 67.4128 605.439 66.9489 605.635 66.4932C606.921 64.0518 608.695 62.8311 610.957 62.8311C611.885 62.8311 612.796 63.0508 613.691 63.4902C614.587 63.9297 615.368 64.5726 616.035 65.4189C617.24 66.9489 618.005 68.7148 618.33 70.7168C618.411 71.2376 618.452 71.8398 618.452 72.5234C618.452 72.9141 618.428 73.3128 618.379 73.7197C618.281 74.7777 618.078 75.7461 617.769 76.625C617.362 77.6504 616.955 78.4805 616.548 79.1152C616.043 79.8965 615.417 80.5638 614.668 81.1172C613.691 81.752 612.682 82.0693 611.641 82.0693ZM611.543 77.9922C611.624 77.9922 611.803 77.9352 612.08 77.8213C612.357 77.7074 612.747 77.1947 613.252 76.2832C613.415 76.0228 613.553 75.7461 613.667 75.4531V75.4043C613.96 74.6393 614.147 73.9639 614.229 73.3779L614.253 73.3047C614.302 73.028 614.326 72.7594 614.326 72.499C614.326 71.9945 614.294 71.555 614.229 71.1807C614.131 70.5133 613.911 69.846 613.569 69.1787C613.244 68.4951 612.902 67.9661 612.544 67.5918C611.828 66.9733 611.266 66.6641 610.859 66.6641C610.42 66.6641 610.021 67.0628 609.663 67.8604C609.321 68.6579 609.085 69.5124 608.955 70.4238C608.857 70.9935 608.809 71.5713 608.809 72.1572C608.809 73.7523 609.207 75.2822 610.005 76.7471C610.607 77.5771 611.12 77.9922 611.543 77.9922ZM641.499 86.6348C641.369 86.6348 641.247 86.6266 641.133 86.6104C641.019 86.5941 640.84 86.4639 640.596 86.2197L640.352 85.8535C640.042 85.4303 639.741 84.7467 639.448 83.8027C639.432 83.7051 639.408 83.6156 639.375 83.5342C639.049 82.2972 638.797 80.93 638.618 79.4326C638.586 79.1559 638.569 78.8874 638.569 78.627L638.496 78.7246C637.552 80.0755 636.519 81.0684 635.396 81.7031H635.371C634.525 82.1914 633.63 82.4355 632.686 82.4355C631.253 82.4355 630.049 81.8984 629.072 80.8242C627.868 79.5547 627.266 77.6585 627.266 75.1357C627.396 72.6292 628.12 70.3262 629.438 68.2266C630.122 67.1198 630.854 66.2327 631.636 65.5654C631.636 65.484 632.043 65.1748 632.856 64.6377C633.996 63.9541 635.29 63.6042 636.738 63.5879C637.78 63.5879 638.667 63.832 639.399 64.3203C639.562 64.4017 639.766 64.5645 640.01 64.8086C640.01 64.8249 640.018 64.833 640.034 64.833C640.425 65.2562 640.62 65.6794 640.62 66.1025C640.62 66.3141 640.604 66.4525 640.571 66.5176C640.539 66.5827 640.49 66.6559 640.425 66.7373C640.132 67.0791 639.342 67.25 638.057 67.25H637.739C636.909 67.25 636.152 67.3639 635.469 67.5918C634.574 68.0964 633.768 68.8939 633.052 69.9844C632.026 71.6934 631.481 73.4512 631.416 75.2578C631.416 76.0065 631.53 76.6901 631.758 77.3086C632.002 78.0085 632.376 78.3584 632.881 78.3584C633.337 78.3584 634.02 77.9434 634.932 77.1133C634.932 77.097 634.94 77.0889 634.956 77.0889C635.363 76.7145 635.965 76.0309 636.763 75.0381L637.3 74.3789C637.446 74.151 637.601 73.9395 637.764 73.7441C637.926 73.5488 638.073 73.3454 638.203 73.1338L638.521 72.6455C638.521 72.3851 638.553 72.0921 638.618 71.7666C638.683 71.2946 638.773 70.8551 638.887 70.4482L639.106 70.0332C639.269 69.724 639.644 69.5693 640.229 69.5693C640.392 69.5693 640.604 69.5856 640.864 69.6182C641.45 69.7158 641.743 69.9193 641.743 70.2285L641.719 70.375C641.719 70.3913 641.727 70.4076 641.743 70.4238C641.776 70.4401 641.825 70.4808 641.89 70.5459C641.955 70.6598 641.987 70.847 641.987 71.1074L641.963 71.791L641.938 74.2568C641.938 75.4775 641.971 76.446 642.036 77.1621C642.036 77.4551 642.085 78.1061 642.183 79.1152C642.313 80.0918 642.41 80.7021 642.476 80.9463C642.655 82.0531 642.874 83.0459 643.135 83.9248L643.208 84.1689C643.322 84.4456 643.387 84.7223 643.403 84.999C643.403 85.6175 643.159 86.0651 642.671 86.3418C642.313 86.5371 641.922 86.6348 641.499 86.6348ZM637.812 70.1309C637.796 70.1146 637.772 70.1064 637.739 70.1064C637.723 70.1064 637.707 70.1064 637.69 70.1064C637.674 70.1064 637.666 70.0983 637.666 70.082L637.739 70.0088C637.756 70.0088 637.764 70.0169 637.764 70.0332C637.78 70.0332 637.788 70.0495 637.788 70.082C637.804 70.0983 637.812 70.1146 637.812 70.1309ZM650.508 82.875C650.215 82.875 649.938 82.8506 649.678 82.8018C649.076 82.6878 648.498 82.1507 647.944 81.1904C647.635 80.6208 647.432 80.1732 647.334 79.8477C647.057 79.2129 646.813 78.5456 646.602 77.8457L646.455 77.4551C646.423 77.2435 646.187 76.4622 645.747 75.1113C645.047 72.6374 644.591 70.7575 644.38 69.4717C644.103 67.9743 643.949 66.4769 643.916 64.9795L643.94 64.0029C644.136 61.8057 644.673 60.707 645.552 60.707C646.219 60.707 646.895 61.4557 647.578 62.9531L647.627 63.6611C647.627 63.9867 647.684 64.5482 647.798 65.3457L647.847 65.7119C648.221 68.1696 648.726 70.4727 649.36 72.6211C649.556 73.3372 649.759 74.0371 649.971 74.7207C650.117 75.1113 650.199 75.3717 650.215 75.502L650.337 75.0869C650.597 73.9476 650.923 72.8245 651.313 71.7178C651.395 71.4085 651.639 70.7331 652.046 69.6914C652.713 68.0312 653.511 66.3874 654.438 64.7598L654.805 64.1006C655.277 63.2868 655.757 62.5055 656.245 61.7568L656.27 61.708C656.888 60.7477 657.49 60.0397 658.076 59.584C658.646 59.2585 659.175 59.0957 659.663 59.0957C660.461 59.0957 661.006 59.4456 661.299 60.1455C661.396 60.3571 661.445 60.585 661.445 60.8291C661.445 61.3337 661.242 61.8952 660.835 62.5137L659.346 64.8818C659.248 65.0609 659.142 65.2318 659.028 65.3945C658.149 66.8431 657.433 68.1615 656.88 69.3496C656.473 70.2122 656.009 71.3109 655.488 72.6455C655.342 73.085 655.057 74.0371 654.634 75.502C654.52 75.8438 654.341 76.5029 654.097 77.4795C653.69 79.1722 653.299 80.4173 652.925 81.2148C652.697 81.7031 652.38 82.1182 651.973 82.46L651.899 82.5088C651.59 82.7204 651.387 82.8343 651.289 82.8506C651.191 82.8669 650.931 82.875 650.508 82.875ZM665.01 81.9717C664.066 81.9717 663.122 81.7682 662.178 81.3613C661.152 80.9056 660.298 80.2139 659.614 79.2861C658.524 77.7074 657.979 75.6891 657.979 73.2314C657.979 71.7503 658.158 70.3018 658.516 68.8857C658.874 67.5674 659.329 66.4199 659.883 65.4434C660.452 64.4668 661.152 63.5716 661.982 62.7578C662.829 61.9277 663.716 61.2686 664.644 60.7803C665.588 60.292 666.515 59.9909 667.427 59.877H668.794C669.233 59.8932 669.673 59.9665 670.112 60.0967C671.903 60.764 673.05 62.001 673.555 63.8076C673.717 64.361 673.799 64.9714 673.799 65.6387C673.799 66.7617 673.555 67.8441 673.066 68.8857C672.725 69.6833 672.196 70.5133 671.479 71.376C671.333 71.6038 670.991 71.9701 670.454 72.4746C668.68 74.0208 666.922 75.0951 665.181 75.6973C664.302 75.9902 663.496 76.153 662.764 76.1855C662.78 76.2018 662.796 76.2344 662.812 76.2832C662.829 76.332 662.845 76.389 662.861 76.4541C662.992 76.7308 663.162 76.9912 663.374 77.2354C663.927 77.8538 664.521 78.1631 665.156 78.1631C665.775 78.1631 666.377 77.9922 666.963 77.6504C667.305 77.4714 667.63 77.2842 667.939 77.0889C668.444 76.7633 668.737 76.5599 668.818 76.4785C669.307 76.0391 669.811 75.681 670.332 75.4043L670.503 75.3066C670.763 75.2578 671.016 75.2334 671.26 75.2334C671.602 75.2334 671.968 75.3066 672.358 75.4531C672.765 75.5833 673.009 76.0228 673.091 76.7715C672.993 77.1784 672.822 77.5609 672.578 77.9189C672.35 78.277 672.074 78.6025 671.748 78.8955C670.234 80.2627 668.509 81.2311 666.572 81.8008C666.051 81.9147 665.531 81.9717 665.01 81.9717ZM662.251 73.3291C662.284 73.3291 662.308 73.321 662.324 73.3047C662.487 73.3047 662.837 73.207 663.374 73.0117C664.692 72.4583 666.06 71.5143 667.476 70.1797C668.062 69.5775 668.525 69.0078 668.867 68.4707C669.388 67.5267 669.657 66.6478 669.673 65.834C669.673 65.3457 669.526 64.833 669.233 64.2959C669.087 64.068 668.916 63.9297 668.721 63.8809H668.818H668.354H668.696C668.55 63.832 668.346 63.8076 668.086 63.8076C667.809 63.8402 667.671 63.8646 667.671 63.8809H668.354C667.769 63.8809 667.077 64.1331 666.279 64.6377C664.847 65.6143 663.797 66.9001 663.13 68.4951C662.544 69.8786 662.251 71.4899 662.251 73.3291ZM682.905 82.7285C681.017 82.7285 679.308 81.9635 677.778 80.4336C677.046 79.6686 676.419 78.7979 675.898 77.8213C674.824 75.917 674.287 73.793 674.287 71.4492V71.083C674.434 68.4788 675.133 66.3711 676.387 64.7598C676.989 63.9785 677.721 63.2868 678.584 62.6846C679.447 62.0824 680.301 61.6836 681.147 61.4883C681.619 61.3906 682.108 61.3418 682.612 61.3418C683.394 61.3418 684.11 61.5046 684.761 61.8301C685.493 62.1882 686.038 62.7171 686.396 63.417C686.706 63.9704 686.86 64.5807 686.86 65.248L686.787 66.1758C686.624 67.1035 686.112 67.9092 685.249 68.5928C685.054 68.7555 684.932 68.8695 684.883 68.9346C684.753 69.0648 684.598 69.1299 684.419 69.1299C684.207 69.1299 683.971 69.0811 683.711 68.9834C683.206 68.7718 682.954 68.4788 682.954 68.1045C682.954 67.9906 682.979 67.8685 683.027 67.7383C683.125 67.543 683.174 67.4046 683.174 67.3232C683.271 66.9977 683.328 66.7454 683.345 66.5664V66.2002C683.198 65.6468 682.873 65.3701 682.368 65.3701C681.619 65.3701 680.798 65.8828 679.902 66.9082C679.447 67.4616 679.105 68.0719 678.877 68.7393C678.877 68.7555 678.869 68.7637 678.853 68.7637C678.739 69.1543 678.641 69.5612 678.56 69.9844C678.494 70.3913 678.462 70.8877 678.462 71.4736C678.462 72.1735 678.576 72.9548 678.804 73.8174C679.015 74.5824 679.349 75.3555 679.805 76.1367C680.798 77.7643 681.839 78.5781 682.93 78.5781C683.906 78.5781 684.915 77.9352 685.957 76.6494C686.38 76.0146 686.665 75.5508 686.812 75.2578L687.08 74.7939C687.438 74.2243 687.886 73.9395 688.423 73.9395C688.911 73.9395 689.391 74.151 689.863 74.5742C689.896 74.6068 689.912 74.6637 689.912 74.7451C689.928 74.8265 689.937 74.916 689.937 75.0137C689.953 75.1113 689.969 75.1846 689.985 75.2334L690.01 75.7217C690.01 76.9749 689.562 78.2445 688.667 79.5303C688.016 80.4417 687.251 81.1579 686.372 81.6787C685.298 82.3786 684.142 82.7285 682.905 82.7285ZM705.537 81.0928C704.561 81.0928 703.69 80.8079 702.925 80.2383C701.981 79.5384 701.248 78.3584 700.728 76.6982C700.467 75.9658 700.272 75.1439 700.142 74.2324C700.125 74.0697 700.101 73.915 700.068 73.7686L699.946 72.8164C699.946 72.6211 699.93 72.4258 699.897 72.2305C699.816 71.5306 699.775 70.3994 699.775 68.8369L699.824 68.0068C699.84 67.4535 699.881 66.8919 699.946 66.3223C700.011 65.7526 700.06 65.4189 700.093 65.3213C699.865 65.3213 699.409 65.4271 698.726 65.6387L698.213 65.7607L697.896 65.7852C697.733 65.6875 697.554 65.598 697.358 65.5166C696.61 65.2562 696.235 64.9388 696.235 64.5645C696.235 64.3203 696.512 64.0029 697.065 63.6123L697.114 63.5879C697.814 63.1647 698.685 62.8066 699.727 62.5137C700.247 62.3835 700.565 62.3184 700.679 62.3184L700.703 62.1719L700.85 61.6592C700.964 60.9919 701.151 60.3896 701.411 59.8525C701.851 58.9899 702.371 58.5586 702.974 58.5586C703.771 58.5749 704.471 59.1283 705.073 60.2188L704.951 60.8047L704.78 61.6104L704.707 61.9033C704.707 61.9359 704.699 61.9603 704.683 61.9766L704.927 62.001C705.448 62.001 705.879 62.0091 706.221 62.0254C706.562 62.0417 706.896 62.0742 707.222 62.123C707.905 62.1556 708.475 62.2451 708.931 62.3916C709.24 62.6195 709.395 62.9043 709.395 63.2461C709.395 63.3112 709.37 63.4821 709.321 63.7588C709.272 64.0192 709.069 64.3366 708.711 64.7109C708.353 65.0853 707.946 65.305 707.49 65.3701L706.758 65.2969C705.96 65.1992 705.382 65.1423 705.024 65.126L704.243 65.1016L704.219 65.2236C704.186 65.6143 704.146 65.9967 704.097 66.3711C704.097 66.599 704.08 66.7943 704.048 66.957C703.966 68.015 703.926 68.7311 703.926 69.1055L703.877 69.6914C703.877 71.1237 703.901 72.0758 703.95 72.5479C703.95 72.7432 703.983 73.1663 704.048 73.8174C704.113 74.1755 704.17 74.5254 704.219 74.8672C704.284 75.209 704.357 75.5345 704.438 75.8438C704.552 76.3483 704.731 76.8285 704.976 77.2842C705.22 77.7236 705.513 77.9434 705.854 77.9434C706.147 77.9434 706.465 77.6504 706.807 77.0645C706.969 76.804 707.067 76.625 707.1 76.5273C707.425 75.7135 707.767 75.3066 708.125 75.3066C708.532 75.3066 708.784 76.0391 708.882 77.5039C708.866 77.5365 708.857 77.5771 708.857 77.626V77.7725C708.857 78.3096 708.654 78.9362 708.247 79.6523C707.922 80.1406 707.539 80.5068 707.1 80.751C706.66 80.9788 706.139 81.0928 705.537 81.0928ZM704.683 65.1016C704.552 65.1016 704.43 65.0934 704.316 65.0771H704.243V65.1016H704.683ZM717.012 82.0693C715.71 82.0693 714.497 81.6624 713.374 80.8486C712.528 80.1976 711.868 79.3675 711.396 78.3584C710.387 76.4541 709.883 74.3626 709.883 72.084C709.883 70.7493 710.07 69.4229 710.444 68.1045C710.477 68.0394 710.501 67.9661 710.518 67.8848C710.648 67.4128 710.811 66.9489 711.006 66.4932C712.292 64.0518 714.066 62.8311 716.328 62.8311C717.256 62.8311 718.167 63.0508 719.062 63.4902C719.958 63.9297 720.739 64.5726 721.406 65.4189C722.611 66.9489 723.376 68.7148 723.701 70.7168C723.783 71.2376 723.823 71.8398 723.823 72.5234C723.823 72.9141 723.799 73.3128 723.75 73.7197C723.652 74.7777 723.449 75.7461 723.14 76.625C722.733 77.6504 722.326 78.4805 721.919 79.1152C721.414 79.8965 720.788 80.5638 720.039 81.1172C719.062 81.752 718.053 82.0693 717.012 82.0693ZM716.914 77.9922C716.995 77.9922 717.174 77.9352 717.451 77.8213C717.728 77.7074 718.118 77.1947 718.623 76.2832C718.786 76.0228 718.924 75.7461 719.038 75.4531V75.4043C719.331 74.6393 719.518 73.9639 719.6 73.3779L719.624 73.3047C719.673 73.028 719.697 72.7594 719.697 72.499C719.697 71.9945 719.665 71.555 719.6 71.1807C719.502 70.5133 719.282 69.846 718.94 69.1787C718.615 68.4951 718.273 67.9661 717.915 67.5918C717.199 66.9733 716.637 66.6641 716.23 66.6641C715.791 66.6641 715.392 67.0628 715.034 67.8604C714.692 68.6579 714.456 69.5124 714.326 70.4238C714.229 70.9935 714.18 71.5713 714.18 72.1572C714.18 73.7523 714.578 75.2822 715.376 76.7471C715.978 77.5771 716.491 77.9922 716.914 77.9922ZM726.069 61.5371C726.037 61.5371 725.793 61.529 725.337 61.5127C724.881 61.4964 724.548 61.0244 724.336 60.0967V58.6562C724.336 58.3633 724.344 58.1517 724.36 58.0215V57.8506C724.523 56.4508 725.15 55.751 726.24 55.751C726.663 55.751 727.038 55.8812 727.363 56.1416C727.803 56.516 728.022 57.1263 728.022 57.9727C728.071 58.3145 728.096 58.6318 728.096 58.9248C728.145 59.2829 728.169 59.6735 728.169 60.0967C728.169 60.2757 728.145 60.4548 728.096 60.6338C727.559 61.236 726.883 61.5371 726.069 61.5371ZM727.754 83.5586C726.973 83.5586 726.33 83.0378 725.825 81.9961C725.418 80.6452 725.117 78.5049 724.922 75.5752L724.849 74.7939C724.784 73.7197 724.743 73.1663 724.727 73.1338C724.613 71.2132 724.564 69.846 724.58 69.0322C724.58 67.9906 724.596 67.1849 724.629 66.6152C724.727 65.7038 724.995 65.0446 725.435 64.6377C725.825 64.2959 726.257 64.125 726.729 64.125C727.331 64.125 727.827 64.3691 728.218 64.8574C728.527 65.2318 728.682 65.7201 728.682 66.3223L728.657 66.6641L728.682 67.958L728.755 69.4717C728.771 69.8135 728.796 70.1471 728.828 70.4727L728.926 72.084C728.991 72.7025 729.04 73.321 729.072 73.9395L729.512 78.4561C729.674 79.7907 729.756 80.8161 729.756 81.5322C729.495 82.8831 728.828 83.5586 727.754 83.5586ZM744.404 78.0166H744.307C743.379 78.0166 742.695 77.5771 742.256 76.6982C742.191 76.4215 742.158 76.1367 742.158 75.8438C742.158 75.502 742.207 75.0137 742.305 74.3789C742.305 74.2975 742.37 73.8337 742.5 72.9873C742.842 71.2946 743.436 69.8786 744.282 68.7393L744.38 68.6172C744.673 68.194 745.007 67.7708 745.381 67.3477L746.724 65.834C746.838 65.7201 746.943 65.598 747.041 65.4678L747.554 64.9062C747.684 64.7272 747.83 64.54 747.993 64.3447C748.123 64.2145 748.245 64.0599 748.359 63.8809C748.604 63.4902 748.791 63.1566 748.921 62.8799V62.8555C749.051 62.5951 749.116 62.4323 749.116 62.3672C749.165 62.2533 749.189 62.1475 749.189 62.0498V61.6348C749.157 61.1465 749.01 60.7152 748.75 60.3408C748.506 59.9502 748.245 59.6491 747.969 59.4375C747.188 58.7376 746.528 58.3877 745.991 58.3877C745.91 58.3877 745.706 58.4284 745.381 58.5098C745.072 58.5911 744.681 58.9492 744.209 59.584C743.883 59.8932 743.631 60.2676 743.452 60.707L743.428 60.7559C743.216 61.2604 743.11 61.7812 743.11 62.3184V62.6357C743.11 63.0915 743.224 63.5391 743.452 63.9785C743.517 64.125 743.615 64.2959 743.745 64.4912C743.826 64.7191 743.867 64.9551 743.867 65.1992C743.867 65.5898 743.721 66.0781 743.428 66.6641C743.135 67.2337 742.712 67.6081 742.158 67.7871C741.93 67.7871 741.719 67.7464 741.523 67.665C741.035 67.4535 740.604 67.1686 740.229 66.8105C739.513 66.0293 739.033 65.1423 738.789 64.1494C738.626 63.4984 738.545 62.9043 738.545 62.3672C738.561 61.3255 738.732 60.3408 739.058 59.4131C739.237 58.9411 739.416 58.5667 739.595 58.29C739.595 58.2738 739.603 58.2656 739.619 58.2656C739.993 57.582 740.449 56.9554 740.986 56.3857V56.3613C741.523 55.7428 742.158 55.222 742.891 54.7988C743.704 54.3431 744.535 54.1152 745.381 54.1152L746.26 54.1396C746.829 54.1396 747.391 54.2699 747.944 54.5303C749.035 55.0186 750.125 55.9219 751.216 57.2402C751.606 57.7122 751.956 58.2168 752.266 58.7539C752.575 59.3561 752.786 59.9339 752.9 60.4873C752.998 60.9756 753.047 61.415 753.047 61.8057L753.022 62.2695C752.892 63.3275 752.493 64.4261 751.826 65.5654C751.468 66.1351 751.183 66.5257 750.972 66.7373L750.825 66.9082C750.646 67.1361 750.467 67.3558 750.288 67.5674C750.174 67.6813 750.068 67.7952 749.971 67.9092C749.889 68.0068 749.8 68.1045 749.702 68.2021C749.393 68.5114 749.084 68.8369 748.774 69.1787C748.709 69.2601 748.644 69.3415 748.579 69.4229C748.514 69.5042 748.441 69.5938 748.359 69.6914C748.278 69.7891 748.188 69.8867 748.091 69.9844C747.489 70.668 747.131 71.5306 747.017 72.5723C746.903 73.1257 746.829 73.7441 746.797 74.4277C746.781 75.4857 746.699 76.2751 746.553 76.7959C746.097 77.5934 745.381 78.0003 744.404 78.0166ZM744.917 84.1445C744.152 84.1445 743.542 83.8271 743.086 83.1924C742.972 82.8831 742.915 82.403 742.915 81.752C742.948 81.1172 743.224 80.637 743.745 80.3115C744.282 79.986 744.836 79.8232 745.405 79.8232H745.552C746.642 79.8883 747.188 80.3929 747.188 81.3369L747.163 81.5322L747.212 82.0693C747.228 82.1344 747.236 82.2484 747.236 82.4111C747.236 82.5902 747.22 82.7692 747.188 82.9482C746.715 83.7458 745.959 84.1445 744.917 84.1445Z" fill="#FFF2EA"/>
    <defs>
        <clipPath id="clip0">
            <rect width="918" height="432.887" fill="white" transform="translate(0 0.138428)"/>
        </clipPath>
    </defs>
</svg>
