<svg width="211" height="209" viewBox="0 0 211 209" fill="none" xmlns="http://www.w3.org/2000/svg">
    <g clip-path="url(#clip0)">
        <path d="M93.1707 191.529C81.8151 191.529 71.1294 189.883 61.4822 186.65C59.4723 185.969 57.496 185.345 55.5531 184.721C37.7325 178.991 22.3572 173.998 10.4321 151.929C8.69028 148.696 4.70409 136.725 4.06764 132.811C3.39769 128.783 3.12971 118.287 3.56518 113.522C6.37896 82.0351 10.7671 57.47 23.1276 39.656C29.1572 30.9192 36.9621 25.8701 43.7955 22.0123C62.889 11.3466 83.2889 5.67334 102.717 5.67334C105.9 5.67334 109.082 5.84354 112.197 6.1272C118.729 6.75125 125.161 6.75125 131.358 6.75125C146.833 6.75125 161.472 6.75125 176.747 15.9419C184.016 20.3103 189.241 25.0758 193.227 30.8625C204.516 47.4283 210.211 80.1062 206.727 108.643C204.851 124.074 201.099 137.803 195.874 148.298C190.816 158.454 184.384 165.602 177.283 169.006C146.13 183.926 117.858 191.529 93.1707 191.529Z" fill="#22C79E"/>
        <path d="M102.716 11.3465C105.831 11.3465 108.947 11.5167 111.995 11.8003C118.627 12.4244 125.092 12.4244 131.323 12.4244C146.497 12.4244 160.868 12.4244 175.573 21.2746C182.44 25.4161 187.331 29.7845 190.982 35.174C196.107 42.6627 200.127 54.2361 202.371 67.7384C204.548 80.9003 204.917 95.0267 203.376 107.508C201.6 122.031 198.083 134.853 193.226 144.667C188.603 153.915 182.741 160.496 176.276 163.616C145.492 178.423 117.522 185.912 93.1694 185.912C82.0148 185.912 71.5636 184.323 62.1173 181.146C60.1075 180.466 58.0976 179.842 56.1548 179.217C47.3785 176.381 39.1046 173.714 31.7352 169.062C23.9303 164.127 17.9343 157.489 12.8762 148.185C11.5028 145.632 7.78457 134.512 7.28211 131.392C6.74615 128.102 6.51167 118.457 6.88014 114.429C7.98556 102.005 9.52644 87.538 12.6752 74.4328C15.6565 61.9517 19.7766 52.0236 25.3037 44.081C30.8978 35.9683 38.3342 31.2028 44.8327 27.5152C63.6247 16.9062 83.6226 11.3465 102.716 11.3465ZM102.716 0C82.4167 0 61.9498 5.90016 42.7223 16.6226C34.9509 20.991 27.1796 26.3238 20.949 35.2875C7.18162 55.1438 2.96095 82.3186 0.247661 112.614C-0.221302 117.89 -0.0203179 129.123 0.817117 134.285C1.62105 139.221 5.90872 151.986 7.95206 155.73C21.9875 181.714 40.411 185.345 60.8109 192.209C71.1951 195.67 82.0818 197.202 93.1694 197.202C121.81 197.202 151.857 187.103 178.119 174.452C193.796 166.907 205.821 143.476 209.941 109.777C213.425 81.2974 208.333 45.5561 195.37 26.5507C190.312 19.1755 184.115 14.3533 177.817 10.5522C155.709 -2.72315 134.974 2.55296 112.363 0.453859C109.148 0.170197 105.932 0 102.716 0Z" fill="#FFF2EA"/>
        <path d="M90.0189 88.7075H89.3597C88.1878 88.4146 87.077 87.7432 86.0272 86.6934C85.1238 85.7168 84.3182 84.6914 83.6102 83.6172C82.7068 82.1768 81.9012 80.7729 81.1932 79.4058L81.0467 79.1494C80.4363 77.9531 79.6673 76.2319 78.7396 73.9858C77.9827 72.1792 77.2381 70.1406 76.5057 67.8701L75.4437 64.8306L72.0379 54.9429C72.0135 54.9185 72.0013 54.8818 72.0013 54.833C71.9769 55.0039 71.9525 55.1748 71.928 55.3457C71.9036 55.4922 71.8914 55.6387 71.8914 55.7852L71.8182 56.5542C71.5252 58.8003 71.3787 60.5581 71.3787 61.8276C71.3055 62.5356 71.2322 64.0981 71.159 66.5151C71.1346 66.8813 71.1224 67.4795 71.1224 68.3096L71.159 72.1548L71.2689 75.3774C71.3177 76.0122 71.3787 77.2329 71.452 79.0396L71.4153 80.6875C71.2933 81.9082 70.805 82.7993 69.9505 83.3608C69.389 83.7271 68.8275 83.9102 68.2659 83.9102C67.9485 83.9102 67.4847 83.8125 66.8743 83.6172C66.2884 83.3975 65.8978 82.604 65.7025 81.2368C65.0677 78.8931 64.6526 75.9512 64.4573 72.4111C64.3841 69.7744 64.3475 67.7847 64.3475 66.4419C64.3475 65.4409 64.3719 64.4399 64.4207 63.439L64.4573 62.0474C64.5062 60.8999 64.6038 59.4717 64.7503 57.7627C64.9212 55.6875 65.1776 53.6245 65.5193 51.5737L65.6292 50.8413L65.9588 49.0835L66.2884 47.582C66.2884 47.4111 66.386 46.9595 66.5814 46.2271C66.8987 44.9819 67.3992 44.0054 68.0828 43.2974C68.6443 42.7358 69.1448 42.394 69.5843 42.272C69.8773 42.1987 70.2191 42.1621 70.6097 42.1621L71.2689 42.1987H72.2576C72.9412 42.4185 73.5394 42.7603 74.0521 43.2241C74.7845 43.9077 75.4559 44.8354 76.0662 46.0073C76.5545 47.106 77.0184 48.2534 77.4578 49.4497L77.5677 49.6694C77.8607 50.5483 78.1292 51.293 78.3734 51.9033L79.2523 54.3569C79.8626 55.9194 80.5218 57.7871 81.2298 59.96C82.3773 63.2559 83.0853 65.2578 83.3538 65.9658C84.2083 68.3584 84.9285 70.3359 85.5145 71.8984L86.137 73.4365C86.4544 74.3154 86.9549 75.4995 87.6385 76.9888C88.2244 78.3315 88.7127 79.3081 89.1033 79.9185L88.9935 78.1606C88.9202 77.0132 88.7982 75.6704 88.6273 74.1323C88.5784 73.8882 88.5418 73.6318 88.5174 73.3633C88.493 73.0947 88.3587 72.0327 88.1146 70.1772C87.7728 67.3696 87.5775 65.6729 87.5286 65.0869L87.492 64.9404C87.199 61.5469 87.0526 58.6172 87.0526 56.1514C87.0526 55.6631 87.0648 55.187 87.0892 54.7231C87.0892 53.356 87.1624 52.1963 87.3089 51.2441L87.3821 50.3286C87.5286 49.2544 87.7239 48.168 87.9681 47.0693C88.2122 46.1172 88.5174 45.165 88.8836 44.2129C89.8113 42.2598 90.8001 40.8682 91.8499 40.0381C92.6312 39.3789 93.4734 38.9761 94.3768 38.8296L95.5486 38.793C96.7205 38.793 97.7947 39.2446 98.7713 40.1479C99.4061 40.8315 99.7234 41.5762 99.7234 42.3818C99.7234 43.1143 99.4793 43.7368 98.991 44.2495C98.5272 44.7622 98.0145 45.0186 97.4529 45.0186C97.1356 45.0186 96.806 44.9209 96.4642 44.7256C96.0003 44.5303 95.7073 44.4326 95.5853 44.4326C95.2923 44.4326 95.0115 44.7134 94.743 45.2749L94.7064 45.3115C94.389 45.8242 94.1204 46.3735 93.9007 46.9595C93.7054 47.5454 93.5223 48.3755 93.3514 49.4497C93.3026 49.5474 93.2293 50.0356 93.1317 50.9146C92.9119 52.5259 92.8021 54.2593 92.8021 56.1147L92.8387 58.019C92.9119 59.1177 92.9485 59.8013 92.9485 60.0698L93.3148 64.4644L93.4246 65.3066L93.5711 66.7349C93.6688 67.3696 93.7664 68.1143 93.8641 68.9688L93.9373 69.4448C94.0838 70.519 94.2425 71.5811 94.4134 72.6309C94.5843 73.6562 94.7308 74.6694 94.8528 75.6704C95.0726 77.1597 95.2313 78.478 95.3289 79.6255C95.3533 80.2114 95.3655 80.9438 95.3655 81.8228C95.3655 83.8003 95.0604 85.3018 94.45 86.3271C93.6443 87.6943 92.6922 88.4512 91.5936 88.5977C91.1541 88.6709 90.6292 88.7075 90.0189 88.7075ZM108.586 81.7129C106.633 81.7129 104.814 81.1025 103.129 79.8818C101.86 78.9053 100.871 77.6602 100.163 76.1465C98.6492 73.29 97.8924 70.1528 97.8924 66.7349C97.8924 64.7329 98.1732 62.7432 98.7347 60.7656C98.7835 60.668 98.8201 60.5581 98.8445 60.436C99.0399 59.728 99.284 59.0322 99.577 58.3486C101.506 54.6865 104.167 52.8555 107.56 52.8555C108.952 52.8555 110.319 53.1851 111.662 53.8442C113.005 54.5034 114.177 55.4678 115.178 56.7373C116.984 59.0322 118.132 61.6812 118.62 64.6841C118.742 65.4653 118.803 66.3687 118.803 67.394C118.803 67.98 118.766 68.5781 118.693 69.1885C118.547 70.7754 118.242 72.228 117.778 73.5464C117.167 75.0845 116.557 76.3296 115.947 77.2817C115.19 78.4536 114.25 79.4546 113.127 80.2847C111.662 81.2368 110.148 81.7129 108.586 81.7129ZM108.439 75.5972C108.561 75.5972 108.83 75.5117 109.245 75.3408C109.66 75.1699 110.246 74.4009 111.003 73.0337C111.247 72.6431 111.454 72.228 111.625 71.7886V71.7153C112.065 70.5679 112.346 69.5547 112.468 68.6758L112.504 68.5659C112.577 68.1509 112.614 67.748 112.614 67.3574C112.614 66.6006 112.565 65.9414 112.468 65.3799C112.321 64.3789 111.992 63.3779 111.479 62.377C110.991 61.3516 110.478 60.5581 109.941 59.9966C108.867 59.0688 108.024 58.605 107.414 58.605C106.755 58.605 106.157 59.2031 105.619 60.3994C105.107 61.5957 104.753 62.8774 104.557 64.2446C104.411 65.0991 104.338 65.9658 104.338 66.8447C104.338 69.2373 104.936 71.5322 106.132 73.7295C107.035 74.9746 107.805 75.5972 108.439 75.5972ZM123.088 83.2144C122.477 83.2144 121.806 82.9946 121.074 82.5552C120.366 82.0913 119.951 81.2246 119.828 79.9551C119.658 78.3438 119.572 75.9512 119.572 72.7773L119.609 71.9717C119.633 70.1162 119.706 68.1997 119.828 66.2222C119.828 65.7827 119.853 65.3311 119.902 64.8672C119.975 62.8896 120.231 60.8633 120.671 58.7881L121.11 57.1401C121.428 56.0171 121.879 55.0527 122.465 54.2471C123.368 52.9043 124.601 52.2329 126.164 52.2329C126.603 52.2329 127.055 52.2939 127.519 52.416C128.447 52.7578 129.326 53.3682 130.156 54.2471C130.668 54.8086 131.242 55.5898 131.877 56.5908C132.609 57.6895 133.293 58.8979 133.928 60.2163L134.367 61.1318C134.562 61.5225 134.745 61.9253 134.916 62.3403C135.429 63.4878 135.746 64.2568 135.868 64.6475C136.357 65.7461 136.686 66.5518 136.857 67.0645L138.615 71.3125L138.762 69.1885C138.835 68.0166 138.871 66.979 138.871 66.0757L138.908 64.7573L138.871 64.0615C138.871 63.1094 138.859 62.4746 138.835 62.1572C138.835 60.7656 138.871 59.5938 138.945 58.6416V57.0669L138.908 56.5542C138.908 56.2124 138.945 55.8706 139.018 55.5288C139.457 54.1616 140.178 53.478 141.179 53.478C141.984 53.478 142.656 54.064 143.193 55.2358C143.364 55.6997 143.486 56.2124 143.559 56.7739C143.632 57.3354 143.766 58.0801 143.962 59.0078C144.304 60.6191 144.523 62.2183 144.621 63.8052L144.841 65.856C145.085 67.5894 145.219 69.2739 145.243 70.9097C145.243 71.3979 145.182 72.3623 145.06 73.8027L145.024 73.9126C144.853 76.061 144.304 77.7822 143.376 79.0762C142.399 80.3457 141.142 80.9805 139.604 80.9805C138.09 80.9805 136.772 80.3579 135.649 79.1128C134.892 78.4048 134.123 77.2939 133.342 75.7803C132.487 74.0713 131.523 71.8252 130.449 69.042C130.4 68.8711 130.326 68.688 130.229 68.4927C130.156 68.2729 129.631 66.8936 128.654 64.3545C128.654 64.3057 128.642 64.269 128.617 64.2446C128.202 63.0239 127.714 61.8765 127.153 60.8022L127.043 60.5825L126.457 65.27C126.457 65.4165 126.445 65.5508 126.42 65.6729C126.323 66.918 126.249 68.1265 126.201 69.2983C126.201 69.6401 126.152 70.8364 126.054 72.8872C125.981 75.353 125.92 77.0132 125.871 77.8677L125.724 80.1382C125.7 80.5044 125.663 80.8584 125.615 81.2002C125.297 82.543 124.455 83.2144 123.088 83.2144Z" fill="#FFF2EA"/>
        <g clip-path="url(#clip1)">
            <path d="M110.079 108.645C112.078 108.645 114.102 109.051 116.251 109.862C121.822 111.966 127.119 118 128.593 123.881C129.867 128.951 129.367 134.757 127.044 142.692C125.545 147.813 121.647 152.553 117.125 154.809C115.526 155.595 113.377 156.026 110.904 156.026C106.956 156.026 102.284 154.962 98.4118 153.136C95.3887 151.742 94.1395 150.246 91.8409 147.534C91.1164 146.672 90.2919 145.683 89.3175 144.644C86.869 141.931 86.6941 137.013 86.7441 132.196C86.8191 125.783 89.2675 120.915 94.9889 115.87C100.585 110.927 105.382 108.645 110.079 108.645ZM110.079 102.814C103.034 102.814 96.9127 106.44 91.2663 111.434C84.7704 117.138 81.1227 123.476 81.0227 132.095C80.9727 137.774 81.1726 144.213 85.1201 148.548C89.0677 152.883 90.6666 155.9 96.0133 158.384C100.311 160.387 105.782 161.806 110.904 161.806C114.077 161.806 117.1 161.274 119.648 160.006C125.795 156.964 130.641 150.804 132.565 144.34C134.639 137.267 135.988 129.712 134.189 122.436C132.315 114.932 125.844 107.251 118.299 104.386C115.401 103.296 112.678 102.814 110.079 102.814Z" fill="#FFF2EA"/>
            <path d="M106.534 144.137C106.059 144.137 105.584 144.01 105.134 143.782C104.585 143.503 104.185 143.021 104.035 142.387C103.86 141.931 103.735 141.526 103.66 141.12C103.585 140.866 103.51 140.613 103.46 140.359C103.411 140.157 103.386 139.928 103.311 139.7L103.086 138.585C103.011 138.154 102.936 137.723 102.886 137.292C102.836 136.886 102.761 136.455 102.686 136.024V135.999L102.486 134.402C102.361 133.413 102.286 132.374 102.236 131.284L102.161 129.661V129.636C102.161 129.129 102.136 128.622 102.111 128.115V128.064C102.111 126.112 102.136 124.743 102.186 123.932L102.211 123.602C102.236 123.349 102.261 123.07 102.311 122.816C102.386 122.081 102.511 121.549 102.661 121.169V121.143V121.118C102.861 120.712 103.236 120.408 103.76 120.231C104.185 120.104 104.61 120.028 105.084 120.028C105.584 120.053 106.034 120.129 106.409 120.307C106.933 120.56 107.258 120.991 107.308 121.524C107.308 121.6 107.333 121.777 107.333 122.157C108.183 121.904 109.107 121.777 110.131 121.777C110.956 121.777 111.755 121.878 112.555 122.081C113.429 122.284 114.229 122.614 114.953 123.121C116.302 124.084 117.152 125.377 117.427 127.025C117.502 127.506 117.552 127.988 117.552 128.444C117.552 129.357 117.377 130.27 117.052 131.182V131.208C116.777 131.892 116.427 132.475 116.003 132.932C115.578 133.464 115.028 133.946 114.379 134.326C113.729 134.706 112.955 134.985 112.13 135.188H112.105C111.38 135.315 110.656 135.365 109.931 135.365C109.182 135.365 108.482 135.315 107.858 135.188C107.883 135.289 108.083 136.861 108.083 136.861L108.407 138.838L108.607 140.081L108.682 140.613C108.807 141.5 108.807 141.779 108.807 141.931C108.807 142.21 108.757 142.489 108.682 142.742L108.657 142.818L108.607 142.894C108.307 143.503 107.708 144.137 106.534 144.137ZM107.608 131.106C107.808 131.106 108.133 131.132 108.607 131.208H108.632C109.157 131.309 109.582 131.334 109.906 131.334C110.156 131.334 110.481 131.284 110.856 131.157C111.131 131.056 111.405 130.827 111.68 130.447C111.88 130.143 112.005 129.839 112.055 129.56V129.534V129.509C112.18 129.104 112.23 128.673 112.23 128.242C112.205 127.76 112.13 127.354 112.03 127.025C111.755 126.315 111.38 125.884 110.931 125.706L110.906 125.681C110.606 125.554 110.281 125.478 109.881 125.453H109.782H109.607V125.428C109.582 125.428 109.557 125.428 109.532 125.428C109.357 125.453 109.157 125.478 108.982 125.504H108.957H108.907C108.557 125.58 108.257 125.681 107.983 125.808C107.933 125.833 107.883 125.859 107.808 125.884C107.608 126.011 107.433 126.087 107.308 126.163C107.308 127.202 107.333 128.166 107.358 129.053L107.383 129.585C107.383 130.092 107.408 130.599 107.433 131.106C107.558 131.106 107.583 131.106 107.608 131.106Z" fill="#FFF2EA"/>
            <path d="M105.109 120.814C105.509 120.814 105.834 120.89 106.133 121.017C106.408 121.143 106.583 121.346 106.608 121.625C106.633 121.828 106.658 122.386 106.658 123.273C107.657 122.817 108.832 122.588 110.206 122.588C110.955 122.588 111.705 122.69 112.429 122.867C113.229 123.045 113.953 123.349 114.578 123.805C115.777 124.642 116.502 125.783 116.752 127.202C116.827 127.633 116.852 128.064 116.852 128.495C116.852 129.306 116.702 130.143 116.377 130.954C116.127 131.563 115.827 132.07 115.453 132.501C115.078 132.982 114.603 133.388 114.028 133.717C113.429 134.072 112.754 134.326 111.98 134.478C111.305 134.605 110.631 134.655 109.931 134.655C108.832 134.655 107.857 134.503 107.008 134.225C107.008 134.478 107.058 134.96 107.158 135.695L107.333 136.988L107.657 138.991L107.857 140.233L107.932 140.74C108.007 141.399 108.057 141.804 108.057 141.957C108.057 142.159 108.032 142.362 107.982 142.565C107.707 143.072 107.233 143.326 106.583 143.326C106.233 143.326 105.859 143.224 105.509 143.047C105.134 142.869 104.909 142.565 104.809 142.109C104.634 141.678 104.509 141.247 104.459 140.866C104.385 140.638 104.31 140.41 104.26 140.182C104.21 139.954 104.16 139.726 104.11 139.498L103.91 138.407C103.835 138.002 103.785 137.596 103.71 137.165C103.66 136.734 103.585 136.303 103.51 135.872L103.31 134.301C103.185 133.337 103.11 132.298 103.06 131.258L102.985 129.661C102.985 129.129 102.96 128.622 102.935 128.09C102.935 126.163 102.96 124.819 103.01 124.008L103.035 123.678C103.06 123.425 103.085 123.197 103.11 122.943C103.185 122.284 103.285 121.777 103.41 121.473C103.51 121.245 103.735 121.067 104.085 120.966C104.36 120.864 104.709 120.814 105.109 120.814ZM106.833 132.07H106.883L107.333 131.892H107.433C107.458 131.892 107.508 131.867 107.632 131.867C107.807 131.867 108.107 131.892 108.532 131.943C109.107 132.044 109.581 132.095 109.931 132.095C110.256 132.095 110.656 132.019 111.105 131.892C111.555 131.74 111.955 131.411 112.305 130.904C112.554 130.498 112.729 130.118 112.779 129.712C112.929 129.23 112.979 128.723 112.979 128.216C112.954 127.633 112.879 127.152 112.754 126.771C112.379 125.833 111.88 125.25 111.205 124.997C110.83 124.845 110.431 124.743 109.956 124.693L109.906 124.667H109.606L110.206 124.642L110.606 124.667L110.406 124.642L109.856 124.616C109.731 124.616 109.631 124.642 109.506 124.642C109.256 124.667 109.032 124.693 108.807 124.718L108.757 124.743C108.332 124.819 107.957 124.971 107.632 125.123C107.607 125.123 107.607 125.149 107.558 125.149C107.058 125.402 106.733 125.605 106.558 125.732C106.558 126.949 106.583 128.064 106.633 129.078L106.658 129.611C106.683 130.346 106.708 131.081 106.758 131.816L106.833 132.07ZM105.134 119.293C104.559 119.293 104.035 119.369 103.56 119.546C102.661 119.85 102.211 120.408 102.011 120.814L101.986 120.864L101.961 120.915C101.786 121.372 101.661 121.955 101.561 122.766C101.511 123.045 101.486 123.349 101.461 123.628L101.436 123.957C101.386 124.794 101.336 126.163 101.336 128.14V128.191V128.242C101.361 128.749 101.386 129.23 101.386 129.712V129.763V129.813L101.461 131.411C101.511 132.501 101.611 133.565 101.711 134.554L101.911 136.151V136.202V136.253C101.986 136.658 102.061 137.064 102.111 137.469C102.161 137.9 102.236 138.357 102.311 138.762V138.788V138.813L102.511 139.903V139.928V139.954C102.561 140.182 102.611 140.385 102.636 140.588C102.686 140.841 102.761 141.12 102.835 141.399C102.91 141.804 103.035 142.235 103.21 142.692C103.435 143.528 103.96 144.187 104.709 144.542C105.284 144.821 105.859 144.973 106.433 144.973C107.632 144.973 108.607 144.416 109.157 143.427L109.231 143.275L109.281 143.097C109.381 142.768 109.431 142.413 109.431 142.083C109.431 141.906 109.406 141.602 109.281 140.664L109.231 140.157V140.131V140.106L109.032 138.864L108.707 136.861L108.632 136.202C109.032 136.227 109.431 136.253 109.856 136.253C110.631 136.253 111.405 136.177 112.155 136.05H112.18H112.205C113.129 135.847 113.953 135.543 114.678 135.112C115.403 134.681 116.027 134.148 116.502 133.54C116.952 133.008 117.351 132.374 117.651 131.613V131.588V131.563C118.026 130.574 118.201 129.56 118.201 128.571C118.201 128.064 118.151 127.532 118.076 127.025C117.751 125.174 116.802 123.704 115.278 122.639C114.503 122.081 113.604 121.701 112.629 121.473C111.78 121.27 110.93 121.143 110.056 121.143C109.306 121.143 108.607 121.219 107.932 121.321C107.782 120.611 107.308 120.053 106.633 119.724C106.283 119.419 105.734 119.318 105.134 119.293ZM109.206 126.239C109.331 126.214 109.456 126.214 109.606 126.188L109.656 126.214V126.239H109.756H109.856C110.156 126.264 110.431 126.315 110.631 126.416L110.656 126.442L110.681 126.467C110.98 126.568 111.205 127.025 111.33 127.329C111.405 127.583 111.455 127.912 111.48 128.292C111.48 128.647 111.43 128.977 111.33 129.332L111.305 129.408L111.28 129.484C111.255 129.661 111.155 129.864 111.03 130.092C110.805 130.422 110.656 130.473 110.606 130.498C110.231 130.625 110.006 130.65 109.881 130.65C109.706 130.65 109.356 130.625 108.732 130.523H108.707H108.682C108.507 130.498 108.332 130.473 108.207 130.473C108.207 130.194 108.182 129.94 108.182 129.661V129.636V129.611L108.157 129.078C108.132 128.343 108.107 127.532 108.107 126.67C108.132 126.67 108.132 126.645 108.157 126.645C108.232 126.619 108.307 126.594 108.382 126.543C108.582 126.442 108.832 126.366 109.107 126.315L109.206 126.239Z" fill="#FFF2EA"/>
        </g>
    </g>
    <defs>
        <clipPath id="clip0">
            <rect width="211" height="209" fill="white"/>
        </clipPath>
        <clipPath id="clip1">
            <rect width="54.016" height="58.9919" fill="white" transform="translate(81.0239 102.814)"/>
        </clipPath>
    </defs>
</svg>
