<svg width="255" height="87" viewBox="0 0 255 87" fill="none" xmlns="http://www.w3.org/2000/svg">
<g filter="url(#filter0_d)">
<path d="M10.2889 6.384C8.88489 3.252 5.75289 0.947999 2.29689 0.947999C1.79289 0.947999 1.39689 1.056 1.39689 1.668C1.39689 2.064 1.46889 2.46 1.50489 2.892C1.64889 4.368 1.64889 5.808 1.68489 7.284C1.86489 13.476 2.29689 19.668 2.54889 25.86C2.62089 27.3 2.72889 28.704 2.72889 30.144C2.72889 30.936 2.90889 31.26 3.77289 31.26C10.3249 31.26 12.2689 24.708 12.2689 19.524C12.2689 15.096 12.0889 10.488 10.2889 6.384ZM5.89689 27.948C5.35689 27.948 5.35689 27.264 5.35689 26.904C5.35689 24.816 5.17689 22.836 5.03289 20.748C4.78089 17.184 4.60089 13.62 4.31289 10.056C4.27689 9.588 3.80889 3.936 3.98889 3.936C7.01289 3.936 9.31689 11.352 9.31689 16.716C9.31689 18.696 9.35289 27.948 5.89689 27.948ZM26.6846 20.244H26.5406C25.8926 20.244 25.2806 20.136 24.6326 20.136C24.3446 20.136 23.9846 20.136 23.7326 20.316C23.0126 20.748 23.8766 25.212 21.5006 25.212C19.0886 25.212 19.1246 19.992 18.9446 18.336C18.8726 17.688 18.7646 17.04 18.7646 16.392C18.7646 15.132 19.9166 14.88 20.9246 14.88C22.1486 14.88 23.3726 14.988 24.5966 14.988C25.9286 14.988 26.8286 14.736 26.8286 13.188C26.8286 9.912 25.1006 4.08 21.0686 4.08C15.8846 4.08 15.5606 12.612 15.5606 16.284C15.5606 19.812 16.7126 28.128 21.4646 28.128C25.1006 28.128 27.0446 24.096 27.0446 20.928C27.0446 20.64 27.0086 20.316 26.6846 20.244ZM19.1606 11.316V10.524C19.1606 9.372 19.1606 6.888 20.8166 6.888C22.5086 6.888 23.7326 9.876 23.7326 11.244C23.7326 12.036 23.2286 12.036 22.6166 12.108C21.7526 12.216 20.9246 12.504 20.0606 12.504C19.8086 12.504 19.0886 12.468 19.0886 12.108C19.0886 11.82 19.1246 11.568 19.1606 11.316ZM37.4703 17.112C36.2103 14.808 32.5383 11.964 32.5383 9.264C32.5383 8.796 32.6103 7.716 33.2943 7.716C34.8063 7.716 33.5463 9.66 35.3103 9.66C35.8863 9.66 36.4623 9.588 37.0383 9.516C36.9663 7.536 35.5263 5.196 33.3663 5.196C31.3143 5.196 29.9463 7.14 29.9463 9.048C29.9463 14.016 36.1383 16.5 36.1383 21.9C36.1383 22.836 35.7063 24.42 34.5183 24.42C33.0783 24.42 33.1863 22.62 33.1863 21.612C33.1863 20.82 32.4303 20.316 31.6743 20.316C30.7023 20.316 30.3423 21.108 30.3423 21.972C30.3423 24.24 31.9623 27.012 34.4823 27.012C37.2543 27.012 38.6943 24.204 38.6943 21.756C38.6943 20.136 38.2263 18.516 37.4703 17.112ZM60.3773 20.532C60.0533 20.388 58.6493 20.064 58.6493 19.632C58.6493 19.596 59.1173 19.2 59.1893 19.128C60.8813 16.968 61.5293 15.78 61.5293 12.936C61.5293 9.912 60.5573 6.132 57.8213 4.404C56.8493 3.828 55.2293 3.252 54.1133 3.252C53.0693 3.252 52.6733 3.684 52.6733 4.728C52.6733 5.268 52.7813 5.772 52.7813 6.312C52.8533 8.112 52.7813 9.876 52.7813 11.676C52.7813 16.428 52.8533 21.144 52.8533 25.896C52.8533 26.58 52.8533 27.264 52.9253 27.912C52.9973 28.488 52.9253 28.992 53.6093 28.992C56.3093 28.992 64.0133 29.028 64.0133 25.032C64.0133 23.124 62.0333 21.252 60.3773 20.532ZM56.9213 26.292C56.7413 26.328 56.5253 26.364 56.3453 26.364C55.7333 26.364 55.5893 26.04 55.5893 25.5C55.5893 24.636 55.6613 23.772 55.6613 22.908C55.6613 22.44 55.6973 22.116 56.2373 22.116C57.4613 22.116 59.7653 22.728 59.7653 24.276C59.7653 25.752 58.0373 26.04 56.9213 26.292ZM55.5893 17.688C55.6973 17.328 55.7333 16.932 55.7333 16.572C55.7333 15.708 55.5533 14.844 55.5173 13.98C55.4813 12.792 55.5533 11.64 55.5533 10.452C55.5533 9.516 55.3733 8.58 55.3733 7.644C55.3733 7.536 55.3733 6.996 55.5533 6.996C55.9853 6.996 56.6333 7.932 56.8853 8.256C57.8933 9.552 58.3973 11.172 58.3973 12.792C58.3973 13.332 58.3253 13.836 58.2533 14.34C58.0733 15.168 56.7053 18.228 55.7693 18.228C55.7333 18.228 55.6613 18.192 55.5893 18.192C55.5533 18.12 55.5173 18.012 55.5173 17.94C55.5173 17.868 55.5533 17.76 55.5893 17.688ZM77.6612 20.244H77.5172C76.8692 20.244 76.2572 20.136 75.6092 20.136C75.3212 20.136 74.9612 20.136 74.7092 20.316C73.9892 20.748 74.8532 25.212 72.4772 25.212C70.0652 25.212 70.1012 19.992 69.9212 18.336C69.8492 17.688 69.7412 17.04 69.7412 16.392C69.7412 15.132 70.8932 14.88 71.9012 14.88C73.1252 14.88 74.3492 14.988 75.5732 14.988C76.9052 14.988 77.8052 14.736 77.8052 13.188C77.8052 9.912 76.0772 4.08 72.0452 4.08C66.8612 4.08 66.5372 12.612 66.5372 16.284C66.5372 19.812 67.6892 28.128 72.4412 28.128C76.0772 28.128 78.0212 24.096 78.0212 20.928C78.0212 20.64 77.9852 20.316 77.6612 20.244ZM70.1372 11.316V10.524C70.1372 9.372 70.1372 6.888 71.7932 6.888C73.4852 6.888 74.7092 9.876 74.7092 11.244C74.7092 12.036 74.2052 12.036 73.5932 12.108C72.7292 12.216 71.9012 12.504 71.0372 12.504C70.7852 12.504 70.0652 12.468 70.0652 12.108C70.0652 11.82 70.1012 11.568 70.1372 11.316ZM87.7629 4.188C87.6549 3.252 87.7629 2.352 87.7629 1.416C87.7629 0.227999 87.0789 0.227999 86.1069 0.227999C85.6029 0.227999 85.0269 0.227999 84.5949 0.515998C84.0909 0.839998 84.1269 3.648 84.0549 4.332C83.4069 10.848 82.3629 17.292 81.6429 23.772C81.4629 25.68 81.1749 27.552 80.9229 29.46C80.7429 31.224 80.5989 31.764 82.1109 31.872C82.3269 31.908 82.5789 31.98 82.8309 31.98C83.5869 31.98 83.5149 31.044 83.5149 30.504C83.5149 28.992 83.7309 27.516 83.7669 26.04C83.8029 25.284 83.8029 24.42 84.5949 24.024C84.7749 23.952 86.2869 24.024 86.5029 24.024C87.4749 23.988 87.5109 26.04 87.7269 27.444C87.9069 28.74 87.5829 31.908 88.3749 31.908C89.1309 31.908 89.7789 31.836 90.3549 31.44C90.7149 31.188 90.3909 27.984 90.2109 26.58C89.3469 19.128 88.9869 11.604 87.7629 4.188ZM86.8269 21.432C86.6109 21.576 86.3229 21.648 86.0709 21.648C85.2789 21.648 84.5589 21.756 84.5949 21.18C84.6309 19.848 85.4589 12.396 85.6749 11.028C86.0709 14.7 86.8629 17.472 86.8629 20.748C86.8629 20.964 86.8629 21.216 86.8269 21.432ZM85.7109 10.884C85.7109 10.812 85.7109 10.812 85.7109 10.776C85.7109 10.812 85.7109 10.848 85.7109 10.884ZM107.066 4.8H106.706C105.806 4.8 104.726 4.836 104.726 6.024C104.726 6.708 104.798 7.356 104.798 8.004C104.798 9.804 104.762 11.604 104.762 13.404C104.762 16.284 105.518 23.772 101.054 23.772C96.9136 23.772 96.7336 18.552 96.7336 15.528C96.7336 12.36 96.8416 9.228 96.8416 6.06C96.8416 5.556 96.2296 5.556 95.9056 5.556C95.2216 5.556 94.7896 5.592 94.2496 6.06C94.1056 6.204 93.9616 12.972 93.9616 13.8C93.9616 18.012 94.3576 26.364 100.226 26.364C106.814 26.364 107.894 19.236 107.894 14.088C107.894 11.352 107.57 8.652 107.57 5.916C107.57 5.448 107.57 5.016 107.066 4.8ZM120.629 4.836C120.557 4.8 120.485 4.728 120.485 4.656C120.485 4.476 120.665 4.296 120.665 4.116C120.665 3.684 118.937 3.72 118.577 3.72C117.173 3.72 117.641 5.304 117.641 6.204C117.641 7.5 117.497 15.24 115.733 15.24C113.933 15.24 113.861 5.952 113.861 4.476C113.861 3.684 113.213 3.684 112.601 3.684C112.277 3.684 111.881 3.684 111.557 3.756C111.413 3.72 111.269 3.684 111.125 3.684C110.837 3.684 110.729 3.828 110.729 4.08C110.729 4.62 110.765 5.196 110.765 5.736C110.765 8.4 111.017 11.892 111.881 14.412C112.097 15.06 113.213 16.392 113.213 16.896C113.213 17.148 112.457 18.3 112.349 18.66C112.133 19.164 111.989 19.704 111.881 20.244C111.233 22.908 111.053 25.644 110.981 28.38C111.593 28.344 112.205 28.344 112.817 28.344C113.789 28.344 113.717 28.56 113.933 27.624C114.185 26.616 114.041 25.572 114.041 24.528C114.041 23.376 114.221 17.94 115.877 17.94C117.209 17.94 117.677 23.772 117.677 24.816C117.677 25.644 117.569 26.472 117.569 27.336C117.569 28.992 117.857 28.488 119.261 28.488C119.585 28.488 119.909 28.56 120.233 28.56C120.917 28.56 120.917 27.048 120.917 26.544C120.917 24.492 120.233 19.812 119.405 18.012C119.153 17.436 118.577 16.86 118.577 16.212C118.577 16.14 118.829 15.6 118.865 15.492C119.189 14.448 119.657 13.44 119.873 12.36C120.377 9.876 120.557 7.356 120.629 4.836ZM135.589 2.388C135.517 3.252 135.481 4.08 135.481 4.944C135.481 7.896 135.877 10.776 136.021 13.728C136.273 18.372 136.273 23.016 136.273 27.66C136.273 29.352 136.309 29.82 138.181 29.82C139.369 29.82 139.405 29.424 139.405 28.344C139.405 27.048 139.081 25.752 138.973 24.42C138.721 21.54 138.469 18.66 138.469 15.744C138.469 15.06 138.325 14.412 138.325 13.728C138.325 13.188 138.397 12.756 138.829 12.36C139.261 11.964 140.701 11.784 141.385 11.388C142.897 10.524 144.373 8.436 144.373 6.672C144.373 5.952 144.121 5.268 143.725 4.692C142.069 2.208 138.217 2.496 135.589 2.388ZM141.241 8.4C140.917 9.12 139.513 10.092 138.721 10.092C138.073 10.092 137.929 9.48 137.929 8.976C137.929 8.364 138.073 7.788 138.109 7.212C138.145 6.744 138.073 6.312 138.073 5.844C138.073 5.412 138.145 4.98 138.649 4.98C139.909 4.98 141.421 6.24 141.421 7.536C141.421 7.824 141.349 8.112 141.241 8.4ZM154.63 4.188C154.522 3.252 154.63 2.352 154.63 1.416C154.63 0.227999 153.946 0.227999 152.974 0.227999C152.47 0.227999 151.894 0.227999 151.462 0.515998C150.958 0.839998 150.994 3.648 150.922 4.332C150.274 10.848 149.23 17.292 148.51 23.772C148.33 25.68 148.042 27.552 147.79 29.46C147.61 31.224 147.466 31.764 148.978 31.872C149.194 31.908 149.446 31.98 149.698 31.98C150.454 31.98 150.382 31.044 150.382 30.504C150.382 28.992 150.598 27.516 150.634 26.04C150.67 25.284 150.67 24.42 151.462 24.024C151.642 23.952 153.154 24.024 153.37 24.024C154.342 23.988 154.378 26.04 154.594 27.444C154.774 28.74 154.45 31.908 155.242 31.908C155.998 31.908 156.646 31.836 157.222 31.44C157.582 31.188 157.258 27.984 157.078 26.58C156.214 19.128 155.854 11.604 154.63 4.188ZM153.694 21.432C153.478 21.576 153.19 21.648 152.938 21.648C152.146 21.648 151.426 21.756 151.462 21.18C151.498 19.848 152.326 12.396 152.542 11.028C152.938 14.7 153.73 17.472 153.73 20.748C153.73 20.964 153.73 21.216 153.694 21.432ZM152.578 10.884C152.578 10.812 152.578 10.812 152.578 10.776C152.578 10.812 152.578 10.848 152.578 10.884ZM169.757 1.488C169.217 1.488 167.525 1.344 167.525 2.172C167.525 3.18 167.813 4.152 167.813 5.16C167.813 6.384 167.453 9.3 165.761 9.3C164.609 9.3 163.889 7.536 163.745 6.6C163.529 5.376 163.709 4.152 163.709 2.964C163.709 2.172 163.601 0.983998 162.557 0.983998C161.477 0.983998 160.685 1.488 160.685 2.64C160.685 5.7 161.441 11.604 165.509 11.604C166.985 11.604 167.921 10.272 168.425 9.012C168.641 9.372 168.641 10.128 168.641 10.56C168.641 13.008 168.425 15.456 168.389 17.94C168.317 19.848 168.209 21.792 168.029 23.736C167.885 25.14 167.849 27.3 166.769 28.344C166.481 28.596 166.121 28.884 165.689 28.884C164.141 28.884 163.781 24.996 163.781 23.88C163.781 23.52 164.033 23.232 164.033 22.908C164.033 22.728 163.853 22.62 163.673 22.62C161.513 22.62 161.477 24.528 161.477 26.148C161.477 29.1 163.133 31.224 166.193 31.224C170.765 31.224 171.053 23.7 171.305 20.46C171.449 18.408 171.557 16.32 171.557 14.232C171.557 10.56 170.945 6.888 170.945 3.216C170.945 2.856 170.873 1.488 170.369 1.488H169.757ZM182.736 17.112C181.476 14.808 177.804 11.964 177.804 9.264C177.804 8.796 177.876 7.716 178.56 7.716C180.072 7.716 178.812 9.66 180.576 9.66C181.152 9.66 181.728 9.588 182.304 9.516C182.232 7.536 180.792 5.196 178.632 5.196C176.58 5.196 175.212 7.14 175.212 9.048C175.212 14.016 181.404 16.5 181.404 21.9C181.404 22.836 180.972 24.42 179.784 24.42C178.344 24.42 178.452 22.62 178.452 21.612C178.452 20.82 177.696 20.316 176.94 20.316C175.968 20.316 175.608 21.108 175.608 21.972C175.608 24.24 177.228 27.012 179.748 27.012C182.52 27.012 183.96 24.204 183.96 21.756C183.96 20.136 183.492 18.516 182.736 17.112ZM193.548 4.188C193.44 3.252 193.548 2.352 193.548 1.416C193.548 0.227999 192.864 0.227999 191.892 0.227999C191.388 0.227999 190.812 0.227999 190.38 0.515998C189.876 0.839998 189.912 3.648 189.84 4.332C189.192 10.848 188.148 17.292 187.428 23.772C187.248 25.68 186.96 27.552 186.708 29.46C186.528 31.224 186.384 31.764 187.896 31.872C188.112 31.908 188.364 31.98 188.616 31.98C189.372 31.98 189.3 31.044 189.3 30.504C189.3 28.992 189.516 27.516 189.552 26.04C189.588 25.284 189.588 24.42 190.38 24.024C190.56 23.952 192.072 24.024 192.288 24.024C193.26 23.988 193.296 26.04 193.512 27.444C193.692 28.74 193.368 31.908 194.16 31.908C194.916 31.908 195.564 31.836 196.14 31.44C196.5 31.188 196.176 27.984 195.996 26.58C195.132 19.128 194.772 11.604 193.548 4.188ZM192.612 21.432C192.396 21.576 192.108 21.648 191.856 21.648C191.064 21.648 190.344 21.756 190.38 21.18C190.416 19.848 191.244 12.396 191.46 11.028C191.856 14.7 192.648 17.472 192.648 20.748C192.648 20.964 192.648 21.216 192.612 21.432ZM191.496 10.884C191.496 10.812 191.496 10.812 191.496 10.776C191.496 10.812 191.496 10.848 191.496 10.884ZM212.059 0.0479994H210.187C204.751 0.0479994 200.719 1.236 200.719 7.536C200.719 10.92 201.583 13.98 205.615 13.98C206.335 13.98 207.235 13.368 207.451 13.368C208.279 13.368 208.279 16.464 208.279 17.04C208.279 18.192 208.207 19.308 208.207 20.424C208.207 22.332 208.711 29.316 205.687 29.316C202.555 29.316 203.275 25.104 202.627 24.456H202.519C201.871 24.456 201.259 24.6 200.647 24.672C199.891 24.816 199.603 24.744 199.603 25.644C199.603 27.012 200.827 28.92 201.727 29.892C202.915 31.188 204.571 32.196 206.371 32.196C211.051 32.196 211.051 23.196 211.051 20.028C211.051 16.788 210.979 13.584 210.799 10.38C210.691 7.86 210.727 5.304 210.223 2.784C210.655 2.82 211.123 2.892 211.591 2.892C212.383 2.892 212.851 2.46 212.851 1.632C212.851 1.056 212.743 0.155998 212.059 0.0479994ZM207.775 5.772C207.811 6.78 207.955 7.824 207.955 8.832C207.955 10.2 207.667 11.604 206.011 11.604C203.959 11.604 203.599 9.12 203.599 7.572C203.599 5.376 204.103 3.036 206.803 3.036C207.667 3.036 207.847 3.72 207.847 4.44C207.847 4.908 207.811 5.34 207.775 5.772ZM227.321 20.244H227.177C226.529 20.244 225.917 20.136 225.269 20.136C224.981 20.136 224.621 20.136 224.369 20.316C223.649 20.748 224.513 25.212 222.137 25.212C219.725 25.212 219.761 19.992 219.581 18.336C219.509 17.688 219.401 17.04 219.401 16.392C219.401 15.132 220.553 14.88 221.561 14.88C222.785 14.88 224.009 14.988 225.233 14.988C226.565 14.988 227.465 14.736 227.465 13.188C227.465 9.912 225.737 4.08 221.705 4.08C216.521 4.08 216.197 12.612 216.197 16.284C216.197 19.812 217.349 28.128 222.101 28.128C225.737 28.128 227.681 24.096 227.681 20.928C227.681 20.64 227.645 20.316 227.321 20.244ZM219.797 11.316V10.524C219.797 9.372 219.797 6.888 221.453 6.888C223.145 6.888 224.369 9.876 224.369 11.244C224.369 12.036 223.865 12.036 223.253 12.108C222.389 12.216 221.561 12.504 220.697 12.504C220.445 12.504 219.725 12.468 219.725 12.108C219.725 11.82 219.761 11.568 219.797 11.316ZM238.107 17.112C236.847 14.808 233.175 11.964 233.175 9.264C233.175 8.796 233.247 7.716 233.931 7.716C235.443 7.716 234.183 9.66 235.947 9.66C236.523 9.66 237.099 9.588 237.675 9.516C237.603 7.536 236.163 5.196 234.003 5.196C231.951 5.196 230.583 7.14 230.583 9.048C230.583 14.016 236.775 16.5 236.775 21.9C236.775 22.836 236.343 24.42 235.155 24.42C233.715 24.42 233.823 22.62 233.823 21.612C233.823 20.82 233.067 20.316 232.311 20.316C231.339 20.316 230.979 21.108 230.979 21.972C230.979 24.24 232.599 27.012 235.119 27.012C237.891 27.012 239.331 24.204 239.331 21.756C239.331 20.136 238.863 18.516 238.107 17.112ZM80.9929 58.46C80.6689 55.724 80.8489 52.988 80.8489 50.252C80.8489 48.632 80.6689 47.048 80.6689 45.464C80.6689 44.816 80.7769 44.204 80.7769 43.556C80.7769 42.728 78.8689 42.368 78.2569 42.368C77.7529 42.368 77.7529 42.908 77.7529 43.268C77.7529 47.768 78.2929 52.232 78.2929 56.732C78.2929 57.164 78.2929 57.56 78.1849 57.992C76.4929 55.58 72.5689 43.808 71.7409 43.16C71.2729 42.836 70.6969 42.692 70.1209 42.692C69.4009 42.692 69.0049 43.088 69.0049 43.808C69.0049 44.564 69.2569 45.284 69.3649 46.004C69.5809 47.624 69.6169 49.316 69.6169 50.936C69.6169 53.024 69.5089 55.112 69.5089 57.164C69.5089 59.756 69.6529 62.276 69.9409 64.832C70.0129 65.336 70.0129 65.804 70.6609 65.804C71.1649 65.804 71.6689 65.876 72.1729 65.876C72.8929 65.876 72.8929 64.796 72.8929 64.292C72.8929 60.584 72.3169 56.912 71.9569 53.24C71.8129 51.872 71.6329 50.54 71.6329 49.208C71.6329 49.064 71.6689 48.884 71.7049 48.74C72.3169 49.172 73.8289 53.816 74.2249 54.824C75.1249 57.2 76.3849 59.432 77.2489 61.808C77.4649 62.348 77.7889 63.752 78.2569 64.04C78.5809 64.22 79.8409 64.22 80.2369 64.22C81.2449 64.22 81.2449 62.492 81.2449 61.808C81.2449 60.692 81.1009 59.576 80.9929 58.46ZM92.1222 42.188C92.0142 41.252 92.1222 40.352 92.1222 39.416C92.1222 38.228 91.4382 38.228 90.4662 38.228C89.9622 38.228 89.3862 38.228 88.9542 38.516C88.4502 38.84 88.4862 41.648 88.4142 42.332C87.7662 48.848 86.7222 55.292 86.0022 61.772C85.8222 63.68 85.5342 65.552 85.2822 67.46C85.1022 69.224 84.9582 69.764 86.4702 69.872C86.6862 69.908 86.9382 69.98 87.1902 69.98C87.9462 69.98 87.8742 69.044 87.8742 68.504C87.8742 66.992 88.0902 65.516 88.1262 64.04C88.1622 63.284 88.1622 62.42 88.9542 62.024C89.1342 61.952 90.6462 62.024 90.8622 62.024C91.8342 61.988 91.8702 64.04 92.0862 65.444C92.2662 66.74 91.9422 69.908 92.7342 69.908C93.4902 69.908 94.1382 69.836 94.7142 69.44C95.0742 69.188 94.7502 65.984 94.5702 64.58C93.7062 57.128 93.3462 49.604 92.1222 42.188ZM91.1862 59.432C90.9702 59.576 90.6822 59.648 90.4302 59.648C89.6382 59.648 88.9182 59.756 88.9542 59.18C88.9902 57.848 89.8182 50.396 90.0342 49.028C90.4302 52.7 91.2222 55.472 91.2222 58.748C91.2222 58.964 91.2222 59.216 91.1862 59.432ZM90.0702 48.884C90.0702 48.812 90.0702 48.812 90.0702 48.776C90.0702 48.812 90.0702 48.848 90.0702 48.884ZM108.329 67.424C107.969 67.1 106.781 66.02 106.385 66.02C105.989 66.02 105.593 66.992 104.729 66.992C102.317 66.992 102.317 62.204 102.317 60.548C102.317 56.048 102.569 51.512 102.857 47.012C103.397 47.012 106.529 47.012 106.529 46.364C106.529 46.004 106.421 45.68 106.421 45.32C106.421 45.104 106.457 44.924 106.457 44.708C106.457 44.168 105.845 44.096 105.449 44.096C104.729 44.096 104.045 44.276 103.325 44.276H103.037C103.145 42.692 103.361 41.108 103.361 39.524C103.361 38.408 102.641 37.832 101.525 37.832C99.833 37.832 100.265 40.352 100.265 41.396C100.265 42.296 100.193 43.196 100.193 44.132H99.941C98.033 44.132 97.781 44.168 97.781 46.148C97.781 46.292 97.781 46.436 97.817 46.544C98.321 46.904 99.509 46.94 100.157 46.976C100.121 51.152 99.653 55.292 99.653 59.468C99.653 62.816 99.653 70.376 104.441 70.376C105.629 70.376 108.473 69.116 108.473 67.712C108.473 67.604 108.401 67.496 108.329 67.424ZM124.292 42.8H123.932C123.032 42.8 121.952 42.836 121.952 44.024C121.952 44.708 122.024 45.356 122.024 46.004C122.024 47.804 121.988 49.604 121.988 51.404C121.988 54.284 122.744 61.772 118.28 61.772C114.14 61.772 113.96 56.552 113.96 53.528C113.96 50.36 114.068 47.228 114.068 44.06C114.068 43.556 113.456 43.556 113.132 43.556C112.448 43.556 112.016 43.592 111.476 44.06C111.332 44.204 111.188 50.972 111.188 51.8C111.188 56.012 111.584 64.364 117.452 64.364C124.04 64.364 125.12 57.236 125.12 52.088C125.12 49.352 124.796 46.652 124.796 43.916C124.796 43.448 124.796 43.016 124.292 42.8ZM134.651 54.428C134.399 53.384 133.823 52.412 133.823 51.332C133.823 51.008 133.931 50.684 134.147 50.432C134.435 50.18 135.155 50.036 135.551 49.856C136.811 49.136 137.711 46.58 137.711 45.176C137.711 41.684 133.859 39.992 130.835 39.992C130.043 39.992 129.287 40.136 129.287 41.072C129.287 41.792 129.467 42.476 129.467 43.196C129.467 46.004 129.359 48.848 129.359 51.656C129.359 56.624 129.431 61.628 129.431 66.596C129.431 68.144 129.431 68.252 131.015 68.252C131.699 68.252 132.059 68.108 132.059 67.352V61.232C132.059 58.244 131.771 55.256 131.771 52.268C131.771 51.98 131.771 51.656 131.843 51.368C132.455 52.628 134.759 62.24 135.047 64.076C135.155 64.544 135.263 66.704 135.911 66.704C136.451 66.704 137.783 66.308 137.783 65.624C137.783 64.976 137.387 64.328 137.171 63.716C136.055 60.728 135.335 57.524 134.651 54.428ZM131.951 48.2V46.292C131.951 45.32 131.735 44.384 131.735 43.448C131.735 42.872 131.987 42.188 132.635 42.188C134.039 42.188 135.227 43.844 135.227 45.14C135.227 45.752 135.047 46.328 134.687 46.832C134.363 47.3 132.779 48.488 132.203 48.488C132.059 48.488 131.951 48.38 131.951 48.2ZM151.595 58.244H151.451C150.803 58.244 150.191 58.136 149.543 58.136C149.255 58.136 148.895 58.136 148.643 58.316C147.923 58.748 148.787 63.212 146.411 63.212C143.999 63.212 144.035 57.992 143.855 56.336C143.783 55.688 143.675 55.04 143.675 54.392C143.675 53.132 144.827 52.88 145.835 52.88C147.059 52.88 148.283 52.988 149.507 52.988C150.839 52.988 151.739 52.736 151.739 51.188C151.739 47.912 150.011 42.08 145.979 42.08C140.795 42.08 140.471 50.612 140.471 54.284C140.471 57.812 141.623 66.128 146.375 66.128C150.011 66.128 151.955 62.096 151.955 58.928C151.955 58.64 151.919 58.316 151.595 58.244ZM144.071 49.316V48.524C144.071 47.372 144.071 44.888 145.727 44.888C147.419 44.888 148.643 47.876 148.643 49.244C148.643 50.036 148.139 50.036 147.527 50.108C146.663 50.216 145.835 50.504 144.971 50.504C144.719 50.504 143.999 50.468 143.999 50.108C143.999 49.82 144.035 49.568 144.071 49.316ZM158.888 65.12C158.06 57.92 157.916 50.684 157.628 43.448C157.592 42.836 157.628 42.188 157.628 41.576C157.628 40.532 157.52 39.2 156.152 39.2C155.648 39.2 155.18 39.452 154.676 39.344C154.532 39.488 154.46 39.668 154.46 39.884C154.46 40.424 154.676 40.964 154.748 41.54C154.856 42.368 154.748 43.232 154.748 44.096C154.748 49.532 155.36 54.932 155.648 60.368C155.792 62.816 155.756 65.3 156.188 67.748C156.368 68.756 156.332 68.576 157.268 68.792C157.628 68.864 158.024 69.008 158.384 69.008C159.104 69.008 159.176 68.036 159.176 67.532C159.176 66.74 158.996 65.912 158.888 65.12ZM170.607 55.112C169.347 52.808 165.675 49.964 165.675 47.264C165.675 46.796 165.747 45.716 166.431 45.716C167.943 45.716 166.683 47.66 168.447 47.66C169.023 47.66 169.599 47.588 170.175 47.516C170.103 45.536 168.663 43.196 166.503 43.196C164.451 43.196 163.083 45.14 163.083 47.048C163.083 52.016 169.275 54.5 169.275 59.9C169.275 60.836 168.843 62.42 167.655 62.42C166.215 62.42 166.323 60.62 166.323 59.612C166.323 58.82 165.567 58.316 164.811 58.316C163.839 58.316 163.479 59.108 163.479 59.972C163.479 62.24 165.099 65.012 167.619 65.012C170.391 65.012 171.831 62.204 171.831 59.756C171.831 58.136 171.363 56.516 170.607 55.112Z" fill="white"/>
</g>
<defs>
<filter id="filter0_d" x="0.396973" y="0.0480042" width="253.934" height="86.328" filterUnits="userSpaceOnUse" color-interpolation-filters="sRGB">
<feFlood flood-opacity="0" result="BackgroundImageFix"/>
<feColorMatrix in="SourceAlpha" type="matrix" values="0 0 0 0 0 0 0 0 0 0 0 0 0 0 0 0 0 0 127 0"/>
<feOffset dx="7" dy="8"/>
<feGaussianBlur stdDeviation="4"/>
<feColorMatrix type="matrix" values="0 0 0 0 0 0 0 0 0 0 0 0 0 0 0 0 0 0 0.25 0"/>
<feBlend mode="normal" in2="BackgroundImageFix" result="effect1_dropShadow"/>
<feBlend mode="normal" in="SourceGraphic" in2="effect1_dropShadow" result="shape"/>
</filter>
</defs>
</svg>
