<svg width="141" height="171" viewBox="0 0 141 171" fill="none" xmlns="http://www.w3.org/2000/svg">
<path d="M136.91 70.96C136.8 86.58 131.34 100.91 122.22 112.18L75.4101 164.77C72.7401 167.77 68.0401 167.77 65.3701 164.77L18.5601 112.18C9.35012 100.8 3.87012 86.3 3.87012 70.5C3.87012 33.72 33.7401 3.90002 70.5401 3.98002C107.03 4.06002 137.16 34.47 136.91 70.96Z" fill="white"/>
<path d="M135.35 84.55V86.08L134.34 87.2801C133.86 89.1801 133.28 91.0401 132.62 92.8801C132.6 92.9201 132.59 92.9701 132.57 93.0001H8.25998C7.58998 91.1101 6.98999 89.2001 6.48999 87.2601L5.48999 86.08V84.55H135.35Z" fill="#030303" stroke="black" stroke-width="0.25" stroke-miterlimit="10"/>
<path d="M135.75 80.21C135.54 81.67 135.29 83.12 134.97 84.55H5.31006L5.06006 80.21H135.75Z" fill="#FCA3BE" stroke="black" stroke-width="0.25" stroke-miterlimit="10"/>
<path d="M135.75 80.21C135.54 81.67 135.29 83.12 134.97 84.55H5.84006C5.53006 83.11 5.27006 81.67 5.06006 80.21H135.75Z" stroke="black" stroke-width="0.25" stroke-miterlimit="10"/>
<path d="M136.19 76.21C136.14 76.94 136.07 77.66 135.98 78.38H4.8201C4.7301 77.66 4.66009 76.94 4.59009 76.21H136.19Z" fill="#FCA3BE" stroke="black" stroke-width="0.25" stroke-miterlimit="10"/>
<path d="M136.19 76.21C136.14 76.94 136.07 77.66 135.98 78.38H4.8201C4.7301 77.66 4.66009 76.94 4.59009 76.21H136.19Z" stroke="black" stroke-width="0.25" stroke-miterlimit="10"/>
<path d="M12.4302 84.5601H11.2002V92.8501H12.4302V84.5601Z" fill="#EFE8DD" stroke="black" stroke-width="0.25" stroke-miterlimit="10"/>
<path d="M12.4302 84.5601H11.2002V92.8501H12.4302V84.5601Z" stroke="black" stroke-width="0.25" stroke-miterlimit="10" stroke-linecap="round" stroke-linejoin="round"/>
<path d="M25.4302 84.5601H24.2002V92.8501H25.4302V84.5601Z" fill="#EFE8DD" stroke="black" stroke-width="0.25" stroke-miterlimit="10"/>
<path d="M25.4302 84.5601H24.2002V92.8501H25.4302V84.5601Z" stroke="black" stroke-width="0.25" stroke-miterlimit="10" stroke-linecap="round" stroke-linejoin="round"/>
<path d="M38.4402 84.5601H37.2102V92.8501H38.4402V84.5601Z" fill="#EFE8DD" stroke="black" stroke-width="0.25" stroke-miterlimit="10"/>
<path d="M38.4402 84.5601H37.2102V92.8501H38.4402V84.5601Z" stroke="black" stroke-width="0.25" stroke-miterlimit="10" stroke-linecap="round" stroke-linejoin="round"/>
<path d="M51.4402 84.5601H50.2102V92.8501H51.4402V84.5601Z" fill="#EFE8DD" stroke="black" stroke-width="0.25" stroke-miterlimit="10"/>
<path d="M51.4402 84.5601H50.2102V92.8501H51.4402V84.5601Z" stroke="black" stroke-width="0.25" stroke-miterlimit="10" stroke-linecap="round" stroke-linejoin="round"/>
<path d="M64.4502 84.5601H63.2202V92.8501H64.4502V84.5601Z" fill="#EFE8DD" stroke="black" stroke-width="0.25" stroke-miterlimit="10"/>
<path d="M64.4502 84.5601H63.2202V92.8501H64.4502V84.5601Z" stroke="black" stroke-width="0.25" stroke-miterlimit="10" stroke-linecap="round" stroke-linejoin="round"/>
<path d="M77.4502 84.5601H76.2202V92.8501H77.4502V84.5601Z" fill="#EFE8DD" stroke="black" stroke-width="0.25" stroke-miterlimit="10"/>
<path d="M77.4502 84.5601H76.2202V92.8501H77.4502V84.5601Z" stroke="black" stroke-width="0.25" stroke-miterlimit="10" stroke-linecap="round" stroke-linejoin="round"/>
<path d="M90.4502 84.5601H89.2202V92.8501H90.4502V84.5601Z" fill="#EFE8DD" stroke="black" stroke-width="0.25" stroke-miterlimit="10"/>
<path d="M90.4502 84.5601H89.2202V92.8501H90.4502V84.5601Z" stroke="black" stroke-width="0.25" stroke-miterlimit="10" stroke-linecap="round" stroke-linejoin="round"/>
<path d="M103.46 84.5601H102.23V92.8501H103.46V84.5601Z" fill="#EFE8DD" stroke="black" stroke-width="0.25" stroke-miterlimit="10"/>
<path d="M103.46 84.5601H102.23V92.8501H103.46V84.5601Z" stroke="black" stroke-width="0.25" stroke-miterlimit="10" stroke-linecap="round" stroke-linejoin="round"/>
<path d="M116.46 84.5601H115.23V92.8501H116.46V84.5601Z" fill="#EFE8DD" stroke="black" stroke-width="0.25" stroke-miterlimit="10"/>
<path d="M116.46 84.5601H115.23V92.8501H116.46V84.5601Z" stroke="black" stroke-width="0.25" stroke-miterlimit="10" stroke-linecap="round" stroke-linejoin="round"/>
<path d="M129.47 84.5601H128.24V92.8501H129.47V84.5601Z" fill="#EFE8DD" stroke="black" stroke-width="0.25" stroke-miterlimit="10"/>
<path d="M129.47 84.5601H128.24V92.8501H129.47V84.5601Z" stroke="black" stroke-width="0.25" stroke-miterlimit="10" stroke-linecap="round" stroke-linejoin="round"/>
<path d="M18.3201 86.0701L12.6101 92.8401V91.2101L18.3201 84.5601V86.0701Z" fill="#EFE8DD" stroke="black" stroke-width="0.25" stroke-miterlimit="10"/>
<path d="M18.3201 86.0701L12.6101 92.8401V91.2101L18.3201 84.5601V86.0701Z" stroke="black" stroke-width="0.25" stroke-miterlimit="10" stroke-linecap="round" stroke-linejoin="round"/>
<path d="M31.3201 86.0701L25.6201 92.8401V91.2101L31.3201 84.5601V86.0701Z" fill="#EFE8DD" stroke="black" stroke-width="0.25" stroke-miterlimit="10"/>
<path d="M31.3201 86.0701L25.6201 92.8401V91.2101L31.3201 84.5601V86.0701Z" stroke="black" stroke-width="0.25" stroke-miterlimit="10" stroke-linecap="round" stroke-linejoin="round"/>
<path d="M44.3301 86.0701L38.6201 92.8401V91.2101L44.3301 84.5601V86.0701Z" fill="#EFE8DD" stroke="black" stroke-width="0.25" stroke-miterlimit="10"/>
<path d="M44.3301 86.0701L38.6201 92.8401V91.2101L44.3301 84.5601V86.0701Z" stroke="black" stroke-width="0.25" stroke-miterlimit="10" stroke-linecap="round" stroke-linejoin="round"/>
<path d="M57.3301 86.0701L51.6201 92.8401V91.2101L57.3301 84.5601V86.0701Z" fill="#EFE8DD" stroke="black" stroke-width="0.25" stroke-miterlimit="10"/>
<path d="M57.3301 86.0701L51.6201 92.8401V91.2101L57.3301 84.5601V86.0701Z" stroke="black" stroke-width="0.25" stroke-miterlimit="10" stroke-linecap="round" stroke-linejoin="round"/>
<path d="M70.3301 86.0701L64.6301 92.8401V91.2101L70.3301 84.5601V86.0701Z" fill="#EFE8DD" stroke="black" stroke-width="0.25" stroke-miterlimit="10"/>
<path d="M70.3301 86.0701L64.6301 92.8401V91.2101L70.3301 84.5601V86.0701Z" stroke="black" stroke-width="0.25" stroke-miterlimit="10" stroke-linecap="round" stroke-linejoin="round"/>
<path d="M83.3401 86.0701L77.6301 92.8401V91.2101L83.3401 84.5601V86.0701Z" fill="#EFE8DD" stroke="black" stroke-width="0.25" stroke-miterlimit="10"/>
<path d="M83.3401 86.0701L77.6301 92.8401V91.2101L83.3401 84.5601V86.0701Z" stroke="black" stroke-width="0.25" stroke-miterlimit="10" stroke-linecap="round" stroke-linejoin="round"/>
<path d="M96.3401 86.0701L90.6401 92.8401V91.2101L96.3401 84.5601V86.0701Z" fill="#EFE8DD" stroke="black" stroke-width="0.25" stroke-miterlimit="10"/>
<path d="M96.3401 86.0701L90.6401 92.8401V91.2101L96.3401 84.5601V86.0701Z" stroke="black" stroke-width="0.25" stroke-miterlimit="10" stroke-linecap="round" stroke-linejoin="round"/>
<path d="M109.35 86.0701L103.64 92.8401V91.2101L109.35 84.5601V86.0701Z" fill="#EFE8DD" stroke="black" stroke-width="0.25" stroke-miterlimit="10"/>
<path d="M109.35 86.0701L103.64 92.8401V91.2101L109.35 84.5601V86.0701Z" stroke="black" stroke-width="0.25" stroke-miterlimit="10" stroke-linecap="round" stroke-linejoin="round"/>
<path d="M122.35 86.0701L116.65 92.8401V91.2101L122.35 84.5601V86.0701Z" fill="#EFE8DD" stroke="black" stroke-width="0.25" stroke-miterlimit="10"/>
<path d="M122.35 86.0701L116.65 92.8401V91.2101L122.35 84.5601V86.0701Z" stroke="black" stroke-width="0.25" stroke-miterlimit="10" stroke-linecap="round" stroke-linejoin="round"/>
<path d="M135.35 84.55V86.08L134.34 87.2801L129.65 92.8501V91.2101L130.25 90.5101L134.85 85.1401L135.35 84.55Z" fill="#EFE8DD" stroke="black" stroke-width="0.25" stroke-miterlimit="10"/>
<path d="M135.35 84.55V86.08L134.34 87.2801L129.65 92.8501V91.2101L130.25 90.5101L134.85 85.1401L135.35 84.55Z" stroke="black" stroke-width="0.25" stroke-miterlimit="10" stroke-linecap="round" stroke-linejoin="round"/>
<path d="M11.19 91.2101V92.8501L6.47998 87.2601L5.48999 86.08V84.55L5.95999 85.1001L10.49 90.3801L11.19 91.2101Z" fill="#EFE8DD" stroke="black" stroke-width="0.25" stroke-miterlimit="10"/>
<path d="M11.19 91.2101V92.8501L6.47998 87.2601L5.48999 86.08V84.55L5.95999 85.1001L10.49 90.3801L11.19 91.2101Z" stroke="black" stroke-width="0.25" stroke-miterlimit="10" stroke-linecap="round" stroke-linejoin="round"/>
<path d="M18.5 86.0701L24.2 92.8401V91.2101L18.5 84.5601V86.0701Z" fill="#EFE8DD" stroke="black" stroke-width="0.25" stroke-miterlimit="10"/>
<path d="M18.5 86.0701L24.2 92.8401V91.2101L18.5 84.5601V86.0701Z" stroke="black" stroke-width="0.25" stroke-miterlimit="10" stroke-linecap="round" stroke-linejoin="round"/>
<path d="M31.5 86.0701L37.21 92.8401V91.2101L31.5 84.5601V86.0701Z" fill="#EFE8DD" stroke="black" stroke-width="0.25" stroke-miterlimit="10"/>
<path d="M31.5 86.0701L37.21 92.8401V91.2101L31.5 84.5601V86.0701Z" stroke="black" stroke-width="0.25" stroke-miterlimit="10" stroke-linecap="round" stroke-linejoin="round"/>
<path d="M44.51 86.0701L50.21 92.8401V91.2101L44.51 84.5601V86.0701Z" fill="#EFE8DD" stroke="black" stroke-width="0.25" stroke-miterlimit="10"/>
<path d="M44.51 86.0701L50.21 92.8401V91.2101L44.51 84.5601V86.0701Z" stroke="black" stroke-width="0.25" stroke-miterlimit="10" stroke-linecap="round" stroke-linejoin="round"/>
<path d="M57.51 86.0701L63.22 92.8401V91.2101L57.51 84.5601V86.0701Z" fill="#EFE8DD" stroke="black" stroke-width="0.25" stroke-miterlimit="10"/>
<path d="M57.51 86.0701L63.22 92.8401V91.2101L57.51 84.5601V86.0701Z" stroke="black" stroke-width="0.25" stroke-miterlimit="10" stroke-linecap="round" stroke-linejoin="round"/>
<path d="M70.51 86.0701L76.22 92.8401V91.2101L70.51 84.5601V86.0701Z" fill="#EFE8DD" stroke="black" stroke-width="0.25" stroke-miterlimit="10"/>
<path d="M70.51 86.0701L76.22 92.8401V91.2101L70.51 84.5601V86.0701Z" stroke="black" stroke-width="0.25" stroke-miterlimit="10" stroke-linecap="round" stroke-linejoin="round"/>
<path d="M83.52 86.0701L89.22 92.8401V91.2101L83.52 84.5601V86.0701Z" fill="#EFE8DD" stroke="black" stroke-width="0.25" stroke-miterlimit="10"/>
<path d="M83.52 86.0701L89.22 92.8401V91.2101L83.52 84.5601V86.0701Z" stroke="black" stroke-width="0.25" stroke-miterlimit="10" stroke-linecap="round" stroke-linejoin="round"/>
<path d="M96.52 86.0701L102.23 92.8401V91.2101L96.52 84.5601V86.0701Z" fill="#EFE8DD" stroke="black" stroke-width="0.25" stroke-miterlimit="10"/>
<path d="M96.52 86.0701L102.23 92.8401V91.2101L96.52 84.5601V86.0701Z" stroke="black" stroke-width="0.25" stroke-miterlimit="10" stroke-linecap="round" stroke-linejoin="round"/>
<path d="M109.53 86.0701L115.23 92.8401V91.2101L109.53 84.5601V86.0701Z" fill="#EFE8DD" stroke="black" stroke-width="0.25" stroke-miterlimit="10"/>
<path d="M109.53 86.0701L115.23 92.8401V91.2101L109.53 84.5601V86.0701Z" stroke="black" stroke-width="0.25" stroke-miterlimit="10" stroke-linecap="round" stroke-linejoin="round"/>
<path d="M122.53 86.0701L128.24 92.8401V91.2101L122.53 84.5601V86.0701Z" fill="#EFE8DD" stroke="black" stroke-width="0.25" stroke-miterlimit="10"/>
<path d="M122.53 86.0701L128.24 92.8401V91.2101L122.53 84.5601V86.0701Z" stroke="black" stroke-width="0.25" stroke-miterlimit="10" stroke-linecap="round" stroke-linejoin="round"/>
<path d="M28.3302 80.2101H24.6802V78.0201C24.6802 77.0101 25.5002 76.2001 26.5002 76.2001C27.5102 76.2001 28.3202 77.0201 28.3202 78.0201V80.2101H28.3302Z" fill="#F66E4E" stroke="black" stroke-width="0.25" stroke-miterlimit="10"/>
<path d="M28.3302 80.2101H24.6802V78.0201C24.6802 77.0101 25.5002 76.2001 26.5002 76.2001C27.5102 76.2001 28.3202 77.0201 28.3202 78.0201V80.2101H28.3302Z" stroke="black" stroke-width="0.25" stroke-miterlimit="10"/>
<path d="M26.6202 76.01C26.3802 76.13 26.1302 76.2 25.8802 76.2C23.6902 76.2 21.9202 71.46 21.9202 65.61C21.9202 59.76 23.7002 55.02 25.8802 55.02C26.1302 55.02 26.3802 55.08 26.6202 55.21C24.7802 56.13 23.3902 60.44 23.3902 65.61C23.4002 70.78 24.7802 75.09 26.6202 76.01Z" fill="#F66E4E" stroke="black" stroke-width="0.25" stroke-miterlimit="10"/>
<path d="M26.6202 76.01C26.3802 76.13 26.1302 76.2 25.8802 76.2C23.6902 76.2 21.9202 71.46 21.9202 65.61C21.9202 59.76 23.7002 55.02 25.8802 55.02C26.1302 55.02 26.3802 55.08 26.6202 55.21C24.7802 56.13 23.3902 60.44 23.3902 65.61C23.4002 70.78 24.7802 75.09 26.6202 76.01Z" stroke="black" stroke-width="0.25" stroke-miterlimit="10"/>
<path d="M31.3201 65.61C31.3201 71.46 29.5501 76.2 27.3601 76.2C27.1101 76.2 26.8601 76.14 26.6201 76.01C28.4601 75.09 29.8501 70.78 29.8501 65.61C29.8501 60.44 28.4601 56.13 26.6201 55.21C26.8601 55.09 27.1101 55.02 27.3601 55.02C29.5501 55.02 31.3201 59.76 31.3201 65.61Z" fill="#F66E4E" stroke="black" stroke-width="0.25" stroke-miterlimit="10"/>
<path d="M31.3201 65.61C31.3201 71.46 29.5501 76.2 27.3601 76.2C27.1101 76.2 26.8601 76.14 26.6201 76.01C28.4601 75.09 29.8501 70.78 29.8501 65.61C29.8501 60.44 28.4601 56.13 26.6201 55.21C26.8601 55.09 27.1101 55.02 27.3601 55.02C29.5501 55.02 31.3201 59.76 31.3201 65.61Z" stroke="black" stroke-width="0.25" stroke-miterlimit="10"/>
<path d="M67.2 80.2101H63.55V78.0201C63.55 77.0101 64.37 76.2001 65.37 76.2001C66.38 76.2001 67.19 77.0201 67.19 78.0201V80.2101H67.2Z" fill="#F66E4E" stroke="black" stroke-width="0.25" stroke-miterlimit="10"/>
<path d="M67.2 80.2101H63.55V78.0201C63.55 77.0101 64.37 76.2001 65.37 76.2001C66.38 76.2001 67.19 77.0201 67.19 78.0201V80.2101H67.2Z" stroke="black" stroke-width="0.25" stroke-miterlimit="10"/>
<path d="M65.4901 76.01C65.2501 76.13 65 76.2 64.75 76.2C62.56 76.2 60.79 71.46 60.79 65.61C60.79 59.76 62.57 55.02 64.75 55.02C65 55.02 65.2501 55.08 65.4901 55.21C63.6501 56.13 62.26 60.44 62.26 65.61C62.27 70.78 63.6601 75.09 65.4901 76.01Z" fill="#F66E4E" stroke="black" stroke-width="0.25" stroke-miterlimit="10"/>
<path d="M65.4901 76.01C65.2501 76.13 65 76.2 64.75 76.2C62.56 76.2 60.79 71.46 60.79 65.61C60.79 59.76 62.57 55.02 64.75 55.02C65 55.02 65.2501 55.08 65.4901 55.21C63.6501 56.13 62.26 60.44 62.26 65.61C62.27 70.78 63.6601 75.09 65.4901 76.01Z" stroke="black" stroke-width="0.25" stroke-miterlimit="10"/>
<path d="M70.19 65.61C70.19 71.46 68.42 76.2 66.23 76.2C65.98 76.2 65.73 76.14 65.49 76.01C67.33 75.09 68.72 70.78 68.72 65.61C68.72 60.44 67.33 56.13 65.49 55.21C65.73 55.09 65.98 55.02 66.23 55.02C68.42 55.02 70.19 59.76 70.19 65.61Z" fill="#F66E4E" stroke="black" stroke-width="0.25" stroke-miterlimit="10"/>
<path d="M70.19 65.61C70.19 71.46 68.42 76.2 66.23 76.2C65.98 76.2 65.73 76.14 65.49 76.01C67.33 75.09 68.72 70.78 68.72 65.61C68.72 60.44 67.33 56.13 65.49 55.21C65.73 55.09 65.98 55.02 66.23 55.02C68.42 55.02 70.19 59.76 70.19 65.61Z" stroke="black" stroke-width="0.25" stroke-miterlimit="10"/>
<path d="M106.07 80.2101H102.42V78.0201C102.42 77.0101 103.24 76.2001 104.24 76.2001C105.24 76.2001 106.06 77.0201 106.06 78.0201V80.2101H106.07Z" fill="#F66E4E" stroke="black" stroke-width="0.25" stroke-miterlimit="10"/>
<path d="M106.07 80.2101H102.42V78.0201C102.42 77.0101 103.24 76.2001 104.24 76.2001C105.24 76.2001 106.06 77.0201 106.06 78.0201V80.2101H106.07Z" stroke="black" stroke-width="0.25" stroke-miterlimit="10"/>
<path d="M104.37 76.01C104.13 76.13 103.88 76.2 103.63 76.2C101.44 76.2 99.6702 71.46 99.6702 65.61C99.6702 59.76 101.45 55.02 103.63 55.02C103.88 55.02 104.13 55.08 104.37 55.21C102.53 56.13 101.14 60.44 101.14 65.61C101.14 70.78 102.53 75.09 104.37 76.01Z" fill="#F66E4E" stroke="black" stroke-width="0.25" stroke-miterlimit="10"/>
<path d="M104.37 76.01C104.13 76.13 103.88 76.2 103.63 76.2C101.44 76.2 99.6702 71.46 99.6702 65.61C99.6702 59.76 101.45 55.02 103.63 55.02C103.88 55.02 104.13 55.08 104.37 55.21C102.53 56.13 101.14 60.44 101.14 65.61C101.14 70.78 102.53 75.09 104.37 76.01Z" stroke="black" stroke-width="0.25" stroke-miterlimit="10"/>
<path d="M109.07 65.61C109.07 71.46 107.3 76.2 105.11 76.2C104.86 76.2 104.61 76.14 104.37 76.01C106.21 75.09 107.6 70.78 107.6 65.61C107.6 60.44 106.21 56.13 104.37 55.21C104.61 55.09 104.86 55.02 105.11 55.02C107.29 55.02 109.07 59.76 109.07 65.61Z" fill="#F66E4E" stroke="black" stroke-width="0.25" stroke-miterlimit="10"/>
<path d="M109.07 65.61C109.07 71.46 107.3 76.2 105.11 76.2C104.86 76.2 104.61 76.14 104.37 76.01C106.21 75.09 107.6 70.78 107.6 65.61C107.6 60.44 106.21 56.13 104.37 55.21C104.61 55.09 104.86 55.02 105.11 55.02C107.29 55.02 109.07 59.76 109.07 65.61Z" stroke="black" stroke-width="0.25" stroke-miterlimit="10"/>
<path d="M119.73 21.58C106.5 8.23005 89.03 0.860068 70.55 0.820068H70.39C51.81 0.820068 34.34 8.05005 21.18 21.1801C7.97996 34.3501 0.719971 51.8601 0.719971 70.4901C0.719971 72.44 0.799976 74.39 0.959976 76.33C1.02998 77.1 1.10997 77.8601 1.19997 78.6201C1.26997 79.2601 1.35998 79.91 1.45998 80.55C1.67998 82.09 1.94997 83.6101 2.27997 85.1301C2.31997 85.3201 2.36997 85.5201 2.40997 85.7101C2.57997 86.4701 2.75998 87.23 2.95998 87.9901C3.48998 90.0401 4.11997 92.0601 4.82997 94.05C7.44997 101.33 11.27 108.17 16.21 114.27L63.01 166.86C64.89 168.96 67.58 170.17 70.39 170.17C73.21 170.17 75.9 168.96 77.76 166.86L124.67 114.16C129.62 108.04 133.42 101.27 136.01 94.05C136.03 94.01 136.04 93.9601 136.06 93.9201C136.75 91.9801 137.36 90.0101 137.87 88.0101C138.06 87.2601 138.24 86.5101 138.41 85.7501C138.46 85.5501 138.5 85.3401 138.54 85.1301C138.87 83.6201 139.14 82.09 139.36 80.55C139.45 79.91 139.53 79.2601 139.6 78.6201C139.69 77.8601 139.77 77.1 139.82 76.33C139.97 74.5601 140.05 72.7801 140.06 70.9801C140.19 52.4801 132.97 34.94 119.73 21.58ZM133.5 76.33C133.43 77.09 133.35 77.8601 133.25 78.6201C133.17 79.2701 133.08 79.91 132.98 80.55C132.73 82.09 132.44 83.6201 132.08 85.1301C131.88 85.9801 131.67 86.8301 131.43 87.6701C131.12 88.7801 130.78 89.8701 130.41 90.9601C130.28 91.3701 130.14 91.7701 129.99 92.1701C129.76 92.8001 129.52 93.43 129.27 94.05C126.98 99.79 123.82 105.18 119.86 110.08L73.05 162.67C72.37 163.44 71.42 163.86 70.39 163.86C69.36 163.86 68.41 163.44 67.73 162.66L21.01 110.19C17.06 105.3 13.88 99.8501 11.56 94.05C11.31 93.43 11.07 92.8101 10.85 92.1801C10.7 91.7801 10.56 91.3801 10.43 90.9801V90.9701C9.97996 89.6801 9.57997 88.3801 9.22997 87.05C9.04996 86.41 8.88997 85.7701 8.72997 85.1301C8.37997 83.6201 8.06997 82.09 7.82997 80.55C7.71997 79.91 7.62997 79.2701 7.54997 78.6201C7.44997 77.8601 7.35996 77.1 7.28996 76.33C7.10996 74.39 7.01997 72.4501 7.01997 70.4901C7.01997 53.55 13.63 37.6201 25.64 25.6401C37.61 13.7001 53.49 7.13007 70.39 7.13007H70.53C87.33 7.16007 103.21 13.8701 115.26 26.0201C127.3 38.18 133.87 54.1301 133.76 70.9301C133.75 72.7401 133.66 74.54 133.5 76.33Z" fill="black"/>
</svg>
