<svg width="140" height="170" viewBox="0 0 140 170" fill="none" xmlns="http://www.w3.org/2000/svg">
<path d="M136.2 70.43C136.09 86.05 130.63 100.38 121.51 111.65L74.6999 164.24C72.0299 167.24 67.3299 167.24 64.6599 164.24L17.8499 111.65C8.63991 100.27 3.15991 85.7701 3.15991 69.9701C3.15991 33.1901 33.0299 3.37005 69.8299 3.45005C106.32 3.53005 136.45 33.94 136.2 70.43Z" fill="white"/>
<path d="M69.68 169.64C66.87 169.64 64.18 168.43 62.3 166.33L15.49 113.74C5.47 101.35 0 85.85 0 69.97C0 51.34 7.27 33.83 20.46 20.65C33.62 7.52004 51.09 0.290039 69.67 0.290039C69.72 0.290039 69.77 0.290039 69.82 0.290039C88.31 0.330039 105.78 7.70005 119.01 21.05C132.25 34.41 139.47 51.9501 139.34 70.44C139.23 86.37 133.91 101.3 123.95 113.62L77.04 166.32C75.18 168.43 72.5 169.64 69.68 169.64ZM69.68 6.60005C52.78 6.60005 36.89 13.17 24.92 25.12C12.92 37.1 6.31 53.03 6.31 69.97C6.31 84.42 11.28 98.5101 20.3 109.67L67.01 162.14C67.7 162.91 68.64 163.34 69.68 163.34C70.71 163.34 71.66 162.92 72.34 162.15L119.15 109.56C128.11 98.48 132.95 84.91 133.04 70.42C133.15 53.61 126.58 37.66 114.54 25.51C102.5 13.36 86.62 6.65005 69.82 6.61005C69.78 6.60005 69.73 6.60005 69.68 6.60005Z" fill="black"/>
<path d="M72.21 36.7899H70.27V35.7999C70.27 35.2199 69.97 34.9199 69.6 34.9199C69.23 34.9199 68.93 35.2199 68.93 35.5899V36.7899H66.99C66.72 36.7899 66.49 37.0099 66.49 37.2899C66.49 37.5699 66.71 37.7899 66.83 37.7899H68.92V42.6599C68.92 43.0299 69.22 43.3299 69.59 43.3299C69.96 43.3299 70.26 43.0299 70.26 42.8699V37.7899H72.04C72.47 37.7899 72.69 37.5699 72.69 37.2899C72.69 37.0099 72.48 36.7899 72.21 36.7899Z" fill="#EFE8DD" stroke="black" stroke-width="0.25" stroke-miterlimit="10"/>
<path d="M72.21 36.7899H70.27V35.7999C70.27 35.2199 69.97 34.9199 69.6 34.9199C69.23 34.9199 68.93 35.2199 68.93 35.5899V36.7899H66.99C66.72 36.7899 66.49 37.0099 66.49 37.2899C66.49 37.5699 66.71 37.7899 66.83 37.7899H68.92V42.6599C68.92 43.0299 69.22 43.3299 69.59 43.3299C69.96 43.3299 70.26 43.0299 70.26 42.8699V37.7899H72.04C72.47 37.7899 72.69 37.5699 72.69 37.2899C72.69 37.0099 72.48 36.7899 72.21 36.7899Z" stroke="black" stroke-width="0.25" stroke-miterlimit="10"/>
<path d="M67.9498 42.03L58.5898 61.09H69.6198H80.6498L71.2898 42.03C70.5998 40.65 68.6298 40.65 67.9498 42.03Z" fill="#FCA3BE" stroke="black" stroke-width="0.25" stroke-miterlimit="10"/>
<path d="M67.9498 42.03L58.5898 61.09H69.6198H80.6498L71.2898 42.03C70.5998 40.65 68.6298 40.65 67.9498 42.03Z" stroke="black" stroke-width="0.25" stroke-miterlimit="10"/>
<path d="M80.7598 56.54H58.5898V111.78H80.7598V56.54Z" fill="#FCA3BE" stroke="black" stroke-width="0.25" stroke-miterlimit="10"/>
<path d="M80.7598 56.54H58.5898V111.78H80.7598V56.54Z" stroke="black" stroke-width="0.25" stroke-miterlimit="10"/>
<path d="M80.7598 112.84H58.5898V101.77C58.5898 95.6499 63.5498 90.6899 69.6698 90.6899C75.7898 90.6899 80.7498 95.6499 80.7498 101.77V112.84H80.7598Z" fill="#F66E4E" stroke="black" stroke-width="0.25" stroke-miterlimit="10"/>
<path d="M80.7598 112.84H58.5898V101.77C58.5898 95.6499 63.5498 90.6899 69.6698 90.6899C75.7898 90.6899 80.7498 95.6499 80.7498 101.77V112.84H80.7598Z" stroke="black" stroke-width="0.25" stroke-miterlimit="10"/>
<path d="M78.9999 112.84H60.4199V101.85C60.4199 96.7199 64.5799 92.5599 69.7099 92.5599C74.8399 92.5599 78.9999 96.7199 78.9999 101.85V112.84Z" fill="#FCA3BE" stroke="black" stroke-width="0.25" stroke-miterlimit="10"/>
<path d="M78.9999 112.84H60.4199V101.85C60.4199 96.7199 64.5799 92.5599 69.7099 92.5599C74.8399 92.5599 78.9999 96.7199 78.9999 101.85V112.84Z" stroke="black" stroke-width="0.25" stroke-miterlimit="10"/>
<path d="M77.1699 112.84H62.1699V101.94C62.1699 97.7999 65.5299 94.4399 69.6699 94.4399C73.8099 94.4399 77.1699 97.7999 77.1699 101.94V112.84Z" fill="#F66E4E" stroke="black" stroke-width="0.25" stroke-miterlimit="10"/>
<path d="M77.1699 112.84H62.1699V101.94C62.1699 97.7999 65.5299 94.4399 69.6699 94.4399C73.8099 94.4399 77.1699 97.7999 77.1699 101.94V112.84Z" stroke="black" stroke-width="0.25" stroke-miterlimit="10"/>
<path d="M75.38 112.84H63.97V102.02C63.97 98.8699 66.52 96.3199 69.67 96.3199C72.82 96.3199 75.37 98.8699 75.37 102.02V112.84H75.38Z" fill="#FCA3BE" stroke="black" stroke-width="0.25" stroke-miterlimit="10"/>
<path d="M75.38 112.84H63.97V102.02C63.97 98.8699 66.52 96.3199 69.67 96.3199C72.82 96.3199 75.37 98.8699 75.37 102.02V112.84H75.38Z" stroke="black" stroke-width="0.25" stroke-miterlimit="10"/>
<path d="M78.13 76.04H61.22V67.6C61.22 62.93 65.01 59.15 69.67 59.15C74.34 59.15 78.12 62.94 78.12 67.6V76.04H78.13Z" fill="#FCA3BE" stroke="black" stroke-width="0.25" stroke-miterlimit="10"/>
<path d="M78.13 76.04H61.22V67.6C61.22 62.93 65.01 59.15 69.67 59.15C74.34 59.15 78.12 62.94 78.12 67.6V76.04H78.13Z" stroke="black" stroke-width="0.25" stroke-miterlimit="10"/>
<path d="M76.7899 76.0399H62.6199V67.6599C62.6199 63.7499 65.7899 60.5699 69.7099 60.5699C73.6199 60.5699 76.7999 63.7399 76.7999 67.6599V76.0399H76.7899Z" fill="#F66E4E" stroke="black" stroke-width="0.25" stroke-miterlimit="10"/>
<path d="M76.7899 76.0399H62.6199V67.6599C62.6199 63.7499 65.7899 60.5699 69.7099 60.5699C73.6199 60.5699 76.7999 63.7399 76.7999 67.6599V76.0399H76.7899Z" stroke="black" stroke-width="0.25" stroke-miterlimit="10"/>
<path d="M75.39 76.04H63.96V67.72C63.96 64.56 66.52 62 69.68 62C72.84 62 75.4 64.56 75.4 67.72V76.04H75.39Z" fill="#FCA3BE" stroke="black" stroke-width="0.25" stroke-miterlimit="10"/>
<path d="M75.39 76.04H63.96V67.72C63.96 64.56 66.52 62 69.68 62C72.84 62 75.4 64.56 75.4 67.72V76.04H75.39Z" stroke="black" stroke-width="0.25" stroke-miterlimit="10"/>
<path d="M74.0298 67.7899V76.0399H65.3298V67.7899C65.3298 65.3899 67.2798 63.4399 69.6798 63.4399C69.8998 63.4399 70.1098 63.4599 70.3198 63.4899C71.2598 63.6299 72.1098 64.0699 72.7498 64.7199C73.5398 65.4999 74.0298 66.5899 74.0298 67.7899Z" fill="#F66E4E" stroke="black" stroke-width="0.25" stroke-miterlimit="10"/>
<path d="M74.0298 67.7899V76.0399H65.3298V67.7899C65.3298 65.3899 67.2798 63.4399 69.6798 63.4399C69.8998 63.4399 70.1098 63.4599 70.3198 63.4899C71.2598 63.6299 72.1098 64.0699 72.7498 64.7199C73.5398 65.4999 74.0298 66.5899 74.0298 67.7899Z" stroke="black" stroke-width="0.25" stroke-miterlimit="10"/>
<path d="M74.0299 67.79V76.04H66.6199V67.79C66.6199 65.6 68.2299 63.8 70.3299 63.49C71.2699 63.63 72.1199 64.07 72.7599 64.72C73.5399 65.5 74.0299 66.59 74.0299 67.79Z" fill="#030303" stroke="black" stroke-width="0.25" stroke-miterlimit="10"/>
<path d="M74.0299 67.79V76.04H66.6199V67.79C66.6199 65.6 68.2299 63.8 70.3299 63.49C71.2699 63.63 72.1199 64.07 72.7599 64.72C73.5399 65.5 74.0299 66.59 74.0299 67.79Z" stroke="black" stroke-width="0.25" stroke-miterlimit="10"/>
<path d="M55.57 38.16H43.74V112.82H55.57V38.16Z" fill="#FCA3BE" stroke="black" stroke-width="0.25" stroke-miterlimit="10"/>
<path d="M55.57 38.16H43.74V112.82H55.57V38.16Z" stroke="black" stroke-width="0.25" stroke-miterlimit="10"/>
<path d="M43.9 99.19L46.16 94.58C47.61 91.63 51.81 91.59 53.3 94.52L55.38 98.6C55.5 98.83 55.56 99.08 55.56 99.34V112.82L43.73 112.9V99.9C43.74 99.66 43.79 99.41 43.9 99.19Z" fill="#FCA3BE" stroke="black" stroke-width="0.25" stroke-miterlimit="10"/>
<path d="M43.9 99.19L46.16 94.58C47.61 91.63 51.81 91.59 53.3 94.52L55.38 98.6C55.5 98.83 55.56 99.08 55.56 99.34V112.82L43.73 112.9V99.9C43.74 99.66 43.79 99.41 43.9 99.19Z" stroke="black" stroke-width="0.25" stroke-miterlimit="10"/>
<path d="M42.22 23.84C43.06 23.84 43.73 24.52 43.73 25.35V37.4C43.73 38.24 43.05 38.91 42.22 38.91C41.39 38.91 40.71 38.23 40.71 37.4V25.35C40.71 24.51 41.39 23.84 42.22 23.84Z" fill="#F66E4E" stroke="black" stroke-width="0.25" stroke-miterlimit="10"/>
<path d="M42.22 23.84C43.06 23.84 43.73 24.52 43.73 25.35V37.4C43.73 38.24 43.05 38.91 42.22 38.91C41.39 38.91 40.71 38.23 40.71 37.4V25.35C40.71 24.51 41.39 23.84 42.22 23.84Z" stroke="black" stroke-width="0.25" stroke-miterlimit="10"/>
<path d="M39.2001 55.8199C40.0401 55.8199 40.7101 56.4999 40.7101 57.3299V68.8199C40.7101 69.6599 40.0301 70.3299 39.2001 70.3299C38.3601 70.3299 37.6901 69.6499 37.6901 68.8199V57.3299C37.6801 56.4999 38.3601 55.8199 39.2001 55.8199Z" fill="#F66E4E" stroke="black" stroke-width="0.25" stroke-miterlimit="10"/>
<path d="M39.2001 55.8199C40.0401 55.8199 40.7101 56.4999 40.7101 57.3299V68.8199C40.7101 69.6599 40.0301 70.3299 39.2001 70.3299C38.3601 70.3299 37.6901 69.6499 37.6901 68.8199V57.3299C37.6801 56.4999 38.3601 55.8199 39.2001 55.8199Z" stroke="black" stroke-width="0.25" stroke-miterlimit="10"/>
<path d="M42.22 48.15C41.38 48.15 40.71 47.47 40.71 46.64V36.31C40.71 35.47 41.39 34.8 42.22 34.8C43.05 34.8 43.73 35.48 43.73 36.31V46.64C43.74 47.47 43.06 48.15 42.22 48.15Z" fill="#F66E4E" stroke="black" stroke-width="0.25" stroke-miterlimit="10"/>
<path d="M42.22 48.15C41.38 48.15 40.71 47.47 40.71 46.64V36.31C40.71 35.47 41.39 34.8 42.22 34.8C43.05 34.8 43.73 35.48 43.73 36.31V46.64C43.74 47.47 43.06 48.15 42.22 48.15Z" stroke="black" stroke-width="0.25" stroke-miterlimit="10"/>
<path d="M42.22 58.2099C41.38 58.2099 40.71 57.5299 40.71 56.6999V46.0699C40.71 45.2299 41.39 44.5599 42.22 44.5599C43.05 44.5599 43.73 45.2399 43.73 46.0699V56.6999C43.74 57.5399 43.06 58.2099 42.22 58.2099Z" fill="#F66E4E" stroke="black" stroke-width="0.25" stroke-miterlimit="10"/>
<path d="M42.22 58.2099C41.38 58.2099 40.71 57.5299 40.71 56.6999V46.0699C40.71 45.2299 41.39 44.5599 42.22 44.5599C43.05 44.5599 43.73 45.2399 43.73 46.0699V56.6999C43.74 57.5399 43.06 58.2099 42.22 58.2099Z" stroke="black" stroke-width="0.25" stroke-miterlimit="10"/>
<path d="M42.22 67.1999C41.38 67.1999 40.71 66.5199 40.71 65.6899V55.8299C40.71 54.9899 41.39 54.3199 42.22 54.3199C43.05 54.3199 43.73 54.9999 43.73 55.8299V65.6899C43.74 66.5299 43.06 67.1999 42.22 67.1999Z" fill="#F66E4E" stroke="black" stroke-width="0.25" stroke-miterlimit="10"/>
<path d="M42.22 67.1999C41.38 67.1999 40.71 66.5199 40.71 65.6899V55.8299C40.71 54.9899 41.39 54.3199 42.22 54.3199C43.05 54.3199 43.73 54.9999 43.73 55.8299V65.6899C43.74 66.5299 43.06 67.1999 42.22 67.1999Z" stroke="black" stroke-width="0.25" stroke-miterlimit="10"/>
<path d="M42.22 76.54C41.38 76.54 40.71 75.86 40.71 75.03V65.6C40.71 64.76 41.39 64.09 42.22 64.09C43.05 64.09 43.73 64.77 43.73 65.6V75.03C43.74 75.86 43.06 76.54 42.22 76.54Z" fill="#F66E4E" stroke="black" stroke-width="0.25" stroke-miterlimit="10"/>
<path d="M42.22 76.54C41.38 76.54 40.71 75.86 40.71 75.03V65.6C40.71 64.76 41.39 64.09 42.22 64.09C43.05 64.09 43.73 64.77 43.73 65.6V75.03C43.74 75.86 43.06 76.54 42.22 76.54Z" stroke="black" stroke-width="0.25" stroke-miterlimit="10"/>
<path d="M39.1999 79.7401C38.3599 79.7401 37.6899 79.06 37.6899 78.23V68.3C37.6899 67.46 38.3699 66.79 39.1999 66.79C40.0299 66.79 40.7099 67.47 40.7099 68.3V78.23C40.7099 79.06 40.0299 79.7401 39.1999 79.7401Z" fill="#F66E4E" stroke="black" stroke-width="0.25" stroke-miterlimit="10"/>
<path d="M39.1999 79.7401C38.3599 79.7401 37.6899 79.06 37.6899 78.23V68.3C37.6899 67.46 38.3699 66.79 39.1999 66.79C40.0299 66.79 40.7099 67.47 40.7099 68.3V78.23C40.7099 79.06 40.0299 79.7401 39.1999 79.7401Z" stroke="black" stroke-width="0.25" stroke-miterlimit="10"/>
<path d="M39.1999 89.72C38.3599 89.72 37.6899 89.0401 37.6899 88.2101V78.05C37.6899 77.21 38.3699 76.54 39.1999 76.54C40.0299 76.54 40.7099 77.22 40.7099 78.05V88.2101C40.7099 89.0401 40.0299 89.72 39.1999 89.72Z" fill="#F66E4E" stroke="black" stroke-width="0.25" stroke-miterlimit="10"/>
<path d="M39.1999 89.72C38.3599 89.72 37.6899 89.0401 37.6899 88.2101V78.05C37.6899 77.21 38.3699 76.54 39.1999 76.54C40.0299 76.54 40.7099 77.22 40.7099 78.05V88.2101C40.7099 89.0401 40.0299 89.72 39.1999 89.72Z" stroke="black" stroke-width="0.25" stroke-miterlimit="10"/>
<path d="M39.1999 99.1199C38.3599 99.1199 37.6899 98.4399 37.6899 97.6099V87.8199C37.6899 86.9799 38.3699 86.3099 39.1999 86.3099C40.0299 86.3099 40.7099 86.9899 40.7099 87.8199V97.6099C40.7099 98.4399 40.0299 99.1199 39.1999 99.1199Z" fill="#F66E4E" stroke="black" stroke-width="0.25" stroke-miterlimit="10"/>
<path d="M39.1999 99.1199C38.3599 99.1199 37.6899 98.4399 37.6899 97.6099V87.8199C37.6899 86.9799 38.3699 86.3099 39.1999 86.3099C40.0299 86.3099 40.7099 86.9899 40.7099 87.8199V97.6099C40.7099 98.4399 40.0299 99.1199 39.1999 99.1199Z" stroke="black" stroke-width="0.25" stroke-miterlimit="10"/>
<path d="M39.1999 108.95C38.3599 108.95 37.6899 108.27 37.6899 107.44V97.5799C37.6899 96.7399 38.3699 96.0699 39.1999 96.0699C40.0299 96.0699 40.7099 96.7499 40.7099 97.5799V107.44C40.7099 108.28 40.0299 108.95 39.1999 108.95Z" fill="#F66E4E" stroke="black" stroke-width="0.25" stroke-miterlimit="10"/>
<path d="M39.1999 108.95C38.3599 108.95 37.6899 108.27 37.6899 107.44V97.5799C37.6899 96.7399 38.3699 96.0699 39.1999 96.0699C40.0299 96.0699 40.7099 96.7499 40.7099 97.5799V107.44C40.7099 108.28 40.0299 108.95 39.1999 108.95Z" stroke="black" stroke-width="0.25" stroke-miterlimit="10"/>
<path d="M40.7099 112.82H37.6799V107.34C37.6799 106.5 38.3599 105.83 39.1899 105.83C40.0299 105.83 40.6999 106.51 40.6999 107.34V112.82H40.7099Z" fill="#F66E4E" stroke="black" stroke-width="0.25" stroke-miterlimit="10"/>
<path d="M40.7099 112.82H37.6799V107.34C37.6799 106.5 38.3599 105.83 39.1899 105.83C40.0299 105.83 40.6999 106.51 40.6999 107.34V112.82H40.7099Z" stroke="black" stroke-width="0.25" stroke-miterlimit="10"/>
<path d="M42.22 86.76C41.38 86.76 40.71 86.08 40.71 85.25V75.36C40.71 74.52 41.39 73.85 42.22 73.85C43.05 73.85 43.73 74.53 43.73 75.36V85.25C43.74 86.08 43.06 86.76 42.22 86.76Z" fill="#F66E4E" stroke="black" stroke-width="0.25" stroke-miterlimit="10"/>
<path d="M42.22 86.76C41.38 86.76 40.71 86.08 40.71 85.25V75.36C40.71 74.52 41.39 73.85 42.22 73.85C43.05 73.85 43.73 74.53 43.73 75.36V85.25C43.74 86.08 43.06 86.76 42.22 86.76Z" stroke="black" stroke-width="0.25" stroke-miterlimit="10"/>
<path d="M42.22 96.32C41.38 96.32 40.71 95.64 40.71 94.81V85.13C40.71 84.29 41.39 83.62 42.22 83.62C43.05 83.62 43.73 84.3 43.73 85.13V94.81C43.74 95.64 43.06 96.32 42.22 96.32Z" fill="#F66E4E" stroke="black" stroke-width="0.25" stroke-miterlimit="10"/>
<path d="M42.22 96.32C41.38 96.32 40.71 95.64 40.71 94.81V85.13C40.71 84.29 41.39 83.62 42.22 83.62C43.05 83.62 43.73 84.3 43.73 85.13V94.81C43.74 95.64 43.06 96.32 42.22 96.32Z" stroke="black" stroke-width="0.25" stroke-miterlimit="10"/>
<path d="M42.22 106.14C41.38 106.14 40.71 105.46 40.71 104.63V94.89C40.71 94.05 41.39 93.38 42.22 93.38C43.05 93.38 43.73 94.06 43.73 94.89V104.63C43.74 105.46 43.06 106.14 42.22 106.14Z" fill="#F66E4E" stroke="black" stroke-width="0.25" stroke-miterlimit="10"/>
<path d="M42.22 106.14C41.38 106.14 40.71 105.46 40.71 104.63V94.89C40.71 94.05 41.39 93.38 42.22 93.38C43.05 93.38 43.73 94.06 43.73 94.89V104.63C43.74 105.46 43.06 106.14 42.22 106.14Z" stroke="black" stroke-width="0.25" stroke-miterlimit="10"/>
<path d="M43.74 112.9H40.71V104.65C40.71 103.81 41.39 103.14 42.22 103.14C43.06 103.14 43.73 103.82 43.73 104.65V112.9H43.74Z" fill="#F66E4E" stroke="black" stroke-width="0.25" stroke-miterlimit="10"/>
<path d="M43.74 112.9H40.71V104.65C40.71 103.81 41.39 103.14 42.22 103.14C43.06 103.14 43.73 103.82 43.73 104.65V112.9H43.74Z" stroke="black" stroke-width="0.25" stroke-miterlimit="10"/>
<path d="M57.0599 23.78C57.8999 23.78 58.5699 24.46 58.5699 25.29V37.34C58.5699 38.18 57.8899 38.85 57.0599 38.85C56.2299 38.85 55.5499 38.17 55.5499 37.34V25.29C55.5399 24.46 56.2199 23.78 57.0599 23.78Z" fill="#F66E4E" stroke="black" stroke-width="0.25" stroke-miterlimit="10"/>
<path d="M57.0599 23.78C57.8999 23.78 58.5699 24.46 58.5699 25.29V37.34C58.5699 38.18 57.8899 38.85 57.0599 38.85C56.2299 38.85 55.5499 38.17 55.5499 37.34V25.29C55.5399 24.46 56.2199 23.78 57.0599 23.78Z" stroke="black" stroke-width="0.25" stroke-miterlimit="10"/>
<path d="M57.0601 48.09C56.2201 48.09 55.55 47.41 55.55 46.58V36.25C55.55 35.41 56.2301 34.74 57.0601 34.74C57.8901 34.74 58.57 35.42 58.57 36.25V46.58C58.57 47.42 57.8901 48.09 57.0601 48.09Z" fill="#F66E4E" stroke="black" stroke-width="0.25" stroke-miterlimit="10"/>
<path d="M57.0601 48.09C56.2201 48.09 55.55 47.41 55.55 46.58V36.25C55.55 35.41 56.2301 34.74 57.0601 34.74C57.8901 34.74 58.57 35.42 58.57 36.25V46.58C58.57 47.42 57.8901 48.09 57.0601 48.09Z" stroke="black" stroke-width="0.25" stroke-miterlimit="10"/>
<path d="M57.0601 58.16C56.2201 58.16 55.55 57.48 55.55 56.65V46.02C55.55 45.18 56.2301 44.51 57.0601 44.51C57.8901 44.51 58.57 45.19 58.57 46.02V56.65C58.57 57.48 57.8901 58.16 57.0601 58.16Z" fill="#F66E4E" stroke="black" stroke-width="0.25" stroke-miterlimit="10"/>
<path d="M57.0601 58.16C56.2201 58.16 55.55 57.48 55.55 56.65V46.02C55.55 45.18 56.2301 44.51 57.0601 44.51C57.8901 44.51 58.57 45.19 58.57 46.02V56.65C58.57 57.48 57.8901 58.16 57.0601 58.16Z" stroke="black" stroke-width="0.25" stroke-miterlimit="10"/>
<path d="M57.0601 67.15C56.2201 67.15 55.55 66.47 55.55 65.64V55.78C55.55 54.94 56.2301 54.27 57.0601 54.27C57.8901 54.27 58.57 54.95 58.57 55.78V65.64C58.57 66.47 57.8901 67.15 57.0601 67.15Z" fill="#F66E4E" stroke="black" stroke-width="0.25" stroke-miterlimit="10"/>
<path d="M57.0601 67.15C56.2201 67.15 55.55 66.47 55.55 65.64V55.78C55.55 54.94 56.2301 54.27 57.0601 54.27C57.8901 54.27 58.57 54.95 58.57 55.78V65.64C58.57 66.47 57.8901 67.15 57.0601 67.15Z" stroke="black" stroke-width="0.25" stroke-miterlimit="10"/>
<path d="M57.0601 76.48C56.2201 76.48 55.55 75.8 55.55 74.97V65.54C55.55 64.7 56.2301 64.03 57.0601 64.03C57.8901 64.03 58.57 64.71 58.57 65.54V74.97C58.57 75.8 57.8901 76.48 57.0601 76.48Z" fill="#F66E4E" stroke="black" stroke-width="0.25" stroke-miterlimit="10"/>
<path d="M57.0601 76.48C56.2201 76.48 55.55 75.8 55.55 74.97V65.54C55.55 64.7 56.2301 64.03 57.0601 64.03C57.8901 64.03 58.57 64.71 58.57 65.54V74.97C58.57 75.8 57.8901 76.48 57.0601 76.48Z" stroke="black" stroke-width="0.25" stroke-miterlimit="10"/>
<path d="M57.0601 86.7C56.2201 86.7 55.55 86.02 55.55 85.19V75.3C55.55 74.46 56.2301 73.79 57.0601 73.79C57.8901 73.79 58.57 74.47 58.57 75.3V85.19C58.57 86.03 57.8901 86.7 57.0601 86.7Z" fill="#F66E4E" stroke="black" stroke-width="0.25" stroke-miterlimit="10"/>
<path d="M57.0601 86.7C56.2201 86.7 55.55 86.02 55.55 85.19V75.3C55.55 74.46 56.2301 73.79 57.0601 73.79C57.8901 73.79 58.57 74.47 58.57 75.3V85.19C58.57 86.03 57.8901 86.7 57.0601 86.7Z" stroke="black" stroke-width="0.25" stroke-miterlimit="10"/>
<path d="M57.0601 96.2599C56.2201 96.2599 55.55 95.5799 55.55 94.7499V85.0699C55.55 84.2299 56.2301 83.5599 57.0601 83.5599C57.8901 83.5599 58.57 84.2399 58.57 85.0699V94.7499C58.57 95.5899 57.8901 96.2599 57.0601 96.2599Z" fill="#F66E4E" stroke="black" stroke-width="0.25" stroke-miterlimit="10"/>
<path d="M57.0601 96.2599C56.2201 96.2599 55.55 95.5799 55.55 94.7499V85.0699C55.55 84.2299 56.2301 83.5599 57.0601 83.5599C57.8901 83.5599 58.57 84.2399 58.57 85.0699V94.7499C58.57 95.5899 57.8901 96.2599 57.0601 96.2599Z" stroke="black" stroke-width="0.25" stroke-miterlimit="10"/>
<path d="M57.0601 106.08C56.2201 106.08 55.55 105.4 55.55 104.57V94.8299C55.55 93.9899 56.2301 93.3199 57.0601 93.3199C57.8901 93.3199 58.57 93.9999 58.57 94.8299V104.57C58.57 105.4 57.8901 106.08 57.0601 106.08Z" fill="#F66E4E" stroke="black" stroke-width="0.25" stroke-miterlimit="10"/>
<path d="M57.0601 106.08C56.2201 106.08 55.55 105.4 55.55 104.57V94.8299C55.55 93.9899 56.2301 93.3199 57.0601 93.3199C57.8901 93.3199 58.57 93.9999 58.57 94.8299V104.57C58.57 105.4 57.8901 106.08 57.0601 106.08Z" stroke="black" stroke-width="0.25" stroke-miterlimit="10"/>
<path d="M58.57 112.84H55.54V104.59C55.54 103.75 56.22 103.08 57.05 103.08C57.89 103.08 58.56 103.76 58.56 104.59V112.84H58.57Z" fill="#F66E4E" stroke="black" stroke-width="0.25" stroke-miterlimit="10"/>
<path d="M58.57 112.84H55.54V104.59C55.54 103.75 56.22 103.08 57.05 103.08C57.89 103.08 58.56 103.76 58.56 104.59V112.84H58.57Z" stroke="black" stroke-width="0.25" stroke-miterlimit="10"/>
<path d="M55.57 35.95H43.74V38.17H55.57V35.95Z" fill="#F66E4E" stroke="black" stroke-width="0.25" stroke-miterlimit="10"/>
<path d="M55.57 35.95H43.74V38.17H55.57V35.95Z" stroke="black" stroke-width="0.25" stroke-miterlimit="10"/>
<path d="M46.4999 37.05C46.4999 36.46 46.0299 35.99 45.4399 35.99C44.8499 35.99 44.3799 36.46 44.3799 37.05C44.3799 37.64 44.8499 38.11 45.4399 38.11C46.0199 38.11 46.4999 37.64 46.4999 37.05Z" fill="#EFE8DD" stroke="black" stroke-width="0.25" stroke-miterlimit="10"/>
<path d="M46.4999 37.05C46.4999 36.46 46.0299 35.99 45.4399 35.99C44.8499 35.99 44.3799 36.46 44.3799 37.05C44.3799 37.64 44.8499 38.11 45.4399 38.11C46.0199 38.11 46.4999 37.64 46.4999 37.05Z" stroke="black" stroke-width="0.25" stroke-miterlimit="10"/>
<path d="M48.62 37.05C48.62 36.46 48.15 35.99 47.56 35.99C46.97 35.99 46.5 36.46 46.5 37.05C46.5 37.64 46.97 38.11 47.56 38.11C48.14 38.11 48.62 37.64 48.62 37.05Z" fill="#EFE8DD" stroke="black" stroke-width="0.25" stroke-miterlimit="10"/>
<path d="M48.62 37.05C48.62 36.46 48.15 35.99 47.56 35.99C46.97 35.99 46.5 36.46 46.5 37.05C46.5 37.64 46.97 38.11 47.56 38.11C48.14 38.11 48.62 37.64 48.62 37.05Z" stroke="black" stroke-width="0.25" stroke-miterlimit="10"/>
<path d="M50.7399 37.05C50.7399 36.46 50.2699 35.99 49.6799 35.99C49.0899 35.99 48.6199 36.46 48.6199 37.05C48.6199 37.64 49.0899 38.11 49.6799 38.11C50.2599 38.11 50.7399 37.64 50.7399 37.05Z" fill="#EFE8DD" stroke="black" stroke-width="0.25" stroke-miterlimit="10"/>
<path d="M50.7399 37.05C50.7399 36.46 50.2699 35.99 49.6799 35.99C49.0899 35.99 48.6199 36.46 48.6199 37.05C48.6199 37.64 49.0899 38.11 49.6799 38.11C50.2599 38.11 50.7399 37.64 50.7399 37.05Z" stroke="black" stroke-width="0.25" stroke-miterlimit="10"/>
<path d="M52.86 37.05C52.86 36.46 52.39 35.99 51.8 35.99C51.21 35.99 50.74 36.46 50.74 37.05C50.74 37.64 51.21 38.11 51.8 38.11C52.38 38.11 52.86 37.64 52.86 37.05Z" fill="#EFE8DD" stroke="black" stroke-width="0.25" stroke-miterlimit="10"/>
<path d="M52.86 37.05C52.86 36.46 52.39 35.99 51.8 35.99C51.21 35.99 50.74 36.46 50.74 37.05C50.74 37.64 51.21 38.11 51.8 38.11C52.38 38.11 52.86 37.64 52.86 37.05Z" stroke="black" stroke-width="0.25" stroke-miterlimit="10"/>
<path d="M54.9799 37.05C54.9799 36.46 54.5099 35.99 53.9199 35.99C53.3299 35.99 52.8599 36.46 52.8599 37.05C52.8599 37.64 53.3299 38.11 53.9199 38.11C54.4999 38.11 54.9799 37.64 54.9799 37.05Z" fill="#EFE8DD" stroke="black" stroke-width="0.25" stroke-miterlimit="10"/>
<path d="M54.9799 37.05C54.9799 36.46 54.5099 35.99 53.9199 35.99C53.3299 35.99 52.8599 36.46 52.8599 37.05C52.8599 37.64 53.3299 38.11 53.9199 38.11C54.4999 38.11 54.9799 37.64 54.9799 37.05Z" stroke="black" stroke-width="0.25" stroke-miterlimit="10"/>
<path d="M55.57 55.01H43.74V57.23H55.57V55.01Z" fill="#F66E4E" stroke="black" stroke-width="0.25" stroke-miterlimit="10"/>
<path d="M55.57 55.01H43.74V57.23H55.57V55.01Z" stroke="black" stroke-width="0.25" stroke-miterlimit="10"/>
<path d="M46.4999 56.1199C46.4999 55.5299 46.0299 55.0599 45.4399 55.0599C44.8499 55.0599 44.3799 55.5299 44.3799 56.1199C44.3799 56.7099 44.8499 57.1799 45.4399 57.1799C46.0199 57.1799 46.4999 56.7099 46.4999 56.1199Z" fill="#EFE8DD" stroke="black" stroke-width="0.25" stroke-miterlimit="10"/>
<path d="M46.4999 56.1199C46.4999 55.5299 46.0299 55.0599 45.4399 55.0599C44.8499 55.0599 44.3799 55.5299 44.3799 56.1199C44.3799 56.7099 44.8499 57.1799 45.4399 57.1799C46.0199 57.1799 46.4999 56.7099 46.4999 56.1199Z" stroke="black" stroke-width="0.25" stroke-miterlimit="10"/>
<path d="M48.62 56.1199C48.62 55.5299 48.15 55.0599 47.56 55.0599C46.97 55.0599 46.5 55.5299 46.5 56.1199C46.5 56.7099 46.97 57.1799 47.56 57.1799C48.14 57.1799 48.62 56.7099 48.62 56.1199Z" fill="#EFE8DD" stroke="black" stroke-width="0.25" stroke-miterlimit="10"/>
<path d="M48.62 56.1199C48.62 55.5299 48.15 55.0599 47.56 55.0599C46.97 55.0599 46.5 55.5299 46.5 56.1199C46.5 56.7099 46.97 57.1799 47.56 57.1799C48.14 57.1799 48.62 56.7099 48.62 56.1199Z" stroke="black" stroke-width="0.25" stroke-miterlimit="10"/>
<path d="M50.7399 56.1199C50.7399 55.5299 50.2699 55.0599 49.6799 55.0599C49.0899 55.0599 48.6199 55.5299 48.6199 56.1199C48.6199 56.7099 49.0899 57.1799 49.6799 57.1799C50.2599 57.1799 50.7399 56.7099 50.7399 56.1199Z" fill="#EFE8DD" stroke="black" stroke-width="0.25" stroke-miterlimit="10"/>
<path d="M50.7399 56.1199C50.7399 55.5299 50.2699 55.0599 49.6799 55.0599C49.0899 55.0599 48.6199 55.5299 48.6199 56.1199C48.6199 56.7099 49.0899 57.1799 49.6799 57.1799C50.2599 57.1799 50.7399 56.7099 50.7399 56.1199Z" stroke="black" stroke-width="0.25" stroke-miterlimit="10"/>
<path d="M52.86 56.1199C52.86 55.5299 52.39 55.0599 51.8 55.0599C51.21 55.0599 50.74 55.5299 50.74 56.1199C50.74 56.7099 51.21 57.1799 51.8 57.1799C52.38 57.1799 52.86 56.7099 52.86 56.1199Z" fill="#EFE8DD" stroke="black" stroke-width="0.25" stroke-miterlimit="10"/>
<path d="M52.86 56.1199C52.86 55.5299 52.39 55.0599 51.8 55.0599C51.21 55.0599 50.74 55.5299 50.74 56.1199C50.74 56.7099 51.21 57.1799 51.8 57.1799C52.38 57.1799 52.86 56.7099 52.86 56.1199Z" stroke="black" stroke-width="0.25" stroke-miterlimit="10"/>
<path d="M54.9799 56.1199C54.9799 55.5299 54.5099 55.0599 53.9199 55.0599C53.3299 55.0599 52.8599 55.5299 52.8599 56.1199C52.8599 56.7099 53.3299 57.1799 53.9199 57.1799C54.4999 57.1799 54.9799 56.7099 54.9799 56.1199Z" fill="#EFE8DD" stroke="black" stroke-width="0.25" stroke-miterlimit="10"/>
<path d="M54.9799 56.1199C54.9799 55.5299 54.5099 55.0599 53.9199 55.0599C53.3299 55.0599 52.8599 55.5299 52.8599 56.1199C52.8599 56.7099 53.3299 57.1799 53.9199 57.1799C54.4999 57.1799 54.9799 56.7099 54.9799 56.1199Z" stroke="black" stroke-width="0.25" stroke-miterlimit="10"/>
<path d="M55.57 82.5H43.74V84.72H55.57V82.5Z" fill="#F66E4E" stroke="black" stroke-width="0.25" stroke-miterlimit="10"/>
<path d="M55.57 82.5H43.74V84.72H55.57V82.5Z" stroke="black" stroke-width="0.25" stroke-miterlimit="10"/>
<path d="M46.4999 83.61C46.4999 83.02 46.0299 82.55 45.4399 82.55C44.8499 82.55 44.3799 83.02 44.3799 83.61C44.3799 84.2 44.8499 84.67 45.4399 84.67C46.0199 84.67 46.4999 84.2 46.4999 83.61Z" fill="#EFE8DD" stroke="black" stroke-width="0.25" stroke-miterlimit="10"/>
<path d="M46.4999 83.61C46.4999 83.02 46.0299 82.55 45.4399 82.55C44.8499 82.55 44.3799 83.02 44.3799 83.61C44.3799 84.2 44.8499 84.67 45.4399 84.67C46.0199 84.67 46.4999 84.2 46.4999 83.61Z" stroke="black" stroke-width="0.25" stroke-miterlimit="10"/>
<path d="M48.62 83.61C48.62 83.02 48.15 82.55 47.56 82.55C46.97 82.55 46.5 83.02 46.5 83.61C46.5 84.2 46.97 84.67 47.56 84.67C48.14 84.67 48.62 84.2 48.62 83.61Z" fill="#EFE8DD" stroke="black" stroke-width="0.25" stroke-miterlimit="10"/>
<path d="M48.62 83.61C48.62 83.02 48.15 82.55 47.56 82.55C46.97 82.55 46.5 83.02 46.5 83.61C46.5 84.2 46.97 84.67 47.56 84.67C48.14 84.67 48.62 84.2 48.62 83.61Z" stroke="black" stroke-width="0.25" stroke-miterlimit="10"/>
<path d="M50.7399 83.61C50.7399 83.02 50.2699 82.55 49.6799 82.55C49.0899 82.55 48.6199 83.02 48.6199 83.61C48.6199 84.2 49.0899 84.67 49.6799 84.67C50.2599 84.67 50.7399 84.2 50.7399 83.61Z" fill="#EFE8DD" stroke="black" stroke-width="0.25" stroke-miterlimit="10"/>
<path d="M50.7399 83.61C50.7399 83.02 50.2699 82.55 49.6799 82.55C49.0899 82.55 48.6199 83.02 48.6199 83.61C48.6199 84.2 49.0899 84.67 49.6799 84.67C50.2599 84.67 50.7399 84.2 50.7399 83.61Z" stroke="black" stroke-width="0.25" stroke-miterlimit="10"/>
<path d="M52.86 83.61C52.86 83.02 52.39 82.55 51.8 82.55C51.21 82.55 50.74 83.02 50.74 83.61C50.74 84.2 51.21 84.67 51.8 84.67C52.38 84.67 52.86 84.2 52.86 83.61Z" fill="#EFE8DD" stroke="black" stroke-width="0.25" stroke-miterlimit="10"/>
<path d="M52.86 83.61C52.86 83.02 52.39 82.55 51.8 82.55C51.21 82.55 50.74 83.02 50.74 83.61C50.74 84.2 51.21 84.67 51.8 84.67C52.38 84.67 52.86 84.2 52.86 83.61Z" stroke="black" stroke-width="0.25" stroke-miterlimit="10"/>
<path d="M54.9799 83.61C54.9799 83.02 54.5099 82.55 53.9199 82.55C53.3299 82.55 52.8599 83.02 52.8599 83.61C52.8599 84.2 53.3299 84.67 53.9199 84.67C54.4999 84.67 54.9799 84.2 54.9799 83.61Z" fill="#EFE8DD" stroke="black" stroke-width="0.25" stroke-miterlimit="10"/>
<path d="M54.9799 83.61C54.9799 83.02 54.5099 82.55 53.9199 82.55C53.3299 82.55 52.8599 83.02 52.8599 83.61C52.8599 84.2 53.3299 84.67 53.9199 84.67C54.4999 84.67 54.9799 84.2 54.9799 83.61Z" stroke="black" stroke-width="0.25" stroke-miterlimit="10"/>
<path d="M48.9499 87.3V90.93H45.9199V87.3C45.9199 86.46 46.5999 85.79 47.4299 85.79C47.5399 85.79 47.6399 85.8001 47.7399 85.8201C48.4299 85.9601 48.9499 86.57 48.9499 87.3Z" fill="#F66E4E" stroke="black" stroke-width="0.25" stroke-miterlimit="10"/>
<path d="M48.9499 87.3V90.93H45.9199V87.3C45.9199 86.46 46.5999 85.79 47.4299 85.79C47.5399 85.79 47.6399 85.8001 47.7399 85.8201C48.4299 85.9601 48.9499 86.57 48.9499 87.3Z" stroke="black" stroke-width="0.25" stroke-miterlimit="10"/>
<path d="M48.95 87.2999V90.9299H46.54V87.2999C46.54 86.5699 47.06 85.9599 47.75 85.8199C48.43 85.9599 48.95 86.5699 48.95 87.2999Z" fill="#030303" stroke="black" stroke-width="0.25" stroke-miterlimit="10"/>
<path d="M48.95 87.2999V90.9299H46.54V87.2999C46.54 86.5699 47.06 85.9599 47.75 85.8199C48.43 85.9599 48.95 86.5699 48.95 87.2999Z" stroke="black" stroke-width="0.25" stroke-miterlimit="10"/>
<path d="M53.55 87.3V90.93H50.52V87.3C50.52 86.46 51.2 85.79 52.03 85.79C52.14 85.79 52.24 85.8001 52.34 85.8201C53.03 85.9601 53.55 86.57 53.55 87.3Z" fill="#F66E4E" stroke="black" stroke-width="0.25" stroke-miterlimit="10"/>
<path d="M53.55 87.3V90.93H50.52V87.3C50.52 86.46 51.2 85.79 52.03 85.79C52.14 85.79 52.24 85.8001 52.34 85.8201C53.03 85.9601 53.55 86.57 53.55 87.3Z" stroke="black" stroke-width="0.25" stroke-miterlimit="10"/>
<path d="M53.5499 87.2999V90.9299H51.1399V87.2999C51.1399 86.5699 51.6599 85.9599 52.3499 85.8199C53.0299 85.9599 53.5499 86.5699 53.5499 87.2999Z" fill="#030303" stroke="black" stroke-width="0.25" stroke-miterlimit="10"/>
<path d="M53.5499 87.2999V90.9299H51.1399V87.2999C51.1399 86.5699 51.6599 85.9599 52.3499 85.8199C53.0299 85.9599 53.5499 86.5699 53.5499 87.2999Z" stroke="black" stroke-width="0.25" stroke-miterlimit="10"/>
<path d="M48.05 59.3599V69.8699H45.49V59.3599C45.49 58.7099 46.02 58.1799 46.67 58.1799H46.86C46.96 58.1799 47.06 58.1899 47.16 58.2199C47.67 58.3399 48.05 58.8099 48.05 59.3599Z" fill="#F66E4E" stroke="black" stroke-width="0.25" stroke-miterlimit="10"/>
<path d="M48.05 59.3599V69.8699H45.49V59.3599C45.49 58.7099 46.02 58.1799 46.67 58.1799H46.86C46.96 58.1799 47.06 58.1899 47.16 58.2199C47.67 58.3399 48.05 58.8099 48.05 59.3599Z" stroke="black" stroke-width="0.25" stroke-miterlimit="10"/>
<path d="M48.05 59.36V69.8699H46.28V59.36C46.28 58.81 46.66 58.35 47.17 58.21C47.67 58.34 48.05 58.81 48.05 59.36Z" fill="#030303" stroke="black" stroke-width="0.25" stroke-miterlimit="10"/>
<path d="M48.05 59.36V69.8699H46.28V59.36C46.28 58.81 46.66 58.35 47.17 58.21C47.67 58.34 48.05 58.81 48.05 59.36Z" stroke="black" stroke-width="0.25" stroke-miterlimit="10"/>
<path d="M53.08 59.3599V69.8699H50.52V59.3599C50.52 58.7099 51.05 58.1799 51.7 58.1799H51.89C51.99 58.1799 52.09 58.1899 52.19 58.2199C52.7 58.3399 53.08 58.8099 53.08 59.3599Z" fill="#F66E4E" stroke="black" stroke-width="0.25" stroke-miterlimit="10"/>
<path d="M53.08 59.3599V69.8699H50.52V59.3599C50.52 58.7099 51.05 58.1799 51.7 58.1799H51.89C51.99 58.1799 52.09 58.1899 52.19 58.2199C52.7 58.3399 53.08 58.8099 53.08 59.3599Z" stroke="black" stroke-width="0.25" stroke-miterlimit="10"/>
<path d="M53.0801 59.36V69.8699H51.3V59.36C51.3 58.81 51.68 58.35 52.19 58.21C52.7 58.34 53.0801 58.81 53.0801 59.36Z" fill="#030303" stroke="black" stroke-width="0.25" stroke-miterlimit="10"/>
<path d="M53.0801 59.36V69.8699H51.3V59.36C51.3 58.81 51.68 58.35 52.19 58.21C52.7 58.34 53.0801 58.81 53.0801 59.36Z" stroke="black" stroke-width="0.25" stroke-miterlimit="10"/>
<path d="M48.05 71.9999V82.5099H45.49V71.9999C45.49 71.3499 46.02 70.8199 46.67 70.8199H46.86C46.96 70.8199 47.06 70.8299 47.16 70.8599C47.67 70.9799 48.05 71.4499 48.05 71.9999Z" fill="#F66E4E" stroke="black" stroke-width="0.25" stroke-miterlimit="10"/>
<path d="M48.05 71.9999V82.5099H45.49V71.9999C45.49 71.3499 46.02 70.8199 46.67 70.8199H46.86C46.96 70.8199 47.06 70.8299 47.16 70.8599C47.67 70.9799 48.05 71.4499 48.05 71.9999Z" stroke="black" stroke-width="0.25" stroke-miterlimit="10"/>
<path d="M48.05 72V82.51H46.28V72C46.28 71.45 46.66 70.99 47.17 70.85C47.67 70.98 48.05 71.45 48.05 72Z" fill="#030303" stroke="black" stroke-width="0.25" stroke-miterlimit="10"/>
<path d="M48.05 72V82.51H46.28V72C46.28 71.45 46.66 70.99 47.17 70.85C47.67 70.98 48.05 71.45 48.05 72Z" stroke="black" stroke-width="0.25" stroke-miterlimit="10"/>
<path d="M53.08 71.9999V82.5099H50.52V71.9999C50.52 71.3499 51.05 70.8199 51.7 70.8199H51.89C51.99 70.8199 52.09 70.8299 52.19 70.8599C52.7 70.9799 53.08 71.4499 53.08 71.9999Z" fill="#F66E4E" stroke="black" stroke-width="0.25" stroke-miterlimit="10"/>
<path d="M53.08 71.9999V82.5099H50.52V71.9999C50.52 71.3499 51.05 70.8199 51.7 70.8199H51.89C51.99 70.8199 52.09 70.8299 52.19 70.8599C52.7 70.9799 53.08 71.4499 53.08 71.9999Z" stroke="black" stroke-width="0.25" stroke-miterlimit="10"/>
<path d="M53.0801 72V82.51H51.3V72C51.3 71.45 51.68 70.99 52.19 70.85C52.7 70.98 53.0801 71.45 53.0801 72Z" fill="#030303" stroke="black" stroke-width="0.25" stroke-miterlimit="10"/>
<path d="M53.0801 72V82.51H51.3V72C51.3 71.45 51.68 70.99 52.19 70.85C52.7 70.98 53.0801 71.45 53.0801 72Z" stroke="black" stroke-width="0.25" stroke-miterlimit="10"/>
<path d="M55.9 71.0199H43.51C43.21 71.0199 42.97 70.7799 42.97 70.4799C42.97 70.1799 43.21 69.9399 43.51 69.9399H55.9C56.2 69.9399 56.44 70.1799 56.44 70.4799C56.44 70.7799 56.2 71.0199 55.9 71.0199Z" fill="#F66E4E" stroke="black" stroke-width="0.25" stroke-miterlimit="10"/>
<path d="M55.9 71.0199H43.51C43.21 71.0199 42.97 70.7799 42.97 70.4799C42.97 70.1799 43.21 69.9399 43.51 69.9399H55.9C56.2 69.9399 56.44 70.1799 56.44 70.4799C56.44 70.7799 56.2 71.0199 55.9 71.0199Z" stroke="black" stroke-width="0.25" stroke-miterlimit="10"/>
<path d="M52.9299 45.0699V54.9999H46.4299V45.0699C46.4299 43.2699 47.8799 41.8199 49.6799 41.8199C49.8199 41.8199 49.9599 41.8299 50.0999 41.8499C51.6899 42.0499 52.9299 43.4199 52.9299 45.0699Z" fill="#F66E4E" stroke="black" stroke-width="0.25" stroke-miterlimit="10"/>
<path d="M52.9299 45.0699V54.9999H46.4299V45.0699C46.4299 43.2699 47.8799 41.8199 49.6799 41.8199C49.8199 41.8199 49.9599 41.8299 50.0999 41.8499C51.6899 42.0499 52.9299 43.4199 52.9299 45.0699Z" stroke="black" stroke-width="0.25" stroke-miterlimit="10"/>
<path d="M52.93 45.07V55H47.27V45.07C47.27 43.42 48.5 42.05 50.1 41.85C51.69 42.05 52.93 43.42 52.93 45.07Z" fill="#030303" stroke="black" stroke-width="0.25" stroke-miterlimit="10"/>
<path d="M52.93 45.07V55H47.27V45.07C47.27 43.42 48.5 42.05 50.1 41.85C51.69 42.05 52.93 43.42 52.93 45.07Z" stroke="black" stroke-width="0.25" stroke-miterlimit="10"/>
<path d="M49.5199 97.13H49.7599C52.0499 97.13 53.9099 98.99 53.9099 101.28V112.74H45.3699V101.28C45.3699 98.99 47.2299 97.13 49.5199 97.13Z" fill="#F66E4E" stroke="black" stroke-width="0.25" stroke-miterlimit="10"/>
<path d="M49.5199 97.13H49.7599C52.0499 97.13 53.9099 98.99 53.9099 101.28V112.74H45.3699V101.28C45.3699 98.99 47.2299 97.13 49.5199 97.13Z" stroke="black" stroke-width="0.25" stroke-miterlimit="10"/>
<path d="M49.68 97.79C51.73 97.79 53.39 99.45 53.39 101.5V112.82H45.97V101.5C45.97 99.45 47.63 97.79 49.68 97.79Z" fill="#EFE8DD" stroke="black" stroke-width="0.25" stroke-miterlimit="10"/>
<path d="M49.68 97.79C51.73 97.79 53.39 99.45 53.39 101.5V112.82H45.97V101.5C45.97 99.45 47.63 97.79 49.68 97.79Z" stroke="black" stroke-width="0.25" stroke-miterlimit="10"/>
<path d="M49.21 106.6H47.26V112.82H49.21V106.6Z" fill="#030303" stroke="black" stroke-width="0.25" stroke-miterlimit="10"/>
<path d="M49.21 106.6H47.26V112.82H49.21V106.6Z" stroke="black" stroke-width="0.25" stroke-miterlimit="10"/>
<path d="M52.1199 106.6H50.1699V112.82H52.1199V106.6Z" fill="#030303" stroke="black" stroke-width="0.25" stroke-miterlimit="10"/>
<path d="M52.1199 106.6H50.1699V112.82H52.1199V106.6Z" stroke="black" stroke-width="0.25" stroke-miterlimit="10"/>
<path d="M49.22 106.08H47.27V100.98C47.27 100.44 47.71 100 48.25 100C48.79 100 49.23 100.44 49.23 100.98V106.08H49.22Z" fill="#030303" stroke="black" stroke-width="0.25" stroke-miterlimit="10"/>
<path d="M49.22 106.08H47.27V100.98C47.27 100.44 47.71 100 48.25 100C48.79 100 49.23 100.44 49.23 100.98V106.08H49.22Z" stroke="black" stroke-width="0.25" stroke-miterlimit="10"/>
<path d="M52.1199 106.08H50.1699V100.98C50.1699 100.44 50.6099 100 51.1499 100C51.6899 100 52.1299 100.44 52.1299 100.98V106.08H52.1199Z" fill="#030303" stroke="black" stroke-width="0.25" stroke-miterlimit="10"/>
<path d="M52.1199 106.08H50.1699V100.98C50.1699 100.44 50.6099 100 51.1499 100C51.6899 100 52.1299 100.44 52.1299 100.98V106.08H52.1199Z" stroke="black" stroke-width="0.25" stroke-miterlimit="10"/>
<path d="M95.61 38.11H83.78V112.77H95.61V38.11Z" fill="#FCA3BE" stroke="black" stroke-width="0.25" stroke-miterlimit="10"/>
<path d="M95.61 38.11H83.78V112.77H95.61V38.11Z" stroke="black" stroke-width="0.25" stroke-miterlimit="10"/>
<path d="M95.45 99.13L93.19 94.5199C91.74 91.5699 87.54 91.53 86.05 94.46L83.97 98.54C83.85 98.77 83.79 99.02 83.79 99.28V112.76L95.62 112.84V99.84C95.61 99.6 95.55 99.36 95.45 99.13Z" fill="#FCA3BE" stroke="black" stroke-width="0.25" stroke-miterlimit="10"/>
<path d="M95.45 99.13L93.19 94.5199C91.74 91.5699 87.54 91.53 86.05 94.46L83.97 98.54C83.85 98.77 83.79 99.02 83.79 99.28V112.76L95.62 112.84V99.84C95.61 99.6 95.55 99.36 95.45 99.13Z" stroke="black" stroke-width="0.25" stroke-miterlimit="10"/>
<path d="M95.61 35.89H83.78V38.11H95.61V35.89Z" fill="#F66E4E" stroke="black" stroke-width="0.25" stroke-miterlimit="10"/>
<path d="M95.61 35.89H83.78V38.11H95.61V35.89Z" stroke="black" stroke-width="0.25" stroke-miterlimit="10"/>
<path d="M92.8499 36.9999C92.8499 36.4099 93.3199 35.9399 93.9099 35.9399C94.4999 35.9399 94.9699 36.4099 94.9699 36.9999C94.9699 37.5899 94.4999 38.0599 93.9099 38.0599C93.3299 38.0599 92.8499 37.5799 92.8499 36.9999Z" fill="#EFE8DD" stroke="black" stroke-width="0.25" stroke-miterlimit="10"/>
<path d="M92.8499 36.9999C92.8499 36.4099 93.3199 35.9399 93.9099 35.9399C94.4999 35.9399 94.9699 36.4099 94.9699 36.9999C94.9699 37.5899 94.4999 38.0599 93.9099 38.0599C93.3299 38.0599 92.8499 37.5799 92.8499 36.9999Z" stroke="black" stroke-width="0.25" stroke-miterlimit="10"/>
<path d="M90.73 36.9999C90.73 36.4099 91.2 35.9399 91.79 35.9399C92.38 35.9399 92.85 36.4099 92.85 36.9999C92.85 37.5899 92.38 38.0599 91.79 38.0599C91.21 38.0599 90.73 37.5799 90.73 36.9999Z" fill="#EFE8DD" stroke="black" stroke-width="0.25" stroke-miterlimit="10"/>
<path d="M90.73 36.9999C90.73 36.4099 91.2 35.9399 91.79 35.9399C92.38 35.9399 92.85 36.4099 92.85 36.9999C92.85 37.5899 92.38 38.0599 91.79 38.0599C91.21 38.0599 90.73 37.5799 90.73 36.9999Z" stroke="black" stroke-width="0.25" stroke-miterlimit="10"/>
<path d="M88.6099 36.9999C88.6099 36.4099 89.0799 35.9399 89.6699 35.9399C90.2599 35.9399 90.7299 36.4099 90.7299 36.9999C90.7299 37.5899 90.2599 38.0599 89.6699 38.0599C89.0899 38.0599 88.6099 37.5799 88.6099 36.9999Z" fill="#EFE8DD" stroke="black" stroke-width="0.25" stroke-miterlimit="10"/>
<path d="M88.6099 36.9999C88.6099 36.4099 89.0799 35.9399 89.6699 35.9399C90.2599 35.9399 90.7299 36.4099 90.7299 36.9999C90.7299 37.5899 90.2599 38.0599 89.6699 38.0599C89.0899 38.0599 88.6099 37.5799 88.6099 36.9999Z" stroke="black" stroke-width="0.25" stroke-miterlimit="10"/>
<path d="M86.49 36.9999C86.49 36.4099 86.96 35.9399 87.55 35.9399C88.14 35.9399 88.61 36.4099 88.61 36.9999C88.61 37.5899 88.14 38.0599 87.55 38.0599C86.97 38.0599 86.49 37.5799 86.49 36.9999Z" fill="#EFE8DD" stroke="black" stroke-width="0.25" stroke-miterlimit="10"/>
<path d="M86.49 36.9999C86.49 36.4099 86.96 35.9399 87.55 35.9399C88.14 35.9399 88.61 36.4099 88.61 36.9999C88.61 37.5899 88.14 38.0599 87.55 38.0599C86.97 38.0599 86.49 37.5799 86.49 36.9999Z" stroke="black" stroke-width="0.25" stroke-miterlimit="10"/>
<path d="M84.3699 36.9999C84.3699 36.4099 84.8399 35.9399 85.4299 35.9399C86.0199 35.9399 86.4899 36.4099 86.4899 36.9999C86.4899 37.5899 86.0199 38.0599 85.4299 38.0599C84.8499 38.0599 84.3699 37.5799 84.3699 36.9999Z" fill="#EFE8DD" stroke="black" stroke-width="0.25" stroke-miterlimit="10"/>
<path d="M84.3699 36.9999C84.3699 36.4099 84.8399 35.9399 85.4299 35.9399C86.0199 35.9399 86.4899 36.4099 86.4899 36.9999C86.4899 37.5899 86.0199 38.0599 85.4299 38.0599C84.8499 38.0599 84.3699 37.5799 84.3699 36.9999Z" stroke="black" stroke-width="0.25" stroke-miterlimit="10"/>
<path d="M95.61 54.95H83.78V57.17H95.61V54.95Z" fill="#F66E4E" stroke="black" stroke-width="0.25" stroke-miterlimit="10"/>
<path d="M95.61 54.95H83.78V57.17H95.61V54.95Z" stroke="black" stroke-width="0.25" stroke-miterlimit="10"/>
<path d="M92.8499 56.06C92.8499 55.47 93.3199 55 93.9099 55C94.4999 55 94.9699 55.47 94.9699 56.06C94.9699 56.65 94.4999 57.12 93.9099 57.12C93.3299 57.12 92.8499 56.65 92.8499 56.06Z" fill="#EFE8DD" stroke="black" stroke-width="0.25" stroke-miterlimit="10"/>
<path d="M92.8499 56.06C92.8499 55.47 93.3199 55 93.9099 55C94.4999 55 94.9699 55.47 94.9699 56.06C94.9699 56.65 94.4999 57.12 93.9099 57.12C93.3299 57.12 92.8499 56.65 92.8499 56.06Z" stroke="black" stroke-width="0.25" stroke-miterlimit="10"/>
<path d="M90.73 56.06C90.73 55.47 91.2 55 91.79 55C92.38 55 92.85 55.47 92.85 56.06C92.85 56.65 92.38 57.12 91.79 57.12C91.21 57.12 90.73 56.65 90.73 56.06Z" fill="#EFE8DD" stroke="black" stroke-width="0.25" stroke-miterlimit="10"/>
<path d="M90.73 56.06C90.73 55.47 91.2 55 91.79 55C92.38 55 92.85 55.47 92.85 56.06C92.85 56.65 92.38 57.12 91.79 57.12C91.21 57.12 90.73 56.65 90.73 56.06Z" stroke="black" stroke-width="0.25" stroke-miterlimit="10"/>
<path d="M88.6099 56.06C88.6099 55.47 89.0799 55 89.6699 55C90.2599 55 90.7299 55.47 90.7299 56.06C90.7299 56.65 90.2599 57.12 89.6699 57.12C89.0899 57.12 88.6099 56.65 88.6099 56.06Z" fill="#EFE8DD" stroke="black" stroke-width="0.25" stroke-miterlimit="10"/>
<path d="M88.6099 56.06C88.6099 55.47 89.0799 55 89.6699 55C90.2599 55 90.7299 55.47 90.7299 56.06C90.7299 56.65 90.2599 57.12 89.6699 57.12C89.0899 57.12 88.6099 56.65 88.6099 56.06Z" stroke="black" stroke-width="0.25" stroke-miterlimit="10"/>
<path d="M86.49 56.06C86.49 55.47 86.96 55 87.55 55C88.14 55 88.61 55.47 88.61 56.06C88.61 56.65 88.14 57.12 87.55 57.12C86.97 57.12 86.49 56.65 86.49 56.06Z" fill="#EFE8DD" stroke="black" stroke-width="0.25" stroke-miterlimit="10"/>
<path d="M86.49 56.06C86.49 55.47 86.96 55 87.55 55C88.14 55 88.61 55.47 88.61 56.06C88.61 56.65 88.14 57.12 87.55 57.12C86.97 57.12 86.49 56.65 86.49 56.06Z" stroke="black" stroke-width="0.25" stroke-miterlimit="10"/>
<path d="M84.3699 56.06C84.3699 55.47 84.8399 55 85.4299 55C86.0199 55 86.4899 55.47 86.4899 56.06C86.4899 56.65 86.0199 57.12 85.4299 57.12C84.8499 57.12 84.3699 56.65 84.3699 56.06Z" fill="#EFE8DD" stroke="black" stroke-width="0.25" stroke-miterlimit="10"/>
<path d="M84.3699 56.06C84.3699 55.47 84.8399 55 85.4299 55C86.0199 55 86.4899 55.47 86.4899 56.06C86.4899 56.65 86.0199 57.12 85.4299 57.12C84.8499 57.12 84.3699 56.65 84.3699 56.06Z" stroke="black" stroke-width="0.25" stroke-miterlimit="10"/>
<path d="M95.61 82.45H83.78V84.67H95.61V82.45Z" fill="#F66E4E" stroke="black" stroke-width="0.25" stroke-miterlimit="10"/>
<path d="M95.61 82.45H83.78V84.67H95.61V82.45Z" stroke="black" stroke-width="0.25" stroke-miterlimit="10"/>
<path d="M92.8499 83.55C92.8499 82.96 93.3199 82.49 93.9099 82.49C94.4999 82.49 94.9699 82.96 94.9699 83.55C94.9699 84.14 94.4999 84.61 93.9099 84.61C93.3299 84.61 92.8499 84.14 92.8499 83.55Z" fill="#EFE8DD" stroke="black" stroke-width="0.25" stroke-miterlimit="10"/>
<path d="M92.8499 83.55C92.8499 82.96 93.3199 82.49 93.9099 82.49C94.4999 82.49 94.9699 82.96 94.9699 83.55C94.9699 84.14 94.4999 84.61 93.9099 84.61C93.3299 84.61 92.8499 84.14 92.8499 83.55Z" stroke="black" stroke-width="0.25" stroke-miterlimit="10"/>
<path d="M90.73 83.55C90.73 82.96 91.2 82.49 91.79 82.49C92.38 82.49 92.85 82.96 92.85 83.55C92.85 84.14 92.38 84.61 91.79 84.61C91.21 84.61 90.73 84.14 90.73 83.55Z" fill="#EFE8DD" stroke="black" stroke-width="0.25" stroke-miterlimit="10"/>
<path d="M90.73 83.55C90.73 82.96 91.2 82.49 91.79 82.49C92.38 82.49 92.85 82.96 92.85 83.55C92.85 84.14 92.38 84.61 91.79 84.61C91.21 84.61 90.73 84.14 90.73 83.55Z" stroke="black" stroke-width="0.25" stroke-miterlimit="10"/>
<path d="M88.6099 83.55C88.6099 82.96 89.0799 82.49 89.6699 82.49C90.2599 82.49 90.7299 82.96 90.7299 83.55C90.7299 84.14 90.2599 84.61 89.6699 84.61C89.0899 84.61 88.6099 84.14 88.6099 83.55Z" fill="#EFE8DD" stroke="black" stroke-width="0.25" stroke-miterlimit="10"/>
<path d="M88.6099 83.55C88.6099 82.96 89.0799 82.49 89.6699 82.49C90.2599 82.49 90.7299 82.96 90.7299 83.55C90.7299 84.14 90.2599 84.61 89.6699 84.61C89.0899 84.61 88.6099 84.14 88.6099 83.55Z" stroke="black" stroke-width="0.25" stroke-miterlimit="10"/>
<path d="M86.49 83.55C86.49 82.96 86.96 82.49 87.55 82.49C88.14 82.49 88.61 82.96 88.61 83.55C88.61 84.14 88.14 84.61 87.55 84.61C86.97 84.61 86.49 84.14 86.49 83.55Z" fill="#EFE8DD" stroke="black" stroke-width="0.25" stroke-miterlimit="10"/>
<path d="M86.49 83.55C86.49 82.96 86.96 82.49 87.55 82.49C88.14 82.49 88.61 82.96 88.61 83.55C88.61 84.14 88.14 84.61 87.55 84.61C86.97 84.61 86.49 84.14 86.49 83.55Z" stroke="black" stroke-width="0.25" stroke-miterlimit="10"/>
<path d="M84.3699 83.55C84.3699 82.96 84.8399 82.49 85.4299 82.49C86.0199 82.49 86.4899 82.96 86.4899 83.55C86.4899 84.14 86.0199 84.61 85.4299 84.61C84.8499 84.61 84.3699 84.14 84.3699 83.55Z" fill="#EFE8DD" stroke="black" stroke-width="0.25" stroke-miterlimit="10"/>
<path d="M84.3699 83.55C84.3699 82.96 84.8399 82.49 85.4299 82.49C86.0199 82.49 86.4899 82.96 86.4899 83.55C86.4899 84.14 86.0199 84.61 85.4299 84.61C84.8499 84.61 84.3699 84.14 84.3699 83.55Z" stroke="black" stroke-width="0.25" stroke-miterlimit="10"/>
<path d="M95.61 69.8099H83.78V70.7599H95.61V69.8099Z" fill="#F66E4E" stroke="black" stroke-width="0.25" stroke-miterlimit="10"/>
<path d="M95.61 69.8099H83.78V70.7599H95.61V69.8099Z" stroke="black" stroke-width="0.25" stroke-miterlimit="10"/>
<path d="M61.9898 45.6H58.5898V54.32H61.9898V45.6Z" fill="#F66E4E" stroke="black" stroke-width="0.25" stroke-miterlimit="10"/>
<path d="M61.9898 45.6H58.5898V54.32H61.9898V45.6Z" stroke="black" stroke-width="0.25" stroke-miterlimit="10"/>
<path d="M59.44 32.23C59.91 32.23 60.29 32.61 60.29 33.08V37.89C60.29 38.03 60.33 38.18 60.4 38.3L61.89 40.99C61.96 41.12 62 41.26 62 41.4V44.74C62 45.21 61.62 45.59 61.15 45.59H59.45C58.98 45.59 58.6 45.21 58.6 44.74V33.07C58.59 32.61 58.97 32.23 59.44 32.23Z" fill="#F66E4E" stroke="black" stroke-width="0.25" stroke-miterlimit="10"/>
<path d="M59.44 32.23C59.91 32.23 60.29 32.61 60.29 33.08V37.89C60.29 38.03 60.33 38.18 60.4 38.3L61.89 40.99C61.96 41.12 62 41.26 62 41.4V44.74C62 45.21 61.62 45.59 61.15 45.59H59.45C58.98 45.59 58.6 45.21 58.6 44.74V33.07C58.59 32.61 58.97 32.23 59.44 32.23Z" stroke="black" stroke-width="0.25" stroke-miterlimit="10"/>
<path d="M80.7699 45.88H77.3699V54.6H80.7699V45.88Z" fill="#F66E4E" stroke="black" stroke-width="0.25" stroke-miterlimit="10"/>
<path d="M80.7699 45.88H77.3699V54.6H80.7699V45.88Z" stroke="black" stroke-width="0.25" stroke-miterlimit="10"/>
<path d="M79.9199 32.5C79.4499 32.5 79.0699 32.88 79.0699 33.35V38.16C79.0699 38.3 79.0299 38.45 78.9599 38.57L77.4699 41.26C77.3999 41.39 77.3599 41.53 77.3599 41.67V45.01C77.3599 45.48 77.7399 45.86 78.2099 45.86H79.9099C80.3799 45.86 80.7599 45.48 80.7599 45.01V33.34C80.7699 32.88 80.3899 32.5 79.9199 32.5Z" fill="#F66E4E" stroke="black" stroke-width="0.25" stroke-miterlimit="10"/>
<path d="M79.9199 32.5C79.4499 32.5 79.0699 32.88 79.0699 33.35V38.16C79.0699 38.3 79.0299 38.45 78.9599 38.57L77.4699 41.26C77.3999 41.39 77.3599 41.53 77.3599 41.67V45.01C77.3599 45.48 77.7399 45.86 78.2099 45.86H79.9099C80.3799 45.86 80.7599 45.48 80.7599 45.01V33.34C80.7699 32.88 80.3899 32.5 79.9199 32.5Z" stroke="black" stroke-width="0.25" stroke-miterlimit="10"/>
<path d="M73.42 101.53V112.85H66V101.53C66 99.4799 67.66 97.8199 69.71 97.8199C69.92 97.8199 70.13 97.8399 70.34 97.8699C72.09 98.1699 73.42 99.6899 73.42 101.53Z" fill="#F66E4E" stroke="black" stroke-width="0.25" stroke-miterlimit="10"/>
<path d="M73.42 101.53V112.85H66V101.53C66 99.4799 67.66 97.8199 69.71 97.8199C69.92 97.8199 70.13 97.8399 70.34 97.8699C72.09 98.1699 73.42 99.6899 73.42 101.53Z" stroke="black" stroke-width="0.25" stroke-miterlimit="10"/>
<path d="M73.42 101.53V112.85H67.25V101.53C67.25 99.7 68.58 98.17 70.33 97.87C72.09 98.17 73.42 99.69 73.42 101.53Z" fill="#030303" stroke="black" stroke-width="0.25" stroke-miterlimit="10"/>
<path d="M73.42 101.53V112.85H67.25V101.53C67.25 99.7 68.58 98.17 70.33 97.87C72.09 98.17 73.42 99.69 73.42 101.53Z" stroke="black" stroke-width="0.25" stroke-miterlimit="10"/>
<path d="M80.7598 54.3199H58.5898V56.5399H80.7598V54.3199Z" fill="#F66E4E" stroke="black" stroke-width="0.25" stroke-miterlimit="10"/>
<path d="M80.7598 54.3199H58.5898V56.5399H80.7598V54.3199Z" stroke="black" stroke-width="0.25" stroke-miterlimit="10"/>
<path d="M61.14 55.43C61.14 54.84 60.67 54.37 60.08 54.37C59.49 54.37 59.02 54.84 59.02 55.43C59.02 56.02 59.49 56.49 60.08 56.49C60.66 56.49 61.14 56.02 61.14 55.43Z" fill="#EFE8DD" stroke="black" stroke-width="0.25" stroke-miterlimit="10"/>
<path d="M61.14 55.43C61.14 54.84 60.67 54.37 60.08 54.37C59.49 54.37 59.02 54.84 59.02 55.43C59.02 56.02 59.49 56.49 60.08 56.49C60.66 56.49 61.14 56.02 61.14 55.43Z" stroke="black" stroke-width="0.25" stroke-miterlimit="10"/>
<path d="M63.2599 55.43C63.2599 54.84 62.7899 54.37 62.1999 54.37C61.6099 54.37 61.1399 54.84 61.1399 55.43C61.1399 56.02 61.6099 56.49 62.1999 56.49C62.7799 56.49 63.2599 56.02 63.2599 55.43Z" fill="#EFE8DD" stroke="black" stroke-width="0.25" stroke-miterlimit="10"/>
<path d="M63.2599 55.43C63.2599 54.84 62.7899 54.37 62.1999 54.37C61.6099 54.37 61.1399 54.84 61.1399 55.43C61.1399 56.02 61.6099 56.49 62.1999 56.49C62.7799 56.49 63.2599 56.02 63.2599 55.43Z" stroke="black" stroke-width="0.25" stroke-miterlimit="10"/>
<path d="M65.38 55.43C65.38 54.84 64.91 54.37 64.32 54.37C63.73 54.37 63.26 54.84 63.26 55.43C63.26 56.02 63.73 56.49 64.32 56.49C64.9 56.49 65.38 56.02 65.38 55.43Z" fill="#EFE8DD" stroke="black" stroke-width="0.25" stroke-miterlimit="10"/>
<path d="M65.38 55.43C65.38 54.84 64.91 54.37 64.32 54.37C63.73 54.37 63.26 54.84 63.26 55.43C63.26 56.02 63.73 56.49 64.32 56.49C64.9 56.49 65.38 56.02 65.38 55.43Z" stroke="black" stroke-width="0.25" stroke-miterlimit="10"/>
<path d="M67.4999 55.43C67.4999 54.84 67.0299 54.37 66.4399 54.37C65.8499 54.37 65.3799 54.84 65.3799 55.43C65.3799 56.02 65.8499 56.49 66.4399 56.49C67.0199 56.49 67.4999 56.02 67.4999 55.43Z" fill="#EFE8DD" stroke="black" stroke-width="0.25" stroke-miterlimit="10"/>
<path d="M67.4999 55.43C67.4999 54.84 67.0299 54.37 66.4399 54.37C65.8499 54.37 65.3799 54.84 65.3799 55.43C65.3799 56.02 65.8499 56.49 66.4399 56.49C67.0199 56.49 67.4999 56.02 67.4999 55.43Z" stroke="black" stroke-width="0.25" stroke-miterlimit="10"/>
<path d="M69.62 55.43C69.62 54.84 69.15 54.37 68.56 54.37C67.97 54.37 67.5 54.84 67.5 55.43C67.5 56.02 67.97 56.49 68.56 56.49C69.14 56.49 69.62 56.02 69.62 55.43Z" fill="#EFE8DD" stroke="black" stroke-width="0.25" stroke-miterlimit="10"/>
<path d="M69.62 55.43C69.62 54.84 69.15 54.37 68.56 54.37C67.97 54.37 67.5 54.84 67.5 55.43C67.5 56.02 67.97 56.49 68.56 56.49C69.14 56.49 69.62 56.02 69.62 55.43Z" stroke="black" stroke-width="0.25" stroke-miterlimit="10"/>
<path d="M72.0199 55.43C72.0199 54.84 71.5499 54.37 70.9599 54.37C70.3699 54.37 69.8999 54.84 69.8999 55.43C69.8999 56.02 70.3699 56.49 70.9599 56.49C71.5499 56.49 72.0199 56.02 72.0199 55.43Z" fill="#EFE8DD" stroke="black" stroke-width="0.25" stroke-miterlimit="10"/>
<path d="M72.0199 55.43C72.0199 54.84 71.5499 54.37 70.9599 54.37C70.3699 54.37 69.8999 54.84 69.8999 55.43C69.8999 56.02 70.3699 56.49 70.9599 56.49C71.5499 56.49 72.0199 56.02 72.0199 55.43Z" stroke="black" stroke-width="0.25" stroke-miterlimit="10"/>
<path d="M74.14 55.43C74.14 54.84 73.67 54.37 73.08 54.37C72.49 54.37 72.02 54.84 72.02 55.43C72.02 56.02 72.49 56.49 73.08 56.49C73.67 56.49 74.14 56.02 74.14 55.43Z" fill="#EFE8DD" stroke="black" stroke-width="0.25" stroke-miterlimit="10"/>
<path d="M74.14 55.43C74.14 54.84 73.67 54.37 73.08 54.37C72.49 54.37 72.02 54.84 72.02 55.43C72.02 56.02 72.49 56.49 73.08 56.49C73.67 56.49 74.14 56.02 74.14 55.43Z" stroke="black" stroke-width="0.25" stroke-miterlimit="10"/>
<path d="M76.2599 55.43C76.2599 54.84 75.7899 54.37 75.1999 54.37C74.6099 54.37 74.1399 54.84 74.1399 55.43C74.1399 56.02 74.6099 56.49 75.1999 56.49C75.7899 56.49 76.2599 56.02 76.2599 55.43Z" fill="#EFE8DD" stroke="black" stroke-width="0.25" stroke-miterlimit="10"/>
<path d="M76.2599 55.43C76.2599 54.84 75.7899 54.37 75.1999 54.37C74.6099 54.37 74.1399 54.84 74.1399 55.43C74.1399 56.02 74.6099 56.49 75.1999 56.49C75.7899 56.49 76.2599 56.02 76.2599 55.43Z" stroke="black" stroke-width="0.25" stroke-miterlimit="10"/>
<path d="M78.38 55.43C78.38 54.84 77.91 54.37 77.32 54.37C76.73 54.37 76.26 54.84 76.26 55.43C76.26 56.02 76.73 56.49 77.32 56.49C77.91 56.49 78.38 56.02 78.38 55.43Z" fill="#EFE8DD" stroke="black" stroke-width="0.25" stroke-miterlimit="10"/>
<path d="M78.38 55.43C78.38 54.84 77.91 54.37 77.32 54.37C76.73 54.37 76.26 54.84 76.26 55.43C76.26 56.02 76.73 56.49 77.32 56.49C77.91 56.49 78.38 56.02 78.38 55.43Z" stroke="black" stroke-width="0.25" stroke-miterlimit="10"/>
<path d="M80.4999 55.43C80.4999 54.84 80.0299 54.37 79.4399 54.37C78.8499 54.37 78.3799 54.84 78.3799 55.43C78.3799 56.02 78.8499 56.49 79.4399 56.49C80.0299 56.49 80.4999 56.02 80.4999 55.43Z" fill="#EFE8DD" stroke="black" stroke-width="0.25" stroke-miterlimit="10"/>
<path d="M80.4999 55.43C80.4999 54.84 80.0299 54.37 79.4399 54.37C78.8499 54.37 78.3799 54.84 78.3799 55.43C78.3799 56.02 78.8499 56.49 79.4399 56.49C80.0299 56.49 80.4999 56.02 80.4999 55.43Z" stroke="black" stroke-width="0.25" stroke-miterlimit="10"/>
<path d="M80.7598 84.13H58.5898V86.35H80.7598V84.13Z" fill="#F66E4E" stroke="black" stroke-width="0.25" stroke-miterlimit="10"/>
<path d="M80.7598 84.13H58.5898V86.35H80.7598V84.13Z" stroke="black" stroke-width="0.25" stroke-miterlimit="10"/>
<path d="M61.14 85.2399C61.14 84.6499 60.67 84.1799 60.08 84.1799C59.49 84.1799 59.02 84.6499 59.02 85.2399C59.02 85.8299 59.49 86.2999 60.08 86.2999C60.66 86.2999 61.14 85.8299 61.14 85.2399Z" fill="#EFE8DD" stroke="black" stroke-width="0.25" stroke-miterlimit="10"/>
<path d="M61.14 85.2399C61.14 84.6499 60.67 84.1799 60.08 84.1799C59.49 84.1799 59.02 84.6499 59.02 85.2399C59.02 85.8299 59.49 86.2999 60.08 86.2999C60.66 86.2999 61.14 85.8299 61.14 85.2399Z" stroke="black" stroke-width="0.25" stroke-miterlimit="10"/>
<path d="M63.2599 85.2399C63.2599 84.6499 62.7899 84.1799 62.1999 84.1799C61.6099 84.1799 61.1399 84.6499 61.1399 85.2399C61.1399 85.8299 61.6099 86.2999 62.1999 86.2999C62.7799 86.2999 63.2599 85.8299 63.2599 85.2399Z" fill="#EFE8DD" stroke="black" stroke-width="0.25" stroke-miterlimit="10"/>
<path d="M63.2599 85.2399C63.2599 84.6499 62.7899 84.1799 62.1999 84.1799C61.6099 84.1799 61.1399 84.6499 61.1399 85.2399C61.1399 85.8299 61.6099 86.2999 62.1999 86.2999C62.7799 86.2999 63.2599 85.8299 63.2599 85.2399Z" stroke="black" stroke-width="0.25" stroke-miterlimit="10"/>
<path d="M65.38 85.2399C65.38 84.6499 64.91 84.1799 64.32 84.1799C63.73 84.1799 63.26 84.6499 63.26 85.2399C63.26 85.8299 63.73 86.2999 64.32 86.2999C64.9 86.2999 65.38 85.8299 65.38 85.2399Z" fill="#EFE8DD" stroke="black" stroke-width="0.25" stroke-miterlimit="10"/>
<path d="M65.38 85.2399C65.38 84.6499 64.91 84.1799 64.32 84.1799C63.73 84.1799 63.26 84.6499 63.26 85.2399C63.26 85.8299 63.73 86.2999 64.32 86.2999C64.9 86.2999 65.38 85.8299 65.38 85.2399Z" stroke="black" stroke-width="0.25" stroke-miterlimit="10"/>
<path d="M67.4999 85.2399C67.4999 84.6499 67.0299 84.1799 66.4399 84.1799C65.8499 84.1799 65.3799 84.6499 65.3799 85.2399C65.3799 85.8299 65.8499 86.2999 66.4399 86.2999C67.0199 86.2999 67.4999 85.8299 67.4999 85.2399Z" fill="#EFE8DD" stroke="black" stroke-width="0.25" stroke-miterlimit="10"/>
<path d="M67.4999 85.2399C67.4999 84.6499 67.0299 84.1799 66.4399 84.1799C65.8499 84.1799 65.3799 84.6499 65.3799 85.2399C65.3799 85.8299 65.8499 86.2999 66.4399 86.2999C67.0199 86.2999 67.4999 85.8299 67.4999 85.2399Z" stroke="black" stroke-width="0.25" stroke-miterlimit="10"/>
<path d="M69.62 85.2399C69.62 84.6499 69.15 84.1799 68.56 84.1799C67.97 84.1799 67.5 84.6499 67.5 85.2399C67.5 85.8299 67.97 86.2999 68.56 86.2999C69.14 86.2999 69.62 85.8299 69.62 85.2399Z" fill="#EFE8DD" stroke="black" stroke-width="0.25" stroke-miterlimit="10"/>
<path d="M69.62 85.2399C69.62 84.6499 69.15 84.1799 68.56 84.1799C67.97 84.1799 67.5 84.6499 67.5 85.2399C67.5 85.8299 67.97 86.2999 68.56 86.2999C69.14 86.2999 69.62 85.8299 69.62 85.2399Z" stroke="black" stroke-width="0.25" stroke-miterlimit="10"/>
<path d="M72.0199 85.2399C72.0199 84.6499 71.5499 84.1799 70.9599 84.1799C70.3699 84.1799 69.8999 84.6499 69.8999 85.2399C69.8999 85.8299 70.3699 86.2999 70.9599 86.2999C71.5499 86.2999 72.0199 85.8299 72.0199 85.2399Z" fill="#EFE8DD" stroke="black" stroke-width="0.25" stroke-miterlimit="10"/>
<path d="M72.0199 85.2399C72.0199 84.6499 71.5499 84.1799 70.9599 84.1799C70.3699 84.1799 69.8999 84.6499 69.8999 85.2399C69.8999 85.8299 70.3699 86.2999 70.9599 86.2999C71.5499 86.2999 72.0199 85.8299 72.0199 85.2399Z" stroke="black" stroke-width="0.25" stroke-miterlimit="10"/>
<path d="M74.14 85.2399C74.14 84.6499 73.67 84.1799 73.08 84.1799C72.49 84.1799 72.02 84.6499 72.02 85.2399C72.02 85.8299 72.49 86.2999 73.08 86.2999C73.67 86.2999 74.14 85.8299 74.14 85.2399Z" fill="#EFE8DD" stroke="black" stroke-width="0.25" stroke-miterlimit="10"/>
<path d="M74.14 85.2399C74.14 84.6499 73.67 84.1799 73.08 84.1799C72.49 84.1799 72.02 84.6499 72.02 85.2399C72.02 85.8299 72.49 86.2999 73.08 86.2999C73.67 86.2999 74.14 85.8299 74.14 85.2399Z" stroke="black" stroke-width="0.25" stroke-miterlimit="10"/>
<path d="M76.2599 85.2399C76.2599 84.6499 75.7899 84.1799 75.1999 84.1799C74.6099 84.1799 74.1399 84.6499 74.1399 85.2399C74.1399 85.8299 74.6099 86.2999 75.1999 86.2999C75.7899 86.2999 76.2599 85.8299 76.2599 85.2399Z" fill="#EFE8DD" stroke="black" stroke-width="0.25" stroke-miterlimit="10"/>
<path d="M76.2599 85.2399C76.2599 84.6499 75.7899 84.1799 75.1999 84.1799C74.6099 84.1799 74.1399 84.6499 74.1399 85.2399C74.1399 85.8299 74.6099 86.2999 75.1999 86.2999C75.7899 86.2999 76.2599 85.8299 76.2599 85.2399Z" stroke="black" stroke-width="0.25" stroke-miterlimit="10"/>
<path d="M78.38 85.2399C78.38 84.6499 77.91 84.1799 77.32 84.1799C76.73 84.1799 76.26 84.6499 76.26 85.2399C76.26 85.8299 76.73 86.2999 77.32 86.2999C77.91 86.2999 78.38 85.8299 78.38 85.2399Z" fill="#EFE8DD" stroke="black" stroke-width="0.25" stroke-miterlimit="10"/>
<path d="M78.38 85.2399C78.38 84.6499 77.91 84.1799 77.32 84.1799C76.73 84.1799 76.26 84.6499 76.26 85.2399C76.26 85.8299 76.73 86.2999 77.32 86.2999C77.91 86.2999 78.38 85.8299 78.38 85.2399Z" stroke="black" stroke-width="0.25" stroke-miterlimit="10"/>
<path d="M80.4999 85.2399C80.4999 84.6499 80.0299 84.1799 79.4399 84.1799C78.8499 84.1799 78.3799 84.6499 78.3799 85.2399C78.3799 85.8299 78.8499 86.2999 79.4399 86.2999C80.0299 86.2999 80.4999 85.8299 80.4999 85.2399Z" fill="#EFE8DD" stroke="black" stroke-width="0.25" stroke-miterlimit="10"/>
<path d="M80.4999 85.2399C80.4999 84.6499 80.0299 84.1799 79.4399 84.1799C78.8499 84.1799 78.3799 84.6499 78.3799 85.2399C78.3799 85.8299 78.8499 86.2999 79.4399 86.2999C80.0299 86.2999 80.4999 85.8299 80.4999 85.2399Z" stroke="black" stroke-width="0.25" stroke-miterlimit="10"/>
<path d="M80.7598 86.35H58.5898V88.57H80.7598V86.35Z" fill="#F66E4E" stroke="black" stroke-width="0.25" stroke-miterlimit="10"/>
<path d="M80.7598 86.35H58.5898V88.57H80.7598V86.35Z" stroke="black" stroke-width="0.25" stroke-miterlimit="10"/>
<path d="M61.14 87.46C61.14 86.87 60.67 86.4 60.08 86.4C59.49 86.4 59.02 86.87 59.02 87.46C59.02 88.05 59.49 88.52 60.08 88.52C60.66 88.52 61.14 88.05 61.14 87.46Z" fill="#EFE8DD" stroke="black" stroke-width="0.25" stroke-miterlimit="10"/>
<path d="M61.14 87.46C61.14 86.87 60.67 86.4 60.08 86.4C59.49 86.4 59.02 86.87 59.02 87.46C59.02 88.05 59.49 88.52 60.08 88.52C60.66 88.52 61.14 88.05 61.14 87.46Z" stroke="black" stroke-width="0.25" stroke-miterlimit="10"/>
<path d="M63.2599 87.46C63.2599 86.87 62.7899 86.4 62.1999 86.4C61.6099 86.4 61.1399 86.87 61.1399 87.46C61.1399 88.05 61.6099 88.52 62.1999 88.52C62.7799 88.52 63.2599 88.05 63.2599 87.46Z" fill="#EFE8DD" stroke="black" stroke-width="0.25" stroke-miterlimit="10"/>
<path d="M63.2599 87.46C63.2599 86.87 62.7899 86.4 62.1999 86.4C61.6099 86.4 61.1399 86.87 61.1399 87.46C61.1399 88.05 61.6099 88.52 62.1999 88.52C62.7799 88.52 63.2599 88.05 63.2599 87.46Z" stroke="black" stroke-width="0.25" stroke-miterlimit="10"/>
<path d="M65.38 87.46C65.38 86.87 64.91 86.4 64.32 86.4C63.73 86.4 63.26 86.87 63.26 87.46C63.26 88.05 63.73 88.52 64.32 88.52C64.9 88.52 65.38 88.05 65.38 87.46Z" fill="#EFE8DD" stroke="black" stroke-width="0.25" stroke-miterlimit="10"/>
<path d="M65.38 87.46C65.38 86.87 64.91 86.4 64.32 86.4C63.73 86.4 63.26 86.87 63.26 87.46C63.26 88.05 63.73 88.52 64.32 88.52C64.9 88.52 65.38 88.05 65.38 87.46Z" stroke="black" stroke-width="0.25" stroke-miterlimit="10"/>
<path d="M67.4999 87.46C67.4999 86.87 67.0299 86.4 66.4399 86.4C65.8499 86.4 65.3799 86.87 65.3799 87.46C65.3799 88.05 65.8499 88.52 66.4399 88.52C67.0199 88.52 67.4999 88.05 67.4999 87.46Z" fill="#EFE8DD" stroke="black" stroke-width="0.25" stroke-miterlimit="10"/>
<path d="M67.4999 87.46C67.4999 86.87 67.0299 86.4 66.4399 86.4C65.8499 86.4 65.3799 86.87 65.3799 87.46C65.3799 88.05 65.8499 88.52 66.4399 88.52C67.0199 88.52 67.4999 88.05 67.4999 87.46Z" stroke="black" stroke-width="0.25" stroke-miterlimit="10"/>
<path d="M69.62 87.46C69.62 86.87 69.15 86.4 68.56 86.4C67.97 86.4 67.5 86.87 67.5 87.46C67.5 88.05 67.97 88.52 68.56 88.52C69.14 88.52 69.62 88.05 69.62 87.46Z" fill="#EFE8DD" stroke="black" stroke-width="0.25" stroke-miterlimit="10"/>
<path d="M69.62 87.46C69.62 86.87 69.15 86.4 68.56 86.4C67.97 86.4 67.5 86.87 67.5 87.46C67.5 88.05 67.97 88.52 68.56 88.52C69.14 88.52 69.62 88.05 69.62 87.46Z" stroke="black" stroke-width="0.25" stroke-miterlimit="10"/>
<path d="M72.0199 87.46C72.0199 86.87 71.5499 86.4 70.9599 86.4C70.3699 86.4 69.8999 86.87 69.8999 87.46C69.8999 88.05 70.3699 88.52 70.9599 88.52C71.5499 88.52 72.0199 88.05 72.0199 87.46Z" fill="#EFE8DD" stroke="black" stroke-width="0.25" stroke-miterlimit="10"/>
<path d="M72.0199 87.46C72.0199 86.87 71.5499 86.4 70.9599 86.4C70.3699 86.4 69.8999 86.87 69.8999 87.46C69.8999 88.05 70.3699 88.52 70.9599 88.52C71.5499 88.52 72.0199 88.05 72.0199 87.46Z" stroke="black" stroke-width="0.25" stroke-miterlimit="10"/>
<path d="M74.14 87.46C74.14 86.87 73.67 86.4 73.08 86.4C72.49 86.4 72.02 86.87 72.02 87.46C72.02 88.05 72.49 88.52 73.08 88.52C73.67 88.52 74.14 88.05 74.14 87.46Z" fill="#EFE8DD" stroke="black" stroke-width="0.25" stroke-miterlimit="10"/>
<path d="M74.14 87.46C74.14 86.87 73.67 86.4 73.08 86.4C72.49 86.4 72.02 86.87 72.02 87.46C72.02 88.05 72.49 88.52 73.08 88.52C73.67 88.52 74.14 88.05 74.14 87.46Z" stroke="black" stroke-width="0.25" stroke-miterlimit="10"/>
<path d="M76.2599 87.46C76.2599 86.87 75.7899 86.4 75.1999 86.4C74.6099 86.4 74.1399 86.87 74.1399 87.46C74.1399 88.05 74.6099 88.52 75.1999 88.52C75.7899 88.52 76.2599 88.05 76.2599 87.46Z" fill="#EFE8DD" stroke="black" stroke-width="0.25" stroke-miterlimit="10"/>
<path d="M76.2599 87.46C76.2599 86.87 75.7899 86.4 75.1999 86.4C74.6099 86.4 74.1399 86.87 74.1399 87.46C74.1399 88.05 74.6099 88.52 75.1999 88.52C75.7899 88.52 76.2599 88.05 76.2599 87.46Z" stroke="black" stroke-width="0.25" stroke-miterlimit="10"/>
<path d="M78.38 87.46C78.38 86.87 77.91 86.4 77.32 86.4C76.73 86.4 76.26 86.87 76.26 87.46C76.26 88.05 76.73 88.52 77.32 88.52C77.91 88.52 78.38 88.05 78.38 87.46Z" fill="#EFE8DD" stroke="black" stroke-width="0.25" stroke-miterlimit="10"/>
<path d="M78.38 87.46C78.38 86.87 77.91 86.4 77.32 86.4C76.73 86.4 76.26 86.87 76.26 87.46C76.26 88.05 76.73 88.52 77.32 88.52C77.91 88.52 78.38 88.05 78.38 87.46Z" stroke="black" stroke-width="0.25" stroke-miterlimit="10"/>
<path d="M80.4999 87.46C80.4999 86.87 80.0299 86.4 79.4399 86.4C78.8499 86.4 78.3799 86.87 78.3799 87.46C78.3799 88.05 78.8499 88.52 79.4399 88.52C80.0299 88.52 80.4999 88.05 80.4999 87.46Z" fill="#EFE8DD" stroke="black" stroke-width="0.25" stroke-miterlimit="10"/>
<path d="M80.4999 87.46C80.4999 86.87 80.0299 86.4 79.4399 86.4C78.8499 86.4 78.3799 86.87 78.3799 87.46C78.3799 88.05 78.8499 88.52 79.4399 88.52C80.0299 88.52 80.4999 88.05 80.4999 87.46Z" stroke="black" stroke-width="0.25" stroke-miterlimit="10"/>
<path d="M88.4199 59.2499V69.7599H85.8599V59.2499C85.8599 58.5999 86.3899 58.0699 87.0399 58.0699H87.2299C87.3299 58.0699 87.4299 58.0799 87.5299 58.1099C88.0399 58.2399 88.4199 58.6999 88.4199 59.2499Z" fill="#F66E4E" stroke="black" stroke-width="0.25" stroke-miterlimit="10"/>
<path d="M88.4199 59.2499V69.7599H85.8599V59.2499C85.8599 58.5999 86.3899 58.0699 87.0399 58.0699H87.2299C87.3299 58.0699 87.4299 58.0799 87.5299 58.1099C88.0399 58.2399 88.4199 58.6999 88.4199 59.2499Z" stroke="black" stroke-width="0.25" stroke-miterlimit="10"/>
<path d="M88.4199 59.25V69.76H86.6499V59.25C86.6499 58.7 87.0299 58.24 87.5399 58.1C88.0399 58.24 88.4199 58.7 88.4199 59.25Z" fill="#030303" stroke="black" stroke-width="0.25" stroke-miterlimit="10"/>
<path d="M88.4199 59.25V69.76H86.6499V59.25C86.6499 58.7 87.0299 58.24 87.5399 58.1C88.0399 58.24 88.4199 58.7 88.4199 59.25Z" stroke="black" stroke-width="0.25" stroke-miterlimit="10"/>
<path d="M93.4399 59.2499V69.7599H90.8799V59.2499C90.8799 58.5999 91.4099 58.0699 92.0599 58.0699H92.2499C92.3499 58.0699 92.4499 58.0799 92.5499 58.1099C93.0699 58.2399 93.4399 58.6999 93.4399 59.2499Z" fill="#F66E4E" stroke="black" stroke-width="0.25" stroke-miterlimit="10"/>
<path d="M93.4399 59.2499V69.7599H90.8799V59.2499C90.8799 58.5999 91.4099 58.0699 92.0599 58.0699H92.2499C92.3499 58.0699 92.4499 58.0799 92.5499 58.1099C93.0699 58.2399 93.4399 58.6999 93.4399 59.2499Z" stroke="black" stroke-width="0.25" stroke-miterlimit="10"/>
<path d="M93.4399 59.25V69.76H91.6699V59.25C91.6699 58.7 92.0499 58.24 92.5599 58.1C93.0699 58.24 93.4399 58.7 93.4399 59.25Z" fill="#030303" stroke="black" stroke-width="0.25" stroke-miterlimit="10"/>
<path d="M93.4399 59.25V69.76H91.6699V59.25C91.6699 58.7 92.0499 58.24 92.5599 58.1C93.0699 58.24 93.4399 58.7 93.4399 59.25Z" stroke="black" stroke-width="0.25" stroke-miterlimit="10"/>
<path d="M88.4199 71.89V82.3999H85.8599V71.89C85.8599 71.24 86.3899 70.71 87.0399 70.71H87.2299C87.3299 70.71 87.4299 70.72 87.5299 70.75C88.0399 70.87 88.4199 71.34 88.4199 71.89Z" fill="#F66E4E" stroke="black" stroke-width="0.25" stroke-miterlimit="10"/>
<path d="M88.4199 71.89V82.3999H85.8599V71.89C85.8599 71.24 86.3899 70.71 87.0399 70.71H87.2299C87.3299 70.71 87.4299 70.72 87.5299 70.75C88.0399 70.87 88.4199 71.34 88.4199 71.89Z" stroke="black" stroke-width="0.25" stroke-miterlimit="10"/>
<path d="M88.4199 71.89V82.4H86.6499V71.89C86.6499 71.34 87.0299 70.88 87.5399 70.74C88.0399 70.87 88.4199 71.34 88.4199 71.89Z" fill="#030303" stroke="black" stroke-width="0.25" stroke-miterlimit="10"/>
<path d="M88.4199 71.89V82.4H86.6499V71.89C86.6499 71.34 87.0299 70.88 87.5399 70.74C88.0399 70.87 88.4199 71.34 88.4199 71.89Z" stroke="black" stroke-width="0.25" stroke-miterlimit="10"/>
<path d="M93.4399 71.89V82.3999H90.8799V71.89C90.8799 71.24 91.4099 70.71 92.0599 70.71H92.2499C92.3499 70.71 92.4499 70.72 92.5499 70.75C93.0699 70.87 93.4399 71.34 93.4399 71.89Z" fill="#F66E4E" stroke="black" stroke-width="0.25" stroke-miterlimit="10"/>
<path d="M93.4399 71.89V82.3999H90.8799V71.89C90.8799 71.24 91.4099 70.71 92.0599 70.71H92.2499C92.3499 70.71 92.4499 70.72 92.5499 70.75C93.0699 70.87 93.4399 71.34 93.4399 71.89Z" stroke="black" stroke-width="0.25" stroke-miterlimit="10"/>
<path d="M93.4399 71.89V82.4H91.6699V71.89C91.6699 71.34 92.0499 70.88 92.5599 70.74C93.0699 70.87 93.4399 71.34 93.4399 71.89Z" fill="#030303" stroke="black" stroke-width="0.25" stroke-miterlimit="10"/>
<path d="M93.4399 71.89V82.4H91.6699V71.89C91.6699 71.34 92.0499 70.88 92.5599 70.74C93.0699 70.87 93.4399 71.34 93.4399 71.89Z" stroke="black" stroke-width="0.25" stroke-miterlimit="10"/>
<path d="M92.95 45.0699V54.9999H86.45V45.0699C86.45 43.2699 87.9 41.8199 89.7 41.8199C89.84 41.8199 89.98 41.8299 90.12 41.8499C91.72 42.0499 92.95 43.4199 92.95 45.0699Z" fill="#F66E4E" stroke="black" stroke-width="0.25" stroke-miterlimit="10"/>
<path d="M92.95 45.0699V54.9999H86.45V45.0699C86.45 43.2699 87.9 41.8199 89.7 41.8199C89.84 41.8199 89.98 41.8299 90.12 41.8499C91.72 42.0499 92.95 43.4199 92.95 45.0699Z" stroke="black" stroke-width="0.25" stroke-miterlimit="10"/>
<path d="M92.95 45.07V55H87.29V45.07C87.29 43.42 88.52 42.05 90.12 41.85C91.72 42.05 92.95 43.42 92.95 45.07Z" fill="#030303" stroke="black" stroke-width="0.25" stroke-miterlimit="10"/>
<path d="M92.95 45.07V55H87.29V45.07C87.29 43.42 88.52 42.05 90.12 41.85C91.72 42.05 92.95 43.42 92.95 45.07Z" stroke="black" stroke-width="0.25" stroke-miterlimit="10"/>
<path d="M97.1199 23.78C96.2799 23.78 95.6099 24.46 95.6099 25.29V37.34C95.6099 38.18 96.2899 38.85 97.1199 38.85C97.9599 38.85 98.6299 38.17 98.6299 37.34V25.3C98.6299 24.46 97.9499 23.78 97.1199 23.78Z" fill="#F66E4E" stroke="black" stroke-width="0.25" stroke-miterlimit="10"/>
<path d="M97.1199 23.78C96.2799 23.78 95.6099 24.46 95.6099 25.29V37.34C95.6099 38.18 96.2899 38.85 97.1199 38.85C97.9599 38.85 98.6299 38.17 98.6299 37.34V25.3C98.6299 24.46 97.9499 23.78 97.1199 23.78Z" stroke="black" stroke-width="0.25" stroke-miterlimit="10"/>
<path d="M100.15 55.76C99.3099 55.76 98.6399 56.44 98.6399 57.27V68.76C98.6399 69.6 99.3199 70.27 100.15 70.27C100.99 70.27 101.66 69.59 101.66 68.76V57.27C101.66 56.44 100.98 55.76 100.15 55.76Z" fill="#F66E4E" stroke="black" stroke-width="0.25" stroke-miterlimit="10"/>
<path d="M100.15 55.76C99.3099 55.76 98.6399 56.44 98.6399 57.27V68.76C98.6399 69.6 99.3199 70.27 100.15 70.27C100.99 70.27 101.66 69.59 101.66 68.76V57.27C101.66 56.44 100.98 55.76 100.15 55.76Z" stroke="black" stroke-width="0.25" stroke-miterlimit="10"/>
<path d="M97.1199 48.1C97.9599 48.1 98.6299 47.42 98.6299 46.59V36.26C98.6299 35.42 97.9499 34.75 97.1199 34.75C96.2799 34.75 95.6099 35.43 95.6099 36.26V46.59C95.6099 47.42 96.2799 48.1 97.1199 48.1Z" fill="#F66E4E" stroke="black" stroke-width="0.25" stroke-miterlimit="10"/>
<path d="M97.1199 48.1C97.9599 48.1 98.6299 47.42 98.6299 46.59V36.26C98.6299 35.42 97.9499 34.75 97.1199 34.75C96.2799 34.75 95.6099 35.43 95.6099 36.26V46.59C95.6099 47.42 96.2799 48.1 97.1199 48.1Z" stroke="black" stroke-width="0.25" stroke-miterlimit="10"/>
<path d="M97.1199 58.16C97.9599 58.16 98.6299 57.48 98.6299 56.65V46.02C98.6299 45.18 97.9499 44.51 97.1199 44.51C96.2799 44.51 95.6099 45.19 95.6099 46.02V56.65C95.6099 57.48 96.2799 58.16 97.1199 58.16Z" fill="#F66E4E" stroke="black" stroke-width="0.25" stroke-miterlimit="10"/>
<path d="M97.1199 58.16C97.9599 58.16 98.6299 57.48 98.6299 56.65V46.02C98.6299 45.18 97.9499 44.51 97.1199 44.51C96.2799 44.51 95.6099 45.19 95.6099 46.02V56.65C95.6099 57.48 96.2799 58.16 97.1199 58.16Z" stroke="black" stroke-width="0.25" stroke-miterlimit="10"/>
<path d="M97.1199 67.15C97.9599 67.15 98.6299 66.47 98.6299 65.64V55.78C98.6299 54.94 97.9499 54.27 97.1199 54.27C96.2799 54.27 95.6099 54.95 95.6099 55.78V65.64C95.6099 66.47 96.2799 67.15 97.1199 67.15Z" fill="#F66E4E" stroke="black" stroke-width="0.25" stroke-miterlimit="10"/>
<path d="M97.1199 67.15C97.9599 67.15 98.6299 66.47 98.6299 65.64V55.78C98.6299 54.94 97.9499 54.27 97.1199 54.27C96.2799 54.27 95.6099 54.95 95.6099 55.78V65.64C95.6099 66.47 96.2799 67.15 97.1199 67.15Z" stroke="black" stroke-width="0.25" stroke-miterlimit="10"/>
<path d="M97.1199 76.48C97.9599 76.48 98.6299 75.8 98.6299 74.97V65.54C98.6299 64.7 97.9499 64.03 97.1199 64.03C96.2799 64.03 95.6099 64.71 95.6099 65.54V74.97C95.6099 75.81 96.2799 76.48 97.1199 76.48Z" fill="#F66E4E" stroke="black" stroke-width="0.25" stroke-miterlimit="10"/>
<path d="M97.1199 76.48C97.9599 76.48 98.6299 75.8 98.6299 74.97V65.54C98.6299 64.7 97.9499 64.03 97.1199 64.03C96.2799 64.03 95.6099 64.71 95.6099 65.54V74.97C95.6099 75.81 96.2799 76.48 97.1199 76.48Z" stroke="black" stroke-width="0.25" stroke-miterlimit="10"/>
<path d="M100.15 79.68C100.99 79.68 101.66 79 101.66 78.17V68.24C101.66 67.4 100.98 66.73 100.15 66.73C99.32 66.73 98.64 67.41 98.64 68.24V78.17C98.63 79 99.31 79.68 100.15 79.68Z" fill="#F66E4E" stroke="black" stroke-width="0.25" stroke-miterlimit="10"/>
<path d="M100.15 79.68C100.99 79.68 101.66 79 101.66 78.17V68.24C101.66 67.4 100.98 66.73 100.15 66.73C99.32 66.73 98.64 67.41 98.64 68.24V78.17C98.63 79 99.31 79.68 100.15 79.68Z" stroke="black" stroke-width="0.25" stroke-miterlimit="10"/>
<path d="M100.15 89.67C100.99 89.67 101.66 88.99 101.66 88.16V78C101.66 77.16 100.98 76.49 100.15 76.49C99.32 76.49 98.64 77.17 98.64 78V88.16C98.63 88.99 99.31 89.67 100.15 89.67Z" fill="#F66E4E" stroke="black" stroke-width="0.25" stroke-miterlimit="10"/>
<path d="M100.15 89.67C100.99 89.67 101.66 88.99 101.66 88.16V78C101.66 77.16 100.98 76.49 100.15 76.49C99.32 76.49 98.64 77.17 98.64 78V88.16C98.63 88.99 99.31 89.67 100.15 89.67Z" stroke="black" stroke-width="0.25" stroke-miterlimit="10"/>
<path d="M100.15 99.06C100.99 99.06 101.66 98.38 101.66 97.55V87.76C101.66 86.92 100.98 86.25 100.15 86.25C99.32 86.25 98.64 86.93 98.64 87.76V97.55C98.63 98.39 99.31 99.06 100.15 99.06Z" fill="#F66E4E" stroke="black" stroke-width="0.25" stroke-miterlimit="10"/>
<path d="M100.15 99.06C100.99 99.06 101.66 98.38 101.66 97.55V87.76C101.66 86.92 100.98 86.25 100.15 86.25C99.32 86.25 98.64 86.93 98.64 87.76V97.55C98.63 98.39 99.31 99.06 100.15 99.06Z" stroke="black" stroke-width="0.25" stroke-miterlimit="10"/>
<path d="M100.15 108.9C100.99 108.9 101.66 108.22 101.66 107.39V97.53C101.66 96.69 100.98 96.02 100.15 96.02C99.32 96.02 98.64 96.7 98.64 97.53V107.39C98.63 108.22 99.31 108.9 100.15 108.9Z" fill="#F66E4E" stroke="black" stroke-width="0.25" stroke-miterlimit="10"/>
<path d="M100.15 108.9C100.99 108.9 101.66 108.22 101.66 107.39V97.53C101.66 96.69 100.98 96.02 100.15 96.02C99.32 96.02 98.64 96.7 98.64 97.53V107.39C98.63 108.22 99.31 108.9 100.15 108.9Z" stroke="black" stroke-width="0.25" stroke-miterlimit="10"/>
<path d="M98.6299 112.76H101.66V107.28C101.66 106.44 100.98 105.77 100.15 105.77C99.3099 105.77 98.6399 106.45 98.6399 107.28V112.76H98.6299Z" fill="#F66E4E" stroke="black" stroke-width="0.25" stroke-miterlimit="10"/>
<path d="M98.6299 112.76H101.66V107.28C101.66 106.44 100.98 105.77 100.15 105.77C99.3099 105.77 98.6399 106.45 98.6399 107.28V112.76H98.6299Z" stroke="black" stroke-width="0.25" stroke-miterlimit="10"/>
<path d="M97.1199 86.7101C97.9599 86.7101 98.6299 86.03 98.6299 85.2V75.31C98.6299 74.47 97.9499 73.8 97.1199 73.8C96.2799 73.8 95.6099 74.48 95.6099 75.31V85.2C95.6099 86.03 96.2799 86.7101 97.1199 86.7101Z" fill="#F66E4E" stroke="black" stroke-width="0.25" stroke-miterlimit="10"/>
<path d="M97.1199 86.7101C97.9599 86.7101 98.6299 86.03 98.6299 85.2V75.31C98.6299 74.47 97.9499 73.8 97.1199 73.8C96.2799 73.8 95.6099 74.48 95.6099 75.31V85.2C95.6099 86.03 96.2799 86.7101 97.1199 86.7101Z" stroke="black" stroke-width="0.25" stroke-miterlimit="10"/>
<path d="M97.1199 96.2699C97.9599 96.2699 98.6299 95.5899 98.6299 94.7599V85.0799C98.6299 84.2399 97.9499 83.5699 97.1199 83.5699C96.2799 83.5699 95.6099 84.2499 95.6099 85.0799V94.7599C95.6099 95.5899 96.2799 96.2699 97.1199 96.2699Z" fill="#F66E4E" stroke="black" stroke-width="0.25" stroke-miterlimit="10"/>
<path d="M97.1199 96.2699C97.9599 96.2699 98.6299 95.5899 98.6299 94.7599V85.0799C98.6299 84.2399 97.9499 83.5699 97.1199 83.5699C96.2799 83.5699 95.6099 84.2499 95.6099 85.0799V94.7599C95.6099 95.5899 96.2799 96.2699 97.1199 96.2699Z" stroke="black" stroke-width="0.25" stroke-miterlimit="10"/>
<path d="M97.1199 106.08C97.9599 106.08 98.6299 105.4 98.6299 104.57V94.8299C98.6299 93.9899 97.9499 93.3199 97.1199 93.3199C96.2799 93.3199 95.6099 93.9999 95.6099 94.8299V104.57C95.6099 105.41 96.2799 106.08 97.1199 106.08Z" fill="#F66E4E" stroke="black" stroke-width="0.25" stroke-miterlimit="10"/>
<path d="M97.1199 106.08C97.9599 106.08 98.6299 105.4 98.6299 104.57V94.8299C98.6299 93.9899 97.9499 93.3199 97.1199 93.3199C96.2799 93.3199 95.6099 93.9999 95.6099 94.8299V104.57C95.6099 105.41 96.2799 106.08 97.1199 106.08Z" stroke="black" stroke-width="0.25" stroke-miterlimit="10"/>
<path d="M95.6099 112.85H98.6399V104.6C98.6399 103.76 97.9599 103.09 97.1299 103.09C96.2899 103.09 95.6199 103.77 95.6199 104.6V112.85H95.6099Z" fill="#F66E4E" stroke="black" stroke-width="0.25" stroke-miterlimit="10"/>
<path d="M95.6099 112.85H98.6399V104.6C98.6399 103.76 97.9599 103.09 97.1299 103.09C96.2899 103.09 95.6199 103.77 95.6199 104.6V112.85H95.6099Z" stroke="black" stroke-width="0.25" stroke-miterlimit="10"/>
<path d="M82.29 23.73C81.45 23.73 80.78 24.41 80.78 25.24V37.29C80.78 38.13 81.46 38.8 82.29 38.8C83.13 38.8 83.8 38.12 83.8 37.29V25.24C83.8 24.4 83.12 23.73 82.29 23.73Z" fill="#F66E4E" stroke="black" stroke-width="0.25" stroke-miterlimit="10"/>
<path d="M82.29 23.73C81.45 23.73 80.78 24.41 80.78 25.24V37.29C80.78 38.13 81.46 38.8 82.29 38.8C83.13 38.8 83.8 38.12 83.8 37.29V25.24C83.8 24.4 83.12 23.73 82.29 23.73Z" stroke="black" stroke-width="0.25" stroke-miterlimit="10"/>
<path d="M82.2899 48.0399C83.1299 48.0399 83.7999 47.3599 83.7999 46.5299V36.1999C83.7999 35.3599 83.1199 34.6899 82.2899 34.6899C81.4499 34.6899 80.7799 35.3699 80.7799 36.1999V46.5299C80.7699 47.3599 81.4499 48.0399 82.2899 48.0399Z" fill="#F66E4E" stroke="black" stroke-width="0.25" stroke-miterlimit="10"/>
<path d="M82.2899 48.0399C83.1299 48.0399 83.7999 47.3599 83.7999 46.5299V36.1999C83.7999 35.3599 83.1199 34.6899 82.2899 34.6899C81.4499 34.6899 80.7799 35.3699 80.7799 36.1999V46.5299C80.7699 47.3599 81.4499 48.0399 82.2899 48.0399Z" stroke="black" stroke-width="0.25" stroke-miterlimit="10"/>
<path d="M82.2899 58.1C83.1299 58.1 83.7999 57.42 83.7999 56.59V45.96C83.7999 45.12 83.1199 44.45 82.2899 44.45C81.4499 44.45 80.7799 45.13 80.7799 45.96V56.59C80.7699 57.42 81.4499 58.1 82.2899 58.1Z" fill="#F66E4E" stroke="black" stroke-width="0.25" stroke-miterlimit="10"/>
<path d="M82.2899 58.1C83.1299 58.1 83.7999 57.42 83.7999 56.59V45.96C83.7999 45.12 83.1199 44.45 82.2899 44.45C81.4499 44.45 80.7799 45.13 80.7799 45.96V56.59C80.7699 57.42 81.4499 58.1 82.2899 58.1Z" stroke="black" stroke-width="0.25" stroke-miterlimit="10"/>
<path d="M82.2899 67.09C83.1299 67.09 83.7999 66.41 83.7999 65.58V55.72C83.7999 54.88 83.1199 54.21 82.2899 54.21C81.4499 54.21 80.7799 54.89 80.7799 55.72V65.58C80.7699 66.41 81.4499 67.09 82.2899 67.09Z" fill="#F66E4E" stroke="black" stroke-width="0.25" stroke-miterlimit="10"/>
<path d="M82.2899 67.09C83.1299 67.09 83.7999 66.41 83.7999 65.58V55.72C83.7999 54.88 83.1199 54.21 82.2899 54.21C81.4499 54.21 80.7799 54.89 80.7799 55.72V65.58C80.7699 66.41 81.4499 67.09 82.2899 67.09Z" stroke="black" stroke-width="0.25" stroke-miterlimit="10"/>
<path d="M82.2899 76.43C83.1299 76.43 83.7999 75.75 83.7999 74.92V65.49C83.7999 64.65 83.1199 63.98 82.2899 63.98C81.4499 63.98 80.7799 64.66 80.7799 65.49V74.92C80.7699 75.75 81.4499 76.43 82.2899 76.43Z" fill="#F66E4E" stroke="black" stroke-width="0.25" stroke-miterlimit="10"/>
<path d="M82.2899 76.43C83.1299 76.43 83.7999 75.75 83.7999 74.92V65.49C83.7999 64.65 83.1199 63.98 82.2899 63.98C81.4499 63.98 80.7799 64.66 80.7799 65.49V74.92C80.7699 75.75 81.4499 76.43 82.2899 76.43Z" stroke="black" stroke-width="0.25" stroke-miterlimit="10"/>
<path d="M82.2899 86.65C83.1299 86.65 83.7999 85.97 83.7999 85.14V75.25C83.7999 74.41 83.1199 73.74 82.2899 73.74C81.4499 73.74 80.7799 74.42 80.7799 75.25V85.14C80.7699 85.97 81.4499 86.65 82.2899 86.65Z" fill="#F66E4E" stroke="black" stroke-width="0.25" stroke-miterlimit="10"/>
<path d="M82.2899 86.65C83.1299 86.65 83.7999 85.97 83.7999 85.14V75.25C83.7999 74.41 83.1199 73.74 82.2899 73.74C81.4499 73.74 80.7799 74.42 80.7799 75.25V85.14C80.7699 85.97 81.4499 86.65 82.2899 86.65Z" stroke="black" stroke-width="0.25" stroke-miterlimit="10"/>
<path d="M82.2899 96.21C83.1299 96.21 83.7999 95.53 83.7999 94.7V85.02C83.7999 84.18 83.1199 83.51 82.2899 83.51C81.4499 83.51 80.7799 84.19 80.7799 85.02V94.7C80.7699 95.53 81.4499 96.21 82.2899 96.21Z" fill="#F66E4E" stroke="black" stroke-width="0.25" stroke-miterlimit="10"/>
<path d="M82.2899 96.21C83.1299 96.21 83.7999 95.53 83.7999 94.7V85.02C83.7999 84.18 83.1199 83.51 82.2899 83.51C81.4499 83.51 80.7799 84.19 80.7799 85.02V94.7C80.7699 95.53 81.4499 96.21 82.2899 96.21Z" stroke="black" stroke-width="0.25" stroke-miterlimit="10"/>
<path d="M82.2899 106.03C83.1299 106.03 83.7999 105.35 83.7999 104.52V94.78C83.7999 93.94 83.1199 93.27 82.2899 93.27C81.4499 93.27 80.7799 93.95 80.7799 94.78V104.52C80.7699 105.35 81.4499 106.03 82.2899 106.03Z" fill="#F66E4E" stroke="black" stroke-width="0.25" stroke-miterlimit="10"/>
<path d="M82.2899 106.03C83.1299 106.03 83.7999 105.35 83.7999 104.52V94.78C83.7999 93.94 83.1199 93.27 82.2899 93.27C81.4499 93.27 80.7799 93.95 80.7799 94.78V104.52C80.7699 105.35 81.4499 106.03 82.2899 106.03Z" stroke="black" stroke-width="0.25" stroke-miterlimit="10"/>
<path d="M80.77 112.79H83.8V104.54C83.8 103.7 83.12 103.03 82.29 103.03C81.45 103.03 80.78 103.71 80.78 104.54V112.79H80.77Z" fill="#F66E4E" stroke="black" stroke-width="0.25" stroke-miterlimit="10"/>
<path d="M80.77 112.79H83.8V104.54C83.8 103.7 83.12 103.03 82.29 103.03C81.45 103.03 80.78 103.71 80.78 104.54V112.79H80.77Z" stroke="black" stroke-width="0.25" stroke-miterlimit="10"/>
<path d="M89.3398 87.3V90.93H86.3098V87.3C86.3098 86.46 86.9898 85.79 87.8198 85.79C87.9298 85.79 88.0298 85.8001 88.1298 85.8201C88.8198 85.9601 89.3398 86.57 89.3398 87.3Z" fill="white" stroke="black" stroke-width="0.25" stroke-miterlimit="10"/>
<path d="M89.3398 87.3V90.93H86.3098V87.3C86.3098 86.46 86.9898 85.79 87.8198 85.79C87.9298 85.79 88.0298 85.8001 88.1298 85.8201C88.8198 85.9601 89.3398 86.57 89.3398 87.3Z" stroke="black" stroke-width="0.25" stroke-miterlimit="10"/>
<path d="M89.3399 87.2999V90.9299H86.9299V87.2999C86.9299 86.5699 87.4499 85.9599 88.1399 85.8199C88.8199 85.9599 89.3399 86.5699 89.3399 87.2999Z" fill="#030303" stroke="black" stroke-width="0.25" stroke-miterlimit="10"/>
<path d="M89.3399 87.2999V90.9299H86.9299V87.2999C86.9299 86.5699 87.4499 85.9599 88.1399 85.8199C88.8199 85.9599 89.3399 86.5699 89.3399 87.2999Z" stroke="black" stroke-width="0.25" stroke-miterlimit="10"/>
<path d="M93.9399 87.3V90.93H90.9099V87.3C90.9099 86.46 91.5899 85.79 92.4199 85.79C92.5299 85.79 92.6299 85.8001 92.7299 85.8201C93.4199 85.9601 93.9399 86.57 93.9399 87.3Z" fill="white" stroke="black" stroke-width="0.25" stroke-miterlimit="10"/>
<path d="M93.9399 87.3V90.93H90.9099V87.3C90.9099 86.46 91.5899 85.79 92.4199 85.79C92.5299 85.79 92.6299 85.8001 92.7299 85.8201C93.4199 85.9601 93.9399 86.57 93.9399 87.3Z" stroke="black" stroke-width="0.25" stroke-miterlimit="10"/>
<path d="M93.94 87.2999V90.9299H91.53V87.2999C91.53 86.5699 92.05 85.9599 92.74 85.8199C93.42 85.9599 93.94 86.5699 93.94 87.2999Z" fill="#030303" stroke="black" stroke-width="0.25" stroke-miterlimit="10"/>
<path d="M93.94 87.2999V90.9299H91.53V87.2999C91.53 86.5699 92.05 85.9599 92.74 85.8199C93.42 85.9599 93.94 86.5699 93.94 87.2999Z" stroke="black" stroke-width="0.25" stroke-miterlimit="10"/>
<path d="M89.5799 97.13H89.8199C92.1099 97.13 93.9699 98.99 93.9699 101.28V112.74H85.4299V101.28C85.4299 98.99 87.2899 97.13 89.5799 97.13Z" fill="#F66E4E" stroke="black" stroke-width="0.25" stroke-miterlimit="10"/>
<path d="M89.5799 97.13H89.8199C92.1099 97.13 93.9699 98.99 93.9699 101.28V112.74H85.4299V101.28C85.4299 98.99 87.2899 97.13 89.5799 97.13Z" stroke="black" stroke-width="0.25" stroke-miterlimit="10"/>
<path d="M89.74 97.79C91.79 97.79 93.45 99.45 93.45 101.5V112.82H86.03V101.5C86.03 99.45 87.69 97.79 89.74 97.79Z" fill="#EFE8DD" stroke="black" stroke-width="0.25" stroke-miterlimit="10"/>
<path d="M89.74 97.79C91.79 97.79 93.45 99.45 93.45 101.5V112.82H86.03V101.5C86.03 99.45 87.69 97.79 89.74 97.79Z" stroke="black" stroke-width="0.25" stroke-miterlimit="10"/>
<path d="M89.2698 106.6H87.3198V112.82H89.2698V106.6Z" fill="#030303" stroke="black" stroke-width="0.25" stroke-miterlimit="10"/>
<path d="M89.2698 106.6H87.3198V112.82H89.2698V106.6Z" stroke="black" stroke-width="0.25" stroke-miterlimit="10"/>
<path d="M92.17 106.6H90.22V112.82H92.17V106.6Z" fill="#030303" stroke="black" stroke-width="0.25" stroke-miterlimit="10"/>
<path d="M92.17 106.6H90.22V112.82H92.17V106.6Z" stroke="black" stroke-width="0.25" stroke-miterlimit="10"/>
<path d="M89.2698 106.08H87.3198V100.98C87.3198 100.44 87.7598 100 88.2998 100C88.8398 100 89.2798 100.44 89.2798 100.98V106.08H89.2698Z" fill="#030303" stroke="black" stroke-width="0.25" stroke-miterlimit="10"/>
<path d="M89.2698 106.08H87.3198V100.98C87.3198 100.44 87.7598 100 88.2998 100C88.8398 100 89.2798 100.44 89.2798 100.98V106.08H89.2698Z" stroke="black" stroke-width="0.25" stroke-miterlimit="10"/>
<path d="M92.18 106.08H90.23V100.98C90.23 100.44 90.67 100 91.21 100C91.75 100 92.19 100.44 92.19 100.98V106.08H92.18Z" fill="#030303" stroke="black" stroke-width="0.25" stroke-miterlimit="10"/>
<path d="M92.18 106.08H90.23V100.98C90.23 100.44 90.67 100 91.21 100C91.75 100 92.19 100.44 92.19 100.98V106.08H92.18Z" stroke="black" stroke-width="0.25" stroke-miterlimit="10"/>
</svg>
