<svg width="140" height="170" viewBox="0 0 140 170" fill="none" xmlns="http://www.w3.org/2000/svg">
<g clip-path="url(#clip0)">
<path d="M136.19 70.13C136.08 85.75 130.62 100.08 121.5 111.35L74.6899 163.94C72.0199 166.94 67.3199 166.94 64.6499 163.94L17.8399 111.35C8.6399 99.97 3.1499 85.47 3.1499 69.67C3.1499 32.89 33.0199 3.07 69.8199 3.15C106.31 3.23 136.44 33.65 136.19 70.13Z" fill="white"/>
<path d="M69.68 169.35C66.87 169.35 64.18 168.14 62.3 166.04L15.49 113.45C5.47 101.06 0 85.56 0 69.67C0 51.04 7.27 33.53 20.46 20.35C33.63 7.23 51.1 0 69.68 0C69.73 0 69.78 0 69.83 0C88.32 0.04 105.79 7.41 119.02 20.76C132.26 34.12 139.48 51.66 139.35 70.15C139.24 86.08 133.92 101.01 123.96 113.33L77.05 166.03C75.18 168.14 72.49 169.35 69.68 169.35ZM69.68 6.31C52.78 6.31 36.89 12.88 24.92 24.83C12.92 36.8 6.31 52.73 6.31 69.67C6.31 84.12 11.28 98.21 20.3 109.37L67.01 161.84C67.7 162.61 68.64 163.04 69.68 163.04C70.71 163.04 71.66 162.62 72.34 161.85L119.15 109.26C128.11 98.18 132.95 84.61 133.04 70.12C133.15 53.31 126.58 37.36 114.54 25.21C102.5 13.05 86.61 6.34 69.82 6.31C69.77 6.31 69.72 6.31 69.68 6.31Z" fill="black"/>
<path d="M82.34 61.92H52.2901C52.0201 61.92 51.8 61.7 51.8 61.43V46.13C51.8 45.86 52.0201 45.64 52.2901 45.64H82.34C82.61 45.64 82.8301 45.86 82.8301 46.13V61.42C82.8301 61.7 82.61 61.92 82.34 61.92Z" fill="#FB6337" stroke="black" stroke-width="0.25" stroke-miterlimit="10"/>
<path d="M82.34 61.92H52.2901C52.0201 61.92 51.8 61.7 51.8 61.43V46.13C51.8 45.86 52.0201 45.64 52.2901 45.64H82.34C82.61 45.64 82.8301 45.86 82.8301 46.13V61.42C82.8301 61.7 82.61 61.92 82.34 61.92Z" stroke="black" stroke-width="0.25" stroke-miterlimit="10" stroke-linecap="round" stroke-linejoin="round"/>
<path d="M75.5499 38.2401H74.2299V37.35C74.2299 37.19 74.0999 37.05 73.9299 37.05H73.8099C73.6499 37.05 73.5099 37.18 73.5099 37.35V38.2401H72.1899C72.0299 38.2401 71.9099 38.3701 71.9099 38.5201V38.59C71.9099 38.75 72.0399 38.87 72.1899 38.87H73.5099V42.42C73.5099 42.58 73.6399 42.7201 73.8099 42.7201H73.9299C74.0899 42.7201 74.2299 42.59 74.2299 42.42V38.87H75.5499C75.7099 38.87 75.8299 38.74 75.8299 38.59V38.5201C75.8299 38.3701 75.7099 38.2401 75.5499 38.2401Z" fill="#F0EADB" stroke="black" stroke-width="0.25" stroke-miterlimit="10"/>
<path d="M75.5499 38.2401H74.2299V37.35C74.2299 37.19 74.0999 37.05 73.9299 37.05H73.8099C73.6499 37.05 73.5099 37.18 73.5099 37.35V38.2401H72.1899C72.0299 38.2401 71.9099 38.3701 71.9099 38.5201V38.59C71.9099 38.75 72.0399 38.87 72.1899 38.87H73.5099V42.42C73.5099 42.58 73.6399 42.7201 73.8099 42.7201H73.9299C74.0899 42.7201 74.2299 42.59 74.2299 42.42V38.87H75.5499C75.7099 38.87 75.8299 38.74 75.8299 38.59V38.5201C75.8299 38.3701 75.7099 38.2401 75.5499 38.2401Z" stroke="black" stroke-width="0.25" stroke-miterlimit="10" stroke-linecap="round" stroke-linejoin="round"/>
<path d="M94.7201 22.77H93.4001V21.88C93.4001 21.72 93.2701 21.58 93.1001 21.58H92.9801C92.8201 21.58 92.6801 21.71 92.6801 21.88V22.77H91.3601C91.2001 22.77 91.0801 22.9 91.0801 23.05V23.12C91.0801 23.28 91.2101 23.4 91.3601 23.4H92.6801V26.95C92.6801 27.11 92.8101 27.25 92.9801 27.25H93.1001C93.2601 27.25 93.4001 27.12 93.4001 26.95V23.4H94.7201C94.8801 23.4 95.0001 23.27 95.0001 23.12V23.05C95.0001 22.9 94.8801 22.77 94.7201 22.77Z" fill="#F0EADB" stroke="black" stroke-width="0.25" stroke-miterlimit="10"/>
<path d="M94.7201 22.77H93.4001V21.88C93.4001 21.72 93.2701 21.58 93.1001 21.58H92.9801C92.8201 21.58 92.6801 21.71 92.6801 21.88V22.77H91.3601C91.2001 22.77 91.0801 22.9 91.0801 23.05V23.12C91.0801 23.28 91.2101 23.4 91.3601 23.4H92.6801V26.95C92.6801 27.11 92.8101 27.25 92.9801 27.25H93.1001C93.2601 27.25 93.4001 27.12 93.4001 26.95V23.4H94.7201C94.8801 23.4 95.0001 23.27 95.0001 23.12V23.05C95.0001 22.9 94.8801 22.77 94.7201 22.77Z" stroke="black" stroke-width="0.25" stroke-miterlimit="10" stroke-linecap="round" stroke-linejoin="round"/>
<path d="M44.11 22.71H42.79V21.82C42.79 21.66 42.66 21.52 42.49 21.52H42.37C42.21 21.52 42.07 21.65 42.07 21.82V22.71H40.75C40.59 22.71 40.47 22.84 40.47 22.99V23.06C40.47 23.22 40.6 23.34 40.75 23.34H42.07V26.89C42.07 27.05 42.2 27.19 42.37 27.19H42.49C42.65 27.19 42.79 27.06 42.79 26.89V23.34H44.11C44.27 23.34 44.39 23.21 44.39 23.06V23C44.39 22.84 44.27 22.71 44.11 22.71Z" fill="#F0EADB" stroke="black" stroke-width="0.25" stroke-miterlimit="10"/>
<path d="M44.11 22.71H42.79V21.82C42.79 21.66 42.66 21.52 42.49 21.52H42.37C42.21 21.52 42.07 21.65 42.07 21.82V22.71H40.75C40.59 22.71 40.47 22.84 40.47 22.99V23.06C40.47 23.22 40.6 23.34 40.75 23.34H42.07V26.89C42.07 27.05 42.2 27.19 42.37 27.19H42.49C42.65 27.19 42.79 27.06 42.79 26.89V23.34H44.11C44.27 23.34 44.39 23.21 44.39 23.06V23C44.39 22.84 44.27 22.71 44.11 22.71Z" stroke="black" stroke-width="0.25" stroke-miterlimit="10" stroke-linecap="round" stroke-linejoin="round"/>
<path d="M69.2999 26.47H67.9799V25.58C67.9799 25.42 67.8499 25.28 67.6799 25.28H67.5599C67.3999 25.28 67.2599 25.41 67.2599 25.58V26.47H65.9399C65.7799 26.47 65.6599 26.6 65.6599 26.75V26.82C65.6599 26.98 65.7899 27.1 65.9399 27.1H67.2599V30.65C67.2599 30.81 67.3899 30.95 67.5599 30.95H67.6799C67.8399 30.95 67.9799 30.82 67.9799 30.65V27.1H69.2999C69.4599 27.1 69.5799 26.97 69.5799 26.82V26.75C69.5799 26.59 69.4599 26.47 69.2999 26.47Z" fill="#F0EADB" stroke="black" stroke-width="0.25" stroke-miterlimit="10"/>
<path d="M69.2999 26.47H67.9799V25.58C67.9799 25.42 67.8499 25.28 67.6799 25.28H67.5599C67.3999 25.28 67.2599 25.41 67.2599 25.58V26.47H65.9399C65.7799 26.47 65.6599 26.6 65.6599 26.75V26.82C65.6599 26.98 65.7899 27.1 65.9399 27.1H67.2599V30.65C67.2599 30.81 67.3899 30.95 67.5599 30.95H67.6799C67.8399 30.95 67.9799 30.82 67.9799 30.65V27.1H69.2999C69.4599 27.1 69.5799 26.97 69.5799 26.82V26.75C69.5799 26.59 69.4599 26.47 69.2999 26.47Z" stroke="black" stroke-width="0.25" stroke-miterlimit="10" stroke-linecap="round" stroke-linejoin="round"/>
<path d="M63.2799 38.2401H61.9599V37.35C61.9599 37.19 61.8299 37.05 61.6599 37.05H61.5399C61.3799 37.05 61.2399 37.18 61.2399 37.35V38.2401H59.9199C59.7599 38.2401 59.6399 38.3701 59.6399 38.5201V38.59C59.6399 38.75 59.7699 38.87 59.9199 38.87H61.2399V42.42C61.2399 42.58 61.3699 42.7201 61.5399 42.7201H61.6599C61.8199 42.7201 61.9599 42.59 61.9599 42.42V38.87H63.2799C63.4399 38.87 63.5599 38.74 63.5599 38.59V38.5201C63.5599 38.3701 63.4299 38.2401 63.2799 38.2401Z" fill="#F0EADB" stroke="black" stroke-width="0.25" stroke-miterlimit="10"/>
<path d="M63.2799 38.2401H61.9599V37.35C61.9599 37.19 61.8299 37.05 61.6599 37.05H61.5399C61.3799 37.05 61.2399 37.18 61.2399 37.35V38.2401H59.9199C59.7599 38.2401 59.6399 38.3701 59.6399 38.5201V38.59C59.6399 38.75 59.7699 38.87 59.9199 38.87H61.2399V42.42C61.2399 42.58 61.3699 42.7201 61.5399 42.7201H61.6599C61.8199 42.7201 61.9599 42.59 61.9599 42.42V38.87H63.2799C63.4399 38.87 63.5599 38.74 63.5599 38.59V38.5201C63.5599 38.3701 63.4299 38.2401 63.2799 38.2401Z" stroke="black" stroke-width="0.25" stroke-miterlimit="10" stroke-linecap="round" stroke-linejoin="round"/>
<path d="M67.74 60.1801H27.1C25.55 60.1801 24.29 61.4401 24.29 62.9901L25.77 66.2501V101.61H67.75H109.73V66.2501L111.21 62.9901C111.21 61.4401 109.95 60.1801 108.4 60.1801H67.74Z" fill="#F0A2BD" stroke="black" stroke-width="0.25" stroke-miterlimit="10"/>
<path d="M67.74 60.1801H27.1C25.55 60.1801 24.29 61.4401 24.29 62.9901L25.77 66.2501V101.61H67.75H109.73V66.2501L111.21 62.9901C111.21 61.4401 109.95 60.1801 108.4 60.1801H67.74Z" stroke="black" stroke-width="0.25" stroke-miterlimit="10" stroke-linecap="round" stroke-linejoin="round"/>
<path d="M74.29 43.9501H60.95C60.43 43.9501 60.01 43.5301 60.01 43.0101C60.01 42.4901 60.43 42.0701 60.95 42.0701H74.3C74.82 42.0701 75.24 42.4901 75.24 43.0101C75.24 43.5301 74.81 43.9501 74.29 43.9501Z" fill="#FB6337" stroke="black" stroke-width="0.25" stroke-miterlimit="10"/>
<path d="M74.29 43.9501H60.95C60.43 43.9501 60.01 43.5301 60.01 43.0101C60.01 42.4901 60.43 42.0701 60.95 42.0701H74.3C74.82 42.0701 75.24 42.4901 75.24 43.0101C75.24 43.5301 74.81 43.9501 74.29 43.9501Z" stroke="black" stroke-width="0.25" stroke-miterlimit="10" stroke-linecap="round" stroke-linejoin="round"/>
<path d="M59.72 54.5H24.28V60.18H59.72V54.5Z" fill="#F0A2BD" stroke="black" stroke-width="0.25" stroke-miterlimit="10"/>
<path d="M59.72 54.5H24.28V60.18H59.72V54.5Z" stroke="black" stroke-width="0.25" stroke-miterlimit="10" stroke-linecap="round" stroke-linejoin="round"/>
<path d="M50.6198 38.5L43.9798 27C43.2598 25.76 41.4698 25.76 40.7498 27L34.0998 38.5C33.7598 39.08 33.1398 39.44 32.4698 39.43C31.4298 39.42 30.5898 40.26 30.5898 41.29V48.29C30.5898 49.32 31.4198 50.15 32.4498 50.15H42.3598H52.2698C53.2998 50.15 54.1298 49.32 54.1298 48.29V41.29C54.1298 40.25 53.2898 39.42 52.2498 39.43C51.5798 39.44 50.9598 39.09 50.6198 38.5Z" fill="#F0A2BD" stroke="black" stroke-width="0.25" stroke-miterlimit="10"/>
<path d="M50.6198 38.5L43.9798 27C43.2598 25.76 41.4698 25.76 40.7498 27L34.0998 38.5C33.7598 39.08 33.1398 39.44 32.4698 39.43C31.4298 39.42 30.5898 40.26 30.5898 41.29V48.29C30.5898 49.32 31.4198 50.15 32.4498 50.15H42.3598H52.2698C53.2998 50.15 54.1298 49.32 54.1298 48.29V41.29C54.1298 40.25 53.2898 39.42 52.2498 39.43C51.5798 39.44 50.9598 39.09 50.6198 38.5Z" stroke="black" stroke-width="0.25" stroke-miterlimit="10" stroke-linecap="round" stroke-linejoin="round"/>
<path d="M30.5099 48.27L24.7699 54.3C24.5899 54.49 24.7199 54.8 24.9899 54.8H25.1099C25.2699 54.8 25.4099 54.93 25.4099 55.1V56.91C25.4099 57.07 25.5399 57.21 25.7099 57.21H27.1499C27.3099 57.21 27.4499 57.08 27.4499 56.91V55.01C27.4499 54.85 27.5799 54.71 27.7499 54.71H31.3099C31.4699 54.71 31.6099 54.84 31.6099 55.01V56.91C31.6099 57.07 31.7399 57.21 31.9099 57.21H35.4399C35.5999 57.21 35.7399 57.08 35.7399 56.91V55.01C35.7399 54.85 35.8699 54.71 36.0399 54.71H48.2599C48.4199 54.71 48.5599 54.84 48.5599 55.01V56.91C48.5599 57.07 48.6899 57.21 48.8599 57.21H52.3099C52.4699 57.21 52.6099 57.08 52.6099 56.91V55.01C52.6099 54.85 52.7399 54.71 52.9099 54.71H56.4399C56.5999 54.71 56.7399 54.84 56.7399 55.01V56.91C56.7399 57.07 56.8699 57.21 57.0399 57.21H58.4199C58.5799 57.21 58.7199 57.08 58.7199 56.91V55.1C58.7199 54.94 58.8499 54.8 59.0199 54.8H59.1099C59.3599 54.8 59.4999 54.5 59.3399 54.31L54.2499 48.28C54.1899 48.21 54.1099 48.17 54.0199 48.17H30.7199C30.6399 48.17 30.5599 48.21 30.5099 48.27Z" fill="#FB6337" stroke="black" stroke-width="0.25" stroke-miterlimit="10"/>
<path d="M30.5099 48.27L24.7699 54.3C24.5899 54.49 24.7199 54.8 24.9899 54.8H25.1099C25.2699 54.8 25.4099 54.93 25.4099 55.1V56.91C25.4099 57.07 25.5399 57.21 25.7099 57.21H27.1499C27.3099 57.21 27.4499 57.08 27.4499 56.91V55.01C27.4499 54.85 27.5799 54.71 27.7499 54.71H31.3099C31.4699 54.71 31.6099 54.84 31.6099 55.01V56.91C31.6099 57.07 31.7399 57.21 31.9099 57.21H35.4399C35.5999 57.21 35.7399 57.08 35.7399 56.91V55.01C35.7399 54.85 35.8699 54.71 36.0399 54.71H48.2599C48.4199 54.71 48.5599 54.84 48.5599 55.01V56.91C48.5599 57.07 48.6899 57.21 48.8599 57.21H52.3099C52.4699 57.21 52.6099 57.08 52.6099 56.91V55.01C52.6099 54.85 52.7399 54.71 52.9099 54.71H56.4399C56.5999 54.71 56.7399 54.84 56.7399 55.01V56.91C56.7399 57.07 56.8699 57.21 57.0399 57.21H58.4199C58.5799 57.21 58.7199 57.08 58.7199 56.91V55.1C58.7199 54.94 58.8499 54.8 59.0199 54.8H59.1099C59.3599 54.8 59.4999 54.5 59.3399 54.31L54.2499 48.28C54.1899 48.21 54.1099 48.17 54.0199 48.17H30.7199C30.6399 48.17 30.5599 48.21 30.5099 48.27Z" stroke="black" stroke-width="0.25" stroke-miterlimit="10" stroke-linecap="round" stroke-linejoin="round"/>
<path d="M70.19 39.89H65.28V42.07H70.19V39.89Z" fill="#F0A2BD" stroke="black" stroke-width="0.25" stroke-miterlimit="10"/>
<path d="M70.19 39.89H65.28V42.07H70.19V39.89Z" stroke="black" stroke-width="0.25" stroke-miterlimit="10" stroke-linecap="round" stroke-linejoin="round"/>
<path d="M70.19 35.7301H65.28V30.6201C65.28 30.3201 65.52 30.0801 65.82 30.0801H69.66C69.96 30.0801 70.2 30.3201 70.2 30.6201V35.7301H70.19Z" fill="#F0A2BD" stroke="black" stroke-width="0.25" stroke-miterlimit="10"/>
<path d="M70.19 35.7301H65.28V30.6201C65.28 30.3201 65.52 30.0801 65.82 30.0801H69.66C69.96 30.0801 70.2 30.3201 70.2 30.6201V35.7301H70.19Z" stroke="black" stroke-width="0.25" stroke-miterlimit="10" stroke-linecap="round" stroke-linejoin="round"/>
<path d="M70.19 35.73H65.28V39.89H70.19V35.73Z" fill="#FB6337" stroke="black" stroke-width="0.25" stroke-miterlimit="10"/>
<path d="M70.19 35.73H65.28V39.89H70.19V35.73Z" stroke="black" stroke-width="0.25" stroke-miterlimit="10" stroke-linecap="round" stroke-linejoin="round"/>
<path d="M110.33 54.5H74.8899V60.18H110.33V54.5Z" fill="#F0A2BD" stroke="black" stroke-width="0.25" stroke-miterlimit="10"/>
<path d="M110.33 54.5H74.8899V60.18H110.33V54.5Z" stroke="black" stroke-width="0.25" stroke-miterlimit="10" stroke-linecap="round" stroke-linejoin="round"/>
<path d="M101.23 38.5L94.5799 27C93.8599 25.76 92.0699 25.76 91.3499 27L84.6999 38.5C84.3599 39.08 83.7399 39.44 83.0699 39.43C82.0299 39.42 81.1899 40.26 81.1899 41.29V48.29C81.1899 49.32 82.0199 50.15 83.0499 50.15H92.9599H102.87C103.9 50.15 104.73 49.32 104.73 48.29V41.29C104.73 40.25 103.89 39.42 102.85 39.43C102.19 39.44 101.57 39.09 101.23 38.5Z" fill="#F0A2BD" stroke="black" stroke-width="0.25" stroke-miterlimit="10"/>
<path d="M101.23 38.5L94.5799 27C93.8599 25.76 92.0699 25.76 91.3499 27L84.6999 38.5C84.3599 39.08 83.7399 39.44 83.0699 39.43C82.0299 39.42 81.1899 40.26 81.1899 41.29V48.29C81.1899 49.32 82.0199 50.15 83.0499 50.15H92.9599H102.87C103.9 50.15 104.73 49.32 104.73 48.29V41.29C104.73 40.25 103.89 39.42 102.85 39.43C102.19 39.44 101.57 39.09 101.23 38.5Z" stroke="black" stroke-width="0.25" stroke-miterlimit="10" stroke-linecap="round" stroke-linejoin="round"/>
<path d="M81.11 48.28L75.42 54.25C75.22 54.46 75.37 54.8 75.66 54.8H75.69C75.87 54.8 76.02 54.95 76.02 55.13V56.88C76.02 57.06 76.17 57.21 76.35 57.21H77.73C77.91 57.21 78.06 57.06 78.06 56.88V55.04C78.06 54.86 78.21 54.71 78.39 54.71H81.89C82.07 54.71 82.22 54.86 82.22 55.04V56.88C82.22 57.06 82.37 57.21 82.55 57.21H86C86.18 57.21 86.33 57.06 86.33 56.88V55.04C86.33 54.86 86.48 54.71 86.66 54.71H98.82C99 54.71 99.15 54.86 99.15 55.04V56.88C99.15 57.06 99.3 57.21 99.48 57.21H102.87C103.05 57.21 103.2 57.06 103.2 56.88V55.04C103.2 54.86 103.35 54.71 103.53 54.71H107C107.18 54.71 107.33 54.86 107.33 55.04V56.88C107.33 57.06 107.48 57.21 107.66 57.21H108.98C109.16 57.21 109.31 57.06 109.31 56.88V55.13C109.31 54.95 109.46 54.8 109.64 54.8C109.92 54.8 110.07 54.47 109.89 54.26L104.85 48.29C104.79 48.22 104.7 48.17 104.6 48.17H81.34C81.25 48.17 81.17 48.21 81.11 48.28Z" fill="#FB6337" stroke="black" stroke-width="0.25" stroke-miterlimit="10"/>
<path d="M81.11 48.28L75.42 54.25C75.22 54.46 75.37 54.8 75.66 54.8H75.69C75.87 54.8 76.02 54.95 76.02 55.13V56.88C76.02 57.06 76.17 57.21 76.35 57.21H77.73C77.91 57.21 78.06 57.06 78.06 56.88V55.04C78.06 54.86 78.21 54.71 78.39 54.71H81.89C82.07 54.71 82.22 54.86 82.22 55.04V56.88C82.22 57.06 82.37 57.21 82.55 57.21H86C86.18 57.21 86.33 57.06 86.33 56.88V55.04C86.33 54.86 86.48 54.71 86.66 54.71H98.82C99 54.71 99.15 54.86 99.15 55.04V56.88C99.15 57.06 99.3 57.21 99.48 57.21H102.87C103.05 57.21 103.2 57.06 103.2 56.88V55.04C103.2 54.86 103.35 54.71 103.53 54.71H107C107.18 54.71 107.33 54.86 107.33 55.04V56.88C107.33 57.06 107.48 57.21 107.66 57.21H108.98C109.16 57.21 109.31 57.06 109.31 56.88V55.13C109.31 54.95 109.46 54.8 109.64 54.8C109.92 54.8 110.07 54.47 109.89 54.26L104.85 48.29C104.79 48.22 104.7 48.17 104.6 48.17H81.34C81.25 48.17 81.17 48.21 81.11 48.28Z" stroke="black" stroke-width="0.25" stroke-miterlimit="10" stroke-linecap="round" stroke-linejoin="round"/>
<path d="M77.9699 101.61H56.4399V90.86C56.4399 84.92 61.2599 80.1 67.1999 80.1C73.1399 80.1 77.9599 84.92 77.9599 90.86V101.61H77.9699Z" fill="#F0A2BD" stroke="black" stroke-width="0.25" stroke-miterlimit="10"/>
<path d="M77.9699 101.61H56.4399V90.86C56.4399 84.92 61.2599 80.1 67.1999 80.1C73.1399 80.1 77.9599 84.92 77.9599 90.86V101.61H77.9699Z" stroke="black" stroke-width="0.25" stroke-miterlimit="10" stroke-linecap="round" stroke-linejoin="round"/>
<path d="M76.26 101.61H58.22V90.9501C58.22 85.9701 62.26 81.9301 67.24 81.9301C72.22 81.9301 76.26 85.9701 76.26 90.9501V101.61Z" fill="#FB6337" stroke="black" stroke-width="0.25" stroke-miterlimit="10"/>
<path d="M76.26 101.61H58.22V90.9501C58.22 85.9701 62.26 81.9301 67.24 81.9301C72.22 81.9301 76.26 85.9701 76.26 90.9501V101.61V101.61Z" stroke="black" stroke-width="0.25" stroke-miterlimit="10" stroke-linecap="round" stroke-linejoin="round"/>
<path d="M74.4799 101.61H59.9199V91.03C59.9199 87.01 63.1799 83.75 67.1999 83.75C71.2199 83.75 74.4799 87.01 74.4799 91.03V101.61Z" fill="#F0A2BD" stroke="black" stroke-width="0.25" stroke-miterlimit="10"/>
<path d="M74.4799 101.61H59.9199V91.03C59.9199 87.01 63.1799 83.75 67.1999 83.75C71.2199 83.75 74.4799 87.01 74.4799 91.03V101.61Z" stroke="black" stroke-width="0.25" stroke-miterlimit="10" stroke-linecap="round" stroke-linejoin="round"/>
<path d="M72.7399 91.1101V101.62H61.6699V91.1101C61.6699 88.0501 64.1499 85.5701 67.2099 85.5701C67.5099 85.5701 67.7999 85.5901 68.0799 85.6401C69.2599 85.8301 70.3199 86.3901 71.1299 87.1901C72.1199 88.1901 72.7399 89.5801 72.7399 91.1101Z" fill="#FB6337" stroke="black" stroke-width="0.25" stroke-miterlimit="10"/>
<path d="M72.7399 91.1101V101.62H61.6699V91.1101C61.6699 88.0501 64.1499 85.5701 67.2099 85.5701C67.5099 85.5701 67.7999 85.5901 68.0799 85.6401C69.2599 85.8301 70.3199 86.3901 71.1299 87.1901C72.1199 88.1901 72.7399 89.5801 72.7399 91.1101Z" stroke="black" stroke-width="0.25" stroke-miterlimit="10" stroke-linecap="round" stroke-linejoin="round"/>
<path d="M72.7399 91.11V101.62H63.3999V91.11C63.3999 88.35 65.4199 86.06 68.0699 85.64C69.2499 85.83 70.3099 86.39 71.1199 87.19C72.1199 88.19 72.7399 89.58 72.7399 91.11Z" fill="black" stroke="black" stroke-width="0.25" stroke-miterlimit="10"/>
<path d="M72.7399 91.11V101.62H63.3999V91.11C63.3999 88.35 65.4199 86.06 68.0699 85.64C69.2499 85.83 70.3099 86.39 71.1199 87.19C72.1199 88.19 72.7399 89.58 72.7399 91.11Z" stroke="black" stroke-width="0.25" stroke-miterlimit="10" stroke-linecap="round" stroke-linejoin="round"/>
<path d="M46.2598 92.28H35.0898V78.98H46.2598V92.28Z" fill="#FB6337" stroke="black" stroke-width="0.25" stroke-miterlimit="10"/>
<path d="M46.2598 92.28H35.0898V78.98H46.2598V92.28Z" stroke="black" stroke-width="0.25" stroke-miterlimit="10" stroke-linecap="round" stroke-linejoin="round"/>
<path d="M44.8999 80.75V81.06L44.7799 90.64C44.7799 90.81 44.6399 90.95 44.4699 90.95H36.7899C36.6199 90.95 36.4799 90.81 36.4799 90.64L36.3599 81.06V80.75C36.3599 80.08 36.8999 79.53 37.5799 79.53H38.1299C38.2799 79.53 38.4199 79.56 38.5599 79.61C39.0199 79.78 39.3399 80.22 39.3499 80.74C39.3499 80.91 39.4799 81.05 39.6399 81.06C39.8199 81.07 39.9599 80.93 39.9599 80.75V80.43C39.9599 80.32 39.9799 80.22 40.0099 80.13C40.0399 80.05 40.0799 79.98 40.1299 79.92C40.3699 80.14 40.5199 80.45 40.5199 80.8C40.5199 80.97 40.6499 81.11 40.8099 81.12C40.9899 81.13 41.1299 80.99 41.1299 80.81V80.49C41.1299 80.38 41.1499 80.28 41.1799 80.19C41.1899 80.16 41.2099 80.12 41.2199 80.09C41.2299 80.1 41.2299 80.11 41.2299 80.13C41.2599 80.22 41.2799 80.32 41.2799 80.43V80.75C41.2799 80.93 41.4199 81.07 41.5999 81.06C41.7699 81.05 41.8899 80.91 41.8899 80.74C41.8899 80.42 42.0199 80.13 42.2199 79.92C42.2999 79.99 42.3599 80.08 42.3999 80.19C42.4299 80.28 42.4499 80.38 42.4499 80.49V80.81C42.4499 80.99 42.5899 81.13 42.7699 81.12C42.9399 81.11 43.0599 80.97 43.0599 80.8C43.0699 80.2 43.4999 79.71 44.0699 79.62C44.5699 79.78 44.8999 80.23 44.8999 80.75Z" fill="#F0A2BD" stroke="black" stroke-width="0.25" stroke-miterlimit="10"/>
<path d="M44.8999 80.75V81.06L44.7799 90.64C44.7799 90.81 44.6399 90.95 44.4699 90.95H36.7899C36.6199 90.95 36.4799 90.81 36.4799 90.64L36.3599 81.06V80.75C36.3599 80.08 36.8999 79.53 37.5799 79.53H38.1299C38.2799 79.53 38.4199 79.56 38.5599 79.61C39.0199 79.78 39.3399 80.22 39.3499 80.74C39.3499 80.91 39.4799 81.05 39.6399 81.06C39.8199 81.07 39.9599 80.93 39.9599 80.75V80.43C39.9599 80.32 39.9799 80.22 40.0099 80.13C40.0399 80.05 40.0799 79.98 40.1299 79.92C40.3699 80.14 40.5199 80.45 40.5199 80.8C40.5199 80.97 40.6499 81.11 40.8099 81.12C40.9899 81.13 41.1299 80.99 41.1299 80.81V80.49C41.1299 80.38 41.1499 80.28 41.1799 80.19C41.1899 80.16 41.2099 80.12 41.2199 80.09C41.2299 80.1 41.2299 80.11 41.2299 80.13C41.2599 80.22 41.2799 80.32 41.2799 80.43V80.75C41.2799 80.93 41.4199 81.07 41.5999 81.06C41.7699 81.05 41.8899 80.91 41.8899 80.74C41.8899 80.42 42.0199 80.13 42.2199 79.92C42.2999 79.99 42.3599 80.08 42.3999 80.19C42.4299 80.28 42.4499 80.38 42.4499 80.49V80.81C42.4499 80.99 42.5899 81.13 42.7699 81.12C42.9399 81.11 43.0599 80.97 43.0599 80.8C43.0699 80.2 43.4999 79.71 44.0699 79.62C44.5699 79.78 44.8999 80.23 44.8999 80.75Z" stroke="black" stroke-width="0.25" stroke-miterlimit="10" stroke-linecap="round" stroke-linejoin="round"/>
<path d="M38.57 87.17C38.12 87.17 37.76 86.81 37.76 86.36V84.86C37.76 84.41 38.12 84.05 38.57 84.05C39.02 84.05 39.38 84.41 39.38 84.86V86.36C39.39 86.81 39.02 87.17 38.57 87.17Z" fill="#FB6337" stroke="black" stroke-width="0.25" stroke-miterlimit="10"/>
<path d="M38.57 87.17C38.12 87.17 37.76 86.81 37.76 86.36V84.86C37.76 84.41 38.12 84.05 38.57 84.05C39.02 84.05 39.38 84.41 39.38 84.86V86.36C39.39 86.81 39.02 87.17 38.57 87.17Z" stroke="black" stroke-width="0.25" stroke-miterlimit="10" stroke-linecap="round" stroke-linejoin="round"/>
<path d="M42.85 87.17C42.4 87.17 42.04 86.81 42.04 86.36V84.86C42.04 84.41 42.4 84.05 42.85 84.05C43.3 84.05 43.66 84.41 43.66 84.86V86.36C43.66 86.81 43.3 87.17 42.85 87.17Z" fill="#FB6337" stroke="black" stroke-width="0.25" stroke-miterlimit="10"/>
<path d="M42.85 87.17C42.4 87.17 42.04 86.81 42.04 86.36V84.86C42.04 84.41 42.4 84.05 42.85 84.05C43.3 84.05 43.66 84.41 43.66 84.86V86.36C43.66 86.81 43.3 87.17 42.85 87.17Z" stroke="black" stroke-width="0.25" stroke-miterlimit="10" stroke-linecap="round" stroke-linejoin="round"/>
<path d="M41.06 84.7201V83.2401C41.06 83.1001 41.17 82.9901 41.31 82.9901C41.45 82.9901 41.56 82.8801 41.56 82.7401V82.7201C41.56 82.5801 41.45 82.4701 41.31 82.4701C41.17 82.4701 41.06 82.3601 41.06 82.2201V81.8101C41.06 81.6701 40.95 81.5601 40.81 81.5601H40.63H40.45C40.31 81.5601 40.2 81.6701 40.2 81.8101V82.2201C40.2 82.3601 40.09 82.4701 39.95 82.4701C39.81 82.4701 39.7 82.5801 39.7 82.7201V82.7401C39.7 82.8801 39.81 82.9901 39.95 82.9901C40.09 82.9901 40.2 83.1001 40.2 83.2401V84.7201C40.2 84.8601 40.09 84.9701 39.95 84.9701H39.46C39.32 84.9701 39.21 85.0801 39.21 85.2201V85.8001C39.21 85.9401 39.32 86.0501 39.46 86.0501H40.63H41.8C41.94 86.0501 42.05 85.9401 42.05 85.8001V85.2201C42.05 85.0801 41.94 84.9701 41.8 84.9701H41.3C41.17 84.9601 41.06 84.8501 41.06 84.7201Z" fill="#ECDDBF" stroke="black" stroke-width="0.25" stroke-miterlimit="10"/>
<path d="M41.06 84.7201V83.2401C41.06 83.1001 41.17 82.9901 41.31 82.9901C41.45 82.9901 41.56 82.8801 41.56 82.7401V82.7201C41.56 82.5801 41.45 82.4701 41.31 82.4701C41.17 82.4701 41.06 82.3601 41.06 82.2201V81.8101C41.06 81.6701 40.95 81.5601 40.81 81.5601H40.63H40.45C40.31 81.5601 40.2 81.6701 40.2 81.8101V82.2201C40.2 82.3601 40.09 82.4701 39.95 82.4701C39.81 82.4701 39.7 82.5801 39.7 82.7201V82.7401C39.7 82.8801 39.81 82.9901 39.95 82.9901C40.09 82.9901 40.2 83.1001 40.2 83.2401V84.7201C40.2 84.8601 40.09 84.9701 39.95 84.9701H39.46C39.32 84.9701 39.21 85.0801 39.21 85.2201V85.8001C39.21 85.9401 39.32 86.0501 39.46 86.0501H40.63H41.8C41.94 86.0501 42.05 85.9401 42.05 85.8001V85.2201C42.05 85.0801 41.94 84.9701 41.8 84.9701H41.3C41.17 84.9601 41.06 84.8501 41.06 84.7201Z" stroke="black" stroke-width="0.25" stroke-miterlimit="10" stroke-linecap="round" stroke-linejoin="round"/>
<path d="M46.3799 78.9801H34.9999C34.6499 78.9801 34.3599 78.6901 34.3599 78.3401C34.3599 77.9901 34.6499 77.7001 34.9999 77.7001H46.3799C46.7299 77.7001 47.0199 77.9901 47.0199 78.3401C47.0199 78.6901 46.7299 78.9801 46.3799 78.9801Z" fill="#F0EADB" stroke="black" stroke-width="0.25" stroke-miterlimit="10"/>
<path d="M46.3799 78.9801H34.9999C34.6499 78.9801 34.3599 78.6901 34.3599 78.3401C34.3599 77.9901 34.6499 77.7001 34.9999 77.7001H46.3799C46.7299 77.7001 47.0199 77.9901 47.0199 78.3401C47.0199 78.6901 46.7299 78.9801 46.3799 78.9801Z" stroke="black" stroke-width="0.25" stroke-miterlimit="10" stroke-linecap="round" stroke-linejoin="round"/>
<path d="M46.3799 93.56H34.9999C34.6499 93.56 34.3599 93.27 34.3599 92.92C34.3599 92.57 34.6499 92.28 34.9999 92.28H46.3799C46.7299 92.28 47.0199 92.57 47.0199 92.92C47.0199 93.27 46.7299 93.56 46.3799 93.56Z" fill="#F0EADB" stroke="black" stroke-width="0.25" stroke-miterlimit="10"/>
<path d="M46.3799 93.56H34.9999C34.6499 93.56 34.3599 93.27 34.3599 92.92C34.3599 92.57 34.6499 92.28 34.9999 92.28H46.3799C46.7299 92.28 47.0199 92.57 47.0199 92.92C47.0199 93.27 46.7299 93.56 46.3799 93.56Z" stroke="black" stroke-width="0.25" stroke-miterlimit="10" stroke-linecap="round" stroke-linejoin="round"/>
<path d="M99.5098 92.16H88.3398V78.86H99.5098H99.5198V92.16H99.5098Z" fill="#FB6337" stroke="black" stroke-width="0.25" stroke-miterlimit="10"/>
<path d="M99.5098 92.16H88.3398V78.86H99.5098H99.5198V92.16H99.5098Z" stroke="black" stroke-width="0.25" stroke-miterlimit="10" stroke-linecap="round" stroke-linejoin="round"/>
<path d="M98.1499 80.63V80.94L98.0299 90.52C98.0299 90.69 97.8899 90.83 97.7199 90.83H90.0399C89.8699 90.83 89.7299 90.69 89.7299 90.52L89.6099 80.94V80.63C89.6099 79.96 90.1499 79.41 90.8299 79.41H91.3799C91.5299 79.41 91.6699 79.44 91.8099 79.49C92.2699 79.66 92.5899 80.1 92.5999 80.62C92.5999 80.79 92.7299 80.93 92.8899 80.94C93.0699 80.95 93.2099 80.81 93.2099 80.63V80.3C93.2099 80.19 93.2299 80.09 93.2599 80C93.2899 79.92 93.3299 79.85 93.3799 79.79C93.6199 80.01 93.7699 80.32 93.7699 80.67C93.7699 80.84 93.8999 80.98 94.0599 80.99C94.2399 81 94.3799 80.86 94.3799 80.68V80.36C94.3799 80.26 94.3999 80.15 94.4299 80.06C94.4399 80.03 94.4599 79.99 94.4699 79.96C94.4799 79.97 94.4799 79.98 94.4799 80C94.5099 80.09 94.5299 80.19 94.5299 80.3V80.62C94.5299 80.8 94.6699 80.94 94.8499 80.93C95.0199 80.92 95.1399 80.78 95.1399 80.61C95.1399 80.29 95.2699 80 95.4699 79.79C95.5499 79.86 95.6099 79.95 95.6499 80.06C95.6799 80.15 95.6999 80.25 95.6999 80.36V80.68C95.6999 80.86 95.8399 81 96.0199 80.99C96.1899 80.98 96.3099 80.84 96.3099 80.67C96.3199 80.07 96.7499 79.58 97.3199 79.49C97.8199 79.66 98.1499 80.11 98.1499 80.63Z" fill="#F0A2BD" stroke="black" stroke-width="0.25" stroke-miterlimit="10"/>
<path d="M98.1499 80.63V80.94L98.0299 90.52C98.0299 90.69 97.8899 90.83 97.7199 90.83H90.0399C89.8699 90.83 89.7299 90.69 89.7299 90.52L89.6099 80.94V80.63C89.6099 79.96 90.1499 79.41 90.8299 79.41H91.3799C91.5299 79.41 91.6699 79.44 91.8099 79.49C92.2699 79.66 92.5899 80.1 92.5999 80.62C92.5999 80.79 92.7299 80.93 92.8899 80.94C93.0699 80.95 93.2099 80.81 93.2099 80.63V80.3C93.2099 80.19 93.2299 80.09 93.2599 80C93.2899 79.92 93.3299 79.85 93.3799 79.79C93.6199 80.01 93.7699 80.32 93.7699 80.67C93.7699 80.84 93.8999 80.98 94.0599 80.99C94.2399 81 94.3799 80.86 94.3799 80.68V80.36C94.3799 80.26 94.3999 80.15 94.4299 80.06C94.4399 80.03 94.4599 79.99 94.4699 79.96C94.4799 79.97 94.4799 79.98 94.4799 80C94.5099 80.09 94.5299 80.19 94.5299 80.3V80.62C94.5299 80.8 94.6699 80.94 94.8499 80.93C95.0199 80.92 95.1399 80.78 95.1399 80.61C95.1399 80.29 95.2699 80 95.4699 79.79C95.5499 79.86 95.6099 79.95 95.6499 80.06C95.6799 80.15 95.6999 80.25 95.6999 80.36V80.68C95.6999 80.86 95.8399 81 96.0199 80.99C96.1899 80.98 96.3099 80.84 96.3099 80.67C96.3199 80.07 96.7499 79.58 97.3199 79.49C97.8199 79.66 98.1499 80.11 98.1499 80.63Z" stroke="black" stroke-width="0.25" stroke-miterlimit="10" stroke-linecap="round" stroke-linejoin="round"/>
<path d="M44.1101 79.61C43.9801 79.56 43.8301 79.53 43.6801 79.53H43.1301C42.7801 79.53 42.4701 79.68 42.2501 79.91C42.0501 80.12 41.9201 80.41 41.9201 80.73C41.9201 80.9 41.7901 81.04 41.6301 81.05C41.4501 81.06 41.3101 80.92 41.3101 80.74V80.42C41.3101 80.31 41.2901 80.21 41.2601 80.12C41.2601 80.11 41.2501 80.1 41.2501 80.08C41.0601 79.62 40.4501 79.56 40.1501 79.9C40.1001 79.96 40.0601 80.03 40.0301 80.11C40.0001 80.2 39.9801 80.3 39.9801 80.41V80.73C39.9801 80.91 39.8401 81.05 39.6601 81.04C39.4901 81.03 39.3701 80.89 39.3701 80.72C39.3701 80.2 39.0401 79.77 38.5801 79.59C38.0101 79.69 37.5701 80.19 37.5701 80.79V81.1L37.6901 90.68C37.6901 90.78 37.7401 90.87 37.8201 90.93H44.5001C44.6701 90.93 44.8101 90.79 44.8101 90.62L44.9301 81.04V80.73C44.9001 80.23 44.5701 79.78 44.1101 79.61Z" fill="black" stroke="black" stroke-width="0.25" stroke-miterlimit="10"/>
<path d="M44.1101 79.61C43.9801 79.56 43.8301 79.53 43.6801 79.53H43.1301C42.7801 79.53 42.4701 79.68 42.2501 79.91C42.0501 80.12 41.9201 80.41 41.9201 80.73C41.9201 80.9 41.7901 81.04 41.6301 81.05C41.4501 81.06 41.3101 80.92 41.3101 80.74V80.42C41.3101 80.31 41.2901 80.21 41.2601 80.12C41.2601 80.11 41.2501 80.1 41.2501 80.08C41.0601 79.62 40.4501 79.56 40.1501 79.9C40.1001 79.96 40.0601 80.03 40.0301 80.11C40.0001 80.2 39.9801 80.3 39.9801 80.41V80.73C39.9801 80.91 39.8401 81.05 39.6601 81.04C39.4901 81.03 39.3701 80.89 39.3701 80.72C39.3701 80.2 39.0401 79.77 38.5801 79.59C38.0101 79.69 37.5701 80.19 37.5701 80.79V81.1L37.6901 90.68C37.6901 90.78 37.7401 90.87 37.8201 90.93H44.5001C44.6701 90.93 44.8101 90.79 44.8101 90.62L44.9301 81.04V80.73C44.9001 80.23 44.5701 79.78 44.1101 79.61Z" stroke="black" stroke-width="0.25" stroke-miterlimit="10" stroke-linecap="round" stroke-linejoin="round"/>
<path d="M97.3601 79.49C97.2301 79.44 97.0801 79.41 96.9301 79.41H96.3801C96.0301 79.41 95.7201 79.56 95.4901 79.79C95.2901 80 95.1601 80.29 95.1601 80.61C95.1601 80.78 95.0301 80.92 94.8701 80.93C94.6901 80.94 94.5501 80.8 94.5501 80.62V80.3C94.5501 80.19 94.5301 80.09 94.5001 80C94.5001 79.99 94.4901 79.98 94.4901 79.96C94.3001 79.5 93.6901 79.44 93.3901 79.78C93.3401 79.84 93.3001 79.91 93.2701 79.99C93.2401 80.08 93.2201 80.18 93.2201 80.29V80.61C93.2201 80.79 93.0801 80.93 92.9001 80.92C92.7301 80.91 92.6101 80.77 92.6101 80.6C92.6101 80.08 92.2801 79.65 91.8201 79.47C91.2501 79.57 90.8101 80.07 90.8101 80.67V80.98L90.9301 90.56C90.9301 90.66 90.9801 90.75 91.0601 90.81H97.7401C97.9101 90.81 98.0501 90.67 98.0501 90.5L98.1701 80.92V80.61C98.1501 80.11 97.8201 79.66 97.3601 79.49Z" fill="black" stroke="black" stroke-width="0.25" stroke-miterlimit="10"/>
<path d="M97.3601 79.49C97.2301 79.44 97.0801 79.41 96.9301 79.41H96.3801C96.0301 79.41 95.7201 79.56 95.4901 79.79C95.2901 80 95.1601 80.29 95.1601 80.61C95.1601 80.78 95.0301 80.92 94.8701 80.93C94.6901 80.94 94.5501 80.8 94.5501 80.62V80.3C94.5501 80.19 94.5301 80.09 94.5001 80C94.5001 79.99 94.4901 79.98 94.4901 79.96C94.3001 79.5 93.6901 79.44 93.3901 79.78C93.3401 79.84 93.3001 79.91 93.2701 79.99C93.2401 80.08 93.2201 80.18 93.2201 80.29V80.61C93.2201 80.79 93.0801 80.93 92.9001 80.92C92.7301 80.91 92.6101 80.77 92.6101 80.6C92.6101 80.08 92.2801 79.65 91.8201 79.47C91.2501 79.57 90.8101 80.07 90.8101 80.67V80.98L90.9301 90.56C90.9301 90.66 90.9801 90.75 91.0601 90.81H97.7401C97.9101 90.81 98.0501 90.67 98.0501 90.5L98.1701 80.92V80.61C98.1501 80.11 97.8201 79.66 97.3601 79.49Z" stroke="black" stroke-width="0.25" stroke-miterlimit="10" stroke-linecap="round" stroke-linejoin="round"/>
<path d="M99.6299 78.8601H88.2499C87.8999 78.8601 87.6099 78.5701 87.6099 78.2201C87.6099 77.8701 87.8999 77.5801 88.2499 77.5801H99.6299C99.9799 77.5801 100.27 77.8701 100.27 78.2201C100.27 78.5701 99.9799 78.8601 99.6299 78.8601Z" fill="#F0EADB" stroke="black" stroke-width="0.25" stroke-miterlimit="10"/>
<path d="M99.6299 78.8601H88.2499C87.8999 78.8601 87.6099 78.5701 87.6099 78.2201C87.6099 77.8701 87.8999 77.5801 88.2499 77.5801H99.6299C99.9799 77.5801 100.27 77.8701 100.27 78.2201C100.27 78.5701 99.9799 78.8601 99.6299 78.8601Z" stroke="black" stroke-width="0.25" stroke-miterlimit="10" stroke-linecap="round" stroke-linejoin="round"/>
<path d="M99.6299 93.44H88.2499C87.8999 93.44 87.6099 93.15 87.6099 92.8C87.6099 92.45 87.8999 92.16 88.2499 92.16H99.6299C99.9799 92.16 100.27 92.45 100.27 92.8C100.27 93.15 99.9799 93.44 99.6299 93.44Z" fill="#F0EADB" stroke="black" stroke-width="0.25" stroke-miterlimit="10"/>
<path d="M99.6299 93.44H88.2499C87.8999 93.44 87.6099 93.15 87.6099 92.8C87.6099 92.45 87.8999 92.16 88.2499 92.16H99.6299C99.9799 92.16 100.27 92.45 100.27 92.8C100.27 93.15 99.9799 93.44 99.6299 93.44Z" stroke="black" stroke-width="0.25" stroke-miterlimit="10" stroke-linecap="round" stroke-linejoin="round"/>
<path d="M104.8 48.4501H80.8799C80.4999 48.4501 80.1799 48.14 80.1799 47.75C80.1799 47.37 80.4899 47.05 80.8799 47.05H104.79C105.17 47.05 105.49 47.36 105.49 47.75C105.49 48.14 105.18 48.4501 104.8 48.4501Z" fill="#F0EADB" stroke="black" stroke-width="0.25" stroke-miterlimit="10"/>
<path d="M104.8 48.4501H80.8799C80.4999 48.4501 80.1799 48.14 80.1799 47.75C80.1799 47.37 80.4899 47.05 80.8799 47.05H104.79C105.17 47.05 105.49 47.36 105.49 47.75C105.49 48.14 105.18 48.4501 104.8 48.4501Z" stroke="black" stroke-width="0.25" stroke-miterlimit="10" stroke-linecap="round" stroke-linejoin="round"/>
<path d="M53.9899 48.69H30.0699C29.6899 48.69 29.3699 48.38 29.3699 47.99C29.3699 47.61 29.6799 47.29 30.0699 47.29H53.9799C54.3599 47.29 54.6799 47.6 54.6799 47.99C54.6899 48.38 54.3699 48.69 53.9899 48.69Z" fill="#F0EADB" stroke="black" stroke-width="0.25" stroke-miterlimit="10"/>
<path d="M53.9899 48.69H30.0699C29.6899 48.69 29.3699 48.38 29.3699 47.99C29.3699 47.61 29.6799 47.29 30.0699 47.29H53.9799C54.3599 47.29 54.6799 47.6 54.6799 47.99C54.6899 48.38 54.3699 48.69 53.9899 48.69Z" stroke="black" stroke-width="0.25" stroke-miterlimit="10" stroke-linecap="round" stroke-linejoin="round"/>
<path d="M70.4099 40.38H65.0599C64.8199 40.38 64.6299 40.19 64.6299 39.95C64.6299 39.71 64.8199 39.52 65.0599 39.52H70.4099C70.6499 39.52 70.8399 39.71 70.8399 39.95C70.8399 40.19 70.6399 40.38 70.4099 40.38Z" fill="#F0EADB" stroke="black" stroke-width="0.25" stroke-miterlimit="10"/>
<path d="M70.4099 40.38H65.0599C64.8199 40.38 64.6299 40.19 64.6299 39.95C64.6299 39.71 64.8199 39.52 65.0599 39.52H70.4099C70.6499 39.52 70.8399 39.71 70.8399 39.95C70.8399 40.19 70.6399 40.38 70.4099 40.38Z" stroke="black" stroke-width="0.25" stroke-miterlimit="10" stroke-linecap="round" stroke-linejoin="round"/>
<path d="M70.4099 35.86H65.0599C64.8199 35.86 64.6299 35.67 64.6299 35.43C64.6299 35.19 64.8299 35 65.0599 35H70.4099C70.6499 35 70.8399 35.19 70.8399 35.43C70.8399 35.67 70.6399 35.86 70.4099 35.86Z" fill="#F0EADB" stroke="black" stroke-width="0.25" stroke-miterlimit="10"/>
<path d="M70.4099 35.86H65.0599C64.8199 35.86 64.6299 35.67 64.6299 35.43C64.6299 35.19 64.8299 35 65.0599 35H70.4099C70.6499 35 70.8399 35.19 70.8399 35.43C70.8399 35.67 70.6399 35.86 70.4099 35.86Z" stroke="black" stroke-width="0.25" stroke-miterlimit="10" stroke-linecap="round" stroke-linejoin="round"/>
<path d="M111.34 59.66H23.29C22.55 59.66 21.95 60.26 21.95 61C21.95 61.74 22.55 62.34 23.29 62.34H111.35C112.09 62.34 112.69 61.74 112.69 61C112.68 60.26 112.08 59.66 111.34 59.66Z" fill="#F0EADB" stroke="black" stroke-width="0.25" stroke-miterlimit="10"/>
<path d="M111.34 59.66H23.29C22.55 59.66 21.95 60.26 21.95 61C21.95 61.74 22.55 62.34 23.29 62.34H111.35C112.09 62.34 112.69 61.74 112.69 61C112.68 60.26 112.08 59.66 111.34 59.66Z" stroke="black" stroke-width="0.25" stroke-miterlimit="10" stroke-linecap="round" stroke-linejoin="round"/>
<path d="M74.9 45.51H59.74V66.24H74.9V45.51Z" fill="#F0A2BD" stroke="black" stroke-width="0.25" stroke-miterlimit="10"/>
<path d="M74.9 45.51H59.74V66.24H74.9V45.51Z" stroke="black" stroke-width="0.25" stroke-miterlimit="10" stroke-linecap="round" stroke-linejoin="round"/>
<path d="M69.9301 50.98V61.6301C69.9301 61.9001 69.7101 62.12 69.4401 62.12H65.0501C64.7801 62.12 64.5601 61.9001 64.5601 61.6301V50.98C64.5601 49.5 65.7701 48.3 67.2501 48.3C67.4301 48.3 67.6001 48.32 67.7701 48.35C68.9901 48.59 69.9301 49.68 69.9301 50.98Z" fill="#FB6337" stroke="black" stroke-width="0.25" stroke-miterlimit="10"/>
<path d="M69.9301 50.98V61.6301C69.9301 61.9001 69.7101 62.12 69.4401 62.12H65.0501C64.7801 62.12 64.5601 61.9001 64.5601 61.6301V50.98C64.5601 49.5 65.7701 48.3 67.2501 48.3C67.4301 48.3 67.6001 48.32 67.7701 48.35C68.9901 48.59 69.9301 49.68 69.9301 50.98Z" stroke="black" stroke-width="0.25" stroke-miterlimit="10" stroke-linecap="round" stroke-linejoin="round"/>
<path d="M69.9299 50.98V61.63C69.9299 61.9 69.7099 62.12 69.4399 62.12H66.0899C65.8199 62.12 65.5999 61.9 65.5999 61.63V50.98C65.5999 49.68 66.5299 48.59 67.7599 48.35C68.9899 48.59 69.9299 49.68 69.9299 50.98Z" fill="black" stroke="black" stroke-width="0.25" stroke-miterlimit="10"/>
<path d="M69.9299 50.98V61.63C69.9299 61.9 69.7099 62.12 69.4399 62.12H66.0899C65.8199 62.12 65.5999 61.9 65.5999 61.63V50.98C65.5999 49.68 66.5299 48.59 67.7599 48.35C68.9899 48.59 69.9299 49.68 69.9299 50.98Z" stroke="black" stroke-width="0.25" stroke-miterlimit="10" stroke-linecap="round" stroke-linejoin="round"/>
<path d="M74.97 43.9501H59.66C59 43.9501 58.46 44.4901 58.46 45.1501C58.46 45.8101 59 46.3501 59.66 46.3501H74.97C75.63 46.3501 76.17 45.8101 76.17 45.1501C76.17 44.5001 75.63 43.9501 74.97 43.9501Z" fill="#F0EADB" stroke="black" stroke-width="0.25" stroke-miterlimit="10"/>
<path d="M74.97 43.9501H59.66C59 43.9501 58.46 44.4901 58.46 45.1501C58.46 45.8101 59 46.3501 59.66 46.3501H74.97C75.63 46.3501 76.17 45.8101 76.17 45.1501C76.17 44.5001 75.63 43.9501 74.97 43.9501Z" stroke="black" stroke-width="0.25" stroke-miterlimit="10" stroke-linecap="round" stroke-linejoin="round"/>
<path d="M76.0199 65.61H58.6099C58.3399 65.61 58.1199 65.83 58.1199 66.1V66.5C58.1199 66.77 58.3399 66.99 58.6099 66.99H76.0199C76.2899 66.99 76.5099 66.77 76.5099 66.5V66.1C76.5099 65.83 76.2899 65.61 76.0199 65.61Z" fill="#FB6337" stroke="black" stroke-width="0.25" stroke-miterlimit="10"/>
<path d="M76.0199 65.61H58.6099C58.3399 65.61 58.1199 65.83 58.1199 66.1V66.5C58.1199 66.77 58.3399 66.99 58.6099 66.99H76.0199C76.2899 66.99 76.5099 66.77 76.5099 66.5V66.1C76.5099 65.83 76.2899 65.61 76.0199 65.61Z" stroke="black" stroke-width="0.25" stroke-miterlimit="10" stroke-linecap="round" stroke-linejoin="round"/>
<path d="M109.74 68.5H24.6599C24.1199 68.5 23.6799 68.06 23.6799 67.52C23.6799 66.98 24.1199 66.54 24.6599 66.54H109.74C110.28 66.54 110.72 66.98 110.72 67.52C110.73 68.06 110.29 68.5 109.74 68.5Z" fill="#F0EADB" stroke="black" stroke-width="0.25" stroke-miterlimit="10"/>
<path d="M109.74 68.5H24.6599C24.1199 68.5 23.6799 68.06 23.6799 67.52C23.6799 66.98 24.1199 66.54 24.6599 66.54H109.74C110.28 66.54 110.72 66.98 110.72 67.52C110.73 68.06 110.29 68.5 109.74 68.5Z" stroke="black" stroke-width="0.25" stroke-miterlimit="10" stroke-linecap="round" stroke-linejoin="round"/>
<path d="M43.9999 36.0201V42.7101C43.9999 42.8801 43.8599 43.0201 43.6899 43.0201H40.9299C40.7599 43.0201 40.6199 42.8801 40.6199 42.7101V36.0201C40.6199 35.0901 41.3799 34.3301 42.3099 34.3301C42.4199 34.3301 42.5299 34.3401 42.6399 34.3601C43.4099 34.5201 43.9999 35.2001 43.9999 36.0201Z" fill="#FB6337" stroke="black" stroke-width="0.25" stroke-miterlimit="10"/>
<path d="M43.9999 36.0201V42.7101C43.9999 42.8801 43.8599 43.0201 43.6899 43.0201H40.9299C40.7599 43.0201 40.6199 42.8801 40.6199 42.7101V36.0201C40.6199 35.0901 41.3799 34.3301 42.3099 34.3301C42.4199 34.3301 42.5299 34.3401 42.6399 34.3601C43.4099 34.5201 43.9999 35.2001 43.9999 36.0201Z" stroke="black" stroke-width="0.25" stroke-miterlimit="10" stroke-linecap="round" stroke-linejoin="round"/>
<path d="M44 36.02V42.71C44 42.88 43.86 43.02 43.69 43.02H41.59C41.42 43.02 41.28 42.88 41.28 42.71V36.02C41.28 35.2 41.87 34.52 42.64 34.37C43.41 34.52 44 35.2 44 36.02Z" fill="black" stroke="black" stroke-width="0.25" stroke-miterlimit="10"/>
<path d="M44 36.02V42.71C44 42.88 43.86 43.02 43.69 43.02H41.59C41.42 43.02 41.28 42.88 41.28 42.71V36.02C41.28 35.2 41.87 34.52 42.64 34.37C43.41 34.52 44 35.2 44 36.02Z" stroke="black" stroke-width="0.25" stroke-miterlimit="10" stroke-linecap="round" stroke-linejoin="round"/>
<path d="M94.61 36.0201V42.7101C94.61 42.8801 94.47 43.0201 94.3 43.0201H91.54C91.37 43.0201 91.23 42.8801 91.23 42.7101V36.0201C91.23 35.0901 91.99 34.3301 92.92 34.3301C93.03 34.3301 93.14 34.3401 93.25 34.3601C94.02 34.5201 94.61 35.2001 94.61 36.0201Z" fill="#FB6337" stroke="black" stroke-width="0.25" stroke-miterlimit="10"/>
<path d="M94.61 36.0201V42.7101C94.61 42.8801 94.47 43.0201 94.3 43.0201H91.54C91.37 43.0201 91.23 42.8801 91.23 42.7101V36.0201C91.23 35.0901 91.99 34.3301 92.92 34.3301C93.03 34.3301 93.14 34.3401 93.25 34.3601C94.02 34.5201 94.61 35.2001 94.61 36.0201Z" stroke="black" stroke-width="0.25" stroke-miterlimit="10" stroke-linecap="round" stroke-linejoin="round"/>
<path d="M94.6099 36.02V42.71C94.6099 42.88 94.4699 43.02 94.2999 43.02H92.1999C92.0299 43.02 91.8899 42.88 91.8899 42.71V36.02C91.8899 35.2 92.4799 34.52 93.2499 34.37C94.0199 34.52 94.6099 35.2 94.6099 36.02Z" fill="black" stroke="black" stroke-width="0.25" stroke-miterlimit="10"/>
<path d="M94.6099 36.02V42.71C94.6099 42.88 94.4699 43.02 94.2999 43.02H92.1999C92.0299 43.02 91.8899 42.88 91.8899 42.71V36.02C91.8899 35.2 92.4799 34.52 93.2499 34.37C94.0199 34.52 94.6099 35.2 94.6099 36.02Z" stroke="black" stroke-width="0.25" stroke-miterlimit="10" stroke-linecap="round" stroke-linejoin="round"/>
</g>
<defs>
<clipPath id="clip0">
<rect width="139.35" height="169.35" fill="white"/>
</clipPath>
</defs>
</svg>
