<svg width="140" height="171" viewBox="0 0 140 171" fill="none" xmlns="http://www.w3.org/2000/svg">
<path d="M136.2 70.9601C136.09 86.5801 130.63 100.91 121.51 112.18L74.6999 164.77C72.0299 167.77 67.3299 167.77 64.6599 164.77L17.8499 112.18C8.63991 100.79 3.15991 86.2901 3.15991 70.5001C3.15991 33.7201 33.0299 3.90014 69.8299 3.98014C106.32 4.06014 136.45 34.4701 136.2 70.9601Z" fill="white"/>
<path d="M69.68 170.17C66.87 170.17 64.18 168.96 62.3 166.86L15.49 114.27C5.47 101.88 0 86.3801 0 70.5001C0 51.8701 7.27 34.3601 20.46 21.1801C33.62 8.05005 51.09 0.820068 69.67 0.820068C69.72 0.820068 69.77 0.820068 69.82 0.820068C88.31 0.860068 105.78 8.23005 119.01 21.58C132.25 34.94 139.47 52.4801 139.34 70.9701C139.23 86.9001 133.91 101.83 123.95 114.15L77.04 166.85C75.18 168.96 72.5 170.17 69.68 170.17ZM69.68 7.13007C52.78 7.13007 36.89 13.7001 24.92 25.6501C12.92 37.6301 6.31 53.5601 6.31 70.5001C6.31 84.9501 11.28 99.0401 20.3 110.2L67.01 162.67C67.7 163.44 68.64 163.87 69.68 163.87C70.71 163.87 71.66 163.45 72.34 162.68L119.15 110.09C128.11 99.0101 132.95 85.4401 133.04 70.9501C133.15 54.1401 126.58 38.1901 114.54 26.0401C102.5 13.8901 86.62 7.18008 69.82 7.14008C69.78 7.13008 69.73 7.13007 69.68 7.13007Z" fill="black"/>
<path d="M118.8 106.79C118.8 107.33 118.74 107.86 118.62 108.36H21.5401C21.4201 107.85 21.3601 107.33 21.3601 106.79C21.3601 104.91 22.1201 103.2 23.3601 101.96C24.6001 100.72 26.3001 99.96 28.1901 99.96H111.98C115.74 99.96 118.8 103.02 118.8 106.79Z" fill="#EFE8DD" stroke="black" stroke-width="0.25" stroke-miterlimit="10"/>
<path d="M118.8 106.79C118.8 107.33 118.74 107.86 118.62 108.36H21.5401C21.4201 107.85 21.3601 107.33 21.3601 106.79C21.3601 104.91 22.1201 103.2 23.3601 101.96C24.6001 100.72 26.3001 99.96 28.1901 99.96H111.98C115.74 99.96 118.8 103.02 118.8 106.79Z" stroke="black" stroke-width="0.25" stroke-miterlimit="10"/>
<path d="M48.96 39.53H27.27V99.96H48.96V39.53Z" fill="#FCA3BE" stroke="black" stroke-width="0.25" stroke-miterlimit="10"/>
<path d="M48.96 39.53H27.27V99.96H48.96V39.53Z" stroke="black" stroke-width="0.25" stroke-miterlimit="10"/>
<path d="M112.81 55.5001L96.7102 45.8301H80.8902H65.0702L48.9702 55.5001L48.9202 56.9701H80.8902H112.86L112.81 55.5001Z" fill="#F66E4E" stroke="black" stroke-width="0.25" stroke-miterlimit="10"/>
<path d="M112.81 55.5001L96.7102 45.8301H80.8902H65.0702L48.9702 55.5001L48.9202 56.9701H80.8902H112.86L112.81 55.5001Z" stroke="black" stroke-width="0.25" stroke-miterlimit="10"/>
<path d="M112.86 56.97H48.9602V99.97H112.86V56.97Z" fill="#FCA3BE" stroke="black" stroke-width="0.25" stroke-miterlimit="10"/>
<path d="M112.86 56.97H48.9602V99.97H112.86V56.97Z" stroke="black" stroke-width="0.25" stroke-miterlimit="10"/>
<path d="M53.4702 59.3501H48.9202V60.8801H53.4702V59.3501Z" fill="#EFE8DD" stroke="black" stroke-width="0.25" stroke-miterlimit="10"/>
<path d="M53.4702 59.3501H48.9202V60.8801H53.4702V59.3501Z" stroke="black" stroke-width="0.25" stroke-miterlimit="10"/>
<path d="M53.4702 62.38H48.9202V63.91H53.4702V62.38Z" fill="#EFE8DD" stroke="black" stroke-width="0.25" stroke-miterlimit="10"/>
<path d="M53.4702 62.38H48.9202V63.91H53.4702V62.38Z" stroke="black" stroke-width="0.25" stroke-miterlimit="10"/>
<path d="M53.4702 65.42H48.9202V66.95H53.4702V65.42Z" fill="#EFE8DD" stroke="black" stroke-width="0.25" stroke-miterlimit="10"/>
<path d="M53.4702 65.42H48.9202V66.95H53.4702V65.42Z" stroke="black" stroke-width="0.25" stroke-miterlimit="10"/>
<path d="M53.4702 68.46H48.9202V69.99H53.4702V68.46Z" fill="#EFE8DD" stroke="black" stroke-width="0.25" stroke-miterlimit="10"/>
<path d="M53.4702 68.46H48.9202V69.99H53.4702V68.46Z" stroke="black" stroke-width="0.25" stroke-miterlimit="10"/>
<path d="M53.4702 71.5H48.9202V73.03H53.4702V71.5Z" fill="#EFE8DD" stroke="black" stroke-width="0.25" stroke-miterlimit="10"/>
<path d="M53.4702 71.5H48.9202V73.03H53.4702V71.5Z" stroke="black" stroke-width="0.25" stroke-miterlimit="10"/>
<path d="M53.4702 74.54H48.9202V76.07H53.4702V74.54Z" fill="#EFE8DD" stroke="black" stroke-width="0.25" stroke-miterlimit="10"/>
<path d="M53.4702 74.54H48.9202V76.07H53.4702V74.54Z" stroke="black" stroke-width="0.25" stroke-miterlimit="10"/>
<path d="M52.06 58.53H50.53V76.74H52.06V58.53Z" fill="#EFE8DD" stroke="black" stroke-width="0.25" stroke-miterlimit="10"/>
<path d="M52.06 58.53H50.53V76.74H52.06V58.53Z" stroke="black" stroke-width="0.25" stroke-miterlimit="10"/>
<path d="M81.1501 59.3501H76.6001V60.8801H81.1501V59.3501Z" fill="#EFE8DD" stroke="black" stroke-width="0.25" stroke-miterlimit="10"/>
<path d="M81.1501 59.3501H76.6001V60.8801H81.1501V59.3501Z" stroke="black" stroke-width="0.25" stroke-miterlimit="10"/>
<path d="M81.1501 62.38H76.6001V63.91H81.1501V62.38Z" fill="#EFE8DD" stroke="black" stroke-width="0.25" stroke-miterlimit="10"/>
<path d="M81.1501 62.38H76.6001V63.91H81.1501V62.38Z" stroke="black" stroke-width="0.25" stroke-miterlimit="10"/>
<path d="M81.1501 65.42H76.6001V66.95H81.1501V65.42Z" fill="#EFE8DD" stroke="black" stroke-width="0.25" stroke-miterlimit="10"/>
<path d="M81.1501 65.42H76.6001V66.95H81.1501V65.42Z" stroke="black" stroke-width="0.25" stroke-miterlimit="10"/>
<path d="M81.1501 68.46H76.6001V69.99H81.1501V68.46Z" fill="#EFE8DD" stroke="black" stroke-width="0.25" stroke-miterlimit="10"/>
<path d="M81.1501 68.46H76.6001V69.99H81.1501V68.46Z" stroke="black" stroke-width="0.25" stroke-miterlimit="10"/>
<path d="M81.1501 71.5H76.6001V73.03H81.1501V71.5Z" fill="#EFE8DD" stroke="black" stroke-width="0.25" stroke-miterlimit="10"/>
<path d="M81.1501 71.5H76.6001V73.03H81.1501V71.5Z" stroke="black" stroke-width="0.25" stroke-miterlimit="10"/>
<path d="M81.1501 74.54H76.6001V76.07H81.1501V74.54Z" fill="#EFE8DD" stroke="black" stroke-width="0.25" stroke-miterlimit="10"/>
<path d="M81.1501 74.54H76.6001V76.07H81.1501V74.54Z" stroke="black" stroke-width="0.25" stroke-miterlimit="10"/>
<path d="M79.7402 58.53H78.2102V76.74H79.7402V58.53Z" fill="#EFE8DD" stroke="black" stroke-width="0.25" stroke-miterlimit="10"/>
<path d="M79.7402 58.53H78.2102V76.74H79.7402V58.53Z" stroke="black" stroke-width="0.25" stroke-miterlimit="10"/>
<path d="M53.4702 80.5H48.9202V82.03H53.4702V80.5Z" fill="#EFE8DD" stroke="black" stroke-width="0.25" stroke-miterlimit="10"/>
<path d="M53.4702 80.5H48.9202V82.03H53.4702V80.5Z" stroke="black" stroke-width="0.25" stroke-miterlimit="10"/>
<path d="M53.4702 83.54H48.9202V85.07H53.4702V83.54Z" fill="#EFE8DD" stroke="black" stroke-width="0.25" stroke-miterlimit="10"/>
<path d="M53.4702 83.54H48.9202V85.07H53.4702V83.54Z" stroke="black" stroke-width="0.25" stroke-miterlimit="10"/>
<path d="M53.4702 86.5801H48.9202V88.1101H53.4702V86.5801Z" fill="#EFE8DD" stroke="black" stroke-width="0.25" stroke-miterlimit="10"/>
<path d="M53.4702 86.5801H48.9202V88.1101H53.4702V86.5801Z" stroke="black" stroke-width="0.25" stroke-miterlimit="10"/>
<path d="M53.4702 89.61H48.9202V91.14H53.4702V89.61Z" fill="#EFE8DD" stroke="black" stroke-width="0.25" stroke-miterlimit="10"/>
<path d="M53.4702 89.61H48.9202V91.14H53.4702V89.61Z" stroke="black" stroke-width="0.25" stroke-miterlimit="10"/>
<path d="M53.4702 92.65H48.9202V94.18H53.4702V92.65Z" fill="#EFE8DD" stroke="black" stroke-width="0.25" stroke-miterlimit="10"/>
<path d="M53.4702 92.65H48.9202V94.18H53.4702V92.65Z" stroke="black" stroke-width="0.25" stroke-miterlimit="10"/>
<path d="M53.4702 95.6901H48.9202V97.2201H53.4702V95.6901Z" fill="#EFE8DD" stroke="black" stroke-width="0.25" stroke-miterlimit="10"/>
<path d="M53.4702 95.6901H48.9202V97.2201H53.4702V95.6901Z" stroke="black" stroke-width="0.25" stroke-miterlimit="10"/>
<path d="M52.06 79.6801H50.53V97.8901H52.06V79.6801Z" fill="#EFE8DD" stroke="black" stroke-width="0.25" stroke-miterlimit="10"/>
<path d="M52.06 79.6801H50.53V97.8901H52.06V79.6801Z" stroke="black" stroke-width="0.25" stroke-miterlimit="10"/>
<path d="M81.1501 80.5H76.6001V82.03H81.1501V80.5Z" fill="#EFE8DD" stroke="black" stroke-width="0.25" stroke-miterlimit="10"/>
<path d="M81.1501 80.5H76.6001V82.03H81.1501V80.5Z" stroke="black" stroke-width="0.25" stroke-miterlimit="10"/>
<path d="M81.1501 83.54H76.6001V85.07H81.1501V83.54Z" fill="#EFE8DD" stroke="black" stroke-width="0.25" stroke-miterlimit="10"/>
<path d="M81.1501 83.54H76.6001V85.07H81.1501V83.54Z" stroke="black" stroke-width="0.25" stroke-miterlimit="10"/>
<path d="M81.1501 86.5801H76.6001V88.1101H81.1501V86.5801Z" fill="#EFE8DD" stroke="black" stroke-width="0.25" stroke-miterlimit="10"/>
<path d="M81.1501 86.5801H76.6001V88.1101H81.1501V86.5801Z" stroke="black" stroke-width="0.25" stroke-miterlimit="10"/>
<path d="M81.1501 89.61H76.6001V91.14H81.1501V89.61Z" fill="#EFE8DD" stroke="black" stroke-width="0.25" stroke-miterlimit="10"/>
<path d="M81.1501 89.61H76.6001V91.14H81.1501V89.61Z" stroke="black" stroke-width="0.25" stroke-miterlimit="10"/>
<path d="M81.1501 92.65H76.6001V94.18H81.1501V92.65Z" fill="#EFE8DD" stroke="black" stroke-width="0.25" stroke-miterlimit="10"/>
<path d="M81.1501 92.65H76.6001V94.18H81.1501V92.65Z" stroke="black" stroke-width="0.25" stroke-miterlimit="10"/>
<path d="M81.1501 95.6901H76.6001V97.2201H81.1501V95.6901Z" fill="#EFE8DD" stroke="black" stroke-width="0.25" stroke-miterlimit="10"/>
<path d="M81.1501 95.6901H76.6001V97.2201H81.1501V95.6901Z" stroke="black" stroke-width="0.25" stroke-miterlimit="10"/>
<path d="M79.7402 79.6801H78.2102V97.8901H79.7402V79.6801Z" fill="#EFE8DD" stroke="black" stroke-width="0.25" stroke-miterlimit="10"/>
<path d="M79.7402 79.6801H78.2102V97.8901H79.7402V79.6801Z" stroke="black" stroke-width="0.25" stroke-miterlimit="10"/>
<path d="M110.72 59.3501H106.17V60.8801H110.72V59.3501Z" fill="#EFE8DD" stroke="black" stroke-width="0.25" stroke-miterlimit="10"/>
<path d="M110.72 59.3501H106.17V60.8801H110.72V59.3501Z" stroke="black" stroke-width="0.25" stroke-miterlimit="10"/>
<path d="M110.72 62.38H106.17V63.91H110.72V62.38Z" fill="#EFE8DD" stroke="black" stroke-width="0.25" stroke-miterlimit="10"/>
<path d="M110.72 62.38H106.17V63.91H110.72V62.38Z" stroke="black" stroke-width="0.25" stroke-miterlimit="10"/>
<path d="M110.72 65.42H106.17V66.95H110.72V65.42Z" fill="#EFE8DD" stroke="black" stroke-width="0.25" stroke-miterlimit="10"/>
<path d="M110.72 65.42H106.17V66.95H110.72V65.42Z" stroke="black" stroke-width="0.25" stroke-miterlimit="10"/>
<path d="M110.72 68.46H106.17V69.99H110.72V68.46Z" fill="#EFE8DD" stroke="black" stroke-width="0.25" stroke-miterlimit="10"/>
<path d="M110.72 68.46H106.17V69.99H110.72V68.46Z" stroke="black" stroke-width="0.25" stroke-miterlimit="10"/>
<path d="M110.72 71.5H106.17V73.03H110.72V71.5Z" fill="#EFE8DD" stroke="black" stroke-width="0.25" stroke-miterlimit="10"/>
<path d="M110.72 71.5H106.17V73.03H110.72V71.5Z" stroke="black" stroke-width="0.25" stroke-miterlimit="10"/>
<path d="M110.72 74.54H106.17V76.07H110.72V74.54Z" fill="#EFE8DD" stroke="black" stroke-width="0.25" stroke-miterlimit="10"/>
<path d="M110.72 74.54H106.17V76.07H110.72V74.54Z" stroke="black" stroke-width="0.25" stroke-miterlimit="10"/>
<path d="M109.3 58.53H107.77V76.74H109.3V58.53Z" fill="#EFE8DD" stroke="black" stroke-width="0.25" stroke-miterlimit="10"/>
<path d="M109.3 58.53H107.77V76.74H109.3V58.53Z" stroke="black" stroke-width="0.25" stroke-miterlimit="10"/>
<path d="M110.72 80.5H106.17V82.03H110.72V80.5Z" fill="#EFE8DD" stroke="black" stroke-width="0.25" stroke-miterlimit="10"/>
<path d="M110.72 80.5H106.17V82.03H110.72V80.5Z" stroke="black" stroke-width="0.25" stroke-miterlimit="10"/>
<path d="M110.72 83.54H106.17V85.07H110.72V83.54Z" fill="#EFE8DD" stroke="black" stroke-width="0.25" stroke-miterlimit="10"/>
<path d="M110.72 83.54H106.17V85.07H110.72V83.54Z" stroke="black" stroke-width="0.25" stroke-miterlimit="10"/>
<path d="M110.72 86.5801H106.17V88.1101H110.72V86.5801Z" fill="#EFE8DD" stroke="black" stroke-width="0.25" stroke-miterlimit="10"/>
<path d="M110.72 86.5801H106.17V88.1101H110.72V86.5801Z" stroke="black" stroke-width="0.25" stroke-miterlimit="10"/>
<path d="M110.72 89.61H106.17V91.14H110.72V89.61Z" fill="#EFE8DD" stroke="black" stroke-width="0.25" stroke-miterlimit="10"/>
<path d="M110.72 89.61H106.17V91.14H110.72V89.61Z" stroke="black" stroke-width="0.25" stroke-miterlimit="10"/>
<path d="M110.72 92.65H106.17V94.18H110.72V92.65Z" fill="#EFE8DD" stroke="black" stroke-width="0.25" stroke-miterlimit="10"/>
<path d="M110.72 92.65H106.17V94.18H110.72V92.65Z" stroke="black" stroke-width="0.25" stroke-miterlimit="10"/>
<path d="M110.72 95.6901H106.17V97.2201H110.72V95.6901Z" fill="#EFE8DD" stroke="black" stroke-width="0.25" stroke-miterlimit="10"/>
<path d="M110.72 95.6901H106.17V97.2201H110.72V95.6901Z" stroke="black" stroke-width="0.25" stroke-miterlimit="10"/>
<path d="M109.3 79.6801H107.77V97.8901H109.3V79.6801Z" fill="#EFE8DD" stroke="black" stroke-width="0.25" stroke-miterlimit="10"/>
<path d="M109.3 79.6801H107.77V97.8901H109.3V79.6801Z" stroke="black" stroke-width="0.25" stroke-miterlimit="10"/>
<path d="M48.0401 58.71H28.1501C27.0401 58.71 26.1501 57.81 26.1501 56.71C26.1501 55.61 27.0501 54.71 28.1501 54.71H48.0401C49.1501 54.71 50.0401 55.61 50.0401 56.71C50.0401 57.81 49.1501 58.71 48.0401 58.71Z" fill="#EFE8DD" stroke="black" stroke-width="0.25" stroke-miterlimit="10"/>
<path d="M48.0401 58.71H28.1501C27.0401 58.71 26.1501 57.81 26.1501 56.71C26.1501 55.61 27.0501 54.71 28.1501 54.71H48.0401C49.1501 54.71 50.0401 55.61 50.0401 56.71C50.0401 57.81 49.1501 58.71 48.0401 58.71Z" stroke="black" stroke-width="0.25" stroke-miterlimit="10"/>
<path d="M48.0401 84.0601H28.1501C27.0401 84.0601 26.1501 83.1601 26.1501 82.0601C26.1501 80.9501 27.0501 80.0601 28.1501 80.0601H48.0401C49.1501 80.0601 50.0401 80.9601 50.0401 82.0601C50.0501 83.1601 49.1501 84.0601 48.0401 84.0601Z" fill="#EFE8DD" stroke="black" stroke-width="0.25" stroke-miterlimit="10"/>
<path d="M48.0401 84.0601H28.1501C27.0401 84.0601 26.1501 83.1601 26.1501 82.0601C26.1501 80.9501 27.0501 80.0601 28.1501 80.0601H48.0401C49.1501 80.0601 50.0401 80.9601 50.0401 82.0601C50.0501 83.1601 49.1501 84.0601 48.0401 84.0601Z" stroke="black" stroke-width="0.25" stroke-miterlimit="10"/>
<path d="M47.71 61.2001H28.78V62.6301H47.71V61.2001Z" fill="#F66E4E" stroke="black" stroke-width="0.25" stroke-miterlimit="10"/>
<path d="M47.71 61.2001H28.78V62.6301H47.71V61.2001Z" stroke="black" stroke-width="0.25" stroke-miterlimit="10"/>
<path d="M47.71 64.41H28.78V65.84H47.71V64.41Z" fill="#F66E4E" stroke="black" stroke-width="0.25" stroke-miterlimit="10"/>
<path d="M47.71 64.41H28.78V65.84H47.71V64.41Z" stroke="black" stroke-width="0.25" stroke-miterlimit="10"/>
<path d="M47.71 67.61H28.78V69.04H47.71V67.61Z" fill="#F66E4E" stroke="black" stroke-width="0.25" stroke-miterlimit="10"/>
<path d="M47.71 67.61H28.78V69.04H47.71V67.61Z" stroke="black" stroke-width="0.25" stroke-miterlimit="10"/>
<path d="M47.71 70.8201H28.78V72.2501H47.71V70.8201Z" fill="#F66E4E" stroke="black" stroke-width="0.25" stroke-miterlimit="10"/>
<path d="M47.71 70.8201H28.78V72.2501H47.71V70.8201Z" stroke="black" stroke-width="0.25" stroke-miterlimit="10"/>
<path d="M47.71 41.5901H28.78V43.0201H47.71V41.5901Z" fill="#F66E4E" stroke="black" stroke-width="0.25" stroke-miterlimit="10"/>
<path d="M47.71 41.5901H28.78V43.0201H47.71V41.5901Z" stroke="black" stroke-width="0.25" stroke-miterlimit="10"/>
<path d="M47.71 44.8H28.78V46.2301H47.71V44.8Z" fill="#F66E4E" stroke="black" stroke-width="0.25" stroke-miterlimit="10"/>
<path d="M47.71 44.8H28.78V46.2301H47.71V44.8Z" stroke="black" stroke-width="0.25" stroke-miterlimit="10"/>
<path d="M47.71 48H28.78V49.43H47.71V48Z" fill="#F66E4E" stroke="black" stroke-width="0.25" stroke-miterlimit="10"/>
<path d="M47.71 48H28.78V49.43H47.71V48Z" stroke="black" stroke-width="0.25" stroke-miterlimit="10"/>
<path d="M47.71 51.21H28.78V52.64H47.71V51.21Z" fill="#F66E4E" stroke="black" stroke-width="0.25" stroke-miterlimit="10"/>
<path d="M47.71 51.21H28.78V52.64H47.71V51.21Z" stroke="black" stroke-width="0.25" stroke-miterlimit="10"/>
<path d="M47.71 74.03H28.78V75.46H47.71V74.03Z" fill="#F66E4E" stroke="black" stroke-width="0.25" stroke-miterlimit="10"/>
<path d="M47.71 74.03H28.78V75.46H47.71V74.03Z" stroke="black" stroke-width="0.25" stroke-miterlimit="10"/>
<path d="M47.71 77.23H28.78V78.66H47.71V77.23Z" fill="#F66E4E" stroke="black" stroke-width="0.25" stroke-miterlimit="10"/>
<path d="M47.71 77.23H28.78V78.66H47.71V77.23Z" stroke="black" stroke-width="0.25" stroke-miterlimit="10"/>
<path d="M47.71 84.8501H28.78V86.2801H47.71V84.8501Z" fill="#F66E4E" stroke="black" stroke-width="0.25" stroke-miterlimit="10"/>
<path d="M47.71 84.8501H28.78V86.2801H47.71V84.8501Z" stroke="black" stroke-width="0.25" stroke-miterlimit="10"/>
<path d="M47.71 88.0601H28.78V89.4901H47.71V88.0601Z" fill="#F66E4E" stroke="black" stroke-width="0.25" stroke-miterlimit="10"/>
<path d="M47.71 88.0601H28.78V89.4901H47.71V88.0601Z" stroke="black" stroke-width="0.25" stroke-miterlimit="10"/>
<path d="M47.71 91.27H28.78V92.7H47.71V91.27Z" fill="#F66E4E" stroke="black" stroke-width="0.25" stroke-miterlimit="10"/>
<path d="M47.71 91.27H28.78V92.7H47.71V91.27Z" stroke="black" stroke-width="0.25" stroke-miterlimit="10"/>
<path d="M47.71 94.47H28.78V95.9H47.71V94.47Z" fill="#F66E4E" stroke="black" stroke-width="0.25" stroke-miterlimit="10"/>
<path d="M47.71 94.47H28.78V95.9H47.71V94.47Z" stroke="black" stroke-width="0.25" stroke-miterlimit="10"/>
<path d="M47.71 97.6801H28.78V99.11H47.71V97.6801Z" fill="#F66E4E" stroke="black" stroke-width="0.25" stroke-miterlimit="10"/>
<path d="M47.71 97.6801H28.78V99.11H47.71V97.6801Z" stroke="black" stroke-width="0.25" stroke-miterlimit="10"/>
<path d="M42.55 25.22C41.58 23.7 39.9 22.79 38.1 22.79C36.3 22.79 34.62 23.71 33.65 25.22L29.55 31.61C28.05 33.94 27.26 36.66 27.26 39.43H38.1H48.94C48.94 36.66 48.14 33.94 46.65 31.61L42.55 25.22Z" fill="#F66E4E" stroke="black" stroke-width="0.25" stroke-miterlimit="10"/>
<path d="M42.55 25.22C41.58 23.7 39.9 22.79 38.1 22.79C36.3 22.79 34.62 23.71 33.65 25.22L29.55 31.61C28.05 33.94 27.26 36.66 27.26 39.43H38.1H48.94C48.94 36.66 48.14 33.94 46.65 31.61L42.55 25.22Z" stroke="black" stroke-width="0.25" stroke-miterlimit="10"/>
<path d="M36.6901 88.6301V95.3301C36.6901 96.5001 35.9001 97.4801 34.8201 97.7801C34.6101 97.8401 34.3801 97.8701 34.1501 97.8701C32.7501 97.8701 31.6101 96.7301 31.6101 95.3301V88.6301C31.6101 87.2301 32.7501 86.0901 34.1501 86.0901C34.3801 86.0901 34.6101 86.1201 34.8201 86.1801C35.2501 86.3001 35.6401 86.5301 35.9401 86.8301C36.4001 87.2901 36.6901 87.9301 36.6901 88.6301Z" fill="#F66E4E" stroke="black" stroke-width="0.25" stroke-miterlimit="10"/>
<path d="M36.6901 88.6301V95.3301C36.6901 96.5001 35.9001 97.4801 34.8201 97.7801C34.6101 97.8401 34.3801 97.8701 34.1501 97.8701C32.7501 97.8701 31.6101 96.7301 31.6101 95.3301V88.6301C31.6101 87.2301 32.7501 86.0901 34.1501 86.0901C34.3801 86.0901 34.6101 86.1201 34.8201 86.1801C35.2501 86.3001 35.6401 86.5301 35.9401 86.8301C36.4001 87.2901 36.6901 87.9301 36.6901 88.6301Z" stroke="black" stroke-width="0.25" stroke-miterlimit="10"/>
<path d="M36.6902 88.6301V95.33C36.6902 96.5 35.9002 97.4801 34.8202 97.7801C33.7402 97.4901 32.9502 96.5 32.9502 95.33V88.6301C32.9502 87.4601 33.7402 86.4801 34.8202 86.1801C35.2502 86.3001 35.6402 86.53 35.9402 86.83C36.4002 87.29 36.6902 87.9301 36.6902 88.6301Z" fill="black" stroke="black" stroke-width="0.25" stroke-miterlimit="10"/>
<path d="M36.6902 88.6301V95.33C36.6902 96.5 35.9002 97.4801 34.8202 97.7801C33.7402 97.4901 32.9502 96.5 32.9502 95.33V88.6301C32.9502 87.4601 33.7402 86.4801 34.8202 86.1801C35.2502 86.3001 35.6402 86.53 35.9402 86.83C36.4002 87.29 36.6902 87.9301 36.6902 88.6301Z" stroke="black" stroke-width="0.25" stroke-miterlimit="10" stroke-linecap="round" stroke-linejoin="round"/>
<path d="M44.4501 88.6301V95.3301C44.4501 96.5001 43.6601 97.4801 42.5801 97.7801C42.3701 97.8401 42.1401 97.8701 41.9101 97.8701C40.5101 97.8701 39.3701 96.7301 39.3701 95.3301V88.6301C39.3701 87.2301 40.5101 86.0901 41.9101 86.0901C42.1401 86.0901 42.3701 86.1201 42.5801 86.1801C43.0101 86.3001 43.4001 86.5301 43.7001 86.8301C44.1701 87.2901 44.4501 87.9301 44.4501 88.6301Z" fill="#F66E4E" stroke="black" stroke-width="0.25" stroke-miterlimit="10"/>
<path d="M44.4501 88.6301V95.3301C44.4501 96.5001 43.6601 97.4801 42.5801 97.7801C42.3701 97.8401 42.1401 97.8701 41.9101 97.8701C40.5101 97.8701 39.3701 96.7301 39.3701 95.3301V88.6301C39.3701 87.2301 40.5101 86.0901 41.9101 86.0901C42.1401 86.0901 42.3701 86.1201 42.5801 86.1801C43.0101 86.3001 43.4001 86.5301 43.7001 86.8301C44.1701 87.2901 44.4501 87.9301 44.4501 88.6301Z" stroke="black" stroke-width="0.25" stroke-miterlimit="10"/>
<path d="M44.4502 88.6301V95.33C44.4502 96.5 43.6602 97.4801 42.5802 97.7801C41.5002 97.4901 40.7102 96.5 40.7102 95.33V88.6301C40.7102 87.4601 41.5002 86.4801 42.5802 86.1801C43.0102 86.3001 43.4002 86.53 43.7002 86.83C44.1702 87.29 44.4502 87.9301 44.4502 88.6301Z" fill="black" stroke="black" stroke-width="0.25" stroke-miterlimit="10"/>
<path d="M44.4502 88.6301V95.33C44.4502 96.5 43.6602 97.4801 42.5802 97.7801C41.5002 97.4901 40.7102 96.5 40.7102 95.33V88.6301C40.7102 87.4601 41.5002 86.4801 42.5802 86.1801C43.0102 86.3001 43.4002 86.53 43.7002 86.83C44.1702 87.29 44.4502 87.9301 44.4502 88.6301Z" stroke="black" stroke-width="0.25" stroke-miterlimit="10" stroke-linecap="round" stroke-linejoin="round"/>
<path d="M36.6901 65.8701V72.5701C36.6901 73.7401 35.9001 74.7201 34.8201 75.0201C34.6101 75.0801 34.3801 75.1101 34.1501 75.1101C32.7501 75.1101 31.6101 73.9701 31.6101 72.5701V65.8701C31.6101 64.4701 32.7501 63.3301 34.1501 63.3301C34.3801 63.3301 34.6101 63.3601 34.8201 63.4201C35.2501 63.5401 35.6401 63.7701 35.9401 64.0701C36.4001 64.5401 36.6901 65.1701 36.6901 65.8701Z" fill="#F66E4E" stroke="black" stroke-width="0.25" stroke-miterlimit="10"/>
<path d="M36.6901 65.8701V72.5701C36.6901 73.7401 35.9001 74.7201 34.8201 75.0201C34.6101 75.0801 34.3801 75.1101 34.1501 75.1101C32.7501 75.1101 31.6101 73.9701 31.6101 72.5701V65.8701C31.6101 64.4701 32.7501 63.3301 34.1501 63.3301C34.3801 63.3301 34.6101 63.3601 34.8201 63.4201C35.2501 63.5401 35.6401 63.7701 35.9401 64.0701C36.4001 64.5401 36.6901 65.1701 36.6901 65.8701Z" stroke="black" stroke-width="0.25" stroke-miterlimit="10"/>
<path d="M36.6902 65.87V72.57C36.6902 73.74 35.9002 74.72 34.8202 75.02C33.7402 74.73 32.9502 73.74 32.9502 72.57V65.87C32.9502 64.7 33.7402 63.72 34.8202 63.42C35.2502 63.54 35.6402 63.77 35.9402 64.07C36.4002 64.54 36.6902 65.17 36.6902 65.87Z" fill="black" stroke="black" stroke-width="0.25" stroke-miterlimit="10"/>
<path d="M36.6902 65.87V72.57C36.6902 73.74 35.9002 74.72 34.8202 75.02C33.7402 74.73 32.9502 73.74 32.9502 72.57V65.87C32.9502 64.7 33.7402 63.72 34.8202 63.42C35.2502 63.54 35.6402 63.77 35.9402 64.07C36.4002 64.54 36.6902 65.17 36.6902 65.87Z" stroke="black" stroke-width="0.25" stroke-miterlimit="10" stroke-linecap="round" stroke-linejoin="round"/>
<path d="M44.4501 65.8701V72.5701C44.4501 73.7401 43.6601 74.7201 42.5801 75.0201C42.3701 75.0801 42.1401 75.1101 41.9101 75.1101C40.5101 75.1101 39.3701 73.9701 39.3701 72.5701V65.8701C39.3701 64.4701 40.5101 63.3301 41.9101 63.3301C42.1401 63.3301 42.3701 63.3601 42.5801 63.4201C43.0101 63.5401 43.4001 63.7701 43.7001 64.0701C44.1701 64.5401 44.4501 65.1701 44.4501 65.8701Z" fill="#F66E4E" stroke="black" stroke-width="0.25" stroke-miterlimit="10"/>
<path d="M44.4501 65.8701V72.5701C44.4501 73.7401 43.6601 74.7201 42.5801 75.0201C42.3701 75.0801 42.1401 75.1101 41.9101 75.1101C40.5101 75.1101 39.3701 73.9701 39.3701 72.5701V65.8701C39.3701 64.4701 40.5101 63.3301 41.9101 63.3301C42.1401 63.3301 42.3701 63.3601 42.5801 63.4201C43.0101 63.5401 43.4001 63.7701 43.7001 64.0701C44.1701 64.5401 44.4501 65.1701 44.4501 65.8701Z" stroke="black" stroke-width="0.25" stroke-miterlimit="10"/>
<path d="M44.4502 65.87V72.57C44.4502 73.74 43.6602 74.72 42.5802 75.02C41.5002 74.73 40.7102 73.74 40.7102 72.57V65.87C40.7102 64.7 41.5002 63.72 42.5802 63.42C43.0102 63.54 43.4002 63.77 43.7002 64.07C44.1702 64.54 44.4502 65.17 44.4502 65.87Z" fill="black" stroke="black" stroke-width="0.25" stroke-miterlimit="10"/>
<path d="M44.4502 65.87V72.57C44.4502 73.74 43.6602 74.72 42.5802 75.02C41.5002 74.73 40.7102 73.74 40.7102 72.57V65.87C40.7102 64.7 41.5002 63.72 42.5802 63.42C43.0102 63.54 43.4002 63.77 43.7002 64.07C44.1702 64.54 44.4502 65.17 44.4502 65.87Z" stroke="black" stroke-width="0.25" stroke-miterlimit="10" stroke-linecap="round" stroke-linejoin="round"/>
<path d="M36.6901 43.7201V50.4201C36.6901 51.5901 35.9001 52.5701 34.8201 52.8701C34.6101 52.9301 34.3801 52.9601 34.1501 52.9601C32.7501 52.9601 31.6101 51.8201 31.6101 50.4201V43.7201C31.6101 42.3201 32.7501 41.1801 34.1501 41.1801C34.3801 41.1801 34.6101 41.2101 34.8201 41.2701C35.2501 41.3901 35.6401 41.6201 35.9401 41.9201C36.4001 42.3801 36.6901 43.0201 36.6901 43.7201Z" fill="#F66E4E" stroke="black" stroke-width="0.25" stroke-miterlimit="10"/>
<path d="M36.6901 43.7201V50.4201C36.6901 51.5901 35.9001 52.5701 34.8201 52.8701C34.6101 52.9301 34.3801 52.9601 34.1501 52.9601C32.7501 52.9601 31.6101 51.8201 31.6101 50.4201V43.7201C31.6101 42.3201 32.7501 41.1801 34.1501 41.1801C34.3801 41.1801 34.6101 41.2101 34.8201 41.2701C35.2501 41.3901 35.6401 41.6201 35.9401 41.9201C36.4001 42.3801 36.6901 43.0201 36.6901 43.7201Z" stroke="black" stroke-width="0.25" stroke-miterlimit="10"/>
<path d="M36.6902 43.72V50.42C36.6902 51.59 35.9002 52.57 34.8202 52.87C33.7402 52.58 32.9502 51.59 32.9502 50.42V43.72C32.9502 42.55 33.7402 41.57 34.8202 41.27C35.2502 41.39 35.6402 41.62 35.9402 41.92C36.4002 42.38 36.6902 43.02 36.6902 43.72Z" fill="black" stroke="black" stroke-width="0.25" stroke-miterlimit="10"/>
<path d="M36.6902 43.72V50.42C36.6902 51.59 35.9002 52.57 34.8202 52.87C33.7402 52.58 32.9502 51.59 32.9502 50.42V43.72C32.9502 42.55 33.7402 41.57 34.8202 41.27C35.2502 41.39 35.6402 41.62 35.9402 41.92C36.4002 42.38 36.6902 43.02 36.6902 43.72Z" stroke="black" stroke-width="0.25" stroke-miterlimit="10" stroke-linecap="round" stroke-linejoin="round"/>
<path d="M44.4501 43.7201V50.4201C44.4501 51.5901 43.6601 52.5701 42.5801 52.8701C42.3701 52.9301 42.1401 52.9601 41.9101 52.9601C40.5101 52.9601 39.3701 51.8201 39.3701 50.4201V43.7201C39.3701 42.3201 40.5101 41.1801 41.9101 41.1801C42.1401 41.1801 42.3701 41.2101 42.5801 41.2701C43.0101 41.3901 43.4001 41.6201 43.7001 41.9201C44.1701 42.3801 44.4501 43.0201 44.4501 43.7201Z" fill="#F66E4E" stroke="black" stroke-width="0.25" stroke-miterlimit="10"/>
<path d="M44.4501 43.7201V50.4201C44.4501 51.5901 43.6601 52.5701 42.5801 52.8701C42.3701 52.9301 42.1401 52.9601 41.9101 52.9601C40.5101 52.9601 39.3701 51.8201 39.3701 50.4201V43.7201C39.3701 42.3201 40.5101 41.1801 41.9101 41.1801C42.1401 41.1801 42.3701 41.2101 42.5801 41.2701C43.0101 41.3901 43.4001 41.6201 43.7001 41.9201C44.1701 42.3801 44.4501 43.0201 44.4501 43.7201Z" stroke="black" stroke-width="0.25" stroke-miterlimit="10"/>
<path d="M44.4502 43.72V50.42C44.4502 51.59 43.6602 52.57 42.5802 52.87C41.5002 52.58 40.7102 51.59 40.7102 50.42V43.72C40.7102 42.55 41.5002 41.57 42.5802 41.27C43.0102 41.39 43.4002 41.62 43.7002 41.92C44.1702 42.38 44.4502 43.02 44.4502 43.72Z" fill="black" stroke="black" stroke-width="0.25" stroke-miterlimit="10"/>
<path d="M44.4502 43.72V50.42C44.4502 51.59 43.6602 52.57 42.5802 52.87C41.5002 52.58 40.7102 51.59 40.7102 50.42V43.72C40.7102 42.55 41.5002 41.57 42.5802 41.27C43.0102 41.39 43.4002 41.62 43.7002 41.92C44.1702 42.38 44.4502 43.02 44.4502 43.72Z" stroke="black" stroke-width="0.25" stroke-miterlimit="10" stroke-linecap="round" stroke-linejoin="round"/>
<path d="M101.91 74.09H95.1101V74.08V61.38H101.91V74.08V74.09Z" fill="#FB6337" stroke="black" stroke-width="0.25" stroke-miterlimit="10"/>
<path d="M101.91 74.09H95.1101V74.08V61.38H101.91V74.08V74.09Z" stroke="black" stroke-width="0.25" stroke-miterlimit="10" stroke-linecap="round" stroke-linejoin="round"/>
<path d="M101.08 62.45V62.64L101 73.09C101 73.19 100.91 73.28 100.81 73.28H96.1401C96.0401 73.28 95.9501 73.2 95.9501 73.09L95.8801 62.64V62.45C95.8801 62.04 96.2101 61.71 96.6201 61.71H96.9601C97.0501 61.71 97.1401 61.73 97.2201 61.76C97.5001 61.86 97.7001 62.13 97.7001 62.44C97.7001 62.54 97.7801 62.63 97.8801 62.63C97.9901 62.63 98.0701 62.55 98.0701 62.44V62.24C98.0701 62.18 98.0801 62.12 98.1001 62.06C98.1201 62.01 98.1401 61.97 98.1801 61.93C98.3301 62.06 98.4201 62.25 98.4201 62.47C98.4201 62.57 98.5001 62.66 98.6001 62.67C98.7101 62.67 98.7901 62.59 98.7901 62.48V62.28C98.7901 62.22 98.8001 62.15 98.8201 62.1C98.8301 62.08 98.8401 62.06 98.8501 62.04C98.8501 62.05 98.8601 62.05 98.8601 62.06C98.8801 62.12 98.8901 62.18 98.8901 62.24V62.44C98.8901 62.55 98.9801 62.63 99.0801 62.63C99.1801 62.63 99.2601 62.54 99.2601 62.44C99.2601 62.25 99.3401 62.07 99.4601 61.94C99.5101 61.98 99.5501 62.04 99.5701 62.1C99.5901 62.16 99.6001 62.22 99.6001 62.28V62.48C99.6001 62.59 99.6901 62.67 99.7901 62.67C99.8901 62.66 99.9701 62.58 99.9701 62.47C99.9701 62.11 100.24 61.81 100.59 61.75C100.88 61.87 101.08 62.14 101.08 62.45Z" fill="#F0A2BD" stroke="black" stroke-width="0.25" stroke-miterlimit="10"/>
<path d="M101.08 62.45V62.64L101 73.09C101 73.19 100.91 73.28 100.81 73.28H96.1401C96.0401 73.28 95.9501 73.2 95.9501 73.09L95.8801 62.64V62.45C95.8801 62.04 96.2101 61.71 96.6201 61.71H96.9601C97.0501 61.71 97.1401 61.73 97.2201 61.76C97.5001 61.86 97.7001 62.13 97.7001 62.44C97.7001 62.54 97.7801 62.63 97.8801 62.63C97.9901 62.63 98.0701 62.55 98.0701 62.44V62.24C98.0701 62.18 98.0801 62.12 98.1001 62.06C98.1201 62.01 98.1401 61.97 98.1801 61.93C98.3301 62.06 98.4201 62.25 98.4201 62.47C98.4201 62.57 98.5001 62.66 98.6001 62.67C98.7101 62.67 98.7901 62.59 98.7901 62.48V62.28C98.7901 62.22 98.8001 62.15 98.8201 62.1C98.8301 62.08 98.8401 62.06 98.8501 62.04C98.8501 62.05 98.8601 62.05 98.8601 62.06C98.8801 62.12 98.8901 62.18 98.8901 62.24V62.44C98.8901 62.55 98.9801 62.63 99.0801 62.63C99.1801 62.63 99.2601 62.54 99.2601 62.44C99.2601 62.25 99.3401 62.07 99.4601 61.94C99.5101 61.98 99.5501 62.04 99.5701 62.1C99.5901 62.16 99.6001 62.22 99.6001 62.28V62.48C99.6001 62.59 99.6901 62.67 99.7901 62.67C99.8901 62.66 99.9701 62.58 99.9701 62.47C99.9701 62.11 100.24 61.81 100.59 61.75C100.88 61.87 101.08 62.14 101.08 62.45Z" stroke="black" stroke-width="0.25" stroke-miterlimit="10" stroke-linecap="round" stroke-linejoin="round"/>
<path d="M92.1901 74.09H85.4001V74.08V61.38H92.1901V74.08V74.09Z" fill="#FB6337" stroke="black" stroke-width="0.25" stroke-miterlimit="10"/>
<path d="M92.1901 74.09H85.4001V74.08V61.38H92.1901V74.08V74.09Z" stroke="black" stroke-width="0.25" stroke-miterlimit="10" stroke-linecap="round" stroke-linejoin="round"/>
<path d="M91.3602 62.45V62.64L91.2902 73.09C91.2902 73.19 91.2002 73.28 91.1002 73.28H86.4302C86.3302 73.28 86.2402 73.2 86.2402 73.09L86.1702 62.64V62.45C86.1702 62.04 86.5002 61.71 86.9102 61.71H87.2502C87.3402 61.71 87.4302 61.73 87.5102 61.76C87.7902 61.86 87.9902 62.13 87.9902 62.44C87.9902 62.54 88.0702 62.63 88.1702 62.63C88.2802 62.63 88.3602 62.55 88.3602 62.44V62.24C88.3602 62.18 88.3702 62.12 88.3902 62.06C88.4102 62.01 88.4302 61.97 88.4702 61.93C88.6202 62.06 88.7102 62.25 88.7102 62.47C88.7102 62.57 88.7902 62.66 88.8902 62.67C89.0002 62.67 89.0802 62.59 89.0802 62.48V62.28C89.0802 62.22 89.0902 62.15 89.1102 62.1C89.1202 62.08 89.1302 62.06 89.1402 62.04C89.1402 62.05 89.1502 62.05 89.1502 62.06C89.1702 62.12 89.1802 62.18 89.1802 62.24V62.44C89.1802 62.55 89.2702 62.63 89.3702 62.63C89.4702 62.63 89.5502 62.54 89.5502 62.44C89.5502 62.25 89.6302 62.07 89.7502 61.94C89.8002 61.98 89.8402 62.04 89.8602 62.1C89.8802 62.16 89.8902 62.22 89.8902 62.28V62.48C89.8902 62.59 89.9802 62.67 90.0802 62.67C90.1802 62.66 90.2602 62.58 90.2602 62.47C90.2602 62.11 90.5302 61.81 90.8802 61.75C91.1602 61.87 91.3602 62.14 91.3602 62.45Z" fill="#F0A2BD" stroke="black" stroke-width="0.25" stroke-miterlimit="10"/>
<path d="M91.3602 62.45V62.64L91.2902 73.09C91.2902 73.19 91.2002 73.28 91.1002 73.28H86.4302C86.3302 73.28 86.2402 73.2 86.2402 73.09L86.1702 62.64V62.45C86.1702 62.04 86.5002 61.71 86.9102 61.71H87.2502C87.3402 61.71 87.4302 61.73 87.5102 61.76C87.7902 61.86 87.9902 62.13 87.9902 62.44C87.9902 62.54 88.0702 62.63 88.1702 62.63C88.2802 62.63 88.3602 62.55 88.3602 62.44V62.24C88.3602 62.18 88.3702 62.12 88.3902 62.06C88.4102 62.01 88.4302 61.97 88.4702 61.93C88.6202 62.06 88.7102 62.25 88.7102 62.47C88.7102 62.57 88.7902 62.66 88.8902 62.67C89.0002 62.67 89.0802 62.59 89.0802 62.48V62.28C89.0802 62.22 89.0902 62.15 89.1102 62.1C89.1202 62.08 89.1302 62.06 89.1402 62.04C89.1402 62.05 89.1502 62.05 89.1502 62.06C89.1702 62.12 89.1802 62.18 89.1802 62.24V62.44C89.1802 62.55 89.2702 62.63 89.3702 62.63C89.4702 62.63 89.5502 62.54 89.5502 62.44C89.5502 62.25 89.6302 62.07 89.7502 61.94C89.8002 61.98 89.8402 62.04 89.8602 62.1C89.8802 62.16 89.8902 62.22 89.8902 62.28V62.48C89.8902 62.59 89.9802 62.67 90.0802 62.67C90.1802 62.66 90.2602 62.58 90.2602 62.47C90.2602 62.11 90.5302 61.81 90.8802 61.75C91.1602 61.87 91.3602 62.14 91.3602 62.45Z" stroke="black" stroke-width="0.25" stroke-miterlimit="10" stroke-linecap="round" stroke-linejoin="round"/>
<path d="M92.2602 61.3801H85.3402C85.1202 61.3801 84.9502 61.2101 84.9502 60.9901C84.9502 60.7701 85.1202 60.6001 85.3402 60.6001H92.2602C92.4802 60.6001 92.6502 60.7701 92.6502 60.9901C92.6502 61.2001 92.4802 61.3801 92.2602 61.3801Z" fill="#F0EADB" stroke="black" stroke-width="0.25" stroke-miterlimit="10"/>
<path d="M92.2602 61.3801H85.3402C85.1202 61.3801 84.9502 61.2101 84.9502 60.9901C84.9502 60.7701 85.1202 60.6001 85.3402 60.6001H92.2602C92.4802 60.6001 92.6502 60.7701 92.6502 60.9901C92.6502 61.2001 92.4802 61.3801 92.2602 61.3801Z" stroke="black" stroke-width="0.25" stroke-miterlimit="10" stroke-linecap="round" stroke-linejoin="round"/>
<path d="M92.2602 74.8601H85.3402C85.1202 74.8601 84.9502 74.6901 84.9502 74.4701C84.9502 74.2501 85.1202 74.0801 85.3402 74.0801H92.2602C92.4802 74.0801 92.6502 74.2501 92.6502 74.4701C92.6502 74.6901 92.4802 74.8601 92.2602 74.8601Z" fill="#F0EADB" stroke="black" stroke-width="0.25" stroke-miterlimit="10"/>
<path d="M92.2602 74.8601H85.3402C85.1202 74.8601 84.9502 74.6901 84.9502 74.4701C84.9502 74.2501 85.1202 74.0801 85.3402 74.0801H92.2602C92.4802 74.0801 92.6502 74.2501 92.6502 74.4701C92.6502 74.6901 92.4802 74.8601 92.2602 74.8601Z" stroke="black" stroke-width="0.25" stroke-miterlimit="10" stroke-linecap="round" stroke-linejoin="round"/>
<path d="M90.8801 61.76C90.8001 61.73 90.7101 61.71 90.6201 61.71H90.2801C90.0701 61.71 89.8801 61.8 89.7401 61.94C89.6201 62.07 89.5401 62.25 89.5401 62.44C89.5401 62.54 89.4601 62.63 89.3601 62.63C89.2501 62.63 89.1701 62.55 89.1701 62.44V62.24C89.1701 62.18 89.1601 62.11 89.1401 62.06C89.1401 62.05 89.1301 62.05 89.1301 62.04C89.0101 61.76 88.6401 61.73 88.4601 61.93C88.4301 61.97 88.4001 62.01 88.3801 62.06C88.3601 62.12 88.3501 62.18 88.3501 62.24V62.44C88.3501 62.55 88.2601 62.63 88.1601 62.63C88.0601 62.63 87.9801 62.54 87.9801 62.44C87.9801 62.13 87.7801 61.86 87.5001 61.76C87.1501 61.82 86.8801 62.12 86.8801 62.49V62.68L86.9501 73.13C86.9501 73.19 86.9801 73.25 87.0301 73.28H91.0901C91.1901 73.28 91.2801 73.2 91.2801 73.09L91.3501 62.64V62.45C91.3601 62.14 91.1601 61.87 90.8801 61.76Z" fill="black" stroke="black" stroke-width="0.25" stroke-miterlimit="10"/>
<path d="M90.8801 61.76C90.8001 61.73 90.7101 61.71 90.6201 61.71H90.2801C90.0701 61.71 89.8801 61.8 89.7401 61.94C89.6201 62.07 89.5401 62.25 89.5401 62.44C89.5401 62.54 89.4601 62.63 89.3601 62.63C89.2501 62.63 89.1701 62.55 89.1701 62.44V62.24C89.1701 62.18 89.1601 62.11 89.1401 62.06C89.1401 62.05 89.1301 62.05 89.1301 62.04C89.0101 61.76 88.6401 61.73 88.4601 61.93C88.4301 61.97 88.4001 62.01 88.3801 62.06C88.3601 62.12 88.3501 62.18 88.3501 62.24V62.44C88.3501 62.55 88.2601 62.63 88.1601 62.63C88.0601 62.63 87.9801 62.54 87.9801 62.44C87.9801 62.13 87.7801 61.86 87.5001 61.76C87.1501 61.82 86.8801 62.12 86.8801 62.49V62.68L86.9501 73.13C86.9501 73.19 86.9801 73.25 87.0301 73.28H91.0901C91.1901 73.28 91.2801 73.2 91.2801 73.09L91.3501 62.64V62.45C91.3601 62.14 91.1601 61.87 90.8801 61.76Z" stroke="black" stroke-width="0.25" stroke-miterlimit="10" stroke-linecap="round" stroke-linejoin="round"/>
<path d="M101.98 61.3801H95.0602C94.8402 61.3801 94.6702 61.2101 94.6702 60.9901C94.6702 60.7701 94.8402 60.6001 95.0602 60.6001H101.98C102.2 60.6001 102.37 60.7701 102.37 60.9901C102.37 61.2001 102.19 61.3801 101.98 61.3801Z" fill="#F0EADB" stroke="black" stroke-width="0.25" stroke-miterlimit="10"/>
<path d="M101.98 61.3801H95.0602C94.8402 61.3801 94.6702 61.2101 94.6702 60.9901C94.6702 60.7701 94.8402 60.6001 95.0602 60.6001H101.98C102.2 60.6001 102.37 60.7701 102.37 60.9901C102.37 61.2001 102.19 61.3801 101.98 61.3801Z" stroke="black" stroke-width="0.25" stroke-miterlimit="10" stroke-linecap="round" stroke-linejoin="round"/>
<path d="M101.98 74.8601H95.0602C94.8402 74.8601 94.6702 74.6901 94.6702 74.4701C94.6702 74.2501 94.8402 74.0801 95.0602 74.0801H101.98C102.2 74.0801 102.37 74.2501 102.37 74.4701C102.37 74.6901 102.19 74.8601 101.98 74.8601Z" fill="#F0EADB" stroke="black" stroke-width="0.25" stroke-miterlimit="10"/>
<path d="M101.98 74.8601H95.0602C94.8402 74.8601 94.6702 74.6901 94.6702 74.4701C94.6702 74.2501 94.8402 74.0801 95.0602 74.0801H101.98C102.2 74.0801 102.37 74.2501 102.37 74.4701C102.37 74.6901 102.19 74.8601 101.98 74.8601Z" stroke="black" stroke-width="0.25" stroke-miterlimit="10" stroke-linecap="round" stroke-linejoin="round"/>
<path d="M100.6 61.76C100.52 61.73 100.43 61.71 100.34 61.71H100C99.7901 61.71 99.6001 61.8 99.4601 61.94C99.3401 62.07 99.2601 62.25 99.2601 62.44C99.2601 62.54 99.1801 62.63 99.0801 62.63C98.9701 62.63 98.8901 62.55 98.8901 62.44V62.24C98.8901 62.18 98.8801 62.11 98.8601 62.06C98.8601 62.05 98.8501 62.05 98.8501 62.04C98.7301 61.76 98.3601 61.73 98.1801 61.93C98.1501 61.97 98.1201 62.01 98.1001 62.06C98.0801 62.12 98.0701 62.18 98.0701 62.24V62.44C98.0701 62.55 97.9801 62.63 97.8801 62.63C97.7801 62.63 97.7001 62.54 97.7001 62.44C97.7001 62.13 97.5001 61.86 97.2201 61.76C96.8701 61.82 96.6001 62.12 96.6001 62.49V62.68L96.6701 73.13C96.6701 73.19 96.7001 73.25 96.7501 73.28H100.81C100.91 73.28 101 73.2 101 73.09L101.07 62.64V62.45C101.08 62.14 100.88 61.87 100.6 61.76Z" fill="black" stroke="black" stroke-width="0.25" stroke-miterlimit="10"/>
<path d="M100.6 61.76C100.52 61.73 100.43 61.71 100.34 61.71H100C99.7901 61.71 99.6001 61.8 99.4601 61.94C99.3401 62.07 99.2601 62.25 99.2601 62.44C99.2601 62.54 99.1801 62.63 99.0801 62.63C98.9701 62.63 98.8901 62.55 98.8901 62.44V62.24C98.8901 62.18 98.8801 62.11 98.8601 62.06C98.8601 62.05 98.8501 62.05 98.8501 62.04C98.7301 61.76 98.3601 61.73 98.1801 61.93C98.1501 61.97 98.1201 62.01 98.1001 62.06C98.0801 62.12 98.0701 62.18 98.0701 62.24V62.44C98.0701 62.55 97.9801 62.63 97.8801 62.63C97.7801 62.63 97.7001 62.54 97.7001 62.44C97.7001 62.13 97.5001 61.86 97.2201 61.76C96.8701 61.82 96.6001 62.12 96.6001 62.49V62.68L96.6701 73.13C96.6701 73.19 96.7001 73.25 96.7501 73.28H100.81C100.91 73.28 101 73.2 101 73.09L101.07 62.64V62.45C101.08 62.14 100.88 61.87 100.6 61.76Z" stroke="black" stroke-width="0.25" stroke-miterlimit="10" stroke-linecap="round" stroke-linejoin="round"/>
<path d="M101.91 94.46H95.1101V81.75H101.91V94.46Z" fill="#FB6337" stroke="black" stroke-width="0.25" stroke-miterlimit="10"/>
<path d="M101.91 94.46H95.1101V81.75H101.91V94.46Z" stroke="black" stroke-width="0.25" stroke-miterlimit="10" stroke-linecap="round" stroke-linejoin="round"/>
<path d="M101.08 82.8201V83.0101L101 93.4601C101 93.5601 100.91 93.6501 100.81 93.6501H96.1401C96.0401 93.6501 95.9501 93.5701 95.9501 93.4601L95.8801 83.0101V82.8201C95.8801 82.4101 96.2101 82.0801 96.6201 82.0801H96.9601C97.0501 82.0801 97.1401 82.1001 97.2201 82.1301C97.5001 82.2301 97.7001 82.5001 97.7001 82.8101C97.7001 82.9101 97.7801 83.0001 97.8801 83.0001C97.9901 83.0101 98.0701 82.9201 98.0701 82.8101V82.6101C98.0701 82.5501 98.0801 82.4801 98.1001 82.4301C98.1201 82.3801 98.1401 82.3401 98.1801 82.3001C98.3301 82.4301 98.4201 82.6201 98.4201 82.8401C98.4201 82.9401 98.5001 83.0301 98.6001 83.0401C98.7101 83.0401 98.7901 82.9601 98.7901 82.8501V82.6501C98.7901 82.5901 98.8001 82.5201 98.8201 82.4701C98.8301 82.4501 98.8401 82.4301 98.8501 82.4101C98.8501 82.4201 98.8601 82.4201 98.8601 82.4301C98.8801 82.4901 98.8901 82.5501 98.8901 82.6101V82.8101C98.8901 82.9201 98.9801 83.0001 99.0801 83.0001C99.1801 83.0001 99.2601 82.9101 99.2601 82.8101C99.2601 82.6201 99.3401 82.4401 99.4601 82.3101C99.5101 82.3501 99.5501 82.4101 99.5701 82.4701C99.5901 82.5301 99.6001 82.5901 99.6001 82.6501V82.8501C99.6001 82.9601 99.6901 83.0401 99.7901 83.0401C99.8901 83.0301 99.9701 82.9501 99.9701 82.8401C99.9701 82.4801 100.24 82.1801 100.59 82.1201C100.88 82.2401 101.08 82.5101 101.08 82.8201Z" fill="#F0A2BD" stroke="black" stroke-width="0.25" stroke-miterlimit="10"/>
<path d="M101.08 82.8201V83.0101L101 93.4601C101 93.5601 100.91 93.6501 100.81 93.6501H96.1401C96.0401 93.6501 95.9501 93.5701 95.9501 93.4601L95.8801 83.0101V82.8201C95.8801 82.4101 96.2101 82.0801 96.6201 82.0801H96.9601C97.0501 82.0801 97.1401 82.1001 97.2201 82.1301C97.5001 82.2301 97.7001 82.5001 97.7001 82.8101C97.7001 82.9101 97.7801 83.0001 97.8801 83.0001C97.9901 83.0101 98.0701 82.9201 98.0701 82.8101V82.6101C98.0701 82.5501 98.0801 82.4801 98.1001 82.4301C98.1201 82.3801 98.1401 82.3401 98.1801 82.3001C98.3301 82.4301 98.4201 82.6201 98.4201 82.8401C98.4201 82.9401 98.5001 83.0301 98.6001 83.0401C98.7101 83.0401 98.7901 82.9601 98.7901 82.8501V82.6501C98.7901 82.5901 98.8001 82.5201 98.8201 82.4701C98.8301 82.4501 98.8401 82.4301 98.8501 82.4101C98.8501 82.4201 98.8601 82.4201 98.8601 82.4301C98.8801 82.4901 98.8901 82.5501 98.8901 82.6101V82.8101C98.8901 82.9201 98.9801 83.0001 99.0801 83.0001C99.1801 83.0001 99.2601 82.9101 99.2601 82.8101C99.2601 82.6201 99.3401 82.4401 99.4601 82.3101C99.5101 82.3501 99.5501 82.4101 99.5701 82.4701C99.5901 82.5301 99.6001 82.5901 99.6001 82.6501V82.8501C99.6001 82.9601 99.6901 83.0401 99.7901 83.0401C99.8901 83.0301 99.9701 82.9501 99.9701 82.8401C99.9701 82.4801 100.24 82.1801 100.59 82.1201C100.88 82.2401 101.08 82.5101 101.08 82.8201Z" stroke="black" stroke-width="0.25" stroke-miterlimit="10" stroke-linecap="round" stroke-linejoin="round"/>
<path d="M92.1901 94.46H85.4001V81.75H92.1901V94.46Z" fill="#FB6337" stroke="black" stroke-width="0.25" stroke-miterlimit="10"/>
<path d="M92.1901 94.46H85.4001V81.75H92.1901V94.46Z" stroke="black" stroke-width="0.25" stroke-miterlimit="10" stroke-linecap="round" stroke-linejoin="round"/>
<path d="M91.3602 82.8201V83.0101L91.2902 93.4601C91.2902 93.5601 91.2002 93.6501 91.1002 93.6501H86.4302C86.3302 93.6501 86.2402 93.5701 86.2402 93.4601L86.1702 83.0101V82.8201C86.1702 82.4101 86.5002 82.0801 86.9102 82.0801H87.2502C87.3402 82.0801 87.4302 82.1001 87.5102 82.1301C87.7902 82.2301 87.9902 82.5001 87.9902 82.8101C87.9902 82.9101 88.0702 83.0001 88.1702 83.0001C88.2802 83.0101 88.3602 82.9201 88.3602 82.8101V82.6101C88.3602 82.5501 88.3702 82.4801 88.3902 82.4301C88.4102 82.3801 88.4302 82.3401 88.4702 82.3001C88.6202 82.4301 88.7102 82.6201 88.7102 82.8401C88.7102 82.9401 88.7902 83.0301 88.8902 83.0401C89.0002 83.0401 89.0802 82.9601 89.0802 82.8501V82.6501C89.0802 82.5901 89.0902 82.5201 89.1102 82.4701C89.1202 82.4501 89.1302 82.4301 89.1402 82.4101C89.1402 82.4201 89.1502 82.4201 89.1502 82.4301C89.1702 82.4901 89.1802 82.5501 89.1802 82.6101V82.8101C89.1802 82.9201 89.2702 83.0001 89.3702 83.0001C89.4702 83.0001 89.5502 82.9101 89.5502 82.8101C89.5502 82.6201 89.6302 82.4401 89.7502 82.3101C89.8002 82.3501 89.8402 82.4101 89.8602 82.4701C89.8802 82.5301 89.8902 82.5901 89.8902 82.6501V82.8501C89.8902 82.9601 89.9802 83.0401 90.0802 83.0401C90.1802 83.0301 90.2602 82.9501 90.2602 82.8401C90.2602 82.4801 90.5302 82.1801 90.8802 82.1201C91.1602 82.2401 91.3602 82.5101 91.3602 82.8201Z" fill="#F0A2BD" stroke="black" stroke-width="0.25" stroke-miterlimit="10"/>
<path d="M91.3602 82.8201V83.0101L91.2902 93.4601C91.2902 93.5601 91.2002 93.6501 91.1002 93.6501H86.4302C86.3302 93.6501 86.2402 93.5701 86.2402 93.4601L86.1702 83.0101V82.8201C86.1702 82.4101 86.5002 82.0801 86.9102 82.0801H87.2502C87.3402 82.0801 87.4302 82.1001 87.5102 82.1301C87.7902 82.2301 87.9902 82.5001 87.9902 82.8101C87.9902 82.9101 88.0702 83.0001 88.1702 83.0001C88.2802 83.0101 88.3602 82.9201 88.3602 82.8101V82.6101C88.3602 82.5501 88.3702 82.4801 88.3902 82.4301C88.4102 82.3801 88.4302 82.3401 88.4702 82.3001C88.6202 82.4301 88.7102 82.6201 88.7102 82.8401C88.7102 82.9401 88.7902 83.0301 88.8902 83.0401C89.0002 83.0401 89.0802 82.9601 89.0802 82.8501V82.6501C89.0802 82.5901 89.0902 82.5201 89.1102 82.4701C89.1202 82.4501 89.1302 82.4301 89.1402 82.4101C89.1402 82.4201 89.1502 82.4201 89.1502 82.4301C89.1702 82.4901 89.1802 82.5501 89.1802 82.6101V82.8101C89.1802 82.9201 89.2702 83.0001 89.3702 83.0001C89.4702 83.0001 89.5502 82.9101 89.5502 82.8101C89.5502 82.6201 89.6302 82.4401 89.7502 82.3101C89.8002 82.3501 89.8402 82.4101 89.8602 82.4701C89.8802 82.5301 89.8902 82.5901 89.8902 82.6501V82.8501C89.8902 82.9601 89.9802 83.0401 90.0802 83.0401C90.1802 83.0301 90.2602 82.9501 90.2602 82.8401C90.2602 82.4801 90.5302 82.1801 90.8802 82.1201C91.1602 82.2401 91.3602 82.5101 91.3602 82.8201Z" stroke="black" stroke-width="0.25" stroke-miterlimit="10" stroke-linecap="round" stroke-linejoin="round"/>
<path d="M92.2602 81.75H85.3402C85.1202 81.75 84.9502 81.58 84.9502 81.36C84.9502 81.14 85.1202 80.97 85.3402 80.97H92.2602C92.4802 80.97 92.6502 81.14 92.6502 81.36C92.6502 81.58 92.4802 81.75 92.2602 81.75Z" fill="#F0EADB" stroke="black" stroke-width="0.25" stroke-miterlimit="10"/>
<path d="M92.2602 81.75H85.3402C85.1202 81.75 84.9502 81.58 84.9502 81.36C84.9502 81.14 85.1202 80.97 85.3402 80.97H92.2602C92.4802 80.97 92.6502 81.14 92.6502 81.36C92.6502 81.58 92.4802 81.75 92.2602 81.75Z" stroke="black" stroke-width="0.25" stroke-miterlimit="10" stroke-linecap="round" stroke-linejoin="round"/>
<path d="M92.2602 95.24H85.3402C85.1202 95.24 84.9502 95.07 84.9502 94.85C84.9502 94.63 85.1202 94.46 85.3402 94.46H92.2602C92.4802 94.46 92.6502 94.63 92.6502 94.85C92.6502 95.06 92.4802 95.24 92.2602 95.24Z" fill="#F0EADB" stroke="black" stroke-width="0.25" stroke-miterlimit="10"/>
<path d="M92.2602 95.24H85.3402C85.1202 95.24 84.9502 95.07 84.9502 94.85C84.9502 94.63 85.1202 94.46 85.3402 94.46H92.2602C92.4802 94.46 92.6502 94.63 92.6502 94.85C92.6502 95.06 92.4802 95.24 92.2602 95.24Z" stroke="black" stroke-width="0.25" stroke-miterlimit="10" stroke-linecap="round" stroke-linejoin="round"/>
<path d="M90.8801 82.1301C90.8001 82.1001 90.7101 82.0801 90.6201 82.0801H90.2801C90.0701 82.0801 89.8801 82.1701 89.7401 82.3101C89.6201 82.4401 89.5401 82.6201 89.5401 82.8101C89.5401 82.9101 89.4601 83.0001 89.3601 83.0001C89.2501 83.0001 89.1701 82.9201 89.1701 82.8101V82.6101C89.1701 82.5501 89.1601 82.4901 89.1401 82.4301C89.1401 82.4201 89.1301 82.4201 89.1301 82.4101C89.0101 82.1301 88.6401 82.1001 88.4601 82.3001C88.4301 82.3401 88.4001 82.3801 88.3801 82.4301C88.3601 82.4901 88.3501 82.5501 88.3501 82.6101V82.8101C88.3501 82.9201 88.2601 83.0001 88.1601 83.0001C88.0601 83.0001 87.9801 82.9101 87.9801 82.8101C87.9801 82.5001 87.7801 82.2301 87.5001 82.1301C87.1501 82.1901 86.8801 82.4901 86.8801 82.8601V83.0501L86.9501 93.5001C86.9501 93.5601 86.9801 93.6201 87.0301 93.6501H91.0901C91.1901 93.6501 91.2801 93.5701 91.2801 93.4601L91.3501 83.0101V82.8201C91.3601 82.5101 91.1601 82.2401 90.8801 82.1301Z" fill="black" stroke="black" stroke-width="0.25" stroke-miterlimit="10"/>
<path d="M90.8801 82.1301C90.8001 82.1001 90.7101 82.0801 90.6201 82.0801H90.2801C90.0701 82.0801 89.8801 82.1701 89.7401 82.3101C89.6201 82.4401 89.5401 82.6201 89.5401 82.8101C89.5401 82.9101 89.4601 83.0001 89.3601 83.0001C89.2501 83.0001 89.1701 82.9201 89.1701 82.8101V82.6101C89.1701 82.5501 89.1601 82.4901 89.1401 82.4301C89.1401 82.4201 89.1301 82.4201 89.1301 82.4101C89.0101 82.1301 88.6401 82.1001 88.4601 82.3001C88.4301 82.3401 88.4001 82.3801 88.3801 82.4301C88.3601 82.4901 88.3501 82.5501 88.3501 82.6101V82.8101C88.3501 82.9201 88.2601 83.0001 88.1601 83.0001C88.0601 83.0001 87.9801 82.9101 87.9801 82.8101C87.9801 82.5001 87.7801 82.2301 87.5001 82.1301C87.1501 82.1901 86.8801 82.4901 86.8801 82.8601V83.0501L86.9501 93.5001C86.9501 93.5601 86.9801 93.6201 87.0301 93.6501H91.0901C91.1901 93.6501 91.2801 93.5701 91.2801 93.4601L91.3501 83.0101V82.8201C91.3601 82.5101 91.1601 82.2401 90.8801 82.1301Z" stroke="black" stroke-width="0.25" stroke-miterlimit="10" stroke-linecap="round" stroke-linejoin="round"/>
<path d="M101.98 81.75H95.0602C94.8402 81.75 94.6702 81.58 94.6702 81.36C94.6702 81.14 94.8402 80.97 95.0602 80.97H101.98C102.2 80.97 102.37 81.14 102.37 81.36C102.37 81.58 102.19 81.75 101.98 81.75Z" fill="#F0EADB" stroke="black" stroke-width="0.25" stroke-miterlimit="10"/>
<path d="M101.98 81.75H95.0602C94.8402 81.75 94.6702 81.58 94.6702 81.36C94.6702 81.14 94.8402 80.97 95.0602 80.97H101.98C102.2 80.97 102.37 81.14 102.37 81.36C102.37 81.58 102.19 81.75 101.98 81.75Z" stroke="black" stroke-width="0.25" stroke-miterlimit="10" stroke-linecap="round" stroke-linejoin="round"/>
<path d="M101.98 95.24H95.0602C94.8402 95.24 94.6702 95.07 94.6702 94.85C94.6702 94.63 94.8402 94.46 95.0602 94.46H101.98C102.2 94.46 102.37 94.63 102.37 94.85C102.37 95.06 102.19 95.24 101.98 95.24Z" fill="#F0EADB" stroke="black" stroke-width="0.25" stroke-miterlimit="10"/>
<path d="M101.98 95.24H95.0602C94.8402 95.24 94.6702 95.07 94.6702 94.85C94.6702 94.63 94.8402 94.46 95.0602 94.46H101.98C102.2 94.46 102.37 94.63 102.37 94.85C102.37 95.06 102.19 95.24 101.98 95.24Z" stroke="black" stroke-width="0.25" stroke-miterlimit="10" stroke-linecap="round" stroke-linejoin="round"/>
<path d="M100.6 82.1301C100.52 82.1001 100.43 82.0801 100.34 82.0801H100C99.7901 82.0801 99.6001 82.1701 99.4601 82.3101C99.3401 82.4401 99.2601 82.6201 99.2601 82.8101C99.2601 82.9101 99.1801 83.0001 99.0801 83.0001C98.9701 83.0001 98.8901 82.9201 98.8901 82.8101V82.6101C98.8901 82.5501 98.8801 82.4901 98.8601 82.4301C98.8601 82.4201 98.8501 82.4201 98.8501 82.4101C98.7301 82.1301 98.3601 82.1001 98.1801 82.3001C98.1501 82.3401 98.1201 82.3801 98.1001 82.4301C98.0801 82.4901 98.0701 82.5501 98.0701 82.6101V82.8101C98.0701 82.9201 97.9801 83.0001 97.8801 83.0001C97.7801 83.0001 97.7001 82.9101 97.7001 82.8101C97.7001 82.5001 97.5001 82.2301 97.2201 82.1301C96.8701 82.1901 96.6001 82.4901 96.6001 82.8601V83.0501L96.6701 93.5001C96.6701 93.5601 96.7001 93.6201 96.7501 93.6501H100.81C100.91 93.6501 101 93.5701 101 93.4601L101.07 83.0101V82.8201C101.08 82.5101 100.88 82.2401 100.6 82.1301Z" fill="black" stroke="black" stroke-width="0.25" stroke-miterlimit="10"/>
<path d="M100.6 82.1301C100.52 82.1001 100.43 82.0801 100.34 82.0801H100C99.7901 82.0801 99.6001 82.1701 99.4601 82.3101C99.3401 82.4401 99.2601 82.6201 99.2601 82.8101C99.2601 82.9101 99.1801 83.0001 99.0801 83.0001C98.9701 83.0001 98.8901 82.9201 98.8901 82.8101V82.6101C98.8901 82.5501 98.8801 82.4901 98.8601 82.4301C98.8601 82.4201 98.8501 82.4201 98.8501 82.4101C98.7301 82.1301 98.3601 82.1001 98.1801 82.3001C98.1501 82.3401 98.1201 82.3801 98.1001 82.4301C98.0801 82.4901 98.0701 82.5501 98.0701 82.6101V82.8101C98.0701 82.9201 97.9801 83.0001 97.8801 83.0001C97.7801 83.0001 97.7001 82.9101 97.7001 82.8101C97.7001 82.5001 97.5001 82.2301 97.2201 82.1301C96.8701 82.1901 96.6001 82.4901 96.6001 82.8601V83.0501L96.6701 93.5001C96.6701 93.5601 96.7001 93.6201 96.7501 93.6501H100.81C100.91 93.6501 101 93.5701 101 93.4601L101.07 83.0101V82.8201C101.08 82.5101 100.88 82.2401 100.6 82.1301Z" stroke="black" stroke-width="0.25" stroke-miterlimit="10" stroke-linecap="round" stroke-linejoin="round"/>
<path d="M72.82 74.09H66.03V74.08V61.38H72.82V74.08V74.09Z" fill="#FB6337" stroke="black" stroke-width="0.25" stroke-miterlimit="10"/>
<path d="M72.82 74.09H66.03V74.08V61.38H72.82V74.08V74.09Z" stroke="black" stroke-width="0.25" stroke-miterlimit="10" stroke-linecap="round" stroke-linejoin="round"/>
<path d="M71.99 62.45V62.64L71.92 73.09C71.92 73.19 71.83 73.28 71.73 73.28H67.06C66.96 73.28 66.87 73.2 66.87 73.09L66.8 62.64V62.45C66.8 62.04 67.13 61.71 67.54 61.71H67.88C67.97 61.71 68.06 61.73 68.14 61.76C68.42 61.86 68.62 62.13 68.62 62.44C68.62 62.54 68.7 62.63 68.8 62.63C68.91 62.63 68.99 62.55 68.99 62.44V62.24C68.99 62.18 69 62.12 69.02 62.06C69.04 62.01 69.06 61.97 69.1 61.93C69.25 62.06 69.34 62.25 69.34 62.47C69.34 62.57 69.42 62.66 69.52 62.67C69.63 62.67 69.71 62.59 69.71 62.48V62.28C69.71 62.22 69.72 62.15 69.74 62.1C69.75 62.08 69.76 62.06 69.77 62.04C69.77 62.05 69.78 62.05 69.78 62.06C69.8 62.12 69.81 62.18 69.81 62.24V62.44C69.81 62.55 69.9 62.63 70 62.63C70.1 62.63 70.18 62.54 70.18 62.44C70.18 62.25 70.26 62.07 70.38 61.94C70.43 61.98 70.47 62.04 70.49 62.1C70.51 62.16 70.52 62.22 70.52 62.28V62.48C70.52 62.59 70.61 62.67 70.71 62.67C70.81 62.66 70.89 62.58 70.89 62.47C70.89 62.11 71.16 61.81 71.51 61.75C71.79 61.87 71.99 62.14 71.99 62.45Z" fill="#F0A2BD" stroke="black" stroke-width="0.25" stroke-miterlimit="10"/>
<path d="M71.99 62.45V62.64L71.92 73.09C71.92 73.19 71.83 73.28 71.73 73.28H67.06C66.96 73.28 66.87 73.2 66.87 73.09L66.8 62.64V62.45C66.8 62.04 67.13 61.71 67.54 61.71H67.88C67.97 61.71 68.06 61.73 68.14 61.76C68.42 61.86 68.62 62.13 68.62 62.44C68.62 62.54 68.7 62.63 68.8 62.63C68.91 62.63 68.99 62.55 68.99 62.44V62.24C68.99 62.18 69 62.12 69.02 62.06C69.04 62.01 69.06 61.97 69.1 61.93C69.25 62.06 69.34 62.25 69.34 62.47C69.34 62.57 69.42 62.66 69.52 62.67C69.63 62.67 69.71 62.59 69.71 62.48V62.28C69.71 62.22 69.72 62.15 69.74 62.1C69.75 62.08 69.76 62.06 69.77 62.04C69.77 62.05 69.78 62.05 69.78 62.06C69.8 62.12 69.81 62.18 69.81 62.24V62.44C69.81 62.55 69.9 62.63 70 62.63C70.1 62.63 70.18 62.54 70.18 62.44C70.18 62.25 70.26 62.07 70.38 61.94C70.43 61.98 70.47 62.04 70.49 62.1C70.51 62.16 70.52 62.22 70.52 62.28V62.48C70.52 62.59 70.61 62.67 70.71 62.67C70.81 62.66 70.89 62.58 70.89 62.47C70.89 62.11 71.16 61.81 71.51 61.75C71.79 61.87 71.99 62.14 71.99 62.45Z" stroke="black" stroke-width="0.25" stroke-miterlimit="10" stroke-linecap="round" stroke-linejoin="round"/>
<path d="M63.1001 74.09H56.3101V74.08V61.38H63.1001V74.08V74.09Z" fill="#FB6337" stroke="black" stroke-width="0.25" stroke-miterlimit="10"/>
<path d="M63.1001 74.09H56.3101V74.08V61.38H63.1001V74.08V74.09Z" stroke="black" stroke-width="0.25" stroke-miterlimit="10" stroke-linecap="round" stroke-linejoin="round"/>
<path d="M62.2801 62.45V62.64L62.2101 73.09C62.2101 73.19 62.1201 73.28 62.0201 73.28H57.3501C57.2501 73.28 57.1601 73.2 57.1601 73.09L57.0901 62.64V62.45C57.0901 62.04 57.4201 61.71 57.8301 61.71H58.1701C58.2601 61.71 58.3501 61.73 58.4301 61.76C58.7101 61.86 58.9101 62.13 58.9101 62.44C58.9101 62.54 58.9901 62.63 59.0901 62.63C59.2001 62.63 59.2801 62.55 59.2801 62.44V62.24C59.2801 62.18 59.2901 62.12 59.3101 62.06C59.3301 62.01 59.3501 61.97 59.3901 61.93C59.5401 62.06 59.6301 62.25 59.6301 62.47C59.6301 62.57 59.7101 62.66 59.8101 62.67C59.9201 62.67 60.0001 62.59 60.0001 62.48V62.28C60.0001 62.22 60.0101 62.15 60.0301 62.1C60.0401 62.08 60.0501 62.06 60.0601 62.04C60.0601 62.05 60.0701 62.05 60.0701 62.06C60.0901 62.12 60.1001 62.18 60.1001 62.24V62.44C60.1001 62.55 60.1901 62.63 60.2901 62.63C60.3901 62.63 60.4701 62.54 60.4701 62.44C60.4701 62.25 60.5501 62.07 60.6701 61.94C60.7201 61.98 60.7601 62.04 60.7801 62.1C60.8001 62.16 60.8101 62.22 60.8101 62.28V62.48C60.8101 62.59 60.9001 62.67 61.0001 62.67C61.1001 62.66 61.1801 62.58 61.1801 62.47C61.1801 62.11 61.4501 61.81 61.8001 61.75C62.0801 61.87 62.2801 62.14 62.2801 62.45Z" fill="#F0A2BD" stroke="black" stroke-width="0.25" stroke-miterlimit="10"/>
<path d="M62.2801 62.45V62.64L62.2101 73.09C62.2101 73.19 62.1201 73.28 62.0201 73.28H57.3501C57.2501 73.28 57.1601 73.2 57.1601 73.09L57.0901 62.64V62.45C57.0901 62.04 57.4201 61.71 57.8301 61.71H58.1701C58.2601 61.71 58.3501 61.73 58.4301 61.76C58.7101 61.86 58.9101 62.13 58.9101 62.44C58.9101 62.54 58.9901 62.63 59.0901 62.63C59.2001 62.63 59.2801 62.55 59.2801 62.44V62.24C59.2801 62.18 59.2901 62.12 59.3101 62.06C59.3301 62.01 59.3501 61.97 59.3901 61.93C59.5401 62.06 59.6301 62.25 59.6301 62.47C59.6301 62.57 59.7101 62.66 59.8101 62.67C59.9201 62.67 60.0001 62.59 60.0001 62.48V62.28C60.0001 62.22 60.0101 62.15 60.0301 62.1C60.0401 62.08 60.0501 62.06 60.0601 62.04C60.0601 62.05 60.0701 62.05 60.0701 62.06C60.0901 62.12 60.1001 62.18 60.1001 62.24V62.44C60.1001 62.55 60.1901 62.63 60.2901 62.63C60.3901 62.63 60.4701 62.54 60.4701 62.44C60.4701 62.25 60.5501 62.07 60.6701 61.94C60.7201 61.98 60.7601 62.04 60.7801 62.1C60.8001 62.16 60.8101 62.22 60.8101 62.28V62.48C60.8101 62.59 60.9001 62.67 61.0001 62.67C61.1001 62.66 61.1801 62.58 61.1801 62.47C61.1801 62.11 61.4501 61.81 61.8001 61.75C62.0801 61.87 62.2801 62.14 62.2801 62.45Z" stroke="black" stroke-width="0.25" stroke-miterlimit="10" stroke-linecap="round" stroke-linejoin="round"/>
<path d="M63.1701 61.3801H56.2501C56.0301 61.3801 55.8601 61.2101 55.8601 60.9901C55.8601 60.7701 56.0301 60.6001 56.2501 60.6001H63.1701C63.3901 60.6001 63.5601 60.7701 63.5601 60.9901C63.5601 61.2001 63.3901 61.3801 63.1701 61.3801Z" fill="#F0EADB" stroke="black" stroke-width="0.25" stroke-miterlimit="10"/>
<path d="M63.1701 61.3801H56.2501C56.0301 61.3801 55.8601 61.2101 55.8601 60.9901C55.8601 60.7701 56.0301 60.6001 56.2501 60.6001H63.1701C63.3901 60.6001 63.5601 60.7701 63.5601 60.9901C63.5601 61.2001 63.3901 61.3801 63.1701 61.3801Z" stroke="black" stroke-width="0.25" stroke-miterlimit="10" stroke-linecap="round" stroke-linejoin="round"/>
<path d="M63.1701 74.8601H56.2501C56.0301 74.8601 55.8601 74.6901 55.8601 74.4701C55.8601 74.2501 56.0301 74.0801 56.2501 74.0801H63.1701C63.3901 74.0801 63.5601 74.2501 63.5601 74.4701C63.5601 74.6901 63.3901 74.8601 63.1701 74.8601Z" fill="#F0EADB" stroke="black" stroke-width="0.25" stroke-miterlimit="10"/>
<path d="M63.1701 74.8601H56.2501C56.0301 74.8601 55.8601 74.6901 55.8601 74.4701C55.8601 74.2501 56.0301 74.0801 56.2501 74.0801H63.1701C63.3901 74.0801 63.5601 74.2501 63.5601 74.4701C63.5601 74.6901 63.3901 74.8601 63.1701 74.8601Z" stroke="black" stroke-width="0.25" stroke-miterlimit="10" stroke-linecap="round" stroke-linejoin="round"/>
<path d="M61.8 61.76C61.72 61.73 61.6301 61.71 61.5401 61.71H61.2001C60.9901 61.71 60.8 61.8 60.66 61.94C60.54 62.07 60.46 62.25 60.46 62.44C60.46 62.54 60.38 62.63 60.28 62.63C60.17 62.63 60.09 62.55 60.09 62.44V62.24C60.09 62.18 60.0801 62.11 60.0601 62.06C60.0601 62.05 60.05 62.05 60.05 62.04C59.93 61.76 59.5601 61.73 59.3801 61.93C59.3501 61.97 59.32 62.01 59.3 62.06C59.28 62.12 59.2701 62.18 59.2701 62.24V62.44C59.2701 62.55 59.1801 62.63 59.0801 62.63C58.9801 62.63 58.9001 62.54 58.9001 62.44C58.9001 62.13 58.7 61.86 58.42 61.76C58.07 61.82 57.8 62.12 57.8 62.49V62.68L57.87 73.13C57.87 73.19 57.9001 73.25 57.9501 73.28H62.01C62.11 73.28 62.2001 73.2 62.2001 73.09L62.2701 62.64V62.45C62.2801 62.14 62.08 61.87 61.8 61.76Z" fill="black" stroke="black" stroke-width="0.25" stroke-miterlimit="10"/>
<path d="M61.8 61.76C61.72 61.73 61.6301 61.71 61.5401 61.71H61.2001C60.9901 61.71 60.8 61.8 60.66 61.94C60.54 62.07 60.46 62.25 60.46 62.44C60.46 62.54 60.38 62.63 60.28 62.63C60.17 62.63 60.09 62.55 60.09 62.44V62.24C60.09 62.18 60.0801 62.11 60.0601 62.06C60.0601 62.05 60.05 62.05 60.05 62.04C59.93 61.76 59.5601 61.73 59.3801 61.93C59.3501 61.97 59.32 62.01 59.3 62.06C59.28 62.12 59.2701 62.18 59.2701 62.24V62.44C59.2701 62.55 59.1801 62.63 59.0801 62.63C58.9801 62.63 58.9001 62.54 58.9001 62.44C58.9001 62.13 58.7 61.86 58.42 61.76C58.07 61.82 57.8 62.12 57.8 62.49V62.68L57.87 73.13C57.87 73.19 57.9001 73.25 57.9501 73.28H62.01C62.11 73.28 62.2001 73.2 62.2001 73.09L62.2701 62.64V62.45C62.2801 62.14 62.08 61.87 61.8 61.76Z" stroke="black" stroke-width="0.25" stroke-miterlimit="10" stroke-linecap="round" stroke-linejoin="round"/>
<path d="M72.8901 61.3801H65.9701C65.7501 61.3801 65.5801 61.2101 65.5801 60.9901C65.5801 60.7701 65.7501 60.6001 65.9701 60.6001H72.8901C73.1101 60.6001 73.2801 60.7701 73.2801 60.9901C73.2801 61.2001 73.1101 61.3801 72.8901 61.3801Z" fill="#F0EADB" stroke="black" stroke-width="0.25" stroke-miterlimit="10"/>
<path d="M72.8901 61.3801H65.9701C65.7501 61.3801 65.5801 61.2101 65.5801 60.9901C65.5801 60.7701 65.7501 60.6001 65.9701 60.6001H72.8901C73.1101 60.6001 73.2801 60.7701 73.2801 60.9901C73.2801 61.2001 73.1101 61.3801 72.8901 61.3801Z" stroke="black" stroke-width="0.25" stroke-miterlimit="10" stroke-linecap="round" stroke-linejoin="round"/>
<path d="M72.8901 74.8601H65.9701C65.7501 74.8601 65.5801 74.6901 65.5801 74.4701C65.5801 74.2501 65.7501 74.0801 65.9701 74.0801H72.8901C73.1101 74.0801 73.2801 74.2501 73.2801 74.4701C73.2801 74.6901 73.1101 74.8601 72.8901 74.8601Z" fill="#F0EADB" stroke="black" stroke-width="0.25" stroke-miterlimit="10"/>
<path d="M72.8901 74.8601H65.9701C65.7501 74.8601 65.5801 74.6901 65.5801 74.4701C65.5801 74.2501 65.7501 74.0801 65.9701 74.0801H72.8901C73.1101 74.0801 73.2801 74.2501 73.2801 74.4701C73.2801 74.6901 73.1101 74.8601 72.8901 74.8601Z" stroke="black" stroke-width="0.25" stroke-miterlimit="10" stroke-linecap="round" stroke-linejoin="round"/>
<path d="M71.51 61.76C71.43 61.73 71.34 61.71 71.25 61.71H70.91C70.7 61.71 70.51 61.8 70.37 61.94C70.25 62.07 70.17 62.25 70.17 62.44C70.17 62.54 70.09 62.63 69.99 62.63C69.88 62.63 69.8 62.55 69.8 62.44V62.24C69.8 62.18 69.79 62.11 69.77 62.06C69.77 62.05 69.76 62.05 69.76 62.04C69.64 61.76 69.27 61.73 69.09 61.93C69.06 61.97 69.03 62.01 69.01 62.06C68.99 62.12 68.98 62.18 68.98 62.24V62.44C68.98 62.55 68.89 62.63 68.79 62.63C68.69 62.63 68.61 62.54 68.61 62.44C68.61 62.13 68.41 61.86 68.13 61.76C67.78 61.82 67.51 62.12 67.51 62.49V62.68L67.58 73.13C67.58 73.19 67.61 73.25 67.66 73.28H71.72C71.82 73.28 71.91 73.2 71.91 73.09L71.98 62.64V62.45C71.99 62.14 71.79 61.87 71.51 61.76Z" fill="black" stroke="black" stroke-width="0.25" stroke-miterlimit="10"/>
<path d="M71.51 61.76C71.43 61.73 71.34 61.71 71.25 61.71H70.91C70.7 61.71 70.51 61.8 70.37 61.94C70.25 62.07 70.17 62.25 70.17 62.44C70.17 62.54 70.09 62.63 69.99 62.63C69.88 62.63 69.8 62.55 69.8 62.44V62.24C69.8 62.18 69.79 62.11 69.77 62.06C69.77 62.05 69.76 62.05 69.76 62.04C69.64 61.76 69.27 61.73 69.09 61.93C69.06 61.97 69.03 62.01 69.01 62.06C68.99 62.12 68.98 62.18 68.98 62.24V62.44C68.98 62.55 68.89 62.63 68.79 62.63C68.69 62.63 68.61 62.54 68.61 62.44C68.61 62.13 68.41 61.86 68.13 61.76C67.78 61.82 67.51 62.12 67.51 62.49V62.68L67.58 73.13C67.58 73.19 67.61 73.25 67.66 73.28H71.72C71.82 73.28 71.91 73.2 71.91 73.09L71.98 62.64V62.45C71.99 62.14 71.79 61.87 71.51 61.76Z" stroke="black" stroke-width="0.25" stroke-miterlimit="10" stroke-linecap="round" stroke-linejoin="round"/>
<path d="M72.82 94.46H66.03V81.75H72.82V94.46Z" fill="#FB6337" stroke="black" stroke-width="0.25" stroke-miterlimit="10"/>
<path d="M72.82 94.46H66.03V81.75H72.82V94.46Z" stroke="black" stroke-width="0.25" stroke-miterlimit="10" stroke-linecap="round" stroke-linejoin="round"/>
<path d="M71.99 82.8201V83.0101L71.92 93.4601C71.92 93.5601 71.83 93.6501 71.73 93.6501H67.06C66.96 93.6501 66.87 93.5701 66.87 93.4601L66.8 83.0101V82.8201C66.8 82.4101 67.13 82.0801 67.54 82.0801H67.88C67.97 82.0801 68.06 82.1001 68.14 82.1301C68.42 82.2301 68.62 82.5001 68.62 82.8101C68.62 82.9101 68.7 83.0001 68.8 83.0001C68.91 83.0101 68.99 82.9201 68.99 82.8101V82.6101C68.99 82.5501 69 82.4801 69.02 82.4301C69.04 82.3801 69.06 82.3401 69.1 82.3001C69.25 82.4301 69.34 82.6201 69.34 82.8401C69.34 82.9401 69.42 83.0301 69.52 83.0401C69.63 83.0401 69.71 82.9601 69.71 82.8501V82.6501C69.71 82.5901 69.72 82.5201 69.74 82.4701C69.75 82.4501 69.76 82.4301 69.77 82.4101C69.77 82.4201 69.78 82.4201 69.78 82.4301C69.8 82.4901 69.81 82.5501 69.81 82.6101V82.8101C69.81 82.9201 69.9 83.0001 70 83.0001C70.1 83.0001 70.18 82.9101 70.18 82.8101C70.18 82.6201 70.26 82.4401 70.38 82.3101C70.43 82.3501 70.47 82.4101 70.49 82.4701C70.51 82.5301 70.52 82.5901 70.52 82.6501V82.8501C70.52 82.9601 70.61 83.0401 70.71 83.0401C70.81 83.0301 70.89 82.9501 70.89 82.8401C70.89 82.4801 71.16 82.1801 71.51 82.1201C71.79 82.2401 71.99 82.5101 71.99 82.8201Z" fill="#F0A2BD" stroke="black" stroke-width="0.25" stroke-miterlimit="10"/>
<path d="M71.99 82.8201V83.0101L71.92 93.4601C71.92 93.5601 71.83 93.6501 71.73 93.6501H67.06C66.96 93.6501 66.87 93.5701 66.87 93.4601L66.8 83.0101V82.8201C66.8 82.4101 67.13 82.0801 67.54 82.0801H67.88C67.97 82.0801 68.06 82.1001 68.14 82.1301C68.42 82.2301 68.62 82.5001 68.62 82.8101C68.62 82.9101 68.7 83.0001 68.8 83.0001C68.91 83.0101 68.99 82.9201 68.99 82.8101V82.6101C68.99 82.5501 69 82.4801 69.02 82.4301C69.04 82.3801 69.06 82.3401 69.1 82.3001C69.25 82.4301 69.34 82.6201 69.34 82.8401C69.34 82.9401 69.42 83.0301 69.52 83.0401C69.63 83.0401 69.71 82.9601 69.71 82.8501V82.6501C69.71 82.5901 69.72 82.5201 69.74 82.4701C69.75 82.4501 69.76 82.4301 69.77 82.4101C69.77 82.4201 69.78 82.4201 69.78 82.4301C69.8 82.4901 69.81 82.5501 69.81 82.6101V82.8101C69.81 82.9201 69.9 83.0001 70 83.0001C70.1 83.0001 70.18 82.9101 70.18 82.8101C70.18 82.6201 70.26 82.4401 70.38 82.3101C70.43 82.3501 70.47 82.4101 70.49 82.4701C70.51 82.5301 70.52 82.5901 70.52 82.6501V82.8501C70.52 82.9601 70.61 83.0401 70.71 83.0401C70.81 83.0301 70.89 82.9501 70.89 82.8401C70.89 82.4801 71.16 82.1801 71.51 82.1201C71.79 82.2401 71.99 82.5101 71.99 82.8201Z" stroke="black" stroke-width="0.25" stroke-miterlimit="10" stroke-linecap="round" stroke-linejoin="round"/>
<path d="M63.1001 94.46H56.3101V81.75H63.1001V94.46Z" fill="#FB6337" stroke="black" stroke-width="0.25" stroke-miterlimit="10"/>
<path d="M63.1001 94.46H56.3101V81.75H63.1001V94.46Z" stroke="black" stroke-width="0.25" stroke-miterlimit="10" stroke-linecap="round" stroke-linejoin="round"/>
<path d="M62.2801 82.8201V83.0101L62.2101 93.4601C62.2101 93.5601 62.1201 93.6501 62.0201 93.6501H57.3501C57.2501 93.6501 57.1601 93.5701 57.1601 93.4601L57.0901 83.0101V82.8201C57.0901 82.4101 57.4201 82.0801 57.8301 82.0801H58.1701C58.2601 82.0801 58.3501 82.1001 58.4301 82.1301C58.7101 82.2301 58.9101 82.5001 58.9101 82.8101C58.9101 82.9101 58.9901 83.0001 59.0901 83.0001C59.2001 83.0101 59.2801 82.9201 59.2801 82.8101V82.6101C59.2801 82.5501 59.2901 82.4801 59.3101 82.4301C59.3301 82.3801 59.3501 82.3401 59.3901 82.3001C59.5401 82.4301 59.6301 82.6201 59.6301 82.8401C59.6301 82.9401 59.7101 83.0301 59.8101 83.0401C59.9201 83.0401 60.0001 82.9601 60.0001 82.8501V82.6501C60.0001 82.5901 60.0101 82.5201 60.0301 82.4701C60.0401 82.4501 60.0501 82.4301 60.0601 82.4101C60.0601 82.4201 60.0701 82.4201 60.0701 82.4301C60.0901 82.4901 60.1001 82.5501 60.1001 82.6101V82.8101C60.1001 82.9201 60.1901 83.0001 60.2901 83.0001C60.3901 83.0001 60.4701 82.9101 60.4701 82.8101C60.4701 82.6201 60.5501 82.4401 60.6701 82.3101C60.7201 82.3501 60.7601 82.4101 60.7801 82.4701C60.8001 82.5301 60.8101 82.5901 60.8101 82.6501V82.8501C60.8101 82.9601 60.9001 83.0401 61.0001 83.0401C61.1001 83.0301 61.1801 82.9501 61.1801 82.8401C61.1801 82.4801 61.4501 82.1801 61.8001 82.1201C62.0801 82.2401 62.2801 82.5101 62.2801 82.8201Z" fill="#F0A2BD" stroke="black" stroke-width="0.25" stroke-miterlimit="10"/>
<path d="M62.2801 82.8201V83.0101L62.2101 93.4601C62.2101 93.5601 62.1201 93.6501 62.0201 93.6501H57.3501C57.2501 93.6501 57.1601 93.5701 57.1601 93.4601L57.0901 83.0101V82.8201C57.0901 82.4101 57.4201 82.0801 57.8301 82.0801H58.1701C58.2601 82.0801 58.3501 82.1001 58.4301 82.1301C58.7101 82.2301 58.9101 82.5001 58.9101 82.8101C58.9101 82.9101 58.9901 83.0001 59.0901 83.0001C59.2001 83.0101 59.2801 82.9201 59.2801 82.8101V82.6101C59.2801 82.5501 59.2901 82.4801 59.3101 82.4301C59.3301 82.3801 59.3501 82.3401 59.3901 82.3001C59.5401 82.4301 59.6301 82.6201 59.6301 82.8401C59.6301 82.9401 59.7101 83.0301 59.8101 83.0401C59.9201 83.0401 60.0001 82.9601 60.0001 82.8501V82.6501C60.0001 82.5901 60.0101 82.5201 60.0301 82.4701C60.0401 82.4501 60.0501 82.4301 60.0601 82.4101C60.0601 82.4201 60.0701 82.4201 60.0701 82.4301C60.0901 82.4901 60.1001 82.5501 60.1001 82.6101V82.8101C60.1001 82.9201 60.1901 83.0001 60.2901 83.0001C60.3901 83.0001 60.4701 82.9101 60.4701 82.8101C60.4701 82.6201 60.5501 82.4401 60.6701 82.3101C60.7201 82.3501 60.7601 82.4101 60.7801 82.4701C60.8001 82.5301 60.8101 82.5901 60.8101 82.6501V82.8501C60.8101 82.9601 60.9001 83.0401 61.0001 83.0401C61.1001 83.0301 61.1801 82.9501 61.1801 82.8401C61.1801 82.4801 61.4501 82.1801 61.8001 82.1201C62.0801 82.2401 62.2801 82.5101 62.2801 82.8201Z" stroke="black" stroke-width="0.25" stroke-miterlimit="10" stroke-linecap="round" stroke-linejoin="round"/>
<path d="M63.1701 81.75H56.2501C56.0301 81.75 55.8601 81.58 55.8601 81.36C55.8601 81.14 56.0301 80.97 56.2501 80.97H63.1701C63.3901 80.97 63.5601 81.14 63.5601 81.36C63.5601 81.58 63.3901 81.75 63.1701 81.75Z" fill="#F0EADB" stroke="black" stroke-width="0.25" stroke-miterlimit="10"/>
<path d="M63.1701 81.75H56.2501C56.0301 81.75 55.8601 81.58 55.8601 81.36C55.8601 81.14 56.0301 80.97 56.2501 80.97H63.1701C63.3901 80.97 63.5601 81.14 63.5601 81.36C63.5601 81.58 63.3901 81.75 63.1701 81.75Z" stroke="black" stroke-width="0.25" stroke-miterlimit="10" stroke-linecap="round" stroke-linejoin="round"/>
<path d="M63.1701 95.24H56.2501C56.0301 95.24 55.8601 95.07 55.8601 94.85C55.8601 94.63 56.0301 94.46 56.2501 94.46H63.1701C63.3901 94.46 63.5601 94.63 63.5601 94.85C63.5601 95.06 63.3901 95.24 63.1701 95.24Z" fill="#F0EADB" stroke="black" stroke-width="0.25" stroke-miterlimit="10"/>
<path d="M63.1701 95.24H56.2501C56.0301 95.24 55.8601 95.07 55.8601 94.85C55.8601 94.63 56.0301 94.46 56.2501 94.46H63.1701C63.3901 94.46 63.5601 94.63 63.5601 94.85C63.5601 95.06 63.3901 95.24 63.1701 95.24Z" stroke="black" stroke-width="0.25" stroke-miterlimit="10" stroke-linecap="round" stroke-linejoin="round"/>
<path d="M61.8 82.1301C61.72 82.1001 61.6301 82.0801 61.5401 82.0801H61.2001C60.9901 82.0801 60.8 82.1701 60.66 82.3101C60.54 82.4401 60.46 82.6201 60.46 82.8101C60.46 82.9101 60.38 83.0001 60.28 83.0001C60.17 83.0001 60.09 82.9201 60.09 82.8101V82.6101C60.09 82.5501 60.0801 82.4901 60.0601 82.4301C60.0601 82.4201 60.05 82.4201 60.05 82.4101C59.93 82.1301 59.5601 82.1001 59.3801 82.3001C59.3501 82.3401 59.32 82.3801 59.3 82.4301C59.28 82.4901 59.2701 82.5501 59.2701 82.6101V82.8101C59.2701 82.9201 59.1801 83.0001 59.0801 83.0001C58.9801 83.0001 58.9001 82.9101 58.9001 82.8101C58.9001 82.5001 58.7 82.2301 58.42 82.1301C58.07 82.1901 57.8 82.4901 57.8 82.8601V83.0501L57.87 93.5001C57.87 93.5601 57.9001 93.6201 57.9501 93.6501H62.01C62.11 93.6501 62.2001 93.5701 62.2001 93.4601L62.2701 83.0101V82.8201C62.2801 82.5101 62.08 82.2401 61.8 82.1301Z" fill="black" stroke="black" stroke-width="0.25" stroke-miterlimit="10"/>
<path d="M61.8 82.1301C61.72 82.1001 61.6301 82.0801 61.5401 82.0801H61.2001C60.9901 82.0801 60.8 82.1701 60.66 82.3101C60.54 82.4401 60.46 82.6201 60.46 82.8101C60.46 82.9101 60.38 83.0001 60.28 83.0001C60.17 83.0001 60.09 82.9201 60.09 82.8101V82.6101C60.09 82.5501 60.0801 82.4901 60.0601 82.4301C60.0601 82.4201 60.05 82.4201 60.05 82.4101C59.93 82.1301 59.5601 82.1001 59.3801 82.3001C59.3501 82.3401 59.32 82.3801 59.3 82.4301C59.28 82.4901 59.2701 82.5501 59.2701 82.6101V82.8101C59.2701 82.9201 59.1801 83.0001 59.0801 83.0001C58.9801 83.0001 58.9001 82.9101 58.9001 82.8101C58.9001 82.5001 58.7 82.2301 58.42 82.1301C58.07 82.1901 57.8 82.4901 57.8 82.8601V83.0501L57.87 93.5001C57.87 93.5601 57.9001 93.6201 57.9501 93.6501H62.01C62.11 93.6501 62.2001 93.5701 62.2001 93.4601L62.2701 83.0101V82.8201C62.2801 82.5101 62.08 82.2401 61.8 82.1301Z" stroke="black" stroke-width="0.25" stroke-miterlimit="10" stroke-linecap="round" stroke-linejoin="round"/>
<path d="M72.8901 81.75H65.9701C65.7501 81.75 65.5801 81.58 65.5801 81.36C65.5801 81.14 65.7501 80.97 65.9701 80.97H72.8901C73.1101 80.97 73.2801 81.14 73.2801 81.36C73.2801 81.58 73.1101 81.75 72.8901 81.75Z" fill="#F0EADB" stroke="black" stroke-width="0.25" stroke-miterlimit="10"/>
<path d="M72.8901 81.75H65.9701C65.7501 81.75 65.5801 81.58 65.5801 81.36C65.5801 81.14 65.7501 80.97 65.9701 80.97H72.8901C73.1101 80.97 73.2801 81.14 73.2801 81.36C73.2801 81.58 73.1101 81.75 72.8901 81.75Z" stroke="black" stroke-width="0.25" stroke-miterlimit="10" stroke-linecap="round" stroke-linejoin="round"/>
<path d="M72.8901 95.24H65.9701C65.7501 95.24 65.5801 95.07 65.5801 94.85C65.5801 94.63 65.7501 94.46 65.9701 94.46H72.8901C73.1101 94.46 73.2801 94.63 73.2801 94.85C73.2801 95.06 73.1101 95.24 72.8901 95.24Z" fill="#F0EADB" stroke="black" stroke-width="0.25" stroke-miterlimit="10"/>
<path d="M72.8901 95.24H65.9701C65.7501 95.24 65.5801 95.07 65.5801 94.85C65.5801 94.63 65.7501 94.46 65.9701 94.46H72.8901C73.1101 94.46 73.2801 94.63 73.2801 94.85C73.2801 95.06 73.1101 95.24 72.8901 95.24Z" stroke="black" stroke-width="0.25" stroke-miterlimit="10" stroke-linecap="round" stroke-linejoin="round"/>
<path d="M71.51 82.1301C71.43 82.1001 71.34 82.0801 71.25 82.0801H70.91C70.7 82.0801 70.51 82.1701 70.37 82.3101C70.25 82.4401 70.17 82.6201 70.17 82.8101C70.17 82.9101 70.09 83.0001 69.99 83.0001C69.88 83.0001 69.8 82.9201 69.8 82.8101V82.6101C69.8 82.5501 69.79 82.4901 69.77 82.4301C69.77 82.4201 69.76 82.4201 69.76 82.4101C69.64 82.1301 69.27 82.1001 69.09 82.3001C69.06 82.3401 69.03 82.3801 69.01 82.4301C68.99 82.4901 68.98 82.5501 68.98 82.6101V82.8101C68.98 82.9201 68.89 83.0001 68.79 83.0001C68.69 83.0001 68.61 82.9101 68.61 82.8101C68.61 82.5001 68.41 82.2301 68.13 82.1301C67.78 82.1901 67.51 82.4901 67.51 82.8601V83.0501L67.58 93.5001C67.58 93.5601 67.61 93.6201 67.66 93.6501H71.72C71.82 93.6501 71.91 93.5701 71.91 93.4601L71.98 83.0101V82.8201C71.99 82.5101 71.79 82.2401 71.51 82.1301Z" fill="black" stroke="black" stroke-width="0.25" stroke-miterlimit="10"/>
<path d="M71.51 82.1301C71.43 82.1001 71.34 82.0801 71.25 82.0801H70.91C70.7 82.0801 70.51 82.1701 70.37 82.3101C70.25 82.4401 70.17 82.6201 70.17 82.8101C70.17 82.9101 70.09 83.0001 69.99 83.0001C69.88 83.0001 69.8 82.9201 69.8 82.8101V82.6101C69.8 82.5501 69.79 82.4901 69.77 82.4301C69.77 82.4201 69.76 82.4201 69.76 82.4101C69.64 82.1301 69.27 82.1001 69.09 82.3001C69.06 82.3401 69.03 82.3801 69.01 82.4301C68.99 82.4901 68.98 82.5501 68.98 82.6101V82.8101C68.98 82.9201 68.89 83.0001 68.79 83.0001C68.69 83.0001 68.61 82.9101 68.61 82.8101C68.61 82.5001 68.41 82.2301 68.13 82.1301C67.78 82.1901 67.51 82.4901 67.51 82.8601V83.0501L67.58 93.5001C67.58 93.5601 67.61 93.6201 67.66 93.6501H71.72C71.82 93.6501 71.91 93.5701 71.91 93.4601L71.98 83.0101V82.8201C71.99 82.5101 71.79 82.2401 71.51 82.1301Z" stroke="black" stroke-width="0.25" stroke-miterlimit="10" stroke-linecap="round" stroke-linejoin="round"/>
</svg>
