<svg width="141" height="170" viewBox="0 0 141 170" fill="none" xmlns="http://www.w3.org/2000/svg">
<path d="M137.04 70.43C136.93 86.05 131.47 100.38 122.35 111.65L75.54 164.24C72.87 167.24 68.17 167.24 65.5 164.24L18.69 111.65C9.48 100.27 4 85.77 4 69.97C4 33.19 33.87 3.36999 70.67 3.44999C107.16 3.52999 137.29 33.94 137.04 70.43Z" fill="white"/>
<path d="M70.5201 169.64C67.7101 169.64 65.0201 168.43 63.1401 166.33L16.3301 113.74C6.31008 101.35 0.840088 85.85 0.840088 69.96C0.840088 51.33 8.11005 33.82 21.3 20.64C34.46 7.51003 51.9301 0.280029 70.5101 0.280029C70.5601 0.280029 70.61 0.280029 70.66 0.280029C89.15 0.320029 106.62 7.69002 119.85 21.04C133.09 34.4 140.31 51.94 140.18 70.43C140.07 86.36 134.75 101.29 124.79 113.61L77.8801 166.31C76.0201 168.43 73.3401 169.64 70.5201 169.64ZM70.5201 6.60004C53.6201 6.60004 37.7301 13.17 25.7601 25.12C13.7601 37.1 7.15009 53.03 7.15009 69.97C7.15009 84.42 12.1201 98.51 21.1401 109.67L67.85 162.14C68.54 162.91 69.4801 163.34 70.5201 163.34C71.5501 163.34 72.5001 162.92 73.1801 162.15L119.99 109.56C128.95 98.48 133.79 84.91 133.88 70.42C133.99 53.61 127.42 37.66 115.38 25.51C103.34 13.36 87.46 6.65003 70.66 6.61003C70.62 6.60003 70.5701 6.60004 70.5201 6.60004Z" fill="black"/>
<path d="M60.42 47.95L57.23 51.06" stroke="black" stroke-width="0.25" stroke-miterlimit="10"/>
<path d="M60.42 47.95L57.23 51.06" stroke="black" stroke-width="0.25" stroke-miterlimit="10"/>
<path d="M60.2271 47.7591L57.04 50.8647L57.4518 51.2873L60.6389 48.1816L60.2271 47.7591Z" fill="#FCA3BE" stroke="black" stroke-width="0.25" stroke-miterlimit="10"/>
<path d="M60.2271 47.7591L57.04 50.8647L57.4518 51.2873L60.6389 48.1816L60.2271 47.7591Z" stroke="black" stroke-width="0.25" stroke-miterlimit="10"/>
<path d="M61.3198 47.95L64.5098 51.06" stroke="black" stroke-width="0.25" stroke-miterlimit="10"/>
<path d="M61.3198 47.95L64.5098 51.06" stroke="black" stroke-width="0.25" stroke-miterlimit="10"/>
<path d="M61.5178 47.7148L61.106 48.1373L64.2926 51.2434L64.7044 50.8209L61.5178 47.7148Z" fill="#FCA3BE" stroke="black" stroke-width="0.25" stroke-miterlimit="10"/>
<path d="M61.5178 47.7148L61.106 48.1373L64.2926 51.2434L64.7044 50.8209L61.5178 47.7148Z" stroke="black" stroke-width="0.25" stroke-miterlimit="10"/>
<path d="M60.42 51.52L57.23 54.63" stroke="black" stroke-width="0.25" stroke-miterlimit="10"/>
<path d="M60.42 51.52L57.23 54.63" stroke="black" stroke-width="0.25" stroke-miterlimit="10"/>
<path d="M60.223 51.3306L57.0359 54.4363L57.4476 54.8588L60.6347 51.7532L60.223 51.3306Z" fill="#FCA3BE" stroke="black" stroke-width="0.25" stroke-miterlimit="10"/>
<path d="M60.223 51.3306L57.0359 54.4363L57.4476 54.8588L60.6347 51.7532L60.223 51.3306Z" stroke="black" stroke-width="0.25" stroke-miterlimit="10"/>
<path d="M61.3198 51.52L64.5098 54.63" stroke="black" stroke-width="0.25" stroke-miterlimit="10"/>
<path d="M61.3198 51.52L64.5098 54.63" stroke="black" stroke-width="0.25" stroke-miterlimit="10"/>
<path d="M61.5141 51.2865L61.1023 51.709L64.2889 54.8151L64.7008 54.3926L61.5141 51.2865Z" fill="#FCA3BE" stroke="black" stroke-width="0.25" stroke-miterlimit="10"/>
<path d="M61.5141 51.2865L61.1023 51.709L64.2889 54.8151L64.7008 54.3926L61.5141 51.2865Z" stroke="black" stroke-width="0.25" stroke-miterlimit="10"/>
<path d="M60.42 54.6801L57.23 57.7901" stroke="black" stroke-width="0.25" stroke-miterlimit="10"/>
<path d="M60.42 54.6801L57.23 57.7901" stroke="black" stroke-width="0.25" stroke-miterlimit="10"/>
<path d="M60.2242 54.4903L57.0371 57.5959L57.4489 58.0185L60.636 54.9128L60.2242 54.4903Z" fill="#FCA3BE" stroke="black" stroke-width="0.25" stroke-miterlimit="10"/>
<path d="M60.2242 54.4903L57.0371 57.5959L57.4489 58.0185L60.636 54.9128L60.2242 54.4903Z" stroke="black" stroke-width="0.25" stroke-miterlimit="10"/>
<path d="M61.3198 54.6801L64.5098 57.7901" stroke="black" stroke-width="0.25" stroke-miterlimit="10"/>
<path d="M61.3198 54.6801L64.5098 57.7901" stroke="black" stroke-width="0.25" stroke-miterlimit="10"/>
<path d="M61.5176 54.4496L61.1057 54.8721L64.2924 57.9782L64.7042 57.5557L61.5176 54.4496Z" fill="#FCA3BE" stroke="black" stroke-width="0.25" stroke-miterlimit="10"/>
<path d="M61.5176 54.4496L61.1057 54.8721L64.2924 57.9782L64.7042 57.5557L61.5176 54.4496Z" stroke="black" stroke-width="0.25" stroke-miterlimit="10"/>
<path d="M64.73 48.46L72.46 57.1799" stroke="black" stroke-width="0.25" stroke-miterlimit="10"/>
<path d="M64.73 48.46L72.46 57.1799" stroke="black" stroke-width="0.25" stroke-miterlimit="10"/>
<path d="M64.9513 48.2602L64.4946 48.6647L72.2186 57.3859L72.6753 56.9814L64.9513 48.2602Z" fill="#F66E4E" stroke="black" stroke-width="0.25" stroke-miterlimit="10"/>
<path d="M64.9513 48.2602L64.4946 48.6647L72.2186 57.3859L72.6753 56.9814L64.9513 48.2602Z" stroke="black" stroke-width="0.25" stroke-miterlimit="10"/>
<path d="M66.3599 47.91L74.6099 57.23" stroke="black" stroke-width="0.25" stroke-miterlimit="10"/>
<path d="M66.3599 47.91L74.6099 57.23" stroke="black" stroke-width="0.25" stroke-miterlimit="10"/>
<path d="M66.586 47.6859L66.0994 48.1168L74.3537 57.4369L74.8403 57.0059L66.586 47.6859Z" fill="#F66E4E" stroke="black" stroke-width="0.25" stroke-miterlimit="10"/>
<path d="M66.586 47.6859L66.0994 48.1168L74.3537 57.4369L74.8403 57.0059L66.586 47.6859Z" stroke="black" stroke-width="0.25" stroke-miterlimit="10"/>
<path d="M75.0698 50.26L82.0898 57.22" stroke="black" stroke-width="0.25" stroke-miterlimit="10"/>
<path d="M75.0698 50.26L82.0898 57.22" stroke="black" stroke-width="0.25" stroke-miterlimit="10"/>
<path d="M75.3146 50.0697L74.8711 50.5171L81.8879 57.4726L82.3314 57.0252L75.3146 50.0697Z" fill="#F66E4E" stroke="black" stroke-width="0.25" stroke-miterlimit="10"/>
<path d="M75.3146 50.0697L74.8711 50.5171L81.8879 57.4726L82.3314 57.0252L75.3146 50.0697Z" stroke="black" stroke-width="0.25" stroke-miterlimit="10"/>
<path d="M76.76 49.5801L84.29 57.2101" stroke="black" stroke-width="0.25" stroke-miterlimit="10"/>
<path d="M76.76 49.5801L84.29 57.2101" stroke="black" stroke-width="0.25" stroke-miterlimit="10"/>
<path d="M77.0106 49.3778L76.5481 49.8345L84.087 57.4699L84.5495 57.0133L77.0106 49.3778Z" fill="#F66E4E" stroke="black" stroke-width="0.25" stroke-miterlimit="10"/>
<path d="M77.0106 49.3778L76.5481 49.8345L84.087 57.4699L84.5495 57.0133L77.0106 49.3778Z" stroke="black" stroke-width="0.25" stroke-miterlimit="10"/>
<path d="M84.8101 51.41L91.55 57.18" stroke="black" stroke-width="0.25" stroke-miterlimit="10"/>
<path d="M84.8101 51.41L91.55 57.18" stroke="black" stroke-width="0.25" stroke-miterlimit="10"/>
<path d="M85.0121 51.1848L84.5696 51.701L91.3037 57.4736L91.7462 56.9574L85.0121 51.1848Z" fill="#F66E4E" stroke="black" stroke-width="0.25" stroke-miterlimit="10"/>
<path d="M85.0121 51.1848L84.5696 51.701L91.3037 57.4736L91.7462 56.9574L85.0121 51.1848Z" stroke="black" stroke-width="0.25" stroke-miterlimit="10"/>
<path d="M86.7998 51.13L94.2298 57.32" stroke="black" stroke-width="0.25" stroke-miterlimit="10"/>
<path d="M86.7998 51.13L94.2298 57.32" stroke="black" stroke-width="0.25" stroke-miterlimit="10"/>
<path d="M87.0129 50.8321L86.5713 51.3623L94.0017 57.5511L94.4433 57.0209L87.0129 50.8321Z" fill="#F66E4E" stroke="black" stroke-width="0.25" stroke-miterlimit="10"/>
<path d="M87.0129 50.8321L86.5713 51.3623L94.0017 57.5511L94.4433 57.0209L87.0129 50.8321Z" stroke="black" stroke-width="0.25" stroke-miterlimit="10"/>
<path d="M95.04 53.37L100.56 57.35" stroke="black" stroke-width="0.25" stroke-miterlimit="10"/>
<path d="M95.04 53.37L100.56 57.35" stroke="black" stroke-width="0.25" stroke-miterlimit="10"/>
<path d="M95.2395 53.082L94.8416 53.6334L100.364 57.6186L100.762 57.0672L95.2395 53.082Z" fill="#F66E4E" stroke="black" stroke-width="0.25" stroke-miterlimit="10"/>
<path d="M95.2395 53.082L94.8416 53.6334L100.364 57.6186L100.762 57.0672L95.2395 53.082Z" stroke="black" stroke-width="0.25" stroke-miterlimit="10"/>
<path d="M103.57 57.33L97.0601 52.59" stroke="black" stroke-width="0.25" stroke-miterlimit="10"/>
<path d="M103.57 57.33L97.0601 52.59" stroke="black" stroke-width="0.25" stroke-miterlimit="10"/>
<path d="M97.2716 52.2602L96.8362 52.8585L103.345 57.5951L103.781 56.9968L97.2716 52.2602Z" fill="#F66E4E" stroke="black" stroke-width="0.25" stroke-miterlimit="10"/>
<path d="M97.2716 52.2602L96.8362 52.8585L103.345 57.5951L103.781 56.9968L97.2716 52.2602Z" stroke="black" stroke-width="0.25" stroke-miterlimit="10"/>
<path d="M105.01 54.75L109.49 57.32" stroke="black" stroke-width="0.25" stroke-miterlimit="10"/>
<path d="M105.01 54.75L109.49 57.32" stroke="black" stroke-width="0.25" stroke-miterlimit="10"/>
<path d="M105.156 54.4371L104.798 55.0618L109.275 57.6273L109.633 57.0027L105.156 54.4371Z" fill="#F66E4E" stroke="black" stroke-width="0.25" stroke-miterlimit="10"/>
<path d="M105.156 54.4371L104.798 55.0618L109.275 57.6273L109.633 57.0027L105.156 54.4371Z" stroke="black" stroke-width="0.25" stroke-miterlimit="10"/>
<path d="M108.2 54.5601L112.45 57.2901" stroke="black" stroke-width="0.25" stroke-miterlimit="10"/>
<path d="M108.2 54.5601L112.45 57.2901" stroke="black" stroke-width="0.25" stroke-miterlimit="10"/>
<path d="M108.416 54.2131L107.989 54.8777L112.246 57.6131L112.673 56.9485L108.416 54.2131Z" fill="#F66E4E" stroke="black" stroke-width="0.25" stroke-miterlimit="10"/>
<path d="M108.416 54.2131L107.989 54.8777L112.246 57.6131L112.673 56.9485L108.416 54.2131Z" stroke="black" stroke-width="0.25" stroke-miterlimit="10"/>
<path d="M31.53 56.95L38.96 50.65" stroke="black" stroke-width="0.25" stroke-miterlimit="10"/>
<path d="M31.53 56.95L38.96 50.65" stroke="black" stroke-width="0.25" stroke-miterlimit="10"/>
<path d="M38.7351 50.3963L31.3044 56.6932L31.7182 57.1815L39.1488 50.8846L38.7351 50.3963Z" fill="#F66E4E" stroke="black" stroke-width="0.25" stroke-miterlimit="10"/>
<path d="M38.7351 50.3963L31.3044 56.6932L31.7182 57.1815L39.1488 50.8846L38.7351 50.3963Z" stroke="black" stroke-width="0.25" stroke-miterlimit="10"/>
<path d="M33.6599 57.16L40.1899 51.62" stroke="black" stroke-width="0.25" stroke-miterlimit="10"/>
<path d="M33.6599 57.16L40.1899 51.62" stroke="black" stroke-width="0.25" stroke-miterlimit="10"/>
<path d="M39.9982 51.4152L33.4678 56.9492L33.8298 57.3764L40.3602 51.8424L39.9982 51.4152Z" fill="#F66E4E" stroke="black" stroke-width="0.25" stroke-miterlimit="10"/>
<path d="M39.9982 51.4152L33.4678 56.9492L33.8298 57.3764L40.3602 51.8424L39.9982 51.4152Z" stroke="black" stroke-width="0.25" stroke-miterlimit="10"/>
<path d="M40.1799 57.15L47.6199 49.4" stroke="black" stroke-width="0.25" stroke-miterlimit="10"/>
<path d="M40.1799 57.15L47.6199 49.4" stroke="black" stroke-width="0.25" stroke-miterlimit="10"/>
<path d="M47.4246 49.1601L39.9802 56.9163L40.4348 57.3525L47.8791 49.5964L47.4246 49.1601Z" fill="#F66E4E" stroke="black" stroke-width="0.25" stroke-miterlimit="10"/>
<path d="M47.4246 49.1601L39.9802 56.9163L40.4348 57.3525L47.8791 49.5964L47.4246 49.1601Z" stroke="black" stroke-width="0.25" stroke-miterlimit="10"/>
<path d="M42.1799 57.17L48.8199 50.26" stroke="black" stroke-width="0.25" stroke-miterlimit="10"/>
<path d="M42.1799 57.17L48.8199 50.26" stroke="black" stroke-width="0.25" stroke-miterlimit="10"/>
<path d="M48.6036 50.0718L41.9685 56.9818L42.3941 57.3904L49.0291 50.4804L48.6036 50.0718Z" fill="#F66E4E" stroke="black" stroke-width="0.25" stroke-miterlimit="10"/>
<path d="M48.6036 50.0718L41.9685 56.9818L42.3941 57.3904L49.0291 50.4804L48.6036 50.0718Z" stroke="black" stroke-width="0.25" stroke-miterlimit="10"/>
<path d="M48.47 57.16L55.93 48.25" stroke="black" stroke-width="0.25" stroke-miterlimit="10"/>
<path d="M48.47 57.16L55.93 48.25" stroke="black" stroke-width="0.25" stroke-miterlimit="10"/>
<path d="M55.6965 48.0443L48.2446 56.9603L48.705 57.3451L56.1569 48.4291L55.6965 48.0443Z" fill="#F66E4E" stroke="black" stroke-width="0.25" stroke-miterlimit="10"/>
<path d="M55.6965 48.0443L48.2446 56.9603L48.705 57.3451L56.1569 48.4291L55.6965 48.0443Z" stroke="black" stroke-width="0.25" stroke-miterlimit="10"/>
<path d="M50.52 57.19L57.3 48.96" stroke="black" stroke-width="0.25" stroke-miterlimit="10"/>
<path d="M50.52 57.19L57.3 48.96" stroke="black" stroke-width="0.25" stroke-miterlimit="10"/>
<path d="M57.035 48.7981L50.2563 57.0244L50.7271 57.4123L57.5058 49.186L57.035 48.7981Z" fill="#F66E4E" stroke="black" stroke-width="0.25" stroke-miterlimit="10"/>
<path d="M57.035 48.7981L50.2563 57.0244L50.7271 57.4123L57.5058 49.186L57.035 48.7981Z" stroke="black" stroke-width="0.25" stroke-miterlimit="10"/>
<path d="M29.45 52.47L23.23 57.15" stroke="black" stroke-width="0.25" stroke-miterlimit="10"/>
<path d="M29.45 52.47L23.23 57.15" stroke="black" stroke-width="0.25" stroke-miterlimit="10"/>
<path d="M29.2704 52.2316L23.0535 56.9089L23.4082 57.3804L29.6252 52.7031L29.2704 52.2316Z" fill="#F66E4E" stroke="black" stroke-width="0.25" stroke-miterlimit="10"/>
<path d="M29.2704 52.2316L23.0535 56.9089L23.4082 57.3804L29.6252 52.7031L29.2704 52.2316Z" stroke="black" stroke-width="0.25" stroke-miterlimit="10"/>
<path d="M31.4199 52.71L25.21 57.38" stroke="black" stroke-width="0.25" stroke-miterlimit="10"/>
<path d="M31.4199 52.71L25.21 57.38" stroke="black" stroke-width="0.25" stroke-miterlimit="10"/>
<path d="M31.2622 52.5009L25.0452 57.1782L25.3999 57.6497L31.6169 52.9723L31.2622 52.5009Z" fill="#F66E4E" stroke="black" stroke-width="0.25" stroke-miterlimit="10"/>
<path d="M31.2622 52.5009L25.0452 57.1782L25.3999 57.6497L31.6169 52.9723L31.2622 52.5009Z" stroke="black" stroke-width="0.25" stroke-miterlimit="10"/>
<path d="M62.93 81.82H58.71C57.61 81.82 56.72 80.93 56.72 79.83V59.62C56.72 58.52 57.61 57.63 58.71 57.63H62.93C64.03 57.63 64.92 58.52 64.92 59.62V79.83C64.93 80.92 64.03 81.82 62.93 81.82Z" fill="#FCA3BE" stroke="black" stroke-width="0.25" stroke-miterlimit="10"/>
<path d="M62.93 81.82H58.71C57.61 81.82 56.72 80.93 56.72 79.83V59.62C56.72 58.52 57.61 57.63 58.71 57.63H62.93C64.03 57.63 64.92 58.52 64.92 59.62V79.83C64.93 80.92 64.03 81.82 62.93 81.82Z" stroke="black" stroke-width="0.25" stroke-miterlimit="10"/>
<path d="M56.5898 88.95H55.6098C55.3098 88.95 55.0698 89.1899 55.0698 89.4899C55.0698 89.7899 55.3098 90.03 55.6098 90.03H56.5898H57.5698C57.8698 90.03 58.1098 89.7899 58.1098 89.4899C58.1098 89.1899 57.8698 88.95 57.5698 88.95H56.5898Z" fill="#F66E4E" stroke="black" stroke-width="0.25" stroke-miterlimit="10"/>
<path d="M56.5898 88.95H55.6098C55.3098 88.95 55.0698 89.1899 55.0698 89.4899C55.0698 89.7899 55.3098 90.03 55.6098 90.03H56.5898H57.5698C57.8698 90.03 58.1098 89.7899 58.1098 89.4899C58.1098 89.1899 57.8698 88.95 57.5698 88.95H56.5898V88.95Z" stroke="black" stroke-width="0.25" stroke-miterlimit="10"/>
<path d="M65.0601 88.95H64.0801C63.7801 88.95 63.54 89.1899 63.54 89.4899C63.54 89.7899 63.7801 90.03 64.0801 90.03H65.0601H66.04C66.34 90.03 66.5801 89.7899 66.5801 89.4899C66.5801 89.1899 66.34 88.95 66.04 88.95H65.0601Z" fill="#F66E4E" stroke="black" stroke-width="0.25" stroke-miterlimit="10"/>
<path d="M65.0601 88.95H64.0801C63.7801 88.95 63.54 89.1899 63.54 89.4899C63.54 89.7899 63.7801 90.03 64.0801 90.03H65.0601H66.04C66.34 90.03 66.5801 89.7899 66.5801 89.4899C66.5801 89.1899 66.34 88.95 66.04 88.95H65.0601V88.95Z" stroke="black" stroke-width="0.25" stroke-miterlimit="10"/>
<path d="M57.14 88.9501C56.91 88.9501 56.72 88.7601 56.72 88.5301V82.2401C56.72 82.0101 56.91 81.8201 57.14 81.8201C57.37 81.8201 57.56 82.0101 57.56 82.2401V88.5301C57.56 88.7601 57.37 88.9501 57.14 88.9501Z" fill="#FCA3BE" stroke="black" stroke-width="0.25" stroke-miterlimit="10"/>
<path d="M57.14 88.9501C56.91 88.9501 56.72 88.7601 56.72 88.5301V82.2401C56.72 82.0101 56.91 81.8201 57.14 81.8201C57.37 81.8201 57.56 82.0101 57.56 82.2401V88.5301C57.56 88.7601 57.37 88.9501 57.14 88.9501Z" stroke="black" stroke-width="0.25" stroke-miterlimit="10"/>
<path d="M64.5098 88.9501C64.2798 88.9501 64.0898 88.7601 64.0898 88.5301V82.2401C64.0898 82.0101 64.2798 81.8201 64.5098 81.8201C64.7398 81.8201 64.9298 82.0101 64.9298 82.2401V88.5301C64.9298 88.7601 64.7398 88.9501 64.5098 88.9501Z" fill="#FCA3BE" stroke="black" stroke-width="0.25" stroke-miterlimit="10"/>
<path d="M64.5098 88.9501C64.2798 88.9501 64.0898 88.7601 64.0898 88.5301V82.2401C64.0898 82.0101 64.2798 81.8201 64.5098 81.8201C64.7398 81.8201 64.9298 82.0101 64.9298 82.2401V88.5301C64.9298 88.7601 64.7398 88.9501 64.5098 88.9501Z" stroke="black" stroke-width="0.25" stroke-miterlimit="10"/>
<path d="M60.78 81.8201H57.53C56.83 81.8201 56.33 82.5101 56.55 83.1801L58.58 89.2501C58.72 89.6701 59.11 89.9501 59.56 89.9501H60.77H61.98C62.42 89.9501 62.82 89.6701 62.96 89.2501L64.99 83.1801C65.21 82.5101 64.72 81.8201 64.01 81.8201H60.78Z" fill="#F66E4E" stroke="black" stroke-width="0.25" stroke-miterlimit="10"/>
<path d="M60.78 81.8201H57.53C56.83 81.8201 56.33 82.5101 56.55 83.1801L58.58 89.2501C58.72 89.6701 59.11 89.9501 59.56 89.9501H60.77H61.98C62.42 89.9501 62.82 89.6701 62.96 89.2501L64.99 83.1801C65.21 82.5101 64.72 81.8201 64.01 81.8201H60.78Z" stroke="black" stroke-width="0.25" stroke-miterlimit="10"/>
<path d="M60.9798 104.58C59.0898 104.58 57.5498 103.05 57.5498 101.15V93.44C57.5498 91.55 59.0798 90.01 60.9798 90.01C62.8698 90.01 64.4098 91.54 64.4098 93.44V101.15C64.4098 103.05 62.8798 104.58 60.9798 104.58Z" fill="#F66E4E" stroke="black" stroke-width="0.25" stroke-miterlimit="10"/>
<path d="M60.9798 104.58C59.0898 104.58 57.5498 103.05 57.5498 101.15V93.44C57.5498 91.55 59.0798 90.01 60.9798 90.01C62.8698 90.01 64.4098 91.54 64.4098 93.44V101.15C64.4098 103.05 62.8798 104.58 60.9798 104.58Z" stroke="black" stroke-width="0.25" stroke-miterlimit="10"/>
<path d="M60.98 104.58H60.05C58.91 104.58 58.18 105.79 58.7 106.8C58.96 107.3 59.48 107.62 60.05 107.62H60.98H61.91C62.48 107.62 63 107.3 63.26 106.8C63.78 105.79 63.05 104.58 61.91 104.58H60.98Z" fill="#FCA3BE" stroke="black" stroke-width="0.25" stroke-miterlimit="10"/>
<path d="M60.98 104.58H60.05C58.91 104.58 58.18 105.79 58.7 106.8C58.96 107.3 59.48 107.62 60.05 107.62H60.98H61.91C62.48 107.62 63 107.3 63.26 106.8C63.78 105.79 63.05 104.58 61.91 104.58H60.98Z" stroke="black" stroke-width="0.25" stroke-miterlimit="10"/>
<path d="M56.7199 67.41H45.9099V63.97C45.9099 61.89 47.5899 60.21 49.6699 60.21H56.7199V67.41Z" fill="#FCA3BE" stroke="black" stroke-width="0.25" stroke-miterlimit="10"/>
<path d="M56.7199 67.41H45.9099V63.97C45.9099 61.89 47.5899 60.21 49.6699 60.21H56.7199V67.41Z" stroke="black" stroke-width="0.25" stroke-miterlimit="10"/>
<path d="M45.9099 67.87C45.9099 68.09 46.0699 68.28 46.2899 68.32L54.71 69.71C54.73 69.71 54.76 69.72 54.78 69.72H56.2599C56.5099 69.72 56.7199 69.52 56.7199 69.26V67.87C56.7199 67.62 56.5199 67.41 56.2599 67.41H46.3599C46.1099 67.41 45.9099 67.62 45.9099 67.87Z" fill="#F66E4E" stroke="black" stroke-width="0.25" stroke-miterlimit="10"/>
<path d="M45.9099 67.87C45.9099 68.09 46.0699 68.28 46.2899 68.32L54.71 69.71C54.73 69.71 54.76 69.72 54.78 69.72H56.2599C56.5099 69.72 56.7199 69.52 56.7199 69.26V67.87C56.7199 67.62 56.5199 67.41 56.2599 67.41H46.3599C46.1099 67.41 45.9099 67.62 45.9099 67.87Z" stroke="black" stroke-width="0.25" stroke-miterlimit="10"/>
<path d="M58.16 108.49L57.08 109.46C56.31 110.15 55.11 110 54.53 109.14L54.5 109.1C54.03 108.38 54.17 107.42 54.82 106.87L55.93 105.94C56.76 105.24 58.02 105.5 58.52 106.46C58.88 107.14 58.73 107.98 58.16 108.49Z" fill="#F66E4E" stroke="black" stroke-width="0.25" stroke-miterlimit="10"/>
<path d="M58.16 108.49L57.08 109.46C56.31 110.15 55.11 110 54.53 109.14L54.5 109.1C54.03 108.38 54.17 107.42 54.82 106.87L55.93 105.94C56.76 105.24 58.02 105.5 58.52 106.46C58.88 107.14 58.73 107.98 58.16 108.49Z" stroke="black" stroke-width="0.25" stroke-miterlimit="10"/>
<path d="M55.3799 111.17L51.1599 117.86C51.0899 117.97 51.0499 118.1 51.0499 118.24V126.16C51.0499 126.55 50.7299 126.87 50.3399 126.87C49.9499 126.87 49.6299 126.55 49.6299 126.16V117.34C49.6299 117.24 49.6499 117.15 49.6899 117.06L53.1599 109.04C53.3799 108.52 54.0899 108.46 54.3999 108.93L55.3699 110.4C55.5199 110.63 55.5299 110.94 55.3799 111.17Z" fill="#FCA3BE" stroke="black" stroke-width="0.25" stroke-miterlimit="10"/>
<path d="M55.3799 111.17L51.1599 117.86C51.0899 117.97 51.0499 118.1 51.0499 118.24V126.16C51.0499 126.55 50.7299 126.87 50.3399 126.87C49.9499 126.87 49.6299 126.55 49.6299 126.16V117.34C49.6299 117.24 49.6499 117.15 49.6899 117.06L53.1599 109.04C53.3799 108.52 54.0899 108.46 54.3999 108.93L55.3699 110.4C55.5199 110.63 55.5299 110.94 55.3799 111.17Z" stroke="black" stroke-width="0.25" stroke-miterlimit="10"/>
<path d="M63.8499 108.49L64.9299 109.46C65.6999 110.15 66.8999 110 67.4799 109.14L67.5099 109.1C67.9799 108.38 67.8399 107.42 67.1899 106.87L66.0799 105.94C65.2499 105.24 63.9899 105.5 63.4899 106.46C63.1299 107.14 63.2799 107.98 63.8499 108.49Z" fill="#F66E4E" stroke="black" stroke-width="0.25" stroke-miterlimit="10"/>
<path d="M63.8499 108.49L64.9299 109.46C65.6999 110.15 66.8999 110 67.4799 109.14L67.5099 109.1C67.9799 108.38 67.8399 107.42 67.1899 106.87L66.0799 105.94C65.2499 105.24 63.9899 105.5 63.4899 106.46C63.1299 107.14 63.2799 107.98 63.8499 108.49Z" stroke="black" stroke-width="0.25" stroke-miterlimit="10"/>
<path d="M66.6301 111.17L70.8501 117.86C70.9201 117.97 70.9601 118.1 70.9601 118.24V126.16C70.9601 126.55 71.2801 126.87 71.6701 126.87C72.0601 126.87 72.3801 126.55 72.3801 126.16V117.34C72.3801 117.24 72.3601 117.15 72.3201 117.06L68.8501 109.04C68.6301 108.52 67.9201 108.46 67.6101 108.93L66.6401 110.4C66.4901 110.63 66.4801 110.94 66.6301 111.17Z" fill="#FCA3BE" stroke="black" stroke-width="0.25" stroke-miterlimit="10"/>
<path d="M66.6301 111.17L70.8501 117.86C70.9201 117.97 70.9601 118.1 70.9601 118.24V126.16C70.9601 126.55 71.2801 126.87 71.6701 126.87C72.0601 126.87 72.3801 126.55 72.3801 126.16V117.34C72.3801 117.24 72.3601 117.15 72.3201 117.06L68.8501 109.04C68.6301 108.52 67.9201 108.46 67.6101 108.93L66.6401 110.4C66.4901 110.63 66.4801 110.94 66.6301 111.17Z" stroke="black" stroke-width="0.25" stroke-miterlimit="10"/>
<path d="M59.1299 109.2C59.1299 110.07 59.8399 110.78 60.7099 110.78H61.2899C62.1599 110.78 62.8699 110.07 62.8699 109.2C62.8699 108.33 62.1599 107.62 61.2899 107.62H60.7099C59.8399 107.62 59.1299 108.33 59.1299 109.2Z" fill="#F66E4E" stroke="black" stroke-width="0.25" stroke-miterlimit="10"/>
<path d="M59.1299 109.2C59.1299 110.07 59.8399 110.78 60.7099 110.78H61.2899C62.1599 110.78 62.8699 110.07 62.8699 109.2C62.8699 108.33 62.1599 107.62 61.2899 107.62H60.7099C59.8399 107.62 59.1299 108.33 59.1299 109.2Z" stroke="black" stroke-width="0.25" stroke-miterlimit="10"/>
<path d="M61 110.78H59.98C59.54 110.78 59.2 111.18 59.28 111.62L59.68 113.84C59.69 113.87 59.69 113.91 59.69 113.94L60.16 125.45V126.16C60.16 126.55 60.48 126.87 60.87 126.87C61.26 126.87 61.58 126.55 61.58 126.16V125.47C61.58 125.46 61.58 125.44 61.58 125.43L62.3 113.93C62.3 113.9 62.31 113.87 62.31 113.85L62.72 111.62C62.8 111.18 62.46 110.78 62.02 110.78H61Z" fill="#FCA3BE" stroke="black" stroke-width="0.25" stroke-miterlimit="10"/>
<path d="M61 110.78H59.98C59.54 110.78 59.2 111.18 59.28 111.62L59.68 113.84C59.69 113.87 59.69 113.91 59.69 113.94L60.16 125.45V126.16C60.16 126.55 60.48 126.87 60.87 126.87C61.26 126.87 61.58 126.55 61.58 126.16V125.47C61.58 125.46 61.58 125.44 61.58 125.43L62.3 113.93C62.3 113.9 62.31 113.87 62.31 113.85L62.72 111.62C62.8 111.18 62.46 110.78 62.02 110.78H61Z" stroke="black" stroke-width="0.25" stroke-miterlimit="10"/>
<path d="M57.55 47.25H56.72V57.62H57.55V47.25Z" fill="#FCA3BE" stroke="black" stroke-width="0.25" stroke-miterlimit="10"/>
<path d="M57.55 47.25H56.72V57.62H57.55V47.25Z" stroke="black" stroke-width="0.25" stroke-miterlimit="10"/>
<path d="M49.07 49.03H48.24V57.63H49.07V49.03Z" fill="#FCA3BE" stroke="black" stroke-width="0.25" stroke-miterlimit="10"/>
<path d="M49.07 49.03H48.24V57.63H49.07V49.03Z" stroke="black" stroke-width="0.25" stroke-miterlimit="10"/>
<path d="M75.28 49.23H74.45V57.63H75.28V49.23Z" fill="#FCA3BE" stroke="black" stroke-width="0.25" stroke-miterlimit="10"/>
<path d="M75.28 49.23H74.45V57.63H75.28V49.23Z" stroke="black" stroke-width="0.25" stroke-miterlimit="10"/>
<path d="M85.2599 50.8H84.4299V57.62H85.2599V50.8Z" fill="#FCA3BE" stroke="black" stroke-width="0.25" stroke-miterlimit="10"/>
<path d="M85.2599 50.8H84.4299V57.62H85.2599V50.8Z" stroke="black" stroke-width="0.25" stroke-miterlimit="10"/>
<path d="M95.2299 52.1801H94.3999V57.6201H95.2299V52.1801Z" fill="#FCA3BE" stroke="black" stroke-width="0.25" stroke-miterlimit="10"/>
<path d="M95.2299 52.1801H94.3999V57.6201H95.2299V52.1801Z" stroke="black" stroke-width="0.25" stroke-miterlimit="10"/>
<path d="M105.21 53.76H104.38V57.63H105.21V53.76Z" fill="#FCA3BE" stroke="black" stroke-width="0.25" stroke-miterlimit="10"/>
<path d="M105.21 53.76H104.38V57.63H105.21V53.76Z" stroke="black" stroke-width="0.25" stroke-miterlimit="10"/>
<path d="M115.12 55.14H114.29V57.62H115.12V55.14Z" fill="#FCA3BE" stroke="black" stroke-width="0.25" stroke-miterlimit="10"/>
<path d="M115.12 55.14H114.29V57.62H115.12V55.14Z" stroke="black" stroke-width="0.25" stroke-miterlimit="10"/>
<path d="M40.4698 50.41H39.6399V57.63H40.4698V50.41Z" fill="#FCA3BE" stroke="black" stroke-width="0.25" stroke-miterlimit="10"/>
<path d="M40.4698 50.41H39.6399V57.63H40.4698V50.41Z" stroke="black" stroke-width="0.25" stroke-miterlimit="10"/>
<path d="M31.8 51.99H30.97V57.63H31.8V51.99Z" fill="#FCA3BE" stroke="black" stroke-width="0.25" stroke-miterlimit="10"/>
<path d="M31.8 51.99H30.97V57.63H31.8V51.99Z" stroke="black" stroke-width="0.25" stroke-miterlimit="10"/>
<path d="M56.7199 56.97H23.6599V57.8H56.7199V56.97Z" fill="#FCA3BE" stroke="black" stroke-width="0.25" stroke-miterlimit="10"/>
<path d="M56.7199 56.97H23.6599V57.8H56.7199V56.97Z" stroke="black" stroke-width="0.25" stroke-miterlimit="10"/>
<path d="M127.28 56.97H65.1499V57.8H127.28V56.97Z" fill="#FCA3BE" stroke="black" stroke-width="0.25" stroke-miterlimit="10"/>
<path d="M127.28 56.97H65.1499V57.8H127.28V56.97Z" stroke="black" stroke-width="0.25" stroke-miterlimit="10"/>
<path d="M64.9198 47.25H64.0898V57.62H64.9198V47.25Z" fill="#FCA3BE" stroke="black" stroke-width="0.25" stroke-miterlimit="10"/>
<path d="M64.9198 47.25H64.0898V57.62H64.9198V47.25Z" stroke="black" stroke-width="0.25" stroke-miterlimit="10"/>
<path d="M64.93 50.92H56.72V51.75H64.93V50.92Z" fill="#F66E4E" stroke="black" stroke-width="0.25" stroke-miterlimit="10"/>
<path d="M64.93 50.92H56.72V51.75H64.93V50.92Z" stroke="black" stroke-width="0.25" stroke-miterlimit="10"/>
<path d="M64.93 47.25H56.72V48.08H64.93V47.25Z" fill="#FCA3BE" stroke="black" stroke-width="0.25" stroke-miterlimit="10"/>
<path d="M64.93 47.25H56.72V48.08H64.93V47.25Z" stroke="black" stroke-width="0.25" stroke-miterlimit="10"/>
<path d="M64.93 54.27H56.72V55.1H64.93V54.27Z" fill="#F66E4E" stroke="black" stroke-width="0.25" stroke-miterlimit="10"/>
<path d="M64.93 54.27H56.72V55.1H64.93V54.27Z" stroke="black" stroke-width="0.25" stroke-miterlimit="10"/>
<path d="M23.6599 52.8101V57.8001H18.6699V55.1001C18.6699 53.8301 19.7 52.8101 20.96 52.8101H23.6599Z" fill="#F66E4E" stroke="black" stroke-width="0.25" stroke-miterlimit="10"/>
<path d="M23.6599 52.8101V57.8001H18.6699V55.1001C18.6699 53.8301 19.7 52.8101 20.96 52.8101H23.6599V52.8101Z" stroke="black" stroke-width="0.25" stroke-miterlimit="10"/>
<path d="M23.6599 52.8101V53.4001L19.2599 57.8001H18.6699V57.2101L23.08 52.8101H23.6599Z" fill="#FCA3BE" stroke="black" stroke-width="0.25" stroke-miterlimit="10"/>
<path d="M23.6599 52.8101V53.4001L19.2599 57.8001H18.6699V57.2101L23.08 52.8101H23.6599Z" stroke="black" stroke-width="0.25" stroke-miterlimit="10"/>
<path d="M56.6392 47.1713L23.5818 52.7222L23.7457 53.6985L56.8032 48.1476L56.6392 47.1713Z" fill="#FCA3BE" stroke="black" stroke-width="0.25" stroke-miterlimit="10"/>
<path d="M56.6392 47.1713L23.5818 52.7222L23.7457 53.6985L56.8032 48.1476L56.6392 47.1713Z" stroke="black" stroke-width="0.25" stroke-miterlimit="10"/>
<path d="M65.0048 47.0557L64.8232 48.2217L127.182 57.9343L127.364 56.7684L65.0048 47.0557Z" fill="#FCA3BE" stroke="black" stroke-width="0.25" stroke-miterlimit="10"/>
<path d="M65.0048 47.0557L64.8232 48.2217L127.182 57.9343L127.364 56.7684L65.0048 47.0557Z" stroke="black" stroke-width="0.25" stroke-miterlimit="10"/>
<path d="M57.3299 47.63C57.3299 47.29 57.0598 47.02 56.7198 47.02C56.3798 47.02 56.1099 47.29 56.1099 47.63C56.1099 47.97 56.3798 48.24 56.7198 48.24C57.0598 48.24 57.3299 47.97 57.3299 47.63Z" fill="#F66E4E" stroke="black" stroke-width="0.25" stroke-miterlimit="10"/>
<path d="M57.3299 47.63C57.3299 47.29 57.0598 47.02 56.7198 47.02C56.3798 47.02 56.1099 47.29 56.1099 47.63C56.1099 47.97 56.3798 48.24 56.7198 48.24C57.0598 48.24 57.3299 47.97 57.3299 47.63Z" stroke="black" stroke-width="0.25" stroke-miterlimit="10"/>
<path d="M24.19 53.33C24.19 52.99 23.92 52.72 23.58 52.72C23.24 52.72 22.97 52.99 22.97 53.33C22.97 53.67 23.24 53.94 23.58 53.94C23.92 53.94 24.19 53.66 24.19 53.33Z" fill="#FCA3BE" stroke="black" stroke-width="0.25" stroke-miterlimit="10"/>
<path d="M24.19 53.33C24.19 52.99 23.92 52.72 23.58 52.72C23.24 52.72 22.97 52.99 22.97 53.33C22.97 53.67 23.24 53.94 23.58 53.94C23.92 53.94 24.19 53.66 24.19 53.33Z" stroke="black" stroke-width="0.25" stroke-miterlimit="10"/>
<path d="M65.45 47.63C65.45 47.29 65.18 47.02 64.84 47.02C64.5 47.02 64.23 47.29 64.23 47.63C64.23 47.97 64.5 48.24 64.84 48.24C65.17 48.24 65.45 47.97 65.45 47.63Z" fill="#F66E4E" stroke="black" stroke-width="0.25" stroke-miterlimit="10"/>
<path d="M65.45 47.63C65.45 47.29 65.18 47.02 64.84 47.02C64.5 47.02 64.23 47.29 64.23 47.63C64.23 47.97 64.5 48.24 64.84 48.24C65.17 48.24 65.45 47.97 65.45 47.63Z" stroke="black" stroke-width="0.25" stroke-miterlimit="10"/>
<path d="M66.2199 64.7201L66.4999 64.78C67.0499 64.91 67.3999 65.44 67.2999 66L67.02 67.5201C66.93 68.0201 66.4899 68.39 65.9799 68.39C65.3999 68.39 64.9299 67.92 64.9299 67.34V65.75C64.9299 65.06 65.5599 64.5601 66.2199 64.7201Z" fill="#F66E4E" stroke="black" stroke-width="0.25" stroke-miterlimit="10"/>
<path d="M66.2199 64.7201L66.4999 64.78C67.0499 64.91 67.3999 65.44 67.2999 66L67.02 67.5201C66.93 68.0201 66.4899 68.39 65.9799 68.39C65.3999 68.39 64.9299 67.92 64.9299 67.34V65.75C64.9299 65.06 65.5599 64.5601 66.2199 64.7201Z" stroke="black" stroke-width="0.25" stroke-miterlimit="10"/>
<path d="M70.4001 58.98C70.4001 58.33 69.87 57.8 69.22 57.8C68.57 57.8 68.04 58.33 68.04 58.98C68.04 59.63 68.57 60.16 69.22 60.16C69.87 60.16 70.4001 59.63 70.4001 58.98Z" fill="#FCA3BE" stroke="black" stroke-width="0.25" stroke-miterlimit="10"/>
<path d="M70.4001 58.98C70.4001 58.33 69.87 57.8 69.22 57.8C68.57 57.8 68.04 58.33 68.04 58.98C68.04 59.63 68.57 60.16 69.22 60.16C69.87 60.16 70.4001 59.63 70.4001 58.98Z" stroke="black" stroke-width="0.25" stroke-miterlimit="10"/>
<path d="M72.9298 58.98C72.9298 58.33 72.3998 57.8 71.7498 57.8C71.0998 57.8 70.5698 58.33 70.5698 58.98C70.5698 59.63 71.0998 60.16 71.7498 60.16C72.3998 60.15 72.9298 59.63 72.9298 58.98Z" fill="#F66E4E" stroke="black" stroke-width="0.25" stroke-miterlimit="10"/>
<path d="M72.9298 58.98C72.9298 58.33 72.3998 57.8 71.7498 57.8C71.0998 57.8 70.5698 58.33 70.5698 58.98C70.5698 59.63 71.0998 60.16 71.7498 60.16C72.3998 60.15 72.9298 59.63 72.9298 58.98Z" stroke="black" stroke-width="0.25" stroke-miterlimit="10"/>
<path d="M72.9298 61.33C72.9298 60.68 72.3998 60.15 71.7498 60.15C71.0998 60.15 70.5698 60.68 70.5698 61.33C70.5698 61.98 71.0998 62.51 71.7498 62.51C72.3998 62.51 72.9298 61.98 72.9298 61.33Z" fill="#FCA3BE" stroke="black" stroke-width="0.25" stroke-miterlimit="10"/>
<path d="M72.9298 61.33C72.9298 60.68 72.3998 60.15 71.7498 60.15C71.0998 60.15 70.5698 60.68 70.5698 61.33C70.5698 61.98 71.0998 62.51 71.7498 62.51C72.3998 62.51 72.9298 61.98 72.9298 61.33Z" stroke="black" stroke-width="0.25" stroke-miterlimit="10"/>
<path d="M122.57 57.8H122.18V60.14H122.57V57.8Z" fill="#FCA3BE" stroke="black" stroke-width="0.25" stroke-miterlimit="10"/>
<path d="M122.57 57.8H122.18V60.14H122.57V57.8Z" stroke="black" stroke-width="0.25" stroke-miterlimit="10"/>
<path d="M125.97 62.2H123.49C122.76 62.2 122.18 61.61 122.18 60.89V60.14H127.28V60.89C127.29 61.62 126.7 62.2 125.97 62.2Z" fill="#F66E4E" stroke="black" stroke-width="0.25" stroke-miterlimit="10"/>
<path d="M125.97 62.2H123.49C122.76 62.2 122.18 61.61 122.18 60.89V60.14H127.28V60.89C127.29 61.62 126.7 62.2 125.97 62.2Z" stroke="black" stroke-width="0.25" stroke-miterlimit="10"/>
<path d="M60.8199 88.95H58.6399C58.3399 88.95 58.0999 89.1899 58.0999 89.4899C58.0999 89.7899 58.3399 90.03 58.6399 90.03H60.8199H62.9999C63.2999 90.03 63.5399 89.7899 63.5399 89.4899C63.5399 89.1899 63.2999 88.95 62.9999 88.95H60.8199Z" fill="#FCA3BE" stroke="black" stroke-width="0.25" stroke-miterlimit="10"/>
<path d="M60.8199 88.95H58.6399C58.3399 88.95 58.0999 89.1899 58.0999 89.4899C58.0999 89.7899 58.3399 90.03 58.6399 90.03H60.8199H62.9999C63.2999 90.03 63.5399 89.7899 63.5399 89.4899C63.5399 89.1899 63.2999 88.95 62.9999 88.95H60.8199V88.95Z" stroke="black" stroke-width="0.25" stroke-miterlimit="10"/>
</svg>
