<svg width="140" height="171" viewBox="0 0 140 171" fill="none" xmlns="http://www.w3.org/2000/svg">
<path d="M136.75 70.9601C136.64 86.5801 131.18 100.91 122.06 112.18L75.2499 164.77C72.5799 167.77 67.88 167.77 65.21 164.77L18.4 112.18C9.18996 100.8 3.70996 86.3001 3.70996 70.5001C3.70996 33.7201 33.5799 3.90014 70.3799 3.98014C106.87 4.06014 137 34.4701 136.75 70.9601Z" fill="white"/>
<path d="M70.23 170.17C67.42 170.17 64.73 168.96 62.85 166.86L16.04 114.27C6.02004 101.88 0.550049 86.3801 0.550049 70.4901C0.550049 51.8601 7.82007 34.3501 21.0101 21.1701C34.1701 8.04007 51.64 0.810059 70.22 0.810059C70.27 0.810059 70.3201 0.810059 70.3701 0.810059C88.8601 0.850059 106.33 8.22007 119.56 21.5701C132.8 34.9301 140.02 52.4701 139.89 70.9601C139.78 86.8901 134.46 101.82 124.5 114.14L77.5901 166.84C75.7301 168.96 73.05 170.17 70.23 170.17ZM70.23 7.13007C53.33 7.13007 37.44 13.7001 25.47 25.6501C13.47 37.6301 6.86005 53.5601 6.86005 70.5001C6.86005 84.9501 11.83 99.0401 20.85 110.2L67.5601 162.67C68.2501 163.44 69.19 163.87 70.23 163.87C71.26 163.87 72.2101 163.45 72.8901 162.68L119.7 110.09C128.66 99.0101 133.5 85.4401 133.59 70.9501C133.7 54.1401 127.13 38.1901 115.09 26.0401C103.05 13.8901 87.1701 7.18008 70.3701 7.14008C70.3301 7.13008 70.28 7.13007 70.23 7.13007Z" fill="black"/>
<path d="M112.18 109.61C115.11 109.61 116.77 106.27 115.01 103.93L108.63 95.46L102.25 103.93C100.49 106.27 102.16 109.61 105.08 109.61C107.04 109.61 108.63 108.02 108.63 106.06V102.53V106.06C108.64 108.02 110.23 109.61 112.18 109.61Z" fill="#FCA3BE" stroke="black" stroke-width="0.25" stroke-miterlimit="10"/>
<path d="M112.18 109.61C115.11 109.61 116.77 106.27 115.01 103.93L108.63 95.46L102.25 103.93C100.49 106.27 102.16 109.61 105.08 109.61C107.04 109.61 108.63 108.02 108.63 106.06V102.53V106.06C108.64 108.02 110.23 109.61 112.18 109.61Z" stroke="black" stroke-width="0.25" stroke-miterlimit="10"/>
<path d="M117.4 52.66H23.06C22.05 52.66 21.23 51.84 21.23 50.83C21.23 49.82 22.05 49 23.06 49H117.4C118.41 49 119.23 49.82 119.23 50.83C119.23 51.84 118.41 52.66 117.4 52.66Z" fill="#EFE8DD" stroke="black" stroke-width="0.25" stroke-miterlimit="10"/>
<path d="M117.4 52.66H23.06C22.05 52.66 21.23 51.84 21.23 50.83C21.23 49.82 22.05 49 23.06 49H117.4C118.41 49 119.23 49.82 119.23 50.83C119.23 51.84 118.41 52.66 117.4 52.66Z" stroke="black" stroke-width="0.25" stroke-miterlimit="10"/>
<path d="M117.4 58.9701H23.06C22.05 58.9701 21.23 58.1501 21.23 57.1401C21.23 56.1301 22.05 55.3101 23.06 55.3101H117.4C118.41 55.3101 119.23 56.1301 119.23 57.1401C119.23 58.1501 118.41 58.9701 117.4 58.9701Z" fill="#EFE8DD" stroke="black" stroke-width="0.25" stroke-miterlimit="10"/>
<path d="M117.4 58.9701H23.06C22.05 58.9701 21.23 58.1501 21.23 57.1401C21.23 56.1301 22.05 55.3101 23.06 55.3101H117.4C118.41 55.3101 119.23 56.1301 119.23 57.1401C119.23 58.1501 118.41 58.9701 117.4 58.9701Z" stroke="black" stroke-width="0.25" stroke-miterlimit="10"/>
<path d="M117.4 76.18H23.06C22.05 76.18 21.23 75.36 21.23 74.35C21.23 73.34 22.05 72.52 23.06 72.52H117.4C118.41 72.52 119.23 73.34 119.23 74.35C119.23 75.35 118.41 76.18 117.4 76.18Z" fill="#EFE8DD" stroke="black" stroke-width="0.25" stroke-miterlimit="10"/>
<path d="M117.4 76.18H23.06C22.05 76.18 21.23 75.36 21.23 74.35C21.23 73.34 22.05 72.52 23.06 72.52H117.4C118.41 72.52 119.23 73.34 119.23 74.35C119.23 75.35 118.41 76.18 117.4 76.18Z" stroke="black" stroke-width="0.25" stroke-miterlimit="10"/>
<path d="M108.64 64.27C107.4 64.27 106.4 63.27 106.4 62.03V47.36C106.4 46.12 107.4 45.12 108.64 45.12C109.88 45.12 110.88 46.12 110.88 47.36V62.03C110.88 63.27 109.88 64.27 108.64 64.27Z" fill="#EFE8DD" stroke="black" stroke-width="0.25" stroke-miterlimit="10"/>
<path d="M108.64 64.27C107.4 64.27 106.4 63.27 106.4 62.03V47.36C106.4 46.12 107.4 45.12 108.64 45.12C109.88 45.12 110.88 46.12 110.88 47.36V62.03C110.88 63.27 109.88 64.27 108.64 64.27Z" stroke="black" stroke-width="0.25" stroke-miterlimit="10"/>
<path d="M108.64 109.61C107.4 109.61 106.4 108.61 106.4 107.37V67.63C106.4 66.39 107.4 65.39 108.64 65.39C109.88 65.39 110.88 66.39 110.88 67.63V107.37C110.88 108.61 109.88 109.61 108.64 109.61Z" fill="#EFE8DD" stroke="black" stroke-width="0.25" stroke-miterlimit="10"/>
<path d="M108.64 109.61C107.4 109.61 106.4 108.61 106.4 107.37V67.63C106.4 66.39 107.4 65.39 108.64 65.39C109.88 65.39 110.88 66.39 110.88 67.63V107.37C110.88 108.61 109.88 109.61 108.64 109.61Z" stroke="black" stroke-width="0.25" stroke-miterlimit="10"/>
<path d="M108.64 63.28C107.79 63.28 107.11 63.97 107.11 64.81C107.11 65.66 107.8 66.34 108.64 66.34C109.49 66.34 110.17 65.65 110.17 64.81C110.17 63.97 109.48 63.28 108.64 63.28Z" fill="#FCA3BE" stroke="black" stroke-width="0.25" stroke-miterlimit="10"/>
<path d="M108.64 63.28C107.79 63.28 107.11 63.97 107.11 64.81C107.11 65.66 107.8 66.34 108.64 66.34C109.49 66.34 110.17 65.65 110.17 64.81C110.17 63.97 109.48 63.28 108.64 63.28Z" stroke="black" stroke-width="0.25" stroke-miterlimit="10"/>
<path d="M33.8401 64.27C32.6001 64.27 31.6001 63.27 31.6001 62.03V47.36C31.6001 46.12 32.6001 45.12 33.8401 45.12C35.0801 45.12 36.0801 46.12 36.0801 47.36V62.03C36.0801 63.27 35.0801 64.27 33.8401 64.27Z" fill="#EFE8DD" stroke="black" stroke-width="0.25" stroke-miterlimit="10"/>
<path d="M33.8401 64.27C32.6001 64.27 31.6001 63.27 31.6001 62.03V47.36C31.6001 46.12 32.6001 45.12 33.8401 45.12C35.0801 45.12 36.0801 46.12 36.0801 47.36V62.03C36.0801 63.27 35.0801 64.27 33.8401 64.27Z" stroke="black" stroke-width="0.25" stroke-miterlimit="10"/>
<path d="M37.39 109.61C40.32 109.61 41.98 106.27 40.22 103.93L33.84 95.46L27.46 103.93C25.7 106.27 27.37 109.61 30.29 109.61C32.25 109.61 33.84 108.02 33.84 106.06V102.53V106.06C33.84 108.02 35.43 109.61 37.39 109.61Z" fill="#FCA3BE" stroke="black" stroke-width="0.25" stroke-miterlimit="10"/>
<path d="M37.39 109.61C40.32 109.61 41.98 106.27 40.22 103.93L33.84 95.46L27.46 103.93C25.7 106.27 27.37 109.61 30.29 109.61C32.25 109.61 33.84 108.02 33.84 106.06V102.53V106.06C33.84 108.02 35.43 109.61 37.39 109.61Z" stroke="black" stroke-width="0.25" stroke-miterlimit="10"/>
<path d="M33.8401 109.61C32.6001 109.61 31.6001 108.61 31.6001 107.37V67.63C31.6001 66.39 32.6001 65.39 33.8401 65.39C35.0801 65.39 36.0801 66.39 36.0801 67.63V107.37C36.0801 108.61 35.0801 109.61 33.8401 109.61Z" fill="#EFE8DD" stroke="black" stroke-width="0.25" stroke-miterlimit="10"/>
<path d="M33.8401 109.61C32.6001 109.61 31.6001 108.61 31.6001 107.37V67.63C31.6001 66.39 32.6001 65.39 33.8401 65.39C35.0801 65.39 36.0801 66.39 36.0801 67.63V107.37C36.0801 108.61 35.0801 109.61 33.8401 109.61Z" stroke="black" stroke-width="0.25" stroke-miterlimit="10"/>
<path d="M33.8401 63.28C32.9901 63.28 32.3101 63.97 32.3101 64.81C32.3101 65.66 33.0001 66.34 33.8401 66.34C34.6801 66.34 35.3701 65.65 35.3701 64.81C35.3701 63.97 34.6901 63.28 33.8401 63.28Z" fill="#FCA3BE" stroke="black" stroke-width="0.25" stroke-miterlimit="10"/>
<path d="M33.8401 63.28C32.9901 63.28 32.3101 63.97 32.3101 64.81C32.3101 65.66 33.0001 66.34 33.8401 66.34C34.6801 66.34 35.3701 65.65 35.3701 64.81C35.3701 63.97 34.6901 63.28 33.8401 63.28Z" stroke="black" stroke-width="0.25" stroke-miterlimit="10"/>
<path d="M79.7701 48.23C79.7701 42.52 75.1401 37.89 69.4301 37.89C63.7201 37.89 59.0901 42.52 59.0901 48.23C59.0901 53.94 63.7201 58.57 69.4301 58.57C75.1401 58.57 79.7701 53.94 79.7701 48.23Z" fill="#53A873" stroke="black" stroke-width="0.25" stroke-miterlimit="10"/>
<path d="M79.3639 50.9844C80.888 45.481 77.6623 39.7841 72.159 38.2599C66.6556 36.7358 60.9587 39.9616 59.4346 45.4649C57.9104 50.9682 61.1361 56.6651 66.6395 58.1893C72.1428 59.7135 77.8397 56.4877 79.3639 50.9844Z" stroke="black" stroke-width="0.25" stroke-miterlimit="10"/>
<path d="M61.05 58.88C61.05 56.24 58.91 54.09 56.26 54.09C53.62 54.09 51.47 56.23 51.47 58.88C51.47 61.52 53.61 63.67 56.26 63.67C58.9 63.67 61.05 61.53 61.05 58.88Z" fill="#53A873" stroke="black" stroke-width="0.25" stroke-miterlimit="10"/>
<path d="M57.0442 63.5995C59.6555 63.1757 61.4288 60.7152 61.005 58.1039C60.5812 55.4926 58.1208 53.7192 55.5095 54.143C52.8982 54.5668 51.1248 57.0273 51.5486 59.6386C51.9724 62.2499 54.4329 64.0233 57.0442 63.5995Z" stroke="black" stroke-width="0.25" stroke-miterlimit="10"/>
<path d="M62.4299 47.65C62.4299 46.52 63.3499 45.59 64.4799 45.59C65.6099 45.59 66.53 46.51 66.53 47.65C66.53 48.78 65.6099 49.7 64.4799 49.7C63.3499 49.7 62.4299 48.78 62.4299 47.65Z" fill="white" stroke="black" stroke-width="0.25" stroke-miterlimit="10"/>
<path d="M62.4299 47.65C62.4299 46.52 63.3499 45.59 64.4799 45.59C65.6099 45.59 66.53 46.51 66.53 47.65C66.53 48.78 65.6099 49.7 64.4799 49.7C63.3499 49.7 62.4299 48.78 62.4299 47.65Z" stroke="black" stroke-width="0.25" stroke-miterlimit="10"/>
<path d="M87.55 58.88C87.55 56.24 85.41 54.09 82.76 54.09C80.11 54.09 77.97 56.23 77.97 58.88C77.97 61.52 80.11 63.67 82.76 63.67C85.41 63.67 87.55 61.53 87.55 58.88Z" fill="#53A873" stroke="black" stroke-width="0.25" stroke-miterlimit="10"/>
<path d="M83.5545 63.5984C86.1658 63.1746 87.9391 60.7141 87.5153 58.1028C87.0915 55.4915 84.6311 53.7181 82.0198 54.1419C79.4084 54.5657 77.6351 57.0262 78.0589 59.6375C78.4827 62.2488 80.9432 64.0222 83.5545 63.5984Z" stroke="black" stroke-width="0.25" stroke-miterlimit="10"/>
<path d="M88.0601 72.72H50.8201C50.8201 62.44 59.1601 54.1 69.4401 54.1C79.7201 54.1 88.0601 62.43 88.0601 72.72Z" fill="#53A873" stroke="black" stroke-width="0.25" stroke-miterlimit="10"/>
<path d="M88.0601 72.72H50.8201C50.8201 62.44 59.1601 54.1 69.4401 54.1C79.7201 54.1 88.0601 62.43 88.0601 72.72Z" stroke="black" stroke-width="0.25" stroke-miterlimit="10"/>
<path d="M67.0601 72.72H52.05C52.05 68.57 55.4101 65.21 59.5601 65.21C63.7001 65.21 67.0601 68.57 67.0601 72.72Z" fill="#53A873" stroke="black" stroke-width="0.25" stroke-miterlimit="10"/>
<path d="M67.0601 72.72H52.05C52.05 68.57 55.4101 65.21 59.5601 65.21C63.7001 65.21 67.0601 68.57 67.0601 72.72Z" stroke="black" stroke-width="0.25" stroke-miterlimit="10"/>
<path d="M86.8201 72.72H71.8101C71.8101 68.57 75.1701 65.21 79.3201 65.21C83.4601 65.21 86.8201 68.57 86.8201 72.72Z" fill="#53A873" stroke="black" stroke-width="0.25" stroke-miterlimit="10"/>
<path d="M86.8201 72.72H71.8101C71.8101 68.57 75.1701 65.21 79.3201 65.21C83.4601 65.21 86.8201 68.57 86.8201 72.72Z" stroke="black" stroke-width="0.25" stroke-miterlimit="10"/>
<path d="M62.4299 47.65C62.4299 46.52 63.3499 45.59 64.4799 45.59C65.6099 45.59 66.53 46.51 66.53 47.65H62.4299Z" fill="black" stroke="black" stroke-width="0.25" stroke-miterlimit="10"/>
<path d="M71.8101 47.65C71.8101 46.52 72.73 45.59 73.86 45.59C74.99 45.59 75.91 46.51 75.91 47.65C75.91 48.78 74.99 49.7 73.86 49.7C72.73 49.7 71.8101 48.78 71.8101 47.65Z" fill="white" stroke="black" stroke-width="0.25" stroke-miterlimit="10"/>
<path d="M71.8101 47.65C71.8101 46.52 72.73 45.59 73.86 45.59C74.99 45.59 75.91 46.51 75.91 47.65C75.91 48.78 74.99 49.7 73.86 49.7C72.73 49.7 71.8101 48.78 71.8101 47.65Z" stroke="black" stroke-width="0.25" stroke-miterlimit="10"/>
<path d="M71.8101 47.65C71.8101 46.52 72.73 45.59 73.86 45.59C74.99 45.59 75.91 46.51 75.91 47.65H71.8101Z" fill="black" stroke="black" stroke-width="0.25" stroke-miterlimit="10"/>
<path d="M69.3301 49.87V57.61L74.86 54.96L69.3301 49.87Z" fill="black" stroke="black" stroke-width="0.25" stroke-miterlimit="10"/>
<path d="M69.3301 49.87V57.61L74.86 54.96L69.3301 49.87Z" stroke="black" stroke-width="0.25" stroke-miterlimit="10" stroke-linecap="round" stroke-linejoin="round"/>
<path d="M69.3301 49.87V57.61L63.79 54.96L69.3301 49.87Z" fill="#F66E4E" stroke="black" stroke-width="0.25" stroke-miterlimit="10"/>
<path d="M69.3301 49.87V57.61L63.79 54.96L69.3301 49.87Z" stroke="black" stroke-width="0.25" stroke-miterlimit="10"/>
<path d="M61.3901 67.29C61.3901 67.34 61.3801 67.39 61.3701 67.44L60.1201 72.72H58.8101L59.0101 71.88L60.1301 67.15C60.2101 66.81 60.5601 66.59 60.9001 66.68C61.1901 66.74 61.3901 67 61.3901 67.29Z" fill="#F66E4E" stroke="black" stroke-width="0.25" stroke-miterlimit="10"/>
<path d="M61.3901 67.29C61.3901 67.34 61.3801 67.39 61.3701 67.44L60.1201 72.72H58.8101L59.0101 71.88L60.1301 67.15C60.2101 66.81 60.5601 66.59 60.9001 66.68C61.1901 66.74 61.3901 67 61.3901 67.29Z" stroke="black" stroke-width="0.25" stroke-miterlimit="10"/>
<path d="M59.2801 72.7201H57.9401L56.3 67.5301C56.19 67.1901 56.38 66.8401 56.72 66.7301C56.78 66.7101 56.85 66.7001 56.91 66.7001C57.18 66.7001 57.4301 66.8701 57.5201 67.1501L59.0201 71.8801L59.2801 72.7201Z" fill="#F66E4E" stroke="black" stroke-width="0.25" stroke-miterlimit="10"/>
<path d="M59.2801 72.7201H57.9401L56.3 67.5301C56.19 67.1901 56.38 66.8401 56.72 66.7301C56.78 66.7101 56.85 66.7001 56.91 66.7001C57.18 66.7001 57.4301 66.8701 57.5201 67.1501L59.0201 71.8801L59.2801 72.7201Z" stroke="black" stroke-width="0.25" stroke-miterlimit="10"/>
<path d="M59.55 72.72H58.27V67.23C58.27 66.88 58.56 66.59 58.91 66.59C59.26 66.59 59.55 66.88 59.55 67.23V72.72Z" fill="#F66E4E" stroke="black" stroke-width="0.25" stroke-miterlimit="10"/>
<path d="M59.55 72.72H58.27V67.23C58.27 66.88 58.56 66.59 58.91 66.59C59.26 66.59 59.55 66.88 59.55 67.23V72.72Z" stroke="black" stroke-width="0.25" stroke-miterlimit="10"/>
<path d="M81.8801 67.29C81.8801 67.34 81.87 67.39 81.86 67.44L80.61 72.72H79.3L79.5001 71.88L80.6201 67.15C80.7001 66.81 81.0501 66.59 81.3901 66.68C81.6801 66.74 81.8801 67 81.8801 67.29Z" fill="#F66E4E" stroke="black" stroke-width="0.25" stroke-miterlimit="10"/>
<path d="M81.8801 67.29C81.8801 67.34 81.87 67.39 81.86 67.44L80.61 72.72H79.3L79.5001 71.88L80.6201 67.15C80.7001 66.81 81.0501 66.59 81.3901 66.68C81.6801 66.74 81.8801 67 81.8801 67.29Z" stroke="black" stroke-width="0.25" stroke-miterlimit="10"/>
<path d="M79.7701 72.7201H78.43L76.79 67.5301C76.68 67.1901 76.8701 66.8401 77.2101 66.7301C77.2701 66.7101 77.3401 66.7001 77.4001 66.7001C77.6701 66.7001 77.9201 66.8701 78.0101 67.1501L79.5101 71.8801L79.7701 72.7201Z" fill="#F66E4E" stroke="black" stroke-width="0.25" stroke-miterlimit="10"/>
<path d="M79.7701 72.7201H78.43L76.79 67.5301C76.68 67.1901 76.8701 66.8401 77.2101 66.7301C77.2701 66.7101 77.3401 66.7001 77.4001 66.7001C77.6701 66.7001 77.9201 66.8701 78.0101 67.1501L79.5101 71.8801L79.7701 72.7201Z" stroke="black" stroke-width="0.25" stroke-miterlimit="10"/>
<path d="M80.04 72.72H78.76V67.23C78.76 66.88 79.05 66.59 79.4 66.59C79.75 66.59 80.04 66.88 80.04 67.23V72.72Z" fill="#F66E4E" stroke="black" stroke-width="0.25" stroke-miterlimit="10"/>
<path d="M80.04 72.72H78.76V67.23C78.76 66.88 79.05 66.59 79.4 66.59C79.75 66.59 80.04 66.88 80.04 67.23V72.72Z" stroke="black" stroke-width="0.25" stroke-miterlimit="10"/>
</svg>
