<svg width="140" height="171" viewBox="0 0 140 171" fill="none" xmlns="http://www.w3.org/2000/svg">
<path d="M136.62 70.9601C136.51 86.5801 131.05 100.91 121.93 112.18L75.1198 164.77C72.4498 167.77 67.7498 167.77 65.0798 164.77L18.2698 112.18C9.05984 100.8 3.57983 86.3001 3.57983 70.5001C3.57983 33.7201 33.4498 3.90014 70.2498 3.98014C106.74 4.06014 136.87 34.4701 136.62 70.9601Z" fill="white"/>
<path d="M70.0999 170.17C67.2899 170.17 64.5999 168.96 62.7199 166.86L15.9099 114.27C5.88991 101.88 0.419922 86.3801 0.419922 70.4901C0.419922 51.8601 7.68991 34.3501 20.8799 21.1701C34.0399 8.04007 51.5099 0.810059 70.0899 0.810059C70.1399 0.810059 70.1899 0.810059 70.2399 0.810059C88.7299 0.850059 106.2 8.22007 119.43 21.5701C132.67 34.9301 139.89 52.4701 139.76 70.9601C139.65 86.8901 134.33 101.82 124.37 114.14L77.4599 166.84C75.5999 168.96 72.9199 170.17 70.0999 170.17ZM70.0999 7.13007C53.1999 7.13007 37.3099 13.7001 25.3399 25.6501C13.3399 37.6301 6.72992 53.5601 6.72992 70.5001C6.72992 84.9501 11.6999 99.0401 20.7199 110.2L67.4299 162.67C68.1199 163.44 69.0599 163.87 70.0999 163.87C71.1299 163.87 72.0799 163.45 72.7599 162.68L119.57 110.09C128.53 99.0101 133.37 85.4401 133.46 70.9501C133.57 54.1401 127 38.1901 114.96 26.0401C102.92 13.8901 87.0399 7.18008 70.2399 7.14008C70.1999 7.13008 70.1499 7.13007 70.0999 7.13007Z" fill="black"/>
<path d="M87.55 85.88H87.87C89.29 85.88 90.45 84.73 90.45 83.3V70.4L50.01 70.49V83.3C50.01 84.72 51.16 85.88 52.59 85.88H87.55Z" fill="#FCA1BD" stroke="black" stroke-width="0.25" stroke-miterlimit="10"/>
<path d="M87.55 85.88H87.87C89.29 85.88 90.45 84.73 90.45 83.3V70.4L50.01 70.49V83.3C50.01 84.72 51.16 85.88 52.59 85.88H87.55Z" stroke="black" stroke-width="0.25" stroke-miterlimit="10"/>
<path d="M49.9199 70.4H90.1799L87.5999 60.73L83.0999 53.05L78.5999 49.1L76.3299 47.27L73.0999 45.73L70.2099 45.45L68.2799 45.03L63.6399 47.54L56.1299 54.47L53.4899 59.37L50.7499 66.3L49.9199 70.4Z" fill="black" stroke="black" stroke-width="0.25" stroke-miterlimit="10"/>
<path d="M49.9199 70.4H90.1799L87.5999 60.73L83.0999 53.05L78.5999 49.1L76.3299 47.27L73.0999 45.73L70.2099 45.45L68.2799 45.03L63.6399 47.54L56.1299 54.47L53.4899 59.37L50.7499 66.3L49.9199 70.4Z" stroke="black" stroke-width="0.25" stroke-miterlimit="10"/>
<path d="M88.74 85.88H51.72V96.5H88.74V85.88Z" fill="#F76D48" stroke="black" stroke-width="0.25" stroke-miterlimit="10"/>
<path d="M88.74 85.88H51.72V96.5H88.74V85.88Z" stroke="black" stroke-width="0.25" stroke-miterlimit="10"/>
<path d="M88.74 112.4H51.72V135.87H88.74V112.4Z" fill="black" stroke="black" stroke-width="0.25" stroke-miterlimit="10"/>
<path d="M88.74 112.4H51.72V135.87H88.74V112.4Z" stroke="black" stroke-width="0.25" stroke-miterlimit="10"/>
<path d="M80.19 112.4H60.23V135.87H80.19V112.4Z" fill="#F76D48" stroke="black" stroke-width="0.25" stroke-miterlimit="10"/>
<path d="M80.19 112.4H60.23V135.87H80.19V112.4Z" stroke="black" stroke-width="0.25" stroke-miterlimit="10"/>
<path d="M80.1899 101.97H58.6899V112.4H80.1899V101.97Z" fill="black" stroke="black" stroke-width="0.25" stroke-miterlimit="10"/>
<path d="M80.1899 101.97H58.6899V112.4H80.1899V101.97Z" stroke="black" stroke-width="0.25" stroke-miterlimit="10"/>
<path d="M88.74 99.42V112.4H80.19C80.04 107.02 75.63 102.7 70.21 102.7C64.79 102.7 60.38 107.01 60.23 112.4H51.73V99.42H88.74Z" fill="#FCA1BD" stroke="black" stroke-width="0.25" stroke-miterlimit="10"/>
<path d="M88.74 99.42V112.4H80.19C80.04 107.02 75.63 102.7 70.21 102.7C64.79 102.7 60.38 107.01 60.23 112.4H51.73V99.42H88.74Z" stroke="black" stroke-width="0.25" stroke-miterlimit="10"/>
<path d="M74.7799 120.6L73.6399 122.42H66.7699L65.6299 120.61C65.6599 120.3 65.7199 120 65.8099 119.71C66.1999 118.43 67.1399 117.39 68.3599 116.85C68.9199 116.6 69.5499 116.46 70.1999 116.46C70.8599 116.46 71.4799 116.6 72.0399 116.85C73.2599 117.38 74.1899 118.43 74.5899 119.71C74.6899 119.99 74.7499 120.29 74.7799 120.6Z" fill="black" stroke="black" stroke-width="0.25" stroke-miterlimit="10"/>
<path d="M73.64 122.42H66.77V135.87H73.64V122.42Z" fill="black" stroke="black" stroke-width="0.25" stroke-miterlimit="10"/>
<path d="M74.2898 119.71C74.7498 119.71 75.0298 120.22 74.7898 120.61L73.6498 122.43H66.7798L65.6398 120.62C65.3998 120.23 65.6798 119.72 66.1398 119.72H74.2898V119.71Z" fill="#EEE7DB" stroke="black" stroke-width="0.25" stroke-miterlimit="10"/>
<path d="M74.2898 119.71C74.7498 119.71 75.0298 120.22 74.7898 120.61L73.6498 122.43H66.7798L65.6398 120.62C65.3998 120.23 65.6798 119.72 66.1398 119.72H74.2898V119.71Z" stroke="black" stroke-width="0.25" stroke-miterlimit="10"/>
<path d="M52.9299 97.2299H87.1199L85.1499 95.4699L70.2299 87.95L52.9299 97.2299Z" fill="black" stroke="black" stroke-width="0.25" stroke-miterlimit="10"/>
<path d="M52.9299 97.2299H87.1199L85.1499 95.4699L70.2299 87.95L52.9299 97.2299Z" stroke="black" stroke-width="0.25" stroke-miterlimit="10"/>
<path d="M62.0799 101.97C62.0799 101.04 61.32 100.28 60.39 100.28C59.46 100.28 58.7 101.04 58.7 101.97C58.7 102.9 59.46 103.66 60.39 103.66C61.32 103.66 62.0799 102.91 62.0799 101.97Z" fill="#F76D48" stroke="black" stroke-width="0.25" stroke-miterlimit="10"/>
<path d="M62.0799 101.97C62.0799 101.04 61.32 100.28 60.39 100.28C59.46 100.28 58.7 101.04 58.7 101.97C58.7 102.9 59.46 103.66 60.39 103.66C61.32 103.66 62.0799 102.91 62.0799 101.97Z" stroke="black" stroke-width="0.25" stroke-miterlimit="10"/>
<path d="M72.2299 117.68C72.2299 116.56 71.3199 115.66 70.2099 115.66C69.0899 115.66 68.1899 116.57 68.1899 117.68C68.1899 118.8 69.0999 119.7 70.2099 119.7C71.3299 119.71 72.2299 118.8 72.2299 117.68Z" fill="#FCA1BD" stroke="black" stroke-width="0.25" stroke-miterlimit="10"/>
<path d="M72.2299 117.68C72.2299 116.56 71.3199 115.66 70.2099 115.66C69.0899 115.66 68.1899 116.57 68.1899 117.68C68.1899 118.8 69.0999 119.7 70.2099 119.7C71.3299 119.71 72.2299 118.8 72.2299 117.68Z" stroke="black" stroke-width="0.25" stroke-miterlimit="10"/>
<path d="M56.2299 125.45C55.6199 125.45 55.1299 124.96 55.1299 124.35V118.95C55.1299 118.34 55.6199 117.85 56.2299 117.85C56.8399 117.85 57.3299 118.34 57.3299 118.95V124.35C57.3399 124.95 56.8399 125.45 56.2299 125.45Z" fill="#FCA1BD" stroke="black" stroke-width="0.25" stroke-miterlimit="10"/>
<path d="M56.2299 125.45C55.6199 125.45 55.1299 124.96 55.1299 124.35V118.95C55.1299 118.34 55.6199 117.85 56.2299 117.85C56.8399 117.85 57.3299 118.34 57.3299 118.95V124.35C57.3399 124.95 56.8399 125.45 56.2299 125.45Z" stroke="black" stroke-width="0.25" stroke-miterlimit="10"/>
<path d="M56.2299 117.52C55.6199 117.52 55.1299 117.03 55.1299 116.42C55.1299 115.81 55.6199 115.32 56.2299 115.32C56.8399 115.32 57.3299 115.81 57.3299 116.42C57.3399 117.03 56.8399 117.52 56.2299 117.52Z" fill="#EEE7DB" stroke="black" stroke-width="0.25" stroke-miterlimit="10"/>
<path d="M56.2299 117.52C55.6199 117.52 55.1299 117.03 55.1299 116.42C55.1299 115.81 55.6199 115.32 56.2299 115.32C56.8399 115.32 57.3299 115.81 57.3299 116.42C57.3399 117.03 56.8399 117.52 56.2299 117.52Z" stroke="black" stroke-width="0.25" stroke-miterlimit="10"/>
<path d="M83.2499 125.45C82.6399 125.45 82.1499 124.96 82.1499 124.35V118.95C82.1499 118.34 82.6399 117.85 83.2499 117.85C83.8599 117.85 84.3499 118.34 84.3499 118.95V124.35C84.3599 124.95 83.8599 125.45 83.2499 125.45Z" fill="#FCA1BD" stroke="black" stroke-width="0.25" stroke-miterlimit="10"/>
<path d="M83.2499 125.45C82.6399 125.45 82.1499 124.96 82.1499 124.35V118.95C82.1499 118.34 82.6399 117.85 83.2499 117.85C83.8599 117.85 84.3499 118.34 84.3499 118.95V124.35C84.3599 124.95 83.8599 125.45 83.2499 125.45Z" stroke="black" stroke-width="0.25" stroke-miterlimit="10"/>
<path d="M83.2499 117.52C82.6399 117.52 82.1499 117.03 82.1499 116.42C82.1499 115.81 82.6399 115.32 83.2499 115.32C83.8599 115.32 84.3499 115.81 84.3499 116.42C84.3599 117.03 83.8599 117.52 83.2499 117.52Z" fill="#EEE7DB" stroke="black" stroke-width="0.25" stroke-miterlimit="10"/>
<path d="M83.2499 117.52C82.6399 117.52 82.1499 117.03 82.1499 116.42C82.1499 115.81 82.6399 115.32 83.2499 115.32C83.8599 115.32 84.3499 115.81 84.3499 116.42C84.3599 117.03 83.8599 117.52 83.2499 117.52Z" stroke="black" stroke-width="0.25" stroke-miterlimit="10"/>
<path d="M56.2299 110.25C55.6199 110.25 55.1299 109.76 55.1299 109.15V103.75C55.1299 103.14 55.6199 102.65 56.2299 102.65C56.8399 102.65 57.3299 103.14 57.3299 103.75V109.15C57.3399 109.75 56.8399 110.25 56.2299 110.25Z" fill="#F76D48" stroke="black" stroke-width="0.25" stroke-miterlimit="10"/>
<path d="M56.2299 110.25C55.6199 110.25 55.1299 109.76 55.1299 109.15V103.75C55.1299 103.14 55.6199 102.65 56.2299 102.65C56.8399 102.65 57.3299 103.14 57.3299 103.75V109.15C57.3399 109.75 56.8399 110.25 56.2299 110.25Z" stroke="black" stroke-width="0.25" stroke-miterlimit="10"/>
<path d="M56.2299 102.32C55.6199 102.32 55.1299 101.83 55.1299 101.22C55.1299 100.61 55.6199 100.12 56.2299 100.12C56.8399 100.12 57.3299 100.61 57.3299 101.22C57.3399 101.83 56.8399 102.32 56.2299 102.32Z" fill="#EEE7DB" stroke="black" stroke-width="0.25" stroke-miterlimit="10"/>
<path d="M56.2299 102.32C55.6199 102.32 55.1299 101.83 55.1299 101.22C55.1299 100.61 55.6199 100.12 56.2299 100.12C56.8399 100.12 57.3299 100.61 57.3299 101.22C57.3399 101.83 56.8399 102.32 56.2299 102.32Z" stroke="black" stroke-width="0.25" stroke-miterlimit="10"/>
<path d="M61.49 101.97C61.49 101.36 61 100.87 60.39 100.87C59.78 100.87 59.29 101.36 59.29 101.97C59.29 102.58 59.78 103.07 60.39 103.07C61 103.07 61.49 102.58 61.49 101.97Z" fill="#EEE7DB" stroke="black" stroke-width="0.25" stroke-miterlimit="10"/>
<path d="M61.49 101.97C61.49 101.36 61 100.87 60.39 100.87C59.78 100.87 59.29 101.36 59.29 101.97C59.29 102.58 59.78 103.07 60.39 103.07C61 103.07 61.49 102.58 61.49 101.97Z" stroke="black" stroke-width="0.25" stroke-miterlimit="10"/>
<path d="M88.74 96.5H51.72V97.96H88.74V96.5Z" fill="#FCA1BD" stroke="black" stroke-width="0.25" stroke-miterlimit="10"/>
<path d="M88.74 96.5H51.72V97.96H88.74V96.5Z" stroke="black" stroke-width="0.25" stroke-miterlimit="10" stroke-linecap="round" stroke-linejoin="round"/>
<path d="M88.74 97.95H51.72V99.4099H88.74V97.95Z" fill="#EEE7DB" stroke="black" stroke-width="0.25" stroke-miterlimit="10"/>
<path d="M88.74 97.95H51.72V99.4099H88.74V97.95Z" stroke="black" stroke-width="0.25" stroke-miterlimit="10"/>
<path d="M70.23 89.7499L85.56 96.4999H88.74L70.23 87.95V89.7499Z" fill="#FCA1BD" stroke="black" stroke-width="0.25" stroke-miterlimit="10"/>
<path d="M70.23 89.7499L85.56 96.4999H88.74L70.23 87.95V89.7499Z" stroke="black" stroke-width="0.25" stroke-miterlimit="10" stroke-linecap="round" stroke-linejoin="round"/>
<path d="M70.23 89.7499L54.91 96.4999H51.72L70.23 87.95V89.7499Z" fill="#FCA1BD" stroke="black" stroke-width="0.25" stroke-miterlimit="10"/>
<path d="M70.23 89.7499L54.91 96.4999H51.72L70.23 87.95V89.7499Z" stroke="black" stroke-width="0.25" stroke-miterlimit="10" stroke-linecap="round" stroke-linejoin="round"/>
<path d="M78.77 101.97C78.77 101.04 79.53 100.28 80.46 100.28C81.39 100.28 82.15 101.04 82.15 101.97C82.15 102.9 81.39 103.66 80.46 103.66C79.53 103.66 78.77 102.91 78.77 101.97Z" fill="#F76D48" stroke="black" stroke-width="0.25" stroke-miterlimit="10"/>
<path d="M78.77 101.97C78.77 101.04 79.53 100.28 80.46 100.28C81.39 100.28 82.15 101.04 82.15 101.97C82.15 102.9 81.39 103.66 80.46 103.66C79.53 103.66 78.77 102.91 78.77 101.97Z" stroke="black" stroke-width="0.25" stroke-miterlimit="10"/>
<path d="M86.0199 110.63C86.6299 110.63 87.1199 110.14 87.1199 109.53V104.13C87.1199 103.52 86.6299 103.03 86.0199 103.03C85.4099 103.03 84.9199 103.52 84.9199 104.13V109.53C84.9199 110.13 85.4099 110.63 86.0199 110.63Z" fill="#F76D48" stroke="black" stroke-width="0.25" stroke-miterlimit="10"/>
<path d="M86.0199 110.63C86.6299 110.63 87.1199 110.14 87.1199 109.53V104.13C87.1199 103.52 86.6299 103.03 86.0199 103.03C85.4099 103.03 84.9199 103.52 84.9199 104.13V109.53C84.9199 110.13 85.4099 110.63 86.0199 110.63Z" stroke="black" stroke-width="0.25" stroke-miterlimit="10"/>
<path d="M86.0199 102.7C86.6299 102.7 87.1199 102.21 87.1199 101.6C87.1199 100.99 86.6299 100.5 86.0199 100.5C85.4099 100.5 84.9199 100.99 84.9199 101.6C84.9199 102.21 85.4099 102.7 86.0199 102.7Z" fill="#EEE7DB" stroke="black" stroke-width="0.25" stroke-miterlimit="10"/>
<path d="M86.0199 102.7C86.6299 102.7 87.1199 102.21 87.1199 101.6C87.1199 100.99 86.6299 100.5 86.0199 100.5C85.4099 100.5 84.9199 100.99 84.9199 101.6C84.9199 102.21 85.4099 102.7 86.0199 102.7Z" stroke="black" stroke-width="0.25" stroke-miterlimit="10"/>
<path d="M79.3599 101.97C79.3599 101.36 79.8499 100.87 80.4599 100.87C81.0699 100.87 81.5599 101.36 81.5599 101.97C81.5599 102.58 81.0699 103.07 80.4599 103.07C79.8499 103.07 79.3599 102.58 79.3599 101.97Z" fill="#EEE7DB" stroke="black" stroke-width="0.25" stroke-miterlimit="10"/>
<path d="M79.3599 101.97C79.3599 101.36 79.8499 100.87 80.4599 100.87C81.0699 100.87 81.5599 101.36 81.5599 101.97C81.5599 102.58 81.0699 103.07 80.4599 103.07C79.8499 103.07 79.3599 102.58 79.3599 101.97Z" stroke="black" stroke-width="0.25" stroke-miterlimit="10"/>
<path d="M71.31 15.14C71.31 14.43 70.74 13.86 70.03 13.86C69.32 13.86 68.75 14.43 68.75 15.14C68.75 15.85 69.32 16.42 70.03 16.42C70.74 16.42 71.31 15.84 71.31 15.14Z" fill="black" stroke="black" stroke-width="0.25" stroke-miterlimit="10"/>
<path d="M71.31 15.14C71.31 14.43 70.74 13.86 70.03 13.86C69.32 13.86 68.75 14.43 68.75 15.14C68.75 15.85 69.32 16.42 70.03 16.42C70.74 16.42 71.31 15.84 71.31 15.14Z" stroke="black" stroke-width="0.25" stroke-miterlimit="10"/>
<path d="M70.9399 17.32C70.9399 16.82 70.5399 16.42 70.0399 16.42C69.5399 16.42 69.1399 16.82 69.1399 17.32C69.1399 17.82 69.5399 18.22 70.0399 18.22C70.5299 18.23 70.9399 17.82 70.9399 17.32Z" fill="black" stroke="black" stroke-width="0.25" stroke-miterlimit="10"/>
<path d="M70.9399 17.32C70.9399 16.82 70.5399 16.42 70.0399 16.42C69.5399 16.42 69.1399 16.82 69.1399 17.32C69.1399 17.82 69.5399 18.22 70.0399 18.22C70.5299 18.23 70.9399 17.82 70.9399 17.32Z" stroke="black" stroke-width="0.25" stroke-miterlimit="10"/>
<path d="M70.1098 18.09V16.09L70.0099 17.09L69.9099 16.09V18.09L68.8298 29.17H69.9099H70.1098H71.1898L70.1098 18.09Z" fill="black" stroke="black" stroke-width="0.25" stroke-miterlimit="10"/>
<path d="M70.1098 18.09V16.09L70.0099 17.09L69.9099 16.09V18.09L68.8298 29.17H69.9099H70.1098H71.1898L70.1098 18.09Z" stroke="black" stroke-width="0.25" stroke-miterlimit="10"/>
<path d="M70.0098 41.3201H65.3198L66.9998 45.7401H70.0098H73.0198L74.6998 41.3201H70.0098Z" fill="black" stroke="black" stroke-width="0.25" stroke-miterlimit="10"/>
<path d="M70.0098 41.3201H65.3198L66.9998 45.7401H70.0098H73.0198L74.6998 41.3201H70.0098Z" stroke="black" stroke-width="0.25" stroke-miterlimit="10"/>
<path d="M73.0398 35.67H66.8198V41.89H73.0398V35.67Z" fill="black" stroke="black" stroke-width="0.25" stroke-miterlimit="10"/>
<path d="M73.0398 35.67H66.8198V41.89H73.0398V35.67Z" stroke="black" stroke-width="0.25" stroke-miterlimit="10"/>
<path d="M69.9299 29.17C71.3299 29.17 72.4699 30.31 72.4699 31.71V36.15H67.3899V31.71C67.3999 30.3 68.5299 29.17 69.9299 29.17Z" fill="black" stroke="black" stroke-width="0.25" stroke-miterlimit="10"/>
<path d="M69.9299 29.17C71.3299 29.17 72.4699 30.31 72.4699 31.71V36.15H67.3899V31.71C67.3999 30.3 68.5299 29.17 69.9299 29.17Z" stroke="black" stroke-width="0.25" stroke-miterlimit="10"/>
<path d="M70.01 45.74C70.01 45.74 67.3999 47.09 67.3999 69.89C67.3099 69.8 63.35 69.89 63.35 69.89C63.35 69.89 63.1499 50.17 68.9299 45.74H70.01Z" fill="#EEE7DB" stroke="black" stroke-width="0.25" stroke-miterlimit="10"/>
<path d="M70.01 45.74C70.01 45.74 67.3999 47.09 67.3999 69.89C67.3099 69.8 63.35 69.89 63.35 69.89C63.35 69.89 63.1499 50.17 68.9299 45.74H70.01Z" stroke="black" stroke-width="0.25" stroke-miterlimit="10"/>
<path d="M66.9998 45.74C66.9998 45.74 55.5298 50.49 55.5298 70.34C55.6698 70.48 58.8398 70.34 58.8398 70.34C58.8398 70.34 57.4598 54.78 68.1298 45.74C67.7598 45.89 66.9998 45.74 66.9998 45.74Z" fill="#EEE7DB" stroke="black" stroke-width="0.25" stroke-miterlimit="10"/>
<path d="M66.9998 45.74C66.9998 45.74 55.5298 50.49 55.5298 70.34C55.6698 70.48 58.8398 70.34 58.8398 70.34C58.8398 70.34 57.4598 54.78 68.1298 45.74C67.7598 45.89 66.9998 45.74 66.9998 45.74Z" stroke="black" stroke-width="0.25" stroke-miterlimit="10"/>
<path d="M66.9998 45.74C66.9998 45.74 52.1298 52.63 52.1298 70.41C52.3298 70.61 49.9198 70.41 49.9198 70.41C49.9198 70.41 47.5798 53.95 66.9998 45.74Z" fill="#EEE7DB" stroke="black" stroke-width="0.25" stroke-miterlimit="10"/>
<path d="M66.9998 45.74C66.9998 45.74 52.1298 52.63 52.1298 70.41C52.3298 70.61 49.9198 70.41 49.9198 70.41C49.9198 70.41 47.5798 53.95 66.9998 45.74Z" stroke="black" stroke-width="0.25" stroke-miterlimit="10"/>
<path d="M70.0898 45.73C70.0898 45.73 72.6999 47.08 72.6999 69.88C72.7899 69.79 76.7498 69.88 76.7498 69.88C76.7498 69.88 76.9499 50.16 71.1699 45.73H70.0898Z" fill="#EEE7DB" stroke="black" stroke-width="0.25" stroke-miterlimit="10"/>
<path d="M70.0898 45.73C70.0898 45.73 72.6999 47.08 72.6999 69.88C72.7899 69.79 76.7498 69.88 76.7498 69.88C76.7498 69.88 76.9499 50.16 71.1699 45.73H70.0898Z" stroke="black" stroke-width="0.25" stroke-miterlimit="10"/>
<path d="M73.1 45.73C73.1 45.73 84.57 50.48 84.57 70.33C84.43 70.47 81.26 70.33 81.26 70.33C81.26 70.33 82.64 54.77 71.97 45.73C72.34 45.88 73.1 45.73 73.1 45.73Z" fill="#EEE7DB" stroke="black" stroke-width="0.25" stroke-miterlimit="10"/>
<path d="M73.1 45.73C73.1 45.73 84.57 50.48 84.57 70.33C84.43 70.47 81.26 70.33 81.26 70.33C81.26 70.33 82.64 54.77 71.97 45.73C72.34 45.88 73.1 45.73 73.1 45.73Z" stroke="black" stroke-width="0.25" stroke-miterlimit="10"/>
<path d="M73.0999 45.73C73.0999 45.73 87.9698 52.62 87.9698 70.4C87.7698 70.6 90.1798 70.4 90.1798 70.4C90.1798 70.4 92.5199 53.95 73.0999 45.73Z" fill="#EEE7DB" stroke="black" stroke-width="0.25" stroke-miterlimit="10"/>
<path d="M73.0999 45.73C73.0999 45.73 87.9698 52.62 87.9698 70.4C87.7698 70.6 90.1798 70.4 90.1798 70.4C90.1798 70.4 92.5199 53.95 73.0999 45.73Z" stroke="black" stroke-width="0.25" stroke-miterlimit="10"/>
<path d="M90.2699 69.67H49.8999V70.49H90.2699V69.67Z" fill="#F76D48" stroke="black" stroke-width="0.25" stroke-miterlimit="10"/>
<path d="M90.2699 69.67H49.8999V70.49H90.2699V69.67Z" stroke="black" stroke-width="0.25" stroke-miterlimit="10"/>
<path d="M55.33 75.77H51.29C51.29 74.65 52.19 73.75 53.31 73.75C54.42 73.75 55.33 74.66 55.33 75.77Z" fill="#EEE7DB" stroke="black" stroke-width="0.25" stroke-miterlimit="10"/>
<path d="M55.33 75.77H51.29C51.29 74.65 52.19 73.75 53.31 73.75C54.42 73.75 55.33 74.66 55.33 75.77Z" stroke="black" stroke-width="0.25" stroke-miterlimit="10"/>
<path d="M61.9899 75.77H57.95C57.95 74.65 58.8499 73.75 59.9699 73.75C61.0799 73.75 61.9899 74.66 61.9899 75.77Z" fill="#EEE7DB" stroke="black" stroke-width="0.25" stroke-miterlimit="10"/>
<path d="M61.9899 75.77H57.95C57.95 74.65 58.8499 73.75 59.9699 73.75C61.0799 73.75 61.9899 74.66 61.9899 75.77Z" stroke="black" stroke-width="0.25" stroke-miterlimit="10"/>
<path d="M68.6499 75.77H64.6099C64.6099 74.65 65.5099 73.75 66.6299 73.75C67.7399 73.75 68.6499 74.66 68.6499 75.77Z" fill="#EEE7DB" stroke="black" stroke-width="0.25" stroke-miterlimit="10"/>
<path d="M68.6499 75.77H64.6099C64.6099 74.65 65.5099 73.75 66.6299 73.75C67.7399 73.75 68.6499 74.66 68.6499 75.77Z" stroke="black" stroke-width="0.25" stroke-miterlimit="10"/>
<path d="M75.3 75.77H71.26C71.26 74.65 72.16 73.75 73.28 73.75C74.4 73.75 75.3 74.66 75.3 75.77Z" fill="#EEE7DB" stroke="black" stroke-width="0.25" stroke-miterlimit="10"/>
<path d="M75.3 75.77H71.26C71.26 74.65 72.16 73.75 73.28 73.75C74.4 73.75 75.3 74.66 75.3 75.77Z" stroke="black" stroke-width="0.25" stroke-miterlimit="10"/>
<path d="M81.9599 75.77H77.9199C77.9199 74.65 78.8199 73.75 79.9399 73.75C81.0599 73.75 81.9599 74.66 81.9599 75.77Z" fill="#EEE7DB" stroke="black" stroke-width="0.25" stroke-miterlimit="10"/>
<path d="M81.9599 75.77H77.9199C77.9199 74.65 78.8199 73.75 79.9399 73.75C81.0599 73.75 81.9599 74.66 81.9599 75.77Z" stroke="black" stroke-width="0.25" stroke-miterlimit="10"/>
<path d="M88.6198 75.77H84.5798C84.5798 74.65 85.4799 73.75 86.5999 73.75C87.7199 73.75 88.6198 74.66 88.6198 75.77Z" fill="#EEE7DB" stroke="black" stroke-width="0.25" stroke-miterlimit="10"/>
<path d="M88.6198 75.77H84.5798C84.5798 74.65 85.4799 73.75 86.5999 73.75C87.7199 73.75 88.6198 74.66 88.6198 75.77Z" stroke="black" stroke-width="0.25" stroke-miterlimit="10"/>
<path d="M55.33 78.41V82.93C55.33 83.91 54.64 84.72 53.72 84.91C53.59 84.94 53.45 84.95 53.31 84.95C52.2 84.95 51.29 84.05 51.29 82.93V78.41C51.29 77.29 52.2 76.39 53.31 76.39C53.45 76.39 53.59 76.4 53.72 76.43C54.11 76.51 54.46 76.71 54.74 76.98C55.1 77.34 55.33 77.85 55.33 78.41Z" fill="#F76D48" stroke="black" stroke-width="0.25" stroke-miterlimit="10"/>
<path d="M55.33 78.41V82.93C55.33 83.91 54.64 84.72 53.72 84.91C53.59 84.94 53.45 84.95 53.31 84.95C52.2 84.95 51.29 84.05 51.29 82.93V78.41C51.29 77.29 52.2 76.39 53.31 76.39C53.45 76.39 53.59 76.4 53.72 76.43C54.11 76.51 54.46 76.71 54.74 76.98C55.1 77.34 55.33 77.85 55.33 78.41Z" stroke="black" stroke-width="0.25" stroke-miterlimit="10"/>
<path d="M55.3299 78.4099V82.9299C55.3299 83.9099 54.6399 84.7199 53.7199 84.9099C52.7999 84.7199 52.1099 83.9099 52.1099 82.9299V78.4099C52.1099 77.4299 52.7999 76.6199 53.7199 76.4299C54.1099 76.5099 54.4599 76.7099 54.7399 76.9799C55.0999 77.3399 55.3299 77.8499 55.3299 78.4099Z" fill="black" stroke="black" stroke-width="0.25" stroke-miterlimit="10"/>
<path d="M55.3299 78.4099V82.9299C55.3299 83.9099 54.6399 84.7199 53.7199 84.9099C52.7999 84.7199 52.1099 83.9099 52.1099 82.9299V78.4099C52.1099 77.4299 52.7999 76.6199 53.7199 76.4299C54.1099 76.5099 54.4599 76.7099 54.7399 76.9799C55.0999 77.3399 55.3299 77.8499 55.3299 78.4099Z" stroke="black" stroke-width="0.25" stroke-miterlimit="10"/>
<path d="M59.9699 84.94C58.8499 84.94 57.95 84.04 57.95 82.92V78.4C57.95 77.28 58.8499 76.38 59.9699 76.38C61.0899 76.38 61.9899 77.28 61.9899 78.4V82.92C61.9899 84.04 61.0799 84.94 59.9699 84.94Z" fill="black" stroke="black" stroke-width="0.25" stroke-miterlimit="10"/>
<path d="M59.9699 84.94C58.8499 84.94 57.95 84.04 57.95 82.92V78.4C57.95 77.28 58.8499 76.38 59.9699 76.38C61.0899 76.38 61.9899 77.28 61.9899 78.4V82.92C61.9899 84.04 61.0799 84.94 59.9699 84.94Z" stroke="black" stroke-width="0.25" stroke-miterlimit="10"/>
<path d="M66.6299 84.94C65.5099 84.94 64.6099 84.04 64.6099 82.92V78.4C64.6099 77.28 65.5099 76.38 66.6299 76.38C67.7499 76.38 68.6499 77.28 68.6499 78.4V82.92C68.6499 84.04 67.7399 84.94 66.6299 84.94Z" fill="black" stroke="black" stroke-width="0.25" stroke-miterlimit="10"/>
<path d="M66.6299 84.94C65.5099 84.94 64.6099 84.04 64.6099 82.92V78.4C64.6099 77.28 65.5099 76.38 66.6299 76.38C67.7499 76.38 68.6499 77.28 68.6499 78.4V82.92C68.6499 84.04 67.7399 84.94 66.6299 84.94Z" stroke="black" stroke-width="0.25" stroke-miterlimit="10"/>
<path d="M73.28 84.94C72.16 84.94 71.26 84.04 71.26 82.92V78.4C71.26 77.28 72.16 76.38 73.28 76.38C74.4 76.38 75.3 77.28 75.3 78.4V82.92C75.3 84.04 74.4 84.94 73.28 84.94Z" fill="black" stroke="black" stroke-width="0.25" stroke-miterlimit="10"/>
<path d="M73.28 84.94C72.16 84.94 71.26 84.04 71.26 82.92V78.4C71.26 77.28 72.16 76.38 73.28 76.38C74.4 76.38 75.3 77.28 75.3 78.4V82.92C75.3 84.04 74.4 84.94 73.28 84.94Z" stroke="black" stroke-width="0.25" stroke-miterlimit="10"/>
<path d="M79.9399 84.94C78.8199 84.94 77.9199 84.04 77.9199 82.92V78.4C77.9199 77.28 78.8199 76.38 79.9399 76.38C81.0599 76.38 81.9599 77.28 81.9599 78.4V82.92C81.9599 84.04 81.0599 84.94 79.9399 84.94Z" fill="black" stroke="black" stroke-width="0.25" stroke-miterlimit="10"/>
<path d="M79.9399 84.94C78.8199 84.94 77.9199 84.04 77.9199 82.92V78.4C77.9199 77.28 78.8199 76.38 79.9399 76.38C81.0599 76.38 81.9599 77.28 81.9599 78.4V82.92C81.9599 84.04 81.0599 84.94 79.9399 84.94Z" stroke="black" stroke-width="0.25" stroke-miterlimit="10"/>
<path d="M86.5999 84.94C85.4799 84.94 84.5798 84.04 84.5798 82.92V78.4C84.5798 77.28 85.4799 76.38 86.5999 76.38C87.7199 76.38 88.6198 77.28 88.6198 78.4V82.92C88.6198 84.04 87.7199 84.94 86.5999 84.94Z" fill="black" stroke="black" stroke-width="0.25" stroke-miterlimit="10"/>
<path d="M86.5999 84.94C85.4799 84.94 84.5798 84.04 84.5798 82.92V78.4C84.5798 77.28 85.4799 76.38 86.5999 76.38C87.7199 76.38 88.6198 77.28 88.6198 78.4V82.92C88.6198 84.04 87.7199 84.94 86.5999 84.94Z" stroke="black" stroke-width="0.25" stroke-miterlimit="10"/>
<path d="M71.9298 87.95C71.9298 87.02 71.1698 86.26 70.2398 86.26C69.3098 86.26 68.5498 87.02 68.5498 87.95C68.5498 88.88 69.3098 89.64 70.2398 89.64C71.1698 89.64 71.9298 88.88 71.9298 87.95Z" fill="#EEE7DB" stroke="black" stroke-width="0.25" stroke-miterlimit="10"/>
<path d="M70.5134 89.618C71.4347 89.4685 72.0604 88.6004 71.9109 87.6791C71.7613 86.7578 70.8932 86.1321 69.9719 86.2816C69.0506 86.4312 68.4249 87.2992 68.5744 88.2206C68.724 89.1419 69.5921 89.7676 70.5134 89.618Z" stroke="black" stroke-width="0.25" stroke-miterlimit="10"/>
<path d="M71.3299 87.95C71.3299 87.34 70.8399 86.85 70.2299 86.85C69.6199 86.85 69.1299 87.34 69.1299 87.95C69.1299 88.56 69.6199 89.05 70.2299 89.05C70.8399 89.05 71.3299 88.56 71.3299 87.95Z" fill="#FCA1BD" stroke="black" stroke-width="0.25" stroke-miterlimit="10"/>
<path d="M71.3299 87.95C71.3299 87.34 70.8399 86.85 70.2299 86.85C69.6199 86.85 69.1299 87.34 69.1299 87.95C69.1299 88.56 69.6199 89.05 70.2299 89.05C70.8399 89.05 71.3299 88.56 71.3299 87.95Z" stroke="black" stroke-width="0.25" stroke-miterlimit="10"/>
<path d="M90.2099 72.52H49.9799C49.3899 72.52 48.9199 72.05 48.9199 71.46C48.9199 70.87 49.3899 70.4 49.9799 70.4H90.2099C90.7999 70.4 91.2699 70.87 91.2699 71.46C91.2699 72.04 90.7999 72.52 90.2099 72.52Z" fill="black" stroke="black" stroke-width="0.25" stroke-miterlimit="10"/>
<path d="M90.2099 72.52H49.9799C49.3899 72.52 48.9199 72.05 48.9199 71.46C48.9199 70.87 49.3899 70.4 49.9799 70.4H90.2099C90.7999 70.4 91.2699 70.87 91.2699 71.46C91.2699 72.04 90.7999 72.52 90.2099 72.52Z" stroke="black" stroke-width="0.25" stroke-miterlimit="10"/>
<path d="M61.9899 78.41V82.93C61.9899 83.91 61.2999 84.72 60.3799 84.91C60.2499 84.94 60.1099 84.95 59.9699 84.95C58.8599 84.95 57.95 84.05 57.95 82.93V78.41C57.95 77.29 58.8599 76.39 59.9699 76.39C60.1099 76.39 60.2499 76.4 60.3799 76.43C60.7699 76.51 61.1199 76.71 61.3999 76.98C61.7599 77.34 61.9899 77.85 61.9899 78.41Z" fill="#F76D48" stroke="black" stroke-width="0.25" stroke-miterlimit="10"/>
<path d="M61.9899 78.41V82.93C61.9899 83.91 61.2999 84.72 60.3799 84.91C60.2499 84.94 60.1099 84.95 59.9699 84.95C58.8599 84.95 57.95 84.05 57.95 82.93V78.41C57.95 77.29 58.8599 76.39 59.9699 76.39C60.1099 76.39 60.2499 76.4 60.3799 76.43C60.7699 76.51 61.1199 76.71 61.3999 76.98C61.7599 77.34 61.9899 77.85 61.9899 78.41Z" stroke="black" stroke-width="0.25" stroke-miterlimit="10"/>
<path d="M61.99 78.4099V82.9299C61.99 83.9099 61.3 84.7199 60.38 84.9099C59.46 84.7199 58.77 83.9099 58.77 82.9299V78.4099C58.77 77.4299 59.46 76.6199 60.38 76.4299C60.77 76.5099 61.12 76.7099 61.4 76.9799C61.76 77.3399 61.99 77.8499 61.99 78.4099Z" fill="black" stroke="black" stroke-width="0.25" stroke-miterlimit="10"/>
<path d="M61.99 78.4099V82.9299C61.99 83.9099 61.3 84.7199 60.38 84.9099C59.46 84.7199 58.77 83.9099 58.77 82.9299V78.4099C58.77 77.4299 59.46 76.6199 60.38 76.4299C60.77 76.5099 61.12 76.7099 61.4 76.9799C61.76 77.3399 61.99 77.8499 61.99 78.4099Z" stroke="black" stroke-width="0.25" stroke-miterlimit="10"/>
<path d="M68.6499 78.41V82.93C68.6499 83.91 67.9599 84.72 67.0399 84.91C66.9099 84.94 66.7699 84.95 66.6299 84.95C65.5199 84.95 64.6099 84.05 64.6099 82.93V78.41C64.6099 77.29 65.5199 76.39 66.6299 76.39C66.7699 76.39 66.9099 76.4 67.0399 76.43C67.4299 76.51 67.7799 76.71 68.0599 76.98C68.4199 77.34 68.6499 77.85 68.6499 78.41Z" fill="#F76D48" stroke="black" stroke-width="0.25" stroke-miterlimit="10"/>
<path d="M68.6499 78.41V82.93C68.6499 83.91 67.9599 84.72 67.0399 84.91C66.9099 84.94 66.7699 84.95 66.6299 84.95C65.5199 84.95 64.6099 84.05 64.6099 82.93V78.41C64.6099 77.29 65.5199 76.39 66.6299 76.39C66.7699 76.39 66.9099 76.4 67.0399 76.43C67.4299 76.51 67.7799 76.71 68.0599 76.98C68.4199 77.34 68.6499 77.85 68.6499 78.41Z" stroke="black" stroke-width="0.25" stroke-miterlimit="10"/>
<path d="M68.6499 78.4099V82.9299C68.6499 83.9099 67.9599 84.7199 67.0399 84.9099C66.1199 84.7199 65.4299 83.9099 65.4299 82.9299V78.4099C65.4299 77.4299 66.1199 76.6199 67.0399 76.4299C67.4299 76.5099 67.7799 76.7099 68.0599 76.9799C68.4199 77.3399 68.6499 77.8499 68.6499 78.4099Z" fill="black" stroke="black" stroke-width="0.25" stroke-miterlimit="10"/>
<path d="M68.6499 78.4099V82.9299C68.6499 83.9099 67.9599 84.7199 67.0399 84.9099C66.1199 84.7199 65.4299 83.9099 65.4299 82.9299V78.4099C65.4299 77.4299 66.1199 76.6199 67.0399 76.4299C67.4299 76.5099 67.7799 76.7099 68.0599 76.9799C68.4199 77.3399 68.6499 77.8499 68.6499 78.4099Z" stroke="black" stroke-width="0.25" stroke-miterlimit="10"/>
<path d="M75.3 78.41V82.93C75.3 83.91 74.61 84.72 73.69 84.91C73.56 84.94 73.42 84.95 73.28 84.95C72.17 84.95 71.26 84.05 71.26 82.93V78.41C71.26 77.29 72.17 76.39 73.28 76.39C73.42 76.39 73.56 76.4 73.69 76.43C74.08 76.51 74.43 76.71 74.71 76.98C75.08 77.34 75.3 77.85 75.3 78.41Z" fill="#F76D48" stroke="black" stroke-width="0.25" stroke-miterlimit="10"/>
<path d="M75.3 78.41V82.93C75.3 83.91 74.61 84.72 73.69 84.91C73.56 84.94 73.42 84.95 73.28 84.95C72.17 84.95 71.26 84.05 71.26 82.93V78.41C71.26 77.29 72.17 76.39 73.28 76.39C73.42 76.39 73.56 76.4 73.69 76.43C74.08 76.51 74.43 76.71 74.71 76.98C75.08 77.34 75.3 77.85 75.3 78.41Z" stroke="black" stroke-width="0.25" stroke-miterlimit="10"/>
<path d="M75.2998 78.4099V82.9299C75.2998 83.9099 74.6098 84.7199 73.6898 84.9099C72.7698 84.7199 72.0798 83.9099 72.0798 82.9299V78.4099C72.0798 77.4299 72.7698 76.6199 73.6898 76.4299C74.0798 76.5099 74.4298 76.7099 74.7098 76.9799C75.0798 77.3399 75.2998 77.8499 75.2998 78.4099Z" fill="black" stroke="black" stroke-width="0.25" stroke-miterlimit="10"/>
<path d="M75.2998 78.4099V82.9299C75.2998 83.9099 74.6098 84.7199 73.6898 84.9099C72.7698 84.7199 72.0798 83.9099 72.0798 82.9299V78.4099C72.0798 77.4299 72.7698 76.6199 73.6898 76.4299C74.0798 76.5099 74.4298 76.7099 74.7098 76.9799C75.0798 77.3399 75.2998 77.8499 75.2998 78.4099Z" stroke="black" stroke-width="0.25" stroke-miterlimit="10"/>
<path d="M81.9599 78.41V82.93C81.9599 83.91 81.2699 84.72 80.3499 84.91C80.2199 84.94 80.0799 84.95 79.9399 84.95C78.8299 84.95 77.9199 84.05 77.9199 82.93V78.41C77.9199 77.29 78.8299 76.39 79.9399 76.39C80.0799 76.39 80.2199 76.4 80.3499 76.43C80.7399 76.51 81.0899 76.71 81.3699 76.98C81.7399 77.34 81.9599 77.85 81.9599 78.41Z" fill="#F76D48" stroke="black" stroke-width="0.25" stroke-miterlimit="10"/>
<path d="M81.9599 78.41V82.93C81.9599 83.91 81.2699 84.72 80.3499 84.91C80.2199 84.94 80.0799 84.95 79.9399 84.95C78.8299 84.95 77.9199 84.05 77.9199 82.93V78.41C77.9199 77.29 78.8299 76.39 79.9399 76.39C80.0799 76.39 80.2199 76.4 80.3499 76.43C80.7399 76.51 81.0899 76.71 81.3699 76.98C81.7399 77.34 81.9599 77.85 81.9599 78.41Z" stroke="black" stroke-width="0.25" stroke-miterlimit="10"/>
<path d="M81.96 78.4099V82.9299C81.96 83.9099 81.27 84.7199 80.35 84.9099C79.43 84.7199 78.74 83.9099 78.74 82.9299V78.4099C78.74 77.4299 79.43 76.6199 80.35 76.4299C80.74 76.5099 81.09 76.7099 81.37 76.9799C81.74 77.3399 81.96 77.8499 81.96 78.4099Z" fill="black" stroke="black" stroke-width="0.25" stroke-miterlimit="10"/>
<path d="M81.96 78.4099V82.9299C81.96 83.9099 81.27 84.7199 80.35 84.9099C79.43 84.7199 78.74 83.9099 78.74 82.9299V78.4099C78.74 77.4299 79.43 76.6199 80.35 76.4299C80.74 76.5099 81.09 76.7099 81.37 76.9799C81.74 77.3399 81.96 77.8499 81.96 78.4099Z" stroke="black" stroke-width="0.25" stroke-miterlimit="10"/>
<path d="M88.6198 78.41V82.93C88.6198 83.91 87.9299 84.72 87.0099 84.91C86.8799 84.94 86.7399 84.95 86.5999 84.95C85.4899 84.95 84.5798 84.05 84.5798 82.93V78.41C84.5798 77.29 85.4899 76.39 86.5999 76.39C86.7399 76.39 86.8799 76.4 87.0099 76.43C87.3999 76.51 87.7498 76.71 88.0298 76.98C88.3998 77.34 88.6198 77.85 88.6198 78.41Z" fill="#F76D48" stroke="black" stroke-width="0.25" stroke-miterlimit="10"/>
<path d="M88.6198 78.41V82.93C88.6198 83.91 87.9299 84.72 87.0099 84.91C86.8799 84.94 86.7399 84.95 86.5999 84.95C85.4899 84.95 84.5798 84.05 84.5798 82.93V78.41C84.5798 77.29 85.4899 76.39 86.5999 76.39C86.7399 76.39 86.8799 76.4 87.0099 76.43C87.3999 76.51 87.7498 76.71 88.0298 76.98C88.3998 77.34 88.6198 77.85 88.6198 78.41Z" stroke="black" stroke-width="0.25" stroke-miterlimit="10"/>
<path d="M88.6199 78.4099V82.9299C88.6199 83.9099 87.9299 84.7199 87.0099 84.9099C86.0899 84.7199 85.3999 83.9099 85.3999 82.9299V78.4099C85.3999 77.4299 86.0899 76.6199 87.0099 76.4299C87.3999 76.5099 87.7499 76.7099 88.0299 76.9799C88.3999 77.3399 88.6199 77.8499 88.6199 78.4099Z" fill="black" stroke="black" stroke-width="0.25" stroke-miterlimit="10"/>
<path d="M88.6199 78.4099V82.9299C88.6199 83.9099 87.9299 84.7199 87.0099 84.9099C86.0899 84.7199 85.3999 83.9099 85.3999 82.9299V78.4099C85.3999 77.4299 86.0899 76.6199 87.0099 76.4299C87.3999 76.5099 87.7499 76.7099 88.0299 76.9799C88.3999 77.3399 88.6199 77.8499 88.6199 78.4099Z" stroke="black" stroke-width="0.25" stroke-miterlimit="10"/>
</svg>
