<svg width="140" height="170" viewBox="0 0 140 170" fill="none" xmlns="http://www.w3.org/2000/svg">
<path d="M136.33 70.43C136.22 86.05 130.76 100.38 121.64 111.65L74.8298 164.24C72.1598 167.24 67.4598 167.24 64.7898 164.24L17.9798 111.65C8.7698 100.27 3.28979 85.77 3.28979 69.97C3.28979 33.19 33.1598 3.36999 69.9598 3.44999C106.45 3.52999 136.58 33.94 136.33 70.43Z" fill="white"/>
<path d="M69.8099 169.64C66.9999 169.64 64.3099 168.43 62.4299 166.33L15.6199 113.74C5.59987 101.35 0.129883 85.85 0.129883 69.96C0.129883 51.33 7.39987 33.82 20.5899 20.64C33.7499 7.51003 51.2199 0.280029 69.7999 0.280029C69.8499 0.280029 69.8999 0.280029 69.9499 0.280029C88.4399 0.320029 105.91 7.69002 119.14 21.04C132.38 34.4 139.6 51.94 139.47 70.43C139.36 86.36 134.04 101.29 124.08 113.61L77.1699 166.31C75.3099 168.43 72.6299 169.64 69.8099 169.64ZM69.8099 6.60004C52.9099 6.60004 37.0199 13.17 25.0499 25.12C13.0499 37.1 6.43988 53.03 6.43988 69.97C6.43988 84.42 11.4099 98.51 20.4299 109.67L67.1399 162.14C67.8299 162.91 68.7699 163.34 69.8099 163.34C70.8399 163.34 71.7898 162.92 72.4698 162.15L119.28 109.56C128.24 98.48 133.08 84.91 133.17 70.42C133.28 53.61 126.71 37.66 114.67 25.51C102.63 13.36 86.7499 6.65003 69.9499 6.61003C69.9099 6.60003 69.8599 6.60004 69.8099 6.60004Z" fill="black"/>
<path d="M32.8099 51.6799L70.2599 32.4799C70.2599 30.7799 68.4399 29.6999 66.9499 30.5199L28.3799 51.6799H32.8099Z" fill="#FB6337" stroke="black" stroke-width="0.25" stroke-miterlimit="10"/>
<path d="M32.8099 51.6799L70.2599 32.4799C70.2599 30.7799 68.4399 29.6999 66.9499 30.5199L28.3799 51.6799H32.8099Z" stroke="black" stroke-width="0.25" stroke-miterlimit="10" stroke-linecap="round" stroke-linejoin="round"/>
<path d="M107.7 51.6799L70.25 32.4799C70.25 30.7799 72.07 29.6999 73.56 30.5199L112.13 51.6799H107.7Z" fill="#FB6337" stroke="black" stroke-width="0.25" stroke-miterlimit="10"/>
<path d="M107.7 51.6799L70.25 32.4799C70.25 30.7799 72.07 29.6999 73.56 30.5199L112.13 51.6799H107.7Z" stroke="black" stroke-width="0.25" stroke-miterlimit="10" stroke-linecap="round" stroke-linejoin="round"/>
<path d="M93.9098 58.9099H46.5898V106.74H93.9098V58.9099Z" fill="black" stroke="black" stroke-width="0.25" stroke-miterlimit="10"/>
<path d="M93.9098 58.9099H46.5898V106.74H93.9098V58.9099Z" stroke="black" stroke-width="0.25" stroke-miterlimit="10" stroke-linecap="round" stroke-linejoin="round"/>
<path d="M46.5998 58.9099H32.8098V106.74H46.5998V58.9099Z" fill="#F0A2BD" stroke="black" stroke-width="0.25" stroke-miterlimit="10"/>
<path d="M46.5998 58.9099H32.8098V106.74H46.5998V58.9099Z" stroke="black" stroke-width="0.25" stroke-miterlimit="10" stroke-linecap="round" stroke-linejoin="round"/>
<path d="M105.34 100.9C105.34 100.9 100.13 101.14 98.5398 100.9C98.8298 100.27 98.8798 98.7799 98.8398 97.2499H104.61C104.94 99.2299 105.34 100.9 105.34 100.9Z" fill="#FB6337" stroke="black" stroke-width="0.25" stroke-miterlimit="10"/>
<path d="M105.34 100.9C105.34 100.9 100.13 101.14 98.5398 100.9C98.8298 100.27 98.8798 98.7799 98.8398 97.2499H104.61C104.94 99.2299 105.34 100.9 105.34 100.9Z" stroke="black" stroke-width="0.25" stroke-miterlimit="10" stroke-linecap="round" stroke-linejoin="round"/>
<path d="M112.13 85.8999V102.39C111.36 102.39 110.78 102.4 110.75 102.43C111.32 99.0299 109.41 95.8899 107.7 93.8499C107.08 93.1099 106.48 92.5199 106.05 92.1099C105.98 92.0499 105.92 91.9899 105.86 91.9299C105.54 91.6399 105.35 91.4899 105.35 91.4899C105.35 91.4899 105.54 91.1699 105.86 90.6799C105.92 90.5899 105.98 90.4999 106.05 90.3999C106.46 89.8099 107.03 89.0499 107.7 88.3199C108.95 86.9899 110.55 85.7499 112.13 85.8999Z" fill="#FB6337" stroke="black" stroke-width="0.25" stroke-miterlimit="10"/>
<path d="M112.13 85.8999V102.39C111.36 102.39 110.78 102.4 110.75 102.43C111.32 99.0299 109.41 95.8899 107.7 93.8499C107.08 93.1099 106.48 92.5199 106.05 92.1099C105.98 92.0499 105.92 91.9899 105.86 91.9299C105.54 91.6399 105.35 91.4899 105.35 91.4899C105.35 91.4899 105.54 91.1699 105.86 90.6799C105.92 90.5899 105.98 90.4999 106.05 90.3999C106.46 89.8099 107.03 89.0499 107.7 88.3199C108.95 86.9899 110.55 85.7499 112.13 85.8999Z" stroke="black" stroke-width="0.25" stroke-miterlimit="10" stroke-linecap="round" stroke-linejoin="round"/>
<path d="M88.6798 92.2699C88.6798 92.2699 89.6198 96.7799 90.9098 97.1699C91.3398 97.2999 91.6798 97.5699 91.9298 97.8699C92.4298 98.4599 92.2798 99.3599 91.6198 99.7699L89.6098 101.04C89.0598 101.39 88.3398 101.27 87.9198 100.77C87.0198 99.6599 85.6098 97.6799 85.5398 96.0699C85.4398 93.6999 85.5398 92.8199 85.5398 92.8199L88.6798 92.2699Z" fill="#FB6337" stroke="black" stroke-width="0.25" stroke-miterlimit="10"/>
<path d="M88.6798 92.2699C88.6798 92.2699 89.6198 96.7799 90.9098 97.1699C91.3398 97.2999 91.6798 97.5699 91.9298 97.8699C92.4298 98.4599 92.2798 99.3599 91.6198 99.7699L89.6098 101.04C89.0598 101.39 88.3398 101.27 87.9198 100.77C87.0198 99.6599 85.6098 97.6799 85.5398 96.0699C85.4398 93.6999 85.5398 92.8199 85.5398 92.8199L88.6798 92.2699Z" stroke="black" stroke-width="0.25" stroke-miterlimit="10" stroke-linecap="round" stroke-linejoin="round"/>
<path d="M83.1698 88.49C83.1698 88.49 78.0298 94.49 76.5398 100.67C76.3498 101.47 76.9598 102.23 77.7798 102.22C79.0898 102.2 80.9298 102.3 82.0898 102.37C82.6998 102.41 83.2498 102 83.3898 101.41C83.7798 99.81 84.7598 96.6699 86.7898 94.3999C89.6198 91.2299 90.1598 90.5799 90.1598 90.5799L89.5198 85.08L83.1698 88.49Z" fill="#FB6337" stroke="black" stroke-width="0.25" stroke-miterlimit="10"/>
<path d="M83.1698 88.49C83.1698 88.49 78.0298 94.49 76.5398 100.67C76.3498 101.47 76.9598 102.23 77.7798 102.22C79.0898 102.2 80.9298 102.3 82.0898 102.37C82.6998 102.41 83.2498 102 83.3898 101.41C83.7798 99.81 84.7598 96.6699 86.7898 94.3999C89.6198 91.2299 90.1598 90.5799 90.1598 90.5799L89.5198 85.08L83.1698 88.49Z" stroke="black" stroke-width="0.25" stroke-miterlimit="10" stroke-linecap="round" stroke-linejoin="round"/>
<path d="M112.13 73.1599V88.3399C110.9 89.0899 109.21 89.8699 107.7 90.5199C107.11 90.7799 106.54 91.0099 106.05 91.2099C105.99 91.2399 105.92 91.2599 105.86 91.2899C105.68 91.3599 105.51 91.4299 105.35 91.4999C105.35 91.4999 105.54 91.1799 105.86 90.6899C105.83 89.3799 105.29 88.1899 104.42 87.3199C103.73 86.6299 102.83 86.1399 101.82 85.9599C99.5298 86.3699 97.7897 88.3799 97.7897 90.7899V92.6299C97.2197 92.6699 96.6897 92.7099 96.2297 92.7599C96.1197 92.7699 96.0197 92.7799 95.9197 92.7999C95.3097 92.8699 94.6197 92.7699 93.9197 92.5399C92.5997 92.1299 91.2197 91.3299 90.1697 90.5599C89.5497 90.1099 89.0597 89.6799 88.7397 89.3299C87.5897 88.0799 86.1497 88.8599 83.1797 88.4699C80.9797 88.1799 78.9398 82.6999 78.0298 79.8599C77.7098 78.8599 77.5298 78.1899 77.5298 78.1899L81.5698 72.3699L84.3298 68.3999V68.3899L86.0798 65.8699C88.3598 64.7999 91.0697 64.3999 93.9297 64.5199C98.5397 64.6899 103.54 66.1799 107.72 68.1899C107.82 68.2399 107.92 68.2799 108.02 68.3299C109.94 69.3099 111.25 71.0799 112.13 73.1599Z" fill="#FB6337" stroke="black" stroke-width="0.25" stroke-miterlimit="10"/>
<path d="M112.13 73.1599V88.3399C110.9 89.0899 109.21 89.8699 107.7 90.5199C107.11 90.7799 106.54 91.0099 106.05 91.2099C105.99 91.2399 105.92 91.2599 105.86 91.2899C105.68 91.3599 105.51 91.4299 105.35 91.4999C105.35 91.4999 105.54 91.1799 105.86 90.6899C105.83 89.3799 105.29 88.1899 104.42 87.3199C103.73 86.6299 102.83 86.1399 101.82 85.9599C99.5298 86.3699 97.7897 88.3799 97.7897 90.7899V92.6299C97.2197 92.6699 96.6897 92.7099 96.2297 92.7599C96.1197 92.7699 96.0197 92.7799 95.9197 92.7999C95.3097 92.8699 94.6197 92.7699 93.9197 92.5399C92.5997 92.1299 91.2197 91.3299 90.1697 90.5599C89.5497 90.1099 89.0597 89.6799 88.7397 89.3299C87.5897 88.0799 86.1497 88.8599 83.1797 88.4699C80.9797 88.1799 78.9398 82.6999 78.0298 79.8599C77.7098 78.8599 77.5298 78.1899 77.5298 78.1899L81.5698 72.3699L84.3298 68.3999V68.3899L86.0798 65.8699C88.3598 64.7999 91.0697 64.3999 93.9297 64.5199C98.5397 64.6899 103.54 66.1799 107.72 68.1899C107.82 68.2399 107.92 68.2799 108.02 68.3299C109.94 69.3099 111.25 71.0799 112.13 73.1599Z" stroke="black" stroke-width="0.25" stroke-miterlimit="10" stroke-linecap="round" stroke-linejoin="round"/>
<path d="M60.96 77.7899C60.96 77.7899 50.06 88.8599 57.85 100.28C58.21 100.81 58.89 101.05 59.48 100.8C59.86 100.64 60.14 100.31 59.93 99.6299C59.44 98.0899 54.88 87.6899 63.47 79.7399C63.73 78.7599 60.96 77.7899 60.96 77.7899Z" fill="#FB6337" stroke="black" stroke-width="0.25" stroke-miterlimit="10"/>
<path d="M60.96 77.7899C60.96 77.7899 50.06 88.8599 57.85 100.28C58.21 100.81 58.89 101.05 59.48 100.8C59.86 100.64 60.14 100.31 59.93 99.6299C59.44 98.0899 54.88 87.6899 63.47 79.7399C63.73 78.7599 60.96 77.7899 60.96 77.7899Z" stroke="black" stroke-width="0.25" stroke-miterlimit="10" stroke-linecap="round" stroke-linejoin="round"/>
<path d="M74.3899 70.1899C74.3899 70.1899 75.5499 70.1399 75.2899 68.8799C75.0399 67.6199 74.8699 64.5999 76.2099 64.5199C77.5499 64.4399 77.7998 65.1099 78.9698 64.8599C80.1398 64.6099 81.7098 64.3399 83.2198 64.5799C84.6698 64.7899 84.2499 70.1899 84.2499 70.1899L80.7299 73.0499L74.3899 70.1899Z" fill="#FB6337" stroke="black" stroke-width="0.25" stroke-miterlimit="10"/>
<path d="M74.3899 70.1899C74.3899 70.1899 75.5499 70.1399 75.2899 68.8799C75.0399 67.6199 74.8699 64.5999 76.2099 64.5199C77.5499 64.4399 77.7998 65.1099 78.9698 64.8599C80.1398 64.6099 81.7098 64.3399 83.2198 64.5799C84.6698 64.7899 84.2499 70.1899 84.2499 70.1899L80.7299 73.0499L74.3899 70.1899Z" stroke="black" stroke-width="0.25" stroke-miterlimit="10" stroke-linecap="round" stroke-linejoin="round"/>
<path d="M66.3799 81.0999C66.3799 81.0999 67.0499 81.9099 68.0299 80.9599C69.0099 80.0099 69.7099 79.5399 70.6899 79.5699C71.6699 79.5999 72.2999 79.4599 72.5899 79.7999C72.8699 80.1399 73.5199 80.2699 73.5199 80.2699L75.2198 78.6599L73.0699 75.0199H69.0799L66.3899 78.0299L66.1399 80.0899L66.3799 81.0999Z" fill="#FB6337" stroke="black" stroke-width="0.25" stroke-miterlimit="10"/>
<path d="M66.3799 81.0999C66.3799 81.0999 67.0499 81.9099 68.0299 80.9599C69.0099 80.0099 69.7099 79.5399 70.6899 79.5699C71.6699 79.5999 72.2999 79.4599 72.5899 79.7999C72.8699 80.1399 73.5199 80.2699 73.5199 80.2699L75.2198 78.6599L73.0699 75.0199H69.0799L66.3899 78.0299L66.1399 80.0899L66.3799 81.0999Z" stroke="black" stroke-width="0.25" stroke-miterlimit="10" stroke-linecap="round" stroke-linejoin="round"/>
<path d="M73.5098 70.8799V80.7199C73.5098 81.2999 74.0798 81.7099 74.6298 81.5299C75.9198 81.1099 77.9998 80.2699 78.9598 78.9399C80.4198 76.9299 81.4197 77.9299 82.5397 75.6899C82.1997 76.0299 86.6197 74.0999 86.7397 72.0099C86.8497 69.8599 86.7998 66.6799 86.0598 65.8899C85.3198 65.0999 84.2497 64.2999 83.2297 64.5899C82.2097 64.8699 81.4697 65.7799 81.2997 67.3099C81.1297 68.8399 80.2198 70.8799 77.9598 70.7099C75.6898 70.5399 75.1298 70.1999 74.3898 70.1999C73.6498 70.1999 73.5098 70.8799 73.5098 70.8799Z" fill="#FB6337" stroke="black" stroke-width="0.25" stroke-miterlimit="10"/>
<path d="M73.5098 70.8799V80.7199C73.5098 81.2999 74.0798 81.7099 74.6298 81.5299C75.9198 81.1099 77.9998 80.2699 78.9598 78.9399C80.4198 76.9299 81.4197 77.9299 82.5397 75.6899C82.1997 76.0299 86.6197 74.0999 86.7397 72.0099C86.8497 69.8599 86.7998 66.6799 86.0598 65.8899C85.3198 65.0999 84.2497 64.2999 83.2297 64.5899C82.2097 64.8699 81.4697 65.7799 81.2997 67.3099C81.1297 68.8399 80.2198 70.8799 77.9598 70.7099C75.6898 70.5399 75.1298 70.1999 74.3898 70.1999C73.6498 70.1999 73.5098 70.8799 73.5098 70.8799Z" stroke="black" stroke-width="0.25" stroke-miterlimit="10" stroke-linecap="round" stroke-linejoin="round"/>
<path d="M63.4699 79.7499C63.0799 80.9699 60.6099 87.4599 51.7299 88.3199C51.1599 88.3799 51.1899 89.2199 51.7599 89.2299C51.7699 89.2299 51.7799 89.2299 51.7899 89.2299C52.7799 89.2299 61.55 90.4699 66.59 80.7099C66.75 80.7899 66.5199 78.3499 63.7399 79.4599C63.6099 79.5199 63.5099 79.6199 63.4699 79.7499Z" fill="#FB6337" stroke="black" stroke-width="0.25" stroke-miterlimit="10"/>
<path d="M63.4699 79.7499C63.0799 80.9699 60.6099 87.4599 51.7299 88.3199C51.1599 88.3799 51.1899 89.2199 51.7599 89.2299C51.7699 89.2299 51.7799 89.2299 51.7899 89.2299C52.7799 89.2299 61.55 90.4699 66.59 80.7099C66.75 80.7899 66.5199 78.3499 63.7399 79.4599C63.6099 79.5199 63.5099 79.6199 63.4699 79.7499Z" stroke="black" stroke-width="0.25" stroke-miterlimit="10" stroke-linecap="round" stroke-linejoin="round"/>
<path d="M61.45 76.3199C60.24 77.7899 61.44 80.0399 63.33 79.7799C63.38 79.7699 63.4199 79.7699 63.4699 79.7599C65.7499 79.3199 66.63 79.8099 66.63 79.8099C66.63 79.8099 67.5 79.7899 68.43 78.2799C69.35 76.7699 72.58 76.3499 73.52 76.8599C74.46 77.3599 76.14 70.0699 76.14 70.0699L76.2199 64.5399C76.2199 64.5399 69.8499 65.7999 65.1599 71.6599C65.2199 71.7099 62.84 74.6199 61.45 76.3199Z" fill="#FB6337" stroke="black" stroke-width="0.25" stroke-miterlimit="10"/>
<path d="M61.45 76.3199C60.24 77.7899 61.44 80.0399 63.33 79.7799C63.38 79.7699 63.4199 79.7699 63.4699 79.7599C65.7499 79.3199 66.63 79.8099 66.63 79.8099C66.63 79.8099 67.5 79.7899 68.43 78.2799C69.35 76.7699 72.58 76.3499 73.52 76.8599C74.46 77.3599 76.14 70.0699 76.14 70.0699L76.2199 64.5399C76.2199 64.5399 69.8499 65.7999 65.1599 71.6599C65.2199 71.7099 62.84 74.6199 61.45 76.3199Z" stroke="black" stroke-width="0.25" stroke-miterlimit="10" stroke-linecap="round" stroke-linejoin="round"/>
<path d="M84.08 106.74H75.02C75.02 104.24 77.05 102.21 79.55 102.21C82.05 102.21 84.08 104.24 84.08 106.74Z" fill="#FB6337" stroke="black" stroke-width="0.25" stroke-miterlimit="10"/>
<path d="M84.08 106.74H75.02C75.02 104.24 77.05 102.21 79.55 102.21C82.05 102.21 84.08 104.24 84.08 106.74Z" stroke="black" stroke-width="0.25" stroke-miterlimit="10" stroke-linecap="round" stroke-linejoin="round"/>
<path d="M112.13 102.57V106.74H109.36C109.37 104.87 110.51 103.26 112.13 102.57Z" fill="#FB6337" stroke="black" stroke-width="0.25" stroke-miterlimit="10"/>
<path d="M112.13 102.57V106.74H109.36C109.37 104.87 110.51 103.26 112.13 102.57Z" stroke="black" stroke-width="0.25" stroke-miterlimit="10" stroke-linecap="round" stroke-linejoin="round"/>
<path d="M106.47 105.54H97.4099C97.4099 103.04 99.4399 101.01 101.94 101.01C104.45 101.01 106.47 103.04 106.47 105.54Z" fill="#FB6337" stroke="black" stroke-width="0.25" stroke-miterlimit="10"/>
<path d="M106.47 105.54H97.4099C97.4099 103.04 99.4399 101.01 101.94 101.01C104.45 101.01 106.47 103.04 106.47 105.54Z" stroke="black" stroke-width="0.25" stroke-miterlimit="10" stroke-linecap="round" stroke-linejoin="round"/>
<path d="M97.4598 101.58L89.6998 106.26C88.4098 104.12 89.0998 101.34 91.2398 100.04C93.3798 98.7499 96.1598 99.4399 97.4598 101.58Z" fill="#FB6337" stroke="black" stroke-width="0.25" stroke-miterlimit="10"/>
<path d="M97.4598 101.58L89.6998 106.26C88.4098 104.12 89.0998 101.34 91.2398 100.04C93.3798 98.7499 96.1598 99.4399 97.4598 101.58Z" stroke="black" stroke-width="0.25" stroke-miterlimit="10" stroke-linecap="round" stroke-linejoin="round"/>
<path d="M70.2298 72.9199C70.2298 73.5999 69.6798 74.1399 69.0098 74.1399C68.3298 74.1399 67.7898 73.5899 67.7898 72.9199H70.2298Z" fill="black" stroke="black" stroke-width="0.25" stroke-miterlimit="10"/>
<path d="M70.2298 72.9199C70.2298 73.5999 69.6798 74.1399 69.0098 74.1399C68.3298 74.1399 67.7898 73.5899 67.7898 72.9199H70.2298Z" stroke="black" stroke-width="0.25" stroke-miterlimit="10" stroke-linecap="round" stroke-linejoin="round"/>
<path d="M32.8099 106.74H28.3799V48.2599C28.3799 47.0399 29.3699 46.0399 30.5999 46.0399C31.8199 46.0399 32.8199 47.0299 32.8199 48.2599V106.74H32.8099Z" fill="#FB6337" stroke="black" stroke-width="0.25" stroke-miterlimit="10"/>
<path d="M32.8099 106.74H28.3799V48.2599C28.3799 47.0399 29.3699 46.0399 30.5999 46.0399C31.8199 46.0399 32.8199 47.0299 32.8199 48.2599V106.74H32.8099Z" stroke="black" stroke-width="0.25" stroke-miterlimit="10" stroke-linecap="round" stroke-linejoin="round"/>
<path d="M46.4598 84.3899H32.9398C32.0398 84.3899 31.2998 83.6599 31.2998 82.7499C31.2998 81.8499 32.0298 81.1099 32.9398 81.1099H46.4598C47.3598 81.1099 48.0998 81.8399 48.0998 82.7499C48.0998 83.6499 47.3698 84.3899 46.4598 84.3899Z" fill="#F0EADB" stroke="black" stroke-width="0.25" stroke-miterlimit="10"/>
<path d="M46.4598 84.3899H32.9398C32.0398 84.3899 31.2998 83.6599 31.2998 82.7499C31.2998 81.8499 32.0298 81.1099 32.9398 81.1099H46.4598C47.3598 81.1099 48.0998 81.8399 48.0998 82.7499C48.0998 83.6499 47.3698 84.3899 46.4598 84.3899Z" stroke="black" stroke-width="0.25" stroke-miterlimit="10" stroke-linecap="round" stroke-linejoin="round"/>
<path d="M44.28 71.9599V78.4099H34.46V71.9599C34.46 69.2499 36.66 67.0499 39.37 67.0499C39.67 67.0499 39.96 67.0799 40.25 67.1299C41.25 67.3099 42.15 67.7999 42.85 68.4899C43.73 69.3799 44.28 70.5999 44.28 71.9599Z" fill="#FB6337" stroke="black" stroke-width="0.25" stroke-miterlimit="10"/>
<path d="M44.28 71.9599V78.4099H34.46V71.9599C34.46 69.2499 36.66 67.0499 39.37 67.0499C39.67 67.0499 39.96 67.0799 40.25 67.1299C41.25 67.3099 42.15 67.7999 42.85 68.4899C43.73 69.3799 44.28 70.5999 44.28 71.9599Z" stroke="black" stroke-width="0.25" stroke-miterlimit="10" stroke-linecap="round" stroke-linejoin="round"/>
<path d="M44.28 71.9599V78.4099H36.21V71.9599C36.21 69.5499 37.95 67.5399 40.24 67.1299C41.24 67.3099 42.14 67.7999 42.84 68.4899C43.73 69.3799 44.28 70.5999 44.28 71.9599Z" fill="black" stroke="black" stroke-width="0.25" stroke-miterlimit="10"/>
<path d="M44.28 71.9599V78.4099H36.21V71.9599C36.21 69.5499 37.95 67.5399 40.24 67.1299C41.24 67.3099 42.14 67.7999 42.84 68.4899C43.73 69.3799 44.28 70.5999 44.28 71.9599Z" stroke="black" stroke-width="0.25" stroke-miterlimit="10" stroke-linecap="round" stroke-linejoin="round"/>
<path d="M107.7 58.9099H93.9099V106.74H107.7V58.9099Z" fill="#F0A2BD" stroke="black" stroke-width="0.25" stroke-miterlimit="10"/>
<path d="M107.7 58.9099H93.9099V106.74H107.7V58.9099Z" stroke="black" stroke-width="0.25" stroke-miterlimit="10" stroke-linecap="round" stroke-linejoin="round"/>
<path d="M112.13 48.4799V106.74H107.7V48.4799C107.7 47.1299 108.69 46.0399 109.92 46.0399C111.14 46.0399 112.13 47.1299 112.13 48.4799Z" fill="#FB6337" stroke="black" stroke-width="0.25" stroke-miterlimit="10"/>
<path d="M112.13 48.4799V106.74H107.7V48.4799C107.7 47.1299 108.69 46.0399 109.92 46.0399C111.14 46.0399 112.13 47.1299 112.13 48.4799Z" stroke="black" stroke-width="0.25" stroke-miterlimit="10" stroke-linecap="round" stroke-linejoin="round"/>
<path d="M93.9098 44.61L70.2498 32.48L46.5898 44.61L32.8098 51.68V58.91H46.5898H93.9098H107.7V51.68L93.9098 44.61Z" fill="#F0A2BD" stroke="black" stroke-width="0.25" stroke-miterlimit="10"/>
<path d="M93.9098 44.61L70.2498 32.48L46.5898 44.61L32.8098 51.68V58.91H46.5898H93.9098H107.7V51.68L93.9098 44.61Z" stroke="black" stroke-width="0.25" stroke-miterlimit="10" stroke-linecap="round" stroke-linejoin="round"/>
<path d="M105.86 90.7999V97.2499H96.0398V90.7999C96.0398 88.0899 98.2398 85.8899 100.95 85.8899C101.25 85.8899 101.54 85.9199 101.83 85.9699C102.83 86.1499 103.73 86.6399 104.43 87.3299C105.31 88.2099 105.86 89.4399 105.86 90.7999Z" fill="#FB6337" stroke="black" stroke-width="0.25" stroke-miterlimit="10"/>
<path d="M105.86 90.7999V97.2499H96.0398V90.7999C96.0398 88.0899 98.2398 85.8899 100.95 85.8899C101.25 85.8899 101.54 85.9199 101.83 85.9699C102.83 86.1499 103.73 86.6399 104.43 87.3299C105.31 88.2099 105.86 89.4399 105.86 90.7999Z" stroke="black" stroke-width="0.25" stroke-miterlimit="10" stroke-linecap="round" stroke-linejoin="round"/>
<path d="M104.61 97.2499H98.8398C98.7798 95.0799 98.5398 92.8299 98.5398 92.8299C98.5398 92.8299 98.7298 92.7199 99.0498 92.5499C99.1998 92.5399 99.3498 92.5299 99.4898 92.5199C100.67 92.4399 101.85 92.3599 102.76 92.2499C103.44 92.1699 103.97 92.07 104.25 91.95C104.05 93.21 104.3 95.3699 104.61 97.2499Z" fill="#FB6337" stroke="black" stroke-width="0.25" stroke-miterlimit="10"/>
<path d="M104.61 97.2499H98.8398C98.7798 95.0799 98.5398 92.8299 98.5398 92.8299C98.5398 92.8299 98.7298 92.7199 99.0498 92.5499C99.1998 92.5399 99.3498 92.5299 99.4898 92.5199C100.67 92.4399 101.85 92.3599 102.76 92.2499C103.44 92.1699 103.97 92.07 104.25 91.95C104.05 93.21 104.3 95.3699 104.61 97.2499Z" stroke="black" stroke-width="0.25" stroke-miterlimit="10" stroke-linecap="round" stroke-linejoin="round"/>
<path d="M99.0498 92.5499C98.7398 92.7199 98.5398 92.8299 98.5398 92.8299C98.5398 92.8299 98.7798 95.0799 98.8398 97.2499H97.7898V92.64C98.1998 92.61 98.6198 92.5799 99.0498 92.5499Z" fill="black" stroke="black" stroke-width="0.25" stroke-miterlimit="10"/>
<path d="M99.0498 92.5499C98.7398 92.7199 98.5398 92.8299 98.5398 92.8299C98.5398 92.8299 98.7798 95.0799 98.8398 97.2499H97.7898V92.64C98.1998 92.61 98.6198 92.5799 99.0498 92.5499Z" stroke="black" stroke-width="0.25" stroke-miterlimit="10" stroke-linecap="round" stroke-linejoin="round"/>
<path d="M104.42 87.32C103.73 86.63 102.83 86.14 101.82 85.96C99.5298 86.37 97.7898 88.38 97.7898 90.79V92.63C98.1998 92.6 98.6198 92.57 99.0498 92.54C99.1998 92.53 99.3498 92.52 99.4898 92.51C100.67 92.43 101.85 92.3499 102.76 92.2399C103.44 92.1599 103.97 92.06 104.25 91.94C104.42 91.86 104.81 91.6999 105.33 91.4899C105.33 91.4899 105.52 91.1699 105.84 90.6799C105.83 89.3799 105.29 88.19 104.42 87.32Z" fill="#FB6337" stroke="black" stroke-width="0.25" stroke-miterlimit="10"/>
<path d="M104.42 87.32C103.73 86.63 102.83 86.14 101.82 85.96C99.5298 86.37 97.7898 88.38 97.7898 90.79V92.63C98.1998 92.6 98.6198 92.57 99.0498 92.54C99.1998 92.53 99.3498 92.52 99.4898 92.51C100.67 92.43 101.85 92.3499 102.76 92.2399C103.44 92.1599 103.97 92.06 104.25 91.94C104.42 91.86 104.81 91.6999 105.33 91.4899C105.33 91.4899 105.52 91.1699 105.84 90.6799C105.83 89.3799 105.29 88.19 104.42 87.32Z" stroke="black" stroke-width="0.25" stroke-miterlimit="10" stroke-linecap="round" stroke-linejoin="round"/>
<path d="M105.86 90.7999V97.2499H104.62C104.31 95.3699 104.06 93.2099 104.27 91.9399C104.44 91.8599 104.83 91.7099 105.35 91.4899C105.35 91.4899 105.54 91.1699 105.86 90.6799C105.86 90.7299 105.86 90.7599 105.86 90.7999Z" fill="black" stroke="black" stroke-width="0.25" stroke-miterlimit="10"/>
<path d="M105.86 90.7999V97.2499H104.62C104.31 95.3699 104.06 93.2099 104.27 91.9399C104.44 91.8599 104.83 91.7099 105.35 91.4899C105.35 91.4899 105.54 91.1699 105.86 90.6799C105.86 90.7299 105.86 90.7599 105.86 90.7999Z" stroke="black" stroke-width="0.25" stroke-miterlimit="10" stroke-linecap="round" stroke-linejoin="round"/>
<path d="M107.37 59.32H32.9999C32.2499 59.32 31.6299 58.7 31.6299 57.95C31.6299 57.2 32.2499 56.58 32.9999 56.58H107.37C108.12 56.58 108.74 57.2 108.74 57.95C108.74 58.71 108.12 59.32 107.37 59.32Z" fill="#F0EADB" stroke="black" stroke-width="0.25" stroke-miterlimit="10"/>
<path d="M107.37 59.32H32.9999C32.2499 59.32 31.6299 58.7 31.6299 57.95C31.6299 57.2 32.2499 56.58 32.9999 56.58H107.37C108.12 56.58 108.74 57.2 108.74 57.95C108.74 58.71 108.12 59.32 107.37 59.32Z" stroke="black" stroke-width="0.25" stroke-miterlimit="10" stroke-linecap="round" stroke-linejoin="round"/>
<path d="M75.1699 45.2299V51.6799H65.3499V45.2299C65.3499 42.5199 67.5499 40.3199 70.2599 40.3199C70.5599 40.3199 70.8499 40.3499 71.1399 40.3999C72.1399 40.5799 73.0399 41.0699 73.7399 41.7599C74.6199 42.6499 75.1699 43.8699 75.1699 45.2299Z" fill="#FB6337" stroke="black" stroke-width="0.25" stroke-miterlimit="10"/>
<path d="M75.1699 45.2299V51.6799H65.3499V45.2299C65.3499 42.5199 67.5499 40.3199 70.2599 40.3199C70.5599 40.3199 70.8499 40.3499 71.1399 40.3999C72.1399 40.5799 73.0399 41.0699 73.7399 41.7599C74.6199 42.6499 75.1699 43.8699 75.1699 45.2299Z" stroke="black" stroke-width="0.25" stroke-miterlimit="10" stroke-linecap="round" stroke-linejoin="round"/>
<path d="M75.1699 45.2299V51.6799H67.0999V45.2299C67.0999 42.8199 68.8399 40.8099 71.1299 40.3999C72.1299 40.5799 73.0299 41.0699 73.7299 41.7599C74.6199 42.6499 75.1699 43.8699 75.1699 45.2299Z" fill="black" stroke="black" stroke-width="0.25" stroke-miterlimit="10"/>
<path d="M75.1699 45.2299V51.6799H67.0999V45.2299C67.0999 42.8199 68.8399 40.8099 71.1299 40.3999C72.1299 40.5799 73.0299 41.0699 73.7299 41.7599C74.6199 42.6499 75.1699 43.8699 75.1699 45.2299Z" stroke="black" stroke-width="0.25" stroke-miterlimit="10" stroke-linecap="round" stroke-linejoin="round"/>
<path d="M107.71 84.4599H94.1898C93.2898 84.4599 92.5498 83.7299 92.5498 82.8199C92.5498 81.9199 93.2798 81.1799 94.1898 81.1799H107.71C108.61 81.1799 109.35 81.9099 109.35 82.8199C109.35 83.7299 108.61 84.4599 107.71 84.4599Z" fill="#F0EADB" stroke="black" stroke-width="0.25" stroke-miterlimit="10"/>
<path d="M107.71 84.4599H94.1898C93.2898 84.4599 92.5498 83.7299 92.5498 82.8199C92.5498 81.9199 93.2798 81.1799 94.1898 81.1799H107.71C108.61 81.1799 109.35 81.9099 109.35 82.8199C109.35 83.7299 108.61 84.4599 107.71 84.4599Z" stroke="black" stroke-width="0.25" stroke-miterlimit="10" stroke-linecap="round" stroke-linejoin="round"/>
</svg>
