<svg width="140" height="170" viewBox="0 0 140 170" fill="none" xmlns="http://www.w3.org/2000/svg">
<path d="M136.75 70.43C136.64 86.05 131.18 100.38 122.06 111.65L75.2499 164.24C72.5799 167.24 67.88 167.24 65.21 164.24L18.4 111.65C9.18996 100.27 3.70996 85.77 3.70996 69.97C3.70996 33.19 33.5799 3.36999 70.3799 3.44999C106.87 3.52999 137 33.94 136.75 70.43Z" fill="white"/>
<path d="M70.23 169.64C67.42 169.64 64.73 168.43 62.85 166.33L16.04 113.74C6.02004 101.35 0.550049 85.85 0.550049 69.96C0.550049 51.33 7.82007 33.82 21.0101 20.64C34.1701 7.51003 51.64 0.280029 70.22 0.280029C70.27 0.280029 70.3201 0.280029 70.3701 0.280029C88.8601 0.320029 106.33 7.69002 119.56 21.04C132.8 34.4 140.02 51.94 139.89 70.43C139.78 86.36 134.46 101.29 124.5 113.61L77.5901 166.31C75.7301 168.43 73.05 169.64 70.23 169.64ZM70.23 6.60004C53.33 6.60004 37.44 13.17 25.47 25.12C13.47 37.1 6.86005 53.03 6.86005 69.97C6.86005 84.42 11.83 98.51 20.85 109.67L67.5601 162.14C68.2501 162.91 69.19 163.34 70.23 163.34C71.26 163.34 72.2101 162.92 72.8901 162.15L119.7 109.56C128.66 98.48 133.5 84.91 133.59 70.42C133.7 53.61 127.13 37.66 115.09 25.51C103.05 13.36 87.1701 6.65003 70.3701 6.61003C70.3301 6.60003 70.28 6.60004 70.23 6.60004Z" fill="black"/>
<path d="M96.2501 55.6H42.8601C44.2101 53.45 45.8201 51.48 47.6301 49.72C47.9701 49.39 48.3201 49.06 48.6801 48.74L48.6901 48.73C49.7101 47.83 50.7901 46.99 51.9201 46.23C52.2701 45.99 52.6201 45.76 52.9801 45.54C54.0201 44.9 55.1001 44.31 56.2101 43.79C56.5601 43.63 56.9101 43.47 57.2701 43.32C58.3201 42.88 59.4001 42.49 60.5001 42.16C60.8501 42.05 61.2101 41.96 61.5601 41.86C62.6201 41.58 63.6901 41.36 64.7901 41.2C65.1401 41.15 65.5001 41.1 65.8501 41.06C66.9101 40.94 67.9901 40.86 69.0801 40.85C69.2301 40.85 69.3901 40.85 69.5401 40.85C69.7401 40.85 69.9401 40.85 70.1401 40.86C71.2301 40.88 72.3101 40.96 73.3701 41.09C73.7301 41.13 74.0801 41.18 74.4301 41.24C75.5301 41.41 76.6001 41.64 77.6601 41.92C78.0201 42.02 78.3701 42.12 78.7201 42.23C79.8201 42.56 80.9001 42.96 81.9501 43.41C82.3101 43.56 82.6601 43.72 83.0101 43.89C84.1201 44.42 85.2001 45.01 86.2401 45.66C86.6001 45.89 86.9501 46.12 87.3001 46.36C88.4301 47.13 89.5102 47.98 90.5302 48.89C90.8902 49.21 91.2501 49.54 91.5901 49.89C92.7601 51.03 93.8401 52.27 94.8201 53.59C95.1901 54.08 95.5401 54.59 95.8801 55.11C96.0201 55.25 96.1401 55.43 96.2501 55.6Z" fill="#FCA3BE" stroke="black" stroke-width="0.25" stroke-miterlimit="10"/>
<path d="M96.2501 55.6H42.8601C44.2101 53.45 45.8201 51.48 47.6301 49.72C47.9701 49.39 48.3201 49.06 48.6801 48.74L48.6901 48.73C49.7101 47.83 50.7901 46.99 51.9201 46.23C52.2701 45.99 52.6201 45.76 52.9801 45.54C54.0201 44.9 55.1001 44.31 56.2101 43.79C56.5601 43.63 56.9101 43.47 57.2701 43.32C58.3201 42.88 59.4001 42.49 60.5001 42.16C60.8501 42.05 61.2101 41.96 61.5601 41.86C62.6201 41.58 63.6901 41.36 64.7901 41.2C65.1401 41.15 65.5001 41.1 65.8501 41.06C66.9101 40.94 67.9901 40.86 69.0801 40.85C69.2301 40.85 69.3901 40.85 69.5401 40.85C69.7401 40.85 69.9401 40.85 70.1401 40.86C71.2301 40.88 72.3101 40.96 73.3701 41.09C73.7301 41.13 74.0801 41.18 74.4301 41.24C75.5301 41.41 76.6001 41.64 77.6601 41.92C78.0201 42.02 78.3701 42.12 78.7201 42.23C79.8201 42.56 80.9001 42.96 81.9501 43.41C82.3101 43.56 82.6601 43.72 83.0101 43.89C84.1201 44.42 85.2001 45.01 86.2401 45.66C86.6001 45.89 86.9501 46.12 87.3001 46.36C88.4301 47.13 89.5102 47.98 90.5302 48.89C90.8902 49.21 91.2501 49.54 91.5901 49.89C92.7601 51.03 93.8401 52.27 94.8201 53.59C95.1901 54.08 95.5401 54.59 95.8801 55.11C96.0201 55.25 96.1401 55.43 96.2501 55.6Z" stroke="black" stroke-width="0.25" stroke-miterlimit="10" stroke-linecap="round" stroke-linejoin="round"/>
<path d="M94.47 54.7899H44.76C45.61 53.4999 46.57 52.2699 47.63 51.1299C47.97 50.7599 48.33 50.3999 48.69 50.0399C49.69 49.0599 50.77 48.1599 51.92 47.3299C52.27 47.0799 52.62 46.8299 52.98 46.5999C54.01 45.9199 55.09 45.2999 56.21 44.7499C56.56 44.5799 56.91 44.4099 57.27 44.2499C58.32 43.7899 59.39 43.3799 60.5 43.0399C60.85 42.9299 61.21 42.8299 61.56 42.7299C62.61 42.4399 63.69 42.2099 64.79 42.0399C65.14 41.9899 65.5 41.9299 65.85 41.8899C66.91 41.7599 67.99 41.6899 69.08 41.6699C69.25 41.6699 69.43 41.6699 69.6 41.6699C69.78 41.6699 69.96 41.6699 70.14 41.6799C71.23 41.6999 72.31 41.7699 73.37 41.8999C73.73 41.9399 74.08 41.9899 74.43 42.0499C75.53 42.2199 76.61 42.4599 77.66 42.7399C78.02 42.8399 78.37 42.9399 78.72 43.0499C79.83 43.3999 80.9 43.7999 81.95 44.2699C82.31 44.4299 82.66 44.5899 83.01 44.7699C84.13 45.3199 85.21 45.9399 86.24 46.6199C86.6 46.8599 86.95 47.0999 87.3 47.3599C88.44 48.1899 89.53 49.0999 90.53 50.0799C90.89 50.4299 91.25 50.7999 91.59 51.1699C92.67 52.2799 93.62 53.4999 94.47 54.7899Z" fill="black" stroke="black" stroke-width="0.25" stroke-miterlimit="10"/>
<path d="M94.47 54.7899H44.76C45.61 53.4999 46.57 52.2699 47.63 51.1299C47.97 50.7599 48.33 50.3999 48.69 50.0399C49.69 49.0599 50.77 48.1599 51.92 47.3299C52.27 47.0799 52.62 46.8299 52.98 46.5999C54.01 45.9199 55.09 45.2999 56.21 44.7499C56.56 44.5799 56.91 44.4099 57.27 44.2499C58.32 43.7899 59.39 43.3799 60.5 43.0399C60.85 42.9299 61.21 42.8299 61.56 42.7299C62.61 42.4399 63.69 42.2099 64.79 42.0399C65.14 41.9899 65.5 41.9299 65.85 41.8899C66.91 41.7599 67.99 41.6899 69.08 41.6699C69.25 41.6699 69.43 41.6699 69.6 41.6699C69.78 41.6699 69.96 41.6699 70.14 41.6799C71.23 41.6999 72.31 41.7699 73.37 41.8999C73.73 41.9399 74.08 41.9899 74.43 42.0499C75.53 42.2199 76.61 42.4599 77.66 42.7399C78.02 42.8399 78.37 42.9399 78.72 43.0499C79.83 43.3999 80.9 43.7999 81.95 44.2699C82.31 44.4299 82.66 44.5899 83.01 44.7699C84.13 45.3199 85.21 45.9399 86.24 46.6199C86.6 46.8599 86.95 47.0999 87.3 47.3599C88.44 48.1899 89.53 49.0999 90.53 50.0799C90.89 50.4299 91.25 50.7999 91.59 51.1699C92.67 52.2799 93.62 53.4999 94.47 54.7899Z" stroke="black" stroke-width="0.25" stroke-miterlimit="10"/>
<path d="M48.6901 50.0399V54.7799H47.6301V51.1199C47.9701 50.7599 48.3301 50.3899 48.6901 50.0399Z" fill="#EFE8DD" stroke="black" stroke-width="0.25" stroke-miterlimit="10"/>
<path d="M48.6901 50.0399V54.7799H47.6301V51.1199C47.9701 50.7599 48.3301 50.3899 48.6901 50.0399Z" stroke="black" stroke-width="0.25" stroke-miterlimit="10"/>
<path d="M52.9902 46.6V54.79H51.9302V47.33C52.2702 47.08 52.6202 46.83 52.9902 46.6Z" fill="#EFE8DD" stroke="black" stroke-width="0.25" stroke-miterlimit="10"/>
<path d="M52.9902 46.6V54.79H51.9302V47.33C52.2702 47.08 52.6202 46.83 52.9902 46.6Z" stroke="black" stroke-width="0.25" stroke-miterlimit="10"/>
<path d="M57.28 44.26V54.79H56.22V44.76C56.57 44.58 56.92 44.41 57.28 44.26Z" fill="#EFE8DD" stroke="black" stroke-width="0.25" stroke-miterlimit="10"/>
<path d="M57.28 44.26V54.79H56.22V44.76C56.57 44.58 56.92 44.41 57.28 44.26Z" stroke="black" stroke-width="0.25" stroke-miterlimit="10"/>
<path d="M61.57 42.73V54.78H60.51V43.04C60.86 42.93 61.21 42.83 61.57 42.73Z" fill="#EFE8DD" stroke="black" stroke-width="0.25" stroke-miterlimit="10"/>
<path d="M61.57 42.73V54.78H60.51V43.04C60.86 42.93 61.21 42.83 61.57 42.73Z" stroke="black" stroke-width="0.25" stroke-miterlimit="10"/>
<path d="M65.86 41.89V54.78H64.8V42.03C65.15 41.99 65.51 41.93 65.86 41.89Z" fill="#EFE8DD" stroke="black" stroke-width="0.25" stroke-miterlimit="10"/>
<path d="M65.86 41.89V54.78H64.8V42.03C65.15 41.99 65.51 41.93 65.86 41.89Z" stroke="black" stroke-width="0.25" stroke-miterlimit="10"/>
<path d="M70.1601 41.67V54.79H69.1001V41.67C69.2701 41.67 69.4501 41.67 69.6201 41.67C69.8001 41.66 69.9801 41.67 70.1601 41.67Z" fill="#EFE8DD" stroke="black" stroke-width="0.25" stroke-miterlimit="10"/>
<path d="M70.1601 41.67V54.79H69.1001V41.67C69.2701 41.67 69.4501 41.67 69.6201 41.67C69.8001 41.66 69.9801 41.67 70.1601 41.67Z" stroke="black" stroke-width="0.25" stroke-miterlimit="10"/>
<path d="M74.4501 42.0399V54.7799H73.3901V41.8999C73.7401 41.9399 74.1001 41.9899 74.4501 42.0399Z" fill="#EFE8DD" stroke="black" stroke-width="0.25" stroke-miterlimit="10"/>
<path d="M74.4501 42.0399V54.7799H73.3901V41.8999C73.7401 41.9399 74.1001 41.9899 74.4501 42.0399Z" stroke="black" stroke-width="0.25" stroke-miterlimit="10"/>
<path d="M78.7402 43.05V54.79H77.6802V42.74C78.0302 42.83 78.3902 42.94 78.7402 43.05Z" fill="#EFE8DD" stroke="black" stroke-width="0.25" stroke-miterlimit="10"/>
<path d="M78.7402 43.05V54.79H77.6802V42.74C78.0302 42.83 78.3902 42.94 78.7402 43.05Z" stroke="black" stroke-width="0.25" stroke-miterlimit="10"/>
<path d="M83.03 44.76V54.79H81.97V44.27C82.33 44.42 82.68 44.59 83.03 44.76Z" fill="#EFE8DD" stroke="black" stroke-width="0.25" stroke-miterlimit="10"/>
<path d="M83.03 44.76V54.79H81.97V44.27C82.33 44.42 82.68 44.59 83.03 44.76Z" stroke="black" stroke-width="0.25" stroke-miterlimit="10"/>
<path d="M86.26 46.61V54.79H87.33V47.34" fill="#EFE8DD"/>
<path d="M86.26 46.61V54.79H87.33V47.34" stroke="black" stroke-width="0.25" stroke-miterlimit="10"/>
<path d="M86.26 46.61V54.79H87.33V47.34" stroke="black" stroke-width="0.25" stroke-miterlimit="10"/>
<path d="M91.6201 51.1499V54.7899H90.5601V50.0599C90.9201 50.4099 91.2801 50.7799 91.6201 51.1499Z" fill="#EFE8DD" stroke="black" stroke-width="0.25" stroke-miterlimit="10"/>
<path d="M91.6201 51.1499V54.7899H90.5601V50.0599C90.9201 50.4099 91.2801 50.7799 91.6201 51.1499Z" stroke="black" stroke-width="0.25" stroke-miterlimit="10"/>
<path d="M95.7401 56.63H43.3801C43.1001 56.63 42.8701 56.4 42.8701 56.12C42.8701 55.84 43.1001 55.61 43.3801 55.61H95.7401C96.0201 55.61 96.2501 55.84 96.2501 56.12C96.2501 56.4 96.0201 56.63 95.7401 56.63Z" fill="#F66E4E" stroke="black" stroke-width="0.25" stroke-miterlimit="10"/>
<path d="M95.7401 56.63H43.3801C43.1001 56.63 42.8701 56.4 42.8701 56.12C42.8701 55.84 43.1001 55.61 43.3801 55.61H95.7401C96.0201 55.61 96.2501 55.84 96.2501 56.12C96.2501 56.4 96.0201 56.63 95.7401 56.63Z" stroke="black" stroke-width="0.25" stroke-miterlimit="10"/>
<path d="M42.3499 56.63H16.6799C16.3999 56.63 16.1699 56.4 16.1699 56.12C16.1699 55.84 16.3999 55.61 16.6799 55.61H42.3499C42.6299 55.61 42.8599 55.84 42.8599 56.12C42.8599 56.4 42.6299 56.63 42.3499 56.63Z" fill="#F66E4E" stroke="black" stroke-width="0.25" stroke-miterlimit="10"/>
<path d="M42.3499 56.63H16.6799C16.3999 56.63 16.1699 56.4 16.1699 56.12C16.1699 55.84 16.3999 55.61 16.6799 55.61H42.3499C42.6299 55.61 42.8599 55.84 42.8599 56.12C42.8599 56.4 42.6299 56.63 42.3499 56.63Z" stroke="black" stroke-width="0.25" stroke-miterlimit="10"/>
<path d="M122.43 56.63H96.76C96.48 56.63 96.25 56.4 96.25 56.12C96.25 55.84 96.48 55.61 96.76 55.61H122.43C122.71 55.61 122.94 55.84 122.94 56.12C122.94 56.4 122.71 56.63 122.43 56.63Z" fill="#F66E4E" stroke="black" stroke-width="0.25" stroke-miterlimit="10"/>
<path d="M122.43 56.63H96.76C96.48 56.63 96.25 56.4 96.25 56.12C96.25 55.84 96.48 55.61 96.76 55.61H122.43C122.71 55.61 122.94 55.84 122.94 56.12C122.94 56.4 122.71 56.63 122.43 56.63Z" stroke="black" stroke-width="0.25" stroke-miterlimit="10"/>
<path d="M122.94 56.63H16.1602V96.53H122.94V56.63Z" fill="#FCA3BE" stroke="black" stroke-width="0.25" stroke-miterlimit="10"/>
<path d="M122.94 56.63H16.1602V96.53H122.94V56.63Z" stroke="black" stroke-width="0.25" stroke-miterlimit="10"/>
<path d="M118.93 73.83H100.26C98.05 73.83 96.25 72.03 96.25 69.82V60.63C96.25 58.42 98.05 56.62 100.26 56.62H118.93C121.14 56.62 122.94 58.42 122.94 60.63V69.82C122.94 72.04 121.15 73.83 118.93 73.83Z" fill="#EFE8DD" stroke="black" stroke-width="0.25" stroke-miterlimit="10"/>
<path d="M118.93 73.83H100.26C98.05 73.83 96.25 72.03 96.25 69.82V60.63C96.25 58.42 98.05 56.62 100.26 56.62H118.93C121.14 56.62 122.94 58.42 122.94 60.63V69.82C122.94 72.04 121.15 73.83 118.93 73.83Z" stroke="black" stroke-width="0.25" stroke-miterlimit="10"/>
<path d="M96.2501 56.63V73.84H88.3401V72.16C88.0401 72 87.8201 71.72 87.7201 71.39L84.2101 68.43H54.8101L50.6801 71.91V73.84H42.8801V56.63H96.2501Z" fill="#F66E4E" stroke="black" stroke-width="0.25" stroke-miterlimit="10"/>
<path d="M96.2501 56.63V73.84H88.3401V72.16C88.0401 72 87.8201 71.72 87.7201 71.39L84.2101 68.43H54.8101L50.6801 71.91V73.84H42.8801V56.63H96.2501V56.63Z" stroke="black" stroke-width="0.25" stroke-miterlimit="10"/>
<path d="M49.5699 96.53C48.9599 96.53 48.46 96.04 48.46 95.42V77.71C48.46 77.1 48.9499 76.6 49.5699 76.6C50.1899 76.6 50.6799 77.09 50.6799 77.71V95.42C50.6699 96.03 50.1799 96.53 49.5699 96.53Z" fill="#EFE8DD" stroke="black" stroke-width="0.25" stroke-miterlimit="10"/>
<path d="M49.5699 96.53C48.9599 96.53 48.46 96.04 48.46 95.42V77.71C48.46 77.1 48.9499 76.6 49.5699 76.6C50.1899 76.6 50.6799 77.09 50.6799 77.71V95.42C50.6699 96.03 50.1799 96.53 49.5699 96.53Z" stroke="black" stroke-width="0.25" stroke-miterlimit="10"/>
<path d="M33.42 96.53C32.81 96.53 32.3101 96.04 32.3101 95.42V77.71C32.3101 77.1 32.8 76.6 33.42 76.6C34.04 76.6 34.5301 77.09 34.5301 77.71V95.42C34.5201 96.03 34.03 96.53 33.42 96.53Z" fill="#EFE8DD" stroke="black" stroke-width="0.25" stroke-miterlimit="10"/>
<path d="M33.42 96.53C32.81 96.53 32.3101 96.04 32.3101 95.42V77.71C32.3101 77.1 32.8 76.6 33.42 76.6C34.04 76.6 34.5301 77.09 34.5301 77.71V95.42C34.5201 96.03 34.03 96.53 33.42 96.53Z" stroke="black" stroke-width="0.25" stroke-miterlimit="10"/>
<path d="M17.2702 96.53C16.6602 96.53 16.1602 96.04 16.1602 95.42V77.71C16.1602 77.1 16.6502 76.6 17.2702 76.6C17.8902 76.6 18.3802 77.09 18.3802 77.71V95.42C18.3702 96.03 17.8802 96.53 17.2702 96.53Z" fill="#EFE8DD" stroke="black" stroke-width="0.25" stroke-miterlimit="10"/>
<path d="M17.2702 96.53C16.6602 96.53 16.1602 96.04 16.1602 95.42V77.71C16.1602 77.1 16.6502 76.6 17.2702 76.6C17.8902 76.6 18.3802 77.09 18.3802 77.71V95.42C18.3702 96.03 17.8802 96.53 17.2702 96.53Z" stroke="black" stroke-width="0.25" stroke-miterlimit="10"/>
<path d="M121.84 96.53C121.23 96.53 120.73 96.04 120.73 95.42V77.71C120.73 77.1 121.22 76.6 121.84 76.6C122.45 76.6 122.95 77.09 122.95 77.71V95.42C122.94 96.03 122.45 96.53 121.84 96.53Z" fill="#EFE8DD" stroke="black" stroke-width="0.25" stroke-miterlimit="10"/>
<path d="M121.84 96.53C121.23 96.53 120.73 96.04 120.73 95.42V77.71C120.73 77.1 121.22 76.6 121.84 76.6C122.45 76.6 122.95 77.09 122.95 77.71V95.42C122.94 96.03 122.45 96.53 121.84 96.53Z" stroke="black" stroke-width="0.25" stroke-miterlimit="10"/>
<path d="M105.69 96.53C105.08 96.53 104.58 96.04 104.58 95.42V77.71C104.58 77.1 105.07 76.6 105.69 76.6C106.3 76.6 106.8 77.09 106.8 77.71V95.42C106.8 96.03 106.3 96.53 105.69 96.53Z" fill="#EFE8DD" stroke="black" stroke-width="0.25" stroke-miterlimit="10"/>
<path d="M105.69 96.53C105.08 96.53 104.58 96.04 104.58 95.42V77.71C104.58 77.1 105.07 76.6 105.69 76.6C106.3 76.6 106.8 77.09 106.8 77.71V95.42C106.8 96.03 106.3 96.53 105.69 96.53Z" stroke="black" stroke-width="0.25" stroke-miterlimit="10"/>
<path d="M89.5402 96.53C88.9302 96.53 88.4302 96.04 88.4302 95.42V77.71C88.4302 77.1 88.9202 76.6 89.5402 76.6C90.1602 76.6 90.6502 77.09 90.6502 77.71V95.42C90.6502 96.03 90.1502 96.53 89.5402 96.53Z" fill="#EFE8DD" stroke="black" stroke-width="0.25" stroke-miterlimit="10"/>
<path d="M89.5402 96.53C88.9302 96.53 88.4302 96.04 88.4302 95.42V77.71C88.4302 77.1 88.9202 76.6 89.5402 76.6C90.1602 76.6 90.6502 77.09 90.6502 77.71V95.42C90.6502 96.03 90.1502 96.53 89.5402 96.53Z" stroke="black" stroke-width="0.25" stroke-miterlimit="10"/>
<path d="M78.3901 73.0799V96.5299H58.8601V73.0799C58.8601 70.5099 60.9401 68.4299 63.5101 68.4299H73.7401C76.3101 68.4299 78.3901 70.5099 78.3901 73.0799Z" fill="#F66E4E" stroke="black" stroke-width="0.25" stroke-miterlimit="10"/>
<path d="M78.3901 73.0799V96.5299H58.8601V73.0799C58.8601 70.5099 60.9401 68.4299 63.5101 68.4299H73.7401C76.3101 68.4299 78.3901 70.5099 78.3901 73.0799Z" stroke="black" stroke-width="0.25" stroke-miterlimit="10"/>
<path d="M38.9602 73.83H20.0602C17.9102 73.83 16.1602 72.08 16.1602 69.93V60.52C16.1602 58.37 17.9102 56.62 20.0602 56.62H38.9602C41.1102 56.62 42.8602 58.37 42.8602 60.52V69.93C42.8602 72.09 41.1102 73.83 38.9602 73.83Z" fill="#EFE8DD" stroke="black" stroke-width="0.25" stroke-miterlimit="10"/>
<path d="M38.9602 73.83H20.0602C17.9102 73.83 16.1602 72.08 16.1602 69.93V60.52C16.1602 58.37 17.9102 56.62 20.0602 56.62H38.9602C41.1102 56.62 42.8602 58.37 42.8602 60.52V69.93C42.8602 72.09 41.1102 73.83 38.9602 73.83Z" stroke="black" stroke-width="0.25" stroke-miterlimit="10"/>
<path d="M41.13 61.5799V68.8799C41.13 70.6899 39.67 72.1499 37.86 72.1499H21.03C19.22 72.1499 17.76 70.6799 17.76 68.8799V61.5799C17.76 59.7699 19.23 58.3099 21.03 58.3099H37.86C39.66 58.3099 41.13 59.7799 41.13 61.5799Z" fill="#F66E4E" stroke="black" stroke-width="0.25" stroke-miterlimit="10"/>
<path d="M41.13 61.5799V68.8799C41.13 70.6899 39.67 72.1499 37.86 72.1499H21.03C19.22 72.1499 17.76 70.6799 17.76 68.8799V61.5799C17.76 59.7699 19.23 58.3099 21.03 58.3099H37.86C39.66 58.3099 41.13 59.7799 41.13 61.5799Z" stroke="black" stroke-width="0.25" stroke-miterlimit="10"/>
<path d="M121.57 61.5799V68.8799C121.57 70.6899 120.11 72.1499 118.3 72.1499H101.47C99.6602 72.1499 98.2002 70.6799 98.2002 68.8799V61.5799C98.2002 59.7699 99.6702 58.3099 101.47 58.3099H118.3C120.1 58.3099 121.57 59.7799 121.57 61.5799Z" fill="#F66E4E" stroke="black" stroke-width="0.25" stroke-miterlimit="10"/>
<path d="M121.57 61.5799V68.8799C121.57 70.6899 120.11 72.1499 118.3 72.1499H101.47C99.6602 72.1499 98.2002 70.6799 98.2002 68.8799V61.5799C98.2002 59.7699 99.6702 58.3099 101.47 58.3099H118.3C120.1 58.3099 121.57 59.7799 121.57 61.5799Z" stroke="black" stroke-width="0.25" stroke-miterlimit="10"/>
<path d="M41.1299 61.5799V68.8799C41.1299 70.6899 39.6699 72.1499 37.8599 72.1499H23.46C21.65 72.1499 20.1899 70.6799 20.1899 68.8799V61.5799C20.1899 59.7699 21.66 58.3099 23.46 58.3099H37.8599C39.6599 58.3099 41.1299 59.7799 41.1299 61.5799Z" fill="black" stroke="black" stroke-width="0.25" stroke-miterlimit="10"/>
<path d="M41.1299 61.5799V68.8799C41.1299 70.6899 39.6699 72.1499 37.8599 72.1499H23.46C21.65 72.1499 20.1899 70.6799 20.1899 68.8799V61.5799C20.1899 59.7699 21.66 58.3099 23.46 58.3099H37.8599C39.6599 58.3099 41.1299 59.7799 41.1299 61.5799Z" stroke="black" stroke-width="0.25" stroke-miterlimit="10"/>
<path d="M121.44 61.5799V68.8799C121.44 70.6899 119.98 72.1499 118.17 72.1499H103.77C101.96 72.1499 100.5 70.6799 100.5 68.8799V61.5799C100.5 59.7699 101.97 58.3099 103.77 58.3099H118.17C119.98 58.3099 121.44 59.7799 121.44 61.5799Z" fill="black" stroke="black" stroke-width="0.25" stroke-miterlimit="10"/>
<path d="M121.44 61.5799V68.8799C121.44 70.6899 119.98 72.1499 118.17 72.1499H103.77C101.96 72.1499 100.5 70.6799 100.5 68.8799V61.5799C100.5 59.7699 101.97 58.3099 103.77 58.3099H118.17C119.98 58.3099 121.44 59.7799 121.44 61.5799Z" stroke="black" stroke-width="0.25" stroke-miterlimit="10"/>
<path d="M78.39 73.0799V96.5299H60.73V73.0799C60.73 70.5099 62.81 68.4299 65.38 68.4299H73.73C76.31 68.4299 78.39 70.5099 78.39 73.0799Z" fill="black" stroke="black" stroke-width="0.25" stroke-miterlimit="10"/>
<path d="M78.39 73.0799V96.5299H60.73V73.0799C60.73 70.5099 62.81 68.4299 65.38 68.4299H73.73C76.31 68.4299 78.39 70.5099 78.39 73.0799Z" stroke="black" stroke-width="0.25" stroke-miterlimit="10"/>
<path d="M30.5801 84.37V96.53H20.1101V84.37C20.1101 81.48 22.4501 79.14 25.3401 79.14C25.6401 79.14 25.9401 79.17 26.2201 79.21C28.7001 79.63 30.5801 81.78 30.5801 84.37Z" fill="#F66E4E" stroke="black" stroke-width="0.25" stroke-miterlimit="10"/>
<path d="M30.5801 84.37V96.53H20.1101V84.37C20.1101 81.48 22.4501 79.14 25.3401 79.14C25.6401 79.14 25.9401 79.17 26.2201 79.21C28.7001 79.63 30.5801 81.78 30.5801 84.37Z" stroke="black" stroke-width="0.25" stroke-miterlimit="10"/>
<path d="M30.5801 84.3699V96.53H21.8801V84.3699C21.8801 81.7799 23.7601 79.63 26.2301 79.21C28.7001 79.63 30.5801 81.7799 30.5801 84.3699Z" fill="#030303" stroke="black" stroke-width="0.25" stroke-miterlimit="10"/>
<path d="M30.5801 84.3699V96.53H21.8801V84.3699C21.8801 81.7799 23.7601 79.63 26.2301 79.21C28.7001 79.63 30.5801 81.7799 30.5801 84.3699Z" stroke="black" stroke-width="0.25" stroke-miterlimit="10"/>
<path d="M46.72 84.37V96.53H36.25V84.37C36.25 81.48 38.59 79.14 41.48 79.14C41.78 79.14 42.08 79.17 42.36 79.21C44.84 79.63 46.72 81.78 46.72 84.37Z" fill="#F66E4E" stroke="black" stroke-width="0.25" stroke-miterlimit="10"/>
<path d="M46.72 84.37V96.53H36.25V84.37C36.25 81.48 38.59 79.14 41.48 79.14C41.78 79.14 42.08 79.17 42.36 79.21C44.84 79.63 46.72 81.78 46.72 84.37Z" stroke="black" stroke-width="0.25" stroke-miterlimit="10"/>
<path d="M46.72 84.3699V96.53H38.02V84.3699C38.02 81.7799 39.9 79.63 42.37 79.21C44.84 79.63 46.72 81.7799 46.72 84.3699Z" fill="#030303" stroke="black" stroke-width="0.25" stroke-miterlimit="10"/>
<path d="M46.72 84.3699V96.53H38.02V84.3699C38.02 81.7799 39.9 79.63 42.37 79.21C44.84 79.63 46.72 81.7799 46.72 84.3699Z" stroke="black" stroke-width="0.25" stroke-miterlimit="10"/>
<path d="M102.85 84.37V96.53H92.3801V84.37C92.3801 81.48 94.7201 79.14 97.6101 79.14C97.9101 79.14 98.2101 79.17 98.4901 79.21C100.97 79.63 102.85 81.78 102.85 84.37Z" fill="#F66E4E" stroke="black" stroke-width="0.25" stroke-miterlimit="10"/>
<path d="M102.85 84.37V96.53H92.3801V84.37C92.3801 81.48 94.7201 79.14 97.6101 79.14C97.9101 79.14 98.2101 79.17 98.4901 79.21C100.97 79.63 102.85 81.78 102.85 84.37Z" stroke="black" stroke-width="0.25" stroke-miterlimit="10"/>
<path d="M102.85 84.3699V96.53H94.1501V84.3699C94.1501 81.7799 96.0301 79.63 98.5001 79.21C100.97 79.63 102.85 81.7799 102.85 84.3699Z" fill="#030303" stroke="black" stroke-width="0.25" stroke-miterlimit="10"/>
<path d="M102.85 84.3699V96.53H94.1501V84.3699C94.1501 81.7799 96.0301 79.63 98.5001 79.21C100.97 79.63 102.85 81.7799 102.85 84.3699Z" stroke="black" stroke-width="0.25" stroke-miterlimit="10"/>
<path d="M108.53 96.53V84.37C108.53 81.48 110.87 79.14 113.76 79.14C114.06 79.14 114.36 79.17 114.64 79.21C117.11 79.63 118.99 81.78 118.99 84.37V96.53H110.29" fill="#F66E4E"/>
<path d="M108.53 96.53V84.37C108.53 81.48 110.87 79.14 113.76 79.14C114.06 79.14 114.36 79.17 114.64 79.21C117.11 79.63 118.99 81.78 118.99 84.37V96.53H110.29" stroke="black" stroke-width="0.25" stroke-miterlimit="10"/>
<path d="M108.53 96.53V84.37C108.53 81.48 110.87 79.14 113.76 79.14C114.06 79.14 114.36 79.17 114.64 79.21C117.11 79.63 118.99 81.78 118.99 84.37V96.53H110.29" stroke="black" stroke-width="0.25" stroke-miterlimit="10"/>
<path d="M119 84.3699V96.53H110.3V84.3699C110.3 81.7799 112.18 79.63 114.65 79.21C117.12 79.63 119 81.7799 119 84.3699Z" fill="#030303" stroke="black" stroke-width="0.25" stroke-miterlimit="10"/>
<path d="M119 84.3699V96.53H110.3V84.3699C110.3 81.7799 112.18 79.63 114.65 79.21C117.12 79.63 119 81.7799 119 84.3699Z" stroke="black" stroke-width="0.25" stroke-miterlimit="10"/>
<path d="M90.6 71.81C90.6 71.56 90.49 71.32 90.3 71.16L89.19 70.23L85.1 66.79C84.9 66.62 84.65 66.53 84.39 66.53L56.04 66.31C55.09 66.3 54.16 66.64 53.43 67.25L49.87 70.25L49.2 70.82C48.75 71.2 48.49 71.76 48.49 72.35V76.1C48.49 76.71 48.99 77.21 49.6 77.21C50.21 77.21 50.71 76.71 50.71 76.1V72.96C50.71 72.63 50.85 72.32 51.1 72.11L54.53 69.22C54.73 69.05 54.98 68.96 55.24 68.96H83.83C84.09 68.96 84.34 69.05 84.54 69.22L87.74 71.92L87.97 72.11C88.22 72.32 88.37 72.63 88.37 72.96V76.1C88.37 76.71 88.87 77.21 89.48 77.21C90.09 77.21 90.59 76.71 90.59 76.1V71.81H90.6Z" fill="#EFE8DD" stroke="black" stroke-width="0.25" stroke-miterlimit="10"/>
<path d="M90.6 71.81C90.6 71.56 90.49 71.32 90.3 71.16L89.19 70.23L85.1 66.79C84.9 66.62 84.65 66.53 84.39 66.53L56.04 66.31C55.09 66.3 54.16 66.64 53.43 67.25L49.87 70.25L49.2 70.82C48.75 71.2 48.49 71.76 48.49 72.35V76.1C48.49 76.71 48.99 77.21 49.6 77.21C50.21 77.21 50.71 76.71 50.71 76.1V72.96C50.71 72.63 50.85 72.32 51.1 72.11L54.53 69.22C54.73 69.05 54.98 68.96 55.24 68.96H83.83C84.09 68.96 84.34 69.05 84.54 69.22L87.74 71.92L87.97 72.11C88.22 72.32 88.37 72.63 88.37 72.96V76.1C88.37 76.71 88.87 77.21 89.48 77.21C90.09 77.21 90.59 76.71 90.59 76.1V71.81H90.6Z" stroke="black" stroke-width="0.25" stroke-miterlimit="10"/>
<path d="M51.7887 57.0502H49.2727V64.0286H48.2458V57.0502H45.7351V56.2008H51.7887V57.0502ZM56.8424 61.9856H53.5629L52.8263 64.0286H51.7619L54.751 56.2008H55.6542L58.6488 64.0286H57.5897L56.8424 61.9856ZM53.8747 61.1362H56.5359L55.2026 57.475L53.8747 61.1362ZM60.7401 63.1845H64.4497V64.0286H59.7025V56.2008H60.7401V63.1845ZM70.0518 60.4104H66.6594V63.1845H70.6001V64.0286H65.6271V56.2008H70.5464V57.0502H66.6594V59.5663H70.0518V60.4104ZM77.901 64.0286H76.8634L72.9227 57.9964V64.0286H71.8851V56.2008H72.9227L76.8742 62.2598V56.2008H77.901V64.0286ZM82.0407 60.5394C81.1554 60.2849 80.5103 59.9731 80.1053 59.6039C79.7039 59.2312 79.5032 58.7724 79.5032 58.2276C79.5032 57.6111 79.7487 57.1022 80.2397 56.7008C80.7343 56.2958 81.3759 56.0933 82.1644 56.0933C82.702 56.0933 83.1805 56.1972 83.5998 56.4051C84.0228 56.613 84.3489 56.8997 84.5783 57.2653C84.8113 57.6309 84.9278 58.0305 84.9278 58.4642H83.8902C83.8902 57.9911 83.7396 57.6201 83.4385 57.3513C83.1375 57.0789 82.7128 56.9427 82.1644 56.9427C81.6554 56.9427 81.2576 57.0556 80.9709 57.2814C80.6877 57.5036 80.5461 57.8137 80.5461 58.2115C80.5461 58.5305 80.6805 58.8011 80.9494 59.0233C81.2218 59.2419 81.6823 59.4426 82.331 59.6254C82.9834 59.8082 83.4923 60.0107 83.8579 60.233C84.2271 60.4516 84.4995 60.7079 84.6751 61.0018C84.8543 61.2957 84.9439 61.6415 84.9439 62.0394C84.9439 62.6738 84.6966 63.1827 84.202 63.5662C83.7074 63.9461 83.0461 64.1361 82.2181 64.1361C81.6805 64.1361 81.1787 64.0339 80.7128 63.8296C80.2469 63.6218 79.8867 63.3386 79.6322 62.9802C79.3813 62.6218 79.2558 62.215 79.2558 61.7598H80.2935C80.2935 62.2329 80.4673 62.6075 80.815 62.8834C81.1662 63.1558 81.6339 63.292 82.2181 63.292C82.7629 63.292 83.1805 63.1809 83.4708 62.9587C83.7611 62.7365 83.9063 62.4336 83.9063 62.0501C83.9063 61.6666 83.7719 61.3709 83.5031 61.163C83.2343 60.9516 82.7468 60.7437 82.0407 60.5394ZM90.5943 61.9856H87.3148L86.5783 64.0286H85.5138L88.5029 56.2008H89.4062L92.4007 64.0286H91.3416L90.5943 61.9856ZM87.6266 61.1362H90.2879L88.9546 57.475L87.6266 61.1362ZM99.1479 61.5448C99.0511 62.3727 98.7447 63.0125 98.2285 63.4641C97.716 63.9121 97.0332 64.1361 96.1802 64.1361C95.2555 64.1361 94.5136 63.8046 93.9544 63.1415C93.3989 62.4784 93.1211 61.5913 93.1211 60.4803V59.7276C93.1211 59 93.2502 58.3602 93.5082 57.8083C93.7699 57.2563 94.139 56.8334 94.6157 56.5395C95.0924 56.242 95.6444 56.0933 96.2716 56.0933C97.1031 56.0933 97.7698 56.3262 98.2715 56.7922C98.7733 57.2545 99.0654 57.8961 99.1479 58.7169H98.1103C98.0207 58.0932 97.8253 57.6416 97.5242 57.3621C97.2268 57.0825 96.8092 56.9427 96.2716 56.9427C95.6121 56.9427 95.0942 57.1864 94.7179 57.6739C94.3451 58.1613 94.1587 58.8548 94.1587 59.7545V60.5125C94.1587 61.362 94.3361 62.0376 94.691 62.5394C95.0458 63.0411 95.5422 63.292 96.1802 63.292C96.7537 63.292 97.1927 63.163 97.4974 62.9049C97.8056 62.6433 98.0099 62.1899 98.1103 61.5448H99.1479Z" fill="#EFE8DD"/>
<path d="M51.7887 57.0502V57.1752H51.9137V57.0502H51.7887ZM49.2727 57.0502V56.9252H49.1477V57.0502H49.2727ZM49.2727 64.0286V64.1536H49.3977V64.0286H49.2727ZM48.2458 64.0286H48.1208V64.1536H48.2458V64.0286ZM48.2458 57.0502H48.3708V56.9252H48.2458V57.0502ZM45.7351 57.0502H45.6101V57.1752H45.7351V57.0502ZM45.7351 56.2008V56.0758H45.6101V56.2008H45.7351ZM51.7887 56.2008H51.9137V56.0758H51.7887V56.2008ZM51.7887 56.9252H49.2727V57.1752H51.7887V56.9252ZM49.1477 57.0502V64.0286H49.3977V57.0502H49.1477ZM49.2727 63.9036H48.2458V64.1536H49.2727V63.9036ZM48.3708 64.0286V57.0502H48.1208V64.0286H48.3708ZM48.2458 56.9252H45.7351V57.1752H48.2458V56.9252ZM45.8601 57.0502V56.2008H45.6101V57.0502H45.8601ZM45.7351 56.3258H51.7887V56.0758H45.7351V56.3258ZM51.6637 56.2008V57.0502H51.9137V56.2008H51.6637ZM56.8424 61.9856L56.9598 61.9427L56.9298 61.8606H56.8424V61.9856ZM53.5629 61.9856V61.8606H53.4751L53.4453 61.9432L53.5629 61.9856ZM52.8263 64.0286V64.1536H52.9142L52.9439 64.071L52.8263 64.0286ZM51.7619 64.0286L51.6451 63.984L51.5803 64.1536H51.7619V64.0286ZM54.751 56.2008V56.0758H54.665L54.6343 56.1562L54.751 56.2008ZM55.6542 56.2008L55.771 56.1561L55.7403 56.0758H55.6542V56.2008ZM58.6488 64.0286V64.1536H58.8305L58.7655 63.9839L58.6488 64.0286ZM57.5897 64.0286L57.4723 64.0715L57.5023 64.1536H57.5897V64.0286ZM53.8747 61.1362L53.7572 61.0935L53.6964 61.2612H53.8747V61.1362ZM56.5359 61.1362V61.2612H56.7145L56.6534 61.0934L56.5359 61.1362ZM55.2026 57.475L55.3201 57.4322L55.2024 57.109L55.0851 57.4323L55.2026 57.475ZM56.8424 61.8606H53.5629V62.1106H56.8424V61.8606ZM53.4453 61.9432L52.7088 63.9862L52.9439 64.071L53.6805 62.028L53.4453 61.9432ZM52.8263 63.9036H51.7619V64.1536H52.8263V63.9036ZM51.8786 64.0732L54.8678 56.2454L54.6343 56.1562L51.6451 63.984L51.8786 64.0732ZM54.751 56.3258H55.6542V56.0758H54.751V56.3258ZM55.5375 56.2454L58.532 64.0732L58.7655 63.9839L55.771 56.1561L55.5375 56.2454ZM58.6488 63.9036H57.5897V64.1536H58.6488V63.9036ZM57.7071 63.9856L56.9598 61.9427L56.725 62.0285L57.4723 64.0715L57.7071 63.9856ZM53.8747 61.2612H56.5359V61.0112H53.8747V61.2612ZM56.6534 61.0934L55.3201 57.4322L55.0852 57.5177L56.4185 61.1789L56.6534 61.0934ZM55.0851 57.4323L53.7572 61.0935L53.9922 61.1788L55.3201 57.5176L55.0851 57.4323ZM60.7401 63.1845H60.6151V63.3095H60.7401V63.1845ZM64.4497 63.1845H64.5747V63.0595H64.4497V63.1845ZM64.4497 64.0286V64.1536H64.5747V64.0286H64.4497ZM59.7025 64.0286H59.5775V64.1536H59.7025V64.0286ZM59.7025 56.2008V56.0758H59.5775V56.2008H59.7025ZM60.7401 56.2008H60.8651V56.0758H60.7401V56.2008ZM60.7401 63.3095H64.4497V63.0595H60.7401V63.3095ZM64.3247 63.1845V64.0286H64.5747V63.1845H64.3247ZM64.4497 63.9036H59.7025V64.1536H64.4497V63.9036ZM59.8275 64.0286V56.2008H59.5775V64.0286H59.8275ZM59.7025 56.3258H60.7401V56.0758H59.7025V56.3258ZM60.6151 56.2008V63.1845H60.8651V56.2008H60.6151ZM70.0518 60.4104V60.5354H70.1768V60.4104H70.0518ZM66.6594 60.4104V60.2854H66.5344V60.4104H66.6594ZM66.6594 63.1845H66.5344V63.3095H66.6594V63.1845ZM70.6001 63.1845H70.7251V63.0595H70.6001V63.1845ZM70.6001 64.0286V64.1536H70.7251V64.0286H70.6001ZM65.6271 64.0286H65.5021V64.1536H65.6271V64.0286ZM65.6271 56.2008V56.0758H65.5021V56.2008H65.6271ZM70.5464 56.2008H70.6714V56.0758H70.5464V56.2008ZM70.5464 57.0502V57.1752H70.6714V57.0502H70.5464ZM66.6594 57.0502V56.9252H66.5344V57.0502H66.6594ZM66.6594 59.5663H66.5344V59.6913H66.6594V59.5663ZM70.0518 59.5663H70.1768V59.4413H70.0518V59.5663ZM70.0518 60.2854H66.6594V60.5354H70.0518V60.2854ZM66.5344 60.4104V63.1845H66.7844V60.4104H66.5344ZM66.6594 63.3095H70.6001V63.0595H66.6594V63.3095ZM70.4751 63.1845V64.0286H70.7251V63.1845H70.4751ZM70.6001 63.9036H65.6271V64.1536H70.6001V63.9036ZM65.7521 64.0286V56.2008H65.5021V64.0286H65.7521ZM65.6271 56.3258H70.5464V56.0758H65.6271V56.3258ZM70.4214 56.2008V57.0502H70.6714V56.2008H70.4214ZM70.5464 56.9252H66.6594V57.1752H70.5464V56.9252ZM66.5344 57.0502V59.5663H66.7844V57.0502H66.5344ZM66.6594 59.6913H70.0518V59.4413H66.6594V59.6913ZM69.9268 59.5663V60.4104H70.1768V59.5663H69.9268ZM77.901 64.0286V64.1536H78.026V64.0286H77.901ZM76.8634 64.0286L76.7588 64.0969L76.7958 64.1536H76.8634V64.0286ZM72.9227 57.9964L73.0273 57.9281L72.7977 57.5766V57.9964H72.9227ZM72.9227 64.0286V64.1536H73.0477V64.0286H72.9227ZM71.8851 64.0286H71.7601V64.1536H71.8851V64.0286ZM71.8851 56.2008V56.0758H71.7601V56.2008H71.8851ZM72.9227 56.2008L73.0274 56.1325L72.9904 56.0758H72.9227V56.2008ZM76.8742 62.2598L76.7695 62.3281L76.9992 62.6803V62.2598H76.8742ZM76.8742 56.2008V56.0758H76.7492V56.2008H76.8742ZM77.901 56.2008H78.026V56.0758H77.901V56.2008ZM77.901 63.9036H76.8634V64.1536H77.901V63.9036ZM76.9681 63.9602L73.0273 57.9281L72.818 58.0648L76.7588 64.0969L76.9681 63.9602ZM72.7977 57.9964V64.0286H73.0477V57.9964H72.7977ZM72.9227 63.9036H71.8851V64.1536H72.9227V63.9036ZM72.0101 64.0286V56.2008H71.7601V64.0286H72.0101ZM71.8851 56.3258H72.9227V56.0758H71.8851V56.3258ZM72.818 56.2691L76.7695 62.3281L76.9789 62.1915L73.0274 56.1325L72.818 56.2691ZM76.9992 62.2598V56.2008H76.7492V62.2598H76.9992ZM76.8742 56.3258H77.901V56.0758H76.8742V56.3258ZM77.776 56.2008V64.0286H78.026V56.2008H77.776ZM82.0407 60.5394L82.0755 60.4193L82.0753 60.4193L82.0407 60.5394ZM80.1053 59.6039L80.0202 59.6955L80.0211 59.6963L80.1053 59.6039ZM80.2397 56.7008L80.3188 56.7976L80.3189 56.7975L80.2397 56.7008ZM83.5998 56.4051L83.5443 56.5171L83.5447 56.5173L83.5998 56.4051ZM84.5783 57.2653L84.4724 57.3317L84.4729 57.3325L84.5783 57.2653ZM84.9278 58.4642V58.5892H85.0528V58.4642H84.9278ZM83.8902 58.4642H83.7652V58.5892H83.8902V58.4642ZM83.4385 57.3513L83.3547 57.444L83.3553 57.4445L83.4385 57.3513ZM80.9709 57.2814L81.048 57.3797L81.0482 57.3796L80.9709 57.2814ZM80.9494 59.0233L80.8697 59.1197L80.8711 59.1208L80.9494 59.0233ZM82.331 59.6254L82.2971 59.7458L82.2973 59.7458L82.331 59.6254ZM83.8579 60.233L83.793 60.3398L83.7942 60.3405L83.8579 60.233ZM84.6751 61.0018L84.5678 61.0659L84.5684 61.0668L84.6751 61.0018ZM84.202 63.5662L84.2781 63.6653L84.2786 63.665L84.202 63.5662ZM80.7128 63.8296L80.6619 63.9438L80.6626 63.9441L80.7128 63.8296ZM79.6322 62.9802L79.5298 63.0519L79.5303 63.0526L79.6322 62.9802ZM79.2559 61.7598V61.6348H79.1309V61.7598H79.2559ZM80.2935 61.7598H80.4185V61.6348H80.2935V61.7598ZM80.815 62.8834L80.7372 62.9813L80.7383 62.9822L80.815 62.8834ZM83.5031 61.163L83.4258 61.2613L83.4266 61.2619L83.5031 61.163ZM82.0753 60.4193C81.1975 60.1669 80.5738 59.8618 80.1895 59.5116L80.0211 59.6963C80.4468 60.0844 81.1134 60.4029 82.0062 60.6595L82.0753 60.4193ZM80.1903 59.5123C79.8142 59.1631 79.6282 58.7374 79.6282 58.2276H79.3782C79.3782 58.8074 79.5935 59.2993 80.0202 59.6955L80.1903 59.5123ZM79.6282 58.2276C79.6282 57.6499 79.8559 57.176 80.3188 56.7976L80.1606 56.604C79.6415 57.0284 79.3782 57.5724 79.3782 58.2276H79.6282ZM80.3189 56.7975C80.7863 56.4147 81.3978 56.2183 82.1644 56.2183V55.9683C81.3539 55.9683 80.6823 56.1768 80.1605 56.6041L80.3189 56.7975ZM82.1644 56.2183C82.6856 56.2183 83.1446 56.3189 83.5443 56.5171L83.6554 56.2931C83.2164 56.0755 82.7184 55.9683 82.1644 55.9683V56.2183ZM83.5447 56.5173C83.9488 56.7159 84.2565 56.9876 84.4724 57.3317L84.6842 57.1988C84.4413 56.8118 84.0968 56.51 83.655 56.2929L83.5447 56.5173ZM84.4729 57.3325C84.6931 57.678 84.8028 58.0543 84.8028 58.4642H85.0528C85.0528 58.0067 84.9295 57.5838 84.6837 57.1981L84.4729 57.3325ZM84.9278 58.3392H83.8902V58.5892H84.9278V58.3392ZM84.0152 58.4642C84.0152 57.9622 83.8541 57.5547 83.5218 57.2581L83.3553 57.4445C83.6252 57.6855 83.7652 58.0199 83.7652 58.4642H84.0152ZM83.5224 57.2586C83.1913 56.9591 82.7327 56.8177 82.1644 56.8177V57.0677C82.6928 57.0677 83.0836 57.1988 83.3547 57.444L83.5224 57.2586ZM82.1644 56.8177C81.6383 56.8177 81.2095 56.9343 80.8935 57.1832L81.0482 57.3796C81.3056 57.1769 81.6726 57.0677 82.1644 57.0677V56.8177ZM80.8937 57.1831C80.5769 57.4317 80.4211 57.7799 80.4211 58.2115H80.6711C80.6711 57.8474 80.7985 57.5755 81.048 57.3797L80.8937 57.1831ZM80.4211 58.2115C80.4211 58.5715 80.5752 58.8762 80.8697 59.1196L81.029 58.927C80.7859 58.726 80.6711 58.4894 80.6711 58.2115H80.4211ZM80.8711 59.1208C81.1638 59.3557 81.6445 59.5619 82.2971 59.7458L82.3649 59.5051C81.7202 59.3234 81.2797 59.1282 81.0276 58.9258L80.8711 59.1208ZM82.2973 59.7458C82.9443 59.9271 83.4411 60.1259 83.793 60.3398L83.9228 60.1261C83.5436 59.8956 83.0225 59.6894 82.3648 59.5051L82.2973 59.7458ZM83.7942 60.3405C84.1499 60.5512 84.4052 60.7938 84.5678 61.0659L84.7824 60.9376C84.5937 60.6219 84.3042 60.352 83.9216 60.1254L83.7942 60.3405ZM84.5684 61.0668C84.7338 61.3382 84.8189 61.6608 84.8189 62.0394H85.0689C85.0689 61.6222 84.9747 61.2531 84.7818 60.9367L84.5684 61.0668ZM84.8189 62.0394C84.8189 62.6357 84.589 63.108 84.1254 63.4674L84.2786 63.665C84.8042 63.2574 85.0689 62.7118 85.0689 62.0394H84.8189ZM84.1258 63.4671C83.6593 63.8255 83.0275 64.0111 82.2181 64.0111V64.2611C83.0646 64.2611 83.7555 64.0668 84.2781 63.6653L84.1258 63.4671ZM82.2181 64.0111C81.6968 64.0111 81.2122 63.9121 80.763 63.7152L80.6626 63.9441C81.1453 64.1557 81.6642 64.2611 82.2181 64.2611V64.0111ZM80.7637 63.7155C80.3149 63.5152 79.9737 63.2453 79.7341 62.9078L79.5303 63.0526C79.7996 63.432 80.1788 63.7283 80.6619 63.9438L80.7637 63.7155ZM79.7346 62.9085C79.499 62.572 79.3809 62.1904 79.3809 61.7598H79.1309C79.1309 62.2395 79.2636 62.6716 79.5298 63.0519L79.7346 62.9085ZM79.2559 61.8848H80.2935V61.6348H79.2559V61.8848ZM80.1685 61.7598C80.1685 62.2682 80.3575 62.6799 80.7372 62.9813L80.8927 62.7855C80.5771 62.535 80.4185 62.1977 80.4185 61.7598H80.1685ZM80.7383 62.9822C81.1175 63.2763 81.6149 63.417 82.2181 63.417V63.167C81.6529 63.167 81.2149 63.0354 80.8916 62.7847L80.7383 62.9822ZM82.2181 63.417C82.7775 63.417 83.2263 63.3033 83.5468 63.058L83.3948 62.8594C83.1347 63.0585 82.7483 63.167 82.2181 63.167V63.417ZM83.5468 63.058C83.8697 62.8108 84.0313 62.4703 84.0313 62.0501H83.7813C83.7813 62.3969 83.6525 62.6622 83.3948 62.8594L83.5468 63.058ZM84.0313 62.0501C84.0313 61.6336 83.8832 61.299 83.5795 61.0642L83.4266 61.2619C83.6606 61.4429 83.7813 61.6996 83.7813 62.0501H84.0313ZM83.5803 61.0648C83.2912 60.8373 82.7833 60.6241 82.0755 60.4193L82.006 60.6595C82.7103 60.8633 83.1774 61.0659 83.4258 61.2613L83.5803 61.0648ZM90.5943 61.9856L90.7117 61.9427L90.6817 61.8606H90.5943V61.9856ZM87.3148 61.9856V61.8606H87.227L87.1972 61.9432L87.3148 61.9856ZM86.5783 64.0286V64.1536H86.6661L86.6959 64.071L86.5783 64.0286ZM85.5138 64.0286L85.397 63.984L85.3322 64.1536H85.5138V64.0286ZM88.5029 56.2008V56.0758H88.4169L88.3862 56.1562L88.5029 56.2008ZM89.4062 56.2008L89.5229 56.1561L89.4922 56.0758H89.4062V56.2008ZM92.4007 64.0286V64.1536H92.5824L92.5175 63.9839L92.4007 64.0286ZM91.3416 64.0286L91.2242 64.0715L91.2542 64.1536H91.3416V64.0286ZM87.6266 61.1362L87.5091 61.0935L87.4483 61.2612H87.6266V61.1362ZM90.2879 61.1362V61.2612H90.4664L90.4053 61.0934L90.2879 61.1362ZM88.9546 57.475L89.072 57.4322L88.9543 57.109L88.837 57.4323L88.9546 57.475ZM90.5943 61.8606H87.3148V62.1106H90.5943V61.8606ZM87.1972 61.9432L86.4607 63.9862L86.6959 64.071L87.4324 62.028L87.1972 61.9432ZM86.5783 63.9036H85.5138V64.1536H86.5783V63.9036ZM85.6305 64.0732L88.6197 56.2454L88.3862 56.1562L85.397 63.984L85.6305 64.0732ZM88.5029 56.3258H89.4062V56.0758H88.5029V56.3258ZM89.2894 56.2454L92.284 64.0732L92.5175 63.9839L89.5229 56.1561L89.2894 56.2454ZM92.4007 63.9036H91.3416V64.1536H92.4007V63.9036ZM91.459 63.9856L90.7117 61.9427L90.4769 62.0285L91.2242 64.0715L91.459 63.9856ZM87.6266 61.2612H90.2879V61.0112H87.6266V61.2612ZM90.4053 61.0934L89.072 57.4322L88.8371 57.5177L90.1704 61.1789L90.4053 61.0934ZM88.837 57.4323L87.5091 61.0935L87.7441 61.1788L89.0721 57.5176L88.837 57.4323ZM99.1479 61.5448L99.272 61.5593L99.2883 61.4198H99.1479V61.5448ZM98.2285 63.4641L98.3108 63.5582L98.3108 63.5581L98.2285 63.4641ZM93.9544 63.1415L93.8586 63.2218L93.8589 63.2221L93.9544 63.1415ZM93.5082 57.8083L93.3953 57.7547L93.395 57.7553L93.5082 57.8083ZM94.6157 56.5395L94.6813 56.6459L94.6819 56.6455L94.6157 56.5395ZM98.2715 56.7922L98.1865 56.8838L98.1868 56.8841L98.2715 56.7922ZM99.1479 58.7169V58.8419H99.2861L99.2722 58.7044L99.1479 58.7169ZM98.1103 58.7169L97.9865 58.7346L98.0019 58.8419H98.1103V58.7169ZM97.5243 57.3621L97.4386 57.4531L97.4392 57.4536L97.5243 57.3621ZM94.7179 57.6739L94.6189 57.5975L94.6186 57.5979L94.7179 57.6739ZM94.691 62.5394L94.793 62.4672L94.691 62.5394ZM97.4974 62.9049L97.5782 63.0003L97.5783 63.0002L97.4974 62.9049ZM98.1103 61.5448V61.4198H98.0032L97.9867 61.5255L98.1103 61.5448ZM99.0237 61.5302C98.9297 62.3344 98.6342 62.943 98.1462 63.37L98.3108 63.5581C98.8551 63.0819 99.1725 62.411 99.272 61.5593L99.0237 61.5302ZM98.1463 63.3699C97.6618 63.7934 97.0109 64.0111 96.1802 64.0111V64.2611C97.0556 64.2611 97.7702 64.0308 98.3108 63.5582L98.1463 63.3699ZM96.1802 64.0111C95.2895 64.0111 94.5836 63.6938 94.05 63.0609L93.8589 63.2221C94.4435 63.9154 95.2214 64.2611 96.1802 64.2611V64.0111ZM94.0503 63.0612C93.5184 62.4264 93.2461 61.5705 93.2461 60.4803H92.9961C92.9961 61.6122 93.2794 62.5304 93.8586 63.2218L94.0503 63.0612ZM93.2461 60.4803V59.7276H92.9961V60.4803H93.2461ZM93.2461 59.7276C93.2461 59.0148 93.3725 58.3937 93.6214 57.8612L93.395 57.7553C93.1278 58.3268 92.9961 58.9852 92.9961 59.7276H93.2461ZM93.6212 57.8618C93.8734 57.3296 94.227 56.926 94.6813 56.6459L94.5501 56.4331C94.051 56.7408 93.6663 57.183 93.3953 57.7547L93.6212 57.8618ZM94.6819 56.6455C95.1365 56.3618 95.665 56.2183 96.2716 56.2183V55.9683C95.6238 55.9683 95.0483 56.1222 94.5495 56.4334L94.6819 56.6455ZM96.2716 56.2183C97.0787 56.2183 97.7126 56.4437 98.1865 56.8838L98.3566 56.7006C97.827 56.2088 97.1275 55.9683 96.2716 55.9683V56.2183ZM98.1868 56.8841C98.6616 57.3216 98.9434 57.9323 99.0235 58.7294L99.2722 58.7044C99.1874 57.8598 98.885 57.1875 98.3562 56.7002L98.1868 56.8841ZM99.1479 58.5919H98.1103V58.8419H99.1479V58.5919ZM98.234 58.6991C98.1424 58.0615 97.9399 57.5775 97.6093 57.2705L97.4392 57.4536C97.7107 57.7058 97.8989 58.1249 97.9865 58.7346L98.234 58.6991ZM97.6099 57.271C97.2826 56.9634 96.8307 56.8177 96.2716 56.8177V57.0677C96.7878 57.0677 97.1709 57.2015 97.4386 57.4531L97.6099 57.271ZM96.2716 56.8177C95.5766 56.8177 95.0208 57.077 94.6189 57.5975L94.8168 57.7503C95.1676 57.2959 95.6477 57.0677 96.2716 57.0677V56.8177ZM94.6186 57.5979C94.223 58.1153 94.0337 58.8397 94.0337 59.7545H94.2837C94.2837 58.87 94.4673 58.2074 94.8172 57.7498L94.6186 57.5979ZM94.0337 59.7545V60.5125H94.2837V59.7545H94.0337ZM94.0337 60.5125C94.0337 61.3782 94.2144 62.0819 94.5889 62.6115L94.793 62.4672C94.4579 61.9932 94.2837 61.3457 94.2837 60.5125H94.0337ZM94.5889 62.6115C94.9682 63.1479 95.5035 63.417 96.1802 63.417V63.167C95.581 63.167 95.1234 62.9344 94.793 62.4672L94.5889 62.6115ZM96.1802 63.417C96.7706 63.417 97.2429 63.2843 97.5782 63.0003L97.4166 62.8096C97.1426 63.0416 96.7367 63.167 96.1802 63.167V63.417ZM97.5783 63.0002C97.9198 62.7103 98.1315 62.2216 98.2338 61.564L97.9867 61.5255C97.8883 62.1581 97.6914 62.5763 97.4165 62.8096L97.5783 63.0002ZM98.1103 61.6698H99.1479V61.4198H98.1103V61.6698Z" fill="black"/>
<path d="M47.7199 65.04H48.6899V58.43H50.95V57.62H45.46V58.43H47.7199V65.04Z" stroke="black" stroke-width="0.25" stroke-miterlimit="10"/>
<path d="M52.3501 61.96L53.0801 59.81C53.2201 59.36 53.3401 58.91 53.4501 58.47H53.4701C53.5801 58.9 53.6901 59.34 53.8601 59.82L54.5901 61.96H52.3501V61.96ZM54.7901 62.71L55.5801 65.04H56.6001L54.0701 57.62H52.9101L50.3901 65.04H51.3801L52.1501 62.71H54.7901Z" stroke="black" stroke-width="0.25" stroke-miterlimit="10"/>
<path d="M57.6899 65.04H61.8199V64.24H58.65V57.62H57.6899V65.04Z" stroke="black" stroke-width="0.25" stroke-miterlimit="10"/>
<path d="M66.7301 60.77H63.8501V58.42H66.9001V57.62H62.8901V65.04H67.0601V64.24H63.8501V61.56H66.7301V60.77Z" stroke="black" stroke-width="0.25" stroke-miterlimit="10"/>
<path d="M69.2101 65.04V61.87C69.2101 60.64 69.1901 59.75 69.1301 58.81L69.16 58.8C69.53 59.6 70.03 60.45 70.55 61.28L72.91 65.05H73.8801V57.63H72.98V60.73C72.98 61.89 73.0001 62.79 73.0901 63.78L73.0701 63.79C72.7201 63.03 72.2901 62.25 71.7401 61.38L69.36 57.63H68.3101V65.05H69.2101V65.04Z" stroke="black" stroke-width="0.25" stroke-miterlimit="10"/>
<path d="M75.1802 64.68C75.5802 64.94 76.3602 65.15 77.0702 65.15C78.8202 65.15 79.6702 64.16 79.6702 63.01C79.6702 61.92 79.0302 61.31 77.7802 60.83C76.7602 60.43 76.3002 60.09 76.3002 59.4C76.3002 58.89 76.6902 58.29 77.7002 58.29C78.3702 58.29 78.8702 58.51 79.1102 58.64L79.3702 57.86C79.0402 57.67 78.4902 57.5 77.7302 57.5C76.2902 57.5 75.3302 58.36 75.3302 59.51C75.3302 60.56 76.0802 61.18 77.2902 61.61C78.2902 62 78.6902 62.39 78.6902 63.09C78.6902 63.84 78.1202 64.36 77.1402 64.36C76.4802 64.36 75.8502 64.14 75.4202 63.88L75.1802 64.68Z" stroke="black" stroke-width="0.25" stroke-miterlimit="10"/>
<path d="M82.3802 61.96L83.1102 59.81C83.2502 59.36 83.3702 58.91 83.4802 58.47H83.5002C83.6102 58.9 83.7202 59.34 83.8902 59.82L84.6202 61.96H82.3802V61.96ZM84.8102 62.71L85.6002 65.04H86.6202L84.0902 57.62H82.9302L80.4102 65.04H81.4002L82.1702 62.71H84.8102Z" stroke="black" stroke-width="0.25" stroke-miterlimit="10"/>
<path d="M92.5401 64.04C92.1501 64.23 91.5601 64.35 90.9801 64.35C89.1701 64.35 88.1301 63.18 88.1301 61.37C88.1301 59.42 89.2902 58.31 91.0302 58.31C91.6502 58.31 92.1602 58.44 92.5302 58.62L92.7601 57.84C92.5101 57.71 91.9201 57.51 91.0001 57.51C88.7001 57.51 87.1201 59.08 87.1201 61.41C87.1201 63.84 88.6901 65.16 90.7901 65.16C91.6901 65.16 92.4001 64.98 92.7501 64.81L92.5401 64.04Z" stroke="black" stroke-width="0.25" stroke-miterlimit="10"/>
<path d="M15.6501 73.86H51.1801C52.0601 73.86 52.7701 74.57 52.7701 75.45C52.7701 76.33 52.0601 77.04 51.1801 77.04H15.6501C14.7701 77.04 14.0601 76.33 14.0601 75.45C14.0601 74.57 14.7801 73.86 15.6501 73.86Z" fill="#EFE8DD" stroke="black" stroke-width="0.25" stroke-miterlimit="10"/>
<path d="M15.6501 73.86H51.1801C52.0601 73.86 52.7701 74.57 52.7701 75.45C52.7701 76.33 52.0601 77.04 51.1801 77.04H15.6501C14.7701 77.04 14.0601 76.33 14.0601 75.45C14.0601 74.57 14.7801 73.86 15.6501 73.86Z" stroke="black" stroke-width="0.25" stroke-miterlimit="10"/>
<path d="M88.81 73.86H124.34C125.22 73.86 125.93 74.57 125.93 75.45C125.93 76.33 125.22 77.04 124.34 77.04H88.81C87.93 77.04 87.22 76.33 87.22 75.45C87.22 74.57 87.93 73.86 88.81 73.86Z" fill="#EFE8DD" stroke="black" stroke-width="0.25" stroke-miterlimit="10"/>
<path d="M88.81 73.86H124.34C125.22 73.86 125.93 74.57 125.93 75.45C125.93 76.33 125.22 77.04 124.34 77.04H88.81C87.93 77.04 87.22 76.33 87.22 75.45C87.22 74.57 87.93 73.86 88.81 73.86Z" stroke="black" stroke-width="0.25" stroke-miterlimit="10"/>
</svg>
