<svg width="140" height="171" viewBox="0 0 140 171" fill="none" xmlns="http://www.w3.org/2000/svg">
<path d="M136.33 70.9601C136.22 86.5801 130.76 100.91 121.64 112.18L74.8298 164.77C72.1598 167.77 67.4598 167.77 64.7898 164.77L17.9798 112.18C8.7698 100.8 3.28979 86.3001 3.28979 70.5001C3.28979 33.7201 33.1598 3.90014 69.9598 3.98014C106.45 4.06014 136.58 34.4701 136.33 70.9601Z" fill="white"/>
<path d="M69.8099 170.17C66.9999 170.17 64.3099 168.96 62.4299 166.86L15.6199 114.27C5.59987 101.88 0.129883 86.3801 0.129883 70.4901C0.129883 51.8601 7.39987 34.3501 20.5899 21.1701C33.7499 8.04007 51.2199 0.810059 69.7999 0.810059C69.8499 0.810059 69.8999 0.810059 69.9499 0.810059C88.4399 0.850059 105.91 8.22007 119.14 21.5701C132.38 34.9301 139.6 52.4701 139.47 70.9601C139.36 86.8901 134.04 101.82 124.08 114.14L77.1699 166.84C75.3099 168.96 72.6299 170.17 69.8099 170.17ZM69.8099 7.13007C52.9099 7.13007 37.0199 13.7001 25.0499 25.6501C13.0499 37.6301 6.43988 53.5601 6.43988 70.5001C6.43988 84.9501 11.4099 99.0401 20.4299 110.2L67.1399 162.67C67.8299 163.44 68.7699 163.87 69.8099 163.87C70.8399 163.87 71.7898 163.45 72.4698 162.68L119.28 110.09C128.24 99.0101 133.08 85.4401 133.17 70.9501C133.28 54.1401 126.71 38.1901 114.67 26.0401C102.63 13.8901 86.7499 7.18008 69.9499 7.14008C69.9099 7.13008 69.8599 7.13007 69.8099 7.13007Z" fill="black"/>
<path d="M69.44 112.09C47.23 112.09 29.22 94.08 29.22 71.87C29.22 49.66 47.23 31.65 69.44 31.65C91.65 31.65 109.66 49.66 109.66 71.87C109.66 94.08 91.65 112.09 69.44 112.09Z" fill="black" stroke="black" stroke-width="0.25" stroke-miterlimit="10"/>
<path d="M69.44 112.09C47.23 112.09 29.22 94.08 29.22 71.87C29.22 49.66 47.23 31.65 69.44 31.65C91.65 31.65 109.66 49.66 109.66 71.87C109.66 94.08 91.65 112.09 69.44 112.09Z" stroke="black" stroke-width="0.25" stroke-miterlimit="10"/>
<path d="M57.5201 84.4301C56.1601 84.4301 55.0601 83.3301 55.0601 81.9701V61.7701C55.0601 60.4101 56.1601 59.3101 57.5201 59.3101C58.8801 59.3101 59.9801 60.4101 59.9801 61.7701V81.9701C59.9901 83.3301 58.8801 84.4301 57.5201 84.4301Z" fill="#FCA3BE" stroke="black" stroke-width="0.25" stroke-miterlimit="10"/>
<path d="M57.5201 84.4301C56.1601 84.4301 55.0601 83.3301 55.0601 81.9701V61.7701C55.0601 60.4101 56.1601 59.3101 57.5201 59.3101C58.8801 59.3101 59.9801 60.4101 59.9801 61.7701V81.9701C59.9901 83.3301 58.8801 84.4301 57.5201 84.4301Z" stroke="black" stroke-width="0.25" stroke-miterlimit="10"/>
<path d="M69.44 84.4301C68.08 84.4301 66.98 83.3301 66.98 81.9701V61.7701C66.98 60.4101 68.08 59.3101 69.44 59.3101C70.8 59.3101 71.9 60.4101 71.9 61.7701V81.9701C71.9 83.3301 70.8 84.4301 69.44 84.4301Z" fill="#EFE8DD" stroke="black" stroke-width="0.25" stroke-miterlimit="10"/>
<path d="M69.44 84.4301C68.08 84.4301 66.98 83.3301 66.98 81.9701V61.7701C66.98 60.4101 68.08 59.3101 69.44 59.3101C70.8 59.3101 71.9 60.4101 71.9 61.7701V81.9701C71.9 83.3301 70.8 84.4301 69.44 84.4301Z" stroke="black" stroke-width="0.25" stroke-miterlimit="10"/>
<path d="M81.3599 84.4301C79.9999 84.4301 78.8999 83.3301 78.8999 81.9701V61.7701C78.8999 60.4101 79.9999 59.3101 81.3599 59.3101C82.7199 59.3101 83.8199 60.4101 83.8199 61.7701V81.9701C83.8199 83.3301 82.7199 84.4301 81.3599 84.4301Z" fill="#F66E4E" stroke="black" stroke-width="0.25" stroke-miterlimit="10"/>
<path d="M81.3599 84.4301C79.9999 84.4301 78.8999 83.3301 78.8999 81.9701V61.7701C78.8999 60.4101 79.9999 59.3101 81.3599 59.3101C82.7199 59.3101 83.8199 60.4101 83.8199 61.7701V81.9701C83.8199 83.3301 82.7199 84.4301 81.3599 84.4301Z" stroke="black" stroke-width="0.25" stroke-miterlimit="10"/>
</svg>
