<svg width="140" height="170" viewBox="0 0 140 170" fill="none" xmlns="http://www.w3.org/2000/svg">
<path d="M136.2 70.39C136.09 86.01 130.63 100.34 121.51 111.61L74.6999 164.2C72.0299 167.2 67.3299 167.2 64.6599 164.2L17.8499 111.61C8.63991 100.23 3.15991 85.73 3.15991 69.93C3.15991 33.15 33.0299 3.32995 69.8299 3.40995C106.32 3.48995 136.45 33.91 136.2 70.39Z" fill="white"/>
<path d="M69.68 169.61C66.87 169.61 64.18 168.4 62.3 166.3L15.49 113.71C5.47 101.32 0 85.82 0 69.93C0 51.3 7.27 33.79 20.46 20.61C33.62 7.47999 51.09 0.25 69.67 0.25C69.72 0.25 69.77 0.25 69.82 0.25C88.31 0.29 105.78 7.66001 119.01 21.01C132.25 34.37 139.47 51.91 139.34 70.4C139.23 86.33 133.91 101.26 123.95 113.58L77.04 166.28C75.18 168.4 72.5 169.61 69.68 169.61ZM69.68 6.57001C52.78 6.57001 36.89 13.14 24.92 25.09C12.92 37.07 6.31 53 6.31 69.94C6.31 84.39 11.28 98.48 20.3 109.64L67.01 162.11C67.7 162.88 68.64 163.31 69.68 163.31C70.71 163.31 71.66 162.89 72.34 162.12L119.15 109.53C128.11 98.45 132.95 84.88 133.04 70.39C133.15 53.58 126.58 37.64 114.54 25.48C102.5 13.33 86.62 6.62002 69.82 6.58002C69.78 6.57002 69.73 6.57001 69.68 6.57001Z" fill="black"/>
<path d="M53.5499 97.47L51.6299 95.55H53.5499V97.47Z" fill="#EEE7DB" stroke="black" stroke-width="0.25" stroke-miterlimit="10"/>
<path d="M53.5499 97.47L51.6299 95.55H53.5499V97.47Z" stroke="black" stroke-width="0.25" stroke-miterlimit="10" stroke-linecap="round" stroke-linejoin="round"/>
<path d="M53.5499 95.5501V93.6401L51.6299 95.5501H53.5499Z" fill="#F76D48" stroke="black" stroke-width="0.25" stroke-miterlimit="10"/>
<path d="M53.5499 95.5501V93.6401L51.6299 95.5501H53.5499Z" stroke="black" stroke-width="0.25" stroke-miterlimit="10" stroke-linecap="round" stroke-linejoin="round"/>
<path d="M87.56 102.04H51.24V140.97H87.56V102.04Z" fill="black" stroke="black" stroke-width="0.25" stroke-miterlimit="10"/>
<path d="M87.56 102.04H51.24V140.97H87.56V102.04Z" stroke="black" stroke-width="0.25" stroke-miterlimit="10" stroke-linecap="round" stroke-linejoin="round"/>
<path d="M85.23 99.0302V92.0601H85.3C86.01 92.0601 86.59 91.4801 86.59 90.7701C86.59 90.0601 86.01 89.4801 85.3 89.4801H85.23V87.1401H69.39H53.56V89.4801H53.49C52.78 89.4801 52.2 90.0601 52.2 90.7701C52.2 91.4801 52.78 92.0601 53.49 92.0601H53.56V99.0302C52.28 99.0302 51.24 100.07 51.24 101.35V102.05H69.4H87.56V101.35C87.55 100.07 86.51 99.0302 85.23 99.0302Z" fill="#F76D48" stroke="black" stroke-width="0.25" stroke-miterlimit="10"/>
<path d="M85.23 99.0302V92.0601H85.3C86.01 92.0601 86.59 91.4801 86.59 90.7701C86.59 90.0601 86.01 89.4801 85.3 89.4801H85.23V87.1401H69.39H53.56V89.4801H53.49C52.78 89.4801 52.2 90.0601 52.2 90.7701C52.2 91.4801 52.78 92.0601 53.49 92.0601H53.56V99.0302C52.28 99.0302 51.24 100.07 51.24 101.35V102.05H69.4H87.56V101.35C87.55 100.07 86.51 99.0302 85.23 99.0302Z" stroke="black" stroke-width="0.25" stroke-miterlimit="10" stroke-linecap="round" stroke-linejoin="round"/>
<path d="M73.8201 36.67H64.5701V32.05C64.5701 29.5 66.6401 27.4301 69.1901 27.4301C71.7401 27.4301 73.8101 29.5 73.8101 32.05V36.67H73.8201Z" fill="#F76D48" stroke="black" stroke-width="0.25" stroke-miterlimit="10"/>
<path d="M73.8201 36.67H64.5701V32.05C64.5701 29.5 66.6401 27.4301 69.1901 27.4301C71.7401 27.4301 73.8101 29.5 73.8101 32.05V36.67H73.8201Z" stroke="black" stroke-width="0.25" stroke-miterlimit="10" stroke-linecap="round" stroke-linejoin="round"/>
<path d="M85.14 73.09V87.13H53.46V73.09C53.46 70.17 54.25 67.44 55.62 65.1C58.37 60.41 63.46 57.25 69.3 57.25C73.67 57.25 77.63 59.02 80.5 61.89C81.45 62.84 82.29 63.92 82.97 65.09C84.35 67.44 85.14 70.17 85.14 73.09Z" fill="#FCA1BD" stroke="black" stroke-width="0.25" stroke-miterlimit="10"/>
<path d="M85.14 73.09V87.13H53.46V73.09C53.46 70.17 54.25 67.44 55.62 65.1C58.37 60.41 63.46 57.25 69.3 57.25C73.67 57.25 77.63 59.02 80.5 61.89C81.45 62.84 82.29 63.92 82.97 65.09C84.35 67.44 85.14 70.17 85.14 73.09Z" stroke="black" stroke-width="0.25" stroke-miterlimit="10" stroke-linecap="round" stroke-linejoin="round"/>
<path d="M63 33.27H63.78C63.78 33.91 64.03 34.52 64.48 34.97L65.03 35.52L64.58 37.12L63.43 35.49C63.15 35.09 62.99 34.6 62.99 34.11V33.27H63Z" fill="#FCA1BD" stroke="black" stroke-width="0.25" stroke-miterlimit="10"/>
<path d="M63 33.27H63.78C63.78 33.91 64.03 34.52 64.48 34.97L65.03 35.52L64.58 37.12L63.43 35.49C63.15 35.09 62.99 34.6 62.99 34.11V33.27H63Z" stroke="black" stroke-width="0.25" stroke-miterlimit="10" stroke-linecap="round" stroke-linejoin="round"/>
<path d="M75.4199 33.27H74.6399C74.6399 33.91 74.3899 34.52 73.9399 34.97L73.3899 35.52L73.8399 37.12L74.9899 35.49C75.2699 35.09 75.4299 34.6 75.4299 34.11V33.27H75.4199Z" fill="#FCA1BD" stroke="black" stroke-width="0.25" stroke-miterlimit="10"/>
<path d="M75.4199 33.27H74.6399C74.6399 33.91 74.3899 34.52 73.9399 34.97L73.3899 35.52L73.8399 37.12L74.9899 35.49C75.2699 35.09 75.4299 34.6 75.4299 34.11V33.27H75.4199Z" stroke="black" stroke-width="0.25" stroke-miterlimit="10" stroke-linecap="round" stroke-linejoin="round"/>
<path d="M73.8201 43.6901H64.5801V37.4701C64.5801 34.9201 66.6501 32.8501 69.2001 32.8501C71.7501 32.8501 73.8201 34.9201 73.8201 37.4701V43.6901Z" fill="#EEE7DB" stroke="black" stroke-width="0.25" stroke-miterlimit="10"/>
<path d="M73.8201 43.6901H64.5801V37.4701C64.5801 34.9201 66.6501 32.8501 69.2001 32.8501C71.7501 32.8501 73.8201 34.9201 73.8201 37.4701V43.6901V43.6901Z" stroke="black" stroke-width="0.25" stroke-miterlimit="10" stroke-linecap="round" stroke-linejoin="round"/>
<path d="M72.06 19.4001H66.25V25.2101H72.06V19.4001Z" fill="#F76D48" stroke="black" stroke-width="0.25" stroke-miterlimit="10"/>
<path d="M72.06 19.4001H66.25V25.2101H72.06V19.4001Z" stroke="black" stroke-width="0.25" stroke-miterlimit="10" stroke-linecap="round" stroke-linejoin="round"/>
<path d="M71.6799 22.3201C71.6799 20.9301 70.5499 19.8 69.1599 19.8C67.7699 19.8 66.6399 20.9301 66.6399 22.3201C66.6399 23.7101 67.7699 24.8401 69.1599 24.8401C70.5499 24.8501 71.6799 23.7201 71.6799 22.3201Z" fill="#EEE7DB" stroke="black" stroke-width="0.25" stroke-miterlimit="10"/>
<path d="M71.6926 22.4332C71.746 21.0424 70.6619 19.8717 69.2711 19.8182C67.8803 19.7648 66.7095 20.8489 66.6561 22.2397C66.6027 23.6305 67.6868 24.8013 69.0776 24.8547C70.4684 24.9081 71.6392 23.824 71.6926 22.4332Z" stroke="black" stroke-width="0.25" stroke-miterlimit="10" stroke-linecap="round" stroke-linejoin="round"/>
<path d="M70.7201 22.32C70.7201 21.46 70.0201 20.76 69.1601 20.76C68.3001 20.76 67.6001 21.46 67.6001 22.32C67.6001 23.18 68.3001 23.88 69.1601 23.88C70.0201 23.89 70.7201 23.19 70.7201 22.32Z" fill="#FCA1BD" stroke="black" stroke-width="0.25" stroke-miterlimit="10"/>
<path d="M69.1501 23.88C70.0117 23.88 70.7101 23.1816 70.7101 22.32C70.7101 21.4584 70.0117 20.76 69.1501 20.76C68.2885 20.76 67.5901 21.4584 67.5901 22.32C67.5901 23.1816 68.2885 23.88 69.1501 23.88Z" stroke="black" stroke-width="0.25" stroke-miterlimit="10" stroke-linecap="round" stroke-linejoin="round"/>
<path d="M69.15 25.2101H66.25C68.2 25.3701 68.29 27.4001 68.29 27.4001H69.15H70.01C70.01 27.4001 70.1 25.3801 72.05 25.2101H69.15Z" fill="#FCA1BD" stroke="black" stroke-width="0.25" stroke-miterlimit="10"/>
<path d="M69.15 25.2101H66.25C68.2 25.3701 68.29 27.4001 68.29 27.4001H69.15H70.01C70.01 27.4001 70.1 25.3801 72.05 25.2101H69.15Z" stroke="black" stroke-width="0.25" stroke-miterlimit="10" stroke-linecap="round" stroke-linejoin="round"/>
<path d="M70.04 14.73H69.15H69.09H68.19L66.25 19.4H69.09H69.15H71.98L70.04 14.73Z" fill="#EEE7DB" stroke="black" stroke-width="0.25" stroke-miterlimit="10"/>
<path d="M70.04 14.73H69.15H69.09H68.19L66.25 19.4H69.09H69.15H71.98L70.04 14.73Z" stroke="black" stroke-width="0.25" stroke-miterlimit="10" stroke-linecap="round" stroke-linejoin="round"/>
<path d="M70.21 14.73H67.97C67.86 14.73 67.77 14.6401 67.77 14.5301C67.77 14.4201 67.86 14.3301 67.97 14.3301H70.21C70.32 14.3301 70.41 14.4201 70.41 14.5301C70.4 14.6401 70.32 14.73 70.21 14.73Z" fill="#FCA1BD" stroke="black" stroke-width="0.25" stroke-miterlimit="10"/>
<path d="M70.21 14.73H67.97C67.86 14.73 67.77 14.6401 67.77 14.5301C67.77 14.4201 67.86 14.3301 67.97 14.3301H70.21C70.32 14.3301 70.41 14.4201 70.41 14.5301C70.4 14.6401 70.32 14.73 70.21 14.73Z" stroke="black" stroke-width="0.25" stroke-miterlimit="10" stroke-linecap="round" stroke-linejoin="round"/>
<path d="M69.4999 13.92C69.4999 13.69 69.3099 13.5 69.0799 13.5C68.8499 13.5 68.6599 13.69 68.6599 13.92C68.6599 14.15 68.8499 14.34 69.0799 14.34C69.3199 14.34 69.4999 14.15 69.4999 13.92Z" fill="#F76D48" stroke="black" stroke-width="0.25" stroke-miterlimit="10"/>
<path d="M69.4999 13.92C69.4999 13.69 69.3099 13.5 69.0799 13.5C68.8499 13.5 68.6599 13.69 68.6599 13.92C68.6599 14.15 68.8499 14.34 69.0799 14.34C69.3199 14.34 69.4999 14.15 69.4999 13.92Z" stroke="black" stroke-width="0.25" stroke-miterlimit="10" stroke-linecap="round" stroke-linejoin="round"/>
<path d="M69.3201 13.2801C69.3201 13.1501 69.2201 13.05 69.0901 13.05C68.9601 13.05 68.8601 13.1501 68.8601 13.2801C68.8601 13.4101 68.9601 13.5101 69.0901 13.5101C69.2101 13.5101 69.3201 13.4001 69.3201 13.2801Z" fill="#FCA1BD" stroke="black" stroke-width="0.25" stroke-miterlimit="10"/>
<path d="M69.3201 13.2801C69.3201 13.1501 69.2201 13.05 69.0901 13.05C68.9601 13.05 68.8601 13.1501 68.8601 13.2801C68.8601 13.4101 68.9601 13.5101 69.0901 13.5101C69.2101 13.5101 69.3201 13.4001 69.3201 13.2801Z" stroke="black" stroke-width="0.25" stroke-miterlimit="10" stroke-linecap="round" stroke-linejoin="round"/>
<path d="M71.58 38.45V43.37H66.74V38.45C66.74 37.11 67.82 36.03 69.16 36.03C69.31 36.03 69.45 36.04 69.59 36.07C70.09 36.16 70.53 36.4 70.87 36.74C71.3 37.17 71.58 37.78 71.58 38.45Z" fill="#F76D48" stroke="black" stroke-width="0.25" stroke-miterlimit="10"/>
<path d="M71.58 38.45V43.37H66.74V38.45C66.74 37.11 67.82 36.03 69.16 36.03C69.31 36.03 69.45 36.04 69.59 36.07C70.09 36.16 70.53 36.4 70.87 36.74C71.3 37.17 71.58 37.78 71.58 38.45Z" stroke="black" stroke-width="0.25" stroke-miterlimit="10" stroke-linecap="round" stroke-linejoin="round"/>
<path d="M71.5801 38.4501V43.3701H67.5901V38.4501C67.5901 37.2601 68.4501 36.2701 69.5801 36.0701C70.0801 36.1601 70.5201 36.4001 70.8601 36.7401C71.3001 37.1701 71.5801 37.7801 71.5801 38.4501Z" fill="black" stroke="black" stroke-width="0.25" stroke-miterlimit="10"/>
<path d="M71.5801 38.4501V43.3701H67.5901V38.4501C67.5901 37.2601 68.4501 36.2701 69.5801 36.0701C70.0801 36.1601 70.5201 36.4001 70.8601 36.7401C71.3001 37.1701 71.5801 37.7801 71.5801 38.4501Z" stroke="black" stroke-width="0.25" stroke-miterlimit="10" stroke-linecap="round" stroke-linejoin="round"/>
<path d="M63.4801 31.8401C63.4401 31.7701 63.3301 31.7701 63.2901 31.8401C63.0901 32.2201 62.6901 33.1101 63.3801 33.1201C64.0801 33.1001 63.6801 32.2101 63.4801 31.8401Z" fill="#F76D48" stroke="black" stroke-width="0.25" stroke-miterlimit="10"/>
<path d="M63.4801 31.8401C63.4401 31.7701 63.3301 31.7701 63.2901 31.8401C63.0901 32.2201 62.6901 33.1101 63.3801 33.1201C64.0801 33.1001 63.6801 32.2101 63.4801 31.8401Z" stroke="black" stroke-width="0.25" stroke-miterlimit="10" stroke-linecap="round" stroke-linejoin="round"/>
<path d="M75.12 31.8401C75.08 31.7701 74.97 31.7701 74.93 31.8401C74.73 32.2201 74.33 33.1101 75.02 33.1201C75.72 33.1001 75.32 32.2101 75.12 31.8401Z" fill="#F76D48" stroke="black" stroke-width="0.25" stroke-miterlimit="10"/>
<path d="M75.12 31.8401C75.08 31.7701 74.97 31.7701 74.93 31.8401C74.73 32.2201 74.33 33.1101 75.02 33.1201C75.72 33.1001 75.32 32.2101 75.12 31.8401Z" stroke="black" stroke-width="0.25" stroke-miterlimit="10" stroke-linecap="round" stroke-linejoin="round"/>
<path d="M74.6599 51.11L75.7299 49.22H69.3099H62.8899L63.9599 51.11C64.3599 51.82 64.5699 52.61 64.5699 53.43V54.93C64.5699 56.32 63.9599 57.63 62.8999 58.53H69.3099H75.7199C74.6599 57.64 74.0499 56.32 74.0499 54.93V53.43C74.0499 52.61 74.2599 51.81 74.6599 51.11Z" fill="#F76D48" stroke="black" stroke-width="0.25" stroke-miterlimit="10"/>
<path d="M74.6599 51.11L75.7299 49.22H69.3099H62.8899L63.9599 51.11C64.3599 51.82 64.5699 52.61 64.5699 53.43V54.93C64.5699 56.32 63.9599 57.63 62.8999 58.53H69.3099H75.7199C74.6599 57.64 74.0499 56.32 74.0499 54.93V53.43C74.0499 52.61 74.2599 51.81 74.6599 51.11Z" stroke="black" stroke-width="0.25" stroke-miterlimit="10" stroke-linecap="round" stroke-linejoin="round"/>
<path d="M69.2101 31.5601C69.1701 31.4901 69.0601 31.4901 69.0201 31.5601C68.8201 31.9401 68.4201 32.8301 69.1101 32.8401C69.8101 32.8301 69.4101 31.9401 69.2101 31.5601Z" fill="#F76D48" stroke="black" stroke-width="0.25" stroke-miterlimit="10"/>
<path d="M69.2101 31.5601C69.1701 31.4901 69.0601 31.4901 69.0201 31.5601C68.8201 31.9401 68.4201 32.8301 69.1101 32.8401C69.8101 32.8301 69.4101 31.9401 69.2101 31.5601Z" stroke="black" stroke-width="0.25" stroke-miterlimit="10" stroke-linecap="round" stroke-linejoin="round"/>
<path d="M73.7801 43.6901L69.1701 43.7001L64.5701 43.6901L62.5901 47.1301H69.1501H69.1901H75.7601L73.7801 43.6901Z" fill="#F76D48" stroke="black" stroke-width="0.25" stroke-miterlimit="10"/>
<path d="M73.7801 43.6901L69.1701 43.7001L64.5701 43.6901L62.5901 47.1301H69.1501H69.1901H75.7601L73.7801 43.6901Z" stroke="black" stroke-width="0.25" stroke-miterlimit="10" stroke-linecap="round" stroke-linejoin="round"/>
<path d="M69.19 47.1301H69.17H61.87C61.53 47.1301 61.26 47.4001 61.26 47.7401C61.26 48.0801 61.53 48.3501 61.87 48.3501H69.17H69.19H76.49C76.83 48.3501 77.1 48.0801 77.1 47.7401C77.1 47.4001 76.83 47.1301 76.49 47.1301H69.19Z" fill="#EEE7DB" stroke="black" stroke-width="0.25" stroke-miterlimit="10"/>
<path d="M69.19 47.1301H69.17H61.87C61.53 47.1301 61.26 47.4001 61.26 47.7401C61.26 48.0801 61.53 48.3501 61.87 48.3501H69.17H69.19H76.49C76.83 48.3501 77.1 48.0801 77.1 47.7401C77.1 47.4001 76.83 47.1301 76.49 47.1301H69.19Z" stroke="black" stroke-width="0.25" stroke-miterlimit="10" stroke-linecap="round" stroke-linejoin="round"/>
<path d="M69.1801 48.3501H69.1601H62.8901C62.7201 48.3501 62.5801 48.5402 62.5801 48.7802C62.5801 49.0202 62.7201 49.2101 62.8901 49.2101H69.1601H69.1801H75.4501C75.6201 49.2101 75.7601 49.0202 75.7601 48.7802C75.7601 48.5402 75.6201 48.3501 75.4501 48.3501H69.1801Z" fill="#FCA1BD" stroke="black" stroke-width="0.25" stroke-miterlimit="10"/>
<path d="M69.1801 48.3501H69.1601H62.8901C62.7201 48.3501 62.5801 48.5402 62.5801 48.7802C62.5801 49.0202 62.7201 49.2101 62.8901 49.2101H69.1601H69.1801H75.4501C75.6201 49.2101 75.7601 49.0202 75.7601 48.7802C75.7601 48.5402 75.6201 48.3501 75.4501 48.3501H69.1801Z" stroke="black" stroke-width="0.25" stroke-miterlimit="10" stroke-linecap="round" stroke-linejoin="round"/>
<path d="M69.3301 58.51H69.3101H62.9001C62.7301 58.51 62.5901 58.7 62.5901 58.94C62.5901 59.18 62.7301 59.37 62.9001 59.37H69.3101H69.3301H75.7401C75.9101 59.37 76.0501 59.18 76.0501 58.94C76.0501 58.7 75.9101 58.51 75.7401 58.51H69.3301Z" fill="#EEE7DB" stroke="black" stroke-width="0.25" stroke-miterlimit="10"/>
<path d="M69.3301 58.51H69.3101H62.9001C62.7301 58.51 62.5901 58.7 62.5901 58.94C62.5901 59.18 62.7301 59.37 62.9001 59.37H69.3101H69.3301H75.7401C75.9101 59.37 76.0501 59.18 76.0501 58.94C76.0501 58.7 75.9101 58.51 75.7401 58.51H69.3301Z" stroke="black" stroke-width="0.25" stroke-miterlimit="10" stroke-linecap="round" stroke-linejoin="round"/>
<path d="M69.7799 49.22H68.3999V49.62H69.7799V49.22Z" fill="#EEE7DB" stroke="black" stroke-width="0.25" stroke-miterlimit="10"/>
<path d="M69.7799 49.22H68.3999V49.62H69.7799V49.22Z" stroke="black" stroke-width="0.25" stroke-miterlimit="10" stroke-linecap="round" stroke-linejoin="round"/>
<path d="M66.68 49.22H65.3V49.62H66.68V49.22Z" fill="#EEE7DB" stroke="black" stroke-width="0.25" stroke-miterlimit="10"/>
<path d="M66.68 49.22H65.3V49.62H66.68V49.22Z" stroke="black" stroke-width="0.25" stroke-miterlimit="10" stroke-linecap="round" stroke-linejoin="round"/>
<path d="M73.0399 49.22H71.6599V49.62H73.0399V49.22Z" fill="#EEE7DB" stroke="black" stroke-width="0.25" stroke-miterlimit="10"/>
<path d="M73.0399 49.22H71.6599V49.62H73.0399V49.22Z" stroke="black" stroke-width="0.25" stroke-miterlimit="10" stroke-linecap="round" stroke-linejoin="round"/>
<path d="M67.18 50.7901V50.7101L66.68 49.6101H65.3L65.94 50.7901V55.8301V56.0801C65.94 56.4201 66.22 56.7001 66.56 56.7001C66.9 56.7001 67.18 56.4201 67.18 56.0801V50.7901Z" fill="#FCA1BD" stroke="black" stroke-width="0.25" stroke-miterlimit="10"/>
<path d="M67.18 50.7901V50.7101L66.68 49.6101H65.3L65.94 50.7901V55.8301V56.0801C65.94 56.4201 66.22 56.7001 66.56 56.7001C66.9 56.7001 67.18 56.4201 67.18 56.0801V50.7901Z" stroke="black" stroke-width="0.25" stroke-miterlimit="10" stroke-linecap="round" stroke-linejoin="round"/>
<path d="M71.1699 50.7901V50.7101L71.6699 49.6101H73.0499L72.4099 50.7901V55.8301V56.0801C72.4099 56.4201 72.1299 56.7001 71.7899 56.7001C71.4499 56.7001 71.1699 56.4201 71.1699 56.0801V50.7901Z" fill="#FCA1BD" stroke="black" stroke-width="0.25" stroke-miterlimit="10"/>
<path d="M71.1699 50.7901V50.7101L71.6699 49.6101H73.0499L72.4099 50.7901V55.8301V56.0801C72.4099 56.4201 72.1299 56.7001 71.7899 56.7001C71.4499 56.7001 71.1699 56.4201 71.1699 56.0801V50.7901Z" stroke="black" stroke-width="0.25" stroke-miterlimit="10" stroke-linecap="round" stroke-linejoin="round"/>
<path d="M68.3999 49.6101L68.4699 50.7701V56.0801C68.4699 56.4201 68.7499 56.7001 69.0899 56.7001C69.4299 56.7001 69.7099 56.4201 69.7099 56.0801V50.7701L69.7799 49.6101H68.3999Z" fill="#FCA1BD" stroke="black" stroke-width="0.25" stroke-miterlimit="10"/>
<path d="M68.3999 49.6101L68.4699 50.7701V56.0801C68.4699 56.4201 68.7499 56.7001 69.0899 56.7001C69.4299 56.7001 69.7099 56.4201 69.7099 56.0801V50.7701L69.7799 49.6101H68.3999Z" stroke="black" stroke-width="0.25" stroke-miterlimit="10" stroke-linecap="round" stroke-linejoin="round"/>
<path d="M61.5299 92.05H57.7V99.0601H61.5299V92.05Z" fill="#FCA1BD" stroke="black" stroke-width="0.25" stroke-miterlimit="10"/>
<path d="M61.5299 92.05H57.7V99.0601H61.5299V92.05Z" stroke="black" stroke-width="0.25" stroke-miterlimit="10" stroke-linecap="round" stroke-linejoin="round"/>
<path d="M81.08 92.05H77.25V99.0601H81.08V92.05Z" fill="#FCA1BD" stroke="black" stroke-width="0.25" stroke-miterlimit="10"/>
<path d="M81.08 92.05H77.25V99.0601H81.08V92.05Z" stroke="black" stroke-width="0.25" stroke-miterlimit="10" stroke-linecap="round" stroke-linejoin="round"/>
<path d="M59.6223 93.6299L57.7061 95.5461L59.6223 97.4624L61.5385 95.5461L59.6223 93.6299Z" fill="white" stroke="black" stroke-width="0.25" stroke-miterlimit="10"/>
<path d="M59.6223 93.6299L57.7061 95.5461L59.6223 97.4624L61.5385 95.5461L59.6223 93.6299Z" stroke="black" stroke-width="0.25" stroke-miterlimit="10" stroke-linecap="round" stroke-linejoin="round"/>
<path d="M59.6199 93.6401V95.5501H57.7L59.6199 93.6401Z" fill="#F76D48" stroke="black" stroke-width="0.25" stroke-miterlimit="10"/>
<path d="M59.6199 93.6401V95.5501H57.7L59.6199 93.6401Z" stroke="black" stroke-width="0.25" stroke-miterlimit="10" stroke-linecap="round" stroke-linejoin="round"/>
<path d="M61.5399 95.5501H59.6199V93.6401L61.5399 95.5501Z" fill="#FCA1BD" stroke="black" stroke-width="0.25" stroke-miterlimit="10"/>
<path d="M61.5399 95.5501H59.6199V93.6401L61.5399 95.5501Z" stroke="black" stroke-width="0.25" stroke-miterlimit="10" stroke-linecap="round" stroke-linejoin="round"/>
<path d="M59.6199 95.55V97.47L61.5399 95.55H59.6199Z" fill="#EEE7DB" stroke="black" stroke-width="0.25" stroke-miterlimit="10"/>
<path d="M59.6199 95.55V97.47L61.5399 95.55H59.6199Z" stroke="black" stroke-width="0.25" stroke-miterlimit="10" stroke-linecap="round" stroke-linejoin="round"/>
<path d="M57.7 95.55L59.6199 97.47V95.55H57.7Z" fill="black" stroke="black" stroke-width="0.25" stroke-miterlimit="10"/>
<path d="M57.7 95.55L59.6199 97.47V95.55H57.7Z" stroke="black" stroke-width="0.25" stroke-miterlimit="10" stroke-linecap="round" stroke-linejoin="round"/>
<path d="M79.1614 93.6344L77.2451 95.5507L79.1613 97.4669L81.0776 95.5506L79.1614 93.6344Z" fill="white" stroke="black" stroke-width="0.25" stroke-miterlimit="10"/>
<path d="M79.1614 93.6344L77.2451 95.5507L79.1613 97.4669L81.0776 95.5506L79.1614 93.6344Z" stroke="black" stroke-width="0.25" stroke-miterlimit="10" stroke-linecap="round" stroke-linejoin="round"/>
<path d="M79.1699 97.47V95.55H81.0799L79.1699 97.47Z" fill="#F76D48" stroke="black" stroke-width="0.25" stroke-miterlimit="10"/>
<path d="M79.1699 97.47V95.55H81.0799L79.1699 97.47Z" stroke="black" stroke-width="0.25" stroke-miterlimit="10" stroke-linecap="round" stroke-linejoin="round"/>
<path d="M77.25 95.55H79.17V97.47L77.25 95.55Z" fill="#FCA1BD" stroke="black" stroke-width="0.25" stroke-miterlimit="10"/>
<path d="M77.25 95.55H79.17V97.47L77.25 95.55Z" stroke="black" stroke-width="0.25" stroke-miterlimit="10" stroke-linecap="round" stroke-linejoin="round"/>
<path d="M79.17 95.5501V93.6401L77.25 95.5501H79.17Z" fill="#EEE7DB" stroke="black" stroke-width="0.25" stroke-miterlimit="10"/>
<path d="M79.17 95.5501V93.6401L77.25 95.5501H79.17Z" stroke="black" stroke-width="0.25" stroke-miterlimit="10" stroke-linecap="round" stroke-linejoin="round"/>
<path d="M81.0799 95.5501L79.1699 93.6401V95.5501H81.0799Z" fill="black" stroke="black" stroke-width="0.25" stroke-miterlimit="10"/>
<path d="M81.0799 95.5501L79.1699 93.6401V95.5501H81.0799Z" stroke="black" stroke-width="0.25" stroke-miterlimit="10" stroke-linecap="round" stroke-linejoin="round"/>
<path d="M85.29 93.75L87.21 95.67H85.29V93.75Z" fill="#FCA1BD" stroke="black" stroke-width="0.25" stroke-miterlimit="10"/>
<path d="M85.29 93.75L87.21 95.67H85.29V93.75Z" stroke="black" stroke-width="0.25" stroke-miterlimit="10" stroke-linecap="round" stroke-linejoin="round"/>
<path d="M85.29 95.67V97.5901L87.21 95.67H85.29Z" fill="#EEE7DB" stroke="black" stroke-width="0.25" stroke-miterlimit="10"/>
<path d="M85.29 95.67V97.5901L87.21 95.67H85.29Z" stroke="black" stroke-width="0.25" stroke-miterlimit="10" stroke-linecap="round" stroke-linejoin="round"/>
<path d="M74.9701 96.63H63.6501C63.0501 96.63 62.5701 96.15 62.5701 95.55C62.5701 94.95 63.0501 94.47 63.6501 94.47H74.9601C75.5601 94.47 76.0401 94.95 76.0401 95.55C76.0501 96.15 75.5601 96.63 74.9701 96.63Z" fill="#EEE7DB" stroke="black" stroke-width="0.25" stroke-miterlimit="10"/>
<path d="M74.9701 96.63H63.6501C63.0501 96.63 62.5701 96.15 62.5701 95.55C62.5701 94.95 63.0501 94.47 63.6501 94.47H74.9601C75.5601 94.47 76.0401 94.95 76.0401 95.55C76.0501 96.15 75.5601 96.63 74.9701 96.63Z" stroke="black" stroke-width="0.25" stroke-miterlimit="10" stroke-linecap="round" stroke-linejoin="round"/>
<path d="M85.2999 92.05H53.4799C52.7699 92.05 52.1899 91.47 52.1899 90.76C52.1899 90.05 52.7699 89.47 53.4799 89.47H85.2999C86.0099 89.47 86.5899 90.05 86.5899 90.76C86.5899 91.48 86.0199 92.05 85.2999 92.05Z" fill="#EEE7DB" stroke="black" stroke-width="0.25" stroke-miterlimit="10"/>
<path d="M85.2999 92.05H53.4799C52.7699 92.05 52.1899 91.47 52.1899 90.76C52.1899 90.05 52.7699 89.47 53.4799 89.47H85.2999C86.0099 89.47 86.5899 90.05 86.5899 90.76C86.5899 91.48 86.0199 92.05 85.2999 92.05Z" stroke="black" stroke-width="0.25" stroke-miterlimit="10" stroke-linecap="round" stroke-linejoin="round"/>
<path d="M69.51 32.8401H68.73V36.0201H69.51V32.8401Z" fill="#FCA1BD" stroke="black" stroke-width="0.25" stroke-miterlimit="10"/>
<path d="M69.51 32.8401H68.73V36.0201H69.51V32.8401Z" stroke="black" stroke-width="0.25" stroke-miterlimit="10" stroke-linecap="round" stroke-linejoin="round"/>
<path d="M63.2499 58.94C63.2499 58.57 62.9499 58.28 62.5899 58.28C62.2199 58.28 61.9299 58.58 61.9299 58.94C61.9299 59.31 62.2299 59.6 62.5899 59.6C62.9499 59.61 63.2499 59.31 63.2499 58.94Z" fill="#F76D48" stroke="black" stroke-width="0.25" stroke-miterlimit="10"/>
<path d="M63.2499 58.94C63.2499 58.57 62.9499 58.28 62.5899 58.28C62.2199 58.28 61.9299 58.58 61.9299 58.94C61.9299 59.31 62.2299 59.6 62.5899 59.6C62.9499 59.61 63.2499 59.31 63.2499 58.94Z" stroke="black" stroke-width="0.25" stroke-miterlimit="10" stroke-linecap="round" stroke-linejoin="round"/>
<path d="M76.7099 58.94C76.7099 58.57 76.4099 58.28 76.0499 58.28C75.6799 58.28 75.3899 58.58 75.3899 58.94C75.3899 59.31 75.6899 59.6 76.0499 59.6C76.4199 59.61 76.7099 59.31 76.7099 58.94Z" fill="#F76D48" stroke="black" stroke-width="0.25" stroke-miterlimit="10"/>
<path d="M76.7099 58.94C76.7099 58.57 76.4099 58.28 76.0499 58.28C75.6799 58.28 75.3899 58.58 75.3899 58.94C75.3899 59.31 75.6899 59.6 76.0499 59.6C76.4199 59.61 76.7099 59.31 76.7099 58.94Z" stroke="black" stroke-width="0.25" stroke-miterlimit="10" stroke-linecap="round" stroke-linejoin="round"/>
<path d="M70.06 58.94C70.06 58.57 69.76 58.28 69.4 58.28C69.03 58.28 68.74 58.58 68.74 58.94C68.74 59.31 69.04 59.6 69.4 59.6C69.76 59.61 70.06 59.31 70.06 58.94Z" fill="#F76D48" stroke="black" stroke-width="0.25" stroke-miterlimit="10"/>
<path d="M70.06 58.94C70.06 58.57 69.76 58.28 69.4 58.28C69.03 58.28 68.74 58.58 68.74 58.94C68.74 59.31 69.04 59.6 69.4 59.6C69.76 59.61 70.06 59.31 70.06 58.94Z" stroke="black" stroke-width="0.25" stroke-miterlimit="10" stroke-linecap="round" stroke-linejoin="round"/>
<path d="M79.5401 123V140.98H59.0801V123C59.0801 117.35 63.6601 112.77 69.3101 112.77C72.1401 112.77 74.6901 113.91 76.5501 115.77C78.4001 117.62 79.5401 120.17 79.5401 123Z" fill="white" stroke="black" stroke-width="0.25" stroke-miterlimit="10"/>
<path d="M79.5401 123V140.98H59.0801V123C59.0801 117.35 63.6601 112.77 69.3101 112.77C72.1401 112.77 74.6901 113.91 76.5501 115.77C78.4001 117.62 79.5401 120.17 79.5401 123Z" stroke="black" stroke-width="0.25" stroke-miterlimit="10" stroke-linecap="round" stroke-linejoin="round"/>
<path d="M69.5199 110.02L70.2299 104.36C70.2499 104.18 70.5199 104.2 70.5199 104.38V110.09C70.5199 110.26 70.7699 110.29 70.8099 110.13L72.2299 104.6C72.2799 104.42 72.5399 104.47 72.5199 104.65L71.7999 110.31C71.7799 110.48 72.0199 110.54 72.0799 110.38L74.1799 105.07C74.2499 104.9 74.4999 104.98 74.4599 105.16L73.0399 110.69C72.9999 110.86 73.2299 110.95 73.3099 110.8L76.0599 105.8C76.1499 105.64 76.3899 105.75 76.3199 105.92L74.2199 111.23C74.1599 111.39 74.3699 111.51 74.4699 111.37L77.8199 106.75C77.9299 106.6 78.1499 106.75 78.0699 106.91L75.3199 111.91C75.2399 112.06 75.4399 112.21 75.5499 112.08L79.4599 107.92C79.5899 107.79 79.7899 107.96 79.6799 108.11L76.3199 112.73C76.2199 112.87 76.3999 113.04 76.5299 112.93L80.9299 109.29C81.0699 109.17 81.2599 109.37 81.1299 109.5L77.2199 113.66C77.0999 113.79 77.2599 113.98 77.3999 113.88L82.2199 110.82C82.3699 110.72 82.5299 110.94 82.3899 111.06L77.9899 114.7C77.8599 114.81 77.9899 115.02 78.1499 114.94L83.3199 112.51C83.4899 112.43 83.6199 112.67 83.4599 112.77L78.6399 115.83C78.4899 115.92 78.5999 116.15 78.7599 116.09L84.1899 114.32C84.3599 114.26 84.4599 114.51 84.2999 114.59L79.1299 117.02C78.9699 117.09 79.0499 117.33 79.2199 117.3L84.8299 116.23C85.0099 116.2 85.0799 116.46 84.8999 116.51L79.4699 118.27C79.3099 118.32 79.3499 118.57 79.5199 118.56L85.2199 118.2C85.3999 118.19 85.4399 118.46 85.2599 118.49L79.6499 119.56C79.4799 119.59 79.4999 119.84 79.6699 119.85L85.3699 120.21C85.5499 120.22 85.5499 120.49 85.3699 120.5L79.6699 120.86C79.4999 120.87 79.4799 121.12 79.6499 121.15L85.2599 122.22C85.4399 122.25 85.4099 122.52 85.2199 122.51L79.5199 122.15C79.3499 122.14 79.2999 122.38 79.4699 122.44L84.8999 124.2C85.0699 124.26 85.0099 124.52 84.8299 124.48L79.2199 123.41C79.0499 123.38 78.9699 123.61 79.1299 123.69L84.2999 126.12C84.4699 126.2 84.3699 126.45 84.1899 126.39L78.7599 124.62C78.5999 124.57 78.4899 124.79 78.6399 124.88L83.4599 127.94C83.6099 128.04 83.4899 128.27 83.3199 128.2L78.1499 125.77C77.9899 125.7 77.8599 125.91 77.9899 126.01L82.3899 129.65C82.5299 129.77 82.3699 129.98 82.2199 129.89L77.3999 126.83C77.2499 126.74 77.0999 126.93 77.2199 127.05L81.1299 131.21C81.2599 131.34 81.0699 131.54 80.9299 131.42L76.5299 127.78C76.3999 127.67 76.2199 127.84 76.3199 127.98L79.6799 132.6C79.7899 132.75 79.5799 132.92 79.4599 132.79L75.5499 128.63C75.4299 128.5 75.2299 128.65 75.3199 128.8L78.0699 133.8C78.1599 133.96 77.9299 134.1 77.8199 133.96L74.4699 129.34C74.3699 129.2 74.1499 129.32 74.2199 129.48L76.3199 134.79C76.3899 134.96 76.1399 135.07 76.0599 134.91L73.3099 129.91C73.2299 129.76 72.9999 129.85 73.0399 130.02L74.4599 135.55C74.5099 135.73 74.2499 135.81 74.1799 135.64L72.0799 130.33C72.0199 130.17 71.7799 130.23 71.7999 130.4L72.5199 136.06C72.5399 136.24 72.2799 136.29 72.2299 136.11L70.8099 130.58C70.7699 130.41 70.5199 130.44 70.5199 130.62V136.33C70.5199 136.51 70.2499 136.53 70.2299 136.35L69.5199 130.69C69.4999 130.52 69.2499 130.52 69.2299 130.69L68.5199 136.35C68.4999 136.53 68.2299 136.51 68.2299 136.33V130.62C68.2299 130.45 67.9799 130.42 67.9399 130.58L66.5199 136.11C66.4699 136.29 66.2099 136.24 66.2299 136.06L66.9499 130.4C66.9699 130.23 66.7299 130.17 66.6699 130.33L64.5699 135.64C64.4999 135.81 64.2499 135.73 64.2899 135.55L65.7099 130.02C65.7499 129.85 65.5199 129.76 65.4399 129.91L62.6899 134.91C62.5999 135.07 62.3599 134.96 62.4299 134.79L64.5299 129.48C64.5899 129.32 64.3799 129.2 64.2799 129.34L60.9299 133.96C60.8199 134.11 60.5999 133.96 60.6799 133.8L63.4299 128.8C63.5099 128.65 63.3099 128.5 63.1999 128.63L59.2899 132.79C59.1599 132.92 58.9599 132.75 59.0699 132.6L62.4299 127.98C62.5299 127.84 62.3499 127.67 62.2199 127.78L57.8199 131.42C57.6799 131.54 57.4899 131.34 57.6199 131.21L61.5299 127.05C61.6499 126.92 61.4899 126.73 61.3499 126.83L56.5299 129.89C56.3799 129.99 56.2199 129.77 56.3599 129.65L60.7599 126.01C60.8899 125.9 60.7599 125.69 60.5999 125.77L55.4299 128.2C55.2599 128.28 55.1299 128.04 55.2899 127.94L60.1099 124.88C60.2599 124.79 60.1499 124.56 59.9899 124.62L54.5599 126.39C54.3899 126.45 54.2899 126.2 54.4499 126.12L59.6199 123.69C59.7799 123.62 59.6999 123.38 59.5299 123.41L53.9199 124.48C53.7399 124.51 53.6699 124.25 53.8499 124.2L59.2799 122.44C59.4399 122.39 59.3999 122.14 59.2299 122.15L53.5299 122.51C53.3499 122.52 53.3099 122.25 53.4899 122.22L59.0999 121.15C59.2699 121.12 59.2499 120.87 59.0799 120.86L53.3799 120.5C53.1999 120.49 53.1999 120.22 53.3799 120.21L59.0799 119.85C59.2499 119.84 59.2699 119.59 59.0999 119.56L53.4899 118.49C53.3099 118.46 53.3399 118.19 53.5299 118.2L59.2299 118.56C59.3999 118.57 59.4499 118.33 59.2799 118.27L53.8499 116.51C53.6799 116.45 53.7399 116.19 53.9199 116.23L59.5299 117.3C59.6999 117.33 59.7799 117.1 59.6199 117.02L54.4499 114.59C54.2799 114.51 54.3799 114.26 54.5599 114.32L59.9899 116.09C60.1499 116.14 60.2599 115.92 60.1099 115.83L55.2899 112.77C55.1399 112.67 55.2599 112.44 55.4299 112.51L60.5999 114.94C60.7599 115.01 60.8899 114.8 60.7599 114.7L56.3599 111.06C56.2199 110.94 56.3799 110.73 56.5299 110.82L61.3499 113.88C61.4999 113.97 61.6499 113.78 61.5299 113.66L57.6199 109.5C57.4899 109.37 57.6799 109.17 57.8199 109.29L62.2199 112.93C62.3499 113.04 62.5299 112.87 62.4299 112.73L59.0699 108.11C58.9599 107.96 59.1699 107.79 59.2899 107.92L63.1999 112.08C63.3199 112.21 63.5199 112.06 63.4299 111.91L60.6799 106.91C60.5899 106.75 60.8199 106.61 60.9299 106.75L64.2799 111.37C64.3799 111.51 64.5999 111.39 64.5299 111.23L62.4299 105.92C62.3599 105.75 62.6099 105.64 62.6899 105.8L65.4399 110.8C65.5199 110.95 65.7499 110.86 65.7099 110.69L64.2899 105.16C64.2399 104.98 64.4999 104.9 64.5699 105.07L66.6699 110.38C66.7299 110.54 66.9699 110.48 66.9499 110.31L66.2299 104.65C66.2099 104.47 66.4699 104.42 66.5199 104.6L67.9399 110.13C67.9799 110.3 68.2299 110.27 68.2299 110.09V104.38C68.2299 104.2 68.4999 104.18 68.5199 104.36L69.2299 110.02C69.2499 110.19 69.4999 110.19 69.5199 110.02Z" fill="#FCA1BD" stroke="black" stroke-width="0.25" stroke-miterlimit="10"/>
<path d="M69.5199 110.02L70.2299 104.36C70.2499 104.18 70.5199 104.2 70.5199 104.38V110.09C70.5199 110.26 70.7699 110.29 70.8099 110.13L72.2299 104.6C72.2799 104.42 72.5399 104.47 72.5199 104.65L71.7999 110.31C71.7799 110.48 72.0199 110.54 72.0799 110.38L74.1799 105.07C74.2499 104.9 74.4999 104.98 74.4599 105.16L73.0399 110.69C72.9999 110.86 73.2299 110.95 73.3099 110.8L76.0599 105.8C76.1499 105.64 76.3899 105.75 76.3199 105.92L74.2199 111.23C74.1599 111.39 74.3699 111.51 74.4699 111.37L77.8199 106.75C77.9299 106.6 78.1499 106.75 78.0699 106.91L75.3199 111.91C75.2399 112.06 75.4399 112.21 75.5499 112.08L79.4599 107.92C79.5899 107.79 79.7899 107.96 79.6799 108.11L76.3199 112.73C76.2199 112.87 76.3999 113.04 76.5299 112.93L80.9299 109.29C81.0699 109.17 81.2599 109.37 81.1299 109.5L77.2199 113.66C77.0999 113.79 77.2599 113.98 77.3999 113.88L82.2199 110.82C82.3699 110.72 82.5299 110.94 82.3899 111.06L77.9899 114.7C77.8599 114.81 77.9899 115.02 78.1499 114.94L83.3199 112.51C83.4899 112.43 83.6199 112.67 83.4599 112.77L78.6399 115.83C78.4899 115.92 78.5999 116.15 78.7599 116.09L84.1899 114.32C84.3599 114.26 84.4599 114.51 84.2999 114.59L79.1299 117.02C78.9699 117.09 79.0499 117.33 79.2199 117.3L84.8299 116.23C85.0099 116.2 85.0799 116.46 84.8999 116.51L79.4699 118.27C79.3099 118.32 79.3499 118.57 79.5199 118.56L85.2199 118.2C85.3999 118.19 85.4399 118.46 85.2599 118.49L79.6499 119.56C79.4799 119.59 79.4999 119.84 79.6699 119.85L85.3699 120.21C85.5499 120.22 85.5499 120.49 85.3699 120.5L79.6699 120.86C79.4999 120.87 79.4799 121.12 79.6499 121.15L85.2599 122.22C85.4399 122.25 85.4099 122.52 85.2199 122.51L79.5199 122.15C79.3499 122.14 79.2999 122.38 79.4699 122.44L84.8999 124.2C85.0699 124.26 85.0099 124.52 84.8299 124.48L79.2199 123.41C79.0499 123.38 78.9699 123.61 79.1299 123.69L84.2999 126.12C84.4699 126.2 84.3699 126.45 84.1899 126.39L78.7599 124.62C78.5999 124.57 78.4899 124.79 78.6399 124.88L83.4599 127.94C83.6099 128.04 83.4899 128.27 83.3199 128.2L78.1499 125.77C77.9899 125.7 77.8599 125.91 77.9899 126.01L82.3899 129.65C82.5299 129.77 82.3699 129.98 82.2199 129.89L77.3999 126.83C77.2499 126.74 77.0999 126.93 77.2199 127.05L81.1299 131.21C81.2599 131.34 81.0699 131.54 80.9299 131.42L76.5299 127.78C76.3999 127.67 76.2199 127.84 76.3199 127.98L79.6799 132.6C79.7899 132.75 79.5799 132.92 79.4599 132.79L75.5499 128.63C75.4299 128.5 75.2299 128.65 75.3199 128.8L78.0699 133.8C78.1599 133.96 77.9299 134.1 77.8199 133.96L74.4699 129.34C74.3699 129.2 74.1499 129.32 74.2199 129.48L76.3199 134.79C76.3899 134.96 76.1399 135.07 76.0599 134.91L73.3099 129.91C73.2299 129.76 72.9999 129.85 73.0399 130.02L74.4599 135.55C74.5099 135.73 74.2499 135.81 74.1799 135.64L72.0799 130.33C72.0199 130.17 71.7799 130.23 71.7999 130.4L72.5199 136.06C72.5399 136.24 72.2799 136.29 72.2299 136.11L70.8099 130.58C70.7699 130.41 70.5199 130.44 70.5199 130.62V136.33C70.5199 136.51 70.2499 136.53 70.2299 136.35L69.5199 130.69C69.4999 130.52 69.2499 130.52 69.2299 130.69L68.5199 136.35C68.4999 136.53 68.2299 136.51 68.2299 136.33V130.62C68.2299 130.45 67.9799 130.42 67.9399 130.58L66.5199 136.11C66.4699 136.29 66.2099 136.24 66.2299 136.06L66.9499 130.4C66.9699 130.23 66.7299 130.17 66.6699 130.33L64.5699 135.64C64.4999 135.81 64.2499 135.73 64.2899 135.55L65.7099 130.02C65.7499 129.85 65.5199 129.76 65.4399 129.91L62.6899 134.91C62.5999 135.07 62.3599 134.96 62.4299 134.79L64.5299 129.48C64.5899 129.32 64.3799 129.2 64.2799 129.34L60.9299 133.96C60.8199 134.11 60.5999 133.96 60.6799 133.8L63.4299 128.8C63.5099 128.65 63.3099 128.5 63.1999 128.63L59.2899 132.79C59.1599 132.92 58.9599 132.75 59.0699 132.6L62.4299 127.98C62.5299 127.84 62.3499 127.67 62.2199 127.78L57.8199 131.42C57.6799 131.54 57.4899 131.34 57.6199 131.21L61.5299 127.05C61.6499 126.92 61.4899 126.73 61.3499 126.83L56.5299 129.89C56.3799 129.99 56.2199 129.77 56.3599 129.65L60.7599 126.01C60.8899 125.9 60.7599 125.69 60.5999 125.77L55.4299 128.2C55.2599 128.28 55.1299 128.04 55.2899 127.94L60.1099 124.88C60.2599 124.79 60.1499 124.56 59.9899 124.62L54.5599 126.39C54.3899 126.45 54.2899 126.2 54.4499 126.12L59.6199 123.69C59.7799 123.62 59.6999 123.38 59.5299 123.41L53.9199 124.48C53.7399 124.51 53.6699 124.25 53.8499 124.2L59.2799 122.44C59.4399 122.39 59.3999 122.14 59.2299 122.15L53.5299 122.51C53.3499 122.52 53.3099 122.25 53.4899 122.22L59.0999 121.15C59.2699 121.12 59.2499 120.87 59.0799 120.86L53.3799 120.5C53.1999 120.49 53.1999 120.22 53.3799 120.21L59.0799 119.85C59.2499 119.84 59.2699 119.59 59.0999 119.56L53.4899 118.49C53.3099 118.46 53.3399 118.19 53.5299 118.2L59.2299 118.56C59.3999 118.57 59.4499 118.33 59.2799 118.27L53.8499 116.51C53.6799 116.45 53.7399 116.19 53.9199 116.23L59.5299 117.3C59.6999 117.33 59.7799 117.1 59.6199 117.02L54.4499 114.59C54.2799 114.51 54.3799 114.26 54.5599 114.32L59.9899 116.09C60.1499 116.14 60.2599 115.92 60.1099 115.83L55.2899 112.77C55.1399 112.67 55.2599 112.44 55.4299 112.51L60.5999 114.94C60.7599 115.01 60.8899 114.8 60.7599 114.7L56.3599 111.06C56.2199 110.94 56.3799 110.73 56.5299 110.82L61.3499 113.88C61.4999 113.97 61.6499 113.78 61.5299 113.66L57.6199 109.5C57.4899 109.37 57.6799 109.17 57.8199 109.29L62.2199 112.93C62.3499 113.04 62.5299 112.87 62.4299 112.73L59.0699 108.11C58.9599 107.96 59.1699 107.79 59.2899 107.92L63.1999 112.08C63.3199 112.21 63.5199 112.06 63.4299 111.91L60.6799 106.91C60.5899 106.75 60.8199 106.61 60.9299 106.75L64.2799 111.37C64.3799 111.51 64.5999 111.39 64.5299 111.23L62.4299 105.92C62.3599 105.75 62.6099 105.64 62.6899 105.8L65.4399 110.8C65.5199 110.95 65.7499 110.86 65.7099 110.69L64.2899 105.16C64.2399 104.98 64.4999 104.9 64.5699 105.07L66.6699 110.38C66.7299 110.54 66.9699 110.48 66.9499 110.31L66.2299 104.65C66.2099 104.47 66.4699 104.42 66.5199 104.6L67.9399 110.13C67.9799 110.3 68.2299 110.27 68.2299 110.09V104.38C68.2299 104.2 68.4999 104.18 68.5199 104.36L69.2299 110.02C69.2499 110.19 69.4999 110.19 69.5199 110.02Z" stroke="black" stroke-width="0.25" stroke-miterlimit="10" stroke-linecap="round" stroke-linejoin="round"/>
<path d="M83.5801 122.58V140.98H55.05V122.58C55.05 114.7 61.44 108.32 69.31 108.32C73.25 108.32 76.8101 109.92 79.4001 112.5C81.9801 115.07 83.5801 118.64 83.5801 122.58Z" fill="#F76D48" stroke="black" stroke-width="0.25" stroke-miterlimit="10"/>
<path d="M83.5801 122.58V140.98H55.05V122.58C55.05 114.7 61.44 108.32 69.31 108.32C73.25 108.32 76.8101 109.92 79.4001 112.5C81.9801 115.07 83.5801 118.64 83.5801 122.58Z" stroke="black" stroke-width="0.25" stroke-miterlimit="10" stroke-linecap="round" stroke-linejoin="round"/>
<path d="M79.5401 123V140.98H59.0801V123C59.0801 117.35 63.6601 112.77 69.3101 112.77C72.1401 112.77 74.6901 113.91 76.5501 115.77C78.4001 117.62 79.5401 120.17 79.5401 123Z" fill="#FCA1BD" stroke="black" stroke-width="0.25" stroke-miterlimit="10"/>
<path d="M79.5401 123V140.98H59.0801V123C59.0801 117.35 63.6601 112.77 69.3101 112.77C72.1401 112.77 74.6901 113.91 76.5501 115.77C78.4001 117.62 79.5401 120.17 79.5401 123Z" stroke="black" stroke-width="0.25" stroke-miterlimit="10" stroke-linecap="round" stroke-linejoin="round"/>
<path d="M87.56 124.47H51.24V140.98H87.56V124.47Z" fill="#EEE7DB" stroke="black" stroke-width="0.25" stroke-miterlimit="10"/>
<path d="M87.56 124.47H51.24V140.98H87.56V124.47Z" stroke="black" stroke-width="0.25" stroke-miterlimit="10" stroke-linecap="round" stroke-linejoin="round"/>
<path d="M75.41 122.98V140.98H63.21V122.98C63.21 119.61 65.94 116.88 69.31 116.88C71 116.88 72.52 117.56 73.63 118.67C74.73 119.77 75.41 121.3 75.41 122.98Z" fill="black" stroke="black" stroke-width="0.25" stroke-miterlimit="10"/>
<path d="M75.41 122.98V140.98H63.21V122.98C63.21 119.61 65.94 116.88 69.31 116.88C71 116.88 72.52 117.56 73.63 118.67C74.73 119.77 75.41 121.3 75.41 122.98Z" stroke="black" stroke-width="0.25" stroke-miterlimit="10" stroke-linecap="round" stroke-linejoin="round"/>
<path d="M63.21 140.88H75.41" stroke="black" stroke-width="0.25" stroke-miterlimit="10" stroke-linecap="round" stroke-linejoin="round"/>
<path d="M59.6199 106.75C58.5599 106.75 57.7 105.89 57.7 104.83V99.0601H61.5299V104.83C61.5399 105.89 60.6799 106.75 59.6199 106.75Z" fill="#EEE7DB" stroke="black" stroke-width="0.25" stroke-miterlimit="10"/>
<path d="M59.6199 106.75C58.5599 106.75 57.7 105.89 57.7 104.83V99.0601H61.5299V104.83C61.5399 105.89 60.6799 106.75 59.6199 106.75Z" stroke="black" stroke-width="0.25" stroke-miterlimit="10" stroke-linecap="round" stroke-linejoin="round"/>
<path d="M79.17 106.75C78.11 106.75 77.25 105.89 77.25 104.83V99.0601H81.08V104.83C81.08 105.89 80.22 106.75 79.17 106.75Z" fill="#EEE7DB" stroke="black" stroke-width="0.25" stroke-miterlimit="10"/>
<path d="M79.17 106.75C78.11 106.75 77.25 105.89 77.25 104.83V99.0601H81.08V104.83C81.08 105.89 80.22 106.75 79.17 106.75Z" stroke="black" stroke-width="0.25" stroke-miterlimit="10" stroke-linecap="round" stroke-linejoin="round"/>
<path d="M75.41 82.79H63.21V70.8C63.21 67.43 65.94 64.7001 69.31 64.7001C72.68 64.7001 75.41 67.43 75.41 70.8V82.79Z" fill="#F76D48" stroke="black" stroke-width="0.25" stroke-miterlimit="10"/>
<path d="M75.41 82.79H63.21V70.8C63.21 67.43 65.94 64.7001 69.31 64.7001C72.68 64.7001 75.41 67.43 75.41 70.8V82.79V82.79Z" stroke="black" stroke-width="0.25" stroke-miterlimit="10" stroke-linecap="round" stroke-linejoin="round"/>
<path d="M74.4 81.9201H64.2V70.9901C64.2 68.1701 66.48 65.8901 69.3 65.8901C72.12 65.8901 74.4 68.1701 74.4 70.9901V81.9201Z" fill="black" stroke="black" stroke-width="0.25" stroke-miterlimit="10"/>
<path d="M74.4 81.9201H64.2V70.9901C64.2 68.1701 66.48 65.8901 69.3 65.8901C72.12 65.8901 74.4 68.1701 74.4 70.9901V81.9201V81.9201Z" stroke="black" stroke-width="0.25" stroke-miterlimit="10" stroke-linecap="round" stroke-linejoin="round"/>
<path d="M74.2899 74.5301C74.1599 74.4201 73.9699 74.4401 73.8699 74.5601L73.1799 75.36H72.1299V72.9901C72.2499 72.9001 72.3399 72.7501 72.3399 72.5901C72.3399 72.3101 72.1099 72.0801 71.8299 72.0801C71.5499 72.0801 71.3199 72.3101 71.3199 72.5901C71.3199 72.7601 71.3999 72.9001 71.5299 72.9901V75.3701H70.9199V70.35C71.0399 70.26 71.1299 70.1101 71.1299 69.9501C71.1299 69.6701 70.8999 69.4401 70.6199 69.4401C70.3399 69.4401 70.1099 69.6701 70.1099 69.9501C70.1099 70.1201 70.1899 70.26 70.3199 70.35V71.6501C70.0899 71.4901 69.8099 71.3901 69.4999 71.3901C69.1999 71.3901 68.9199 71.4901 68.6899 71.6501V70.35C68.8099 70.26 68.8899 70.1101 68.8899 69.9501C68.8899 69.6701 68.6599 69.4401 68.3799 69.4401C68.0999 69.4401 67.8699 69.6701 67.8699 69.9501C67.8699 70.1201 67.9499 70.27 68.0799 70.36V72.7001C68.0799 72.7401 68.0699 72.7701 68.0699 72.8101C68.0699 72.8501 68.0699 72.88 68.0799 72.92V75.3701H67.2199V73.0001C67.3399 72.9101 67.4299 72.76 67.4299 72.6C67.4299 72.32 67.1999 72.0901 66.9199 72.0901C66.6399 72.0901 66.4099 72.32 66.4099 72.6C66.4099 72.77 66.4899 72.9101 66.6199 73.0001V75.3801H65.8199L65.1299 74.5801C65.0199 74.4501 64.8299 74.44 64.7099 74.55C64.5799 74.66 64.5699 74.85 64.6799 74.97L65.4599 75.8701C65.5199 75.9401 65.5999 75.97 65.6899 75.97H66.6299V76.1501C66.6299 77.0301 67.3399 77.7401 68.2199 77.7401H70.5499C71.4299 77.7401 72.1399 77.0301 72.1399 76.1501V75.97H73.3299C73.4199 75.97 73.4999 75.9301 73.5599 75.8701L74.3399 74.97C74.4299 74.83 74.4199 74.6401 74.2899 74.5301ZM69.4999 71.98C69.9499 71.98 70.3199 72.35 70.3199 72.8C70.3199 73.25 69.9499 73.6201 69.4999 73.6201C69.0699 73.6201 68.7199 73.28 68.6899 72.86V72.7501C68.7199 72.3201 69.0699 71.98 69.4999 71.98ZM71.5299 76.1401C71.5299 76.6801 71.0899 77.1301 70.5399 77.1301H68.2099C67.6699 77.1301 67.2199 76.6901 67.2199 76.1401V75.9601H68.3799C68.5499 75.9601 68.6799 75.83 68.6799 75.66V73.9601C68.9099 74.1201 69.1899 74.22 69.4899 74.22C69.7899 74.22 70.0799 74.1201 70.3099 73.9601V75.67C70.3099 75.84 70.4399 75.97 70.6099 75.97H71.5199V76.1401H71.5299Z" fill="#EEE7DB" stroke="black" stroke-width="0.25" stroke-miterlimit="10"/>
<path d="M74.2899 74.5301C74.1599 74.4201 73.9699 74.4401 73.8699 74.5601L73.1799 75.36H72.1299V72.9901C72.2499 72.9001 72.3399 72.7501 72.3399 72.5901C72.3399 72.3101 72.1099 72.0801 71.8299 72.0801C71.5499 72.0801 71.3199 72.3101 71.3199 72.5901C71.3199 72.7601 71.3999 72.9001 71.5299 72.9901V75.3701H70.9199V70.35C71.0399 70.26 71.1299 70.1101 71.1299 69.9501C71.1299 69.6701 70.8999 69.4401 70.6199 69.4401C70.3399 69.4401 70.1099 69.6701 70.1099 69.9501C70.1099 70.1201 70.1899 70.26 70.3199 70.35V71.6501C70.0899 71.4901 69.8099 71.3901 69.4999 71.3901C69.1999 71.3901 68.9199 71.4901 68.6899 71.6501V70.35C68.8099 70.26 68.8899 70.1101 68.8899 69.9501C68.8899 69.6701 68.6599 69.4401 68.3799 69.4401C68.0999 69.4401 67.8699 69.6701 67.8699 69.9501C67.8699 70.1201 67.9499 70.27 68.0799 70.36V72.7001C68.0799 72.7401 68.0699 72.7701 68.0699 72.8101C68.0699 72.8501 68.0699 72.88 68.0799 72.92V75.3701H67.2199V73.0001C67.3399 72.9101 67.4299 72.76 67.4299 72.6C67.4299 72.32 67.1999 72.0901 66.9199 72.0901C66.6399 72.0901 66.4099 72.32 66.4099 72.6C66.4099 72.77 66.4899 72.9101 66.6199 73.0001V75.3801H65.8199L65.1299 74.5801C65.0199 74.4501 64.8299 74.44 64.7099 74.55C64.5799 74.66 64.5699 74.85 64.6799 74.97L65.4599 75.8701C65.5199 75.9401 65.5999 75.97 65.6899 75.97H66.6299V76.1501C66.6299 77.0301 67.3399 77.7401 68.2199 77.7401H70.5499C71.4299 77.7401 72.1399 77.0301 72.1399 76.1501V75.97H73.3299C73.4199 75.97 73.4999 75.9301 73.5599 75.8701L74.3399 74.97C74.4299 74.83 74.4199 74.6401 74.2899 74.5301ZM69.4999 71.98C69.9499 71.98 70.3199 72.35 70.3199 72.8C70.3199 73.25 69.9499 73.6201 69.4999 73.6201C69.0699 73.6201 68.7199 73.28 68.6899 72.86V72.7501C68.7199 72.3201 69.0699 71.98 69.4999 71.98ZM71.5299 76.1401C71.5299 76.6801 71.0899 77.1301 70.5399 77.1301H68.2099C67.6699 77.1301 67.2199 76.6901 67.2199 76.1401V75.9601H68.3799C68.5499 75.9601 68.6799 75.83 68.6799 75.66V73.9601C68.9099 74.1201 69.1899 74.22 69.4899 74.22C69.7899 74.22 70.0799 74.1201 70.3099 73.9601V75.67C70.3099 75.84 70.4399 75.97 70.6099 75.97H71.5199V76.1401H71.5299Z" stroke="black" stroke-width="0.25" stroke-miterlimit="10" stroke-linecap="round" stroke-linejoin="round"/>
<path d="M85.2299 73.29V82.79H79.1299V71.0001C79.1299 68.3901 80.7599 66.17 83.0599 65.29C83.1699 65.47 83.2699 65.6501 83.3599 65.8301C84.5599 68.0601 85.2299 70.6 85.2299 73.29Z" fill="#F76D48" stroke="black" stroke-width="0.25" stroke-miterlimit="10"/>
<path d="M85.2299 73.29V82.79H79.1299V71.0001C79.1299 68.3901 80.7599 66.17 83.0599 65.29C83.1699 65.47 83.2699 65.6501 83.3599 65.8301C84.5599 68.0601 85.2299 70.6 85.2299 73.29Z" stroke="black" stroke-width="0.25" stroke-miterlimit="10" stroke-linecap="round" stroke-linejoin="round"/>
<path d="M85.23 73.29V82.79H80.52V71.0001C80.52 68.8301 81.66 66.9201 83.37 65.8401C84.56 68.0601 85.23 70.6 85.23 73.29Z" fill="black" stroke="black" stroke-width="0.25" stroke-miterlimit="10"/>
<path d="M85.23 73.29V82.79H80.52V71.0001C80.52 68.8301 81.66 66.9201 83.37 65.8401C84.56 68.0601 85.23 70.6 85.23 73.29Z" stroke="black" stroke-width="0.25" stroke-miterlimit="10" stroke-linecap="round" stroke-linejoin="round"/>
<path d="M59.6501 70.8001V82.7901H53.5601V73.0901C53.5601 70.4301 54.2201 67.9201 55.3801 65.7201C55.4901 65.5101 55.6101 65.3001 55.7301 65.1001C56.5401 65.4101 57.2701 65.8901 57.8701 66.4901C58.9701 67.5901 59.6501 69.1201 59.6501 70.8001Z" fill="#F76D48" stroke="black" stroke-width="0.25" stroke-miterlimit="10"/>
<path d="M59.6501 70.8001V82.7901H53.5601V73.0901C53.5601 70.4301 54.2201 67.9201 55.3801 65.7201C55.4901 65.5101 55.6101 65.3001 55.7301 65.1001C56.5401 65.4101 57.2701 65.8901 57.8701 66.4901C58.9701 67.5901 59.6501 69.1201 59.6501 70.8001Z" stroke="black" stroke-width="0.25" stroke-miterlimit="10" stroke-linecap="round" stroke-linejoin="round"/>
<path d="M58.1001 70.8V82.79H53.5601V73.09C53.5601 70.43 54.2201 67.92 55.3801 65.72C55.7201 65.94 56.0301 66.2 56.3201 66.49C57.4101 67.59 58.1001 69.12 58.1001 70.8Z" fill="black" stroke="black" stroke-width="0.25" stroke-miterlimit="10"/>
<path d="M58.1001 70.8V82.79H53.5601V73.09C53.5601 70.43 54.2201 67.92 55.3801 65.72C55.7201 65.94 56.0301 66.2 56.3201 66.49C57.4101 67.59 58.1001 69.12 58.1001 70.8Z" stroke="black" stroke-width="0.25" stroke-miterlimit="10" stroke-linecap="round" stroke-linejoin="round"/>
<path d="M74.92 82.91H63.7C63.43 82.91 63.21 82.69 63.21 82.42C63.21 82.15 63.43 81.9301 63.7 81.9301H74.92C75.19 81.9301 75.41 82.15 75.41 82.42C75.41 82.69 75.19 82.91 74.92 82.91Z" fill="#EEE7DB" stroke="black" stroke-width="0.25" stroke-miterlimit="10"/>
<path d="M74.92 82.91H63.7C63.43 82.91 63.21 82.69 63.21 82.42C63.21 82.15 63.43 81.9301 63.7 81.9301H74.92C75.19 81.9301 75.41 82.15 75.41 82.42C75.41 82.69 75.19 82.91 74.92 82.91Z" stroke="black" stroke-width="0.25" stroke-miterlimit="10" stroke-linecap="round" stroke-linejoin="round"/>
<path d="M85.1399 82.42C85.1399 82.69 84.9199 82.91 84.6499 82.91H79.6299C79.3599 82.91 79.1399 82.69 79.1399 82.42C79.1399 82.15 79.3599 81.9301 79.6299 81.9301H84.6499C84.9199 81.9301 85.1399 82.15 85.1399 82.42Z" fill="#EEE7DB" stroke="black" stroke-width="0.25" stroke-miterlimit="10"/>
<path d="M85.1399 82.42C85.1399 82.69 84.9199 82.91 84.6499 82.91H79.6299C79.3599 82.91 79.1399 82.69 79.1399 82.42C79.1399 82.15 79.3599 81.9301 79.6299 81.9301H84.6499C84.9199 81.9301 85.1399 82.15 85.1399 82.42Z" stroke="black" stroke-width="0.25" stroke-miterlimit="10" stroke-linecap="round" stroke-linejoin="round"/>
<path d="M59.65 82.42C59.65 82.69 59.43 82.91 59.16 82.91H53.95C53.68 82.91 53.46 82.69 53.46 82.42C53.46 82.15 53.68 81.9301 53.95 81.9301H59.16C59.43 81.9301 59.65 82.15 59.65 82.42Z" fill="#EEE7DB" stroke="black" stroke-width="0.25" stroke-miterlimit="10"/>
<path d="M59.65 82.42C59.65 82.69 59.43 82.91 59.16 82.91H53.95C53.68 82.91 53.46 82.69 53.46 82.42C53.46 82.15 53.68 81.9301 53.95 81.9301H59.16C59.43 81.9301 59.65 82.15 59.65 82.42Z" stroke="black" stroke-width="0.25" stroke-miterlimit="10" stroke-linecap="round" stroke-linejoin="round"/>
</svg>
