<svg width="141" height="170" viewBox="0 0 141 170" fill="none" xmlns="http://www.w3.org/2000/svg">
<path d="M136.91 70.39C136.8 86.01 131.34 100.34 122.22 111.61L75.4101 164.2C72.7401 167.2 68.0401 167.2 65.3701 164.2L18.5601 111.61C9.35012 100.23 3.87012 85.73 3.87012 69.93C3.87012 33.15 33.7401 3.32995 70.5401 3.40995C107.03 3.48995 137.16 33.91 136.91 70.39Z" fill="white"/>
<path d="M81.3298 37.0999H60.3499C60.3499 33.7699 63.0498 31.08 66.3698 31.08H75.2999C78.6299 31.07 81.3298 33.7699 81.3298 37.0999Z" fill="#030303" stroke="black" stroke-width="0.25" stroke-miterlimit="10"/>
<path d="M81.3298 37.0999H60.3499C60.3499 33.7699 63.0498 31.08 66.3698 31.08H75.2999C78.6299 31.07 81.3298 33.7699 81.3298 37.0999Z" stroke="black" stroke-width="0.25" stroke-miterlimit="10"/>
<path d="M75.22 37.0999H71.03V29.0399C71.03 27.8799 71.97 26.9399 73.13 26.9399C74.29 26.9399 75.23 27.8799 75.23 29.0399V37.0999H75.22Z" fill="#F76D48" stroke="black" stroke-width="0.25" stroke-miterlimit="10"/>
<path d="M75.22 37.0999H71.03V29.0399C71.03 27.8799 71.97 26.9399 73.13 26.9399C74.29 26.9399 75.23 27.8799 75.23 29.0399V37.0999H75.22Z" stroke="black" stroke-width="0.25" stroke-miterlimit="10"/>
<path d="M83.06 45.9099H58.49V39.1699C58.49 38.0199 59.42 37.0999 60.56 37.0999H80.98C82.13 37.0999 83.05 38.0299 83.05 39.1699V45.9099H83.06Z" fill="#EEE7DB" stroke="black" stroke-width="0.25" stroke-miterlimit="10"/>
<path d="M83.06 45.9099H58.49V39.1699C58.49 38.0199 59.42 37.0999 60.56 37.0999H80.98C82.13 37.0999 83.05 38.0299 83.05 39.1699V45.9099H83.06Z" stroke="black" stroke-width="0.25" stroke-miterlimit="10"/>
<path d="M86.0499 45.9099H55.3799V123.18H86.0499V45.9099Z" fill="#030303" stroke="black" stroke-width="0.25" stroke-miterlimit="10"/>
<path d="M86.0499 45.9099H55.3799V123.18H86.0499V45.9099Z" stroke="black" stroke-width="0.25" stroke-miterlimit="10"/>
<path d="M57.5 125.45C56.96 125.45 56.52 125.01 56.52 124.47V49.1699C56.52 48.6299 56.96 48.1899 57.5 48.1899C58.04 48.1899 58.48 48.6299 58.48 49.1699V124.47C58.48 125.01 58.04 125.45 57.5 125.45Z" fill="#EEE7DB" stroke="black" stroke-width="0.25" stroke-miterlimit="10"/>
<path d="M57.5 125.45C56.96 125.45 56.52 125.01 56.52 124.47V49.1699C56.52 48.6299 56.96 48.1899 57.5 48.1899C58.04 48.1899 58.48 48.6299 58.48 49.1699V124.47C58.48 125.01 58.04 125.45 57.5 125.45Z" stroke="black" stroke-width="0.25" stroke-miterlimit="10"/>
<path d="M61.4799 123.18C61.1499 123.18 60.8799 122.91 60.8799 122.58V49.4C60.8799 49.07 61.1499 48.7999 61.4799 48.7999C61.8099 48.7999 62.0799 49.07 62.0799 49.4V122.58C62.0799 122.91 61.8099 123.18 61.4799 123.18Z" fill="#FCA1BD" stroke="black" stroke-width="0.25" stroke-miterlimit="10"/>
<path d="M61.4799 123.18C61.1499 123.18 60.8799 122.91 60.8799 122.58V49.4C60.8799 49.07 61.1499 48.7999 61.4799 48.7999C61.8099 48.7999 62.0799 49.07 62.0799 49.4V122.58C62.0799 122.91 61.8099 123.18 61.4799 123.18Z" stroke="black" stroke-width="0.25" stroke-miterlimit="10"/>
<path d="M66.1601 123.18C65.8301 123.18 65.5601 122.91 65.5601 122.58V49.4C65.5601 49.07 65.8301 48.7999 66.1601 48.7999C66.4901 48.7999 66.7601 49.07 66.7601 49.4V122.58C66.7701 122.91 66.5001 123.18 66.1601 123.18Z" fill="#FCA1BD" stroke="black" stroke-width="0.25" stroke-miterlimit="10"/>
<path d="M66.1601 123.18C65.8301 123.18 65.5601 122.91 65.5601 122.58V49.4C65.5601 49.07 65.8301 48.7999 66.1601 48.7999C66.4901 48.7999 66.7601 49.07 66.7601 49.4V122.58C66.7701 122.91 66.5001 123.18 66.1601 123.18Z" stroke="black" stroke-width="0.25" stroke-miterlimit="10"/>
<path d="M70.85 123.18C70.52 123.18 70.25 122.91 70.25 122.58V49.4C70.25 49.07 70.52 48.7999 70.85 48.7999C71.18 48.7999 71.45 49.07 71.45 49.4V122.58C71.45 122.91 71.18 123.18 70.85 123.18Z" fill="#FCA1BD" stroke="black" stroke-width="0.25" stroke-miterlimit="10"/>
<path d="M70.85 123.18C70.52 123.18 70.25 122.91 70.25 122.58V49.4C70.25 49.07 70.52 48.7999 70.85 48.7999C71.18 48.7999 71.45 49.07 71.45 49.4V122.58C71.45 122.91 71.18 123.18 70.85 123.18Z" stroke="black" stroke-width="0.25" stroke-miterlimit="10"/>
<path d="M75.5399 123.18C75.2099 123.18 74.9399 122.91 74.9399 122.58V49.4C74.9399 49.07 75.2099 48.7999 75.5399 48.7999C75.8699 48.7999 76.1399 49.07 76.1399 49.4V122.58C76.1399 122.91 75.8699 123.18 75.5399 123.18Z" fill="#FCA1BD" stroke="black" stroke-width="0.25" stroke-miterlimit="10"/>
<path d="M75.5399 123.18C75.2099 123.18 74.9399 122.91 74.9399 122.58V49.4C74.9399 49.07 75.2099 48.7999 75.5399 48.7999C75.8699 48.7999 76.1399 49.07 76.1399 49.4V122.58C76.1399 122.91 75.8699 123.18 75.5399 123.18Z" stroke="black" stroke-width="0.25" stroke-miterlimit="10"/>
<path d="M80.2199 123.18C79.8899 123.18 79.6199 122.91 79.6199 122.58V49.4C79.6199 49.07 79.8899 48.7999 80.2199 48.7999C80.5499 48.7999 80.8199 49.07 80.8199 49.4V122.58C80.8299 122.91 80.5599 123.18 80.2199 123.18Z" fill="#FCA1BD" stroke="black" stroke-width="0.25" stroke-miterlimit="10"/>
<path d="M80.2199 123.18C79.8899 123.18 79.6199 122.91 79.6199 122.58V49.4C79.6199 49.07 79.8899 48.7999 80.2199 48.7999C80.5499 48.7999 80.8199 49.07 80.8199 49.4V122.58C80.8299 122.91 80.5599 123.18 80.2199 123.18Z" stroke="black" stroke-width="0.25" stroke-miterlimit="10"/>
<path d="M83.06 54.7899C83.06 55.1199 82.79 55.39 82.46 55.39H59.1C58.77 55.39 58.5 55.1199 58.5 54.7899C58.5 54.4599 58.77 54.19 59.1 54.19H82.46C82.78 54.18 83.06 54.4499 83.06 54.7899Z" fill="#FCA1BD" stroke="black" stroke-width="0.25" stroke-miterlimit="10"/>
<path d="M83.06 54.7899C83.06 55.1199 82.79 55.39 82.46 55.39H59.1C58.77 55.39 58.5 55.1199 58.5 54.7899C58.5 54.4599 58.77 54.19 59.1 54.19H82.46C82.78 54.18 83.06 54.4499 83.06 54.7899Z" stroke="black" stroke-width="0.25" stroke-miterlimit="10"/>
<path d="M83.06 60.4C83.06 60.73 82.79 60.9999 82.46 60.9999H59.1C58.77 60.9999 58.5 60.73 58.5 60.4C58.5 60.07 58.77 59.7999 59.1 59.7999H82.46C82.78 59.7999 83.06 60.07 83.06 60.4Z" fill="#FCA1BD" stroke="black" stroke-width="0.25" stroke-miterlimit="10"/>
<path d="M83.06 60.4C83.06 60.73 82.79 60.9999 82.46 60.9999H59.1C58.77 60.9999 58.5 60.73 58.5 60.4C58.5 60.07 58.77 59.7999 59.1 59.7999H82.46C82.78 59.7999 83.06 60.07 83.06 60.4Z" stroke="black" stroke-width="0.25" stroke-miterlimit="10"/>
<path d="M83.06 66.02C83.06 66.35 82.79 66.62 82.46 66.62H59.1C58.77 66.62 58.5 66.35 58.5 66.02C58.5 65.69 58.77 65.4199 59.1 65.4199H82.46C82.78 65.4099 83.06 65.68 83.06 66.02Z" fill="#FCA1BD" stroke="black" stroke-width="0.25" stroke-miterlimit="10"/>
<path d="M83.06 66.02C83.06 66.35 82.79 66.62 82.46 66.62H59.1C58.77 66.62 58.5 66.35 58.5 66.02C58.5 65.69 58.77 65.4199 59.1 65.4199H82.46C82.78 65.4099 83.06 65.68 83.06 66.02Z" stroke="black" stroke-width="0.25" stroke-miterlimit="10"/>
<path d="M83.06 71.63C83.06 71.96 82.79 72.23 82.46 72.23H59.1C58.77 72.23 58.5 71.96 58.5 71.63C58.5 71.3 58.77 71.03 59.1 71.03H82.46C82.78 71.03 83.06 71.3 83.06 71.63Z" fill="#FCA1BD" stroke="black" stroke-width="0.25" stroke-miterlimit="10"/>
<path d="M83.06 71.63C83.06 71.96 82.79 72.23 82.46 72.23H59.1C58.77 72.23 58.5 71.96 58.5 71.63C58.5 71.3 58.77 71.03 59.1 71.03H82.46C82.78 71.03 83.06 71.3 83.06 71.63Z" stroke="black" stroke-width="0.25" stroke-miterlimit="10"/>
<path d="M83.06 77.2399C83.06 77.5699 82.79 77.8399 82.46 77.8399H59.1C58.77 77.8399 58.5 77.5699 58.5 77.2399C58.5 76.9099 58.77 76.6399 59.1 76.6399H82.46C82.78 76.6399 83.06 76.9099 83.06 77.2399Z" fill="#FCA1BD" stroke="black" stroke-width="0.25" stroke-miterlimit="10"/>
<path d="M83.06 77.2399C83.06 77.5699 82.79 77.8399 82.46 77.8399H59.1C58.77 77.8399 58.5 77.5699 58.5 77.2399C58.5 76.9099 58.77 76.6399 59.1 76.6399H82.46C82.78 76.6399 83.06 76.9099 83.06 77.2399Z" stroke="black" stroke-width="0.25" stroke-miterlimit="10"/>
<path d="M83.06 82.86C83.06 83.19 82.79 83.46 82.46 83.46H59.1C58.77 83.46 58.5 83.19 58.5 82.86C58.5 82.53 58.77 82.26 59.1 82.26H82.46C82.78 82.26 83.06 82.53 83.06 82.86Z" fill="#FCA1BD" stroke="black" stroke-width="0.25" stroke-miterlimit="10"/>
<path d="M83.06 82.86C83.06 83.19 82.79 83.46 82.46 83.46H59.1C58.77 83.46 58.5 83.19 58.5 82.86C58.5 82.53 58.77 82.26 59.1 82.26H82.46C82.78 82.26 83.06 82.53 83.06 82.86Z" stroke="black" stroke-width="0.25" stroke-miterlimit="10"/>
<path d="M83.06 88.4698C83.06 88.7998 82.79 89.0699 82.46 89.0699H59.1C58.77 89.0699 58.5 88.7998 58.5 88.4698C58.5 88.1398 58.77 87.8699 59.1 87.8699H82.46C82.78 87.8699 83.06 88.1398 83.06 88.4698Z" fill="#FCA1BD" stroke="black" stroke-width="0.25" stroke-miterlimit="10"/>
<path d="M83.06 88.4698C83.06 88.7998 82.79 89.0699 82.46 89.0699H59.1C58.77 89.0699 58.5 88.7998 58.5 88.4698C58.5 88.1398 58.77 87.8699 59.1 87.8699H82.46C82.78 87.8699 83.06 88.1398 83.06 88.4698Z" stroke="black" stroke-width="0.25" stroke-miterlimit="10"/>
<path d="M83.06 94.09C83.06 94.42 82.79 94.69 82.46 94.69H59.1C58.77 94.69 58.5 94.42 58.5 94.09C58.5 93.76 58.77 93.49 59.1 93.49H82.46C82.78 93.48 83.06 93.76 83.06 94.09Z" fill="#FCA1BD" stroke="black" stroke-width="0.25" stroke-miterlimit="10"/>
<path d="M83.06 94.09C83.06 94.42 82.79 94.69 82.46 94.69H59.1C58.77 94.69 58.5 94.42 58.5 94.09C58.5 93.76 58.77 93.49 59.1 93.49H82.46C82.78 93.48 83.06 93.76 83.06 94.09Z" stroke="black" stroke-width="0.25" stroke-miterlimit="10"/>
<path d="M83.06 99.6999C83.06 100.03 82.79 100.3 82.46 100.3H59.1C58.77 100.3 58.5 100.03 58.5 99.6999C58.5 99.3699 58.77 99.0999 59.1 99.0999H82.46C82.78 99.0999 83.06 99.3699 83.06 99.6999Z" fill="#FCA1BD" stroke="black" stroke-width="0.25" stroke-miterlimit="10"/>
<path d="M83.06 99.6999C83.06 100.03 82.79 100.3 82.46 100.3H59.1C58.77 100.3 58.5 100.03 58.5 99.6999C58.5 99.3699 58.77 99.0999 59.1 99.0999H82.46C82.78 99.0999 83.06 99.3699 83.06 99.6999Z" stroke="black" stroke-width="0.25" stroke-miterlimit="10"/>
<path d="M83.06 105.32C83.06 105.65 82.79 105.92 82.46 105.92H59.1C58.77 105.92 58.5 105.65 58.5 105.32C58.5 104.99 58.77 104.72 59.1 104.72H82.46C82.78 104.71 83.06 104.99 83.06 105.32Z" fill="#FCA1BD" stroke="black" stroke-width="0.25" stroke-miterlimit="10"/>
<path d="M83.06 105.32C83.06 105.65 82.79 105.92 82.46 105.92H59.1C58.77 105.92 58.5 105.65 58.5 105.32C58.5 104.99 58.77 104.72 59.1 104.72H82.46C82.78 104.71 83.06 104.99 83.06 105.32Z" stroke="black" stroke-width="0.25" stroke-miterlimit="10"/>
<path d="M83.06 110.93C83.06 111.26 82.79 111.53 82.46 111.53H59.1C58.77 111.53 58.5 111.26 58.5 110.93C58.5 110.6 58.77 110.33 59.1 110.33H82.46C82.78 110.33 83.06 110.6 83.06 110.93Z" fill="#FCA1BD" stroke="black" stroke-width="0.25" stroke-miterlimit="10"/>
<path d="M83.06 110.93C83.06 111.26 82.79 111.53 82.46 111.53H59.1C58.77 111.53 58.5 111.26 58.5 110.93C58.5 110.6 58.77 110.33 59.1 110.33H82.46C82.78 110.33 83.06 110.6 83.06 110.93Z" stroke="black" stroke-width="0.25" stroke-miterlimit="10"/>
<path d="M83.06 116.55C83.06 116.88 82.79 117.15 82.46 117.15H59.1C58.77 117.15 58.5 116.88 58.5 116.55C58.5 116.22 58.77 115.95 59.1 115.95H82.46C82.78 115.94 83.06 116.21 83.06 116.55Z" fill="#FCA1BD" stroke="black" stroke-width="0.25" stroke-miterlimit="10"/>
<path d="M83.06 116.55C83.06 116.88 82.79 117.15 82.46 117.15H59.1C58.77 117.15 58.5 116.88 58.5 116.55C58.5 116.22 58.77 115.95 59.1 115.95H82.46C82.78 115.94 83.06 116.21 83.06 116.55Z" stroke="black" stroke-width="0.25" stroke-miterlimit="10"/>
<path d="M84.95 48.1799H82.98V125.45H84.95V48.1799Z" fill="#EEE7DB" stroke="black" stroke-width="0.25" stroke-miterlimit="10"/>
<path d="M84.95 48.1799H82.98V125.45H84.95V48.1799Z" stroke="black" stroke-width="0.25" stroke-miterlimit="10"/>
<path d="M55.65 123.18H86.1C86.73 123.18 87.23 123.69 87.23 124.31C87.23 124.94 86.72 125.44 86.1 125.44H55.65C55.02 125.44 54.52 124.93 54.52 124.31C54.52 123.69 55.03 123.18 55.65 123.18Z" fill="#F76D48" stroke="black" stroke-width="0.25" stroke-miterlimit="10"/>
<path d="M55.65 123.18H86.1C86.73 123.18 87.23 123.69 87.23 124.31C87.23 124.94 86.72 125.44 86.1 125.44H55.65C55.02 125.44 54.52 124.93 54.52 124.31C54.52 123.69 55.03 123.18 55.65 123.18Z" stroke="black" stroke-width="0.25" stroke-miterlimit="10"/>
<path d="M57.5 50.14C56.96 50.14 56.52 49.6999 56.52 49.1599V46.28C56.52 45.74 56.96 45.2999 57.5 45.2999C58.04 45.2999 58.48 45.74 58.48 46.28V49.1599C58.48 49.6999 58.04 50.14 57.5 50.14Z" fill="#F76D48" stroke="black" stroke-width="0.25" stroke-miterlimit="10"/>
<path d="M57.5 50.14C56.96 50.14 56.52 49.6999 56.52 49.1599V46.28C56.52 45.74 56.96 45.2999 57.5 45.2999C58.04 45.2999 58.48 45.74 58.48 46.28V49.1599C58.48 49.6999 58.04 50.14 57.5 50.14Z" stroke="black" stroke-width="0.25" stroke-miterlimit="10"/>
<path d="M83.96 50.14C83.42 50.14 82.98 49.6999 82.98 49.1599V46.28C82.98 45.74 83.42 45.2999 83.96 45.2999C84.5 45.2999 84.94 45.74 84.94 46.28V49.1599C84.94 49.6999 84.5 50.14 83.96 50.14Z" fill="#F76D48" stroke="black" stroke-width="0.25" stroke-miterlimit="10"/>
<path d="M83.96 50.14C83.42 50.14 82.98 49.6999 82.98 49.1599V46.28C82.98 45.74 83.42 45.2999 83.96 45.2999C84.5 45.2999 84.94 45.74 84.94 46.28V49.1599C84.94 49.6999 84.5 50.14 83.96 50.14Z" stroke="black" stroke-width="0.25" stroke-miterlimit="10"/>
<path d="M80.1 48.7899H61.36C59.77 48.7899 58.48 47.4999 58.48 45.9099H82.98C82.98 47.4999 81.69 48.7899 80.1 48.7899Z" fill="#F76D48" stroke="black" stroke-width="0.25" stroke-miterlimit="10"/>
<path d="M80.1 48.7899H61.36C59.77 48.7899 58.48 47.4999 58.48 45.9099H82.98C82.98 47.4999 81.69 48.7899 80.1 48.7899Z" stroke="black" stroke-width="0.25" stroke-miterlimit="10"/>
<path d="M74.26 38.7999V42.6099H88.39L74.26 38.7999Z" fill="#F76D48" stroke="black" stroke-width="0.25" stroke-miterlimit="10"/>
<path d="M74.26 38.7999V42.6099H88.39L74.26 38.7999Z" stroke="black" stroke-width="0.25" stroke-miterlimit="10"/>
<path d="M67.99 33.0599C64.53 33.0599 61.72 35.87 61.72 39.33V39.7299H56.41C51.88 39.7299 48.21 43.3999 48.21 47.9299C48.21 52.0699 51.28 55.4999 55.27 56.0499V53.1099C52.89 52.5899 51.1 50.4599 51.1 47.9199C51.1 45.3799 52.89 43.2499 55.27 42.7299C55.64 42.6499 56.02 42.6099 56.41 42.6099H61.72V42.6199H74.2599V39.3199C74.2599 35.8599 71.45 33.0599 67.99 33.0599Z" fill="#FCA1BD" stroke="black" stroke-width="0.25" stroke-miterlimit="10"/>
<path d="M67.99 33.0599C64.53 33.0599 61.72 35.87 61.72 39.33V39.7299H56.41C51.88 39.7299 48.21 43.3999 48.21 47.9299C48.21 52.0699 51.28 55.4999 55.27 56.0499V53.1099C52.89 52.5899 51.1 50.4599 51.1 47.9199C51.1 45.3799 52.89 43.2499 55.27 42.7299C55.64 42.6499 56.02 42.6099 56.41 42.6099H61.72V42.6199H74.2599V39.3199C74.2599 35.8599 71.45 33.0599 67.99 33.0599Z" stroke="black" stroke-width="0.25" stroke-miterlimit="10"/>
<path d="M67.8899 37.8799C67.8899 37.0099 68.5899 36.3099 69.4599 36.3099C70.3299 36.3099 71.0299 37.0099 71.0299 37.8799C71.0299 38.7499 70.3299 39.45 69.4599 39.45C68.5999 39.46 67.8899 38.7499 67.8899 37.8799Z" fill="#EEE7DB" stroke="black" stroke-width="0.25" stroke-miterlimit="10"/>
<path d="M67.8899 37.8799C67.8899 37.0099 68.5899 36.3099 69.4599 36.3099C70.3299 36.3099 71.0299 37.0099 71.0299 37.8799C71.0299 38.7499 70.3299 39.45 69.4599 39.45C68.5999 39.46 67.8899 38.7499 67.8899 37.8799Z" stroke="black" stroke-width="0.25" stroke-miterlimit="10"/>
<path d="M67.8899 37.8799C67.8899 37.0099 68.5899 36.3099 69.4599 36.3099C70.3299 36.3099 71.0299 37.0099 71.0299 37.8799H67.8899Z" fill="black" stroke="black" stroke-width="0.25" stroke-miterlimit="10"/>
<path d="M67.8899 37.8799C67.8899 37.0099 68.5899 36.3099 69.4599 36.3099C70.3299 36.3099 71.0299 37.0099 71.0299 37.8799H67.8899Z" stroke="black" stroke-width="0.25" stroke-miterlimit="10"/>
<path d="M81.39 32.8499C81.82 32.5999 81.97 32.0499 81.72 31.6099C81.47 31.1799 80.92 31.03 80.48 31.28C80.15 31.47 79.99 31.8299 80.03 32.1899L79.26 32.6299L79.53 33.0999L80.26 32.6799C80.56 32.9899 81.02 33.0699 81.39 32.8499Z" fill="#030303" stroke="black" stroke-width="0.25" stroke-miterlimit="10"/>
<path d="M81.39 32.8499C81.82 32.5999 81.97 32.0499 81.72 31.6099C81.47 31.1799 80.92 31.03 80.48 31.28C80.15 31.47 79.99 31.8299 80.03 32.1899L79.26 32.6299L79.53 33.0999L80.26 32.6799C80.56 32.9899 81.02 33.0699 81.39 32.8499Z" stroke="black" stroke-width="0.25" stroke-miterlimit="10"/>
<path d="M81.66 33.3099C81.31 33.5099 81.14 33.9098 81.23 34.2898L80.48 34.7198L80.75 35.1899L81.5 34.7599C81.78 35.0199 82.21 35.0799 82.57 34.8799C83 34.6299 83.15 34.0799 82.9 33.6399C82.65 33.2099 82.09 33.0599 81.66 33.3099Z" fill="#030303" stroke="black" stroke-width="0.25" stroke-miterlimit="10"/>
<path d="M81.66 33.3099C81.31 33.5099 81.14 33.9098 81.23 34.2898L80.48 34.7198L80.75 35.1899L81.5 34.7599C81.78 35.0199 82.21 35.0799 82.57 34.8799C83 34.6299 83.15 34.0799 82.9 33.6399C82.65 33.2099 82.09 33.0599 81.66 33.3099Z" stroke="black" stroke-width="0.25" stroke-miterlimit="10"/>
<path d="M119.73 21.02C106.5 7.67002 89.03 0.30001 70.55 0.26001H70.39C51.81 0.26001 34.34 7.49 21.18 20.62C7.97996 33.79 0.719971 51.3 0.719971 69.93C0.719971 71.88 0.799976 73.83 0.959976 75.77C1.02998 76.54 1.10997 77.3 1.19997 78.06C1.26997 78.7 1.35998 79.35 1.45998 79.99C1.67998 81.53 1.94997 83.05 2.27997 84.57C2.31997 84.76 2.36997 84.96 2.40997 85.15C2.57997 85.91 2.75998 86.67 2.95998 87.43C3.48998 89.48 4.11997 91.5 4.82997 93.49C7.44997 100.77 11.27 107.61 16.21 113.71L63.01 166.3C64.89 168.4 67.58 169.61 70.39 169.61C73.21 169.61 75.9 168.4 77.76 166.3L124.67 113.6C129.62 107.48 133.42 100.71 136.01 93.49C136.03 93.45 136.04 93.4 136.06 93.36C136.75 91.42 137.36 89.45 137.87 87.45C138.06 86.7 138.24 85.95 138.41 85.19C138.46 84.99 138.5 84.78 138.54 84.57C138.87 83.06 139.14 81.53 139.36 79.99C139.45 79.35 139.53 78.7 139.6 78.06C139.69 77.3 139.77 76.54 139.82 75.77C139.97 74 140.05 72.22 140.06 70.42C140.19 51.92 132.97 34.38 119.73 21.02ZM133.5 75.77C133.43 76.53 133.35 77.3 133.25 78.06C133.17 78.71 133.08 79.35 132.98 79.99C132.73 81.53 132.44 83.06 132.08 84.57C131.88 85.42 131.67 86.27 131.43 87.11C131.12 88.22 130.78 89.31 130.41 90.4C130.28 90.81 130.14 91.21 129.99 91.61C129.76 92.24 129.52 92.87 129.27 93.49C126.98 99.23 123.82 104.62 119.86 109.52L73.05 162.11C72.37 162.88 71.42 163.3 70.39 163.3C69.36 163.3 68.41 162.88 67.73 162.1L21.01 109.63C17.06 104.74 13.88 99.29 11.56 93.49C11.31 92.87 11.07 92.25 10.85 91.62C10.7 91.22 10.56 90.82 10.43 90.42V90.41C9.97996 89.12 9.57997 87.82 9.22997 86.49C9.04996 85.85 8.88997 85.21 8.72997 84.57C8.37997 83.06 8.06997 81.53 7.82997 79.99C7.71997 79.35 7.62997 78.71 7.54997 78.06C7.44997 77.3 7.35996 76.54 7.28996 75.77C7.10996 73.83 7.01997 71.89 7.01997 69.93C7.01997 52.99 13.63 37.06 25.64 25.08C37.61 13.14 53.49 6.57001 70.39 6.57001H70.53C87.33 6.60001 103.21 13.31 115.26 25.46C127.3 37.62 133.87 53.57 133.76 70.37C133.75 72.18 133.66 73.98 133.5 75.77Z" fill="black"/>
</svg>
