<svg width="67" height="240" viewBox="0 0 67 240" fill="none" xmlns="http://www.w3.org/2000/svg">
<path d="M8.30444 16.0152C8.01521 15.4086 8.05308 14.8189 8.41805 14.246C8.78302 13.6732 9.31994 13.3773 10.0288 13.3583L36.1869 12.0925C37.1 12.0559 37.7322 12.4058 38.0834 13.1424C38.4553 13.9223 38.3293 14.6338 37.7053 15.2769L20.2058 34.8684C19.7128 35.3959 19.1398 35.616 18.4866 35.5286C17.8654 35.4526 17.405 35.1005 17.1054 34.4723C16.9505 34.1473 16.8873 33.7919 16.916 33.4059C16.9767 33.0314 17.1385 32.7016 17.4015 32.4167L21.0831 28.4277L15.5205 16.7621L10.088 17.0791C9.6691 17.0927 9.30068 16.9892 8.98276 16.7686C8.67517 16.5696 8.44906 16.3185 8.30444 16.0152ZM18.8574 16.5668L23.3353 25.9578L32.6878 15.795L18.8574 16.5668Z" fill="#45396D"/>
<path d="M13.5622 48.7864C13.4033 48.2828 13.4414 47.8053 13.6764 47.3536C13.8957 46.9321 14.2571 46.6419 14.7607 46.483L30.416 41.5437C32.2313 40.9962 33.99 40.9069 35.6919 41.2759C37.3938 41.6449 38.8806 42.409 40.1522 43.5681C41.4468 44.7199 42.3757 46.1885 42.939 47.9738C43.5094 49.7819 43.5951 51.5291 43.196 53.2153C42.8197 54.8943 42.0406 56.3733 40.8586 57.6522C39.6839 58.954 38.1924 59.8901 36.3843 60.4606C34.5761 61.031 32.8283 61.1547 31.1409 60.8314C29.4835 60.5238 28.022 59.8399 26.7563 58.7796C25.5136 57.712 24.6286 56.3428 24.1014 54.672C23.6754 53.3216 23.5565 51.9876 23.7447 50.6699C23.9631 49.3679 24.4266 48.1647 25.1351 47.0603L15.8655 49.9849C15.362 50.1437 14.8995 50.1135 14.4779 49.8942C14.0335 49.6821 13.7283 49.3128 13.5622 48.7864ZM26.9747 53.0105C27.3429 54.1778 27.9462 55.1326 28.7843 55.8748C29.6454 56.6097 30.6396 57.0888 31.767 57.3119C32.9244 57.5507 34.1097 57.4788 35.3228 57.0961C36.5587 56.7061 37.5707 56.0848 38.3587 55.2322C39.1768 54.3953 39.716 53.4324 39.9765 52.3436C40.2598 51.2476 40.2174 50.1159 39.8491 48.9486C39.488 47.8042 38.8734 46.8531 38.0051 46.0952C37.167 45.353 36.1727 44.874 35.0225 44.658C33.8951 44.4349 32.7134 44.5183 31.4775 44.9083C30.2644 45.291 29.2489 45.9008 28.4308 46.7377C27.6356 47.5675 27.0963 48.5303 26.8129 49.6264C26.5597 50.7381 26.6136 51.8661 26.9747 53.0105Z" fill="#45396D"/>
<path d="M29.6803 75.6229C29.4604 74.4432 29.9403 73.7435 31.12 73.5236L46.9396 70.5751C48.1193 70.3552 48.8191 70.8351 49.0389 72.0148C49.2588 73.1945 48.7789 73.8942 47.5992 74.1141L46.9268 74.2394C47.8845 74.7933 48.6938 75.5336 49.3548 76.4602C50.0202 77.4103 50.465 78.4871 50.6893 79.6903C50.9531 81.106 50.9129 82.1999 50.5685 82.972C50.2522 83.7634 49.7601 84.1359 49.0923 84.0894C48.5748 84.0638 48.2005 83.8894 47.9694 83.5663C47.7619 83.2388 47.6613 82.8303 47.6677 82.3408C47.693 80.7737 47.4638 79.4126 46.98 78.2577C46.4962 77.1028 45.8344 76.2374 44.9947 75.6615C44.1593 75.1093 43.199 74.9343 42.1137 75.1365L31.7796 77.0626C30.6 77.2825 29.9002 76.8026 29.6803 75.6229Z" fill="#45396D"/>
<path d="M33.5003 105.342C33.3616 103.355 33.657 101.554 34.3863 99.9389C35.1413 98.3465 36.2301 97.0556 37.6527 96.0662C39.1009 95.099 40.7946 94.5478 42.7339 94.4125C44.6971 94.2755 46.4494 94.5622 47.9905 95.2727C49.5573 96.0054 50.8107 97.0727 51.7505 98.4747C52.7144 99.875 53.2622 101.521 53.3942 103.412C53.5245 105.28 53.2175 106.913 52.4731 108.312C51.7526 109.71 50.6864 110.807 49.2743 111.603C47.888 112.421 46.2491 112.897 44.3577 113.029C43.9028 113.06 43.5088 112.931 43.1759 112.642C42.8669 112.351 42.6956 111.966 42.6622 111.487L41.71 97.8401C40.0764 98.2187 38.7763 99.0672 37.8098 100.386C36.8688 101.726 36.4618 103.307 36.5888 105.126C36.6405 105.868 36.8248 106.613 37.1417 107.361C37.4841 108.131 37.8516 108.743 38.2441 109.197C38.5325 109.538 38.6909 109.911 38.7193 110.319C38.7734 110.748 38.6795 111.127 38.4379 111.457C38.1072 111.889 37.7272 112.132 37.2979 112.186C36.8686 112.24 36.4841 112.074 36.1445 111.689C35.4413 110.92 34.8436 109.939 34.3513 108.747C33.8608 107.578 33.5771 106.443 33.5003 105.342ZM50.3057 103.628C50.1821 101.856 49.5919 100.466 48.5351 99.4569C47.4783 98.448 46.1618 97.8542 44.5855 97.6755L45.42 109.634C46.9372 109.312 48.1532 108.638 49.068 107.612C50.0068 106.584 50.4193 105.256 50.3057 103.628ZM56.3065 102.74C56.2697 102.213 56.4081 101.783 56.7216 101.448L59.9595 97.6854C60.249 97.3524 60.6572 97.1676 61.1839 97.1308C61.7106 97.0941 62.1652 97.2308 62.5477 97.5409C62.9302 97.851 63.1399 98.2694 63.1766 98.7962C63.2117 99.2989 63.0631 99.7544 62.7307 100.163L59.4543 103.892C59.1648 104.225 58.7686 104.409 58.2658 104.444C57.7391 104.48 57.2837 104.332 56.8995 103.998C56.5409 103.686 56.3432 103.267 56.3065 102.74Z" fill="#45396D"/>
<path d="M33.6741 130.746C33.7571 129.068 34.0859 127.522 34.6604 126.109C35.2578 124.721 35.9715 123.651 36.8017 122.899C37.203 122.558 37.6422 122.424 38.1192 122.495C38.6191 122.592 39.0147 122.852 39.3062 123.275C39.666 123.773 39.7987 124.248 39.7042 124.7C39.6326 125.177 39.4086 125.575 39.0325 125.893C38.5569 126.278 38.0934 126.903 37.642 127.77C37.2134 128.662 36.9718 129.659 36.9173 130.762C36.8485 132.152 37.024 133.218 37.4439 133.96C37.8625 134.726 38.4308 135.138 39.1488 135.198C39.8667 135.257 40.5071 134.94 41.0701 134.247C41.6318 133.578 42.1268 132.317 42.5549 130.464C43.1541 128.067 43.9604 126.341 44.9737 125.285C45.9859 124.254 47.1872 123.773 48.5775 123.842C49.8 123.902 50.789 124.312 51.5444 125.07C52.3238 125.829 52.8774 126.782 53.2052 127.927C53.557 129.074 53.7026 130.259 53.6421 131.481C53.5639 133.063 53.2428 134.453 52.6789 135.651C52.115 136.848 51.3719 137.785 50.4494 138.46C50.0492 138.777 49.634 138.912 49.2037 138.867C48.7974 138.823 48.4599 138.602 48.1912 138.204C47.9465 137.808 47.8852 137.348 48.0072 136.825C48.1291 136.303 48.3668 135.87 48.7202 135.527C49.3251 134.956 49.7527 134.329 50.0028 133.644C50.2529 132.96 50.4005 132.162 50.4456 131.251C50.4978 130.196 50.3625 129.289 50.0397 128.528C49.7157 127.791 49.2062 127.405 48.511 127.371C48.0795 127.349 47.6787 127.438 47.3084 127.636C46.961 127.859 46.6268 128.299 46.306 128.956C46.0091 129.614 45.6968 130.584 45.3691 131.865C44.7077 134.548 43.8601 136.38 42.8263 137.362C41.8153 138.369 40.6027 138.838 39.1884 138.768C38.0857 138.713 37.1058 138.365 36.2485 137.721C35.3901 137.102 34.7256 136.204 34.2552 135.028C33.7836 133.875 33.5899 132.448 33.6741 130.746Z" fill="#45396D"/>
<path d="M28.4605 168.908C28.5664 168.44 28.8347 168.07 29.2652 167.799C29.6958 167.527 30.1569 167.447 30.6484 167.558L52.0672 172.403L51.5586 169.594C51.4848 169.159 51.4875 168.766 51.567 168.415C51.6835 167.9 51.9453 167.504 52.3525 167.227C52.7543 166.973 53.2127 166.904 53.7277 167.021C54.1023 167.106 54.4205 167.276 54.6824 167.532C54.9444 167.788 55.1006 168.131 55.151 168.561L55.8782 174.483C55.8985 174.611 55.9072 174.736 55.9041 174.858C55.901 174.981 55.8889 175.089 55.8677 175.182C55.7459 175.721 55.4751 176.102 55.0551 176.327C54.6532 176.581 54.1831 176.647 53.6447 176.525L29.8382 171.139C29.3467 171.028 28.965 170.757 28.6933 170.327C28.4216 169.896 28.344 169.423 28.4605 168.908Z" fill="#45396D"/>
<path d="M24.3071 184.429C24.4597 183.974 24.7639 183.633 25.2197 183.406C25.6755 183.179 26.1423 183.146 26.6202 183.306C26.9387 183.413 27.2685 183.638 27.6094 183.98L44.6664 200.598L48.1464 190.222C48.3143 189.722 48.6147 189.354 49.0477 189.12C49.4959 188.915 49.9703 188.897 50.4709 189.065C50.9715 189.233 51.3276 189.53 51.5394 189.955C51.7662 190.411 51.7957 190.889 51.6278 191.39L47.2664 204.394C47.1061 204.872 46.7981 205.224 46.3423 205.451C45.8865 205.678 45.4197 205.711 44.9419 205.551C44.7826 205.497 44.631 205.421 44.4869 205.322C44.3657 205.231 44.2368 205.124 44.1005 205.003L24.7248 186.354C24.2098 185.776 24.0705 185.135 24.3071 184.429Z" fill="#45396D"/>
<path d="M15.7967 207.329C16.025 206.853 16.3685 206.525 16.8271 206.346C17.297 206.198 17.77 206.239 18.2461 206.467L32.7232 213.41C33.2209 213.649 33.5486 213.992 33.7063 214.441C33.8536 214.911 33.813 215.384 33.5847 215.86C33.346 216.357 33.0025 216.685 32.5543 216.843C32.106 217 31.633 216.96 31.1353 216.721L30.7782 216.55C31.1273 217.543 31.2683 218.608 31.2012 219.747C31.1341 220.886 30.8359 222.008 30.3066 223.111C29.5904 224.604 28.6276 225.78 27.4179 226.637C26.2196 227.526 24.8428 228.01 23.2876 228.089C21.722 228.19 20.0411 227.81 18.245 226.949L10.2599 223.119C9.78378 222.891 9.46128 222.536 9.29235 222.056C9.13469 221.608 9.17002 221.146 9.39835 220.67C9.62668 220.194 9.97016 219.866 10.4288 219.687C10.8987 219.539 11.3717 219.58 11.8478 219.808L19.8329 223.638C21.6723 224.52 23.2527 224.666 24.5741 224.075C25.9067 223.516 26.9259 222.501 27.6316 221.03C28.0675 220.121 28.2779 219.21 28.2629 218.298C28.2479 217.386 28.0304 216.563 27.6104 215.829C27.2121 215.106 26.6125 214.552 25.8119 214.168L16.6582 209.778C16.1821 209.55 15.8544 209.206 15.6751 208.748C15.5174 208.299 15.5579 207.826 15.7967 207.329ZM22.2886 210.442C22.517 209.966 22.8604 209.638 23.3191 209.459C23.789 209.312 24.262 209.352 24.738 209.581L40.3188 217.053C40.8165 217.292 41.1442 217.635 41.3019 218.084C41.4492 218.553 41.4087 219.026 41.1803 219.503C40.9416 220 40.5982 220.328 40.1499 220.486C39.7016 220.643 39.2286 220.603 38.7309 220.364L23.1502 212.892C22.6741 212.663 22.3464 212.32 22.1671 211.861C22.0094 211.413 22.0499 210.94 22.2886 210.442Z" fill="#45396D"/>
</svg>
