<svg width="64" height="219" viewBox="0 0 64 219" fill="none" xmlns="http://www.w3.org/2000/svg">
<path d="M55.1328 202.968C55.4156 203.578 55.3715 204.167 55.0005 204.736C54.6295 205.305 54.0895 205.595 53.3805 205.606L27.2105 206.595C26.297 206.622 25.6685 206.266 25.3251 205.525C24.9615 204.742 25.0951 204.031 25.7258 203.395L43.4318 183.99C43.9303 183.468 44.5057 183.254 45.1579 183.348C45.7783 183.43 46.2349 183.787 46.5278 184.419C46.6793 184.745 46.7387 185.101 46.7059 185.487C46.6412 185.861 46.4759 186.189 46.21 186.471L42.4863 190.421L47.9251 202.145L53.3606 201.885C53.7797 201.876 54.147 201.983 54.4625 202.207C54.768 202.41 54.9915 202.663 55.1328 202.968ZM44.5864 202.305L40.2081 192.867L30.7486 202.93L44.5864 202.305Z" fill="#FFCDB6"/>
<path d="M40.8951 167.919C41.1128 168.63 40.9027 169.297 40.2647 169.919L27.11 181.925C26.776 182.228 26.4044 182.367 25.995 182.342C25.5557 182.3 25.1661 182.093 24.8261 181.721C24.5002 181.394 24.3464 181.014 24.3647 180.582C24.376 180.127 24.5451 179.736 24.8721 179.41L35.9485 169.47L21.2276 167.499C20.7743 167.412 20.4155 167.183 20.1514 166.812C19.8803 166.418 19.7813 165.971 19.8545 165.472C19.9117 165.003 20.1143 164.64 20.4623 164.383C20.8103 164.126 21.2075 164.029 21.6538 164.093L39.2746 166.683C40.1373 166.796 40.6775 167.208 40.8951 167.919Z" fill="#FFCDB6"/>
<path d="M35.0848 142.594C35.3673 144.323 35.1944 145.944 34.5662 147.458C33.9143 148.975 32.9199 150.256 31.5829 151.301C30.2185 152.326 28.6006 152.992 26.7294 153.298C24.8582 153.604 23.1069 153.452 21.4753 152.843C19.8399 152.211 18.4759 151.23 17.3833 149.9C16.2631 148.551 15.552 146.953 15.2502 145.106C14.9483 143.258 15.1156 141.529 15.752 139.917C16.3647 138.309 17.3476 136.957 18.7004 135.86C20.0495 134.74 21.6596 134.027 23.5307 133.721L31.4537 132.427C31.9748 132.342 32.442 132.448 32.8553 132.745C33.2411 133.022 33.4766 133.422 33.5617 133.943C33.6469 134.464 33.5527 134.929 33.2791 135.339C32.978 135.728 32.5669 135.966 32.0458 136.051L30.7312 136.266C31.8615 136.932 32.8195 137.809 33.6051 138.897C34.3632 139.964 34.8564 141.197 35.0848 142.594ZM31.7711 142.406C31.5737 141.198 31.1134 140.167 30.3901 139.312C29.6432 138.462 28.7278 137.845 27.6439 137.463C26.5364 137.085 25.355 136.998 24.0997 137.203C22.8206 137.412 21.7282 137.87 20.8224 138.578C19.8929 139.289 19.2214 140.165 18.8077 141.205C18.3704 142.249 18.2504 143.375 18.4478 144.583C18.6413 145.767 19.1134 146.797 19.8643 147.671C20.5875 148.526 21.5048 149.154 22.6162 149.556C23.7 149.938 24.8815 150.025 26.1605 149.816C27.4159 149.611 28.5083 149.153 29.4378 148.441C30.3397 147.71 31.0093 146.823 31.4467 145.779C31.8564 144.715 31.9646 143.591 31.7711 142.406Z" fill="#FFCDB6"/>
<path d="M32.326 119.732C32.3337 120.26 32.1723 120.706 31.8416 121.071C31.4866 121.412 31.0451 121.587 30.5172 121.595L14.4629 121.831C13.911 121.839 13.4646 121.678 13.1236 121.347C12.7824 120.992 12.6079 120.55 12.6001 120.022C12.592 119.47 12.7534 119.024 13.0844 118.683C13.4154 118.342 13.8569 118.168 14.4089 118.16L14.8048 118.154C14.0499 117.421 13.4488 116.53 13.0013 115.48C12.5538 114.43 12.321 113.294 12.303 112.07C12.2786 110.414 12.6168 108.933 13.3177 107.626C13.9942 106.296 15.0108 105.249 16.3677 104.485C17.7243 103.697 19.3985 103.288 21.3902 103.259L30.2453 103.129C30.7732 103.121 31.2198 103.294 31.5851 103.649C31.926 103.98 32.1003 104.41 32.1081 104.938C32.1159 105.465 31.9544 105.912 31.6238 106.277C31.2688 106.618 30.8273 106.793 30.2993 106.8L21.4443 106.931C19.4045 106.961 17.9248 107.535 17.0052 108.652C16.0612 109.746 15.6012 111.109 15.6252 112.741C15.6401 113.749 15.8575 114.658 16.2774 115.468C16.6974 116.278 17.2589 116.917 17.9619 117.387C18.6409 117.857 19.4243 118.086 20.3122 118.073L30.4631 117.923C30.9911 117.915 31.4375 118.077 31.8024 118.407C32.1433 118.739 32.3178 119.18 32.326 119.732Z" fill="#FFCDB6"/>
<path d="M33.635 84.9552C33.5057 86.1482 33.0911 87.1896 32.3911 88.0793C31.6673 88.9665 30.7507 89.6276 29.6414 90.0626C28.532 90.4975 27.3212 90.6439 26.0089 90.5017L17.1687 89.5434L16.9902 91.1898C16.9359 91.6908 16.7488 92.0809 16.4288 92.3601C16.1089 92.6392 15.7342 92.7555 15.3047 92.709C14.8275 92.6572 14.4625 92.4608 14.2098 92.1195C13.9571 91.7783 13.8579 91.3572 13.9123 90.8561L14.0907 89.2098L8.93691 88.6511C8.41198 88.5942 8.0006 88.3806 7.70277 88.0104C7.40493 87.6401 7.28447 87.1925 7.34137 86.6676C7.39827 86.1427 7.61184 85.7313 7.9821 85.4335C8.35235 85.1356 8.79994 85.0152 9.32486 85.0721L14.4787 85.6307L14.8084 82.5885C14.8627 82.0875 15.0499 81.6974 15.3698 81.4182C15.6898 81.1391 16.0883 81.0254 16.5656 81.0771C16.995 81.1237 17.3361 81.3175 17.5888 81.6588C17.8415 82 17.9407 82.4211 17.8864 82.9222L17.5566 85.9644L26.3969 86.9226C27.3513 87.0261 28.179 86.8503 28.8802 86.3952C29.5813 85.9401 29.9732 85.3308 30.056 84.5672L30.1879 83.3504C30.2345 82.9209 30.4403 82.5811 30.8054 82.331C31.173 82.057 31.6193 81.9485 32.1442 82.0054C32.6692 82.0623 33.0767 82.3116 33.3667 82.7535C33.6594 83.1714 33.7721 83.6906 33.7049 84.311L33.635 84.9552Z" fill="#FFCDB6"/>
<path d="M14.0206 42.5536C14.509 40.9712 15.2963 39.6821 16.3823 38.6861C17.4525 37.6601 18.713 36.9942 20.1637 36.6885C21.5915 36.3757 23.0965 36.4635 24.6789 36.9519C26.4446 37.4969 27.8696 38.414 28.9536 39.703L39.5805 51.5356C40.0952 52.1466 40.2534 52.7731 40.0552 53.4152C39.9066 53.8968 39.6451 54.2557 39.2708 54.4918C38.8965 54.7279 38.4888 54.8281 38.0478 54.7924C37.6137 54.7338 37.2293 54.5147 36.8943 54.135L30.5061 47.0016C30.4724 47.1921 30.4237 47.3906 30.36 47.597C29.8716 49.1793 29.0958 50.472 28.0327 51.4751C26.9466 52.471 25.6897 53.1254 24.2619 53.4383C22.8112 53.744 21.2832 53.6491 19.678 53.1536C18.0956 52.6652 16.8029 51.8895 15.7998 50.8263C14.7738 49.7561 14.1044 48.5071 13.7916 47.0794C13.4559 45.6445 13.5322 44.1359 14.0206 42.5536ZM17.1271 43.4748C16.6882 44.8966 16.8009 46.1998 17.4651 47.3844C18.1292 48.5689 19.2066 49.3913 20.6972 49.8514C22.1878 50.3115 23.5528 50.243 24.792 49.6459C26.0083 49.0418 26.8358 48.0288 27.2747 46.607C27.7065 45.2081 27.5903 43.9164 26.9261 42.7318C26.239 41.5401 25.1502 40.7142 23.6596 40.2541C22.169 39.7941 20.8155 39.8661 19.5992 40.4702C18.3829 41.0744 17.5589 42.0759 17.1271 43.4748Z" fill="#FFCDB6"/>
<path d="M47.806 31.6061C47.5827 32.0845 47.2426 32.4157 46.7858 32.5998C46.3175 32.7519 45.8441 32.7163 45.3657 32.4929L30.8173 25.7004C30.3171 25.4669 29.9859 25.1269 29.8235 24.6803C29.6714 24.2119 29.707 23.7385 29.9304 23.2601C30.1639 22.7599 30.504 22.4287 30.9506 22.2664C31.3971 22.1041 31.8705 22.1397 32.3707 22.3732L32.7295 22.5407C32.3701 21.5519 32.2181 20.4876 32.2734 19.348C32.3287 18.2084 32.6153 17.0841 33.1331 15.975C33.8336 14.4745 34.7843 13.2894 35.9849 12.4196C37.174 11.518 38.5457 11.0195 40.1 10.9241C41.6645 10.8069 43.3492 11.1697 45.1541 12.0124L53.1786 15.759C53.657 15.9824 53.9832 16.3333 54.1571 16.8118C54.3194 17.2584 54.2889 17.7209 54.0655 18.1993C53.8421 18.6777 53.5021 19.009 53.0453 19.193C52.577 19.3452 52.1036 19.3096 51.6252 19.0862L43.6007 15.3397C41.7522 14.4766 40.1704 14.3473 38.8553 14.9517C37.5285 15.5241 36.5199 16.5498 35.8295 18.0285C35.4031 18.9419 35.2021 19.8545 35.2266 20.7665C35.251 21.6785 35.4771 22.4992 35.9047 23.2286C36.3105 23.9478 36.9157 24.4952 37.7204 24.8709L46.9191 29.1657C47.3976 29.3891 47.7288 29.7292 47.9129 30.1859C48.0752 30.6325 48.0396 31.1059 47.806 31.6061ZM41.2821 28.5601C41.0587 29.0385 40.7186 29.3698 40.2619 29.5538C39.7935 29.706 39.3202 29.6703 38.8417 29.447L23.1842 22.1367C22.6841 21.9031 22.3528 21.5631 22.1905 21.1165C22.0384 20.6481 22.074 20.1747 22.2973 19.6963C22.5309 19.1962 22.8709 18.8649 23.3175 18.7026C23.7641 18.5403 24.2375 18.5759 24.7377 18.8094L40.3952 26.1198C40.8736 26.3431 41.2048 26.6832 41.3889 27.1399C41.5512 27.5865 41.5156 28.0599 41.2821 28.5601Z" fill="#FFCDB6"/>
</svg>
