<svg width="64" height="219" viewBox="0 0 64 219" fill="none" xmlns="http://www.w3.org/2000/svg">
<path d="M55.1328 202.968C55.4156 203.578 55.3715 204.167 55.0005 204.736C54.6295 205.305 54.0895 205.595 53.3805 205.606L27.2105 206.595C26.297 206.622 25.6685 206.266 25.3251 205.525C24.9615 204.742 25.0951 204.031 25.7258 203.395L43.4318 183.99C43.9303 183.468 44.5057 183.254 45.1579 183.348C45.7783 183.43 46.2349 183.787 46.5278 184.419C46.6793 184.745 46.7387 185.101 46.7059 185.487C46.6412 185.861 46.4759 186.189 46.21 186.471L29.8503 203.902L29.4261 202.988L53.3606 201.885C53.7797 201.876 54.147 201.983 54.4625 202.207C54.768 202.41 54.9915 202.663 55.1328 202.968ZM48.7129 203.843L45.2984 203.839L39.3597 191.038L41.5622 188.429L48.7129 203.843Z" fill="#45396D"/>
<path d="M40.8951 167.919C41.1128 168.63 40.9027 169.297 40.2647 169.919L27.11 181.925C26.776 182.228 26.4044 182.367 25.995 182.342C25.5557 182.3 25.1661 182.093 24.8261 181.721C24.5002 181.394 24.3464 181.014 24.3647 180.582C24.376 180.127 24.5451 179.736 24.8721 179.41L37.4858 168.096L37.9914 169.749L21.2276 167.499C20.7743 167.412 20.4155 167.183 20.1514 166.812C19.8803 166.418 19.7813 165.971 19.8545 165.472C19.9117 165.003 20.1143 164.64 20.4623 164.383C20.8103 164.126 21.2075 164.029 21.6538 164.093L39.2746 166.683C40.1373 166.796 40.6775 167.208 40.8951 167.919Z" fill="#45396D"/>
<path d="M35.0848 142.594C35.3673 144.323 35.1944 145.944 34.5662 147.458C33.9143 148.975 32.9199 150.256 31.5829 151.301C30.2185 152.326 28.6006 152.992 26.7294 153.298C24.8582 153.604 23.1069 153.452 21.4753 152.843C19.8399 152.211 18.4759 151.23 17.3833 149.9C16.2631 148.551 15.552 146.953 15.2502 145.106C14.9483 143.258 15.1156 141.529 15.752 139.917C16.3647 138.309 17.3476 136.957 18.7004 135.86C20.0495 134.74 21.6596 134.027 23.5307 133.721L23.7572 135.107C25.6283 134.801 27.3758 134.929 28.9996 135.491C30.5959 136.032 31.9444 136.918 33.0453 138.149C34.1224 139.384 34.8023 140.865 35.0848 142.594ZM31.7711 142.406C31.5737 141.198 31.1134 140.167 30.3901 139.312C29.6432 138.462 28.7278 137.845 27.6439 137.463C26.5364 137.085 25.355 136.998 24.0997 137.203C22.8206 137.412 21.7282 137.87 20.8224 138.578C19.8929 139.289 19.2214 140.165 18.8077 141.205C18.3704 142.249 18.2504 143.375 18.4478 144.583C18.6413 145.767 19.1134 146.797 19.8643 147.671C20.5875 148.526 21.5048 149.154 22.6162 149.556C23.7 149.938 24.8815 150.025 26.1605 149.816C27.4159 149.611 28.5083 149.153 29.4378 148.441C30.3397 147.71 31.0093 146.823 31.4467 145.779C31.8564 144.715 31.9646 143.591 31.7711 142.406ZM33.5617 133.943C33.6469 134.464 33.5527 134.929 33.2791 135.339C32.978 135.728 32.5669 135.966 32.0458 136.051L26.6099 136.939L22.7335 136.879L23.5307 133.721L31.4537 132.427C31.9748 132.342 32.442 132.448 32.8553 132.745C33.2411 133.022 33.4766 133.422 33.5617 133.943Z" fill="#45396D"/>
<path d="M32.1081 104.938C32.1159 105.465 31.9544 105.912 31.6238 106.277C31.2688 106.618 30.8273 106.793 30.2993 106.8L21.4443 106.931C20.0764 106.951 18.9643 107.219 18.1078 107.736C17.2513 108.253 16.6254 108.946 16.2302 109.816C15.8106 110.662 15.609 111.637 15.6252 112.741C15.6401 113.749 15.8575 114.658 16.2774 115.468C16.6974 116.278 17.2589 116.917 17.9619 117.387C18.6409 117.857 19.4243 118.086 20.3122 118.073L20.3456 120.34C18.8338 120.363 17.4846 120.022 16.2982 119.32C15.0873 118.594 14.1246 117.6 13.4099 116.338C12.6953 115.076 12.3263 113.654 12.303 112.07C12.2786 110.414 12.6168 108.933 13.3177 107.626C13.9942 106.296 15.0108 105.249 16.3677 104.485C17.7243 103.697 19.3985 103.288 21.3902 103.259L30.2453 103.129C30.7732 103.121 31.2198 103.294 31.5851 103.649C31.926 103.98 32.1003 104.41 32.1081 104.938ZM32.326 119.732C32.3337 120.26 32.1723 120.706 31.8416 121.071C31.4866 121.412 31.0451 121.587 30.5172 121.595L14.4629 121.831C13.911 121.839 13.4646 121.678 13.1236 121.347C12.7824 120.992 12.6079 120.55 12.6001 120.022C12.592 119.47 12.7534 119.024 13.0844 118.683C13.4154 118.342 13.8569 118.168 14.4089 118.16L30.4631 117.923C30.9911 117.915 31.4375 118.077 31.8024 118.407C32.1433 118.739 32.3178 119.18 32.326 119.732Z" fill="#45396D"/>
<path d="M33.635 84.9552C33.5057 86.1482 33.0911 87.1896 32.3911 88.0793C31.6673 88.9665 30.7507 89.6276 29.6414 90.0626C28.532 90.4975 27.3212 90.6439 26.0089 90.5017L8.93691 88.6511C8.41198 88.5942 8.0006 88.3806 7.70277 88.0104C7.40493 87.6401 7.28447 87.1925 7.34137 86.6676C7.39827 86.1427 7.61184 85.7313 7.9821 85.4335C8.35235 85.1356 8.79994 85.0152 9.32486 85.0721L26.3969 86.9226C27.3513 87.0261 28.179 86.8503 28.8802 86.3952C29.5813 85.9401 29.9732 85.3308 30.056 84.5672L30.1879 83.3504C30.2345 82.9209 30.4403 82.5811 30.8054 82.331C31.173 82.057 31.6193 81.9485 32.1442 82.0054C32.6692 82.0623 33.0767 82.3116 33.3667 82.7535C33.6594 83.1714 33.7721 83.6906 33.7049 84.311L33.635 84.9552ZM16.9902 91.1898C16.9359 91.6908 16.7488 92.0809 16.4288 92.3601C16.1089 92.6392 15.7342 92.7555 15.3047 92.709C14.8275 92.6572 14.4625 92.4608 14.2098 92.1195C13.9571 91.7783 13.8579 91.3572 13.9123 90.8561L14.8084 82.5885C14.8627 82.0875 15.0499 81.6974 15.3698 81.4182C15.6898 81.1391 16.0883 81.0254 16.5656 81.0771C16.995 81.1237 17.3361 81.3175 17.5888 81.6588C17.8415 82 17.9407 82.4211 17.8864 82.9222L16.9902 91.1898Z" fill="#45396D"/>
<path d="M14.0206 42.5536C14.509 40.9712 15.2963 39.6821 16.3823 38.6861C17.4525 37.6601 18.713 36.9942 20.1637 36.6885C21.5915 36.3757 23.0965 36.4635 24.6789 36.9519C26.2841 37.4474 27.5998 38.2302 28.6258 39.3004C29.6288 40.3636 30.2947 41.624 30.6234 43.0818C30.9362 44.5096 30.8484 46.0146 30.36 47.597C29.8716 49.1793 29.0958 50.472 28.0327 51.4751C26.9466 52.471 25.6897 53.1254 24.2619 53.4383C22.8112 53.744 21.2832 53.6491 19.678 53.1536C18.0956 52.6652 16.8029 51.8895 15.7998 50.8263C14.7738 49.7561 14.1044 48.5071 13.7916 47.0794C13.4559 45.6445 13.5322 44.1359 14.0206 42.5536ZM17.1271 43.4748C16.8369 44.415 16.7964 45.3193 17.0056 46.1876C17.199 47.0259 17.6218 47.7718 18.2741 48.4253C18.9034 49.0716 19.7111 49.547 20.6972 49.8514C21.7063 50.1628 22.6529 50.2289 23.5371 50.0498C24.4212 49.8706 25.1909 49.4927 25.846 48.9163C26.5083 48.317 26.9845 47.5472 27.2747 46.607C27.5649 45.6667 27.6019 44.7739 27.3856 43.9285C27.1764 43.0602 26.7536 42.3143 26.1171 41.6909C25.4878 41.0445 24.6686 40.5656 23.6596 40.2541C22.6735 39.9498 21.7383 39.8872 20.8541 40.0664C19.9541 40.2156 19.1844 40.5934 18.5452 41.1998C17.89 41.7762 17.4173 42.5345 17.1271 43.4748ZM28.7315 39.4461L39.5805 51.5356C40.0952 52.1466 40.2534 52.7731 40.0552 53.4152C39.9066 53.8968 39.6451 54.2557 39.2708 54.4918C38.8965 54.7279 38.4888 54.8281 38.0478 54.7924C37.6137 54.7338 37.2293 54.5147 36.8943 54.135L30.284 46.7446L28.7315 39.4461Z" fill="#45396D"/>
<path d="M54.0655 18.1993C53.8421 18.6777 53.5021 19.009 53.0453 19.193C52.577 19.3452 52.1036 19.3096 51.6252 19.0862L43.6007 15.3397C42.3611 14.7609 41.2433 14.5171 40.2472 14.6083C39.2511 14.6995 38.3855 15.0502 37.6503 15.6605C36.9035 16.2388 36.2965 17.0282 35.8295 18.0285C35.4031 18.9419 35.2021 19.8545 35.2266 20.7665C35.251 21.6785 35.4771 22.4992 35.9047 23.2286C36.3105 23.9478 36.9157 24.4952 37.7204 24.8709L36.7609 26.926C35.3908 26.2863 34.3253 25.3915 33.5643 24.2416C32.7918 23.0598 32.3592 21.7454 32.2667 20.2984C32.1742 18.8514 32.463 17.4102 33.1331 15.975C33.8336 14.4745 34.7843 13.2894 35.9849 12.4196C37.174 11.518 38.5457 11.0195 40.1 10.9241C41.6645 10.8069 43.3492 11.1697 45.1541 12.0124L53.1786 15.759C53.657 15.9824 53.9832 16.3333 54.1571 16.8118C54.3194 17.2584 54.2889 17.7209 54.0655 18.1993ZM47.806 31.6061C47.5827 32.0845 47.2426 32.4157 46.7858 32.5998C46.3175 32.7519 45.8441 32.7163 45.3657 32.4929L30.8173 25.7004C30.3171 25.4669 29.9859 25.1269 29.8235 24.6803C29.6714 24.2119 29.707 23.7385 29.9304 23.2601C30.1639 22.7599 30.504 22.4287 30.9506 22.2664C31.3971 22.1041 31.8705 22.1397 32.3707 22.3732L46.9191 29.1657C47.3976 29.3891 47.7288 29.7292 47.9129 30.1859C48.0752 30.6325 48.0396 31.1059 47.806 31.6061ZM41.2821 28.5601C41.0587 29.0385 40.7186 29.3698 40.2619 29.5538C39.7935 29.706 39.3202 29.6703 38.8417 29.447L23.1842 22.1367C22.6841 21.9031 22.3528 21.5631 22.1905 21.1165C22.0384 20.6481 22.074 20.1747 22.2973 19.6963C22.5309 19.1962 22.8709 18.8649 23.3175 18.7026C23.7641 18.5403 24.2375 18.5759 24.7377 18.8094L40.3952 26.1198C40.8736 26.3431 41.2048 26.6832 41.3889 27.1399C41.5512 27.5865 41.5156 28.0599 41.2821 28.5601Z" fill="#45396D"/>
</svg>
