<svg width="270" height="70" viewBox="0 0 270 70" fill="none" xmlns="http://www.w3.org/2000/svg">
<path d="M16.1284 61.578C15.523 61.8698 14.9332 61.8343 14.3588 61.4717C13.7845 61.109 13.4864 60.5733 13.4645 59.8645L12.0921 33.7119C12.0518 32.7989 12.3992 32.1653 13.1343 31.811C13.9126 31.436 14.6247 31.5591 15.2704 32.1804L34.933 49.6C35.4625 50.0908 35.6849 50.6629 35.6002 51.3165C35.5267 51.938 35.1765 52.3998 34.5495 52.7019C34.2252 52.8582 33.87 52.9228 33.4839 52.8957C33.1091 52.8365 32.7787 52.676 32.4927 52.4142L14.8235 36.3119L15.7316 35.8744L17.1851 59.7901C17.2004 60.209 17.0984 60.5778 16.879 60.8967C16.6813 61.2051 16.4311 61.4322 16.1284 61.578ZM15.1594 55.1716L15.1128 51.7574L27.8259 45.6317L30.4671 47.7957L15.1594 55.1716Z" fill="#FFCDB6"/>
<path d="M49.034 55.9942C48.534 56.164 48.0557 56.1364 47.599 55.9113C47.1728 55.7012 46.8748 55.3462 46.705 54.8463L41.4251 39.3025C40.838 37.4995 40.7104 35.7433 41.0422 34.0337C41.3739 32.3242 42.1054 30.8211 43.2364 29.5244C44.3597 28.205 45.8077 27.2442 47.5802 26.6422C49.3755 26.0323 51.1204 25.9085 52.8149 26.2708C54.5017 26.6103 55.9973 27.3569 57.3017 28.5107C58.6289 29.6567 59.5973 31.1274 60.2071 32.9227C60.8169 34.7179 60.9787 36.4626 60.6923 38.1567C60.421 39.8204 59.7691 41.2965 58.7367 42.585C57.6966 43.8508 56.347 44.7654 54.6881 45.3289C53.3474 45.7844 52.0162 45.9324 50.6947 45.7729C49.3882 45.5831 48.1752 45.146 47.0556 44.4617L50.1819 53.6652C50.3517 54.1652 50.3316 54.6283 50.1215 55.0545C49.9191 55.5034 49.5566 55.8167 49.034 55.9942ZM52.9643 42.4927C54.1233 42.099 55.0646 41.4751 55.7883 40.6209C56.5043 39.744 56.9616 38.7396 57.1601 37.6076C57.3735 36.4452 57.2757 35.2618 56.8666 34.0574C56.4498 32.8302 55.8065 31.8321 54.9369 31.0629C54.0823 30.2633 53.1079 29.7451 52.0137 29.5085C50.9117 29.2492 49.7812 29.3163 48.6223 29.71C47.486 30.096 46.5486 30.7312 45.8098 31.6158C45.0861 32.47 44.6288 33.4744 44.4381 34.6291C44.2396 35.7611 44.3488 36.9407 44.7657 38.1678C45.1748 39.3722 45.8066 40.3742 46.6612 41.1739C47.5081 41.9508 48.4825 42.4689 49.5845 42.7282C50.7014 42.9572 51.8281 42.8786 52.9643 42.4927Z" fill="#FFCDB6"/>
<path d="M72.7928 27.1355C72.4763 25.7307 72.5336 24.4016 72.9647 23.1483C73.414 21.8662 74.1501 20.7655 75.1731 19.8462C76.1961 18.927 77.41 18.3091 78.8148 17.9926C80.2195 17.6762 81.3142 17.6756 82.0987 17.9909C82.9013 18.2775 83.2918 18.7554 83.2703 19.4245C83.2739 19.7681 83.1915 20.0573 83.0229 20.292C82.8726 20.4981 82.6739 20.6536 82.4269 20.7584C82.1799 20.8633 81.8963 20.9149 81.5761 20.9132C80.0091 20.9464 78.6575 21.2262 77.5215 21.7528C76.3854 22.2793 75.5453 22.9729 75.0011 23.8335C74.4804 24.6889 74.3413 25.655 74.5839 26.732L72.7928 27.1355ZM75.5336 39.1386C74.9717 39.2652 74.5069 39.2223 74.1392 39.0099C73.7663 38.7741 73.5139 38.3635 73.382 37.7782L69.8456 22.0796C69.7191 21.5177 69.7737 21.0502 70.0095 20.6773C70.2453 20.3044 70.6442 20.0546 71.2061 19.928C71.7914 19.7962 72.2588 19.8508 72.6084 20.0919C72.976 20.3043 73.2258 20.7031 73.3576 21.2885L76.894 36.9871C77.0206 37.549 76.966 38.0164 76.7302 38.3894C76.5178 38.757 76.1189 39.0068 75.5336 39.1386Z" fill="#FFCDB6"/>
<path d="M105.12 34.0075C103.143 34.2491 101.329 34.0476 99.6787 33.403C98.0492 32.7316 96.7036 31.7113 95.6417 30.3419C94.6007 28.9459 93.9623 27.283 93.7266 25.3534C93.4879 23.3999 93.6834 21.6351 94.3129 20.0592C94.9633 18.4565 95.9642 17.1494 97.3155 16.1381C98.664 15.1029 100.279 14.4704 102.161 14.2405C104.019 14.0135 105.666 14.2354 107.102 14.9062C108.535 15.5532 109.686 16.5611 110.555 17.9298C111.444 19.2719 112.003 20.8839 112.233 22.7659C112.289 23.2186 112.18 23.6187 111.909 23.9662C111.634 24.2899 111.258 24.4809 110.782 24.5391L96.3808 26.2985L96.0315 23.4397L110.325 21.6934L108.982 22.873C108.813 21.6847 108.445 20.6537 107.879 19.7799C107.31 18.8823 106.575 18.2105 105.674 17.7644C104.774 17.3184 103.728 17.1681 102.537 17.3136C101.179 17.4795 100.048 17.9199 99.1438 18.6348C98.2637 19.3468 97.6375 20.2575 97.2652 21.3668C96.8901 22.4523 96.7826 23.6502 96.9427 24.9604C97.1027 26.2707 97.5431 27.4016 98.2639 28.3533C98.9846 29.3049 99.9054 30.0144 101.026 30.482C102.147 30.9495 103.387 31.1003 104.745 30.9344C105.483 30.8442 106.218 30.6214 106.948 30.2663C107.699 29.8843 108.291 29.4856 108.724 29.0701C109.049 28.7643 109.414 28.5868 109.819 28.5373C110.245 28.4611 110.629 28.5351 110.971 28.7593C111.42 29.0671 111.682 29.434 111.758 29.8599C111.834 30.2858 111.689 30.6784 111.322 31.0375C110.59 31.7797 109.642 32.4275 108.476 32.9809C107.335 33.5315 106.216 33.8736 105.12 34.0075ZM101.339 11.367C100.815 11.431 100.377 11.3152 100.027 11.0195L96.1014 7.98115C95.7539 7.70928 95.5481 7.3113 95.484 6.7872C95.42 6.26309 95.5329 5.802 95.8228 5.40391C96.1127 5.00582 96.5196 4.77476 97.0437 4.71073C97.544 4.64961 98.0066 4.77444 98.4314 5.08521L102.325 8.1637C102.673 8.43556 102.877 8.82163 102.938 9.32191C103.002 9.84602 102.878 10.3086 102.564 10.7096C102.271 11.0838 101.863 11.303 101.339 11.367Z" fill="#FFCDB6"/>
<path d="M130.534 32.3083C128.854 32.338 127.29 32.1135 125.841 31.635C124.416 31.1321 123.301 30.4917 122.495 29.7138C122.128 29.3362 121.965 28.907 122.004 28.4262C122.067 27.921 122.3 27.5089 122.703 27.1897C123.176 26.7973 123.641 26.6331 124.098 26.697C124.579 26.7365 124.99 26.9333 125.333 27.2873C125.749 27.736 126.404 28.1565 127.299 28.5488C128.218 28.9167 129.229 29.0908 130.333 29.0714C131.725 29.0468 132.776 28.8002 133.488 28.3316C134.224 27.8625 134.598 27.2678 134.609 26.5475C134.62 25.8272 134.261 25.2094 133.532 24.6942C132.827 24.1786 131.536 23.7693 129.658 23.4664C127.226 23.0292 125.449 22.3405 124.329 21.4001C123.232 20.4593 122.671 19.293 122.647 17.9012C122.625 16.6774 122.967 15.6632 123.673 14.8587C124.379 14.0301 125.292 13.4139 126.413 13.01C127.533 12.5822 128.706 12.3575 129.93 12.3359C131.513 12.3079 132.922 12.5351 134.154 13.0174C135.387 13.4997 136.371 14.1785 137.107 15.0536C137.449 15.4317 137.612 15.8368 137.596 16.2692C137.579 16.6776 137.381 17.0291 137.003 17.3238C136.623 17.5946 136.169 17.6866 135.639 17.5999C135.11 17.5133 134.662 17.3051 134.296 16.9755C133.686 16.4102 133.031 16.0257 132.331 15.822C131.632 15.6183 130.826 15.5245 129.914 15.5406C128.858 15.5593 127.962 15.7551 127.224 16.1282C126.51 16.5008 126.16 17.0351 126.172 17.731C126.18 18.1629 126.295 18.557 126.517 18.9131C126.763 19.2448 127.224 19.5487 127.901 19.8248C128.578 20.0769 129.566 20.3235 130.867 20.5646C132.673 20.8928 134.097 21.3237 135.138 21.8574C136.204 22.3907 136.971 23.0253 137.44 23.7611C137.909 24.473 138.152 25.3088 138.169 26.2686C138.188 27.3725 137.906 28.3736 137.322 29.2721C136.761 30.1701 135.91 30.8932 134.767 31.4415C133.649 31.9893 132.238 32.2782 130.534 32.3083Z" fill="#FFCDB6"/>
<path d="M148.469 24.4414C147.942 24.4041 147.511 24.2052 147.175 23.8447C146.864 23.4858 146.727 23.043 146.764 22.5164C146.803 21.9657 147.002 21.5347 147.361 21.2232C147.744 20.9134 148.198 20.7772 148.725 20.8144L156.733 21.3806C157.26 21.4179 157.679 21.6159 157.99 21.9748C158.302 22.3336 158.438 22.7884 158.399 23.339C158.362 23.8657 158.164 24.2848 157.805 24.5962C157.446 24.9077 157.003 25.0448 156.477 25.0076L148.469 24.4414Z" fill="#FFCDB6"/>
<path d="M192.914 38.7485C192.395 38.6507 191.99 38.4034 191.698 38.0066C191.435 37.5906 191.352 37.1231 191.45 36.6043L193.357 26.4864C193.637 25.0005 193.478 23.8349 192.88 22.9896C192.287 22.1207 191.4 21.5751 190.221 21.3529C188.995 21.1217 187.9 21.3551 186.939 22.0531C186 22.7554 185.407 23.767 185.158 25.0878L182.221 24.5344C182.51 23.0014 183.094 21.7193 183.972 20.6881C184.855 19.6333 185.948 18.8868 187.252 18.4487C188.579 18.015 190.009 17.9426 191.542 18.2315C192.886 18.4849 194.022 19.0041 194.948 19.7893C195.875 20.5745 196.512 21.5983 196.861 22.8606C197.237 24.1038 197.272 25.5391 196.965 27.1664L195.058 37.2843C194.96 37.8032 194.713 38.2084 194.316 38.4999C193.924 38.7679 193.456 38.8508 192.914 38.7485ZM169.317 34.3015C168.798 34.2037 168.393 33.9564 168.102 33.5596C167.838 33.1436 167.755 32.6761 167.853 32.1573L170.82 16.4144C170.922 15.8719 171.17 15.4667 171.562 15.1988C171.978 14.9353 172.445 14.8524 172.964 14.9502C173.507 15.0524 173.912 15.2997 174.18 15.6921C174.448 16.0846 174.531 16.552 174.429 17.0944L171.462 32.8373C171.364 33.3562 171.117 33.7614 170.72 34.0529C170.327 34.3209 169.86 34.4037 169.317 34.3015ZM181.133 36.5284C180.614 36.4306 180.209 36.1832 179.918 35.7864C179.654 35.3704 179.571 34.903 179.669 34.3841L181.576 24.2662C181.856 22.7804 181.697 21.6148 181.099 20.7694C180.506 19.9005 179.62 19.3549 178.44 19.1327C177.214 18.9016 176.12 19.135 175.158 19.8329C174.196 20.5308 173.591 21.5402 173.342 22.8609L171.113 22.4409C171.402 20.9079 171.962 19.6213 172.793 18.5812C173.628 17.5176 174.651 16.7578 175.86 16.3018C177.069 15.8459 178.37 15.7491 179.761 16.0113C181.106 16.2647 182.241 16.784 183.168 17.5692C184.094 18.3543 184.732 19.3781 185.08 20.6404C185.456 21.8836 185.491 23.3189 185.184 24.9462L183.278 35.0641C183.18 35.583 182.933 35.9882 182.536 36.2798C182.143 36.5477 181.676 36.6306 181.133 36.5284Z" fill="#FFCDB6"/>
<path d="M207.259 42.8922C206.754 42.7392 206.378 42.4497 206.13 42.0237C205.913 41.5818 205.881 41.1081 206.034 40.6028L210.678 25.2707C210.838 24.7424 211.128 24.3662 211.547 24.1421C211.989 23.9248 212.462 23.8928 212.968 24.0458C213.496 24.2059 213.872 24.4954 214.096 24.9143C214.321 25.3333 214.353 25.8069 214.193 26.3352L209.549 41.6673C209.396 42.1726 209.106 42.5489 208.68 42.796C208.261 43.0202 207.787 43.0523 207.259 42.8922ZM213.897 20.9794C213.276 20.7916 212.803 20.4099 212.476 19.8343C212.178 19.2427 212.124 18.6368 212.311 18.0167C212.499 17.3965 212.878 16.9343 213.446 16.6301C214.045 16.3098 214.654 16.2436 215.274 16.4315C215.894 16.6193 216.353 17.009 216.65 17.6006C216.978 18.1762 217.047 18.7741 216.859 19.3942C216.672 20.0144 216.278 20.4846 215.68 20.8049C215.111 21.1091 214.517 21.1673 213.897 20.9794Z" fill="#FFCDB6"/>
<path d="M228.293 50.4463C226.559 49.741 225.155 48.7034 224.08 47.3334C223.036 45.9503 222.387 44.3911 222.134 42.656C221.904 40.9299 222.146 39.1887 222.86 37.4324C223.574 35.6761 224.578 34.2579 225.873 33.1779C227.198 32.0848 228.668 31.4002 230.283 31.1243C231.907 30.8262 233.531 31.0071 235.154 31.6672C236.465 32.2006 237.564 32.9713 238.449 33.9792C239.344 34.9648 239.979 36.0782 240.356 37.3194L244.017 28.3155C244.225 27.8042 244.548 27.4562 244.986 27.2716C245.446 27.0959 245.921 27.1076 246.41 27.3065C246.921 27.5145 247.269 27.8374 247.454 28.2752C247.639 28.713 247.627 29.1876 247.419 29.6989L241.234 44.9054C240.52 46.6617 239.467 48.0729 238.075 49.1389C236.705 50.214 235.163 50.8825 233.45 51.1445C231.746 51.3843 230.027 51.1515 228.293 50.4463ZM229.514 47.445C230.648 47.9061 231.768 48.0507 232.874 47.8788C233.989 47.6847 234.997 47.2137 235.897 46.4657C236.797 45.7177 237.487 44.7545 237.966 43.5762C238.455 42.3757 238.633 41.2046 238.501 40.0629C238.37 38.9213 237.968 37.9028 237.296 37.0076C236.632 36.0901 235.734 35.4008 234.6 34.9397C233.488 34.4876 232.364 34.3541 231.226 34.5392C230.12 34.7111 229.11 35.1554 228.197 35.8721C227.306 36.5979 226.616 37.561 226.128 38.7615C225.649 39.9398 225.47 41.1109 225.593 42.2748C225.738 43.4478 226.142 44.493 226.805 45.4104C227.499 46.3147 228.402 46.9929 229.514 47.445Z" fill="#FFCDB6"/>
<path d="M250.057 60.2857C249.588 60.0426 249.272 59.6891 249.107 59.225C248.974 58.7508 249.029 58.2793 249.273 57.8106L256.648 43.5893C256.902 43.0993 257.256 42.7825 257.709 42.6389C258.183 42.5064 258.654 42.5617 259.123 42.8047C259.613 43.0589 259.93 43.4124 260.073 43.8654C260.217 44.3183 260.162 44.7898 259.908 45.2799L252.532 59.5011C252.289 59.9698 251.936 60.2866 251.472 60.4515C251.019 60.5951 250.547 60.5398 250.057 60.2857ZM260.598 39.9605C260.023 39.6622 259.627 39.2001 259.411 38.5743C259.227 37.9383 259.284 37.3326 259.583 36.7574C259.881 36.1821 260.338 35.7971 260.952 35.6022C261.599 35.3971 262.211 35.4437 262.786 35.7421C263.361 36.0404 263.741 36.5076 263.924 37.1436C264.141 37.7694 264.1 38.3699 263.801 38.9452C263.503 39.5204 263.03 39.9106 262.383 40.1157C261.768 40.3106 261.173 40.2588 260.598 39.9605Z" fill="#FFCDB6"/>
</svg>
