<svg width="1440" height="800" viewBox="0 0 1440 800" fill="none" xmlns="http://www.w3.org/2000/svg">
    <g clip-path="url(#clip0)">
        <rect width="1440" height="800" fill="none"/>
        <path d="M1042.75 767.818C1032.48 767.818 1024.16 759.492 1024.16 749.222C1024.16 738.951 1032.48 730.625 1042.75 730.625C1053.01 730.625 1061.33 738.951 1061.33 749.222C1061.33 759.492 1053.01 767.818 1042.75 767.818Z" fill="#03A678"/>
        <path d="M1012.59 767.818C1002.32 767.818 994 759.492 994 749.222C994 738.951 1002.32 730.625 1012.59 730.625C1022.85 730.625 1031.17 738.951 1031.17 749.222C1031.17 759.492 1022.85 767.818 1012.59 767.818Z" fill="#03A678"/>
        <path d="M1027.32 755.193C1017.05 755.193 1008.73 746.867 1008.73 736.596C1008.73 726.326 1017.05 718 1027.32 718C1037.58 718 1045.9 726.326 1045.9 736.596C1045.9 746.867 1037.58 755.193 1027.32 755.193Z" fill="#03A678"/>
        <path d="M1027.32 772.027C1017.05 772.027 1008.73 763.701 1008.73 753.43C1008.73 743.16 1017.05 734.834 1027.32 734.834C1037.58 734.834 1045.9 743.16 1045.9 753.43C1045.9 763.701 1037.58 772.027 1027.32 772.027Z" fill="#03A678"/>
    </g>
    <defs>
        <clipPath id="clip0">
            <rect width="1440" height="800" fill="white"/>
        </clipPath>
    </defs>
</svg>
