<svg width="1440" height="800" viewBox="0 0 1440 800" fill="none" xmlns="http://www.w3.org/2000/svg">
    <g clip-path="url(#clip0)">
        <rect width="1440" height="800" fill="none"/>
        <path d="M1176.38 745.006C1157.63 745.006 1142.43 729.796 1142.43 711.034C1142.43 692.273 1157.63 677.063 1176.38 677.063C1195.13 677.063 1210.33 692.273 1210.33 711.034C1210.33 729.796 1195.13 745.006 1176.38 745.006Z" fill="#03A678"/>
        <path d="M1121.29 745.006C1102.53 745.006 1087.33 729.796 1087.33 711.034C1087.33 692.273 1102.53 677.063 1121.29 677.063C1140.04 677.063 1155.24 692.273 1155.24 711.034C1155.24 729.796 1140.04 745.006 1121.29 745.006Z" fill="#03A678"/>
        <path d="M1148.19 721.942C1129.44 721.942 1114.24 706.733 1114.24 687.971C1114.24 669.209 1129.44 654 1148.19 654C1166.94 654 1182.14 669.209 1182.14 687.971C1182.14 706.733 1166.94 721.942 1148.19 721.942Z" fill="#03A678"/>
        <path d="M1148.19 752.693C1129.44 752.693 1114.24 737.484 1114.24 718.722C1114.24 699.96 1129.44 684.751 1148.19 684.751C1166.94 684.751 1182.14 699.96 1182.14 718.722C1182.14 737.484 1166.94 752.693 1148.19 752.693Z" fill="#03A678"/>
    </g>
    <defs>
        <clipPath id="clip0">
            <rect width="1440" height="800" fill="white"/>
        </clipPath>
    </defs>
</svg>
