<svg width="62" height="48" viewBox="0 0 62 48" fill="none" xmlns="http://www.w3.org/2000/svg">
<path d="M17.5434 44.0477C26.7643 44.0477 34.2394 36.7835 34.2394 27.8227C34.2394 18.8619 26.7643 11.5977 17.5434 11.5977C8.32245 11.5977 0.847412 18.8619 0.847412 27.8227C0.847412 36.7835 8.32245 44.0477 17.5434 44.0477Z" fill="#03A678"/>
<path d="M44.6364 44.0477C53.8573 44.0477 61.3324 36.7835 61.3324 27.8227C61.3324 18.8619 53.8573 11.5977 44.6364 11.5977C35.4155 11.5977 27.9404 18.8619 27.9404 27.8227C27.9404 36.7835 35.4155 44.0477 44.6364 44.0477Z" fill="#03A678"/>
<path d="M31.405 33.0325C40.6259 33.0325 48.1009 25.7683 48.1009 16.8075C48.1009 7.8467 40.6259 0.58252 31.405 0.58252C22.184 0.58252 14.709 7.8467 14.709 16.8075C14.709 25.7683 22.184 33.0325 31.405 33.0325Z" fill="#03A678"/>
<path d="M31.405 47.7195C40.6259 47.7195 48.1009 40.4554 48.1009 31.4945C48.1009 22.5337 40.6259 15.2695 31.405 15.2695C22.184 15.2695 14.709 22.5337 14.709 31.4945C14.709 40.4554 22.184 47.7195 31.405 47.7195Z" fill="#03A678"/>
</svg>
