<svg width="1440" height="800" viewBox="0 0 1440 800" fill="none" xmlns="http://www.w3.org/2000/svg">
    <g clip-path="url(#clip0)">
        <rect width="1440" height="800" fill="none"/>
        <path d="M116.543 737.243C125.764 737.243 133.239 729.764 133.239 720.538C133.239 711.312 125.764 703.833 116.543 703.833C107.322 703.833 99.8474 711.312 99.8474 720.538C99.8474 729.764 107.322 737.243 116.543 737.243Z" fill="#03A678"/>
        <path d="M143.636 737.243C152.857 737.243 160.332 729.764 160.332 720.538C160.332 711.312 152.857 703.833 143.636 703.833C134.415 703.833 126.94 711.312 126.94 720.538C126.94 729.764 134.415 737.243 143.636 737.243Z" fill="#03A678"/>
        <path d="M130.405 725.902C139.626 725.902 147.101 718.423 147.101 709.197C147.101 699.971 139.626 692.492 130.405 692.492C121.184 692.492 113.709 699.971 113.709 709.197C113.709 718.423 121.184 725.902 130.405 725.902Z" fill="#03A678"/>
        <path d="M130.405 741.024C139.626 741.024 147.101 733.545 147.101 724.319C147.101 715.092 139.626 707.613 130.405 707.613C121.184 707.613 113.709 715.092 113.709 724.319C113.709 733.545 121.184 741.024 130.405 741.024Z" fill="#03A678"/>
    </g>
    <defs>
        <clipPath id="clip0">
            <rect width="1440" height="800" fill="white"/>
        </clipPath>
    </defs>
</svg>
