<svg width="1440" height="800" viewBox="0 0 1440 800" fill="none" xmlns="http://www.w3.org/2000/svg">
    <g clip-path="url(#clip0)">
        <rect width="1440" height="800" fill="none"/>
        <path d="M-3.50053 716.751C13.3439 716.751 26.999 703.088 26.999 686.234C26.999 669.38 13.3439 655.718 -3.50053 655.718C-20.3449 655.718 -34 669.38 -34 686.234C-34 703.088 -20.3449 716.751 -3.50053 716.751Z" fill="#03A678"/>
        <path d="M45.9917 716.751C62.8361 716.751 76.4911 703.088 76.4911 686.234C76.4911 669.38 62.8361 655.718 45.9917 655.718C29.1473 655.718 15.4922 669.38 15.4922 686.234C15.4922 703.088 29.1473 716.751 45.9917 716.751Z" fill="#03A678"/>
        <path d="M21.8213 696.033C38.6656 696.033 52.3207 682.37 52.3207 665.517C52.3207 648.663 38.6656 635 21.8213 635C4.97686 635 -8.67822 648.663 -8.67822 665.517C-8.67822 682.37 4.97686 696.033 21.8213 696.033Z" fill="#03A678"/>
        <path d="M21.8213 723.657C38.6656 723.657 52.3207 709.994 52.3207 693.14C52.3207 676.286 38.6656 662.624 21.8213 662.624C4.97686 662.624 -8.67822 676.286 -8.67822 693.14C-8.67822 709.994 4.97686 723.657 21.8213 723.657Z" fill="#03A678"/>
    </g>
    <defs>
        <clipPath id="clip0">
            <rect width="1440" height="800" fill="white"/>
        </clipPath>
    </defs>
</svg>
