<svg width="320" height="82" viewBox="0 0 320 82" fill="none" xmlns="http://www.w3.org/2000/svg">
<rect width="320" height="82" rx="17" fill="#FFCDB6" fill-opacity="0.5"/>
<rect x="7" y="5" width="306" height="72" rx="17" fill="#FFCDB6"/>
<path d="M87.528 53.36C85.992 53.36 84.528 53.12 83.136 52.64C81.744 52.16 80.532 51.488 79.5 50.624C78.468 49.76 77.712 48.764 77.232 47.636C76.992 47.132 76.992 46.664 77.232 46.232C77.496 45.8 77.928 45.524 78.528 45.404C78.96 45.308 79.38 45.38 79.788 45.62C80.22 45.836 80.544 46.172 80.76 46.628C81.048 47.228 81.516 47.78 82.164 48.284C82.836 48.788 83.64 49.196 84.576 49.508C85.512 49.82 86.496 49.976 87.528 49.976C88.68 49.976 89.736 49.796 90.696 49.436C91.68 49.076 92.472 48.56 93.072 47.888C93.672 47.192 93.972 46.34 93.972 45.332C93.972 44.06 93.468 42.92 92.46 41.912C91.476 40.904 89.844 40.28 87.564 40.04C84.588 39.752 82.248 38.876 80.544 37.412C78.84 35.948 77.988 34.136 77.988 31.976C77.988 30.392 78.432 29.048 79.32 27.944C80.208 26.84 81.408 26 82.92 25.424C84.456 24.848 86.16 24.56 88.032 24.56C90.216 24.56 92.004 25.004 93.396 25.892C94.788 26.78 95.94 27.956 96.852 29.42C97.188 29.948 97.32 30.452 97.248 30.932C97.2 31.388 96.972 31.748 96.564 32.012C96.108 32.3 95.616 32.36 95.088 32.192C94.56 32.024 94.164 31.712 93.9 31.256C93.3 30.224 92.52 29.42 91.56 28.844C90.624 28.268 89.412 27.968 87.924 27.944C86.148 27.92 84.66 28.256 83.46 28.952C82.26 29.624 81.66 30.668 81.66 32.084C81.66 32.804 81.84 33.5 82.2 34.172C82.584 34.82 83.268 35.384 84.252 35.864C85.26 36.344 86.7 36.68 88.572 36.872C91.428 37.16 93.648 38.036 95.232 39.5C96.84 40.94 97.644 42.848 97.644 45.224C97.644 46.592 97.356 47.78 96.78 48.788C96.228 49.796 95.472 50.648 94.512 51.344C93.576 52.016 92.496 52.52 91.272 52.856C90.072 53.192 88.824 53.36 87.528 53.36ZM115.157 53.576C112.853 53.576 110.813 53.156 109.037 52.316C107.261 51.452 105.869 50.264 104.861 48.752C103.877 47.24 103.385 45.512 103.385 43.568V26.756C103.385 26.204 103.565 25.76 103.925 25.424C104.285 25.064 104.729 24.884 105.257 24.884C105.809 24.884 106.253 25.064 106.589 25.424C106.949 25.76 107.129 26.204 107.129 26.756V43.568C107.129 44.864 107.465 46.016 108.137 47.024C108.833 48.008 109.781 48.788 110.981 49.364C112.205 49.916 113.597 50.192 115.157 50.192C116.669 50.192 118.001 49.916 119.153 49.364C120.329 48.788 121.241 48.008 121.889 47.024C122.561 46.016 122.897 44.864 122.897 43.568V26.756C122.897 26.204 123.077 25.76 123.437 25.424C123.797 25.064 124.241 24.884 124.769 24.884C125.321 24.884 125.765 25.064 126.101 25.424C126.437 25.76 126.605 26.204 126.605 26.756V43.568C126.605 45.512 126.113 47.24 125.129 48.752C124.169 50.264 122.825 51.452 121.097 52.316C119.369 53.156 117.389 53.576 115.157 53.576ZM135.667 53C135.139 53 134.695 52.82 134.335 52.46C133.975 52.1 133.795 51.656 133.795 51.128V26.756C133.795 26.204 133.975 25.76 134.335 25.424C134.695 25.064 135.139 24.884 135.667 24.884C136.219 24.884 136.663 25.064 136.999 25.424C137.359 25.76 137.539 26.204 137.539 26.756V51.128C137.539 51.656 137.359 52.1 136.999 52.46C136.663 52.82 136.219 53 135.667 53ZM154.377 53C153.609 53 153.045 52.604 152.685 51.812L142.137 27.692C141.801 26.876 141.765 26.204 142.029 25.676C142.293 25.148 142.797 24.884 143.541 24.884C144.381 24.884 144.957 25.256 145.269 26L154.341 47.744L163.557 26C163.749 25.568 163.965 25.28 164.205 25.136C164.469 24.968 164.817 24.884 165.249 24.884C165.969 24.884 166.461 25.148 166.725 25.676C167.013 26.18 167.013 26.744 166.725 27.368L156.069 51.812C155.757 52.604 155.193 53 154.377 53ZM167.625 53C166.953 53 166.437 52.712 166.077 52.136C165.717 51.56 165.681 50.948 165.969 50.3L176.085 26.144C176.445 25.304 177.033 24.884 177.849 24.884C178.713 24.884 179.301 25.304 179.613 26.144L189.765 50.372C190.029 51.044 189.981 51.656 189.621 52.208C189.285 52.736 188.769 53 188.073 53C187.713 53 187.365 52.904 187.029 52.712C186.717 52.496 186.489 52.208 186.345 51.848L184.329 46.808H171.405L169.353 51.848C169.185 52.232 168.933 52.52 168.597 52.712C168.285 52.904 167.961 53 167.625 53ZM172.665 43.712H183.069L177.921 30.896L172.665 43.712ZM195.889 53C195.361 53 194.917 52.82 194.557 52.46C194.221 52.1 194.053 51.656 194.053 51.128V26.756C194.053 26.204 194.221 25.76 194.557 25.424C194.917 25.064 195.361 24.884 195.889 24.884C196.465 24.884 196.945 25.112 197.329 25.568L213.025 46.448V26.756C213.025 26.204 213.205 25.76 213.565 25.424C213.925 25.064 214.369 24.884 214.897 24.884C215.449 24.884 215.893 25.064 216.229 25.424C216.565 25.76 216.733 26.204 216.733 26.756V51.128C216.733 51.656 216.565 52.1 216.229 52.46C215.893 52.82 215.449 53 214.897 53C214.657 53 214.393 52.952 214.105 52.856C213.841 52.736 213.625 52.568 213.457 52.352L197.761 31.472V51.128C197.761 51.656 197.581 52.1 197.221 52.46C196.885 52.82 196.441 53 195.889 53ZM232.252 53C231.724 53 231.28 52.82 230.92 52.46C230.56 52.1 230.38 51.656 230.38 51.128V28.34H222.604C222.1 28.34 221.68 28.184 221.344 27.872C221.032 27.536 220.876 27.116 220.876 26.612C220.876 26.108 221.032 25.7 221.344 25.388C221.68 25.052 222.1 24.884 222.604 24.884H241.864C242.368 24.884 242.776 25.052 243.088 25.388C243.424 25.7 243.592 26.108 243.592 26.612C243.592 27.116 243.424 27.536 243.088 27.872C242.776 28.184 242.368 28.34 241.864 28.34H234.124V51.128C234.124 51.656 233.944 52.1 233.584 52.46C233.224 52.82 232.78 53 232.252 53Z" fill="#45396D"/>
</svg>
