<svg width="18" height="273" viewBox="0 0 18 273" fill="none" xmlns="http://www.w3.org/2000/svg">
    <path d="M9 143L8.99999 267" stroke="#FFCDB6" stroke-width="2"/>
    <circle cx="9" cy="264" r="9" transform="rotate(90 9 264)" fill="#04D99D"/>
    <circle cx="9" cy="225" r="9" transform="rotate(90 9 225)" fill="#04D99D"/>
    <circle cx="9" cy="186" r="9" transform="rotate(90 9 186)" fill="#04D99D"/>
    <circle cx="9" cy="147" r="9" transform="rotate(90 9 147)" fill="#04D99D"/>
    <path d="M9 5L9 48" stroke="#FFCDB6" stroke-width="2"/>
    <circle cx="9" cy="9" r="9" transform="rotate(90 9 9)" fill="#04D99D"/>
    <path d="M12 115.793C12 115.906 11.9633 115.999 11.89 116.073C11.8167 116.146 11.7233 116.183 11.61 116.183L4.58 116.183C4.46667 116.183 4.37333 116.146 4.3 116.073C4.22667 115.999 4.19 115.906 4.19 115.793C4.19 115.679 4.22667 115.586 4.3 115.513C4.37333 115.439 4.46667 115.403 4.58 115.403L7.7 115.403L7.7 110.523L4.58 110.523C4.46667 110.523 4.37333 110.486 4.3 110.413C4.22667 110.339 4.19 110.246 4.19 110.133C4.19 110.019 4.22667 109.926 4.3 109.853C4.37333 109.779 4.46667 109.743 4.58 109.743L11.61 109.743C11.7233 109.743 11.8167 109.779 11.89 109.853C11.9633 109.926 12 110.019 12 110.133C12 110.246 11.9633 110.339 11.89 110.413C11.8167 110.486 11.7233 110.523 11.61 110.523L8.4 110.523L8.4 115.403L11.61 115.403C11.7233 115.403 11.8167 115.439 11.89 115.513C11.9633 115.586 12 115.679 12 115.793ZM12.05 105.355C12.05 105.888 11.93 106.365 11.69 106.785C11.45 107.205 11.12 107.535 10.7 107.775C10.28 108.015 9.80333 108.135 9.27 108.135C8.73 108.135 8.25 108.015 7.83 107.775C7.41 107.535 7.08 107.205 6.84 106.785C6.6 106.365 6.48 105.888 6.48 105.355C6.48 104.822 6.6 104.348 6.84 103.935C7.08 103.515 7.41 103.185 7.83 102.945C8.25 102.705 8.73 102.582 9.27 102.575C9.80333 102.575 10.28 102.698 10.7 102.945C11.12 103.185 11.45 103.515 11.69 103.935C11.93 104.348 12.05 104.822 12.05 105.355ZM11.35 105.355C11.35 104.968 11.26 104.622 11.08 104.315C10.9 104.008 10.6533 103.768 10.34 103.595C10.0267 103.422 9.67 103.335 9.27 103.335C8.87 103.335 8.51333 103.422 8.2 103.595C7.88 103.768 7.63 104.008 7.45 104.315C7.27 104.622 7.18 104.968 7.18 105.355C7.18 105.742 7.27 106.088 7.45 106.395C7.63 106.702 7.88 106.945 8.2 107.125C8.51333 107.298 8.87 107.385 9.27 107.385C9.67 107.385 10.0267 107.298 10.34 107.125C10.6533 106.945 10.9 106.702 11.08 106.395C11.26 106.088 11.35 105.742 11.35 105.355ZM8.63 100.758C8.21667 100.738 7.84667 100.631 7.52 100.438C7.19333 100.238 6.93667 99.9809 6.75 99.6675C6.56333 99.3475 6.47 98.9942 6.47 98.6075C6.47 98.3009 6.51333 98.0642 6.6 97.8975C6.68667 97.7309 6.81333 97.6675 6.98 97.7075C7.08 97.7342 7.14667 97.7809 7.18 97.8475C7.21333 97.9075 7.22667 97.9842 7.22 98.0775C7.21333 98.1642 7.20667 98.2642 7.2 98.3775C7.16667 98.7509 7.20667 99.0842 7.32 99.3775C7.42667 99.6642 7.59333 99.8942 7.82 100.068C8.04667 100.234 8.31667 100.318 8.63 100.318L8.63 100.758ZM12 100.698C12 100.818 11.9667 100.911 11.9 100.978C11.8333 101.044 11.74 101.078 11.62 101.078L6.91 101.078C6.79 101.078 6.69667 101.044 6.63 100.978C6.56333 100.911 6.53 100.818 6.53 100.698C6.53 100.578 6.56333 100.484 6.63 100.418C6.69667 100.351 6.79 100.318 6.91 100.318L11.62 100.318C11.74 100.318 11.8333 100.351 11.9 100.418C11.9667 100.484 12 100.578 12 100.698ZM12.05 94.4879C12.05 95.0012 11.93 95.4612 11.69 95.8679C11.4433 96.2745 11.11 96.5979 10.69 96.8379C10.27 97.0712 9.79667 97.1879 9.27 97.1879C8.73667 97.1879 8.26 97.0679 7.84 96.8279C7.42 96.5812 7.09 96.2479 6.85 95.8279C6.60333 95.4079 6.48 94.9345 6.48 94.4079C6.48 93.8812 6.60333 93.4112 6.85 92.9979C7.09 92.5779 7.42 92.2479 7.84 92.0079C8.26 91.7612 8.73667 91.6345 9.27 91.6279L9.51 91.9379C9.99 91.9379 10.4233 92.0512 10.81 92.2779C11.19 92.4979 11.4933 92.8012 11.72 93.1879C11.94 93.5679 12.05 94.0012 12.05 94.4879ZM11.35 94.4079C11.35 94.0212 11.26 93.6779 11.08 93.3779C10.9 93.0712 10.6533 92.8312 10.34 92.6579C10.02 92.4779 9.66333 92.3879 9.27 92.3879C8.87 92.3879 8.51333 92.4779 8.2 92.6579C7.88667 92.8312 7.64 93.0712 7.46 93.3779C7.27333 93.6779 7.18 94.0212 7.18 94.4079C7.18 94.7879 7.27333 95.1312 7.46 95.4379C7.64 95.7445 7.88667 95.9879 8.2 96.1679C8.51333 96.3479 8.87 96.4379 9.27 96.4379C9.66333 96.4379 10.02 96.3479 10.34 96.1679C10.6533 95.9879 10.9 95.7445 11.08 95.4379C11.26 95.1312 11.35 94.7879 11.35 94.4079ZM12 92.0179C12 92.1312 11.9667 92.2245 11.9 92.2979C11.8267 92.3712 11.7333 92.4079 11.62 92.4079L9.91 92.4079L9.12 92.2179L9.27 91.6279L11.62 91.6279C11.7333 91.6279 11.8267 91.6645 11.9 91.7379C11.9667 91.8112 12 91.9045 12 92.0179ZM12 89.5803C12 89.7003 11.9667 89.7969 11.9 89.8703C11.8267 89.9369 11.73 89.9703 11.61 89.9703L6.92 89.9703C6.8 89.9703 6.70667 89.9369 6.64 89.8703C6.56667 89.7969 6.53 89.7003 6.53 89.5803C6.53 89.4669 6.56667 89.3769 6.64 89.3103C6.70667 89.2369 6.8 89.2003 6.92 89.2003L11.61 89.2003C11.73 89.2003 11.8267 89.2369 11.9 89.3103C11.9667 89.3769 12 89.4669 12 89.5803ZM5.49 89.5903C5.49 89.7369 5.43667 89.8636 5.33 89.9703C5.22333 90.0769 5.09333 90.1303 4.94 90.1303C4.77333 90.1303 4.64333 90.0769 4.55 89.9703C4.45 89.8569 4.4 89.7269 4.4 89.5803C4.4 89.4403 4.45 89.3169 4.55 89.2103C4.64333 89.0969 4.77333 89.0403 4.94 89.0403C5.09333 89.0403 5.22333 89.0936 5.33 89.2003C5.43667 89.3069 5.49 89.4369 5.49 89.5903ZM8.63 86.9196C8.21667 86.8996 7.84667 86.793 7.52 86.5996C7.19333 86.3996 6.93667 86.143 6.75 85.8296C6.56333 85.5096 6.47 85.1563 6.47 84.7696C6.47 84.463 6.51333 84.2263 6.6 84.0596C6.68667 83.893 6.81333 83.8296 6.98 83.8696C7.08 83.8963 7.14667 83.943 7.18 84.0096C7.21333 84.0696 7.22667 84.1463 7.22 84.2396C7.21333 84.3263 7.20667 84.4263 7.2 84.5396C7.16667 84.913 7.20667 85.2463 7.32 85.5396C7.42667 85.8263 7.59333 86.0563 7.82 86.2296C8.04667 86.3963 8.31667 86.4796 8.63 86.4796L8.63 86.9196ZM12 86.8596C12 86.9796 11.9667 87.073 11.9 87.1396C11.8333 87.2063 11.74 87.2396 11.62 87.2396L6.91 87.2396C6.79 87.2396 6.69667 87.2063 6.63 87.1396C6.56333 87.073 6.53 86.9796 6.53 86.8596C6.53 86.7396 6.56333 86.6463 6.63 86.5796C6.69667 86.513 6.79 86.4796 6.91 86.4796L11.62 86.4796C11.74 86.4796 11.8333 86.513 11.9 86.5796C11.9667 86.6463 12 86.7396 12 86.8596ZM12.05 80.58C12.05 81.12 11.9333 81.6 11.7 82.02C11.46 82.4333 11.13 82.76 10.71 83C10.29 83.2333 9.81 83.35 9.27 83.35C8.72333 83.35 8.24333 83.24 7.83 83.02C7.41 82.7933 7.08 82.4833 6.84 82.09C6.6 81.6966 6.48 81.2433 6.48 80.73C6.48 80.2233 6.59667 79.7833 6.83 79.41C7.05667 79.03 7.37333 78.7366 7.78 78.53C8.18667 78.3233 8.65 78.22 9.17 78.22C9.27667 78.22 9.36333 78.2533 9.43 78.32C9.49 78.3866 9.52 78.4733 9.52 78.58L9.52 82.83L8.88 82.83L8.88 78.5L9.19 78.93C8.80333 78.9233 8.45667 78.9933 8.15 79.14C7.84333 79.2866 7.60333 79.4966 7.43 79.77C7.25667 80.0366 7.17 80.3566 7.17 80.73C7.17 81.11 7.26 81.4433 7.44 81.73C7.62 82.0166 7.87 82.24 8.19 82.4C8.50333 82.5533 8.86333 82.63 9.27 82.63C9.67667 82.63 10.0367 82.5433 10.35 82.37C10.6633 82.19 10.91 81.9466 11.09 81.64C11.27 81.3333 11.36 80.98 11.36 80.58C11.36 80.34 11.32 80.1 11.24 79.86C11.1533 79.6133 11.0467 79.4166 10.92 79.27C10.86 79.1966 10.83 79.1133 10.83 79.02C10.8233 78.9266 10.8467 78.8466 10.9 78.78C10.98 78.6933 11.0667 78.65 11.16 78.65C11.2533 78.6433 11.3333 78.68 11.4 78.76C11.5867 78.98 11.7433 79.26 11.87 79.6C11.99 79.94 12.05 80.2666 12.05 80.58Z" fill="#45396D"/>
    <circle cx="9" cy="48" r="9" transform="rotate(90 9 48)" fill="#025949"/>
</svg>
