<svg width="611" height="436" viewBox="0 0 611 436" fill="none" xmlns="http://www.w3.org/2000/svg">
<path d="M186.128 61.578C185.523 61.8698 184.933 61.8343 184.359 61.4717C183.784 61.109 183.486 60.5733 183.465 59.8645L182.092 33.7119C182.052 32.7989 182.399 32.1653 183.134 31.811C183.913 31.436 184.625 31.5591 185.27 32.1804L204.933 49.6C205.463 50.0908 205.685 50.6629 205.6 51.3165C205.527 51.938 205.176 52.3998 204.549 52.7019C204.225 52.8582 203.87 52.9228 203.484 52.8957C203.109 52.8365 202.779 52.676 202.493 52.4142L184.823 36.3119L185.732 35.8744L187.185 59.7901C187.2 60.209 187.098 60.5778 186.879 60.8967C186.681 61.2051 186.431 61.4322 186.128 61.578ZM185.159 55.1716L185.113 51.7574L197.826 45.6317L200.467 47.7957L185.159 55.1716Z" fill="#45396D"/>
<path d="M219.034 55.9942C218.534 56.164 218.056 56.1364 217.599 55.9113C217.173 55.7012 216.875 55.3462 216.705 54.8463L211.425 39.3025C210.838 37.4995 210.71 35.7433 211.042 34.0337C211.374 32.3242 212.105 30.8211 213.236 29.5244C214.36 28.205 215.808 27.2442 217.58 26.6422C219.375 26.0323 221.12 25.9085 222.815 26.2708C224.502 26.6103 225.997 27.3569 227.302 28.5107C228.629 29.6567 229.597 31.1274 230.207 32.9227C230.817 34.7179 230.979 36.4626 230.692 38.1567C230.421 39.8204 229.769 41.2965 228.737 42.585C227.697 43.8508 226.347 44.7654 224.688 45.3289C223.347 45.7844 222.016 45.9324 220.695 45.7729C219.388 45.5831 218.175 45.146 217.056 44.4617L220.182 53.6652C220.352 54.1652 220.332 54.6283 220.121 55.0545C219.919 55.5034 219.557 55.8167 219.034 55.9942ZM222.964 42.4927C224.123 42.099 225.065 41.4751 225.788 40.6209C226.504 39.744 226.962 38.7396 227.16 37.6076C227.374 36.4452 227.276 35.2618 226.867 34.0574C226.45 32.8302 225.807 31.8321 224.937 31.0629C224.082 30.2633 223.108 29.7451 222.014 29.5085C220.912 29.2492 219.781 29.3163 218.622 29.71C217.486 30.096 216.549 30.7312 215.81 31.6158C215.086 32.47 214.629 33.4744 214.438 34.6291C214.24 35.7611 214.349 36.9407 214.766 38.1678C215.175 39.3722 215.807 40.3742 216.661 41.1739C217.508 41.9508 218.483 42.4689 219.584 42.7282C220.701 42.9572 221.828 42.8786 222.964 42.4927Z" fill="#45396D"/>
<path d="M242.793 27.1355C242.476 25.7307 242.534 24.4016 242.965 23.1483C243.414 21.8662 244.15 20.7655 245.173 19.8462C246.196 18.927 247.41 18.3091 248.815 17.9926C250.22 17.6762 251.314 17.6756 252.099 17.9909C252.901 18.2775 253.292 18.7554 253.27 19.4245C253.274 19.7681 253.191 20.0573 253.023 20.292C252.873 20.4981 252.674 20.6536 252.427 20.7584C252.18 20.8633 251.896 20.9149 251.576 20.9132C250.009 20.9464 248.658 21.2262 247.521 21.7528C246.385 22.2793 245.545 22.9729 245.001 23.8335C244.48 24.6889 244.341 25.655 244.584 26.732L242.793 27.1355ZM245.534 39.1386C244.972 39.2652 244.507 39.2223 244.139 39.0099C243.766 38.7741 243.514 38.3635 243.382 37.7782L239.846 22.0796C239.719 21.5177 239.774 21.0502 240.009 20.6773C240.245 20.3044 240.644 20.0546 241.206 19.928C241.791 19.7962 242.259 19.8508 242.608 20.0919C242.976 20.3043 243.226 20.7031 243.358 21.2885L246.894 36.9871C247.021 37.549 246.966 38.0164 246.73 38.3894C246.518 38.757 246.119 39.0068 245.534 39.1386Z" fill="#45396D"/>
<path d="M275.12 34.0075C273.143 34.2491 271.329 34.0476 269.679 33.403C268.049 32.7316 266.704 31.7113 265.642 30.3419C264.601 28.9459 263.962 27.283 263.727 25.3534C263.488 23.3999 263.683 21.6351 264.313 20.0592C264.963 18.4565 265.964 17.1494 267.316 16.1381C268.664 15.1029 270.279 14.4704 272.161 14.2405C274.019 14.0135 275.666 14.2354 277.102 14.9062C278.535 15.5532 279.686 16.5611 280.555 17.9298C281.444 19.2719 282.003 20.8839 282.233 22.7659C282.289 23.2186 282.18 23.6187 281.909 23.9662C281.634 24.2899 281.258 24.4809 280.782 24.5391L266.381 26.2985L266.032 23.4397L280.325 21.6934L278.982 22.873C278.813 21.6847 278.445 20.6537 277.879 19.7799C277.31 18.8823 276.575 18.2105 275.674 17.7644C274.774 17.3184 273.728 17.1681 272.537 17.3136C271.179 17.4795 270.048 17.9199 269.144 18.6348C268.264 19.3468 267.637 20.2575 267.265 21.3668C266.89 22.4523 266.783 23.6502 266.943 24.9604C267.103 26.2707 267.543 27.4016 268.264 28.3533C268.985 29.3049 269.905 30.0144 271.026 30.482C272.147 30.9495 273.387 31.1003 274.745 30.9344C275.483 30.8442 276.218 30.6214 276.948 30.2663C277.699 29.8843 278.291 29.4856 278.724 29.0701C279.049 28.7643 279.414 28.5868 279.819 28.5373C280.245 28.4611 280.629 28.5351 280.971 28.7593C281.42 29.0671 281.682 29.434 281.758 29.8599C281.834 30.2858 281.689 30.6784 281.322 31.0375C280.59 31.7797 279.642 32.4275 278.476 32.9809C277.335 33.5315 276.216 33.8736 275.12 34.0075ZM271.339 11.367C270.815 11.431 270.377 11.3152 270.027 11.0195L266.101 7.98115C265.754 7.70928 265.548 7.3113 265.484 6.7872C265.42 6.26309 265.533 5.802 265.823 5.40391C266.113 5.00582 266.52 4.77476 267.044 4.71073C267.544 4.64961 268.007 4.77444 268.431 5.08521L272.325 8.1637C272.673 8.43556 272.877 8.82163 272.938 9.32191C273.002 9.84602 272.878 10.3086 272.564 10.7096C272.271 11.0838 271.863 11.303 271.339 11.367Z" fill="#45396D"/>
<path d="M300.534 32.3083C298.854 32.338 297.29 32.1135 295.841 31.635C294.416 31.1321 293.301 30.4917 292.495 29.7138C292.128 29.3362 291.965 28.907 292.004 28.4262C292.067 27.921 292.3 27.5089 292.703 27.1897C293.176 26.7973 293.641 26.6331 294.098 26.697C294.579 26.7365 294.99 26.9333 295.333 27.2873C295.749 27.736 296.404 28.1565 297.299 28.5488C298.218 28.9167 299.229 29.0908 300.333 29.0714C301.725 29.0468 302.776 28.8002 303.488 28.3316C304.224 27.8625 304.598 27.2678 304.609 26.5475C304.62 25.8272 304.261 25.2094 303.532 24.6942C302.827 24.1786 301.536 23.7693 299.658 23.4664C297.226 23.0292 295.449 22.3405 294.329 21.4001C293.232 20.4593 292.671 19.293 292.647 17.9012C292.625 16.6774 292.967 15.6632 293.673 14.8587C294.379 14.0301 295.292 13.4139 296.413 13.01C297.533 12.5822 298.706 12.3575 299.93 12.3359C301.513 12.3079 302.922 12.5351 304.154 13.0174C305.387 13.4997 306.371 14.1785 307.107 15.0536C307.449 15.4317 307.612 15.8368 307.596 16.2692C307.579 16.6776 307.381 17.0291 307.003 17.3238C306.623 17.5946 306.169 17.6866 305.639 17.5999C305.11 17.5133 304.662 17.3051 304.296 16.9755C303.686 16.4102 303.031 16.0257 302.331 15.822C301.632 15.6183 300.826 15.5245 299.914 15.5406C298.858 15.5593 297.962 15.7551 297.224 16.1282C296.51 16.5008 296.16 17.0351 296.172 17.731C296.18 18.1629 296.295 18.557 296.517 18.9131C296.763 19.2448 297.224 19.5487 297.901 19.8248C298.578 20.0769 299.566 20.3235 300.867 20.5646C302.673 20.8928 304.097 21.3237 305.138 21.8574C306.204 22.3907 306.971 23.0253 307.44 23.7611C307.909 24.473 308.152 25.3088 308.169 26.2686C308.188 27.3725 307.906 28.3736 307.322 29.2721C306.761 30.1701 305.91 30.8932 304.767 31.4415C303.649 31.9893 302.238 32.2782 300.534 32.3083Z" fill="#45396D"/>
<path d="M318.469 24.4414C317.942 24.4041 317.511 24.2052 317.175 23.8447C316.864 23.4858 316.727 23.043 316.764 22.5164C316.803 21.9657 317.002 21.5347 317.361 21.2232C317.744 20.9134 318.198 20.7772 318.725 20.8144L326.733 21.3806C327.26 21.4179 327.679 21.6159 327.99 21.9748C328.302 22.3336 328.438 22.7884 328.399 23.339C328.362 23.8657 328.164 24.2848 327.805 24.5962C327.446 24.9077 327.003 25.0448 326.477 25.0076L318.469 24.4414Z" fill="#45396D"/>
<path d="M362.914 38.7485C362.395 38.6507 361.99 38.4034 361.698 38.0066C361.435 37.5906 361.352 37.1231 361.45 36.6043L363.357 26.4864C363.637 25.0005 363.478 23.8349 362.88 22.9896C362.287 22.1207 361.4 21.5751 360.221 21.3529C358.995 21.1217 357.9 21.3551 356.939 22.0531C356 22.7554 355.407 23.767 355.158 25.0878L352.221 24.5344C352.51 23.0014 353.094 21.7193 353.972 20.6881C354.855 19.6333 355.948 18.8868 357.252 18.4487C358.579 18.015 360.009 17.9426 361.542 18.2315C362.886 18.4849 364.022 19.0041 364.948 19.7893C365.875 20.5745 366.512 21.5983 366.861 22.8606C367.237 24.1038 367.272 25.5391 366.965 27.1664L365.058 37.2843C364.96 37.8032 364.713 38.2084 364.316 38.4999C363.924 38.7679 363.456 38.8508 362.914 38.7485ZM339.317 34.3015C338.798 34.2037 338.393 33.9564 338.102 33.5596C337.838 33.1436 337.755 32.6761 337.853 32.1573L340.82 16.4144C340.922 15.8719 341.17 15.4667 341.562 15.1988C341.978 14.9353 342.445 14.8524 342.964 14.9502C343.507 15.0524 343.912 15.2997 344.18 15.6921C344.448 16.0846 344.531 16.552 344.429 17.0944L341.462 32.8373C341.364 33.3562 341.117 33.7614 340.72 34.0529C340.327 34.3209 339.86 34.4037 339.317 34.3015ZM351.133 36.5284C350.614 36.4306 350.209 36.1832 349.918 35.7864C349.654 35.3704 349.571 34.903 349.669 34.3841L351.576 24.2662C351.856 22.7804 351.697 21.6148 351.099 20.7694C350.506 19.9005 349.62 19.3549 348.44 19.1327C347.214 18.9016 346.12 19.135 345.158 19.8329C344.196 20.5308 343.591 21.5402 343.342 22.8609L341.113 22.4409C341.402 20.9079 341.962 19.6213 342.793 18.5812C343.628 17.5176 344.651 16.7578 345.86 16.3018C347.069 15.8459 348.37 15.7491 349.761 16.0113C351.106 16.2647 352.241 16.784 353.168 17.5692C354.094 18.3543 354.732 19.3781 355.08 20.6404C355.456 21.8836 355.491 23.3189 355.184 24.9462L353.278 35.0641C353.18 35.583 352.933 35.9882 352.536 36.2798C352.143 36.5477 351.676 36.6306 351.133 36.5284Z" fill="#45396D"/>
<path d="M377.259 42.8922C376.754 42.7392 376.378 42.4497 376.13 42.0237C375.913 41.5818 375.881 41.1081 376.034 40.6028L380.678 25.2707C380.838 24.7424 381.128 24.3662 381.547 24.1421C381.989 23.9248 382.462 23.8928 382.968 24.0458C383.496 24.2059 383.872 24.4954 384.096 24.9143C384.321 25.3333 384.353 25.8069 384.193 26.3352L379.549 41.6673C379.396 42.1726 379.106 42.5489 378.68 42.796C378.261 43.0202 377.787 43.0523 377.259 42.8922ZM383.897 20.9794C383.276 20.7916 382.803 20.4099 382.476 19.8343C382.178 19.2427 382.124 18.6368 382.311 18.0167C382.499 17.3965 382.878 16.9343 383.446 16.6301C384.045 16.3098 384.654 16.2436 385.274 16.4315C385.894 16.6193 386.353 17.009 386.65 17.6006C386.978 18.1762 387.047 18.7741 386.859 19.3942C386.672 20.0144 386.278 20.4846 385.68 20.8049C385.111 21.1091 384.517 21.1673 383.897 20.9794Z" fill="#45396D"/>
<path d="M398.293 50.4463C396.559 49.741 395.155 48.7034 394.08 47.3334C393.036 45.9503 392.387 44.3911 392.134 42.656C391.904 40.9299 392.146 39.1887 392.86 37.4324C393.574 35.6761 394.578 34.2579 395.873 33.1779C397.198 32.0848 398.668 31.4002 400.283 31.1243C401.907 30.8262 403.531 31.0071 405.154 31.6672C406.465 32.2006 407.564 32.9713 408.449 33.9792C409.344 34.9648 409.979 36.0782 410.356 37.3194L414.017 28.3155C414.225 27.8042 414.548 27.4562 414.986 27.2716C415.446 27.0959 415.921 27.1076 416.41 27.3065C416.921 27.5145 417.269 27.8374 417.454 28.2752C417.639 28.713 417.627 29.1876 417.419 29.6989L411.234 44.9054C410.52 46.6617 409.467 48.0729 408.075 49.1389C406.705 50.214 405.163 50.8825 403.45 51.1445C401.746 51.3843 400.027 51.1515 398.293 50.4463ZM399.514 47.445C400.648 47.9061 401.768 48.0507 402.874 47.8788C403.989 47.6847 404.997 47.2137 405.897 46.4657C406.797 45.7177 407.487 44.7545 407.966 43.5762C408.455 42.3757 408.633 41.2046 408.501 40.0629C408.37 38.9213 407.968 37.9028 407.296 37.0076C406.632 36.0901 405.734 35.4008 404.6 34.9397C403.488 34.4876 402.364 34.3541 401.226 34.5392C400.12 34.7111 399.11 35.1554 398.197 35.8721C397.306 36.5979 396.616 37.561 396.128 38.7615C395.649 39.9398 395.47 41.1109 395.593 42.2748C395.738 43.4478 396.142 44.493 396.805 45.4104C397.499 46.3147 398.402 46.9929 399.514 47.445Z" fill="#45396D"/>
<path d="M420.057 60.2857C419.588 60.0426 419.272 59.6891 419.107 59.225C418.974 58.7508 419.029 58.2793 419.273 57.8106L426.648 43.5893C426.902 43.0993 427.256 42.7825 427.709 42.6389C428.183 42.5064 428.654 42.5617 429.123 42.8047C429.613 43.0589 429.93 43.4124 430.073 43.8654C430.217 44.3183 430.162 44.7898 429.908 45.2799L422.532 59.5011C422.289 59.9698 421.936 60.2866 421.472 60.4515C421.019 60.5951 420.547 60.5398 420.057 60.2857ZM430.598 39.9605C430.023 39.6622 429.627 39.2001 429.411 38.5743C429.227 37.9383 429.284 37.3326 429.583 36.7574C429.881 36.1821 430.338 35.7971 430.952 35.6022C431.599 35.3971 432.211 35.4437 432.786 35.7421C433.361 36.0404 433.741 36.5076 433.924 37.1436C434.141 37.7694 434.1 38.3699 433.801 38.9452C433.503 39.5204 433.03 39.9106 432.383 40.1157C431.768 40.3106 431.173 40.2588 430.598 39.9605Z" fill="#45396D"/>
<path d="M552.304 212.015C552.015 211.409 552.053 210.819 552.418 210.246C552.783 209.673 553.32 209.377 554.029 209.358L580.187 208.092C581.1 208.056 581.732 208.406 582.083 209.142C582.455 209.922 582.329 210.634 581.705 211.277L564.206 230.868C563.713 231.396 563.14 231.616 562.487 231.529C561.865 231.453 561.405 231.1 561.105 230.472C560.95 230.147 560.887 229.792 560.916 229.406C560.977 229.031 561.139 228.702 561.402 228.417L577.576 210.813L578.01 211.723L554.088 213.079C553.669 213.093 553.301 212.989 552.983 212.769C552.675 212.57 552.449 212.318 552.304 212.015ZM558.715 211.072L562.129 211.04L568.203 223.778L566.028 226.41L558.715 211.072Z" fill="#45396D"/>
<path d="M557.562 244.786C557.403 244.283 557.441 243.805 557.676 243.354C557.896 242.932 558.257 242.642 558.761 242.483L574.416 237.544C576.231 236.996 577.99 236.907 579.692 237.276C581.394 237.645 582.881 238.409 584.152 239.568C585.447 240.72 586.376 242.189 586.939 243.974C587.509 245.782 587.595 247.529 587.196 249.215C586.82 250.894 586.041 252.373 584.859 253.652C583.684 254.954 582.192 255.89 580.384 256.461C578.576 257.031 576.828 257.155 575.141 256.831C573.484 256.524 572.022 255.84 570.756 254.78C569.514 253.712 568.629 252.343 568.101 250.672C567.675 249.322 567.556 247.988 567.745 246.67C567.963 245.368 568.427 244.165 569.135 243.06L559.866 245.985C559.362 246.144 558.899 246.114 558.478 245.894C558.034 245.682 557.728 245.313 557.562 244.786ZM570.975 249.011C571.343 250.178 571.946 251.133 572.784 251.875C573.645 252.61 574.64 253.089 575.767 253.312C576.924 253.551 578.11 253.479 579.323 253.096C580.559 252.706 581.571 252.085 582.359 251.232C583.177 250.395 583.716 249.432 583.976 248.344C584.26 247.248 584.217 246.116 583.849 244.949C583.488 243.804 582.873 242.853 582.005 242.095C581.167 241.353 580.173 240.874 579.022 240.658C577.895 240.435 576.713 240.518 575.477 240.908C574.264 241.291 573.249 241.901 572.431 242.738C571.636 243.567 571.096 244.53 570.813 245.626C570.56 246.738 570.614 247.866 570.975 249.011Z" fill="#45396D"/>
<path d="M585.777 269.332C587.193 269.068 588.519 269.175 589.755 269.652C591.02 270.149 592.092 270.926 592.973 271.982C593.853 273.039 594.425 274.275 594.689 275.69C594.953 277.106 594.913 278.2 594.569 278.972C594.252 279.763 593.76 280.136 593.092 280.089C592.749 280.08 592.463 279.987 592.235 279.81C592.034 279.652 591.886 279.448 591.791 279.197C591.695 278.946 591.654 278.661 591.668 278.341C591.693 276.774 591.464 275.413 590.98 274.258C590.496 273.103 589.834 272.237 588.995 271.662C588.159 271.109 587.199 270.934 586.114 271.137L585.777 269.332ZM573.68 271.623C573.575 271.057 573.635 270.594 573.861 270.234C574.11 269.87 574.53 269.634 575.12 269.524L590.94 266.575C591.506 266.47 591.971 266.542 592.335 266.791C592.699 267.041 592.933 267.449 593.039 268.015C593.149 268.605 593.077 269.07 592.823 269.41C592.597 269.769 592.189 270.004 591.599 270.114L575.78 273.063C575.213 273.168 574.748 273.096 574.384 272.847C574.025 272.621 573.79 272.213 573.68 271.623Z" fill="#45396D"/>
<path d="M577.5 301.342C577.362 299.355 577.657 297.554 578.386 295.939C579.141 294.347 580.23 293.056 581.653 292.066C583.101 291.099 584.795 290.548 586.734 290.412C588.697 290.275 590.449 290.562 591.991 291.273C593.557 292.005 594.811 293.073 595.751 294.475C596.714 295.875 597.262 297.521 597.394 299.412C597.525 301.28 597.217 302.913 596.473 304.312C595.753 305.71 594.686 306.807 593.274 307.603C591.888 308.421 590.249 308.897 588.358 309.029C587.903 309.06 587.509 308.931 587.176 308.642C586.867 308.351 586.696 307.966 586.662 307.487L585.652 293.014L588.525 292.814L589.528 307.179L588.419 305.776C589.615 305.669 590.664 305.355 591.566 304.835C592.491 304.313 593.201 303.614 593.693 302.738C594.185 301.862 594.389 300.825 594.306 299.628C594.211 298.263 593.829 297.111 593.162 296.171C592.497 295.255 591.62 294.582 590.532 294.153C589.467 293.722 588.276 293.553 586.959 293.645C585.643 293.737 584.49 294.118 583.503 294.788C582.515 295.458 581.759 296.341 581.233 297.436C580.708 298.532 580.494 299.762 580.589 301.126C580.641 301.868 580.825 302.613 581.142 303.361C581.484 304.131 581.852 304.743 582.244 305.197C582.533 305.538 582.691 305.911 582.719 306.319C582.773 306.748 582.68 307.127 582.438 307.457C582.107 307.889 581.727 308.132 581.298 308.186C580.869 308.24 580.484 308.074 580.144 307.689C579.441 306.92 578.844 305.939 578.351 304.747C577.861 303.578 577.577 302.443 577.5 301.342ZM600.306 298.74C600.27 298.213 600.408 297.783 600.722 297.448L603.96 293.685C604.249 293.352 604.657 293.168 605.184 293.131C605.711 293.094 606.165 293.231 606.548 293.541C606.93 293.851 607.14 294.269 607.177 294.796C607.212 295.299 607.063 295.754 606.731 296.163L603.454 299.892C603.165 300.225 602.769 300.409 602.266 300.444C601.739 300.48 601.284 300.332 600.899 299.998C600.541 299.686 600.343 299.267 600.306 298.74Z" fill="#45396D"/>
<path d="M577.674 326.746C577.757 325.068 578.086 323.522 578.66 322.109C579.258 320.721 579.972 319.651 580.802 318.899C581.203 318.558 581.642 318.424 582.119 318.495C582.619 318.592 583.015 318.852 583.306 319.275C583.666 319.773 583.799 320.248 583.704 320.7C583.633 321.177 583.409 321.575 583.032 321.893C582.557 322.278 582.093 322.903 581.642 323.77C581.213 324.662 580.972 325.659 580.917 326.762C580.848 328.152 581.024 329.218 581.444 329.96C581.863 330.726 582.431 331.138 583.149 331.198C583.867 331.257 584.507 330.94 585.07 330.247C585.632 329.578 586.127 328.317 586.555 326.464C587.154 324.067 587.96 322.341 588.974 321.285C589.986 320.254 591.187 319.773 592.577 319.842C593.8 319.902 594.789 320.312 595.544 321.07C596.324 321.829 596.877 322.782 597.205 323.927C597.557 325.074 597.703 326.259 597.642 327.481C597.564 329.063 597.243 330.453 596.679 331.651C596.115 332.848 595.372 333.785 594.449 334.46C594.049 334.777 593.634 334.912 593.204 334.867C592.797 334.823 592.46 334.602 592.191 334.204C591.947 333.808 591.885 333.348 592.007 332.825C592.129 332.303 592.367 331.87 592.72 331.527C593.325 330.956 593.753 330.329 594.003 329.644C594.253 328.96 594.401 328.162 594.446 327.251C594.498 326.196 594.362 325.289 594.04 324.528C593.716 323.791 593.206 323.405 592.511 323.371C592.08 323.349 591.679 323.438 591.308 323.636C590.961 323.859 590.627 324.299 590.306 324.956C590.009 325.614 589.697 326.584 589.369 327.865C588.921 329.645 588.395 331.037 587.793 332.04C587.189 333.068 586.505 333.791 585.739 334.209C584.997 334.629 584.147 334.815 583.188 334.768C582.086 334.713 581.106 334.365 580.249 333.721C579.39 333.102 578.726 332.204 578.255 331.028C577.784 329.875 577.59 328.448 577.674 326.746Z" fill="#45396D"/>
<path d="M572.461 364.908C572.566 364.44 572.835 364.07 573.265 363.799C573.696 363.527 574.157 363.447 574.648 363.558L596.067 368.403L595.559 365.594C595.485 365.159 595.488 364.766 595.567 364.415C595.683 363.9 595.945 363.504 596.352 363.227C596.754 362.973 597.213 362.904 597.728 363.021C598.102 363.106 598.42 363.276 598.682 363.532C598.944 363.788 599.101 364.131 599.151 364.561L599.878 370.483C599.899 370.611 599.907 370.736 599.904 370.858C599.901 370.981 599.889 371.089 599.868 371.182C599.746 371.721 599.475 372.102 599.055 372.327C598.653 372.581 598.183 372.647 597.645 372.525L573.838 367.139C573.347 367.028 572.965 366.757 572.693 366.327C572.422 365.896 572.344 365.423 572.461 364.908Z" fill="#45396D"/>
<path d="M568.307 380.429C568.46 379.974 568.764 379.633 569.22 379.406C569.676 379.179 570.142 379.146 570.62 379.306C570.802 379.367 570.965 379.447 571.109 379.546C571.268 379.676 571.435 379.82 571.609 379.98L588.666 396.598L592.146 386.222C592.314 385.722 592.615 385.354 593.048 385.12C593.496 384.915 593.97 384.897 594.471 385.065C594.971 385.233 595.328 385.53 595.539 385.955C595.766 386.411 595.796 386.889 595.628 387.39L591.266 400.394C591.106 400.872 590.798 401.224 590.342 401.451C589.887 401.678 589.42 401.711 588.942 401.551C588.783 401.497 588.631 401.421 588.487 401.322C588.366 401.231 588.237 401.124 588.1 401.003L568.725 382.354C568.21 381.776 568.071 381.135 568.307 380.429Z" fill="#45396D"/>
<path d="M553.398 416.67C553.627 416.194 553.97 415.866 554.429 415.687C554.899 415.539 555.372 415.58 555.848 415.808L563.833 419.638C565.066 420.229 566.182 420.485 567.179 420.404C568.176 420.323 569.045 419.981 569.786 419.379C570.539 418.808 571.154 418.025 571.632 417.03C572.067 416.121 572.278 415.21 572.263 414.298C572.248 413.386 572.03 412.563 571.61 411.829C571.212 411.106 570.613 410.552 569.812 410.168L570.793 408.123C572.156 408.777 573.212 409.683 573.961 410.84C574.721 412.03 575.14 413.349 575.218 414.797C575.295 416.245 574.992 417.683 574.307 419.111C573.59 420.604 572.628 421.78 571.418 422.637C570.22 423.526 568.843 424.01 567.288 424.089C565.722 424.19 564.041 423.81 562.245 422.949L554.26 419.119C553.784 418.891 553.461 418.536 553.292 418.056C553.135 417.608 553.17 417.146 553.398 416.67ZM559.797 403.329C560.025 402.853 560.368 402.525 560.827 402.346C561.297 402.198 561.77 402.239 562.246 402.467L576.723 409.41C577.221 409.649 577.549 409.992 577.706 410.441C577.854 410.911 577.813 411.384 577.585 411.86C577.346 412.357 577.003 412.685 576.554 412.843C576.106 413 575.633 412.96 575.135 412.721L560.658 405.778C560.182 405.55 559.854 405.206 559.675 404.748C559.517 404.299 559.558 403.826 559.797 403.329ZM566.289 406.442C566.517 405.966 566.86 405.638 567.319 405.459C567.789 405.312 568.262 405.352 568.738 405.581L584.319 413.053C584.817 413.292 585.144 413.635 585.302 414.084C585.449 414.553 585.409 415.026 585.18 415.503C584.942 416 584.598 416.328 584.15 416.486C583.702 416.643 583.229 416.603 582.731 416.364L567.15 408.892C566.674 408.663 566.346 408.32 566.167 407.861C566.009 407.413 566.05 406.94 566.289 406.442Z" fill="#45396D"/>
<path d="M55.1328 398.968C55.4156 399.578 55.3715 400.167 55.0005 400.736C54.6295 401.305 54.0895 401.595 53.3805 401.606L27.2105 402.595C26.297 402.622 25.6685 402.266 25.3251 401.525C24.9615 400.742 25.0951 400.031 25.7258 399.395L43.4318 379.99C43.9303 379.468 44.5057 379.254 45.1579 379.348C45.7783 379.43 46.2349 379.787 46.5278 380.419C46.6793 380.745 46.7387 381.101 46.7059 381.487C46.6412 381.861 46.4759 382.189 46.21 382.471L29.8503 399.902L29.4261 398.988L53.3606 397.885C53.7797 397.876 54.147 397.983 54.4625 398.207C54.768 398.41 54.9915 398.663 55.1328 398.968ZM48.7129 399.843L45.2984 399.839L39.3597 387.038L41.5622 384.429L48.7129 399.843Z" fill="#45396D"/>
<path d="M40.8951 363.919C41.1128 364.63 40.9027 365.297 40.2647 365.919L27.11 377.925C26.776 378.228 26.4044 378.367 25.995 378.342C25.5557 378.3 25.1661 378.093 24.8261 377.721C24.5002 377.394 24.3464 377.014 24.3647 376.582C24.376 376.127 24.5451 375.736 24.8721 375.41L37.4858 364.096L37.9914 365.749L21.2276 363.499C20.7743 363.412 20.4155 363.183 20.1514 362.812C19.8803 362.418 19.7813 361.971 19.8545 361.472C19.9117 361.003 20.1143 360.64 20.4623 360.383C20.8103 360.126 21.2075 360.029 21.6538 360.093L39.2746 362.683C40.1373 362.796 40.6775 363.208 40.8951 363.919Z" fill="#45396D"/>
<path d="M35.0848 338.594C35.3673 340.323 35.1944 341.944 34.5662 343.458C33.9143 344.975 32.9199 346.256 31.5829 347.301C30.2185 348.326 28.6006 348.992 26.7294 349.298C24.8582 349.604 23.1069 349.452 21.4753 348.843C19.8399 348.211 18.4759 347.23 17.3833 345.9C16.2631 344.551 15.552 342.953 15.2502 341.106C14.9483 339.258 15.1156 337.529 15.752 335.917C16.3647 334.309 17.3476 332.957 18.7004 331.86C20.0495 330.74 21.6596 330.027 23.5307 329.721L23.7572 331.107C25.6283 330.801 27.3758 330.929 28.9996 331.491C30.5959 332.032 31.9444 332.918 33.0453 334.149C34.1224 335.384 34.8023 336.865 35.0848 338.594ZM31.7711 338.406C31.5737 337.198 31.1134 336.167 30.3901 335.312C29.6432 334.462 28.7278 333.845 27.6439 333.463C26.5364 333.085 25.355 332.998 24.0997 333.203C22.8206 333.412 21.7282 333.87 20.8224 334.578C19.8929 335.289 19.2214 336.165 18.8077 337.205C18.3704 338.249 18.2504 339.375 18.4478 340.583C18.6413 341.767 19.1134 342.797 19.8643 343.671C20.5875 344.526 21.5048 345.154 22.6162 345.556C23.7 345.938 24.8815 346.025 26.1605 345.816C27.4159 345.611 28.5083 345.153 29.4378 344.441C30.3397 343.71 31.0093 342.823 31.4467 341.779C31.8564 340.715 31.9646 339.591 31.7711 338.406ZM33.5617 329.943C33.6469 330.464 33.5527 330.929 33.2791 331.339C32.978 331.728 32.5669 331.966 32.0458 332.051L26.6099 332.939L22.7335 332.879L23.5307 329.721L31.4537 328.427C31.9748 328.342 32.442 328.448 32.8553 328.745C33.2411 329.022 33.4766 329.422 33.5617 329.943Z" fill="#45396D"/>
<path d="M32.1081 300.938C32.1159 301.465 31.9544 301.912 31.6238 302.277C31.2688 302.618 30.8273 302.793 30.2993 302.8L21.4443 302.931C20.0764 302.951 18.9643 303.219 18.1078 303.736C17.2513 304.253 16.6254 304.946 16.2302 305.816C15.8106 306.662 15.609 307.637 15.6252 308.741C15.6401 309.749 15.8575 310.658 16.2774 311.468C16.6974 312.278 17.2589 312.917 17.9619 313.387C18.6409 313.857 19.4243 314.086 20.3122 314.073L20.3456 316.34C18.8338 316.363 17.4846 316.022 16.2982 315.32C15.0873 314.594 14.1246 313.6 13.4099 312.338C12.6953 311.076 12.3263 309.654 12.303 308.07C12.2786 306.414 12.6168 304.933 13.3177 303.626C13.9942 302.296 15.0108 301.249 16.3677 300.485C17.7243 299.697 19.3985 299.288 21.3902 299.259L30.2453 299.129C30.7732 299.121 31.2198 299.294 31.5851 299.649C31.926 299.98 32.1003 300.41 32.1081 300.938ZM32.326 315.732C32.3337 316.26 32.1723 316.706 31.8416 317.071C31.4866 317.412 31.0451 317.587 30.5172 317.595L14.4629 317.831C13.911 317.839 13.4646 317.678 13.1236 317.347C12.7824 316.992 12.6079 316.55 12.6001 316.022C12.592 315.47 12.7534 315.024 13.0844 314.683C13.4154 314.342 13.8569 314.168 14.4089 314.16L30.4631 313.923C30.9911 313.915 31.4375 314.077 31.8024 314.407C32.1433 314.739 32.3178 315.18 32.326 315.732Z" fill="#45396D"/>
<path d="M33.635 280.955C33.5057 282.148 33.0911 283.19 32.3911 284.079C31.6673 284.966 30.7507 285.628 29.6414 286.063C28.532 286.498 27.3212 286.644 26.0089 286.502L8.93691 284.651C8.41198 284.594 8.0006 284.381 7.70277 284.01C7.40493 283.64 7.28447 283.193 7.34137 282.668C7.39827 282.143 7.61184 281.731 7.9821 281.433C8.35235 281.136 8.79994 281.015 9.32486 281.072L26.3969 282.923C27.3513 283.026 28.179 282.85 28.8802 282.395C29.5813 281.94 29.9732 281.331 30.056 280.567L30.1879 279.35C30.2345 278.921 30.4403 278.581 30.8054 278.331C31.173 278.057 31.6193 277.948 32.1442 278.005C32.6692 278.062 33.0767 278.312 33.3667 278.753C33.6594 279.171 33.7721 279.691 33.7049 280.311L33.635 280.955ZM16.9902 287.19C16.9359 287.691 16.7488 288.081 16.4288 288.36C16.1089 288.639 15.7342 288.756 15.3047 288.709C14.8275 288.657 14.4625 288.461 14.2098 288.12C13.9571 287.778 13.8579 287.357 13.9123 286.856L14.8084 278.589C14.8627 278.087 15.0499 277.697 15.3698 277.418C15.6898 277.139 16.0883 277.025 16.5656 277.077C16.995 277.124 17.3361 277.318 17.5888 277.659C17.8415 278 17.9407 278.421 17.8864 278.922L16.9902 287.19Z" fill="#45396D"/>
<path d="M14.0206 238.554C14.509 236.971 15.2963 235.682 16.3823 234.686C17.4525 233.66 18.713 232.994 20.1637 232.688C21.5915 232.376 23.0965 232.463 24.6789 232.952C26.2841 233.447 27.5998 234.23 28.6258 235.3C29.6288 236.364 30.2947 237.624 30.6234 239.082C30.9362 240.51 30.8484 242.015 30.36 243.597C29.8716 245.179 29.0958 246.472 28.0327 247.475C26.9466 248.471 25.6897 249.125 24.2619 249.438C22.8112 249.744 21.2832 249.649 19.678 249.154C18.0956 248.665 16.8029 247.889 15.7998 246.826C14.7738 245.756 14.1044 244.507 13.7916 243.079C13.4559 241.645 13.5322 240.136 14.0206 238.554ZM17.1271 239.475C16.8369 240.415 16.7964 241.319 17.0056 242.188C17.199 243.026 17.6218 243.772 18.2741 244.425C18.9034 245.072 19.7111 245.547 20.6972 245.851C21.7063 246.163 22.6529 246.229 23.5371 246.05C24.4212 245.871 25.1909 245.493 25.846 244.916C26.5083 244.317 26.9845 243.547 27.2747 242.607C27.5649 241.667 27.6019 240.774 27.3856 239.929C27.1764 239.06 26.7536 238.314 26.1171 237.691C25.4878 237.045 24.6686 236.566 23.6596 236.254C22.6735 235.95 21.7383 235.887 20.8541 236.066C19.9541 236.216 19.1844 236.593 18.5452 237.2C17.89 237.776 17.4173 238.535 17.1271 239.475ZM28.7315 235.446L39.5805 247.536C40.0952 248.147 40.2534 248.773 40.0552 249.415C39.9066 249.897 39.6451 250.256 39.2708 250.492C38.8965 250.728 38.4888 250.828 38.0478 250.792C37.6137 250.734 37.2293 250.515 36.8943 250.135L30.284 242.745L28.7315 235.446Z" fill="#45396D"/>
<path d="M54.0655 214.199C53.8421 214.678 53.5021 215.009 53.0453 215.193C52.577 215.345 52.1036 215.31 51.6252 215.086L43.6007 211.34C42.3611 210.761 41.2433 210.517 40.2472 210.608C39.2511 210.699 38.3855 211.05 37.6503 211.66C36.9035 212.239 36.2965 213.028 35.8295 214.029C35.4031 214.942 35.2021 215.855 35.2266 216.767C35.251 217.679 35.4771 218.499 35.9047 219.229C36.3105 219.948 36.9157 220.495 37.7204 220.871L36.7609 222.926C35.3908 222.286 34.3253 221.392 33.5643 220.242C32.7918 219.06 32.3592 217.745 32.2667 216.298C32.1742 214.851 32.463 213.41 33.1331 211.975C33.8336 210.474 34.7843 209.289 35.9849 208.42C37.174 207.518 38.5457 207.02 40.1 206.924C41.6645 206.807 43.3492 207.17 45.1541 208.012L53.1786 211.759C53.657 211.982 53.9832 212.333 54.1571 212.812C54.3194 213.258 54.2889 213.721 54.0655 214.199ZM47.806 227.606C47.5827 228.084 47.2426 228.416 46.7858 228.6C46.3175 228.752 45.8441 228.716 45.3657 228.493L30.8173 221.7C30.3171 221.467 29.9859 221.127 29.8235 220.68C29.6714 220.212 29.707 219.739 29.9304 219.26C30.1639 218.76 30.504 218.429 30.9506 218.266C31.3971 218.104 31.8705 218.14 32.3707 218.373L46.9191 225.166C47.3976 225.389 47.7288 225.729 47.9129 226.186C48.0752 226.633 48.0396 227.106 47.806 227.606ZM41.2821 224.56C41.0587 225.039 40.7186 225.37 40.2619 225.554C39.7935 225.706 39.3202 225.67 38.8417 225.447L23.1842 218.137C22.6841 217.903 22.3528 217.563 22.1905 217.116C22.0384 216.648 22.074 216.175 22.2973 215.696C22.5309 215.196 22.8709 214.865 23.3175 214.703C23.7641 214.54 24.2375 214.576 24.7377 214.809L40.3952 222.12C40.8736 222.343 41.2048 222.683 41.3889 223.14C41.5512 223.587 41.5156 224.06 41.2821 224.56Z" fill="#45396D"/>
</svg>
