<svg width="646" height="56" viewBox="0 0 646 56" fill="none" xmlns="http://www.w3.org/2000/svg">
<g filter="url(#filter0_d)">
<path d="M16.722 9.28C16.242 9.08 15.762 9.04 15.282 9.04C14.362 9.04 13.442 9.2 12.482 9.2C11.322 9.2 10.122 9.24 9.00203 8.96C8.60203 8.88 8.24203 8.68 7.84203 8.68C7.20203 8.68 7.08203 10.28 7.08203 10.76C7.08203 11.48 7.20203 12.32 8.16203 12.32C8.88203 12.32 9.52203 11.88 10.242 11.88C11.522 11.88 11.442 12.88 11.442 13.84C11.642 21.76 12.202 29.64 12.442 37.56V37.68C12.442 38.72 12.322 39.76 12.322 40.8C12.322 41.96 12.482 42.44 13.762 42.44C14.562 42.44 15.722 42.32 15.722 41.24C15.722 40.6 15.522 40 15.442 39.4C15.362 38.68 15.402 38 15.402 37.28C15.402 36.64 15.362 35.96 15.322 35.28C15.002 31.6 14.802 27.92 14.642 24.24C14.482 20.68 14.522 17.16 14.162 13.64C14.122 13.36 14.082 13.08 14.082 12.76C14.082 12.48 14.082 11.96 14.482 11.96C15.042 11.96 15.562 12.44 16.162 12.44C16.962 12.44 17.522 11.68 17.522 10.92C17.522 10.32 17.282 9.6 16.722 9.28ZM36.1111 13H35.7111C34.7111 13 33.5111 13.04 33.5111 14.36C33.5111 15.12 33.5911 15.84 33.5911 16.56C33.5911 18.56 33.5511 20.56 33.5511 22.56C33.5511 25.76 34.3911 34.08 29.4311 34.08C24.8311 34.08 24.6311 28.28 24.6311 24.92C24.6311 21.4 24.7511 17.92 24.7511 14.4C24.7511 13.84 24.0711 13.84 23.7111 13.84C22.9511 13.84 22.4711 13.88 21.8711 14.4C21.7111 14.56 21.5511 22.08 21.5511 23C21.5511 27.68 21.9911 36.96 28.5111 36.96C35.8311 36.96 37.0311 29.04 37.0311 23.32C37.0311 20.28 36.6711 17.28 36.6711 14.24C36.6711 13.72 36.6711 13.24 36.1111 13ZM63.0998 9C61.6998 9.16 61.8998 9.96 61.8998 11.04C61.8998 14.6 61.0198 19.92 60.6198 23.6C60.3798 25.84 60.0998 28.08 59.8198 30.32C59.6998 31.32 59.6598 32.32 59.4998 33.32C59.4998 33.4 59.4198 34.04 59.3398 34.04C59.2598 34.04 59.2598 33.96 59.2198 33.88C58.9798 33.32 59.0998 32.2 58.9798 31.56C58.8198 30.12 58.4598 28.68 58.1798 27.24C57.6998 24.76 57.3798 22.2 56.8998 19.72C56.4998 17.52 55.9398 15.36 55.5798 13.16C55.3798 12.12 55.4198 11.04 55.0598 10.08C54.6998 9.12 54.8198 9.4 53.8598 9.2C53.4598 9.08 53.0198 8.96 52.5798 8.96C52.0998 8.96 51.9398 9.24 51.9398 9.68C51.9398 11.48 52.9398 14.52 53.2998 16.44C54.1798 21.24 54.6598 26.12 55.9398 30.84C56.3798 32.56 56.6998 34.32 57.0198 36.04C57.2598 37.52 56.8998 42.2 58.9398 42.2C60.8998 42.2 61.0598 42.28 61.3398 40.4C62.3398 33.04 63.1398 25.68 63.9398 18.28C64.0998 16.52 64.2998 14.76 64.5798 13.04C64.7398 11.92 65.4198 10.64 65.4198 9.52C65.4198 9 64.2198 8.96 63.8598 8.96C63.6198 8.96 63.3398 8.96 63.0998 9ZM74.0483 7.64C73.0083 7.56 72.0083 7.32 70.9683 7.32C69.5283 7.32 69.3683 8.32 69.3683 9.48C69.3683 10.32 69.5283 11.16 69.5283 12.04C69.6083 15.08 69.6083 18.16 69.6083 21.2C69.6083 27.68 69.5683 34.12 69.5683 40.6C69.5683 41.36 69.3283 42.12 69.3283 42.88C69.3283 43.8 69.5683 43.84 70.4083 43.84C71.9283 43.84 73.4883 43.6 75.0083 43.36C75.5283 43.28 76.1283 43.28 76.1283 42.56C76.1283 41.88 76.0883 41.2 76.0883 40.52C76.0883 40.08 76.0083 39.88 75.5683 39.88C74.7283 39.88 74.0083 40.36 73.2083 40.36C72.6883 40.36 72.5683 39.88 72.5683 39.44C72.5683 38.72 72.7683 37.96 72.7683 37.2C72.7683 36.12 72.7283 35 72.6883 33.92C72.6483 32.64 72.2883 31.4 72.2883 30.12C72.2883 29.36 72.3683 28.32 73.3683 28.32C74.0083 28.32 74.5683 28.72 75.2083 28.72C75.6083 28.72 75.9683 28.4 75.9683 28C75.9683 27.56 75.8083 27.16 75.7683 26.72C75.6483 25.56 75.9283 25.36 74.4883 25.36C73.9683 25.36 73.4883 25.6 72.9683 25.6C72.4883 25.6 72.4483 24.84 72.4483 24.48C72.2083 22.04 72.3283 19.6 72.3283 17.16C72.3283 15.44 72.0083 13.72 72.0083 11.96C72.0083 11.44 72.1283 11.16 72.7283 11.16C73.7683 11.16 74.6883 11.88 75.7283 11.88C76.7683 11.88 76.7683 9.76 76.7683 9.04C76.7683 7.44 75.8483 7.68 74.6483 7.68L74.0483 7.64ZM91.2164 12.64V12.44C91.2164 11.72 91.3364 11 91.3364 10.28C91.3364 8.84 90.8964 8.56 89.5364 8.56C88.8964 8.56 87.9364 8.68 87.9364 9.52C87.9364 9.96 88.0164 10.44 88.0964 10.88C88.2964 12.4 88.2964 13.92 88.2964 15.44C88.2964 19.04 88.2564 22.6 88.2564 26.2C88.2564 28.08 88.0164 39.48 86.0164 39.48C85.5764 39.48 85.3364 39 85.1364 38.68C83.8164 36.16 84.0564 32.84 83.9764 30.08C83.8964 25.08 83.6564 20.12 83.6564 15.12C83.6564 13.48 83.6564 11.76 84.0564 10.16C84.1364 9.72 84.2964 9.24 84.2964 8.8C84.2964 8.28 83.7364 8.16 83.3764 8.16C81.0964 8.16 81.2964 9.04 81.2964 10.84C81.2964 12.6 81.0964 14.36 80.9764 16.08C80.7364 19.8 80.5764 23.56 80.5764 27.28C80.5764 30.76 80.6564 43 85.6964 43C85.8964 43 86.0564 43 86.2564 42.96C90.3764 41.88 90.6564 36.24 90.9764 32.8C91.3764 28.4 91.4964 24 91.4964 19.56C91.4964 17.24 91.3364 14.96 91.2164 12.64ZM107.222 6.64C106.782 6.68 106.382 6.64 105.942 6.64C105.422 6.64 104.662 6.64 104.182 6.88C103.422 7.28 103.542 8.4 103.462 9.12C103.062 12.16 102.422 15.16 101.822 18.16C101.622 19.24 101.702 20.36 101.382 21.4C101.382 21.44 101.182 22.08 101.102 22.2C101.062 21.92 100.942 21.68 100.862 21.4C100.062 18.68 99.942 15.84 99.502 13.04C99.222 11.44 99.302 9.8 98.822 8.28C98.502 7.28 98.782 7.48 97.742 7.36C97.502 7.32 97.302 7.28 97.062 7.28C96.422 7.28 95.782 7.4 95.102 7.36C95.662 10.48 96.142 13.6 96.582 16.72C97.062 19.88 98.302 22.88 98.302 26.12C98.302 32.24 95.462 38.36 94.982 44.48C95.822 44.4 96.702 44.48 97.582 44.28C98.382 44.08 98.182 44.32 98.502 43.6C99.262 42 99.102 40 99.422 38.28C99.702 36.72 100.062 35.16 100.302 33.6C100.422 33.12 100.342 30.4 100.782 30.4C101.262 30.4 101.222 32.52 101.262 32.88C101.462 34.48 101.822 36.12 102.102 37.72C102.422 39.4 102.702 41.16 102.942 42.88C103.102 44 102.862 44 104.022 44.28C104.902 44.52 105.822 44.4 106.702 44.48C106.182 41.4 105.822 38.28 105.222 35.2C104.662 32.36 103.622 29.56 103.622 26.64C103.622 23.08 104.742 19.44 105.542 15.96C106.222 12.88 106.582 9.76 107.222 6.64ZM132.605 14.76C131.045 11.28 127.565 8.72 123.725 8.72C123.165 8.72 122.725 8.84 122.725 9.52C122.725 9.96 122.805 10.4 122.845 10.88C123.005 12.52 123.005 14.12 123.045 15.76C123.245 22.64 123.725 29.52 124.005 36.4C124.085 38 124.205 39.56 124.205 41.16C124.205 42.04 124.405 42.4 125.365 42.4C132.645 42.4 134.805 35.12 134.805 29.36C134.805 24.44 134.605 19.32 132.605 14.76ZM127.725 38.72C127.125 38.72 127.125 37.96 127.125 37.56C127.125 35.24 126.925 33.04 126.765 30.72C126.485 26.76 126.285 22.8 125.965 18.84C125.925 18.32 125.405 12.04 125.605 12.04C128.965 12.04 131.525 20.28 131.525 26.24C131.525 28.44 131.565 38.72 127.725 38.72ZM150.822 30.16H150.662C149.942 30.16 149.262 30.04 148.542 30.04C148.222 30.04 147.822 30.04 147.542 30.24C146.742 30.72 147.702 35.68 145.062 35.68C142.382 35.68 142.422 29.88 142.222 28.04C142.142 27.32 142.022 26.6 142.022 25.88C142.022 24.48 143.302 24.2 144.422 24.2C145.782 24.2 147.142 24.32 148.502 24.32C149.982 24.32 150.982 24.04 150.982 22.32C150.982 18.68 149.062 12.2 144.582 12.2C138.822 12.2 138.462 21.68 138.462 25.76C138.462 29.68 139.742 38.92 145.022 38.92C149.062 38.92 151.222 34.44 151.222 30.92C151.222 30.6 151.182 30.24 150.822 30.16ZM146.262 6.2C145.502 6.76 142.382 9.2 142.382 10.08C142.382 10.72 143.542 10.92 144.022 10.92C145.262 10.92 148.662 8.88 148.662 7.52C148.662 6.92 147.742 5.88 147.102 5.88C146.822 5.88 146.502 6 146.262 6.2ZM142.462 20.24V19.36C142.462 18.08 142.462 15.32 144.302 15.32C146.182 15.32 147.542 18.64 147.542 20.16C147.542 21.04 146.982 21.04 146.302 21.12C145.342 21.24 144.422 21.56 143.462 21.56C143.182 21.56 142.382 21.52 142.382 21.12C142.382 20.8 142.422 20.52 142.462 20.24ZM164.095 6.92C163.375 6.48 162.535 6.28 161.695 6.28C157.015 6.28 155.895 10.8 155.575 14.6C155.255 18.08 155.295 21.6 155.295 25.12C155.295 30.2 155.375 37.92 159.335 41.64C160.135 42.4 161.175 42.88 162.295 42.88C163.655 42.88 164.895 42.16 165.775 41.12C167.695 38.84 167.575 35.52 167.735 32.72C167.095 32.84 166.415 32.92 165.735 32.96C164.815 33 164.735 32.88 164.495 33.88C164.215 34.84 164.415 35.88 164.175 36.84C163.935 37.84 163.135 39.36 161.975 39.36C158.095 39.36 158.375 25.6 158.375 22.84C158.375 21.48 158.295 20.12 158.295 18.76C158.295 16.6 158.295 9.8 161.455 9.8C165.375 9.8 164.175 17.56 164.855 19.96C165.095 20.88 165.255 20.96 166.215 20.96C166.775 20.96 167.335 20.92 167.895 20.92C167.935 20.48 167.935 20.04 167.935 19.6C167.935 16.08 167.415 8.96 164.095 6.92ZM180.865 38.48C187.625 38.48 189.425 30.12 189.425 24.8C189.425 19.32 187.705 12.4 180.945 12.4C174.745 12.4 172.145 19.08 172.145 24.36C172.145 29.88 173.785 38.48 180.865 38.48ZM180.945 15.6C185.105 15.6 186.465 21.36 186.465 24.64C186.465 28.24 185.745 35.36 180.865 35.36C175.505 35.36 175.305 28.56 175.305 24.68C175.305 21 176.225 15.6 180.945 15.6ZM207.283 13H206.883C205.883 13 204.683 13.04 204.683 14.36C204.683 15.12 204.763 15.84 204.763 16.56C204.763 18.56 204.723 20.56 204.723 22.56C204.723 25.76 205.563 34.08 200.603 34.08C196.003 34.08 195.803 28.28 195.803 24.92C195.803 21.4 195.923 17.92 195.923 14.4C195.923 13.84 195.243 13.84 194.883 13.84C194.123 13.84 193.643 13.88 193.043 14.4C192.883 14.56 192.723 22.08 192.723 23C192.723 27.68 193.163 36.96 199.683 36.96C207.003 36.96 208.203 29.04 208.203 23.32C208.203 20.28 207.843 17.28 207.843 14.24C207.843 13.72 207.843 13.24 207.283 13ZM223.433 12.88C223.153 12.68 222.353 12.68 221.993 12.68C221.753 12.68 221.553 12.68 221.313 12.72C220.153 13.04 220.393 13.04 220.313 14.2C220.193 16.32 219.633 18.4 219.433 20.52C219.073 24.4 218.473 28.24 217.873 32.08C217.433 31.8 216.953 27.84 216.753 27.08C216.233 25.12 215.873 23.12 215.353 21.12C214.913 19.24 214.273 17.36 213.833 15.48C213.433 13.8 213.753 12.92 211.673 12.76L211.113 12.72C210.793 12.72 210.313 12.72 210.313 13.2C210.313 13.68 211.673 18.32 211.953 19.32C213.233 24.64 214.673 29.96 215.833 35.32C215.993 36.08 216.153 37.96 216.913 38.32C217.233 38.44 217.673 38.44 217.993 38.44C218.433 38.44 219.393 38.44 219.713 38.16C220.353 37.64 220.313 34.56 220.433 33.68C220.993 29.88 221.673 26.08 222.153 22.28C222.553 19.44 222.513 15.68 223.753 13.12H223.593C223.513 13.12 223.433 12.96 223.433 12.88ZM234.77 25.92C234.49 24.76 233.85 23.68 233.85 22.48C233.85 22.12 233.97 21.76 234.21 21.48C234.53 21.2 235.33 21.04 235.77 20.84C237.17 20.04 238.17 17.2 238.17 15.64C238.17 11.76 233.89 9.88 230.53 9.88C229.65 9.88 228.81 10.04 228.81 11.08C228.81 11.88 229.01 12.64 229.01 13.44C229.01 16.56 228.89 19.72 228.89 22.84C228.89 28.36 228.97 33.92 228.97 39.44C228.97 41.16 228.97 41.28 230.73 41.28C231.49 41.28 231.89 41.12 231.89 40.28V33.48C231.89 30.16 231.57 26.84 231.57 23.52C231.57 23.2 231.57 22.84 231.65 22.52C232.33 23.92 234.89 34.6 235.21 36.64C235.33 37.16 235.45 39.56 236.17 39.56C236.77 39.56 238.25 39.12 238.25 38.36C238.25 37.64 237.81 36.92 237.57 36.24C236.33 32.92 235.53 29.36 234.77 25.92ZM231.77 19V16.88C231.77 15.8 231.53 14.76 231.53 13.72C231.53 13.08 231.81 12.32 232.53 12.32C234.09 12.32 235.41 14.16 235.41 15.6C235.41 16.28 235.21 16.92 234.81 17.48C234.45 18 232.69 19.32 232.05 19.32C231.89 19.32 231.77 19.2 231.77 19ZM245.876 38.8C245.916 38.56 245.956 38.32 245.956 38.04C245.956 36.84 245.636 35.68 245.516 34.48C245.156 30.96 245.236 27.44 245.236 23.92C245.236 23 245.116 22.12 243.996 22.12C242.156 22.12 241.796 22.68 241.796 24.44C241.796 25.92 242.116 27.4 242.276 28.92C242.556 31.48 242.476 34.12 242.476 36.68C242.476 39 242.716 39.08 244.956 39.08C245.276 39.08 245.636 39.08 245.876 38.8ZM242.276 18.72C242.756 18.72 243.236 18.84 243.716 18.84C244.556 18.84 244.836 18.24 244.836 17.48C244.836 16.76 244.676 16.08 244.636 15.36C244.636 14.76 244.716 14.2 244.716 13.6C244.716 12.24 243.716 12.04 242.556 12.04C242.196 12.04 241.836 12.04 241.516 12.12C241.356 12.2 241.316 12.4 241.316 12.56C241.316 13.12 241.556 13.6 241.636 14.12C241.796 15.28 241.716 16.44 241.716 17.6C241.716 17.96 241.716 18.4 241.836 18.76C241.996 18.72 242.116 18.72 242.276 18.72ZM257.152 25.92C256.872 24.76 256.232 23.68 256.232 22.48C256.232 22.12 256.352 21.76 256.592 21.48C256.912 21.2 257.712 21.04 258.152 20.84C259.552 20.04 260.552 17.2 260.552 15.64C260.552 11.76 256.272 9.88 252.912 9.88C252.032 9.88 251.192 10.04 251.192 11.08C251.192 11.88 251.392 12.64 251.392 13.44C251.392 16.56 251.272 19.72 251.272 22.84C251.272 28.36 251.352 33.92 251.352 39.44C251.352 41.16 251.352 41.28 253.112 41.28C253.872 41.28 254.272 41.12 254.272 40.28V33.48C254.272 30.16 253.952 26.84 253.952 23.52C253.952 23.2 253.952 22.84 254.032 22.52C254.712 23.92 257.272 34.6 257.592 36.64C257.712 37.16 257.832 39.56 258.552 39.56C259.152 39.56 260.632 39.12 260.632 38.36C260.632 37.64 260.192 36.92 259.952 36.24C258.712 32.92 257.912 29.36 257.152 25.92ZM254.152 19V16.88C254.152 15.8 253.912 14.76 253.912 13.72C253.912 13.08 254.192 12.32 254.912 12.32C256.472 12.32 257.792 14.16 257.792 15.6C257.792 16.28 257.592 16.92 257.192 17.48C256.832 18 255.072 19.32 254.432 19.32C254.272 19.32 254.152 19.2 254.152 19ZM275.577 10.32C275.497 11.28 275.457 12.2 275.457 13.16C275.457 16.44 275.897 19.64 276.057 22.92C276.337 28.08 276.337 33.24 276.337 38.4C276.337 40.28 276.377 40.8 278.457 40.8C279.777 40.8 279.817 40.36 279.817 39.16C279.817 37.72 279.457 36.28 279.337 34.8C279.057 31.6 278.777 28.4 278.777 25.16C278.777 24.4 278.617 23.68 278.617 22.92C278.617 22.32 278.697 21.84 279.177 21.4C279.657 20.96 281.257 20.76 282.017 20.32C283.697 19.36 285.337 17.04 285.337 15.08C285.337 14.28 285.057 13.52 284.617 12.88C282.777 10.12 278.497 10.44 275.577 10.32ZM281.857 17C281.497 17.8 279.937 18.88 279.057 18.88C278.337 18.88 278.177 18.2 278.177 17.64C278.177 16.96 278.337 16.32 278.377 15.68C278.417 15.16 278.337 14.68 278.337 14.16C278.337 13.68 278.417 13.2 278.977 13.2C280.377 13.2 282.057 14.6 282.057 16.04C282.057 16.36 281.977 16.68 281.857 17ZM293.614 37.8C292.694 29.8 292.534 21.76 292.214 13.72C292.174 13.04 292.214 12.32 292.214 11.64C292.214 10.48 292.094 9 290.574 9C290.014 9 289.494 9.28 288.934 9.16C288.774 9.32 288.694 9.52 288.694 9.76C288.694 10.36 288.934 10.96 289.014 11.6C289.134 12.52 289.014 13.48 289.014 14.44C289.014 20.48 289.694 26.48 290.014 32.52C290.174 35.24 290.134 38 290.614 40.72C290.814 41.84 290.774 41.64 291.814 41.88C292.214 41.96 292.654 42.12 293.054 42.12C293.854 42.12 293.934 41.04 293.934 40.48C293.934 39.6 293.734 38.68 293.614 37.8ZM310.315 30.16H310.155C309.435 30.16 308.755 30.04 308.035 30.04C307.715 30.04 307.315 30.04 307.035 30.24C306.235 30.72 307.195 35.68 304.555 35.68C301.875 35.68 301.915 29.88 301.715 28.04C301.635 27.32 301.515 26.6 301.515 25.88C301.515 24.48 302.795 24.2 303.915 24.2C305.275 24.2 306.635 24.32 307.995 24.32C309.475 24.32 310.475 24.04 310.475 22.32C310.475 18.68 308.555 12.2 304.075 12.2C298.315 12.2 297.955 21.68 297.955 25.76C297.955 29.68 299.235 38.92 304.515 38.92C308.555 38.92 310.715 34.44 310.715 30.92C310.715 30.6 310.675 30.24 310.315 30.16ZM301.955 20.24V19.36C301.955 18.08 301.955 15.32 303.795 15.32C305.675 15.32 307.035 18.64 307.035 20.16C307.035 21.04 306.475 21.04 305.795 21.12C304.835 21.24 303.915 21.56 302.955 21.56C302.675 21.56 301.875 21.52 301.875 21.12C301.875 20.8 301.915 20.52 301.955 20.24ZM318.259 38.8C318.299 38.56 318.339 38.32 318.339 38.04C318.339 36.84 318.019 35.68 317.899 34.48C317.539 30.96 317.619 27.44 317.619 23.92C317.619 23 317.499 22.12 316.379 22.12C314.539 22.12 314.179 22.68 314.179 24.44C314.179 25.92 314.499 27.4 314.659 28.92C314.939 31.48 314.859 34.12 314.859 36.68C314.859 39 315.099 39.08 317.339 39.08C317.659 39.08 318.019 39.08 318.259 38.8ZM314.659 18.72C315.139 18.72 315.619 18.84 316.099 18.84C316.939 18.84 317.219 18.24 317.219 17.48C317.219 16.76 317.059 16.08 317.019 15.36C317.019 14.76 317.099 14.2 317.099 13.6C317.099 12.24 316.099 12.04 314.939 12.04C314.579 12.04 314.219 12.04 313.899 12.12C313.739 12.2 313.699 12.4 313.699 12.56C313.699 13.12 313.939 13.6 314.019 14.12C314.179 15.28 314.099 16.44 314.099 17.6C314.099 17.96 314.099 18.4 314.219 18.76C314.379 18.72 314.499 18.72 314.659 18.72ZM335.735 30.4C335.375 27.36 335.575 24.32 335.575 21.28C335.575 19.48 335.375 17.72 335.375 15.96C335.375 15.24 335.495 14.56 335.495 13.84C335.495 12.92 333.375 12.52 332.695 12.52C332.135 12.52 332.135 13.12 332.135 13.52C332.135 18.52 332.735 23.48 332.735 28.48C332.735 28.96 332.735 29.4 332.615 29.88C330.735 27.2 326.375 14.12 325.455 13.4C324.935 13.04 324.295 12.88 323.655 12.88C322.855 12.88 322.415 13.32 322.415 14.12C322.415 14.96 322.695 15.76 322.815 16.56C323.055 18.36 323.095 20.24 323.095 22.04C323.095 24.36 322.975 26.68 322.975 28.96C322.975 31.84 323.135 34.64 323.455 37.48C323.535 38.04 323.535 38.56 324.255 38.56C324.815 38.56 325.375 38.64 325.935 38.64C326.735 38.64 326.735 37.44 326.735 36.88C326.735 32.76 326.095 28.68 325.695 24.6C325.535 23.08 325.335 21.6 325.335 20.12C325.335 19.96 325.375 19.76 325.415 19.6C326.095 20.08 327.775 25.24 328.215 26.36C329.215 29 330.615 31.48 331.575 34.12C331.815 34.72 332.175 36.28 332.695 36.6C333.055 36.8 334.455 36.8 334.895 36.8C336.015 36.8 336.015 34.88 336.015 34.12C336.015 32.88 335.855 31.64 335.735 30.4ZM362.1 24.8C361.98 23.68 361.94 22.6 361.94 21.48C361.94 19.16 362.1 16.84 362.1 14.52C362.1 13.2 361.98 11.88 361.98 10.56C361.98 9.72 362.18 8.88 362.18 8.04C362.18 6.84 361.66 6.76 360.62 6.76C359.9 6.76 358.62 6.88 358.62 7.84C358.62 8.36 358.74 8.84 358.74 9.32C358.74 11.64 358.7 13.96 358.7 16.32C358.7 19.88 358.7 23.52 359.02 27.08C359.06 27.4 359.1 27.72 359.1 28.08C359.1 28.48 358.74 28.72 358.42 28.92C357.26 29.72 355.78 29.84 354.62 30.64C353.46 31.44 352.62 32.64 352.02 33.88C351.62 34.8 351.34 35.8 351.34 36.8C351.34 41.24 355.98 43.4 359.7 44.16C360.18 44.24 360.62 44.36 361.1 44.36C362.26 44.36 362.26 42.96 362.26 42.12C362.26 41.04 362.14 39.96 362.14 38.84C362.14 36.28 362.34 33.68 362.34 31.12C362.34 29 362.26 26.88 362.1 24.8ZM358.94 40.52C358.9 40.68 358.7 40.76 358.54 40.76C357.86 40.76 355.86 39.64 355.42 39.12C354.9 38.48 354.62 37.68 354.62 36.84C354.62 34.92 356.18 33.2 357.94 32.64C358.02 32.6 358.58 32.4 358.62 32.4C358.74 32.4 358.82 33.12 358.86 33.24C359.02 34.4 358.9 35.56 358.9 36.72C358.9 37.64 359.1 38.56 359.1 39.48C359.1 39.84 359.06 40.16 358.94 40.52ZM371.321 8.44C371.081 6.96 370.601 7.08 369.841 7.08C369.281 7.08 368.601 6.72 368.281 7.72C368.201 7.84 368.201 8 368.201 8.24C368.161 9.32 368.121 10.4 368.081 11.44C368.041 12.24 367.881 14.64 368.241 15.28C368.521 15.88 368.601 15.8 369.041 15.76C369.681 15.6 369.801 15.52 370.481 15.44C370.761 15.36 371.041 15.04 371.081 14.48C371.161 12.92 371.561 9.96 371.321 8.48V8.44ZM382.515 12.32C382.395 11.28 382.515 10.28 382.515 9.24C382.515 7.92 381.755 7.92 380.675 7.92C380.115 7.92 379.475 7.92 378.995 8.24C378.435 8.6 378.475 11.72 378.395 12.48C377.675 19.72 376.515 26.88 375.715 34.08C375.515 36.2 375.195 38.28 374.915 40.4C374.715 42.36 374.555 42.96 376.235 43.08C376.475 43.12 376.755 43.2 377.035 43.2C377.875 43.2 377.795 42.16 377.795 41.56C377.795 39.88 378.035 38.24 378.075 36.6C378.115 35.76 378.115 34.8 378.995 34.36C379.195 34.28 380.875 34.36 381.115 34.36C382.195 34.32 382.235 36.6 382.475 38.16C382.675 39.6 382.315 43.12 383.195 43.12C384.035 43.12 384.755 43.04 385.395 42.6C385.795 42.32 385.435 38.76 385.235 37.2C384.275 28.92 383.875 20.56 382.515 12.32ZM381.475 31.48C381.235 31.64 380.915 31.72 380.635 31.72C379.755 31.72 378.955 31.84 378.995 31.2C379.035 29.72 379.955 21.44 380.195 19.92C380.635 24 381.515 27.08 381.515 30.72C381.515 30.96 381.515 31.24 381.475 31.48ZM380.235 19.76C380.235 19.68 380.235 19.68 380.235 19.64C380.235 19.68 380.235 19.72 380.235 19.76ZM396.723 25.92C396.443 24.76 395.803 23.68 395.803 22.48C395.803 22.12 395.923 21.76 396.163 21.48C396.483 21.2 397.283 21.04 397.723 20.84C399.123 20.04 400.123 17.2 400.123 15.64C400.123 11.76 395.843 9.88 392.483 9.88C391.603 9.88 390.763 10.04 390.763 11.08C390.763 11.88 390.963 12.64 390.963 13.44C390.963 16.56 390.843 19.72 390.843 22.84C390.843 28.36 390.923 33.92 390.923 39.44C390.923 41.16 390.923 41.28 392.683 41.28C393.443 41.28 393.843 41.12 393.843 40.28V33.48C393.843 30.16 393.523 26.84 393.523 23.52C393.523 23.2 393.523 22.84 393.603 22.52C394.283 23.92 396.843 34.6 397.163 36.64C397.283 37.16 397.403 39.56 398.123 39.56C398.723 39.56 400.203 39.12 400.203 38.36C400.203 37.64 399.763 36.92 399.523 36.24C398.283 32.92 397.483 29.36 396.723 25.92ZM393.723 19V16.88C393.723 15.8 393.483 14.76 393.483 13.72C393.483 13.08 393.763 12.32 394.483 12.32C396.043 12.32 397.363 14.16 397.363 15.6C397.363 16.28 397.163 16.92 396.763 17.48C396.403 18 394.643 19.32 394.003 19.32C393.843 19.32 393.723 19.2 393.723 19ZM412.829 30.48C412.469 30.32 410.909 29.96 410.909 29.48C410.909 29.44 411.429 29 411.509 28.92C413.389 26.52 414.109 25.2 414.109 22.04C414.109 18.68 413.029 14.48 409.989 12.56C408.909 11.92 407.109 11.28 405.869 11.28C404.709 11.28 404.269 11.76 404.269 12.92C404.269 13.52 404.389 14.08 404.389 14.68C404.469 16.68 404.389 18.64 404.389 20.64C404.389 25.92 404.469 31.16 404.469 36.44C404.469 37.2 404.469 37.96 404.549 38.68C404.629 39.32 404.549 39.88 405.309 39.88C408.309 39.88 416.869 39.92 416.869 35.48C416.869 33.36 414.669 31.28 412.829 30.48ZM408.989 36.88C408.789 36.92 408.549 36.96 408.349 36.96C407.669 36.96 407.509 36.6 407.509 36C407.509 35.04 407.589 34.08 407.589 33.12C407.589 32.6 407.629 32.24 408.229 32.24C409.589 32.24 412.149 32.92 412.149 34.64C412.149 36.28 410.229 36.6 408.989 36.88ZM407.509 27.32C407.629 26.92 407.669 26.48 407.669 26.08C407.669 25.12 407.469 24.16 407.429 23.2C407.389 21.88 407.469 20.6 407.469 19.28C407.469 18.24 407.269 17.2 407.269 16.16C407.269 16.04 407.269 15.44 407.469 15.44C407.949 15.44 408.669 16.48 408.949 16.84C410.069 18.28 410.629 20.08 410.629 21.88C410.629 22.48 410.549 23.04 410.469 23.6C410.269 24.52 408.749 27.92 407.709 27.92C407.669 27.92 407.589 27.88 407.509 27.88C407.469 27.8 407.429 27.68 407.429 27.6C407.429 27.52 407.469 27.4 407.509 27.32ZM427.113 25.92C426.833 24.76 426.193 23.68 426.193 22.48C426.193 22.12 426.313 21.76 426.553 21.48C426.873 21.2 427.673 21.04 428.113 20.84C429.513 20.04 430.513 17.2 430.513 15.64C430.513 11.76 426.233 9.88 422.873 9.88C421.993 9.88 421.153 10.04 421.153 11.08C421.153 11.88 421.353 12.64 421.353 13.44C421.353 16.56 421.233 19.72 421.233 22.84C421.233 28.36 421.313 33.92 421.313 39.44C421.313 41.16 421.313 41.28 423.073 41.28C423.833 41.28 424.233 41.12 424.233 40.28V33.48C424.233 30.16 423.913 26.84 423.913 23.52C423.913 23.2 423.913 22.84 423.993 22.52C424.673 23.92 427.233 34.6 427.553 36.64C427.673 37.16 427.793 39.56 428.513 39.56C429.113 39.56 430.593 39.12 430.593 38.36C430.593 37.64 430.153 36.92 429.913 36.24C428.673 32.92 427.873 29.36 427.113 25.92ZM424.113 19V16.88C424.113 15.8 423.873 14.76 423.873 13.72C423.873 13.08 424.153 12.32 424.873 12.32C426.433 12.32 427.753 14.16 427.753 15.6C427.753 16.28 427.553 16.92 427.153 17.48C426.793 18 425.033 19.32 424.393 19.32C424.233 19.32 424.113 19.2 424.113 19ZM445.94 30.16H445.78C445.06 30.16 444.38 30.04 443.66 30.04C443.34 30.04 442.94 30.04 442.66 30.24C441.86 30.72 442.82 35.68 440.18 35.68C437.5 35.68 437.54 29.88 437.34 28.04C437.26 27.32 437.14 26.6 437.14 25.88C437.14 24.48 438.42 24.2 439.54 24.2C440.9 24.2 442.26 24.32 443.62 24.32C445.1 24.32 446.1 24.04 446.1 22.32C446.1 18.68 444.18 12.2 439.7 12.2C433.94 12.2 433.58 21.68 433.58 25.76C433.58 29.68 434.86 38.92 440.14 38.92C444.18 38.92 446.34 34.44 446.34 30.92C446.34 30.6 446.3 30.24 445.94 30.16ZM437.58 20.24V19.36C437.58 18.08 437.58 15.32 439.42 15.32C441.3 15.32 442.66 18.64 442.66 20.16C442.66 21.04 442.1 21.04 441.42 21.12C440.46 21.24 439.54 21.56 438.58 21.56C438.3 21.56 437.5 21.52 437.5 21.12C437.5 20.8 437.54 20.52 437.58 20.24ZM457.924 26.68C456.524 24.12 452.444 20.96 452.444 17.96C452.444 17.44 452.524 16.24 453.284 16.24C454.964 16.24 453.564 18.4 455.524 18.4C456.164 18.4 456.804 18.32 457.444 18.24C457.364 16.04 455.764 13.44 453.364 13.44C451.084 13.44 449.564 15.6 449.564 17.72C449.564 23.24 456.444 26 456.444 32C456.444 33.04 455.964 34.8 454.644 34.8C453.044 34.8 453.164 32.8 453.164 31.68C453.164 30.8 452.324 30.24 451.484 30.24C450.404 30.24 450.004 31.12 450.004 32.08C450.004 34.6 451.804 37.68 454.604 37.68C457.684 37.68 459.284 34.56 459.284 31.84C459.284 30.04 458.764 28.24 457.924 26.68ZM483.936 24.8C483.816 23.68 483.776 22.6 483.776 21.48C483.776 19.16 483.936 16.84 483.936 14.52C483.936 13.2 483.816 11.88 483.816 10.56C483.816 9.72 484.016 8.88 484.016 8.04C484.016 6.84 483.496 6.76 482.456 6.76C481.736 6.76 480.456 6.88 480.456 7.84C480.456 8.36 480.576 8.84 480.576 9.32C480.576 11.64 480.536 13.96 480.536 16.32C480.536 19.88 480.536 23.52 480.856 27.08C480.896 27.4 480.936 27.72 480.936 28.08C480.936 28.48 480.576 28.72 480.256 28.92C479.096 29.72 477.616 29.84 476.456 30.64C475.296 31.44 474.456 32.64 473.856 33.88C473.456 34.8 473.176 35.8 473.176 36.8C473.176 41.24 477.816 43.4 481.536 44.16C482.016 44.24 482.456 44.36 482.936 44.36C484.096 44.36 484.096 42.96 484.096 42.12C484.096 41.04 483.976 39.96 483.976 38.84C483.976 36.28 484.176 33.68 484.176 31.12C484.176 29 484.096 26.88 483.936 24.8ZM480.776 40.52C480.736 40.68 480.536 40.76 480.376 40.76C479.696 40.76 477.696 39.64 477.256 39.12C476.736 38.48 476.456 37.68 476.456 36.84C476.456 34.92 478.016 33.2 479.776 32.64C479.856 32.6 480.416 32.4 480.456 32.4C480.576 32.4 480.656 33.12 480.696 33.24C480.856 34.4 480.736 35.56 480.736 36.72C480.736 37.64 480.936 38.56 480.936 39.48C480.936 39.84 480.896 40.16 480.776 40.52ZM494.157 38.8C494.197 38.56 494.237 38.32 494.237 38.04C494.237 36.84 493.917 35.68 493.797 34.48C493.437 30.96 493.517 27.44 493.517 23.92C493.517 23 493.397 22.12 492.277 22.12C490.437 22.12 490.077 22.68 490.077 24.44C490.077 25.92 490.397 27.4 490.557 28.92C490.837 31.48 490.757 34.12 490.757 36.68C490.757 39 490.997 39.08 493.237 39.08C493.557 39.08 493.917 39.08 494.157 38.8ZM490.557 18.72C491.037 18.72 491.517 18.84 491.997 18.84C492.837 18.84 493.117 18.24 493.117 17.48C493.117 16.76 492.957 16.08 492.917 15.36C492.917 14.76 492.997 14.2 492.997 13.6C492.997 12.24 491.997 12.04 490.837 12.04C490.477 12.04 490.117 12.04 489.797 12.12C489.637 12.2 489.597 12.4 489.597 12.56C489.597 13.12 489.837 13.6 489.917 14.12C490.077 15.28 489.997 16.44 489.997 17.6C489.997 17.96 489.997 18.4 490.117 18.76C490.277 18.72 490.397 18.72 490.557 18.72ZM518.754 11.44C517.794 9.2 516.194 7.52 513.634 7.52C512.274 7.52 505.914 8.32 504.754 8.72C499.714 10.44 499.594 19.4 499.594 23.72C499.594 28.72 499.954 33.72 499.954 38.72C499.954 39.92 499.674 41.08 499.674 42.28C499.674 43.76 500.314 44.32 501.834 44.32C503.194 44.32 503.234 43.24 503.234 42.16C503.234 41.04 502.994 40 502.994 38.84C502.874 34.52 502.714 30.12 502.714 25.8C502.714 25.28 502.754 25.08 503.314 25.08C504.754 25.08 506.274 25.28 507.714 25.32C507.994 29.92 508.314 34.08 508.314 38.72C508.314 39.92 508.034 41.08 508.034 42.28C508.034 43.76 508.634 44.32 510.194 44.32C511.514 44.32 511.594 43.24 511.594 42.16C511.594 41.04 511.354 39.96 511.354 38.84C511.314 37.6 511.314 36.32 511.314 35.04C511.314 31.84 511.354 28.6 511.354 25.4H512.034C512.674 25.4 517.354 25.44 517.594 24.8C517.714 24.52 517.754 24.16 517.754 23.84C517.754 23.44 517.594 21.56 517.194 21.36C517.034 21.28 516.634 21.32 516.474 21.32C514.794 21.32 513.074 21.48 511.394 21.6C511.394 19.56 510.874 12.8 512.994 11.6C513.234 11.44 513.634 11.28 513.994 11.28C515.834 11.28 516.554 14.72 516.794 16.12C518.074 15.88 519.554 16.04 519.554 14.28C519.554 13.36 519.114 12.28 518.754 11.44ZM503.394 21.96C502.874 21.68 502.874 19.84 502.874 19.36C502.874 17.32 503.314 14.16 504.634 12.52C505.554 11.44 507.674 11.12 509.034 11.08C507.674 14.16 507.554 18.52 507.594 21.88C506.474 21.96 505.354 22.04 504.194 22.04C503.954 22.04 503.634 22.04 503.394 21.96ZM534.963 30.16H534.803C534.083 30.16 533.403 30.04 532.683 30.04C532.363 30.04 531.963 30.04 531.683 30.24C530.883 30.72 531.843 35.68 529.203 35.68C526.523 35.68 526.563 29.88 526.363 28.04C526.283 27.32 526.163 26.6 526.163 25.88C526.163 24.48 527.443 24.2 528.563 24.2C529.923 24.2 531.283 24.32 532.643 24.32C534.123 24.32 535.123 24.04 535.123 22.32C535.123 18.68 533.203 12.2 528.723 12.2C522.963 12.2 522.603 21.68 522.603 25.76C522.603 29.68 523.883 38.92 529.163 38.92C533.203 38.92 535.363 34.44 535.363 30.92C535.363 30.6 535.323 30.24 534.963 30.16ZM530.403 6.2C529.643 6.76 526.523 9.2 526.523 10.08C526.523 10.72 527.683 10.92 528.163 10.92C529.403 10.92 532.803 8.88 532.803 7.52C532.803 6.92 531.883 5.88 531.243 5.88C530.963 5.88 530.643 6 530.403 6.2ZM526.603 20.24V19.36C526.603 18.08 526.603 15.32 528.443 15.32C530.323 15.32 531.683 18.64 531.683 20.16C531.683 21.04 531.123 21.04 530.443 21.12C529.483 21.24 528.563 21.56 527.603 21.56C527.323 21.56 526.523 21.52 526.523 21.12C526.523 20.8 526.563 20.52 526.603 20.24ZM547.035 25.92C546.755 24.76 546.115 23.68 546.115 22.48C546.115 22.12 546.235 21.76 546.475 21.48C546.795 21.2 547.595 21.04 548.035 20.84C549.435 20.04 550.435 17.2 550.435 15.64C550.435 11.76 546.155 9.88 542.795 9.88C541.915 9.88 541.075 10.04 541.075 11.08C541.075 11.88 541.275 12.64 541.275 13.44C541.275 16.56 541.155 19.72 541.155 22.84C541.155 28.36 541.235 33.92 541.235 39.44C541.235 41.16 541.235 41.28 542.995 41.28C543.755 41.28 544.155 41.12 544.155 40.28V33.48C544.155 30.16 543.835 26.84 543.835 23.52C543.835 23.2 543.835 22.84 543.915 22.52C544.595 23.92 547.155 34.6 547.475 36.64C547.595 37.16 547.715 39.56 548.435 39.56C549.035 39.56 550.515 39.12 550.515 38.36C550.515 37.64 550.075 36.92 549.835 36.24C548.595 32.92 547.795 29.36 547.035 25.92ZM544.035 19V16.88C544.035 15.8 543.795 14.76 543.795 13.72C543.795 13.08 544.075 12.32 544.795 12.32C546.355 12.32 547.675 14.16 547.675 15.6C547.675 16.28 547.475 16.92 547.075 17.48C546.715 18 544.955 19.32 544.315 19.32C544.155 19.32 544.035 19.2 544.035 19ZM565.861 30.16H565.701C564.981 30.16 564.301 30.04 563.581 30.04C563.261 30.04 562.861 30.04 562.581 30.24C561.781 30.72 562.741 35.68 560.101 35.68C557.421 35.68 557.461 29.88 557.261 28.04C557.181 27.32 557.061 26.6 557.061 25.88C557.061 24.48 558.341 24.2 559.461 24.2C560.821 24.2 562.181 24.32 563.541 24.32C565.021 24.32 566.021 24.04 566.021 22.32C566.021 18.68 564.101 12.2 559.621 12.2C553.861 12.2 553.501 21.68 553.501 25.76C553.501 29.68 554.781 38.92 560.061 38.92C564.101 38.92 566.261 34.44 566.261 30.92C566.261 30.6 566.221 30.24 565.861 30.16ZM557.501 20.24V19.36C557.501 18.08 557.501 15.32 559.341 15.32C561.221 15.32 562.581 18.64 562.581 20.16C562.581 21.04 562.021 21.04 561.341 21.12C560.381 21.24 559.461 21.56 558.501 21.56C558.221 21.56 557.421 21.52 557.421 21.12C557.421 20.8 557.461 20.52 557.501 20.24ZM582.805 30.4C582.445 27.36 582.645 24.32 582.645 21.28C582.645 19.48 582.445 17.72 582.445 15.96C582.445 15.24 582.565 14.56 582.565 13.84C582.565 12.92 580.445 12.52 579.765 12.52C579.205 12.52 579.205 13.12 579.205 13.52C579.205 18.52 579.805 23.48 579.805 28.48C579.805 28.96 579.805 29.4 579.685 29.88C577.805 27.2 573.445 14.12 572.525 13.4C572.005 13.04 571.365 12.88 570.725 12.88C569.925 12.88 569.485 13.32 569.485 14.12C569.485 14.96 569.765 15.76 569.885 16.56C570.125 18.36 570.165 20.24 570.165 22.04C570.165 24.36 570.045 26.68 570.045 28.96C570.045 31.84 570.205 34.64 570.525 37.48C570.605 38.04 570.605 38.56 571.325 38.56C571.885 38.56 572.445 38.64 573.005 38.64C573.805 38.64 573.805 37.44 573.805 36.88C573.805 32.76 573.165 28.68 572.765 24.6C572.605 23.08 572.405 21.6 572.405 20.12C572.405 19.96 572.445 19.76 572.485 19.6C573.165 20.08 574.845 25.24 575.285 26.36C576.285 29 577.685 31.48 578.645 34.12C578.885 34.72 579.245 36.28 579.765 36.6C580.125 36.8 581.525 36.8 581.965 36.8C583.085 36.8 583.085 34.88 583.085 34.12C583.085 32.88 582.925 31.64 582.805 30.4ZM598.491 40.36C598.091 40 596.771 38.8 596.331 38.8C595.891 38.8 595.451 39.88 594.491 39.88C591.811 39.88 591.811 34.56 591.811 32.72C591.811 27.72 592.091 22.68 592.411 17.68C593.011 17.68 596.491 17.68 596.491 16.96C596.491 16.56 596.371 16.2 596.371 15.8C596.371 15.56 596.411 15.36 596.411 15.12C596.411 14.52 595.731 14.44 595.291 14.44C594.491 14.44 593.731 14.64 592.931 14.64H592.611C592.731 12.88 592.971 11.12 592.971 9.36C592.971 8.12 592.171 7.48 590.931 7.48C589.051 7.48 589.531 10.28 589.531 11.44C589.531 12.44 589.451 13.44 589.451 14.48H589.171C587.051 14.48 586.771 14.52 586.771 16.72C586.771 16.88 586.771 17.04 586.811 17.16C587.371 17.56 588.691 17.6 589.411 17.64C589.371 22.28 588.851 26.88 588.851 31.52C588.851 35.24 588.851 43.64 594.171 43.64C595.491 43.64 598.651 42.24 598.651 40.68C598.651 40.56 598.571 40.44 598.491 40.36ZM610.228 26.68C608.828 24.12 604.748 20.96 604.748 17.96C604.748 17.44 604.828 16.24 605.588 16.24C607.268 16.24 605.868 18.4 607.828 18.4C608.468 18.4 609.108 18.32 609.748 18.24C609.668 16.04 608.068 13.44 605.668 13.44C603.388 13.44 601.868 15.6 601.868 17.72C601.868 23.24 608.748 26 608.748 32C608.748 33.04 608.268 34.8 606.948 34.8C605.348 34.8 605.468 32.8 605.468 31.68C605.468 30.8 604.628 30.24 603.788 30.24C602.708 30.24 602.308 31.12 602.308 32.08C602.308 34.6 604.108 37.68 606.908 37.68C609.988 37.68 611.588 34.56 611.588 31.84C611.588 30.04 611.068 28.24 610.228 26.68ZM629 35.12C628.64 35.12 628.2 35.2 628 35.52C627.84 35.8 627.76 37.76 627.76 38.2C627.76 38.8 628.04 39.16 628.68 39.16C629.4 39.16 630.16 39.04 630.88 38.96C631.52 38.92 631.44 38.16 631.44 37.72C631.44 35.36 631.24 35.12 629 35.12ZM634.76 12.2C633.92 11 632.52 10.12 631.04 10.12C628.08 10.12 626.56 13.28 626.56 15.84C626.56 16.84 626.84 18.04 628.04 18.04C628.88 18.04 629.8 17.48 629.8 16.6C629.8 16.04 629.6 15.56 629.6 15.04C629.6 14.2 630.12 13.08 631.08 13.08C632.6 13.08 633.12 15.24 633.12 16.4C633.12 21.2 629.68 23.52 628.12 27.52C627.96 27.92 627.76 31.4 627.76 31.96C627.76 32.36 628.04 32.68 628.44 32.68H629.92C630.32 32.68 630.6 32.4 630.64 32C630.96 28.84 631.56 26.92 633.24 24.2C633.92 23.16 634.68 22.12 635.16 20.96C635.72 19.6 636.04 18.04 636.04 16.6C636.04 15.04 635.68 13.48 634.76 12.2Z" fill="white"/>
</g>
<defs>
<filter id="filter0_d" x="0.0820312" y="0.880005" width="644.958" height="54.6" filterUnits="userSpaceOnUse" color-interpolation-filters="sRGB">
<feFlood flood-opacity="0" result="BackgroundImageFix"/>
<feColorMatrix in="SourceAlpha" type="matrix" values="0 0 0 0 0 0 0 0 0 0 0 0 0 0 0 0 0 0 127 0"/>
<feOffset dx="1" dy="3"/>
<feGaussianBlur stdDeviation="4"/>
<feColorMatrix type="matrix" values="0 0 0 0 0.130833 0 0 0 0 0.415588 0 0 0 0 0.654167 0 0 0 1 0"/>
<feBlend mode="normal" in2="BackgroundImageFix" result="effect1_dropShadow"/>
<feBlend mode="normal" in="SourceGraphic" in2="effect1_dropShadow" result="shape"/>
</filter>
</defs>
</svg>
