<svg width="339" height="319" viewBox="0 0 339 319" fill="none" xmlns="http://www.w3.org/2000/svg">
<circle cx="169" cy="62" r="62" fill="#FDECE0"/>
<path d="M148.785 58C146.049 58 143.925 56.764 142.413 54.292C140.925 51.796 140.181 48.34 140.181 43.924C140.181 39.484 140.925 36.028 142.413 33.556C143.925 31.084 146.049 29.848 148.785 29.848C150.609 29.848 152.157 30.424 153.429 31.576C154.725 32.704 155.709 34.324 156.381 36.436C157.053 38.524 157.389 41.02 157.389 43.924C157.389 46.828 157.053 49.336 156.381 51.448C155.709 53.536 154.725 55.156 153.429 56.308C152.157 57.436 150.609 58 148.785 58ZM148.785 54.256C149.889 54.256 150.801 53.812 151.521 52.924C152.241 52.012 152.781 50.776 153.141 49.216C153.501 47.656 153.681 45.892 153.681 43.924C153.681 41.956 153.501 40.192 153.141 38.632C152.781 37.072 152.241 35.836 151.521 34.924C150.801 34.012 149.889 33.556 148.785 33.556C147.681 33.556 146.769 34.012 146.049 34.924C145.329 35.812 144.789 37.036 144.429 38.596C144.069 40.156 143.889 41.932 143.889 43.924C143.889 45.916 144.069 47.692 144.429 49.252C144.789 50.812 145.329 52.036 146.049 52.924C146.793 53.812 147.705 54.256 148.785 54.256ZM162.361 60.664C161.689 60.664 161.173 60.388 160.813 59.836C160.477 59.308 160.441 58.72 160.705 58.072L171.541 30.964C171.685 30.628 171.913 30.364 172.225 30.172C172.537 29.98 172.873 29.884 173.233 29.884C173.857 29.884 174.349 30.148 174.709 30.676C175.093 31.18 175.153 31.78 174.889 32.476L164.053 59.584C163.909 59.968 163.669 60.244 163.333 60.412C163.021 60.58 162.697 60.664 162.361 60.664ZM187.3 58C185.5 58 183.904 57.628 182.512 56.884C181.12 56.116 180.028 55.084 179.236 53.788C178.444 52.468 178.048 50.992 178.048 49.36C178.048 48.808 178.204 48.364 178.516 48.028C178.852 47.668 179.248 47.488 179.704 47.488C180.184 47.488 180.58 47.668 180.892 48.028C181.204 48.364 181.36 48.808 181.36 49.36C181.36 50.344 181.612 51.256 182.116 52.096C182.62 52.912 183.304 53.572 184.168 54.076C185.032 54.556 186.004 54.796 187.084 54.796C188.668 54.796 189.94 54.364 190.9 53.5C191.884 52.612 192.376 51.376 192.376 49.792C192.376 48.784 192.16 47.884 191.728 47.092C191.296 46.276 190.708 45.628 189.964 45.148C189.22 44.668 188.38 44.428 187.444 44.428C186.916 44.428 186.472 44.248 186.112 43.888C185.776 43.528 185.608 43.084 185.608 42.556C185.608 42.028 185.776 41.596 186.112 41.26C186.472 40.9 186.916 40.72 187.444 40.72C188.116 40.72 188.764 40.552 189.388 40.216C190.012 39.856 190.528 39.388 190.936 38.812C191.344 38.212 191.548 37.54 191.548 36.796C191.548 35.74 191.164 34.852 190.396 34.132C189.628 33.412 188.644 33.052 187.444 33.052C186.532 33.052 185.692 33.232 184.924 33.592C184.18 33.952 183.58 34.432 183.124 35.032C182.692 35.632 182.476 36.304 182.476 37.048C182.476 37.6 182.32 38.068 182.008 38.452C181.696 38.812 181.3 38.992 180.82 38.992C180.364 38.992 179.968 38.824 179.632 38.488C179.32 38.128 179.164 37.684 179.164 37.156C179.164 35.764 179.524 34.516 180.244 33.412C180.964 32.308 181.948 31.444 183.196 30.82C184.444 30.172 185.836 29.848 187.372 29.848C188.788 29.848 190.06 30.16 191.188 30.784C192.34 31.384 193.24 32.212 193.888 33.268C194.56 34.3 194.896 35.476 194.896 36.796C194.896 37.732 194.68 38.56 194.248 39.28C193.84 40 193.312 40.624 192.664 41.152C192.016 41.656 191.332 42.076 190.612 42.412C192.508 43.06 193.876 44.044 194.716 45.364C195.58 46.66 196.012 48.148 196.012 49.828C196.012 51.388 195.616 52.792 194.824 54.04C194.032 55.264 192.976 56.236 191.656 56.956C190.336 57.652 188.884 58 187.3 58Z" fill="#45396D"/>
<path d="M145.759 94.144C144.007 94.144 142.435 93.712 141.043 92.848C139.651 91.96 138.547 90.772 137.731 89.284C136.939 87.772 136.543 86.068 136.543 84.172C136.543 82.276 136.975 80.572 137.839 79.06C138.727 77.548 139.915 76.36 141.403 75.496C142.915 74.608 144.607 74.164 146.479 74.164C148.351 74.164 150.031 74.608 151.519 75.496C153.007 76.36 154.183 77.548 155.047 79.06C155.935 80.572 156.379 82.276 156.379 84.172V92.2C156.379 92.728 156.199 93.172 155.839 93.532C155.503 93.868 155.071 94.036 154.543 94.036C154.015 94.036 153.571 93.868 153.211 93.532C152.875 93.172 152.707 92.728 152.707 92.2V90.868C151.867 91.876 150.847 92.68 149.647 93.28C148.471 93.856 147.175 94.144 145.759 94.144ZM146.479 90.904C147.703 90.904 148.795 90.616 149.755 90.04C150.715 89.44 151.471 88.636 152.023 87.628C152.575 86.596 152.851 85.444 152.851 84.172C152.851 82.876 152.575 81.724 152.023 80.716C151.471 79.684 150.715 78.88 149.755 78.304C148.795 77.704 147.703 77.404 146.479 77.404C145.279 77.404 144.187 77.704 143.203 78.304C142.243 78.88 141.475 79.684 140.899 80.716C140.347 81.724 140.071 82.876 140.071 84.172C140.071 85.444 140.347 86.596 140.899 87.628C141.475 88.636 142.243 89.44 143.203 90.04C144.187 90.616 145.279 90.904 146.479 90.904ZM163.68 94.036C163.152 94.036 162.708 93.868 162.348 93.532C162.012 93.172 161.844 92.728 161.844 92.2V76.144C161.844 75.592 162.012 75.148 162.348 74.812C162.708 74.476 163.152 74.308 163.68 74.308C164.232 74.308 164.676 74.476 165.012 74.812C165.348 75.148 165.516 75.592 165.516 76.144V76.54C166.26 75.796 167.16 75.208 168.216 74.776C169.272 74.344 170.412 74.128 171.636 74.128C173.292 74.128 174.768 74.488 176.064 75.208C177.384 75.904 178.416 76.936 179.16 78.304C179.928 79.672 180.312 81.352 180.312 83.344V92.2C180.312 92.728 180.132 93.172 179.772 93.532C179.436 93.868 179.004 94.036 178.476 94.036C177.948 94.036 177.504 93.868 177.144 93.532C176.808 93.172 176.64 92.728 176.64 92.2V83.344C176.64 81.304 176.088 79.816 174.984 78.88C173.904 77.92 172.548 77.44 170.916 77.44C169.908 77.44 168.996 77.644 168.18 78.052C167.364 78.46 166.716 79.012 166.236 79.708C165.756 80.38 165.516 81.16 165.516 82.048V92.2C165.516 92.728 165.348 93.172 165.012 93.532C164.676 93.868 164.232 94.036 163.68 94.036ZM193.547 94.144C191.867 94.144 190.307 93.892 188.867 93.388C187.451 92.86 186.347 92.2 185.555 91.408C185.195 91.024 185.039 90.592 185.087 90.112C185.159 89.608 185.399 89.2 185.807 88.888C186.287 88.504 186.755 88.348 187.211 88.42C187.691 88.468 188.099 88.672 188.435 89.032C188.843 89.488 189.491 89.92 190.379 90.328C191.291 90.712 192.299 90.904 193.403 90.904C194.795 90.904 195.851 90.676 196.571 90.22C197.315 89.764 197.699 89.176 197.723 88.456C197.747 87.736 197.399 87.112 196.679 86.584C195.983 86.056 194.699 85.624 192.827 85.288C190.403 84.808 188.639 84.088 187.535 83.128C186.455 82.168 185.915 80.992 185.915 79.6C185.915 78.376 186.275 77.368 186.995 76.576C187.715 75.76 188.639 75.16 189.767 74.776C190.895 74.368 192.071 74.164 193.295 74.164C194.879 74.164 196.283 74.416 197.507 74.92C198.731 75.424 199.703 76.12 200.423 77.008C200.759 77.392 200.915 77.8 200.891 78.232C200.867 78.64 200.663 78.988 200.279 79.276C199.895 79.54 199.439 79.624 198.911 79.528C198.383 79.432 197.939 79.216 197.579 78.88C196.979 78.304 196.331 77.908 195.635 77.692C194.939 77.476 194.135 77.368 193.223 77.368C192.167 77.368 191.267 77.548 190.523 77.908C189.803 78.268 189.443 78.796 189.443 79.492C189.443 79.924 189.551 80.32 189.767 80.68C190.007 81.016 190.463 81.328 191.135 81.616C191.807 81.88 192.791 82.144 194.087 82.408C196.799 82.936 198.671 83.692 199.703 84.676C200.759 85.636 201.287 86.824 201.287 88.24C201.287 89.344 200.987 90.34 200.387 91.228C199.811 92.116 198.947 92.824 197.795 93.352C196.667 93.88 195.251 94.144 193.547 94.144Z" fill="#45396D"/>
<path d="M157.278 304.414C149.746 311.946 137.541 311.946 130.009 304.414C122.477 296.881 122.477 284.671 130.009 277.145C137.541 269.612 149.746 269.612 157.278 277.145C164.81 284.677 164.81 296.887 157.278 304.414Z" stroke="#45396D" stroke-width="16" stroke-miterlimit="10"/>
<path d="M184.487 309.808C178.797 315.498 160.812 306.732 144.309 290.234C127.811 273.737 119.045 255.752 124.735 250.062C130.425 244.372 148.409 253.133 164.913 269.636C181.416 286.134 190.177 304.119 184.487 309.808Z" fill="#FDECE0" stroke="#FDECE0" stroke-width="8" stroke-miterlimit="10"/>
<path d="M207.445 268.703C199.389 276.729 180.874 275.104 180.874 275.104C178.881 274.929 176.094 275.94 174.679 277.355L163.877 288.121C162.462 289.53 160.144 289.53 158.735 288.115L146.193 275.531C144.784 274.116 144.784 271.798 146.199 270.389L157.073 259.557C158.488 258.148 159.524 255.361 159.367 253.368C159.367 253.368 157.928 235.004 165.918 227.038C176.997 216.002 195.27 216.375 206.74 227.881C218.204 239.381 218.517 257.661 207.445 268.703Z" fill="#FFCDB6"/>
</svg>
