<svg width="339" height="322" viewBox="0 0 339 322" fill="none" xmlns="http://www.w3.org/2000/svg">
<circle cx="169" cy="62" r="62" fill="#FDECE0"/>
<path d="M149.981 40.9C151.613 40.9 153.065 41.272 154.337 42.016C155.633 42.736 156.641 43.744 157.361 45.04C158.081 46.336 158.441 47.812 158.441 49.468C158.441 51.1 158.081 52.564 157.361 53.86C156.641 55.156 155.633 56.176 154.337 56.92C153.065 57.64 151.613 58 149.981 58C148.325 58 146.849 57.64 145.553 56.92C144.281 56.176 143.285 55.156 142.565 53.86C141.845 52.564 141.485 51.1 141.485 49.468C141.485 47.62 141.941 45.976 142.853 44.536L151.025 30.928C151.457 30.256 152.009 29.92 152.681 29.92C153.233 29.92 153.689 30.1 154.049 30.46C154.409 30.82 154.589 31.252 154.589 31.756C154.589 32.116 154.493 32.44 154.301 32.728L149.369 40.9H149.981ZM149.945 54.76C151.433 54.76 152.645 54.268 153.581 53.284C154.517 52.3 154.985 51.028 154.985 49.468C154.985 47.908 154.517 46.636 153.581 45.652C152.645 44.644 151.433 44.14 149.945 44.14C148.481 44.14 147.281 44.644 146.345 45.652C145.409 46.636 144.941 47.908 144.941 49.468C144.941 51.028 145.397 52.3 146.309 53.284C147.245 54.268 148.457 54.76 149.945 54.76ZM172.411 30.964C172.555 30.628 172.783 30.364 173.095 30.172C173.407 29.98 173.743 29.884 174.103 29.884C174.607 29.884 175.027 30.064 175.363 30.424C175.723 30.76 175.903 31.18 175.903 31.684C175.903 31.948 175.855 32.212 175.759 32.476L164.923 59.584C164.779 59.944 164.551 60.208 164.239 60.376C163.927 60.568 163.591 60.664 163.231 60.664C162.727 60.664 162.295 60.484 161.935 60.124C161.575 59.788 161.395 59.368 161.395 58.864C161.395 58.624 161.455 58.36 161.575 58.072L172.411 30.964ZM195.514 38.38C195.514 40.228 195.058 41.872 194.146 43.312L185.974 56.92C185.542 57.592 184.99 57.928 184.318 57.928C183.766 57.928 183.31 57.748 182.95 57.388C182.59 57.028 182.41 56.596 182.41 56.092C182.41 55.732 182.506 55.408 182.698 55.12L187.63 46.948H187.018C185.386 46.948 183.922 46.588 182.626 45.868C181.354 45.124 180.358 44.104 179.638 42.808C178.918 41.512 178.558 40.036 178.558 38.38C178.558 36.748 178.918 35.284 179.638 33.988C180.358 32.692 181.354 31.684 182.626 30.964C183.922 30.22 185.386 29.848 187.018 29.848C188.674 29.848 190.138 30.22 191.41 30.964C192.706 31.684 193.714 32.692 194.434 33.988C195.154 35.284 195.514 36.748 195.514 38.38ZM182.014 38.38C182.014 39.94 182.482 41.224 183.418 42.232C184.354 43.216 185.566 43.708 187.054 43.708C188.518 43.708 189.718 43.216 190.654 42.232C191.59 41.224 192.058 39.94 192.058 38.38C192.058 36.82 191.59 35.548 190.654 34.564C189.742 33.58 188.542 33.088 187.054 33.088C185.566 33.088 184.354 33.58 183.418 34.564C182.482 35.548 182.014 36.82 182.014 38.38Z" fill="#45396D"/>
<path d="M146.479 74.164C148.327 74.164 149.995 74.608 151.483 75.496C152.995 76.36 154.183 77.56 155.047 79.096C155.935 80.608 156.379 82.3 156.379 84.172V92.2C156.379 92.728 156.199 93.172 155.839 93.532C155.503 93.868 155.071 94.036 154.543 94.036C154.015 94.036 153.571 93.868 153.211 93.532C152.875 93.172 152.707 92.728 152.707 92.2V90.868C151.867 91.9 150.847 92.704 149.647 93.28C148.447 93.856 147.151 94.144 145.759 94.144C144.031 94.144 142.459 93.712 141.043 92.848C139.651 91.984 138.547 90.796 137.731 89.284C136.939 87.748 136.543 86.044 136.543 84.172C136.543 82.3 136.975 80.608 137.839 79.096C138.703 77.56 139.891 76.36 141.403 75.496C142.939 74.608 144.631 74.164 146.479 74.164ZM146.479 90.904C147.679 90.904 148.759 90.616 149.719 90.04C150.703 89.44 151.471 88.636 152.023 87.628C152.575 86.596 152.851 85.444 152.851 84.172C152.851 82.9 152.575 81.748 152.023 80.716C151.471 79.684 150.703 78.88 149.719 78.304C148.759 77.704 147.679 77.404 146.479 77.404C145.279 77.404 144.187 77.704 143.203 78.304C142.243 78.88 141.475 79.684 140.899 80.716C140.347 81.748 140.071 82.9 140.071 84.172C140.071 85.444 140.347 86.596 140.899 87.628C141.475 88.636 142.243 89.44 143.203 90.04C144.187 90.616 145.279 90.904 146.479 90.904ZM171.636 74.128C173.292 74.128 174.78 74.488 176.1 75.208C177.42 75.928 178.452 76.984 179.196 78.376C179.94 79.744 180.312 81.4 180.312 83.344V92.2C180.312 92.728 180.132 93.172 179.772 93.532C179.436 93.868 179.004 94.036 178.476 94.036C177.948 94.036 177.504 93.868 177.144 93.532C176.808 93.172 176.64 92.728 176.64 92.2V83.344C176.64 81.4 176.112 79.936 175.056 78.952C174.024 77.944 172.644 77.44 170.916 77.44C169.908 77.44 168.984 77.644 168.144 78.052C167.328 78.46 166.68 79.012 166.2 79.708C165.744 80.404 165.516 81.184 165.516 82.048V92.2C165.516 92.728 165.348 93.172 165.012 93.532C164.676 93.868 164.232 94.036 163.68 94.036C163.152 94.036 162.708 93.868 162.348 93.532C162.012 93.172 161.844 92.728 161.844 92.2V76.144C161.844 75.592 162.012 75.148 162.348 74.812C162.708 74.476 163.152 74.308 163.68 74.308C164.232 74.308 164.676 74.476 165.012 74.812C165.348 75.148 165.516 75.592 165.516 76.144V76.54C166.284 75.772 167.196 75.184 168.252 74.776C169.308 74.344 170.436 74.128 171.636 74.128ZM193.547 94.144C191.915 94.144 190.379 93.892 188.939 93.388C187.499 92.884 186.371 92.224 185.555 91.408C185.243 91.096 185.087 90.724 185.087 90.292C185.087 89.716 185.327 89.248 185.807 88.888C186.263 88.552 186.683 88.384 187.067 88.384C187.547 88.384 188.003 88.6 188.435 89.032C188.891 89.536 189.575 89.98 190.487 90.364C191.399 90.724 192.371 90.904 193.403 90.904C194.771 90.904 195.827 90.676 196.571 90.22C197.339 89.764 197.723 89.152 197.723 88.384C197.723 87.64 197.351 87.028 196.607 86.548C195.863 86.044 194.603 85.624 192.827 85.288C188.219 84.4 185.915 82.504 185.915 79.6C185.915 78.424 186.263 77.428 186.959 76.612C187.655 75.796 188.567 75.184 189.695 74.776C190.823 74.368 192.023 74.164 193.295 74.164C194.855 74.164 196.247 74.416 197.471 74.92C198.719 75.424 199.703 76.12 200.423 77.008C200.735 77.392 200.891 77.776 200.891 78.16C200.891 78.568 200.687 78.94 200.279 79.276C200.015 79.468 199.679 79.564 199.271 79.564C198.647 79.564 198.083 79.336 197.579 78.88C196.979 78.328 196.343 77.944 195.671 77.728C194.999 77.488 194.183 77.368 193.223 77.368C192.119 77.368 191.207 77.56 190.487 77.944C189.791 78.304 189.443 78.82 189.443 79.492C189.443 79.972 189.563 80.38 189.803 80.716C190.043 81.028 190.499 81.328 191.171 81.616C191.843 81.88 192.815 82.144 194.087 82.408C196.703 82.936 198.551 83.668 199.631 84.604C200.735 85.54 201.287 86.752 201.287 88.24C201.287 89.344 200.987 90.352 200.387 91.264C199.787 92.152 198.899 92.86 197.723 93.388C196.571 93.892 195.179 94.144 193.547 94.144Z" fill="#45396D"/>
<path d="M107 298.694L168.994 322V267.959L107 244.651V298.694Z" fill="#FDECE0"/>
<path d="M230.28 297.378L168.994 322V267.959L230.987 242.982L230.28 297.378Z" fill="#FDECE0"/>
<path d="M107 244.651L168.994 267.959L230.987 242.982L166.102 224.962L107 244.651Z" fill="#FFCDB6"/>
<path d="M183.634 248.141C183.634 250.045 180.704 251.709 176.345 252.603C174.187 253.046 171.673 253.3 168.994 253.3C166.314 253.3 163.801 253.046 161.642 252.603C157.284 251.709 154.353 250.045 154.353 248.141C154.353 245.293 160.909 242.982 168.994 242.982C177.078 242.982 183.634 245.293 183.634 248.141Z" fill="#FFCDB6"/>
<path d="M180.32 225.431C180.32 227.069 177.804 228.497 174.06 229.264C172.204 229.644 170.046 229.862 167.742 229.862C165.441 229.862 163.282 229.644 161.427 229.264C157.683 228.497 155.167 227.069 155.167 225.431C155.167 222.985 160.797 221 167.742 221C174.689 221 180.32 222.985 180.32 225.431Z" fill="#FFCDB6"/>
<path d="M216.09 234.609C216.09 236.514 213.162 238.178 208.801 239.069C206.642 239.512 204.129 239.766 201.449 239.766C198.77 239.766 196.259 239.512 194.1 239.069C189.742 238.178 186.811 236.514 186.811 234.609C186.811 231.759 193.364 229.45 201.449 229.45C209.537 229.45 216.09 231.759 216.09 234.609Z" fill="#FFCDB6"/>
<path d="M151.448 235.646C151.448 237.405 148.74 238.942 144.713 239.769C142.718 240.178 140.399 240.411 137.924 240.411C135.45 240.411 133.131 240.178 131.135 239.769C127.108 238.942 124.401 237.405 124.401 235.646C124.401 233.013 130.454 230.88 137.924 230.88C145.392 230.88 151.448 233.013 151.448 235.646Z" fill="#FFCDB6"/>
<path d="M151.448 235.646V243.889C151.448 246.521 145.392 248.654 137.924 248.654C130.454 248.654 124.401 246.521 124.401 243.889V235.646C124.401 237.405 127.108 238.942 131.135 239.768C133.131 240.178 135.45 240.411 137.924 240.411C140.399 240.411 142.718 240.178 144.713 239.768C148.74 238.942 151.448 237.405 151.448 235.646Z" fill="#FDECE0"/>
<path d="M183.634 248.141V257.065C183.634 259.916 177.078 262.225 168.994 262.225C160.909 262.225 154.353 259.916 154.353 257.065V248.141C154.353 250.046 157.284 251.709 161.642 252.603C163.801 253.046 166.314 253.3 168.994 253.3C171.673 253.3 174.187 253.046 176.345 252.603C180.704 251.709 183.634 250.046 183.634 248.141Z" fill="#FDECE0"/>
<path d="M180.32 225.431V233.099C180.32 235.545 174.689 237.53 167.742 237.53C160.797 237.53 155.167 235.545 155.167 233.099V225.431C155.167 227.069 157.683 228.497 161.427 229.264C163.282 229.644 165.441 229.862 167.742 229.862C170.046 229.862 172.204 229.644 174.06 229.264C177.804 228.497 180.32 227.069 180.32 225.431Z" fill="#FDECE0"/>
<path d="M216.09 234.609V243.531C216.09 246.382 209.537 248.69 201.449 248.69C193.364 248.69 186.811 246.382 186.811 243.531V234.609C186.811 236.514 189.742 238.178 194.1 239.069C196.259 239.512 198.77 239.766 201.449 239.766C204.129 239.766 206.642 239.512 208.801 239.069C213.162 238.178 216.09 236.514 216.09 234.609Z" fill="#FDECE0"/>
</svg>
