<svg width="47" height="47" viewBox="0 0 47 47" fill="none" xmlns="http://www.w3.org/2000/svg">
<circle cx="23.5" cy="23.5" r="23.5" transform="rotate(-180 23.5 23.5)" fill="#025949"/>
<path d="M17.2513 13.824C16.7962 13.5112 16.6809 12.8886 16.9938 12.4335C17.3067 11.9784 17.9293 11.8631 18.3844 12.176L17.2513 13.824ZM33.0906 23.5L33.6571 22.676C33.9285 22.8625 34.0906 23.1707 34.0906 23.5C34.0906 23.8293 33.9285 24.1375 33.6571 24.324L33.0906 23.5ZM18.3844 34.824C17.9293 35.1369 17.3067 35.0216 16.9938 34.5665C16.6809 34.1114 16.7962 33.4888 17.2513 33.176L18.3844 34.824ZM18.3844 12.176L33.6571 22.676L32.5241 24.324L17.2513 13.824L18.3844 12.176ZM33.6571 24.324L18.3844 34.824L17.2513 33.176L32.5241 22.676L33.6571 24.324Z" fill="white"/>
</svg>


