<svg width="64" height="40" viewBox="0 0 64 40" fill="none" xmlns="http://www.w3.org/2000/svg">
<g filter="url(#filter0_d)">
<path d="M13.5808 16.46C13.2568 13.724 13.4368 10.988 13.4368 8.252C13.4368 6.632 13.2568 5.048 13.2568 3.464C13.2568 2.816 13.3648 2.204 13.3648 1.556C13.3648 0.727999 11.4568 0.368 10.8448 0.368C10.3408 0.368 10.3408 0.907999 10.3408 1.268C10.3408 5.768 10.8808 10.232 10.8808 14.732C10.8808 15.164 10.8808 15.56 10.7728 15.992C9.08078 13.58 5.15678 1.808 4.32878 1.16C3.86078 0.835998 3.28478 0.692 2.70878 0.692C1.98878 0.692 1.59278 1.088 1.59278 1.808C1.59278 2.564 1.84478 3.284 1.95278 4.004C2.16878 5.624 2.20478 7.316 2.20478 8.936C2.20478 11.024 2.09678 13.112 2.09678 15.164C2.09678 17.756 2.24078 20.276 2.52878 22.832C2.60078 23.336 2.60078 23.804 3.24878 23.804C3.75278 23.804 4.25678 23.876 4.76078 23.876C5.48078 23.876 5.48078 22.796 5.48078 22.292C5.48078 18.584 4.90478 14.912 4.54478 11.24C4.40078 9.872 4.22078 8.54 4.22078 7.208C4.22078 7.064 4.25678 6.884 4.29278 6.74C4.90478 7.172 6.41678 11.816 6.81278 12.824C7.71278 15.2 8.97278 17.432 9.83678 19.808C10.0528 20.348 10.3768 21.752 10.8448 22.04C11.1688 22.22 12.4288 22.22 12.8248 22.22C13.8328 22.22 13.8328 20.492 13.8328 19.808C13.8328 18.692 13.6888 17.576 13.5808 16.46ZM25.8621 23.732C31.9461 23.732 33.5661 16.208 33.5661 11.42C33.5661 6.488 32.0181 0.259999 25.9341 0.259999C20.3541 0.259999 18.0141 6.272 18.0141 11.024C18.0141 15.992 19.4901 23.732 25.8621 23.732ZM25.9341 3.14C29.6781 3.14 30.9021 8.324 30.9021 11.276C30.9021 14.516 30.2541 20.924 25.8621 20.924C21.0381 20.924 20.8581 14.804 20.8581 11.312C20.8581 8 21.6861 3.14 25.9341 3.14ZM48.7019 16.46C48.3779 13.724 48.5579 10.988 48.5579 8.252C48.5579 6.632 48.3779 5.048 48.3779 3.464C48.3779 2.816 48.4859 2.204 48.4859 1.556C48.4859 0.727999 46.5779 0.368 45.9659 0.368C45.4619 0.368 45.4619 0.907999 45.4619 1.268C45.4619 5.768 46.0019 10.232 46.0019 14.732C46.0019 15.164 46.0019 15.56 45.8939 15.992C44.2019 13.58 40.2779 1.808 39.4499 1.16C38.9819 0.835998 38.4059 0.692 37.8299 0.692C37.1099 0.692 36.7139 1.088 36.7139 1.808C36.7139 2.564 36.9659 3.284 37.0739 4.004C37.2899 5.624 37.3259 7.316 37.3259 8.936C37.3259 11.024 37.2179 13.112 37.2179 15.164C37.2179 17.756 37.3619 20.276 37.6499 22.832C37.7219 23.336 37.7219 23.804 38.3699 23.804C38.8739 23.804 39.3779 23.876 39.8819 23.876C40.6019 23.876 40.6019 22.796 40.6019 22.292C40.6019 18.584 40.0259 14.912 39.6659 11.24C39.5219 9.872 39.3419 8.54 39.3419 7.208C39.3419 7.064 39.3779 6.884 39.4139 6.74C40.0259 7.172 41.5379 11.816 41.9339 12.824C42.8339 15.2 44.0939 17.432 44.9579 19.808C45.1739 20.348 45.4979 21.752 45.9659 22.04C46.2899 22.22 47.5499 22.22 47.9459 22.22C48.9539 22.22 48.9539 20.492 48.9539 19.808C48.9539 18.692 48.8099 17.576 48.7019 16.46Z" fill="white"/>
</g>
<defs>
<filter id="filter0_d" x="0.592773" y="0.26001" width="63.3611" height="39.616" filterUnits="userSpaceOnUse" color-interpolation-filters="sRGB">
<feFlood flood-opacity="0" result="BackgroundImageFix"/>
<feColorMatrix in="SourceAlpha" type="matrix" values="0 0 0 0 0 0 0 0 0 0 0 0 0 0 0 0 0 0 127 0"/>
<feOffset dx="7" dy="8"/>
<feGaussianBlur stdDeviation="4"/>
<feColorMatrix type="matrix" values="0 0 0 0 0 0 0 0 0 0 0 0 0 0 0 0 0 0 0.25 0"/>
<feBlend mode="normal" in2="BackgroundImageFix" result="effect1_dropShadow"/>
<feBlend mode="normal" in="SourceGraphic" in2="effect1_dropShadow" result="shape"/>
</filter>
</defs>
</svg>
