<svg width="117" height="33" viewBox="0 0 117 33" fill="none" xmlns="http://www.w3.org/2000/svg">
<path d="M6.27786 15.268C8.65386 14.764 9.80586 12.496 9.80586 10.228C9.80586 8.248 8.94186 6.196 7.06986 5.26C5.84586 4.648 3.50586 4.108 2.13786 4.108C0.445859 4.108 0.445859 4.828 0.445859 6.304C0.445859 8.212 0.841859 10.048 0.985859 11.92C1.27386 15.988 1.38186 20.056 1.84986 24.088C2.02986 25.636 2.13786 27.148 2.24586 28.696C2.28186 29.416 2.24586 30.136 3.14586 30.136C8.00586 30.136 10.0219 26.176 10.0219 21.856C10.0219 19.084 9.15786 16.276 6.27786 15.268ZM6.67386 24.844C6.42186 25.348 5.73786 26.608 5.16186 26.608C4.87386 26.608 4.83786 25.996 4.83786 25.816C4.83786 25.312 4.94586 24.844 4.94586 24.376C4.94586 21.928 4.47786 19.48 4.47786 17.068C4.47786 16.96 4.47786 16.888 4.51386 16.816H4.62186C5.30586 16.816 6.45786 18.58 6.70986 19.192C7.10586 20.056 7.28586 20.992 7.28586 21.928C7.28586 22.936 7.10586 23.944 6.67386 24.844ZM3.75786 12.28C3.57786 10.732 3.14586 9.22 3.14586 7.636C3.14586 7.24 3.10986 6.304 3.68586 6.304C4.26186 6.304 6.20586 7.348 6.56586 7.816C6.92586 8.32 7.14186 8.932 7.14186 9.58C7.14186 11.02 5.48586 13.252 3.97386 13.252C3.75786 13.252 3.75786 12.424 3.75786 12.28ZM16.9046 29.02C16.9406 28.804 16.9766 28.588 16.9766 28.336C16.9766 27.256 16.6886 26.212 16.5806 25.132C16.2566 21.964 16.3286 18.796 16.3286 15.628C16.3286 14.8 16.2206 14.008 15.2126 14.008C13.5566 14.008 13.2326 14.512 13.2326 16.096C13.2326 17.428 13.5206 18.76 13.6646 20.128C13.9166 22.432 13.8446 24.808 13.8446 27.112C13.8446 29.2 14.0606 29.272 16.0766 29.272C16.3646 29.272 16.6886 29.272 16.9046 29.02ZM13.6646 10.948C14.0966 10.948 14.5286 11.056 14.9606 11.056C15.7166 11.056 15.9686 10.516 15.9686 9.832C15.9686 9.184 15.8246 8.572 15.7886 7.924C15.7886 7.384 15.8606 6.88 15.8606 6.34C15.8606 5.116 14.9606 4.936 13.9166 4.936C13.5926 4.936 13.2686 4.936 12.9806 5.008C12.8366 5.08 12.8006 5.26 12.8006 5.404C12.8006 5.908 13.0166 6.34 13.0886 6.808C13.2326 7.852 13.1606 8.896 13.1606 9.94C13.1606 10.264 13.1606 10.66 13.2686 10.984C13.4126 10.948 13.5206 10.948 13.6646 10.948ZM31.4815 21.244H31.3375C30.6895 21.244 30.0775 21.136 29.4295 21.136C29.1415 21.136 28.7815 21.136 28.5295 21.316C27.8095 21.748 28.6735 26.212 26.2975 26.212C23.8855 26.212 23.9215 20.992 23.7415 19.336C23.6695 18.688 23.5615 18.04 23.5615 17.392C23.5615 16.132 24.7135 15.88 25.7215 15.88C26.9455 15.88 28.1695 15.988 29.3935 15.988C30.7255 15.988 31.6255 15.736 31.6255 14.188C31.6255 10.912 29.8975 5.08 25.8655 5.08C20.6815 5.08 20.3575 13.612 20.3575 17.284C20.3575 20.812 21.5095 29.128 26.2615 29.128C29.8975 29.128 31.8415 25.096 31.8415 21.928C31.8415 21.64 31.8055 21.316 31.4815 21.244ZM23.9575 12.316V11.524C23.9575 10.372 23.9575 7.888 25.6135 7.888C27.3055 7.888 28.5295 10.876 28.5295 12.244C28.5295 13.036 28.0255 13.036 27.4135 13.108C26.5495 13.216 25.7215 13.504 24.8575 13.504C24.6055 13.504 23.8855 13.468 23.8855 13.108C23.8855 12.82 23.9215 12.568 23.9575 12.316ZM46.7312 21.46C46.4072 18.724 46.5872 15.988 46.5872 13.252C46.5872 11.632 46.4072 10.048 46.4072 8.464C46.4072 7.816 46.5152 7.204 46.5152 6.556C46.5152 5.728 44.6072 5.368 43.9952 5.368C43.4912 5.368 43.4912 5.908 43.4912 6.268C43.4912 10.768 44.0312 15.232 44.0312 19.732C44.0312 20.164 44.0312 20.56 43.9232 20.992C42.2312 18.58 38.3072 6.808 37.4792 6.16C37.0112 5.836 36.4352 5.692 35.8592 5.692C35.1392 5.692 34.7432 6.088 34.7432 6.808C34.7432 7.564 34.9952 8.284 35.1032 9.004C35.3192 10.624 35.3552 12.316 35.3552 13.936C35.3552 16.024 35.2472 18.112 35.2472 20.164C35.2472 22.756 35.3912 25.276 35.6792 27.832C35.7512 28.336 35.7512 28.804 36.3992 28.804C36.9032 28.804 37.4072 28.876 37.9112 28.876C38.6312 28.876 38.6312 27.796 38.6312 27.292C38.6312 23.584 38.0552 19.912 37.6952 16.24C37.5512 14.872 37.3712 13.54 37.3712 12.208C37.3712 12.064 37.4072 11.884 37.4432 11.74C38.0552 12.172 39.5672 16.816 39.9632 17.824C40.8632 20.2 42.1232 22.432 42.9872 24.808C43.2032 25.348 43.5272 26.752 43.9952 27.04C44.3192 27.22 45.5792 27.22 45.9752 27.22C46.9832 27.22 46.9832 25.492 46.9832 24.808C46.9832 23.692 46.8392 22.576 46.7312 21.46ZM69.0914 18.112C67.8314 15.808 64.1594 12.964 64.1594 10.264C64.1594 9.796 64.2314 8.716 64.9154 8.716C66.4274 8.716 65.1674 10.66 66.9314 10.66C67.5074 10.66 68.0834 10.588 68.6594 10.516C68.5874 8.536 67.1474 6.196 64.9874 6.196C62.9354 6.196 61.5674 8.14 61.5674 10.048C61.5674 15.016 67.7594 17.5 67.7594 22.9C67.7594 23.836 67.3274 25.42 66.1394 25.42C64.6994 25.42 64.8074 23.62 64.8074 22.612C64.8074 21.82 64.0514 21.316 63.2954 21.316C62.3234 21.316 61.9634 22.108 61.9634 22.972C61.9634 25.24 63.5834 28.012 66.1034 28.012C68.8754 28.012 70.3154 25.204 70.3154 22.756C70.3154 21.136 69.8474 19.516 69.0914 18.112ZM85.9875 5.8H85.6275C84.7275 5.8 83.6475 5.836 83.6475 7.024C83.6475 7.708 83.7195 8.356 83.7195 9.004C83.7195 10.804 83.6835 12.604 83.6835 14.404C83.6835 17.284 84.4395 24.772 79.9755 24.772C75.8355 24.772 75.6555 19.552 75.6555 16.528C75.6555 13.36 75.7635 10.228 75.7635 7.06C75.7635 6.556 75.1515 6.556 74.8275 6.556C74.1435 6.556 73.7115 6.592 73.1715 7.06C73.0275 7.204 72.8835 13.972 72.8835 14.8C72.8835 19.012 73.2795 27.364 79.1475 27.364C85.7355 27.364 86.8155 20.236 86.8155 15.088C86.8155 12.352 86.4915 9.652 86.4915 6.916C86.4915 6.448 86.4915 6.016 85.9875 5.8ZM82.1355 2.848C81.3795 1.876 80.9475 0.723999 79.5435 0.723999C79.3635 0.723999 79.1475 0.759999 78.9675 0.868C78.7155 0.975998 78.6075 1.3 78.4635 1.516C77.8515 2.632 76.4115 2.992 75.9435 4.216C76.1595 4.648 76.8075 5.26 77.2755 5.26C77.8875 5.26 79.3635 3.604 79.8315 3.136C80.1555 3.568 81.0915 5.08 81.6315 5.08C81.9915 5.08 83.4315 4.828 83.4315 4.396C83.4315 3.964 82.4595 3.136 82.1355 2.812V2.848ZM96.9793 17.428C96.7273 16.384 96.1513 15.412 96.1513 14.332C96.1513 14.008 96.2593 13.684 96.4753 13.432C96.7633 13.18 97.4833 13.036 97.8793 12.856C99.1393 12.136 100.039 9.58 100.039 8.176C100.039 4.684 96.1873 2.992 93.1633 2.992C92.3713 2.992 91.6153 3.136 91.6153 4.072C91.6153 4.792 91.7953 5.476 91.7953 6.196C91.7953 9.004 91.6873 11.848 91.6873 14.656C91.6873 19.624 91.7593 24.628 91.7593 29.596C91.7593 31.144 91.7593 31.252 93.3433 31.252C94.0273 31.252 94.3873 31.108 94.3873 30.352V24.232C94.3873 21.244 94.0993 18.256 94.0993 15.268C94.0993 14.98 94.0993 14.656 94.1713 14.368C94.7833 15.628 97.0873 25.24 97.3753 27.076C97.4833 27.544 97.5913 29.704 98.2393 29.704C98.7793 29.704 100.111 29.308 100.111 28.624C100.111 27.976 99.7153 27.328 99.4993 26.716C98.3833 23.728 97.6633 20.524 96.9793 17.428ZM94.2793 11.2V9.292C94.2793 8.32 94.0633 7.384 94.0633 6.448C94.0633 5.872 94.3153 5.188 94.9633 5.188C96.3673 5.188 97.5553 6.844 97.5553 8.14C97.5553 8.752 97.3753 9.328 97.0153 9.832C96.6913 10.3 95.1073 11.488 94.5313 11.488C94.3873 11.488 94.2793 11.38 94.2793 11.2ZM114.894 27.508C114.462 27.508 114.102 27.832 114.102 28.264C114.066 29.236 114.03 30.244 114.03 31.252C114.03 31.396 113.994 31.828 114.102 31.972C114.282 32.224 115.578 32.26 115.902 32.26C116.334 32.26 116.658 31.936 116.658 31.504C116.658 30.46 116.658 29.38 116.622 28.3C116.622 27.904 116.334 27.616 115.902 27.58C115.578 27.544 115.218 27.544 114.894 27.508ZM113.742 5.152C114.102 8.428 113.994 12.244 114.102 15.592C114.102 16.348 114.102 17.104 114.102 17.896C114.102 19.696 114.03 21.496 114.03 23.296C114.03 23.476 113.994 23.872 114.102 24.052C114.246 24.304 115.614 24.34 115.902 24.34C116.334 24.34 116.658 24.016 116.658 23.584C116.658 18.256 116.514 12.892 116.514 7.564C116.514 6.376 116.658 5.224 116.658 4.036C116.658 3.496 116.622 2.992 116.55 2.452C116.442 1.804 116.622 1.552 115.794 1.552C115.398 1.552 113.634 1.588 113.49 2.056C113.562 2.2 113.454 2.74 113.454 2.956C113.454 3.676 113.634 4.432 113.742 5.152Z" fill="white"/>
</svg>
