<svg width="18" height="268" viewBox="0 0 18 268" fill="none" xmlns="http://www.w3.org/2000/svg">
    <path d="M9 5L9 206" stroke="#FFCDB6" stroke-width="2"/>
    <circle cx="9" cy="206" r="9" transform="rotate(90 9 206)" fill="#025949"/>
    <circle cx="9" cy="166" r="9" transform="rotate(90 9 166)" fill="#04D99D"/>
    <circle cx="9" cy="126" r="9" transform="rotate(90 9 126)" fill="#04D99D"/>
    <circle cx="9" cy="87" r="9" transform="rotate(90 9 87)" fill="#04D99D"/>
    <circle cx="9" cy="9" r="9" transform="rotate(90 9 9)" fill="#04D99D"/>
    <path d="M12 266.771C12 266.924 11.9367 267.034 11.81 267.101C11.6833 267.167 11.56 267.174 11.44 267.121L4.46 264.181C4.28 264.107 4.19 263.981 4.19 263.801C4.19 263.627 4.28 263.504 4.46 263.431L11.45 260.481C11.5767 260.421 11.7 260.431 11.82 260.511C11.94 260.584 12 260.691 12 260.831C12 260.911 11.98 260.984 11.94 261.051C11.9 261.111 11.84 261.161 11.76 261.201L5.09 263.951L5.09 263.641L11.76 266.411C11.84 266.444 11.9 266.494 11.94 266.561C11.98 266.621 12 266.691 12 266.771ZM10.14 266.111L9.47 265.811L9.47 261.751L10.14 261.451L10.14 266.111ZM12.05 257.165C12.05 257.692 11.93 258.162 11.69 258.575C11.4433 258.982 11.11 259.305 10.69 259.545C10.27 259.778 9.79667 259.895 9.27 259.895C8.73667 259.895 8.26 259.782 7.84 259.555C7.42 259.328 7.09 259.018 6.85 258.625C6.60333 258.232 6.48 257.778 6.48 257.265C6.48 256.858 6.56 256.485 6.72 256.145C6.88 255.798 7.12 255.495 7.44 255.235C7.52 255.162 7.60667 255.135 7.7 255.155C7.78667 255.175 7.86333 255.232 7.93 255.325C7.98333 255.398 8.00333 255.482 7.99 255.575C7.97 255.662 7.92 255.738 7.84 255.805C7.4 256.192 7.18 256.678 7.18 257.265C7.18 257.638 7.27 257.968 7.45 258.255C7.63 258.535 7.87667 258.755 8.19 258.915C8.50333 259.068 8.86333 259.145 9.27 259.145C9.67 259.145 10.0267 259.062 10.34 258.895C10.6533 258.728 10.9 258.495 11.08 258.195C11.26 257.895 11.35 257.552 11.35 257.165C11.35 256.905 11.3167 256.668 11.25 256.455C11.1767 256.235 11.0667 256.042 10.92 255.875C10.8533 255.795 10.8167 255.712 10.81 255.625C10.8033 255.538 10.83 255.458 10.89 255.385C10.9633 255.305 11.0467 255.262 11.14 255.255C11.2333 255.242 11.3133 255.272 11.38 255.345C11.8267 255.832 12.05 256.438 12.05 257.165ZM12 251.508C12 251.861 11.9167 252.178 11.75 252.458C11.5833 252.731 11.3567 252.948 11.07 253.108C10.7767 253.268 10.4433 253.348 10.07 253.348L5.18 253.348C5.06667 253.348 4.97333 253.315 4.9 253.248C4.82667 253.175 4.79 253.081 4.79 252.968C4.79 252.855 4.82667 252.761 4.9 252.688C4.97333 252.615 5.06667 252.578 5.18 252.578L10.07 252.578C10.41 252.578 10.69 252.478 10.91 252.278C11.1233 252.078 11.23 251.821 11.23 251.508L11.23 251.238C11.23 251.131 11.2667 251.045 11.34 250.978C11.4133 250.911 11.5067 250.878 11.62 250.878C11.7333 250.878 11.8267 250.918 11.9 250.998C11.9667 251.078 12 251.178 12 251.298L12 251.508ZM7.4 253.998C7.4 254.098 7.37 254.181 7.31 254.248C7.24333 254.315 7.16333 254.348 7.07 254.348C6.97 254.348 6.89 254.315 6.83 254.248C6.76333 254.181 6.73 254.098 6.73 253.998L6.73 251.448C6.73 251.348 6.76333 251.265 6.83 251.198C6.89 251.131 6.97 251.098 7.07 251.098C7.16333 251.098 7.24333 251.131 7.31 251.198C7.37 251.265 7.4 251.348 7.4 251.448L7.4 253.998ZM12 249.074C12 249.194 11.9667 249.291 11.9 249.364C11.8267 249.431 11.73 249.464 11.61 249.464L6.92 249.464C6.8 249.464 6.70667 249.431 6.64 249.364C6.56667 249.291 6.53 249.194 6.53 249.074C6.53 248.961 6.56667 248.871 6.64 248.804C6.70667 248.731 6.8 248.694 6.92 248.694L11.61 248.694C11.73 248.694 11.8267 248.731 11.9 248.804C11.9667 248.871 12 248.961 12 249.074ZM5.49 249.084C5.49 249.231 5.43667 249.358 5.33 249.464C5.22333 249.571 5.09333 249.624 4.94 249.624C4.77333 249.624 4.64333 249.571 4.55 249.464C4.45 249.351 4.4 249.221 4.4 249.074C4.4 248.934 4.45 248.811 4.55 248.704C4.64333 248.591 4.77333 248.534 4.94 248.534C5.09333 248.534 5.22333 248.588 5.33 248.694C5.43667 248.801 5.49 248.931 5.49 249.084ZM12 244.864C12 245.024 11.9133 245.144 11.74 245.224L7.03 247.444C6.94333 247.484 6.85667 247.487 6.77 247.454C6.68333 247.42 6.61667 247.354 6.57 247.254C6.52333 247.16 6.51667 247.07 6.55 246.984C6.58333 246.897 6.64333 246.83 6.73 246.784L11.34 244.654L11.34 245.064L6.73 242.964C6.63667 242.924 6.57667 242.857 6.55 242.764C6.51667 242.664 6.52 242.567 6.56 242.474C6.60667 242.38 6.67667 242.317 6.77 242.284C6.85667 242.25 6.94 242.254 7.02 242.294L11.74 244.484C11.9133 244.564 12 244.69 12 244.864ZM12 240.656C12 240.776 11.9667 240.873 11.9 240.946C11.8267 241.013 11.73 241.046 11.61 241.046L6.92 241.046C6.8 241.046 6.70667 241.013 6.64 240.946C6.56667 240.873 6.53 240.776 6.53 240.656C6.53 240.543 6.56667 240.453 6.64 240.386C6.70667 240.313 6.8 240.276 6.92 240.276L11.61 240.276C11.73 240.276 11.8267 240.313 11.9 240.386C11.9667 240.453 12 240.543 12 240.656ZM5.49 240.666C5.49 240.813 5.43667 240.94 5.33 241.046C5.22333 241.153 5.09333 241.206 4.94 241.206C4.77333 241.206 4.64333 241.153 4.55 241.046C4.45 240.933 4.4 240.803 4.4 240.656C4.4 240.516 4.45 240.393 4.55 240.286C4.64333 240.173 4.77333 240.116 4.94 240.116C5.09333 240.116 5.22333 240.17 5.33 240.276C5.43667 240.383 5.49 240.513 5.49 240.666ZM12 236.176C12 236.529 11.9167 236.846 11.75 237.126C11.5833 237.399 11.3567 237.616 11.07 237.776C10.7767 237.936 10.4433 238.016 10.07 238.016L5.18 238.016C5.06667 238.016 4.97333 237.982 4.9 237.916C4.82667 237.842 4.79 237.749 4.79 237.636C4.79 237.522 4.82667 237.429 4.9 237.356C4.97333 237.282 5.06667 237.246 5.18 237.246L10.07 237.246C10.41 237.246 10.69 237.146 10.91 236.946C11.1233 236.746 11.23 236.489 11.23 236.176L11.23 235.906C11.23 235.799 11.2667 235.712 11.34 235.646C11.4133 235.579 11.5067 235.546 11.62 235.546C11.7333 235.546 11.8267 235.586 11.9 235.666C11.9667 235.746 12 235.846 12 235.966L12 236.176ZM7.4 238.666C7.4 238.766 7.37 238.849 7.31 238.916C7.24333 238.982 7.16333 239.016 7.07 239.016C6.97 239.016 6.89 238.982 6.83 238.916C6.76333 238.849 6.73 238.766 6.73 238.666L6.73 236.116C6.73 236.016 6.76333 235.932 6.83 235.866C6.89 235.799 6.97 235.766 7.07 235.766C7.16333 235.766 7.24333 235.799 7.31 235.866C7.37 235.932 7.4 236.016 7.4 236.116L7.4 238.666ZM12.05 231.812C12.05 232.352 11.9333 232.832 11.7 233.252C11.46 233.666 11.13 233.992 10.71 234.232C10.29 234.466 9.81 234.582 9.27 234.582C8.72333 234.582 8.24333 234.472 7.83 234.252C7.41 234.026 7.08 233.716 6.84 233.322C6.6 232.929 6.48 232.476 6.48 231.962C6.48 231.456 6.59667 231.016 6.83 230.642C7.05667 230.262 7.37333 229.969 7.78 229.762C8.18667 229.556 8.65 229.452 9.17 229.452C9.27667 229.452 9.36333 229.486 9.43 229.552C9.49 229.619 9.52 229.706 9.52 229.812L9.52 234.062L8.88 234.062L8.88 229.732L9.19 230.162C8.80333 230.156 8.45667 230.226 8.15 230.372C7.84333 230.519 7.60333 230.729 7.43 231.002C7.25667 231.269 7.17 231.589 7.17 231.962C7.17 232.342 7.26 232.676 7.44 232.962C7.62 233.249 7.87 233.472 8.19 233.632C8.50333 233.786 8.86333 233.862 9.27 233.862C9.67667 233.862 10.0367 233.776 10.35 233.602C10.6633 233.422 10.91 233.179 11.09 232.872C11.27 232.566 11.36 232.212 11.36 231.812C11.36 231.572 11.32 231.332 11.24 231.092C11.1533 230.846 11.0467 230.649 10.92 230.502C10.86 230.429 10.83 230.346 10.83 230.252C10.8233 230.159 10.8467 230.079 10.9 230.012C10.98 229.926 11.0667 229.882 11.16 229.882C11.2533 229.876 11.3333 229.912 11.4 229.992C11.5867 230.212 11.7433 230.492 11.87 230.832C11.99 231.172 12.05 231.499 12.05 231.812ZM5.7 232.082C5.7 232.189 5.66333 232.282 5.59 232.362C5.51 232.436 5.41667 232.472 5.31 232.472C5.20333 232.472 5.11667 232.442 5.05 232.382L3.92 231.252C3.84667 231.179 3.81 231.089 3.81 230.982C3.81 230.869 3.85 230.776 3.93 230.702C4.00333 230.629 4.09667 230.592 4.21 230.592C4.25667 230.592 4.30333 230.602 4.35 230.622C4.39667 230.636 4.43667 230.662 4.47 230.702L5.6 231.822C5.66667 231.889 5.7 231.976 5.7 232.082ZM12.05 226.24C12.05 226.633 11.9833 227.023 11.85 227.41C11.7167 227.796 11.5167 228.11 11.25 228.35C11.17 228.423 11.08 228.453 10.98 228.44C10.88 228.426 10.7933 228.376 10.72 228.29C10.6533 228.196 10.6267 228.1 10.64 228C10.6533 227.9 10.6967 227.816 10.77 227.75C10.9567 227.59 11.1 227.38 11.2 227.12C11.3 226.853 11.35 226.56 11.35 226.24C11.35 225.746 11.2667 225.39 11.1 225.17C10.9267 224.95 10.72 224.836 10.48 224.83C10.24 224.83 10.0433 224.943 9.89 225.17C9.73 225.396 9.60667 225.77 9.52 226.29C9.41333 226.963 9.22667 227.456 8.96 227.77C8.69333 228.083 8.37667 228.24 8.01 228.24C7.67 228.24 7.38667 228.15 7.16 227.97C6.93333 227.79 6.76333 227.55 6.65 227.25C6.53667 226.95 6.48 226.62 6.48 226.26C6.48 225.813 6.55667 225.43 6.71 225.11C6.86333 224.783 7.07 224.52 7.33 224.32C7.41667 224.253 7.50667 224.226 7.6 224.24C7.69333 224.253 7.77 224.306 7.83 224.4C7.87667 224.48 7.89333 224.573 7.88 224.68C7.86 224.78 7.81 224.866 7.73 224.94C7.53667 225.106 7.39667 225.3 7.31 225.52C7.21667 225.74 7.17 225.993 7.17 226.28C7.17 226.646 7.24667 226.94 7.4 227.16C7.54667 227.38 7.73333 227.49 7.96 227.49C8.11333 227.49 8.24667 227.45 8.36 227.37C8.47333 227.283 8.57333 227.14 8.66 226.94C8.74667 226.733 8.82 226.446 8.88 226.08C8.96 225.58 9.08 225.186 9.24 224.9C9.39333 224.606 9.57667 224.4 9.79 224.28C9.99667 224.153 10.2233 224.09 10.47 224.09C10.7833 224.09 11.06 224.183 11.3 224.37C11.5333 224.55 11.7167 224.803 11.85 225.13C11.9833 225.45 12.05 225.82 12.05 226.24Z" fill="#45396D"/>
    <circle cx="9" cy="48" r="9" transform="rotate(90 9 48)" fill="#04D99D"/>
</svg>
