<svg width="1440" height="800" viewBox="0 0 1440 800" fill="none" xmlns="http://www.w3.org/2000/svg">
    <rect width="1440" height="800" fill="white"/>
    <path d="M469.076 682C468.668 682 468.332 681.868 468.068 681.604C467.804 681.34 467.672 681.004 467.672 680.596V655.288C467.672 654.88 467.804 654.544 468.068 654.28C468.332 654.016 468.668 653.884 469.076 653.884H475.808C477.56 653.884 479.12 654.256 480.488 655C481.856 655.72 482.924 656.74 483.692 658.06C484.484 659.356 484.88 660.856 484.88 662.56C484.88 664.192 484.484 665.644 483.692 666.916C482.924 668.188 481.856 669.184 480.488 669.904C479.12 670.624 477.56 670.984 475.808 670.984H470.48V680.596C470.48 681.004 470.348 681.34 470.084 681.604C469.82 681.868 469.484 682 469.076 682ZM484.124 682C483.812 682 483.56 681.94 483.368 681.82C483.2 681.7 483.044 681.52 482.9 681.28L475.988 670.264L478.796 669.544L485.24 679.84C485.6 680.416 485.66 680.92 485.42 681.352C485.204 681.784 484.772 682 484.124 682ZM470.48 668.284H475.808C477.032 668.284 478.112 668.044 479.048 667.564C480.008 667.06 480.764 666.376 481.316 665.512C481.868 664.648 482.144 663.664 482.144 662.56C482.144 661.384 481.868 660.352 481.316 659.464C480.764 658.552 480.008 657.844 479.048 657.34C478.112 656.836 477.032 656.584 475.808 656.584H470.48V668.284ZM498.494 682.18C496.55 682.18 494.822 681.76 493.31 680.92C491.822 680.056 490.646 678.868 489.782 677.356C488.942 675.844 488.522 674.116 488.522 672.172C488.522 670.204 488.918 668.476 489.71 666.988C490.526 665.476 491.642 664.288 493.058 663.424C494.474 662.56 496.106 662.128 497.954 662.128C499.778 662.128 501.362 662.548 502.706 663.388C504.074 664.204 505.13 665.344 505.874 666.808C506.618 668.272 506.99 669.94 506.99 671.812C506.99 672.196 506.87 672.508 506.63 672.748C506.39 672.964 506.078 673.072 505.694 673.072H490.394V670.768H505.982L504.434 671.884C504.458 670.492 504.206 669.244 503.678 668.14C503.15 667.036 502.394 666.172 501.41 665.548C500.45 664.924 499.298 664.612 497.954 664.612C496.586 664.612 495.386 664.936 494.354 665.584C493.322 666.232 492.518 667.132 491.942 668.284C491.39 669.412 491.114 670.708 491.114 672.172C491.114 673.636 491.426 674.932 492.05 676.06C492.698 677.188 493.574 678.076 494.678 678.724C495.782 679.372 497.054 679.696 498.494 679.696C499.358 679.696 500.222 679.552 501.086 679.264C501.974 678.952 502.682 678.568 503.21 678.112C503.474 677.896 503.774 677.788 504.11 677.788C504.446 677.764 504.734 677.848 504.974 678.04C505.286 678.328 505.442 678.64 505.442 678.976C505.466 679.312 505.334 679.6 505.046 679.84C504.254 680.512 503.246 681.076 502.022 681.532C500.798 681.964 499.622 682.18 498.494 682.18ZM519.76 682.18C517.864 682.18 516.172 681.748 514.684 680.884C513.22 679.996 512.056 678.796 511.192 677.284C510.352 675.772 509.932 674.068 509.932 672.172C509.932 670.252 510.34 668.536 511.156 667.024C511.972 665.512 513.088 664.324 514.504 663.46C515.92 662.572 517.552 662.128 519.4 662.128C520.864 662.128 522.208 662.416 523.432 662.992C524.68 663.568 525.772 664.432 526.708 665.584C526.972 665.872 527.068 666.184 526.996 666.52C526.924 666.832 526.72 667.108 526.384 667.348C526.12 667.54 525.82 667.612 525.484 667.564C525.172 667.492 524.896 667.312 524.656 667.024C523.264 665.44 521.512 664.648 519.4 664.648C518.056 664.648 516.868 664.972 515.836 665.62C514.828 666.268 514.036 667.156 513.46 668.284C512.908 669.412 512.632 670.708 512.632 672.172C512.632 673.612 512.932 674.896 513.532 676.024C514.132 677.152 514.972 678.04 516.052 678.688C517.132 679.336 518.368 679.66 519.76 679.66C520.696 679.66 521.548 679.54 522.316 679.3C523.108 679.036 523.804 678.64 524.404 678.112C524.692 677.872 524.992 677.74 525.304 677.716C525.616 677.692 525.904 677.788 526.168 678.004C526.456 678.268 526.612 678.568 526.636 678.904C526.684 679.24 526.576 679.528 526.312 679.768C524.56 681.376 522.376 682.18 519.76 682.18ZM549.306 682C548.898 682 548.562 681.868 548.298 681.604C548.034 681.34 547.902 681.016 547.902 680.632V671.272C547.902 669.784 547.614 668.56 547.038 667.6C546.486 666.64 545.718 665.92 544.734 665.44C543.774 664.96 542.682 664.72 541.458 664.72C540.282 664.72 539.214 664.948 538.254 665.404C537.318 665.86 536.574 666.484 536.022 667.276C535.47 668.068 535.194 668.968 535.194 669.976H533.214C533.262 668.464 533.67 667.12 534.438 665.944C535.206 664.744 536.226 663.808 537.498 663.136C538.77 662.44 540.186 662.092 541.746 662.092C543.45 662.092 544.974 662.452 546.318 663.172C547.662 663.868 548.718 664.9 549.486 666.268C550.278 667.636 550.674 669.304 550.674 671.272V680.632C550.674 681.016 550.542 681.34 550.278 681.604C550.014 681.868 549.69 682 549.306 682ZM533.826 682C533.394 682 533.046 681.88 532.782 681.64C532.542 681.376 532.422 681.04 532.422 680.632V663.712C532.422 663.28 532.542 662.944 532.782 662.704C533.046 662.44 533.394 662.308 533.826 662.308C534.234 662.308 534.558 662.44 534.798 662.704C535.062 662.944 535.194 663.28 535.194 663.712V680.632C535.194 681.04 535.062 681.376 534.798 681.64C534.558 681.88 534.234 682 533.826 682ZM533.826 673.972C533.394 673.972 533.046 673.84 532.782 673.576C532.542 673.312 532.422 672.976 532.422 672.568V655.288C532.422 654.856 532.542 654.52 532.782 654.28C533.046 654.016 533.394 653.884 533.826 653.884C534.234 653.884 534.558 654.016 534.798 654.28C535.062 654.52 535.194 654.856 535.194 655.288V672.568C535.194 672.976 535.062 673.312 534.798 673.576C534.558 673.84 534.234 673.972 533.826 673.972ZM565.713 682.18C563.769 682.18 562.041 681.76 560.529 680.92C559.041 680.056 557.865 678.868 557.001 677.356C556.161 675.844 555.741 674.116 555.741 672.172C555.741 670.204 556.137 668.476 556.929 666.988C557.745 665.476 558.861 664.288 560.277 663.424C561.693 662.56 563.325 662.128 565.173 662.128C566.997 662.128 568.581 662.548 569.925 663.388C571.293 664.204 572.349 665.344 573.093 666.808C573.837 668.272 574.209 669.94 574.209 671.812C574.209 672.196 574.089 672.508 573.849 672.748C573.609 672.964 573.297 673.072 572.913 673.072H557.613V670.768H573.201L571.653 671.884C571.677 670.492 571.425 669.244 570.897 668.14C570.369 667.036 569.613 666.172 568.629 665.548C567.669 664.924 566.517 664.612 565.173 664.612C563.805 664.612 562.605 664.936 561.573 665.584C560.541 666.232 559.737 667.132 559.161 668.284C558.609 669.412 558.333 670.708 558.333 672.172C558.333 673.636 558.645 674.932 559.269 676.06C559.917 677.188 560.793 678.076 561.897 678.724C563.001 679.372 564.273 679.696 565.713 679.696C566.577 679.696 567.441 679.552 568.305 679.264C569.193 678.952 569.901 678.568 570.429 678.112C570.693 677.896 570.993 677.788 571.329 677.788C571.665 677.764 571.953 677.848 572.193 678.04C572.505 678.328 572.661 678.64 572.661 678.976C572.685 679.312 572.553 679.6 572.265 679.84C571.473 680.512 570.465 681.076 569.241 681.532C568.017 681.964 566.841 682.18 565.713 682.18ZM580.05 669.868C580.122 668.38 580.506 667.048 581.202 665.872C581.922 664.696 582.846 663.772 583.974 663.1C585.126 662.428 586.398 662.092 587.79 662.092C588.894 662.092 589.746 662.248 590.346 662.56C590.946 662.872 591.174 663.328 591.03 663.928C590.934 664.288 590.766 664.528 590.526 664.648C590.31 664.768 590.034 664.816 589.698 664.792C589.386 664.768 589.026 664.744 588.618 664.72C587.274 664.6 586.074 664.744 585.018 665.152C583.986 665.536 583.158 666.136 582.534 666.952C581.934 667.768 581.634 668.74 581.634 669.868H580.05ZM580.266 682C579.834 682 579.498 681.88 579.258 681.64C579.018 681.4 578.898 681.064 578.898 680.632V663.676C578.898 663.244 579.018 662.908 579.258 662.668C579.498 662.428 579.834 662.308 580.266 662.308C580.698 662.308 581.034 662.428 581.274 662.668C581.514 662.908 581.634 663.244 581.634 663.676V680.632C581.634 681.064 581.514 681.4 581.274 681.64C581.034 681.88 580.698 682 580.266 682ZM602.729 682.18C600.833 682.18 599.141 681.748 597.653 680.884C596.189 679.996 595.025 678.796 594.161 677.284C593.321 675.772 592.901 674.068 592.901 672.172C592.901 670.252 593.309 668.536 594.125 667.024C594.941 665.512 596.057 664.324 597.473 663.46C598.889 662.572 600.521 662.128 602.369 662.128C603.833 662.128 605.177 662.416 606.401 662.992C607.649 663.568 608.741 664.432 609.677 665.584C609.941 665.872 610.037 666.184 609.965 666.52C609.893 666.832 609.689 667.108 609.353 667.348C609.089 667.54 608.789 667.612 608.453 667.564C608.141 667.492 607.865 667.312 607.625 667.024C606.233 665.44 604.481 664.648 602.369 664.648C601.025 664.648 599.837 664.972 598.805 665.62C597.797 666.268 597.005 667.156 596.429 668.284C595.877 669.412 595.601 670.708 595.601 672.172C595.601 673.612 595.901 674.896 596.501 676.024C597.101 677.152 597.941 678.04 599.021 678.688C600.101 679.336 601.337 679.66 602.729 679.66C603.665 679.66 604.517 679.54 605.285 679.3C606.077 679.036 606.773 678.64 607.373 678.112C607.661 677.872 607.961 677.74 608.273 677.716C608.585 677.692 608.873 677.788 609.137 678.004C609.425 678.268 609.581 678.568 609.605 678.904C609.653 679.24 609.545 679.528 609.281 679.768C607.529 681.376 605.345 682.18 602.729 682.18ZM632.274 682C631.866 682 631.53 681.868 631.266 681.604C631.002 681.34 630.87 681.016 630.87 680.632V671.272C630.87 669.784 630.582 668.56 630.006 667.6C629.454 666.64 628.686 665.92 627.702 665.44C626.742 664.96 625.65 664.72 624.426 664.72C623.25 664.72 622.182 664.948 621.222 665.404C620.286 665.86 619.542 666.484 618.99 667.276C618.438 668.068 618.162 668.968 618.162 669.976H616.182C616.23 668.464 616.638 667.12 617.406 665.944C618.174 664.744 619.194 663.808 620.466 663.136C621.738 662.44 623.154 662.092 624.714 662.092C626.418 662.092 627.942 662.452 629.286 663.172C630.63 663.868 631.686 664.9 632.454 666.268C633.246 667.636 633.642 669.304 633.642 671.272V680.632C633.642 681.016 633.51 681.34 633.246 681.604C632.982 681.868 632.658 682 632.274 682ZM616.794 682C616.362 682 616.014 681.88 615.75 681.64C615.51 681.376 615.39 681.04 615.39 680.632V663.712C615.39 663.28 615.51 662.944 615.75 662.704C616.014 662.44 616.362 662.308 616.794 662.308C617.202 662.308 617.526 662.44 617.766 662.704C618.03 662.944 618.162 663.28 618.162 663.712V680.632C618.162 681.04 618.03 681.376 617.766 681.64C617.526 681.88 617.202 682 616.794 682ZM616.794 673.972C616.362 673.972 616.014 673.84 615.75 673.576C615.51 673.312 615.39 672.976 615.39 672.568V655.288C615.39 654.856 615.51 654.52 615.75 654.28C616.014 654.016 616.362 653.884 616.794 653.884C617.202 653.884 617.526 654.016 617.766 654.28C618.03 654.52 618.162 654.856 618.162 655.288V672.568C618.162 672.976 618.03 673.312 617.766 673.576C617.526 673.84 617.202 673.972 616.794 673.972ZM648.682 682.18C646.738 682.18 645.01 681.76 643.498 680.92C642.01 680.056 640.834 678.868 639.97 677.356C639.13 675.844 638.71 674.116 638.71 672.172C638.71 670.204 639.106 668.476 639.898 666.988C640.714 665.476 641.83 664.288 643.246 663.424C644.662 662.56 646.294 662.128 648.142 662.128C649.966 662.128 651.55 662.548 652.894 663.388C654.262 664.204 655.318 665.344 656.062 666.808C656.806 668.272 657.178 669.94 657.178 671.812C657.178 672.196 657.058 672.508 656.818 672.748C656.578 672.964 656.266 673.072 655.882 673.072H640.582V670.768H656.17L654.622 671.884C654.646 670.492 654.394 669.244 653.866 668.14C653.338 667.036 652.582 666.172 651.598 665.548C650.638 664.924 649.486 664.612 648.142 664.612C646.774 664.612 645.574 664.936 644.542 665.584C643.51 666.232 642.706 667.132 642.13 668.284C641.578 669.412 641.302 670.708 641.302 672.172C641.302 673.636 641.614 674.932 642.238 676.06C642.886 677.188 643.762 678.076 644.866 678.724C645.97 679.372 647.242 679.696 648.682 679.696C649.546 679.696 650.41 679.552 651.274 679.264C652.162 678.952 652.87 678.568 653.398 678.112C653.662 677.896 653.962 677.788 654.298 677.788C654.634 677.764 654.922 677.848 655.162 678.04C655.474 678.328 655.63 678.64 655.63 678.976C655.654 679.312 655.522 679.6 655.234 679.84C654.442 680.512 653.434 681.076 652.21 681.532C650.986 681.964 649.81 682.18 648.682 682.18ZM681.378 682.18C679.482 682.18 677.778 681.748 676.266 680.884C674.754 679.996 673.554 678.796 672.666 677.284C671.802 675.772 671.37 674.056 671.37 672.136C671.37 670.24 671.79 668.536 672.63 667.024C673.494 665.512 674.658 664.324 676.122 663.46C677.586 662.572 679.242 662.128 681.09 662.128C682.698 662.128 684.15 662.476 685.446 663.172C686.742 663.844 687.786 664.744 688.578 665.872V655.288C688.578 654.856 688.71 654.52 688.974 654.28C689.238 654.016 689.574 653.884 689.982 653.884C690.39 653.884 690.726 654.016 690.99 654.28C691.254 654.52 691.386 654.856 691.386 655.288V672.28C691.338 674.152 690.87 675.844 689.982 677.356C689.118 678.844 687.93 680.02 686.418 680.884C684.93 681.748 683.25 682.18 681.378 682.18ZM681.378 679.66C682.77 679.66 684.006 679.336 685.086 678.688C686.19 678.016 687.054 677.116 687.678 675.988C688.326 674.86 688.65 673.576 688.65 672.136C688.65 670.72 688.326 669.448 687.678 668.32C687.054 667.168 686.19 666.268 685.086 665.62C684.006 664.972 682.77 664.648 681.378 664.648C680.01 664.648 678.774 664.972 677.67 665.62C676.566 666.268 675.69 667.168 675.042 668.32C674.394 669.448 674.07 670.72 674.07 672.136C674.07 673.576 674.394 674.86 675.042 675.988C675.69 677.116 676.566 678.016 677.67 678.688C678.774 679.336 680.01 679.66 681.378 679.66ZM706.795 682.18C704.851 682.18 703.123 681.76 701.611 680.92C700.123 680.056 698.947 678.868 698.083 677.356C697.243 675.844 696.823 674.116 696.823 672.172C696.823 670.204 697.219 668.476 698.011 666.988C698.827 665.476 699.943 664.288 701.359 663.424C702.775 662.56 704.407 662.128 706.255 662.128C708.079 662.128 709.663 662.548 711.007 663.388C712.375 664.204 713.431 665.344 714.175 666.808C714.919 668.272 715.291 669.94 715.291 671.812C715.291 672.196 715.171 672.508 714.931 672.748C714.691 672.964 714.379 673.072 713.995 673.072H698.695V670.768H714.283L712.735 671.884C712.759 670.492 712.507 669.244 711.979 668.14C711.451 667.036 710.695 666.172 709.711 665.548C708.751 664.924 707.599 664.612 706.255 664.612C704.887 664.612 703.687 664.936 702.655 665.584C701.623 666.232 700.819 667.132 700.243 668.284C699.691 669.412 699.415 670.708 699.415 672.172C699.415 673.636 699.727 674.932 700.351 676.06C700.999 677.188 701.875 678.076 702.979 678.724C704.083 679.372 705.355 679.696 706.795 679.696C707.659 679.696 708.523 679.552 709.387 679.264C710.275 678.952 710.983 678.568 711.511 678.112C711.775 677.896 712.075 677.788 712.411 677.788C712.747 677.764 713.035 677.848 713.275 678.04C713.587 678.328 713.743 678.64 713.743 678.976C713.767 679.312 713.635 679.6 713.347 679.84C712.555 680.512 711.547 681.076 710.323 681.532C709.099 681.964 707.923 682.18 706.795 682.18ZM739.311 682.18C737.415 682.18 735.723 681.748 734.235 680.884C732.771 679.996 731.607 678.796 730.743 677.284C729.903 675.772 729.483 674.068 729.483 672.172C729.483 670.252 729.891 668.536 730.707 667.024C731.523 665.512 732.639 664.324 734.055 663.46C735.471 662.572 737.103 662.128 738.951 662.128C740.415 662.128 741.759 662.416 742.983 662.992C744.231 663.568 745.323 664.432 746.259 665.584C746.523 665.872 746.619 666.184 746.547 666.52C746.475 666.832 746.271 667.108 745.935 667.348C745.671 667.54 745.371 667.612 745.035 667.564C744.723 667.492 744.447 667.312 744.207 667.024C742.815 665.44 741.063 664.648 738.951 664.648C737.607 664.648 736.419 664.972 735.387 665.62C734.379 666.268 733.587 667.156 733.011 668.284C732.459 669.412 732.183 670.708 732.183 672.172C732.183 673.612 732.483 674.896 733.083 676.024C733.683 677.152 734.523 678.04 735.603 678.688C736.683 679.336 737.919 679.66 739.311 679.66C740.247 679.66 741.099 679.54 741.867 679.3C742.659 679.036 743.355 678.64 743.955 678.112C744.243 677.872 744.543 677.74 744.855 677.716C745.167 677.692 745.455 677.788 745.719 678.004C746.007 678.268 746.163 678.568 746.187 678.904C746.235 679.24 746.127 679.528 745.863 679.768C744.111 681.376 741.927 682.18 739.311 682.18ZM760.936 682.18C759.016 682.18 757.3 681.748 755.788 680.884C754.276 680.02 753.088 678.832 752.224 677.32C751.36 675.808 750.928 674.092 750.928 672.172C750.928 670.228 751.36 668.5 752.224 666.988C753.088 665.476 754.276 664.288 755.788 663.424C757.3 662.56 759.016 662.128 760.936 662.128C762.856 662.128 764.56 662.56 766.048 663.424C767.56 664.288 768.748 665.476 769.612 666.988C770.476 668.5 770.92 670.228 770.944 672.172C770.944 674.092 770.5 675.808 769.612 677.32C768.748 678.832 767.56 680.02 766.048 680.884C764.56 681.748 762.856 682.18 760.936 682.18ZM760.936 679.66C762.328 679.66 763.576 679.336 764.68 678.688C765.784 678.04 766.648 677.152 767.272 676.024C767.896 674.896 768.208 673.612 768.208 672.172C768.208 670.732 767.896 669.448 767.272 668.32C766.648 667.168 765.784 666.268 764.68 665.62C763.576 664.972 762.328 664.648 760.936 664.648C759.544 664.648 758.296 664.972 757.192 665.62C756.088 666.268 755.212 667.168 754.564 668.32C753.94 669.448 753.628 670.732 753.628 672.172C753.628 673.612 753.94 674.896 754.564 676.024C755.212 677.152 756.088 678.04 757.192 678.688C758.296 679.336 759.544 679.66 760.936 679.66ZM802.94 682C802.532 682 802.196 681.88 801.932 681.64C801.668 681.376 801.536 681.04 801.536 680.632V670.264C801.536 668.56 801.092 667.216 800.204 666.232C799.316 665.224 798.176 664.72 796.784 664.72C795.296 664.72 794.072 665.224 793.112 666.232C792.176 667.216 791.72 668.536 791.744 670.192H789.26C789.284 668.584 789.632 667.168 790.304 665.944C790.976 664.72 791.9 663.772 793.076 663.1C794.252 662.428 795.584 662.092 797.072 662.092C798.488 662.092 799.736 662.428 800.816 663.1C801.92 663.772 802.772 664.72 803.372 665.944C803.996 667.168 804.308 668.608 804.308 670.264V680.632C804.308 681.04 804.176 681.376 803.912 681.64C803.672 681.88 803.348 682 802.94 682ZM777.74 682C777.308 682 776.96 681.88 776.696 681.64C776.456 681.376 776.336 681.04 776.336 680.632V663.712C776.336 663.304 776.456 662.968 776.696 662.704C776.96 662.44 777.308 662.308 777.74 662.308C778.148 662.308 778.472 662.44 778.712 662.704C778.976 662.968 779.108 663.304 779.108 663.712V680.632C779.108 681.04 778.976 681.376 778.712 681.64C778.472 681.88 778.148 682 777.74 682ZM790.376 682C789.968 682 789.632 681.88 789.368 681.64C789.104 681.376 788.972 681.04 788.972 680.632V670.264C788.972 668.56 788.528 667.216 787.64 666.232C786.752 665.224 785.612 664.72 784.22 664.72C782.732 664.72 781.508 665.212 780.548 666.196C779.588 667.156 779.108 668.416 779.108 669.976H777.128C777.176 668.44 777.512 667.084 778.136 665.908C778.784 664.708 779.66 663.772 780.764 663.1C781.868 662.428 783.116 662.092 784.508 662.092C785.924 662.092 787.172 662.428 788.252 663.1C789.356 663.772 790.208 664.72 790.808 665.944C791.432 667.168 791.744 668.608 791.744 670.264V680.632C791.744 681.04 791.612 681.376 791.348 681.64C791.108 681.88 790.784 682 790.376 682ZM811.841 690.424C811.409 690.424 811.061 690.292 810.797 690.028C810.557 689.788 810.437 689.452 810.437 689.02V672.028C810.461 670.156 810.905 668.476 811.769 666.988C812.657 665.476 813.845 664.288 815.333 663.424C816.845 662.56 818.537 662.128 820.409 662.128C822.329 662.128 824.045 662.572 825.557 663.46C827.069 664.324 828.257 665.512 829.121 667.024C830.009 668.536 830.453 670.252 830.453 672.172C830.453 674.068 830.021 675.772 829.157 677.284C828.317 678.796 827.165 679.996 825.701 680.884C824.237 681.748 822.581 682.18 820.733 682.18C819.125 682.18 817.661 681.844 816.341 681.172C815.045 680.476 814.001 679.564 813.209 678.436V689.02C813.209 689.452 813.077 689.788 812.813 690.028C812.573 690.292 812.249 690.424 811.841 690.424ZM820.409 679.66C821.801 679.66 823.049 679.336 824.153 678.688C825.257 678.04 826.121 677.152 826.745 676.024C827.393 674.872 827.717 673.588 827.717 672.172C827.717 670.732 827.393 669.448 826.745 668.32C826.121 667.192 825.257 666.304 824.153 665.656C823.049 664.984 821.801 664.648 820.409 664.648C819.041 664.648 817.805 664.984 816.701 665.656C815.597 666.304 814.733 667.192 814.109 668.32C813.485 669.448 813.173 670.732 813.173 672.172C813.173 673.588 813.485 674.872 814.109 676.024C814.733 677.152 815.597 678.04 816.701 678.688C817.805 679.336 819.041 679.66 820.409 679.66ZM844.566 682.18C842.718 682.18 841.062 681.748 839.598 680.884C838.134 679.996 836.97 678.796 836.106 677.284C835.266 675.772 834.846 674.068 834.846 672.172C834.846 670.252 835.278 668.536 836.142 667.024C837.03 665.512 838.23 664.324 839.742 663.46C841.254 662.572 842.958 662.128 844.854 662.128C846.75 662.128 848.442 662.572 849.93 663.46C851.442 664.324 852.63 665.512 853.494 667.024C854.382 668.536 854.838 670.252 854.862 672.172L853.746 673.036C853.746 674.764 853.338 676.324 852.522 677.716C851.73 679.084 850.638 680.176 849.246 680.992C847.878 681.784 846.318 682.18 844.566 682.18ZM844.854 679.66C846.246 679.66 847.482 679.336 848.562 678.688C849.666 678.04 850.53 677.152 851.154 676.024C851.802 674.872 852.126 673.588 852.126 672.172C852.126 670.732 851.802 669.448 851.154 668.32C850.53 667.192 849.666 666.304 848.562 665.656C847.482 664.984 846.246 664.648 844.854 664.648C843.486 664.648 842.25 664.984 841.146 665.656C840.042 666.304 839.166 667.192 838.518 668.32C837.87 669.448 837.546 670.732 837.546 672.172C837.546 673.588 837.87 674.872 838.518 676.024C839.166 677.152 840.042 678.04 841.146 678.688C842.25 679.336 843.486 679.66 844.854 679.66ZM853.458 682C853.05 682 852.714 681.88 852.45 681.64C852.186 681.376 852.054 681.04 852.054 680.632V674.476L852.738 671.632L854.862 672.172V680.632C854.862 681.04 854.73 681.376 854.466 681.64C854.202 681.88 853.866 682 853.458 682ZM867.958 682C866.686 682 865.546 681.7 864.538 681.1C863.554 680.5 862.774 679.684 862.198 678.652C861.622 677.596 861.334 676.396 861.334 675.052V657.448C861.334 657.04 861.454 656.704 861.694 656.44C861.958 656.176 862.294 656.044 862.702 656.044C863.11 656.044 863.446 656.176 863.71 656.44C863.974 656.704 864.106 657.04 864.106 657.448V675.052C864.106 676.276 864.466 677.284 865.186 678.076C865.906 678.844 866.83 679.228 867.958 679.228H868.93C869.314 679.228 869.626 679.36 869.866 679.624C870.106 679.888 870.226 680.224 870.226 680.632C870.226 681.04 870.082 681.376 869.794 681.64C869.506 681.88 869.146 682 868.714 682H867.958ZM858.994 665.44C858.634 665.44 858.334 665.332 858.094 665.116C857.854 664.876 857.734 664.588 857.734 664.252C857.734 663.892 857.854 663.604 858.094 663.388C858.334 663.148 858.634 663.028 858.994 663.028H868.174C868.534 663.028 868.834 663.148 869.074 663.388C869.314 663.604 869.434 663.892 869.434 664.252C869.434 664.588 869.314 664.876 869.074 665.116C868.834 665.332 868.534 665.44 868.174 665.44H858.994ZM876.718 682C876.286 682 875.938 681.88 875.674 681.64C875.434 681.376 875.314 681.028 875.314 680.596V663.712C875.314 663.28 875.434 662.944 875.674 662.704C875.938 662.44 876.286 662.308 876.718 662.308C877.126 662.308 877.45 662.44 877.69 662.704C877.954 662.944 878.086 663.28 878.086 663.712V680.596C878.086 681.028 877.954 681.376 877.69 681.64C877.45 681.88 877.126 682 876.718 682ZM876.682 658.564C876.154 658.564 875.698 658.372 875.314 657.988C874.93 657.604 874.738 657.136 874.738 656.584C874.738 655.984 874.93 655.516 875.314 655.18C875.722 654.82 876.19 654.64 876.718 654.64C877.222 654.64 877.666 654.82 878.05 655.18C878.458 655.516 878.662 655.984 878.662 656.584C878.662 657.136 878.47 657.604 878.086 657.988C877.702 658.372 877.234 658.564 876.682 658.564ZM895.116 682.18C893.244 682.18 891.552 681.748 890.04 680.884C888.552 680.02 887.364 678.844 886.476 677.356C885.612 675.844 885.168 674.152 885.144 672.28V655.288C885.144 654.856 885.264 654.52 885.504 654.28C885.768 654.016 886.116 653.884 886.548 653.884C886.956 653.884 887.28 654.016 887.52 654.28C887.784 654.52 887.916 654.856 887.916 655.288V665.872C888.708 664.744 889.752 663.844 891.048 663.172C892.368 662.476 893.832 662.128 895.44 662.128C897.288 662.128 898.944 662.572 900.408 663.46C901.872 664.324 903.024 665.512 903.864 667.024C904.728 668.536 905.16 670.24 905.16 672.136C905.16 674.056 904.716 675.772 903.828 677.284C902.964 678.796 901.776 679.996 900.264 680.884C898.752 681.748 897.036 682.18 895.116 682.18ZM895.116 679.66C896.508 679.66 897.756 679.336 898.86 678.688C899.964 678.016 900.828 677.116 901.452 675.988C902.1 674.86 902.424 673.576 902.424 672.136C902.424 670.72 902.1 669.448 901.452 668.32C900.828 667.168 899.964 666.268 898.86 665.62C897.756 664.972 896.508 664.648 895.116 664.648C893.748 664.648 892.512 664.972 891.408 665.62C890.304 666.268 889.44 667.168 888.816 668.32C888.192 669.448 887.88 670.72 887.88 672.136C887.88 673.576 888.192 674.86 888.816 675.988C889.44 677.116 890.304 678.016 891.408 678.688C892.512 679.336 893.748 679.66 895.116 679.66ZM912.577 682C912.145 682 911.797 681.88 911.533 681.64C911.293 681.376 911.173 681.028 911.173 680.596V663.712C911.173 663.28 911.293 662.944 911.533 662.704C911.797 662.44 912.145 662.308 912.577 662.308C912.985 662.308 913.309 662.44 913.549 662.704C913.813 662.944 913.945 663.28 913.945 663.712V680.596C913.945 681.028 913.813 681.376 913.549 681.64C913.309 681.88 912.985 682 912.577 682ZM912.541 658.564C912.013 658.564 911.557 658.372 911.173 657.988C910.789 657.604 910.597 657.136 910.597 656.584C910.597 655.984 910.789 655.516 911.173 655.18C911.581 654.82 912.049 654.64 912.577 654.64C913.081 654.64 913.525 654.82 913.909 655.18C914.317 655.516 914.521 655.984 914.521 656.584C914.521 657.136 914.329 657.604 913.945 657.988C913.561 658.372 913.093 658.564 912.541 658.564ZM925.252 682C924.292 682 923.428 681.736 922.66 681.208C921.916 680.68 921.328 679.948 920.896 679.012C920.488 678.076 920.284 676.996 920.284 675.772V655.252C920.284 654.844 920.404 654.52 920.644 654.28C920.908 654.016 921.244 653.884 921.652 653.884C922.06 653.884 922.384 654.016 922.624 654.28C922.888 654.52 923.02 654.844 923.02 655.252V675.772C923.02 676.804 923.224 677.644 923.632 678.292C924.064 678.94 924.604 679.264 925.252 679.264H926.152C926.512 679.264 926.8 679.396 927.016 679.66C927.232 679.9 927.34 680.224 927.34 680.632C927.34 681.04 927.184 681.376 926.872 681.64C926.584 681.88 926.2 682 925.72 682H925.252ZM933.144 682C932.712 682 932.364 681.88 932.1 681.64C931.86 681.376 931.74 681.028 931.74 680.596V663.712C931.74 663.28 931.86 662.944 932.1 662.704C932.364 662.44 932.712 662.308 933.144 662.308C933.552 662.308 933.876 662.44 934.116 662.704C934.38 662.944 934.512 663.28 934.512 663.712V680.596C934.512 681.028 934.38 681.376 934.116 681.64C933.876 681.88 933.552 682 933.144 682ZM933.108 658.564C932.58 658.564 932.124 658.372 931.74 657.988C931.356 657.604 931.164 657.136 931.164 656.584C931.164 655.984 931.356 655.516 931.74 655.18C932.148 654.82 932.616 654.64 933.144 654.64C933.648 654.64 934.092 654.82 934.476 655.18C934.884 655.516 935.088 655.984 935.088 656.584C935.088 657.136 934.896 657.604 934.512 657.988C934.128 658.372 933.66 658.564 933.108 658.564ZM949.274 682C948.002 682 946.862 681.7 945.854 681.1C944.87 680.5 944.09 679.684 943.514 678.652C942.938 677.596 942.65 676.396 942.65 675.052V657.448C942.65 657.04 942.77 656.704 943.01 656.44C943.274 656.176 943.61 656.044 944.018 656.044C944.426 656.044 944.762 656.176 945.026 656.44C945.29 656.704 945.422 657.04 945.422 657.448V675.052C945.422 676.276 945.782 677.284 946.502 678.076C947.222 678.844 948.146 679.228 949.274 679.228H950.246C950.63 679.228 950.942 679.36 951.182 679.624C951.422 679.888 951.542 680.224 951.542 680.632C951.542 681.04 951.398 681.376 951.11 681.64C950.822 681.88 950.462 682 950.03 682H949.274ZM940.31 665.44C939.95 665.44 939.65 665.332 939.41 665.116C939.17 664.876 939.05 664.588 939.05 664.252C939.05 663.892 939.17 663.604 939.41 663.388C939.65 663.148 939.95 663.028 940.31 663.028H949.49C949.85 663.028 950.15 663.148 950.39 663.388C950.63 663.604 950.75 663.892 950.75 664.252C950.75 664.588 950.63 664.876 950.39 665.116C950.15 665.332 949.85 665.44 949.49 665.44H940.31ZM964.982 682.18C963.038 682.18 961.31 681.76 959.798 680.92C958.31 680.056 957.134 678.868 956.27 677.356C955.43 675.844 955.01 674.116 955.01 672.172C955.01 670.204 955.406 668.476 956.198 666.988C957.014 665.476 958.13 664.288 959.546 663.424C960.962 662.56 962.594 662.128 964.442 662.128C966.266 662.128 967.85 662.548 969.194 663.388C970.562 664.204 971.618 665.344 972.362 666.808C973.106 668.272 973.478 669.94 973.478 671.812C973.478 672.196 973.358 672.508 973.118 672.748C972.878 672.964 972.566 673.072 972.182 673.072H956.882V670.768H972.47L970.922 671.884C970.946 670.492 970.694 669.244 970.166 668.14C969.638 667.036 968.882 666.172 967.898 665.548C966.938 664.924 965.786 664.612 964.442 664.612C963.074 664.612 961.874 664.936 960.842 665.584C959.81 666.232 959.006 667.132 958.43 668.284C957.878 669.412 957.602 670.708 957.602 672.172C957.602 673.636 957.914 674.932 958.538 676.06C959.186 677.188 960.062 678.076 961.166 678.724C962.27 679.372 963.542 679.696 964.982 679.696C965.846 679.696 966.71 679.552 967.574 679.264C968.462 678.952 969.17 678.568 969.698 678.112C969.962 677.896 970.262 677.788 970.598 677.788C970.934 677.764 971.222 677.848 971.462 678.04C971.774 678.328 971.93 678.64 971.93 678.976C971.954 679.312 971.822 679.6 971.534 679.84C970.742 680.512 969.734 681.076 968.51 681.532C967.286 681.964 966.11 682.18 964.982 682.18ZM964.01 659.32C963.626 659.32 963.29 659.188 963.002 658.924C962.738 658.636 962.606 658.3 962.606 657.916C962.606 657.532 962.714 657.22 962.93 656.98L966.998 652.912C967.262 652.648 967.586 652.516 967.97 652.516C968.378 652.516 968.714 652.66 968.978 652.948C969.242 653.212 969.374 653.548 969.374 653.956C969.374 654.124 969.338 654.292 969.266 654.46C969.218 654.628 969.122 654.772 968.978 654.892L964.946 658.96C964.706 659.2 964.394 659.32 964.01 659.32Z" fill="#45396D"/>
</svg>
