<svg width="98" height="120" viewBox="0 0 98 120" fill="none" xmlns="http://www.w3.org/2000/svg">
<path d="M95.6698 49.57C95.5998 60.52 91.7598 70.58 85.3698 78.48L52.5298 115.37C50.6598 117.48 47.3599 117.48 45.4899 115.37L12.6498 78.48C6.18984 70.5 2.33984 60.32 2.33984 49.24C2.33984 23.44 23.2998 2.51996 49.1098 2.57996C74.7098 2.63996 95.8398 23.97 95.6698 49.57Z" fill="white"/>
<path d="M49.0099 119.16C47.0299 119.16 45.1499 118.32 43.8399 116.84L10.9999 79.95C3.96988 71.26 0.129883 60.39 0.129883 49.24C0.129883 36.17 5.22988 23.88 14.4899 14.64C23.7199 5.42999 35.9699 0.359985 48.9999 0.359985C49.0399 0.359985 49.0799 0.359985 49.1099 0.359985C62.0799 0.389985 74.3299 5.55999 83.6099 14.93C92.8899 24.3 97.9599 36.6 97.8699 49.58C97.7899 60.6 93.9599 71.35 87.0699 79.87L54.1699 116.84C52.8699 118.31 50.9799 119.16 49.0099 119.16ZM49.0099 4.78999C37.1599 4.78999 26.0199 9.39999 17.6199 17.78C9.19987 26.18 4.55988 37.36 4.55988 49.24C4.55988 59.37 8.04987 69.26 14.3699 77.08L47.1399 113.89C48.0999 114.97 49.9099 114.97 50.8799 113.89L83.7199 77C89.9999 69.23 93.3999 59.71 93.4699 49.54C93.5499 37.75 88.9399 26.56 80.4899 18.04C72.0399 9.51999 60.8999 4.80999 49.1199 4.77999C49.0699 4.78999 49.0399 4.78999 49.0099 4.78999Z" fill="black"/>
<path d="M23.18 73.38C21.96 73.38 20.97 72.39 20.97 71.17V35.67C20.97 27.32 27.98 20.52 36.6 20.52H63.59C72.21 20.52 79.22 27.31 79.22 35.67V71.13C79.22 72.35 78.23 73.34 77.01 73.34C75.79 73.34 74.8 72.35 74.8 71.13V35.66C74.8 29.75 69.77 24.94 63.59 24.94H36.6C30.42 24.94 25.39 29.75 25.39 35.66V71.16C25.4 72.39 24.41 73.38 23.18 73.38Z" fill="black"/>
<path d="M43.6401 47.23C42.0601 47.23 40.5401 47.53 39.0801 48.07C38.6201 45.94 37.5201 40.87 37.4801 40.72L35.4501 33.31H43.3001C44.9301 33.31 46.2601 34.66 46.2601 36.29C46.2601 37.92 44.9301 39.27 43.3001 39.27H42.0301C41.1001 39.27 40.3401 40.03 40.3401 40.98C40.3401 41.93 41.1001 42.71 42.0301 42.71H43.3001C46.8301 42.71 49.7001 39.82 49.7001 36.29C49.7001 32.76 46.8301 29.87 43.3001 29.87H33.2101C32.6801 29.87 32.1801 30.12 31.8601 30.52C31.5201 30.92 31.4201 31.45 31.5401 32.06L33.5201 39.26H25.3701V42.7H34.0301L25.3701 54.46V60.25L35.2901 46.8L35.9201 49.78C32.6001 52.23 30.6401 56.09 30.6401 60.23C30.6401 67.39 36.4701 73.24 43.6301 73.24C50.7901 73.24 56.6201 67.39 56.6201 60.23C56.6201 53.07 50.8001 47.23 43.6401 47.23ZM43.6401 69.8C38.3601 69.8 34.1001 65.51 34.1001 60.23C34.1001 57.48 35.3001 54.87 37.3501 53.05L42.1901 61.16C42.7001 61.92 43.7101 62.17 44.5501 61.69C45.3301 61.2 45.5801 60.15 45.1201 59.37L40.3101 51.28C41.3701 50.88 42.4801 50.67 43.6501 50.67C48.9101 50.67 53.2201 54.96 53.2201 60.24C53.2201 65.52 48.9001 69.8 43.6401 69.8Z" fill="black"/>
<path d="M64.0599 46.18C62.2899 46.18 60.5699 46.71 59.1099 47.73C59.0899 47.73 59.0399 47.75 59.0199 47.77C58.8899 47.86 58.7799 47.97 58.6699 48.06C58.6299 48.13 58.5599 48.19 58.5199 48.28C58.2099 48.66 58.0599 49.12 58.0799 49.58V70.9C58.0799 72.12 59.0799 73.11 60.2899 73.11C61.5099 73.11 62.4999 72.11 62.4999 70.9V63.65C63.0099 63.76 63.5399 63.8 64.0699 63.8C68.9099 63.8 72.8699 59.84 72.8699 54.98C72.8699 50.14 68.9099 46.18 64.0599 46.18ZM64.0599 59.38C63.5099 59.38 62.9799 59.27 62.4899 59.07V50.89C62.9799 50.69 63.5099 50.6 64.0599 50.6C66.4699 50.6 68.4399 52.57 68.4399 54.98C68.4399 57.41 66.4699 59.38 64.0599 59.38Z" fill="black"/>
</svg>
