<svg width="99" height="120" viewBox="0 0 99 120" fill="none" xmlns="http://www.w3.org/2000/svg">
<path d="M96.4099 50.13C96.3399 61.08 92.4998 71.14 86.1098 79.04L53.2698 115.93C51.3998 118.04 48.0999 118.04 46.2299 115.93L13.3899 79.04C6.92986 71.06 3.07983 60.88 3.07983 49.8C3.07983 24 24.0399 3.08002 49.8499 3.14002C75.4499 3.20002 96.5798 24.53 96.4099 50.13Z" fill="white"/>
<path d="M49.7499 119.72C47.7799 119.72 45.8899 118.88 44.5799 117.4L11.7399 80.51C4.70987 71.82 0.879883 60.95 0.879883 49.8C0.879883 36.73 5.97987 24.44 15.2399 15.2C24.4599 5.99999 36.7099 0.929993 49.7499 0.929993C49.7899 0.929993 49.8299 0.929993 49.8599 0.929993C62.8299 0.959993 75.0799 6.12999 84.3599 15.49C93.6399 24.86 98.7099 37.16 98.6199 50.14C98.5399 61.31 94.8099 71.79 87.8199 80.43L54.9199 117.4C53.6099 118.88 51.7199 119.72 49.7499 119.72ZM49.7499 5.34999C37.8999 5.34999 26.7599 9.95999 18.3599 18.34C9.93986 26.74 5.29987 37.92 5.29987 49.8C5.29987 59.93 8.77986 69.82 15.1099 77.64L47.8799 114.45C48.8399 115.53 50.6499 115.53 51.6199 114.45L84.4599 77.56C90.7399 69.79 94.1399 60.27 94.1999 50.1C94.2799 38.31 89.6699 27.12 81.2199 18.6C72.7699 10.08 61.6299 5.36999 49.8499 5.33999C49.8099 5.34999 49.7799 5.34999 49.7499 5.34999Z" fill="black"/>
<path d="M22.2901 34.89C21.3801 34.89 20.5201 34.32 20.2001 33.41C19.7901 32.26 20.4 31 21.55 30.59L49.0101 20.93C50.1701 20.53 51.42 21.13 51.83 22.28C52.24 23.43 51.6301 24.69 50.4801 25.1L23.0201 34.76C22.7801 34.85 22.5301 34.89 22.2901 34.89Z" fill="black"/>
<path d="M77.21 34.89C76.97 34.89 76.72 34.85 76.48 34.76L49.02 25.1C47.87 24.69 47.26 23.43 47.67 22.28C48.07 21.13 49.33 20.52 50.49 20.93L77.95 30.59C79.1 31 79.71 32.26 79.3 33.41C78.98 34.32 78.12 34.89 77.21 34.89Z" fill="black"/>
<path d="M77.2101 75.09H22.2901C21.0701 75.09 20.0801 74.1 20.0801 72.88C20.0801 71.66 21.0701 70.67 22.2901 70.67H77.2101C78.4301 70.67 79.4201 71.66 79.4201 72.88C79.4201 74.1 78.4301 75.09 77.2101 75.09Z" fill="black"/>
<path d="M64.2801 49.13C63.0101 49.13 61.8101 49.43 60.7201 49.94L59.4501 44.1C59.4501 44.09 59.4401 44.09 59.4401 44.08C59.4401 44.07 59.4401 44.07 59.4401 44.06L57.8701 38.36H64.0401C65.4801 38.36 66.6501 39.53 66.6501 40.97C66.6501 42.41 65.4801 43.58 64.0401 43.58H63.1701C62.8101 43.58 62.5301 43.87 62.5301 44.22C62.5301 44.58 62.8201 44.86 63.1701 44.86H64.0401C66.1901 44.86 67.9401 43.11 67.9401 40.96C67.9401 38.81 66.1901 37.06 64.0401 37.06H57.0301C56.8301 37.06 56.6401 37.15 56.5201 37.31C56.4001 37.47 56.3601 37.68 56.4101 37.87L57.9801 43.57H44.6301L42.5301 37.39H45.5001C45.8501 37.39 46.1401 37.1 46.1401 36.75C46.1401 36.4 45.8501 36.11 45.5001 36.11H37.7701C37.4101 36.11 37.1301 36.4 37.1301 36.75C37.1301 37.1 37.4201 37.39 37.7701 37.39H41.1701L43.4601 44.12L39.5801 50.16C38.3801 49.51 37.0301 49.11 35.5701 49.11C30.9001 49.11 27.0901 52.91 27.0901 57.59C27.0901 62.26 30.8901 66.07 35.5701 66.07C39.5301 66.07 42.8301 63.33 43.7601 59.66L45.3601 59.94C45.6301 61.85 47.2601 63.33 49.2501 63.33C51.4201 63.33 53.1901 61.56 53.1901 59.39C53.1901 58.19 52.6401 57.13 51.7901 56.41L58.7501 46.96L59.5301 50.57C57.2701 52.09 55.7901 54.68 55.7901 57.6C55.7901 62.27 59.5901 66.08 64.2701 66.08C68.9401 66.08 72.7501 62.28 72.7501 57.6C72.7601 52.93 68.9601 49.13 64.2801 49.13ZM35.5801 64.8C31.6201 64.8 28.3901 61.57 28.3901 57.61C28.3901 53.65 31.6201 50.42 35.5801 50.42C36.7801 50.42 37.9001 50.74 38.8901 51.27L35.0401 57.27C34.9201 57.45 34.9101 57.68 34.9901 57.88C35.0801 58.08 35.2601 58.22 35.4701 58.25L42.5001 59.46C41.6801 62.52 38.9001 64.8 35.5801 64.8ZM42.7701 57.61C42.7701 57.81 42.7301 57.99 42.7101 58.19L36.6401 57.14L39.9701 51.96C41.6601 53.27 42.7701 55.3 42.7701 57.61ZM40.6701 50.87L44.0001 45.7L47.4701 55.9C46.4101 56.44 45.6201 57.44 45.3901 58.65L43.9801 58.41C44.0101 58.14 44.0601 57.89 44.0601 57.61C44.0501 54.85 42.7101 52.42 40.6701 50.87ZM49.2501 62.05C47.7801 62.05 46.5901 60.86 46.5901 59.39C46.5901 57.92 47.7801 56.73 49.2501 56.73C50.7201 56.73 51.9101 57.92 51.9101 59.39C51.9101 60.86 50.7201 62.05 49.2501 62.05ZM50.7001 55.74C50.2501 55.56 49.7601 55.46 49.2501 55.46C49.0601 55.46 48.8701 55.49 48.6901 55.52L45.0701 44.89H58.3101L58.4001 45.31L50.7001 55.74ZM64.2801 64.8C60.3201 64.8 57.0901 61.57 57.0901 57.61C57.0901 55.22 58.2701 53.11 60.0701 51.81L63.7301 57.94C63.9101 58.24 64.3101 58.34 64.6101 58.16C64.9101 57.98 65.0101 57.58 64.8301 57.28L61.1801 51.15C62.1201 50.7 63.1701 50.42 64.2801 50.42C68.2401 50.42 71.4701 53.65 71.4701 57.61C71.4701 61.57 68.2501 64.8 64.2801 64.8Z" fill="black"/>
<path d="M64.28 66.91C59.15 66.91 54.97 62.74 54.97 57.6C54.97 54.7 56.32 51.98 58.62 50.22L58.34 48.93L52.89 56.33C53.62 57.19 54.03 58.27 54.03 59.39C54.03 62.02 51.89 64.16 49.26 64.16C47.11 64.16 45.24 62.69 44.68 60.66L44.36 60.61C43.08 64.35 39.57 66.91 35.58 66.91C30.45 66.91 26.27 62.74 26.27 57.6C26.27 52.46 30.44 48.29 35.58 48.29C36.85 48.29 38.09 48.56 39.29 49.1L42.56 44.02L40.59 38.23H37.78C36.97 38.23 36.31 37.57 36.31 36.76C36.31 35.95 36.97 35.29 37.78 35.29H45.51C46.32 35.29 46.98 35.95 46.98 36.76C46.98 37.57 46.32 38.23 45.51 38.23H43.7L45.24 42.75H56.91L55.63 38.1C55.51 37.66 55.6 37.18 55.88 36.82C56.17 36.45 56.59 36.24 57.05 36.24H64.06C66.67 36.24 68.79 38.36 68.79 40.97C68.79 43.58 66.67 45.7 64.06 45.7H63.19C62.38 45.7 61.72 45.04 61.72 44.23C61.72 43.42 62.38 42.76 63.19 42.76H64.06C65.04 42.76 65.84 41.96 65.84 40.98C65.84 40 65.04 39.2 64.06 39.2H58.98L60.3 43.98L61.35 48.81C62.32 48.48 63.31 48.31 64.3 48.31C69.43 48.31 73.61 52.48 73.61 57.62C73.61 62.76 69.41 66.91 64.28 66.91ZM59.86 53.06C58.62 54.25 57.92 55.87 57.92 57.61C57.92 61.12 60.77 63.97 64.28 63.97C67.79 63.97 70.64 61.12 70.64 57.61C70.64 54.1 67.79 51.25 64.28 51.25C63.64 51.25 63.01 51.35 62.39 51.56L65.55 56.86C65.75 57.2 65.81 57.6 65.71 57.98C65.61 58.36 65.37 58.68 65.03 58.88C64.7 59.08 64.31 59.14 63.92 59.04C63.54 58.94 63.22 58.71 63.01 58.37L59.86 53.06ZM35.58 51.24C32.07 51.24 29.22 54.1 29.22 57.6C29.22 61.11 32.07 63.96 35.58 63.96C38.13 63.96 40.41 62.41 41.4 60.1L35.33 59.05C34.84 58.97 34.43 58.65 34.23 58.19C34.03 57.74 34.07 57.22 34.34 56.8L37.67 51.61C36.98 51.37 36.28 51.24 35.58 51.24ZM49.25 57.57C48.24 57.57 47.42 58.39 47.42 59.4C47.42 60.41 48.24 61.23 49.25 61.23C50.26 61.23 51.08 60.41 51.08 59.4C51.08 58.39 50.26 57.57 49.25 57.57ZM41.77 50.7C43.73 52.45 44.85 54.88 44.89 57.49C45.23 56.71 45.78 56.04 46.48 55.54L43.77 47.59L41.77 50.7ZM38.02 56.53L41.93 57.2C41.83 55.7 41.2 54.3 40.15 53.22L38.02 56.53ZM49.27 54.62C49.64 54.62 50.02 54.67 50.39 54.76L57.07 45.7H46.23L49.27 54.62Z" fill="black"/>
</svg>
