<svg width="56" height="42" viewBox="0 0 56 42" fill="none" xmlns="http://www.w3.org/2000/svg">
<g filter="url(#filter0_d)">
<path d="M9.11017 24.732C15.1942 24.732 16.8142 17.208 16.8142 12.42C16.8142 7.488 15.2662 1.26 9.18217 1.26C3.60217 1.26 1.26217 7.272 1.26217 12.024C1.26217 16.992 2.73817 24.732 9.11017 24.732ZM9.18217 4.14C12.9262 4.14 14.1502 9.324 14.1502 12.276C14.1502 15.516 13.5022 21.924 9.11017 21.924C4.28617 21.924 4.10617 15.804 4.10617 12.312C4.10617 9 4.93417 4.14 9.18217 4.14ZM32.8859 1.8H32.5259C31.6259 1.8 30.5459 1.836 30.5459 3.024C30.5459 3.708 30.6179 4.356 30.6179 5.004C30.6179 6.804 30.5819 8.604 30.5819 10.404C30.5819 13.284 31.3379 20.772 26.8739 20.772C22.7339 20.772 22.5539 15.552 22.5539 12.528C22.5539 9.36 22.6619 6.228 22.6619 3.06C22.6619 2.556 22.0499 2.556 21.7259 2.556C21.0419 2.556 20.6099 2.592 20.0699 3.06C19.9259 3.204 19.7819 9.972 19.7819 10.8C19.7819 15.012 20.1779 23.364 26.0459 23.364C32.6339 23.364 33.7139 16.236 33.7139 11.088C33.7139 8.352 33.3899 5.652 33.3899 2.916C33.3899 2.448 33.3899 2.016 32.8859 1.8ZM40.7249 25.02C40.7609 24.804 40.7969 24.588 40.7969 24.336C40.7969 23.256 40.5089 22.212 40.4009 21.132C40.0769 17.964 40.1489 14.796 40.1489 11.628C40.1489 10.8 40.0409 10.008 39.0329 10.008C37.3769 10.008 37.0529 10.512 37.0529 12.096C37.0529 13.428 37.3409 14.76 37.4849 16.128C37.7369 18.432 37.6649 20.808 37.6649 23.112C37.6649 25.2 37.8809 25.272 39.8969 25.272C40.1849 25.272 40.5089 25.272 40.7249 25.02ZM37.4849 6.948C37.9169 6.948 38.3489 7.056 38.7809 7.056C39.5369 7.056 39.7889 6.516 39.7889 5.832C39.7889 5.184 39.6449 4.572 39.6089 3.924C39.6089 3.384 39.6809 2.88 39.6809 2.34C39.6809 1.116 38.7809 0.935999 37.7369 0.935999C37.4129 0.935999 37.0889 0.935999 36.8009 1.008C36.6569 1.08 36.6209 1.26 36.6209 1.404C36.6209 1.908 36.8369 2.34 36.9089 2.808C37.0529 3.852 36.9809 4.896 36.9809 5.94C36.9809 6.264 36.9809 6.66 37.0889 6.984C37.2329 6.948 37.3409 6.948 37.4849 6.948Z" fill="white"/>
</g>
<defs>
<filter id="filter0_d" x="0.262207" y="0.936005" width="55.5347" height="40.336" filterUnits="userSpaceOnUse" color-interpolation-filters="sRGB">
<feFlood flood-opacity="0" result="BackgroundImageFix"/>
<feColorMatrix in="SourceAlpha" type="matrix" values="0 0 0 0 0 0 0 0 0 0 0 0 0 0 0 0 0 0 127 0"/>
<feOffset dx="7" dy="8"/>
<feGaussianBlur stdDeviation="4"/>
<feColorMatrix type="matrix" values="0 0 0 0 0 0 0 0 0 0 0 0 0 0 0 0 0 0 0.25 0"/>
<feBlend mode="normal" in2="BackgroundImageFix" result="effect1_dropShadow"/>
<feBlend mode="normal" in="SourceGraphic" in2="effect1_dropShadow" result="shape"/>
</filter>
</defs>
</svg>
