<svg width="646" height="56" viewBox="0 0 646 56" fill="none" xmlns="http://www.w3.org/2000/svg">
<g filter="url(#filter0_d)">
<path d="M16.722 9.28C16.242 9.08 15.762 9.04 15.282 9.04C14.362 9.04 13.442 9.2 12.482 9.2C11.322 9.2 10.122 9.24 9.00203 8.96C8.60203 8.88 8.24203 8.68 7.84203 8.68C7.20203 8.68 7.08203 10.28 7.08203 10.76C7.08203 11.48 7.20203 12.32 8.16203 12.32C8.88203 12.32 9.52203 11.88 10.242 11.88C11.522 11.88 11.442 12.88 11.442 13.84C11.642 21.76 12.202 29.64 12.442 37.56V37.68C12.442 38.72 12.322 39.76 12.322 40.8C12.322 41.96 12.482 42.44 13.762 42.44C14.562 42.44 15.722 42.32 15.722 41.24C15.722 40.6 15.522 40 15.442 39.4C15.362 38.68 15.402 38 15.402 37.28C15.402 36.64 15.362 35.96 15.322 35.28C15.002 31.6 14.802 27.92 14.642 24.24C14.482 20.68 14.522 17.16 14.162 13.64C14.122 13.36 14.082 13.08 14.082 12.76C14.082 12.48 14.082 11.96 14.482 11.96C15.042 11.96 15.562 12.44 16.162 12.44C16.962 12.44 17.522 11.68 17.522 10.92C17.522 10.32 17.282 9.6 16.722 9.28ZM36.1111 13H35.7111C34.7111 13 33.5111 13.04 33.5111 14.36C33.5111 15.12 33.5911 15.84 33.5911 16.56C33.5911 18.56 33.5511 20.56 33.5511 22.56C33.5511 25.76 34.3911 34.08 29.4311 34.08C24.8311 34.08 24.6311 28.28 24.6311 24.92C24.6311 21.4 24.7511 17.92 24.7511 14.4C24.7511 13.84 24.0711 13.84 23.7111 13.84C22.9511 13.84 22.4711 13.88 21.8711 14.4C21.7111 14.56 21.5511 22.08 21.5511 23C21.5511 27.68 21.9911 36.96 28.5111 36.96C35.8311 36.96 37.0311 29.04 37.0311 23.32C37.0311 20.28 36.6711 17.28 36.6711 14.24C36.6711 13.72 36.6711 13.24 36.1111 13ZM63.0998 9C61.6998 9.16 61.8998 9.96 61.8998 11.04C61.8998 14.6 61.0198 19.92 60.6198 23.6C60.3798 25.84 60.0998 28.08 59.8198 30.32C59.6998 31.32 59.6598 32.32 59.4998 33.32C59.4998 33.4 59.4198 34.04 59.3398 34.04C59.2598 34.04 59.2598 33.96 59.2198 33.88C58.9798 33.32 59.0998 32.2 58.9798 31.56C58.8198 30.12 58.4598 28.68 58.1798 27.24C57.6998 24.76 57.3798 22.2 56.8998 19.72C56.4998 17.52 55.9398 15.36 55.5798 13.16C55.3798 12.12 55.4198 11.04 55.0598 10.08C54.6998 9.12 54.8198 9.4 53.8598 9.2C53.4598 9.08 53.0198 8.96 52.5798 8.96C52.0998 8.96 51.9398 9.24 51.9398 9.68C51.9398 11.48 52.9398 14.52 53.2998 16.44C54.1798 21.24 54.6598 26.12 55.9398 30.84C56.3798 32.56 56.6998 34.32 57.0198 36.04C57.2598 37.52 56.8998 42.2 58.9398 42.2C60.8998 42.2 61.0598 42.28 61.3398 40.4C62.3398 33.04 63.1398 25.68 63.9398 18.28C64.0998 16.52 64.2998 14.76 64.5798 13.04C64.7398 11.92 65.4198 10.64 65.4198 9.52C65.4198 9 64.2198 8.96 63.8598 8.96C63.6198 8.96 63.3398 8.96 63.0998 9ZM74.0483 7.64C73.0083 7.56 72.0083 7.32 70.9683 7.32C69.5283 7.32 69.3683 8.32 69.3683 9.48C69.3683 10.32 69.5283 11.16 69.5283 12.04C69.6083 15.08 69.6083 18.16 69.6083 21.2C69.6083 27.68 69.5683 34.12 69.5683 40.6C69.5683 41.36 69.3283 42.12 69.3283 42.88C69.3283 43.8 69.5683 43.84 70.4083 43.84C71.9283 43.84 73.4883 43.6 75.0083 43.36C75.5283 43.28 76.1283 43.28 76.1283 42.56C76.1283 41.88 76.0883 41.2 76.0883 40.52C76.0883 40.08 76.0083 39.88 75.5683 39.88C74.7283 39.88 74.0083 40.36 73.2083 40.36C72.6883 40.36 72.5683 39.88 72.5683 39.44C72.5683 38.72 72.7683 37.96 72.7683 37.2C72.7683 36.12 72.7283 35 72.6883 33.92C72.6483 32.64 72.2883 31.4 72.2883 30.12C72.2883 29.36 72.3683 28.32 73.3683 28.32C74.0083 28.32 74.5683 28.72 75.2083 28.72C75.6083 28.72 75.9683 28.4 75.9683 28C75.9683 27.56 75.8083 27.16 75.7683 26.72C75.6483 25.56 75.9283 25.36 74.4883 25.36C73.9683 25.36 73.4883 25.6 72.9683 25.6C72.4883 25.6 72.4483 24.84 72.4483 24.48C72.2083 22.04 72.3283 19.6 72.3283 17.16C72.3283 15.44 72.0083 13.72 72.0083 11.96C72.0083 11.44 72.1283 11.16 72.7283 11.16C73.7683 11.16 74.6883 11.88 75.7283 11.88C76.7683 11.88 76.7683 9.76 76.7683 9.04C76.7683 7.44 75.8483 7.68 74.6483 7.68L74.0483 7.64ZM91.2164 12.64V12.44C91.2164 11.72 91.3364 11 91.3364 10.28C91.3364 8.84 90.8964 8.56 89.5364 8.56C88.8964 8.56 87.9364 8.68 87.9364 9.52C87.9364 9.96 88.0164 10.44 88.0964 10.88C88.2964 12.4 88.2964 13.92 88.2964 15.44C88.2964 19.04 88.2564 22.6 88.2564 26.2C88.2564 28.08 88.0164 39.48 86.0164 39.48C85.5764 39.48 85.3364 39 85.1364 38.68C83.8164 36.16 84.0564 32.84 83.9764 30.08C83.8964 25.08 83.6564 20.12 83.6564 15.12C83.6564 13.48 83.6564 11.76 84.0564 10.16C84.1364 9.72 84.2964 9.24 84.2964 8.8C84.2964 8.28 83.7364 8.16 83.3764 8.16C81.0964 8.16 81.2964 9.04 81.2964 10.84C81.2964 12.6 81.0964 14.36 80.9764 16.08C80.7364 19.8 80.5764 23.56 80.5764 27.28C80.5764 30.76 80.6564 43 85.6964 43C85.8964 43 86.0564 43 86.2564 42.96C90.3764 41.88 90.6564 36.24 90.9764 32.8C91.3764 28.4 91.4964 24 91.4964 19.56C91.4964 17.24 91.3364 14.96 91.2164 12.64ZM107.222 6.64C106.782 6.68 106.382 6.64 105.942 6.64C105.422 6.64 104.662 6.64 104.182 6.88C103.422 7.28 103.542 8.4 103.462 9.12C103.062 12.16 102.422 15.16 101.822 18.16C101.622 19.24 101.702 20.36 101.382 21.4C101.382 21.44 101.182 22.08 101.102 22.2C101.062 21.92 100.942 21.68 100.862 21.4C100.062 18.68 99.942 15.84 99.502 13.04C99.222 11.44 99.302 9.8 98.822 8.28C98.502 7.28 98.782 7.48 97.742 7.36C97.502 7.32 97.302 7.28 97.062 7.28C96.422 7.28 95.782 7.4 95.102 7.36C95.662 10.48 96.142 13.6 96.582 16.72C97.062 19.88 98.302 22.88 98.302 26.12C98.302 32.24 95.462 38.36 94.982 44.48C95.822 44.4 96.702 44.48 97.582 44.28C98.382 44.08 98.182 44.32 98.502 43.6C99.262 42 99.102 40 99.422 38.28C99.702 36.72 100.062 35.16 100.302 33.6C100.422 33.12 100.342 30.4 100.782 30.4C101.262 30.4 101.222 32.52 101.262 32.88C101.462 34.48 101.822 36.12 102.102 37.72C102.422 39.4 102.702 41.16 102.942 42.88C103.102 44 102.862 44 104.022 44.28C104.902 44.52 105.822 44.4 106.702 44.48C106.182 41.4 105.822 38.28 105.222 35.2C104.662 32.36 103.622 29.56 103.622 26.64C103.622 23.08 104.742 19.44 105.542 15.96C106.222 12.88 106.582 9.76 107.222 6.64ZM132.605 14.76C131.045 11.28 127.565 8.72 123.725 8.72C123.165 8.72 122.725 8.84 122.725 9.52C122.725 9.96 122.805 10.4 122.845 10.88C123.005 12.52 123.005 14.12 123.045 15.76C123.245 22.64 123.725 29.52 124.005 36.4C124.085 38 124.205 39.56 124.205 41.16C124.205 42.04 124.405 42.4 125.365 42.4C132.645 42.4 134.805 35.12 134.805 29.36C134.805 24.44 134.605 19.32 132.605 14.76ZM127.725 38.72C127.125 38.72 127.125 37.96 127.125 37.56C127.125 35.24 126.925 33.04 126.765 30.72C126.485 26.76 126.285 22.8 125.965 18.84C125.925 18.32 125.405 12.04 125.605 12.04C128.965 12.04 131.525 20.28 131.525 26.24C131.525 28.44 131.565 38.72 127.725 38.72ZM150.822 30.16H150.662C149.942 30.16 149.262 30.04 148.542 30.04C148.222 30.04 147.822 30.04 147.542 30.24C146.742 30.72 147.702 35.68 145.062 35.68C142.382 35.68 142.422 29.88 142.222 28.04C142.142 27.32 142.022 26.6 142.022 25.88C142.022 24.48 143.302 24.2 144.422 24.2C145.782 24.2 147.142 24.32 148.502 24.32C149.982 24.32 150.982 24.04 150.982 22.32C150.982 18.68 149.062 12.2 144.582 12.2C138.822 12.2 138.462 21.68 138.462 25.76C138.462 29.68 139.742 38.92 145.022 38.92C149.062 38.92 151.222 34.44 151.222 30.92C151.222 30.6 151.182 30.24 150.822 30.16ZM146.262 6.2C145.502 6.76 142.382 9.2 142.382 10.08C142.382 10.72 143.542 10.92 144.022 10.92C145.262 10.92 148.662 8.88 148.662 7.52C148.662 6.92 147.742 5.88 147.102 5.88C146.822 5.88 146.502 6 146.262 6.2ZM142.462 20.24V19.36C142.462 18.08 142.462 15.32 144.302 15.32C146.182 15.32 147.542 18.64 147.542 20.16C147.542 21.04 146.982 21.04 146.302 21.12C145.342 21.24 144.422 21.56 143.462 21.56C143.182 21.56 142.382 21.52 142.382 21.12C142.382 20.8 142.422 20.52 142.462 20.24ZM164.095 6.92C163.375 6.48 162.535 6.28 161.695 6.28C157.015 6.28 155.895 10.8 155.575 14.6C155.255 18.08 155.295 21.6 155.295 25.12C155.295 30.2 155.375 37.92 159.335 41.64C160.135 42.4 161.175 42.88 162.295 42.88C163.655 42.88 164.895 42.16 165.775 41.12C167.695 38.84 167.575 35.52 167.735 32.72C167.095 32.84 166.415 32.92 165.735 32.96C164.815 33 164.735 32.88 164.495 33.88C164.215 34.84 164.415 35.88 164.175 36.84C163.935 37.84 163.135 39.36 161.975 39.36C158.095 39.36 158.375 25.6 158.375 22.84C158.375 21.48 158.295 20.12 158.295 18.76C158.295 16.6 158.295 9.8 161.455 9.8C165.375 9.8 164.175 17.56 164.855 19.96C165.095 20.88 165.255 20.96 166.215 20.96C166.775 20.96 167.335 20.92 167.895 20.92C167.935 20.48 167.935 20.04 167.935 19.6C167.935 16.08 167.415 8.96 164.095 6.92ZM180.865 38.48C187.625 38.48 189.425 30.12 189.425 24.8C189.425 19.32 187.705 12.4 180.945 12.4C174.745 12.4 172.145 19.08 172.145 24.36C172.145 29.88 173.785 38.48 180.865 38.48ZM180.945 15.6C185.105 15.6 186.465 21.36 186.465 24.64C186.465 28.24 185.745 35.36 180.865 35.36C175.505 35.36 175.305 28.56 175.305 24.68C175.305 21 176.225 15.6 180.945 15.6ZM207.283 13H206.883C205.883 13 204.683 13.04 204.683 14.36C204.683 15.12 204.763 15.84 204.763 16.56C204.763 18.56 204.723 20.56 204.723 22.56C204.723 25.76 205.563 34.08 200.603 34.08C196.003 34.08 195.803 28.28 195.803 24.92C195.803 21.4 195.923 17.92 195.923 14.4C195.923 13.84 195.243 13.84 194.883 13.84C194.123 13.84 193.643 13.88 193.043 14.4C192.883 14.56 192.723 22.08 192.723 23C192.723 27.68 193.163 36.96 199.683 36.96C207.003 36.96 208.203 29.04 208.203 23.32C208.203 20.28 207.843 17.28 207.843 14.24C207.843 13.72 207.843 13.24 207.283 13ZM223.433 12.88C223.153 12.68 222.353 12.68 221.993 12.68C221.753 12.68 221.553 12.68 221.313 12.72C220.153 13.04 220.393 13.04 220.313 14.2C220.193 16.32 219.633 18.4 219.433 20.52C219.073 24.4 218.473 28.24 217.873 32.08C217.433 31.8 216.953 27.84 216.753 27.08C216.233 25.12 215.873 23.12 215.353 21.12C214.913 19.24 214.273 17.36 213.833 15.48C213.433 13.8 213.753 12.92 211.673 12.76L211.113 12.72C210.793 12.72 210.313 12.72 210.313 13.2C210.313 13.68 211.673 18.32 211.953 19.32C213.233 24.64 214.673 29.96 215.833 35.32C215.993 36.08 216.153 37.96 216.913 38.32C217.233 38.44 217.673 38.44 217.993 38.44C218.433 38.44 219.393 38.44 219.713 38.16C220.353 37.64 220.313 34.56 220.433 33.68C220.993 29.88 221.673 26.08 222.153 22.28C222.553 19.44 222.513 15.68 223.753 13.12H223.593C223.513 13.12 223.433 12.96 223.433 12.88ZM234.77 25.92C234.49 24.76 233.85 23.68 233.85 22.48C233.85 22.12 233.97 21.76 234.21 21.48C234.53 21.2 235.33 21.04 235.77 20.84C237.17 20.04 238.17 17.2 238.17 15.64C238.17 11.76 233.89 9.88 230.53 9.88C229.65 9.88 228.81 10.04 228.81 11.08C228.81 11.88 229.01 12.64 229.01 13.44C229.01 16.56 228.89 19.72 228.89 22.84C228.89 28.36 228.97 33.92 228.97 39.44C228.97 41.16 228.97 41.28 230.73 41.28C231.49 41.28 231.89 41.12 231.89 40.28V33.48C231.89 30.16 231.57 26.84 231.57 23.52C231.57 23.2 231.57 22.84 231.65 22.52C232.33 23.92 234.89 34.6 235.21 36.64C235.33 37.16 235.45 39.56 236.17 39.56C236.77 39.56 238.25 39.12 238.25 38.36C238.25 37.64 237.81 36.92 237.57 36.24C236.33 32.92 235.53 29.36 234.77 25.92ZM231.77 19V16.88C231.77 15.8 231.53 14.76 231.53 13.72C231.53 13.08 231.81 12.32 232.53 12.32C234.09 12.32 235.41 14.16 235.41 15.6C235.41 16.28 235.21 16.92 234.81 17.48C234.45 18 232.69 19.32 232.05 19.32C231.89 19.32 231.77 19.2 231.77 19ZM245.876 38.8C245.916 38.56 245.956 38.32 245.956 38.04C245.956 36.84 245.636 35.68 245.516 34.48C245.156 30.96 245.236 27.44 245.236 23.92C245.236 23 245.116 22.12 243.996 22.12C242.156 22.12 241.796 22.68 241.796 24.44C241.796 25.92 242.116 27.4 242.276 28.92C242.556 31.48 242.476 34.12 242.476 36.68C242.476 39 242.716 39.08 244.956 39.08C245.276 39.08 245.636 39.08 245.876 38.8ZM242.276 18.72C242.756 18.72 243.236 18.84 243.716 18.84C244.556 18.84 244.836 18.24 244.836 17.48C244.836 16.76 244.676 16.08 244.636 15.36C244.636 14.76 244.716 14.2 244.716 13.6C244.716 12.24 243.716 12.04 242.556 12.04C242.196 12.04 241.836 12.04 241.516 12.12C241.356 12.2 241.316 12.4 241.316 12.56C241.316 13.12 241.556 13.6 241.636 14.12C241.796 15.28 241.716 16.44 241.716 17.6C241.716 17.96 241.716 18.4 241.836 18.76C241.996 18.72 242.116 18.72 242.276 18.72ZM257.152 25.92C256.872 24.76 256.232 23.68 256.232 22.48C256.232 22.12 256.352 21.76 256.592 21.48C256.912 21.2 257.712 21.04 258.152 20.84C259.552 20.04 260.552 17.2 260.552 15.64C260.552 11.76 256.272 9.88 252.912 9.88C252.032 9.88 251.192 10.04 251.192 11.08C251.192 11.88 251.392 12.64 251.392 13.44C251.392 16.56 251.272 19.72 251.272 22.84C251.272 28.36 251.352 33.92 251.352 39.44C251.352 41.16 251.352 41.28 253.112 41.28C253.872 41.28 254.272 41.12 254.272 40.28V33.48C254.272 30.16 253.952 26.84 253.952 23.52C253.952 23.2 253.952 22.84 254.032 22.52C254.712 23.92 257.272 34.6 257.592 36.64C257.712 37.16 257.832 39.56 258.552 39.56C259.152 39.56 260.632 39.12 260.632 38.36C260.632 37.64 260.192 36.92 259.952 36.24C258.712 32.92 257.912 29.36 257.152 25.92ZM254.152 19V16.88C254.152 15.8 253.912 14.76 253.912 13.72C253.912 13.08 254.192 12.32 254.912 12.32C256.472 12.32 257.792 14.16 257.792 15.6C257.792 16.28 257.592 16.92 257.192 17.48C256.832 18 255.072 19.32 254.432 19.32C254.272 19.32 254.152 19.2 254.152 19ZM275.577 10.32C275.497 11.28 275.457 12.2 275.457 13.16C275.457 16.44 275.897 19.64 276.057 22.92C276.337 28.08 276.337 33.24 276.337 38.4C276.337 40.28 276.377 40.8 278.457 40.8C279.777 40.8 279.817 40.36 279.817 39.16C279.817 37.72 279.457 36.28 279.337 34.8C279.057 31.6 278.777 28.4 278.777 25.16C278.777 24.4 278.617 23.68 278.617 22.92C278.617 22.32 278.697 21.84 279.177 21.4C279.657 20.96 281.257 20.76 282.017 20.32C283.697 19.36 285.337 17.04 285.337 15.08C285.337 14.28 285.057 13.52 284.617 12.88C282.777 10.12 278.497 10.44 275.577 10.32ZM281.857 17C281.497 17.8 279.937 18.88 279.057 18.88C278.337 18.88 278.177 18.2 278.177 17.64C278.177 16.96 278.337 16.32 278.377 15.68C278.417 15.16 278.337 14.68 278.337 14.16C278.337 13.68 278.417 13.2 278.977 13.2C280.377 13.2 282.057 14.6 282.057 16.04C282.057 16.36 281.977 16.68 281.857 17ZM293.614 37.8C292.694 29.8 292.534 21.76 292.214 13.72C292.174 13.04 292.214 12.32 292.214 11.64C292.214 10.48 292.094 9 290.574 9C290.014 9 289.494 9.28 288.934 9.16C288.774 9.32 288.694 9.52 288.694 9.76C288.694 10.36 288.934 10.96 289.014 11.6C289.134 12.52 289.014 13.48 289.014 14.44C289.014 20.48 289.694 26.48 290.014 32.52C290.174 35.24 290.134 38 290.614 40.72C290.814 41.84 290.774 41.64 291.814 41.88C292.214 41.96 292.654 42.12 293.054 42.12C293.854 42.12 293.934 41.04 293.934 40.48C293.934 39.6 293.734 38.68 293.614 37.8ZM310.315 30.16H310.155C309.435 30.16 308.755 30.04 308.035 30.04C307.715 30.04 307.315 30.04 307.035 30.24C306.235 30.72 307.195 35.68 304.555 35.68C301.875 35.68 301.915 29.88 301.715 28.04C301.635 27.32 301.515 26.6 301.515 25.88C301.515 24.48 302.795 24.2 303.915 24.2C305.275 24.2 306.635 24.32 307.995 24.32C309.475 24.32 310.475 24.04 310.475 22.32C310.475 18.68 308.555 12.2 304.075 12.2C298.315 12.2 297.955 21.68 297.955 25.76C297.955 29.68 299.235 38.92 304.515 38.92C308.555 38.92 310.715 34.44 310.715 30.92C310.715 30.6 310.675 30.24 310.315 30.16ZM301.955 20.24V19.36C301.955 18.08 301.955 15.32 303.795 15.32C305.675 15.32 307.035 18.64 307.035 20.16C307.035 21.04 306.475 21.04 305.795 21.12C304.835 21.24 303.915 21.56 302.955 21.56C302.675 21.56 301.875 21.52 301.875 21.12C301.875 20.8 301.915 20.52 301.955 20.24ZM318.259 38.8C318.299 38.56 318.339 38.32 318.339 38.04C318.339 36.84 318.019 35.68 317.899 34.48C317.539 30.96 317.619 27.44 317.619 23.92C317.619 23 317.499 22.12 316.379 22.12C314.539 22.12 314.179 22.68 314.179 24.44C314.179 25.92 314.499 27.4 314.659 28.92C314.939 31.48 314.859 34.12 314.859 36.68C314.859 39 315.099 39.08 317.339 39.08C317.659 39.08 318.019 39.08 318.259 38.8ZM314.659 18.72C315.139 18.72 315.619 18.84 316.099 18.84C316.939 18.84 317.219 18.24 317.219 17.48C317.219 16.76 317.059 16.08 317.019 15.36C317.019 14.76 317.099 14.2 317.099 13.6C317.099 12.24 316.099 12.04 314.939 12.04C314.579 12.04 314.219 12.04 313.899 12.12C313.739 12.2 313.699 12.4 313.699 12.56C313.699 13.12 313.939 13.6 314.019 14.12C314.179 15.28 314.099 16.44 314.099 17.6C314.099 17.96 314.099 18.4 314.219 18.76C314.379 18.72 314.499 18.72 314.659 18.72ZM335.735 30.4C335.375 27.36 335.575 24.32 335.575 21.28C335.575 19.48 335.375 17.72 335.375 15.96C335.375 15.24 335.495 14.56 335.495 13.84C335.495 12.92 333.375 12.52 332.695 12.52C332.135 12.52 332.135 13.12 332.135 13.52C332.135 18.52 332.735 23.48 332.735 28.48C332.735 28.96 332.735 29.4 332.615 29.88C330.735 27.2 326.375 14.12 325.455 13.4C324.935 13.04 324.295 12.88 323.655 12.88C322.855 12.88 322.415 13.32 322.415 14.12C322.415 14.96 322.695 15.76 322.815 16.56C323.055 18.36 323.095 20.24 323.095 22.04C323.095 24.36 322.975 26.68 322.975 28.96C322.975 31.84 323.135 34.64 323.455 37.48C323.535 38.04 323.535 38.56 324.255 38.56C324.815 38.56 325.375 38.64 325.935 38.64C326.735 38.64 326.735 37.44 326.735 36.88C326.735 32.76 326.095 28.68 325.695 24.6C325.535 23.08 325.335 21.6 325.335 20.12C325.335 19.96 325.375 19.76 325.415 19.6C326.095 20.08 327.775 25.24 328.215 26.36C329.215 29 330.615 31.48 331.575 34.12C331.815 34.72 332.175 36.28 332.695 36.6C333.055 36.8 334.455 36.8 334.895 36.8C336.015 36.8 336.015 34.88 336.015 34.12C336.015 32.88 335.855 31.64 335.735 30.4ZM348.861 26.68C347.461 24.12 343.381 20.96 343.381 17.96C343.381 17.44 343.461 16.24 344.221 16.24C345.901 16.24 344.501 18.4 346.461 18.4C347.101 18.4 347.741 18.32 348.381 18.24C348.301 16.04 346.701 13.44 344.301 13.44C342.021 13.44 340.501 15.6 340.501 17.72C340.501 23.24 347.381 26 347.381 32C347.381 33.04 346.901 34.8 345.581 34.8C343.981 34.8 344.101 32.8 344.101 31.68C344.101 30.8 343.261 30.24 342.421 30.24C341.341 30.24 340.941 31.12 340.941 32.08C340.941 34.6 342.741 37.68 345.541 37.68C348.621 37.68 350.221 34.56 350.221 31.84C350.221 30.04 349.701 28.24 348.861 26.68ZM374.873 24.8C374.753 23.68 374.713 22.6 374.713 21.48C374.713 19.16 374.873 16.84 374.873 14.52C374.873 13.2 374.753 11.88 374.753 10.56C374.753 9.72 374.953 8.88 374.953 8.04C374.953 6.84 374.433 6.76 373.393 6.76C372.673 6.76 371.393 6.88 371.393 7.84C371.393 8.36 371.513 8.84 371.513 9.32C371.513 11.64 371.473 13.96 371.473 16.32C371.473 19.88 371.473 23.52 371.793 27.08C371.833 27.4 371.873 27.72 371.873 28.08C371.873 28.48 371.513 28.72 371.193 28.92C370.033 29.72 368.553 29.84 367.393 30.64C366.233 31.44 365.393 32.64 364.793 33.88C364.393 34.8 364.113 35.8 364.113 36.8C364.113 41.24 368.753 43.4 372.473 44.16C372.953 44.24 373.393 44.36 373.873 44.36C375.033 44.36 375.033 42.96 375.033 42.12C375.033 41.04 374.913 39.96 374.913 38.84C374.913 36.28 375.113 33.68 375.113 31.12C375.113 29 375.033 26.88 374.873 24.8ZM371.713 40.52C371.673 40.68 371.473 40.76 371.313 40.76C370.633 40.76 368.633 39.64 368.193 39.12C367.673 38.48 367.393 37.68 367.393 36.84C367.393 34.92 368.953 33.2 370.713 32.64C370.793 32.6 371.353 32.4 371.393 32.4C371.513 32.4 371.593 33.12 371.633 33.24C371.793 34.4 371.673 35.56 371.673 36.72C371.673 37.64 371.873 38.56 371.873 39.48C371.873 39.84 371.833 40.16 371.713 40.52ZM384.095 8.44C383.855 6.96 383.375 7.08 382.615 7.08C382.055 7.08 381.375 6.72 381.055 7.72C380.975 7.84 380.975 8 380.975 8.24C380.935 9.32 380.895 10.4 380.855 11.44C380.815 12.24 380.655 14.64 381.015 15.28C381.295 15.88 381.375 15.8 381.815 15.76C382.455 15.6 382.575 15.52 383.255 15.44C383.535 15.36 383.815 15.04 383.855 14.48C383.935 12.92 384.335 9.96 384.095 8.48V8.44ZM395.289 12.32C395.169 11.28 395.289 10.28 395.289 9.24C395.289 7.92 394.529 7.92 393.449 7.92C392.889 7.92 392.249 7.92 391.769 8.24C391.209 8.6 391.249 11.72 391.169 12.48C390.449 19.72 389.289 26.88 388.489 34.08C388.289 36.2 387.969 38.28 387.689 40.4C387.489 42.36 387.329 42.96 389.009 43.08C389.249 43.12 389.529 43.2 389.809 43.2C390.649 43.2 390.569 42.16 390.569 41.56C390.569 39.88 390.809 38.24 390.849 36.6C390.889 35.76 390.889 34.8 391.769 34.36C391.969 34.28 393.649 34.36 393.889 34.36C394.969 34.32 395.009 36.6 395.249 38.16C395.449 39.6 395.089 43.12 395.969 43.12C396.809 43.12 397.529 43.04 398.169 42.6C398.569 42.32 398.209 38.76 398.009 37.2C397.049 28.92 396.649 20.56 395.289 12.32ZM394.249 31.48C394.009 31.64 393.689 31.72 393.409 31.72C392.529 31.72 391.729 31.84 391.769 31.2C391.809 29.72 392.729 21.44 392.969 19.92C393.409 24 394.289 27.08 394.289 30.72C394.289 30.96 394.289 31.24 394.249 31.48ZM393.009 19.76C393.009 19.68 393.009 19.68 393.009 19.64C393.009 19.68 393.009 19.72 393.009 19.76ZM409.496 25.92C409.216 24.76 408.576 23.68 408.576 22.48C408.576 22.12 408.696 21.76 408.936 21.48C409.256 21.2 410.056 21.04 410.496 20.84C411.896 20.04 412.896 17.2 412.896 15.64C412.896 11.76 408.616 9.88 405.256 9.88C404.376 9.88 403.536 10.04 403.536 11.08C403.536 11.88 403.736 12.64 403.736 13.44C403.736 16.56 403.616 19.72 403.616 22.84C403.616 28.36 403.696 33.92 403.696 39.44C403.696 41.16 403.696 41.28 405.456 41.28C406.216 41.28 406.616 41.12 406.616 40.28V33.48C406.616 30.16 406.296 26.84 406.296 23.52C406.296 23.2 406.296 22.84 406.376 22.52C407.056 23.92 409.616 34.6 409.936 36.64C410.056 37.16 410.176 39.56 410.896 39.56C411.496 39.56 412.976 39.12 412.976 38.36C412.976 37.64 412.536 36.92 412.296 36.24C411.056 32.92 410.256 29.36 409.496 25.92ZM406.496 19V16.88C406.496 15.8 406.256 14.76 406.256 13.72C406.256 13.08 406.536 12.32 407.256 12.32C408.816 12.32 410.136 14.16 410.136 15.6C410.136 16.28 409.936 16.92 409.536 17.48C409.176 18 407.416 19.32 406.776 19.32C406.616 19.32 406.496 19.2 406.496 19ZM425.602 30.48C425.242 30.32 423.682 29.96 423.682 29.48C423.682 29.44 424.202 29 424.282 28.92C426.162 26.52 426.882 25.2 426.882 22.04C426.882 18.68 425.802 14.48 422.762 12.56C421.682 11.92 419.882 11.28 418.642 11.28C417.482 11.28 417.042 11.76 417.042 12.92C417.042 13.52 417.162 14.08 417.162 14.68C417.242 16.68 417.162 18.64 417.162 20.64C417.162 25.92 417.242 31.16 417.242 36.44C417.242 37.2 417.242 37.96 417.322 38.68C417.402 39.32 417.322 39.88 418.082 39.88C421.082 39.88 429.642 39.92 429.642 35.48C429.642 33.36 427.442 31.28 425.602 30.48ZM421.762 36.88C421.562 36.92 421.322 36.96 421.122 36.96C420.442 36.96 420.282 36.6 420.282 36C420.282 35.04 420.362 34.08 420.362 33.12C420.362 32.6 420.402 32.24 421.002 32.24C422.362 32.24 424.922 32.92 424.922 34.64C424.922 36.28 423.002 36.6 421.762 36.88ZM420.282 27.32C420.402 26.92 420.442 26.48 420.442 26.08C420.442 25.12 420.242 24.16 420.202 23.2C420.162 21.88 420.242 20.6 420.242 19.28C420.242 18.24 420.042 17.2 420.042 16.16C420.042 16.04 420.042 15.44 420.242 15.44C420.722 15.44 421.442 16.48 421.722 16.84C422.842 18.28 423.402 20.08 423.402 21.88C423.402 22.48 423.322 23.04 423.242 23.6C423.042 24.52 421.522 27.92 420.482 27.92C420.442 27.92 420.362 27.88 420.282 27.88C420.242 27.8 420.202 27.68 420.202 27.6C420.202 27.52 420.242 27.4 420.282 27.32ZM439.887 25.92C439.607 24.76 438.967 23.68 438.967 22.48C438.967 22.12 439.087 21.76 439.327 21.48C439.647 21.2 440.447 21.04 440.887 20.84C442.287 20.04 443.287 17.2 443.287 15.64C443.287 11.76 439.007 9.88 435.647 9.88C434.767 9.88 433.927 10.04 433.927 11.08C433.927 11.88 434.127 12.64 434.127 13.44C434.127 16.56 434.007 19.72 434.007 22.84C434.007 28.36 434.087 33.92 434.087 39.44C434.087 41.16 434.087 41.28 435.847 41.28C436.607 41.28 437.007 41.12 437.007 40.28V33.48C437.007 30.16 436.687 26.84 436.687 23.52C436.687 23.2 436.687 22.84 436.767 22.52C437.447 23.92 440.007 34.6 440.327 36.64C440.447 37.16 440.567 39.56 441.287 39.56C441.887 39.56 443.367 39.12 443.367 38.36C443.367 37.64 442.927 36.92 442.687 36.24C441.447 32.92 440.647 29.36 439.887 25.92ZM436.887 19V16.88C436.887 15.8 436.647 14.76 436.647 13.72C436.647 13.08 436.927 12.32 437.647 12.32C439.207 12.32 440.527 14.16 440.527 15.6C440.527 16.28 440.327 16.92 439.927 17.48C439.567 18 437.807 19.32 437.167 19.32C437.007 19.32 436.887 19.2 436.887 19ZM458.713 30.16H458.553C457.833 30.16 457.153 30.04 456.433 30.04C456.113 30.04 455.713 30.04 455.433 30.24C454.633 30.72 455.593 35.68 452.953 35.68C450.273 35.68 450.313 29.88 450.113 28.04C450.033 27.32 449.913 26.6 449.913 25.88C449.913 24.48 451.193 24.2 452.313 24.2C453.673 24.2 455.033 24.32 456.393 24.32C457.873 24.32 458.873 24.04 458.873 22.32C458.873 18.68 456.953 12.2 452.473 12.2C446.713 12.2 446.353 21.68 446.353 25.76C446.353 29.68 447.633 38.92 452.913 38.92C456.953 38.92 459.113 34.44 459.113 30.92C459.113 30.6 459.073 30.24 458.713 30.16ZM450.353 20.24V19.36C450.353 18.08 450.353 15.32 452.193 15.32C454.073 15.32 455.433 18.64 455.433 20.16C455.433 21.04 454.873 21.04 454.193 21.12C453.233 21.24 452.313 21.56 451.353 21.56C451.073 21.56 450.273 21.52 450.273 21.12C450.273 20.8 450.313 20.52 450.353 20.24ZM470.697 26.68C469.297 24.12 465.217 20.96 465.217 17.96C465.217 17.44 465.297 16.24 466.057 16.24C467.737 16.24 466.337 18.4 468.297 18.4C468.937 18.4 469.577 18.32 470.217 18.24C470.137 16.04 468.537 13.44 466.137 13.44C463.857 13.44 462.337 15.6 462.337 17.72C462.337 23.24 469.217 26 469.217 32C469.217 33.04 468.737 34.8 467.417 34.8C465.817 34.8 465.937 32.8 465.937 31.68C465.937 30.8 465.097 30.24 464.257 30.24C463.177 30.24 462.777 31.12 462.777 32.08C462.777 34.6 464.577 37.68 467.377 37.68C470.457 37.68 472.057 34.56 472.057 31.84C472.057 30.04 471.537 28.24 470.697 26.68ZM496.709 24.8C496.589 23.68 496.549 22.6 496.549 21.48C496.549 19.16 496.709 16.84 496.709 14.52C496.709 13.2 496.589 11.88 496.589 10.56C496.589 9.72 496.789 8.88 496.789 8.04C496.789 6.84 496.269 6.76 495.229 6.76C494.509 6.76 493.229 6.88 493.229 7.84C493.229 8.36 493.349 8.84 493.349 9.32C493.349 11.64 493.309 13.96 493.309 16.32C493.309 19.88 493.309 23.52 493.629 27.08C493.669 27.4 493.709 27.72 493.709 28.08C493.709 28.48 493.349 28.72 493.029 28.92C491.869 29.72 490.389 29.84 489.229 30.64C488.069 31.44 487.229 32.64 486.629 33.88C486.229 34.8 485.949 35.8 485.949 36.8C485.949 41.24 490.589 43.4 494.309 44.16C494.789 44.24 495.229 44.36 495.709 44.36C496.869 44.36 496.869 42.96 496.869 42.12C496.869 41.04 496.749 39.96 496.749 38.84C496.749 36.28 496.949 33.68 496.949 31.12C496.949 29 496.869 26.88 496.709 24.8ZM493.549 40.52C493.509 40.68 493.309 40.76 493.149 40.76C492.469 40.76 490.469 39.64 490.029 39.12C489.509 38.48 489.229 37.68 489.229 36.84C489.229 34.92 490.789 33.2 492.549 32.64C492.629 32.6 493.189 32.4 493.229 32.4C493.349 32.4 493.429 33.12 493.469 33.24C493.629 34.4 493.509 35.56 493.509 36.72C493.509 37.64 493.709 38.56 493.709 39.48C493.709 39.84 493.669 40.16 493.549 40.52ZM506.93 38.8C506.97 38.56 507.01 38.32 507.01 38.04C507.01 36.84 506.69 35.68 506.57 34.48C506.21 30.96 506.29 27.44 506.29 23.92C506.29 23 506.17 22.12 505.05 22.12C503.21 22.12 502.85 22.68 502.85 24.44C502.85 25.92 503.17 27.4 503.33 28.92C503.61 31.48 503.53 34.12 503.53 36.68C503.53 39 503.77 39.08 506.01 39.08C506.33 39.08 506.69 39.08 506.93 38.8ZM503.33 18.72C503.81 18.72 504.29 18.84 504.77 18.84C505.61 18.84 505.89 18.24 505.89 17.48C505.89 16.76 505.73 16.08 505.69 15.36C505.69 14.76 505.77 14.2 505.77 13.6C505.77 12.24 504.77 12.04 503.61 12.04C503.25 12.04 502.89 12.04 502.57 12.12C502.41 12.2 502.37 12.4 502.37 12.56C502.37 13.12 502.61 13.6 502.69 14.12C502.85 15.28 502.77 16.44 502.77 17.6C502.77 17.96 502.77 18.4 502.89 18.76C503.05 18.72 503.17 18.72 503.33 18.72ZM531.527 11.44C530.567 9.2 528.967 7.52 526.407 7.52C525.047 7.52 518.687 8.32 517.527 8.72C512.487 10.44 512.367 19.4 512.367 23.72C512.367 28.72 512.727 33.72 512.727 38.72C512.727 39.92 512.447 41.08 512.447 42.28C512.447 43.76 513.087 44.32 514.607 44.32C515.967 44.32 516.007 43.24 516.007 42.16C516.007 41.04 515.767 40 515.767 38.84C515.647 34.52 515.487 30.12 515.487 25.8C515.487 25.28 515.527 25.08 516.087 25.08C517.527 25.08 519.047 25.28 520.487 25.32C520.767 29.92 521.087 34.08 521.087 38.72C521.087 39.92 520.807 41.08 520.807 42.28C520.807 43.76 521.407 44.32 522.967 44.32C524.287 44.32 524.367 43.24 524.367 42.16C524.367 41.04 524.127 39.96 524.127 38.84C524.087 37.6 524.087 36.32 524.087 35.04C524.087 31.84 524.127 28.6 524.127 25.4H524.807C525.447 25.4 530.127 25.44 530.367 24.8C530.487 24.52 530.527 24.16 530.527 23.84C530.527 23.44 530.367 21.56 529.967 21.36C529.807 21.28 529.407 21.32 529.247 21.32C527.567 21.32 525.847 21.48 524.167 21.6C524.167 19.56 523.647 12.8 525.767 11.6C526.007 11.44 526.407 11.28 526.767 11.28C528.607 11.28 529.327 14.72 529.567 16.12C530.847 15.88 532.327 16.04 532.327 14.28C532.327 13.36 531.887 12.28 531.527 11.44ZM516.167 21.96C515.647 21.68 515.647 19.84 515.647 19.36C515.647 17.32 516.087 14.16 517.407 12.52C518.327 11.44 520.447 11.12 521.807 11.08C520.447 14.16 520.327 18.52 520.367 21.88C519.247 21.96 518.127 22.04 516.967 22.04C516.727 22.04 516.407 22.04 516.167 21.96ZM547.736 30.16H547.576C546.856 30.16 546.176 30.04 545.456 30.04C545.136 30.04 544.736 30.04 544.456 30.24C543.656 30.72 544.616 35.68 541.976 35.68C539.296 35.68 539.336 29.88 539.136 28.04C539.056 27.32 538.936 26.6 538.936 25.88C538.936 24.48 540.216 24.2 541.336 24.2C542.696 24.2 544.056 24.32 545.416 24.32C546.896 24.32 547.896 24.04 547.896 22.32C547.896 18.68 545.976 12.2 541.496 12.2C535.736 12.2 535.376 21.68 535.376 25.76C535.376 29.68 536.656 38.92 541.936 38.92C545.976 38.92 548.136 34.44 548.136 30.92C548.136 30.6 548.096 30.24 547.736 30.16ZM543.176 6.2C542.416 6.76 539.296 9.2 539.296 10.08C539.296 10.72 540.456 10.92 540.936 10.92C542.176 10.92 545.576 8.88 545.576 7.52C545.576 6.92 544.656 5.88 544.016 5.88C543.736 5.88 543.416 6 543.176 6.2ZM539.376 20.24V19.36C539.376 18.08 539.376 15.32 541.216 15.32C543.096 15.32 544.456 18.64 544.456 20.16C544.456 21.04 543.896 21.04 543.216 21.12C542.256 21.24 541.336 21.56 540.376 21.56C540.096 21.56 539.296 21.52 539.296 21.12C539.296 20.8 539.336 20.52 539.376 20.24ZM559.809 25.92C559.529 24.76 558.889 23.68 558.889 22.48C558.889 22.12 559.009 21.76 559.249 21.48C559.569 21.2 560.369 21.04 560.809 20.84C562.209 20.04 563.209 17.2 563.209 15.64C563.209 11.76 558.929 9.88 555.569 9.88C554.689 9.88 553.849 10.04 553.849 11.08C553.849 11.88 554.049 12.64 554.049 13.44C554.049 16.56 553.929 19.72 553.929 22.84C553.929 28.36 554.009 33.92 554.009 39.44C554.009 41.16 554.009 41.28 555.769 41.28C556.529 41.28 556.929 41.12 556.929 40.28V33.48C556.929 30.16 556.609 26.84 556.609 23.52C556.609 23.2 556.609 22.84 556.689 22.52C557.369 23.92 559.929 34.6 560.249 36.64C560.369 37.16 560.489 39.56 561.209 39.56C561.809 39.56 563.289 39.12 563.289 38.36C563.289 37.64 562.849 36.92 562.609 36.24C561.369 32.92 560.569 29.36 559.809 25.92ZM556.809 19V16.88C556.809 15.8 556.569 14.76 556.569 13.72C556.569 13.08 556.849 12.32 557.569 12.32C559.129 12.32 560.449 14.16 560.449 15.6C560.449 16.28 560.249 16.92 559.849 17.48C559.489 18 557.729 19.32 557.089 19.32C556.929 19.32 556.809 19.2 556.809 19ZM578.635 30.16H578.475C577.755 30.16 577.075 30.04 576.355 30.04C576.035 30.04 575.635 30.04 575.355 30.24C574.555 30.72 575.515 35.68 572.875 35.68C570.195 35.68 570.235 29.88 570.035 28.04C569.955 27.32 569.835 26.6 569.835 25.88C569.835 24.48 571.115 24.2 572.235 24.2C573.595 24.2 574.955 24.32 576.315 24.32C577.795 24.32 578.795 24.04 578.795 22.32C578.795 18.68 576.875 12.2 572.395 12.2C566.635 12.2 566.275 21.68 566.275 25.76C566.275 29.68 567.555 38.92 572.835 38.92C576.875 38.92 579.035 34.44 579.035 30.92C579.035 30.6 578.995 30.24 578.635 30.16ZM570.275 20.24V19.36C570.275 18.08 570.275 15.32 572.115 15.32C573.995 15.32 575.355 18.64 575.355 20.16C575.355 21.04 574.795 21.04 574.115 21.12C573.155 21.24 572.235 21.56 571.275 21.56C570.995 21.56 570.195 21.52 570.195 21.12C570.195 20.8 570.235 20.52 570.275 20.24ZM595.579 30.4C595.219 27.36 595.419 24.32 595.419 21.28C595.419 19.48 595.219 17.72 595.219 15.96C595.219 15.24 595.339 14.56 595.339 13.84C595.339 12.92 593.219 12.52 592.539 12.52C591.979 12.52 591.979 13.12 591.979 13.52C591.979 18.52 592.579 23.48 592.579 28.48C592.579 28.96 592.579 29.4 592.459 29.88C590.579 27.2 586.219 14.12 585.299 13.4C584.779 13.04 584.139 12.88 583.499 12.88C582.699 12.88 582.259 13.32 582.259 14.12C582.259 14.96 582.539 15.76 582.659 16.56C582.899 18.36 582.939 20.24 582.939 22.04C582.939 24.36 582.819 26.68 582.819 28.96C582.819 31.84 582.979 34.64 583.299 37.48C583.379 38.04 583.379 38.56 584.099 38.56C584.659 38.56 585.219 38.64 585.779 38.64C586.579 38.64 586.579 37.44 586.579 36.88C586.579 32.76 585.939 28.68 585.539 24.6C585.379 23.08 585.179 21.6 585.179 20.12C585.179 19.96 585.219 19.76 585.259 19.6C585.939 20.08 587.619 25.24 588.059 26.36C589.059 29 590.459 31.48 591.419 34.12C591.659 34.72 592.019 36.28 592.539 36.6C592.899 36.8 594.299 36.8 594.739 36.8C595.859 36.8 595.859 34.88 595.859 34.12C595.859 32.88 595.699 31.64 595.579 30.4ZM611.265 40.36C610.865 40 609.545 38.8 609.105 38.8C608.665 38.8 608.225 39.88 607.265 39.88C604.585 39.88 604.585 34.56 604.585 32.72C604.585 27.72 604.865 22.68 605.185 17.68C605.785 17.68 609.265 17.68 609.265 16.96C609.265 16.56 609.145 16.2 609.145 15.8C609.145 15.56 609.185 15.36 609.185 15.12C609.185 14.52 608.505 14.44 608.065 14.44C607.265 14.44 606.505 14.64 605.705 14.64H605.385C605.505 12.88 605.745 11.12 605.745 9.36C605.745 8.12 604.945 7.48 603.705 7.48C601.825 7.48 602.305 10.28 602.305 11.44C602.305 12.44 602.225 13.44 602.225 14.48H601.945C599.825 14.48 599.545 14.52 599.545 16.72C599.545 16.88 599.545 17.04 599.585 17.16C600.145 17.56 601.465 17.6 602.185 17.64C602.145 22.28 601.625 26.88 601.625 31.52C601.625 35.24 601.625 43.64 606.945 43.64C608.265 43.64 611.425 42.24 611.425 40.68C611.425 40.56 611.345 40.44 611.265 40.36ZM629 35.12C628.64 35.12 628.2 35.2 628 35.52C627.84 35.8 627.76 37.76 627.76 38.2C627.76 38.8 628.04 39.16 628.68 39.16C629.4 39.16 630.16 39.04 630.88 38.96C631.52 38.92 631.44 38.16 631.44 37.72C631.44 35.36 631.24 35.12 629 35.12ZM634.76 12.2C633.92 11 632.52 10.12 631.04 10.12C628.08 10.12 626.56 13.28 626.56 15.84C626.56 16.84 626.84 18.04 628.04 18.04C628.88 18.04 629.8 17.48 629.8 16.6C629.8 16.04 629.6 15.56 629.6 15.04C629.6 14.2 630.12 13.08 631.08 13.08C632.6 13.08 633.12 15.24 633.12 16.4C633.12 21.2 629.68 23.52 628.12 27.52C627.96 27.92 627.76 31.4 627.76 31.96C627.76 32.36 628.04 32.68 628.44 32.68H629.92C630.32 32.68 630.6 32.4 630.64 32C630.96 28.84 631.56 26.92 633.24 24.2C633.92 23.16 634.68 22.12 635.16 20.96C635.72 19.6 636.04 18.04 636.04 16.6C636.04 15.04 635.68 13.48 634.76 12.2Z" fill="white"/>
</g>
<defs>
<filter id="filter0_d" x="0.0820312" y="0.880005" width="644.958" height="54.6" filterUnits="userSpaceOnUse" color-interpolation-filters="sRGB">
<feFlood flood-opacity="0" result="BackgroundImageFix"/>
<feColorMatrix in="SourceAlpha" type="matrix" values="0 0 0 0 0 0 0 0 0 0 0 0 0 0 0 0 0 0 127 0"/>
<feOffset dx="1" dy="3"/>
<feGaussianBlur stdDeviation="4"/>
<feColorMatrix type="matrix" values="0 0 0 0 0.130833 0 0 0 0 0.415588 0 0 0 0 0.654167 0 0 0 1 0"/>
<feBlend mode="normal" in2="BackgroundImageFix" result="effect1_dropShadow"/>
<feBlend mode="normal" in="SourceGraphic" in2="effect1_dropShadow" result="shape"/>
</filter>
</defs>
</svg>
