<svg width="113" height="34" viewBox="0 0 113 34" fill="none" xmlns="http://www.w3.org/2000/svg">
<path d="M7.95197 28.732C14.036 28.732 15.656 21.208 15.656 16.42C15.656 11.488 14.108 5.26 8.02397 5.26C2.44397 5.26 0.103969 11.272 0.103969 16.024C0.103969 20.992 1.57997 28.732 7.95197 28.732ZM8.02397 8.14C11.768 8.14 12.992 13.324 12.992 16.276C12.992 19.516 12.344 25.924 7.95197 25.924C3.12797 25.924 2.94797 19.804 2.94797 16.312C2.94797 13 3.77597 8.14 8.02397 8.14ZM33.4557 25.096C33.3477 23.224 32.3397 6.916 32.1597 6.52C31.9437 5.98 31.3317 5.728 30.7917 5.728C30.1437 5.728 29.6037 6.088 29.6037 6.808C29.6037 7.528 29.7837 8.212 29.8557 8.932C29.9277 9.94 29.9277 10.912 29.9637 11.884C29.9997 13.288 30.2877 14.692 30.2877 16.096C30.2877 18.508 28.8117 17.932 26.9397 17.932C25.6437 17.932 24.3117 17.932 23.0157 17.788C22.2597 17.716 21.7557 17.536 21.7557 16.636C21.7557 16.06 21.8997 15.484 21.8997 14.908C21.8997 12.82 21.5037 10.768 21.5037 8.716C21.5037 8.104 21.6477 7.564 21.6477 6.952C21.6477 6.484 21.3957 6.124 20.8917 6.124C20.2797 6.124 19.7037 6.196 19.0917 6.196C18.7677 6.196 18.5157 6.268 18.5157 6.664C18.5157 7.06 18.5877 7.42 18.6237 7.78C19.1637 12.46 18.8397 17.14 19.3077 21.82C19.4157 22.792 19.6317 23.764 19.6317 24.772C19.6317 25.312 19.4877 25.852 19.4877 26.428C19.4877 27.364 19.8837 27.508 20.7117 27.508C21.3237 27.508 22.8357 27.328 22.8357 26.536C22.8357 25.744 22.5117 24.988 22.4037 24.196C22.2957 23.332 22.1517 22.468 22.1517 21.604C22.1517 20.488 23.1597 20.272 24.0597 20.272C25.1397 20.272 26.1837 20.524 27.2997 20.524C27.7317 20.56 28.1637 20.524 28.5957 20.524C29.1717 20.524 30.0357 20.488 30.4317 20.992C30.7917 21.46 30.8277 23.296 30.8997 23.944C31.1157 26.032 30.3957 28.48 33.3837 28.48C33.7437 28.48 33.8157 28.048 33.8157 27.796C33.8157 26.896 33.5277 25.996 33.4557 25.096ZM59.7203 13.504C59.6483 10.768 59.5043 8.032 59.5043 5.296C59.5043 4.396 59.6123 3.532 59.6123 2.668C59.6123 0.795998 59.0723 1.048 57.5243 0.903999C57.2723 0.868 57.0203 0.831998 56.7683 0.831998C56.4443 0.831998 56.2283 1.156 56.2283 1.48C56.2283 9.076 57.0923 17.212 57.2723 24.916C56.8403 24.304 56.5883 22.684 56.3723 21.892C54.5723 15.124 52.3403 8.5 50.6123 1.696C50.2883 0.255999 48.8843 0.759999 47.8763 0.615999C47.7323 0.868 47.7323 1.12 47.7323 1.372C47.7323 3.136 47.9843 4.9 48.0563 6.664C48.3442 15.124 48.7763 23.584 48.7763 32.044C48.7763 33.232 49.7123 33.16 50.5763 33.16C51.5843 33.16 51.9082 32.944 51.9082 31.864C51.9082 30.892 51.7283 29.884 51.6562 28.912C51.3683 24.52 51.5483 20.128 51.0443 15.736C50.9363 14.656 50.7203 13.9 50.7203 11.992C51.4043 13.18 52.2323 16.564 52.6643 17.968C53.9243 22.144 55.2923 26.356 56.2643 30.604C56.4443 31.252 56.6243 33.592 57.5603 33.592C57.9563 33.592 59.7203 33.412 59.9723 33.196C60.1163 33.052 60.1163 32.8 60.1163 32.62C60.1163 31.72 59.9363 30.856 59.9363 29.956C59.9363 28.66 59.9723 27.4 59.9723 26.104C59.9723 21.892 59.7923 17.716 59.7203 13.504ZM71.7957 28.732C77.8797 28.732 79.4997 21.208 79.4997 16.42C79.4997 11.488 77.9517 5.26 71.8677 5.26C66.2877 5.26 63.9477 11.272 63.9477 16.024C63.9477 20.992 65.4237 28.732 71.7957 28.732ZM71.8677 8.14C75.6117 8.14 76.8357 13.324 76.8357 16.276C76.8357 19.516 76.1877 25.924 71.7957 25.924C66.9717 25.924 66.7917 19.804 66.7917 16.312C66.7917 13 67.6197 8.14 71.8677 8.14ZM94.6355 21.46C94.3115 18.724 94.4915 15.988 94.4915 13.252C94.4915 11.632 94.3115 10.048 94.3115 8.464C94.3115 7.816 94.4195 7.204 94.4195 6.556C94.4195 5.728 92.5115 5.368 91.8995 5.368C91.3955 5.368 91.3955 5.908 91.3955 6.268C91.3955 10.768 91.9355 15.232 91.9355 19.732C91.9355 20.164 91.9355 20.56 91.8275 20.992C90.1355 18.58 86.2115 6.808 85.3835 6.16C84.9155 5.836 84.3395 5.692 83.7635 5.692C83.0435 5.692 82.6475 6.088 82.6475 6.808C82.6475 7.564 82.8995 8.284 83.0075 9.004C83.2235 10.624 83.2595 12.316 83.2595 13.936C83.2595 16.024 83.1515 18.112 83.1515 20.164C83.1515 22.756 83.2955 25.276 83.5835 27.832C83.6555 28.336 83.6555 28.804 84.3035 28.804C84.8075 28.804 85.3115 28.876 85.8155 28.876C86.5355 28.876 86.5355 27.796 86.5355 27.292C86.5355 23.584 85.9595 19.912 85.5995 16.24C85.4555 14.872 85.2755 13.54 85.2755 12.208C85.2755 12.064 85.3115 11.884 85.3475 11.74C85.9595 12.172 87.4715 16.816 87.8675 17.824C88.7675 20.2 90.0275 22.432 90.8915 24.808C91.1075 25.348 91.4315 26.752 91.8995 27.04C92.2235 27.22 93.4835 27.22 93.8795 27.22C94.8875 27.22 94.8875 25.492 94.8875 24.808C94.8875 23.692 94.7435 22.576 94.6355 21.46ZM110.732 27.508C110.3 27.508 109.94 27.832 109.94 28.264C109.904 29.236 109.868 30.244 109.868 31.252C109.868 31.396 109.832 31.828 109.94 31.972C110.12 32.224 111.416 32.26 111.74 32.26C112.172 32.26 112.496 31.936 112.496 31.504C112.496 30.46 112.496 29.38 112.46 28.3C112.46 27.904 112.172 27.616 111.74 27.58C111.416 27.544 111.056 27.544 110.732 27.508ZM109.58 5.152C109.94 8.428 109.832 12.244 109.94 15.592C109.94 16.348 109.94 17.104 109.94 17.896C109.94 19.696 109.868 21.496 109.868 23.296C109.868 23.476 109.832 23.872 109.94 24.052C110.084 24.304 111.452 24.34 111.74 24.34C112.172 24.34 112.496 24.016 112.496 23.584C112.496 18.256 112.352 12.892 112.352 7.564C112.352 6.376 112.496 5.224 112.496 4.036C112.496 3.496 112.46 2.992 112.388 2.452C112.28 1.804 112.46 1.552 111.632 1.552C111.236 1.552 109.472 1.588 109.328 2.056C109.4 2.2 109.292 2.74 109.292 2.956C109.292 3.676 109.472 4.432 109.58 5.152Z" fill="white"/>
</svg>
