<svg width="112" height="34" viewBox="0 0 112 34" fill="none" xmlns="http://www.w3.org/2000/svg">
<path d="M8.96644 0.831998C7.88644 0.831998 7.13044 1.372 7.13044 2.524C7.13044 2.92 7.16644 3.316 7.20244 3.712C7.74244 10.3 8.17444 16.924 8.17444 23.548C8.17444 25.204 8.17444 29.992 5.76244 29.992C4.07044 29.992 3.42244 26.932 3.20644 25.672C2.09044 25.78 0.722438 25.852 0.722438 27.328C0.722438 28.228 1.08244 29.056 1.44244 29.884C2.37844 31.792 3.74644 33.376 6.01444 33.376C10.9104 33.376 10.8744 25.672 10.8744 22.288C10.8744 19.552 10.6224 16.852 10.4784 14.152C10.2984 10.444 10.2984 6.7 10.2984 2.992C10.2984 2.056 10.1904 0.831998 8.96644 0.831998ZM15.9915 6.556C15.9915 6.88 17.0715 7.276 17.3595 7.276C18.2235 7.276 20.3835 2.596 20.3835 1.588C20.3835 0.543999 18.8355 0.471998 18.0075 0.471998C17.1435 0.471998 15.9915 5.692 15.9915 6.556ZM31.5148 5.188C31.4068 4.252 31.5148 3.352 31.5148 2.416C31.5148 1.228 30.8308 1.228 29.8588 1.228C29.3548 1.228 28.7788 1.228 28.3468 1.516C27.8428 1.84 27.8788 4.648 27.8068 5.332C27.1588 11.848 26.1148 18.292 25.3948 24.772C25.2148 26.68 24.9268 28.552 24.6748 30.46C24.4948 32.224 24.3508 32.764 25.8628 32.872C26.0788 32.908 26.3308 32.98 26.5828 32.98C27.3388 32.98 27.2668 32.044 27.2668 31.504C27.2668 29.992 27.4828 28.516 27.5188 27.04C27.5548 26.284 27.5548 25.42 28.3468 25.024C28.5268 24.952 30.0388 25.024 30.2548 25.024C31.2268 24.988 31.2628 27.04 31.4788 28.444C31.6588 29.74 31.3348 32.908 32.1268 32.908C32.8828 32.908 33.5308 32.836 34.1068 32.44C34.4668 32.188 34.1428 28.984 33.9628 27.58C33.0988 20.128 32.7388 12.604 31.5148 5.188ZM30.5788 22.432C30.3628 22.576 30.0748 22.648 29.8228 22.648C29.0308 22.648 28.3108 22.756 28.3468 22.18C28.3828 20.848 29.2108 13.396 29.4268 12.028C29.8228 15.7 30.6148 18.472 30.6148 21.748C30.6148 21.964 30.6148 22.216 30.5788 22.432ZM29.4628 11.884C29.4628 11.812 29.4628 11.812 29.4628 11.776C29.4628 11.812 29.4628 11.848 29.4628 11.884ZM46.6776 7.384C45.2736 4.252 42.1416 1.948 38.6856 1.948C38.1816 1.948 37.7856 2.056 37.7856 2.668C37.7856 3.064 37.8576 3.46 37.8936 3.892C38.0376 5.368 38.0376 6.808 38.0736 8.284C38.2536 14.476 38.6856 20.668 38.9376 26.86C39.0096 28.3 39.1176 29.704 39.1176 31.144C39.1176 31.936 39.2976 32.26 40.1616 32.26C46.7136 32.26 48.6576 25.708 48.6576 20.524C48.6576 16.096 48.4776 11.488 46.6776 7.384ZM42.2856 28.948C41.7456 28.948 41.7456 28.264 41.7456 27.904C41.7456 25.816 41.5656 23.836 41.4216 21.748C41.1696 18.184 40.9896 14.62 40.7016 11.056C40.6656 10.588 40.1976 4.936 40.3776 4.936C43.4016 4.936 45.7056 12.352 45.7056 17.716C45.7056 19.696 45.7416 28.948 42.2856 28.948ZM60.2293 28.732C66.3133 28.732 67.9333 21.208 67.9333 16.42C67.9333 11.488 66.3853 5.26 60.3013 5.26C54.7213 5.26 52.3813 11.272 52.3813 16.024C52.3813 20.992 53.8573 28.732 60.2293 28.732ZM60.3013 8.14C64.0453 8.14 65.2693 13.324 65.2693 16.276C65.2693 19.516 64.6213 25.924 60.2293 25.924C55.4053 25.924 55.2253 19.804 55.2253 16.312C55.2253 13 56.0533 8.14 60.3013 8.14ZM77.4891 17.428C77.2371 16.384 76.6611 15.412 76.6611 14.332C76.6611 14.008 76.7691 13.684 76.9851 13.432C77.2731 13.18 77.9931 13.036 78.3891 12.856C79.6491 12.136 80.5491 9.58 80.5491 8.176C80.5491 4.684 76.6971 2.992 73.6731 2.992C72.8811 2.992 72.1251 3.136 72.1251 4.072C72.1251 4.792 72.3051 5.476 72.3051 6.196C72.3051 9.004 72.1971 11.848 72.1971 14.656C72.1971 19.624 72.2691 24.628 72.2691 29.596C72.2691 31.144 72.2691 31.252 73.8531 31.252C74.5371 31.252 74.8971 31.108 74.8971 30.352V24.232C74.8971 21.244 74.6091 18.256 74.6091 15.268C74.6091 14.98 74.6091 14.656 74.6811 14.368C75.2931 15.628 77.5971 25.24 77.8851 27.076C77.9931 27.544 78.1011 29.704 78.7491 29.704C79.2891 29.704 80.6211 29.308 80.6211 28.624C80.6211 27.976 80.2251 27.328 80.0091 26.716C78.8931 23.728 78.1731 20.524 77.4891 17.428ZM74.7891 11.2V9.292C74.7891 8.32 74.5731 7.384 74.5731 6.448C74.5731 5.872 74.8251 5.188 75.4731 5.188C76.8771 5.188 78.0651 6.844 78.0651 8.14C78.0651 8.752 77.8851 9.328 77.5251 9.832C77.2011 10.3 75.6171 11.488 75.0411 11.488C74.8971 11.488 74.7891 11.38 74.7891 11.2ZM94.4327 21.244H94.2887C93.6407 21.244 93.0287 21.136 92.3807 21.136C92.0927 21.136 91.7327 21.136 91.4807 21.316C90.7607 21.748 91.6247 26.212 89.2487 26.212C86.8367 26.212 86.8727 20.992 86.6927 19.336C86.6207 18.688 86.5127 18.04 86.5127 17.392C86.5127 16.132 87.6647 15.88 88.6727 15.88C89.8967 15.88 91.1207 15.988 92.3447 15.988C93.6767 15.988 94.5767 15.736 94.5767 14.188C94.5767 10.912 92.8487 5.08 88.8167 5.08C83.6327 5.08 83.3087 13.612 83.3087 17.284C83.3087 20.812 84.4607 29.128 89.2127 29.128C92.8487 29.128 94.7927 25.096 94.7927 21.928C94.7927 21.64 94.7567 21.316 94.4327 21.244ZM86.9087 12.316V11.524C86.9087 10.372 86.9087 7.888 88.5647 7.888C90.2567 7.888 91.4807 10.876 91.4807 12.244C91.4807 13.036 90.9767 13.036 90.3647 13.108C89.5007 13.216 88.6727 13.504 87.8087 13.504C87.5567 13.504 86.8367 13.468 86.8367 13.108C86.8367 12.82 86.8727 12.568 86.9087 12.316ZM109.501 27.508C109.069 27.508 108.709 27.832 108.709 28.264C108.673 29.236 108.637 30.244 108.637 31.252C108.637 31.396 108.601 31.828 108.709 31.972C108.889 32.224 110.185 32.26 110.509 32.26C110.941 32.26 111.265 31.936 111.265 31.504C111.265 30.46 111.265 29.38 111.229 28.3C111.229 27.904 110.941 27.616 110.509 27.58C110.185 27.544 109.825 27.544 109.501 27.508ZM108.349 5.152C108.709 8.428 108.601 12.244 108.709 15.592C108.709 16.348 108.709 17.104 108.709 17.896C108.709 19.696 108.637 21.496 108.637 23.296C108.637 23.476 108.601 23.872 108.709 24.052C108.853 24.304 110.221 24.34 110.509 24.34C110.941 24.34 111.265 24.016 111.265 23.584C111.265 18.256 111.121 12.892 111.121 7.564C111.121 6.376 111.265 5.224 111.265 4.036C111.265 3.496 111.229 2.992 111.157 2.452C111.049 1.804 111.229 1.552 110.401 1.552C110.005 1.552 108.241 1.588 108.097 2.056C108.169 2.2 108.061 2.74 108.061 2.956C108.061 3.676 108.241 4.432 108.349 5.152Z" fill="white"/>
</svg>
