<svg width="409" height="53" viewBox="0 0 409 53" fill="none" xmlns="http://www.w3.org/2000/svg">
<g filter="url(#filter0_d)">
<path d="M16.8666 7.28C16.3866 7.08 15.9066 7.04 15.4266 7.04C14.5066 7.04 13.5866 7.2 12.6266 7.2C11.4666 7.2 10.2666 7.24 9.14656 6.96C8.74656 6.88 8.38656 6.68 7.98656 6.68C7.34656 6.68 7.22656 8.28 7.22656 8.76C7.22656 9.48 7.34656 10.32 8.30656 10.32C9.02656 10.32 9.66656 9.88 10.3866 9.88C11.6666 9.88 11.5866 10.88 11.5866 11.84C11.7866 19.76 12.3466 27.64 12.5866 35.56V35.68C12.5866 36.72 12.4666 37.76 12.4666 38.8C12.4666 39.96 12.6266 40.44 13.9066 40.44C14.7066 40.44 15.8666 40.32 15.8666 39.24C15.8666 38.6 15.6666 38 15.5866 37.4C15.5066 36.68 15.5466 36 15.5466 35.28C15.5466 34.64 15.5066 33.96 15.4666 33.28C15.1466 29.6 14.9466 25.92 14.7866 22.24C14.6266 18.68 14.6666 15.16 14.3066 11.64C14.2666 11.36 14.2266 11.08 14.2266 10.76C14.2266 10.48 14.2266 9.96 14.6266 9.96C15.1866 9.96 15.7066 10.44 16.3066 10.44C17.1066 10.44 17.6666 9.68 17.6666 8.92C17.6666 8.32 17.4266 7.6 16.8666 7.28ZM36.2556 11H35.8556C34.8556 11 33.6556 11.04 33.6556 12.36C33.6556 13.12 33.7356 13.84 33.7356 14.56C33.7356 16.56 33.6956 18.56 33.6956 20.56C33.6956 23.76 34.5356 32.08 29.5756 32.08C24.9756 32.08 24.7756 26.28 24.7756 22.92C24.7756 19.4 24.8956 15.92 24.8956 12.4C24.8956 11.84 24.2156 11.84 23.8556 11.84C23.0956 11.84 22.6156 11.88 22.0156 12.4C21.8556 12.56 21.6956 20.08 21.6956 21C21.6956 25.68 22.1356 34.96 28.6556 34.96C35.9756 34.96 37.1756 27.04 37.1756 21.32C37.1756 18.28 36.8156 15.28 36.8156 12.24C36.8156 11.72 36.8156 11.24 36.2556 11ZM64.1244 10.88C63.8444 10.68 63.0444 10.68 62.6844 10.68C62.4444 10.68 62.2444 10.68 62.0044 10.72C60.8444 11.04 61.0844 11.04 61.0044 12.2C60.8844 14.32 60.3244 16.4 60.1244 18.52C59.7644 22.4 59.1644 26.24 58.5644 30.08C58.1244 29.8 57.6444 25.84 57.4444 25.08C56.9244 23.12 56.5644 21.12 56.0444 19.12C55.6044 17.24 54.9644 15.36 54.5244 13.48C54.1244 11.8 54.4444 10.92 52.3644 10.76L51.8044 10.72C51.4844 10.72 51.0044 10.72 51.0044 11.2C51.0044 11.68 52.3644 16.32 52.6444 17.32C53.9244 22.64 55.3644 27.96 56.5244 33.32C56.6844 34.08 56.8444 35.96 57.6044 36.32C57.9244 36.44 58.3644 36.44 58.6844 36.44C59.1244 36.44 60.0844 36.44 60.4044 36.16C61.0444 35.64 61.0044 32.56 61.1244 31.68C61.6844 27.88 62.3644 24.08 62.8444 20.28C63.2444 17.44 63.2044 13.68 64.4444 11.12H64.2844C64.2044 11.12 64.1244 10.96 64.1244 10.88ZM80.3809 28.16H80.2209C79.5009 28.16 78.8209 28.04 78.1009 28.04C77.7809 28.04 77.3809 28.04 77.1009 28.24C76.3009 28.72 77.2609 33.68 74.6209 33.68C71.9409 33.68 71.9809 27.88 71.7809 26.04C71.7009 25.32 71.5809 24.6 71.5809 23.88C71.5809 22.48 72.8609 22.2 73.9809 22.2C75.3409 22.2 76.7009 22.32 78.0609 22.32C79.5409 22.32 80.5409 22.04 80.5409 20.32C80.5409 16.68 78.6209 10.2 74.1409 10.2C68.3809 10.2 68.0209 19.68 68.0209 23.76C68.0209 27.68 69.3009 36.92 74.5809 36.92C78.6209 36.92 80.7809 32.44 80.7809 28.92C80.7809 28.6 80.7409 28.24 80.3809 28.16ZM72.0209 18.24V17.36C72.0209 16.08 72.0209 13.32 73.8609 13.32C75.7409 13.32 77.1009 16.64 77.1009 18.16C77.1009 19.04 76.5409 19.04 75.8609 19.12C74.9009 19.24 73.9809 19.56 73.0209 19.56C72.7409 19.56 71.9409 19.52 71.9409 19.12C71.9409 18.8 71.9809 18.52 72.0209 18.24ZM98.365 11H97.965C96.965 11 95.765 11.04 95.765 12.36C95.765 13.12 95.845 13.84 95.845 14.56C95.845 16.56 95.805 18.56 95.805 20.56C95.805 23.76 96.645 32.08 91.685 32.08C87.085 32.08 86.885 26.28 86.885 22.92C86.885 19.4 87.005 15.92 87.005 12.4C87.005 11.84 86.325 11.84 85.965 11.84C85.205 11.84 84.725 11.88 84.125 12.4C83.965 12.56 83.805 20.08 83.805 21C83.805 25.68 84.245 34.96 90.765 34.96C98.085 34.96 99.285 27.04 99.285 21.32C99.285 18.28 98.925 15.28 98.925 12.24C98.925 11.72 98.925 11.24 98.365 11ZM113.435 11.04C113.355 11 113.275 10.92 113.275 10.84C113.275 10.64 113.475 10.44 113.475 10.24C113.475 9.76 111.555 9.8 111.155 9.8C109.595 9.8 110.115 11.56 110.115 12.56C110.115 14 109.955 22.6 107.995 22.6C105.995 22.6 105.915 12.28 105.915 10.64C105.915 9.76 105.195 9.76 104.515 9.76C104.155 9.76 103.715 9.76 103.355 9.84C103.195 9.8 103.035 9.76 102.875 9.76C102.555 9.76 102.435 9.92 102.435 10.2C102.435 10.8 102.475 11.44 102.475 12.04C102.475 15 102.755 18.88 103.715 21.68C103.955 22.4 105.195 23.88 105.195 24.44C105.195 24.72 104.355 26 104.235 26.4C103.995 26.96 103.835 27.56 103.715 28.16C102.995 31.12 102.795 34.16 102.715 37.2C103.395 37.16 104.075 37.16 104.755 37.16C105.835 37.16 105.755 37.4 105.995 36.36C106.275 35.24 106.115 34.08 106.115 32.92C106.115 31.64 106.315 25.6 108.155 25.6C109.635 25.6 110.155 32.08 110.155 33.24C110.155 34.16 110.035 35.08 110.035 36.04C110.035 37.88 110.355 37.32 111.915 37.32C112.275 37.32 112.635 37.4 112.995 37.4C113.755 37.4 113.755 35.72 113.755 35.16C113.755 32.88 112.995 27.68 112.075 25.68C111.795 25.04 111.155 24.4 111.155 23.68C111.155 23.6 111.435 23 111.475 22.88C111.835 21.72 112.355 20.6 112.595 19.4C113.155 16.64 113.355 13.84 113.435 11.04ZM141.898 10.88C141.618 10.68 140.818 10.68 140.458 10.68C140.218 10.68 140.018 10.68 139.778 10.72C138.618 11.04 138.858 11.04 138.778 12.2C138.658 14.32 138.098 16.4 137.898 18.52C137.538 22.4 136.938 26.24 136.338 30.08C135.898 29.8 135.418 25.84 135.218 25.08C134.698 23.12 134.338 21.12 133.818 19.12C133.378 17.24 132.738 15.36 132.298 13.48C131.898 11.8 132.218 10.92 130.138 10.76L129.578 10.72C129.258 10.72 128.778 10.72 128.778 11.2C128.778 11.68 130.138 16.32 130.418 17.32C131.698 22.64 133.138 27.96 134.298 33.32C134.458 34.08 134.618 35.96 135.378 36.32C135.698 36.44 136.138 36.44 136.458 36.44C136.898 36.44 137.858 36.44 138.178 36.16C138.818 35.64 138.778 32.56 138.898 31.68C139.458 27.88 140.138 24.08 140.618 20.28C141.018 17.44 140.978 13.68 142.218 11.12H142.058C141.978 11.12 141.898 10.96 141.898 10.88ZM154.994 36.48C161.754 36.48 163.554 28.12 163.554 22.8C163.554 17.32 161.834 10.4 155.074 10.4C148.874 10.4 146.274 17.08 146.274 22.36C146.274 27.88 147.914 36.48 154.994 36.48ZM155.074 13.6C159.234 13.6 160.594 19.36 160.594 22.64C160.594 26.24 159.874 33.36 154.994 33.36C149.634 33.36 149.434 26.56 149.434 22.68C149.434 19 150.354 13.6 155.074 13.6ZM171.372 36.8C171.412 36.56 171.452 36.32 171.452 36.04C171.452 34.84 171.132 33.68 171.012 32.48C170.652 28.96 170.732 25.44 170.732 21.92C170.732 21 170.612 20.12 169.492 20.12C167.652 20.12 167.292 20.68 167.292 22.44C167.292 23.92 167.612 25.4 167.772 26.92C168.052 29.48 167.972 32.12 167.972 34.68C167.972 37 168.212 37.08 170.452 37.08C170.772 37.08 171.132 37.08 171.372 36.8ZM167.772 16.72C168.252 16.72 168.732 16.84 169.212 16.84C170.052 16.84 170.332 16.24 170.332 15.48C170.332 14.76 170.172 14.08 170.132 13.36C170.132 12.76 170.212 12.2 170.212 11.6C170.212 10.24 169.212 10.04 168.052 10.04C167.692 10.04 167.332 10.04 167.012 10.12C166.852 10.2 166.812 10.4 166.812 10.56C166.812 11.12 167.052 11.6 167.132 12.12C167.292 13.28 167.212 14.44 167.212 15.6C167.212 15.96 167.212 16.4 167.332 16.76C167.492 16.72 167.612 16.72 167.772 16.72ZM182.648 23.92C182.368 22.76 181.728 21.68 181.728 20.48C181.728 20.12 181.848 19.76 182.088 19.48C182.408 19.2 183.208 19.04 183.648 18.84C185.048 18.04 186.048 15.2 186.048 13.64C186.048 9.76 181.768 7.88 178.408 7.88C177.528 7.88 176.688 8.04 176.688 9.08C176.688 9.88 176.888 10.64 176.888 11.44C176.888 14.56 176.768 17.72 176.768 20.84C176.768 26.36 176.848 31.92 176.848 37.44C176.848 39.16 176.848 39.28 178.608 39.28C179.368 39.28 179.768 39.12 179.768 38.28V31.48C179.768 28.16 179.448 24.84 179.448 21.52C179.448 21.2 179.448 20.84 179.528 20.52C180.208 21.92 182.768 32.6 183.088 34.64C183.208 35.16 183.328 37.56 184.048 37.56C184.648 37.56 186.128 37.12 186.128 36.36C186.128 35.64 185.688 34.92 185.448 34.24C184.208 30.92 183.408 27.36 182.648 23.92ZM179.648 17V14.88C179.648 13.8 179.408 12.76 179.408 11.72C179.408 11.08 179.688 10.32 180.408 10.32C181.968 10.32 183.288 12.16 183.288 13.6C183.288 14.28 183.088 14.92 182.688 15.48C182.328 16 180.568 17.32 179.928 17.32C179.768 17.32 179.648 17.2 179.648 17ZM210.913 12.76C209.353 9.28 205.873 6.72 202.033 6.72C201.473 6.72 201.033 6.84 201.033 7.52C201.033 7.96 201.113 8.4 201.153 8.88C201.313 10.52 201.313 12.12 201.353 13.76C201.553 20.64 202.033 27.52 202.313 34.4C202.393 36 202.513 37.56 202.513 39.16C202.513 40.04 202.713 40.4 203.673 40.4C210.953 40.4 213.113 33.12 213.113 27.36C213.113 22.44 212.913 17.32 210.913 12.76ZM206.033 36.72C205.433 36.72 205.433 35.96 205.433 35.56C205.433 33.24 205.233 31.04 205.073 28.72C204.793 24.76 204.593 20.8 204.273 16.84C204.233 16.32 203.713 10.04 203.913 10.04C207.273 10.04 209.833 18.28 209.833 24.24C209.833 26.44 209.873 36.72 206.033 36.72ZM229.131 28.16H228.971C228.251 28.16 227.571 28.04 226.851 28.04C226.531 28.04 226.131 28.04 225.851 28.24C225.051 28.72 226.011 33.68 223.371 33.68C220.691 33.68 220.731 27.88 220.531 26.04C220.451 25.32 220.331 24.6 220.331 23.88C220.331 22.48 221.611 22.2 222.731 22.2C224.091 22.2 225.451 22.32 226.811 22.32C228.291 22.32 229.291 22.04 229.291 20.32C229.291 16.68 227.371 10.2 222.891 10.2C217.131 10.2 216.771 19.68 216.771 23.76C216.771 27.68 218.051 36.92 223.331 36.92C227.371 36.92 229.531 32.44 229.531 28.92C229.531 28.6 229.491 28.24 229.131 28.16ZM220.771 18.24V17.36C220.771 16.08 220.771 13.32 222.611 13.32C224.491 13.32 225.851 16.64 225.851 18.16C225.851 19.04 225.291 19.04 224.611 19.12C223.651 19.24 222.731 19.56 221.771 19.56C221.491 19.56 220.691 19.52 220.691 19.12C220.691 18.8 220.731 18.52 220.771 18.24ZM241.115 24.68C239.715 22.12 235.635 18.96 235.635 15.96C235.635 15.44 235.715 14.24 236.475 14.24C238.155 14.24 236.755 16.4 238.715 16.4C239.355 16.4 239.995 16.32 240.635 16.24C240.555 14.04 238.955 11.44 236.555 11.44C234.275 11.44 232.755 13.6 232.755 15.72C232.755 21.24 239.635 24 239.635 30C239.635 31.04 239.155 32.8 237.835 32.8C236.235 32.8 236.355 30.8 236.355 29.68C236.355 28.8 235.515 28.24 234.675 28.24C233.595 28.24 233.195 29.12 233.195 30.08C233.195 32.6 234.995 35.68 237.795 35.68C240.875 35.68 242.475 32.56 242.475 29.84C242.475 28.04 241.955 26.24 241.115 24.68ZM264.847 10.32C264.727 9.28 264.847 8.28 264.847 7.24C264.847 5.92 264.087 5.92 263.007 5.92C262.447 5.92 261.807 5.92 261.327 6.24C260.767 6.6 260.807 9.72 260.727 10.48C260.007 17.72 258.847 24.88 258.047 32.08C257.847 34.2 257.527 36.28 257.247 38.4C257.047 40.36 256.887 40.96 258.567 41.08C258.807 41.12 259.087 41.2 259.367 41.2C260.207 41.2 260.127 40.16 260.127 39.56C260.127 37.88 260.367 36.24 260.407 34.6C260.447 33.76 260.447 32.8 261.327 32.36C261.527 32.28 263.207 32.36 263.447 32.36C264.527 32.32 264.567 34.6 264.807 36.16C265.007 37.6 264.647 41.12 265.527 41.12C266.367 41.12 267.087 41.04 267.727 40.6C268.127 40.32 267.767 36.76 267.567 35.2C266.607 26.92 266.207 18.56 264.847 10.32ZM263.807 29.48C263.567 29.64 263.247 29.72 262.967 29.72C262.087 29.72 261.287 29.84 261.327 29.2C261.367 27.72 262.287 19.44 262.527 17.92C262.967 22 263.847 25.08 263.847 28.72C263.847 28.96 263.847 29.24 263.807 29.48ZM262.567 17.76C262.567 17.68 262.567 17.68 262.567 17.64C262.567 17.68 262.567 17.72 262.567 17.76ZM285.255 28.4C284.895 25.36 285.095 22.32 285.095 19.28C285.095 17.48 284.895 15.72 284.895 13.96C284.895 13.24 285.015 12.56 285.015 11.84C285.015 10.92 282.895 10.52 282.215 10.52C281.655 10.52 281.655 11.12 281.655 11.52C281.655 16.52 282.255 21.48 282.255 26.48C282.255 26.96 282.255 27.4 282.135 27.88C280.255 25.2 275.895 12.12 274.975 11.4C274.455 11.04 273.815 10.88 273.175 10.88C272.375 10.88 271.935 11.32 271.935 12.12C271.935 12.96 272.215 13.76 272.335 14.56C272.575 16.36 272.615 18.24 272.615 20.04C272.615 22.36 272.495 24.68 272.495 26.96C272.495 29.84 272.655 32.64 272.975 35.48C273.055 36.04 273.055 36.56 273.775 36.56C274.335 36.56 274.895 36.64 275.455 36.64C276.255 36.64 276.255 35.44 276.255 34.88C276.255 30.76 275.615 26.68 275.215 22.6C275.055 21.08 274.855 19.6 274.855 18.12C274.855 17.96 274.895 17.76 274.935 17.6C275.615 18.08 277.295 23.24 277.735 24.36C278.735 27 280.135 29.48 281.095 32.12C281.335 32.72 281.695 34.28 282.215 34.6C282.575 34.8 283.975 34.8 284.415 34.8C285.535 34.8 285.535 32.88 285.535 32.12C285.535 30.88 285.375 29.64 285.255 28.4ZM294.341 36.8C294.381 36.56 294.421 36.32 294.421 36.04C294.421 34.84 294.101 33.68 293.981 32.48C293.621 28.96 293.701 25.44 293.701 21.92C293.701 21 293.581 20.12 292.461 20.12C290.621 20.12 290.261 20.68 290.261 22.44C290.261 23.92 290.581 25.4 290.741 26.92C291.021 29.48 290.941 32.12 290.941 34.68C290.941 37 291.181 37.08 293.421 37.08C293.741 37.08 294.101 37.08 294.341 36.8ZM290.741 16.72C291.221 16.72 291.701 16.84 292.181 16.84C293.021 16.84 293.301 16.24 293.301 15.48C293.301 14.76 293.141 14.08 293.101 13.36C293.101 12.76 293.181 12.2 293.181 11.6C293.181 10.24 292.181 10.04 291.021 10.04C290.661 10.04 290.301 10.04 289.981 10.12C289.821 10.2 289.781 10.4 289.781 10.56C289.781 11.12 290.021 11.6 290.101 12.12C290.261 13.28 290.181 14.44 290.181 15.6C290.181 15.96 290.181 16.4 290.301 16.76C290.461 16.72 290.581 16.72 290.741 16.72ZM324.857 26.44C324.777 22.52 324.697 18.64 324.697 14.72C324.697 13.8 324.537 13.4 323.537 13.4C323.097 13.4 322.057 13.4 321.657 13.56C320.737 13.96 319.777 16.12 319.257 17C317.617 19.68 315.777 22.24 314.137 24.92C313.817 25.4 312.017 28.72 311.777 28.72C310.937 28.72 307.937 23.16 307.337 22.16C305.657 19.6 303.897 17.12 302.217 14.56C301.177 13 300.657 13.04 298.857 13.04C298.177 13.04 298.177 14.72 298.177 15.2C298.177 16.24 298.337 17.32 298.337 18.36C298.337 22.08 298.377 25.8 298.377 29.56C298.377 30.68 298.177 31.84 298.177 32.96C298.177 33.24 298.257 33.6 298.497 33.76C298.537 33.72 298.577 33.72 298.617 33.72C299.337 33.72 300.057 34.12 300.817 34.12C301.537 34.12 301.857 34.08 301.857 33.24C301.857 30.8 301.457 28.4 301.417 25.96C301.337 23.28 301.177 20.6 301.137 17.92C301.537 18.24 301.777 19.12 302.017 19.56C302.537 20.52 303.137 21.4 303.737 22.32C304.577 23.64 305.337 25.04 306.097 26.4C307.017 27.92 308.017 29.4 308.937 30.92C309.657 32.12 309.697 32.88 311.257 33.12C311.417 33.16 311.617 33.16 311.777 33.16C313.057 33.16 313.337 32.2 313.857 31.24C314.857 29.4 321.457 18.48 321.897 18.44C322.457 18.88 322.137 31.16 322.657 33.04C322.937 33.92 322.697 33.6 323.537 33.84C323.857 33.96 324.177 34.12 324.497 34.12C325.057 34.12 325.297 33.72 325.297 33.2C325.297 32.44 325.097 31.72 325.057 31C324.977 29.48 324.897 27.96 324.857 26.44ZM336.996 10.32C336.876 9.28 336.996 8.28 336.996 7.24C336.996 5.92 336.236 5.92 335.156 5.92C334.596 5.92 333.956 5.92 333.476 6.24C332.916 6.6 332.956 9.72 332.876 10.48C332.156 17.72 330.996 24.88 330.196 32.08C329.996 34.2 329.676 36.28 329.396 38.4C329.196 40.36 329.036 40.96 330.716 41.08C330.956 41.12 331.236 41.2 331.516 41.2C332.356 41.2 332.276 40.16 332.276 39.56C332.276 37.88 332.516 36.24 332.556 34.6C332.596 33.76 332.596 32.8 333.476 32.36C333.676 32.28 335.356 32.36 335.596 32.36C336.676 32.32 336.716 34.6 336.956 36.16C337.156 37.6 336.796 41.12 337.676 41.12C338.516 41.12 339.236 41.04 339.876 40.6C340.276 40.32 339.916 36.76 339.716 35.2C338.756 26.92 338.356 18.56 336.996 10.32ZM335.956 29.48C335.716 29.64 335.396 29.72 335.116 29.72C334.236 29.72 333.436 29.84 333.476 29.2C333.516 27.72 334.436 19.44 334.676 17.92C335.116 22 335.996 25.08 335.996 28.72C335.996 28.96 335.996 29.24 335.956 29.48ZM334.716 17.76C334.716 17.68 334.716 17.68 334.716 17.64C334.716 17.68 334.716 17.72 334.716 17.76ZM358.443 11H358.043C357.043 11 355.843 11.04 355.843 12.36C355.843 13.12 355.923 13.84 355.923 14.56C355.923 16.56 355.883 18.56 355.883 20.56C355.883 23.76 356.723 32.08 351.763 32.08C347.163 32.08 346.963 26.28 346.963 22.92C346.963 19.4 347.083 15.92 347.083 12.4C347.083 11.84 346.403 11.84 346.043 11.84C345.283 11.84 344.803 11.88 344.203 12.4C344.043 12.56 343.883 20.08 343.883 21C343.883 25.68 344.323 34.96 350.843 34.96C358.163 34.96 359.363 27.04 359.363 21.32C359.363 18.28 359.003 15.28 359.003 12.24C359.003 11.72 359.003 11.24 358.443 11ZM373.513 11.04C373.433 11 373.353 10.92 373.353 10.84C373.353 10.64 373.553 10.44 373.553 10.24C373.553 9.76 371.633 9.8 371.233 9.8C369.673 9.8 370.193 11.56 370.193 12.56C370.193 14 370.033 22.6 368.073 22.6C366.073 22.6 365.993 12.28 365.993 10.64C365.993 9.76 365.273 9.76 364.593 9.76C364.233 9.76 363.793 9.76 363.433 9.84C363.273 9.8 363.113 9.76 362.953 9.76C362.633 9.76 362.513 9.92 362.513 10.2C362.513 10.8 362.553 11.44 362.553 12.04C362.553 15 362.833 18.88 363.793 21.68C364.033 22.4 365.273 23.88 365.273 24.44C365.273 24.72 364.433 26 364.313 26.4C364.073 26.96 363.913 27.56 363.793 28.16C363.073 31.12 362.873 34.16 362.793 37.2C363.473 37.16 364.153 37.16 364.833 37.16C365.913 37.16 365.833 37.4 366.073 36.36C366.353 35.24 366.193 34.08 366.193 32.92C366.193 31.64 366.393 25.6 368.233 25.6C369.713 25.6 370.233 32.08 370.233 33.24C370.233 34.16 370.113 35.08 370.113 36.04C370.113 37.88 370.433 37.32 371.993 37.32C372.353 37.32 372.713 37.4 373.073 37.4C373.833 37.4 373.833 35.72 373.833 35.16C373.833 32.88 373.073 27.68 372.153 25.68C371.873 25.04 371.233 24.4 371.233 23.68C371.233 23.6 371.513 23 371.553 22.88C371.913 21.72 372.433 20.6 372.673 19.4C373.233 16.64 373.433 13.84 373.513 11.04ZM392.856 33.12C392.496 33.12 392.056 33.2 391.856 33.52C391.696 33.8 391.616 35.76 391.616 36.2C391.616 36.8 391.896 37.16 392.536 37.16C393.256 37.16 394.016 37.04 394.736 36.96C395.376 36.92 395.296 36.16 395.296 35.72C395.296 33.36 395.096 33.12 392.856 33.12ZM398.616 10.2C397.776 9 396.376 8.12 394.896 8.12C391.936 8.12 390.416 11.28 390.416 13.84C390.416 14.84 390.696 16.04 391.896 16.04C392.736 16.04 393.656 15.48 393.656 14.6C393.656 14.04 393.456 13.56 393.456 13.04C393.456 12.2 393.976 11.08 394.936 11.08C396.456 11.08 396.976 13.24 396.976 14.4C396.976 19.2 393.536 21.52 391.976 25.52C391.816 25.92 391.616 29.4 391.616 29.96C391.616 30.36 391.896 30.68 392.296 30.68H393.776C394.176 30.68 394.456 30.4 394.496 30C394.816 26.84 395.416 24.92 397.096 22.2C397.776 21.16 398.536 20.12 399.016 18.96C399.576 17.6 399.896 16.04 399.896 14.6C399.896 13.04 399.536 11.48 398.616 10.2Z" fill="white"/>
</g>
<defs>
<filter id="filter0_d" x="0.226562" y="0.919983" width="408.669" height="51.28" filterUnits="userSpaceOnUse" color-interpolation-filters="sRGB">
<feFlood flood-opacity="0" result="BackgroundImageFix"/>
<feColorMatrix in="SourceAlpha" type="matrix" values="0 0 0 0 0 0 0 0 0 0 0 0 0 0 0 0 0 0 127 0"/>
<feOffset dx="1" dy="3"/>
<feGaussianBlur stdDeviation="4"/>
<feColorMatrix type="matrix" values="0 0 0 0 0.0941176 0 0 0 0 0.454902 0 0 0 0 0.756863 0 0 0 1 0"/>
<feBlend mode="normal" in2="BackgroundImageFix" result="effect1_dropShadow"/>
<feBlend mode="normal" in="SourceGraphic" in2="effect1_dropShadow" result="shape"/>
</filter>
</defs>
</svg>
