<svg width="48" height="24" viewBox="0 0 48 24" fill="none" xmlns="http://www.w3.org/2000/svg">
<path d="M12.5808 16.46C12.2568 13.724 12.4368 10.988 12.4368 8.252C12.4368 6.632 12.2568 5.048 12.2568 3.464C12.2568 2.816 12.3648 2.204 12.3648 1.556C12.3648 0.727999 10.4568 0.368 9.84478 0.368C9.34078 0.368 9.34078 0.907999 9.34078 1.268C9.34078 5.768 9.88078 10.232 9.88078 14.732C9.88078 15.164 9.88078 15.56 9.77278 15.992C8.08078 13.58 4.15678 1.808 3.32878 1.16C2.86078 0.835998 2.28478 0.692 1.70878 0.692C0.988781 0.692 0.592781 1.088 0.592781 1.808C0.592781 2.564 0.844781 3.284 0.952781 4.004C1.16878 5.624 1.20478 7.316 1.20478 8.936C1.20478 11.024 1.09678 13.112 1.09678 15.164C1.09678 17.756 1.24078 20.276 1.52878 22.832C1.60078 23.336 1.60078 23.804 2.24878 23.804C2.75278 23.804 3.25678 23.876 3.76078 23.876C4.48078 23.876 4.48078 22.796 4.48078 22.292C4.48078 18.584 3.90478 14.912 3.54478 11.24C3.40078 9.872 3.22078 8.54 3.22078 7.208C3.22078 7.064 3.25678 6.884 3.29278 6.74C3.90478 7.172 5.41678 11.816 5.81278 12.824C6.71278 15.2 7.97278 17.432 8.83678 19.808C9.05278 20.348 9.37678 21.752 9.84478 22.04C10.1688 22.22 11.4288 22.22 11.8248 22.22C12.8328 22.22 12.8328 20.492 12.8328 19.808C12.8328 18.692 12.6888 17.576 12.5808 16.46ZM24.8621 23.732C30.9461 23.732 32.5661 16.208 32.5661 11.42C32.5661 6.488 31.0181 0.259999 24.9341 0.259999C19.3541 0.259999 17.0141 6.272 17.0141 11.024C17.0141 15.992 18.4901 23.732 24.8621 23.732ZM24.9341 3.14C28.6781 3.14 29.9021 8.324 29.9021 11.276C29.9021 14.516 29.2541 20.924 24.8621 20.924C20.0381 20.924 19.8581 14.804 19.8581 11.312C19.8581 8 20.6861 3.14 24.9341 3.14ZM47.7019 16.46C47.3779 13.724 47.5579 10.988 47.5579 8.252C47.5579 6.632 47.3779 5.048 47.3779 3.464C47.3779 2.816 47.4859 2.204 47.4859 1.556C47.4859 0.727999 45.5779 0.368 44.9659 0.368C44.4619 0.368 44.4619 0.907999 44.4619 1.268C44.4619 5.768 45.0019 10.232 45.0019 14.732C45.0019 15.164 45.0019 15.56 44.8939 15.992C43.2019 13.58 39.2779 1.808 38.4499 1.16C37.9819 0.835998 37.4059 0.692 36.8299 0.692C36.1099 0.692 35.7139 1.088 35.7139 1.808C35.7139 2.564 35.9659 3.284 36.0739 4.004C36.2899 5.624 36.3259 7.316 36.3259 8.936C36.3259 11.024 36.2179 13.112 36.2179 15.164C36.2179 17.756 36.3619 20.276 36.6499 22.832C36.7219 23.336 36.7219 23.804 37.3699 23.804C37.8739 23.804 38.3779 23.876 38.8819 23.876C39.6019 23.876 39.6019 22.796 39.6019 22.292C39.6019 18.584 39.0259 14.912 38.6659 11.24C38.5219 9.872 38.3419 8.54 38.3419 7.208C38.3419 7.064 38.3779 6.884 38.4139 6.74C39.0259 7.172 40.5379 11.816 40.9339 12.824C41.8339 15.2 43.0939 17.432 43.9579 19.808C44.1739 20.348 44.4979 21.752 44.9659 22.04C45.2899 22.22 46.5499 22.22 46.9459 22.22C47.9539 22.22 47.9539 20.492 47.9539 19.808C47.9539 18.692 47.8099 17.576 47.7019 16.46Z" fill="white"/>
</svg>
