<svg width="41" height="26" viewBox="0 0 41 26" fill="none" xmlns="http://www.w3.org/2000/svg">
<path d="M8.61017 24.732C14.6942 24.732 16.3142 17.208 16.3142 12.42C16.3142 7.488 14.7662 1.26 8.68217 1.26C3.10217 1.26 0.762172 7.272 0.762172 12.024C0.762172 16.992 2.23817 24.732 8.61017 24.732ZM8.68217 4.14C12.4262 4.14 13.6502 9.324 13.6502 12.276C13.6502 15.516 13.0022 21.924 8.61017 21.924C3.78617 21.924 3.60617 15.804 3.60617 12.312C3.60617 9 4.43417 4.14 8.68217 4.14ZM32.3859 1.8H32.0259C31.1259 1.8 30.0459 1.836 30.0459 3.024C30.0459 3.708 30.1179 4.356 30.1179 5.004C30.1179 6.804 30.0819 8.604 30.0819 10.404C30.0819 13.284 30.8379 20.772 26.3739 20.772C22.2339 20.772 22.0539 15.552 22.0539 12.528C22.0539 9.36 22.1619 6.228 22.1619 3.06C22.1619 2.556 21.5499 2.556 21.2259 2.556C20.5419 2.556 20.1099 2.592 19.5699 3.06C19.4259 3.204 19.2819 9.972 19.2819 10.8C19.2819 15.012 19.6779 23.364 25.5459 23.364C32.1339 23.364 33.2139 16.236 33.2139 11.088C33.2139 8.352 32.8899 5.652 32.8899 2.916C32.8899 2.448 32.8899 2.016 32.3859 1.8ZM40.2249 25.02C40.2609 24.804 40.2969 24.588 40.2969 24.336C40.2969 23.256 40.0089 22.212 39.9009 21.132C39.5769 17.964 39.6489 14.796 39.6489 11.628C39.6489 10.8 39.5409 10.008 38.5329 10.008C36.8769 10.008 36.5529 10.512 36.5529 12.096C36.5529 13.428 36.8409 14.76 36.9849 16.128C37.2369 18.432 37.1649 20.808 37.1649 23.112C37.1649 25.2 37.3809 25.272 39.3969 25.272C39.6849 25.272 40.0089 25.272 40.2249 25.02ZM36.9849 6.948C37.4169 6.948 37.8489 7.056 38.2809 7.056C39.0369 7.056 39.2889 6.516 39.2889 5.832C39.2889 5.184 39.1449 4.572 39.1089 3.924C39.1089 3.384 39.1809 2.88 39.1809 2.34C39.1809 1.116 38.2809 0.935999 37.2369 0.935999C36.9129 0.935999 36.5889 0.935999 36.3009 1.008C36.1569 1.08 36.1209 1.26 36.1209 1.404C36.1209 1.908 36.3369 2.34 36.4089 2.808C36.5529 3.852 36.4809 4.896 36.4809 5.94C36.4809 6.264 36.4809 6.66 36.5889 6.984C36.7329 6.948 36.8409 6.948 36.9849 6.948Z" fill="white"/>
</svg>
