<svg width="278" height="230" viewBox="0 0 278 230" fill="none" xmlns="http://www.w3.org/2000/svg">
<path d="M251.229 186.667H104.465L50.9218 228.598C45.9818 232.644 39.289 227.311 40.8826 220.506L48.5315 186.851H28.7717C13.9518 186.851 2.15967 173.058 2.15967 155.771V31.0805C2.15967 13.9771 14.1112 0 28.7717 0H251.388C266.208 0 278 13.7931 278 31.0805V155.771C278 172.874 265.889 186.667 251.229 186.667Z" fill="#F1B705"/>
<path d="M251.229 0H191.63C187.806 86.9887 125.658 155.954 49.6466 155.954C32.9145 155.954 16.8199 152.644 2 146.575V155.771C2 172.874 13.9515 186.851 28.612 186.851H48.2125L40.5635 220.506C38.9699 227.311 45.5035 232.644 50.6028 228.598L104.145 186.667H250.91C265.73 186.667 277.522 172.874 277.522 155.587V30.8966C278 13.7931 265.889 0 251.229 0Z" fill="#EEAD07"/>
<path d="M2 31.0161V155.984C2 173.148 15.9058 187 32.9858 187H247.014C264.094 187 278 173.148 278 155.984V31.0161C278 13.8519 264.094 0 247.014 0H32.9858C15.9058 0.150564 2 14.0024 2 31.0161Z" fill="#F1B705"/>
<path d="M0 31.2208V157.627C0 174.989 14.0066 189 31.2103 189H158.183H178.786C188.859 189 191.377 189 204.471 189H223.801H246.79C263.993 189 278 174.989 278 157.627V148.185C260.644 154.429 241.918 157.779 222.278 157.779C193.504 157.779 166.404 150.469 142.806 137.524C141.436 136.762 140.218 136.153 139 135.392C91.8039 107.978 59.2234 57.8727 56.483 0H31.2103C14.0066 0 0 14.0113 0 31.2208Z" fill="#EEAD07"/>
<path d="M36.942 54.114C35.6247 54.114 34.434 53.8227 33.37 53.24C32.3187 52.6573 31.489 51.853 30.881 50.827C30.2857 49.7883 29.988 48.6293 29.988 47.35C29.988 46.0707 30.2857 44.918 30.881 43.892C31.489 42.8533 32.325 42.0427 33.389 41.46C34.453 40.8773 35.6437 40.586 36.961 40.586C37.949 40.586 38.861 40.7507 39.697 41.08C40.533 41.4093 41.2423 41.8907 41.825 42.524L40.932 43.417C39.8933 42.3657 38.5823 41.84 36.999 41.84C35.9477 41.84 34.9913 42.0807 34.13 42.562C33.2687 43.0433 32.591 43.702 32.097 44.538C31.6157 45.374 31.375 46.3113 31.375 47.35C31.375 48.3887 31.6157 49.326 32.097 50.162C32.591 50.998 33.2687 51.6567 34.13 52.138C34.9913 52.6193 35.9477 52.86 36.999 52.86C38.595 52.86 39.906 52.328 40.932 51.264L41.825 52.157C41.2423 52.7903 40.5267 53.278 39.678 53.62C38.842 53.9493 37.93 54.114 36.942 54.114ZM36.258 58.18C35.6373 58.18 35.1053 58.0343 34.662 57.743L34.985 57.021C35.3523 57.2617 35.7703 57.382 36.239 57.382C36.619 57.382 36.9103 57.306 37.113 57.154C37.3157 57.002 37.417 56.7803 37.417 56.489C37.417 56.223 37.3157 56.0077 37.113 55.843C36.923 55.691 36.6317 55.615 36.239 55.615H35.802L36.258 53.886H37.075L36.79 54.988C37.3093 55.0387 37.7083 55.197 37.987 55.463C38.2657 55.7417 38.405 56.0963 38.405 56.527C38.405 57.0337 38.2087 57.4327 37.816 57.724C37.4233 58.028 36.904 58.18 36.258 58.18ZM47.8848 43.93C49.1895 43.93 50.1901 44.2593 50.8868 44.918C51.5835 45.564 51.9318 46.5267 51.9318 47.806V54H50.6398V52.442C50.3358 52.9613 49.8861 53.3667 49.2908 53.658C48.7081 53.9493 48.0115 54.095 47.2008 54.095C46.0861 54.095 45.1995 53.829 44.5408 53.297C43.8821 52.765 43.5528 52.062 43.5528 51.188C43.5528 50.3393 43.8568 49.6553 44.4648 49.136C45.0855 48.6167 46.0671 48.357 47.4098 48.357H50.5828V47.749C50.5828 46.8877 50.3421 46.2353 49.8608 45.792C49.3795 45.336 48.6765 45.108 47.7518 45.108C47.1185 45.108 46.5105 45.2157 45.9278 45.431C45.3451 45.6337 44.8448 45.9187 44.4268 46.286L43.8188 45.279C44.3255 44.8483 44.9335 44.519 45.6428 44.291C46.3521 44.0503 47.0995 43.93 47.8848 43.93ZM47.4098 53.031C48.1698 53.031 48.8221 52.86 49.3668 52.518C49.9115 52.1633 50.3168 51.6567 50.5828 50.998V49.364H47.4478C45.7378 49.364 44.8828 49.9593 44.8828 51.15C44.8828 51.7327 45.1045 52.195 45.5478 52.537C45.9911 52.8663 46.6118 53.031 47.4098 53.031ZM65.8315 53.392C65.5782 53.62 65.2615 53.7973 64.8815 53.924C64.5142 54.038 64.1278 54.095 63.7225 54.095C62.7852 54.095 62.0632 53.8417 61.5565 53.335C61.0498 52.8283 60.7965 52.1127 60.7965 51.188V45.146H59.0105V44.006H60.7965V41.821H62.1455V44.006H65.1855V45.146H62.1455V51.112C62.1455 51.7073 62.2912 52.1633 62.5825 52.48C62.8865 52.784 63.3172 52.936 63.8745 52.936C64.1532 52.936 64.4192 52.8917 64.6725 52.803C64.9385 52.7143 65.1665 52.5877 65.3565 52.423L65.8315 53.392ZM72.0197 54.095C71.057 54.095 70.1894 53.8797 69.4167 53.449C68.644 53.0057 68.036 52.3977 67.5927 51.625C67.1494 50.8523 66.9277 49.9783 66.9277 49.003C66.9277 48.0277 67.1494 47.1537 67.5927 46.381C68.036 45.6083 68.644 45.0067 69.4167 44.576C70.1894 44.1453 71.057 43.93 72.0197 43.93C72.9824 43.93 73.85 44.1453 74.6227 44.576C75.3954 45.0067 75.997 45.6083 76.4277 46.381C76.871 47.1537 77.0927 48.0277 77.0927 49.003C77.0927 49.9783 76.871 50.8523 76.4277 51.625C75.997 52.3977 75.3954 53.0057 74.6227 53.449C73.85 53.8797 72.9824 54.095 72.0197 54.095ZM72.0197 52.898C72.729 52.898 73.3624 52.7397 73.9197 52.423C74.4897 52.0937 74.933 51.6313 75.2497 51.036C75.5664 50.4407 75.7247 49.763 75.7247 49.003C75.7247 48.243 75.5664 47.5653 75.2497 46.97C74.933 46.3747 74.4897 45.9187 73.9197 45.602C73.3624 45.2727 72.729 45.108 72.0197 45.108C71.3104 45.108 70.6707 45.2727 70.1007 45.602C69.5434 45.9187 69.1 46.3747 68.7707 46.97C68.454 47.5653 68.2957 48.243 68.2957 49.003C68.2957 49.763 68.454 50.4407 68.7707 51.036C69.1 51.6313 69.5434 52.0937 70.1007 52.423C70.6707 52.7397 71.3104 52.898 72.0197 52.898ZM92.3108 43.93C93.5648 43.93 94.5465 44.291 95.2558 45.013C95.9778 45.735 96.3388 46.799 96.3388 48.205V54H94.9898V48.338C94.9898 47.2993 94.7365 46.5077 94.2298 45.963C93.7358 45.4183 93.0328 45.146 92.1208 45.146C91.0822 45.146 90.2652 45.469 89.6698 46.115C89.0745 46.7483 88.7768 47.6287 88.7768 48.756V54H87.4278V48.338C87.4278 47.2993 87.1745 46.5077 86.6678 45.963C86.1738 45.4183 85.4645 45.146 84.5398 45.146C83.5138 45.146 82.6968 45.469 82.0888 46.115C81.4935 46.7483 81.1958 47.6287 81.1958 48.756V54H79.8468V44.006H81.1388V45.83C81.4935 45.222 81.9875 44.7533 82.6208 44.424C83.2542 44.0947 83.9825 43.93 84.8058 43.93C85.6418 43.93 86.3638 44.1073 86.9718 44.462C87.5925 44.8167 88.0548 45.3423 88.3588 46.039C88.7262 45.3803 89.2518 44.8673 89.9358 44.5C90.6325 44.12 91.4242 43.93 92.3108 43.93ZM105.146 43.93C106.084 43.93 106.932 44.1453 107.692 44.576C108.452 44.994 109.048 45.5893 109.478 46.362C109.909 47.1347 110.124 48.015 110.124 49.003C110.124 49.991 109.909 50.8713 109.478 51.644C109.048 52.4167 108.452 53.0183 107.692 53.449C106.932 53.8797 106.084 54.095 105.146 54.095C104.31 54.095 103.557 53.9177 102.885 53.563C102.227 53.2083 101.695 52.6953 101.289 52.024V54H99.9972V39.902H101.346V45.906C101.764 45.26 102.296 44.7723 102.942 44.443C103.601 44.101 104.336 43.93 105.146 43.93ZM105.051 52.898C105.748 52.898 106.381 52.7397 106.951 52.423C107.521 52.0937 107.965 51.6313 108.281 51.036C108.611 50.4407 108.775 49.763 108.775 49.003C108.775 48.243 108.611 47.5653 108.281 46.97C107.965 46.3747 107.521 45.9187 106.951 45.602C106.381 45.2727 105.748 45.108 105.051 45.108C104.342 45.108 103.702 45.2727 103.132 45.602C102.575 45.9187 102.132 46.3747 101.802 46.97C101.486 47.5653 101.327 48.243 101.327 49.003C101.327 49.763 101.486 50.4407 101.802 51.036C102.132 51.6313 102.575 52.0937 103.132 52.423C103.702 52.7397 104.342 52.898 105.051 52.898ZM121.576 49.421H113.216C113.292 50.4597 113.691 51.302 114.413 51.948C115.135 52.5813 116.047 52.898 117.149 52.898C117.77 52.898 118.34 52.7903 118.859 52.575C119.378 52.347 119.828 52.0177 120.208 51.587L120.968 52.461C120.525 52.993 119.967 53.3983 119.296 53.677C118.637 53.9557 117.909 54.095 117.111 54.095C116.085 54.095 115.173 53.8797 114.375 53.449C113.59 53.0057 112.975 52.3977 112.532 51.625C112.089 50.8523 111.867 49.9783 111.867 49.003C111.867 48.0277 112.076 47.1537 112.494 46.381C112.925 45.6083 113.507 45.0067 114.242 44.576C114.989 44.1453 115.825 43.93 116.75 43.93C117.675 43.93 118.504 44.1453 119.239 44.576C119.974 45.0067 120.55 45.6083 120.968 46.381C121.386 47.141 121.595 48.015 121.595 49.003L121.576 49.421ZM116.75 45.089C115.787 45.089 114.977 45.3993 114.318 46.02C113.672 46.628 113.305 47.426 113.216 48.414H120.303C120.214 47.426 119.841 46.628 119.182 46.02C118.536 45.3993 117.725 45.089 116.75 45.089ZM134.463 43.93C135.4 43.93 136.249 44.1453 137.009 44.576C137.769 44.994 138.364 45.5893 138.795 46.362C139.225 47.1347 139.441 48.015 139.441 49.003C139.441 49.991 139.225 50.8713 138.795 51.644C138.364 52.4167 137.769 53.0183 137.009 53.449C136.249 53.8797 135.4 54.095 134.463 54.095C133.627 54.095 132.873 53.9177 132.202 53.563C131.543 53.2083 131.011 52.6953 130.606 52.024V54H129.314V39.902H130.663V45.906C131.081 45.26 131.613 44.7723 132.259 44.443C132.917 44.101 133.652 43.93 134.463 43.93ZM134.368 52.898C135.064 52.898 135.698 52.7397 136.268 52.423C136.838 52.0937 137.281 51.6313 137.598 51.036C137.927 50.4407 138.092 49.763 138.092 49.003C138.092 48.243 137.927 47.5653 137.598 46.97C137.281 46.3747 136.838 45.9187 136.268 45.602C135.698 45.2727 135.064 45.108 134.368 45.108C133.658 45.108 133.019 45.2727 132.449 45.602C131.891 45.9187 131.448 46.3747 131.119 46.97C130.802 47.5653 130.644 48.243 130.644 49.003C130.644 49.763 130.802 50.4407 131.119 51.036C131.448 51.6313 131.891 52.0937 132.449 52.423C133.019 52.7397 133.658 52.898 134.368 52.898ZM142.191 44.006H143.54V54H142.191V44.006ZM142.875 41.821C142.596 41.821 142.362 41.726 142.172 41.536C141.982 41.346 141.887 41.118 141.887 40.852C141.887 40.5987 141.982 40.377 142.172 40.187C142.362 39.997 142.596 39.902 142.875 39.902C143.153 39.902 143.388 39.997 143.578 40.187C143.768 40.3643 143.863 40.5797 143.863 40.833C143.863 41.1117 143.768 41.346 143.578 41.536C143.388 41.726 143.153 41.821 142.875 41.821ZM155.995 49.421H147.635C147.711 50.4597 148.11 51.302 148.832 51.948C149.554 52.5813 150.466 52.898 151.568 52.898C152.189 52.898 152.759 52.7903 153.278 52.575C153.797 52.347 154.247 52.0177 154.627 51.587L155.387 52.461C154.944 52.993 154.386 53.3983 153.715 53.677C153.056 53.9557 152.328 54.095 151.53 54.095C150.504 54.095 149.592 53.8797 148.794 53.449C148.009 53.0057 147.394 52.3977 146.951 51.625C146.508 50.8523 146.286 49.9783 146.286 49.003C146.286 48.0277 146.495 47.1537 146.913 46.381C147.344 45.6083 147.926 45.0067 148.661 44.576C149.408 44.1453 150.244 43.93 151.169 43.93C152.094 43.93 152.923 44.1453 153.658 44.576C154.393 45.0067 154.969 45.6083 155.387 46.381C155.805 47.141 156.014 48.015 156.014 49.003L155.995 49.421ZM151.169 45.089C150.206 45.089 149.396 45.3993 148.737 46.02C148.091 46.628 147.724 47.426 147.635 48.414H154.722C154.633 47.426 154.26 46.628 153.601 46.02C152.955 45.3993 152.144 45.089 151.169 45.089ZM163.852 43.93C165.106 43.93 166.1 44.2973 166.835 45.032C167.582 45.754 167.956 46.8117 167.956 48.205V54H166.607V48.338C166.607 47.2993 166.347 46.5077 165.828 45.963C165.309 45.4183 164.568 45.146 163.605 45.146C162.528 45.146 161.673 45.469 161.04 46.115C160.419 46.7483 160.109 47.6287 160.109 48.756V54H158.76V44.006H160.052V45.849C160.419 45.241 160.926 44.7723 161.572 44.443C162.231 44.101 162.991 43.93 163.852 43.93ZM171.77 52.024C172.062 52.024 172.302 52.1253 172.492 52.328C172.682 52.518 172.777 52.7587 172.777 53.05C172.777 53.202 172.752 53.3667 172.701 53.544C172.663 53.7213 172.6 53.924 172.511 54.152L171.713 56.774H170.801L171.447 54.019C171.245 53.9557 171.08 53.8417 170.953 53.677C170.827 53.4997 170.763 53.2907 170.763 53.05C170.763 52.7587 170.858 52.518 171.048 52.328C171.238 52.1253 171.479 52.024 171.77 52.024ZM193.081 43.93C194.335 43.93 195.317 44.291 196.026 45.013C196.748 45.735 197.109 46.799 197.109 48.205V54H195.76V48.338C195.76 47.2993 195.507 46.5077 195 45.963C194.506 45.4183 193.803 45.146 192.891 45.146C191.853 45.146 191.036 45.469 190.44 46.115C189.845 46.7483 189.547 47.6287 189.547 48.756V54H188.198V48.338C188.198 47.2993 187.945 46.5077 187.438 45.963C186.944 45.4183 186.235 45.146 185.31 45.146C184.284 45.146 183.467 45.469 182.859 46.115C182.264 46.7483 181.966 47.6287 181.966 48.756V54H180.617V44.006H181.909V45.83C182.264 45.222 182.758 44.7533 183.391 44.424C184.025 44.0947 184.753 43.93 185.576 43.93C186.412 43.93 187.134 44.1073 187.742 44.462C188.363 44.8167 188.825 45.3423 189.129 46.039C189.497 45.3803 190.022 44.8673 190.706 44.5C191.403 44.12 192.195 43.93 193.081 43.93ZM204.89 54.095C203.927 54.095 203.059 53.8797 202.287 53.449C201.514 53.0057 200.906 52.3977 200.463 51.625C200.019 50.8523 199.798 49.9783 199.798 49.003C199.798 48.0277 200.019 47.1537 200.463 46.381C200.906 45.6083 201.514 45.0067 202.287 44.576C203.059 44.1453 203.927 43.93 204.89 43.93C205.852 43.93 206.72 44.1453 207.493 44.576C208.265 45.0067 208.867 45.6083 209.298 46.381C209.741 47.1537 209.963 48.0277 209.963 49.003C209.963 49.9783 209.741 50.8523 209.298 51.625C208.867 52.3977 208.265 53.0057 207.493 53.449C206.72 53.8797 205.852 54.095 204.89 54.095ZM204.89 52.898C205.599 52.898 206.232 52.7397 206.79 52.423C207.36 52.0937 207.803 51.6313 208.12 51.036C208.436 50.4407 208.595 49.763 208.595 49.003C208.595 48.243 208.436 47.5653 208.12 46.97C207.803 46.3747 207.36 45.9187 206.79 45.602C206.232 45.2727 205.599 45.108 204.89 45.108C204.18 45.108 203.541 45.2727 202.971 45.602C202.413 45.9187 201.97 46.3747 201.641 46.97C201.324 47.5653 201.166 48.243 201.166 49.003C201.166 49.763 201.324 50.4407 201.641 51.036C201.97 51.6313 202.413 52.0937 202.971 52.423C203.541 52.7397 204.18 52.898 204.89 52.898ZM212.717 44.006H214.066V54H212.717V44.006ZM213.401 41.821C213.122 41.821 212.888 41.726 212.698 41.536C212.508 41.346 212.413 41.118 212.413 40.852C212.413 40.5987 212.508 40.377 212.698 40.187C212.888 39.997 213.122 39.902 213.401 39.902C213.68 39.902 213.914 39.997 214.104 40.187C214.294 40.3643 214.389 40.5797 214.389 40.833C214.389 41.1117 214.294 41.346 214.104 41.536C213.914 41.726 213.68 41.821 213.401 41.821ZM221.31 57.781C220.892 57.781 220.499 57.724 220.132 57.61C219.752 57.5087 219.442 57.3503 219.201 57.135L219.676 56.109C220.069 56.451 220.588 56.622 221.234 56.622C221.766 56.622 222.171 56.4637 222.45 56.147C222.741 55.8303 222.887 55.3617 222.887 54.741V44.006H224.236V54.741C224.236 55.6783 223.983 56.4193 223.476 56.964C222.969 57.5087 222.247 57.781 221.31 57.781ZM223.571 41.802C223.292 41.802 223.058 41.707 222.868 41.517C222.678 41.327 222.583 41.099 222.583 40.833C222.583 40.5797 222.678 40.358 222.868 40.168C223.058 39.978 223.292 39.883 223.571 39.883C223.85 39.883 224.084 39.978 224.274 40.168C224.464 40.3453 224.559 40.5607 224.559 40.814C224.559 41.0927 224.464 41.327 224.274 41.517C224.084 41.707 223.85 41.802 223.571 41.802ZM236.708 49.421H228.348C228.424 50.4597 228.823 51.302 229.545 51.948C230.267 52.5813 231.179 52.898 232.281 52.898C232.902 52.898 233.472 52.7903 233.991 52.575C234.51 52.347 234.96 52.0177 235.34 51.587L236.1 52.461C235.657 52.993 235.099 53.3983 234.428 53.677C233.769 53.9557 233.041 54.095 232.243 54.095C231.217 54.095 230.305 53.8797 229.507 53.449C228.722 53.0057 228.107 52.3977 227.664 51.625C227.221 50.8523 226.999 49.9783 226.999 49.003C226.999 48.0277 227.208 47.1537 227.626 46.381C228.057 45.6083 228.639 45.0067 229.374 44.576C230.121 44.1453 230.957 43.93 231.882 43.93C232.807 43.93 233.636 44.1453 234.371 44.576C235.106 45.0067 235.682 45.6083 236.1 46.381C236.518 47.141 236.727 48.015 236.727 49.003L236.708 49.421ZM231.882 45.089C230.919 45.089 230.109 45.3993 229.45 46.02C228.804 46.628 228.437 47.426 228.348 48.414H235.435C235.346 47.426 234.973 46.628 234.314 46.02C233.668 45.3993 232.857 45.089 231.882 45.089ZM35.023 77.095C34.035 77.095 33.1483 76.8797 32.363 76.449C31.5903 76.0183 30.9823 75.4167 30.539 74.644C30.0957 73.8587 29.874 72.9783 29.874 72.003C29.874 71.0277 30.0957 70.1537 30.539 69.381C30.9823 68.6083 31.5903 68.0067 32.363 67.576C33.1483 67.1453 34.035 66.93 35.023 66.93C35.8843 66.93 36.6507 67.101 37.322 67.443C38.006 67.7723 38.5443 68.26 38.937 68.906L37.93 69.59C37.6007 69.096 37.1827 68.7287 36.676 68.488C36.1693 68.2347 35.6183 68.108 35.023 68.108C34.301 68.108 33.6487 68.2727 33.066 68.602C32.496 68.9187 32.0463 69.3747 31.717 69.97C31.4003 70.5653 31.242 71.243 31.242 72.003C31.242 72.7757 31.4003 73.4597 31.717 74.055C32.0463 74.6377 32.496 75.0937 33.066 75.423C33.6487 75.7397 34.301 75.898 35.023 75.898C35.6183 75.898 36.1693 75.7777 36.676 75.537C37.1827 75.2963 37.6007 74.929 37.93 74.435L38.937 75.119C38.5443 75.765 38.006 76.259 37.322 76.601C36.638 76.9303 35.8717 77.095 35.023 77.095ZM45.5051 77.095C44.5424 77.095 43.6747 76.8797 42.9021 76.449C42.1294 76.0057 41.5214 75.3977 41.0781 74.625C40.6347 73.8523 40.4131 72.9783 40.4131 72.003C40.4131 71.0277 40.6347 70.1537 41.0781 69.381C41.5214 68.6083 42.1294 68.0067 42.9021 67.576C43.6747 67.1453 44.5424 66.93 45.5051 66.93C46.4677 66.93 47.3354 67.1453 48.1081 67.576C48.8807 68.0067 49.4824 68.6083 49.9131 69.381C50.3564 70.1537 50.5781 71.0277 50.5781 72.003C50.5781 72.9783 50.3564 73.8523 49.9131 74.625C49.4824 75.3977 48.8807 76.0057 48.1081 76.449C47.3354 76.8797 46.4677 77.095 45.5051 77.095ZM45.5051 75.898C46.2144 75.898 46.8477 75.7397 47.4051 75.423C47.9751 75.0937 48.4184 74.6313 48.7351 74.036C49.0517 73.4407 49.2101 72.763 49.2101 72.003C49.2101 71.243 49.0517 70.5653 48.7351 69.97C48.4184 69.3747 47.9751 68.9187 47.4051 68.602C46.8477 68.2727 46.2144 68.108 45.5051 68.108C44.7957 68.108 44.1561 68.2727 43.5861 68.602C43.0287 68.9187 42.5854 69.3747 42.2561 69.97C41.9394 70.5653 41.7811 71.243 41.7811 72.003C41.7811 72.763 41.9394 73.4407 42.2561 74.036C42.5854 74.6313 43.0287 75.0937 43.5861 75.423C44.1561 75.7397 44.7957 75.898 45.5051 75.898ZM58.4242 66.93C59.6782 66.93 60.6725 67.2973 61.4072 68.032C62.1545 68.754 62.5282 69.8117 62.5282 71.205V77H61.1792V71.338C61.1792 70.2993 60.9195 69.5077 60.4002 68.963C59.8808 68.4183 59.1398 68.146 58.1772 68.146C57.1005 68.146 56.2455 68.469 55.6122 69.115C54.9915 69.7483 54.6812 70.6287 54.6812 71.756V77H53.3322V67.006H54.6242V68.849C54.9915 68.241 55.4982 67.7723 56.1442 67.443C56.8028 67.101 57.5628 66.93 58.4242 66.93ZM71.2826 66.93C72.5366 66.93 73.5309 67.2973 74.2656 68.032C75.0129 68.754 75.3866 69.8117 75.3866 71.205V77H74.0376V71.338C74.0376 70.2993 73.7779 69.5077 73.2586 68.963C72.7392 68.4183 71.9982 68.146 71.0356 68.146C69.9589 68.146 69.1039 68.469 68.4706 69.115C67.8499 69.7483 67.5396 70.6287 67.5396 71.756V77H66.1906V67.006H67.4826V68.849C67.8499 68.241 68.3566 67.7723 69.0026 67.443C69.6612 67.101 70.4212 66.93 71.2826 66.93ZM82.545 66.93C83.8496 66.93 84.8503 67.2593 85.547 67.918C86.2436 68.564 86.592 69.5267 86.592 70.806V77H85.3V75.442C84.996 75.9613 84.5463 76.3667 83.951 76.658C83.3683 76.9493 82.6716 77.095 81.861 77.095C80.7463 77.095 79.8596 76.829 79.201 76.297C78.5423 75.765 78.213 75.062 78.213 74.188C78.213 73.3393 78.517 72.6553 79.125 72.136C79.7456 71.6167 80.7273 71.357 82.07 71.357H85.243V70.749C85.243 69.8877 85.0023 69.2353 84.521 68.792C84.0396 68.336 83.3366 68.108 82.412 68.108C81.7786 68.108 81.1706 68.2157 80.588 68.431C80.0053 68.6337 79.505 68.9187 79.087 69.286L78.479 68.279C78.9856 67.8483 79.5936 67.519 80.303 67.291C81.0123 67.0503 81.7596 66.93 82.545 66.93ZM82.07 76.031C82.83 76.031 83.4823 75.86 84.027 75.518C84.5716 75.1633 84.977 74.6567 85.243 73.998V72.364H82.108C80.398 72.364 79.543 72.9593 79.543 74.15C79.543 74.7327 79.7646 75.195 80.208 75.537C80.6513 75.8663 81.272 76.031 82.07 76.031ZM90.256 67.006H91.605V77H90.256V67.006ZM90.94 64.821C90.6613 64.821 90.427 64.726 90.237 64.536C90.047 64.346 89.952 64.118 89.952 63.852C89.952 63.5987 90.047 63.377 90.237 63.187C90.427 62.997 90.6613 62.902 90.94 62.902C91.2187 62.902 91.453 62.997 91.643 63.187C91.833 63.3643 91.928 63.5797 91.928 63.833C91.928 64.1117 91.833 64.346 91.643 64.536C91.453 64.726 91.2187 64.821 90.94 64.821ZM98.0375 77.095C97.2269 77.095 96.4479 76.981 95.7005 76.753C94.9659 76.5123 94.3895 76.2147 93.9715 75.86L94.5795 74.796C94.9975 75.1253 95.5232 75.3977 96.1565 75.613C96.7899 75.8157 97.4485 75.917 98.1325 75.917C99.0445 75.917 99.7159 75.7777 100.147 75.499C100.59 75.2077 100.812 74.8023 100.812 74.283C100.812 73.9157 100.691 73.6307 100.451 73.428C100.21 73.2127 99.9059 73.0543 99.5385 72.953C99.1712 72.839 98.6835 72.7313 98.0755 72.63C97.2649 72.478 96.6125 72.326 96.1185 72.174C95.6245 72.0093 95.2002 71.737 94.8455 71.357C94.5035 70.977 94.3325 70.4513 94.3325 69.78C94.3325 68.944 94.6809 68.26 95.3775 67.728C96.0742 67.196 97.0432 66.93 98.2845 66.93C98.9305 66.93 99.5765 67.0187 100.223 67.196C100.869 67.3607 101.401 67.5823 101.819 67.861L101.23 68.944C100.406 68.374 99.4245 68.089 98.2845 68.089C97.4232 68.089 96.7709 68.241 96.3275 68.545C95.8969 68.849 95.6815 69.248 95.6815 69.742C95.6815 70.122 95.8019 70.426 96.0425 70.654C96.2959 70.882 96.6062 71.053 96.9735 71.167C97.3409 71.2683 97.8475 71.376 98.4935 71.49C99.2915 71.642 99.9312 71.794 100.413 71.946C100.894 72.098 101.306 72.3577 101.648 72.725C101.99 73.0923 102.161 73.599 102.161 74.245C102.161 75.119 101.793 75.8157 101.059 76.335C100.337 76.8417 99.3295 77.095 98.0375 77.095ZM109.627 62.902H110.976V77H109.627V62.902ZM118.226 66.93C119.53 66.93 120.531 67.2593 121.228 67.918C121.924 68.564 122.273 69.5267 122.273 70.806V77H120.981V75.442C120.677 75.9613 120.227 76.3667 119.632 76.658C119.049 76.9493 118.352 77.095 117.542 77.095C116.427 77.095 115.54 76.829 114.882 76.297C114.223 75.765 113.894 75.062 113.894 74.188C113.894 73.3393 114.198 72.6553 114.806 72.136C115.426 71.6167 116.408 71.357 117.751 71.357H120.924V70.749C120.924 69.8877 120.683 69.2353 120.202 68.792C119.72 68.336 119.017 68.108 118.093 68.108C117.459 68.108 116.851 68.2157 116.269 68.431C115.686 68.6337 115.186 68.9187 114.768 69.286L114.16 68.279C114.666 67.8483 115.274 67.519 115.984 67.291C116.693 67.0503 117.44 66.93 118.226 66.93ZM117.751 76.031C118.511 76.031 119.163 75.86 119.708 75.518C120.252 75.1633 120.658 74.6567 120.924 73.998V72.364H117.789C116.079 72.364 115.224 72.9593 115.224 74.15C115.224 74.7327 115.445 75.195 115.889 75.537C116.332 75.8663 116.953 76.031 117.751 76.031ZM139.307 67.006L134.861 77H133.474L129.047 67.006H130.453L134.196 75.518L137.977 67.006H139.307ZM141.207 67.006H142.556V77H141.207V67.006ZM141.891 64.821C141.613 64.821 141.378 64.726 141.188 64.536C140.998 64.346 140.903 64.118 140.903 63.852C140.903 63.5987 140.998 63.377 141.188 63.187C141.378 62.997 141.613 62.902 141.891 62.902C142.17 62.902 142.404 62.997 142.594 63.187C142.784 63.3643 142.879 63.5797 142.879 63.833C142.879 64.1117 142.784 64.346 142.594 64.536C142.404 64.726 142.17 64.821 141.891 64.821ZM146.31 62.902H147.659V77H146.31V62.902ZM151.412 62.902H152.761V77H151.412V62.902ZM165.217 72.421H156.857C156.933 73.4597 157.332 74.302 158.054 74.948C158.776 75.5813 159.688 75.898 160.79 75.898C161.41 75.898 161.98 75.7903 162.5 75.575C163.019 75.347 163.469 75.0177 163.849 74.587L164.609 75.461C164.165 75.993 163.608 76.3983 162.937 76.677C162.278 76.9557 161.55 77.095 160.752 77.095C159.726 77.095 158.814 76.8797 158.016 76.449C157.23 76.0057 156.616 75.3977 156.173 74.625C155.729 73.8523 155.508 72.9783 155.508 72.003C155.508 71.0277 155.717 70.1537 156.135 69.381C156.565 68.6083 157.148 68.0067 157.883 67.576C158.63 67.1453 159.466 66.93 160.391 66.93C161.315 66.93 162.145 67.1453 162.88 67.576C163.614 68.0067 164.191 68.6083 164.609 69.381C165.027 70.141 165.236 71.015 165.236 72.003L165.217 72.421ZM160.391 68.089C159.428 68.089 158.617 68.3993 157.959 69.02C157.313 69.628 156.945 70.426 156.857 71.414H163.944C163.855 70.426 163.481 69.628 162.823 69.02C162.177 68.3993 161.366 68.089 160.391 68.089ZM177.096 77.095C176.108 77.095 175.222 76.8797 174.436 76.449C173.664 76.0183 173.056 75.4167 172.612 74.644C172.169 73.8587 171.947 72.9783 171.947 72.003C171.947 71.0277 172.169 70.1537 172.612 69.381C173.056 68.6083 173.664 68.0067 174.436 67.576C175.222 67.1453 176.108 66.93 177.096 66.93C177.958 66.93 178.724 67.101 179.395 67.443C180.079 67.7723 180.618 68.26 181.01 68.906L180.003 69.59C179.674 69.096 179.256 68.7287 178.749 68.488C178.243 68.2347 177.692 68.108 177.096 68.108C176.374 68.108 175.722 68.2727 175.139 68.602C174.569 68.9187 174.12 69.3747 173.79 69.97C173.474 70.5653 173.315 71.243 173.315 72.003C173.315 72.7757 173.474 73.4597 173.79 74.055C174.12 74.6377 174.569 75.0937 175.139 75.423C175.722 75.7397 176.374 75.898 177.096 75.898C177.692 75.898 178.243 75.7777 178.749 75.537C179.256 75.2963 179.674 74.929 180.003 74.435L181.01 75.119C180.618 75.765 180.079 76.259 179.395 76.601C178.711 76.9303 177.945 77.095 177.096 77.095ZM187.578 77.095C186.616 77.095 185.748 76.8797 184.975 76.449C184.203 76.0057 183.595 75.3977 183.151 74.625C182.708 73.8523 182.486 72.9783 182.486 72.003C182.486 71.0277 182.708 70.1537 183.151 69.381C183.595 68.6083 184.203 68.0067 184.975 67.576C185.748 67.1453 186.616 66.93 187.578 66.93C188.541 66.93 189.409 67.1453 190.181 67.576C190.954 68.0067 191.556 68.6083 191.986 69.381C192.43 70.1537 192.651 71.0277 192.651 72.003C192.651 72.9783 192.43 73.8523 191.986 74.625C191.556 75.3977 190.954 76.0057 190.181 76.449C189.409 76.8797 188.541 77.095 187.578 77.095ZM187.578 75.898C188.288 75.898 188.921 75.7397 189.478 75.423C190.048 75.0937 190.492 74.6313 190.808 74.036C191.125 73.4407 191.283 72.763 191.283 72.003C191.283 71.243 191.125 70.5653 190.808 69.97C190.492 69.3747 190.048 68.9187 189.478 68.602C188.921 68.2727 188.288 68.108 187.578 68.108C186.869 68.108 186.229 68.2727 185.659 68.602C185.102 68.9187 184.659 69.3747 184.329 69.97C184.013 70.5653 183.854 71.243 183.854 72.003C183.854 72.763 184.013 73.4407 184.329 74.036C184.659 74.6313 185.102 75.0937 185.659 75.423C186.229 75.7397 186.869 75.898 187.578 75.898ZM207.869 66.93C209.123 66.93 210.105 67.291 210.814 68.013C211.536 68.735 211.897 69.799 211.897 71.205V77H210.548V71.338C210.548 70.2993 210.295 69.5077 209.788 68.963C209.294 68.4183 208.591 68.146 207.679 68.146C206.641 68.146 205.824 68.469 205.228 69.115C204.633 69.7483 204.335 70.6287 204.335 71.756V77H202.986V71.338C202.986 70.2993 202.733 69.5077 202.226 68.963C201.732 68.4183 201.023 68.146 200.098 68.146C199.072 68.146 198.255 68.469 197.647 69.115C197.052 69.7483 196.754 70.6287 196.754 71.756V77H195.405V67.006H196.697V68.83C197.052 68.222 197.546 67.7533 198.179 67.424C198.813 67.0947 199.541 66.93 200.364 66.93C201.2 66.93 201.922 67.1073 202.53 67.462C203.151 67.8167 203.613 68.3423 203.917 69.039C204.285 68.3803 204.81 67.8673 205.494 67.5C206.191 67.12 206.983 66.93 207.869 66.93ZM228.02 66.93C229.274 66.93 230.255 67.291 230.965 68.013C231.687 68.735 232.048 69.799 232.048 71.205V77H230.699V71.338C230.699 70.2993 230.445 69.5077 229.939 68.963C229.445 68.4183 228.742 68.146 227.83 68.146C226.791 68.146 225.974 68.469 225.379 69.115C224.783 69.7483 224.486 70.6287 224.486 71.756V77H223.137V71.338C223.137 70.2993 222.883 69.5077 222.377 68.963C221.883 68.4183 221.173 68.146 220.249 68.146C219.223 68.146 218.406 68.469 217.798 69.115C217.202 69.7483 216.905 70.6287 216.905 71.756V77H215.556V67.006H216.848V68.83C217.202 68.222 217.696 67.7533 218.33 67.424C218.963 67.0947 219.691 66.93 220.515 66.93C221.351 66.93 222.073 67.1073 222.681 67.462C223.301 67.8167 223.764 68.3423 224.068 69.039C224.435 68.3803 224.961 67.8673 225.645 67.5C226.341 67.12 227.133 66.93 228.02 66.93ZM244.445 72.421H236.085C236.161 73.4597 236.56 74.302 237.282 74.948C238.004 75.5813 238.916 75.898 240.018 75.898C240.639 75.898 241.209 75.7903 241.728 75.575C242.248 75.347 242.697 75.0177 243.077 74.587L243.837 75.461C243.394 75.993 242.837 76.3983 242.165 76.677C241.507 76.9557 240.778 77.095 239.98 77.095C238.954 77.095 238.042 76.8797 237.244 76.449C236.459 76.0057 235.845 75.3977 235.401 74.625C234.958 73.8523 234.736 72.9783 234.736 72.003C234.736 71.0277 234.945 70.1537 235.363 69.381C235.794 68.6083 236.377 68.0067 237.111 67.576C237.859 67.1453 238.695 66.93 239.619 66.93C240.544 66.93 241.374 67.1453 242.108 67.576C242.843 68.0067 243.419 68.6083 243.837 69.381C244.255 70.141 244.464 71.015 244.464 72.003L244.445 72.421ZM239.619 68.089C238.657 68.089 237.846 68.3993 237.187 69.02C236.541 69.628 236.174 70.426 236.085 71.414H243.172C243.084 70.426 242.71 69.628 242.051 69.02C241.405 68.3993 240.595 68.089 239.619 68.089ZM43.345 89.93C44.599 89.93 45.5807 90.291 46.29 91.013C47.012 91.735 47.373 92.799 47.373 94.205V100H46.024V94.338C46.024 93.2993 45.7707 92.5077 45.264 91.963C44.77 91.4183 44.067 91.146 43.155 91.146C42.1163 91.146 41.2993 91.469 40.704 92.115C40.1087 92.7483 39.811 93.6287 39.811 94.756V100H38.462V94.338C38.462 93.2993 38.2087 92.5077 37.702 91.963C37.208 91.4183 36.4987 91.146 35.574 91.146C34.548 91.146 33.731 91.469 33.123 92.115C32.5277 92.7483 32.23 93.6287 32.23 94.756V100H30.881V90.006H32.173V91.83C32.5277 91.222 33.0217 90.7533 33.655 90.424C34.2883 90.0947 35.0167 89.93 35.84 89.93C36.676 89.93 37.398 90.1073 38.006 90.462C38.6267 90.8167 39.089 91.3423 39.393 92.039C39.7603 91.3803 40.286 90.8673 40.97 90.5C41.6667 90.12 42.4583 89.93 43.345 89.93ZM54.5274 89.93C55.8321 89.93 56.8327 90.2593 57.5294 90.918C58.2261 91.564 58.5744 92.5267 58.5744 93.806V100H57.2824V98.442C56.9784 98.9613 56.5287 99.3667 55.9334 99.658C55.3507 99.9493 54.6541 100.095 53.8434 100.095C52.7287 100.095 51.8421 99.829 51.1834 99.297C50.5247 98.765 50.1954 98.062 50.1954 97.188C50.1954 96.3393 50.4994 95.6553 51.1074 95.136C51.7281 94.6167 52.7097 94.357 54.0524 94.357H57.2254V93.749C57.2254 92.8877 56.9847 92.2353 56.5034 91.792C56.0221 91.336 55.3191 91.108 54.3944 91.108C53.7611 91.108 53.1531 91.2157 52.5704 91.431C51.9877 91.6337 51.4874 91.9187 51.0694 92.286L50.4614 91.279C50.9681 90.8483 51.5761 90.519 52.2854 90.291C52.9947 90.0503 53.7421 89.93 54.5274 89.93ZM54.0524 99.031C54.8124 99.031 55.4647 98.86 56.0094 98.518C56.5541 98.1633 56.9594 97.6567 57.2254 96.998V95.364H54.0904C52.3804 95.364 51.5254 95.9593 51.5254 97.15C51.5254 97.7327 51.7471 98.195 52.1904 98.537C52.6337 98.8663 53.2544 99.031 54.0524 99.031ZM72.3601 89.93C73.2974 89.93 74.1461 90.1453 74.9061 90.576C75.6661 90.994 76.2614 91.5893 76.6921 92.362C77.1227 93.1347 77.3381 94.015 77.3381 95.003C77.3381 96.0037 77.1227 96.8903 76.6921 97.663C76.2614 98.4357 75.6661 99.0373 74.9061 99.468C74.1587 99.886 73.3101 100.095 72.3601 100.095C71.5494 100.095 70.8147 99.9303 70.1561 99.601C69.5101 99.259 68.9781 98.765 68.5601 98.119V103.686H67.2111V90.006H68.5031V91.982C68.9084 91.3233 69.4404 90.8167 70.0991 90.462C70.7704 90.1073 71.5241 89.93 72.3601 89.93ZM72.2651 98.898C72.9617 98.898 73.5951 98.7397 74.1651 98.423C74.7351 98.0937 75.1784 97.6313 75.4951 97.036C75.8244 96.4407 75.9891 95.763 75.9891 95.003C75.9891 94.243 75.8244 93.5717 75.4951 92.989C75.1784 92.3937 74.7351 91.9313 74.1651 91.602C73.5951 91.2727 72.9617 91.108 72.2651 91.108C71.5557 91.108 70.9161 91.2727 70.3461 91.602C69.7887 91.9313 69.3454 92.3937 69.0161 92.989C68.6994 93.5717 68.5411 94.243 68.5411 95.003C68.5411 95.763 68.6994 96.4407 69.0161 97.036C69.3454 97.6313 69.7887 98.0937 70.3461 98.423C70.9161 98.7397 71.5557 98.898 72.2651 98.898ZM84.173 100.095C83.2104 100.095 82.3427 99.8797 81.57 99.449C80.7974 99.0057 80.1894 98.3977 79.746 97.625C79.3027 96.8523 79.081 95.9783 79.081 95.003C79.081 94.0277 79.3027 93.1537 79.746 92.381C80.1894 91.6083 80.7974 91.0067 81.57 90.576C82.3427 90.1453 83.2104 89.93 84.173 89.93C85.1357 89.93 86.0034 90.1453 86.776 90.576C87.5487 91.0067 88.1504 91.6083 88.581 92.381C89.0244 93.1537 89.246 94.0277 89.246 95.003C89.246 95.9783 89.0244 96.8523 88.581 97.625C88.1504 98.3977 87.5487 99.0057 86.776 99.449C86.0034 99.8797 85.1357 100.095 84.173 100.095ZM84.173 98.898C84.8824 98.898 85.5157 98.7397 86.073 98.423C86.643 98.0937 87.0864 97.6313 87.403 97.036C87.7197 96.4407 87.878 95.763 87.878 95.003C87.878 94.243 87.7197 93.5653 87.403 92.97C87.0864 92.3747 86.643 91.9187 86.073 91.602C85.5157 91.2727 84.8824 91.108 84.173 91.108C83.4637 91.108 82.824 91.2727 82.254 91.602C81.6967 91.9187 81.2534 92.3747 80.924 92.97C80.6074 93.5653 80.449 94.243 80.449 95.003C80.449 95.763 80.6074 96.4407 80.924 97.036C81.2534 97.6313 81.6967 98.0937 82.254 98.423C82.824 98.7397 83.4637 98.898 84.173 98.898ZM96.1421 100.095C95.1541 100.095 94.2675 99.8797 93.4821 99.449C92.7095 99.0183 92.1015 98.4167 91.6581 97.644C91.2148 96.8587 90.9931 95.9783 90.9931 95.003C90.9931 94.0277 91.2148 93.1537 91.6581 92.381C92.1015 91.6083 92.7095 91.0067 93.4821 90.576C94.2675 90.1453 95.1541 89.93 96.1421 89.93C97.0035 89.93 97.7698 90.101 98.4411 90.443C99.1251 90.7723 99.6635 91.26 100.056 91.906L99.0491 92.59C98.7198 92.096 98.3018 91.7287 97.7951 91.488C97.2885 91.2347 96.7375 91.108 96.1421 91.108C95.4201 91.108 94.7678 91.2727 94.1851 91.602C93.6151 91.9187 93.1655 92.3747 92.8361 92.97C92.5195 93.5653 92.3611 94.243 92.3611 95.003C92.3611 95.7757 92.5195 96.4597 92.8361 97.055C93.1655 97.6377 93.6151 98.0937 94.1851 98.423C94.7678 98.7397 95.4201 98.898 96.1421 98.898C96.7375 98.898 97.2885 98.7777 97.7951 98.537C98.3018 98.2963 98.7198 97.929 99.0491 97.435L100.056 98.119C99.6635 98.765 99.1251 99.259 98.4411 99.601C97.7571 99.9303 96.9908 100.095 96.1421 100.095ZM107.65 89.93C108.904 89.93 109.898 90.2973 110.633 91.032C111.38 91.754 111.754 92.8117 111.754 94.205V100H110.405V94.338C110.405 93.2993 110.145 92.5077 109.626 91.963C109.106 91.4183 108.365 91.146 107.403 91.146C106.326 91.146 105.471 91.469 104.838 92.115C104.217 92.7483 103.907 93.6287 103.907 94.756V100H102.558V85.902H103.907V91.754C104.274 91.1713 104.781 90.7217 105.427 90.405C106.073 90.0883 106.814 89.93 107.65 89.93ZM124.155 95.421H115.795C115.871 96.4597 116.27 97.302 116.992 97.948C117.714 98.5813 118.626 98.898 119.728 98.898C120.349 98.898 120.919 98.7903 121.438 98.575C121.958 98.347 122.407 98.0177 122.787 97.587L123.547 98.461C123.104 98.993 122.547 99.3983 121.875 99.677C121.217 99.9557 120.488 100.095 119.69 100.095C118.664 100.095 117.752 99.8797 116.954 99.449C116.169 99.0057 115.555 98.3977 115.111 97.625C114.668 96.8523 114.446 95.9783 114.446 95.003C114.446 94.0277 114.655 93.1537 115.073 92.381C115.504 91.6083 116.087 91.0067 116.821 90.576C117.569 90.1453 118.405 89.93 119.329 89.93C120.254 89.93 121.084 90.1453 121.818 90.576C122.553 91.0067 123.129 91.6083 123.547 92.381C123.965 93.141 124.174 94.015 124.174 95.003L124.155 95.421ZM119.329 91.089C118.367 91.089 117.556 91.3993 116.897 92.02C116.251 92.628 115.884 93.426 115.795 94.414H122.882C122.794 93.426 122.42 92.628 121.761 92.02C121.115 91.3993 120.305 91.089 119.329 91.089ZM127.072 98.024C127.363 98.024 127.604 98.1253 127.794 98.328C127.984 98.518 128.079 98.7587 128.079 99.05C128.079 99.202 128.054 99.3667 128.003 99.544C127.965 99.7213 127.902 99.924 127.813 100.152L127.015 102.774H126.103L126.749 100.019C126.546 99.9557 126.382 99.8417 126.255 99.677C126.128 99.4997 126.065 99.2907 126.065 99.05C126.065 98.7587 126.16 98.518 126.35 98.328C126.54 98.1253 126.781 98.024 127.072 98.024ZM134.437 103.781C134.019 103.781 133.626 103.724 133.259 103.61C132.879 103.509 132.569 103.35 132.328 103.135L132.803 102.109C133.196 102.451 133.715 102.622 134.361 102.622C134.893 102.622 135.298 102.464 135.577 102.147C135.868 101.83 136.014 101.362 136.014 100.741V90.006H137.363V100.741C137.363 101.678 137.11 102.419 136.603 102.964C136.096 103.509 135.374 103.781 134.437 103.781ZM136.698 87.802C136.419 87.802 136.185 87.707 135.995 87.517C135.805 87.327 135.71 87.099 135.71 86.833C135.71 86.5797 135.805 86.358 135.995 86.168C136.185 85.978 136.419 85.883 136.698 85.883C136.977 85.883 137.211 85.978 137.401 86.168C137.591 86.3453 137.686 86.5607 137.686 86.814C137.686 87.0927 137.591 87.327 137.401 87.517C137.211 87.707 136.977 87.802 136.698 87.802ZM149.835 95.421H141.475C141.551 96.4597 141.95 97.302 142.672 97.948C143.394 98.5813 144.306 98.898 145.408 98.898C146.029 98.898 146.599 98.7903 147.118 98.575C147.637 98.347 148.087 98.0177 148.467 97.587L149.227 98.461C148.784 98.993 148.226 99.3983 147.555 99.677C146.896 99.9557 146.168 100.095 145.37 100.095C144.344 100.095 143.432 99.8797 142.634 99.449C141.849 99.0057 141.234 98.3977 140.791 97.625C140.348 96.8523 140.126 95.9783 140.126 95.003C140.126 94.0277 140.335 93.1537 140.753 92.381C141.184 91.6083 141.766 91.0067 142.501 90.576C143.248 90.1453 144.084 89.93 145.009 89.93C145.934 89.93 146.763 90.1453 147.498 90.576C148.233 91.0067 148.809 91.6083 149.227 92.381C149.645 93.141 149.854 94.015 149.854 95.003L149.835 95.421ZM145.009 91.089C144.046 91.089 143.236 91.3993 142.577 92.02C141.931 92.628 141.564 93.426 141.475 94.414H148.562C148.473 93.426 148.1 92.628 147.441 92.02C146.795 91.3993 145.984 91.089 145.009 91.089ZM160.251 100.095C159.441 100.095 158.662 99.981 157.914 99.753C157.18 99.5123 156.603 99.2147 156.185 98.86L156.793 97.796C157.211 98.1253 157.737 98.3977 158.37 98.613C159.004 98.8157 159.662 98.917 160.346 98.917C161.258 98.917 161.93 98.7777 162.36 98.499C162.804 98.2077 163.025 97.8023 163.025 97.283C163.025 96.9157 162.905 96.6307 162.664 96.428C162.424 96.2127 162.12 96.0543 161.752 95.953C161.385 95.839 160.897 95.7313 160.289 95.63C159.479 95.478 158.826 95.326 158.332 95.174C157.838 95.0093 157.414 94.737 157.059 94.357C156.717 93.977 156.546 93.4513 156.546 92.78C156.546 91.944 156.895 91.26 157.591 90.728C158.288 90.196 159.257 89.93 160.498 89.93C161.144 89.93 161.79 90.0187 162.436 90.196C163.082 90.3607 163.614 90.5823 164.032 90.861L163.443 91.944C162.62 91.374 161.638 91.089 160.498 91.089C159.637 91.089 158.985 91.241 158.541 91.545C158.111 91.849 157.895 92.248 157.895 92.742C157.895 93.122 158.016 93.426 158.256 93.654C158.51 93.882 158.82 94.053 159.187 94.167C159.555 94.2683 160.061 94.376 160.707 94.49C161.505 94.642 162.145 94.794 162.626 94.946C163.108 95.098 163.519 95.3577 163.861 95.725C164.203 96.0923 164.374 96.599 164.374 97.245C164.374 98.119 164.007 98.8157 163.272 99.335C162.55 99.8417 161.543 100.095 160.251 100.095ZM175.874 90.006V100H174.582V98.176C174.228 98.784 173.74 99.259 173.119 99.601C172.499 99.9303 171.789 100.095 170.991 100.095C169.687 100.095 168.654 99.734 167.894 99.012C167.147 98.2773 166.773 97.207 166.773 95.801V90.006H168.122V95.668C168.122 96.7193 168.382 97.5173 168.901 98.062C169.421 98.6067 170.162 98.879 171.124 98.879C172.176 98.879 173.005 98.5623 173.613 97.929C174.221 97.283 174.525 96.39 174.525 95.25V90.006H175.874ZM179.652 90.006H181.001V100H179.652V90.006ZM180.336 87.821C180.058 87.821 179.823 87.726 179.633 87.536C179.443 87.346 179.348 87.118 179.348 86.852C179.348 86.5987 179.443 86.377 179.633 86.187C179.823 85.997 180.058 85.902 180.336 85.902C180.615 85.902 180.849 85.997 181.039 86.187C181.229 86.3643 181.324 86.5797 181.324 86.833C181.324 87.1117 181.229 87.346 181.039 87.536C180.849 87.726 180.615 87.821 180.336 87.821ZM187.434 100.095C186.623 100.095 185.844 99.981 185.097 99.753C184.362 99.5123 183.786 99.2147 183.368 98.86L183.976 97.796C184.394 98.1253 184.92 98.3977 185.553 98.613C186.186 98.8157 186.845 98.917 187.529 98.917C188.441 98.917 189.112 98.7777 189.543 98.499C189.986 98.2077 190.208 97.8023 190.208 97.283C190.208 96.9157 190.088 96.6307 189.847 96.428C189.606 96.2127 189.302 96.0543 188.935 95.953C188.568 95.839 188.08 95.7313 187.472 95.63C186.661 95.478 186.009 95.326 185.515 95.174C185.021 95.0093 184.597 94.737 184.242 94.357C183.9 93.977 183.729 93.4513 183.729 92.78C183.729 91.944 184.077 91.26 184.774 90.728C185.471 90.196 186.44 89.93 187.681 89.93C188.327 89.93 188.973 90.0187 189.619 90.196C190.265 90.3607 190.797 90.5823 191.215 90.861L190.626 91.944C189.803 91.374 188.821 91.089 187.681 91.089C186.82 91.089 186.167 91.241 185.724 91.545C185.293 91.849 185.078 92.248 185.078 92.742C185.078 93.122 185.198 93.426 185.439 93.654C185.692 93.882 186.003 94.053 186.37 94.167C186.737 94.2683 187.244 94.376 187.89 94.49C188.688 94.642 189.328 94.794 189.809 94.946C190.29 95.098 190.702 95.3577 191.044 95.725C191.386 96.0923 191.557 96.599 191.557 97.245C191.557 98.119 191.19 98.8157 190.455 99.335C189.733 99.8417 188.726 100.095 187.434 100.095ZM204.116 89.93C205.37 89.93 206.364 90.2973 207.099 91.032C207.846 91.754 208.22 92.8117 208.22 94.205V100H206.871V94.338C206.871 93.2993 206.611 92.5077 206.092 91.963C205.572 91.4183 204.831 91.146 203.869 91.146C202.792 91.146 201.937 91.469 201.304 92.115C200.683 92.7483 200.373 93.6287 200.373 94.756V100H199.024V90.006H200.316V91.849C200.683 91.241 201.19 90.7723 201.836 90.443C202.494 90.101 203.254 89.93 204.116 89.93ZM220.621 95.421H212.261C212.337 96.4597 212.736 97.302 213.458 97.948C214.18 98.5813 215.092 98.898 216.194 98.898C216.815 98.898 217.385 98.7903 217.904 98.575C218.423 98.347 218.873 98.0177 219.253 97.587L220.013 98.461C219.57 98.993 219.012 99.3983 218.341 99.677C217.682 99.9557 216.954 100.095 216.156 100.095C215.13 100.095 214.218 99.8797 213.42 99.449C212.635 99.0057 212.02 98.3977 211.577 97.625C211.134 96.8523 210.912 95.9783 210.912 95.003C210.912 94.0277 211.121 93.1537 211.539 92.381C211.97 91.6083 212.552 91.0067 213.287 90.576C214.034 90.1453 214.87 89.93 215.795 89.93C216.72 89.93 217.549 90.1453 218.284 90.576C219.019 91.0067 219.595 91.6083 220.013 92.381C220.431 93.141 220.64 94.015 220.64 95.003L220.621 95.421ZM215.795 91.089C214.832 91.089 214.022 91.3993 213.363 92.02C212.717 92.628 212.35 93.426 212.261 94.414H219.348C219.259 93.426 218.886 92.628 218.227 92.02C217.581 91.3993 216.77 91.089 215.795 91.089ZM217.163 86.092H218.968L215.89 88.448H214.56L217.163 86.092ZM228.359 90.006H229.708V100H228.359V90.006ZM229.043 87.821C228.764 87.821 228.53 87.726 228.34 87.536C228.15 87.346 228.055 87.118 228.055 86.852C228.055 86.5987 228.15 86.377 228.34 86.187C228.53 85.997 228.764 85.902 229.043 85.902C229.321 85.902 229.556 85.997 229.746 86.187C229.936 86.3643 230.031 86.5797 230.031 86.833C230.031 87.1117 229.936 87.346 229.746 87.536C229.556 87.726 229.321 87.821 229.043 87.821ZM237.603 100.095C236.615 100.095 235.728 99.8797 234.943 99.449C234.17 99.0183 233.562 98.4167 233.119 97.644C232.676 96.8587 232.454 95.9783 232.454 95.003C232.454 94.0277 232.676 93.1537 233.119 92.381C233.562 91.6083 234.17 91.0067 234.943 90.576C235.728 90.1453 236.615 89.93 237.603 89.93C238.464 89.93 239.231 90.101 239.902 90.443C240.586 90.7723 241.124 91.26 241.517 91.906L240.51 92.59C240.181 92.096 239.763 91.7287 239.256 91.488C238.749 91.2347 238.198 91.108 237.603 91.108C236.881 91.108 236.229 91.2727 235.646 91.602C235.076 91.9187 234.626 92.3747 234.297 92.97C233.98 93.5653 233.822 94.243 233.822 95.003C233.822 95.7757 233.98 96.4597 234.297 97.055C234.626 97.6377 235.076 98.0937 235.646 98.423C236.229 98.7397 236.881 98.898 237.603 98.898C238.198 98.898 238.749 98.7777 239.256 98.537C239.763 98.2963 240.181 97.929 240.51 97.435L241.517 98.119C241.124 98.765 240.586 99.259 239.902 99.601C239.218 99.9303 238.452 100.095 237.603 100.095ZM244.167 90.006H245.516V100H244.167V90.006ZM244.851 87.821C244.572 87.821 244.338 87.726 244.148 87.536C243.958 87.346 243.863 87.118 243.863 86.852C243.863 86.5987 243.958 86.377 244.148 86.187C244.338 85.997 244.572 85.902 244.851 85.902C245.13 85.902 245.364 85.997 245.554 86.187C245.744 86.3643 245.839 86.5797 245.839 86.833C245.839 87.1117 245.744 87.346 245.554 87.536C245.364 87.726 245.13 87.821 244.851 87.821ZM254.033 86.7H255.629L255.344 96.01H254.299L254.033 86.7ZM254.831 100.095C254.553 100.095 254.312 100 254.109 99.81C253.919 99.6073 253.824 99.373 253.824 99.107C253.824 98.8283 253.919 98.6003 254.109 98.423C254.299 98.233 254.54 98.138 254.831 98.138C255.11 98.138 255.344 98.233 255.534 98.423C255.724 98.6003 255.819 98.8283 255.819 99.107C255.819 99.373 255.724 99.6073 255.534 99.81C255.344 100 255.11 100.095 254.831 100.095ZM44.561 124.121C44.1557 124.615 43.6743 124.989 43.117 125.242C42.5723 125.508 41.977 125.641 41.331 125.641C40.5457 125.641 39.7983 125.445 39.089 125.052C38.3923 124.672 37.607 124.026 36.733 123.114C35.4537 123.076 34.301 122.759 33.275 122.164C32.249 121.569 31.4447 120.764 30.862 119.751C30.2793 118.738 29.988 117.604 29.988 116.35C29.988 115.071 30.2857 113.918 30.881 112.892C31.489 111.866 32.325 111.062 33.389 110.479C34.4657 109.884 35.6627 109.586 36.98 109.586C38.2973 109.586 39.4817 109.877 40.533 110.46C41.597 111.043 42.433 111.853 43.041 112.892C43.649 113.918 43.953 115.071 43.953 116.35C43.953 117.465 43.7187 118.491 43.25 119.428C42.794 120.353 42.148 121.125 41.312 121.746C40.4887 122.367 39.5387 122.778 38.462 122.981C39.4373 124.007 40.4 124.52 41.35 124.52C42.338 124.52 43.1803 124.115 43.877 123.304L44.561 124.121ZM31.375 116.35C31.375 117.389 31.6157 118.326 32.097 119.162C32.591 119.998 33.2623 120.657 34.111 121.138C34.9723 121.619 35.9287 121.86 36.98 121.86C38.0313 121.86 38.9813 121.619 39.83 121.138C40.6787 120.657 41.3437 119.998 41.825 119.162C42.3063 118.326 42.547 117.389 42.547 116.35C42.547 115.311 42.3063 114.374 41.825 113.538C41.3437 112.702 40.6787 112.043 39.83 111.562C38.9813 111.081 38.0313 110.84 36.98 110.84C35.9287 110.84 34.9723 111.081 34.111 111.562C33.2623 112.043 32.591 112.702 32.097 113.538C31.6157 114.374 31.375 115.311 31.375 116.35ZM55.8255 113.006V123H54.5335V121.176C54.1788 121.784 53.6911 122.259 53.0705 122.601C52.4498 122.93 51.7405 123.095 50.9425 123.095C49.6378 123.095 48.6055 122.734 47.8455 122.012C47.0981 121.277 46.7245 120.207 46.7245 118.801V113.006H48.0735V118.668C48.0735 119.719 48.3331 120.517 48.8525 121.062C49.3718 121.607 50.1128 121.879 51.0755 121.879C52.1268 121.879 52.9565 121.562 53.5645 120.929C54.1725 120.283 54.4765 119.39 54.4765 118.25V113.006H55.8255ZM68.3057 118.421H59.9457C60.0217 119.46 60.4207 120.302 61.1427 120.948C61.8647 121.581 62.7767 121.898 63.8787 121.898C64.4993 121.898 65.0693 121.79 65.5887 121.575C66.108 121.347 66.5577 121.018 66.9377 120.587L67.6977 121.461C67.2543 121.993 66.697 122.398 66.0257 122.677C65.367 122.956 64.6387 123.095 63.8407 123.095C62.8147 123.095 61.9027 122.88 61.1047 122.449C60.3193 122.006 59.705 121.398 59.2617 120.625C58.8183 119.852 58.5967 118.978 58.5967 118.003C58.5967 117.028 58.8057 116.154 59.2237 115.381C59.6543 114.608 60.237 114.007 60.9717 113.576C61.719 113.145 62.555 112.93 63.4797 112.93C64.4043 112.93 65.234 113.145 65.9687 113.576C66.7033 114.007 67.2797 114.608 67.6977 115.381C68.1157 116.141 68.3247 117.015 68.3247 118.003L68.3057 118.421ZM63.4797 114.089C62.517 114.089 61.7063 114.399 61.0477 115.02C60.4017 115.628 60.0343 116.426 59.9457 117.414H67.0327C66.944 116.426 66.5703 115.628 65.9117 115.02C65.2657 114.399 64.455 114.089 63.4797 114.089ZM71.0705 108.902H72.4195V123H71.0705V108.902ZM78.852 123.095C78.0413 123.095 77.2623 122.981 76.515 122.753C75.7803 122.512 75.204 122.215 74.786 121.86L75.394 120.796C75.812 121.125 76.3377 121.398 76.971 121.613C77.6043 121.816 78.263 121.917 78.947 121.917C79.859 121.917 80.5303 121.778 80.961 121.499C81.4043 121.208 81.626 120.802 81.626 120.283C81.626 119.916 81.5057 119.631 81.265 119.428C81.0243 119.213 80.7203 119.054 80.353 118.953C79.9857 118.839 79.498 118.731 78.89 118.63C78.0793 118.478 77.427 118.326 76.933 118.174C76.439 118.009 76.0147 117.737 75.66 117.357C75.318 116.977 75.147 116.451 75.147 115.78C75.147 114.944 75.4953 114.26 76.192 113.728C76.8887 113.196 77.8577 112.93 79.099 112.93C79.745 112.93 80.391 113.019 81.037 113.196C81.683 113.361 82.215 113.582 82.633 113.861L82.044 114.944C81.2207 114.374 80.239 114.089 79.099 114.089C78.2377 114.089 77.5853 114.241 77.142 114.545C76.7113 114.849 76.496 115.248 76.496 115.742C76.496 116.122 76.6163 116.426 76.857 116.654C77.1103 116.882 77.4207 117.053 77.788 117.167C78.1553 117.268 78.662 117.376 79.308 117.49C80.106 117.642 80.7457 117.794 81.227 117.946C81.7083 118.098 82.12 118.358 82.462 118.725C82.804 119.092 82.975 119.599 82.975 120.245C82.975 121.119 82.6077 121.816 81.873 122.335C81.151 122.842 80.144 123.095 78.852 123.095ZM93.1205 123.095C92.3099 123.095 91.5309 122.981 90.7835 122.753C90.0489 122.512 89.4725 122.215 89.0545 121.86L89.6625 120.796C90.0805 121.125 90.6062 121.398 91.2395 121.613C91.8729 121.816 92.5315 121.917 93.2155 121.917C94.1275 121.917 94.7989 121.778 95.2295 121.499C95.6729 121.208 95.8945 120.802 95.8945 120.283C95.8945 119.916 95.7742 119.631 95.5335 119.428C95.2929 119.213 94.9889 119.054 94.6215 118.953C94.2542 118.839 93.7665 118.731 93.1585 118.63C92.3479 118.478 91.6955 118.326 91.2015 118.174C90.7075 118.009 90.2832 117.737 89.9285 117.357C89.5865 116.977 89.4155 116.451 89.4155 115.78C89.4155 114.944 89.7639 114.26 90.4605 113.728C91.1572 113.196 92.1262 112.93 93.3675 112.93C94.0135 112.93 94.6595 113.019 95.3055 113.196C95.9515 113.361 96.4835 113.582 96.9015 113.861L96.3125 114.944C95.4892 114.374 94.5075 114.089 93.3675 114.089C92.5062 114.089 91.8539 114.241 91.4105 114.545C90.9799 114.849 90.7645 115.248 90.7645 115.742C90.7645 116.122 90.8849 116.426 91.1255 116.654C91.3789 116.882 91.6892 117.053 92.0565 117.167C92.4239 117.268 92.9305 117.376 93.5765 117.49C94.3745 117.642 95.0142 117.794 95.4955 117.946C95.9769 118.098 96.3885 118.358 96.7305 118.725C97.0725 119.092 97.2435 119.599 97.2435 120.245C97.2435 121.119 96.8762 121.816 96.1415 122.335C95.4195 122.842 94.4125 123.095 93.1205 123.095ZM103.822 123.095C102.86 123.095 101.992 122.88 101.219 122.449C100.447 122.006 99.8388 121.398 99.3954 120.625C98.9521 119.852 98.7304 118.978 98.7304 118.003C98.7304 117.028 98.9521 116.154 99.3954 115.381C99.8388 114.608 100.447 114.007 101.219 113.576C101.992 113.145 102.86 112.93 103.822 112.93C104.785 112.93 105.653 113.145 106.425 113.576C107.198 114.007 107.8 114.608 108.23 115.381C108.674 116.154 108.895 117.028 108.895 118.003C108.895 118.978 108.674 119.852 108.23 120.625C107.8 121.398 107.198 122.006 106.425 122.449C105.653 122.88 104.785 123.095 103.822 123.095ZM103.822 121.898C104.532 121.898 105.165 121.74 105.722 121.423C106.292 121.094 106.736 120.631 107.052 120.036C107.369 119.441 107.527 118.763 107.527 118.003C107.527 117.243 107.369 116.565 107.052 115.97C106.736 115.375 106.292 114.919 105.722 114.602C105.165 114.273 104.532 114.108 103.822 114.108C103.113 114.108 102.473 114.273 101.903 114.602C101.346 114.919 100.903 115.375 100.573 115.97C100.257 116.565 100.098 117.243 100.098 118.003C100.098 118.763 100.257 119.441 100.573 120.036C100.903 120.631 101.346 121.094 101.903 121.423C102.473 121.74 103.113 121.898 103.822 121.898ZM116.742 112.93C117.996 112.93 118.99 113.297 119.725 114.032C120.472 114.754 120.846 115.812 120.846 117.205V123H119.497V117.338C119.497 116.299 119.237 115.508 118.718 114.963C118.198 114.418 117.457 114.146 116.495 114.146C115.418 114.146 114.563 114.469 113.93 115.115C113.309 115.748 112.999 116.629 112.999 117.756V123H111.65V113.006H112.942V114.849C113.309 114.241 113.816 113.772 114.462 113.443C115.12 113.101 115.88 112.93 116.742 112.93ZM129.771 122.392C129.518 122.62 129.201 122.797 128.821 122.924C128.454 123.038 128.067 123.095 127.662 123.095C126.725 123.095 126.003 122.842 125.496 122.335C124.989 121.828 124.736 121.113 124.736 120.188V114.146H122.95V113.006H124.736V110.821H126.085V113.006H129.125V114.146H126.085V120.112C126.085 120.707 126.231 121.163 126.522 121.48C126.826 121.784 127.257 121.936 127.814 121.936C128.093 121.936 128.359 121.892 128.612 121.803C128.878 121.714 129.106 121.588 129.296 121.423L129.771 122.392ZM137.199 108.902H138.548V123H137.199V108.902ZM151.004 118.421H142.644C142.72 119.46 143.119 120.302 143.841 120.948C144.563 121.581 145.475 121.898 146.577 121.898C147.198 121.898 147.768 121.79 148.287 121.575C148.806 121.347 149.256 121.018 149.636 120.587L150.396 121.461C149.953 121.993 149.395 122.398 148.724 122.677C148.065 122.956 147.337 123.095 146.539 123.095C145.513 123.095 144.601 122.88 143.803 122.449C143.018 122.006 142.403 121.398 141.96 120.625C141.517 119.852 141.295 118.978 141.295 118.003C141.295 117.028 141.504 116.154 141.922 115.381C142.353 114.608 142.935 114.007 143.67 113.576C144.417 113.145 145.253 112.93 146.178 112.93C147.103 112.93 147.932 113.145 148.667 113.576C149.402 114.007 149.978 114.608 150.396 115.381C150.814 116.141 151.023 117.015 151.023 118.003L151.004 118.421ZM146.178 114.089C145.215 114.089 144.405 114.399 143.746 115.02C143.1 115.628 142.733 116.426 142.644 117.414H149.731C149.642 116.426 149.269 115.628 148.61 115.02C147.964 114.399 147.153 114.089 146.178 114.089ZM156.448 123.095C155.637 123.095 154.858 122.981 154.111 122.753C153.376 122.512 152.8 122.215 152.382 121.86L152.99 120.796C153.408 121.125 153.933 121.398 154.567 121.613C155.2 121.816 155.859 121.917 156.543 121.917C157.455 121.917 158.126 121.778 158.557 121.499C159 121.208 159.222 120.802 159.222 120.283C159.222 119.916 159.101 119.631 158.861 119.428C158.62 119.213 158.316 119.054 157.949 118.953C157.581 118.839 157.094 118.731 156.486 118.63C155.675 118.478 155.023 118.326 154.529 118.174C154.035 118.009 153.61 117.737 153.256 117.357C152.914 116.977 152.743 116.451 152.743 115.78C152.743 114.944 153.091 114.26 153.788 113.728C154.484 113.196 155.453 112.93 156.695 112.93C157.341 112.93 157.987 113.019 158.633 113.196C159.279 113.361 159.811 113.582 160.229 113.861L159.64 114.944C158.816 114.374 157.835 114.089 156.695 114.089C155.833 114.089 155.181 114.241 154.738 114.545C154.307 114.849 154.092 115.248 154.092 115.742C154.092 116.122 154.212 116.426 154.453 116.654C154.706 116.882 155.016 117.053 155.384 117.167C155.751 117.268 156.258 117.376 156.904 117.49C157.702 117.642 158.341 117.794 158.823 117.946C159.304 118.098 159.716 118.358 160.058 118.725C160.4 119.092 160.571 119.599 160.571 120.245C160.571 121.119 160.203 121.816 159.469 122.335C158.747 122.842 157.74 123.095 156.448 123.095ZM177.157 113.006V126.686H175.808V121.119C175.39 121.765 174.852 122.259 174.193 122.601C173.547 122.93 172.819 123.095 172.008 123.095C171.058 123.095 170.203 122.886 169.443 122.468C168.696 122.037 168.107 121.436 167.676 120.663C167.246 119.89 167.03 119.004 167.03 118.003C167.03 117.015 167.246 116.135 167.676 115.362C168.107 114.589 168.702 113.994 169.462 113.576C170.222 113.145 171.071 112.93 172.008 112.93C172.844 112.93 173.592 113.107 174.25 113.462C174.922 113.817 175.46 114.323 175.865 114.982V113.006H177.157ZM172.122 121.898C172.819 121.898 173.446 121.74 174.003 121.423C174.573 121.094 175.017 120.631 175.333 120.036C175.663 119.441 175.827 118.763 175.827 118.003C175.827 117.243 175.663 116.572 175.333 115.989C175.017 115.394 174.573 114.931 174.003 114.602C173.446 114.273 172.819 114.108 172.122 114.108C171.413 114.108 170.773 114.273 170.203 114.602C169.646 114.931 169.203 115.394 168.873 115.989C168.557 116.572 168.398 117.243 168.398 118.003C168.398 118.763 168.557 119.441 168.873 120.036C169.203 120.631 169.646 121.094 170.203 121.423C170.773 121.74 171.413 121.898 172.122 121.898ZM189.92 113.006V123H188.628V121.176C188.274 121.784 187.786 122.259 187.165 122.601C186.545 122.93 185.835 123.095 185.037 123.095C183.733 123.095 182.7 122.734 181.94 122.012C181.193 121.277 180.819 120.207 180.819 118.801V113.006H182.168V118.668C182.168 119.719 182.428 120.517 182.947 121.062C183.467 121.607 184.208 121.879 185.17 121.879C186.222 121.879 187.051 121.562 187.659 120.929C188.267 120.283 188.571 119.39 188.571 118.25V113.006H189.92ZM197.194 112.93C198.499 112.93 199.5 113.259 200.196 113.918C200.893 114.564 201.241 115.527 201.241 116.806V123H199.949V121.442C199.645 121.961 199.196 122.367 198.6 122.658C198.018 122.949 197.321 123.095 196.51 123.095C195.396 123.095 194.509 122.829 193.85 122.297C193.192 121.765 192.862 121.062 192.862 120.188C192.862 119.339 193.166 118.655 193.774 118.136C194.395 117.617 195.377 117.357 196.719 117.357H199.892V116.749C199.892 115.888 199.652 115.235 199.17 114.792C198.689 114.336 197.986 114.108 197.061 114.108C196.428 114.108 195.82 114.216 195.237 114.431C194.655 114.634 194.154 114.919 193.736 115.286L193.128 114.279C193.635 113.848 194.243 113.519 194.952 113.291C195.662 113.05 196.409 112.93 197.194 112.93ZM196.719 122.031C197.479 122.031 198.132 121.86 198.676 121.518C199.221 121.163 199.626 120.657 199.892 119.998V118.364H196.757C195.047 118.364 194.192 118.959 194.192 120.15C194.192 120.733 194.414 121.195 194.857 121.537C195.301 121.866 195.921 122.031 196.719 122.031ZM206.197 114.963C206.514 114.292 206.983 113.785 207.603 113.443C208.237 113.101 209.016 112.93 209.94 112.93V114.241L209.617 114.222C208.566 114.222 207.743 114.545 207.147 115.191C206.552 115.837 206.254 116.743 206.254 117.908V123H204.905V113.006H206.197V114.963ZM218.073 122.392C217.819 122.62 217.503 122.797 217.123 122.924C216.755 123.038 216.369 123.095 215.964 123.095C215.026 123.095 214.304 122.842 213.798 122.335C213.291 121.828 213.038 121.113 213.038 120.188V114.146H211.252V113.006H213.038V110.821H214.387V113.006H217.427V114.146H214.387V120.112C214.387 120.707 214.532 121.163 214.824 121.48C215.128 121.784 215.558 121.936 216.116 121.936C216.394 121.936 216.66 121.892 216.914 121.803C217.18 121.714 217.408 121.588 217.598 121.423L218.073 122.392ZM220.528 113.006H221.877V123H220.528V113.006ZM221.212 110.821C220.934 110.821 220.699 110.726 220.509 110.536C220.319 110.346 220.224 110.118 220.224 109.852C220.224 109.599 220.319 109.377 220.509 109.187C220.699 108.997 220.934 108.902 221.212 108.902C221.491 108.902 221.725 108.997 221.915 109.187C222.105 109.364 222.2 109.58 222.2 109.833C222.2 110.112 222.105 110.346 221.915 110.536C221.725 110.726 221.491 110.821 221.212 110.821ZM234.333 118.421H225.973C226.049 119.46 226.448 120.302 227.17 120.948C227.892 121.581 228.804 121.898 229.906 121.898C230.527 121.898 231.097 121.79 231.616 121.575C232.135 121.347 232.585 121.018 232.965 120.587L233.725 121.461C233.282 121.993 232.724 122.398 232.053 122.677C231.394 122.956 230.666 123.095 229.868 123.095C228.842 123.095 227.93 122.88 227.132 122.449C226.347 122.006 225.732 121.398 225.289 120.625C224.846 119.852 224.624 118.978 224.624 118.003C224.624 117.028 224.833 116.154 225.251 115.381C225.682 114.608 226.264 114.007 226.999 113.576C227.746 113.145 228.582 112.93 229.507 112.93C230.432 112.93 231.261 113.145 231.996 113.576C232.731 114.007 233.307 114.608 233.725 115.381C234.143 116.141 234.352 117.015 234.352 118.003L234.333 118.421ZM229.507 114.089C228.544 114.089 227.734 114.399 227.075 115.02C226.429 115.628 226.062 116.426 225.973 117.414H233.06C232.971 116.426 232.598 115.628 231.939 115.02C231.293 114.399 230.482 114.089 229.507 114.089ZM238.39 114.963C238.706 114.292 239.175 113.785 239.796 113.443C240.429 113.101 241.208 112.93 242.133 112.93V114.241L241.81 114.222C240.758 114.222 239.935 114.545 239.34 115.191C238.744 115.837 238.447 116.743 238.447 117.908V123H237.098V113.006H238.39V114.963ZM247.329 123.095C246.518 123.095 245.739 122.981 244.992 122.753C244.257 122.512 243.681 122.215 243.263 121.86L243.871 120.796C244.289 121.125 244.814 121.398 245.448 121.613C246.081 121.816 246.74 121.917 247.424 121.917C248.336 121.917 249.007 121.778 249.438 121.499C249.881 121.208 250.103 120.802 250.103 120.283C250.103 119.916 249.982 119.631 249.742 119.428C249.501 119.213 249.197 119.054 248.83 118.953C248.462 118.839 247.975 118.731 247.367 118.63C246.556 118.478 245.904 118.326 245.41 118.174C244.916 118.009 244.491 117.737 244.137 117.357C243.795 116.977 243.624 116.451 243.624 115.78C243.624 114.944 243.972 114.26 244.669 113.728C245.365 113.196 246.334 112.93 247.576 112.93C248.222 112.93 248.868 113.019 249.514 113.196C250.16 113.361 250.692 113.582 251.11 113.861L250.521 114.944C249.697 114.374 248.716 114.089 247.576 114.089C246.714 114.089 246.062 114.241 245.619 114.545C245.188 114.849 244.973 115.248 244.973 115.742C244.973 116.122 245.093 116.426 245.334 116.654C245.587 116.882 245.897 117.053 246.265 117.167C246.632 117.268 247.139 117.376 247.785 117.49C248.583 117.642 249.222 117.794 249.704 117.946C250.185 118.098 250.597 118.358 250.939 118.725C251.281 119.092 251.452 119.599 251.452 120.245C251.452 121.119 251.084 121.816 250.35 122.335C249.628 122.842 248.621 123.095 247.329 123.095ZM40.001 136.006V149.686H38.652V144.119C38.234 144.765 37.6957 145.259 37.037 145.601C36.391 145.93 35.6627 146.095 34.852 146.095C33.902 146.095 33.047 145.886 32.287 145.468C31.5397 145.037 30.9507 144.436 30.52 143.663C30.0893 142.89 29.874 142.004 29.874 141.003C29.874 140.015 30.0893 139.135 30.52 138.362C30.9507 137.589 31.546 136.994 32.306 136.576C33.066 136.145 33.9147 135.93 34.852 135.93C35.688 135.93 36.4353 136.107 37.094 136.462C37.7653 136.817 38.3037 137.323 38.709 137.982V136.006H40.001ZM34.966 144.898C35.6627 144.898 36.2897 144.74 36.847 144.423C37.417 144.094 37.8603 143.631 38.177 143.036C38.5063 142.441 38.671 141.763 38.671 141.003C38.671 140.243 38.5063 139.572 38.177 138.989C37.8603 138.394 37.417 137.931 36.847 137.602C36.2897 137.273 35.6627 137.108 34.966 137.108C34.2567 137.108 33.617 137.273 33.047 137.602C32.4897 137.931 32.0463 138.394 31.717 138.989C31.4003 139.572 31.242 140.243 31.242 141.003C31.242 141.763 31.4003 142.441 31.717 143.036C32.0463 143.631 32.4897 144.094 33.047 144.423C33.617 144.74 34.2567 144.898 34.966 144.898ZM52.764 136.006V146H51.472V144.176C51.1173 144.784 50.6296 145.259 50.009 145.601C49.3883 145.93 48.679 146.095 47.881 146.095C46.5763 146.095 45.544 145.734 44.784 145.012C44.0366 144.277 43.663 143.207 43.663 141.801V136.006H45.012V141.668C45.012 142.719 45.2716 143.517 45.791 144.062C46.3103 144.607 47.0513 144.879 48.014 144.879C49.0653 144.879 49.895 144.562 50.503 143.929C51.111 143.283 51.415 142.39 51.415 141.25V136.006H52.764ZM56.5421 136.006H57.8911V146H56.5421V136.006ZM57.2261 133.821C56.9475 133.821 56.7131 133.726 56.5231 133.536C56.3331 133.346 56.2381 133.118 56.2381 132.852C56.2381 132.599 56.3331 132.377 56.5231 132.187C56.7131 131.997 56.9475 131.902 57.2261 131.902C57.5048 131.902 57.7391 131.997 57.9291 132.187C58.1191 132.364 58.2141 132.58 58.2141 132.833C58.2141 133.112 58.1191 133.346 57.9291 133.536C57.7391 133.726 57.5048 133.821 57.2261 133.821ZM75.0153 136.006L70.5693 146H69.1823L64.7553 136.006H66.1613L69.9043 144.518L73.6853 136.006H75.0153ZM80.7219 146.095C79.7592 146.095 78.8915 145.88 78.1189 145.449C77.3462 145.006 76.7382 144.398 76.2949 143.625C75.8515 142.852 75.6299 141.978 75.6299 141.003C75.6299 140.028 75.8515 139.154 76.2949 138.381C76.7382 137.608 77.3462 137.007 78.1189 136.576C78.8915 136.145 79.7592 135.93 80.7219 135.93C81.6845 135.93 82.5522 136.145 83.3249 136.576C84.0975 137.007 84.6992 137.608 85.1299 138.381C85.5732 139.154 85.7949 140.028 85.7949 141.003C85.7949 141.978 85.5732 142.852 85.1299 143.625C84.6992 144.398 84.0975 145.006 83.3249 145.449C82.5522 145.88 81.6845 146.095 80.7219 146.095ZM80.7219 144.898C81.4312 144.898 82.0645 144.74 82.6219 144.423C83.1919 144.094 83.6352 143.631 83.9519 143.036C84.2685 142.441 84.4269 141.763 84.4269 141.003C84.4269 140.243 84.2685 139.565 83.9519 138.97C83.6352 138.375 83.1919 137.919 82.6219 137.602C82.0645 137.273 81.4312 137.108 80.7219 137.108C80.0125 137.108 79.3729 137.273 78.8029 137.602C78.2455 137.919 77.8022 138.375 77.4729 138.97C77.1562 139.565 76.9979 140.243 76.9979 141.003C76.9979 141.763 77.1562 142.441 77.4729 143.036C77.8022 143.631 78.2455 144.094 78.8029 144.423C79.3729 144.74 80.0125 144.898 80.7219 144.898ZM97.555 136.006V146H96.263V144.176C95.9083 144.784 95.4206 145.259 94.8 145.601C94.1793 145.93 93.47 146.095 92.672 146.095C91.3673 146.095 90.335 145.734 89.575 145.012C88.8276 144.277 88.454 143.207 88.454 141.801V136.006H89.803V141.668C89.803 142.719 90.0626 143.517 90.582 144.062C91.1013 144.607 91.8423 144.879 92.805 144.879C93.8563 144.879 94.686 144.562 95.294 143.929C95.902 143.283 96.206 142.39 96.206 141.25V136.006H97.555ZM104.012 146.095C103.201 146.095 102.422 145.981 101.675 145.753C100.94 145.512 100.364 145.215 99.9461 144.86L100.554 143.796C100.972 144.125 101.498 144.398 102.131 144.613C102.764 144.816 103.423 144.917 104.107 144.917C105.019 144.917 105.69 144.778 106.121 144.499C106.564 144.208 106.786 143.802 106.786 143.283C106.786 142.916 106.666 142.631 106.425 142.428C106.184 142.213 105.88 142.054 105.513 141.953C105.146 141.839 104.658 141.731 104.05 141.63C103.239 141.478 102.587 141.326 102.093 141.174C101.599 141.009 101.175 140.737 100.82 140.357C100.478 139.977 100.307 139.451 100.307 138.78C100.307 137.944 100.655 137.26 101.352 136.728C102.049 136.196 103.018 135.93 104.259 135.93C104.905 135.93 105.551 136.019 106.197 136.196C106.843 136.361 107.375 136.582 107.793 136.861L107.204 137.944C106.381 137.374 105.399 137.089 104.259 137.089C103.398 137.089 102.745 137.241 102.302 137.545C101.871 137.849 101.656 138.248 101.656 138.742C101.656 139.122 101.776 139.426 102.017 139.654C102.27 139.882 102.581 140.053 102.948 140.167C103.315 140.268 103.822 140.376 104.468 140.49C105.266 140.642 105.906 140.794 106.387 140.946C106.868 141.098 107.28 141.358 107.622 141.725C107.964 142.092 108.135 142.599 108.135 143.245C108.135 144.119 107.768 144.816 107.033 145.335C106.311 145.842 105.304 146.095 104.012 146.095ZM115.602 136.006H116.951V146H115.602V136.006ZM116.286 133.821C116.007 133.821 115.773 133.726 115.583 133.536C115.393 133.346 115.298 133.118 115.298 132.852C115.298 132.599 115.393 132.377 115.583 132.187C115.773 131.997 116.007 131.902 116.286 131.902C116.564 131.902 116.799 131.997 116.989 132.187C117.179 132.364 117.274 132.58 117.274 132.833C117.274 133.112 117.179 133.346 116.989 133.536C116.799 133.726 116.564 133.821 116.286 133.821ZM125.796 135.93C127.05 135.93 128.045 136.297 128.779 137.032C129.527 137.754 129.9 138.812 129.9 140.205V146H128.551V140.338C128.551 139.299 128.292 138.508 127.772 137.963C127.253 137.418 126.512 137.146 125.549 137.146C124.473 137.146 123.618 137.469 122.984 138.115C122.364 138.748 122.053 139.629 122.053 140.756V146H120.704V136.006H121.996V137.849C122.364 137.241 122.87 136.772 123.516 136.443C124.175 136.101 124.935 135.93 125.796 135.93ZM138.826 145.392C138.572 145.62 138.256 145.797 137.876 145.924C137.508 146.038 137.122 146.095 136.717 146.095C135.779 146.095 135.057 145.842 134.551 145.335C134.044 144.828 133.791 144.113 133.791 143.188V137.146H132.005V136.006H133.791V133.821H135.14V136.006H138.18V137.146H135.14V143.112C135.14 143.707 135.285 144.163 135.577 144.48C135.881 144.784 136.311 144.936 136.869 144.936C137.147 144.936 137.413 144.892 137.667 144.803C137.933 144.714 138.161 144.588 138.351 144.423L138.826 145.392ZM149.631 141.421H141.271C141.347 142.46 141.746 143.302 142.468 143.948C143.19 144.581 144.102 144.898 145.204 144.898C145.825 144.898 146.395 144.79 146.914 144.575C147.433 144.347 147.883 144.018 148.263 143.587L149.023 144.461C148.58 144.993 148.022 145.398 147.351 145.677C146.692 145.956 145.964 146.095 145.166 146.095C144.14 146.095 143.228 145.88 142.43 145.449C141.645 145.006 141.03 144.398 140.587 143.625C140.144 142.852 139.922 141.978 139.922 141.003C139.922 140.028 140.131 139.154 140.549 138.381C140.98 137.608 141.562 137.007 142.297 136.576C143.044 136.145 143.88 135.93 144.805 135.93C145.73 135.93 146.559 136.145 147.294 136.576C148.029 137.007 148.605 137.608 149.023 138.381C149.441 139.141 149.65 140.015 149.65 141.003L149.631 141.421ZM144.805 137.089C143.842 137.089 143.032 137.399 142.373 138.02C141.727 138.628 141.36 139.426 141.271 140.414H148.358C148.269 139.426 147.896 138.628 147.237 138.02C146.591 137.399 145.78 137.089 144.805 137.089ZM146.173 132.092H147.978L144.9 134.448H143.57L146.173 132.092ZM153.688 137.963C154.004 137.292 154.473 136.785 155.094 136.443C155.727 136.101 156.506 135.93 157.431 135.93V137.241L157.108 137.222C156.056 137.222 155.233 137.545 154.638 138.191C154.042 138.837 153.745 139.743 153.745 140.908V146H152.396V136.006H153.688V137.963ZM168.482 141.421H160.122C160.198 142.46 160.597 143.302 161.319 143.948C162.041 144.581 162.953 144.898 164.055 144.898C164.676 144.898 165.246 144.79 165.765 144.575C166.285 144.347 166.734 144.018 167.114 143.587L167.874 144.461C167.431 144.993 166.874 145.398 166.202 145.677C165.544 145.956 164.815 146.095 164.017 146.095C162.991 146.095 162.079 145.88 161.281 145.449C160.496 145.006 159.882 144.398 159.438 143.625C158.995 142.852 158.773 141.978 158.773 141.003C158.773 140.028 158.982 139.154 159.4 138.381C159.831 137.608 160.414 137.007 161.148 136.576C161.896 136.145 162.732 135.93 163.656 135.93C164.581 135.93 165.411 136.145 166.145 136.576C166.88 137.007 167.456 137.608 167.874 138.381C168.292 139.141 168.501 140.015 168.501 141.003L168.482 141.421ZM163.656 137.089C162.694 137.089 161.883 137.399 161.224 138.02C160.578 138.628 160.211 139.426 160.122 140.414H167.209C167.121 139.426 166.747 138.628 166.088 138.02C165.442 137.399 164.632 137.089 163.656 137.089ZM173.926 146.095C173.116 146.095 172.337 145.981 171.589 145.753C170.855 145.512 170.278 145.215 169.86 144.86L170.468 143.796C170.886 144.125 171.412 144.398 172.045 144.613C172.679 144.816 173.337 144.917 174.021 144.917C174.933 144.917 175.605 144.778 176.035 144.499C176.479 144.208 176.7 143.802 176.7 143.283C176.7 142.916 176.58 142.631 176.339 142.428C176.099 142.213 175.795 142.054 175.427 141.953C175.06 141.839 174.572 141.731 173.964 141.63C173.154 141.478 172.501 141.326 172.007 141.174C171.513 141.009 171.089 140.737 170.734 140.357C170.392 139.977 170.221 139.451 170.221 138.78C170.221 137.944 170.57 137.26 171.266 136.728C171.963 136.196 172.932 135.93 174.173 135.93C174.819 135.93 175.465 136.019 176.111 136.196C176.757 136.361 177.289 136.582 177.707 136.861L177.118 137.944C176.295 137.374 175.313 137.089 174.173 137.089C173.312 137.089 172.66 137.241 172.216 137.545C171.786 137.849 171.57 138.248 171.57 138.742C171.57 139.122 171.691 139.426 171.931 139.654C172.185 139.882 172.495 140.053 172.862 140.167C173.23 140.268 173.736 140.376 174.382 140.49C175.18 140.642 175.82 140.794 176.301 140.946C176.783 141.098 177.194 141.358 177.536 141.725C177.878 142.092 178.049 142.599 178.049 143.245C178.049 144.119 177.682 144.816 176.947 145.335C176.225 145.842 175.218 146.095 173.926 146.095ZM183.222 146.095C182.411 146.095 181.632 145.981 180.885 145.753C180.15 145.512 179.574 145.215 179.156 144.86L179.764 143.796C180.182 144.125 180.708 144.398 181.341 144.613C181.974 144.816 182.633 144.917 183.317 144.917C184.229 144.917 184.9 144.778 185.331 144.499C185.774 144.208 185.996 143.802 185.996 143.283C185.996 142.916 185.876 142.631 185.635 142.428C185.394 142.213 185.09 142.054 184.723 141.953C184.356 141.839 183.868 141.731 183.26 141.63C182.449 141.478 181.797 141.326 181.303 141.174C180.809 141.009 180.385 140.737 180.03 140.357C179.688 139.977 179.517 139.451 179.517 138.78C179.517 137.944 179.865 137.26 180.562 136.728C181.259 136.196 182.228 135.93 183.469 135.93C184.115 135.93 184.761 136.019 185.407 136.196C186.053 136.361 186.585 136.582 187.003 136.861L186.414 137.944C185.591 137.374 184.609 137.089 183.469 137.089C182.608 137.089 181.955 137.241 181.512 137.545C181.081 137.849 180.866 138.248 180.866 138.742C180.866 139.122 180.986 139.426 181.227 139.654C181.48 139.882 181.791 140.053 182.158 140.167C182.525 140.268 183.032 140.376 183.678 140.49C184.476 140.642 185.116 140.794 185.597 140.946C186.078 141.098 186.49 141.358 186.832 141.725C187.174 142.092 187.345 142.599 187.345 143.245C187.345 144.119 186.978 144.816 186.243 145.335C185.521 145.842 184.514 146.095 183.222 146.095ZM198.541 141.421H190.181C190.257 142.46 190.656 143.302 191.378 143.948C192.1 144.581 193.012 144.898 194.114 144.898C194.735 144.898 195.305 144.79 195.824 144.575C196.343 144.347 196.793 144.018 197.173 143.587L197.933 144.461C197.49 144.993 196.932 145.398 196.261 145.677C195.602 145.956 194.874 146.095 194.076 146.095C193.05 146.095 192.138 145.88 191.34 145.449C190.555 145.006 189.94 144.398 189.497 143.625C189.054 142.852 188.832 141.978 188.832 141.003C188.832 140.028 189.041 139.154 189.459 138.381C189.89 137.608 190.472 137.007 191.207 136.576C191.954 136.145 192.79 135.93 193.715 135.93C194.64 135.93 195.469 136.145 196.204 136.576C196.939 137.007 197.515 137.608 197.933 138.381C198.351 139.141 198.56 140.015 198.56 141.003L198.541 141.421ZM193.715 137.089C192.752 137.089 191.942 137.399 191.283 138.02C190.637 138.628 190.27 139.426 190.181 140.414H197.268C197.179 139.426 196.806 138.628 196.147 138.02C195.501 137.399 194.69 137.089 193.715 137.089ZM206.398 135.93C207.652 135.93 208.646 136.297 209.381 137.032C210.128 137.754 210.502 138.812 210.502 140.205V146H209.153V140.338C209.153 139.299 208.893 138.508 208.374 137.963C207.854 137.418 207.113 137.146 206.151 137.146C205.074 137.146 204.219 137.469 203.586 138.115C202.965 138.748 202.655 139.629 202.655 140.756V146H201.306V136.006H202.598V137.849C202.965 137.241 203.472 136.772 204.118 136.443C204.776 136.101 205.536 135.93 206.398 135.93ZM219.427 145.392C219.174 145.62 218.857 145.797 218.477 145.924C218.11 146.038 217.724 146.095 217.318 146.095C216.381 146.095 215.659 145.842 215.152 145.335C214.646 144.828 214.392 144.113 214.392 143.188V137.146H212.606V136.006H214.392V133.821H215.741V136.006H218.781V137.146H215.741V143.112C215.741 143.707 215.887 144.163 216.178 144.48C216.482 144.784 216.913 144.936 217.47 144.936C217.749 144.936 218.015 144.892 218.268 144.803C218.534 144.714 218.762 144.588 218.952 144.423L219.427 145.392ZM234.412 142.01C234.412 141.491 234.495 141.035 234.659 140.642C234.837 140.249 235.052 139.914 235.305 139.635C235.559 139.356 235.888 139.04 236.293 138.685C236.838 138.204 237.237 137.786 237.49 137.431C237.756 137.064 237.889 136.62 237.889 136.101C237.889 135.404 237.617 134.847 237.072 134.429C236.528 133.998 235.78 133.783 234.83 133.783C233.26 133.783 232.05 134.296 231.201 135.322L230.194 134.562C231.271 133.245 232.848 132.586 234.925 132.586C236.255 132.586 237.313 132.884 238.098 133.479C238.896 134.074 239.295 134.879 239.295 135.892C239.295 136.411 239.207 136.874 239.029 137.279C238.865 137.672 238.656 138.007 238.402 138.286C238.162 138.565 237.839 138.888 237.433 139.255C236.889 139.749 236.483 140.192 236.217 140.585C235.951 140.965 235.818 141.44 235.818 142.01H234.412ZM235.115 146.095C234.837 146.095 234.602 146 234.412 145.81C234.222 145.607 234.127 145.373 234.127 145.107C234.127 144.828 234.222 144.6 234.412 144.423C234.602 144.233 234.837 144.138 235.115 144.138C235.407 144.138 235.647 144.233 235.837 144.423C236.027 144.6 236.122 144.828 236.122 145.107C236.122 145.373 236.021 145.607 235.818 145.81C235.628 146 235.394 146.095 235.115 146.095Z" fill="white"/>
</svg>
