<svg width="278" height="230" viewBox="0 0 278 230" fill="none" xmlns="http://www.w3.org/2000/svg">
<path d="M251.229 186.667H104.465L50.9218 228.598C45.9818 232.644 39.289 227.311 40.8826 220.506L48.5315 186.851H28.7717C13.9518 186.851 2.15967 173.058 2.15967 155.771V31.0805C2.15967 13.9771 14.1112 0 28.7717 0H251.388C266.208 0 278 13.7931 278 31.0805V155.771C278 172.874 265.889 186.667 251.229 186.667Z" fill="#F1B705"/>
<path d="M251.229 0H191.63C187.806 86.9887 125.658 155.954 49.6466 155.954C32.9145 155.954 16.8199 152.644 2 146.575V155.771C2 172.874 13.9515 186.851 28.612 186.851H48.2125L40.5635 220.506C38.9699 227.311 45.5035 232.644 50.6028 228.598L104.145 186.667H250.91C265.73 186.667 277.522 172.874 277.522 155.587V30.8966C278 13.7931 265.889 0 251.229 0Z" fill="#EEAD07"/>
<path d="M2 31.0161V155.984C2 173.148 15.9058 187 32.9858 187H247.014C264.094 187 278 173.148 278 155.984V31.0161C278 13.8519 264.094 0 247.014 0H32.9858C15.9058 0.150564 2 14.0024 2 31.0161Z" fill="#F1B705"/>
<path d="M0 31.2208V157.627C0 174.989 14.0066 189 31.2103 189H158.183H178.786C188.859 189 191.377 189 204.471 189H223.801H246.79C263.993 189 278 174.989 278 157.627V148.185C260.644 154.429 241.918 157.779 222.278 157.779C193.504 157.779 166.404 150.469 142.806 137.524C141.436 136.762 140.218 136.153 139 135.392C91.8039 107.978 59.2234 57.8727 56.483 0H31.2103C14.0066 0 0 14.0113 0 31.2208Z" fill="#EEAD07"/>
<path d="M33.526 47.108C32.59 47.108 31.69 46.958 30.826 46.658C29.974 46.358 29.314 45.962 28.846 45.47L29.368 44.444C29.824 44.9 30.43 45.272 31.186 45.56C31.942 45.836 32.722 45.974 33.526 45.974C34.654 45.974 35.5 45.77 36.064 45.362C36.628 44.942 36.91 44.402 36.91 43.742C36.91 43.238 36.754 42.836 36.442 42.536C36.142 42.236 35.77 42.008 35.326 41.852C34.882 41.684 34.264 41.504 33.472 41.312C32.524 41.072 31.768 40.844 31.204 40.628C30.64 40.4 30.154 40.058 29.746 39.602C29.35 39.146 29.152 38.528 29.152 37.748C29.152 37.112 29.32 36.536 29.656 36.02C29.992 35.492 30.508 35.072 31.204 34.76C31.9 34.448 32.764 34.292 33.796 34.292C34.516 34.292 35.218 34.394 35.902 34.598C36.598 34.79 37.198 35.06 37.702 35.408L37.252 36.47C36.724 36.122 36.16 35.864 35.56 35.696C34.96 35.516 34.372 35.426 33.796 35.426C32.692 35.426 31.858 35.642 31.294 36.074C30.742 36.494 30.466 37.04 30.466 37.712C30.466 38.216 30.616 38.624 30.916 38.936C31.228 39.236 31.612 39.47 32.068 39.638C32.536 39.794 33.16 39.968 33.94 40.16C34.864 40.388 35.608 40.616 36.172 40.844C36.748 41.06 37.234 41.396 37.63 41.852C38.026 42.296 38.224 42.902 38.224 43.67C38.224 44.306 38.05 44.888 37.702 45.416C37.366 45.932 36.844 46.346 36.136 46.658C35.428 46.958 34.558 47.108 33.526 47.108ZM40.8562 37.532H42.1342V47H40.8562V37.532ZM41.5042 35.462C41.2402 35.462 41.0182 35.372 40.8382 35.192C40.6582 35.012 40.5682 34.796 40.5682 34.544C40.5682 34.304 40.6582 34.094 40.8382 33.914C41.0182 33.734 41.2402 33.644 41.5042 33.644C41.7682 33.644 41.9902 33.734 42.1702 33.914C42.3502 34.082 42.4402 34.286 42.4402 34.526C42.4402 34.79 42.3502 35.012 42.1702 35.192C41.9902 35.372 41.7682 35.462 41.5042 35.462ZM58.3571 37.532L54.1451 47H52.8311L48.6371 37.532H49.9691L53.5151 45.596L57.0971 37.532H58.3571ZM63.7633 47.09C62.8513 47.09 62.0293 46.886 61.2973 46.478C60.5653 46.058 59.9893 45.482 59.5693 44.75C59.1493 44.018 58.9393 43.19 58.9393 42.266C58.9393 41.342 59.1493 40.514 59.5693 39.782C59.9893 39.05 60.5653 38.48 61.2973 38.072C62.0293 37.664 62.8513 37.46 63.7633 37.46C64.6753 37.46 65.4973 37.664 66.2293 38.072C66.9613 38.48 67.5313 39.05 67.9393 39.782C68.3593 40.514 68.5693 41.342 68.5693 42.266C68.5693 43.19 68.3593 44.018 67.9393 44.75C67.5313 45.482 66.9613 46.058 66.2293 46.478C65.4973 46.886 64.6753 47.09 63.7633 47.09ZM63.7633 45.956C64.4353 45.956 65.0353 45.806 65.5633 45.506C66.1033 45.194 66.5233 44.756 66.8233 44.192C67.1233 43.628 67.2733 42.986 67.2733 42.266C67.2733 41.546 67.1233 40.904 66.8233 40.34C66.5233 39.776 66.1033 39.344 65.5633 39.044C65.0353 38.732 64.4353 38.576 63.7633 38.576C63.0913 38.576 62.4853 38.732 61.9453 39.044C61.4173 39.344 60.9973 39.776 60.6853 40.34C60.3853 40.904 60.2353 41.546 60.2353 42.266C60.2353 42.986 60.3853 43.628 60.6853 44.192C60.9973 44.756 61.4173 45.194 61.9453 45.506C62.4853 45.806 63.0913 45.956 63.7633 45.956ZM79.7105 37.532V47H78.4865V45.272C78.1505 45.848 77.6885 46.298 77.1005 46.622C76.5125 46.934 75.8405 47.09 75.0845 47.09C73.8485 47.09 72.8705 46.748 72.1505 46.064C71.4425 45.368 71.0885 44.354 71.0885 43.022V37.532H72.3665V42.896C72.3665 43.892 72.6125 44.648 73.1045 45.164C73.5965 45.68 74.2985 45.938 75.2105 45.938C76.2065 45.938 76.9925 45.638 77.5685 45.038C78.1445 44.426 78.4325 43.58 78.4325 42.5V37.532H79.7105ZM85.8278 47.09C85.0598 47.09 84.3218 46.982 83.6138 46.766C82.9178 46.538 82.3718 46.256 81.9758 45.92L82.5518 44.912C82.9478 45.224 83.4458 45.482 84.0458 45.686C84.6458 45.878 85.2698 45.974 85.9178 45.974C86.7818 45.974 87.4178 45.842 87.8258 45.578C88.2458 45.302 88.4558 44.918 88.4558 44.426C88.4558 44.078 88.3418 43.808 88.1138 43.616C87.8858 43.412 87.5978 43.262 87.2498 43.166C86.9018 43.058 86.4398 42.956 85.8638 42.86C85.0958 42.716 84.4778 42.572 84.0098 42.428C83.5418 42.272 83.1398 42.014 82.8038 41.654C82.4798 41.294 82.3178 40.796 82.3178 40.16C82.3178 39.368 82.6478 38.72 83.3078 38.216C83.9678 37.712 84.8858 37.46 86.0618 37.46C86.6738 37.46 87.2858 37.544 87.8978 37.712C88.5098 37.868 89.0138 38.078 89.4098 38.342L88.8518 39.368C88.0718 38.828 87.1418 38.558 86.0618 38.558C85.2458 38.558 84.6278 38.702 84.2078 38.99C83.7998 39.278 83.5958 39.656 83.5958 40.124C83.5958 40.484 83.7098 40.772 83.9378 40.988C84.1778 41.204 84.4718 41.366 84.8198 41.474C85.1678 41.57 85.6478 41.672 86.2598 41.78C87.0158 41.924 87.6218 42.068 88.0778 42.212C88.5338 42.356 88.9238 42.602 89.2478 42.95C89.5718 43.298 89.7338 43.778 89.7338 44.39C89.7338 45.218 89.3858 45.878 88.6898 46.37C88.0058 46.85 87.0518 47.09 85.8278 47.09ZM108.615 37.46C109.803 37.46 110.733 37.802 111.405 38.486C112.089 39.17 112.431 40.178 112.431 41.51V47H111.153V41.636C111.153 40.652 110.913 39.902 110.433 39.386C109.965 38.87 109.299 38.612 108.435 38.612C107.451 38.612 106.677 38.918 106.113 39.53C105.549 40.13 105.267 40.964 105.267 42.032V47H103.989V41.636C103.989 40.652 103.749 39.902 103.269 39.386C102.801 38.87 102.129 38.612 101.253 38.612C100.281 38.612 99.5074 38.918 98.9314 39.53C98.3674 40.13 98.0854 40.964 98.0854 42.032V47H96.8074V37.532H98.0314V39.26C98.3674 38.684 98.8354 38.24 99.4354 37.928C100.035 37.616 100.725 37.46 101.505 37.46C102.297 37.46 102.981 37.628 103.557 37.964C104.145 38.3 104.583 38.798 104.871 39.458C105.219 38.834 105.717 38.348 106.365 38C107.025 37.64 107.775 37.46 108.615 37.46ZM124.176 42.662H116.256C116.328 43.646 116.706 44.444 117.39 45.056C118.074 45.656 118.938 45.956 119.982 45.956C120.57 45.956 121.11 45.854 121.602 45.65C122.094 45.434 122.52 45.122 122.88 44.714L123.6 45.542C123.18 46.046 122.652 46.43 122.016 46.694C121.392 46.958 120.702 47.09 119.946 47.09C118.974 47.09 118.11 46.886 117.354 46.478C116.61 46.058 116.028 45.482 115.608 44.75C115.188 44.018 114.978 43.19 114.978 42.266C114.978 41.342 115.176 40.514 115.572 39.782C115.98 39.05 116.532 38.48 117.228 38.072C117.936 37.664 118.728 37.46 119.604 37.46C120.48 37.46 121.266 37.664 121.962 38.072C122.658 38.48 123.204 39.05 123.6 39.782C123.996 40.502 124.194 41.33 124.194 42.266L124.176 42.662ZM119.604 38.558C118.692 38.558 117.924 38.852 117.3 39.44C116.688 40.016 116.34 40.772 116.256 41.708H122.97C122.886 40.772 122.532 40.016 121.908 39.44C121.296 38.852 120.528 38.558 119.604 38.558ZM131.507 33.644H132.785V47H131.507V33.644ZM144.585 42.662H136.665C136.737 43.646 137.115 44.444 137.799 45.056C138.483 45.656 139.347 45.956 140.391 45.956C140.979 45.956 141.519 45.854 142.011 45.65C142.503 45.434 142.929 45.122 143.289 44.714L144.009 45.542C143.589 46.046 143.061 46.43 142.425 46.694C141.801 46.958 141.111 47.09 140.355 47.09C139.383 47.09 138.519 46.886 137.763 46.478C137.019 46.058 136.437 45.482 136.017 44.75C135.597 44.018 135.387 43.19 135.387 42.266C135.387 41.342 135.585 40.514 135.981 39.782C136.389 39.05 136.941 38.48 137.637 38.072C138.345 37.664 139.137 37.46 140.013 37.46C140.889 37.46 141.675 37.664 142.371 38.072C143.067 38.48 143.613 39.05 144.009 39.782C144.405 40.502 144.603 41.33 144.603 42.266L144.585 42.662ZM140.013 38.558C139.101 38.558 138.333 38.852 137.709 39.44C137.097 40.016 136.749 40.772 136.665 41.708H143.379C143.295 40.772 142.941 40.016 142.317 39.44C141.705 38.852 140.937 38.558 140.013 38.558ZM156.793 37.46C157.681 37.46 158.485 37.664 159.205 38.072C159.925 38.468 160.489 39.032 160.897 39.764C161.305 40.496 161.509 41.33 161.509 42.266C161.509 43.214 161.305 44.054 160.897 44.786C160.489 45.518 159.925 46.088 159.205 46.496C158.497 46.892 157.693 47.09 156.793 47.09C156.025 47.09 155.329 46.934 154.705 46.622C154.093 46.298 153.589 45.83 153.193 45.218V50.492H151.915V37.532H153.139V39.404C153.523 38.78 154.027 38.3 154.651 37.964C155.287 37.628 156.001 37.46 156.793 37.46ZM156.703 45.956C157.363 45.956 157.963 45.806 158.503 45.506C159.043 45.194 159.463 44.756 159.763 44.192C160.075 43.628 160.231 42.986 160.231 42.266C160.231 41.546 160.075 40.91 159.763 40.358C159.463 39.794 159.043 39.356 158.503 39.044C157.963 38.732 157.363 38.576 156.703 38.576C156.031 38.576 155.425 38.732 154.885 39.044C154.357 39.356 153.937 39.794 153.625 40.358C153.325 40.91 153.175 41.546 153.175 42.266C153.175 42.986 153.325 43.628 153.625 44.192C153.937 44.756 154.357 45.194 154.885 45.506C155.425 45.806 156.031 45.956 156.703 45.956ZM172.358 42.662H164.438C164.51 43.646 164.888 44.444 165.572 45.056C166.256 45.656 167.12 45.956 168.164 45.956C168.752 45.956 169.292 45.854 169.784 45.65C170.276 45.434 170.702 45.122 171.062 44.714L171.782 45.542C171.362 46.046 170.834 46.43 170.198 46.694C169.574 46.958 168.884 47.09 168.128 47.09C167.156 47.09 166.292 46.886 165.536 46.478C164.792 46.058 164.21 45.482 163.79 44.75C163.37 44.018 163.16 43.19 163.16 42.266C163.16 41.342 163.358 40.514 163.754 39.782C164.162 39.05 164.714 38.48 165.41 38.072C166.118 37.664 166.91 37.46 167.786 37.46C168.662 37.46 169.448 37.664 170.144 38.072C170.84 38.48 171.386 39.05 171.782 39.782C172.178 40.502 172.376 41.33 172.376 42.266L172.358 42.662ZM167.786 38.558C166.874 38.558 166.106 38.852 165.482 39.44C164.87 40.016 164.522 40.772 164.438 41.708H171.152C171.068 40.772 170.714 40.016 170.09 39.44C169.478 38.852 168.71 38.558 167.786 38.558ZM176.201 39.386C176.501 38.75 176.945 38.27 177.533 37.946C178.133 37.622 178.871 37.46 179.747 37.46V38.702L179.441 38.684C178.445 38.684 177.665 38.99 177.101 39.602C176.537 40.214 176.255 41.072 176.255 42.176V47H174.977V37.532H176.201V39.386ZM193.869 37.46C195.057 37.46 195.987 37.802 196.659 38.486C197.343 39.17 197.685 40.178 197.685 41.51V47H196.407V41.636C196.407 40.652 196.167 39.902 195.687 39.386C195.219 38.87 194.553 38.612 193.689 38.612C192.705 38.612 191.931 38.918 191.367 39.53C190.803 40.13 190.521 40.964 190.521 42.032V47H189.243V41.636C189.243 40.652 189.003 39.902 188.523 39.386C188.055 38.87 187.383 38.612 186.507 38.612C185.535 38.612 184.761 38.918 184.185 39.53C183.621 40.13 183.339 40.964 183.339 42.032V47H182.061V37.532H183.285V39.26C183.621 38.684 184.089 38.24 184.689 37.928C185.289 37.616 185.979 37.46 186.759 37.46C187.551 37.46 188.235 37.628 188.811 37.964C189.399 38.3 189.837 38.798 190.125 39.458C190.473 38.834 190.971 38.348 191.619 38C192.279 37.64 193.029 37.46 193.869 37.46ZM209.43 42.662H201.51C201.582 43.646 201.96 44.444 202.644 45.056C203.328 45.656 204.192 45.956 205.236 45.956C205.824 45.956 206.364 45.854 206.856 45.65C207.348 45.434 207.774 45.122 208.134 44.714L208.854 45.542C208.434 46.046 207.906 46.43 207.27 46.694C206.646 46.958 205.956 47.09 205.2 47.09C204.228 47.09 203.364 46.886 202.608 46.478C201.864 46.058 201.282 45.482 200.862 44.75C200.442 44.018 200.232 43.19 200.232 42.266C200.232 41.342 200.43 40.514 200.826 39.782C201.234 39.05 201.786 38.48 202.482 38.072C203.19 37.664 203.982 37.46 204.858 37.46C205.734 37.46 206.52 37.664 207.216 38.072C207.912 38.48 208.458 39.05 208.854 39.782C209.25 40.502 209.448 41.33 209.448 42.266L209.43 42.662ZM204.858 38.558C203.946 38.558 203.178 38.852 202.554 39.44C201.942 40.016 201.594 40.772 201.51 41.708H208.224C208.14 40.772 207.786 40.016 207.162 39.44C206.55 38.852 205.782 38.558 204.858 38.558ZM217.036 46.424C216.796 46.64 216.496 46.808 216.136 46.928C215.788 47.036 215.422 47.09 215.038 47.09C214.15 47.09 213.466 46.85 212.986 46.37C212.506 45.89 212.266 45.212 212.266 44.336V38.612H210.574V37.532H212.266V35.462H213.544V37.532H216.424V38.612H213.544V44.264C213.544 44.828 213.682 45.26 213.958 45.56C214.246 45.848 214.654 45.992 215.182 45.992C215.446 45.992 215.698 45.95 215.938 45.866C216.19 45.782 216.406 45.662 216.586 45.506L217.036 46.424ZM224.102 46.424C223.862 46.64 223.562 46.808 223.202 46.928C222.854 47.036 222.488 47.09 222.104 47.09C221.216 47.09 220.532 46.85 220.052 46.37C219.572 45.89 219.332 45.212 219.332 44.336V38.612H217.64V37.532H219.332V35.462H220.61V37.532H223.49V38.612H220.61V44.264C220.61 44.828 220.748 45.26 221.024 45.56C221.312 45.848 221.72 45.992 222.248 45.992C222.512 45.992 222.764 45.95 223.004 45.866C223.256 45.782 223.472 45.662 223.652 45.506L224.102 46.424ZM234.339 42.662H226.419C226.491 43.646 226.869 44.444 227.553 45.056C228.237 45.656 229.101 45.956 230.145 45.956C230.733 45.956 231.273 45.854 231.765 45.65C232.257 45.434 232.683 45.122 233.043 44.714L233.763 45.542C233.343 46.046 232.815 46.43 232.179 46.694C231.555 46.958 230.865 47.09 230.109 47.09C229.137 47.09 228.273 46.886 227.517 46.478C226.773 46.058 226.191 45.482 225.771 44.75C225.351 44.018 225.141 43.19 225.141 42.266C225.141 41.342 225.339 40.514 225.735 39.782C226.143 39.05 226.695 38.48 227.391 38.072C228.099 37.664 228.891 37.46 229.767 37.46C230.643 37.46 231.429 37.664 232.125 38.072C232.821 38.48 233.367 39.05 233.763 39.782C234.159 40.502 234.357 41.33 234.357 42.266L234.339 42.662ZM229.767 38.558C228.855 38.558 228.087 38.852 227.463 39.44C226.851 40.016 226.503 40.772 226.419 41.708H233.133C233.049 40.772 232.695 40.016 232.071 39.44C231.459 38.852 230.691 38.558 229.767 38.558ZM243.548 45.938V47H235.844V46.154L241.802 38.612H235.952V37.532H243.44V38.378L237.482 45.938H243.548ZM246.242 45.128C246.518 45.128 246.746 45.224 246.926 45.416C247.106 45.596 247.196 45.824 247.196 46.1C247.196 46.244 247.172 46.4 247.124 46.568C247.088 46.736 247.028 46.928 246.944 47.144L246.188 49.628H245.324L245.936 47.018C245.744 46.958 245.588 46.85 245.468 46.694C245.348 46.526 245.288 46.328 245.288 46.1C245.288 45.824 245.378 45.596 245.558 45.416C245.738 45.224 245.966 45.128 246.242 45.128ZM28.378 72.582C27.982 72.582 27.61 72.528 27.262 72.42C26.902 72.324 26.608 72.174 26.38 71.97L26.83 70.998C27.202 71.322 27.694 71.484 28.306 71.484C28.81 71.484 29.194 71.334 29.458 71.034C29.734 70.734 29.872 70.29 29.872 69.702V59.532H31.15V69.702C31.15 70.59 30.91 71.292 30.43 71.808C29.95 72.324 29.266 72.582 28.378 72.582ZM30.52 57.444C30.256 57.444 30.034 57.354 29.854 57.174C29.674 56.994 29.584 56.778 29.584 56.526C29.584 56.286 29.674 56.076 29.854 55.896C30.034 55.716 30.256 55.626 30.52 55.626C30.784 55.626 31.006 55.716 31.186 55.896C31.366 56.064 31.456 56.268 31.456 56.508C31.456 56.772 31.366 56.994 31.186 57.174C31.006 57.354 30.784 57.444 30.52 57.444ZM42.9655 64.662H35.0455C35.1175 65.646 35.4955 66.444 36.1795 67.056C36.8635 67.656 37.7275 67.956 38.7715 67.956C39.3595 67.956 39.8995 67.854 40.3915 67.65C40.8835 67.434 41.3095 67.122 41.6695 66.714L42.3895 67.542C41.9695 68.046 41.4415 68.43 40.8055 68.694C40.1815 68.958 39.4915 69.09 38.7355 69.09C37.7635 69.09 36.8995 68.886 36.1435 68.478C35.3995 68.058 34.8175 67.482 34.3975 66.75C33.9775 66.018 33.7675 65.19 33.7675 64.266C33.7675 63.342 33.9655 62.514 34.3615 61.782C34.7695 61.05 35.3215 60.48 36.0175 60.072C36.7255 59.664 37.5175 59.46 38.3935 59.46C39.2695 59.46 40.0555 59.664 40.7515 60.072C41.4475 60.48 41.9935 61.05 42.3895 61.782C42.7855 62.502 42.9835 63.33 42.9835 64.266L42.9655 64.662ZM38.3935 60.558C37.4815 60.558 36.7135 60.852 36.0895 61.44C35.4775 62.016 35.1295 62.772 35.0455 63.708H41.7595C41.6755 62.772 41.3215 62.016 40.6975 61.44C40.0855 60.852 39.3175 60.558 38.3935 60.558ZM55.1737 59.46C56.0617 59.46 56.8657 59.664 57.5857 60.072C58.3057 60.468 58.8697 61.032 59.2777 61.764C59.6857 62.496 59.8897 63.33 59.8897 64.266C59.8897 65.214 59.6857 66.054 59.2777 66.786C58.8697 67.518 58.3057 68.088 57.5857 68.496C56.8777 68.892 56.0737 69.09 55.1737 69.09C54.4057 69.09 53.7097 68.934 53.0857 68.622C52.4737 68.298 51.9697 67.83 51.5737 67.218V72.492H50.2957V59.532H51.5197V61.404C51.9037 60.78 52.4077 60.3 53.0317 59.964C53.6677 59.628 54.3817 59.46 55.1737 59.46ZM55.0837 67.956C55.7437 67.956 56.3437 67.806 56.8837 67.506C57.4237 67.194 57.8437 66.756 58.1437 66.192C58.4557 65.628 58.6117 64.986 58.6117 64.266C58.6117 63.546 58.4557 62.91 58.1437 62.358C57.8437 61.794 57.4237 61.356 56.8837 61.044C56.3437 60.732 55.7437 60.576 55.0837 60.576C54.4117 60.576 53.8057 60.732 53.2657 61.044C52.7377 61.356 52.3177 61.794 52.0057 62.358C51.7057 62.91 51.5557 63.546 51.5557 64.266C51.5557 64.986 51.7057 65.628 52.0057 66.192C52.3177 66.756 52.7377 67.194 53.2657 67.506C53.8057 67.806 54.4117 67.956 55.0837 67.956ZM70.7389 64.662H62.8189C62.8909 65.646 63.2689 66.444 63.9529 67.056C64.6369 67.656 65.5009 67.956 66.5449 67.956C67.1329 67.956 67.6729 67.854 68.1649 67.65C68.6569 67.434 69.0829 67.122 69.4429 66.714L70.1629 67.542C69.7429 68.046 69.2149 68.43 68.5789 68.694C67.9549 68.958 67.2649 69.09 66.5089 69.09C65.5369 69.09 64.6729 68.886 63.9169 68.478C63.1729 68.058 62.5909 67.482 62.1709 66.75C61.7509 66.018 61.5409 65.19 61.5409 64.266C61.5409 63.342 61.7389 62.514 62.1349 61.782C62.5429 61.05 63.0949 60.48 63.7909 60.072C64.4989 59.664 65.2909 59.46 66.1669 59.46C67.0429 59.46 67.8289 59.664 68.5249 60.072C69.2209 60.48 69.7669 61.05 70.1629 61.782C70.5589 62.502 70.7569 63.33 70.7569 64.266L70.7389 64.662ZM66.1669 60.558C65.2549 60.558 64.4869 60.852 63.8629 61.44C63.2509 62.016 62.9029 62.772 62.8189 63.708H69.5329C69.4489 62.772 69.0949 62.016 68.4709 61.44C67.8589 60.852 67.0909 60.558 66.1669 60.558ZM81.8902 59.532V69H80.6662V67.272C80.3302 67.848 79.8682 68.298 79.2802 68.622C78.6922 68.934 78.0202 69.09 77.2642 69.09C76.0282 69.09 75.0502 68.748 74.3302 68.064C73.6222 67.368 73.2682 66.354 73.2682 65.022V59.532H74.5462V64.896C74.5462 65.892 74.7922 66.648 75.2842 67.164C75.7762 67.68 76.4782 67.938 77.3902 67.938C78.3862 67.938 79.1722 67.638 79.7482 67.038C80.3242 66.426 80.6122 65.58 80.6122 64.5V59.532H81.8902ZM91.4995 69L88.4935 65.04L85.4695 69H84.0295L87.7735 64.14L84.2095 59.532H85.6495L88.4935 63.24L91.3375 59.532H92.7415L89.1775 64.14L92.9575 69H91.4995ZM107.752 59.532L103.54 69H102.226L98.0317 59.532H99.3637L102.91 67.596L106.492 59.532H107.752ZM113.158 69.09C112.246 69.09 111.424 68.886 110.692 68.478C109.96 68.058 109.384 67.482 108.964 66.75C108.544 66.018 108.334 65.19 108.334 64.266C108.334 63.342 108.544 62.514 108.964 61.782C109.384 61.05 109.96 60.48 110.692 60.072C111.424 59.664 112.246 59.46 113.158 59.46C114.07 59.46 114.892 59.664 115.624 60.072C116.356 60.48 116.926 61.05 117.334 61.782C117.754 62.514 117.964 63.342 117.964 64.266C117.964 65.19 117.754 66.018 117.334 66.75C116.926 67.482 116.356 68.058 115.624 68.478C114.892 68.886 114.07 69.09 113.158 69.09ZM113.158 67.956C113.83 67.956 114.43 67.806 114.958 67.506C115.498 67.194 115.918 66.756 116.218 66.192C116.518 65.628 116.668 64.986 116.668 64.266C116.668 63.546 116.518 62.904 116.218 62.34C115.918 61.776 115.498 61.344 114.958 61.044C114.43 60.732 113.83 60.576 113.158 60.576C112.486 60.576 111.88 60.732 111.34 61.044C110.812 61.344 110.392 61.776 110.08 62.34C109.78 62.904 109.63 63.546 109.63 64.266C109.63 64.986 109.78 65.628 110.08 66.192C110.392 66.756 110.812 67.194 111.34 67.506C111.88 67.806 112.486 67.956 113.158 67.956ZM129.105 59.532V69H127.881V67.272C127.545 67.848 127.083 68.298 126.495 68.622C125.907 68.934 125.235 69.09 124.479 69.09C123.243 69.09 122.265 68.748 121.545 68.064C120.837 67.368 120.483 66.354 120.483 65.022V59.532H121.761V64.896C121.761 65.892 122.007 66.648 122.499 67.164C122.991 67.68 123.693 67.938 124.605 67.938C125.601 67.938 126.387 67.638 126.963 67.038C127.539 66.426 127.827 65.58 127.827 64.5V59.532H129.105ZM135.222 69.09C134.454 69.09 133.716 68.982 133.008 68.766C132.312 68.538 131.766 68.256 131.37 67.92L131.946 66.912C132.342 67.224 132.84 67.482 133.44 67.686C134.04 67.878 134.664 67.974 135.312 67.974C136.176 67.974 136.812 67.842 137.22 67.578C137.64 67.302 137.85 66.918 137.85 66.426C137.85 66.078 137.736 65.808 137.508 65.616C137.28 65.412 136.992 65.262 136.644 65.166C136.296 65.058 135.834 64.956 135.258 64.86C134.49 64.716 133.872 64.572 133.404 64.428C132.936 64.272 132.534 64.014 132.198 63.654C131.874 63.294 131.712 62.796 131.712 62.16C131.712 61.368 132.042 60.72 132.702 60.216C133.362 59.712 134.28 59.46 135.456 59.46C136.068 59.46 136.68 59.544 137.292 59.712C137.904 59.868 138.408 60.078 138.804 60.342L138.246 61.368C137.466 60.828 136.536 60.558 135.456 60.558C134.64 60.558 134.022 60.702 133.602 60.99C133.194 61.278 132.99 61.656 132.99 62.124C132.99 62.484 133.104 62.772 133.332 62.988C133.572 63.204 133.866 63.366 134.214 63.474C134.562 63.57 135.042 63.672 135.654 63.78C136.41 63.924 137.016 64.068 137.472 64.212C137.928 64.356 138.318 64.602 138.642 64.95C138.966 65.298 139.128 65.778 139.128 66.39C139.128 67.218 138.78 67.878 138.084 68.37C137.4 68.85 136.446 69.09 135.222 69.09ZM150.126 69.09C149.19 69.09 148.35 68.886 147.606 68.478C146.874 68.07 146.298 67.5 145.878 66.768C145.458 66.024 145.248 65.19 145.248 64.266C145.248 63.342 145.458 62.514 145.878 61.782C146.298 61.05 146.874 60.48 147.606 60.072C148.35 59.664 149.19 59.46 150.126 59.46C150.942 59.46 151.668 59.622 152.304 59.946C152.952 60.258 153.462 60.72 153.834 61.332L152.88 61.98C152.568 61.512 152.172 61.164 151.692 60.936C151.212 60.696 150.69 60.576 150.126 60.576C149.442 60.576 148.824 60.732 148.272 61.044C147.732 61.344 147.306 61.776 146.994 62.34C146.694 62.904 146.544 63.546 146.544 64.266C146.544 64.998 146.694 65.646 146.994 66.21C147.306 66.762 147.732 67.194 148.272 67.506C148.824 67.806 149.442 67.956 150.126 67.956C150.69 67.956 151.212 67.842 151.692 67.614C152.172 67.386 152.568 67.038 152.88 66.57L153.834 67.218C153.462 67.83 152.952 68.298 152.304 68.622C151.656 68.934 150.93 69.09 150.126 69.09ZM160.056 69.09C159.144 69.09 158.322 68.886 157.59 68.478C156.858 68.058 156.282 67.482 155.862 66.75C155.442 66.018 155.232 65.19 155.232 64.266C155.232 63.342 155.442 62.514 155.862 61.782C156.282 61.05 156.858 60.48 157.59 60.072C158.322 59.664 159.144 59.46 160.056 59.46C160.968 59.46 161.79 59.664 162.522 60.072C163.254 60.48 163.824 61.05 164.232 61.782C164.652 62.514 164.862 63.342 164.862 64.266C164.862 65.19 164.652 66.018 164.232 66.75C163.824 67.482 163.254 68.058 162.522 68.478C161.79 68.886 160.968 69.09 160.056 69.09ZM160.056 67.956C160.728 67.956 161.328 67.806 161.856 67.506C162.396 67.194 162.816 66.756 163.116 66.192C163.416 65.628 163.566 64.986 163.566 64.266C163.566 63.546 163.416 62.904 163.116 62.34C162.816 61.776 162.396 61.344 161.856 61.044C161.328 60.732 160.728 60.576 160.056 60.576C159.384 60.576 158.778 60.732 158.238 61.044C157.71 61.344 157.29 61.776 156.978 62.34C156.678 62.904 156.528 63.546 156.528 64.266C156.528 64.986 156.678 65.628 156.978 66.192C157.29 66.756 157.71 67.194 158.238 67.506C158.778 67.806 159.384 67.956 160.056 67.956ZM172.295 59.46C173.483 59.46 174.425 59.808 175.121 60.504C175.829 61.188 176.183 62.19 176.183 63.51V69H174.905V63.636C174.905 62.652 174.659 61.902 174.167 61.386C173.675 60.87 172.973 60.612 172.061 60.612C171.041 60.612 170.231 60.918 169.631 61.53C169.043 62.13 168.749 62.964 168.749 64.032V69H167.471V59.532H168.695V61.278C169.043 60.702 169.523 60.258 170.135 59.946C170.759 59.622 171.479 59.46 172.295 59.46ZM182.191 69.09C181.423 69.09 180.685 68.982 179.977 68.766C179.281 68.538 178.735 68.256 178.339 67.92L178.915 66.912C179.311 67.224 179.809 67.482 180.409 67.686C181.009 67.878 181.633 67.974 182.281 67.974C183.145 67.974 183.781 67.842 184.189 67.578C184.609 67.302 184.819 66.918 184.819 66.426C184.819 66.078 184.705 65.808 184.477 65.616C184.249 65.412 183.961 65.262 183.613 65.166C183.265 65.058 182.803 64.956 182.227 64.86C181.459 64.716 180.841 64.572 180.373 64.428C179.905 64.272 179.503 64.014 179.167 63.654C178.843 63.294 178.681 62.796 178.681 62.16C178.681 61.368 179.011 60.72 179.671 60.216C180.331 59.712 181.249 59.46 182.425 59.46C183.037 59.46 183.649 59.544 184.261 59.712C184.873 59.868 185.377 60.078 185.773 60.342L185.215 61.368C184.435 60.828 183.505 60.558 182.425 60.558C181.609 60.558 180.991 60.702 180.571 60.99C180.163 61.278 179.959 61.656 179.959 62.124C179.959 62.484 180.073 62.772 180.301 62.988C180.541 63.204 180.835 63.366 181.183 63.474C181.531 63.57 182.011 63.672 182.623 63.78C183.379 63.924 183.985 64.068 184.441 64.212C184.897 64.356 185.287 64.602 185.611 64.95C185.935 65.298 186.097 65.778 186.097 66.39C186.097 67.218 185.749 67.878 185.053 68.37C184.369 68.85 183.415 69.09 182.191 69.09ZM196.704 64.662H188.784C188.856 65.646 189.234 66.444 189.918 67.056C190.602 67.656 191.466 67.956 192.51 67.956C193.098 67.956 193.638 67.854 194.13 67.65C194.622 67.434 195.048 67.122 195.408 66.714L196.128 67.542C195.708 68.046 195.18 68.43 194.544 68.694C193.92 68.958 193.23 69.09 192.474 69.09C191.502 69.09 190.638 68.886 189.882 68.478C189.138 68.058 188.556 67.482 188.136 66.75C187.716 66.018 187.506 65.19 187.506 64.266C187.506 63.342 187.704 62.514 188.1 61.782C188.508 61.05 189.06 60.48 189.756 60.072C190.464 59.664 191.256 59.46 192.132 59.46C193.008 59.46 193.794 59.664 194.49 60.072C195.186 60.48 195.732 61.05 196.128 61.782C196.524 62.502 196.722 63.33 196.722 64.266L196.704 64.662ZM192.132 60.558C191.22 60.558 190.452 60.852 189.828 61.44C189.216 62.016 188.868 62.772 188.784 63.708H195.498C195.414 62.772 195.06 62.016 194.436 61.44C193.824 60.852 193.056 60.558 192.132 60.558ZM199.323 59.532H200.601V69H199.323V59.532ZM199.971 57.462C199.707 57.462 199.485 57.372 199.305 57.192C199.125 57.012 199.035 56.796 199.035 56.544C199.035 56.304 199.125 56.094 199.305 55.914C199.485 55.734 199.707 55.644 199.971 55.644C200.235 55.644 200.457 55.734 200.637 55.914C200.817 56.082 200.907 56.286 200.907 56.526C200.907 56.79 200.817 57.012 200.637 57.192C200.457 57.372 200.235 57.462 199.971 57.462ZM204.157 55.644H205.435V69H204.157V55.644ZM208.991 55.644H210.269V69H208.991V55.644ZM222.069 64.662H214.149C214.221 65.646 214.599 66.444 215.283 67.056C215.967 67.656 216.831 67.956 217.875 67.956C218.463 67.956 219.003 67.854 219.495 67.65C219.987 67.434 220.413 67.122 220.773 66.714L221.493 67.542C221.073 68.046 220.545 68.43 219.909 68.694C219.285 68.958 218.595 69.09 217.839 69.09C216.867 69.09 216.003 68.886 215.247 68.478C214.503 68.058 213.921 67.482 213.501 66.75C213.081 66.018 212.871 65.19 212.871 64.266C212.871 63.342 213.069 62.514 213.465 61.782C213.873 61.05 214.425 60.48 215.121 60.072C215.829 59.664 216.621 59.46 217.497 59.46C218.373 59.46 219.159 59.664 219.855 60.072C220.551 60.48 221.097 61.05 221.493 61.782C221.889 62.502 222.087 63.33 222.087 64.266L222.069 64.662ZM217.497 60.558C216.585 60.558 215.817 60.852 215.193 61.44C214.581 62.016 214.233 62.772 214.149 63.708H220.863C220.779 62.772 220.425 62.016 219.801 61.44C219.189 60.852 218.421 60.558 217.497 60.558ZM225.912 61.386C226.212 60.75 226.656 60.27 227.244 59.946C227.844 59.622 228.582 59.46 229.458 59.46V60.702L229.152 60.684C228.156 60.684 227.376 60.99 226.812 61.602C226.248 62.214 225.966 63.072 225.966 64.176V69H224.688V59.532H225.912V61.386ZM231.863 69.09C231.599 69.09 231.371 68.994 231.179 68.802C230.999 68.61 230.909 68.376 230.909 68.1C230.909 67.824 230.999 67.596 231.179 67.416C231.371 67.224 231.599 67.128 231.863 67.128C232.127 67.128 232.355 67.224 232.547 67.416C232.739 67.596 232.835 67.824 232.835 68.1C232.835 68.376 232.739 68.61 232.547 68.802C232.355 68.994 232.127 69.09 231.863 69.09ZM31.402 91.108C30.682 91.108 30.016 90.952 29.404 90.64C28.792 90.328 28.294 89.884 27.91 89.308L28.702 88.408C29.398 89.44 30.304 89.956 31.42 89.956C32.98 89.956 33.76 89.032 33.76 87.184V79.552H29.152V78.4H35.074V87.13C35.074 88.45 34.762 89.446 34.138 90.118C33.526 90.778 32.614 91.108 31.402 91.108ZM38.9436 77.554C39.2196 77.554 39.4476 77.65 39.6276 77.842C39.8076 78.022 39.8976 78.25 39.8976 78.526C39.8976 78.67 39.8736 78.826 39.8256 78.994C39.7896 79.15 39.7356 79.336 39.6636 79.552L38.8896 82.036H38.0256L38.6556 79.444C38.4516 79.384 38.2896 79.276 38.1696 79.12C38.0496 78.952 37.9896 78.754 37.9896 78.526C37.9896 78.238 38.0796 78.004 38.2596 77.824C38.4396 77.644 38.6676 77.554 38.9436 77.554ZM45.7503 81.46C46.9863 81.46 47.9343 81.772 48.5943 82.396C49.2543 83.008 49.5843 83.92 49.5843 85.132V91H48.3603V89.524C48.0723 90.016 47.6463 90.4 47.0823 90.676C46.5303 90.952 45.8703 91.09 45.1023 91.09C44.0463 91.09 43.2063 90.838 42.5823 90.334C41.9583 89.83 41.6463 89.164 41.6463 88.336C41.6463 87.532 41.9343 86.884 42.5103 86.392C43.0983 85.9 44.0283 85.654 45.3003 85.654H48.3063V85.078C48.3063 84.262 48.0783 83.644 47.6223 83.224C47.1663 82.792 46.5003 82.576 45.6243 82.576C45.0243 82.576 44.4483 82.678 43.8963 82.882C43.3443 83.074 42.8703 83.344 42.4743 83.692L41.8983 82.738C42.3783 82.33 42.9543 82.018 43.6263 81.802C44.2983 81.574 45.0063 81.46 45.7503 81.46ZM45.3003 90.082C46.0203 90.082 46.6383 89.92 47.1543 89.596C47.6703 89.26 48.0543 88.78 48.3063 88.156V86.608H45.3363C43.7163 86.608 42.9062 87.172 42.9062 88.3C42.9062 88.852 43.1163 89.29 43.5363 89.614C43.9563 89.926 44.5443 90.082 45.3003 90.082ZM53.0554 81.532H54.3334V91H53.0554V81.532ZM53.7034 79.462C53.4394 79.462 53.2174 79.372 53.0374 79.192C52.8574 79.012 52.7674 78.796 52.7674 78.544C52.7674 78.304 52.8574 78.094 53.0374 77.914C53.2174 77.734 53.4394 77.644 53.7034 77.644C53.9674 77.644 54.1894 77.734 54.3694 77.914C54.5494 78.082 54.6394 78.286 54.6394 78.526C54.6394 78.79 54.5494 79.012 54.3694 79.192C54.1894 79.372 53.9674 79.462 53.7034 79.462ZM70.5564 81.532L66.3444 91H65.0304L60.8364 81.532H62.1684L65.7144 89.596L69.2964 81.532H70.5564ZM80.3365 86.662H72.4165C72.4885 87.646 72.8665 88.444 73.5505 89.056C74.2345 89.656 75.0985 89.956 76.1425 89.956C76.7305 89.956 77.2705 89.854 77.7625 89.65C78.2545 89.434 78.6805 89.122 79.0405 88.714L79.7605 89.542C79.3405 90.046 78.8125 90.43 78.1765 90.694C77.5525 90.958 76.8625 91.09 76.1065 91.09C75.1345 91.09 74.2705 90.886 73.5145 90.478C72.7705 90.058 72.1885 89.482 71.7685 88.75C71.3485 88.018 71.1385 87.19 71.1385 86.266C71.1385 85.342 71.3365 84.514 71.7325 83.782C72.1405 83.05 72.6925 82.48 73.3885 82.072C74.0965 81.664 74.8885 81.46 75.7645 81.46C76.6405 81.46 77.4265 81.664 78.1225 82.072C78.8185 82.48 79.3645 83.05 79.7605 83.782C80.1565 84.502 80.3545 85.33 80.3545 86.266L80.3365 86.662ZM75.7645 82.558C74.8525 82.558 74.0845 82.852 73.4605 83.44C72.8485 84.016 72.5005 84.772 72.4165 85.708H79.1305C79.0465 84.772 78.6925 84.016 78.0685 83.44C77.4565 82.852 76.6885 82.558 75.7645 82.558ZM77.0605 77.824H78.7705L75.8545 80.056H74.5945L77.0605 77.824ZM86.8798 91.09C85.9438 91.09 85.1038 90.886 84.3598 90.478C83.6278 90.07 83.0518 89.5 82.6318 88.768C82.2118 88.024 82.0018 87.19 82.0018 86.266C82.0018 85.342 82.2118 84.514 82.6318 83.782C83.0518 83.05 83.6278 82.48 84.3598 82.072C85.1038 81.664 85.9438 81.46 86.8798 81.46C87.6958 81.46 88.4218 81.622 89.0578 81.946C89.7058 82.258 90.2158 82.72 90.5878 83.332L89.6338 83.98C89.3218 83.512 88.9258 83.164 88.4458 82.936C87.9658 82.696 87.4438 82.576 86.8798 82.576C86.1958 82.576 85.5778 82.732 85.0258 83.044C84.4858 83.344 84.0598 83.776 83.7478 84.34C83.4478 84.904 83.2978 85.546 83.2978 86.266C83.2978 86.998 83.4478 87.646 83.7478 88.21C84.0598 88.762 84.4858 89.194 85.0258 89.506C85.5778 89.806 86.1958 89.956 86.8798 89.956C87.4438 89.956 87.9658 89.842 88.4458 89.614C88.9258 89.386 89.3218 89.038 89.6338 88.57L90.5878 89.218C90.2158 89.83 89.7058 90.298 89.0578 90.622C88.4098 90.934 87.6838 91.09 86.8798 91.09ZM101.63 81.532V91H100.406V89.272C100.07 89.848 99.6084 90.298 99.0204 90.622C98.4324 90.934 97.7604 91.09 97.0044 91.09C95.7684 91.09 94.7904 90.748 94.0704 90.064C93.3624 89.368 93.0084 88.354 93.0084 87.022V81.532H94.2864V86.896C94.2864 87.892 94.5324 88.648 95.0244 89.164C95.5164 89.68 96.2184 89.938 97.1304 89.938C98.1264 89.938 98.9124 89.638 99.4884 89.038C100.064 88.426 100.352 87.58 100.352 86.5V81.532H101.63ZM113.233 81.46C114.469 81.46 115.417 81.772 116.077 82.396C116.737 83.008 117.067 83.92 117.067 85.132V91H115.843V89.524C115.555 90.016 115.129 90.4 114.565 90.676C114.013 90.952 113.353 91.09 112.585 91.09C111.529 91.09 110.689 90.838 110.065 90.334C109.441 89.83 109.129 89.164 109.129 88.336C109.129 87.532 109.417 86.884 109.993 86.392C110.581 85.9 111.511 85.654 112.783 85.654H115.789V85.078C115.789 84.262 115.561 83.644 115.105 83.224C114.649 82.792 113.983 82.576 113.107 82.576C112.507 82.576 111.931 82.678 111.379 82.882C110.827 83.074 110.353 83.344 109.957 83.692L109.381 82.738C109.861 82.33 110.437 82.018 111.109 81.802C111.781 81.574 112.489 81.46 113.233 81.46ZM112.783 90.082C113.503 90.082 114.121 89.92 114.637 89.596C115.153 89.26 115.537 88.78 115.789 88.156V86.608H112.819C111.199 86.608 110.389 87.172 110.389 88.3C110.389 88.852 110.599 89.29 111.019 89.614C111.439 89.926 112.027 90.082 112.783 90.082ZM110.263 77.824H111.973L114.439 80.056H113.179L110.263 77.824ZM136.049 78.4V91H134.951L126.851 80.776V91H125.519V78.4H126.617L134.735 88.624V78.4H136.049ZM143.203 81.46C144.439 81.46 145.387 81.772 146.047 82.396C146.707 83.008 147.037 83.92 147.037 85.132V91H145.813V89.524C145.525 90.016 145.099 90.4 144.535 90.676C143.983 90.952 143.323 91.09 142.555 91.09C141.499 91.09 140.659 90.838 140.035 90.334C139.411 89.83 139.099 89.164 139.099 88.336C139.099 87.532 139.387 86.884 139.963 86.392C140.551 85.9 141.481 85.654 142.753 85.654H145.759V85.078C145.759 84.262 145.531 83.644 145.075 83.224C144.619 82.792 143.953 82.576 143.077 82.576C142.477 82.576 141.901 82.678 141.349 82.882C140.797 83.074 140.323 83.344 139.927 83.692L139.351 82.738C139.831 82.33 140.407 82.018 141.079 81.802C141.751 81.574 142.459 81.46 143.203 81.46ZM142.753 90.082C143.473 90.082 144.091 89.92 144.607 89.596C145.123 89.26 145.507 88.78 145.759 88.156V86.608H142.789C141.169 86.608 140.359 87.172 140.359 88.3C140.359 88.852 140.569 89.29 140.989 89.614C141.409 89.926 141.997 90.082 142.753 90.082ZM155.333 81.46C156.521 81.46 157.463 81.808 158.159 82.504C158.867 83.188 159.221 84.19 159.221 85.51V91H157.943V85.636C157.943 84.652 157.697 83.902 157.205 83.386C156.713 82.87 156.011 82.612 155.099 82.612C154.079 82.612 153.269 82.918 152.669 83.53C152.081 84.13 151.787 84.964 151.787 86.032V91H150.509V81.532H151.733V83.278C152.081 82.702 152.561 82.258 153.173 81.946C153.797 81.622 154.517 81.46 155.333 81.46ZM167.676 90.424C167.436 90.64 167.136 90.808 166.776 90.928C166.428 91.036 166.062 91.09 165.678 91.09C164.79 91.09 164.106 90.85 163.626 90.37C163.146 89.89 162.906 89.212 162.906 88.336V82.612H161.214V81.532H162.906V79.462H164.184V81.532H167.064V82.612H164.184V88.264C164.184 88.828 164.322 89.26 164.598 89.56C164.886 89.848 165.294 89.992 165.822 89.992C166.086 89.992 166.338 89.95 166.578 89.866C166.83 89.782 167.046 89.662 167.226 89.506L167.676 90.424ZM177.913 86.662H169.993C170.065 87.646 170.443 88.444 171.127 89.056C171.811 89.656 172.675 89.956 173.719 89.956C174.307 89.956 174.847 89.854 175.339 89.65C175.831 89.434 176.257 89.122 176.617 88.714L177.337 89.542C176.917 90.046 176.389 90.43 175.753 90.694C175.129 90.958 174.439 91.09 173.683 91.09C172.711 91.09 171.847 90.886 171.091 90.478C170.347 90.058 169.765 89.482 169.345 88.75C168.925 88.018 168.715 87.19 168.715 86.266C168.715 85.342 168.913 84.514 169.309 83.782C169.717 83.05 170.269 82.48 170.965 82.072C171.673 81.664 172.465 81.46 173.341 81.46C174.217 81.46 175.003 81.664 175.699 82.072C176.395 82.48 176.941 83.05 177.337 83.782C177.733 84.502 177.931 85.33 177.931 86.266L177.913 86.662ZM173.341 82.558C172.429 82.558 171.661 82.852 171.037 83.44C170.425 84.016 170.077 84.772 169.993 85.708H176.707C176.623 84.772 176.269 84.016 175.645 83.44C175.033 82.852 174.265 82.558 173.341 82.558ZM183.07 91.09C182.302 91.09 181.564 90.982 180.856 90.766C180.16 90.538 179.614 90.256 179.218 89.92L179.794 88.912C180.19 89.224 180.688 89.482 181.288 89.686C181.888 89.878 182.512 89.974 183.16 89.974C184.024 89.974 184.66 89.842 185.068 89.578C185.488 89.302 185.698 88.918 185.698 88.426C185.698 88.078 185.584 87.808 185.356 87.616C185.128 87.412 184.84 87.262 184.492 87.166C184.144 87.058 183.682 86.956 183.106 86.86C182.338 86.716 181.72 86.572 181.252 86.428C180.784 86.272 180.382 86.014 180.046 85.654C179.722 85.294 179.56 84.796 179.56 84.16C179.56 83.368 179.89 82.72 180.55 82.216C181.21 81.712 182.128 81.46 183.304 81.46C183.916 81.46 184.528 81.544 185.14 81.712C185.752 81.868 186.256 82.078 186.652 82.342L186.094 83.368C185.314 82.828 184.384 82.558 183.304 82.558C182.488 82.558 181.87 82.702 181.45 82.99C181.042 83.278 180.838 83.656 180.838 84.124C180.838 84.484 180.952 84.772 181.18 84.988C181.42 85.204 181.714 85.366 182.062 85.474C182.41 85.57 182.89 85.672 183.502 85.78C184.258 85.924 184.864 86.068 185.32 86.212C185.776 86.356 186.166 86.602 186.49 86.95C186.814 87.298 186.976 87.778 186.976 88.39C186.976 89.218 186.628 89.878 185.932 90.37C185.248 90.85 184.294 91.09 183.07 91.09ZM199.036 90.424C198.796 90.64 198.496 90.808 198.136 90.928C197.788 91.036 197.422 91.09 197.038 91.09C196.15 91.09 195.466 90.85 194.986 90.37C194.506 89.89 194.266 89.212 194.266 88.336V82.612H192.574V81.532H194.266V79.462H195.544V81.532H198.424V82.612H195.544V88.264C195.544 88.828 195.682 89.26 195.958 89.56C196.246 89.848 196.654 89.992 197.182 89.992C197.446 89.992 197.698 89.95 197.938 89.866C198.19 89.782 198.406 89.662 198.586 89.506L199.036 90.424ZM204.898 91.09C203.986 91.09 203.164 90.886 202.432 90.478C201.7 90.058 201.124 89.482 200.704 88.75C200.284 88.018 200.074 87.19 200.074 86.266C200.074 85.342 200.284 84.514 200.704 83.782C201.124 83.05 201.7 82.48 202.432 82.072C203.164 81.664 203.986 81.46 204.898 81.46C205.81 81.46 206.632 81.664 207.364 82.072C208.096 82.48 208.666 83.05 209.074 83.782C209.494 84.514 209.704 85.342 209.704 86.266C209.704 87.19 209.494 88.018 209.074 88.75C208.666 89.482 208.096 90.058 207.364 90.478C206.632 90.886 205.81 91.09 204.898 91.09ZM204.898 89.956C205.57 89.956 206.17 89.806 206.698 89.506C207.238 89.194 207.658 88.756 207.958 88.192C208.258 87.628 208.408 86.986 208.408 86.266C208.408 85.546 208.258 84.904 207.958 84.34C207.658 83.776 207.238 83.344 206.698 83.044C206.17 82.732 205.57 82.576 204.898 82.576C204.226 82.576 203.62 82.732 203.08 83.044C202.552 83.344 202.132 83.776 201.82 84.34C201.52 84.904 201.37 85.546 201.37 86.266C201.37 86.986 201.52 87.628 201.82 88.192C202.132 88.756 202.552 89.194 203.08 89.506C203.62 89.806 204.226 89.956 204.898 89.956ZM220.845 81.532V91H219.621V89.272C219.285 89.848 218.823 90.298 218.235 90.622C217.647 90.934 216.975 91.09 216.219 91.09C214.983 91.09 214.005 90.748 213.285 90.064C212.577 89.368 212.223 88.354 212.223 87.022V81.532H213.501V86.896C213.501 87.892 213.747 88.648 214.239 89.164C214.731 89.68 215.433 89.938 216.345 89.938C217.341 89.938 218.127 89.638 218.703 89.038C219.279 88.426 219.567 87.58 219.567 86.5V81.532H220.845ZM229.411 90.424C229.171 90.64 228.871 90.808 228.511 90.928C228.163 91.036 227.797 91.09 227.413 91.09C226.525 91.09 225.841 90.85 225.361 90.37C224.881 89.89 224.641 89.212 224.641 88.336V82.612H222.949V81.532H224.641V79.462H225.919V81.532H228.799V82.612H225.919V88.264C225.919 88.828 226.057 89.26 226.333 89.56C226.621 89.848 227.029 89.992 227.557 89.992C227.821 89.992 228.073 89.95 228.313 89.866C228.565 89.782 228.781 89.662 228.961 89.506L229.411 90.424ZM239.647 86.662H231.727C231.799 87.646 232.177 88.444 232.861 89.056C233.545 89.656 234.409 89.956 235.453 89.956C236.041 89.956 236.581 89.854 237.073 89.65C237.565 89.434 237.991 89.122 238.351 88.714L239.071 89.542C238.651 90.046 238.123 90.43 237.487 90.694C236.863 90.958 236.173 91.09 235.417 91.09C234.445 91.09 233.581 90.886 232.825 90.478C232.081 90.058 231.499 89.482 231.079 88.75C230.659 88.018 230.449 87.19 230.449 86.266C230.449 85.342 230.647 84.514 231.043 83.782C231.451 83.05 232.003 82.48 232.699 82.072C233.407 81.664 234.199 81.46 235.075 81.46C235.951 81.46 236.737 81.664 237.433 82.072C238.129 82.48 238.675 83.05 239.071 83.782C239.467 84.502 239.665 85.33 239.665 86.266L239.647 86.662ZM235.075 82.558C234.163 82.558 233.395 82.852 232.771 83.44C232.159 84.016 231.811 84.772 231.727 85.708H238.441C238.357 84.772 238.003 84.016 237.379 83.44C236.767 82.852 235.999 82.558 235.075 82.558ZM41.59 103.46C42.778 103.46 43.708 103.802 44.38 104.486C45.064 105.17 45.406 106.178 45.406 107.51V113H44.128V107.636C44.128 106.652 43.888 105.902 43.408 105.386C42.94 104.87 42.274 104.612 41.41 104.612C40.426 104.612 39.652 104.918 39.088 105.53C38.524 106.13 38.242 106.964 38.242 108.032V113H36.964V107.636C36.964 106.652 36.724 105.902 36.244 105.386C35.776 104.87 35.104 104.612 34.228 104.612C33.256 104.612 32.482 104.918 31.906 105.53C31.342 106.13 31.06 106.964 31.06 108.032V113H29.782V103.532H31.006V105.26C31.342 104.684 31.81 104.24 32.41 103.928C33.01 103.616 33.7 103.46 34.48 103.46C35.272 103.46 35.956 103.628 36.532 103.964C37.12 104.3 37.558 104.798 37.846 105.458C38.194 104.834 38.692 104.348 39.34 104C40 103.64 40.75 103.46 41.59 103.46ZM52.1838 103.46C53.4198 103.46 54.3678 103.772 55.0278 104.396C55.6878 105.008 56.0178 105.92 56.0178 107.132V113H54.7938V111.524C54.5058 112.016 54.0798 112.4 53.5158 112.676C52.9638 112.952 52.3038 113.09 51.5358 113.09C50.4798 113.09 49.6398 112.838 49.0158 112.334C48.3918 111.83 48.0798 111.164 48.0798 110.336C48.0798 109.532 48.3678 108.884 48.9438 108.392C49.5318 107.9 50.4618 107.654 51.7338 107.654H54.7398V107.078C54.7398 106.262 54.5118 105.644 54.0558 105.224C53.5998 104.792 52.9338 104.576 52.0578 104.576C51.4578 104.576 50.8818 104.678 50.3298 104.882C49.7778 105.074 49.3038 105.344 48.9078 105.692L48.3318 104.738C48.8118 104.33 49.3878 104.018 50.0598 103.802C50.7318 103.574 51.4398 103.46 52.1838 103.46ZM51.7338 112.082C52.4538 112.082 53.0718 111.92 53.5878 111.596C54.1038 111.26 54.4878 110.78 54.7398 110.156V108.608H51.7698C50.1498 108.608 49.3398 109.172 49.3398 110.3C49.3398 110.852 49.5498 111.29 49.9698 111.614C50.3898 111.926 50.9778 112.082 51.7338 112.082ZM72.156 103.532L67.944 113H66.63L62.436 103.532H63.768L67.314 111.596L70.896 103.532H72.156ZM73.9558 103.532H75.2338V113H73.9558V103.532ZM74.6038 101.462C74.3398 101.462 74.1178 101.372 73.9378 101.192C73.7578 101.012 73.6678 100.796 73.6678 100.544C73.6678 100.304 73.7578 100.094 73.9378 99.914C74.1178 99.734 74.3398 99.644 74.6038 99.644C74.8678 99.644 75.0898 99.734 75.2698 99.914C75.4498 100.082 75.5398 100.286 75.5398 100.526C75.5398 100.79 75.4498 101.012 75.2698 101.192C75.0898 101.372 74.8678 101.462 74.6038 101.462ZM87.0338 108.662H79.1138C79.1858 109.646 79.5638 110.444 80.2478 111.056C80.9318 111.656 81.7958 111.956 82.8398 111.956C83.4278 111.956 83.9678 111.854 84.4598 111.65C84.9518 111.434 85.3778 111.122 85.7378 110.714L86.4578 111.542C86.0378 112.046 85.5098 112.43 84.8738 112.694C84.2498 112.958 83.5598 113.09 82.8038 113.09C81.8318 113.09 80.9678 112.886 80.2118 112.478C79.4678 112.058 78.8858 111.482 78.4658 110.75C78.0458 110.018 77.8358 109.19 77.8358 108.266C77.8358 107.342 78.0338 106.514 78.4298 105.782C78.8378 105.05 79.3898 104.48 80.0858 104.072C80.7938 103.664 81.5858 103.46 82.4618 103.46C83.3378 103.46 84.1238 103.664 84.8198 104.072C85.5158 104.48 86.0618 105.05 86.4578 105.782C86.8538 106.502 87.0518 107.33 87.0518 108.266L87.0338 108.662ZM82.4618 104.558C81.5498 104.558 80.7818 104.852 80.1578 105.44C79.5458 106.016 79.1978 106.772 79.1138 107.708H85.8278C85.7438 106.772 85.3898 106.016 84.7658 105.44C84.1538 104.852 83.3858 104.558 82.4618 104.558ZM89.7791 113.09C89.5151 113.09 89.2871 112.994 89.0951 112.802C88.9151 112.61 88.8251 112.376 88.8251 112.1C88.8251 111.824 88.9151 111.596 89.0951 111.416C89.2871 111.224 89.5151 111.128 89.7791 111.128C90.0431 111.128 90.2711 111.224 90.4631 111.416C90.6551 111.596 90.7511 111.824 90.7511 112.1C90.7511 112.376 90.6551 112.61 90.4631 112.802C90.2711 112.994 90.0431 113.09 89.7791 113.09ZM37.954 131.634H30.934L29.422 135H28.036L33.796 122.4H35.11L40.87 135H39.466L37.954 131.634ZM37.468 130.554L34.444 123.786L31.42 130.554H37.468ZM50.1657 125.532L45.9537 135H44.6397L40.4457 125.532H41.7777L45.3237 133.596L48.9057 125.532H50.1657ZM59.9459 130.662H52.0259C52.0979 131.646 52.4759 132.444 53.1599 133.056C53.8439 133.656 54.7079 133.956 55.7519 133.956C56.3399 133.956 56.8799 133.854 57.3719 133.65C57.8639 133.434 58.2899 133.122 58.6499 132.714L59.3699 133.542C58.9499 134.046 58.4219 134.43 57.7859 134.694C57.1619 134.958 56.4719 135.09 55.7159 135.09C54.7439 135.09 53.8799 134.886 53.1239 134.478C52.3799 134.058 51.7979 133.482 51.3779 132.75C50.9579 132.018 50.7479 131.19 50.7479 130.266C50.7479 129.342 50.9459 128.514 51.3419 127.782C51.7499 127.05 52.3019 126.48 52.9979 126.072C53.7059 125.664 54.4979 125.46 55.3739 125.46C56.2499 125.46 57.0359 125.664 57.7319 126.072C58.4279 126.48 58.9739 127.05 59.3699 127.782C59.7659 128.502 59.9639 129.33 59.9639 130.266L59.9459 130.662ZM55.3739 126.558C54.4619 126.558 53.6939 126.852 53.0699 127.44C52.4579 128.016 52.1099 128.772 52.0259 129.708H58.7399C58.6559 128.772 58.3019 128.016 57.6779 127.44C57.0659 126.852 56.2979 126.558 55.3739 126.558ZM69.1553 133.938V135H61.4513V134.154L67.4093 126.612H61.5593V125.532H69.0473V126.378L63.0893 133.938H69.1553ZM70.7226 129.564H75.4386V130.68H70.7226V129.564ZM86.0427 125.532L81.8307 135H80.5167L76.3227 125.532H77.6547L81.2007 133.596L84.7827 125.532H86.0427ZM91.4489 135.09C90.5369 135.09 89.7149 134.886 88.9829 134.478C88.2509 134.058 87.6749 133.482 87.2549 132.75C86.8349 132.018 86.6249 131.19 86.6249 130.266C86.6249 129.342 86.8349 128.514 87.2549 127.782C87.6749 127.05 88.2509 126.48 88.9829 126.072C89.7149 125.664 90.5369 125.46 91.4489 125.46C92.3609 125.46 93.1829 125.664 93.9149 126.072C94.6469 126.48 95.2169 127.05 95.6249 127.782C96.0449 128.514 96.2549 129.342 96.2549 130.266C96.2549 131.19 96.0449 132.018 95.6249 132.75C95.2169 133.482 94.6469 134.058 93.9149 134.478C93.1829 134.886 92.3609 135.09 91.4489 135.09ZM91.4489 133.956C92.1209 133.956 92.7209 133.806 93.2489 133.506C93.7889 133.194 94.2089 132.756 94.5089 132.192C94.8089 131.628 94.9589 130.986 94.9589 130.266C94.9589 129.546 94.8089 128.904 94.5089 128.34C94.2089 127.776 93.7889 127.344 93.2489 127.044C92.7209 126.732 92.1209 126.576 91.4489 126.576C90.7769 126.576 90.1709 126.732 89.6309 127.044C89.1029 127.344 88.6829 127.776 88.3709 128.34C88.0709 128.904 87.9209 129.546 87.9209 130.266C87.9209 130.986 88.0709 131.628 88.3709 132.192C88.6829 132.756 89.1029 133.194 89.6309 133.506C90.1709 133.806 90.7769 133.956 91.4489 133.956ZM107.396 125.532V135H106.172V133.272C105.836 133.848 105.374 134.298 104.786 134.622C104.198 134.934 103.526 135.09 102.77 135.09C101.534 135.09 100.556 134.748 99.836 134.064C99.128 133.368 98.774 132.354 98.774 131.022V125.532H100.052V130.896C100.052 131.892 100.298 132.648 100.79 133.164C101.282 133.68 101.984 133.938 102.896 133.938C103.892 133.938 104.678 133.638 105.254 133.038C105.83 132.426 106.118 131.58 106.118 130.5V125.532H107.396ZM113.513 135.09C112.745 135.09 112.007 134.982 111.299 134.766C110.603 134.538 110.057 134.256 109.661 133.92L110.237 132.912C110.633 133.224 111.131 133.482 111.731 133.686C112.331 133.878 112.955 133.974 113.603 133.974C114.467 133.974 115.103 133.842 115.511 133.578C115.931 133.302 116.141 132.918 116.141 132.426C116.141 132.078 116.027 131.808 115.799 131.616C115.571 131.412 115.283 131.262 114.935 131.166C114.587 131.058 114.125 130.956 113.549 130.86C112.781 130.716 112.163 130.572 111.695 130.428C111.227 130.272 110.825 130.014 110.489 129.654C110.165 129.294 110.003 128.796 110.003 128.16C110.003 127.368 110.333 126.72 110.993 126.216C111.653 125.712 112.571 125.46 113.747 125.46C114.359 125.46 114.971 125.544 115.583 125.712C116.195 125.868 116.699 126.078 117.095 126.342L116.537 127.368C115.757 126.828 114.827 126.558 113.747 126.558C112.931 126.558 112.313 126.702 111.893 126.99C111.485 127.278 111.281 127.656 111.281 128.124C111.281 128.484 111.395 128.772 111.623 128.988C111.863 129.204 112.157 129.366 112.505 129.474C112.853 129.57 113.333 129.672 113.945 129.78C114.701 129.924 115.307 130.068 115.763 130.212C116.219 130.356 116.609 130.602 116.933 130.95C117.257 131.298 117.419 131.778 117.419 132.39C117.419 133.218 117.071 133.878 116.375 134.37C115.691 134.85 114.737 135.09 113.513 135.09ZM129.479 134.424C129.239 134.64 128.939 134.808 128.579 134.928C128.231 135.036 127.865 135.09 127.481 135.09C126.593 135.09 125.909 134.85 125.429 134.37C124.949 133.89 124.709 133.212 124.709 132.336V126.612H123.017V125.532H124.709V123.462H125.987V125.532H128.867V126.612H125.987V132.264C125.987 132.828 126.125 133.26 126.401 133.56C126.689 133.848 127.097 133.992 127.625 133.992C127.889 133.992 128.141 133.95 128.381 133.866C128.633 133.782 128.849 133.662 129.029 133.506L129.479 134.424ZM135.341 135.09C134.429 135.09 133.607 134.886 132.875 134.478C132.143 134.058 131.567 133.482 131.147 132.75C130.727 132.018 130.517 131.19 130.517 130.266C130.517 129.342 130.727 128.514 131.147 127.782C131.567 127.05 132.143 126.48 132.875 126.072C133.607 125.664 134.429 125.46 135.341 125.46C136.253 125.46 137.075 125.664 137.807 126.072C138.539 126.48 139.109 127.05 139.517 127.782C139.937 128.514 140.147 129.342 140.147 130.266C140.147 131.19 139.937 132.018 139.517 132.75C139.109 133.482 138.539 134.058 137.807 134.478C137.075 134.886 136.253 135.09 135.341 135.09ZM135.341 133.956C136.013 133.956 136.613 133.806 137.141 133.506C137.681 133.194 138.101 132.756 138.401 132.192C138.701 131.628 138.851 130.986 138.851 130.266C138.851 129.546 138.701 128.904 138.401 128.34C138.101 127.776 137.681 127.344 137.141 127.044C136.613 126.732 136.013 126.576 135.341 126.576C134.669 126.576 134.063 126.732 133.523 127.044C132.995 127.344 132.575 127.776 132.263 128.34C131.963 128.904 131.813 129.546 131.813 130.266C131.813 130.986 131.963 131.628 132.263 132.192C132.575 132.756 132.995 133.194 133.523 133.506C134.063 133.806 134.669 133.956 135.341 133.956ZM151.289 125.532V135H150.065V133.272C149.729 133.848 149.267 134.298 148.679 134.622C148.091 134.934 147.419 135.09 146.663 135.09C145.427 135.09 144.449 134.748 143.729 134.064C143.021 133.368 142.667 132.354 142.667 131.022V125.532H143.945V130.896C143.945 131.892 144.191 132.648 144.683 133.164C145.175 133.68 145.877 133.938 146.789 133.938C147.785 133.938 148.571 133.638 149.147 133.038C149.723 132.426 150.011 131.58 150.011 130.5V125.532H151.289ZM159.854 134.424C159.614 134.64 159.314 134.808 158.954 134.928C158.606 135.036 158.24 135.09 157.856 135.09C156.968 135.09 156.284 134.85 155.804 134.37C155.324 133.89 155.084 133.212 155.084 132.336V126.612H153.392V125.532H155.084V123.462H156.362V125.532H159.242V126.612H156.362V132.264C156.362 132.828 156.5 133.26 156.776 133.56C157.064 133.848 157.472 133.992 158 133.992C158.264 133.992 158.516 133.95 158.756 133.866C159.008 133.782 159.224 133.662 159.404 133.506L159.854 134.424ZM175.531 121.644V135H174.307V133.128C173.923 133.764 173.413 134.25 172.777 134.586C172.153 134.922 171.445 135.09 170.653 135.09C169.765 135.09 168.961 134.886 168.241 134.478C167.521 134.07 166.957 133.5 166.549 132.768C166.141 132.036 165.937 131.202 165.937 130.266C165.937 129.33 166.141 128.496 166.549 127.764C166.957 127.032 167.521 126.468 168.241 126.072C168.961 125.664 169.765 125.46 170.653 125.46C171.421 125.46 172.111 125.622 172.723 125.946C173.347 126.258 173.857 126.72 174.253 127.332V121.644H175.531ZM170.761 133.956C171.421 133.956 172.015 133.806 172.543 133.506C173.083 133.194 173.503 132.756 173.803 132.192C174.115 131.628 174.271 130.986 174.271 130.266C174.271 129.546 174.115 128.904 173.803 128.34C173.503 127.776 173.083 127.344 172.543 127.044C172.015 126.732 171.421 126.576 170.761 126.576C170.089 126.576 169.483 126.732 168.943 127.044C168.415 127.344 167.995 127.776 167.683 128.34C167.383 128.904 167.233 129.546 167.233 130.266C167.233 130.986 167.383 131.628 167.683 132.192C167.995 132.756 168.415 133.194 168.943 133.506C169.483 133.806 170.089 133.956 170.761 133.956ZM187.335 130.662H179.415C179.487 131.646 179.865 132.444 180.549 133.056C181.233 133.656 182.097 133.956 183.141 133.956C183.729 133.956 184.269 133.854 184.761 133.65C185.253 133.434 185.679 133.122 186.039 132.714L186.759 133.542C186.339 134.046 185.811 134.43 185.175 134.694C184.551 134.958 183.861 135.09 183.105 135.09C182.133 135.09 181.269 134.886 180.513 134.478C179.769 134.058 179.187 133.482 178.767 132.75C178.347 132.018 178.137 131.19 178.137 130.266C178.137 129.342 178.335 128.514 178.731 127.782C179.139 127.05 179.691 126.48 180.387 126.072C181.095 125.664 181.887 125.46 182.763 125.46C183.639 125.46 184.425 125.664 185.121 126.072C185.817 126.48 186.363 127.05 186.759 127.782C187.155 128.502 187.353 129.33 187.353 130.266L187.335 130.662ZM182.763 126.558C181.851 126.558 181.083 126.852 180.459 127.44C179.847 128.016 179.499 128.772 179.415 129.708H186.129C186.045 128.772 185.691 128.016 185.067 127.44C184.455 126.852 183.687 126.558 182.763 126.558ZM206.473 125.46C207.661 125.46 208.591 125.802 209.263 126.486C209.947 127.17 210.289 128.178 210.289 129.51V135H209.011V129.636C209.011 128.652 208.771 127.902 208.291 127.386C207.823 126.87 207.157 126.612 206.293 126.612C205.309 126.612 204.535 126.918 203.971 127.53C203.407 128.13 203.125 128.964 203.125 130.032V135H201.847V129.636C201.847 128.652 201.607 127.902 201.127 127.386C200.659 126.87 199.987 126.612 199.111 126.612C198.139 126.612 197.365 126.918 196.789 127.53C196.225 128.13 195.943 128.964 195.943 130.032V135H194.665V125.532H195.889V127.26C196.225 126.684 196.693 126.24 197.293 125.928C197.893 125.616 198.583 125.46 199.363 125.46C200.155 125.46 200.839 125.628 201.415 125.964C202.003 126.3 202.441 126.798 202.729 127.458C203.077 126.834 203.575 126.348 204.223 126C204.883 125.64 205.633 125.46 206.473 125.46ZM222.034 130.662H214.114C214.186 131.646 214.564 132.444 215.248 133.056C215.932 133.656 216.796 133.956 217.84 133.956C218.428 133.956 218.968 133.854 219.46 133.65C219.952 133.434 220.378 133.122 220.738 132.714L221.458 133.542C221.038 134.046 220.51 134.43 219.874 134.694C219.25 134.958 218.56 135.09 217.804 135.09C216.832 135.09 215.968 134.886 215.212 134.478C214.468 134.058 213.886 133.482 213.466 132.75C213.046 132.018 212.836 131.19 212.836 130.266C212.836 129.342 213.034 128.514 213.43 127.782C213.838 127.05 214.39 126.48 215.086 126.072C215.794 125.664 216.586 125.46 217.462 125.46C218.338 125.46 219.124 125.664 219.82 126.072C220.516 126.48 221.062 127.05 221.458 127.782C221.854 128.502 222.052 129.33 222.052 130.266L222.034 130.662ZM217.462 126.558C216.55 126.558 215.782 126.852 215.158 127.44C214.546 128.016 214.198 128.772 214.114 129.708H220.828C220.744 128.772 220.39 128.016 219.766 127.44C219.154 126.852 218.386 126.558 217.462 126.558ZM219.244 124.056L217.462 122.562L215.68 124.056H214.492L216.814 121.824H218.11L220.432 124.056H219.244ZM236.461 125.46C237.649 125.46 238.579 125.802 239.251 126.486C239.935 127.17 240.277 128.178 240.277 129.51V135H238.999V129.636C238.999 128.652 238.759 127.902 238.279 127.386C237.811 126.87 237.145 126.612 236.281 126.612C235.297 126.612 234.523 126.918 233.959 127.53C233.395 128.13 233.113 128.964 233.113 130.032V135H231.835V129.636C231.835 128.652 231.595 127.902 231.115 127.386C230.647 126.87 229.975 126.612 229.099 126.612C228.127 126.612 227.353 126.918 226.777 127.53C226.213 128.13 225.931 128.964 225.931 130.032V135H224.653V125.532H225.877V127.26C226.213 126.684 226.681 126.24 227.281 125.928C227.881 125.616 228.571 125.46 229.351 125.46C230.143 125.46 230.827 125.628 231.403 125.964C231.991 126.3 232.429 126.798 232.717 127.458C233.065 126.834 233.563 126.348 234.211 126C234.871 125.64 235.621 125.46 236.461 125.46ZM252.022 130.662H244.102C244.174 131.646 244.552 132.444 245.236 133.056C245.92 133.656 246.784 133.956 247.828 133.956C248.416 133.956 248.956 133.854 249.448 133.65C249.94 133.434 250.366 133.122 250.726 132.714L251.446 133.542C251.026 134.046 250.498 134.43 249.862 134.694C249.238 134.958 248.548 135.09 247.792 135.09C246.82 135.09 245.956 134.886 245.2 134.478C244.456 134.058 243.874 133.482 243.454 132.75C243.034 132.018 242.824 131.19 242.824 130.266C242.824 129.342 243.022 128.514 243.418 127.782C243.826 127.05 244.378 126.48 245.074 126.072C245.782 125.664 246.574 125.46 247.45 125.46C248.326 125.46 249.112 125.664 249.808 126.072C250.504 126.48 251.05 127.05 251.446 127.782C251.842 128.502 252.04 129.33 252.04 130.266L252.022 130.662ZM247.45 126.558C246.538 126.558 245.77 126.852 245.146 127.44C244.534 128.016 244.186 128.772 244.102 129.708H250.816C250.732 128.772 250.378 128.016 249.754 127.44C249.142 126.852 248.374 126.558 247.45 126.558ZM38.422 143.644V157H37.198V155.128C36.814 155.764 36.304 156.25 35.668 156.586C35.044 156.922 34.336 157.09 33.544 157.09C32.656 157.09 31.852 156.886 31.132 156.478C30.412 156.07 29.848 155.5 29.44 154.768C29.032 154.036 28.828 153.202 28.828 152.266C28.828 151.33 29.032 150.496 29.44 149.764C29.848 149.032 30.412 148.468 31.132 148.072C31.852 147.664 32.656 147.46 33.544 147.46C34.312 147.46 35.002 147.622 35.614 147.946C36.238 148.258 36.748 148.72 37.144 149.332V143.644H38.422ZM33.652 155.956C34.312 155.956 34.906 155.806 35.434 155.506C35.974 155.194 36.394 154.756 36.694 154.192C37.006 153.628 37.162 152.986 37.162 152.266C37.162 151.546 37.006 150.904 36.694 150.34C36.394 149.776 35.974 149.344 35.434 149.044C34.906 148.732 34.312 148.576 33.652 148.576C32.98 148.576 32.374 148.732 31.834 149.044C31.306 149.344 30.886 149.776 30.574 150.34C30.274 150.904 30.124 151.546 30.124 152.266C30.124 152.986 30.274 153.628 30.574 154.192C30.886 154.756 31.306 155.194 31.834 155.506C32.374 155.806 32.98 155.956 33.652 155.956ZM50.2252 152.662H42.3052C42.3772 153.646 42.7552 154.444 43.4392 155.056C44.1232 155.656 44.9872 155.956 46.0312 155.956C46.6192 155.956 47.1592 155.854 47.6512 155.65C48.1432 155.434 48.5692 155.122 48.9292 154.714L49.6492 155.542C49.2292 156.046 48.7012 156.43 48.0652 156.694C47.4412 156.958 46.7512 157.09 45.9952 157.09C45.0232 157.09 44.1592 156.886 43.4032 156.478C42.6592 156.058 42.0772 155.482 41.6572 154.75C41.2372 154.018 41.0272 153.19 41.0272 152.266C41.0272 151.342 41.2252 150.514 41.6212 149.782C42.0292 149.05 42.5812 148.48 43.2772 148.072C43.9852 147.664 44.7772 147.46 45.6532 147.46C46.5292 147.46 47.3152 147.664 48.0112 148.072C48.7072 148.48 49.2532 149.05 49.6492 149.782C50.0452 150.502 50.2432 151.33 50.2432 152.266L50.2252 152.662ZM45.6532 148.558C44.7412 148.558 43.9732 148.852 43.3492 149.44C42.7372 150.016 42.3892 150.772 42.3052 151.708H49.0192C48.9352 150.772 48.5812 150.016 47.9572 149.44C47.3452 148.852 46.5772 148.558 45.6532 148.558ZM55.3825 157.09C54.6145 157.09 53.8765 156.982 53.1685 156.766C52.4725 156.538 51.9265 156.256 51.5305 155.92L52.1065 154.912C52.5025 155.224 53.0005 155.482 53.6005 155.686C54.2005 155.878 54.8245 155.974 55.4725 155.974C56.3365 155.974 56.9725 155.842 57.3805 155.578C57.8005 155.302 58.0105 154.918 58.0105 154.426C58.0105 154.078 57.8965 153.808 57.6685 153.616C57.4405 153.412 57.1525 153.262 56.8045 153.166C56.4565 153.058 55.9945 152.956 55.4185 152.86C54.6505 152.716 54.0325 152.572 53.5645 152.428C53.0965 152.272 52.6945 152.014 52.3585 151.654C52.0345 151.294 51.8725 150.796 51.8725 150.16C51.8725 149.368 52.2025 148.72 52.8625 148.216C53.5225 147.712 54.4405 147.46 55.6165 147.46C56.2285 147.46 56.8405 147.544 57.4525 147.712C58.0645 147.868 58.5685 148.078 58.9645 148.342L58.4065 149.368C57.6265 148.828 56.6965 148.558 55.6165 148.558C54.8005 148.558 54.1825 148.702 53.7625 148.99C53.3545 149.278 53.1505 149.656 53.1505 150.124C53.1505 150.484 53.2645 150.772 53.4925 150.988C53.7325 151.204 54.0265 151.366 54.3745 151.474C54.7225 151.57 55.2025 151.672 55.8145 151.78C56.5705 151.924 57.1765 152.068 57.6325 152.212C58.0885 152.356 58.4785 152.602 58.8025 152.95C59.1265 153.298 59.2885 153.778 59.2885 154.39C59.2885 155.218 58.9405 155.878 58.2445 156.37C57.5605 156.85 56.6065 157.09 55.3825 157.09ZM69.6741 147.46C70.9101 147.46 71.8581 147.772 72.5181 148.396C73.1781 149.008 73.5081 149.92 73.5081 151.132V157H72.2841V155.524C71.9961 156.016 71.5701 156.4 71.0061 156.676C70.4541 156.952 69.7941 157.09 69.0261 157.09C67.9701 157.09 67.1301 156.838 66.5061 156.334C65.8821 155.83 65.5701 155.164 65.5701 154.336C65.5701 153.532 65.8581 152.884 66.4341 152.392C67.0221 151.9 67.9521 151.654 69.2241 151.654H72.2301V151.078C72.2301 150.262 72.0021 149.644 71.5461 149.224C71.0901 148.792 70.4241 148.576 69.5481 148.576C68.9481 148.576 68.3721 148.678 67.8201 148.882C67.2681 149.074 66.7941 149.344 66.3981 149.692L65.8221 148.738C66.3021 148.33 66.8781 148.018 67.5501 147.802C68.2221 147.574 68.9301 147.46 69.6741 147.46ZM69.2241 156.082C69.9441 156.082 70.5621 155.92 71.0781 155.596C71.5941 155.26 71.9781 154.78 72.2301 154.156V152.608H69.2601C67.6401 152.608 66.8301 153.172 66.8301 154.3C66.8301 154.852 67.0401 155.29 67.4601 155.614C67.8801 155.926 68.4681 156.082 69.2241 156.082ZM85.6544 143.644V157H84.4304V155.128C84.0464 155.764 83.5364 156.25 82.9004 156.586C82.2764 156.922 81.5684 157.09 80.7764 157.09C79.8884 157.09 79.0844 156.886 78.3644 156.478C77.6444 156.07 77.0804 155.5 76.6724 154.768C76.2644 154.036 76.0604 153.202 76.0604 152.266C76.0604 151.33 76.2644 150.496 76.6724 149.764C77.0804 149.032 77.6444 148.468 78.3644 148.072C79.0844 147.664 79.8884 147.46 80.7764 147.46C81.5444 147.46 82.2344 147.622 82.8464 147.946C83.4704 148.258 83.9804 148.72 84.3764 149.332V143.644H85.6544ZM80.8844 155.956C81.5444 155.956 82.1384 155.806 82.6664 155.506C83.2064 155.194 83.6264 154.756 83.9264 154.192C84.2384 153.628 84.3944 152.986 84.3944 152.266C84.3944 151.546 84.2384 150.904 83.9264 150.34C83.6264 149.776 83.2064 149.344 82.6664 149.044C82.1384 148.732 81.5444 148.576 80.8844 148.576C80.2124 148.576 79.6064 148.732 79.0664 149.044C78.5384 149.344 78.1184 149.776 77.8064 150.34C77.5064 150.904 77.3564 151.546 77.3564 152.266C77.3564 152.986 77.5064 153.628 77.8064 154.192C78.1184 154.756 78.5384 155.194 79.0664 155.506C79.6064 155.806 80.2124 155.956 80.8844 155.956ZM90.4376 149.386C90.7376 148.75 91.1816 148.27 91.7696 147.946C92.3696 147.622 93.1076 147.46 93.9836 147.46V148.702L93.6776 148.684C92.6816 148.684 91.9016 148.99 91.3376 149.602C90.7736 150.214 90.4916 151.072 90.4916 152.176V157H89.2136V147.532H90.4376V149.386ZM104.454 152.662H96.5337C96.6057 153.646 96.9837 154.444 97.6677 155.056C98.3517 155.656 99.2157 155.956 100.26 155.956C100.848 155.956 101.388 155.854 101.88 155.65C102.372 155.434 102.798 155.122 103.158 154.714L103.878 155.542C103.458 156.046 102.93 156.43 102.294 156.694C101.67 156.958 100.98 157.09 100.224 157.09C99.2517 157.09 98.3877 156.886 97.6317 156.478C96.8877 156.058 96.3057 155.482 95.8857 154.75C95.4657 154.018 95.2557 153.19 95.2557 152.266C95.2557 151.342 95.4537 150.514 95.8497 149.782C96.2577 149.05 96.8097 148.48 97.5057 148.072C98.2137 147.664 99.0057 147.46 99.8817 147.46C100.758 147.46 101.544 147.664 102.24 148.072C102.936 148.48 103.482 149.05 103.878 149.782C104.274 150.502 104.472 151.33 104.472 152.266L104.454 152.662ZM99.8817 148.558C98.9697 148.558 98.2017 148.852 97.5777 149.44C96.9657 150.016 96.6177 150.772 96.5337 151.708H103.248C103.164 150.772 102.81 150.016 102.186 149.44C101.574 148.852 100.806 148.558 99.8817 148.558ZM109.611 157.09C108.843 157.09 108.105 156.982 107.397 156.766C106.701 156.538 106.155 156.256 105.759 155.92L106.335 154.912C106.731 155.224 107.229 155.482 107.829 155.686C108.429 155.878 109.053 155.974 109.701 155.974C110.565 155.974 111.201 155.842 111.609 155.578C112.029 155.302 112.239 154.918 112.239 154.426C112.239 154.078 112.125 153.808 111.897 153.616C111.669 153.412 111.381 153.262 111.033 153.166C110.685 153.058 110.223 152.956 109.647 152.86C108.879 152.716 108.261 152.572 107.793 152.428C107.325 152.272 106.923 152.014 106.587 151.654C106.263 151.294 106.101 150.796 106.101 150.16C106.101 149.368 106.431 148.72 107.091 148.216C107.751 147.712 108.669 147.46 109.845 147.46C110.457 147.46 111.069 147.544 111.681 147.712C112.293 147.868 112.797 148.078 113.193 148.342L112.635 149.368C111.855 148.828 110.925 148.558 109.845 148.558C109.029 148.558 108.411 148.702 107.991 148.99C107.583 149.278 107.379 149.656 107.379 150.124C107.379 150.484 107.493 150.772 107.721 150.988C107.961 151.204 108.255 151.366 108.603 151.474C108.951 151.57 109.431 151.672 110.043 151.78C110.799 151.924 111.405 152.068 111.861 152.212C112.317 152.356 112.707 152.602 113.031 152.95C113.355 153.298 113.517 153.778 113.517 154.39C113.517 155.218 113.169 155.878 112.473 156.37C111.789 156.85 110.835 157.09 109.611 157.09ZM118.418 157.09C117.65 157.09 116.912 156.982 116.204 156.766C115.508 156.538 114.962 156.256 114.566 155.92L115.142 154.912C115.538 155.224 116.036 155.482 116.636 155.686C117.236 155.878 117.86 155.974 118.508 155.974C119.372 155.974 120.008 155.842 120.416 155.578C120.836 155.302 121.046 154.918 121.046 154.426C121.046 154.078 120.932 153.808 120.704 153.616C120.476 153.412 120.188 153.262 119.84 153.166C119.492 153.058 119.03 152.956 118.454 152.86C117.686 152.716 117.068 152.572 116.6 152.428C116.132 152.272 115.73 152.014 115.394 151.654C115.07 151.294 114.908 150.796 114.908 150.16C114.908 149.368 115.238 148.72 115.898 148.216C116.558 147.712 117.476 147.46 118.652 147.46C119.264 147.46 119.876 147.544 120.488 147.712C121.1 147.868 121.604 148.078 122 148.342L121.442 149.368C120.662 148.828 119.732 148.558 118.652 148.558C117.836 148.558 117.218 148.702 116.798 148.99C116.39 149.278 116.186 149.656 116.186 150.124C116.186 150.484 116.3 150.772 116.528 150.988C116.768 151.204 117.062 151.366 117.41 151.474C117.758 151.57 118.238 151.672 118.85 151.78C119.606 151.924 120.212 152.068 120.668 152.212C121.124 152.356 121.514 152.602 121.838 152.95C122.162 153.298 122.324 153.778 122.324 154.39C122.324 155.218 121.976 155.878 121.28 156.37C120.596 156.85 119.642 157.09 118.418 157.09ZM132.93 152.662H125.01C125.082 153.646 125.46 154.444 126.144 155.056C126.828 155.656 127.692 155.956 128.736 155.956C129.324 155.956 129.864 155.854 130.356 155.65C130.848 155.434 131.274 155.122 131.634 154.714L132.354 155.542C131.934 156.046 131.406 156.43 130.77 156.694C130.146 156.958 129.456 157.09 128.7 157.09C127.728 157.09 126.864 156.886 126.108 156.478C125.364 156.058 124.782 155.482 124.362 154.75C123.942 154.018 123.732 153.19 123.732 152.266C123.732 151.342 123.93 150.514 124.326 149.782C124.734 149.05 125.286 148.48 125.982 148.072C126.69 147.664 127.482 147.46 128.358 147.46C129.234 147.46 130.02 147.664 130.716 148.072C131.412 148.48 131.958 149.05 132.354 149.782C132.75 150.502 132.948 151.33 132.948 152.266L132.93 152.662ZM128.358 148.558C127.446 148.558 126.678 148.852 126.054 149.44C125.442 150.016 125.094 150.772 125.01 151.708H131.724C131.64 150.772 131.286 150.016 130.662 149.44C130.05 148.852 129.282 148.558 128.358 148.558ZM138.088 157.09C137.32 157.09 136.582 156.982 135.874 156.766C135.178 156.538 134.632 156.256 134.236 155.92L134.812 154.912C135.208 155.224 135.706 155.482 136.306 155.686C136.906 155.878 137.53 155.974 138.178 155.974C139.042 155.974 139.678 155.842 140.086 155.578C140.506 155.302 140.716 154.918 140.716 154.426C140.716 154.078 140.602 153.808 140.374 153.616C140.146 153.412 139.858 153.262 139.51 153.166C139.162 153.058 138.7 152.956 138.124 152.86C137.356 152.716 136.738 152.572 136.27 152.428C135.802 152.272 135.4 152.014 135.064 151.654C134.74 151.294 134.578 150.796 134.578 150.16C134.578 149.368 134.908 148.72 135.568 148.216C136.228 147.712 137.146 147.46 138.322 147.46C138.934 147.46 139.546 147.544 140.158 147.712C140.77 147.868 141.274 148.078 141.67 148.342L141.112 149.368C140.332 148.828 139.402 148.558 138.322 148.558C137.506 148.558 136.888 148.702 136.468 148.99C136.06 149.278 135.856 149.656 135.856 150.124C135.856 150.484 135.97 150.772 136.198 150.988C136.438 151.204 136.732 151.366 137.08 151.474C137.428 151.57 137.908 151.672 138.52 151.78C139.276 151.924 139.882 152.068 140.338 152.212C140.794 152.356 141.184 152.602 141.508 152.95C141.832 153.298 141.994 153.778 141.994 154.39C141.994 155.218 141.646 155.878 140.95 156.37C140.266 156.85 139.312 157.09 138.088 157.09ZM157.311 152.662H149.391C149.463 153.646 149.841 154.444 150.525 155.056C151.209 155.656 152.073 155.956 153.117 155.956C153.705 155.956 154.245 155.854 154.737 155.65C155.229 155.434 155.655 155.122 156.015 154.714L156.735 155.542C156.315 156.046 155.787 156.43 155.151 156.694C154.527 156.958 153.837 157.09 153.081 157.09C152.109 157.09 151.245 156.886 150.489 156.478C149.745 156.058 149.163 155.482 148.743 154.75C148.323 154.018 148.113 153.19 148.113 152.266C148.113 151.342 148.311 150.514 148.707 149.782C149.115 149.05 149.667 148.48 150.363 148.072C151.071 147.664 151.863 147.46 152.739 147.46C153.615 147.46 154.401 147.664 155.097 148.072C155.793 148.48 156.339 149.05 156.735 149.782C157.131 150.502 157.329 151.33 157.329 152.266L157.311 152.662ZM152.739 148.558C151.827 148.558 151.059 148.852 150.435 149.44C149.823 150.016 149.475 150.772 149.391 151.708H156.105C156.021 150.772 155.667 150.016 155.043 149.44C154.431 148.852 153.663 148.558 152.739 148.558ZM164.754 147.46C165.942 147.46 166.884 147.808 167.58 148.504C168.288 149.188 168.642 150.19 168.642 151.51V157H167.364V151.636C167.364 150.652 167.118 149.902 166.626 149.386C166.134 148.87 165.432 148.612 164.52 148.612C163.5 148.612 162.69 148.918 162.09 149.53C161.502 150.13 161.208 150.964 161.208 152.032V157H159.93V147.532H161.154V149.278C161.502 148.702 161.982 148.258 162.594 147.946C163.218 147.622 163.938 147.46 164.754 147.46ZM181.809 156.424C181.569 156.64 181.269 156.808 180.909 156.928C180.561 157.036 180.195 157.09 179.811 157.09C178.923 157.09 178.239 156.85 177.759 156.37C177.279 155.89 177.039 155.212 177.039 154.336V148.612H175.347V147.532H177.039V145.462H178.317V147.532H181.197V148.612H178.317V154.264C178.317 154.828 178.455 155.26 178.731 155.56C179.019 155.848 179.427 155.992 179.955 155.992C180.219 155.992 180.471 155.95 180.711 155.866C180.963 155.782 181.179 155.662 181.359 155.506L181.809 156.424ZM192.046 152.662H184.126C184.198 153.646 184.576 154.444 185.26 155.056C185.944 155.656 186.808 155.956 187.852 155.956C188.44 155.956 188.98 155.854 189.472 155.65C189.964 155.434 190.39 155.122 190.75 154.714L191.47 155.542C191.05 156.046 190.522 156.43 189.886 156.694C189.262 156.958 188.572 157.09 187.816 157.09C186.844 157.09 185.98 156.886 185.224 156.478C184.48 156.058 183.898 155.482 183.478 154.75C183.058 154.018 182.848 153.19 182.848 152.266C182.848 151.342 183.046 150.514 183.442 149.782C183.85 149.05 184.402 148.48 185.098 148.072C185.806 147.664 186.598 147.46 187.474 147.46C188.35 147.46 189.136 147.664 189.832 148.072C190.528 148.48 191.074 149.05 191.47 149.782C191.866 150.502 192.064 151.33 192.064 152.266L192.046 152.662ZM187.474 148.558C186.562 148.558 185.794 148.852 185.17 149.44C184.558 150.016 184.21 150.772 184.126 151.708H190.84C190.756 150.772 190.402 150.016 189.778 149.44C189.166 148.852 188.398 148.558 187.474 148.558ZM189.256 146.056L187.474 144.562L185.692 146.056H184.504L186.826 143.824H188.122L190.444 146.056H189.256ZM199.651 156.424C199.411 156.64 199.111 156.808 198.751 156.928C198.403 157.036 198.037 157.09 197.653 157.09C196.765 157.09 196.081 156.85 195.601 156.37C195.121 155.89 194.881 155.212 194.881 154.336V148.612H193.189V147.532H194.881V145.462H196.159V147.532H199.039V148.612H196.159V154.264C196.159 154.828 196.297 155.26 196.573 155.56C196.861 155.848 197.269 155.992 197.797 155.992C198.061 155.992 198.313 155.95 198.553 155.866C198.805 155.782 199.021 155.662 199.201 155.506L199.651 156.424ZM209.887 152.662H201.967C202.039 153.646 202.417 154.444 203.101 155.056C203.785 155.656 204.649 155.956 205.693 155.956C206.281 155.956 206.821 155.854 207.313 155.65C207.805 155.434 208.231 155.122 208.591 154.714L209.311 155.542C208.891 156.046 208.363 156.43 207.727 156.694C207.103 156.958 206.413 157.09 205.657 157.09C204.685 157.09 203.821 156.886 203.065 156.478C202.321 156.058 201.739 155.482 201.319 154.75C200.899 154.018 200.689 153.19 200.689 152.266C200.689 151.342 200.887 150.514 201.283 149.782C201.691 149.05 202.243 148.48 202.939 148.072C203.647 147.664 204.439 147.46 205.315 147.46C206.191 147.46 206.977 147.664 207.673 148.072C208.369 148.48 208.915 149.05 209.311 149.782C209.707 150.502 209.905 151.33 209.905 152.266L209.887 152.662ZM205.315 148.558C204.403 148.558 203.635 148.852 203.011 149.44C202.399 150.016 202.051 150.772 201.967 151.708H208.681C208.597 150.772 208.243 150.016 207.619 149.44C207.007 148.852 206.239 148.558 205.315 148.558ZM219.666 153.22C219.666 152.728 219.744 152.296 219.9 151.924C220.068 151.552 220.272 151.234 220.512 150.97C220.752 150.706 221.064 150.406 221.448 150.07C221.964 149.614 222.342 149.218 222.582 148.882C222.834 148.534 222.96 148.114 222.96 147.622C222.96 146.962 222.702 146.434 222.186 146.038C221.67 145.63 220.962 145.426 220.062 145.426C218.574 145.426 217.428 145.912 216.624 146.884L215.67 146.164C216.69 144.916 218.184 144.292 220.152 144.292C221.412 144.292 222.414 144.574 223.158 145.138C223.914 145.702 224.292 146.464 224.292 147.424C224.292 147.916 224.208 148.354 224.04 148.738C223.884 149.11 223.686 149.428 223.446 149.692C223.218 149.956 222.912 150.262 222.528 150.61C222.012 151.078 221.628 151.498 221.376 151.87C221.124 152.23 220.998 152.68 220.998 153.22H219.666ZM220.332 157.09C220.068 157.09 219.846 157 219.666 156.82C219.486 156.628 219.396 156.406 219.396 156.154C219.396 155.89 219.486 155.674 219.666 155.506C219.846 155.326 220.068 155.236 220.332 155.236C220.608 155.236 220.836 155.326 221.016 155.506C221.196 155.674 221.286 155.89 221.286 156.154C221.286 156.406 221.19 156.628 220.998 156.82C220.818 157 220.596 157.09 220.332 157.09Z" fill="white"/>
</svg>
