<svg width="278" height="230" viewBox="0 0 278 230" fill="none" xmlns="http://www.w3.org/2000/svg">
<path d="M251.229 186.667H104.465L50.9218 228.598C45.9818 232.644 39.289 227.311 40.8826 220.506L48.5315 186.851H28.7717C13.9518 186.851 2.15967 173.058 2.15967 155.771V31.0805C2.15967 13.9771 14.1112 0 28.7717 0H251.388C266.208 0 278 13.7931 278 31.0805V155.771C278 172.874 265.889 186.667 251.229 186.667Z" fill="#F1B705"/>
<path d="M251.229 0H191.63C187.806 86.9887 125.658 155.954 49.6466 155.954C32.9145 155.954 16.8199 152.644 2 146.575V155.771C2 172.874 13.9515 186.851 28.612 186.851H48.2125L40.5635 220.506C38.9699 227.311 45.5035 232.644 50.6028 228.598L104.145 186.667H250.91C265.73 186.667 277.522 172.874 277.522 155.587V30.8966C278 13.7931 265.889 0 251.229 0Z" fill="#EEAD07"/>
<path d="M2 31.0161V155.984C2 173.148 15.9058 187 32.9858 187H247.014C264.094 187 278 173.148 278 155.984V31.0161C278 13.8519 264.094 0 247.014 0H32.9858C15.9058 0.150564 2 14.0024 2 31.0161Z" fill="#F1B705"/>
<path d="M0 31.2208V157.627C0 174.989 14.0066 189 31.2103 189H158.183H178.786C188.859 189 191.377 189 204.471 189H223.801H246.79C263.993 189 278 174.989 278 157.627V148.185C260.644 154.429 241.918 157.779 222.278 157.779C193.504 157.779 166.404 150.469 142.806 137.524C141.436 136.762 140.218 136.153 139 135.392C91.8039 107.978 59.2234 57.8727 56.483 0H31.2103C14.0066 0 0 14.0113 0 31.2208Z" fill="#EEAD07"/>
<path d="M42.545 50.141C43.419 50.331 44.0903 50.711 44.559 51.281C45.0403 51.8383 45.281 52.5603 45.281 53.447C45.281 54.587 44.8567 55.4673 44.008 56.088C43.172 56.696 41.9307 57 40.284 57H34.166V43.7H39.904C41.386 43.7 42.5323 43.9977 43.343 44.593C44.1663 45.1883 44.578 46.0307 44.578 47.12C44.578 47.8547 44.3943 48.4817 44.027 49.001C43.6723 49.5077 43.1783 49.8877 42.545 50.141ZM35.572 44.859V49.685H39.809C40.8857 49.685 41.7153 49.4823 42.298 49.077C42.8807 48.659 43.172 48.0573 43.172 47.272C43.172 46.4867 42.8807 45.8913 42.298 45.486C41.7153 45.068 40.8857 44.859 39.809 44.859H35.572ZM40.265 55.841C41.4557 55.841 42.355 55.6383 42.963 55.233C43.571 54.8277 43.875 54.1943 43.875 53.333C43.875 51.6737 42.6717 50.844 40.265 50.844H35.572V55.841H40.265ZM52.2902 57.095C51.3276 57.095 50.4599 56.8797 49.6872 56.449C48.9146 56.0057 48.3066 55.3977 47.8632 54.625C47.4199 53.8523 47.1982 52.9783 47.1982 52.003C47.1982 51.0277 47.4199 50.1537 47.8632 49.381C48.3066 48.6083 48.9146 48.0067 49.6872 47.576C50.4599 47.1453 51.3276 46.93 52.2902 46.93C53.2529 46.93 54.1206 47.1453 54.8932 47.576C55.6659 48.0067 56.2676 48.6083 56.6982 49.381C57.1416 50.1537 57.3632 51.0277 57.3632 52.003C57.3632 52.9783 57.1416 53.8523 56.6982 54.625C56.2676 55.3977 55.6659 56.0057 54.8932 56.449C54.1206 56.8797 53.2529 57.095 52.2902 57.095ZM52.2902 55.898C52.9996 55.898 53.6329 55.7397 54.1902 55.423C54.7602 55.0937 55.2036 54.6313 55.5202 54.036C55.8369 53.4407 55.9952 52.763 55.9952 52.003C55.9952 51.243 55.8369 50.5653 55.5202 49.97C55.2036 49.3747 54.7602 48.9187 54.1902 48.602C53.6329 48.2727 52.9996 48.108 52.2902 48.108C51.5809 48.108 50.9412 48.2727 50.3712 48.602C49.8139 48.9187 49.3706 49.3747 49.0412 49.97C48.7246 50.5653 48.5662 51.243 48.5662 52.003C48.5662 52.763 48.7246 53.4407 49.0412 54.036C49.3706 54.6313 49.8139 55.0937 50.3712 55.423C50.9412 55.7397 51.5809 55.898 52.2902 55.898ZM65.2093 46.93C66.4633 46.93 67.4577 47.2973 68.1923 48.032C68.9397 48.754 69.3133 49.8117 69.3133 51.205V57H67.9643V51.338C67.9643 50.2993 67.7047 49.5077 67.1853 48.963C66.666 48.4183 65.925 48.146 64.9623 48.146C63.8857 48.146 63.0307 48.469 62.3973 49.115C61.7767 49.7483 61.4663 50.6287 61.4663 51.756V57H60.1173V47.006H61.4093V48.849C61.7767 48.241 62.2833 47.7723 62.9293 47.443C63.588 47.101 64.348 46.93 65.2093 46.93ZM71.4937 60.781C71.0757 60.781 70.6831 60.724 70.3157 60.61C69.9357 60.5087 69.6254 60.3503 69.3847 60.135L69.8597 59.109C70.2524 59.451 70.7717 59.622 71.4177 59.622C71.9497 59.622 72.3551 59.4637 72.6337 59.147C72.9251 58.8303 73.0707 58.3617 73.0707 57.741V47.006H74.4197V57.741C74.4197 58.6783 74.1664 59.4193 73.6597 59.964C73.1531 60.5087 72.4311 60.781 71.4937 60.781ZM73.7547 44.802C73.4761 44.802 73.2417 44.707 73.0517 44.517C72.8617 44.327 72.7667 44.099 72.7667 43.833C72.7667 43.5797 72.8617 43.358 73.0517 43.168C73.2417 42.978 73.4761 42.883 73.7547 42.883C74.0334 42.883 74.2677 42.978 74.4577 43.168C74.6477 43.3453 74.7427 43.5607 74.7427 43.814C74.7427 44.0927 74.6477 44.327 74.4577 44.517C74.2677 44.707 74.0334 44.802 73.7547 44.802ZM82.2746 57.095C81.3119 57.095 80.4443 56.8797 79.6716 56.449C78.8989 56.0057 78.2909 55.3977 77.8476 54.625C77.4043 53.8523 77.1826 52.9783 77.1826 52.003C77.1826 51.0277 77.4043 50.1537 77.8476 49.381C78.2909 48.6083 78.8989 48.0067 79.6716 47.576C80.4443 47.1453 81.3119 46.93 82.2746 46.93C83.2373 46.93 84.1049 47.1453 84.8776 47.576C85.6503 48.0067 86.2519 48.6083 86.6826 49.381C87.1259 50.1537 87.3476 51.0277 87.3476 52.003C87.3476 52.9783 87.1259 53.8523 86.6826 54.625C86.2519 55.3977 85.6503 56.0057 84.8776 56.449C84.1049 56.8797 83.2373 57.095 82.2746 57.095ZM82.2746 55.898C82.9839 55.898 83.6173 55.7397 84.1746 55.423C84.7446 55.0937 85.1879 54.6313 85.5046 54.036C85.8213 53.4407 85.9796 52.763 85.9796 52.003C85.9796 51.243 85.8213 50.5653 85.5046 49.97C85.1879 49.3747 84.7446 48.9187 84.1746 48.602C83.6173 48.2727 82.9839 48.108 82.2746 48.108C81.5653 48.108 80.9256 48.2727 80.3556 48.602C79.7983 48.9187 79.3549 49.3747 79.0256 49.97C78.7089 50.5653 78.5506 51.243 78.5506 52.003C78.5506 52.763 78.7089 53.4407 79.0256 54.036C79.3549 54.6313 79.7983 55.0937 80.3556 55.423C80.9256 55.7397 81.5653 55.898 82.2746 55.898ZM99.1077 47.006V57H97.8157V55.176C97.461 55.784 96.9734 56.259 96.3527 56.601C95.732 56.9303 95.0227 57.095 94.2247 57.095C92.92 57.095 91.8877 56.734 91.1277 56.012C90.3804 55.2773 90.0067 54.207 90.0067 52.801V47.006H91.3557V52.668C91.3557 53.7193 91.6154 54.5173 92.1347 55.062C92.654 55.6067 93.395 55.879 94.3577 55.879C95.409 55.879 96.2387 55.5623 96.8467 54.929C97.4547 54.283 97.7587 53.39 97.7587 52.25V47.006H99.1077ZM104.178 48.963C104.495 48.2917 104.963 47.785 105.584 47.443C106.217 47.101 106.996 46.93 107.921 46.93V48.241L107.598 48.222C106.547 48.222 105.723 48.545 105.128 49.191C104.533 49.837 104.235 50.7427 104.235 51.908V57H102.886V47.006H104.178V48.963ZM129.583 43.7V57H128.234V46.36L123.009 55.309H122.344L117.119 46.417V57H115.77V43.7H116.929L122.705 53.561L128.424 43.7H129.583ZM137.127 46.93C138.432 46.93 139.432 47.2593 140.129 47.918C140.826 48.564 141.174 49.5267 141.174 50.806V57H139.882V55.442C139.578 55.9613 139.128 56.3667 138.533 56.658C137.95 56.9493 137.254 57.095 136.443 57.095C135.328 57.095 134.442 56.829 133.783 56.297C133.124 55.765 132.795 55.062 132.795 54.188C132.795 53.3393 133.099 52.6553 133.707 52.136C134.328 51.6167 135.309 51.357 136.652 51.357H139.825V50.749C139.825 49.8877 139.584 49.2353 139.103 48.792C138.622 48.336 137.919 48.108 136.994 48.108C136.361 48.108 135.753 48.2157 135.17 48.431C134.587 48.6337 134.087 48.9187 133.669 49.286L133.061 48.279C133.568 47.8483 134.176 47.519 134.885 47.291C135.594 47.0503 136.342 46.93 137.127 46.93ZM136.652 56.031C137.412 56.031 138.064 55.86 138.609 55.518C139.154 55.1633 139.559 54.6567 139.825 53.998V52.364H136.69C134.98 52.364 134.125 52.9593 134.125 54.15C134.125 54.7327 134.347 55.195 134.79 55.537C135.233 55.8663 135.854 56.031 136.652 56.031ZM153.995 42.902V57H152.703V55.024C152.298 55.6953 151.759 56.2083 151.088 56.563C150.429 56.9177 149.682 57.095 148.846 57.095C147.909 57.095 147.06 56.8797 146.3 56.449C145.54 56.0183 144.945 55.4167 144.514 54.644C144.083 53.8713 143.868 52.991 143.868 52.003C143.868 51.015 144.083 50.1347 144.514 49.362C144.945 48.5893 145.54 47.994 146.3 47.576C147.06 47.1453 147.909 46.93 148.846 46.93C149.657 46.93 150.385 47.101 151.031 47.443C151.69 47.7723 152.228 48.26 152.646 48.906V42.902H153.995ZM148.96 55.898C149.657 55.898 150.284 55.7397 150.841 55.423C151.411 55.0937 151.854 54.6313 152.171 54.036C152.5 53.4407 152.665 52.763 152.665 52.003C152.665 51.243 152.5 50.5653 152.171 49.97C151.854 49.3747 151.411 48.9187 150.841 48.602C150.284 48.2727 149.657 48.108 148.96 48.108C148.251 48.108 147.611 48.2727 147.041 48.602C146.484 48.9187 146.04 49.3747 145.711 49.97C145.394 50.5653 145.236 51.243 145.236 52.003C145.236 52.763 145.394 53.4407 145.711 54.036C146.04 54.6313 146.484 55.0937 147.041 55.423C147.611 55.7397 148.251 55.898 148.96 55.898ZM161.248 46.93C162.553 46.93 163.553 47.2593 164.25 47.918C164.947 48.564 165.295 49.5267 165.295 50.806V57H164.003V55.442C163.699 55.9613 163.249 56.3667 162.654 56.658C162.071 56.9493 161.375 57.095 160.564 57.095C159.449 57.095 158.563 56.829 157.904 56.297C157.245 55.765 156.916 55.062 156.916 54.188C156.916 53.3393 157.22 52.6553 157.828 52.136C158.449 51.6167 159.43 51.357 160.773 51.357H163.946V50.749C163.946 49.8877 163.705 49.2353 163.224 48.792C162.743 48.336 162.04 48.108 161.115 48.108C160.482 48.108 159.874 48.2157 159.291 48.431C158.708 48.6337 158.208 48.9187 157.79 49.286L157.182 48.279C157.689 47.8483 158.297 47.519 159.006 47.291C159.715 47.0503 160.463 46.93 161.248 46.93ZM160.773 56.031C161.533 56.031 162.185 55.86 162.73 55.518C163.275 55.1633 163.68 54.6567 163.946 53.998V52.364H160.811C159.101 52.364 158.246 52.9593 158.246 54.15C158.246 54.7327 158.468 55.195 158.911 55.537C159.354 55.8663 159.975 56.031 160.773 56.031ZM181.423 46.93C182.677 46.93 183.659 47.291 184.368 48.013C185.09 48.735 185.451 49.799 185.451 51.205V57H184.102V51.338C184.102 50.2993 183.849 49.5077 183.342 48.963C182.848 48.4183 182.145 48.146 181.233 48.146C180.194 48.146 179.377 48.469 178.782 49.115C178.187 49.7483 177.889 50.6287 177.889 51.756V57H176.54V51.338C176.54 50.2993 176.287 49.5077 175.78 48.963C175.286 48.4183 174.577 48.146 173.652 48.146C172.626 48.146 171.809 48.469 171.201 49.115C170.606 49.7483 170.308 50.6287 170.308 51.756V57H168.959V47.006H170.251V48.83C170.606 48.222 171.1 47.7533 171.733 47.424C172.366 47.0947 173.095 46.93 173.918 46.93C174.754 46.93 175.476 47.1073 176.084 47.462C176.705 47.8167 177.167 48.3423 177.471 49.039C177.838 48.3803 178.364 47.8673 179.048 47.5C179.745 47.12 180.536 46.93 181.423 46.93ZM197.849 52.421H189.489C189.565 53.4597 189.964 54.302 190.686 54.948C191.408 55.5813 192.32 55.898 193.422 55.898C194.042 55.898 194.612 55.7903 195.132 55.575C195.651 55.347 196.101 55.0177 196.481 54.587L197.241 55.461C196.797 55.993 196.24 56.3983 195.569 56.677C194.91 56.9557 194.182 57.095 193.384 57.095C192.358 57.095 191.446 56.8797 190.648 56.449C189.862 56.0057 189.248 55.3977 188.805 54.625C188.361 53.8523 188.14 52.9783 188.14 52.003C188.14 51.0277 188.349 50.1537 188.767 49.381C189.197 48.6083 189.78 48.0067 190.515 47.576C191.262 47.1453 192.098 46.93 193.023 46.93C193.947 46.93 194.777 47.1453 195.512 47.576C196.246 48.0067 196.823 48.6083 197.241 49.381C197.659 50.141 197.868 51.015 197.868 52.003L197.849 52.421ZM193.023 48.089C192.06 48.089 191.249 48.3993 190.591 49.02C189.945 49.628 189.577 50.426 189.489 51.414H196.576C196.487 50.426 196.113 49.628 195.455 49.02C194.809 48.3993 193.998 48.089 193.023 48.089ZM205.377 43.7H206.973L206.688 53.01H205.643L205.377 43.7ZM206.175 57.095C205.896 57.095 205.656 57 205.453 56.81C205.263 56.6073 205.168 56.373 205.168 56.107C205.168 55.8283 205.263 55.6003 205.453 55.423C205.643 55.233 205.884 55.138 206.175 55.138C206.454 55.138 206.688 55.233 206.878 55.423C207.068 55.6003 207.163 55.8283 207.163 56.107C207.163 56.373 207.068 56.6073 206.878 56.81C206.688 57 206.454 57.095 206.175 57.095ZM45.224 66.7L39.334 80H37.947L32.057 66.7H33.577L38.669 78.252L43.799 66.7H45.224ZM50.1935 80.095C49.2309 80.095 48.3632 79.8797 47.5905 79.449C46.8179 79.0057 46.2099 78.3977 45.7665 77.625C45.3232 76.8523 45.1015 75.9783 45.1015 75.003C45.1015 74.0277 45.3232 73.1537 45.7665 72.381C46.2099 71.6083 46.8179 71.0067 47.5905 70.576C48.3632 70.1453 49.2309 69.93 50.1935 69.93C51.1562 69.93 52.0239 70.1453 52.7965 70.576C53.5692 71.0067 54.1709 71.6083 54.6015 72.381C55.0449 73.1537 55.2665 74.0277 55.2665 75.003C55.2665 75.9783 55.0449 76.8523 54.6015 77.625C54.1709 78.3977 53.5692 79.0057 52.7965 79.449C52.0239 79.8797 51.1562 80.095 50.1935 80.095ZM50.1935 78.898C50.9029 78.898 51.5362 78.7397 52.0935 78.423C52.6635 78.0937 53.1069 77.6313 53.4235 77.036C53.7402 76.4407 53.8985 75.763 53.8985 75.003C53.8985 74.243 53.7402 73.5653 53.4235 72.97C53.1069 72.3747 52.6635 71.9187 52.0935 71.602C51.5362 71.2727 50.9029 71.108 50.1935 71.108C49.4842 71.108 48.8445 71.2727 48.2745 71.602C47.7172 71.9187 47.2739 72.3747 46.9445 72.97C46.6279 73.5653 46.4695 74.243 46.4695 75.003C46.4695 75.763 46.6279 76.4407 46.9445 77.036C47.2739 77.6313 47.7172 78.0937 48.2745 78.423C48.8445 78.7397 49.4842 78.898 50.1935 78.898ZM67.0266 70.006V80H65.7346V78.176C65.38 78.784 64.8923 79.259 64.2716 79.601C63.651 79.9303 62.9416 80.095 62.1436 80.095C60.839 80.095 59.8066 79.734 59.0466 79.012C58.2993 78.2773 57.9256 77.207 57.9256 75.801V70.006H59.2746V75.668C59.2746 76.7193 59.5343 77.5173 60.0536 78.062C60.573 78.6067 61.314 78.879 62.2766 78.879C63.328 78.879 64.1576 78.5623 64.7656 77.929C65.3736 77.283 65.6776 76.39 65.6776 75.25V70.006H67.0266ZM73.4838 80.095C72.6732 80.095 71.8942 79.981 71.1468 79.753C70.4122 79.5123 69.8358 79.2147 69.4178 78.86L70.0258 77.796C70.4438 78.1253 70.9695 78.3977 71.6028 78.613C72.2362 78.8157 72.8948 78.917 73.5788 78.917C74.4908 78.917 75.1622 78.7777 75.5928 78.499C76.0362 78.2077 76.2578 77.8023 76.2578 77.283C76.2578 76.9157 76.1375 76.6307 75.8968 76.428C75.6562 76.2127 75.3522 76.0543 74.9848 75.953C74.6175 75.839 74.1298 75.7313 73.5218 75.63C72.7112 75.478 72.0588 75.326 71.5648 75.174C71.0708 75.0093 70.6465 74.737 70.2918 74.357C69.9498 73.977 69.7788 73.4513 69.7788 72.78C69.7788 71.944 70.1272 71.26 70.8238 70.728C71.5205 70.196 72.4895 69.93 73.7308 69.93C74.3768 69.93 75.0228 70.0187 75.6688 70.196C76.3148 70.3607 76.8468 70.5823 77.2648 70.861L76.6758 71.944C75.8525 71.374 74.8708 71.089 73.7308 71.089C72.8695 71.089 72.2172 71.241 71.7738 71.545C71.3432 71.849 71.1278 72.248 71.1278 72.742C71.1278 73.122 71.2482 73.426 71.4888 73.654C71.7422 73.882 72.0525 74.053 72.4198 74.167C72.7872 74.2683 73.2938 74.376 73.9398 74.49C74.7378 74.642 75.3775 74.794 75.8588 74.946C76.3402 75.098 76.7518 75.3577 77.0938 75.725C77.4358 76.0923 77.6068 76.599 77.6068 77.245C77.6068 78.119 77.2395 78.8157 76.5048 79.335C75.7828 79.8417 74.7758 80.095 73.4838 80.095ZM87.7524 80.095C86.9417 80.095 86.1627 79.981 85.4154 79.753C84.6807 79.5123 84.1044 79.2147 83.6864 78.86L84.2944 77.796C84.7124 78.1253 85.238 78.3977 85.8714 78.613C86.5047 78.8157 87.1634 78.917 87.8474 78.917C88.7594 78.917 89.4307 78.7777 89.8614 78.499C90.3047 78.2077 90.5264 77.8023 90.5264 77.283C90.5264 76.9157 90.406 76.6307 90.1654 76.428C89.9247 76.2127 89.6207 76.0543 89.2534 75.953C88.886 75.839 88.3984 75.7313 87.7904 75.63C86.9797 75.478 86.3274 75.326 85.8334 75.174C85.3394 75.0093 84.915 74.737 84.5604 74.357C84.2184 73.977 84.0474 73.4513 84.0474 72.78C84.0474 71.944 84.3957 71.26 85.0924 70.728C85.789 70.196 86.758 69.93 87.9994 69.93C88.6454 69.93 89.2914 70.0187 89.9374 70.196C90.5834 70.3607 91.1154 70.5823 91.5334 70.861L90.9444 71.944C90.121 71.374 89.1394 71.089 87.9994 71.089C87.138 71.089 86.4857 71.241 86.0424 71.545C85.6117 71.849 85.3964 72.248 85.3964 72.742C85.3964 73.122 85.5167 73.426 85.7574 73.654C86.0107 73.882 86.321 74.053 86.6884 74.167C87.0557 74.2683 87.5624 74.376 88.2084 74.49C89.0064 74.642 89.646 74.794 90.1274 74.946C90.6087 75.098 91.0204 75.3577 91.3624 75.725C91.7044 76.0923 91.8754 76.599 91.8754 77.245C91.8754 78.119 91.508 78.8157 90.7734 79.335C90.0514 79.8417 89.0444 80.095 87.7524 80.095ZM103.071 75.421H94.7113C94.7873 76.4597 95.1863 77.302 95.9083 77.948C96.6303 78.5813 97.5423 78.898 98.6443 78.898C99.2649 78.898 99.8349 78.7903 100.354 78.575C100.874 78.347 101.323 78.0177 101.703 77.587L102.463 78.461C102.02 78.993 101.463 79.3983 100.791 79.677C100.133 79.9557 99.4043 80.095 98.6063 80.095C97.5803 80.095 96.6683 79.8797 95.8703 79.449C95.0849 79.0057 94.4706 78.3977 94.0273 77.625C93.5839 76.8523 93.3623 75.9783 93.3623 75.003C93.3623 74.0277 93.5713 73.1537 93.9893 72.381C94.4199 71.6083 95.0026 71.0067 95.7373 70.576C96.4846 70.1453 97.3206 69.93 98.2453 69.93C99.1699 69.93 99.9996 70.1453 100.734 70.576C101.469 71.0067 102.045 71.6083 102.463 72.381C102.881 73.141 103.09 74.015 103.09 75.003L103.071 75.421ZM98.2453 71.089C97.2826 71.089 96.4719 71.3993 95.8133 72.02C95.1673 72.628 94.7999 73.426 94.7113 74.414H101.798C101.71 73.426 101.336 72.628 100.677 72.02C100.031 71.3993 99.2206 71.089 98.2453 71.089ZM118.3 69.93C119.554 69.93 120.536 70.291 121.245 71.013C121.967 71.735 122.328 72.799 122.328 74.205V80H120.979V74.338C120.979 73.2993 120.726 72.5077 120.219 71.963C119.725 71.4183 119.022 71.146 118.11 71.146C117.071 71.146 116.254 71.469 115.659 72.115C115.064 72.7483 114.766 73.6287 114.766 74.756V80H113.417V74.338C113.417 73.2993 113.164 72.5077 112.657 71.963C112.163 71.4183 111.454 71.146 110.529 71.146C109.503 71.146 108.686 71.469 108.078 72.115C107.483 72.7483 107.185 73.6287 107.185 74.756V80H105.836V70.006H107.128V71.83C107.483 71.222 107.977 70.7533 108.61 70.424C109.243 70.0947 109.972 69.93 110.795 69.93C111.631 69.93 112.353 70.1073 112.961 70.462C113.582 70.8167 114.044 71.3423 114.348 72.039C114.715 71.3803 115.241 70.8673 115.925 70.5C116.622 70.12 117.413 69.93 118.3 69.93ZM131.135 69.93C132.073 69.93 132.921 70.1453 133.681 70.576C134.441 70.994 135.037 71.5893 135.467 72.362C135.898 73.1347 136.113 74.015 136.113 75.003C136.113 75.991 135.898 76.8713 135.467 77.644C135.037 78.4167 134.441 79.0183 133.681 79.449C132.921 79.8797 132.073 80.095 131.135 80.095C130.299 80.095 129.546 79.9177 128.874 79.563C128.216 79.2083 127.684 78.6953 127.278 78.024V80H125.986V65.902H127.335V71.906C127.753 71.26 128.285 70.7723 128.931 70.443C129.59 70.101 130.325 69.93 131.135 69.93ZM131.04 78.898C131.737 78.898 132.37 78.7397 132.94 78.423C133.51 78.0937 133.954 77.6313 134.27 77.036C134.6 76.4407 134.764 75.763 134.764 75.003C134.764 74.243 134.6 73.5653 134.27 72.97C133.954 72.3747 133.51 71.9187 132.94 71.602C132.37 71.2727 131.737 71.108 131.04 71.108C130.331 71.108 129.691 71.2727 129.121 71.602C128.564 71.9187 128.121 72.3747 127.791 72.97C127.475 73.5653 127.316 74.243 127.316 75.003C127.316 75.763 127.475 76.4407 127.791 77.036C128.121 77.6313 128.564 78.0937 129.121 78.423C129.691 78.7397 130.331 78.898 131.04 78.898ZM138.863 65.902H140.212V80H138.863V65.902ZM152.668 75.421H144.308C144.384 76.4597 144.783 77.302 145.505 77.948C146.227 78.5813 147.139 78.898 148.241 78.898C148.862 78.898 149.432 78.7903 149.951 78.575C150.47 78.347 150.92 78.0177 151.3 77.587L152.06 78.461C151.617 78.993 151.059 79.3983 150.388 79.677C149.729 79.9557 149.001 80.095 148.203 80.095C147.177 80.095 146.265 79.8797 145.467 79.449C144.682 79.0057 144.067 78.3977 143.624 77.625C143.181 76.8523 142.959 75.9783 142.959 75.003C142.959 74.0277 143.168 73.1537 143.586 72.381C144.017 71.6083 144.599 71.0067 145.334 70.576C146.081 70.1453 146.917 69.93 147.842 69.93C148.767 69.93 149.596 70.1453 150.331 70.576C151.066 71.0067 151.642 71.6083 152.06 72.381C152.478 73.141 152.687 74.015 152.687 75.003L152.668 75.421ZM147.842 71.089C146.879 71.089 146.069 71.3993 145.41 72.02C144.764 72.628 144.397 73.426 144.308 74.414H151.395C151.306 73.426 150.933 72.628 150.274 72.02C149.628 71.3993 148.817 71.089 147.842 71.089ZM162.389 78.879V80H154.257V79.107L160.546 71.146H154.371V70.006H162.275V70.899L155.986 78.879H162.389ZM179.023 70.006V80H177.731V78.176C177.376 78.784 176.888 79.259 176.268 79.601C175.647 79.9303 174.938 80.095 174.14 80.095C172.835 80.095 171.803 79.734 171.043 79.012C170.295 78.2773 169.922 77.207 169.922 75.801V70.006H171.271V75.668C171.271 76.7193 171.53 77.5173 172.05 78.062C172.569 78.6067 173.31 78.879 174.273 78.879C175.324 78.879 176.154 78.5623 176.762 77.929C177.37 77.283 177.674 76.39 177.674 75.25V70.006H179.023ZM187.893 69.93C189.147 69.93 190.141 70.2973 190.876 71.032C191.623 71.754 191.997 72.8117 191.997 74.205V80H190.648V74.338C190.648 73.2993 190.388 72.5077 189.869 71.963C189.35 71.4183 188.609 71.146 187.646 71.146C186.569 71.146 185.714 71.469 185.081 72.115C184.46 72.7483 184.15 73.6287 184.15 74.756V80H182.801V70.006H184.093V71.849C184.46 71.241 184.967 70.7723 185.613 70.443C186.272 70.101 187.032 69.93 187.893 69.93ZM39.03 92.93C39.9673 92.93 40.816 93.1453 41.576 93.576C42.336 93.994 42.9313 94.5893 43.362 95.362C43.7927 96.1347 44.008 97.015 44.008 98.003C44.008 99.0037 43.7927 99.8903 43.362 100.663C42.9313 101.436 42.336 102.037 41.576 102.468C40.8287 102.886 39.98 103.095 39.03 103.095C38.2193 103.095 37.4847 102.93 36.826 102.601C36.18 102.259 35.648 101.765 35.23 101.119V106.686H33.881V93.006H35.173V94.982C35.5783 94.3233 36.1103 93.8167 36.769 93.462C37.4403 93.1073 38.194 92.93 39.03 92.93ZM38.935 101.898C39.6317 101.898 40.265 101.74 40.835 101.423C41.405 101.094 41.8483 100.631 42.165 100.036C42.4943 99.4407 42.659 98.763 42.659 98.003C42.659 97.243 42.4943 96.5717 42.165 95.989C41.8483 95.3937 41.405 94.9313 40.835 94.602C40.265 94.2727 39.6317 94.108 38.935 94.108C38.2257 94.108 37.586 94.2727 37.016 94.602C36.4587 94.9313 36.0153 95.3937 35.686 95.989C35.3693 96.5717 35.211 97.243 35.211 98.003C35.211 98.763 35.3693 99.4407 35.686 100.036C36.0153 100.631 36.4587 101.094 37.016 101.423C37.586 101.74 38.2257 101.898 38.935 101.898ZM55.46 98.421H47.1C47.176 99.4597 47.575 100.302 48.297 100.948C49.019 101.581 49.931 101.898 51.033 101.898C51.6536 101.898 52.2236 101.79 52.743 101.575C53.2623 101.347 53.712 101.018 54.092 100.587L54.852 101.461C54.4086 101.993 53.8513 102.398 53.18 102.677C52.5213 102.956 51.793 103.095 50.995 103.095C49.969 103.095 49.057 102.88 48.259 102.449C47.4736 102.006 46.8593 101.398 46.416 100.625C45.9726 99.8523 45.751 98.9783 45.751 98.003C45.751 97.0277 45.96 96.1537 46.378 95.381C46.8086 94.6083 47.3913 94.0067 48.126 93.576C48.8733 93.1453 49.7093 92.93 50.634 92.93C51.5586 92.93 52.3883 93.1453 53.123 93.576C53.8576 94.0067 54.434 94.6083 54.852 95.381C55.27 96.141 55.479 97.015 55.479 98.003L55.46 98.421ZM50.634 94.089C49.6713 94.089 48.8606 94.3993 48.202 95.02C47.556 95.628 47.1886 96.426 47.1 97.414H54.187C54.0983 96.426 53.7246 95.628 53.066 95.02C52.42 94.3993 51.6093 94.089 50.634 94.089ZM67.2308 93.006V103H65.9387V101.176C65.5841 101.784 65.0964 102.259 64.4758 102.601C63.8551 102.93 63.1458 103.095 62.3478 103.095C61.0431 103.095 60.0108 102.734 59.2508 102.012C58.5034 101.277 58.1298 100.207 58.1298 98.801V93.006H59.4788V98.668C59.4788 99.7193 59.7384 100.517 60.2578 101.062C60.7771 101.607 61.5181 101.879 62.4808 101.879C63.5321 101.879 64.3618 101.562 64.9698 100.929C65.5778 100.283 65.8818 99.39 65.8818 98.25V93.006H67.2308ZM81.1306 92.93C82.0679 92.93 82.9166 93.1453 83.6766 93.576C84.4366 93.994 85.0319 94.5893 85.4626 95.362C85.8933 96.1347 86.1086 97.015 86.1086 98.003C86.1086 99.0037 85.8933 99.8903 85.4626 100.663C85.0319 101.436 84.4366 102.037 83.6766 102.468C82.9293 102.886 82.0806 103.095 81.1306 103.095C80.3199 103.095 79.5853 102.93 78.9266 102.601C78.2806 102.259 77.7486 101.765 77.3306 101.119V106.686H75.9816V93.006H77.2736V94.982C77.6789 94.3233 78.2109 93.8167 78.8696 93.462C79.5409 93.1073 80.2946 92.93 81.1306 92.93ZM81.0356 101.898C81.7323 101.898 82.3656 101.74 82.9356 101.423C83.5056 101.094 83.9489 100.631 84.2656 100.036C84.5949 99.4407 84.7596 98.763 84.7596 98.003C84.7596 97.243 84.5949 96.5717 84.2656 95.989C83.9489 95.3937 83.5056 94.9313 82.9356 94.602C82.3656 94.2727 81.7323 94.108 81.0356 94.108C80.3263 94.108 79.6866 94.2727 79.1166 94.602C78.5593 94.9313 78.1159 95.3937 77.7866 95.989C77.4699 96.5717 77.3116 97.243 77.3116 98.003C77.3116 98.763 77.4699 99.4407 77.7866 100.036C78.1159 100.631 78.5593 101.094 79.1166 101.423C79.6866 101.74 80.3263 101.898 81.0356 101.898ZM97.5605 98.421H89.2005C89.2765 99.4597 89.6755 100.302 90.3975 100.948C91.1195 101.581 92.0315 101.898 93.1335 101.898C93.7542 101.898 94.3242 101.79 94.8435 101.575C95.3629 101.347 95.8125 101.018 96.1925 100.587L96.9525 101.461C96.5092 101.993 95.9519 102.398 95.2805 102.677C94.6219 102.956 93.8935 103.095 93.0955 103.095C92.0695 103.095 91.1575 102.88 90.3595 102.449C89.5742 102.006 88.9599 101.398 88.5165 100.625C88.0732 99.8523 87.8515 98.9783 87.8515 98.003C87.8515 97.0277 88.0605 96.1537 88.4785 95.381C88.9092 94.6083 89.4919 94.0067 90.2265 93.576C90.9739 93.1453 91.8099 92.93 92.7345 92.93C93.6592 92.93 94.4889 93.1453 95.2235 93.576C95.9582 94.0067 96.5345 94.6083 96.9525 95.381C97.3705 96.141 97.5795 97.015 97.5795 98.003L97.5605 98.421ZM92.7345 94.089C91.7719 94.089 90.9612 94.3993 90.3025 95.02C89.6565 95.628 89.2892 96.426 89.2005 97.414H96.2875C96.1989 96.426 95.8252 95.628 95.1665 95.02C94.5205 94.3993 93.7099 94.089 92.7345 94.089ZM101.617 94.963C101.934 94.2917 102.403 93.785 103.023 93.443C103.657 93.101 104.436 92.93 105.36 92.93V94.241L105.037 94.222C103.986 94.222 103.163 94.545 102.567 95.191C101.972 95.837 101.674 96.7427 101.674 97.908V103H100.325V93.006H101.617V94.963ZM116.83 88.902V103H115.538V101.024C115.133 101.695 114.594 102.208 113.923 102.563C113.264 102.918 112.517 103.095 111.681 103.095C110.744 103.095 109.895 102.88 109.135 102.449C108.375 102.018 107.78 101.417 107.349 100.644C106.918 99.8713 106.703 98.991 106.703 98.003C106.703 97.015 106.918 96.1347 107.349 95.362C107.78 94.5893 108.375 93.994 109.135 93.576C109.895 93.1453 110.744 92.93 111.681 92.93C112.492 92.93 113.22 93.101 113.866 93.443C114.525 93.7723 115.063 94.26 115.481 94.906V88.902H116.83ZM111.795 101.898C112.492 101.898 113.119 101.74 113.676 101.423C114.246 101.094 114.689 100.631 115.006 100.036C115.335 99.4407 115.5 98.763 115.5 98.003C115.5 97.243 115.335 96.5653 115.006 95.97C114.689 95.3747 114.246 94.9187 113.676 94.602C113.119 94.2727 112.492 94.108 111.795 94.108C111.086 94.108 110.446 94.2727 109.876 94.602C109.319 94.9187 108.875 95.3747 108.546 95.97C108.229 96.5653 108.071 97.243 108.071 98.003C108.071 98.763 108.229 99.4407 108.546 100.036C108.875 100.631 109.319 101.094 109.876 101.423C110.446 101.74 111.086 101.898 111.795 101.898ZM129.593 93.006V103H128.301V101.176C127.946 101.784 127.459 102.259 126.838 102.601C126.217 102.93 125.508 103.095 124.71 103.095C123.405 103.095 122.373 102.734 121.613 102.012C120.866 101.277 120.492 100.207 120.492 98.801V93.006H121.841V98.668C121.841 99.7193 122.101 100.517 122.62 101.062C123.139 101.607 123.88 101.879 124.843 101.879C125.894 101.879 126.724 101.562 127.332 100.929C127.94 100.283 128.244 99.39 128.244 98.25V93.006H129.593ZM142.073 98.421H133.713C133.789 99.4597 134.188 100.302 134.91 100.948C135.632 101.581 136.544 101.898 137.646 101.898C138.267 101.898 138.837 101.79 139.356 101.575C139.876 101.347 140.325 101.018 140.705 100.587L141.465 101.461C141.022 101.993 140.465 102.398 139.793 102.677C139.135 102.956 138.406 103.095 137.608 103.095C136.582 103.095 135.67 102.88 134.872 102.449C134.087 102.006 133.473 101.398 133.029 100.625C132.586 99.8523 132.364 98.9783 132.364 98.003C132.364 97.0277 132.573 96.1537 132.991 95.381C133.422 94.6083 134.005 94.0067 134.739 93.576C135.487 93.1453 136.323 92.93 137.247 92.93C138.172 92.93 139.002 93.1453 139.736 93.576C140.471 94.0067 141.047 94.6083 141.465 95.381C141.883 96.141 142.092 97.015 142.092 98.003L142.073 98.421ZM137.247 94.089C136.285 94.089 135.474 94.3993 134.815 95.02C134.169 95.628 133.802 96.426 133.713 97.414H140.8C140.712 96.426 140.338 95.628 139.679 95.02C139.033 94.3993 138.223 94.089 137.247 94.089ZM144.971 103.095C144.692 103.095 144.452 102.994 144.249 102.791C144.059 102.588 143.964 102.341 143.964 102.05C143.964 101.759 144.059 101.518 144.249 101.328C144.452 101.125 144.692 101.024 144.971 101.024C145.25 101.024 145.49 101.125 145.693 101.328C145.896 101.518 145.997 101.759 145.997 102.05C145.997 102.341 145.896 102.588 145.693 102.791C145.49 102.994 145.25 103.095 144.971 103.095ZM35.591 126.114C34.831 126.114 34.128 125.949 33.482 125.62C32.836 125.291 32.3103 124.822 31.905 124.214L32.741 123.264C33.4757 124.353 34.432 124.898 35.61 124.898C37.2567 124.898 38.08 123.923 38.08 121.972V113.916H33.216V112.7H39.467V121.915C39.467 123.308 39.1377 124.36 38.479 125.069C37.833 125.766 36.8703 126.114 35.591 126.114ZM52.1016 121.421H43.7416C43.8176 122.46 44.2166 123.302 44.9386 123.948C45.6606 124.581 46.5726 124.898 47.6746 124.898C48.2952 124.898 48.8652 124.79 49.3846 124.575C49.9039 124.347 50.3536 124.018 50.7336 123.587L51.4936 124.461C51.0502 124.993 50.4929 125.398 49.8216 125.677C49.1629 125.956 48.4346 126.095 47.6366 126.095C46.6106 126.095 45.6986 125.88 44.9006 125.449C44.1152 125.006 43.5009 124.398 43.0576 123.625C42.6142 122.852 42.3926 121.978 42.3926 121.003C42.3926 120.028 42.6016 119.154 43.0196 118.381C43.4502 117.608 44.0329 117.007 44.7676 116.576C45.5149 116.145 46.3509 115.93 47.2756 115.93C48.2002 115.93 49.0299 116.145 49.7646 116.576C50.4992 117.007 51.0756 117.608 51.4936 118.381C51.9116 119.141 52.1206 120.015 52.1206 121.003L52.1016 121.421ZM47.2756 117.089C46.3129 117.089 45.5022 117.399 44.8436 118.02C44.1976 118.628 43.8302 119.426 43.7416 120.414H50.8286C50.7399 119.426 50.3662 118.628 49.7076 118.02C49.0616 117.399 48.2509 117.089 47.2756 117.089ZM64.988 115.93C65.9253 115.93 66.774 116.145 67.534 116.576C68.294 116.994 68.8893 117.589 69.32 118.362C69.7507 119.135 69.966 120.015 69.966 121.003C69.966 122.004 69.7507 122.89 69.32 123.663C68.8893 124.436 68.294 125.037 67.534 125.468C66.7867 125.886 65.938 126.095 64.988 126.095C64.1773 126.095 63.4427 125.93 62.784 125.601C62.138 125.259 61.606 124.765 61.188 124.119V129.686H59.839V116.006H61.131V117.982C61.5363 117.323 62.0683 116.817 62.727 116.462C63.3983 116.107 64.152 115.93 64.988 115.93ZM64.893 124.898C65.5897 124.898 66.223 124.74 66.793 124.423C67.363 124.094 67.8063 123.631 68.123 123.036C68.4523 122.441 68.617 121.763 68.617 121.003C68.617 120.243 68.4523 119.572 68.123 118.989C67.8063 118.394 67.363 117.931 66.793 117.602C66.223 117.273 65.5897 117.108 64.893 117.108C64.1837 117.108 63.544 117.273 62.974 117.602C62.4167 117.931 61.9733 118.394 61.644 118.989C61.3273 119.572 61.169 120.243 61.169 121.003C61.169 121.763 61.3273 122.441 61.644 123.036C61.9733 123.631 62.4167 124.094 62.974 124.423C63.544 124.74 64.1837 124.898 64.893 124.898ZM81.418 121.421H73.058C73.134 122.46 73.533 123.302 74.255 123.948C74.977 124.581 75.889 124.898 76.991 124.898C77.6116 124.898 78.1816 124.79 78.701 124.575C79.2203 124.347 79.67 124.018 80.05 123.587L80.81 124.461C80.3666 124.993 79.8093 125.398 79.138 125.677C78.4793 125.956 77.751 126.095 76.953 126.095C75.927 126.095 75.015 125.88 74.217 125.449C73.4316 125.006 72.8173 124.398 72.374 123.625C71.9306 122.852 71.709 121.978 71.709 121.003C71.709 120.028 71.918 119.154 72.336 118.381C72.7666 117.608 73.3493 117.007 74.084 116.576C74.8313 116.145 75.6673 115.93 76.592 115.93C77.5166 115.93 78.3463 116.145 79.081 116.576C79.8156 117.007 80.392 117.608 80.81 118.381C81.228 119.141 81.437 120.015 81.437 121.003L81.418 121.421ZM76.592 117.089C75.6293 117.089 74.8186 117.399 74.16 118.02C73.514 118.628 73.1466 119.426 73.058 120.414H80.145C80.0563 119.426 79.6826 118.628 79.024 118.02C78.378 117.399 77.5673 117.089 76.592 117.089ZM93.1888 116.006V126H91.8968V124.176C91.5421 124.784 91.0544 125.259 90.4338 125.601C89.8131 125.93 89.1038 126.095 88.3058 126.095C87.0011 126.095 85.9688 125.734 85.2088 125.012C84.4614 124.277 84.0878 123.207 84.0878 121.801V116.006H85.4368V121.668C85.4368 122.719 85.6964 123.517 86.2158 124.062C86.7351 124.607 87.4761 124.879 88.4388 124.879C89.4901 124.879 90.3198 124.562 90.9278 123.929C91.5358 123.283 91.8398 122.39 91.8398 121.25V116.006H93.1888ZM103.332 126L100.159 121.82L96.9669 126H95.4469L99.3989 120.87L95.6369 116.006H97.1569L100.159 119.92L103.161 116.006H104.643L100.881 120.87L104.871 126H103.332ZM117.238 115.93C118.175 115.93 119.024 116.145 119.784 116.576C120.544 116.994 121.139 117.589 121.57 118.362C122.001 119.135 122.216 120.015 122.216 121.003C122.216 122.004 122.001 122.89 121.57 123.663C121.139 124.436 120.544 125.037 119.784 125.468C119.037 125.886 118.188 126.095 117.238 126.095C116.427 126.095 115.693 125.93 115.034 125.601C114.388 125.259 113.856 124.765 113.438 124.119V129.686H112.089V116.006H113.381V117.982C113.786 117.323 114.318 116.817 114.977 116.462C115.648 116.107 116.402 115.93 117.238 115.93ZM117.143 124.898C117.84 124.898 118.473 124.74 119.043 124.423C119.613 124.094 120.056 123.631 120.373 123.036C120.702 122.441 120.867 121.763 120.867 121.003C120.867 120.243 120.702 119.572 120.373 118.989C120.056 118.394 119.613 117.931 119.043 117.602C118.473 117.273 117.84 117.108 117.143 117.108C116.434 117.108 115.794 117.273 115.224 117.602C114.667 117.931 114.223 118.394 113.894 118.989C113.577 119.572 113.419 120.243 113.419 121.003C113.419 121.763 113.577 122.441 113.894 123.036C114.223 123.631 114.667 124.094 115.224 124.423C115.794 124.74 116.434 124.898 117.143 124.898ZM133.668 121.421H125.308C125.384 122.46 125.783 123.302 126.505 123.948C127.227 124.581 128.139 124.898 129.241 124.898C129.862 124.898 130.432 124.79 130.951 124.575C131.47 124.347 131.92 124.018 132.3 123.587L133.06 124.461C132.617 124.993 132.059 125.398 131.388 125.677C130.729 125.956 130.001 126.095 129.203 126.095C128.177 126.095 127.265 125.88 126.467 125.449C125.682 125.006 125.067 124.398 124.624 123.625C124.181 122.852 123.959 121.978 123.959 121.003C123.959 120.028 124.168 119.154 124.586 118.381C125.017 117.608 125.599 117.007 126.334 116.576C127.081 116.145 127.917 115.93 128.842 115.93C129.767 115.93 130.596 116.145 131.331 116.576C132.066 117.007 132.642 117.608 133.06 118.381C133.478 119.141 133.687 120.015 133.687 121.003L133.668 121.421ZM128.842 117.089C127.879 117.089 127.069 117.399 126.41 118.02C125.764 118.628 125.397 119.426 125.308 120.414H132.395C132.306 119.426 131.933 118.628 131.274 118.02C130.628 117.399 129.817 117.089 128.842 117.089ZM145.439 116.006V126H144.147V124.176C143.792 124.784 143.304 125.259 142.684 125.601C142.063 125.93 141.354 126.095 140.556 126.095C139.251 126.095 138.219 125.734 137.459 125.012C136.711 124.277 136.338 123.207 136.338 121.801V116.006H137.687V121.668C137.687 122.719 137.946 123.517 138.466 124.062C138.985 124.607 139.726 124.879 140.689 124.879C141.74 124.879 142.57 124.562 143.178 123.929C143.786 123.283 144.09 122.39 144.09 121.25V116.006H145.439ZM154.48 125.392C154.227 125.62 153.91 125.797 153.53 125.924C153.163 126.038 152.776 126.095 152.371 126.095C151.434 126.095 150.712 125.842 150.205 125.335C149.698 124.828 149.445 124.113 149.445 123.188V117.146H147.659V116.006H149.445V113.821H150.794V116.006H153.834V117.146H150.794V123.112C150.794 123.707 150.94 124.163 151.231 124.48C151.535 124.784 151.966 124.936 152.523 124.936C152.802 124.936 153.068 124.892 153.321 124.803C153.587 124.714 153.815 124.588 154.005 124.423L154.48 125.392ZM156.009 120.262H160.987V121.44H156.009V120.262ZM172.893 121.421H164.533C164.609 122.46 165.008 123.302 165.73 123.948C166.452 124.581 167.364 124.898 168.466 124.898C169.086 124.898 169.656 124.79 170.176 124.575C170.695 124.347 171.145 124.018 171.525 123.587L172.285 124.461C171.841 124.993 171.284 125.398 170.613 125.677C169.954 125.956 169.226 126.095 168.428 126.095C167.402 126.095 166.49 125.88 165.692 125.449C164.906 125.006 164.292 124.398 163.849 123.625C163.405 122.852 163.184 121.978 163.184 121.003C163.184 120.028 163.393 119.154 163.811 118.381C164.241 117.608 164.824 117.007 165.559 116.576C166.306 116.145 167.142 115.93 168.067 115.93C168.991 115.93 169.821 116.145 170.556 116.576C171.29 117.007 171.867 117.608 172.285 118.381C172.703 119.141 172.912 120.015 172.912 121.003L172.893 121.421ZM168.067 117.089C167.104 117.089 166.293 117.399 165.635 118.02C164.989 118.628 164.621 119.426 164.533 120.414H171.62C171.531 119.426 171.157 118.628 170.499 118.02C169.853 117.399 169.042 117.089 168.067 117.089ZM169.948 114.448L168.067 112.871L166.186 114.448H164.932L167.383 112.092H168.751L171.202 114.448H169.948ZM180.92 125.392C180.667 125.62 180.35 125.797 179.97 125.924C179.603 126.038 179.217 126.095 178.811 126.095C177.874 126.095 177.152 125.842 176.645 125.335C176.139 124.828 175.885 124.113 175.885 123.188V117.146H174.099V116.006H175.885V113.821H177.234V116.006H180.274V117.146H177.234V123.112C177.234 123.707 177.38 124.163 177.671 124.48C177.975 124.784 178.406 124.936 178.963 124.936C179.242 124.936 179.508 124.892 179.761 124.803C180.027 124.714 180.255 124.588 180.445 124.423L180.92 125.392ZM184.668 117.963C184.985 117.292 185.453 116.785 186.074 116.443C186.707 116.101 187.486 115.93 188.411 115.93V117.241L188.088 117.222C187.037 117.222 186.213 117.545 185.618 118.191C185.023 118.837 184.725 119.743 184.725 120.908V126H183.376V116.006H184.668V117.963ZM199.463 121.421H191.103C191.179 122.46 191.578 123.302 192.3 123.948C193.022 124.581 193.934 124.898 195.036 124.898C195.657 124.898 196.227 124.79 196.746 124.575C197.265 124.347 197.715 124.018 198.095 123.587L198.855 124.461C198.412 124.993 197.854 125.398 197.183 125.677C196.524 125.956 195.796 126.095 194.998 126.095C193.972 126.095 193.06 125.88 192.262 125.449C191.477 125.006 190.862 124.398 190.419 123.625C189.976 122.852 189.754 121.978 189.754 121.003C189.754 120.028 189.963 119.154 190.381 118.381C190.812 117.608 191.394 117.007 192.129 116.576C192.876 116.145 193.712 115.93 194.637 115.93C195.562 115.93 196.391 116.145 197.126 116.576C197.861 117.007 198.437 117.608 198.855 118.381C199.273 119.141 199.482 120.015 199.482 121.003L199.463 121.421ZM194.637 117.089C193.674 117.089 192.864 117.399 192.205 118.02C191.559 118.628 191.192 119.426 191.103 120.414H198.19C198.101 119.426 197.728 118.628 197.069 118.02C196.423 117.399 195.612 117.089 194.637 117.089ZM215.598 116.006L211.152 126H209.765L205.338 116.006H206.744L210.487 124.518L214.268 116.006H215.598ZM221.305 126.095C220.342 126.095 219.475 125.88 218.702 125.449C217.929 125.006 217.321 124.398 216.878 123.625C216.435 122.852 216.213 121.978 216.213 121.003C216.213 120.028 216.435 119.154 216.878 118.381C217.321 117.608 217.929 117.007 218.702 116.576C219.475 116.145 220.342 115.93 221.305 115.93C222.268 115.93 223.135 116.145 223.908 116.576C224.681 117.007 225.282 117.608 225.713 118.381C226.156 119.154 226.378 120.028 226.378 121.003C226.378 121.978 226.156 122.852 225.713 123.625C225.282 124.398 224.681 125.006 223.908 125.449C223.135 125.88 222.268 126.095 221.305 126.095ZM221.305 124.898C222.014 124.898 222.648 124.74 223.205 124.423C223.775 124.094 224.218 123.631 224.535 123.036C224.852 122.441 225.01 121.763 225.01 121.003C225.01 120.243 224.852 119.565 224.535 118.97C224.218 118.375 223.775 117.919 223.205 117.602C222.648 117.273 222.014 117.108 221.305 117.108C220.596 117.108 219.956 117.273 219.386 117.602C218.829 117.919 218.385 118.375 218.056 118.97C217.739 119.565 217.581 120.243 217.581 121.003C217.581 121.763 217.739 122.441 218.056 123.036C218.385 123.631 218.829 124.094 219.386 124.423C219.956 124.74 220.596 124.898 221.305 124.898ZM238.138 116.006V126H236.846V124.176C236.491 124.784 236.004 125.259 235.383 125.601C234.762 125.93 234.053 126.095 233.255 126.095C231.95 126.095 230.918 125.734 230.158 125.012C229.411 124.277 229.037 123.207 229.037 121.801V116.006H230.386V121.668C230.386 122.719 230.646 123.517 231.165 124.062C231.684 124.607 232.425 124.879 233.388 124.879C234.439 124.879 235.269 124.562 235.877 123.929C236.485 123.283 236.789 122.39 236.789 121.25V116.006H238.138ZM244.595 126.095C243.784 126.095 243.005 125.981 242.258 125.753C241.523 125.512 240.947 125.215 240.529 124.86L241.137 123.796C241.555 124.125 242.081 124.398 242.714 124.613C243.347 124.816 244.006 124.917 244.69 124.917C245.602 124.917 246.273 124.778 246.704 124.499C247.147 124.208 247.369 123.802 247.369 123.283C247.369 122.916 247.249 122.631 247.008 122.428C246.767 122.213 246.463 122.054 246.096 121.953C245.729 121.839 245.241 121.731 244.633 121.63C243.822 121.478 243.17 121.326 242.676 121.174C242.182 121.009 241.758 120.737 241.403 120.357C241.061 119.977 240.89 119.451 240.89 118.78C240.89 117.944 241.238 117.26 241.935 116.728C242.632 116.196 243.601 115.93 244.842 115.93C245.488 115.93 246.134 116.019 246.78 116.196C247.426 116.361 247.958 116.582 248.376 116.861L247.787 117.944C246.964 117.374 245.982 117.089 244.842 117.089C243.981 117.089 243.328 117.241 242.885 117.545C242.454 117.849 242.239 118.248 242.239 118.742C242.239 119.122 242.359 119.426 242.6 119.654C242.853 119.882 243.164 120.053 243.531 120.167C243.898 120.268 244.405 120.376 245.051 120.49C245.849 120.642 246.489 120.794 246.97 120.946C247.451 121.098 247.863 121.358 248.205 121.725C248.547 122.092 248.718 122.599 248.718 123.245C248.718 124.119 248.351 124.816 247.616 125.335C246.894 125.842 245.887 126.095 244.595 126.095ZM37.377 138.93C38.6817 138.93 39.6823 139.259 40.379 139.918C41.0757 140.564 41.424 141.527 41.424 142.806V149H40.132V147.442C39.828 147.961 39.3783 148.367 38.783 148.658C38.2003 148.949 37.5037 149.095 36.693 149.095C35.5783 149.095 34.6917 148.829 34.033 148.297C33.3743 147.765 33.045 147.062 33.045 146.188C33.045 145.339 33.349 144.655 33.957 144.136C34.5777 143.617 35.5593 143.357 36.902 143.357H40.075V142.749C40.075 141.888 39.8343 141.235 39.353 140.792C38.8717 140.336 38.1687 140.108 37.244 140.108C36.6107 140.108 36.0027 140.216 35.42 140.431C34.8373 140.634 34.337 140.919 33.919 141.286L33.311 140.279C33.8177 139.848 34.4257 139.519 35.135 139.291C35.8443 139.05 36.5917 138.93 37.377 138.93ZM36.902 148.031C37.662 148.031 38.3143 147.86 38.859 147.518C39.4037 147.163 39.809 146.657 40.075 145.998V144.364H36.94C35.23 144.364 34.375 144.959 34.375 146.15C34.375 146.733 34.5967 147.195 35.04 147.537C35.4833 147.866 36.104 148.031 36.902 148.031ZM45.088 139.006H46.437V149H45.088V139.006ZM45.772 136.821C45.4934 136.821 45.259 136.726 45.069 136.536C44.879 136.346 44.784 136.118 44.784 135.852C44.784 135.599 44.879 135.377 45.069 135.187C45.259 134.997 45.4934 134.902 45.772 134.902C46.0507 134.902 46.285 134.997 46.475 135.187C46.665 135.364 46.76 135.58 46.76 135.833C46.76 136.112 46.665 136.346 46.475 136.536C46.285 136.726 46.0507 136.821 45.772 136.821ZM59.3106 134.902V149H58.0186V147.024C57.6132 147.695 57.0749 148.208 56.4036 148.563C55.7449 148.918 54.9976 149.095 54.1616 149.095C53.2242 149.095 52.3756 148.88 51.6156 148.449C50.8556 148.018 50.2602 147.417 49.8296 146.644C49.3989 145.871 49.1836 144.991 49.1836 144.003C49.1836 143.015 49.3989 142.135 49.8296 141.362C50.2602 140.589 50.8556 139.994 51.6156 139.576C52.3756 139.145 53.2242 138.93 54.1616 138.93C54.9722 138.93 55.7006 139.101 56.3466 139.443C57.0052 139.772 57.5436 140.26 57.9616 140.906V134.902H59.3106ZM54.2756 147.898C54.9722 147.898 55.5992 147.74 56.1566 147.423C56.7266 147.094 57.1699 146.631 57.4866 146.036C57.8159 145.441 57.9806 144.763 57.9806 144.003C57.9806 143.243 57.8159 142.565 57.4866 141.97C57.1699 141.375 56.7266 140.919 56.1566 140.602C55.5992 140.273 54.9722 140.108 54.2756 140.108C53.5662 140.108 52.9266 140.273 52.3566 140.602C51.7992 140.919 51.3559 141.375 51.0266 141.97C50.7099 142.565 50.5516 143.243 50.5516 144.003C50.5516 144.763 50.7099 145.441 51.0266 146.036C51.3559 146.631 51.7992 147.094 52.3566 147.423C52.9266 147.74 53.5662 147.898 54.2756 147.898ZM71.7695 144.421H63.4095C63.4855 145.46 63.8845 146.302 64.6065 146.948C65.3285 147.581 66.2405 147.898 67.3425 147.898C67.9632 147.898 68.5332 147.79 69.0525 147.575C69.5719 147.347 70.0215 147.018 70.4015 146.587L71.1615 147.461C70.7182 147.993 70.1609 148.398 69.4895 148.677C68.8309 148.956 68.1025 149.095 67.3045 149.095C66.2785 149.095 65.3665 148.88 64.5685 148.449C63.7832 148.006 63.1689 147.398 62.7255 146.625C62.2822 145.852 62.0605 144.978 62.0605 144.003C62.0605 143.028 62.2695 142.154 62.6875 141.381C63.1182 140.608 63.7009 140.007 64.4355 139.576C65.1829 139.145 66.0189 138.93 66.9435 138.93C67.8682 138.93 68.6979 139.145 69.4325 139.576C70.1672 140.007 70.7435 140.608 71.1615 141.381C71.5795 142.141 71.7885 143.015 71.7885 144.003L71.7695 144.421ZM66.9435 140.089C65.9809 140.089 65.1702 140.399 64.5115 141.02C63.8655 141.628 63.4982 142.426 63.4095 143.414H70.4965C70.4079 142.426 70.0342 141.628 69.3755 141.02C68.7295 140.399 67.9189 140.089 66.9435 140.089ZM75.8263 140.963C76.143 140.292 76.6117 139.785 77.2323 139.443C77.8657 139.101 78.6447 138.93 79.5693 138.93V140.241L79.2463 140.222C78.195 140.222 77.3717 140.545 76.7763 141.191C76.181 141.837 75.8833 142.743 75.8833 143.908V149H74.5343V139.006H75.8263V140.963ZM89.717 145.01C89.717 144.491 89.7993 144.035 89.964 143.642C90.1413 143.249 90.3566 142.914 90.61 142.635C90.8633 142.356 91.1926 142.04 91.598 141.685C92.1426 141.204 92.5416 140.786 92.795 140.431C93.061 140.064 93.194 139.62 93.194 139.101C93.194 138.404 92.9216 137.847 92.377 137.429C91.8323 136.998 91.085 136.783 90.135 136.783C88.5643 136.783 87.3546 137.296 86.506 138.322L85.499 137.562C86.5756 136.245 88.1526 135.586 90.23 135.586C91.56 135.586 92.6176 135.884 93.403 136.479C94.201 137.074 94.6 137.879 94.6 138.892C94.6 139.411 94.5113 139.874 94.334 140.279C94.1693 140.672 93.9603 141.007 93.707 141.286C93.4663 141.565 93.1433 141.888 92.738 142.255C92.1933 142.749 91.788 143.192 91.522 143.585C91.256 143.965 91.123 144.44 91.123 145.01H89.717ZM90.42 149.095C90.1413 149.095 89.907 149 89.717 148.81C89.527 148.607 89.432 148.373 89.432 148.107C89.432 147.828 89.527 147.6 89.717 147.423C89.907 147.233 90.1413 147.138 90.42 147.138C90.7113 147.138 90.952 147.233 91.142 147.423C91.332 147.6 91.427 147.828 91.427 148.107C91.427 148.373 91.3256 148.607 91.123 148.81C90.933 149 90.6986 149.095 90.42 149.095Z" fill="white"/>
</svg>
