<svg width="278" height="230" viewBox="0 0 278 230" fill="none" xmlns="http://www.w3.org/2000/svg">
<path d="M251.229 186.667H104.464L50.9216 228.598C45.9816 232.644 39.2888 227.311 40.8823 220.506L48.5313 186.851H28.7715C13.9516 186.851 2.15942 173.058 2.15942 155.771V31.0805C2.15942 13.9771 14.1109 0 28.7715 0H251.388C266.208 0 278 13.7931 278 31.0805V155.771C278 172.874 265.889 186.667 251.229 186.667Z" fill="#F1B705"/>
<path d="M251.229 0H191.63C187.806 86.9887 125.658 155.954 49.6466 155.954C32.9145 155.954 16.8199 152.644 2 146.575V155.771C2 172.874 13.9515 186.851 28.612 186.851H48.2125L40.5635 220.506C38.9699 227.311 45.5035 232.644 50.6028 228.598L104.145 186.667H250.91C265.73 186.667 277.522 172.874 277.522 155.587V30.8966C278 13.7931 265.889 0 251.229 0Z" fill="#EEAD07"/>
<path d="M2 31.0161V155.984C2 173.148 15.9058 187 32.9858 187H247.014C264.094 187 278 173.148 278 155.984V31.0161C278 13.8519 264.094 0 247.014 0H32.9858C15.9058 0.150564 2 14.0024 2 31.0161Z" fill="#F1B705"/>
<path d="M0 31.2208V157.627C0 174.989 14.0066 189 31.2103 189H158.183H178.786C188.859 189 191.377 189 204.471 189H223.801H246.79C263.993 189 278 174.989 278 157.627V148.185C260.644 154.429 241.918 157.779 222.278 157.779C193.504 157.779 166.404 150.469 142.806 137.524C141.436 136.762 140.218 136.153 139 135.392C91.8039 107.978 59.2234 57.8727 56.483 0H31.2103C14.0066 0 0 14.0113 0 31.2208Z" fill="#EEAD07"/>
<path d="M49.545 73.141C50.419 73.331 51.0903 73.711 51.559 74.281C52.0403 74.8383 52.281 75.5603 52.281 76.447C52.281 77.587 51.8567 78.4673 51.008 79.088C50.172 79.696 48.9307 80 47.284 80H41.166V66.7H46.904C48.386 66.7 49.5323 66.9977 50.343 67.593C51.1663 68.1883 51.578 69.0307 51.578 70.12C51.578 70.8547 51.3943 71.4817 51.027 72.001C50.6723 72.5077 50.1783 72.8877 49.545 73.141ZM42.572 67.859V72.685H46.809C47.8857 72.685 48.7153 72.4823 49.298 72.077C49.8807 71.659 50.172 71.0573 50.172 70.272C50.172 69.4867 49.8807 68.8913 49.298 68.486C48.7153 68.068 47.8857 67.859 46.809 67.859H42.572ZM47.265 78.841C48.4557 78.841 49.355 78.6383 49.963 78.233C50.571 77.8277 50.875 77.1943 50.875 76.333C50.875 74.6737 49.6717 73.844 47.265 73.844H42.572V78.841H47.265ZM59.2902 80.095C58.3276 80.095 57.4599 79.8797 56.6872 79.449C55.9146 79.0057 55.3066 78.3977 54.8632 77.625C54.4199 76.8523 54.1982 75.9783 54.1982 75.003C54.1982 74.0277 54.4199 73.1537 54.8632 72.381C55.3066 71.6083 55.9146 71.0067 56.6872 70.576C57.4599 70.1453 58.3276 69.93 59.2902 69.93C60.2529 69.93 61.1206 70.1453 61.8932 70.576C62.6659 71.0067 63.2676 71.6083 63.6982 72.381C64.1416 73.1537 64.3632 74.0277 64.3632 75.003C64.3632 75.9783 64.1416 76.8523 63.6982 77.625C63.2676 78.3977 62.6659 79.0057 61.8932 79.449C61.1206 79.8797 60.2529 80.095 59.2902 80.095ZM59.2902 78.898C59.9996 78.898 60.6329 78.7397 61.1902 78.423C61.7602 78.0937 62.2036 77.6313 62.5202 77.036C62.8369 76.4407 62.9952 75.763 62.9952 75.003C62.9952 74.243 62.8369 73.5653 62.5202 72.97C62.2036 72.3747 61.7602 71.9187 61.1902 71.602C60.6329 71.2727 59.9996 71.108 59.2902 71.108C58.5809 71.108 57.9412 71.2727 57.3712 71.602C56.8139 71.9187 56.3706 72.3747 56.0412 72.97C55.7246 73.5653 55.5662 74.243 55.5662 75.003C55.5662 75.763 55.7246 76.4407 56.0412 77.036C56.3706 77.6313 56.8139 78.0937 57.3712 78.423C57.9412 78.7397 58.5809 78.898 59.2902 78.898ZM72.2093 69.93C73.4633 69.93 74.4577 70.2973 75.1923 71.032C75.9397 71.754 76.3133 72.8117 76.3133 74.205V80H74.9643V74.338C74.9643 73.2993 74.7047 72.5077 74.1853 71.963C73.666 71.4183 72.925 71.146 71.9623 71.146C70.8857 71.146 70.0307 71.469 69.3973 72.115C68.7767 72.7483 68.4663 73.6287 68.4663 74.756V80H67.1173V70.006H68.4093V71.849C68.7767 71.241 69.2833 70.7723 69.9293 70.443C70.588 70.101 71.348 69.93 72.2093 69.93ZM78.4937 83.781C78.0757 83.781 77.6831 83.724 77.3157 83.61C76.9357 83.5087 76.6254 83.3503 76.3847 83.135L76.8597 82.109C77.2524 82.451 77.7717 82.622 78.4177 82.622C78.9497 82.622 79.3551 82.4637 79.6337 82.147C79.9251 81.8303 80.0707 81.3617 80.0707 80.741V70.006H81.4197V80.741C81.4197 81.6783 81.1664 82.4193 80.6597 82.964C80.1531 83.5087 79.4311 83.781 78.4937 83.781ZM80.7547 67.802C80.4761 67.802 80.2417 67.707 80.0517 67.517C79.8617 67.327 79.7667 67.099 79.7667 66.833C79.7667 66.5797 79.8617 66.358 80.0517 66.168C80.2417 65.978 80.4761 65.883 80.7547 65.883C81.0334 65.883 81.2677 65.978 81.4577 66.168C81.6477 66.3453 81.7427 66.5607 81.7427 66.814C81.7427 67.0927 81.6477 67.327 81.4577 67.517C81.2677 67.707 81.0334 67.802 80.7547 67.802ZM89.2746 80.095C88.3119 80.095 87.4443 79.8797 86.6716 79.449C85.8989 79.0057 85.2909 78.3977 84.8476 77.625C84.4043 76.8523 84.1826 75.9783 84.1826 75.003C84.1826 74.0277 84.4043 73.1537 84.8476 72.381C85.2909 71.6083 85.8989 71.0067 86.6716 70.576C87.4443 70.1453 88.3119 69.93 89.2746 69.93C90.2373 69.93 91.1049 70.1453 91.8776 70.576C92.6503 71.0067 93.2519 71.6083 93.6826 72.381C94.1259 73.1537 94.3476 74.0277 94.3476 75.003C94.3476 75.9783 94.1259 76.8523 93.6826 77.625C93.2519 78.3977 92.6503 79.0057 91.8776 79.449C91.1049 79.8797 90.2373 80.095 89.2746 80.095ZM89.2746 78.898C89.9839 78.898 90.6173 78.7397 91.1746 78.423C91.7446 78.0937 92.1879 77.6313 92.5046 77.036C92.8213 76.4407 92.9796 75.763 92.9796 75.003C92.9796 74.243 92.8213 73.5653 92.5046 72.97C92.1879 72.3747 91.7446 71.9187 91.1746 71.602C90.6173 71.2727 89.9839 71.108 89.2746 71.108C88.5653 71.108 87.9256 71.2727 87.3556 71.602C86.7983 71.9187 86.3549 72.3747 86.0256 72.97C85.7089 73.5653 85.5506 74.243 85.5506 75.003C85.5506 75.763 85.7089 76.4407 86.0256 77.036C86.3549 77.6313 86.7983 78.0937 87.3556 78.423C87.9256 78.7397 88.5653 78.898 89.2746 78.898ZM106.108 70.006V80H104.816V78.176C104.461 78.784 103.973 79.259 103.353 79.601C102.732 79.9303 102.023 80.095 101.225 80.095C99.92 80.095 98.8877 79.734 98.1277 79.012C97.3804 78.2773 97.0067 77.207 97.0067 75.801V70.006H98.3557V75.668C98.3557 76.7193 98.6154 77.5173 99.1347 78.062C99.654 78.6067 100.395 78.879 101.358 78.879C102.409 78.879 103.239 78.5623 103.847 77.929C104.455 77.283 104.759 76.39 104.759 75.25V70.006H106.108ZM111.178 71.963C111.495 71.2917 111.963 70.785 112.584 70.443C113.217 70.101 113.996 69.93 114.921 69.93V71.241L114.598 71.222C113.547 71.222 112.723 71.545 112.128 72.191C111.533 72.837 111.235 73.7427 111.235 74.908V80H109.886V70.006H111.178V71.963ZM130.883 70.006L126.437 80H125.05L120.623 70.006H122.029L125.772 78.518L129.553 70.006H130.883ZM136.589 80.095C135.626 80.095 134.759 79.8797 133.986 79.449C133.213 79.0057 132.605 78.3977 132.162 77.625C131.719 76.8523 131.497 75.9783 131.497 75.003C131.497 74.0277 131.719 73.1537 132.162 72.381C132.605 71.6083 133.213 71.0067 133.986 70.576C134.759 70.1453 135.626 69.93 136.589 69.93C137.552 69.93 138.419 70.1453 139.192 70.576C139.965 71.0067 140.566 71.6083 140.997 72.381C141.44 73.1537 141.662 74.0277 141.662 75.003C141.662 75.9783 141.44 76.8523 140.997 77.625C140.566 78.3977 139.965 79.0057 139.192 79.449C138.419 79.8797 137.552 80.095 136.589 80.095ZM136.589 78.898C137.298 78.898 137.932 78.7397 138.489 78.423C139.059 78.0937 139.502 77.6313 139.819 77.036C140.136 76.4407 140.294 75.763 140.294 75.003C140.294 74.243 140.136 73.5653 139.819 72.97C139.502 72.3747 139.059 71.9187 138.489 71.602C137.932 71.2727 137.298 71.108 136.589 71.108C135.88 71.108 135.24 71.2727 134.67 71.602C134.113 71.9187 133.669 72.3747 133.34 72.97C133.023 73.5653 132.865 74.243 132.865 75.003C132.865 75.763 133.023 76.4407 133.34 77.036C133.669 77.6313 134.113 78.0937 134.67 78.423C135.24 78.7397 135.88 78.898 136.589 78.898ZM153.422 70.006V80H152.13V78.176C151.775 78.784 151.288 79.259 150.667 79.601C150.046 79.9303 149.337 80.095 148.539 80.095C147.234 80.095 146.202 79.734 145.442 79.012C144.695 78.2773 144.321 77.207 144.321 75.801V70.006H145.67V75.668C145.67 76.7193 145.93 77.5173 146.449 78.062C146.968 78.6067 147.709 78.879 148.672 78.879C149.723 78.879 150.553 78.5623 151.161 77.929C151.769 77.283 152.073 76.39 152.073 75.25V70.006H153.422ZM159.879 80.095C159.069 80.095 158.29 79.981 157.542 79.753C156.808 79.5123 156.231 79.2147 155.813 78.86L156.421 77.796C156.839 78.1253 157.365 78.3977 157.998 78.613C158.632 78.8157 159.29 78.917 159.974 78.917C160.886 78.917 161.558 78.7777 161.988 78.499C162.432 78.2077 162.653 77.8023 162.653 77.283C162.653 76.9157 162.533 76.6307 162.292 76.428C162.052 76.2127 161.748 76.0543 161.38 75.953C161.013 75.839 160.525 75.7313 159.917 75.63C159.107 75.478 158.454 75.326 157.96 75.174C157.466 75.0093 157.042 74.737 156.687 74.357C156.345 73.977 156.174 73.4513 156.174 72.78C156.174 71.944 156.523 71.26 157.219 70.728C157.916 70.196 158.885 69.93 160.126 69.93C160.772 69.93 161.418 70.0187 162.064 70.196C162.71 70.3607 163.242 70.5823 163.66 70.861L163.071 71.944C162.248 71.374 161.266 71.089 160.126 71.089C159.265 71.089 158.613 71.241 158.169 71.545C157.739 71.849 157.523 72.248 157.523 72.742C157.523 73.122 157.644 73.426 157.884 73.654C158.138 73.882 158.448 74.053 158.815 74.167C159.183 74.2683 159.689 74.376 160.335 74.49C161.133 74.642 161.773 74.794 162.254 74.946C162.736 75.098 163.147 75.3577 163.489 75.725C163.831 76.0923 164.002 76.599 164.002 77.245C164.002 78.119 163.635 78.8157 162.9 79.335C162.178 79.8417 161.171 80.095 159.879 80.095ZM174.965 69.93C176.27 69.93 177.27 70.2593 177.967 70.918C178.664 71.564 179.012 72.5267 179.012 73.806V80H177.72V78.442C177.416 78.9613 176.966 79.3667 176.371 79.658C175.788 79.9493 175.092 80.095 174.281 80.095C173.166 80.095 172.28 79.829 171.621 79.297C170.962 78.765 170.633 78.062 170.633 77.188C170.633 76.3393 170.937 75.6553 171.545 75.136C172.166 74.6167 173.147 74.357 174.49 74.357H177.663V73.749C177.663 72.8877 177.422 72.2353 176.941 71.792C176.46 71.336 175.757 71.108 174.832 71.108C174.199 71.108 173.591 71.2157 173.008 71.431C172.425 71.6337 171.925 71.9187 171.507 72.286L170.899 71.279C171.406 70.8483 172.014 70.519 172.723 70.291C173.432 70.0503 174.18 69.93 174.965 69.93ZM174.49 79.031C175.25 79.031 175.902 78.86 176.447 78.518C176.992 78.1633 177.397 77.6567 177.663 76.998V75.364H174.528C172.818 75.364 171.963 75.9593 171.963 77.15C171.963 77.7327 172.185 78.195 172.628 78.537C173.071 78.8663 173.692 79.031 174.49 79.031ZM190.888 70.006L186.442 80H185.055L180.628 70.006H182.034L185.777 78.518L189.558 70.006H190.888ZM201.212 75.421H192.852C192.928 76.4597 193.327 77.302 194.049 77.948C194.771 78.5813 195.683 78.898 196.785 78.898C197.406 78.898 197.976 78.7903 198.495 78.575C199.014 78.347 199.464 78.0177 199.844 77.587L200.604 78.461C200.161 78.993 199.603 79.3983 198.932 79.677C198.273 79.9557 197.545 80.095 196.747 80.095C195.721 80.095 194.809 79.8797 194.011 79.449C193.226 79.0057 192.611 78.3977 192.168 77.625C191.725 76.8523 191.503 75.9783 191.503 75.003C191.503 74.0277 191.712 73.1537 192.13 72.381C192.561 71.6083 193.143 71.0067 193.878 70.576C194.625 70.1453 195.461 69.93 196.386 69.93C197.311 69.93 198.14 70.1453 198.875 70.576C199.61 71.0067 200.186 71.6083 200.604 72.381C201.022 73.141 201.231 74.015 201.231 75.003L201.212 75.421ZM196.386 71.089C195.423 71.089 194.613 71.3993 193.954 72.02C193.308 72.628 192.941 73.426 192.852 74.414H199.939C199.85 73.426 199.477 72.628 198.818 72.02C198.172 71.3993 197.361 71.089 196.386 71.089ZM210.933 78.879V80H202.801V79.107L209.09 71.146H202.915V70.006H210.819V70.899L204.53 78.879H210.933ZM218.561 65.902H219.91V80H218.561V65.902ZM223.815 65.807C224.107 65.807 224.347 65.9083 224.537 66.111C224.727 66.301 224.822 66.5417 224.822 66.833C224.822 66.985 224.797 67.1497 224.746 67.327C224.708 67.4917 224.651 67.688 224.575 67.916L223.758 70.538H222.846L223.511 67.802C223.296 67.7387 223.125 67.6247 222.998 67.46C222.872 67.2827 222.808 67.0737 222.808 66.833C222.808 66.529 222.903 66.282 223.093 66.092C223.283 65.902 223.524 65.807 223.815 65.807ZM231 69.93C232.305 69.93 233.305 70.2593 234.002 70.918C234.699 71.564 235.047 72.5267 235.047 73.806V80H233.755V78.442C233.451 78.9613 233.001 79.3667 232.406 79.658C231.823 79.9493 231.127 80.095 230.316 80.095C229.201 80.095 228.315 79.829 227.656 79.297C226.997 78.765 226.668 78.062 226.668 77.188C226.668 76.3393 226.972 75.6553 227.58 75.136C228.201 74.6167 229.182 74.357 230.525 74.357H233.698V73.749C233.698 72.8877 233.457 72.2353 232.976 71.792C232.495 71.336 231.792 71.108 230.867 71.108C230.234 71.108 229.626 71.2157 229.043 71.431C228.46 71.6337 227.96 71.9187 227.542 72.286L226.934 71.279C227.441 70.8483 228.049 70.519 228.758 70.291C229.467 70.0503 230.215 69.93 231 69.93ZM230.525 79.031C231.285 79.031 231.937 78.86 232.482 78.518C233.027 78.1633 233.432 77.6567 233.698 76.998V75.364H230.563C228.853 75.364 227.998 75.9593 227.998 77.15C227.998 77.7327 228.22 78.195 228.663 78.537C229.106 78.8663 229.727 79.031 230.525 79.031ZM238.711 70.006H240.06V80H238.711V70.006ZM239.395 67.821C239.116 67.821 238.882 67.726 238.692 67.536C238.502 67.346 238.407 67.118 238.407 66.852C238.407 66.5987 238.502 66.377 238.692 66.187C238.882 65.997 239.116 65.902 239.395 65.902C239.674 65.902 239.908 65.997 240.098 66.187C240.288 66.3643 240.383 66.5797 240.383 66.833C240.383 67.1117 240.288 67.346 240.098 67.536C239.908 67.726 239.674 67.821 239.395 67.821ZM245.106 71.963C245.422 71.2917 245.891 70.785 246.512 70.443C247.145 70.101 247.924 69.93 248.849 69.93V71.241L248.526 71.222C247.474 71.222 246.651 71.545 246.056 72.191C245.46 72.837 245.163 73.7427 245.163 74.908V80H243.814V70.006H245.106V71.963ZM49.887 93.006V103H48.595V101.176C48.2403 101.784 47.7527 102.259 47.132 102.601C46.5113 102.93 45.802 103.095 45.004 103.095C43.6993 103.095 42.667 102.734 41.907 102.012C41.1597 101.277 40.786 100.207 40.786 98.801V93.006H42.135V98.668C42.135 99.7193 42.3947 100.517 42.914 101.062C43.4333 101.607 44.1743 101.879 45.137 101.879C46.1883 101.879 47.018 101.562 47.626 100.929C48.234 100.283 48.538 99.39 48.538 98.25V93.006H49.887ZM58.7572 92.93C60.0112 92.93 61.0055 93.2973 61.7402 94.032C62.4875 94.754 62.8612 95.8117 62.8612 97.205V103H61.5122V97.338C61.5122 96.2993 61.2525 95.5077 60.7332 94.963C60.2138 94.4183 59.4728 94.146 58.5102 94.146C57.4335 94.146 56.5785 94.469 55.9452 95.115C55.3245 95.7483 55.0142 96.6287 55.0142 97.756V103H53.6652V93.006H54.9572V94.849C55.3245 94.241 55.8312 93.7723 56.4772 93.443C57.1358 93.101 57.8958 92.93 58.7572 92.93ZM76.6452 92.93C77.5826 92.93 78.4312 93.1453 79.1912 93.576C79.9512 93.994 80.5466 94.5893 80.9772 95.362C81.4079 96.1347 81.6232 97.015 81.6232 98.003C81.6232 99.0037 81.4079 99.8903 80.9772 100.663C80.5466 101.436 79.9512 102.037 79.1912 102.468C78.4439 102.886 77.5952 103.095 76.6452 103.095C75.8346 103.095 75.0999 102.93 74.4412 102.601C73.7952 102.259 73.2632 101.765 72.8452 101.119V106.686H71.4962V93.006H72.7882V94.982C73.1936 94.3233 73.7256 93.8167 74.3842 93.462C75.0556 93.1073 75.8092 92.93 76.6452 92.93ZM76.5502 101.898C77.2469 101.898 77.8802 101.74 78.4502 101.423C79.0202 101.094 79.4636 100.631 79.7802 100.036C80.1096 99.4407 80.2742 98.763 80.2742 98.003C80.2742 97.243 80.1096 96.5717 79.7802 95.989C79.4636 95.3937 79.0202 94.9313 78.4502 94.602C77.8802 94.2727 77.2469 94.108 76.5502 94.108C75.8409 94.108 75.2012 94.2727 74.6312 94.602C74.0739 94.9313 73.6306 95.3937 73.3012 95.989C72.9846 96.5717 72.8262 97.243 72.8262 98.003C72.8262 98.763 72.9846 99.4407 73.3012 100.036C73.6306 100.631 74.0739 101.094 74.6312 101.423C75.2012 101.74 75.8409 101.898 76.5502 101.898ZM93.0752 98.421H84.7152C84.7912 99.4597 85.1902 100.302 85.9122 100.948C86.6342 101.581 87.5462 101.898 88.6482 101.898C89.2689 101.898 89.8389 101.79 90.3582 101.575C90.8775 101.347 91.3272 101.018 91.7072 100.587L92.4672 101.461C92.0239 101.993 91.4665 102.398 90.7952 102.677C90.1365 102.956 89.4082 103.095 88.6102 103.095C87.5842 103.095 86.6722 102.88 85.8742 102.449C85.0889 102.006 84.4745 101.398 84.0312 100.625C83.5879 99.8523 83.3662 98.9783 83.3662 98.003C83.3662 97.0277 83.5752 96.1537 83.9932 95.381C84.4239 94.6083 85.0065 94.0067 85.7412 93.576C86.4885 93.1453 87.3245 92.93 88.2492 92.93C89.1739 92.93 90.0035 93.1453 90.7382 93.576C91.4729 94.0067 92.0492 94.6083 92.4672 95.381C92.8852 96.141 93.0942 97.015 93.0942 98.003L93.0752 98.421ZM88.2492 94.089C87.2865 94.089 86.4759 94.3993 85.8172 95.02C85.1712 95.628 84.8039 96.426 84.7152 97.414H91.8022C91.7135 96.426 91.3399 95.628 90.6812 95.02C90.0352 94.3993 89.2245 94.089 88.2492 94.089ZM104.846 93.006V103H103.554V101.176C103.199 101.784 102.712 102.259 102.091 102.601C101.47 102.93 100.761 103.095 99.963 103.095C98.6583 103.095 97.626 102.734 96.866 102.012C96.1187 101.277 95.745 100.207 95.745 98.801V93.006H97.094V98.668C97.094 99.7193 97.3537 100.517 97.873 101.062C98.3923 101.607 99.1333 101.879 100.096 101.879C101.147 101.879 101.977 101.562 102.585 100.929C103.193 100.283 103.497 99.39 103.497 98.25V93.006H104.846ZM118.746 92.93C119.683 92.93 120.532 93.1453 121.292 93.576C122.052 93.994 122.647 94.5893 123.078 95.362C123.508 96.1347 123.724 97.015 123.724 98.003C123.724 99.0037 123.508 99.8903 123.078 100.663C122.647 101.436 122.052 102.037 121.292 102.468C120.544 102.886 119.696 103.095 118.746 103.095C117.935 103.095 117.2 102.93 116.542 102.601C115.896 102.259 115.364 101.765 114.946 101.119V106.686H113.597V93.006H114.889V94.982C115.294 94.3233 115.826 93.8167 116.485 93.462C117.156 93.1073 117.91 92.93 118.746 92.93ZM118.651 101.898C119.347 101.898 119.981 101.74 120.551 101.423C121.121 101.094 121.564 100.631 121.881 100.036C122.21 99.4407 122.375 98.763 122.375 98.003C122.375 97.243 122.21 96.5717 121.881 95.989C121.564 95.3937 121.121 94.9313 120.551 94.602C119.981 94.2727 119.347 94.108 118.651 94.108C117.941 94.108 117.302 94.2727 116.732 94.602C116.174 94.9313 115.731 95.3937 115.402 95.989C115.085 96.5717 114.927 97.243 114.927 98.003C114.927 98.763 115.085 99.4407 115.402 100.036C115.731 100.631 116.174 101.094 116.732 101.423C117.302 101.74 117.941 101.898 118.651 101.898ZM135.176 98.421H126.816C126.892 99.4597 127.291 100.302 128.013 100.948C128.735 101.581 129.647 101.898 130.749 101.898C131.369 101.898 131.939 101.79 132.459 101.575C132.978 101.347 133.428 101.018 133.808 100.587L134.568 101.461C134.124 101.993 133.567 102.398 132.896 102.677C132.237 102.956 131.509 103.095 130.711 103.095C129.685 103.095 128.773 102.88 127.975 102.449C127.189 102.006 126.575 101.398 126.132 100.625C125.688 99.8523 125.467 98.9783 125.467 98.003C125.467 97.0277 125.676 96.1537 126.094 95.381C126.524 94.6083 127.107 94.0067 127.842 93.576C128.589 93.1453 129.425 92.93 130.35 92.93C131.274 92.93 132.104 93.1453 132.839 93.576C133.573 94.0067 134.15 94.6083 134.568 95.381C134.986 96.141 135.195 97.015 135.195 98.003L135.176 98.421ZM130.35 94.089C129.387 94.089 128.576 94.3993 127.918 95.02C127.272 95.628 126.904 96.426 126.816 97.414H133.903C133.814 96.426 133.44 95.628 132.782 95.02C132.136 94.3993 131.325 94.089 130.35 94.089ZM139.233 94.963C139.549 94.2917 140.018 93.785 140.639 93.443C141.272 93.101 142.051 92.93 142.976 92.93V94.241L142.653 94.222C141.601 94.222 140.778 94.545 140.183 95.191C139.587 95.837 139.29 96.7427 139.29 97.908V103H137.941V93.006H139.233V94.963ZM154.445 88.902V103H153.153V101.024C152.748 101.695 152.21 102.208 151.538 102.563C150.88 102.918 150.132 103.095 149.296 103.095C148.359 103.095 147.51 102.88 146.75 102.449C145.99 102.018 145.395 101.417 144.964 100.644C144.534 99.8713 144.318 98.991 144.318 98.003C144.318 97.015 144.534 96.1347 144.964 95.362C145.395 94.5893 145.99 93.994 146.75 93.576C147.51 93.1453 148.359 92.93 149.296 92.93C150.107 92.93 150.835 93.101 151.481 93.443C152.14 93.7723 152.678 94.26 153.096 94.906V88.902H154.445ZM149.41 101.898C150.107 101.898 150.734 101.74 151.291 101.423C151.861 101.094 152.305 100.631 152.621 100.036C152.951 99.4407 153.115 98.763 153.115 98.003C153.115 97.243 152.951 96.5653 152.621 95.97C152.305 95.3747 151.861 94.9187 151.291 94.602C150.734 94.2727 150.107 94.108 149.41 94.108C148.701 94.108 148.061 94.2727 147.491 94.602C146.934 94.9187 146.491 95.3747 146.161 95.97C145.845 96.5653 145.686 97.243 145.686 98.003C145.686 98.763 145.845 99.4407 146.161 100.036C146.491 100.631 146.934 101.094 147.491 101.423C148.061 101.74 148.701 101.898 149.41 101.898ZM167.208 93.006V103H165.916V101.176C165.562 101.784 165.074 102.259 164.453 102.601C163.833 102.93 163.123 103.095 162.325 103.095C161.021 103.095 159.988 102.734 159.228 102.012C158.481 101.277 158.107 100.207 158.107 98.801V93.006H159.456V98.668C159.456 99.7193 159.716 100.517 160.235 101.062C160.755 101.607 161.496 101.879 162.458 101.879C163.51 101.879 164.339 101.562 164.947 100.929C165.555 100.283 165.859 99.39 165.859 98.25V93.006H167.208ZM171.119 103.095C170.841 103.095 170.6 102.994 170.397 102.791C170.207 102.588 170.112 102.341 170.112 102.05C170.112 101.759 170.207 101.518 170.397 101.328C170.6 101.125 170.841 101.024 171.119 101.024C171.398 101.024 171.639 101.125 171.841 101.328C172.044 101.518 172.145 101.759 172.145 102.05C172.145 102.341 172.044 102.588 171.841 102.791C171.639 102.994 171.398 103.095 171.119 103.095ZM181.695 103.114C180.935 103.114 180.232 102.949 179.586 102.62C178.94 102.291 178.415 101.822 178.009 101.214L178.845 100.264C179.58 101.353 180.536 101.898 181.714 101.898C183.361 101.898 184.184 100.923 184.184 98.972V90.916H179.32V89.7H185.571V98.915C185.571 100.308 185.242 101.36 184.583 102.069C183.937 102.766 182.975 103.114 181.695 103.114ZM198.206 98.421H189.846C189.922 99.4597 190.321 100.302 191.043 100.948C191.765 101.581 192.677 101.898 193.779 101.898C194.4 101.898 194.97 101.79 195.489 101.575C196.008 101.347 196.458 101.018 196.838 100.587L197.598 101.461C197.155 101.993 196.597 102.398 195.926 102.677C195.267 102.956 194.539 103.095 193.741 103.095C192.715 103.095 191.803 102.88 191.005 102.449C190.22 102.006 189.605 101.398 189.162 100.625C188.719 99.8523 188.497 98.9783 188.497 98.003C188.497 97.0277 188.706 96.1537 189.124 95.381C189.555 94.6083 190.137 94.0067 190.872 93.576C191.619 93.1453 192.455 92.93 193.38 92.93C194.305 92.93 195.134 93.1453 195.869 93.576C196.604 94.0067 197.18 94.6083 197.598 95.381C198.016 96.141 198.225 97.015 198.225 98.003L198.206 98.421ZM193.38 94.089C192.417 94.089 191.607 94.3993 190.948 95.02C190.302 95.628 189.935 96.426 189.846 97.414H196.933C196.844 96.426 196.471 95.628 195.812 95.02C195.166 94.3993 194.355 94.089 193.38 94.089ZM211.093 92.93C212.03 92.93 212.879 93.1453 213.639 93.576C214.399 93.994 214.994 94.5893 215.425 95.362C215.855 96.1347 216.071 97.015 216.071 98.003C216.071 99.0037 215.855 99.8903 215.425 100.663C214.994 101.436 214.399 102.037 213.639 102.468C212.891 102.886 212.043 103.095 211.093 103.095C210.282 103.095 209.547 102.93 208.889 102.601C208.243 102.259 207.711 101.765 207.293 101.119V106.686H205.944V93.006H207.236V94.982C207.641 94.3233 208.173 93.8167 208.832 93.462C209.503 93.1073 210.257 92.93 211.093 92.93ZM210.998 101.898C211.694 101.898 212.328 101.74 212.898 101.423C213.468 101.094 213.911 100.631 214.228 100.036C214.557 99.4407 214.722 98.763 214.722 98.003C214.722 97.243 214.557 96.5717 214.228 95.989C213.911 95.3937 213.468 94.9313 212.898 94.602C212.328 94.2727 211.694 94.108 210.998 94.108C210.288 94.108 209.649 94.2727 209.078 94.602C208.521 94.9313 208.078 95.3937 207.749 95.989C207.432 96.5717 207.274 97.243 207.274 98.003C207.274 98.763 207.432 99.4407 207.749 100.036C208.078 100.631 208.521 101.094 209.078 101.423C209.649 101.74 210.288 101.898 210.998 101.898ZM227.522 98.421H219.162C219.238 99.4597 219.637 100.302 220.359 100.948C221.081 101.581 221.993 101.898 223.095 101.898C223.716 101.898 224.286 101.79 224.805 101.575C225.325 101.347 225.774 101.018 226.154 100.587L226.914 101.461C226.471 101.993 225.914 102.398 225.242 102.677C224.584 102.956 223.855 103.095 223.057 103.095C222.031 103.095 221.119 102.88 220.321 102.449C219.536 102.006 218.922 101.398 218.478 100.625C218.035 99.8523 217.813 98.9783 217.813 98.003C217.813 97.0277 218.022 96.1537 218.44 95.381C218.871 94.6083 219.454 94.0067 220.188 93.576C220.936 93.1453 221.772 92.93 222.696 92.93C223.621 92.93 224.451 93.1453 225.185 93.576C225.92 94.0067 226.496 94.6083 226.914 95.381C227.332 96.141 227.541 97.015 227.541 98.003L227.522 98.421ZM222.696 94.089C221.734 94.089 220.923 94.3993 220.264 95.02C219.618 95.628 219.251 96.426 219.162 97.414H226.249C226.161 96.426 225.787 95.628 225.128 95.02C224.482 94.3993 223.672 94.089 222.696 94.089ZM239.293 93.006V103H238.001V101.176C237.647 101.784 237.159 102.259 236.538 102.601C235.918 102.93 235.208 103.095 234.41 103.095C233.106 103.095 232.073 102.734 231.313 102.012C230.566 101.277 230.192 100.207 230.192 98.801V93.006H231.541V98.668C231.541 99.7193 231.801 100.517 232.32 101.062C232.84 101.607 233.581 101.879 234.543 101.879C235.595 101.879 236.424 101.562 237.032 100.929C237.64 100.283 237.944 99.39 237.944 98.25V93.006H239.293ZM249.436 103L246.263 98.82L243.071 103H241.551L245.503 97.87L241.741 93.006H243.261L246.263 96.92L249.265 93.006H250.747L246.985 97.87L250.975 103H249.436ZM46.03 115.93C46.9673 115.93 47.816 116.145 48.576 116.576C49.336 116.994 49.9313 117.589 50.362 118.362C50.7927 119.135 51.008 120.015 51.008 121.003C51.008 122.004 50.7927 122.89 50.362 123.663C49.9313 124.436 49.336 125.037 48.576 125.468C47.8287 125.886 46.98 126.095 46.03 126.095C45.2193 126.095 44.4847 125.93 43.826 125.601C43.18 125.259 42.648 124.765 42.23 124.119V129.686H40.881V116.006H42.173V117.982C42.5783 117.323 43.1103 116.817 43.769 116.462C44.4403 116.107 45.194 115.93 46.03 115.93ZM45.935 124.898C46.6317 124.898 47.265 124.74 47.835 124.423C48.405 124.094 48.8483 123.631 49.165 123.036C49.4943 122.441 49.659 121.763 49.659 121.003C49.659 120.243 49.4943 119.572 49.165 118.989C48.8483 118.394 48.405 117.931 47.835 117.602C47.265 117.273 46.6317 117.108 45.935 117.108C45.2257 117.108 44.586 117.273 44.016 117.602C43.4587 117.931 43.0153 118.394 42.686 118.989C42.3693 119.572 42.211 120.243 42.211 121.003C42.211 121.763 42.3693 122.441 42.686 123.036C43.0153 123.631 43.4587 124.094 44.016 124.423C44.586 124.74 45.2257 124.898 45.935 124.898ZM62.46 121.421H54.1C54.176 122.46 54.575 123.302 55.297 123.948C56.019 124.581 56.931 124.898 58.033 124.898C58.6536 124.898 59.2236 124.79 59.743 124.575C60.2623 124.347 60.712 124.018 61.092 123.587L61.852 124.461C61.4086 124.993 60.8513 125.398 60.18 125.677C59.5213 125.956 58.793 126.095 57.995 126.095C56.969 126.095 56.057 125.88 55.259 125.449C54.4736 125.006 53.8593 124.398 53.416 123.625C52.9726 122.852 52.751 121.978 52.751 121.003C52.751 120.028 52.96 119.154 53.378 118.381C53.8086 117.608 54.3913 117.007 55.126 116.576C55.8733 116.145 56.7093 115.93 57.634 115.93C58.5586 115.93 59.3883 116.145 60.123 116.576C60.8576 117.007 61.434 117.608 61.852 118.381C62.27 119.141 62.479 120.015 62.479 121.003L62.46 121.421ZM57.634 117.089C56.6713 117.089 55.8606 117.399 55.202 118.02C54.556 118.628 54.1886 119.426 54.1 120.414H61.187C61.0983 119.426 60.7246 118.628 60.066 118.02C59.42 117.399 58.6093 117.089 57.634 117.089ZM74.2308 116.006V126H72.9387V124.176C72.5841 124.784 72.0964 125.259 71.4758 125.601C70.8551 125.93 70.1458 126.095 69.3478 126.095C68.0431 126.095 67.0108 125.734 66.2508 125.012C65.5034 124.277 65.1298 123.207 65.1298 121.801V116.006H66.4788V121.668C66.4788 122.719 66.7384 123.517 67.2578 124.062C67.7771 124.607 68.5181 124.879 69.4808 124.879C70.5321 124.879 71.3618 124.562 71.9698 123.929C72.5778 123.283 72.8818 122.39 72.8818 121.25V116.006H74.2308ZM83.2719 125.392C83.0186 125.62 82.7019 125.797 82.3219 125.924C81.9546 126.038 81.5683 126.095 81.1629 126.095C80.2256 126.095 79.5036 125.842 78.9969 125.335C78.4903 124.828 78.2369 124.113 78.2369 123.188V117.146H76.4509V116.006H78.2369V113.821H79.5859V116.006H82.6259V117.146H79.5859V123.112C79.5859 123.707 79.7316 124.163 80.0229 124.48C80.3269 124.784 80.7576 124.936 81.3149 124.936C81.5936 124.936 81.8596 124.892 82.1129 124.803C82.3789 124.714 82.6069 124.588 82.7969 124.423L83.2719 125.392ZM99.4023 121.421H91.0423C91.1183 122.46 91.5173 123.302 92.2393 123.948C92.9613 124.581 93.8733 124.898 94.9753 124.898C95.596 124.898 96.166 124.79 96.6853 124.575C97.2047 124.347 97.6543 124.018 98.0343 123.587L98.7943 124.461C98.351 124.993 97.7937 125.398 97.1223 125.677C96.4637 125.956 95.7353 126.095 94.9373 126.095C93.9113 126.095 92.9993 125.88 92.2013 125.449C91.416 125.006 90.8017 124.398 90.3583 123.625C89.915 122.852 89.6933 121.978 89.6933 121.003C89.6933 120.028 89.9023 119.154 90.3203 118.381C90.751 117.608 91.3337 117.007 92.0683 116.576C92.8157 116.145 93.6517 115.93 94.5763 115.93C95.501 115.93 96.3307 116.145 97.0653 116.576C97.8 117.007 98.3763 117.608 98.7943 118.381C99.2123 119.141 99.4213 120.015 99.4213 121.003L99.4023 121.421ZM94.5763 117.089C93.6137 117.089 92.803 117.399 92.1443 118.02C91.4983 118.628 91.131 119.426 91.0423 120.414H98.1293C98.0407 119.426 97.667 118.628 97.0083 118.02C96.3623 117.399 95.5517 117.089 94.5763 117.089ZM96.4573 114.448L94.5763 112.871L92.6953 114.448H91.4413L93.8923 112.092H95.2603L97.7113 114.448H96.4573ZM107.43 125.392C107.177 125.62 106.86 125.797 106.48 125.924C106.113 126.038 105.726 126.095 105.321 126.095C104.384 126.095 103.662 125.842 103.155 125.335C102.648 124.828 102.395 124.113 102.395 123.188V117.146H100.609V116.006H102.395V113.821H103.744V116.006H106.784V117.146H103.744V123.112C103.744 123.707 103.89 124.163 104.181 124.48C104.485 124.784 104.916 124.936 105.473 124.936C105.752 124.936 106.018 124.892 106.271 124.803C106.537 124.714 106.765 124.588 106.955 124.423L107.43 125.392ZM111.178 117.963C111.495 117.292 111.963 116.785 112.584 116.443C113.217 116.101 113.996 115.93 114.921 115.93V117.241L114.598 117.222C113.547 117.222 112.723 117.545 112.128 118.191C111.533 118.837 111.235 119.743 111.235 120.908V126H109.886V116.006H111.178V117.963ZM125.973 121.421H117.613C117.689 122.46 118.088 123.302 118.81 123.948C119.532 124.581 120.444 124.898 121.546 124.898C122.166 124.898 122.736 124.79 123.256 124.575C123.775 124.347 124.225 124.018 124.605 123.587L125.365 124.461C124.921 124.993 124.364 125.398 123.693 125.677C123.034 125.956 122.306 126.095 121.508 126.095C120.482 126.095 119.57 125.88 118.772 125.449C117.986 125.006 117.372 124.398 116.929 123.625C116.485 122.852 116.264 121.978 116.264 121.003C116.264 120.028 116.473 119.154 116.891 118.381C117.321 117.608 117.904 117.007 118.639 116.576C119.386 116.145 120.222 115.93 121.147 115.93C122.071 115.93 122.901 116.145 123.636 116.576C124.37 117.007 124.947 117.608 125.365 118.381C125.783 119.141 125.992 120.015 125.992 121.003L125.973 121.421ZM121.147 117.089C120.184 117.089 119.373 117.399 118.715 118.02C118.069 118.628 117.701 119.426 117.613 120.414H124.7C124.611 119.426 124.237 118.628 123.579 118.02C122.933 117.399 122.122 117.089 121.147 117.089ZM142.108 116.006L137.662 126H136.275L131.848 116.006H133.254L136.997 124.518L140.778 116.006H142.108ZM147.815 126.095C146.852 126.095 145.984 125.88 145.212 125.449C144.439 125.006 143.831 124.398 143.388 123.625C142.944 122.852 142.723 121.978 142.723 121.003C142.723 120.028 142.944 119.154 143.388 118.381C143.831 117.608 144.439 117.007 145.212 116.576C145.984 116.145 146.852 115.93 147.815 115.93C148.777 115.93 149.645 116.145 150.418 116.576C151.19 117.007 151.792 117.608 152.223 118.381C152.666 119.154 152.888 120.028 152.888 121.003C152.888 121.978 152.666 122.852 152.223 123.625C151.792 124.398 151.19 125.006 150.418 125.449C149.645 125.88 148.777 126.095 147.815 126.095ZM147.815 124.898C148.524 124.898 149.157 124.74 149.715 124.423C150.285 124.094 150.728 123.631 151.045 123.036C151.361 122.441 151.52 121.763 151.52 121.003C151.52 120.243 151.361 119.565 151.045 118.97C150.728 118.375 150.285 117.919 149.715 117.602C149.157 117.273 148.524 117.108 147.815 117.108C147.105 117.108 146.466 117.273 145.896 117.602C145.338 117.919 144.895 118.375 144.566 118.97C144.249 119.565 144.091 120.243 144.091 121.003C144.091 121.763 144.249 122.441 144.566 123.036C144.895 123.631 145.338 124.094 145.896 124.423C146.466 124.74 147.105 124.898 147.815 124.898ZM164.648 116.006V126H163.356V124.176C163.001 124.784 162.513 125.259 161.893 125.601C161.272 125.93 160.563 126.095 159.765 126.095C158.46 126.095 157.428 125.734 156.668 125.012C155.92 124.277 155.547 123.207 155.547 121.801V116.006H156.896V121.668C156.896 122.719 157.155 123.517 157.675 124.062C158.194 124.607 158.935 124.879 159.898 124.879C160.949 124.879 161.779 124.562 162.387 123.929C162.995 123.283 163.299 122.39 163.299 121.25V116.006H164.648ZM171.105 126.095C170.294 126.095 169.515 125.981 168.768 125.753C168.033 125.512 167.457 125.215 167.039 124.86L167.647 123.796C168.065 124.125 168.591 124.398 169.224 124.613C169.857 124.816 170.516 124.917 171.2 124.917C172.112 124.917 172.783 124.778 173.214 124.499C173.657 124.208 173.879 123.802 173.879 123.283C173.879 122.916 173.759 122.631 173.518 122.428C173.277 122.213 172.973 122.054 172.606 121.953C172.239 121.839 171.751 121.731 171.143 121.63C170.332 121.478 169.68 121.326 169.186 121.174C168.692 121.009 168.268 120.737 167.913 120.357C167.571 119.977 167.4 119.451 167.4 118.78C167.4 117.944 167.748 117.26 168.445 116.728C169.142 116.196 170.111 115.93 171.352 115.93C171.998 115.93 172.644 116.019 173.29 116.196C173.936 116.361 174.468 116.582 174.886 116.861L174.297 117.944C173.474 117.374 172.492 117.089 171.352 117.089C170.491 117.089 169.838 117.241 169.395 117.545C168.964 117.849 168.749 118.248 168.749 118.742C168.749 119.122 168.869 119.426 169.11 119.654C169.363 119.882 169.674 120.053 170.041 120.167C170.408 120.268 170.915 120.376 171.561 120.49C172.359 120.642 172.999 120.794 173.48 120.946C173.961 121.098 174.373 121.358 174.715 121.725C175.057 122.092 175.228 122.599 175.228 123.245C175.228 124.119 174.861 124.816 174.126 125.335C173.404 125.842 172.397 126.095 171.105 126.095ZM186.19 115.93C187.495 115.93 188.496 116.259 189.192 116.918C189.889 117.564 190.237 118.527 190.237 119.806V126H188.945V124.442C188.641 124.961 188.192 125.367 187.596 125.658C187.014 125.949 186.317 126.095 185.506 126.095C184.392 126.095 183.505 125.829 182.846 125.297C182.188 124.765 181.858 124.062 181.858 123.188C181.858 122.339 182.162 121.655 182.77 121.136C183.391 120.617 184.373 120.357 185.715 120.357H188.888V119.749C188.888 118.888 188.648 118.235 188.166 117.792C187.685 117.336 186.982 117.108 186.057 117.108C185.424 117.108 184.816 117.216 184.233 117.431C183.651 117.634 183.15 117.919 182.732 118.286L182.124 117.279C182.631 116.848 183.239 116.519 183.948 116.291C184.658 116.05 185.405 115.93 186.19 115.93ZM185.715 125.031C186.475 125.031 187.128 124.86 187.672 124.518C188.217 124.163 188.622 123.657 188.888 122.998V121.364H185.753C184.043 121.364 183.188 121.959 183.188 123.15C183.188 123.733 183.41 124.195 183.853 124.537C184.297 124.866 184.917 125.031 185.715 125.031ZM193.902 116.006H195.251V126H193.902V116.006ZM194.586 113.821C194.307 113.821 194.073 113.726 193.883 113.536C193.693 113.346 193.598 113.118 193.598 112.852C193.598 112.599 193.693 112.377 193.883 112.187C194.073 111.997 194.307 111.902 194.586 111.902C194.864 111.902 195.099 111.997 195.289 112.187C195.479 112.364 195.574 112.58 195.574 112.833C195.574 113.112 195.479 113.346 195.289 113.536C195.099 113.726 194.864 113.821 194.586 113.821ZM208.124 111.902V126H206.832V124.024C206.427 124.695 205.888 125.208 205.217 125.563C204.558 125.918 203.811 126.095 202.975 126.095C202.038 126.095 201.189 125.88 200.429 125.449C199.669 125.018 199.074 124.417 198.643 123.644C198.212 122.871 197.997 121.991 197.997 121.003C197.997 120.015 198.212 119.135 198.643 118.362C199.074 117.589 199.669 116.994 200.429 116.576C201.189 116.145 202.038 115.93 202.975 115.93C203.786 115.93 204.514 116.101 205.16 116.443C205.819 116.772 206.357 117.26 206.775 117.906V111.902H208.124ZM203.089 124.898C203.786 124.898 204.413 124.74 204.97 124.423C205.54 124.094 205.983 123.631 206.3 123.036C206.629 122.441 206.794 121.763 206.794 121.003C206.794 120.243 206.629 119.565 206.3 118.97C205.983 118.375 205.54 117.919 204.97 117.602C204.413 117.273 203.786 117.108 203.089 117.108C202.38 117.108 201.74 117.273 201.17 117.602C200.613 117.919 200.169 118.375 199.84 118.97C199.523 119.565 199.365 120.243 199.365 121.003C199.365 121.763 199.523 122.441 199.84 123.036C200.169 123.631 200.613 124.094 201.17 124.423C201.74 124.74 202.38 124.898 203.089 124.898ZM220.583 121.421H212.223C212.299 122.46 212.698 123.302 213.42 123.948C214.142 124.581 215.054 124.898 216.156 124.898C216.777 124.898 217.347 124.79 217.866 124.575C218.385 124.347 218.835 124.018 219.215 123.587L219.975 124.461C219.532 124.993 218.974 125.398 218.303 125.677C217.644 125.956 216.916 126.095 216.118 126.095C215.092 126.095 214.18 125.88 213.382 125.449C212.597 125.006 211.982 124.398 211.539 123.625C211.096 122.852 210.874 121.978 210.874 121.003C210.874 120.028 211.083 119.154 211.501 118.381C211.932 117.608 212.514 117.007 213.249 116.576C213.996 116.145 214.832 115.93 215.757 115.93C216.682 115.93 217.511 116.145 218.246 116.576C218.981 117.007 219.557 117.608 219.975 118.381C220.393 119.141 220.602 120.015 220.602 121.003L220.583 121.421ZM215.757 117.089C214.794 117.089 213.984 117.399 213.325 118.02C212.679 118.628 212.312 119.426 212.223 120.414H219.31C219.221 119.426 218.848 118.628 218.189 118.02C217.543 117.399 216.732 117.089 215.757 117.089ZM224.64 117.963C224.956 117.292 225.425 116.785 226.046 116.443C226.679 116.101 227.458 115.93 228.383 115.93V117.241L228.06 117.222C227.008 117.222 226.185 117.545 225.59 118.191C224.994 118.837 224.697 119.743 224.697 120.908V126H223.348V116.006H224.64V117.963ZM238.53 122.01C238.53 121.491 238.613 121.035 238.777 120.642C238.955 120.249 239.17 119.914 239.423 119.635C239.677 119.356 240.006 119.04 240.411 118.685C240.956 118.204 241.355 117.786 241.608 117.431C241.874 117.064 242.007 116.62 242.007 116.101C242.007 115.404 241.735 114.847 241.19 114.429C240.646 113.998 239.898 113.783 238.948 113.783C237.378 113.783 236.168 114.296 235.319 115.322L234.312 114.562C235.389 113.245 236.966 112.586 239.043 112.586C240.373 112.586 241.431 112.884 242.216 113.479C243.014 114.074 243.413 114.879 243.413 115.892C243.413 116.411 243.325 116.874 243.147 117.279C242.983 117.672 242.774 118.007 242.52 118.286C242.28 118.565 241.957 118.888 241.551 119.255C241.007 119.749 240.601 120.192 240.335 120.585C240.069 120.965 239.936 121.44 239.936 122.01H238.53ZM239.233 126.095C238.955 126.095 238.72 126 238.53 125.81C238.34 125.607 238.245 125.373 238.245 125.107C238.245 124.828 238.34 124.6 238.53 124.423C238.72 124.233 238.955 124.138 239.233 124.138C239.525 124.138 239.765 124.233 239.955 124.423C240.145 124.6 240.24 124.828 240.24 125.107C240.24 125.373 240.139 125.607 239.936 125.81C239.746 126 239.512 126.095 239.233 126.095Z" fill="white"/>
</svg>
