<svg width="276" height="231" viewBox="0 0 276 231" fill="none" xmlns="http://www.w3.org/2000/svg">
<path d="M0 31.0161V155.984C0 173.148 13.9058 187 30.9858 187H245.014C262.094 187 276 173.148 276 155.984V31.0161C276 13.8519 262.094 0 245.014 0H30.9858C13.9058 0.150564 0 14.0024 0 31.0161Z" fill="#1D3C76"/>
<path d="M0 30.9738V156.38C0 173.604 13.9058 187.505 30.9858 187.505H157.045L219.319 229.659C225.214 233.588 232.771 228.3 230.957 221.349L222.191 187.505H245.014C262.094 187.505 276 173.604 276 156.38V147.012C258.769 153.207 240.177 156.531 220.679 156.531C192.112 156.531 165.207 149.279 141.779 136.436C140.418 135.68 139.209 135.076 138 134.321C91.1435 107.124 58.7974 57.4148 56.0767 0H30.9858C13.9058 0 0 13.9004 0 30.9738Z" fill="#18386B"/>
<path d="M21.435 53.863C22.217 54.033 22.8177 54.373 23.237 54.883C23.6677 55.3817 23.883 56.0277 23.883 56.821C23.883 57.841 23.5033 58.6287 22.744 59.184C21.996 59.728 20.8853 60 19.412 60H13.938V48.1H19.072C20.398 48.1 21.4237 48.3663 22.149 48.899C22.8857 49.4317 23.254 50.1853 23.254 51.16C23.254 51.8173 23.0897 52.3783 22.761 52.843C22.4437 53.2963 22.0017 53.6363 21.435 53.863ZM15.196 49.137V53.455H18.987C19.9503 53.455 20.6927 53.2737 21.214 52.911C21.7353 52.537 21.996 51.9987 21.996 51.296C21.996 50.5933 21.7353 50.0607 21.214 49.698C20.6927 49.324 19.9503 49.137 18.987 49.137H15.196ZM19.395 58.963C20.4603 58.963 21.265 58.7817 21.809 58.419C22.353 58.0563 22.625 57.4897 22.625 56.719C22.625 55.2343 21.5483 54.492 19.395 54.492H15.196V58.963H19.395ZM30.1544 60.085C29.2931 60.085 28.5167 59.8923 27.8254 59.507C27.1341 59.1103 26.5901 58.5663 26.1934 57.875C25.7967 57.1837 25.5984 56.4017 25.5984 55.529C25.5984 54.6563 25.7967 53.8743 26.1934 53.183C26.5901 52.4917 27.1341 51.9533 27.8254 51.568C28.5167 51.1827 29.2931 50.99 30.1544 50.99C31.0157 50.99 31.7921 51.1827 32.4834 51.568C33.1747 51.9533 33.7131 52.4917 34.0984 53.183C34.4951 53.8743 34.6934 54.6563 34.6934 55.529C34.6934 56.4017 34.4951 57.1837 34.0984 57.875C33.7131 58.5663 33.1747 59.1103 32.4834 59.507C31.7921 59.8923 31.0157 60.085 30.1544 60.085ZM30.1544 59.014C30.7891 59.014 31.3557 58.8723 31.8544 58.589C32.3644 58.2943 32.7611 57.8807 33.0444 57.348C33.3277 56.8153 33.4694 56.209 33.4694 55.529C33.4694 54.849 33.3277 54.2427 33.0444 53.71C32.7611 53.1773 32.3644 52.7693 31.8544 52.486C31.3557 52.1913 30.7891 52.044 30.1544 52.044C29.5197 52.044 28.9474 52.1913 28.4374 52.486C27.9387 52.7693 27.5421 53.1773 27.2474 53.71C26.9641 54.2427 26.8224 54.849 26.8224 55.529C26.8224 56.209 26.9641 56.8153 27.2474 57.348C27.5421 57.8807 27.9387 58.2943 28.4374 58.589C28.9474 58.8723 29.5197 59.014 30.1544 59.014ZM41.7136 50.99C42.8356 50.99 43.7253 51.3187 44.3826 51.976C45.0513 52.622 45.3856 53.5683 45.3856 54.815V60H44.1786V54.934C44.1786 54.0047 43.9463 53.2963 43.4816 52.809C43.0169 52.3217 42.3539 52.078 41.4926 52.078C40.5293 52.078 39.7643 52.367 39.1976 52.945C38.6423 53.5117 38.3646 54.2993 38.3646 55.308V60H37.1576V51.058H38.3136V52.707C38.6423 52.163 39.0956 51.7437 39.6736 51.449C40.2629 51.143 40.9429 50.99 41.7136 50.99ZM47.3365 63.383C46.9625 63.383 46.6112 63.332 46.2825 63.23C45.9425 63.1393 45.6648 62.9977 45.4495 62.805L45.8745 61.887C46.2258 62.193 46.6905 62.346 47.2685 62.346C47.7445 62.346 48.1072 62.2043 48.3565 61.921C48.6172 61.6377 48.7475 61.2183 48.7475 60.663V51.058H49.9545V60.663C49.9545 61.5017 49.7278 62.1647 49.2745 62.652C48.8212 63.1393 48.1752 63.383 47.3365 63.383ZM49.3595 49.086C49.1102 49.086 48.9005 49.001 48.7305 48.831C48.5605 48.661 48.4755 48.457 48.4755 48.219C48.4755 47.9923 48.5605 47.794 48.7305 47.624C48.9005 47.454 49.1102 47.369 49.3595 47.369C49.6088 47.369 49.8185 47.454 49.9885 47.624C50.1585 47.7827 50.2435 47.9753 50.2435 48.202C50.2435 48.4513 50.1585 48.661 49.9885 48.831C49.8185 49.001 49.6088 49.086 49.3595 49.086ZM56.9825 60.085C56.1212 60.085 55.3449 59.8923 54.6535 59.507C53.9622 59.1103 53.4182 58.5663 53.0215 57.875C52.6249 57.1837 52.4265 56.4017 52.4265 55.529C52.4265 54.6563 52.6249 53.8743 53.0215 53.183C53.4182 52.4917 53.9622 51.9533 54.6535 51.568C55.3449 51.1827 56.1212 50.99 56.9825 50.99C57.8439 50.99 58.6202 51.1827 59.3115 51.568C60.0029 51.9533 60.5412 52.4917 60.9265 53.183C61.3232 53.8743 61.5215 54.6563 61.5215 55.529C61.5215 56.4017 61.3232 57.1837 60.9265 57.875C60.5412 58.5663 60.0029 59.1103 59.3115 59.507C58.6202 59.8923 57.8439 60.085 56.9825 60.085ZM56.9825 59.014C57.6172 59.014 58.1839 58.8723 58.6825 58.589C59.1925 58.2943 59.5892 57.8807 59.8725 57.348C60.1559 56.8153 60.2975 56.209 60.2975 55.529C60.2975 54.849 60.1559 54.2427 59.8725 53.71C59.5892 53.1773 59.1925 52.7693 58.6825 52.486C58.1839 52.1913 57.6172 52.044 56.9825 52.044C56.3479 52.044 55.7755 52.1913 55.2655 52.486C54.7669 52.7693 54.3702 53.1773 54.0755 53.71C53.7922 54.2427 53.6505 54.849 53.6505 55.529C53.6505 56.209 53.7922 56.8153 54.0755 57.348C54.3702 57.8807 54.7669 58.2943 55.2655 58.589C55.7755 58.8723 56.3479 59.014 56.9825 59.014ZM72.0437 51.058V60H70.8877V58.368C70.5704 58.912 70.1341 59.337 69.5787 59.643C69.0234 59.9377 68.3887 60.085 67.6747 60.085C66.5074 60.085 65.5837 59.762 64.9037 59.116C64.2351 58.4587 63.9007 57.501 63.9007 56.243V51.058H65.1077V56.124C65.1077 57.0647 65.3401 57.7787 65.8047 58.266C66.2694 58.7533 66.9324 58.997 67.7937 58.997C68.7344 58.997 69.4767 58.7137 70.0207 58.147C70.5647 57.569 70.8367 56.77 70.8367 55.75V51.058H72.0437ZM76.5802 52.809C76.8635 52.2083 77.2829 51.755 77.8382 51.449C78.4049 51.143 79.1019 50.99 79.9292 50.99V52.163L79.6402 52.146C78.6995 52.146 77.9629 52.435 77.4302 53.013C76.8975 53.591 76.6312 54.4013 76.6312 55.444V60H75.4242V51.058H76.5802V52.809ZM97.8487 50.99C98.9707 50.99 99.849 51.313 100.484 51.959C101.13 52.605 101.453 53.557 101.453 54.815V60H100.246V54.934C100.246 54.0047 100.019 53.2963 99.5657 52.809C99.1237 52.3217 98.4947 52.078 97.6787 52.078C96.7493 52.078 96.0183 52.367 95.4857 52.945C94.953 53.5117 94.6867 54.2993 94.6867 55.308V60H93.4797V54.934C93.4797 54.0047 93.253 53.2963 92.7997 52.809C92.3577 52.3217 91.723 52.078 90.8957 52.078C89.9777 52.078 89.2467 52.367 88.7027 52.945C88.17 53.5117 87.9037 54.2993 87.9037 55.308V60H86.6967V51.058H87.8527V52.69C88.17 52.146 88.612 51.7267 89.1787 51.432C89.7453 51.1373 90.397 50.99 91.1337 50.99C91.8817 50.99 92.5277 51.1487 93.0717 51.466C93.627 51.7833 94.0407 52.2537 94.3127 52.877C94.6413 52.2877 95.1117 51.8287 95.7237 51.5C96.347 51.16 97.0553 50.99 97.8487 50.99ZM108.414 60.085C107.553 60.085 106.777 59.8923 106.085 59.507C105.394 59.1103 104.85 58.5663 104.453 57.875C104.057 57.1837 103.858 56.4017 103.858 55.529C103.858 54.6563 104.057 53.8743 104.453 53.183C104.85 52.4917 105.394 51.9533 106.085 51.568C106.777 51.1827 107.553 50.99 108.414 50.99C109.276 50.99 110.052 51.1827 110.743 51.568C111.435 51.9533 111.973 52.4917 112.358 53.183C112.755 53.8743 112.953 54.6563 112.953 55.529C112.953 56.4017 112.755 57.1837 112.358 57.875C111.973 58.5663 111.435 59.1103 110.743 59.507C110.052 59.8923 109.276 60.085 108.414 60.085ZM108.414 59.014C109.049 59.014 109.616 58.8723 110.114 58.589C110.624 58.2943 111.021 57.8807 111.304 57.348C111.588 56.8153 111.729 56.209 111.729 55.529C111.729 54.849 111.588 54.2427 111.304 53.71C111.021 53.1773 110.624 52.7693 110.114 52.486C109.616 52.1913 109.049 52.044 108.414 52.044C107.78 52.044 107.207 52.1913 106.697 52.486C106.199 52.7693 105.802 53.1773 105.507 53.71C105.224 54.2427 105.082 54.849 105.082 55.529C105.082 56.209 105.224 56.8153 105.507 57.348C105.802 57.8807 106.199 58.2943 106.697 58.589C107.207 58.8723 107.78 59.014 108.414 59.014ZM119.973 50.99C121.095 50.99 121.985 51.3187 122.642 51.976C123.311 52.622 123.645 53.5683 123.645 54.815V60H122.438V54.934C122.438 54.0047 122.206 53.2963 121.741 52.809C121.277 52.3217 120.614 52.078 119.752 52.078C118.789 52.078 118.024 52.367 117.457 52.945C116.902 53.5117 116.624 54.2993 116.624 55.308V60H115.417V51.058H116.573V52.707C116.902 52.163 117.355 51.7437 117.933 51.449C118.523 51.143 119.203 50.99 119.973 50.99ZM129.319 60.085C128.594 60.085 127.897 59.983 127.228 59.779C126.571 59.5637 126.055 59.2973 125.681 58.98L126.225 58.028C126.599 58.3227 127.07 58.5663 127.636 58.759C128.203 58.9403 128.792 59.031 129.404 59.031C130.22 59.031 130.821 58.9063 131.206 58.657C131.603 58.3963 131.801 58.0337 131.801 57.569C131.801 57.2403 131.694 56.9853 131.478 56.804C131.263 56.6113 130.991 56.4697 130.662 56.379C130.334 56.277 129.897 56.1807 129.353 56.09C128.628 55.954 128.044 55.818 127.602 55.682C127.16 55.5347 126.781 55.291 126.463 54.951C126.157 54.611 126.004 54.1407 126.004 53.54C126.004 52.792 126.316 52.18 126.939 51.704C127.563 51.228 128.43 50.99 129.54 50.99C130.118 50.99 130.696 51.0693 131.274 51.228C131.852 51.3753 132.328 51.5737 132.702 51.823L132.175 52.792C131.439 52.282 130.56 52.027 129.54 52.027C128.77 52.027 128.186 52.163 127.789 52.435C127.404 52.707 127.211 53.064 127.211 53.506C127.211 53.846 127.319 54.118 127.534 54.322C127.761 54.526 128.039 54.679 128.367 54.781C128.696 54.8717 129.149 54.968 129.727 55.07C130.441 55.206 131.014 55.342 131.444 55.478C131.875 55.614 132.243 55.8463 132.549 56.175C132.855 56.5037 133.008 56.957 133.008 57.535C133.008 58.317 132.68 58.9403 132.022 59.405C131.376 59.8583 130.475 60.085 129.319 60.085ZM135.24 51.058H136.447V60H135.24V51.058ZM135.852 49.103C135.602 49.103 135.393 49.018 135.223 48.848C135.053 48.678 134.968 48.474 134.968 48.236C134.968 48.0093 135.053 47.811 135.223 47.641C135.393 47.471 135.602 47.386 135.852 47.386C136.101 47.386 136.311 47.471 136.481 47.641C136.651 47.7997 136.736 47.9923 136.736 48.219C136.736 48.4683 136.651 48.678 136.481 48.848C136.311 49.018 136.101 49.103 135.852 49.103ZM147.591 55.903H140.111C140.179 56.8323 140.536 57.586 141.182 58.164C141.828 58.7307 142.644 59.014 143.63 59.014C144.185 59.014 144.695 58.9177 145.16 58.725C145.625 58.521 146.027 58.2263 146.367 57.841L147.047 58.623C146.65 59.099 146.152 59.4617 145.551 59.711C144.962 59.9603 144.31 60.085 143.596 60.085C142.678 60.085 141.862 59.8923 141.148 59.507C140.445 59.1103 139.896 58.5663 139.499 57.875C139.102 57.1837 138.904 56.4017 138.904 55.529C138.904 54.6563 139.091 53.8743 139.465 53.183C139.85 52.4917 140.372 51.9533 141.029 51.568C141.698 51.1827 142.446 50.99 143.273 50.99C144.1 50.99 144.843 51.1827 145.5 51.568C146.157 51.9533 146.673 52.4917 147.047 53.183C147.421 53.863 147.608 54.645 147.608 55.529L147.591 55.903ZM143.273 52.027C142.412 52.027 141.686 52.3047 141.097 52.86C140.519 53.404 140.19 54.118 140.111 55.002H146.452C146.373 54.118 146.038 53.404 145.449 52.86C144.871 52.3047 144.146 52.027 143.273 52.027ZM158.123 51.058V60H156.967V58.368C156.65 58.912 156.213 59.337 155.658 59.643C155.103 59.9377 154.468 60.085 153.754 60.085C152.587 60.085 151.663 59.762 150.983 59.116C150.314 58.4587 149.98 57.501 149.98 56.243V51.058H151.187V56.124C151.187 57.0647 151.419 57.7787 151.884 58.266C152.349 58.7533 153.012 58.997 153.873 58.997C154.814 58.997 155.556 58.7137 156.1 58.147C156.644 57.569 156.916 56.77 156.916 55.75V51.058H158.123ZM162.659 52.809C162.943 52.2083 163.362 51.755 163.917 51.449C164.484 51.143 165.181 50.99 166.008 50.99V52.163L165.719 52.146C164.779 52.146 164.042 52.435 163.509 53.013C162.977 53.591 162.71 54.4013 162.71 55.444V60H161.503V51.058H162.659V52.809ZM172.589 48.1H174.017L173.762 56.43H172.827L172.589 48.1ZM173.303 60.085C173.053 60.085 172.838 60 172.657 59.83C172.487 59.6487 172.402 59.439 172.402 59.201C172.402 58.9517 172.487 58.7477 172.657 58.589C172.827 58.419 173.042 58.334 173.303 58.334C173.552 58.334 173.762 58.419 173.932 58.589C174.102 58.7477 174.187 58.9517 174.187 59.201C174.187 59.439 174.102 59.6487 173.932 59.83C173.762 60 173.552 60.085 173.303 60.085ZM191.79 48.1L186.52 60H185.279L180.009 48.1H181.369L185.925 58.436L190.515 48.1H191.79ZM196.236 60.085C195.375 60.085 194.599 59.8923 193.907 59.507C193.216 59.1103 192.672 58.5663 192.275 57.875C191.879 57.1837 191.68 56.4017 191.68 55.529C191.68 54.6563 191.879 53.8743 192.275 53.183C192.672 52.4917 193.216 51.9533 193.907 51.568C194.599 51.1827 195.375 50.99 196.236 50.99C197.098 50.99 197.874 51.1827 198.565 51.568C199.257 51.9533 199.795 52.4917 200.18 53.183C200.577 53.8743 200.775 54.6563 200.775 55.529C200.775 56.4017 200.577 57.1837 200.18 57.875C199.795 58.5663 199.257 59.1103 198.565 59.507C197.874 59.8923 197.098 60.085 196.236 60.085ZM196.236 59.014C196.871 59.014 197.438 58.8723 197.936 58.589C198.446 58.2943 198.843 57.8807 199.126 57.348C199.41 56.8153 199.551 56.209 199.551 55.529C199.551 54.849 199.41 54.2427 199.126 53.71C198.843 53.1773 198.446 52.7693 197.936 52.486C197.438 52.1913 196.871 52.044 196.236 52.044C195.602 52.044 195.029 52.1913 194.519 52.486C194.021 52.7693 193.624 53.1773 193.329 53.71C193.046 54.2427 192.904 54.849 192.904 55.529C192.904 56.209 193.046 56.8153 193.329 57.348C193.624 57.8807 194.021 58.2943 194.519 58.589C195.029 58.8723 195.602 59.014 196.236 59.014ZM211.298 51.058V60H210.142V58.368C209.824 58.912 209.388 59.337 208.833 59.643C208.277 59.9377 207.643 60.085 206.929 60.085C205.761 60.085 204.838 59.762 204.158 59.116C203.489 58.4587 203.155 57.501 203.155 56.243V51.058H204.362V56.124C204.362 57.0647 204.594 57.7787 205.059 58.266C205.523 58.7533 206.186 58.997 207.048 58.997C207.988 58.997 208.731 58.7137 209.275 58.147C209.819 57.569 210.091 56.77 210.091 55.75V51.058H211.298ZM217.075 60.085C216.35 60.085 215.653 59.983 214.984 59.779C214.327 59.5637 213.811 59.2973 213.437 58.98L213.981 58.028C214.355 58.3227 214.825 58.5663 215.392 58.759C215.959 58.9403 216.548 59.031 217.16 59.031C217.976 59.031 218.577 58.9063 218.962 58.657C219.359 58.3963 219.557 58.0337 219.557 57.569C219.557 57.2403 219.449 56.9853 219.234 56.804C219.019 56.6113 218.747 56.4697 218.418 56.379C218.089 56.277 217.653 56.1807 217.109 56.09C216.384 55.954 215.8 55.818 215.358 55.682C214.916 55.5347 214.536 55.291 214.219 54.951C213.913 54.611 213.76 54.1407 213.76 53.54C213.76 52.792 214.072 52.18 214.695 51.704C215.318 51.228 216.185 50.99 217.296 50.99C217.874 50.99 218.452 51.0693 219.03 51.228C219.608 51.3753 220.084 51.5737 220.458 51.823L219.931 52.792C219.194 52.282 218.316 52.027 217.296 52.027C216.525 52.027 215.942 52.163 215.545 52.435C215.16 52.707 214.967 53.064 214.967 53.506C214.967 53.846 215.075 54.118 215.29 54.322C215.517 54.526 215.794 54.679 216.123 54.781C216.452 54.8717 216.905 54.968 217.483 55.07C218.197 55.206 218.769 55.342 219.2 55.478C219.631 55.614 219.999 55.8463 220.305 56.175C220.611 56.5037 220.764 56.957 220.764 57.535C220.764 58.317 220.435 58.9403 219.778 59.405C219.132 59.8583 218.231 60.085 217.075 60.085ZM230.573 50.99C231.74 50.99 232.635 51.2847 233.259 51.874C233.882 52.452 234.194 53.3133 234.194 54.458V60H233.038V58.606C232.766 59.0707 232.363 59.4333 231.831 59.694C231.309 59.9547 230.686 60.085 229.961 60.085C228.963 60.085 228.17 59.847 227.581 59.371C226.991 58.895 226.697 58.266 226.697 57.484C226.697 56.7247 226.969 56.1127 227.513 55.648C228.068 55.1833 228.946 54.951 230.148 54.951H232.987V54.407C232.987 53.6363 232.771 53.0527 232.341 52.656C231.91 52.248 231.281 52.044 230.454 52.044C229.887 52.044 229.343 52.1403 228.822 52.333C228.3 52.5143 227.853 52.7693 227.479 53.098L226.935 52.197C227.388 51.8117 227.932 51.517 228.567 51.313C229.201 51.0977 229.87 50.99 230.573 50.99ZM230.148 59.133C230.828 59.133 231.411 58.98 231.899 58.674C232.386 58.3567 232.749 57.9033 232.987 57.314V55.852H230.182C228.652 55.852 227.887 56.3847 227.887 57.45C227.887 57.9713 228.085 58.385 228.482 58.691C228.878 58.9857 229.434 59.133 230.148 59.133ZM244.82 51.058L240.842 60H239.601L235.64 51.058H236.898L240.247 58.674L243.63 51.058H244.82ZM254.057 55.903H246.577C246.645 56.8323 247.002 57.586 247.648 58.164C248.294 58.7307 249.11 59.014 250.096 59.014C250.651 59.014 251.161 58.9177 251.626 58.725C252.091 58.521 252.493 58.2263 252.833 57.841L253.513 58.623C253.116 59.099 252.618 59.4617 252.017 59.711C251.428 59.9603 250.776 60.085 250.062 60.085C249.144 60.085 248.328 59.8923 247.614 59.507C246.911 59.1103 246.362 58.5663 245.965 57.875C245.568 57.1837 245.37 56.4017 245.37 55.529C245.37 54.6563 245.557 53.8743 245.931 53.183C246.316 52.4917 246.838 51.9533 247.495 51.568C248.164 51.1827 248.912 50.99 249.739 50.99C250.566 50.99 251.309 51.1827 251.966 51.568C252.623 51.9533 253.139 52.4917 253.513 53.183C253.887 53.863 254.074 54.645 254.074 55.529L254.057 55.903ZM249.739 52.027C248.878 52.027 248.152 52.3047 247.563 52.86C246.985 53.404 246.656 54.118 246.577 55.002H252.918C252.839 54.118 252.504 53.404 251.915 52.86C251.337 52.3047 250.612 52.027 249.739 52.027ZM262.755 58.997V60H255.479V59.201L261.106 52.078H255.581V51.058H262.653V51.857L257.026 58.997H262.755ZM14.839 73.809C15.1223 73.2083 15.5417 72.755 16.097 72.449C16.6637 72.143 17.3607 71.99 18.188 71.99V73.163L17.899 73.146C16.9583 73.146 16.2217 73.435 15.689 74.013C15.1563 74.591 14.89 75.4013 14.89 76.444V81H13.683V72.058H14.839V73.809ZM23.4848 71.99C24.6522 71.99 25.5475 72.2847 26.1708 72.874C26.7942 73.452 27.1058 74.3133 27.1058 75.458V81H25.9498V79.606C25.6778 80.0707 25.2755 80.4333 24.7428 80.694C24.2215 80.9547 23.5982 81.085 22.8728 81.085C21.8755 81.085 21.0822 80.847 20.4928 80.371C19.9035 79.895 19.6088 79.266 19.6088 78.484C19.6088 77.7247 19.8808 77.1127 20.4248 76.648C20.9802 76.1833 21.8585 75.951 23.0598 75.951H25.8988V75.407C25.8988 74.6363 25.6835 74.0527 25.2528 73.656C24.8222 73.248 24.1932 73.044 23.3658 73.044C22.7992 73.044 22.2552 73.1403 21.7338 73.333C21.2125 73.5143 20.7648 73.7693 20.3908 74.098L19.8468 73.197C20.3002 72.8117 20.8442 72.517 21.4788 72.313C22.1135 72.0977 22.7822 71.99 23.4848 71.99ZM23.0598 80.133C23.7398 80.133 24.3235 79.98 24.8108 79.674C25.2982 79.3567 25.6608 78.9033 25.8988 78.314V76.852H23.0938C21.5638 76.852 20.7988 77.3847 20.7988 78.45C20.7988 78.9713 20.9972 79.385 21.3938 79.691C21.7905 79.9857 22.3458 80.133 23.0598 80.133ZM30.3842 72.058H31.5912V81H30.3842V72.058ZM30.9962 70.103C30.7468 70.103 30.5372 70.018 30.3672 69.848C30.1972 69.678 30.1122 69.474 30.1122 69.236C30.1122 69.0093 30.1972 68.811 30.3672 68.641C30.5372 68.471 30.7468 68.386 30.9962 68.386C31.2455 68.386 31.4552 68.471 31.6252 68.641C31.7952 68.7997 31.8802 68.9923 31.8802 69.219C31.8802 69.4683 31.7952 69.678 31.6252 69.848C31.4552 70.018 31.2455 70.103 30.9962 70.103ZM37.3466 81.085C36.6213 81.085 35.9243 80.983 35.2556 80.779C34.5983 80.5637 34.0826 80.2973 33.7086 79.98L34.2526 79.028C34.6266 79.3227 35.0969 79.5663 35.6636 79.759C36.2303 79.9403 36.8196 80.031 37.4316 80.031C38.2476 80.031 38.8483 79.9063 39.2336 79.657C39.6303 79.3963 39.8286 79.0337 39.8286 78.569C39.8286 78.2403 39.7209 77.9853 39.5056 77.804C39.2903 77.6113 39.0183 77.4697 38.6896 77.379C38.3609 77.277 37.9246 77.1807 37.3806 77.09C36.6553 76.954 36.0716 76.818 35.6296 76.682C35.1876 76.5347 34.8079 76.291 34.4906 75.951C34.1846 75.611 34.0316 75.1407 34.0316 74.54C34.0316 73.792 34.3433 73.18 34.9666 72.704C35.5899 72.228 36.4569 71.99 37.5676 71.99C38.1456 71.99 38.7236 72.0693 39.3016 72.228C39.8796 72.3753 40.3556 72.5737 40.7296 72.823L40.2026 73.792C39.4659 73.282 38.5876 73.027 37.5676 73.027C36.7969 73.027 36.2133 73.163 35.8166 73.435C35.4313 73.707 35.2386 74.064 35.2386 74.506C35.2386 74.846 35.3463 75.118 35.5616 75.322C35.7883 75.526 36.0659 75.679 36.3946 75.781C36.7233 75.8717 37.1766 75.968 37.7546 76.07C38.4686 76.206 39.0409 76.342 39.4716 76.478C39.9023 76.614 40.2706 76.8463 40.5766 77.175C40.8826 77.5037 41.0356 77.957 41.0356 78.535C41.0356 79.317 40.7069 79.9403 40.0496 80.405C39.4036 80.8583 38.5026 81.085 37.3466 81.085ZM46.922 81.085C46.0607 81.085 45.2843 80.8923 44.593 80.507C43.9017 80.1103 43.3577 79.5663 42.961 78.875C42.5643 78.1837 42.366 77.4017 42.366 76.529C42.366 75.6563 42.5643 74.8743 42.961 74.183C43.3577 73.4917 43.9017 72.9533 44.593 72.568C45.2843 72.1827 46.0607 71.99 46.922 71.99C47.7833 71.99 48.5597 72.1827 49.251 72.568C49.9423 72.9533 50.4807 73.4917 50.866 74.183C51.2627 74.8743 51.461 75.6563 51.461 76.529C51.461 77.4017 51.2627 78.1837 50.866 78.875C50.4807 79.5663 49.9423 80.1103 49.251 80.507C48.5597 80.8923 47.7833 81.085 46.922 81.085ZM46.922 80.014C47.5567 80.014 48.1233 79.8723 48.622 79.589C49.132 79.2943 49.5287 78.8807 49.812 78.348C50.0953 77.8153 50.237 77.209 50.237 76.529C50.237 75.849 50.0953 75.2427 49.812 74.71C49.5287 74.1773 49.132 73.7693 48.622 73.486C48.1233 73.1913 47.5567 73.044 46.922 73.044C46.2873 73.044 45.715 73.1913 45.205 73.486C44.7063 73.7693 44.3097 74.1773 44.015 74.71C43.7317 75.2427 43.59 75.849 43.59 76.529C43.59 77.209 43.7317 77.8153 44.015 78.348C44.3097 78.8807 44.7063 79.2943 45.205 79.589C45.715 79.8723 46.2873 80.014 46.922 80.014ZM58.4812 71.99C59.6032 71.99 60.4929 72.3187 61.1502 72.976C61.8189 73.622 62.1532 74.5683 62.1532 75.815V81H60.9462V75.934C60.9462 75.0047 60.7139 74.2963 60.2492 73.809C59.7845 73.3217 59.1215 73.078 58.2602 73.078C57.2969 73.078 56.5319 73.367 55.9652 73.945C55.4099 74.5117 55.1322 75.2993 55.1322 76.308V81H53.9252V72.058H55.0812V73.707C55.4099 73.163 55.8632 72.7437 56.4412 72.449C57.0305 72.143 57.7105 71.99 58.4812 71.99ZM65.5661 79.232C65.8267 79.232 66.0421 79.3227 66.2121 79.504C66.3821 79.674 66.4671 79.8893 66.4671 80.15C66.4671 80.286 66.4444 80.4333 66.3991 80.592C66.3651 80.7507 66.3084 80.932 66.2291 81.136L65.5151 83.482H64.6991L65.2771 81.017C65.0957 80.9603 64.9484 80.8583 64.8351 80.711C64.7217 80.5523 64.6651 80.3653 64.6651 80.15C64.6651 79.8893 64.7501 79.674 64.9201 79.504C65.0901 79.3227 65.3054 79.232 65.5661 79.232ZM72.1558 84.383C71.7818 84.383 71.4305 84.332 71.1018 84.23C70.7618 84.1393 70.4842 83.9977 70.2688 83.805L70.6938 82.887C71.0452 83.193 71.5098 83.346 72.0878 83.346C72.5638 83.346 72.9265 83.2043 73.1758 82.921C73.4365 82.6377 73.5668 82.2183 73.5668 81.663V72.058H74.7738V81.663C74.7738 82.5017 74.5472 83.1647 74.0938 83.652C73.6405 84.1393 72.9945 84.383 72.1558 84.383ZM74.1788 70.086C73.9295 70.086 73.7198 70.001 73.5498 69.831C73.3798 69.661 73.2948 69.457 73.2948 69.219C73.2948 68.9923 73.3798 68.794 73.5498 68.624C73.7198 68.454 73.9295 68.369 74.1788 68.369C74.4282 68.369 74.6378 68.454 74.8078 68.624C74.9778 68.7827 75.0628 68.9753 75.0628 69.202C75.0628 69.4513 74.9778 69.661 74.8078 69.831C74.6378 70.001 74.4282 70.086 74.1788 70.086ZM85.9329 76.903H78.4529C78.5209 77.8323 78.8779 78.586 79.5239 79.164C80.1699 79.7307 80.9859 80.014 81.9719 80.014C82.5272 80.014 83.0372 79.9177 83.5019 79.725C83.9665 79.521 84.3689 79.2263 84.7089 78.841L85.3889 79.623C84.9922 80.099 84.4935 80.4617 83.8929 80.711C83.3035 80.9603 82.6519 81.085 81.9379 81.085C81.0199 81.085 80.2039 80.8923 79.4899 80.507C78.7872 80.1103 78.2375 79.5663 77.8409 78.875C77.4442 78.1837 77.2459 77.4017 77.2459 76.529C77.2459 75.6563 77.4329 74.8743 77.8069 74.183C78.1922 73.4917 78.7135 72.9533 79.3709 72.568C80.0395 72.1827 80.7875 71.99 81.6149 71.99C82.4422 71.99 83.1845 72.1827 83.8419 72.568C84.4992 72.9533 85.0149 73.4917 85.3889 74.183C85.7629 74.863 85.9499 75.645 85.9499 76.529L85.9329 76.903ZM81.6149 73.027C80.7535 73.027 80.0282 73.3047 79.4389 73.86C78.8609 74.404 78.5322 75.118 78.4529 76.002H84.7939C84.7145 75.118 84.3802 74.404 83.7909 73.86C83.2129 73.3047 82.4875 73.027 81.6149 73.027ZM97.4119 71.99C98.5339 71.99 99.4235 72.3187 100.081 72.976C100.75 73.622 101.084 74.5683 101.084 75.815V81H99.8769V75.934C99.8769 75.0047 99.6445 74.2963 99.1799 73.809C98.7152 73.3217 98.0522 73.078 97.1909 73.078C96.2275 73.078 95.4625 73.367 94.8959 73.945C94.3405 74.5117 94.0629 75.2993 94.0629 76.308V81H92.8559V72.058H94.0119V73.707C94.3405 73.163 94.7939 72.7437 95.3719 72.449C95.9612 72.143 96.6412 71.99 97.4119 71.99ZM112.18 76.903H104.7C104.768 77.8323 105.125 78.586 105.771 79.164C106.417 79.7307 107.233 80.014 108.219 80.014C108.774 80.014 109.284 79.9177 109.749 79.725C110.214 79.521 110.616 79.2263 110.956 78.841L111.636 79.623C111.239 80.099 110.741 80.4617 110.14 80.711C109.551 80.9603 108.899 81.085 108.185 81.085C107.267 81.085 106.451 80.8923 105.737 80.507C105.034 80.1103 104.485 79.5663 104.088 78.875C103.691 78.1837 103.493 77.4017 103.493 76.529C103.493 75.6563 103.68 74.8743 104.054 74.183C104.439 73.4917 104.961 72.9533 105.618 72.568C106.287 72.1827 107.035 71.99 107.862 71.99C108.689 71.99 109.432 72.1827 110.089 72.568C110.746 72.9533 111.262 73.4917 111.636 74.183C112.01 74.863 112.197 75.645 112.197 76.529L112.18 76.903ZM107.862 73.027C107.001 73.027 106.275 73.3047 105.686 73.86C105.108 74.404 104.779 75.118 104.7 76.002H111.041C110.962 75.118 110.627 74.404 110.038 73.86C109.46 73.3047 108.735 73.027 107.862 73.027ZM122.809 81.085C121.925 81.085 121.132 80.8923 120.429 80.507C119.738 80.1217 119.194 79.5833 118.797 78.892C118.4 78.1893 118.202 77.4017 118.202 76.529C118.202 75.6563 118.4 74.8743 118.797 74.183C119.194 73.4917 119.738 72.9533 120.429 72.568C121.132 72.1827 121.925 71.99 122.809 71.99C123.58 71.99 124.265 72.143 124.866 72.449C125.478 72.7437 125.96 73.18 126.311 73.758L125.41 74.37C125.115 73.928 124.741 73.5993 124.288 73.384C123.835 73.1573 123.342 73.044 122.809 73.044C122.163 73.044 121.579 73.1913 121.058 73.486C120.548 73.7693 120.146 74.1773 119.851 74.71C119.568 75.2427 119.426 75.849 119.426 76.529C119.426 77.2203 119.568 77.8323 119.851 78.365C120.146 78.8863 120.548 79.2943 121.058 79.589C121.579 79.8723 122.163 80.014 122.809 80.014C123.342 80.014 123.835 79.9063 124.288 79.691C124.741 79.4757 125.115 79.147 125.41 78.705L126.311 79.317C125.96 79.895 125.478 80.337 124.866 80.643C124.254 80.9377 123.568 81.085 122.809 81.085ZM132.188 81.085C131.326 81.085 130.55 80.8923 129.859 80.507C129.167 80.1103 128.623 79.5663 128.227 78.875C127.83 78.1837 127.632 77.4017 127.632 76.529C127.632 75.6563 127.83 74.8743 128.227 74.183C128.623 73.4917 129.167 72.9533 129.859 72.568C130.55 72.1827 131.326 71.99 132.188 71.99C133.049 71.99 133.825 72.1827 134.517 72.568C135.208 72.9533 135.746 73.4917 136.132 74.183C136.528 74.8743 136.727 75.6563 136.727 76.529C136.727 77.4017 136.528 78.1837 136.132 78.875C135.746 79.5663 135.208 80.1103 134.517 80.507C133.825 80.8923 133.049 81.085 132.188 81.085ZM132.188 80.014C132.822 80.014 133.389 79.8723 133.888 79.589C134.398 79.2943 134.794 78.8807 135.078 78.348C135.361 77.8153 135.503 77.209 135.503 76.529C135.503 75.849 135.361 75.2427 135.078 74.71C134.794 74.1773 134.398 73.7693 133.888 73.486C133.389 73.1913 132.822 73.044 132.188 73.044C131.553 73.044 130.981 73.1913 130.471 73.486C129.972 73.7693 129.575 74.1773 129.281 74.71C128.997 75.2427 128.856 75.849 128.856 76.529C128.856 77.209 128.997 77.8153 129.281 78.348C129.575 78.8807 129.972 79.2943 130.471 79.589C130.981 79.8723 131.553 80.014 132.188 80.014ZM143.747 71.99C144.869 71.99 145.758 72.3187 146.416 72.976C147.084 73.622 147.419 74.5683 147.419 75.815V81H146.212V75.934C146.212 75.0047 145.979 74.2963 145.515 73.809C145.05 73.3217 144.387 73.078 143.526 73.078C142.562 73.078 141.797 73.367 141.231 73.945C140.675 74.5117 140.398 75.2993 140.398 76.308V81H139.191V72.058H140.347V73.707C140.675 73.163 141.129 72.7437 141.707 72.449C142.296 72.143 142.976 71.99 143.747 71.99ZM155.252 71.99C156.374 71.99 157.263 72.3187 157.921 72.976C158.589 73.622 158.924 74.5683 158.924 75.815V81H157.717V75.934C157.717 75.0047 157.484 74.2963 157.02 73.809C156.555 73.3217 155.892 73.078 155.031 73.078C154.067 73.078 153.302 73.367 152.736 73.945C152.18 74.5117 151.903 75.2993 151.903 76.308V81H150.696V72.058H151.852V73.707C152.18 73.163 152.634 72.7437 153.212 72.449C153.801 72.143 154.481 71.99 155.252 71.99ZM165.329 71.99C166.496 71.99 167.391 72.2847 168.015 72.874C168.638 73.452 168.95 74.3133 168.95 75.458V81H167.794V79.606C167.522 80.0707 167.119 80.4333 166.587 80.694C166.065 80.9547 165.442 81.085 164.717 81.085C163.719 81.085 162.926 80.847 162.337 80.371C161.747 79.895 161.453 79.266 161.453 78.484C161.453 77.7247 161.725 77.1127 162.269 76.648C162.824 76.1833 163.702 75.951 164.904 75.951H167.743V75.407C167.743 74.6363 167.527 74.0527 167.097 73.656C166.666 73.248 166.037 73.044 165.21 73.044C164.643 73.044 164.099 73.1403 163.578 73.333C163.056 73.5143 162.609 73.7693 162.235 74.098L161.691 73.197C162.144 72.8117 162.688 72.517 163.323 72.313C163.957 72.0977 164.626 71.99 165.329 71.99ZM164.904 80.133C165.584 80.133 166.167 79.98 166.655 79.674C167.142 79.3567 167.505 78.9033 167.743 78.314V76.852H164.938C163.408 76.852 162.643 77.3847 162.643 78.45C162.643 78.9713 162.841 79.385 163.238 79.691C163.634 79.9857 164.19 80.133 164.904 80.133ZM172.228 72.058H173.435V81H172.228V72.058ZM172.84 70.103C172.591 70.103 172.381 70.018 172.211 69.848C172.041 69.678 171.956 69.474 171.956 69.236C171.956 69.0093 172.041 68.811 172.211 68.641C172.381 68.471 172.591 68.386 172.84 68.386C173.089 68.386 173.299 68.471 173.469 68.641C173.639 68.7997 173.724 68.9923 173.724 69.219C173.724 69.4683 173.639 69.678 173.469 69.848C173.299 70.018 173.089 70.103 172.84 70.103ZM179.19 81.085C178.465 81.085 177.768 80.983 177.099 80.779C176.442 80.5637 175.926 80.2973 175.552 79.98L176.096 79.028C176.47 79.3227 176.941 79.5663 177.507 79.759C178.074 79.9403 178.663 80.031 179.275 80.031C180.091 80.031 180.692 79.9063 181.077 79.657C181.474 79.3963 181.672 79.0337 181.672 78.569C181.672 78.2403 181.565 77.9853 181.349 77.804C181.134 77.6113 180.862 77.4697 180.533 77.379C180.205 77.277 179.768 77.1807 179.224 77.09C178.499 76.954 177.915 76.818 177.473 76.682C177.031 76.5347 176.652 76.291 176.334 75.951C176.028 75.611 175.875 75.1407 175.875 74.54C175.875 73.792 176.187 73.18 176.81 72.704C177.434 72.228 178.301 71.99 179.411 71.99C179.989 71.99 180.567 72.0693 181.145 72.228C181.723 72.3753 182.199 72.5737 182.573 72.823L182.046 73.792C181.31 73.282 180.431 73.027 179.411 73.027C178.641 73.027 178.057 73.163 177.66 73.435C177.275 73.707 177.082 74.064 177.082 74.506C177.082 74.846 177.19 75.118 177.405 75.322C177.632 75.526 177.91 75.679 178.238 75.781C178.567 75.8717 179.02 75.968 179.598 76.07C180.312 76.206 180.885 76.342 181.315 76.478C181.746 76.614 182.114 76.8463 182.42 77.175C182.726 77.5037 182.879 77.957 182.879 78.535C182.879 79.317 182.551 79.9403 181.893 80.405C181.247 80.8583 180.346 81.085 179.19 81.085ZM194.167 71.99C195.006 71.99 195.765 72.1827 196.445 72.568C197.125 72.942 197.658 73.4747 198.043 74.166C198.428 74.8573 198.621 75.645 198.621 76.529C198.621 77.4243 198.428 78.2177 198.043 78.909C197.658 79.6003 197.125 80.1387 196.445 80.524C195.776 80.898 195.017 81.085 194.167 81.085C193.442 81.085 192.784 80.9377 192.195 80.643C191.617 80.337 191.141 79.895 190.767 79.317V84.298H189.56V72.058H190.716V73.826C191.079 73.2367 191.555 72.7833 192.144 72.466C192.745 72.1487 193.419 71.99 194.167 71.99ZM194.082 80.014C194.705 80.014 195.272 79.8723 195.782 79.589C196.292 79.2943 196.689 78.8807 196.972 78.348C197.267 77.8153 197.414 77.209 197.414 76.529C197.414 75.849 197.267 75.2483 196.972 74.727C196.689 74.1943 196.292 73.7807 195.782 73.486C195.272 73.1913 194.705 73.044 194.082 73.044C193.447 73.044 192.875 73.1913 192.365 73.486C191.866 73.7807 191.47 74.1943 191.175 74.727C190.892 75.2483 190.75 75.849 190.75 76.529C190.75 77.209 190.892 77.8153 191.175 78.348C191.47 78.8807 191.866 79.2943 192.365 79.589C192.875 79.8723 193.447 80.014 194.082 80.014ZM204.16 71.99C205.327 71.99 206.222 72.2847 206.846 72.874C207.469 73.452 207.781 74.3133 207.781 75.458V81H206.625V79.606C206.353 80.0707 205.95 80.4333 205.418 80.694C204.896 80.9547 204.273 81.085 203.548 81.085C202.55 81.085 201.757 80.847 201.168 80.371C200.578 79.895 200.284 79.266 200.284 78.484C200.284 77.7247 200.556 77.1127 201.1 76.648C201.655 76.1833 202.533 75.951 203.735 75.951H206.574V75.407C206.574 74.6363 206.358 74.0527 205.928 73.656C205.497 73.248 204.868 73.044 204.041 73.044C203.474 73.044 202.93 73.1403 202.409 73.333C201.887 73.5143 201.44 73.7693 201.066 74.098L200.522 73.197C200.975 72.8117 201.519 72.517 202.154 72.313C202.788 72.0977 203.457 71.99 204.16 71.99ZM203.735 80.133C204.415 80.133 204.998 79.98 205.486 79.674C205.973 79.3567 206.336 78.9033 206.574 78.314V76.852H203.769C202.239 76.852 201.474 77.3847 201.474 78.45C201.474 78.9713 201.672 79.385 202.069 79.691C202.465 79.9857 203.021 80.133 203.735 80.133ZM213.456 81.085C212.731 81.085 212.034 80.983 211.365 80.779C210.708 80.5637 210.192 80.2973 209.818 79.98L210.362 79.028C210.736 79.3227 211.206 79.5663 211.773 79.759C212.34 79.9403 212.929 80.031 213.541 80.031C214.357 80.031 214.958 79.9063 215.343 79.657C215.74 79.3963 215.938 79.0337 215.938 78.569C215.938 78.2403 215.83 77.9853 215.615 77.804C215.4 77.6113 215.128 77.4697 214.799 77.379C214.47 77.277 214.034 77.1807 213.49 77.09C212.765 76.954 212.181 76.818 211.739 76.682C211.297 76.5347 210.917 76.291 210.6 75.951C210.294 75.611 210.141 75.1407 210.141 74.54C210.141 73.792 210.453 73.18 211.076 72.704C211.699 72.228 212.566 71.99 213.677 71.99C214.255 71.99 214.833 72.0693 215.411 72.228C215.989 72.3753 216.465 72.5737 216.839 72.823L216.312 73.792C215.575 73.282 214.697 73.027 213.677 73.027C212.906 73.027 212.323 73.163 211.926 73.435C211.541 73.707 211.348 74.064 211.348 74.506C211.348 74.846 211.456 75.118 211.671 75.322C211.898 75.526 212.175 75.679 212.504 75.781C212.833 75.8717 213.286 75.968 213.864 76.07C214.578 76.206 215.15 76.342 215.581 76.478C216.012 76.614 216.38 76.8463 216.686 77.175C216.992 77.5037 217.145 77.957 217.145 78.535C217.145 79.317 216.816 79.9403 216.159 80.405C215.513 80.8583 214.612 81.085 213.456 81.085ZM228.535 80.456C228.308 80.66 228.025 80.8187 227.685 80.932C227.356 81.034 227.01 81.085 226.648 81.085C225.809 81.085 225.163 80.8583 224.71 80.405C224.256 79.9517 224.03 79.3113 224.03 78.484V73.078H222.432V72.058H224.03V70.103H225.237V72.058H227.957V73.078H225.237V78.416C225.237 78.9487 225.367 79.3567 225.628 79.64C225.9 79.912 226.285 80.048 226.784 80.048C227.033 80.048 227.271 80.0083 227.498 79.929C227.736 79.8497 227.94 79.7363 228.11 79.589L228.535 80.456ZM231.888 73.809C232.171 73.2083 232.59 72.755 233.146 72.449C233.712 72.143 234.409 71.99 235.237 71.99V73.163L234.948 73.146C234.007 73.146 233.27 73.435 232.738 74.013C232.205 74.591 231.939 75.4013 231.939 76.444V81H230.732V72.058H231.888V73.809ZM245.125 76.903H237.645C237.713 77.8323 238.07 78.586 238.716 79.164C239.362 79.7307 240.178 80.014 241.164 80.014C241.72 80.014 242.23 79.9177 242.694 79.725C243.159 79.521 243.561 79.2263 243.901 78.841L244.581 79.623C244.185 80.099 243.686 80.4617 243.085 80.711C242.496 80.9603 241.844 81.085 241.13 81.085C240.212 81.085 239.396 80.8923 238.682 80.507C237.98 80.1103 237.43 79.5663 237.033 78.875C236.637 78.1837 236.438 77.4017 236.438 76.529C236.438 75.6563 236.625 74.8743 236.999 74.183C237.385 73.4917 237.906 72.9533 238.563 72.568C239.232 72.1827 239.98 71.99 240.807 71.99C241.635 71.99 242.377 72.1827 243.034 72.568C243.692 72.9533 244.207 73.4917 244.581 74.183C244.955 74.863 245.142 75.645 245.142 76.529L245.125 76.903ZM240.807 73.027C239.946 73.027 239.221 73.3047 238.631 73.86C238.053 74.404 237.725 75.118 237.645 76.002H243.986C243.907 75.118 243.573 74.404 242.983 73.86C242.405 73.3047 241.68 73.027 240.807 73.027ZM237.968 68.556H239.583L241.912 70.664H240.722L237.968 68.556ZM249.996 81.085C249.271 81.085 248.574 80.983 247.905 80.779C247.248 80.5637 246.732 80.2973 246.358 79.98L246.902 79.028C247.276 79.3227 247.746 79.5663 248.313 79.759C248.88 79.9403 249.469 80.031 250.081 80.031C250.897 80.031 251.498 79.9063 251.883 79.657C252.28 79.3963 252.478 79.0337 252.478 78.569C252.478 78.2403 252.37 77.9853 252.155 77.804C251.94 77.6113 251.668 77.4697 251.339 77.379C251.01 77.277 250.574 77.1807 250.03 77.09C249.305 76.954 248.721 76.818 248.279 76.682C247.837 76.5347 247.457 76.291 247.14 75.951C246.834 75.611 246.681 75.1407 246.681 74.54C246.681 73.792 246.993 73.18 247.616 72.704C248.239 72.228 249.106 71.99 250.217 71.99C250.795 71.99 251.373 72.0693 251.951 72.228C252.529 72.3753 253.005 72.5737 253.379 72.823L252.852 73.792C252.115 73.282 251.237 73.027 250.217 73.027C249.446 73.027 248.863 73.163 248.466 73.435C248.081 73.707 247.888 74.064 247.888 74.506C247.888 74.846 247.996 75.118 248.211 75.322C248.438 75.526 248.715 75.679 249.044 75.781C249.373 75.8717 249.826 75.968 250.404 76.07C251.118 76.206 251.69 76.342 252.121 76.478C252.552 76.614 252.92 76.8463 253.226 77.175C253.532 77.5037 253.685 77.957 253.685 78.535C253.685 79.317 253.356 79.9403 252.699 80.405C252.053 80.8583 251.152 81.085 249.996 81.085ZM18.29 92.99C19.1287 92.99 19.888 93.1827 20.568 93.568C21.248 93.942 21.7807 94.4747 22.166 95.166C22.5513 95.8573 22.744 96.645 22.744 97.529C22.744 98.413 22.5513 99.2007 22.166 99.892C21.7807 100.583 21.248 101.122 20.568 101.507C19.888 101.892 19.1287 102.085 18.29 102.085C17.542 102.085 16.8677 101.926 16.267 101.609C15.6777 101.292 15.2017 100.833 14.839 100.232V102H13.683V89.386H14.89V94.758C15.264 94.18 15.74 93.7437 16.318 93.449C16.9073 93.143 17.5647 92.99 18.29 92.99ZM18.205 101.014C18.8283 101.014 19.395 100.872 19.905 100.589C20.415 100.294 20.8117 99.8807 21.095 99.348C21.3897 98.8153 21.537 98.209 21.537 97.529C21.537 96.849 21.3897 96.2427 21.095 95.71C20.8117 95.1773 20.415 94.7693 19.905 94.486C19.395 94.1913 18.8283 94.044 18.205 94.044C17.5703 94.044 16.998 94.1913 16.488 94.486C15.9893 94.7693 15.5927 95.1773 15.298 95.71C15.0147 96.2427 14.873 96.849 14.873 97.529C14.873 98.209 15.0147 98.8153 15.298 99.348C15.5927 99.8807 15.9893 100.294 16.488 100.589C16.998 100.872 17.5703 101.014 18.205 101.014ZM25.2045 93.058H26.4115V102H25.2045V93.058ZM25.8165 91.103C25.5672 91.103 25.3575 91.018 25.1875 90.848C25.0175 90.678 24.9325 90.474 24.9325 90.236C24.9325 90.0093 25.0175 89.811 25.1875 89.641C25.3575 89.471 25.5672 89.386 25.8165 89.386C26.0658 89.386 26.2755 89.471 26.4455 89.641C26.6155 89.7997 26.7005 89.9923 26.7005 90.219C26.7005 90.4683 26.6155 90.678 26.4455 90.848C26.2755 91.018 26.0658 91.103 25.8165 91.103ZM37.5559 97.903H30.0759C30.1439 98.8323 30.5009 99.586 31.1469 100.164C31.7929 100.731 32.6089 101.014 33.5949 101.014C34.1502 101.014 34.6602 100.918 35.1249 100.725C35.5896 100.521 35.9919 100.226 36.3319 99.841L37.0119 100.623C36.6152 101.099 36.1166 101.462 35.5159 101.711C34.9266 101.96 34.2749 102.085 33.5609 102.085C32.6429 102.085 31.8269 101.892 31.1129 101.507C30.4102 101.11 29.8606 100.566 29.4639 99.875C29.0672 99.1837 28.8689 98.4017 28.8689 97.529C28.8689 96.6563 29.0559 95.8743 29.4299 95.183C29.8152 94.4917 30.3366 93.9533 30.9939 93.568C31.6626 93.1827 32.4106 92.99 33.2379 92.99C34.0652 92.99 34.8076 93.1827 35.4649 93.568C36.1222 93.9533 36.6379 94.4917 37.0119 95.183C37.3859 95.863 37.5729 96.645 37.5729 97.529L37.5559 97.903ZM33.2379 94.027C32.3766 94.027 31.6512 94.3047 31.0619 94.86C30.4839 95.404 30.1552 96.118 30.0759 97.002H36.4169C36.3376 96.118 36.0032 95.404 35.4139 94.86C34.8359 94.3047 34.1106 94.027 33.2379 94.027ZM44.5857 92.99C45.7077 92.99 46.5973 93.3187 47.2547 93.976C47.9233 94.622 48.2577 95.5683 48.2577 96.815V102H47.0507V96.934C47.0507 96.0047 46.8183 95.2963 46.3537 94.809C45.889 94.3217 45.226 94.078 44.3647 94.078C43.4013 94.078 42.6363 94.367 42.0697 94.945C41.5143 95.5117 41.2367 96.2993 41.2367 97.308V102H40.0297V93.058H41.1857V94.707C41.5143 94.163 41.9677 93.7437 42.5457 93.449C43.135 93.143 43.815 92.99 44.5857 92.99ZM55.9838 89.386H57.1908V102H55.9838V89.386ZM63.6772 92.99C64.8445 92.99 65.7399 93.2847 66.3632 93.874C66.9865 94.452 67.2982 95.3133 67.2982 96.458V102H66.1422V100.606C65.8702 101.071 65.4679 101.433 64.9352 101.694C64.4139 101.955 63.7905 102.085 63.0652 102.085C62.0679 102.085 61.2745 101.847 60.6852 101.371C60.0959 100.895 59.8012 100.266 59.8012 99.484C59.8012 98.7247 60.0732 98.1127 60.6172 97.648C61.1725 97.1833 62.0509 96.951 63.2522 96.951H66.0912V96.407C66.0912 95.6363 65.8759 95.0527 65.4452 94.656C65.0145 94.248 64.3855 94.044 63.5582 94.044C62.9915 94.044 62.4475 94.1403 61.9262 94.333C61.4049 94.5143 60.9572 94.7693 60.5832 95.098L60.0392 94.197C60.4925 93.8117 61.0365 93.517 61.6712 93.313C62.3059 93.0977 62.9745 92.99 63.6772 92.99ZM63.2522 101.133C63.9322 101.133 64.5159 100.98 65.0032 100.674C65.4905 100.357 65.8532 99.9033 66.0912 99.314V97.852H63.2862C61.7562 97.852 60.9912 98.3847 60.9912 99.45C60.9912 99.9713 61.1895 100.385 61.5862 100.691C61.9829 100.986 62.5382 101.133 63.2522 101.133ZM82.5398 93.058L78.5618 102H77.3208L73.3598 93.058H74.6178L77.9668 100.674L81.3498 93.058H82.5398ZM84.2396 93.058H85.4466V102H84.2396V93.058ZM84.8516 91.103C84.6023 91.103 84.3926 91.018 84.2226 90.848C84.0526 90.678 83.9676 90.474 83.9676 90.236C83.9676 90.0093 84.0526 89.811 84.2226 89.641C84.3926 89.471 84.6023 89.386 84.8516 89.386C85.101 89.386 85.3106 89.471 85.4806 89.641C85.6506 89.7997 85.7356 89.9923 85.7356 90.219C85.7356 90.4683 85.6506 90.678 85.4806 90.848C85.3106 91.018 85.101 91.103 84.8516 91.103ZM88.8051 89.386H90.0121V102H88.8051V89.386ZM93.3705 89.386H94.5775V102H93.3705V89.386ZM105.722 97.903H98.2419C98.3099 98.8323 98.6669 99.586 99.3129 100.164C99.9589 100.731 100.775 101.014 101.761 101.014C102.316 101.014 102.826 100.918 103.291 100.725C103.756 100.521 104.158 100.226 104.498 99.841L105.178 100.623C104.781 101.099 104.283 101.462 103.682 101.711C103.093 101.96 102.441 102.085 101.727 102.085C100.809 102.085 99.9929 101.892 99.2789 101.507C98.5763 101.11 98.0266 100.566 97.6299 99.875C97.2333 99.1837 97.0349 98.4017 97.0349 97.529C97.0349 96.6563 97.2219 95.8743 97.5959 95.183C97.9813 94.4917 98.5026 93.9533 99.1599 93.568C99.8286 93.1827 100.577 92.99 101.404 92.99C102.231 92.99 102.974 93.1827 103.631 93.568C104.288 93.9533 104.804 94.4917 105.178 95.183C105.552 95.863 105.739 96.645 105.739 97.529L105.722 97.903ZM101.404 94.027C100.543 94.027 99.8173 94.3047 99.2279 94.86C98.6499 95.404 98.3213 96.118 98.2419 97.002H104.583C104.504 96.118 104.169 95.404 103.58 94.86C103.002 94.3047 102.277 94.027 101.404 94.027ZM108.315 102.085C108.065 102.085 107.85 101.994 107.669 101.813C107.499 101.632 107.414 101.411 107.414 101.15C107.414 100.889 107.499 100.674 107.669 100.504C107.85 100.323 108.065 100.232 108.315 100.232C108.564 100.232 108.779 100.323 108.961 100.504C109.142 100.674 109.233 100.889 109.233 101.15C109.233 101.411 109.142 101.632 108.961 101.813C108.779 101.994 108.564 102.085 108.315 102.085ZM122.227 102.102C121.547 102.102 120.918 101.955 120.34 101.66C119.762 101.365 119.291 100.946 118.929 100.402L119.677 99.552C120.334 100.527 121.19 101.014 122.244 101.014C123.717 101.014 124.454 100.141 124.454 98.396V91.188H120.102V90.1H125.695V98.345C125.695 99.5917 125.4 100.532 124.811 101.167C124.233 101.79 123.371 102.102 122.227 102.102ZM136.999 97.903H129.519C129.587 98.8323 129.944 99.586 130.59 100.164C131.236 100.731 132.052 101.014 133.038 101.014C133.594 101.014 134.104 100.918 134.568 100.725C135.033 100.521 135.435 100.226 135.775 99.841L136.455 100.623C136.059 101.099 135.56 101.462 134.959 101.711C134.37 101.96 133.718 102.085 133.004 102.085C132.086 102.085 131.27 101.892 130.556 101.507C129.854 101.11 129.304 100.566 128.907 99.875C128.511 99.1837 128.312 98.4017 128.312 97.529C128.312 96.6563 128.499 95.8743 128.873 95.183C129.259 94.4917 129.78 93.9533 130.437 93.568C131.106 93.1827 131.854 92.99 132.681 92.99C133.509 92.99 134.251 93.1827 134.908 93.568C135.566 93.9533 136.081 94.4917 136.455 95.183C136.829 95.863 137.016 96.645 137.016 97.529L136.999 97.903ZM132.681 94.027C131.82 94.027 131.095 94.3047 130.505 94.86C129.927 95.404 129.599 96.118 129.519 97.002H135.86C135.781 96.118 135.447 95.404 134.857 94.86C134.279 94.3047 133.554 94.027 132.681 94.027ZM146.319 102.085C145.594 102.085 144.897 101.983 144.228 101.779C143.571 101.564 143.055 101.297 142.681 100.98L143.225 100.028C143.599 100.323 144.07 100.566 144.636 100.759C145.203 100.94 145.792 101.031 146.404 101.031C147.22 101.031 147.821 100.906 148.206 100.657C148.603 100.396 148.801 100.034 148.801 99.569C148.801 99.2403 148.694 98.9853 148.478 98.804C148.263 98.6113 147.991 98.4697 147.662 98.379C147.334 98.277 146.897 98.1807 146.353 98.09C145.628 97.954 145.044 97.818 144.602 97.682C144.16 97.5347 143.781 97.291 143.463 96.951C143.157 96.611 143.004 96.1407 143.004 95.54C143.004 94.792 143.316 94.18 143.939 93.704C144.563 93.228 145.43 92.99 146.54 92.99C147.118 92.99 147.696 93.0693 148.274 93.228C148.852 93.3753 149.328 93.5737 149.702 93.823L149.175 94.792C148.439 94.282 147.56 94.027 146.54 94.027C145.77 94.027 145.186 94.163 144.789 94.435C144.404 94.707 144.211 95.064 144.211 95.506C144.211 95.846 144.319 96.118 144.534 96.322C144.761 96.526 145.039 96.679 145.367 96.781C145.696 96.8717 146.149 96.968 146.727 97.07C147.441 97.206 148.014 97.342 148.444 97.478C148.875 97.614 149.243 97.8463 149.549 98.175C149.855 98.5037 150.008 98.957 150.008 99.535C150.008 100.317 149.68 100.94 149.022 101.405C148.376 101.858 147.475 102.085 146.319 102.085ZM160.298 93.058V102H159.142V100.368C158.824 100.912 158.388 101.337 157.833 101.643C157.277 101.938 156.643 102.085 155.929 102.085C154.761 102.085 153.838 101.762 153.158 101.116C152.489 100.459 152.155 99.501 152.155 98.243V93.058H153.362V98.124C153.362 99.0647 153.594 99.7787 154.059 100.266C154.523 100.753 155.186 100.997 156.048 100.997C156.988 100.997 157.731 100.714 158.275 100.147C158.819 99.569 159.091 98.77 159.091 97.75V93.058H160.298ZM163.678 93.058H164.885V102H163.678V93.058ZM164.29 91.103C164.041 91.103 163.831 91.018 163.661 90.848C163.491 90.678 163.406 90.474 163.406 90.236C163.406 90.0093 163.491 89.811 163.661 89.641C163.831 89.471 164.041 89.386 164.29 89.386C164.539 89.386 164.749 89.471 164.919 89.641C165.089 89.7997 165.174 89.9923 165.174 90.219C165.174 90.4683 165.089 90.678 164.919 90.848C164.749 91.018 164.539 91.103 164.29 91.103ZM170.641 102.085C169.915 102.085 169.218 101.983 168.55 101.779C167.892 101.564 167.377 101.297 167.003 100.98L167.547 100.028C167.921 100.323 168.391 100.566 168.958 100.759C169.524 100.94 170.114 101.031 170.726 101.031C171.542 101.031 172.142 100.906 172.528 100.657C172.924 100.396 173.123 100.034 173.123 99.569C173.123 99.2403 173.015 98.9853 172.8 98.804C172.584 98.6113 172.312 98.4697 171.984 98.379C171.655 98.277 171.219 98.1807 170.675 98.09C169.949 97.954 169.366 97.818 168.924 97.682C168.482 97.5347 168.102 97.291 167.785 96.951C167.479 96.611 167.326 96.1407 167.326 95.54C167.326 94.792 167.637 94.18 168.261 93.704C168.884 93.228 169.751 92.99 170.862 92.99C171.44 92.99 172.018 93.0693 172.596 93.228C173.174 93.3753 173.65 93.5737 174.024 93.823L173.497 94.792C172.76 94.282 171.882 94.027 170.862 94.027C170.091 94.027 169.507 94.163 169.111 94.435C168.725 94.707 168.533 95.064 168.533 95.506C168.533 95.846 168.64 96.118 168.856 96.322C169.082 96.526 169.36 96.679 169.689 96.781C170.017 96.8717 170.471 96.968 171.049 97.07C171.763 97.206 172.335 97.342 172.766 97.478C173.196 97.614 173.565 97.8463 173.871 98.175C174.177 98.5037 174.33 98.957 174.33 99.535C174.33 100.317 174.001 100.94 173.344 101.405C172.698 101.858 171.797 102.085 170.641 102.085ZM179.684 105.383C179.31 105.383 178.959 105.332 178.63 105.23C178.29 105.139 178.012 104.998 177.797 104.805L178.222 103.887C178.573 104.193 179.038 104.346 179.616 104.346C180.092 104.346 180.455 104.204 180.704 103.921C180.965 103.638 181.095 103.218 181.095 102.663V93.058H182.302V102.663C182.302 103.502 182.075 104.165 181.622 104.652C181.169 105.139 180.523 105.383 179.684 105.383ZM181.707 91.086C181.458 91.086 181.248 91.001 181.078 90.831C180.908 90.661 180.823 90.457 180.823 90.219C180.823 89.9923 180.908 89.794 181.078 89.624C181.248 89.454 181.458 89.369 181.707 89.369C181.956 89.369 182.166 89.454 182.336 89.624C182.506 89.7827 182.591 89.9753 182.591 90.202C182.591 90.4513 182.506 90.661 182.336 90.831C182.166 91.001 181.956 91.086 181.707 91.086ZM193.733 93.058V102H192.577V100.368C192.26 100.912 191.824 101.337 191.268 101.643C190.713 101.938 190.078 102.085 189.364 102.085C188.197 102.085 187.273 101.762 186.593 101.116C185.925 100.459 185.59 99.501 185.59 98.243V93.058H186.797V98.124C186.797 99.0647 187.03 99.7787 187.494 100.266C187.959 100.753 188.622 100.997 189.483 100.997C190.424 100.997 191.166 100.714 191.71 100.147C192.254 99.569 192.526 98.77 192.526 97.75V93.058H193.733ZM199.511 102.085C198.785 102.085 198.088 101.983 197.42 101.779C196.762 101.564 196.247 101.297 195.873 100.98L196.417 100.028C196.791 100.323 197.261 100.566 197.828 100.759C198.394 100.94 198.984 101.031 199.596 101.031C200.412 101.031 201.012 100.906 201.398 100.657C201.794 100.396 201.993 100.034 201.993 99.569C201.993 99.2403 201.885 98.9853 201.67 98.804C201.454 98.6113 201.182 98.4697 200.854 98.379C200.525 98.277 200.089 98.1807 199.545 98.09C198.819 97.954 198.236 97.818 197.794 97.682C197.352 97.5347 196.972 97.291 196.655 96.951C196.349 96.611 196.196 96.1407 196.196 95.54C196.196 94.792 196.507 94.18 197.131 93.704C197.754 93.228 198.621 92.99 199.732 92.99C200.31 92.99 200.888 93.0693 201.466 93.228C202.044 93.3753 202.52 93.5737 202.894 93.823L202.367 94.792C201.63 94.282 200.752 94.027 199.732 94.027C198.961 94.027 198.377 94.163 197.981 94.435C197.595 94.707 197.403 95.064 197.403 95.506C197.403 95.846 197.51 96.118 197.726 96.322C197.952 96.526 198.23 96.679 198.559 96.781C198.887 96.8717 199.341 96.968 199.919 97.07C200.633 97.206 201.205 97.342 201.636 97.478C202.066 97.614 202.435 97.8463 202.741 98.175C203.047 98.5037 203.2 98.957 203.2 99.535C203.2 100.317 202.871 100.94 202.214 101.405C201.568 101.858 200.667 102.085 199.511 102.085ZM210.14 101.456C209.913 101.66 209.63 101.819 209.29 101.932C208.961 102.034 208.616 102.085 208.253 102.085C207.414 102.085 206.768 101.858 206.315 101.405C205.862 100.952 205.635 100.311 205.635 99.484V94.078H204.037V93.058H205.635V91.103H206.842V93.058H209.562V94.078H206.842V99.416C206.842 99.9487 206.972 100.357 207.233 100.64C207.505 100.912 207.89 101.048 208.389 101.048C208.638 101.048 208.876 101.008 209.103 100.929C209.341 100.85 209.545 100.736 209.715 100.589L210.14 101.456ZM219.808 97.903H212.328C212.396 98.8323 212.753 99.586 213.399 100.164C214.045 100.731 214.861 101.014 215.847 101.014C216.402 101.014 216.912 100.918 217.377 100.725C217.842 100.521 218.244 100.226 218.584 99.841L219.264 100.623C218.867 101.099 218.369 101.462 217.768 101.711C217.179 101.96 216.527 102.085 215.813 102.085C214.895 102.085 214.079 101.892 213.365 101.507C212.662 101.11 212.113 100.566 211.716 99.875C211.319 99.1837 211.121 98.4017 211.121 97.529C211.121 96.6563 211.308 95.8743 211.682 95.183C212.067 94.4917 212.589 93.9533 213.246 93.568C213.915 93.1827 214.663 92.99 215.49 92.99C216.317 92.99 217.06 93.1827 217.717 93.568C218.374 93.9533 218.89 94.4917 219.264 95.183C219.638 95.863 219.825 96.645 219.825 97.529L219.808 97.903ZM215.49 94.027C214.629 94.027 213.903 94.3047 213.314 94.86C212.736 95.404 212.407 96.118 212.328 97.002H218.669C218.59 96.118 218.255 95.404 217.666 94.86C217.088 94.3047 216.363 94.027 215.49 94.027ZM233.434 92.99C234.556 92.99 235.434 93.313 236.069 93.959C236.715 94.605 237.038 95.557 237.038 96.815V102H235.831V96.934C235.831 96.0047 235.604 95.2963 235.151 94.809C234.709 94.3217 234.08 94.078 233.264 94.078C232.334 94.078 231.603 94.367 231.071 94.945C230.538 95.5117 230.272 96.2993 230.272 97.308V102H229.065V96.934C229.065 96.0047 228.838 95.2963 228.385 94.809C227.943 94.3217 227.308 94.078 226.481 94.078C225.563 94.078 224.832 94.367 224.288 94.945C223.755 95.5117 223.489 96.2993 223.489 97.308V102H222.282V93.058H223.438V94.69C223.755 94.146 224.197 93.7267 224.764 93.432C225.33 93.1373 225.982 92.99 226.719 92.99C227.467 92.99 228.113 93.1487 228.657 93.466C229.212 93.7833 229.626 94.2537 229.898 94.877C230.226 94.2877 230.697 93.8287 231.309 93.5C231.932 93.16 232.64 92.99 233.434 92.99ZM248.13 97.903H240.65C240.718 98.8323 241.075 99.586 241.721 100.164C242.367 100.731 243.183 101.014 244.169 101.014C244.724 101.014 245.234 100.918 245.699 100.725C246.164 100.521 246.566 100.226 246.906 99.841L247.586 100.623C247.189 101.099 246.691 101.462 246.09 101.711C245.501 101.96 244.849 102.085 244.135 102.085C243.217 102.085 242.401 101.892 241.687 101.507C240.984 101.11 240.435 100.566 240.038 99.875C239.641 99.1837 239.443 98.4017 239.443 97.529C239.443 96.6563 239.63 95.8743 240.004 95.183C240.389 94.4917 240.911 93.9533 241.568 93.568C242.237 93.1827 242.985 92.99 243.812 92.99C244.639 92.99 245.382 93.1827 246.039 93.568C246.696 93.9533 247.212 94.4917 247.586 95.183C247.96 95.863 248.147 96.645 248.147 97.529L248.13 97.903ZM243.812 94.027C242.951 94.027 242.225 94.3047 241.636 94.86C241.058 95.404 240.729 96.118 240.65 97.002H246.991C246.912 96.118 246.577 95.404 245.988 94.86C245.41 94.3047 244.685 94.027 243.812 94.027ZM255.16 92.99C256.282 92.99 257.172 93.3187 257.829 93.976C258.498 94.622 258.832 95.5683 258.832 96.815V102H257.625V96.934C257.625 96.0047 257.393 95.2963 256.928 94.809C256.463 94.3217 255.8 94.078 254.939 94.078C253.976 94.078 253.211 94.367 252.644 94.945C252.089 95.5117 251.811 96.2993 251.811 97.308V102H250.604V93.058H251.76V94.707C252.089 94.163 252.542 93.7437 253.12 93.449C253.709 93.143 254.389 92.99 255.16 92.99ZM266.818 101.456C266.591 101.66 266.308 101.819 265.968 101.932C265.639 102.034 265.293 102.085 264.931 102.085C264.092 102.085 263.446 101.858 262.993 101.405C262.539 100.952 262.313 100.311 262.313 99.484V94.078H260.715V93.058H262.313V91.103H263.52V93.058H266.24V94.078H263.52V99.416C263.52 99.9487 263.65 100.357 263.911 100.64C264.183 100.912 264.568 101.048 265.067 101.048C265.316 101.048 265.554 101.008 265.781 100.929C266.019 100.85 266.223 100.736 266.393 100.589L266.818 101.456ZM21.197 114.058L17.219 123H15.978L12.017 114.058H13.275L16.624 121.674L20.007 114.058H21.197ZM30.4338 118.903H22.9538C23.0218 119.832 23.3788 120.586 24.0248 121.164C24.6708 121.731 25.4868 122.014 26.4728 122.014C27.0282 122.014 27.5382 121.918 28.0028 121.725C28.4675 121.521 28.8698 121.226 29.2098 120.841L29.8898 121.623C29.4932 122.099 28.9945 122.462 28.3938 122.711C27.8045 122.96 27.1528 123.085 26.4388 123.085C25.5208 123.085 24.7048 122.892 23.9908 122.507C23.2882 122.11 22.7385 121.566 22.3418 120.875C21.9452 120.184 21.7468 119.402 21.7468 118.529C21.7468 117.656 21.9338 116.874 22.3078 116.183C22.6932 115.492 23.2145 114.953 23.8718 114.568C24.5405 114.183 25.2885 113.99 26.1158 113.99C26.9432 113.99 27.6855 114.183 28.3428 114.568C29.0002 114.953 29.5158 115.492 29.8898 116.183C30.2638 116.863 30.4508 117.645 30.4508 118.529L30.4338 118.903ZM26.1158 115.027C25.2545 115.027 24.5292 115.305 23.9398 115.86C23.3618 116.404 23.0332 117.118 22.9538 118.002H29.2948C29.2155 117.118 28.8812 116.404 28.2918 115.86C27.7138 115.305 26.9885 115.027 26.1158 115.027ZM37.4636 113.99C38.5856 113.99 39.4753 114.319 40.1326 114.976C40.8013 115.622 41.1356 116.568 41.1356 117.815V123H39.9286V117.934C39.9286 117.005 39.6963 116.296 39.2316 115.809C38.7669 115.322 38.1039 115.078 37.2426 115.078C36.2793 115.078 35.5143 115.367 34.9476 115.945C34.3923 116.512 34.1146 117.299 34.1146 118.308V123H32.9076V114.058H34.0636V115.707C34.3923 115.163 34.8456 114.744 35.4236 114.449C36.0129 114.143 36.6929 113.99 37.4636 113.99ZM52.4705 114.058V123H51.3145V121.368C50.9972 121.912 50.5608 122.337 50.0055 122.643C49.4502 122.938 48.8155 123.085 48.1015 123.085C46.9342 123.085 46.0105 122.762 45.3305 122.116C44.6618 121.459 44.3275 120.501 44.3275 119.243V114.058H45.5345V119.124C45.5345 120.065 45.7668 120.779 46.2315 121.266C46.6962 121.753 47.3592 121.997 48.2205 121.997C49.1612 121.997 49.9035 121.714 50.4475 121.147C50.9915 120.569 51.2635 119.77 51.2635 118.75V114.058H52.4705ZM67.8142 114.058L63.8362 123H62.5952L58.6342 114.058H59.8922L63.2412 121.674L66.6242 114.058H67.8142ZM69.5141 114.058H70.7211V123H69.5141V114.058ZM70.1261 112.103C69.8767 112.103 69.6671 112.018 69.4971 111.848C69.3271 111.678 69.2421 111.474 69.2421 111.236C69.2421 111.009 69.3271 110.811 69.4971 110.641C69.6671 110.471 69.8767 110.386 70.1261 110.386C70.3754 110.386 70.5851 110.471 70.7551 110.641C70.9251 110.8 71.0101 110.992 71.0101 111.219C71.0101 111.468 70.9251 111.678 70.7551 111.848C70.5851 112.018 70.3754 112.103 70.1261 112.103ZM76.4765 123.085C75.7512 123.085 75.0542 122.983 74.3855 122.779C73.7282 122.564 73.2125 122.297 72.8385 121.98L73.3825 121.028C73.7565 121.323 74.2268 121.566 74.7935 121.759C75.3602 121.94 75.9495 122.031 76.5615 122.031C77.3775 122.031 77.9782 121.906 78.3635 121.657C78.7602 121.396 78.9585 121.034 78.9585 120.569C78.9585 120.24 78.8508 119.985 78.6355 119.804C78.4202 119.611 78.1482 119.47 77.8195 119.379C77.4908 119.277 77.0545 119.181 76.5105 119.09C75.7852 118.954 75.2015 118.818 74.7595 118.682C74.3175 118.535 73.9378 118.291 73.6205 117.951C73.3145 117.611 73.1615 117.141 73.1615 116.54C73.1615 115.792 73.4732 115.18 74.0965 114.704C74.7198 114.228 75.5868 113.99 76.6975 113.99C77.2755 113.99 77.8535 114.069 78.4315 114.228C79.0095 114.375 79.4855 114.574 79.8595 114.823L79.3325 115.792C78.5958 115.282 77.7175 115.027 76.6975 115.027C75.9268 115.027 75.3432 115.163 74.9465 115.435C74.5612 115.707 74.3685 116.064 74.3685 116.506C74.3685 116.846 74.4762 117.118 74.6915 117.322C74.9182 117.526 75.1958 117.679 75.5245 117.781C75.8532 117.872 76.3065 117.968 76.8845 118.07C77.5985 118.206 78.1708 118.342 78.6015 118.478C79.0322 118.614 79.4005 118.846 79.7065 119.175C80.0125 119.504 80.1655 119.957 80.1655 120.535C80.1655 121.317 79.8368 121.94 79.1795 122.405C78.5335 122.858 77.6325 123.085 76.4765 123.085ZM82.3969 114.058H83.6039V123H82.3969V114.058ZM83.0089 112.103C82.7595 112.103 82.5499 112.018 82.3799 111.848C82.2099 111.678 82.1249 111.474 82.1249 111.236C82.1249 111.009 82.2099 110.811 82.3799 110.641C82.5499 110.471 82.7595 110.386 83.0089 110.386C83.2582 110.386 83.4679 110.471 83.6379 110.641C83.8079 110.8 83.8929 110.992 83.8929 111.219C83.8929 111.468 83.8079 111.678 83.6379 111.848C83.4679 112.018 83.2582 112.103 83.0089 112.103ZM91.6713 122.456C91.4446 122.66 91.1613 122.819 90.8213 122.932C90.4926 123.034 90.147 123.085 89.7843 123.085C88.9456 123.085 88.2996 122.858 87.8463 122.405C87.393 121.952 87.1663 121.311 87.1663 120.484V115.078H85.5683V114.058H87.1663V112.103H88.3733V114.058H91.0933V115.078H88.3733V120.416C88.3733 120.949 88.5036 121.357 88.7643 121.64C89.0363 121.912 89.4216 122.048 89.9203 122.048C90.1696 122.048 90.4076 122.008 90.6343 121.929C90.8723 121.85 91.0763 121.736 91.2463 121.589L91.6713 122.456ZM101.339 118.903H93.8591C93.9271 119.832 94.2841 120.586 94.9301 121.164C95.5761 121.731 96.3921 122.014 97.3781 122.014C97.9335 122.014 98.4435 121.918 98.9081 121.725C99.3728 121.521 99.7751 121.226 100.115 120.841L100.795 121.623C100.398 122.099 99.8998 122.462 99.2991 122.711C98.7098 122.96 98.0581 123.085 97.3441 123.085C96.4261 123.085 95.6101 122.892 94.8961 122.507C94.1935 122.11 93.6438 121.566 93.2471 120.875C92.8505 120.184 92.6521 119.402 92.6521 118.529C92.6521 117.656 92.8391 116.874 93.2131 116.183C93.5985 115.492 94.1198 114.953 94.7771 114.568C95.4458 114.183 96.1938 113.99 97.0211 113.99C97.8485 113.99 98.5908 114.183 99.2481 114.568C99.9055 114.953 100.421 115.492 100.795 116.183C101.169 116.863 101.356 117.645 101.356 118.529L101.339 118.903ZM97.0211 115.027C96.1598 115.027 95.4345 115.305 94.8451 115.86C94.2671 116.404 93.9385 117.118 93.8591 118.002H100.2C100.121 117.118 99.7865 116.404 99.1971 115.86C98.6191 115.305 97.8938 115.027 97.0211 115.027ZM104.969 115.809C105.252 115.208 105.672 114.755 106.227 114.449C106.794 114.143 107.491 113.99 108.318 113.99V115.163L108.029 115.146C107.088 115.146 106.352 115.435 105.819 116.013C105.286 116.591 105.02 117.401 105.02 118.444V123H103.813V114.058H104.969V115.809ZM118.213 113.99C119.381 113.99 120.276 114.285 120.899 114.874C121.523 115.452 121.834 116.313 121.834 117.458V123H120.678V121.606C120.406 122.071 120.004 122.433 119.471 122.694C118.95 122.955 118.327 123.085 117.601 123.085C116.604 123.085 115.811 122.847 115.221 122.371C114.632 121.895 114.337 121.266 114.337 120.484C114.337 119.725 114.609 119.113 115.153 118.648C115.709 118.183 116.587 117.951 117.788 117.951H120.627V117.407C120.627 116.636 120.412 116.053 119.981 115.656C119.551 115.248 118.922 115.044 118.094 115.044C117.528 115.044 116.984 115.14 116.462 115.333C115.941 115.514 115.493 115.769 115.119 116.098L114.575 115.197C115.029 114.812 115.573 114.517 116.207 114.313C116.842 114.098 117.511 113.99 118.213 113.99ZM117.788 122.133C118.468 122.133 119.052 121.98 119.539 121.674C120.027 121.357 120.389 120.903 120.627 120.314V118.852H117.822C116.292 118.852 115.527 119.385 115.527 120.45C115.527 120.971 115.726 121.385 116.122 121.691C116.519 121.986 117.074 122.133 117.788 122.133ZM132.461 114.058L128.483 123H127.242L123.281 114.058H124.539L127.888 121.674L131.271 114.058H132.461ZM137.023 113.99C138.19 113.99 139.086 114.285 139.709 114.874C140.332 115.452 140.644 116.313 140.644 117.458V123H139.488V121.606C139.216 122.071 138.814 122.433 138.281 122.694C137.76 122.955 137.136 123.085 136.411 123.085C135.414 123.085 134.62 122.847 134.031 122.371C133.442 121.895 133.147 121.266 133.147 120.484C133.147 119.725 133.419 119.113 133.963 118.648C134.518 118.183 135.397 117.951 136.598 117.951H139.437V117.407C139.437 116.636 139.222 116.053 138.791 115.656C138.36 115.248 137.731 115.044 136.904 115.044C136.337 115.044 135.793 115.14 135.272 115.333C134.751 115.514 134.303 115.769 133.929 116.098L133.385 115.197C133.838 114.812 134.382 114.517 135.017 114.313C135.652 114.098 136.32 113.99 137.023 113.99ZM136.598 122.133C137.278 122.133 137.862 121.98 138.349 121.674C138.836 121.357 139.199 120.903 139.437 120.314V118.852H136.632C135.102 118.852 134.337 119.385 134.337 120.45C134.337 120.971 134.535 121.385 134.932 121.691C135.329 121.986 135.884 122.133 136.598 122.133ZM148.478 113.99C149.6 113.99 150.49 114.319 151.147 114.976C151.816 115.622 152.15 116.568 152.15 117.815V123H150.943V117.934C150.943 117.005 150.711 116.296 150.246 115.809C149.782 115.322 149.119 115.078 148.257 115.078C147.294 115.078 146.529 115.367 145.962 115.945C145.407 116.512 145.129 117.299 145.129 118.308V123H143.922V114.058H145.078V115.707C145.407 115.163 145.86 114.744 146.438 114.449C147.028 114.143 147.708 113.99 148.478 113.99ZM160.136 122.456C159.909 122.66 159.626 122.819 159.286 122.932C158.957 123.034 158.612 123.085 158.249 123.085C157.41 123.085 156.764 122.858 156.311 122.405C155.858 121.952 155.631 121.311 155.631 120.484V115.078H154.033V114.058H155.631V112.103H156.838V114.058H159.558V115.078H156.838V120.416C156.838 120.949 156.968 121.357 157.229 121.64C157.501 121.912 157.886 122.048 158.385 122.048C158.634 122.048 158.872 122.008 159.099 121.929C159.337 121.85 159.541 121.736 159.711 121.589L160.136 122.456ZM174.943 110.386V123H173.787V121.232C173.424 121.833 172.942 122.292 172.342 122.609C171.752 122.926 171.084 123.085 170.336 123.085C169.497 123.085 168.738 122.892 168.058 122.507C167.378 122.122 166.845 121.583 166.46 120.892C166.074 120.201 165.882 119.413 165.882 118.529C165.882 117.645 166.074 116.857 166.46 116.166C166.845 115.475 167.378 114.942 168.058 114.568C168.738 114.183 169.497 113.99 170.336 113.99C171.061 113.99 171.713 114.143 172.291 114.449C172.88 114.744 173.362 115.18 173.736 115.758V110.386H174.943ZM170.438 122.014C171.061 122.014 171.622 121.872 172.121 121.589C172.631 121.294 173.027 120.881 173.311 120.348C173.605 119.815 173.753 119.209 173.753 118.529C173.753 117.849 173.605 117.243 173.311 116.71C173.027 116.177 172.631 115.769 172.121 115.486C171.622 115.191 171.061 115.044 170.438 115.044C169.803 115.044 169.231 115.191 168.721 115.486C168.222 115.769 167.825 116.177 167.531 116.71C167.247 117.243 167.106 117.849 167.106 118.529C167.106 119.209 167.247 119.815 167.531 120.348C167.825 120.881 168.222 121.294 168.721 121.589C169.231 121.872 169.803 122.014 170.438 122.014ZM186.09 118.903H178.61C178.678 119.832 179.035 120.586 179.681 121.164C180.327 121.731 181.143 122.014 182.129 122.014C182.684 122.014 183.194 121.918 183.659 121.725C184.124 121.521 184.526 121.226 184.866 120.841L185.546 121.623C185.149 122.099 184.651 122.462 184.05 122.711C183.461 122.96 182.809 123.085 182.095 123.085C181.177 123.085 180.361 122.892 179.647 122.507C178.944 122.11 178.395 121.566 177.998 120.875C177.601 120.184 177.403 119.402 177.403 118.529C177.403 117.656 177.59 116.874 177.964 116.183C178.349 115.492 178.871 114.953 179.528 114.568C180.197 114.183 180.945 113.99 181.772 113.99C182.599 113.99 183.342 114.183 183.999 114.568C184.656 114.953 185.172 115.492 185.546 116.183C185.92 116.863 186.107 117.645 186.107 118.529L186.09 118.903ZM181.772 115.027C180.911 115.027 180.185 115.305 179.596 115.86C179.018 116.404 178.689 117.118 178.61 118.002H184.951C184.872 117.118 184.537 116.404 183.948 115.86C183.37 115.305 182.645 115.027 181.772 115.027ZM196.719 123.085C195.835 123.085 195.042 122.892 194.339 122.507C193.648 122.122 193.104 121.583 192.707 120.892C192.31 120.189 192.112 119.402 192.112 118.529C192.112 117.656 192.31 116.874 192.707 116.183C193.104 115.492 193.648 114.953 194.339 114.568C195.042 114.183 195.835 113.99 196.719 113.99C197.49 113.99 198.175 114.143 198.776 114.449C199.388 114.744 199.87 115.18 200.221 115.758L199.32 116.37C199.025 115.928 198.651 115.599 198.198 115.384C197.745 115.157 197.252 115.044 196.719 115.044C196.073 115.044 195.489 115.191 194.968 115.486C194.458 115.769 194.056 116.177 193.761 116.71C193.478 117.243 193.336 117.849 193.336 118.529C193.336 119.22 193.478 119.832 193.761 120.365C194.056 120.886 194.458 121.294 194.968 121.589C195.489 121.872 196.073 122.014 196.719 122.014C197.252 122.014 197.745 121.906 198.198 121.691C198.651 121.476 199.025 121.147 199.32 120.705L200.221 121.317C199.87 121.895 199.388 122.337 198.776 122.643C198.164 122.938 197.478 123.085 196.719 123.085ZM207.015 113.99C208.137 113.99 209.027 114.319 209.684 114.976C210.353 115.622 210.687 116.568 210.687 117.815V123H209.48V117.934C209.48 117.005 209.248 116.296 208.783 115.809C208.319 115.322 207.656 115.078 206.794 115.078C205.831 115.078 205.066 115.367 204.499 115.945C203.944 116.512 203.666 117.299 203.666 118.308V123H202.459V110.386H203.666V115.622C203.995 115.101 204.448 114.698 205.026 114.415C205.604 114.132 206.267 113.99 207.015 113.99ZM217.652 123.085C216.791 123.085 216.015 122.892 215.323 122.507C214.632 122.11 214.088 121.566 213.691 120.875C213.295 120.184 213.096 119.402 213.096 118.529C213.096 117.656 213.295 116.874 213.691 116.183C214.088 115.492 214.632 114.953 215.323 114.568C216.015 114.183 216.791 113.99 217.652 113.99C218.514 113.99 219.29 114.183 219.981 114.568C220.673 114.953 221.211 115.492 221.596 116.183C221.993 116.874 222.191 117.656 222.191 118.529C222.191 119.402 221.993 120.184 221.596 120.875C221.211 121.566 220.673 122.11 219.981 122.507C219.29 122.892 218.514 123.085 217.652 123.085ZM217.652 122.014C218.287 122.014 218.854 121.872 219.352 121.589C219.862 121.294 220.259 120.881 220.542 120.348C220.826 119.815 220.967 119.209 220.967 118.529C220.967 117.849 220.826 117.243 220.542 116.71C220.259 116.177 219.862 115.769 219.352 115.486C218.854 115.191 218.287 115.044 217.652 115.044C217.018 115.044 216.445 115.191 215.935 115.486C215.437 115.769 215.04 116.177 214.745 116.71C214.462 117.243 214.32 117.849 214.32 118.529C214.32 119.209 214.462 119.815 214.745 120.348C215.04 120.881 215.437 121.294 215.935 121.589C216.445 121.872 217.018 122.014 217.652 122.014ZM224.656 114.058H225.863V123H224.656V114.058ZM225.268 112.103C225.018 112.103 224.809 112.018 224.639 111.848C224.469 111.678 224.384 111.474 224.384 111.236C224.384 111.009 224.469 110.811 224.639 110.641C224.809 110.471 225.018 110.386 225.268 110.386C225.517 110.386 225.727 110.471 225.897 110.641C226.067 110.8 226.152 110.992 226.152 111.219C226.152 111.468 226.067 111.678 225.897 111.848C225.727 112.018 225.517 112.103 225.268 112.103ZM231.618 123.085C230.893 123.085 230.196 122.983 229.527 122.779C228.87 122.564 228.354 122.297 227.98 121.98L228.524 121.028C228.898 121.323 229.368 121.566 229.935 121.759C230.502 121.94 231.091 122.031 231.703 122.031C232.519 122.031 233.12 121.906 233.505 121.657C233.902 121.396 234.1 121.034 234.1 120.569C234.1 120.24 233.992 119.985 233.777 119.804C233.562 119.611 233.29 119.47 232.961 119.379C232.632 119.277 232.196 119.181 231.652 119.09C230.927 118.954 230.343 118.818 229.901 118.682C229.459 118.535 229.079 118.291 228.762 117.951C228.456 117.611 228.303 117.141 228.303 116.54C228.303 115.792 228.615 115.18 229.238 114.704C229.861 114.228 230.728 113.99 231.839 113.99C232.417 113.99 232.995 114.069 233.573 114.228C234.151 114.375 234.627 114.574 235.001 114.823L234.474 115.792C233.737 115.282 232.859 115.027 231.839 115.027C231.068 115.027 230.485 115.163 230.088 115.435C229.703 115.707 229.51 116.064 229.51 116.506C229.51 116.846 229.618 117.118 229.833 117.322C230.06 117.526 230.337 117.679 230.666 117.781C230.995 117.872 231.448 117.968 232.026 118.07C232.74 118.206 233.312 118.342 233.743 118.478C234.174 118.614 234.542 118.846 234.848 119.175C235.154 119.504 235.307 119.957 235.307 120.535C235.307 121.317 234.978 121.94 234.321 122.405C233.675 122.858 232.774 123.085 231.618 123.085ZM237.538 114.058H238.745V123H237.538V114.058ZM238.15 112.103C237.901 112.103 237.691 112.018 237.521 111.848C237.351 111.678 237.266 111.474 237.266 111.236C237.266 111.009 237.351 110.811 237.521 110.641C237.691 110.471 237.901 110.386 238.15 110.386C238.4 110.386 238.609 110.471 238.779 110.641C238.949 110.8 239.034 110.992 239.034 111.219C239.034 111.468 238.949 111.678 238.779 111.848C238.609 112.018 238.4 112.103 238.15 112.103ZM243.26 115.809C243.543 115.208 243.963 114.755 244.518 114.449C245.085 114.143 245.782 113.99 246.609 113.99V115.163L246.32 115.146C245.379 115.146 244.643 115.435 244.11 116.013C243.577 116.591 243.311 117.401 243.311 118.444V123H242.104V114.058H243.26V115.809ZM17.338 144.085C16.4767 144.085 15.7003 143.892 15.009 143.507C14.3177 143.11 13.7737 142.566 13.377 141.875C12.9803 141.184 12.782 140.402 12.782 139.529C12.782 138.656 12.9803 137.874 13.377 137.183C13.7737 136.492 14.3177 135.953 15.009 135.568C15.7003 135.183 16.4767 134.99 17.338 134.99C18.1993 134.99 18.9757 135.183 19.667 135.568C20.3583 135.953 20.8967 136.492 21.282 137.183C21.6787 137.874 21.877 138.656 21.877 139.529C21.877 140.402 21.6787 141.184 21.282 141.875C20.8967 142.566 20.3583 143.11 19.667 143.507C18.9757 143.892 18.1993 144.085 17.338 144.085ZM17.338 143.014C17.9727 143.014 18.5393 142.872 19.038 142.589C19.548 142.294 19.9447 141.881 20.228 141.348C20.5113 140.815 20.653 140.209 20.653 139.529C20.653 138.849 20.5113 138.243 20.228 137.71C19.9447 137.177 19.548 136.769 19.038 136.486C18.5393 136.191 17.9727 136.044 17.338 136.044C16.7033 136.044 16.131 136.191 15.621 136.486C15.1223 136.769 14.7257 137.177 14.431 137.71C14.1477 138.243 14.006 138.849 14.006 139.529C14.006 140.209 14.1477 140.815 14.431 141.348C14.7257 141.881 15.1223 142.294 15.621 142.589C16.131 142.872 16.7033 143.014 17.338 143.014ZM32.3992 135.058V144H31.2432V142.368C30.9259 142.912 30.4895 143.337 29.9342 143.643C29.3789 143.938 28.7442 144.085 28.0302 144.085C26.8629 144.085 25.9392 143.762 25.2592 143.116C24.5905 142.459 24.2562 141.501 24.2562 140.243V135.058H25.4632V140.124C25.4632 141.065 25.6955 141.779 26.1602 142.266C26.6249 142.753 27.2879 142.997 28.1492 142.997C29.0899 142.997 29.8322 142.714 30.3762 142.147C30.9202 141.569 31.1922 140.77 31.1922 139.75V135.058H32.3992ZM25.4972 131.556H27.1122L29.4412 133.664H28.2512L25.4972 131.556ZM51.3809 134.99C52.5029 134.99 53.3812 135.313 54.0159 135.959C54.6619 136.605 54.9849 137.557 54.9849 138.815V144H53.7779V138.934C53.7779 138.005 53.5512 137.296 53.0979 136.809C52.6559 136.322 52.0269 136.078 51.2109 136.078C50.2816 136.078 49.5506 136.367 49.0179 136.945C48.4852 137.512 48.2189 138.299 48.2189 139.308V144H47.0119V138.934C47.0119 138.005 46.7852 137.296 46.3319 136.809C45.8899 136.322 45.2552 136.078 44.4279 136.078C43.5099 136.078 42.7789 136.367 42.2349 136.945C41.7022 137.512 41.4359 138.299 41.4359 139.308V144H40.2289V135.058H41.3849V136.69C41.7022 136.146 42.1442 135.727 42.7109 135.432C43.2776 135.137 43.9292 134.99 44.6659 134.99C45.4139 134.99 46.0599 135.149 46.6039 135.466C47.1592 135.783 47.5729 136.254 47.8449 136.877C48.1736 136.288 48.6439 135.829 49.2559 135.5C49.8792 135.16 50.5876 134.99 51.3809 134.99ZM58.2614 131.301C58.522 131.301 58.7374 131.392 58.9074 131.573C59.0774 131.743 59.1624 131.958 59.1624 132.219C59.1624 132.355 59.1397 132.502 59.0944 132.661C59.0604 132.808 59.0094 132.984 58.9414 133.188L58.2104 135.534H57.3944L57.9894 133.086C57.7967 133.029 57.6437 132.927 57.5304 132.78C57.417 132.621 57.3604 132.434 57.3604 132.219C57.3604 131.947 57.4454 131.726 57.6154 131.556C57.7854 131.386 58.0007 131.301 58.2614 131.301ZM61.7279 135.058H62.9349V144H61.7279V135.058ZM62.3399 133.103C62.0906 133.103 61.8809 133.018 61.7109 132.848C61.5409 132.678 61.4559 132.474 61.4559 132.236C61.4559 132.009 61.5409 131.811 61.7109 131.641C61.8809 131.471 62.0906 131.386 62.3399 131.386C62.5893 131.386 62.7989 131.471 62.9689 131.641C63.1389 131.8 63.2239 131.992 63.2239 132.219C63.2239 132.468 63.1389 132.678 62.9689 132.848C62.7989 133.018 62.5893 133.103 62.3399 133.103ZM70.8494 134.99C71.9714 134.99 72.861 135.319 73.5184 135.976C74.187 136.622 74.5214 137.568 74.5214 138.815V144H73.3144V138.934C73.3144 138.005 73.082 137.296 72.6174 136.809C72.1527 136.322 71.4897 136.078 70.6284 136.078C69.665 136.078 68.9 136.367 68.3334 136.945C67.778 137.512 67.5004 138.299 67.5004 139.308V144H66.2934V135.058H67.4494V136.707C67.778 136.163 68.2314 135.744 68.8094 135.449C69.3987 135.143 70.0787 134.99 70.8494 134.99ZM80.1952 144.085C79.4699 144.085 78.7729 143.983 78.1042 143.779C77.4469 143.564 76.9312 143.297 76.5572 142.98L77.1012 142.028C77.4752 142.323 77.9456 142.566 78.5122 142.759C79.0789 142.94 79.6682 143.031 80.2802 143.031C81.0962 143.031 81.6969 142.906 82.0822 142.657C82.4789 142.396 82.6772 142.034 82.6772 141.569C82.6772 141.24 82.5696 140.985 82.3542 140.804C82.1389 140.611 81.8669 140.47 81.5382 140.379C81.2096 140.277 80.7732 140.181 80.2292 140.09C79.5039 139.954 78.9202 139.818 78.4782 139.682C78.0362 139.535 77.6566 139.291 77.3392 138.951C77.0332 138.611 76.8802 138.141 76.8802 137.54C76.8802 136.792 77.1919 136.18 77.8152 135.704C78.4386 135.228 79.3056 134.99 80.4162 134.99C80.9942 134.99 81.5722 135.069 82.1502 135.228C82.7282 135.375 83.2042 135.574 83.5782 135.823L83.0512 136.792C82.3146 136.282 81.4362 136.027 80.4162 136.027C79.6456 136.027 79.0619 136.163 78.6652 136.435C78.2799 136.707 78.0872 137.064 78.0872 137.506C78.0872 137.846 78.1949 138.118 78.4102 138.322C78.6369 138.526 78.9146 138.679 79.2432 138.781C79.5719 138.872 80.0252 138.968 80.6032 139.07C81.3172 139.206 81.8896 139.342 82.3202 139.478C82.7509 139.614 83.1192 139.846 83.4252 140.175C83.7312 140.504 83.8842 140.957 83.8842 141.535C83.8842 142.317 83.5556 142.94 82.8982 143.405C82.2522 143.858 81.3512 144.085 80.1952 144.085ZM90.8246 143.456C90.598 143.66 90.3146 143.819 89.9746 143.932C89.646 144.034 89.3003 144.085 88.9376 144.085C88.099 144.085 87.453 143.858 86.9996 143.405C86.5463 142.952 86.3196 142.311 86.3196 141.484V136.078H84.7216V135.058H86.3196V133.103H87.5266V135.058H90.2466V136.078H87.5266V141.416C87.5266 141.949 87.657 142.357 87.9176 142.64C88.1896 142.912 88.575 143.048 89.0736 143.048C89.323 143.048 89.561 143.008 89.7876 142.929C90.0256 142.85 90.2296 142.736 90.3996 142.589L90.8246 143.456ZM96.1499 134.99C97.3172 134.99 98.2125 135.285 98.8359 135.874C99.4592 136.452 99.7709 137.313 99.7709 138.458V144H98.6149V142.606C98.3429 143.071 97.9405 143.433 97.4079 143.694C96.8865 143.955 96.2632 144.085 95.5379 144.085C94.5405 144.085 93.7472 143.847 93.1579 143.371C92.5685 142.895 92.2739 142.266 92.2739 141.484C92.2739 140.725 92.5459 140.113 93.0899 139.648C93.6452 139.183 94.5235 138.951 95.7249 138.951H98.5639V138.407C98.5639 137.636 98.3485 137.053 97.9179 136.656C97.4872 136.248 96.8582 136.044 96.0309 136.044C95.4642 136.044 94.9202 136.14 94.3989 136.333C93.8775 136.514 93.4299 136.769 93.0559 137.098L92.5119 136.197C92.9652 135.812 93.5092 135.517 94.1439 135.313C94.7785 135.098 95.4472 134.99 96.1499 134.99ZM95.7249 143.133C96.4049 143.133 96.9885 142.98 97.4759 142.674C97.9632 142.357 98.3259 141.903 98.5639 141.314V139.852H95.7589C94.2289 139.852 93.4639 140.385 93.4639 141.45C93.4639 141.971 93.6622 142.385 94.0589 142.691C94.4555 142.986 95.0109 143.133 95.7249 143.133ZM103.049 131.386H104.256V144H103.049V131.386ZM107.615 131.386H108.822V144H107.615V131.386ZM119.966 139.903H112.486C112.554 140.832 112.911 141.586 113.557 142.164C114.203 142.731 115.019 143.014 116.005 143.014C116.56 143.014 117.07 142.918 117.535 142.725C118 142.521 118.402 142.226 118.742 141.841L119.422 142.623C119.025 143.099 118.527 143.462 117.926 143.711C117.337 143.96 116.685 144.085 115.971 144.085C115.053 144.085 114.237 143.892 113.523 143.507C112.82 143.11 112.271 142.566 111.874 141.875C111.477 141.184 111.279 140.402 111.279 139.529C111.279 138.656 111.466 137.874 111.84 137.183C112.225 136.492 112.747 135.953 113.404 135.568C114.073 135.183 114.821 134.99 115.648 134.99C116.475 134.99 117.218 135.183 117.875 135.568C118.532 135.953 119.048 136.492 119.422 137.183C119.796 137.863 119.983 138.645 119.983 139.529L119.966 139.903ZM115.648 136.027C114.787 136.027 114.061 136.305 113.472 136.86C112.894 137.404 112.565 138.118 112.486 139.002H118.827C118.748 138.118 118.413 137.404 117.824 136.86C117.246 136.305 116.521 136.027 115.648 136.027ZM123.596 136.809C123.879 136.208 124.299 135.755 124.854 135.449C125.421 135.143 126.118 134.99 126.945 134.99V136.163L126.656 136.146C125.715 136.146 124.979 136.435 124.446 137.013C123.913 137.591 123.647 138.401 123.647 139.444V144H122.44V135.058H123.596V136.809ZM129.216 144.085C128.967 144.085 128.751 143.994 128.57 143.813C128.4 143.632 128.315 143.411 128.315 143.15C128.315 142.889 128.4 142.674 128.57 142.504C128.751 142.323 128.967 142.232 129.216 142.232C129.465 142.232 129.681 142.323 129.862 142.504C130.043 142.674 130.134 142.889 130.134 143.15C130.134 143.411 130.043 143.632 129.862 143.813C129.681 143.994 129.465 144.085 129.216 144.085Z" fill="white"/>
</svg>
