<svg width="299" height="230" viewBox="0 0 299 230" fill="none" xmlns="http://www.w3.org/2000/svg">
<path d="M251.229 186.667H104.464L50.9216 228.598C45.9816 232.644 39.2888 227.311 40.8823 220.506L48.5313 186.851H28.7715C13.9516 186.851 2.15942 173.058 2.15942 155.771V31.0805C2.15942 13.9771 14.1109 0 28.7715 0H251.388C266.208 0 278 13.7931 278 31.0805V155.771C278 172.874 265.889 186.667 251.229 186.667Z" fill="#F1B705"/>
<path d="M251.229 0H191.63C187.806 86.9887 125.658 155.954 49.6466 155.954C32.9145 155.954 16.8199 152.644 2 146.575V155.771C2 172.874 13.9515 186.851 28.612 186.851H48.2125L40.5635 220.506C38.9699 227.311 45.5035 232.644 50.6028 228.598L104.145 186.667H250.91C265.73 186.667 277.522 172.874 277.522 155.587V30.8966C278 13.7931 265.889 0 251.229 0Z" fill="#EEAD07"/>
<path d="M2 31.0161V155.984C2 173.148 15.9058 187 32.9858 187H247.014C264.094 187 278 173.148 278 155.984V31.0161C278 13.8519 264.094 0 247.014 0H32.9858C15.9058 0.150564 2 14.0024 2 31.0161Z" fill="#F1B705"/>
<path d="M0 31.2208V157.627C0 174.989 14.0066 189 31.2103 189H158.183H178.786C188.859 189 191.377 189 204.471 189H223.801H246.79C263.993 189 278 174.989 278 157.627V148.185C260.644 154.429 241.918 157.779 222.278 157.779C193.504 157.779 166.404 150.469 142.806 137.524C141.436 136.762 140.218 136.153 139 135.392C91.8039 107.978 59.2234 57.8727 56.483 6.10352e-05H31.2103C14.0066 6.10352e-05 0 14.0113 0 31.2208Z" fill="#EEAD07"/>
<path d="M30.106 71.102C28.9273 71.102 27.862 70.8413 26.91 70.32C25.9693 69.7987 25.227 69.079 24.683 68.161C24.1503 67.2317 23.884 66.1947 23.884 65.05C23.884 63.9053 24.1503 62.874 24.683 61.956C25.227 61.0267 25.975 60.3013 26.927 59.78C27.879 59.2587 28.9443 58.998 30.123 58.998C31.007 58.998 31.823 59.1453 32.571 59.44C33.319 59.7347 33.9537 60.1653 34.475 60.732L33.676 61.531C32.7467 60.5903 31.5737 60.12 30.157 60.12C29.2163 60.12 28.3607 60.3353 27.59 60.766C26.8193 61.1967 26.213 61.786 25.771 62.534C25.3403 63.282 25.125 64.1207 25.125 65.05C25.125 65.9793 25.3403 66.818 25.771 67.566C26.213 68.314 26.8193 68.9033 27.59 69.334C28.3607 69.7647 29.2163 69.98 30.157 69.98C31.585 69.98 32.758 69.504 33.676 68.552L34.475 69.351C33.9537 69.9177 33.3133 70.354 32.554 70.66C31.806 70.9547 30.99 71.102 30.106 71.102ZM37.3034 58.301C37.564 58.301 37.7794 58.3917 37.9494 58.573C38.1194 58.743 38.2044 58.9583 38.2044 59.219C38.2044 59.355 38.1817 59.5023 38.1364 59.661C38.1024 59.8083 38.0514 59.984 37.9834 60.188L37.2524 62.534H36.4364L37.0314 60.086C36.8387 60.0293 36.6857 59.9273 36.5724 59.78C36.459 59.6213 36.4024 59.4343 36.4024 59.219C36.4024 58.947 36.4874 58.726 36.6574 58.556C36.8274 58.386 37.0427 58.301 37.3034 58.301ZM48.0745 66.903H40.5945C40.6625 67.8323 41.0195 68.586 41.6655 69.164C42.3115 69.7307 43.1275 70.014 44.1135 70.014C44.6688 70.014 45.1788 69.9177 45.6435 69.725C46.1081 69.521 46.5105 69.2263 46.8505 68.841L47.5305 69.623C47.1338 70.099 46.6351 70.4617 46.0345 70.711C45.4451 70.9603 44.7935 71.085 44.0795 71.085C43.1615 71.085 42.3455 70.8923 41.6315 70.507C40.9288 70.1103 40.3791 69.5663 39.9825 68.875C39.5858 68.1837 39.3875 67.4017 39.3875 66.529C39.3875 65.6563 39.5745 64.8743 39.9485 64.183C40.3338 63.4917 40.8551 62.9533 41.5125 62.568C42.1811 62.1827 42.9291 61.99 43.7565 61.99C44.5838 61.99 45.3261 62.1827 45.9835 62.568C46.6408 62.9533 47.1565 63.4917 47.5305 64.183C47.9045 64.863 48.0915 65.645 48.0915 66.529L48.0745 66.903ZM43.7565 63.027C42.8951 63.027 42.1698 63.3047 41.5805 63.86C41.0025 64.404 40.6738 65.118 40.5945 66.002H46.9355C46.8561 65.118 46.5218 64.404 45.9325 63.86C45.3545 63.3047 44.6291 63.027 43.7565 63.027ZM52.9452 71.085C52.2199 71.085 51.5229 70.983 50.8542 70.779C50.1969 70.5637 49.6812 70.2973 49.3072 69.98L49.8512 69.028C50.2252 69.3227 50.6956 69.5663 51.2622 69.759C51.8289 69.9403 52.4182 70.031 53.0302 70.031C53.8462 70.031 54.4469 69.9063 54.8322 69.657C55.2289 69.3963 55.4272 69.0337 55.4272 68.569C55.4272 68.2403 55.3196 67.9853 55.1042 67.804C54.8889 67.6113 54.6169 67.4697 54.2882 67.379C53.9596 67.277 53.5232 67.1807 52.9792 67.09C52.2539 66.954 51.6702 66.818 51.2282 66.682C50.7862 66.5347 50.4066 66.291 50.0892 65.951C49.7832 65.611 49.6302 65.1407 49.6302 64.54C49.6302 63.792 49.9419 63.18 50.5652 62.704C51.1886 62.228 52.0556 61.99 53.1662 61.99C53.7442 61.99 54.3222 62.0693 54.9002 62.228C55.4782 62.3753 55.9542 62.5737 56.3282 62.823L55.8012 63.792C55.0646 63.282 54.1862 63.027 53.1662 63.027C52.3956 63.027 51.8119 63.163 51.4152 63.435C51.0299 63.707 50.8372 64.064 50.8372 64.506C50.8372 64.846 50.9449 65.118 51.1602 65.322C51.3869 65.526 51.6646 65.679 51.9932 65.781C52.3219 65.8717 52.7752 65.968 53.3532 66.07C54.0672 66.206 54.6396 66.342 55.0702 66.478C55.5009 66.614 55.8692 66.8463 56.1752 67.175C56.4812 67.5037 56.6342 67.957 56.6342 68.535C56.6342 69.317 56.3056 69.9403 55.6482 70.405C55.0022 70.8583 54.1012 71.085 52.9452 71.085ZM63.5746 70.456C63.348 70.66 63.0646 70.8187 62.7246 70.932C62.396 71.034 62.0503 71.085 61.6876 71.085C60.849 71.085 60.203 70.8583 59.7496 70.405C59.2963 69.9517 59.0696 69.3113 59.0696 68.484V63.078H57.4716V62.058H59.0696V60.103H60.2766V62.058H62.9966V63.078H60.2766V68.416C60.2766 68.9487 60.407 69.3567 60.6676 69.64C60.9396 69.912 61.325 70.048 61.8236 70.048C62.073 70.048 62.311 70.0083 62.5376 69.929C62.7756 69.8497 62.9796 69.7363 63.1496 69.589L63.5746 70.456ZM77.7351 62.058L73.7571 71H72.5161L68.5551 62.058H69.8131L73.1621 69.674L76.5451 62.058H77.7351ZM82.8409 71.085C81.9796 71.085 81.2033 70.8923 80.5119 70.507C79.8206 70.1103 79.2766 69.5663 78.8799 68.875C78.4833 68.1837 78.2849 67.4017 78.2849 66.529C78.2849 65.6563 78.4833 64.8743 78.8799 64.183C79.2766 63.4917 79.8206 62.9533 80.5119 62.568C81.2033 62.1827 81.9796 61.99 82.8409 61.99C83.7023 61.99 84.4786 62.1827 85.1699 62.568C85.8613 62.9533 86.3996 63.4917 86.7849 64.183C87.1816 64.8743 87.3799 65.6563 87.3799 66.529C87.3799 67.4017 87.1816 68.1837 86.7849 68.875C86.3996 69.5663 85.8613 70.1103 85.1699 70.507C84.4786 70.8923 83.7023 71.085 82.8409 71.085ZM82.8409 70.014C83.4756 70.014 84.0423 69.8723 84.5409 69.589C85.0509 69.2943 85.4476 68.8807 85.7309 68.348C86.0143 67.8153 86.1559 67.209 86.1559 66.529C86.1559 65.849 86.0143 65.2427 85.7309 64.71C85.4476 64.1773 85.0509 63.7693 84.5409 63.486C84.0423 63.1913 83.4756 63.044 82.8409 63.044C82.2063 63.044 81.6339 63.1913 81.1239 63.486C80.6253 63.7693 80.2286 64.1773 79.9339 64.71C79.6506 65.2427 79.5089 65.849 79.5089 66.529C79.5089 67.209 79.6506 67.8153 79.9339 68.348C80.2286 68.8807 80.6253 69.2943 81.1239 69.589C81.6339 69.8723 82.2063 70.014 82.8409 70.014ZM94.5531 70.456C94.3265 70.66 94.0431 70.8187 93.7031 70.932C93.3745 71.034 93.0288 71.085 92.6661 71.085C91.8275 71.085 91.1815 70.8583 90.7281 70.405C90.2748 69.9517 90.0481 69.3113 90.0481 68.484V63.078H88.4501V62.058H90.0481V60.103H91.2551V62.058H93.9751V63.078H91.2551V68.416C91.2551 68.9487 91.3855 69.3567 91.6461 69.64C91.9181 69.912 92.3035 70.048 92.8021 70.048C93.0515 70.048 93.2895 70.0083 93.5161 69.929C93.7541 69.8497 93.9581 69.7363 94.1281 69.589L94.5531 70.456ZM97.9064 63.809C98.1897 63.2083 98.609 62.755 99.1644 62.449C99.731 62.143 100.428 61.99 101.255 61.99V63.163L100.966 63.146C100.026 63.146 99.289 63.435 98.7564 64.013C98.2237 64.591 97.9574 65.4013 97.9574 66.444V71H96.7504V62.058H97.9064V63.809ZM111.144 66.903H103.664C103.732 67.8323 104.089 68.586 104.735 69.164C105.381 69.7307 106.197 70.014 107.183 70.014C107.738 70.014 108.248 69.9177 108.713 69.725C109.177 69.521 109.58 69.2263 109.92 68.841L110.6 69.623C110.203 70.099 109.704 70.4617 109.104 70.711C108.514 70.9603 107.863 71.085 107.149 71.085C106.231 71.085 105.415 70.8923 104.701 70.507C103.998 70.1103 103.448 69.5663 103.052 68.875C102.655 68.1837 102.457 67.4017 102.457 66.529C102.457 65.6563 102.644 64.8743 103.018 64.183C103.403 63.4917 103.924 62.9533 104.582 62.568C105.25 62.1827 105.998 61.99 106.826 61.99C107.653 61.99 108.395 62.1827 109.053 62.568C109.71 62.9533 110.226 63.4917 110.6 64.183C110.974 64.863 111.161 65.645 111.161 66.529L111.144 66.903ZM106.826 63.027C105.964 63.027 105.239 63.3047 104.65 63.86C104.072 64.404 103.743 65.118 103.664 66.002H110.005C109.925 65.118 109.591 64.404 109.002 63.86C108.424 63.3047 107.698 63.027 106.826 63.027ZM116.741 74.383C116.367 74.383 116.015 74.332 115.687 74.23C115.347 74.1393 115.069 73.9977 114.854 73.805L115.279 72.887C115.63 73.193 116.095 73.346 116.673 73.346C117.149 73.346 117.511 73.2043 117.761 72.921C118.021 72.6377 118.152 72.2183 118.152 71.663V62.058H119.359V71.663C119.359 72.5017 119.132 73.1647 118.679 73.652C118.225 74.1393 117.579 74.383 116.741 74.383ZM118.764 60.086C118.514 60.086 118.305 60.001 118.135 59.831C117.965 59.661 117.88 59.457 117.88 59.219C117.88 58.9923 117.965 58.794 118.135 58.624C118.305 58.454 118.514 58.369 118.764 58.369C119.013 58.369 119.223 58.454 119.393 58.624C119.563 58.7827 119.648 58.9753 119.648 59.202C119.648 59.4513 119.563 59.661 119.393 59.831C119.223 60.001 119.013 60.086 118.764 60.086ZM126.387 71.085C125.525 71.085 124.749 70.8923 124.058 70.507C123.366 70.1103 122.822 69.5663 122.426 68.875C122.029 68.1837 121.831 67.4017 121.831 66.529C121.831 65.6563 122.029 64.8743 122.426 64.183C122.822 63.4917 123.366 62.9533 124.058 62.568C124.749 62.1827 125.525 61.99 126.387 61.99C127.248 61.99 128.024 62.1827 128.716 62.568C129.407 62.9533 129.945 63.4917 130.331 64.183C130.727 64.8743 130.926 65.6563 130.926 66.529C130.926 67.4017 130.727 68.1837 130.331 68.875C129.945 69.5663 129.407 70.1103 128.716 70.507C128.024 70.8923 127.248 71.085 126.387 71.085ZM126.387 70.014C127.021 70.014 127.588 69.8723 128.087 69.589C128.597 69.2943 128.993 68.8807 129.277 68.348C129.56 67.8153 129.702 67.209 129.702 66.529C129.702 65.849 129.56 65.2427 129.277 64.71C128.993 64.1773 128.597 63.7693 128.087 63.486C127.588 63.1913 127.021 63.044 126.387 63.044C125.752 63.044 125.18 63.1913 124.67 63.486C124.171 63.7693 123.774 64.1773 123.48 64.71C123.196 65.2427 123.055 65.849 123.055 66.529C123.055 67.209 123.196 67.8153 123.48 68.348C123.774 68.8807 124.171 69.2943 124.67 69.589C125.18 69.8723 125.752 70.014 126.387 70.014ZM141.448 62.058V71H140.292V69.368C139.975 69.912 139.538 70.337 138.983 70.643C138.428 70.9377 137.793 71.085 137.079 71.085C135.912 71.085 134.988 70.762 134.308 70.116C133.639 69.4587 133.305 68.501 133.305 67.243V62.058H134.512V67.124C134.512 68.0647 134.744 68.7787 135.209 69.266C135.674 69.7533 136.337 69.997 137.198 69.997C138.139 69.997 138.881 69.7137 139.425 69.147C139.969 68.569 140.241 67.77 140.241 66.75V62.058H141.448ZM145.985 63.809C146.268 63.2083 146.687 62.755 147.243 62.449C147.809 62.143 148.506 61.99 149.334 61.99V63.163L149.045 63.146C148.104 63.146 147.367 63.435 146.835 64.013C146.302 64.591 146.036 65.4013 146.036 66.444V71H144.829V62.058H145.985V63.809ZM164.261 58.386V71H163.105V69.232C162.742 69.8327 162.261 70.2917 161.66 70.609C161.071 70.9263 160.402 71.085 159.654 71.085C158.815 71.085 158.056 70.8923 157.376 70.507C156.696 70.1217 156.163 69.5833 155.778 68.892C155.393 68.2007 155.2 67.413 155.2 66.529C155.2 65.645 155.393 64.8573 155.778 64.166C156.163 63.4747 156.696 62.942 157.376 62.568C158.056 62.1827 158.815 61.99 159.654 61.99C160.379 61.99 161.031 62.143 161.609 62.449C162.198 62.7437 162.68 63.18 163.054 63.758V58.386H164.261ZM159.756 70.014C160.379 70.014 160.94 69.8723 161.439 69.589C161.949 69.2943 162.346 68.8807 162.629 68.348C162.924 67.8153 163.071 67.209 163.071 66.529C163.071 65.849 162.924 65.2427 162.629 64.71C162.346 64.1773 161.949 63.7693 161.439 63.486C160.94 63.1913 160.379 63.044 159.756 63.044C159.121 63.044 158.549 63.1913 158.039 63.486C157.54 63.7693 157.144 64.1773 156.849 64.71C156.566 65.2427 156.424 65.849 156.424 66.529C156.424 67.209 156.566 67.8153 156.849 68.348C157.144 68.8807 157.54 69.2943 158.039 69.589C158.549 69.8723 159.121 70.014 159.756 70.014ZM175.408 66.903H167.928C167.996 67.8323 168.353 68.586 168.999 69.164C169.645 69.7307 170.461 70.014 171.447 70.014C172.003 70.014 172.513 69.9177 172.977 69.725C173.442 69.521 173.844 69.2263 174.184 68.841L174.864 69.623C174.468 70.099 173.969 70.4617 173.368 70.711C172.779 70.9603 172.127 71.085 171.413 71.085C170.495 71.085 169.679 70.8923 168.965 70.507C168.263 70.1103 167.713 69.5663 167.316 68.875C166.92 68.1837 166.721 67.4017 166.721 66.529C166.721 65.6563 166.908 64.8743 167.282 64.183C167.668 63.4917 168.189 62.9533 168.846 62.568C169.515 62.1827 170.263 61.99 171.09 61.99C171.918 61.99 172.66 62.1827 173.317 62.568C173.975 62.9533 174.49 63.4917 174.864 64.183C175.238 64.863 175.425 65.645 175.425 66.529L175.408 66.903ZM171.09 63.027C170.229 63.027 169.504 63.3047 168.914 63.86C168.336 64.404 168.008 65.118 167.928 66.002H174.269C174.19 65.118 173.856 64.404 173.266 63.86C172.688 63.3047 171.963 63.027 171.09 63.027ZM186.037 71.085C185.153 71.085 184.36 70.8923 183.657 70.507C182.966 70.1217 182.422 69.5833 182.025 68.892C181.629 68.1893 181.43 67.4017 181.43 66.529C181.43 65.6563 181.629 64.8743 182.025 64.183C182.422 63.4917 182.966 62.9533 183.657 62.568C184.36 62.1827 185.153 61.99 186.037 61.99C186.808 61.99 187.494 62.143 188.094 62.449C188.706 62.7437 189.188 63.18 189.539 63.758L188.638 64.37C188.344 63.928 187.97 63.5993 187.516 63.384C187.063 63.1573 186.57 63.044 186.037 63.044C185.391 63.044 184.808 63.1913 184.286 63.486C183.776 63.7693 183.374 64.1773 183.079 64.71C182.796 65.2427 182.654 65.849 182.654 66.529C182.654 67.2203 182.796 67.8323 183.079 68.365C183.374 68.8863 183.776 69.2943 184.286 69.589C184.808 69.8723 185.391 70.014 186.037 70.014C186.57 70.014 187.063 69.9063 187.516 69.691C187.97 69.4757 188.344 69.147 188.638 68.705L189.539 69.317C189.188 69.895 188.706 70.337 188.094 70.643C187.482 70.9377 186.797 71.085 186.037 71.085ZM196.334 61.99C197.456 61.99 198.345 62.3187 199.003 62.976C199.671 63.622 200.006 64.5683 200.006 65.815V71H198.799V65.934C198.799 65.0047 198.566 64.2963 198.102 63.809C197.637 63.3217 196.974 63.078 196.113 63.078C195.149 63.078 194.384 63.367 193.818 63.945C193.262 64.5117 192.985 65.2993 192.985 66.308V71H191.778V58.386H192.985V63.622C193.313 63.1007 193.767 62.6983 194.345 62.415C194.923 62.1317 195.586 61.99 196.334 61.99ZM206.411 61.99C207.578 61.99 208.473 62.2847 209.097 62.874C209.72 63.452 210.032 64.3133 210.032 65.458V71H208.876V69.606C208.604 70.0707 208.201 70.4333 207.669 70.694C207.147 70.9547 206.524 71.085 205.799 71.085C204.801 71.085 204.008 70.847 203.419 70.371C202.829 69.895 202.535 69.266 202.535 68.484C202.535 67.7247 202.807 67.1127 203.351 66.648C203.906 66.1833 204.784 65.951 205.986 65.951H208.825V65.407C208.825 64.6363 208.609 64.0527 208.179 63.656C207.748 63.248 207.119 63.044 206.292 63.044C205.725 63.044 205.181 63.1403 204.66 63.333C204.138 63.5143 203.691 63.7693 203.317 64.098L202.773 63.197C203.226 62.8117 203.77 62.517 204.405 62.313C205.039 62.0977 205.708 61.99 206.411 61.99ZM205.986 70.133C206.666 70.133 207.249 69.98 207.737 69.674C208.224 69.3567 208.587 68.9033 208.825 68.314V66.852H206.02C204.49 66.852 203.725 67.3847 203.725 68.45C203.725 68.9713 203.923 69.385 204.32 69.691C204.716 69.9857 205.272 70.133 205.986 70.133ZM217.866 61.99C218.988 61.99 219.878 62.3187 220.535 62.976C221.204 63.622 221.538 64.5683 221.538 65.815V71H220.331V65.934C220.331 65.0047 220.099 64.2963 219.634 63.809C219.169 63.3217 218.506 63.078 217.645 63.078C216.682 63.078 215.917 63.367 215.35 63.945C214.795 64.5117 214.517 65.2993 214.517 66.308V71H213.31V62.058H214.466V63.707C214.795 63.163 215.248 62.7437 215.826 62.449C216.415 62.143 217.095 61.99 217.866 61.99ZM228.554 71.085C227.67 71.085 226.877 70.8923 226.174 70.507C225.483 70.1217 224.939 69.5833 224.542 68.892C224.145 68.1893 223.947 67.4017 223.947 66.529C223.947 65.6563 224.145 64.8743 224.542 64.183C224.939 63.4917 225.483 62.9533 226.174 62.568C226.877 62.1827 227.67 61.99 228.554 61.99C229.325 61.99 230.01 62.143 230.611 62.449C231.223 62.7437 231.705 63.18 232.056 63.758L231.155 64.37C230.86 63.928 230.486 63.5993 230.033 63.384C229.58 63.1573 229.087 63.044 228.554 63.044C227.908 63.044 227.324 63.1913 226.803 63.486C226.293 63.7693 225.891 64.1773 225.596 64.71C225.313 65.2427 225.171 65.849 225.171 66.529C225.171 67.2203 225.313 67.8323 225.596 68.365C225.891 68.8863 226.293 69.2943 226.803 69.589C227.324 69.8723 227.908 70.014 228.554 70.014C229.087 70.014 229.58 69.9063 230.033 69.691C230.486 69.4757 230.86 69.147 231.155 68.705L232.056 69.317C231.705 69.895 231.223 70.337 230.611 70.643C229.999 70.9377 229.313 71.085 228.554 71.085ZM242.064 66.903H234.584C234.652 67.8323 235.009 68.586 235.655 69.164C236.301 69.7307 237.117 70.014 238.103 70.014C238.658 70.014 239.168 69.9177 239.633 69.725C240.097 69.521 240.5 69.2263 240.84 68.841L241.52 69.623C241.123 70.099 240.624 70.4617 240.024 70.711C239.434 70.9603 238.783 71.085 238.069 71.085C237.151 71.085 236.335 70.8923 235.621 70.507C234.918 70.1103 234.368 69.5663 233.972 68.875C233.575 68.1837 233.377 67.4017 233.377 66.529C233.377 65.6563 233.564 64.8743 233.938 64.183C234.323 63.4917 234.844 62.9533 235.502 62.568C236.17 62.1827 236.918 61.99 237.746 61.99C238.573 61.99 239.315 62.1827 239.973 62.568C240.63 62.9533 241.146 63.4917 241.52 64.183C241.894 64.863 242.081 65.645 242.081 66.529L242.064 66.903ZM237.746 63.027C236.884 63.027 236.159 63.3047 235.57 63.86C234.992 64.404 234.663 65.118 234.584 66.002H240.925C240.845 65.118 240.511 64.404 239.922 63.86C239.344 63.3047 238.618 63.027 237.746 63.027ZM248.8 59.1H250.228L249.973 67.43H249.038L248.8 59.1ZM249.514 71.085C249.264 71.085 249.049 71 248.868 70.83C248.698 70.6487 248.613 70.439 248.613 70.201C248.613 69.9517 248.698 69.7477 248.868 69.589C249.038 69.419 249.253 69.334 249.514 69.334C249.763 69.334 249.973 69.419 250.143 69.589C250.313 69.7477 250.398 69.9517 250.398 70.201C250.398 70.439 250.313 70.6487 250.143 70.83C249.973 71 249.763 71.085 249.514 71.085ZM26.213 92.102C25.533 92.102 24.904 91.9547 24.326 91.66C23.748 91.3653 23.2777 90.946 22.915 90.402L23.663 89.552C24.3203 90.5267 25.176 91.014 26.23 91.014C27.7033 91.014 28.44 90.1413 28.44 88.396V81.188H24.088V80.1H29.681V88.345C29.681 89.5917 29.3863 90.5323 28.797 91.167C28.219 91.7903 27.3577 92.102 26.213 92.102ZM40.9856 87.903H33.5056C33.5736 88.8323 33.9306 89.586 34.5766 90.164C35.2226 90.7307 36.0386 91.014 37.0246 91.014C37.5799 91.014 38.0899 90.9177 38.5546 90.725C39.0193 90.521 39.4216 90.2263 39.7616 89.841L40.4416 90.623C40.0449 91.099 39.5463 91.4617 38.9456 91.711C38.3563 91.9603 37.7046 92.085 36.9906 92.085C36.0726 92.085 35.2566 91.8923 34.5426 91.507C33.8399 91.1103 33.2903 90.5663 32.8936 89.875C32.4969 89.1837 32.2986 88.4017 32.2986 87.529C32.2986 86.6563 32.4856 85.8743 32.8596 85.183C33.2449 84.4917 33.7663 83.9533 34.4236 83.568C35.0923 83.1827 35.8403 82.99 36.6676 82.99C37.4949 82.99 38.2373 83.1827 38.8946 83.568C39.5519 83.9533 40.0676 84.4917 40.4416 85.183C40.8156 85.863 41.0026 86.645 41.0026 87.529L40.9856 87.903ZM36.6676 84.027C35.8063 84.027 35.0809 84.3047 34.4916 84.86C33.9136 85.404 33.5849 86.118 33.5056 87.002H39.8466C39.7673 86.118 39.4329 85.404 38.8436 84.86C38.2656 84.3047 37.5403 84.027 36.6676 84.027ZM51.6146 92.085C50.7306 92.085 49.9373 91.8923 49.2346 91.507C48.5433 91.1217 47.9993 90.5833 47.6026 89.892C47.2059 89.1893 47.0076 88.4017 47.0076 87.529C47.0076 86.6563 47.2059 85.8743 47.6026 85.183C47.9993 84.4917 48.5433 83.9533 49.2346 83.568C49.9373 83.1827 50.7306 82.99 51.6146 82.99C52.3853 82.99 53.0709 83.143 53.6716 83.449C54.2836 83.7437 54.7653 84.18 55.1166 84.758L54.2156 85.37C53.9209 84.928 53.5469 84.5993 53.0936 84.384C52.6403 84.1573 52.1473 84.044 51.6146 84.044C50.9686 84.044 50.3849 84.1913 49.8636 84.486C49.3536 84.7693 48.9513 85.1773 48.6566 85.71C48.3733 86.2427 48.2316 86.849 48.2316 87.529C48.2316 88.2203 48.3733 88.8323 48.6566 89.365C48.9513 89.8863 49.3536 90.2943 49.8636 90.589C50.3849 90.8723 50.9686 91.014 51.6146 91.014C52.1473 91.014 52.6403 90.9063 53.0936 90.691C53.5469 90.4757 53.9209 90.147 54.2156 89.705L55.1166 90.317C54.7653 90.895 54.2836 91.337 53.6716 91.643C53.0596 91.9377 52.3739 92.085 51.6146 92.085ZM60.9933 92.085C60.1319 92.085 59.3556 91.8923 58.6643 91.507C57.9729 91.1103 57.4289 90.5663 57.0323 89.875C56.6356 89.1837 56.4373 88.4017 56.4373 87.529C56.4373 86.6563 56.6356 85.8743 57.0323 85.183C57.4289 84.4917 57.9729 83.9533 58.6643 83.568C59.3556 83.1827 60.1319 82.99 60.9933 82.99C61.8546 82.99 62.6309 83.1827 63.3223 83.568C64.0136 83.9533 64.5519 84.4917 64.9373 85.183C65.3339 85.8743 65.5323 86.6563 65.5323 87.529C65.5323 88.4017 65.3339 89.1837 64.9373 89.875C64.5519 90.5663 64.0136 91.1103 63.3223 91.507C62.6309 91.8923 61.8546 92.085 60.9933 92.085ZM60.9933 91.014C61.6279 91.014 62.1946 90.8723 62.6933 90.589C63.2033 90.2943 63.5999 89.8807 63.8833 89.348C64.1666 88.8153 64.3083 88.209 64.3083 87.529C64.3083 86.849 64.1666 86.2427 63.8833 85.71C63.5999 85.1773 63.2033 84.7693 62.6933 84.486C62.1946 84.1913 61.6279 84.044 60.9933 84.044C60.3586 84.044 59.7863 84.1913 59.2763 84.486C58.7776 84.7693 58.3809 85.1773 58.0863 85.71C57.8029 86.2427 57.6613 86.849 57.6613 87.529C57.6613 88.209 57.8029 88.8153 58.0863 89.348C58.3809 89.8807 58.7776 90.2943 59.2763 90.589C59.7863 90.8723 60.3586 91.014 60.9933 91.014ZM72.5525 82.99C73.6745 82.99 74.5641 83.3187 75.2215 83.976C75.8901 84.622 76.2245 85.5683 76.2245 86.815V92H75.0175V86.934C75.0175 86.0047 74.7851 85.2963 74.3205 84.809C73.8558 84.3217 73.1928 84.078 72.3315 84.078C71.3681 84.078 70.6031 84.367 70.0365 84.945C69.4811 85.5117 69.2035 86.2993 69.2035 87.308V92H67.9965V83.058H69.1525V84.707C69.4811 84.163 69.9345 83.7437 70.5125 83.449C71.1018 83.143 71.7818 82.99 72.5525 82.99ZM84.0574 82.99C85.1794 82.99 86.069 83.3187 86.7264 83.976C87.395 84.622 87.7294 85.5683 87.7294 86.815V92H86.5224V86.934C86.5224 86.0047 86.29 85.2963 85.8254 84.809C85.3607 84.3217 84.6977 84.078 83.8364 84.078C82.873 84.078 82.108 84.367 81.5414 84.945C80.986 85.5117 80.7084 86.2993 80.7084 87.308V92H79.5014V83.058H80.6574V84.707C80.986 84.163 81.4394 83.7437 82.0174 83.449C82.6067 83.143 83.2867 82.99 84.0574 82.99ZM94.1342 82.99C95.3016 82.99 96.1969 83.2847 96.8202 83.874C97.4436 84.452 97.7552 85.3133 97.7552 86.458V92H96.5992V90.606C96.3272 91.0707 95.9249 91.4333 95.3922 91.694C94.8709 91.9547 94.2476 92.085 93.5222 92.085C92.5249 92.085 91.7316 91.847 91.1422 91.371C90.5529 90.895 90.2582 90.266 90.2582 89.484C90.2582 88.7247 90.5302 88.1127 91.0742 87.648C91.6296 87.1833 92.5079 86.951 93.7092 86.951H96.5482V86.407C96.5482 85.6363 96.3329 85.0527 95.9022 84.656C95.4716 84.248 94.8426 84.044 94.0152 84.044C93.4486 84.044 92.9046 84.1403 92.3832 84.333C91.8619 84.5143 91.4142 84.7693 91.0402 85.098L90.4962 84.197C90.9496 83.8117 91.4936 83.517 92.1282 83.313C92.7629 83.0977 93.4316 82.99 94.1342 82.99ZM93.7092 91.133C94.3892 91.133 94.9729 90.98 95.4602 90.674C95.9476 90.3567 96.3102 89.9033 96.5482 89.314V87.852H93.7432C92.2132 87.852 91.4482 88.3847 91.4482 89.45C91.4482 89.9713 91.6466 90.385 92.0432 90.691C92.4399 90.9857 92.9952 91.133 93.7092 91.133ZM101.034 83.058H102.241V92H101.034V83.058ZM101.646 81.103C101.396 81.103 101.187 81.018 101.017 80.848C100.847 80.678 100.762 80.474 100.762 80.236C100.762 80.0093 100.847 79.811 101.017 79.641C101.187 79.471 101.396 79.386 101.646 79.386C101.895 79.386 102.105 79.471 102.275 79.641C102.445 79.7997 102.53 79.9923 102.53 80.219C102.53 80.4683 102.445 80.678 102.275 80.848C102.105 81.018 101.895 81.103 101.646 81.103ZM107.996 92.085C107.271 92.085 106.574 91.983 105.905 91.779C105.248 91.5637 104.732 91.2973 104.358 90.98L104.902 90.028C105.276 90.3227 105.746 90.5663 106.313 90.759C106.88 90.9403 107.469 91.031 108.081 91.031C108.897 91.031 109.498 90.9063 109.883 90.657C110.28 90.3963 110.478 90.0337 110.478 89.569C110.478 89.2403 110.37 88.9853 110.155 88.804C109.94 88.6113 109.668 88.4697 109.339 88.379C109.01 88.277 108.574 88.1807 108.03 88.09C107.305 87.954 106.721 87.818 106.279 87.682C105.837 87.5347 105.457 87.291 105.14 86.951C104.834 86.611 104.681 86.1407 104.681 85.54C104.681 84.792 104.993 84.18 105.616 83.704C106.239 83.228 107.106 82.99 108.217 82.99C108.795 82.99 109.373 83.0693 109.951 83.228C110.529 83.3753 111.005 83.5737 111.379 83.823L110.852 84.792C110.115 84.282 109.237 84.027 108.217 84.027C107.446 84.027 106.863 84.163 106.466 84.435C106.081 84.707 105.888 85.064 105.888 85.506C105.888 85.846 105.996 86.118 106.211 86.322C106.438 86.526 106.715 86.679 107.044 86.781C107.373 86.8717 107.826 86.968 108.404 87.07C109.118 87.206 109.69 87.342 110.121 87.478C110.552 87.614 110.92 87.8463 111.226 88.175C111.532 88.5037 111.685 88.957 111.685 89.535C111.685 90.317 111.356 90.9403 110.699 91.405C110.053 91.8583 109.152 92.085 107.996 92.085ZM128.566 80.1V92H127.529L119.879 82.344V92H118.621V80.1H119.658L127.325 89.756V80.1H128.566ZM135.323 82.99C136.49 82.99 137.385 83.2847 138.009 83.874C138.632 84.452 138.944 85.3133 138.944 86.458V92H137.788V90.606C137.516 91.0707 137.113 91.4333 136.581 91.694C136.059 91.9547 135.436 92.085 134.711 92.085C133.713 92.085 132.92 91.847 132.331 91.371C131.741 90.895 131.447 90.266 131.447 89.484C131.447 88.7247 131.719 88.1127 132.263 87.648C132.818 87.1833 133.696 86.951 134.898 86.951H137.737V86.407C137.737 85.6363 137.521 85.0527 137.091 84.656C136.66 84.248 136.031 84.044 135.204 84.044C134.637 84.044 134.093 84.1403 133.572 84.333C133.05 84.5143 132.603 84.7693 132.229 85.098L131.685 84.197C132.138 83.8117 132.682 83.517 133.317 83.313C133.951 83.0977 134.62 82.99 135.323 82.99ZM134.898 91.133C135.578 91.133 136.161 90.98 136.649 90.674C137.136 90.3567 137.499 89.9033 137.737 89.314V87.852H134.932C133.402 87.852 132.637 88.3847 132.637 89.45C132.637 89.9713 132.835 90.385 133.232 90.691C133.628 90.9857 134.184 91.133 134.898 91.133ZM146.778 82.99C147.9 82.99 148.79 83.3187 149.447 83.976C150.116 84.622 150.45 85.5683 150.45 86.815V92H149.243V86.934C149.243 86.0047 149.011 85.2963 148.546 84.809C148.081 84.3217 147.418 84.078 146.557 84.078C145.594 84.078 144.829 84.367 144.262 84.945C143.707 85.5117 143.429 86.2993 143.429 87.308V92H142.222V83.058H143.378V84.707C143.707 84.163 144.16 83.7437 144.738 83.449C145.327 83.143 146.007 82.99 146.778 82.99ZM158.436 91.456C158.209 91.66 157.926 91.8187 157.586 91.932C157.257 92.034 156.912 92.085 156.549 92.085C155.71 92.085 155.064 91.8583 154.611 91.405C154.158 90.9517 153.931 90.3113 153.931 89.484V84.078H152.333V83.058H153.931V81.103H155.138V83.058H157.858V84.078H155.138V89.416C155.138 89.9487 155.268 90.3567 155.529 90.64C155.801 90.912 156.186 91.048 156.685 91.048C156.934 91.048 157.172 91.0083 157.399 90.929C157.637 90.8497 157.841 90.7363 158.011 90.589L158.436 91.456ZM168.104 87.903H160.624C160.692 88.8323 161.049 89.586 161.695 90.164C162.341 90.7307 163.157 91.014 164.143 91.014C164.698 91.014 165.208 90.9177 165.673 90.725C166.137 90.521 166.54 90.2263 166.88 89.841L167.56 90.623C167.163 91.099 166.664 91.4617 166.064 91.711C165.474 91.9603 164.823 92.085 164.109 92.085C163.191 92.085 162.375 91.8923 161.661 91.507C160.958 91.1103 160.408 90.5663 160.012 89.875C159.615 89.1837 159.417 88.4017 159.417 87.529C159.417 86.6563 159.604 85.8743 159.978 85.183C160.363 84.4917 160.884 83.9533 161.542 83.568C162.21 83.1827 162.958 82.99 163.786 82.99C164.613 82.99 165.355 83.1827 166.013 83.568C166.67 83.9533 167.186 84.4917 167.56 85.183C167.934 85.863 168.121 86.645 168.121 87.529L168.104 87.903ZM163.786 84.027C162.924 84.027 162.199 84.3047 161.61 84.86C161.032 85.404 160.703 86.118 160.624 87.002H166.965C166.885 86.118 166.551 85.404 165.962 84.86C165.384 84.3047 164.658 84.027 163.786 84.027ZM172.975 92.085C172.249 92.085 171.552 91.983 170.884 91.779C170.226 91.5637 169.711 91.2973 169.337 90.98L169.881 90.028C170.255 90.3227 170.725 90.5663 171.292 90.759C171.858 90.9403 172.448 91.031 173.06 91.031C173.876 91.031 174.476 90.9063 174.862 90.657C175.258 90.3963 175.457 90.0337 175.457 89.569C175.457 89.2403 175.349 88.9853 175.134 88.804C174.918 88.6113 174.646 88.4697 174.318 88.379C173.989 88.277 173.553 88.1807 173.009 88.09C172.283 87.954 171.7 87.818 171.258 87.682C170.816 87.5347 170.436 87.291 170.119 86.951C169.813 86.611 169.66 86.1407 169.66 85.54C169.66 84.792 169.971 84.18 170.595 83.704C171.218 83.228 172.085 82.99 173.196 82.99C173.774 82.99 174.352 83.0693 174.93 83.228C175.508 83.3753 175.984 83.5737 176.358 83.823L175.831 84.792C175.094 84.282 174.216 84.027 173.196 84.027C172.425 84.027 171.841 84.163 171.445 84.435C171.059 84.707 170.867 85.064 170.867 85.506C170.867 85.846 170.974 86.118 171.19 86.322C171.416 86.526 171.694 86.679 172.023 86.781C172.351 86.8717 172.805 86.968 173.383 87.07C174.097 87.206 174.669 87.342 175.1 87.478C175.53 87.614 175.899 87.8463 176.205 88.175C176.511 88.5037 176.664 88.957 176.664 89.535C176.664 90.317 176.335 90.9403 175.678 91.405C175.032 91.8583 174.131 92.085 172.975 92.085ZM194.496 82.99C195.618 82.99 196.496 83.313 197.131 83.959C197.777 84.605 198.1 85.557 198.1 86.815V92H196.893V86.934C196.893 86.0047 196.666 85.2963 196.213 84.809C195.771 84.3217 195.142 84.078 194.326 84.078C193.397 84.078 192.666 84.367 192.133 84.945C191.6 85.5117 191.334 86.2993 191.334 87.308V92H190.127V86.934C190.127 86.0047 189.9 85.2963 189.447 84.809C189.005 84.3217 188.37 84.078 187.543 84.078C186.625 84.078 185.894 84.367 185.35 84.945C184.817 85.5117 184.551 86.2993 184.551 87.308V92H183.344V83.058H184.5V84.69C184.817 84.146 185.259 83.7267 185.826 83.432C186.393 83.1373 187.044 82.99 187.781 82.99C188.529 82.99 189.175 83.1487 189.719 83.466C190.274 83.7833 190.688 84.2537 190.96 84.877C191.289 84.2877 191.759 83.8287 192.371 83.5C192.994 83.16 193.703 82.99 194.496 82.99ZM201.373 83.058H202.58V92H201.373V83.058ZM201.985 81.103C201.736 81.103 201.526 81.018 201.356 80.848C201.186 80.678 201.101 80.474 201.101 80.236C201.101 80.0093 201.186 79.811 201.356 79.641C201.526 79.471 201.736 79.386 201.985 79.386C202.235 79.386 202.444 79.471 202.614 79.641C202.784 79.7997 202.869 79.9923 202.869 80.219C202.869 80.4683 202.784 80.678 202.614 80.848C202.444 81.018 202.235 81.103 201.985 81.103ZM213.725 87.903H206.245C206.313 88.8323 206.67 89.586 207.316 90.164C207.962 90.7307 208.778 91.014 209.764 91.014C210.319 91.014 210.829 90.9177 211.294 90.725C211.759 90.521 212.161 90.2263 212.501 89.841L213.181 90.623C212.784 91.099 212.286 91.4617 211.685 91.711C211.096 91.9603 210.444 92.085 209.73 92.085C208.812 92.085 207.996 91.8923 207.282 91.507C206.579 91.1103 206.03 90.5663 205.633 89.875C205.236 89.1837 205.038 88.4017 205.038 87.529C205.038 86.6563 205.225 85.8743 205.599 85.183C205.984 84.4917 206.506 83.9533 207.163 83.568C207.832 83.1827 208.58 82.99 209.407 82.99C210.234 82.99 210.977 83.1827 211.634 83.568C212.291 83.9533 212.807 84.4917 213.181 85.183C213.555 85.863 213.742 86.645 213.742 87.529L213.725 87.903ZM209.407 84.027C208.546 84.027 207.82 84.3047 207.231 84.86C206.653 85.404 206.324 86.118 206.245 87.002H212.586C212.507 86.118 212.172 85.404 211.583 84.86C211.005 84.3047 210.28 84.027 209.407 84.027ZM224.257 83.058V92H223.101V90.368C222.783 90.912 222.347 91.337 221.792 91.643C221.236 91.9377 220.602 92.085 219.888 92.085C218.72 92.085 217.797 91.762 217.117 91.116C216.448 90.4587 216.114 89.501 216.114 88.243V83.058H217.321V88.124C217.321 89.0647 217.553 89.7787 218.018 90.266C218.482 90.7533 219.145 90.997 220.007 90.997C220.947 90.997 221.69 90.7137 222.234 90.147C222.778 89.569 223.05 88.77 223.05 87.75V83.058H224.257ZM233.332 92L230.493 88.26L227.637 92H226.277L229.813 87.41L226.447 83.058H227.807L230.493 86.56L233.179 83.058H234.505L231.139 87.41L234.709 92H233.332ZM249.327 83.058V95.298H248.12V90.317C247.746 90.895 247.265 91.337 246.675 91.643C246.097 91.9377 245.446 92.085 244.72 92.085C243.87 92.085 243.105 91.898 242.425 91.524C241.757 91.1387 241.23 90.6003 240.844 89.909C240.459 89.2177 240.266 88.4243 240.266 87.529C240.266 86.645 240.459 85.8573 240.844 85.166C241.23 84.4747 241.762 83.942 242.442 83.568C243.122 83.1827 243.882 82.99 244.72 82.99C245.468 82.99 246.137 83.1487 246.726 83.466C247.327 83.7833 247.809 84.2367 248.171 84.826V83.058H249.327ZM244.822 91.014C245.446 91.014 246.007 90.8723 246.505 90.589C247.015 90.2943 247.412 89.8807 247.695 89.348C247.99 88.8153 248.137 88.209 248.137 87.529C248.137 86.849 247.99 86.2483 247.695 85.727C247.412 85.1943 247.015 84.7807 246.505 84.486C246.007 84.1913 245.446 84.044 244.822 84.044C244.188 84.044 243.615 84.1913 243.105 84.486C242.607 84.7807 242.21 85.1943 241.915 85.727C241.632 86.2483 241.49 86.849 241.49 87.529C241.49 88.209 241.632 88.8153 241.915 89.348C242.21 89.8807 242.607 90.2943 243.105 90.589C243.615 90.8723 244.188 91.014 244.822 91.014ZM260.747 83.058V92H259.591V90.368C259.274 90.912 258.837 91.337 258.282 91.643C257.727 91.9377 257.092 92.085 256.378 92.085C255.211 92.085 254.287 91.762 253.607 91.116C252.938 90.4587 252.604 89.501 252.604 88.243V83.058H253.811V88.124C253.811 89.0647 254.043 89.7787 254.508 90.266C254.973 90.7533 255.636 90.997 256.497 90.997C257.438 90.997 258.18 90.7137 258.724 90.147C259.268 89.569 259.54 88.77 259.54 87.75V83.058H260.747ZM271.913 87.903H264.433C264.501 88.8323 264.858 89.586 265.504 90.164C266.15 90.7307 266.966 91.014 267.952 91.014C268.508 91.014 269.018 90.9177 269.482 90.725C269.947 90.521 270.349 90.2263 270.689 89.841L271.369 90.623C270.973 91.099 270.474 91.4617 269.873 91.711C269.284 91.9603 268.632 92.085 267.918 92.085C267 92.085 266.184 91.8923 265.47 91.507C264.768 91.1103 264.218 90.5663 263.821 89.875C263.425 89.1837 263.226 88.4017 263.226 87.529C263.226 86.6563 263.413 85.8743 263.787 85.183C264.173 84.4917 264.694 83.9533 265.351 83.568C266.02 83.1827 266.768 82.99 267.595 82.99C268.423 82.99 269.165 83.1827 269.822 83.568C270.48 83.9533 270.995 84.4917 271.369 85.183C271.743 85.863 271.93 86.645 271.93 87.529L271.913 87.903ZM267.595 84.027C266.734 84.027 266.009 84.3047 265.419 84.86C264.841 85.404 264.513 86.118 264.433 87.002H270.774C270.695 86.118 270.361 85.404 269.771 84.86C269.193 84.3047 268.468 84.027 267.595 84.027ZM29.29 103.99C30.1287 103.99 30.888 104.183 31.568 104.568C32.248 104.942 32.7807 105.475 33.166 106.166C33.5513 106.857 33.744 107.645 33.744 108.529C33.744 109.424 33.5513 110.218 33.166 110.909C32.7807 111.6 32.248 112.139 31.568 112.524C30.8993 112.898 30.14 113.085 29.29 113.085C28.5647 113.085 27.9073 112.938 27.318 112.643C26.74 112.337 26.264 111.895 25.89 111.317V116.298H24.683V104.058H25.839V105.826C26.2017 105.237 26.6777 104.783 27.267 104.466C27.8677 104.149 28.542 103.99 29.29 103.99ZM29.205 112.014C29.8283 112.014 30.395 111.872 30.905 111.589C31.415 111.294 31.8117 110.881 32.095 110.348C32.3897 109.815 32.537 109.209 32.537 108.529C32.537 107.849 32.3897 107.248 32.095 106.727C31.8117 106.194 31.415 105.781 30.905 105.486C30.395 105.191 29.8283 105.044 29.205 105.044C28.5703 105.044 27.998 105.191 27.488 105.486C26.9893 105.781 26.5927 106.194 26.298 106.727C26.0147 107.248 25.873 107.849 25.873 108.529C25.873 109.209 26.0147 109.815 26.298 110.348C26.5927 110.881 26.9893 111.294 27.488 111.589C27.998 111.872 28.5703 112.014 29.205 112.014ZM43.9905 108.903H36.5105C36.5785 109.832 36.9355 110.586 37.5815 111.164C38.2275 111.731 39.0435 112.014 40.0295 112.014C40.5848 112.014 41.0948 111.918 41.5595 111.725C42.0242 111.521 42.4265 111.226 42.7665 110.841L43.4465 111.623C43.0498 112.099 42.5512 112.462 41.9505 112.711C41.3612 112.96 40.7095 113.085 39.9955 113.085C39.0775 113.085 38.2615 112.892 37.5475 112.507C36.8448 112.11 36.2952 111.566 35.8985 110.875C35.5018 110.184 35.3035 109.402 35.3035 108.529C35.3035 107.656 35.4905 106.874 35.8645 106.183C36.2498 105.492 36.7712 104.953 37.4285 104.568C38.0972 104.183 38.8452 103.99 39.6725 103.99C40.4998 103.99 41.2422 104.183 41.8995 104.568C42.5568 104.953 43.0725 105.492 43.4465 106.183C43.8205 106.863 44.0075 107.645 44.0075 108.529L43.9905 108.903ZM39.6725 105.027C38.8112 105.027 38.0858 105.305 37.4965 105.86C36.9185 106.404 36.5898 107.118 36.5105 108.002H42.8515C42.7722 107.118 42.4378 106.404 41.8485 105.86C41.2705 105.305 40.5452 105.027 39.6725 105.027ZM47.6203 105.809C47.9036 105.208 48.3229 104.755 48.8783 104.449C49.4449 104.143 50.1419 103.99 50.9693 103.99V105.163L50.6803 105.146C49.7396 105.146 49.0029 105.435 48.4703 106.013C47.9376 106.591 47.6713 107.401 47.6713 108.444V113H46.4643V104.058H47.6203V105.809ZM55.6181 113.085C54.8928 113.085 54.1958 112.983 53.5271 112.779C52.8698 112.564 52.3541 112.297 51.9801 111.98L52.5241 111.028C52.8981 111.323 53.3684 111.566 53.9351 111.759C54.5018 111.94 55.0911 112.031 55.7031 112.031C56.5191 112.031 57.1198 111.906 57.5051 111.657C57.9018 111.396 58.1001 111.034 58.1001 110.569C58.1001 110.24 57.9924 109.985 57.7771 109.804C57.5618 109.611 57.2898 109.47 56.9611 109.379C56.6324 109.277 56.1961 109.181 55.6521 109.09C54.9268 108.954 54.3431 108.818 53.9011 108.682C53.4591 108.535 53.0794 108.291 52.7621 107.951C52.4561 107.611 52.3031 107.141 52.3031 106.54C52.3031 105.792 52.6148 105.18 53.2381 104.704C53.8614 104.228 54.7284 103.99 55.8391 103.99C56.4171 103.99 56.9951 104.069 57.5731 104.228C58.1511 104.375 58.6271 104.574 59.0011 104.823L58.4741 105.792C57.7374 105.282 56.8591 105.027 55.8391 105.027C55.0684 105.027 54.4848 105.163 54.0881 105.435C53.7028 105.707 53.5101 106.064 53.5101 106.506C53.5101 106.846 53.6178 107.118 53.8331 107.322C54.0598 107.526 54.3374 107.679 54.6661 107.781C54.9948 107.872 55.4481 107.968 56.0261 108.07C56.7401 108.206 57.3124 108.342 57.7431 108.478C58.1738 108.614 58.5421 108.846 58.8481 109.175C59.1541 109.504 59.3071 109.957 59.3071 110.535C59.3071 111.317 58.9784 111.94 58.3211 112.405C57.6751 112.858 56.7741 113.085 55.6181 113.085ZM65.1935 113.085C64.3321 113.085 63.5558 112.892 62.8645 112.507C62.1731 112.11 61.6291 111.566 61.2325 110.875C60.8358 110.184 60.6375 109.402 60.6375 108.529C60.6375 107.656 60.8358 106.874 61.2325 106.183C61.6291 105.492 62.1731 104.953 62.8645 104.568C63.5558 104.183 64.3321 103.99 65.1935 103.99C66.0548 103.99 66.8311 104.183 67.5225 104.568C68.2138 104.953 68.7521 105.492 69.1375 106.183C69.5341 106.874 69.7325 107.656 69.7325 108.529C69.7325 109.402 69.5341 110.184 69.1375 110.875C68.7521 111.566 68.2138 112.11 67.5225 112.507C66.8311 112.892 66.0548 113.085 65.1935 113.085ZM65.1935 112.014C65.8281 112.014 66.3948 111.872 66.8935 111.589C67.4035 111.294 67.8001 110.881 68.0835 110.348C68.3668 109.815 68.5085 109.209 68.5085 108.529C68.5085 107.849 68.3668 107.243 68.0835 106.71C67.8001 106.177 67.4035 105.769 66.8935 105.486C66.3948 105.191 65.8281 105.044 65.1935 105.044C64.5588 105.044 63.9865 105.191 63.4765 105.486C62.9778 105.769 62.5811 106.177 62.2865 106.71C62.0031 107.243 61.8615 107.849 61.8615 108.529C61.8615 109.209 62.0031 109.815 62.2865 110.348C62.5811 110.881 62.9778 111.294 63.4765 111.589C63.9865 111.872 64.5588 112.014 65.1935 112.014ZM76.7527 103.99C77.8747 103.99 78.7643 104.319 79.4217 104.976C80.0903 105.622 80.4247 106.568 80.4247 107.815V113H79.2177V107.934C79.2177 107.005 78.9853 106.296 78.5207 105.809C78.056 105.322 77.393 105.078 76.5317 105.078C75.5683 105.078 74.8033 105.367 74.2367 105.945C73.6813 106.512 73.4037 107.299 73.4037 108.308V113H72.1967V104.058H73.3527V105.707C73.6813 105.163 74.1347 104.744 74.7127 104.449C75.302 104.143 75.982 103.99 76.7527 103.99ZM88.2576 103.99C89.3796 103.99 90.2692 104.319 90.9266 104.976C91.5952 105.622 91.9296 106.568 91.9296 107.815V113H90.7226V107.934C90.7226 107.005 90.4902 106.296 90.0256 105.809C89.5609 105.322 88.8979 105.078 88.0366 105.078C87.0732 105.078 86.3082 105.367 85.7416 105.945C85.1862 106.512 84.9086 107.299 84.9086 108.308V113H83.7016V104.058H84.8576V105.707C85.1862 105.163 85.6396 104.744 86.2176 104.449C86.8069 104.143 87.4869 103.99 88.2576 103.99ZM103.026 108.903H95.5456C95.6136 109.832 95.9706 110.586 96.6166 111.164C97.2626 111.731 98.0786 112.014 99.0646 112.014C99.62 112.014 100.13 111.918 100.595 111.725C101.059 111.521 101.462 111.226 101.802 110.841L102.482 111.623C102.085 112.099 101.586 112.462 100.986 112.711C100.396 112.96 99.7446 113.085 99.0306 113.085C98.1126 113.085 97.2966 112.892 96.5826 112.507C95.88 112.11 95.3303 111.566 94.9336 110.875C94.537 110.184 94.3386 109.402 94.3386 108.529C94.3386 107.656 94.5256 106.874 94.8996 106.183C95.285 105.492 95.8063 104.953 96.4636 104.568C97.1323 104.183 97.8803 103.99 98.7076 103.99C99.535 103.99 100.277 104.183 100.935 104.568C101.592 104.953 102.108 105.492 102.482 106.183C102.856 106.863 103.043 107.645 103.043 108.529L103.026 108.903ZM98.7076 105.027C97.8463 105.027 97.121 105.305 96.5316 105.86C95.9536 106.404 95.625 107.118 95.5456 108.002H101.887C101.807 107.118 101.473 106.404 100.884 105.86C100.306 105.305 99.5803 105.027 98.7076 105.027ZM105.618 113.085C105.369 113.085 105.154 112.994 104.972 112.813C104.802 112.632 104.717 112.411 104.717 112.15C104.717 111.889 104.802 111.674 104.972 111.504C105.154 111.323 105.369 111.232 105.618 111.232C105.868 111.232 106.083 111.323 106.264 111.504C106.446 111.674 106.536 111.889 106.536 112.15C106.536 112.411 106.446 112.632 106.264 112.813C106.083 112.994 105.868 113.085 105.618 113.085ZM121.269 109.821H114.639L113.211 113H111.902L117.342 101.1H118.583L124.023 113H122.697L121.269 109.821ZM120.81 108.801L117.954 102.409L115.098 108.801H120.81ZM132.802 104.058L128.824 113H127.583L123.622 104.058H124.88L128.229 111.674L131.612 104.058H132.802ZM142.039 108.903H134.559C134.627 109.832 134.984 110.586 135.63 111.164C136.276 111.731 137.092 112.014 138.078 112.014C138.634 112.014 139.144 111.918 139.608 111.725C140.073 111.521 140.475 111.226 140.815 110.841L141.495 111.623C141.099 112.099 140.6 112.462 139.999 112.711C139.41 112.96 138.758 113.085 138.044 113.085C137.126 113.085 136.31 112.892 135.596 112.507C134.894 112.11 134.344 111.566 133.947 110.875C133.551 110.184 133.352 109.402 133.352 108.529C133.352 107.656 133.539 106.874 133.913 106.183C134.299 105.492 134.82 104.953 135.477 104.568C136.146 104.183 136.894 103.99 137.721 103.99C138.549 103.99 139.291 104.183 139.948 104.568C140.606 104.953 141.121 105.492 141.495 106.183C141.869 106.863 142.056 107.645 142.056 108.529L142.039 108.903ZM137.721 105.027C136.86 105.027 136.135 105.305 135.545 105.86C134.967 106.404 134.639 107.118 134.559 108.002H140.9C140.821 107.118 140.487 106.404 139.897 105.86C139.319 105.305 138.594 105.027 137.721 105.027ZM150.737 111.997V113H143.461V112.201L149.088 105.078H143.563V104.058H150.635V104.857L145.008 111.997H150.737ZM152.217 107.866H156.671V108.92H152.217V107.866ZM166.686 104.058L162.708 113H161.467L157.506 104.058H158.764L162.113 111.674L165.496 104.058H166.686ZM171.792 113.085C170.931 113.085 170.154 112.892 169.463 112.507C168.772 112.11 168.228 111.566 167.831 110.875C167.434 110.184 167.236 109.402 167.236 108.529C167.236 107.656 167.434 106.874 167.831 106.183C168.228 105.492 168.772 104.953 169.463 104.568C170.154 104.183 170.931 103.99 171.792 103.99C172.653 103.99 173.43 104.183 174.121 104.568C174.812 104.953 175.351 105.492 175.736 106.183C176.133 106.874 176.331 107.656 176.331 108.529C176.331 109.402 176.133 110.184 175.736 110.875C175.351 111.566 174.812 112.11 174.121 112.507C173.43 112.892 172.653 113.085 171.792 113.085ZM171.792 112.014C172.427 112.014 172.993 111.872 173.492 111.589C174.002 111.294 174.399 110.881 174.682 110.348C174.965 109.815 175.107 109.209 175.107 108.529C175.107 107.849 174.965 107.243 174.682 106.71C174.399 106.177 174.002 105.769 173.492 105.486C172.993 105.191 172.427 105.044 171.792 105.044C171.157 105.044 170.585 105.191 170.075 105.486C169.576 105.769 169.18 106.177 168.885 106.71C168.602 107.243 168.46 107.849 168.46 108.529C168.46 109.209 168.602 109.815 168.885 110.348C169.18 110.881 169.576 111.294 170.075 111.589C170.585 111.872 171.157 112.014 171.792 112.014ZM186.853 104.058V113H185.697V111.368C185.38 111.912 184.944 112.337 184.388 112.643C183.833 112.938 183.198 113.085 182.484 113.085C181.317 113.085 180.393 112.762 179.713 112.116C179.045 111.459 178.71 110.501 178.71 109.243V104.058H179.917V109.124C179.917 110.065 180.15 110.779 180.614 111.266C181.079 111.753 181.742 111.997 182.603 111.997C183.544 111.997 184.286 111.714 184.83 111.147C185.374 110.569 185.646 109.77 185.646 108.75V104.058H186.853ZM192.631 113.085C191.905 113.085 191.208 112.983 190.54 112.779C189.882 112.564 189.367 112.297 188.993 111.98L189.537 111.028C189.911 111.323 190.381 111.566 190.948 111.759C191.514 111.94 192.104 112.031 192.716 112.031C193.532 112.031 194.132 111.906 194.518 111.657C194.914 111.396 195.113 111.034 195.113 110.569C195.113 110.24 195.005 109.985 194.79 109.804C194.574 109.611 194.302 109.47 193.974 109.379C193.645 109.277 193.209 109.181 192.665 109.09C191.939 108.954 191.356 108.818 190.914 108.682C190.472 108.535 190.092 108.291 189.775 107.951C189.469 107.611 189.316 107.141 189.316 106.54C189.316 105.792 189.627 105.18 190.251 104.704C190.874 104.228 191.741 103.99 192.852 103.99C193.43 103.99 194.008 104.069 194.586 104.228C195.164 104.375 195.64 104.574 196.014 104.823L195.487 105.792C194.75 105.282 193.872 105.027 192.852 105.027C192.081 105.027 191.497 105.163 191.101 105.435C190.715 105.707 190.523 106.064 190.523 106.506C190.523 106.846 190.63 107.118 190.846 107.322C191.072 107.526 191.35 107.679 191.679 107.781C192.007 107.872 192.461 107.968 193.039 108.07C193.753 108.206 194.325 108.342 194.756 108.478C195.186 108.614 195.555 108.846 195.861 109.175C196.167 109.504 196.32 109.957 196.32 110.535C196.32 111.317 195.991 111.94 195.334 112.405C194.688 112.858 193.787 113.085 192.631 113.085ZM211.16 100.386V113H210.004V111.232C209.642 111.833 209.16 112.292 208.559 112.609C207.97 112.926 207.301 113.085 206.553 113.085C205.715 113.085 204.955 112.892 204.275 112.507C203.595 112.122 203.063 111.583 202.677 110.892C202.292 110.201 202.099 109.413 202.099 108.529C202.099 107.645 202.292 106.857 202.677 106.166C203.063 105.475 203.595 104.942 204.275 104.568C204.955 104.183 205.715 103.99 206.553 103.99C207.279 103.99 207.93 104.143 208.508 104.449C209.098 104.744 209.579 105.18 209.953 105.758V100.386H211.16ZM206.655 112.014C207.279 112.014 207.84 111.872 208.338 111.589C208.848 111.294 209.245 110.881 209.528 110.348C209.823 109.815 209.97 109.209 209.97 108.529C209.97 107.849 209.823 107.243 209.528 106.71C209.245 106.177 208.848 105.769 208.338 105.486C207.84 105.191 207.279 105.044 206.655 105.044C206.021 105.044 205.448 105.191 204.938 105.486C204.44 105.769 204.043 106.177 203.748 106.71C203.465 107.243 203.323 107.849 203.323 108.529C203.323 109.209 203.465 109.815 203.748 110.348C204.043 110.881 204.44 111.294 204.938 111.589C205.448 111.872 206.021 112.014 206.655 112.014ZM222.308 108.903H214.828C214.896 109.832 215.253 110.586 215.899 111.164C216.545 111.731 217.361 112.014 218.347 112.014C218.902 112.014 219.412 111.918 219.877 111.725C220.342 111.521 220.744 111.226 221.084 110.841L221.764 111.623C221.367 112.099 220.869 112.462 220.268 112.711C219.679 112.96 219.027 113.085 218.313 113.085C217.395 113.085 216.579 112.892 215.865 112.507C215.162 112.11 214.613 111.566 214.216 110.875C213.819 110.184 213.621 109.402 213.621 108.529C213.621 107.656 213.808 106.874 214.182 106.183C214.567 105.492 215.089 104.953 215.746 104.568C216.415 104.183 217.163 103.99 217.99 103.99C218.817 103.99 219.56 104.183 220.217 104.568C220.874 104.953 221.39 105.492 221.764 106.183C222.138 106.863 222.325 107.645 222.325 108.529L222.308 108.903ZM217.99 105.027C217.129 105.027 216.403 105.305 215.814 105.86C215.236 106.404 214.907 107.118 214.828 108.002H221.169C221.09 107.118 220.755 106.404 220.166 105.86C219.588 105.305 218.863 105.027 217.99 105.027ZM219.214 100.556H220.829L218.075 102.664H216.885L219.214 100.556ZM223.456 116.383C223.082 116.383 222.73 116.332 222.402 116.23C222.062 116.139 221.784 115.998 221.569 115.805L221.994 114.887C222.345 115.193 222.81 115.346 223.388 115.346C223.864 115.346 224.226 115.204 224.476 114.921C224.736 114.638 224.867 114.218 224.867 113.663V104.058H226.074V113.663C226.074 114.502 225.847 115.165 225.394 115.652C224.94 116.139 224.294 116.383 223.456 116.383ZM225.479 102.086C225.229 102.086 225.02 102.001 224.85 101.831C224.68 101.661 224.595 101.457 224.595 101.219C224.595 100.992 224.68 100.794 224.85 100.624C225.02 100.454 225.229 100.369 225.479 100.369C225.728 100.369 225.938 100.454 226.108 100.624C226.278 100.783 226.363 100.975 226.363 101.202C226.363 101.451 226.278 101.661 226.108 101.831C225.938 102.001 225.728 102.086 225.479 102.086ZM232.575 103.99C233.742 103.99 234.637 104.285 235.261 104.874C235.884 105.452 236.196 106.313 236.196 107.458V113H235.04V111.606C234.768 112.071 234.365 112.433 233.833 112.694C233.311 112.955 232.688 113.085 231.963 113.085C230.965 113.085 230.172 112.847 229.583 112.371C228.993 111.895 228.699 111.266 228.699 110.484C228.699 109.725 228.971 109.113 229.515 108.648C230.07 108.183 230.948 107.951 232.15 107.951H234.989V107.407C234.989 106.636 234.773 106.053 234.343 105.656C233.912 105.248 233.283 105.044 232.456 105.044C231.889 105.044 231.345 105.14 230.824 105.333C230.302 105.514 229.855 105.769 229.481 106.098L228.937 105.197C229.39 104.812 229.934 104.517 230.569 104.313C231.203 104.098 231.872 103.99 232.575 103.99ZM232.15 112.133C232.83 112.133 233.413 111.98 233.901 111.674C234.388 111.357 234.751 110.903 234.989 110.314V108.852H232.184C230.654 108.852 229.889 109.385 229.889 110.45C229.889 110.971 230.087 111.385 230.484 111.691C230.88 111.986 231.436 112.133 232.15 112.133ZM229.77 100.556H231.385L233.714 102.664H232.524L229.77 100.556ZM25.839 126.809C26.1223 126.208 26.5417 125.755 27.097 125.449C27.6637 125.143 28.3607 124.99 29.188 124.99V126.163L28.899 126.146C27.9583 126.146 27.2217 126.435 26.689 127.013C26.1563 127.591 25.89 128.401 25.89 129.444V134H24.683V125.058H25.839V126.809ZM39.0764 129.903H31.5964C31.6644 130.832 32.0214 131.586 32.6674 132.164C33.3134 132.731 34.1294 133.014 35.1154 133.014C35.6708 133.014 36.1808 132.918 36.6454 132.725C37.1101 132.521 37.5124 132.226 37.8524 131.841L38.5324 132.623C38.1358 133.099 37.6371 133.462 37.0364 133.711C36.4471 133.96 35.7954 134.085 35.0814 134.085C34.1634 134.085 33.3474 133.892 32.6334 133.507C31.9308 133.11 31.3811 132.566 30.9844 131.875C30.5878 131.184 30.3894 130.402 30.3894 129.529C30.3894 128.656 30.5764 127.874 30.9504 127.183C31.3358 126.492 31.8571 125.953 32.5144 125.568C33.1831 125.183 33.9311 124.99 34.7584 124.99C35.5858 124.99 36.3281 125.183 36.9854 125.568C37.6428 125.953 38.1584 126.492 38.5324 127.183C38.9064 127.863 39.0934 128.645 39.0934 129.529L39.0764 129.903ZM34.7584 126.027C33.8971 126.027 33.1718 126.305 32.5824 126.86C32.0044 127.404 31.6758 128.118 31.5964 129.002H37.9374C37.8581 128.118 37.5238 127.404 36.9344 126.86C36.3564 126.305 35.6311 126.027 34.7584 126.027ZM46.1572 124.99C46.9959 124.99 47.7552 125.183 48.4352 125.568C49.1152 125.942 49.6479 126.475 50.0332 127.166C50.4185 127.857 50.6112 128.645 50.6112 129.529C50.6112 130.424 50.4185 131.218 50.0332 131.909C49.6479 132.6 49.1152 133.139 48.4352 133.524C47.7665 133.898 47.0072 134.085 46.1572 134.085C45.4319 134.085 44.7745 133.938 44.1852 133.643C43.6072 133.337 43.1312 132.895 42.7572 132.317V137.298H41.5502V125.058H42.7062V126.826C43.0689 126.237 43.5449 125.783 44.1342 125.466C44.7349 125.149 45.4092 124.99 46.1572 124.99ZM46.0722 133.014C46.6955 133.014 47.2622 132.872 47.7722 132.589C48.2822 132.294 48.6789 131.881 48.9622 131.348C49.2569 130.815 49.4042 130.209 49.4042 129.529C49.4042 128.849 49.2569 128.248 48.9622 127.727C48.6789 127.194 48.2822 126.781 47.7722 126.486C47.2622 126.191 46.6955 126.044 46.0722 126.044C45.4375 126.044 44.8652 126.191 44.3552 126.486C43.8565 126.781 43.4599 127.194 43.1652 127.727C42.8819 128.248 42.7402 128.849 42.7402 129.529C42.7402 130.209 42.8819 130.815 43.1652 131.348C43.4599 131.881 43.8565 132.294 44.3552 132.589C44.8652 132.872 45.4375 133.014 46.0722 133.014ZM60.8577 129.903H53.3777C53.4457 130.832 53.8027 131.586 54.4487 132.164C55.0947 132.731 55.9107 133.014 56.8967 133.014C57.452 133.014 57.962 132.918 58.4267 132.725C58.8913 132.521 59.2937 132.226 59.6337 131.841L60.3137 132.623C59.917 133.099 59.4183 133.462 58.8177 133.711C58.2283 133.96 57.5767 134.085 56.8627 134.085C55.9447 134.085 55.1287 133.892 54.4147 133.507C53.712 133.11 53.1623 132.566 52.7657 131.875C52.369 131.184 52.1707 130.402 52.1707 129.529C52.1707 128.656 52.3577 127.874 52.7317 127.183C53.117 126.492 53.6383 125.953 54.2957 125.568C54.9643 125.183 55.7123 124.99 56.5397 124.99C57.367 124.99 58.1093 125.183 58.7667 125.568C59.424 125.953 59.9397 126.492 60.3137 127.183C60.6877 127.863 60.8747 128.645 60.8747 129.529L60.8577 129.903ZM56.5397 126.027C55.6783 126.027 54.953 126.305 54.3637 126.86C53.7857 127.404 53.457 128.118 53.3777 129.002H59.7187C59.6393 128.118 59.305 127.404 58.7157 126.86C58.1377 126.305 57.4123 126.027 56.5397 126.027ZM57.7637 121.556H59.3787L56.6247 123.664H55.4347L57.7637 121.556ZM64.4874 126.809C64.7708 126.208 65.1901 125.755 65.7454 125.449C66.3121 125.143 67.0091 124.99 67.8364 124.99V126.163L67.5474 126.146C66.6068 126.146 65.8701 126.435 65.3374 127.013C64.8048 127.591 64.5384 128.401 64.5384 129.444V134H63.3314V125.058H64.4874V126.809ZM77.7249 129.903H70.2449C70.3129 130.832 70.6699 131.586 71.3159 132.164C71.9619 132.731 72.7779 133.014 73.7639 133.014C74.3192 133.014 74.8292 132.918 75.2939 132.725C75.7585 132.521 76.1609 132.226 76.5009 131.841L77.1809 132.623C76.7842 133.099 76.2855 133.462 75.6849 133.711C75.0955 133.96 74.4439 134.085 73.7299 134.085C72.8119 134.085 71.9959 133.892 71.2819 133.507C70.5792 133.11 70.0295 132.566 69.6329 131.875C69.2362 131.184 69.0379 130.402 69.0379 129.529C69.0379 128.656 69.2249 127.874 69.5989 127.183C69.9842 126.492 70.5055 125.953 71.1629 125.568C71.8315 125.183 72.5795 124.99 73.4069 124.99C74.2342 124.99 74.9765 125.183 75.6339 125.568C76.2912 125.953 76.8069 126.492 77.1809 127.183C77.5549 127.863 77.7419 128.645 77.7419 129.529L77.7249 129.903ZM73.4069 126.027C72.5455 126.027 71.8202 126.305 71.2309 126.86C70.6529 127.404 70.3242 128.118 70.2449 129.002H76.5859C76.5065 128.118 76.1722 127.404 75.5829 126.86C75.0049 126.305 74.2795 126.027 73.4069 126.027ZM74.6309 121.556H76.2459L73.4919 123.664H72.3019L74.6309 121.556ZM92.8078 125.058V137.298H91.6008V132.317C91.2268 132.895 90.7452 133.337 90.1558 133.643C89.5778 133.938 88.9262 134.085 88.2008 134.085C87.3508 134.085 86.5858 133.898 85.9058 133.524C85.2372 133.139 84.7102 132.6 84.3248 131.909C83.9395 131.218 83.7468 130.424 83.7468 129.529C83.7468 128.645 83.9395 127.857 84.3248 127.166C84.7102 126.475 85.2428 125.942 85.9228 125.568C86.6028 125.183 87.3622 124.99 88.2008 124.99C88.9488 124.99 89.6175 125.149 90.2068 125.466C90.8075 125.783 91.2892 126.237 91.6518 126.826V125.058H92.8078ZM88.3028 133.014C88.9262 133.014 89.4872 132.872 89.9858 132.589C90.4958 132.294 90.8925 131.881 91.1758 131.348C91.4705 130.815 91.6178 130.209 91.6178 129.529C91.6178 128.849 91.4705 128.248 91.1758 127.727C90.8925 127.194 90.4958 126.781 89.9858 126.486C89.4872 126.191 88.9262 126.044 88.3028 126.044C87.6682 126.044 87.0958 126.191 86.5858 126.486C86.0872 126.781 85.6905 127.194 85.3958 127.727C85.1125 128.248 84.9708 128.849 84.9708 129.529C84.9708 130.209 85.1125 130.815 85.3958 131.348C85.6905 131.881 86.0872 132.294 86.5858 132.589C87.0958 132.872 87.6682 133.014 88.3028 133.014ZM104.227 125.058V134H103.071V132.368C102.754 132.912 102.318 133.337 101.762 133.643C101.207 133.938 100.572 134.085 99.8583 134.085C98.691 134.085 97.7673 133.762 97.0873 133.116C96.4187 132.459 96.0843 131.501 96.0843 130.243V125.058H97.2913V130.124C97.2913 131.065 97.5237 131.779 97.9883 132.266C98.453 132.753 99.116 132.997 99.9773 132.997C100.918 132.997 101.66 132.714 102.204 132.147C102.748 131.569 103.02 130.77 103.02 129.75V125.058H104.227ZM115.394 129.903H107.914C107.982 130.832 108.339 131.586 108.985 132.164C109.631 132.731 110.447 133.014 111.433 133.014C111.988 133.014 112.498 132.918 112.963 132.725C113.427 132.521 113.83 132.226 114.17 131.841L114.85 132.623C114.453 133.099 113.954 133.462 113.354 133.711C112.764 133.96 112.113 134.085 111.399 134.085C110.481 134.085 109.665 133.892 108.951 133.507C108.248 133.11 107.698 132.566 107.302 131.875C106.905 131.184 106.707 130.402 106.707 129.529C106.707 128.656 106.894 127.874 107.268 127.183C107.653 126.492 108.174 125.953 108.832 125.568C109.5 125.183 110.248 124.99 111.076 124.99C111.903 124.99 112.645 125.183 113.303 125.568C113.96 125.953 114.476 126.492 114.85 127.183C115.224 127.863 115.411 128.645 115.411 129.529L115.394 129.903ZM111.076 126.027C110.214 126.027 109.489 126.305 108.9 126.86C108.322 127.404 107.993 128.118 107.914 129.002H114.255C114.175 128.118 113.841 127.404 113.252 126.86C112.674 126.305 111.948 126.027 111.076 126.027ZM117.868 121.386H119.075V134H117.868V121.386ZM130.593 125.058V137.298H129.386V132.317C129.012 132.895 128.53 133.337 127.941 133.643C127.363 133.938 126.711 134.085 125.986 134.085C125.136 134.085 124.371 133.898 123.691 133.524C123.022 133.139 122.495 132.6 122.11 131.909C121.725 131.218 121.532 130.424 121.532 129.529C121.532 128.645 121.725 127.857 122.11 127.166C122.495 126.475 123.028 125.942 123.708 125.568C124.388 125.183 125.147 124.99 125.986 124.99C126.734 124.99 127.403 125.149 127.992 125.466C128.593 125.783 129.074 126.237 129.437 126.826V125.058H130.593ZM126.088 133.014C126.711 133.014 127.272 132.872 127.771 132.589C128.281 132.294 128.678 131.881 128.961 131.348C129.256 130.815 129.403 130.209 129.403 129.529C129.403 128.849 129.256 128.248 128.961 127.727C128.678 127.194 128.281 126.781 127.771 126.486C127.272 126.191 126.711 126.044 126.088 126.044C125.453 126.044 124.881 126.191 124.371 126.486C123.872 126.781 123.476 127.194 123.181 127.727C122.898 128.248 122.756 128.849 122.756 129.529C122.756 130.209 122.898 130.815 123.181 131.348C123.476 131.881 123.872 132.294 124.371 132.589C124.881 132.872 125.453 133.014 126.088 133.014ZM142.012 125.058V134H140.856V132.368C140.539 132.912 140.103 133.337 139.547 133.643C138.992 133.938 138.357 134.085 137.643 134.085C136.476 134.085 135.552 133.762 134.872 133.116C134.204 132.459 133.869 131.501 133.869 130.243V125.058H135.076V130.124C135.076 131.065 135.309 131.779 135.773 132.266C136.238 132.753 136.901 132.997 137.762 132.997C138.703 132.997 139.445 132.714 139.989 132.147C140.533 131.569 140.805 130.77 140.805 129.75V125.058H142.012ZM153.179 129.903H145.699C145.767 130.832 146.124 131.586 146.77 132.164C147.416 132.731 148.232 133.014 149.218 133.014C149.773 133.014 150.283 132.918 150.748 132.725C151.213 132.521 151.615 132.226 151.955 131.841L152.635 132.623C152.238 133.099 151.74 133.462 151.139 133.711C150.55 133.96 149.898 134.085 149.184 134.085C148.266 134.085 147.45 133.892 146.736 133.507C146.033 133.11 145.484 132.566 145.087 131.875C144.69 131.184 144.492 130.402 144.492 129.529C144.492 128.656 144.679 127.874 145.053 127.183C145.438 126.492 145.96 125.953 146.617 125.568C147.286 125.183 148.034 124.99 148.861 124.99C149.688 124.99 150.431 125.183 151.088 125.568C151.745 125.953 152.261 126.492 152.635 127.183C153.009 127.863 153.196 128.645 153.196 129.529L153.179 129.903ZM148.861 126.027C148 126.027 147.274 126.305 146.685 126.86C146.107 127.404 145.778 128.118 145.699 129.002H152.04C151.961 128.118 151.626 127.404 151.037 126.86C150.459 126.305 149.734 126.027 148.861 126.027ZM158.05 134.085C157.324 134.085 156.627 133.983 155.959 133.779C155.301 133.564 154.786 133.297 154.412 132.98L154.956 132.028C155.33 132.323 155.8 132.566 156.367 132.759C156.933 132.94 157.523 133.031 158.135 133.031C158.951 133.031 159.551 132.906 159.937 132.657C160.333 132.396 160.532 132.034 160.532 131.569C160.532 131.24 160.424 130.985 160.209 130.804C159.993 130.611 159.721 130.47 159.393 130.379C159.064 130.277 158.628 130.181 158.084 130.09C157.358 129.954 156.775 129.818 156.333 129.682C155.891 129.535 155.511 129.291 155.194 128.951C154.888 128.611 154.735 128.141 154.735 127.54C154.735 126.792 155.046 126.18 155.67 125.704C156.293 125.228 157.16 124.99 158.271 124.99C158.849 124.99 159.427 125.069 160.005 125.228C160.583 125.375 161.059 125.574 161.433 125.823L160.906 126.792C160.169 126.282 159.291 126.027 158.271 126.027C157.5 126.027 156.916 126.163 156.52 126.435C156.134 126.707 155.942 127.064 155.942 127.506C155.942 127.846 156.049 128.118 156.265 128.322C156.491 128.526 156.769 128.679 157.098 128.781C157.426 128.872 157.88 128.968 158.458 129.07C159.172 129.206 159.744 129.342 160.175 129.478C160.605 129.614 160.974 129.846 161.28 130.175C161.586 130.504 161.739 130.957 161.739 131.535C161.739 132.317 161.41 132.94 160.753 133.405C160.107 133.858 159.206 134.085 158.05 134.085ZM171.547 124.99C172.715 124.99 173.61 125.285 174.233 125.874C174.857 126.452 175.168 127.313 175.168 128.458V134H174.012V132.606C173.74 133.071 173.338 133.433 172.805 133.694C172.284 133.955 171.661 134.085 170.935 134.085C169.938 134.085 169.145 133.847 168.555 133.371C167.966 132.895 167.671 132.266 167.671 131.484C167.671 130.725 167.943 130.113 168.487 129.648C169.043 129.183 169.921 128.951 171.122 128.951H173.961V128.407C173.961 127.636 173.746 127.053 173.315 126.656C172.885 126.248 172.256 126.044 171.428 126.044C170.862 126.044 170.318 126.14 169.796 126.333C169.275 126.514 168.827 126.769 168.453 127.098L167.909 126.197C168.363 125.812 168.907 125.517 169.541 125.313C170.176 125.098 170.845 124.99 171.547 124.99ZM171.122 133.133C171.802 133.133 172.386 132.98 172.873 132.674C173.361 132.357 173.723 131.903 173.961 131.314V129.852H171.156C169.626 129.852 168.861 130.385 168.861 131.45C168.861 131.971 169.06 132.385 169.456 132.691C169.853 132.986 170.408 133.133 171.122 133.133ZM186.64 121.386V134H185.484V132.232C185.121 132.833 184.64 133.292 184.039 133.609C183.45 133.926 182.781 134.085 182.033 134.085C181.194 134.085 180.435 133.892 179.755 133.507C179.075 133.122 178.542 132.583 178.157 131.892C177.772 131.201 177.579 130.413 177.579 129.529C177.579 128.645 177.772 127.857 178.157 127.166C178.542 126.475 179.075 125.942 179.755 125.568C180.435 125.183 181.194 124.99 182.033 124.99C182.758 124.99 183.41 125.143 183.988 125.449C184.577 125.744 185.059 126.18 185.433 126.758V121.386H186.64ZM182.135 133.014C182.758 133.014 183.319 132.872 183.818 132.589C184.328 132.294 184.725 131.881 185.008 131.348C185.303 130.815 185.45 130.209 185.45 129.529C185.45 128.849 185.303 128.243 185.008 127.71C184.725 127.177 184.328 126.769 183.818 126.486C183.319 126.191 182.758 126.044 182.135 126.044C181.5 126.044 180.928 126.191 180.418 126.486C179.919 126.769 179.523 127.177 179.228 127.71C178.945 128.243 178.803 128.849 178.803 129.529C178.803 130.209 178.945 130.815 179.228 131.348C179.523 131.881 179.919 132.294 180.418 132.589C180.928 132.872 181.5 133.014 182.135 133.014ZM191.157 126.809C191.441 126.208 191.86 125.755 192.415 125.449C192.982 125.143 193.679 124.99 194.506 124.99V126.163L194.217 126.146C193.277 126.146 192.54 126.435 192.007 127.013C191.475 127.591 191.208 128.401 191.208 129.444V134H190.001V125.058H191.157V126.809ZM204.395 129.903H196.915C196.983 130.832 197.34 131.586 197.986 132.164C198.632 132.731 199.448 133.014 200.434 133.014C200.989 133.014 201.499 132.918 201.964 132.725C202.428 132.521 202.831 132.226 203.171 131.841L203.851 132.623C203.454 133.099 202.955 133.462 202.355 133.711C201.765 133.96 201.114 134.085 200.4 134.085C199.482 134.085 198.666 133.892 197.952 133.507C197.249 133.11 196.699 132.566 196.303 131.875C195.906 131.184 195.708 130.402 195.708 129.529C195.708 128.656 195.895 127.874 196.269 127.183C196.654 126.492 197.175 125.953 197.833 125.568C198.501 125.183 199.249 124.99 200.077 124.99C200.904 124.99 201.646 125.183 202.304 125.568C202.961 125.953 203.477 126.492 203.851 127.183C204.225 127.863 204.412 128.645 204.412 129.529L204.395 129.903ZM200.077 126.027C199.215 126.027 198.49 126.305 197.901 126.86C197.323 127.404 196.994 128.118 196.915 129.002H203.256C203.176 128.118 202.842 127.404 202.253 126.86C201.675 126.305 200.949 126.027 200.077 126.027ZM209.266 134.085C208.54 134.085 207.843 133.983 207.175 133.779C206.517 133.564 206.002 133.297 205.628 132.98L206.172 132.028C206.546 132.323 207.016 132.566 207.583 132.759C208.149 132.94 208.739 133.031 209.351 133.031C210.167 133.031 210.767 132.906 211.153 132.657C211.549 132.396 211.748 132.034 211.748 131.569C211.748 131.24 211.64 130.985 211.425 130.804C211.209 130.611 210.937 130.47 210.609 130.379C210.28 130.277 209.844 130.181 209.3 130.09C208.574 129.954 207.991 129.818 207.549 129.682C207.107 129.535 206.727 129.291 206.41 128.951C206.104 128.611 205.951 128.141 205.951 127.54C205.951 126.792 206.262 126.18 206.886 125.704C207.509 125.228 208.376 124.99 209.487 124.99C210.065 124.99 210.643 125.069 211.221 125.228C211.799 125.375 212.275 125.574 212.649 125.823L212.122 126.792C211.385 126.282 210.507 126.027 209.487 126.027C208.716 126.027 208.132 126.163 207.736 126.435C207.35 126.707 207.158 127.064 207.158 127.506C207.158 127.846 207.265 128.118 207.481 128.322C207.707 128.526 207.985 128.679 208.314 128.781C208.642 128.872 209.096 128.968 209.674 129.07C210.388 129.206 210.96 129.342 211.391 129.478C211.821 129.614 212.19 129.846 212.496 130.175C212.802 130.504 212.955 130.957 212.955 131.535C212.955 132.317 212.626 132.94 211.969 133.405C211.323 133.858 210.422 134.085 209.266 134.085ZM217.583 134.085C216.858 134.085 216.161 133.983 215.492 133.779C214.835 133.564 214.319 133.297 213.945 132.98L214.489 132.028C214.863 132.323 215.333 132.566 215.9 132.759C216.467 132.94 217.056 133.031 217.668 133.031C218.484 133.031 219.085 132.906 219.47 132.657C219.867 132.396 220.065 132.034 220.065 131.569C220.065 131.24 219.957 130.985 219.742 130.804C219.527 130.611 219.255 130.47 218.926 130.379C218.597 130.277 218.161 130.181 217.617 130.09C216.892 129.954 216.308 129.818 215.866 129.682C215.424 129.535 215.044 129.291 214.727 128.951C214.421 128.611 214.268 128.141 214.268 127.54C214.268 126.792 214.58 126.18 215.203 125.704C215.826 125.228 216.693 124.99 217.804 124.99C218.382 124.99 218.96 125.069 219.538 125.228C220.116 125.375 220.592 125.574 220.966 125.823L220.439 126.792C219.702 126.282 218.824 126.027 217.804 126.027C217.033 126.027 216.45 126.163 216.053 126.435C215.668 126.707 215.475 127.064 215.475 127.506C215.475 127.846 215.583 128.118 215.798 128.322C216.025 128.526 216.302 128.679 216.631 128.781C216.96 128.872 217.413 128.968 217.991 129.07C218.705 129.206 219.277 129.342 219.708 129.478C220.139 129.614 220.507 129.846 220.813 130.175C221.119 130.504 221.272 130.957 221.272 131.535C221.272 132.317 220.943 132.94 220.286 133.405C219.64 133.858 218.739 134.085 217.583 134.085ZM231.289 129.903H223.809C223.877 130.832 224.234 131.586 224.88 132.164C225.526 132.731 226.342 133.014 227.328 133.014C227.884 133.014 228.394 132.918 228.858 132.725C229.323 132.521 229.725 132.226 230.065 131.841L230.745 132.623C230.349 133.099 229.85 133.462 229.249 133.711C228.66 133.96 228.008 134.085 227.294 134.085C226.376 134.085 225.56 133.892 224.846 133.507C224.144 133.11 223.594 132.566 223.197 131.875C222.801 131.184 222.602 130.402 222.602 129.529C222.602 128.656 222.789 127.874 223.163 127.183C223.549 126.492 224.07 125.953 224.727 125.568C225.396 125.183 226.144 124.99 226.971 124.99C227.799 124.99 228.541 125.183 229.198 125.568C229.856 125.953 230.371 126.492 230.745 127.183C231.119 127.863 231.306 128.645 231.306 129.529L231.289 129.903ZM226.971 126.027C226.11 126.027 225.385 126.305 224.795 126.86C224.217 127.404 223.889 128.118 223.809 129.002H230.15C230.071 128.118 229.737 127.404 229.147 126.86C228.569 126.305 227.844 126.027 226.971 126.027ZM236.16 134.085C235.435 134.085 234.738 133.983 234.069 133.779C233.412 133.564 232.896 133.297 232.522 132.98L233.066 132.028C233.44 132.323 233.91 132.566 234.477 132.759C235.044 132.94 235.633 133.031 236.245 133.031C237.061 133.031 237.662 132.906 238.047 132.657C238.444 132.396 238.642 132.034 238.642 131.569C238.642 131.24 238.534 130.985 238.319 130.804C238.104 130.611 237.832 130.47 237.503 130.379C237.174 130.277 236.738 130.181 236.194 130.09C235.469 129.954 234.885 129.818 234.443 129.682C234.001 129.535 233.621 129.291 233.304 128.951C232.998 128.611 232.845 128.141 232.845 127.54C232.845 126.792 233.157 126.18 233.78 125.704C234.403 125.228 235.27 124.99 236.381 124.99C236.959 124.99 237.537 125.069 238.115 125.228C238.693 125.375 239.169 125.574 239.543 125.823L239.016 126.792C238.279 126.282 237.401 126.027 236.381 126.027C235.61 126.027 235.027 126.163 234.63 126.435C234.245 126.707 234.052 127.064 234.052 127.506C234.052 127.846 234.16 128.118 234.375 128.322C234.602 128.526 234.879 128.679 235.208 128.781C235.537 128.872 235.99 128.968 236.568 129.07C237.282 129.206 237.854 129.342 238.285 129.478C238.716 129.614 239.084 129.846 239.39 130.175C239.696 130.504 239.849 130.957 239.849 131.535C239.849 132.317 239.52 132.94 238.863 133.405C238.217 133.858 237.316 134.085 236.16 134.085ZM248.842 130.43C248.842 129.965 248.915 129.557 249.063 129.206C249.221 128.855 249.414 128.554 249.641 128.305C249.867 128.056 250.162 127.772 250.525 127.455C251.012 127.024 251.369 126.65 251.596 126.333C251.834 126.004 251.953 125.608 251.953 125.143C251.953 124.52 251.709 124.021 251.222 123.647C250.734 123.262 250.066 123.069 249.216 123.069C247.81 123.069 246.728 123.528 245.969 124.446L245.068 123.766C246.031 122.587 247.442 121.998 249.301 121.998C250.491 121.998 251.437 122.264 252.14 122.797C252.854 123.33 253.211 124.049 253.211 124.956C253.211 125.421 253.131 125.834 252.973 126.197C252.825 126.548 252.638 126.849 252.412 127.098C252.196 127.347 251.907 127.636 251.545 127.965C251.057 128.407 250.695 128.804 250.457 129.155C250.219 129.495 250.1 129.92 250.1 130.43H248.842ZM249.471 134.085C249.221 134.085 249.012 134 248.842 133.83C248.672 133.649 248.587 133.439 248.587 133.201C248.587 132.952 248.672 132.748 248.842 132.589C249.012 132.419 249.221 132.334 249.471 132.334C249.731 132.334 249.947 132.419 250.117 132.589C250.287 132.748 250.372 132.952 250.372 133.201C250.372 133.439 250.281 133.649 250.1 133.83C249.93 134 249.72 134.085 249.471 134.085Z" fill="white"/>
</svg>
