<svg width="323" height="230" viewBox="0 0 323 230" fill="none" xmlns="http://www.w3.org/2000/svg">
<path d="M251.229 186.667H104.464L50.9216 228.598C45.9816 232.644 39.2888 227.311 40.8823 220.506L48.5313 186.851H28.7715C13.9516 186.851 2.15942 173.058 2.15942 155.771V31.0805C2.15942 13.9771 14.1109 0 28.7715 0H251.388C266.208 0 278 13.7931 278 31.0805V155.771C278 172.874 265.889 186.667 251.229 186.667Z" fill="#F1B705"/>
<path d="M251.229 0H191.63C187.806 86.9887 125.658 155.954 49.6466 155.954C32.9145 155.954 16.8199 152.644 2 146.575V155.771C2 172.874 13.9515 186.851 28.612 186.851H48.2125L40.5635 220.506C38.9699 227.311 45.5035 232.644 50.6028 228.598L104.145 186.667H250.91C265.73 186.667 277.522 172.874 277.522 155.587V30.8966C278 13.7931 265.889 0 251.229 0Z" fill="#EEAD07"/>
<path d="M2 31.0161V155.984C2 173.148 15.9058 187 32.9858 187H247.014C264.094 187 278 173.148 278 155.984V31.0161C278 13.8519 264.094 0 247.014 0H32.9858C15.9058 0.150564 2 14.0024 2 31.0161Z" fill="#F1B705"/>
<path d="M0 31.2208V157.627C0 174.989 14.0066 189 31.2103 189H158.183H178.786C188.859 189 191.377 189 204.471 189H223.801H246.79C263.993 189 278 174.989 278 157.627V148.185C260.644 154.429 241.918 157.779 222.278 157.779C193.504 157.779 166.404 150.469 142.806 137.524C141.436 136.762 140.218 136.153 139 135.392C91.8039 107.978 59.2234 57.8727 56.483 0H31.2103C14.0066 0 0 14.0113 0 31.2208Z" fill="#EEAD07"/>
<path d="M56.435 70.863C57.217 71.033 57.8177 71.373 58.237 71.883C58.6677 72.3817 58.883 73.0277 58.883 73.821C58.883 74.841 58.5033 75.6287 57.744 76.184C56.996 76.728 55.8853 77 54.412 77H48.938V65.1H54.072C55.398 65.1 56.4237 65.3663 57.149 65.899C57.8857 66.4317 58.254 67.1853 58.254 68.16C58.254 68.8173 58.0897 69.3783 57.761 69.843C57.4437 70.2963 57.0017 70.6363 56.435 70.863ZM50.196 66.137V70.455H53.987C54.9503 70.455 55.6927 70.2737 56.214 69.911C56.7353 69.537 56.996 68.9987 56.996 68.296C56.996 67.5933 56.7353 67.0607 56.214 66.698C55.6927 66.324 54.9503 66.137 53.987 66.137H50.196ZM54.395 75.963C55.4603 75.963 56.265 75.7817 56.809 75.419C57.353 75.0563 57.625 74.4897 57.625 73.719C57.625 72.2343 56.5483 71.492 54.395 71.492H50.196V75.963H54.395ZM65.1544 77.085C64.2931 77.085 63.5167 76.8923 62.8254 76.507C62.1341 76.1103 61.5901 75.5663 61.1934 74.875C60.7967 74.1837 60.5984 73.4017 60.5984 72.529C60.5984 71.6563 60.7967 70.8743 61.1934 70.183C61.5901 69.4917 62.1341 68.9533 62.8254 68.568C63.5167 68.1827 64.2931 67.99 65.1544 67.99C66.0157 67.99 66.7921 68.1827 67.4834 68.568C68.1747 68.9533 68.7131 69.4917 69.0984 70.183C69.4951 70.8743 69.6934 71.6563 69.6934 72.529C69.6934 73.4017 69.4951 74.1837 69.0984 74.875C68.7131 75.5663 68.1747 76.1103 67.4834 76.507C66.7921 76.8923 66.0157 77.085 65.1544 77.085ZM65.1544 76.014C65.7891 76.014 66.3557 75.8723 66.8544 75.589C67.3644 75.2943 67.7611 74.8807 68.0444 74.348C68.3277 73.8153 68.4694 73.209 68.4694 72.529C68.4694 71.849 68.3277 71.2427 68.0444 70.71C67.7611 70.1773 67.3644 69.7693 66.8544 69.486C66.3557 69.1913 65.7891 69.044 65.1544 69.044C64.5197 69.044 63.9474 69.1913 63.4374 69.486C62.9387 69.7693 62.5421 70.1773 62.2474 70.71C61.9641 71.2427 61.8224 71.849 61.8224 72.529C61.8224 73.209 61.9641 73.8153 62.2474 74.348C62.5421 74.8807 62.9387 75.2943 63.4374 75.589C63.9474 75.8723 64.5197 76.014 65.1544 76.014ZM76.7136 67.99C77.8356 67.99 78.7253 68.3187 79.3826 68.976C80.0513 69.622 80.3856 70.5683 80.3856 71.815V77H79.1786V71.934C79.1786 71.0047 78.9463 70.2963 78.4816 69.809C78.0169 69.3217 77.3539 69.078 76.4926 69.078C75.5293 69.078 74.7643 69.367 74.1976 69.945C73.6423 70.5117 73.3646 71.2993 73.3646 72.308V77H72.1576V68.058H73.3136V69.707C73.6423 69.163 74.0956 68.7437 74.6736 68.449C75.2629 68.143 75.9429 67.99 76.7136 67.99ZM82.3365 80.383C81.9625 80.383 81.6112 80.332 81.2825 80.23C80.9425 80.1393 80.6648 79.9977 80.4495 79.805L80.8745 78.887C81.2258 79.193 81.6905 79.346 82.2685 79.346C82.7445 79.346 83.1072 79.2043 83.3565 78.921C83.6172 78.6377 83.7475 78.2183 83.7475 77.663V68.058H84.9545V77.663C84.9545 78.5017 84.7278 79.1647 84.2745 79.652C83.8212 80.1393 83.1752 80.383 82.3365 80.383ZM84.3595 66.086C84.1102 66.086 83.9005 66.001 83.7305 65.831C83.5605 65.661 83.4755 65.457 83.4755 65.219C83.4755 64.9923 83.5605 64.794 83.7305 64.624C83.9005 64.454 84.1102 64.369 84.3595 64.369C84.6088 64.369 84.8185 64.454 84.9885 64.624C85.1585 64.7827 85.2435 64.9753 85.2435 65.202C85.2435 65.4513 85.1585 65.661 84.9885 65.831C84.8185 66.001 84.6088 66.086 84.3595 66.086ZM91.9825 77.085C91.1212 77.085 90.3449 76.8923 89.6535 76.507C88.9622 76.1103 88.4182 75.5663 88.0215 74.875C87.6249 74.1837 87.4265 73.4017 87.4265 72.529C87.4265 71.6563 87.6249 70.8743 88.0215 70.183C88.4182 69.4917 88.9622 68.9533 89.6535 68.568C90.3449 68.1827 91.1212 67.99 91.9825 67.99C92.8439 67.99 93.6202 68.1827 94.3115 68.568C95.0029 68.9533 95.5412 69.4917 95.9265 70.183C96.3232 70.8743 96.5215 71.6563 96.5215 72.529C96.5215 73.4017 96.3232 74.1837 95.9265 74.875C95.5412 75.5663 95.0029 76.1103 94.3115 76.507C93.6202 76.8923 92.8439 77.085 91.9825 77.085ZM91.9825 76.014C92.6172 76.014 93.1839 75.8723 93.6825 75.589C94.1925 75.2943 94.5892 74.8807 94.8725 74.348C95.1559 73.8153 95.2975 73.209 95.2975 72.529C95.2975 71.849 95.1559 71.2427 94.8725 70.71C94.5892 70.1773 94.1925 69.7693 93.6825 69.486C93.1839 69.1913 92.6172 69.044 91.9825 69.044C91.3479 69.044 90.7755 69.1913 90.2655 69.486C89.7669 69.7693 89.3702 70.1773 89.0755 70.71C88.7922 71.2427 88.6505 71.849 88.6505 72.529C88.6505 73.209 88.7922 73.8153 89.0755 74.348C89.3702 74.8807 89.7669 75.2943 90.2655 75.589C90.7755 75.8723 91.3479 76.014 91.9825 76.014ZM107.044 68.058V77H105.888V75.368C105.57 75.912 105.134 76.337 104.579 76.643C104.023 76.9377 103.389 77.085 102.675 77.085C101.507 77.085 100.584 76.762 99.9037 76.116C99.2351 75.4587 98.9007 74.501 98.9007 73.243V68.058H100.108V73.124C100.108 74.0647 100.34 74.7787 100.805 75.266C101.269 75.7533 101.932 75.997 102.794 75.997C103.734 75.997 104.477 75.7137 105.021 75.147C105.565 74.569 105.837 73.77 105.837 72.75V68.058H107.044ZM111.58 69.809C111.864 69.2083 112.283 68.755 112.838 68.449C113.405 68.143 114.102 67.99 114.929 67.99V69.163L114.64 69.146C113.7 69.146 112.963 69.435 112.43 70.013C111.898 70.591 111.631 71.4013 111.631 72.444V77H110.424V68.058H111.58V69.809ZM129.211 68.058L125.233 77H123.992L120.031 68.058H121.289L124.638 75.674L128.021 68.058H129.211ZM134.317 77.085C133.455 77.085 132.679 76.8923 131.988 76.507C131.296 76.1103 130.752 75.5663 130.356 74.875C129.959 74.1837 129.761 73.4017 129.761 72.529C129.761 71.6563 129.959 70.8743 130.356 70.183C130.752 69.4917 131.296 68.9533 131.988 68.568C132.679 68.1827 133.455 67.99 134.317 67.99C135.178 67.99 135.954 68.1827 136.646 68.568C137.337 68.9533 137.875 69.4917 138.261 70.183C138.657 70.8743 138.856 71.6563 138.856 72.529C138.856 73.4017 138.657 74.1837 138.261 74.875C137.875 75.5663 137.337 76.1103 136.646 76.507C135.954 76.8923 135.178 77.085 134.317 77.085ZM134.317 76.014C134.951 76.014 135.518 75.8723 136.017 75.589C136.527 75.2943 136.923 74.8807 137.207 74.348C137.49 73.8153 137.632 73.209 137.632 72.529C137.632 71.849 137.49 71.2427 137.207 70.71C136.923 70.1773 136.527 69.7693 136.017 69.486C135.518 69.1913 134.951 69.044 134.317 69.044C133.682 69.044 133.11 69.1913 132.6 69.486C132.101 69.7693 131.704 70.1773 131.41 70.71C131.126 71.2427 130.985 71.849 130.985 72.529C130.985 73.209 131.126 73.8153 131.41 74.348C131.704 74.8807 132.101 75.2943 132.6 75.589C133.11 75.8723 133.682 76.014 134.317 76.014ZM149.378 68.058V77H148.222V75.368C147.904 75.912 147.468 76.337 146.913 76.643C146.357 76.9377 145.723 77.085 145.009 77.085C143.841 77.085 142.918 76.762 142.238 76.116C141.569 75.4587 141.235 74.501 141.235 73.243V68.058H142.442V73.124C142.442 74.0647 142.674 74.7787 143.139 75.266C143.603 75.7533 144.266 75.997 145.128 75.997C146.068 75.997 146.811 75.7137 147.355 75.147C147.899 74.569 148.171 73.77 148.171 72.75V68.058H149.378ZM155.155 77.085C154.43 77.085 153.733 76.983 153.064 76.779C152.407 76.5637 151.891 76.2973 151.517 75.98L152.061 75.028C152.435 75.3227 152.906 75.5663 153.472 75.759C154.039 75.9403 154.628 76.031 155.24 76.031C156.056 76.031 156.657 75.9063 157.042 75.657C157.439 75.3963 157.637 75.0337 157.637 74.569C157.637 74.2403 157.53 73.9853 157.314 73.804C157.099 73.6113 156.827 73.4697 156.498 73.379C156.17 73.277 155.733 73.1807 155.189 73.09C154.464 72.954 153.88 72.818 153.438 72.682C152.996 72.5347 152.617 72.291 152.299 71.951C151.993 71.611 151.84 71.1407 151.84 70.54C151.84 69.792 152.152 69.18 152.775 68.704C153.399 68.228 154.266 67.99 155.376 67.99C155.954 67.99 156.532 68.0693 157.11 68.228C157.688 68.3753 158.164 68.5737 158.538 68.823L158.011 69.792C157.275 69.282 156.396 69.027 155.376 69.027C154.606 69.027 154.022 69.163 153.625 69.435C153.24 69.707 153.047 70.064 153.047 70.506C153.047 70.846 153.155 71.118 153.37 71.322C153.597 71.526 153.875 71.679 154.203 71.781C154.532 71.8717 154.985 71.968 155.563 72.07C156.277 72.206 156.85 72.342 157.28 72.478C157.711 72.614 158.079 72.8463 158.385 73.175C158.691 73.5037 158.844 73.957 158.844 74.535C158.844 75.317 158.516 75.9403 157.858 76.405C157.212 76.8583 156.311 77.085 155.155 77.085ZM168.653 67.99C169.82 67.99 170.715 68.2847 171.339 68.874C171.962 69.452 172.274 70.3133 172.274 71.458V77H171.118V75.606C170.846 76.0707 170.443 76.4333 169.911 76.694C169.389 76.9547 168.766 77.085 168.041 77.085C167.043 77.085 166.25 76.847 165.661 76.371C165.071 75.895 164.777 75.266 164.777 74.484C164.777 73.7247 165.049 73.1127 165.593 72.648C166.148 72.1833 167.026 71.951 168.228 71.951H171.067V71.407C171.067 70.6363 170.851 70.0527 170.421 69.656C169.99 69.248 169.361 69.044 168.534 69.044C167.967 69.044 167.423 69.1403 166.902 69.333C166.38 69.5143 165.933 69.7693 165.559 70.098L165.015 69.197C165.468 68.8117 166.012 68.517 166.647 68.313C167.281 68.0977 167.95 67.99 168.653 67.99ZM168.228 76.133C168.908 76.133 169.491 75.98 169.979 75.674C170.466 75.3567 170.829 74.9033 171.067 74.314V72.852H168.262C166.732 72.852 165.967 73.3847 165.967 74.45C165.967 74.9713 166.165 75.385 166.562 75.691C166.958 75.9857 167.514 76.133 168.228 76.133ZM182.9 68.058L178.922 77H177.681L173.72 68.058H174.978L178.327 75.674L181.71 68.058H182.9ZM192.137 72.903H184.657C184.725 73.8323 185.082 74.586 185.728 75.164C186.374 75.7307 187.19 76.014 188.176 76.014C188.731 76.014 189.241 75.9177 189.706 75.725C190.171 75.521 190.573 75.2263 190.913 74.841L191.593 75.623C191.196 76.099 190.698 76.4617 190.097 76.711C189.508 76.9603 188.856 77.085 188.142 77.085C187.224 77.085 186.408 76.8923 185.694 76.507C184.991 76.1103 184.442 75.5663 184.045 74.875C183.648 74.1837 183.45 73.4017 183.45 72.529C183.45 71.6563 183.637 70.8743 184.011 70.183C184.396 69.4917 184.918 68.9533 185.575 68.568C186.244 68.1827 186.992 67.99 187.819 67.99C188.646 67.99 189.389 68.1827 190.046 68.568C190.703 68.9533 191.219 69.4917 191.593 70.183C191.967 70.863 192.154 71.645 192.154 72.529L192.137 72.903ZM187.819 69.027C186.958 69.027 186.232 69.3047 185.643 69.86C185.065 70.404 184.736 71.118 184.657 72.002H190.998C190.919 71.118 190.584 70.404 189.995 69.86C189.417 69.3047 188.692 69.027 187.819 69.027ZM200.835 75.997V77H193.559V76.201L199.186 69.078H193.661V68.058H200.733V68.857L195.106 75.997H200.835ZM207.66 64.386H208.867V77H207.66V64.386ZM212.361 64.301C212.622 64.301 212.837 64.3917 213.007 64.573C213.177 64.743 213.262 64.9583 213.262 65.219C213.262 65.355 213.239 65.5023 213.194 65.661C213.16 65.8083 213.109 65.984 213.041 66.188L212.31 68.534H211.494L212.089 66.086C211.896 66.0293 211.743 65.9273 211.63 65.78C211.517 65.6213 211.46 65.4343 211.46 65.219C211.46 64.947 211.545 64.726 211.715 64.556C211.885 64.386 212.1 64.301 212.361 64.301ZM218.79 67.99C219.957 67.99 220.852 68.2847 221.476 68.874C222.099 69.452 222.411 70.3133 222.411 71.458V77H221.255V75.606C220.983 76.0707 220.58 76.4333 220.048 76.694C219.526 76.9547 218.903 77.085 218.178 77.085C217.18 77.085 216.387 76.847 215.798 76.371C215.208 75.895 214.914 75.266 214.914 74.484C214.914 73.7247 215.186 73.1127 215.73 72.648C216.285 72.1833 217.163 71.951 218.365 71.951H221.204V71.407C221.204 70.6363 220.988 70.0527 220.558 69.656C220.127 69.248 219.498 69.044 218.671 69.044C218.104 69.044 217.56 69.1403 217.039 69.333C216.517 69.5143 216.07 69.7693 215.696 70.098L215.152 69.197C215.605 68.8117 216.149 68.517 216.784 68.313C217.418 68.0977 218.087 67.99 218.79 67.99ZM218.365 76.133C219.045 76.133 219.628 75.98 220.116 75.674C220.603 75.3567 220.966 74.9033 221.204 74.314V72.852H218.399C216.869 72.852 216.104 73.3847 216.104 74.45C216.104 74.9713 216.302 75.385 216.699 75.691C217.095 75.9857 217.651 76.133 218.365 76.133ZM225.689 68.058H226.896V77H225.689V68.058ZM226.301 66.103C226.052 66.103 225.842 66.018 225.672 65.848C225.502 65.678 225.417 65.474 225.417 65.236C225.417 65.0093 225.502 64.811 225.672 64.641C225.842 64.471 226.052 64.386 226.301 64.386C226.55 64.386 226.76 64.471 226.93 64.641C227.1 64.7997 227.185 64.9923 227.185 65.219C227.185 65.4683 227.1 65.678 226.93 65.848C226.76 66.018 226.55 66.103 226.301 66.103ZM231.41 69.809C231.694 69.2083 232.113 68.755 232.668 68.449C233.235 68.143 233.932 67.99 234.759 67.99V69.163L234.47 69.146C233.53 69.146 232.793 69.435 232.26 70.013C231.728 70.591 231.461 71.4013 231.461 72.444V77H230.254V68.058H231.41V69.809ZM56.741 89.058V98H55.585V96.368C55.2677 96.912 54.8313 97.337 54.276 97.643C53.7207 97.9377 53.086 98.085 52.372 98.085C51.2047 98.085 50.281 97.762 49.601 97.116C48.9323 96.4587 48.598 95.501 48.598 94.243V89.058H49.805V94.124C49.805 95.0647 50.0373 95.7787 50.502 96.266C50.9667 96.7533 51.6297 96.997 52.491 96.997C53.4317 96.997 54.174 96.7137 54.718 96.147C55.262 95.569 55.534 94.77 55.534 93.75V89.058H56.741ZM64.6775 88.99C65.7995 88.99 66.6891 89.3187 67.3465 89.976C68.0151 90.622 68.3495 91.5683 68.3495 92.815V98H67.1425V92.934C67.1425 92.0047 66.9101 91.2963 66.4455 90.809C65.9808 90.3217 65.3178 90.078 64.4565 90.078C63.4931 90.078 62.7281 90.367 62.1615 90.945C61.6061 91.5117 61.3285 92.2993 61.3285 93.308V98H60.1215V89.058H61.2775V90.707C61.6061 90.163 62.0595 89.7437 62.6375 89.449C63.2268 89.143 63.9068 88.99 64.6775 88.99ZM80.6826 88.99C81.5212 88.99 82.2806 89.1827 82.9606 89.568C83.6406 89.942 84.1732 90.4747 84.5586 91.166C84.9439 91.8573 85.1366 92.645 85.1366 93.529C85.1366 94.4243 84.9439 95.2177 84.5586 95.909C84.1732 96.6003 83.6406 97.1387 82.9606 97.524C82.2919 97.898 81.5326 98.085 80.6826 98.085C79.9572 98.085 79.2999 97.9377 78.7106 97.643C78.1326 97.337 77.6566 96.895 77.2826 96.317V101.298H76.0756V89.058H77.2316V90.826C77.5942 90.2367 78.0702 89.7833 78.6596 89.466C79.2602 89.1487 79.9346 88.99 80.6826 88.99ZM80.5976 97.014C81.2209 97.014 81.7876 96.8723 82.2976 96.589C82.8076 96.2943 83.2042 95.8807 83.4876 95.348C83.7822 94.8153 83.9296 94.209 83.9296 93.529C83.9296 92.849 83.7822 92.2483 83.4876 91.727C83.2042 91.1943 82.8076 90.7807 82.2976 90.486C81.7876 90.1913 81.2209 90.044 80.5976 90.044C79.9629 90.044 79.3906 90.1913 78.8806 90.486C78.3819 90.7807 77.9852 91.1943 77.6906 91.727C77.4072 92.2483 77.2656 92.849 77.2656 93.529C77.2656 94.209 77.4072 94.8153 77.6906 95.348C77.9852 95.8807 78.3819 96.2943 78.8806 96.589C79.3906 96.8723 79.9629 97.014 80.5976 97.014ZM95.3831 93.903H87.9031C87.9711 94.8323 88.3281 95.586 88.9741 96.164C89.6201 96.7307 90.4361 97.014 91.4221 97.014C91.9774 97.014 92.4874 96.9177 92.9521 96.725C93.4167 96.521 93.8191 96.2263 94.1591 95.841L94.8391 96.623C94.4424 97.099 93.9437 97.4617 93.3431 97.711C92.7537 97.9603 92.1021 98.085 91.3881 98.085C90.4701 98.085 89.6541 97.8923 88.9401 97.507C88.2374 97.1103 87.6877 96.5663 87.2911 95.875C86.8944 95.1837 86.6961 94.4017 86.6961 93.529C86.6961 92.6563 86.8831 91.8743 87.2571 91.183C87.6424 90.4917 88.1637 89.9533 88.8211 89.568C89.4897 89.1827 90.2377 88.99 91.0651 88.99C91.8924 88.99 92.6347 89.1827 93.2921 89.568C93.9494 89.9533 94.4651 90.4917 94.8391 91.183C95.2131 91.863 95.4001 92.645 95.4001 93.529L95.3831 93.903ZM91.0651 90.027C90.2037 90.027 89.4784 90.3047 88.8891 90.86C88.3111 91.404 87.9824 92.118 87.9031 93.002H94.2441C94.1647 92.118 93.8304 91.404 93.2411 90.86C92.6631 90.3047 91.9377 90.027 91.0651 90.027ZM105.915 89.058V98H104.759V96.368C104.441 96.912 104.005 97.337 103.45 97.643C102.894 97.9377 102.26 98.085 101.546 98.085C100.378 98.085 99.4548 97.762 98.7748 97.116C98.1062 96.4587 97.7718 95.501 97.7718 94.243V89.058H98.9788V94.124C98.9788 95.0647 99.2112 95.7787 99.6758 96.266C100.14 96.7533 100.803 96.997 101.665 96.997C102.605 96.997 103.348 96.7137 103.892 96.147C104.436 95.569 104.708 94.77 104.708 93.75V89.058H105.915ZM118.352 88.99C119.19 88.99 119.95 89.1827 120.63 89.568C121.31 89.942 121.842 90.4747 122.228 91.166C122.613 91.8573 122.806 92.645 122.806 93.529C122.806 94.4243 122.613 95.2177 122.228 95.909C121.842 96.6003 121.31 97.1387 120.63 97.524C119.961 97.898 119.202 98.085 118.352 98.085C117.626 98.085 116.969 97.9377 116.38 97.643C115.802 97.337 115.326 96.895 114.952 96.317V101.298H113.745V89.058H114.901V90.826C115.263 90.2367 115.739 89.7833 116.329 89.466C116.929 89.1487 117.604 88.99 118.352 88.99ZM118.267 97.014C118.89 97.014 119.457 96.8723 119.967 96.589C120.477 96.2943 120.873 95.8807 121.157 95.348C121.451 94.8153 121.599 94.209 121.599 93.529C121.599 92.849 121.451 92.2483 121.157 91.727C120.873 91.1943 120.477 90.7807 119.967 90.486C119.457 90.1913 118.89 90.044 118.267 90.044C117.632 90.044 117.06 90.1913 116.55 90.486C116.051 90.7807 115.654 91.1943 115.36 91.727C115.076 92.2483 114.935 92.849 114.935 93.529C114.935 94.209 115.076 94.8153 115.36 95.348C115.654 95.8807 116.051 96.2943 116.55 96.589C117.06 96.8723 117.632 97.014 118.267 97.014ZM133.052 93.903H125.572C125.64 94.8323 125.997 95.586 126.643 96.164C127.289 96.7307 128.105 97.014 129.091 97.014C129.646 97.014 130.156 96.9177 130.621 96.725C131.086 96.521 131.488 96.2263 131.828 95.841L132.508 96.623C132.111 97.099 131.613 97.4617 131.012 97.711C130.423 97.9603 129.771 98.085 129.057 98.085C128.139 98.085 127.323 97.8923 126.609 97.507C125.906 97.1103 125.357 96.5663 124.96 95.875C124.563 95.1837 124.365 94.4017 124.365 93.529C124.365 92.6563 124.552 91.8743 124.926 91.183C125.311 90.4917 125.833 89.9533 126.49 89.568C127.159 89.1827 127.907 88.99 128.734 88.99C129.561 88.99 130.304 89.1827 130.961 89.568C131.618 89.9533 132.134 90.4917 132.508 91.183C132.882 91.863 133.069 92.645 133.069 93.529L133.052 93.903ZM128.734 90.027C127.873 90.027 127.147 90.3047 126.558 90.86C125.98 91.404 125.651 92.118 125.572 93.002H131.913C131.834 92.118 131.499 91.404 130.91 90.86C130.332 90.3047 129.607 90.027 128.734 90.027ZM136.682 90.809C136.965 90.2083 137.384 89.755 137.94 89.449C138.506 89.143 139.203 88.99 140.031 88.99V90.163L139.742 90.146C138.801 90.146 138.064 90.435 137.532 91.013C136.999 91.591 136.733 92.4013 136.733 93.444V98H135.526V89.058H136.682V90.809ZM150.293 85.386V98H149.137V96.232C148.775 96.8327 148.293 97.2917 147.692 97.609C147.103 97.9263 146.434 98.085 145.686 98.085C144.848 98.085 144.088 97.8923 143.408 97.507C142.728 97.1217 142.196 96.5833 141.81 95.892C141.425 95.2007 141.232 94.413 141.232 93.529C141.232 92.645 141.425 91.8573 141.81 91.166C142.196 90.4747 142.728 89.942 143.408 89.568C144.088 89.1827 144.848 88.99 145.686 88.99C146.412 88.99 147.063 89.143 147.641 89.449C148.231 89.7437 148.712 90.18 149.086 90.758V85.386H150.293ZM145.788 97.014C146.412 97.014 146.973 96.8723 147.471 96.589C147.981 96.2943 148.378 95.8807 148.661 95.348C148.956 94.8153 149.103 94.209 149.103 93.529C149.103 92.849 148.956 92.2427 148.661 91.71C148.378 91.1773 147.981 90.7693 147.471 90.486C146.973 90.1913 146.412 90.044 145.788 90.044C145.154 90.044 144.581 90.1913 144.071 90.486C143.573 90.7693 143.176 91.1773 142.881 91.71C142.598 92.2427 142.456 92.849 142.456 93.529C142.456 94.209 142.598 94.8153 142.881 95.348C143.176 95.8807 143.573 96.2943 144.071 96.589C144.581 96.8723 145.154 97.014 145.788 97.014ZM161.713 89.058V98H160.557V96.368C160.239 96.912 159.803 97.337 159.248 97.643C158.692 97.9377 158.058 98.085 157.344 98.085C156.176 98.085 155.253 97.762 154.573 97.116C153.904 96.4587 153.57 95.501 153.57 94.243V89.058H154.777V94.124C154.777 95.0647 155.009 95.7787 155.474 96.266C155.938 96.7533 156.601 96.997 157.463 96.997C158.403 96.997 159.146 96.7137 159.69 96.147C160.234 95.569 160.506 94.77 160.506 93.75V89.058H161.713ZM165.212 98.085C164.963 98.085 164.747 97.9943 164.566 97.813C164.396 97.6317 164.311 97.4107 164.311 97.15C164.311 96.8893 164.396 96.674 164.566 96.504C164.747 96.3227 164.963 96.232 165.212 96.232C165.461 96.232 165.677 96.3227 165.858 96.504C166.039 96.674 166.13 96.8893 166.13 97.15C166.13 97.4107 166.039 97.6317 165.858 97.813C165.677 97.9943 165.461 98.085 165.212 98.085ZM174.675 98.102C173.995 98.102 173.366 97.9547 172.788 97.66C172.21 97.3653 171.74 96.946 171.377 96.402L172.125 95.552C172.782 96.5267 173.638 97.014 174.692 97.014C176.165 97.014 176.902 96.1413 176.902 94.396V87.188H172.55V86.1H178.143V94.345C178.143 95.5917 177.848 96.5323 177.259 97.167C176.681 97.7903 175.82 98.102 174.675 98.102ZM189.448 93.903H181.968C182.036 94.8323 182.393 95.586 183.039 96.164C183.685 96.7307 184.501 97.014 185.487 97.014C186.042 97.014 186.552 96.9177 187.017 96.725C187.481 96.521 187.884 96.2263 188.224 95.841L188.904 96.623C188.507 97.099 188.008 97.4617 187.408 97.711C186.818 97.9603 186.167 98.085 185.453 98.085C184.535 98.085 183.719 97.8923 183.005 97.507C182.302 97.1103 181.752 96.5663 181.356 95.875C180.959 95.1837 180.761 94.4017 180.761 93.529C180.761 92.6563 180.948 91.8743 181.322 91.183C181.707 90.4917 182.228 89.9533 182.886 89.568C183.554 89.1827 184.302 88.99 185.13 88.99C185.957 88.99 186.699 89.1827 187.357 89.568C188.014 89.9533 188.53 90.4917 188.904 91.183C189.278 91.863 189.465 92.645 189.465 93.529L189.448 93.903ZM185.13 90.027C184.268 90.027 183.543 90.3047 182.954 90.86C182.376 91.404 182.047 92.118 181.968 93.002H188.309C188.229 92.118 187.895 91.404 187.306 90.86C186.728 90.3047 186.002 90.027 185.13 90.027ZM200.978 88.99C201.816 88.99 202.576 89.1827 203.256 89.568C203.936 89.942 204.468 90.4747 204.854 91.166C205.239 91.8573 205.432 92.645 205.432 93.529C205.432 94.4243 205.239 95.2177 204.854 95.909C204.468 96.6003 203.936 97.1387 203.256 97.524C202.587 97.898 201.828 98.085 200.978 98.085C200.252 98.085 199.595 97.9377 199.006 97.643C198.428 97.337 197.952 96.895 197.578 96.317V101.298H196.371V89.058H197.527V90.826C197.889 90.2367 198.365 89.7833 198.955 89.466C199.555 89.1487 200.23 88.99 200.978 88.99ZM200.893 97.014C201.516 97.014 202.083 96.8723 202.593 96.589C203.103 96.2943 203.499 95.8807 203.783 95.348C204.077 94.8153 204.225 94.209 204.225 93.529C204.225 92.849 204.077 92.2483 203.783 91.727C203.499 91.1943 203.103 90.7807 202.593 90.486C202.083 90.1913 201.516 90.044 200.893 90.044C200.258 90.044 199.686 90.1913 199.175 90.486C198.677 90.7807 198.28 91.1943 197.986 91.727C197.702 92.2483 197.561 92.849 197.561 93.529C197.561 94.209 197.702 94.8153 197.986 95.348C198.28 95.8807 198.677 96.2943 199.175 96.589C199.686 96.8723 200.258 97.014 200.893 97.014ZM215.678 93.903H208.198C208.266 94.8323 208.623 95.586 209.269 96.164C209.915 96.7307 210.731 97.014 211.717 97.014C212.272 97.014 212.782 96.9177 213.247 96.725C213.712 96.521 214.114 96.2263 214.454 95.841L215.134 96.623C214.737 97.099 214.239 97.4617 213.638 97.711C213.049 97.9603 212.397 98.085 211.683 98.085C210.765 98.085 209.949 97.8923 209.235 97.507C208.532 97.1103 207.983 96.5663 207.586 95.875C207.189 95.1837 206.991 94.4017 206.991 93.529C206.991 92.6563 207.178 91.8743 207.552 91.183C207.937 90.4917 208.459 89.9533 209.116 89.568C209.785 89.1827 210.533 88.99 211.36 88.99C212.187 88.99 212.93 89.1827 213.587 89.568C214.244 89.9533 214.76 90.4917 215.134 91.183C215.508 91.863 215.695 92.645 215.695 93.529L215.678 93.903ZM211.36 90.027C210.499 90.027 209.773 90.3047 209.184 90.86C208.606 91.404 208.277 92.118 208.198 93.002H214.539C214.46 92.118 214.125 91.404 213.536 90.86C212.958 90.3047 212.233 90.027 211.36 90.027ZM226.21 89.058V98H225.054V96.368C224.736 96.912 224.3 97.337 223.745 97.643C223.189 97.9377 222.555 98.085 221.841 98.085C220.673 98.085 219.75 97.762 219.07 97.116C218.401 96.4587 218.067 95.501 218.067 94.243V89.058H219.274V94.124C219.274 95.0647 219.506 95.7787 219.971 96.266C220.435 96.7533 221.098 96.997 221.96 96.997C222.9 96.997 223.643 96.7137 224.187 96.147C224.731 95.569 225.003 94.77 225.003 93.75V89.058H226.21ZM235.285 98L232.446 94.26L229.59 98H228.23L231.766 93.41L228.4 89.058H229.76L232.446 92.56L235.132 89.058H236.458L233.092 93.41L236.662 98H235.285ZM53.29 109.99C54.1287 109.99 54.888 110.183 55.568 110.568C56.248 110.942 56.7807 111.475 57.166 112.166C57.5513 112.857 57.744 113.645 57.744 114.529C57.744 115.424 57.5513 116.218 57.166 116.909C56.7807 117.6 56.248 118.139 55.568 118.524C54.8993 118.898 54.14 119.085 53.29 119.085C52.5647 119.085 51.9073 118.938 51.318 118.643C50.74 118.337 50.264 117.895 49.89 117.317V122.298H48.683V110.058H49.839V111.826C50.2017 111.237 50.6777 110.783 51.267 110.466C51.8677 110.149 52.542 109.99 53.29 109.99ZM53.205 118.014C53.8283 118.014 54.395 117.872 54.905 117.589C55.415 117.294 55.8117 116.881 56.095 116.348C56.3897 115.815 56.537 115.209 56.537 114.529C56.537 113.849 56.3897 113.248 56.095 112.727C55.8117 112.194 55.415 111.781 54.905 111.486C54.395 111.191 53.8283 111.044 53.205 111.044C52.5703 111.044 51.998 111.191 51.488 111.486C50.9893 111.781 50.5927 112.194 50.298 112.727C50.0147 113.248 49.873 113.849 49.873 114.529C49.873 115.209 50.0147 115.815 50.298 116.348C50.5927 116.881 50.9893 117.294 51.488 117.589C51.998 117.872 52.5703 118.014 53.205 118.014ZM67.9905 114.903H60.5105C60.5785 115.832 60.9355 116.586 61.5815 117.164C62.2275 117.731 63.0435 118.014 64.0295 118.014C64.5848 118.014 65.0948 117.918 65.5595 117.725C66.0242 117.521 66.4265 117.226 66.7665 116.841L67.4465 117.623C67.0498 118.099 66.5512 118.462 65.9505 118.711C65.3612 118.96 64.7095 119.085 63.9955 119.085C63.0775 119.085 62.2615 118.892 61.5475 118.507C60.8448 118.11 60.2952 117.566 59.8985 116.875C59.5018 116.184 59.3035 115.402 59.3035 114.529C59.3035 113.656 59.4905 112.874 59.8645 112.183C60.2498 111.492 60.7712 110.953 61.4285 110.568C62.0972 110.183 62.8452 109.99 63.6725 109.99C64.4998 109.99 65.2422 110.183 65.8995 110.568C66.5568 110.953 67.0725 111.492 67.4465 112.183C67.8205 112.863 68.0075 113.645 68.0075 114.529L67.9905 114.903ZM63.6725 111.027C62.8112 111.027 62.0858 111.305 61.4965 111.86C60.9185 112.404 60.5898 113.118 60.5105 114.002H66.8515C66.7722 113.118 66.4378 112.404 65.8485 111.86C65.2705 111.305 64.5452 111.027 63.6725 111.027ZM78.5223 110.058V119H77.3662V117.368C77.0489 117.912 76.6126 118.337 76.0573 118.643C75.5019 118.938 74.8673 119.085 74.1533 119.085C72.9859 119.085 72.0623 118.762 71.3823 118.116C70.7136 117.459 70.3793 116.501 70.3793 115.243V110.058H71.5863V115.124C71.5863 116.065 71.8186 116.779 72.2833 117.266C72.7479 117.753 73.4109 117.997 74.2723 117.997C75.2129 117.997 75.9553 117.714 76.4993 117.147C77.0433 116.569 77.3153 115.77 77.3153 114.75V110.058H78.5223ZM86.6117 118.456C86.3851 118.66 86.1017 118.819 85.7617 118.932C85.4331 119.034 85.0874 119.085 84.7247 119.085C83.8861 119.085 83.2401 118.858 82.7867 118.405C82.3334 117.952 82.1067 117.311 82.1067 116.484V111.078H80.5087V110.058H82.1067V108.103H83.3137V110.058H86.0337V111.078H83.3137V116.416C83.3137 116.949 83.4441 117.357 83.7047 117.64C83.9767 117.912 84.3621 118.048 84.8607 118.048C85.1101 118.048 85.3481 118.008 85.5747 117.929C85.8127 117.85 86.0167 117.736 86.1867 117.589L86.6117 118.456ZM101.044 114.903H93.5642C93.6322 115.832 93.9892 116.586 94.6352 117.164C95.2812 117.731 96.0972 118.014 97.0832 118.014C97.6385 118.014 98.1485 117.918 98.6132 117.725C99.0779 117.521 99.4802 117.226 99.8202 116.841L100.5 117.623C100.104 118.099 99.6049 118.462 99.0042 118.711C98.4149 118.96 97.7632 119.085 97.0492 119.085C96.1312 119.085 95.3152 118.892 94.6012 118.507C93.8985 118.11 93.3489 117.566 92.9522 116.875C92.5555 116.184 92.3572 115.402 92.3572 114.529C92.3572 113.656 92.5442 112.874 92.9182 112.183C93.3035 111.492 93.8249 110.953 94.4822 110.568C95.1509 110.183 95.8989 109.99 96.7262 109.99C97.5535 109.99 98.2959 110.183 98.9532 110.568C99.6105 110.953 100.126 111.492 100.5 112.183C100.874 112.863 101.061 113.645 101.061 114.529L101.044 114.903ZM96.7262 111.027C95.8649 111.027 95.1395 111.305 94.5502 111.86C93.9722 112.404 93.6435 113.118 93.5642 114.002H99.9052C99.8259 113.118 99.4915 112.404 98.9022 111.86C98.3242 111.305 97.5989 111.027 96.7262 111.027ZM98.4092 108.664L96.7262 107.253L95.0432 108.664H93.9212L96.1142 106.556H97.3382L99.5312 108.664H98.4092ZM108.227 118.456C108 118.66 107.717 118.819 107.377 118.932C107.048 119.034 106.703 119.085 106.34 119.085C105.501 119.085 104.855 118.858 104.402 118.405C103.949 117.952 103.722 117.311 103.722 116.484V111.078H102.124V110.058H103.722V108.103H104.929V110.058H107.649V111.078H104.929V116.416C104.929 116.949 105.059 117.357 105.32 117.64C105.592 117.912 105.977 118.048 106.476 118.048C106.725 118.048 106.963 118.008 107.19 117.929C107.428 117.85 107.632 117.736 107.802 117.589L108.227 118.456ZM111.58 111.809C111.864 111.208 112.283 110.755 112.838 110.449C113.405 110.143 114.102 109.99 114.929 109.99V111.163L114.64 111.146C113.7 111.146 112.963 111.435 112.43 112.013C111.898 112.591 111.631 113.401 111.631 114.444V119H110.424V110.058H111.58V111.809ZM124.818 114.903H117.338C117.406 115.832 117.763 116.586 118.409 117.164C119.055 117.731 119.871 118.014 120.857 118.014C121.412 118.014 121.922 117.918 122.387 117.725C122.851 117.521 123.254 117.226 123.594 116.841L124.274 117.623C123.877 118.099 123.378 118.462 122.778 118.711C122.188 118.96 121.537 119.085 120.823 119.085C119.905 119.085 119.089 118.892 118.375 118.507C117.672 118.11 117.122 117.566 116.726 116.875C116.329 116.184 116.131 115.402 116.131 114.529C116.131 113.656 116.318 112.874 116.692 112.183C117.077 111.492 117.598 110.953 118.256 110.568C118.924 110.183 119.672 109.99 120.5 109.99C121.327 109.99 122.069 110.183 122.727 110.568C123.384 110.953 123.9 111.492 124.274 112.183C124.648 112.863 124.835 113.645 124.835 114.529L124.818 114.903ZM120.5 111.027C119.638 111.027 118.913 111.305 118.324 111.86C117.746 112.404 117.417 113.118 117.338 114.002H123.679C123.599 113.118 123.265 112.404 122.676 111.86C122.098 111.305 121.372 111.027 120.5 111.027ZM139.255 110.058L135.277 119H134.036L130.075 110.058H131.333L134.682 117.674L138.065 110.058H139.255ZM144.36 119.085C143.499 119.085 142.723 118.892 142.031 118.507C141.34 118.11 140.796 117.566 140.399 116.875C140.003 116.184 139.804 115.402 139.804 114.529C139.804 113.656 140.003 112.874 140.399 112.183C140.796 111.492 141.34 110.953 142.031 110.568C142.723 110.183 143.499 109.99 144.36 109.99C145.222 109.99 145.998 110.183 146.689 110.568C147.381 110.953 147.919 111.492 148.304 112.183C148.701 112.874 148.899 113.656 148.899 114.529C148.899 115.402 148.701 116.184 148.304 116.875C147.919 117.566 147.381 118.11 146.689 118.507C145.998 118.892 145.222 119.085 144.36 119.085ZM144.36 118.014C144.995 118.014 145.562 117.872 146.06 117.589C146.57 117.294 146.967 116.881 147.25 116.348C147.534 115.815 147.675 115.209 147.675 114.529C147.675 113.849 147.534 113.243 147.25 112.71C146.967 112.177 146.57 111.769 146.06 111.486C145.562 111.191 144.995 111.044 144.36 111.044C143.726 111.044 143.153 111.191 142.643 111.486C142.145 111.769 141.748 112.177 141.453 112.71C141.17 113.243 141.028 113.849 141.028 114.529C141.028 115.209 141.17 115.815 141.453 116.348C141.748 116.881 142.145 117.294 142.643 117.589C143.153 117.872 143.726 118.014 144.36 118.014ZM159.422 110.058V119H158.266V117.368C157.948 117.912 157.512 118.337 156.957 118.643C156.401 118.938 155.767 119.085 155.053 119.085C153.885 119.085 152.962 118.762 152.282 118.116C151.613 117.459 151.279 116.501 151.279 115.243V110.058H152.486V115.124C152.486 116.065 152.718 116.779 153.183 117.266C153.647 117.753 154.31 117.997 155.172 117.997C156.112 117.997 156.855 117.714 157.399 117.147C157.943 116.569 158.215 115.77 158.215 114.75V110.058H159.422ZM165.199 119.085C164.474 119.085 163.777 118.983 163.108 118.779C162.451 118.564 161.935 118.297 161.561 117.98L162.105 117.028C162.479 117.323 162.949 117.566 163.516 117.759C164.083 117.94 164.672 118.031 165.284 118.031C166.1 118.031 166.701 117.906 167.086 117.657C167.483 117.396 167.681 117.034 167.681 116.569C167.681 116.24 167.573 115.985 167.358 115.804C167.143 115.611 166.871 115.47 166.542 115.379C166.213 115.277 165.777 115.181 165.233 115.09C164.508 114.954 163.924 114.818 163.482 114.682C163.04 114.535 162.66 114.291 162.343 113.951C162.037 113.611 161.884 113.141 161.884 112.54C161.884 111.792 162.196 111.18 162.819 110.704C163.442 110.228 164.309 109.99 165.42 109.99C165.998 109.99 166.576 110.069 167.154 110.228C167.732 110.375 168.208 110.574 168.582 110.823L168.055 111.792C167.318 111.282 166.44 111.027 165.42 111.027C164.649 111.027 164.066 111.163 163.669 111.435C163.284 111.707 163.091 112.064 163.091 112.506C163.091 112.846 163.199 113.118 163.414 113.322C163.641 113.526 163.918 113.679 164.247 113.781C164.576 113.872 165.029 113.968 165.607 114.07C166.321 114.206 166.893 114.342 167.324 114.478C167.755 114.614 168.123 114.846 168.429 115.175C168.735 115.504 168.888 115.957 168.888 116.535C168.888 117.317 168.559 117.94 167.902 118.405C167.256 118.858 166.355 119.085 165.199 119.085ZM178.697 109.99C179.864 109.99 180.759 110.285 181.383 110.874C182.006 111.452 182.318 112.313 182.318 113.458V119H181.162V117.606C180.89 118.071 180.487 118.433 179.955 118.694C179.433 118.955 178.81 119.085 178.085 119.085C177.087 119.085 176.294 118.847 175.705 118.371C175.115 117.895 174.821 117.266 174.821 116.484C174.821 115.725 175.093 115.113 175.637 114.648C176.192 114.183 177.07 113.951 178.272 113.951H181.111V113.407C181.111 112.636 180.895 112.053 180.465 111.656C180.034 111.248 179.405 111.044 178.578 111.044C178.011 111.044 177.467 111.14 176.946 111.333C176.424 111.514 175.977 111.769 175.603 112.098L175.059 111.197C175.512 110.812 176.056 110.517 176.691 110.313C177.325 110.098 177.994 109.99 178.697 109.99ZM178.272 118.133C178.952 118.133 179.535 117.98 180.023 117.674C180.51 117.357 180.873 116.903 181.111 116.314V114.852H178.306C176.776 114.852 176.011 115.385 176.011 116.45C176.011 116.971 176.209 117.385 176.606 117.691C177.002 117.986 177.558 118.133 178.272 118.133ZM185.596 110.058H186.803V119H185.596V110.058ZM186.208 108.103C185.959 108.103 185.749 108.018 185.579 107.848C185.409 107.678 185.324 107.474 185.324 107.236C185.324 107.009 185.409 106.811 185.579 106.641C185.749 106.471 185.959 106.386 186.208 106.386C186.457 106.386 186.667 106.471 186.837 106.641C187.007 106.8 187.092 106.992 187.092 107.219C187.092 107.468 187.007 107.678 186.837 107.848C186.667 108.018 186.457 108.103 186.208 108.103ZM198.322 106.386V119H197.166V117.232C196.803 117.833 196.321 118.292 195.721 118.609C195.131 118.926 194.463 119.085 193.715 119.085C192.876 119.085 192.117 118.892 191.437 118.507C190.757 118.122 190.224 117.583 189.839 116.892C189.453 116.201 189.261 115.413 189.261 114.529C189.261 113.645 189.453 112.857 189.839 112.166C190.224 111.475 190.757 110.942 191.437 110.568C192.117 110.183 192.876 109.99 193.715 109.99C194.44 109.99 195.092 110.143 195.67 110.449C196.259 110.744 196.741 111.18 197.115 111.758V106.386H198.322ZM193.817 118.014C194.44 118.014 195.001 117.872 195.5 117.589C196.01 117.294 196.406 116.881 196.69 116.348C196.984 115.815 197.132 115.209 197.132 114.529C197.132 113.849 196.984 113.243 196.69 112.71C196.406 112.177 196.01 111.769 195.5 111.486C195.001 111.191 194.44 111.044 193.817 111.044C193.182 111.044 192.61 111.191 192.1 111.486C191.601 111.769 191.204 112.177 190.91 112.71C190.626 113.243 190.485 113.849 190.485 114.529C190.485 115.209 190.626 115.815 190.91 116.348C191.204 116.881 191.601 117.294 192.1 117.589C192.61 117.872 193.182 118.014 193.817 118.014ZM209.469 114.903H201.989C202.057 115.832 202.414 116.586 203.06 117.164C203.706 117.731 204.522 118.014 205.508 118.014C206.063 118.014 206.573 117.918 207.038 117.725C207.503 117.521 207.905 117.226 208.245 116.841L208.925 117.623C208.528 118.099 208.03 118.462 207.429 118.711C206.84 118.96 206.188 119.085 205.474 119.085C204.556 119.085 203.74 118.892 203.026 118.507C202.323 118.11 201.774 117.566 201.377 116.875C200.98 116.184 200.782 115.402 200.782 114.529C200.782 113.656 200.969 112.874 201.343 112.183C201.728 111.492 202.25 110.953 202.907 110.568C203.576 110.183 204.324 109.99 205.151 109.99C205.978 109.99 206.721 110.183 207.378 110.568C208.035 110.953 208.551 111.492 208.925 112.183C209.299 112.863 209.486 113.645 209.486 114.529L209.469 114.903ZM205.151 111.027C204.29 111.027 203.564 111.305 202.975 111.86C202.397 112.404 202.068 113.118 201.989 114.002H208.33C208.251 113.118 207.916 112.404 207.327 111.86C206.749 111.305 206.024 111.027 205.151 111.027ZM213.099 111.809C213.382 111.208 213.801 110.755 214.357 110.449C214.923 110.143 215.62 109.99 216.448 109.99V111.163L216.159 111.146C215.218 111.146 214.481 111.435 213.949 112.013C213.416 112.591 213.15 113.401 213.15 114.444V119H211.943V110.058H213.099V111.809ZM225.527 115.43C225.527 114.965 225.601 114.557 225.748 114.206C225.907 113.855 226.1 113.554 226.326 113.305C226.553 113.056 226.848 112.772 227.21 112.455C227.698 112.024 228.055 111.65 228.281 111.333C228.519 111.004 228.638 110.608 228.638 110.143C228.638 109.52 228.395 109.021 227.907 108.647C227.42 108.262 226.751 108.069 225.901 108.069C224.496 108.069 223.414 108.528 222.654 109.446L221.753 108.766C222.717 107.587 224.128 106.998 225.986 106.998C227.176 106.998 228.123 107.264 228.825 107.797C229.539 108.33 229.896 109.049 229.896 109.956C229.896 110.421 229.817 110.834 229.658 111.197C229.511 111.548 229.324 111.849 229.097 112.098C228.882 112.347 228.593 112.636 228.23 112.965C227.743 113.407 227.38 113.804 227.142 114.155C226.904 114.495 226.785 114.92 226.785 115.43H225.527ZM226.156 119.085C225.907 119.085 225.697 119 225.527 118.83C225.357 118.649 225.272 118.439 225.272 118.201C225.272 117.952 225.357 117.748 225.527 117.589C225.697 117.419 225.907 117.334 226.156 117.334C226.417 117.334 226.632 117.419 226.802 117.589C226.972 117.748 227.057 117.952 227.057 118.201C227.057 118.439 226.967 118.649 226.785 118.83C226.615 119 226.406 119.085 226.156 119.085Z" fill="white"/>
</svg>
