<svg id="Calque_1" data-name="Calque 1" xmlns="http://www.w3.org/2000/svg" viewBox="0 0 183.06 152.18"><defs><style>.cls-1{fill:#eead07;}.cls-2{fill:#f1b705;}.cls-3{fill:none;stroke:#fff;stroke-linecap:round;stroke-miterlimit:10;}</style></defs><path class="cls-1" d="M162.3,0H145.75c0,.11,0,.21,0,.32A108.43,108.43,0,0,1,91.5,88.42l-.06,0c-.82.47-1.64.94-2.47,1.38a109.09,109.09,0,0,1-52.23,13.22A109.58,109.58,0,0,1,.17,96.8v6.14A20.59,20.59,0,0,0,.28,105c0,.35.07.69.13,1A20.36,20.36,0,0,0,5.5,116.7c.22.24.45.48.68.71a20.56,20.56,0,0,0,7.46,4.75c.63.23,1.27.43,1.93.6a20.2,20.2,0,0,0,3,.53,20.79,20.79,0,0,0,2.1.11H35.76L30,145.69a5,5,0,0,0,7.72,5.43L78.87,123.4H162.3a20.79,20.79,0,0,0,2.1-.11,20.2,20.2,0,0,0,3-.53c.66-.17,1.3-.37,1.93-.6a20.52,20.52,0,0,0,7.45-4.75c.23-.23.46-.47.68-.71a20.36,20.36,0,0,0,5.09-10.64c.06-.34.1-.68.13-1a20.59,20.59,0,0,0,.11-2.09V20.46A20.49,20.49,0,0,0,162.3,0Z" transform="translate(-0.17 0.18)"/><path class="cls-2" d="M162.3.32H20.7A20.47,20.47,0,0,0,.17,20.73v82.21A20.59,20.59,0,0,0,.28,105c0,.35.07.69.13,1A20.17,20.17,0,0,0,5.5,116.7c.22.24.45.48.68.71a20.47,20.47,0,0,0,7.46,4.75c.63.23,1.27.43,1.93.6a20.2,20.2,0,0,0,3,.53,20.79,20.79,0,0,0,2.1.11H162.3a20.79,20.79,0,0,0,2.1-.11,20.2,20.2,0,0,0,3-.53c.66-.17,1.3-.37,1.93-.6a20.44,20.44,0,0,0,7.45-4.75c.23-.23.46-.47.68-.71a20.17,20.17,0,0,0,5.09-10.64c.06-.34.1-.68.13-1a20.59,20.59,0,0,0,.11-2.09V20.73A20.46,20.46,0,0,0,162.3.32Z" transform="translate(-0.17 0.18)"/><path class="cls-1" d="M180.67,97.54l-.66.21a109.44,109.44,0,0,1-33.76,5.3A109.17,109.17,0,0,1,103,94.2l-.24-.1Q98.31,92.15,94,89.83c-.85-.45-1.7-.93-2.53-1.41A109.06,109.06,0,0,1,63.78,65.59,107.69,107.69,0,0,1,37.44,3q-.06-.62-.09-1.11c0-.51-.06-1-.08-1.52,0-.11,0-.21,0-.32H20.7A20.5,20.5,0,0,0,.17,20.46v82.48A20.59,20.59,0,0,0,.28,105c0,.35.07.69.13,1A20.36,20.36,0,0,0,5.5,116.7c.22.24.45.48.68.71a20.56,20.56,0,0,0,7.46,4.75c.63.23,1.27.43,1.93.6a20.2,20.2,0,0,0,3,.53,20.79,20.79,0,0,0,2.1.11H162.3a20.79,20.79,0,0,0,2.1-.11,20.2,20.2,0,0,0,3-.53c.66-.17,1.3-.37,1.93-.6a20.52,20.52,0,0,0,7.45-4.75c.23-.23.46-.47.68-.71a20.36,20.36,0,0,0,5.09-10.64c.06-.34.1-.68.13-1a20.59,20.59,0,0,0,.11-2.09V96.8Z" transform="translate(-0.17 0.18)"/><path class="cls-3" d="M37.25.32c.28,5.44,3.69,54.58,47.86,84.2,44.71,30,92.61,14.1,97.62,12.34" transform="translate(-0.17 0.18)"/></svg>