<svg width="286" height="230" viewBox="0 0 286 230" fill="none" xmlns="http://www.w3.org/2000/svg">
<path d="M251.229 186.667H104.465L50.9218 228.598C45.9818 232.644 39.289 227.311 40.8826 220.506L48.5315 186.851H28.7717C13.9518 186.851 2.15967 173.058 2.15967 155.771V31.0805C2.15967 13.9771 14.1112 0 28.7717 0H251.388C266.208 0 278 13.7931 278 31.0805V155.771C278 172.874 265.889 186.667 251.229 186.667Z" fill="#F1B705"/>
<path d="M251.229 0H191.63C187.806 86.9887 125.658 155.954 49.6466 155.954C32.9145 155.954 16.8199 152.644 2 146.575V155.771C2 172.874 13.9515 186.851 28.612 186.851H48.2125L40.5635 220.506C38.9699 227.311 45.5035 232.644 50.6028 228.598L104.145 186.667H250.91C265.73 186.667 277.522 172.874 277.522 155.587V30.8966C278 13.7931 265.889 0 251.229 0Z" fill="#EEAD07"/>
<path d="M2 31.0161V155.984C2 173.148 15.9058 187 32.9858 187H247.014C264.094 187 278 173.148 278 155.984V31.0161C278 13.8519 264.094 0 247.014 0H32.9858C15.9058 0.150564 2 14.0024 2 31.0161Z" fill="#F1B705"/>
<path d="M0 31.2208V157.627C0 174.989 14.0066 189 31.2103 189H158.183H178.786C188.859 189 191.377 189 204.471 189H223.801H246.79C263.993 189 278 174.989 278 157.627V148.185C260.644 154.429 241.918 157.779 222.278 157.779C193.504 157.779 166.404 150.469 142.806 137.524C141.436 136.762 140.218 136.153 139 135.392C91.8039 107.978 59.2234 57.8727 56.483 0H31.2103C14.0066 0 0 14.0113 0 31.2208Z" fill="#EEAD07"/>
<path d="M15.219 60.102C14.335 60.102 13.485 59.9603 12.669 59.677C11.8643 59.3937 11.241 59.0197 10.799 58.555L11.292 57.586C11.7227 58.0167 12.295 58.368 13.009 58.64C13.723 58.9007 14.4597 59.031 15.219 59.031C16.2843 59.031 17.0833 58.8383 17.616 58.453C18.1487 58.0563 18.415 57.5463 18.415 56.923C18.415 56.447 18.2677 56.0673 17.973 55.784C17.6897 55.5007 17.3383 55.2853 16.919 55.138C16.4997 54.9793 15.916 54.8093 15.168 54.628C14.2727 54.4013 13.5587 54.186 13.026 53.982C12.4933 53.7667 12.0343 53.4437 11.649 53.013C11.275 52.5823 11.088 51.9987 11.088 51.262C11.088 50.6613 11.2467 50.1173 11.564 49.63C11.8813 49.1313 12.3687 48.7347 13.026 48.44C13.6833 48.1453 14.4993 47.998 15.474 47.998C16.154 47.998 16.817 48.0943 17.463 48.287C18.1203 48.4683 18.687 48.7233 19.163 49.052L18.738 50.055C18.2393 49.7263 17.7067 49.4827 17.14 49.324C16.5733 49.154 16.018 49.069 15.474 49.069C14.4313 49.069 13.6437 49.273 13.111 49.681C12.5897 50.0777 12.329 50.5933 12.329 51.228C12.329 51.704 12.4707 52.0893 12.754 52.384C13.0487 52.6673 13.4113 52.8883 13.842 53.047C14.284 53.1943 14.8733 53.3587 15.61 53.54C16.4827 53.7553 17.1853 53.9707 17.718 54.186C18.262 54.39 18.721 54.7073 19.095 55.138C19.469 55.5573 19.656 56.1297 19.656 56.855C19.656 57.4557 19.4917 58.0053 19.163 58.504C18.8457 58.9913 18.3527 59.3823 17.684 59.677C17.0153 59.9603 16.1937 60.102 15.219 60.102ZM22.142 51.058H23.349V60H22.142V51.058ZM22.754 49.103C22.5047 49.103 22.295 49.018 22.125 48.848C21.955 48.678 21.87 48.474 21.87 48.236C21.87 48.0093 21.955 47.811 22.125 47.641C22.295 47.471 22.5047 47.386 22.754 47.386C23.0033 47.386 23.213 47.471 23.383 47.641C23.553 47.7997 23.638 47.9923 23.638 48.219C23.638 48.4683 23.553 48.678 23.383 48.848C23.213 49.018 23.0033 49.103 22.754 49.103ZM38.6706 51.058L34.6926 60H33.4516L29.4906 51.058H30.7486L34.0976 58.674L37.4806 51.058H38.6706ZM43.7765 60.085C42.9151 60.085 42.1388 59.8923 41.4475 59.507C40.7561 59.1103 40.2121 58.5663 39.8155 57.875C39.4188 57.1837 39.2205 56.4017 39.2205 55.529C39.2205 54.6563 39.4188 53.8743 39.8155 53.183C40.2121 52.4917 40.7561 51.9533 41.4475 51.568C42.1388 51.1827 42.9151 50.99 43.7765 50.99C44.6378 50.99 45.4141 51.1827 46.1055 51.568C46.7968 51.9533 47.3351 52.4917 47.7205 53.183C48.1171 53.8743 48.3155 54.6563 48.3155 55.529C48.3155 56.4017 48.1171 57.1837 47.7205 57.875C47.3351 58.5663 46.7968 59.1103 46.1055 59.507C45.4141 59.8923 44.6378 60.085 43.7765 60.085ZM43.7765 59.014C44.4111 59.014 44.9778 58.8723 45.4765 58.589C45.9865 58.2943 46.3831 57.8807 46.6665 57.348C46.9498 56.8153 47.0915 56.209 47.0915 55.529C47.0915 54.849 46.9498 54.2427 46.6665 53.71C46.3831 53.1773 45.9865 52.7693 45.4765 52.486C44.9778 52.1913 44.4111 52.044 43.7765 52.044C43.1418 52.044 42.5695 52.1913 42.0595 52.486C41.5608 52.7693 41.1641 53.1773 40.8695 53.71C40.5861 54.2427 40.4445 54.849 40.4445 55.529C40.4445 56.209 40.5861 56.8153 40.8695 57.348C41.1641 57.8807 41.5608 58.2943 42.0595 58.589C42.5695 58.8723 43.1418 59.014 43.7765 59.014ZM58.8377 51.058V60H57.6817V58.368C57.3643 58.912 56.928 59.337 56.3727 59.643C55.8173 59.9377 55.1827 60.085 54.4687 60.085C53.3013 60.085 52.3777 59.762 51.6977 59.116C51.029 58.4587 50.6947 57.501 50.6947 56.243V51.058H51.9017V56.124C51.9017 57.0647 52.134 57.7787 52.5987 58.266C53.0633 58.7533 53.7263 58.997 54.5877 58.997C55.5283 58.997 56.2707 58.7137 56.8147 58.147C57.3587 57.569 57.6307 56.77 57.6307 55.75V51.058H58.8377ZM64.6152 60.085C63.8898 60.085 63.1928 59.983 62.5242 59.779C61.8668 59.5637 61.3512 59.2973 60.9772 58.98L61.5212 58.028C61.8952 58.3227 62.3655 58.5663 62.9322 58.759C63.4988 58.9403 64.0882 59.031 64.7002 59.031C65.5162 59.031 66.1168 58.9063 66.5022 58.657C66.8988 58.3963 67.0972 58.0337 67.0972 57.569C67.0972 57.2403 66.9895 56.9853 66.7742 56.804C66.5588 56.6113 66.2868 56.4697 65.9582 56.379C65.6295 56.277 65.1932 56.1807 64.6492 56.09C63.9238 55.954 63.3402 55.818 62.8982 55.682C62.4562 55.5347 62.0765 55.291 61.7592 54.951C61.4532 54.611 61.3002 54.1407 61.3002 53.54C61.3002 52.792 61.6118 52.18 62.2352 51.704C62.8585 51.228 63.7255 50.99 64.8362 50.99C65.4142 50.99 65.9922 51.0693 66.5702 51.228C67.1482 51.3753 67.6242 51.5737 67.9982 51.823L67.4712 52.792C66.7345 52.282 65.8562 52.027 64.8362 52.027C64.0655 52.027 63.4818 52.163 63.0852 52.435C62.6998 52.707 62.5072 53.064 62.5072 53.506C62.5072 53.846 62.6148 54.118 62.8302 54.322C63.0568 54.526 63.3345 54.679 63.6632 54.781C63.9918 54.8717 64.4452 54.968 65.0232 55.07C65.7372 55.206 66.3095 55.342 66.7402 55.478C67.1708 55.614 67.5392 55.8463 67.8452 56.175C68.1512 56.5037 68.3042 56.957 68.3042 57.535C68.3042 58.317 67.9755 58.9403 67.3182 59.405C66.6722 59.8583 65.7712 60.085 64.6152 60.085ZM86.1368 50.99C87.2588 50.99 88.1371 51.313 88.7718 51.959C89.4178 52.605 89.7408 53.557 89.7408 54.815V60H88.5338V54.934C88.5338 54.0047 88.3071 53.2963 87.8538 52.809C87.4118 52.3217 86.7828 52.078 85.9668 52.078C85.0374 52.078 84.3064 52.367 83.7738 52.945C83.2411 53.5117 82.9748 54.2993 82.9748 55.308V60H81.7678V54.934C81.7678 54.0047 81.5411 53.2963 81.0878 52.809C80.6458 52.3217 80.0111 52.078 79.1838 52.078C78.2658 52.078 77.5348 52.367 76.9908 52.945C76.4581 53.5117 76.1918 54.2993 76.1918 55.308V60H74.9848V51.058H76.1408V52.69C76.4581 52.146 76.9001 51.7267 77.4668 51.432C78.0334 51.1373 78.6851 50.99 79.4218 50.99C80.1698 50.99 80.8158 51.1487 81.3598 51.466C81.9151 51.7833 82.3288 52.2537 82.6008 52.877C82.9294 52.2877 83.3998 51.8287 84.0118 51.5C84.6351 51.16 85.3434 50.99 86.1368 50.99ZM100.833 55.903H93.3533C93.4213 56.8323 93.7783 57.586 94.4243 58.164C95.0703 58.7307 95.8863 59.014 96.8723 59.014C97.4276 59.014 97.9376 58.9177 98.4023 58.725C98.8669 58.521 99.2693 58.2263 99.6093 57.841L100.289 58.623C99.8926 59.099 99.3939 59.4617 98.7933 59.711C98.2039 59.9603 97.5523 60.085 96.8383 60.085C95.9203 60.085 95.1043 59.8923 94.3903 59.507C93.6876 59.1103 93.1379 58.5663 92.7413 57.875C92.3446 57.1837 92.1463 56.4017 92.1463 55.529C92.1463 54.6563 92.3333 53.8743 92.7073 53.183C93.0926 52.4917 93.6139 51.9533 94.2713 51.568C94.9399 51.1827 95.6879 50.99 96.5153 50.99C97.3426 50.99 98.0849 51.1827 98.7423 51.568C99.3996 51.9533 99.9153 52.4917 100.289 53.183C100.663 53.863 100.85 54.645 100.85 55.529L100.833 55.903ZM96.5153 52.027C95.6539 52.027 94.9286 52.3047 94.3393 52.86C93.7613 53.404 93.4326 54.118 93.3533 55.002H99.6943C99.6149 54.118 99.2806 53.404 98.6913 52.86C98.1133 52.3047 97.3879 52.027 96.5153 52.027ZM107.756 47.386H108.963V60H107.756V47.386ZM120.108 55.903H112.628C112.696 56.8323 113.053 57.586 113.699 58.164C114.345 58.7307 115.161 59.014 116.147 59.014C116.702 59.014 117.212 58.9177 117.677 58.725C118.141 58.521 118.544 58.2263 118.884 57.841L119.564 58.623C119.167 59.099 118.668 59.4617 118.068 59.711C117.478 59.9603 116.827 60.085 116.113 60.085C115.195 60.085 114.379 59.8923 113.665 59.507C112.962 59.1103 112.412 58.5663 112.016 57.875C111.619 57.1837 111.421 56.4017 111.421 55.529C111.421 54.6563 111.608 53.8743 111.982 53.183C112.367 52.4917 112.888 51.9533 113.546 51.568C114.214 51.1827 114.962 50.99 115.79 50.99C116.617 50.99 117.359 51.1827 118.017 51.568C118.674 51.9533 119.19 52.4917 119.564 53.183C119.938 53.863 120.125 54.645 120.125 55.529L120.108 55.903ZM115.79 52.027C114.928 52.027 114.203 52.3047 113.614 52.86C113.036 53.404 112.707 54.118 112.628 55.002H118.969C118.889 54.118 118.555 53.404 117.966 52.86C117.388 52.3047 116.662 52.027 115.79 52.027ZM131.638 50.99C132.476 50.99 133.236 51.1827 133.916 51.568C134.596 51.942 135.128 52.4747 135.514 53.166C135.899 53.8573 136.092 54.645 136.092 55.529C136.092 56.4243 135.899 57.2177 135.514 57.909C135.128 58.6003 134.596 59.1387 133.916 59.524C133.247 59.898 132.488 60.085 131.638 60.085C130.912 60.085 130.255 59.9377 129.666 59.643C129.088 59.337 128.612 58.895 128.238 58.317V63.298H127.031V51.058H128.187V52.826C128.549 52.2367 129.025 51.7833 129.615 51.466C130.215 51.1487 130.89 50.99 131.638 50.99ZM131.553 59.014C132.176 59.014 132.743 58.8723 133.253 58.589C133.763 58.2943 134.159 57.8807 134.443 57.348C134.737 56.8153 134.885 56.209 134.885 55.529C134.885 54.849 134.737 54.2483 134.443 53.727C134.159 53.1943 133.763 52.7807 133.253 52.486C132.743 52.1913 132.176 52.044 131.553 52.044C130.918 52.044 130.346 52.1913 129.836 52.486C129.337 52.7807 128.94 53.1943 128.646 53.727C128.362 54.2483 128.221 54.849 128.221 55.529C128.221 56.209 128.362 56.8153 128.646 57.348C128.94 57.8807 129.337 58.2943 129.836 58.589C130.346 58.8723 130.918 59.014 131.553 59.014ZM146.338 55.903H138.858C138.926 56.8323 139.283 57.586 139.929 58.164C140.575 58.7307 141.391 59.014 142.377 59.014C142.932 59.014 143.442 58.9177 143.907 58.725C144.372 58.521 144.774 58.2263 145.114 57.841L145.794 58.623C145.397 59.099 144.899 59.4617 144.298 59.711C143.709 59.9603 143.057 60.085 142.343 60.085C141.425 60.085 140.609 59.8923 139.895 59.507C139.192 59.1103 138.643 58.5663 138.246 57.875C137.849 57.1837 137.651 56.4017 137.651 55.529C137.651 54.6563 137.838 53.8743 138.212 53.183C138.597 52.4917 139.119 51.9533 139.776 51.568C140.445 51.1827 141.193 50.99 142.02 50.99C142.847 50.99 143.59 51.1827 144.247 51.568C144.904 51.9533 145.42 52.4917 145.794 53.183C146.168 53.863 146.355 54.645 146.355 55.529L146.338 55.903ZM142.02 52.027C141.159 52.027 140.433 52.3047 139.844 52.86C139.266 53.404 138.937 54.118 138.858 55.002H145.199C145.12 54.118 144.785 53.404 144.196 52.86C143.618 52.3047 142.893 52.027 142.02 52.027ZM149.968 52.809C150.251 52.2083 150.671 51.755 151.226 51.449C151.793 51.143 152.49 50.99 153.317 50.99V52.163L153.028 52.146C152.087 52.146 151.351 52.435 150.818 53.013C150.285 53.591 150.019 54.4013 150.019 55.444V60H148.812V51.058H149.968V52.809ZM166.654 50.99C167.776 50.99 168.655 51.313 169.289 51.959C169.935 52.605 170.258 53.557 170.258 54.815V60H169.051V54.934C169.051 54.0047 168.825 53.2963 168.371 52.809C167.929 52.3217 167.3 52.078 166.484 52.078C165.555 52.078 164.824 52.367 164.291 52.945C163.759 53.5117 163.492 54.2993 163.492 55.308V60H162.285V54.934C162.285 54.0047 162.059 53.2963 161.605 52.809C161.163 52.3217 160.529 52.078 159.701 52.078C158.783 52.078 158.052 52.367 157.508 52.945C156.976 53.5117 156.709 54.2993 156.709 55.308V60H155.502V51.058H156.658V52.69C156.976 52.146 157.418 51.7267 157.984 51.432C158.551 51.1373 159.203 50.99 159.939 50.99C160.687 50.99 161.333 51.1487 161.877 51.466C162.433 51.7833 162.846 52.2537 163.118 52.877C163.447 52.2877 163.917 51.8287 164.529 51.5C165.153 51.16 165.861 50.99 166.654 50.99ZM181.351 55.903H173.871C173.939 56.8323 174.296 57.586 174.942 58.164C175.588 58.7307 176.404 59.014 177.39 59.014C177.945 59.014 178.455 58.9177 178.92 58.725C179.385 58.521 179.787 58.2263 180.127 57.841L180.807 58.623C180.41 59.099 179.912 59.4617 179.311 59.711C178.722 59.9603 178.07 60.085 177.356 60.085C176.438 60.085 175.622 59.8923 174.908 59.507C174.205 59.1103 173.656 58.5663 173.259 57.875C172.862 57.1837 172.664 56.4017 172.664 55.529C172.664 54.6563 172.851 53.8743 173.225 53.183C173.61 52.4917 174.132 51.9533 174.789 51.568C175.458 51.1827 176.206 50.99 177.033 50.99C177.86 50.99 178.603 51.1827 179.26 51.568C179.917 51.9533 180.433 52.4917 180.807 53.183C181.181 53.863 181.368 54.645 181.368 55.529L181.351 55.903ZM177.033 52.027C176.172 52.027 175.446 52.3047 174.857 52.86C174.279 53.404 173.95 54.118 173.871 55.002H180.212C180.133 54.118 179.798 53.404 179.209 52.86C178.631 52.3047 177.906 52.027 177.033 52.027ZM188.534 59.456C188.307 59.66 188.024 59.8187 187.684 59.932C187.355 60.034 187.009 60.085 186.647 60.085C185.808 60.085 185.162 59.8583 184.709 59.405C184.255 58.9517 184.029 58.3113 184.029 57.484V52.078H182.431V51.058H184.029V49.103H185.236V51.058H187.956V52.078H185.236V57.416C185.236 57.9487 185.366 58.3567 185.627 58.64C185.899 58.912 186.284 59.048 186.783 59.048C187.032 59.048 187.27 59.0083 187.497 58.929C187.735 58.8497 187.939 58.7363 188.109 58.589L188.534 59.456ZM195.207 59.456C194.981 59.66 194.697 59.8187 194.357 59.932C194.029 60.034 193.683 60.085 193.32 60.085C192.482 60.085 191.836 59.8583 191.382 59.405C190.929 58.9517 190.702 58.3113 190.702 57.484V52.078H189.104V51.058H190.702V49.103H191.909V51.058H194.629V52.078H191.909V57.416C191.909 57.9487 192.04 58.3567 192.3 58.64C192.572 58.912 192.958 59.048 193.456 59.048C193.706 59.048 193.944 59.0083 194.17 58.929C194.408 58.8497 194.612 58.7363 194.782 58.589L195.207 59.456ZM204.875 55.903H197.395C197.463 56.8323 197.82 57.586 198.466 58.164C199.112 58.7307 199.928 59.014 200.914 59.014C201.47 59.014 201.98 58.9177 202.444 58.725C202.909 58.521 203.311 58.2263 203.651 57.841L204.331 58.623C203.935 59.099 203.436 59.4617 202.835 59.711C202.246 59.9603 201.594 60.085 200.88 60.085C199.962 60.085 199.146 59.8923 198.432 59.507C197.73 59.1103 197.18 58.5663 196.783 57.875C196.387 57.1837 196.188 56.4017 196.188 55.529C196.188 54.6563 196.375 53.8743 196.749 53.183C197.135 52.4917 197.656 51.9533 198.313 51.568C198.982 51.1827 199.73 50.99 200.557 50.99C201.385 50.99 202.127 51.1827 202.784 51.568C203.442 51.9533 203.957 52.4917 204.331 53.183C204.705 53.863 204.892 54.645 204.892 55.529L204.875 55.903ZM200.557 52.027C199.696 52.027 198.971 52.3047 198.381 52.86C197.803 53.404 197.475 54.118 197.395 55.002H203.736C203.657 54.118 203.323 53.404 202.733 52.86C202.155 52.3047 201.43 52.027 200.557 52.027ZM213.573 58.997V60H206.297V59.201L211.924 52.078H206.399V51.058H213.471V51.857L207.844 58.997H213.573ZM216.118 58.232C216.378 58.232 216.594 58.3227 216.764 58.504C216.934 58.674 217.019 58.8893 217.019 59.15C217.019 59.286 216.996 59.4333 216.951 59.592C216.917 59.7507 216.86 59.932 216.781 60.136L216.067 62.482H215.251L215.829 60.017C215.647 59.9603 215.5 59.8583 215.387 59.711C215.273 59.5523 215.217 59.3653 215.217 59.15C215.217 58.8893 215.302 58.674 215.472 58.504C215.642 58.3227 215.857 58.232 216.118 58.232ZM10.357 84.383C9.983 84.383 9.63167 84.332 9.303 84.23C8.963 84.1393 8.68533 83.9977 8.47 83.805L8.895 82.887C9.24633 83.193 9.711 83.346 10.289 83.346C10.765 83.346 11.1277 83.2043 11.377 82.921C11.6377 82.6377 11.768 82.2183 11.768 81.663V72.058H12.975V81.663C12.975 82.5017 12.7483 83.1647 12.295 83.652C11.8417 84.1393 11.1957 84.383 10.357 84.383ZM12.38 70.086C12.1307 70.086 11.921 70.001 11.751 69.831C11.581 69.661 11.496 69.457 11.496 69.219C11.496 68.9923 11.581 68.794 11.751 68.624C11.921 68.454 12.1307 68.369 12.38 68.369C12.6293 68.369 12.839 68.454 13.009 68.624C13.179 68.7827 13.264 68.9753 13.264 69.202C13.264 69.4513 13.179 69.661 13.009 69.831C12.839 70.001 12.6293 70.086 12.38 70.086ZM24.134 76.903H16.654C16.722 77.8323 17.079 78.586 17.725 79.164C18.371 79.7307 19.187 80.014 20.173 80.014C20.7284 80.014 21.2384 79.9177 21.703 79.725C22.1677 79.521 22.57 79.2263 22.91 78.841L23.59 79.623C23.1934 80.099 22.6947 80.4617 22.094 80.711C21.5047 80.9603 20.853 81.085 20.139 81.085C19.221 81.085 18.405 80.8923 17.691 80.507C16.9884 80.1103 16.4387 79.5663 16.042 78.875C15.6454 78.1837 15.447 77.4017 15.447 76.529C15.447 75.6563 15.634 74.8743 16.008 74.183C16.3934 73.4917 16.9147 72.9533 17.572 72.568C18.2407 72.1827 18.9887 71.99 19.816 71.99C20.6434 71.99 21.3857 72.1827 22.043 72.568C22.7004 72.9533 23.216 73.4917 23.59 74.183C23.964 74.863 24.151 75.645 24.151 76.529L24.134 76.903ZM19.816 73.027C18.9547 73.027 18.2294 73.3047 17.64 73.86C17.062 74.404 16.7334 75.118 16.654 76.002H22.995C22.9157 75.118 22.5814 74.404 21.992 73.86C21.414 73.3047 20.6887 73.027 19.816 73.027ZM35.664 71.99C36.5027 71.99 37.262 72.1827 37.942 72.568C38.622 72.942 39.1547 73.4747 39.54 74.166C39.9254 74.8573 40.118 75.645 40.118 76.529C40.118 77.4243 39.9254 78.2177 39.54 78.909C39.1547 79.6003 38.622 80.1387 37.942 80.524C37.2734 80.898 36.514 81.085 35.664 81.085C34.9387 81.085 34.2814 80.9377 33.692 80.643C33.114 80.337 32.638 79.895 32.264 79.317V84.298H31.057V72.058H32.213V73.826C32.5757 73.2367 33.0517 72.7833 33.641 72.466C34.2417 72.1487 34.916 71.99 35.664 71.99ZM35.579 80.014C36.2024 80.014 36.769 79.8723 37.279 79.589C37.789 79.2943 38.1857 78.8807 38.469 78.348C38.7637 77.8153 38.911 77.209 38.911 76.529C38.911 75.849 38.7637 75.2483 38.469 74.727C38.1857 74.1943 37.789 73.7807 37.279 73.486C36.769 73.1913 36.2024 73.044 35.579 73.044C34.9444 73.044 34.372 73.1913 33.862 73.486C33.3634 73.7807 32.9667 74.1943 32.672 74.727C32.3887 75.2483 32.247 75.849 32.247 76.529C32.247 77.209 32.3887 77.8153 32.672 78.348C32.9667 78.8807 33.3634 79.2943 33.862 79.589C34.372 79.8723 34.9444 80.014 35.579 80.014ZM50.3645 76.903H42.8845C42.9525 77.8323 43.3095 78.586 43.9555 79.164C44.6015 79.7307 45.4175 80.014 46.4035 80.014C46.9588 80.014 47.4688 79.9177 47.9335 79.725C48.3982 79.521 48.8005 79.2263 49.1405 78.841L49.8205 79.623C49.4238 80.099 48.9252 80.4617 48.3245 80.711C47.7352 80.9603 47.0835 81.085 46.3695 81.085C45.4515 81.085 44.6355 80.8923 43.9215 80.507C43.2188 80.1103 42.6692 79.5663 42.2725 78.875C41.8758 78.1837 41.6775 77.4017 41.6775 76.529C41.6775 75.6563 41.8645 74.8743 42.2385 74.183C42.6238 73.4917 43.1452 72.9533 43.8025 72.568C44.4712 72.1827 45.2192 71.99 46.0465 71.99C46.8738 71.99 47.6162 72.1827 48.2735 72.568C48.9308 72.9533 49.4465 73.4917 49.8205 74.183C50.1945 74.863 50.3815 75.645 50.3815 76.529L50.3645 76.903ZM46.0465 73.027C45.1852 73.027 44.4598 73.3047 43.8705 73.86C43.2925 74.404 42.9638 75.118 42.8845 76.002H49.2255C49.1462 75.118 48.8118 74.404 48.2225 73.86C47.6445 73.3047 46.9192 73.027 46.0465 73.027ZM60.8963 72.058V81H59.7403V79.368C59.4229 79.912 58.9866 80.337 58.4313 80.643C57.8759 80.9377 57.2413 81.085 56.5273 81.085C55.3599 81.085 54.4363 80.762 53.7563 80.116C53.0876 79.4587 52.7533 78.501 52.7533 77.243V72.058H53.9603V77.124C53.9603 78.0647 54.1926 78.7787 54.6573 79.266C55.1219 79.7533 55.7849 79.997 56.6463 79.997C57.5869 79.997 58.3293 79.7137 58.8733 79.147C59.4173 78.569 59.6893 77.77 59.6893 76.75V72.058H60.8963ZM69.9718 81L67.1328 77.26L64.2768 81H62.9168L66.4528 76.41L63.0868 72.058H64.4468L67.1328 75.56L69.8188 72.058H71.1448L67.7788 76.41L71.3488 81H69.9718ZM85.321 72.058L81.343 81H80.102L76.141 72.058H77.399L80.748 79.674L84.131 72.058H85.321ZM90.4269 81.085C89.5655 81.085 88.7892 80.8923 88.0979 80.507C87.4065 80.1103 86.8625 79.5663 86.4659 78.875C86.0692 78.1837 85.8709 77.4017 85.8709 76.529C85.8709 75.6563 86.0692 74.8743 86.4659 74.183C86.8625 73.4917 87.4065 72.9533 88.0979 72.568C88.7892 72.1827 89.5655 71.99 90.4269 71.99C91.2882 71.99 92.0645 72.1827 92.7559 72.568C93.4472 72.9533 93.9855 73.4917 94.3709 74.183C94.7675 74.8743 94.9659 75.6563 94.9659 76.529C94.9659 77.4017 94.7675 78.1837 94.3709 78.875C93.9855 79.5663 93.4472 80.1103 92.7559 80.507C92.0645 80.8923 91.2882 81.085 90.4269 81.085ZM90.4269 80.014C91.0615 80.014 91.6282 79.8723 92.1269 79.589C92.6369 79.2943 93.0335 78.8807 93.3169 78.348C93.6002 77.8153 93.7419 77.209 93.7419 76.529C93.7419 75.849 93.6002 75.2427 93.3169 74.71C93.0335 74.1773 92.6369 73.7693 92.1269 73.486C91.6282 73.1913 91.0615 73.044 90.4269 73.044C89.7922 73.044 89.2199 73.1913 88.7099 73.486C88.2112 73.7693 87.8145 74.1773 87.5199 74.71C87.2365 75.2427 87.0949 75.849 87.0949 76.529C87.0949 77.209 87.2365 77.8153 87.5199 78.348C87.8145 78.8807 88.2112 79.2943 88.7099 79.589C89.2199 79.8723 89.7922 80.014 90.4269 80.014ZM105.488 72.058V81H104.332V79.368C104.015 79.912 103.578 80.337 103.023 80.643C102.468 80.9377 101.833 81.085 101.119 81.085C99.9517 81.085 99.0281 80.762 98.3481 80.116C97.6794 79.4587 97.3451 78.501 97.3451 77.243V72.058H98.5521V77.124C98.5521 78.0647 98.7844 78.7787 99.2491 79.266C99.7137 79.7533 100.377 79.997 101.238 79.997C102.179 79.997 102.921 79.7137 103.465 79.147C104.009 78.569 104.281 77.77 104.281 76.75V72.058H105.488ZM111.266 81.085C110.54 81.085 109.843 80.983 109.175 80.779C108.517 80.5637 108.002 80.2973 107.628 79.98L108.172 79.028C108.546 79.3227 109.016 79.5663 109.583 79.759C110.149 79.9403 110.739 80.031 111.351 80.031C112.167 80.031 112.767 79.9063 113.153 79.657C113.549 79.3963 113.748 79.0337 113.748 78.569C113.748 78.2403 113.64 77.9853 113.425 77.804C113.209 77.6113 112.937 77.4697 112.609 77.379C112.28 77.277 111.844 77.1807 111.3 77.09C110.574 76.954 109.991 76.818 109.549 76.682C109.107 76.5347 108.727 76.291 108.41 75.951C108.104 75.611 107.951 75.1407 107.951 74.54C107.951 73.792 108.262 73.18 108.886 72.704C109.509 72.228 110.376 71.99 111.487 71.99C112.065 71.99 112.643 72.0693 113.221 72.228C113.799 72.3753 114.275 72.5737 114.649 72.823L114.122 73.792C113.385 73.282 112.507 73.027 111.487 73.027C110.716 73.027 110.132 73.163 109.736 73.435C109.35 73.707 109.158 74.064 109.158 74.506C109.158 74.846 109.265 75.118 109.481 75.322C109.707 75.526 109.985 75.679 110.314 75.781C110.642 75.8717 111.096 75.968 111.674 76.07C112.388 76.206 112.96 76.342 113.391 76.478C113.821 76.614 114.19 76.8463 114.496 77.175C114.802 77.5037 114.955 77.957 114.955 78.535C114.955 79.317 114.626 79.9403 113.969 80.405C113.323 80.8583 112.422 81.085 111.266 81.085ZM125.341 81.085C124.457 81.085 123.664 80.8923 122.961 80.507C122.27 80.1217 121.726 79.5833 121.329 78.892C120.932 78.1893 120.734 77.4017 120.734 76.529C120.734 75.6563 120.932 74.8743 121.329 74.183C121.726 73.4917 122.27 72.9533 122.961 72.568C123.664 72.1827 124.457 71.99 125.341 71.99C126.112 71.99 126.797 72.143 127.398 72.449C128.01 72.7437 128.492 73.18 128.843 73.758L127.942 74.37C127.647 73.928 127.273 73.5993 126.82 73.384C126.367 73.1573 125.874 73.044 125.341 73.044C124.695 73.044 124.111 73.1913 123.59 73.486C123.08 73.7693 122.678 74.1773 122.383 74.71C122.1 75.2427 121.958 75.849 121.958 76.529C121.958 77.2203 122.1 77.8323 122.383 78.365C122.678 78.8863 123.08 79.2943 123.59 79.589C124.111 79.8723 124.695 80.014 125.341 80.014C125.874 80.014 126.367 79.9063 126.82 79.691C127.273 79.4757 127.647 79.147 127.942 78.705L128.843 79.317C128.492 79.895 128.01 80.337 127.398 80.643C126.786 80.9377 126.1 81.085 125.341 81.085ZM134.72 81.085C133.859 81.085 133.082 80.8923 132.391 80.507C131.7 80.1103 131.156 79.5663 130.759 78.875C130.362 78.1837 130.164 77.4017 130.164 76.529C130.164 75.6563 130.362 74.8743 130.759 74.183C131.156 73.4917 131.7 72.9533 132.391 72.568C133.082 72.1827 133.859 71.99 134.72 71.99C135.581 71.99 136.358 72.1827 137.049 72.568C137.74 72.9533 138.279 73.4917 138.664 74.183C139.061 74.8743 139.259 75.6563 139.259 76.529C139.259 77.4017 139.061 78.1837 138.664 78.875C138.279 79.5663 137.74 80.1103 137.049 80.507C136.358 80.8923 135.581 81.085 134.72 81.085ZM134.72 80.014C135.355 80.014 135.921 79.8723 136.42 79.589C136.93 79.2943 137.327 78.8807 137.61 78.348C137.893 77.8153 138.035 77.209 138.035 76.529C138.035 75.849 137.893 75.2427 137.61 74.71C137.327 74.1773 136.93 73.7693 136.42 73.486C135.921 73.1913 135.355 73.044 134.72 73.044C134.085 73.044 133.513 73.1913 133.003 73.486C132.504 73.7693 132.108 74.1773 131.813 74.71C131.53 75.2427 131.388 75.849 131.388 76.529C131.388 77.209 131.53 77.8153 131.813 78.348C132.108 78.8807 132.504 79.2943 133.003 79.589C133.513 79.8723 134.085 80.014 134.72 80.014ZM146.279 71.99C147.401 71.99 148.291 72.3187 148.948 72.976C149.617 73.622 149.951 74.5683 149.951 75.815V81H148.744V75.934C148.744 75.0047 148.512 74.2963 148.047 73.809C147.582 73.3217 146.919 73.078 146.058 73.078C145.095 73.078 144.33 73.367 143.763 73.945C143.208 74.5117 142.93 75.2993 142.93 76.308V81H141.723V72.058H142.879V73.707C143.208 73.163 143.661 72.7437 144.239 72.449C144.828 72.143 145.508 71.99 146.279 71.99ZM155.625 81.085C154.9 81.085 154.203 80.983 153.534 80.779C152.877 80.5637 152.361 80.2973 151.987 79.98L152.531 79.028C152.905 79.3227 153.375 79.5663 153.942 79.759C154.509 79.9403 155.098 80.031 155.71 80.031C156.526 80.031 157.127 79.9063 157.512 79.657C157.909 79.3963 158.107 79.0337 158.107 78.569C158.107 78.2403 157.999 77.9853 157.784 77.804C157.569 77.6113 157.297 77.4697 156.968 77.379C156.639 77.277 156.203 77.1807 155.659 77.09C154.934 76.954 154.35 76.818 153.908 76.682C153.466 76.5347 153.086 76.291 152.769 75.951C152.463 75.611 152.31 75.1407 152.31 74.54C152.31 73.792 152.622 73.18 153.245 72.704C153.868 72.228 154.735 71.99 155.846 71.99C156.424 71.99 157.002 72.0693 157.58 72.228C158.158 72.3753 158.634 72.5737 159.008 72.823L158.481 73.792C157.744 73.282 156.866 73.027 155.846 73.027C155.075 73.027 154.492 73.163 154.095 73.435C153.71 73.707 153.517 74.064 153.517 74.506C153.517 74.846 153.625 75.118 153.84 75.322C154.067 75.526 154.344 75.679 154.673 75.781C155.002 75.8717 155.455 75.968 156.033 76.07C156.747 76.206 157.319 76.342 157.75 76.478C158.181 76.614 158.549 76.8463 158.855 77.175C159.161 77.5037 159.314 77.957 159.314 78.535C159.314 79.317 158.985 79.9403 158.328 80.405C157.682 80.8583 156.781 81.085 155.625 81.085ZM169.331 76.903H161.851C161.919 77.8323 162.276 78.586 162.922 79.164C163.568 79.7307 164.384 80.014 165.37 80.014C165.926 80.014 166.436 79.9177 166.9 79.725C167.365 79.521 167.767 79.2263 168.107 78.841L168.787 79.623C168.391 80.099 167.892 80.4617 167.291 80.711C166.702 80.9603 166.05 81.085 165.336 81.085C164.418 81.085 163.602 80.8923 162.888 80.507C162.186 80.1103 161.636 79.5663 161.239 78.875C160.843 78.1837 160.644 77.4017 160.644 76.529C160.644 75.6563 160.831 74.8743 161.205 74.183C161.591 73.4917 162.112 72.9533 162.769 72.568C163.438 72.1827 164.186 71.99 165.013 71.99C165.841 71.99 166.583 72.1827 167.24 72.568C167.898 72.9533 168.413 73.4917 168.787 74.183C169.161 74.863 169.348 75.645 169.348 76.529L169.331 76.903ZM165.013 73.027C164.152 73.027 163.427 73.3047 162.837 73.86C162.259 74.404 161.931 75.118 161.851 76.002H168.192C168.113 75.118 167.779 74.404 167.189 73.86C166.611 73.3047 165.886 73.027 165.013 73.027ZM171.805 72.058H173.012V81H171.805V72.058ZM172.417 70.103C172.168 70.103 171.958 70.018 171.788 69.848C171.618 69.678 171.533 69.474 171.533 69.236C171.533 69.0093 171.618 68.811 171.788 68.641C171.958 68.471 172.168 68.386 172.417 68.386C172.666 68.386 172.876 68.471 173.046 68.641C173.216 68.7997 173.301 68.9923 173.301 69.219C173.301 69.4683 173.216 69.678 173.046 69.848C172.876 70.018 172.666 70.103 172.417 70.103ZM176.371 68.386H177.578V81H176.371V68.386ZM180.936 68.386H182.143V81H180.936V68.386ZM193.287 76.903H185.807C185.875 77.8323 186.232 78.586 186.878 79.164C187.524 79.7307 188.34 80.014 189.326 80.014C189.882 80.014 190.392 79.9177 190.856 79.725C191.321 79.521 191.723 79.2263 192.063 78.841L192.743 79.623C192.347 80.099 191.848 80.4617 191.247 80.711C190.658 80.9603 190.006 81.085 189.292 81.085C188.374 81.085 187.558 80.8923 186.844 80.507C186.142 80.1103 185.592 79.5663 185.195 78.875C184.799 78.1837 184.6 77.4017 184.6 76.529C184.6 75.6563 184.787 74.8743 185.161 74.183C185.547 73.4917 186.068 72.9533 186.725 72.568C187.394 72.1827 188.142 71.99 188.969 71.99C189.797 71.99 190.539 72.1827 191.196 72.568C191.854 72.9533 192.369 73.4917 192.743 74.183C193.117 74.863 193.304 75.645 193.304 76.529L193.287 76.903ZM188.969 73.027C188.108 73.027 187.383 73.3047 186.793 73.86C186.215 74.404 185.887 75.118 185.807 76.002H192.148C192.069 75.118 191.735 74.404 191.145 73.86C190.567 73.3047 189.842 73.027 188.969 73.027ZM196.917 73.809C197.2 73.2083 197.62 72.755 198.175 72.449C198.742 72.143 199.439 71.99 200.266 71.99V73.163L199.977 73.146C199.036 73.146 198.3 73.435 197.767 74.013C197.234 74.591 196.968 75.4013 196.968 76.444V81H195.761V72.058H196.917V73.809ZM202.537 81.085C202.288 81.085 202.073 80.9943 201.891 80.813C201.721 80.6317 201.636 80.4107 201.636 80.15C201.636 79.8893 201.721 79.674 201.891 79.504C202.073 79.3227 202.288 79.232 202.537 79.232C202.787 79.232 203.002 79.3227 203.183 79.504C203.365 79.674 203.455 79.8893 203.455 80.15C203.455 80.4107 203.365 80.6317 203.183 80.813C203.002 80.9943 202.787 81.085 202.537 81.085ZM13.213 102.102C12.533 102.102 11.904 101.955 11.326 101.66C10.748 101.365 10.2777 100.946 9.915 100.402L10.663 99.552C11.3203 100.527 12.176 101.014 13.23 101.014C14.7033 101.014 15.44 100.141 15.44 98.396V91.188H11.088V90.1H16.681V98.345C16.681 99.5917 16.3863 100.532 15.797 101.167C15.219 101.79 14.3577 102.102 13.213 102.102ZM20.3356 89.301C20.5963 89.301 20.8116 89.3917 20.9816 89.573C21.1516 89.743 21.2366 89.9583 21.2366 90.219C21.2366 90.355 21.2139 90.5023 21.1686 90.661C21.1346 90.8083 21.0836 90.984 21.0156 91.188L20.2846 93.534H19.4686L20.0636 91.086C19.8709 91.0293 19.7179 90.9273 19.6046 90.78C19.4913 90.6213 19.4346 90.4343 19.4346 90.219C19.4346 89.947 19.5196 89.726 19.6896 89.556C19.8596 89.386 20.0749 89.301 20.3356 89.301ZM26.7641 92.99C27.9315 92.99 28.8268 93.2847 29.4501 93.874C30.0735 94.452 30.3851 95.3133 30.3851 96.458V102H29.2291V100.606C28.9571 101.071 28.5548 101.433 28.0221 101.694C27.5008 101.955 26.8775 102.085 26.1521 102.085C25.1548 102.085 24.3615 101.847 23.7721 101.371C23.1828 100.895 22.8881 100.266 22.8881 99.484C22.8881 98.7247 23.1601 98.1127 23.7041 97.648C24.2595 97.1833 25.1378 96.951 26.3391 96.951H29.1781V96.407C29.1781 95.6363 28.9628 95.0527 28.5321 94.656C28.1015 94.248 27.4725 94.044 26.6451 94.044C26.0785 94.044 25.5345 94.1403 25.0131 94.333C24.4918 94.5143 24.0441 94.7693 23.6701 95.098L23.1261 94.197C23.5795 93.8117 24.1235 93.517 24.7581 93.313C25.3928 93.0977 26.0615 92.99 26.7641 92.99ZM26.3391 101.133C27.0191 101.133 27.6028 100.98 28.0901 100.674C28.5775 100.357 28.9401 99.9033 29.1781 99.314V97.852H26.3731C24.8431 97.852 24.0781 98.3847 24.0781 99.45C24.0781 99.9713 24.2765 100.385 24.6731 100.691C25.0698 100.986 25.6251 101.133 26.3391 101.133ZM33.6635 93.058H34.8705V102H33.6635V93.058ZM34.2755 91.103C34.0261 91.103 33.8165 91.018 33.6465 90.848C33.4765 90.678 33.3915 90.474 33.3915 90.236C33.3915 90.0093 33.4765 89.811 33.6465 89.641C33.8165 89.471 34.0261 89.386 34.2755 89.386C34.5248 89.386 34.7345 89.471 34.9045 89.641C35.0745 89.7997 35.1595 89.9923 35.1595 90.219C35.1595 90.4683 35.0745 90.678 34.9045 90.848C34.7345 91.018 34.5248 91.103 34.2755 91.103ZM50.1921 93.058L46.2141 102H44.9731L41.0121 93.058H42.2701L45.6191 100.674L49.0021 93.058H50.1921ZM59.429 97.903H51.949C52.017 98.8323 52.374 99.586 53.02 100.164C53.666 100.731 54.482 101.014 55.468 101.014C56.0233 101.014 56.5333 100.918 56.998 100.725C57.4626 100.521 57.865 100.226 58.205 99.841L58.885 100.623C58.4883 101.099 57.9896 101.462 57.389 101.711C56.7996 101.96 56.148 102.085 55.434 102.085C54.516 102.085 53.7 101.892 52.986 101.507C52.2833 101.11 51.7336 100.566 51.337 99.875C50.9403 99.1837 50.742 98.4017 50.742 97.529C50.742 96.6563 50.929 95.8743 51.303 95.183C51.6883 94.4917 52.2096 93.9533 52.867 93.568C53.5356 93.1827 54.2836 92.99 55.111 92.99C55.9383 92.99 56.6806 93.1827 57.338 93.568C57.9953 93.9533 58.511 94.4917 58.885 95.183C59.259 95.863 59.446 96.645 59.446 97.529L59.429 97.903ZM55.111 94.027C54.2496 94.027 53.5243 94.3047 52.935 94.86C52.357 95.404 52.0283 96.118 51.949 97.002H58.29C58.2106 96.118 57.8763 95.404 57.287 94.86C56.709 94.3047 55.9836 94.027 55.111 94.027ZM56.335 89.556H57.95L55.196 91.664H54.006L56.335 89.556ZM65.6087 102.085C64.7247 102.085 63.9314 101.892 63.2287 101.507C62.5374 101.122 61.9934 100.583 61.5967 99.892C61.2001 99.1893 61.0017 98.4017 61.0017 97.529C61.0017 96.6563 61.2001 95.8743 61.5967 95.183C61.9934 94.4917 62.5374 93.9533 63.2287 93.568C63.9314 93.1827 64.7247 92.99 65.6087 92.99C66.3794 92.99 67.0651 93.143 67.6657 93.449C68.2777 93.7437 68.7594 94.18 69.1107 94.758L68.2097 95.37C67.9151 94.928 67.5411 94.5993 67.0877 94.384C66.6344 94.1573 66.1414 94.044 65.6087 94.044C64.9627 94.044 64.3791 94.1913 63.8577 94.486C63.3477 94.7693 62.9454 95.1773 62.6507 95.71C62.3674 96.2427 62.2257 96.849 62.2257 97.529C62.2257 98.2203 62.3674 98.8323 62.6507 99.365C62.9454 99.8863 63.3477 100.294 63.8577 100.589C64.3791 100.872 64.9627 101.014 65.6087 101.014C66.1414 101.014 66.6344 100.906 67.0877 100.691C67.5411 100.476 67.9151 100.147 68.2097 99.705L69.1107 100.317C68.7594 100.895 68.2777 101.337 67.6657 101.643C67.0537 101.938 66.3681 102.085 65.6087 102.085ZM79.5398 93.058V102H78.3838V100.368C78.0665 100.912 77.6302 101.337 77.0748 101.643C76.5195 101.938 75.8848 102.085 75.1708 102.085C74.0035 102.085 73.0798 101.762 72.3998 101.116C71.7312 100.459 71.3968 99.501 71.3968 98.243V93.058H72.6038V98.124C72.6038 99.0647 72.8362 99.7787 73.3008 100.266C73.7655 100.753 74.4285 100.997 75.2898 100.997C76.2305 100.997 76.9728 100.714 77.5168 100.147C78.0608 99.569 78.3328 98.77 78.3328 97.75V93.058H79.5398ZM90.4975 92.99C91.6649 92.99 92.5602 93.2847 93.1835 93.874C93.8069 94.452 94.1185 95.3133 94.1185 96.458V102H92.9625V100.606C92.6905 101.071 92.2882 101.433 91.7555 101.694C91.2342 101.955 90.6109 102.085 89.8855 102.085C88.8882 102.085 88.0949 101.847 87.5055 101.371C86.9162 100.895 86.6215 100.266 86.6215 99.484C86.6215 98.7247 86.8935 98.1127 87.4375 97.648C87.9929 97.1833 88.8712 96.951 90.0725 96.951H92.9115V96.407C92.9115 95.6363 92.6962 95.0527 92.2655 94.656C91.8349 94.248 91.2059 94.044 90.3785 94.044C89.8119 94.044 89.2679 94.1403 88.7465 94.333C88.2252 94.5143 87.7775 94.7693 87.4035 95.098L86.8595 94.197C87.3129 93.8117 87.8569 93.517 88.4915 93.313C89.1262 93.0977 89.7949 92.99 90.4975 92.99ZM90.0725 101.133C90.7525 101.133 91.3362 100.98 91.8235 100.674C92.3109 100.357 92.6735 99.9033 92.9115 99.314V97.852H90.1065C88.5765 97.852 87.8115 98.3847 87.8115 99.45C87.8115 99.9713 88.0099 100.385 88.4065 100.691C88.8032 100.986 89.3585 101.133 90.0725 101.133ZM87.6925 89.556H89.3075L91.6365 91.664H90.4465L87.6925 89.556ZM112.046 90.1V102H111.009L103.359 92.344V102H102.101V90.1H103.138L110.805 99.756V90.1H112.046ZM118.803 92.99C119.971 92.99 120.866 93.2847 121.489 93.874C122.113 94.452 122.424 95.3133 122.424 96.458V102H121.268V100.606C120.996 101.071 120.594 101.433 120.061 101.694C119.54 101.955 118.917 102.085 118.191 102.085C117.194 102.085 116.401 101.847 115.811 101.371C115.222 100.895 114.927 100.266 114.927 99.484C114.927 98.7247 115.199 98.1127 115.743 97.648C116.299 97.1833 117.177 96.951 118.378 96.951H121.217V96.407C121.217 95.6363 121.002 95.0527 120.571 94.656C120.141 94.248 119.512 94.044 118.684 94.044C118.118 94.044 117.574 94.1403 117.052 94.333C116.531 94.5143 116.083 94.7693 115.709 95.098L115.165 94.197C115.619 93.8117 116.163 93.517 116.797 93.313C117.432 93.0977 118.101 92.99 118.803 92.99ZM118.378 101.133C119.058 101.133 119.642 100.98 120.129 100.674C120.617 100.357 120.979 99.9033 121.217 99.314V97.852H118.412C116.882 97.852 116.117 98.3847 116.117 99.45C116.117 99.9713 116.316 100.385 116.712 100.691C117.109 100.986 117.664 101.133 118.378 101.133ZM130.259 92.99C131.381 92.99 132.27 93.3187 132.928 93.976C133.596 94.622 133.931 95.5683 133.931 96.815V102H132.724V96.934C132.724 96.0047 132.491 95.2963 132.027 94.809C131.562 94.3217 130.899 94.078 130.038 94.078C129.074 94.078 128.309 94.367 127.743 94.945C127.187 95.5117 126.91 96.2993 126.91 97.308V102H125.703V93.058H126.859V94.707C127.187 94.163 127.641 93.7437 128.219 93.449C128.808 93.143 129.488 92.99 130.259 92.99ZM141.916 101.456C141.69 101.66 141.406 101.819 141.066 101.932C140.738 102.034 140.392 102.085 140.029 102.085C139.191 102.085 138.545 101.858 138.091 101.405C137.638 100.952 137.411 100.311 137.411 99.484V94.078H135.813V93.058H137.411V91.103H138.618V93.058H141.338V94.078H138.618V99.416C138.618 99.9487 138.749 100.357 139.009 100.64C139.281 100.912 139.667 101.048 140.165 101.048C140.415 101.048 140.653 101.008 140.879 100.929C141.117 100.85 141.321 100.736 141.491 100.589L141.916 101.456ZM151.584 97.903H144.104C144.172 98.8323 144.529 99.586 145.175 100.164C145.821 100.731 146.637 101.014 147.623 101.014C148.179 101.014 148.689 100.918 149.153 100.725C149.618 100.521 150.02 100.226 150.36 99.841L151.04 100.623C150.644 101.099 150.145 101.462 149.544 101.711C148.955 101.96 148.303 102.085 147.589 102.085C146.671 102.085 145.855 101.892 145.141 101.507C144.439 101.11 143.889 100.566 143.492 99.875C143.096 99.1837 142.897 98.4017 142.897 97.529C142.897 96.6563 143.084 95.8743 143.458 95.183C143.844 94.4917 144.365 93.9533 145.022 93.568C145.691 93.1827 146.439 92.99 147.266 92.99C148.094 92.99 148.836 93.1827 149.493 93.568C150.151 93.9533 150.666 94.4917 151.04 95.183C151.414 95.863 151.601 96.645 151.601 97.529L151.584 97.903ZM147.266 94.027C146.405 94.027 145.68 94.3047 145.09 94.86C144.512 95.404 144.184 96.118 144.104 97.002H150.445C150.366 96.118 150.032 95.404 149.442 94.86C148.864 94.3047 148.139 94.027 147.266 94.027ZM156.455 102.085C155.73 102.085 155.033 101.983 154.364 101.779C153.707 101.564 153.191 101.297 152.817 100.98L153.361 100.028C153.735 100.323 154.205 100.566 154.772 100.759C155.339 100.94 155.928 101.031 156.54 101.031C157.356 101.031 157.957 100.906 158.342 100.657C158.739 100.396 158.937 100.034 158.937 99.569C158.937 99.2403 158.829 98.9853 158.614 98.804C158.399 98.6113 158.127 98.4697 157.798 98.379C157.469 98.277 157.033 98.1807 156.489 98.09C155.764 97.954 155.18 97.818 154.738 97.682C154.296 97.5347 153.916 97.291 153.599 96.951C153.293 96.611 153.14 96.1407 153.14 95.54C153.14 94.792 153.452 94.18 154.075 93.704C154.698 93.228 155.565 92.99 156.676 92.99C157.254 92.99 157.832 93.0693 158.41 93.228C158.988 93.3753 159.464 93.5737 159.838 93.823L159.311 94.792C158.574 94.282 157.696 94.027 156.676 94.027C155.905 94.027 155.322 94.163 154.925 94.435C154.54 94.707 154.347 95.064 154.347 95.506C154.347 95.846 154.455 96.118 154.67 96.322C154.897 96.526 155.174 96.679 155.503 96.781C155.832 96.8717 156.285 96.968 156.863 97.07C157.577 97.206 158.149 97.342 158.58 97.478C159.011 97.614 159.379 97.8463 159.685 98.175C159.991 98.5037 160.144 98.957 160.144 99.535C160.144 100.317 159.815 100.94 159.158 101.405C158.512 101.858 157.611 102.085 156.455 102.085ZM171.534 101.456C171.307 101.66 171.024 101.819 170.684 101.932C170.355 102.034 170.009 102.085 169.647 102.085C168.808 102.085 168.162 101.858 167.709 101.405C167.255 100.952 167.029 100.311 167.029 99.484V94.078H165.431V93.058H167.029V91.103H168.236V93.058H170.956V94.078H168.236V99.416C168.236 99.9487 168.366 100.357 168.627 100.64C168.899 100.912 169.284 101.048 169.783 101.048C170.032 101.048 170.27 101.008 170.497 100.929C170.735 100.85 170.939 100.736 171.109 100.589L171.534 101.456ZM177.07 102.085C176.209 102.085 175.433 101.892 174.741 101.507C174.05 101.11 173.506 100.566 173.109 99.875C172.713 99.1837 172.514 98.4017 172.514 97.529C172.514 96.6563 172.713 95.8743 173.109 95.183C173.506 94.4917 174.05 93.9533 174.741 93.568C175.433 93.1827 176.209 92.99 177.07 92.99C177.932 92.99 178.708 93.1827 179.399 93.568C180.091 93.9533 180.629 94.4917 181.014 95.183C181.411 95.8743 181.609 96.6563 181.609 97.529C181.609 98.4017 181.411 99.1837 181.014 99.875C180.629 100.566 180.091 101.11 179.399 101.507C178.708 101.892 177.932 102.085 177.07 102.085ZM177.07 101.014C177.705 101.014 178.272 100.872 178.77 100.589C179.28 100.294 179.677 99.8807 179.96 99.348C180.244 98.8153 180.385 98.209 180.385 97.529C180.385 96.849 180.244 96.2427 179.96 95.71C179.677 95.1773 179.28 94.7693 178.77 94.486C178.272 94.1913 177.705 94.044 177.07 94.044C176.436 94.044 175.863 94.1913 175.353 94.486C174.855 94.7693 174.458 95.1773 174.163 95.71C173.88 96.2427 173.738 96.849 173.738 97.529C173.738 98.209 173.88 98.8153 174.163 99.348C174.458 99.8807 174.855 100.294 175.353 100.589C175.863 100.872 176.436 101.014 177.07 101.014ZM192.132 93.058V102H190.976V100.368C190.658 100.912 190.222 101.337 189.667 101.643C189.111 101.938 188.477 102.085 187.763 102.085C186.595 102.085 185.672 101.762 184.992 101.116C184.323 100.459 183.989 99.501 183.989 98.243V93.058H185.196V98.124C185.196 99.0647 185.428 99.7787 185.893 100.266C186.357 100.753 187.02 100.997 187.882 100.997C188.822 100.997 189.565 100.714 190.109 100.147C190.653 99.569 190.925 98.77 190.925 97.75V93.058H192.132ZM200.221 101.456C199.994 101.66 199.711 101.819 199.371 101.932C199.042 102.034 198.697 102.085 198.334 102.085C197.495 102.085 196.849 101.858 196.396 101.405C195.943 100.952 195.716 100.311 195.716 99.484V94.078H194.118V93.058H195.716V91.103H196.923V93.058H199.643V94.078H196.923V99.416C196.923 99.9487 197.053 100.357 197.314 100.64C197.586 100.912 197.971 101.048 198.47 101.048C198.719 101.048 198.957 101.008 199.184 100.929C199.422 100.85 199.626 100.736 199.796 100.589L200.221 101.456ZM209.889 97.903H202.409C202.477 98.8323 202.834 99.586 203.48 100.164C204.126 100.731 204.942 101.014 205.928 101.014C206.483 101.014 206.993 100.918 207.458 100.725C207.923 100.521 208.325 100.226 208.665 99.841L209.345 100.623C208.948 101.099 208.45 101.462 207.849 101.711C207.26 101.96 206.608 102.085 205.894 102.085C204.976 102.085 204.16 101.892 203.446 101.507C202.743 101.11 202.194 100.566 201.797 99.875C201.4 99.1837 201.202 98.4017 201.202 97.529C201.202 96.6563 201.389 95.8743 201.763 95.183C202.148 94.4917 202.67 93.9533 203.327 93.568C203.996 93.1827 204.744 92.99 205.571 92.99C206.398 92.99 207.141 93.1827 207.798 93.568C208.455 93.9533 208.971 94.4917 209.345 95.183C209.719 95.863 209.906 96.645 209.906 97.529L209.889 97.903ZM205.571 94.027C204.71 94.027 203.984 94.3047 203.395 94.86C202.817 95.404 202.488 96.118 202.409 97.002H208.75C208.671 96.118 208.336 95.404 207.747 94.86C207.169 94.3047 206.444 94.027 205.571 94.027ZM227.964 92.99C229.086 92.99 229.964 93.313 230.599 93.959C231.245 94.605 231.568 95.557 231.568 96.815V102H230.361V96.934C230.361 96.0047 230.134 95.2963 229.681 94.809C229.239 94.3217 228.61 94.078 227.794 94.078C226.865 94.078 226.134 94.367 225.601 94.945C225.068 95.5117 224.802 96.2993 224.802 97.308V102H223.595V96.934C223.595 96.0047 223.368 95.2963 222.915 94.809C222.473 94.3217 221.838 94.078 221.011 94.078C220.093 94.078 219.362 94.367 218.818 94.945C218.285 95.5117 218.019 96.2993 218.019 97.308V102H216.812V93.058H217.968V94.69C218.285 94.146 218.727 93.7267 219.294 93.432C219.861 93.1373 220.512 92.99 221.249 92.99C221.997 92.99 222.643 93.1487 223.187 93.466C223.742 93.7833 224.156 94.2537 224.428 94.877C224.757 94.2877 225.227 93.8287 225.839 93.5C226.462 93.16 227.171 92.99 227.964 92.99ZM237.969 92.99C239.137 92.99 240.032 93.2847 240.655 93.874C241.279 94.452 241.59 95.3133 241.59 96.458V102H240.434V100.606C240.162 101.071 239.76 101.433 239.227 101.694C238.706 101.955 238.083 102.085 237.357 102.085C236.36 102.085 235.567 101.847 234.977 101.371C234.388 100.895 234.093 100.266 234.093 99.484C234.093 98.7247 234.365 98.1127 234.909 97.648C235.465 97.1833 236.343 96.951 237.544 96.951H240.383V96.407C240.383 95.6363 240.168 95.0527 239.737 94.656C239.307 94.248 238.678 94.044 237.85 94.044C237.284 94.044 236.74 94.1403 236.218 94.333C235.697 94.5143 235.249 94.7693 234.875 95.098L234.331 94.197C234.785 93.8117 235.329 93.517 235.963 93.313C236.598 93.0977 237.267 92.99 237.969 92.99ZM237.544 101.133C238.224 101.133 238.808 100.98 239.295 100.674C239.783 100.357 240.145 99.9033 240.383 99.314V97.852H237.578C236.048 97.852 235.283 98.3847 235.283 99.45C235.283 99.9713 235.482 100.385 235.878 100.691C236.275 100.986 236.83 101.133 237.544 101.133ZM256.832 93.058L252.854 102H251.613L247.652 93.058H248.91L252.259 100.674L255.642 93.058H256.832ZM258.532 93.058H259.739V102H258.532V93.058ZM259.144 91.103C258.894 91.103 258.685 91.018 258.515 90.848C258.345 90.678 258.26 90.474 258.26 90.236C258.26 90.0093 258.345 89.811 258.515 89.641C258.685 89.471 258.894 89.386 259.144 89.386C259.393 89.386 259.603 89.471 259.773 89.641C259.943 89.7997 260.028 89.9923 260.028 90.219C260.028 90.4683 259.943 90.678 259.773 90.848C259.603 91.018 259.393 91.103 259.144 91.103ZM270.883 97.903H263.403C263.471 98.8323 263.828 99.586 264.474 100.164C265.12 100.731 265.936 101.014 266.922 101.014C267.477 101.014 267.987 100.918 268.452 100.725C268.917 100.521 269.319 100.226 269.659 99.841L270.339 100.623C269.942 101.099 269.444 101.462 268.843 101.711C268.254 101.96 267.602 102.085 266.888 102.085C265.97 102.085 265.154 101.892 264.44 101.507C263.737 101.11 263.188 100.566 262.791 99.875C262.394 99.1837 262.196 98.4017 262.196 97.529C262.196 96.6563 262.383 95.8743 262.757 95.183C263.142 94.4917 263.664 93.9533 264.321 93.568C264.99 93.1827 265.738 92.99 266.565 92.99C267.392 92.99 268.135 93.1827 268.792 93.568C269.449 93.9533 269.965 94.4917 270.339 95.183C270.713 95.863 270.9 96.645 270.9 97.529L270.883 97.903ZM266.565 94.027C265.704 94.027 264.978 94.3047 264.389 94.86C263.811 95.404 263.482 96.118 263.403 97.002H269.744C269.665 96.118 269.33 95.404 268.741 94.86C268.163 94.3047 267.438 94.027 266.565 94.027ZM273.476 102.085C273.226 102.085 273.011 101.994 272.83 101.813C272.66 101.632 272.575 101.411 272.575 101.15C272.575 100.889 272.66 100.674 272.83 100.504C273.011 100.323 273.226 100.232 273.476 100.232C273.725 100.232 273.94 100.323 274.122 100.504C274.303 100.674 274.394 100.889 274.394 101.15C274.394 101.411 274.303 101.632 274.122 101.813C273.94 101.994 273.725 102.085 273.476 102.085ZM19.401 119.821H12.771L11.343 123H10.034L15.474 111.1H16.715L22.155 123H20.829L19.401 119.821ZM18.942 118.801L16.086 112.409L13.23 118.801H18.942ZM30.9343 114.058L26.9563 123H25.7153L21.7543 114.058H23.0123L26.3613 121.674L29.7443 114.058H30.9343ZM40.1711 118.903H32.6911C32.7591 119.832 33.1161 120.586 33.7621 121.164C34.4081 121.731 35.2241 122.014 36.2101 122.014C36.7655 122.014 37.2755 121.918 37.7401 121.725C38.2048 121.521 38.6071 121.226 38.9471 120.841L39.6271 121.623C39.2305 122.099 38.7318 122.462 38.1311 122.711C37.5418 122.96 36.8901 123.085 36.1761 123.085C35.2581 123.085 34.4421 122.892 33.7281 122.507C33.0255 122.11 32.4758 121.566 32.0791 120.875C31.6825 120.184 31.4841 119.402 31.4841 118.529C31.4841 117.656 31.6711 116.874 32.0451 116.183C32.4305 115.492 32.9518 114.953 33.6091 114.568C34.2778 114.183 35.0258 113.99 35.8531 113.99C36.6805 113.99 37.4228 114.183 38.0801 114.568C38.7375 114.953 39.2531 115.492 39.6271 116.183C40.0011 116.863 40.1881 117.645 40.1881 118.529L40.1711 118.903ZM35.8531 115.027C34.9918 115.027 34.2665 115.305 33.6771 115.86C33.0991 116.404 32.7705 117.118 32.6911 118.002H39.0321C38.9528 117.118 38.6185 116.404 38.0291 115.86C37.4511 115.305 36.7258 115.027 35.8531 115.027ZM48.8689 121.997V123H41.5929V122.201L47.2199 115.078H41.6949V114.058H48.7669V114.857L43.1399 121.997H48.8689ZM50.3491 117.866H54.8031V118.92H50.3491V117.866ZM64.8181 114.058L60.8401 123H59.5991L55.6381 114.058H56.8961L60.2451 121.674L63.6281 114.058H64.8181ZM69.9239 123.085C69.0626 123.085 68.2863 122.892 67.5949 122.507C66.9036 122.11 66.3596 121.566 65.9629 120.875C65.5663 120.184 65.3679 119.402 65.3679 118.529C65.3679 117.656 65.5663 116.874 65.9629 116.183C66.3596 115.492 66.9036 114.953 67.5949 114.568C68.2863 114.183 69.0626 113.99 69.9239 113.99C70.7853 113.99 71.5616 114.183 72.2529 114.568C72.9443 114.953 73.4826 115.492 73.8679 116.183C74.2646 116.874 74.4629 117.656 74.4629 118.529C74.4629 119.402 74.2646 120.184 73.8679 120.875C73.4826 121.566 72.9443 122.11 72.2529 122.507C71.5616 122.892 70.7853 123.085 69.9239 123.085ZM69.9239 122.014C70.5586 122.014 71.1253 121.872 71.6239 121.589C72.1339 121.294 72.5306 120.881 72.8139 120.348C73.0973 119.815 73.2389 119.209 73.2389 118.529C73.2389 117.849 73.0973 117.243 72.8139 116.71C72.5306 116.177 72.1339 115.769 71.6239 115.486C71.1253 115.191 70.5586 115.044 69.9239 115.044C69.2893 115.044 68.7169 115.191 68.2069 115.486C67.7083 115.769 67.3116 116.177 67.0169 116.71C66.7336 117.243 66.5919 117.849 66.5919 118.529C66.5919 119.209 66.7336 119.815 67.0169 120.348C67.3116 120.881 67.7083 121.294 68.2069 121.589C68.7169 121.872 69.2893 122.014 69.9239 122.014ZM84.9851 114.058V123H83.8291V121.368C83.5118 121.912 83.0755 122.337 82.5201 122.643C81.9648 122.938 81.3301 123.085 80.6161 123.085C79.4488 123.085 78.5251 122.762 77.8451 122.116C77.1765 121.459 76.8421 120.501 76.8421 119.243V114.058H78.0491V119.124C78.0491 120.065 78.2815 120.779 78.7461 121.266C79.2108 121.753 79.8738 121.997 80.7351 121.997C81.6758 121.997 82.4181 121.714 82.9621 121.147C83.5061 120.569 83.7781 119.77 83.7781 118.75V114.058H84.9851ZM90.7626 123.085C90.0373 123.085 89.3403 122.983 88.6716 122.779C88.0143 122.564 87.4986 122.297 87.1246 121.98L87.6686 121.028C88.0426 121.323 88.513 121.566 89.0796 121.759C89.6463 121.94 90.2356 122.031 90.8476 122.031C91.6636 122.031 92.2643 121.906 92.6496 121.657C93.0463 121.396 93.2446 121.034 93.2446 120.569C93.2446 120.24 93.137 119.985 92.9216 119.804C92.7063 119.611 92.4343 119.47 92.1056 119.379C91.777 119.277 91.3406 119.181 90.7966 119.09C90.0713 118.954 89.4876 118.818 89.0456 118.682C88.6036 118.535 88.224 118.291 87.9066 117.951C87.6006 117.611 87.4476 117.141 87.4476 116.54C87.4476 115.792 87.7593 115.18 88.3826 114.704C89.006 114.228 89.873 113.99 90.9836 113.99C91.5616 113.99 92.1396 114.069 92.7176 114.228C93.2956 114.375 93.7716 114.574 94.1456 114.823L93.6186 115.792C92.882 115.282 92.0036 115.027 90.9836 115.027C90.213 115.027 89.6293 115.163 89.2326 115.435C88.8473 115.707 88.6546 116.064 88.6546 116.506C88.6546 116.846 88.7623 117.118 88.9776 117.322C89.2043 117.526 89.482 117.679 89.8106 117.781C90.1393 117.872 90.5926 117.968 91.1706 118.07C91.8846 118.206 92.457 118.342 92.8876 118.478C93.3183 118.614 93.6866 118.846 93.9926 119.175C94.2986 119.504 94.4516 119.957 94.4516 120.535C94.4516 121.317 94.123 121.94 93.4656 122.405C92.8196 122.858 91.9186 123.085 90.7626 123.085ZM105.841 122.456C105.615 122.66 105.331 122.819 104.991 122.932C104.663 123.034 104.317 123.085 103.954 123.085C103.116 123.085 102.47 122.858 102.016 122.405C101.563 121.952 101.336 121.311 101.336 120.484V115.078H99.7382V114.058H101.336V112.103H102.543V114.058H105.263V115.078H102.543V120.416C102.543 120.949 102.674 121.357 102.934 121.64C103.206 121.912 103.592 122.048 104.09 122.048C104.34 122.048 104.578 122.008 104.804 121.929C105.042 121.85 105.246 121.736 105.416 121.589L105.841 122.456ZM111.378 123.085C110.517 123.085 109.74 122.892 109.049 122.507C108.358 122.11 107.814 121.566 107.417 120.875C107.02 120.184 106.822 119.402 106.822 118.529C106.822 117.656 107.02 116.874 107.417 116.183C107.814 115.492 108.358 114.953 109.049 114.568C109.74 114.183 110.517 113.99 111.378 113.99C112.239 113.99 113.016 114.183 113.707 114.568C114.398 114.953 114.937 115.492 115.322 116.183C115.719 116.874 115.917 117.656 115.917 118.529C115.917 119.402 115.719 120.184 115.322 120.875C114.937 121.566 114.398 122.11 113.707 122.507C113.016 122.892 112.239 123.085 111.378 123.085ZM111.378 122.014C112.013 122.014 112.579 121.872 113.078 121.589C113.588 121.294 113.985 120.881 114.268 120.348C114.551 119.815 114.693 119.209 114.693 118.529C114.693 117.849 114.551 117.243 114.268 116.71C113.985 116.177 113.588 115.769 113.078 115.486C112.579 115.191 112.013 115.044 111.378 115.044C110.743 115.044 110.171 115.191 109.661 115.486C109.162 115.769 108.766 116.177 108.471 116.71C108.188 117.243 108.046 117.849 108.046 118.529C108.046 119.209 108.188 119.815 108.471 120.348C108.766 120.881 109.162 121.294 109.661 121.589C110.171 121.872 110.743 122.014 111.378 122.014ZM126.439 114.058V123H125.283V121.368C124.966 121.912 124.53 122.337 123.974 122.643C123.419 122.938 122.784 123.085 122.07 123.085C120.903 123.085 119.979 122.762 119.299 122.116C118.631 121.459 118.296 120.501 118.296 119.243V114.058H119.503V119.124C119.503 120.065 119.736 120.779 120.2 121.266C120.665 121.753 121.328 121.997 122.189 121.997C123.13 121.997 123.872 121.714 124.416 121.147C124.96 120.569 125.232 119.77 125.232 118.75V114.058H126.439ZM134.529 122.456C134.302 122.66 134.019 122.819 133.679 122.932C133.35 123.034 133.004 123.085 132.642 123.085C131.803 123.085 131.157 122.858 130.704 122.405C130.25 121.952 130.024 121.311 130.024 120.484V115.078H128.426V114.058H130.024V112.103H131.231V114.058H133.951V115.078H131.231V120.416C131.231 120.949 131.361 121.357 131.622 121.64C131.894 121.912 132.279 122.048 132.778 122.048C133.027 122.048 133.265 122.008 133.492 121.929C133.73 121.85 133.934 121.736 134.104 121.589L134.529 122.456ZM149.335 110.386V123H148.179V121.232C147.817 121.833 147.335 122.292 146.734 122.609C146.145 122.926 145.476 123.085 144.728 123.085C143.89 123.085 143.13 122.892 142.45 122.507C141.77 122.122 141.238 121.583 140.852 120.892C140.467 120.201 140.274 119.413 140.274 118.529C140.274 117.645 140.467 116.857 140.852 116.166C141.238 115.475 141.77 114.942 142.45 114.568C143.13 114.183 143.89 113.99 144.728 113.99C145.454 113.99 146.105 114.143 146.683 114.449C147.273 114.744 147.754 115.18 148.128 115.758V110.386H149.335ZM144.83 122.014C145.454 122.014 146.015 121.872 146.513 121.589C147.023 121.294 147.42 120.881 147.703 120.348C147.998 119.815 148.145 119.209 148.145 118.529C148.145 117.849 147.998 117.243 147.703 116.71C147.42 116.177 147.023 115.769 146.513 115.486C146.015 115.191 145.454 115.044 144.83 115.044C144.196 115.044 143.623 115.191 143.113 115.486C142.615 115.769 142.218 116.177 141.923 116.71C141.64 117.243 141.498 117.849 141.498 118.529C141.498 119.209 141.64 119.815 141.923 120.348C142.218 120.881 142.615 121.294 143.113 121.589C143.623 121.872 144.196 122.014 144.83 122.014ZM160.483 118.903H153.003C153.071 119.832 153.428 120.586 154.074 121.164C154.72 121.731 155.536 122.014 156.522 122.014C157.077 122.014 157.587 121.918 158.052 121.725C158.516 121.521 158.919 121.226 159.259 120.841L159.939 121.623C159.542 122.099 159.043 122.462 158.443 122.711C157.853 122.96 157.202 123.085 156.488 123.085C155.57 123.085 154.754 122.892 154.04 122.507C153.337 122.11 152.787 121.566 152.391 120.875C151.994 120.184 151.796 119.402 151.796 118.529C151.796 117.656 151.983 116.874 152.357 116.183C152.742 115.492 153.263 114.953 153.921 114.568C154.589 114.183 155.337 113.99 156.165 113.99C156.992 113.99 157.734 114.183 158.392 114.568C159.049 114.953 159.565 115.492 159.939 116.183C160.313 116.863 160.5 117.645 160.5 118.529L160.483 118.903ZM156.165 115.027C155.303 115.027 154.578 115.305 153.989 115.86C153.411 116.404 153.082 117.118 153.003 118.002H159.344C159.264 117.118 158.93 116.404 158.341 115.86C157.763 115.305 157.037 115.027 156.165 115.027ZM178.558 113.99C179.68 113.99 180.558 114.313 181.193 114.959C181.839 115.605 182.162 116.557 182.162 117.815V123H180.955V117.934C180.955 117.005 180.728 116.296 180.275 115.809C179.833 115.322 179.204 115.078 178.388 115.078C177.458 115.078 176.727 115.367 176.195 115.945C175.662 116.512 175.396 117.299 175.396 118.308V123H174.189V117.934C174.189 117.005 173.962 116.296 173.509 115.809C173.067 115.322 172.432 115.078 171.605 115.078C170.687 115.078 169.956 115.367 169.412 115.945C168.879 116.512 168.613 117.299 168.613 118.308V123H167.406V114.058H168.562V115.69C168.879 115.146 169.321 114.727 169.888 114.432C170.454 114.137 171.106 113.99 171.843 113.99C172.591 113.99 173.237 114.149 173.781 114.466C174.336 114.783 174.75 115.254 175.022 115.877C175.35 115.288 175.821 114.829 176.433 114.5C177.056 114.16 177.764 113.99 178.558 113.99ZM193.254 118.903H185.774C185.842 119.832 186.199 120.586 186.845 121.164C187.491 121.731 188.307 122.014 189.293 122.014C189.848 122.014 190.358 121.918 190.823 121.725C191.288 121.521 191.69 121.226 192.03 120.841L192.71 121.623C192.313 122.099 191.815 122.462 191.214 122.711C190.625 122.96 189.973 123.085 189.259 123.085C188.341 123.085 187.525 122.892 186.811 122.507C186.108 122.11 185.559 121.566 185.162 120.875C184.765 120.184 184.567 119.402 184.567 118.529C184.567 117.656 184.754 116.874 185.128 116.183C185.513 115.492 186.035 114.953 186.692 114.568C187.361 114.183 188.109 113.99 188.936 113.99C189.763 113.99 190.506 114.183 191.163 114.568C191.82 114.953 192.336 115.492 192.71 116.183C193.084 116.863 193.271 117.645 193.271 118.529L193.254 118.903ZM188.936 115.027C188.075 115.027 187.349 115.305 186.76 115.86C186.182 116.404 185.853 117.118 185.774 118.002H192.115C192.036 117.118 191.701 116.404 191.112 115.86C190.534 115.305 189.809 115.027 188.936 115.027ZM190.619 112.664L188.936 111.253L187.253 112.664H186.131L188.324 110.556H189.548L191.741 112.664H190.619ZM206.88 113.99C208.002 113.99 208.88 114.313 209.515 114.959C210.161 115.605 210.484 116.557 210.484 117.815V123H209.277V117.934C209.277 117.005 209.05 116.296 208.597 115.809C208.155 115.322 207.526 115.078 206.71 115.078C205.781 115.078 205.05 115.367 204.517 115.945C203.984 116.512 203.718 117.299 203.718 118.308V123H202.511V117.934C202.511 117.005 202.284 116.296 201.831 115.809C201.389 115.322 200.754 115.078 199.927 115.078C199.009 115.078 198.278 115.367 197.734 115.945C197.201 116.512 196.935 117.299 196.935 118.308V123H195.728V114.058H196.884V115.69C197.201 115.146 197.643 114.727 198.21 114.432C198.777 114.137 199.428 113.99 200.165 113.99C200.913 113.99 201.559 114.149 202.103 114.466C202.658 114.783 203.072 115.254 203.344 115.877C203.673 115.288 204.143 114.829 204.755 114.5C205.378 114.16 206.087 113.99 206.88 113.99ZM221.576 118.903H214.096C214.164 119.832 214.521 120.586 215.167 121.164C215.813 121.731 216.629 122.014 217.615 122.014C218.171 122.014 218.681 121.918 219.145 121.725C219.61 121.521 220.012 121.226 220.352 120.841L221.032 121.623C220.636 122.099 220.137 122.462 219.536 122.711C218.947 122.96 218.295 123.085 217.581 123.085C216.663 123.085 215.847 122.892 215.133 122.507C214.431 122.11 213.881 121.566 213.484 120.875C213.088 120.184 212.889 119.402 212.889 118.529C212.889 117.656 213.076 116.874 213.45 116.183C213.836 115.492 214.357 114.953 215.014 114.568C215.683 114.183 216.431 113.99 217.258 113.99C218.086 113.99 218.828 114.183 219.485 114.568C220.143 114.953 220.658 115.492 221.032 116.183C221.406 116.863 221.593 117.645 221.593 118.529L221.576 118.903ZM217.258 115.027C216.397 115.027 215.672 115.305 215.082 115.86C214.504 116.404 214.176 117.118 214.096 118.002H220.437C220.358 117.118 220.024 116.404 219.434 115.86C218.856 115.305 218.131 115.027 217.258 115.027ZM236.659 110.386V123H235.503V121.232C235.141 121.833 234.659 122.292 234.058 122.609C233.469 122.926 232.8 123.085 232.052 123.085C231.214 123.085 230.454 122.892 229.774 122.507C229.094 122.122 228.562 121.583 228.176 120.892C227.791 120.201 227.598 119.413 227.598 118.529C227.598 117.645 227.791 116.857 228.176 116.166C228.562 115.475 229.094 114.942 229.774 114.568C230.454 114.183 231.214 113.99 232.052 113.99C232.778 113.99 233.429 114.143 234.007 114.449C234.597 114.744 235.078 115.18 235.452 115.758V110.386H236.659ZM232.154 122.014C232.778 122.014 233.339 121.872 233.837 121.589C234.347 121.294 234.744 120.881 235.027 120.348C235.322 119.815 235.469 119.209 235.469 118.529C235.469 117.849 235.322 117.243 235.027 116.71C234.744 116.177 234.347 115.769 233.837 115.486C233.339 115.191 232.778 115.044 232.154 115.044C231.52 115.044 230.947 115.191 230.437 115.486C229.939 115.769 229.542 116.177 229.247 116.71C228.964 117.243 228.822 117.849 228.822 118.529C228.822 119.209 228.964 119.815 229.247 120.348C229.542 120.881 229.939 121.294 230.437 121.589C230.947 121.872 231.52 122.014 232.154 122.014ZM247.807 118.903H240.327C240.395 119.832 240.752 120.586 241.398 121.164C242.044 121.731 242.86 122.014 243.846 122.014C244.401 122.014 244.911 121.918 245.376 121.725C245.841 121.521 246.243 121.226 246.583 120.841L247.263 121.623C246.866 122.099 246.368 122.462 245.767 122.711C245.178 122.96 244.526 123.085 243.812 123.085C242.894 123.085 242.078 122.892 241.364 122.507C240.661 122.11 240.112 121.566 239.715 120.875C239.318 120.184 239.12 119.402 239.12 118.529C239.12 117.656 239.307 116.874 239.681 116.183C240.066 115.492 240.588 114.953 241.245 114.568C241.914 114.183 242.662 113.99 243.489 113.99C244.316 113.99 245.059 114.183 245.716 114.568C246.373 114.953 246.889 115.492 247.263 116.183C247.637 116.863 247.824 117.645 247.824 118.529L247.807 118.903ZM243.489 115.027C242.628 115.027 241.902 115.305 241.313 115.86C240.735 116.404 240.406 117.118 240.327 118.002H246.668C246.589 117.118 246.254 116.404 245.665 115.86C245.087 115.305 244.362 115.027 243.489 115.027ZM252.678 123.085C251.952 123.085 251.255 122.983 250.587 122.779C249.929 122.564 249.414 122.297 249.04 121.98L249.584 121.028C249.958 121.323 250.428 121.566 250.995 121.759C251.561 121.94 252.151 122.031 252.763 122.031C253.579 122.031 254.179 121.906 254.565 121.657C254.961 121.396 255.16 121.034 255.16 120.569C255.16 120.24 255.052 119.985 254.837 119.804C254.621 119.611 254.349 119.47 254.021 119.379C253.692 119.277 253.256 119.181 252.712 119.09C251.986 118.954 251.403 118.818 250.961 118.682C250.519 118.535 250.139 118.291 249.822 117.951C249.516 117.611 249.363 117.141 249.363 116.54C249.363 115.792 249.674 115.18 250.298 114.704C250.921 114.228 251.788 113.99 252.899 113.99C253.477 113.99 254.055 114.069 254.633 114.228C255.211 114.375 255.687 114.574 256.061 114.823L255.534 115.792C254.797 115.282 253.919 115.027 252.899 115.027C252.128 115.027 251.544 115.163 251.148 115.435C250.762 115.707 250.57 116.064 250.57 116.506C250.57 116.846 250.677 117.118 250.893 117.322C251.119 117.526 251.397 117.679 251.726 117.781C252.054 117.872 252.508 117.968 253.086 118.07C253.8 118.206 254.372 118.342 254.803 118.478C255.233 118.614 255.602 118.846 255.908 119.175C256.214 119.504 256.367 119.957 256.367 120.535C256.367 121.317 256.038 121.94 255.381 122.405C254.735 122.858 253.834 123.085 252.678 123.085ZM14.811 134.99C15.9783 134.99 16.8737 135.285 17.497 135.874C18.1203 136.452 18.432 137.313 18.432 138.458V144H17.276V142.606C17.004 143.071 16.6017 143.433 16.069 143.694C15.5477 143.955 14.9243 144.085 14.199 144.085C13.2017 144.085 12.4083 143.847 11.819 143.371C11.2297 142.895 10.935 142.266 10.935 141.484C10.935 140.725 11.207 140.113 11.751 139.648C12.3063 139.183 13.1847 138.951 14.386 138.951H17.225V138.407C17.225 137.636 17.0097 137.053 16.579 136.656C16.1483 136.248 15.5193 136.044 14.692 136.044C14.1253 136.044 13.5813 136.14 13.06 136.333C12.5387 136.514 12.091 136.769 11.717 137.098L11.173 136.197C11.6263 135.812 12.1703 135.517 12.805 135.313C13.4397 135.098 14.1083 134.99 14.811 134.99ZM14.386 143.133C15.066 143.133 15.6497 142.98 16.137 142.674C16.6243 142.357 16.987 141.903 17.225 141.314V139.852H14.42C12.89 139.852 12.125 140.385 12.125 141.45C12.125 141.971 12.3233 142.385 12.72 142.691C13.1167 142.986 13.672 143.133 14.386 143.133ZM29.9035 131.386V144H28.7475V142.232C28.3849 142.833 27.9032 143.292 27.3025 143.609C26.7132 143.926 26.0445 144.085 25.2965 144.085C24.4579 144.085 23.6985 143.892 23.0185 143.507C22.3385 143.122 21.8059 142.583 21.4205 141.892C21.0352 141.201 20.8425 140.413 20.8425 139.529C20.8425 138.645 21.0352 137.857 21.4205 137.166C21.8059 136.475 22.3385 135.942 23.0185 135.568C23.6985 135.183 24.4579 134.99 25.2965 134.99C26.0219 134.99 26.6735 135.143 27.2515 135.449C27.8409 135.744 28.3225 136.18 28.6965 136.758V131.386H29.9035ZM25.3985 143.014C26.0219 143.014 26.5829 142.872 27.0815 142.589C27.5915 142.294 27.9882 141.881 28.2715 141.348C28.5662 140.815 28.7135 140.209 28.7135 139.529C28.7135 138.849 28.5662 138.243 28.2715 137.71C27.9882 137.177 27.5915 136.769 27.0815 136.486C26.5829 136.191 26.0219 136.044 25.3985 136.044C24.7639 136.044 24.1915 136.191 23.6815 136.486C23.1829 136.769 22.7862 137.177 22.4915 137.71C22.2082 138.243 22.0665 138.849 22.0665 139.529C22.0665 140.209 22.2082 140.815 22.4915 141.348C22.7862 141.881 23.1829 142.294 23.6815 142.589C24.1915 142.872 24.7639 143.014 25.3985 143.014ZM34.421 136.809C34.7044 136.208 35.1237 135.755 35.679 135.449C36.2457 135.143 36.9427 134.99 37.77 134.99V136.163L37.481 136.146C36.5404 136.146 35.8037 136.435 35.271 137.013C34.7384 137.591 34.472 138.401 34.472 139.444V144H33.265V135.058H34.421V136.809ZM47.6585 139.903H40.1785C40.2465 140.832 40.6035 141.586 41.2495 142.164C41.8955 142.731 42.7115 143.014 43.6975 143.014C44.2528 143.014 44.7628 142.918 45.2275 142.725C45.6921 142.521 46.0945 142.226 46.4345 141.841L47.1145 142.623C46.7178 143.099 46.2191 143.462 45.6185 143.711C45.0291 143.96 44.3775 144.085 43.6635 144.085C42.7455 144.085 41.9295 143.892 41.2155 143.507C40.5128 143.11 39.9631 142.566 39.5665 141.875C39.1698 141.184 38.9715 140.402 38.9715 139.529C38.9715 138.656 39.1585 137.874 39.5325 137.183C39.9178 136.492 40.4391 135.953 41.0965 135.568C41.7651 135.183 42.5131 134.99 43.3405 134.99C44.1678 134.99 44.9101 135.183 45.5675 135.568C46.2248 135.953 46.7405 136.492 47.1145 137.183C47.4885 137.863 47.6755 138.645 47.6755 139.529L47.6585 139.903ZM43.3405 136.027C42.4791 136.027 41.7538 136.305 41.1645 136.86C40.5865 137.404 40.2578 138.118 40.1785 139.002H46.5195C46.4401 138.118 46.1058 137.404 45.5165 136.86C44.9385 136.305 44.2131 136.027 43.3405 136.027ZM52.5292 144.085C51.8039 144.085 51.1069 143.983 50.4382 143.779C49.7809 143.564 49.2652 143.297 48.8912 142.98L49.4352 142.028C49.8092 142.323 50.2796 142.566 50.8462 142.759C51.4129 142.94 52.0022 143.031 52.6142 143.031C53.4302 143.031 54.0309 142.906 54.4162 142.657C54.8129 142.396 55.0112 142.034 55.0112 141.569C55.0112 141.24 54.9036 140.985 54.6882 140.804C54.4729 140.611 54.2009 140.47 53.8722 140.379C53.5436 140.277 53.1072 140.181 52.5632 140.09C51.8379 139.954 51.2542 139.818 50.8122 139.682C50.3702 139.535 49.9906 139.291 49.6732 138.951C49.3672 138.611 49.2142 138.141 49.2142 137.54C49.2142 136.792 49.5259 136.18 50.1492 135.704C50.7726 135.228 51.6396 134.99 52.7502 134.99C53.3282 134.99 53.9062 135.069 54.4842 135.228C55.0622 135.375 55.5382 135.574 55.9122 135.823L55.3852 136.792C54.6486 136.282 53.7702 136.027 52.7502 136.027C51.9796 136.027 51.3959 136.163 50.9992 136.435C50.6139 136.707 50.4212 137.064 50.4212 137.506C50.4212 137.846 50.5289 138.118 50.7442 138.322C50.9709 138.526 51.2486 138.679 51.5772 138.781C51.9059 138.872 52.3592 138.968 52.9372 139.07C53.6512 139.206 54.2236 139.342 54.6542 139.478C55.0849 139.614 55.4532 139.846 55.7592 140.175C56.0652 140.504 56.2182 140.957 56.2182 141.535C56.2182 142.317 55.8896 142.94 55.2322 143.405C54.5862 143.858 53.6852 144.085 52.5292 144.085ZM60.8466 144.085C60.1213 144.085 59.4243 143.983 58.7556 143.779C58.0983 143.564 57.5826 143.297 57.2086 142.98L57.7526 142.028C58.1266 142.323 58.5969 142.566 59.1636 142.759C59.7303 142.94 60.3196 143.031 60.9316 143.031C61.7476 143.031 62.3483 142.906 62.7336 142.657C63.1303 142.396 63.3286 142.034 63.3286 141.569C63.3286 141.24 63.2209 140.985 63.0056 140.804C62.7903 140.611 62.5183 140.47 62.1896 140.379C61.8609 140.277 61.4246 140.181 60.8806 140.09C60.1553 139.954 59.5716 139.818 59.1296 139.682C58.6876 139.535 58.3079 139.291 57.9906 138.951C57.6846 138.611 57.5316 138.141 57.5316 137.54C57.5316 136.792 57.8433 136.18 58.4666 135.704C59.0899 135.228 59.9569 134.99 61.0676 134.99C61.6456 134.99 62.2236 135.069 62.8016 135.228C63.3796 135.375 63.8556 135.574 64.2296 135.823L63.7026 136.792C62.9659 136.282 62.0876 136.027 61.0676 136.027C60.2969 136.027 59.7133 136.163 59.3166 136.435C58.9313 136.707 58.7386 137.064 58.7386 137.506C58.7386 137.846 58.8463 138.118 59.0616 138.322C59.2883 138.526 59.5659 138.679 59.8946 138.781C60.2233 138.872 60.6766 138.968 61.2546 139.07C61.9686 139.206 62.5409 139.342 62.9716 139.478C63.4023 139.614 63.7706 139.846 64.0766 140.175C64.3826 140.504 64.5356 140.957 64.5356 141.535C64.5356 142.317 64.2069 142.94 63.5496 143.405C62.9036 143.858 62.0026 144.085 60.8466 144.085ZM74.553 139.903H67.073C67.141 140.832 67.498 141.586 68.144 142.164C68.79 142.731 69.606 143.014 70.592 143.014C71.1473 143.014 71.6573 142.918 72.122 142.725C72.5867 142.521 72.989 142.226 73.329 141.841L74.009 142.623C73.6123 143.099 73.1137 143.462 72.513 143.711C71.9237 143.96 71.272 144.085 70.558 144.085C69.64 144.085 68.824 143.892 68.11 143.507C67.4073 143.11 66.8577 142.566 66.461 141.875C66.0643 141.184 65.866 140.402 65.866 139.529C65.866 138.656 66.053 137.874 66.427 137.183C66.8123 136.492 67.3337 135.953 67.991 135.568C68.6597 135.183 69.4077 134.99 70.235 134.99C71.0623 134.99 71.8047 135.183 72.462 135.568C73.1193 135.953 73.635 136.492 74.009 137.183C74.383 137.863 74.57 138.645 74.57 139.529L74.553 139.903ZM70.235 136.027C69.3737 136.027 68.6483 136.305 68.059 136.86C67.481 137.404 67.1523 138.118 67.073 139.002H73.414C73.3347 138.118 73.0003 137.404 72.411 136.86C71.833 136.305 71.1077 136.027 70.235 136.027ZM79.4238 144.085C78.6984 144.085 78.0014 143.983 77.3328 143.779C76.6754 143.564 76.1598 143.297 75.7858 142.98L76.3298 142.028C76.7038 142.323 77.1741 142.566 77.7408 142.759C78.3074 142.94 78.8968 143.031 79.5088 143.031C80.3248 143.031 80.9254 142.906 81.3108 142.657C81.7074 142.396 81.9058 142.034 81.9058 141.569C81.9058 141.24 81.7981 140.985 81.5828 140.804C81.3674 140.611 81.0954 140.47 80.7668 140.379C80.4381 140.277 80.0018 140.181 79.4578 140.09C78.7324 139.954 78.1488 139.818 77.7068 139.682C77.2648 139.535 76.8851 139.291 76.5678 138.951C76.2618 138.611 76.1088 138.141 76.1088 137.54C76.1088 136.792 76.4204 136.18 77.0438 135.704C77.6671 135.228 78.5341 134.99 79.6448 134.99C80.2228 134.99 80.8008 135.069 81.3788 135.228C81.9568 135.375 82.4328 135.574 82.8068 135.823L82.2798 136.792C81.5431 136.282 80.6648 136.027 79.6448 136.027C78.8741 136.027 78.2904 136.163 77.8938 136.435C77.5084 136.707 77.3158 137.064 77.3158 137.506C77.3158 137.846 77.4234 138.118 77.6388 138.322C77.8654 138.526 78.1431 138.679 78.4718 138.781C78.8004 138.872 79.2538 138.968 79.8317 139.07C80.5458 139.206 81.1181 139.342 81.5488 139.478C81.9794 139.614 82.3478 139.846 82.6538 140.175C82.9598 140.504 83.1128 140.957 83.1128 141.535C83.1128 142.317 82.7841 142.94 82.1268 143.405C81.4808 143.858 80.5798 144.085 79.4238 144.085ZM97.5794 139.903H90.0994C90.1674 140.832 90.5244 141.586 91.1704 142.164C91.8164 142.731 92.6324 143.014 93.6184 143.014C94.1737 143.014 94.6837 142.918 95.1484 142.725C95.613 142.521 96.0154 142.226 96.3554 141.841L97.0354 142.623C96.6387 143.099 96.14 143.462 95.5394 143.711C94.95 143.96 94.2984 144.085 93.5844 144.085C92.6664 144.085 91.8504 143.892 91.1364 143.507C90.4337 143.11 89.884 142.566 89.4874 141.875C89.0907 141.184 88.8924 140.402 88.8924 139.529C88.8924 138.656 89.0794 137.874 89.4534 137.183C89.8387 136.492 90.36 135.953 91.0174 135.568C91.686 135.183 92.434 134.99 93.2614 134.99C94.0887 134.99 94.831 135.183 95.4884 135.568C96.1457 135.953 96.6614 136.492 97.0354 137.183C97.4094 137.863 97.5964 138.645 97.5964 139.529L97.5794 139.903ZM93.2614 136.027C92.4 136.027 91.6747 136.305 91.0854 136.86C90.5074 137.404 90.1787 138.118 90.0994 139.002H96.4404C96.361 138.118 96.0267 137.404 95.4374 136.86C94.8594 136.305 94.134 136.027 93.2614 136.027ZM104.609 134.99C105.731 134.99 106.621 135.319 107.278 135.976C107.947 136.622 108.281 137.568 108.281 138.815V144H107.074V138.934C107.074 138.005 106.842 137.296 106.377 136.809C105.912 136.322 105.249 136.078 104.388 136.078C103.425 136.078 102.66 136.367 102.093 136.945C101.538 137.512 101.26 138.299 101.26 139.308V144H100.053V135.058H101.209V136.707C101.538 136.163 101.991 135.744 102.569 135.449C103.158 135.143 103.838 134.99 104.609 134.99ZM120.716 143.456C120.49 143.66 120.206 143.819 119.866 143.932C119.538 144.034 119.192 144.085 118.829 144.085C117.991 144.085 117.345 143.858 116.891 143.405C116.438 142.952 116.211 142.311 116.211 141.484V136.078H114.613V135.058H116.211V133.103H117.418V135.058H120.138V136.078H117.418V141.416C117.418 141.949 117.549 142.357 117.809 142.64C118.081 142.912 118.467 143.048 118.965 143.048C119.215 143.048 119.453 143.008 119.679 142.929C119.917 142.85 120.121 142.736 120.291 142.589L120.716 143.456ZM130.384 139.903H122.904C122.972 140.832 123.329 141.586 123.975 142.164C124.621 142.731 125.437 143.014 126.423 143.014C126.978 143.014 127.488 142.918 127.953 142.725C128.418 142.521 128.82 142.226 129.16 141.841L129.84 142.623C129.443 143.099 128.945 143.462 128.344 143.711C127.755 143.96 127.103 144.085 126.389 144.085C125.471 144.085 124.655 143.892 123.941 143.507C123.238 143.11 122.689 142.566 122.292 141.875C121.895 141.184 121.697 140.402 121.697 139.529C121.697 138.656 121.884 137.874 122.258 137.183C122.643 136.492 123.165 135.953 123.822 135.568C124.491 135.183 125.239 134.99 126.066 134.99C126.893 134.99 127.636 135.183 128.293 135.568C128.95 135.953 129.466 136.492 129.84 137.183C130.214 137.863 130.401 138.645 130.401 139.529L130.384 139.903ZM126.066 136.027C125.205 136.027 124.479 136.305 123.89 136.86C123.312 137.404 122.983 138.118 122.904 139.002H129.245C129.166 138.118 128.831 137.404 128.242 136.86C127.664 136.305 126.939 136.027 126.066 136.027ZM127.749 133.664L126.066 132.253L124.383 133.664H123.261L125.454 131.556H126.678L128.871 133.664H127.749ZM137.567 143.456C137.34 143.66 137.057 143.819 136.717 143.932C136.388 144.034 136.042 144.085 135.68 144.085C134.841 144.085 134.195 143.858 133.742 143.405C133.288 142.952 133.062 142.311 133.062 141.484V136.078H131.464V135.058H133.062V133.103H134.269V135.058H136.989V136.078H134.269V141.416C134.269 141.949 134.399 142.357 134.66 142.64C134.932 142.912 135.317 143.048 135.816 143.048C136.065 143.048 136.303 143.008 136.53 142.929C136.768 142.85 136.972 142.736 137.142 142.589L137.567 143.456ZM147.235 139.903H139.755C139.823 140.832 140.18 141.586 140.826 142.164C141.472 142.731 142.288 143.014 143.274 143.014C143.829 143.014 144.339 142.918 144.804 142.725C145.268 142.521 145.671 142.226 146.011 141.841L146.691 142.623C146.294 143.099 145.795 143.462 145.195 143.711C144.605 143.96 143.954 144.085 143.24 144.085C142.322 144.085 141.506 143.892 140.792 143.507C140.089 143.11 139.539 142.566 139.143 141.875C138.746 141.184 138.548 140.402 138.548 139.529C138.548 138.656 138.735 137.874 139.109 137.183C139.494 136.492 140.015 135.953 140.673 135.568C141.341 135.183 142.089 134.99 142.917 134.99C143.744 134.99 144.486 135.183 145.144 135.568C145.801 135.953 146.317 136.492 146.691 137.183C147.065 137.863 147.252 138.645 147.252 139.529L147.235 139.903ZM142.917 136.027C142.055 136.027 141.33 136.305 140.741 136.86C140.163 137.404 139.834 138.118 139.755 139.002H146.096C146.016 138.118 145.682 137.404 145.093 136.86C144.515 136.305 143.789 136.027 142.917 136.027ZM156.47 140.43C156.47 139.965 156.543 139.557 156.691 139.206C156.849 138.855 157.042 138.554 157.269 138.305C157.495 138.056 157.79 137.772 158.153 137.455C158.64 137.024 158.997 136.65 159.224 136.333C159.462 136.004 159.581 135.608 159.581 135.143C159.581 134.52 159.337 134.021 158.85 133.647C158.362 133.262 157.694 133.069 156.844 133.069C155.438 133.069 154.356 133.528 153.597 134.446L152.696 133.766C153.659 132.587 155.07 131.998 156.929 131.998C158.119 131.998 159.065 132.264 159.768 132.797C160.482 133.33 160.839 134.049 160.839 134.956C160.839 135.421 160.759 135.834 160.601 136.197C160.453 136.548 160.266 136.849 160.04 137.098C159.824 137.347 159.535 137.636 159.173 137.965C158.685 138.407 158.323 138.804 158.085 139.155C157.847 139.495 157.728 139.92 157.728 140.43H156.47ZM157.099 144.085C156.849 144.085 156.64 144 156.47 143.83C156.3 143.649 156.215 143.439 156.215 143.201C156.215 142.952 156.3 142.748 156.47 142.589C156.64 142.419 156.849 142.334 157.099 142.334C157.359 142.334 157.575 142.419 157.745 142.589C157.915 142.748 158 142.952 158 143.201C158 143.439 157.909 143.649 157.728 143.83C157.558 144 157.348 144.085 157.099 144.085Z" fill="white"/>
</svg>
