<svg width="293" height="230" viewBox="0 0 293 230" fill="none" xmlns="http://www.w3.org/2000/svg">
<path d="M251.229 186.667H104.465L50.9218 228.598C45.9818 232.644 39.289 227.311 40.8826 220.506L48.5315 186.851H28.7717C13.9518 186.851 2.15967 173.058 2.15967 155.771V31.0805C2.15967 13.9771 14.1112 0 28.7717 0H251.388C266.208 0 278 13.7931 278 31.0805V155.771C278 172.874 265.889 186.667 251.229 186.667Z" fill="#F1B705"/>
<path d="M251.229 0H191.63C187.806 86.9887 125.658 155.954 49.6466 155.954C32.9145 155.954 16.8199 152.644 2 146.575V155.771C2 172.874 13.9515 186.851 28.612 186.851H48.2125L40.5635 220.506C38.9699 227.311 45.5035 232.644 50.6028 228.598L104.145 186.667H250.91C265.73 186.667 277.522 172.874 277.522 155.587V30.8966C278 13.7931 265.889 0 251.229 0Z" fill="#EEAD07"/>
<path d="M2 31.0161V155.984C2 173.148 15.9058 187 32.9858 187H247.014C264.094 187 278 173.148 278 155.984V31.0161C278 13.8519 264.094 0 247.014 0H32.9858C15.9058 0.150564 2 14.0024 2 31.0161Z" fill="#F1B705"/>
<path d="M0 31.2208V157.627C0 174.989 14.0066 189 31.2103 189H158.183H178.786C188.859 189 191.377 189 204.471 189H223.801H246.79C263.993 189 278 174.989 278 157.627V148.185C260.644 154.429 241.918 157.779 222.278 157.779C193.504 157.779 166.404 150.469 142.806 137.524C141.436 136.762 140.218 136.153 139 135.392C91.8039 107.978 59.2234 57.8727 56.483 0H31.2103C14.0066 0 0 14.0113 0 31.2208Z" fill="#EEAD07"/>
<path d="M26.435 70.863C27.217 71.033 27.8177 71.373 28.237 71.883C28.6677 72.3817 28.883 73.0277 28.883 73.821C28.883 74.841 28.5033 75.6287 27.744 76.184C26.996 76.728 25.8853 77 24.412 77H18.938V65.1H24.072C25.398 65.1 26.4237 65.3663 27.149 65.899C27.8857 66.4317 28.254 67.1853 28.254 68.16C28.254 68.8173 28.0897 69.3783 27.761 69.843C27.4437 70.2963 27.0017 70.6363 26.435 70.863ZM20.196 66.137V70.455H23.987C24.9503 70.455 25.6927 70.2737 26.214 69.911C26.7353 69.537 26.996 68.9987 26.996 68.296C26.996 67.5933 26.7353 67.0607 26.214 66.698C25.6927 66.324 24.9503 66.137 23.987 66.137H20.196ZM24.395 75.963C25.4603 75.963 26.265 75.7817 26.809 75.419C27.353 75.0563 27.625 74.4897 27.625 73.719C27.625 72.2343 26.5483 71.492 24.395 71.492H20.196V75.963H24.395ZM35.1544 77.085C34.2931 77.085 33.5167 76.8923 32.8254 76.507C32.1341 76.1103 31.5901 75.5663 31.1934 74.875C30.7967 74.1837 30.5984 73.4017 30.5984 72.529C30.5984 71.6563 30.7967 70.8743 31.1934 70.183C31.5901 69.4917 32.1341 68.9533 32.8254 68.568C33.5167 68.1827 34.2931 67.99 35.1544 67.99C36.0157 67.99 36.7921 68.1827 37.4834 68.568C38.1747 68.9533 38.7131 69.4917 39.0984 70.183C39.4951 70.8743 39.6934 71.6563 39.6934 72.529C39.6934 73.4017 39.4951 74.1837 39.0984 74.875C38.7131 75.5663 38.1747 76.1103 37.4834 76.507C36.7921 76.8923 36.0157 77.085 35.1544 77.085ZM35.1544 76.014C35.7891 76.014 36.3557 75.8723 36.8544 75.589C37.3644 75.2943 37.7611 74.8807 38.0444 74.348C38.3277 73.8153 38.4694 73.209 38.4694 72.529C38.4694 71.849 38.3277 71.2427 38.0444 70.71C37.7611 70.1773 37.3644 69.7693 36.8544 69.486C36.3557 69.1913 35.7891 69.044 35.1544 69.044C34.5197 69.044 33.9474 69.1913 33.4374 69.486C32.9387 69.7693 32.5421 70.1773 32.2474 70.71C31.9641 71.2427 31.8224 71.849 31.8224 72.529C31.8224 73.209 31.9641 73.8153 32.2474 74.348C32.5421 74.8807 32.9387 75.2943 33.4374 75.589C33.9474 75.8723 34.5197 76.014 35.1544 76.014ZM46.7136 67.99C47.8356 67.99 48.7253 68.3187 49.3826 68.976C50.0513 69.622 50.3856 70.5683 50.3856 71.815V77H49.1786V71.934C49.1786 71.0047 48.9463 70.2963 48.4816 69.809C48.0169 69.3217 47.3539 69.078 46.4926 69.078C45.5293 69.078 44.7643 69.367 44.1976 69.945C43.6423 70.5117 43.3646 71.2993 43.3646 72.308V77H42.1576V68.058H43.3136V69.707C43.6423 69.163 44.0956 68.7437 44.6736 68.449C45.2629 68.143 45.9429 67.99 46.7136 67.99ZM52.3365 80.383C51.9625 80.383 51.6112 80.332 51.2825 80.23C50.9425 80.1393 50.6648 79.9977 50.4495 79.805L50.8745 78.887C51.2258 79.193 51.6905 79.346 52.2685 79.346C52.7445 79.346 53.1072 79.2043 53.3565 78.921C53.6172 78.6377 53.7475 78.2183 53.7475 77.663V68.058H54.9545V77.663C54.9545 78.5017 54.7278 79.1647 54.2745 79.652C53.8212 80.1393 53.1752 80.383 52.3365 80.383ZM54.3595 66.086C54.1102 66.086 53.9005 66.001 53.7305 65.831C53.5605 65.661 53.4755 65.457 53.4755 65.219C53.4755 64.9923 53.5605 64.794 53.7305 64.624C53.9005 64.454 54.1102 64.369 54.3595 64.369C54.6088 64.369 54.8185 64.454 54.9885 64.624C55.1585 64.7827 55.2435 64.9753 55.2435 65.202C55.2435 65.4513 55.1585 65.661 54.9885 65.831C54.8185 66.001 54.6088 66.086 54.3595 66.086ZM61.9825 77.085C61.1212 77.085 60.3449 76.8923 59.6535 76.507C58.9622 76.1103 58.4182 75.5663 58.0215 74.875C57.6249 74.1837 57.4265 73.4017 57.4265 72.529C57.4265 71.6563 57.6249 70.8743 58.0215 70.183C58.4182 69.4917 58.9622 68.9533 59.6535 68.568C60.3449 68.1827 61.1212 67.99 61.9825 67.99C62.8439 67.99 63.6202 68.1827 64.3115 68.568C65.0029 68.9533 65.5412 69.4917 65.9265 70.183C66.3232 70.8743 66.5215 71.6563 66.5215 72.529C66.5215 73.4017 66.3232 74.1837 65.9265 74.875C65.5412 75.5663 65.0029 76.1103 64.3115 76.507C63.6202 76.8923 62.8439 77.085 61.9825 77.085ZM61.9825 76.014C62.6172 76.014 63.1839 75.8723 63.6825 75.589C64.1925 75.2943 64.5892 74.8807 64.8725 74.348C65.1559 73.8153 65.2975 73.209 65.2975 72.529C65.2975 71.849 65.1559 71.2427 64.8725 70.71C64.5892 70.1773 64.1925 69.7693 63.6825 69.486C63.1839 69.1913 62.6172 69.044 61.9825 69.044C61.3479 69.044 60.7755 69.1913 60.2655 69.486C59.7669 69.7693 59.3702 70.1773 59.0755 70.71C58.7922 71.2427 58.6505 71.849 58.6505 72.529C58.6505 73.209 58.7922 73.8153 59.0755 74.348C59.3702 74.8807 59.7669 75.2943 60.2655 75.589C60.7755 75.8723 61.3479 76.014 61.9825 76.014ZM77.0437 68.058V77H75.8877V75.368C75.5704 75.912 75.1341 76.337 74.5787 76.643C74.0234 76.9377 73.3887 77.085 72.6747 77.085C71.5074 77.085 70.5837 76.762 69.9037 76.116C69.2351 75.4587 68.9007 74.501 68.9007 73.243V68.058H70.1077V73.124C70.1077 74.0647 70.3401 74.7787 70.8047 75.266C71.2694 75.7533 71.9324 75.997 72.7937 75.997C73.7344 75.997 74.4767 75.7137 75.0207 75.147C75.5647 74.569 75.8367 73.77 75.8367 72.75V68.058H77.0437ZM81.5802 69.809C81.8635 69.2083 82.2829 68.755 82.8382 68.449C83.4049 68.143 84.1019 67.99 84.9292 67.99V69.163L84.6402 69.146C83.6995 69.146 82.9629 69.435 82.4302 70.013C81.8975 70.591 81.6312 71.4013 81.6312 72.444V77H80.4242V68.058H81.5802V69.809ZM104.311 65.1V77H103.104V67.48L98.4287 75.487H97.8337L93.1587 67.531V77H91.9517V65.1H92.9887L98.1567 73.923L103.274 65.1H104.311ZM111.061 67.99C112.228 67.99 113.124 68.2847 113.747 68.874C114.37 69.452 114.682 70.3133 114.682 71.458V77H113.526V75.606C113.254 76.0707 112.852 76.4333 112.319 76.694C111.798 76.9547 111.174 77.085 110.449 77.085C109.452 77.085 108.658 76.847 108.069 76.371C107.48 75.895 107.185 75.266 107.185 74.484C107.185 73.7247 107.457 73.1127 108.001 72.648C108.556 72.1833 109.435 71.951 110.636 71.951H113.475V71.407C113.475 70.6363 113.26 70.0527 112.829 69.656C112.398 69.248 111.769 69.044 110.942 69.044C110.375 69.044 109.831 69.1403 109.31 69.333C108.789 69.5143 108.341 69.7693 107.967 70.098L107.423 69.197C107.876 68.8117 108.42 68.517 109.055 68.313C109.69 68.0977 110.358 67.99 111.061 67.99ZM110.636 76.133C111.316 76.133 111.9 75.98 112.387 75.674C112.874 75.3567 113.237 74.9033 113.475 74.314V72.852H110.67C109.14 72.852 108.375 73.3847 108.375 74.45C108.375 74.9713 108.573 75.385 108.97 75.691C109.367 75.9857 109.922 76.133 110.636 76.133ZM126.154 64.386V77H124.998V75.232C124.635 75.8327 124.153 76.2917 123.553 76.609C122.963 76.9263 122.295 77.085 121.547 77.085C120.708 77.085 119.949 76.8923 119.269 76.507C118.589 76.1217 118.056 75.5833 117.671 74.892C117.285 74.2007 117.093 73.413 117.093 72.529C117.093 71.645 117.285 70.8573 117.671 70.166C118.056 69.4747 118.589 68.942 119.269 68.568C119.949 68.1827 120.708 67.99 121.547 67.99C122.272 67.99 122.924 68.143 123.502 68.449C124.091 68.7437 124.573 69.18 124.947 69.758V64.386H126.154ZM121.649 76.014C122.272 76.014 122.833 75.8723 123.332 75.589C123.842 75.2943 124.238 74.8807 124.522 74.348C124.816 73.8153 124.964 73.209 124.964 72.529C124.964 71.849 124.816 71.2427 124.522 70.71C124.238 70.1773 123.842 69.7693 123.332 69.486C122.833 69.1913 122.272 69.044 121.649 69.044C121.014 69.044 120.442 69.1913 119.932 69.486C119.433 69.7693 119.036 70.1773 118.742 70.71C118.458 71.2427 118.317 71.849 118.317 72.529C118.317 73.209 118.458 73.8153 118.742 74.348C119.036 74.8807 119.433 75.2943 119.932 75.589C120.442 75.8723 121.014 76.014 121.649 76.014ZM132.643 67.99C133.81 67.99 134.706 68.2847 135.329 68.874C135.952 69.452 136.264 70.3133 136.264 71.458V77H135.108V75.606C134.836 76.0707 134.434 76.4333 133.901 76.694C133.38 76.9547 132.756 77.085 132.031 77.085C131.034 77.085 130.24 76.847 129.651 76.371C129.062 75.895 128.767 75.266 128.767 74.484C128.767 73.7247 129.039 73.1127 129.583 72.648C130.138 72.1833 131.017 71.951 132.218 71.951H135.057V71.407C135.057 70.6363 134.842 70.0527 134.411 69.656C133.98 69.248 133.351 69.044 132.524 69.044C131.957 69.044 131.413 69.1403 130.892 69.333C130.371 69.5143 129.923 69.7693 129.549 70.098L129.005 69.197C129.458 68.8117 130.002 68.517 130.637 68.313C131.272 68.0977 131.94 67.99 132.643 67.99ZM132.218 76.133C132.898 76.133 133.482 75.98 133.969 75.674C134.456 75.3567 134.819 74.9033 135.057 74.314V72.852H132.252C130.722 72.852 129.957 73.3847 129.957 74.45C129.957 74.9713 130.155 75.385 130.552 75.691C130.949 75.9857 131.504 76.133 132.218 76.133ZM150.694 67.99C151.816 67.99 152.695 68.313 153.329 68.959C153.975 69.605 154.298 70.557 154.298 71.815V77H153.091V71.934C153.091 71.0047 152.865 70.2963 152.411 69.809C151.969 69.3217 151.34 69.078 150.524 69.078C149.595 69.078 148.864 69.367 148.331 69.945C147.799 70.5117 147.532 71.2993 147.532 72.308V77H146.325V71.934C146.325 71.0047 146.099 70.2963 145.645 69.809C145.203 69.3217 144.569 69.078 143.741 69.078C142.823 69.078 142.092 69.367 141.548 69.945C141.016 70.5117 140.749 71.2993 140.749 72.308V77H139.542V68.058H140.698V69.69C141.016 69.146 141.458 68.7267 142.024 68.432C142.591 68.1373 143.243 67.99 143.979 67.99C144.727 67.99 145.373 68.1487 145.917 68.466C146.473 68.7833 146.886 69.2537 147.158 69.877C147.487 69.2877 147.957 68.8287 148.569 68.5C149.193 68.16 149.901 67.99 150.694 67.99ZM165.391 72.903H157.911C157.979 73.8323 158.336 74.586 158.982 75.164C159.628 75.7307 160.444 76.014 161.43 76.014C161.985 76.014 162.495 75.9177 162.96 75.725C163.425 75.521 163.827 75.2263 164.167 74.841L164.847 75.623C164.45 76.099 163.952 76.4617 163.351 76.711C162.762 76.9603 162.11 77.085 161.396 77.085C160.478 77.085 159.662 76.8923 158.948 76.507C158.245 76.1103 157.696 75.5663 157.299 74.875C156.902 74.1837 156.704 73.4017 156.704 72.529C156.704 71.6563 156.891 70.8743 157.265 70.183C157.65 69.4917 158.172 68.9533 158.829 68.568C159.498 68.1827 160.246 67.99 161.073 67.99C161.9 67.99 162.643 68.1827 163.3 68.568C163.957 68.9533 164.473 69.4917 164.847 70.183C165.221 70.863 165.408 71.645 165.408 72.529L165.391 72.903ZM161.073 69.027C160.212 69.027 159.486 69.3047 158.897 69.86C158.319 70.404 157.99 71.118 157.911 72.002H164.252C164.173 71.118 163.838 70.404 163.249 69.86C162.671 69.3047 161.946 69.027 161.073 69.027ZM172.127 65.1H173.555L173.3 73.43H172.365L172.127 65.1ZM172.841 77.085C172.592 77.085 172.376 77 172.195 76.83C172.025 76.6487 171.94 76.439 171.94 76.201C171.94 75.9517 172.025 75.7477 172.195 75.589C172.365 75.419 172.58 75.334 172.841 75.334C173.09 75.334 173.3 75.419 173.47 75.589C173.64 75.7477 173.725 75.9517 173.725 76.201C173.725 76.439 173.64 76.6487 173.47 76.83C173.3 77 173.09 77.085 172.841 77.085ZM28.832 86.1L23.562 98H22.321L17.051 86.1H18.411L22.967 96.436L27.557 86.1H28.832ZM33.2784 98.085C32.4171 98.085 31.6408 97.8923 30.9494 97.507C30.2581 97.1103 29.7141 96.5663 29.3174 95.875C28.9208 95.1837 28.7224 94.4017 28.7224 93.529C28.7224 92.6563 28.9208 91.8743 29.3174 91.183C29.7141 90.4917 30.2581 89.9533 30.9494 89.568C31.6408 89.1827 32.4171 88.99 33.2784 88.99C34.1398 88.99 34.9161 89.1827 35.6074 89.568C36.2988 89.9533 36.8371 90.4917 37.2224 91.183C37.6191 91.8743 37.8174 92.6563 37.8174 93.529C37.8174 94.4017 37.6191 95.1837 37.2224 95.875C36.8371 96.5663 36.2988 97.1103 35.6074 97.507C34.9161 97.8923 34.1398 98.085 33.2784 98.085ZM33.2784 97.014C33.9131 97.014 34.4798 96.8723 34.9784 96.589C35.4884 96.2943 35.8851 95.8807 36.1684 95.348C36.4518 94.8153 36.5934 94.209 36.5934 93.529C36.5934 92.849 36.4518 92.2427 36.1684 91.71C35.8851 91.1773 35.4884 90.7693 34.9784 90.486C34.4798 90.1913 33.9131 90.044 33.2784 90.044C32.6438 90.044 32.0714 90.1913 31.5614 90.486C31.0628 90.7693 30.6661 91.1773 30.3714 91.71C30.0881 92.2427 29.9464 92.849 29.9464 93.529C29.9464 94.209 30.0881 94.8153 30.3714 95.348C30.6661 95.8807 31.0628 96.2943 31.5614 96.589C32.0714 96.8723 32.6438 97.014 33.2784 97.014ZM48.3396 89.058V98H47.1836V96.368C46.8663 96.912 46.43 97.337 45.8746 97.643C45.3193 97.9377 44.6846 98.085 43.9706 98.085C42.8033 98.085 41.8796 97.762 41.1996 97.116C40.531 96.4587 40.1966 95.501 40.1966 94.243V89.058H41.4036V94.124C41.4036 95.0647 41.636 95.7787 42.1006 96.266C42.5653 96.7533 43.2283 96.997 44.0896 96.997C45.0303 96.997 45.7726 96.7137 46.3166 96.147C46.8606 95.569 47.1326 94.77 47.1326 93.75V89.058H48.3396ZM54.1171 98.085C53.3918 98.085 52.6948 97.983 52.0261 97.779C51.3688 97.5637 50.8531 97.2973 50.4791 96.98L51.0231 96.028C51.3971 96.3227 51.8674 96.5663 52.4341 96.759C53.0008 96.9403 53.5901 97.031 54.2021 97.031C55.0181 97.031 55.6188 96.9063 56.0041 96.657C56.4008 96.3963 56.5991 96.0337 56.5991 95.569C56.5991 95.2403 56.4914 94.9853 56.2761 94.804C56.0608 94.6113 55.7888 94.4697 55.4601 94.379C55.1314 94.277 54.6951 94.1807 54.1511 94.09C53.4258 93.954 52.8421 93.818 52.4001 93.682C51.9581 93.5347 51.5784 93.291 51.2611 92.951C50.9551 92.611 50.8021 92.1407 50.8021 91.54C50.8021 90.792 51.1138 90.18 51.7371 89.704C52.3604 89.228 53.2274 88.99 54.3381 88.99C54.9161 88.99 55.4941 89.0693 56.0721 89.228C56.6501 89.3753 57.1261 89.5737 57.5001 89.823L56.9731 90.792C56.2364 90.282 55.3581 90.027 54.3381 90.027C53.5674 90.027 52.9838 90.163 52.5871 90.435C52.2018 90.707 52.0091 91.064 52.0091 91.506C52.0091 91.846 52.1168 92.118 52.3321 92.322C52.5588 92.526 52.8364 92.679 53.1651 92.781C53.4938 92.8717 53.9471 92.968 54.5251 93.07C55.2391 93.206 55.8114 93.342 56.2421 93.478C56.6728 93.614 57.0411 93.8463 57.3471 94.175C57.6531 94.5037 57.8061 94.957 57.8061 95.535C57.8061 96.317 57.4774 96.9403 56.8201 97.405C56.1741 97.8583 55.2731 98.085 54.1171 98.085ZM66.8837 98.085C66.1584 98.085 65.4614 97.983 64.7927 97.779C64.1354 97.5637 63.6197 97.2973 63.2457 96.98L63.7897 96.028C64.1637 96.3227 64.634 96.5663 65.2007 96.759C65.7674 96.9403 66.3567 97.031 66.9687 97.031C67.7847 97.031 68.3854 96.9063 68.7707 96.657C69.1674 96.3963 69.3657 96.0337 69.3657 95.569C69.3657 95.2403 69.258 94.9853 69.0427 94.804C68.8274 94.6113 68.5554 94.4697 68.2267 94.379C67.898 94.277 67.4617 94.1807 66.9177 94.09C66.1924 93.954 65.6087 93.818 65.1667 93.682C64.7247 93.5347 64.345 93.291 64.0277 92.951C63.7217 92.611 63.5687 92.1407 63.5687 91.54C63.5687 90.792 63.8804 90.18 64.5037 89.704C65.127 89.228 65.994 88.99 67.1047 88.99C67.6827 88.99 68.2607 89.0693 68.8387 89.228C69.4167 89.3753 69.8927 89.5737 70.2667 89.823L69.7397 90.792C69.003 90.282 68.1247 90.027 67.1047 90.027C66.334 90.027 65.7504 90.163 65.3537 90.435C64.9684 90.707 64.7757 91.064 64.7757 91.506C64.7757 91.846 64.8834 92.118 65.0987 92.322C65.3254 92.526 65.603 92.679 65.9317 92.781C66.2604 92.8717 66.7137 92.968 67.2917 93.07C68.0057 93.206 68.578 93.342 69.0087 93.478C69.4394 93.614 69.8077 93.8463 70.1137 94.175C70.4197 94.5037 70.5727 94.957 70.5727 95.535C70.5727 96.317 70.244 96.9403 69.5867 97.405C68.9407 97.8583 68.0397 98.085 66.8837 98.085ZM80.5901 93.903H73.1101C73.1781 94.8323 73.5351 95.586 74.1811 96.164C74.8271 96.7307 75.6431 97.014 76.6291 97.014C77.1844 97.014 77.6944 96.9177 78.1591 96.725C78.6238 96.521 79.0261 96.2263 79.3661 95.841L80.0461 96.623C79.6494 97.099 79.1508 97.4617 78.5501 97.711C77.9608 97.9603 77.3091 98.085 76.5951 98.085C75.6771 98.085 74.8611 97.8923 74.1471 97.507C73.4444 97.1103 72.8948 96.5663 72.4981 95.875C72.1014 95.1837 71.9031 94.4017 71.9031 93.529C71.9031 92.6563 72.0901 91.8743 72.4641 91.183C72.8494 90.4917 73.3708 89.9533 74.0281 89.568C74.6968 89.1827 75.4448 88.99 76.2721 88.99C77.0994 88.99 77.8418 89.1827 78.4991 89.568C79.1564 89.9533 79.6721 90.4917 80.0461 91.183C80.4201 91.863 80.6071 92.645 80.6071 93.529L80.5901 93.903ZM76.2721 90.027C75.4108 90.027 74.6854 90.3047 74.0961 90.86C73.5181 91.404 73.1894 92.118 73.1101 93.002H79.4511C79.3718 92.118 79.0374 91.404 78.4481 90.86C77.8701 90.3047 77.1448 90.027 76.2721 90.027ZM94.2159 88.99C95.3379 88.99 96.2162 89.313 96.8509 89.959C97.4969 90.605 97.8199 91.557 97.8199 92.815V98H96.6129V92.934C96.6129 92.0047 96.3862 91.2963 95.9329 90.809C95.4909 90.3217 94.8619 90.078 94.0459 90.078C93.1165 90.078 92.3855 90.367 91.8529 90.945C91.3202 91.5117 91.0539 92.2993 91.0539 93.308V98H89.8469V92.934C89.8469 92.0047 89.6202 91.2963 89.1669 90.809C88.7249 90.3217 88.0902 90.078 87.2629 90.078C86.3449 90.078 85.6139 90.367 85.0699 90.945C84.5372 91.5117 84.2709 92.2993 84.2709 93.308V98H83.0639V89.058H84.2199V90.69C84.5372 90.146 84.9792 89.7267 85.5459 89.432C86.1125 89.1373 86.7642 88.99 87.5009 88.99C88.2489 88.99 88.8949 89.1487 89.4389 89.466C89.9942 89.7833 90.4079 90.2537 90.6799 90.877C91.0085 90.2877 91.4789 89.8287 92.0909 89.5C92.7142 89.16 93.4225 88.99 94.2159 88.99ZM105.7 88.99C106.539 88.99 107.298 89.1827 107.978 89.568C108.658 89.942 109.191 90.4747 109.576 91.166C109.961 91.8573 110.154 92.645 110.154 93.529C110.154 94.413 109.961 95.2007 109.576 95.892C109.191 96.5833 108.658 97.1217 107.978 97.507C107.298 97.8923 106.539 98.085 105.7 98.085C104.952 98.085 104.278 97.9263 103.677 97.609C103.088 97.2917 102.612 96.8327 102.249 96.232V98H101.093V85.386H102.3V90.758C102.674 90.18 103.15 89.7437 103.728 89.449C104.317 89.143 104.975 88.99 105.7 88.99ZM105.615 97.014C106.238 97.014 106.805 96.8723 107.315 96.589C107.825 96.2943 108.222 95.8807 108.505 95.348C108.8 94.8153 108.947 94.209 108.947 93.529C108.947 92.849 108.8 92.2427 108.505 91.71C108.222 91.1773 107.825 90.7693 107.315 90.486C106.805 90.1913 106.238 90.044 105.615 90.044C104.98 90.044 104.408 90.1913 103.898 90.486C103.399 90.7693 103.003 91.1773 102.708 91.71C102.425 92.2427 102.283 92.849 102.283 93.529C102.283 94.209 102.425 94.8153 102.708 95.348C103.003 95.8807 103.399 96.2943 103.898 96.589C104.408 96.8723 104.98 97.014 105.615 97.014ZM112.615 85.386H113.822V98H112.615V85.386ZM124.966 93.903H117.486C117.554 94.8323 117.911 95.586 118.557 96.164C119.203 96.7307 120.019 97.014 121.005 97.014C121.56 97.014 122.07 96.9177 122.535 96.725C123 96.521 123.402 96.2263 123.742 95.841L124.422 96.623C124.025 97.099 123.527 97.4617 122.926 97.711C122.337 97.9603 121.685 98.085 120.971 98.085C120.053 98.085 119.237 97.8923 118.523 97.507C117.82 97.1103 117.271 96.5663 116.874 95.875C116.477 95.1837 116.279 94.4017 116.279 93.529C116.279 92.6563 116.466 91.8743 116.84 91.183C117.225 90.4917 117.747 89.9533 118.404 89.568C119.073 89.1827 119.821 88.99 120.648 88.99C121.475 88.99 122.218 89.1827 122.875 89.568C123.532 89.9533 124.048 90.4917 124.422 91.183C124.796 91.863 124.983 92.645 124.983 93.529L124.966 93.903ZM120.648 90.027C119.787 90.027 119.061 90.3047 118.472 90.86C117.894 91.404 117.565 92.118 117.486 93.002H123.827C123.748 92.118 123.413 91.404 122.824 90.86C122.246 90.3047 121.521 90.027 120.648 90.027ZM133.664 96.997V98H126.388V97.201L132.015 90.078H126.49V89.058H133.562V89.857L127.935 96.997H133.664ZM148.547 89.058V98H147.391V96.368C147.073 96.912 146.637 97.337 146.082 97.643C145.526 97.9377 144.892 98.085 144.178 98.085C143.01 98.085 142.087 97.762 141.407 97.116C140.738 96.4587 140.404 95.501 140.404 94.243V89.058H141.611V94.124C141.611 95.0647 141.843 95.7787 142.308 96.266C142.772 96.7533 143.435 96.997 144.297 96.997C145.237 96.997 145.98 96.7137 146.524 96.147C147.068 95.569 147.34 94.77 147.34 93.75V89.058H148.547ZM156.483 88.99C157.605 88.99 158.495 89.3187 159.152 89.976C159.821 90.622 160.155 91.5683 160.155 92.815V98H158.948V92.934C158.948 92.0047 158.716 91.2963 158.251 90.809C157.786 90.3217 157.123 90.078 156.262 90.078C155.299 90.078 154.534 90.367 153.967 90.945C153.412 91.5117 153.134 92.2993 153.134 93.308V98H151.927V89.058H153.083V90.707C153.412 90.163 153.865 89.7437 154.443 89.449C155.032 89.143 155.712 88.99 156.483 88.99ZM172.488 88.99C173.327 88.99 174.086 89.1827 174.766 89.568C175.446 89.942 175.979 90.4747 176.364 91.166C176.75 91.8573 176.942 92.645 176.942 93.529C176.942 94.4243 176.75 95.2177 176.364 95.909C175.979 96.6003 175.446 97.1387 174.766 97.524C174.098 97.898 173.338 98.085 172.488 98.085C171.763 98.085 171.106 97.9377 170.516 97.643C169.938 97.337 169.462 96.895 169.088 96.317V101.298H167.881V89.058H169.037V90.826C169.4 90.2367 169.876 89.7833 170.465 89.466C171.066 89.1487 171.74 88.99 172.488 88.99ZM172.403 97.014C173.027 97.014 173.593 96.8723 174.103 96.589C174.613 96.2943 175.01 95.8807 175.293 95.348C175.588 94.8153 175.735 94.209 175.735 93.529C175.735 92.849 175.588 92.2483 175.293 91.727C175.01 91.1943 174.613 90.7807 174.103 90.486C173.593 90.1913 173.027 90.044 172.403 90.044C171.769 90.044 171.196 90.1913 170.686 90.486C170.188 90.7807 169.791 91.1943 169.496 91.727C169.213 92.2483 169.071 92.849 169.071 93.529C169.071 94.209 169.213 94.8153 169.496 95.348C169.791 95.8807 170.188 96.2943 170.686 96.589C171.196 96.8723 171.769 97.014 172.403 97.014ZM187.189 93.903H179.709C179.777 94.8323 180.134 95.586 180.78 96.164C181.426 96.7307 182.242 97.014 183.228 97.014C183.783 97.014 184.293 96.9177 184.758 96.725C185.222 96.521 185.625 96.2263 185.965 95.841L186.645 96.623C186.248 97.099 185.749 97.4617 185.149 97.711C184.559 97.9603 183.908 98.085 183.194 98.085C182.276 98.085 181.46 97.8923 180.746 97.507C180.043 97.1103 179.493 96.5663 179.097 95.875C178.7 95.1837 178.502 94.4017 178.502 93.529C178.502 92.6563 178.689 91.8743 179.063 91.183C179.448 90.4917 179.969 89.9533 180.627 89.568C181.295 89.1827 182.043 88.99 182.871 88.99C183.698 88.99 184.44 89.1827 185.098 89.568C185.755 89.9533 186.271 90.4917 186.645 91.183C187.019 91.863 187.206 92.645 187.206 93.529L187.189 93.903ZM182.871 90.027C182.009 90.027 181.284 90.3047 180.695 90.86C180.117 91.404 179.788 92.118 179.709 93.002H186.05C185.97 92.118 185.636 91.404 185.047 90.86C184.469 90.3047 183.743 90.027 182.871 90.027ZM197.72 89.058V98H196.564V96.368C196.247 96.912 195.811 97.337 195.255 97.643C194.7 97.9377 194.065 98.085 193.351 98.085C192.184 98.085 191.26 97.762 190.58 97.116C189.912 96.4587 189.577 95.501 189.577 94.243V89.058H190.784V94.124C190.784 95.0647 191.017 95.7787 191.481 96.266C191.946 96.7533 192.609 96.997 193.47 96.997C194.411 96.997 195.153 96.7137 195.697 96.147C196.241 95.569 196.513 94.77 196.513 93.75V89.058H197.72ZM210.157 88.99C210.996 88.99 211.755 89.1827 212.435 89.568C213.115 89.942 213.648 90.4747 214.033 91.166C214.419 91.8573 214.611 92.645 214.611 93.529C214.611 94.4243 214.419 95.2177 214.033 95.909C213.648 96.6003 213.115 97.1387 212.435 97.524C211.767 97.898 211.007 98.085 210.157 98.085C209.432 98.085 208.775 97.9377 208.185 97.643C207.607 97.337 207.131 96.895 206.757 96.317V101.298H205.55V89.058H206.706V90.826C207.069 90.2367 207.545 89.7833 208.134 89.466C208.735 89.1487 209.409 88.99 210.157 88.99ZM210.072 97.014C210.696 97.014 211.262 96.8723 211.772 96.589C212.282 96.2943 212.679 95.8807 212.962 95.348C213.257 94.8153 213.404 94.209 213.404 93.529C213.404 92.849 213.257 92.2483 212.962 91.727C212.679 91.1943 212.282 90.7807 211.772 90.486C211.262 90.1913 210.696 90.044 210.072 90.044C209.438 90.044 208.865 90.1913 208.355 90.486C207.857 90.7807 207.46 91.1943 207.165 91.727C206.882 92.2483 206.74 92.849 206.74 93.529C206.74 94.209 206.882 94.8153 207.165 95.348C207.46 95.8807 207.857 96.2943 208.355 96.589C208.865 96.8723 209.438 97.014 210.072 97.014ZM224.858 93.903H217.378C217.446 94.8323 217.803 95.586 218.449 96.164C219.095 96.7307 219.911 97.014 220.897 97.014C221.452 97.014 221.962 96.9177 222.427 96.725C222.891 96.521 223.294 96.2263 223.634 95.841L224.314 96.623C223.917 97.099 223.418 97.4617 222.818 97.711C222.228 97.9603 221.577 98.085 220.863 98.085C219.945 98.085 219.129 97.8923 218.415 97.507C217.712 97.1103 217.162 96.5663 216.766 95.875C216.369 95.1837 216.171 94.4017 216.171 93.529C216.171 92.6563 216.358 91.8743 216.732 91.183C217.117 90.4917 217.638 89.9533 218.296 89.568C218.964 89.1827 219.712 88.99 220.54 88.99C221.367 88.99 222.109 89.1827 222.767 89.568C223.424 89.9533 223.94 90.4917 224.314 91.183C224.688 91.863 224.875 92.645 224.875 93.529L224.858 93.903ZM220.54 90.027C219.678 90.027 218.953 90.3047 218.364 90.86C217.786 91.404 217.457 92.118 217.378 93.002H223.719C223.639 92.118 223.305 91.404 222.716 90.86C222.138 90.3047 221.412 90.027 220.54 90.027ZM228.487 90.809C228.771 90.2083 229.19 89.755 229.745 89.449C230.312 89.143 231.009 88.99 231.836 88.99V90.163L231.547 90.146C230.607 90.146 229.87 90.435 229.337 91.013C228.805 91.591 228.538 92.4013 228.538 93.444V98H227.331V89.058H228.487V90.809ZM242.099 85.386V98H240.943V96.232C240.58 96.8327 240.099 97.2917 239.498 97.609C238.909 97.9263 238.24 98.085 237.492 98.085C236.653 98.085 235.894 97.8923 235.214 97.507C234.534 97.1217 234.001 96.5833 233.616 95.892C233.231 95.2007 233.038 94.413 233.038 93.529C233.038 92.645 233.231 91.8573 233.616 91.166C234.001 90.4747 234.534 89.942 235.214 89.568C235.894 89.1827 236.653 88.99 237.492 88.99C238.217 88.99 238.869 89.143 239.447 89.449C240.036 89.7437 240.518 90.18 240.892 90.758V85.386H242.099ZM237.594 97.014C238.217 97.014 238.778 96.8723 239.277 96.589C239.787 96.2943 240.184 95.8807 240.467 95.348C240.762 94.8153 240.909 94.209 240.909 93.529C240.909 92.849 240.762 92.2427 240.467 91.71C240.184 91.1773 239.787 90.7693 239.277 90.486C238.778 90.1913 238.217 90.044 237.594 90.044C236.959 90.044 236.387 90.1913 235.877 90.486C235.378 90.7693 234.982 91.1773 234.687 91.71C234.404 92.2427 234.262 92.849 234.262 93.529C234.262 94.209 234.404 94.8153 234.687 95.348C234.982 95.8807 235.378 96.2943 235.877 96.589C236.387 96.8723 236.959 97.014 237.594 97.014ZM253.518 89.058V98H252.362V96.368C252.045 96.912 251.609 97.337 251.053 97.643C250.498 97.9377 249.863 98.085 249.149 98.085C247.982 98.085 247.058 97.762 246.378 97.116C245.71 96.4587 245.375 95.501 245.375 94.243V89.058H246.582V94.124C246.582 95.0647 246.815 95.7787 247.279 96.266C247.744 96.7533 248.407 96.997 249.268 96.997C250.209 96.997 250.951 96.7137 251.495 96.147C252.039 95.569 252.311 94.77 252.311 93.75V89.058H253.518ZM264.685 93.903H257.205C257.273 94.8323 257.63 95.586 258.276 96.164C258.922 96.7307 259.738 97.014 260.724 97.014C261.279 97.014 261.789 96.9177 262.254 96.725C262.718 96.521 263.121 96.2263 263.461 95.841L264.141 96.623C263.744 97.099 263.245 97.4617 262.645 97.711C262.055 97.9603 261.404 98.085 260.69 98.085C259.772 98.085 258.956 97.8923 258.242 97.507C257.539 97.1103 256.989 96.5663 256.593 95.875C256.196 95.1837 255.998 94.4017 255.998 93.529C255.998 92.6563 256.185 91.8743 256.559 91.183C256.944 90.4917 257.465 89.9533 258.123 89.568C258.791 89.1827 259.539 88.99 260.367 88.99C261.194 88.99 261.936 89.1827 262.594 89.568C263.251 89.9533 263.767 90.4917 264.141 91.183C264.515 91.863 264.702 92.645 264.702 93.529L264.685 93.903ZM260.367 90.027C259.505 90.027 258.78 90.3047 258.191 90.86C257.613 91.404 257.284 92.118 257.205 93.002H263.546C263.466 92.118 263.132 91.404 262.543 90.86C261.965 90.3047 261.239 90.027 260.367 90.027ZM267.278 98.085C267.028 98.085 266.813 97.9943 266.632 97.813C266.462 97.6317 266.377 97.4107 266.377 97.15C266.377 96.8893 266.462 96.674 266.632 96.504C266.813 96.3227 267.028 96.232 267.278 96.232C267.527 96.232 267.742 96.3227 267.924 96.504C268.105 96.674 268.196 96.8893 268.196 97.15C268.196 97.4107 268.105 97.6317 267.924 97.813C267.742 97.9943 267.527 98.085 267.278 98.085ZM20.213 119.102C19.533 119.102 18.904 118.955 18.326 118.66C17.748 118.365 17.2777 117.946 16.915 117.402L17.663 116.552C18.3203 117.527 19.176 118.014 20.23 118.014C21.7033 118.014 22.44 117.141 22.44 115.396V108.188H18.088V107.1H23.681V115.345C23.681 116.592 23.3863 117.532 22.797 118.167C22.219 118.79 21.3577 119.102 20.213 119.102ZM34.9856 114.903H27.5056C27.5736 115.832 27.9306 116.586 28.5766 117.164C29.2226 117.731 30.0386 118.014 31.0246 118.014C31.5799 118.014 32.0899 117.918 32.5546 117.725C33.0193 117.521 33.4216 117.226 33.7616 116.841L34.4416 117.623C34.0449 118.099 33.5463 118.462 32.9456 118.711C32.3563 118.96 31.7046 119.085 30.9906 119.085C30.0726 119.085 29.2566 118.892 28.5426 118.507C27.8399 118.11 27.2903 117.566 26.8936 116.875C26.4969 116.184 26.2986 115.402 26.2986 114.529C26.2986 113.656 26.4856 112.874 26.8596 112.183C27.2449 111.492 27.7663 110.953 28.4236 110.568C29.0923 110.183 29.8403 109.99 30.6676 109.99C31.4949 109.99 32.2373 110.183 32.8946 110.568C33.5519 110.953 34.0676 111.492 34.4416 112.183C34.8156 112.863 35.0026 113.645 35.0026 114.529L34.9856 114.903ZM30.6676 111.027C29.8063 111.027 29.0809 111.305 28.4916 111.86C27.9136 112.404 27.5849 113.118 27.5056 114.002H33.8466C33.7673 113.118 33.4329 112.404 32.8436 111.86C32.2656 111.305 31.5403 111.027 30.6676 111.027ZM46.5156 109.99C47.3543 109.99 48.1136 110.183 48.7936 110.568C49.4736 110.942 50.0063 111.475 50.3916 112.166C50.7769 112.857 50.9696 113.645 50.9696 114.529C50.9696 115.424 50.7769 116.218 50.3916 116.909C50.0063 117.6 49.4736 118.139 48.7936 118.524C48.1249 118.898 47.3656 119.085 46.5156 119.085C45.7903 119.085 45.1329 118.938 44.5436 118.643C43.9656 118.337 43.4896 117.895 43.1156 117.317V122.298H41.9086V110.058H43.0646V111.826C43.4273 111.237 43.9033 110.783 44.4926 110.466C45.0933 110.149 45.7676 109.99 46.5156 109.99ZM46.4306 118.014C47.0539 118.014 47.6206 117.872 48.1306 117.589C48.6406 117.294 49.0373 116.881 49.3206 116.348C49.6153 115.815 49.7626 115.209 49.7626 114.529C49.7626 113.849 49.6153 113.248 49.3206 112.727C49.0373 112.194 48.6406 111.781 48.1306 111.486C47.6206 111.191 47.0539 111.044 46.4306 111.044C45.7959 111.044 45.2236 111.191 44.7136 111.486C44.2149 111.781 43.8183 112.194 43.5236 112.727C43.2403 113.248 43.0986 113.849 43.0986 114.529C43.0986 115.209 43.2403 115.815 43.5236 116.348C43.8183 116.881 44.2149 117.294 44.7136 117.589C45.2236 117.872 45.7959 118.014 46.4306 118.014ZM61.2161 114.903H53.7361C53.8041 115.832 54.1611 116.586 54.8071 117.164C55.4531 117.731 56.2691 118.014 57.2551 118.014C57.8104 118.014 58.3204 117.918 58.7851 117.725C59.2497 117.521 59.6521 117.226 59.9921 116.841L60.6721 117.623C60.2754 118.099 59.7767 118.462 59.1761 118.711C58.5867 118.96 57.9351 119.085 57.2211 119.085C56.3031 119.085 55.4871 118.892 54.7731 118.507C54.0704 118.11 53.5207 117.566 53.1241 116.875C52.7274 116.184 52.5291 115.402 52.5291 114.529C52.5291 113.656 52.7161 112.874 53.0901 112.183C53.4754 111.492 53.9967 110.953 54.6541 110.568C55.3227 110.183 56.0707 109.99 56.8981 109.99C57.7254 109.99 58.4677 110.183 59.1251 110.568C59.7824 110.953 60.2981 111.492 60.6721 112.183C61.0461 112.863 61.2331 113.645 61.2331 114.529L61.2161 114.903ZM56.8981 111.027C56.0367 111.027 55.3114 111.305 54.7221 111.86C54.1441 112.404 53.8154 113.118 53.7361 114.002H60.0771C59.9977 113.118 59.6634 112.404 59.0741 111.86C58.4961 111.305 57.7707 111.027 56.8981 111.027ZM71.7478 110.058V119H70.5918V117.368C70.2745 117.912 69.8382 118.337 69.2828 118.643C68.7275 118.938 68.0928 119.085 67.3788 119.085C66.2115 119.085 65.2878 118.762 64.6078 118.116C63.9392 117.459 63.6048 116.501 63.6048 115.243V110.058H64.8118V115.124C64.8118 116.065 65.0442 116.779 65.5088 117.266C65.9735 117.753 66.6365 117.997 67.4978 117.997C68.4385 117.997 69.1808 117.714 69.7248 117.147C70.2688 116.569 70.5408 115.77 70.5408 114.75V110.058H71.7478ZM80.8233 119L77.9843 115.26L75.1283 119H73.7683L77.3043 114.41L73.9383 110.058H75.2983L77.9843 113.56L80.6703 110.058H81.9963L78.6303 114.41L82.2003 119H80.8233ZM93.2656 109.99C94.1043 109.99 94.8636 110.183 95.5436 110.568C96.2236 110.942 96.7563 111.475 97.1416 112.166C97.5269 112.857 97.7196 113.645 97.7196 114.529C97.7196 115.424 97.5269 116.218 97.1416 116.909C96.7563 117.6 96.2236 118.139 95.5436 118.524C94.8749 118.898 94.1156 119.085 93.2656 119.085C92.5403 119.085 91.8829 118.938 91.2936 118.643C90.7156 118.337 90.2396 117.895 89.8656 117.317V122.298H88.6586V110.058H89.8146V111.826C90.1773 111.237 90.6533 110.783 91.2426 110.466C91.8433 110.149 92.5176 109.99 93.2656 109.99ZM93.1806 118.014C93.8039 118.014 94.3706 117.872 94.8806 117.589C95.3906 117.294 95.7873 116.881 96.0706 116.348C96.3653 115.815 96.5126 115.209 96.5126 114.529C96.5126 113.849 96.3653 113.248 96.0706 112.727C95.7873 112.194 95.3906 111.781 94.8806 111.486C94.3706 111.191 93.8039 111.044 93.1806 111.044C92.5459 111.044 91.9736 111.191 91.4636 111.486C90.9649 111.781 90.5683 112.194 90.2736 112.727C89.9903 113.248 89.8486 113.849 89.8486 114.529C89.8486 115.209 89.9903 115.815 90.2736 116.348C90.5683 116.881 90.9649 117.294 91.4636 117.589C91.9736 117.872 92.5459 118.014 93.1806 118.014ZM107.966 114.903H100.486C100.554 115.832 100.911 116.586 101.557 117.164C102.203 117.731 103.019 118.014 104.005 118.014C104.56 118.014 105.07 117.918 105.535 117.725C106 117.521 106.402 117.226 106.742 116.841L107.422 117.623C107.025 118.099 106.527 118.462 105.926 118.711C105.337 118.96 104.685 119.085 103.971 119.085C103.053 119.085 102.237 118.892 101.523 118.507C100.82 118.11 100.271 117.566 99.8741 116.875C99.4774 116.184 99.2791 115.402 99.2791 114.529C99.2791 113.656 99.4661 112.874 99.8401 112.183C100.225 111.492 100.747 110.953 101.404 110.568C102.073 110.183 102.821 109.99 103.648 109.99C104.475 109.99 105.218 110.183 105.875 110.568C106.532 110.953 107.048 111.492 107.422 112.183C107.796 112.863 107.983 113.645 107.983 114.529L107.966 114.903ZM103.648 111.027C102.787 111.027 102.061 111.305 101.472 111.86C100.894 112.404 100.565 113.118 100.486 114.002H106.827C106.748 113.118 106.413 112.404 105.824 111.86C105.246 111.305 104.521 111.027 103.648 111.027ZM118.498 110.058V119H117.342V117.368C117.025 117.912 116.588 118.337 116.033 118.643C115.478 118.938 114.843 119.085 114.129 119.085C112.962 119.085 112.038 118.762 111.358 118.116C110.689 117.459 110.355 116.501 110.355 115.243V110.058H111.562V115.124C111.562 116.065 111.794 116.779 112.259 117.266C112.724 117.753 113.387 117.997 114.248 117.997C115.189 117.997 115.931 117.714 116.475 117.147C117.019 116.569 117.291 115.77 117.291 114.75V110.058H118.498ZM126.587 118.456C126.361 118.66 126.077 118.819 125.737 118.932C125.409 119.034 125.063 119.085 124.7 119.085C123.862 119.085 123.216 118.858 122.762 118.405C122.309 117.952 122.082 117.311 122.082 116.484V111.078H120.484V110.058H122.082V108.103H123.289V110.058H126.009V111.078H123.289V116.416C123.289 116.949 123.42 117.357 123.68 117.64C123.952 117.912 124.338 118.048 124.836 118.048C125.086 118.048 125.324 118.008 125.55 117.929C125.788 117.85 125.992 117.736 126.162 117.589L126.587 118.456ZM127.956 113.866H132.41V114.92H127.956V113.866ZM143.062 114.903H135.582C135.65 115.832 136.007 116.586 136.653 117.164C137.299 117.731 138.115 118.014 139.101 118.014C139.656 118.014 140.166 117.918 140.631 117.725C141.095 117.521 141.498 117.226 141.838 116.841L142.518 117.623C142.121 118.099 141.622 118.462 141.022 118.711C140.432 118.96 139.781 119.085 139.067 119.085C138.149 119.085 137.333 118.892 136.619 118.507C135.916 118.11 135.366 117.566 134.97 116.875C134.573 116.184 134.375 115.402 134.375 114.529C134.375 113.656 134.562 112.874 134.936 112.183C135.321 111.492 135.842 110.953 136.5 110.568C137.168 110.183 137.916 109.99 138.744 109.99C139.571 109.99 140.313 110.183 140.971 110.568C141.628 110.953 142.144 111.492 142.518 112.183C142.892 112.863 143.079 113.645 143.079 114.529L143.062 114.903ZM138.744 111.027C137.882 111.027 137.157 111.305 136.568 111.86C135.99 112.404 135.661 113.118 135.582 114.002H141.923C141.843 113.118 141.509 112.404 140.92 111.86C140.342 111.305 139.616 111.027 138.744 111.027ZM140.427 108.664L138.744 107.253L137.061 108.664H135.939L138.132 106.556H139.356L141.549 108.664H140.427ZM150.245 118.456C150.018 118.66 149.735 118.819 149.395 118.932C149.066 119.034 148.72 119.085 148.358 119.085C147.519 119.085 146.873 118.858 146.42 118.405C145.966 117.952 145.74 117.311 145.74 116.484V111.078H144.142V110.058H145.74V108.103H146.947V110.058H149.667V111.078H146.947V116.416C146.947 116.949 147.077 117.357 147.338 117.64C147.61 117.912 147.995 118.048 148.494 118.048C148.743 118.048 148.981 118.008 149.208 117.929C149.446 117.85 149.65 117.736 149.82 117.589L150.245 118.456ZM153.598 111.809C153.881 111.208 154.3 110.755 154.856 110.449C155.422 110.143 156.119 109.99 156.947 109.99V111.163L156.658 111.146C155.717 111.146 154.98 111.435 154.448 112.013C153.915 112.591 153.649 113.401 153.649 114.444V119H152.442V110.058H153.598V111.809ZM166.835 114.903H159.355C159.423 115.832 159.78 116.586 160.426 117.164C161.072 117.731 161.888 118.014 162.874 118.014C163.43 118.014 163.94 117.918 164.404 117.725C164.869 117.521 165.271 117.226 165.611 116.841L166.291 117.623C165.895 118.099 165.396 118.462 164.795 118.711C164.206 118.96 163.554 119.085 162.84 119.085C161.922 119.085 161.106 118.892 160.392 118.507C159.69 118.11 159.14 117.566 158.743 116.875C158.347 116.184 158.148 115.402 158.148 114.529C158.148 113.656 158.335 112.874 158.709 112.183C159.095 111.492 159.616 110.953 160.273 110.568C160.942 110.183 161.69 109.99 162.517 109.99C163.345 109.99 164.087 110.183 164.744 110.568C165.402 110.953 165.917 111.492 166.291 112.183C166.665 112.863 166.852 113.645 166.852 114.529L166.835 114.903ZM162.517 111.027C161.656 111.027 160.931 111.305 160.341 111.86C159.763 112.404 159.435 113.118 159.355 114.002H165.696C165.617 113.118 165.283 112.404 164.693 111.86C164.115 111.305 163.39 111.027 162.517 111.027ZM181.272 110.058L177.294 119H176.053L172.092 110.058H173.35L176.699 117.674L180.082 110.058H181.272ZM186.378 119.085C185.517 119.085 184.74 118.892 184.049 118.507C183.358 118.11 182.814 117.566 182.417 116.875C182.02 116.184 181.822 115.402 181.822 114.529C181.822 113.656 182.02 112.874 182.417 112.183C182.814 111.492 183.358 110.953 184.049 110.568C184.74 110.183 185.517 109.99 186.378 109.99C187.239 109.99 188.016 110.183 188.707 110.568C189.398 110.953 189.937 111.492 190.322 112.183C190.719 112.874 190.917 113.656 190.917 114.529C190.917 115.402 190.719 116.184 190.322 116.875C189.937 117.566 189.398 118.11 188.707 118.507C188.016 118.892 187.239 119.085 186.378 119.085ZM186.378 118.014C187.013 118.014 187.579 117.872 188.078 117.589C188.588 117.294 188.985 116.881 189.268 116.348C189.551 115.815 189.693 115.209 189.693 114.529C189.693 113.849 189.551 113.243 189.268 112.71C188.985 112.177 188.588 111.769 188.078 111.486C187.579 111.191 187.013 111.044 186.378 111.044C185.743 111.044 185.171 111.191 184.661 111.486C184.162 111.769 183.766 112.177 183.471 112.71C183.188 113.243 183.046 113.849 183.046 114.529C183.046 115.209 183.188 115.815 183.471 116.348C183.766 116.881 184.162 117.294 184.661 117.589C185.171 117.872 185.743 118.014 186.378 118.014ZM201.439 110.058V119H200.283V117.368C199.966 117.912 199.53 118.337 198.974 118.643C198.419 118.938 197.784 119.085 197.07 119.085C195.903 119.085 194.979 118.762 194.299 118.116C193.631 117.459 193.296 116.501 193.296 115.243V110.058H194.503V115.124C194.503 116.065 194.736 116.779 195.2 117.266C195.665 117.753 196.328 117.997 197.189 117.997C198.13 117.997 198.872 117.714 199.416 117.147C199.96 116.569 200.232 115.77 200.232 114.75V110.058H201.439ZM207.217 119.085C206.491 119.085 205.794 118.983 205.126 118.779C204.468 118.564 203.953 118.297 203.579 117.98L204.123 117.028C204.497 117.323 204.967 117.566 205.534 117.759C206.1 117.94 206.69 118.031 207.302 118.031C208.118 118.031 208.718 117.906 209.104 117.657C209.5 117.396 209.699 117.034 209.699 116.569C209.699 116.24 209.591 115.985 209.376 115.804C209.16 115.611 208.888 115.47 208.56 115.379C208.231 115.277 207.795 115.181 207.251 115.09C206.525 114.954 205.942 114.818 205.5 114.682C205.058 114.535 204.678 114.291 204.361 113.951C204.055 113.611 203.902 113.141 203.902 112.54C203.902 111.792 204.213 111.18 204.837 110.704C205.46 110.228 206.327 109.99 207.438 109.99C208.016 109.99 208.594 110.069 209.172 110.228C209.75 110.375 210.226 110.574 210.6 110.823L210.073 111.792C209.336 111.282 208.458 111.027 207.438 111.027C206.667 111.027 206.083 111.163 205.687 111.435C205.301 111.707 205.109 112.064 205.109 112.506C205.109 112.846 205.216 113.118 205.432 113.322C205.658 113.526 205.936 113.679 206.265 113.781C206.593 113.872 207.047 113.968 207.625 114.07C208.339 114.206 208.911 114.342 209.342 114.478C209.772 114.614 210.141 114.846 210.447 115.175C210.753 115.504 210.906 115.957 210.906 116.535C210.906 117.317 210.577 117.94 209.92 118.405C209.274 118.858 208.373 119.085 207.217 119.085ZM220.714 109.99C221.882 109.99 222.777 110.285 223.4 110.874C224.024 111.452 224.335 112.313 224.335 113.458V119H223.179V117.606C222.907 118.071 222.505 118.433 221.972 118.694C221.451 118.955 220.828 119.085 220.102 119.085C219.105 119.085 218.312 118.847 217.722 118.371C217.133 117.895 216.838 117.266 216.838 116.484C216.838 115.725 217.11 115.113 217.654 114.648C218.21 114.183 219.088 113.951 220.289 113.951H223.128V113.407C223.128 112.636 222.913 112.053 222.482 111.656C222.052 111.248 221.423 111.044 220.595 111.044C220.029 111.044 219.485 111.14 218.963 111.333C218.442 111.514 217.994 111.769 217.62 112.098L217.076 111.197C217.53 110.812 218.074 110.517 218.708 110.313C219.343 110.098 220.012 109.99 220.714 109.99ZM220.289 118.133C220.969 118.133 221.553 117.98 222.04 117.674C222.528 117.357 222.89 116.903 223.128 116.314V114.852H220.323C218.793 114.852 218.028 115.385 218.028 116.45C218.028 116.971 218.227 117.385 218.623 117.691C219.02 117.986 219.575 118.133 220.289 118.133ZM227.614 110.058H228.821V119H227.614V110.058ZM228.226 108.103C227.976 108.103 227.767 108.018 227.597 107.848C227.427 107.678 227.342 107.474 227.342 107.236C227.342 107.009 227.427 106.811 227.597 106.641C227.767 106.471 227.976 106.386 228.226 106.386C228.475 106.386 228.685 106.471 228.855 106.641C229.025 106.8 229.11 106.992 229.11 107.219C229.11 107.468 229.025 107.678 228.855 107.848C228.685 108.018 228.475 108.103 228.226 108.103ZM240.339 106.386V119H239.183V117.232C238.82 117.833 238.339 118.292 237.738 118.609C237.149 118.926 236.48 119.085 235.732 119.085C234.893 119.085 234.134 118.892 233.454 118.507C232.774 118.122 232.241 117.583 231.856 116.892C231.471 116.201 231.278 115.413 231.278 114.529C231.278 113.645 231.471 112.857 231.856 112.166C232.241 111.475 232.774 110.942 233.454 110.568C234.134 110.183 234.893 109.99 235.732 109.99C236.457 109.99 237.109 110.143 237.687 110.449C238.276 110.744 238.758 111.18 239.132 111.758V106.386H240.339ZM235.834 118.014C236.457 118.014 237.018 117.872 237.517 117.589C238.027 117.294 238.424 116.881 238.707 116.348C239.002 115.815 239.149 115.209 239.149 114.529C239.149 113.849 239.002 113.243 238.707 112.71C238.424 112.177 238.027 111.769 237.517 111.486C237.018 111.191 236.457 111.044 235.834 111.044C235.199 111.044 234.627 111.191 234.117 111.486C233.618 111.769 233.222 112.177 232.927 112.71C232.644 113.243 232.502 113.849 232.502 114.529C232.502 115.209 232.644 115.815 232.927 116.348C233.222 116.881 233.618 117.294 234.117 117.589C234.627 117.872 235.199 118.014 235.834 118.014ZM251.487 114.903H244.007C244.075 115.832 244.432 116.586 245.078 117.164C245.724 117.731 246.54 118.014 247.526 118.014C248.081 118.014 248.591 117.918 249.056 117.725C249.52 117.521 249.923 117.226 250.263 116.841L250.943 117.623C250.546 118.099 250.047 118.462 249.447 118.711C248.857 118.96 248.206 119.085 247.492 119.085C246.574 119.085 245.758 118.892 245.044 118.507C244.341 118.11 243.791 117.566 243.395 116.875C242.998 116.184 242.8 115.402 242.8 114.529C242.8 113.656 242.987 112.874 243.361 112.183C243.746 111.492 244.267 110.953 244.925 110.568C245.593 110.183 246.341 109.99 247.169 109.99C247.996 109.99 248.738 110.183 249.396 110.568C250.053 110.953 250.569 111.492 250.943 112.183C251.317 112.863 251.504 113.645 251.504 114.529L251.487 114.903ZM247.169 111.027C246.307 111.027 245.582 111.305 244.993 111.86C244.415 112.404 244.086 113.118 244.007 114.002H250.348C250.268 113.118 249.934 112.404 249.345 111.86C248.767 111.305 248.041 111.027 247.169 111.027ZM255.116 111.809C255.4 111.208 255.819 110.755 256.374 110.449C256.941 110.143 257.638 109.99 258.465 109.99V111.163L258.176 111.146C257.236 111.146 256.499 111.435 255.966 112.013C255.434 112.591 255.167 113.401 255.167 114.444V119H253.96V110.058H255.116V111.809ZM267.545 115.43C267.545 114.965 267.618 114.557 267.766 114.206C267.924 113.855 268.117 113.554 268.344 113.305C268.57 113.056 268.865 112.772 269.228 112.455C269.715 112.024 270.072 111.65 270.299 111.333C270.537 111.004 270.656 110.608 270.656 110.143C270.656 109.52 270.412 109.021 269.925 108.647C269.437 108.262 268.769 108.069 267.919 108.069C266.513 108.069 265.431 108.528 264.672 109.446L263.771 108.766C264.734 107.587 266.145 106.998 268.004 106.998C269.194 106.998 270.14 107.264 270.843 107.797C271.557 108.33 271.914 109.049 271.914 109.956C271.914 110.421 271.834 110.834 271.676 111.197C271.528 111.548 271.341 111.849 271.115 112.098C270.899 112.347 270.61 112.636 270.248 112.965C269.76 113.407 269.398 113.804 269.16 114.155C268.922 114.495 268.803 114.92 268.803 115.43H267.545ZM268.174 119.085C267.924 119.085 267.715 119 267.545 118.83C267.375 118.649 267.29 118.439 267.29 118.201C267.29 117.952 267.375 117.748 267.545 117.589C267.715 117.419 267.924 117.334 268.174 117.334C268.434 117.334 268.65 117.419 268.82 117.589C268.99 117.748 269.075 117.952 269.075 118.201C269.075 118.439 268.984 118.649 268.803 118.83C268.633 119 268.423 119.085 268.174 119.085Z" fill="white"/>
</svg>
