<svg width="278" height="230" viewBox="0 0 278 230" fill="none" xmlns="http://www.w3.org/2000/svg">
<path d="M251.229 186.667H104.464L50.9216 228.598C45.9816 232.644 39.2888 227.311 40.8823 220.506L48.5313 186.851H28.7715C13.9516 186.851 2.15942 173.058 2.15942 155.771V31.0805C2.15942 13.9771 14.1109 0 28.7715 0H251.388C266.208 0 278 13.7931 278 31.0805V155.771C278 172.874 265.889 186.667 251.229 186.667Z" fill="#F1B705"/>
<path d="M251.229 0H191.63C187.806 86.9887 125.658 155.954 49.6466 155.954C32.9145 155.954 16.8199 152.644 2 146.575V155.771C2 172.874 13.9515 186.851 28.612 186.851H48.2125L40.5635 220.506C38.9699 227.311 45.5035 232.644 50.6028 228.598L104.145 186.667H250.91C265.73 186.667 277.522 172.874 277.522 155.587V30.8966C278 13.7931 265.889 0 251.229 0Z" fill="#EEAD07"/>
<path d="M2 31.0161V155.984C2 173.148 15.9058 187 32.9858 187H247.014C264.094 187 278 173.148 278 155.984V31.0161C278 13.8519 264.094 0 247.014 0H32.9858C15.9058 0.150564 2 14.0024 2 31.0161Z" fill="#F1B705"/>
<path d="M0 31.2208V157.627C0 174.989 14.0066 189 31.2103 189H158.183H178.786C188.859 189 191.377 189 204.471 189H223.801H246.79C263.993 189 278 174.989 278 157.627V148.185C260.644 154.429 241.918 157.779 222.278 157.779C193.504 157.779 166.404 150.469 142.806 137.524C141.436 136.762 140.218 136.153 139 135.392C91.8039 107.978 59.2234 57.8727 56.483 0H31.2103C14.0066 0 0 14.0113 0 31.2208Z" fill="#EEAD07"/>
<path d="M40.545 70.141C41.419 70.331 42.0903 70.711 42.559 71.281C43.0403 71.8383 43.281 72.5603 43.281 73.447C43.281 74.587 42.8567 75.4673 42.008 76.088C41.172 76.696 39.9307 77 38.284 77H32.166V63.7H37.904C39.386 63.7 40.5323 63.9977 41.343 64.593C42.1663 65.1883 42.578 66.0307 42.578 67.12C42.578 67.8547 42.3943 68.4817 42.027 69.001C41.6723 69.5077 41.1783 69.8877 40.545 70.141ZM33.572 64.859V69.685H37.809C38.8857 69.685 39.7153 69.4823 40.298 69.077C40.8807 68.659 41.172 68.0573 41.172 67.272C41.172 66.4867 40.8807 65.8913 40.298 65.486C39.7153 65.068 38.8857 64.859 37.809 64.859H33.572ZM38.265 75.841C39.4557 75.841 40.355 75.6383 40.963 75.233C41.571 74.8277 41.875 74.1943 41.875 73.333C41.875 71.6737 40.6717 70.844 38.265 70.844H33.572V75.841H38.265ZM50.2902 77.095C49.3276 77.095 48.4599 76.8797 47.6872 76.449C46.9146 76.0057 46.3066 75.3977 45.8632 74.625C45.4199 73.8523 45.1982 72.9783 45.1982 72.003C45.1982 71.0277 45.4199 70.1537 45.8632 69.381C46.3066 68.6083 46.9146 68.0067 47.6872 67.576C48.4599 67.1453 49.3276 66.93 50.2902 66.93C51.2529 66.93 52.1206 67.1453 52.8932 67.576C53.6659 68.0067 54.2676 68.6083 54.6982 69.381C55.1416 70.1537 55.3632 71.0277 55.3632 72.003C55.3632 72.9783 55.1416 73.8523 54.6982 74.625C54.2676 75.3977 53.6659 76.0057 52.8932 76.449C52.1206 76.8797 51.2529 77.095 50.2902 77.095ZM50.2902 75.898C50.9996 75.898 51.6329 75.7397 52.1902 75.423C52.7602 75.0937 53.2036 74.6313 53.5202 74.036C53.8369 73.4407 53.9952 72.763 53.9952 72.003C53.9952 71.243 53.8369 70.5653 53.5202 69.97C53.2036 69.3747 52.7602 68.9187 52.1902 68.602C51.6329 68.2727 50.9996 68.108 50.2902 68.108C49.5809 68.108 48.9412 68.2727 48.3712 68.602C47.8139 68.9187 47.3706 69.3747 47.0412 69.97C46.7246 70.5653 46.5662 71.243 46.5662 72.003C46.5662 72.763 46.7246 73.4407 47.0412 74.036C47.3706 74.6313 47.8139 75.0937 48.3712 75.423C48.9412 75.7397 49.5809 75.898 50.2902 75.898ZM63.2093 66.93C64.4633 66.93 65.4577 67.2973 66.1923 68.032C66.9397 68.754 67.3133 69.8117 67.3133 71.205V77H65.9643V71.338C65.9643 70.2993 65.7047 69.5077 65.1853 68.963C64.666 68.4183 63.925 68.146 62.9623 68.146C61.8857 68.146 61.0307 68.469 60.3973 69.115C59.7767 69.7483 59.4663 70.6287 59.4663 71.756V77H58.1173V67.006H59.4093V68.849C59.7767 68.241 60.2833 67.7723 60.9293 67.443C61.588 67.101 62.348 66.93 63.2093 66.93ZM69.4937 80.781C69.0757 80.781 68.6831 80.724 68.3157 80.61C67.9357 80.5087 67.6254 80.3503 67.3847 80.135L67.8597 79.109C68.2524 79.451 68.7717 79.622 69.4177 79.622C69.9497 79.622 70.3551 79.4637 70.6337 79.147C70.9251 78.8303 71.0707 78.3617 71.0707 77.741V67.006H72.4197V77.741C72.4197 78.6783 72.1664 79.4193 71.6597 79.964C71.1531 80.5087 70.4311 80.781 69.4937 80.781ZM71.7547 64.802C71.4761 64.802 71.2417 64.707 71.0517 64.517C70.8617 64.327 70.7667 64.099 70.7667 63.833C70.7667 63.5797 70.8617 63.358 71.0517 63.168C71.2417 62.978 71.4761 62.883 71.7547 62.883C72.0334 62.883 72.2677 62.978 72.4577 63.168C72.6477 63.3453 72.7427 63.5607 72.7427 63.814C72.7427 64.0927 72.6477 64.327 72.4577 64.517C72.2677 64.707 72.0334 64.802 71.7547 64.802ZM80.2746 77.095C79.3119 77.095 78.4443 76.8797 77.6716 76.449C76.8989 76.0057 76.2909 75.3977 75.8476 74.625C75.4043 73.8523 75.1826 72.9783 75.1826 72.003C75.1826 71.0277 75.4043 70.1537 75.8476 69.381C76.2909 68.6083 76.8989 68.0067 77.6716 67.576C78.4443 67.1453 79.3119 66.93 80.2746 66.93C81.2373 66.93 82.1049 67.1453 82.8776 67.576C83.6503 68.0067 84.2519 68.6083 84.6826 69.381C85.1259 70.1537 85.3476 71.0277 85.3476 72.003C85.3476 72.9783 85.1259 73.8523 84.6826 74.625C84.2519 75.3977 83.6503 76.0057 82.8776 76.449C82.1049 76.8797 81.2373 77.095 80.2746 77.095ZM80.2746 75.898C80.9839 75.898 81.6173 75.7397 82.1746 75.423C82.7446 75.0937 83.1879 74.6313 83.5046 74.036C83.8213 73.4407 83.9796 72.763 83.9796 72.003C83.9796 71.243 83.8213 70.5653 83.5046 69.97C83.1879 69.3747 82.7446 68.9187 82.1746 68.602C81.6173 68.2727 80.9839 68.108 80.2746 68.108C79.5653 68.108 78.9256 68.2727 78.3556 68.602C77.7983 68.9187 77.3549 69.3747 77.0256 69.97C76.7089 70.5653 76.5506 71.243 76.5506 72.003C76.5506 72.763 76.7089 73.4407 77.0256 74.036C77.3549 74.6313 77.7983 75.0937 78.3556 75.423C78.9256 75.7397 79.5653 75.898 80.2746 75.898ZM97.1077 67.006V77H95.8157V75.176C95.461 75.784 94.9734 76.259 94.3527 76.601C93.732 76.9303 93.0227 77.095 92.2247 77.095C90.92 77.095 89.8877 76.734 89.1277 76.012C88.3804 75.2773 88.0067 74.207 88.0067 72.801V67.006H89.3557V72.668C89.3557 73.7193 89.6154 74.5173 90.1347 75.062C90.654 75.6067 91.395 75.879 92.3577 75.879C93.409 75.879 94.2387 75.5623 94.8467 74.929C95.4547 74.283 95.7587 73.39 95.7587 72.25V67.006H97.1077ZM102.178 68.963C102.495 68.2917 102.963 67.785 103.584 67.443C104.217 67.101 104.996 66.93 105.921 66.93V68.241L105.598 68.222C104.547 68.222 103.723 68.545 103.128 69.191C102.533 69.837 102.235 70.7427 102.235 71.908V77H100.886V67.006H102.178V68.963ZM113.276 63.7H114.872L114.587 73.01H113.542L113.276 63.7ZM114.074 77.095C113.795 77.095 113.554 77 113.352 76.81C113.162 76.6073 113.067 76.373 113.067 76.107C113.067 75.8283 113.162 75.6003 113.352 75.423C113.542 75.233 113.782 75.138 114.074 75.138C114.352 75.138 114.587 75.233 114.777 75.423C114.967 75.6003 115.062 75.8283 115.062 76.107C115.062 76.373 114.967 76.6073 114.777 76.81C114.587 77 114.352 77.095 114.074 77.095ZM134.736 63.7L128.846 77H127.459L121.569 63.7H123.089L128.181 75.252L133.311 63.7H134.736ZM139.705 77.095C138.743 77.095 137.875 76.8797 137.102 76.449C136.33 76.0057 135.722 75.3977 135.278 74.625C134.835 73.8523 134.613 72.9783 134.613 72.003C134.613 71.0277 134.835 70.1537 135.278 69.381C135.722 68.6083 136.33 68.0067 137.102 67.576C137.875 67.1453 138.743 66.93 139.705 66.93C140.668 66.93 141.536 67.1453 142.308 67.576C143.081 68.0067 143.683 68.6083 144.113 69.381C144.557 70.1537 144.778 71.0277 144.778 72.003C144.778 72.9783 144.557 73.8523 144.113 74.625C143.683 75.3977 143.081 76.0057 142.308 76.449C141.536 76.8797 140.668 77.095 139.705 77.095ZM139.705 75.898C140.415 75.898 141.048 75.7397 141.605 75.423C142.175 75.0937 142.619 74.6313 142.935 74.036C143.252 73.4407 143.41 72.763 143.41 72.003C143.41 71.243 143.252 70.5653 142.935 69.97C142.619 69.3747 142.175 68.9187 141.605 68.602C141.048 68.2727 140.415 68.108 139.705 68.108C138.996 68.108 138.356 68.2727 137.786 68.602C137.229 68.9187 136.786 69.3747 136.456 69.97C136.14 70.5653 135.981 71.243 135.981 72.003C135.981 72.763 136.14 73.4407 136.456 74.036C136.786 74.6313 137.229 75.0937 137.786 75.423C138.356 75.7397 138.996 75.898 139.705 75.898ZM156.538 67.006V77H155.246V75.176C154.892 75.784 154.404 76.259 153.783 76.601C153.163 76.9303 152.453 77.095 151.655 77.095C150.351 77.095 149.318 76.734 148.558 76.012C147.811 75.2773 147.437 74.207 147.437 72.801V67.006H148.786V72.668C148.786 73.7193 149.046 74.5173 149.565 75.062C150.085 75.6067 150.826 75.879 151.788 75.879C152.84 75.879 153.669 75.5623 154.277 74.929C154.885 74.283 155.189 73.39 155.189 72.25V67.006H156.538ZM162.996 77.095C162.185 77.095 161.406 76.981 160.659 76.753C159.924 76.5123 159.348 76.2147 158.93 75.86L159.538 74.796C159.956 75.1253 160.481 75.3977 161.115 75.613C161.748 75.8157 162.407 75.917 163.091 75.917C164.003 75.917 164.674 75.7777 165.105 75.499C165.548 75.2077 165.77 74.8023 165.77 74.283C165.77 73.9157 165.649 73.6307 165.409 73.428C165.168 73.2127 164.864 73.0543 164.497 72.953C164.129 72.839 163.642 72.7313 163.034 72.63C162.223 72.478 161.571 72.326 161.077 72.174C160.583 72.0093 160.158 71.737 159.804 71.357C159.462 70.977 159.291 70.4513 159.291 69.78C159.291 68.944 159.639 68.26 160.336 67.728C161.032 67.196 162.001 66.93 163.243 66.93C163.889 66.93 164.535 67.0187 165.181 67.196C165.827 67.3607 166.359 67.5823 166.777 67.861L166.188 68.944C165.364 68.374 164.383 68.089 163.243 68.089C162.381 68.089 161.729 68.241 161.286 68.545C160.855 68.849 160.64 69.248 160.64 69.742C160.64 70.122 160.76 70.426 161.001 70.654C161.254 70.882 161.564 71.053 161.932 71.167C162.299 71.2683 162.806 71.376 163.452 71.49C164.25 71.642 164.889 71.794 165.371 71.946C165.852 72.098 166.264 72.3577 166.606 72.725C166.948 73.0923 167.119 73.599 167.119 74.245C167.119 75.119 166.751 75.8157 166.017 76.335C165.295 76.8417 164.288 77.095 162.996 77.095ZM178.081 66.93C179.386 66.93 180.386 67.2593 181.083 67.918C181.78 68.564 182.128 69.5267 182.128 70.806V77H180.836V75.442C180.532 75.9613 180.082 76.3667 179.487 76.658C178.904 76.9493 178.208 77.095 177.397 77.095C176.282 77.095 175.396 76.829 174.737 76.297C174.078 75.765 173.749 75.062 173.749 74.188C173.749 73.3393 174.053 72.6553 174.661 72.136C175.282 71.6167 176.263 71.357 177.606 71.357H180.779V70.749C180.779 69.8877 180.538 69.2353 180.057 68.792C179.576 68.336 178.873 68.108 177.948 68.108C177.315 68.108 176.707 68.2157 176.124 68.431C175.541 68.6337 175.041 68.9187 174.623 69.286L174.015 68.279C174.522 67.8483 175.13 67.519 175.839 67.291C176.548 67.0503 177.296 66.93 178.081 66.93ZM177.606 76.031C178.366 76.031 179.018 75.86 179.563 75.518C180.108 75.1633 180.513 74.6567 180.779 73.998V72.364H177.644C175.934 72.364 175.079 72.9593 175.079 74.15C175.079 74.7327 175.301 75.195 175.744 75.537C176.187 75.8663 176.808 76.031 177.606 76.031ZM194.005 67.006L189.559 77H188.172L183.745 67.006H185.151L188.894 75.518L192.675 67.006H194.005ZM204.328 72.421H195.968C196.044 73.4597 196.443 74.302 197.165 74.948C197.887 75.5813 198.799 75.898 199.901 75.898C200.522 75.898 201.092 75.7903 201.611 75.575C202.13 75.347 202.58 75.0177 202.96 74.587L203.72 75.461C203.277 75.993 202.719 76.3983 202.048 76.677C201.389 76.9557 200.661 77.095 199.863 77.095C198.837 77.095 197.925 76.8797 197.127 76.449C196.342 76.0057 195.727 75.3977 195.284 74.625C194.841 73.8523 194.619 72.9783 194.619 72.003C194.619 71.0277 194.828 70.1537 195.246 69.381C195.677 68.6083 196.259 68.0067 196.994 67.576C197.741 67.1453 198.577 66.93 199.502 66.93C200.427 66.93 201.256 67.1453 201.991 67.576C202.726 68.0067 203.302 68.6083 203.72 69.381C204.138 70.141 204.347 71.015 204.347 72.003L204.328 72.421ZM199.502 68.089C198.539 68.089 197.729 68.3993 197.07 69.02C196.424 69.628 196.057 70.426 195.968 71.414H203.055C202.966 70.426 202.593 69.628 201.934 69.02C201.288 68.3993 200.477 68.089 199.502 68.089ZM214.049 75.879V77H205.917V76.107L212.206 68.146H206.031V67.006H213.935V67.899L207.646 75.879H214.049ZM221.677 62.902H223.026V77H221.677V62.902ZM226.931 62.807C227.223 62.807 227.463 62.9083 227.653 63.111C227.843 63.301 227.938 63.5417 227.938 63.833C227.938 63.985 227.913 64.1497 227.862 64.327C227.824 64.4917 227.767 64.688 227.691 64.916L226.874 67.538H225.962L226.627 64.802C226.412 64.7387 226.241 64.6247 226.114 64.46C225.988 64.2827 225.924 64.0737 225.924 63.833C225.924 63.529 226.019 63.282 226.209 63.092C226.399 62.902 226.64 62.807 226.931 62.807ZM234.116 66.93C235.421 66.93 236.422 67.2593 237.118 67.918C237.815 68.564 238.163 69.5267 238.163 70.806V77H236.871V75.442C236.567 75.9613 236.118 76.3667 235.522 76.658C234.94 76.9493 234.243 77.095 233.432 77.095C232.318 77.095 231.431 76.829 230.772 76.297C230.114 75.765 229.784 75.062 229.784 74.188C229.784 73.3393 230.088 72.6553 230.696 72.136C231.317 71.6167 232.299 71.357 233.641 71.357H236.814V70.749C236.814 69.8877 236.574 69.2353 236.092 68.792C235.611 68.336 234.908 68.108 233.983 68.108C233.35 68.108 232.742 68.2157 232.159 68.431C231.577 68.6337 231.076 68.9187 230.658 69.286L230.05 68.279C230.557 67.8483 231.165 67.519 231.874 67.291C232.584 67.0503 233.331 66.93 234.116 66.93ZM233.641 76.031C234.401 76.031 235.054 75.86 235.598 75.518C236.143 75.1633 236.548 74.6567 236.814 73.998V72.364H233.679C231.969 72.364 231.114 72.9593 231.114 74.15C231.114 74.7327 231.336 75.195 231.779 75.537C232.223 75.8663 232.843 76.031 233.641 76.031ZM241.827 67.006H243.176V77H241.827V67.006ZM242.511 64.821C242.233 64.821 241.998 64.726 241.808 64.536C241.618 64.346 241.523 64.118 241.523 63.852C241.523 63.5987 241.618 63.377 241.808 63.187C241.998 62.997 242.233 62.902 242.511 62.902C242.79 62.902 243.024 62.997 243.214 63.187C243.404 63.3643 243.499 63.5797 243.499 63.833C243.499 64.1117 243.404 64.346 243.214 64.536C243.024 64.726 242.79 64.821 242.511 64.821ZM248.222 68.963C248.538 68.2917 249.007 67.785 249.628 67.443C250.261 67.101 251.04 66.93 251.965 66.93V68.241L251.642 68.222C250.59 68.222 249.767 68.545 249.172 69.191C248.576 69.837 248.279 70.7427 248.279 71.908V77H246.93V67.006H248.222V68.963ZM40.887 90.006V100H39.595V98.176C39.2403 98.784 38.7527 99.259 38.132 99.601C37.5113 99.9303 36.802 100.095 36.004 100.095C34.6993 100.095 33.667 99.734 32.907 99.012C32.1597 98.2773 31.786 97.207 31.786 95.801V90.006H33.135V95.668C33.135 96.7193 33.3947 97.5173 33.914 98.062C34.4333 98.6067 35.1743 98.879 36.137 98.879C37.1883 98.879 38.018 98.5623 38.626 97.929C39.234 97.283 39.538 96.39 39.538 95.25V90.006H40.887ZM49.7572 89.93C51.0112 89.93 52.0055 90.2973 52.7402 91.032C53.4875 91.754 53.8612 92.8117 53.8612 94.205V100H52.5122V94.338C52.5122 93.2993 52.2525 92.5077 51.7332 91.963C51.2138 91.4183 50.4728 91.146 49.5102 91.146C48.4335 91.146 47.5785 91.469 46.9452 92.115C46.3245 92.7483 46.0142 93.6287 46.0142 94.756V100H44.6652V90.006H45.9572V91.849C46.3245 91.241 46.8312 90.7723 47.4772 90.443C48.1358 90.101 48.8958 89.93 49.7572 89.93ZM67.6452 89.93C68.5826 89.93 69.4312 90.1453 70.1912 90.576C70.9512 90.994 71.5466 91.5893 71.9772 92.362C72.4079 93.1347 72.6232 94.015 72.6232 95.003C72.6232 96.0037 72.4079 96.8903 71.9772 97.663C71.5466 98.4357 70.9512 99.0373 70.1912 99.468C69.4439 99.886 68.5952 100.095 67.6452 100.095C66.8346 100.095 66.0999 99.9303 65.4412 99.601C64.7952 99.259 64.2632 98.765 63.8452 98.119V103.686H62.4962V90.006H63.7882V91.982C64.1936 91.3233 64.7256 90.8167 65.3842 90.462C66.0556 90.1073 66.8092 89.93 67.6452 89.93ZM67.5502 98.898C68.2469 98.898 68.8802 98.7397 69.4502 98.423C70.0202 98.0937 70.4636 97.6313 70.7802 97.036C71.1096 96.4407 71.2742 95.763 71.2742 95.003C71.2742 94.243 71.1096 93.5717 70.7802 92.989C70.4636 92.3937 70.0202 91.9313 69.4502 91.602C68.8802 91.2727 68.2469 91.108 67.5502 91.108C66.8409 91.108 66.2012 91.2727 65.6312 91.602C65.0739 91.9313 64.6306 92.3937 64.3012 92.989C63.9846 93.5717 63.8262 94.243 63.8262 95.003C63.8262 95.763 63.9846 96.4407 64.3012 97.036C64.6306 97.6313 65.0739 98.0937 65.6312 98.423C66.2012 98.7397 66.8409 98.898 67.5502 98.898ZM84.0752 95.421H75.7152C75.7912 96.4597 76.1902 97.302 76.9122 97.948C77.6342 98.5813 78.5462 98.898 79.6482 98.898C80.2689 98.898 80.8389 98.7903 81.3582 98.575C81.8775 98.347 82.3272 98.0177 82.7072 97.587L83.4672 98.461C83.0239 98.993 82.4665 99.3983 81.7952 99.677C81.1365 99.9557 80.4082 100.095 79.6102 100.095C78.5842 100.095 77.6722 99.8797 76.8742 99.449C76.0889 99.0057 75.4745 98.3977 75.0312 97.625C74.5879 96.8523 74.3662 95.9783 74.3662 95.003C74.3662 94.0277 74.5752 93.1537 74.9932 92.381C75.4239 91.6083 76.0065 91.0067 76.7412 90.576C77.4885 90.1453 78.3245 89.93 79.2492 89.93C80.1739 89.93 81.0035 90.1453 81.7382 90.576C82.4729 91.0067 83.0492 91.6083 83.4672 92.381C83.8852 93.141 84.0942 94.015 84.0942 95.003L84.0752 95.421ZM79.2492 91.089C78.2865 91.089 77.4759 91.3993 76.8172 92.02C76.1712 92.628 75.8039 93.426 75.7152 94.414H82.8022C82.7135 93.426 82.3399 92.628 81.6812 92.02C81.0352 91.3993 80.2245 91.089 79.2492 91.089ZM95.846 90.006V100H94.554V98.176C94.1993 98.784 93.7117 99.259 93.091 99.601C92.4703 99.9303 91.761 100.095 90.963 100.095C89.6583 100.095 88.626 99.734 87.866 99.012C87.1187 98.2773 86.745 97.207 86.745 95.801V90.006H88.094V95.668C88.094 96.7193 88.3537 97.5173 88.873 98.062C89.3923 98.6067 90.1333 98.879 91.096 98.879C92.1473 98.879 92.977 98.5623 93.585 97.929C94.193 97.283 94.497 96.39 94.497 95.25V90.006H95.846ZM109.746 89.93C110.683 89.93 111.532 90.1453 112.292 90.576C113.052 90.994 113.647 91.5893 114.078 92.362C114.508 93.1347 114.724 94.015 114.724 95.003C114.724 96.0037 114.508 96.8903 114.078 97.663C113.647 98.4357 113.052 99.0373 112.292 99.468C111.544 99.886 110.696 100.095 109.746 100.095C108.935 100.095 108.2 99.9303 107.542 99.601C106.896 99.259 106.364 98.765 105.946 98.119V103.686H104.597V90.006H105.889V91.982C106.294 91.3233 106.826 90.8167 107.485 90.462C108.156 90.1073 108.91 89.93 109.746 89.93ZM109.651 98.898C110.347 98.898 110.981 98.7397 111.551 98.423C112.121 98.0937 112.564 97.6313 112.881 97.036C113.21 96.4407 113.375 95.763 113.375 95.003C113.375 94.243 113.21 93.5717 112.881 92.989C112.564 92.3937 112.121 91.9313 111.551 91.602C110.981 91.2727 110.347 91.108 109.651 91.108C108.941 91.108 108.302 91.2727 107.732 91.602C107.174 91.9313 106.731 92.3937 106.402 92.989C106.085 93.5717 105.927 94.243 105.927 95.003C105.927 95.763 106.085 96.4407 106.402 97.036C106.731 97.6313 107.174 98.0937 107.732 98.423C108.302 98.7397 108.941 98.898 109.651 98.898ZM126.176 95.421H117.816C117.892 96.4597 118.291 97.302 119.013 97.948C119.735 98.5813 120.647 98.898 121.749 98.898C122.369 98.898 122.939 98.7903 123.459 98.575C123.978 98.347 124.428 98.0177 124.808 97.587L125.568 98.461C125.124 98.993 124.567 99.3983 123.896 99.677C123.237 99.9557 122.509 100.095 121.711 100.095C120.685 100.095 119.773 99.8797 118.975 99.449C118.189 99.0057 117.575 98.3977 117.132 97.625C116.688 96.8523 116.467 95.9783 116.467 95.003C116.467 94.0277 116.676 93.1537 117.094 92.381C117.524 91.6083 118.107 91.0067 118.842 90.576C119.589 90.1453 120.425 89.93 121.35 89.93C122.274 89.93 123.104 90.1453 123.839 90.576C124.573 91.0067 125.15 91.6083 125.568 92.381C125.986 93.141 126.195 94.015 126.195 95.003L126.176 95.421ZM121.35 91.089C120.387 91.089 119.576 91.3993 118.918 92.02C118.272 92.628 117.904 93.426 117.816 94.414H124.903C124.814 93.426 124.44 92.628 123.782 92.02C123.136 91.3993 122.325 91.089 121.35 91.089ZM130.233 91.963C130.549 91.2917 131.018 90.785 131.639 90.443C132.272 90.101 133.051 89.93 133.976 89.93V91.241L133.653 91.222C132.601 91.222 131.778 91.545 131.183 92.191C130.587 92.837 130.29 93.7427 130.29 94.908V100H128.941V90.006H130.233V91.963ZM145.445 85.902V100H144.153V98.024C143.748 98.6953 143.21 99.2083 142.538 99.563C141.88 99.9177 141.132 100.095 140.296 100.095C139.359 100.095 138.51 99.8797 137.75 99.449C136.99 99.0183 136.395 98.4167 135.964 97.644C135.534 96.8713 135.318 95.991 135.318 95.003C135.318 94.015 135.534 93.1347 135.964 92.362C136.395 91.5893 136.99 90.994 137.75 90.576C138.51 90.1453 139.359 89.93 140.296 89.93C141.107 89.93 141.835 90.101 142.481 90.443C143.14 90.7723 143.678 91.26 144.096 91.906V85.902H145.445ZM140.41 98.898C141.107 98.898 141.734 98.7397 142.291 98.423C142.861 98.0937 143.305 97.6313 143.621 97.036C143.951 96.4407 144.115 95.763 144.115 95.003C144.115 94.243 143.951 93.5653 143.621 92.97C143.305 92.3747 142.861 91.9187 142.291 91.602C141.734 91.2727 141.107 91.108 140.41 91.108C139.701 91.108 139.061 91.2727 138.491 91.602C137.934 91.9187 137.491 92.3747 137.161 92.97C136.845 93.5653 136.686 94.243 136.686 95.003C136.686 95.763 136.845 96.4407 137.161 97.036C137.491 97.6313 137.934 98.0937 138.491 98.423C139.061 98.7397 139.701 98.898 140.41 98.898ZM158.208 90.006V100H156.916V98.176C156.562 98.784 156.074 99.259 155.453 99.601C154.833 99.9303 154.123 100.095 153.325 100.095C152.021 100.095 150.988 99.734 150.228 99.012C149.481 98.2773 149.107 97.207 149.107 95.801V90.006H150.456V95.668C150.456 96.7193 150.716 97.5173 151.235 98.062C151.755 98.6067 152.496 98.879 153.458 98.879C154.51 98.879 155.339 98.5623 155.947 97.929C156.555 97.283 156.859 96.39 156.859 95.25V90.006H158.208ZM162.119 100.095C161.841 100.095 161.6 99.9937 161.397 99.791C161.207 99.5883 161.112 99.3413 161.112 99.05C161.112 98.7587 161.207 98.518 161.397 98.328C161.6 98.1253 161.841 98.024 162.119 98.024C162.398 98.024 162.639 98.1253 162.841 98.328C163.044 98.518 163.145 98.7587 163.145 99.05C163.145 99.3413 163.044 99.5883 162.841 99.791C162.639 99.9937 162.398 100.095 162.119 100.095ZM172.695 100.114C171.935 100.114 171.232 99.9493 170.586 99.62C169.94 99.2907 169.415 98.822 169.009 98.214L169.845 97.264C170.58 98.3533 171.536 98.898 172.714 98.898C174.361 98.898 175.184 97.9227 175.184 95.972V87.916H170.32V86.7H176.571V95.915C176.571 97.3083 176.242 98.3597 175.583 99.069C174.937 99.7657 173.975 100.114 172.695 100.114ZM189.206 95.421H180.846C180.922 96.4597 181.321 97.302 182.043 97.948C182.765 98.5813 183.677 98.898 184.779 98.898C185.4 98.898 185.97 98.7903 186.489 98.575C187.008 98.347 187.458 98.0177 187.838 97.587L188.598 98.461C188.155 98.993 187.597 99.3983 186.926 99.677C186.267 99.9557 185.539 100.095 184.741 100.095C183.715 100.095 182.803 99.8797 182.005 99.449C181.22 99.0057 180.605 98.3977 180.162 97.625C179.719 96.8523 179.497 95.9783 179.497 95.003C179.497 94.0277 179.706 93.1537 180.124 92.381C180.555 91.6083 181.137 91.0067 181.872 90.576C182.619 90.1453 183.455 89.93 184.38 89.93C185.305 89.93 186.134 90.1453 186.869 90.576C187.604 91.0067 188.18 91.6083 188.598 92.381C189.016 93.141 189.225 94.015 189.225 95.003L189.206 95.421ZM184.38 91.089C183.417 91.089 182.607 91.3993 181.948 92.02C181.302 92.628 180.935 93.426 180.846 94.414H187.933C187.844 93.426 187.471 92.628 186.812 92.02C186.166 91.3993 185.355 91.089 184.38 91.089ZM202.093 89.93C203.03 89.93 203.879 90.1453 204.639 90.576C205.399 90.994 205.994 91.5893 206.425 92.362C206.855 93.1347 207.071 94.015 207.071 95.003C207.071 96.0037 206.855 96.8903 206.425 97.663C205.994 98.4357 205.399 99.0373 204.639 99.468C203.891 99.886 203.043 100.095 202.093 100.095C201.282 100.095 200.547 99.9303 199.889 99.601C199.243 99.259 198.711 98.765 198.293 98.119V103.686H196.944V90.006H198.236V91.982C198.641 91.3233 199.173 90.8167 199.832 90.462C200.503 90.1073 201.257 89.93 202.093 89.93ZM201.998 98.898C202.694 98.898 203.328 98.7397 203.898 98.423C204.468 98.0937 204.911 97.6313 205.228 97.036C205.557 96.4407 205.722 95.763 205.722 95.003C205.722 94.243 205.557 93.5717 205.228 92.989C204.911 92.3937 204.468 91.9313 203.898 91.602C203.328 91.2727 202.694 91.108 201.998 91.108C201.288 91.108 200.649 91.2727 200.078 91.602C199.521 91.9313 199.078 92.3937 198.749 92.989C198.432 93.5717 198.274 94.243 198.274 95.003C198.274 95.763 198.432 96.4407 198.749 97.036C199.078 97.6313 199.521 98.0937 200.078 98.423C200.649 98.7397 201.288 98.898 201.998 98.898ZM218.522 95.421H210.162C210.238 96.4597 210.637 97.302 211.359 97.948C212.081 98.5813 212.993 98.898 214.095 98.898C214.716 98.898 215.286 98.7903 215.805 98.575C216.325 98.347 216.774 98.0177 217.154 97.587L217.914 98.461C217.471 98.993 216.914 99.3983 216.242 99.677C215.584 99.9557 214.855 100.095 214.057 100.095C213.031 100.095 212.119 99.8797 211.321 99.449C210.536 99.0057 209.922 98.3977 209.478 97.625C209.035 96.8523 208.813 95.9783 208.813 95.003C208.813 94.0277 209.022 93.1537 209.44 92.381C209.871 91.6083 210.454 91.0067 211.188 90.576C211.936 90.1453 212.772 89.93 213.696 89.93C214.621 89.93 215.451 90.1453 216.185 90.576C216.92 91.0067 217.496 91.6083 217.914 92.381C218.332 93.141 218.541 94.015 218.541 95.003L218.522 95.421ZM213.696 91.089C212.734 91.089 211.923 91.3993 211.264 92.02C210.618 92.628 210.251 93.426 210.162 94.414H217.249C217.161 93.426 216.787 92.628 216.128 92.02C215.482 91.3993 214.672 91.089 213.696 91.089ZM230.293 90.006V100H229.001V98.176C228.647 98.784 228.159 99.259 227.538 99.601C226.918 99.9303 226.208 100.095 225.41 100.095C224.106 100.095 223.073 99.734 222.313 99.012C221.566 98.2773 221.192 97.207 221.192 95.801V90.006H222.541V95.668C222.541 96.7193 222.801 97.5173 223.32 98.062C223.84 98.6067 224.581 98.879 225.543 98.879C226.595 98.879 227.424 98.5623 228.032 97.929C228.64 97.283 228.944 96.39 228.944 95.25V90.006H230.293ZM240.436 100L237.263 95.82L234.071 100H232.551L236.503 94.87L232.741 90.006H234.261L237.263 93.92L240.265 90.006H241.747L237.985 94.87L241.975 100H240.436ZM37.03 112.93C37.9673 112.93 38.816 113.145 39.576 113.576C40.336 113.994 40.9313 114.589 41.362 115.362C41.7927 116.135 42.008 117.015 42.008 118.003C42.008 119.004 41.7927 119.89 41.362 120.663C40.9313 121.436 40.336 122.037 39.576 122.468C38.8287 122.886 37.98 123.095 37.03 123.095C36.2193 123.095 35.4847 122.93 34.826 122.601C34.18 122.259 33.648 121.765 33.23 121.119V126.686H31.881V113.006H33.173V114.982C33.5783 114.323 34.1103 113.817 34.769 113.462C35.4403 113.107 36.194 112.93 37.03 112.93ZM36.935 121.898C37.6317 121.898 38.265 121.74 38.835 121.423C39.405 121.094 39.8483 120.631 40.165 120.036C40.4943 119.441 40.659 118.763 40.659 118.003C40.659 117.243 40.4943 116.572 40.165 115.989C39.8483 115.394 39.405 114.931 38.835 114.602C38.265 114.273 37.6317 114.108 36.935 114.108C36.2257 114.108 35.586 114.273 35.016 114.602C34.4587 114.931 34.0153 115.394 33.686 115.989C33.3693 116.572 33.211 117.243 33.211 118.003C33.211 118.763 33.3693 119.441 33.686 120.036C34.0153 120.631 34.4587 121.094 35.016 121.423C35.586 121.74 36.2257 121.898 36.935 121.898ZM53.46 118.421H45.1C45.176 119.46 45.575 120.302 46.297 120.948C47.019 121.581 47.931 121.898 49.033 121.898C49.6536 121.898 50.2236 121.79 50.743 121.575C51.2623 121.347 51.712 121.018 52.092 120.587L52.852 121.461C52.4086 121.993 51.8513 122.398 51.18 122.677C50.5213 122.956 49.793 123.095 48.995 123.095C47.969 123.095 47.057 122.88 46.259 122.449C45.4736 122.006 44.8593 121.398 44.416 120.625C43.9726 119.852 43.751 118.978 43.751 118.003C43.751 117.028 43.96 116.154 44.378 115.381C44.8086 114.608 45.3913 114.007 46.126 113.576C46.8733 113.145 47.7093 112.93 48.634 112.93C49.5586 112.93 50.3883 113.145 51.123 113.576C51.8576 114.007 52.434 114.608 52.852 115.381C53.27 116.141 53.479 117.015 53.479 118.003L53.46 118.421ZM48.634 114.089C47.6713 114.089 46.8606 114.399 46.202 115.02C45.556 115.628 45.1886 116.426 45.1 117.414H52.187C52.0983 116.426 51.7246 115.628 51.066 115.02C50.42 114.399 49.6093 114.089 48.634 114.089ZM65.2308 113.006V123H63.9387V121.176C63.5841 121.784 63.0964 122.259 62.4758 122.601C61.8551 122.93 61.1458 123.095 60.3478 123.095C59.0431 123.095 58.0108 122.734 57.2508 122.012C56.5034 121.277 56.1298 120.207 56.1298 118.801V113.006H57.4788V118.668C57.4788 119.719 57.7384 120.517 58.2578 121.062C58.7771 121.607 59.5181 121.879 60.4808 121.879C61.5321 121.879 62.3618 121.562 62.9698 120.929C63.5778 120.283 63.8818 119.39 63.8818 118.25V113.006H65.2308ZM74.2719 122.392C74.0186 122.62 73.7019 122.797 73.3219 122.924C72.9546 123.038 72.5683 123.095 72.1629 123.095C71.2256 123.095 70.5036 122.842 69.9969 122.335C69.4903 121.828 69.2369 121.113 69.2369 120.188V114.146H67.4509V113.006H69.2369V110.821H70.5859V113.006H73.6259V114.146H70.5859V120.112C70.5859 120.707 70.7316 121.163 71.0229 121.48C71.3269 121.784 71.7576 121.936 72.3149 121.936C72.5936 121.936 72.8596 121.892 73.1129 121.803C73.3789 121.714 73.6069 121.588 73.7969 121.423L74.2719 122.392ZM75.8011 117.262H80.7791V118.44H75.8011V117.262ZM92.6846 118.421H84.3246C84.4006 119.46 84.7996 120.302 85.5216 120.948C86.2436 121.581 87.1556 121.898 88.2576 121.898C88.8782 121.898 89.4482 121.79 89.9676 121.575C90.4869 121.347 90.9366 121.018 91.3166 120.587L92.0766 121.461C91.6332 121.993 91.0759 122.398 90.4046 122.677C89.7459 122.956 89.0176 123.095 88.2196 123.095C87.1936 123.095 86.2816 122.88 85.4836 122.449C84.6982 122.006 84.0839 121.398 83.6406 120.625C83.1972 119.852 82.9756 118.978 82.9756 118.003C82.9756 117.028 83.1846 116.154 83.6026 115.381C84.0332 114.608 84.6159 114.007 85.3506 113.576C86.0979 113.145 86.9339 112.93 87.8586 112.93C88.7832 112.93 89.6129 113.145 90.3476 113.576C91.0822 114.007 91.6586 114.608 92.0766 115.381C92.4946 116.141 92.7036 117.015 92.7036 118.003L92.6846 118.421ZM87.8586 114.089C86.8959 114.089 86.0852 114.399 85.4266 115.02C84.7806 115.628 84.4132 116.426 84.3246 117.414H91.4116C91.3229 116.426 90.9492 115.628 90.2906 115.02C89.6446 114.399 88.8339 114.089 87.8586 114.089ZM89.7396 111.448L87.8586 109.871L85.9776 111.448H84.7236L87.1746 109.092H88.5426L90.9936 111.448H89.7396ZM100.712 122.392C100.459 122.62 100.142 122.797 99.7624 122.924C99.395 123.038 99.0087 123.095 98.6034 123.095C97.666 123.095 96.944 122.842 96.4374 122.335C95.9307 121.828 95.6774 121.113 95.6774 120.188V114.146H93.8914V113.006H95.6774V110.821H97.0264V113.006H100.066V114.146H97.0264V120.112C97.0264 120.707 97.172 121.163 97.4634 121.48C97.7674 121.784 98.198 121.936 98.7554 121.936C99.034 121.936 99.3 121.892 99.5534 121.803C99.8194 121.714 100.047 121.588 100.237 121.423L100.712 122.392ZM104.46 114.963C104.777 114.292 105.245 113.785 105.866 113.443C106.499 113.101 107.278 112.93 108.203 112.93V114.241L107.88 114.222C106.829 114.222 106.005 114.545 105.41 115.191C104.815 115.837 104.517 116.743 104.517 117.908V123H103.168V113.006H104.46V114.963ZM119.255 118.421H110.895C110.971 119.46 111.37 120.302 112.092 120.948C112.814 121.581 113.726 121.898 114.828 121.898C115.449 121.898 116.019 121.79 116.538 121.575C117.057 121.347 117.507 121.018 117.887 120.587L118.647 121.461C118.204 121.993 117.646 122.398 116.975 122.677C116.316 122.956 115.588 123.095 114.79 123.095C113.764 123.095 112.852 122.88 112.054 122.449C111.269 122.006 110.654 121.398 110.211 120.625C109.768 119.852 109.546 118.978 109.546 118.003C109.546 117.028 109.755 116.154 110.173 115.381C110.604 114.608 111.186 114.007 111.921 113.576C112.668 113.145 113.504 112.93 114.429 112.93C115.354 112.93 116.183 113.145 116.918 113.576C117.653 114.007 118.229 114.608 118.647 115.381C119.065 116.141 119.274 117.015 119.274 118.003L119.255 118.421ZM114.429 114.089C113.466 114.089 112.656 114.399 111.997 115.02C111.351 115.628 110.984 116.426 110.895 117.414H117.982C117.893 116.426 117.52 115.628 116.861 115.02C116.215 114.399 115.404 114.089 114.429 114.089ZM135.39 113.006L130.944 123H129.557L125.13 113.006H126.536L130.279 121.518L134.06 113.006H135.39ZM141.097 123.095C140.134 123.095 139.267 122.88 138.494 122.449C137.721 122.006 137.113 121.398 136.67 120.625C136.227 119.852 136.005 118.978 136.005 118.003C136.005 117.028 136.227 116.154 136.67 115.381C137.113 114.608 137.721 114.007 138.494 113.576C139.267 113.145 140.134 112.93 141.097 112.93C142.06 112.93 142.927 113.145 143.7 113.576C144.473 114.007 145.074 114.608 145.505 115.381C145.948 116.154 146.17 117.028 146.17 118.003C146.17 118.978 145.948 119.852 145.505 120.625C145.074 121.398 144.473 122.006 143.7 122.449C142.927 122.88 142.06 123.095 141.097 123.095ZM141.097 121.898C141.806 121.898 142.44 121.74 142.997 121.423C143.567 121.094 144.01 120.631 144.327 120.036C144.644 119.441 144.802 118.763 144.802 118.003C144.802 117.243 144.644 116.565 144.327 115.97C144.01 115.375 143.567 114.919 142.997 114.602C142.44 114.273 141.806 114.108 141.097 114.108C140.388 114.108 139.748 114.273 139.178 114.602C138.621 114.919 138.177 115.375 137.848 115.97C137.531 116.565 137.373 117.243 137.373 118.003C137.373 118.763 137.531 119.441 137.848 120.036C138.177 120.631 138.621 121.094 139.178 121.423C139.748 121.74 140.388 121.898 141.097 121.898ZM157.93 113.006V123H156.638V121.176C156.283 121.784 155.796 122.259 155.175 122.601C154.554 122.93 153.845 123.095 153.047 123.095C151.742 123.095 150.71 122.734 149.95 122.012C149.203 121.277 148.829 120.207 148.829 118.801V113.006H150.178V118.668C150.178 119.719 150.438 120.517 150.957 121.062C151.476 121.607 152.217 121.879 153.18 121.879C154.231 121.879 155.061 121.562 155.669 120.929C156.277 120.283 156.581 119.39 156.581 118.25V113.006H157.93ZM164.387 123.095C163.576 123.095 162.797 122.981 162.05 122.753C161.315 122.512 160.739 122.215 160.321 121.86L160.929 120.796C161.347 121.125 161.873 121.398 162.506 121.613C163.139 121.816 163.798 121.917 164.482 121.917C165.394 121.917 166.065 121.778 166.496 121.499C166.939 121.208 167.161 120.802 167.161 120.283C167.161 119.916 167.041 119.631 166.8 119.428C166.559 119.213 166.255 119.054 165.888 118.953C165.521 118.839 165.033 118.731 164.425 118.63C163.614 118.478 162.962 118.326 162.468 118.174C161.974 118.009 161.55 117.737 161.195 117.357C160.853 116.977 160.682 116.451 160.682 115.78C160.682 114.944 161.03 114.26 161.727 113.728C162.424 113.196 163.393 112.93 164.634 112.93C165.28 112.93 165.926 113.019 166.572 113.196C167.218 113.361 167.75 113.582 168.168 113.861L167.579 114.944C166.756 114.374 165.774 114.089 164.634 114.089C163.773 114.089 163.12 114.241 162.677 114.545C162.246 114.849 162.031 115.248 162.031 115.742C162.031 116.122 162.151 116.426 162.392 116.654C162.645 116.882 162.956 117.053 163.323 117.167C163.69 117.268 164.197 117.376 164.843 117.49C165.641 117.642 166.281 117.794 166.762 117.946C167.243 118.098 167.655 118.358 167.997 118.725C168.339 119.092 168.51 119.599 168.51 120.245C168.51 121.119 168.143 121.816 167.408 122.335C166.686 122.842 165.679 123.095 164.387 123.095ZM179.473 112.93C180.777 112.93 181.778 113.259 182.475 113.918C183.171 114.564 183.52 115.527 183.52 116.806V123H182.228V121.442C181.924 121.961 181.474 122.367 180.879 122.658C180.296 122.949 179.599 123.095 178.789 123.095C177.674 123.095 176.787 122.829 176.129 122.297C175.47 121.765 175.141 121.062 175.141 120.188C175.141 119.339 175.445 118.655 176.053 118.136C176.673 117.617 177.655 117.357 178.998 117.357H182.171V116.749C182.171 115.888 181.93 115.235 181.449 114.792C180.967 114.336 180.264 114.108 179.34 114.108C178.706 114.108 178.098 114.216 177.516 114.431C176.933 114.634 176.433 114.919 176.015 115.286L175.407 114.279C175.913 113.848 176.521 113.519 177.231 113.291C177.94 113.05 178.687 112.93 179.473 112.93ZM178.998 122.031C179.758 122.031 180.41 121.86 180.955 121.518C181.499 121.163 181.905 120.657 182.171 119.998V118.364H179.036C177.326 118.364 176.471 118.959 176.471 120.15C176.471 120.733 176.692 121.195 177.136 121.537C177.579 121.866 178.2 122.031 178.998 122.031ZM187.184 113.006H188.533V123H187.184V113.006ZM187.868 110.821C187.589 110.821 187.355 110.726 187.165 110.536C186.975 110.346 186.88 110.118 186.88 109.852C186.88 109.599 186.975 109.377 187.165 109.187C187.355 108.997 187.589 108.902 187.868 108.902C188.146 108.902 188.381 108.997 188.571 109.187C188.761 109.364 188.856 109.58 188.856 109.833C188.856 110.112 188.761 110.346 188.571 110.536C188.381 110.726 188.146 110.821 187.868 110.821ZM201.406 108.902V123H200.114V121.024C199.709 121.695 199.171 122.208 198.499 122.563C197.841 122.918 197.093 123.095 196.257 123.095C195.32 123.095 194.471 122.88 193.711 122.449C192.951 122.018 192.356 121.417 191.925 120.644C191.495 119.871 191.279 118.991 191.279 118.003C191.279 117.015 191.495 116.135 191.925 115.362C192.356 114.589 192.951 113.994 193.711 113.576C194.471 113.145 195.32 112.93 196.257 112.93C197.068 112.93 197.796 113.101 198.442 113.443C199.101 113.772 199.639 114.26 200.057 114.906V108.902H201.406ZM196.371 121.898C197.068 121.898 197.695 121.74 198.252 121.423C198.822 121.094 199.266 120.631 199.582 120.036C199.912 119.441 200.076 118.763 200.076 118.003C200.076 117.243 199.912 116.565 199.582 115.97C199.266 115.375 198.822 114.919 198.252 114.602C197.695 114.273 197.068 114.108 196.371 114.108C195.662 114.108 195.022 114.273 194.452 114.602C193.895 114.919 193.452 115.375 193.122 115.97C192.806 116.565 192.647 117.243 192.647 118.003C192.647 118.763 192.806 119.441 193.122 120.036C193.452 120.631 193.895 121.094 194.452 121.423C195.022 121.74 195.662 121.898 196.371 121.898ZM213.865 118.421H205.505C205.581 119.46 205.98 120.302 206.702 120.948C207.424 121.581 208.336 121.898 209.438 121.898C210.059 121.898 210.629 121.79 211.148 121.575C211.668 121.347 212.117 121.018 212.497 120.587L213.257 121.461C212.814 121.993 212.257 122.398 211.585 122.677C210.927 122.956 210.198 123.095 209.4 123.095C208.374 123.095 207.462 122.88 206.664 122.449C205.879 122.006 205.265 121.398 204.821 120.625C204.378 119.852 204.156 118.978 204.156 118.003C204.156 117.028 204.365 116.154 204.783 115.381C205.214 114.608 205.797 114.007 206.531 113.576C207.279 113.145 208.115 112.93 209.039 112.93C209.964 112.93 210.794 113.145 211.528 113.576C212.263 114.007 212.839 114.608 213.257 115.381C213.675 116.141 213.884 117.015 213.884 118.003L213.865 118.421ZM209.039 114.089C208.077 114.089 207.266 114.399 206.607 115.02C205.961 115.628 205.594 116.426 205.505 117.414H212.592C212.504 116.426 212.13 115.628 211.471 115.02C210.825 114.399 210.015 114.089 209.039 114.089ZM217.922 114.963C218.239 114.292 218.707 113.785 219.328 113.443C219.961 113.101 220.74 112.93 221.665 112.93V114.241L221.342 114.222C220.291 114.222 219.467 114.545 218.872 115.191C218.277 115.837 217.979 116.743 217.979 117.908V123H216.63V113.006H217.922V114.963ZM231.813 119.01C231.813 118.491 231.895 118.035 232.06 117.642C232.237 117.249 232.452 116.914 232.706 116.635C232.959 116.356 233.288 116.04 233.694 115.685C234.238 115.204 234.637 114.786 234.891 114.431C235.157 114.064 235.29 113.62 235.29 113.101C235.29 112.404 235.017 111.847 234.473 111.429C233.928 110.998 233.181 110.783 232.231 110.783C230.66 110.783 229.45 111.296 228.602 112.322L227.595 111.562C228.671 110.245 230.248 109.586 232.326 109.586C233.656 109.586 234.713 109.884 235.499 110.479C236.297 111.074 236.696 111.879 236.696 112.892C236.696 113.411 236.607 113.874 236.43 114.279C236.265 114.672 236.056 115.007 235.803 115.286C235.562 115.565 235.239 115.888 234.834 116.255C234.289 116.749 233.884 117.192 233.618 117.585C233.352 117.965 233.219 118.44 233.219 119.01H231.813ZM232.516 123.095C232.237 123.095 232.003 123 231.813 122.81C231.623 122.607 231.528 122.373 231.528 122.107C231.528 121.828 231.623 121.6 231.813 121.423C232.003 121.233 232.237 121.138 232.516 121.138C232.807 121.138 233.048 121.233 233.238 121.423C233.428 121.6 233.523 121.828 233.523 122.107C233.523 122.373 233.421 122.607 233.219 122.81C233.029 123 232.794 123.095 232.516 123.095Z" fill="white"/>
</svg>
