<svg id="Calque_1" data-name="Calque 1" xmlns="http://www.w3.org/2000/svg" viewBox="0 0 183.06 152.18"><defs><style>.cls-1{fill:#f1b705;}.cls-2{fill:#eead07;}.cls-3{fill:none;stroke:#fff;stroke-linecap:round;stroke-miterlimit:10;}</style></defs><path class="cls-1" d="M.18,20.72V103a20.46,20.46,0,0,0,20.52,20.4H162.3A20.46,20.46,0,0,0,182.82,103V20.72A20.46,20.46,0,0,0,162.3.32H20.7A20.46,20.46,0,0,0,.18,20.72Z" transform="translate(-0.18 0.18)"/><path class="cls-2" d="M.18,20.46v82.48A20.48,20.48,0,0,0,20.7,123.39h83.43l41.16,27.73a5,5,0,0,0,7.72-5.43l-5.77-22.3H162.3a20.48,20.48,0,0,0,20.52-20.45V96.79A109.53,109.53,0,0,1,146.26,103,109.17,109.17,0,0,1,94,89.83c-.85-.46-1.69-.93-2.53-1.42A108.4,108.4,0,0,1,37.25,0H20.7A20.49,20.49,0,0,0,.18,20.46Z" transform="translate(-0.18 0.18)"/><path class="cls-3" d="M37.25.32c.28,5.44,3.69,54.58,47.86,84.2,44.71,30,92.61,14.1,97.62,12.34" transform="translate(-0.18 0.18)"/></svg>