<svg id="Calque_1" data-name="Calque 1" xmlns="http://www.w3.org/2000/svg" viewBox="0 0 269.54 447.08"><defs><style>.cls-1{fill:#d6441e;}.cls-2{fill:#f9c6a2;}.cls-16,.cls-3,.cls-4,.cls-5,.cls-9{fill:none;}.cls-3,.cls-4,.cls-5{stroke:#fff;}.cls-16,.cls-3,.cls-4,.cls-9{stroke-linecap:round;}.cls-3{stroke-linejoin:round;}.cls-3,.cls-4,.cls-9{stroke-width:2px;}.cls-16,.cls-4,.cls-5,.cls-9{stroke-miterlimit:10;}.cls-16,.cls-5{stroke-width:0.5px;}.cls-6{fill:#1a1a1a;}.cls-7{fill:#f6ae89;}.cls-8{fill:#f7e9e5;}.cls-9{stroke:#617aa8;}.cls-10{fill:#1d3c76;}.cls-11{fill:#20345e;}.cls-12{fill:#e55820;}.cls-13{fill:#2b315c;}.cls-14{fill:#192542;}.cls-15{fill:#182624;}.cls-16{stroke:#182624;}</style></defs><path class="cls-1" d="M112.15,62.48a63.94,63.94,0,0,1,8.08,3c51.37,22.65,60.14,105.22,62.1,134.12L149,202l-8.47-36.86a53.31,53.31,0,0,0-16.58-28c-8-7.07-18.24-14.57-27.09-15.78Z" transform="translate(-6.95 -0.4)"/><path class="cls-2" d="M173.88,200.15l-.8,22.81a36.53,36.53,0,0,1-2.77,12.92c-1.61,3.87-3.86,7.55-6.34,6.73a1.32,1.32,0,0,1-1.41-1.22v0s-3,3.2-4.11-.31V225.9s-2.5,10.12-4.6,6.72,0-14.47,0-14.47l1.89-16.67Z" transform="translate(-6.95 -0.4)"/><line class="cls-3" x1="144.01" y1="172.81" x2="174.91" y2="171.44"/><path class="cls-4" d="M150.1,181.53l33.61-1.05" transform="translate(-6.95 -0.4)"/><line class="cls-5" x1="74.52" y1="170.25" x2="41.85" y2="170.25"/><path class="cls-6" d="M81.48,194.58H63.1a13.77,13.77,0,0,1-8.37-2.86h0a15.48,15.48,0,0,1-6-12.44l.58-76.13a10.9,10.9,0,0,1,2.58-7h0a9.63,9.63,0,0,1,7.32-3.43h2V61.83a9,9,0,0,1,9-9H81.48Z" transform="translate(-6.95 -0.4)"/><path class="cls-5" d="M67.85,170.66v-98c0-8,6.1-14.44,13.63-14.44h0" transform="translate(-6.95 -0.4)"/><g id="COU"><path class="cls-7" d="M109.1,43.91l-6,20.94s9.79-2.69,23,4.42l3.07-15.94S116,36.42,109.1,43.91Z" transform="translate(-6.95 -0.4)"/></g><polygon class="cls-7" points="183.87 400.87 189.52 416.13 219.86 405.8 216.06 391.08 183.87 400.87"/><path class="cls-8" d="M196.47,416.53l2.91,16.37a13,13,0,0,0,.91,3l.76,1.73a13.13,13.13,0,0,0,16,7.22L274.9,426.4a2.3,2.3,0,0,0,1.48-2.89,2.25,2.25,0,0,0-.24-.52,20.89,20.89,0,0,0-15.62-9.72l-31.23-3.16-2.5-3.9Z" transform="translate(-6.95 -0.4)"/><line class="cls-9" x1="233.59" y1="410.84" x2="229.54" y2="423.01"/><line class="cls-9" x1="242.33" y1="410.84" x2="238.28" y2="423.01"/><g id="JAMBE_DROITE" data-name="JAMBE DROITE"><path class="cls-10" d="M70.83,190l3,16.69A48.41,48.41,0,0,0,79,221.26l100.75,185,60.85-15.37-84.86-200.8Z" transform="translate(-6.95 -0.4)"/><path class="cls-9" d="M93,190l6.36,22.65a69.59,69.59,0,0,0,5.5,13.76L187.65,383" transform="translate(-6.95 -0.4)"/><path class="cls-11" d="M168.81,386.25l62.95-16.18q4.41,10.38,8.78,20.77l-60.85,15.37Z" transform="translate(-6.95 -0.4)"/></g><ellipse class="cls-12" cx="100.18" cy="93.08" rx="33.17" ry="30.23"/><path class="cls-12" d="M99,64.18a72.52,72.52,0,0,0-8.08,3A76.18,76.18,0,0,0,67,84c-25.76,25.56-35.17,62.27-35.17,62.27a142.78,142.78,0,0,0-3,55l33.31,2.42,8.46-36.87a53.54,53.54,0,0,1,16.58-28c8-7.07,18.24-14.56,27.1-15.78Z" transform="translate(-6.95 -0.4)"/><path class="cls-2" d="M37.24,201.86l.8,22.81a37,37,0,0,0,2.77,12.92c1.62,3.87,3.86,7.56,6.34,6.73a1.32,1.32,0,0,0,1.41-1.22v0s3,3.2,4.11-.3V227.62s2.5,10.12,4.61,6.71,0-14.47,0-14.47l-1.9-16.68Z" transform="translate(-6.95 -0.4)"/><path class="cls-6" d="M69.1,173c.12-.37.23-.75.34-1.16v.6A1.87,1.87,0,0,1,69.1,173Z" transform="translate(-6.95 -0.4)"/><path class="cls-6" d="M67.85,72.62c1.79,1.52,4.51,3.33,7.69,3.09C74.1,76.84,70.33,76.09,67.85,72.62Z" transform="translate(-6.95 -0.4)"/><path class="cls-6" d="M74.72,155.11q1.82-5.49,3.61-10.62Q74.64,155.68,71,166.86C72,163.48,73.25,159.54,74.72,155.11Z" transform="translate(-6.95 -0.4)"/><path class="cls-6" d="M113.71,86.68c-1.45,5.48-6.62,17.09-14.85,33Z" transform="translate(-6.95 -0.4)"/><path class="cls-12" d="M77.65,138.75,68.48,190H164.1s-15-116.35-38.34-120.77Z" transform="translate(-6.95 -0.4)"/><g id="JAMBE_GAUCHE" data-name="JAMBE GAUCHE"><polygon class="cls-13" points="71.67 219.46 64.32 291.94 11.6 373.26 58.33 405.81 122.42 312.63 71.67 219.46"/><polygon class="cls-14" points="11.6 373.26 22.06 357.13 70.18 388.59 58.33 405.81 11.6 373.26"/></g><g id="PIED_GAUCHE" data-name="PIED GAUCHE"><polygon class="cls-7" points="22.08 380.56 13.6 394.44 40.48 411.89 49.69 399.79 22.08 380.56"/><path class="cls-8" d="M20.55,394.85,9.86,405.48a9.83,9.83,0,0,0-.13,13.82l23.58,24.18a8.64,8.64,0,0,0,5.84,2.6l36.57,1.4s5.1-18-19.08-20.26l-9.21-14.94Z" transform="translate(-6.95 -0.4)"/><line class="cls-9" x1="47.15" y1="418.34" x2="34.4" y2="419.73"/><line class="cls-9" x1="50.79" y1="426.29" x2="38.04" y2="427.68"/></g><path class="cls-15" d="M104.92,35C102.58,30.37,93,9.29,111.52,7A2,2,0,0,0,113,6c1.45-2.52,6.71-9.36,19.12-2.91a1.78,1.78,0,0,0,.29.12c.79.25,4.46,1.3,6.87.34a1.92,1.92,0,0,1,2.55.91,2.25,2.25,0,0,1,.14.44h0a2,2,0,0,0,2.27,1.49L147,5.87a2,2,0,0,1,2.27,1.48c.79,3.49,1.43,11-6.78,13.19a158.23,158.23,0,0,1-18.68,3.59,7.23,7.23,0,0,0-5.68,4.35l-.79,1.86a9.65,9.65,0,0,1-10.43,5.78l-.49-.08A1.92,1.92,0,0,1,104.92,35Z" transform="translate(-6.95 -0.4)"/><path class="cls-2" d="M145.1,35.71a32.65,32.65,0,0,1-.66,5.4,28.44,28.44,0,0,1-4,9.79,7.6,7.6,0,0,1-4.22,3.18c-19.22,5.5-24.53-10.36-24.53-10.36-1.74,4.19-13.63,1.2-9.44-7.83s11.85-1.17,11.85-1.17l2.67-11.24a7.69,7.69,0,0,1,8.74-5.78l16.92,2.82A38.88,38.88,0,0,1,145.1,35.71Z" transform="translate(-6.95 -0.4)"/><path class="cls-6" d="M113.92,85.81q-.09.41-.21.87-7.41,16.5-14.85,33c-7.47,14.5-17.43,32.53-29.38,52.8v-.6c.44-1.45.93-3.11,1.5-5q3.69-11.19,7.35-22.37Q89.67,110,101,75.51a5.21,5.21,0,0,0-.43-4.34,5,5,0,0,0-.79-1c-4.37-4.23-16.07,0-23.3,5.39-.41.31-.75.58-1,.76a7.26,7.26,0,0,0,1-3.94,7.36,7.36,0,0,0-2.13-4.9,33.79,33.79,0,0,1,14.22-6.06c1.79-.29,15.75-2.61,23,5.56l.2.22C116.67,72.93,114.84,81.48,113.92,85.81Z" transform="translate(-6.95 -0.4)"/><path class="cls-6" d="M71,166.86c-.57,1.87-1.06,3.53-1.5,5v-.44C70,169.88,70.48,168.37,71,166.86Z" transform="translate(-6.95 -0.4)"/><path class="cls-6" d="M98.86,119.71,69.3,185.48q.09-6.53.18-13C81.43,152.21,91.39,134.18,98.86,119.71Z" transform="translate(-6.95 -0.4)"/><circle class="cls-7" cx="113.79" cy="35.85" r="3.35"/><path class="cls-7" d="M145.1,35.71a32.65,32.65,0,0,1-.66,5.4,3.35,3.35,0,0,1-.19-4.73A3.45,3.45,0,0,1,145.1,35.71Z" transform="translate(-6.95 -0.4)"/><path class="cls-16" d="M139.5,42.94a3.84,3.84,0,0,1-3,1,4.57,4.57,0,0,1-3-2.14" transform="translate(-6.95 -0.4)"/><circle class="cls-15" cx="127.31" cy="31.47" r="0.78"/><circle class="cls-15" cx="136.9" cy="31.04" r="0.78"/><path class="cls-16" d="M134.26,25.67s-3.78-2-6.32,1.25" transform="translate(-6.95 -0.4)"/><path class="cls-16" d="M144.17,25.22a4.62,4.62,0,0,0-3,.23" transform="translate(-6.95 -0.4)"/><path class="cls-7" d="M137.85,37.33a2.83,2.83,0,0,0,3.42-2.1,2.14,2.14,0,0,0,.06-.35,5.23,5.23,0,0,1-1.46,1.54A5.52,5.52,0,0,1,137.85,37.33Z" transform="translate(-6.95 -0.4)"/></svg>