<svg id="senior" xmlns="http://www.w3.org/2000/svg" viewBox="0 0 527.47 450.19"><defs><style>.cls-1{fill:#e0c9c4;}.cls-2{fill:#d7edf5;}.cls-13,.cls-15,.cls-16,.cls-17,.cls-18,.cls-22,.cls-23,.cls-25,.cls-27,.cls-3{fill:none;}.cls-3{stroke:#fff;}.cls-13,.cls-15,.cls-17,.cls-22,.cls-23,.cls-25,.cls-27,.cls-3{stroke-miterlimit:10;}.cls-18,.cls-22,.cls-3{stroke-width:0.5px;}.cls-4{fill:#f7ae89;}.cls-5{fill:#e45620;}.cls-6{fill:#bce1ed;}.cls-7{fill:#a1cdd8;}.cls-8{fill:#efad00;}.cls-9{fill:#f2b600;}.cls-10{fill:#191919;}.cls-11{fill:#2a305c;}.cls-12{fill:#f9c6a3;}.cls-13,.cls-27{stroke:#2a305c;}.cls-13,.cls-16,.cls-17,.cls-23,.cls-25,.cls-27{stroke-width:2px;}.cls-14{fill:#192624;}.cls-15,.cls-18{stroke:#192624;}.cls-15,.cls-18,.cls-23,.cls-25,.cls-27{stroke-linecap:round;}.cls-15{stroke-width:0.25px;}.cls-16{stroke:#cbe7f3;}.cls-16,.cls-18{stroke-linejoin:round;}.cls-17{stroke:#eff7fb;}.cls-19{fill:#f6e9e5;}.cls-20{fill:#1d397a;}.cls-21{fill:#d74211;}.cls-22{stroke:#d74211;}.cls-23{stroke:#e45620;}.cls-24{fill:#7fcbdf;}.cls-25{stroke:#4b6ba5;}.cls-26{fill:#e39900;}</style></defs><g id="BANC"><rect class="cls-1" x="10.47" y="254.11" width="506.52" height="47.88"/><rect class="cls-1" y="313.96" width="525.23" height="15.71"/><rect class="cls-2" y="283.29" width="10.47" height="30.68"/><rect class="cls-2" x="27.79" y="329.68" width="10.47" height="61.49"/><rect class="cls-2" x="258.5" y="329.68" width="10.47" height="61.49"/><rect class="cls-2" x="486.56" y="329.68" width="10.47" height="61.49"/><rect class="cls-2" x="517" y="283.29" width="10.47" height="30.68"/><rect class="cls-2" x="471.27" y="301.99" width="10.47" height="11.97"/><rect class="cls-2" x="258.5" y="301.99" width="10.47" height="11.97"/></g><line class="cls-3" x1="255.45" y1="163.62" x2="228.12" y2="173.89"/><path class="cls-3" d="M227.28,167.31V79.7c0-7.13,5.45-12.9,12.17-12.9h0" transform="translate(-8.45 -2.28)"/><polygon class="cls-4" points="279.35 375.51 279.73 388.1 304.54 388.01 305.38 376.28 279.35 375.51"/><path class="cls-5" d="M343.74,416.76l-38.81-.61.21,1.88-17.68-.3-.29-16c.28-3.84.54-7.68.81-11.51q12.74-.07,25.45-.13l.88,3.47,22.12,10a16.17,16.17,0,0,1,9.06,11A1.77,1.77,0,0,1,343.74,416.76Z" transform="translate(-8.45 -2.28)"/><polygon class="cls-4" points="213.84 374.09 213.35 386.63 238.02 388.27 239.67 376.66 213.84 374.09"/><path class="cls-5" d="M275.21,419l-38.55-3.31.07,1.89-17.56-1.53.84-15.95q.8-5.69,1.6-11.38l25.32,1.63.63,3.52,21.29,11.51A16.13,16.13,0,0,1,277.11,417,1.77,1.77,0,0,1,275.21,419Z" transform="translate(-8.45 -2.28)"/><path class="cls-6" d="M313.3,184.62Q317.66,283.78,322,383l-42.25.29q-7.11-99.3-14.23-198.62" transform="translate(-8.45 -2.28)"/><path class="cls-4" d="M337.33,136.51l15.65.81a1.84,1.84,0,0,0,1.2-.37l6.56-5a1.86,1.86,0,0,1,1.24-.37c2.87.22,13.71,1.28,14.15,5,.42,3.5-6.46,1.68-8.86.94a1.79,1.79,0,0,0-1.57.24c-.35.24-.8.55-1.28.91a1.84,1.84,0,0,0,.48,3.2l.07,0a1.88,1.88,0,0,0,2.08-.27c.81-.75,2-1.46,3.19-.79a1.86,1.86,0,0,0,2.12-.32,2.46,2.46,0,0,1,3.46-.27,1.88,1.88,0,0,0,2.46-.06c1.19-1.12,3.06-2,4.69,1.18,2.66,5.1-2.6,6.89-2.6,6.89s-2.84,1.22-4.25.95a1.71,1.71,0,0,0-1.29.23c-1.12.81-3.3,2.22-4.42,1.87a2.18,2.18,0,0,0-.91-.12c-2.32.31-11.12,1.35-13.29-.14a1.67,1.67,0,0,0-1.07-.34L338.37,152a1.82,1.82,0,0,1-2-1.67l-1-11.82A1.82,1.82,0,0,1,337.33,136.51Z" transform="translate(-8.45 -2.28)"/><path class="cls-7" d="M246.15,184.62h66.56Q289,283.89,265.3,383.17l-51.55,0Z" transform="translate(-8.45 -2.28)"/><g id="COU"><path class="cls-4" d="M264.15,54.05l-5.32,18.71s8.75-2.4,20.59,3.95l2.75-14.25S270.33,47.35,264.15,54.05Z" transform="translate(-8.45 -2.28)"/></g><path class="cls-8" d="M292.87,105.3c4.76,10.34,10.67,15.51,15.15,18.32,11.11,7,28,8.55,28,8.55h0l2.32,27.46a51.61,51.61,0,0,1-43.87,1.69Q293.66,133.32,292.87,105.3Z" transform="translate(-8.45 -2.28)"/><path class="cls-9" d="M236,138.79l-8.19,45.83H313.3S299.87,80.66,279,76.71Z" transform="translate(-8.45 -2.28)"/><path class="cls-10" d="M268.25,92.26c-1.29,4.9-5.91,15.28-13.27,29.52Q261.63,107,268.25,92.26Z" transform="translate(-8.45 -2.28)"/><ellipse class="cls-9" cx="253.93" cy="96.07" rx="29.64" ry="27.01"/><path class="cls-5" d="M313.64,192.78l-35.16.09v-11h34.8Z" transform="translate(-8.45 -2.28)"/><path class="cls-11" d="M271.47,176.17H230.3a9.34,9.34,0,0,0-9.34,9.34v45.32a17.5,17.5,0,0,0,17.49,17.5l24.72-.31a22.35,22.35,0,0,0,12.28-5.28c9.47-8.37,7.12-21.87,7-22.71l-1.61-34.95A9.33,9.33,0,0,0,271.47,176.17Z" transform="translate(-8.45 -2.28)"/><path class="cls-12" d="M261,210.24l11.4,16.91a32.81,32.81,0,0,0,8.21,8.49c3.05,2.17,6.5,3.9,8,2.1a1.17,1.17,0,0,0,.46-1.63s3.8,1,3-2.17l-7.16-11.47s6.69,6.48,6.67,2.91-6.84-11-6.84-11l-9.33-11.75Z" transform="translate(-8.45 -2.28)"/><path class="cls-13" d="M261.37,71.23c18.27,1.62,38.44,53.69,22.08,92.15a73,73,0,0,1-19.11,26c-2.81,1.1-17.66,6.66-28.64-.9-5.82-4-8.55-10.31-10.54-18.8-6.7-28.66-3.25-74.88,26-94.49C257.24,71.1,260.1,71.11,261.37,71.23Z" transform="translate(-8.45 -2.28)"/><path class="cls-9" d="M260.52,74a2.73,2.73,0,0,0-3.15-1.34,54.75,54.75,0,0,0-7.16,2.58A51.59,51.59,0,0,0,238,82.72c-5.93,5.18-7.61,13.22-10.17,24.08-7.44,31.57,2.79,63.85,2.79,63.85a127.39,127.39,0,0,0,23.74,43.12l26.4-13.93-11-32A47.77,47.77,0,0,1,269,138.8c2.7-9.12,6.94-19.66,13.08-24.76Z" transform="translate(-8.45 -2.28)"/><path class="cls-14" d="M263.15,17.13s-10.77-7-18.21,0-4.38,11-10.94,11-13.13,5.73-12.69,11.62.43,10.46-3.5,14.73-7.44,40.6,28.44,27.47c0,0,20.57-4.81.88-37.19,0,0-1.1-13.92,4-14.73a31.49,31.49,0,0,1,12-12.89Z" transform="translate(-8.45 -2.28)"/><path class="cls-12" d="M296.3,46.61a28.23,28.23,0,0,1-.64,5.22,25.74,25.74,0,0,1-3.5,8.47,6.77,6.77,0,0,1-3.79,2.83c-17.17,4.92-21.9-9.26-21.9-9.26a5,5,0,0,1-3.26,2.68c-2.66.41-4.81-2.64-5.58-4.46a6.62,6.62,0,0,1-.31-5.06,6.31,6.31,0,0,1,4.32-3.85,6.67,6.67,0,0,1,6.92,2.65l2.44-10a6.85,6.85,0,0,1,7.8-5.16l15.12,2.52a36.65,36.65,0,0,1,2.3,10c0,.22,0,.44,0,.66A26,26,0,0,1,296.3,46.61Z" transform="translate(-8.45 -2.28)"/><path class="cls-15" d="M292.44,53.81a3.46,3.46,0,0,1-2.71.86,4.11,4.11,0,0,1-2.67-1.91" transform="translate(-8.45 -2.28)"/><path class="cls-14" d="M275.69,32.11s20.52,6.36,23.35,2.82c0,0-11-26.17-34.66-12.73-2.9,1.65-9.73,5.47-12.21,13.81-3,10.16,2.94,18.51,3.49,19.26a21.88,21.88,0,0,0,6.49,5.81c.43-1.53.87-3,1.3-4.58a4,4,0,0,1-1.34,0c-1.92-.34-3-2-3.61-3a6.37,6.37,0,0,1-1.32-4.07,5.66,5.66,0,0,1,1.44-3.27c5.3-6.06,10.73,1.26,10.73,1.26S279,47.94,275.69,32.11Z" transform="translate(-8.45 -2.28)"/><path class="cls-5" d="M250.34,30.29,254,32a24,24,0,0,1,3.56-4.64,26.38,26.38,0,0,1,3.55-3,35.68,35.68,0,0,1,6.2-3.63l-4.12-3.6a21.59,21.59,0,0,0-12.81,13.16Z" transform="translate(-8.45 -2.28)"/><circle class="cls-4" cx="269.27" cy="47.12" r="2.99"/><path class="cls-4" d="M296.3,46.61a28.23,28.23,0,0,1-.64,5.22,3,3,0,0,1,.64-5.22Z" transform="translate(-8.45 -2.28)"/><circle class="cls-14" cx="278.61" cy="41.65" r="0.69"/><path class="cls-14" d="M296.27,43.83a.71.71,0,0,1-.64.41.7.7,0,0,1,0-1.4.72.72,0,0,1,.59.33Z" transform="translate(-8.45 -2.28)"/><circle class="cls-5" cx="255.81" cy="54.47" r="3.01"/><line class="cls-16" x1="206.41" y1="374.09" x2="258.47" y2="374.09"/><line class="cls-17" x1="271.55" y1="374.09" x2="313.59" y2="374.09"/><path class="cls-18" d="M287.82,37s-3.38-1.76-5.65,1.11" transform="translate(-8.45 -2.28)"/><path class="cls-18" d="M295.05,36.56a4.36,4.36,0,0,0-1.76.33" transform="translate(-8.45 -2.28)"/><polygon class="cls-4" points="348.96 412.5 349.23 421.23 366.43 421.17 367.01 413.03 348.96 412.5"/><path class="cls-19" d="M396.21,441.81l-39.66-1.16.43-9.28c.18-2.66.37-5.32.55-8,5.89,0,11.77-.07,17.66-.09l.61,2.41,15.34,7a11.23,11.23,0,0,1,6.28,7.63A1.23,1.23,0,0,1,396.21,441.81Z" transform="translate(-8.45 -2.28)"/><polygon class="cls-4" points="303.52 411.51 303.18 420.21 320.29 421.35 321.44 413.29 303.52 411.51"/><path class="cls-19" d="M348.68,443.36,309.88,440l.51-9.77,1.11-7.9q8.79.57,17.56,1.14l.44,2.44,14.77,8a11.14,11.14,0,0,1,5.72,8A1.22,1.22,0,0,1,348.68,443.36Z" transform="translate(-8.45 -2.28)"/><path class="cls-20" d="M375.1,280.8l6.06,137.56-29.31.2Q346.92,349.68,342,280.8" transform="translate(-8.45 -2.28)"/><path class="cls-11" d="M328.52,280.8h46.16L341.8,418.5H306.05Z" transform="translate(-8.45 -2.28)"/><path class="cls-14" d="M325.22,187.32a12.15,12.15,0,0,1-11.11-7.95A12.3,12.3,0,0,1,317.43,166s8.94-2.35,8.94-7.53c0-7,.16-13,3.8-15.2,2.14-1.3,4.4,0,6.34-2,1.38-1.43,1-3,1.56-4.66,1.83-5.68,12.33-8.64,20.49-7.54a18.19,18.19,0,0,1,10.24,4.21,17.69,17.69,0,0,1,5.61,11,31.6,31.6,0,0,1-.69,21.7c3.92,4.16,5.47,9.54,3.92,14.07a12.16,12.16,0,0,1-7.65,7.5c-7.69,2.38-12.67-5.76-25.3-5.88a30.94,30.94,0,0,0-6.87.73Z" transform="translate(-8.45 -2.28)"/><path class="cls-4" d="M384,233l2.19,8,31.63,23.4-3.6,9.36-31.37-14.88q-2.82-11.76-5.65-23.51Z" transform="translate(-8.45 -2.28)"/><path class="cls-4" d="M306.5,212.38l-9.06,9.24s-4.68,13.7,2.81,50l9.06-1.78,3.44-35.93,5.77-6.15Z" transform="translate(-8.45 -2.28)"/><g id="COU-2" data-name="COU"><path class="cls-4" d="M343.43,163.26,338,182.44s9-2.46,21.12,4.05l2.82-14.61S349.77,156.4,343.43,163.26Z" transform="translate(-8.45 -2.28)"/></g><path class="cls-12" d="M376.4,155.42v.2a29.53,29.53,0,0,1-.66,5.36c0,.1-.05.2-.07.3a27,27,0,0,1-1.7,5,25.09,25.09,0,0,1-1.82,3.37,7,7,0,0,1-3.88,2.9c-17.61,5-22.46-9.5-22.46-9.5a5.19,5.19,0,0,1-3.63,1.05c-2.64-.34-4.4-3.15-4.52-5.6-.16-3.25,2.55-6.6,5.81-6.66a6.4,6.4,0,0,1,4.73,2.46,13.22,13.22,0,0,1,10.25-15.06l15.5,2.58A37.46,37.46,0,0,1,376.3,152s0,.07,0,.1c0,.23,0,.46.05.68l0,.59C376.42,154.07,376.42,154.76,376.4,155.42Z" transform="translate(-8.45 -2.28)"/><path class="cls-15" d="M372.44,163a3.53,3.53,0,0,1-2.78.89,4.15,4.15,0,0,1-2.73-2" transform="translate(-8.45 -2.28)"/><circle class="cls-4" cx="348.9" cy="156.21" r="3.07"/><path class="cls-4" d="M376.4,155.42v.2a29.53,29.53,0,0,1-.66,5.36c0,.1-.05.2-.07.3l-.42-.23a3.07,3.07,0,0,1,.72-5.53A2.07,2.07,0,0,1,376.4,155.42Z" transform="translate(-8.45 -2.28)"/><circle class="cls-14" cx="358.47" cy="150.6" r="0.71"/><circle class="cls-14" cx="367.72" cy="150.42" r="0.71"/><path class="cls-18" d="M367.7,145.77s-3.46-1.8-5.79,1.13" transform="translate(-8.45 -2.28)"/><path class="cls-18" d="M372.35,145.29a3.75,3.75,0,0,1,2.18-.71,2.34,2.34,0,0,1,.38,0" transform="translate(-8.45 -2.28)"/><path class="cls-14" d="M349.26,139.16l1.19,5.39,23.5-2.7-2.27-5.18Z" transform="translate(-8.45 -2.28)"/><path class="cls-21" d="M356,185.49s17-2.2,34.67,46.52l-12.37,6.06Z" transform="translate(-8.45 -2.28)"/><path class="cls-9" d="M340.91,152.62c-2.45-10,1.16-19.33,7.83-22.65a15.44,15.44,0,0,1,10.63-.76,20.48,20.48,0,0,0-5.22.72c-2.33.66-5,3.42-6.37,5.53-4.5,6.92-1.21,16.65-.86,17.63a5.34,5.34,0,0,0-3.45-1.22A5.1,5.1,0,0,0,340.91,152.62Z" transform="translate(-8.45 -2.28)"/><path class="cls-14" d="M348.08,149.18a7.52,7.52,0,0,0,6.1.15A5.87,5.87,0,0,0,357,142l-5.59-2.25Z" transform="translate(-8.45 -2.28)"/><path class="cls-5" d="M323.3,240l-7.87,44.69h71.3l-9.21-68.76s-6.84-32.44-34.13-34.63Z" transform="translate(-8.45 -2.28)"/><path class="cls-21" d="M299,210.2s32.16-40.69,50.66-25.58S332,239.91,332,239.91Z" transform="translate(-8.45 -2.28)"/><path class="cls-4" d="M300.25,271.65l1.46,6.06v8.11s4.41,12.95,7,10.53c0,0,.94,3.38,2.76.6,0,0,2.1,1.29,2.1-.95l-1.33-10.3s2.59,5.05,3.36,3.23c0,0-1.47-9.39-4.2-11.42l-2.06-7.64Z" transform="translate(-8.45 -2.28)"/><path class="cls-4" d="M414.25,273.69h3.6s7.9,7.54,18.77,5.9c0,0,1.36-.65.36-1.15,0,0,2.94-.45,2.33-1.28l-.61-.84s2.45-.83,1.28-1.83-9.23-5.23-9.23-5.23,6.67.84,5.06-1.16-9.89-2.89-9.89-2.89H420.3l-2.45-.88" transform="translate(-8.45 -2.28)"/><line class="cls-3" x1="170.84" y1="161.66" x2="140.71" y2="172.99"/><polygon class="cls-4" points="197.19 395.27 197.61 409.15 224.96 409.06 225.88 396.12 197.19 395.27"/><path class="cls-6" d="M267.3,440.51l-62,1.07.57-30.34,28.06-.15,1,3.84L259.24,426a17.85,17.85,0,0,1,10,12.12A2,2,0,0,1,267.3,440.51Z" transform="translate(-8.45 -2.28)"/><polygon class="cls-4" points="124.96 393.7 124.42 407.53 151.62 409.34 153.44 396.53 124.96 393.7"/><path class="cls-6" d="M191.69,443.17l-61.76-3.62q1.42-15,2.86-30.11l27.9,2,.68,3.88,23.4,12.83a17.75,17.75,0,0,1,9,12.8A1.94,1.94,0,0,1,191.69,443.17Z" transform="translate(-8.45 -2.28)"/><path class="cls-5" d="M233.75,184.58q4.81,109.34,9.64,218.66l-46.59.32q-7.85-109.49-15.68-219" transform="translate(-8.45 -2.28)"/><path class="cls-21" d="M159.71,184.58h73.38l-52.26,218.9-56.83,0Q141.85,294,159.71,184.58Z" transform="translate(-8.45 -2.28)"/><path class="cls-13" d="M109,284.35V214.83h43.69v69.22" transform="translate(-8.45 -2.28)"/><rect class="cls-21" x="113.11" y="209.27" width="18.54" height="6.57" rx="3.28"/><g id="COU-3" data-name="COU"><path class="cls-4" d="M179.56,40.63l-5.87,20.63s9.65-2.65,22.71,4.35l3-15.7S186.37,33.25,179.56,40.63Z" transform="translate(-8.45 -2.28)"/></g><path class="cls-20" d="M152.23,134.23l-9,50.52h94.22s-14.81-114.62-37.79-119Z" transform="translate(-8.45 -2.28)"/><path class="cls-10" d="M187.76,82.93c-1.42,5.4-6.52,16.84-14.63,32.54Z" transform="translate(-8.45 -2.28)"/><path class="cls-12" d="M215,32.43a31.06,31.06,0,0,1-.71,5.76,28.44,28.44,0,0,1-3.86,9.34,7.46,7.46,0,0,1-4.17,3.12c-18.93,5.42-24.15-10.21-24.15-10.21-.31.57-1.51,2.62-3.59,3-2.94.46-5.31-2.91-6.16-4.91A7.32,7.32,0,0,1,172,32.9a7,7,0,0,1,4.77-4.25,7.37,7.37,0,0,1,7.63,2.93l2.68-11.06a7.56,7.56,0,0,1,8.6-5.69l16.67,2.78a40.2,40.2,0,0,1,2.54,11c0,.25,0,.49.05.73A28.66,28.66,0,0,1,215,32.43Z" transform="translate(-8.45 -2.28)"/><path class="cls-12" d="M128.5,181.52l-4.49,22a36.25,36.25,0,0,0-.32,13c.65,4.08,2,8.13,4.52,7.91a1.29,1.29,0,0,0,1.64-.89s2.14,3.76,4,.66l3.48-14.5s.07,10.27,2.87,7.5,3.34-13.86,3.34-13.86l2-16.42Z" transform="translate(-8.45 -2.28)"/><ellipse class="cls-20" cx="172.83" cy="87.36" rx="32.68" ry="29.78"/><path class="cls-20" d="M190.27,63.21a3,3,0,0,0-2.57-2.76,59.66,59.66,0,0,0-8.38-.59A57.11,57.11,0,0,0,163.62,62c-8.29,2.58-13.58,9.94-21,19.75-21.59,28.51-25.68,65.61-25.68,65.61a140.57,140.57,0,0,0,4.7,54.06l32.83-2.26L157.61,162a52.68,52.68,0,0,1,12.3-29.63c6.78-8,15.77-16.72,24.23-19.13Z" transform="translate(-8.45 -2.28)"/><path class="cls-15" d="M210.75,40.36a3.78,3.78,0,0,1-3,1,4.49,4.49,0,0,1-2.94-2.11" transform="translate(-8.45 -2.28)"/><circle class="cls-4" cx="186.07" cy="33.22" r="3.3"/><path class="cls-4" d="M215,32.43a31.06,31.06,0,0,1-.71,5.76,3.3,3.3,0,0,1,.71-5.76Z" transform="translate(-8.45 -2.28)"/><circle class="cls-14" cx="196.37" cy="27.19" r="0.77"/><path class="cls-14" d="M215,29.37a.78.78,0,0,1-.7.45.77.77,0,0,1,0-1.54.79.79,0,0,1,.65.36Z" transform="translate(-8.45 -2.28)"/><circle class="cls-22" cx="196.37" cy="27.19" r="4.76"/><ellipse class="cls-22" cx="206.91" cy="26.88" rx="3.51" ry="4.03"/><path class="cls-23" d="M184.08,192.15s-4,22.11-19.86,22.68" transform="translate(-8.45 -2.28)"/><path class="cls-24" d="M129.93,439.55c.19-2,.37-4,.56-5.93l62.69,4.71c.21.73.36,1.34.46,1.78a3.63,3.63,0,0,1,.17,1.28,2.15,2.15,0,0,1-.67,1.39,1.69,1.69,0,0,1-1.18.38Z" transform="translate(-8.45 -2.28)"/><path class="cls-22" d="M209.58,29.47s1.76-1.4,2.27,0" transform="translate(-8.45 -2.28)"/><path class="cls-22" d="M200.07,29.47a8.43,8.43,0,0,1-8-.76" transform="translate(-8.45 -2.28)"/><path class="cls-24" d="M205.26,441.58l.38-4.76,62.94-.87.66,2.15s.35,2.55-1.94,2.41S205.26,441.58,205.26,441.58Z" transform="translate(-8.45 -2.28)"/><polyline class="cls-25" points="114.8 189.87 138.71 188.09 138.71 178.28"/><path class="cls-18" d="M204.06,21.33s-3.73-1.93-6.23,1.23" transform="translate(-8.45 -2.28)"/><path class="cls-18" d="M214.66,21.13a4.44,4.44,0,0,0-3.49.45" transform="translate(-8.45 -2.28)"/><path class="cls-26" d="M101.86,282.07h48.2a9.61,9.61,0,0,1,9.61,9.61V430.26a11,11,0,0,1-11,11H92.25a0,0,0,0,1,0,0V291.69a9.61,9.61,0,0,1,9.61-9.61Z"/><path class="cls-9" d="M95.77,281.91H144a9.61,9.61,0,0,1,9.61,9.61V441.24a0,0,0,0,1,0,0H86.16a0,0,0,0,1,0,0V291.52A9.61,9.61,0,0,1,95.77,281.91Z"/><circle class="cls-5" cx="88.82" cy="442.05" r="8.14"/><circle class="cls-5" cx="152.1" cy="442.05" r="8.14"/><path class="cls-27" d="M129.81,382.45a12.78,12.78,0,0,0,10.05-3.92,12.37,12.37,0,0,0,3.11-8.29l-.14-12.11A12.25,12.25,0,0,0,129.92,346h0" transform="translate(-8.45 -2.28)"/><path class="cls-27" d="M128.33,285.14V443.35" transform="translate(-8.45 -2.28)"/><path class="cls-11" d="M172.54,31.83,168.7,18.39s-.51-4.86,5.4-5.9a1.76,1.76,0,0,0,1.48-1.59c.21-2.59,1.64-7.81,9.65-8.24,9.43-.51,13.62-.91,15.77,1.6a1.88,1.88,0,0,0,2.12.5c2.46-1,7.76-2.49,12.09.93,5.85,4.62-1.31,19.63-24.13,12.84,0,0-1.94,7.21-4,10.09A2.77,2.77,0,0,0,187,31.5c2.91,5.62,9.61,9.64,10.9,10.13a23.74,23.74,0,0,0,15.39.22q-1.06,3.93-2.12,7.86s-1.9,9.23-14,3.6C189.49,49.8,185.73,46.79,184,45a5,5,0,0,1-1.4-3.41l-.09-7.39a5.42,5.42,0,0,0-2.61-4.6,4.79,4.79,0,0,0-3.77-.72A6.63,6.63,0,0,0,174,30.08,6.94,6.94,0,0,0,172.54,31.83Z" transform="translate(-8.45 -2.28)"/></svg>