<svg id="Calque_1" data-name="Calque 1" xmlns="http://www.w3.org/2000/svg" viewBox="0 0 1322 700"><defs><style>.cls-1{fill:#f7f5f5;}.cls-14,.cls-16,.cls-2,.cls-22,.cls-7{fill:none;stroke-miterlimit:10;}.cls-2{stroke:#e0c9c4;}.cls-3{fill:#dfb306;}.cls-4{fill:#e8b606;}.cls-5{fill:#107ba1;}.cls-6{fill:#1d3967;}.cls-7{stroke:#182642;opacity:0.51;}.cls-16,.cls-7{stroke-width:2px;}.cls-8{fill:#eead07;}.cls-9{fill:#2a315a;}.cls-10{fill:#f8ece9;}.cls-11{fill:#f3b809;}.cls-12{fill:#c1e4ee;}.cls-13{fill:#bee1ed;}.cls-14{stroke:#fff;}.cls-14,.cls-16,.cls-22{stroke-linecap:round;}.cls-15{fill:#1d3c76;}.cls-16{stroke:#eaedf2;}.cls-17{fill:#dcc7c1;}.cls-18{fill:#e4572b;}.cls-19{fill:#eaedf2;}.cls-20{fill:#2b315c;}.cls-21{fill:#e4582b;}.cls-22{stroke:#fddba4;}.cls-23{fill:#edac1d;}</style></defs><rect class="cls-1" x="1" width="1320" height="389.3"/><rect class="cls-2" x="1" y="640.75" width="1320" height="26.2"/><rect class="cls-3" x="1" y="640.75" width="1320" height="26.2"/><rect class="cls-4" x="1" y="556.25" width="1320" height="13.82"/><rect class="cls-5" x="1" y="570.08" width="1320" height="70.67"/><rect class="cls-6" x="1" y="666.95" width="1320" height="33.05"/><polyline class="cls-7" points="479.62 640.75 461.9 662.2 461.9 700"/><polyline class="cls-7" points="858.72 640.75 876.68 662.2 876.68 700"/><path class="cls-8" d="M1157.81,242v23.9a20.06,20.06,0,0,1-13.27,5.87l-1.08,0q-.54,0-1,0l-.72,0h-50.38l-.09,0,0,0h-50.44a0,0,0,0,1,0,0,14.85,14.85,0,0,1,5.72-7.76,16.63,16.63,0,0,1-12.09-15.72c0-9.12,7.8-16.51,17.41-16.51a18.19,18.19,0,0,1,7.47,1.6,16,16,0,0,1,3.65-9,17.73,17.73,0,0,1,13.71-6.33,18.23,18.23,0,0,1,8,1.84c.24-.3.49-.6.76-.89a17.37,17.37,0,0,1,10.13-5.15,19.93,19.93,0,0,1,2.21-.21c.29,0,.58,0,.87,0a18.12,18.12,0,0,1,12.83,5,16.55,16.55,0,0,1,4.85-1.83,17.11,17.11,0,0,1,3.53-.36,16.68,16.68,0,0,1,12.1,5.1,15.16,15.16,0,0,1,3.85,7.18,14.48,14.48,0,0,1,.35,3.18,1.55,1.55,0,0,1,0,.22,14.77,14.77,0,0,1-.58,3.9,20.52,20.52,0,0,1,8-1.59,20.23,20.23,0,0,1,13,4.69h0A3.73,3.73,0,0,1,1157.81,242Z" transform="translate(0.98 0)"/><path class="cls-9" d="M1028.53,115.51h40.19a3.46,3.46,0,0,1,3.46,3.46V265.11a0,0,0,0,1,0,0h-47.11a0,0,0,0,1,0,0V119A3.46,3.46,0,0,1,1028.53,115.51Z"/><rect class="cls-10" x="1067.87" y="123.39" width="3.44" height="140.42" rx="1.72"/><rect class="cls-10" x="1026.32" y="123.39" width="3.44" height="140.42" rx="1.72"/><path class="cls-10" d="M1032,109.76h33.56a2.28,2.28,0,0,1,2.28,2.28v3.47a0,0,0,0,1,0,0h-38.11a0,0,0,0,1,0,0V112A2.28,2.28,0,0,1,1032,109.76Z"/><path class="cls-9" d="M1039.45,91.14h22.89a3.11,3.11,0,0,1,3.11,3.11v15.51a0,0,0,0,1,0,0h-29.12a0,0,0,0,1,0,0V94.25A3.11,3.11,0,0,1,1039.45,91.14Z"/><path class="cls-10" d="M1053.23,75.9h3.09a3.2,3.2,0,0,1,3.2,3.2v12a0,0,0,0,1,0,0H1050a0,0,0,0,1,0,0v-12A3.2,3.2,0,0,1,1053.23,75.9Z"/><rect class="cls-11" x="1033.47" y="119.39" width="30.42" height="4.01" rx="1.59"/><rect class="cls-12" x="1033.47" y="226.44" width="31" height="3.35" rx="1.67"/><rect class="cls-12" x="1033.47" y="185.29" width="31" height="3.35" rx="1.67"/><rect class="cls-12" x="1033.47" y="221.69" width="31" height="3.35" rx="1.67"/><rect class="cls-12" x="1033.47" y="180.14" width="31" height="3.35" rx="1.67"/><rect class="cls-12" x="1033.47" y="175" width="31" height="3.35" rx="1.67"/><rect class="cls-12" x="1033.47" y="169.86" width="31" height="3.35" rx="1.67"/><rect class="cls-12" x="1033.47" y="151.65" width="31" height="3.35" rx="1.67"/><rect class="cls-12" x="1033.47" y="146.51" width="31" height="3.35" rx="1.67"/><rect class="cls-12" x="1033.47" y="141.36" width="31" height="3.35" rx="1.67"/><path class="cls-13" d="M599.08,466a688.45,688.45,0,0,1,148.1-120c234.57-140.76,486.34-97.19,572.84-78V466Z" transform="translate(0.98 0)"/><path class="cls-14" d="M753.45,390.44l1.86-1.14a735.85,735.85,0,0,1,458.81-104.88" transform="translate(0.98 0)"/><path class="cls-14" d="M1320,303c-10.18-2.56-21.42-5.15-33.64-7.61" transform="translate(0.98 0)"/><path class="cls-5" d="M894.71,426.07C838.36,406.92,777.08,389,710.92,373.42,435.3,308.64,185.16,311.32,0,329.52l0,96.55Z" transform="translate(0.98 0)"/><rect class="cls-15" x="1" y="389.3" width="1320" height="167.34"/><line class="cls-16" x1="1" y1="467.98" x2="1321" y2="467.98"/><rect class="cls-17" x="1" y="382.01" width="354.11" height="7.92"/><path class="cls-18" d="M51.86,365.67c0,8.95,7.65,16.2,17.1,16.2.52,0,1,0,1.54-.07h43.75l.13.07H158.2a13.46,13.46,0,0,0-13-9.26c-.45,0-.9,0-1.34.06a16.17,16.17,0,0,0,1.59-7c0-10-9.05-18.07-20.37-18.39a16.9,16.9,0,0,0-15.84-10.41,17.55,17.55,0,0,0-8.5,2.18,14.44,14.44,0,0,0-11.2-5.2c-7.82,0-14.16,6-14.16,13.42a12.73,12.73,0,0,0,.51,3.57A17.72,17.72,0,0,0,69,349.46C59.51,349.46,51.86,356.72,51.86,365.67Z" transform="translate(0.98 0)"/><rect class="cls-9" x="153.08" y="263.3" width="82.71" height="68.54"/><rect class="cls-11" x="190.76" y="112.76" width="9.16" height="11.58"/><path class="cls-10" d="M237.34,260.55a2.78,2.78,0,0,1-2.72,2.88c-48.19-.1-81.45-.16-82.82-.14l-.37,0a3.32,3.32,0,0,1-2.87-3.35v-6.27a3.32,3.32,0,0,1,3.24-3.4l82.71-.09a2.78,2.78,0,0,1,2.72,2.79C237.26,255.48,237.3,258,237.34,260.55Z" transform="translate(0.98 0)"/><rect class="cls-11" x="163.79" y="260.7" width="16" height="6.64" rx="1.63"/><rect class="cls-11" x="205.25" y="260.7" width="16" height="6.64" rx="1.63"/><rect class="cls-11" x="208.08" y="249.12" width="9.16" height="11.58"/><path class="cls-10" d="M154.11,246.08c0-21.21,13.83-61.67,40-61.67,27.29,0,40,40.46,40,61.67Z" transform="translate(0.98 0)"/><rect class="cls-11" x="167.6" y="249.12" width="9.16" height="11.58"/><path class="cls-11" d="M235.2,250.15H151.74v-2.87c-.15-1.91.37-3.43,1.32-3.78a1.41,1.41,0,0,1,.65-.08h80c.4,0,.81,0,1.22,0a1.17,1.17,0,0,1,.25,0C235.42,243.48,235.83,244.15,235.2,250.15Z" transform="translate(0.98 0)"/><path class="cls-11" d="M212.52,192.11H175.79a1.33,1.33,0,0,1-1.22-1.88l1.74-3.95a1.35,1.35,0,0,1,1.23-.79l4.65-3.45h23.53l4.88,3.45a1.33,1.33,0,0,1,1.2.75l1.92,3.95A1.33,1.33,0,0,1,212.52,192.11Z" transform="translate(0.98 0)"/><path class="cls-11" d="M211.94,155.76,209.46,158a10.87,10.87,0,0,0-3.6,8.08v19.41H182.18V166.07a10.87,10.87,0,0,0-3.6-8.08l-2.47-2.23Z" transform="translate(0.98 0)"/><path class="cls-18" d="M199.59,161.22h3.92a0,0,0,0,1,0,0v12.9a1.43,1.43,0,0,1-1.43,1.43H201a1.43,1.43,0,0,1-1.43-1.43v-12.9a0,0,0,0,1,0,0Z"/><rect class="cls-11" x="173" y="149.42" width="44.27" height="4.99" rx="1.81"/><path class="cls-18" d="M186.77,161.22h3.92a0,0,0,0,1,0,0v12.9a1.43,1.43,0,0,1-1.43,1.43h-1.06a1.43,1.43,0,0,1-1.43-1.43v-12.9A0,0,0,0,1,186.77,161.22Z"/><path class="cls-9" d="M176.58,149.42c0-9.37,6.11-27.25,17.68-27.25,12.06,0,17.68,17.88,17.68,27.25Z" transform="translate(0.98 0)"/><rect class="cls-10" x="186.45" y="100.79" width="17.79" height="17.63"/><circle class="cls-12" cx="195.34" cy="109.61" r="5.87"/><path class="cls-11" d="M185.47,100.79a19,19,0,0,0,4.61-6.6,19.26,19.26,0,0,0,1.26-10h6a21.81,21.81,0,0,0,5.93,16.63Z" transform="translate(0.98 0)"/><circle class="cls-12" cx="195.43" cy="81.98" r="1.96"/><rect class="cls-10" x="191.96" y="83.94" width="6.77" height="0.76" rx="0.28"/><path class="cls-18" d="M169.33,243.42c0-12.78,8.34-37.19,24.13-37.19,16.46,0,24.13,24.41,24.13,37.19Z" transform="translate(0.98 0)"/><path class="cls-18" d="M164.74,209.52c2.21.9,1.09,7.71.28,16.06-.41,4.33-.88,10.41-1,17.84h-9.88a87.51,87.51,0,0,1,9-33.67C163.31,209.26,164.16,209.28,164.74,209.52Z" transform="translate(0.98 0)"/><path class="cls-18" d="M225.58,209.75a87.51,87.51,0,0,1,9,33.67h-9.88c-.15-7.43-.61-13.51-1-17.84-.81-8.35-1.93-15.16.29-16.06C224.49,209.28,225.34,209.26,225.58,209.75Z" transform="translate(0.98 0)"/><rect class="cls-10" x="175.43" y="154.41" width="39.41" height="1.35" rx="0.67"/><rect class="cls-12" x="153.58" y="327.61" width="82.59" height="54.25"/><rect class="cls-11" x="151.06" y="327.45" width="87.26" height="6.4" rx="1.84"/><rect class="cls-9" x="228.93" y="367.12" width="4.9" height="7.63" transform="translate(-138.58 602.32) rotate(-90)"/><rect class="cls-9" x="231.38" y="364.67" width="3.81" height="3.81" transform="translate(-132.31 599.87) rotate(-90)"/><rect class="cls-9" x="228.93" y="358.41" width="4.9" height="7.63" transform="translate(-129.86 593.6) rotate(-90)"/><rect class="cls-9" x="231.38" y="356.19" width="3.81" height="3.81" transform="translate(-123.83 591.39) rotate(-90)"/><rect class="cls-9" x="228.93" y="349.93" width="4.9" height="7.63" transform="translate(-121.38 585.12) rotate(-90)"/><rect class="cls-9" x="231.38" y="347.48" width="3.81" height="3.81" transform="translate(-115.11 582.67) rotate(-90)"/><rect class="cls-9" x="228.93" y="341.21" width="4.9" height="7.63" transform="translate(-112.66 576.4) rotate(-90)"/><rect class="cls-9" x="228.93" y="332.49" width="4.9" height="7.63" transform="translate(-103.94 567.68) rotate(-90)"/><rect class="cls-9" x="231.38" y="338.76" width="3.81" height="3.81" transform="translate(-106.39 573.95) rotate(-90)"/><rect class="cls-9" x="228.93" y="375.6" width="4.9" height="7.63" transform="translate(-147.06 610.8) rotate(-90)"/><rect class="cls-9" x="231.38" y="373.15" width="3.81" height="3.81" transform="translate(-140.79 608.35) rotate(-90)"/><rect class="cls-9" x="153.93" y="367.12" width="4.9" height="7.63" transform="translate(-213.57 527.32) rotate(-90)"/><rect class="cls-9" x="152.57" y="364.67" width="3.81" height="3.81" transform="translate(-211.12 521.06) rotate(-90)"/><rect class="cls-9" x="153.93" y="358.41" width="4.9" height="7.63" transform="translate(-204.85 518.61) rotate(-90)"/><rect class="cls-9" x="152.57" y="356.19" width="3.81" height="3.81" transform="translate(-202.64 512.58) rotate(-90)"/><rect class="cls-9" x="153.93" y="349.93" width="4.9" height="7.63" transform="translate(-196.38 510.13) rotate(-90)"/><rect class="cls-9" x="152.57" y="347.48" width="3.81" height="3.81" transform="translate(-193.92 503.86) rotate(-90)"/><rect class="cls-9" x="153.93" y="341.21" width="4.9" height="7.63" transform="translate(-187.66 501.41) rotate(-90)"/><rect class="cls-9" x="153.93" y="332.49" width="4.9" height="7.63" transform="translate(-178.94 492.69) rotate(-90)"/><rect class="cls-9" x="152.57" y="338.76" width="3.81" height="3.81" transform="translate(-185.21 495.14) rotate(-90)"/><rect class="cls-12" x="151.07" y="288.18" width="4.9" height="3.81" transform="translate(-135.58 443.61) rotate(-90)"/><rect class="cls-12" x="150.66" y="284.77" width="3.81" height="1.91" transform="translate(-132.17 438.3) rotate(-90)"/><rect class="cls-12" x="151.07" y="279.46" width="4.9" height="3.81" transform="translate(-126.86 434.89) rotate(-90)"/><rect class="cls-12" x="150.66" y="276.05" width="3.81" height="1.91" transform="translate(-123.45 429.58) rotate(-90)"/><rect class="cls-12" x="151.07" y="270.74" width="4.9" height="3.81" transform="translate(-118.14 426.17) rotate(-90)"/><rect class="cls-12" x="149.12" y="265.79" width="6.9" height="1.91" transform="translate(-113.19 419.32) rotate(-90)"/><rect class="cls-12" x="151.07" y="323.09" width="4.9" height="3.81" transform="translate(-170.49 478.52) rotate(-90)"/><rect class="cls-12" x="150.66" y="319.68" width="3.81" height="1.91" transform="translate(-167.09 473.21) rotate(-90)"/><rect class="cls-12" x="151.07" y="314.37" width="4.9" height="3.81" transform="translate(-161.77 469.8) rotate(-90)"/><rect class="cls-12" x="150.66" y="310.96" width="3.81" height="1.91" transform="translate(-158.37 464.49) rotate(-90)"/><rect class="cls-12" x="151.07" y="305.65" width="4.9" height="3.81" transform="translate(-153.05 461.08) rotate(-90)"/><rect class="cls-12" x="150.66" y="302.25" width="3.81" height="1.91" transform="translate(-149.65 455.77) rotate(-90)"/><rect class="cls-12" x="151.07" y="296.93" width="4.9" height="3.81" transform="translate(-144.33 452.36) rotate(-90)"/><rect class="cls-12" x="150.66" y="293.53" width="3.81" height="1.91" transform="translate(-140.93 447.05) rotate(-90)"/><rect class="cls-12" x="230.87" y="296.31" width="5.18" height="3.81" transform="translate(-63.78 531.68) rotate(-90)"/><rect class="cls-12" x="232.51" y="292.77" width="3.81" height="1.91" transform="translate(-58.33 528.13) rotate(-90)"/><rect class="cls-12" x="231.01" y="287.45" width="4.9" height="3.81" transform="translate(-54.92 522.82) rotate(-90)"/><rect class="cls-12" x="232.51" y="284.05" width="3.81" height="1.91" transform="translate(-49.61 519.42) rotate(-90)"/><rect class="cls-12" x="230.94" y="278.67" width="5.04" height="3.81" transform="translate(-46.13 514.03) rotate(-90)"/><rect class="cls-12" x="232.51" y="275.19" width="3.81" height="1.91" transform="translate(-40.75 510.56) rotate(-90)"/><rect class="cls-12" x="231.01" y="269.88" width="4.9" height="3.81" transform="translate(-37.35 505.25) rotate(-90)"/><rect class="cls-12" x="231.46" y="265.43" width="5.9" height="1.91" transform="translate(-30.99 500.8) rotate(-90)"/><rect class="cls-12" x="230.87" y="322.82" width="5.18" height="3.81" transform="translate(-90.28 558.18) rotate(-90)"/><rect class="cls-12" x="232.51" y="319.27" width="3.81" height="1.91" transform="translate(-84.83 554.64) rotate(-90)"/><rect class="cls-12" x="231.01" y="313.96" width="4.9" height="3.81" transform="translate(-81.43 549.33) rotate(-90)"/><rect class="cls-12" x="232.51" y="310.56" width="3.81" height="1.91" transform="translate(-76.12 545.92) rotate(-90)"/><rect class="cls-12" x="231.01" y="305.11" width="4.9" height="3.81" transform="translate(-72.57 540.47) rotate(-90)"/><rect class="cls-12" x="232.51" y="301.7" width="3.81" height="1.91" transform="translate(-67.26 537.07) rotate(-90)"/><rect class="cls-12" x="231.01" y="296.39" width="4.9" height="3.81" transform="translate(-63.85 531.75) rotate(-90)"/><rect class="cls-12" x="231.01" y="287.67" width="4.9" height="3.81" transform="translate(-55.14 523.03) rotate(-90)"/><rect class="cls-12" x="232.51" y="292.98" width="3.81" height="1.91" transform="translate(-58.54 528.35) rotate(-90)"/><rect class="cls-9" x="153.93" y="375.6" width="4.9" height="7.63" transform="translate(-222.05 535.8) rotate(-90)"/><rect class="cls-9" x="152.57" y="373.15" width="3.81" height="3.81" transform="translate(-219.6 529.54) rotate(-90)"/><path class="cls-19" d="M599.08,130.51c3.22,0,3.22-5,0-5s-3.22,5,0,5Z" transform="translate(0.98 0)"/><rect class="cls-20" x="1" y="40.89" width="1320" height="19.91"/><path class="cls-21" d="M137.82,88.74c-8.14,25.13-32.08,30.33-53.38,16.31C69.28,95,57.83,97.52,52.49,99.77a65.9,65.9,0,0,1-15.39,4.55,85.8,85.8,0,0,1-22.43.34A104.06,104.06,0,0,1,0,101.93V0A27.57,27.57,0,0,1,14.25,9.44c5.9,8,19.07,6.32,36,.8,11.58-3.75,29.1,3.65,35.3,15,3.8,7,1,12.87,6.74,18.73,4.4,4.44,9.22,4.25,14.91,5.86C123.32,54.42,142.9,73.07,137.82,88.74Z" transform="translate(0.98 0)"/><path class="cls-22" d="M110.72,82.43S56.62,49.05.07,48.44" transform="translate(0.98 0)"/><path class="cls-23" d="M21.09,136.29A30.23,30.23,0,0,1,0,158.42V85.91a99.61,99.61,0,0,1,14.67,18.75C20.42,114.5,23.58,125.32,21.09,136.29Z" transform="translate(0.98 0)"/><path class="cls-14" d="M1286,261.15a38.28,38.28,0,1,1-61.59-9.14" transform="translate(0.98 0)"/></svg>