<svg id="senior" xmlns="http://www.w3.org/2000/svg" viewBox="0 0 527.47 447.09"><defs><style>.cls-1{fill:#e0c9c4;}.cls-2{fill:#d7edf5;}.cls-3{fill:#d5431f;}.cls-4{fill:#f9c6a2;}.cls-11,.cls-18,.cls-5,.cls-6,.cls-7{fill:none;}.cls-5,.cls-6,.cls-7{stroke:#fff;}.cls-11,.cls-18,.cls-5,.cls-6{stroke-linecap:round;}.cls-5{stroke-linejoin:round;}.cls-11,.cls-5,.cls-6{stroke-width:2px;}.cls-11,.cls-18,.cls-6,.cls-7{stroke-miterlimit:10;}.cls-18,.cls-7{stroke-width:0.5px;}.cls-8{fill:#191919;}.cls-9{fill:#f6ae89;}.cls-10{fill:#f6e9e5;}.cls-11{stroke:#6079a7;}.cls-12{fill:#203b77;}.cls-13{fill:#1f335f;}.cls-14{fill:#e55720;}.cls-15{fill:#2a305c;}.cls-16{fill:#1a2442;}.cls-17{fill:#182624;}.cls-18{stroke:#182624;}</style></defs><g id="BANC"><rect class="cls-1" x="10.47" y="247.82" width="506.52" height="47.88"/><rect class="cls-1" y="307.68" width="525.23" height="15.71"/><rect class="cls-2" y="277" width="10.47" height="30.68"/><rect class="cls-2" x="27.79" y="323.39" width="10.47" height="61.49"/><rect class="cls-2" x="258.5" y="323.39" width="10.47" height="61.49"/><rect class="cls-2" x="486.56" y="323.39" width="10.47" height="61.49"/><rect class="cls-2" x="517" y="277" width="10.47" height="30.68"/><rect class="cls-2" x="471.27" y="295.71" width="10.47" height="11.97"/><rect class="cls-2" x="258.5" y="295.71" width="10.47" height="11.97"/></g><path class="cls-3" d="M191.8,70.64a66.25,66.25,0,0,1,8.09,3C251.26,96.24,260,178.81,262,207.71l-33.31,2.41-8.46-36.86a53.43,53.43,0,0,0-16.58-28c-8-7.07-18.24-14.57-27.1-15.78Z" transform="translate(-8.45 -8.57)"/><path class="cls-4" d="M253.54,208.32l-.81,22.81A36.79,36.79,0,0,1,250,244.05c-1.62,3.87-3.86,7.55-6.34,6.73a1.32,1.32,0,0,1-1.41-1.27s-3,3.2-4.11-.3V234.07s-2.51,10.13-4.61,6.72,0-14.47,0-14.47l1.9-16.68Z" transform="translate(-8.45 -8.57)"/><line class="cls-5" x1="222.17" y1="172.82" x2="253.06" y2="171.45"/><path class="cls-6" d="M229.72,189.71l33.65-1.09" transform="translate(-8.45 -8.57)"/><line class="cls-7" x1="152.68" y1="170.26" x2="120" y2="170.26"/><path class="cls-8" d="M161.13,202.75H142.71a13.8,13.8,0,0,1-8.37-2.86h0a15.48,15.48,0,0,1-6-12.44l.59-76.13a10.82,10.82,0,0,1,2.57-7h0a9.62,9.62,0,0,1,7.32-3.43h2V70a9,9,0,0,1,9-9h11.25Z" transform="translate(-8.45 -8.57)"/><path class="cls-7" d="M147.51,178.83v-98c0-8,6.1-14.44,13.62-14.44h0" transform="translate(-8.45 -8.57)"/><g id="COU"><path class="cls-9" d="M188.77,52.08l-6,20.94s9.8-2.69,23.05,4.42l3.08-15.94S195.68,44.59,188.77,52.08Z" transform="translate(-8.45 -8.57)"/></g><polygon class="cls-9" points="262.02 400.88 267.68 416.14 298.01 405.81 294.21 391.09 262.02 400.88"/><path class="cls-10" d="M276.13,424.7l2.9,16.37a13.15,13.15,0,0,0,.91,3l.76,1.73a13.13,13.13,0,0,0,16,7.22l57.85-18.45a2.29,2.29,0,0,0,1.25-3.4,20.91,20.91,0,0,0-15.63-9.73L309,418.28l-2.5-3.9Z" transform="translate(-8.45 -8.57)"/><line class="cls-11" x1="311.74" y1="410.85" x2="307.7" y2="423.02"/><line class="cls-11" x1="320.49" y1="410.85" x2="316.44" y2="423.02"/><g id="JAMBE_DROITE" data-name="JAMBE DROITE"><path class="cls-12" d="M150.48,198.21l3,16.69a48.12,48.12,0,0,0,5.11,14.53l100.75,185L320.2,399l-84.86-200.8Z" transform="translate(-8.45 -8.57)"/><path class="cls-11" d="M172.6,198.21,179,220.86a69.63,69.63,0,0,0,5.51,13.76L267.3,391.2" transform="translate(-8.45 -8.57)"/><path class="cls-13" d="M248.46,394.42l63-16.18q4.38,10.38,8.78,20.77l-60.86,15.37Z" transform="translate(-8.45 -8.57)"/></g><ellipse class="cls-14" cx="178.34" cy="93.09" rx="33.17" ry="30.23"/><path class="cls-14" d="M178.63,72.35a71.91,71.91,0,0,0-8.08,3,76.13,76.13,0,0,0-23.93,16.85c-25.77,25.56-35.17,62.27-35.17,62.27a142.48,142.48,0,0,0-3,55l33.31,2.42L150.22,175a53.47,53.47,0,0,1,16.58-28c8-7.07,18.25-14.56,27.1-15.78Z" transform="translate(-8.45 -8.57)"/><path class="cls-4" d="M116.9,210l.8,22.81a36.48,36.48,0,0,0,2.77,12.92c1.61,3.87,3.86,7.56,6.34,6.73a1.32,1.32,0,0,0,1.41-1.27s3,3.21,4.1-.3V235.79s2.51,10.12,4.61,6.71,0-14.47,0-14.47L135,211.35Z" transform="translate(-8.45 -8.57)"/><path class="cls-8" d="M148.8,181.17c.11-.36.22-.75.33-1.16v.6Z" transform="translate(-8.45 -8.57)"/><path class="cls-8" d="M147.51,80.79c1.79,1.52,4.51,3.33,7.68,3.1C153.75,85,150,84.26,147.51,80.79Z" transform="translate(-8.45 -8.57)"/><path class="cls-8" d="M154.37,163.28q1.83-5.49,3.61-10.62-3.67,11.19-7.34,22.37C151.66,171.68,152.91,167.71,154.37,163.28Z" transform="translate(-8.45 -8.57)"/><path class="cls-8" d="M193.36,94.85c-1.44,5.48-6.62,17.09-14.85,33Q185.94,111.37,193.36,94.85Z" transform="translate(-8.45 -8.57)"/><path class="cls-14" d="M157.3,146.92l-9.17,51.29h95.64s-15-116.35-38.35-120.77Z" transform="translate(-8.45 -8.57)"/><g id="JAMBE_GAUCHE" data-name="JAMBE GAUCHE"><polygon class="cls-15" points="149.82 219.47 142.47 291.95 89.76 373.27 136.48 405.82 200.58 312.64 149.82 219.47"/><polygon class="cls-16" points="89.76 373.27 100.21 357.14 148.33 388.6 136.48 405.82 89.76 373.27"/></g><g id="PIED_GAUCHE" data-name="PIED GAUCHE"><polygon class="cls-9" points="100.24 380.57 91.75 394.45 118.63 411.9 127.84 399.8 100.24 380.57"/><path class="cls-10" d="M100.2,403l-10.69,10.6a9.82,9.82,0,0,0-.13,13.81L113,451.69a8.62,8.62,0,0,0,5.83,2.6l36.57,1.37s5.11-18-19.07-20.26l-9.21-14.94Z" transform="translate(-8.45 -8.57)"/><line class="cls-11" x1="125.31" y1="418.35" x2="112.55" y2="419.74"/><line class="cls-11" x1="128.94" y1="426.3" x2="116.19" y2="427.69"/></g><path class="cls-17" d="M184.57,43.17c-2.33-4.63-11.87-25.71,6.61-28a2,2,0,0,0,1.45-1c1.46-2.57,6.71-9.4,19.1-3a1.48,1.48,0,0,0,.29.12c.79.25,4.46,1.3,6.86.35a1.89,1.89,0,0,1,2.69,1.35h0a2,2,0,0,0,2.27,1.48L226.6,14a2,2,0,0,1,2.27,1.48c.78,3.49,1.42,11-6.79,13.19a159.53,159.53,0,0,1-18.67,3.59,7.23,7.23,0,0,0-5.7,4.36l-.78,1.86a9.66,9.66,0,0,1-10.44,5.78l-.48-.08A2,2,0,0,1,184.57,43.17Z" transform="translate(-8.45 -8.57)"/><path class="cls-4" d="M224.75,43.88a31.28,31.28,0,0,1-.66,5.4,28.7,28.7,0,0,1-4,9.8,7.49,7.49,0,0,1-4.22,3.17c-19.21,5.5-24.52-10.36-24.52-10.36-1.75,4.19-13.64,1.2-9.44-7.83s11.79-1.16,11.79-1.16l2.71-11.24a7.7,7.7,0,0,1,8.74-5.78l16.92,2.82A38.59,38.59,0,0,1,224.75,43.88Z" transform="translate(-8.45 -8.57)"/><path class="cls-8" d="M193.57,94c-.06.26-.13.55-.21.86q-7.41,16.5-14.85,33c-7.46,14.47-17.43,32.5-29.38,52.73V180l1.51-5q3.66-11.19,7.34-22.37,11.34-34.49,22.66-69a5.24,5.24,0,0,0-.43-4.34,4.81,4.81,0,0,0-.79-1c-4.36-4.23-16.07,0-23.29,5.39-.42.31-.75.58-1,.76a7.24,7.24,0,0,0,1-3.94A7.42,7.42,0,0,0,154,75.64a33.59,33.59,0,0,1,14.22-6.06c1.78-.29,15.74-2.61,23,5.57l.19.21C196.32,81.1,194.5,89.63,193.57,94Z" transform="translate(-8.45 -8.57)"/><path class="cls-8" d="M150.64,175l-1.51,5c0-.15,0-.29,0-.44Z" transform="translate(-8.45 -8.57)"/><path class="cls-8" d="M178.51,127.88Q163.74,160.76,149,193.66l.18-13C161.08,160.38,171.05,142.35,178.51,127.88Z" transform="translate(-8.45 -8.57)"/><circle class="cls-9" cx="191.94" cy="35.86" r="3.35"/><path class="cls-9" d="M224.75,43.88a31.28,31.28,0,0,1-.66,5.4,3.36,3.36,0,0,1,.66-5.4Z" transform="translate(-8.45 -8.57)"/><path class="cls-18" d="M219.16,51.11a3.91,3.91,0,0,1-3,1,4.62,4.62,0,0,1-3-2.14" transform="translate(-8.45 -8.57)"/><circle class="cls-17" cx="205.47" cy="31.48" r="0.78"/><circle class="cls-17" cx="215.05" cy="31.05" r="0.78"/><path class="cls-18" d="M213.92,33.84s-3.79-2-6.33,1.25" transform="translate(-8.45 -8.57)"/><path class="cls-18" d="M223.83,33.39a4.64,4.64,0,0,0-3,.24" transform="translate(-8.45 -8.57)"/><path class="cls-9" d="M217.5,45.5A2.84,2.84,0,0,0,221,43.05a5.33,5.33,0,0,1-1.47,1.54A5.59,5.59,0,0,1,217.5,45.5Z" transform="translate(-8.45 -8.57)"/></svg>