<svg id="Calque_3" data-name="Calque 3" xmlns="http://www.w3.org/2000/svg" viewBox="0 0 264.84 447.08"><defs><style>.cls-1{fill:#f6e9e5;}.cls-2{fill:#a0704f;}.cls-3{fill:#885434;}.cls-4{fill:#192624;}.cls-10,.cls-5,.cls-6,.cls-7{fill:none;stroke-miterlimit:10;}.cls-5{stroke:#f6e9e5;}.cls-5,.cls-6,.cls-7{stroke-linecap:round;}.cls-10,.cls-5{stroke-width:2px;}.cls-6{stroke:#885434;stroke-width:0.5px;}.cls-7{stroke:#192624;stroke-width:0.25px;}.cls-8{fill:#d74211;}.cls-9{fill:#e45620;}.cls-10{stroke:#d74211;}.cls-11{fill:#f2b600;}.cls-12{fill:#a1cdd8;}.cls-13{fill:#bce1ed;}</style></defs><path class="cls-1" d="M90.9,179.27q-8.39,51-16.75,102a263.71,263.71,0,0,0,119.69-2.94l-17.67-99.11Z" transform="translate(-11.93 -0.79)"/><path class="cls-2" d="M141.69,286.4q6.15,66.17,12.31,132.33v8.71h24.18l-1.9-68.33,1.9-76.95c-5.73,1.11-11.93,2.09-18.54,2.85C153.3,285.74,147.3,286.17,141.69,286.4Z" transform="translate(-11.93 -0.79)"/><path class="cls-3" d="M103.42,420.39Q121.21,352.56,139,284.74l-35.19-6.91-13.76,64.7-9.63,76.62Z" transform="translate(-11.93 -0.79)"/><path class="cls-1" d="M118,59.45a12.24,12.24,0,0,1-7.83-21.37s9-2.36,9-7.57c0-7,.16-13,3.81-15.25,2.15-1.31,4.41,0,6.36-2,1.38-1.44,1-3,1.57-4.68,1.84-5.7,12.38-8.67,20.57-7.56A18.27,18.27,0,0,1,161.7,5.24a17.75,17.75,0,0,1,5.63,11,32,32,0,0,1,1.56,8.5,32.38,32.38,0,0,1-2.25,13.29c3.92,4.17,5.49,9.57,3.93,14.12a12.21,12.21,0,0,1-7.68,7.53c-7.71,2.38-12.72-5.79-25.39-5.9a30.51,30.51,0,0,0-6.9.73Z" transform="translate(-11.93 -0.79)"/><g id="COU"><path class="cls-3" d="M129.43,41.93,123.14,64a116.36,116.36,0,0,0,11.57,2.88,114.11,114.11,0,0,0,12.77,1.78l3.24-16.83S136.73,34,129.43,41.93Z" transform="translate(-11.93 -0.79)"/></g><path class="cls-2" d="M167.42,33.14a34.34,34.34,0,0,1-.76,6.17,30.5,30.5,0,0,1-4.14,10,8,8,0,0,1-4.47,3.35c-20.28,5.8-25.88-11-25.88-11-.33.61-1.62,2.81-3.85,3.16-3.15.5-5.69-3.11-6.6-5.26a7.86,7.86,0,0,1-.36-6,7.49,7.49,0,0,1,5.11-4.55,7.9,7.9,0,0,1,8.18,3.14l2.87-11.85a11.46,11.46,0,0,1,9.22-6.1l17.86,3a43.06,43.06,0,0,1,2.72,11.82l.06.78C167.45,31,167.46,32.09,167.42,33.14Z" transform="translate(-11.93 -0.79)"/><circle class="cls-3" cx="133.54" cy="35.64" r="3.54"/><path class="cls-3" d="M167.42,33.14a34.34,34.34,0,0,1-.76,6.17,3.53,3.53,0,0,1,.76-6.17Z" transform="translate(-11.93 -0.79)"/><circle class="cls-4" cx="144.58" cy="29.18" r="0.82"/><path class="cls-4" d="M167.38,29.86a.83.83,0,0,1-.75.48.82.82,0,0,1-.82-.82.83.83,0,0,1,.82-.83.84.84,0,0,1,.69.39Z" transform="translate(-11.93 -0.79)"/><path class="cls-5" d="M155.68,21.25s-4-2.07-6.67,1.31" transform="translate(-11.93 -0.79)"/><path class="cls-5" d="M167,21a4.75,4.75,0,0,0-3.73.49" transform="translate(-11.93 -0.79)"/><path class="cls-6" d="M151.82,35.66a5.66,5.66,0,0,0,1.85,1.19,5.59,5.59,0,0,0,3.13.24" transform="translate(-11.93 -0.79)"/><circle class="cls-2" cx="116.65" cy="34.87" r="7.05"/><path class="cls-7" d="M158.7,43.56a4.07,4.07,0,0,1-3.21,1,4.79,4.79,0,0,1-3.14-2.26" transform="translate(-11.93 -0.79)"/><rect class="cls-8" y="236.95" width="130.31" height="71.21" rx="16.6"/><rect class="cls-9" x="5.08" y="236.95" width="130.31" height="71.21" rx="16.6"/><path class="cls-10" d="M62.89,308.23l0-67.7a13,13,0,0,1,12.83-13.72l12.89-.13A13.11,13.11,0,0,1,97.37,230a13.62,13.62,0,0,1,4.18,10.7l0,67.57" transform="translate(-11.93 -0.79)"/><rect class="cls-11" x="60.3" y="222.45" width="19.86" height="7.04" rx="3.09"/><line class="cls-10" x1="5.08" y1="290.37" x2="135.39" y2="290.37"/><path class="cls-2" d="M192,141.72l1.9,14.17,47.48,37.35L235.65,208,191,186.84a9.59,9.59,0,0,1-5.44-7.74l-3.2-32.7Z" transform="translate(-11.93 -0.79)"/><path class="cls-2" d="M86.07,213.18,81.75,200l5.51-57.47,9.29-9.89L77.2,107.8l-11.73,12a14.32,14.32,0,0,0-3.92,7.7C60,136.7,58.22,160,67.13,203.23h.06l2.29,9.54v9.36c.49,2.3,1.09,4.74,1.84,7.29q1,3.33,2.05,6.25c1.24,1.45,2.2,1.7,2.83,1.66.89,0,1.21-.66,2.39-.7,1,0,1,.37,2.13.48,1.43.14,1.61-.51,3.29-.55,1.45,0,1.74.42,2.62.14a3.57,3.57,0,0,0,1.91-1.85c1.23-2.2,0-5.47-1-7.42,1.3,2.23,3.69,5.76,4.58,3.64C92.11,231.06,90,217.6,86.07,213.18Zm1.45,14.22c-.43-.73-.75-1.32-.85-1.52A17.08,17.08,0,0,1,87.52,227.4Z" transform="translate(-11.93 -0.79)"/><path class="cls-12" d="M145.48,69.69s25.38-3.29,51.76,69.44l-18.47,9Z" transform="translate(-11.93 -0.79)"/><path class="cls-13" d="M96.69,129.17l-11.76,50.1H191.38l-13.76-77.09s-10.21-36.37-50.95-38.82Z" transform="translate(-11.93 -0.79)"/><path class="cls-12" d="M58.07,111.13S111.13,44,141.66,68.91s-29.21,91.24-29.21,91.24Z" transform="translate(-11.93 -0.79)"/><path class="cls-2" d="M235.65,208l5.63,1.7a57.43,57.43,0,0,0,8.43,3.92A59.68,59.68,0,0,0,271,217.33s2.16-1,.58-1.83c0,0,4.65-.7,3.68-2l-1-1.32s3.86-1.32,2-2.9S261.7,201,261.7,201s10.53,1.32,8-1.84-15.62-4.57-15.62-4.57h-8.87l-3.86-1.37" transform="translate(-11.93 -0.79)"/><circle class="cls-11" cx="118.56" cy="42.69" r="2.77"/><circle class="cls-12" cx="157.78" cy="104.79" r="3.26"/><circle class="cls-12" cx="158.41" cy="124.64" r="3.26"/><circle class="cls-12" cx="158.6" cy="144.49" r="3.26"/><circle class="cls-12" cx="158.6" cy="164.33" r="3.26"/><path class="cls-13" d="M135.22,447.87l-46.08-2.71L89,447l-14.82-1.35c.34-3.09.68-6.17,1-9.26q.91-8.75,1.84-17.51,14.16.75,28.32,1.52L128.4,433a17.54,17.54,0,0,1,8.9,12.62A1.94,1.94,0,0,1,135.22,447.87Z" transform="translate(-11.93 -0.79)"/><path class="cls-13" d="M210.47,444.64l-43.91.75v1.74l-14.1,0c0-1.49.09-3,.12-4.46q.16-10.56.31-21.14l27.28-.74,22.77,10.33a16.65,16.65,0,0,1,9.33,11.3A1.83,1.83,0,0,1,210.47,444.64Z" transform="translate(-11.93 -0.79)"/><path class="cls-3" d="M160.29,36.43a2.19,2.19,0,0,0,3-2.35S164.49,39,160.29,36.43Z" transform="translate(-11.93 -0.79)"/></svg>