<svg id="senior" xmlns="http://www.w3.org/2000/svg" viewBox="0 0 527.47 433"><defs><style>.cls-1{fill:#e0c9c4;}.cls-2{fill:#d7edf5;}.cls-3{fill:#f6e9e5;}.cls-4{fill:#a0704f;}.cls-5{fill:#885434;}.cls-6{fill:#192624;}.cls-12,.cls-7,.cls-8,.cls-9{fill:none;stroke-miterlimit:10;}.cls-7{stroke:#f6e9e5;}.cls-7,.cls-8,.cls-9{stroke-linecap:round;}.cls-12,.cls-7{stroke-width:2px;}.cls-8{stroke:#885434;stroke-width:0.5px;}.cls-9{stroke:#192624;stroke-width:0.25px;}.cls-10{fill:#d74211;}.cls-11{fill:#e45620;}.cls-12{stroke:#d74211;}.cls-13{fill:#f2b600;}.cls-14{fill:#a1cdd8;}.cls-15{fill:#bce1ed;}</style></defs><g id="BANC"><rect class="cls-1" x="10.47" y="245.39" width="506.52" height="47.88"/><rect class="cls-1" y="305.24" width="525.23" height="15.71"/><rect class="cls-2" y="274.57" width="10.47" height="30.68"/><rect class="cls-2" x="27.79" y="320.95" width="10.47" height="61.49"/><rect class="cls-2" x="258.5" y="320.95" width="10.47" height="61.49"/><rect class="cls-2" x="486.56" y="320.95" width="10.47" height="61.49"/><rect class="cls-2" x="517" y="274.57" width="10.47" height="30.68"/><rect class="cls-2" x="471.27" y="293.27" width="10.47" height="11.97"/><rect class="cls-2" x="258.5" y="293.27" width="10.47" height="11.97"/></g><path class="cls-3" d="M150.85,183.86q-8.11,49.41-16.22,98.84a255.52,255.52,0,0,0,115.92-2.86q-8.55-48-17.11-96Z" transform="translate(-8.45 -11)"/><path class="cls-4" d="M200,287.61q6,64.08,11.93,128.16v8.44h23.41L233.54,358l1.84-74.53c-5.55,1.07-11.55,2-18,2.76C211.29,287,205.48,287.39,200,287.61Z" transform="translate(-8.45 -11)"/><path class="cls-5" d="M163,417.38,197.45,286l-34.09-6.69L150,342l-9.33,74.2Z" transform="translate(-8.45 -11)"/><path class="cls-3" d="M177.06,67.82a11.81,11.81,0,0,1-10.81-7.74,11.94,11.94,0,0,1,3.23-13s8.69-2.28,8.69-7.32c0-6.77.16-12.63,3.69-14.78,2.09-1.26,4.28,0,6.16-1.93,1.35-1.39,1-2.88,1.52-4.53,1.78-5.52,12-8.4,19.93-7.33a17.74,17.74,0,0,1,9.95,4.09A17.17,17.17,0,0,1,224.87,26a30.71,30.71,0,0,1,1.52,8.23,31.09,31.09,0,0,1-2.19,12.87c3.81,4,5.32,9.28,3.81,13.68a11.79,11.79,0,0,1-7.43,7.29c-7.48,2.31-12.32-5.6-24.6-5.71a28.94,28.94,0,0,0-6.68.71Z" transform="translate(-8.45 -11)"/><g id="COU"><path class="cls-5" d="M188.17,50.85l-6.09,21.41a113.75,113.75,0,0,0,11.2,2.79,110.9,110.9,0,0,0,12.37,1.72l3.14-16.3S195.24,43.19,188.17,50.85Z" transform="translate(-8.45 -11)"/></g><path class="cls-4" d="M225,42.33a31.63,31.63,0,0,1-.74,6,29.31,29.31,0,0,1-4,9.69,7.73,7.73,0,0,1-4.33,3.24c-19.65,5.63-25.07-10.6-25.07-10.6-.32.6-1.56,2.72-3.72,3.07-3,.47-5.51-3-6.39-5.1a7.58,7.58,0,0,1-.36-5.79,7.24,7.24,0,0,1,5-4.41,7.65,7.65,0,0,1,7.92,3L196,30a11.19,11.19,0,0,1,8.93-5.91L222.23,27a41.61,41.61,0,0,1,2.64,11.45c0,.26,0,.51,0,.76A30.75,30.75,0,0,1,225,42.33Z" transform="translate(-8.45 -11)"/><circle class="cls-5" cx="195.25" cy="34.52" r="3.43"/><path class="cls-5" d="M225,42.33a31.63,31.63,0,0,1-.74,6,3.42,3.42,0,0,1,.74-6Z" transform="translate(-8.45 -11)"/><circle class="cls-6" cx="205.94" cy="28.26" r="0.79"/><path class="cls-6" d="M224.92,39.16a.81.81,0,0,1-.73.46.8.8,0,0,1,0-1.6.84.84,0,0,1,.68.38Z" transform="translate(-8.45 -11)"/><path class="cls-7" d="M213.6,30.82s-3.87-2-6.47,1.27" transform="translate(-8.45 -11)"/><path class="cls-7" d="M224.6,30.6a4.61,4.61,0,0,0-3.62.48" transform="translate(-8.45 -11)"/><path class="cls-8" d="M209.86,44.77a5.3,5.3,0,0,0,4.81,1.39" transform="translate(-8.45 -11)"/><circle class="cls-4" cx="178.89" cy="33.77" r="6.83"/><path class="cls-9" d="M216.51,52.43a3.93,3.93,0,0,1-3.1,1,4.68,4.68,0,0,1-3-2.19" transform="translate(-8.45 -11)"/><rect class="cls-10" x="65.92" y="229.49" width="126.21" height="68.97" rx="16.6"/><rect class="cls-11" x="70.83" y="229.49" width="126.21" height="68.97" rx="16.6"/><path class="cls-12" d="M123.73,308.76l-.06-65.57a12.59,12.59,0,0,1,12.44-13.29l12.48-.13a12.76,12.76,0,0,1,8.53,3.21,13.11,13.11,0,0,1,4,10.36l.06,65.45" transform="translate(-8.45 -11)"/><rect class="cls-13" x="124.32" y="215.44" width="19.24" height="6.82" rx="3.09"/><line class="cls-12" x1="70.83" y1="281.22" x2="197.04" y2="281.22"/><path class="cls-4" d="M248.72,147.49l1.84,13.73,46,36.16L291,211.7l-43.21-20.51a9.31,9.31,0,0,1-5.27-7.5L239.46,152Z" transform="translate(-8.45 -11)"/><path class="cls-4" d="M146.17,216.7,142,203.91l5.34-55.65,9-9.58-18.74-24-11.36,11.59a13.85,13.85,0,0,0-3.79,7.45c-1.5,8.95-3.23,31.54,5.4,73.39h.06l2.22,9.23v9.06q.7,3.36,1.78,7.07c.64,2.15,1.3,4.16,2,6.05,1.21,1.4,2.13,1.64,2.75,1.61.86-.05,1.17-.64,2.31-.68.94,0,1,.36,2.06.46,1.39.14,1.56-.48,3.19-.52,1.4,0,1.68.4,2.53.13a3.49,3.49,0,0,0,1.86-1.8c1.18-2.12,0-5.29-1-7.18,1.26,2.16,3.58,5.58,4.44,3.53C152,234,150,221,146.17,216.7Zm1.41,13.77c-.42-.7-.73-1.28-.82-1.47C146.88,229.19,147.21,229.73,147.58,230.47Z" transform="translate(-8.45 -11)"/><path class="cls-14" d="M203.71,77.73s24.58-3.19,50.13,67.25L236,153.74Z" transform="translate(-8.45 -11)"/><path class="cls-15" d="M156.46,135.33l-11.39,48.53h103.1L234.84,109.2S225,74,185.5,71.6Z" transform="translate(-8.45 -11)"/><path class="cls-14" d="M119.06,117.86S170.45,52.83,200,77s-28.28,88.37-28.28,88.37Z" transform="translate(-8.45 -11)"/><path class="cls-4" d="M291,211.7l5.46,1.65a55.75,55.75,0,0,0,8.16,3.8,57.82,57.82,0,0,0,20.57,3.57s2.09-1,.56-1.77c0,0,4.5-.68,3.57-1.95l-.94-1.28s3.74-1.27,2-2.8-14.11-8-14.11-8,10.2,1.28,7.73-1.78-15.13-4.42-15.13-4.42h-8.58l-3.74-1.34" transform="translate(-8.45 -11)"/><circle class="cls-13" cx="180.74" cy="41.35" r="2.68"/><circle class="cls-14" cx="218.72" cy="101.49" r="3.16"/><circle class="cls-14" cx="219.34" cy="120.71" r="3.16"/><circle class="cls-14" cx="219.52" cy="139.93" r="3.16"/><circle class="cls-14" cx="219.52" cy="159.16" r="3.16"/><path class="cls-15" d="M193.78,444l-44.63-2.62-.17,1.77-14.35-1.3q.5-4.48,1-9,.88-8.47,1.78-17l27.43,1.47,22.34,12.24a17,17,0,0,1,8.62,12.22A1.87,1.87,0,0,1,193.78,444Z" transform="translate(-8.45 -11)"/><path class="cls-15" d="M266.65,440.87l-42.52.72v1.69l-13.65,0c0-1.44.08-2.88.11-4.31l.3-20.48,26.42-.72,22.06,10a16.12,16.12,0,0,1,9,10.95A1.77,1.77,0,0,1,266.65,440.87Z" transform="translate(-8.45 -11)"/><path class="cls-5" d="M218.06,45.52A2.11,2.11,0,0,0,221,43.25S222.12,48,218.06,45.52Z" transform="translate(-8.45 -11)"/></svg>