<svg id="Calque_2" data-name="Calque 2" xmlns="http://www.w3.org/2000/svg" viewBox="0 0 166.54 447.6"><defs><style>.cls-1,.cls-10,.cls-13,.cls-14,.cls-9{fill:none;stroke-miterlimit:10;}.cls-1{stroke:#fff;stroke-width:3px;}.cls-2{fill:#f6ae89;}.cls-3{fill:#2a305c;}.cls-4{fill:#f2b700;}.cls-5{fill:#eead00;}.cls-6{fill:#f9c6a2;}.cls-7{fill:#182624;}.cls-8{fill:#f6e9e5;}.cls-9{stroke:#f6e9e5;}.cls-13,.cls-14,.cls-9{stroke-linecap:round;}.cls-13,.cls-9{stroke-width:2px;}.cls-10{stroke:#f6ae89;stroke-width:0.5px;}.cls-11{fill:#e55720;}.cls-12{fill:#d13e16;}.cls-13{stroke:#4a5480;}.cls-14{stroke:#182624;stroke-width:0.25px;}</style></defs><line class="cls-1" x1="147.88" y1="332.98" x2="139.77" y2="332.98"/><polygon class="cls-2" points="81.39 400.01 80.95 414.48 52.42 414.38 51.46 400.88 81.39 400.01"/><path class="cls-3" d="M95,223.13h.18a14.45,14.45,0,0,0,9.5-3.32l2.76-40.35.24-3.56c.85-6.21,1.68-12.4,2.53-18.61l2-14.38q5.1-37.48,10.18-74.95,6.27-2.33,12.52-4.61l-1-5.19L120.09,58,86.67,212.12A9,9,0,0,0,95,223.13Zm13.6-82-2.5,11.84" transform="translate(-48.58 -0.14)"/><path class="cls-3" d="M65.65,445l64.72,1.11q-.3-19.86-.59-39.71l-29.37-.21q-.47,6.06-.92,12.13L74.06,429.8a18.58,18.58,0,0,0-10.43,12.64A2,2,0,0,0,65.65,445Z" transform="translate(-48.58 -0.14)"/><polygon class="cls-2" points="156.72 398.37 157.29 412.79 128.91 414.68 127.01 401.32 156.72 398.37"/><path class="cls-3" d="M144.52,447.73,208.94,444l-4.68-54.56-30.32.28q1.09,14.49,2.21,29L151.74,432a18.52,18.52,0,0,0-9.41,13.35A2,2,0,0,0,144.52,447.73Z" transform="translate(-48.58 -0.14)"/><path class="cls-4" d="M100.65,178,90.6,406.08l48.59.33q8.17-114.2,16.36-228.4" transform="translate(-48.58 -0.14)"/><path class="cls-5" d="M177.87,178H101.34l54.51,228.31h59.27Q196.51,292.16,177.87,178Z" transform="translate(-48.58 -0.14)"/><g id="COU"><path class="cls-2" d="M152.43,37.29l6.11,21.51a113.5,113.5,0,0,1-11.26,2.81,112.18,112.18,0,0,1-12.42,1.73L131.7,47S145.32,29.59,152.43,37.29Z" transform="translate(-48.58 -0.14)"/></g><path class="cls-6" d="M115.45,28.73a32,32,0,0,0,.74,6,29.6,29.6,0,0,0,4,9.74,7.76,7.76,0,0,0,4.35,3.25c19.74,5.66,25.19-10.65,25.19-10.65a6.69,6.69,0,0,0,10.16-2,7.17,7.17,0,0,0,.36-5.82,7.27,7.27,0,0,0-5-4.43,7.68,7.68,0,0,0-8,3.05l-2.8-11.53c2.27-2.95,3-6.29,1.78-7.85-1.46-1.88-6.38-2-10.75,1.91l-17.06,2.69a34.68,34.68,0,0,0-2.14,6.23,42.52,42.52,0,0,0-.84,5.49c0,.26,0,.51-.05.76A31.14,31.14,0,0,0,115.45,28.73Z" transform="translate(-48.58 -0.14)"/><circle class="cls-2" cx="88.23" cy="31.8" r="3.44"/><path class="cls-2" d="M115.45,28.73a32,32,0,0,0,.74,6,3.44,3.44,0,0,0-.74-6Z" transform="translate(-48.58 -0.14)"/><circle class="cls-7" cx="77.49" cy="25.51" r="0.8"/><path class="cls-7" d="M115.49,25.54a.82.82,0,0,0,.73.47.81.81,0,0,0,0-1.61.84.84,0,0,0-.68.38Z" transform="translate(-48.58 -0.14)"/><path class="cls-8" d="M147,29.52l-4.23-.79v7.75a5.2,5.2,0,0,1-1.9,4.06c-3.17,2.55-10.3,6.47-21.45,2.61,0,0-.14,12.13,6.66,11s24.3-5.2,23.69-17.1Q148.37,33.3,147,29.52Z" transform="translate(-48.58 -0.14)"/><path class="cls-9" d="M126.87,17.16s3.89-2,6.5,1.27" transform="translate(-48.58 -0.14)"/><path class="cls-9" d="M115.82,16.94a4.64,4.64,0,0,1,3.63.48" transform="translate(-48.58 -0.14)"/><path class="cls-10" d="M130.63,31.18a5.32,5.32,0,0,1-4.84,1.4" transform="translate(-48.58 -0.14)"/><path class="cls-8" d="M127.3,37.2c-2.1-2.1-7.34-6.19-11.7.11-.26.39,0,1,.41,1l11-.07C127.46,38.24,127.65,37.56,127.3,37.2Z" transform="translate(-48.58 -0.14)"/><path class="cls-8" d="M142.76,29.92H157.5S165.17-.3,137.13.14,115.89,21,115.89,21l2.63-7.89,22.12.22,5.69-4.82L142.61,15Z" transform="translate(-48.58 -0.14)"/><ellipse class="cls-6" cx="105.2" cy="31.58" rx="7.16" ry="6.87"/><path class="cls-11" d="M100.07,179.5l7.36,0q10.39-.08,20.78-.11-3-55.69-5.88-111.39c0-.86-.1-1.7-.14-2.56q-2.67,17.67-5.94,36.06c-.56,3.09-1.12,6.18-1.7,9.29q-1.35,7.31-2.8,14.73-1.55,7.89-3.16,15.61c-.81,4-1.66,7.92-2.5,11.84Q103.17,166.46,100.07,179.5Z" transform="translate(-48.58 -0.14)"/><path class="cls-12" d="M106.09,152.93q1.44,3.18,2.88,6.33l1.23-2q2.42-3.89,4.85-7.75l-2.9-6.63c-.69-1.59-1.39-3.17-2.08-4.76l-1.48,2.94C107.78,145.07,106.93,149,106.09,152.93Z" transform="translate(-48.58 -0.14)"/><path class="cls-12" d="M117.37,114.29l5,11.39-6.08,9.72-4.52-9.93Z" transform="translate(-48.58 -0.14)"/><path class="cls-12" d="M115.37,157.86l5,11.38q-3,4.86-6.08,9.72-2.26-5-4.52-9.92Z" transform="translate(-48.58 -0.14)"/><path class="cls-12" d="M124.4,94.43q2.47,5.7,5,11.38l-6.08,9.73-4.52-9.93Q121.59,100,124.4,94.43Z" transform="translate(-48.58 -0.14)"/><path class="cls-12" d="M114.55,110.75l3.39-5.42-1.69-3.87C115.69,104.55,115.13,107.64,114.55,110.75Z" transform="translate(-48.58 -0.14)"/><path class="cls-12" d="M122.49,138.16q2.49,5.68,5,11.38-3,4.86-6.08,9.72-2.25-5-4.52-9.92Q119.68,143.75,122.49,138.16Z" transform="translate(-48.58 -0.14)"/><path class="cls-3" d="M162.8,56.07l-40.61,9.34s-.45,155.1,20.31,160,55-18.66,55-18.66Z" transform="translate(-48.58 -0.14)"/><path class="cls-13" d="M164.43,192.64s-23.9,13.85-28-16.61" transform="translate(-48.58 -0.14)"/><path class="cls-6" d="M86.39,164.44l-9.75,1.78-8.33,3.68c-2.24.47-4.65.89-7.22,1.23q-3.35.44-6.37.63c-1.77-.53-2.37-1.28-2.59-1.86-.3-.82.11-1.35-.31-2.41-.36-.87-.74-.76-1.27-1.7-.68-1.22-.18-1.63-.81-3.16-.53-1.29-1.05-1.37-1.14-2.26a3.55,3.55,0,0,1,.89-2.45c2.17-2.85,8.53-1.88,8.8-1.83,0,0-9-.53-6.85-2.82,0,0,14.59-3.89,19.3-1.22l12.43-1.92Z" transform="translate(-48.58 -0.14)"/><path class="cls-3" d="M75.89,139.79,80.28,176a108.25,108.25,0,0,0,42-5.85c27.84-9.82,66.61-36.89,66.71-74.44,0-5.89-.91-17.18-8.75-30.89a16.84,16.84,0,0,0-16.29-8.58c-9.1,1-21.45,8.06-30.39,35.12C117.64,139.45,90.56,142.83,75.89,139.79Z" transform="translate(-48.58 -0.14)"/><path class="cls-14" d="M123.94,38.87a3.89,3.89,0,0,0,3.12,1,4.72,4.72,0,0,0,3.06-2.19" transform="translate(-48.58 -0.14)"/><path class="cls-13" d="M161.49,69l-26.64,6.78" transform="translate(-48.58 -0.14)"/></svg>