<svg id="Calque_1" data-name="Calque 1" xmlns="http://www.w3.org/2000/svg" viewBox="0 0 1322 700"><defs><style>.cls-1{fill:#f7f5f5;}.cls-14,.cls-16,.cls-2,.cls-21,.cls-24,.cls-25,.cls-29,.cls-35,.cls-36,.cls-38,.cls-39,.cls-41,.cls-42,.cls-46,.cls-48,.cls-7{fill:none;}.cls-2{stroke:#e0c9c4;}.cls-14,.cls-16,.cls-2,.cls-24,.cls-25,.cls-29,.cls-35,.cls-36,.cls-38,.cls-39,.cls-41,.cls-42,.cls-46,.cls-48,.cls-7{stroke-miterlimit:10;}.cls-3{fill:#dfb306;}.cls-4{fill:#e8b606;}.cls-5{fill:#107ba1;}.cls-6{fill:#1d3967;}.cls-7{stroke:#182642;opacity:0.51;}.cls-16,.cls-21,.cls-24,.cls-29,.cls-38,.cls-41,.cls-7{stroke-width:2px;}.cls-8{fill:#eead07;}.cls-9{fill:#2a315a;}.cls-10{fill:#f8ece9;}.cls-11{fill:#f3b809;}.cls-12{fill:#c1e4ee;}.cls-13{fill:#bee1ed;}.cls-14,.cls-21,.cls-24,.cls-25,.cls-36{stroke:#fff;}.cls-14,.cls-16,.cls-21,.cls-24,.cls-29,.cls-35,.cls-38,.cls-41,.cls-42,.cls-48{stroke-linecap:round;}.cls-15{fill:#1d3c76;}.cls-16{stroke:#eaedf2;}.cls-17{fill:#dcc7c1;}.cls-18{fill:#e4572b;}.cls-19{fill:#d6441e;}.cls-20{fill:#f9c6a2;}.cls-21{stroke-linejoin:round;}.cls-22{fill:#e0c9c4;}.cls-23{fill:#d8eef5;}.cls-25,.cls-35,.cls-39{stroke-width:0.5px;}.cls-26{fill:#1a1a1a;}.cls-27{fill:#f6ae89;}.cls-28{fill:#f7e9e5;}.cls-29{stroke:#617aa8;}.cls-30{fill:#20345e;}.cls-31{fill:#e55820;}.cls-32{fill:#2b315c;}.cls-33{fill:#192542;}.cls-34{fill:#182624;}.cls-35,.cls-42{stroke:#182624;}.cls-36{stroke-width:3px;}.cls-37{fill:#f1b705;}.cls-38{stroke:#f7e9e5;}.cls-39{stroke:#f6ae89;}.cls-40{fill:#d23f16;}.cls-41{stroke:#4b5581;}.cls-42{stroke-width:0.25px;}.cls-43{fill:#eaedf2;}.cls-44{fill:#d74417;}.cls-45{font-size:55.38px;fill:#fff;font-family:Chalkboard;}.cls-46{stroke:#d74417;stroke-width:4px;}.cls-47{fill:#e4582b;}.cls-48{stroke:#fddba4;}.cls-49{fill:#edac1d;}</style></defs><rect class="cls-1" x="1" width="1320" height="389.3"/><rect class="cls-2" x="1" y="640.75" width="1320" height="26.2"/><rect class="cls-3" x="1" y="640.75" width="1320" height="26.2"/><rect class="cls-4" x="1" y="556.25" width="1320" height="13.82"/><rect class="cls-5" x="1" y="570.08" width="1320" height="70.67"/><rect class="cls-6" x="1" y="666.95" width="1320" height="33.05"/><polyline class="cls-7" points="479.62 640.75 461.9 662.2 461.9 700"/><polyline class="cls-7" points="858.72 640.75 876.68 662.2 876.68 700"/><path class="cls-8" d="M1157.81,242v23.9a20.06,20.06,0,0,1-13.27,5.87l-1.08,0q-.54,0-1,0l-.72,0h-50.38l-.09,0,0,0h-50.44a0,0,0,0,1,0,0,14.85,14.85,0,0,1,5.72-7.76,16.63,16.63,0,0,1-12.09-15.72c0-9.12,7.8-16.51,17.41-16.51a18.19,18.19,0,0,1,7.47,1.6,16,16,0,0,1,3.65-9,17.73,17.73,0,0,1,13.71-6.33,18.23,18.23,0,0,1,8,1.84c.24-.3.49-.6.76-.89a17.37,17.37,0,0,1,10.13-5.15,19.93,19.93,0,0,1,2.21-.21c.29,0,.58,0,.87,0a18.12,18.12,0,0,1,12.83,5,16.55,16.55,0,0,1,4.85-1.83,17.11,17.11,0,0,1,3.53-.36,16.68,16.68,0,0,1,12.1,5.1,15.16,15.16,0,0,1,3.85,7.18,14.48,14.48,0,0,1,.35,3.18,1.55,1.55,0,0,1,0,.22,14.77,14.77,0,0,1-.58,3.9,20.52,20.52,0,0,1,8-1.59,20.23,20.23,0,0,1,13,4.69h0A3.73,3.73,0,0,1,1157.81,242Z" transform="translate(0.98)"/><path class="cls-9" d="M1028.53,115.51h40.19a3.46,3.46,0,0,1,3.46,3.46V265.11a0,0,0,0,1,0,0h-47.11a0,0,0,0,1,0,0V119A3.46,3.46,0,0,1,1028.53,115.51Z"/><rect class="cls-10" x="1067.87" y="123.39" width="3.44" height="140.42" rx="1.72"/><rect class="cls-10" x="1026.32" y="123.39" width="3.44" height="140.42" rx="1.72"/><path class="cls-10" d="M1032,109.76h33.56a2.28,2.28,0,0,1,2.28,2.28v3.47a0,0,0,0,1,0,0h-38.11a0,0,0,0,1,0,0V112A2.28,2.28,0,0,1,1032,109.76Z"/><path class="cls-9" d="M1039.45,91.14h22.89a3.11,3.11,0,0,1,3.11,3.11v15.51a0,0,0,0,1,0,0h-29.12a0,0,0,0,1,0,0V94.25A3.11,3.11,0,0,1,1039.45,91.14Z"/><path class="cls-10" d="M1053.23,75.9h3.09a3.2,3.2,0,0,1,3.2,3.2v12a0,0,0,0,1,0,0H1050a0,0,0,0,1,0,0v-12A3.2,3.2,0,0,1,1053.23,75.9Z"/><rect class="cls-11" x="1033.47" y="119.39" width="30.42" height="4.01" rx="1.59"/><rect class="cls-12" x="1033.47" y="226.44" width="31" height="3.35" rx="1.67"/><rect class="cls-12" x="1033.47" y="185.29" width="31" height="3.35" rx="1.67"/><rect class="cls-12" x="1033.47" y="221.69" width="31" height="3.35" rx="1.67"/><rect class="cls-12" x="1033.47" y="180.14" width="31" height="3.35" rx="1.67"/><rect class="cls-12" x="1033.47" y="175" width="31" height="3.35" rx="1.67"/><rect class="cls-12" x="1033.47" y="169.86" width="31" height="3.35" rx="1.67"/><rect class="cls-12" x="1033.47" y="151.65" width="31" height="3.35" rx="1.67"/><rect class="cls-12" x="1033.47" y="146.51" width="31" height="3.35" rx="1.67"/><rect class="cls-12" x="1033.47" y="141.36" width="31" height="3.35" rx="1.67"/><path class="cls-13" d="M599.08,466a688.45,688.45,0,0,1,148.1-120c234.57-140.76,486.34-97.19,572.84-78V466Z" transform="translate(0.98)"/><path class="cls-14" d="M753.45,390.44l1.86-1.14a735.85,735.85,0,0,1,458.81-104.88" transform="translate(0.98)"/><path class="cls-14" d="M1320,303c-10.18-2.56-21.42-5.15-33.64-7.61" transform="translate(0.98)"/><path class="cls-5" d="M894.71,426.07C838.36,406.92,777.08,389,710.92,373.42,435.3,308.64,185.16,311.32,0,329.52l0,96.55Z" transform="translate(0.98)"/><rect class="cls-15" x="1" y="389.3" width="1320" height="167.34"/><line class="cls-16" x1="1" y1="467.98" x2="1321" y2="467.98"/><rect class="cls-17" x="1" y="382.01" width="354.11" height="7.92"/><path class="cls-18" d="M51.86,365.67c0,8.95,7.65,16.2,17.1,16.2.52,0,1,0,1.54-.07h43.75l.13.07H158.2a13.46,13.46,0,0,0-13-9.26c-.45,0-.9,0-1.34.06a16.17,16.17,0,0,0,1.59-7c0-10-9.05-18.07-20.37-18.39a16.9,16.9,0,0,0-15.84-10.41,17.55,17.55,0,0,0-8.5,2.18,14.44,14.44,0,0,0-11.2-5.2c-7.82,0-14.16,6-14.16,13.42a12.73,12.73,0,0,0,.51,3.57A17.72,17.72,0,0,0,69,349.46C59.51,349.46,51.86,356.72,51.86,365.67Z" transform="translate(0.98)"/><path class="cls-19" d="M429,268.67a67.16,67.16,0,0,1,8.08,2.95c51.37,22.65,60.14,105.23,62.1,134.12l-33.31,2.42-8.47-36.87a53.34,53.34,0,0,0-16.58-28c-8-7.06-18.24-14.56-27.09-15.78Z" transform="translate(0.98)"/><rect class="cls-9" x="153.08" y="263.3" width="82.71" height="68.54"/><rect class="cls-11" x="190.76" y="112.76" width="9.16" height="11.58"/><path class="cls-10" d="M237.34,260.55a2.78,2.78,0,0,1-2.72,2.88c-48.19-.1-81.45-.16-82.82-.14l-.37,0a3.32,3.32,0,0,1-2.87-3.35v-6.27a3.32,3.32,0,0,1,3.24-3.4l82.71-.09a2.78,2.78,0,0,1,2.72,2.79C237.26,255.48,237.3,258,237.34,260.55Z" transform="translate(0.98)"/><rect class="cls-11" x="163.79" y="260.7" width="16" height="6.64" rx="1.63"/><rect class="cls-11" x="205.25" y="260.7" width="16" height="6.64" rx="1.63"/><rect class="cls-11" x="208.08" y="249.12" width="9.16" height="11.58"/><path class="cls-10" d="M154.11,246.08c0-21.21,13.83-61.67,40-61.67,27.29,0,40,40.46,40,61.67Z" transform="translate(0.98)"/><rect class="cls-11" x="167.6" y="249.12" width="9.16" height="11.58"/><path class="cls-11" d="M235.2,250.15H151.74v-2.87c-.15-1.91.37-3.43,1.32-3.78a1.41,1.41,0,0,1,.65-.08h80c.4,0,.81,0,1.22,0a1.17,1.17,0,0,1,.25,0C235.42,243.48,235.83,244.15,235.2,250.15Z" transform="translate(0.98)"/><path class="cls-11" d="M212.52,192.11H175.79a1.33,1.33,0,0,1-1.22-1.88l1.74-3.95a1.35,1.35,0,0,1,1.23-.79l4.65-3.45h23.53l4.88,3.45a1.33,1.33,0,0,1,1.2.75l1.92,3.95A1.33,1.33,0,0,1,212.52,192.11Z" transform="translate(0.98)"/><path class="cls-11" d="M211.94,155.76,209.46,158a10.87,10.87,0,0,0-3.6,8.08v19.41H182.18V166.07a10.87,10.87,0,0,0-3.6-8.08l-2.47-2.23Z" transform="translate(0.98)"/><path class="cls-18" d="M199.59,161.22h3.92a0,0,0,0,1,0,0v12.9a1.43,1.43,0,0,1-1.43,1.43H201a1.43,1.43,0,0,1-1.43-1.43v-12.9A0,0,0,0,1,199.59,161.22Z"/><rect class="cls-11" x="173" y="149.42" width="44.27" height="4.99" rx="1.81"/><path class="cls-18" d="M186.77,161.22h3.92a0,0,0,0,1,0,0v12.9a1.43,1.43,0,0,1-1.43,1.43h-1.06a1.43,1.43,0,0,1-1.43-1.43v-12.9A0,0,0,0,1,186.77,161.22Z"/><path class="cls-9" d="M176.58,149.42c0-9.37,6.11-27.25,17.68-27.25,12.06,0,17.68,17.88,17.68,27.25Z" transform="translate(0.98)"/><rect class="cls-10" x="186.45" y="100.79" width="17.79" height="17.63"/><circle class="cls-12" cx="195.34" cy="109.61" r="5.87"/><path class="cls-11" d="M185.47,100.79a19,19,0,0,0,4.61-6.6,19.26,19.26,0,0,0,1.26-10h6a21.81,21.81,0,0,0,5.93,16.63Z" transform="translate(0.98)"/><circle class="cls-12" cx="195.43" cy="81.98" r="1.96"/><rect class="cls-10" x="191.96" y="83.94" width="6.77" height="0.76" rx="0.28"/><path class="cls-18" d="M169.33,243.42c0-12.78,8.34-37.19,24.13-37.19,16.46,0,24.13,24.41,24.13,37.19Z" transform="translate(0.98)"/><path class="cls-18" d="M164.74,209.52c2.21.9,1.09,7.71.28,16.06-.41,4.33-.88,10.41-1,17.84h-9.88a87.51,87.51,0,0,1,9-33.67C163.31,209.26,164.16,209.28,164.74,209.52Z" transform="translate(0.98)"/><path class="cls-18" d="M225.58,209.75a87.51,87.51,0,0,1,9,33.67h-9.88c-.15-7.43-.61-13.51-1-17.84-.81-8.35-1.93-15.16.29-16.06C224.49,209.28,225.34,209.26,225.58,209.75Z" transform="translate(0.98)"/><rect class="cls-10" x="175.43" y="154.41" width="39.41" height="1.35" rx="0.67"/><rect class="cls-12" x="153.58" y="327.61" width="82.59" height="54.25"/><rect class="cls-11" x="151.06" y="327.45" width="87.26" height="6.4" rx="1.84"/><rect class="cls-9" x="228.93" y="367.12" width="4.9" height="7.63" transform="translate(-138.58 602.32) rotate(-90)"/><rect class="cls-9" x="231.38" y="364.67" width="3.81" height="3.81" transform="translate(-132.31 599.87) rotate(-90)"/><rect class="cls-9" x="228.93" y="358.41" width="4.9" height="7.63" transform="translate(-129.86 593.6) rotate(-90)"/><rect class="cls-9" x="231.38" y="356.19" width="3.81" height="3.81" transform="translate(-123.83 591.39) rotate(-90)"/><rect class="cls-9" x="228.93" y="349.93" width="4.9" height="7.63" transform="translate(-121.38 585.12) rotate(-90)"/><rect class="cls-9" x="231.38" y="347.48" width="3.81" height="3.81" transform="translate(-115.11 582.67) rotate(-90)"/><rect class="cls-9" x="228.93" y="341.21" width="4.9" height="7.63" transform="translate(-112.66 576.4) rotate(-90)"/><rect class="cls-9" x="228.93" y="332.49" width="4.9" height="7.63" transform="translate(-103.94 567.68) rotate(-90)"/><rect class="cls-9" x="231.38" y="338.76" width="3.81" height="3.81" transform="translate(-106.39 573.95) rotate(-90)"/><rect class="cls-9" x="228.93" y="375.6" width="4.9" height="7.63" transform="translate(-147.06 610.8) rotate(-90)"/><rect class="cls-9" x="231.38" y="373.15" width="3.81" height="3.81" transform="translate(-140.79 608.35) rotate(-90)"/><rect class="cls-9" x="153.93" y="367.12" width="4.9" height="7.63" transform="translate(-213.57 527.32) rotate(-90)"/><rect class="cls-9" x="152.57" y="364.67" width="3.81" height="3.81" transform="translate(-211.12 521.06) rotate(-90)"/><rect class="cls-9" x="153.93" y="358.41" width="4.9" height="7.63" transform="translate(-204.85 518.61) rotate(-90)"/><rect class="cls-9" x="152.57" y="356.19" width="3.81" height="3.81" transform="translate(-202.64 512.58) rotate(-90)"/><rect class="cls-9" x="153.93" y="349.93" width="4.9" height="7.63" transform="translate(-196.38 510.13) rotate(-90)"/><rect class="cls-9" x="152.57" y="347.48" width="3.81" height="3.81" transform="translate(-193.92 503.86) rotate(-90)"/><rect class="cls-9" x="153.93" y="341.21" width="4.9" height="7.63" transform="translate(-187.66 501.41) rotate(-90)"/><rect class="cls-9" x="153.93" y="332.49" width="4.9" height="7.63" transform="translate(-178.94 492.69) rotate(-90)"/><rect class="cls-9" x="152.57" y="338.76" width="3.81" height="3.81" transform="translate(-185.21 495.14) rotate(-90)"/><rect class="cls-12" x="151.07" y="288.18" width="4.9" height="3.81" transform="translate(-135.58 443.61) rotate(-90)"/><rect class="cls-12" x="150.66" y="284.77" width="3.81" height="1.91" transform="translate(-132.17 438.3) rotate(-90)"/><rect class="cls-12" x="151.07" y="279.46" width="4.9" height="3.81" transform="translate(-126.86 434.89) rotate(-90)"/><rect class="cls-12" x="150.66" y="276.05" width="3.81" height="1.91" transform="translate(-123.45 429.58) rotate(-90)"/><rect class="cls-12" x="151.07" y="270.74" width="4.9" height="3.81" transform="translate(-118.14 426.17) rotate(-90)"/><rect class="cls-12" x="149.12" y="265.79" width="6.9" height="1.91" transform="translate(-113.19 419.32) rotate(-90)"/><rect class="cls-12" x="151.07" y="323.09" width="4.9" height="3.81" transform="translate(-170.49 478.52) rotate(-90)"/><rect class="cls-12" x="150.66" y="319.68" width="3.81" height="1.91" transform="translate(-167.09 473.21) rotate(-90)"/><rect class="cls-12" x="151.07" y="314.37" width="4.9" height="3.81" transform="translate(-161.77 469.8) rotate(-90)"/><rect class="cls-12" x="150.66" y="310.96" width="3.81" height="1.91" transform="translate(-158.37 464.49) rotate(-90)"/><rect class="cls-12" x="151.07" y="305.65" width="4.9" height="3.81" transform="translate(-153.05 461.08) rotate(-90)"/><rect class="cls-12" x="150.66" y="302.25" width="3.81" height="1.91" transform="translate(-149.65 455.77) rotate(-90)"/><rect class="cls-12" x="151.07" y="296.93" width="4.9" height="3.81" transform="translate(-144.33 452.36) rotate(-90)"/><rect class="cls-12" x="150.66" y="293.53" width="3.81" height="1.91" transform="translate(-140.93 447.05) rotate(-90)"/><rect class="cls-12" x="230.87" y="296.31" width="5.18" height="3.81" transform="translate(-63.78 531.68) rotate(-90)"/><rect class="cls-12" x="232.51" y="292.77" width="3.81" height="1.91" transform="translate(-58.33 528.13) rotate(-90)"/><rect class="cls-12" x="231.01" y="287.45" width="4.9" height="3.81" transform="translate(-54.92 522.82) rotate(-90)"/><rect class="cls-12" x="232.51" y="284.05" width="3.81" height="1.91" transform="translate(-49.61 519.42) rotate(-90)"/><rect class="cls-12" x="230.94" y="278.67" width="5.04" height="3.81" transform="translate(-46.13 514.03) rotate(-90)"/><rect class="cls-12" x="232.51" y="275.19" width="3.81" height="1.91" transform="translate(-40.75 510.56) rotate(-90)"/><rect class="cls-12" x="231.01" y="269.88" width="4.9" height="3.81" transform="translate(-37.35 505.25) rotate(-90)"/><rect class="cls-12" x="231.46" y="265.43" width="5.9" height="1.91" transform="translate(-30.99 500.8) rotate(-90)"/><rect class="cls-12" x="230.87" y="322.82" width="5.18" height="3.81" transform="translate(-90.28 558.18) rotate(-90)"/><rect class="cls-12" x="232.51" y="319.27" width="3.81" height="1.91" transform="translate(-84.83 554.64) rotate(-90)"/><rect class="cls-12" x="231.01" y="313.96" width="4.9" height="3.81" transform="translate(-81.43 549.33) rotate(-90)"/><rect class="cls-12" x="232.51" y="310.56" width="3.81" height="1.91" transform="translate(-76.12 545.92) rotate(-90)"/><rect class="cls-12" x="231.01" y="305.11" width="4.9" height="3.81" transform="translate(-72.57 540.47) rotate(-90)"/><rect class="cls-12" x="232.51" y="301.7" width="3.81" height="1.91" transform="translate(-67.26 537.07) rotate(-90)"/><rect class="cls-12" x="231.01" y="296.39" width="4.9" height="3.81" transform="translate(-63.85 531.75) rotate(-90)"/><rect class="cls-12" x="231.01" y="287.67" width="4.9" height="3.81" transform="translate(-55.14 523.03) rotate(-90)"/><rect class="cls-12" x="232.51" y="292.98" width="3.81" height="1.91" transform="translate(-58.54 528.35) rotate(-90)"/><rect class="cls-9" x="153.93" y="375.6" width="4.9" height="7.63" transform="translate(-222.05 535.8) rotate(-90)"/><rect class="cls-9" x="152.57" y="373.15" width="3.81" height="3.81" transform="translate(-219.6 529.54) rotate(-90)"/><path class="cls-20" d="M490.77,406.36l-.8,22.8a36.93,36.93,0,0,1-2.77,12.92c-1.61,3.87-3.86,7.56-6.34,6.73a1.32,1.32,0,0,1-1.41-1.27s-3,3.21-4.11-.3V432.11s-2.5,10.12-4.61,6.71,0-14.46,0-14.46l1.9-16.69Z" transform="translate(0.98)"/><line class="cls-21" x1="468.83" y1="379.42" x2="499.73" y2="378.05"/><g id="BANC"><rect class="cls-22" x="250.14" y="465.42" width="506.52" height="47.88"/><rect class="cls-22" x="239.67" y="525.28" width="525.23" height="15.71"/><rect class="cls-23" x="239.67" y="494.6" width="10.47" height="30.68"/><rect class="cls-23" x="267.45" y="540.99" width="10.47" height="61.49"/><rect class="cls-23" x="498.17" y="540.99" width="10.47" height="61.49"/><rect class="cls-23" x="726.23" y="540.99" width="10.47" height="61.49"/><rect class="cls-23" x="756.67" y="494.6" width="10.47" height="30.68"/><rect class="cls-23" x="710.94" y="513.31" width="10.47" height="11.97"/><rect class="cls-23" x="498.17" y="513.31" width="10.47" height="11.97"/></g><path class="cls-24" d="M467,387.74l33.64-1.09" transform="translate(0.98)"/><line class="cls-25" x1="399.35" y1="376.86" x2="366.67" y2="376.86"/><path class="cls-26" d="M398.37,400.78H380a13.78,13.78,0,0,1-8.37-2.86h0a15.46,15.46,0,0,1-5.95-12.43l.58-76.13a10.84,10.84,0,0,1,2.58-7h0a9.66,9.66,0,0,1,7.32-3.43h2V268a9,9,0,0,1,9-9h11.25Z" transform="translate(0.98)"/><path class="cls-25" d="M384.74,376.86v-98c0-8,6.1-14.43,13.63-14.43h0" transform="translate(0.98)"/><g id="COU"><path class="cls-27" d="M426,250.12l-5.95,20.94s9.79-2.69,23.05,4.42l3.07-16S432.92,242.63,426,250.12Z" transform="translate(0.98)"/></g><polygon class="cls-27" points="508.69 607.48 514.35 622.74 544.68 612.41 540.88 597.69 508.69 607.48"/><path class="cls-28" d="M513.36,622.74l2.91,16.37a12.59,12.59,0,0,0,.91,3l.76,1.73a13.14,13.14,0,0,0,16,7.23l57.85-18.46a2.29,2.29,0,0,0,1.24-3.4,20.89,20.89,0,0,0-15.62-9.72l-31.23-3.17-2.5-3.9Z" transform="translate(0.98)"/><line class="cls-29" x1="558.41" y1="617.45" x2="554.36" y2="629.62"/><line class="cls-29" x1="567.15" y1="617.45" x2="563.11" y2="629.62"/><g id="JAMBE_DROITE" data-name="JAMBE DROITE"><path class="cls-15" d="M387.72,396.24l3,16.69a48.2,48.2,0,0,0,5.12,14.54L496.58,612.42,557.43,597l-84.86-200.8Z" transform="translate(0.98)"/><path class="cls-29" d="M409.84,396.24l6.36,22.65a69.68,69.68,0,0,0,5.5,13.77q41.42,78.29,82.84,156.58" transform="translate(0.98)"/><path class="cls-30" d="M485.7,592.45l62.95-16.17q4.4,10.38,8.78,20.76l-60.85,15.38Q491.14,602.43,485.7,592.45Z" transform="translate(0.98)"/></g><ellipse class="cls-31" cx="425.01" cy="299.69" rx="33.17" ry="30.23"/><path class="cls-31" d="M415.86,270.39a69.41,69.41,0,0,0-8.08,2.95,76.1,76.1,0,0,0-23.93,16.84c-25.76,25.57-35.17,62.27-35.17,62.27a142.73,142.73,0,0,0-3,55L379,409.87,387.46,373A53.46,53.46,0,0,1,404,345c8-7.06,18.24-14.56,27.1-15.77Q423.49,299.81,415.86,270.39Z" transform="translate(0.98)"/><path class="cls-20" d="M354.13,408.07l.8,22.8a37,37,0,0,0,2.77,12.93c1.62,3.87,3.86,7.55,6.34,6.72a1.31,1.31,0,0,0,1.41-1.27s3,3.21,4.11-.3V433.82s2.5,10.12,4.61,6.71,0-14.46,0-14.46l-1.9-16.69Z" transform="translate(0.98)"/><path class="cls-26" d="M386,379.21c.12-.37.23-.76.34-1.16v.6Z" transform="translate(0.98)"/><path class="cls-26" d="M384.74,278.82c1.79,1.53,4.51,3.33,7.69,3.1C391,283.05,387.22,282.3,384.74,278.82Z" transform="translate(0.98)"/><path class="cls-26" d="M391.61,361.32q1.81-5.49,3.61-10.63-3.69,11.19-7.35,22.37C388.9,369.71,390.14,365.75,391.61,361.32Z" transform="translate(0.98)"/><path class="cls-26" d="M430.6,292.88c-1.45,5.48-6.62,17.1-14.85,33Z" transform="translate(0.98)"/><path class="cls-31" d="M394.54,345l-9.17,51.29H481s-15-116.35-38.36-120.76Z" transform="translate(0.98)"/><g id="JAMBE_GAUCHE" data-name="JAMBE GAUCHE"><polygon class="cls-32" points="396.49 426.07 389.14 498.55 336.43 579.87 383.15 612.42 447.25 519.24 396.49 426.07"/><polygon class="cls-33" points="336.43 579.87 346.88 563.74 395 595.2 383.15 612.42 336.43 579.87"/></g><g id="PIED_GAUCHE" data-name="PIED GAUCHE"><polygon class="cls-27" points="346.91 587.17 338.42 601.05 365.3 618.5 374.51 606.4 346.91 587.17"/><path class="cls-28" d="M337.44,601.05l-10.69,10.6a9.82,9.82,0,0,0-.13,13.82l23.58,24.26a8.59,8.59,0,0,0,5.84,2.59l36.57,1.37s5.1-18-19.08-20.25l-9.21-14.94Z" transform="translate(0.98)"/><line class="cls-29" x1="371.97" y1="624.95" x2="359.22" y2="626.34"/><line class="cls-29" x1="375.61" y1="632.9" x2="362.86" y2="634.29"/></g><path class="cls-34" d="M421.81,241.2c-2.34-4.63-11.88-25.71,6.6-28a1.93,1.93,0,0,0,1.46-1c1.45-2.57,6.71-9.4,19.09-3a1.78,1.78,0,0,0,.29.12c.79.25,4.46,1.31,6.87.35a1.9,1.9,0,0,1,2.69,1.35h0a2,2,0,0,0,2.27,1.48l2.75-.51a1.94,1.94,0,0,1,2.27,1.48c.79,3.49,1.43,11-6.78,13.18a155.55,155.55,0,0,1-18.68,3.59,7.22,7.22,0,0,0-5.69,4.36l-.79,1.86a9.65,9.65,0,0,1-10.43,5.78l-.49-.08A1.94,1.94,0,0,1,421.81,241.2Z" transform="translate(0.98)"/><path class="cls-20" d="M462,241.91a32.29,32.29,0,0,1-.66,5.4,28.9,28.9,0,0,1-4,9.8,7.62,7.62,0,0,1-4.22,3.18c-19.22,5.5-24.53-10.37-24.53-10.37-1.74,4.2-13.63,1.2-9.44-7.82s11.8-1.17,11.8-1.17l2.71-11.24a7.69,7.69,0,0,1,8.74-5.77l16.92,2.82A38.88,38.88,0,0,1,462,241.91Z" transform="translate(0.98)"/><path class="cls-26" d="M430.81,292c-.06.26-.13.56-.21.86l-14.85,33c-7.47,14.48-17.43,32.51-29.38,52.74v-.6c.44-1.45.93-3.12,1.5-5q3.67-11.19,7.35-22.37,11.32-34.49,22.65-69a5,5,0,0,0-1.21-5.33c-4.37-4.24-16.07,0-23.3,5.39l-1,.75a7.19,7.19,0,0,0,1-3.93,7.39,7.39,0,0,0-2.2-4.91,33.46,33.46,0,0,1,14.22-6.06c1.79-.3,15.75-2.61,23,5.56l.2.21C433.56,279.14,431.73,287.67,430.81,292Z" transform="translate(0.98)"/><path class="cls-26" d="M387.87,373.06c-.57,1.87-1.06,3.54-1.5,5,0-.15,0-.3,0-.45C386.88,376.09,387.37,374.58,387.87,373.06Z" transform="translate(0.98)"/><path class="cls-26" d="M415.75,325.91Q401,358.8,386.19,391.69l.18-13C398.32,358.42,408.28,340.39,415.75,325.91Z" transform="translate(0.98)"/><circle class="cls-27" cx="438.61" cy="242.46" r="3.35"/><path class="cls-27" d="M462,241.91a32.29,32.29,0,0,1-.66,5.4,3.35,3.35,0,0,1,.66-5.4Z" transform="translate(0.98)"/><path class="cls-35" d="M456.39,249.14a3.79,3.79,0,0,1-3,1,4.53,4.53,0,0,1-3-2.14" transform="translate(0.98)"/><circle class="cls-34" cx="452.13" cy="238.08" r="0.78"/><circle class="cls-34" cx="461.72" cy="237.65" r="0.78"/><path class="cls-35" d="M451.15,231.88s-3.78-2-6.32,1.24" transform="translate(0.98)"/><path class="cls-35" d="M461.06,231.43a4.57,4.57,0,0,0-3,.23" transform="translate(0.98)"/><path class="cls-27" d="M454.74,243.54a2.84,2.84,0,0,0,3.48-2.45,5.68,5.68,0,0,1-1.46,1.54A5.85,5.85,0,0,1,454.74,243.54Z" transform="translate(0.98)"/><line class="cls-36" x1="947.03" y1="541.71" x2="938.92" y2="541.71"/><polygon class="cls-27" points="880.54 608.73 880.1 623.21 851.58 623.11 850.61 609.61 880.54 608.73"/><path class="cls-32" d="M844.58,431.72h.18a14.45,14.45,0,0,0,9.5-3.32Q855.64,408.23,857,388l.24-3.55c.85-6.21,1.68-12.4,2.53-18.61q1-7.2,2-14.38,5.1-37.49,10.18-74.95,6.27-2.32,12.52-4.61l-1-5.19-13.77-.17L836.26,420.71A9,9,0,0,0,844.58,431.72Zm13.6-82-2.5,11.84" transform="translate(0.98)"/><path class="cls-32" d="M815.24,653.54,880,654.65q-.3-19.86-.59-39.72l-29.38-.2q-.45,6.06-.91,12.13l-25.43,11.53A18.58,18.58,0,0,0,813.22,651,2,2,0,0,0,815.24,653.54Z" transform="translate(0.98)"/><polygon class="cls-27" points="955.87 607.09 956.44 621.52 928.07 623.4 926.17 610.05 955.87 607.09"/><path class="cls-32" d="M894.11,656.32l64.42-3.78L953.85,598l-30.32.28q1.1,14.49,2.21,29l-24.41,13.38A18.56,18.56,0,0,0,891.91,654,2,2,0,0,0,894.11,656.32Z" transform="translate(0.98)"/><path class="cls-37" d="M850.24,386.6l-10,228.07,48.58.33Q897,500.81,905.14,386.6" transform="translate(0.98)"/><path class="cls-8" d="M927.46,386.6H850.93l54.51,228.31h59.27Q946.08,500.75,927.46,386.6Z" transform="translate(0.98)"/><g id="COU-2" data-name="COU"><path class="cls-27" d="M902,245.88l6.12,21.51a113.5,113.5,0,0,1-11.26,2.81,112.18,112.18,0,0,1-12.42,1.73l-3.16-16.38S894.91,238.18,902,245.88Z" transform="translate(0.98)"/></g><path class="cls-20" d="M865,237.32a32,32,0,0,0,.74,6,29.6,29.6,0,0,0,4,9.74,7.76,7.76,0,0,0,4.35,3.25c19.74,5.66,25.18-10.65,25.18-10.65a7,7,0,0,0,4.1,1.51,6.87,6.87,0,0,0,6.07-3.55,7.17,7.17,0,0,0,.36-5.82,7.29,7.29,0,0,0-5-4.43,7.7,7.7,0,0,0-8,3.05l-2.79-11.53c2.27-3,3-6.29,1.78-7.85-1.46-1.88-6.39-2-10.75,1.91l-17.06,2.69a33.18,33.18,0,0,0-2.14,6.23,42.52,42.52,0,0,0-.84,5.49c0,.26,0,.51,0,.76A31.14,31.14,0,0,0,865,237.32Z" transform="translate(0.98)"/><circle class="cls-27" cx="887.38" cy="240.52" r="3.44"/><path class="cls-27" d="M865,237.32a32,32,0,0,0,.74,6,3.44,3.44,0,0,0-.74-6Z" transform="translate(0.98)"/><circle class="cls-34" cx="876.64" cy="234.24" r="0.8"/><path class="cls-34" d="M865.08,234.13a.82.82,0,0,0,.73.47.81.81,0,0,0,0-1.61.84.84,0,0,0-.68.38Z" transform="translate(0.98)"/><path class="cls-28" d="M896.58,238.11l-4.23-.79v7.75a5.2,5.2,0,0,1-1.9,4.06c-3.17,2.55-10.3,6.47-21.45,2.61,0,0-.15,12.13,6.66,11s24.3-5.2,23.68-17.1Z" transform="translate(0.98)"/><path class="cls-38" d="M876.46,225.75s3.89-2,6.5,1.27" transform="translate(0.98)"/><path class="cls-38" d="M865.4,225.53A4.66,4.66,0,0,1,869,226" transform="translate(0.98)"/><path class="cls-39" d="M880.22,239.77a5.32,5.32,0,0,1-4.84,1.4" transform="translate(0.98)"/><path class="cls-28" d="M876.89,245.79c-2.1-2.1-7.34-6.19-11.7.11a.64.64,0,0,0,.41,1l11-.07C877.05,246.83,877.24,246.15,876.89,245.79Z" transform="translate(0.98)"/><path class="cls-28" d="M892.35,238.51h14.74s7.66-30.22-20.37-29.78-21.24,20.81-21.24,20.81l2.63-7.89,22.12.22,5.69-4.82-3.72,6.57Z" transform="translate(0.98)"/><ellipse class="cls-20" cx="904.35" cy="240.31" rx="7.16" ry="6.87"/><path class="cls-31" d="M849.66,388.09l7.36,0,20.78-.1q-3-55.69-5.88-111.39c0-.86-.1-1.7-.14-2.56q-2.67,17.67-5.94,36.06c-.56,3.08-1.12,6.18-1.7,9.29q-1.35,7.31-2.8,14.73-1.55,7.89-3.16,15.61c-.81,4-1.66,7.92-2.5,11.84Q852.76,375.05,849.66,388.09Z" transform="translate(0.98)"/><path class="cls-40" d="M855.68,361.52l2.88,6.33c.4-.66.82-1.31,1.23-2q2.41-3.88,4.85-7.75l-2.9-6.63c-.69-1.59-1.39-3.17-2.08-4.76l-1.48,2.94C857.37,353.66,856.52,357.6,855.68,361.52Z" transform="translate(0.98)"/><path class="cls-40" d="M867,322.88l5,11.39q-3,4.86-6.08,9.72l-4.52-9.93Z" transform="translate(0.98)"/><path class="cls-40" d="M865,366.45l5,11.38q-3,4.86-6.08,9.72-2.26-4.95-4.52-9.92Z" transform="translate(0.98)"/><path class="cls-40" d="M874,303q2.47,5.69,5,11.38l-6.08,9.73-4.52-9.93Q871.18,308.62,874,303Z" transform="translate(0.98)"/><path class="cls-40" d="M864.14,319.34l3.39-5.42-1.69-3.87C865.28,313.13,864.72,316.23,864.14,319.34Z" transform="translate(0.98)"/><path class="cls-40" d="M872.08,346.74l5,11.39L871,367.85q-2.25-5-4.52-9.92Z" transform="translate(0.98)"/><path class="cls-32" d="M912.39,264.66,871.78,274s-.45,155.11,20.3,160,55-18.66,55-18.66Z" transform="translate(0.98)"/><path class="cls-41" d="M914,401.23s-23.9,13.85-28-16.61" transform="translate(0.98)"/><path class="cls-20" d="M836,373l-9.75,1.78-8.33,3.68c-2.24.47-4.65.89-7.22,1.23-2.23.29-4.36.5-6.37.63-1.77-.53-2.37-1.29-2.59-1.86-.3-.82.11-1.35-.31-2.41-.36-.87-.74-.76-1.27-1.7-.68-1.22-.18-1.63-.81-3.16-.53-1.29-1.05-1.37-1.15-2.27a3.59,3.59,0,0,1,.9-2.44c2.17-2.85,8.53-1.88,8.79-1.83,0,0-9-.53-6.84-2.82,0,0,14.59-3.89,19.3-1.22l12.43-1.92Z" transform="translate(0.98)"/><path class="cls-32" d="M825.48,348.38l4.39,36.2a108.25,108.25,0,0,0,42-5.85c27.83-9.82,66.61-36.89,66.71-74.44,0-5.89-.91-17.18-8.75-30.89a16.83,16.83,0,0,0-16.29-8.58c-9.1,1-21.45,8.06-30.39,35.12C867.22,348,840.15,351.42,825.48,348.38Z" transform="translate(0.98)"/><path class="cls-42" d="M873.53,247.46a3.91,3.91,0,0,0,3.11,1,4.72,4.72,0,0,0,3.07-2.19" transform="translate(0.98)"/><path class="cls-41" d="M911.08,277.54l-26.64,6.78" transform="translate(0.98)"/><path class="cls-43" d="M599.08,130.51c3.22,0,3.22-5,0-5s-3.22,5,0,5Z" transform="translate(0.98)"/><rect class="cls-32" x="1" y="40.89" width="1320" height="19.91"/><polygon class="cls-44" points="490.01 116.75 497.99 106.82 830.47 106.82 840.65 117 490.01 116.75"/><polygon class="cls-31" points="490.01 116.75 490.01 207.4 840.65 207.4 840.65 117 490.01 116.75"/><text class="cls-45" transform="translate(563.91 179.05)">NANTES</text><line class="cls-46" x1="520.98" x2="520.98" y2="106.82"/><line class="cls-46" x1="803.64" x2="803.64" y2="106.82"/><path class="cls-47" d="M137.82,88.74c-8.14,25.13-32.08,30.33-53.38,16.31C69.28,95,57.83,97.52,52.49,99.77a65.9,65.9,0,0,1-15.39,4.55,85.8,85.8,0,0,1-22.43.34A104.06,104.06,0,0,1,0,101.93V0A27.57,27.57,0,0,1,14.25,9.44c5.9,8,19.07,6.32,36,.8,11.58-3.75,29.1,3.65,35.3,15,3.8,7,1,12.87,6.74,18.73,4.4,4.44,9.22,4.25,14.91,5.86C123.32,54.42,142.9,73.07,137.82,88.74Z" transform="translate(0.98)"/><path class="cls-48" d="M110.72,82.43S56.62,49.05.07,48.44" transform="translate(0.98)"/><path class="cls-49" d="M21.09,136.29A30.23,30.23,0,0,1,0,158.42V85.91a99.61,99.61,0,0,1,14.67,18.75C20.42,114.5,23.58,125.32,21.09,136.29Z" transform="translate(0.98)"/><path class="cls-14" d="M1286,261.15a38.28,38.28,0,1,1-61.59-9.14" transform="translate(0.98)"/></svg>