<svg id="Calque_1" data-name="Calque 1" xmlns="http://www.w3.org/2000/svg" viewBox="0 0 1322 700"><defs><style>.cls-1{fill:#f7f5f5;}.cls-14,.cls-16,.cls-2,.cls-21,.cls-22,.cls-29,.cls-30,.cls-33,.cls-34,.cls-38,.cls-40,.cls-41,.cls-49,.cls-51,.cls-52,.cls-53,.cls-54,.cls-57,.cls-58,.cls-60,.cls-62,.cls-7{fill:none;}.cls-2{stroke:#e0c9c4;}.cls-14,.cls-16,.cls-2,.cls-21,.cls-22,.cls-29,.cls-30,.cls-33,.cls-34,.cls-38,.cls-40,.cls-41,.cls-49,.cls-51,.cls-53,.cls-57,.cls-58,.cls-60,.cls-62,.cls-7{stroke-miterlimit:10;}.cls-3{fill:#dfb306;}.cls-4{fill:#e8b606;}.cls-5{fill:#107ba1;}.cls-6{fill:#1d3967;}.cls-7{stroke:#182642;opacity:0.51;}.cls-16,.cls-21,.cls-29,.cls-33,.cls-49,.cls-52,.cls-53,.cls-58,.cls-60,.cls-62,.cls-7{stroke-width:2px;}.cls-8{fill:#eead07;}.cls-9{fill:#2a315a;}.cls-10{fill:#f8ece9;}.cls-11{fill:#f3b809;}.cls-12{fill:#c1e4ee;}.cls-13{fill:#bee1ed;}.cls-14,.cls-22,.cls-41{stroke:#fff;}.cls-14,.cls-16,.cls-21,.cls-29,.cls-33,.cls-34,.cls-40,.cls-51,.cls-54,.cls-58,.cls-60,.cls-62{stroke-linecap:round;}.cls-15{fill:#1d3c76;}.cls-16{stroke:#eaedf2;}.cls-17{fill:#dcc7c1;}.cls-18{fill:#e4572b;}.cls-19{fill:#e0c9c4;}.cls-20{fill:#d8eef5;}.cls-21{stroke:#617aa8;}.cls-22{stroke-width:3px;}.cls-23{fill:#f6ae89;}.cls-24{fill:#2b315c;}.cls-25{fill:#f1b705;}.cls-26{fill:#f9c6a2;}.cls-27{fill:#182624;}.cls-28{fill:#f7e9e5;}.cls-29{stroke:#f7e9e5;}.cls-30{stroke:#f6ae89;}.cls-30,.cls-41,.cls-54,.cls-57{stroke-width:0.5px;}.cls-31{fill:#e55820;}.cls-32{fill:#d23f16;}.cls-33{stroke:#4b5581;}.cls-34{stroke:#182624;}.cls-34,.cls-51{stroke-width:0.25px;}.cls-35{fill:#eaedf2;}.cls-36{fill:#d74417;}.cls-37{font-size:55.38px;fill:#fff;font-family:Chalkboard;}.cls-38{stroke:#d74417;stroke-width:4px;}.cls-39{fill:#e4582b;}.cls-40{stroke:#fddba4;}.cls-42{fill:#e45820;}.cls-43{fill:#bde2ed;}.cls-44{fill:#a1cdd8;}.cls-45{fill:#efad06;}.cls-46{fill:#f1b606;}.cls-47{fill:#1a1a1a;}.cls-48{fill:#f9c6a3;}.cls-49,.cls-62{stroke:#2b315c;}.cls-50{fill:#192624;}.cls-51,.cls-54{stroke:#192624;}.cls-52{stroke:#cbe7f3;}.cls-52,.cls-54{stroke-linejoin:round;}.cls-53{stroke:#eff7fb;}.cls-55{fill:#1f3b77;}.cls-56{fill:#d74415;}.cls-57{stroke:#d74415;}.cls-58{stroke:#e45820;}.cls-59{fill:#80cbdf;}.cls-60{stroke:#4c6ca5;}.cls-61{fill:#e29902;}</style></defs><rect class="cls-1" x="1" width="1320" height="389.3"/><rect class="cls-2" x="1" y="640.75" width="1320" height="26.2"/><rect class="cls-3" x="1" y="640.75" width="1320" height="26.2"/><rect class="cls-4" x="1" y="556.25" width="1320" height="13.82"/><rect class="cls-5" x="1" y="570.08" width="1320" height="70.67"/><rect class="cls-6" x="1" y="666.95" width="1320" height="33.05"/><polyline class="cls-7" points="479.62 640.75 461.9 662.2 461.9 700"/><polyline class="cls-7" points="858.72 640.75 876.68 662.2 876.68 700"/><path class="cls-8" d="M1157.81,242v23.9a20.06,20.06,0,0,1-13.27,5.87l-1.08,0q-.54,0-1,0l-.72,0h-50.38l-.09,0,0,0h-50.44a0,0,0,0,1,0,0,14.85,14.85,0,0,1,5.72-7.76,16.63,16.63,0,0,1-12.09-15.72c0-9.12,7.8-16.51,17.41-16.51a18.19,18.19,0,0,1,7.47,1.6,16,16,0,0,1,3.65-9,17.73,17.73,0,0,1,13.71-6.33,18.23,18.23,0,0,1,8,1.84c.24-.3.49-.6.76-.89a17.37,17.37,0,0,1,10.13-5.15,19.93,19.93,0,0,1,2.21-.21c.29,0,.58,0,.87,0a18.12,18.12,0,0,1,12.83,5,16.55,16.55,0,0,1,4.85-1.83,17.11,17.11,0,0,1,3.53-.36,16.68,16.68,0,0,1,12.1,5.1,15.16,15.16,0,0,1,3.85,7.18,14.48,14.48,0,0,1,.35,3.18,1.55,1.55,0,0,1,0,.22,14.77,14.77,0,0,1-.58,3.9,20.52,20.52,0,0,1,8-1.59,20.23,20.23,0,0,1,13,4.69h0A3.73,3.73,0,0,1,1157.81,242Z" transform="translate(0.98)"/><path class="cls-9" d="M1028.53,115.51h40.19a3.46,3.46,0,0,1,3.46,3.46V265.11a0,0,0,0,1,0,0h-47.11a0,0,0,0,1,0,0V119A3.46,3.46,0,0,1,1028.53,115.51Z"/><rect class="cls-10" x="1067.87" y="123.39" width="3.44" height="140.42" rx="1.72"/><rect class="cls-10" x="1026.32" y="123.39" width="3.44" height="140.42" rx="1.72"/><path class="cls-10" d="M1032,109.76h33.56a2.28,2.28,0,0,1,2.28,2.28v3.47a0,0,0,0,1,0,0h-38.11a0,0,0,0,1,0,0V112A2.28,2.28,0,0,1,1032,109.76Z"/><path class="cls-9" d="M1039.45,91.14h22.89a3.11,3.11,0,0,1,3.11,3.11v15.51a0,0,0,0,1,0,0h-29.12a0,0,0,0,1,0,0V94.25A3.11,3.11,0,0,1,1039.45,91.14Z"/><path class="cls-10" d="M1053.23,75.9h3.09a3.2,3.2,0,0,1,3.2,3.2v12a0,0,0,0,1,0,0H1050a0,0,0,0,1,0,0v-12A3.2,3.2,0,0,1,1053.23,75.9Z"/><rect class="cls-11" x="1033.47" y="119.39" width="30.42" height="4.01" rx="1.59"/><rect class="cls-12" x="1033.47" y="226.44" width="31" height="3.35" rx="1.67"/><rect class="cls-12" x="1033.47" y="185.29" width="31" height="3.35" rx="1.67"/><rect class="cls-12" x="1033.47" y="221.69" width="31" height="3.35" rx="1.67"/><rect class="cls-12" x="1033.47" y="180.14" width="31" height="3.35" rx="1.67"/><rect class="cls-12" x="1033.47" y="175" width="31" height="3.35" rx="1.67"/><rect class="cls-12" x="1033.47" y="169.86" width="31" height="3.35" rx="1.67"/><rect class="cls-12" x="1033.47" y="151.65" width="31" height="3.35" rx="1.67"/><rect class="cls-12" x="1033.47" y="146.51" width="31" height="3.35" rx="1.67"/><rect class="cls-12" x="1033.47" y="141.36" width="31" height="3.35" rx="1.67"/><path class="cls-13" d="M599.08,466a688.45,688.45,0,0,1,148.1-120c234.57-140.76,486.34-97.19,572.84-78V466Z" transform="translate(0.98)"/><path class="cls-14" d="M753.45,390.44l1.86-1.14a735.85,735.85,0,0,1,458.81-104.88" transform="translate(0.98)"/><path class="cls-14" d="M1320,303c-10.18-2.56-21.42-5.15-33.64-7.61" transform="translate(0.98)"/><path class="cls-5" d="M894.71,426.07C838.36,406.92,777.08,389,710.92,373.42,435.3,308.64,185.16,311.32,0,329.52l0,96.55Z" transform="translate(0.98)"/><rect class="cls-15" x="1" y="389.3" width="1320" height="167.34"/><line class="cls-16" x1="1" y1="467.98" x2="1321" y2="467.98"/><rect class="cls-17" x="1" y="382.01" width="354.11" height="7.92"/><path class="cls-18" d="M51.86,365.67c0,8.95,7.65,16.2,17.1,16.2.52,0,1,0,1.54-.07h43.75l.13.07H158.2a13.46,13.46,0,0,0-13-9.26c-.45,0-.9,0-1.34.06a16.17,16.17,0,0,0,1.59-7c0-10-9.05-18.07-20.37-18.39a16.9,16.9,0,0,0-15.84-10.41,17.55,17.55,0,0,0-8.5,2.18,14.44,14.44,0,0,0-11.2-5.2c-7.82,0-14.16,6-14.16,13.42a12.73,12.73,0,0,0,.51,3.57A17.72,17.72,0,0,0,69,349.46C59.51,349.46,51.86,356.72,51.86,365.67Z" transform="translate(0.98)"/><rect class="cls-9" x="153.08" y="263.3" width="82.71" height="68.54"/><rect class="cls-11" x="190.76" y="112.76" width="9.16" height="11.58"/><path class="cls-10" d="M237.34,260.55a2.78,2.78,0,0,1-2.72,2.88c-48.19-.1-81.45-.16-82.82-.14l-.37,0a3.32,3.32,0,0,1-2.87-3.35v-6.27a3.32,3.32,0,0,1,3.24-3.4l82.71-.09a2.78,2.78,0,0,1,2.72,2.79C237.26,255.48,237.3,258,237.34,260.55Z" transform="translate(0.98)"/><rect class="cls-11" x="163.79" y="260.7" width="16" height="6.64" rx="1.63"/><rect class="cls-11" x="205.25" y="260.7" width="16" height="6.64" rx="1.63"/><rect class="cls-11" x="208.08" y="249.12" width="9.16" height="11.58"/><path class="cls-10" d="M154.11,246.08c0-21.21,13.83-61.67,40-61.67,27.29,0,40,40.46,40,61.67Z" transform="translate(0.98)"/><rect class="cls-11" x="167.6" y="249.12" width="9.16" height="11.58"/><path class="cls-11" d="M235.2,250.15H151.74v-2.87c-.15-1.91.37-3.43,1.32-3.78a1.41,1.41,0,0,1,.65-.08h80c.4,0,.81,0,1.22,0a1.17,1.17,0,0,1,.25,0C235.42,243.48,235.83,244.15,235.2,250.15Z" transform="translate(0.98)"/><path class="cls-11" d="M212.52,192.11H175.79a1.33,1.33,0,0,1-1.22-1.88l1.74-3.95a1.35,1.35,0,0,1,1.23-.79l4.65-3.45h23.53l4.88,3.45a1.33,1.33,0,0,1,1.2.75l1.92,3.95A1.33,1.33,0,0,1,212.52,192.11Z" transform="translate(0.98)"/><path class="cls-11" d="M211.94,155.76,209.46,158a10.87,10.87,0,0,0-3.6,8.08v19.41H182.18V166.07a10.87,10.87,0,0,0-3.6-8.08l-2.47-2.23Z" transform="translate(0.98)"/><path class="cls-18" d="M199.59,161.22h3.92a0,0,0,0,1,0,0v12.9a1.43,1.43,0,0,1-1.43,1.43H201a1.43,1.43,0,0,1-1.43-1.43v-12.9A0,0,0,0,1,199.59,161.22Z"/><rect class="cls-11" x="173" y="149.42" width="44.27" height="4.99" rx="1.81"/><path class="cls-18" d="M186.77,161.22h3.92a0,0,0,0,1,0,0v12.9a1.43,1.43,0,0,1-1.43,1.43h-1.06a1.43,1.43,0,0,1-1.43-1.43v-12.9a0,0,0,0,1,0,0Z"/><path class="cls-9" d="M176.58,149.42c0-9.37,6.11-27.25,17.68-27.25,12.06,0,17.68,17.88,17.68,27.25Z" transform="translate(0.98)"/><rect class="cls-10" x="186.45" y="100.79" width="17.79" height="17.63"/><circle class="cls-12" cx="195.34" cy="109.61" r="5.87"/><path class="cls-11" d="M185.47,100.79a19,19,0,0,0,4.61-6.6,19.26,19.26,0,0,0,1.26-10h6a21.81,21.81,0,0,0,5.93,16.63Z" transform="translate(0.98)"/><circle class="cls-12" cx="195.43" cy="81.98" r="1.96"/><rect class="cls-10" x="191.96" y="83.94" width="6.77" height="0.76" rx="0.28"/><path class="cls-18" d="M169.33,243.42c0-12.78,8.34-37.19,24.13-37.19,16.46,0,24.13,24.41,24.13,37.19Z" transform="translate(0.98)"/><path class="cls-18" d="M164.74,209.52c2.21.9,1.09,7.71.28,16.06-.41,4.33-.88,10.41-1,17.84h-9.88a87.51,87.51,0,0,1,9-33.67C163.31,209.26,164.16,209.28,164.74,209.52Z" transform="translate(0.98)"/><path class="cls-18" d="M225.58,209.75a87.51,87.51,0,0,1,9,33.67h-9.88c-.15-7.43-.61-13.51-1-17.84-.81-8.35-1.93-15.16.29-16.06C224.49,209.28,225.34,209.26,225.58,209.75Z" transform="translate(0.98)"/><rect class="cls-10" x="175.43" y="154.41" width="39.41" height="1.35" rx="0.67"/><rect class="cls-12" x="153.58" y="327.61" width="82.59" height="54.25"/><rect class="cls-11" x="151.06" y="327.45" width="87.26" height="6.4" rx="1.84"/><rect class="cls-9" x="228.93" y="367.12" width="4.9" height="7.63" transform="translate(-138.58 602.32) rotate(-90)"/><rect class="cls-9" x="231.38" y="364.67" width="3.81" height="3.81" transform="translate(-132.31 599.87) rotate(-90)"/><rect class="cls-9" x="228.93" y="358.41" width="4.9" height="7.63" transform="translate(-129.86 593.6) rotate(-90)"/><rect class="cls-9" x="231.38" y="356.19" width="3.81" height="3.81" transform="translate(-123.83 591.39) rotate(-90)"/><rect class="cls-9" x="228.93" y="349.93" width="4.9" height="7.63" transform="translate(-121.38 585.12) rotate(-90)"/><rect class="cls-9" x="231.38" y="347.48" width="3.81" height="3.81" transform="translate(-115.11 582.67) rotate(-90)"/><rect class="cls-9" x="228.93" y="341.21" width="4.9" height="7.63" transform="translate(-112.66 576.4) rotate(-90)"/><rect class="cls-9" x="228.93" y="332.49" width="4.9" height="7.63" transform="translate(-103.94 567.68) rotate(-90)"/><rect class="cls-9" x="231.38" y="338.76" width="3.81" height="3.81" transform="translate(-106.39 573.95) rotate(-90)"/><rect class="cls-9" x="228.93" y="375.6" width="4.9" height="7.63" transform="translate(-147.06 610.8) rotate(-90)"/><rect class="cls-9" x="231.38" y="373.15" width="3.81" height="3.81" transform="translate(-140.79 608.35) rotate(-90)"/><rect class="cls-9" x="153.93" y="367.12" width="4.9" height="7.63" transform="translate(-213.57 527.32) rotate(-90)"/><rect class="cls-9" x="152.57" y="364.67" width="3.81" height="3.81" transform="translate(-211.12 521.06) rotate(-90)"/><rect class="cls-9" x="153.93" y="358.41" width="4.9" height="7.63" transform="translate(-204.85 518.61) rotate(-90)"/><rect class="cls-9" x="152.57" y="356.19" width="3.81" height="3.81" transform="translate(-202.64 512.58) rotate(-90)"/><rect class="cls-9" x="153.93" y="349.93" width="4.9" height="7.63" transform="translate(-196.38 510.13) rotate(-90)"/><rect class="cls-9" x="152.57" y="347.48" width="3.81" height="3.81" transform="translate(-193.92 503.86) rotate(-90)"/><rect class="cls-9" x="153.93" y="341.21" width="4.9" height="7.63" transform="translate(-187.66 501.41) rotate(-90)"/><rect class="cls-9" x="153.93" y="332.49" width="4.9" height="7.63" transform="translate(-178.94 492.69) rotate(-90)"/><rect class="cls-9" x="152.57" y="338.76" width="3.81" height="3.81" transform="translate(-185.21 495.14) rotate(-90)"/><rect class="cls-12" x="151.07" y="288.18" width="4.9" height="3.81" transform="translate(-135.58 443.61) rotate(-90)"/><rect class="cls-12" x="150.66" y="284.77" width="3.81" height="1.91" transform="translate(-132.17 438.3) rotate(-90)"/><rect class="cls-12" x="151.07" y="279.46" width="4.9" height="3.81" transform="translate(-126.86 434.89) rotate(-90)"/><rect class="cls-12" x="150.66" y="276.05" width="3.81" height="1.91" transform="translate(-123.45 429.58) rotate(-90)"/><rect class="cls-12" x="151.07" y="270.74" width="4.9" height="3.81" transform="translate(-118.14 426.17) rotate(-90)"/><rect class="cls-12" x="149.12" y="265.79" width="6.9" height="1.91" transform="translate(-113.19 419.32) rotate(-90)"/><rect class="cls-12" x="151.07" y="323.09" width="4.9" height="3.81" transform="translate(-170.49 478.52) rotate(-90)"/><rect class="cls-12" x="150.66" y="319.68" width="3.81" height="1.91" transform="translate(-167.09 473.21) rotate(-90)"/><rect class="cls-12" x="151.07" y="314.37" width="4.9" height="3.81" transform="translate(-161.77 469.8) rotate(-90)"/><rect class="cls-12" x="150.66" y="310.96" width="3.81" height="1.91" transform="translate(-158.37 464.49) rotate(-90)"/><rect class="cls-12" x="151.07" y="305.65" width="4.9" height="3.81" transform="translate(-153.05 461.08) rotate(-90)"/><rect class="cls-12" x="150.66" y="302.25" width="3.81" height="1.91" transform="translate(-149.65 455.77) rotate(-90)"/><rect class="cls-12" x="151.07" y="296.93" width="4.9" height="3.81" transform="translate(-144.33 452.36) rotate(-90)"/><rect class="cls-12" x="150.66" y="293.53" width="3.81" height="1.91" transform="translate(-140.93 447.05) rotate(-90)"/><rect class="cls-12" x="230.87" y="296.31" width="5.18" height="3.81" transform="translate(-63.78 531.68) rotate(-90)"/><rect class="cls-12" x="232.51" y="292.77" width="3.81" height="1.91" transform="translate(-58.33 528.13) rotate(-90)"/><rect class="cls-12" x="231.01" y="287.45" width="4.9" height="3.81" transform="translate(-54.92 522.82) rotate(-90)"/><rect class="cls-12" x="232.51" y="284.05" width="3.81" height="1.91" transform="translate(-49.61 519.42) rotate(-90)"/><rect class="cls-12" x="230.94" y="278.67" width="5.04" height="3.81" transform="translate(-46.13 514.03) rotate(-90)"/><rect class="cls-12" x="232.51" y="275.19" width="3.81" height="1.91" transform="translate(-40.75 510.56) rotate(-90)"/><rect class="cls-12" x="231.01" y="269.88" width="4.9" height="3.81" transform="translate(-37.35 505.25) rotate(-90)"/><rect class="cls-12" x="231.46" y="265.43" width="5.9" height="1.91" transform="translate(-30.99 500.8) rotate(-90)"/><rect class="cls-12" x="230.87" y="322.82" width="5.18" height="3.81" transform="translate(-90.28 558.18) rotate(-90)"/><rect class="cls-12" x="232.51" y="319.27" width="3.81" height="1.91" transform="translate(-84.83 554.64) rotate(-90)"/><rect class="cls-12" x="231.01" y="313.96" width="4.9" height="3.81" transform="translate(-81.43 549.33) rotate(-90)"/><rect class="cls-12" x="232.51" y="310.56" width="3.81" height="1.91" transform="translate(-76.12 545.92) rotate(-90)"/><rect class="cls-12" x="231.01" y="305.11" width="4.9" height="3.81" transform="translate(-72.57 540.47) rotate(-90)"/><rect class="cls-12" x="232.51" y="301.7" width="3.81" height="1.91" transform="translate(-67.26 537.07) rotate(-90)"/><rect class="cls-12" x="231.01" y="296.39" width="4.9" height="3.81" transform="translate(-63.85 531.75) rotate(-90)"/><rect class="cls-12" x="231.01" y="287.67" width="4.9" height="3.81" transform="translate(-55.14 523.03) rotate(-90)"/><rect class="cls-12" x="232.51" y="292.98" width="3.81" height="1.91" transform="translate(-58.54 528.35) rotate(-90)"/><rect class="cls-9" x="153.93" y="375.6" width="4.9" height="7.63" transform="translate(-222.05 535.8) rotate(-90)"/><rect class="cls-9" x="152.57" y="373.15" width="3.81" height="3.81" transform="translate(-219.6 529.54) rotate(-90)"/><g id="BANC"><rect class="cls-19" x="250.14" y="465.42" width="506.52" height="47.88"/><rect class="cls-19" x="239.67" y="525.28" width="525.23" height="15.71"/><rect class="cls-20" x="239.67" y="494.6" width="10.47" height="30.68"/><rect class="cls-20" x="267.45" y="540.99" width="10.47" height="61.49"/><rect class="cls-20" x="498.17" y="540.99" width="10.47" height="61.49"/><rect class="cls-20" x="726.23" y="540.99" width="10.47" height="61.49"/><rect class="cls-20" x="756.67" y="494.6" width="10.47" height="30.68"/><rect class="cls-20" x="710.94" y="513.31" width="10.47" height="11.97"/><rect class="cls-20" x="498.17" y="513.31" width="10.47" height="11.97"/></g><line class="cls-21" x1="558.41" y1="617.45" x2="554.36" y2="629.62"/><line class="cls-21" x1="567.15" y1="617.45" x2="563.11" y2="629.62"/><line class="cls-22" x1="947.03" y1="541.71" x2="938.92" y2="541.71"/><polygon class="cls-23" points="880.54 608.73 880.1 623.21 851.58 623.11 850.61 609.61 880.54 608.73"/><path class="cls-24" d="M844.58,431.72h.18a14.45,14.45,0,0,0,9.5-3.32Q855.64,408.23,857,388l.24-3.55c.85-6.21,1.68-12.4,2.53-18.61q1-7.2,2-14.38,5.1-37.49,10.18-74.95,6.27-2.32,12.52-4.61l-1-5.19-13.77-.17L836.26,420.71A9,9,0,0,0,844.58,431.72Zm13.6-82-2.5,11.84" transform="translate(0.98)"/><path class="cls-24" d="M815.24,653.54,880,654.65q-.3-19.86-.59-39.72l-29.38-.2q-.45,6.06-.91,12.13l-25.43,11.53A18.58,18.58,0,0,0,813.22,651,2,2,0,0,0,815.24,653.54Z" transform="translate(0.98)"/><polygon class="cls-23" points="955.87 607.09 956.44 621.52 928.07 623.4 926.17 610.05 955.87 607.09"/><path class="cls-24" d="M894.11,656.32l64.42-3.78L953.85,598l-30.32.28q1.1,14.49,2.21,29l-24.41,13.38A18.56,18.56,0,0,0,891.91,654,2,2,0,0,0,894.11,656.32Z" transform="translate(0.98)"/><path class="cls-25" d="M850.24,386.6l-10,228.07,48.58.33Q897,500.81,905.14,386.6" transform="translate(0.98)"/><path class="cls-8" d="M927.46,386.6H850.93l54.51,228.31h59.27Q946.08,500.75,927.46,386.6Z" transform="translate(0.98)"/><g id="COU"><path class="cls-23" d="M902,245.88l6.12,21.51a113.5,113.5,0,0,1-11.26,2.81,112.18,112.18,0,0,1-12.42,1.73l-3.16-16.38S894.91,238.18,902,245.88Z" transform="translate(0.98)"/></g><path class="cls-26" d="M865,237.32a32,32,0,0,0,.74,6,29.6,29.6,0,0,0,4,9.74,7.76,7.76,0,0,0,4.35,3.25c19.74,5.66,25.18-10.65,25.18-10.65a7,7,0,0,0,4.1,1.51,6.87,6.87,0,0,0,6.07-3.55,7.17,7.17,0,0,0,.36-5.82,7.29,7.29,0,0,0-5-4.43,7.7,7.7,0,0,0-8,3.05l-2.79-11.53c2.27-3,3-6.29,1.78-7.85-1.46-1.88-6.39-2-10.75,1.91l-17.06,2.69a33.18,33.18,0,0,0-2.14,6.23,42.52,42.52,0,0,0-.84,5.49c0,.26,0,.51,0,.76A31.14,31.14,0,0,0,865,237.32Z" transform="translate(0.98)"/><circle class="cls-23" cx="887.38" cy="240.52" r="3.44"/><path class="cls-23" d="M865,237.32a32,32,0,0,0,.74,6,3.44,3.44,0,0,0-.74-6Z" transform="translate(0.98)"/><circle class="cls-27" cx="876.64" cy="234.24" r="0.8"/><path class="cls-27" d="M865.08,234.13a.82.82,0,0,0,.73.47.81.81,0,0,0,0-1.61.84.84,0,0,0-.68.38Z" transform="translate(0.98)"/><path class="cls-28" d="M896.58,238.11l-4.23-.79v7.75a5.2,5.2,0,0,1-1.9,4.06c-3.17,2.55-10.3,6.47-21.45,2.61,0,0-.15,12.13,6.66,11s24.3-5.2,23.68-17.1Z" transform="translate(0.98)"/><path class="cls-29" d="M876.46,225.75s3.89-2,6.5,1.27" transform="translate(0.98)"/><path class="cls-29" d="M865.4,225.53A4.66,4.66,0,0,1,869,226" transform="translate(0.98)"/><path class="cls-30" d="M880.22,239.77a5.32,5.32,0,0,1-4.84,1.4" transform="translate(0.98)"/><path class="cls-28" d="M876.89,245.79c-2.1-2.1-7.34-6.19-11.7.11a.64.64,0,0,0,.41,1l11-.07C877.05,246.83,877.24,246.15,876.89,245.79Z" transform="translate(0.98)"/><path class="cls-28" d="M892.35,238.51h14.74s7.66-30.22-20.37-29.78-21.24,20.81-21.24,20.81l2.63-7.89,22.12.22,5.69-4.82-3.72,6.57Z" transform="translate(0.98)"/><ellipse class="cls-26" cx="904.35" cy="240.31" rx="7.16" ry="6.87"/><path class="cls-31" d="M849.66,388.09l7.36,0,20.78-.1q-3-55.69-5.88-111.39c0-.86-.1-1.7-.14-2.56q-2.67,17.67-5.94,36.06c-.56,3.08-1.12,6.18-1.7,9.29q-1.35,7.31-2.8,14.73-1.55,7.89-3.16,15.61c-.81,4-1.66,7.92-2.5,11.84Q852.76,375.05,849.66,388.09Z" transform="translate(0.98)"/><path class="cls-32" d="M855.68,361.52l2.88,6.33c.4-.66.82-1.31,1.23-2q2.41-3.88,4.85-7.75l-2.9-6.63c-.69-1.59-1.39-3.17-2.08-4.76l-1.48,2.94C857.37,353.66,856.52,357.6,855.68,361.52Z" transform="translate(0.98)"/><path class="cls-32" d="M867,322.88l5,11.39q-3,4.86-6.08,9.72l-4.52-9.93Z" transform="translate(0.98)"/><path class="cls-32" d="M865,366.45l5,11.38q-3,4.86-6.08,9.72-2.26-4.95-4.52-9.92Z" transform="translate(0.98)"/><path class="cls-32" d="M874,303q2.47,5.69,5,11.38l-6.08,9.73-4.52-9.93Q871.18,308.62,874,303Z" transform="translate(0.98)"/><path class="cls-32" d="M864.14,319.34l3.39-5.42-1.69-3.87C865.28,313.13,864.72,316.23,864.14,319.34Z" transform="translate(0.98)"/><path class="cls-32" d="M872.08,346.74l5,11.39L871,367.85q-2.25-5-4.52-9.92Z" transform="translate(0.98)"/><path class="cls-24" d="M912.39,264.66,871.78,274s-.45,155.11,20.3,160,55-18.66,55-18.66Z" transform="translate(0.98)"/><path class="cls-33" d="M914,401.23s-23.9,13.85-28-16.61" transform="translate(0.98)"/><path class="cls-26" d="M836,373l-9.75,1.78-8.33,3.68c-2.24.47-4.65.89-7.22,1.23-2.23.29-4.36.5-6.37.63-1.77-.53-2.37-1.29-2.59-1.86-.3-.82.11-1.35-.31-2.41-.36-.87-.74-.76-1.27-1.7-.68-1.22-.18-1.63-.81-3.16-.53-1.29-1.05-1.37-1.15-2.27a3.59,3.59,0,0,1,.9-2.44c2.17-2.85,8.53-1.88,8.79-1.83,0,0-9-.53-6.84-2.82,0,0,14.59-3.89,19.3-1.22l12.43-1.92Z" transform="translate(0.98)"/><path class="cls-24" d="M825.48,348.38l4.39,36.2a108.25,108.25,0,0,0,42-5.85c27.83-9.82,66.61-36.89,66.71-74.44,0-5.89-.91-17.18-8.75-30.89a16.83,16.83,0,0,0-16.29-8.58c-9.1,1-21.45,8.06-30.39,35.12C867.22,348,840.15,351.42,825.48,348.38Z" transform="translate(0.98)"/><path class="cls-34" d="M873.53,247.46a3.91,3.91,0,0,0,3.11,1,4.72,4.72,0,0,0,3.07-2.19" transform="translate(0.98)"/><path class="cls-33" d="M911.08,277.54l-26.64,6.78" transform="translate(0.98)"/><path class="cls-35" d="M599.08,130.51c3.22,0,3.22-5,0-5s-3.22,5,0,5Z" transform="translate(0.98)"/><rect class="cls-24" x="1" y="40.89" width="1320" height="19.91"/><polygon class="cls-36" points="490.01 116.75 497.99 106.82 830.47 106.82 840.65 117 490.01 116.75"/><polygon class="cls-31" points="490.01 116.75 490.01 207.4 840.65 207.4 840.65 117 490.01 116.75"/><text class="cls-37" transform="translate(563.91 179.05)">NANTES</text><line class="cls-38" x1="520.98" x2="520.98" y2="106.82"/><line class="cls-38" x1="803.64" x2="803.64" y2="106.82"/><path class="cls-39" d="M137.82,88.74c-8.14,25.13-32.08,30.33-53.38,16.31C69.28,95,57.83,97.52,52.49,99.77a65.9,65.9,0,0,1-15.39,4.55,85.8,85.8,0,0,1-22.43.34A104.06,104.06,0,0,1,0,101.93V0A27.57,27.57,0,0,1,14.25,9.44c5.9,8,19.07,6.32,36,.8,11.58-3.75,29.1,3.65,35.3,15,3.8,7,1,12.87,6.74,18.73,4.4,4.44,9.22,4.25,14.91,5.86C123.32,54.42,142.9,73.07,137.82,88.74Z" transform="translate(0.98)"/><path class="cls-40" d="M110.72,82.43S56.62,49.05.07,48.44" transform="translate(0.98)"/><path class="cls-14" d="M1286,261.15a38.28,38.28,0,1,1-61.59-9.14" transform="translate(0.98)"/><line class="cls-41" x1="493.9" y1="375.9" x2="466.57" y2="386.17"/><path class="cls-41" d="M456.3,377.31V289.7c0-7.13,5.45-12.9,12.17-12.9h0" transform="translate(0.98)"/><polygon class="cls-23" points="517.8 587.79 518.19 600.38 542.99 600.29 543.83 588.56 517.8 587.79"/><path class="cls-42" d="M572.76,626.76,534,626.15l.2,1.88-17.68-.3-.28-16,.81-11.51q12.74-.08,25.45-.13l.88,3.47,22.12,10a16.17,16.17,0,0,1,9.06,11A1.77,1.77,0,0,1,572.76,626.76Z" transform="translate(0.98)"/><polygon class="cls-23" points="452.29 586.37 451.8 598.91 476.47 600.55 478.13 588.93 452.29 586.37"/><path class="cls-42" d="M504.23,629l-38.55-3.31.07,1.89-17.56-1.53.83-15.95q.81-5.68,1.6-11.38l25.32,1.63.64,3.52,21.29,11.51A16.16,16.16,0,0,1,506.13,627,1.78,1.78,0,0,1,504.23,629Z" transform="translate(0.98)"/><path class="cls-43" d="M542.32,394.62q4.36,99.17,8.74,198.33l-42.25.29q-7.11-99.3-14.23-198.62" transform="translate(0.98)"/><path class="cls-23" d="M566.34,346.51l15.66.81a1.84,1.84,0,0,0,1.2-.37l6.56-5a1.84,1.84,0,0,1,1.24-.37c2.87.22,13.71,1.28,14.15,5,.42,3.5-6.46,1.68-8.86.94a1.79,1.79,0,0,0-1.57.24c-.35.24-.8.55-1.28.91a1.84,1.84,0,0,0,.48,3.2l.07,0a1.88,1.88,0,0,0,2.08-.27c.81-.75,2-1.46,3.19-.79a1.86,1.86,0,0,0,2.12-.32,2.46,2.46,0,0,1,3.46-.27,1.87,1.87,0,0,0,2.45-.06c1.2-1.12,3.06-2,4.7,1.18,2.65,5.1-2.6,6.89-2.6,6.89s-2.84,1.22-4.26.95a1.68,1.68,0,0,0-1.28.23c-1.12.81-3.3,2.22-4.43,1.87a2.11,2.11,0,0,0-.9-.12c-2.32.31-11.12,1.35-13.29-.14a1.67,1.67,0,0,0-1.07-.34L567.39,362a1.82,1.82,0,0,1-2-1.67l-1-11.82A1.82,1.82,0,0,1,566.34,346.51Z" transform="translate(0.98)"/><path class="cls-44" d="M475.16,394.62h66.56l-47.4,198.55-51.55,0Q459,493.9,475.16,394.62Z" transform="translate(0.98)"/><g id="COU-2" data-name="COU"><path class="cls-23" d="M493.17,264.05l-5.33,18.71s8.76-2.4,20.6,3.95l2.75-14.25S499.34,257.35,493.17,264.05Z" transform="translate(0.98)"/></g><path class="cls-45" d="M521.89,315.3c4.75,10.34,10.67,15.51,15.15,18.32,11.11,7,28,8.55,28,8.55h0l2.33,27.46a51.64,51.64,0,0,1-43.88,1.69Q522.68,343.31,521.89,315.3Z" transform="translate(0.98)"/><path class="cls-46" d="M465.05,348.79l-8.19,45.83h85.46s-13.44-104-34.28-107.91Z" transform="translate(0.98)"/><path class="cls-47" d="M497.27,302.26c-1.29,4.9-5.91,15.28-13.27,29.52Q490.65,317,497.27,302.26Z" transform="translate(0.98)"/><ellipse class="cls-46" cx="492.38" cy="308.35" rx="29.64" ry="27.01"/><path class="cls-42" d="M542.66,402.78l-35.16.09v-11h34.79Q542.47,397.33,542.66,402.78Z" transform="translate(0.98)"/><path class="cls-24" d="M500.49,386.17H459.32a9.34,9.34,0,0,0-9.34,9.34v45.32a17.5,17.5,0,0,0,17.49,17.5l24.72-.31a22.29,22.29,0,0,0,12.27-5.28c9.48-8.37,7.13-21.87,7-22.71l-1.61-34.95A9.34,9.34,0,0,0,500.49,386.17Z" transform="translate(0.98)"/><path class="cls-48" d="M490,420.24l11.4,16.91a32.81,32.81,0,0,0,8.21,8.49c3,2.17,6.5,3.9,8,2.1a1.17,1.17,0,0,0,.47-1.63s3.8,1,3-2.17l-7.15-11.47s6.68,6.48,6.67,2.91-6.84-11-6.84-11l-9.33-11.75Z" transform="translate(0.98)"/><path class="cls-49" d="M490.39,281.23c18.27,1.62,38.44,53.69,22.07,92.15a72.92,72.92,0,0,1-19.1,26c-2.81,1.1-17.66,6.66-28.65-.9-5.82-4-8.54-10.31-10.53-18.8-6.7-28.66-3.25-74.88,25.95-94.49C486.25,281.1,489.11,281.11,490.39,281.23Z" transform="translate(0.98)"/><path class="cls-46" d="M489.54,284a2.74,2.74,0,0,0-3.15-1.34,54.83,54.83,0,0,0-7.17,2.58A51.7,51.7,0,0,0,467,292.72c-5.93,5.18-7.61,13.22-10.17,24.08-7.44,31.57,2.78,63.85,2.78,63.85a127.56,127.56,0,0,0,23.75,43.12l26.4-13.93-11-31.95A47.77,47.77,0,0,1,498,348.8c2.69-9.12,6.94-19.66,13.08-24.76Z" transform="translate(0.98)"/><path class="cls-50" d="M492.17,227.13s-10.78-7-18.21,0-4.38,11-10.94,11-13.13,5.73-12.69,11.62.43,10.46-3.51,14.73-7.43,40.6,28.45,27.47c0,0,20.57-4.81.87-37.19,0,0-1.09-13.92,4-14.73a31.52,31.52,0,0,1,3.5-5.47A31.89,31.89,0,0,1,492.17,227.13Z" transform="translate(0.98)"/><path class="cls-48" d="M525.32,256.61a28.23,28.23,0,0,1-.64,5.22,25.72,25.72,0,0,1-3.51,8.47,6.71,6.71,0,0,1-3.78,2.83c-17.17,4.92-21.9-9.26-21.9-9.26a5,5,0,0,1-3.26,2.68c-2.67.41-4.82-2.64-5.59-4.46a6.64,6.64,0,0,1-.3-5.06,6.31,6.31,0,0,1,4.32-3.85,6.68,6.68,0,0,1,6.92,2.65l2.43-10a6.86,6.86,0,0,1,7.8-5.16l15.12,2.52a36.7,36.7,0,0,1,2.31,10c0,.22,0,.44,0,.66A23.65,23.65,0,0,1,525.32,256.61Z" transform="translate(0.98)"/><path class="cls-51" d="M521.46,263.81a3.46,3.46,0,0,1-2.71.86,4.08,4.08,0,0,1-2.67-1.91" transform="translate(0.98)"/><path class="cls-50" d="M504.71,242.11s20.52,6.36,23.35,2.82c0,0-11-26.17-34.67-12.73-2.9,1.65-9.73,5.47-12.2,13.81-3,10.16,2.94,18.51,3.49,19.26a21.88,21.88,0,0,0,6.49,5.81c.43-1.53.86-3.05,1.3-4.58a4,4,0,0,1-1.34,0c-1.93-.34-3-2-3.61-2.95a6.37,6.37,0,0,1-1.32-4.07,5.66,5.66,0,0,1,1.44-3.27c5.3-6.06,10.73,1.26,10.73,1.26S508,257.94,504.71,242.11Z" transform="translate(0.98)"/><path class="cls-42" d="M479.35,240.29,483,242a24.85,24.85,0,0,1,3.56-4.64,25.76,25.76,0,0,1,3.56-3,35.68,35.68,0,0,1,6.2-3.63l-4.12-3.6a21.63,21.63,0,0,0-12.82,13.16Z" transform="translate(0.98)"/><circle class="cls-23" cx="507.72" cy="259.39" r="2.99"/><path class="cls-23" d="M525.32,256.61a28.23,28.23,0,0,1-.64,5.22,3,3,0,0,1,.64-5.22Z" transform="translate(0.98)"/><circle class="cls-50" cx="517.06" cy="253.92" r="0.69"/><path class="cls-50" d="M525.28,253.83a.69.69,0,1,1-.63-1,.74.74,0,0,1,.59.33Z" transform="translate(0.98)"/><circle class="cls-42" cx="494.26" cy="266.74" r="3.01"/><line class="cls-52" x1="444.86" y1="586.37" x2="496.92" y2="586.37"/><line class="cls-53" x1="510" y1="586.37" x2="552.04" y2="586.37"/><path class="cls-54" d="M516.84,247s-3.38-1.76-5.65,1.11" transform="translate(0.98)"/><path class="cls-54" d="M524.07,246.56a4.36,4.36,0,0,0-1.76.33" transform="translate(0.98)"/><polygon class="cls-23" points="587.41 624.78 587.68 633.51 604.88 633.45 605.47 625.31 587.41 624.78"/><path class="cls-28" d="M625.22,651.81l-39.65-1.16.42-9.28c.19-2.66.37-5.32.56-8,5.89,0,11.77-.07,17.66-.09l.6,2.41,15.34,6.95a11.22,11.22,0,0,1,6.29,7.63A1.23,1.23,0,0,1,625.22,651.81Z" transform="translate(0.98)"/><polygon class="cls-23" points="541.98 623.79 541.63 632.49 558.75 633.62 559.89 625.57 541.98 623.79"/><path class="cls-28" d="M577.7,653.36,538.9,650l.51-9.77c.37-2.64.73-5.27,1.11-7.9l17.56,1.14.44,2.44,14.77,8a11.17,11.17,0,0,1,5.72,8A1.22,1.22,0,0,1,577.7,653.36Z" transform="translate(0.98)"/><path class="cls-55" d="M604.11,490.8q3,68.77,6.07,137.56l-29.31.2L571,490.8" transform="translate(0.98)"/><path class="cls-24" d="M557.54,490.8H603.7L570.82,628.5H535.07Z" transform="translate(0.98)"/><path class="cls-50" d="M554.24,397.32a12.2,12.2,0,0,1-7.79-21.3s8.94-2.35,8.94-7.53c0-7,.16-13,3.8-15.2,2.14-1.3,4.4,0,6.33-2,1.38-1.43,1-3,1.57-4.66,1.83-5.68,12.33-8.64,20.49-7.54a18.19,18.19,0,0,1,10.24,4.21,17.69,17.69,0,0,1,5.61,11,31.73,31.73,0,0,1,1.56,8.46A32.11,32.11,0,0,1,602.74,376c3.91,4.16,5.47,9.54,3.92,14.07a12.16,12.16,0,0,1-7.65,7.5c-7.69,2.38-12.67-5.76-25.3-5.88a30.94,30.94,0,0,0-6.87.73Z" transform="translate(0.98)"/><path class="cls-23" d="M613.05,443l2.18,8,31.64,23.4-3.6,9.36L611.9,468.81q-2.82-11.76-5.65-23.51Z" transform="translate(0.98)"/><path class="cls-23" d="M535.52,422.38l-9.06,9.24s-4.69,13.7,2.81,50l9.06-1.78,3.44-35.93,5.77-6.15Z" transform="translate(0.98)"/><g id="COU-3" data-name="COU"><path class="cls-23" d="M572.45,373.26,567,392.44s9-2.46,21.12,4.05l2.82-14.61S578.78,366.4,572.45,373.26Z" transform="translate(0.98)"/></g><path class="cls-48" d="M605.42,365.42v.2a29.53,29.53,0,0,1-.66,5.36c0,.1,0,.2-.07.3a27,27,0,0,1-1.7,5,25.09,25.09,0,0,1-1.82,3.37,7,7,0,0,1-3.88,2.9c-17.61,5-22.46-9.5-22.46-9.5a5.19,5.19,0,0,1-3.63,1.05c-2.64-.34-4.4-3.15-4.52-5.6-.16-3.25,2.55-6.6,5.81-6.66a6.4,6.4,0,0,1,4.73,2.46,13.22,13.22,0,0,1,10.25-15.06l15.5,2.58A37.46,37.46,0,0,1,605.32,362s0,.07,0,.1c0,.23,0,.46,0,.68l0,.59C605.44,364.07,605.44,364.76,605.42,365.42Z" transform="translate(0.98)"/><path class="cls-51" d="M601.45,373a3.49,3.49,0,0,1-2.77.89,4.21,4.21,0,0,1-2.74-2" transform="translate(0.98)"/><circle class="cls-23" cx="587.35" cy="368.49" r="3.07"/><path class="cls-23" d="M605.42,365.42v.2a29.53,29.53,0,0,1-.66,5.36c0,.1,0,.2-.07.3l-.42-.23a3.07,3.07,0,0,1,.72-5.53A2.07,2.07,0,0,1,605.42,365.42Z" transform="translate(0.98)"/><circle class="cls-50" cx="596.92" cy="362.88" r="0.71"/><circle class="cls-50" cx="606.17" cy="362.7" r="0.71"/><path class="cls-54" d="M596.72,355.77s-3.47-1.8-5.79,1.13" transform="translate(0.98)"/><path class="cls-54" d="M601.37,355.29a3.73,3.73,0,0,1,2.18-.71,2.34,2.34,0,0,1,.38,0" transform="translate(0.98)"/><path class="cls-50" d="M578.28,349.16l1.19,5.39,23.5-2.7-2.27-5.18Z" transform="translate(0.98)"/><path class="cls-56" d="M585,395.49s17-2.2,34.68,46.52l-12.37,6.06Z" transform="translate(0.98)"/><path class="cls-46" d="M569.93,362.62c-2.45-10,1.16-19.33,7.83-22.65a15.44,15.44,0,0,1,10.63-.76,20.43,20.43,0,0,0-5.22.72c-2.33.66-5,3.42-6.37,5.53-4.5,6.92-1.21,16.65-.86,17.63a5.34,5.34,0,0,0-3.45-1.22A5.1,5.1,0,0,0,569.93,362.62Z" transform="translate(0.98)"/><path class="cls-50" d="M577.1,359.18a7.5,7.5,0,0,0,6.09.15A5.86,5.86,0,0,0,586,352l-5.59-2.25Z" transform="translate(0.98)"/><path class="cls-42" d="M552.32,450l-7.87,44.69h71.3l-9.21-68.76s-6.84-32.44-34.13-34.63Z" transform="translate(0.98)"/><path class="cls-56" d="M528,420.2s32.15-40.69,50.65-25.58S561,449.91,561,449.91Z" transform="translate(0.98)"/><path class="cls-23" d="M529.27,481.65l1.46,6.06v8.11s4.41,12.95,7,10.53c0,0,.94,3.38,2.76.6,0,0,2.1,1.29,2.1-.95l-1.33-10.3s2.59,5.05,3.36,3.23c0,0-1.47-9.39-4.2-11.42l-2.06-7.64Z" transform="translate(0.98)"/><path class="cls-23" d="M643.27,483.69h3.6s7.89,7.54,18.76,5.9c0,0,1.37-.65.37-1.15,0,0,2.94-.45,2.33-1.28l-.61-.84s2.45-.83,1.28-1.83-9.23-5.23-9.23-5.23,6.67.84,5.06-1.16-9.9-2.89-9.9-2.89h-5.61l-2.45-.88" transform="translate(0.98)"/><line class="cls-41" x1="409.29" y1="373.94" x2="379.16" y2="385.27"/><polygon class="cls-23" points="435.64 607.55 436.06 621.43 463.41 621.33 464.33 608.39 435.64 607.55"/><path class="cls-43" d="M496.32,650.51l-62.05,1.07q.3-15.18.58-30.34l28.06-.15,1,3.84L488.26,636a17.85,17.85,0,0,1,10,12.12A2,2,0,0,1,496.32,650.51Z" transform="translate(0.98)"/><polygon class="cls-23" points="363.41 605.98 362.87 619.81 390.07 621.62 391.89 608.81 363.41 605.98"/><path class="cls-43" d="M420.71,653.17,359,649.55q1.43-15,2.86-30.11l27.9,2,.67,3.88,23.41,12.83a17.81,17.81,0,0,1,9,12.8A1.94,1.94,0,0,1,420.71,653.17Z" transform="translate(0.98)"/><path class="cls-42" d="M462.76,394.58q4.83,109.34,9.65,218.66l-46.59.32q-7.85-109.48-15.68-219" transform="translate(0.98)"/><path class="cls-56" d="M388.73,394.58h73.38l-52.26,218.9-56.83,0Q370.87,504,388.73,394.58Z" transform="translate(0.98)"/><path class="cls-49" d="M338,494.35V424.83h43.69v69.22" transform="translate(0.98)"/><rect class="cls-56" x="351.56" y="421.55" width="18.54" height="6.57" rx="3.28"/><g id="COU-4" data-name="COU"><path class="cls-23" d="M408.57,250.63l-5.86,20.63s9.65-2.65,22.71,4.35l3-15.7S415.39,243.25,408.57,250.63Z" transform="translate(0.98)"/></g><path class="cls-55" d="M381.25,344.23l-9,50.52h94.22s-14.81-114.62-37.79-119Z" transform="translate(0.98)"/><path class="cls-47" d="M416.77,292.93c-1.42,5.4-6.52,16.84-14.63,32.54Z" transform="translate(0.98)"/><path class="cls-48" d="M444,242.43a31.06,31.06,0,0,1-.71,5.76,28.44,28.44,0,0,1-3.86,9.34,7.46,7.46,0,0,1-4.17,3.12c-18.93,5.42-24.15-10.21-24.15-10.21-.31.57-1.51,2.62-3.59,2.95-2.94.46-5.31-2.91-6.16-4.91a7.32,7.32,0,0,1-.34-5.58,7,7,0,0,1,4.77-4.25,7.37,7.37,0,0,1,7.63,2.93l2.68-11.06a7.56,7.56,0,0,1,8.6-5.69l16.67,2.78a40.2,40.2,0,0,1,2.54,11c0,.25,0,.49.05.73A28.66,28.66,0,0,1,444,242.43Z" transform="translate(0.98)"/><path class="cls-48" d="M357.52,391.52l-4.49,22a36.48,36.48,0,0,0-.33,13c.66,4.08,2,8.13,4.53,7.91a1.3,1.3,0,0,0,1.64-.89s2.14,3.76,4,.66l3.49-14.5s.07,10.27,2.87,7.5,3.33-13.86,3.33-13.86l2-16.42Z" transform="translate(0.98)"/><ellipse class="cls-55" cx="411.28" cy="299.64" rx="32.68" ry="29.78"/><path class="cls-55" d="M419.29,273.21a3,3,0,0,0-2.58-2.76,59.51,59.51,0,0,0-8.37-.59,57.11,57.11,0,0,0-15.7,2.09c-8.29,2.58-13.58,9.94-21,19.75C350.05,320.21,346,357.31,346,357.31a140.57,140.57,0,0,0,4.7,54.06l32.83-2.26L386.63,372a52.61,52.61,0,0,1,12.3-29.63c6.78-8,15.77-16.72,24.23-19.13Z" transform="translate(0.98)"/><path class="cls-51" d="M439.77,250.36a3.78,3.78,0,0,1-3,1,4.49,4.49,0,0,1-2.94-2.11" transform="translate(0.98)"/><circle class="cls-23" cx="424.52" cy="245.5" r="3.3"/><path class="cls-23" d="M444,242.43a31.06,31.06,0,0,1-.71,5.76,3.3,3.3,0,0,1,.71-5.76Z" transform="translate(0.98)"/><circle class="cls-50" cx="434.82" cy="239.47" r="0.77"/><path class="cls-50" d="M444,239.37a.78.78,0,0,1-.7.45.77.77,0,0,1,0-1.54.79.79,0,0,1,.65.36Z" transform="translate(0.98)"/><circle class="cls-57" cx="434.82" cy="239.47" r="4.76"/><ellipse class="cls-57" cx="445.36" cy="239.16" rx="3.51" ry="4.03"/><path class="cls-58" d="M413.1,402.15s-4,22.11-19.86,22.68" transform="translate(0.98)"/><path class="cls-59" d="M359,649.55c.19-2,.37-4,.56-5.93l62.68,4.71c.22.73.37,1.34.47,1.78a3.63,3.63,0,0,1,.17,1.28,2.15,2.15,0,0,1-.67,1.39,1.69,1.69,0,0,1-1.18.38Z" transform="translate(0.98)"/><path class="cls-57" d="M438.6,239.47s1.76-1.4,2.27,0" transform="translate(0.98)"/><path class="cls-57" d="M429.08,239.47a8.43,8.43,0,0,1-8-.76" transform="translate(0.98)"/><path class="cls-59" d="M434.27,651.58l.39-4.76,62.93-.87.67,2.15s.35,2.55-1.94,2.41S434.27,651.58,434.27,651.58Z" transform="translate(0.98)"/><polyline class="cls-60" points="353.25 402.15 377.16 400.36 377.16 390.55"/><path class="cls-54" d="M433.07,231.33s-3.72-1.93-6.23,1.23" transform="translate(0.98)"/><path class="cls-54" d="M443.67,231.13a4.42,4.42,0,0,0-3.48.45" transform="translate(0.98)"/><path class="cls-61" d="M340.31,494.35h48.2a9.61,9.61,0,0,1,9.61,9.61V642.54a11,11,0,0,1-11,11H330.7a0,0,0,0,1,0,0V504A9.61,9.61,0,0,1,340.31,494.35Z"/><path class="cls-46" d="M334.23,494.18h48.2A9.61,9.61,0,0,1,392,503.8V653.52a0,0,0,0,1,0,0H324.61a0,0,0,0,1,0,0V503.8A9.61,9.61,0,0,1,334.23,494.18Z"/><circle class="cls-42" cx="327.27" cy="654.32" r="8.14"/><circle class="cls-42" cx="390.55" cy="654.32" r="8.14"/><path class="cls-62" d="M358.82,592.45a12.79,12.79,0,0,0,10.06-3.92,12.37,12.37,0,0,0,3.11-8.29l-.14-12.11A12.25,12.25,0,0,0,358.94,556h0" transform="translate(0.98)"/><path class="cls-62" d="M357.35,495.14V653.35" transform="translate(0.98)"/><path class="cls-24" d="M401.56,241.83q-1.92-6.72-3.85-13.44s-.5-4.86,5.41-5.9a1.77,1.77,0,0,0,1.48-1.59c.21-2.59,1.64-7.81,9.64-8.24,9.44-.51,13.62-.91,15.78,1.6a1.88,1.88,0,0,0,2.12.5c2.45-1,7.76-2.49,12.09.93,5.85,4.62-1.31,19.63-24.13,12.84,0,0-1.94,7.21-4,10.09a2.79,2.79,0,0,0-.16,2.88c2.91,5.62,9.61,9.64,10.9,10.13a23.71,23.71,0,0,0,15.38.22c-.7,2.62-1.41,5.24-2.11,7.86,0,0-1.91,9.23-14.05,3.6-7.59-3.51-11.34-6.52-13.1-8.29a4.91,4.91,0,0,1-1.4-3.41l-.09-7.39a5.42,5.42,0,0,0-2.61-4.6,4.79,4.79,0,0,0-3.77-.72,6.63,6.63,0,0,0-2.08,1.18A6.94,6.94,0,0,0,401.56,241.83Z" transform="translate(0.98)"/></svg>