<svg width="523" height="53" viewBox="0 0 523 53" fill="none" xmlns="http://www.w3.org/2000/svg">
<g filter="url(#filter0_d)">
<path d="M16.6673 7.28C16.1873 7.08 15.7073 7.04 15.2273 7.04C14.3073 7.04 13.3873 7.2 12.4273 7.2C11.2673 7.2 10.0673 7.24 8.94734 6.96C8.54734 6.88 8.18734 6.68 7.78734 6.68C7.14734 6.68 7.02734 8.28 7.02734 8.76C7.02734 9.48 7.14734 10.32 8.10734 10.32C8.82734 10.32 9.46734 9.88 10.1873 9.88C11.4673 9.88 11.3873 10.88 11.3873 11.84C11.5873 19.76 12.1473 27.64 12.3873 35.56V35.68C12.3873 36.72 12.2673 37.76 12.2673 38.8C12.2673 39.96 12.4273 40.44 13.7073 40.44C14.5073 40.44 15.6673 40.32 15.6673 39.24C15.6673 38.6 15.4673 38 15.3873 37.4C15.3073 36.68 15.3473 36 15.3473 35.28C15.3473 34.64 15.3073 33.96 15.2673 33.28C14.9473 29.6 14.7473 25.92 14.5873 22.24C14.4273 18.68 14.4673 15.16 14.1073 11.64C14.0673 11.36 14.0273 11.08 14.0273 10.76C14.0273 10.48 14.0273 9.96 14.4273 9.96C14.9873 9.96 15.5073 10.44 16.1073 10.44C16.9073 10.44 17.4673 9.68 17.4673 8.92C17.4673 8.32 17.2273 7.6 16.6673 7.28ZM36.0564 11H35.6564C34.6564 11 33.4564 11.04 33.4564 12.36C33.4564 13.12 33.5364 13.84 33.5364 14.56C33.5364 16.56 33.4964 18.56 33.4964 20.56C33.4964 23.76 34.3364 32.08 29.3764 32.08C24.7764 32.08 24.5764 26.28 24.5764 22.92C24.5764 19.4 24.6964 15.92 24.6964 12.4C24.6964 11.84 24.0164 11.84 23.6564 11.84C22.8964 11.84 22.4164 11.88 21.8164 12.4C21.6564 12.56 21.4964 20.08 21.4964 21C21.4964 25.68 21.9364 34.96 28.4564 34.96C35.7764 34.96 36.9764 27.04 36.9764 21.32C36.9764 18.28 36.6164 15.28 36.6164 12.24C36.6164 11.72 36.6164 11.24 36.0564 11ZM63.9252 10.88C63.6452 10.68 62.8452 10.68 62.4852 10.68C62.2452 10.68 62.0452 10.68 61.8052 10.72C60.6452 11.04 60.8852 11.04 60.8052 12.2C60.6852 14.32 60.1252 16.4 59.9252 18.52C59.5652 22.4 58.9652 26.24 58.3652 30.08C57.9252 29.8 57.4452 25.84 57.2452 25.08C56.7252 23.12 56.3652 21.12 55.8452 19.12C55.4052 17.24 54.7652 15.36 54.3252 13.48C53.9252 11.8 54.2452 10.92 52.1652 10.76L51.6052 10.72C51.2852 10.72 50.8052 10.72 50.8052 11.2C50.8052 11.68 52.1652 16.32 52.4452 17.32C53.7252 22.64 55.1652 27.96 56.3252 33.32C56.4852 34.08 56.6452 35.96 57.4052 36.32C57.7252 36.44 58.1652 36.44 58.4852 36.44C58.9252 36.44 59.8852 36.44 60.2052 36.16C60.8452 35.64 60.8052 32.56 60.9252 31.68C61.4852 27.88 62.1652 24.08 62.6452 20.28C63.0452 17.44 63.0052 13.68 64.2452 11.12H64.0852C64.0052 11.12 63.9252 10.96 63.9252 10.88ZM80.1817 28.16H80.0217C79.3017 28.16 78.6217 28.04 77.9017 28.04C77.5817 28.04 77.1817 28.04 76.9017 28.24C76.1017 28.72 77.0617 33.68 74.4217 33.68C71.7417 33.68 71.7817 27.88 71.5817 26.04C71.5017 25.32 71.3817 24.6 71.3817 23.88C71.3817 22.48 72.6617 22.2 73.7817 22.2C75.1417 22.2 76.5017 22.32 77.8617 22.32C79.3417 22.32 80.3417 22.04 80.3417 20.32C80.3417 16.68 78.4217 10.2 73.9417 10.2C68.1817 10.2 67.8217 19.68 67.8217 23.76C67.8217 27.68 69.1017 36.92 74.3817 36.92C78.4217 36.92 80.5817 32.44 80.5817 28.92C80.5817 28.6 80.5417 28.24 80.1817 28.16ZM71.8217 18.24V17.36C71.8217 16.08 71.8217 13.32 73.6617 13.32C75.5417 13.32 76.9017 16.64 76.9017 18.16C76.9017 19.04 76.3417 19.04 75.6617 19.12C74.7017 19.24 73.7817 19.56 72.8217 19.56C72.5417 19.56 71.7417 19.52 71.7417 19.12C71.7417 18.8 71.7817 18.52 71.8217 18.24ZM98.1658 11H97.7658C96.7658 11 95.5658 11.04 95.5658 12.36C95.5658 13.12 95.6458 13.84 95.6458 14.56C95.6458 16.56 95.6058 18.56 95.6058 20.56C95.6058 23.76 96.4458 32.08 91.4858 32.08C86.8858 32.08 86.6858 26.28 86.6858 22.92C86.6858 19.4 86.8058 15.92 86.8058 12.4C86.8058 11.84 86.1258 11.84 85.7658 11.84C85.0058 11.84 84.5258 11.88 83.9258 12.4C83.7658 12.56 83.6058 20.08 83.6058 21C83.6058 25.68 84.0458 34.96 90.5658 34.96C97.8858 34.96 99.0858 27.04 99.0858 21.32C99.0858 18.28 98.7258 15.28 98.7258 12.24C98.7258 11.72 98.7258 11.24 98.1658 11ZM113.236 11.04C113.156 11 113.076 10.92 113.076 10.84C113.076 10.64 113.276 10.44 113.276 10.24C113.276 9.76 111.356 9.8 110.956 9.8C109.396 9.8 109.916 11.56 109.916 12.56C109.916 14 109.756 22.6 107.796 22.6C105.796 22.6 105.716 12.28 105.716 10.64C105.716 9.76 104.996 9.76 104.316 9.76C103.956 9.76 103.516 9.76 103.156 9.84C102.996 9.8 102.836 9.76 102.676 9.76C102.356 9.76 102.236 9.92 102.236 10.2C102.236 10.8 102.276 11.44 102.276 12.04C102.276 15 102.556 18.88 103.516 21.68C103.756 22.4 104.996 23.88 104.996 24.44C104.996 24.72 104.156 26 104.036 26.4C103.796 26.96 103.636 27.56 103.516 28.16C102.796 31.12 102.596 34.16 102.516 37.2C103.196 37.16 103.876 37.16 104.556 37.16C105.636 37.16 105.556 37.4 105.796 36.36C106.076 35.24 105.916 34.08 105.916 32.92C105.916 31.64 106.116 25.6 107.956 25.6C109.436 25.6 109.956 32.08 109.956 33.24C109.956 34.16 109.836 35.08 109.836 36.04C109.836 37.88 110.156 37.32 111.716 37.32C112.076 37.32 112.436 37.4 112.796 37.4C113.556 37.4 113.556 35.72 113.556 35.16C113.556 32.88 112.796 27.68 111.876 25.68C111.596 25.04 110.956 24.4 110.956 23.68C110.956 23.6 111.236 23 111.276 22.88C111.636 21.72 112.156 20.6 112.396 19.4C112.956 16.64 113.156 13.84 113.236 11.04ZM140.859 38.36C140.459 38 139.139 36.8 138.699 36.8C138.259 36.8 137.819 37.88 136.859 37.88C134.179 37.88 134.179 32.56 134.179 30.72C134.179 25.72 134.459 20.68 134.779 15.68C135.379 15.68 138.859 15.68 138.859 14.96C138.859 14.56 138.739 14.2 138.739 13.8C138.739 13.56 138.779 13.36 138.779 13.12C138.779 12.52 138.099 12.44 137.659 12.44C136.859 12.44 136.099 12.64 135.299 12.64H134.979C135.099 10.88 135.339 9.12 135.339 7.36C135.339 6.12 134.539 5.48 133.299 5.48C131.419 5.48 131.899 8.28 131.899 9.44C131.899 10.44 131.819 11.44 131.819 12.48H131.539C129.419 12.48 129.139 12.52 129.139 14.72C129.139 14.88 129.139 15.04 129.179 15.16C129.739 15.56 131.059 15.6 131.779 15.64C131.739 20.28 131.219 24.88 131.219 29.52C131.219 33.24 131.219 41.64 136.539 41.64C137.859 41.64 141.019 40.24 141.019 38.68C141.019 38.56 140.939 38.44 140.859 38.36ZM145.915 11.84C145.915 12.2 147.115 12.64 147.435 12.64C148.395 12.64 150.795 7.44 150.795 6.32C150.795 5.16 149.075 5.08 148.155 5.08C147.195 5.08 145.915 10.88 145.915 11.84ZM167.604 28.16H167.444C166.724 28.16 166.044 28.04 165.324 28.04C165.004 28.04 164.604 28.04 164.324 28.24C163.524 28.72 164.484 33.68 161.844 33.68C159.164 33.68 159.204 27.88 159.004 26.04C158.924 25.32 158.804 24.6 158.804 23.88C158.804 22.48 160.084 22.2 161.204 22.2C162.564 22.2 163.924 22.32 165.284 22.32C166.764 22.32 167.764 22.04 167.764 20.32C167.764 16.68 165.844 10.2 161.364 10.2C155.604 10.2 155.244 19.68 155.244 23.76C155.244 27.68 156.524 36.92 161.804 36.92C165.844 36.92 168.004 32.44 168.004 28.92C168.004 28.6 167.964 28.24 167.604 28.16ZM159.244 18.24V17.36C159.244 16.08 159.244 13.32 161.084 13.32C162.964 13.32 164.324 16.64 164.324 18.16C164.324 19.04 163.764 19.04 163.084 19.12C162.124 19.24 161.204 19.56 160.244 19.56C159.964 19.56 159.164 19.52 159.164 19.12C159.164 18.8 159.204 18.52 159.244 18.24ZM184.548 28.4C184.188 25.36 184.388 22.32 184.388 19.28C184.388 17.48 184.188 15.72 184.188 13.96C184.188 13.24 184.308 12.56 184.308 11.84C184.308 10.92 182.188 10.52 181.508 10.52C180.948 10.52 180.948 11.12 180.948 11.52C180.948 16.52 181.548 21.48 181.548 26.48C181.548 26.96 181.548 27.4 181.428 27.88C179.548 25.2 175.188 12.12 174.268 11.4C173.748 11.04 173.108 10.88 172.468 10.88C171.668 10.88 171.228 11.32 171.228 12.12C171.228 12.96 171.508 13.76 171.628 14.56C171.868 16.36 171.908 18.24 171.908 20.04C171.908 22.36 171.788 24.68 171.788 26.96C171.788 29.84 171.948 32.64 172.268 35.48C172.348 36.04 172.348 36.56 173.068 36.56C173.628 36.56 174.188 36.64 174.748 36.64C175.548 36.64 175.548 35.44 175.548 34.88C175.548 30.76 174.908 26.68 174.508 22.6C174.348 21.08 174.148 19.6 174.148 18.12C174.148 17.96 174.188 17.76 174.228 17.6C174.908 18.08 176.588 23.24 177.028 24.36C178.028 27 179.428 29.48 180.388 32.12C180.628 32.72 180.988 34.28 181.508 34.6C181.868 34.8 183.268 34.8 183.708 34.8C184.828 34.8 184.828 32.88 184.828 32.12C184.828 30.88 184.668 29.64 184.548 28.4ZM227.392 26.44C227.312 22.52 227.232 18.64 227.232 14.72C227.232 13.8 227.072 13.4 226.072 13.4C225.632 13.4 224.592 13.4 224.192 13.56C223.272 13.96 222.312 16.12 221.792 17C220.152 19.68 218.312 22.24 216.672 24.92C216.352 25.4 214.552 28.72 214.312 28.72C213.472 28.72 210.472 23.16 209.872 22.16C208.192 19.6 206.432 17.12 204.752 14.56C203.712 13 203.192 13.04 201.392 13.04C200.712 13.04 200.712 14.72 200.712 15.2C200.712 16.24 200.872 17.32 200.872 18.36C200.872 22.08 200.912 25.8 200.912 29.56C200.912 30.68 200.712 31.84 200.712 32.96C200.712 33.24 200.792 33.6 201.032 33.76C201.072 33.72 201.112 33.72 201.152 33.72C201.872 33.72 202.592 34.12 203.352 34.12C204.072 34.12 204.392 34.08 204.392 33.24C204.392 30.8 203.992 28.4 203.952 25.96C203.872 23.28 203.712 20.6 203.672 17.92C204.072 18.24 204.312 19.12 204.552 19.56C205.072 20.52 205.672 21.4 206.272 22.32C207.112 23.64 207.872 25.04 208.632 26.4C209.552 27.92 210.552 29.4 211.472 30.92C212.192 32.12 212.232 32.88 213.792 33.12C213.952 33.16 214.152 33.16 214.312 33.16C215.592 33.16 215.872 32.2 216.392 31.24C217.392 29.4 223.992 18.48 224.432 18.44C224.992 18.88 224.672 31.16 225.192 33.04C225.472 33.92 225.232 33.6 226.072 33.84C226.392 33.96 226.712 34.12 227.032 34.12C227.592 34.12 227.832 33.72 227.832 33.2C227.832 32.44 227.632 31.72 227.592 31C227.512 29.48 227.432 27.96 227.392 26.44ZM243.971 28.16H243.811C243.091 28.16 242.411 28.04 241.691 28.04C241.371 28.04 240.971 28.04 240.691 28.24C239.891 28.72 240.851 33.68 238.211 33.68C235.531 33.68 235.571 27.88 235.371 26.04C235.291 25.32 235.171 24.6 235.171 23.88C235.171 22.48 236.451 22.2 237.571 22.2C238.931 22.2 240.291 22.32 241.651 22.32C243.131 22.32 244.131 22.04 244.131 20.32C244.131 16.68 242.211 10.2 237.731 10.2C231.971 10.2 231.611 19.68 231.611 23.76C231.611 27.68 232.891 36.92 238.171 36.92C242.211 36.92 244.371 32.44 244.371 28.92C244.371 28.6 244.331 28.24 243.971 28.16ZM235.611 18.24V17.36C235.611 16.08 235.611 13.32 237.451 13.32C239.331 13.32 240.691 16.64 240.691 18.16C240.691 19.04 240.131 19.04 239.451 19.12C238.491 19.24 237.571 19.56 236.611 19.56C236.331 19.56 235.531 19.52 235.531 19.12C235.531 18.8 235.571 18.52 235.611 18.24ZM258.515 38.36C258.115 38 256.795 36.8 256.355 36.8C255.915 36.8 255.475 37.88 254.515 37.88C251.835 37.88 251.835 32.56 251.835 30.72C251.835 25.72 252.115 20.68 252.435 15.68C253.035 15.68 256.515 15.68 256.515 14.96C256.515 14.56 256.395 14.2 256.395 13.8C256.395 13.56 256.435 13.36 256.435 13.12C256.435 12.52 255.755 12.44 255.315 12.44C254.515 12.44 253.755 12.64 252.955 12.64H252.635C252.755 10.88 252.995 9.12 252.995 7.36C252.995 6.12 252.195 5.48 250.955 5.48C249.075 5.48 249.555 8.28 249.555 9.44C249.555 10.44 249.475 11.44 249.475 12.48H249.195C247.075 12.48 246.795 12.52 246.795 14.72C246.795 14.88 246.795 15.04 246.835 15.16C247.395 15.56 248.715 15.6 249.435 15.64C249.395 20.28 248.875 24.88 248.875 29.52C248.875 33.24 248.875 41.64 254.195 41.64C255.515 41.64 258.675 40.24 258.675 38.68C258.675 38.56 258.595 38.44 258.515 38.36ZM272.812 38.36C272.412 38 271.092 36.8 270.652 36.8C270.212 36.8 269.772 37.88 268.812 37.88C266.132 37.88 266.132 32.56 266.132 30.72C266.132 25.72 266.412 20.68 266.732 15.68C267.332 15.68 270.812 15.68 270.812 14.96C270.812 14.56 270.692 14.2 270.692 13.8C270.692 13.56 270.732 13.36 270.732 13.12C270.732 12.52 270.052 12.44 269.612 12.44C268.812 12.44 268.052 12.64 267.252 12.64H266.932C267.052 10.88 267.292 9.12 267.292 7.36C267.292 6.12 266.492 5.48 265.252 5.48C263.372 5.48 263.852 8.28 263.852 9.44C263.852 10.44 263.772 11.44 263.772 12.48H263.492C261.372 12.48 261.092 12.52 261.092 14.72C261.092 14.88 261.092 15.04 261.132 15.16C261.692 15.56 263.012 15.6 263.732 15.64C263.692 20.28 263.172 24.88 263.172 29.52C263.172 33.24 263.172 41.64 268.492 41.64C269.812 41.64 272.972 40.24 272.972 38.68C272.972 38.56 272.892 38.44 272.812 38.36ZM283.309 23.92C283.029 22.76 282.389 21.68 282.389 20.48C282.389 20.12 282.509 19.76 282.749 19.48C283.069 19.2 283.869 19.04 284.309 18.84C285.709 18.04 286.709 15.2 286.709 13.64C286.709 9.76 282.429 7.88 279.069 7.88C278.189 7.88 277.349 8.04 277.349 9.08C277.349 9.88 277.549 10.64 277.549 11.44C277.549 14.56 277.429 17.72 277.429 20.84C277.429 26.36 277.509 31.92 277.509 37.44C277.509 39.16 277.509 39.28 279.269 39.28C280.029 39.28 280.429 39.12 280.429 38.28V31.48C280.429 28.16 280.109 24.84 280.109 21.52C280.109 21.2 280.109 20.84 280.189 20.52C280.869 21.92 283.429 32.6 283.749 34.64C283.869 35.16 283.989 37.56 284.709 37.56C285.309 37.56 286.789 37.12 286.789 36.36C286.789 35.64 286.349 34.92 286.109 34.24C284.869 30.92 284.069 27.36 283.309 23.92ZM280.309 17V14.88C280.309 13.8 280.069 12.76 280.069 11.72C280.069 11.08 280.349 10.32 281.069 10.32C282.629 10.32 283.949 12.16 283.949 13.6C283.949 14.28 283.749 14.92 283.349 15.48C282.989 16 281.229 17.32 280.589 17.32C280.429 17.32 280.309 17.2 280.309 17ZM302.135 28.16H301.975C301.255 28.16 300.575 28.04 299.855 28.04C299.535 28.04 299.135 28.04 298.855 28.24C298.055 28.72 299.015 33.68 296.375 33.68C293.695 33.68 293.735 27.88 293.535 26.04C293.455 25.32 293.335 24.6 293.335 23.88C293.335 22.48 294.615 22.2 295.735 22.2C297.095 22.2 298.455 22.32 299.815 22.32C301.295 22.32 302.295 22.04 302.295 20.32C302.295 16.68 300.375 10.2 295.895 10.2C290.135 10.2 289.775 19.68 289.775 23.76C289.775 27.68 291.055 36.92 296.335 36.92C300.375 36.92 302.535 32.44 302.535 28.92C302.535 28.6 302.495 28.24 302.135 28.16ZM293.775 18.24V17.36C293.775 16.08 293.775 13.32 295.615 13.32C297.495 13.32 298.855 16.64 298.855 18.16C298.855 19.04 298.295 19.04 297.615 19.12C296.655 19.24 295.735 19.56 294.775 19.56C294.495 19.56 293.695 19.52 293.695 19.12C293.695 18.8 293.735 18.52 293.775 18.24ZM317.398 8.32C317.318 9.28 317.278 10.2 317.278 11.16C317.278 14.44 317.718 17.64 317.878 20.92C318.158 26.08 318.158 31.24 318.158 36.4C318.158 38.28 318.198 38.8 320.278 38.8C321.598 38.8 321.638 38.36 321.638 37.16C321.638 35.72 321.278 34.28 321.158 32.8C320.878 29.6 320.598 26.4 320.598 23.16C320.598 22.4 320.438 21.68 320.438 20.92C320.438 20.32 320.518 19.84 320.998 19.4C321.478 18.96 323.078 18.76 323.838 18.32C325.518 17.36 327.158 15.04 327.158 13.08C327.158 12.28 326.878 11.52 326.438 10.88C324.598 8.12 320.318 8.44 317.398 8.32ZM323.678 15C323.318 15.8 321.758 16.88 320.878 16.88C320.158 16.88 319.998 16.2 319.998 15.64C319.998 14.96 320.158 14.32 320.198 13.68C320.238 13.16 320.158 12.68 320.158 12.16C320.158 11.68 320.238 11.2 320.798 11.2C322.198 11.2 323.878 12.6 323.878 14.04C323.878 14.36 323.798 14.68 323.678 15ZM335.434 35.8C334.514 27.8 334.354 19.76 334.034 11.72C333.994 11.04 334.034 10.32 334.034 9.64C334.034 8.48 333.914 7 332.394 7C331.834 7 331.314 7.28 330.754 7.16C330.594 7.32 330.514 7.52 330.514 7.76C330.514 8.36 330.754 8.96 330.834 9.6C330.954 10.52 330.834 11.48 330.834 12.44C330.834 18.48 331.514 24.48 331.834 30.52C331.994 33.24 331.954 36 332.434 38.72C332.634 39.84 332.594 39.64 333.634 39.88C334.034 39.96 334.474 40.12 334.874 40.12C335.674 40.12 335.754 39.04 335.754 38.48C335.754 37.6 335.554 36.68 335.434 35.8ZM352.135 28.16H351.975C351.255 28.16 350.575 28.04 349.855 28.04C349.535 28.04 349.135 28.04 348.855 28.24C348.055 28.72 349.015 33.68 346.375 33.68C343.695 33.68 343.735 27.88 343.535 26.04C343.455 25.32 343.335 24.6 343.335 23.88C343.335 22.48 344.615 22.2 345.735 22.2C347.095 22.2 348.455 22.32 349.815 22.32C351.295 22.32 352.295 22.04 352.295 20.32C352.295 16.68 350.375 10.2 345.895 10.2C340.135 10.2 339.775 19.68 339.775 23.76C339.775 27.68 341.055 36.92 346.335 36.92C350.375 36.92 352.535 32.44 352.535 28.92C352.535 28.6 352.495 28.24 352.135 28.16ZM343.775 18.24V17.36C343.775 16.08 343.775 13.32 345.615 13.32C347.495 13.32 348.855 16.64 348.855 18.16C348.855 19.04 348.295 19.04 347.615 19.12C346.655 19.24 345.735 19.56 344.775 19.56C344.495 19.56 343.695 19.52 343.695 19.12C343.695 18.8 343.735 18.52 343.775 18.24ZM360.079 36.8C360.119 36.56 360.159 36.32 360.159 36.04C360.159 34.84 359.839 33.68 359.719 32.48C359.359 28.96 359.439 25.44 359.439 21.92C359.439 21 359.319 20.12 358.199 20.12C356.359 20.12 355.999 20.68 355.999 22.44C355.999 23.92 356.319 25.4 356.479 26.92C356.759 29.48 356.679 32.12 356.679 34.68C356.679 37 356.919 37.08 359.159 37.08C359.479 37.08 359.839 37.08 360.079 36.8ZM356.479 16.72C356.959 16.72 357.439 16.84 357.919 16.84C358.759 16.84 359.039 16.24 359.039 15.48C359.039 14.76 358.879 14.08 358.839 13.36C358.839 12.76 358.919 12.2 358.919 11.6C358.919 10.24 357.919 10.04 356.759 10.04C356.399 10.04 356.039 10.04 355.719 10.12C355.559 10.2 355.519 10.4 355.519 10.56C355.519 11.12 355.759 11.6 355.839 12.12C355.999 13.28 355.919 14.44 355.919 15.6C355.919 15.96 355.919 16.4 356.039 16.76C356.199 16.72 356.319 16.72 356.479 16.72ZM377.555 28.4C377.195 25.36 377.395 22.32 377.395 19.28C377.395 17.48 377.195 15.72 377.195 13.96C377.195 13.24 377.315 12.56 377.315 11.84C377.315 10.92 375.195 10.52 374.515 10.52C373.955 10.52 373.955 11.12 373.955 11.52C373.955 16.52 374.555 21.48 374.555 26.48C374.555 26.96 374.555 27.4 374.435 27.88C372.555 25.2 368.195 12.12 367.275 11.4C366.755 11.04 366.115 10.88 365.475 10.88C364.675 10.88 364.235 11.32 364.235 12.12C364.235 12.96 364.515 13.76 364.635 14.56C364.875 16.36 364.915 18.24 364.915 20.04C364.915 22.36 364.795 24.68 364.795 26.96C364.795 29.84 364.955 32.64 365.275 35.48C365.355 36.04 365.355 36.56 366.075 36.56C366.635 36.56 367.195 36.64 367.755 36.64C368.555 36.64 368.555 35.44 368.555 34.88C368.555 30.76 367.915 26.68 367.515 22.6C367.355 21.08 367.155 19.6 367.155 18.12C367.155 17.96 367.195 17.76 367.235 17.6C367.915 18.08 369.595 23.24 370.035 24.36C371.035 27 372.435 29.48 373.395 32.12C373.635 32.72 373.995 34.28 374.515 34.6C374.875 34.8 376.275 34.8 376.715 34.8C377.835 34.8 377.835 32.88 377.835 32.12C377.835 30.88 377.675 29.64 377.555 28.4ZM398.52 35.8C397.6 27.8 397.44 19.76 397.12 11.72C397.08 11.04 397.12 10.32 397.12 9.64C397.12 8.48 397 7 395.48 7C394.92 7 394.4 7.28 393.84 7.16C393.68 7.32 393.6 7.52 393.6 7.76C393.6 8.36 393.84 8.96 393.92 9.6C394.04 10.52 393.92 11.48 393.92 12.44C393.92 18.48 394.6 24.48 394.92 30.52C395.08 33.24 395.04 36 395.52 38.72C395.72 39.84 395.68 39.64 396.72 39.88C397.12 39.96 397.56 40.12 397.96 40.12C398.76 40.12 398.84 39.04 398.84 38.48C398.84 37.6 398.64 36.68 398.52 35.8ZM410.781 10.32C410.661 9.28 410.781 8.28 410.781 7.24C410.781 5.92 410.021 5.92 408.941 5.92C408.381 5.92 407.741 5.92 407.261 6.24C406.701 6.6 406.741 9.72 406.661 10.48C405.941 17.72 404.781 24.88 403.981 32.08C403.781 34.2 403.461 36.28 403.181 38.4C402.981 40.36 402.821 40.96 404.501 41.08C404.741 41.12 405.021 41.2 405.301 41.2C406.141 41.2 406.061 40.16 406.061 39.56C406.061 37.88 406.301 36.24 406.341 34.6C406.381 33.76 406.381 32.8 407.261 32.36C407.461 32.28 409.141 32.36 409.381 32.36C410.461 32.32 410.501 34.6 410.741 36.16C410.941 37.6 410.581 41.12 411.461 41.12C412.301 41.12 413.021 41.04 413.661 40.6C414.061 40.32 413.701 36.76 413.501 35.2C412.541 26.92 412.141 18.56 410.781 10.32ZM409.741 29.48C409.501 29.64 409.181 29.72 408.901 29.72C408.021 29.72 407.221 29.84 407.261 29.2C407.301 27.72 408.221 19.44 408.461 17.92C408.901 22 409.781 25.08 409.781 28.72C409.781 28.96 409.781 29.24 409.741 29.48ZM408.501 17.76C408.501 17.68 408.501 17.68 408.501 17.64C408.501 17.68 408.501 17.72 408.501 17.76ZM441.347 10.88C441.067 10.68 440.267 10.68 439.907 10.68C439.667 10.68 439.467 10.68 439.227 10.72C438.067 11.04 438.307 11.04 438.227 12.2C438.107 14.32 437.547 16.4 437.347 18.52C436.987 22.4 436.387 26.24 435.787 30.08C435.347 29.8 434.867 25.84 434.667 25.08C434.147 23.12 433.787 21.12 433.267 19.12C432.827 17.24 432.187 15.36 431.747 13.48C431.347 11.8 431.667 10.92 429.587 10.76L429.027 10.72C428.707 10.72 428.227 10.72 428.227 11.2C428.227 11.68 429.587 16.32 429.867 17.32C431.147 22.64 432.587 27.96 433.747 33.32C433.907 34.08 434.067 35.96 434.827 36.32C435.147 36.44 435.587 36.44 435.907 36.44C436.347 36.44 437.307 36.44 437.627 36.16C438.267 35.64 438.227 32.56 438.347 31.68C438.907 27.88 439.587 24.08 440.067 20.28C440.467 17.44 440.427 13.68 441.667 11.12H441.507C441.427 11.12 441.347 10.96 441.347 10.88ZM459.924 11H459.524C458.524 11 457.324 11.04 457.324 12.36C457.324 13.12 457.404 13.84 457.404 14.56C457.404 16.56 457.364 18.56 457.364 20.56C457.364 23.76 458.204 32.08 453.244 32.08C448.644 32.08 448.444 26.28 448.444 22.92C448.444 19.4 448.564 15.92 448.564 12.4C448.564 11.84 447.884 11.84 447.524 11.84C446.764 11.84 446.284 11.88 445.684 12.4C445.524 12.56 445.364 20.08 445.364 21C445.364 25.68 445.804 34.96 452.324 34.96C459.644 34.96 460.844 27.04 460.844 21.32C460.844 18.28 460.484 15.28 460.484 12.24C460.484 11.72 460.484 11.24 459.924 11ZM476.354 28.16H476.194C475.474 28.16 474.794 28.04 474.074 28.04C473.754 28.04 473.354 28.04 473.074 28.24C472.274 28.72 473.234 33.68 470.594 33.68C467.914 33.68 467.954 27.88 467.754 26.04C467.674 25.32 467.554 24.6 467.554 23.88C467.554 22.48 468.834 22.2 469.954 22.2C471.314 22.2 472.674 22.32 474.034 22.32C475.514 22.32 476.514 22.04 476.514 20.32C476.514 16.68 474.594 10.2 470.114 10.2C464.354 10.2 463.994 19.68 463.994 23.76C463.994 27.68 465.274 36.92 470.554 36.92C474.594 36.92 476.754 32.44 476.754 28.92C476.754 28.6 476.714 28.24 476.354 28.16ZM467.994 18.24V17.36C467.994 16.08 467.994 13.32 469.834 13.32C471.714 13.32 473.074 16.64 473.074 18.16C473.074 19.04 472.514 19.04 471.834 19.12C470.874 19.24 469.954 19.56 468.994 19.56C468.714 19.56 467.914 19.52 467.914 19.12C467.914 18.8 467.954 18.52 467.994 18.24ZM506.055 33.12C505.695 33.12 505.255 33.2 505.055 33.52C504.895 33.8 504.815 35.76 504.815 36.2C504.815 36.8 505.095 37.16 505.735 37.16C506.455 37.16 507.215 37.04 507.935 36.96C508.575 36.92 508.495 36.16 508.495 35.72C508.495 33.36 508.295 33.12 506.055 33.12ZM511.815 10.2C510.975 9 509.575 8.12 508.095 8.12C505.135 8.12 503.615 11.28 503.615 13.84C503.615 14.84 503.895 16.04 505.095 16.04C505.935 16.04 506.855 15.48 506.855 14.6C506.855 14.04 506.655 13.56 506.655 13.04C506.655 12.2 507.175 11.08 508.135 11.08C509.655 11.08 510.175 13.24 510.175 14.4C510.175 19.2 506.735 21.52 505.175 25.52C505.015 25.92 504.815 29.4 504.815 29.96C504.815 30.36 505.095 30.68 505.495 30.68H506.975C507.375 30.68 507.655 30.4 507.695 30C508.015 26.84 508.615 24.92 510.295 22.2C510.975 21.16 511.735 20.12 512.215 18.96C512.775 17.6 513.095 16.04 513.095 14.6C513.095 13.04 512.735 11.48 511.815 10.2Z" fill="white"/>
</g>
<defs>
<filter id="filter0_d" x="0.0273438" y="0.0800018" width="522.068" height="52.56" filterUnits="userSpaceOnUse" color-interpolation-filters="sRGB">
<feFlood flood-opacity="0" result="BackgroundImageFix"/>
<feColorMatrix in="SourceAlpha" type="matrix" values="0 0 0 0 0 0 0 0 0 0 0 0 0 0 0 0 0 0 127 0"/>
<feOffset dx="1" dy="3"/>
<feGaussianBlur stdDeviation="4"/>
<feColorMatrix type="matrix" values="0 0 0 0 0.0148958 0 0 0 0 0.330994 0 0 0 0 0.595833 0 0 0 1 0"/>
<feBlend mode="normal" in2="BackgroundImageFix" result="effect1_dropShadow"/>
<feBlend mode="normal" in="SourceGraphic" in2="effect1_dropShadow" result="shape"/>
</filter>
</defs>
</svg>
