<svg width="148" height="48" viewBox="0 0 148 48" fill="none" xmlns="http://www.w3.org/2000/svg">
<g filter="url(#filter0_d)">
<path d="M20.3953 14.448C20.3233 12.432 20.4313 10.416 20.4313 8.364C20.4313 6.708 20.2873 5.088 20.0713 3.468C19.9273 2.604 20.1793 2.784 19.2433 2.676C18.9913 2.64 18.7393 2.604 18.4513 2.604C18.3793 2.604 17.5513 2.676 17.4793 2.676C15.8953 3.54 11.4313 24.78 11.2513 24.708C10.4593 24.492 6.60734 10.02 5.67134 6.492C5.45534 5.736 4.98734 2.748 4.41134 2.424C4.12334 2.28 3.87134 2.244 3.58334 2.244C3.04334 2.244 1.53134 2.28 1.53134 3.036C1.53134 11.352 2.57534 20.676 2.57534 29.028C2.86334 29.856 2.82734 29.676 3.65534 29.82C4.15934 29.928 4.62734 29.964 5.16734 29.964C5.27534 29.964 5.38334 29.964 5.49134 29.928C5.63534 29.712 5.63534 29.424 5.63534 29.172C5.63534 27.876 5.27534 26.652 5.16734 25.392C4.69934 20.964 3.94334 15.96 3.94334 11.532C3.94334 11.316 3.94334 11.1 4.05134 10.92C4.05134 10.956 4.01534 11.028 4.01534 11.064C4.01534 11.172 7.36334 22.008 7.43534 22.26C8.01134 24.204 8.69534 26.112 9.16334 28.092C9.30734 28.74 9.30734 29.28 10.0273 29.532C10.2433 29.604 10.4593 29.604 10.6753 29.604C11.1073 29.604 11.7913 29.64 12.1513 29.46C12.6193 29.28 13.2313 25.644 13.4113 24.96C14.4553 21.36 15.4273 17.652 16.3993 14.052C16.5433 13.512 17.3353 11.064 17.2633 10.704C17.5513 11.136 17.4073 13.512 17.4073 14.124C17.4073 16.14 17.7313 18.156 17.8033 20.136C17.9113 22.692 17.9113 25.248 17.9113 27.768C17.9113 28.596 18.2713 29.028 18.3793 29.712C18.7753 29.928 19.1713 29.928 19.6033 29.928C20.5753 29.928 20.9353 29.712 20.9353 28.668C20.9353 27.768 20.6833 26.904 20.6473 26.004C20.3953 22.152 20.5393 18.3 20.3953 14.448ZM31.6164 4.188C31.5084 3.252 31.6164 2.352 31.6164 1.416C31.6164 0.227999 30.9324 0.227999 29.9604 0.227999C29.4564 0.227999 28.8804 0.227999 28.4484 0.515998C27.9444 0.839998 27.9804 3.648 27.9084 4.332C27.2604 10.848 26.2164 17.292 25.4964 23.772C25.3164 25.68 25.0284 27.552 24.7764 29.46C24.5964 31.224 24.4524 31.764 25.9644 31.872C26.1804 31.908 26.4324 31.98 26.6844 31.98C27.4404 31.98 27.3684 31.044 27.3684 30.504C27.3684 28.992 27.5844 27.516 27.6204 26.04C27.6564 25.284 27.6564 24.42 28.4484 24.024C28.6284 23.952 30.1404 24.024 30.3564 24.024C31.3284 23.988 31.3644 26.04 31.5804 27.444C31.7604 28.74 31.4364 31.908 32.2284 31.908C32.9844 31.908 33.6324 31.836 34.2084 31.44C34.5684 31.188 34.2444 27.984 34.0644 26.58C33.2004 19.128 32.8404 11.604 31.6164 4.188ZM30.6804 21.432C30.4644 21.576 30.1764 21.648 29.9244 21.648C29.1324 21.648 28.4124 21.756 28.4484 21.18C28.4844 19.848 29.3124 12.396 29.5284 11.028C29.9244 14.7 30.7164 17.472 30.7164 20.748C30.7164 20.964 30.7164 21.216 30.6804 21.432ZM29.5644 10.884C29.5644 10.812 29.5644 10.812 29.5644 10.776C29.5644 10.812 29.5644 10.848 29.5644 10.884ZM41.8831 28.02C41.9191 27.804 41.9551 27.588 41.9551 27.336C41.9551 26.256 41.6671 25.212 41.5591 24.132C41.2351 20.964 41.3071 17.796 41.3071 14.628C41.3071 13.8 41.1991 13.008 40.1911 13.008C38.5351 13.008 38.2111 13.512 38.2111 15.096C38.2111 16.428 38.4991 17.76 38.6431 19.128C38.8951 21.432 38.8231 23.808 38.8231 26.112C38.8231 28.2 39.0391 28.272 41.0551 28.272C41.3431 28.272 41.6671 28.272 41.8831 28.02ZM38.6431 9.948C39.0751 9.948 39.5071 10.056 39.9391 10.056C40.6951 10.056 40.9471 9.516 40.9471 8.832C40.9471 8.184 40.8031 7.572 40.7671 6.924C40.7671 6.384 40.8391 5.88 40.8391 5.34C40.8391 4.116 39.9391 3.936 38.8951 3.936C38.5711 3.936 38.2471 3.936 37.9591 4.008C37.8151 4.08 37.7791 4.26 37.7791 4.404C37.7791 4.908 37.9951 5.34 38.0671 5.808C38.2111 6.852 38.1391 7.896 38.1391 8.94C38.1391 9.264 38.1391 9.66 38.2471 9.984C38.3911 9.948 38.4991 9.948 38.6431 9.948ZM53.148 17.112C51.888 14.808 48.216 11.964 48.216 9.264C48.216 8.796 48.288 7.716 48.972 7.716C50.484 7.716 49.224 9.66 50.988 9.66C51.564 9.66 52.14 9.588 52.716 9.516C52.644 7.536 51.204 5.196 49.044 5.196C46.992 5.196 45.624 7.14 45.624 9.048C45.624 14.016 51.816 16.5 51.816 21.9C51.816 22.836 51.384 24.42 50.196 24.42C48.756 24.42 48.864 22.62 48.864 21.612C48.864 20.82 48.108 20.316 47.352 20.316C46.38 20.316 46.02 21.108 46.02 21.972C46.02 24.24 47.64 27.012 50.16 27.012C52.932 27.012 54.372 24.204 54.372 21.756C54.372 20.136 53.904 18.516 53.148 17.112ZM79.655 20.46C79.331 17.724 79.511 14.988 79.511 12.252C79.511 10.632 79.331 9.048 79.331 7.464C79.331 6.816 79.439 6.204 79.439 5.556C79.439 4.728 77.531 4.368 76.919 4.368C76.415 4.368 76.415 4.908 76.415 5.268C76.415 9.768 76.955 14.232 76.955 18.732C76.955 19.164 76.955 19.56 76.847 19.992C75.155 17.58 71.231 5.808 70.403 5.16C69.935 4.836 69.359 4.692 68.783 4.692C68.063 4.692 67.667 5.088 67.667 5.808C67.667 6.564 67.919 7.284 68.027 8.004C68.243 9.624 68.279 11.316 68.279 12.936C68.279 15.024 68.171 17.112 68.171 19.164C68.171 21.756 68.315 24.276 68.603 26.832C68.675 27.336 68.675 27.804 69.323 27.804C69.827 27.804 70.331 27.876 70.835 27.876C71.555 27.876 71.555 26.796 71.555 26.292C71.555 22.584 70.979 18.912 70.619 15.24C70.475 13.872 70.295 12.54 70.295 11.208C70.295 11.064 70.331 10.884 70.367 10.74C70.979 11.172 72.491 15.816 72.887 16.824C73.787 19.2 75.047 21.432 75.911 23.808C76.127 24.348 76.451 25.752 76.919 26.04C77.243 26.22 78.503 26.22 78.899 26.22C79.907 26.22 79.907 24.492 79.907 23.808C79.907 22.692 79.763 21.576 79.655 20.46ZM91.9363 27.732C98.0203 27.732 99.6403 20.208 99.6403 15.42C99.6403 10.488 98.0923 4.26 92.0083 4.26C86.4283 4.26 84.0883 10.272 84.0883 15.024C84.0883 19.992 85.5643 27.732 91.9363 27.732ZM92.0083 7.14C95.7523 7.14 96.9763 12.324 96.9763 15.276C96.9763 18.516 96.3283 24.924 91.9363 24.924C87.1123 24.924 86.9323 18.804 86.9323 15.312C86.9323 12 87.7603 7.14 92.0083 7.14ZM114.776 20.46C114.452 17.724 114.632 14.988 114.632 12.252C114.632 10.632 114.452 9.048 114.452 7.464C114.452 6.816 114.56 6.204 114.56 5.556C114.56 4.728 112.652 4.368 112.04 4.368C111.536 4.368 111.536 4.908 111.536 5.268C111.536 9.768 112.076 14.232 112.076 18.732C112.076 19.164 112.076 19.56 111.968 19.992C110.276 17.58 106.352 5.808 105.524 5.16C105.056 4.836 104.48 4.692 103.904 4.692C103.184 4.692 102.788 5.088 102.788 5.808C102.788 6.564 103.04 7.284 103.148 8.004C103.364 9.624 103.4 11.316 103.4 12.936C103.4 15.024 103.292 17.112 103.292 19.164C103.292 21.756 103.436 24.276 103.724 26.832C103.796 27.336 103.796 27.804 104.444 27.804C104.948 27.804 105.452 27.876 105.956 27.876C106.676 27.876 106.676 26.796 106.676 26.292C106.676 22.584 106.1 18.912 105.74 15.24C105.596 13.872 105.416 12.54 105.416 11.208C105.416 11.064 105.452 10.884 105.488 10.74C106.1 11.172 107.612 15.816 108.008 16.824C108.908 19.2 110.168 21.432 111.032 23.808C111.248 24.348 111.572 25.752 112.04 26.04C112.364 26.22 113.624 26.22 114.02 26.22C115.028 26.22 115.028 24.492 115.028 23.808C115.028 22.692 114.884 21.576 114.776 20.46ZM130.872 26.508C130.44 26.508 130.08 26.832 130.08 27.264C130.044 28.236 130.008 29.244 130.008 30.252C130.008 30.396 129.972 30.828 130.08 30.972C130.26 31.224 131.556 31.26 131.88 31.26C132.312 31.26 132.636 30.936 132.636 30.504C132.636 29.46 132.636 28.38 132.6 27.3C132.6 26.904 132.312 26.616 131.88 26.58C131.556 26.544 131.196 26.544 130.872 26.508ZM129.72 4.152C130.08 7.428 129.972 11.244 130.08 14.592C130.08 15.348 130.08 16.104 130.08 16.896C130.08 18.696 130.008 20.496 130.008 22.296C130.008 22.476 129.972 22.872 130.08 23.052C130.224 23.304 131.592 23.34 131.88 23.34C132.312 23.34 132.636 23.016 132.636 22.584C132.636 17.256 132.492 11.892 132.492 6.564C132.492 5.376 132.636 4.224 132.636 3.036C132.636 2.496 132.6 1.992 132.528 1.452C132.42 0.803998 132.6 0.551999 131.772 0.551999C131.376 0.551999 129.612 0.587999 129.468 1.056C129.54 1.2 129.432 1.74 129.432 1.956C129.432 2.676 129.612 3.432 129.72 4.152Z" fill="white"/>
</g>
<defs>
<filter id="filter0_d" x="0.53125" y="0.227997" width="147.105" height="47.752" filterUnits="userSpaceOnUse" color-interpolation-filters="sRGB">
<feFlood flood-opacity="0" result="BackgroundImageFix"/>
<feColorMatrix in="SourceAlpha" type="matrix" values="0 0 0 0 0 0 0 0 0 0 0 0 0 0 0 0 0 0 127 0"/>
<feOffset dx="7" dy="8"/>
<feGaussianBlur stdDeviation="4"/>
<feColorMatrix type="matrix" values="0 0 0 0 0.0196078 0 0 0 0 0.454902 0 0 0 0 0.811765 0 0 0 1 0"/>
<feBlend mode="normal" in2="BackgroundImageFix" result="effect1_dropShadow"/>
<feBlend mode="normal" in="SourceGraphic" in2="effect1_dropShadow" result="shape"/>
</filter>
</defs>
</svg>
