<svg width="122" height="48" viewBox="0 0 122 48" fill="none" xmlns="http://www.w3.org/2000/svg">
<g filter="url(#filter0_d)">
<path d="M9.76642 27.732C15.8504 27.732 17.4704 20.208 17.4704 15.42C17.4704 10.488 15.9224 4.26 9.83842 4.26C4.25842 4.26 1.91842 10.272 1.91842 15.024C1.91842 19.992 3.39442 27.732 9.76642 27.732ZM9.83842 7.14C13.5824 7.14 14.8064 12.324 14.8064 15.276C14.8064 18.516 14.1584 24.924 9.76642 24.924C4.94242 24.924 4.76242 18.804 4.76242 15.312C4.76242 12 5.59042 7.14 9.83842 7.14ZM35.2702 24.096C35.1622 22.224 34.1542 5.916 33.9742 5.52C33.7582 4.98 33.1462 4.728 32.6062 4.728C31.9582 4.728 31.4182 5.088 31.4182 5.808C31.4182 6.528 31.5982 7.212 31.6702 7.932C31.7422 8.94 31.7422 9.912 31.7782 10.884C31.8142 12.288 32.1022 13.692 32.1022 15.096C32.1022 17.508 30.6262 16.932 28.7542 16.932C27.4582 16.932 26.1262 16.932 24.8302 16.788C24.0742 16.716 23.5702 16.536 23.5702 15.636C23.5702 15.06 23.7142 14.484 23.7142 13.908C23.7142 11.82 23.3182 9.768 23.3182 7.716C23.3182 7.104 23.4622 6.564 23.4622 5.952C23.4622 5.484 23.2102 5.124 22.7062 5.124C22.0942 5.124 21.5182 5.196 20.9062 5.196C20.5822 5.196 20.3302 5.268 20.3302 5.664C20.3302 6.06 20.4022 6.42 20.4382 6.78C20.9782 11.46 20.6542 16.14 21.1222 20.82C21.2302 21.792 21.4462 22.764 21.4462 23.772C21.4462 24.312 21.3022 24.852 21.3022 25.428C21.3022 26.364 21.6982 26.508 22.5262 26.508C23.1382 26.508 24.6502 26.328 24.6502 25.536C24.6502 24.744 24.3262 23.988 24.2182 23.196C24.1102 22.332 23.9662 21.468 23.9662 20.604C23.9662 19.488 24.9742 19.272 25.8742 19.272C26.9542 19.272 27.9982 19.524 29.1142 19.524C29.5462 19.56 29.9782 19.524 30.4102 19.524C30.9862 19.524 31.8502 19.488 32.2462 19.992C32.6062 20.46 32.6422 22.296 32.7142 22.944C32.9302 25.032 32.2102 27.48 35.1982 27.48C35.5582 27.48 35.6302 27.048 35.6302 26.796C35.6302 25.896 35.3422 24.996 35.2702 24.096ZM57.7547 27.732C63.8387 27.732 65.4587 20.208 65.4587 15.42C65.4587 10.488 63.9107 4.26 57.8267 4.26C52.2467 4.26 49.9067 10.272 49.9067 15.024C49.9067 19.992 51.3827 27.732 57.7547 27.732ZM57.8267 7.14C61.5707 7.14 62.7947 12.324 62.7947 15.276C62.7947 18.516 62.1467 24.924 57.7547 24.924C52.9307 24.924 52.7507 18.804 52.7507 15.312C52.7507 12 53.5787 7.14 57.8267 7.14ZM81.5305 4.8H81.1705C80.2705 4.8 79.1905 4.836 79.1905 6.024C79.1905 6.708 79.2625 7.356 79.2625 8.004C79.2625 9.804 79.2265 11.604 79.2265 13.404C79.2265 16.284 79.9825 23.772 75.5185 23.772C71.3785 23.772 71.1985 18.552 71.1985 15.528C71.1985 12.36 71.3065 9.228 71.3065 6.06C71.3065 5.556 70.6945 5.556 70.3705 5.556C69.6865 5.556 69.2545 5.592 68.7145 6.06C68.5705 6.204 68.4265 12.972 68.4265 13.8C68.4265 18.012 68.8225 26.364 74.6905 26.364C81.2785 26.364 82.3585 19.236 82.3585 14.088C82.3585 11.352 82.0345 8.652 82.0345 5.916C82.0345 5.448 82.0345 5.016 81.5305 4.8ZM89.3695 28.02C89.4055 27.804 89.4415 27.588 89.4415 27.336C89.4415 26.256 89.1535 25.212 89.0455 24.132C88.7215 20.964 88.7935 17.796 88.7935 14.628C88.7935 13.8 88.6855 13.008 87.6775 13.008C86.0215 13.008 85.6975 13.512 85.6975 15.096C85.6975 16.428 85.9855 17.76 86.1295 19.128C86.3815 21.432 86.3095 23.808 86.3095 26.112C86.3095 28.2 86.5255 28.272 88.5415 28.272C88.8295 28.272 89.1535 28.272 89.3695 28.02ZM86.1295 9.948C86.5615 9.948 86.9935 10.056 87.4255 10.056C88.1815 10.056 88.4335 9.516 88.4335 8.832C88.4335 8.184 88.2895 7.572 88.2535 6.924C88.2535 6.384 88.3255 5.88 88.3255 5.34C88.3255 4.116 87.4255 3.936 86.3815 3.936C86.0575 3.936 85.7335 3.936 85.4455 4.008C85.3015 4.08 85.2655 4.26 85.2655 4.404C85.2655 4.908 85.4815 5.34 85.5535 5.808C85.6975 6.852 85.6255 7.896 85.6255 8.94C85.6255 9.264 85.6255 9.66 85.7335 9.984C85.8775 9.948 85.9855 9.948 86.1295 9.948ZM104.917 26.508C104.485 26.508 104.125 26.832 104.125 27.264C104.089 28.236 104.053 29.244 104.053 30.252C104.053 30.396 104.017 30.828 104.125 30.972C104.305 31.224 105.601 31.26 105.925 31.26C106.357 31.26 106.681 30.936 106.681 30.504C106.681 29.46 106.681 28.38 106.645 27.3C106.645 26.904 106.357 26.616 105.925 26.58C105.601 26.544 105.241 26.544 104.917 26.508ZM103.765 4.152C104.125 7.428 104.017 11.244 104.125 14.592C104.125 15.348 104.125 16.104 104.125 16.896C104.125 18.696 104.053 20.496 104.053 22.296C104.053 22.476 104.017 22.872 104.125 23.052C104.269 23.304 105.637 23.34 105.925 23.34C106.357 23.34 106.681 23.016 106.681 22.584C106.681 17.256 106.537 11.892 106.537 6.564C106.537 5.376 106.681 4.224 106.681 3.036C106.681 2.496 106.645 1.992 106.573 1.452C106.465 0.803998 106.645 0.551999 105.817 0.551999C105.421 0.551999 103.657 0.587999 103.513 1.056C103.585 1.2 103.477 1.74 103.477 1.956C103.477 2.676 103.657 3.432 103.765 4.152Z" fill="white"/>
</g>
<defs>
<filter id="filter0_d" x="0.918457" y="0.552002" width="120.763" height="46.708" filterUnits="userSpaceOnUse" color-interpolation-filters="sRGB">
<feFlood flood-opacity="0" result="BackgroundImageFix"/>
<feColorMatrix in="SourceAlpha" type="matrix" values="0 0 0 0 0 0 0 0 0 0 0 0 0 0 0 0 0 0 127 0"/>
<feOffset dx="7" dy="8"/>
<feGaussianBlur stdDeviation="4"/>
<feColorMatrix type="matrix" values="0 0 0 0 0.0196078 0 0 0 0 0.454902 0 0 0 0 0.811765 0 0 0 1 0"/>
<feBlend mode="normal" in2="BackgroundImageFix" result="effect1_dropShadow"/>
<feBlend mode="normal" in="SourceGraphic" in2="effect1_dropShadow" result="shape"/>
</filter>
</defs>
</svg>
