<svg width="780" height="623" viewBox="0 0 780 623" fill="none" xmlns="http://www.w3.org/2000/svg">
    <path d="M41.3301 618.335C37.0075 625.799 25.6422 623.29 24.862 614.701L24.4824 610.491C23.4633 599.28 25.8319 589.517 27.9194 580.9C29.3603 574.961 30.7168 569.352 30.6114 564.404C30.3654 552.68 30.5763 541.532 30.7871 530.75C31.4057 498.496 31.9328 470.641 20.4128 440.418C9.68009 412.254 2.79201 380.534 1.02079 351.098C-1.03158 317.009 3.67762 285.935 14.6353 261.23C17.4749 254.827 19.5553 248.831 21.5726 243.033C26.5067 228.828 31.1667 215.403 44.9288 201.732C48.6469 198.035 52.6462 194.401 56.512 190.887C65.1151 183.064 74.0063 174.981 79.8401 166.139C86.8125 155.568 85.456 144.02 83.734 129.4C83.0241 123.398 82.3001 117.192 82.1596 110.69C81.3583 72.5736 102.458 44.7964 144.876 28.1385C178.719 14.8473 220.905 10.7777 251.712 7.80457C256.758 7.31959 261.531 6.8557 265.966 6.38478C376.962 -5.34604 490.419 1.14141 606.581 9.44928C642.927 12.0499 674.387 17.7431 700.084 26.3743C740.041 39.792 765.141 60.147 774.672 86.8699C778.376 97.2442 781.778 109.369 778.959 120.629C776.274 131.361 768.711 139.796 755.146 147.19C736.379 157.424 715.483 160.038 695.283 162.568C683.306 164.066 671.997 165.485 661.25 168.374C578.776 190.55 499.451 186.944 415.465 183.127C400.213 182.431 384.441 181.715 368.823 181.18C332.829 179.943 295.957 180.372 260.308 180.787C240.367 181.019 219.738 181.258 199.482 181.201C173.434 181.138 152.509 183.95 135.528 189.819C126.44 192.96 117.282 197.796 108.426 202.47C100.251 206.786 91.8029 211.249 83.1787 214.524C65.5087 221.237 55.6123 233.923 47.8808 259.768C37.3589 294.939 33.9922 341.778 38.4132 391.646C39.5237 404.15 43.5863 416.31 47.8878 429.179C50.9523 438.345 54.1223 447.826 56.2238 457.645C61.3899 481.782 61.2282 507.092 60.5183 526.449L60.434 528.719C59.45 555.66 58.22 589.194 43.4668 614.666L41.3301 618.335ZM397.163 20.3788C353.683 20.3788 310.654 22.1501 268.096 26.6484C263.562 27.1263 258.754 27.5902 253.652 28.0822C222.395 31.0975 183.499 34.8508 152.313 47.0947C136.189 53.4276 123.875 61.4754 115.707 71.0273C106.507 81.7882 102.191 94.6155 102.522 110.24C102.641 115.758 103.309 121.472 103.962 126.996C105.818 142.734 107.913 160.565 96.8424 177.35C93.5389 182.354 89.6943 186.937 85.5825 191.266C89.9192 189.186 94.3261 186.852 98.8807 184.449C108.419 179.409 118.28 174.208 128.851 170.553C148.032 163.932 171.156 160.741 199.517 160.825C219.633 160.882 240.185 160.643 260.048 160.411C295.936 159.996 333.04 159.56 369.505 160.818C385.235 161.36 401.064 162.076 416.365 162.772C498.727 166.512 576.52 170.047 655.93 148.694C668.04 145.44 680.586 143.865 692.718 142.347C711.885 139.943 729.983 137.68 745.362 129.295C761.043 120.741 762.835 114.429 755.448 93.7158C748.124 73.1781 727.305 57.0262 693.568 45.696C669.495 37.6131 639.729 32.2573 605.098 29.7832C534.749 24.7436 465.404 20.3788 397.163 20.3788Z"
          fill="#FFF2EA"/>
    <path d="M34.6313 609.569C48.4988 585.629 49.3212 552.967 50.3193 526.083C51.1346 504.055 50.8745 481.387 46.2497 459.788C41.3999 437.128 30.3017 415.719 28.2493 392.552C24.4046 349.171 25.5503 298.818 38.1035 256.857C45.5327 232.032 55.9984 213.954 79.5444 205.007C96.8068 198.449 113.788 186.549 132.189 180.189C153.289 172.9 177.13 170.96 199.495 171.016C255.942 171.164 312.755 169.055 369.16 171.002C467.646 174.397 562.328 184.42 658.586 158.54C688.697 150.443 722.736 153.248 750.254 138.249C772.612 126.061 773.104 112.847 765.063 90.2921C745.797 36.298 655.444 23.1614 605.843 19.619C494.572 11.6485 378.339 4.74637 267.027 16.5194C207.431 22.817 90.5864 27.3083 92.3436 110.464C92.8004 132.316 100.792 152.875 88.3443 171.74C79.0383 185.847 64.0743 197.064 52.1116 208.95C34.7578 226.198 33.8792 242.976 23.9478 265.355C1.68098 315.553 10.1997 385.011 29.9362 436.784C46.1934 479.44 39.8255 517.761 40.8025 564.192C41.0977 578.263 33.0709 592.37 34.6313 609.569Z"
          fill="#22C79E"/>
    <path d="M126.107 112.85H125.595C125.09 112.85 124.586 112.817 124.081 112.752C122.274 112.394 120.761 111.401 119.54 109.773C118.938 109.057 118.384 108.187 117.88 107.161C117.147 105.647 116.602 103.922 116.244 101.985C116.033 100.602 115.927 99.3079 115.927 98.1035C115.927 97.4362 115.951 96.777 116 96.126V95.8574C116.081 94.6693 116.244 93.5137 116.488 92.3906C116.716 91.3652 117.001 90.3398 117.343 89.3145L117.782 88.1182C118.515 86.751 119.247 86.0674 119.979 86.0674C120.744 86.0674 121.379 86.4743 121.884 87.2881C122.226 87.874 122.396 88.4762 122.396 89.0947L122.372 89.4854C122.209 89.9899 122.055 90.7142 121.908 91.6582C121.892 91.6582 121.835 92.0163 121.737 92.7324L121.493 95.1494C121.461 95.654 121.444 96.3294 121.444 97.1758C121.461 98.8685 121.566 100.236 121.762 101.277C121.924 102.254 122.136 103.157 122.396 103.987C122.494 104.28 122.681 104.728 122.958 105.33L123.056 105.55C123.414 106.315 123.723 106.884 123.983 107.259C124.26 107.617 124.464 107.861 124.594 107.991C125.001 108.463 125.497 108.699 126.083 108.699C126.132 108.699 126.319 108.691 126.645 108.675C126.97 108.642 127.426 108.309 128.012 107.674C128.207 107.462 128.386 107.234 128.549 106.99C128.549 106.974 128.557 106.966 128.573 106.966C129.289 105.989 129.802 104.923 130.111 103.768C130.144 103.686 130.168 103.597 130.185 103.499C130.217 103.385 130.258 103.263 130.307 103.133C130.486 102.384 130.632 101.619 130.746 100.838L130.771 100.643C130.836 100.024 130.868 99.5114 130.868 99.1045C130.868 98.5348 130.876 97.9733 130.893 97.4199L130.868 97.1514V96.4678L130.844 95.6377L130.697 94.2705C130.648 93.9775 130.624 93.6927 130.624 93.416L130.551 92.6836C130.518 92.3906 130.502 92.0977 130.502 91.8047C130.502 91.6582 130.518 91.5036 130.551 91.3408C130.876 90.6572 131.332 90.3154 131.918 90.3154C131.999 90.3154 132.252 90.3561 132.675 90.4375C133.114 90.5026 133.448 91.1211 133.676 92.293L133.847 92.9277C133.896 93.123 133.936 93.3265 133.969 93.5381C134.018 93.9287 134.083 94.3356 134.164 94.7588C134.245 95.182 134.311 95.6133 134.359 96.0527C134.457 96.5573 134.514 96.9805 134.53 97.3223L134.555 97.8105L134.579 98.6895C134.579 99.4382 134.563 100.187 134.53 100.936C134.514 101.505 134.4 102.262 134.188 103.206L134.091 103.621C133.993 104.109 133.814 104.728 133.554 105.477V105.525C133.147 106.551 132.821 107.283 132.577 107.723C132.431 108.032 132.219 108.382 131.942 108.772C131.438 109.489 130.95 110.099 130.478 110.604C129.387 111.775 128.093 112.516 126.596 112.825L126.107 112.85ZM141.806 112.093C140.829 112.093 139.958 111.808 139.193 111.238C138.249 110.538 137.517 109.358 136.996 107.698C136.736 106.966 136.54 106.144 136.41 105.232C136.394 105.07 136.369 104.915 136.337 104.769L136.215 103.816C136.215 103.621 136.199 103.426 136.166 103.23C136.085 102.531 136.044 101.399 136.044 99.8369L136.093 99.0068C136.109 98.4535 136.15 97.8919 136.215 97.3223C136.28 96.7526 136.329 96.4189 136.361 96.3213C136.133 96.3213 135.678 96.4271 134.994 96.6387L134.481 96.7607L134.164 96.7852C134.001 96.6875 133.822 96.598 133.627 96.5166C132.878 96.2562 132.504 95.9388 132.504 95.5645C132.504 95.3203 132.781 95.0029 133.334 94.6123L133.383 94.5879C134.083 94.1647 134.953 93.8066 135.995 93.5137C136.516 93.3835 136.833 93.3184 136.947 93.3184L136.972 93.1719L137.118 92.6592C137.232 91.9919 137.419 91.3896 137.68 90.8525C138.119 89.9899 138.64 89.5586 139.242 89.5586C140.04 89.5749 140.74 90.1283 141.342 91.2188L141.22 91.8047L141.049 92.6104L140.976 92.9033C140.976 92.9359 140.967 92.9603 140.951 92.9766L141.195 93.001C141.716 93.001 142.147 93.0091 142.489 93.0254C142.831 93.0417 143.165 93.0742 143.49 93.123C144.174 93.1556 144.743 93.2451 145.199 93.3916C145.508 93.6195 145.663 93.9043 145.663 94.2461C145.663 94.3112 145.639 94.4821 145.59 94.7588C145.541 95.0192 145.338 95.3366 144.979 95.7109C144.621 96.0853 144.215 96.305 143.759 96.3701L143.026 96.2969C142.229 96.1992 141.651 96.1423 141.293 96.126L140.512 96.1016L140.487 96.2236C140.455 96.6143 140.414 96.9967 140.365 97.3711C140.365 97.599 140.349 97.7943 140.316 97.957C140.235 99.015 140.194 99.7311 140.194 100.105L140.146 100.691C140.146 102.124 140.17 103.076 140.219 103.548C140.219 103.743 140.251 104.166 140.316 104.817C140.382 105.175 140.438 105.525 140.487 105.867C140.552 106.209 140.626 106.535 140.707 106.844C140.821 107.348 141 107.828 141.244 108.284C141.488 108.724 141.781 108.943 142.123 108.943C142.416 108.943 142.733 108.65 143.075 108.064C143.238 107.804 143.336 107.625 143.368 107.527C143.694 106.714 144.035 106.307 144.394 106.307C144.8 106.307 145.053 107.039 145.15 108.504C145.134 108.536 145.126 108.577 145.126 108.626V108.772C145.126 109.31 144.923 109.936 144.516 110.652C144.19 111.141 143.808 111.507 143.368 111.751C142.929 111.979 142.408 112.093 141.806 112.093ZM140.951 96.1016C140.821 96.1016 140.699 96.0934 140.585 96.0771H140.512V96.1016H140.951ZM147.885 92.5371C147.852 92.5371 147.608 92.529 147.152 92.5127C146.697 92.4964 146.363 92.0244 146.151 91.0967V89.6562C146.151 89.3633 146.16 89.1517 146.176 89.0215V88.8506C146.339 87.4508 146.965 86.751 148.056 86.751C148.479 86.751 148.853 86.8812 149.179 87.1416C149.618 87.516 149.838 88.1263 149.838 88.9727C149.887 89.3145 149.911 89.6318 149.911 89.9248C149.96 90.2829 149.984 90.6735 149.984 91.0967C149.984 91.2757 149.96 91.4548 149.911 91.6338C149.374 92.236 148.699 92.5371 147.885 92.5371ZM149.569 114.559C148.788 114.559 148.145 114.038 147.641 112.996C147.234 111.645 146.933 109.505 146.737 106.575L146.664 105.794C146.599 104.72 146.558 104.166 146.542 104.134C146.428 102.213 146.379 100.846 146.396 100.032C146.396 98.9906 146.412 98.1849 146.444 97.6152C146.542 96.7038 146.811 96.0446 147.25 95.6377C147.641 95.2959 148.072 95.125 148.544 95.125C149.146 95.125 149.643 95.3691 150.033 95.8574C150.342 96.2318 150.497 96.7201 150.497 97.3223L150.473 97.6641L150.497 98.958L150.57 100.472C150.587 100.813 150.611 101.147 150.644 101.473L150.741 103.084C150.806 103.702 150.855 104.321 150.888 104.939L151.327 109.456C151.49 110.791 151.571 111.816 151.571 112.532C151.311 113.883 150.644 114.559 149.569 114.559ZM155.478 114.119H154.892C154.534 114.119 154.143 113.501 153.72 112.264C153.59 111.645 153.467 111.019 153.354 110.384C153.24 109.749 153.126 109.106 153.012 108.455C152.898 107.804 152.8 107.145 152.719 106.478C152.475 104.345 152.328 102.897 152.279 102.132C152.133 100.179 152.06 98.2581 152.06 96.3701C152.06 95.361 152.076 94.5065 152.108 93.8066V93.0986C152.157 91.8779 152.206 90.6572 152.255 89.4365L152.353 87.9961C152.353 87.6706 152.385 87.2799 152.45 86.8242C152.532 86.3522 152.8 85.9697 153.256 85.6768C153.76 85.3675 154.33 85.2129 154.965 85.2129C155.453 85.2129 155.893 85.335 156.283 85.5791C156.674 85.807 156.869 86.2139 156.869 86.7998C156.934 87.5648 156.967 87.9717 156.967 88.0205C156.983 88.0531 157.016 88.5332 157.064 89.4609L157.089 91.707V92.2197V93.8555V98.6162C157.089 99.5439 157.105 100.464 157.138 101.375L157.162 102.815L157.211 104.109C157.211 104.663 157.227 105.216 157.26 105.77L157.357 108.113C157.357 108.634 157.423 109.741 157.553 111.434L157.577 112.19C157.577 112.728 157.561 113.061 157.528 113.191C156.861 113.81 156.177 114.119 155.478 114.119ZM160.58 92.5371C160.548 92.5371 160.303 92.529 159.848 92.5127C159.392 92.4964 159.058 92.0244 158.847 91.0967V89.6562C158.847 89.3633 158.855 89.1517 158.871 89.0215V88.8506C159.034 87.4508 159.66 86.751 160.751 86.751C161.174 86.751 161.549 86.8812 161.874 87.1416C162.313 87.516 162.533 88.1263 162.533 88.9727C162.582 89.3145 162.606 89.6318 162.606 89.9248C162.655 90.2829 162.68 90.6735 162.68 91.0967C162.68 91.2757 162.655 91.4548 162.606 91.6338C162.069 92.236 161.394 92.5371 160.58 92.5371ZM162.265 114.559C161.483 114.559 160.84 114.038 160.336 112.996C159.929 111.645 159.628 109.505 159.433 106.575L159.359 105.794C159.294 104.72 159.254 104.166 159.237 104.134C159.123 102.213 159.075 100.846 159.091 100.032C159.091 98.9906 159.107 98.1849 159.14 97.6152C159.237 96.7038 159.506 96.0446 159.945 95.6377C160.336 95.2959 160.767 95.125 161.239 95.125C161.841 95.125 162.338 95.3691 162.729 95.8574C163.038 96.2318 163.192 96.7201 163.192 97.3223L163.168 97.6641L163.192 98.958L163.266 100.472C163.282 100.813 163.306 101.147 163.339 101.473L163.437 103.084C163.502 103.702 163.55 104.321 163.583 104.939L164.022 109.456C164.185 110.791 164.267 111.816 164.267 112.532C164.006 113.883 163.339 114.559 162.265 114.559ZM172.372 115.047C170.517 115.047 168.881 114.55 167.465 113.558C166.716 113.037 166.114 112.459 165.658 111.824C165.154 111.059 164.885 110.302 164.853 109.554C165.064 108.577 165.495 108.089 166.146 108.089C166.179 108.089 166.374 108.105 166.732 108.138C167.107 108.154 167.66 108.463 168.393 109.065C168.702 109.489 169.027 109.847 169.369 110.14L169.516 110.262C169.727 110.441 169.947 110.587 170.175 110.701C170.907 111.124 171.623 111.336 172.323 111.336C172.991 111.336 173.585 111.1 174.105 110.628L174.228 110.164C174.244 110.083 174.252 109.993 174.252 109.896C174.252 109.586 174.089 109.204 173.764 108.748C173.52 108.406 173.104 108.007 172.519 107.552L172.274 107.332L171.591 106.819L170.663 106.16L170.297 105.94C170.069 105.794 169.825 105.647 169.564 105.501C169.369 105.403 168.987 105.159 168.417 104.769L168.295 104.671C167.937 104.427 167.587 104.158 167.245 103.865C166.48 103.198 165.87 102.425 165.414 101.546C164.975 100.667 164.755 99.7148 164.755 98.6895C164.755 97.6315 165.04 96.5898 165.609 95.5645C166.163 94.6042 166.863 93.8555 167.709 93.3184C168.572 92.765 169.589 92.4883 170.761 92.4883C171.916 92.4883 172.942 92.8057 173.837 93.4404C174.439 93.9287 174.887 94.5146 175.18 95.1982C175.424 95.7191 175.546 96.2399 175.546 96.7607C175.546 97.4769 175.31 98.1198 174.838 98.6895C174.333 99.1289 173.902 99.3486 173.544 99.3486C173.528 99.3486 173.422 99.3405 173.227 99.3242C173.031 99.3079 172.681 98.9906 172.177 98.3721C172.112 98.2907 172.079 98.2012 172.079 98.1035V97.7617V97.4199C172.079 97.2734 172.071 97.1921 172.055 97.1758C172.006 97.0781 171.973 97.0212 171.957 97.0049C171.941 96.9723 171.924 96.9479 171.908 96.9316C171.892 96.9154 171.876 96.8991 171.859 96.8828C171.534 96.541 171.233 96.3701 170.956 96.3701C170.386 96.3701 169.939 96.6875 169.613 97.3223C169.418 97.7454 169.32 98.1361 169.32 98.4941C169.32 98.7057 169.369 98.9255 169.467 99.1533C169.63 99.6253 170.077 100.138 170.81 100.691C170.924 100.805 171.249 101.025 171.786 101.351C171.916 101.416 172.038 101.489 172.152 101.57L173.3 102.254C174.293 102.905 174.927 103.344 175.204 103.572C176.034 104.223 176.71 104.866 177.23 105.501C178.256 106.803 178.769 108.203 178.769 109.7C178.769 110.107 178.72 110.514 178.622 110.921C178.183 112.744 177.003 113.989 175.082 114.656C174.219 114.917 173.316 115.047 172.372 115.047ZM186.288 112.972C185.344 112.972 184.4 112.768 183.456 112.361C182.431 111.906 181.576 111.214 180.893 110.286C179.802 108.707 179.257 106.689 179.257 104.231C179.257 102.75 179.436 101.302 179.794 99.8857C180.152 98.5674 180.608 97.4199 181.161 96.4434C181.731 95.4668 182.431 94.5716 183.261 93.7578C184.107 92.9277 184.994 92.2686 185.922 91.7803C186.866 91.292 187.794 90.9909 188.705 90.877H190.072C190.512 90.8932 190.951 90.9665 191.391 91.0967C193.181 91.764 194.328 93.001 194.833 94.8076C194.996 95.361 195.077 95.9714 195.077 96.6387C195.077 97.7617 194.833 98.8441 194.345 99.8857C194.003 100.683 193.474 101.513 192.758 102.376C192.611 102.604 192.27 102.97 191.732 103.475C189.958 105.021 188.201 106.095 186.459 106.697C185.58 106.99 184.774 107.153 184.042 107.186C184.058 107.202 184.075 107.234 184.091 107.283C184.107 107.332 184.123 107.389 184.14 107.454C184.27 107.731 184.441 107.991 184.652 108.235C185.206 108.854 185.8 109.163 186.435 109.163C187.053 109.163 187.655 108.992 188.241 108.65C188.583 108.471 188.909 108.284 189.218 108.089C189.722 107.763 190.015 107.56 190.097 107.479C190.585 107.039 191.09 106.681 191.61 106.404L191.781 106.307C192.042 106.258 192.294 106.233 192.538 106.233C192.88 106.233 193.246 106.307 193.637 106.453C194.044 106.583 194.288 107.023 194.369 107.771C194.271 108.178 194.101 108.561 193.856 108.919C193.629 109.277 193.352 109.603 193.026 109.896C191.513 111.263 189.787 112.231 187.851 112.801C187.33 112.915 186.809 112.972 186.288 112.972ZM183.529 104.329C183.562 104.329 183.586 104.321 183.603 104.305C183.765 104.305 184.115 104.207 184.652 104.012C185.971 103.458 187.338 102.514 188.754 101.18C189.34 100.577 189.804 100.008 190.146 99.4707C190.666 98.5267 190.935 97.6478 190.951 96.834C190.951 96.3457 190.805 95.833 190.512 95.2959C190.365 95.068 190.194 94.9297 189.999 94.8809H190.097H189.633H189.975C189.828 94.832 189.625 94.8076 189.364 94.8076C189.088 94.8402 188.949 94.8646 188.949 94.8809H189.633C189.047 94.8809 188.355 95.1331 187.558 95.6377C186.125 96.6143 185.076 97.9001 184.408 99.4951C183.822 100.879 183.529 102.49 183.529 104.329ZM200.204 112.605C200.025 112.605 199.732 112.557 199.325 112.459C198.658 112.264 198.121 111.255 197.714 109.432L197.323 107.576L196.957 105.696C196.859 105.208 196.713 104.378 196.518 103.206C196.322 102.099 196.16 100.984 196.029 99.8613C195.98 99.2266 195.924 98.5999 195.858 97.9814C195.712 96.2236 195.614 94.6855 195.565 93.3672V92.3174C195.631 91.7965 195.891 91.4141 196.347 91.1699C196.802 90.9095 197.323 90.7793 197.909 90.7793C198.511 90.7793 199.032 90.9095 199.472 91.1699C199.927 91.4141 200.18 91.7803 200.229 92.2686C200.229 92.4476 200.237 92.6104 200.253 92.7568C200.269 92.9033 200.277 93.0579 200.277 93.2207C200.294 93.3835 200.31 93.5462 200.326 93.709L200.399 94.417L200.497 95.7109L200.57 95.6133C201.303 94.6693 202.011 94.0182 202.694 93.6602C203.183 93.3997 203.752 93.2695 204.403 93.2695C205.347 93.2695 206.234 93.5137 207.064 94.002C207.862 94.5879 208.424 95.1006 208.749 95.54C209.075 95.9632 209.392 96.5573 209.701 97.3223L210.116 98.5918L210.434 100.008C210.515 100.447 210.556 100.927 210.556 101.448C210.556 101.806 210.491 102.148 210.36 102.474C210.295 102.734 210.141 102.921 209.896 103.035C209.669 103.149 209.506 103.247 209.408 103.328L209.066 103.597L207.821 103.743C207.691 103.646 207.569 103.572 207.455 103.523L206.82 103.328C206.723 103.312 206.641 103.287 206.576 103.255C206.527 103.222 206.43 103.108 206.283 102.913C205.925 102.392 205.681 101.644 205.551 100.667C205.502 100.179 205.421 99.6986 205.307 99.2266L205.209 98.8115C204.965 97.7699 204.566 97.249 204.013 97.249C203.459 97.249 202.833 97.7536 202.133 98.7627C201.791 99.2998 201.588 99.6986 201.522 99.959C201.295 100.398 201.156 100.716 201.107 100.911L201.059 100.984C201.091 101.115 201.107 101.237 201.107 101.351L201.474 104.231L201.596 105.086L201.718 106.111L201.84 106.941C201.84 106.99 201.848 107.031 201.864 107.063C202.108 108.772 202.23 109.944 202.23 110.579C202.149 111.36 201.848 111.922 201.327 112.264C200.969 112.492 200.595 112.605 200.204 112.605ZM225.277 117.635C225.147 117.635 225.025 117.627 224.911 117.61C224.797 117.594 224.618 117.464 224.374 117.22L224.13 116.854C223.821 116.43 223.52 115.747 223.227 114.803C223.21 114.705 223.186 114.616 223.153 114.534C222.828 113.297 222.576 111.93 222.396 110.433C222.364 110.156 222.348 109.887 222.348 109.627L222.274 109.725C221.33 111.076 220.297 112.068 219.174 112.703H219.149C218.303 113.191 217.408 113.436 216.464 113.436C215.032 113.436 213.827 112.898 212.851 111.824C211.646 110.555 211.044 108.659 211.044 106.136C211.174 103.629 211.898 101.326 213.217 99.2266C213.9 98.1198 214.633 97.2327 215.414 96.5654C215.414 96.484 215.821 96.1748 216.635 95.6377C217.774 94.9541 219.068 94.6042 220.517 94.5879C221.558 94.5879 222.445 94.832 223.178 95.3203C223.34 95.4017 223.544 95.5645 223.788 95.8086C223.788 95.8249 223.796 95.833 223.812 95.833C224.203 96.2562 224.398 96.6794 224.398 97.1025C224.398 97.3141 224.382 97.4525 224.35 97.5176C224.317 97.5827 224.268 97.6559 224.203 97.7373C223.91 98.0791 223.121 98.25 221.835 98.25H221.518C220.688 98.25 219.931 98.3639 219.247 98.5918C218.352 99.0964 217.546 99.8939 216.83 100.984C215.805 102.693 215.259 104.451 215.194 106.258C215.194 107.007 215.308 107.69 215.536 108.309C215.78 109.008 216.155 109.358 216.659 109.358C217.115 109.358 217.799 108.943 218.71 108.113C218.71 108.097 218.718 108.089 218.734 108.089C219.141 107.715 219.743 107.031 220.541 106.038L221.078 105.379C221.225 105.151 221.379 104.939 221.542 104.744C221.705 104.549 221.851 104.345 221.981 104.134L222.299 103.646C222.299 103.385 222.331 103.092 222.396 102.767C222.462 102.295 222.551 101.855 222.665 101.448L222.885 101.033C223.048 100.724 223.422 100.569 224.008 100.569C224.171 100.569 224.382 100.586 224.643 100.618C225.229 100.716 225.521 100.919 225.521 101.229L225.497 101.375C225.497 101.391 225.505 101.408 225.521 101.424C225.554 101.44 225.603 101.481 225.668 101.546C225.733 101.66 225.766 101.847 225.766 102.107L225.741 102.791L225.717 105.257C225.717 106.478 225.749 107.446 225.814 108.162C225.814 108.455 225.863 109.106 225.961 110.115C226.091 111.092 226.189 111.702 226.254 111.946C226.433 113.053 226.653 114.046 226.913 114.925L226.986 115.169C227.1 115.446 227.165 115.722 227.182 115.999C227.182 116.618 226.938 117.065 226.449 117.342C226.091 117.537 225.701 117.635 225.277 117.635ZM221.591 101.131C221.575 101.115 221.55 101.106 221.518 101.106C221.501 101.106 221.485 101.106 221.469 101.106C221.452 101.106 221.444 101.098 221.444 101.082L221.518 101.009C221.534 101.009 221.542 101.017 221.542 101.033C221.558 101.033 221.566 101.049 221.566 101.082C221.583 101.098 221.591 101.115 221.591 101.131ZM235.312 115.047C233.456 115.047 231.82 114.55 230.404 113.558C229.656 113.037 229.053 112.459 228.598 111.824C228.093 111.059 227.825 110.302 227.792 109.554C228.004 108.577 228.435 108.089 229.086 108.089C229.118 108.089 229.314 108.105 229.672 108.138C230.046 108.154 230.6 108.463 231.332 109.065C231.641 109.489 231.967 109.847 232.309 110.14L232.455 110.262C232.667 110.441 232.886 110.587 233.114 110.701C233.847 111.124 234.563 111.336 235.263 111.336C235.93 111.336 236.524 111.1 237.045 110.628L237.167 110.164C237.183 110.083 237.191 109.993 237.191 109.896C237.191 109.586 237.029 109.204 236.703 108.748C236.459 108.406 236.044 108.007 235.458 107.552L235.214 107.332L234.53 106.819L233.603 106.16L233.236 105.94C233.008 105.794 232.764 105.647 232.504 105.501C232.309 105.403 231.926 105.159 231.356 104.769L231.234 104.671C230.876 104.427 230.526 104.158 230.185 103.865C229.42 103.198 228.809 102.425 228.354 101.546C227.914 100.667 227.694 99.7148 227.694 98.6895C227.694 97.6315 227.979 96.5898 228.549 95.5645C229.102 94.6042 229.802 93.8555 230.648 93.3184C231.511 92.765 232.528 92.4883 233.7 92.4883C234.856 92.4883 235.881 92.8057 236.776 93.4404C237.379 93.9287 237.826 94.5146 238.119 95.1982C238.363 95.7191 238.485 96.2399 238.485 96.7607C238.485 97.4769 238.249 98.1198 237.777 98.6895C237.273 99.1289 236.841 99.3486 236.483 99.3486C236.467 99.3486 236.361 99.3405 236.166 99.3242C235.971 99.3079 235.621 98.9906 235.116 98.3721C235.051 98.2907 235.019 98.2012 235.019 98.1035V97.7617V97.4199C235.019 97.2734 235.01 97.1921 234.994 97.1758C234.945 97.0781 234.913 97.0212 234.896 97.0049C234.88 96.9723 234.864 96.9479 234.848 96.9316C234.831 96.9154 234.815 96.8991 234.799 96.8828C234.473 96.541 234.172 96.3701 233.896 96.3701C233.326 96.3701 232.878 96.6875 232.553 97.3223C232.357 97.7454 232.26 98.1361 232.26 98.4941C232.26 98.7057 232.309 98.9255 232.406 99.1533C232.569 99.6253 233.017 100.138 233.749 100.691C233.863 100.805 234.188 101.025 234.726 101.351C234.856 101.416 234.978 101.489 235.092 101.57L236.239 102.254C237.232 102.905 237.867 103.344 238.144 103.572C238.974 104.223 239.649 104.866 240.17 105.501C241.195 106.803 241.708 108.203 241.708 109.7C241.708 110.107 241.659 110.514 241.562 110.921C241.122 112.744 239.942 113.989 238.021 114.656C237.159 114.917 236.256 115.047 235.312 115.047ZM243.124 102.938C242.782 103.133 242.538 103.418 242.392 103.792C242.261 104.15 242.278 104.476 242.44 104.769C242.668 105.159 243.051 105.468 243.588 105.696C244.141 105.908 244.996 106.095 246.151 106.258C247.112 106.372 248.666 106.478 250.814 106.575C252.979 106.673 255.054 106.738 257.04 106.771C259.042 106.803 260.263 106.787 260.702 106.722C261.093 106.608 261.443 106.396 261.752 106.087C262.061 105.761 262.216 105.452 262.216 105.159C262.216 105.013 262.159 104.842 262.045 104.646C261.947 104.451 261.825 104.28 261.679 104.134C261.532 103.987 261.337 103.873 261.093 103.792C260.849 103.711 260.425 103.646 259.823 103.597C259.221 103.548 258.301 103.499 257.064 103.45C255.893 103.385 254.542 103.304 253.012 103.206C251.482 103.108 250.123 103.011 248.935 102.913C247.714 102.815 246.754 102.742 246.054 102.693C245.354 102.645 244.825 102.62 244.467 102.62C244.109 102.62 243.84 102.645 243.661 102.693C243.482 102.742 243.303 102.824 243.124 102.938ZM269.442 112.093C268.466 112.093 267.595 111.808 266.83 111.238C265.886 110.538 265.154 109.358 264.633 107.698C264.372 106.966 264.177 106.144 264.047 105.232C264.031 105.07 264.006 104.915 263.974 104.769L263.852 103.816C263.852 103.621 263.835 103.426 263.803 103.23C263.721 102.531 263.681 101.399 263.681 99.8369L263.729 99.0068C263.746 98.4535 263.786 97.8919 263.852 97.3223C263.917 96.7526 263.965 96.4189 263.998 96.3213C263.77 96.3213 263.314 96.4271 262.631 96.6387L262.118 96.7607L261.801 96.7852C261.638 96.6875 261.459 96.598 261.264 96.5166C260.515 96.2562 260.141 95.9388 260.141 95.5645C260.141 95.3203 260.417 95.0029 260.971 94.6123L261.02 94.5879C261.719 94.1647 262.59 93.8066 263.632 93.5137C264.153 93.3835 264.47 93.3184 264.584 93.3184L264.608 93.1719L264.755 92.6592C264.869 91.9919 265.056 91.3896 265.316 90.8525C265.756 89.9899 266.277 89.5586 266.879 89.5586C267.676 89.5749 268.376 90.1283 268.979 91.2188L268.856 91.8047L268.686 92.6104L268.612 92.9033C268.612 92.9359 268.604 92.9603 268.588 92.9766L268.832 93.001C269.353 93.001 269.784 93.0091 270.126 93.0254C270.468 93.0417 270.801 93.0742 271.127 93.123C271.811 93.1556 272.38 93.2451 272.836 93.3916C273.145 93.6195 273.3 93.9043 273.3 94.2461C273.3 94.3112 273.275 94.4821 273.227 94.7588C273.178 95.0192 272.974 95.3366 272.616 95.7109C272.258 96.0853 271.851 96.305 271.396 96.3701L270.663 96.2969C269.866 96.1992 269.288 96.1423 268.93 96.126L268.148 96.1016L268.124 96.2236C268.091 96.6143 268.051 96.9967 268.002 97.3711C268.002 97.599 267.986 97.7943 267.953 97.957C267.872 99.015 267.831 99.7311 267.831 100.105L267.782 100.691C267.782 102.124 267.807 103.076 267.855 103.548C267.855 103.743 267.888 104.166 267.953 104.817C268.018 105.175 268.075 105.525 268.124 105.867C268.189 106.209 268.262 106.535 268.344 106.844C268.458 107.348 268.637 107.828 268.881 108.284C269.125 108.724 269.418 108.943 269.76 108.943C270.053 108.943 270.37 108.65 270.712 108.064C270.875 107.804 270.972 107.625 271.005 107.527C271.33 106.714 271.672 106.307 272.03 106.307C272.437 106.307 272.689 107.039 272.787 108.504C272.771 108.536 272.763 108.577 272.763 108.626V108.772C272.763 109.31 272.559 109.936 272.152 110.652C271.827 111.141 271.444 111.507 271.005 111.751C270.565 111.979 270.045 112.093 269.442 112.093ZM268.588 96.1016C268.458 96.1016 268.336 96.0934 268.222 96.0771H268.148V96.1016H268.588ZM281.771 113.313C280.225 113.313 278.817 112.858 277.548 111.946C276.767 111.295 276.099 110.514 275.546 109.603L275.326 109.188C274.691 108.081 274.228 106.681 273.935 104.988C273.869 104.386 273.821 103.792 273.788 103.206C273.788 101.92 273.894 100.748 274.105 99.6904C274.35 98.3232 274.838 96.8421 275.57 95.2471C276.189 94.0101 276.734 93.1719 277.206 92.7324C277.32 92.651 277.475 92.6104 277.67 92.6104C278.272 92.6104 278.939 92.887 279.672 93.4404C280.421 93.9775 280.795 94.5146 280.795 95.0518C280.795 95.3285 280.673 95.6051 280.429 95.8818C280.119 96.5817 279.859 97.363 279.647 98.2256C279.403 99.2347 279.257 100.228 279.208 101.204L279.184 102.034C279.184 102.913 279.257 103.678 279.403 104.329C279.517 105.045 279.615 105.444 279.696 105.525C279.973 106.339 280.242 106.982 280.502 107.454C281.072 108.366 281.706 108.821 282.406 108.821C283.025 108.821 283.798 108.398 284.726 107.552C285.181 107.063 285.539 106.567 285.8 106.062C286.125 105.509 286.369 104.915 286.532 104.28C286.793 103.434 286.923 102.579 286.923 101.717C286.923 100.968 286.866 100.195 286.752 99.3975L286.728 99.3242C286.614 98.6406 286.435 97.9245 286.19 97.1758C285.914 96.2969 285.678 95.654 285.482 95.2471L285.238 94.7344C285.076 94.4414 284.994 94.1973 284.994 94.002C284.994 93.4811 285.214 93.0498 285.653 92.708C286.093 92.3499 286.63 92.1709 287.265 92.1709C288.404 92.1709 289.039 92.7568 289.169 93.9287L289.584 95.1006L289.95 96.3457C290.341 97.9733 290.569 99.2184 290.634 100.081L290.707 101.79C290.707 102.848 290.544 103.971 290.219 105.159L289.828 106.355L289.706 106.648C289.299 107.69 288.738 108.683 288.021 109.627C286.866 111.157 285.588 112.215 284.188 112.801C283.407 113.143 282.602 113.313 281.771 113.313ZM311.85 115.657H311.728C310.604 115.657 309.913 114.046 309.652 110.823C308.562 111.425 307.366 111.727 306.063 111.727C303.964 111.727 302.304 110.978 301.083 109.48C300.351 108.585 299.887 107.56 299.691 106.404C299.577 105.818 299.521 105.127 299.521 104.329C299.521 102.783 299.813 101.237 300.399 99.6904C300.871 98.6162 301.417 97.721 302.035 97.0049C303.402 95.5075 305.079 94.7588 307.064 94.7588C307.39 94.7588 307.715 94.7751 308.041 94.8076L309.188 95.0762C309.188 94.3763 309.197 93.8066 309.213 93.3672C309.245 92.9277 309.262 92.5046 309.262 92.0977C309.294 91.0234 309.384 89.7051 309.53 88.1426C309.628 87.0358 309.783 85.9697 309.994 84.9443C310.141 84.3096 310.271 83.9027 310.385 83.7236C310.417 83.512 310.507 83.3411 310.653 83.2109C310.963 82.9342 311.345 82.7959 311.801 82.7959C312.24 82.7959 312.606 82.9668 312.899 83.3086C313.013 83.4876 313.087 83.6829 313.119 83.8945L313.144 84.041C313.225 84.3991 313.282 84.7653 313.314 85.1396C313.363 85.7256 313.388 86.4906 313.388 87.4346L313.363 88.3135C313.331 89.4528 313.314 90.5596 313.314 91.6338C313.298 92.0407 313.29 92.6185 313.29 93.3672V99.3486C313.29 100.081 313.298 100.683 313.314 101.155V104.939L313.412 109.993L313.461 111.604C313.461 114.192 312.924 115.543 311.85 115.657ZM306.332 107.576C306.397 107.576 306.454 107.568 306.503 107.552C306.649 107.552 306.747 107.544 306.796 107.527H306.674C307.081 107.495 307.593 107.348 308.212 107.088C308.31 107.039 308.415 106.998 308.529 106.966C308.985 106.754 309.245 106.616 309.311 106.551H309.335C309.319 106.03 309.294 105.517 309.262 105.013C309.197 103.727 309.164 101.977 309.164 99.7637V99.2998C309.132 99.2998 309.099 99.2835 309.066 99.251C308.301 98.8115 307.61 98.5918 306.991 98.5918C306.356 98.5918 305.795 98.8441 305.307 99.3486C304.867 99.7881 304.517 100.325 304.257 100.96C304.029 101.497 303.915 101.871 303.915 102.083C303.752 102.734 303.671 103.401 303.671 104.085C303.671 104.703 303.744 105.241 303.891 105.696C304.249 106.771 304.802 107.381 305.551 107.527H306.674L306.576 107.552L306.161 107.576L305.648 107.552C305.762 107.568 305.933 107.576 306.161 107.576H306.332ZM315.512 81.7217C315.219 83.4469 315.023 84.7734 314.926 85.7012C314.828 86.6289 314.804 87.4183 314.853 88.0693C314.901 88.7041 314.999 89.4609 315.146 90.3398C315.178 90.5189 315.211 90.7061 315.243 90.9014C315.422 91.1455 315.65 91.3571 315.927 91.5361C316.203 91.6989 316.448 91.7803 316.659 91.7803C317.099 91.7803 317.587 91.528 318.124 91.0234C318.661 90.5026 319.052 89.9167 319.296 89.2656C319.54 87.8822 319.589 86.3604 319.442 84.7002C319.296 83.04 318.954 81.6729 318.417 80.5986C318.01 80.3219 317.514 80.2975 316.928 80.5254C316.358 80.7533 315.886 81.152 315.512 81.7217ZM334.75 117.635C334.62 117.635 334.498 117.627 334.384 117.61C334.27 117.594 334.091 117.464 333.847 117.22L333.603 116.854C333.293 116.43 332.992 115.747 332.699 114.803C332.683 114.705 332.659 114.616 332.626 114.534C332.3 113.297 332.048 111.93 331.869 110.433C331.837 110.156 331.82 109.887 331.82 109.627L331.747 109.725C330.803 111.076 329.77 112.068 328.646 112.703H328.622C327.776 113.191 326.881 113.436 325.937 113.436C324.504 113.436 323.3 112.898 322.323 111.824C321.119 110.555 320.517 108.659 320.517 106.136C320.647 103.629 321.371 101.326 322.689 99.2266C323.373 98.1198 324.105 97.2327 324.887 96.5654C324.887 96.484 325.294 96.1748 326.107 95.6377C327.247 94.9541 328.541 94.6042 329.989 94.5879C331.031 94.5879 331.918 94.832 332.65 95.3203C332.813 95.4017 333.017 95.5645 333.261 95.8086C333.261 95.8249 333.269 95.833 333.285 95.833C333.676 96.2562 333.871 96.6794 333.871 97.1025C333.871 97.3141 333.855 97.4525 333.822 97.5176C333.79 97.5827 333.741 97.6559 333.676 97.7373C333.383 98.0791 332.593 98.25 331.308 98.25H330.99C330.16 98.25 329.403 98.3639 328.72 98.5918C327.825 99.0964 327.019 99.8939 326.303 100.984C325.277 102.693 324.732 104.451 324.667 106.258C324.667 107.007 324.781 107.69 325.009 108.309C325.253 109.008 325.627 109.358 326.132 109.358C326.588 109.358 327.271 108.943 328.183 108.113C328.183 108.097 328.191 108.089 328.207 108.089C328.614 107.715 329.216 107.031 330.014 106.038L330.551 105.379C330.697 105.151 330.852 104.939 331.015 104.744C331.177 104.549 331.324 104.345 331.454 104.134L331.771 103.646C331.771 103.385 331.804 103.092 331.869 102.767C331.934 102.295 332.024 101.855 332.138 101.448L332.357 101.033C332.52 100.724 332.895 100.569 333.48 100.569C333.643 100.569 333.855 100.586 334.115 100.618C334.701 100.716 334.994 100.919 334.994 101.229L334.97 101.375C334.97 101.391 334.978 101.408 334.994 101.424C335.027 101.44 335.076 101.481 335.141 101.546C335.206 101.66 335.238 101.847 335.238 102.107L335.214 102.791L335.189 105.257C335.189 106.478 335.222 107.446 335.287 108.162C335.287 108.455 335.336 109.106 335.434 110.115C335.564 111.092 335.661 111.702 335.727 111.946C335.906 113.053 336.125 114.046 336.386 114.925L336.459 115.169C336.573 115.446 336.638 115.722 336.654 115.999C336.654 116.618 336.41 117.065 335.922 117.342C335.564 117.537 335.173 117.635 334.75 117.635ZM331.063 101.131C331.047 101.115 331.023 101.106 330.99 101.106C330.974 101.106 330.958 101.106 330.941 101.106C330.925 101.106 330.917 101.098 330.917 101.082L330.99 101.009C331.007 101.009 331.015 101.017 331.015 101.033C331.031 101.033 331.039 101.049 331.039 101.082C331.055 101.098 331.063 101.115 331.063 101.131ZM345.15 113.313C343.604 113.313 342.196 112.858 340.927 111.946C340.146 111.295 339.478 110.514 338.925 109.603L338.705 109.188C338.07 108.081 337.606 106.681 337.313 104.988C337.248 104.386 337.2 103.792 337.167 103.206C337.167 101.92 337.273 100.748 337.484 99.6904C337.729 98.3232 338.217 96.8421 338.949 95.2471C339.568 94.0101 340.113 93.1719 340.585 92.7324C340.699 92.651 340.854 92.6104 341.049 92.6104C341.651 92.6104 342.318 92.887 343.051 93.4404C343.799 93.9775 344.174 94.5146 344.174 95.0518C344.174 95.3285 344.052 95.6051 343.808 95.8818C343.498 96.5817 343.238 97.363 343.026 98.2256C342.782 99.2347 342.636 100.228 342.587 101.204L342.562 102.034C342.562 102.913 342.636 103.678 342.782 104.329C342.896 105.045 342.994 105.444 343.075 105.525C343.352 106.339 343.62 106.982 343.881 107.454C344.451 108.366 345.085 108.821 345.785 108.821C346.404 108.821 347.177 108.398 348.104 107.552C348.56 107.063 348.918 106.567 349.179 106.062C349.504 105.509 349.748 104.915 349.911 104.28C350.172 103.434 350.302 102.579 350.302 101.717C350.302 100.968 350.245 100.195 350.131 99.3975L350.106 99.3242C349.993 98.6406 349.813 97.9245 349.569 97.1758C349.293 96.2969 349.057 95.654 348.861 95.2471L348.617 94.7344C348.454 94.4414 348.373 94.1973 348.373 94.002C348.373 93.4811 348.593 93.0498 349.032 92.708C349.472 92.3499 350.009 92.1709 350.644 92.1709C351.783 92.1709 352.418 92.7568 352.548 93.9287L352.963 95.1006L353.329 96.3457C353.72 97.9733 353.948 99.2184 354.013 100.081L354.086 101.79C354.086 102.848 353.923 103.971 353.598 105.159L353.207 106.355L353.085 106.648C352.678 107.69 352.117 108.683 351.4 109.627C350.245 111.157 348.967 112.215 347.567 112.801C346.786 113.143 345.98 113.313 345.15 113.313ZM361.337 112.093C360.36 112.093 359.49 111.808 358.725 111.238C357.781 110.538 357.048 109.358 356.527 107.698C356.267 106.966 356.072 106.144 355.941 105.232C355.925 105.07 355.901 104.915 355.868 104.769L355.746 103.816C355.746 103.621 355.73 103.426 355.697 103.23C355.616 102.531 355.575 101.399 355.575 99.8369L355.624 99.0068C355.64 98.4535 355.681 97.8919 355.746 97.3223C355.811 96.7526 355.86 96.4189 355.893 96.3213C355.665 96.3213 355.209 96.4271 354.525 96.6387L354.013 96.7607L353.695 96.7852C353.533 96.6875 353.354 96.598 353.158 96.5166C352.41 96.2562 352.035 95.9388 352.035 95.5645C352.035 95.3203 352.312 95.0029 352.865 94.6123L352.914 94.5879C353.614 94.1647 354.485 93.8066 355.526 93.5137C356.047 93.3835 356.365 93.3184 356.479 93.3184L356.503 93.1719L356.649 92.6592C356.763 91.9919 356.951 91.3896 357.211 90.8525C357.65 89.9899 358.171 89.5586 358.773 89.5586C359.571 89.5749 360.271 90.1283 360.873 91.2188L360.751 91.8047L360.58 92.6104L360.507 92.9033C360.507 92.9359 360.499 92.9603 360.482 92.9766L360.727 93.001C361.247 93.001 361.679 93.0091 362.021 93.0254C362.362 93.0417 362.696 93.0742 363.021 93.123C363.705 93.1556 364.275 93.2451 364.73 93.3916C365.04 93.6195 365.194 93.9043 365.194 94.2461C365.194 94.3112 365.17 94.4821 365.121 94.7588C365.072 95.0192 364.869 95.3366 364.511 95.7109C364.153 96.0853 363.746 96.305 363.29 96.3701L362.558 96.2969C361.76 96.1992 361.182 96.1423 360.824 96.126L360.043 96.1016L360.019 96.2236C359.986 96.6143 359.945 96.9967 359.896 97.3711C359.896 97.599 359.88 97.7943 359.848 97.957C359.766 99.015 359.726 99.7311 359.726 100.105L359.677 100.691C359.677 102.124 359.701 103.076 359.75 103.548C359.75 103.743 359.783 104.166 359.848 104.817C359.913 105.175 359.97 105.525 360.019 105.867C360.084 106.209 360.157 106.535 360.238 106.844C360.352 107.348 360.531 107.828 360.775 108.284C361.02 108.724 361.312 108.943 361.654 108.943C361.947 108.943 362.265 108.65 362.606 108.064C362.769 107.804 362.867 107.625 362.899 107.527C363.225 106.714 363.567 106.307 363.925 106.307C364.332 106.307 364.584 107.039 364.682 108.504C364.665 108.536 364.657 108.577 364.657 108.626V108.772C364.657 109.31 364.454 109.936 364.047 110.652C363.721 111.141 363.339 111.507 362.899 111.751C362.46 111.979 361.939 112.093 361.337 112.093ZM360.482 96.1016C360.352 96.1016 360.23 96.0934 360.116 96.0771H360.043V96.1016H360.482ZM370.321 112.605C370.142 112.605 369.849 112.557 369.442 112.459C368.775 112.264 368.238 111.255 367.831 109.432L367.44 107.576L367.074 105.696C366.977 105.208 366.83 104.378 366.635 103.206C366.439 102.099 366.277 100.984 366.146 99.8613C366.098 99.2266 366.041 98.5999 365.976 97.9814C365.829 96.2236 365.731 94.6855 365.683 93.3672V92.3174C365.748 91.7965 366.008 91.4141 366.464 91.1699C366.92 90.9095 367.44 90.7793 368.026 90.7793C368.629 90.7793 369.149 90.9095 369.589 91.1699C370.045 91.4141 370.297 91.7803 370.346 92.2686C370.346 92.4476 370.354 92.6104 370.37 92.7568C370.386 92.9033 370.395 93.0579 370.395 93.2207C370.411 93.3835 370.427 93.5462 370.443 93.709L370.517 94.417L370.614 95.7109L370.688 95.6133C371.42 94.6693 372.128 94.0182 372.812 93.6602C373.3 93.3997 373.869 93.2695 374.521 93.2695C375.465 93.2695 376.352 93.5137 377.182 94.002C377.979 94.5879 378.541 95.1006 378.866 95.54C379.192 95.9632 379.509 96.5573 379.818 97.3223L380.233 98.5918L380.551 100.008C380.632 100.447 380.673 100.927 380.673 101.448C380.673 101.806 380.608 102.148 380.478 102.474C380.412 102.734 380.258 102.921 380.014 103.035C379.786 103.149 379.623 103.247 379.525 103.328L379.184 103.597L377.938 103.743C377.808 103.646 377.686 103.572 377.572 103.523L376.938 103.328C376.84 103.312 376.758 103.287 376.693 103.255C376.645 103.222 376.547 103.108 376.4 102.913C376.042 102.392 375.798 101.644 375.668 100.667C375.619 100.179 375.538 99.6986 375.424 99.2266L375.326 98.8115C375.082 97.7699 374.683 97.249 374.13 97.249C373.576 97.249 372.95 97.7536 372.25 98.7627C371.908 99.2998 371.705 99.6986 371.64 99.959C371.412 100.398 371.273 100.716 371.225 100.911L371.176 100.984C371.208 101.115 371.225 101.237 371.225 101.351L371.591 104.231L371.713 105.086L371.835 106.111L371.957 106.941C371.957 106.99 371.965 107.031 371.981 107.063C372.226 108.772 372.348 109.944 372.348 110.579C372.266 111.36 371.965 111.922 371.444 112.264C371.086 112.492 370.712 112.605 370.321 112.605ZM388.192 112.972C387.248 112.972 386.304 112.768 385.36 112.361C384.335 111.906 383.48 111.214 382.797 110.286C381.706 108.707 381.161 106.689 381.161 104.231C381.161 102.75 381.34 101.302 381.698 99.8857C382.056 98.5674 382.512 97.4199 383.065 96.4434C383.635 95.4668 384.335 94.5716 385.165 93.7578C386.011 92.9277 386.898 92.2686 387.826 91.7803C388.77 91.292 389.698 90.9909 390.609 90.877H391.977C392.416 90.8932 392.855 90.9665 393.295 91.0967C395.085 91.764 396.233 93.001 396.737 94.8076C396.9 95.361 396.981 95.9714 396.981 96.6387C396.981 97.7617 396.737 98.8441 396.249 99.8857C395.907 100.683 395.378 101.513 394.662 102.376C394.516 102.604 394.174 102.97 393.637 103.475C391.863 105.021 390.105 106.095 388.363 106.697C387.484 106.99 386.679 107.153 385.946 107.186C385.963 107.202 385.979 107.234 385.995 107.283C386.011 107.332 386.028 107.389 386.044 107.454C386.174 107.731 386.345 107.991 386.557 108.235C387.11 108.854 387.704 109.163 388.339 109.163C388.957 109.163 389.56 108.992 390.146 108.65C390.487 108.471 390.813 108.284 391.122 108.089C391.627 107.763 391.92 107.56 392.001 107.479C392.489 107.039 392.994 106.681 393.515 106.404L393.686 106.307C393.946 106.258 394.198 106.233 394.442 106.233C394.784 106.233 395.15 106.307 395.541 106.453C395.948 106.583 396.192 107.023 396.273 107.771C396.176 108.178 396.005 108.561 395.761 108.919C395.533 109.277 395.256 109.603 394.931 109.896C393.417 111.263 391.692 112.231 389.755 112.801C389.234 112.915 388.713 112.972 388.192 112.972ZM385.434 104.329C385.466 104.329 385.491 104.321 385.507 104.305C385.67 104.305 386.02 104.207 386.557 104.012C387.875 103.458 389.242 102.514 390.658 101.18C391.244 100.577 391.708 100.008 392.05 99.4707C392.571 98.5267 392.839 97.6478 392.855 96.834C392.855 96.3457 392.709 95.833 392.416 95.2959C392.27 95.068 392.099 94.9297 391.903 94.8809H392.001H391.537H391.879C391.732 94.832 391.529 94.8076 391.269 94.8076C390.992 94.8402 390.854 94.8646 390.854 94.8809H391.537C390.951 94.8809 390.259 95.1331 389.462 95.6377C388.03 96.6143 386.98 97.9001 386.312 99.4951C385.727 100.879 385.434 102.49 385.434 104.329ZM405.087 115.047C403.231 115.047 401.596 114.55 400.18 113.558C399.431 113.037 398.829 112.459 398.373 111.824C397.868 111.059 397.6 110.302 397.567 109.554C397.779 108.577 398.21 108.089 398.861 108.089C398.894 108.089 399.089 108.105 399.447 108.138C399.822 108.154 400.375 108.463 401.107 109.065C401.417 109.489 401.742 109.847 402.084 110.14L402.23 110.262C402.442 110.441 402.662 110.587 402.89 110.701C403.622 111.124 404.338 111.336 405.038 111.336C405.705 111.336 406.299 111.1 406.82 110.628L406.942 110.164C406.959 110.083 406.967 109.993 406.967 109.896C406.967 109.586 406.804 109.204 406.479 108.748C406.234 108.406 405.819 108.007 405.233 107.552L404.989 107.332L404.306 106.819L403.378 106.16L403.012 105.94C402.784 105.794 402.54 105.647 402.279 105.501C402.084 105.403 401.701 105.159 401.132 104.769L401.01 104.671C400.652 104.427 400.302 104.158 399.96 103.865C399.195 103.198 398.585 102.425 398.129 101.546C397.689 100.667 397.47 99.7148 397.47 98.6895C397.47 97.6315 397.755 96.5898 398.324 95.5645C398.878 94.6042 399.577 93.8555 400.424 93.3184C401.286 92.765 402.304 92.4883 403.476 92.4883C404.631 92.4883 405.657 92.8057 406.552 93.4404C407.154 93.9287 407.602 94.5146 407.895 95.1982C408.139 95.7191 408.261 96.2399 408.261 96.7607C408.261 97.4769 408.025 98.1198 407.553 98.6895C407.048 99.1289 406.617 99.3486 406.259 99.3486C406.243 99.3486 406.137 99.3405 405.941 99.3242C405.746 99.3079 405.396 98.9906 404.892 98.3721C404.826 98.2907 404.794 98.2012 404.794 98.1035V97.7617V97.4199C404.794 97.2734 404.786 97.1921 404.77 97.1758C404.721 97.0781 404.688 97.0212 404.672 97.0049C404.656 96.9723 404.639 96.9479 404.623 96.9316C404.607 96.9154 404.59 96.8991 404.574 96.8828C404.249 96.541 403.948 96.3701 403.671 96.3701C403.101 96.3701 402.654 96.6875 402.328 97.3223C402.133 97.7454 402.035 98.1361 402.035 98.4941C402.035 98.7057 402.084 98.9255 402.182 99.1533C402.344 99.6253 402.792 100.138 403.524 100.691C403.638 100.805 403.964 101.025 404.501 101.351C404.631 101.416 404.753 101.489 404.867 101.57L406.015 102.254C407.007 102.905 407.642 103.344 407.919 103.572C408.749 104.223 409.424 104.866 409.945 105.501C410.971 106.803 411.483 108.203 411.483 109.7C411.483 110.107 411.435 110.514 411.337 110.921C410.897 112.744 409.717 113.989 407.797 114.656C406.934 114.917 406.031 115.047 405.087 115.047ZM422.958 115.633C422.746 115.633 422.478 115.568 422.152 115.438C421.632 115.258 421.168 113.956 420.761 111.531C420.598 110.49 420.468 109.35 420.37 108.113C420.305 107.251 420.272 106.38 420.272 105.501C420.272 104.362 420.313 103.239 420.395 102.132C420.508 100.651 420.647 99.4219 420.81 98.4453C420.972 97.3711 421.233 96.3376 421.591 95.3447C422.356 93.2288 423.487 91.8698 424.984 91.2676C425.505 91.0885 425.985 90.999 426.425 90.999C427.58 90.999 428.638 91.5361 429.599 92.6104C430.51 93.6357 431.267 95.2796 431.869 97.542L431.894 97.6152C432.154 96.8991 432.512 96.1585 432.968 95.3936C433.814 94.0426 434.864 93.0335 436.117 92.3662C436.801 92.0407 437.46 91.8779 438.095 91.8779C438.567 91.8779 439.031 91.9756 439.486 92.1709C440.17 92.5127 440.699 92.9847 441.073 93.5869C441.448 94.1891 441.716 94.8564 441.879 95.5889C441.993 96.0446 442.09 96.8014 442.172 97.8594L442.196 99.1289V100.496C442.196 100.952 442.172 101.937 442.123 103.45C442.107 103.564 442.099 103.686 442.099 103.816L441.977 106.551L441.952 107.771C441.952 109.367 441.863 110.481 441.684 111.116C441.342 112.109 440.813 112.605 440.097 112.605C439.413 112.605 438.909 112.117 438.583 111.141C438.453 110.652 438.38 110.156 438.363 109.651L438.339 107.796L438.363 106.478C438.363 105.875 438.38 105.346 438.412 104.891L438.461 103.328C438.51 102.84 438.534 101.896 438.534 100.496C438.518 97.6315 438.241 96.1992 437.704 96.1992C437.379 96.1992 436.947 96.8258 436.41 98.0791C436.117 98.6488 435.865 99.2266 435.653 99.8125L435.531 100.154C435.271 101.033 435.035 101.904 434.823 102.767C434.742 103.076 434.595 103.808 434.384 104.964C434.27 105.534 434.164 106.111 434.066 106.697C434.018 107.055 433.961 107.405 433.896 107.747C433.863 107.877 433.814 108.17 433.749 108.626C433.716 108.838 433.66 109.049 433.578 109.261C433.48 109.635 433.253 109.904 432.895 110.066L431.479 110.286C430.909 110.237 430.51 109.725 430.282 108.748C429.908 105.786 429.257 102.807 428.329 99.8125L428.231 99.4463C427.971 98.5186 427.735 97.7617 427.523 97.1758C427.149 96.4271 426.824 96.0527 426.547 96.0527C426.14 96.0527 425.798 96.8828 425.521 98.543C425.18 100.236 424.976 102.14 424.911 104.256L424.887 104.744C424.887 105.2 424.895 105.647 424.911 106.087C424.976 108.219 425.041 109.464 425.106 109.822C425.237 111.271 425.359 112.418 425.473 113.265L425.595 113.948C425.562 114.127 425.367 114.38 425.009 114.705C424.667 115.014 424.244 115.267 423.739 115.462C423.463 115.576 423.202 115.633 422.958 115.633ZM449.813 113.069C448.511 113.069 447.299 112.662 446.176 111.849C445.329 111.198 444.67 110.368 444.198 109.358C443.189 107.454 442.685 105.363 442.685 103.084C442.685 101.749 442.872 100.423 443.246 99.1045C443.279 99.0394 443.303 98.9661 443.319 98.8848C443.45 98.4128 443.612 97.9489 443.808 97.4932C445.093 95.0518 446.868 93.8311 449.13 93.8311C450.058 93.8311 450.969 94.0508 451.864 94.4902C452.759 94.9297 453.541 95.5726 454.208 96.4189C455.412 97.9489 456.177 99.7148 456.503 101.717C456.584 102.238 456.625 102.84 456.625 103.523C456.625 103.914 456.601 104.313 456.552 104.72C456.454 105.778 456.251 106.746 455.941 107.625C455.535 108.65 455.128 109.48 454.721 110.115C454.216 110.896 453.59 111.564 452.841 112.117C451.864 112.752 450.855 113.069 449.813 113.069ZM449.716 108.992C449.797 108.992 449.976 108.935 450.253 108.821C450.53 108.707 450.92 108.195 451.425 107.283C451.588 107.023 451.726 106.746 451.84 106.453V106.404C452.133 105.639 452.32 104.964 452.401 104.378L452.426 104.305C452.475 104.028 452.499 103.759 452.499 103.499C452.499 102.994 452.466 102.555 452.401 102.181C452.304 101.513 452.084 100.846 451.742 100.179C451.417 99.4951 451.075 98.9661 450.717 98.5918C450.001 97.9733 449.439 97.6641 449.032 97.6641C448.593 97.6641 448.194 98.0628 447.836 98.8604C447.494 99.6579 447.258 100.512 447.128 101.424C447.03 101.993 446.981 102.571 446.981 103.157C446.981 104.752 447.38 106.282 448.178 107.747C448.78 108.577 449.293 108.992 449.716 108.992ZM467.758 125.911C466.716 125.911 465.642 125.651 464.535 125.13C464.031 124.869 463.567 124.544 463.144 124.153C463.111 124.104 463.07 124.064 463.021 124.031C462.81 123.803 462.615 123.559 462.436 123.299C461.768 122.306 461.435 121.37 461.435 120.491C461.435 120.019 461.516 119.555 461.679 119.1C462.151 118.383 462.737 118.025 463.437 118.025C463.485 118.025 463.713 118.042 464.12 118.074C464.527 118.107 464.958 118.546 465.414 119.393C465.447 119.523 465.471 119.661 465.487 119.808V120.149C465.927 121.468 466.61 122.127 467.538 122.127C467.587 122.127 467.872 122.103 468.393 122.054C468.93 122.021 469.288 121.191 469.467 119.563L469.491 118.953C469.491 117.911 469.451 117.033 469.369 116.316C469.369 116.186 469.337 115.73 469.271 114.949L468.93 111.946L468.856 111.458C468.466 112.076 467.961 112.597 467.343 113.021C466.513 113.606 465.618 113.899 464.657 113.899C463.371 113.899 462.224 113.558 461.215 112.874C460.417 112.304 459.75 111.588 459.213 110.726L459.14 110.628C458.472 109.489 457.935 108.073 457.528 106.38C457.268 105.208 457.138 104.02 457.138 102.815L457.162 101.058C457.227 99.9671 457.357 98.9092 457.553 97.8838C458.188 95.4587 459.221 94.2461 460.653 94.2461C461.109 94.2461 461.524 94.4251 461.898 94.7832C462.338 95.1901 462.558 95.7679 462.558 96.5166C462.558 96.8584 462.509 97.2327 462.411 97.6396C462.281 98.0303 462.143 98.7627 461.996 99.8369C461.915 100.879 461.874 101.684 461.874 102.254C461.874 102.71 461.915 103.369 461.996 104.231C462.029 104.687 462.094 105.143 462.191 105.599C462.322 106.266 462.566 107.039 462.924 107.918L462.997 108.04C463.55 109.293 464.169 109.92 464.853 109.92C465.357 109.92 466.016 109.432 466.83 108.455L467.27 107.918C467.497 107.658 467.709 107.397 467.904 107.137L468.246 106.673V106.648C468.181 105.9 468.035 104.695 467.807 103.035C467.693 102.205 467.579 101.106 467.465 99.7393L467.343 98.2744L467.294 97.9082L467.221 96.248C467.221 96.1341 467.213 96.0283 467.196 95.9307C467.229 95.2145 467.465 94.6774 467.904 94.3193C468.344 93.945 468.889 93.7578 469.54 93.7578C470.028 93.7578 470.476 93.9206 470.883 94.2461C471.306 94.5553 471.526 95.0436 471.542 95.7109C471.575 95.9062 471.599 96.0934 471.615 96.2725C471.632 96.4352 471.648 96.5898 471.664 96.7363L471.762 97.542L471.786 97.9814L472.104 100.936C472.185 101.489 472.25 102.059 472.299 102.645C472.364 103.214 472.437 103.792 472.519 104.378L472.543 104.695C472.868 107.218 473.08 108.903 473.178 109.749L473.715 114.607L473.837 116.023C473.902 116.723 473.935 117.57 473.935 118.562C473.935 119.93 473.788 121.053 473.495 121.932C473.267 122.68 472.966 123.315 472.592 123.836C472.022 124.601 471.151 125.179 469.979 125.569C469.589 125.716 469.068 125.822 468.417 125.887L467.758 125.911ZM481.454 112.972C480.51 112.972 479.566 112.768 478.622 112.361C477.597 111.906 476.742 111.214 476.059 110.286C474.968 108.707 474.423 106.689 474.423 104.231C474.423 102.75 474.602 101.302 474.96 99.8857C475.318 98.5674 475.774 97.4199 476.327 96.4434C476.897 95.4668 477.597 94.5716 478.427 93.7578C479.273 92.9277 480.16 92.2686 481.088 91.7803C482.032 91.292 482.96 90.9909 483.871 90.877H485.238C485.678 90.8932 486.117 90.9665 486.557 91.0967C488.347 91.764 489.494 93.001 489.999 94.8076C490.162 95.361 490.243 95.9714 490.243 96.6387C490.243 97.7617 489.999 98.8441 489.511 99.8857C489.169 100.683 488.64 101.513 487.924 102.376C487.777 102.604 487.436 102.97 486.898 103.475C485.124 105.021 483.367 106.095 481.625 106.697C480.746 106.99 479.94 107.153 479.208 107.186C479.224 107.202 479.241 107.234 479.257 107.283C479.273 107.332 479.289 107.389 479.306 107.454C479.436 107.731 479.607 107.991 479.818 108.235C480.372 108.854 480.966 109.163 481.601 109.163C482.219 109.163 482.821 108.992 483.407 108.65C483.749 108.471 484.075 108.284 484.384 108.089C484.888 107.763 485.181 107.56 485.263 107.479C485.751 107.039 486.256 106.681 486.776 106.404L486.947 106.307C487.208 106.258 487.46 106.233 487.704 106.233C488.046 106.233 488.412 106.307 488.803 106.453C489.21 106.583 489.454 107.023 489.535 107.771C489.438 108.178 489.267 108.561 489.022 108.919C488.795 109.277 488.518 109.603 488.192 109.896C486.679 111.263 484.953 112.231 483.017 112.801C482.496 112.915 481.975 112.972 481.454 112.972ZM478.695 104.329C478.728 104.329 478.752 104.321 478.769 104.305C478.931 104.305 479.281 104.207 479.818 104.012C481.137 103.458 482.504 102.514 483.92 101.18C484.506 100.577 484.97 100.008 485.312 99.4707C485.832 98.5267 486.101 97.6478 486.117 96.834C486.117 96.3457 485.971 95.833 485.678 95.2959C485.531 95.068 485.36 94.9297 485.165 94.8809H485.263H484.799H485.141C484.994 94.832 484.791 94.8076 484.53 94.8076C484.254 94.8402 484.115 94.8646 484.115 94.8809H484.799C484.213 94.8809 483.521 95.1331 482.724 95.6377C481.291 96.6143 480.242 97.9001 479.574 99.4951C478.988 100.879 478.695 102.49 478.695 104.329ZM493.075 114.07C492.668 114.07 492.221 113.924 491.732 113.631C491.26 113.322 490.984 112.744 490.902 111.897C490.788 110.823 490.731 109.228 490.731 107.112L490.756 106.575C490.772 105.338 490.821 104.061 490.902 102.742C490.902 102.449 490.919 102.148 490.951 101.839C491 100.521 491.171 99.1696 491.464 97.7861L491.757 96.6875C491.968 95.9388 492.27 95.2959 492.66 94.7588C493.262 93.8636 494.084 93.416 495.126 93.416C495.419 93.416 495.72 93.4567 496.029 93.5381C496.648 93.766 497.234 94.1729 497.787 94.7588C498.129 95.1331 498.511 95.654 498.935 96.3213C499.423 97.0537 499.879 97.8594 500.302 98.7383L500.595 99.3486C500.725 99.609 500.847 99.8776 500.961 100.154C501.303 100.919 501.514 101.432 501.596 101.692C501.921 102.425 502.141 102.962 502.255 103.304L503.427 106.136L503.524 104.72C503.573 103.938 503.598 103.247 503.598 102.645L503.622 101.766L503.598 101.302C503.598 100.667 503.59 100.244 503.573 100.032C503.573 99.1045 503.598 98.3232 503.646 97.6885V96.6387L503.622 96.2969C503.622 96.069 503.646 95.8411 503.695 95.6133C503.988 94.7018 504.468 94.2461 505.136 94.2461C505.673 94.2461 506.12 94.6367 506.479 95.418C506.592 95.7272 506.674 96.069 506.723 96.4434C506.771 96.8177 506.861 97.3141 506.991 97.9326C507.219 99.0068 507.366 100.073 507.431 101.131L507.577 102.498C507.74 103.654 507.829 104.777 507.846 105.867C507.846 106.193 507.805 106.836 507.724 107.796L507.699 107.869C507.585 109.301 507.219 110.449 506.601 111.312C505.95 112.158 505.111 112.581 504.086 112.581C503.077 112.581 502.198 112.166 501.449 111.336C500.945 110.864 500.432 110.123 499.911 109.114C499.341 107.975 498.699 106.478 497.982 104.622C497.95 104.508 497.901 104.386 497.836 104.256C497.787 104.109 497.437 103.19 496.786 101.497C496.786 101.465 496.778 101.44 496.762 101.424C496.485 100.61 496.16 99.8451 495.785 99.1289L495.712 98.9824L495.321 102.107C495.321 102.205 495.313 102.295 495.297 102.376C495.232 103.206 495.183 104.012 495.15 104.793C495.15 105.021 495.118 105.818 495.053 107.186C495.004 108.829 494.963 109.936 494.931 110.506L494.833 112.02C494.817 112.264 494.792 112.5 494.76 112.728C494.548 113.623 493.987 114.07 493.075 114.07ZM515.976 115.047C514.12 115.047 512.484 114.55 511.068 113.558C510.32 113.037 509.717 112.459 509.262 111.824C508.757 111.059 508.489 110.302 508.456 109.554C508.668 108.577 509.099 108.089 509.75 108.089C509.783 108.089 509.978 108.105 510.336 108.138C510.71 108.154 511.264 108.463 511.996 109.065C512.305 109.489 512.631 109.847 512.973 110.14L513.119 110.262C513.331 110.441 513.55 110.587 513.778 110.701C514.511 111.124 515.227 111.336 515.927 111.336C516.594 111.336 517.188 111.1 517.709 110.628L517.831 110.164C517.847 110.083 517.855 109.993 517.855 109.896C517.855 109.586 517.693 109.204 517.367 108.748C517.123 108.406 516.708 108.007 516.122 107.552L515.878 107.332L515.194 106.819L514.267 106.16L513.9 105.94C513.673 105.794 513.428 105.647 513.168 105.501C512.973 105.403 512.59 105.159 512.021 104.769L511.898 104.671C511.54 104.427 511.19 104.158 510.849 103.865C510.084 103.198 509.473 102.425 509.018 101.546C508.578 100.667 508.358 99.7148 508.358 98.6895C508.358 97.6315 508.643 96.5898 509.213 95.5645C509.766 94.6042 510.466 93.8555 511.312 93.3184C512.175 92.765 513.192 92.4883 514.364 92.4883C515.52 92.4883 516.545 92.8057 517.44 93.4404C518.043 93.9287 518.49 94.5146 518.783 95.1982C519.027 95.7191 519.149 96.2399 519.149 96.7607C519.149 97.4769 518.913 98.1198 518.441 98.6895C517.937 99.1289 517.506 99.3486 517.147 99.3486C517.131 99.3486 517.025 99.3405 516.83 99.3242C516.635 99.3079 516.285 98.9906 515.78 98.3721C515.715 98.2907 515.683 98.2012 515.683 98.1035V97.7617V97.4199C515.683 97.2734 515.674 97.1921 515.658 97.1758C515.609 97.0781 515.577 97.0212 515.561 97.0049C515.544 96.9723 515.528 96.9479 515.512 96.9316C515.495 96.9154 515.479 96.8991 515.463 96.8828C515.137 96.541 514.836 96.3701 514.56 96.3701C513.99 96.3701 513.542 96.6875 513.217 97.3223C513.021 97.7454 512.924 98.1361 512.924 98.4941C512.924 98.7057 512.973 98.9255 513.07 99.1533C513.233 99.6253 513.681 100.138 514.413 100.691C514.527 100.805 514.853 101.025 515.39 101.351C515.52 101.416 515.642 101.489 515.756 101.57L516.903 102.254C517.896 102.905 518.531 103.344 518.808 103.572C519.638 104.223 520.313 104.866 520.834 105.501C521.859 106.803 522.372 108.203 522.372 109.7C522.372 110.107 522.323 110.514 522.226 110.921C521.786 112.744 520.606 113.989 518.686 114.656C517.823 114.917 516.92 115.047 515.976 115.047ZM543.49 115.657H543.368C542.245 115.657 541.553 114.046 541.293 110.823C540.202 111.425 539.006 111.727 537.704 111.727C535.604 111.727 533.944 110.978 532.724 109.48C531.991 108.585 531.527 107.56 531.332 106.404C531.218 105.818 531.161 105.127 531.161 104.329C531.161 102.783 531.454 101.237 532.04 99.6904C532.512 98.6162 533.057 97.721 533.676 97.0049C535.043 95.5075 536.719 94.7588 538.705 94.7588C539.031 94.7588 539.356 94.7751 539.682 94.8076L540.829 95.0762C540.829 94.3763 540.837 93.8066 540.854 93.3672C540.886 92.9277 540.902 92.5046 540.902 92.0977C540.935 91.0234 541.024 89.7051 541.171 88.1426C541.269 87.0358 541.423 85.9697 541.635 84.9443C541.781 84.3096 541.911 83.9027 542.025 83.7236C542.058 83.512 542.147 83.3411 542.294 83.2109C542.603 82.9342 542.986 82.7959 543.441 82.7959C543.881 82.7959 544.247 82.9668 544.54 83.3086C544.654 83.4876 544.727 83.6829 544.76 83.8945L544.784 84.041C544.866 84.3991 544.923 84.7653 544.955 85.1396C545.004 85.7256 545.028 86.4906 545.028 87.4346L545.004 88.3135C544.971 89.4528 544.955 90.5596 544.955 91.6338C544.939 92.0407 544.931 92.6185 544.931 93.3672V99.3486C544.931 100.081 544.939 100.683 544.955 101.155V104.939L545.053 109.993L545.102 111.604C545.102 114.192 544.564 115.543 543.49 115.657ZM537.973 107.576C538.038 107.576 538.095 107.568 538.144 107.552C538.29 107.552 538.388 107.544 538.437 107.527H538.314C538.721 107.495 539.234 107.348 539.853 107.088C539.95 107.039 540.056 106.998 540.17 106.966C540.626 106.754 540.886 106.616 540.951 106.551H540.976C540.959 106.03 540.935 105.517 540.902 105.013C540.837 103.727 540.805 101.977 540.805 99.7637V99.2998C540.772 99.2998 540.74 99.2835 540.707 99.251C539.942 98.8115 539.25 98.5918 538.632 98.5918C537.997 98.5918 537.436 98.8441 536.947 99.3486C536.508 99.7881 536.158 100.325 535.897 100.96C535.67 101.497 535.556 101.871 535.556 102.083C535.393 102.734 535.312 103.401 535.312 104.085C535.312 104.703 535.385 105.241 535.531 105.696C535.889 106.771 536.443 107.381 537.191 107.527H538.314L538.217 107.552L537.802 107.576L537.289 107.552C537.403 107.568 537.574 107.576 537.802 107.576H537.973ZM553.28 112.972C552.336 112.972 551.392 112.768 550.448 112.361C549.423 111.906 548.568 111.214 547.885 110.286C546.794 108.707 546.249 106.689 546.249 104.231C546.249 102.75 546.428 101.302 546.786 99.8857C547.144 98.5674 547.6 97.4199 548.153 96.4434C548.723 95.4668 549.423 94.5716 550.253 93.7578C551.099 92.9277 551.986 92.2686 552.914 91.7803C553.858 91.292 554.786 90.9909 555.697 90.877H557.064C557.504 90.8932 557.943 90.9665 558.383 91.0967C560.173 91.764 561.321 93.001 561.825 94.8076C561.988 95.361 562.069 95.9714 562.069 96.6387C562.069 97.7617 561.825 98.8441 561.337 99.8857C560.995 100.683 560.466 101.513 559.75 102.376C559.604 102.604 559.262 102.97 558.725 103.475C556.951 105.021 555.193 106.095 553.451 106.697C552.572 106.99 551.767 107.153 551.034 107.186C551.05 107.202 551.067 107.234 551.083 107.283C551.099 107.332 551.116 107.389 551.132 107.454C551.262 107.731 551.433 107.991 551.645 108.235C552.198 108.854 552.792 109.163 553.427 109.163C554.045 109.163 554.647 108.992 555.233 108.65C555.575 108.471 555.901 108.284 556.21 108.089C556.715 107.763 557.007 107.56 557.089 107.479C557.577 107.039 558.082 106.681 558.603 106.404L558.773 106.307C559.034 106.258 559.286 106.233 559.53 106.233C559.872 106.233 560.238 106.307 560.629 106.453C561.036 106.583 561.28 107.023 561.361 107.771C561.264 108.178 561.093 108.561 560.849 108.919C560.621 109.277 560.344 109.603 560.019 109.896C558.505 111.263 556.78 112.231 554.843 112.801C554.322 112.915 553.801 112.972 553.28 112.972ZM550.521 104.329C550.554 104.329 550.578 104.321 550.595 104.305C550.757 104.305 551.107 104.207 551.645 104.012C552.963 103.458 554.33 102.514 555.746 101.18C556.332 100.577 556.796 100.008 557.138 99.4707C557.659 98.5267 557.927 97.6478 557.943 96.834C557.943 96.3457 557.797 95.833 557.504 95.2959C557.357 95.068 557.187 94.9297 556.991 94.8809H557.089H556.625H556.967C556.82 94.832 556.617 94.8076 556.356 94.8076C556.08 94.8402 555.941 94.8646 555.941 94.8809H556.625C556.039 94.8809 555.347 95.1331 554.55 95.6377C553.118 96.6143 552.068 97.9001 551.4 99.4951C550.814 100.879 550.521 102.49 550.521 104.329ZM577.597 112.093C576.62 112.093 575.749 111.808 574.984 111.238C574.04 110.538 573.308 109.358 572.787 107.698C572.527 106.966 572.331 106.144 572.201 105.232C572.185 105.07 572.16 104.915 572.128 104.769L572.006 103.816C572.006 103.621 571.99 103.426 571.957 103.23C571.876 102.531 571.835 101.399 571.835 99.8369L571.884 99.0068C571.9 98.4535 571.941 97.8919 572.006 97.3223C572.071 96.7526 572.12 96.4189 572.152 96.3213C571.924 96.3213 571.469 96.4271 570.785 96.6387L570.272 96.7607L569.955 96.7852C569.792 96.6875 569.613 96.598 569.418 96.5166C568.669 96.2562 568.295 95.9388 568.295 95.5645C568.295 95.3203 568.572 95.0029 569.125 94.6123L569.174 94.5879C569.874 94.1647 570.744 93.8066 571.786 93.5137C572.307 93.3835 572.624 93.3184 572.738 93.3184L572.763 93.1719L572.909 92.6592C573.023 91.9919 573.21 91.3896 573.471 90.8525C573.91 89.9899 574.431 89.5586 575.033 89.5586C575.831 89.5749 576.531 90.1283 577.133 91.2188L577.011 91.8047L576.84 92.6104L576.767 92.9033C576.767 92.9359 576.758 92.9603 576.742 92.9766L576.986 93.001C577.507 93.001 577.938 93.0091 578.28 93.0254C578.622 93.0417 578.956 93.0742 579.281 93.123C579.965 93.1556 580.535 93.2451 580.99 93.3916C581.299 93.6195 581.454 93.9043 581.454 94.2461C581.454 94.3112 581.43 94.4821 581.381 94.7588C581.332 95.0192 581.129 95.3366 580.771 95.7109C580.412 96.0853 580.006 96.305 579.55 96.3701L578.817 96.2969C578.02 96.1992 577.442 96.1423 577.084 96.126L576.303 96.1016L576.278 96.2236C576.246 96.6143 576.205 96.9967 576.156 97.3711C576.156 97.599 576.14 97.7943 576.107 97.957C576.026 99.015 575.985 99.7311 575.985 100.105L575.937 100.691C575.937 102.124 575.961 103.076 576.01 103.548C576.01 103.743 576.042 104.166 576.107 104.817C576.173 105.175 576.229 105.525 576.278 105.867C576.343 106.209 576.417 106.535 576.498 106.844C576.612 107.348 576.791 107.828 577.035 108.284C577.279 108.724 577.572 108.943 577.914 108.943C578.207 108.943 578.524 108.65 578.866 108.064C579.029 107.804 579.127 107.625 579.159 107.527C579.485 106.714 579.826 106.307 580.185 106.307C580.591 106.307 580.844 107.039 580.941 108.504C580.925 108.536 580.917 108.577 580.917 108.626V108.772C580.917 109.31 580.714 109.936 580.307 110.652C579.981 111.141 579.599 111.507 579.159 111.751C578.72 111.979 578.199 112.093 577.597 112.093ZM576.742 96.1016C576.612 96.1016 576.49 96.0934 576.376 96.0771H576.303V96.1016H576.742ZM586.581 112.605C586.402 112.605 586.109 112.557 585.702 112.459C585.035 112.264 584.498 111.255 584.091 109.432L583.7 107.576L583.334 105.696C583.236 105.208 583.09 104.378 582.895 103.206C582.699 102.099 582.536 100.984 582.406 99.8613C582.357 99.2266 582.3 98.5999 582.235 97.9814C582.089 96.2236 581.991 94.6855 581.942 93.3672V92.3174C582.007 91.7965 582.268 91.4141 582.724 91.1699C583.179 90.9095 583.7 90.7793 584.286 90.7793C584.888 90.7793 585.409 90.9095 585.849 91.1699C586.304 91.4141 586.557 91.7803 586.605 92.2686C586.605 92.4476 586.614 92.6104 586.63 92.7568C586.646 92.9033 586.654 93.0579 586.654 93.2207C586.671 93.3835 586.687 93.5462 586.703 93.709L586.776 94.417L586.874 95.7109L586.947 95.6133C587.68 94.6693 588.388 94.0182 589.071 93.6602C589.56 93.3997 590.129 93.2695 590.78 93.2695C591.724 93.2695 592.611 93.5137 593.441 94.002C594.239 94.5879 594.8 95.1006 595.126 95.54C595.451 95.9632 595.769 96.5573 596.078 97.3223L596.493 98.5918L596.811 100.008C596.892 100.447 596.933 100.927 596.933 101.448C596.933 101.806 596.868 102.148 596.737 102.474C596.672 102.734 596.518 102.921 596.273 103.035C596.046 103.149 595.883 103.247 595.785 103.328L595.443 103.597L594.198 103.743C594.068 103.646 593.946 103.572 593.832 103.523L593.197 103.328C593.1 103.312 593.018 103.287 592.953 103.255C592.904 103.222 592.807 103.108 592.66 102.913C592.302 102.392 592.058 101.644 591.928 100.667C591.879 100.179 591.798 99.6986 591.684 99.2266L591.586 98.8115C591.342 97.7699 590.943 97.249 590.39 97.249C589.836 97.249 589.21 97.7536 588.51 98.7627C588.168 99.2998 587.965 99.6986 587.899 99.959C587.672 100.398 587.533 100.716 587.484 100.911L587.436 100.984C587.468 101.115 587.484 101.237 587.484 101.351L587.851 104.231L587.973 105.086L588.095 106.111L588.217 106.941C588.217 106.99 588.225 107.031 588.241 107.063C588.485 108.772 588.607 109.944 588.607 110.579C588.526 111.36 588.225 111.922 587.704 112.264C587.346 112.492 586.972 112.605 586.581 112.605ZM611.654 117.635C611.524 117.635 611.402 117.627 611.288 117.61C611.174 117.594 610.995 117.464 610.751 117.22L610.507 116.854C610.198 116.43 609.896 115.747 609.604 114.803C609.587 114.705 609.563 114.616 609.53 114.534C609.205 113.297 608.952 111.93 608.773 110.433C608.741 110.156 608.725 109.887 608.725 109.627L608.651 109.725C607.707 111.076 606.674 112.068 605.551 112.703H605.526C604.68 113.191 603.785 113.436 602.841 113.436C601.409 113.436 600.204 112.898 599.228 111.824C598.023 110.555 597.421 108.659 597.421 106.136C597.551 103.629 598.275 101.326 599.594 99.2266C600.277 98.1198 601.01 97.2327 601.791 96.5654C601.791 96.484 602.198 96.1748 603.012 95.6377C604.151 94.9541 605.445 94.6042 606.894 94.5879C607.935 94.5879 608.822 94.832 609.555 95.3203C609.717 95.4017 609.921 95.5645 610.165 95.8086C610.165 95.8249 610.173 95.833 610.189 95.833C610.58 96.2562 610.775 96.6794 610.775 97.1025C610.775 97.3141 610.759 97.4525 610.727 97.5176C610.694 97.5827 610.645 97.6559 610.58 97.7373C610.287 98.0791 609.498 98.25 608.212 98.25H607.895C607.064 98.25 606.308 98.3639 605.624 98.5918C604.729 99.0964 603.923 99.8939 603.207 100.984C602.182 102.693 601.636 104.451 601.571 106.258C601.571 107.007 601.685 107.69 601.913 108.309C602.157 109.008 602.532 109.358 603.036 109.358C603.492 109.358 604.175 108.943 605.087 108.113C605.087 108.097 605.095 108.089 605.111 108.089C605.518 107.715 606.12 107.031 606.918 106.038L607.455 105.379C607.602 105.151 607.756 104.939 607.919 104.744C608.082 104.549 608.228 104.345 608.358 104.134L608.676 103.646C608.676 103.385 608.708 103.092 608.773 102.767C608.839 102.295 608.928 101.855 609.042 101.448L609.262 101.033C609.424 100.724 609.799 100.569 610.385 100.569C610.548 100.569 610.759 100.586 611.02 100.618C611.605 100.716 611.898 100.919 611.898 101.229L611.874 101.375C611.874 101.391 611.882 101.408 611.898 101.424C611.931 101.44 611.98 101.481 612.045 101.546C612.11 101.66 612.143 101.847 612.143 102.107L612.118 102.791L612.094 105.257C612.094 106.478 612.126 107.446 612.191 108.162C612.191 108.455 612.24 109.106 612.338 110.115C612.468 111.092 612.566 111.702 612.631 111.946C612.81 113.053 613.03 114.046 613.29 114.925L613.363 115.169C613.477 115.446 613.542 115.722 613.559 115.999C613.559 116.618 613.314 117.065 612.826 117.342C612.468 117.537 612.077 117.635 611.654 117.635ZM607.968 101.131C607.951 101.115 607.927 101.106 607.895 101.106C607.878 101.106 607.862 101.106 607.846 101.106C607.829 101.106 607.821 101.098 607.821 101.082L607.895 101.009C607.911 101.009 607.919 101.017 607.919 101.033C607.935 101.033 607.943 101.049 607.943 101.082C607.96 101.098 607.968 101.115 607.968 101.131ZM616.415 114.07C616.008 114.07 615.561 113.924 615.072 113.631C614.6 113.322 614.324 112.744 614.242 111.897C614.128 110.823 614.071 109.228 614.071 107.112L614.096 106.575C614.112 105.338 614.161 104.061 614.242 102.742C614.242 102.449 614.258 102.148 614.291 101.839C614.34 100.521 614.511 99.1696 614.804 97.7861L615.097 96.6875C615.308 95.9388 615.609 95.2959 616 94.7588C616.602 93.8636 617.424 93.416 618.466 93.416C618.759 93.416 619.06 93.4567 619.369 93.5381C619.988 93.766 620.574 94.1729 621.127 94.7588C621.469 95.1331 621.851 95.654 622.274 96.3213C622.763 97.0537 623.218 97.8594 623.642 98.7383L623.935 99.3486C624.065 99.609 624.187 99.8776 624.301 100.154C624.643 100.919 624.854 101.432 624.936 101.692C625.261 102.425 625.481 102.962 625.595 103.304L626.767 106.136L626.864 104.72C626.913 103.938 626.938 103.247 626.938 102.645L626.962 101.766L626.938 101.302C626.938 100.667 626.929 100.244 626.913 100.032C626.913 99.1045 626.938 98.3232 626.986 97.6885V96.6387L626.962 96.2969C626.962 96.069 626.986 95.8411 627.035 95.6133C627.328 94.7018 627.808 94.2461 628.476 94.2461C629.013 94.2461 629.46 94.6367 629.818 95.418C629.932 95.7272 630.014 96.069 630.062 96.4434C630.111 96.8177 630.201 97.3141 630.331 97.9326C630.559 99.0068 630.705 100.073 630.771 101.131L630.917 102.498C631.08 103.654 631.169 104.777 631.186 105.867C631.186 106.193 631.145 106.836 631.063 107.796L631.039 107.869C630.925 109.301 630.559 110.449 629.94 111.312C629.289 112.158 628.451 112.581 627.426 112.581C626.417 112.581 625.538 112.166 624.789 111.336C624.285 110.864 623.772 110.123 623.251 109.114C622.681 107.975 622.038 106.478 621.322 104.622C621.29 104.508 621.241 104.386 621.176 104.256C621.127 104.109 620.777 103.19 620.126 101.497C620.126 101.465 620.118 101.44 620.102 101.424C619.825 100.61 619.499 99.8451 619.125 99.1289L619.052 98.9824L618.661 102.107C618.661 102.205 618.653 102.295 618.637 102.376C618.572 103.206 618.523 104.012 618.49 104.793C618.49 105.021 618.458 105.818 618.393 107.186C618.344 108.829 618.303 109.936 618.271 110.506L618.173 112.02C618.157 112.264 618.132 112.5 618.1 112.728C617.888 113.623 617.326 114.07 616.415 114.07ZM639.315 115.047C637.46 115.047 635.824 114.55 634.408 113.558C633.66 113.037 633.057 112.459 632.602 111.824C632.097 111.059 631.828 110.302 631.796 109.554C632.007 108.577 632.439 108.089 633.09 108.089C633.122 108.089 633.318 108.105 633.676 108.138C634.05 108.154 634.604 108.463 635.336 109.065C635.645 109.489 635.971 109.847 636.312 110.14L636.459 110.262C636.671 110.441 636.89 110.587 637.118 110.701C637.851 111.124 638.567 111.336 639.267 111.336C639.934 111.336 640.528 111.1 641.049 110.628L641.171 110.164C641.187 110.083 641.195 109.993 641.195 109.896C641.195 109.586 641.033 109.204 640.707 108.748C640.463 108.406 640.048 108.007 639.462 107.552L639.218 107.332L638.534 106.819L637.606 106.16L637.24 105.94C637.012 105.794 636.768 105.647 636.508 105.501C636.312 105.403 635.93 105.159 635.36 104.769L635.238 104.671C634.88 104.427 634.53 104.158 634.188 103.865C633.424 103.198 632.813 102.425 632.357 101.546C631.918 100.667 631.698 99.7148 631.698 98.6895C631.698 97.6315 631.983 96.5898 632.553 95.5645C633.106 94.6042 633.806 93.8555 634.652 93.3184C635.515 92.765 636.532 92.4883 637.704 92.4883C638.86 92.4883 639.885 92.8057 640.78 93.4404C641.382 93.9287 641.83 94.5146 642.123 95.1982C642.367 95.7191 642.489 96.2399 642.489 96.7607C642.489 97.4769 642.253 98.1198 641.781 98.6895C641.277 99.1289 640.845 99.3486 640.487 99.3486C640.471 99.3486 640.365 99.3405 640.17 99.3242C639.975 99.3079 639.625 98.9906 639.12 98.3721C639.055 98.2907 639.022 98.2012 639.022 98.1035V97.7617V97.4199C639.022 97.2734 639.014 97.1921 638.998 97.1758C638.949 97.0781 638.917 97.0212 638.9 97.0049C638.884 96.9723 638.868 96.9479 638.852 96.9316C638.835 96.9154 638.819 96.8991 638.803 96.8828C638.477 96.541 638.176 96.3701 637.899 96.3701C637.33 96.3701 636.882 96.6875 636.557 97.3223C636.361 97.7454 636.264 98.1361 636.264 98.4941C636.264 98.7057 636.312 98.9255 636.41 99.1533C636.573 99.6253 637.021 100.138 637.753 100.691C637.867 100.805 638.192 101.025 638.729 101.351C638.86 101.416 638.982 101.489 639.096 101.57L640.243 102.254C641.236 102.905 641.871 103.344 642.147 103.572C642.978 104.223 643.653 104.866 644.174 105.501C645.199 106.803 645.712 108.203 645.712 109.7C645.712 110.107 645.663 110.514 645.565 110.921C645.126 112.744 643.946 113.989 642.025 114.656C641.163 114.917 640.259 115.047 639.315 115.047ZM649.862 118.807C649.016 118.807 648.332 118.123 647.812 116.756C647.698 116.333 647.6 115.91 647.519 115.486L647.445 115.071C647.12 113.362 646.884 111.775 646.737 110.311C646.575 109.204 646.412 107.218 646.249 104.354C646.216 103.475 646.2 102.474 646.2 101.351C646.2 99.2673 646.314 97.5094 646.542 96.0771C646.672 95.0355 646.884 94.0833 647.177 93.2207C647.698 91.9512 648.34 91.3164 649.105 91.3164C649.659 91.3164 650.115 91.5605 650.473 92.0488C650.831 92.5208 651.01 93.0824 651.01 93.7334L650.985 94.0752L650.814 95.125C650.814 95.2552 650.798 95.3854 650.766 95.5156C651.954 94.832 653.215 94.4902 654.55 94.4902C655.966 94.4902 657.154 94.8483 658.114 95.5645C658.847 96.069 659.473 96.7689 659.994 97.6641C660.482 98.4941 660.808 99.4382 660.971 100.496C661.02 100.984 661.044 101.554 661.044 102.205C661.044 103.019 660.946 103.833 660.751 104.646C660.621 105.428 660.385 106.176 660.043 106.893L659.921 107.137L659.506 107.918C659.083 108.553 658.586 109.065 658.017 109.456C656.991 110.221 655.868 110.604 654.647 110.604C653.769 110.604 652.857 110.392 651.913 109.969L650.961 109.456L651.376 112.776C651.409 113.053 651.449 113.338 651.498 113.631C651.547 113.924 651.588 114.217 651.62 114.51L651.718 115.169C651.783 115.494 651.832 115.812 651.864 116.121C651.75 117.911 651.083 118.807 649.862 118.807ZM654.501 106.575C654.957 106.575 655.364 106.372 655.722 105.965C655.754 105.916 655.795 105.875 655.844 105.843C656.055 105.55 656.218 105.2 656.332 104.793C656.544 104.061 656.674 103.458 656.723 102.986C656.771 102.71 656.804 102.433 656.82 102.156C656.82 101.359 656.731 100.716 656.552 100.228C656.389 99.7393 656.112 99.3079 655.722 98.9336C655.152 98.4616 654.59 98.2256 654.037 98.2256C653.467 98.2256 652.857 98.3802 652.206 98.6895C651.701 98.901 651.173 99.2835 650.619 99.8369C650.587 99.9183 650.53 99.9753 650.448 100.008V101.033C650.448 101.782 650.456 102.278 650.473 102.522V102.767C650.733 103.385 651.107 103.979 651.596 104.549C651.921 104.939 652.125 105.175 652.206 105.257C652.304 105.322 652.385 105.387 652.45 105.452C653.215 106.201 653.899 106.575 654.501 106.575ZM668.661 113.069C667.359 113.069 666.146 112.662 665.023 111.849C664.177 111.198 663.518 110.368 663.046 109.358C662.037 107.454 661.532 105.363 661.532 103.084C661.532 101.749 661.719 100.423 662.094 99.1045C662.126 99.0394 662.151 98.9661 662.167 98.8848C662.297 98.4128 662.46 97.9489 662.655 97.4932C663.941 95.0518 665.715 93.8311 667.978 93.8311C668.905 93.8311 669.817 94.0508 670.712 94.4902C671.607 94.9297 672.388 95.5726 673.056 96.4189C674.26 97.9489 675.025 99.7148 675.351 101.717C675.432 102.238 675.473 102.84 675.473 103.523C675.473 103.914 675.448 104.313 675.399 104.72C675.302 105.778 675.098 106.746 674.789 107.625C674.382 108.65 673.975 109.48 673.568 110.115C673.064 110.896 672.437 111.564 671.688 112.117C670.712 112.752 669.703 113.069 668.661 113.069ZM668.563 108.992C668.645 108.992 668.824 108.935 669.101 108.821C669.377 108.707 669.768 108.195 670.272 107.283C670.435 107.023 670.574 106.746 670.688 106.453V106.404C670.98 105.639 671.168 104.964 671.249 104.378L671.273 104.305C671.322 104.028 671.347 103.759 671.347 103.499C671.347 102.994 671.314 102.555 671.249 102.181C671.151 101.513 670.932 100.846 670.59 100.179C670.264 99.4951 669.923 98.9661 669.564 98.5918C668.848 97.9733 668.287 97.6641 667.88 97.6641C667.44 97.6641 667.042 98.0628 666.684 98.8604C666.342 99.6579 666.106 100.512 665.976 101.424C665.878 101.993 665.829 102.571 665.829 103.157C665.829 104.752 666.228 106.282 667.025 107.747C667.628 108.577 668.14 108.992 668.563 108.992ZM680.624 112.605C680.445 112.605 680.152 112.557 679.745 112.459C679.078 112.264 678.541 111.255 678.134 109.432L677.743 107.576L677.377 105.696C677.279 105.208 677.133 104.378 676.938 103.206C676.742 102.099 676.579 100.984 676.449 99.8613C676.4 99.2266 676.343 98.5999 676.278 97.9814C676.132 96.2236 676.034 94.6855 675.985 93.3672V92.3174C676.05 91.7965 676.311 91.4141 676.767 91.1699C677.222 90.9095 677.743 90.7793 678.329 90.7793C678.931 90.7793 679.452 90.9095 679.892 91.1699C680.347 91.4141 680.6 91.7803 680.648 92.2686C680.648 92.4476 680.657 92.6104 680.673 92.7568C680.689 92.9033 680.697 93.0579 680.697 93.2207C680.714 93.3835 680.73 93.5462 680.746 93.709L680.819 94.417L680.917 95.7109L680.99 95.6133C681.723 94.6693 682.431 94.0182 683.114 93.6602C683.603 93.3997 684.172 93.2695 684.823 93.2695C685.767 93.2695 686.654 93.5137 687.484 94.002C688.282 94.5879 688.843 95.1006 689.169 95.54C689.494 95.9632 689.812 96.5573 690.121 97.3223L690.536 98.5918L690.854 100.008C690.935 100.447 690.976 100.927 690.976 101.448C690.976 101.806 690.91 102.148 690.78 102.474C690.715 102.734 690.561 102.921 690.316 103.035C690.089 103.149 689.926 103.247 689.828 103.328L689.486 103.597L688.241 103.743C688.111 103.646 687.989 103.572 687.875 103.523L687.24 103.328C687.143 103.312 687.061 103.287 686.996 103.255C686.947 103.222 686.85 103.108 686.703 102.913C686.345 102.392 686.101 101.644 685.971 100.667C685.922 100.179 685.84 99.6986 685.727 99.2266L685.629 98.8115C685.385 97.7699 684.986 97.249 684.433 97.249C683.879 97.249 683.253 97.7536 682.553 98.7627C682.211 99.2998 682.007 99.6986 681.942 99.959C681.715 100.398 681.576 100.716 681.527 100.911L681.479 100.984C681.511 101.115 681.527 101.237 681.527 101.351L681.894 104.231L682.016 105.086L682.138 106.111L682.26 106.941C682.26 106.99 682.268 107.031 682.284 107.063C682.528 108.772 682.65 109.944 682.65 110.579C682.569 111.36 682.268 111.922 681.747 112.264C681.389 112.492 681.015 112.605 680.624 112.605ZM698.202 112.093C697.226 112.093 696.355 111.808 695.59 111.238C694.646 110.538 693.913 109.358 693.393 107.698C693.132 106.966 692.937 106.144 692.807 105.232C692.79 105.07 692.766 104.915 692.733 104.769L692.611 103.816C692.611 103.621 692.595 103.426 692.562 103.23C692.481 102.531 692.44 101.399 692.44 99.8369L692.489 99.0068C692.506 98.4535 692.546 97.8919 692.611 97.3223C692.676 96.7526 692.725 96.4189 692.758 96.3213C692.53 96.3213 692.074 96.4271 691.391 96.6387L690.878 96.7607L690.561 96.7852C690.398 96.6875 690.219 96.598 690.023 96.5166C689.275 96.2562 688.9 95.9388 688.9 95.5645C688.9 95.3203 689.177 95.0029 689.73 94.6123L689.779 94.5879C690.479 94.1647 691.35 93.8066 692.392 93.5137C692.912 93.3835 693.23 93.3184 693.344 93.3184L693.368 93.1719L693.515 92.6592C693.629 91.9919 693.816 91.3896 694.076 90.8525C694.516 89.9899 695.036 89.5586 695.639 89.5586C696.436 89.5749 697.136 90.1283 697.738 91.2188L697.616 91.8047L697.445 92.6104L697.372 92.9033C697.372 92.9359 697.364 92.9603 697.348 92.9766L697.592 93.001C698.113 93.001 698.544 93.0091 698.886 93.0254C699.228 93.0417 699.561 93.0742 699.887 93.123C700.57 93.1556 701.14 93.2451 701.596 93.3916C701.905 93.6195 702.06 93.9043 702.06 94.2461C702.06 94.3112 702.035 94.4821 701.986 94.7588C701.938 95.0192 701.734 95.3366 701.376 95.7109C701.018 96.0853 700.611 96.305 700.155 96.3701L699.423 96.2969C698.625 96.1992 698.048 96.1423 697.689 96.126L696.908 96.1016L696.884 96.2236C696.851 96.6143 696.811 96.9967 696.762 97.3711C696.762 97.599 696.745 97.7943 696.713 97.957C696.632 99.015 696.591 99.7311 696.591 100.105L696.542 100.691C696.542 102.124 696.566 103.076 696.615 103.548C696.615 103.743 696.648 104.166 696.713 104.817C696.778 105.175 696.835 105.525 696.884 105.867C696.949 106.209 697.022 106.535 697.104 106.844C697.217 107.348 697.396 107.828 697.641 108.284C697.885 108.724 698.178 108.943 698.52 108.943C698.812 108.943 699.13 108.65 699.472 108.064C699.634 107.804 699.732 107.625 699.765 107.527C700.09 106.714 700.432 106.307 700.79 106.307C701.197 106.307 701.449 107.039 701.547 108.504C701.531 108.536 701.522 108.577 701.522 108.626V108.772C701.522 109.31 701.319 109.936 700.912 110.652C700.587 111.141 700.204 111.507 699.765 111.751C699.325 111.979 698.804 112.093 698.202 112.093ZM697.348 96.1016C697.217 96.1016 697.095 96.0934 696.981 96.0771H696.908V96.1016H697.348ZM710.165 115.047C708.31 115.047 706.674 114.55 705.258 113.558C704.509 113.037 703.907 112.459 703.451 111.824C702.947 111.059 702.678 110.302 702.646 109.554C702.857 108.577 703.288 108.089 703.939 108.089C703.972 108.089 704.167 108.105 704.525 108.138C704.9 108.154 705.453 108.463 706.186 109.065C706.495 109.489 706.82 109.847 707.162 110.14L707.309 110.262C707.52 110.441 707.74 110.587 707.968 110.701C708.7 111.124 709.416 111.336 710.116 111.336C710.784 111.336 711.378 111.1 711.898 110.628L712.021 110.164C712.037 110.083 712.045 109.993 712.045 109.896C712.045 109.586 711.882 109.204 711.557 108.748C711.312 108.406 710.897 108.007 710.312 107.552L710.067 107.332L709.384 106.819L708.456 106.16L708.09 105.94C707.862 105.794 707.618 105.647 707.357 105.501C707.162 105.403 706.78 105.159 706.21 104.769L706.088 104.671C705.73 104.427 705.38 104.158 705.038 103.865C704.273 103.198 703.663 102.425 703.207 101.546C702.768 100.667 702.548 99.7148 702.548 98.6895C702.548 97.6315 702.833 96.5898 703.402 95.5645C703.956 94.6042 704.656 93.8555 705.502 93.3184C706.365 92.765 707.382 92.4883 708.554 92.4883C709.709 92.4883 710.735 92.8057 711.63 93.4404C712.232 93.9287 712.68 94.5146 712.973 95.1982C713.217 95.7191 713.339 96.2399 713.339 96.7607C713.339 97.4769 713.103 98.1198 712.631 98.6895C712.126 99.1289 711.695 99.3486 711.337 99.3486C711.321 99.3486 711.215 99.3405 711.02 99.3242C710.824 99.3079 710.474 98.9906 709.97 98.3721C709.905 98.2907 709.872 98.2012 709.872 98.1035V97.7617V97.4199C709.872 97.2734 709.864 97.1921 709.848 97.1758C709.799 97.0781 709.766 97.0212 709.75 97.0049C709.734 96.9723 709.717 96.9479 709.701 96.9316C709.685 96.9154 709.669 96.8991 709.652 96.8828C709.327 96.541 709.026 96.3701 708.749 96.3701C708.179 96.3701 707.732 96.6875 707.406 97.3223C707.211 97.7454 707.113 98.1361 707.113 98.4941C707.113 98.7057 707.162 98.9255 707.26 99.1533C707.423 99.6253 707.87 100.138 708.603 100.691C708.716 100.805 709.042 101.025 709.579 101.351C709.709 101.416 709.831 101.489 709.945 101.57L711.093 102.254C712.086 102.905 712.72 103.344 712.997 103.572C713.827 104.223 714.503 104.866 715.023 105.501C716.049 106.803 716.562 108.203 716.562 109.7C716.562 110.107 716.513 110.514 716.415 110.921C715.976 112.744 714.796 113.989 712.875 114.656C712.012 114.917 711.109 115.047 710.165 115.047ZM731.21 109.017H731.112C730.185 109.017 729.501 108.577 729.062 107.698C728.996 107.422 728.964 107.137 728.964 106.844C728.964 106.502 729.013 106.014 729.11 105.379C729.11 105.298 729.175 104.834 729.306 103.987C729.647 102.295 730.242 100.879 731.088 99.7393L731.186 99.6172C731.479 99.194 731.812 98.7708 732.187 98.3477L733.529 96.834C733.643 96.7201 733.749 96.598 733.847 96.4678L734.359 95.9062C734.49 95.7272 734.636 95.54 734.799 95.3447C734.929 95.2145 735.051 95.0599 735.165 94.8809C735.409 94.4902 735.596 94.1566 735.727 93.8799V93.8555C735.857 93.5951 735.922 93.4323 735.922 93.3672C735.971 93.2533 735.995 93.1475 735.995 93.0498V92.6348C735.963 92.1465 735.816 91.7152 735.556 91.3408C735.312 90.9502 735.051 90.6491 734.774 90.4375C733.993 89.7376 733.334 89.3877 732.797 89.3877C732.715 89.3877 732.512 89.4284 732.187 89.5098C731.877 89.5911 731.487 89.9492 731.015 90.584C730.689 90.8932 730.437 91.2676 730.258 91.707L730.233 91.7559C730.022 92.2604 729.916 92.7812 729.916 93.3184V93.6357C729.916 94.0915 730.03 94.5391 730.258 94.9785C730.323 95.125 730.421 95.2959 730.551 95.4912C730.632 95.7191 730.673 95.9551 730.673 96.1992C730.673 96.5898 730.526 97.0781 730.233 97.6641C729.94 98.2337 729.517 98.6081 728.964 98.7871C728.736 98.7871 728.524 98.7464 728.329 98.665C727.841 98.4535 727.41 98.1686 727.035 97.8105C726.319 97.0293 725.839 96.1423 725.595 95.1494C725.432 94.4984 725.351 93.9043 725.351 93.3672C725.367 92.3255 725.538 91.3408 725.863 90.4131C726.042 89.9411 726.221 89.5667 726.4 89.29C726.4 89.2738 726.409 89.2656 726.425 89.2656C726.799 88.582 727.255 87.9554 727.792 87.3857V87.3613C728.329 86.7428 728.964 86.222 729.696 85.7988C730.51 85.3431 731.34 85.1152 732.187 85.1152L733.065 85.1396C733.635 85.1396 734.197 85.2699 734.75 85.5303C735.84 86.0186 736.931 86.9219 738.021 88.2402C738.412 88.7122 738.762 89.2168 739.071 89.7539C739.381 90.3561 739.592 90.9339 739.706 91.4873C739.804 91.9756 739.853 92.415 739.853 92.8057L739.828 93.2695C739.698 94.3275 739.299 95.4261 738.632 96.5654C738.274 97.1351 737.989 97.5257 737.777 97.7373L737.631 97.9082C737.452 98.1361 737.273 98.3558 737.094 98.5674C736.98 98.6813 736.874 98.7952 736.776 98.9092C736.695 99.0068 736.605 99.1045 736.508 99.2021C736.199 99.5114 735.889 99.8369 735.58 100.179C735.515 100.26 735.45 100.341 735.385 100.423C735.32 100.504 735.246 100.594 735.165 100.691C735.084 100.789 734.994 100.887 734.896 100.984C734.294 101.668 733.936 102.531 733.822 103.572C733.708 104.126 733.635 104.744 733.603 105.428C733.586 106.486 733.505 107.275 733.358 107.796C732.903 108.593 732.187 109 731.21 109.017ZM731.723 115.145C730.958 115.145 730.347 114.827 729.892 114.192C729.778 113.883 729.721 113.403 729.721 112.752C729.753 112.117 730.03 111.637 730.551 111.312C731.088 110.986 731.641 110.823 732.211 110.823H732.357C733.448 110.888 733.993 111.393 733.993 112.337L733.969 112.532L734.018 113.069C734.034 113.134 734.042 113.248 734.042 113.411C734.042 113.59 734.026 113.769 733.993 113.948C733.521 114.746 732.764 115.145 731.723 115.145Z"
          fill="#FFF2EA"/>
</svg>
