<svg width="983" height="597" viewBox="0 0 983 597" fill="none" xmlns="http://www.w3.org/2000/svg">
<path d="M5.76725 591.131C4.3091 589.625 4.08375 587.312 5.22384 585.553C50.0153 516.448 57.4857 464.612 58.2285 418.084C58.3933 407.766 58.2151 397.614 58.038 387.526C57.4189 352.256 56.8137 317.776 70.9301 279.753C72.5555 275.374 74.1371 271.063 75.6951 266.815C92.4826 221.052 106.535 182.744 143.182 147.771L143.182 147.771C146.09 144.997 149.739 142.366 153.396 139.865C154.651 139.007 155.899 138.169 157.139 137.336C159.63 135.664 162.085 134.015 164.479 132.282C168.029 129.71 171.117 127.179 173.429 124.588C175.741 121.998 177.056 119.595 177.463 117.29L177.463 117.289C177.634 116.323 177.461 114.987 176.632 113.054C175.804 111.121 174.516 109.027 172.951 106.637C172.668 106.205 172.373 105.759 172.072 105.304C170.797 103.376 169.408 101.275 168.262 99.2208C166.848 96.6845 165.521 93.7424 165.183 90.622L165.183 90.6216C164.321 82.6788 165.511 76.2388 168.725 71.0821C171.917 65.9608 176.755 62.6708 182.098 60.3352C187.398 58.0187 193.549 56.4923 199.724 55.114C201.161 54.7933 202.6 54.4803 204.041 54.1671C208.927 53.1047 213.828 52.039 218.704 50.6561L218.704 50.656C236.832 45.5154 254.255 38.7251 271.82 31.8794C281.985 27.9177 292.198 23.9374 302.622 20.2477C330.713 10.3045 359.631 2.79244 390.595 5.12657C456.197 10.0703 521.708 8.43608 587.01 4.85901L587.256 9.35227L587.011 4.85899C611.533 3.51762 630.173 6.19241 652.104 9.33937C652.864 9.44837 653.627 9.55794 654.395 9.66792L654.396 9.66797C670.715 12.0068 686.392 11.4195 702.296 9.91822C708.565 9.32637 714.996 8.57499 721.528 7.81168C731.273 6.67302 741.245 5.50784 751.247 4.80624C772.6 3.30789 792.167 7.63918 811.371 12.6843C814.441 13.4907 817.497 14.3138 820.55 15.1361C836.754 19.5002 852.866 23.8398 870.374 25.5133L5.76725 591.131ZM5.76725 591.131C7.2254 592.637 9.53014 592.936 11.3249 591.853M5.76725 591.131L11.3249 591.853M936.081 35.8445C926.208 30.7124 914.3 28.6516 902.819 27.5864C897.041 27.0503 891.245 26.7578 885.764 26.4863L885.397 26.4681C880.013 26.2015 874.97 25.9518 870.375 25.5134L936.081 35.8445ZM936.081 35.8445C942.663 39.264 951.838 46.8395 959.658 55.078M936.081 35.8445L959.658 55.078M11.3249 591.853C49.6745 568.713 67.5256 531.772 75.7112 490.885C83.216 453.398 82.699 412.031 82.2254 374.147C82.1843 370.861 82.1436 367.6 82.1084 364.371C81.9006 345.333 85.4246 326.915 90.1246 308.324C91.9184 301.23 93.9128 294.013 95.9277 286.722C99.1168 275.183 102.357 263.459 104.934 251.739C105.028 251.31 105.121 250.884 105.214 250.461C107.756 238.892 109.747 229.829 113.298 221.29C116.918 212.583 122.218 204.313 131.627 194.819L131.628 194.819M11.3249 591.853L131.628 194.819M131.628 194.819C146.679 179.631 172.026 165.064 199.308 154.73M131.628 194.819L199.308 154.73M199.308 154.73C226.599 144.392 255.084 138.57 276.218 140.269M199.308 154.73L276.218 140.269M276.218 140.269C294.126 141.709 312.091 144.571 330.317 147.474M276.218 140.269L330.317 147.474M330.317 147.474C332.307 147.791 334.3 148.108 336.297 148.424M330.317 147.474L336.297 148.424M336.297 148.424C356.502 151.624 377.009 154.682 397.654 155.584M336.297 148.424L397.654 155.584M397.654 155.584C443.8 157.595 491.016 158.185 537.738 158.185M397.654 155.584L537.738 158.185M537.738 158.185C544.144 158.185 555.488 158.555 570.463 159.043M537.738 158.185L570.463 159.043M570.463 159.043C618.601 160.613 704.261 163.407 784.048 159.068M570.463 159.043L784.048 159.068M784.048 159.068C836.364 156.224 886.685 150.3 922.659 138.796M784.048 159.068L922.659 138.796M922.659 138.796C940.608 133.056 955.47 125.781 965.178 116.411M922.659 138.796L965.178 116.411M965.178 116.411C975.116 106.819 979.671 94.9587 976.519 80.9583M965.178 116.411L976.519 80.9583M976.519 80.9583C975.581 76.7906 973.199 72.316 970.29 68.0418M976.519 80.9583L970.29 68.0418M970.29 68.0418C967.333 63.6968 963.61 59.2424 959.658 55.078M970.29 68.0418L959.658 55.078" fill="#22C79E" stroke="#FFF2EA" stroke-width="9" stroke-linejoin="round"/>
<path d="M276.107 97.8496H275.595C275.09 97.8496 274.586 97.8171 274.081 97.752C272.274 97.3939 270.761 96.401 269.54 94.7734C268.938 94.0573 268.384 93.1865 267.88 92.1611C267.147 90.6475 266.602 88.9222 266.244 86.9854C266.033 85.6019 265.927 84.3079 265.927 83.1035C265.927 82.4362 265.951 81.777 266 81.126V80.8574C266.081 79.6693 266.244 78.5137 266.488 77.3906C266.716 76.3652 267.001 75.3398 267.343 74.3145L267.782 73.1182C268.515 71.751 269.247 71.0674 269.979 71.0674C270.744 71.0674 271.379 71.4743 271.884 72.2881C272.226 72.874 272.396 73.4762 272.396 74.0947L272.372 74.4854C272.209 74.9899 272.055 75.7142 271.908 76.6582C271.892 76.6582 271.835 77.0163 271.737 77.7324L271.493 80.1494C271.461 80.654 271.444 81.3294 271.444 82.1758C271.461 83.8685 271.566 85.2357 271.762 86.2773C271.924 87.2539 272.136 88.1572 272.396 88.9873C272.494 89.2803 272.681 89.7279 272.958 90.3301L273.056 90.5498C273.414 91.3148 273.723 91.8844 273.983 92.2588C274.26 92.6169 274.464 92.861 274.594 92.9912C275.001 93.4632 275.497 93.6992 276.083 93.6992C276.132 93.6992 276.319 93.6911 276.645 93.6748C276.97 93.6423 277.426 93.3086 278.012 92.6738C278.207 92.4622 278.386 92.2344 278.549 91.9902C278.549 91.974 278.557 91.9658 278.573 91.9658C279.289 90.9893 279.802 89.9232 280.111 88.7676C280.144 88.6862 280.168 88.5967 280.185 88.499C280.217 88.3851 280.258 88.263 280.307 88.1328C280.486 87.3841 280.632 86.6191 280.746 85.8379L280.771 85.6426C280.836 85.0241 280.868 84.5114 280.868 84.1045C280.868 83.5348 280.876 82.9733 280.893 82.4199L280.868 82.1514V81.4678L280.844 80.6377L280.697 79.2705C280.648 78.9775 280.624 78.6927 280.624 78.416L280.551 77.6836C280.518 77.3906 280.502 77.0977 280.502 76.8047C280.502 76.6582 280.518 76.5036 280.551 76.3408C280.876 75.6572 281.332 75.3154 281.918 75.3154C281.999 75.3154 282.252 75.3561 282.675 75.4375C283.114 75.5026 283.448 76.1211 283.676 77.293L283.847 77.9277C283.896 78.123 283.936 78.3265 283.969 78.5381C284.018 78.9287 284.083 79.3356 284.164 79.7588C284.245 80.182 284.311 80.6133 284.359 81.0527C284.457 81.5573 284.514 81.9805 284.53 82.3223L284.555 82.8105L284.579 83.6895C284.579 84.4382 284.563 85.1868 284.53 85.9355C284.514 86.5052 284.4 87.262 284.188 88.2061L284.091 88.6211C283.993 89.1094 283.814 89.7279 283.554 90.4766V90.5254C283.147 91.5508 282.821 92.2832 282.577 92.7227C282.431 93.0319 282.219 93.3818 281.942 93.7725C281.438 94.4886 280.95 95.099 280.478 95.6035C279.387 96.7754 278.093 97.516 276.596 97.8252L276.107 97.8496ZM291.806 97.0928C290.829 97.0928 289.958 96.8079 289.193 96.2383C288.249 95.5384 287.517 94.3584 286.996 92.6982C286.736 91.9658 286.54 91.1439 286.41 90.2324C286.394 90.0697 286.369 89.915 286.337 89.7686L286.215 88.8164C286.215 88.6211 286.199 88.4258 286.166 88.2305C286.085 87.5306 286.044 86.3994 286.044 84.8369L286.093 84.0068C286.109 83.4535 286.15 82.8919 286.215 82.3223C286.28 81.7526 286.329 81.4189 286.361 81.3213C286.133 81.3213 285.678 81.4271 284.994 81.6387L284.481 81.7607L284.164 81.7852C284.001 81.6875 283.822 81.598 283.627 81.5166C282.878 81.2562 282.504 80.9388 282.504 80.5645C282.504 80.3203 282.781 80.0029 283.334 79.6123L283.383 79.5879C284.083 79.1647 284.953 78.8066 285.995 78.5137C286.516 78.3835 286.833 78.3184 286.947 78.3184L286.972 78.1719L287.118 77.6592C287.232 76.9919 287.419 76.3896 287.68 75.8525C288.119 74.9899 288.64 74.5586 289.242 74.5586C290.04 74.5749 290.74 75.1283 291.342 76.2188L291.22 76.8047L291.049 77.6104L290.976 77.9033C290.976 77.9359 290.967 77.9603 290.951 77.9766L291.195 78.001C291.716 78.001 292.147 78.0091 292.489 78.0254C292.831 78.0417 293.165 78.0742 293.49 78.123C294.174 78.1556 294.743 78.2451 295.199 78.3916C295.508 78.6195 295.663 78.9043 295.663 79.2461C295.663 79.3112 295.639 79.4821 295.59 79.7588C295.541 80.0192 295.338 80.3366 294.979 80.7109C294.621 81.0853 294.215 81.305 293.759 81.3701L293.026 81.2969C292.229 81.1992 291.651 81.1423 291.293 81.126L290.512 81.1016L290.487 81.2236C290.455 81.6143 290.414 81.9967 290.365 82.3711C290.365 82.599 290.349 82.7943 290.316 82.957C290.235 84.015 290.194 84.7311 290.194 85.1055L290.146 85.6914C290.146 87.1237 290.17 88.0758 290.219 88.5479C290.219 88.7432 290.251 89.1663 290.316 89.8174C290.382 90.1755 290.438 90.5254 290.487 90.8672C290.552 91.209 290.626 91.5345 290.707 91.8438C290.821 92.3483 291 92.8285 291.244 93.2842C291.488 93.7236 291.781 93.9434 292.123 93.9434C292.416 93.9434 292.733 93.6504 293.075 93.0645C293.238 92.804 293.336 92.625 293.368 92.5273C293.694 91.7135 294.035 91.3066 294.394 91.3066C294.8 91.3066 295.053 92.0391 295.15 93.5039C295.134 93.5365 295.126 93.5771 295.126 93.626V93.7725C295.126 94.3096 294.923 94.9362 294.516 95.6523C294.19 96.1406 293.808 96.5068 293.368 96.751C292.929 96.9788 292.408 97.0928 291.806 97.0928ZM290.951 81.1016C290.821 81.1016 290.699 81.0934 290.585 81.0771H290.512V81.1016H290.951ZM297.885 77.5371C297.852 77.5371 297.608 77.529 297.152 77.5127C296.697 77.4964 296.363 77.0244 296.151 76.0967V74.6562C296.151 74.3633 296.16 74.1517 296.176 74.0215V73.8506C296.339 72.4508 296.965 71.751 298.056 71.751C298.479 71.751 298.853 71.8812 299.179 72.1416C299.618 72.516 299.838 73.1263 299.838 73.9727C299.887 74.3145 299.911 74.6318 299.911 74.9248C299.96 75.2829 299.984 75.6735 299.984 76.0967C299.984 76.2757 299.96 76.4548 299.911 76.6338C299.374 77.236 298.699 77.5371 297.885 77.5371ZM299.569 99.5586C298.788 99.5586 298.145 99.0378 297.641 97.9961C297.234 96.6452 296.933 94.5049 296.737 91.5752L296.664 90.7939C296.599 89.7197 296.558 89.1663 296.542 89.1338C296.428 87.2132 296.379 85.846 296.396 85.0322C296.396 83.9906 296.412 83.1849 296.444 82.6152C296.542 81.7038 296.811 81.0446 297.25 80.6377C297.641 80.2959 298.072 80.125 298.544 80.125C299.146 80.125 299.643 80.3691 300.033 80.8574C300.342 81.2318 300.497 81.7201 300.497 82.3223L300.473 82.6641L300.497 83.958L300.57 85.4717C300.587 85.8135 300.611 86.1471 300.644 86.4727L300.741 88.084C300.806 88.7025 300.855 89.321 300.888 89.9395L301.327 94.4561C301.49 95.7907 301.571 96.8161 301.571 97.5322C301.311 98.8831 300.644 99.5586 299.569 99.5586ZM305.478 99.1191H304.892C304.534 99.1191 304.143 98.5007 303.72 97.2637C303.59 96.6452 303.467 96.0186 303.354 95.3838C303.24 94.749 303.126 94.1061 303.012 93.4551C302.898 92.804 302.8 92.1449 302.719 91.4775C302.475 89.3454 302.328 87.8968 302.279 87.1318C302.133 85.1787 302.06 83.2581 302.06 81.3701C302.06 80.361 302.076 79.5065 302.108 78.8066V78.0986C302.157 76.8779 302.206 75.6572 302.255 74.4365L302.353 72.9961C302.353 72.6706 302.385 72.2799 302.45 71.8242C302.532 71.3522 302.8 70.9697 303.256 70.6768C303.76 70.3675 304.33 70.2129 304.965 70.2129C305.453 70.2129 305.893 70.335 306.283 70.5791C306.674 70.807 306.869 71.2139 306.869 71.7998C306.934 72.5648 306.967 72.9717 306.967 73.0205C306.983 73.0531 307.016 73.5332 307.064 74.4609L307.089 76.707V77.2197V78.8555V83.6162C307.089 84.5439 307.105 85.4635 307.138 86.375L307.162 87.8154L307.211 89.1094C307.211 89.6628 307.227 90.2161 307.26 90.7695L307.357 93.1133C307.357 93.6341 307.423 94.7409 307.553 96.4336L307.577 97.1904C307.577 97.7275 307.561 98.0612 307.528 98.1914C306.861 98.8099 306.177 99.1191 305.478 99.1191ZM310.58 77.5371C310.548 77.5371 310.303 77.529 309.848 77.5127C309.392 77.4964 309.058 77.0244 308.847 76.0967V74.6562C308.847 74.3633 308.855 74.1517 308.871 74.0215V73.8506C309.034 72.4508 309.66 71.751 310.751 71.751C311.174 71.751 311.549 71.8812 311.874 72.1416C312.313 72.516 312.533 73.1263 312.533 73.9727C312.582 74.3145 312.606 74.6318 312.606 74.9248C312.655 75.2829 312.68 75.6735 312.68 76.0967C312.68 76.2757 312.655 76.4548 312.606 76.6338C312.069 77.236 311.394 77.5371 310.58 77.5371ZM312.265 99.5586C311.483 99.5586 310.84 99.0378 310.336 97.9961C309.929 96.6452 309.628 94.5049 309.433 91.5752L309.359 90.7939C309.294 89.7197 309.254 89.1663 309.237 89.1338C309.123 87.2132 309.075 85.846 309.091 85.0322C309.091 83.9906 309.107 83.1849 309.14 82.6152C309.237 81.7038 309.506 81.0446 309.945 80.6377C310.336 80.2959 310.767 80.125 311.239 80.125C311.841 80.125 312.338 80.3691 312.729 80.8574C313.038 81.2318 313.192 81.7201 313.192 82.3223L313.168 82.6641L313.192 83.958L313.266 85.4717C313.282 85.8135 313.306 86.1471 313.339 86.4727L313.437 88.084C313.502 88.7025 313.55 89.321 313.583 89.9395L314.022 94.4561C314.185 95.7907 314.267 96.8161 314.267 97.5322C314.006 98.8831 313.339 99.5586 312.265 99.5586ZM322.372 100.047C320.517 100.047 318.881 99.5505 317.465 98.5576C316.716 98.0368 316.114 97.459 315.658 96.8242C315.154 96.0592 314.885 95.3024 314.853 94.5537C315.064 93.5771 315.495 93.0889 316.146 93.0889C316.179 93.0889 316.374 93.1051 316.732 93.1377C317.107 93.154 317.66 93.4632 318.393 94.0654C318.702 94.4886 319.027 94.8467 319.369 95.1396L319.516 95.2617C319.727 95.4408 319.947 95.5872 320.175 95.7012C320.907 96.1243 321.623 96.3359 322.323 96.3359C322.991 96.3359 323.585 96.0999 324.105 95.6279L324.228 95.1641C324.244 95.0827 324.252 94.9932 324.252 94.8955C324.252 94.5863 324.089 94.2038 323.764 93.748C323.52 93.4062 323.104 93.0075 322.519 92.5518L322.274 92.332L321.591 91.8193L320.663 91.1602L320.297 90.9404C320.069 90.7939 319.825 90.6475 319.564 90.501C319.369 90.4033 318.987 90.1592 318.417 89.7686L318.295 89.6709C317.937 89.4268 317.587 89.1582 317.245 88.8652C316.48 88.1979 315.87 87.4248 315.414 86.5459C314.975 85.667 314.755 84.7148 314.755 83.6895C314.755 82.6315 315.04 81.5898 315.609 80.5645C316.163 79.6042 316.863 78.8555 317.709 78.3184C318.572 77.765 319.589 77.4883 320.761 77.4883C321.916 77.4883 322.942 77.8057 323.837 78.4404C324.439 78.9287 324.887 79.5146 325.18 80.1982C325.424 80.7191 325.546 81.2399 325.546 81.7607C325.546 82.4769 325.31 83.1198 324.838 83.6895C324.333 84.1289 323.902 84.3486 323.544 84.3486C323.528 84.3486 323.422 84.3405 323.227 84.3242C323.031 84.3079 322.681 83.9906 322.177 83.3721C322.112 83.2907 322.079 83.2012 322.079 83.1035V82.7617V82.4199C322.079 82.2734 322.071 82.1921 322.055 82.1758C322.006 82.0781 321.973 82.0212 321.957 82.0049C321.941 81.9723 321.924 81.9479 321.908 81.9316C321.892 81.9154 321.876 81.8991 321.859 81.8828C321.534 81.541 321.233 81.3701 320.956 81.3701C320.386 81.3701 319.939 81.6875 319.613 82.3223C319.418 82.7454 319.32 83.1361 319.32 83.4941C319.32 83.7057 319.369 83.9255 319.467 84.1533C319.63 84.6253 320.077 85.138 320.81 85.6914C320.924 85.8053 321.249 86.0251 321.786 86.3506C321.916 86.4157 322.038 86.4889 322.152 86.5703L323.3 87.2539C324.293 87.9049 324.927 88.3444 325.204 88.5723C326.034 89.2233 326.71 89.8662 327.23 90.501C328.256 91.8031 328.769 93.2028 328.769 94.7002C328.769 95.1071 328.72 95.514 328.622 95.9209C328.183 97.7438 327.003 98.9889 325.082 99.6562C324.219 99.9167 323.316 100.047 322.372 100.047ZM336.288 97.9717C335.344 97.9717 334.4 97.7682 333.456 97.3613C332.431 96.9056 331.576 96.2139 330.893 95.2861C329.802 93.7074 329.257 91.6891 329.257 89.2314C329.257 87.7503 329.436 86.3018 329.794 84.8857C330.152 83.5674 330.608 82.4199 331.161 81.4434C331.731 80.4668 332.431 79.5716 333.261 78.7578C334.107 77.9277 334.994 77.2686 335.922 76.7803C336.866 76.292 337.794 75.9909 338.705 75.877H340.072C340.512 75.8932 340.951 75.9665 341.391 76.0967C343.181 76.764 344.328 78.001 344.833 79.8076C344.996 80.361 345.077 80.9714 345.077 81.6387C345.077 82.7617 344.833 83.8441 344.345 84.8857C344.003 85.6833 343.474 86.5133 342.758 87.376C342.611 87.6038 342.27 87.9701 341.732 88.4746C339.958 90.0208 338.201 91.0951 336.459 91.6973C335.58 91.9902 334.774 92.153 334.042 92.1855C334.058 92.2018 334.075 92.2344 334.091 92.2832C334.107 92.332 334.123 92.389 334.14 92.4541C334.27 92.7308 334.441 92.9912 334.652 93.2354C335.206 93.8538 335.8 94.1631 336.435 94.1631C337.053 94.1631 337.655 93.9922 338.241 93.6504C338.583 93.4714 338.909 93.2842 339.218 93.0889C339.722 92.7633 340.015 92.5599 340.097 92.4785C340.585 92.0391 341.09 91.681 341.61 91.4043L341.781 91.3066C342.042 91.2578 342.294 91.2334 342.538 91.2334C342.88 91.2334 343.246 91.3066 343.637 91.4531C344.044 91.5833 344.288 92.0228 344.369 92.7715C344.271 93.1784 344.101 93.5609 343.856 93.9189C343.629 94.277 343.352 94.6025 343.026 94.8955C341.513 96.2627 339.787 97.2311 337.851 97.8008C337.33 97.9147 336.809 97.9717 336.288 97.9717ZM333.529 89.3291C333.562 89.3291 333.586 89.321 333.603 89.3047C333.765 89.3047 334.115 89.207 334.652 89.0117C335.971 88.4583 337.338 87.5143 338.754 86.1797C339.34 85.5775 339.804 85.0078 340.146 84.4707C340.666 83.5267 340.935 82.6478 340.951 81.834C340.951 81.3457 340.805 80.833 340.512 80.2959C340.365 80.068 340.194 79.9297 339.999 79.8809H340.097H339.633H339.975C339.828 79.832 339.625 79.8076 339.364 79.8076C339.088 79.8402 338.949 79.8646 338.949 79.8809H339.633C339.047 79.8809 338.355 80.1331 337.558 80.6377C336.125 81.6143 335.076 82.9001 334.408 84.4951C333.822 85.8786 333.529 87.4899 333.529 89.3291ZM350.204 97.6055C350.025 97.6055 349.732 97.5566 349.325 97.459C348.658 97.2637 348.121 96.2546 347.714 94.4316L347.323 92.5762L346.957 90.6963C346.859 90.208 346.713 89.3779 346.518 88.2061C346.322 87.0993 346.16 85.9844 346.029 84.8613C345.98 84.2266 345.924 83.5999 345.858 82.9814C345.712 81.2236 345.614 79.6855 345.565 78.3672V77.3174C345.631 76.7965 345.891 76.4141 346.347 76.1699C346.802 75.9095 347.323 75.7793 347.909 75.7793C348.511 75.7793 349.032 75.9095 349.472 76.1699C349.927 76.4141 350.18 76.7803 350.229 77.2686C350.229 77.4476 350.237 77.6104 350.253 77.7568C350.269 77.9033 350.277 78.0579 350.277 78.2207C350.294 78.3835 350.31 78.5462 350.326 78.709L350.399 79.417L350.497 80.7109L350.57 80.6133C351.303 79.6693 352.011 79.0182 352.694 78.6602C353.183 78.3997 353.752 78.2695 354.403 78.2695C355.347 78.2695 356.234 78.5137 357.064 79.002C357.862 79.5879 358.424 80.1006 358.749 80.54C359.075 80.9632 359.392 81.5573 359.701 82.3223L360.116 83.5918L360.434 85.0078C360.515 85.4473 360.556 85.9274 360.556 86.4482C360.556 86.8063 360.491 87.1481 360.36 87.4736C360.295 87.734 360.141 87.9212 359.896 88.0352C359.669 88.1491 359.506 88.2467 359.408 88.3281L359.066 88.5967L357.821 88.7432C357.691 88.6455 357.569 88.5723 357.455 88.5234L356.82 88.3281C356.723 88.3118 356.641 88.2874 356.576 88.2549C356.527 88.2223 356.43 88.1084 356.283 87.9131C355.925 87.3923 355.681 86.6436 355.551 85.667C355.502 85.1787 355.421 84.6986 355.307 84.2266L355.209 83.8115C354.965 82.7699 354.566 82.249 354.013 82.249C353.459 82.249 352.833 82.7536 352.133 83.7627C351.791 84.2998 351.588 84.6986 351.522 84.959C351.295 85.3984 351.156 85.7158 351.107 85.9111L351.059 85.9844C351.091 86.1146 351.107 86.2367 351.107 86.3506L351.474 89.2314L351.596 90.0859L351.718 91.1113L351.84 91.9414C351.84 91.9902 351.848 92.0309 351.864 92.0635C352.108 93.7725 352.23 94.9443 352.23 95.5791C352.149 96.3604 351.848 96.9219 351.327 97.2637C350.969 97.4915 350.595 97.6055 350.204 97.6055ZM375.277 102.635C375.147 102.635 375.025 102.627 374.911 102.61C374.797 102.594 374.618 102.464 374.374 102.22L374.13 101.854C373.821 101.43 373.52 100.747 373.227 99.8027C373.21 99.7051 373.186 99.6156 373.153 99.5342C372.828 98.2972 372.576 96.93 372.396 95.4326C372.364 95.1559 372.348 94.8874 372.348 94.627L372.274 94.7246C371.33 96.0755 370.297 97.0684 369.174 97.7031H369.149C368.303 98.1914 367.408 98.4355 366.464 98.4355C365.032 98.4355 363.827 97.8984 362.851 96.8242C361.646 95.5547 361.044 93.6585 361.044 91.1357C361.174 88.6292 361.898 86.3262 363.217 84.2266C363.9 83.1198 364.633 82.2327 365.414 81.5654C365.414 81.484 365.821 81.1748 366.635 80.6377C367.774 79.9541 369.068 79.6042 370.517 79.5879C371.558 79.5879 372.445 79.832 373.178 80.3203C373.34 80.4017 373.544 80.5645 373.788 80.8086C373.788 80.8249 373.796 80.833 373.812 80.833C374.203 81.2562 374.398 81.6794 374.398 82.1025C374.398 82.3141 374.382 82.4525 374.35 82.5176C374.317 82.5827 374.268 82.6559 374.203 82.7373C373.91 83.0791 373.121 83.25 371.835 83.25H371.518C370.688 83.25 369.931 83.3639 369.247 83.5918C368.352 84.0964 367.546 84.8939 366.83 85.9844C365.805 87.6934 365.259 89.4512 365.194 91.2578C365.194 92.0065 365.308 92.6901 365.536 93.3086C365.78 94.0085 366.155 94.3584 366.659 94.3584C367.115 94.3584 367.799 93.9434 368.71 93.1133C368.71 93.097 368.718 93.0889 368.734 93.0889C369.141 92.7145 369.743 92.0309 370.541 91.0381L371.078 90.3789C371.225 90.151 371.379 89.9395 371.542 89.7441C371.705 89.5488 371.851 89.3454 371.981 89.1338L372.299 88.6455C372.299 88.3851 372.331 88.0921 372.396 87.7666C372.462 87.2946 372.551 86.8551 372.665 86.4482L372.885 86.0332C373.048 85.724 373.422 85.5693 374.008 85.5693C374.171 85.5693 374.382 85.5856 374.643 85.6182C375.229 85.7158 375.521 85.9193 375.521 86.2285L375.497 86.375C375.497 86.3913 375.505 86.4076 375.521 86.4238C375.554 86.4401 375.603 86.4808 375.668 86.5459C375.733 86.6598 375.766 86.847 375.766 87.1074L375.741 87.791L375.717 90.2568C375.717 91.4775 375.749 92.446 375.814 93.1621C375.814 93.4551 375.863 94.1061 375.961 95.1152C376.091 96.0918 376.189 96.7021 376.254 96.9463C376.433 98.0531 376.653 99.0459 376.913 99.9248L376.986 100.169C377.1 100.446 377.165 100.722 377.182 100.999C377.182 101.618 376.938 102.065 376.449 102.342C376.091 102.537 375.701 102.635 375.277 102.635ZM371.591 86.1309C371.575 86.1146 371.55 86.1064 371.518 86.1064C371.501 86.1064 371.485 86.1064 371.469 86.1064C371.452 86.1064 371.444 86.0983 371.444 86.082L371.518 86.0088C371.534 86.0088 371.542 86.0169 371.542 86.0332C371.558 86.0332 371.566 86.0495 371.566 86.082C371.583 86.0983 371.591 86.1146 371.591 86.1309ZM385.312 100.047C383.456 100.047 381.82 99.5505 380.404 98.5576C379.656 98.0368 379.053 97.459 378.598 96.8242C378.093 96.0592 377.825 95.3024 377.792 94.5537C378.004 93.5771 378.435 93.0889 379.086 93.0889C379.118 93.0889 379.314 93.1051 379.672 93.1377C380.046 93.154 380.6 93.4632 381.332 94.0654C381.641 94.4886 381.967 94.8467 382.309 95.1396L382.455 95.2617C382.667 95.4408 382.886 95.5872 383.114 95.7012C383.847 96.1243 384.563 96.3359 385.263 96.3359C385.93 96.3359 386.524 96.0999 387.045 95.6279L387.167 95.1641C387.183 95.0827 387.191 94.9932 387.191 94.8955C387.191 94.5863 387.029 94.2038 386.703 93.748C386.459 93.4062 386.044 93.0075 385.458 92.5518L385.214 92.332L384.53 91.8193L383.603 91.1602L383.236 90.9404C383.008 90.7939 382.764 90.6475 382.504 90.501C382.309 90.4033 381.926 90.1592 381.356 89.7686L381.234 89.6709C380.876 89.4268 380.526 89.1582 380.185 88.8652C379.42 88.1979 378.809 87.4248 378.354 86.5459C377.914 85.667 377.694 84.7148 377.694 83.6895C377.694 82.6315 377.979 81.5898 378.549 80.5645C379.102 79.6042 379.802 78.8555 380.648 78.3184C381.511 77.765 382.528 77.4883 383.7 77.4883C384.856 77.4883 385.881 77.8057 386.776 78.4404C387.379 78.9287 387.826 79.5146 388.119 80.1982C388.363 80.7191 388.485 81.2399 388.485 81.7607C388.485 82.4769 388.249 83.1198 387.777 83.6895C387.273 84.1289 386.841 84.3486 386.483 84.3486C386.467 84.3486 386.361 84.3405 386.166 84.3242C385.971 84.3079 385.621 83.9906 385.116 83.3721C385.051 83.2907 385.019 83.2012 385.019 83.1035V82.7617V82.4199C385.019 82.2734 385.01 82.1921 384.994 82.1758C384.945 82.0781 384.913 82.0212 384.896 82.0049C384.88 81.9723 384.864 81.9479 384.848 81.9316C384.831 81.9154 384.815 81.8991 384.799 81.8828C384.473 81.541 384.172 81.3701 383.896 81.3701C383.326 81.3701 382.878 81.6875 382.553 82.3223C382.357 82.7454 382.26 83.1361 382.26 83.4941C382.26 83.7057 382.309 83.9255 382.406 84.1533C382.569 84.6253 383.017 85.138 383.749 85.6914C383.863 85.8053 384.188 86.0251 384.726 86.3506C384.856 86.4157 384.978 86.4889 385.092 86.5703L386.239 87.2539C387.232 87.9049 387.867 88.3444 388.144 88.5723C388.974 89.2233 389.649 89.8662 390.17 90.501C391.195 91.8031 391.708 93.2028 391.708 94.7002C391.708 95.1071 391.659 95.514 391.562 95.9209C391.122 97.7438 389.942 98.9889 388.021 99.6562C387.159 99.9167 386.256 100.047 385.312 100.047ZM393.124 87.9375C392.782 88.1328 392.538 88.4176 392.392 88.792C392.261 89.1501 392.278 89.4756 392.44 89.7686C392.668 90.1592 393.051 90.4684 393.588 90.6963C394.141 90.9079 394.996 91.0951 396.151 91.2578C397.112 91.3717 398.666 91.4775 400.814 91.5752C402.979 91.6729 405.054 91.738 407.04 91.7705C409.042 91.8031 410.263 91.7868 410.702 91.7217C411.093 91.6077 411.443 91.3962 411.752 91.0869C412.061 90.7614 412.216 90.4521 412.216 90.1592C412.216 90.0127 412.159 89.8418 412.045 89.6465C411.947 89.4512 411.825 89.2803 411.679 89.1338C411.532 88.9873 411.337 88.8734 411.093 88.792C410.849 88.7106 410.425 88.6455 409.823 88.5967C409.221 88.5479 408.301 88.499 407.064 88.4502C405.893 88.3851 404.542 88.3037 403.012 88.2061C401.482 88.1084 400.123 88.0107 398.935 87.9131C397.714 87.8154 396.754 87.7422 396.054 87.6934C395.354 87.6445 394.825 87.6201 394.467 87.6201C394.109 87.6201 393.84 87.6445 393.661 87.6934C393.482 87.7422 393.303 87.8236 393.124 87.9375ZM419.442 97.0928C418.466 97.0928 417.595 96.8079 416.83 96.2383C415.886 95.5384 415.154 94.3584 414.633 92.6982C414.372 91.9658 414.177 91.1439 414.047 90.2324C414.031 90.0697 414.006 89.915 413.974 89.7686L413.852 88.8164C413.852 88.6211 413.835 88.4258 413.803 88.2305C413.721 87.5306 413.681 86.3994 413.681 84.8369L413.729 84.0068C413.746 83.4535 413.786 82.8919 413.852 82.3223C413.917 81.7526 413.965 81.4189 413.998 81.3213C413.77 81.3213 413.314 81.4271 412.631 81.6387L412.118 81.7607L411.801 81.7852C411.638 81.6875 411.459 81.598 411.264 81.5166C410.515 81.2562 410.141 80.9388 410.141 80.5645C410.141 80.3203 410.417 80.0029 410.971 79.6123L411.02 79.5879C411.719 79.1647 412.59 78.8066 413.632 78.5137C414.153 78.3835 414.47 78.3184 414.584 78.3184L414.608 78.1719L414.755 77.6592C414.869 76.9919 415.056 76.3896 415.316 75.8525C415.756 74.9899 416.277 74.5586 416.879 74.5586C417.676 74.5749 418.376 75.1283 418.979 76.2188L418.856 76.8047L418.686 77.6104L418.612 77.9033C418.612 77.9359 418.604 77.9603 418.588 77.9766L418.832 78.001C419.353 78.001 419.784 78.0091 420.126 78.0254C420.468 78.0417 420.801 78.0742 421.127 78.123C421.811 78.1556 422.38 78.2451 422.836 78.3916C423.145 78.6195 423.3 78.9043 423.3 79.2461C423.3 79.3112 423.275 79.4821 423.227 79.7588C423.178 80.0192 422.974 80.3366 422.616 80.7109C422.258 81.0853 421.851 81.305 421.396 81.3701L420.663 81.2969C419.866 81.1992 419.288 81.1423 418.93 81.126L418.148 81.1016L418.124 81.2236C418.091 81.6143 418.051 81.9967 418.002 82.3711C418.002 82.599 417.986 82.7943 417.953 82.957C417.872 84.015 417.831 84.7311 417.831 85.1055L417.782 85.6914C417.782 87.1237 417.807 88.0758 417.855 88.5479C417.855 88.7432 417.888 89.1663 417.953 89.8174C418.018 90.1755 418.075 90.5254 418.124 90.8672C418.189 91.209 418.262 91.5345 418.344 91.8438C418.458 92.3483 418.637 92.8285 418.881 93.2842C419.125 93.7236 419.418 93.9434 419.76 93.9434C420.053 93.9434 420.37 93.6504 420.712 93.0645C420.875 92.804 420.972 92.625 421.005 92.5273C421.33 91.7135 421.672 91.3066 422.03 91.3066C422.437 91.3066 422.689 92.0391 422.787 93.5039C422.771 93.5365 422.763 93.5771 422.763 93.626V93.7725C422.763 94.3096 422.559 94.9362 422.152 95.6523C421.827 96.1406 421.444 96.5068 421.005 96.751C420.565 96.9788 420.045 97.0928 419.442 97.0928ZM418.588 81.1016C418.458 81.1016 418.336 81.0934 418.222 81.0771H418.148V81.1016H418.588ZM431.771 98.3135C430.225 98.3135 428.817 97.8577 427.548 96.9463C426.767 96.2952 426.099 95.514 425.546 94.6025L425.326 94.1875C424.691 93.0807 424.228 91.681 423.935 89.9883C423.869 89.3861 423.821 88.792 423.788 88.2061C423.788 86.9202 423.894 85.7484 424.105 84.6904C424.35 83.3232 424.838 81.8421 425.57 80.2471C426.189 79.0101 426.734 78.1719 427.206 77.7324C427.32 77.651 427.475 77.6104 427.67 77.6104C428.272 77.6104 428.939 77.887 429.672 78.4404C430.421 78.9775 430.795 79.5146 430.795 80.0518C430.795 80.3285 430.673 80.6051 430.429 80.8818C430.119 81.5817 429.859 82.363 429.647 83.2256C429.403 84.2347 429.257 85.2275 429.208 86.2041L429.184 87.0342C429.184 87.9131 429.257 88.6781 429.403 89.3291C429.517 90.0452 429.615 90.444 429.696 90.5254C429.973 91.3392 430.242 91.9821 430.502 92.4541C431.072 93.3656 431.706 93.8213 432.406 93.8213C433.025 93.8213 433.798 93.3981 434.726 92.5518C435.181 92.0635 435.539 91.5671 435.8 91.0625C436.125 90.5091 436.369 89.915 436.532 89.2803C436.793 88.4339 436.923 87.5794 436.923 86.7168C436.923 85.9681 436.866 85.195 436.752 84.3975L436.728 84.3242C436.614 83.6406 436.435 82.9245 436.19 82.1758C435.914 81.2969 435.678 80.654 435.482 80.2471L435.238 79.7344C435.076 79.4414 434.994 79.1973 434.994 79.002C434.994 78.4811 435.214 78.0498 435.653 77.708C436.093 77.3499 436.63 77.1709 437.265 77.1709C438.404 77.1709 439.039 77.7568 439.169 78.9287L439.584 80.1006L439.95 81.3457C440.341 82.9733 440.569 84.2184 440.634 85.0811L440.707 86.79C440.707 87.848 440.544 88.971 440.219 90.1592L439.828 91.3555L439.706 91.6484C439.299 92.6901 438.738 93.6829 438.021 94.627C436.866 96.1569 435.588 97.2148 434.188 97.8008C433.407 98.1426 432.602 98.3135 431.771 98.3135ZM461.85 100.657H461.728C460.604 100.657 459.913 99.0459 459.652 95.8232C458.562 96.4255 457.366 96.7266 456.063 96.7266C453.964 96.7266 452.304 95.9779 451.083 94.4805C450.351 93.5853 449.887 92.5599 449.691 91.4043C449.577 90.8184 449.521 90.1266 449.521 89.3291C449.521 87.7829 449.813 86.2367 450.399 84.6904C450.871 83.6162 451.417 82.721 452.035 82.0049C453.402 80.5075 455.079 79.7588 457.064 79.7588C457.39 79.7588 457.715 79.7751 458.041 79.8076L459.188 80.0762C459.188 79.3763 459.197 78.8066 459.213 78.3672C459.245 77.9277 459.262 77.5046 459.262 77.0977C459.294 76.0234 459.384 74.7051 459.53 73.1426C459.628 72.0358 459.783 70.9697 459.994 69.9443C460.141 69.3096 460.271 68.9027 460.385 68.7236C460.417 68.512 460.507 68.3411 460.653 68.2109C460.963 67.9342 461.345 67.7959 461.801 67.7959C462.24 67.7959 462.606 67.9668 462.899 68.3086C463.013 68.4876 463.087 68.6829 463.119 68.8945L463.144 69.041C463.225 69.3991 463.282 69.7653 463.314 70.1396C463.363 70.7256 463.388 71.4906 463.388 72.4346L463.363 73.3135C463.331 74.4528 463.314 75.5596 463.314 76.6338C463.298 77.0407 463.29 77.6185 463.29 78.3672V84.3486C463.29 85.0811 463.298 85.6833 463.314 86.1553V89.9395L463.412 94.9932L463.461 96.6045C463.461 99.1924 462.924 100.543 461.85 100.657ZM456.332 92.5762C456.397 92.5762 456.454 92.568 456.503 92.5518C456.649 92.5518 456.747 92.5436 456.796 92.5273H456.674C457.081 92.4948 457.593 92.3483 458.212 92.0879C458.31 92.0391 458.415 91.9984 458.529 91.9658C458.985 91.7542 459.245 91.6159 459.311 91.5508H459.335C459.319 91.0299 459.294 90.5173 459.262 90.0127C459.197 88.7269 459.164 86.9772 459.164 84.7637V84.2998C459.132 84.2998 459.099 84.2835 459.066 84.251C458.301 83.8115 457.61 83.5918 456.991 83.5918C456.356 83.5918 455.795 83.8441 455.307 84.3486C454.867 84.7881 454.517 85.3252 454.257 85.96C454.029 86.4971 453.915 86.8714 453.915 87.083C453.752 87.734 453.671 88.4014 453.671 89.085C453.671 89.7035 453.744 90.2406 453.891 90.6963C454.249 91.7705 454.802 92.3809 455.551 92.5273H456.674L456.576 92.5518L456.161 92.5762L455.648 92.5518C455.762 92.568 455.933 92.5762 456.161 92.5762H456.332ZM465.512 66.7217C465.219 68.4469 465.023 69.7734 464.926 70.7012C464.828 71.6289 464.804 72.4183 464.853 73.0693C464.901 73.7041 464.999 74.4609 465.146 75.3398C465.178 75.5189 465.211 75.7061 465.243 75.9014C465.422 76.1455 465.65 76.3571 465.927 76.5361C466.203 76.6989 466.448 76.7803 466.659 76.7803C467.099 76.7803 467.587 76.528 468.124 76.0234C468.661 75.5026 469.052 74.9167 469.296 74.2656C469.54 72.8822 469.589 71.3604 469.442 69.7002C469.296 68.04 468.954 66.6729 468.417 65.5986C468.01 65.3219 467.514 65.2975 466.928 65.5254C466.358 65.7533 465.886 66.152 465.512 66.7217ZM484.75 102.635C484.62 102.635 484.498 102.627 484.384 102.61C484.27 102.594 484.091 102.464 483.847 102.22L483.603 101.854C483.293 101.43 482.992 100.747 482.699 99.8027C482.683 99.7051 482.659 99.6156 482.626 99.5342C482.3 98.2972 482.048 96.93 481.869 95.4326C481.837 95.1559 481.82 94.8874 481.82 94.627L481.747 94.7246C480.803 96.0755 479.77 97.0684 478.646 97.7031H478.622C477.776 98.1914 476.881 98.4355 475.937 98.4355C474.504 98.4355 473.3 97.8984 472.323 96.8242C471.119 95.5547 470.517 93.6585 470.517 91.1357C470.647 88.6292 471.371 86.3262 472.689 84.2266C473.373 83.1198 474.105 82.2327 474.887 81.5654C474.887 81.484 475.294 81.1748 476.107 80.6377C477.247 79.9541 478.541 79.6042 479.989 79.5879C481.031 79.5879 481.918 79.832 482.65 80.3203C482.813 80.4017 483.017 80.5645 483.261 80.8086C483.261 80.8249 483.269 80.833 483.285 80.833C483.676 81.2562 483.871 81.6794 483.871 82.1025C483.871 82.3141 483.855 82.4525 483.822 82.5176C483.79 82.5827 483.741 82.6559 483.676 82.7373C483.383 83.0791 482.593 83.25 481.308 83.25H480.99C480.16 83.25 479.403 83.3639 478.72 83.5918C477.825 84.0964 477.019 84.8939 476.303 85.9844C475.277 87.6934 474.732 89.4512 474.667 91.2578C474.667 92.0065 474.781 92.6901 475.009 93.3086C475.253 94.0085 475.627 94.3584 476.132 94.3584C476.588 94.3584 477.271 93.9434 478.183 93.1133C478.183 93.097 478.191 93.0889 478.207 93.0889C478.614 92.7145 479.216 92.0309 480.014 91.0381L480.551 90.3789C480.697 90.151 480.852 89.9395 481.015 89.7441C481.177 89.5488 481.324 89.3454 481.454 89.1338L481.771 88.6455C481.771 88.3851 481.804 88.0921 481.869 87.7666C481.934 87.2946 482.024 86.8551 482.138 86.4482L482.357 86.0332C482.52 85.724 482.895 85.5693 483.48 85.5693C483.643 85.5693 483.855 85.5856 484.115 85.6182C484.701 85.7158 484.994 85.9193 484.994 86.2285L484.97 86.375C484.97 86.3913 484.978 86.4076 484.994 86.4238C485.027 86.4401 485.076 86.4808 485.141 86.5459C485.206 86.6598 485.238 86.847 485.238 87.1074L485.214 87.791L485.189 90.2568C485.189 91.4775 485.222 92.446 485.287 93.1621C485.287 93.4551 485.336 94.1061 485.434 95.1152C485.564 96.0918 485.661 96.7021 485.727 96.9463C485.906 98.0531 486.125 99.0459 486.386 99.9248L486.459 100.169C486.573 100.446 486.638 100.722 486.654 100.999C486.654 101.618 486.41 102.065 485.922 102.342C485.564 102.537 485.173 102.635 484.75 102.635ZM481.063 86.1309C481.047 86.1146 481.023 86.1064 480.99 86.1064C480.974 86.1064 480.958 86.1064 480.941 86.1064C480.925 86.1064 480.917 86.0983 480.917 86.082L480.99 86.0088C481.007 86.0088 481.015 86.0169 481.015 86.0332C481.031 86.0332 481.039 86.0495 481.039 86.082C481.055 86.0983 481.063 86.1146 481.063 86.1309ZM495.15 98.3135C493.604 98.3135 492.196 97.8577 490.927 96.9463C490.146 96.2952 489.478 95.514 488.925 94.6025L488.705 94.1875C488.07 93.0807 487.606 91.681 487.313 89.9883C487.248 89.3861 487.2 88.792 487.167 88.2061C487.167 86.9202 487.273 85.7484 487.484 84.6904C487.729 83.3232 488.217 81.8421 488.949 80.2471C489.568 79.0101 490.113 78.1719 490.585 77.7324C490.699 77.651 490.854 77.6104 491.049 77.6104C491.651 77.6104 492.318 77.887 493.051 78.4404C493.799 78.9775 494.174 79.5146 494.174 80.0518C494.174 80.3285 494.052 80.6051 493.808 80.8818C493.498 81.5817 493.238 82.363 493.026 83.2256C492.782 84.2347 492.636 85.2275 492.587 86.2041L492.562 87.0342C492.562 87.9131 492.636 88.6781 492.782 89.3291C492.896 90.0452 492.994 90.444 493.075 90.5254C493.352 91.3392 493.62 91.9821 493.881 92.4541C494.451 93.3656 495.085 93.8213 495.785 93.8213C496.404 93.8213 497.177 93.3981 498.104 92.5518C498.56 92.0635 498.918 91.5671 499.179 91.0625C499.504 90.5091 499.748 89.915 499.911 89.2803C500.172 88.4339 500.302 87.5794 500.302 86.7168C500.302 85.9681 500.245 85.195 500.131 84.3975L500.106 84.3242C499.993 83.6406 499.813 82.9245 499.569 82.1758C499.293 81.2969 499.057 80.654 498.861 80.2471L498.617 79.7344C498.454 79.4414 498.373 79.1973 498.373 79.002C498.373 78.4811 498.593 78.0498 499.032 77.708C499.472 77.3499 500.009 77.1709 500.644 77.1709C501.783 77.1709 502.418 77.7568 502.548 78.9287L502.963 80.1006L503.329 81.3457C503.72 82.9733 503.948 84.2184 504.013 85.0811L504.086 86.79C504.086 87.848 503.923 88.971 503.598 90.1592L503.207 91.3555L503.085 91.6484C502.678 92.6901 502.117 93.6829 501.4 94.627C500.245 96.1569 498.967 97.2148 497.567 97.8008C496.786 98.1426 495.98 98.3135 495.15 98.3135ZM511.337 97.0928C510.36 97.0928 509.49 96.8079 508.725 96.2383C507.781 95.5384 507.048 94.3584 506.527 92.6982C506.267 91.9658 506.072 91.1439 505.941 90.2324C505.925 90.0697 505.901 89.915 505.868 89.7686L505.746 88.8164C505.746 88.6211 505.73 88.4258 505.697 88.2305C505.616 87.5306 505.575 86.3994 505.575 84.8369L505.624 84.0068C505.64 83.4535 505.681 82.8919 505.746 82.3223C505.811 81.7526 505.86 81.4189 505.893 81.3213C505.665 81.3213 505.209 81.4271 504.525 81.6387L504.013 81.7607L503.695 81.7852C503.533 81.6875 503.354 81.598 503.158 81.5166C502.41 81.2562 502.035 80.9388 502.035 80.5645C502.035 80.3203 502.312 80.0029 502.865 79.6123L502.914 79.5879C503.614 79.1647 504.485 78.8066 505.526 78.5137C506.047 78.3835 506.365 78.3184 506.479 78.3184L506.503 78.1719L506.649 77.6592C506.763 76.9919 506.951 76.3896 507.211 75.8525C507.65 74.9899 508.171 74.5586 508.773 74.5586C509.571 74.5749 510.271 75.1283 510.873 76.2188L510.751 76.8047L510.58 77.6104L510.507 77.9033C510.507 77.9359 510.499 77.9603 510.482 77.9766L510.727 78.001C511.247 78.001 511.679 78.0091 512.021 78.0254C512.362 78.0417 512.696 78.0742 513.021 78.123C513.705 78.1556 514.275 78.2451 514.73 78.3916C515.04 78.6195 515.194 78.9043 515.194 79.2461C515.194 79.3112 515.17 79.4821 515.121 79.7588C515.072 80.0192 514.869 80.3366 514.511 80.7109C514.153 81.0853 513.746 81.305 513.29 81.3701L512.558 81.2969C511.76 81.1992 511.182 81.1423 510.824 81.126L510.043 81.1016L510.019 81.2236C509.986 81.6143 509.945 81.9967 509.896 82.3711C509.896 82.599 509.88 82.7943 509.848 82.957C509.766 84.015 509.726 84.7311 509.726 85.1055L509.677 85.6914C509.677 87.1237 509.701 88.0758 509.75 88.5479C509.75 88.7432 509.783 89.1663 509.848 89.8174C509.913 90.1755 509.97 90.5254 510.019 90.8672C510.084 91.209 510.157 91.5345 510.238 91.8438C510.352 92.3483 510.531 92.8285 510.775 93.2842C511.02 93.7236 511.312 93.9434 511.654 93.9434C511.947 93.9434 512.265 93.6504 512.606 93.0645C512.769 92.804 512.867 92.625 512.899 92.5273C513.225 91.7135 513.567 91.3066 513.925 91.3066C514.332 91.3066 514.584 92.0391 514.682 93.5039C514.665 93.5365 514.657 93.5771 514.657 93.626V93.7725C514.657 94.3096 514.454 94.9362 514.047 95.6523C513.721 96.1406 513.339 96.5068 512.899 96.751C512.46 96.9788 511.939 97.0928 511.337 97.0928ZM510.482 81.1016C510.352 81.1016 510.23 81.0934 510.116 81.0771H510.043V81.1016H510.482ZM520.321 97.6055C520.142 97.6055 519.849 97.5566 519.442 97.459C518.775 97.2637 518.238 96.2546 517.831 94.4316L517.44 92.5762L517.074 90.6963C516.977 90.208 516.83 89.3779 516.635 88.2061C516.439 87.0993 516.277 85.9844 516.146 84.8613C516.098 84.2266 516.041 83.5999 515.976 82.9814C515.829 81.2236 515.731 79.6855 515.683 78.3672V77.3174C515.748 76.7965 516.008 76.4141 516.464 76.1699C516.92 75.9095 517.44 75.7793 518.026 75.7793C518.629 75.7793 519.149 75.9095 519.589 76.1699C520.045 76.4141 520.297 76.7803 520.346 77.2686C520.346 77.4476 520.354 77.6104 520.37 77.7568C520.386 77.9033 520.395 78.0579 520.395 78.2207C520.411 78.3835 520.427 78.5462 520.443 78.709L520.517 79.417L520.614 80.7109L520.688 80.6133C521.42 79.6693 522.128 79.0182 522.812 78.6602C523.3 78.3997 523.869 78.2695 524.521 78.2695C525.465 78.2695 526.352 78.5137 527.182 79.002C527.979 79.5879 528.541 80.1006 528.866 80.54C529.192 80.9632 529.509 81.5573 529.818 82.3223L530.233 83.5918L530.551 85.0078C530.632 85.4473 530.673 85.9274 530.673 86.4482C530.673 86.8063 530.608 87.1481 530.478 87.4736C530.412 87.734 530.258 87.9212 530.014 88.0352C529.786 88.1491 529.623 88.2467 529.525 88.3281L529.184 88.5967L527.938 88.7432C527.808 88.6455 527.686 88.5723 527.572 88.5234L526.938 88.3281C526.84 88.3118 526.758 88.2874 526.693 88.2549C526.645 88.2223 526.547 88.1084 526.4 87.9131C526.042 87.3923 525.798 86.6436 525.668 85.667C525.619 85.1787 525.538 84.6986 525.424 84.2266L525.326 83.8115C525.082 82.7699 524.683 82.249 524.13 82.249C523.576 82.249 522.95 82.7536 522.25 83.7627C521.908 84.2998 521.705 84.6986 521.64 84.959C521.412 85.3984 521.273 85.7158 521.225 85.9111L521.176 85.9844C521.208 86.1146 521.225 86.2367 521.225 86.3506L521.591 89.2314L521.713 90.0859L521.835 91.1113L521.957 91.9414C521.957 91.9902 521.965 92.0309 521.981 92.0635C522.226 93.7725 522.348 94.9443 522.348 95.5791C522.266 96.3604 521.965 96.9219 521.444 97.2637C521.086 97.4915 520.712 97.6055 520.321 97.6055ZM538.192 97.9717C537.248 97.9717 536.304 97.7682 535.36 97.3613C534.335 96.9056 533.48 96.2139 532.797 95.2861C531.706 93.7074 531.161 91.6891 531.161 89.2314C531.161 87.7503 531.34 86.3018 531.698 84.8857C532.056 83.5674 532.512 82.4199 533.065 81.4434C533.635 80.4668 534.335 79.5716 535.165 78.7578C536.011 77.9277 536.898 77.2686 537.826 76.7803C538.77 76.292 539.698 75.9909 540.609 75.877H541.977C542.416 75.8932 542.855 75.9665 543.295 76.0967C545.085 76.764 546.233 78.001 546.737 79.8076C546.9 80.361 546.981 80.9714 546.981 81.6387C546.981 82.7617 546.737 83.8441 546.249 84.8857C545.907 85.6833 545.378 86.5133 544.662 87.376C544.516 87.6038 544.174 87.9701 543.637 88.4746C541.863 90.0208 540.105 91.0951 538.363 91.6973C537.484 91.9902 536.679 92.153 535.946 92.1855C535.963 92.2018 535.979 92.2344 535.995 92.2832C536.011 92.332 536.028 92.389 536.044 92.4541C536.174 92.7308 536.345 92.9912 536.557 93.2354C537.11 93.8538 537.704 94.1631 538.339 94.1631C538.957 94.1631 539.56 93.9922 540.146 93.6504C540.487 93.4714 540.813 93.2842 541.122 93.0889C541.627 92.7633 541.92 92.5599 542.001 92.4785C542.489 92.0391 542.994 91.681 543.515 91.4043L543.686 91.3066C543.946 91.2578 544.198 91.2334 544.442 91.2334C544.784 91.2334 545.15 91.3066 545.541 91.4531C545.948 91.5833 546.192 92.0228 546.273 92.7715C546.176 93.1784 546.005 93.5609 545.761 93.9189C545.533 94.277 545.256 94.6025 544.931 94.8955C543.417 96.2627 541.692 97.2311 539.755 97.8008C539.234 97.9147 538.713 97.9717 538.192 97.9717ZM535.434 89.3291C535.466 89.3291 535.491 89.321 535.507 89.3047C535.67 89.3047 536.02 89.207 536.557 89.0117C537.875 88.4583 539.242 87.5143 540.658 86.1797C541.244 85.5775 541.708 85.0078 542.05 84.4707C542.571 83.5267 542.839 82.6478 542.855 81.834C542.855 81.3457 542.709 80.833 542.416 80.2959C542.27 80.068 542.099 79.9297 541.903 79.8809H542.001H541.537H541.879C541.732 79.832 541.529 79.8076 541.269 79.8076C540.992 79.8402 540.854 79.8646 540.854 79.8809H541.537C540.951 79.8809 540.259 80.1331 539.462 80.6377C538.03 81.6143 536.98 82.9001 536.312 84.4951C535.727 85.8786 535.434 87.4899 535.434 89.3291ZM555.087 100.047C553.231 100.047 551.596 99.5505 550.18 98.5576C549.431 98.0368 548.829 97.459 548.373 96.8242C547.868 96.0592 547.6 95.3024 547.567 94.5537C547.779 93.5771 548.21 93.0889 548.861 93.0889C548.894 93.0889 549.089 93.1051 549.447 93.1377C549.822 93.154 550.375 93.4632 551.107 94.0654C551.417 94.4886 551.742 94.8467 552.084 95.1396L552.23 95.2617C552.442 95.4408 552.662 95.5872 552.89 95.7012C553.622 96.1243 554.338 96.3359 555.038 96.3359C555.705 96.3359 556.299 96.0999 556.82 95.6279L556.942 95.1641C556.959 95.0827 556.967 94.9932 556.967 94.8955C556.967 94.5863 556.804 94.2038 556.479 93.748C556.234 93.4062 555.819 93.0075 555.233 92.5518L554.989 92.332L554.306 91.8193L553.378 91.1602L553.012 90.9404C552.784 90.7939 552.54 90.6475 552.279 90.501C552.084 90.4033 551.701 90.1592 551.132 89.7686L551.01 89.6709C550.652 89.4268 550.302 89.1582 549.96 88.8652C549.195 88.1979 548.585 87.4248 548.129 86.5459C547.689 85.667 547.47 84.7148 547.47 83.6895C547.47 82.6315 547.755 81.5898 548.324 80.5645C548.878 79.6042 549.577 78.8555 550.424 78.3184C551.286 77.765 552.304 77.4883 553.476 77.4883C554.631 77.4883 555.657 77.8057 556.552 78.4404C557.154 78.9287 557.602 79.5146 557.895 80.1982C558.139 80.7191 558.261 81.2399 558.261 81.7607C558.261 82.4769 558.025 83.1198 557.553 83.6895C557.048 84.1289 556.617 84.3486 556.259 84.3486C556.243 84.3486 556.137 84.3405 555.941 84.3242C555.746 84.3079 555.396 83.9906 554.892 83.3721C554.826 83.2907 554.794 83.2012 554.794 83.1035V82.7617V82.4199C554.794 82.2734 554.786 82.1921 554.77 82.1758C554.721 82.0781 554.688 82.0212 554.672 82.0049C554.656 81.9723 554.639 81.9479 554.623 81.9316C554.607 81.9154 554.59 81.8991 554.574 81.8828C554.249 81.541 553.948 81.3701 553.671 81.3701C553.101 81.3701 552.654 81.6875 552.328 82.3223C552.133 82.7454 552.035 83.1361 552.035 83.4941C552.035 83.7057 552.084 83.9255 552.182 84.1533C552.344 84.6253 552.792 85.138 553.524 85.6914C553.638 85.8053 553.964 86.0251 554.501 86.3506C554.631 86.4157 554.753 86.4889 554.867 86.5703L556.015 87.2539C557.007 87.9049 557.642 88.3444 557.919 88.5723C558.749 89.2233 559.424 89.8662 559.945 90.501C560.971 91.8031 561.483 93.2028 561.483 94.7002C561.483 95.1071 561.435 95.514 561.337 95.9209C560.897 97.7438 559.717 98.9889 557.797 99.6562C556.934 99.9167 556.031 100.047 555.087 100.047ZM572.958 100.633C572.746 100.633 572.478 100.568 572.152 100.438C571.632 100.258 571.168 98.9564 570.761 96.5312C570.598 95.4896 570.468 94.3503 570.37 93.1133C570.305 92.2507 570.272 91.3799 570.272 90.501C570.272 89.3617 570.313 88.2386 570.395 87.1318C570.508 85.6507 570.647 84.4219 570.81 83.4453C570.972 82.3711 571.233 81.3376 571.591 80.3447C572.356 78.2288 573.487 76.8698 574.984 76.2676C575.505 76.0885 575.985 75.999 576.425 75.999C577.58 75.999 578.638 76.5361 579.599 77.6104C580.51 78.6357 581.267 80.2796 581.869 82.542L581.894 82.6152C582.154 81.8991 582.512 81.1585 582.968 80.3936C583.814 79.0426 584.864 78.0335 586.117 77.3662C586.801 77.0407 587.46 76.8779 588.095 76.8779C588.567 76.8779 589.031 76.9756 589.486 77.1709C590.17 77.5127 590.699 77.9847 591.073 78.5869C591.448 79.1891 591.716 79.8564 591.879 80.5889C591.993 81.0446 592.09 81.8014 592.172 82.8594L592.196 84.1289V85.4961C592.196 85.9518 592.172 86.9365 592.123 88.4502C592.107 88.5641 592.099 88.6862 592.099 88.8164L591.977 91.5508L591.952 92.7715C591.952 94.3665 591.863 95.4814 591.684 96.1162C591.342 97.109 590.813 97.6055 590.097 97.6055C589.413 97.6055 588.909 97.1172 588.583 96.1406C588.453 95.6523 588.38 95.1559 588.363 94.6514L588.339 92.7959L588.363 91.4775C588.363 90.8753 588.38 90.3464 588.412 89.8906L588.461 88.3281C588.51 87.8398 588.534 86.8958 588.534 85.4961C588.518 82.6315 588.241 81.1992 587.704 81.1992C587.379 81.1992 586.947 81.8258 586.41 83.0791C586.117 83.6488 585.865 84.2266 585.653 84.8125L585.531 85.1543C585.271 86.0332 585.035 86.904 584.823 87.7666C584.742 88.0758 584.595 88.8083 584.384 89.9639C584.27 90.5335 584.164 91.1113 584.066 91.6973C584.018 92.0553 583.961 92.4053 583.896 92.7471C583.863 92.8773 583.814 93.1702 583.749 93.626C583.716 93.8376 583.66 94.0492 583.578 94.2607C583.48 94.6351 583.253 94.9036 582.895 95.0664L581.479 95.2861C580.909 95.2373 580.51 94.7246 580.282 93.748C579.908 90.7858 579.257 87.8073 578.329 84.8125L578.231 84.4463C577.971 83.5186 577.735 82.7617 577.523 82.1758C577.149 81.4271 576.824 81.0527 576.547 81.0527C576.14 81.0527 575.798 81.8828 575.521 83.543C575.18 85.2357 574.976 87.14 574.911 89.2559L574.887 89.7441C574.887 90.1999 574.895 90.6475 574.911 91.0869C574.976 93.2191 575.041 94.4642 575.106 94.8223C575.237 96.2708 575.359 97.4183 575.473 98.2646L575.595 98.9482C575.562 99.1273 575.367 99.3796 575.009 99.7051C574.667 100.014 574.244 100.267 573.739 100.462C573.463 100.576 573.202 100.633 572.958 100.633ZM599.813 98.0693C598.511 98.0693 597.299 97.6624 596.176 96.8486C595.329 96.1976 594.67 95.3675 594.198 94.3584C593.189 92.4541 592.685 90.3626 592.685 88.084C592.685 86.7493 592.872 85.4229 593.246 84.1045C593.279 84.0394 593.303 83.9661 593.319 83.8848C593.45 83.4128 593.612 82.9489 593.808 82.4932C595.093 80.0518 596.868 78.8311 599.13 78.8311C600.058 78.8311 600.969 79.0508 601.864 79.4902C602.759 79.9297 603.541 80.5726 604.208 81.4189C605.412 82.9489 606.177 84.7148 606.503 86.7168C606.584 87.2376 606.625 87.8398 606.625 88.5234C606.625 88.9141 606.601 89.3128 606.552 89.7197C606.454 90.7777 606.251 91.7461 605.941 92.625C605.535 93.6504 605.128 94.4805 604.721 95.1152C604.216 95.8965 603.59 96.5638 602.841 97.1172C601.864 97.752 600.855 98.0693 599.813 98.0693ZM599.716 93.9922C599.797 93.9922 599.976 93.9352 600.253 93.8213C600.53 93.7074 600.92 93.1947 601.425 92.2832C601.588 92.0228 601.726 91.7461 601.84 91.4531V91.4043C602.133 90.6393 602.32 89.9639 602.401 89.3779L602.426 89.3047C602.475 89.028 602.499 88.7594 602.499 88.499C602.499 87.9945 602.466 87.555 602.401 87.1807C602.304 86.5133 602.084 85.846 601.742 85.1787C601.417 84.4951 601.075 83.9661 600.717 83.5918C600.001 82.9733 599.439 82.6641 599.032 82.6641C598.593 82.6641 598.194 83.0628 597.836 83.8604C597.494 84.6579 597.258 85.5124 597.128 86.4238C597.03 86.9935 596.981 87.5713 596.981 88.1572C596.981 89.7523 597.38 91.2822 598.178 92.7471C598.78 93.5771 599.293 93.9922 599.716 93.9922ZM617.758 110.911C616.716 110.911 615.642 110.651 614.535 110.13C614.031 109.869 613.567 109.544 613.144 109.153C613.111 109.104 613.07 109.064 613.021 109.031C612.81 108.803 612.615 108.559 612.436 108.299C611.768 107.306 611.435 106.37 611.435 105.491C611.435 105.019 611.516 104.555 611.679 104.1C612.151 103.383 612.737 103.025 613.437 103.025C613.485 103.025 613.713 103.042 614.12 103.074C614.527 103.107 614.958 103.546 615.414 104.393C615.447 104.523 615.471 104.661 615.487 104.808V105.149C615.927 106.468 616.61 107.127 617.538 107.127C617.587 107.127 617.872 107.103 618.393 107.054C618.93 107.021 619.288 106.191 619.467 104.563L619.491 103.953C619.491 102.911 619.451 102.033 619.369 101.316C619.369 101.186 619.337 100.73 619.271 99.9492L618.93 96.9463L618.856 96.458C618.466 97.0765 617.961 97.5973 617.343 98.0205C616.513 98.6064 615.618 98.8994 614.657 98.8994C613.371 98.8994 612.224 98.5576 611.215 97.874C610.417 97.3044 609.75 96.5882 609.213 95.7256L609.14 95.6279C608.472 94.4886 607.935 93.0726 607.528 91.3799C607.268 90.208 607.138 89.0199 607.138 87.8154L607.162 86.0576C607.227 84.9671 607.357 83.9092 607.553 82.8838C608.188 80.4587 609.221 79.2461 610.653 79.2461C611.109 79.2461 611.524 79.4251 611.898 79.7832C612.338 80.1901 612.558 80.7679 612.558 81.5166C612.558 81.8584 612.509 82.2327 612.411 82.6396C612.281 83.0303 612.143 83.7627 611.996 84.8369C611.915 85.8786 611.874 86.6842 611.874 87.2539C611.874 87.7096 611.915 88.3688 611.996 89.2314C612.029 89.6872 612.094 90.1429 612.191 90.5986C612.322 91.266 612.566 92.0391 612.924 92.918L612.997 93.04C613.55 94.2933 614.169 94.9199 614.853 94.9199C615.357 94.9199 616.016 94.4316 616.83 93.4551L617.27 92.918C617.497 92.6576 617.709 92.3971 617.904 92.1367L618.246 91.6729V91.6484C618.181 90.8997 618.035 89.6953 617.807 88.0352C617.693 87.2051 617.579 86.1064 617.465 84.7393L617.343 83.2744L617.294 82.9082L617.221 81.248C617.221 81.1341 617.213 81.0283 617.196 80.9307C617.229 80.2145 617.465 79.6774 617.904 79.3193C618.344 78.945 618.889 78.7578 619.54 78.7578C620.028 78.7578 620.476 78.9206 620.883 79.2461C621.306 79.5553 621.526 80.0436 621.542 80.7109C621.575 80.9062 621.599 81.0934 621.615 81.2725C621.632 81.4352 621.648 81.5898 621.664 81.7363L621.762 82.542L621.786 82.9814L622.104 85.9355C622.185 86.4889 622.25 87.0586 622.299 87.6445C622.364 88.2142 622.437 88.792 622.519 89.3779L622.543 89.6953C622.868 92.2181 623.08 93.9027 623.178 94.749L623.715 99.6074L623.837 101.023C623.902 101.723 623.935 102.57 623.935 103.562C623.935 104.93 623.788 106.053 623.495 106.932C623.267 107.68 622.966 108.315 622.592 108.836C622.022 109.601 621.151 110.179 619.979 110.569C619.589 110.716 619.068 110.822 618.417 110.887L617.758 110.911ZM631.454 97.9717C630.51 97.9717 629.566 97.7682 628.622 97.3613C627.597 96.9056 626.742 96.2139 626.059 95.2861C624.968 93.7074 624.423 91.6891 624.423 89.2314C624.423 87.7503 624.602 86.3018 624.96 84.8857C625.318 83.5674 625.774 82.4199 626.327 81.4434C626.897 80.4668 627.597 79.5716 628.427 78.7578C629.273 77.9277 630.16 77.2686 631.088 76.7803C632.032 76.292 632.96 75.9909 633.871 75.877H635.238C635.678 75.8932 636.117 75.9665 636.557 76.0967C638.347 76.764 639.494 78.001 639.999 79.8076C640.162 80.361 640.243 80.9714 640.243 81.6387C640.243 82.7617 639.999 83.8441 639.511 84.8857C639.169 85.6833 638.64 86.5133 637.924 87.376C637.777 87.6038 637.436 87.9701 636.898 88.4746C635.124 90.0208 633.367 91.0951 631.625 91.6973C630.746 91.9902 629.94 92.153 629.208 92.1855C629.224 92.2018 629.241 92.2344 629.257 92.2832C629.273 92.332 629.289 92.389 629.306 92.4541C629.436 92.7308 629.607 92.9912 629.818 93.2354C630.372 93.8538 630.966 94.1631 631.601 94.1631C632.219 94.1631 632.821 93.9922 633.407 93.6504C633.749 93.4714 634.075 93.2842 634.384 93.0889C634.888 92.7633 635.181 92.5599 635.263 92.4785C635.751 92.0391 636.256 91.681 636.776 91.4043L636.947 91.3066C637.208 91.2578 637.46 91.2334 637.704 91.2334C638.046 91.2334 638.412 91.3066 638.803 91.4531C639.21 91.5833 639.454 92.0228 639.535 92.7715C639.438 93.1784 639.267 93.5609 639.022 93.9189C638.795 94.277 638.518 94.6025 638.192 94.8955C636.679 96.2627 634.953 97.2311 633.017 97.8008C632.496 97.9147 631.975 97.9717 631.454 97.9717ZM628.695 89.3291C628.728 89.3291 628.752 89.321 628.769 89.3047C628.931 89.3047 629.281 89.207 629.818 89.0117C631.137 88.4583 632.504 87.5143 633.92 86.1797C634.506 85.5775 634.97 85.0078 635.312 84.4707C635.832 83.5267 636.101 82.6478 636.117 81.834C636.117 81.3457 635.971 80.833 635.678 80.2959C635.531 80.068 635.36 79.9297 635.165 79.8809H635.263H634.799H635.141C634.994 79.832 634.791 79.8076 634.53 79.8076C634.254 79.8402 634.115 79.8646 634.115 79.8809H634.799C634.213 79.8809 633.521 80.1331 632.724 80.6377C631.291 81.6143 630.242 82.9001 629.574 84.4951C628.988 85.8786 628.695 87.4899 628.695 89.3291ZM643.075 99.0703C642.668 99.0703 642.221 98.9238 641.732 98.6309C641.26 98.3216 640.984 97.7438 640.902 96.8975C640.788 95.8232 640.731 94.2282 640.731 92.1123L640.756 91.5752C640.772 90.3382 640.821 89.0605 640.902 87.7422C640.902 87.4492 640.919 87.1481 640.951 86.8389C641 85.5205 641.171 84.1696 641.464 82.7861L641.757 81.6875C641.968 80.9388 642.27 80.2959 642.66 79.7588C643.262 78.8636 644.084 78.416 645.126 78.416C645.419 78.416 645.72 78.4567 646.029 78.5381C646.648 78.766 647.234 79.1729 647.787 79.7588C648.129 80.1331 648.511 80.654 648.935 81.3213C649.423 82.0537 649.879 82.8594 650.302 83.7383L650.595 84.3486C650.725 84.609 650.847 84.8776 650.961 85.1543C651.303 85.9193 651.514 86.432 651.596 86.6924C651.921 87.4248 652.141 87.9619 652.255 88.3037L653.427 91.1357L653.524 89.7197C653.573 88.9385 653.598 88.2467 653.598 87.6445L653.622 86.7656L653.598 86.3018C653.598 85.667 653.59 85.2438 653.573 85.0322C653.573 84.1045 653.598 83.3232 653.646 82.6885V81.6387L653.622 81.2969C653.622 81.069 653.646 80.8411 653.695 80.6133C653.988 79.7018 654.468 79.2461 655.136 79.2461C655.673 79.2461 656.12 79.6367 656.479 80.418C656.592 80.7272 656.674 81.069 656.723 81.4434C656.771 81.8177 656.861 82.3141 656.991 82.9326C657.219 84.0068 657.366 85.0729 657.431 86.1309L657.577 87.498C657.74 88.6536 657.829 89.7767 657.846 90.8672C657.846 91.1927 657.805 91.8356 657.724 92.7959L657.699 92.8691C657.585 94.3014 657.219 95.4489 656.601 96.3115C655.95 97.1579 655.111 97.5811 654.086 97.5811C653.077 97.5811 652.198 97.166 651.449 96.3359C650.945 95.8639 650.432 95.1234 649.911 94.1143C649.341 92.9749 648.699 91.4775 647.982 89.6221C647.95 89.5081 647.901 89.3861 647.836 89.2559C647.787 89.1094 647.437 88.1898 646.786 86.4971C646.786 86.4645 646.778 86.4401 646.762 86.4238C646.485 85.61 646.16 84.8451 645.785 84.1289L645.712 83.9824L645.321 87.1074C645.321 87.2051 645.313 87.2946 645.297 87.376C645.232 88.2061 645.183 89.0117 645.15 89.793C645.15 90.0208 645.118 90.8184 645.053 92.1855C645.004 93.8294 644.963 94.9362 644.931 95.5059L644.833 97.0195C644.817 97.2637 644.792 97.4997 644.76 97.7275C644.548 98.6227 643.987 99.0703 643.075 99.0703ZM665.976 100.047C664.12 100.047 662.484 99.5505 661.068 98.5576C660.32 98.0368 659.717 97.459 659.262 96.8242C658.757 96.0592 658.489 95.3024 658.456 94.5537C658.668 93.5771 659.099 93.0889 659.75 93.0889C659.783 93.0889 659.978 93.1051 660.336 93.1377C660.71 93.154 661.264 93.4632 661.996 94.0654C662.305 94.4886 662.631 94.8467 662.973 95.1396L663.119 95.2617C663.331 95.4408 663.55 95.5872 663.778 95.7012C664.511 96.1243 665.227 96.3359 665.927 96.3359C666.594 96.3359 667.188 96.0999 667.709 95.6279L667.831 95.1641C667.847 95.0827 667.855 94.9932 667.855 94.8955C667.855 94.5863 667.693 94.2038 667.367 93.748C667.123 93.4062 666.708 93.0075 666.122 92.5518L665.878 92.332L665.194 91.8193L664.267 91.1602L663.9 90.9404C663.673 90.7939 663.428 90.6475 663.168 90.501C662.973 90.4033 662.59 90.1592 662.021 89.7686L661.898 89.6709C661.54 89.4268 661.19 89.1582 660.849 88.8652C660.084 88.1979 659.473 87.4248 659.018 86.5459C658.578 85.667 658.358 84.7148 658.358 83.6895C658.358 82.6315 658.643 81.5898 659.213 80.5645C659.766 79.6042 660.466 78.8555 661.312 78.3184C662.175 77.765 663.192 77.4883 664.364 77.4883C665.52 77.4883 666.545 77.8057 667.44 78.4404C668.043 78.9287 668.49 79.5146 668.783 80.1982C669.027 80.7191 669.149 81.2399 669.149 81.7607C669.149 82.4769 668.913 83.1198 668.441 83.6895C667.937 84.1289 667.506 84.3486 667.147 84.3486C667.131 84.3486 667.025 84.3405 666.83 84.3242C666.635 84.3079 666.285 83.9906 665.78 83.3721C665.715 83.2907 665.683 83.2012 665.683 83.1035V82.7617V82.4199C665.683 82.2734 665.674 82.1921 665.658 82.1758C665.609 82.0781 665.577 82.0212 665.561 82.0049C665.544 81.9723 665.528 81.9479 665.512 81.9316C665.495 81.9154 665.479 81.8991 665.463 81.8828C665.137 81.541 664.836 81.3701 664.56 81.3701C663.99 81.3701 663.542 81.6875 663.217 82.3223C663.021 82.7454 662.924 83.1361 662.924 83.4941C662.924 83.7057 662.973 83.9255 663.07 84.1533C663.233 84.6253 663.681 85.138 664.413 85.6914C664.527 85.8053 664.853 86.0251 665.39 86.3506C665.52 86.4157 665.642 86.4889 665.756 86.5703L666.903 87.2539C667.896 87.9049 668.531 88.3444 668.808 88.5723C669.638 89.2233 670.313 89.8662 670.834 90.501C671.859 91.8031 672.372 93.2028 672.372 94.7002C672.372 95.1071 672.323 95.514 672.226 95.9209C671.786 97.7438 670.606 98.9889 668.686 99.6562C667.823 99.9167 666.92 100.047 665.976 100.047ZM693.49 100.657H693.368C692.245 100.657 691.553 99.0459 691.293 95.8232C690.202 96.4255 689.006 96.7266 687.704 96.7266C685.604 96.7266 683.944 95.9779 682.724 94.4805C681.991 93.5853 681.527 92.5599 681.332 91.4043C681.218 90.8184 681.161 90.1266 681.161 89.3291C681.161 87.7829 681.454 86.2367 682.04 84.6904C682.512 83.6162 683.057 82.721 683.676 82.0049C685.043 80.5075 686.719 79.7588 688.705 79.7588C689.031 79.7588 689.356 79.7751 689.682 79.8076L690.829 80.0762C690.829 79.3763 690.837 78.8066 690.854 78.3672C690.886 77.9277 690.902 77.5046 690.902 77.0977C690.935 76.0234 691.024 74.7051 691.171 73.1426C691.269 72.0358 691.423 70.9697 691.635 69.9443C691.781 69.3096 691.911 68.9027 692.025 68.7236C692.058 68.512 692.147 68.3411 692.294 68.2109C692.603 67.9342 692.986 67.7959 693.441 67.7959C693.881 67.7959 694.247 67.9668 694.54 68.3086C694.654 68.4876 694.727 68.6829 694.76 68.8945L694.784 69.041C694.866 69.3991 694.923 69.7653 694.955 70.1396C695.004 70.7256 695.028 71.4906 695.028 72.4346L695.004 73.3135C694.971 74.4528 694.955 75.5596 694.955 76.6338C694.939 77.0407 694.931 77.6185 694.931 78.3672V84.3486C694.931 85.0811 694.939 85.6833 694.955 86.1553V89.9395L695.053 94.9932L695.102 96.6045C695.102 99.1924 694.564 100.543 693.49 100.657ZM687.973 92.5762C688.038 92.5762 688.095 92.568 688.144 92.5518C688.29 92.5518 688.388 92.5436 688.437 92.5273H688.314C688.721 92.4948 689.234 92.3483 689.853 92.0879C689.95 92.0391 690.056 91.9984 690.17 91.9658C690.626 91.7542 690.886 91.6159 690.951 91.5508H690.976C690.959 91.0299 690.935 90.5173 690.902 90.0127C690.837 88.7269 690.805 86.9772 690.805 84.7637V84.2998C690.772 84.2998 690.74 84.2835 690.707 84.251C689.942 83.8115 689.25 83.5918 688.632 83.5918C687.997 83.5918 687.436 83.8441 686.947 84.3486C686.508 84.7881 686.158 85.3252 685.897 85.96C685.67 86.4971 685.556 86.8714 685.556 87.083C685.393 87.734 685.312 88.4014 685.312 89.085C685.312 89.7035 685.385 90.2406 685.531 90.6963C685.889 91.7705 686.443 92.3809 687.191 92.5273H688.314L688.217 92.5518L687.802 92.5762L687.289 92.5518C687.403 92.568 687.574 92.5762 687.802 92.5762H687.973ZM703.28 97.9717C702.336 97.9717 701.392 97.7682 700.448 97.3613C699.423 96.9056 698.568 96.2139 697.885 95.2861C696.794 93.7074 696.249 91.6891 696.249 89.2314C696.249 87.7503 696.428 86.3018 696.786 84.8857C697.144 83.5674 697.6 82.4199 698.153 81.4434C698.723 80.4668 699.423 79.5716 700.253 78.7578C701.099 77.9277 701.986 77.2686 702.914 76.7803C703.858 76.292 704.786 75.9909 705.697 75.877H707.064C707.504 75.8932 707.943 75.9665 708.383 76.0967C710.173 76.764 711.321 78.001 711.825 79.8076C711.988 80.361 712.069 80.9714 712.069 81.6387C712.069 82.7617 711.825 83.8441 711.337 84.8857C710.995 85.6833 710.466 86.5133 709.75 87.376C709.604 87.6038 709.262 87.9701 708.725 88.4746C706.951 90.0208 705.193 91.0951 703.451 91.6973C702.572 91.9902 701.767 92.153 701.034 92.1855C701.05 92.2018 701.067 92.2344 701.083 92.2832C701.099 92.332 701.116 92.389 701.132 92.4541C701.262 92.7308 701.433 92.9912 701.645 93.2354C702.198 93.8538 702.792 94.1631 703.427 94.1631C704.045 94.1631 704.647 93.9922 705.233 93.6504C705.575 93.4714 705.901 93.2842 706.21 93.0889C706.715 92.7633 707.007 92.5599 707.089 92.4785C707.577 92.0391 708.082 91.681 708.603 91.4043L708.773 91.3066C709.034 91.2578 709.286 91.2334 709.53 91.2334C709.872 91.2334 710.238 91.3066 710.629 91.4531C711.036 91.5833 711.28 92.0228 711.361 92.7715C711.264 93.1784 711.093 93.5609 710.849 93.9189C710.621 94.277 710.344 94.6025 710.019 94.8955C708.505 96.2627 706.78 97.2311 704.843 97.8008C704.322 97.9147 703.801 97.9717 703.28 97.9717ZM700.521 89.3291C700.554 89.3291 700.578 89.321 700.595 89.3047C700.757 89.3047 701.107 89.207 701.645 89.0117C702.963 88.4583 704.33 87.5143 705.746 86.1797C706.332 85.5775 706.796 85.0078 707.138 84.4707C707.659 83.5267 707.927 82.6478 707.943 81.834C707.943 81.3457 707.797 80.833 707.504 80.2959C707.357 80.068 707.187 79.9297 706.991 79.8809H707.089H706.625H706.967C706.82 79.832 706.617 79.8076 706.356 79.8076C706.08 79.8402 705.941 79.8646 705.941 79.8809H706.625C706.039 79.8809 705.347 80.1331 704.55 80.6377C703.118 81.6143 702.068 82.9001 701.4 84.4951C700.814 85.8786 700.521 87.4899 700.521 89.3291ZM727.597 97.0928C726.62 97.0928 725.749 96.8079 724.984 96.2383C724.04 95.5384 723.308 94.3584 722.787 92.6982C722.527 91.9658 722.331 91.1439 722.201 90.2324C722.185 90.0697 722.16 89.915 722.128 89.7686L722.006 88.8164C722.006 88.6211 721.99 88.4258 721.957 88.2305C721.876 87.5306 721.835 86.3994 721.835 84.8369L721.884 84.0068C721.9 83.4535 721.941 82.8919 722.006 82.3223C722.071 81.7526 722.12 81.4189 722.152 81.3213C721.924 81.3213 721.469 81.4271 720.785 81.6387L720.272 81.7607L719.955 81.7852C719.792 81.6875 719.613 81.598 719.418 81.5166C718.669 81.2562 718.295 80.9388 718.295 80.5645C718.295 80.3203 718.572 80.0029 719.125 79.6123L719.174 79.5879C719.874 79.1647 720.744 78.8066 721.786 78.5137C722.307 78.3835 722.624 78.3184 722.738 78.3184L722.763 78.1719L722.909 77.6592C723.023 76.9919 723.21 76.3896 723.471 75.8525C723.91 74.9899 724.431 74.5586 725.033 74.5586C725.831 74.5749 726.531 75.1283 727.133 76.2188L727.011 76.8047L726.84 77.6104L726.767 77.9033C726.767 77.9359 726.758 77.9603 726.742 77.9766L726.986 78.001C727.507 78.001 727.938 78.0091 728.28 78.0254C728.622 78.0417 728.956 78.0742 729.281 78.123C729.965 78.1556 730.535 78.2451 730.99 78.3916C731.299 78.6195 731.454 78.9043 731.454 79.2461C731.454 79.3112 731.43 79.4821 731.381 79.7588C731.332 80.0192 731.129 80.3366 730.771 80.7109C730.412 81.0853 730.006 81.305 729.55 81.3701L728.817 81.2969C728.02 81.1992 727.442 81.1423 727.084 81.126L726.303 81.1016L726.278 81.2236C726.246 81.6143 726.205 81.9967 726.156 82.3711C726.156 82.599 726.14 82.7943 726.107 82.957C726.026 84.015 725.985 84.7311 725.985 85.1055L725.937 85.6914C725.937 87.1237 725.961 88.0758 726.01 88.5479C726.01 88.7432 726.042 89.1663 726.107 89.8174C726.173 90.1755 726.229 90.5254 726.278 90.8672C726.343 91.209 726.417 91.5345 726.498 91.8438C726.612 92.3483 726.791 92.8285 727.035 93.2842C727.279 93.7236 727.572 93.9434 727.914 93.9434C728.207 93.9434 728.524 93.6504 728.866 93.0645C729.029 92.804 729.127 92.625 729.159 92.5273C729.485 91.7135 729.826 91.3066 730.185 91.3066C730.591 91.3066 730.844 92.0391 730.941 93.5039C730.925 93.5365 730.917 93.5771 730.917 93.626V93.7725C730.917 94.3096 730.714 94.9362 730.307 95.6523C729.981 96.1406 729.599 96.5068 729.159 96.751C728.72 96.9788 728.199 97.0928 727.597 97.0928ZM726.742 81.1016C726.612 81.1016 726.49 81.0934 726.376 81.0771H726.303V81.1016H726.742ZM736.581 97.6055C736.402 97.6055 736.109 97.5566 735.702 97.459C735.035 97.2637 734.498 96.2546 734.091 94.4316L733.7 92.5762L733.334 90.6963C733.236 90.208 733.09 89.3779 732.895 88.2061C732.699 87.0993 732.536 85.9844 732.406 84.8613C732.357 84.2266 732.3 83.5999 732.235 82.9814C732.089 81.2236 731.991 79.6855 731.942 78.3672V77.3174C732.007 76.7965 732.268 76.4141 732.724 76.1699C733.179 75.9095 733.7 75.7793 734.286 75.7793C734.888 75.7793 735.409 75.9095 735.849 76.1699C736.304 76.4141 736.557 76.7803 736.605 77.2686C736.605 77.4476 736.614 77.6104 736.63 77.7568C736.646 77.9033 736.654 78.0579 736.654 78.2207C736.671 78.3835 736.687 78.5462 736.703 78.709L736.776 79.417L736.874 80.7109L736.947 80.6133C737.68 79.6693 738.388 79.0182 739.071 78.6602C739.56 78.3997 740.129 78.2695 740.78 78.2695C741.724 78.2695 742.611 78.5137 743.441 79.002C744.239 79.5879 744.8 80.1006 745.126 80.54C745.451 80.9632 745.769 81.5573 746.078 82.3223L746.493 83.5918L746.811 85.0078C746.892 85.4473 746.933 85.9274 746.933 86.4482C746.933 86.8063 746.868 87.1481 746.737 87.4736C746.672 87.734 746.518 87.9212 746.273 88.0352C746.046 88.1491 745.883 88.2467 745.785 88.3281L745.443 88.5967L744.198 88.7432C744.068 88.6455 743.946 88.5723 743.832 88.5234L743.197 88.3281C743.1 88.3118 743.018 88.2874 742.953 88.2549C742.904 88.2223 742.807 88.1084 742.66 87.9131C742.302 87.3923 742.058 86.6436 741.928 85.667C741.879 85.1787 741.798 84.6986 741.684 84.2266L741.586 83.8115C741.342 82.7699 740.943 82.249 740.39 82.249C739.836 82.249 739.21 82.7536 738.51 83.7627C738.168 84.2998 737.965 84.6986 737.899 84.959C737.672 85.3984 737.533 85.7158 737.484 85.9111L737.436 85.9844C737.468 86.1146 737.484 86.2367 737.484 86.3506L737.851 89.2314L737.973 90.0859L738.095 91.1113L738.217 91.9414C738.217 91.9902 738.225 92.0309 738.241 92.0635C738.485 93.7725 738.607 94.9443 738.607 95.5791C738.526 96.3604 738.225 96.9219 737.704 97.2637C737.346 97.4915 736.972 97.6055 736.581 97.6055ZM761.654 102.635C761.524 102.635 761.402 102.627 761.288 102.61C761.174 102.594 760.995 102.464 760.751 102.22L760.507 101.854C760.198 101.43 759.896 100.747 759.604 99.8027C759.587 99.7051 759.563 99.6156 759.53 99.5342C759.205 98.2972 758.952 96.93 758.773 95.4326C758.741 95.1559 758.725 94.8874 758.725 94.627L758.651 94.7246C757.707 96.0755 756.674 97.0684 755.551 97.7031H755.526C754.68 98.1914 753.785 98.4355 752.841 98.4355C751.409 98.4355 750.204 97.8984 749.228 96.8242C748.023 95.5547 747.421 93.6585 747.421 91.1357C747.551 88.6292 748.275 86.3262 749.594 84.2266C750.277 83.1198 751.01 82.2327 751.791 81.5654C751.791 81.484 752.198 81.1748 753.012 80.6377C754.151 79.9541 755.445 79.6042 756.894 79.5879C757.935 79.5879 758.822 79.832 759.555 80.3203C759.717 80.4017 759.921 80.5645 760.165 80.8086C760.165 80.8249 760.173 80.833 760.189 80.833C760.58 81.2562 760.775 81.6794 760.775 82.1025C760.775 82.3141 760.759 82.4525 760.727 82.5176C760.694 82.5827 760.645 82.6559 760.58 82.7373C760.287 83.0791 759.498 83.25 758.212 83.25H757.895C757.064 83.25 756.308 83.3639 755.624 83.5918C754.729 84.0964 753.923 84.8939 753.207 85.9844C752.182 87.6934 751.636 89.4512 751.571 91.2578C751.571 92.0065 751.685 92.6901 751.913 93.3086C752.157 94.0085 752.532 94.3584 753.036 94.3584C753.492 94.3584 754.175 93.9434 755.087 93.1133C755.087 93.097 755.095 93.0889 755.111 93.0889C755.518 92.7145 756.12 92.0309 756.918 91.0381L757.455 90.3789C757.602 90.151 757.756 89.9395 757.919 89.7441C758.082 89.5488 758.228 89.3454 758.358 89.1338L758.676 88.6455C758.676 88.3851 758.708 88.0921 758.773 87.7666C758.839 87.2946 758.928 86.8551 759.042 86.4482L759.262 86.0332C759.424 85.724 759.799 85.5693 760.385 85.5693C760.548 85.5693 760.759 85.5856 761.02 85.6182C761.605 85.7158 761.898 85.9193 761.898 86.2285L761.874 86.375C761.874 86.3913 761.882 86.4076 761.898 86.4238C761.931 86.4401 761.98 86.4808 762.045 86.5459C762.11 86.6598 762.143 86.847 762.143 87.1074L762.118 87.791L762.094 90.2568C762.094 91.4775 762.126 92.446 762.191 93.1621C762.191 93.4551 762.24 94.1061 762.338 95.1152C762.468 96.0918 762.566 96.7021 762.631 96.9463C762.81 98.0531 763.03 99.0459 763.29 99.9248L763.363 100.169C763.477 100.446 763.542 100.722 763.559 100.999C763.559 101.618 763.314 102.065 762.826 102.342C762.468 102.537 762.077 102.635 761.654 102.635ZM757.968 86.1309C757.951 86.1146 757.927 86.1064 757.895 86.1064C757.878 86.1064 757.862 86.1064 757.846 86.1064C757.829 86.1064 757.821 86.0983 757.821 86.082L757.895 86.0088C757.911 86.0088 757.919 86.0169 757.919 86.0332C757.935 86.0332 757.943 86.0495 757.943 86.082C757.96 86.0983 757.968 86.1146 757.968 86.1309ZM766.415 99.0703C766.008 99.0703 765.561 98.9238 765.072 98.6309C764.6 98.3216 764.324 97.7438 764.242 96.8975C764.128 95.8232 764.071 94.2282 764.071 92.1123L764.096 91.5752C764.112 90.3382 764.161 89.0605 764.242 87.7422C764.242 87.4492 764.258 87.1481 764.291 86.8389C764.34 85.5205 764.511 84.1696 764.804 82.7861L765.097 81.6875C765.308 80.9388 765.609 80.2959 766 79.7588C766.602 78.8636 767.424 78.416 768.466 78.416C768.759 78.416 769.06 78.4567 769.369 78.5381C769.988 78.766 770.574 79.1729 771.127 79.7588C771.469 80.1331 771.851 80.654 772.274 81.3213C772.763 82.0537 773.218 82.8594 773.642 83.7383L773.935 84.3486C774.065 84.609 774.187 84.8776 774.301 85.1543C774.643 85.9193 774.854 86.432 774.936 86.6924C775.261 87.4248 775.481 87.9619 775.595 88.3037L776.767 91.1357L776.864 89.7197C776.913 88.9385 776.938 88.2467 776.938 87.6445L776.962 86.7656L776.938 86.3018C776.938 85.667 776.929 85.2438 776.913 85.0322C776.913 84.1045 776.938 83.3232 776.986 82.6885V81.6387L776.962 81.2969C776.962 81.069 776.986 80.8411 777.035 80.6133C777.328 79.7018 777.808 79.2461 778.476 79.2461C779.013 79.2461 779.46 79.6367 779.818 80.418C779.932 80.7272 780.014 81.069 780.062 81.4434C780.111 81.8177 780.201 82.3141 780.331 82.9326C780.559 84.0068 780.705 85.0729 780.771 86.1309L780.917 87.498C781.08 88.6536 781.169 89.7767 781.186 90.8672C781.186 91.1927 781.145 91.8356 781.063 92.7959L781.039 92.8691C780.925 94.3014 780.559 95.4489 779.94 96.3115C779.289 97.1579 778.451 97.5811 777.426 97.5811C776.417 97.5811 775.538 97.166 774.789 96.3359C774.285 95.8639 773.772 95.1234 773.251 94.1143C772.681 92.9749 772.038 91.4775 771.322 89.6221C771.29 89.5081 771.241 89.3861 771.176 89.2559C771.127 89.1094 770.777 88.1898 770.126 86.4971C770.126 86.4645 770.118 86.4401 770.102 86.4238C769.825 85.61 769.499 84.8451 769.125 84.1289L769.052 83.9824L768.661 87.1074C768.661 87.2051 768.653 87.2946 768.637 87.376C768.572 88.2061 768.523 89.0117 768.49 89.793C768.49 90.0208 768.458 90.8184 768.393 92.1855C768.344 93.8294 768.303 94.9362 768.271 95.5059L768.173 97.0195C768.157 97.2637 768.132 97.4997 768.1 97.7275C767.888 98.6227 767.326 99.0703 766.415 99.0703ZM789.315 100.047C787.46 100.047 785.824 99.5505 784.408 98.5576C783.66 98.0368 783.057 97.459 782.602 96.8242C782.097 96.0592 781.828 95.3024 781.796 94.5537C782.007 93.5771 782.439 93.0889 783.09 93.0889C783.122 93.0889 783.318 93.1051 783.676 93.1377C784.05 93.154 784.604 93.4632 785.336 94.0654C785.645 94.4886 785.971 94.8467 786.312 95.1396L786.459 95.2617C786.671 95.4408 786.89 95.5872 787.118 95.7012C787.851 96.1243 788.567 96.3359 789.267 96.3359C789.934 96.3359 790.528 96.0999 791.049 95.6279L791.171 95.1641C791.187 95.0827 791.195 94.9932 791.195 94.8955C791.195 94.5863 791.033 94.2038 790.707 93.748C790.463 93.4062 790.048 93.0075 789.462 92.5518L789.218 92.332L788.534 91.8193L787.606 91.1602L787.24 90.9404C787.012 90.7939 786.768 90.6475 786.508 90.501C786.312 90.4033 785.93 90.1592 785.36 89.7686L785.238 89.6709C784.88 89.4268 784.53 89.1582 784.188 88.8652C783.424 88.1979 782.813 87.4248 782.357 86.5459C781.918 85.667 781.698 84.7148 781.698 83.6895C781.698 82.6315 781.983 81.5898 782.553 80.5645C783.106 79.6042 783.806 78.8555 784.652 78.3184C785.515 77.765 786.532 77.4883 787.704 77.4883C788.86 77.4883 789.885 77.8057 790.78 78.4404C791.382 78.9287 791.83 79.5146 792.123 80.1982C792.367 80.7191 792.489 81.2399 792.489 81.7607C792.489 82.4769 792.253 83.1198 791.781 83.6895C791.277 84.1289 790.845 84.3486 790.487 84.3486C790.471 84.3486 790.365 84.3405 790.17 84.3242C789.975 84.3079 789.625 83.9906 789.12 83.3721C789.055 83.2907 789.022 83.2012 789.022 83.1035V82.7617V82.4199C789.022 82.2734 789.014 82.1921 788.998 82.1758C788.949 82.0781 788.917 82.0212 788.9 82.0049C788.884 81.9723 788.868 81.9479 788.852 81.9316C788.835 81.9154 788.819 81.8991 788.803 81.8828C788.477 81.541 788.176 81.3701 787.899 81.3701C787.33 81.3701 786.882 81.6875 786.557 82.3223C786.361 82.7454 786.264 83.1361 786.264 83.4941C786.264 83.7057 786.312 83.9255 786.41 84.1533C786.573 84.6253 787.021 85.138 787.753 85.6914C787.867 85.8053 788.192 86.0251 788.729 86.3506C788.86 86.4157 788.982 86.4889 789.096 86.5703L790.243 87.2539C791.236 87.9049 791.871 88.3444 792.147 88.5723C792.978 89.2233 793.653 89.8662 794.174 90.501C795.199 91.8031 795.712 93.2028 795.712 94.7002C795.712 95.1071 795.663 95.514 795.565 95.9209C795.126 97.7438 793.946 98.9889 792.025 99.6562C791.163 99.9167 790.259 100.047 789.315 100.047ZM799.862 103.807C799.016 103.807 798.332 103.123 797.812 101.756C797.698 101.333 797.6 100.91 797.519 100.486L797.445 100.071C797.12 98.3623 796.884 96.7754 796.737 95.3105C796.575 94.2038 796.412 92.2181 796.249 89.3535C796.216 88.4746 796.2 87.4736 796.2 86.3506C796.2 84.2673 796.314 82.5094 796.542 81.0771C796.672 80.0355 796.884 79.0833 797.177 78.2207C797.698 76.9512 798.34 76.3164 799.105 76.3164C799.659 76.3164 800.115 76.5605 800.473 77.0488C800.831 77.5208 801.01 78.0824 801.01 78.7334L800.985 79.0752L800.814 80.125C800.814 80.2552 800.798 80.3854 800.766 80.5156C801.954 79.832 803.215 79.4902 804.55 79.4902C805.966 79.4902 807.154 79.8483 808.114 80.5645C808.847 81.069 809.473 81.7689 809.994 82.6641C810.482 83.4941 810.808 84.4382 810.971 85.4961C811.02 85.9844 811.044 86.554 811.044 87.2051C811.044 88.0189 810.946 88.8327 810.751 89.6465C810.621 90.4277 810.385 91.1764 810.043 91.8926L809.921 92.1367L809.506 92.918C809.083 93.5527 808.586 94.0654 808.017 94.4561C806.991 95.221 805.868 95.6035 804.647 95.6035C803.769 95.6035 802.857 95.3919 801.913 94.9688L800.961 94.4561L801.376 97.7764C801.409 98.0531 801.449 98.3379 801.498 98.6309C801.547 98.9238 801.588 99.2168 801.62 99.5098L801.718 100.169C801.783 100.494 801.832 100.812 801.864 101.121C801.75 102.911 801.083 103.807 799.862 103.807ZM804.501 91.5752C804.957 91.5752 805.364 91.3717 805.722 90.9648C805.754 90.916 805.795 90.8753 805.844 90.8428C806.055 90.5498 806.218 90.1999 806.332 89.793C806.544 89.0605 806.674 88.4583 806.723 87.9863C806.771 87.7096 806.804 87.4329 806.82 87.1562C806.82 86.3587 806.731 85.7158 806.552 85.2275C806.389 84.7393 806.112 84.3079 805.722 83.9336C805.152 83.4616 804.59 83.2256 804.037 83.2256C803.467 83.2256 802.857 83.3802 802.206 83.6895C801.701 83.901 801.173 84.2835 800.619 84.8369C800.587 84.9183 800.53 84.9753 800.448 85.0078V86.0332C800.448 86.7819 800.456 87.2783 800.473 87.5225V87.7666C800.733 88.3851 801.107 88.9792 801.596 89.5488C801.921 89.9395 802.125 90.1755 802.206 90.2568C802.304 90.3219 802.385 90.387 802.45 90.4521C803.215 91.2008 803.899 91.5752 804.501 91.5752ZM818.661 98.0693C817.359 98.0693 816.146 97.6624 815.023 96.8486C814.177 96.1976 813.518 95.3675 813.046 94.3584C812.037 92.4541 811.532 90.3626 811.532 88.084C811.532 86.7493 811.719 85.4229 812.094 84.1045C812.126 84.0394 812.151 83.9661 812.167 83.8848C812.297 83.4128 812.46 82.9489 812.655 82.4932C813.941 80.0518 815.715 78.8311 817.978 78.8311C818.905 78.8311 819.817 79.0508 820.712 79.4902C821.607 79.9297 822.388 80.5726 823.056 81.4189C824.26 82.9489 825.025 84.7148 825.351 86.7168C825.432 87.2376 825.473 87.8398 825.473 88.5234C825.473 88.9141 825.448 89.3128 825.399 89.7197C825.302 90.7777 825.098 91.7461 824.789 92.625C824.382 93.6504 823.975 94.4805 823.568 95.1152C823.064 95.8965 822.437 96.5638 821.688 97.1172C820.712 97.752 819.703 98.0693 818.661 98.0693ZM818.563 93.9922C818.645 93.9922 818.824 93.9352 819.101 93.8213C819.377 93.7074 819.768 93.1947 820.272 92.2832C820.435 92.0228 820.574 91.7461 820.688 91.4531V91.4043C820.98 90.6393 821.168 89.9639 821.249 89.3779L821.273 89.3047C821.322 89.028 821.347 88.7594 821.347 88.499C821.347 87.9945 821.314 87.555 821.249 87.1807C821.151 86.5133 820.932 85.846 820.59 85.1787C820.264 84.4951 819.923 83.9661 819.564 83.5918C818.848 82.9733 818.287 82.6641 817.88 82.6641C817.44 82.6641 817.042 83.0628 816.684 83.8604C816.342 84.6579 816.106 85.5124 815.976 86.4238C815.878 86.9935 815.829 87.5713 815.829 88.1572C815.829 89.7523 816.228 91.2822 817.025 92.7471C817.628 93.5771 818.14 93.9922 818.563 93.9922ZM830.624 97.6055C830.445 97.6055 830.152 97.5566 829.745 97.459C829.078 97.2637 828.541 96.2546 828.134 94.4316L827.743 92.5762L827.377 90.6963C827.279 90.208 827.133 89.3779 826.938 88.2061C826.742 87.0993 826.579 85.9844 826.449 84.8613C826.4 84.2266 826.343 83.5999 826.278 82.9814C826.132 81.2236 826.034 79.6855 825.985 78.3672V77.3174C826.05 76.7965 826.311 76.4141 826.767 76.1699C827.222 75.9095 827.743 75.7793 828.329 75.7793C828.931 75.7793 829.452 75.9095 829.892 76.1699C830.347 76.4141 830.6 76.7803 830.648 77.2686C830.648 77.4476 830.657 77.6104 830.673 77.7568C830.689 77.9033 830.697 78.0579 830.697 78.2207C830.714 78.3835 830.73 78.5462 830.746 78.709L830.819 79.417L830.917 80.7109L830.99 80.6133C831.723 79.6693 832.431 79.0182 833.114 78.6602C833.603 78.3997 834.172 78.2695 834.823 78.2695C835.767 78.2695 836.654 78.5137 837.484 79.002C838.282 79.5879 838.843 80.1006 839.169 80.54C839.494 80.9632 839.812 81.5573 840.121 82.3223L840.536 83.5918L840.854 85.0078C840.935 85.4473 840.976 85.9274 840.976 86.4482C840.976 86.8063 840.91 87.1481 840.78 87.4736C840.715 87.734 840.561 87.9212 840.316 88.0352C840.089 88.1491 839.926 88.2467 839.828 88.3281L839.486 88.5967L838.241 88.7432C838.111 88.6455 837.989 88.5723 837.875 88.5234L837.24 88.3281C837.143 88.3118 837.061 88.2874 836.996 88.2549C836.947 88.2223 836.85 88.1084 836.703 87.9131C836.345 87.3923 836.101 86.6436 835.971 85.667C835.922 85.1787 835.84 84.6986 835.727 84.2266L835.629 83.8115C835.385 82.7699 834.986 82.249 834.433 82.249C833.879 82.249 833.253 82.7536 832.553 83.7627C832.211 84.2998 832.007 84.6986 831.942 84.959C831.715 85.3984 831.576 85.7158 831.527 85.9111L831.479 85.9844C831.511 86.1146 831.527 86.2367 831.527 86.3506L831.894 89.2314L832.016 90.0859L832.138 91.1113L832.26 91.9414C832.26 91.9902 832.268 92.0309 832.284 92.0635C832.528 93.7725 832.65 94.9443 832.65 95.5791C832.569 96.3604 832.268 96.9219 831.747 97.2637C831.389 97.4915 831.015 97.6055 830.624 97.6055ZM848.202 97.0928C847.226 97.0928 846.355 96.8079 845.59 96.2383C844.646 95.5384 843.913 94.3584 843.393 92.6982C843.132 91.9658 842.937 91.1439 842.807 90.2324C842.79 90.0697 842.766 89.915 842.733 89.7686L842.611 88.8164C842.611 88.6211 842.595 88.4258 842.562 88.2305C842.481 87.5306 842.44 86.3994 842.44 84.8369L842.489 84.0068C842.506 83.4535 842.546 82.8919 842.611 82.3223C842.676 81.7526 842.725 81.4189 842.758 81.3213C842.53 81.3213 842.074 81.4271 841.391 81.6387L840.878 81.7607L840.561 81.7852C840.398 81.6875 840.219 81.598 840.023 81.5166C839.275 81.2562 838.9 80.9388 838.9 80.5645C838.9 80.3203 839.177 80.0029 839.73 79.6123L839.779 79.5879C840.479 79.1647 841.35 78.8066 842.392 78.5137C842.912 78.3835 843.23 78.3184 843.344 78.3184L843.368 78.1719L843.515 77.6592C843.629 76.9919 843.816 76.3896 844.076 75.8525C844.516 74.9899 845.036 74.5586 845.639 74.5586C846.436 74.5749 847.136 75.1283 847.738 76.2188L847.616 76.8047L847.445 77.6104L847.372 77.9033C847.372 77.9359 847.364 77.9603 847.348 77.9766L847.592 78.001C848.113 78.001 848.544 78.0091 848.886 78.0254C849.228 78.0417 849.561 78.0742 849.887 78.123C850.57 78.1556 851.14 78.2451 851.596 78.3916C851.905 78.6195 852.06 78.9043 852.06 79.2461C852.06 79.3112 852.035 79.4821 851.986 79.7588C851.938 80.0192 851.734 80.3366 851.376 80.7109C851.018 81.0853 850.611 81.305 850.155 81.3701L849.423 81.2969C848.625 81.1992 848.048 81.1423 847.689 81.126L846.908 81.1016L846.884 81.2236C846.851 81.6143 846.811 81.9967 846.762 82.3711C846.762 82.599 846.745 82.7943 846.713 82.957C846.632 84.015 846.591 84.7311 846.591 85.1055L846.542 85.6914C846.542 87.1237 846.566 88.0758 846.615 88.5479C846.615 88.7432 846.648 89.1663 846.713 89.8174C846.778 90.1755 846.835 90.5254 846.884 90.8672C846.949 91.209 847.022 91.5345 847.104 91.8438C847.217 92.3483 847.396 92.8285 847.641 93.2842C847.885 93.7236 848.178 93.9434 848.52 93.9434C848.812 93.9434 849.13 93.6504 849.472 93.0645C849.634 92.804 849.732 92.625 849.765 92.5273C850.09 91.7135 850.432 91.3066 850.79 91.3066C851.197 91.3066 851.449 92.0391 851.547 93.5039C851.531 93.5365 851.522 93.5771 851.522 93.626V93.7725C851.522 94.3096 851.319 94.9362 850.912 95.6523C850.587 96.1406 850.204 96.5068 849.765 96.751C849.325 96.9788 848.804 97.0928 848.202 97.0928ZM847.348 81.1016C847.217 81.1016 847.095 81.0934 846.981 81.0771H846.908V81.1016H847.348ZM860.165 100.047C858.31 100.047 856.674 99.5505 855.258 98.5576C854.509 98.0368 853.907 97.459 853.451 96.8242C852.947 96.0592 852.678 95.3024 852.646 94.5537C852.857 93.5771 853.288 93.0889 853.939 93.0889C853.972 93.0889 854.167 93.1051 854.525 93.1377C854.9 93.154 855.453 93.4632 856.186 94.0654C856.495 94.4886 856.82 94.8467 857.162 95.1396L857.309 95.2617C857.52 95.4408 857.74 95.5872 857.968 95.7012C858.7 96.1243 859.416 96.3359 860.116 96.3359C860.784 96.3359 861.378 96.0999 861.898 95.6279L862.021 95.1641C862.037 95.0827 862.045 94.9932 862.045 94.8955C862.045 94.5863 861.882 94.2038 861.557 93.748C861.312 93.4062 860.897 93.0075 860.312 92.5518L860.067 92.332L859.384 91.8193L858.456 91.1602L858.09 90.9404C857.862 90.7939 857.618 90.6475 857.357 90.501C857.162 90.4033 856.78 90.1592 856.21 89.7686L856.088 89.6709C855.73 89.4268 855.38 89.1582 855.038 88.8652C854.273 88.1979 853.663 87.4248 853.207 86.5459C852.768 85.667 852.548 84.7148 852.548 83.6895C852.548 82.6315 852.833 81.5898 853.402 80.5645C853.956 79.6042 854.656 78.8555 855.502 78.3184C856.365 77.765 857.382 77.4883 858.554 77.4883C859.709 77.4883 860.735 77.8057 861.63 78.4404C862.232 78.9287 862.68 79.5146 862.973 80.1982C863.217 80.7191 863.339 81.2399 863.339 81.7607C863.339 82.4769 863.103 83.1198 862.631 83.6895C862.126 84.1289 861.695 84.3486 861.337 84.3486C861.321 84.3486 861.215 84.3405 861.02 84.3242C860.824 84.3079 860.474 83.9906 859.97 83.3721C859.905 83.2907 859.872 83.2012 859.872 83.1035V82.7617V82.4199C859.872 82.2734 859.864 82.1921 859.848 82.1758C859.799 82.0781 859.766 82.0212 859.75 82.0049C859.734 81.9723 859.717 81.9479 859.701 81.9316C859.685 81.9154 859.669 81.8991 859.652 81.8828C859.327 81.541 859.026 81.3701 858.749 81.3701C858.179 81.3701 857.732 81.6875 857.406 82.3223C857.211 82.7454 857.113 83.1361 857.113 83.4941C857.113 83.7057 857.162 83.9255 857.26 84.1533C857.423 84.6253 857.87 85.138 858.603 85.6914C858.716 85.8053 859.042 86.0251 859.579 86.3506C859.709 86.4157 859.831 86.4889 859.945 86.5703L861.093 87.2539C862.086 87.9049 862.72 88.3444 862.997 88.5723C863.827 89.2233 864.503 89.8662 865.023 90.501C866.049 91.8031 866.562 93.2028 866.562 94.7002C866.562 95.1071 866.513 95.514 866.415 95.9209C865.976 97.7438 864.796 98.9889 862.875 99.6562C862.012 99.9167 861.109 100.047 860.165 100.047ZM881.21 94.0166H881.112C880.185 94.0166 879.501 93.5771 879.062 92.6982C878.996 92.4215 878.964 92.1367 878.964 91.8438C878.964 91.502 879.013 91.0137 879.11 90.3789C879.11 90.2975 879.175 89.8337 879.306 88.9873C879.647 87.2946 880.242 85.8786 881.088 84.7393L881.186 84.6172C881.479 84.194 881.812 83.7708 882.187 83.3477L883.529 81.834C883.643 81.7201 883.749 81.598 883.847 81.4678L884.359 80.9062C884.49 80.7272 884.636 80.54 884.799 80.3447C884.929 80.2145 885.051 80.0599 885.165 79.8809C885.409 79.4902 885.596 79.1566 885.727 78.8799V78.8555C885.857 78.5951 885.922 78.4323 885.922 78.3672C885.971 78.2533 885.995 78.1475 885.995 78.0498V77.6348C885.963 77.1465 885.816 76.7152 885.556 76.3408C885.312 75.9502 885.051 75.6491 884.774 75.4375C883.993 74.7376 883.334 74.3877 882.797 74.3877C882.715 74.3877 882.512 74.4284 882.187 74.5098C881.877 74.5911 881.487 74.9492 881.015 75.584C880.689 75.8932 880.437 76.2676 880.258 76.707L880.233 76.7559C880.022 77.2604 879.916 77.7812 879.916 78.3184V78.6357C879.916 79.0915 880.03 79.5391 880.258 79.9785C880.323 80.125 880.421 80.2959 880.551 80.4912C880.632 80.7191 880.673 80.9551 880.673 81.1992C880.673 81.5898 880.526 82.0781 880.233 82.6641C879.94 83.2337 879.517 83.6081 878.964 83.7871C878.736 83.7871 878.524 83.7464 878.329 83.665C877.841 83.4535 877.41 83.1686 877.035 82.8105C876.319 82.0293 875.839 81.1423 875.595 80.1494C875.432 79.4984 875.351 78.9043 875.351 78.3672C875.367 77.3255 875.538 76.3408 875.863 75.4131C876.042 74.9411 876.221 74.5667 876.4 74.29C876.4 74.2738 876.409 74.2656 876.425 74.2656C876.799 73.582 877.255 72.9554 877.792 72.3857V72.3613C878.329 71.7428 878.964 71.222 879.696 70.7988C880.51 70.3431 881.34 70.1152 882.187 70.1152L883.065 70.1396C883.635 70.1396 884.197 70.2699 884.75 70.5303C885.84 71.0186 886.931 71.9219 888.021 73.2402C888.412 73.7122 888.762 74.2168 889.071 74.7539C889.381 75.3561 889.592 75.9339 889.706 76.4873C889.804 76.9756 889.853 77.415 889.853 77.8057L889.828 78.2695C889.698 79.3275 889.299 80.4261 888.632 81.5654C888.274 82.1351 887.989 82.5257 887.777 82.7373L887.631 82.9082C887.452 83.1361 887.273 83.3558 887.094 83.5674C886.98 83.6813 886.874 83.7952 886.776 83.9092C886.695 84.0068 886.605 84.1045 886.508 84.2021C886.199 84.5114 885.889 84.8369 885.58 85.1787C885.515 85.2601 885.45 85.3415 885.385 85.4229C885.32 85.5042 885.246 85.5938 885.165 85.6914C885.084 85.7891 884.994 85.8867 884.896 85.9844C884.294 86.668 883.936 87.5306 883.822 88.5723C883.708 89.1257 883.635 89.7441 883.603 90.4277C883.586 91.4857 883.505 92.2751 883.358 92.7959C882.903 93.5934 882.187 94.0003 881.21 94.0166ZM881.723 100.145C880.958 100.145 880.347 99.8271 879.892 99.1924C879.778 98.8831 879.721 98.403 879.721 97.752C879.753 97.1172 880.03 96.637 880.551 96.3115C881.088 95.986 881.641 95.8232 882.211 95.8232H882.357C883.448 95.8883 883.993 96.3929 883.993 97.3369L883.969 97.5322L884.018 98.0693C884.034 98.1344 884.042 98.2484 884.042 98.4111C884.042 98.5902 884.026 98.7692 883.993 98.9482C883.521 99.7458 882.764 100.145 881.723 100.145Z" fill="#FFF2EA"/>
</svg>
