<svg width="1035" height="488" fill="none" xmlns="http://www.w3.org/2000/svg"><g clip-path="url(#prefix__clip0)"><path d="M10.045 482.87c-.94 0-1.88-.259-2.7-.791a5.015 5.015 0 01-2.228-5.176c3.403-17.691 15.77-27.301 27.727-36.592 3.592-2.786 7.303-5.672 10.706-8.736 40.382-36.331 49.404-83.89 58.951-134.241 7.108-37.464 14.458-76.204 35.632-110.765 8.437-13.771 18.865-23.7 28.07-32.459 16.212-15.43 29.015-27.619 28.95-54.648-.006-2.515-.213-5.809-.437-9.297-.709-11.156-1.59-25.034 2.629-33.38 14.9-29.49 55.678-33.469 93.603-33.469 4.59 0 9.022.053 13.299.1 3.87.048 7.521.089 10.948.089 4.691 0 8.253-.083 11.213-.254 34.055-2 69.563-2.75 103.901-3.483 49.109-1.038 99.895-2.113 148.313-6.835 5.908-.578 11.834-1.18 17.783-1.783 29.689-3.016 60.393-6.133 90.673-6.133 7.597 0 15.018.201 22.049.597 15.556.873 31.053 3.358 46.036 5.767 17.778 2.857 36.158 5.808 54.314 5.95 28.991.218 57.734 2.367 85.526 4.45 19.089 1.429 38.834 2.905 58.479 3.743 38.757 1.652 62.188 10.306 71.638 26.45 7.06 12.065 5.79 27.725-3.78 46.532-16.75 32.943-61.052 37.913-93.393 41.543-2.192.248-4.337.484-6.416.732-50.875 5.938-107.216 8.707-177.322 8.707-20.383 0-41.168.112-61.267.224-20.153.112-40.997.224-61.492.224-50.952 0-89.698-.737-125.637-2.396-19.586-.903-41.074-2.975-63.826-5.171-35.053-3.382-71.299-6.883-107.221-6.883-31.928 0-58.739 2.822-81.976 8.63-27.378 6.847-49.398 17.661-67.323 33.062-26.894 23.109-34.297 66.671-40.831 105.11-1.589 9.362-3.096 18.204-4.827 26.456-14.623 69.671-53.93 127.937-116.828 173.182a5.039 5.039 0 01-2.936.944z" fill="#22C79E"/><path d="M687.072 10.035c7.273 0 14.534.183 21.766.584 33.812 1.895 66.733 11.463 100.592 11.723 48.689.372 95.482 6.121 143.828 8.187 38.929 1.659 91.212 11.392 63.602 65.698-16.6 32.636-63.584 35.788-95.919 39.56-58.58 6.842-117.738 8.671-176.737 8.671-40.831 0-81.816.449-122.759.449-41.936 0-83.831-.472-125.401-2.391-49.162-2.266-111.422-12.059-171.277-12.059-57.741 0-113.248 9.12-152.572 42.907-34.994 30.069-38.391 91.901-47.301 134.341-14.853 70.775-55.247 127.27-114.849 170.148 4.012-20.878 22.215-29.367 36.861-42.542 72.671-65.379 47.035-167.012 95.512-246.121 22.22-36.261 57.864-43.834 57.758-89.734-.024-10.466-3.179-30.836 1.654-40.405 14.073-27.873 55.064-30.718 89.119-30.718 8.732 0 16.997.19 24.247.19 4.218 0 8.1-.066 11.509-.267 82.418-4.846 169.723-2.266 252.402-10.33 35.591-3.47 71.955-7.891 107.965-7.891zm0-10.035c-30.533 0-61.362 3.134-91.174 6.162-5.837.59-11.87 1.205-17.766 1.783-48.228 4.699-98.914 5.773-147.928 6.812-34.386.726-69.935 1.481-104.09 3.488-2.866.172-6.334.248-10.918.248-3.398 0-7.037-.041-10.889-.088-4.295-.047-8.732-.1-13.358-.1-15.976 0-36.607.596-54.562 5.223-21.258 5.484-35.904 15.914-43.526 31.002-4.827 9.562-3.94 23.581-3.155 35.954.219 3.405.42 6.628.426 8.995.029 11.375-2.399 20.577-7.633 28.977-4.94 7.916-12.136 14.769-19.757 22.023-9.424 8.972-20.106 19.143-28.891 33.475-21.659 35.346-29.092 74.546-36.282 112.454-9.394 49.494-18.262 96.244-57.38 131.442-3.267 2.94-6.747 5.643-10.428 8.5-12.106 9.404-25.819 20.058-29.576 39.608a10.029 10.029 0 004.46 10.348 10.07 10.07 0 005.406 1.576c2.062 0 4.118-.632 5.867-1.889 31.16-22.419 56.943-48.356 76.623-77.09 20.454-29.857 34.645-63.213 42.184-99.137 1.755-8.347 3.262-17.237 4.863-26.646 6.392-37.6 13.636-80.218 39.153-102.147 17.317-14.881 38.669-25.347 65.267-31.999 22.829-5.708 49.245-8.482 80.753-8.482 35.679 0 71.802 3.488 106.737 6.859 22.817 2.202 44.364 4.279 64.073 5.188 36.017 1.659 74.839 2.403 125.868 2.403 20.513 0 41.363-.112 61.521-.225 20.094-.112 40.867-.224 61.238-.224 70.301 0 126.831-2.78 177.901-8.742 2.073-.242 4.212-.484 6.392-.726 16.62-1.865 35.449-3.978 52.896-9.751 9.979-3.306 18.256-7.385 25.303-12.473 8.3-6.003 14.74-13.417 19.11-22.029 10.4-20.43 11.61-37.7 3.64-51.342-6.16-10.525-17.63-18.27-34.092-23.021-11.291-3.258-24.921-5.194-41.67-5.909-19.568-.832-39.266-2.308-58.32-3.73-27.874-2.084-56.706-4.239-85.863-4.463-17.772-.136-35.153-2.928-53.557-5.885-15.107-2.426-30.734-4.94-46.551-5.826A404.401 404.401 0 00687.072 0z" fill="#FFF2E9"/></g><path d="M473.553 99.535a9.78 9.78 0 01-2.808-.415c-2.165-.684-4.012-2.157-5.542-4.419-.7-.976-1.294-2.124-1.782-3.442-.814-2.23-1.221-4.59-1.221-7.08 0-.928.082-1.945.244-3.052.196-1.351.513-2.62.952-3.809.765-1.904 1.685-3.393 2.759-4.467a9.893 9.893 0 012.417-1.71 10.47 10.47 0 014.029-.805 14.8 14.8 0 015.859 1.196c1.286.619 2.506 1.685 3.662 3.199.635.813 1.196 1.782 1.685 2.905.39.944.691 2.034.903 3.271.179 1.042.269 2.214.269 3.516a18.385 18.385 0 01-.904 5.176c-.7 2.246-1.766 4.256-3.198 6.03a.635.635 0 00-.122.17c-1.237 1.368-2.442 2.336-3.613 2.906a8.219 8.219 0 01-3.589.83zm-.098-4.663c1.188 0 2.328-.618 3.418-1.855.505-.554.977-1.23 1.416-2.027.472-.895.806-1.644 1.001-2.246l.122-.366c.326-1.01.545-1.929.659-2.759.065-.586.098-1.188.098-1.806 0-.798-.073-1.555-.22-2.271a8.297 8.297 0 00-.635-2.197l-.097-.22c-.7-1.546-1.636-2.702-2.808-3.467-1.172-.667-2.409-1-3.711-1-1.497 0-2.872.96-4.126 2.88-.39.684-.716 1.498-.976 2.442a33.561 33.561 0 00-.391 1.757 16.618 16.618 0 00-.171 2.49c0 1.352.171 2.735.513 4.15a12.55 12.55 0 001.172 2.857c1.448 2.425 3.027 3.638 4.736 3.638zm22.949-18.896c-.276 0-.651-.114-1.123-.342a18.974 18.974 0 00-1.44-.635l-.269-.098c-.276-.146-.716-.317-1.318-.512l-1.123-.44a10.536 10.536 0 01-1.001-.39 3.093 3.093 0 01-.562-.22 15.747 15.747 0 01-1.049-.39c-.489-.212-.733-.522-.733-.928 0-.082.025-.245.073-.489.049-.244.22-.529.513-.854.309-.326.651-.505 1.025-.537.212 0 .481.04.806.122.537.114 1.009.244 1.416.39l.269.074 2.319.805.83.318 1.611.634c.603.26 1.058.497 1.368.708l.122.05c.276.292.415.593.415.902 0 .652-.399 1.18-1.197 1.587a2.018 2.018 0 01-.952.245zm-2.954 23.56c-1.579 0-2.978-.457-4.199-1.368-1.139-.912-2.043-2.157-2.71-3.735-.7-1.563-1.05-3.378-1.05-5.445 0-1.416.228-2.995.684-4.736.049-.114.089-.236.122-.366.114-.375.252-.749.415-1.123.391-.928.765-1.717 1.123-2.369.228-.358.456-.708.684-1.05.244-.341.529-.512.854-.512.586 0 1.245.277 1.978.83.748.537 1.123 1.082 1.123 1.636 0 .276-.114.545-.342.805a13.445 13.445 0 00-.708 1.954l-.073.39c-.131.44-.253 1.058-.367 1.856 0 .097-.008.187-.024.268a13.38 13.38 0 00-.073.855l-.025.513c0 1.432.163 2.685.489 3.76l.024.048c.114.342.236.675.366 1.001l.049.122c.114.277.252.545.415.806.586.911 1.221 1.367 1.904 1.367.603 0 1.368-.423 2.295-1.27.179-.195.35-.398.513-.61l.073-.098c.521-.7.936-1.554 1.245-2.563.261-.83.391-1.798.391-2.905 0-.31-.016-.627-.049-.953-.016-.016-.024-.04-.024-.073-.065-.65-.114-.992-.147-1.025-.065-.553-.236-1.27-.512-2.149a16.438 16.438 0 00-.733-1.928l-.439-.952-.025-.342c0-.505.212-.928.635-1.27.439-.341.977-.512 1.611-.512.489 0 .912.138 1.27.415.374.276.586.724.635 1.342.228.537.366.928.415 1.172l.366 1.245c.358 1.286.586 2.531.683 3.736l.098 1.294c0 .944-.081 1.815-.244 2.612-.146.781-.244 1.196-.293 1.245-.407 1.367-.895 2.49-1.465 3.37-.358.602-.862 1.269-1.513 2.001a8.646 8.646 0 01-4.249 2.612c-.39.066-.789.098-1.196.098zm26.27 10.668c-.586 0-1.034-.065-1.343-.195l-.464-.196a1.666 1.666 0 01-.561-.292l-.684-.489c-.244-.179-.521-.472-.83-.879l-.073-.073c-.261-.358-.391-.57-.391-.635a3.055 3.055 0 01-.391-1.074l-.048-.171-.025-.366c-.016-.228 0-.431.049-.61 0-.358.057-.717.171-1.075l.024-.024c.049-.228.122-.448.22-.659.439-.96 1.009-1.441 1.709-1.441.553 0 .83.31.83.928 0 .212-.032.464-.098.757a2.454 2.454 0 00-.17.366c-.033.147-.066.285-.098.415 0 .456.016.724.049.806l.097.244c.065.228.131.383.196.464l.024.073c.081.163.195.318.342.464.439.439.863.659 1.269.659.326 0 .643-.138.953-.415.065-.065.227-.26.488-.586l.342-.464c.179-.276.374-.724.586-1.342.016-.017.024-.041.024-.074.228-.602.382-1.391.464-2.368.049-.39.089-.862.122-1.416l.024-.488c0-1.677-.008-2.734-.024-3.174V95.58c-.016-.244-.024-1.115-.024-2.612 0 .016-.009.024-.025.024a12.077 12.077 0 01-1.684 2.149 9.202 9.202 0 01-2.198 1.635 4.904 4.904 0 01-2.343.586c-1.807 0-3.158-.708-4.053-2.124a8.744 8.744 0 01-.635-1.513 10.61 10.61 0 01-.317-2.588c0-1.53.309-3.166.927-4.907.017-.017.025-.041.025-.074.244-.635.512-1.261.805-1.88 1.205-2.36 2.8-4.142 4.786-5.346.862-.505 1.741-.822 2.636-.953.407-.048.896-.073 1.465-.073.635 0 1.213.074 1.734.22 2.132.716 3.271 1.888 3.418 3.516 0 .195-.009.382-.025.561 0 .781-.024 1.49-.073 2.124l-.025.489-.024 1.025a3.365 3.365 0 00-.024.513 38.618 38.618 0 00-.074 2.417 41.52 41.52 0 00-.073 2.734l-.024 1.294c0 .423.008.814.024 1.172l.025 3.54c0 .862-.017 1.505-.049 1.928 0 .424-.025.855-.074 1.294a13.826 13.826 0 01-.268 2.149l-.073.317c-.196.765-.31 1.188-.342 1.27a15.691 15.691 0 01-.781 1.977c-.489.782-.822 1.286-1.001 1.514a.43.43 0 00-.122.122 4.505 4.505 0 01-.635.61c-.456.424-.847.7-1.172.831a.323.323 0 01-.122.073c-.7.39-1.489.594-2.368.61zm-2.661-17.04c.634 0 1.237-.261 1.806-.782l.196-.171c.39-.31.862-.79 1.416-1.44l.854-1.197c.326-.553.505-.879.537-.976l.757-1.367.024-.416c.017-.472.049-.944.098-1.416l.073-.83c.033-.7.131-1.465.293-2.295-.195-.911-.618-1.367-1.269-1.367h-.122a2.246 2.246 0 00-1.49.757c-.309.18-.594.39-.854.635a10.648 10.648 0 00-2.368 3.54c-.456.96-.822 2.026-1.099 3.198-.163.798-.244 1.457-.244 1.978 0 1.27.334 1.969 1.001 2.1.13.032.26.048.391.048zm24.658 8.471c-.13 0-.252-.008-.366-.025-.114-.016-.293-.146-.538-.39l-.244-.366c-.309-.424-.61-1.107-.903-2.051a1.313 1.313 0 00-.073-.269 30.215 30.215 0 01-.757-4.101 6.8 6.8 0 01-.049-.806l-.073.098c-.944 1.35-1.978 2.343-3.101 2.978h-.024a5.293 5.293 0 01-2.686.733c-1.432 0-2.636-.538-3.613-1.612-1.204-1.27-1.807-3.165-1.807-5.688.131-2.507.855-4.81 2.173-6.91.684-1.106 1.416-1.993 2.198-2.66 0-.082.406-.391 1.22-.928 1.14-.684 2.433-1.034 3.882-1.05 1.042 0 1.929.244 2.661.732.163.082.366.245.611.489 0 .016.008.024.024.024.391.423.586.846.586 1.27 0 .211-.016.35-.049.415a1.25 1.25 0 01-.146.22c-.293.341-1.083.512-2.369.512h-.317c-.83 0-1.587.114-2.27.342-.896.504-1.701 1.302-2.417 2.392-1.026 1.71-1.571 3.467-1.636 5.274 0 .749.114 1.432.342 2.05.244.7.618 1.05 1.123 1.05.455 0 1.139-.415 2.05-1.245 0-.016.009-.024.025-.024.407-.374 1.009-1.058 1.806-2.05l.538-.66a6.42 6.42 0 01.463-.635c.163-.195.31-.399.44-.61l.317-.489c0-.26.033-.553.098-.878.065-.472.155-.912.268-1.319l.22-.415c.163-.309.537-.464 1.123-.464.163 0 .375.017.635.05.586.097.879.3.879.61l-.024.146c0 .016.008.033.024.049a.709.709 0 01.146.122c.066.114.098.301.098.561l-.024.684-.025 2.466c0 1.22.033 2.189.098 2.905 0 .293.049.944.146 1.953.131.977.228 1.587.293 1.831.179 1.107.399 2.1.66 2.979l.073.244c.114.277.179.553.195.83 0 .619-.244 1.066-.732 1.343a2.412 2.412 0 01-1.172.293zm-3.687-16.504c-.016-.016-.04-.025-.073-.025h-.049c-.016 0-.024-.008-.024-.024l.073-.073c.016 0 .024.008.024.024.017 0 .025.016.025.049.016.016.024.033.024.049zm10.742 11.475c-.179 0-.472-.05-.878-.147-.668-.195-1.205-1.204-1.612-3.027l-.39-1.856-.367-1.88a92.179 92.179 0 01-.439-2.49 57.137 57.137 0 01-.488-3.345 68.256 68.256 0 00-.171-1.88 101.348 101.348 0 01-.293-4.614v-1.05c.065-.52.325-.903.781-1.147.456-.26.977-.39 1.563-.39.602 0 1.123.13 1.562.39.456.244.708.61.757 1.099 0 .179.008.341.024.488.017.146.025.3.025.464l.049.488.073.708.097 1.294.074-.098c.732-.944 1.44-1.595 2.124-1.953.488-.26 1.058-.39 1.709-.39.944 0 1.831.244 2.661.732.797.586 1.359 1.099 1.684 1.538.326.423.643 1.017.953 1.782l.415 1.27.317 1.416c.081.44.122.92.122 1.44 0 .358-.065.7-.195 1.026a.808.808 0 01-.464.561 2.66 2.66 0 00-.488.293l-.342.269-1.245.146a1.839 1.839 0 00-.367-.22l-.634-.195a.865.865 0 01-.244-.073c-.049-.033-.147-.147-.293-.342-.359-.52-.603-1.27-.733-2.246-.049-.488-.13-.968-.244-1.44l-.098-.416c-.244-1.041-.643-1.562-1.196-1.562-.553 0-1.18.505-1.88 1.514-.342.537-.545.936-.61 1.196-.228.44-.366.757-.415.952l-.049.073c.033.13.049.253.049.367l.366 2.88.122.855.122 1.025.122.83c0 .05.008.09.025.123.244 1.709.366 2.88.366 3.515-.082.781-.383 1.343-.903 1.685a2.066 2.066 0 01-1.124.342zm17.872.366c-.944 0-1.888-.204-2.832-.61a6.34 6.34 0 01-2.564-2.076c-1.09-1.579-1.636-3.597-1.636-6.055 0-1.48.179-2.93.537-4.345.358-1.319.814-2.466 1.368-3.443a12.717 12.717 0 012.099-2.685c.847-.83 1.734-1.49 2.661-1.978.944-.488 1.872-.79 2.784-.903h1.367c.439.016.879.09 1.318.22 1.79.667 2.938 1.904 3.442 3.71.163.554.245 1.164.245 1.832a7.57 7.57 0 01-.733 3.247c-.342.797-.871 1.627-1.587 2.49-.146.228-.488.594-1.025 1.099-1.774 1.546-3.532 2.62-5.274 3.222-.878.293-1.684.456-2.417.489a.25.25 0 01.049.097c.017.049.033.106.049.171.13.277.301.537.513.781.553.619 1.147.928 1.782.928.619 0 1.221-.17 1.807-.513.341-.179.667-.366.976-.561.505-.326.798-.53.879-.61a7.59 7.59 0 011.514-1.075l.171-.097c.26-.05.512-.074.757-.074.341 0 .708.074 1.098.22.407.13.651.57.733 1.319-.098.406-.269.789-.513 1.147a4.739 4.739 0 01-.83.977 13.182 13.182 0 01-5.176 2.905 7.297 7.297 0 01-1.562.17zm-2.759-8.643c.032 0 .057-.008.073-.024.163 0 .513-.098 1.05-.293 1.318-.554 2.685-1.498 4.101-2.832.586-.603 1.05-1.172 1.392-1.71.521-.943.789-1.822.806-2.636 0-.488-.147-1.001-.44-1.538-.146-.228-.317-.366-.513-.415h.098-.464.342a2.002 2.002 0 00-.61-.073c-.277.032-.415.057-.415.073h.683c-.586 0-1.277.252-2.075.757a8.587 8.587 0 00-3.149 3.857c-.586 1.384-.879 2.995-.879 4.834zm16.675 8.277c-.179 0-.472-.05-.879-.147-.668-.195-1.205-1.204-1.612-3.027l-.39-1.856-.367-1.88a92.179 92.179 0 01-.439-2.49 57.137 57.137 0 01-.488-3.345 68.256 68.256 0 00-.171-1.88 101.348 101.348 0 01-.293-4.614v-1.05c.065-.52.325-.903.781-1.147.456-.26.977-.39 1.563-.39.602 0 1.123.13 1.562.39.456.244.708.61.757 1.099 0 .179.008.341.024.488.017.146.025.3.025.464l.049.488.073.708.098 1.294.073-.098c.732-.944 1.44-1.595 2.124-1.953.488-.26 1.058-.39 1.709-.39.944 0 1.831.244 2.661.732.797.586 1.359 1.099 1.684 1.538.326.423.643 1.017.953 1.782l.415 1.27.317 1.416c.081.44.122.92.122 1.44 0 .358-.065.7-.195 1.026a.808.808 0 01-.464.561 2.66 2.66 0 00-.488.293l-.342.269-1.245.146a1.834 1.834 0 00-.366-.22l-.635-.195a.865.865 0 01-.244-.073c-.049-.033-.147-.147-.293-.342-.358-.52-.603-1.27-.733-2.246-.049-.488-.13-.968-.244-1.44l-.098-.416c-.244-1.041-.642-1.562-1.196-1.562-.553 0-1.18.505-1.88 1.514-.342.537-.545.936-.61 1.196-.228.44-.366.757-.415.952l-.049.073c.033.13.049.253.049.367l.366 2.88.122.855.122 1.025.122.83c0 .05.008.09.025.123.244 1.709.366 2.88.366 3.515-.081.781-.383 1.343-.903 1.685a2.063 2.063 0 01-1.123.342zm25.878-.513a4.261 4.261 0 01-2.612-.855c-.944-.7-1.676-1.88-2.197-3.54a12.689 12.689 0 01-.586-2.466 4.008 4.008 0 00-.073-.463l-.122-.953c0-.195-.017-.39-.049-.585-.082-.7-.122-1.832-.122-3.394l.049-.83c.016-.553.057-1.115.122-1.685.065-.57.114-.903.146-1-.228 0-.683.105-1.367.317l-.513.122-.317.024a4.162 4.162 0 00-.537-.268c-.749-.26-1.123-.578-1.123-.953 0-.244.276-.561.83-.952l.049-.024c.699-.423 1.57-.781 2.612-1.074.521-.13.838-.196.952-.196l.024-.146.147-.513c.114-.667.301-1.27.561-1.806.44-.863.961-1.294 1.563-1.294.798.016 1.497.57 2.1 1.66l-.122.586-.171.805-.074.293c0 .033-.008.057-.024.074l.244.024c.521 0 .952.008 1.294.024.342.017.676.05 1.001.098.684.033 1.253.122 1.709.269.309.228.464.512.464.854 0 .065-.025.236-.073.513-.049.26-.253.578-.611.952s-.765.594-1.22.66l-.733-.074a25.683 25.683 0 00-1.733-.171l-.781-.024-.025.122c-.032.39-.073.773-.122 1.147 0 .228-.016.423-.049.586-.081 1.058-.122 1.774-.122 2.149l-.049.585c0 1.433.025 2.385.074 2.857 0 .195.032.618.097 1.27.065.358.122.707.171 1.05.065.341.138.666.22.976.114.504.293.985.537 1.44.244.44.537.66.879.66.293 0 .61-.294.952-.88.163-.26.26-.439.293-.537.325-.814.667-1.22 1.025-1.22.407 0 .66.732.757 2.197a.276.276 0 00-.024.122v.146c0 .538-.204 1.164-.611 1.88-.325.489-.708.855-1.147 1.099-.439.228-.96.342-1.563.342zm-.854-15.991c-.13 0-.252-.009-.366-.025h-.073v.025h.439zm12.329 16.967c-1.302 0-2.515-.407-3.638-1.22a6.632 6.632 0 01-1.977-2.49c-1.009-1.905-1.514-3.996-1.514-6.275 0-1.335.187-2.661.562-3.98a.883.883 0 00.073-.22c.13-.471.293-.935.488-1.39 1.286-2.442 3.06-3.663 5.322-3.663.928 0 1.84.22 2.735.66.895.439 1.676 1.082 2.344 1.928 1.204 1.53 1.969 3.296 2.295 5.298.081.52.122 1.123.122 1.806 0 .391-.025.79-.074 1.197a12.058 12.058 0 01-.61 2.905c-.407 1.025-.814 1.856-1.221 2.49a7.576 7.576 0 01-1.88 2.002c-.976.635-1.985.952-3.027.952zm-.098-4.077c.082 0 .261-.057.538-.17.276-.115.667-.627 1.171-1.539.163-.26.302-.537.415-.83v-.049c.293-.765.481-1.44.562-2.026l.024-.073a4.62 4.62 0 00.074-.806c0-.504-.033-.944-.098-1.318a6.427 6.427 0 00-.659-2.002c-.326-.684-.668-1.213-1.026-1.587-.716-.619-1.277-.928-1.684-.928-.44 0-.838.399-1.196 1.196a10.087 10.087 0 00-.708 2.564c-.098.57-.147 1.147-.147 1.733 0 1.595.399 3.125 1.196 4.59.603.83 1.115 1.245 1.538 1.245zm9.766 5.078c-.407 0-.854-.146-1.343-.44-.472-.308-.748-.886-.83-1.733-.114-1.074-.171-2.669-.171-4.785l.025-.537c.016-1.237.065-2.514.146-3.833 0-.293.016-.594.049-.903.049-1.319.22-2.67.513-4.053l.293-1.099c.211-.748.512-1.391.903-1.928.602-.895 1.424-1.343 2.466-1.343.293 0 .594.04.903.122.619.228 1.205.635 1.758 1.22.342.375.724.896 1.147 1.563.489.733.944 1.538 1.368 2.417l.293.61c.13.261.252.53.366.806.342.765.553 1.278.635 1.538.325.733.545 1.27.659 1.612l1.172 2.832.097-1.416c.049-.781.074-1.473.074-2.076l.024-.878-.024-.464c0-.635-.009-1.058-.025-1.27 0-.927.025-1.709.073-2.343v-1.05l-.024-.342c0-.228.024-.456.073-.684.293-.911.773-1.367 1.441-1.367.537 0 .984.39 1.342 1.172.114.31.196.651.245 1.025.048.375.138.871.268 1.49.228 1.074.374 2.14.44 3.198l.146 1.367a27.15 27.15 0 01.269 3.37c0 .325-.041.968-.123 1.928l-.024.073c-.114 1.432-.48 2.58-1.099 3.442-.651.847-1.489 1.27-2.514 1.27-1.009 0-1.888-.415-2.637-1.245-.504-.472-1.017-1.213-1.538-2.222-.57-1.14-1.213-2.636-1.929-4.492a2.1 2.1 0 00-.146-.366c-.049-.147-.399-1.066-1.05-2.759 0-.032-.008-.057-.024-.073a16.287 16.287 0 00-.977-2.295l-.073-.147-.391 3.125c0 .098-.008.188-.024.269-.065.83-.114 1.636-.147 2.417 0 .228-.032 1.025-.097 2.392-.049 1.644-.09 2.751-.122 3.32l-.098 1.514c-.016.245-.041.48-.073.709-.212.895-.773 1.342-1.685 1.342zm30.176-.195a4.5 4.5 0 01-.83-.073c-.602-.114-1.18-.651-1.734-1.612-.309-.57-.512-1.017-.61-1.342a17.97 17.97 0 01-.732-2.002l-.147-.39c-.032-.213-.268-.994-.708-2.345-.7-2.474-1.156-4.354-1.367-5.64a28.055 28.055 0 01-.464-4.492l.024-.976c.196-2.197.733-3.296 1.612-3.296.667 0 1.343.749 2.026 2.246l.049.708c0 .326.057.887.171 1.685l.049.366c.374 2.458.879 4.76 1.513 6.91.196.715.399 1.415.611 2.099.146.39.228.65.244.781l.122-.415c.26-1.14.586-2.263.976-3.37.082-.308.326-.984.733-2.026a40.257 40.257 0 012.393-4.931l.366-.66c.472-.813.952-1.594 1.44-2.343l.025-.049c.618-.96 1.22-1.668 1.806-2.124.57-.326 1.099-.488 1.587-.488.798 0 1.343.35 1.636 1.05.098.211.146.439.146.683 0 .505-.203 1.066-.61 1.685l-1.489 2.368c-.098.179-.204.35-.318.512-.879 1.45-1.595 2.767-2.148 3.956a53.739 53.739 0 00-1.392 3.296c-.146.439-.431 1.391-.854 2.856-.114.342-.293 1-.537 1.978-.407 1.692-.798 2.937-1.172 3.735a3.586 3.586 0 01-.952 1.245l-.074.049c-.309.211-.512.325-.61.342-.098.016-.358.024-.781.024zm12.817-23.242c-.846 0-1.538-.318-2.075-.952a.88.88 0 01-.22-.562c0-.293.236-.626.708-1l.074-.05c.195-.179.529-.423 1.001-.732l1.171-.757c.228-.163.424-.277.586-.342.082-.081.464-.325 1.148-.732a9.56 9.56 0 00.586-.342c.179-.114.366-.22.561-.317l1.05-.635a1.78 1.78 0 01.513-.073c.683.065 1.269.366 1.758.903.244.277.366.57.366.879 0 .277-.106.561-.318.854a4.774 4.774 0 01-.512.293 1.52 1.52 0 00-.269.171c-.179.098-.35.196-.513.293a7.009 7.009 0 01-.488.269l-.61.39c-.342.196-.562.326-.659.391a4.037 4.037 0 01-.269.147 6.534 6.534 0 00-.268.17 6.521 6.521 0 00-.269.171 2.726 2.726 0 01-.293.171l-.879.562-1.001.61a1.76 1.76 0 01-.879.22zm1.685 22.876a6.66 6.66 0 01-2.832-.61c-2.002-.83-3.304-2.58-3.906-5.25a12.3 12.3 0 01-.293-2.685c0-1.579.179-3.084.537-4.517.358-1.318.813-2.457 1.367-3.418l.024-.024a13.568 13.568 0 012.1-2.71c.83-.83 1.701-1.481 2.612-1.953.993-.521 1.929-.822 2.808-.903.163 0 .317-.009.464-.025h.903c.439.016.879.098 1.318.244.879.293 1.636.79 2.271 1.49.96 1.188 1.44 2.53 1.44 4.028a7.357 7.357 0 01-.757 3.247c-.553 1.302-1.432 2.498-2.636 3.589a13.91 13.91 0 01-2.491 1.88c-1.888 1.155-3.613 1.766-5.175 1.83 0 .033.008.074.024.123a.303.303 0 01.073.146c.131.277.293.537.489.781.569.619 1.196.928 1.88.928.895 0 2.067-.545 3.515-1.636l.073-.048c.635-.521 1.14-.88 1.514-1.075l.171-.097c.26-.05.513-.073.757-.073.342 0 .708.073 1.098.22.407.13.651.569.733 1.318-.244.992-1.05 1.993-2.417 3.002a12.589 12.589 0 01-2.612 1.514c-1.042.456-2.059.684-3.052.684zm-2.759-8.643l.195-.024c1.058-.277 2.067-.765 3.028-1.465 1.595-1.172 2.726-2.295 3.393-3.37.521-.943.79-1.822.806-2.636 0-.179-.065-.537-.195-1.074l-.245-.464c-.146-.228-.317-.366-.512-.415h-.366.341a1.197 1.197 0 00-.366-.073c-.195 0-.374.016-.537.049l-.122.024h.684c-.586 0-1.278.252-2.076.757-1.399.911-2.449 2.197-3.149 3.857-.586 1.384-.879 2.995-.879 4.834zm15.454 9.253h-.586c-.358 0-.749-.618-1.172-1.855a64.968 64.968 0 01-.366-1.88c-.114-.635-.228-1.278-.342-1.929a39.14 39.14 0 01-.293-1.977c-.244-2.133-.39-3.581-.439-4.346a76.76 76.76 0 01-.22-5.762c0-1.009.016-1.864.049-2.563v-.708l.146-3.663.098-1.44c0-.325.033-.716.098-1.172.081-.472.35-.854.805-1.147a3.207 3.207 0 011.709-.464c.489 0 .928.122 1.319.366.39.228.586.635.586 1.22.065.766.097 1.173.097 1.221.017.033.049.513.098 1.44l.024 2.247v6.909c0 .928.017 1.847.049 2.759l.025 1.44.049 1.294c0 .554.016 1.107.048 1.66l.098 2.344c0 .521.065 1.628.195 3.32l.025.757c0 .538-.017.871-.049 1.001-.667.619-1.351.928-2.051.928zm10.498-1.05c-1.302 0-2.514-.407-3.638-1.22a6.632 6.632 0 01-1.977-2.49c-1.009-1.905-1.514-3.996-1.514-6.275 0-1.335.187-2.661.562-3.98a.883.883 0 00.073-.22c.13-.471.293-.935.488-1.39 1.286-2.442 3.06-3.663 5.323-3.663.927 0 1.839.22 2.734.66.895.439 1.676 1.082 2.344 1.928 1.204 1.53 1.969 3.296 2.295 5.298.081.52.122 1.123.122 1.806 0 .391-.025.79-.074 1.197a12.058 12.058 0 01-.61 2.905c-.407 1.025-.814 1.856-1.221 2.49a7.576 7.576 0 01-1.88 2.002c-.976.635-1.985.952-3.027.952zm-.098-4.077c.082 0 .261-.057.538-.17.276-.115.667-.627 1.171-1.539a4.93 4.93 0 00.416-.83v-.049c.292-.765.48-1.44.561-2.026l.024-.073a4.62 4.62 0 00.074-.806c0-.504-.033-.944-.098-1.318a6.427 6.427 0 00-.659-2.002c-.326-.684-.667-1.213-1.026-1.587-.716-.619-1.277-.928-1.684-.928-.44 0-.838.399-1.196 1.196a10.087 10.087 0 00-.708 2.564c-.098.57-.147 1.147-.147 1.733 0 1.595.399 3.125 1.196 4.59.603.83 1.115 1.245 1.538 1.245zm21.583.025h-.098c-.928 0-1.611-.44-2.051-1.319a3.724 3.724 0 01-.098-.854c0-.342.049-.83.147-1.465 0-.082.065-.545.195-1.392.342-1.692.936-3.108 1.782-4.248l.098-.122c.293-.423.627-.846 1.001-1.27l1.343-1.513c.114-.114.22-.236.317-.366l.513-.562c.13-.179.277-.366.439-.561.131-.13.253-.285.367-.464.244-.39.431-.724.561-1.001v-.024c.13-.26.195-.424.195-.489a.81.81 0 00.074-.317v-.415a2.512 2.512 0 00-.44-1.294c-.244-.39-.504-.692-.781-.903-.781-.7-1.44-1.05-1.978-1.05-.081 0-.284.04-.61.122-.309.081-.7.44-1.172 1.074a3.19 3.19 0 00-.757 1.123l-.024.049a3.994 3.994 0 00-.317 1.562v.318c0 .456.114.903.341 1.343.065.146.163.317.293.512.082.228.122.464.122.708 0 .39-.146.88-.439 1.465-.293.57-.716.944-1.27 1.123-.227 0-.439-.04-.634-.122a4.35 4.35 0 01-1.294-.855 6.014 6.014 0 01-1.441-2.66 7.44 7.44 0 01-.244-1.783 9.281 9.281 0 01.513-2.954c.179-.472.358-.846.537-1.123 0-.016.008-.024.024-.024a9.1 9.1 0 011.368-1.88v-.025a7.396 7.396 0 011.904-1.562c.814-.456 1.644-.684 2.49-.684l.879.025c.57 0 1.131.13 1.685.39 1.09.489 2.181 1.392 3.271 2.71.391.472.741.977 1.05 1.514.309.602.521 1.18.635 1.733.097.489.146.928.146 1.319l-.024.463c-.131 1.058-.529 2.157-1.197 3.296-.358.57-.643.96-.854 1.172l-.147.171c-.179.228-.358.448-.537.66a6.14 6.14 0 00-.317.341 4.21 4.21 0 01-.269.293c-.309.31-.618.635-.927.977l-.196.244-.219.268a4.475 4.475 0 01-.269.293c-.602.684-.96 1.547-1.074 2.588a12.14 12.14 0 00-.22 1.856c-.016 1.058-.098 1.847-.244 2.368-.456.797-1.172 1.204-2.148 1.22zm.512 6.127c-.765 0-1.375-.317-1.831-.952-.114-.309-.171-.789-.171-1.44.033-.635.31-1.115.83-1.44.537-.326 1.091-.489 1.661-.489h.146c1.09.065 1.636.57 1.636 1.514l-.025.195.049.537c.016.065.025.18.025.342 0 .18-.017.358-.049.537-.472.798-1.229 1.197-2.271 1.197z" fill="#FFF2EA"/><defs><clipPath id="prefix__clip0"><path fill="#fff" d="M0 0h1034.64v487.887H0z"/></clipPath></defs></svg>