<svg width="253" height="253" viewBox="0 0 253 253" fill="none" xmlns="http://www.w3.org/2000/svg">
    <g clip-path="url(#clip0)">
        <path d="M94.9391 208.536C83.8736 205.985 73.8305 201.982 65.156 196.664C63.3504 195.549 61.5647 194.497 59.8117 193.453C43.7333 183.867 29.8722 175.549 23.2084 151.365C22.2373 147.823 21.0416 135.263 21.3006 131.305C21.5524 127.23 23.6486 116.942 25.1433 112.396C34.957 82.3464 44.7503 59.3945 60.7961 44.8118C68.6338 37.6525 77.3734 34.4853 84.8987 32.2608C105.9 26.156 127.053 25.2096 145.985 29.5732C149.086 30.2879 152.149 31.1685 155.121 32.1446C161.346 34.2198 167.613 35.6643 173.651 37.0561C188.732 40.532 202.996 43.8198 215.816 56.2063C221.919 62.0957 225.94 67.9131 228.525 74.4473C235.804 93.1253 234.014 126.247 224.21 153.272C218.916 167.888 212.177 180.424 204.728 189.477C197.518 198.237 189.645 203.758 181.961 205.48C148.253 213.022 118.996 214.081 94.9391 208.536Z" fill="#22C79E"/>
        <path d="M144.709 35.1012C147.745 35.8009 150.743 36.6664 153.649 37.6275C159.972 39.7252 166.272 41.1773 172.343 42.5766C187.13 45.9848 201.133 49.2123 213.475 61.1393C219.236 66.7173 223.021 72.0725 225.368 78.1444C228.681 86.5928 229.998 98.7734 229.153 112.435C228.318 125.749 225.504 139.598 221.2 151.414C216.208 165.167 209.901 176.871 202.963 185.344C196.382 193.317 189.191 198.414 182.191 200.002C148.867 207.517 119.93 208.532 96.1993 203.062C85.3297 200.557 75.5023 196.662 67.0109 191.444C65.2053 190.33 63.387 189.27 61.634 188.226C53.719 183.49 46.2554 179.034 40.1191 172.845C33.6222 166.283 29.2702 158.468 26.431 148.266C25.6661 145.469 24.5403 133.799 24.7515 130.645C24.9683 127.319 26.9059 117.868 28.1697 114.025C32.0373 102.167 36.7881 88.4157 42.7998 76.3526C48.5081 64.86 54.7529 56.1108 61.9227 49.6126C69.1959 42.9636 77.5127 39.99 84.6734 37.8562C105.368 31.739 126.104 30.8128 144.709 35.1012ZM147.258 24.0446C127.477 19.4854 106.208 20.6379 85.0634 26.7679C76.5094 29.2792 67.7389 32.7304 59.6543 40.0657C41.7789 56.3226 31.5626 81.8551 22.1144 110.767C20.4724 115.803 18.1453 126.794 17.8018 132.013C17.4767 137.003 18.7878 150.405 19.938 154.512C27.7789 182.984 44.9163 190.66 63.2532 201.931C72.5948 207.636 82.8593 211.573 93.6637 214.064C121.572 220.496 153.12 217.405 181.552 210.975C198.523 207.143 215.504 187.012 227.088 155.1C236.879 128.13 239.945 92.1583 231.581 70.727C228.309 62.4042 223.353 56.3133 218.07 51.1949C199.508 33.2932 178.118 33.7775 156.557 26.6536C153.487 25.655 150.391 24.7669 147.258 24.0446Z" fill="white"/>
        <path d="M114.962 107.634L114.319 107.486C113.243 106.937 112.312 106.033 111.524 104.775C110.863 103.62 110.309 102.44 109.86 101.234C109.303 99.6278 108.834 98.0789 108.451 96.5876L108.365 96.3049C108.039 95.0021 107.677 93.1522 107.277 90.7551C106.945 88.8246 106.678 86.6709 106.474 84.2939L106.122 81.0935L105.024 70.6934C105.005 70.6642 105.002 70.6257 105.013 70.5782C104.95 70.7392 104.888 70.9003 104.826 71.0613C104.769 71.1986 104.725 71.3386 104.692 71.4813L104.448 72.2143C103.658 74.3372 103.12 76.0172 102.835 77.2543C102.605 77.9277 102.182 79.4339 101.568 81.7726C101.462 82.124 101.316 82.7041 101.129 83.513L100.301 87.2682L99.6847 90.4332C99.5897 91.0627 99.375 92.2659 99.0406 94.0429L98.6348 95.6405C98.2416 96.8026 97.5657 97.5613 96.6069 97.9165C95.9775 98.1473 95.3892 98.1996 94.842 98.0735C94.5327 98.0022 94.1027 97.8028 93.5518 97.4754C93.0301 97.1297 92.8277 96.2688 92.9445 94.8927C92.8523 92.4662 93.1086 89.5063 93.7134 86.0128C94.2342 83.427 94.6454 81.4799 94.947 80.1714C95.1718 79.196 95.4205 78.2261 95.6929 77.2617L96.0411 75.9138C96.3464 74.8067 96.7623 73.4369 97.2889 71.8044C97.9215 69.8206 98.6347 67.8679 99.4283 65.9463L99.6999 65.2573L100.416 63.6184L101.074 62.2293C101.113 62.0628 101.309 61.6446 101.664 60.9748C102.253 59.8327 102.96 58.9935 103.785 58.4572C104.458 58.0361 105.023 57.8154 105.479 57.7952C105.781 57.7896 106.122 57.8307 106.502 57.9184L107.137 58.1022L108.1 58.3243C108.717 58.6919 109.223 59.1593 109.618 59.7265C110.179 60.5571 110.624 61.6119 110.956 62.8909C111.185 64.0712 111.379 65.2935 111.539 66.5579L111.597 66.7967C111.685 67.719 111.779 68.5049 111.88 69.1545L112.185 71.7428C112.429 73.4025 112.652 75.3705 112.854 77.6468C113.232 81.1163 113.472 83.2261 113.575 83.9763C113.87 86.4997 114.128 88.5885 114.348 90.2426L114.609 91.8813C114.721 92.809 114.943 94.0752 115.274 95.68C115.544 97.12 115.8 98.1813 116.044 98.8638L116.331 97.1262C116.518 95.9916 116.7 94.6558 116.879 93.1186C116.886 92.8697 116.908 92.6117 116.945 92.3445C116.981 92.0773 117.089 91.0123 117.268 89.1494C117.565 86.3368 117.756 84.6395 117.84 84.0575L117.837 83.9066C118.314 80.5339 118.829 77.6462 119.383 75.2433C119.493 74.7675 119.612 74.3064 119.74 73.8598C120.047 72.5276 120.379 71.414 120.735 70.5191L121.012 69.6434C121.396 68.6295 121.831 67.6147 122.315 66.599C122.767 65.726 123.278 64.8667 123.849 64.0211C125.192 62.3263 126.468 61.1923 127.677 60.6192C128.586 60.1524 129.498 59.949 130.411 60.0091L131.561 60.2367C132.703 60.4999 133.648 61.1812 134.397 62.2808C134.862 63.0895 135.004 63.8864 134.823 64.6715C134.659 65.3852 134.281 65.937 133.69 66.3269C133.123 66.7224 132.566 66.857 132.018 66.7309C131.709 66.6596 131.41 66.4904 131.121 66.2233C130.713 65.9288 130.449 65.7679 130.33 65.7404C130.045 65.6746 129.708 65.8852 129.32 66.372L129.276 66.3995C128.852 66.8278 128.467 67.3028 128.121 67.8244C127.799 68.3515 127.434 69.1192 127.026 70.1276C126.957 70.2118 126.776 70.6712 126.483 71.5057C125.907 73.0265 125.411 74.6909 124.994 76.499L124.602 78.3629C124.427 79.4499 124.309 80.1242 124.249 80.3859L123.618 84.7504L123.536 85.5959L123.358 87.0205C123.311 87.661 123.239 88.4085 123.142 89.2631L123.106 89.7435C123.008 90.8232 122.924 91.8937 122.855 92.955C122.791 93.9926 122.706 95.0128 122.6 96.0156C122.48 97.5162 122.338 98.8365 122.176 99.9766C122.068 100.553 121.915 101.27 121.718 102.126C121.274 104.053 120.639 105.448 119.814 106.31C118.722 107.461 117.624 107.985 116.521 107.881C116.076 107.853 115.556 107.771 114.962 107.634ZM134.625 104.988C132.722 104.549 131.087 103.546 129.719 101.978C128.702 100.742 128.018 99.3062 127.668 97.6722C126.834 94.5488 126.801 91.3217 127.569 87.9911C128.019 86.0403 128.739 84.1644 129.731 82.3635C129.8 82.2793 129.86 82.1805 129.912 82.067C130.261 81.421 130.655 80.7978 131.094 80.1975C133.796 77.0621 136.801 75.8755 140.107 76.6377C141.463 76.9503 142.722 77.5785 143.882 78.5224C145.042 79.4663 145.968 80.6693 146.658 82.1312C147.903 84.7732 148.426 87.6122 148.228 90.6481C148.171 91.4368 148.028 92.3307 147.797 93.3299C147.666 93.9009 147.496 94.4755 147.287 95.0538C146.788 96.5673 146.165 97.9143 145.416 99.0948C144.476 100.456 143.602 101.533 142.793 102.323C141.793 103.295 140.652 104.06 139.371 104.616C137.73 105.215 136.148 105.339 134.625 104.988ZM135.856 98.9958C135.975 99.0232 136.256 99.0002 136.699 98.9269C137.142 98.8536 137.885 98.2358 138.93 97.0735C139.255 96.7477 139.551 96.3899 139.816 96.0001L139.833 95.9287C140.518 94.9093 141.02 93.985 141.336 93.156L141.396 93.0571C141.561 92.6692 141.687 92.2848 141.775 91.9042C141.945 91.1667 142.045 90.5134 142.076 89.9443C142.158 88.936 142.062 87.8866 141.787 86.796C141.542 85.6871 141.22 84.7988 140.823 84.131C139.985 82.9857 139.268 82.3445 138.673 82.2074C138.031 82.0594 137.314 82.5079 136.522 83.553C135.753 84.6035 135.121 85.773 134.623 87.0614C134.289 87.8612 134.022 88.6893 133.825 89.5457C133.288 91.8772 133.355 94.2478 134.027 96.6576C134.628 98.0738 135.238 98.8532 135.856 98.9958ZM148.419 109.708C147.825 109.571 147.22 109.206 146.605 108.614C146.019 108.003 145.809 107.065 145.975 105.8C146.171 104.192 146.625 101.841 147.338 98.7484L147.554 97.9716C147.995 96.169 148.497 94.3179 149.06 92.4183C149.159 91.9901 149.284 91.5554 149.436 91.1144C149.951 89.2038 150.656 87.2868 151.55 85.3633L152.349 83.8562C152.91 82.8331 153.567 81.9948 154.319 81.3414C155.501 80.2358 156.853 79.8584 158.375 80.2094C158.804 80.3081 159.23 80.469 159.655 80.6921C160.482 81.2336 161.201 82.0257 161.813 83.0686C162.186 83.7309 162.57 84.6211 162.964 85.7391C163.431 86.9741 163.825 88.3053 164.148 89.7325L164.37 90.7234C164.473 91.1479 164.561 91.5815 164.634 92.0244C164.876 93.2577 165.013 94.0783 165.044 94.4864C165.273 95.6666 165.413 96.5257 165.464 97.0637L166.223 101.598L166.843 99.5612C167.178 98.4357 167.446 97.4328 167.649 96.5526L167.981 95.2761L168.102 94.5899C168.315 93.6621 168.446 93.0408 168.494 92.726C168.806 91.37 169.105 90.2363 169.39 89.3249L169.744 87.7904L169.823 87.2826C169.9 86.9495 170.013 86.6247 170.161 86.3081C170.896 85.0745 171.751 84.5702 172.727 84.795C173.512 84.9759 174.035 85.6977 174.295 86.9603C174.357 87.4507 174.361 87.9777 174.306 88.5413C174.251 89.1049 174.215 89.8607 174.197 90.8086C174.168 92.4555 174.023 94.0631 173.762 95.6314L173.515 97.6792C173.364 99.4231 173.116 101.095 172.773 102.694C172.663 103.17 172.387 104.096 171.945 105.472L171.884 105.571C171.235 107.626 170.313 109.18 169.119 110.233C167.882 111.25 166.514 111.587 165.015 111.241C163.54 110.901 162.395 109.998 161.581 108.533C161.002 107.673 160.502 106.418 160.081 104.767C159.632 102.91 159.197 100.505 158.775 97.5513C158.766 97.3739 158.736 97.179 158.685 96.9667C158.663 96.7362 158.461 95.2741 158.08 92.5806C158.091 92.533 158.087 92.4946 158.069 92.4653C157.938 91.1826 157.72 89.9548 157.414 88.7819L157.357 88.5431L155.733 92.9792C155.7 93.122 155.658 93.2501 155.607 93.3635C155.232 94.5549 154.889 95.7161 154.578 96.847C154.501 97.1801 154.185 98.3349 153.629 100.311C153.004 102.698 152.572 104.302 152.332 105.123L151.68 107.303C151.574 107.654 151.458 107.991 151.334 108.313C150.723 109.55 149.752 110.015 148.419 109.708Z" fill="#FFF2EA"/>
        <path d="M93.5927 166.715C91.6572 165.859 90.123 164.457 88.9918 162.506C88.1617 160.98 87.7334 159.308 87.6943 157.495C87.4497 153.995 88.0797 150.548 89.5821 147.152C90.4611 145.165 91.6142 143.31 93.0406 141.592C93.1336 141.515 93.2189 141.423 93.2943 141.313C93.8009 140.696 94.3443 140.113 94.9376 139.561C98.4581 136.768 101.899 136.117 105.258 137.603C106.636 138.212 107.847 139.139 108.887 140.384C109.927 141.626 110.666 143.096 111.1 144.799C111.881 147.869 111.852 151.004 111.016 154.2C110.791 155.031 110.454 155.954 110.004 156.972C109.746 157.554 109.447 158.13 109.106 158.707C108.262 160.22 107.319 161.527 106.283 162.635C105.004 163.897 103.851 164.864 102.83 165.544C101.566 166.377 100.192 166.959 98.7169 167.291C96.8501 167.591 95.1394 167.4 93.5927 166.715ZM96.1338 160.577C96.2531 160.63 96.5587 160.662 97.0447 160.675C97.5306 160.689 98.4521 160.179 99.8005 159.155C100.212 158.874 100.601 158.552 100.964 158.192L100.996 158.12C101.933 157.174 102.657 156.289 103.167 155.47L103.252 155.377C103.507 154.995 103.72 154.615 103.893 154.224C104.225 153.473 104.465 152.797 104.616 152.195C104.91 151.135 105.034 149.995 104.981 148.769C104.932 147.544 104.76 146.533 104.477 145.739C103.82 144.349 103.19 143.517 102.587 143.251C101.935 142.962 101.085 143.294 100.038 144.255C98.9921 145.211 98.073 146.327 97.2761 147.6C96.7542 148.385 96.3019 149.213 95.9151 150.087C94.8632 152.465 94.4473 155.006 94.6686 157.713C95.0173 159.343 95.5044 160.299 96.1338 160.577Z" fill="#FFF2EA"/>
        <path d="M157.977 162.69C158.461 160.745 158.72 158.954 158.748 157.323C158.746 155.365 158.54 153.579 158.123 151.975C157.381 149.006 156.259 146.645 154.746 144.899C152.479 142.503 149.838 140.639 146.815 139.301C144.758 138.391 142.59 137.9 140.309 137.83C140.08 137.842 139.85 137.866 139.625 137.881C139.577 136.867 139.509 135.863 139.429 134.871C139.349 133.879 139.267 133.043 139.185 132.355L139.128 131.661C138.995 130.466 138.854 129.272 138.721 128.077L138.529 126.671C138.506 126.351 138.442 125.969 138.35 125.52C138.337 125.465 138.32 125.415 138.306 125.37C138.277 125.091 138.17 124.803 137.985 124.505C137.804 124.125 137.208 123.509 136.126 123.714C135.041 123.921 130.194 126.577 129.395 129.472C129.383 129.511 129.119 130.503 130.303 131.357C130.419 131.44 130.525 131.499 130.628 131.545C130.953 131.689 131.221 131.672 131.405 131.623C131.92 131.482 132.144 131.003 132.156 130.976C132.162 130.962 132.866 129.704 134.981 128.264C134.984 128.332 134.985 128.396 134.989 128.469L135.148 130.677L135.189 131.18L135.319 132.787L135.701 137.461C135.732 137.876 135.755 138.279 135.783 138.693C135.726 138.712 135.669 138.728 135.612 138.747C135.546 138.772 135.483 138.804 135.418 138.829C135.371 138.845 135.324 138.858 135.271 138.877C135.229 138.89 135.185 138.91 135.145 138.929C132.947 139.838 131.689 140.787 130.433 141.579L129.794 142.063C129.144 142.521 127.503 143.878 125.815 145.431C124.239 146.881 122.284 148.593 120.603 150.036C120.053 150.499 119.119 151.332 117.803 152.528C117.798 152.194 117.79 151.917 117.782 151.702C117.733 149.962 117.637 148.256 117.491 146.579C117.412 145.685 117.336 144.928 117.259 144.312L117.205 143.685C117.077 142.606 116.947 141.527 116.82 140.448L116.656 139.288C117.331 139.575 118.049 139.904 118.82 140.29C119.012 140.412 120.058 141.032 120.975 140.732C121.284 140.63 121.7 140.379 121.948 139.756C122.066 139.53 122.413 138.623 121.115 137.609C119.987 136.729 112.966 133.504 109.505 134.184C109.047 134.269 108.233 134.78 108.431 136.094C108.533 136.786 108.943 137.165 109.365 137.351C109.676 137.489 109.996 137.527 110.217 137.512C110.235 137.51 111.342 137.53 113.355 138.101C113.353 138.193 113.352 138.291 113.36 138.401C113.37 139.084 113.379 139.442 113.374 139.479C113.371 139.515 113.386 139.947 113.424 140.773L113.581 142.765L113.621 143.219L113.75 144.668L113.925 146.69C113.458 146.651 112.958 146.718 112.501 146.801C110.602 147.146 108.701 147.485 106.802 147.831C105.825 147.932 104.5 148.143 102.823 148.463C101.749 148.711 101.133 148.842 100.968 148.85L100.648 148.932C100.096 149.047 99.5619 149.192 99.0513 149.362C98.7941 149.416 98.4335 149.541 97.9727 149.743C97.1953 150.105 96.7395 150.518 96.6099 150.973C96.5538 151.172 96.5165 151.384 96.4938 151.607C96.464 151.936 96.4513 152.137 96.4599 152.212C96.4664 152.286 96.5398 152.454 96.6795 152.705L96.7125 152.764C96.949 153.102 97.2488 153.375 97.609 153.584C98.1961 153.925 99.1316 154.311 100.412 154.743C101.15 154.998 101.643 155.179 101.902 155.294C103.003 155.717 103.72 156.004 104.044 156.148C105.036 156.641 105.851 157.073 106.488 157.446C107.365 157.954 108.336 158.595 109.393 159.373C109.513 159.47 109.635 159.566 109.766 159.653L111.488 160.964C111.936 161.319 112.356 161.515 112.746 161.552C112.935 161.569 113.11 161.546 113.282 161.484C113.484 161.422 113.653 161.324 113.788 161.202C113.949 161.093 114.155 160.941 114.418 160.74L115.087 160.2C116.543 158.945 117.505 158.139 117.975 157.781L120.035 156.1C120.517 155.699 121.005 155.302 121.505 154.923L121.517 154.934C120.469 157.842 119.844 160.799 119.661 163.805C119.536 166.049 119.675 168.113 120.085 170.001C120.897 174.307 122.691 177.674 125.467 180.092C126.666 181.107 127.968 181.922 129.373 182.543C131.212 183.357 133.176 183.736 135.268 183.683C137.358 183.629 139.767 183.01 142.488 181.828C142.579 181.756 142.675 181.7 142.777 181.659C146.048 180.012 148.934 177.777 151.425 174.959C153.349 172.829 154.913 170.506 156.107 167.999C156.948 166.099 157.571 164.325 157.977 162.69ZM113.593 156.563C113.244 156.984 112.781 157.448 112.247 157.337C112.226 157.333 112.206 157.319 112.185 157.315C111.706 156.941 111.206 156.572 110.686 156.202L110.203 155.875C109.01 155.047 107.801 154.323 106.566 153.69C105.791 153.308 105.286 153.07 105.055 152.985C104.228 152.609 103.382 152.281 102.525 152.006L102.213 151.882C102.314 151.878 102.522 151.835 102.833 151.748C103.373 151.628 103.928 151.52 104.492 151.418C106.194 151.074 108.004 150.839 109.927 150.713L110.215 150.701C110.84 150.667 111.275 150.663 111.526 150.683L112.034 150.691C112.266 150.706 112.503 150.715 112.753 150.717C113.057 150.721 113.356 150.76 113.657 150.77C113.768 150.836 113.866 150.926 113.946 151.05C114.158 151.383 114.19 151.795 114.212 152.189C114.257 152.91 114.3 153.63 114.349 154.347C114.374 154.708 114.394 155.075 114.298 155.424C114.167 155.86 113.875 156.22 113.593 156.563ZM148.044 166.52C147.338 167.659 146.42 168.856 145.281 170.113L144.866 170.566C144.19 171.317 143.206 172.19 141.929 173.187C140.761 174.063 139.621 174.739 138.515 175.216C136.095 176.305 134.003 176.459 132.238 175.678C129.698 174.554 128.136 171.748 127.55 167.253C127.379 165.616 127.412 163.968 127.652 162.313C128.055 160.023 128.699 157.89 129.571 155.919C130.159 154.591 130.782 153.415 131.435 152.396C131.982 151.615 132.555 150.848 133.149 150.088C134.146 148.881 135.152 147.907 136.177 147.165C136.231 147.13 136.282 147.098 136.335 147.068L136.379 148.13C136.429 149.028 136.468 149.935 136.492 150.848L136.62 155.541L136.664 157.154L136.678 157.66L136.757 159.873C136.818 160.786 136.854 161.264 136.864 161.303C136.873 161.344 136.913 161.738 136.983 162.492C137 163.07 137.161 163.468 137.474 163.688C137.785 163.907 138.133 164.011 138.512 163.995C139.009 163.976 139.446 163.805 139.831 163.481C140.179 163.178 140.374 162.797 140.418 162.337C140.464 161.878 140.479 161.488 140.472 161.165L140.509 159.746C140.514 158.54 140.519 157.335 140.522 156.131L140.504 155.432C140.511 154.739 140.502 153.899 140.473 152.902C140.421 151.123 140.32 149.313 140.166 147.481C140.175 147.495 140.182 147.506 140.188 147.513C140.19 147.042 140.15 146.267 140.091 145.394C141.585 145.035 142.943 145.124 144.171 145.667C146.106 146.523 147.727 147.824 149.039 149.567C150.288 151.453 150.93 153.753 150.973 156.473L150.978 156.857C150.979 158.163 150.819 159.373 150.504 160.481C150.26 161.622 149.879 162.777 149.365 163.939C148.958 164.848 148.52 165.705 148.044 166.52Z" fill="#FFF2EA"/>
        <path d="M114.484 146.847C120.048 144.293 125.994 142.261 132.106 140.563C132.695 140.4 133.295 140.238 133.942 140.254C134.589 140.272 135.298 140.497 135.723 140.961C136.253 141.542 136.192 142.341 135.792 142.888C135.393 143.434 134.722 143.779 134.06 144.101C128.143 146.98 121.601 149.066 114.707 150.273L114.484 146.847Z" fill="#FFF2EA"/>
    </g>
    <defs>
        <clipPath id="clip0">
            <rect width="211" height="209" fill="white" transform="translate(47.166 0.974609) rotate(12.9793)"/>
        </clipPath>
    </defs>
</svg>
