<svg width="289" height="209" viewBox="0 0 289 209" fill="none" xmlns="http://www.w3.org/2000/svg">
<g clip-path="url(#clip0)">
<path d="M127.612 191.528C112.059 191.528 97.4229 189.883 84.2094 186.649C81.4566 185.969 78.7497 185.345 76.0886 184.721C51.6803 178.991 30.6212 173.998 14.2878 151.929C11.9021 148.696 6.4423 136.725 5.57058 132.81C4.65297 128.782 4.28593 118.287 4.88237 113.521C8.73632 82.035 14.7466 57.4699 31.6765 39.6559C39.9349 30.9192 50.625 25.87 59.9846 22.0122C86.1364 11.3465 114.077 5.67327 140.688 5.67327C145.047 5.67327 149.405 5.84347 153.672 6.12713C162.619 6.75118 171.428 6.75118 179.916 6.75118C201.112 6.75118 221.162 6.75118 242.084 15.9418C252.04 20.3102 259.197 25.0757 264.657 30.8624C280.118 47.4283 287.918 80.1061 283.146 108.642C280.577 124.074 275.439 137.803 268.281 148.298C261.353 158.453 252.544 165.602 242.818 169.006C200.149 183.926 161.426 191.528 127.612 191.528Z" fill="#F98E12"/>
<path d="M140.687 11.3465C144.954 11.3465 149.221 11.5167 153.396 11.8003C162.48 12.4244 171.335 12.4244 179.869 12.4244C200.653 12.4244 220.335 12.4244 240.477 21.2746C249.882 25.4161 256.581 29.7845 261.582 35.174C268.601 42.6627 274.107 54.2361 277.181 67.7384C280.163 80.9003 280.668 95.0267 278.557 107.508C276.126 122.031 271.308 134.853 264.656 144.667C258.324 153.915 250.295 160.496 241.44 163.616C199.276 178.423 160.966 185.912 127.611 185.912C112.333 185.912 98.0184 184.323 85.0801 181.146C82.3273 180.466 79.5745 179.842 76.9134 179.217C64.8928 176.381 53.5604 173.714 43.4667 169.062C32.7766 164.127 24.564 157.489 17.6361 148.185C15.755 145.632 10.6623 134.512 9.97408 131.392C9.23999 128.102 8.91883 118.457 9.42351 114.429C10.9376 102.005 13.0481 87.538 17.3608 74.4328C21.4441 61.9517 27.0874 52.0236 34.6577 44.081C42.3197 35.9683 52.5051 31.2028 61.4059 27.5152C87.1447 16.9062 114.535 11.3465 140.687 11.3465ZM140.687 0C112.884 0 84.8507 5.90016 58.5154 16.6226C47.8712 20.991 37.227 26.3238 28.6932 35.2875C9.83644 55.1438 4.05552 82.3186 0.339214 112.614C-0.303111 117.89 -0.0278287 129.123 1.11918 134.285C2.22031 139.221 8.09298 151.986 10.8917 155.73C30.1155 181.714 55.3497 185.345 83.2908 192.209C97.5137 195.67 112.425 197.202 127.611 197.202C166.839 197.202 207.993 187.103 243.964 174.452C265.436 166.907 281.907 143.476 287.55 109.777C292.321 81.2974 285.348 45.5561 267.592 26.5507C260.664 19.1755 252.176 14.3533 243.551 10.5522C213.27 -2.72315 184.87 2.55296 153.901 0.453859C149.496 0.170197 145.092 0 140.687 0Z" fill="#FFF2EA"/>
<path d="M71.2596 85.9243C69.5018 85.9243 67.8051 85.497 66.1693 84.6425C63.5326 83.1289 61.6649 80.7607 60.5663 77.5381C60.3221 76.6836 60.2001 75.9145 60.2001 75.2309C60.2001 74.5717 60.2977 73.9126 60.493 73.2534C60.6884 72.5942 60.9935 71.9839 61.4086 71.4223C61.8236 70.8608 62.2997 70.3847 62.8368 69.9941C63.2274 69.872 63.5936 69.811 63.9354 69.811C64.5458 69.811 65.1805 70.0429 65.8397 70.5068C66.5233 70.9463 66.9872 71.6176 67.2313 72.521C67.2802 72.7163 67.3046 72.9116 67.3046 73.1069C67.3046 73.7661 66.9872 74.3886 66.3524 74.9746C66.1815 75.1455 66.0961 75.4384 66.0961 75.8535C66.0961 76.708 66.4989 77.6723 67.3046 78.7466C67.8661 79.4546 68.5985 79.9673 69.5018 80.2846C70.0634 80.5044 70.576 80.6142 71.0399 80.6142C71.5282 80.6142 71.931 80.5532 72.2484 80.4311C73.1273 80.0161 73.579 79.2715 73.6034 78.1972C73.579 77.123 73.1761 76.0122 72.3949 74.8647C72.3705 74.8647 72.3583 74.8525 72.3583 74.8281C71.2352 73.1191 69.7582 71.5322 67.9271 70.0674C67.0726 69.3105 66.2059 68.5171 65.327 67.687C63.9354 66.2221 62.8978 64.9282 62.2142 63.8051C60.5541 61.0952 59.724 58.1655 59.724 55.0161C59.7484 51.9399 60.6761 49.0468 62.5072 46.3369C63.3617 45.1894 64.3871 44.1152 65.5834 43.1142C67.9515 41.0879 70.6127 40.0503 73.5668 40.0014C73.8842 40.0014 74.2015 40.0258 74.5189 40.0747C76.4232 40.1479 78.1932 40.6484 79.829 41.5761C80.6591 42.04 81.5746 42.8091 82.5756 43.8833C83.3812 44.8598 84.0038 45.7509 84.4432 46.5566L84.6263 46.9594C85.139 47.8383 85.493 48.7661 85.6884 49.7426C85.9081 50.5727 86.0179 51.4272 86.0179 52.3061L85.9813 53.185C85.8837 54.2104 85.6273 55.248 85.2123 56.2978L85.0658 56.5542C84.8949 56.9692 84.6752 57.3476 84.4066 57.6894L84.2968 57.8359C83.6864 58.666 82.9662 59.3252 82.1361 59.8134C81.0375 60.4726 79.8046 60.8022 78.4374 60.8022C76.7284 60.8022 75.288 60.3261 74.1161 59.374L74.0062 59.3008C73.3226 58.7636 72.7977 58.0312 72.4315 57.1035L72.3949 57.0669C72.1996 56.5053 72.1019 55.9804 72.1019 55.4922C72.1019 55.1992 72.1385 54.9062 72.2118 54.6133C72.285 54.3203 72.4071 54.0517 72.578 53.8076C72.7733 53.5634 72.9808 53.4048 73.2006 53.3315C73.4203 53.2339 73.6034 53.185 73.7499 53.185C73.9696 53.185 74.1893 53.3803 74.4091 53.771C74.6288 54.1616 75.0316 54.5888 75.6176 55.0527C76.1302 55.2236 76.5941 55.3091 77.0092 55.3091C77.8636 55.3091 78.5106 54.9306 78.9501 54.1738C79.3895 53.417 79.6093 52.5747 79.6093 51.6469C79.6093 51.1342 79.4628 50.3286 79.1698 49.2299C78.9012 48.1313 77.9491 47.1914 76.3134 46.4101C75.1415 46.0195 74.1893 45.8242 73.4569 45.8242C73.3104 45.8242 73.0052 45.8608 72.5414 45.9341C72.0775 46.0073 71.2841 46.4467 70.161 47.2524C69.3553 47.8139 68.6718 48.5219 68.1102 49.3764C67.5487 50.1821 67.097 51.1831 66.7552 52.3794C66.5599 53.1362 66.4623 53.893 66.4623 54.6499C66.4623 56.9692 67.1215 59.0078 68.4398 60.7656C69.1722 61.791 70.1854 62.8774 71.4794 64.0249C73.9452 66.1245 75.8495 68.1753 77.1923 70.1772C78.9257 72.7651 79.7924 75.1699 79.7924 77.3916C79.7924 79.6377 79.1576 81.5175 77.8881 83.0312C76.3011 84.9599 74.0917 85.9243 71.2596 85.9243ZM71.4427 80.6508L71.3695 80.6142H70.3075L71.0399 80.6508H71.4427ZM103.706 88.561C103.511 88.561 103.328 88.5488 103.157 88.5244C102.986 88.5 102.717 88.3047 102.351 87.9384L101.985 87.3891C101.521 86.7544 101.069 85.729 100.63 84.313C100.605 84.1665 100.569 84.0322 100.52 83.9101C100.032 82.0547 99.6532 80.0039 99.3846 77.7578C99.3358 77.3427 99.3114 76.9399 99.3114 76.5493L99.2015 76.6958C97.7855 78.7221 96.2352 80.2114 94.5507 81.1635H94.514C93.2445 81.896 91.9017 82.2622 90.4857 82.2622C88.3373 82.2622 86.5306 81.4565 85.0658 79.8452C83.2592 77.9409 82.3558 75.0966 82.3558 71.3125C82.5511 67.5527 83.6376 64.0981 85.6151 60.9487C86.6405 59.2885 87.7391 57.958 88.911 56.957C88.911 56.8349 89.5214 56.3711 90.7421 55.5654C92.451 54.54 94.392 54.0151 96.5648 53.9907C98.1273 53.9907 99.4579 54.3569 100.557 55.0893C100.801 55.2114 101.106 55.4555 101.472 55.8217C101.472 55.8462 101.484 55.8584 101.509 55.8584C102.095 56.4931 102.388 57.1279 102.388 57.7627C102.388 58.08 102.363 58.2876 102.314 58.3852C102.266 58.4829 102.192 58.5927 102.095 58.7148C101.655 59.2275 100.471 59.4839 98.5424 59.4839H98.0663C96.8212 59.4839 95.6859 59.6548 94.6605 59.9966C93.3177 60.7534 92.1093 61.9497 91.035 63.5854C89.4969 66.1489 88.6791 68.7856 88.5814 71.4956C88.5814 72.6186 88.7523 73.644 89.0941 74.5717C89.4603 75.6216 90.0219 76.1465 90.7787 76.1465C91.4623 76.1465 92.4877 75.5239 93.8549 74.2788C93.8549 74.2544 93.8671 74.2422 93.8915 74.2422C94.5018 73.6806 95.4052 72.6552 96.6014 71.166L97.4071 70.1772C97.6268 69.8354 97.8588 69.518 98.1029 69.2251C98.347 68.9321 98.5668 68.6269 98.7621 68.3095L99.2382 67.5771C99.2382 67.1865 99.287 66.747 99.3846 66.2588C99.4823 65.5508 99.6166 64.8916 99.7875 64.2812L100.117 63.6587C100.361 63.1948 100.923 62.9629 101.802 62.9629C102.046 62.9629 102.363 62.9873 102.754 63.0361C103.633 63.1826 104.072 63.4878 104.072 63.9516L104.036 64.1714C104.036 64.1958 104.048 64.2202 104.072 64.2446C104.121 64.269 104.194 64.33 104.292 64.4277C104.39 64.5986 104.438 64.8794 104.438 65.27L104.402 66.2954L104.365 69.9941C104.365 71.8252 104.414 73.2778 104.512 74.352C104.512 74.7915 104.585 75.768 104.731 77.2817C104.927 78.7466 105.073 79.6621 105.171 80.0283C105.439 81.6884 105.769 83.1777 106.16 84.4961L106.269 84.8623C106.44 85.2773 106.538 85.6924 106.562 86.1074C106.562 87.0351 106.196 87.7065 105.464 88.1216C104.927 88.4145 104.341 88.561 103.706 88.561ZM98.1761 63.8051C98.1517 63.7807 98.1151 63.7685 98.0663 63.7685C98.0419 63.7685 98.0175 63.7685 97.993 63.7685C97.9686 63.7685 97.9564 63.7563 97.9564 63.7319L98.0663 63.622C98.0907 63.622 98.1029 63.6342 98.1029 63.6587C98.1273 63.6587 98.1395 63.6831 98.1395 63.7319C98.1639 63.7563 98.1761 63.7807 98.1761 63.8051ZM119.307 82.0791C116.987 82.0791 114.875 81.3955 112.971 80.0283C111.799 79.0517 110.798 77.8799 109.968 76.5127L109.639 75.8901C108.686 74.2299 107.991 72.1303 107.551 69.5913C107.453 68.688 107.38 67.7968 107.331 66.9179C107.331 64.9892 107.49 63.2314 107.807 61.6445C108.174 59.5937 108.906 57.372 110.005 54.9795C110.932 53.124 111.75 51.8667 112.458 51.2075C112.629 51.0854 112.861 51.0244 113.154 51.0244C114.057 51.0244 115.058 51.4394 116.157 52.2695C117.28 53.0752 117.842 53.8808 117.842 54.6865C117.842 55.1015 117.659 55.5166 117.292 55.9316C116.828 56.9814 116.438 58.1533 116.12 59.4472C115.754 60.9609 115.535 62.4502 115.461 63.915L115.425 65.1601C115.425 66.4785 115.535 67.6259 115.754 68.6025C115.925 69.6767 116.072 70.2749 116.194 70.3969C116.609 71.6176 117.012 72.582 117.402 73.29C118.257 74.6572 119.209 75.3408 120.259 75.3408C121.186 75.3408 122.346 74.706 123.738 73.4365C124.421 72.7041 124.958 71.9594 125.349 71.2026C125.837 70.3725 126.203 69.4814 126.448 68.5293C126.838 67.2597 127.034 65.978 127.034 64.6841C127.034 63.561 126.948 62.4013 126.777 61.205L126.741 61.0952C126.57 60.0698 126.301 58.9956 125.935 57.8725C125.52 56.5542 125.166 55.5898 124.873 54.9795L124.507 54.2104C124.263 53.771 124.141 53.4048 124.141 53.1118C124.141 52.3305 124.47 51.6836 125.129 51.1709C125.788 50.6338 126.594 50.3652 127.546 50.3652C129.255 50.3652 130.207 51.2441 130.403 53.0019L131.025 54.7597L131.575 56.6274C132.161 59.0688 132.502 60.9365 132.6 62.2304L132.71 64.7939C132.71 66.3808 132.466 68.0654 131.977 69.8476L131.391 71.6421L131.208 72.0815C130.598 73.644 129.756 75.1333 128.682 76.5493C126.948 78.8442 125.032 80.4311 122.932 81.31C121.76 81.8227 120.552 82.0791 119.307 82.0791ZM143.367 82.9214C142.927 82.9214 142.512 82.8847 142.121 82.8115C141.218 82.6406 140.351 81.8349 139.521 80.3945C139.057 79.54 138.752 78.8686 138.606 78.3803C138.191 77.4282 137.825 76.4272 137.507 75.3774L137.287 74.7915C137.239 74.4741 136.885 73.3022 136.225 71.2758C135.176 67.5649 134.492 64.7451 134.175 62.8164C133.76 60.5703 133.528 58.3242 133.479 56.0781L133.516 54.6133C133.808 51.3174 134.614 49.6694 135.932 49.6694C136.933 49.6694 137.947 50.7924 138.972 53.0385L139.045 54.1006C139.045 54.5888 139.131 55.4311 139.302 56.6274L139.375 57.1767C139.936 60.8633 140.693 64.3178 141.645 67.5405C141.938 68.6147 142.244 69.6645 142.561 70.6899C142.781 71.2758 142.903 71.6665 142.927 71.8618L143.11 71.2392C143.501 69.5302 143.989 67.8457 144.575 66.1855C144.697 65.7216 145.063 64.7085 145.674 63.146C146.675 60.6557 147.871 58.1899 149.263 55.7485L149.812 54.7597C150.52 53.539 151.24 52.3672 151.973 51.2441L152.009 51.1709C152.937 49.7304 153.84 48.6684 154.719 47.9848C155.574 47.4966 156.367 47.2524 157.099 47.2524C158.296 47.2524 159.114 47.7773 159.553 48.8271C159.7 49.1445 159.773 49.4863 159.773 49.8525C159.773 50.6093 159.468 51.4516 158.857 52.3794L156.623 55.9316C156.477 56.2002 156.318 56.4565 156.147 56.7007C154.829 58.8735 153.755 60.851 152.925 62.6333C152.314 63.9272 151.619 65.5752 150.837 67.5771C150.618 68.2363 150.19 69.6645 149.556 71.8618C149.385 72.3745 149.116 73.3633 148.75 74.8281C148.14 77.3672 147.554 79.2348 146.992 80.4311C146.65 81.1635 146.174 81.7861 145.564 82.2988L145.454 82.372C144.99 82.6894 144.685 82.8603 144.538 82.8847C144.392 82.9091 144.001 82.9214 143.367 82.9214ZM175.923 88.561C175.727 88.561 175.544 88.5488 175.373 88.5244C175.203 88.5 174.934 88.3047 174.568 87.9384L174.202 87.3891C173.738 86.7544 173.286 85.729 172.847 84.313C172.822 84.1665 172.786 84.0322 172.737 83.9101C172.248 82.0547 171.87 80.0039 171.601 77.7578C171.553 77.3427 171.528 76.9399 171.528 76.5493L171.418 76.6958C170.002 78.7221 168.452 80.2114 166.767 81.1635H166.731C165.461 81.896 164.119 82.2622 162.703 82.2622C160.554 82.2622 158.747 81.4565 157.283 79.8452C155.476 77.9409 154.573 75.0966 154.573 71.3125C154.768 67.5527 155.854 64.0981 157.832 60.9487C158.857 59.2885 159.956 57.958 161.128 56.957C161.128 56.8349 161.738 56.3711 162.959 55.5654C164.668 54.54 166.609 54.0151 168.782 53.9907C170.344 53.9907 171.675 54.3569 172.773 55.0893C173.017 55.2114 173.323 55.4555 173.689 55.8217C173.689 55.8462 173.701 55.8584 173.725 55.8584C174.311 56.4931 174.604 57.1279 174.604 57.7627C174.604 58.08 174.58 58.2876 174.531 58.3852C174.482 58.4829 174.409 58.5927 174.311 58.7148C173.872 59.2275 172.688 59.4839 170.759 59.4839H170.283C169.038 59.4839 167.903 59.6548 166.877 59.9966C165.535 60.7534 164.326 61.9497 163.252 63.5854C161.714 66.1489 160.896 68.7856 160.798 71.4956C160.798 72.6186 160.969 73.644 161.311 74.5717C161.677 75.6216 162.239 76.1465 162.995 76.1465C163.679 76.1465 164.704 75.5239 166.072 74.2788C166.072 74.2544 166.084 74.2422 166.108 74.2422C166.719 73.6806 167.622 72.6552 168.818 71.166L169.624 70.1772C169.844 69.8354 170.076 69.518 170.32 69.2251C170.564 68.9321 170.784 68.6269 170.979 68.3095L171.455 67.5771C171.455 67.1865 171.504 66.747 171.601 66.2588C171.699 65.5508 171.833 64.8916 172.004 64.2812L172.334 63.6587C172.578 63.1948 173.14 62.9629 174.018 62.9629C174.263 62.9629 174.58 62.9873 174.971 63.0361C175.849 63.1826 176.289 63.4878 176.289 63.9516L176.252 64.1714C176.252 64.1958 176.265 64.2202 176.289 64.2446C176.338 64.269 176.411 64.33 176.509 64.4277C176.606 64.5986 176.655 64.8794 176.655 65.27L176.619 66.2954L176.582 69.9941C176.582 71.8252 176.631 73.2778 176.728 74.352C176.728 74.7915 176.802 75.768 176.948 77.2817C177.143 78.7466 177.29 79.6621 177.388 80.0283C177.656 81.6884 177.986 83.1777 178.376 84.4961L178.486 84.8623C178.657 85.2773 178.755 85.6924 178.779 86.1074C178.779 87.0351 178.413 87.7065 177.681 88.1216C177.143 88.4145 176.557 88.561 175.923 88.561ZM170.393 63.8051C170.369 63.7807 170.332 63.7685 170.283 63.7685C170.259 63.7685 170.234 63.7685 170.21 63.7685C170.185 63.7685 170.173 63.7563 170.173 63.7319L170.283 63.622C170.307 63.622 170.32 63.6342 170.32 63.6587C170.344 63.6587 170.356 63.6831 170.356 63.7319C170.381 63.7563 170.393 63.7807 170.393 63.8051ZM192.292 101.415C191.413 101.415 190.742 101.317 190.278 101.122L189.582 100.829C189.265 100.731 188.984 100.585 188.74 100.39L187.715 99.6572C187.349 99.3886 186.933 98.9492 186.47 98.3388L186.36 98.229C185.969 97.6919 185.774 97.3745 185.774 97.2768C185.481 96.7885 185.286 96.2514 185.188 95.6655L185.115 95.4091L185.078 94.8598C185.054 94.518 185.078 94.2129 185.151 93.9443C185.151 93.4072 185.237 92.8701 185.408 92.333L185.444 92.2964C185.517 91.9546 185.627 91.625 185.774 91.3076C186.433 89.8672 187.287 89.1469 188.337 89.1469C189.167 89.1469 189.582 89.6108 189.582 90.5385C189.582 90.8559 189.534 91.2343 189.436 91.6738C189.338 91.8447 189.253 92.0278 189.18 92.2231C189.131 92.4428 189.082 92.6504 189.033 92.8457C189.033 93.5293 189.057 93.9321 189.106 94.0542C189.155 94.1762 189.204 94.2983 189.253 94.4204C189.35 94.7622 189.448 94.9941 189.546 95.1162L189.582 95.226C189.704 95.4702 189.875 95.7021 190.095 95.9218C190.754 96.581 191.389 96.9106 191.999 96.9106C192.488 96.9106 192.964 96.7031 193.428 96.2881C193.525 96.1904 193.769 95.8974 194.16 95.4091L194.673 94.7133C194.941 94.2983 195.234 93.6269 195.552 92.6992C195.576 92.6748 195.588 92.6382 195.588 92.5893C195.93 91.686 196.162 90.5019 196.284 89.0371C196.357 88.4511 196.418 87.7431 196.467 86.9131L196.504 86.1806C196.504 83.666 196.492 82.0791 196.467 81.4199V79.479C196.443 79.1128 196.431 77.8066 196.431 75.5605C196.431 75.5849 196.418 75.5971 196.394 75.5971C195.71 76.7202 194.868 77.7944 193.867 78.8198C192.866 79.8208 191.767 80.6386 190.571 81.2734C189.473 81.8593 188.301 82.1523 187.056 82.1523C184.346 82.1523 182.319 81.0903 180.976 78.9663C180.586 78.2339 180.268 77.477 180.024 76.6958C179.707 75.4262 179.548 74.1323 179.548 72.8139C179.548 70.519 180.012 68.0654 180.94 65.4531C180.964 65.4287 180.976 65.3921 180.976 65.3432C181.343 64.3911 181.745 63.4511 182.185 62.5234C183.992 58.9834 186.384 56.31 189.363 54.5034C190.657 53.7466 191.975 53.2705 193.318 53.0752C193.928 53.0019 194.661 52.9653 195.515 52.9653C196.467 52.9653 197.334 53.0752 198.115 53.2949C201.313 54.3691 203.022 56.1269 203.242 58.5683C203.242 58.8613 203.23 59.1421 203.205 59.4106C203.205 60.5825 203.169 61.6445 203.096 62.5966L203.059 63.3291L203.022 64.8672C202.998 64.9892 202.986 65.2456 202.986 65.6362C202.912 66.8081 202.876 68.0166 202.876 69.2617C202.803 70.3115 202.766 71.6787 202.766 73.3633L202.729 75.3042C202.729 75.9389 202.742 76.5249 202.766 77.062L202.803 82.372C202.803 83.666 202.778 84.6303 202.729 85.2651C202.729 85.8999 202.693 86.5468 202.62 87.206C202.571 88.2802 202.436 89.3545 202.217 90.4287L202.107 90.9048C201.814 92.0522 201.643 92.687 201.594 92.8091C201.277 93.81 200.886 94.7988 200.422 95.7754C199.69 96.9472 199.189 97.7041 198.921 98.0459C198.848 98.0947 198.786 98.1557 198.738 98.229C198.445 98.5708 198.127 98.8759 197.786 99.1445C197.102 99.7793 196.516 100.194 196.028 100.39C195.979 100.438 195.918 100.475 195.845 100.499C194.795 101.085 193.611 101.391 192.292 101.415ZM188.301 75.8535C189.253 75.8535 190.156 75.4629 191.011 74.6816L191.304 74.4253C191.89 73.9614 192.598 73.2412 193.428 72.2646L194.709 70.4702C195.198 69.6401 195.466 69.1518 195.515 69.0053L196.65 66.9546L196.687 66.332C196.711 65.624 196.76 64.916 196.833 64.208L196.943 62.9629C196.992 61.9131 197.139 60.7656 197.383 59.5205C197.09 58.1533 196.455 57.4697 195.478 57.4697H195.295C194.392 57.5674 193.647 57.9458 193.061 58.6049C192.598 58.8735 192.17 59.1909 191.78 59.5571C190.217 61.1196 189.033 62.8896 188.227 64.8672C187.544 66.3076 186.995 67.9067 186.579 69.6645C186.335 70.8608 186.213 71.8496 186.213 72.6308C186.213 74.5351 186.714 75.5849 187.715 75.7802C187.91 75.8291 188.105 75.8535 188.301 75.8535ZM214.485 81.5664C213.069 81.5664 211.653 81.2612 210.237 80.6508C208.699 79.9673 207.417 78.9297 206.391 77.5381C204.756 75.1699 203.938 72.1425 203.938 68.456C203.938 66.2343 204.206 64.0615 204.744 61.9375C205.281 59.9599 205.964 58.2387 206.794 56.7739C207.649 55.3091 208.699 53.9663 209.944 52.7456C211.213 51.5005 212.544 50.5117 213.935 49.7793C215.351 49.0468 216.743 48.5952 218.11 48.4243H220.161C220.82 48.4487 221.479 48.5586 222.139 48.7539C224.824 49.7549 226.545 51.6103 227.302 54.3203C227.546 55.1504 227.668 56.0659 227.668 57.0669C227.668 58.7514 227.302 60.375 226.57 61.9375C226.057 63.1338 225.264 64.3789 224.189 65.6728C223.97 66.0146 223.457 66.5639 222.651 67.3208C219.99 69.6401 217.353 71.2514 214.741 72.1548C213.423 72.5942 212.214 72.8383 211.116 72.8872C211.14 72.9116 211.164 72.9604 211.189 73.0337C211.213 73.1069 211.238 73.1924 211.262 73.29C211.457 73.705 211.714 74.0957 212.031 74.4619C212.861 75.3896 213.752 75.8535 214.704 75.8535C215.632 75.8535 216.536 75.5971 217.414 75.0844C217.927 74.8159 218.415 74.5351 218.879 74.2422C219.636 73.7539 220.076 73.4487 220.198 73.3266C220.93 72.6674 221.687 72.1303 222.468 71.7153L222.724 71.5688C223.115 71.4956 223.494 71.459 223.86 71.459C224.372 71.459 224.922 71.5688 225.508 71.7885C226.118 71.9839 226.484 72.643 226.606 73.7661C226.46 74.3764 226.203 74.9502 225.837 75.4873C225.495 76.0244 225.08 76.5127 224.592 76.9521C222.322 79.0029 219.734 80.4555 216.828 81.31C216.047 81.4809 215.266 81.5664 214.485 81.5664ZM210.347 68.6025C210.395 68.6025 210.432 68.5903 210.456 68.5659C210.701 68.5659 211.225 68.4194 212.031 68.1264C214.009 67.2964 216.059 65.8803 218.183 63.8784C219.062 62.9751 219.758 62.1206 220.271 61.3149C221.052 59.8989 221.455 58.5805 221.479 57.3598C221.479 56.6274 221.26 55.8584 220.82 55.0527C220.6 54.7109 220.344 54.5034 220.051 54.4301H220.198H219.502H220.015C219.795 54.3569 219.49 54.3203 219.099 54.3203C218.684 54.3691 218.476 54.4057 218.476 54.4301H219.502C218.623 54.4301 217.585 54.8086 216.389 55.5654C214.241 57.0302 212.666 58.959 211.665 61.3515C210.786 63.4267 210.347 65.8437 210.347 68.6025Z" fill="#FFF2EA"/>
<path d="M111.862 160.894C108.963 160.894 106.264 160.233 103.766 158.906C101.881 157.846 100.418 156.49 99.3641 154.848C97.1184 151.747 95.9971 148.339 95.9971 144.626C95.9971 142.453 96.4129 140.29 97.2478 138.142C97.3217 138.034 97.3771 137.915 97.411 137.784C97.7037 137.015 98.061 136.262 98.4985 135.517C101.36 131.539 105.309 129.55 110.34 129.55C112.404 129.55 114.434 129.908 116.427 130.625C118.417 131.341 120.158 132.386 121.645 133.767C124.326 136.259 126.026 139.138 126.75 142.399C126.929 143.25 127.018 144.23 127.018 145.344C127.018 145.98 126.962 146.628 126.855 147.294C126.636 149.019 126.18 150.595 125.496 152.028C124.594 153.699 123.685 155.051 122.782 156.085C121.661 157.358 120.262 158.447 118.599 159.346C116.427 160.377 114.178 160.894 111.862 160.894ZM111.643 154.252C111.822 154.252 112.222 154.158 112.838 153.973C113.454 153.789 114.326 152.95 115.447 151.468C115.808 151.045 116.116 150.593 116.372 150.116V150.037C117.022 148.794 117.437 147.692 117.622 146.736L117.678 146.617C117.786 146.164 117.841 145.73 117.841 145.303C117.841 144.482 117.767 143.767 117.622 143.155C117.404 142.067 116.926 140.974 116.181 139.874C115.441 138.774 114.665 137.919 113.87 137.308C112.278 136.302 111.027 135.796 110.124 135.796C109.148 135.796 108.267 136.444 107.487 137.746C106.708 139.044 106.175 140.436 105.882 141.923C105.664 142.852 105.556 143.792 105.556 144.748C105.556 147.347 106.443 149.839 108.221 152.226C109.561 153.575 110.7 154.252 111.643 154.252Z" fill="#FFF2EA"/>
<path d="M190.276 131.163C189.805 129.188 189.136 127.445 188.268 125.943C187.18 124.152 185.933 122.603 184.522 121.305C181.946 118.89 179.232 117.185 176.371 116.2C172.203 114.927 167.862 114.29 163.334 114.29C160.253 114.29 157.265 114.718 154.37 115.577C154.089 115.68 153.815 115.795 153.541 115.901C152.919 114.992 152.278 114.101 151.628 113.226C150.978 112.351 150.411 111.621 149.927 111.024L149.471 110.413C148.643 109.374 147.805 108.339 146.976 107.3L145.957 106.092C145.75 105.809 145.458 105.485 145.094 105.112C145.048 105.067 144.999 105.028 144.955 104.992C144.764 104.75 144.472 104.529 144.074 104.331C143.637 104.057 142.55 103.735 141.308 104.36C140.064 104.988 135.464 109.378 136.068 112.349C136.074 112.39 136.293 113.404 138.249 113.705C138.44 113.735 138.606 113.746 138.761 113.746C139.247 113.746 139.574 113.622 139.777 113.503C140.344 113.166 140.359 112.637 140.359 112.608C140.359 112.592 140.544 111.157 142.396 108.985C142.436 109.045 142.473 109.104 142.519 109.169L143.942 111.123L144.272 111.567L145.325 112.983L148.393 117.104C148.661 117.47 148.914 117.83 149.179 118.197C149.117 118.237 149.056 118.276 148.994 118.316C148.926 118.366 148.865 118.42 148.797 118.469C148.748 118.503 148.695 118.534 148.64 118.572C148.594 118.602 148.55 118.638 148.51 118.671C146.262 120.392 145.211 121.768 144.077 123.001L143.545 123.703C142.984 124.384 141.681 126.289 140.427 128.392C139.256 130.355 137.756 132.713 136.45 134.712C136.019 135.357 135.31 136.498 134.325 138.124C134.134 137.82 133.97 137.571 133.841 137.377C132.815 135.805 131.749 134.285 130.637 132.809C130.043 132.024 129.528 131.363 129.091 130.83L128.675 130.279C127.917 129.343 127.156 128.41 126.398 127.474L125.551 126.48C126.556 126.469 127.637 126.48 128.817 126.521C129.125 126.555 130.779 126.698 131.762 126.053C132.091 125.835 132.473 125.437 132.439 124.766C132.461 124.512 132.393 123.543 130.206 123.14C128.305 122.792 117.724 122.684 113.765 124.706C113.238 124.969 112.502 125.765 113.479 126.887C113.99 127.479 114.714 127.659 115.345 127.659C115.811 127.659 116.233 127.564 116.501 127.461C116.522 127.452 117.921 127.022 120.758 126.73C120.807 126.815 120.86 126.905 120.93 127.002C121.322 127.623 121.531 127.947 121.547 127.983C121.562 128.016 121.821 128.406 122.326 129.145L123.626 130.904L123.928 131.302L124.892 132.575L126.232 134.354C125.625 134.507 125.037 134.77 124.51 135.031C122.323 136.115 120.13 137.195 117.942 138.279C116.775 138.767 115.232 139.496 113.309 140.467C112.102 141.129 111.402 141.498 111.199 141.572L110.845 141.776C110.216 142.105 109.628 142.453 109.083 142.816C108.79 142.968 108.408 143.229 107.943 143.6C107.17 144.246 106.828 144.808 106.917 145.276C106.957 145.481 107.028 145.69 107.124 145.904C107.268 146.216 107.364 146.405 107.416 146.47C107.466 146.536 107.65 146.659 107.965 146.832L108.039 146.873C108.522 147.087 109.049 147.215 109.616 147.26C110.54 147.334 111.926 147.309 113.768 147.186C114.834 147.12 115.552 147.087 115.94 147.087C117.554 147.028 118.611 147.001 119.098 147.001C120.613 147.051 121.873 147.116 122.877 147.199C124.257 147.309 125.829 147.503 127.584 147.786C127.788 147.826 127.994 147.865 128.207 147.892L131.09 148.393C131.848 148.537 132.482 148.546 132.991 148.423C133.237 148.362 133.444 148.27 133.625 148.144C133.844 148.004 134.001 147.847 134.103 147.68C134.244 147.516 134.417 147.293 134.636 147.003L135.175 146.239C136.302 144.502 137.06 143.376 137.451 142.858L139.099 140.488C139.481 139.925 139.873 139.365 140.288 138.817L140.31 138.821C140.609 141.905 141.465 144.862 142.901 147.685C143.988 149.788 145.307 151.618 146.865 153.179C150.269 156.789 154.382 159.142 159.2 160.23C161.264 160.673 163.346 160.892 165.45 160.892C168.204 160.892 170.875 160.444 173.466 159.549C176.053 158.654 178.727 157.113 181.481 154.931C181.555 154.828 181.644 154.738 181.749 154.659C184.934 151.83 187.31 148.618 188.868 145.033C190.097 142.307 190.769 139.55 190.877 136.774C190.877 134.696 190.673 132.823 190.276 131.163ZM131.287 143.517C131.084 144.044 130.76 144.655 130.03 144.77C130.003 144.774 129.969 144.77 129.941 144.774C129.134 144.626 128.302 144.491 127.446 144.363L126.66 144.259C124.707 143.985 122.791 143.812 120.894 143.733C119.711 143.697 118.947 143.684 118.611 143.699C117.366 143.69 116.125 143.733 114.899 143.828L114.44 143.841C114.563 143.796 114.8 143.672 115.142 143.468C115.752 143.139 116.387 142.816 117.037 142.494C118.977 141.491 121.115 140.544 123.453 139.651L123.808 139.523C124.572 139.239 125.114 139.06 125.44 138.976L126.081 138.778C126.38 138.697 126.682 138.61 126.996 138.511C127.378 138.392 127.775 138.306 128.157 138.194C128.333 138.209 128.505 138.252 128.675 138.333C129.125 138.551 129.393 138.916 129.639 139.266C130.095 139.907 130.548 140.548 131.007 141.185C131.238 141.504 131.466 141.833 131.54 142.19C131.617 142.642 131.45 143.09 131.287 143.517ZM179.956 138.684C179.704 140.011 179.217 141.477 178.487 143.088L178.219 143.67C177.788 144.631 177.039 145.827 175.992 147.255C175.015 148.528 173.962 149.608 172.84 150.492C170.413 152.466 167.878 153.454 165.234 153.454C161.43 153.454 157.918 151.52 154.693 147.647C153.572 146.218 152.7 144.698 152.084 143.088C151.32 140.83 150.944 138.619 150.944 136.464C150.944 135.011 151.073 133.684 151.326 132.488C151.579 131.552 151.871 130.619 152.195 129.683C152.774 128.176 153.495 126.878 154.366 125.785C154.416 125.731 154.462 125.682 154.511 125.632L155.155 126.586C155.716 127.387 156.267 128.201 156.803 129.026L159.563 133.266L160.512 134.723L160.811 135.18L162.135 137.173C162.718 137.982 163.029 138.405 163.063 138.437C163.097 138.47 163.365 138.814 163.87 139.476C164.212 139.997 164.634 140.297 165.148 140.371C165.66 140.445 166.152 140.4 166.618 140.231C167.231 140.013 167.684 139.68 167.985 139.228C168.253 138.81 168.287 138.383 168.087 137.944C167.89 137.505 167.693 137.143 167.505 136.851L166.766 135.537C166.103 134.433 165.441 133.329 164.779 132.227L164.369 131.595C163.993 130.958 163.516 130.194 162.927 129.294C161.877 127.688 160.746 126.073 159.539 124.461C159.557 124.47 159.573 124.476 159.585 124.481C159.326 124.049 158.846 123.356 158.288 122.583C159.961 121.649 161.71 121.181 163.549 121.181C166.448 121.181 169.199 121.714 171.808 122.778C174.418 123.997 176.497 125.842 178.059 128.311L178.277 128.66C179.001 129.854 179.473 131.026 179.691 132.166C180.018 133.309 180.181 134.519 180.181 135.789C180.175 136.786 180.101 137.746 179.956 138.684Z" fill="#FFF2EA"/>
<path d="M127.019 134.271C132.573 129.685 138.894 125.421 145.609 121.395C146.256 121.008 146.919 120.617 147.738 120.369C148.558 120.124 149.571 120.043 150.36 120.295C151.345 120.612 151.712 121.368 151.515 122.029C151.318 122.691 150.668 123.278 150.018 123.84C144.202 128.867 137.163 133.421 129.196 137.314L127.019 134.271Z" fill="#FFF2EA"/>
</g>
<defs>
<clipPath id="clip0">
<rect width="289" height="209" fill="white"/>
</clipPath>
</defs>
</svg>
