<?xml version="1.0" encoding="utf-8"?>
<!-- Generator: Adobe Illustrator 25.1.0, SVG Export Plug-In . SVG Version: 6.00 Build 0)  -->
<svg version="1.1" id="Calque_1" xmlns="http://www.w3.org/2000/svg" xmlns:xlink="http://www.w3.org/1999/xlink" x="0px" y="0px"
	 viewBox="0 0 50 50" style="enable-background:new 0 0 50 50;" xml:space="preserve">
<style type="text/css">
	.st0{fill:#0C7AA0;}
	.st1{fill:#29325A;}
	.st2{fill:#FFFFFF;}
</style>
<path class="st0" d="M25.8,4.2c0,0-3.4-1.2-6.3,0.9c-1.1,0.8-1.8,1.9-2.3,3.2c-0.5,1.3-1.8,3.6-4.9,3.4c0,0-2.6-0.2-4.2,1.7
	c-1,1.2-1.1,2.9-0.4,4.3c0.6,1.3,1.2,3.4-0.8,5.1c-1.2,1.1-2.1,2.3-2.7,3.8c-1,2.9-0.9,7.4,5.9,11.5c11.3,6.9,19.9-6.4,19.9-6.4
	s5.3-6.8,0.9-12.1c-3.3-4-2.9-6.7-2.6-7.8c0.2-0.6,0.4-1.3,0.4-1.9C28.8,8.1,28.5,5.1,25.8,4.2z"/>
<path class="st1" d="M33,5.6c-3.2-1.2-6.6,1.1-6.8,4.5c-0.2,3,0.2,6.8,3.6,8.8c6.1,3.7-5.1,18.9-5.1,18.9s-4.1,5.4,3.5,6.4
	c2.5,0.4,5-0.3,7.2-1.4c5.9-2.8,10-8.6,10.9-15.1c0.3-2.7,0.2-5.7-0.9-8.8c-2.6-7.2-8.1-11-10.3-12.2c-0.4-0.3-0.9-0.5-1.3-0.8
	C33.6,5.8,33.3,5.7,33,5.6z"/>
<g>
	<g>
		<g>
			<path class="st2" d="M43,25c-0.2-0.2-0.6-0.2-0.8,0.1c-0.2,0.2-0.2,0.6,0.1,0.8c1.2,1,1.8,2.2,1.8,3.3c0,0.8-0.3,1.4-0.8,2
				c-0.9,0.9-2.7,1.7-5.2,2.1c-2.3,0.4-5.1,0.6-8.7,0.6c-5.5,0-9.4-0.5-11.9-1.5c0.9-0.7,1.9-1.5,3-2.4c0.3,0.4,0.8,0.6,1.3,0.7
				c1.1,0.1,2.1-0.7,2.2-1.8c0.1-0.7,0.1-1.5,0-2.2c1-1,1.9-1.9,2.6-2.8c0.4,0.8,0.8,1.6,0.9,2.4c0.1,0.7,0.2,1.4,0.1,2.2
				c-0.1,1.1,0.7,2.1,1.8,2.2c1.1,0.1,2.1-0.7,2.2-1.8c0.1-1.1,0.1-2.2-0.2-3.3c-0.2-1.1-0.6-2.3-1.2-3.3c1.1,0,2.1,0.1,3.1,0.3
				c0.9,1.2,1.5,2.5,1.7,3.8c0.1,0.7,0.1,1.4,0,2.2c-0.2,1.1,0.6,2.1,1.7,2.3c1.1,0.2,2.1-0.6,2.2-1.7c0.2-1.1,0.2-2.2,0-3.3
				c-0.1-0.7-0.3-1.3-0.5-2c0.6,0.2,1.1,0.4,1.6,0.7c0.3,0.1,0.6,0,0.7-0.2c0.1-0.3,0-0.6-0.2-0.7c-3.1-1.6-7.3-2.4-11.6-2.4
				c0.3-0.4,0.6-0.8,0.8-1.1c1.6-2.3,2.4-4.2,2.4-5.8c0-1.1-0.4-2-1.1-2.8c-1.6-1.6-4.2-1.8-7.5-0.7c-3.1,1.1-6.5,3.3-9.4,6.2
				C10,21.2,7.3,26.2,7.3,30c0,1.6,0.5,2.9,1.4,3.8c0.8,0.8,1.7,1.1,2.8,1.1c1.2,0,2.5-0.4,4-1.3c0.3-0.2,0.6-0.4,1-0.6
				c2.5,1.2,6.8,1.8,12.9,1.8c3.5,0,6.6-0.2,8.9-0.6c2.8-0.5,4.7-1.3,5.8-2.4c0.8-0.8,1.2-1.7,1.2-2.8C45.3,27.7,44.5,26.2,43,25
				L43,25z M37.2,23.3c0.4,0.8,0.6,1.7,0.7,2.6c0.1,1,0.1,2,0,3c-0.1,0.5-0.5,0.8-1,0.7c-0.5-0.1-0.8-0.5-0.7-1
				c0.1-0.8,0.1-1.7,0-2.5c-0.2-1.2-0.6-2.3-1.3-3.4C35.8,22.9,36.5,23.1,37.2,23.3L37.2,23.3z M22.9,28.7c0,0.5-0.4,0.8-0.9,0.8
				c-0.3,0-0.5-0.1-0.7-0.3c0.5-0.5,1.1-1,1.6-1.5C23,28,23,28.4,22.9,28.7L22.9,28.7z M30.4,25.7c0.2,1,0.2,2,0.1,3
				c0,0.5-0.5,0.8-0.9,0.8c-0.5,0-0.8-0.5-0.8-1c0.1-0.8,0-1.7-0.1-2.5C28.5,25,28.1,24,27.5,23c0.2-0.3,0.5-0.5,0.7-0.8
				c0.3,0,0.6,0,0.9,0C29.7,23.3,30.2,24.5,30.4,25.7L30.4,25.7z M21.4,12.9c0.8,0.3,1.6,0.8,2.3,1.3c0.8,0.6,1.5,1.3,2.1,2.1
				c0.3,0.4,0.2,0.9-0.1,1.2c-0.4,0.3-1,0.3-1.3-0.1c-0.5-0.7-1.1-1.3-1.8-1.8c-1-0.7-2.1-1.2-3.3-1.5C20,13.6,20.7,13.2,21.4,12.9
				L21.4,12.9z M10.4,23.6c0.9,0.3,1.7,0.7,2.4,1.2c0.8,0.6,1.6,1.2,2.2,2c0.3,0.4,0.3,0.9,0,1.2c-0.4,0.4-1,0.3-1.3-0.1
				c-0.5-0.7-1.2-1.2-1.8-1.7c-0.7-0.5-1.4-0.8-2.3-1.1C9.9,24.7,10.1,24.1,10.4,23.6L10.4,23.6z M14.9,32.7
				c-2.5,1.4-4.3,1.5-5.5,0.3c-0.7-0.7-1.1-1.7-1.1-3c0-1.1,0.3-2.4,0.8-3.8c0.8,0.2,1.4,0.6,2.1,1c0.6,0.4,1.1,0.9,1.6,1.5
				c0.7,0.9,2.1,1,3,0.2c0.7-0.7,0.8-1.9,0.1-2.7c-0.7-0.9-1.5-1.6-2.5-2.2c-0.8-0.5-1.6-0.9-2.5-1.3c0.5-0.7,1-1.4,1.5-2.2
				c1.1,0.1,2.7,0.4,4.1,1.3c0.6,0.4,1.1,0.9,1.6,1.5c0.7,0.8,2,1,2.8,0.3c0.9-0.7,1-2,0.3-2.8c-0.4-0.5-0.9-1-1.5-1.5
				c-0.2-0.2-0.6-0.2-0.8,0.1c-0.2,0.2-0.2,0.6,0.1,0.8c0.5,0.4,0.9,0.9,1.3,1.3c0.3,0.4,0.3,0.9-0.1,1.2c-0.4,0.3-0.9,0.2-1.2-0.1
				c-0.5-0.7-1.2-1.2-1.8-1.7c-1.1-0.8-2.5-1.3-3.9-1.4c0.4-0.5,0.9-1,1.4-1.5c0.8,0.2,1.6,0.5,2.3,0.8c0.3,0.1,0.6,0,0.7-0.2
				c0.1-0.3,0-0.6-0.2-0.7c-0.6-0.3-1.3-0.6-1.9-0.8c0.8-0.7,1.6-1.4,2.4-2c1.5,0.2,2.8,0.7,3.9,1.5c0.6,0.4,1.1,0.9,1.5,1.5
				c0.7,0.9,2.1,1.1,2.9,0.3c0.8-0.7,0.9-1.8,0.2-2.7c-0.7-0.9-1.5-1.7-2.4-2.4c-0.5-0.4-1.1-0.7-1.7-1c0.5-0.2,0.9-0.4,1.4-0.5
				c1.2-0.4,2.4-0.6,3.3-0.6c1.3,0,2.3,0.4,3,1.1c0.5,0.5,0.8,1.2,0.8,2c0,1.3-0.7,3.1-2.2,5.2c-0.7,1-1.7,2.3-2.6,3.3
				C23.1,26,19,30.4,14.9,32.7L14.9,32.7z"/>
		</g>
		<path class="st2" d="M17.1,17.5c0,0,2,0.9,3.2,2.1l-1,0.8c0,0-1.3-1.2-3-1.9L17.1,17.5z"/>
	</g>
	<path class="st2" d="M39.8,24.4c0,0,1.7,0.8,2.9,2l0.8-1c0,0-1.1-1.2-3.1-2.1L39.8,24.4z"/>
</g>
</svg>
