<?xml version="1.0" encoding="utf-8"?>
<!-- Generator: Adobe Illustrator 25.1.0, SVG Export Plug-In . SVG Version: 6.00 Build 0)  -->
<svg version="1.1" id="Calque_1" xmlns="http://www.w3.org/2000/svg" xmlns:xlink="http://www.w3.org/1999/xlink" x="0px" y="0px"
	 viewBox="0 0 50 50" style="enable-background:new 0 0 50 50;" xml:space="preserve">
<style type="text/css">
	.st0{fill:#0C7AA0;}
	.st1{fill:#29325A;}
	.st2{stroke:#FFFFFF;stroke-width:2;stroke-linecap:round;stroke-linejoin:round;stroke-miterlimit:10;}
	.st3{fill:none;stroke:#FFFFFF;stroke-width:2;stroke-linecap:round;stroke-linejoin:round;stroke-miterlimit:10;}
</style>
<path class="st0" d="M39.7,21.4c1.4,2,2.6,4.2,3.1,6.5c1.1,4.7,0.9,11.7-7.1,16.9c-6.6,4.3-13.1,3.7-17.9,2.1
	c-6.8-2.3-11.6-8.7-11.4-15.9c0.2-5.2,2.9-11.1,12.3-15C34.1,9.7,36,16.3,39.7,21.4z"/>
<path class="st1" d="M37.7,21.8c1.3,2.4,1.2,5.4-0.5,7.5c-0.9,1.1-2.1,1.9-3.8,1.9c-4.9-0.1-7.3-3.6-7.3-3.6s-3.7-5.3-8.8-1.4
	c-2.2,1.7-4.2,1.4-5.7,0.6c-3.1-1.6-4.4-5.3-3.2-8.5c0.8-2.2,2.6-4.6,6.8-5.7c0,0,5.9-1.8,8.6-8.2s7.5-2,7.5-2l4.5,4.7
	c1.4,1.5,1.9,3.6,1.2,5.6v0C35.8,15.7,36.1,19.1,37.7,21.8L37.7,21.8z"/>
<g>
	<g>
		<line class="st2" x1="9.6" y1="38.2" x2="24.8" y2="38.2"/>
		<polyline class="st3" points="12.8,38.2 12.8,28.5 18.9,24.6 		"/>
		<polyline class="st3" points="18.9,38.2 18.9,20 24.8,15.7 		"/>
		<polyline class="st3" points="21.6,18.1 21.6,14 24.8,11.5 24.8,6.2 		"/>
		<line class="st3" x1="24.8" y1="7.9" x2="23.2" y2="7.9"/>
		<path class="st3" d="M22.7,38.2v-4.4c0,0,0-3.2,2.1-4.2"/>
	</g>
	<g>
		<line class="st2" x1="40.1" y1="38.2" x2="24.9" y2="38.2"/>
		<polyline class="st3" points="36.8,38.2 36.8,28.5 30.8,24.6 		"/>
		<polyline class="st3" points="30.8,38.2 30.8,20 24.8,15.7 		"/>
		<polyline class="st3" points="28.1,18.1 28.1,14 24.9,11.5 24.9,6.2 		"/>
		<line class="st3" x1="24.9" y1="7.9" x2="26.5" y2="7.9"/>
		<path class="st3" d="M27,38.2v-4.4c0,0,0-3.2-2.1-4.2"/>
	</g>
</g>
</svg>
