<?xml version="1.0" encoding="utf-8"?>
<!-- Generator: Adobe Illustrator 25.1.0, SVG Export Plug-In . SVG Version: 6.00 Build 0)  -->
<svg version="1.1" id="Calque_1" xmlns="http://www.w3.org/2000/svg" xmlns:xlink="http://www.w3.org/1999/xlink" x="0px" y="0px"
	 viewBox="0 0 50 50" style="enable-background:new 0 0 50 50;" xml:space="preserve">
<style type="text/css">
	.st0{fill:#0C7AA0;}
	.st1{fill:#29325A;}
	.st2{fill:none;stroke:#FFFFFF;stroke-width:2;stroke-linecap:round;stroke-linejoin:round;stroke-miterlimit:10;}
	.st3{fill:#FFFFFF;}
</style>
<path class="st0" d="M7.2,27.6c0.1-1.7,1.6-3,3.3-3c2.1,0,5.6,0.5,9,2.7c5.6,3.6,13.2-0.2,13.2-0.2s11.7-5.4,12.8,6.3
	c0,0.2,0,0.4,0.1,0.6c0.6,8.5-6.2,15.8-14.8,16c-2.5,0.1-5.3-0.3-7.9-1.5c-3.3-1.6-5.1-5.2-4.9-8.8c0.1-1.6-0.3-3.4-2.2-5
	C12.4,31.8,7,31,7.2,27.6z"/>
<path class="st1" d="M4.8,24.9c0.6,0.9,1.8,1.2,2.8,0.9c2-0.6,6.5-1.4,11.9,1.8c4.5,2.7,10,1.1,13.6-0.4c3.7-1.6,6.5-4.7,7.5-8.6
	c0.6-2.5,0.6-5.5-1.1-8.8c-4.4-8.9-17.2-6.8-17.2-6.8s-7.6,0.9-9.1,8.2c-1.2,5.8-5.1,8.5-6.6,9.4c-0.7,0.4-1.4,1.1-1.7,1.8
	C4.3,23.1,4.2,24.1,4.8,24.9z"/>
<g>
	<g>
		<path class="st2" d="M39.6,33.9c0,0,1,6.2-3.6,8.6c-2,1-4.4,1.1-6.4,0c-1.3-0.7-2.8-2-3.4-4.4C26,37.3,26,36.5,26,35.7V28
			c0,0-2.5-0.3-2.4-2.7c0,0-5.3-0.7-6.4-6.4C17,18.2,17,17.6,17,17v-4.7c0-1,0.3-2,0.9-2.9c0.8-1,2.2-2,4.7-1.7"/>
		<path class="st2" d="M26.1,28c0,0,2.5-0.3,2.4-2.7c0,0,5.3-0.7,6.4-6.4c0.1-0.6,0.2-1.2,0.2-1.9v-4.7c0-1-0.3-2-0.9-2.9
			c-0.8-1-2.2-2-4.7-1.7"/>
	</g>
	<path class="st3" d="M23.2,9.7L23.2,9.7c-0.7,0-1.3-0.6-1.3-1.3V6.9c0-0.7,0.6-1.3,1.3-1.3h0c0.7,0,1.3,0.6,1.3,1.3v1.5
		C24.5,9.2,23.9,9.7,23.2,9.7z"/>
	<path class="st3" d="M28.8,9.7L28.8,9.7c-0.7,0-1.3-0.6-1.3-1.3V6.9c0-0.7,0.6-1.3,1.3-1.3h0c0.7,0,1.3,0.6,1.3,1.3v1.5
		C30.1,9.2,29.6,9.7,28.8,9.7z"/>
</g>
</svg>
