<?xml version="1.0" encoding="utf-8"?>
<!-- Generator: Adobe Illustrator 25.1.0, SVG Export Plug-In . SVG Version: 6.00 Build 0)  -->
<svg version="1.1" id="Calque_1" xmlns="http://www.w3.org/2000/svg" xmlns:xlink="http://www.w3.org/1999/xlink" x="0px" y="0px"
	 viewBox="0 0 50 50" style="enable-background:new 0 0 50 50;" xml:space="preserve">
<style type="text/css">
	.st0{fill:#0C7AA0;}
	.st1{fill:#29325A;}
	.st2{fill:none;stroke:#FFFFFF;stroke-width:2;stroke-linecap:round;stroke-linejoin:round;stroke-miterlimit:10;}
	.st3{fill:#FFFFFF;}
</style>
<path class="st0" d="M-75.9,26.2c0.1-1.7,1.6-3,3.3-3c2.1,0,5.6,0.5,9,2.7c5.6,3.6,13.2-0.2,13.2-0.2s11.7-5.4,12.8,6.3
	c0,0.2,0,0.4,0.1,0.6c0.6,8.5-6.2,15.8-14.8,16c-2.5,0.1-5.3-0.3-7.9-1.5c-3.3-1.6-5.1-5.2-4.9-8.8c0.1-1.6-0.3-3.4-2.2-5
	C-70.7,30.5-76.1,29.6-75.9,26.2z"/>
<path class="st1" d="M-78.3,23.6c0.6,0.9,1.8,1.2,2.8,0.9c2-0.6,6.5-1.4,11.9,1.8c4.5,2.7,10,1.1,13.6-0.4c3.7-1.6,6.5-4.7,7.5-8.6
	c0.6-2.5,0.6-5.5-1.1-8.8c-4.4-8.9-17.2-6.8-17.2-6.8s-7.6,0.9-9.1,8.2c-1.2,5.8-5.1,8.5-6.6,9.4c-0.7,0.4-1.4,1.1-1.7,1.8
	C-78.7,21.8-78.9,22.7-78.3,23.6z"/>
<g>
	<g>
		<path class="st2" d="M-43.5,32.6c0,0,1,6.2-3.6,8.6c-2,1-4.4,1.1-6.4,0c-1.3-0.7-2.8-2-3.4-4.4c-0.2-0.8-0.3-1.6-0.3-2.4v-7.7
			c0,0-2.5-0.3-2.4-2.7c0,0-5.3-0.7-6.4-6.4c-0.1-0.6-0.2-1.2-0.2-1.9v-4.7c0-1,0.3-2,0.9-2.9c0.8-1,2.2-2,4.7-1.7"/>
		<path class="st2" d="M-57,26.6c0,0,2.5-0.3,2.4-2.7c0,0,5.3-0.7,6.4-6.4c0.1-0.6,0.2-1.2,0.2-1.9v-4.7c0-1-0.3-2-0.9-2.9
			c-0.8-1-2.2-2-4.7-1.7"/>
	</g>
	<path class="st3" d="M-59.9,8.4L-59.9,8.4c-0.7,0-1.3-0.6-1.3-1.3V5.6c0-0.7,0.6-1.3,1.3-1.3h0c0.7,0,1.3,0.6,1.3,1.3v1.5
		C-58.6,7.8-59.2,8.4-59.9,8.4z"/>
	<path class="st3" d="M-54.2,8.4L-54.2,8.4c-0.7,0-1.3-0.6-1.3-1.3V5.6c0-0.7,0.6-1.3,1.3-1.3h0c0.7,0,1.3,0.6,1.3,1.3v1.5
		C-52.9,7.8-53.5,8.4-54.2,8.4z"/>
</g>
<path class="st0" d="M24.4,39c-2,3-5.7,4.5-9.2,3.7c-1.8-0.4-3.5-1.4-4.4-3.4c-2.8-5.8,0-10.6,0-10.6s4.1-7.4-3.5-11.1
	c-3.2-1.6-4.1-4.1-4-6.4C3.4,6.7,7,3,11.5,2.4c3.1-0.4,6.9,0.4,10.7,4.7c0,0,5.5,5.9,14.6,5.4s6.7,7.7,6.7,7.7l-2.9,8
	c-0.9,2.5-3.2,4.3-5.9,4.6l0,0C30.5,33.4,26.8,35.6,24.4,39L24.4,39z"/>
<path class="st1" d="M19.6,35.9c0.2-1.6,0.6-3.3,1.4-4.7c1.6-2.9,4.8-6.3,11.2-5.3c5.3,0.8,8.3,4,10.1,7c2.4,4.2,2,9.6-1.4,13.2
	c-2.4,2.6-6.5,4.3-13,2C17.1,44.3,19.2,40.1,19.6,35.9z"/>
<g>
	<circle class="st3" cx="18" cy="39.7" r="2.9"/>
	<circle class="st3" cx="33.6" cy="39.7" r="2.9"/>
	<g>
		<path class="st2" d="M7.3,11h2.6c0,0,2.5-0.2,3.3,2.2l0.9,2.6l27.3,0.3l-1.9,8.2c0,0-0.9,2.9-3.7,2.9l-17.1,1.9c0,0-1.2,0.9-0.9,3
			s2.4,2.3,2.4,2.3h16.3"/>
		<line class="st2" x1="13.9" y1="15.2" x2="18.6" y2="29.1"/>
	</g>
</g>
</svg>
