<svg width="1440" height="840" viewBox="0 0 1440 840" fill="none" xmlns="http://www.w3.org/2000/svg">
<path d="M1440 360.3H0V1201.7H1440V360.3Z" fill="#FDD3D1"/>
<path d="M1341.3 743.8C1331 743.8 1322.5 735.4 1322.5 725V713.8C1322.5 703.5 1330.9 695 1341.3 695C1351.6 695 1360.1 703.4 1360.1 713.8V725C1360 735.4 1351.6 743.8 1341.3 743.8Z" fill="#2EAD72" stroke="black" stroke-width="2" stroke-miterlimit="10" stroke-linecap="round" stroke-linejoin="round"/>
<path d="M1346.9 789.5H1335.7C1325.4 789.5 1316.9 781.1 1316.9 770.7V759.5C1316.9 749.2 1325.3 740.7 1335.7 740.7H1346.9C1357.2 740.7 1365.7 749.1 1365.7 759.5V770.7C1365.6 781.1 1357.2 789.5 1346.9 789.5Z" fill="#2EAD72" stroke="black" stroke-width="2" stroke-miterlimit="10" stroke-linecap="round" stroke-linejoin="round"/>
<path d="M902.2 1201.7C902.2 1201.7 961.1 1068.4 1076.4 1039C1191.7 1009.6 1212.2 905.7 1286.5 816.2C1360.8 726.6 1440 704.9 1440 704.9V1201.8H902.2V1201.7Z" fill="#022C25" stroke="black" stroke-width="2" stroke-miterlimit="10"/>
<path d="M99.5004 801.7C118.057 801.7 133.1 786.657 133.1 768.1C133.1 749.543 118.057 734.5 99.5004 734.5C80.9436 734.5 65.9004 749.543 65.9004 768.1C65.9004 786.657 80.9436 801.7 99.5004 801.7Z" fill="#022C25" stroke="black" stroke-width="2" stroke-miterlimit="10"/>
<path d="M57.6 765.2C76.1568 765.2 91.2 750.157 91.2 731.6C91.2 713.043 76.1568 698 57.6 698C39.0432 698 24 713.043 24 731.6C24 750.157 39.0432 765.2 57.6 765.2Z" fill="#2EAD72" stroke="black" stroke-width="2" stroke-miterlimit="10" stroke-linecap="round" stroke-linejoin="round"/>
<path d="M833 0V87.2C833 107.7 816.4 124.2 796 124.2H608.9C588.4 124.2 571.9 107.6 571.9 87.2V0" fill="#24AE70"/>
<path d="M654.1 87H654.6L653.7 91.8H656.6L656.5 92.3H653L654.1 87Z" fill="white"/>
<path d="M658.2 87H658.7L658.3 89H657.9L658.2 87Z" fill="white"/>
<path d="M663.2 88.3L662.4 92.2H662L662.1 91.6C661.9 91.8 661.7 92 661.4 92.1C661.1 92.2 660.9 92.3 660.5 92.3C660.2 92.3 659.9 92.2 659.6 92.1C659.3 92 659.1 91.8 659 91.5C658.9 91.2 658.8 91 658.8 90.6C658.8 90.2 658.9 89.8 659.1 89.4C659.3 89 659.6 88.8 659.9 88.6C660.2 88.4 660.6 88.3 661 88.3C661.4 88.3 661.7 88.4 661.9 88.5C662.2 88.6 662.3 88.9 662.5 89.1L662.7 88.3H663.2ZM661.5 91.6C661.8 91.4 662 91.2 662.1 90.9C662.2 90.6 662.3 90.3 662.3 90C662.3 89.6 662.2 89.3 662 89.1C661.8 88.9 661.5 88.8 661 88.8C660.7 88.8 660.4 88.9 660.1 89C659.8 89.2 659.6 89.4 659.5 89.7C659.4 90 659.3 90.3 659.3 90.6C659.3 91 659.4 91.3 659.6 91.5C659.8 91.7 660.1 91.8 660.6 91.8C661 91.8 661.3 91.7 661.5 91.6Z" fill="white"/>
<path d="M667.5 88.5C667.8 88.6 668 88.8 668.1 89.1C668.2 89.3 668.3 89.6 668.3 90C668.3 90.4 668.2 90.8 668 91.2C667.8 91.6 667.5 91.8 667.2 92C666.9 92.2 666.5 92.3 666.1 92.3C665.7 92.3 665.4 92.2 665.2 92.1C664.9 92 664.8 91.7 664.6 91.5L664.2 93.8H663.7L664.8 88.4H665.3L665.2 89C665.4 88.8 665.6 88.6 665.9 88.5C666.2 88.4 666.4 88.3 666.8 88.3C667 88.3 667.3 88.3 667.5 88.5ZM667 91.6C667.3 91.4 667.5 91.2 667.6 90.9C667.7 90.6 667.8 90.3 667.8 90C667.8 89.6 667.7 89.3 667.5 89.1C667.3 88.9 667 88.8 666.5 88.8C666.2 88.8 665.9 88.9 665.6 89C665.3 89.2 665.1 89.4 665 89.7C664.9 90 664.8 90.3 664.8 90.7C664.8 91.1 664.9 91.4 665.1 91.6C665.3 91.8 665.6 91.9 666.1 91.9C666.4 91.8 666.7 91.7 667 91.6Z" fill="white"/>
<path d="M672.6 88.5C672.9 88.6 673.1 88.8 673.2 89.1C673.3 89.3 673.4 89.6 673.4 90C673.4 90.4 673.3 90.8 673.1 91.2C672.9 91.6 672.6 91.8 672.3 92C672 92.2 671.6 92.3 671.2 92.3C670.8 92.3 670.5 92.2 670.3 92.1C670 92 669.9 91.7 669.7 91.5L669.3 93.8H668.8L669.9 88.4H670.4L670.3 89C670.5 88.8 670.7 88.6 671 88.5C671.3 88.4 671.5 88.3 671.9 88.3C672 88.3 672.3 88.3 672.6 88.5ZM672.1 91.6C672.4 91.4 672.6 91.2 672.7 90.9C672.8 90.6 672.9 90.3 672.9 90C672.9 89.6 672.8 89.3 672.6 89.1C672.4 88.9 672.1 88.8 671.6 88.8C671.3 88.8 671 88.9 670.7 89C670.4 89.2 670.2 89.4 670.1 89.7C670 90 669.9 90.3 669.9 90.7C669.9 91.1 670 91.4 670.2 91.6C670.4 91.8 670.7 91.9 671.2 91.9C671.5 91.8 671.8 91.7 672.1 91.6Z" fill="white"/>
<path d="M675.2 86.7H675.7L674.6 92.2H674.1L675.2 86.7Z" fill="white"/>
<path d="M676.9 88.3H677.4L676.6 92.2H676.1L676.9 88.3ZM677.1 87.3C677 87.2 677 87.1 677 87.1C677 87 677 86.9 677.1 86.8C677.2 86.7 677.3 86.7 677.4 86.7C677.5 86.7 677.6 86.7 677.7 86.8C677.8 86.9 677.8 86.9 677.8 87C677.8 87.1 677.8 87.2 677.7 87.3C677.6 87.4 677.5 87.4 677.4 87.4C677.3 87.4 677.2 87.4 677.1 87.3Z" fill="white"/>
<path d="M684.4 88.3L683.6 92.2H683.1L683.2 91.6C683 91.8 682.8 92 682.5 92.1C682.2 92.2 682 92.3 681.6 92.3C681.3 92.3 681 92.2 680.7 92.1C680.4 92 680.2 91.8 680.1 91.5C680 91.2 679.9 91 679.9 90.6C679.9 90.2 680 89.8 680.2 89.4C680.4 89 680.7 88.8 681 88.6C681.3 88.4 681.7 88.3 682.1 88.3C682.5 88.3 682.8 88.4 683 88.5C683.3 88.6 683.4 88.9 683.6 89.1L683.8 88.3H684.4ZM682.7 91.6C683 91.4 683.2 91.2 683.3 90.9C683.4 90.6 683.5 90.3 683.5 90C683.5 89.6 683.4 89.3 683.2 89.1C683 88.9 682.7 88.8 682.2 88.8C681.9 88.8 681.6 88.9 681.3 89C681 89.2 680.8 89.4 680.7 89.7C680.6 90 680.5 90.3 680.5 90.6C680.5 91 680.6 91.3 680.8 91.5C681 91.7 681.3 91.8 681.8 91.8C682.2 91.8 682.5 91.7 682.7 91.6Z" fill="white"/>
<path d="M689.2 88.3L686.7 92.2H686.2L685.2 88.3H685.7L686.5 91.7L688.6 88.3H689.2Z" fill="white"/>
<path d="M689.6 90.3999C689.6 90.3999 689.6 90.4999 689.6 90.5999C689.6 90.9999 689.7 91.2999 689.9 91.4999C690.1 91.6999 690.5 91.7999 690.9 91.7999C691.2 91.7999 691.4 91.7999 691.6 91.6999C691.8 91.5999 692 91.4999 692.2 91.2999L692.4 91.6999C692.2 91.8999 692 91.9999 691.7 92.0999C691.4 92.1999 691.1 92.2999 690.8 92.2999C690.2 92.2999 689.8 92.1999 689.5 91.8999C689.2 91.5999 689 91.1999 689 90.6999C689 90.2999 689.1 89.8999 689.3 89.4999C689.5 89.0999 689.7 88.8999 690.1 88.6999C690.4 88.4999 690.8 88.3999 691.2 88.3999C691.7 88.3999 692.1 88.4999 692.4 88.7999C692.7 89.0999 692.9 89.4999 692.9 89.9999C692.9 90.0999 692.9 90.2999 692.8 90.4999H689.6V90.3999ZM690.2 89.0999C689.9 89.2999 689.7 89.6999 689.6 89.9999H692.4V89.8999C692.4 89.4999 692.3 89.1999 692.1 88.9999C691.9 88.7999 691.6 88.6999 691.2 88.6999C690.8 88.6999 690.5 88.7999 690.2 89.0999Z" fill="white"/>
<path d="M694.4 92.1C694.1 92 693.9 91.8 693.8 91.5C693.7 91.2 693.6 91 693.6 90.6C693.6 90.2 693.7 89.8 693.9 89.4C694.1 89 694.4 88.8 694.7 88.6C695 88.4 695.4 88.3 695.9 88.3C696.3 88.3 696.6 88.4 696.8 88.5C697.1 88.6 697.3 88.8 697.4 89.1L697 89.4C696.8 89 696.4 88.8 695.9 88.8C695.6 88.8 695.3 88.9 695 89C694.7 89.2 694.5 89.4 694.4 89.7C694.3 90 694.2 90.3 694.2 90.6C694.2 91 694.3 91.3 694.5 91.5C694.7 91.7 695 91.8 695.5 91.8C695.8 91.8 696 91.8 696.2 91.7C696.4 91.6 696.6 91.5 696.7 91.3L697.1 91.6C696.9 91.8 696.7 92 696.4 92.1C696.1 92.2 695.8 92.3 695.5 92.3C695 92.3 694.7 92.2 694.4 92.1Z" fill="white"/>
<path d="M704.1 88.3L703 93.7H702.5L702.9 91.7C702.7 91.9 702.5 92.1 702.2 92.2C701.9 92.3 701.7 92.4 701.4 92.4C701.1 92.4 700.8 92.3 700.5 92.2C700.2 92.1 700 91.9 699.9 91.6C699.8 91.3 699.7 91.1 699.7 90.7C699.7 90.3 699.8 89.9 700 89.5C700.2 89.1 700.5 88.9 700.8 88.7C701.1 88.5 701.5 88.4 701.9 88.4C702.3 88.4 702.6 88.5 702.9 88.6C703.2 88.8 703.3 89 703.5 89.3L703.7 88.4H704.1V88.3ZM702.4 91.6C702.7 91.4 702.9 91.2 703 90.9C703.1 90.6 703.2 90.3 703.2 90C703.2 89.6 703.1 89.3 702.9 89.1C702.7 88.9 702.4 88.8 701.9 88.8C701.6 88.8 701.3 88.9 701 89C700.7 89.2 700.5 89.4 700.4 89.7C700.3 90 700.2 90.3 700.2 90.6C700.2 91 700.3 91.3 700.5 91.5C700.7 91.7 701 91.8 701.5 91.8C701.9 91.8 702.2 91.7 702.4 91.6Z" fill="white"/>
<path d="M709.2 88.3L708.4 92.2H707.9L708 91.6C707.6 92 707.1 92.3 706.5 92.3C706.1 92.3 705.7 92.2 705.5 92C705.3 91.8 705.1 91.5 705.1 91.1C705.1 91 705.1 90.8 705.1 90.7L705.5 88.5H706L705.6 90.7C705.6 90.8 705.6 91 705.6 91.1C705.6 91.4 705.7 91.6 705.9 91.8C706.1 92 706.3 92 706.7 92C707.1 92 707.5 91.9 707.7 91.6C708 91.4 708.2 91 708.3 90.6L708.7 88.5H709.2V88.3Z" fill="white"/>
<path d="M710.6 88.3H711.1L710.3 92.2H709.8L710.6 88.3ZM710.9 87.3C710.8 87.2 710.8 87.1 710.8 87.1C710.8 87 710.8 86.9 710.9 86.8C711 86.7 711.1 86.7 711.2 86.7C711.3 86.7 711.4 86.7 711.5 86.8C711.6 86.9 711.6 86.9 711.6 87C711.6 87.1 711.6 87.2 711.5 87.3C711.4 87.4 711.3 87.4 711.2 87.4C711 87.4 710.9 87.4 710.9 87.3Z" fill="white"/>
<path d="M714.7 91C714.7 91.1 714.7 91.2 714.7 91.2C714.7 91.5 714.9 91.7 715.3 91.7C715.5 91.7 715.7 91.6 715.9 91.5L716 92C715.8 92.2 715.5 92.3 715.1 92.3C714.8 92.3 714.6 92.2 714.4 92.1C714.2 92 714.1 91.7 714.1 91.4C714.1 91.3 714.1 91.2 714.1 91.1L714.6 88.8H713.9L714 88.4H714.7L714.9 87.5H715.4L715.2 88.4H716.4L716.3 88.8H715.1L714.7 91Z" fill="white"/>
<path d="M717.5 92.1C717.2 92 717 91.8 716.9 91.5C716.8 91.2 716.7 91 716.7 90.6C716.7 90.2 716.8 89.8 717 89.4C717.2 89 717.5 88.8 717.8 88.6C718.1 88.4 718.5 88.3 719 88.3C719.5 88.3 720 88.4 720.3 88.7C720.6 89 720.8 89.4 720.8 89.9C720.8 90.3 720.7 90.7 720.5 91.1C720.3 91.5 720 91.7 719.7 91.9C719.4 92.1 719 92.2 718.5 92.2C718.1 92.3 717.8 92.2 717.5 92.1ZM719.4 91.6C719.7 91.4 719.9 91.2 720 90.9C720.1 90.6 720.2 90.3 720.2 90C720.2 89.6 720.1 89.3 719.9 89.1C719.7 88.9 719.4 88.8 718.9 88.8C718.6 88.8 718.3 88.9 718 89C717.7 89.2 717.5 89.4 717.4 89.7C717.3 90 717.2 90.3 717.2 90.6C717.2 91 717.3 91.3 717.5 91.5C717.7 91.7 718 91.8 718.5 91.8C718.8 91.8 719.1 91.7 719.4 91.6Z" fill="white"/>
<path d="M725.7 88.3L724.9 92.2H724.4L724.5 91.6C724.1 92 723.6 92.3 723 92.3C722.6 92.3 722.2 92.2 722 92C721.8 91.8 721.6 91.5 721.6 91.1C721.6 91 721.6 90.8 721.6 90.7L722 88.5H722.5L722.1 90.7C722.1 90.8 722.1 91 722.1 91.1C722.1 91.4 722.2 91.6 722.4 91.8C722.6 92 722.8 92 723.2 92C723.6 92 724 91.9 724.2 91.6C724.5 91.4 724.7 91 724.8 90.6L725.2 88.5H725.7V88.3Z" fill="white"/>
<path d="M727.3 90.9999C727.3 91.0999 727.3 91.1999 727.3 91.1999C727.3 91.4999 727.5 91.6999 727.9 91.6999C728.1 91.6999 728.3 91.5999 728.5 91.4999L728.6 91.8999C728.4 92.0999 728.1 92.1999 727.7 92.1999C727.4 92.1999 727.2 92.0999 727 91.9999C726.8 91.7999 726.7 91.5999 726.7 91.2999C726.7 91.1999 726.7 91.0999 726.7 90.9999L727.2 88.6999H726.5L726.6 88.2999H727.3L727.5 87.3999H728L727.8 88.2999H729L728.9 88.6999H727.7L727.3 90.9999Z" fill="white"/>
<path d="M733.2 88.5C733.5 88.4 733.8 88.3 734.2 88.3L734.1 88.8H734C733.6 88.8 733.2 88.9 733 89.2C732.7 89.4 732.5 89.8 732.5 90.3L732.1 92.3H731.6L732.4 88.4H732.9L732.8 89.1C732.8 88.8 733 88.6 733.2 88.5Z" fill="white"/>
<path d="M735.1 92.1C734.8 92 734.6 91.8 734.5 91.5C734.4 91.2 734.3 91 734.3 90.6C734.3 90.2 734.4 89.8 734.6 89.4C734.8 89 735.1 88.8 735.4 88.6C735.7 88.4 736.1 88.3 736.6 88.3C737.1 88.3 737.6 88.4 737.9 88.7C738.2 89 738.4 89.4 738.4 89.9C738.4 90.3 738.3 90.7 738.1 91.1C737.9 91.5 737.6 91.7 737.3 91.9C737 92.1 736.6 92.2 736.1 92.2C735.7 92.3 735.4 92.2 735.1 92.1ZM737 91.6C737.3 91.4 737.5 91.2 737.6 90.9C737.7 90.6 737.8 90.3 737.8 90C737.8 89.6 737.7 89.3 737.5 89.1C737.3 88.9 737 88.8 736.5 88.8C736.2 88.8 735.9 88.9 735.6 89C735.3 89.2 735.1 89.4 735 89.7C734.9 90 734.8 90.3 734.8 90.6C734.8 91 734.9 91.3 735.1 91.5C735.3 91.7 735.6 91.8 736.1 91.8C736.5 91.8 736.7 91.7 737 91.6Z" fill="white"/>
<path d="M743.4 88.3L742.6 92.2H742.1L742.2 91.6C741.8 92 741.3 92.3 740.7 92.3C740.3 92.3 739.9 92.2 739.7 92C739.5 91.8 739.3 91.5 739.3 91.1C739.3 91 739.3 90.8 739.3 90.7L739.7 88.5H740.2L739.8 90.7C739.8 90.8 739.8 91 739.8 91.1C739.8 91.4 739.9 91.6 740.1 91.8C740.3 92 740.5 92 740.9 92C741.3 92 741.7 91.9 741.9 91.6C742.2 91.4 742.4 91 742.5 90.6L742.9 88.5H743.4V88.3Z" fill="white"/>
<path d="M745.2 86.7H745.7L744.6 92.2H744.1L745.2 86.7Z" fill="white"/>
<path d="M746.6 90.3999C746.6 90.3999 746.6 90.4999 746.6 90.5999C746.6 90.9999 746.7 91.2999 746.9 91.4999C747.1 91.6999 747.5 91.7999 747.9 91.7999C748.2 91.7999 748.4 91.7999 748.6 91.6999C748.8 91.5999 749 91.4999 749.2 91.2999L749.4 91.6999C749.2 91.8999 749 91.9999 748.7 92.0999C748.4 92.1999 748.1 92.2999 747.8 92.2999C747.2 92.2999 746.8 92.1999 746.5 91.8999C746.2 91.5999 746 91.1999 746 90.6999C746 90.2999 746.1 89.8999 746.3 89.4999C746.5 89.0999 746.7 88.8999 747.1 88.6999C747.4 88.4999 747.8 88.3999 748.2 88.3999C748.7 88.3999 749.1 88.4999 749.4 88.7999C749.7 89.0999 749.9 89.4999 749.9 89.9999C749.9 90.0999 749.9 90.2999 749.8 90.4999H746.6V90.3999ZM747.2 89.0999C746.9 89.2999 746.7 89.6999 746.6 89.9999H749.4V89.8999C749.4 89.4999 749.3 89.1999 749.1 88.9999C748.9 88.7999 748.6 88.6999 748.2 88.6999C747.8 88.6999 747.5 88.7999 747.2 89.0999Z" fill="white"/>
<path d="M628.4 56.4001C628.5 56.4001 628.8 56.3001 628.9 56.3001C629.2 56.2001 629.7 55.9001 630.1 56.0001C630.4 56.0001 630.7 56.2001 630.8 56.4001C630.9 56.6001 631 56.7001 631 56.9001C631 57.2001 630.8 57.5001 630.6 57.6001C629.9 58.2001 629 58.5001 628.1 59.0001C627.6 59.3001 627 59.6001 626.9 60.0001C626.3 62.4001 625.7 64.9001 625.3 67.4001C625.2 68.2001 625.3 69.0002 625.7 69.8001C626.1 70.5001 626.9 70.8001 627.7 70.5001C627.8 70.4001 628 70.4001 628.2 70.3001C628.7 70.0001 629.1 69.6001 629.5 69.2001C631.6 66.7001 633.7 64.2001 635.6 61.5001C639.4 56.2001 643 50.6001 646.8 45.3001C648.4 43.0001 650.4 41.0001 653 39.9001C653.7 39.6001 654.5 39.5001 655.3 39.5001C655.8 39.5001 656.2 39.7001 656.4 40.1001C656.5 40.3001 656.5 40.5001 656.4 40.6001C656.2 40.9001 656 41.2001 655.7 41.3001C653 42.0001 651 43.2001 649.5 45.2001C645.7 50.3001 642.1 55.6001 638.4 60.8001C636.2 63.9001 633.9 67.0001 631.6 70.1001C630.9 71.0001 629.9 71.8001 628.9 72.4001C626.5 73.9001 623.9 72.8001 623.1 70.1001C622.4 67.6001 623 65.3001 623.5 62.9001C623.6 62.3001 623.8 61.6001 624.1 61.0001C624.5 60.1001 624.4 59.5001 623.5 59.2001C617.2 57.0001 615.3 52.8001 617.7 46.6001C619.1 43.1001 621 40.0001 624.6 38.6001C627.9 37.3001 633 38.9001 632.7 44.1001C632.5 47.3001 631.1 50.0001 629.9 52.8001C629.6 53.7001 629 55.1001 628.4 56.4001ZM630.6 44.5001C630.8 43.8001 630.9 43.1001 630.7 42.4001C630.4 41.2001 629.5 40.5001 628.1 40.2001C626.4 39.8001 625 40.3001 623.8 41.4001C621.1 43.8001 619.6 46.8001 619.2 50.4001C618.8 53.6001 620.4 55.8001 623.5 56.9001C625.2 57.5001 625.7 57.3001 626.4 55.6001C627.1 54.1001 627.8 52.7001 628.4 51.2001C629.1 49.3001 630.2 46.0001 630.6 44.5001Z" fill="white"/>
<path d="M680 49.2001C681.049 49.2001 681.9 48.3495 681.9 47.3001C681.9 46.2508 681.049 45.4001 680 45.4001C678.95 45.4001 678.1 46.2508 678.1 47.3001C678.1 48.3495 678.95 49.2001 680 49.2001Z" fill="white"/>
<path d="M661.6 45.0001L655.4 47.6001C655 47.8001 654.5 47.6001 654.3 47.2001C654.1 46.8001 654.3 46.3001 654.7 46.1001L660.9 43.5001C661.3 43.3001 661.8 43.5001 662 43.9001C662.2 44.3001 662 44.8001 661.6 45.0001Z" fill="white"/>
<path d="M701.199 56.1001H696.999H694.499H690.299C689.799 56.1001 689.399 56.5001 689.399 57.0001C689.399 57.5001 689.799 57.9001 690.299 57.9001H694.499H696.999H701.199C701.699 57.9001 702.099 57.5001 702.099 57.0001C702.099 56.5001 701.699 56.1001 701.199 56.1001Z" fill="white"/>
<path d="M683.9 58.5C683.1 57.9 682.5 58.6 682 59.2C680.6 61 679.2 62.9 677.7 64.7C676.6 65.9 675.5 67.2 674.1 68.1C672.2 69.3 670.4 68.3 670.6 66.1C670.7 64.8 671 63.4 671.6 62.3C673.5 59.1 675.6 56 677.5 52.8C678 52 679 51.1 677.8 50.4C676.7 49.7 676.3 51 675.8 51.6C675.4 52.1 675 52.7 674.6 53.2C671.9 57 669.3 60.7 666.4 64.6C665.4 66 664.2 67.1 662.8 68C660.9 69.3 659.2 68.2 659.3 65.9C659.3 65.1 659.4 64.3 659.8 63.6C660.8 61.6 661.8 59.7 663 57.8C665.8 53.5 668.6 49.3 671.5 45C673.4 42.1 675.3 39.3 677.2 36.3C677.3 36.2 677.3 36.1 677.3 36C677.4 35.3 676.6 34.8 676 35C675.9 35 675.7 35.1 675.6 35.1C675.3 35.2 675.2 35.6 675 35.9C673.1 38.7 671.3 41.6 669.4 44.4C665 50.8 660.7 57.3 656.1 63.6C654.8 65.3 653 66.8 651.1 67.8C650 68.4 648.2 68.3 646.9 67.8C644.5 66.9 644.3 62.4 646.5 60.9C646.7 60.7 647.1 60.7 647.4 60.8C652.8 62.5 656.8 59.2 658.7 55C659.9 52.5 658.6 50 656.1 50C654.9 50 653.5 50.5 652.4 51.2C648.3 54 645.3 57.7 643.4 62.3C641.8 66 643.7 69.6 647.6 70.4C650.4 71 652.7 69.9 654.8 68.1C655.1 67.8 655.5 67.5 655.8 67.2C656.3 66.8 657 66.8 657.4 67.4C658.1 68.4 658.7 69.4 659.6 70C661.5 71.3 663.8 70.6 666 68.5C666.4 68.1 666.8 67.7 667.2 67.3L667.3 67.2C667.6 66.9 668.2 66.9 668.5 67.3C668.6 67.4 668.7 67.6 668.7 67.6C670.1 70.1 672 71.3 674.7 70.1C675.8 69.6 676.9 68.8 677.7 67.9C679.8 65.5 681.7 62.9 683.7 60.4C684.2 59.9 684.7 59.1 683.9 58.5ZM648.8 57.8C650.4 55.8 652.1 53.8 654.5 52.7C654.7 52.6 654.8 52.6 655 52.6C656 52.5 656.8 53.4 656.7 54.3C656.7 54.5 656.6 54.6 656.6 54.7C656.2 55.4 654.9 57.4 653.8 58.1C652.4 59 650.6 59.3 649 58.7C648.6 58.6 648.5 58.2 648.8 57.8ZM683.9 58.5C683.1 57.9 682.5 58.6 682 59.2C680.6 61 679.2 62.9 677.7 64.7C676.6 65.9 675.5 67.2 674.1 68.1C672.2 69.3 670.4 68.3 670.6 66.1C670.7 64.8 671 63.4 671.6 62.3C673.5 59.1 675.6 56 677.5 52.8C678 52 679 51.1 677.8 50.4C676.7 49.7 676.3 51 675.8 51.6C672.7 55.9 669.9 60.5 666.5 64.6C665.6 65.7 664.6 66.7 663.6 67.5C663.4 67.7 663.2 67.8 663 68C661.1 69.3 659.4 68.2 659.5 65.9C659.5 65.1 659.6 64.3 660 63.6C661 61.6 662 59.7 663.2 57.8C666 53.5 668.8 49.3 671.7 45C673.6 42.1 675.5 39.3 677.4 36.3C677.5 36.2 677.5 36.1 677.5 36C677.6 35.3 676.8 34.8 676.2 35C676.1 35 675.9 35.1 675.8 35.1C675.5 35.2 675.4 35.6 675.2 35.9C673.3 38.7 671.5 41.6 669.6 44.4C665.2 50.8 660.9 57.3 656.3 63.6C655 65.3 653.2 66.8 651.3 67.8C650.2 68.4 648.4 68.3 647.1 67.8C644.7 66.9 644.5 62.4 646.7 60.9C646.9 60.7 647.3 60.7 647.6 60.8C653 62.5 657 59.2 658.9 55C660.1 52.5 658.8 50 656.3 50C655.1 50 653.7 50.5 652.6 51.2C648.5 54 645.5 57.7 643.6 62.3C642 66 643.9 69.6 647.8 70.4C650.6 71 652.9 69.9 655 68.1C655.3 67.8 655.7 67.5 656 67.2C656.5 66.8 657.2 66.8 657.6 67.4C658.3 68.4 658.9 69.4 659.8 70C661.7 71.3 664 70.6 666.2 68.5C666.6 68.1 667 67.7 667.4 67.3L667.5 67.2C667.8 66.9 668.4 66.9 668.7 67.3C668.8 67.4 668.9 67.6 668.9 67.6C670.3 70.1 672.2 71.3 674.9 70.1C676 69.6 677.1 68.8 677.9 67.9C680 65.5 681.9 62.9 683.9 60.4C684.2 59.9 684.7 59.1 683.9 58.5ZM648.8 57.8C650.4 55.8 652.1 53.8 654.5 52.7C654.7 52.6 654.8 52.6 655 52.6C656 52.5 656.8 53.4 656.7 54.3C656.7 54.5 656.6 54.6 656.6 54.7C656.2 55.4 654.9 57.4 653.8 58.1C652.4 59 650.6 59.3 649 58.7C648.6 58.6 648.5 58.2 648.8 57.8ZM683.9 58.5C683.1 57.9 682.5 58.6 682 59.2C680.6 61 679.2 62.9 677.7 64.7C676.6 65.9 675.5 67.2 674.1 68.1C672.2 69.3 670.4 68.3 670.6 66.1C670.7 64.8 671 63.4 671.6 62.3C673.5 59.1 675.6 56 677.5 52.8C678 52 679 51.1 677.8 50.4C676.7 49.7 676.3 51 675.8 51.6C675.4 52.1 675 52.7 674.6 53.2C671.9 57 669.2 60.8 666.4 64.6C665.8 65.4 665 66.2 664.2 66.9L664.1 67C663.9 67.2 663.7 67.3 663.5 67.5C663.3 67.7 663.1 67.8 662.8 68C660.9 69.3 659.2 68.2 659.3 65.9C659.3 65.1 659.4 64.3 659.8 63.6C660.8 61.6 661.8 59.7 663 57.8C665.8 53.5 668.6 49.3 671.5 45C673.4 42.1 675.3 39.3 677.2 36.3C677.3 36.2 677.3 36.1 677.3 36C677.4 35.3 676.6 34.8 676 35C675.9 35 675.7 35.1 675.6 35.1C675.3 35.2 675.2 35.6 675 35.9C673.1 38.7 671.3 41.6 669.4 44.4C665 50.8 660.7 57.3 656.1 63.6C654.8 65.3 653 66.8 651.1 67.8C650 68.4 648.2 68.3 646.9 67.8C644.5 66.9 644.3 62.4 646.5 60.9C646.7 60.7 647.1 60.7 647.4 60.8C652.8 62.5 656.8 59.2 658.7 55C659.9 52.5 658.6 50 656.1 50C654.9 50 653.5 50.5 652.4 51.2C648.3 54 645.3 57.7 643.4 62.3C641.8 66 643.7 69.6 647.6 70.4C650.4 71 652.7 69.9 654.8 68.1C655.1 67.8 655.5 67.5 655.8 67.2C656.3 66.8 657 66.8 657.4 67.4C658.1 68.4 658.7 69.4 659.6 70C661.5 71.3 663.8 70.6 666 68.5C666.4 68.1 666.8 67.7 667.2 67.3L667.3 67.2C667.6 66.9 668.2 66.9 668.5 67.3C668.6 67.4 668.7 67.6 668.7 67.6C670.1 70.1 672 71.3 674.7 70.1C675.8 69.6 676.9 68.8 677.7 67.9C679.8 65.5 681.7 62.9 683.7 60.4C684.2 59.9 684.7 59.1 683.9 58.5ZM648.8 57.8C650.4 55.8 652.1 53.8 654.5 52.7C654.7 52.6 654.8 52.6 655 52.6C656 52.5 656.8 53.4 656.7 54.3C656.7 54.5 656.6 54.6 656.6 54.7C656.2 55.4 654.9 57.4 653.8 58.1C652.4 59 650.6 59.3 649 58.7C648.6 58.6 648.5 58.2 648.8 57.8Z" fill="white"/>
<path d="M783.099 61C786.099 55.5 789.299 50.1 792.399 44.7C792.699 44.1 793.099 43.5 792.299 43C791.499 42.5 791.099 43.2 790.699 43.8C790.599 43.9 790.599 44.1 790.499 44.2C788.799 47.3 786.999 50.3 785.299 53.4C784.999 53.9 784.399 53.9 783.999 53.5C782.499 51.9 780.699 51.6 778.699 52.7C776.999 53.6 775.599 54.9 774.399 56.4C773.999 56.9 773.599 57.5 773.199 58C772.999 58.3 772.799 58.6 772.599 58.9C770.499 62.2 769.899 64.8 769.799 66.1C769.699 66.6 769.799 67.2 769.999 67.7C770.999 70.7 773.899 71.7 776.599 70.1C776.999 69.8 777.399 69.5 777.799 69.2C778.299 68.8 778.599 68.7 778.999 69.4C779.599 70.5 780.599 71 781.799 70.9C782.799 70.7 783.999 70.4 784.799 69.8C785.399 69.4 785.899 69 786.399 68.5C786.599 68.3 786.799 68.2 786.899 68C788.399 66.4 789.399 64.5 790.499 62.6L790.799 62.2C791.099 61.8 790.999 61.2 790.499 60.9C790.099 60.6 789.499 60.7 789.199 61.2L788.599 62L786.699 64.9C786.199 65.6 785.599 66.4 785.099 67.1C784.399 67.9 783.399 68.6 782.399 69C780.899 69.6 779.999 68.7 780.499 67.2C781.199 64.9 782.099 62.9 783.099 61ZM779.399 63.7C778.499 65.3 777.299 66.7 776.099 68C775.499 68.6 774.399 68.9 773.599 68.9C772.899 68.9 772.399 68.5 771.999 68C771.799 67.7 771.699 67.3 771.599 66.9C771.599 66.7 771.599 66.4 771.599 66.2C771.599 65.9 771.599 65.6 771.699 65.2C771.699 65.1 771.699 64.9 771.799 64.8C771.999 63.9 772.299 63.1 772.699 62.3C772.999 61.7 773.299 61.2 773.599 60.6C774.699 58.6 776.199 56.8 777.999 55.3C778.699 54.8 779.599 54.3 780.399 54.1C782.099 53.7 783.299 54.8 782.699 56.5C781.699 58.9 780.599 61.4 779.399 63.7Z" fill="white"/>
<path d="M750.499 69.2C749.699 68.8 749.399 69.3 749.099 69.9C748.999 70.1 748.899 70.2 748.799 70.4C747.899 72.2 746.499 73.3 744.599 73.9C740.599 75.2 736.699 74.7 732.899 73.2C730.999 72.4 728.999 71.6 727.099 70.8C726.299 70.5 726.099 69.4 726.799 68.9C726.899 68.8 726.999 68.8 726.999 68.7C727.899 67.8 728.899 66.9 729.699 65.9C733.999 61 736.999 55.3 740.199 49.7C740.299 49.4 740.599 49.3 740.899 49.3H756.199C756.699 49.3 757.199 48.9 757.299 48.4C757.399 47.8 756.899 47.3 756.299 47.3C756.299 47.3 740.199 47.3 740.099 47.3C739.599 47.3 739.299 47.5 738.999 48C737.799 50.1 736.599 52.2 735.399 54.3C733.099 58.4 729.999 61.6 725.499 63.2C722.899 64.1 720.299 64.3 717.799 63.2C713.699 61.5 712.999 57.3 714.099 53.4C714.299 52.5 714.999 52.5 715.799 52.6C717.699 52.7 719.599 52.9 721.499 52.6C725.999 52 729.999 50.1 733.499 47.2C735.799 45.3 737.799 43.2 738.899 40.3C740.199 37 738.699 34.5 735.199 33.9C732.799 33.5 730.599 33.9 728.499 34.8C722.899 37 718.599 40.7 715.399 45.8C714.799 46.8 714.199 47.8 713.699 48.8C713.599 49.1 713.199 49.2 712.899 49C712.699 48.9 712.499 48.8 712.299 48.6C712.199 48.6 711.799 48.3 711.399 47.8C711.099 47.3 710.799 46.9 710.599 46.4C710.599 46.3 710.499 46.3 710.499 46.2C709.399 43.9 709.599 41.4 710.399 38.8C711.099 36.7 712.199 35 713.699 33.4C714.099 32.9 714.399 32.4 713.799 31.9C713.199 31.4 712.699 31.7 712.299 32.2C709.599 35.1 707.999 38.5 707.899 42.6C707.899 44.1 708.099 45.5 708.699 46.8C708.699 46.8 708.699 46.9 708.799 46.9C708.899 47 708.899 47.1 708.999 47.3C709.799 48.8 710.799 49.9 711.899 50.7C712.399 51.1 712.599 51.7 712.499 52.3C712.199 53.3 711.999 54.2 711.899 55.2C711.399 59.5 713.399 63.4 717.399 64.9C720.299 66.1 723.299 65.8 726.299 64.8C726.899 64.6 727.499 64.4 728.099 64.2C728.199 64.3 728.199 64.3 728.199 64.4C727.999 64.7 727.799 65.1 727.499 65.4C726.899 66 726.299 66.7 725.699 67.3C725.699 67.3 725.399 67.5 724.999 67.9C724.099 68.7 722.699 68.9 721.599 68.4C720.199 67.8 718.699 67.2 717.299 66.6C713.499 65 709.599 63.7 705.399 63.5C702.799 63.4 700.199 63.6 697.899 65C695.299 66.6 694.399 69.2 695.499 71.7C696.299 73.5 697.699 74.5 699.399 75.3C703.399 77.1 707.499 76.9 711.699 76.4C714.799 76 717.599 75 720.399 73.6L720.599 73.5C721.199 73.2 721.699 72.9 722.299 72.5C723.399 71.8 724.499 71.8 725.699 72.3C727.099 73 728.599 73.6 730.099 74.2C733.299 75.5 736.599 76.5 740.699 76.6C741.399 76.5 742.699 76.4 743.899 76.2C746.999 75.5 749.399 74 750.799 71C751.099 70.2 751.299 69.6 750.499 69.2ZM716.099 48.5C717.399 45.8 719.199 43.5 721.299 41.4C724.099 38.7 727.299 36.6 731.199 35.7C732.499 35.4 733.799 35.4 735.099 35.5C737.199 35.7 737.999 37.2 737.299 39.2C736.399 41.5 734.899 43.3 733.099 44.9C729.099 48.3 724.499 50.3 718.999 50.7C718.399 50.6 717.699 50.6 717.099 50.5C715.699 50.2 715.499 49.7 716.099 48.5ZM720.399 71.2C720.199 71.3 719.999 71.4 719.799 71.5C718.899 72 717.999 72.5 717.099 72.8C713.099 74.4 708.899 75.1 704.699 74.6C702.899 74.4 701.099 73.7 699.399 73C697.799 72.4 696.699 71.1 696.899 69.3C697.099 67.4 698.599 66.4 700.299 65.8C702.699 65 705.199 65 707.699 65.5C711.999 66.3 715.999 67.9 719.999 69.7C720.199 69.8 720.399 69.9 720.499 70C720.899 70.4 720.799 70.9 720.399 71.2Z" fill="white"/>
<path d="M746.699 61.4999L746.399 59.4999L746.599 60.4999L746.399 59.4999C746.399 59.4999 746.599 59.4999 746.999 59.3999C750.199 58.6999 753.199 57.1999 755.899 54.9999C759.299 52.2999 764.299 49.9999 767.099 52.4999L765.699 53.9999C764.099 52.4999 760.199 54.1999 757.199 56.4999C754.199 58.8999 750.899 60.4999 747.399 61.2999C746.999 61.4999 746.699 61.4999 746.699 61.4999Z" fill="white"/>
<path d="M745.299 62.7999C746.183 62.7999 746.899 62.0835 746.899 61.1999C746.899 60.3162 746.183 59.5999 745.299 59.5999C744.416 59.5999 743.699 60.3162 743.699 61.1999C743.699 62.0835 744.416 62.7999 745.299 62.7999Z" fill="white"/>
<path d="M761.9 62.7999C762.783 62.7999 763.5 62.0835 763.5 61.1999C763.5 60.3162 762.783 59.5999 761.9 59.5999C761.016 59.5999 760.3 60.3162 760.3 61.1999C760.3 62.0835 761.016 62.7999 761.9 62.7999Z" fill="white"/>
<path d="M768.8 53.0999C767.3 52.0999 765.7 51.8999 764.1 52.6999C762.7 53.4999 761.3 54.3999 760.3 55.4999C757.7 58.0999 755.7 61.1999 755 64.8999C754.6 67.1999 755.4 69.4999 757.1 70.4999C758.5 71.2999 760.3 71.1999 761.9 70.2999C762 70.2999 762 70.1999 762.1 70.1999C762.2 70.0999 762.3 70.0999 762.4 69.9999C762.4 69.9999 763.5 69.2999 764.7 68.0999C765.1 67.7999 765.6 67.2999 766.2 66.4999C766.7 65.7999 767.2 65.0999 767.7 64.3999C767.8 64.1999 767.9 64.0999 768 63.8999L768.1 63.7999C769.3 61.8999 770.2 59.7999 770.4 57.4999C770.6 55.6999 770.3 54.0999 768.8 53.0999ZM762 67.7999C762 67.7999 760.8 68.7999 759.4 68.8999C759.1 68.8999 758.9 68.8999 758.6 68.8999C757.3 68.6999 756.8 67.5999 756.9 65.8999C757.1 62.5999 759 60.0999 760.9 57.5999C762 56.1999 763.3 54.9999 765 54.3999C767.1 53.5999 768.5 54.5999 768.4 56.8999C768.4 58.9999 767.5 60.8999 766.5 62.5999C765.6 64.1999 764.5 65.4999 763.4 66.4999C762.9 67.0999 762.4 67.4999 762 67.7999Z" fill="white"/>
<path d="M751.6 53.0999C750.1 52.0999 748.5 51.8999 746.9 52.6999C745.5 53.4999 744.1 54.3999 743.1 55.4999C740.5 58.0999 738.5 61.1999 737.8 64.8999C737.4 67.1999 738.2 69.4999 739.9 70.4999C741.3 71.2999 743.1 71.1999 744.7 70.2999C744.8 70.2999 744.8 70.1999 744.9 70.1999C745 70.0999 745.1 70.0999 745.2 69.9999C745.2 69.9999 746.3 69.2999 747.5 68.0999C747.9 67.7999 748.4 67.2999 749 66.4999C749.5 65.7999 750 65.0999 750.5 64.3999C750.6 64.1999 750.7 64.0999 750.8 63.8999L750.9 63.7999C752.1 61.8999 753 59.7999 753.2 57.4999C753.4 55.6999 753.1 54.0999 751.6 53.0999ZM744.8 67.7999C744.8 67.7999 743.6 68.7999 742.2 68.8999C741.9 68.8999 741.7 68.8999 741.4 68.8999C740.1 68.6999 739.6 67.5999 739.7 65.8999C739.9 62.5999 741.8 60.0999 743.7 57.5999C744.8 56.1999 746.1 54.9999 747.8 54.3999C749.9 53.5999 751.3 54.5999 751.2 56.8999C751.2 58.9999 750.3 60.8999 749.3 62.5999C748.4 64.1999 747.3 65.4999 746.2 66.4999C745.7 67.0999 745.2 67.4999 744.8 67.7999Z" fill="white"/>
<path d="M766.8 53.9C766.7 53.9 766.5 53.9 766.4 53.7999C765.9 53.5999 765.7 53 765.9 52.4L768.1 47.5C768.9 45.8 770.6 44.7 772.5 44.7H774.1C774.7 44.7 775.1 45.2 775.1 45.7C775.1 46.3 774.6 46.7 774.1 46.7H772.5C771.4 46.7 770.5 47.2999 770 48.2999L767.8 53.2C767.6 53.7 767.2 53.9 766.8 53.9Z" fill="white"/>
<path d="M745.5 61.8999C745.3 61.8999 745.1 61.8999 745 61.7999C744.5 61.4999 744.3 60.8999 744.6 60.3999L749.3 52.4999L751.3 48.1999C751.5 47.6999 752.2 47.4999 752.7 47.6999C753.2 47.8999 753.4 48.5999 753.2 49.0999L751.1 53.3999V53.4999L746.4 61.4999C746.2 61.6999 745.8 61.8999 745.5 61.8999Z" fill="white"/>
<path d="M761.899 61.8998C761.699 61.8998 761.499 61.8998 761.399 61.7998C760.899 61.4998 760.699 60.8998 760.999 60.3998L765.699 52.3998C765.999 51.8998 766.599 51.6998 767.099 51.9998C767.599 52.2998 767.799 52.8998 767.499 53.3998L762.799 61.3998C762.599 61.6998 762.299 61.8998 761.899 61.8998Z" fill="white"/>
<path d="M537.8 1200.9C537.8 1200.9 478.9 1067.8 363.6 1038.4C248.3 1009 227.8 905.4 153.5 816C79.2 726.6 0 704.8 0 704.8V1200.9H537.8Z" fill="#022C25" stroke="black" stroke-width="2" stroke-miterlimit="10"/>
<path d="M0 772.1C53 869.5 111.8 928 155.8 963.5C208 1005.6 259.5 1031.6 311.8 1100.2C341.8 1139.6 359.6 1176.9 369.9 1201.7H0V772.1Z" fill="#2EAD72" stroke="black" stroke-width="2" stroke-miterlimit="10" stroke-linecap="round" stroke-linejoin="round"/>
<path d="M1440 772.1C1387 869.5 1328.2 928 1284.2 963.4C1232 1005.5 1180.5 1031.5 1128.2 1100.1C1098.2 1139.5 1080.4 1176.8 1070.1 1201.6H1440V772.1Z" fill="#2EAD72" stroke="black" stroke-width="2" stroke-miterlimit="10" stroke-linecap="round" stroke-linejoin="round"/>
<path d="M589.301 815.5H242.601V1201.3H589.301V815.5Z" fill="#F0A2BD" stroke="black" stroke-width="2" stroke-miterlimit="10"/>
<path d="M538.5 785H553.3C554.3 785 555 784.2 555 783.3V777.4C555 776.4 554.2 775.7 553.3 775.7H538.5V785Z" fill="#F0EADB"/>
<path d="M550.4 786H538.5C538 786 537.5 785.6 537.5 785V775.6C537.5 775.1 537.9 774.6 538.5 774.6H550.4C553.5 774.6 556.1 777.1 556.1 780.3C556.1 783.5 553.5 786 550.4 786ZM539.5 784H550.4C552.4 784 554.1 782.3 554.1 780.3C554.1 778.3 552.4 776.6 550.4 776.6H539.5V784Z" fill="black"/>
<path d="M538.5 775.7H504.5C503.5 775.7 502.8 776.5 502.8 777.4V783.3C502.8 784.3 503.6 785 504.5 785H538.5V775.7Z" fill="#F0EADB"/>
<path d="M538.5 786H507.4C504.3 786 501.7 783.5 501.7 780.3C501.7 777.1 504.2 774.6 507.4 774.6H538.5C539 774.6 539.5 775 539.5 775.6V785C539.5 785.6 539 786 538.5 786ZM507.4 776.7C505.4 776.7 503.7 778.4 503.7 780.4C503.7 782.4 505.4 784.1 507.4 784.1H537.5V776.7H507.4Z" fill="black"/>
<path d="M549.5 785H538.5V830C538.5 830.8 539.1 831.4 539.9 831.4H548.1C548.9 831.4 549.5 830.8 549.5 830V785Z" fill="#F0A2BD"/>
<path d="M545.7 832.3H542.2C539.6 832.3 537.5 830.2 537.5 827.6V785C537.5 784.5 537.9 784 538.5 784H549.5C550 784 550.5 784.4 550.5 785V827.6C550.4 830.2 548.3 832.3 545.7 832.3ZM539.5 786V827.6C539.5 829.1 540.7 830.3 542.2 830.3H545.7C547.2 830.3 548.4 829.1 548.4 827.6V786H539.5Z" fill="black"/>
<path d="M538.501 785H509.001V830C509.001 830.8 509.601 831.4 510.401 831.4H537.101C537.901 831.4 538.501 830.8 538.501 830V785Z" fill="#FB6337"/>
<path d="M534.801 832.3H512.801C510.201 832.3 508.101 830.2 508.101 827.6V785C508.101 784.5 508.501 784 509.101 784H538.601C539.101 784 539.601 784.4 539.601 785V827.6C539.501 830.2 537.401 832.3 534.801 832.3ZM510.001 786V827.6C510.001 829.1 511.201 830.3 512.701 830.3H534.701C536.201 830.3 537.401 829.1 537.401 827.6V786H510.001Z" fill="black"/>
<path d="M598.3 837.3H232.4C231.2 837.3 230.2 836.3 230.2 835.1V827.6C230.2 826.4 231.2 825.4 232.4 825.4H598.3C599.5 825.4 600.5 826.4 600.5 827.6V835.1C600.5 836.3 599.5 837.3 598.3 837.3Z" fill="#F0EADB"/>
<path d="M594.5 838.3H236.1C232.3 838.3 229.2 835.2 229.2 831.4C229.2 827.6 232.3 824.5 236.1 824.5H594.5C598.3 824.5 601.4 827.6 601.4 831.4C601.5 835.2 598.3 838.3 594.5 838.3ZM236.1 826.4C233.4 826.4 231.1 828.6 231.1 831.4C231.1 834.1 233.3 836.4 236.1 836.4H594.5C597.2 836.4 599.5 834.2 599.5 831.4C599.5 828.7 597.3 826.4 594.5 826.4H236.1Z" fill="black"/>
<path d="M595.201 847.4H237.601C236.601 847.4 235.701 846.6 235.701 845.5V839.2C235.701 838.2 236.501 837.3 237.601 837.3H595.301C596.301 837.3 597.201 838.1 597.201 839.2V845.5C597.101 846.5 596.301 847.4 595.201 847.4Z" fill="#FB6337"/>
<path d="M592.101 848.4H240.801C237.501 848.4 234.801 845.7 234.801 842.4C234.801 839.1 237.501 836.4 240.801 836.4H592.101C595.401 836.4 598.101 839.1 598.101 842.4C598.101 845.7 595.401 848.4 592.101 848.4ZM240.801 838.3C238.601 838.3 236.701 840.1 236.701 842.4C236.701 844.6 238.501 846.5 240.801 846.5H592.101C594.301 846.5 596.201 844.7 596.201 842.4C596.201 840.2 594.401 838.3 592.101 838.3H240.801Z" fill="black"/>
<path d="M916.4 737.7H929.6C930.4 737.7 931.1 737 931.1 736.2V730.9C931.1 730.1 930.4 729.4 929.6 729.4H916.4V737.7Z" fill="#F0EADB"/>
<path d="M930.9 730.3C930.9 730.2 930.9 730.2 930.9 730.3C930.9 730.2 930.9 730.2 930.9 730.3C930.7 730 930.5 729.8 930.3 729.6C929.4 728.9 928.3 728.4 927 728.4H916.5C915.9 728.4 915.5 728.9 915.5 729.4V737.7C915.5 738.3 916 738.7 916.5 738.7H927C927.1 738.7 927.1 738.7 927.2 738.7C928.4 738.7 929.4 738.2 930.3 737.5C930.5 737.3 930.7 737.1 930.9 736.9C931.6 736 932.1 734.8 932.1 733.6C932.1 732.4 931.7 731.2 930.9 730.3ZM917.4 736.7V730.5H926.9C928.6 730.5 930 731.9 930 733.6C930 735.3 928.6 736.7 926.9 736.7H917.4Z" fill="black"/>
<path d="M916.4 729.4H886.2C885.4 729.4 884.7 730.1 884.7 730.9V736.2C884.7 737 885.4 737.7 886.2 737.7H916.4V729.4Z" fill="#F0EADB"/>
<path d="M916.4 728.4H888.9C887.7 728.4 886.5 728.8 885.6 729.6C885.3 729.8 885.1 730 884.9 730.3C884.9 730.3 884.9 730.3 884.9 730.4C884.2 731.3 883.8 732.4 883.8 733.6C883.8 734.8 884.2 735.9 884.9 736.8C884.9 736.8 884.9 736.8 884.9 736.9C885.1 737.2 885.3 737.4 885.6 737.6C886.5 738.3 887.6 738.8 888.9 738.8H916.4C917 738.8 917.4 738.3 917.4 737.8V729.5C917.4 728.9 917 728.4 916.4 728.4ZM888.9 736.7C887.2 736.7 885.8 735.3 885.8 733.6C885.8 731.9 887.2 730.5 888.9 730.5H915.4V736.7H888.9Z" fill="black"/>
<path d="M926.099 737.7H916.399V777.5C916.399 778.1 916.899 778.7 917.599 778.7H924.999C925.599 778.7 926.199 778.2 926.199 777.5V737.7H926.099Z" fill="#F0A2BD"/>
<path d="M916.399 738.7V774.4H917.399V738.7H916.399ZM916.399 738.7V774.4H917.399V738.7H916.399ZM926.099 736.7H916.399C915.799 736.7 915.399 737.2 915.399 737.7V775.4C915.399 776.2 915.599 777 915.999 777.6C916.099 777.7 916.199 777.9 916.299 778C916.299 778.1 916.399 778.1 916.399 778.2C916.499 778.4 916.699 778.5 916.899 778.7C917.699 779.4 918.599 779.7 919.699 779.7H922.799C923.899 779.7 924.799 779.3 925.599 778.7C925.999 778.4 926.199 778.1 926.499 777.7C926.899 777.1 927.099 776.3 927.099 775.5V737.8C927.099 737.1 926.699 736.7 926.099 736.7ZM925.099 775.4C925.099 776.6 924.099 777.6 922.899 777.6H919.799C918.599 777.6 917.599 776.6 917.599 775.4V738.7H925.199V775.4H925.099ZM916.399 738.7V774.4H917.399V738.7H916.399Z" fill="black"/>
<path d="M916.4 737.7H890.3V777.5C890.3 778.1 890.8 778.7 891.5 778.7H915.2C915.8 778.7 916.4 778.2 916.4 777.5V737.7Z" fill="#FB6337"/>
<path d="M915.4 775.4C915.4 776.6 914.4 777.6 913.1 777.6H916C915.6 777 915.4 776.2 915.4 775.4ZM915.4 775.4C915.4 776.6 914.4 777.6 913.1 777.6H916C915.6 777 915.4 776.2 915.4 775.4ZM916.4 736.7H890.3C889.7 736.7 889.3 737.2 889.3 737.7V775.4C889.3 776.2 889.5 777 889.9 777.6C890.1 778 890.4 778.4 890.8 778.6C891.6 779.3 892.5 779.6 893.6 779.6H913.1C914.2 779.6 915.2 779.2 915.9 778.6C916.1 778.5 916.2 778.3 916.4 778.1C916.4 778 916.5 778 916.5 777.9C916.6 777.8 916.7 777.7 916.8 777.5C917.2 776.9 917.4 776.1 917.4 775.3V737.6C917.4 737.1 917 736.7 916.4 736.7ZM915.4 775.4C915.4 776.6 914.4 777.6 913.1 777.6H893.6C892.4 777.6 891.4 776.6 891.4 775.4V738.7H915.4V775.4ZM915.4 775.4C915.4 776.6 914.4 777.6 913.1 777.6H916C915.6 777 915.4 776.2 915.4 775.4Z" fill="black"/>
<path d="M1141.8 737.7H1155C1155.8 737.7 1156.5 737 1156.5 736.2V730.9C1156.5 730.1 1155.8 729.4 1155 729.4H1141.8V737.7Z" fill="#F0EADB"/>
<path d="M1156.3 730.3C1156.3 730.2 1156.3 730.2 1156.3 730.3C1156.3 730.2 1156.3 730.2 1156.3 730.3C1156.1 730 1155.9 729.8 1155.7 729.6C1154.8 728.9 1153.7 728.4 1152.4 728.4H1141.9C1141.3 728.4 1140.9 728.9 1140.9 729.4V737.7C1140.9 738.3 1141.4 738.7 1141.9 738.7H1152.4C1152.5 738.7 1152.5 738.7 1152.6 738.7C1153.8 738.7 1154.8 738.2 1155.7 737.5C1155.9 737.3 1156.1 737.1 1156.3 736.9C1157 736 1157.5 734.8 1157.5 733.6C1157.5 732.4 1157 731.2 1156.3 730.3ZM1142.8 736.7V730.5H1152.3C1154 730.5 1155.4 731.9 1155.4 733.6C1155.4 735.3 1154 736.7 1152.3 736.7H1142.8Z" fill="black"/>
<path d="M1141.8 729.4H1111.6C1110.8 729.4 1110.1 730.1 1110.1 730.9V736.2C1110.1 737 1110.8 737.7 1111.6 737.7H1141.8V729.4Z" fill="#F0EADB"/>
<path d="M1141.8 728.4H1114.3C1113.1 728.4 1111.9 728.8 1111 729.6C1110.7 729.8 1110.5 730 1110.3 730.3C1110.3 730.3 1110.3 730.3 1110.3 730.4C1109.6 731.3 1109.1 732.4 1109.1 733.6C1109.1 734.8 1109.5 735.9 1110.3 736.8C1110.3 736.8 1110.3 736.8 1110.3 736.9C1110.5 737.2 1110.8 737.4 1111 737.6C1111.9 738.3 1113 738.8 1114.3 738.8H1141.8C1142.4 738.8 1142.8 738.3 1142.8 737.8V729.5C1142.8 728.9 1142.3 728.4 1141.8 728.4ZM1114.2 736.7C1112.5 736.7 1111.1 735.3 1111.1 733.6C1111.1 731.9 1112.5 730.5 1114.2 730.5H1140.7V736.7H1114.2Z" fill="black"/>
<path d="M1151.5 737.7H1141.8V777.5C1141.8 778.1 1142.3 778.7 1143 778.7H1150.4C1151 778.7 1151.6 778.2 1151.6 777.5V737.7H1151.5Z" fill="#F0A2BD"/>
<path d="M1141.8 738.7V774.4H1142.8V738.7H1141.8ZM1141.8 738.7V774.4H1142.8V738.7H1141.8ZM1151.5 736.7H1141.8C1141.2 736.7 1140.8 737.2 1140.8 737.7V775.4C1140.8 776.2 1141 777 1141.4 777.6C1141.5 777.7 1141.6 777.9 1141.7 778C1141.7 778.1 1141.8 778.1 1141.8 778.2C1141.9 778.4 1142.1 778.5 1142.3 778.7C1143.1 779.4 1144 779.7 1145.1 779.7H1148.2C1149.3 779.7 1150.3 779.3 1151 778.7C1151.3 778.4 1151.6 778.1 1151.9 777.7C1152.3 777.1 1152.5 776.3 1152.5 775.5V737.8C1152.5 737.1 1152 736.7 1151.5 736.7ZM1150.4 775.4C1150.4 776.6 1149.4 777.6 1148.2 777.6H1145.1C1143.9 777.6 1142.9 776.6 1142.9 775.4V738.7H1150.5V775.4H1150.4ZM1141.8 738.7V774.4H1142.8V738.7H1141.8Z" fill="black"/>
<path d="M1141.8 737.7H1115.7V777.5C1115.7 778.1 1116.2 778.7 1116.9 778.7H1140.6C1141.2 778.7 1141.8 778.2 1141.8 777.5V737.7Z" fill="#FB6337"/>
<path d="M1140.7 775.4C1140.7 776.6 1139.7 777.6 1138.4 777.6H1141.3C1141 777 1140.7 776.2 1140.7 775.4ZM1140.7 775.4C1140.7 776.6 1139.7 777.6 1138.4 777.6H1141.3C1141 777 1140.7 776.2 1140.7 775.4ZM1141.8 736.7H1115.7C1115.1 736.7 1114.7 737.2 1114.7 737.7V775.4C1114.7 776.2 1114.9 777 1115.3 777.6C1115.5 778 1115.8 778.4 1116.2 778.6C1117 779.3 1117.9 779.6 1119 779.6H1138.5C1139.6 779.6 1140.6 779.2 1141.3 778.6C1141.5 778.5 1141.6 778.3 1141.8 778.1C1141.8 778 1141.9 778 1141.9 777.9C1142 777.8 1142.1 777.7 1142.2 777.5C1142.6 776.9 1142.8 776.1 1142.8 775.3V737.6C1142.8 737.1 1142.3 736.7 1141.8 736.7ZM1140.7 775.4C1140.7 776.6 1139.7 777.6 1138.4 777.6H1119C1117.8 777.6 1116.8 776.6 1116.8 775.4V738.7H1140.8V775.4H1140.7ZM1140.7 775.4C1140.7 776.6 1139.7 777.6 1138.4 777.6H1141.3C1141 777 1140.7 776.2 1140.7 775.4Z" fill="black"/>
<path d="M1191.4 778.7V1231.7C1191.1 1231.8 1190.7 1231.9 1190.4 1231.9V1311.7H865.1V778.7H1191.4Z" fill="#F0A2BD" stroke="black" stroke-width="2" stroke-miterlimit="10"/>
<path d="M1195.4 784H857C856 784 855.1 783.2 855.1 782.1V775.3C855.1 774.3 855.9 773.4 857 773.4H1195.5C1196.5 773.4 1197.4 774.2 1197.4 775.3V782.1C1197.3 783.1 1196.5 784 1195.4 784Z" fill="#F0EADB"/>
<path d="M1197.3 775.2C1196.8 774.5 1196.2 773.9 1195.5 773.4C1194.5 772.7 1193.3 772.4 1192 772.4H860.4C859.1 772.4 857.9 772.8 856.9 773.4C856.2 773.9 855.6 774.5 855.1 775.2C854.4 776.2 854.1 777.4 854.1 778.6C854.1 779.9 854.5 781.1 855.1 782C855.6 782.7 856.2 783.3 856.9 783.8C857.8 784.4 858.9 784.8 860.1 784.8C860.1 784.8 860.1 784.8 860.2 784.8C860.3 784.8 860.3 784.8 860.4 784.8H1192C1192.1 784.8 1192.3 784.8 1192.4 784.8C1192.9 784.8 1193.4 784.7 1193.8 784.5C1193.8 784.5 1193.9 784.5 1193.9 784.4C1194.4 784.2 1194.9 784 1195.4 783.7C1196.1 783.2 1196.7 782.6 1197.2 781.9C1197.9 780.9 1198.2 779.7 1198.2 778.4C1198.3 777.4 1198 776.2 1197.3 775.2ZM1192.5 782.9C1192.4 782.9 1192.2 782.9 1192.1 782.9H860.4C858.1 782.9 856.2 781 856.2 778.7C856.2 776.4 858.1 774.5 860.4 774.5H1192C1194.3 774.5 1196.2 776.4 1196.2 778.7C1196.3 780.9 1194.6 782.7 1192.5 782.9Z" fill="black"/>
<path d="M1192.7 792.9H861.6C860.7 792.9 860 792.2 860 791.3V785.5C860 784.6 860.7 783.9 861.6 783.9H1192.7C1193.6 783.9 1194.3 784.6 1194.3 785.5V791.3C1194.3 792.2 1193.6 792.9 1192.7 792.9Z" fill="#FB6337"/>
<path d="M1194.3 785.2C1194.2 785 1194.1 784.9 1193.9 784.7C1193.7 784.4 1193.4 784.2 1193.1 784L1193 783.9C1192.8 783.8 1192.6 783.6 1192.4 783.5C1192.1 783.3 1191.7 783.2 1191.4 783.1C1191.1 783 1190.7 782.9 1190.4 782.9C1190.2 782.9 1190 782.9 1189.9 782.9H864.5C864.4 782.9 864.2 782.9 864.1 782.9C863.1 783 862.1 783.4 861.3 783.9C861.3 783.9 861.2 783.9 861.2 784C860.8 784.3 860.5 784.6 860.2 785C860.2 785.1 860.1 785.1 860.1 785.2C859.4 786.1 859 787.2 859 788.5C859 789.8 859.4 790.9 860.1 791.8C860.4 792.2 860.8 792.6 861.2 792.9C862 793.5 863 793.9 864 794C864.1 794 864.3 794 864.4 794H1189.8C1190 794 1190.2 794 1190.3 794C1190.7 794 1191 793.9 1191.3 793.8C1191.7 793.7 1192 793.6 1192.3 793.4C1192.5 793.3 1192.8 793.1 1193 793C1193.4 792.7 1193.8 792.3 1194.1 791.9C1194.8 791 1195.2 789.9 1195.2 788.6C1195.2 787.3 1195 786.1 1194.3 785.2ZM1192.5 790.7C1192.2 791 1191.9 791.3 1191.5 791.5C1191.2 791.7 1190.8 791.8 1190.5 791.8C1190.3 791.8 1190.1 791.8 1190 791.8H864.5C864.4 791.8 864.2 791.8 864.1 791.8C862.4 791.6 861.1 790.1 861.1 788.4C861.1 786.6 862.4 785.2 864.1 785C864.2 785 864.4 785 864.5 785H1189.9C1190.1 785 1190.3 785 1190.4 785.1C1190.8 785.2 1191.1 785.3 1191.4 785.4C1191.8 785.6 1192.2 785.9 1192.4 786.2C1192.9 786.8 1193.2 787.6 1193.2 788.4C1193.3 789.3 1193 790.1 1192.5 790.7Z" fill="black"/>
<path d="M919.399 830.6V863.7C919.399 868.5 915.499 872.4 910.699 872.4H884.199C879.399 872.4 875.499 868.5 875.499 863.7V830.6C875.499 818.5 885.299 808.7 897.399 808.7C898.999 808.7 900.499 808.9 901.899 809.2C911.999 811.3 919.399 820.1 919.399 830.6Z" fill="#FB6337"/>
<path d="M902.299 808.2C902.199 808.2 902.099 808.2 902.099 808.2C900.599 807.9 899.099 807.7 897.599 807.7C884.999 807.7 874.699 818 874.699 830.6V863.7C874.699 869.1 879.099 873.4 884.399 873.4H910.899C916.299 873.4 920.599 869 920.599 863.7V830.6C920.399 819.8 912.799 810.4 902.299 808.2ZM918.399 863.7C918.399 867.9 914.999 871.3 910.799 871.3H884.299C880.099 871.3 876.699 867.9 876.699 863.7V830.6C876.699 819.3 885.799 810 897.099 809.7C897.199 809.7 897.399 809.7 897.599 809.7C898.299 809.7 898.999 809.7 899.699 809.8C900.499 809.9 901.199 810 901.899 810.1C901.999 810.1 901.999 810.1 902.099 810.2C902.199 810.2 902.299 810.3 902.399 810.3C902.499 810.3 902.599 810.4 902.799 810.4C902.999 810.5 903.299 810.5 903.499 810.6C903.599 810.6 903.599 810.6 903.699 810.6C903.999 810.7 904.299 810.8 904.499 810.9C904.799 811 904.999 811.1 905.299 811.2C905.599 811.3 905.799 811.4 906.099 811.6C906.299 811.7 906.599 811.8 906.899 811.9C909.099 813 910.999 814.5 912.699 816.2C912.899 816.4 913.099 816.6 913.299 816.8C914.099 817.7 914.799 818.6 915.399 819.6C915.699 820.1 915.999 820.6 916.299 821.1C916.399 821.4 916.599 821.6 916.699 821.9C916.899 822.4 917.199 823 917.399 823.5C917.499 823.8 917.599 824.1 917.699 824.3C917.699 824.4 917.799 824.5 917.799 824.6C917.899 825 917.999 825.3 918.099 825.7C918.099 825.8 918.199 825.9 918.199 826.1C918.499 827.5 918.699 829 918.699 830.6V863.7H918.399Z" fill="black"/>
<path d="M919.4 830.6V863.7C919.4 868.5 915.5 872.4 910.7 872.4H893.3C888.5 872.4 884.6 868.5 884.6 863.7V830.6C884.6 820.1 892 811.3 902 809.2C912 811.3 919.4 820.1 919.4 830.6Z" fill="black"/>
<path d="M902.299 808.2L902.099 808.1H901.899C901.099 808.3 900.299 808.5 899.499 808.7C898.699 809 897.899 809.3 897.099 809.7C889.099 813.4 883.699 821.5 883.699 830.6V863.7C883.699 866.8 885.199 869.6 887.399 871.3C887.899 871.7 888.399 872 888.999 872.3C890.299 873 891.799 873.3 893.399 873.3H910.799C916.199 873.3 920.499 868.9 920.499 863.6V830.5C920.399 819.8 912.799 810.4 902.299 808.2ZM918.399 863.7C918.399 867.9 914.999 871.3 910.799 871.3H893.399C889.199 871.3 885.799 867.9 885.799 863.7V830.6C885.799 820.9 892.599 812.3 902.099 810.2C902.199 810.2 902.299 810.3 902.399 810.3C902.499 810.3 902.599 810.4 902.799 810.4C902.999 810.5 903.299 810.5 903.499 810.6C903.599 810.6 903.599 810.6 903.699 810.6C903.999 810.7 904.299 810.8 904.499 810.9C904.799 811 904.999 811.1 905.299 811.2C905.599 811.3 905.799 811.4 906.099 811.6C906.299 811.7 906.599 811.8 906.899 811.9C909.099 813 910.999 814.5 912.699 816.2C912.899 816.4 913.099 816.6 913.299 816.8C914.099 817.7 914.799 818.6 915.399 819.6C915.699 820.1 915.999 820.6 916.299 821.1C916.399 821.4 916.599 821.6 916.699 821.9C916.899 822.4 917.199 823 917.399 823.5C917.499 823.8 917.599 824.1 917.699 824.3C917.699 824.4 917.799 824.5 917.799 824.6C917.899 825 917.999 825.3 918.099 825.7C918.099 825.8 918.199 825.9 918.199 826.1C918.499 827.5 918.699 829 918.699 830.6V863.7H918.399Z" fill="black"/>
<path d="M983.799 830.6V863.7C983.799 868.5 979.899 872.4 975.099 872.4H948.599C943.799 872.4 939.899 868.5 939.899 863.7V830.6C939.899 818.5 949.699 808.7 961.799 808.7C963.399 808.7 964.899 808.9 966.299 809.2C976.399 811.3 983.799 820.1 983.799 830.6Z" fill="#FB6337"/>
<path d="M966.7 808.2L966.5 808.1C965 807.8 963.5 807.7 962 807.7C949.4 807.7 939.1 818 939.1 830.6V863.7C939.1 869.1 943.5 873.4 948.8 873.4H975.3C980.7 873.4 985 869 985 863.7V830.6C984.9 819.8 977.2 810.4 966.7 808.2ZM982.8 863.7C982.8 867.9 979.4 871.3 975.2 871.3H948.7C944.5 871.3 941.1 867.9 941.1 863.7V830.6C941.1 819.3 950.2 810 961.5 809.7C961.6 809.7 961.8 809.7 962 809.7C962.7 809.7 963.4 809.7 964.1 809.8C964.9 809.9 965.6 810 966.3 810.1C966.4 810.1 966.4 810.1 966.5 810.1C966.7 810.2 967 810.2 967.2 810.3C968.7 810.7 970.2 811.3 971.6 812C971.8 812.1 972.1 812.3 972.3 812.4C972.5 812.5 972.8 812.7 973.1 812.8C973.3 813 973.6 813.1 973.8 813.3C974 813.5 974.3 813.6 974.5 813.8C974.7 814 975 814.2 975.2 814.3C975.4 814.5 975.7 814.7 975.9 814.9C976.3 815.3 976.7 815.7 977.1 816.1C977.3 816.3 977.5 816.5 977.7 816.7C978.5 817.6 979.1 818.5 979.8 819.5C980.1 820 980.4 820.5 980.7 821C980.8 821.3 981 821.5 981.1 821.8C981.3 822.3 981.6 822.9 981.8 823.4C981.9 823.7 982 824 982.1 824.2C982.1 824.3 982.2 824.4 982.2 824.5C982.3 824.9 982.4 825.2 982.5 825.6C982.5 825.7 982.6 825.8 982.6 826C982.9 827.4 983.1 828.9 983.1 830.5V863.7H982.8Z" fill="black"/>
<path d="M983.8 830.6V863.7C983.8 868.5 979.9 872.4 975.1 872.4H957.7C952.9 872.4 949 868.5 949 863.7V830.6C949 820.1 956.4 811.3 966.4 809.2C976.4 811.3 983.8 820.1 983.8 830.6Z" fill="black"/>
<path d="M966.7 808.2L966.5 808.1L966.3 808.2C965.5 808.4 964.7 808.6 963.9 808.8C963.1 809.1 962.3 809.4 961.5 809.8C953.5 813.5 948.1 821.6 948.1 830.7V863.8C948.1 866.9 949.6 869.7 951.8 871.4C952.3 871.8 952.8 872.1 953.4 872.4C954.7 873.1 956.2 873.4 957.8 873.4H975.2C980.6 873.4 984.9 869 984.9 863.7V830.6C984.9 819.8 977.2 810.4 966.7 808.2ZM982.8 863.7C982.8 867.9 979.4 871.3 975.2 871.3H957.8C953.6 871.3 950.2 867.9 950.2 863.7V830.6C950.2 820.9 957.1 812.3 966.5 810.2C966.7 810.3 967 810.3 967.2 810.4C968.7 810.8 970.2 811.4 971.6 812.1C971.8 812.2 972.1 812.4 972.3 812.5C972.5 812.6 972.8 812.8 973.1 812.9C973.3 813.1 973.6 813.2 973.8 813.4C974 813.6 974.3 813.7 974.5 813.9C974.7 814.1 975 814.3 975.2 814.4C975.4 814.6 975.7 814.8 975.9 815C976.3 815.4 976.7 815.8 977.1 816.2C977.3 816.4 977.5 816.6 977.7 816.8C978.5 817.7 979.1 818.6 979.8 819.6C980.1 820.1 980.4 820.6 980.7 821.1C980.8 821.4 981 821.6 981.1 821.9C981.3 822.4 981.6 823 981.8 823.5C981.9 823.8 982 824.1 982.1 824.3C982.1 824.4 982.2 824.5 982.2 824.6C982.3 825 982.4 825.3 982.5 825.7C982.5 825.8 982.6 825.9 982.6 826.1C982.9 827.5 983.1 829 983.1 830.6V863.7H982.8Z" fill="black"/>
<path d="M1048.2 830.6V863.7C1048.2 868.5 1044.3 872.4 1039.5 872.4H1013C1008.2 872.4 1004.3 868.5 1004.3 863.7V830.6C1004.3 818.5 1014.1 808.7 1026.2 808.7C1027.8 808.7 1029.3 808.9 1030.7 809.2C1040.8 811.3 1048.2 820.1 1048.2 830.6Z" fill="#FB6337"/>
<path d="M1031.1 808.2C1031 808.2 1031 808.2 1030.9 808.2C1029.4 807.9 1027.9 807.7 1026.4 807.7C1013.8 807.7 1003.5 818 1003.5 830.6V863.7C1003.5 869.1 1007.9 873.4 1013.2 873.4H1039.7C1045 873.4 1049.4 869 1049.4 863.7V830.6C1049.3 819.8 1041.6 810.4 1031.1 808.2ZM1047.2 863.7C1047.2 867.9 1043.8 871.3 1039.6 871.3H1013.1C1008.9 871.3 1005.5 867.9 1005.5 863.7V830.6C1005.5 819.2 1014.6 810 1025.9 809.7C1026 809.7 1026.2 809.7 1026.4 809.7C1027.1 809.7 1027.8 809.7 1028.5 809.8C1029.3 809.9 1030 810 1030.7 810.1C1030.8 810.1 1030.8 810.1 1030.9 810.2C1031 810.2 1031.1 810.3 1031.2 810.3C1031.3 810.3 1031.4 810.4 1031.5 810.4C1031.7 810.5 1032 810.5 1032.2 810.6C1032.3 810.6 1032.3 810.6 1032.4 810.6C1032.7 810.7 1033 810.8 1033.2 810.9C1033.5 811 1033.7 811.1 1034 811.2C1034.3 811.3 1034.5 811.4 1034.8 811.6C1035 811.7 1035.2 811.8 1035.4 811.9C1035.5 812 1035.7 812 1035.8 812.1C1036 812.2 1036.3 812.4 1036.5 812.5C1036.7 812.6 1037 812.8 1037.3 812.9C1037.5 813.1 1037.8 813.2 1038 813.4C1038.3 813.6 1038.6 813.8 1038.8 814C1039 814.1 1039.2 814.3 1039.4 814.4C1040.1 815 1040.7 815.6 1041.3 816.2C1041.5 816.4 1041.7 816.6 1041.9 816.8C1042.1 817 1042.3 817.2 1042.5 817.5C1042.7 817.7 1042.9 818 1043 818.2C1043.2 818.4 1043.3 818.7 1043.5 818.9C1043.8 819.4 1044.1 819.9 1044.4 820.4C1044.5 820.6 1044.7 820.9 1044.8 821.2C1045.2 822 1045.6 822.8 1045.8 823.6C1045.9 823.9 1046 824.2 1046.1 824.4C1046.1 824.5 1046.1 824.6 1046.2 824.7C1046.3 825.1 1046.4 825.4 1046.5 825.8C1046.5 825.9 1046.6 826 1046.6 826.2C1046.9 827.6 1047.1 829.1 1047.1 830.7V863.7H1047.2Z" fill="black"/>
<path d="M1048.2 830.6V863.7C1048.2 868.5 1044.3 872.4 1039.5 872.4H1022.1C1017.3 872.4 1013.4 868.5 1013.4 863.7V830.6C1013.4 820.1 1020.8 811.3 1030.8 809.2C1040.8 811.3 1048.2 820.1 1048.2 830.6Z" fill="black"/>
<path d="M1031.1 808.2L1030.9 808.1H1030.7C1029.9 808.3 1029.1 808.5 1028.4 808.7C1027.6 809 1026.7 809.3 1025.9 809.6C1017.9 813.3 1012.5 821.4 1012.5 830.5V863.6C1012.5 866.7 1014 869.5 1016.2 871.2C1016.7 871.6 1017.2 871.9 1017.8 872.2C1019.1 872.9 1020.6 873.2 1022.2 873.2H1039.6C1044.9 873.2 1049.3 868.8 1049.3 863.5V830.4C1049.3 819.8 1041.6 810.4 1031.1 808.2ZM1047.2 863.7C1047.2 867.9 1043.8 871.3 1039.6 871.3H1022.2C1018 871.3 1014.6 867.9 1014.6 863.7V830.6C1014.6 820.9 1021.4 812.3 1030.9 810.2C1031 810.2 1031.1 810.3 1031.2 810.3C1031.3 810.3 1031.4 810.4 1031.5 810.4C1031.7 810.5 1032 810.5 1032.2 810.6C1032.3 810.6 1032.3 810.6 1032.4 810.6C1032.7 810.7 1033 810.8 1033.2 810.9C1033.5 811 1033.7 811.1 1034 811.2C1034.3 811.3 1034.5 811.4 1034.8 811.6C1035 811.7 1035.2 811.8 1035.4 811.9C1035.5 812 1035.7 812 1035.8 812.1C1036 812.2 1036.3 812.4 1036.5 812.5C1036.7 812.6 1037 812.8 1037.3 812.9C1037.5 813.1 1037.8 813.2 1038 813.4C1038.3 813.6 1038.6 813.8 1038.8 814C1039 814.1 1039.2 814.3 1039.4 814.4C1040.1 815 1040.7 815.6 1041.3 816.2C1041.5 816.4 1041.7 816.6 1041.9 816.8C1042.1 817 1042.3 817.2 1042.5 817.5C1042.7 817.7 1042.9 817.9 1043 818.2C1043.2 818.4 1043.3 818.7 1043.5 818.9C1043.8 819.4 1044.1 819.9 1044.4 820.4C1044.5 820.6 1044.7 820.9 1044.8 821.2C1045.2 822 1045.6 822.8 1045.8 823.6C1045.9 823.9 1046 824.2 1046.1 824.4C1046.1 824.5 1046.1 824.6 1046.2 824.7C1046.3 825.1 1046.4 825.4 1046.5 825.8C1046.5 825.9 1046.6 826 1046.6 826.2C1046.9 827.6 1047.1 829.1 1047.1 830.7V863.7H1047.2Z" fill="black"/>
<path d="M1112.6 830.6V863.7C1112.6 868.5 1108.7 872.4 1103.9 872.4H1077.4C1072.6 872.4 1068.7 868.5 1068.7 863.7V830.6C1068.7 818.5 1078.5 808.7 1090.6 808.7C1092.2 808.7 1093.7 808.9 1095.1 809.2C1105.2 811.3 1112.6 820.1 1112.6 830.6Z" fill="#FB6337"/>
<path d="M1095.5 808.2C1095.4 808.2 1095.3 808.2 1095.3 808.2C1093.8 807.9 1092.3 807.7 1090.8 807.7C1078.2 807.7 1067.9 818 1067.9 830.6V863.7C1067.9 869.1 1072.3 873.4 1077.6 873.4H1104C1109.4 873.4 1113.7 869 1113.7 863.7V830.6C1113.7 819.8 1106 810.4 1095.5 808.2ZM1111.6 863.7C1111.6 867.9 1108.2 871.3 1104 871.3H1077.5C1073.3 871.3 1069.9 867.9 1069.9 863.7V830.6C1069.9 819.3 1079 810 1090.3 809.7C1090.4 809.7 1090.6 809.7 1090.8 809.7C1091.5 809.7 1092.2 809.7 1092.9 809.8C1093.7 809.9 1094.4 810 1095.1 810.1C1095.2 810.1 1095.2 810.1 1095.3 810.1C1095.5 810.2 1095.8 810.2 1096 810.3C1096.3 810.4 1096.6 810.5 1096.9 810.6C1097.2 810.7 1097.4 810.8 1097.7 810.9C1099.5 811.5 1101.1 812.4 1102.7 813.5C1102.9 813.6 1103.1 813.8 1103.3 813.9C1104.2 814.6 1105.1 815.4 1105.9 816.2C1106.1 816.4 1106.3 816.6 1106.5 816.8C1107.3 817.7 1108 818.6 1108.6 819.6C1108.9 820.1 1109.2 820.6 1109.5 821.1C1109.6 821.4 1109.8 821.6 1109.9 821.9C1110.1 822.4 1110.4 823 1110.6 823.5C1110.7 823.8 1110.8 824.1 1110.9 824.3C1110.9 824.4 1111 824.5 1111 824.6C1111.1 825 1111.2 825.3 1111.3 825.7C1111.3 825.8 1111.4 825.9 1111.4 826.1C1111.7 827.5 1111.9 829 1111.9 830.6V863.7H1111.6Z" fill="black"/>
<path d="M1112.6 830.6V863.7C1112.6 868.5 1108.7 872.4 1103.9 872.4H1086.5C1081.7 872.4 1077.8 868.5 1077.8 863.7V830.6C1077.8 820.1 1085.2 811.3 1095.2 809.2C1105.2 811.3 1112.6 820.1 1112.6 830.6Z" fill="black"/>
<path d="M1095.5 808.2L1095.3 808.1H1095.1C1094.3 808.3 1093.5 808.5 1092.7 808.7C1091.9 809 1091.1 809.3 1090.3 809.7C1082.3 813.4 1076.9 821.5 1076.9 830.6V863.7C1076.9 866.8 1078.4 869.6 1080.6 871.3C1081.1 871.7 1081.6 872 1082.2 872.3C1083.5 873 1085 873.3 1086.6 873.3H1104C1109.4 873.3 1113.7 868.9 1113.7 863.6V830.5C1113.7 819.8 1106 810.4 1095.5 808.2ZM1111.6 863.7C1111.6 867.9 1108.2 871.3 1104 871.3H1086.6C1082.4 871.3 1079 867.9 1079 863.7V830.6C1079 820.9 1085.8 812.3 1095.3 810.2C1095.5 810.3 1095.8 810.3 1096 810.4C1096.3 810.5 1096.6 810.6 1096.9 810.7C1097.2 810.8 1097.4 810.9 1097.7 811C1099.5 811.6 1101.1 812.5 1102.7 813.6C1102.9 813.7 1103.1 813.9 1103.3 814C1104.2 814.7 1105.1 815.5 1105.9 816.3C1106.1 816.5 1106.3 816.7 1106.5 816.9C1107.3 817.8 1108 818.7 1108.6 819.7C1108.9 820.2 1109.2 820.7 1109.5 821.2C1109.6 821.5 1109.8 821.7 1109.9 822C1110.1 822.5 1110.4 823.1 1110.6 823.6C1110.7 823.9 1110.8 824.2 1110.9 824.4C1110.9 824.5 1111 824.6 1111 824.7C1111.1 825.1 1111.2 825.4 1111.3 825.8C1111.3 825.9 1111.4 826 1111.4 826.2C1111.7 827.6 1111.9 829.1 1111.9 830.7V863.7H1111.6Z" fill="black"/>
<path d="M1177.1 830.6V863.7C1177.1 868.5 1173.2 872.4 1168.4 872.4H1141.9C1137.1 872.4 1133.2 868.5 1133.2 863.7V830.6C1133.2 818.5 1143 808.7 1155.1 808.7C1156.7 808.7 1158.2 808.9 1159.6 809.2C1169.6 811.3 1177.1 820.1 1177.1 830.6Z" fill="#FB6337"/>
<path d="M1159.9 808.2L1159.7 808.1C1158.2 807.8 1156.7 807.7 1155.2 807.7C1142.6 807.7 1132.3 818 1132.3 830.6V863.7C1132.3 869.1 1136.7 873.4 1142 873.4H1168.5C1173.9 873.4 1178.2 869 1178.2 863.7V830.6C1178.1 819.8 1170.5 810.4 1159.9 808.2ZM1176 863.7C1176 867.9 1172.6 871.3 1168.4 871.3H1141.9C1137.7 871.3 1134.3 867.9 1134.3 863.7V830.6C1134.3 819.3 1143.4 810 1154.7 809.7C1154.8 809.7 1155 809.7 1155.2 809.7C1155.9 809.7 1156.6 809.7 1157.3 809.8C1158.1 809.9 1158.8 810 1159.5 810.1C1159.6 810.1 1159.6 810.1 1159.7 810.1C1159.9 810.2 1160.2 810.2 1160.4 810.3C1160.7 810.4 1161 810.5 1161.3 810.6C1161.6 810.7 1161.8 810.8 1162.1 810.9C1163.9 811.5 1165.6 812.4 1167.1 813.5C1167.3 813.6 1167.5 813.8 1167.7 813.9C1168.6 814.6 1169.5 815.4 1170.3 816.2C1170.5 816.4 1170.7 816.6 1170.9 816.8C1171.7 817.7 1172.3 818.6 1173 819.6C1173.3 820.1 1173.6 820.6 1173.9 821.1C1174 821.4 1174.2 821.6 1174.3 821.9C1174.5 822.4 1174.8 823 1175 823.5C1175.1 823.8 1175.2 824.1 1175.3 824.3C1175.3 824.4 1175.4 824.5 1175.4 824.6C1175.5 825 1175.6 825.3 1175.7 825.7C1175.7 825.8 1175.8 825.9 1175.8 826.1C1176.1 827.5 1176.3 829 1176.3 830.6V863.7H1176Z" fill="black"/>
<path d="M1177.1 830.6V863.7C1177.1 868.5 1173.2 872.4 1168.4 872.4H1151C1146.2 872.4 1142.3 868.5 1142.3 863.7V830.6C1142.3 820.1 1149.7 811.3 1159.7 809.2C1169.6 811.3 1177.1 820.1 1177.1 830.6Z" fill="black"/>
<path d="M1159.9 808.2L1159.7 808.1L1159.5 808.2C1158.7 808.4 1157.9 808.6 1157.1 808.8C1156.3 809.1 1155.5 809.4 1154.7 809.8C1146.7 813.5 1141.3 821.6 1141.3 830.7V863.8C1141.3 866.9 1142.8 869.7 1145 871.4C1145.5 871.8 1146 872.1 1146.6 872.4C1147.9 873.1 1149.4 873.4 1151 873.4H1168.4C1173.8 873.4 1178.1 869 1178.1 863.7V830.6C1178.1 819.8 1170.5 810.4 1159.9 808.2ZM1176 863.7C1176 867.9 1172.6 871.3 1168.4 871.3H1151C1146.8 871.3 1143.4 867.9 1143.4 863.7V830.6C1143.4 820.9 1150.3 812.3 1159.7 810.2C1159.9 810.3 1160.2 810.3 1160.4 810.4C1160.7 810.5 1161 810.6 1161.3 810.7C1161.6 810.8 1161.8 810.9 1162.1 811C1163.9 811.6 1165.6 812.5 1167.1 813.6C1167.3 813.7 1167.5 813.9 1167.7 814C1168.6 814.7 1169.5 815.5 1170.3 816.3C1170.5 816.5 1170.7 816.7 1170.9 816.9C1171.7 817.8 1172.3 818.7 1173 819.7C1173.3 820.2 1173.6 820.7 1173.9 821.2C1174 821.5 1174.2 821.7 1174.3 822C1174.5 822.5 1174.8 823.1 1175 823.6C1175.1 823.9 1175.2 824.2 1175.3 824.4C1175.3 824.5 1175.4 824.6 1175.4 824.7C1175.5 825.1 1175.6 825.4 1175.7 825.8C1175.7 825.9 1175.8 826 1175.8 826.2C1176.1 827.6 1176.3 829.1 1176.3 830.7V863.7H1176Z" fill="black"/>
</svg>
