<svg xmlns="http://www.w3.org/2000/svg" fill="none" viewBox="0 0 1440 840"><path fill="#FDD3D1" d="M1440 360.3H0v841.4h1440V360.3z"/><path fill="#2EAD72" stroke="#000" stroke-linecap="round" stroke-linejoin="round" stroke-miterlimit="10" stroke-width="2" d="M1341.3 743.8c-10.3 0-18.8-8.4-18.8-18.8v-11.2c0-10.3 8.4-18.8 18.8-18.8 10.3 0 18.8 8.4 18.8 18.8V725c-.1 10.4-8.5 18.8-18.8 18.8z"/><path fill="#2EAD72" stroke="#000" stroke-linecap="round" stroke-linejoin="round" stroke-miterlimit="10" stroke-width="2" d="M1346.9 789.5h-11.2c-10.3 0-18.8-8.4-18.8-18.8v-11.2c0-10.3 8.4-18.8 18.8-18.8h11.2c10.3 0 18.8 8.4 18.8 18.8v11.2c-.1 10.4-8.5 18.8-18.8 18.8z"/><path fill="#022C25" stroke="#000" stroke-miterlimit="10" stroke-width="2" d="M902.2 1201.7s58.9-133.3 174.2-162.7c115.3-29.4 135.8-133.3 210.1-222.8 74.3-89.6 153.5-111.3 153.5-111.3v496.9H902.2v-.1zM99.5 801.7c18.557 0 33.6-15.043 33.6-33.6 0-18.557-15.043-33.6-33.6-33.6-18.556 0-33.6 15.043-33.6 33.6 0 18.557 15.044 33.6 33.6 33.6z"/><path fill="#2EAD72" stroke="#000" stroke-linecap="round" stroke-linejoin="round" stroke-miterlimit="10" stroke-width="2" d="M57.6 765.2c18.557 0 33.6-15.043 33.6-33.6 0-18.557-15.043-33.6-33.6-33.6-18.557 0-33.6 15.043-33.6 33.6 0 18.557 15.043 33.6 33.6 33.6z"/><path fill="#24AE70" d="M833 0v87.2c0 20.5-16.6 37-37 37H608.9c-20.5 0-37-16.6-37-37V0"/><path fill="#fff" d="M654.1 87h.5l-.9 4.8h2.9l-.1.5H653l1.1-5.3zM658.2 87h.5l-.4 2h-.4l.3-2zM663.2 88.3l-.8 3.9h-.4l.1-.6c-.2.2-.4.4-.7.5-.3.1-.5.2-.9.2-.3 0-.6-.1-.9-.2-.3-.1-.5-.3-.6-.6-.1-.3-.2-.5-.2-.9s.1-.8.3-1.2c.2-.4.5-.6.8-.8.3-.2.7-.3 1.1-.3.4 0 .7.1.9.2.3.1.4.4.6.6l.2-.8h.5zm-1.7 3.3c.3-.2.5-.4.6-.7.1-.3.2-.6.2-.9 0-.4-.1-.7-.3-.9-.2-.2-.5-.3-1-.3-.3 0-.6.1-.9.2-.3.2-.5.4-.6.7-.1.3-.2.6-.2.9 0 .4.1.7.3.9.2.2.5.3 1 .3.4 0 .7-.1.9-.2zM667.5 88.5c.3.1.5.3.6.6.1.2.2.5.2.9s-.1.8-.3 1.2c-.2.4-.5.6-.8.8-.3.2-.7.3-1.1.3-.4 0-.7-.1-.9-.2-.3-.1-.4-.4-.6-.6l-.4 2.3h-.5l1.1-5.4h.5l-.1.6c.2-.2.4-.4.7-.5.3-.1.5-.2.9-.2.2 0 .5 0 .7.2zm-.5 3.1c.3-.2.5-.4.6-.7.1-.3.2-.6.2-.9 0-.4-.1-.7-.3-.9-.2-.2-.5-.3-1-.3-.3 0-.6.1-.9.2-.3.2-.5.4-.6.7-.1.3-.2.6-.2 1s.1.7.3.9c.2.2.5.3 1 .3l.9-.3zM672.6 88.5c.3.1.5.3.6.6.1.2.2.5.2.9s-.1.8-.3 1.2c-.2.4-.5.6-.8.8-.3.2-.7.3-1.1.3-.4 0-.7-.1-.9-.2-.3-.1-.4-.4-.6-.6l-.4 2.3h-.5l1.1-5.4h.5l-.1.6c.2-.2.4-.4.7-.5.3-.1.5-.2.9-.2.1 0 .4 0 .7.2zm-.5 3.1c.3-.2.5-.4.6-.7.1-.3.2-.6.2-.9 0-.4-.1-.7-.3-.9-.2-.2-.5-.3-1-.3-.3 0-.6.1-.9.2-.3.2-.5.4-.6.7-.1.3-.2.6-.2 1s.1.7.3.9c.2.2.5.3 1 .3l.9-.3zM675.2 86.7h.5l-1.1 5.5h-.5l1.1-5.5zM676.9 88.3h.5l-.8 3.9h-.5l.8-3.9zm.2-1c-.1-.1-.1-.2-.1-.2 0-.1 0-.2.1-.3.1-.1.2-.1.3-.1.1 0 .2 0 .3.1.1.1.1.1.1.2s0 .2-.1.3c-.1.1-.2.1-.3.1-.1 0-.2 0-.3-.1zM684.4 88.3l-.8 3.9h-.5l.1-.6c-.2.2-.4.4-.7.5-.3.1-.5.2-.9.2-.3 0-.6-.1-.9-.2-.3-.1-.5-.3-.6-.6-.1-.3-.2-.5-.2-.9s.1-.8.3-1.2c.2-.4.5-.6.8-.8.3-.2.7-.3 1.1-.3.4 0 .7.1.9.2.3.1.4.4.6.6l.2-.8h.6zm-1.7 3.3c.3-.2.5-.4.6-.7.1-.3.2-.6.2-.9 0-.4-.1-.7-.3-.9-.2-.2-.5-.3-1-.3-.3 0-.6.1-.9.2-.3.2-.5.4-.6.7-.1.3-.2.6-.2.9 0 .4.1.7.3.9.2.2.5.3 1 .3.4 0 .7-.1.9-.2zM689.2 88.3l-2.5 3.9h-.5l-1-3.9h.5l.8 3.4 2.1-3.4h.6zM689.6 90.4v.2c0 .4.1.7.3.9.2.2.6.3 1 .3.3 0 .5 0 .7-.1.2-.1.4-.2.6-.4l.2.4c-.2.2-.4.3-.7.4-.3.1-.6.2-.9.2-.6 0-1-.1-1.3-.4-.3-.3-.5-.7-.5-1.2 0-.4.1-.8.3-1.2.2-.4.4-.6.8-.8.3-.2.7-.3 1.1-.3.5 0 .9.1 1.2.4.3.3.5.7.5 1.2 0 .1 0 .3-.1.5h-3.2v-.1zm.6-1.3c-.3.2-.5.6-.6.9h2.8v-.1c0-.4-.1-.7-.3-.9-.2-.2-.5-.3-.9-.3s-.7.1-1 .4zM694.4 92.1c-.3-.1-.5-.3-.6-.6-.1-.3-.2-.5-.2-.9s.1-.8.3-1.2c.2-.4.5-.6.8-.8.3-.2.7-.3 1.2-.3.4 0 .7.1.9.2.3.1.5.3.6.6l-.4.3c-.2-.4-.6-.6-1.1-.6-.3 0-.6.1-.9.2-.3.2-.5.4-.6.7-.1.3-.2.6-.2.9 0 .4.1.7.3.9.2.2.5.3 1 .3.3 0 .5 0 .7-.1.2-.1.4-.2.5-.4l.4.3c-.2.2-.4.4-.7.5-.3.1-.6.2-.9.2-.5 0-.8-.1-1.1-.2zM704.1 88.3l-1.1 5.4h-.5l.4-2c-.2.2-.4.4-.7.5-.3.1-.5.2-.8.2-.3 0-.6-.1-.9-.2-.3-.1-.5-.3-.6-.6-.1-.3-.2-.5-.2-.9s.1-.8.3-1.2c.2-.4.5-.6.8-.8.3-.2.7-.3 1.1-.3.4 0 .7.1 1 .2.3.2.4.4.6.7l.2-.9h.4v-.1zm-1.7 3.3c.3-.2.5-.4.6-.7.1-.3.2-.6.2-.9 0-.4-.1-.7-.3-.9-.2-.2-.5-.3-1-.3-.3 0-.6.1-.9.2-.3.2-.5.4-.6.7-.1.3-.2.6-.2.9 0 .4.1.7.3.9.2.2.5.3 1 .3.4 0 .7-.1.9-.2zM709.2 88.3l-.8 3.9h-.5l.1-.6c-.4.4-.9.7-1.5.7-.4 0-.8-.1-1-.3-.2-.2-.4-.5-.4-.9v-.4l.4-2.2h.5l-.4 2.2v.4c0 .3.1.5.3.7.2.2.4.2.8.2s.8-.1 1-.4c.3-.2.5-.6.6-1l.4-2.1h.5v-.2zM710.6 88.3h.5l-.8 3.9h-.5l.8-3.9zm.3-1c-.1-.1-.1-.2-.1-.2 0-.1 0-.2.1-.3.1-.1.2-.1.3-.1.1 0 .2 0 .3.1.1.1.1.1.1.2s0 .2-.1.3c-.1.1-.2.1-.3.1-.2 0-.3 0-.3-.1zM714.7 91v.2c0 .3.2.5.6.5.2 0 .4-.1.6-.2l.1.5c-.2.2-.5.3-.9.3-.3 0-.5-.1-.7-.2-.2-.1-.3-.4-.3-.7v-.3l.5-2.3h-.7l.1-.4h.7l.2-.9h.5l-.2.9h1.2l-.1.4h-1.2l-.4 2.2zM717.5 92.1c-.3-.1-.5-.3-.6-.6-.1-.3-.2-.5-.2-.9s.1-.8.3-1.2c.2-.4.5-.6.8-.8.3-.2.7-.3 1.2-.3s1 .1 1.3.4c.3.3.5.7.5 1.2 0 .4-.1.8-.3 1.2-.2.4-.5.6-.8.8-.3.2-.7.3-1.2.3-.4.1-.7 0-1-.1zm1.9-.5c.3-.2.5-.4.6-.7.1-.3.2-.6.2-.9 0-.4-.1-.7-.3-.9-.2-.2-.5-.3-1-.3-.3 0-.6.1-.9.2-.3.2-.5.4-.6.7-.1.3-.2.6-.2.9 0 .4.1.7.3.9.2.2.5.3 1 .3.3 0 .6-.1.9-.2zM725.7 88.3l-.8 3.9h-.5l.1-.6c-.4.4-.9.7-1.5.7-.4 0-.8-.1-1-.3-.2-.2-.4-.5-.4-.9v-.4l.4-2.2h.5l-.4 2.2v.4c0 .3.1.5.3.7.2.2.4.2.8.2s.8-.1 1-.4c.3-.2.5-.6.6-1l.4-2.1h.5v-.2zM727.3 91v.2c0 .3.2.5.6.5.2 0 .4-.1.6-.2l.1.4c-.2.2-.5.3-.9.3-.3 0-.5-.1-.7-.2-.2-.2-.3-.4-.3-.7V91l.5-2.3h-.7l.1-.4h.7l.2-.9h.5l-.2.9h1.2l-.1.4h-1.2l-.4 2.3zM733.2 88.5c.3-.1.6-.2 1-.2l-.1.5h-.1c-.4 0-.8.1-1 .4-.3.2-.5.6-.5 1.1l-.4 2h-.5l.8-3.9h.5l-.1.7c0-.3.2-.5.4-.6zM735.1 92.1c-.3-.1-.5-.3-.6-.6-.1-.3-.2-.5-.2-.9s.1-.8.3-1.2c.2-.4.5-.6.8-.8.3-.2.7-.3 1.2-.3s1 .1 1.3.4c.3.3.5.7.5 1.2 0 .4-.1.8-.3 1.2-.2.4-.5.6-.8.8-.3.2-.7.3-1.2.3-.4.1-.7 0-1-.1zm1.9-.5c.3-.2.5-.4.6-.7.1-.3.2-.6.2-.9 0-.4-.1-.7-.3-.9-.2-.2-.5-.3-1-.3-.3 0-.6.1-.9.2-.3.2-.5.4-.6.7-.1.3-.2.6-.2.9 0 .4.1.7.3.9.2.2.5.3 1 .3.4 0 .6-.1.9-.2zM743.4 88.3l-.8 3.9h-.5l.1-.6c-.4.4-.9.7-1.5.7-.4 0-.8-.1-1-.3-.2-.2-.4-.5-.4-.9v-.4l.4-2.2h.5l-.4 2.2v.4c0 .3.1.5.3.7.2.2.4.2.8.2s.8-.1 1-.4c.3-.2.5-.6.6-1l.4-2.1h.5v-.2zM745.2 86.7h.5l-1.1 5.5h-.5l1.1-5.5zM746.6 90.4v.2c0 .4.1.7.3.9.2.2.6.3 1 .3.3 0 .5 0 .7-.1.2-.1.4-.2.6-.4l.2.4c-.2.2-.4.3-.7.4-.3.1-.6.2-.9.2-.6 0-1-.1-1.3-.4-.3-.3-.5-.7-.5-1.2 0-.4.1-.8.3-1.2.2-.4.4-.6.8-.8.3-.2.7-.3 1.1-.3.5 0 .9.1 1.2.4.3.3.5.7.5 1.2 0 .1 0 .3-.1.5h-3.2v-.1zm.6-1.3c-.3.2-.5.6-.6.9h2.8v-.1c0-.4-.1-.7-.3-.9-.2-.2-.5-.3-.9-.3s-.7.1-1 .4zM628.4 56.4c.1 0 .4-.1.5-.1.3-.1.8-.4 1.2-.3.3 0 .6.2.7.4.1.2.2.3.2.5 0 .3-.2.6-.4.7-.7.6-1.6.9-2.5 1.4-.5.3-1.1.6-1.2 1-.6 2.4-1.2 4.9-1.6 7.4-.1.8 0 1.6.4 2.4.4.7 1.2 1 2 .7.1-.1.3-.1.5-.2.5-.3.9-.7 1.3-1.1 2.1-2.5 4.2-5 6.1-7.7 3.8-5.3 7.4-10.9 11.2-16.2 1.6-2.3 3.6-4.3 6.2-5.4.7-.3 1.5-.4 2.3-.4.5 0 .9.2 1.1.6.1.2.1.4 0 .5-.2.3-.4.6-.7.7-2.7.7-4.7 1.9-6.2 3.9-3.8 5.1-7.4 10.4-11.1 15.6-2.2 3.1-4.5 6.2-6.8 9.3-.7.9-1.7 1.7-2.7 2.3-2.4 1.5-5 .4-5.8-2.3-.7-2.5-.1-4.8.4-7.2.1-.6.3-1.3.6-1.9.4-.9.3-1.5-.6-1.8-6.3-2.2-8.2-6.4-5.8-12.6 1.4-3.5 3.3-6.6 6.9-8 3.3-1.3 8.4.3 8.1 5.5-.2 3.2-1.6 5.9-2.8 8.7-.3.9-.9 2.3-1.5 3.6zm2.2-11.9c.2-.7.3-1.4.1-2.1-.3-1.2-1.2-1.9-2.6-2.2-1.7-.4-3.1.1-4.3 1.2-2.7 2.4-4.2 5.4-4.6 9-.4 3.2 1.2 5.4 4.3 6.5 1.7.6 2.2.4 2.9-1.3.7-1.5 1.4-2.9 2-4.4.7-1.9 1.8-5.2 2.2-6.7zM680 49.2a1.9 1.9 0 1 0 0-3.8 1.9 1.9 0 0 0 0 3.8zM661.6 45l-6.2 2.6c-.4.2-.9 0-1.1-.4-.2-.4 0-.9.4-1.1l6.2-2.6c.4-.2.9 0 1.1.4.2.4 0 .9-.4 1.1zM701.199 56.1h-10.9c-.5 0-.9.4-.9.9s.4.9.9.9h10.9c.5 0 .9-.4.9-.9s-.4-.9-.9-.9z"/><path fill="#fff" d="M683.9 58.5c-.8-.6-1.4.1-1.9.7-1.4 1.8-2.8 3.7-4.3 5.5-1.1 1.2-2.2 2.5-3.6 3.4-1.9 1.2-3.7.2-3.5-2 .1-1.3.4-2.7 1-3.8 1.9-3.2 4-6.3 5.9-9.5.5-.8 1.5-1.7.3-2.4-1.1-.7-1.5.6-2 1.2-.4.5-.8 1.1-1.2 1.6-2.7 3.8-5.3 7.5-8.2 11.4-1 1.4-2.2 2.5-3.6 3.4-1.9 1.3-3.6.2-3.5-2.1 0-.8.1-1.6.5-2.3 1-2 2-3.9 3.2-5.8 2.8-4.3 5.6-8.5 8.5-12.8 1.9-2.9 3.8-5.7 5.7-8.7.1-.1.1-.2.1-.3.1-.7-.7-1.2-1.3-1-.1 0-.3.1-.4.1-.3.1-.4.5-.6.8-1.9 2.8-3.7 5.7-5.6 8.5-4.4 6.4-8.7 12.9-13.3 19.2-1.3 1.7-3.1 3.2-5 4.2-1.1.6-2.9.5-4.2 0-2.4-.9-2.6-5.4-.4-6.9.2-.2.6-.2.9-.1 5.4 1.7 9.4-1.6 11.3-5.8 1.2-2.5-.1-5-2.6-5-1.2 0-2.6.5-3.7 1.2-4.1 2.8-7.1 6.5-9 11.1-1.6 3.7.3 7.3 4.2 8.1 2.8.6 5.1-.5 7.2-2.3.3-.3.7-.6 1-.9.5-.4 1.2-.4 1.6.2.7 1 1.3 2 2.2 2.6 1.9 1.3 4.2.6 6.4-1.5l1.2-1.2.1-.1c.3-.3.9-.3 1.2.1.1.1.2.3.2.3 1.4 2.5 3.3 3.7 6 2.5 1.1-.5 2.2-1.3 3-2.2 2.1-2.4 4-5 6-7.5.5-.5 1-1.3.2-1.9zm-35.1-.7c1.6-2 3.3-4 5.7-5.1.2-.1.3-.1.5-.1 1-.1 1.8.8 1.7 1.7 0 .2-.1.3-.1.4-.4.7-1.7 2.7-2.8 3.4-1.4.9-3.2 1.2-4.8.6-.4-.1-.5-.5-.2-.9zm35.1.7c-.8-.6-1.4.1-1.9.7-1.4 1.8-2.8 3.7-4.3 5.5-1.1 1.2-2.2 2.5-3.6 3.4-1.9 1.2-3.7.2-3.5-2 .1-1.3.4-2.7 1-3.8 1.9-3.2 4-6.3 5.9-9.5.5-.8 1.5-1.7.3-2.4-1.1-.7-1.5.6-2 1.2-3.1 4.3-5.9 8.9-9.3 13-.9 1.1-1.9 2.1-2.9 2.9-.2.2-.4.3-.6.5-1.9 1.3-3.6.2-3.5-2.1 0-.8.1-1.6.5-2.3 1-2 2-3.9 3.2-5.8 2.8-4.3 5.6-8.5 8.5-12.8 1.9-2.9 3.8-5.7 5.7-8.7.1-.1.1-.2.1-.3.1-.7-.7-1.2-1.3-1-.1 0-.3.1-.4.1-.3.1-.4.5-.6.8-1.9 2.8-3.7 5.7-5.6 8.5-4.4 6.4-8.7 12.9-13.3 19.2-1.3 1.7-3.1 3.2-5 4.2-1.1.6-2.9.5-4.2 0-2.4-.9-2.6-5.4-.4-6.9.2-.2.6-.2.9-.1 5.4 1.7 9.4-1.6 11.3-5.8 1.2-2.5-.1-5-2.6-5-1.2 0-2.6.5-3.7 1.2-4.1 2.8-7.1 6.5-9 11.1-1.6 3.7.3 7.3 4.2 8.1 2.8.6 5.1-.5 7.2-2.3.3-.3.7-.6 1-.9.5-.4 1.2-.4 1.6.2.7 1 1.3 2 2.2 2.6 1.9 1.3 4.2.6 6.4-1.5l1.2-1.2.1-.1c.3-.3.9-.3 1.2.1.1.1.2.3.2.3 1.4 2.5 3.3 3.7 6 2.5 1.1-.5 2.2-1.3 3-2.2 2.1-2.4 4-5 6-7.5.3-.5.8-1.3 0-1.9zm-35.1-.7c1.6-2 3.3-4 5.7-5.1.2-.1.3-.1.5-.1 1-.1 1.8.8 1.7 1.7 0 .2-.1.3-.1.4-.4.7-1.7 2.7-2.8 3.4-1.4.9-3.2 1.2-4.8.6-.4-.1-.5-.5-.2-.9zm35.1.7c-.8-.6-1.4.1-1.9.7-1.4 1.8-2.8 3.7-4.3 5.5-1.1 1.2-2.2 2.5-3.6 3.4-1.9 1.2-3.7.2-3.5-2 .1-1.3.4-2.7 1-3.8 1.9-3.2 4-6.3 5.9-9.5.5-.8 1.5-1.7.3-2.4-1.1-.7-1.5.6-2 1.2-.4.5-.8 1.1-1.2 1.6-2.7 3.8-5.4 7.6-8.2 11.4-.6.8-1.4 1.6-2.2 2.3l-.1.1c-.2.2-.4.3-.6.5-.2.2-.4.3-.7.5-1.9 1.3-3.6.2-3.5-2.1 0-.8.1-1.6.5-2.3 1-2 2-3.9 3.2-5.8 2.8-4.3 5.6-8.5 8.5-12.8 1.9-2.9 3.8-5.7 5.7-8.7.1-.1.1-.2.1-.3.1-.7-.7-1.2-1.3-1-.1 0-.3.1-.4.1-.3.1-.4.5-.6.8-1.9 2.8-3.7 5.7-5.6 8.5-4.4 6.4-8.7 12.9-13.3 19.2-1.3 1.7-3.1 3.2-5 4.2-1.1.6-2.9.5-4.2 0-2.4-.9-2.6-5.4-.4-6.9.2-.2.6-.2.9-.1 5.4 1.7 9.4-1.6 11.3-5.8 1.2-2.5-.1-5-2.6-5-1.2 0-2.6.5-3.7 1.2-4.1 2.8-7.1 6.5-9 11.1-1.6 3.7.3 7.3 4.2 8.1 2.8.6 5.1-.5 7.2-2.3.3-.3.7-.6 1-.9.5-.4 1.2-.4 1.6.2.7 1 1.3 2 2.2 2.6 1.9 1.3 4.2.6 6.4-1.5l1.2-1.2.1-.1c.3-.3.9-.3 1.2.1.1.1.2.3.2.3 1.4 2.5 3.3 3.7 6 2.5 1.1-.5 2.2-1.3 3-2.2 2.1-2.4 4-5 6-7.5.5-.5 1-1.3.2-1.9zm-35.1-.7c1.6-2 3.3-4 5.7-5.1.2-.1.3-.1.5-.1 1-.1 1.8.8 1.7 1.7 0 .2-.1.3-.1.4-.4.7-1.7 2.7-2.8 3.4-1.4.9-3.2 1.2-4.8.6-.4-.1-.5-.5-.2-.9zM783.099 61c3-5.5 6.2-10.9 9.3-16.3.3-.6.7-1.2-.1-1.7-.8-.5-1.2.2-1.6.8-.1.1-.1.3-.2.4-1.7 3.1-3.5 6.1-5.2 9.2-.3.5-.9.5-1.3.1-1.5-1.6-3.3-1.9-5.3-.8-1.7.9-3.1 2.2-4.3 3.7-.4.5-.8 1.1-1.2 1.6l-.6.9c-2.1 3.3-2.7 5.9-2.8 7.2-.1.5 0 1.1.2 1.6 1 3 3.9 4 6.6 2.4l1.2-.9c.5-.4.8-.5 1.2.2.6 1.1 1.6 1.6 2.8 1.5 1-.2 2.2-.5 3-1.1.6-.4 1.1-.8 1.6-1.3.2-.2.4-.3.5-.5 1.5-1.6 2.5-3.5 3.6-5.4l.3-.4c.3-.4.2-1-.3-1.3-.4-.3-1-.2-1.3.3l-.6.8-1.9 2.9c-.5.7-1.1 1.5-1.6 2.2-.7.8-1.7 1.5-2.7 1.9-1.5.6-2.4-.3-1.9-1.8.7-2.3 1.6-4.3 2.6-6.2zm-3.7 2.7c-.9 1.6-2.1 3-3.3 4.3-.6.6-1.7.9-2.5.9-.7 0-1.2-.4-1.6-.9-.2-.3-.3-.7-.4-1.1v-.7c0-.3 0-.6.1-1 0-.1 0-.3.1-.4.2-.9.5-1.7.9-2.5.3-.6.6-1.1.9-1.7 1.1-2 2.6-3.8 4.4-5.3.7-.5 1.6-1 2.4-1.2 1.7-.4 2.9.7 2.3 2.4-1 2.4-2.1 4.9-3.3 7.2zM750.499 69.2c-.8-.4-1.1.1-1.4.7-.1.2-.2.3-.3.5-.9 1.8-2.3 2.9-4.2 3.5-4 1.3-7.9.8-11.7-.7-1.9-.8-3.9-1.6-5.8-2.4-.8-.3-1-1.4-.3-1.9.1-.1.2-.1.2-.2.9-.9 1.9-1.8 2.7-2.8 4.3-4.9 7.3-10.6 10.5-16.2.1-.3.4-.4.7-.4h15.3c.5 0 1-.4 1.1-.9.1-.6-.4-1.1-1-1.1h-16.2c-.5 0-.8.2-1.1.7l-3.6 6.3c-2.3 4.1-5.4 7.3-9.9 8.9-2.6.9-5.2 1.1-7.7 0-4.1-1.7-4.8-5.9-3.7-9.8.2-.9.9-.9 1.7-.8 1.9.1 3.8.3 5.7 0 4.5-.6 8.5-2.5 12-5.4 2.3-1.9 4.3-4 5.4-6.9 1.3-3.3-.2-5.8-3.7-6.4-2.4-.4-4.6 0-6.7.9-5.6 2.2-9.9 5.9-13.1 11-.6 1-1.2 2-1.7 3-.1.3-.5.4-.8.2-.2-.1-.4-.2-.6-.4-.1 0-.5-.3-.9-.8-.3-.5-.6-.9-.8-1.4 0-.1-.1-.1-.1-.2-1.1-2.3-.9-4.8-.1-7.4.7-2.1 1.8-3.8 3.3-5.4.4-.5.7-1 .1-1.5s-1.1-.2-1.5.3c-2.7 2.9-4.3 6.3-4.4 10.4 0 1.5.2 2.9.8 4.2 0 0 0 .1.1.1.1.1.1.2.2.4.8 1.5 1.8 2.6 2.9 3.4.5.4.7 1 .6 1.6-.3 1-.5 1.9-.6 2.9-.5 4.3 1.5 8.2 5.5 9.7 2.9 1.2 5.9.9 8.9-.1l1.8-.6c.1.1.1.1.1.2-.2.3-.4.7-.7 1-.6.6-1.2 1.3-1.8 1.9 0 0-.3.2-.7.6-.9.8-2.3 1-3.4.5-1.4-.6-2.9-1.2-4.3-1.8-3.8-1.6-7.7-2.9-11.9-3.1-2.6-.1-5.2.1-7.5 1.5-2.6 1.6-3.5 4.2-2.4 6.7.8 1.8 2.2 2.8 3.9 3.6 4 1.8 8.1 1.6 12.3 1.1 3.1-.4 5.9-1.4 8.7-2.8l.2-.1c.6-.3 1.1-.6 1.7-1 1.1-.7 2.2-.7 3.4-.2 1.4.7 2.9 1.3 4.4 1.9 3.2 1.3 6.5 2.3 10.6 2.4.7-.1 2-.2 3.2-.4 3.1-.7 5.5-2.2 6.9-5.2.3-.8.5-1.4-.3-1.8zm-34.4-20.7c1.3-2.7 3.1-5 5.2-7.1 2.8-2.7 6-4.8 9.9-5.7 1.3-.3 2.6-.3 3.9-.2 2.1.2 2.9 1.7 2.2 3.7-.9 2.3-2.4 4.1-4.2 5.7-4 3.4-8.6 5.4-14.1 5.8-.6-.1-1.3-.1-1.9-.2-1.4-.3-1.6-.8-1-2zm4.3 22.7l-.6.3c-.9.5-1.8 1-2.7 1.3-4 1.6-8.2 2.3-12.4 1.8-1.8-.2-3.6-.9-5.3-1.6-1.6-.6-2.7-1.9-2.5-3.7.2-1.9 1.7-2.9 3.4-3.5 2.4-.8 4.9-.8 7.4-.3 4.3.8 8.3 2.4 12.3 4.2.2.1.4.2.5.3.4.4.3.9-.1 1.2z"/><path fill="#fff" d="M746.699 61.5l-.3-2 .2 1-.2-1s.2 0 .6-.1c3.2-.7 6.2-2.2 8.9-4.4 3.4-2.7 8.4-5 11.2-2.5l-1.4 1.5c-1.6-1.5-5.5.2-8.5 2.5-3 2.4-6.3 4-9.8 4.8-.4.2-.7.2-.7.2z"/><path fill="#fff" d="M745.299 62.8a1.6 1.6 0 1 0 0-3.2 1.6 1.6 0 0 0 0 3.2zM761.9 62.8a1.6 1.6 0 1 0 0-3.201 1.6 1.6 0 0 0 0 3.2z"/><path fill="#fff" d="M768.8 53.1c-1.5-1-3.1-1.2-4.7-.4-1.4.8-2.8 1.7-3.8 2.8-2.6 2.6-4.6 5.7-5.3 9.4-.4 2.3.4 4.6 2.1 5.6 1.4.8 3.2.7 4.8-.2.1 0 .1-.1.2-.1.1-.1.2-.1.3-.2 0 0 1.1-.7 2.3-1.9.4-.3.9-.8 1.5-1.6l1.5-2.1c.1-.2.2-.3.3-.5l.1-.1c1.2-1.9 2.1-4 2.3-6.3.2-1.8-.1-3.4-1.6-4.4zM762 67.8s-1.2 1-2.6 1.1h-.8c-1.3-.2-1.8-1.3-1.7-3 .2-3.3 2.1-5.8 4-8.3 1.1-1.4 2.4-2.6 4.1-3.2 2.1-.8 3.5.2 3.4 2.5 0 2.1-.9 4-1.9 5.7-.9 1.6-2 2.9-3.1 3.9-.5.6-1 1-1.4 1.3zM751.6 53.1c-1.5-1-3.1-1.2-4.7-.4-1.4.8-2.8 1.7-3.8 2.8-2.6 2.6-4.6 5.7-5.3 9.4-.4 2.3.4 4.6 2.1 5.6 1.4.8 3.2.7 4.8-.2.1 0 .1-.1.2-.1.1-.1.2-.1.3-.2 0 0 1.1-.7 2.3-1.9.4-.3.9-.8 1.5-1.6l1.5-2.1c.1-.2.2-.3.3-.5l.1-.1c1.2-1.9 2.1-4 2.3-6.3.2-1.8-.1-3.4-1.6-4.4zm-6.8 14.7s-1.2 1-2.6 1.1h-.8c-1.3-.2-1.8-1.3-1.7-3 .2-3.3 2.1-5.8 4-8.3 1.1-1.4 2.4-2.6 4.1-3.2 2.1-.8 3.5.2 3.4 2.5 0 2.1-.9 4-1.9 5.7-.9 1.6-2 2.9-3.1 3.9-.5.6-1 1-1.4 1.3z"/><path fill="#fff" d="M766.8 53.9c-.1 0-.3 0-.4-.1-.5-.2-.7-.8-.5-1.4l2.2-4.9c.8-1.7 2.5-2.8 4.4-2.8h1.6c.6 0 1 .5 1 1 0 .6-.5 1-1 1h-1.6c-1.1 0-2 .6-2.5 1.6l-2.2 4.9c-.2.5-.6.7-1 .7zM745.5 61.9c-.2 0-.4 0-.5-.1-.5-.3-.7-.9-.4-1.4l4.7-7.9 2-4.3c.2-.5.9-.7 1.4-.5.5.2.7.9.5 1.4l-2.1 4.3v.1l-4.7 8c-.2.2-.6.4-.9.4z"/><path fill="#fff" d="M761.899 61.9c-.2 0-.4 0-.5-.1-.5-.3-.7-.9-.4-1.4l4.7-8c.3-.5.9-.7 1.4-.4.5.3.7.9.4 1.4l-4.7 8c-.2.3-.5.5-.9.5z"/><path fill="#022C25" stroke="#000" stroke-miterlimit="10" stroke-width="2" d="M537.8 1200.9s-58.9-133.1-174.2-162.5C248.3 1009 227.8 905.4 153.5 816 79.2 726.6 0 704.8 0 704.8v496.1h537.8z"/><path fill="#2EAD72" stroke="#000" stroke-linecap="round" stroke-linejoin="round" stroke-miterlimit="10" stroke-width="2" d="M0 772.1C53 869.5 111.8 928 155.8 963.5c52.2 42.1 103.7 68.1 156 136.7 30 39.4 47.8 76.7 58.1 101.5H0V772.1zM1440 772.1c-53 97.4-111.8 155.9-155.8 191.3-52.2 42.1-103.7 68.1-156 136.7-30 39.4-47.8 76.7-58.1 101.5H1440V772.1z"/><path fill="#F0A2BD" stroke="#000" stroke-miterlimit="10" stroke-width="2" d="M589.301 815.5h-346.7v385.8h346.7V815.5z"/><path fill="#F0EADB" d="M538.5 785h14.8c1 0 1.7-.8 1.7-1.7v-5.9c0-1-.8-1.7-1.7-1.7h-14.8v9.3z"/><path fill="#000" d="M550.4 786h-11.9c-.5 0-1-.4-1-1v-9.4c0-.5.4-1 1-1h11.9c3.1 0 5.7 2.5 5.7 5.7s-2.6 5.7-5.7 5.7zm-10.9-2h10.9c2 0 3.7-1.7 3.7-3.7s-1.7-3.7-3.7-3.7h-10.9v7.4z"/><path fill="#F0EADB" d="M538.5 775.7h-34c-1 0-1.7.8-1.7 1.7v5.9c0 1 .8 1.7 1.7 1.7h34v-9.3z"/><path fill="#000" d="M538.5 786h-31.1c-3.1 0-5.7-2.5-5.7-5.7s2.5-5.7 5.7-5.7h31.1c.5 0 1 .4 1 1v9.4c0 .6-.5 1-1 1zm-31.1-9.3c-2 0-3.7 1.7-3.7 3.7s1.7 3.7 3.7 3.7h30.1v-7.4h-30.1z"/><path fill="#F0A2BD" d="M549.5 785h-11v45c0 .8.6 1.4 1.4 1.4h8.2c.8 0 1.4-.6 1.4-1.4v-45z"/><path fill="#000" d="M545.7 832.3h-3.5c-2.6 0-4.7-2.1-4.7-4.7V785c0-.5.4-1 1-1h11c.5 0 1 .4 1 1v42.6c-.1 2.6-2.2 4.7-4.8 4.7zm-6.2-46.3v41.6c0 1.5 1.2 2.7 2.7 2.7h3.5c1.5 0 2.7-1.2 2.7-2.7V786h-8.9z"/><path fill="#FB6337" d="M538.501 785h-29.5v45c0 .8.6 1.4 1.4 1.4h26.7c.8 0 1.4-.6 1.4-1.4v-45z"/><path fill="#000" d="M534.801 832.3h-22c-2.6 0-4.7-2.1-4.7-4.7V785c0-.5.4-1 1-1h29.5c.5 0 1 .4 1 1v42.6c-.1 2.6-2.2 4.7-4.8 4.7zm-24.8-46.3v41.6c0 1.5 1.2 2.7 2.7 2.7h22c1.5 0 2.7-1.2 2.7-2.7V786h-27.4z"/><path fill="#F0EADB" d="M598.3 837.3H232.4c-1.2 0-2.2-1-2.2-2.2v-7.5c0-1.2 1-2.2 2.2-2.2h365.9c1.2 0 2.2 1 2.2 2.2v7.5c0 1.2-1 2.2-2.2 2.2z"/><path fill="#000" d="M594.5 838.3H236.1c-3.8 0-6.9-3.1-6.9-6.9 0-3.8 3.1-6.9 6.9-6.9h358.4c3.8 0 6.9 3.1 6.9 6.9.1 3.8-3.1 6.9-6.9 6.9zm-358.4-11.9c-2.7 0-5 2.2-5 5 0 2.7 2.2 5 5 5h358.4c2.7 0 5-2.2 5-5 0-2.7-2.2-5-5-5H236.1z"/><path fill="#FB6337" d="M595.201 847.4h-357.6c-1 0-1.9-.8-1.9-1.9v-6.3c0-1 .8-1.9 1.9-1.9h357.7c1 0 1.9.8 1.9 1.9v6.3c-.1 1-.9 1.9-2 1.9z"/><path fill="#000" d="M592.101 848.4h-351.3c-3.3 0-6-2.7-6-6s2.7-6 6-6h351.3c3.3 0 6 2.7 6 6s-2.7 6-6 6zm-351.3-10.1c-2.2 0-4.1 1.8-4.1 4.1 0 2.2 1.8 4.1 4.1 4.1h351.3c2.2 0 4.1-1.8 4.1-4.1 0-2.2-1.8-4.1-4.1-4.1h-351.3z"/><path fill="#F0EADB" d="M916.4 737.7h13.2c.8 0 1.5-.7 1.5-1.5v-5.3c0-.8-.7-1.5-1.5-1.5h-13.2v8.3z"/><path fill="#000" d="M930.9 730.3c0-.1 0-.1 0 0 0-.1 0-.1 0 0-.2-.3-.4-.5-.6-.7-.9-.7-2-1.2-3.3-1.2h-10.5c-.6 0-1 .5-1 1v8.3c0 .6.5 1 1 1h10.7c1.2 0 2.2-.5 3.1-1.2l.6-.6c.7-.9 1.2-2.1 1.2-3.3 0-1.2-.4-2.4-1.2-3.3zm-13.5 6.4v-6.2h9.5c1.7 0 3.1 1.4 3.1 3.1 0 1.7-1.4 3.1-3.1 3.1h-9.5z"/><path fill="#F0EADB" d="M916.4 729.4h-30.2c-.8 0-1.5.7-1.5 1.5v5.3c0 .8.7 1.5 1.5 1.5h30.2v-8.3z"/><path fill="#000" d="M916.4 728.4h-27.5c-1.2 0-2.4.4-3.3 1.2-.3.2-.5.4-.7.7v.1c-.7.9-1.1 2-1.1 3.2 0 1.2.4 2.3 1.1 3.2v.1c.2.3.4.5.7.7.9.7 2 1.2 3.3 1.2h27.5c.6 0 1-.5 1-1v-8.3c0-.6-.4-1.1-1-1.1zm-27.5 8.3c-1.7 0-3.1-1.4-3.1-3.1 0-1.7 1.4-3.1 3.1-3.1h26.5v6.2h-26.5z"/><path fill="#F0A2BD" d="M926.099 737.7h-9.7v39.8c0 .6.5 1.2 1.2 1.2h7.4c.6 0 1.2-.5 1.2-1.2v-39.8h-.1z"/><path fill="#000" d="M916.399 738.7v35.7h1v-35.7h-1zm0 0v35.7h1v-35.7h-1zm9.7-2h-9.7c-.6 0-1 .5-1 1v37.7c0 .8.2 1.6.6 2.2.1.1.2.3.3.4 0 .1.1.1.1.2.1.2.3.3.5.5.8.7 1.7 1 2.8 1h3.1c1.1 0 2-.4 2.8-1 .4-.3.6-.6.9-1 .4-.6.6-1.4.6-2.2v-37.7c0-.7-.4-1.1-1-1.1zm-1 38.7c0 1.2-1 2.2-2.2 2.2h-3.1c-1.2 0-2.2-1-2.2-2.2v-36.7h7.6v36.7h-.1zm-8.7-36.7v35.7h1v-35.7h-1z"/><path fill="#FB6337" d="M916.4 737.7h-26.1v39.8c0 .6.5 1.2 1.2 1.2h23.7c.6 0 1.2-.5 1.2-1.2v-39.8z"/><path fill="#000" d="M915.4 775.4c0 1.2-1 2.2-2.3 2.2h2.9c-.4-.6-.6-1.4-.6-2.2zm0 0c0 1.2-1 2.2-2.3 2.2h2.9c-.4-.6-.6-1.4-.6-2.2zm1-38.7h-26.1c-.6 0-1 .5-1 1v37.7c0 .8.2 1.6.6 2.2.2.4.5.8.9 1 .8.7 1.7 1 2.8 1h19.5c1.1 0 2.1-.4 2.8-1 .2-.1.3-.3.5-.5 0-.1.1-.1.1-.2.1-.1.2-.2.3-.4.4-.6.6-1.4.6-2.2v-37.7c0-.5-.4-.9-1-.9zm-1 38.7c0 1.2-1 2.2-2.3 2.2h-19.5c-1.2 0-2.2-1-2.2-2.2v-36.7h24v36.7zm0 0c0 1.2-1 2.2-2.3 2.2h2.9c-.4-.6-.6-1.4-.6-2.2z"/><path fill="#F0EADB" d="M1141.8 737.7h13.2c.8 0 1.5-.7 1.5-1.5v-5.3c0-.8-.7-1.5-1.5-1.5h-13.2v8.3z"/><path fill="#000" d="M1156.3 730.3c0-.1 0-.1 0 0 0-.1 0-.1 0 0-.2-.3-.4-.5-.6-.7-.9-.7-2-1.2-3.3-1.2h-10.5c-.6 0-1 .5-1 1v8.3c0 .6.5 1 1 1h10.7c1.2 0 2.2-.5 3.1-1.2l.6-.6c.7-.9 1.2-2.1 1.2-3.3 0-1.2-.5-2.4-1.2-3.3zm-13.5 6.4v-6.2h9.5c1.7 0 3.1 1.4 3.1 3.1 0 1.7-1.4 3.1-3.1 3.1h-9.5z"/><path fill="#F0EADB" d="M1141.8 729.4h-30.2c-.8 0-1.5.7-1.5 1.5v5.3c0 .8.7 1.5 1.5 1.5h30.2v-8.3z"/><path fill="#000" d="M1141.8 728.4h-27.5c-1.2 0-2.4.4-3.3 1.2-.3.2-.5.4-.7.7v.1c-.7.9-1.2 2-1.2 3.2 0 1.2.4 2.3 1.2 3.2v.1c.2.3.5.5.7.7.9.7 2 1.2 3.3 1.2h27.5c.6 0 1-.5 1-1v-8.3c0-.6-.5-1.1-1-1.1zm-27.6 8.3c-1.7 0-3.1-1.4-3.1-3.1 0-1.7 1.4-3.1 3.1-3.1h26.5v6.2h-26.5z"/><path fill="#F0A2BD" d="M1151.5 737.7h-9.7v39.8c0 .6.5 1.2 1.2 1.2h7.4c.6 0 1.2-.5 1.2-1.2v-39.8h-.1z"/><path fill="#000" d="M1141.8 738.7v35.7h1v-35.7h-1zm0 0v35.7h1v-35.7h-1zm9.7-2h-9.7c-.6 0-1 .5-1 1v37.7c0 .8.2 1.6.6 2.2.1.1.2.3.3.4 0 .1.1.1.1.2.1.2.3.3.5.5.8.7 1.7 1 2.8 1h3.1c1.1 0 2.1-.4 2.8-1 .3-.3.6-.6.9-1 .4-.6.6-1.4.6-2.2v-37.7c0-.7-.5-1.1-1-1.1zm-1.1 38.7c0 1.2-1 2.2-2.2 2.2h-3.1c-1.2 0-2.2-1-2.2-2.2v-36.7h7.6v36.7h-.1zm-8.6-36.7v35.7h1v-35.7h-1z"/><path fill="#FB6337" d="M1141.8 737.7h-26.1v39.8c0 .6.5 1.2 1.2 1.2h23.7c.6 0 1.2-.5 1.2-1.2v-39.8z"/><path fill="#000" d="M1140.7 775.4c0 1.2-1 2.2-2.3 2.2h2.9c-.3-.6-.6-1.4-.6-2.2zm0 0c0 1.2-1 2.2-2.3 2.2h2.9c-.3-.6-.6-1.4-.6-2.2zm1.1-38.7h-26.1c-.6 0-1 .5-1 1v37.7c0 .8.2 1.6.6 2.2.2.4.5.8.9 1 .8.7 1.7 1 2.8 1h19.5c1.1 0 2.1-.4 2.8-1 .2-.1.3-.3.5-.5 0-.1.1-.1.1-.2.1-.1.2-.2.3-.4.4-.6.6-1.4.6-2.2v-37.7c0-.5-.5-.9-1-.9zm-1.1 38.7c0 1.2-1 2.2-2.3 2.2H1119c-1.2 0-2.2-1-2.2-2.2v-36.7h24v36.7h-.1zm0 0c0 1.2-1 2.2-2.3 2.2h2.9c-.3-.6-.6-1.4-.6-2.2z"/><path fill="#F0A2BD" stroke="#000" stroke-miterlimit="10" stroke-width="2" d="M1191.4 778.7v453c-.3.1-.7.2-1 .2v79.8H865.1v-533h326.3z"/><path fill="#F0EADB" d="M1195.4 784H857c-1 0-1.9-.8-1.9-1.9v-6.8c0-1 .8-1.9 1.9-1.9h338.5c1 0 1.9.8 1.9 1.9v6.8c-.1 1-.9 1.9-2 1.9z"/><path fill="#000" d="M1197.3 775.2c-.5-.7-1.1-1.3-1.8-1.8-1-.7-2.2-1-3.5-1H860.4c-1.3 0-2.5.4-3.5 1-.7.5-1.3 1.1-1.8 1.8-.7 1-1 2.2-1 3.4 0 1.3.4 2.5 1 3.4.5.7 1.1 1.3 1.8 1.8.9.6 2 1 3.2 1h332.3c.5 0 1-.1 1.4-.3 0 0 .1 0 .1-.1.5-.2 1-.4 1.5-.7.7-.5 1.3-1.1 1.8-1.8.7-1 1-2.2 1-3.5.1-1-.2-2.2-.9-3.2zm-4.8 7.7H860.4c-2.3 0-4.2-1.9-4.2-4.2 0-2.3 1.9-4.2 4.2-4.2H1192c2.3 0 4.2 1.9 4.2 4.2.1 2.2-1.6 4-3.7 4.2z"/><path fill="#FB6337" d="M1192.7 792.9H861.6c-.9 0-1.6-.7-1.6-1.6v-5.8c0-.9.7-1.6 1.6-1.6h331.1c.9 0 1.6.7 1.6 1.6v5.8c0 .9-.7 1.6-1.6 1.6z"/><path fill="#000" d="M1194.3 785.2c-.1-.2-.2-.3-.4-.5-.2-.3-.5-.5-.8-.7l-.1-.1c-.2-.1-.4-.3-.6-.4-.3-.2-.7-.3-1-.4-.3-.1-.7-.2-1-.2H864.1c-1 .1-2 .5-2.8 1 0 0-.1 0-.1.1-.4.3-.7.6-1 1 0 .1-.1.1-.1.2-.7.9-1.1 2-1.1 3.3 0 1.3.4 2.4 1.1 3.3.3.4.7.8 1.1 1.1.8.6 1.8 1 2.8 1.1H1190.3c.4 0 .7-.1 1-.2.4-.1.7-.2 1-.4.2-.1.5-.3.7-.4.4-.3.8-.7 1.1-1.1.7-.9 1.1-2 1.1-3.3 0-1.3-.2-2.5-.9-3.4zm-1.8 5.5c-.3.3-.6.6-1 .8-.3.2-.7.3-1 .3H864.1c-1.7-.2-3-1.7-3-3.4 0-1.8 1.3-3.2 3-3.4H1189.9c.2 0 .4 0 .5.1.4.1.7.2 1 .3.4.2.8.5 1 .8.5.6.8 1.4.8 2.2.1.9-.2 1.7-.7 2.3z"/><path fill="#FB6337" d="M919.399 830.6v33.1c0 4.8-3.9 8.7-8.7 8.7h-26.5c-4.8 0-8.7-3.9-8.7-8.7v-33.1c0-12.1 9.8-21.9 21.9-21.9 1.6 0 3.1.2 4.5.5 10.1 2.1 17.5 10.9 17.5 21.4z"/><path fill="#000" d="M902.299 808.2h-.2c-1.5-.3-3-.5-4.5-.5-12.6 0-22.9 10.3-22.9 22.9v33.1c0 5.4 4.4 9.7 9.7 9.7h26.5c5.4 0 9.7-4.4 9.7-9.7v-33.1c-.2-10.8-7.8-20.2-18.3-22.4zm16.1 55.5c0 4.2-3.4 7.6-7.6 7.6h-26.5c-4.2 0-7.6-3.4-7.6-7.6v-33.1c0-11.3 9.1-20.6 20.4-20.9h.5c.7 0 1.4 0 2.1.1.8.1 1.5.2 2.2.3.1 0 .1 0 .2.1.1 0 .2.1.3.1.1 0 .2.1.4.1.2.1.5.1.7.2h.2c.3.1.6.2.8.3.3.1.5.2.8.3.3.1.5.2.8.4.2.1.5.2.8.3 2.2 1.1 4.1 2.6 5.8 4.3l.6.6c.8.9 1.5 1.8 2.1 2.8l.9 1.5c.1.3.3.5.4.8.2.5.5 1.1.7 1.6.1.3.2.6.3.8 0 .1.1.2.1.3.1.4.2.7.3 1.1 0 .1.1.2.1.4.3 1.4.5 2.9.5 4.5v33.1h-.3z"/><path fill="#000" d="M919.4 830.6v33.1c0 4.8-3.9 8.7-8.7 8.7h-17.4c-4.8 0-8.7-3.9-8.7-8.7v-33.1c0-10.5 7.4-19.3 17.4-21.4 10 2.1 17.4 10.9 17.4 21.4z"/><path fill="#000" d="M902.299 808.2l-.2-.1h-.2l-2.4.6c-.8.3-1.6.6-2.4 1-8 3.7-13.4 11.8-13.4 20.9v33.1c0 3.1 1.5 5.9 3.7 7.6.5.4 1 .7 1.6 1 1.3.7 2.8 1 4.4 1h17.4c5.4 0 9.7-4.4 9.7-9.7v-33.1c-.1-10.7-7.7-20.1-18.2-22.3zm16.1 55.5c0 4.2-3.4 7.6-7.6 7.6h-17.4c-4.2 0-7.6-3.4-7.6-7.6v-33.1c0-9.7 6.8-18.3 16.3-20.4.1 0 .2.1.3.1.1 0 .2.1.4.1.2.1.5.1.7.2h.2c.3.1.6.2.8.3.3.1.5.2.8.3.3.1.5.2.8.4.2.1.5.2.8.3 2.2 1.1 4.1 2.6 5.8 4.3l.6.6c.8.9 1.5 1.8 2.1 2.8l.9 1.5c.1.3.3.5.4.8.2.5.5 1.1.7 1.6.1.3.2.6.3.8 0 .1.1.2.1.3.1.4.2.7.3 1.1 0 .1.1.2.1.4.3 1.4.5 2.9.5 4.5v33.1h-.3z"/><path fill="#FB6337" d="M983.799 830.6v33.1c0 4.8-3.9 8.7-8.7 8.7h-26.5c-4.8 0-8.7-3.9-8.7-8.7v-33.1c0-12.1 9.8-21.9 21.9-21.9 1.6 0 3.1.2 4.5.5 10.1 2.1 17.5 10.9 17.5 21.4z"/><path fill="#000" d="M966.7 808.2l-.2-.1c-1.5-.3-3-.4-4.5-.4-12.6 0-22.9 10.3-22.9 22.9v33.1c0 5.4 4.4 9.7 9.7 9.7h26.5c5.4 0 9.7-4.4 9.7-9.7v-33.1c-.1-10.8-7.8-20.2-18.3-22.4zm16.1 55.5c0 4.2-3.4 7.6-7.6 7.6h-26.5c-4.2 0-7.6-3.4-7.6-7.6v-33.1c0-11.3 9.1-20.6 20.4-20.9h.5c.7 0 1.4 0 2.1.1.8.1 1.5.2 2.2.3h.2c.2.1.5.1.7.2 1.5.4 3 1 4.4 1.7.2.1.5.3.7.4.2.1.5.3.8.4.2.2.5.3.7.5.2.2.5.3.7.5.2.2.5.4.7.5.2.2.5.4.7.6l1.2 1.2.6.6c.8.9 1.4 1.8 2.1 2.8l.9 1.5c.1.3.3.5.4.8.2.5.5 1.1.7 1.6.1.3.2.6.3.8 0 .1.1.2.1.3.1.4.2.7.3 1.1 0 .1.1.2.1.4.3 1.4.5 2.9.5 4.5v33.2h-.3z"/><path fill="#000" d="M983.8 830.6v33.1c0 4.8-3.9 8.7-8.7 8.7h-17.4c-4.8 0-8.7-3.9-8.7-8.7v-33.1c0-10.5 7.4-19.3 17.4-21.4 10 2.1 17.4 10.9 17.4 21.4z"/><path fill="#000" d="M966.7 808.2l-.2-.1-.2.1-2.4.6c-.8.3-1.6.6-2.4 1-8 3.7-13.4 11.8-13.4 20.9v33.1c0 3.1 1.5 5.9 3.7 7.6.5.4 1 .7 1.6 1 1.3.7 2.8 1 4.4 1h17.4c5.4 0 9.7-4.4 9.7-9.7v-33.1c0-10.8-7.7-20.2-18.2-22.4zm16.1 55.5c0 4.2-3.4 7.6-7.6 7.6h-17.4c-4.2 0-7.6-3.4-7.6-7.6v-33.1c0-9.7 6.9-18.3 16.3-20.4.2.1.5.1.7.2 1.5.4 3 1 4.4 1.7.2.1.5.3.7.4.2.1.5.3.8.4.2.2.5.3.7.5.2.2.5.3.7.5.2.2.5.4.7.5.2.2.5.4.7.6l1.2 1.2.6.6c.8.9 1.4 1.8 2.1 2.8l.9 1.5c.1.3.3.5.4.8.2.5.5 1.1.7 1.6.1.3.2.6.3.8 0 .1.1.2.1.3.1.4.2.7.3 1.1 0 .1.1.2.1.4.3 1.4.5 2.9.5 4.5v33.1h-.3z"/><path fill="#FB6337" d="M1048.2 830.6v33.1c0 4.8-3.9 8.7-8.7 8.7H1013c-4.8 0-8.7-3.9-8.7-8.7v-33.1c0-12.1 9.8-21.9 21.9-21.9 1.6 0 3.1.2 4.5.5 10.1 2.1 17.5 10.9 17.5 21.4z"/><path fill="#000" d="M1031.1 808.2h-.2c-1.5-.3-3-.5-4.5-.5-12.6 0-22.9 10.3-22.9 22.9v33.1c0 5.4 4.4 9.7 9.7 9.7h26.5c5.3 0 9.7-4.4 9.7-9.7v-33.1c-.1-10.8-7.8-20.2-18.3-22.4zm16.1 55.5c0 4.2-3.4 7.6-7.6 7.6h-26.5c-4.2 0-7.6-3.4-7.6-7.6v-33.1c0-11.4 9.1-20.6 20.4-20.9h.5c.7 0 1.4 0 2.1.1.8.1 1.5.2 2.2.3.1 0 .1 0 .2.1.1 0 .2.1.3.1.1 0 .2.1.3.1.2.1.5.1.7.2h.2c.3.1.6.2.8.3.3.1.5.2.8.3.3.1.5.2.8.4l.6.3c.1.1.3.1.4.2.2.1.5.3.7.4.2.1.5.3.8.4.2.2.5.3.7.5.3.2.6.4.8.6.2.1.4.3.6.4.7.6 1.3 1.2 1.9 1.8l.6.6c.2.2.4.4.6.7.2.2.4.5.5.7.2.2.3.5.5.7l.9 1.5c.1.2.3.5.4.8.4.8.8 1.6 1 2.4.1.3.2.6.3.8 0 .1 0 .2.1.3.1.4.2.7.3 1.1 0 .1.1.2.1.4.3 1.4.5 2.9.5 4.5v33h.1z"/><path fill="#000" d="M1048.2 830.6v33.1c0 4.8-3.9 8.7-8.7 8.7h-17.4c-4.8 0-8.7-3.9-8.7-8.7v-33.1c0-10.5 7.4-19.3 17.4-21.4 10 2.1 17.4 10.9 17.4 21.4z"/><path fill="#000" d="M1031.1 808.2l-.2-.1h-.2c-.8.2-1.6.4-2.3.6-.8.3-1.7.6-2.5.9-8 3.7-13.4 11.8-13.4 20.9v33.1c0 3.1 1.5 5.9 3.7 7.6.5.4 1 .7 1.6 1 1.3.7 2.8 1 4.4 1h17.4c5.3 0 9.7-4.4 9.7-9.7v-33.1c0-10.6-7.7-20-18.2-22.2zm16.1 55.5c0 4.2-3.4 7.6-7.6 7.6h-17.4c-4.2 0-7.6-3.4-7.6-7.6v-33.1c0-9.7 6.8-18.3 16.3-20.4.1 0 .2.1.3.1.1 0 .2.1.3.1.2.1.5.1.7.2h.2c.3.1.6.2.8.3.3.1.5.2.8.3.3.1.5.2.8.4l.6.3c.1.1.3.1.4.2.2.1.5.3.7.4.2.1.5.3.8.4.2.2.5.3.7.5.3.2.6.4.8.6.2.1.4.3.6.4.7.6 1.3 1.2 1.9 1.8l.6.6c.2.2.4.4.6.7.2.2.4.4.5.7.2.2.3.5.5.7l.9 1.5c.1.2.3.5.4.8.4.8.8 1.6 1 2.4.1.3.2.6.3.8 0 .1 0 .2.1.3.1.4.2.7.3 1.1 0 .1.1.2.1.4.3 1.4.5 2.9.5 4.5v33h.1z"/><path fill="#FB6337" d="M1112.6 830.6v33.1c0 4.8-3.9 8.7-8.7 8.7h-26.5c-4.8 0-8.7-3.9-8.7-8.7v-33.1c0-12.1 9.8-21.9 21.9-21.9 1.6 0 3.1.2 4.5.5 10.1 2.1 17.5 10.9 17.5 21.4z"/><path fill="#000" d="M1095.5 808.2h-.2c-1.5-.3-3-.5-4.5-.5-12.6 0-22.9 10.3-22.9 22.9v33.1c0 5.4 4.4 9.7 9.7 9.7h26.4c5.4 0 9.7-4.4 9.7-9.7v-33.1c0-10.8-7.7-20.2-18.2-22.4zm16.1 55.5c0 4.2-3.4 7.6-7.6 7.6h-26.5c-4.2 0-7.6-3.4-7.6-7.6v-33.1c0-11.3 9.1-20.6 20.4-20.9h.5c.7 0 1.4 0 2.1.1.8.1 1.5.2 2.2.3h.2c.2.1.5.1.7.2l.9.3c.3.1.5.2.8.3 1.8.6 3.4 1.5 5 2.6.2.1.4.3.6.4.9.7 1.8 1.5 2.6 2.3l.6.6c.8.9 1.5 1.8 2.1 2.8l.9 1.5c.1.3.3.5.4.8.2.5.5 1.1.7 1.6.1.3.2.6.3.8 0 .1.1.2.1.3.1.4.2.7.3 1.1 0 .1.1.2.1.4.3 1.4.5 2.9.5 4.5v33.1h-.3z"/><path fill="#000" d="M1112.6 830.6v33.1c0 4.8-3.9 8.7-8.7 8.7h-17.4c-4.8 0-8.7-3.9-8.7-8.7v-33.1c0-10.5 7.4-19.3 17.4-21.4 10 2.1 17.4 10.9 17.4 21.4z"/><path fill="#000" d="M1095.5 808.2l-.2-.1h-.2l-2.4.6c-.8.3-1.6.6-2.4 1-8 3.7-13.4 11.8-13.4 20.9v33.1c0 3.1 1.5 5.9 3.7 7.6.5.4 1 .7 1.6 1 1.3.7 2.8 1 4.4 1h17.4c5.4 0 9.7-4.4 9.7-9.7v-33.1c0-10.7-7.7-20.1-18.2-22.3zm16.1 55.5c0 4.2-3.4 7.6-7.6 7.6h-17.4c-4.2 0-7.6-3.4-7.6-7.6v-33.1c0-9.7 6.8-18.3 16.3-20.4.2.1.5.1.7.2l.9.3c.3.1.5.2.8.3 1.8.6 3.4 1.5 5 2.6.2.1.4.3.6.4.9.7 1.8 1.5 2.6 2.3l.6.6c.8.9 1.5 1.8 2.1 2.8l.9 1.5c.1.3.3.5.4.8.2.5.5 1.1.7 1.6.1.3.2.6.3.8 0 .1.1.2.1.3.1.4.2.7.3 1.1 0 .1.1.2.1.4.3 1.4.5 2.9.5 4.5v33h-.3z"/><path fill="#FB6337" d="M1177.1 830.6v33.1c0 4.8-3.9 8.7-8.7 8.7h-26.5c-4.8 0-8.7-3.9-8.7-8.7v-33.1c0-12.1 9.8-21.9 21.9-21.9 1.6 0 3.1.2 4.5.5 10 2.1 17.5 10.9 17.5 21.4z"/><path fill="#000" d="M1159.9 808.2l-.2-.1c-1.5-.3-3-.4-4.5-.4-12.6 0-22.9 10.3-22.9 22.9v33.1c0 5.4 4.4 9.7 9.7 9.7h26.5c5.4 0 9.7-4.4 9.7-9.7v-33.1c-.1-10.8-7.7-20.2-18.3-22.4zm16.1 55.5c0 4.2-3.4 7.6-7.6 7.6h-26.5c-4.2 0-7.6-3.4-7.6-7.6v-33.1c0-11.3 9.1-20.6 20.4-20.9h.5c.7 0 1.4 0 2.1.1.8.1 1.5.2 2.2.3h.2c.2.1.5.1.7.2l.9.3c.3.1.5.2.8.3 1.8.6 3.5 1.5 5 2.6.2.1.4.3.6.4.9.7 1.8 1.5 2.6 2.3l.6.6c.8.9 1.4 1.8 2.1 2.8l.9 1.5c.1.3.3.5.4.8.2.5.5 1.1.7 1.6.1.3.2.6.3.8 0 .1.1.2.1.3.1.4.2.7.3 1.1 0 .1.1.2.1.4.3 1.4.5 2.9.5 4.5v33.1h-.3z"/><path fill="#000" d="M1177.1 830.6v33.1c0 4.8-3.9 8.7-8.7 8.7H1151c-4.8 0-8.7-3.9-8.7-8.7v-33.1c0-10.5 7.4-19.3 17.4-21.4 9.9 2.1 17.4 10.9 17.4 21.4z"/><path fill="#000" d="M1159.9 808.2l-.2-.1-.2.1-2.4.6c-.8.3-1.6.6-2.4 1-8 3.7-13.4 11.8-13.4 20.9v33.1c0 3.1 1.5 5.9 3.7 7.6.5.4 1 .7 1.6 1 1.3.7 2.8 1 4.4 1h17.4c5.4 0 9.7-4.4 9.7-9.7v-33.1c0-10.8-7.6-20.2-18.2-22.4zm16.1 55.5c0 4.2-3.4 7.6-7.6 7.6H1151c-4.2 0-7.6-3.4-7.6-7.6v-33.1c0-9.7 6.9-18.3 16.3-20.4.2.1.5.1.7.2l.9.3c.3.1.5.2.8.3 1.8.6 3.5 1.5 5 2.6.2.1.4.3.6.4.9.7 1.8 1.5 2.6 2.3l.6.6c.8.9 1.4 1.8 2.1 2.8l.9 1.5c.1.3.3.5.4.8.2.5.5 1.1.7 1.6.1.3.2.6.3.8 0 .1.1.2.1.3.1.4.2.7.3 1.1 0 .1.1.2.1.4.3 1.4.5 2.9.5 4.5v33h-.3z"/></svg>
