<svg width="320" height="169" viewBox="0 0 320 169" fill="none" xmlns="http://www.w3.org/2000/svg">
<rect x="31" width="289" height="169" rx="33" fill="white"/>
<path d="M58.632 45.4H61.386L65.562 53.518L69.702 45.4H72.456V58H70.242V48.964L66.318 56.704H64.77L60.828 48.964V58H58.632V45.4ZM79.6817 48.298C80.6777 48.298 81.5537 48.502 82.3097 48.91C83.0777 49.318 83.6717 49.894 84.0917 50.638C84.5237 51.37 84.7397 52.216 84.7397 53.176C84.7397 54.148 84.5237 55.006 84.0917 55.75C83.6717 56.494 83.0777 57.07 82.3097 57.478C81.5537 57.886 80.6777 58.09 79.6817 58.09C78.6737 58.09 77.7857 57.886 77.0177 57.478C76.2497 57.07 75.6497 56.494 75.2177 55.75C74.7977 55.006 74.5877 54.148 74.5877 53.176C74.5877 52.216 74.7977 51.37 75.2177 50.638C75.6497 49.894 76.2497 49.318 77.0177 48.91C77.7857 48.502 78.6737 48.298 79.6817 48.298ZM79.6817 50.296C78.8657 50.296 78.2057 50.566 77.7017 51.106C77.1977 51.646 76.9457 52.348 76.9457 53.212C76.9457 54.076 77.1977 54.778 77.7017 55.318C78.2057 55.858 78.8657 56.128 79.6817 56.128C80.4737 56.128 81.1217 55.858 81.6257 55.318C82.1297 54.778 82.3817 54.076 82.3817 53.212C82.3817 52.348 82.1297 51.646 81.6257 51.106C81.1217 50.566 80.4737 50.296 79.6817 50.296ZM95.6645 48.37V58H93.3065V56.218C92.6585 57.466 91.5425 58.09 89.9585 58.09C88.8785 58.09 88.0265 57.76 87.4025 57.1C86.7785 56.44 86.4665 55.54 86.4665 54.4V48.37H88.8245V53.716C88.8245 54.388 89.0045 54.916 89.3645 55.3C89.7365 55.684 90.2465 55.876 90.8945 55.876C91.6385 55.864 92.2265 55.6 92.6585 55.084C93.0905 54.568 93.3065 53.914 93.3065 53.122V48.37H95.6645ZM98.585 48.37H100.925V58H98.585V48.37ZM99.737 44.23C100.121 44.23 100.439 44.362 100.691 44.626C100.943 44.89 101.069 45.226 101.069 45.634C101.069 46.03 100.943 46.36 100.691 46.624C100.439 46.888 100.121 47.02 99.737 47.02C99.353 47.02 99.035 46.888 98.783 46.624C98.531 46.36 98.405 46.03 98.405 45.634C98.405 45.226 98.531 44.89 98.783 44.626C99.035 44.362 99.353 44.23 99.737 44.23ZM103.913 44.644H106.253V58H103.913V44.644ZM109.345 44.644H111.685V58H109.345V44.644ZM118.701 48.298C120.237 48.298 121.389 48.736 122.157 49.612C122.937 50.488 123.327 51.718 123.327 53.302C123.327 53.614 123.321 53.848 123.309 54.004H116.199C116.355 54.688 116.673 55.228 117.153 55.624C117.645 56.008 118.245 56.2 118.953 56.2C119.445 56.2 119.913 56.11 120.357 55.93C120.813 55.738 121.209 55.468 121.545 55.12L122.805 56.434C122.325 56.962 121.737 57.37 121.041 57.658C120.357 57.946 119.595 58.09 118.755 58.09C117.771 58.09 116.901 57.886 116.145 57.478C115.401 57.07 114.825 56.5 114.417 55.768C114.009 55.024 113.805 54.172 113.805 53.212C113.805 52.252 114.009 51.4 114.417 50.656C114.837 49.912 115.419 49.336 116.163 48.928C116.907 48.508 117.753 48.298 118.701 48.298ZM121.185 52.438C121.161 51.73 120.927 51.166 120.483 50.746C120.039 50.326 119.451 50.116 118.719 50.116C118.035 50.116 117.459 50.326 116.991 50.746C116.535 51.154 116.253 51.718 116.145 52.438H121.185ZM129.841 44.644H132.181V58H129.841V44.644ZM139.197 48.298C140.733 48.298 141.885 48.736 142.653 49.612C143.433 50.488 143.823 51.718 143.823 53.302C143.823 53.614 143.817 53.848 143.805 54.004H136.695C136.851 54.688 137.169 55.228 137.649 55.624C138.141 56.008 138.741 56.2 139.449 56.2C139.941 56.2 140.409 56.11 140.853 55.93C141.309 55.738 141.705 55.468 142.041 55.12L143.301 56.434C142.821 56.962 142.233 57.37 141.537 57.658C140.853 57.946 140.091 58.09 139.251 58.09C138.267 58.09 137.397 57.886 136.641 57.478C135.897 57.07 135.321 56.5 134.913 55.768C134.505 55.024 134.301 54.172 134.301 53.212C134.301 52.252 134.505 51.4 134.913 50.656C135.333 49.912 135.915 49.336 136.659 48.928C137.403 48.508 138.249 48.298 139.197 48.298ZM141.681 52.438C141.657 51.73 141.423 51.166 140.979 50.746C140.535 50.326 139.947 50.116 139.215 50.116C138.531 50.116 137.955 50.326 137.487 50.746C137.031 51.154 136.749 51.718 136.641 52.438H141.681ZM162.865 48.28C163.957 48.28 164.815 48.616 165.439 49.288C166.063 49.948 166.375 50.848 166.375 51.988V58H164.017V52.672C164.017 51.988 163.825 51.454 163.441 51.07C163.069 50.674 162.559 50.476 161.911 50.476C161.167 50.5 160.573 50.77 160.129 51.286C159.697 51.802 159.481 52.456 159.481 53.248V58H157.123V52.672C157.123 51.988 156.937 51.454 156.565 51.07C156.193 50.674 155.683 50.476 155.035 50.476C154.279 50.5 153.679 50.77 153.235 51.286C152.803 51.802 152.587 52.456 152.587 53.248V58H150.247V48.37H152.587V50.152C153.223 48.928 154.351 48.304 155.971 48.28C156.811 48.28 157.513 48.484 158.077 48.892C158.653 49.288 159.055 49.852 159.283 50.584C159.895 49.072 161.089 48.304 162.865 48.28ZM174.673 58V56.83C174.337 57.25 173.905 57.568 173.377 57.784C172.849 58 172.243 58.108 171.559 58.108C170.887 58.108 170.293 57.982 169.777 57.73C169.273 57.466 168.883 57.106 168.607 56.65C168.331 56.194 168.193 55.684 168.193 55.12C168.193 54.22 168.511 53.518 169.147 53.014C169.783 52.498 170.683 52.234 171.847 52.222H174.655V51.97C174.655 51.406 174.469 50.968 174.097 50.656C173.725 50.344 173.185 50.188 172.477 50.188C171.565 50.188 170.611 50.488 169.615 51.088L168.769 49.468C169.525 49.048 170.209 48.748 170.821 48.568C171.445 48.376 172.171 48.28 172.999 48.28C174.247 48.28 175.213 48.58 175.897 49.18C176.593 49.78 176.947 50.62 176.959 51.7L176.977 58H174.673ZM172.117 56.308C172.789 56.308 173.365 56.152 173.845 55.84C174.325 55.516 174.595 55.12 174.655 54.652V53.788H172.225C171.601 53.788 171.139 53.884 170.839 54.076C170.551 54.256 170.407 54.556 170.407 54.976C170.407 55.384 170.557 55.708 170.857 55.948C171.169 56.188 171.589 56.308 172.117 56.308ZM179.603 48.37H181.943V58H179.603V48.37ZM180.755 44.23C181.139 44.23 181.457 44.362 181.709 44.626C181.961 44.89 182.087 45.226 182.087 45.634C182.087 46.03 181.961 46.36 181.709 46.624C181.457 46.888 181.139 47.02 180.755 47.02C180.371 47.02 180.053 46.888 179.801 46.624C179.549 46.36 179.423 46.03 179.423 45.634C179.423 45.226 179.549 44.89 179.801 44.626C180.053 44.362 180.371 44.23 180.755 44.23ZM184.931 44.644H187.271V58H184.931V44.644ZM190.362 44.644H192.702V58H190.362V44.644ZM199.916 48.298C200.912 48.298 201.788 48.502 202.544 48.91C203.312 49.318 203.906 49.894 204.326 50.638C204.758 51.37 204.974 52.216 204.974 53.176C204.974 54.148 204.758 55.006 204.326 55.75C203.906 56.494 203.312 57.07 202.544 57.478C201.788 57.886 200.912 58.09 199.916 58.09C198.908 58.09 198.02 57.886 197.252 57.478C196.484 57.07 195.884 56.494 195.452 55.75C195.032 55.006 194.822 54.148 194.822 53.176C194.822 52.216 195.032 51.37 195.452 50.638C195.884 49.894 196.484 49.318 197.252 48.91C198.02 48.502 198.908 48.298 199.916 48.298ZM199.916 50.296C199.1 50.296 198.44 50.566 197.936 51.106C197.432 51.646 197.18 52.348 197.18 53.212C197.18 54.076 197.432 54.778 197.936 55.318C198.44 55.858 199.1 56.128 199.916 56.128C200.708 56.128 201.356 55.858 201.86 55.318C202.364 54.778 202.616 54.076 202.616 53.212C202.616 52.348 202.364 51.646 201.86 51.106C201.356 50.566 200.708 50.296 199.916 50.296ZM212.641 57.406C211.873 57.874 211.069 58.108 210.229 58.108C209.401 58.108 208.723 57.868 208.195 57.388C207.667 56.896 207.403 56.176 207.403 55.228V50.476H206.053L206.035 48.766H207.403V46.12H209.725V48.766H212.479V50.476H209.725V54.814C209.725 55.258 209.809 55.576 209.977 55.768C210.145 55.948 210.397 56.038 210.733 56.038C211.093 56.038 211.549 55.906 212.101 55.642L212.641 57.406ZM222.904 48.298C224.44 48.298 225.592 48.736 226.36 49.612C227.14 50.488 227.53 51.718 227.53 53.302C227.53 53.614 227.524 53.848 227.512 54.004H220.402C220.558 54.688 220.876 55.228 221.356 55.624C221.848 56.008 222.448 56.2 223.156 56.2C223.648 56.2 224.116 56.11 224.56 55.93C225.016 55.738 225.412 55.468 225.748 55.12L227.008 56.434C226.528 56.962 225.94 57.37 225.244 57.658C224.56 57.946 223.798 58.09 222.958 58.09C221.974 58.09 221.104 57.886 220.348 57.478C219.604 57.07 219.028 56.5 218.62 55.768C218.212 55.024 218.008 54.172 218.008 53.212C218.008 52.252 218.212 51.4 218.62 50.656C219.04 49.912 219.622 49.336 220.366 48.928C221.11 48.508 221.956 48.298 222.904 48.298ZM225.388 52.438C225.364 51.73 225.13 51.166 224.686 50.746C224.242 50.326 223.654 50.116 222.922 50.116C222.238 50.116 221.662 50.326 221.194 50.746C220.738 51.154 220.456 51.718 220.348 52.438H225.388ZM235.176 57.406C234.408 57.874 233.604 58.108 232.764 58.108C231.936 58.108 231.258 57.868 230.73 57.388C230.202 56.896 229.938 56.176 229.938 55.228V50.476H228.588L228.57 48.766H229.938V46.12H232.26V48.766H235.014V50.476H232.26V54.814C232.26 55.258 232.344 55.576 232.512 55.768C232.68 55.948 232.932 56.038 233.268 56.038C233.628 56.038 234.084 55.906 234.636 55.642L235.176 57.406ZM239.949 48.388L242.397 48.37L244.917 55.696L247.383 48.37H249.741L246.069 58H243.657L239.949 48.388ZM254.773 48.298C256.309 48.298 257.461 48.736 258.229 49.612C259.009 50.488 259.399 51.718 259.399 53.302C259.399 53.614 259.393 53.848 259.381 54.004H252.271C252.427 54.688 252.745 55.228 253.225 55.624C253.717 56.008 254.317 56.2 255.025 56.2C255.517 56.2 255.985 56.11 256.429 55.93C256.885 55.738 257.281 55.468 257.617 55.12L258.877 56.434C258.397 56.962 257.809 57.37 257.113 57.658C256.429 57.946 255.667 58.09 254.827 58.09C253.843 58.09 252.973 57.886 252.217 57.478C251.473 57.07 250.897 56.5 250.489 55.768C250.081 55.024 249.877 54.172 249.877 53.212C249.877 52.252 250.081 51.4 250.489 50.656C250.909 49.912 251.491 49.336 252.235 48.928C252.979 48.508 253.825 48.298 254.773 48.298ZM257.257 52.438C257.233 51.73 256.999 51.166 256.555 50.746C256.111 50.326 255.523 50.116 254.791 50.116C254.107 50.116 253.531 50.326 253.063 50.746C252.607 51.154 252.325 51.718 252.217 52.438H257.257ZM255.367 44.338L257.617 45.256L255.313 47.11L253.495 46.93L255.367 44.338ZM263.751 50.224C264.075 49.6 264.513 49.126 265.065 48.802C265.629 48.466 266.283 48.292 267.027 48.28V50.548C266.031 50.488 265.233 50.722 264.633 51.25C264.045 51.766 263.751 52.468 263.751 53.356V58H261.411V48.37H263.751V50.224ZM268.671 48.37H271.011V58H268.671V48.37ZM269.823 44.23C270.207 44.23 270.525 44.362 270.777 44.626C271.029 44.89 271.155 45.226 271.155 45.634C271.155 46.03 271.029 46.36 270.777 46.624C270.525 46.888 270.207 47.02 269.823 47.02C269.439 47.02 269.121 46.888 268.869 46.624C268.617 46.36 268.491 46.03 268.491 45.634C268.491 45.226 268.617 44.89 268.869 44.626C269.121 44.362 269.439 44.23 269.823 44.23ZM277.923 46.552C277.563 46.552 277.263 46.654 277.023 46.858C276.795 47.062 276.681 47.368 276.681 47.776V48.766H279.093V50.476H276.681V58H274.341V50.476H273.081V48.766H274.341V47.848C274.341 47.14 274.497 46.54 274.809 46.048C275.121 45.544 275.535 45.166 276.051 44.914C276.579 44.662 277.149 44.536 277.761 44.536C278.361 44.536 278.949 44.674 279.525 44.95L279.111 46.84C278.631 46.648 278.235 46.552 277.923 46.552ZM280.479 48.37H282.819V58H280.479V48.37ZM281.631 44.23C282.015 44.23 282.333 44.362 282.585 44.626C282.837 44.89 282.963 45.226 282.963 45.634C282.963 46.03 282.837 46.36 282.585 46.624C282.333 46.888 282.015 47.02 281.631 47.02C281.247 47.02 280.929 46.888 280.677 46.624C280.425 46.36 280.299 46.03 280.299 45.634C280.299 45.226 280.425 44.89 280.677 44.626C280.929 44.362 281.247 44.23 281.631 44.23ZM289.736 48.298C291.272 48.298 292.424 48.736 293.192 49.612C293.972 50.488 294.362 51.718 294.362 53.302C294.362 53.614 294.356 53.848 294.344 54.004H287.234C287.39 54.688 287.708 55.228 288.188 55.624C288.68 56.008 289.28 56.2 289.988 56.2C290.48 56.2 290.948 56.11 291.392 55.93C291.848 55.738 292.244 55.468 292.58 55.12L293.84 56.434C293.36 56.962 292.772 57.37 292.076 57.658C291.392 57.946 290.63 58.09 289.79 58.09C288.806 58.09 287.936 57.886 287.18 57.478C286.436 57.07 285.86 56.5 285.452 55.768C285.044 55.024 284.84 54.172 284.84 53.212C284.84 52.252 285.044 51.4 285.452 50.656C285.872 49.912 286.454 49.336 287.198 48.928C287.942 48.508 288.788 48.298 289.736 48.298ZM292.22 52.438C292.196 51.73 291.962 51.166 291.518 50.746C291.074 50.326 290.486 50.116 289.754 50.116C289.07 50.116 288.494 50.326 288.026 50.746C287.57 51.154 287.288 51.718 287.18 52.438H292.22ZM98.2512 79.406C97.4832 79.874 96.6792 80.108 95.8392 80.108C95.0112 80.108 94.3332 79.868 93.8052 79.388C93.2772 78.896 93.0132 78.176 93.0132 77.228V72.476H91.6632L91.6452 70.766H93.0132V68.12H95.3352V70.766H98.0892V72.476H95.3352V76.814C95.3352 77.258 95.4192 77.576 95.5872 77.768C95.7552 77.948 96.0072 78.038 96.3432 78.038C96.7032 78.038 97.1592 77.906 97.7112 77.642L98.2512 79.406ZM104.014 70.298C105.55 70.298 106.702 70.736 107.47 71.612C108.25 72.488 108.64 73.718 108.64 75.302C108.64 75.614 108.634 75.848 108.622 76.004H101.512C101.668 76.688 101.986 77.228 102.466 77.624C102.958 78.008 103.558 78.2 104.266 78.2C104.758 78.2 105.226 78.11 105.67 77.93C106.126 77.738 106.522 77.468 106.858 77.12L108.118 78.434C107.638 78.962 107.05 79.37 106.354 79.658C105.67 79.946 104.908 80.09 104.068 80.09C103.084 80.09 102.214 79.886 101.458 79.478C100.714 79.07 100.138 78.5 99.73 77.768C99.322 77.024 99.118 76.172 99.118 75.212C99.118 74.252 99.322 73.4 99.73 72.656C100.15 71.912 100.732 71.336 101.476 70.928C102.22 70.508 103.066 70.298 104.014 70.298ZM106.498 74.438C106.474 73.73 106.24 73.166 105.796 72.746C105.352 72.326 104.764 72.116 104.032 72.116C103.348 72.116 102.772 72.326 102.304 72.746C101.848 73.154 101.566 73.718 101.458 74.438H106.498ZM116.358 72.98C115.89 72.704 115.404 72.488 114.9 72.332C114.408 72.176 113.952 72.098 113.532 72.098C113.136 72.098 112.818 72.17 112.578 72.314C112.35 72.446 112.236 72.656 112.236 72.944C112.236 73.244 112.38 73.478 112.668 73.646C112.968 73.802 113.436 73.97 114.072 74.15C114.744 74.354 115.296 74.558 115.728 74.762C116.16 74.954 116.532 75.248 116.844 75.644C117.168 76.028 117.33 76.538 117.33 77.174C117.33 78.11 116.97 78.83 116.25 79.334C115.53 79.838 114.624 80.09 113.532 80.09C112.788 80.09 112.062 79.976 111.354 79.748C110.646 79.508 110.046 79.172 109.554 78.74L110.364 77.102C110.796 77.474 111.312 77.768 111.912 77.984C112.512 78.188 113.082 78.29 113.622 78.29C114.054 78.29 114.396 78.218 114.648 78.074C114.912 77.918 115.044 77.69 115.044 77.39C115.044 77.054 114.894 76.802 114.594 76.634C114.294 76.466 113.808 76.28 113.136 76.076C112.488 75.884 111.96 75.698 111.552 75.518C111.144 75.326 110.79 75.044 110.49 74.672C110.19 74.288 110.04 73.79 110.04 73.178C110.04 72.23 110.382 71.51 111.066 71.018C111.762 70.514 112.632 70.262 113.676 70.262C114.312 70.262 114.936 70.352 115.548 70.532C116.172 70.712 116.724 70.964 117.204 71.288L116.358 72.98ZM130.372 73.412C129.724 72.704 128.884 72.35 127.852 72.35C127.072 72.35 126.436 72.614 125.944 73.142C125.464 73.67 125.224 74.354 125.224 75.194C125.224 76.058 125.464 76.754 125.944 77.282C126.436 77.81 127.072 78.074 127.852 78.074C129.004 78.074 129.868 77.696 130.444 76.94L131.902 78.146C131.47 78.77 130.9 79.25 130.192 79.586C129.484 79.922 128.662 80.09 127.726 80.09C126.778 80.09 125.932 79.886 125.188 79.478C124.456 79.07 123.886 78.5 123.478 77.768C123.07 77.024 122.866 76.172 122.866 75.212C122.866 74.24 123.07 73.382 123.478 72.638C123.898 71.894 124.474 71.318 125.206 70.91C125.95 70.502 126.802 70.298 127.762 70.298C128.638 70.298 129.418 70.454 130.102 70.766C130.798 71.066 131.362 71.498 131.794 72.062L130.372 73.412ZM137.786 70.298C138.782 70.298 139.658 70.502 140.414 70.91C141.182 71.318 141.776 71.894 142.196 72.638C142.628 73.37 142.844 74.216 142.844 75.176C142.844 76.148 142.628 77.006 142.196 77.75C141.776 78.494 141.182 79.07 140.414 79.478C139.658 79.886 138.782 80.09 137.786 80.09C136.778 80.09 135.89 79.886 135.122 79.478C134.354 79.07 133.754 78.494 133.322 77.75C132.902 77.006 132.692 76.148 132.692 75.176C132.692 74.216 132.902 73.37 133.322 72.638C133.754 71.894 134.354 71.318 135.122 70.91C135.89 70.502 136.778 70.298 137.786 70.298ZM137.786 72.296C136.97 72.296 136.31 72.566 135.806 73.106C135.302 73.646 135.05 74.348 135.05 75.212C135.05 76.076 135.302 76.778 135.806 77.318C136.31 77.858 136.97 78.128 137.786 78.128C138.578 78.128 139.226 77.858 139.73 77.318C140.234 76.778 140.486 76.076 140.486 75.212C140.486 74.348 140.234 73.646 139.73 73.106C139.226 72.566 138.578 72.296 137.786 72.296ZM150.673 70.28C151.777 70.28 152.647 70.616 153.283 71.288C153.919 71.948 154.237 72.848 154.237 73.988V80H151.879V74.672C151.879 74 151.687 73.472 151.303 73.088C150.919 72.692 150.397 72.494 149.737 72.494C148.957 72.506 148.339 72.77 147.883 73.286C147.439 73.802 147.217 74.462 147.217 75.266V80H144.877V70.37H147.217V72.17C147.877 70.934 149.029 70.304 150.673 70.28ZM162.661 70.28C163.765 70.28 164.635 70.616 165.271 71.288C165.907 71.948 166.225 72.848 166.225 73.988V80H163.867V74.672C163.867 74 163.675 73.472 163.291 73.088C162.907 72.692 162.385 72.494 161.725 72.494C160.945 72.506 160.327 72.77 159.871 73.286C159.427 73.802 159.205 74.462 159.205 75.266V80H156.865V70.37H159.205V72.17C159.865 70.934 161.017 70.304 162.661 70.28ZM174.542 80V78.83C174.206 79.25 173.774 79.568 173.246 79.784C172.718 80 172.112 80.108 171.428 80.108C170.756 80.108 170.162 79.982 169.646 79.73C169.142 79.466 168.752 79.106 168.476 78.65C168.2 78.194 168.062 77.684 168.062 77.12C168.062 76.22 168.38 75.518 169.016 75.014C169.652 74.498 170.552 74.234 171.716 74.222H174.524V73.97C174.524 73.406 174.338 72.968 173.966 72.656C173.594 72.344 173.054 72.188 172.346 72.188C171.434 72.188 170.48 72.488 169.484 73.088L168.638 71.468C169.394 71.048 170.078 70.748 170.69 70.568C171.314 70.376 172.04 70.28 172.868 70.28C174.116 70.28 175.082 70.58 175.766 71.18C176.462 71.78 176.816 72.62 176.828 73.7L176.846 80H174.542ZM171.986 78.308C172.658 78.308 173.234 78.152 173.714 77.84C174.194 77.516 174.464 77.12 174.524 76.652V75.788H172.094C171.47 75.788 171.008 75.884 170.708 76.076C170.42 76.256 170.276 76.556 170.276 76.976C170.276 77.384 170.426 77.708 170.726 77.948C171.038 78.188 171.458 78.308 171.986 78.308ZM179.471 70.37H181.811V80H179.471V70.37ZM180.623 66.23C181.007 66.23 181.325 66.362 181.577 66.626C181.829 66.89 181.955 67.226 181.955 67.634C181.955 68.03 181.829 68.36 181.577 68.624C181.325 68.888 181.007 69.02 180.623 69.02C180.239 69.02 179.921 68.888 179.669 68.624C179.417 68.36 179.291 68.03 179.291 67.634C179.291 67.226 179.417 66.89 179.669 66.626C179.921 66.362 180.239 66.23 180.623 66.23ZM190.415 72.98C189.947 72.704 189.461 72.488 188.957 72.332C188.465 72.176 188.009 72.098 187.589 72.098C187.193 72.098 186.875 72.17 186.635 72.314C186.407 72.446 186.293 72.656 186.293 72.944C186.293 73.244 186.437 73.478 186.725 73.646C187.025 73.802 187.493 73.97 188.129 74.15C188.801 74.354 189.353 74.558 189.785 74.762C190.217 74.954 190.589 75.248 190.901 75.644C191.225 76.028 191.387 76.538 191.387 77.174C191.387 78.11 191.027 78.83 190.307 79.334C189.587 79.838 188.681 80.09 187.589 80.09C186.845 80.09 186.119 79.976 185.411 79.748C184.703 79.508 184.103 79.172 183.611 78.74L184.421 77.102C184.853 77.474 185.369 77.768 185.969 77.984C186.569 78.188 187.139 78.29 187.679 78.29C188.111 78.29 188.453 78.218 188.705 78.074C188.969 77.918 189.101 77.69 189.101 77.39C189.101 77.054 188.951 76.802 188.651 76.634C188.351 76.466 187.865 76.28 187.193 76.076C186.545 75.884 186.017 75.698 185.609 75.518C185.201 75.326 184.847 75.044 184.547 74.672C184.247 74.288 184.097 73.79 184.097 73.178C184.097 72.23 184.439 71.51 185.123 71.018C185.819 70.514 186.689 70.262 187.733 70.262C188.369 70.262 188.993 70.352 189.605 70.532C190.229 70.712 190.781 70.964 191.261 71.288L190.415 72.98ZM199.099 72.98C198.631 72.704 198.145 72.488 197.641 72.332C197.149 72.176 196.693 72.098 196.273 72.098C195.877 72.098 195.559 72.17 195.319 72.314C195.091 72.446 194.977 72.656 194.977 72.944C194.977 73.244 195.121 73.478 195.409 73.646C195.709 73.802 196.177 73.97 196.813 74.15C197.485 74.354 198.037 74.558 198.469 74.762C198.901 74.954 199.273 75.248 199.585 75.644C199.909 76.028 200.071 76.538 200.071 77.174C200.071 78.11 199.711 78.83 198.991 79.334C198.271 79.838 197.365 80.09 196.273 80.09C195.529 80.09 194.803 79.976 194.095 79.748C193.387 79.508 192.787 79.172 192.295 78.74L193.105 77.102C193.537 77.474 194.053 77.768 194.653 77.984C195.253 78.188 195.823 78.29 196.363 78.29C196.795 78.29 197.137 78.218 197.389 78.074C197.653 77.918 197.785 77.69 197.785 77.39C197.785 77.054 197.635 76.802 197.335 76.634C197.035 76.466 196.549 76.28 195.877 76.076C195.229 75.884 194.701 75.698 194.293 75.518C193.885 75.326 193.531 75.044 193.231 74.672C192.931 74.288 192.781 73.79 192.781 73.178C192.781 72.23 193.123 71.51 193.807 71.018C194.503 70.514 195.373 70.262 196.417 70.262C197.053 70.262 197.677 70.352 198.289 70.532C198.913 70.712 199.465 70.964 199.945 71.288L199.099 72.98ZM207.764 80V78.83C207.428 79.25 206.996 79.568 206.468 79.784C205.94 80 205.334 80.108 204.65 80.108C203.978 80.108 203.384 79.982 202.868 79.73C202.364 79.466 201.974 79.106 201.698 78.65C201.422 78.194 201.284 77.684 201.284 77.12C201.284 76.22 201.602 75.518 202.238 75.014C202.874 74.498 203.774 74.234 204.938 74.222H207.746V73.97C207.746 73.406 207.56 72.968 207.188 72.656C206.816 72.344 206.276 72.188 205.568 72.188C204.656 72.188 203.702 72.488 202.706 73.088L201.86 71.468C202.616 71.048 203.3 70.748 203.912 70.568C204.536 70.376 205.262 70.28 206.09 70.28C207.338 70.28 208.304 70.58 208.988 71.18C209.684 71.78 210.038 72.62 210.05 73.7L210.068 80H207.764ZM205.208 78.308C205.88 78.308 206.456 78.152 206.936 77.84C207.416 77.516 207.686 77.12 207.746 76.652V75.788H205.316C204.692 75.788 204.23 75.884 203.93 76.076C203.642 76.256 203.498 76.556 203.498 76.976C203.498 77.384 203.648 77.708 203.948 77.948C204.26 78.188 204.68 78.308 205.208 78.308ZM218.489 70.28C219.593 70.28 220.463 70.616 221.099 71.288C221.735 71.948 222.053 72.848 222.053 73.988V80H219.695V74.672C219.695 74 219.503 73.472 219.119 73.088C218.735 72.692 218.213 72.494 217.553 72.494C216.773 72.506 216.155 72.77 215.699 73.286C215.255 73.802 215.033 74.462 215.033 75.266V80H212.693V70.37H215.033V72.17C215.693 70.934 216.845 70.304 218.489 70.28ZM231.306 73.412C230.658 72.704 229.818 72.35 228.786 72.35C228.006 72.35 227.37 72.614 226.878 73.142C226.398 73.67 226.158 74.354 226.158 75.194C226.158 76.058 226.398 76.754 226.878 77.282C227.37 77.81 228.006 78.074 228.786 78.074C229.938 78.074 230.802 77.696 231.378 76.94L232.836 78.146C232.404 78.77 231.834 79.25 231.126 79.586C230.418 79.922 229.596 80.09 228.66 80.09C227.712 80.09 226.866 79.886 226.122 79.478C225.39 79.07 224.82 78.5 224.412 77.768C224.004 77.024 223.8 76.172 223.8 75.212C223.8 74.24 224.004 73.382 224.412 72.638C224.832 71.894 225.408 71.318 226.14 70.91C226.884 70.502 227.736 70.298 228.696 70.298C229.572 70.298 230.352 70.454 231.036 70.766C231.732 71.066 232.296 71.498 232.728 72.062L231.306 73.412ZM238.522 70.298C240.058 70.298 241.21 70.736 241.978 71.612C242.758 72.488 243.148 73.718 243.148 75.302C243.148 75.614 243.142 75.848 243.13 76.004H236.02C236.176 76.688 236.494 77.228 236.974 77.624C237.466 78.008 238.066 78.2 238.774 78.2C239.266 78.2 239.734 78.11 240.178 77.93C240.634 77.738 241.03 77.468 241.366 77.12L242.626 78.434C242.146 78.962 241.558 79.37 240.862 79.658C240.178 79.946 239.416 80.09 238.576 80.09C237.592 80.09 236.722 79.886 235.966 79.478C235.222 79.07 234.646 78.5 234.238 77.768C233.83 77.024 233.626 76.172 233.626 75.212C233.626 74.252 233.83 73.4 234.238 72.656C234.658 71.912 235.24 71.336 235.984 70.928C236.728 70.508 237.574 70.298 238.522 70.298ZM241.006 74.438C240.982 73.73 240.748 73.166 240.304 72.746C239.86 72.326 239.272 72.116 238.54 72.116C237.856 72.116 237.28 72.326 236.812 72.746C236.356 73.154 236.074 73.718 235.966 74.438H241.006ZM250.866 72.98C250.398 72.704 249.912 72.488 249.408 72.332C248.916 72.176 248.46 72.098 248.04 72.098C247.644 72.098 247.326 72.17 247.086 72.314C246.858 72.446 246.744 72.656 246.744 72.944C246.744 73.244 246.888 73.478 247.176 73.646C247.476 73.802 247.944 73.97 248.58 74.15C249.252 74.354 249.804 74.558 250.236 74.762C250.668 74.954 251.04 75.248 251.352 75.644C251.676 76.028 251.838 76.538 251.838 77.174C251.838 78.11 251.478 78.83 250.758 79.334C250.038 79.838 249.132 80.09 248.04 80.09C247.296 80.09 246.57 79.976 245.862 79.748C245.154 79.508 244.554 79.172 244.062 78.74L244.872 77.102C245.304 77.474 245.82 77.768 246.42 77.984C247.02 78.188 247.59 78.29 248.13 78.29C248.562 78.29 248.904 78.218 249.156 78.074C249.42 77.918 249.552 77.69 249.552 77.39C249.552 77.054 249.402 76.802 249.102 76.634C248.802 76.466 248.316 76.28 247.644 76.076C246.996 75.884 246.468 75.698 246.06 75.518C245.652 75.326 245.298 75.044 244.998 74.672C244.698 74.288 244.548 73.79 244.548 73.178C244.548 72.23 244.89 71.51 245.574 71.018C246.27 70.514 247.14 70.262 248.184 70.262C248.82 70.262 249.444 70.352 250.056 70.532C250.68 70.712 251.232 70.964 251.712 71.288L250.866 72.98ZM254.402 77.57C254.762 77.57 255.056 77.69 255.284 77.93C255.524 78.17 255.644 78.476 255.644 78.848C255.644 79.232 255.524 79.55 255.284 79.802C255.056 80.042 254.762 80.162 254.402 80.162C254.054 80.162 253.76 80.036 253.52 79.784C253.292 79.532 253.178 79.22 253.178 78.848C253.178 78.476 253.292 78.17 253.52 77.93C253.76 77.69 254.054 77.57 254.402 77.57ZM64.5382 89.4H67.2922L71.4682 97.518L75.6082 89.4H78.3622V102H76.1482V92.964L72.2242 100.704H70.6762L66.7342 92.964V102H64.5382V89.4ZM85.588 92.298C86.584 92.298 87.46 92.502 88.216 92.91C88.984 93.318 89.578 93.894 89.998 94.638C90.43 95.37 90.646 96.216 90.646 97.176C90.646 98.148 90.43 99.006 89.998 99.75C89.578 100.494 88.984 101.07 88.216 101.478C87.46 101.886 86.584 102.09 85.588 102.09C84.58 102.09 83.692 101.886 82.924 101.478C82.156 101.07 81.556 100.494 81.124 99.75C80.704 99.006 80.494 98.148 80.494 97.176C80.494 96.216 80.704 95.37 81.124 94.638C81.556 93.894 82.156 93.318 82.924 92.91C83.692 92.502 84.58 92.298 85.588 92.298ZM85.588 94.296C84.772 94.296 84.112 94.566 83.608 95.106C83.104 95.646 82.852 96.348 82.852 97.212C82.852 98.076 83.104 98.778 83.608 99.318C84.112 99.858 84.772 100.128 85.588 100.128C86.38 100.128 87.028 99.858 87.532 99.318C88.036 98.778 88.288 98.076 88.288 97.212C88.288 96.348 88.036 95.646 87.532 95.106C87.028 94.566 86.38 94.296 85.588 94.296ZM92.6787 92.37H95.0187V102H92.6787V92.37ZM93.8307 88.23C94.2147 88.23 94.5327 88.362 94.7847 88.626C95.0367 88.89 95.1627 89.226 95.1627 89.634C95.1627 90.03 95.0367 90.36 94.7847 90.624C94.5327 90.888 94.2147 91.02 93.8307 91.02C93.4467 91.02 93.1287 90.888 92.8767 90.624C92.6247 90.36 92.4987 90.03 92.4987 89.634C92.4987 89.226 92.6247 88.89 92.8767 88.626C93.1287 88.362 93.4467 88.23 93.8307 88.23ZM100.277 103.458C100.553 103.554 100.829 103.608 101.105 103.62C101.501 103.632 101.801 103.5 102.005 103.224C102.221 102.96 102.329 102.57 102.329 102.054V92.37H104.669V102.414C104.669 103.41 104.399 104.184 103.859 104.736C103.331 105.3 102.593 105.582 101.645 105.582C100.985 105.582 100.361 105.462 99.7731 105.222L100.277 103.458ZM103.481 88.23C103.865 88.23 104.183 88.362 104.435 88.626C104.687 88.89 104.813 89.226 104.813 89.634C104.813 90.03 104.687 90.36 104.435 90.624C104.183 90.888 103.865 91.02 103.481 91.02C103.097 91.02 102.779 90.888 102.527 90.624C102.275 90.36 102.149 90.03 102.149 89.634C102.149 89.226 102.275 88.89 102.527 88.626C102.779 88.362 103.097 88.23 103.481 88.23ZM111.458 92.298C112.994 92.298 114.146 92.736 114.914 93.612C115.694 94.488 116.084 95.718 116.084 97.302C116.084 97.614 116.078 97.848 116.066 98.004H108.956C109.112 98.688 109.43 99.228 109.91 99.624C110.402 100.008 111.002 100.2 111.71 100.2C112.202 100.2 112.67 100.11 113.114 99.93C113.57 99.738 113.966 99.468 114.302 99.12L115.562 100.434C115.082 100.962 114.494 101.37 113.798 101.658C113.114 101.946 112.352 102.09 111.512 102.09C110.528 102.09 109.658 101.886 108.902 101.478C108.158 101.07 107.582 100.5 107.174 99.768C106.766 99.024 106.562 98.172 106.562 97.212C106.562 96.252 106.766 95.4 107.174 94.656C107.594 93.912 108.176 93.336 108.92 92.928C109.664 92.508 110.51 92.298 111.458 92.298ZM113.942 96.438C113.918 95.73 113.684 95.166 113.24 94.746C112.796 94.326 112.208 94.116 111.476 94.116C110.792 94.116 110.216 94.326 109.748 94.746C109.292 95.154 109.01 95.718 108.902 96.438H113.942ZM128.215 94.98C127.747 94.704 127.261 94.488 126.757 94.332C126.265 94.176 125.809 94.098 125.389 94.098C124.993 94.098 124.675 94.17 124.435 94.314C124.207 94.446 124.093 94.656 124.093 94.944C124.093 95.244 124.237 95.478 124.525 95.646C124.825 95.802 125.293 95.97 125.929 96.15C126.601 96.354 127.153 96.558 127.585 96.762C128.017 96.954 128.389 97.248 128.701 97.644C129.025 98.028 129.187 98.538 129.187 99.174C129.187 100.11 128.827 100.83 128.107 101.334C127.387 101.838 126.481 102.09 125.389 102.09C124.645 102.09 123.919 101.976 123.211 101.748C122.503 101.508 121.903 101.172 121.411 100.74L122.221 99.102C122.653 99.474 123.169 99.768 123.769 99.984C124.369 100.188 124.939 100.29 125.479 100.29C125.911 100.29 126.253 100.218 126.505 100.074C126.769 99.918 126.901 99.69 126.901 99.39C126.901 99.054 126.751 98.802 126.451 98.634C126.151 98.466 125.665 98.28 124.993 98.076C124.345 97.884 123.817 97.698 123.409 97.518C123.001 97.326 122.647 97.044 122.347 96.672C122.047 96.288 121.897 95.79 121.897 95.178C121.897 94.23 122.239 93.51 122.923 93.018C123.619 92.514 124.489 92.262 125.533 92.262C126.169 92.262 126.793 92.352 127.405 92.532C128.029 92.712 128.581 92.964 129.061 93.288L128.215 94.98ZM140.084 92.37V102H137.726V100.218C137.078 101.466 135.962 102.09 134.378 102.09C133.298 102.09 132.446 101.76 131.822 101.1C131.198 100.44 130.886 99.54 130.886 98.4V92.37H133.244V97.716C133.244 98.388 133.424 98.916 133.784 99.3C134.156 99.684 134.666 99.876 135.314 99.876C136.058 99.864 136.646 99.6 137.078 99.084C137.51 98.568 137.726 97.914 137.726 97.122V92.37H140.084ZM143.005 92.37H145.345V102H143.005V92.37ZM144.157 88.23C144.541 88.23 144.859 88.362 145.111 88.626C145.363 88.89 145.489 89.226 145.489 89.634C145.489 90.03 145.363 90.36 145.111 90.624C144.859 90.888 144.541 91.02 144.157 91.02C143.773 91.02 143.455 90.888 143.203 90.624C142.951 90.36 142.825 90.03 142.825 89.634C142.825 89.226 142.951 88.89 143.203 88.626C143.455 88.362 143.773 88.23 144.157 88.23ZM153.949 94.98C153.481 94.704 152.995 94.488 152.491 94.332C151.999 94.176 151.543 94.098 151.123 94.098C150.727 94.098 150.409 94.17 150.169 94.314C149.941 94.446 149.827 94.656 149.827 94.944C149.827 95.244 149.971 95.478 150.259 95.646C150.559 95.802 151.027 95.97 151.663 96.15C152.335 96.354 152.887 96.558 153.319 96.762C153.751 96.954 154.123 97.248 154.435 97.644C154.759 98.028 154.921 98.538 154.921 99.174C154.921 100.11 154.561 100.83 153.841 101.334C153.121 101.838 152.215 102.09 151.123 102.09C150.379 102.09 149.653 101.976 148.945 101.748C148.237 101.508 147.637 101.172 147.145 100.74L147.955 99.102C148.387 99.474 148.903 99.768 149.503 99.984C150.103 100.188 150.673 100.29 151.213 100.29C151.645 100.29 151.987 100.218 152.239 100.074C152.503 99.918 152.635 99.69 152.635 99.39C152.635 99.054 152.485 98.802 152.185 98.634C151.885 98.466 151.399 98.28 150.727 98.076C150.079 97.884 149.551 97.698 149.143 97.518C148.735 97.326 148.381 97.044 148.081 96.672C147.781 96.288 147.631 95.79 147.631 95.178C147.631 94.23 147.973 93.51 148.657 93.018C149.353 92.514 150.223 92.262 151.267 92.262C151.903 92.262 152.527 92.352 153.139 92.532C153.763 92.712 154.315 92.964 154.795 93.288L153.949 94.98ZM170.627 88.644V102H168.287V100.452C167.939 100.992 167.489 101.406 166.937 101.694C166.397 101.97 165.767 102.108 165.047 102.108C164.135 102.108 163.331 101.904 162.635 101.496C161.951 101.076 161.417 100.494 161.033 99.75C160.649 98.994 160.457 98.13 160.457 97.158C160.457 96.198 160.643 95.352 161.015 94.62C161.399 93.876 161.933 93.3 162.617 92.892C163.313 92.484 164.105 92.28 164.993 92.28C165.725 92.28 166.367 92.424 166.919 92.712C167.471 93 167.927 93.414 168.287 93.954V88.644H170.627ZM165.551 100.146C166.355 100.146 167.009 99.876 167.513 99.336C168.029 98.784 168.287 98.076 168.287 97.212C168.287 96.348 168.029 95.646 167.513 95.106C167.009 94.554 166.355 94.278 165.551 94.278C164.747 94.278 164.093 94.554 163.589 95.106C163.085 95.646 162.827 96.348 162.815 97.212C162.827 98.076 163.085 98.784 163.589 99.336C164.093 99.876 164.747 100.146 165.551 100.146ZM177.64 92.298C179.176 92.298 180.328 92.736 181.096 93.612C181.876 94.488 182.266 95.718 182.266 97.302C182.266 97.614 182.26 97.848 182.248 98.004H175.138C175.294 98.688 175.612 99.228 176.092 99.624C176.584 100.008 177.184 100.2 177.892 100.2C178.384 100.2 178.852 100.11 179.296 99.93C179.752 99.738 180.148 99.468 180.484 99.12L181.744 100.434C181.264 100.962 180.676 101.37 179.98 101.658C179.296 101.946 178.534 102.09 177.694 102.09C176.71 102.09 175.84 101.886 175.084 101.478C174.34 101.07 173.764 100.5 173.356 99.768C172.948 99.024 172.744 98.172 172.744 97.212C172.744 96.252 172.948 95.4 173.356 94.656C173.776 93.912 174.358 93.336 175.102 92.928C175.846 92.508 176.692 92.298 177.64 92.298ZM180.124 96.438C180.1 95.73 179.866 95.166 179.422 94.746C178.978 94.326 178.39 94.116 177.658 94.116C176.974 94.116 176.398 94.326 175.93 94.746C175.474 95.154 175.192 95.718 175.084 96.438H180.124ZM178.234 88.338L180.484 89.256L178.18 91.11L176.362 90.93L178.234 88.338ZM182.226 103.458C182.502 103.554 182.778 103.608 183.054 103.62C183.45 103.632 183.75 103.5 183.954 103.224C184.17 102.96 184.278 102.57 184.278 102.054V92.37H186.618V102.414C186.618 103.41 186.348 104.184 185.808 104.736C185.28 105.3 184.542 105.582 183.594 105.582C182.934 105.582 182.31 105.462 181.722 105.222L182.226 103.458ZM185.43 88.23C185.814 88.23 186.132 88.362 186.384 88.626C186.636 88.89 186.762 89.226 186.762 89.634C186.762 90.03 186.636 90.36 186.384 90.624C186.132 90.888 185.814 91.02 185.43 91.02C185.046 91.02 184.728 90.888 184.476 90.624C184.224 90.36 184.098 90.03 184.098 89.634C184.098 89.226 184.224 88.89 184.476 88.626C184.728 88.362 185.046 88.23 185.43 88.23ZM195.082 102V100.83C194.746 101.25 194.314 101.568 193.786 101.784C193.258 102 192.652 102.108 191.968 102.108C191.296 102.108 190.702 101.982 190.186 101.73C189.682 101.466 189.292 101.106 189.016 100.65C188.74 100.194 188.602 99.684 188.602 99.12C188.602 98.22 188.92 97.518 189.556 97.014C190.192 96.498 191.092 96.234 192.256 96.222H195.064V95.97C195.064 95.406 194.878 94.968 194.506 94.656C194.134 94.344 193.594 94.188 192.886 94.188C191.974 94.188 191.02 94.488 190.024 95.088L189.178 93.468C189.934 93.048 190.618 92.748 191.23 92.568C191.854 92.376 192.58 92.28 193.408 92.28C194.656 92.28 195.622 92.58 196.306 93.18C197.002 93.78 197.356 94.62 197.368 95.7L197.386 102H195.082ZM192.526 100.308C193.198 100.308 193.774 100.152 194.254 99.84C194.734 99.516 195.004 99.12 195.064 98.652V97.788H192.634C192.01 97.788 191.548 97.884 191.248 98.076C190.96 98.256 190.816 98.556 190.816 98.976C190.816 99.384 190.966 99.708 191.266 99.948C191.578 100.188 191.998 100.308 192.526 100.308ZM192.436 88.32L194.254 90.912L192.418 91.092L190.186 89.238L192.436 88.32ZM210.093 92.298C210.993 92.298 211.785 92.508 212.469 92.928C213.165 93.336 213.699 93.912 214.071 94.656C214.455 95.4 214.647 96.258 214.647 97.23C214.647 98.19 214.461 99.036 214.089 99.768C213.717 100.5 213.189 101.07 212.505 101.478C211.821 101.886 211.029 102.09 210.129 102.09C209.409 102.09 208.773 101.952 208.221 101.676C207.669 101.388 207.213 100.974 206.853 100.434V102H204.513V88.644H206.853V93.954C207.201 93.414 207.645 93.006 208.185 92.73C208.737 92.442 209.373 92.298 210.093 92.298ZM209.571 100.074C210.363 100.074 211.011 99.804 211.515 99.264C212.019 98.712 212.271 98.01 212.271 97.158C212.271 96.306 212.019 95.61 211.515 95.07C211.011 94.53 210.363 94.26 209.571 94.26C208.767 94.26 208.113 94.53 207.609 95.07C207.105 95.61 206.853 96.306 206.853 97.158C206.853 98.022 207.105 98.724 207.609 99.264C208.113 99.804 208.767 100.074 209.571 100.074ZM216.675 92.37H219.015V102H216.675V92.37ZM217.827 88.23C218.211 88.23 218.529 88.362 218.781 88.626C219.033 88.89 219.159 89.226 219.159 89.634C219.159 90.03 219.033 90.36 218.781 90.624C218.529 90.888 218.211 91.02 217.827 91.02C217.443 91.02 217.125 90.888 216.873 90.624C216.621 90.36 216.495 90.03 216.495 89.634C216.495 89.226 216.621 88.89 216.873 88.626C217.125 88.362 217.443 88.23 217.827 88.23ZM225.927 92.298C227.463 92.298 228.615 92.736 229.383 93.612C230.163 94.488 230.553 95.718 230.553 97.302C230.553 97.614 230.547 97.848 230.535 98.004H223.425C223.581 98.688 223.899 99.228 224.379 99.624C224.871 100.008 225.471 100.2 226.179 100.2C226.671 100.2 227.139 100.11 227.583 99.93C228.039 99.738 228.435 99.468 228.771 99.12L230.031 100.434C229.551 100.962 228.963 101.37 228.267 101.658C227.583 101.946 226.821 102.09 225.981 102.09C224.997 102.09 224.127 101.886 223.371 101.478C222.627 101.07 222.051 100.5 221.643 99.768C221.235 99.024 221.031 98.172 221.031 97.212C221.031 96.252 221.235 95.4 221.643 94.656C222.063 93.912 222.645 93.336 223.389 92.928C224.133 92.508 224.979 92.298 225.927 92.298ZM228.411 96.438C228.387 95.73 228.153 95.166 227.709 94.746C227.265 94.326 226.677 94.116 225.945 94.116C225.261 94.116 224.685 94.326 224.217 94.746C223.761 95.154 223.479 95.718 223.371 96.438H228.411ZM238.361 92.28C239.465 92.28 240.335 92.616 240.971 93.288C241.607 93.948 241.925 94.848 241.925 95.988V102H239.567V96.672C239.567 96 239.375 95.472 238.991 95.088C238.607 94.692 238.085 94.494 237.425 94.494C236.645 94.506 236.027 94.77 235.571 95.286C235.127 95.802 234.905 96.462 234.905 97.266V102H232.565V92.37H234.905V94.17C235.565 92.934 236.717 92.304 238.361 92.28ZM251.306 94.224C251.63 93.6 252.068 93.126 252.62 92.802C253.184 92.466 253.838 92.292 254.582 92.28V94.548C253.586 94.488 252.788 94.722 252.188 95.25C251.6 95.766 251.306 96.468 251.306 97.356V102H248.966V92.37H251.306V94.224ZM260.438 92.298C261.434 92.298 262.31 92.502 263.066 92.91C263.834 93.318 264.428 93.894 264.848 94.638C265.28 95.37 265.496 96.216 265.496 97.176C265.496 98.148 265.28 99.006 264.848 99.75C264.428 100.494 263.834 101.07 263.066 101.478C262.31 101.886 261.434 102.09 260.438 102.09C259.43 102.09 258.542 101.886 257.774 101.478C257.006 101.07 256.406 100.494 255.974 99.75C255.554 99.006 255.344 98.148 255.344 97.176C255.344 96.216 255.554 95.37 255.974 94.638C256.406 93.894 257.006 93.318 257.774 92.91C258.542 92.502 259.43 92.298 260.438 92.298ZM260.438 94.296C259.622 94.296 258.962 94.566 258.458 95.106C257.954 95.646 257.702 96.348 257.702 97.212C257.702 98.076 257.954 98.778 258.458 99.318C258.962 99.858 259.622 100.128 260.438 100.128C261.23 100.128 261.878 99.858 262.382 99.318C262.886 98.778 263.138 98.076 263.138 97.212C263.138 96.348 262.886 95.646 262.382 95.106C261.878 94.566 261.23 94.296 260.438 94.296ZM276.816 88.644V102H274.476V100.452C274.128 100.992 273.678 101.406 273.126 101.694C272.586 101.97 271.956 102.108 271.236 102.108C270.324 102.108 269.52 101.904 268.824 101.496C268.14 101.076 267.606 100.494 267.222 99.75C266.838 98.994 266.646 98.13 266.646 97.158C266.646 96.198 266.832 95.352 267.204 94.62C267.588 93.876 268.122 93.3 268.806 92.892C269.502 92.484 270.294 92.28 271.182 92.28C271.914 92.28 272.556 92.424 273.108 92.712C273.66 93 274.116 93.414 274.476 93.954V88.644H276.816ZM271.74 100.146C272.544 100.146 273.198 99.876 273.702 99.336C274.218 98.784 274.476 98.076 274.476 97.212C274.476 96.348 274.218 95.646 273.702 95.106C273.198 94.554 272.544 94.278 271.74 94.278C270.936 94.278 270.282 94.554 269.778 95.106C269.274 95.646 269.016 96.348 269.004 97.212C269.016 98.076 269.274 98.784 269.778 99.336C270.282 99.876 270.936 100.146 271.74 100.146ZM283.829 92.298C285.365 92.298 286.517 92.736 287.285 93.612C288.065 94.488 288.455 95.718 288.455 97.302C288.455 97.614 288.449 97.848 288.437 98.004H281.327C281.483 98.688 281.801 99.228 282.281 99.624C282.773 100.008 283.373 100.2 284.081 100.2C284.573 100.2 285.041 100.11 285.485 99.93C285.941 99.738 286.337 99.468 286.673 99.12L287.933 100.434C287.453 100.962 286.865 101.37 286.169 101.658C285.485 101.946 284.723 102.09 283.883 102.09C282.899 102.09 282.029 101.886 281.273 101.478C280.529 101.07 279.953 100.5 279.545 99.768C279.137 99.024 278.933 98.172 278.933 97.212C278.933 96.252 279.137 95.4 279.545 94.656C279.965 93.912 280.547 93.336 281.291 92.928C282.035 92.508 282.881 92.298 283.829 92.298ZM286.313 96.438C286.289 95.73 286.055 95.166 285.611 94.746C285.167 94.326 284.579 94.116 283.847 94.116C283.163 94.116 282.587 94.326 282.119 94.746C281.663 95.154 281.381 95.718 281.273 96.438H286.313ZM284.423 88.338L286.673 89.256L284.369 91.11L282.551 90.93L284.423 88.338ZM122.08 116.98C121.612 116.704 121.126 116.488 120.622 116.332C120.13 116.176 119.674 116.098 119.254 116.098C118.858 116.098 118.54 116.17 118.3 116.314C118.072 116.446 117.958 116.656 117.958 116.944C117.958 117.244 118.102 117.478 118.39 117.646C118.69 117.802 119.158 117.97 119.794 118.15C120.466 118.354 121.018 118.558 121.45 118.762C121.882 118.954 122.254 119.248 122.566 119.644C122.89 120.028 123.052 120.538 123.052 121.174C123.052 122.11 122.692 122.83 121.972 123.334C121.252 123.838 120.346 124.09 119.254 124.09C118.51 124.09 117.784 123.976 117.076 123.748C116.368 123.508 115.768 123.172 115.276 122.74L116.086 121.102C116.518 121.474 117.034 121.768 117.634 121.984C118.234 122.188 118.804 122.29 119.344 122.29C119.776 122.29 120.118 122.218 120.37 122.074C120.634 121.918 120.766 121.69 120.766 121.39C120.766 121.054 120.616 120.802 120.316 120.634C120.016 120.466 119.53 120.28 118.858 120.076C118.21 119.884 117.682 119.698 117.274 119.518C116.866 119.326 116.512 119.044 116.212 118.672C115.912 118.288 115.762 117.79 115.762 117.178C115.762 116.23 116.104 115.51 116.788 115.018C117.484 114.514 118.354 114.262 119.398 114.262C120.034 114.262 120.658 114.352 121.27 114.532C121.894 114.712 122.446 114.964 122.926 115.288L122.08 116.98ZM133.95 114.37V124H131.592V122.218C130.944 123.466 129.828 124.09 128.244 124.09C127.164 124.09 126.312 123.76 125.688 123.1C125.064 122.44 124.752 121.54 124.752 120.4V114.37H127.11V119.716C127.11 120.388 127.29 120.916 127.65 121.3C128.022 121.684 128.532 121.876 129.18 121.876C129.924 121.864 130.512 121.6 130.944 121.084C131.376 120.568 131.592 119.914 131.592 119.122V114.37H133.95ZM139.21 116.224C139.534 115.6 139.972 115.126 140.524 114.802C141.088 114.466 141.742 114.292 142.486 114.28V116.548C141.49 116.488 140.692 116.722 140.092 117.25C139.504 117.766 139.21 118.468 139.21 119.356V124H136.87V114.37H139.21V116.224ZM148.632 110.644H150.972V124H148.632V110.644ZM157.988 114.298C159.524 114.298 160.676 114.736 161.444 115.612C162.224 116.488 162.614 117.718 162.614 119.302C162.614 119.614 162.608 119.848 162.596 120.004H155.486C155.642 120.688 155.96 121.228 156.44 121.624C156.932 122.008 157.532 122.2 158.24 122.2C158.732 122.2 159.2 122.11 159.644 121.93C160.1 121.738 160.496 121.468 160.832 121.12L162.092 122.434C161.612 122.962 161.024 123.37 160.328 123.658C159.644 123.946 158.882 124.09 158.042 124.09C157.058 124.09 156.188 123.886 155.432 123.478C154.688 123.07 154.112 122.5 153.704 121.768C153.296 121.024 153.092 120.172 153.092 119.212C153.092 118.252 153.296 117.4 153.704 116.656C154.124 115.912 154.706 115.336 155.45 114.928C156.194 114.508 157.04 114.298 157.988 114.298ZM160.472 118.438C160.448 117.73 160.214 117.166 159.77 116.746C159.326 116.326 158.738 116.116 158.006 116.116C157.322 116.116 156.746 116.326 156.278 116.746C155.822 117.154 155.54 117.718 155.432 118.438H160.472ZM170.332 116.98C169.864 116.704 169.378 116.488 168.874 116.332C168.382 116.176 167.926 116.098 167.506 116.098C167.11 116.098 166.792 116.17 166.552 116.314C166.324 116.446 166.21 116.656 166.21 116.944C166.21 117.244 166.354 117.478 166.642 117.646C166.942 117.802 167.41 117.97 168.046 118.15C168.718 118.354 169.27 118.558 169.702 118.762C170.134 118.954 170.506 119.248 170.818 119.644C171.142 120.028 171.304 120.538 171.304 121.174C171.304 122.11 170.944 122.83 170.224 123.334C169.504 123.838 168.598 124.09 167.506 124.09C166.762 124.09 166.036 123.976 165.328 123.748C164.62 123.508 164.02 123.172 163.528 122.74L164.338 121.102C164.77 121.474 165.286 121.768 165.886 121.984C166.486 122.188 167.056 122.29 167.596 122.29C168.028 122.29 168.37 122.218 168.622 122.074C168.886 121.918 169.018 121.69 169.018 121.39C169.018 121.054 168.868 120.802 168.568 120.634C168.268 120.466 167.782 120.28 167.11 120.076C166.462 119.884 165.934 119.698 165.526 119.518C165.118 119.326 164.764 119.044 164.464 118.672C164.164 118.288 164.014 117.79 164.014 117.178C164.014 116.23 164.356 115.51 165.04 115.018C165.736 114.514 166.606 114.262 167.65 114.262C168.286 114.262 168.91 114.352 169.522 114.532C170.146 114.712 170.698 114.964 171.178 115.288L170.332 116.98ZM183.428 116.98C182.96 116.704 182.474 116.488 181.97 116.332C181.478 116.176 181.022 116.098 180.602 116.098C180.206 116.098 179.888 116.17 179.648 116.314C179.42 116.446 179.306 116.656 179.306 116.944C179.306 117.244 179.45 117.478 179.738 117.646C180.038 117.802 180.506 117.97 181.142 118.15C181.814 118.354 182.366 118.558 182.798 118.762C183.23 118.954 183.602 119.248 183.914 119.644C184.238 120.028 184.4 120.538 184.4 121.174C184.4 122.11 184.04 122.83 183.32 123.334C182.6 123.838 181.694 124.09 180.602 124.09C179.858 124.09 179.132 123.976 178.424 123.748C177.716 123.508 177.116 123.172 176.624 122.74L177.434 121.102C177.866 121.474 178.382 121.768 178.982 121.984C179.582 122.188 180.152 122.29 180.692 122.29C181.124 122.29 181.466 122.218 181.718 122.074C181.982 121.918 182.114 121.69 182.114 121.39C182.114 121.054 181.964 120.802 181.664 120.634C181.364 120.466 180.878 120.28 180.206 120.076C179.558 119.884 179.03 119.698 178.622 119.518C178.214 119.326 177.86 119.044 177.56 118.672C177.26 118.288 177.11 117.79 177.11 117.178C177.11 116.23 177.452 115.51 178.136 115.018C178.832 114.514 179.702 114.262 180.746 114.262C181.382 114.262 182.006 114.352 182.618 114.532C183.242 114.712 183.794 114.964 184.274 115.288L183.428 116.98ZM195.297 114.37V124H192.939V122.218C192.291 123.466 191.175 124.09 189.591 124.09C188.511 124.09 187.659 123.76 187.035 123.1C186.411 122.44 186.099 121.54 186.099 120.4V114.37H188.457V119.716C188.457 120.388 188.637 120.916 188.997 121.3C189.369 121.684 189.879 121.876 190.527 121.876C191.271 121.864 191.859 121.6 192.291 121.084C192.723 120.568 192.939 119.914 192.939 119.122V114.37H195.297ZM196.166 125.458C196.442 125.554 196.718 125.608 196.994 125.62C197.39 125.632 197.69 125.5 197.894 125.224C198.11 124.96 198.218 124.57 198.218 124.054V114.37H200.558V124.414C200.558 125.41 200.288 126.184 199.748 126.736C199.22 127.3 198.482 127.582 197.534 127.582C196.874 127.582 196.25 127.462 195.662 127.222L196.166 125.458ZM199.37 110.23C199.754 110.23 200.072 110.362 200.324 110.626C200.576 110.89 200.702 111.226 200.702 111.634C200.702 112.03 200.576 112.36 200.324 112.624C200.072 112.888 199.754 113.02 199.37 113.02C198.986 113.02 198.668 112.888 198.416 112.624C198.164 112.36 198.038 112.03 198.038 111.634C198.038 111.226 198.164 110.89 198.416 110.626C198.668 110.362 198.986 110.23 199.37 110.23ZM207.347 114.298C208.883 114.298 210.035 114.736 210.803 115.612C211.583 116.488 211.973 117.718 211.973 119.302C211.973 119.614 211.967 119.848 211.955 120.004H204.845C205.001 120.688 205.319 121.228 205.799 121.624C206.291 122.008 206.891 122.2 207.599 122.2C208.091 122.2 208.559 122.11 209.003 121.93C209.459 121.738 209.855 121.468 210.191 121.12L211.451 122.434C210.971 122.962 210.383 123.37 209.687 123.658C209.003 123.946 208.241 124.09 207.401 124.09C206.417 124.09 205.547 123.886 204.791 123.478C204.047 123.07 203.471 122.5 203.063 121.768C202.655 121.024 202.451 120.172 202.451 119.212C202.451 118.252 202.655 117.4 203.063 116.656C203.483 115.912 204.065 115.336 204.809 114.928C205.553 114.508 206.399 114.298 207.347 114.298ZM209.831 118.438C209.807 117.73 209.573 117.166 209.129 116.746C208.685 116.326 208.097 116.116 207.365 116.116C206.681 116.116 206.105 116.326 205.637 116.746C205.181 117.154 204.899 117.718 204.791 118.438H209.831ZM219.619 123.406C218.851 123.874 218.047 124.108 217.207 124.108C216.379 124.108 215.701 123.868 215.173 123.388C214.645 122.896 214.381 122.176 214.381 121.228V116.476H213.031L213.013 114.766H214.381V112.12H216.703V114.766H219.457V116.476H216.703V120.814C216.703 121.258 216.787 121.576 216.955 121.768C217.123 121.948 217.375 122.038 217.711 122.038C218.071 122.038 218.527 121.906 219.079 121.642L219.619 123.406ZM227.162 116.98C226.694 116.704 226.208 116.488 225.704 116.332C225.212 116.176 224.756 116.098 224.336 116.098C223.94 116.098 223.622 116.17 223.382 116.314C223.154 116.446 223.04 116.656 223.04 116.944C223.04 117.244 223.184 117.478 223.472 117.646C223.772 117.802 224.24 117.97 224.876 118.15C225.548 118.354 226.1 118.558 226.532 118.762C226.964 118.954 227.336 119.248 227.648 119.644C227.972 120.028 228.134 120.538 228.134 121.174C228.134 122.11 227.774 122.83 227.054 123.334C226.334 123.838 225.428 124.09 224.336 124.09C223.592 124.09 222.866 123.976 222.158 123.748C221.45 123.508 220.85 123.172 220.358 122.74L221.168 121.102C221.6 121.474 222.116 121.768 222.716 121.984C223.316 122.188 223.886 122.29 224.426 122.29C224.858 122.29 225.2 122.218 225.452 122.074C225.716 121.918 225.848 121.69 225.848 121.39C225.848 121.054 225.698 120.802 225.398 120.634C225.098 120.466 224.612 120.28 223.94 120.076C223.292 119.884 222.764 119.698 222.356 119.518C221.948 119.326 221.594 119.044 221.294 118.672C220.994 118.288 220.844 117.79 220.844 117.178C220.844 116.23 221.186 115.51 221.87 115.018C222.566 114.514 223.436 114.262 224.48 114.262C225.116 114.262 225.74 114.352 226.352 114.532C226.976 114.712 227.528 114.964 228.008 115.288L227.162 116.98ZM234.192 111.526H236.442V114.658L236.046 119.896H234.588L234.192 114.658V111.526ZM235.308 121.57C235.668 121.57 235.962 121.69 236.19 121.93C236.43 122.17 236.55 122.476 236.55 122.848C236.55 123.232 236.43 123.55 236.19 123.802C235.962 124.042 235.668 124.162 235.308 124.162C234.96 124.162 234.666 124.036 234.426 123.784C234.198 123.532 234.084 123.22 234.084 122.848C234.084 122.476 234.198 122.17 234.426 121.93C234.666 121.69 234.96 121.57 235.308 121.57Z" fill="black"/>
<path d="M6.26761 127.494C3.53108 125.968 3.53109 122.032 6.26761 120.506L37.5524 103.067C40.2186 101.58 43.5 103.508 43.5 106.561L43.5 141.439C43.5 144.492 40.2186 146.42 37.5524 144.933L6.26761 127.494Z" fill="white"/>
</svg>
