<svg width="305" height="222" viewBox="0 0 305 222" fill="none" xmlns="http://www.w3.org/2000/svg">
<path d="M284.77 164.91V162.69H253.17L280.8 150.34L279.9 148.31L250.94 161.25L274.92 138.21L273.38 136.61L249.34 159.7L263.35 131.16L261.36 130.18L247.79 157.82V125.71H245.57V161.04L244.65 160.08L231.04 129.64L229.02 130.54L240.1 155.35L221.09 135.57L219.49 137.1L242.78 161.34L243.31 162.52L211.87 147.09L210.89 149.08L238.61 162.69H208.59V164.91H242.75L210.34 179.4L211.25 181.42L240.21 168.48L218.45 189.39L219.99 190.99L241.8 170.03L227.8 198.57L229.79 199.55L245.53 167.48L245.57 167.59V201.89H247.79V172.56L260.1 200.1L262.13 199.19L247.84 167.22L248.95 167.76L272.28 192.03L273.88 190.5L254.78 170.62L279.28 182.64L280.26 180.65L250.28 165.94L249.29 164.91H284.77Z" fill="#F0EADB" stroke="black" stroke-miterlimit="10"/>
<path d="M96.21 164.91V162.69H64.6L92.24 150.34L91.33 148.31L62.37 161.25L86.36 138.21L84.82 136.61L60.78 159.7L74.79 131.16L72.79 130.18L59.23 157.82V125.71H57.01V161.04L56.09 160.08L42.48 129.64L40.45 130.54L51.54 155.35L32.53 135.57L30.93 137.1L54.22 161.34L54.74 162.52L23.3 147.09L22.33 149.08L50.05 162.69H20.03V164.91H54.19L21.78 179.4L22.69 181.42L51.65 168.48L29.89 189.39L31.43 190.99L53.24 170.03L39.23 198.57L41.23 199.55L56.96 167.48L57.01 167.59V201.89H59.23V172.56L71.54 200.1L73.57 199.19L59.28 167.22L60.39 167.76L83.71 192.03L85.32 190.5L66.22 170.62L90.72 182.64L91.7 180.65L61.72 165.94L60.73 164.91H96.21Z" fill="#F0EADB" stroke="black" stroke-miterlimit="10"/>
<path d="M58.1201 107C26.7401 107 1.31006 132.44 1.31006 163.81C1.31006 195.19 26.7501 220.62 58.1201 220.62C89.4901 220.62 114.93 195.18 114.93 163.81C114.93 132.43 89.4901 107 58.1201 107ZM58.1201 211.93C31.5501 211.93 10.0001 190.38 10.0001 163.8C10.0001 137.23 31.5401 115.69 58.1201 115.69C84.6901 115.69 106.23 137.23 106.23 163.8C106.24 190.38 84.6901 211.93 58.1201 211.93Z" fill="#2EAD72" stroke="black" stroke-width="2" stroke-miterlimit="10"/>
<path d="M246.69 107C215.31 107 189.88 132.44 189.88 163.81C189.88 195.19 215.32 220.62 246.69 220.62C278.06 220.62 303.5 195.18 303.5 163.81C303.49 132.43 278.06 107 246.69 107ZM246.69 211.93C220.11 211.93 198.57 190.39 198.57 163.81C198.57 137.24 220.11 115.7 246.69 115.7C273.26 115.7 294.8 137.24 294.8 163.81C294.8 190.38 273.26 211.93 246.69 211.93Z" fill="#2EAD72" stroke="black" stroke-width="2" stroke-miterlimit="10"/>
<path d="M131.717 129.176L56.5547 164.06L57.6535 166.428L132.816 131.544L131.717 129.176Z" fill="#2EAD72" stroke="black" stroke-width="2" stroke-miterlimit="10"/>
<path d="M146.95 135.86L142.71 150.45L145.72 153.64L152.59 133.74L146.95 135.86Z" fill="#022C25" stroke="black" stroke-width="2" stroke-miterlimit="10"/>
<path d="M135.16 140.29L137.88 150.78L143.23 152.17L139.19 138.77L135.16 140.29Z" fill="#022C25" stroke="black" stroke-width="2" stroke-miterlimit="10"/>
<path d="M143.98 179.76H138.59V192.07H143.98V179.76Z" fill="#022C25" stroke="black" stroke-width="2" stroke-miterlimit="10"/>
<path d="M221.95 111.12C220.91 111.12 219.88 110.66 219.19 109.78C218 108.26 218.27 106.06 219.79 104.87C226.17 99.89 228.89 92.45 228.12 82.11C227.47 73.38 224.28 62.86 218.65 50.84C208.88 30.01 195.05 11.88 194.91 11.7C193.74 10.17 194.02 7.97001 195.56 6.80001C197.09 5.63001 199.28 5.91001 200.46 7.44001C202.84 10.54 258.32 83.66 224.09 110.38C223.46 110.88 222.7 111.12 221.95 111.12Z" fill="#022C25" stroke="black" stroke-width="2" stroke-miterlimit="10"/>
<path d="M58.1201 118.83C33.2801 118.83 13.1401 138.97 13.1401 163.81C13.1401 188.65 33.2801 208.79 58.1201 208.79C82.9601 208.79 103.1 188.65 103.1 163.81C103.1 138.97 82.9601 118.83 58.1201 118.83ZM58.1201 201.91C37.0801 201.91 20.0201 184.85 20.0201 163.81C20.0201 142.77 37.0801 125.71 58.1201 125.71C79.1601 125.71 96.2201 142.77 96.2201 163.81C96.2201 184.85 79.1601 201.91 58.1201 201.91Z" fill="#F0EADB" stroke="black" stroke-width="2" stroke-miterlimit="10"/>
<path d="M246.69 118.83C221.85 118.83 201.71 138.97 201.71 163.81C201.71 188.65 221.85 208.79 246.69 208.79C271.53 208.79 291.67 188.65 291.67 163.81C291.66 138.97 271.52 118.83 246.69 118.83ZM246.69 201.91C225.65 201.91 208.59 184.85 208.59 163.81C208.59 142.77 225.65 125.71 246.69 125.71C267.73 125.71 284.79 142.77 284.79 163.81C284.78 184.85 267.72 201.91 246.69 201.91Z" fill="#F0EADB" stroke="black" stroke-width="2" stroke-miterlimit="10"/>
<path d="M58.1201 179.95C66.2663 179.95 72.8701 173.346 72.8701 165.2C72.8701 157.054 66.2663 150.45 58.1201 150.45C49.9739 150.45 43.3701 157.054 43.3701 165.2C43.3701 173.346 49.9739 179.95 58.1201 179.95Z" fill="#F0EADB" stroke="black" stroke-width="2" stroke-miterlimit="10"/>
<path d="M246.68 179.95C254.826 179.95 261.43 173.346 261.43 165.2C261.43 157.054 254.826 150.45 246.68 150.45C238.534 150.45 231.93 157.054 231.93 165.2C231.93 173.346 238.534 179.95 246.68 179.95Z" fill="#F0EADB" stroke="black" stroke-width="2" stroke-miterlimit="10"/>
<path d="M227 123.35L190.57 9.99002C190.1 8.53002 188.53 7.72002 187.07 8.19002C185.61 8.66002 184.8 10.23 185.27 11.69L222.06 126.16C222.06 126.17 222.14 126.4 222.27 126.81L222.54 127.65C222.55 127.67 222.56 127.68 222.56 127.7C224.05 132.21 229.27 145.27 233.53 151.44C238.71 158.94 242.5 164.63 242.5 164.63L246.67 161.72C246.68 161.73 231.34 136.86 227 123.35Z" fill="#2EAD72" stroke="black" stroke-width="2" stroke-miterlimit="10"/>
<path d="M137.05 166.29C135.79 166.71 134.43 166.03 134 164.77L101.7 68.58C101.28 67.32 101.96 65.96 103.22 65.53C104.48 65.11 105.84 65.79 106.27 67.05L138.57 163.24C138.99 164.5 138.31 165.87 137.05 166.29Z" fill="#2EAD72" stroke="black" stroke-width="2" stroke-miterlimit="10"/>
<path d="M72.7698 60.65C71.1098 58.96 70.1098 56.68 70.2498 54.31C70.3298 52.93 70.7698 51.5 71.9898 50.44C71.6098 50.69 73.5098 47.86 80.4798 49.66C82.9098 50.29 85.3798 50.77 87.8698 50.99C94.8998 51.61 107.95 52.18 116.55 49.06C122.41 47.01 126.54 47.88 129.33 49.51C132.5 51.36 132.41 55.97 129.17 57.69L106.53 69.76C106.53 69.76 90.0498 78.19 72.7698 60.65Z" fill="#F0EADB" stroke="black" stroke-width="2" stroke-miterlimit="10"/>
<path d="M91.52 101.8H112.86L134.01 164.78L115.25 171L91.52 101.8Z" fill="#2EAD72" stroke="black" stroke-width="2" stroke-miterlimit="10"/>
<path d="M115.25 171L109.04 173.44C111.11 179.99 118.01 183.71 124.63 181.84L137.88 178.1L134.01 164.78L115.25 171Z" fill="#F0EADB" stroke="black" stroke-width="2" stroke-miterlimit="10"/>
<path d="M126.23 126.5L212.04 94.96L216.75 109.63L131.34 141.72L126.23 126.5Z" fill="#2EAD72" stroke="black" stroke-width="2" stroke-miterlimit="10"/>
<path d="M152.41 119.56C151.61 119.56 150.81 119.2 150.28 118.52C138.42 103.18 120.41 108.69 120.23 108.74C118.81 109.19 117.3 108.41 116.85 106.99C116.4 105.58 117.18 104.06 118.6 103.61C118.82 103.54 124.15 101.88 131.2 102.46C137.77 103 147.14 105.66 154.53 115.22C155.44 116.39 155.22 118.08 154.05 118.99C153.56 119.38 152.98 119.56 152.41 119.56Z" fill="#022C25" stroke="black" stroke-width="2" stroke-miterlimit="10"/>
<path d="M97.3601 123.4C96.7101 123.4 96.0601 123.26 95.4301 122.97L76.6401 114.2H30.4401C27.9201 114.2 25.8701 112.15 25.8701 109.63C25.8701 107.11 27.9201 105.06 30.4401 105.06H77.6501C78.3201 105.06 78.9801 105.21 79.5801 105.49L99.2901 114.69C101.58 115.76 102.57 118.48 101.5 120.76C100.73 122.42 99.0801 123.4 97.3601 123.4Z" fill="#F0EADB" stroke="black" stroke-width="2" stroke-miterlimit="10"/>
<path d="M193.57 18.14C198.303 18.14 202.14 14.3031 202.14 9.57C202.14 4.83692 198.303 1 193.57 1C188.837 1 185 4.83692 185 9.57C185 14.3031 188.837 18.14 193.57 18.14Z" fill="#F0EADB" stroke="black" stroke-width="2" stroke-miterlimit="10"/>
<path d="M143.07 201.04H138.49C136.01 201.04 134.01 199.03 134.01 196.56C134.01 194.08 136.02 192.08 138.49 192.08H143.07C145.55 192.08 147.55 194.09 147.55 196.56C147.56 199.03 145.55 201.04 143.07 201.04Z" fill="#2EAD72" stroke="black" stroke-width="2" stroke-miterlimit="10"/>
<path d="M140.98 179.95C149.126 179.95 155.73 173.346 155.73 165.2C155.73 157.054 149.126 150.45 140.98 150.45C132.834 150.45 126.23 157.054 126.23 165.2C126.23 173.346 132.834 179.95 140.98 179.95Z" fill="#2EAD72" stroke="black" stroke-width="2" stroke-miterlimit="10"/>
<path d="M140.98 163.81H58.1201V166.42H140.98V163.81Z" fill="#2EAD72" stroke="black" stroke-width="2" stroke-miterlimit="10"/>
<path d="M58.1199 168.67C60.0363 168.67 61.5899 167.116 61.5899 165.2C61.5899 163.284 60.0363 161.73 58.1199 161.73C56.2035 161.73 54.6499 163.284 54.6499 165.2C54.6499 167.116 56.2035 168.67 58.1199 168.67Z" fill="#022C25" stroke="black" stroke-width="2" stroke-miterlimit="10"/>
<path d="M140.98 168.67C142.897 168.67 144.45 167.116 144.45 165.2C144.45 163.284 142.897 161.73 140.98 161.73C139.064 161.73 137.51 163.284 137.51 165.2C137.51 167.116 139.064 168.67 140.98 168.67Z" fill="#F0EADB" stroke="black" stroke-width="2" stroke-miterlimit="10"/>
<path d="M246.68 170.63C249.138 170.63 251.13 168.638 251.13 166.18C251.13 163.722 249.138 161.73 246.68 161.73C244.222 161.73 242.23 163.722 242.23 166.18C242.23 168.638 244.222 170.63 246.68 170.63Z" fill="#022C25" stroke="black" stroke-width="2" stroke-miterlimit="10"/>
<path d="M111.24 120.82C108.18 120.69 106.13 123.94 107.58 126.64L110.25 131.62C110.37 131.84 110.2 132.12 109.95 132.1L105.65 131.91C104.9 131.88 104.44 132.73 104.88 133.33L118.29 151.9C118.4 152.06 118.65 151.93 118.58 151.75L113.74 138.44C113.65 138.2 113.84 137.94 114.1 137.95L117.76 138.11C119.31 138.18 120.4 136.6 119.79 135.17L114.69 123.21C114.11 121.82 112.76 120.89 111.24 120.82Z" fill="#EF6C46" stroke="black" stroke-miterlimit="10"/>
</svg>
