<svg width="380" height="111" viewBox="0 0 380 111" fill="none" xmlns="http://www.w3.org/2000/svg">
<rect x="56" y="-40" width="276" height="151" rx="39" fill="#24AE70"/>
<path d="M118.702 47.7571C118.802 47.7571 119.102 47.6571 119.202 47.6571C119.502 47.5571 120.002 47.2571 120.402 47.3571C120.702 47.3571 121.002 47.5571 121.102 47.7571C121.202 47.9571 121.302 48.0571 121.302 48.2571C121.302 48.5571 121.102 48.8571 120.902 48.9571C120.202 49.5571 119.302 49.8571 118.402 50.3571C117.902 50.6571 117.302 50.9571 117.202 51.3571C116.602 53.7571 116.002 56.2571 115.602 58.7571C115.502 59.5571 115.602 60.3571 116.002 61.1571C116.402 61.8571 117.202 62.1571 118.002 61.8571C118.102 61.7571 118.302 61.7571 118.502 61.6571C119.002 61.3571 119.402 60.9571 119.802 60.5571C121.902 58.0571 124.002 55.5571 125.902 52.8571C129.702 47.5571 133.302 41.9571 137.102 36.6571C138.702 34.3571 140.702 32.3571 143.302 31.2571C144.002 30.9571 144.802 30.8571 145.602 30.8571C146.102 30.8571 146.502 31.0571 146.702 31.4571C146.802 31.6571 146.802 31.8571 146.702 31.9571C146.502 32.2571 146.302 32.5571 146.002 32.6571C143.302 33.3571 141.302 34.5571 139.802 36.5571C136.002 41.6571 132.402 46.9571 128.702 52.1571C126.502 55.2571 124.202 58.3571 121.902 61.4571C121.202 62.3571 120.202 63.1571 119.202 63.7571C116.802 65.2571 114.202 64.1571 113.402 61.4571C112.702 58.9571 113.302 56.6571 113.802 54.2571C113.902 53.6571 114.102 52.9571 114.402 52.3571C114.802 51.4571 114.702 50.8571 113.802 50.5571C107.502 48.3571 105.602 44.1571 108.002 37.9571C109.402 34.4571 111.302 31.3571 114.902 29.9571C118.202 28.6571 123.302 30.2571 123.002 35.4571C122.802 38.6571 121.402 41.3571 120.202 44.1571C119.902 45.0571 119.302 46.4571 118.702 47.7571ZM120.902 35.8571C121.102 35.1571 121.202 34.4571 121.002 33.7571C120.702 32.5571 119.802 31.8571 118.402 31.5571C116.702 31.1571 115.302 31.6571 114.102 32.7571C111.402 35.1571 109.902 38.1571 109.502 41.7571C109.102 44.9571 110.702 47.1571 113.802 48.2571C115.502 48.8571 116.002 48.6571 116.702 46.9571C117.402 45.4571 118.102 44.0571 118.702 42.5571C119.402 40.6571 120.502 37.3571 120.902 35.8571Z" fill="white"/>
<path d="M170.302 40.5571C171.352 40.5571 172.202 39.7064 172.202 38.6571C172.202 37.6077 171.352 36.7571 170.302 36.7571C169.253 36.7571 168.402 37.6077 168.402 38.6571C168.402 39.7064 169.253 40.5571 170.302 40.5571Z" fill="white"/>
<path d="M151.902 36.357L145.702 38.957C145.302 39.157 144.803 38.957 144.603 38.557C144.403 38.157 144.603 37.657 145.003 37.457L151.202 34.857C151.602 34.657 152.103 34.857 152.303 35.257C152.503 35.657 152.302 36.157 151.902 36.357Z" fill="white"/>
<path d="M191.502 47.457H187.302H184.802H180.602C180.102 47.457 179.702 47.857 179.702 48.357C179.702 48.857 180.102 49.257 180.602 49.257H184.802H187.302H191.502C192.002 49.257 192.402 48.857 192.402 48.357C192.402 47.857 192.002 47.457 191.502 47.457Z" fill="white"/>
<path d="M174.202 49.8569C173.402 49.2569 172.803 49.9569 172.303 50.5569C170.903 52.3569 169.503 54.2569 168.003 56.0569C166.903 57.2569 165.802 58.5569 164.402 59.4569C162.502 60.6569 160.702 59.6569 160.902 57.4569C161.002 56.1569 161.302 54.7569 161.902 53.6569C163.802 50.4569 165.903 47.3569 167.803 44.1569C168.303 43.3569 169.302 42.4569 168.102 41.7569C167.002 41.0569 166.602 42.3569 166.102 42.9569C165.702 43.4569 165.302 44.0569 164.902 44.5569C162.202 48.3569 159.602 52.0569 156.702 55.9569C155.702 57.3569 154.502 58.4569 153.102 59.3569C151.202 60.6569 149.502 59.5569 149.602 57.2569C149.602 56.4569 149.702 55.6569 150.102 54.9569C151.102 52.9569 152.103 51.0569 153.303 49.1569C156.103 44.8569 158.903 40.6569 161.803 36.3569C163.703 33.4569 165.603 30.6569 167.503 27.6569C167.603 27.5569 167.602 27.4569 167.602 27.3569C167.702 26.6569 166.903 26.1569 166.303 26.3569C166.203 26.3569 166.002 26.4569 165.902 26.4569C165.602 26.5569 165.503 26.9569 165.303 27.2569C163.403 30.0569 161.602 32.9569 159.702 35.7569C155.302 42.1569 151.002 48.6569 146.402 54.9569C145.102 56.6569 143.302 58.1569 141.402 59.1569C140.302 59.7569 138.502 59.6569 137.202 59.1569C134.802 58.2569 134.603 53.7569 136.803 52.2569C137.003 52.0569 137.402 52.0569 137.702 52.1569C143.102 53.8569 147.103 50.5569 149.003 46.3569C150.203 43.8569 148.902 41.3569 146.402 41.3569C145.202 41.3569 143.802 41.8569 142.702 42.5569C138.602 45.3569 135.602 49.0569 133.702 53.6569C132.102 57.3569 134.002 60.9569 137.902 61.7569C140.702 62.3569 143.002 61.2569 145.102 59.4569C145.402 59.1569 145.802 58.8569 146.102 58.5569C146.602 58.1569 147.302 58.1569 147.702 58.7569C148.402 59.7569 149.002 60.7569 149.902 61.3569C151.802 62.6569 154.103 61.9569 156.303 59.8569C156.703 59.4569 157.103 59.0569 157.503 58.6569L157.602 58.5569C157.902 58.2569 158.503 58.2569 158.803 58.6569C158.903 58.7569 159.003 58.9569 159.003 58.9569C160.403 61.4569 162.303 62.6569 165.003 61.4569C166.103 60.9569 167.203 60.1569 168.003 59.2569C170.103 56.8569 172.003 54.2569 174.003 51.7569C174.503 51.2569 175.002 50.4569 174.202 49.8569ZM139.102 49.1569C140.702 47.1569 142.403 45.1569 144.803 44.0569C145.003 43.9569 145.103 43.9569 145.303 43.9569C146.303 43.8569 147.103 44.7569 147.003 45.6569C147.003 45.8569 146.902 45.9569 146.902 46.0569C146.502 46.7569 145.202 48.7569 144.102 49.4569C142.702 50.3569 140.903 50.6569 139.303 50.0569C138.903 49.9569 138.802 49.5569 139.102 49.1569ZM174.202 49.8569C173.402 49.2569 172.803 49.9569 172.303 50.5569C170.903 52.3569 169.503 54.2569 168.003 56.0569C166.903 57.2569 165.802 58.5569 164.402 59.4569C162.502 60.6569 160.702 59.6569 160.902 57.4569C161.002 56.1569 161.302 54.7569 161.902 53.6569C163.802 50.4569 165.903 47.3569 167.803 44.1569C168.303 43.3569 169.302 42.4569 168.102 41.7569C167.002 41.0569 166.602 42.3569 166.102 42.9569C163.002 47.2569 160.203 51.8569 156.803 55.9569C155.903 57.0569 154.902 58.0569 153.902 58.8569C153.702 59.0569 153.503 59.1569 153.303 59.3569C151.403 60.6569 149.703 59.5569 149.803 57.2569C149.803 56.4569 149.903 55.6569 150.303 54.9569C151.303 52.9569 152.303 51.0569 153.503 49.1569C156.303 44.8569 159.103 40.6569 162.003 36.3569C163.903 33.4569 165.802 30.6569 167.702 27.6569C167.802 27.5569 167.803 27.4569 167.803 27.3569C167.903 26.6569 167.103 26.1569 166.503 26.3569C166.403 26.3569 166.202 26.4569 166.102 26.4569C165.802 26.5569 165.703 26.9569 165.503 27.2569C163.603 30.0569 161.802 32.9569 159.902 35.7569C155.502 42.1569 151.202 48.6569 146.602 54.9569C145.302 56.6569 143.502 58.1569 141.602 59.1569C140.502 59.7569 138.702 59.6569 137.402 59.1569C135.002 58.2569 134.803 53.7569 137.003 52.2569C137.203 52.0569 137.602 52.0569 137.902 52.1569C143.302 53.8569 147.302 50.5569 149.202 46.3569C150.402 43.8569 149.102 41.3569 146.602 41.3569C145.402 41.3569 144.002 41.8569 142.902 42.5569C138.802 45.3569 135.802 49.0569 133.902 53.6569C132.302 57.3569 134.202 60.9569 138.102 61.7569C140.902 62.3569 143.203 61.2569 145.303 59.4569C145.603 59.1569 146.003 58.8569 146.303 58.5569C146.803 58.1569 147.502 58.1569 147.902 58.7569C148.602 59.7569 149.202 60.7569 150.102 61.3569C152.002 62.6569 154.303 61.9569 156.503 59.8569C156.903 59.4569 157.302 59.0569 157.702 58.6569L157.803 58.5569C158.103 58.2569 158.703 58.2569 159.003 58.6569C159.103 58.7569 159.202 58.9569 159.202 58.9569C160.602 61.4569 162.502 62.6569 165.202 61.4569C166.302 60.9569 167.402 60.1569 168.202 59.2569C170.302 56.8569 172.202 54.2569 174.202 51.7569C174.502 51.2569 175.002 50.4569 174.202 49.8569ZM139.102 49.1569C140.702 47.1569 142.403 45.1569 144.803 44.0569C145.003 43.9569 145.103 43.9569 145.303 43.9569C146.303 43.8569 147.103 44.7569 147.003 45.6569C147.003 45.8569 146.902 45.9569 146.902 46.0569C146.502 46.7569 145.202 48.7569 144.102 49.4569C142.702 50.3569 140.903 50.6569 139.303 50.0569C138.903 49.9569 138.802 49.5569 139.102 49.1569ZM174.202 49.8569C173.402 49.2569 172.803 49.9569 172.303 50.5569C170.903 52.3569 169.503 54.2569 168.003 56.0569C166.903 57.2569 165.802 58.5569 164.402 59.4569C162.502 60.6569 160.702 59.6569 160.902 57.4569C161.002 56.1569 161.302 54.7569 161.902 53.6569C163.802 50.4569 165.903 47.3569 167.803 44.1569C168.303 43.3569 169.302 42.4569 168.102 41.7569C167.002 41.0569 166.602 42.3569 166.102 42.9569C165.702 43.4569 165.302 44.0569 164.902 44.5569C162.202 48.3569 159.502 52.1569 156.702 55.9569C156.102 56.7569 155.303 57.5569 154.503 58.2569L154.402 58.3569C154.202 58.5569 154.003 58.6569 153.803 58.8569C153.603 59.0569 153.402 59.1569 153.102 59.3569C151.202 60.6569 149.502 59.5569 149.602 57.2569C149.602 56.4569 149.702 55.6569 150.102 54.9569C151.102 52.9569 152.103 51.0569 153.303 49.1569C156.103 44.8569 158.903 40.6569 161.803 36.3569C163.703 33.4569 165.603 30.6569 167.503 27.6569C167.603 27.5569 167.602 27.4569 167.602 27.3569C167.702 26.6569 166.903 26.1569 166.303 26.3569C166.203 26.3569 166.002 26.4569 165.902 26.4569C165.602 26.5569 165.503 26.9569 165.303 27.2569C163.403 30.0569 161.602 32.9569 159.702 35.7569C155.302 42.1569 151.002 48.6569 146.402 54.9569C145.102 56.6569 143.302 58.1569 141.402 59.1569C140.302 59.7569 138.502 59.6569 137.202 59.1569C134.802 58.2569 134.603 53.7569 136.803 52.2569C137.003 52.0569 137.402 52.0569 137.702 52.1569C143.102 53.8569 147.103 50.5569 149.003 46.3569C150.203 43.8569 148.902 41.3569 146.402 41.3569C145.202 41.3569 143.802 41.8569 142.702 42.5569C138.602 45.3569 135.602 49.0569 133.702 53.6569C132.102 57.3569 134.002 60.9569 137.902 61.7569C140.702 62.3569 143.002 61.2569 145.102 59.4569C145.402 59.1569 145.802 58.8569 146.102 58.5569C146.602 58.1569 147.302 58.1569 147.702 58.7569C148.402 59.7569 149.002 60.7569 149.902 61.3569C151.802 62.6569 154.103 61.9569 156.303 59.8569C156.703 59.4569 157.103 59.0569 157.503 58.6569L157.602 58.5569C157.902 58.2569 158.503 58.2569 158.803 58.6569C158.903 58.7569 159.003 58.9569 159.003 58.9569C160.403 61.4569 162.303 62.6569 165.003 61.4569C166.103 60.9569 167.203 60.1569 168.003 59.2569C170.103 56.8569 172.003 54.2569 174.003 51.7569C174.503 51.2569 175.002 50.4569 174.202 49.8569ZM139.102 49.1569C140.702 47.1569 142.403 45.1569 144.803 44.0569C145.003 43.9569 145.103 43.9569 145.303 43.9569C146.303 43.8569 147.103 44.7569 147.003 45.6569C147.003 45.8569 146.902 45.9569 146.902 46.0569C146.502 46.7569 145.202 48.7569 144.102 49.4569C142.702 50.3569 140.903 50.6569 139.303 50.0569C138.903 49.9569 138.802 49.5569 139.102 49.1569Z" fill="white"/>
<path d="M273.402 52.3569C276.402 46.8569 279.602 41.4569 282.702 36.0569C283.002 35.4569 283.402 34.8569 282.602 34.3569C281.802 33.8569 281.402 34.5569 281.002 35.1569C280.902 35.2569 280.902 35.4569 280.802 35.5569C279.102 38.6569 277.302 41.6569 275.602 44.7569C275.302 45.2569 274.702 45.2569 274.302 44.8569C272.802 43.2569 271.002 42.9569 269.002 44.0569C267.302 44.9569 265.902 46.2569 264.702 47.7569C264.302 48.2569 263.902 48.8569 263.502 49.3569C263.302 49.6569 263.102 49.9569 262.902 50.2569C260.802 53.5569 260.202 56.1569 260.102 57.4569C260.002 57.9569 260.102 58.5569 260.302 59.0569C261.302 62.0569 264.202 63.0569 266.902 61.4569C267.302 61.1569 267.702 60.8569 268.102 60.5569C268.602 60.1569 268.902 60.0569 269.302 60.7569C269.902 61.8569 270.902 62.3569 272.102 62.2569C273.102 62.0569 274.302 61.7569 275.102 61.1569C275.702 60.7569 276.202 60.3569 276.702 59.8569C276.902 59.6569 277.102 59.5569 277.202 59.3569C278.702 57.7569 279.702 55.8569 280.802 53.9569L281.102 53.5569C281.402 53.1569 281.302 52.5569 280.802 52.2569C280.402 51.9569 279.802 52.0569 279.502 52.5569L278.902 53.3569L277.002 56.2569C276.502 56.9569 275.902 57.7569 275.402 58.4569C274.702 59.2569 273.702 59.9569 272.702 60.3569C271.202 60.9569 270.302 60.0569 270.802 58.5569C271.502 56.2569 272.402 54.2569 273.402 52.3569ZM269.702 55.0569C268.802 56.6569 267.602 58.0569 266.402 59.3569C265.802 59.9569 264.702 60.2569 263.902 60.2569C263.202 60.2569 262.702 59.8569 262.302 59.3569C262.102 59.0569 262.002 58.6569 261.902 58.2569C261.902 58.0569 261.902 57.7569 261.902 57.5569C261.902 57.2569 261.902 56.9569 262.002 56.5569C262.002 56.4569 262.002 56.2569 262.102 56.1569C262.302 55.2569 262.602 54.4569 263.002 53.6569C263.302 53.0569 263.602 52.5569 263.902 51.9569C265.002 49.9569 266.502 48.1569 268.302 46.6569C269.002 46.1569 269.902 45.6569 270.702 45.4569C272.402 45.0569 273.602 46.1569 273.002 47.8569C272.002 50.2569 270.902 52.7569 269.702 55.0569Z" fill="white"/>
<path d="M240.802 60.557C240.002 60.157 239.702 60.657 239.402 61.257C239.302 61.457 239.202 61.557 239.102 61.757C238.202 63.557 236.802 64.657 234.902 65.257C230.902 66.557 227.002 66.057 223.202 64.557C221.302 63.757 219.302 62.957 217.402 62.157C216.602 61.857 216.402 60.757 217.102 60.257C217.202 60.157 217.302 60.157 217.302 60.057C218.202 59.157 219.202 58.257 220.002 57.257C224.302 52.357 227.302 46.657 230.502 41.057C230.602 40.757 230.902 40.657 231.202 40.657H246.502C247.002 40.657 247.502 40.257 247.602 39.757C247.702 39.157 247.202 38.657 246.602 38.657C246.602 38.657 230.502 38.657 230.402 38.657C229.902 38.657 229.602 38.857 229.302 39.357C228.102 41.457 226.902 43.557 225.702 45.657C223.402 49.757 220.302 52.957 215.802 54.557C213.202 55.457 210.602 55.657 208.102 54.557C204.002 52.857 203.302 48.657 204.402 44.757C204.602 43.857 205.302 43.857 206.102 43.957C208.002 44.057 209.902 44.257 211.802 43.957C216.302 43.357 220.302 41.457 223.802 38.557C226.102 36.657 228.102 34.557 229.202 31.657C230.502 28.357 229.002 25.857 225.502 25.257C223.102 24.857 220.902 25.257 218.802 26.157C213.202 28.357 208.902 32.057 205.702 37.157C205.102 38.157 204.502 39.157 204.002 40.157C203.902 40.457 203.502 40.557 203.202 40.357C203.002 40.257 202.802 40.157 202.602 39.957C202.502 39.957 202.102 39.657 201.702 39.157C201.402 38.657 201.102 38.257 200.902 37.757C200.902 37.657 200.802 37.657 200.802 37.557C199.702 35.257 199.902 32.757 200.702 30.157C201.402 28.057 202.502 26.357 204.002 24.757C204.402 24.257 204.702 23.757 204.102 23.257C203.502 22.757 203.002 23.057 202.602 23.557C199.902 26.457 198.302 29.857 198.202 33.957C198.202 35.457 198.402 36.857 199.002 38.157C199.002 38.157 199.002 38.257 199.102 38.257C199.202 38.357 199.202 38.457 199.302 38.657C200.102 40.157 201.102 41.257 202.202 42.057C202.702 42.457 202.902 43.057 202.802 43.657C202.502 44.657 202.302 45.557 202.202 46.557C201.702 50.857 203.702 54.757 207.702 56.257C210.602 57.457 213.602 57.157 216.602 56.157C217.202 55.957 217.802 55.757 218.402 55.557C218.502 55.657 218.502 55.657 218.502 55.757C218.302 56.057 218.102 56.457 217.802 56.757C217.202 57.357 216.602 58.057 216.002 58.657C216.002 58.657 215.702 58.857 215.302 59.257C214.402 60.057 213.002 60.257 211.902 59.757C210.502 59.157 209.002 58.557 207.602 57.957C203.802 56.357 199.902 55.057 195.702 54.857C193.102 54.757 190.502 54.957 188.202 56.357C185.602 57.957 184.702 60.557 185.802 63.057C186.602 64.857 188.002 65.857 189.702 66.657C193.702 68.457 197.802 68.257 202.002 67.757C205.102 67.357 207.902 66.357 210.702 64.957L210.902 64.857C211.502 64.557 212.002 64.257 212.602 63.857C213.702 63.157 214.802 63.157 216.002 63.657C217.402 64.357 218.902 64.957 220.402 65.557C223.602 66.857 226.902 67.857 231.002 67.957C231.702 67.857 233.002 67.757 234.202 67.557C237.302 66.857 239.702 65.357 241.102 62.357C241.402 61.557 241.602 60.957 240.802 60.557ZM206.402 39.857C207.702 37.157 209.502 34.857 211.602 32.757C214.402 30.057 217.602 27.957 221.502 27.057C222.802 26.757 224.102 26.757 225.402 26.857C227.502 27.057 228.302 28.557 227.602 30.557C226.702 32.857 225.202 34.657 223.402 36.257C219.402 39.657 214.802 41.657 209.302 42.057C208.702 41.957 208.002 41.957 207.402 41.857C206.002 41.557 205.802 41.057 206.402 39.857ZM210.702 62.557C210.502 62.657 210.302 62.757 210.102 62.857C209.202 63.357 208.302 63.857 207.402 64.157C203.402 65.757 199.202 66.457 195.002 65.957C193.202 65.757 191.402 65.057 189.702 64.357C188.102 63.757 187.002 62.457 187.202 60.657C187.402 58.757 188.902 57.757 190.602 57.157C193.002 56.357 195.502 56.357 198.002 56.857C202.302 57.657 206.302 59.257 210.302 61.057C210.502 61.157 210.702 61.257 210.802 61.357C211.202 61.757 211.102 62.257 210.702 62.557Z" fill="white"/>
<path d="M237.002 52.8568L236.702 50.8568L236.902 51.8568L236.702 50.8568C236.702 50.8568 236.902 50.8568 237.302 50.7568C240.502 50.0568 243.502 48.5568 246.202 46.3568C249.602 43.6568 254.602 41.3568 257.402 43.8568L256.002 45.3568C254.402 43.8568 250.502 45.5568 247.502 47.8568C244.502 50.2568 241.202 51.8568 237.702 52.6568C237.302 52.8568 237.002 52.8568 237.002 52.8568Z" fill="white"/>
<path d="M235.602 54.1568C236.486 54.1568 237.202 53.4404 237.202 52.5568C237.202 51.6731 236.486 50.9568 235.602 50.9568C234.719 50.9568 234.002 51.6731 234.002 52.5568C234.002 53.4404 234.719 54.1568 235.602 54.1568Z" fill="white"/>
<path d="M252.203 54.1568C253.086 54.1568 253.803 53.4404 253.803 52.5568C253.803 51.6731 253.086 50.9568 252.203 50.9568C251.319 50.9568 250.603 51.6731 250.603 52.5568C250.603 53.4404 251.319 54.1568 252.203 54.1568Z" fill="white"/>
<path d="M259.102 44.4569C257.602 43.4569 256.002 43.2569 254.402 44.0569C253.002 44.8569 251.602 45.7569 250.602 46.8569C248.002 49.4569 246.002 52.5569 245.302 56.2569C244.902 58.5569 245.702 60.8569 247.402 61.8569C248.802 62.6569 250.602 62.5569 252.202 61.6569C252.302 61.6569 252.302 61.5569 252.402 61.5569C252.502 61.4569 252.602 61.4569 252.702 61.3569C252.702 61.3569 253.802 60.6569 255.002 59.4569C255.402 59.1569 255.902 58.6569 256.502 57.8569C257.002 57.1569 257.502 56.4569 258.002 55.7569C258.102 55.5569 258.202 55.4569 258.302 55.2569L258.402 55.1569C259.602 53.2569 260.502 51.1569 260.702 48.8569C260.902 47.0569 260.602 45.4569 259.102 44.4569ZM252.302 59.1569C252.302 59.1569 251.102 60.1569 249.702 60.2569C249.402 60.2569 249.202 60.2569 248.902 60.2569C247.602 60.0569 247.102 58.9569 247.202 57.2569C247.402 53.9569 249.302 51.4569 251.202 48.9569C252.302 47.5569 253.602 46.3569 255.302 45.7569C257.402 44.9569 258.802 45.9569 258.702 48.2569C258.702 50.3569 257.802 52.2569 256.802 53.9569C255.902 55.5569 254.802 56.8569 253.702 57.8569C253.202 58.4569 252.702 58.8569 252.302 59.1569Z" fill="white"/>
<path d="M241.902 44.4569C240.402 43.4569 238.802 43.2569 237.202 44.0569C235.802 44.8569 234.402 45.7569 233.402 46.8569C230.802 49.4569 228.802 52.5569 228.102 56.2569C227.702 58.5569 228.502 60.8569 230.202 61.8569C231.602 62.6569 233.402 62.5569 235.002 61.6569C235.102 61.6569 235.102 61.5569 235.202 61.5569C235.302 61.4569 235.402 61.4569 235.502 61.3569C235.502 61.3569 236.602 60.6569 237.802 59.4569C238.202 59.1569 238.702 58.6569 239.302 57.8569C239.802 57.1569 240.302 56.4569 240.802 55.7569C240.902 55.5569 241.002 55.4569 241.102 55.2569L241.202 55.1569C242.402 53.2569 243.302 51.1569 243.502 48.8569C243.702 47.0569 243.402 45.4569 241.902 44.4569ZM235.102 59.1569C235.102 59.1569 233.902 60.1569 232.502 60.2569C232.202 60.2569 232.002 60.2569 231.702 60.2569C230.402 60.0569 229.902 58.9569 230.002 57.2569C230.202 53.9569 232.102 51.4569 234.002 48.9569C235.102 47.5569 236.402 46.3569 238.102 45.7569C240.202 44.9569 241.602 45.9569 241.502 48.2569C241.502 50.3569 240.602 52.2569 239.602 53.9569C238.702 55.5569 237.602 56.8569 236.502 57.8569C236.002 58.4569 235.502 58.8569 235.102 59.1569Z" fill="white"/>
<path d="M257.102 45.2569C257.002 45.2569 256.802 45.2569 256.702 45.1569C256.202 44.9569 256.002 44.3569 256.202 43.7569L258.402 38.8569C259.202 37.1569 260.902 36.0569 262.802 36.0569H264.402C265.002 36.0569 265.402 36.5569 265.402 37.0569C265.402 37.6569 264.902 38.0569 264.402 38.0569H262.802C261.702 38.0569 260.802 38.6569 260.302 39.6569L258.102 44.5569C257.902 45.0569 257.502 45.2569 257.102 45.2569Z" fill="white"/>
<path d="M235.802 53.2569C235.602 53.2569 235.402 53.2569 235.302 53.1569C234.802 52.8569 234.602 52.2569 234.902 51.7569L239.602 43.8569L241.602 39.5569C241.802 39.0569 242.502 38.8569 243.002 39.0569C243.502 39.2569 243.702 39.9569 243.502 40.4569L241.402 44.7569V44.8569L236.702 52.8569C236.502 53.0569 236.102 53.2569 235.802 53.2569Z" fill="white"/>
<path d="M252.202 53.2568C252.002 53.2568 251.802 53.2568 251.702 53.1568C251.202 52.8568 251.002 52.2568 251.302 51.7568L256.002 43.7568C256.302 43.2568 256.902 43.0568 257.402 43.3568C257.902 43.6568 258.102 44.2568 257.802 44.7568L253.102 52.7568C252.902 53.0568 252.602 53.2568 252.202 53.2568Z" fill="white"/>
<path d="M120.704 84.4932V88H118.653V78.0469H122.536C123.284 78.0469 123.94 78.1836 124.505 78.457C125.075 78.7305 125.512 79.1201 125.817 79.626C126.123 80.1273 126.275 80.6992 126.275 81.3418C126.275 82.3171 125.94 83.0872 125.271 83.6523C124.605 84.2129 123.682 84.4932 122.502 84.4932H120.704ZM120.704 82.832H122.536C123.078 82.832 123.491 82.7044 123.773 82.4492C124.061 82.194 124.204 81.8294 124.204 81.3555C124.204 80.8678 124.061 80.4736 123.773 80.1729C123.486 79.8721 123.09 79.7171 122.584 79.708H120.704V82.832ZM127.157 84.2334C127.157 83.4997 127.299 82.8457 127.581 82.2715C127.864 81.6973 128.269 81.2529 128.798 80.9385C129.331 80.624 129.949 80.4668 130.65 80.4668C131.648 80.4668 132.462 80.7721 133.091 81.3828C133.724 81.9935 134.077 82.8229 134.15 83.8711L134.164 84.377C134.164 85.5117 133.847 86.4232 133.214 87.1113C132.58 87.7949 131.73 88.1367 130.664 88.1367C129.598 88.1367 128.745 87.7949 128.107 87.1113C127.474 86.4277 127.157 85.498 127.157 84.3223V84.2334ZM129.133 84.377C129.133 85.0788 129.265 85.6165 129.529 85.9902C129.794 86.3594 130.172 86.5439 130.664 86.5439C131.143 86.5439 131.516 86.3617 131.785 85.9971C132.054 85.6279 132.188 85.04 132.188 84.2334C132.188 83.5452 132.054 83.012 131.785 82.6338C131.516 82.2555 131.138 82.0664 130.65 82.0664C130.167 82.0664 129.794 82.2555 129.529 82.6338C129.265 83.0075 129.133 83.5885 129.133 84.377ZM139.811 87.248C139.323 87.8405 138.648 88.1367 137.787 88.1367C136.994 88.1367 136.388 87.9089 135.969 87.4531C135.554 86.9974 135.342 86.3298 135.333 85.4502V80.6035H137.309V85.3818C137.309 86.152 137.66 86.5371 138.361 86.5371C139.031 86.5371 139.492 86.3047 139.742 85.8398V80.6035H141.725V88H139.865L139.811 87.248ZM147.371 82.4561C147.102 82.4196 146.865 82.4014 146.66 82.4014C145.913 82.4014 145.423 82.6543 145.19 83.1602V88H143.215V80.6035H145.081L145.136 81.4854C145.532 80.8063 146.081 80.4668 146.783 80.4668C147.002 80.4668 147.207 80.4964 147.398 80.5557L147.371 82.4561ZM156.244 87.248C155.757 87.8405 155.082 88.1367 154.221 88.1367C153.428 88.1367 152.822 87.9089 152.402 87.4531C151.988 86.9974 151.776 86.3298 151.767 85.4502V80.6035H153.742V85.3818C153.742 86.152 154.093 86.5371 154.795 86.5371C155.465 86.5371 155.925 86.3047 156.176 85.8398V80.6035H158.158V88H156.299L156.244 87.248ZM161.467 80.6035L161.528 81.458C162.057 80.7972 162.766 80.4668 163.654 80.4668C164.438 80.4668 165.021 80.6969 165.404 81.1572C165.787 81.6175 165.983 82.3057 165.992 83.2217V88H164.017V83.2695C164.017 82.8503 163.925 82.5472 163.743 82.3604C163.561 82.1689 163.258 82.0732 162.834 82.0732C162.278 82.0732 161.861 82.3102 161.583 82.7842V88H159.607V80.6035H161.467ZM173.348 78.7852V80.6035H174.612V82.0527H173.348V85.7441C173.348 86.0176 173.4 86.2135 173.505 86.332C173.61 86.4505 173.81 86.5098 174.106 86.5098C174.325 86.5098 174.519 86.4938 174.688 86.4619V87.959C174.3 88.0775 173.901 88.1367 173.491 88.1367C172.106 88.1367 171.399 87.4372 171.372 86.0381V82.0527H170.292V80.6035H171.372V78.7852H173.348ZM179.869 82.4561C179.6 82.4196 179.363 82.4014 179.158 82.4014C178.411 82.4014 177.921 82.6543 177.688 83.1602V88H175.713V80.6035H177.579L177.634 81.4854C178.03 80.8063 178.579 80.4668 179.281 80.4668C179.5 80.4668 179.705 80.4964 179.896 80.5557L179.869 82.4561ZM184.907 88C184.816 87.8223 184.75 87.6012 184.709 87.3369C184.23 87.8701 183.608 88.1367 182.843 88.1367C182.118 88.1367 181.517 87.9271 181.038 87.5078C180.564 87.0885 180.327 86.5599 180.327 85.9219C180.327 85.138 180.617 84.5365 181.195 84.1172C181.779 83.6979 182.619 83.486 183.718 83.4814H184.627V83.0576C184.627 82.7158 184.538 82.4424 184.36 82.2373C184.187 82.0322 183.911 81.9297 183.533 81.9297C183.201 81.9297 182.938 82.0094 182.747 82.1689C182.56 82.3285 182.467 82.5472 182.467 82.8252H180.491C180.491 82.3968 180.623 82.0003 180.888 81.6357C181.152 81.2712 181.526 80.9863 182.009 80.7812C182.492 80.5716 183.034 80.4668 183.636 80.4668C184.547 80.4668 185.27 80.6969 185.803 81.1572C186.34 81.613 186.609 82.2555 186.609 83.085V86.291C186.614 86.9928 186.712 87.5238 186.903 87.8838V88H184.907ZM183.273 86.626C183.565 86.626 183.834 86.5622 184.08 86.4346C184.326 86.3024 184.508 86.127 184.627 85.9082V84.6367H183.889C182.9 84.6367 182.373 84.9785 182.31 85.6621L182.303 85.7783C182.303 86.0244 182.389 86.2272 182.562 86.3867C182.736 86.5462 182.973 86.626 183.273 86.626ZM190.219 80.6035V88.4033C190.219 89.2191 190.002 89.8525 189.569 90.3037C189.136 90.7594 188.512 90.9873 187.696 90.9873C187.354 90.9873 187.029 90.9486 186.719 90.8711V89.3057C186.956 89.3467 187.163 89.3672 187.341 89.3672C187.938 89.3672 188.236 89.0505 188.236 88.417V80.6035H190.219ZM188.079 78.6895C188.079 78.3932 188.177 78.1494 188.373 77.958C188.574 77.7666 188.845 77.6709 189.187 77.6709C189.528 77.6709 189.797 77.7666 189.993 77.958C190.194 78.1494 190.294 78.3932 190.294 78.6895C190.294 78.9902 190.191 79.2363 189.986 79.4277C189.786 79.6191 189.519 79.7148 189.187 79.7148C188.854 79.7148 188.585 79.6191 188.38 79.4277C188.179 79.2363 188.079 78.9902 188.079 78.6895ZM195.168 88.1367C194.083 88.1367 193.199 87.804 192.516 87.1387C191.837 86.4733 191.497 85.5869 191.497 84.4795V84.2881C191.497 83.5452 191.641 82.8822 191.928 82.2988C192.215 81.7109 192.62 81.2598 193.145 80.9453C193.673 80.6263 194.275 80.4668 194.949 80.4668C195.961 80.4668 196.756 80.7858 197.335 81.4238C197.918 82.0618 198.21 82.9665 198.21 84.1377V84.9443H193.5C193.564 85.4274 193.755 85.8148 194.074 86.1064C194.398 86.3981 194.806 86.5439 195.298 86.5439C196.059 86.5439 196.654 86.2682 197.082 85.7168L198.053 86.8037C197.757 87.223 197.355 87.5511 196.85 87.7881C196.344 88.0205 195.783 88.1367 195.168 88.1367ZM194.942 82.0664C194.55 82.0664 194.231 82.1986 193.985 82.4629C193.744 82.7272 193.589 83.1055 193.521 83.5977H196.269V83.4404C196.259 83.0029 196.141 82.6657 195.913 82.4287C195.685 82.1872 195.362 82.0664 194.942 82.0664ZM201.703 78.7852V80.6035H202.968V82.0527H201.703V85.7441C201.703 86.0176 201.756 86.2135 201.86 86.332C201.965 86.4505 202.166 86.5098 202.462 86.5098C202.681 86.5098 202.874 86.4938 203.043 86.4619V87.959C202.656 88.0775 202.257 88.1367 201.847 88.1367C200.461 88.1367 199.755 87.4372 199.728 86.0381V82.0527H198.647V80.6035H199.728V78.7852H201.703ZM211.362 85.5322L213.618 78.0469H215.901L212.436 88H210.296L206.844 78.0469H209.12L211.362 85.5322ZM219.818 88.1367C218.734 88.1367 217.85 87.804 217.166 87.1387C216.487 86.4733 216.147 85.5869 216.147 84.4795V84.2881C216.147 83.5452 216.291 82.8822 216.578 82.2988C216.865 81.7109 217.271 81.2598 217.795 80.9453C218.324 80.6263 218.925 80.4668 219.6 80.4668C220.611 80.4668 221.407 80.7858 221.985 81.4238C222.569 82.0618 222.86 82.9665 222.86 84.1377V84.9443H218.15C218.214 85.4274 218.406 85.8148 218.725 86.1064C219.048 86.3981 219.456 86.5439 219.948 86.5439C220.709 86.5439 221.304 86.2682 221.732 85.7168L222.703 86.8037C222.407 87.223 222.006 87.5511 221.5 87.7881C220.994 88.0205 220.434 88.1367 219.818 88.1367ZM219.593 82.0664C219.201 82.0664 218.882 82.1986 218.636 82.4629C218.394 82.7272 218.239 83.1055 218.171 83.5977H220.919V83.4404C220.91 83.0029 220.791 82.6657 220.563 82.4287C220.336 82.1872 220.012 82.0664 219.593 82.0664ZM219.771 77.5H221.924L220.03 79.6191H218.424L219.771 77.5ZM226.073 88H224.091V77.5H226.073V88ZM229.792 88H227.81V80.6035H229.792V88ZM227.693 78.6895C227.693 78.3932 227.791 78.1494 227.987 77.958C228.188 77.7666 228.459 77.6709 228.801 77.6709C229.138 77.6709 229.407 77.7666 229.607 77.958C229.808 78.1494 229.908 78.3932 229.908 78.6895C229.908 78.9902 229.806 79.2363 229.601 79.4277C229.4 79.6191 229.133 79.7148 228.801 79.7148C228.468 79.7148 228.199 79.6191 227.994 79.4277C227.794 79.2363 227.693 78.9902 227.693 78.6895ZM235.042 88V78.0469H238.528C239.736 78.0469 240.652 78.2793 241.276 78.7441C241.901 79.2044 242.213 79.8812 242.213 80.7744C242.213 81.262 242.088 81.6927 241.837 82.0664C241.586 82.4355 241.238 82.7067 240.791 82.8799C241.301 83.0075 241.702 83.265 241.994 83.6523C242.29 84.0397 242.438 84.5137 242.438 85.0742C242.438 86.0312 242.133 86.7559 241.522 87.248C240.912 87.7402 240.041 87.9909 238.911 88H235.042ZM237.093 83.666V86.3525H238.85C239.333 86.3525 239.709 86.2386 239.978 86.0107C240.251 85.7783 240.388 85.4593 240.388 85.0537C240.388 84.1423 239.916 83.6797 238.973 83.666H237.093ZM237.093 82.2168H238.61C239.645 82.1986 240.162 81.7861 240.162 80.9795C240.162 80.5283 240.03 80.2048 239.766 80.0088C239.506 79.8083 239.093 79.708 238.528 79.708H237.093V82.2168ZM245.938 88H243.956V80.6035H245.938V88ZM243.84 78.6895C243.84 78.3932 243.938 78.1494 244.134 77.958C244.334 77.7666 244.605 77.6709 244.947 77.6709C245.285 77.6709 245.553 77.7666 245.754 77.958C245.954 78.1494 246.055 78.3932 246.055 78.6895C246.055 78.9902 245.952 79.2363 245.747 79.4277C245.547 79.6191 245.28 79.7148 244.947 79.7148C244.615 79.7148 244.346 79.6191 244.141 79.4277C243.94 79.2363 243.84 78.9902 243.84 78.6895ZM250.977 88.1367C249.892 88.1367 249.008 87.804 248.324 87.1387C247.645 86.4733 247.306 85.5869 247.306 84.4795V84.2881C247.306 83.5452 247.449 82.8822 247.736 82.2988C248.023 81.7109 248.429 81.2598 248.953 80.9453C249.482 80.6263 250.083 80.4668 250.758 80.4668C251.77 80.4668 252.565 80.7858 253.144 81.4238C253.727 82.0618 254.019 82.9665 254.019 84.1377V84.9443H249.309C249.372 85.4274 249.564 85.8148 249.883 86.1064C250.206 86.3981 250.614 86.5439 251.106 86.5439C251.868 86.5439 252.462 86.2682 252.891 85.7168L253.861 86.8037C253.565 87.223 253.164 87.5511 252.658 87.7881C252.152 88.0205 251.592 88.1367 250.977 88.1367ZM250.751 82.0664C250.359 82.0664 250.04 82.1986 249.794 82.4629C249.552 82.7272 249.397 83.1055 249.329 83.5977H252.077V83.4404C252.068 83.0029 251.95 82.6657 251.722 82.4287C251.494 82.1872 251.17 82.0664 250.751 82.0664ZM256.965 80.6035L257.026 81.458C257.555 80.7972 258.264 80.4668 259.152 80.4668C259.936 80.4668 260.52 80.6969 260.902 81.1572C261.285 81.6175 261.481 82.3057 261.49 83.2217V88H259.515V83.2695C259.515 82.8503 259.424 82.5472 259.241 82.3604C259.059 82.1689 258.756 82.0732 258.332 82.0732C257.776 82.0732 257.359 82.3102 257.081 82.7842V88H255.105V80.6035H256.965Z" fill="white"/>
</svg>
