<svg width="262" height="125" viewBox="0 0 262 125" fill="none" xmlns="http://www.w3.org/2000/svg">
<path d="M262 0V87.2C262 107.7 245.4 124.2 225 124.2H37.9004C17.4004 124.2 0.900391 107.6 0.900391 87.2V0" fill="#24AE70"/>
<path d="M83.1 87H83.6L82.7 91.8H85.6L85.5 92.3H82L83.1 87Z" fill="white"/>
<path d="M87.2004 87H87.7004L87.3004 89H86.9004L87.2004 87Z" fill="white"/>
<path d="M92.1998 88.3L91.3998 92.2H90.9998L91.0998 91.6C90.8998 91.8 90.6998 92 90.3998 92.1C90.0998 92.2 89.8998 92.3 89.4998 92.3C89.1998 92.3 88.8998 92.2 88.5998 92.1C88.2998 92 88.0998 91.8 87.9998 91.5C87.8998 91.2 87.7998 91 87.7998 90.6C87.7998 90.2 87.8998 89.8 88.0998 89.4C88.2998 89 88.5998 88.8 88.8998 88.6C89.1998 88.4 89.5998 88.3 89.9998 88.3C90.3998 88.3 90.6998 88.4 90.8998 88.5C91.1998 88.6 91.2998 88.9 91.4998 89.1L91.6998 88.3H92.1998ZM90.4998 91.6C90.7998 91.4 90.9998 91.2 91.0998 90.9C91.1998 90.6 91.2998 90.3 91.2998 90C91.2998 89.6 91.1998 89.3 90.9998 89.1C90.7998 88.9 90.4998 88.8 89.9998 88.8C89.6998 88.8 89.3998 88.9 89.0998 89C88.7998 89.2 88.5998 89.4 88.4998 89.7C88.3998 90 88.2998 90.3 88.2998 90.6C88.2998 91 88.3998 91.3 88.5998 91.5C88.7998 91.7 89.0998 91.8 89.5998 91.8C89.9998 91.8 90.2998 91.7 90.4998 91.6Z" fill="white"/>
<path d="M96.5002 88.5C96.8002 88.6 97.0002 88.8 97.1002 89.1C97.2002 89.3 97.3002 89.6 97.3002 90C97.3002 90.4 97.2002 90.8 97.0002 91.2C96.8002 91.6 96.5002 91.8 96.2002 92C95.9002 92.2 95.5002 92.3 95.1002 92.3C94.7002 92.3 94.4002 92.2 94.2002 92.1C93.9002 92 93.8002 91.7 93.6002 91.5L93.2002 93.8H92.7002L93.8002 88.4H94.3002L94.2002 89C94.4002 88.8 94.6002 88.6 94.9002 88.5C95.2002 88.4 95.4002 88.3 95.8002 88.3C96.0002 88.3 96.3002 88.3 96.5002 88.5ZM96.0002 91.6C96.3002 91.4 96.5002 91.2 96.6002 90.9C96.7002 90.6 96.8002 90.3 96.8002 90C96.8002 89.6 96.7002 89.3 96.5002 89.1C96.3002 88.9 96.0002 88.8 95.5002 88.8C95.2002 88.8 94.9002 88.9 94.6002 89C94.3002 89.2 94.1002 89.4 94.0002 89.7C93.9002 90 93.8002 90.3 93.8002 90.7C93.8002 91.1 93.9002 91.4 94.1002 91.6C94.3002 91.8 94.6002 91.9 95.1002 91.9C95.4002 91.8 95.7002 91.7 96.0002 91.6Z" fill="white"/>
<path d="M101.6 88.5C101.9 88.6 102.1 88.8 102.2 89.1C102.3 89.3 102.4 89.6 102.4 90C102.4 90.4 102.3 90.8 102.1 91.2C101.9 91.6 101.6 91.8 101.3 92C101 92.2 100.6 92.3 100.2 92.3C99.7998 92.3 99.4998 92.2 99.2998 92.1C98.9998 92 98.8998 91.7 98.6998 91.5L98.2998 93.8H97.7998L98.8998 88.4H99.3998L99.2998 89C99.4998 88.8 99.6998 88.6 99.9998 88.5C100.3 88.4 100.5 88.3 100.9 88.3C101 88.3 101.3 88.3 101.6 88.5ZM101.1 91.6C101.4 91.4 101.6 91.2 101.7 90.9C101.8 90.6 101.9 90.3 101.9 90C101.9 89.6 101.8 89.3 101.6 89.1C101.4 88.9 101.1 88.8 100.6 88.8C100.3 88.8 99.9998 88.9 99.6998 89C99.3998 89.2 99.1998 89.4 99.0998 89.7C98.9998 90 98.8998 90.3 98.8998 90.7C98.8998 91.1 98.9998 91.4 99.1998 91.6C99.3998 91.8 99.6998 91.9 100.2 91.9C100.5 91.8 100.8 91.7 101.1 91.6Z" fill="white"/>
<path d="M104.2 86.7H104.7L103.6 92.2H103.1L104.2 86.7Z" fill="white"/>
<path d="M105.9 88.3H106.4L105.6 92.2H105.1L105.9 88.3ZM106.1 87.3C106 87.2 106 87.1 106 87.1C106 87 106 86.9 106.1 86.8C106.2 86.7 106.3 86.7 106.4 86.7C106.5 86.7 106.6 86.7 106.7 86.8C106.8 86.9 106.8 86.9 106.8 87C106.8 87.1 106.8 87.2 106.7 87.3C106.6 87.4 106.5 87.4 106.4 87.4C106.3 87.4 106.2 87.4 106.1 87.3Z" fill="white"/>
<path d="M113.4 88.3L112.6 92.2H112.1L112.2 91.6C112 91.8 111.8 92 111.5 92.1C111.2 92.2 111 92.3 110.6 92.3C110.3 92.3 110 92.2 109.7 92.1C109.4 92 109.2 91.8 109.1 91.5C109 91.2 108.9 91 108.9 90.6C108.9 90.2 109 89.8 109.2 89.4C109.4 89 109.7 88.8 110 88.6C110.3 88.4 110.7 88.3 111.1 88.3C111.5 88.3 111.8 88.4 112 88.5C112.3 88.6 112.4 88.9 112.6 89.1L112.8 88.3H113.4ZM111.7 91.6C112 91.4 112.2 91.2 112.3 90.9C112.4 90.6 112.5 90.3 112.5 90C112.5 89.6 112.4 89.3 112.2 89.1C112 88.9 111.7 88.8 111.2 88.8C110.9 88.8 110.6 88.9 110.3 89C110 89.2 109.8 89.4 109.7 89.7C109.6 90 109.5 90.3 109.5 90.6C109.5 91 109.6 91.3 109.8 91.5C110 91.7 110.3 91.8 110.8 91.8C111.2 91.8 111.5 91.7 111.7 91.6Z" fill="white"/>
<path d="M118.2 88.3L115.7 92.2H115.2L114.2 88.3H114.7L115.5 91.7L117.6 88.3H118.2Z" fill="white"/>
<path d="M118.6 90.3999C118.6 90.3999 118.6 90.4999 118.6 90.5999C118.6 90.9999 118.7 91.2999 118.9 91.4999C119.1 91.6999 119.5 91.7999 119.9 91.7999C120.2 91.7999 120.4 91.7999 120.6 91.6999C120.8 91.5999 121 91.4999 121.2 91.2999L121.4 91.6999C121.2 91.8999 121 91.9999 120.7 92.0999C120.4 92.1999 120.1 92.2999 119.8 92.2999C119.2 92.2999 118.8 92.1999 118.5 91.8999C118.2 91.5999 118 91.1999 118 90.6999C118 90.2999 118.1 89.8999 118.3 89.4999C118.5 89.0999 118.7 88.8999 119.1 88.6999C119.4 88.4999 119.8 88.3999 120.2 88.3999C120.7 88.3999 121.1 88.4999 121.4 88.7999C121.7 89.0999 121.9 89.4999 121.9 89.9999C121.9 90.0999 121.9 90.2999 121.8 90.4999H118.6V90.3999ZM119.2 89.0999C118.9 89.2999 118.7 89.6999 118.6 89.9999H121.4V89.8999C121.4 89.4999 121.3 89.1999 121.1 88.9999C120.9 88.7999 120.6 88.6999 120.2 88.6999C119.8 88.6999 119.5 88.7999 119.2 89.0999Z" fill="white"/>
<path d="M123.4 92.1C123.1 92 122.9 91.8 122.8 91.5C122.7 91.2 122.6 91 122.6 90.6C122.6 90.2 122.7 89.8 122.9 89.4C123.1 89 123.4 88.8 123.7 88.6C124 88.4 124.4 88.3 124.9 88.3C125.3 88.3 125.6 88.4 125.8 88.5C126.1 88.6 126.3 88.8 126.4 89.1L126 89.4C125.8 89 125.4 88.8 124.9 88.8C124.6 88.8 124.3 88.9 124 89C123.7 89.2 123.5 89.4 123.4 89.7C123.3 90 123.2 90.3 123.2 90.6C123.2 91 123.3 91.3 123.5 91.5C123.7 91.7 124 91.8 124.5 91.8C124.8 91.8 125 91.8 125.2 91.7C125.4 91.6 125.6 91.5 125.7 91.3L126.1 91.6C125.9 91.8 125.7 92 125.4 92.1C125.1 92.2 124.8 92.3 124.5 92.3C124 92.3 123.7 92.2 123.4 92.1Z" fill="white"/>
<path d="M133.1 88.3L132 93.7H131.5L131.9 91.7C131.7 91.9 131.5 92.1 131.2 92.2C130.9 92.3 130.7 92.4 130.4 92.4C130.1 92.4 129.8 92.3 129.5 92.2C129.2 92.1 129 91.9 128.9 91.6C128.8 91.3 128.7 91.1 128.7 90.7C128.7 90.3 128.8 89.9 129 89.5C129.2 89.1 129.5 88.9 129.8 88.7C130.1 88.5 130.5 88.4 130.9 88.4C131.3 88.4 131.6 88.5 131.9 88.6C132.2 88.8 132.3 89 132.5 89.3L132.7 88.4H133.1V88.3ZM131.4 91.6C131.7 91.4 131.9 91.2 132 90.9C132.1 90.6 132.2 90.3 132.2 90C132.2 89.6 132.1 89.3 131.9 89.1C131.7 88.9 131.4 88.8 130.9 88.8C130.6 88.8 130.3 88.9 130 89C129.7 89.2 129.5 89.4 129.4 89.7C129.3 90 129.2 90.3 129.2 90.6C129.2 91 129.3 91.3 129.5 91.5C129.7 91.7 130 91.8 130.5 91.8C130.9 91.8 131.2 91.7 131.4 91.6Z" fill="white"/>
<path d="M138.2 88.3L137.4 92.2H136.9L137 91.6C136.6 92 136.1 92.3 135.5 92.3C135.1 92.3 134.7 92.2 134.5 92C134.3 91.8 134.1 91.5 134.1 91.1C134.1 91 134.1 90.8 134.1 90.7L134.5 88.5H135L134.6 90.7C134.6 90.8 134.6 91 134.6 91.1C134.6 91.4 134.7 91.6 134.9 91.8C135.1 92 135.3 92 135.7 92C136.1 92 136.5 91.9 136.7 91.6C137 91.4 137.2 91 137.3 90.6L137.7 88.5H138.2V88.3Z" fill="white"/>
<path d="M139.6 88.3H140.1L139.3 92.2H138.8L139.6 88.3ZM139.9 87.3C139.8 87.2 139.8 87.1 139.8 87.1C139.8 87 139.8 86.9 139.9 86.8C140 86.7 140.1 86.7 140.2 86.7C140.3 86.7 140.4 86.7 140.5 86.8C140.6 86.9 140.6 86.9 140.6 87C140.6 87.1 140.6 87.2 140.5 87.3C140.4 87.4 140.3 87.4 140.2 87.4C140 87.4 139.9 87.4 139.9 87.3Z" fill="white"/>
<path d="M143.7 91C143.7 91.1 143.7 91.2 143.7 91.2C143.7 91.5 143.9 91.7 144.3 91.7C144.5 91.7 144.7 91.6 144.9 91.5L145 92C144.8 92.2 144.5 92.3 144.1 92.3C143.8 92.3 143.6 92.2 143.4 92.1C143.2 92 143.1 91.7 143.1 91.4C143.1 91.3 143.1 91.2 143.1 91.1L143.6 88.8H142.9L143 88.4H143.7L143.9 87.5H144.4L144.2 88.4H145.4L145.3 88.8H144.1L143.7 91Z" fill="white"/>
<path d="M146.5 92.1C146.2 92 146 91.8 145.9 91.5C145.8 91.2 145.7 91 145.7 90.6C145.7 90.2 145.8 89.8 146 89.4C146.2 89 146.5 88.8 146.8 88.6C147.1 88.4 147.5 88.3 148 88.3C148.5 88.3 149 88.4 149.3 88.7C149.6 89 149.8 89.4 149.8 89.9C149.8 90.3 149.7 90.7 149.5 91.1C149.3 91.5 149 91.7 148.7 91.9C148.4 92.1 148 92.2 147.5 92.2C147.1 92.3 146.8 92.2 146.5 92.1ZM148.4 91.6C148.7 91.4 148.9 91.2 149 90.9C149.1 90.6 149.2 90.3 149.2 90C149.2 89.6 149.1 89.3 148.9 89.1C148.7 88.9 148.4 88.8 147.9 88.8C147.6 88.8 147.3 88.9 147 89C146.7 89.2 146.5 89.4 146.4 89.7C146.3 90 146.2 90.3 146.2 90.6C146.2 91 146.3 91.3 146.5 91.5C146.7 91.7 147 91.8 147.5 91.8C147.8 91.8 148.1 91.7 148.4 91.6Z" fill="white"/>
<path d="M154.7 88.3L153.9 92.2H153.4L153.5 91.6C153.1 92 152.6 92.3 152 92.3C151.6 92.3 151.2 92.2 151 92C150.8 91.8 150.6 91.5 150.6 91.1C150.6 91 150.6 90.8 150.6 90.7L151 88.5H151.5L151.1 90.7C151.1 90.8 151.1 91 151.1 91.1C151.1 91.4 151.2 91.6 151.4 91.8C151.6 92 151.8 92 152.2 92C152.6 92 153 91.9 153.2 91.6C153.5 91.4 153.7 91 153.8 90.6L154.2 88.5H154.7V88.3Z" fill="white"/>
<path d="M156.3 90.9999C156.3 91.0999 156.3 91.1999 156.3 91.1999C156.3 91.4999 156.5 91.6999 156.9 91.6999C157.1 91.6999 157.3 91.5999 157.5 91.4999L157.6 91.8999C157.4 92.0999 157.1 92.1999 156.7 92.1999C156.4 92.1999 156.2 92.0999 156 91.9999C155.8 91.7999 155.7 91.5999 155.7 91.2999C155.7 91.1999 155.7 91.0999 155.7 90.9999L156.2 88.6999H155.5L155.6 88.2999H156.3L156.5 87.3999H157L156.8 88.2999H158L157.9 88.6999H156.7L156.3 90.9999Z" fill="white"/>
<path d="M162.2 88.5C162.5 88.4 162.8 88.3 163.2 88.3L163.1 88.8H163C162.6 88.8 162.2 88.9 162 89.2C161.7 89.4 161.5 89.8 161.5 90.3L161.1 92.3H160.6L161.4 88.4H161.9L161.8 89.1C161.8 88.8 162 88.6 162.2 88.5Z" fill="white"/>
<path d="M164.1 92.1C163.8 92 163.6 91.8 163.5 91.5C163.4 91.2 163.3 91 163.3 90.6C163.3 90.2 163.4 89.8 163.6 89.4C163.8 89 164.1 88.8 164.4 88.6C164.7 88.4 165.1 88.3 165.6 88.3C166.1 88.3 166.6 88.4 166.9 88.7C167.2 89 167.4 89.4 167.4 89.9C167.4 90.3 167.3 90.7 167.1 91.1C166.9 91.5 166.6 91.7 166.3 91.9C166 92.1 165.6 92.2 165.1 92.2C164.7 92.3 164.4 92.2 164.1 92.1ZM166 91.6C166.3 91.4 166.5 91.2 166.6 90.9C166.7 90.6 166.8 90.3 166.8 90C166.8 89.6 166.7 89.3 166.5 89.1C166.3 88.9 166 88.8 165.5 88.8C165.2 88.8 164.9 88.9 164.6 89C164.3 89.2 164.1 89.4 164 89.7C163.9 90 163.8 90.3 163.8 90.6C163.8 91 163.9 91.3 164.1 91.5C164.3 91.7 164.6 91.8 165.1 91.8C165.5 91.8 165.7 91.7 166 91.6Z" fill="white"/>
<path d="M172.4 88.3L171.6 92.2H171.1L171.2 91.6C170.8 92 170.3 92.3 169.7 92.3C169.3 92.3 168.9 92.2 168.7 92C168.5 91.8 168.3 91.5 168.3 91.1C168.3 91 168.3 90.8 168.3 90.7L168.7 88.5H169.2L168.8 90.7C168.8 90.8 168.8 91 168.8 91.1C168.8 91.4 168.9 91.6 169.1 91.8C169.3 92 169.5 92 169.9 92C170.3 92 170.7 91.9 170.9 91.6C171.2 91.4 171.4 91 171.5 90.6L171.9 88.5H172.4V88.3Z" fill="white"/>
<path d="M174.2 86.7H174.7L173.6 92.2H173.1L174.2 86.7Z" fill="white"/>
<path d="M175.6 90.3999C175.6 90.3999 175.6 90.4999 175.6 90.5999C175.6 90.9999 175.7 91.2999 175.9 91.4999C176.1 91.6999 176.5 91.7999 176.9 91.7999C177.2 91.7999 177.4 91.7999 177.6 91.6999C177.8 91.5999 178 91.4999 178.2 91.2999L178.4 91.6999C178.2 91.8999 178 91.9999 177.7 92.0999C177.4 92.1999 177.1 92.2999 176.8 92.2999C176.2 92.2999 175.8 92.1999 175.5 91.8999C175.2 91.5999 175 91.1999 175 90.6999C175 90.2999 175.1 89.8999 175.3 89.4999C175.5 89.0999 175.7 88.8999 176.1 88.6999C176.4 88.4999 176.8 88.3999 177.2 88.3999C177.7 88.3999 178.1 88.4999 178.4 88.7999C178.7 89.0999 178.9 89.4999 178.9 89.9999C178.9 90.0999 178.9 90.2999 178.8 90.4999H175.6V90.3999ZM176.2 89.0999C175.9 89.2999 175.7 89.6999 175.6 89.9999H178.4V89.8999C178.4 89.4999 178.3 89.1999 178.1 88.9999C177.9 88.7999 177.6 88.6999 177.2 88.6999C176.8 88.6999 176.5 88.7999 176.2 89.0999Z" fill="white"/>
<path d="M57.3998 56.4001C57.4998 56.4001 57.7998 56.3001 57.8998 56.3001C58.1998 56.2001 58.6997 55.9001 59.0997 56.0001C59.3997 56.0001 59.6997 56.2001 59.7997 56.4001C59.8997 56.6001 59.9997 56.7001 59.9997 56.9001C59.9997 57.2001 59.7997 57.5001 59.5997 57.6001C58.8997 58.2001 57.9997 58.5001 57.0997 59.0001C56.5997 59.3001 55.9998 59.6001 55.8998 60.0001C55.2998 62.4001 54.6997 64.9001 54.2997 67.4001C54.1997 68.2001 54.2998 69.0002 54.6998 69.8001C55.0998 70.5001 55.8998 70.8001 56.6998 70.5001C56.7998 70.4001 56.9998 70.4001 57.1998 70.3001C57.6998 70.0001 58.0997 69.6001 58.4997 69.2001C60.5997 66.7001 62.6997 64.2001 64.5997 61.5001C68.3997 56.2001 71.9997 50.6001 75.7997 45.3001C77.3997 43.0001 79.3997 41.0001 81.9997 39.9001C82.6997 39.6001 83.4997 39.5001 84.2997 39.5001C84.7997 39.5001 85.1998 39.7001 85.3998 40.1001C85.4998 40.3001 85.4998 40.5001 85.3998 40.6001C85.1998 40.9001 84.9998 41.2001 84.6998 41.3001C81.9998 42.0001 79.9997 43.2001 78.4997 45.2001C74.6997 50.3001 71.0998 55.6001 67.3998 60.8001C65.1998 63.9001 62.8997 67.0001 60.5997 70.1001C59.8997 71.0001 58.8998 71.8001 57.8998 72.4001C55.4998 73.9001 52.8997 72.8001 52.0997 70.1001C51.3997 67.6001 51.9997 65.3001 52.4997 62.9001C52.5997 62.3001 52.7997 61.6001 53.0997 61.0001C53.4997 60.1001 53.3997 59.5001 52.4997 59.2001C46.1997 57.0001 44.2998 52.8001 46.6998 46.6001C48.0998 43.1001 49.9997 40.0001 53.5997 38.6001C56.8997 37.3001 61.9998 38.9001 61.6998 44.1001C61.4998 47.3001 60.0998 50.0001 58.8998 52.8001C58.5998 53.7001 57.9998 55.1001 57.3998 56.4001ZM59.5997 44.5001C59.7997 43.8001 59.8998 43.1001 59.6998 42.4001C59.3998 41.2001 58.4997 40.5001 57.0997 40.2001C55.3997 39.8001 53.9997 40.3001 52.7997 41.4001C50.0997 43.8001 48.5998 46.8001 48.1998 50.4001C47.7998 53.6001 49.3997 55.8001 52.4997 56.9001C54.1997 57.5001 54.6998 57.3001 55.3998 55.6001C56.0998 54.1001 56.7998 52.7001 57.3998 51.2001C58.0998 49.3001 59.1997 46.0001 59.5997 44.5001Z" fill="white"/>
<path d="M109 49.2001C110.049 49.2001 110.9 48.3495 110.9 47.3001C110.9 46.2508 110.049 45.4001 109 45.4001C107.95 45.4001 107.1 46.2508 107.1 47.3001C107.1 48.3495 107.95 49.2001 109 49.2001Z" fill="white"/>
<path d="M90.6001 45.0001L84.4002 47.6001C84.0002 47.8001 83.5001 47.6001 83.3001 47.2001C83.1001 46.8001 83.3002 46.3001 83.7002 46.1001L89.9002 43.5001C90.3002 43.3001 90.8001 43.5001 91.0001 43.9001C91.2001 44.3001 91.0001 44.8001 90.6001 45.0001Z" fill="white"/>
<path d="M130.199 56.1001H125.999H123.499H119.299C118.799 56.1001 118.399 56.5001 118.399 57.0001C118.399 57.5001 118.799 57.9001 119.299 57.9001H123.499H125.999H130.199C130.699 57.9001 131.099 57.5001 131.099 57.0001C131.099 56.5001 130.699 56.1001 130.199 56.1001Z" fill="white"/>
<path d="M112.9 58.5C112.1 57.9 111.5 58.6 111 59.2C109.6 61 108.2 62.9 106.7 64.7C105.6 65.9 104.5 67.2 103.1 68.1C101.2 69.3 99.3999 68.3 99.5999 66.1C99.6999 64.8 99.9999 63.4 100.6 62.3C102.5 59.1 104.6 56 106.5 52.8C107 52 108 51.1 106.8 50.4C105.7 49.7 105.3 51 104.8 51.6C104.4 52.1 104 52.7 103.6 53.2C100.9 57 98.3 60.7 95.4 64.6C94.4 66 93.1999 67.1 91.7999 68C89.8999 69.3 88.1999 68.2 88.2999 65.9C88.2999 65.1 88.3999 64.3 88.7999 63.6C89.7999 61.6 90.8 59.7 92 57.8C94.8 53.5 97.6 49.3 100.5 45C102.4 42.1 104.3 39.3 106.2 36.3C106.3 36.2 106.3 36.1 106.3 36C106.4 35.3 105.6 34.8 105 35C104.9 35 104.7 35.1 104.6 35.1C104.3 35.2 104.2 35.6 104 35.9C102.1 38.7 100.3 41.6 98.4 44.4C94 50.8 89.6999 57.3 85.0999 63.6C83.7999 65.3 81.9999 66.8 80.0999 67.8C78.9999 68.4 77.2 68.3 75.9 67.8C73.5 66.9 73.3 62.4 75.5 60.9C75.7 60.7 76.1 60.7 76.4 60.8C81.8 62.5 85.8 59.2 87.7 55C88.9 52.5 87.5999 50 85.0999 50C83.8999 50 82.5 50.5 81.4 51.2C77.3 54 74.3 57.7 72.4 62.3C70.8 66 72.6999 69.6 76.5999 70.4C79.3999 71 81.6999 69.9 83.7999 68.1C84.0999 67.8 84.4999 67.5 84.7999 67.2C85.2999 66.8 86 66.8 86.4 67.4C87.1 68.4 87.6999 69.4 88.5999 70C90.4999 71.3 92.8 70.6 95 68.5C95.4 68.1 95.8 67.7 96.2 67.3L96.2999 67.2C96.5999 66.9 97.2 66.9 97.5 67.3C97.6 67.4 97.7 67.6 97.7 67.6C99.1 70.1 101 71.3 103.7 70.1C104.8 69.6 105.9 68.8 106.7 67.9C108.8 65.5 110.7 62.9 112.7 60.4C113.2 59.9 113.7 59.1 112.9 58.5ZM77.7999 57.8C79.3999 55.8 81.1 53.8 83.5 52.7C83.7 52.6 83.8 52.6 84 52.6C85 52.5 85.8 53.4 85.7 54.3C85.7 54.5 85.5999 54.6 85.5999 54.7C85.1999 55.4 83.8999 57.4 82.7999 58.1C81.3999 59 79.6 59.3 78 58.7C77.6 58.6 77.4999 58.2 77.7999 57.8ZM112.9 58.5C112.1 57.9 111.5 58.6 111 59.2C109.6 61 108.2 62.9 106.7 64.7C105.6 65.9 104.5 67.2 103.1 68.1C101.2 69.3 99.3999 68.3 99.5999 66.1C99.6999 64.8 99.9999 63.4 100.6 62.3C102.5 59.1 104.6 56 106.5 52.8C107 52 108 51.1 106.8 50.4C105.7 49.7 105.3 51 104.8 51.6C101.7 55.9 98.9 60.5 95.5 64.6C94.6 65.7 93.5999 66.7 92.5999 67.5C92.3999 67.7 92.2 67.8 92 68C90.1 69.3 88.4 68.2 88.5 65.9C88.5 65.1 88.6 64.3 89 63.6C90 61.6 91 59.7 92.2 57.8C95 53.5 97.8 49.3 100.7 45C102.6 42.1 104.5 39.3 106.4 36.3C106.5 36.2 106.5 36.1 106.5 36C106.6 35.3 105.8 34.8 105.2 35C105.1 35 104.9 35.1 104.8 35.1C104.5 35.2 104.4 35.6 104.2 35.9C102.3 38.7 100.5 41.6 98.5999 44.4C94.1999 50.8 89.8999 57.3 85.2999 63.6C83.9999 65.3 82.1999 66.8 80.2999 67.8C79.1999 68.4 77.3999 68.3 76.0999 67.8C73.6999 66.9 73.5 62.4 75.7 60.9C75.9 60.7 76.2999 60.7 76.5999 60.8C81.9999 62.5 86 59.2 87.9 55C89.1 52.5 87.7999 50 85.2999 50C84.0999 50 82.6999 50.5 81.5999 51.2C77.4999 54 74.4999 57.7 72.5999 62.3C70.9999 66 72.8999 69.6 76.7999 70.4C79.5999 71 81.9 69.9 84 68.1C84.3 67.8 84.7 67.5 85 67.2C85.5 66.8 86.1999 66.8 86.5999 67.4C87.2999 68.4 87.8999 69.4 88.7999 70C90.6999 71.3 93 70.6 95.2 68.5C95.6 68.1 96 67.7 96.4 67.3L96.5 67.2C96.8 66.9 97.4 66.9 97.7 67.3C97.8 67.4 97.9 67.6 97.9 67.6C99.3 70.1 101.2 71.3 103.9 70.1C105 69.6 106.1 68.8 106.9 67.9C109 65.5 110.9 62.9 112.9 60.4C113.2 59.9 113.7 59.1 112.9 58.5ZM77.7999 57.8C79.3999 55.8 81.1 53.8 83.5 52.7C83.7 52.6 83.8 52.6 84 52.6C85 52.5 85.8 53.4 85.7 54.3C85.7 54.5 85.5999 54.6 85.5999 54.7C85.1999 55.4 83.8999 57.4 82.7999 58.1C81.3999 59 79.6 59.3 78 58.7C77.6 58.6 77.4999 58.2 77.7999 57.8ZM112.9 58.5C112.1 57.9 111.5 58.6 111 59.2C109.6 61 108.2 62.9 106.7 64.7C105.6 65.9 104.5 67.2 103.1 68.1C101.2 69.3 99.3999 68.3 99.5999 66.1C99.6999 64.8 99.9999 63.4 100.6 62.3C102.5 59.1 104.6 56 106.5 52.8C107 52 108 51.1 106.8 50.4C105.7 49.7 105.3 51 104.8 51.6C104.4 52.1 104 52.7 103.6 53.2C100.9 57 98.2 60.8 95.4 64.6C94.8 65.4 94 66.2 93.2 66.9L93.0999 67C92.8999 67.2 92.7 67.3 92.5 67.5C92.3 67.7 92.0999 67.8 91.7999 68C89.8999 69.3 88.1999 68.2 88.2999 65.9C88.2999 65.1 88.3999 64.3 88.7999 63.6C89.7999 61.6 90.8 59.7 92 57.8C94.8 53.5 97.6 49.3 100.5 45C102.4 42.1 104.3 39.3 106.2 36.3C106.3 36.2 106.3 36.1 106.3 36C106.4 35.3 105.6 34.8 105 35C104.9 35 104.7 35.1 104.6 35.1C104.3 35.2 104.2 35.6 104 35.9C102.1 38.7 100.3 41.6 98.4 44.4C94 50.8 89.6999 57.3 85.0999 63.6C83.7999 65.3 81.9999 66.8 80.0999 67.8C78.9999 68.4 77.2 68.3 75.9 67.8C73.5 66.9 73.3 62.4 75.5 60.9C75.7 60.7 76.1 60.7 76.4 60.8C81.8 62.5 85.8 59.2 87.7 55C88.9 52.5 87.5999 50 85.0999 50C83.8999 50 82.5 50.5 81.4 51.2C77.3 54 74.3 57.7 72.4 62.3C70.8 66 72.6999 69.6 76.5999 70.4C79.3999 71 81.6999 69.9 83.7999 68.1C84.0999 67.8 84.4999 67.5 84.7999 67.2C85.2999 66.8 86 66.8 86.4 67.4C87.1 68.4 87.6999 69.4 88.5999 70C90.4999 71.3 92.8 70.6 95 68.5C95.4 68.1 95.8 67.7 96.2 67.3L96.2999 67.2C96.5999 66.9 97.2 66.9 97.5 67.3C97.6 67.4 97.7 67.6 97.7 67.6C99.1 70.1 101 71.3 103.7 70.1C104.8 69.6 105.9 68.8 106.7 67.9C108.8 65.5 110.7 62.9 112.7 60.4C113.2 59.9 113.7 59.1 112.9 58.5ZM77.7999 57.8C79.3999 55.8 81.1 53.8 83.5 52.7C83.7 52.6 83.8 52.6 84 52.6C85 52.5 85.8 53.4 85.7 54.3C85.7 54.5 85.5999 54.6 85.5999 54.7C85.1999 55.4 83.8999 57.4 82.7999 58.1C81.3999 59 79.6 59.3 78 58.7C77.6 58.6 77.4999 58.2 77.7999 57.8Z" fill="white"/>
<path d="M212.099 61C215.099 55.5 218.299 50.1 221.399 44.7C221.699 44.1 222.099 43.5 221.299 43C220.499 42.5 220.099 43.2 219.699 43.8C219.599 43.9 219.599 44.1 219.499 44.2C217.799 47.3 215.999 50.3 214.299 53.4C213.999 53.9 213.399 53.9 212.999 53.5C211.499 51.9 209.699 51.6 207.699 52.7C205.999 53.6 204.599 54.9 203.399 56.4C202.999 56.9 202.599 57.5 202.199 58C201.999 58.3 201.799 58.6 201.599 58.9C199.499 62.2 198.899 64.8 198.799 66.1C198.699 66.6 198.799 67.2 198.999 67.7C199.999 70.7 202.899 71.7 205.599 70.1C205.999 69.8 206.399 69.5 206.799 69.2C207.299 68.8 207.599 68.7 207.999 69.4C208.599 70.5 209.599 71 210.799 70.9C211.799 70.7 212.999 70.4 213.799 69.8C214.399 69.4 214.899 69 215.399 68.5C215.599 68.3 215.799 68.2 215.899 68C217.399 66.4 218.399 64.5 219.499 62.6L219.799 62.2C220.099 61.8 219.999 61.2 219.499 60.9C219.099 60.6 218.499 60.7 218.199 61.2L217.599 62L215.699 64.9C215.199 65.6 214.599 66.4 214.099 67.1C213.399 67.9 212.399 68.6 211.399 69C209.899 69.6 208.999 68.7 209.499 67.2C210.199 64.9 211.099 62.9 212.099 61ZM208.399 63.7C207.499 65.3 206.299 66.7 205.099 68C204.499 68.6 203.399 68.9 202.599 68.9C201.899 68.9 201.399 68.5 200.999 68C200.799 67.7 200.699 67.3 200.599 66.9C200.599 66.7 200.599 66.4 200.599 66.2C200.599 65.9 200.599 65.6 200.699 65.2C200.699 65.1 200.699 64.9 200.799 64.8C200.999 63.9 201.299 63.1 201.699 62.3C201.999 61.7 202.299 61.2 202.599 60.6C203.699 58.6 205.199 56.8 206.999 55.3C207.699 54.8 208.599 54.3 209.399 54.1C211.099 53.7 212.299 54.8 211.699 56.5C210.699 58.9 209.599 61.4 208.399 63.7Z" fill="white"/>
<path d="M179.499 69.2C178.699 68.8 178.399 69.3 178.099 69.9C177.999 70.1 177.899 70.2 177.799 70.4C176.899 72.2 175.499 73.3 173.599 73.9C169.599 75.2 165.699 74.7 161.899 73.2C159.999 72.4 157.999 71.6 156.099 70.8C155.299 70.5 155.099 69.4 155.799 68.9C155.899 68.8 155.999 68.8 155.999 68.7C156.899 67.8 157.899 66.9 158.699 65.9C162.999 61 165.999 55.3 169.199 49.7C169.299 49.4 169.599 49.3 169.899 49.3H185.199C185.699 49.3 186.199 48.9 186.299 48.4C186.399 47.8 185.899 47.3 185.299 47.3C185.299 47.3 169.199 47.3 169.099 47.3C168.599 47.3 168.299 47.5 167.999 48C166.799 50.1 165.599 52.2 164.399 54.3C162.099 58.4 158.999 61.6 154.499 63.2C151.899 64.1 149.299 64.3 146.799 63.2C142.699 61.5 141.999 57.3 143.099 53.4C143.299 52.5 143.999 52.5 144.799 52.6C146.699 52.7 148.599 52.9 150.499 52.6C154.999 52 158.999 50.1 162.499 47.2C164.799 45.3 166.799 43.2 167.899 40.3C169.199 37 167.699 34.5 164.199 33.9C161.799 33.5 159.599 33.9 157.499 34.8C151.899 37 147.599 40.7 144.399 45.8C143.799 46.8 143.199 47.8 142.699 48.8C142.599 49.1 142.199 49.2 141.899 49C141.699 48.9 141.499 48.8 141.299 48.6C141.199 48.6 140.799 48.3 140.399 47.8C140.099 47.3 139.799 46.9 139.599 46.4C139.599 46.3 139.499 46.3 139.499 46.2C138.399 43.9 138.599 41.4 139.399 38.8C140.099 36.7 141.199 35 142.699 33.4C143.099 32.9 143.399 32.4 142.799 31.9C142.199 31.4 141.699 31.7 141.299 32.2C138.599 35.1 136.999 38.5 136.899 42.6C136.899 44.1 137.099 45.5 137.699 46.8C137.699 46.8 137.699 46.9 137.799 46.9C137.899 47 137.899 47.1 137.999 47.3C138.799 48.8 139.799 49.9 140.899 50.7C141.399 51.1 141.599 51.7 141.499 52.3C141.199 53.3 140.999 54.2 140.899 55.2C140.399 59.5 142.399 63.4 146.399 64.9C149.299 66.1 152.299 65.8 155.299 64.8C155.899 64.6 156.499 64.4 157.099 64.2C157.199 64.3 157.199 64.3 157.199 64.4C156.999 64.7 156.799 65.1 156.499 65.4C155.899 66 155.299 66.7 154.699 67.3C154.699 67.3 154.399 67.5 153.999 67.9C153.099 68.7 151.699 68.9 150.599 68.4C149.199 67.8 147.699 67.2 146.299 66.6C142.499 65 138.599 63.7 134.399 63.5C131.799 63.4 129.199 63.6 126.899 65C124.299 66.6 123.399 69.2 124.499 71.7C125.299 73.5 126.699 74.5 128.399 75.3C132.399 77.1 136.499 76.9 140.699 76.4C143.799 76 146.599 75 149.399 73.6L149.599 73.5C150.199 73.2 150.699 72.9 151.299 72.5C152.399 71.8 153.499 71.8 154.699 72.3C156.099 73 157.599 73.6 159.099 74.2C162.299 75.5 165.599 76.5 169.699 76.6C170.399 76.5 171.699 76.4 172.899 76.2C175.999 75.5 178.399 74 179.799 71C180.099 70.2 180.299 69.6 179.499 69.2ZM145.099 48.5C146.399 45.8 148.199 43.5 150.299 41.4C153.099 38.7 156.299 36.6 160.199 35.7C161.499 35.4 162.799 35.4 164.099 35.5C166.199 35.7 166.999 37.2 166.299 39.2C165.399 41.5 163.899 43.3 162.099 44.9C158.099 48.3 153.499 50.3 147.999 50.7C147.399 50.6 146.699 50.6 146.099 50.5C144.699 50.2 144.499 49.7 145.099 48.5ZM149.399 71.2C149.199 71.3 148.999 71.4 148.799 71.5C147.899 72 146.999 72.5 146.099 72.8C142.099 74.4 137.899 75.1 133.699 74.6C131.899 74.4 130.099 73.7 128.399 73C126.799 72.4 125.699 71.1 125.899 69.3C126.099 67.4 127.599 66.4 129.299 65.8C131.699 65 134.199 65 136.699 65.5C140.999 66.3 144.999 67.9 148.999 69.7C149.199 69.8 149.399 69.9 149.499 70C149.899 70.4 149.799 70.9 149.399 71.2Z" fill="white"/>
<path d="M175.699 61.4999L175.399 59.4999L175.599 60.4999L175.399 59.4999C175.399 59.4999 175.599 59.4999 175.999 59.3999C179.199 58.6999 182.199 57.1999 184.899 54.9999C188.299 52.2999 193.299 49.9999 196.099 52.4999L194.699 53.9999C193.099 52.4999 189.199 54.1999 186.199 56.4999C183.199 58.8999 179.899 60.4999 176.399 61.2999C175.999 61.4999 175.699 61.4999 175.699 61.4999Z" fill="white"/>
<path d="M174.299 62.7999C175.183 62.7999 175.899 62.0835 175.899 61.1999C175.899 60.3162 175.183 59.5999 174.299 59.5999C173.416 59.5999 172.699 60.3162 172.699 61.1999C172.699 62.0835 173.416 62.7999 174.299 62.7999Z" fill="white"/>
<path d="M190.9 62.7999C191.783 62.7999 192.5 62.0835 192.5 61.1999C192.5 60.3162 191.783 59.5999 190.9 59.5999C190.016 59.5999 189.3 60.3162 189.3 61.1999C189.3 62.0835 190.016 62.7999 190.9 62.7999Z" fill="white"/>
<path d="M197.8 53.0999C196.3 52.0999 194.7 51.8999 193.1 52.6999C191.7 53.4999 190.3 54.3999 189.3 55.4999C186.7 58.0999 184.7 61.1999 184 64.8999C183.6 67.1999 184.4 69.4999 186.1 70.4999C187.5 71.2999 189.3 71.1999 190.9 70.2999C191 70.2999 191 70.1999 191.1 70.1999C191.2 70.0999 191.3 70.0999 191.4 69.9999C191.4 69.9999 192.5 69.2999 193.7 68.0999C194.1 67.7999 194.6 67.2999 195.2 66.4999C195.7 65.7999 196.2 65.0999 196.7 64.3999C196.8 64.1999 196.9 64.0999 197 63.8999L197.1 63.7999C198.3 61.8999 199.2 59.7999 199.4 57.4999C199.6 55.6999 199.3 54.0999 197.8 53.0999ZM191 67.7999C191 67.7999 189.8 68.7999 188.4 68.8999C188.1 68.8999 187.9 68.8999 187.6 68.8999C186.3 68.6999 185.8 67.5999 185.9 65.8999C186.1 62.5999 188 60.0999 189.9 57.5999C191 56.1999 192.3 54.9999 194 54.3999C196.1 53.5999 197.5 54.5999 197.4 56.8999C197.4 58.9999 196.5 60.8999 195.5 62.5999C194.6 64.1999 193.5 65.4999 192.4 66.4999C191.9 67.0999 191.4 67.4999 191 67.7999Z" fill="white"/>
<path d="M180.6 53.0999C179.1 52.0999 177.5 51.8999 175.9 52.6999C174.5 53.4999 173.1 54.3999 172.1 55.4999C169.5 58.0999 167.5 61.1999 166.8 64.8999C166.4 67.1999 167.2 69.4999 168.9 70.4999C170.3 71.2999 172.1 71.1999 173.7 70.2999C173.8 70.2999 173.8 70.1999 173.9 70.1999C174 70.0999 174.1 70.0999 174.2 69.9999C174.2 69.9999 175.3 69.2999 176.5 68.0999C176.9 67.7999 177.4 67.2999 178 66.4999C178.5 65.7999 179 65.0999 179.5 64.3999C179.6 64.1999 179.7 64.0999 179.8 63.8999L179.9 63.7999C181.1 61.8999 182 59.7999 182.2 57.4999C182.4 55.6999 182.1 54.0999 180.6 53.0999ZM173.8 67.7999C173.8 67.7999 172.6 68.7999 171.2 68.8999C170.9 68.8999 170.7 68.8999 170.4 68.8999C169.1 68.6999 168.6 67.5999 168.7 65.8999C168.9 62.5999 170.8 60.0999 172.7 57.5999C173.8 56.1999 175.1 54.9999 176.8 54.3999C178.9 53.5999 180.3 54.5999 180.2 56.8999C180.2 58.9999 179.3 60.8999 178.3 62.5999C177.4 64.1999 176.3 65.4999 175.2 66.4999C174.7 67.0999 174.2 67.4999 173.8 67.7999Z" fill="white"/>
<path d="M195.8 53.9C195.7 53.9 195.5 53.9 195.4 53.7999C194.9 53.5999 194.7 53 194.9 52.4L197.1 47.5C197.9 45.8 199.6 44.7 201.5 44.7H203.1C203.7 44.7 204.1 45.2 204.1 45.7C204.1 46.3 203.6 46.7 203.1 46.7H201.5C200.4 46.7 199.5 47.2999 199 48.2999L196.8 53.2C196.6 53.7 196.2 53.9 195.8 53.9Z" fill="white"/>
<path d="M174.5 61.8999C174.3 61.8999 174.1 61.8999 174 61.7999C173.5 61.4999 173.3 60.8999 173.6 60.3999L178.3 52.4999L180.3 48.1999C180.5 47.6999 181.2 47.4999 181.7 47.6999C182.2 47.8999 182.4 48.5999 182.2 49.0999L180.1 53.3999V53.4999L175.4 61.4999C175.2 61.6999 174.8 61.8999 174.5 61.8999Z" fill="white"/>
<path d="M190.899 61.8998C190.699 61.8998 190.499 61.8998 190.399 61.7998C189.899 61.4998 189.699 60.8998 189.999 60.3998L194.699 52.3998C194.999 51.8998 195.599 51.6998 196.099 51.9998C196.599 52.2998 196.799 52.8998 196.499 53.3998L191.799 61.3998C191.599 61.6998 191.299 61.8998 190.899 61.8998Z" fill="white"/>
</svg>
