<svg width="452" height="842" viewBox="0 0 452 842" fill="none" xmlns="http://www.w3.org/2000/svg">
<path d="M254.841 538V629.9" stroke="black" stroke-width="2" stroke-miterlimit="10" stroke-linecap="round" stroke-linejoin="round"/>
<path d="M265.235 529.4C265.235 527 264.412 524.8 262.971 523.1C262.045 522 262.045 520.5 262.971 519.4C264.618 517.4 265.544 514.7 265.133 511.9C264.618 507.3 260.707 503.6 255.973 503C249.695 502.3 244.343 507.1 244.343 513.1C244.343 515.5 245.167 517.7 246.608 519.4C247.534 520.5 247.534 522 246.608 523.1C245.167 524.8 244.343 527 244.343 529.4C244.343 531.8 245.167 534 246.608 535.7C247.534 536.8 247.534 538.3 246.608 539.4C244.961 541.4 244.035 544.1 244.446 546.9C244.961 551.5 248.872 555.2 253.606 555.8C259.884 556.5 265.235 551.7 265.235 545.7C265.235 543.3 264.412 541.1 262.971 539.4C262.045 538.3 262.045 536.8 262.971 535.7C264.412 534 265.235 531.8 265.235 529.4Z" fill="#022C25" stroke="black" stroke-width="2" stroke-miterlimit="10" stroke-linecap="round" stroke-linejoin="round"/>
<path d="M217.894 523V614.9" stroke="black" stroke-width="2" stroke-miterlimit="10" stroke-linecap="round" stroke-linejoin="round"/>
<path d="M228.288 522.3C228.288 519.9 227.465 517.7 226.024 516C225.098 514.9 225.098 513.4 226.024 512.3C227.671 510.3 228.597 507.6 228.185 504.8C227.671 500.2 223.76 496.5 219.026 495.9C212.748 495.2 207.396 500 207.396 506C207.396 508.4 208.22 510.6 209.66 512.3C210.587 513.4 210.587 514.9 209.66 516C208.22 517.7 207.396 519.9 207.396 522.3C207.396 524.7 208.22 526.9 209.66 528.6C210.587 529.7 210.587 531.2 209.66 532.3C208.014 534.3 207.087 537 207.499 539.8C208.014 544.4 211.925 548.1 216.659 548.7C222.937 549.4 228.288 544.6 228.288 538.6C228.288 536.2 227.465 534 226.024 532.3C225.098 531.2 225.098 529.7 226.024 528.6C227.465 526.9 228.288 524.7 228.288 522.3Z" fill="#022C25" stroke="black" stroke-width="2" stroke-miterlimit="10" stroke-linecap="round" stroke-linejoin="round"/>
<path d="M235.184 519.2V652.6" stroke="black" stroke-width="2" stroke-miterlimit="10" stroke-linecap="round" stroke-linejoin="round"/>
<path d="M250.312 521.2C250.312 517.7 249.078 514.5 247.019 512C245.681 510.4 245.784 508.2 247.019 506.6C249.386 503.7 250.724 499.8 250.21 495.7C249.386 489 243.829 483.6 236.933 482.8C227.774 481.8 220.055 488.7 220.055 497.4C220.055 500.9 221.29 504.1 223.348 506.6C224.686 508.2 224.686 510.4 223.348 512C221.29 514.5 220.055 517.7 220.055 521.2C220.055 524.7 221.29 527.9 223.348 530.4C224.686 532 224.583 534.2 223.348 535.8C220.981 538.7 219.643 542.6 220.158 546.7C220.981 553.4 226.539 558.8 233.434 559.6C242.594 560.6 250.312 553.7 250.312 545C250.312 541.5 249.078 538.3 247.019 535.8C245.681 534.2 245.681 532 247.019 530.4C249.078 527.8 250.312 524.6 250.312 521.2Z" fill="#2EAD72" stroke="black" stroke-width="2" stroke-miterlimit="10" stroke-linecap="round" stroke-linejoin="round"/>
<path d="M223.143 627.6C236.443 627.6 247.225 617.84 247.225 605.8C247.225 593.76 236.443 584 223.143 584C209.842 584 199.06 593.76 199.06 605.8C199.06 617.84 209.842 627.6 223.143 627.6Z" fill="#2EAD72" stroke="black" stroke-width="2" stroke-miterlimit="10" stroke-linecap="round" stroke-linejoin="round"/>
<path d="M91.4092 604.5V642.1" stroke="black" stroke-width="2" stroke-miterlimit="10"/>
<path d="M102.113 589.9C102.113 584 97.0696 579.3 90.9975 579.5C85.3371 579.7 80.8087 584.3 80.7058 589.7C80.7058 591.2 81.0146 592.7 81.6321 594C82.2496 595.3 82.2496 596.8 81.6321 598.1C81.0146 599.4 80.7058 600.9 80.7058 602.4C80.8087 607.9 85.44 612.4 90.9975 612.6C97.0696 612.8 102.113 608.1 102.113 602.2C102.113 600.9 101.907 599.7 101.392 598.5C100.775 596.9 100.775 595.1 101.392 593.5C101.907 592.5 102.113 591.2 102.113 589.9Z" fill="#2EAD72" stroke="black" stroke-width="2" stroke-miterlimit="10"/>
<path d="M103.553 625.7H84.8225C79.9854 625.7 75.9717 629.6 75.9717 634.3C75.9717 636 74.5309 637.4 72.7813 637.4H68.5617C63.7247 637.4 59.7109 641.3 59.7109 646V664.2C59.7109 668.9 63.7247 672.8 68.5617 672.8H87.2925C92.1296 672.8 96.1433 668.9 96.1433 664.2V661.1H103.553C108.39 661.1 112.404 657.2 112.404 652.5V634.3C112.404 629.6 108.493 625.7 103.553 625.7Z" fill="#2EAD72" stroke="black" stroke-width="2" stroke-miterlimit="10" stroke-linecap="round" stroke-linejoin="round"/>
<path d="M121.564 621.3H102.833C97.9957 621.3 93.9819 625.2 93.9819 629.9C93.9819 631.6 92.5411 633 90.7916 633H86.572C81.7349 633 77.7212 636.9 77.7212 641.6V659.8C77.7212 664.5 81.7349 668.4 86.572 668.4H105.303C110.14 668.4 114.154 664.5 114.154 659.8V656.7H121.564C126.401 656.7 130.414 652.8 130.414 648.1V629.9C130.414 625.2 126.401 621.3 121.564 621.3Z" fill="#022C25" stroke="black" stroke-width="2" stroke-miterlimit="10" stroke-linecap="round" stroke-linejoin="round"/>
<path d="M450.897 489.6V740.2H1.04834C5.26792 735 11.5459 727.3 19.2646 717.9C38.9217 694 52.0951 678 60.7401 668.2C65.2684 663.1 68.4588 659.6 70.7229 657.5C72.9871 655.4 75.3542 653.4 77.7213 651.6C82.2497 648 86.7779 644.8 91.4092 641.8C98.2017 637.5 105.097 633.8 111.684 630.8C117.447 628.2 122.902 626 128.047 624.1C139.06 620.2 148.219 618 153.571 616.7C173.022 612 186.916 611.8 199.575 610C205.852 609.1 211.719 607.8 217.894 605.3C222.216 603.6 226.642 601.3 231.479 598.2C232.817 597.3 234.052 596.5 235.184 595.6C237.448 594 239.198 592.4 240.844 590.9C245.887 586.1 248.666 581.6 254.841 575.4C256.693 573.5 258.855 571.5 261.53 569.3C284.481 550.2 307.74 544.8 331.205 539.2C335.322 538.2 339.335 537.2 343.452 536.2C370.005 529.4 407.26 516.4 450.897 489.6Z" fill="#022C25" stroke="black" stroke-width="2" stroke-miterlimit="10" stroke-linecap="round" stroke-linejoin="round"/>
<path d="M451 479.5V641.2V683.7V701V740.2H140.192C140.192 740.2 144.617 711.2 172.405 681.4C186.71 666.1 210.998 658.9 235.081 646.3C257.928 634.4 280.673 617.5 294.772 584.4C301.977 567.4 315.253 552.4 331.102 539.4C379.164 500.1 451 479.5 451 479.5Z" fill="#2EAD72" stroke="black" stroke-width="2" stroke-miterlimit="10" stroke-linecap="round" stroke-linejoin="round"/>
</svg>
