<svg width="452" height="842" viewBox="0 0 452 842" fill="none" xmlns="http://www.w3.org/2000/svg">
<path d="M156.919 507.5V550.7" stroke="black" stroke-width="2" stroke-miterlimit="10" stroke-linecap="round" stroke-linejoin="round"/>
<path d="M167.313 508.9C167.313 506.5 166.49 504.3 165.049 502.6C164.123 501.5 164.123 500 165.049 498.9C166.696 496.9 167.622 494.2 167.21 491.4C166.696 486.8 162.785 483.1 158.051 482.5C151.773 481.8 146.421 486.6 146.421 492.6C146.421 495 147.245 497.2 148.685 498.9C149.612 500 149.612 501.5 148.685 502.6C147.245 504.3 146.421 506.5 146.421 508.9C146.421 511.3 147.245 513.5 148.685 515.2C149.612 516.3 149.612 517.8 148.685 518.9C147.039 520.9 146.113 523.6 146.524 526.4C147.039 531 150.95 534.7 155.684 535.3C161.962 536 167.313 531.2 167.313 525.2C167.313 522.8 166.49 520.6 165.049 518.9C164.123 517.8 164.123 516.3 165.049 515.2C166.49 513.5 167.313 511.3 167.313 508.9Z" fill="#022C25" stroke="black" stroke-width="2" stroke-miterlimit="10" stroke-linecap="round" stroke-linejoin="round"/>
<path d="M174.209 505.7V568.4" stroke="black" stroke-width="2" stroke-miterlimit="10" stroke-linecap="round" stroke-linejoin="round"/>
<path d="M349.27 589.9V644.8" stroke="black" stroke-width="2" stroke-miterlimit="10"/>
<path d="M364.913 568.7C364.913 560.1 357.606 553.2 348.652 553.5C340.419 553.8 333.73 560.5 333.627 568.4C333.627 570.6 334.038 572.8 334.964 574.7C335.788 576.6 335.788 578.8 334.964 580.7C334.141 582.6 333.627 584.7 333.627 587C333.73 595 340.522 601.6 348.652 601.9C357.606 602.2 364.913 595.3 364.913 586.7C364.913 584.8 364.502 583 363.884 581.3C362.958 578.9 362.958 576.4 363.884 574C364.502 572.4 364.913 570.6 364.913 568.7Z" fill="#2EAD72" stroke="black" stroke-width="2" stroke-miterlimit="10"/>
<path d="M337.435 583.3V638.2" stroke="black" stroke-width="2" stroke-miterlimit="10"/>
<path d="M346.697 577.9C346.697 572.8 342.375 568.7 337.126 568.9C332.289 569.1 328.275 573 328.275 577.7C328.275 579 328.481 580.3 328.995 581.4C329.51 582.5 329.51 583.8 328.995 584.9C328.481 586 328.172 587.3 328.275 588.6C328.378 593.3 332.289 597.3 337.126 597.4C342.375 597.6 346.697 593.5 346.697 588.4C346.697 587.3 346.491 586.2 346.08 585.2C345.565 583.8 345.565 582.3 346.08 580.9C346.491 580.1 346.697 579 346.697 577.9Z" fill="#022C25" stroke="black" stroke-width="2" stroke-miterlimit="10"/>
<path d="M189.338 507.7C189.338 504.2 188.103 501 186.044 498.5C184.706 496.9 184.809 494.7 186.044 493.1C188.411 490.2 189.749 486.3 189.235 482.2C188.411 475.5 182.854 470.1 175.958 469.3C166.799 468.3 159.08 475.2 159.08 483.9C159.08 487.4 160.315 490.6 162.373 493.1C163.711 494.7 163.711 496.9 162.373 498.5C160.315 501 159.08 504.2 159.08 507.7C159.08 511.2 160.315 514.4 162.373 516.9C163.711 518.5 163.608 520.7 162.373 522.3C160.006 525.2 158.668 529.1 159.183 533.2C160.006 539.9 165.564 545.3 172.459 546.1C181.619 547.1 189.338 540.2 189.338 531.5C189.338 528 188.103 524.8 186.044 522.3C184.706 520.7 184.706 518.5 186.044 516.9C188.103 514.4 189.338 511.2 189.338 507.7Z" fill="#2EAD72" stroke="black" stroke-width="2" stroke-miterlimit="10" stroke-linecap="round" stroke-linejoin="round"/>
<path d="M74.8942 508.1C87.342 508.1 97.433 498.295 97.433 486.2C97.433 474.105 87.342 464.3 74.8942 464.3C62.4464 464.3 52.3555 474.105 52.3555 486.2C52.3555 498.295 62.4464 508.1 74.8942 508.1Z" fill="#2EAD72" stroke="black" stroke-width="2" stroke-miterlimit="10"/>
<path d="M54.7226 490.9C67.1704 490.9 77.2613 481.095 77.2613 469C77.2613 456.905 67.1704 447.1 54.7226 447.1C42.2748 447.1 32.1838 456.905 32.1838 469C32.1838 481.095 42.2748 490.9 54.7226 490.9Z" fill="#022C25" stroke="black" stroke-width="2" stroke-miterlimit="10"/>
<path d="M1 489.1C44.6367 515.9 81.8925 528.9 108.445 535.8C136.13 543 163.505 546.5 190.367 568.9C206.01 581.9 205.187 587.8 220.418 597.7C245.633 614.1 262.408 607.6 298.326 616.2C311.911 619.4 349.785 628.5 381.174 656.9C387.761 662.8 402.684 681 432.53 717.3C440.248 726.7 446.629 734.4 450.746 739.6H1V489.1Z" fill="#022C25" stroke="black" stroke-width="2" stroke-miterlimit="10" stroke-linecap="round" stroke-linejoin="round"/>
<path d="M1 446C1 446 128.205 487.2 157.125 564C186.044 640.8 251.705 639.8 279.493 673.3C307.28 706.9 311.705 739.6 311.705 739.6H1V446Z" fill="#2EAD72" stroke="black" stroke-width="2" stroke-miterlimit="10" stroke-linecap="round" stroke-linejoin="round"/>
</svg>
