<svg width="602" height="143" viewBox="0 0 602 143" fill="none" xmlns="http://www.w3.org/2000/svg">
<path d="M99.4999 104.7C118.057 104.7 133.1 89.6568 133.1 71.1C133.1 52.5432 118.057 37.5 99.4999 37.5C80.9431 37.5 65.8999 52.5432 65.8999 71.1C65.8999 89.6568 80.9431 104.7 99.4999 104.7Z" fill="#022C25" stroke="black" stroke-width="2" stroke-miterlimit="10"/>
<path d="M57.6 68.2C76.1568 68.2 91.2 53.1568 91.2 34.6C91.2 16.0432 76.1568 1 57.6 1C39.0432 1 24 16.0432 24 34.6C24 53.1568 39.0432 68.2 57.6 68.2Z" fill="#2EAD72" stroke="black" stroke-width="2" stroke-miterlimit="10" stroke-linecap="round" stroke-linejoin="round"/>
<path d="M537.8 503.9C537.8 503.9 478.9 370.8 363.6 341.4C248.3 312 227.8 208.4 153.5 119C79.2 29.6001 0 7.80005 0 7.80005V503.9H537.8Z" fill="#022C25" stroke="black" stroke-width="2" stroke-miterlimit="10"/>
<path d="M0 75.1C53 172.5 111.8 231 155.8 266.5C208 308.6 259.5 334.6 311.8 403.2C341.8 442.6 359.6 479.9 369.9 504.7H0V75.1Z" fill="#2EAD72" stroke="black" stroke-width="2" stroke-miterlimit="10" stroke-linecap="round" stroke-linejoin="round"/>
<path d="M589.3 118.5H242.6V504.3H589.3V118.5Z" fill="#F0A2BD" stroke="black" stroke-width="2" stroke-miterlimit="10"/>
<path d="M538.5 88H553.3C554.3 88 555 87.2 555 86.3V80.4C555 79.4 554.2 78.7 553.3 78.7H538.5V88Z" fill="#F0EADB"/>
<path d="M550.4 89H538.5C538 89 537.5 88.6 537.5 88V78.6C537.5 78.1 537.9 77.6 538.5 77.6H550.4C553.5 77.6 556.1 80.1 556.1 83.3C556.1 86.5 553.5 89 550.4 89ZM539.5 87H550.4C552.4 87 554.1 85.3 554.1 83.3C554.1 81.3 552.4 79.6 550.4 79.6H539.5V87Z" fill="black"/>
<path d="M538.5 78.7H504.5C503.5 78.7 502.8 79.5 502.8 80.4V86.3C502.8 87.3 503.6 88 504.5 88H538.5V78.7Z" fill="#F0EADB"/>
<path d="M538.5 89H507.4C504.3 89 501.7 86.5 501.7 83.3C501.7 80.1 504.2 77.6 507.4 77.6H538.5C539 77.6 539.5 78 539.5 78.6V88C539.5 88.6 539 89 538.5 89ZM507.4 79.7C505.4 79.7 503.7 81.4 503.7 83.4C503.7 85.4 505.4 87.1 507.4 87.1H537.5V79.7H507.4Z" fill="black"/>
<path d="M549.5 88H538.5V133C538.5 133.8 539.1 134.4 539.9 134.4H548.1C548.9 134.4 549.5 133.8 549.5 133V88Z" fill="#F0A2BD"/>
<path d="M545.7 135.3H542.2C539.6 135.3 537.5 133.2 537.5 130.6V88C537.5 87.5 537.9 87 538.5 87H549.5C550 87 550.5 87.4 550.5 88V130.6C550.4 133.2 548.3 135.3 545.7 135.3ZM539.5 89V130.6C539.5 132.1 540.7 133.3 542.2 133.3H545.7C547.2 133.3 548.4 132.1 548.4 130.6V89H539.5Z" fill="black"/>
<path d="M538.5 88H509V133C509 133.8 509.6 134.4 510.4 134.4H537.1C537.9 134.4 538.5 133.8 538.5 133V88Z" fill="#FB6337"/>
<path d="M534.8 135.3H512.8C510.2 135.3 508.1 133.2 508.1 130.6V88C508.1 87.5 508.5 87 509.1 87H538.6C539.1 87 539.6 87.4 539.6 88V130.6C539.5 133.2 537.4 135.3 534.8 135.3ZM510 89V130.6C510 132.1 511.2 133.3 512.7 133.3H534.7C536.2 133.3 537.4 132.1 537.4 130.6V89H510Z" fill="black"/>
<path d="M598.3 140.3H232.4C231.2 140.3 230.2 139.3 230.2 138.1V130.6C230.2 129.4 231.2 128.4 232.4 128.4H598.3C599.5 128.4 600.5 129.4 600.5 130.6V138.1C600.5 139.3 599.5 140.3 598.3 140.3Z" fill="#F0EADB"/>
<path d="M594.5 141.3H236.1C232.3 141.3 229.2 138.2 229.2 134.4C229.2 130.6 232.3 127.5 236.1 127.5H594.5C598.3 127.5 601.4 130.6 601.4 134.4C601.5 138.2 598.3 141.3 594.5 141.3ZM236.1 129.4C233.4 129.4 231.1 131.6 231.1 134.4C231.1 137.1 233.3 139.4 236.1 139.4H594.5C597.2 139.4 599.5 137.2 599.5 134.4C599.5 131.7 597.3 129.4 594.5 129.4H236.1Z" fill="black"/>
<path d="M595.2 150.4H237.6C236.6 150.4 235.7 149.6 235.7 148.5V142.2C235.7 141.2 236.5 140.3 237.6 140.3H595.3C596.3 140.3 597.2 141.1 597.2 142.2V148.5C597.1 149.5 596.3 150.4 595.2 150.4Z" fill="#FB6337"/>
<path d="M592.1 151.4H240.8C237.5 151.4 234.8 148.7 234.8 145.4C234.8 142.1 237.5 139.4 240.8 139.4H592.1C595.4 139.4 598.1 142.1 598.1 145.4C598.1 148.7 595.4 151.4 592.1 151.4ZM240.8 141.3C238.6 141.3 236.7 143.1 236.7 145.4C236.7 147.6 238.5 149.5 240.8 149.5H592.1C594.3 149.5 596.2 147.7 596.2 145.4C596.2 143.2 594.4 141.3 592.1 141.3H240.8Z" fill="black"/>
</svg>
