<svg width="549" height="71" viewBox="0 0 549 71" fill="none" xmlns="http://www.w3.org/2000/svg">
<path d="M0.600019 69.1999C0.600019 69.1999 -4.49999 31.1999 38.4 19.1999C81.1 7.3999 92 41.9999 92 41.9999C92 41.9999 106.7 33.4999 119.8 39.5999C119.8 39.5999 138.5 21.5999 173.5 28.4999C173.5 28.4999 186.5 -1.4001 221.5 0.699896C243.5 1.9999 263.2 28.5999 263.2 28.5999C263.2 28.5999 284 -1.20013 321.2 24.7999C321.2 24.7999 340 13.2999 358.5 24.7999C358.5 24.7999 374.9 18.9999 384.6 23.6999C384.6 23.6999 409.1 17.5999 422.7 37.8999C422.7 37.8999 456 27.4999 478.8 43.8999C478.8 43.8999 486.8 38.8999 496.2 40.5999C496.2 40.5999 507.5 34.7999 519.6 40.5999C531.7 46.3999 530.7 58.1999 530.7 58.1999C530.7 58.1999 547.5 54.9999 549 70.0999L0.600019 69.1999Z" fill="#CEE8EF"/>
</svg>
