<svg id="Calque_1" data-name="Calque 1" xmlns="http://www.w3.org/2000/svg" viewBox="0 0 1320.53 700"><defs><style>.cls-1{fill:#f7f5f5;}.cls-2{fill:#eead07;opacity:0.2;}.cls-10,.cls-11,.cls-13,.cls-2{isolation:isolate;}.cls-3{opacity:0.7;}.cls-4{fill:#2a315a;}.cls-5{fill:#f8ece9;}.cls-6{fill:#f3b809;}.cls-7{fill:#c1e4ee;}.cls-8{fill:#bee1ed;}.cls-9{fill:none;stroke:#fff;stroke-linecap:round;stroke-miterlimit:10;}.cls-10{fill:#107ba1;opacity:0.15;}.cls-11{fill:#1d3c76;opacity:0.6;}.cls-12{fill:#dcc7c1;}.cls-13,.cls-15{fill:#e4572b;}.cls-13{opacity:0.5;}.cls-14{opacity:0.8;}.cls-16{fill:#eaedf2;}</style></defs><rect class="cls-1" width="1320" height="530.95"/><path class="cls-2" d="M1320,293.43v74.11h-97.85a20.76,20.76,0,0,1,8-10.78,24.25,24.25,0,0,1-10.94-6.87,22.22,22.22,0,0,1-5.86-15c0-12.67,10.83-22.94,24.18-22.94a25.09,25.09,0,0,1,10.38,2.22A22.14,22.14,0,0,1,1253,301.8a24.67,24.67,0,0,1,19-8.8,25.08,25.08,0,0,1,11.12,2.57c.31-.43.65-.84,1-1.24a24,24,0,0,1,14.08-7.16,26.53,26.53,0,0,1,3.08-.3h1.2A25.22,25.22,0,0,1,1320,293.43Z"/><g class="cls-3"><path class="cls-4" d="M1202.49,150.5H1261a3.46,3.46,0,0,1,3.46,3.46V358.38H1199V154a3.46,3.46,0,0,1,3.42-3.5Z"/><rect class="cls-5" x="1258.51" y="161.46" width="4.77" height="195.11" rx="1.72"/><rect class="cls-5" x="1200.78" y="161.46" width="4.77" height="195.11" rx="1.72"/><path class="cls-5" d="M1207.83,142.52h48.4a2.28,2.28,0,0,1,2.28,2.28h0v5.7h-53v-5.7a2.28,2.28,0,0,1,2.28-2.28Z"/><path class="cls-4" d="M1217.8,116.64H1252a3.11,3.11,0,0,1,3.11,3.11v22.77h-40.46V119.75a3.11,3.11,0,0,1,3.11-3.11Z"/><path class="cls-5" d="M1236.92,95.46h6.79a3.2,3.2,0,0,1,3.2,3.2v18h-13.2v-18a3.2,3.2,0,0,1,3.2-3.2Z"/><rect class="cls-6" x="1210.7" y="155.89" width="42.27" height="5.57" rx="1.59"/><rect class="cls-7" x="1210.7" y="304.65" width="43.08" height="4.65" rx="1.67"/><rect class="cls-7" x="1210.7" y="247.46" width="43.08" height="4.65" rx="1.67"/><rect class="cls-7" x="1210.7" y="298.05" width="43.08" height="4.65" rx="1.67"/><rect class="cls-7" x="1210.7" y="240.32" width="43.08" height="4.65" rx="1.67"/><rect class="cls-7" x="1210.7" y="233.17" width="43.08" height="4.65" rx="1.67"/><rect class="cls-7" x="1210.7" y="226.02" width="43.08" height="4.65" rx="1.67"/><rect class="cls-7" x="1210.7" y="200.73" width="43.08" height="4.65" rx="1.67"/><rect class="cls-7" x="1210.7" y="193.58" width="43.08" height="4.65" rx="1.67"/><rect class="cls-7" x="1210.7" y="186.43" width="43.08" height="4.65" rx="1.67"/></g><path class="cls-8" d="M906.4,531l-99.69-.06q6.67-5.24,13.71-10.51,8.91-6.67,17.61-12.82s27-19.11,57.23-36.88c121.18-71.32,300.8-116.4,303.77-117l1.74-.35,4.78-.94q6.83-1.35,13.63-2.59,19.83-3.63,39.33-6.42l4.77-.67,1.22-.16q28.18-3.9,55.5-6.22V531H906.4Z"/><path class="cls-8" d="M806.45,531.15l.18-.09H727.77l.42.13Z"/><path class="cls-9" d="M904,532.52l2.58-1.58A1028.63,1028.63,0,0,1,1313.4,388l6.63-.81"/><path class="cls-10" d="M806.71,530.94q8.43-6.62,17.42-13.28,5.43-4,10.8-7.85A3407.22,3407.22,0,0,0,0,448.89v82.94Z"/><polygon class="cls-11" points="1320 530.94 932.3 530.94 906.55 530.94 806.86 530.94 0 530.94 0 582.04 0 700 1320 700 1320 637.46 1320 530.94"/><rect class="cls-12" y="520.82" width="386.1" height="11"/><path class="cls-13" d="M105.84,520.62H49.28l-.17-.09H0V466c2.88-7.42,9.66-12.21,17.13-12.1a18.08,18.08,0,0,1,14.48,7.23,21.36,21.36,0,0,1,11-3c8.93-.13,17,5.6,20.45,14.46,14.62.44,26.32,11.71,26.32,25.55a24,24,0,0,1-2.06,9.73c.58,0,1.15-.08,1.73-.08C96.65,507.65,103.45,512.85,105.84,520.62Z"/><g class="cls-14"><rect class="cls-4" x="105.37" y="355.86" width="114.93" height="95.23"/><rect class="cls-6" x="157.73" y="146.68" width="12.73" height="16.09"/><path class="cls-5" d="M223.82,352a3.89,3.89,0,0,1-3.76,4h0c-67-.14-113.18-.22-115.08-.2h-.51a4.61,4.61,0,0,1-4-4.65v-8.72a4.63,4.63,0,0,1,4.5-4.72l114.92-.13a3.87,3.87,0,0,1,3.79,3.88Q223.74,346.77,223.82,352Z"/><rect class="cls-6" x="120.25" y="352.26" width="22.23" height="9.23" rx="1.63"/><rect class="cls-6" x="177.86" y="352.26" width="22.23" height="9.23" rx="1.63"/><rect class="cls-6" x="181.79" y="336.16" width="12.73" height="16.09"/><path class="cls-5" d="M108.16,331.94c0-29.47,19.22-85.7,55.6-85.7,37.93,0,55.59,56.23,55.59,85.7Z"/><rect class="cls-6" x="125.54" y="336.16" width="12.73" height="16.09"/><path class="cls-6" d="M220.84,337.6h-116v-4c-.2-2.65.51-4.77,1.84-5.26a1.8,1.8,0,0,1,.89-.1H220.46a1,1,0,0,1,.35,0C221.14,328.32,221.72,329.26,220.84,337.6Z"/><path class="cls-6" d="M189.33,257H138.28a1.85,1.85,0,0,1-1.85-1.87,1.78,1.78,0,0,1,.16-.75L139,248.9a1.85,1.85,0,0,1,1.69-1.11l6.46-4.78h32.71l6.77,4.78a1.85,1.85,0,0,1,1.67,1l2.68,5.49a1.86,1.86,0,0,1-.79,2.51A1.9,1.9,0,0,1,189.33,257Z"/><path class="cls-6" d="M188.51,206.44l-3.43,3.09a15.12,15.12,0,0,0-5,11.23v27h-32.9v-27a15.13,15.13,0,0,0-5-11.23l-3.44-3.09Z"/><path class="cls-15" d="M170,214h5.45v18.49a1.43,1.43,0,0,1-1.43,1.43h-2.59a1.43,1.43,0,0,1-1.43-1.43V214Z"/><rect class="cls-6" x="133.05" y="197.63" width="61.52" height="6.94" rx="1.81"/><path class="cls-15" d="M152.18,214h5.45v18.49a1.43,1.43,0,0,1-1.43,1.43h-2.59a1.43,1.43,0,0,1-1.43-1.43V214Z"/><path class="cls-4" d="M139.39,197.63c0-13,8.49-37.86,24.56-37.86,16.76,0,24.56,24.84,24.56,37.86Z"/><rect class="cls-5" x="151.73" y="130.06" width="24.72" height="24.5"/><circle class="cls-7" cx="164.09" cy="142.31" r="8.16"/><path class="cls-6" d="M151.73,130.06A26.29,26.29,0,0,0,159.89,107h8.32a30.37,30.37,0,0,0,1.14,10.77,30.76,30.76,0,0,0,7.1,12.34Z"/><circle class="cls-7" cx="164.21" cy="103.91" r="2.73"/><rect class="cls-5" x="159.39" y="106.64" width="9.4" height="1.06" rx="0.28"/><path class="cls-15" d="M129.31,328.25c0-17.77,11.6-51.68,33.53-51.68,22.87,0,33.53,33.91,33.53,51.68Z"/><path class="cls-15" d="M122.93,281.13c3.07,1.25,1.52,10.72.4,22.32-.58,6-1.23,14.48-1.44,24.8H108.16A122.28,122.28,0,0,1,113.55,299a120.41,120.41,0,0,1,7.07-17.54C121,280.78,122.13,280.81,122.93,281.13Z"/><path class="cls-15" d="M207.47,281.46A120.41,120.41,0,0,1,214.54,299a122.28,122.28,0,0,1,5.39,29.25H206.2c-.21-10.32-.86-18.78-1.44-24.8-1.12-11.6-2.67-21.07.4-22.32C206,280.81,207.14,280.78,207.47,281.46Z"/><rect class="cls-5" x="136.43" y="204.56" width="54.76" height="1.87" rx="0.67"/><rect class="cls-7" x="106.07" y="445.23" width="114.76" height="75.39"/><rect class="cls-6" x="102.57" y="445" width="121.25" height="8.9" rx="1.84"/><rect class="cls-4" x="210.24" y="502.03" width="10.6" height="6.81"/><rect class="cls-4" x="215.54" y="496.73" width="5.3" height="5.3"/><rect class="cls-4" x="210.23" y="489.91" width="10.6" height="6.81"/><rect class="cls-4" x="215.54" y="484.95" width="5.3" height="5.3"/><rect class="cls-4" x="210.23" y="478.13" width="10.6" height="6.81"/><rect class="cls-4" x="215.53" y="472.83" width="5.3" height="5.3"/><rect class="cls-4" x="210.23" y="466.02" width="10.6" height="6.81"/><rect class="cls-4" x="210.24" y="453.9" width="10.6" height="6.81"/><rect class="cls-4" x="215.54" y="460.72" width="5.3" height="5.3"/><rect class="cls-4" x="210.24" y="513.81" width="10.6" height="6.81"/><rect class="cls-4" x="215.54" y="508.51" width="5.3" height="5.3"/><rect class="cls-4" x="106.03" y="502.03" width="10.6" height="6.81"/><rect class="cls-4" x="106.03" y="496.73" width="5.3" height="5.3"/><rect class="cls-4" x="106.02" y="489.91" width="10.6" height="6.81"/><rect class="cls-4" x="106.03" y="484.95" width="5.3" height="5.3"/><rect class="cls-4" x="106.02" y="478.13" width="10.6" height="6.81"/><rect class="cls-4" x="106.02" y="472.83" width="5.3" height="5.3"/><rect class="cls-4" x="106.02" y="466.02" width="10.6" height="6.81"/><rect class="cls-4" x="106.03" y="453.9" width="10.6" height="6.81"/><rect class="cls-4" x="106.03" y="460.72" width="5.3" height="5.3"/><rect class="cls-7" x="104.69" y="389.68" width="5.3" height="6.81"/><rect class="cls-7" x="104.7" y="384.38" width="2.65" height="5.3"/><rect class="cls-7" x="104.7" y="377.57" width="5.3" height="6.81"/><rect class="cls-7" x="104.7" y="372.26" width="2.65" height="5.3"/><rect class="cls-7" x="104.69" y="365.45" width="5.3" height="6.81"/><rect class="cls-7" x="104.7" y="355.86" width="2.65" height="9.59"/><rect class="cls-7" x="104.7" y="438.19" width="5.3" height="6.81"/><rect class="cls-7" x="104.7" y="432.89" width="2.65" height="5.3"/><rect class="cls-7" x="104.7" y="426.08" width="5.3" height="6.81"/><rect class="cls-7" x="104.7" y="420.78" width="2.65" height="5.3"/><rect class="cls-7" x="104.7" y="413.96" width="5.3" height="6.81"/><rect class="cls-7" x="104.7" y="408.66" width="2.65" height="5.3"/><rect class="cls-7" x="104.7" y="401.85" width="5.3" height="6.81"/><rect class="cls-7" x="104.7" y="396.54" width="2.65" height="5.3"/><rect class="cls-7" x="215.77" y="400.79" width="5.3" height="7.19"/><rect class="cls-7" x="218.42" y="395.48" width="2.65" height="5.3"/><rect class="cls-7" x="215.77" y="388.68" width="5.3" height="6.81"/><rect class="cls-7" x="218.42" y="383.37" width="2.65" height="5.3"/><rect class="cls-7" x="215.77" y="376.37" width="5.3" height="7"/><rect class="cls-7" x="218.42" y="371.06" width="2.65" height="5.3"/><rect class="cls-7" x="215.77" y="364.26" width="5.3" height="6.81"/><rect class="cls-7" x="218.43" y="356.06" width="2.65" height="8.2"/><rect class="cls-7" x="215.77" y="437.62" width="5.3" height="7.19"/><rect class="cls-7" x="218.43" y="432.32" width="2.65" height="5.3"/><rect class="cls-7" x="215.77" y="425.51" width="5.3" height="6.81"/><rect class="cls-7" x="218.42" y="420.2" width="2.65" height="5.3"/><rect class="cls-7" x="215.77" y="413.21" width="5.3" height="6.81"/><rect class="cls-7" x="218.43" y="407.9" width="2.65" height="5.3"/><rect class="cls-7" x="215.77" y="401.09" width="5.3" height="6.81"/><rect class="cls-7" x="215.77" y="388.98" width="5.3" height="6.81"/><rect class="cls-7" x="218.42" y="395.78" width="2.65" height="5.3"/><rect class="cls-4" x="106.03" y="513.81" width="10.6" height="6.81"/><rect class="cls-4" x="106.03" y="508.51" width="5.3" height="5.3"/></g><path class="cls-16" d="M689.46,170.37c3.22,0,3.23-5,0-5S686.24,170.37,689.46,170.37Z"/></svg>