<svg width="271" height="276" viewBox="0 0 271 276" fill="none" xmlns="http://www.w3.org/2000/svg">
<path d="M247.6 132H155.5L121.9 154.8C118.8 157 114.6 154.1 115.6 150.4L120.4 132.1H108C98.7 132.1 91.3 124.6 91.3 115.2V47.4C91.3 38.1 98.8 30.5 108 30.5H247.7C257 30.5 264.4 38 264.4 47.4V115.2C264.4 124.5 256.8 132 247.6 132Z" fill="#F1B705"/>
<path d="M247.6 30.5H210.2C207.8 77.8 168.8 115.3 121.1 115.3C110.6 115.3 100.5 113.5 91.2 110.2V115.2C91.2 124.5 98.7 132.1 107.9 132.1H120.2L115.4 150.4C114.4 154.1 118.5 157 121.7 154.8L155.3 132H247.4C256.7 132 264.1 124.5 264.1 115.1V47.3C264.4 38 256.8 30.5 247.6 30.5Z" fill="#EEAD07"/>
<path d="M101.657 57.723C101.913 57.7919 102.262 57.8362 102.705 57.8559C103.158 57.8657 103.65 57.8657 104.182 57.8559C104.723 57.846 105.284 57.8313 105.865 57.8116C106.455 57.7919 107.011 57.782 107.533 57.782C108.065 57.782 108.547 57.8017 108.98 57.8411C109.413 57.8706 109.753 57.9297 109.999 58.0183V58.9336C109.664 58.9829 109.206 59.0124 108.626 59.0222C108.045 59.0321 107.425 59.0419 106.765 59.0518C106.106 59.0518 105.446 59.0714 104.787 59.1108C104.127 59.1403 103.552 59.2092 103.06 59.3175C102.971 59.7211 102.907 60.0606 102.868 60.3362C102.828 60.602 102.799 60.8382 102.779 61.0449C102.769 61.2418 102.764 61.4288 102.764 61.6059C102.774 61.7831 102.784 61.975 102.794 62.1817C102.813 62.3786 102.828 62.6099 102.838 62.8756C102.858 63.1414 102.868 63.4662 102.868 63.8501C103.498 63.8501 104.108 63.8205 104.698 63.7615C105.299 63.6926 105.889 63.6188 106.47 63.54C107.061 63.4514 107.651 63.3776 108.242 63.3186C108.832 63.2497 109.438 63.2152 110.058 63.2152V64.2192L103 65.105L103.104 68.8551C104.029 68.8551 104.866 68.8305 105.614 68.7813C106.362 68.7222 107.07 68.6632 107.74 68.6041C108.419 68.545 109.088 68.4909 109.748 68.4417C110.407 68.3826 111.106 68.3531 111.844 68.3531C111.844 68.4614 111.815 68.5943 111.756 68.7517C111.697 68.8994 111.618 69.0372 111.519 69.1651C111.421 69.2832 111.308 69.3768 111.18 69.4457C111.062 69.5047 110.944 69.4899 110.825 69.4014C110.146 69.4801 109.393 69.5588 108.567 69.6376C107.75 69.7065 106.918 69.7803 106.071 69.859C105.235 69.9279 104.423 69.9968 103.635 70.0657C102.858 70.1248 102.174 70.1789 101.583 70.2281L101.657 57.723ZM113.793 70.0657C113.763 70.1445 113.695 70.2035 113.586 70.2429C113.478 70.2823 113.35 70.302 113.202 70.302C113.065 70.302 112.927 70.2823 112.789 70.2429C112.651 70.2035 112.538 70.1346 112.449 70.0362L112.42 61.6502C112.784 61.4337 113.055 61.35 113.232 61.3992C113.419 61.4485 113.552 61.5764 113.631 61.7831C113.709 61.98 113.759 62.226 113.778 62.5213C113.798 62.8067 113.827 63.0823 113.867 63.3481C114.881 62.6099 115.757 62.0833 116.495 61.7683C117.233 61.4435 117.853 61.2811 118.355 61.2811C118.867 61.2811 119.275 61.4189 119.581 61.6945C119.895 61.9701 120.142 62.3441 120.319 62.8166C120.496 63.2792 120.619 63.8156 120.688 64.4259C120.757 65.0263 120.801 65.6562 120.821 66.3157C120.84 66.9653 120.85 67.6198 120.85 68.2793C120.86 68.9388 120.89 69.5539 120.939 70.1248C120.811 70.2429 120.648 70.3069 120.452 70.3167C120.255 70.3364 120.073 70.3315 119.905 70.302C119.738 70.2823 119.61 70.2528 119.521 70.2134C119.433 70.174 119.433 70.1593 119.521 70.1691C119.492 69.9132 119.472 69.5933 119.462 69.2094C119.453 68.8157 119.448 68.3974 119.448 67.9545C119.448 67.5017 119.448 67.0391 119.448 66.5667C119.448 66.0844 119.443 65.6267 119.433 65.1936C119.423 64.7605 119.398 64.3668 119.359 64.0125C119.33 63.6581 119.28 63.3727 119.211 63.1562C119.133 62.9692 118.985 62.8363 118.768 62.7575C118.562 62.6689 118.306 62.6345 118.001 62.6542C117.696 62.664 117.361 62.7231 116.997 62.8314C116.642 62.9298 116.278 63.0676 115.904 63.2447C115.54 63.4219 115.181 63.6385 114.826 63.8944C114.482 64.1404 114.177 64.416 113.911 64.7212L113.793 70.0657ZM121.633 63.9682C121.397 63.9091 121.244 63.8107 121.175 63.6729C121.096 63.5351 121.072 63.3973 121.101 63.2595C121.131 63.1119 121.195 62.9839 121.293 62.8756C121.392 62.7674 121.495 62.7083 121.603 62.6985H124.364L124.305 58.0921C124.344 57.974 124.428 57.8756 124.556 57.7968C124.684 57.7181 124.822 57.6738 124.969 57.6639C125.117 57.6442 125.265 57.6639 125.412 57.723C125.56 57.7722 125.678 57.8706 125.767 58.0183L125.9 62.6247L128.513 62.5656C128.69 62.664 128.808 62.7871 128.867 62.9347C128.936 63.0725 128.966 63.2103 128.956 63.3481C128.946 63.4761 128.906 63.5942 128.838 63.7024C128.779 63.8009 128.71 63.8599 128.631 63.8796L125.9 63.9387C125.89 64.5489 125.895 65.1001 125.914 65.5922C125.944 66.0745 125.973 66.547 126.003 67.0096C126.042 67.4623 126.072 67.9348 126.091 68.4269C126.121 68.9092 126.136 69.4506 126.136 70.051C125.85 70.2478 125.56 70.3413 125.265 70.3315C124.969 70.3217 124.768 70.1986 124.659 69.9624L124.497 63.9682H121.633ZM129.34 61.4435C129.359 61.2565 129.438 61.1433 129.576 61.104C129.714 61.0547 129.861 61.04 130.019 61.0597C130.275 61.0892 130.467 61.2221 130.595 61.4583C130.722 61.6847 130.811 61.9406 130.86 62.226C130.909 62.5115 130.934 62.792 130.934 63.0676C130.934 63.3333 130.939 63.5253 130.949 63.6434C131.224 63.4072 131.53 63.1365 131.864 62.8314C132.209 62.5262 132.622 62.2506 133.104 62.0046C133.597 61.7487 134.182 61.5567 134.861 61.4288C135.55 61.291 136.377 61.2811 137.342 61.3992C137.578 61.4583 137.75 61.5715 137.858 61.7388C137.977 61.9061 138.036 62.0833 138.036 62.2703C138.045 62.4475 137.996 62.6148 137.888 62.7723C137.79 62.9199 137.647 63.0036 137.46 63.0233C137.224 62.8461 136.909 62.7428 136.515 62.7132C136.121 62.6837 135.688 62.7182 135.216 62.8166C134.753 62.915 134.281 63.0725 133.798 63.289C133.316 63.5056 132.868 63.7763 132.455 64.1011C132.051 64.4259 131.702 64.7999 131.407 65.2231C131.121 65.6464 130.944 66.109 130.875 66.611V69.8443C130.855 69.8935 130.777 69.9673 130.639 70.0657C130.501 70.1543 130.344 70.2183 130.166 70.2577C129.999 70.3069 129.827 70.3069 129.65 70.2577C129.482 70.2085 129.354 70.0707 129.266 69.8443C129.266 69.7754 129.266 69.5588 129.266 69.1947C129.266 68.8206 129.266 68.3728 129.266 67.8511C129.276 67.3196 129.285 66.7438 129.295 66.1237C129.305 65.4938 129.31 64.8786 129.31 64.2782C129.32 63.6778 129.325 63.1266 129.325 62.6247C129.335 62.1227 129.34 61.729 129.34 61.4435ZM137.77 67.8068C137.681 67.0096 137.75 66.2172 137.977 65.4298C138.203 64.6326 138.552 63.9239 139.025 63.3038C139.507 62.6739 140.088 62.1719 140.767 61.7979C141.446 61.414 142.194 61.2319 143.011 61.2516C143.346 61.2418 143.73 61.3156 144.163 61.4731C144.596 61.6305 144.994 61.852 145.359 62.1374C145.723 62.413 146.013 62.7378 146.23 63.1119C146.456 63.4761 146.53 63.8648 146.451 64.2782C146.461 64.4849 146.358 64.6572 146.141 64.795C145.925 64.9229 145.634 65.0263 145.27 65.105C144.916 65.1838 144.497 65.2428 144.015 65.2822C143.543 65.3117 143.041 65.3363 142.509 65.356C141.987 65.3757 141.456 65.3954 140.915 65.4151C140.373 65.4249 139.861 65.4495 139.379 65.4889C139.104 66.2468 139.02 66.8718 139.128 67.3639C139.246 67.8462 139.487 68.2153 139.852 68.4712C140.226 68.7271 140.683 68.8797 141.225 68.9289C141.776 68.9683 142.347 68.9289 142.937 68.8108C143.528 68.6927 144.109 68.5057 144.679 68.2498C145.25 67.984 145.742 67.669 146.156 67.3049C146.215 67.3049 146.289 67.3246 146.377 67.3639C146.476 67.4033 146.569 67.4574 146.658 67.5263C146.746 67.5854 146.82 67.6543 146.879 67.733C146.948 67.8019 146.983 67.8659 146.983 67.925C146.737 68.3482 146.363 68.7271 145.861 69.0618C145.359 69.3964 144.793 69.6671 144.163 69.8738C143.533 70.0805 142.873 70.2085 142.184 70.2577C141.505 70.3069 140.865 70.2577 140.265 70.11C139.665 69.9624 139.138 69.7016 138.685 69.3275C138.232 68.9535 137.927 68.4466 137.77 67.8068ZM144.827 63.8648C144.778 63.4908 144.63 63.2103 144.384 63.0233C144.138 62.8363 143.848 62.7182 143.513 62.6689C143.178 62.6099 142.824 62.6148 142.45 62.6837C142.076 62.7526 141.727 62.856 141.402 62.9938C141.087 63.1316 140.821 63.294 140.605 63.481C140.398 63.668 140.29 63.855 140.28 64.042L144.827 63.8648ZM148.459 67.9988C148.902 67.5657 149.374 67.1228 149.876 66.67C150.388 66.2172 150.89 65.7694 151.382 65.3265C151.874 64.8737 152.347 64.421 152.8 63.9682C153.262 63.5154 153.671 63.0725 154.025 62.6394L147.47 62.6542C147.401 62.5853 147.366 62.4869 147.366 62.3589C147.366 62.2211 147.396 62.0882 147.455 61.9603C147.524 61.8225 147.622 61.7044 147.75 61.6059C147.878 61.4977 148.036 61.4337 148.223 61.414C148.321 61.3845 148.484 61.3746 148.71 61.3845C148.946 61.3943 149.315 61.4091 149.817 61.4288C150.319 61.4386 150.994 61.4435 151.84 61.4435C152.686 61.4337 153.779 61.3992 155.118 61.3402C155.501 61.3894 155.743 61.5075 155.841 61.6945C155.939 61.8717 155.93 62.0981 155.812 62.3737C155.703 62.6493 155.506 62.9642 155.221 63.3186C154.936 63.6729 154.601 64.0469 154.217 64.4406C153.833 64.8343 153.42 65.2379 152.977 65.6513C152.534 66.0647 152.096 66.4682 151.663 66.8619C151.23 67.2557 150.821 67.6297 150.437 67.984C150.054 68.3383 149.729 68.6533 149.463 68.9289L155.428 68.7665C155.497 68.7665 155.575 68.801 155.664 68.8699C155.752 68.9388 155.826 69.0323 155.885 69.1504C155.954 69.2685 155.999 69.4112 156.018 69.5785C156.038 69.736 156.013 69.9033 155.944 70.0805C155.531 70.0313 155.054 70.0165 154.512 70.0362C153.981 70.0559 153.43 70.0854 152.859 70.1248C152.288 70.1642 151.717 70.2035 151.146 70.2429C150.575 70.2921 150.049 70.3167 149.566 70.3167C149.094 70.3167 148.68 70.2872 148.326 70.2281C147.982 70.1593 147.741 70.0411 147.603 69.8738C147.465 69.7065 147.455 69.4703 147.573 69.1651C147.701 68.86 147.996 68.4712 148.459 67.9988ZM164.168 58.1216C164.237 57.9641 164.33 57.846 164.449 57.7673C164.576 57.6787 164.704 57.6246 164.832 57.6049C164.96 57.5753 165.078 57.5852 165.187 57.6344C165.305 57.6738 165.398 57.7476 165.467 57.8559L165.807 69.6966C165.807 69.8738 165.753 70.0018 165.644 70.0805C165.536 70.1593 165.413 70.2035 165.275 70.2134C165.137 70.2134 164.995 70.1839 164.847 70.1248C164.699 70.0657 164.586 69.9772 164.508 69.859L164.168 58.1216ZM166.634 67.8068C166.545 67.0096 166.614 66.2172 166.84 65.4298C167.067 64.6326 167.416 63.9239 167.889 63.3038C168.371 62.6739 168.952 62.1719 169.631 61.7979C170.31 61.414 171.058 61.2319 171.875 61.2516C172.209 61.2418 172.593 61.3156 173.026 61.4731C173.46 61.6305 173.858 61.852 174.222 62.1374C174.586 62.413 174.877 62.7378 175.093 63.1119C175.32 63.4761 175.394 63.8648 175.315 64.2782C175.325 64.4849 175.221 64.6572 175.005 64.795C174.788 64.9229 174.498 65.0263 174.134 65.105C173.779 65.1838 173.361 65.2428 172.879 65.2822C172.406 65.3117 171.904 65.3363 171.373 65.356C170.851 65.3757 170.32 65.3954 169.778 65.4151C169.237 65.4249 168.725 65.4495 168.243 65.4889C167.967 66.2468 167.884 66.8718 167.992 67.3639C168.11 67.8462 168.351 68.2153 168.715 68.4712C169.089 68.7271 169.547 68.8797 170.088 68.9289C170.64 68.9683 171.21 68.9289 171.801 68.8108C172.392 68.6927 172.972 68.5057 173.543 68.2498C174.114 67.984 174.606 67.669 175.02 67.3049C175.079 67.3049 175.152 67.3246 175.241 67.3639C175.339 67.4033 175.433 67.4574 175.522 67.5263C175.61 67.5854 175.684 67.6543 175.743 67.733C175.812 67.8019 175.846 67.8659 175.846 67.925C175.6 68.3482 175.226 68.7271 174.724 69.0618C174.222 69.3964 173.656 69.6671 173.026 69.8738C172.396 70.0805 171.737 70.2085 171.048 70.2577C170.369 70.3069 169.729 70.2577 169.129 70.11C168.528 69.9624 168.002 69.7016 167.549 69.3275C167.096 68.9535 166.791 68.4466 166.634 67.8068ZM173.691 63.8648C173.642 63.4908 173.494 63.2103 173.248 63.0233C173.002 62.8363 172.711 62.7182 172.377 62.6689C172.042 62.6099 171.688 62.6148 171.314 62.6837C170.94 62.7526 170.59 62.856 170.266 62.9938C169.951 63.1316 169.685 63.294 169.468 63.481C169.262 63.668 169.153 63.855 169.143 64.042L173.691 63.8648ZM177.101 69.1947C177.987 69.1258 178.789 69.0027 179.508 68.8256C180.236 68.6484 180.846 68.4466 181.339 68.2202C181.841 67.984 182.215 67.7379 182.461 67.482C182.707 67.2163 182.795 66.9554 182.726 66.6995C182.648 66.4239 182.254 66.3058 181.545 66.3452C180.846 66.3846 179.808 66.5421 178.43 66.8177C178.027 66.7881 177.672 66.6946 177.367 66.5371C177.072 66.3797 176.836 66.1926 176.658 65.9761C176.481 65.7497 176.368 65.5135 176.319 65.2674C176.27 65.0214 176.284 64.8048 176.363 64.6178C176.363 64.293 176.457 63.978 176.644 63.6729C176.84 63.3579 177.101 63.0725 177.426 62.8166C177.761 62.5508 178.145 62.3146 178.578 62.1079C179.021 61.8914 179.493 61.724 179.995 61.6059C180.497 61.478 181.014 61.3992 181.545 61.3697C182.077 61.3402 182.603 61.3746 183.125 61.4731C183.381 61.5912 183.588 61.729 183.745 61.8865C183.912 62.0341 184.026 62.1867 184.085 62.3441C184.144 62.4918 184.144 62.6345 184.085 62.7723C184.026 62.9101 183.903 63.0282 183.716 63.1266C183.312 62.9495 182.884 62.8215 182.431 62.7428C181.988 62.6542 181.545 62.6197 181.102 62.6394C180.659 62.6591 180.231 62.728 179.818 62.8461C179.414 62.9544 179.055 63.1119 178.74 63.3186C178.435 63.5154 178.184 63.7615 177.987 64.0568C177.79 64.3521 177.687 64.6867 177.677 65.0607C177.677 65.2674 177.756 65.4052 177.913 65.4741C178.081 65.5332 178.273 65.5627 178.489 65.5627C178.716 65.5529 178.947 65.5283 179.183 65.4889C179.429 65.4397 179.626 65.4151 179.774 65.4151C180.748 65.2773 181.55 65.2379 182.18 65.297C182.82 65.356 183.307 65.484 183.642 65.6808C183.976 65.8777 184.173 66.1237 184.232 66.419C184.291 66.7143 184.232 67.0342 184.055 67.3787C183.888 67.7133 183.612 68.0529 183.228 68.3974C182.845 68.7419 182.377 69.0569 181.826 69.3423C181.275 69.6277 180.65 69.8689 179.951 70.0657C179.262 70.2528 178.524 70.3659 177.736 70.4053C177.549 70.4742 177.392 70.4644 177.264 70.3758C177.146 70.2872 177.057 70.1691 176.998 70.0215C176.939 69.8738 176.914 69.7212 176.924 69.5638C176.944 69.3964 177.003 69.2734 177.101 69.1947Z" fill="white"/>
<path d="M108.773 85.2721C108.488 85.715 108.158 86.1186 107.784 86.4827C107.41 86.8371 106.997 87.1422 106.544 87.3981C106.101 87.6442 105.614 87.8263 105.082 87.9444C104.561 88.0625 104.009 88.0969 103.429 88.0477C103.222 88.0477 103 88.0231 102.764 87.9739C102.528 87.9247 102.307 87.846 102.1 87.7377C101.903 87.6294 101.741 87.4867 101.613 87.3095C101.485 87.1324 101.421 86.9109 101.421 86.6451C101.312 86.094 101.337 85.5231 101.495 84.9325C101.662 84.3321 101.913 83.7514 102.248 83.1904C102.592 82.6195 103.005 82.088 103.488 81.5958C103.98 81.0939 104.501 80.6706 105.053 80.3261C105.604 79.9718 106.165 79.7159 106.736 79.5584C107.317 79.3911 107.873 79.3566 108.404 79.455C108.808 79.455 109.118 79.5879 109.334 79.8537C109.561 80.1194 109.728 80.4787 109.836 80.9315C109.954 81.3744 110.023 81.8911 110.043 82.4817C110.072 83.0624 110.087 83.6726 110.087 84.3124C110.097 84.9424 110.112 85.5772 110.132 86.217C110.151 86.8469 110.205 87.4326 110.294 87.9739C110.284 87.9936 110.235 88.0527 110.146 88.1511C110.068 88.2495 109.964 88.3282 109.836 88.3873C109.708 88.4464 109.561 88.4562 109.393 88.4168C109.236 88.3873 109.078 88.2495 108.921 88.0034C108.862 87.905 108.822 87.7328 108.803 87.4867C108.793 87.2308 108.788 86.9601 108.788 86.6747C108.798 86.3892 108.803 86.1136 108.803 85.8479C108.813 85.5821 108.803 85.3902 108.773 85.2721ZM107.843 80.7838C107.459 80.7543 107.061 80.8133 106.647 80.961C106.234 81.1086 105.83 81.3202 105.437 81.5958C105.053 81.8616 104.689 82.1766 104.344 82.5407C104 82.8951 103.699 83.2691 103.443 83.6628C103.187 84.0467 102.986 84.4305 102.838 84.8144C102.7 85.1983 102.636 85.5526 102.646 85.8774C102.666 86.1924 102.769 86.4631 102.956 86.6894C103.153 86.906 103.458 87.0487 103.872 87.1176C104.442 87.1274 104.989 86.9847 105.51 86.6894C106.032 86.3843 106.504 86.0054 106.928 85.5526C107.351 85.0998 107.705 84.6077 107.991 84.0762C108.286 83.5348 108.483 83.0279 108.581 82.5555C108.69 82.083 108.69 81.6844 108.581 81.3596C108.473 81.025 108.227 80.833 107.843 80.7838ZM118.207 86.2908C117.755 86.6353 117.277 86.9453 116.775 87.2209C116.273 87.4965 115.776 87.7229 115.284 87.9001C114.792 88.0674 114.31 88.1806 113.837 88.2397C113.375 88.2889 112.947 88.2643 112.553 88.1658C112.169 88.0674 111.829 87.8853 111.534 87.6196C111.239 87.344 111.022 86.965 110.884 86.4827C110.747 85.843 110.757 85.2376 110.914 84.6668C111.071 84.0959 111.332 83.5742 111.697 83.1018C112.061 82.6293 112.504 82.2208 113.025 81.8764C113.547 81.522 114.103 81.2464 114.694 81.0496C115.284 80.8527 115.89 80.7444 116.51 80.7248C117.14 80.7051 117.74 80.7887 118.311 80.9757C118.311 80.7592 118.311 80.4787 118.311 80.1342C118.321 79.7799 118.326 79.4157 118.326 79.0417C118.335 78.6676 118.345 78.3084 118.355 77.9639C118.365 77.6194 118.38 77.3389 118.399 77.1223C118.458 76.6203 118.577 76.2365 118.754 75.9707C118.931 75.6951 119.241 75.6016 119.684 75.6902C119.704 76.4579 119.708 77.1617 119.699 77.8015C119.689 78.4314 119.674 79.0367 119.654 79.6175C119.635 80.1883 119.615 80.7543 119.595 81.3153C119.576 81.8665 119.566 82.4571 119.566 83.087C119.566 83.7071 119.576 84.3813 119.595 85.1097C119.625 85.838 119.674 86.655 119.743 87.5605C119.743 87.846 119.689 88.0477 119.581 88.1658C119.482 88.284 119.31 88.343 119.064 88.343C118.828 88.343 118.645 88.2692 118.518 88.1216C118.399 87.9641 118.316 87.782 118.267 87.5753C118.227 87.3587 118.207 87.1324 118.207 86.8961C118.207 86.6599 118.207 86.4581 118.207 86.2908ZM112.169 85.715C112.189 86.1678 112.317 86.4926 112.553 86.6894C112.799 86.8764 113.138 86.9306 113.572 86.8518C113.778 86.8518 114.093 86.7977 114.516 86.6894C114.95 86.5713 115.392 86.4237 115.845 86.2465C116.308 86.0595 116.741 85.8577 117.144 85.6412C117.548 85.4148 117.833 85.1884 118.001 84.962V82.5112C117.745 82.2356 117.42 82.0634 117.026 81.9945C116.633 81.9157 116.214 81.9206 115.771 82.0092C115.328 82.0978 114.886 82.2602 114.443 82.4964C114.01 82.7228 113.621 83.0033 113.276 83.338C112.932 83.6628 112.656 84.0319 112.449 84.4453C112.243 84.8488 112.149 85.2721 112.169 85.715ZM120.791 79.5436C120.811 79.3566 120.89 79.2434 121.027 79.2041C121.165 79.1548 121.313 79.1401 121.47 79.1598C121.726 79.1893 121.918 79.3222 122.046 79.5584C122.174 79.7848 122.263 80.0407 122.312 80.3261C122.361 80.6116 122.386 80.8921 122.386 81.1677C122.386 81.4334 122.391 81.6254 122.4 81.7435C122.676 81.5073 122.981 81.2366 123.316 80.9315C123.66 80.6263 124.074 80.3507 124.556 80.1047C125.048 79.8488 125.634 79.6568 126.313 79.5289C127.002 79.3911 127.829 79.3812 128.793 79.4993C129.03 79.5584 129.202 79.6716 129.31 79.8389C129.428 80.0062 129.487 80.1834 129.487 80.3704C129.497 80.5476 129.448 80.7149 129.34 80.8724C129.241 81.02 129.098 81.1037 128.911 81.1234C128.675 80.9462 128.36 80.8429 127.967 80.8133C127.573 80.7838 127.14 80.8183 126.667 80.9167C126.205 81.0151 125.732 81.1726 125.25 81.3891C124.768 81.6057 124.32 81.8764 123.906 82.2012C123.503 82.526 123.153 82.9 122.858 83.3232C122.573 83.7465 122.396 84.2091 122.327 84.7111V87.9444C122.307 87.9936 122.228 88.0674 122.09 88.1658C121.953 88.2544 121.795 88.3184 121.618 88.3578C121.451 88.407 121.278 88.407 121.101 88.3578C120.934 88.3086 120.806 88.1708 120.717 87.9444C120.717 87.8755 120.717 87.6589 120.717 87.2948C120.717 86.9207 120.717 86.4729 120.717 85.9512C120.727 85.4197 120.737 84.8439 120.747 84.2238C120.757 83.5939 120.762 82.9787 120.762 82.3783C120.771 81.7779 120.776 81.2267 120.776 80.7248C120.786 80.2228 120.791 79.8291 120.791 79.5436ZM129.221 85.9069C129.133 85.1097 129.202 84.3173 129.428 83.5299C129.655 82.7327 130.004 82.024 130.476 81.4039C130.959 80.774 131.539 80.272 132.219 79.898C132.898 79.5141 133.646 79.332 134.463 79.3517C134.797 79.3419 135.181 79.4157 135.614 79.5732C136.047 79.7306 136.446 79.9521 136.81 80.2375C137.174 80.5131 137.465 80.8379 137.681 81.212C137.908 81.5761 137.981 81.9649 137.903 82.3783C137.913 82.585 137.809 82.7573 137.593 82.8951C137.376 83.023 137.086 83.1264 136.722 83.2051C136.367 83.2839 135.949 83.3429 135.467 83.3823C134.994 83.4118 134.492 83.4364 133.961 83.4561C133.439 83.4758 132.908 83.4955 132.366 83.5152C131.825 83.525 131.313 83.5496 130.831 83.589C130.555 84.3469 130.471 84.9719 130.58 85.464C130.698 85.9463 130.939 86.3154 131.303 86.5713C131.677 86.8272 132.135 86.9798 132.676 87.029C133.227 87.0684 133.798 87.029 134.389 86.9109C134.979 86.7928 135.56 86.6058 136.131 86.3499C136.702 86.0841 137.194 85.7691 137.607 85.405C137.666 85.405 137.74 85.4246 137.829 85.464C137.927 85.5034 138.021 85.5575 138.109 85.6264C138.198 85.6855 138.272 85.7544 138.331 85.8331C138.4 85.902 138.434 85.966 138.434 86.0251C138.188 86.4483 137.814 86.8272 137.312 87.1619C136.81 87.4965 136.244 87.7672 135.614 87.9739C134.984 88.1806 134.325 88.3086 133.636 88.3578C132.957 88.407 132.317 88.3578 131.717 88.2101C131.116 88.0625 130.59 87.8017 130.137 87.4276C129.684 87.0536 129.379 86.5467 129.221 85.9069ZM136.279 81.9649C136.229 81.5909 136.082 81.3104 135.836 81.1234C135.59 80.9364 135.299 80.8183 134.965 80.769C134.63 80.71 134.276 80.7149 133.902 80.7838C133.528 80.8527 133.178 80.9561 132.853 81.0939C132.538 81.2317 132.273 81.3941 132.056 81.5811C131.849 81.7681 131.741 81.9551 131.731 82.1421L136.279 81.9649ZM139.689 87.2948C140.575 87.2259 141.377 87.1028 142.096 86.9257C142.824 86.7485 143.434 86.5467 143.926 86.3203C144.428 86.0841 144.802 85.838 145.049 85.5821C145.295 85.3164 145.383 85.0555 145.314 84.7996C145.236 84.524 144.842 84.4059 144.133 84.4453C143.434 84.4847 142.396 84.6422 141.018 84.9177C140.614 84.8882 140.26 84.7947 139.955 84.6372C139.66 84.4797 139.423 84.2927 139.246 84.0762C139.069 83.8498 138.956 83.6136 138.907 83.3675C138.857 83.1215 138.872 82.9049 138.951 82.7179C138.951 82.3931 139.044 82.0781 139.231 81.773C139.428 81.458 139.689 81.1726 140.014 80.9167C140.349 80.6509 140.733 80.4147 141.166 80.208C141.609 79.9915 142.081 79.8241 142.583 79.706C143.085 79.5781 143.602 79.4993 144.133 79.4698C144.665 79.4403 145.191 79.4747 145.713 79.5732C145.969 79.6913 146.176 79.8291 146.333 79.9866C146.5 80.1342 146.614 80.2868 146.673 80.4442C146.732 80.5919 146.732 80.7346 146.673 80.8724C146.614 81.0102 146.49 81.1283 146.303 81.2267C145.9 81.0496 145.472 80.9216 145.019 80.8429C144.576 80.7543 144.133 80.7198 143.69 80.7395C143.247 80.7592 142.819 80.8281 142.406 80.9462C142.002 81.0545 141.643 81.212 141.328 81.4187C141.023 81.6155 140.772 81.8616 140.575 82.1569C140.378 82.4522 140.275 82.7868 140.265 83.1608C140.265 83.3675 140.344 83.5053 140.501 83.5742C140.669 83.6333 140.86 83.6628 141.077 83.6628C141.303 83.653 141.535 83.6284 141.771 83.589C142.017 83.5398 142.214 83.5152 142.361 83.5152C143.336 83.3774 144.138 83.338 144.768 83.3971C145.408 83.4561 145.895 83.5841 146.23 83.7809C146.564 83.9778 146.761 84.2238 146.82 84.5191C146.879 84.8144 146.82 85.1343 146.643 85.4788C146.476 85.8134 146.2 86.153 145.816 86.4975C145.432 86.842 144.965 87.157 144.414 87.4424C143.862 87.7278 143.237 87.969 142.539 88.1658C141.85 88.3529 141.111 88.466 140.324 88.5054C140.137 88.5743 139.98 88.5645 139.852 88.4759C139.733 88.3873 139.645 88.2692 139.586 88.1216C139.527 87.9739 139.502 87.8213 139.512 87.6639C139.532 87.4965 139.591 87.3735 139.689 87.2948ZM148.223 87.2948C149.109 87.2259 149.911 87.1028 150.629 86.9257C151.358 86.7485 151.968 86.5467 152.46 86.3203C152.962 86.0841 153.336 85.838 153.582 85.5821C153.828 85.3164 153.917 85.0555 153.848 84.7996C153.769 84.524 153.375 84.4059 152.667 84.4453C151.968 84.4847 150.93 84.6422 149.552 84.9177C149.148 84.8882 148.794 84.7947 148.489 84.6372C148.193 84.4797 147.957 84.2927 147.78 84.0762C147.603 83.8498 147.49 83.6136 147.44 83.3675C147.391 83.1215 147.406 82.9049 147.485 82.7179C147.485 82.3931 147.578 82.0781 147.765 81.773C147.962 81.458 148.223 81.1726 148.548 80.9167C148.882 80.6509 149.266 80.4147 149.699 80.208C150.142 79.9915 150.615 79.8241 151.117 79.706C151.619 79.5781 152.135 79.4993 152.667 79.4698C153.198 79.4403 153.725 79.4747 154.247 79.5732C154.502 79.6913 154.709 79.8291 154.867 79.9866C155.034 80.1342 155.147 80.2868 155.206 80.4442C155.265 80.5919 155.265 80.7346 155.206 80.8724C155.147 81.0102 155.024 81.1283 154.837 81.2267C154.434 81.0496 154.005 80.9216 153.553 80.8429C153.11 80.7543 152.667 80.7198 152.224 80.7395C151.781 80.7592 151.353 80.8281 150.939 80.9462C150.536 81.0545 150.177 81.212 149.862 81.4187C149.556 81.6155 149.305 81.8616 149.109 82.1569C148.912 82.4522 148.808 82.7868 148.799 83.1608C148.799 83.3675 148.877 83.5053 149.035 83.5742C149.202 83.6333 149.394 83.6628 149.611 83.6628C149.837 83.653 150.068 83.6284 150.305 83.589C150.551 83.5398 150.747 83.5152 150.895 83.5152C151.87 83.3774 152.672 83.338 153.302 83.3971C153.941 83.4561 154.429 83.5841 154.763 83.7809C155.098 83.9778 155.295 84.2238 155.354 84.5191C155.413 84.8144 155.354 85.1343 155.177 85.4788C155.009 85.8134 154.734 86.153 154.35 86.4975C153.966 86.842 153.498 87.157 152.947 87.4424C152.396 87.7278 151.771 87.969 151.072 88.1658C150.383 88.3529 149.645 88.466 148.858 88.5054C148.671 88.5743 148.513 88.5645 148.385 88.4759C148.267 88.3873 148.179 88.2692 148.119 88.1216C148.06 87.9739 148.036 87.8213 148.046 87.6639C148.065 87.4965 148.124 87.3735 148.223 87.2948ZM156.033 85.9069C155.944 85.1097 156.013 84.3173 156.24 83.5299C156.466 82.7327 156.815 82.024 157.288 81.4039C157.77 80.774 158.351 80.272 159.03 79.898C159.709 79.5141 160.457 79.332 161.274 79.3517C161.609 79.3419 161.993 79.4157 162.426 79.5732C162.859 79.7306 163.258 79.9521 163.622 80.2375C163.986 80.5131 164.276 80.8379 164.493 81.212C164.719 81.5761 164.793 81.9649 164.714 82.3783C164.724 82.585 164.621 82.7573 164.404 82.8951C164.188 83.023 163.897 83.1264 163.533 83.2051C163.179 83.2839 162.76 83.3429 162.278 83.3823C161.806 83.4118 161.304 83.4364 160.772 83.4561C160.251 83.4758 159.719 83.4955 159.178 83.5152C158.636 83.525 158.125 83.5496 157.642 83.589C157.367 84.3469 157.283 84.9719 157.391 85.464C157.509 85.9463 157.751 86.3154 158.115 86.5713C158.489 86.8272 158.946 86.9798 159.488 87.029C160.039 87.0684 160.61 87.029 161.2 86.9109C161.791 86.7928 162.372 86.6058 162.943 86.3499C163.513 86.0841 164.006 85.7691 164.419 85.405C164.478 85.405 164.552 85.4246 164.64 85.464C164.739 85.5034 164.832 85.5575 164.921 85.6264C165.01 85.6855 165.083 85.7544 165.142 85.8331C165.211 85.902 165.246 85.966 165.246 86.0251C165 86.4483 164.626 86.8272 164.124 87.1619C163.622 87.4965 163.056 87.7672 162.426 87.9739C161.796 88.1806 161.136 88.3086 160.447 88.3578C159.768 88.407 159.129 88.3578 158.528 88.2101C157.928 88.0625 157.401 87.8017 156.948 87.4276C156.496 87.0536 156.19 86.5467 156.033 85.9069ZM163.09 81.9649C163.041 81.5909 162.893 81.3104 162.647 81.1234C162.401 80.9364 162.111 80.8183 161.776 80.769C161.442 80.71 161.087 80.7149 160.713 80.7838C160.339 80.8527 159.99 80.9561 159.665 81.0939C159.35 81.2317 159.084 81.3941 158.868 81.5811C158.661 81.7681 158.553 81.9551 158.543 82.1421L163.09 81.9649ZM166.501 87.2948C167.387 87.2259 168.189 87.1028 168.907 86.9257C169.636 86.7485 170.246 86.5467 170.738 86.3203C171.24 86.0841 171.614 85.838 171.86 85.5821C172.106 85.3164 172.195 85.0555 172.126 84.7996C172.047 84.524 171.653 84.4059 170.945 84.4453C170.246 84.4847 169.207 84.6422 167.829 84.9177C167.426 84.8882 167.072 84.7947 166.766 84.6372C166.471 84.4797 166.235 84.2927 166.058 84.0762C165.881 83.8498 165.767 83.6136 165.718 83.3675C165.669 83.1215 165.684 82.9049 165.763 82.7179C165.763 82.3931 165.856 82.0781 166.043 81.773C166.24 81.458 166.501 81.1726 166.826 80.9167C167.16 80.6509 167.544 80.4147 167.977 80.208C168.42 79.9915 168.892 79.8241 169.394 79.706C169.896 79.5781 170.413 79.4993 170.945 79.4698C171.476 79.4403 172.003 79.4747 172.524 79.5732C172.78 79.6913 172.987 79.8291 173.145 79.9866C173.312 80.1342 173.425 80.2868 173.484 80.4442C173.543 80.5919 173.543 80.7346 173.484 80.8724C173.425 81.0102 173.302 81.1283 173.115 81.2267C172.711 81.0496 172.283 80.9216 171.831 80.8429C171.388 80.7543 170.945 80.7198 170.502 80.7395C170.059 80.7592 169.631 80.8281 169.217 80.9462C168.814 81.0545 168.454 81.212 168.14 81.4187C167.834 81.6155 167.583 81.8616 167.387 82.1569C167.19 82.4522 167.086 82.7868 167.077 83.1608C167.077 83.3675 167.155 83.5053 167.313 83.5742C167.48 83.6333 167.672 83.6628 167.889 83.6628C168.115 83.653 168.346 83.6284 168.582 83.589C168.829 83.5398 169.025 83.5152 169.173 83.5152C170.147 83.3774 170.95 83.338 171.58 83.3971C172.219 83.4561 172.707 83.5841 173.041 83.7809C173.376 83.9778 173.573 84.2238 173.632 84.5191C173.691 84.8144 173.632 85.1343 173.455 85.4788C173.287 85.8134 173.012 86.153 172.628 86.4975C172.244 86.842 171.776 87.157 171.225 87.4424C170.674 87.7278 170.049 87.969 169.35 88.1658C168.661 88.3529 167.923 88.466 167.136 88.5054C166.949 88.5743 166.791 88.5645 166.663 88.4759C166.545 88.3873 166.456 88.2692 166.397 88.1216C166.338 87.9739 166.314 87.8213 166.324 87.6639C166.343 87.4965 166.402 87.3735 166.501 87.2948ZM183.066 88.1658C183.036 88.2446 182.968 88.3036 182.859 88.343C182.751 88.3824 182.623 88.4021 182.475 88.4021C182.338 88.4021 182.2 88.3824 182.062 88.343C181.924 88.3036 181.811 88.2347 181.722 88.1363L181.693 79.7503C182.057 79.5338 182.328 79.4501 182.505 79.4993C182.692 79.5486 182.825 79.6765 182.904 79.8832C182.982 80.0801 183.032 80.3261 183.051 80.6214C183.071 80.9068 183.1 81.1824 183.14 81.4482C184.154 80.71 185.03 80.1834 185.768 79.8684C186.506 79.5436 187.126 79.3812 187.628 79.3812C188.14 79.3812 188.548 79.519 188.853 79.7946C189.168 80.0702 189.415 80.4442 189.592 80.9167C189.769 81.3793 189.892 81.9157 189.961 82.526C190.03 83.1264 190.074 83.7563 190.094 84.4158C190.113 85.0654 190.123 85.7199 190.123 86.3794C190.133 87.0389 190.163 87.654 190.212 88.2249C190.084 88.343 189.921 88.407 189.725 88.4168C189.528 88.4365 189.346 88.4316 189.178 88.4021C189.011 88.3824 188.883 88.3529 188.794 88.3135C188.706 88.2741 188.706 88.2593 188.794 88.2692C188.765 88.0133 188.745 87.6934 188.735 87.3095C188.726 86.9158 188.721 86.4975 188.721 86.0546C188.721 85.6018 188.721 85.1392 188.721 84.6668C188.721 84.1845 188.716 83.7268 188.706 83.2937C188.696 82.8606 188.671 82.4669 188.632 82.1126C188.603 81.7582 188.553 81.4728 188.484 81.2563C188.406 81.0692 188.258 80.9364 188.041 80.8576C187.835 80.769 187.579 80.7346 187.274 80.7543C186.969 80.7641 186.634 80.8232 186.27 80.9315C185.915 81.0299 185.551 81.1677 185.177 81.3448C184.813 81.522 184.454 81.7386 184.099 81.9945C183.755 82.2405 183.45 82.5161 183.184 82.8213L183.066 88.1658ZM198.273 85.2721C197.988 85.715 197.658 86.1186 197.284 86.4827C196.91 86.8371 196.496 87.1422 196.044 87.3981C195.601 87.6442 195.113 87.8263 194.582 87.9444C194.06 88.0625 193.509 88.0969 192.928 88.0477C192.722 88.0477 192.5 88.0231 192.264 87.9739C192.028 87.9247 191.806 87.846 191.6 87.7377C191.403 87.6294 191.24 87.4867 191.112 87.3095C190.984 87.1324 190.92 86.9109 190.92 86.6451C190.812 86.094 190.837 85.5231 190.994 84.9325C191.162 84.3321 191.413 83.7514 191.747 83.1904C192.092 82.6195 192.505 82.088 192.987 81.5958C193.48 81.0939 194.001 80.6706 194.552 80.3261C195.104 79.9718 195.665 79.7159 196.236 79.5584C196.816 79.3911 197.372 79.3566 197.904 79.455C198.307 79.455 198.617 79.5879 198.834 79.8537C199.06 80.1194 199.228 80.4787 199.336 80.9315C199.454 81.3744 199.523 81.8911 199.543 82.4817C199.572 83.0624 199.587 83.6726 199.587 84.3124C199.597 84.9424 199.612 85.5772 199.631 86.217C199.651 86.8469 199.705 87.4326 199.794 87.9739C199.784 87.9936 199.735 88.0527 199.646 88.1511C199.567 88.2495 199.464 88.3282 199.336 88.3873C199.208 88.4464 199.06 88.4562 198.893 88.4168C198.736 88.3873 198.578 88.2495 198.421 88.0034C198.362 87.905 198.322 87.7328 198.302 87.4867C198.293 87.2308 198.288 86.9601 198.288 86.6747C198.298 86.3892 198.302 86.1136 198.302 85.8479C198.312 85.5821 198.302 85.3902 198.273 85.2721ZM197.343 80.7838C196.959 80.7543 196.56 80.8133 196.147 80.961C195.734 81.1086 195.33 81.3202 194.936 81.5958C194.552 81.8616 194.188 82.1766 193.844 82.5407C193.499 82.8951 193.199 83.2691 192.943 83.6628C192.687 84.0467 192.485 84.4305 192.338 84.8144C192.2 85.1983 192.136 85.5526 192.146 85.8774C192.166 86.1924 192.269 86.4631 192.456 86.6894C192.653 86.906 192.958 87.0487 193.371 87.1176C193.942 87.1274 194.488 86.9847 195.01 86.6894C195.532 86.3843 196.004 86.0054 196.427 85.5526C196.851 85.0998 197.205 84.6077 197.49 84.0762C197.786 83.5348 197.983 83.0279 198.081 82.5555C198.189 82.083 198.189 81.6844 198.081 81.3596C197.973 81.025 197.727 80.833 197.343 80.7838ZM201.728 88.1658C201.698 88.2446 201.629 88.3036 201.521 88.343C201.413 88.3824 201.285 88.4021 201.137 88.4021C200.999 88.4021 200.862 88.3824 200.724 88.343C200.586 88.3036 200.473 88.2347 200.384 88.1363L200.355 79.7503C200.719 79.5338 200.99 79.4501 201.167 79.4993C201.354 79.5486 201.487 79.6765 201.565 79.8832C201.644 80.0801 201.693 80.3261 201.713 80.6214C201.733 80.9068 201.762 81.1824 201.802 81.4482C202.815 80.71 203.691 80.1834 204.43 79.8684C205.168 79.5436 205.788 79.3812 206.29 79.3812C206.802 79.3812 207.21 79.519 207.515 79.7946C207.83 80.0702 208.076 80.4442 208.253 80.9167C208.431 81.3793 208.554 81.9157 208.623 82.526C208.691 83.1264 208.736 83.7563 208.755 84.4158C208.775 85.0654 208.785 85.7199 208.785 86.3794C208.795 87.0389 208.824 87.654 208.874 88.2249C208.746 88.343 208.583 88.407 208.386 88.4168C208.189 88.4365 208.007 88.4316 207.84 88.4021C207.673 88.3824 207.545 88.3529 207.456 88.3135C207.368 88.2741 207.368 88.2593 207.456 88.2692C207.427 88.0133 207.407 87.6934 207.397 87.3095C207.387 86.9158 207.382 86.4975 207.382 86.0546C207.382 85.6018 207.382 85.1392 207.382 84.6668C207.382 84.1845 207.377 83.7268 207.368 83.2937C207.358 82.8606 207.333 82.4669 207.294 82.1126C207.264 81.7582 207.215 81.4728 207.146 81.2563C207.067 81.0692 206.92 80.9364 206.703 80.8576C206.497 80.769 206.241 80.7346 205.936 80.7543C205.63 80.7641 205.296 80.8232 204.932 80.9315C204.577 81.0299 204.213 81.1677 203.839 81.3448C203.475 81.522 203.116 81.7386 202.761 81.9945C202.417 82.2405 202.112 82.5161 201.846 82.8213L201.728 88.1658ZM209.567 82.0683C209.331 82.0092 209.179 81.9108 209.11 81.773C209.031 81.6352 209.006 81.4974 209.036 81.3596C209.065 81.212 209.129 81.084 209.228 80.9757C209.326 80.8675 209.43 80.8084 209.538 80.7986H212.299L212.24 76.1922C212.279 76.0741 212.363 75.9756 212.491 75.8969C212.619 75.8182 212.757 75.7739 212.904 75.764C213.052 75.7443 213.199 75.764 213.347 75.8231C213.495 75.8723 213.613 75.9707 213.701 76.1184L213.834 80.7248L216.448 80.6657C216.625 80.7641 216.743 80.8872 216.802 81.0348C216.871 81.1726 216.9 81.3104 216.89 81.4482C216.881 81.5761 216.841 81.6943 216.772 81.8025C216.713 81.901 216.644 81.96 216.566 81.9797L213.834 82.0388C213.824 82.649 213.829 83.2002 213.849 83.6923C213.879 84.1746 213.908 84.6471 213.938 85.1097C213.977 85.5624 214.007 86.0349 214.026 86.527C214.056 87.0093 214.071 87.5507 214.071 88.1511C213.785 88.3479 213.495 88.4414 213.199 88.4316C212.904 88.4218 212.702 88.2987 212.594 88.0625L212.432 82.0683H209.567ZM223.638 85.2721C223.352 85.715 223.022 86.1186 222.648 86.4827C222.274 86.8371 221.861 87.1422 221.408 87.3981C220.965 87.6442 220.478 87.8263 219.947 87.9444C219.425 88.0625 218.874 88.0969 218.293 88.0477C218.086 88.0477 217.865 88.0231 217.629 87.9739C217.392 87.9247 217.171 87.846 216.964 87.7377C216.767 87.6294 216.605 87.4867 216.477 87.3095C216.349 87.1324 216.285 86.9109 216.285 86.6451C216.177 86.094 216.201 85.5231 216.359 84.9325C216.526 84.3321 216.777 83.7514 217.112 83.1904C217.456 82.6195 217.87 82.088 218.352 81.5958C218.844 81.0939 219.366 80.6706 219.917 80.3261C220.468 79.9718 221.029 79.7159 221.6 79.5584C222.181 79.3911 222.737 79.3566 223.269 79.455C223.672 79.455 223.982 79.5879 224.199 79.8537C224.425 80.1194 224.592 80.4787 224.701 80.9315C224.819 81.3744 224.888 81.8911 224.907 82.4817C224.937 83.0624 224.952 83.6726 224.952 84.3124C224.961 84.9424 224.976 85.5772 224.996 86.217C225.016 86.8469 225.07 87.4326 225.158 87.9739C225.148 87.9936 225.099 88.0527 225.011 88.1511C224.932 88.2495 224.829 88.3282 224.701 88.3873C224.573 88.4464 224.425 88.4562 224.258 88.4168C224.1 88.3873 223.943 88.2495 223.785 88.0034C223.726 87.905 223.687 87.7328 223.667 87.4867C223.657 87.2308 223.652 86.9601 223.652 86.6747C223.662 86.3892 223.667 86.1136 223.667 85.8479C223.677 85.5821 223.667 85.3902 223.638 85.2721ZM222.707 80.7838C222.324 80.7543 221.925 80.8133 221.512 80.961C221.098 81.1086 220.695 81.3202 220.301 81.5958C219.917 81.8616 219.553 82.1766 219.208 82.5407C218.864 82.8951 218.564 83.2691 218.308 83.6628C218.052 84.0467 217.85 84.4305 217.702 84.8144C217.565 85.1983 217.501 85.5526 217.511 85.8774C217.53 86.1924 217.634 86.4631 217.821 86.6894C218.017 86.906 218.323 87.0487 218.736 87.1176C219.307 87.1274 219.853 86.9847 220.375 86.6894C220.896 86.3843 221.369 86.0054 221.792 85.5526C222.215 85.0998 222.57 84.6077 222.855 84.0762C223.15 83.5348 223.347 83.0279 223.446 82.5555C223.554 82.083 223.554 81.6844 223.446 81.3596C223.337 81.025 223.091 80.833 222.707 80.7838ZM227.653 79.6617C227.742 80.8724 227.821 82.1618 227.89 83.5299C227.959 84.8882 228.018 86.2613 228.067 87.6491C228.018 87.846 227.914 87.9887 227.757 88.0773C227.609 88.1658 227.447 88.2151 227.27 88.2249C227.092 88.2249 226.925 88.1954 226.768 88.1363C226.62 88.0773 226.526 87.9985 226.487 87.9001V79.6617H227.653ZM225.941 77.1519C225.941 76.9255 226.005 76.7631 226.133 76.6646C226.261 76.5662 226.413 76.5121 226.59 76.5022C226.768 76.4825 226.945 76.4973 227.122 76.5465C227.299 76.5957 227.427 76.6548 227.506 76.7237C227.594 77.0485 227.58 77.2847 227.462 77.4324C227.343 77.58 227.186 77.6637 226.989 77.6834C226.802 77.6932 226.605 77.6489 226.399 77.5505C226.192 77.4521 226.039 77.3192 225.941 77.1519ZM229.484 87.2948C230.37 87.2259 231.172 87.1028 231.891 86.9257C232.619 86.7485 233.229 86.5467 233.721 86.3203C234.223 86.0841 234.597 85.838 234.844 85.5821C235.09 85.3164 235.178 85.0555 235.109 84.7996C235.031 84.524 234.637 84.4059 233.928 84.4453C233.229 84.4847 232.191 84.6422 230.813 84.9177C230.409 84.8882 230.055 84.7947 229.75 84.6372C229.455 84.4797 229.218 84.2927 229.041 84.0762C228.864 83.8498 228.751 83.6136 228.702 83.3675C228.652 83.1215 228.667 82.9049 228.746 82.7179C228.746 82.3931 228.84 82.0781 229.027 81.773C229.223 81.458 229.484 81.1726 229.809 80.9167C230.144 80.6509 230.528 80.4147 230.961 80.208C231.404 79.9915 231.876 79.8241 232.378 79.706C232.88 79.5781 233.397 79.4993 233.928 79.4698C234.46 79.4403 234.986 79.4747 235.508 79.5732C235.764 79.6913 235.971 79.8291 236.128 79.9866C236.295 80.1342 236.409 80.2868 236.468 80.4442C236.527 80.5919 236.527 80.7346 236.468 80.8724C236.409 81.0102 236.286 81.1283 236.098 81.2267C235.695 81.0496 235.267 80.9216 234.814 80.8429C234.371 80.7543 233.928 80.7198 233.485 80.7395C233.042 80.7592 232.614 80.8281 232.201 80.9462C231.797 81.0545 231.438 81.212 231.123 81.4187C230.818 81.6155 230.567 81.8616 230.37 82.1569C230.173 82.4522 230.07 82.7868 230.06 83.1608C230.06 83.3675 230.139 83.5053 230.296 83.5742C230.464 83.6333 230.655 83.6628 230.872 83.6628C231.098 83.653 231.33 83.6284 231.566 83.589C231.812 83.5398 232.009 83.5152 232.156 83.5152C233.131 83.3774 233.933 83.338 234.563 83.3971C235.203 83.4561 235.69 83.5841 236.025 83.7809C236.359 83.9778 236.556 84.2238 236.615 84.5191C236.674 84.8144 236.615 85.1343 236.438 85.4788C236.271 85.8134 235.995 86.153 235.611 86.4975C235.227 86.842 234.76 87.157 234.209 87.4424C233.658 87.7278 233.032 87.969 232.334 88.1658C231.645 88.3529 230.906 88.466 230.119 88.5054C229.932 88.5743 229.775 88.5645 229.647 88.4759C229.528 88.3873 229.44 88.2692 229.381 88.1216C229.322 87.9739 229.297 87.8213 229.307 87.6639C229.327 87.4965 229.386 87.3735 229.484 87.2948ZM237.294 85.9069C237.206 85.1097 237.275 84.3173 237.501 83.5299C237.727 82.7327 238.077 82.024 238.549 81.4039C239.032 80.774 239.612 80.272 240.291 79.898C240.971 79.5141 241.719 79.332 242.536 79.3517C242.87 79.3419 243.254 79.4157 243.687 79.5732C244.12 79.7306 244.519 79.9521 244.883 80.2375C245.247 80.5131 245.538 80.8379 245.754 81.212C245.981 81.5761 246.054 81.9649 245.976 82.3783C245.985 82.585 245.882 82.7573 245.666 82.8951C245.449 83.023 245.159 83.1264 244.795 83.2051C244.44 83.2839 244.022 83.3429 243.54 83.3823C243.067 83.4118 242.565 83.4364 242.034 83.4561C241.512 83.4758 240.98 83.4955 240.439 83.5152C239.898 83.525 239.386 83.5496 238.904 83.589C238.628 84.3469 238.544 84.9719 238.653 85.464C238.771 85.9463 239.012 86.3154 239.376 86.5713C239.75 86.8272 240.208 86.9798 240.749 87.029C241.3 87.0684 241.871 87.029 242.462 86.9109C243.052 86.7928 243.633 86.6058 244.204 86.3499C244.775 86.0841 245.267 85.7691 245.68 85.405C245.739 85.405 245.813 85.4246 245.902 85.464C246 85.5034 246.094 85.5575 246.182 85.6264C246.271 85.6855 246.345 85.7544 246.404 85.8331C246.473 85.902 246.507 85.966 246.507 86.0251C246.261 86.4483 245.887 86.8272 245.385 87.1619C244.883 87.4965 244.317 87.7672 243.687 87.9739C243.057 88.1806 242.398 88.3086 241.709 88.3578C241.03 88.407 240.39 88.3578 239.79 88.2101C239.189 88.0625 238.663 87.8017 238.21 87.4276C237.757 87.0536 237.452 86.5467 237.294 85.9069ZM244.352 81.9649C244.302 81.5909 244.155 81.3104 243.909 81.1234C243.663 80.9364 243.372 80.8183 243.038 80.769C242.703 80.71 242.349 80.7149 241.975 80.7838C241.601 80.8527 241.251 80.9561 240.926 81.0939C240.611 81.2317 240.346 81.3941 240.129 81.5811C239.922 81.7681 239.814 81.9551 239.804 82.1421L244.352 81.9649ZM247.762 87.2948C248.648 87.2259 249.45 87.1028 250.169 86.9257C250.897 86.7485 251.507 86.5467 251.999 86.3203C252.501 86.0841 252.875 85.838 253.121 85.5821C253.368 85.3164 253.456 85.0555 253.387 84.7996C253.308 84.524 252.915 84.4059 252.206 84.4453C251.507 84.4847 250.469 84.6422 249.091 84.9177C248.687 84.8882 248.333 84.7947 248.028 84.6372C247.733 84.4797 247.496 84.2927 247.319 84.0762C247.142 83.8498 247.029 83.6136 246.98 83.3675C246.93 83.1215 246.945 82.9049 247.024 82.7179C247.024 82.3931 247.117 82.0781 247.304 81.773C247.501 81.458 247.762 81.1726 248.087 80.9167C248.422 80.6509 248.805 80.4147 249.239 80.208C249.681 79.9915 250.154 79.8241 250.656 79.706C251.158 79.5781 251.675 79.4993 252.206 79.4698C252.738 79.4403 253.264 79.4747 253.786 79.5732C254.042 79.6913 254.248 79.8291 254.406 79.9866C254.573 80.1342 254.686 80.2868 254.746 80.4442C254.805 80.5919 254.805 80.7346 254.746 80.8724C254.686 81.0102 254.563 81.1283 254.376 81.2267C253.973 81.0496 253.545 80.9216 253.092 80.8429C252.649 80.7543 252.206 80.7198 251.763 80.7395C251.32 80.7592 250.892 80.8281 250.479 80.9462C250.075 81.0545 249.716 81.212 249.401 81.4187C249.096 81.6155 248.845 81.8616 248.648 82.1569C248.451 82.4522 248.348 82.7868 248.338 83.1608C248.338 83.3675 248.417 83.5053 248.574 83.5742C248.741 83.6333 248.933 83.6628 249.15 83.6628C249.376 83.653 249.608 83.6284 249.844 83.589C250.09 83.5398 250.287 83.5152 250.434 83.5152C251.409 83.3774 252.211 83.338 252.841 83.3971C253.481 83.4561 253.968 83.5841 254.303 83.7809C254.637 83.9778 254.834 84.2238 254.893 84.5191C254.952 84.8144 254.893 85.1343 254.716 85.4788C254.549 85.8134 254.273 86.153 253.889 86.4975C253.505 86.842 253.038 87.157 252.487 87.4424C251.935 87.7278 251.31 87.969 250.612 88.1658C249.923 88.3529 249.184 88.466 248.397 88.5054C248.21 88.5743 248.052 88.5645 247.925 88.4759C247.806 88.3873 247.718 88.2692 247.659 88.1216C247.6 87.9739 247.575 87.8213 247.585 87.6639C247.605 87.4965 247.664 87.3735 247.762 87.2948Z" fill="white"/>
<path d="M108.773 103.472C108.488 103.915 108.158 104.319 107.784 104.683C107.41 105.037 106.997 105.342 106.544 105.598C106.101 105.844 105.614 106.026 105.082 106.144C104.561 106.262 104.009 106.297 103.429 106.248C103.222 106.248 103 106.223 102.764 106.174C102.528 106.125 102.307 106.046 102.1 105.938C101.903 105.829 101.741 105.687 101.613 105.509C101.485 105.332 101.421 105.111 101.421 104.845C101.312 104.294 101.337 103.723 101.495 103.132C101.662 102.532 101.913 101.951 102.248 101.39C102.592 100.819 103.005 100.288 103.488 99.7958C103.98 99.2938 104.501 98.8706 105.053 98.5261C105.604 98.1717 106.165 97.9158 106.736 97.7583C107.317 97.591 107.873 97.5566 108.404 97.655C108.808 97.655 109.118 97.7879 109.334 98.0536C109.561 98.3194 109.728 98.6786 109.836 99.1314C109.954 99.5743 110.023 100.091 110.043 100.682C110.072 101.262 110.087 101.873 110.087 102.512C110.097 103.142 110.112 103.777 110.132 104.417C110.151 105.047 110.205 105.633 110.294 106.174C110.284 106.194 110.235 106.253 110.146 106.351C110.068 106.449 109.964 106.528 109.836 106.587C109.708 106.646 109.561 106.656 109.393 106.617C109.236 106.587 109.078 106.449 108.921 106.203C108.862 106.105 108.822 105.933 108.803 105.687C108.793 105.431 108.788 105.16 108.788 104.875C108.798 104.589 108.803 104.314 108.803 104.048C108.813 103.782 108.803 103.59 108.773 103.472ZM107.843 98.9838C107.459 98.9542 107.061 99.0133 106.647 99.1609C106.234 99.3086 105.83 99.5202 105.437 99.7958C105.053 100.062 104.689 100.377 104.344 100.741C104 101.095 103.699 101.469 103.443 101.863C103.187 102.247 102.986 102.63 102.838 103.014C102.7 103.398 102.636 103.753 102.646 104.077C102.666 104.392 102.769 104.663 102.956 104.889C103.153 105.106 103.458 105.249 103.872 105.318C104.442 105.327 104.989 105.185 105.51 104.889C106.032 104.584 106.504 104.205 106.928 103.753C107.351 103.3 107.705 102.808 107.991 102.276C108.286 101.735 108.483 101.228 108.581 100.755C108.69 100.283 108.69 99.8844 108.581 99.5596C108.473 99.2249 108.227 99.033 107.843 98.9838ZM107.917 96.1195L107.607 96.9168C107.292 96.7003 107.041 96.5231 106.854 96.3853C106.667 96.2475 106.519 96.1245 106.411 96.0162C106.303 95.9079 106.219 95.8095 106.16 95.7209C106.101 95.6225 106.052 95.5093 106.012 95.3813C105.993 95.2534 105.988 95.1303 105.998 95.0122C106.017 94.8941 106.057 94.8055 106.116 94.7465C106.175 94.6776 106.249 94.653 106.337 94.6727C106.436 94.6825 106.549 94.7612 106.677 94.9089L107.917 96.1195ZM118.591 103.62C118.542 103.108 118.66 102.552 118.946 101.951C119.241 101.341 119.635 100.755 120.127 100.194C120.629 99.6235 121.2 99.1166 121.839 98.6737C122.489 98.221 123.144 97.8961 123.803 97.6993C124.472 97.4926 125.112 97.4532 125.722 97.5812C126.342 97.7091 126.879 98.0635 127.332 98.6442C127.332 98.7721 127.297 98.8853 127.228 98.9838C127.169 99.0822 127.091 99.1757 126.992 99.2643C126.903 99.3529 126.805 99.4316 126.697 99.5005C126.589 99.5694 126.49 99.6383 126.402 99.7072C126.234 99.3529 126.013 99.1068 125.737 98.969C125.462 98.8312 125.156 98.7771 124.822 98.8066C124.487 98.8263 124.133 98.9198 123.759 99.0871C123.385 99.2446 123.016 99.4513 122.651 99.7072C122.287 99.9533 121.943 100.234 121.618 100.549C121.293 100.854 121.008 101.174 120.762 101.508C120.525 101.833 120.343 102.158 120.215 102.483C120.087 102.798 120.038 103.083 120.068 103.339C120.068 103.772 120.151 104.122 120.319 104.387C120.486 104.653 120.703 104.86 120.968 105.007C121.244 105.155 121.554 105.254 121.898 105.303C122.253 105.352 122.612 105.377 122.976 105.377C123.724 105.357 124.394 105.268 124.984 105.111C125.585 104.944 126.101 104.771 126.534 104.594C126.967 104.407 127.327 104.245 127.612 104.107C127.898 103.969 128.104 103.915 128.232 103.944C128.311 103.944 128.39 103.949 128.468 103.959C128.557 103.969 128.631 103.999 128.69 104.048C128.759 104.087 128.803 104.151 128.823 104.24C128.852 104.319 128.852 104.432 128.823 104.579C128.793 104.766 128.665 104.948 128.439 105.126C128.213 105.293 127.922 105.45 127.568 105.598C127.214 105.746 126.82 105.884 126.387 106.011C125.954 106.13 125.521 106.233 125.088 106.322C124.654 106.4 124.241 106.459 123.847 106.499C123.463 106.538 123.144 106.548 122.888 106.528C122.455 106.528 121.987 106.479 121.485 106.381C120.983 106.282 120.516 106.12 120.082 105.893C119.659 105.667 119.305 105.372 119.019 105.007C118.734 104.633 118.591 104.171 118.591 103.62ZM129.487 103.029C129.487 102.222 129.63 101.494 129.915 100.844C130.201 100.185 130.575 99.6186 131.037 99.1462C131.5 98.6737 132.017 98.2997 132.588 98.0241C133.159 97.7485 133.734 97.5812 134.315 97.5221C134.965 97.4335 135.575 97.4926 136.146 97.6993C136.717 97.8961 137.209 98.2013 137.622 98.6147C138.036 99.0182 138.355 99.5103 138.582 100.091C138.818 100.672 138.921 101.302 138.892 101.981C138.803 102.788 138.592 103.482 138.257 104.063C137.922 104.633 137.494 105.106 136.973 105.48C136.461 105.844 135.865 106.115 135.186 106.292C134.517 106.459 133.798 106.543 133.031 106.543C131.869 106.543 130.988 106.272 130.388 105.731C129.787 105.19 129.487 104.289 129.487 103.029ZM130.757 103.472C130.796 104.063 130.988 104.51 131.333 104.816C131.687 105.111 132.115 105.288 132.617 105.347C133.129 105.406 133.675 105.362 134.256 105.214C134.847 105.057 135.393 104.82 135.895 104.506C136.397 104.181 136.82 103.792 137.165 103.339C137.509 102.877 137.691 102.37 137.711 101.818C137.721 101.563 137.686 101.267 137.607 100.933C137.529 100.588 137.381 100.258 137.165 99.9434C136.958 99.6285 136.667 99.3479 136.293 99.1019C135.929 98.8558 135.462 98.6983 134.891 98.6294C134.684 98.6393 134.433 98.6786 134.138 98.7475C133.843 98.8066 133.533 98.9099 133.208 99.0576C132.893 99.2052 132.578 99.4021 132.263 99.6481C131.958 99.8942 131.687 100.194 131.451 100.549C131.215 100.903 131.028 101.321 130.89 101.804C130.762 102.286 130.718 102.842 130.757 103.472ZM139.601 106.233C139.591 105.967 139.591 105.633 139.601 105.229C139.62 104.825 139.635 104.387 139.645 103.915C139.665 103.433 139.679 102.926 139.689 102.394C139.709 101.863 139.719 101.336 139.719 100.815C139.729 100.293 139.724 99.7909 139.704 99.3086C139.684 98.8164 139.65 98.3735 139.601 97.9798C139.601 97.8715 139.635 97.783 139.704 97.7141C139.783 97.6452 139.876 97.591 139.984 97.5516C140.103 97.5123 140.226 97.4877 140.354 97.4778C140.482 97.4581 140.6 97.4483 140.708 97.4483C140.787 97.4483 140.836 97.5418 140.856 97.7288C140.875 97.9158 140.885 98.1324 140.885 98.3784C140.885 98.6147 140.88 98.8558 140.87 99.1019C140.87 99.3381 140.885 99.5103 140.915 99.6186C141.062 99.3135 141.298 99.0231 141.623 98.7475C141.948 98.4719 142.312 98.2406 142.716 98.0536C143.119 97.8666 143.543 97.7387 143.986 97.6698C144.428 97.591 144.847 97.6009 145.24 97.6993C145.634 97.7879 145.974 97.9749 146.259 98.2603C146.554 98.5458 146.751 98.9542 146.85 99.4857C147.155 99.1905 147.509 98.9099 147.913 98.6442C148.326 98.3784 148.754 98.157 149.197 97.9798C149.65 97.7928 150.103 97.6648 150.556 97.5959C151.008 97.5172 151.427 97.5221 151.81 97.6107C152.204 97.6993 152.539 97.8814 152.814 98.157C153.1 98.4227 153.302 98.8115 153.42 99.3233L153.7 106.395C153.7 106.415 153.617 106.445 153.449 106.484C153.292 106.513 153.115 106.533 152.918 106.543C152.721 106.553 152.539 106.548 152.372 106.528C152.204 106.499 152.121 106.435 152.121 106.336C152.101 105.982 152.096 105.569 152.106 105.096C152.125 104.614 152.14 104.122 152.15 103.62C152.17 103.108 152.184 102.601 152.194 102.099C152.204 101.587 152.199 101.12 152.18 100.696C152.17 100.273 152.135 99.9139 152.076 99.6186C152.017 99.3233 151.934 99.1265 151.825 99.0281C151.491 98.9198 151.136 98.8656 150.762 98.8656C150.388 98.8656 150.019 98.9444 149.655 99.1019C149.291 99.2594 148.941 99.5054 148.607 99.8401C148.282 100.175 147.996 100.627 147.75 101.198C147.504 101.759 147.312 102.453 147.175 103.28C147.037 104.097 146.983 105.071 147.012 106.203C146.963 106.371 146.845 106.479 146.658 106.528C146.481 106.577 146.294 106.592 146.097 106.572C145.9 106.553 145.728 106.509 145.58 106.44C145.442 106.361 145.388 106.282 145.418 106.203C145.516 105.692 145.585 105.16 145.624 104.609C145.674 104.058 145.698 103.516 145.698 102.985C145.698 102.443 145.678 101.932 145.639 101.449C145.6 100.967 145.546 100.539 145.477 100.165C145.408 99.7909 145.319 99.4907 145.211 99.2643C145.113 99.0379 144.999 98.9099 144.871 98.8804C144.3 98.8312 143.813 98.9099 143.41 99.1166C143.006 99.3135 142.662 99.5989 142.376 99.973C142.101 100.347 141.874 100.785 141.697 101.287C141.53 101.789 141.402 102.32 141.313 102.881C141.234 103.433 141.18 103.999 141.151 104.579C141.131 105.16 141.131 105.711 141.151 106.233C140.993 106.292 140.816 106.361 140.619 106.44C140.432 106.509 140.245 106.543 140.058 106.543C139.95 106.543 139.866 106.523 139.807 106.484C139.748 106.445 139.679 106.361 139.601 106.233ZM154.01 98.0093C154.05 97.97 154.128 97.9257 154.247 97.8765C154.374 97.8272 154.507 97.8076 154.645 97.8174C154.793 97.8174 154.931 97.8617 155.059 97.9503C155.187 98.0389 155.275 98.1914 155.324 98.408C156.673 97.9454 157.829 97.6894 158.794 97.6402C159.758 97.591 160.546 97.6845 161.156 97.9208C161.776 98.1471 162.224 98.4916 162.5 98.9542C162.775 99.407 162.893 99.9188 162.854 100.49C162.815 101.051 162.623 101.636 162.278 102.247C161.934 102.857 161.451 103.433 160.831 103.974C160.211 104.506 159.453 104.973 158.558 105.377C157.672 105.77 156.663 106.036 155.531 106.174C155.541 106.312 155.546 106.538 155.546 106.853C155.546 107.168 155.546 107.527 155.546 107.931C155.546 108.334 155.546 108.758 155.546 109.2C155.556 109.653 155.565 110.081 155.575 110.485C155.585 110.898 155.595 111.267 155.605 111.592C155.615 111.917 155.629 112.153 155.649 112.301C155.679 112.527 155.659 112.714 155.59 112.862C155.521 113.01 155.418 113.123 155.28 113.202C155.142 113.29 154.98 113.344 154.793 113.364C154.606 113.393 154.409 113.398 154.202 113.379L154.01 98.0093ZM159.325 98.7623C158.942 98.7721 158.513 98.8214 158.041 98.9099C157.578 98.9887 157.145 99.1314 156.742 99.3381C156.348 99.5448 156.018 99.8253 155.752 100.18C155.497 100.534 155.383 100.977 155.413 101.508L155.442 104.934C156.525 104.796 157.46 104.55 158.248 104.195C159.035 103.831 159.68 103.418 160.182 102.955C160.684 102.493 161.038 102.01 161.245 101.508C161.461 101.006 161.53 100.554 161.451 100.15C161.382 99.7367 161.171 99.4021 160.817 99.1462C160.462 98.8804 159.965 98.7525 159.325 98.7623ZM170.221 103.472C169.936 103.915 169.606 104.319 169.232 104.683C168.858 105.037 168.445 105.342 167.992 105.598C167.549 105.844 167.062 106.026 166.53 106.144C166.009 106.262 165.457 106.297 164.877 106.248C164.67 106.248 164.449 106.223 164.212 106.174C163.976 106.125 163.755 106.046 163.548 105.938C163.351 105.829 163.189 105.687 163.061 105.509C162.933 105.332 162.869 105.111 162.869 104.845C162.76 104.294 162.785 103.723 162.943 103.132C163.11 102.532 163.361 101.951 163.696 101.39C164.04 100.819 164.453 100.288 164.936 99.7958C165.428 99.2938 165.95 98.8706 166.501 98.5261C167.052 98.1717 167.613 97.9158 168.184 97.7583C168.765 97.591 169.321 97.5566 169.852 97.655C170.256 97.655 170.566 97.7879 170.782 98.0536C171.009 98.3194 171.176 98.6786 171.284 99.1314C171.402 99.5743 171.471 100.091 171.491 100.682C171.52 101.262 171.535 101.873 171.535 102.512C171.545 103.142 171.56 103.777 171.58 104.417C171.599 105.047 171.653 105.633 171.742 106.174C171.732 106.194 171.683 106.253 171.594 106.351C171.516 106.449 171.412 106.528 171.284 106.587C171.156 106.646 171.009 106.656 170.841 106.617C170.684 106.587 170.526 106.449 170.369 106.203C170.31 106.105 170.27 105.933 170.251 105.687C170.241 105.431 170.236 105.16 170.236 104.875C170.246 104.589 170.251 104.314 170.251 104.048C170.261 103.782 170.251 103.59 170.221 103.472ZM169.291 98.9838C168.907 98.9542 168.509 99.0133 168.095 99.1609C167.682 99.3086 167.278 99.5202 166.885 99.7958C166.501 100.062 166.137 100.377 165.792 100.741C165.448 101.095 165.147 101.469 164.891 101.863C164.636 102.247 164.434 102.63 164.286 103.014C164.148 103.398 164.084 103.753 164.094 104.077C164.114 104.392 164.217 104.663 164.404 104.889C164.601 105.106 164.906 105.249 165.32 105.318C165.89 105.327 166.437 105.185 166.958 104.889C167.48 104.584 167.953 104.205 168.376 103.753C168.799 103.3 169.153 102.808 169.439 102.276C169.734 101.735 169.931 101.228 170.029 100.755C170.138 100.283 170.138 99.8844 170.029 99.5596C169.921 99.2249 169.675 99.033 169.291 98.9838ZM172.524 97.7436C172.544 97.5566 172.623 97.4434 172.761 97.404C172.898 97.3548 173.046 97.34 173.204 97.3597C173.46 97.3892 173.651 97.5221 173.779 97.7583C173.907 97.9847 173.996 98.2406 174.045 98.5261C174.094 98.8115 174.119 99.092 174.119 99.3676C174.119 99.6334 174.124 99.8253 174.134 99.9434C174.409 99.7072 174.714 99.4365 175.049 99.1314C175.394 98.8263 175.807 98.5507 176.289 98.3046C176.781 98.0487 177.367 97.8568 178.046 97.7288C178.735 97.591 179.562 97.5812 180.527 97.6993C180.763 97.7583 180.935 97.8715 181.043 98.0389C181.161 98.2062 181.22 98.3834 181.22 98.5704C181.23 98.7475 181.181 98.9149 181.073 99.0723C180.974 99.22 180.832 99.3037 180.645 99.3233C180.408 99.1462 180.093 99.0428 179.7 99.0133C179.306 98.9838 178.873 99.0182 178.401 99.1166C177.938 99.2151 177.465 99.3725 176.983 99.5891C176.501 99.8056 176.053 100.076 175.64 100.401C175.236 100.726 174.887 101.1 174.591 101.523C174.306 101.946 174.129 102.409 174.06 102.911V106.144C174.04 106.194 173.961 106.267 173.824 106.366C173.686 106.454 173.528 106.518 173.351 106.558C173.184 106.607 173.012 106.607 172.834 106.558C172.667 106.509 172.539 106.371 172.451 106.144C172.451 106.075 172.451 105.859 172.451 105.495C172.451 105.121 172.451 104.673 172.451 104.151C172.46 103.62 172.47 103.044 172.48 102.424C172.49 101.794 172.495 101.179 172.495 100.578C172.505 99.9779 172.51 99.4267 172.51 98.9247C172.52 98.4227 172.524 98.029 172.524 97.7436ZM180.955 104.107C180.866 103.31 180.935 102.517 181.161 101.73C181.388 100.933 181.737 100.224 182.21 99.6039C182.692 98.9739 183.273 98.4719 183.952 98.0979C184.631 97.7141 185.379 97.532 186.196 97.5516C186.531 97.5418 186.914 97.6156 187.348 97.7731C187.781 97.9306 188.179 98.1521 188.543 98.4375C188.908 98.7131 189.198 99.0379 189.415 99.4119C189.641 99.7761 189.715 100.165 189.636 100.578C189.646 100.785 189.542 100.957 189.326 101.095C189.109 101.223 188.819 101.326 188.455 101.405C188.101 101.484 187.682 101.543 187.2 101.582C186.727 101.612 186.225 101.636 185.694 101.656C185.172 101.676 184.641 101.695 184.099 101.715C183.558 101.725 183.046 101.75 182.564 101.789C182.288 102.547 182.205 103.172 182.313 103.664C182.431 104.146 182.672 104.515 183.036 104.771C183.41 105.027 183.868 105.18 184.41 105.229C184.961 105.268 185.532 105.229 186.122 105.111C186.713 104.993 187.293 104.806 187.864 104.55C188.435 104.284 188.927 103.969 189.341 103.605C189.4 103.605 189.474 103.625 189.562 103.664C189.661 103.703 189.754 103.757 189.843 103.826C189.931 103.885 190.005 103.954 190.064 104.033C190.133 104.102 190.168 104.166 190.168 104.225C189.921 104.648 189.547 105.027 189.045 105.362C188.543 105.696 187.978 105.967 187.348 106.174C186.718 106.381 186.058 106.509 185.369 106.558C184.69 106.607 184.05 106.558 183.45 106.41C182.849 106.262 182.323 106.002 181.87 105.628C181.417 105.254 181.112 104.747 180.955 104.107ZM188.012 100.165C187.963 99.7909 187.815 99.5103 187.569 99.3233C187.323 99.1363 187.033 99.0182 186.698 98.969C186.363 98.9099 186.009 98.9149 185.635 98.9838C185.261 99.0527 184.911 99.156 184.587 99.2938C184.272 99.4316 184.006 99.594 183.789 99.781C183.583 99.968 183.474 100.155 183.465 100.342L188.012 100.165ZM190.743 97.7436C190.763 97.5566 190.842 97.4434 190.98 97.404C191.117 97.3548 191.265 97.34 191.422 97.3597C191.678 97.3892 191.87 97.5221 191.998 97.7583C192.126 97.9847 192.215 98.2406 192.264 98.5261C192.313 98.8115 192.338 99.092 192.338 99.3676C192.338 99.6334 192.343 99.8253 192.353 99.9434C192.628 99.7072 192.933 99.4365 193.268 99.1314C193.612 98.8263 194.026 98.5507 194.508 98.3046C195 98.0487 195.586 97.8568 196.265 97.7288C196.954 97.591 197.781 97.5812 198.745 97.6993C198.982 97.7583 199.154 97.8715 199.262 98.0389C199.38 98.2062 199.439 98.3834 199.439 98.5704C199.449 98.7475 199.4 98.9149 199.292 99.0723C199.193 99.22 199.051 99.3037 198.864 99.3233C198.627 99.1462 198.312 99.0428 197.919 99.0133C197.525 98.9838 197.092 99.0182 196.619 99.1166C196.157 99.2151 195.684 99.3725 195.202 99.5891C194.72 99.8056 194.272 100.076 193.859 100.401C193.455 100.726 193.106 101.1 192.81 101.523C192.525 101.946 192.348 102.409 192.279 102.911V106.144C192.259 106.194 192.18 106.267 192.043 106.366C191.905 106.454 191.747 106.518 191.57 106.558C191.403 106.607 191.231 106.607 191.053 106.558C190.886 106.509 190.758 106.371 190.669 106.144C190.669 106.075 190.669 105.859 190.669 105.495C190.669 105.121 190.669 104.673 190.669 104.151C190.679 103.62 190.689 103.044 190.699 102.424C190.709 101.794 190.714 101.179 190.714 100.578C190.724 99.9779 190.729 99.4267 190.729 98.9247C190.738 98.4227 190.743 98.029 190.743 97.7436ZM200.561 106.543C200.315 106.513 200.178 106.43 200.148 106.292C200.118 106.144 200.143 105.992 200.222 105.834C200.31 105.677 200.433 105.539 200.591 105.421C200.758 105.303 200.911 105.263 201.049 105.303C201.305 105.303 201.477 105.357 201.565 105.465C201.664 105.573 201.713 105.726 201.713 105.923C201.713 106.071 201.674 106.189 201.595 106.277C201.526 106.356 201.432 106.415 201.314 106.454C201.206 106.494 201.083 106.518 200.945 106.528C200.807 106.538 200.68 106.543 200.561 106.543Z" fill="white"/>
<path d="M267.4 10.4999C261.3 0.299882 250.7 0.799884 250.7 0.799884C235.4 1.59988 232 15.1999 232 15.1999C229.5 24.7999 234.6 30.9999 234.6 30.9999L247.4 48.6999C249 51.1999 250.7 50.9999 250.7 50.9999C253.1 50.8999 254 48.6999 254 48.6999L266.2 31.5999C268.1 28.7999 269.4 25.6999 269.9 22.3999C270.4 18.9999 270.1 14.7999 267.4 10.4999ZM250.8 28.4999C245.5 28.4999 241.2 24.1999 241.2 18.8999C241.2 13.5999 245.5 9.29988 250.8 9.29988C256.1 9.29988 260.4 13.5999 260.4 18.8999C260.4 24.1999 256.1 28.4999 250.8 28.4999Z" fill="#F1B705"/>
<path d="M19 214.6L5.5 262.2C9 265.4 15.3 270.3 24.3 273.2C39.9 278.2 53.4 273.9 57.9 272.2L64.8 236C64.9 236 34.8 197.5 19 214.6Z" fill="#F9C7A6"/>
<path d="M100.8 195.6C100.7 200.5 100.1 204.9 99.1 208.9C96.9 218.7 93.1 225.9 90.2 230.4C87.9 233.9 84.6 236.5 80.6 237.6C37 250.2 25 214 25 214C23.8 215 20.6 217.2 15.9 217.3C10.4 217.4 5.1 214.3 2.5 209.4C-0.699998 203.4 1.30001 197.6 1.70001 196.5C3.50001 191.6 7.80001 187.9 12.7 186.7C19.2 185.1 26.1 187.8 30.3 193.5L36.5 168C31.5 161.5 29.9 154.1 32.6 150.7C35.8 146.5 46.7 146.4 56.4 154.9C69 156.9 81.5 158.8 94.2 160.9C95.9 164.7 97.7 169.4 99 174.7C99 174.7 100.3 180.3 100.8 186.8C100.8 187.4 100.9 187.9 100.9 188.5C100.9 191.1 100.9 193.3 100.8 195.6Z" fill="#F9C7A6"/>
<path d="M53.5 210.5C57.7526 210.5 61.2 207.053 61.2 202.8C61.2 198.547 57.7526 195.1 53.5 195.1C49.2474 195.1 45.8 198.547 45.8 202.8C45.8 207.053 49.2474 210.5 53.5 210.5Z" fill="#F39D79"/>
<path d="M100.8 195.6C100.7 200.5 100.1 204.9 99.1 208.9C97.2 207.6 95.9 205.3 95.9 202.7C96 199.6 98 196.7 100.8 195.6Z" fill="#F39D79"/>
<path d="M67.3 186.1C68.2941 186.1 69.1 185.294 69.1 184.3C69.1 183.306 68.2941 182.5 67.3 182.5C66.3059 182.5 65.5 183.306 65.5 184.3C65.5 185.294 66.3059 186.1 67.3 186.1Z" fill="#192624"/>
<path d="M95.3 186.1C96.2941 186.1 97.1 185.294 97.1 184.3C97.1 183.306 96.2941 182.5 95.3 182.5C94.3059 182.5 93.5 183.306 93.5 184.3C93.5 185.294 94.3059 186.1 95.3 186.1Z" fill="#192624"/>
<path d="M31.1 190.2C34.2 192 37.3 193.8 40.4 195.7V212.8C40.4 216.3 42 219.6 44.6 221.8C51.7 227.4 67.4 236.2 92.1 227.5C92.1 227.5 92.3 247.7 82.5 251.4C81.2 251.9 79.6 251.9 77.4 251.9C73.7 251.9 71.5 251.2 62.7 248.7C55.2 246.5 54.7 246.4 53.1 245.8C51.7 245.2 48.3 243.8 44.2 241C38.1 236.9 30 231.7 26.5 222C25.4 218.9 25.1 216.1 24.9 214.1C27 206.1 29 198.1 31.1 190.2Z" fill="#F7EAE6"/>
<path d="M75.5 173C75.5 173 66.9 168.6 61.1 175.9" stroke="#F7EAE6" stroke-width="2" stroke-miterlimit="10" stroke-linecap="round"/>
<path d="M99.4 172.4C97.1 171.8 94.4 171.8 91.4 173.5" stroke="#F7EAE6" stroke-width="2" stroke-miterlimit="10" stroke-linecap="round"/>
<path d="M62.6 190.6C63.6 191.1 65.1 191.8 67.1 192C70.2 192.4 72.7 191.3 73.8 190.8" stroke="#F6AF8D" stroke-width="0.5" stroke-miterlimit="10"/>
<path d="M89.8 189.8C90.8 190.3 92.3 191 94.3 191.2C97.4 191.6 99.9 190.5 101 190" stroke="#F6AF8D" stroke-width="0.5" stroke-miterlimit="10"/>
<path d="M69.2 211.3C73.9 206.6 85.5 197.5 95 211.5C95.6 212.3 95 213.7 94.2 213.7L69.9 213.6C68.9 213.6 68.4 212.1 69.2 211.3Z" fill="#F7EAE6"/>
<path d="M40.4 198.2C35.7 198.8 33 197.6 31.4 196.6C27.7 194.2 27.9 190.7 23.6 188.2C21.1 186.8 18.6 186.6 17.3 186.5C11.9 186.1 7.79998 188.9 6.29998 190C5.89998 188.3 -9.53674e-06 160.2 18.4 143.2C29.9 132.6 44.4 132.1 52.9 132.2C60.9 132.3 86.2 131.6 96.8 149.5C103.5 160.9 100.9 173.5 99.7 178.2C99.2 175.7 98.6 172.8 97.7 169.8C96.6 166.3 95.4 163.3 94.2 160.7C77.9 160.8 61.5 161.1 45.3 161.2L32.7 150.6L41 165.1C40.6 176.4 40.5 187.4 40.4 198.2Z" fill="#F7EAE6"/>
<path d="M82 218.1C81.3 218.7 78.7 220.9 75.1 220.3C71 219.7 68.8 216.2 68.3 215.4" stroke="#192624" stroke-width="0.25" stroke-miterlimit="10" stroke-linecap="round"/>
<path opacity="0.6" d="M5.5 262.2C7.2 263.8 9.1 265.4 11.5 267C15.1 269.4 18.4 271.1 21.3 272.3C22.3 256.5 26.2 251.7 29.8 250.3C34.5 248.5 38.5 252.7 47.7 252.6C54 252.6 59.2 250.6 62.7 248.9C58.2 248.1 51.7 245.6 44.3 241.2C35.1 235.8 25.6 227.1 24.9 214.3L19 214.8L5.5 262.2Z" fill="#F6AF8D"/>
<path d="M16.1 217.1C24.55 217.1 31.4 210.25 31.4 201.8C31.4 193.35 24.55 186.5 16.1 186.5C7.65005 186.5 0.799988 193.35 0.799988 201.8C0.799988 210.25 7.65005 217.1 16.1 217.1Z" fill="#F9C7A6"/>
<path opacity="0.6" d="M40.6 180.7L46 166.5C54 167.6 63.6 168.3 74.4 167.8C82.4 167.4 89.6 166.5 95.8 165.3C95.2 163.9 94.6 162.4 94 161L45.1 161.5L32.5 150.9L40.8 165.4L40.6 180.7Z" fill="#F6AF8D"/>
<path d="M10.6 192.3C15 190.5 19.9 191.2 23.3 194.2C27.1 197.7 27 202.5 26.9 203.3" stroke="#192624" stroke-width="0.5" stroke-miterlimit="10" stroke-linecap="round"/>
</svg>
