<svg width="271" height="276" viewBox="0 0 271 276" fill="none" xmlns="http://www.w3.org/2000/svg">
<path d="M247.6 132H155.5L121.9 154.8C118.8 157 114.6 154.1 115.6 150.4L120.4 132.1H108C98.7 132.1 91.3 124.6 91.3 115.2V47.4C91.3 38.1 98.8 30.5 108 30.5H247.7C257 30.5 264.4 38 264.4 47.4V115.2C264.4 124.5 256.8 132 247.6 132Z" fill="#F1B705"/>
<path d="M247.6 30.5H210.2C207.8 77.8 168.8 115.3 121.1 115.3C110.6 115.3 100.5 113.5 91.2 110.2V115.2C91.2 124.5 98.7 132.1 107.9 132.1H120.2L115.4 150.4C114.4 154.1 118.5 157 121.7 154.8L155.3 132H247.4C256.7 132 264.1 124.5 264.1 115.1V47.3C264.4 38 256.8 30.5 247.6 30.5Z" fill="#EEAD07"/>
<path d="M110.229 66.2606V67.2281H102.746V56.6453H110.002V57.6128H103.864V61.3773H109.337V62.3298H103.864V66.2606H110.229ZM116.684 59.2154C117.682 59.2154 118.473 59.5077 119.058 60.0923C119.652 60.6668 119.95 61.5084 119.95 62.617V67.2281H118.876V62.7229C118.876 61.8964 118.669 61.2665 118.256 60.8331C117.843 60.3997 117.253 60.183 116.487 60.183C115.631 60.183 114.95 60.44 114.446 60.954C113.953 61.458 113.706 62.1584 113.706 63.0555V67.2281H112.632V59.2759H113.66V60.7424C113.953 60.2586 114.356 59.8856 114.87 59.6236C115.394 59.3515 115.999 59.2154 116.684 59.2154ZM127.051 66.7444C126.85 66.9258 126.598 67.0669 126.296 67.1677C126.003 67.2584 125.696 67.3037 125.373 67.3037C124.628 67.3037 124.053 67.1022 123.65 66.699C123.247 66.2958 123.045 65.7264 123.045 64.9906V60.183H121.624V59.2759H123.045V57.5373H124.119V59.2759H126.537V60.183H124.119V64.9302C124.119 65.4039 124.234 65.7667 124.466 66.0187C124.708 66.2606 125.051 66.3815 125.494 66.3815C125.716 66.3815 125.928 66.3462 126.129 66.2757C126.341 66.2051 126.522 66.1043 126.674 65.9733L127.051 66.7444ZM130.034 60.8331C130.286 60.2989 130.658 59.8957 131.152 59.6236C131.656 59.3515 132.276 59.2154 133.012 59.2154V60.2586L132.755 60.2434C131.918 60.2434 131.263 60.5005 130.79 61.0145C130.316 61.5285 130.079 62.2492 130.079 63.1764V67.2281H129.006V59.2759H130.034V60.8331ZM141.806 63.5846H135.154C135.214 64.4111 135.532 65.0813 136.106 65.5954C136.681 66.0993 137.406 66.3513 138.283 66.3513C138.777 66.3513 139.231 66.2656 139.644 66.0943C140.057 65.9128 140.415 65.6508 140.717 65.3081L141.322 66.0036C140.969 66.4269 140.526 66.7494 139.992 66.9711C139.468 67.1929 138.888 67.3037 138.253 67.3037C137.437 67.3037 136.711 67.1324 136.076 66.7897C135.451 66.437 134.962 65.9532 134.61 65.3383C134.257 64.7235 134.08 64.0281 134.08 63.252C134.08 62.4759 134.247 61.7805 134.579 61.1657C134.922 60.5509 135.386 60.0721 135.97 59.7294C136.565 59.3867 137.23 59.2154 137.966 59.2154C138.702 59.2154 139.362 59.3867 139.946 59.7294C140.531 60.0721 140.989 60.5509 141.322 61.1657C141.655 61.7704 141.821 62.4659 141.821 63.252L141.806 63.5846ZM137.966 60.1376C137.2 60.1376 136.555 60.3846 136.031 60.8784C135.517 61.3622 135.224 61.9972 135.154 62.7833H140.793C140.722 61.9972 140.425 61.3622 139.901 60.8784C139.387 60.3846 138.742 60.1376 137.966 60.1376ZM149.541 66.3362V67.2281H143.07V66.5176L148.074 60.183H143.161V59.2759H149.45V59.9864L144.446 66.3362H149.541ZM155.61 56.0103H156.684V67.2281H155.61V56.0103ZM166.595 63.5846H159.943C160.003 64.4111 160.321 65.0813 160.895 65.5954C161.47 66.0993 162.195 66.3513 163.072 66.3513C163.566 66.3513 164.02 66.2656 164.433 66.0943C164.846 65.9128 165.204 65.6508 165.506 65.3081L166.111 66.0036C165.758 66.4269 165.315 66.7494 164.781 66.9711C164.256 67.1929 163.677 67.3037 163.042 67.3037C162.226 67.3037 161.5 67.1324 160.865 66.7897C160.24 66.437 159.751 65.9532 159.398 65.3383C159.046 64.7235 158.869 64.0281 158.869 63.252C158.869 62.4759 159.036 61.7805 159.368 61.1657C159.711 60.5509 160.174 60.0721 160.759 59.7294C161.354 59.3867 162.019 59.2154 162.755 59.2154C163.49 59.2154 164.151 59.3867 164.735 59.7294C165.32 60.0721 165.778 60.5509 166.111 61.1657C166.444 61.7704 166.61 62.4659 166.61 63.252L166.595 63.5846ZM162.755 60.1376C161.989 60.1376 161.344 60.3846 160.819 60.8784C160.305 61.3622 160.013 61.9972 159.943 62.7833H165.582C165.511 61.9972 165.214 61.3622 164.69 60.8784C164.176 60.3846 163.531 60.1376 162.755 60.1376ZM170.926 67.3037C170.281 67.3037 169.661 67.213 169.067 67.0316C168.482 66.8401 168.024 66.6033 167.691 66.321L168.175 65.4744C168.507 65.7365 168.926 65.9532 169.43 66.1245C169.934 66.2858 170.458 66.3664 171.002 66.3664C171.728 66.3664 172.262 66.2555 172.605 66.0338C172.957 65.802 173.134 65.4795 173.134 65.0662C173.134 64.7739 173.038 64.5472 172.846 64.3859C172.655 64.2145 172.413 64.0886 172.121 64.0079C171.828 63.9172 171.44 63.8315 170.957 63.7509C170.312 63.63 169.793 63.509 169.399 63.3881C169.006 63.257 168.669 63.0404 168.386 62.738C168.114 62.4356 167.978 62.0173 167.978 61.4832C167.978 60.8179 168.255 60.2737 168.81 59.8504C169.364 59.4271 170.135 59.2154 171.123 59.2154C171.637 59.2154 172.151 59.2859 172.665 59.4271C173.179 59.5581 173.602 59.7345 173.935 59.9562L173.466 60.8179C172.811 60.3644 172.03 60.1376 171.123 60.1376C170.438 60.1376 169.918 60.2586 169.566 60.5005C169.223 60.7424 169.052 61.0598 169.052 61.4529C169.052 61.7553 169.147 61.9972 169.339 62.1786C169.541 62.36 169.787 62.4961 170.08 62.5868C170.372 62.6674 170.775 62.7531 171.289 62.8438C171.924 62.9648 172.433 63.0857 172.816 63.2067C173.199 63.3276 173.527 63.5342 173.799 63.8265C174.071 64.1188 174.207 64.522 174.207 65.036C174.207 65.7314 173.915 66.2858 173.33 66.699C172.756 67.1022 171.954 67.3037 170.926 67.3037Z" fill="white"/>
<path d="M105.301 77.3155C106.339 77.3155 107.135 77.5775 107.689 78.1017C108.244 78.6157 108.521 79.3817 108.521 80.3996V85.3282H107.493V84.0885C107.251 84.5018 106.893 84.8243 106.419 85.0561C105.956 85.2879 105.401 85.4038 104.756 85.4038C103.869 85.4038 103.164 85.1922 102.64 84.7689C102.116 84.3456 101.854 83.7862 101.854 83.0907C101.854 82.4154 102.096 81.8712 102.579 81.4579C103.073 81.0447 103.854 80.8381 104.923 80.8381H107.447V80.3543C107.447 79.6689 107.256 79.1499 106.873 78.7971C106.49 78.4343 105.931 78.2528 105.195 78.2528C104.691 78.2528 104.207 78.3385 103.743 78.5098C103.28 78.6711 102.882 78.8979 102.549 79.1902L102.065 78.3889C102.468 78.0462 102.952 77.7842 103.517 77.6027C104.081 77.4112 104.676 77.3155 105.301 77.3155ZM104.923 84.5572C105.527 84.5572 106.046 84.4211 106.48 84.149C106.913 83.8668 107.236 83.4636 107.447 82.9395V81.6394H104.953C103.592 81.6394 102.912 82.1131 102.912 83.0605C102.912 83.5241 103.088 83.892 103.441 84.1641C103.794 84.4262 104.288 84.5572 104.923 84.5572ZM118.723 74.1104V85.3282H117.695V83.7559C117.372 84.2901 116.944 84.6983 116.41 84.9805C115.885 85.2627 115.291 85.4038 114.626 85.4038C113.88 85.4038 113.204 85.2325 112.6 84.8898C111.995 84.5471 111.521 84.0684 111.179 83.4536C110.836 82.8388 110.665 82.1383 110.665 81.3521C110.665 80.566 110.836 79.8655 111.179 79.2507C111.521 78.6358 111.995 78.1621 112.6 77.8295C113.204 77.4868 113.88 77.3155 114.626 77.3155C115.271 77.3155 115.85 77.4516 116.364 77.7237C116.888 77.9857 117.317 78.3738 117.649 78.8878V74.1104H118.723ZM114.716 84.4514C115.271 84.4514 115.77 84.3254 116.213 84.0734C116.667 83.8114 117.019 83.4435 117.271 82.9698C117.533 82.4961 117.664 81.9568 117.664 81.3521C117.664 80.7474 117.533 80.2081 117.271 79.7344C117.019 79.2607 116.667 78.8979 116.213 78.6459C115.77 78.3839 115.271 78.2528 114.716 78.2528C114.152 78.2528 113.643 78.3839 113.189 78.6459C112.746 78.8979 112.393 79.2607 112.131 79.7344C111.879 80.2081 111.753 80.7474 111.753 81.3521C111.753 81.9568 111.879 82.4961 112.131 82.9698C112.393 83.4435 112.746 83.8114 113.189 84.0734C113.643 84.3254 114.152 84.4514 114.716 84.4514ZM122.74 78.9332C122.992 78.399 123.365 77.9958 123.859 77.7237C124.363 77.4516 124.983 77.3155 125.718 77.3155V78.3587L125.461 78.3435C124.625 78.3435 123.97 78.6006 123.496 79.1146C123.022 79.6286 122.786 80.3493 122.786 81.2765V85.3282H121.712V77.376H122.74V78.9332ZM134.512 81.6847H127.86C127.921 82.5112 128.238 83.1814 128.813 83.6955C129.387 84.1994 130.113 84.4514 130.99 84.4514C131.484 84.4514 131.937 84.3657 132.35 84.1944C132.764 84.0129 133.122 83.7509 133.424 83.4082L134.029 84.1037C133.676 84.527 133.232 84.8495 132.698 85.0712C132.174 85.293 131.595 85.4038 130.96 85.4038C130.143 85.4038 129.418 85.2325 128.783 84.8898C128.158 84.5371 127.669 84.0533 127.316 83.4384C126.963 82.8236 126.787 82.1282 126.787 81.3521C126.787 80.576 126.953 79.8806 127.286 79.2658C127.629 78.651 128.092 78.1722 128.677 77.8295C129.271 77.4868 129.937 77.3155 130.672 77.3155C131.408 77.3155 132.068 77.4868 132.653 77.8295C133.237 78.1722 133.696 78.651 134.029 79.2658C134.361 79.8705 134.528 80.566 134.528 81.3521L134.512 81.6847ZM130.672 78.2377C129.906 78.2377 129.261 78.4847 128.737 78.9785C128.223 79.4623 127.931 80.0973 127.86 80.8834H133.499C133.429 80.0973 133.132 79.4623 132.608 78.9785C132.093 78.4847 131.448 78.2377 130.672 78.2377ZM138.844 85.4038C138.199 85.4038 137.579 85.3131 136.985 85.1317C136.4 84.9402 135.941 84.7034 135.609 84.4211L136.093 83.5745C136.425 83.8366 136.843 84.0533 137.347 84.2246C137.851 84.3859 138.375 84.4665 138.92 84.4665C139.645 84.4665 140.18 84.3556 140.522 84.1339C140.875 83.9021 141.051 83.5796 141.051 83.1663C141.051 82.874 140.956 82.6473 140.764 82.486C140.573 82.3146 140.331 82.1887 140.038 82.108C139.746 82.0173 139.358 81.9316 138.874 81.851C138.229 81.7301 137.71 81.6091 137.317 81.4882C136.924 81.3571 136.586 81.1405 136.304 80.8381C136.032 80.5357 135.896 80.1174 135.896 79.5833C135.896 78.918 136.173 78.3738 136.728 77.9505C137.282 77.5272 138.053 77.3155 139.041 77.3155C139.555 77.3155 140.069 77.386 140.583 77.5272C141.097 77.6582 141.52 77.8346 141.853 78.0563L141.384 78.918C140.729 78.4645 139.948 78.2377 139.041 78.2377C138.355 78.2377 137.836 78.3587 137.483 78.6006C137.141 78.8425 136.969 79.1599 136.969 79.553C136.969 79.8554 137.065 80.0973 137.257 80.2787C137.458 80.4601 137.705 80.5962 137.997 80.6869C138.29 80.7675 138.693 80.8532 139.207 80.9439C139.842 81.0649 140.351 81.1858 140.734 81.3068C141.117 81.4277 141.444 81.6343 141.717 81.9266C141.989 82.2189 142.125 82.6221 142.125 83.1361C142.125 83.8315 141.832 84.3859 141.248 84.7991C140.673 85.2023 139.872 85.4038 138.844 85.4038ZM146.241 85.4038C145.596 85.4038 144.976 85.3131 144.381 85.1317C143.797 84.9402 143.338 84.7034 143.006 84.4211L143.489 83.5745C143.822 83.8366 144.24 84.0533 144.744 84.2246C145.248 84.3859 145.772 84.4665 146.316 84.4665C147.042 84.4665 147.576 84.3556 147.919 84.1339C148.272 83.9021 148.448 83.5796 148.448 83.1663C148.448 82.874 148.352 82.6473 148.161 82.486C147.969 82.3146 147.728 82.1887 147.435 82.108C147.143 82.0173 146.755 81.9316 146.271 81.851C145.626 81.7301 145.107 81.6091 144.714 81.4882C144.321 81.3571 143.983 81.1405 143.701 80.8381C143.429 80.5357 143.293 80.1174 143.293 79.5833C143.293 78.918 143.57 78.3738 144.124 77.9505C144.679 77.5272 145.45 77.3155 146.437 77.3155C146.951 77.3155 147.465 77.386 147.979 77.5272C148.494 77.6582 148.917 77.8346 149.249 78.0563L148.781 78.918C148.126 78.4645 147.345 78.2377 146.437 78.2377C145.752 78.2377 145.233 78.3587 144.88 78.6006C144.538 78.8425 144.366 79.1599 144.366 79.553C144.366 79.8554 144.462 80.0973 144.653 80.2787C144.855 80.4601 145.102 80.5962 145.394 80.6869C145.687 80.7675 146.09 80.8532 146.604 80.9439C147.239 81.0649 147.748 81.1858 148.131 81.3068C148.514 81.4277 148.841 81.6343 149.113 81.9266C149.386 82.2189 149.522 82.6221 149.522 83.1361C149.522 83.8315 149.229 84.3859 148.645 84.7991C148.07 85.2023 147.269 85.4038 146.241 85.4038ZM158.43 81.6847H151.778C151.839 82.5112 152.156 83.1814 152.731 83.6955C153.305 84.1994 154.031 84.4514 154.908 84.4514C155.401 84.4514 155.855 84.3657 156.268 84.1944C156.682 84.0129 157.039 83.7509 157.342 83.4082L157.946 84.1037C157.594 84.527 157.15 84.8495 156.616 85.0712C156.092 85.293 155.512 85.4038 154.877 85.4038C154.061 85.4038 153.335 85.2325 152.7 84.8898C152.075 84.5371 151.587 84.0533 151.234 83.4384C150.881 82.8236 150.705 82.1282 150.705 81.3521C150.705 80.576 150.871 79.8806 151.204 79.2658C151.546 78.651 152.01 78.1722 152.595 77.8295C153.189 77.4868 153.854 77.3155 154.59 77.3155C155.326 77.3155 155.986 77.4868 156.571 77.8295C157.155 78.1722 157.614 78.651 157.946 79.2658C158.279 79.8705 158.445 80.566 158.445 81.3521L158.43 81.6847ZM154.59 78.2377C153.824 78.2377 153.179 78.4847 152.655 78.9785C152.141 79.4623 151.849 80.0973 151.778 80.8834H157.417C157.347 80.0973 157.049 79.4623 156.525 78.9785C156.011 78.4847 155.366 78.2377 154.59 78.2377ZM162.762 85.4038C162.117 85.4038 161.497 85.3131 160.902 85.1317C160.318 84.9402 159.859 84.7034 159.527 84.4211L160.01 83.5745C160.343 83.8366 160.761 84.0533 161.265 84.2246C161.769 84.3859 162.293 84.4665 162.837 84.4665C163.563 84.4665 164.097 84.3556 164.44 84.1339C164.793 83.9021 164.969 83.5796 164.969 83.1663C164.969 82.874 164.873 82.6473 164.682 82.486C164.49 82.3146 164.249 82.1887 163.956 82.108C163.664 82.0173 163.276 81.9316 162.792 81.851C162.147 81.7301 161.628 81.6091 161.235 81.4882C160.842 81.3571 160.504 81.1405 160.222 80.8381C159.95 80.5357 159.814 80.1174 159.814 79.5833C159.814 78.918 160.091 78.3738 160.645 77.9505C161.2 77.5272 161.971 77.3155 162.958 77.3155C163.472 77.3155 163.986 77.386 164.5 77.5272C165.014 77.6582 165.438 77.8346 165.77 78.0563L165.302 78.918C164.647 78.4645 163.866 78.2377 162.958 78.2377C162.273 78.2377 161.754 78.3587 161.401 78.6006C161.059 78.8425 160.887 79.1599 160.887 79.553C160.887 79.8554 160.983 80.0973 161.174 80.2787C161.376 80.4601 161.623 80.5962 161.915 80.6869C162.208 80.7675 162.611 80.8532 163.125 80.9439C163.76 81.0649 164.269 81.1858 164.652 81.3068C165.035 81.4277 165.362 81.6343 165.634 81.9266C165.906 82.2189 166.043 82.6221 166.043 83.1361C166.043 83.8315 165.75 84.3859 165.166 84.7991C164.591 85.2023 163.79 85.4038 162.762 85.4038ZM176.035 77.3155C177.033 77.3155 177.824 77.6078 178.409 78.1924C179.004 78.7669 179.301 79.6085 179.301 80.7171V85.3282H178.228V80.823C178.228 79.9965 178.021 79.3666 177.608 78.9332C177.195 78.4998 176.605 78.2831 175.839 78.2831C174.982 78.2831 174.302 78.5401 173.798 79.0541C173.304 79.5581 173.057 80.2585 173.057 81.1556V85.3282H171.984V77.376H173.012V78.8425C173.304 78.3587 173.707 77.9857 174.221 77.7237C174.745 77.4516 175.35 77.3155 176.035 77.3155ZM184.997 77.3155C186.035 77.3155 186.831 77.5775 187.386 78.1017C187.94 78.6157 188.217 79.3817 188.217 80.3996V85.3282H187.189V84.0885C186.947 84.5018 186.589 84.8243 186.116 85.0561C185.652 85.2879 185.098 85.4038 184.453 85.4038C183.566 85.4038 182.86 85.1922 182.336 84.7689C181.812 84.3456 181.55 83.7862 181.55 83.0907C181.55 82.4154 181.792 81.8712 182.276 81.4579C182.77 81.0447 183.551 80.8381 184.619 80.8381H187.144V80.3543C187.144 79.6689 186.952 79.1499 186.569 78.7971C186.186 78.4343 185.627 78.2528 184.891 78.2528C184.387 78.2528 183.903 78.3385 183.44 78.5098C182.976 78.6711 182.578 78.8979 182.245 79.1902L181.762 78.3889C182.165 78.0462 182.649 77.7842 183.213 77.6027C183.777 77.4112 184.372 77.3155 184.997 77.3155ZM184.619 84.5572C185.224 84.5572 185.743 84.4211 186.176 84.149C186.61 83.8668 186.932 83.4636 187.144 82.9395V81.6394H184.649C183.289 81.6394 182.608 82.1131 182.608 83.0605C182.608 83.5241 182.785 83.892 183.137 84.1641C183.49 84.4262 183.984 84.5572 184.619 84.5572ZM195.184 77.3155C196.182 77.3155 196.973 77.6078 197.558 78.1924C198.153 78.7669 198.45 79.6085 198.45 80.7171V85.3282H197.377V80.823C197.377 79.9965 197.17 79.3666 196.757 78.9332C196.344 78.4998 195.754 78.2831 194.988 78.2831C194.131 78.2831 193.451 78.5401 192.947 79.0541C192.453 79.5581 192.206 80.2585 192.206 81.1556V85.3282H191.133V77.376H192.161V78.8425C192.453 78.3587 192.856 77.9857 193.37 77.7237C193.894 77.4516 194.499 77.3155 195.184 77.3155ZM205.552 84.8445C205.35 85.0259 205.098 85.167 204.796 85.2678C204.504 85.3585 204.196 85.4038 203.874 85.4038C203.128 85.4038 202.554 85.2023 202.15 84.7991C201.747 84.3959 201.546 83.8265 201.546 83.0907V78.2831H200.125V77.376H201.546V75.6374H202.619V77.376H205.038V78.2831H202.619V83.0303C202.619 83.504 202.735 83.8668 202.967 84.1188C203.209 84.3607 203.551 84.4816 203.995 84.4816C204.217 84.4816 204.428 84.4463 204.63 84.3758C204.841 84.3052 205.023 84.2044 205.174 84.0734L205.552 84.8445ZM210.288 77.3155C211.326 77.3155 212.122 77.5775 212.677 78.1017C213.231 78.6157 213.508 79.3817 213.508 80.3996V85.3282H212.48V84.0885C212.238 84.5018 211.88 84.8243 211.407 85.0561C210.943 85.2879 210.389 85.4038 209.744 85.4038C208.857 85.4038 208.151 85.1922 207.627 84.7689C207.103 84.3456 206.841 83.7862 206.841 83.0907C206.841 82.4154 207.083 81.8712 207.567 81.4579C208.06 81.0447 208.842 80.8381 209.91 80.8381H212.435V80.3543C212.435 79.6689 212.243 79.1499 211.86 78.7971C211.477 78.4343 210.918 78.2528 210.182 78.2528C209.678 78.2528 209.194 78.3385 208.731 78.5098C208.267 78.6711 207.869 78.8979 207.536 79.1902L207.053 78.3889C207.456 78.0462 207.939 77.7842 208.504 77.6027C209.068 77.4112 209.663 77.3155 210.288 77.3155ZM209.91 84.5572C210.515 84.5572 211.034 84.4211 211.467 84.149C211.9 83.8668 212.223 83.4636 212.435 82.9395V81.6394H209.94C208.579 81.6394 207.899 82.1131 207.899 83.0605C207.899 83.5241 208.076 83.892 208.428 84.1641C208.781 84.4262 209.275 84.5572 209.91 84.5572ZM216.424 77.376H217.497V85.3282H216.424V77.376ZM216.968 75.6374C216.746 75.6374 216.56 75.5618 216.408 75.4106C216.257 75.2594 216.182 75.078 216.182 74.8663C216.182 74.6647 216.257 74.4884 216.408 74.3372C216.56 74.186 216.746 74.1104 216.968 74.1104C217.19 74.1104 217.376 74.186 217.527 74.3372C217.678 74.4783 217.754 74.6496 217.754 74.8512C217.754 75.0729 217.678 75.2594 217.527 75.4106C217.376 75.5618 217.19 75.6374 216.968 75.6374ZM222.615 85.4038C221.97 85.4038 221.35 85.3131 220.756 85.1317C220.171 84.9402 219.713 84.7034 219.38 84.4211L219.864 83.5745C220.196 83.8366 220.615 84.0533 221.119 84.2246C221.623 84.3859 222.147 84.4665 222.691 84.4665C223.417 84.4665 223.951 84.3556 224.294 84.1339C224.646 83.9021 224.823 83.5796 224.823 83.1663C224.823 82.874 224.727 82.6473 224.535 82.486C224.344 82.3146 224.102 82.1887 223.81 82.108C223.517 82.0173 223.129 81.9316 222.646 81.851C222.001 81.7301 221.481 81.6091 221.088 81.4882C220.695 81.3571 220.358 81.1405 220.075 80.8381C219.803 80.5357 219.667 80.1174 219.667 79.5833C219.667 78.918 219.944 78.3738 220.499 77.9505C221.053 77.5272 221.824 77.3155 222.812 77.3155C223.326 77.3155 223.84 77.386 224.354 77.5272C224.868 77.6582 225.291 77.8346 225.624 78.0563L225.155 78.918C224.5 78.4645 223.719 78.2377 222.812 78.2377C222.127 78.2377 221.607 78.3587 221.255 78.6006C220.912 78.8425 220.741 79.1599 220.741 79.553C220.741 79.8554 220.836 80.0973 221.028 80.2787C221.23 80.4601 221.476 80.5962 221.769 80.6869C222.061 80.7675 222.464 80.8532 222.978 80.9439C223.613 81.0649 224.122 81.1858 224.505 81.3068C224.888 81.4277 225.216 81.6343 225.488 81.9266C225.76 82.2189 225.896 82.6221 225.896 83.1361C225.896 83.8315 225.604 84.3859 225.019 84.7991C224.445 85.2023 223.643 85.4038 222.615 85.4038ZM234.805 81.6847H228.153C228.213 82.5112 228.531 83.1814 229.105 83.6955C229.68 84.1994 230.405 84.4514 231.282 84.4514C231.776 84.4514 232.23 84.3657 232.643 84.1944C233.056 84.0129 233.414 83.7509 233.716 83.4082L234.321 84.1037C233.968 84.527 233.525 84.8495 232.99 85.0712C232.466 85.293 231.887 85.4038 231.252 85.4038C230.435 85.4038 229.71 85.2325 229.075 84.8898C228.45 84.5371 227.961 84.0533 227.608 83.4384C227.256 82.8236 227.079 82.1282 227.079 81.3521C227.079 80.576 227.245 79.8806 227.578 79.2658C227.921 78.651 228.384 78.1722 228.969 77.8295C229.564 77.4868 230.229 77.3155 230.965 77.3155C231.7 77.3155 232.361 77.4868 232.945 77.8295C233.53 78.1722 233.988 78.651 234.321 79.2658C234.654 79.8705 234.82 80.566 234.82 81.3521L234.805 81.6847ZM230.965 78.2377C230.199 78.2377 229.554 78.4847 229.029 78.9785C228.515 79.4623 228.223 80.0973 228.153 80.8834H233.792C233.721 80.0973 233.424 79.4623 232.9 78.9785C232.386 78.4847 231.741 78.2377 230.965 78.2377ZM239.136 85.4038C238.491 85.4038 237.871 85.3131 237.277 85.1317C236.692 84.9402 236.234 84.7034 235.901 84.4211L236.385 83.5745C236.717 83.8366 237.136 84.0533 237.64 84.2246C238.144 84.3859 238.668 84.4665 239.212 84.4665C239.938 84.4665 240.472 84.3556 240.814 84.1339C241.167 83.9021 241.344 83.5796 241.344 83.1663C241.344 82.874 241.248 82.6473 241.056 82.486C240.865 82.3146 240.623 82.1887 240.331 82.108C240.038 82.0173 239.65 81.9316 239.167 81.851C238.522 81.7301 238.002 81.6091 237.609 81.4882C237.216 81.3571 236.879 81.1405 236.596 80.8381C236.324 80.5357 236.188 80.1174 236.188 79.5833C236.188 78.918 236.465 78.3738 237.02 77.9505C237.574 77.5272 238.345 77.3155 239.333 77.3155C239.847 77.3155 240.361 77.386 240.875 77.5272C241.389 77.6582 241.812 77.8346 242.145 78.0563L241.676 78.918C241.021 78.4645 240.24 78.2377 239.333 78.2377C238.648 78.2377 238.128 78.3587 237.776 78.6006C237.433 78.8425 237.262 79.1599 237.262 79.553C237.262 79.8554 237.357 80.0973 237.549 80.2787C237.75 80.4601 237.997 80.5962 238.29 80.6869C238.582 80.7675 238.985 80.8532 239.499 80.9439C240.134 81.0649 240.643 81.1858 241.026 81.3068C241.409 81.4277 241.737 81.6343 242.009 81.9266C242.281 82.2189 242.417 82.6221 242.417 83.1361C242.417 83.8315 242.125 84.3859 241.54 84.7991C240.966 85.2023 240.164 85.4038 239.136 85.4038Z" fill="white"/>
<path d="M105.301 95.5154C106.339 95.5154 107.135 95.7775 107.689 96.3016C108.244 96.8156 108.521 97.5816 108.521 98.5996V103.528H107.493V102.288C107.251 102.702 106.893 103.024 106.419 103.256C105.956 103.488 105.401 103.604 104.756 103.604C103.869 103.604 103.164 103.392 102.64 102.969C102.116 102.546 101.854 101.986 101.854 101.291C101.854 100.615 102.096 100.071 102.579 99.6579C103.073 99.2447 103.854 99.038 104.923 99.038H107.447V98.5542C107.447 97.8689 107.256 97.3498 106.873 96.997C106.49 96.6342 105.931 96.4528 105.195 96.4528C104.691 96.4528 104.207 96.5385 103.743 96.7098C103.28 96.8711 102.882 97.0978 102.549 97.3901L102.065 96.5889C102.468 96.2462 102.952 95.9841 103.517 95.8027C104.081 95.6112 104.676 95.5154 105.301 95.5154ZM104.923 102.757C105.527 102.757 106.046 102.621 106.48 102.349C106.913 102.067 107.236 101.664 107.447 101.139V99.8393H104.953C103.592 99.8393 102.912 100.313 102.912 101.26C102.912 101.724 103.088 102.092 103.441 102.364C103.794 102.626 104.288 102.757 104.923 102.757ZM102.806 92.4615H104.242L106.314 94.3362H105.255L102.806 92.4615ZM118.689 103.604C117.903 103.604 117.197 103.432 116.572 103.09C115.957 102.747 115.474 102.268 115.121 101.654C114.768 101.029 114.592 100.328 114.592 99.5521C114.592 98.776 114.768 98.0805 115.121 97.4657C115.474 96.8509 115.957 96.3722 116.572 96.0295C117.197 95.6868 117.903 95.5154 118.689 95.5154C119.374 95.5154 119.984 95.6515 120.518 95.9236C121.062 96.1857 121.491 96.5737 121.803 97.0878L121.002 97.632C120.74 97.2389 120.407 96.9467 120.004 96.7552C119.601 96.5536 119.163 96.4528 118.689 96.4528C118.114 96.4528 117.595 96.5838 117.132 96.8459C116.678 97.0978 116.32 97.4607 116.058 97.9344C115.806 98.4081 115.68 98.9473 115.68 99.5521C115.68 100.167 115.806 100.711 116.058 101.185C116.32 101.648 116.678 102.011 117.132 102.273C117.595 102.525 118.114 102.651 118.689 102.651C119.163 102.651 119.601 102.556 120.004 102.364C120.407 102.173 120.74 101.88 121.002 101.487L121.803 102.031C121.491 102.546 121.062 102.939 120.518 103.211C119.974 103.473 119.364 103.604 118.689 103.604ZM127.03 103.604C126.264 103.604 125.573 103.432 124.958 103.09C124.343 102.737 123.86 102.253 123.507 101.638C123.154 101.024 122.978 100.328 122.978 99.5521C122.978 98.776 123.154 98.0805 123.507 97.4657C123.86 96.8509 124.343 96.3722 124.958 96.0295C125.573 95.6868 126.264 95.5154 127.03 95.5154C127.796 95.5154 128.486 95.6868 129.101 96.0295C129.716 96.3722 130.194 96.8509 130.537 97.4657C130.89 98.0805 131.066 98.776 131.066 99.5521C131.066 100.328 130.89 101.024 130.537 101.638C130.194 102.253 129.716 102.737 129.101 103.09C128.486 103.432 127.796 103.604 127.03 103.604ZM127.03 102.651C127.594 102.651 128.098 102.525 128.541 102.273C128.995 102.011 129.348 101.643 129.6 101.17C129.852 100.696 129.978 100.157 129.978 99.5521C129.978 98.9473 129.852 98.4081 129.6 97.9344C129.348 97.4607 128.995 97.0978 128.541 96.8459C128.098 96.5838 127.594 96.4528 127.03 96.4528C126.465 96.4528 125.956 96.5838 125.503 96.8459C125.059 97.0978 124.706 97.4607 124.444 97.9344C124.192 98.4081 124.066 98.9473 124.066 99.5521C124.066 100.157 124.192 100.696 124.444 101.17C124.706 101.643 125.059 102.011 125.503 102.273C125.956 102.525 126.465 102.651 127.03 102.651ZM143.175 95.5154C144.173 95.5154 144.954 95.8027 145.519 96.3772C146.093 96.9517 146.38 97.7983 146.38 98.9171V103.528H145.307V99.0229C145.307 98.1964 145.105 97.5665 144.702 97.1331C144.309 96.6997 143.75 96.483 143.024 96.483C142.198 96.483 141.548 96.74 141.074 97.2541C140.6 97.758 140.363 98.4585 140.363 99.3555V103.528H139.29V99.0229C139.29 98.1964 139.088 97.5665 138.685 97.1331C138.292 96.6997 137.728 96.483 136.992 96.483C136.175 96.483 135.525 96.74 135.042 97.2541C134.568 97.758 134.331 98.4585 134.331 99.3555V103.528H133.258V95.5759H134.286V97.0273C134.568 96.5435 134.961 96.1706 135.465 95.9085C135.969 95.6465 136.548 95.5154 137.203 95.5154C137.869 95.5154 138.443 95.6566 138.927 95.9388C139.421 96.221 139.789 96.6392 140.031 97.1936C140.323 96.6695 140.741 96.2613 141.285 95.969C141.84 95.6666 142.47 95.5154 143.175 95.5154ZM153.388 95.5154C154.134 95.5154 154.81 95.6868 155.414 96.0295C156.019 96.3621 156.493 96.8358 156.835 97.4506C157.178 98.0654 157.349 98.7659 157.349 99.5521C157.349 100.348 157.178 101.054 156.835 101.669C156.493 102.283 156.019 102.762 155.414 103.105C154.82 103.437 154.144 103.604 153.388 103.604C152.743 103.604 152.159 103.473 151.635 103.211C151.121 102.939 150.697 102.546 150.365 102.031V106.461H149.291V95.5759H150.319V97.1482C150.642 96.6241 151.065 96.221 151.589 95.9388C152.124 95.6566 152.723 95.5154 153.388 95.5154ZM153.313 102.651C153.867 102.651 154.371 102.525 154.825 102.273C155.278 102.011 155.631 101.643 155.883 101.17C156.145 100.696 156.276 100.157 156.276 99.5521C156.276 98.9473 156.145 98.4131 155.883 97.9495C155.631 97.4758 155.278 97.1079 154.825 96.8459C154.371 96.5838 153.867 96.4528 153.313 96.4528C152.748 96.4528 152.239 96.5838 151.786 96.8459C151.342 97.1079 150.99 97.4758 150.728 97.9495C150.476 98.4131 150.35 98.9473 150.35 99.5521C150.35 100.157 150.476 100.696 150.728 101.17C150.99 101.643 151.342 102.011 151.786 102.273C152.239 102.525 152.748 102.651 153.313 102.651ZM162.275 95.5154C163.313 95.5154 164.109 95.7775 164.664 96.3016C165.218 96.8156 165.495 97.5816 165.495 98.5996V103.528H164.467V102.288C164.225 102.702 163.868 103.024 163.394 103.256C162.93 103.488 162.376 103.604 161.731 103.604C160.844 103.604 160.138 103.392 159.614 102.969C159.09 102.546 158.828 101.986 158.828 101.291C158.828 100.615 159.07 100.071 159.554 99.6579C160.048 99.2447 160.829 99.038 161.897 99.038H164.422V98.5542C164.422 97.8689 164.23 97.3498 163.847 96.997C163.464 96.6342 162.905 96.4528 162.169 96.4528C161.665 96.4528 161.182 96.5385 160.718 96.7098C160.254 96.8711 159.856 97.0978 159.524 97.3901L159.04 96.5889C159.443 96.2462 159.927 95.9841 160.491 95.8027C161.056 95.6112 161.65 95.5154 162.275 95.5154ZM161.897 102.757C162.502 102.757 163.021 102.621 163.454 102.349C163.888 102.067 164.21 101.664 164.422 101.139V99.8393H161.927C160.567 99.8393 159.886 100.313 159.886 101.26C159.886 101.724 160.063 102.092 160.416 102.364C160.768 102.626 161.262 102.757 161.897 102.757ZM169.439 97.1331C169.691 96.5989 170.064 96.1958 170.558 95.9236C171.062 95.6515 171.681 95.5154 172.417 95.5154V96.5586L172.16 96.5435C171.324 96.5435 170.669 96.8005 170.195 97.3145C169.721 97.8286 169.484 98.5492 169.484 99.4765V103.528H168.411V95.5759H169.439V97.1331ZM181.211 99.8847H174.559C174.62 100.711 174.937 101.381 175.512 101.895C176.086 102.399 176.812 102.651 177.689 102.651C178.182 102.651 178.636 102.566 179.049 102.394C179.462 102.213 179.82 101.951 180.123 101.608L180.727 102.304C180.375 102.727 179.931 103.049 179.397 103.271C178.873 103.493 178.293 103.604 177.658 103.604C176.842 103.604 176.116 103.432 175.481 103.09C174.856 102.737 174.368 102.253 174.015 101.638C173.662 101.024 173.486 100.328 173.486 99.5521C173.486 98.776 173.652 98.0805 173.985 97.4657C174.327 96.8509 174.791 96.3722 175.375 96.0295C175.97 95.6868 176.635 95.5154 177.371 95.5154C178.107 95.5154 178.767 95.6868 179.352 96.0295C179.936 96.3722 180.395 96.8509 180.727 97.4657C181.06 98.0705 181.226 98.7659 181.226 99.5521L181.211 99.8847ZM177.371 96.4377C176.605 96.4377 175.96 96.6846 175.436 97.1785C174.922 97.6623 174.63 98.2972 174.559 99.0834H180.198C180.128 98.2972 179.83 97.6623 179.306 97.1785C178.792 96.6846 178.147 96.4377 177.371 96.4377ZM184.439 97.1331C184.691 96.5989 185.064 96.1958 185.558 95.9236C186.062 95.6515 186.682 95.5154 187.417 95.5154V96.5586L187.16 96.5435C186.324 96.5435 185.669 96.8005 185.195 97.3145C184.721 97.8286 184.485 98.5492 184.485 99.4765V103.528H183.411V95.5759H184.439V97.1331ZM189.437 103.604C189.216 103.604 189.024 103.523 188.863 103.362C188.712 103.201 188.636 103.004 188.636 102.772C188.636 102.54 188.712 102.349 188.863 102.198C189.024 102.037 189.216 101.956 189.437 101.956C189.659 101.956 189.851 102.037 190.012 102.198C190.173 102.349 190.254 102.54 190.254 102.772C190.254 103.004 190.173 103.201 190.012 103.362C189.851 103.523 189.659 103.604 189.437 103.604Z" fill="white"/>
<path d="M267.4 10.4999C261.3 0.299882 250.7 0.799884 250.7 0.799884C235.4 1.59988 232 15.1999 232 15.1999C229.5 24.7999 234.6 30.9999 234.6 30.9999L247.4 48.6999C249 51.1999 250.7 50.9999 250.7 50.9999C253.1 50.8999 254 48.6999 254 48.6999L266.2 31.5999C268.1 28.7999 269.4 25.6999 269.9 22.3999C270.4 18.9999 270.1 14.7999 267.4 10.4999ZM250.8 28.4999C245.5 28.4999 241.2 24.1999 241.2 18.8999C241.2 13.5999 245.5 9.29988 250.8 9.29988C256.1 9.29988 260.4 13.5999 260.4 18.8999C260.4 24.1999 256.1 28.4999 250.8 28.4999Z" fill="#2A315B"/>
<path d="M19 214.6L5.5 262.2C9 265.4 15.3 270.3 24.3 273.2C39.9 278.2 53.4 273.9 57.9 272.2L64.8 236C64.9 236 34.8 197.5 19 214.6Z" fill="#F9C7A6"/>
<path d="M100.8 195.6C100.7 200.5 100.1 204.9 99.1 208.9C96.9 218.7 93.1 225.9 90.2 230.4C87.9 233.9 84.6 236.5 80.6 237.6C37 250.2 25 214 25 214C23.8 215 20.6 217.2 15.9 217.3C10.4 217.4 5.1 214.3 2.5 209.4C-0.699998 203.4 1.30001 197.6 1.70001 196.5C3.50001 191.6 7.80001 187.9 12.7 186.7C19.2 185.1 26.1 187.8 30.3 193.5L36.5 168C31.5 161.5 29.9 154.1 32.6 150.7C35.8 146.5 46.7 146.4 56.4 154.9C69 156.9 81.5 158.8 94.2 160.9C95.9 164.7 97.7 169.4 99 174.7C99 174.7 100.3 180.3 100.8 186.8C100.8 187.4 100.9 187.9 100.9 188.5C100.9 191.1 100.9 193.3 100.8 195.6Z" fill="#F9C7A6"/>
<path d="M53.5 210.5C57.7526 210.5 61.2 207.053 61.2 202.8C61.2 198.547 57.7526 195.1 53.5 195.1C49.2474 195.1 45.8 198.547 45.8 202.8C45.8 207.053 49.2474 210.5 53.5 210.5Z" fill="#F39D79"/>
<path d="M100.8 195.6C100.7 200.5 100.1 204.9 99.1 208.9C97.2 207.6 95.9 205.3 95.9 202.7C96 199.6 98 196.7 100.8 195.6Z" fill="#F39D79"/>
<path d="M67.3 186.1C68.2941 186.1 69.1 185.294 69.1 184.3C69.1 183.306 68.2941 182.5 67.3 182.5C66.3059 182.5 65.5 183.306 65.5 184.3C65.5 185.294 66.3059 186.1 67.3 186.1Z" fill="#192624"/>
<path d="M95.3 186.1C96.2941 186.1 97.1 185.294 97.1 184.3C97.1 183.306 96.2941 182.5 95.3 182.5C94.3059 182.5 93.5 183.306 93.5 184.3C93.5 185.294 94.3059 186.1 95.3 186.1Z" fill="#192624"/>
<path d="M31.1 190.2C34.2 192 37.3 193.8 40.4 195.7V212.8C40.4 216.3 42 219.6 44.6 221.8C51.7 227.4 67.4 236.2 92.1 227.5C92.1 227.5 92.3 247.7 82.5 251.4C81.2 251.9 79.6 251.9 77.4 251.9C73.7 251.9 71.5 251.2 62.7 248.7C55.2 246.5 54.7 246.4 53.1 245.8C51.7 245.2 48.3 243.8 44.2 241C38.1 236.9 30 231.7 26.5 222C25.4 218.9 25.1 216.1 24.9 214.1C27 206.1 29 198.1 31.1 190.2Z" fill="#F7EAE6"/>
<path d="M75.5 173C75.5 173 66.9 168.6 61.1 175.9" stroke="#F7EAE6" stroke-width="2" stroke-miterlimit="10" stroke-linecap="round"/>
<path d="M99.4 172.4C97.1 171.8 94.4 171.8 91.4 173.5" stroke="#F7EAE6" stroke-width="2" stroke-miterlimit="10" stroke-linecap="round"/>
<path d="M62.6 190.6C63.6 191.1 65.1 191.8 67.1 192C70.2 192.4 72.7 191.3 73.8 190.8" stroke="#F6AF8D" stroke-width="0.5" stroke-miterlimit="10"/>
<path d="M89.8 189.8C90.8 190.3 92.3 191 94.3 191.2C97.4 191.6 99.9 190.5 101 190" stroke="#F6AF8D" stroke-width="0.5" stroke-miterlimit="10"/>
<path d="M69.2 211.3C73.9 206.6 85.5 197.5 95 211.5C95.6 212.3 95 213.7 94.2 213.7L69.9 213.6C68.9 213.6 68.4 212.1 69.2 211.3Z" fill="#F7EAE6"/>
<path d="M40.4 198.2C35.7 198.8 33 197.6 31.4 196.6C27.7 194.2 27.9 190.7 23.6 188.2C21.1 186.8 18.6 186.6 17.3 186.5C11.9 186.1 7.79998 188.9 6.29998 190C5.89998 188.3 -9.53674e-06 160.2 18.4 143.2C29.9 132.6 44.4 132.1 52.9 132.2C60.9 132.3 86.2 131.6 96.8 149.5C103.5 160.9 100.9 173.5 99.7 178.2C99.2 175.7 98.6 172.8 97.7 169.8C96.6 166.3 95.4 163.3 94.2 160.7C77.9 160.8 61.5 161.1 45.3 161.2L32.7 150.6L41 165.1C40.6 176.4 40.5 187.4 40.4 198.2Z" fill="#F7EAE6"/>
<path d="M82 218.1C81.3 218.7 78.7 220.9 75.1 220.3C71 219.7 68.8 216.2 68.3 215.4" stroke="#192624" stroke-width="0.25" stroke-miterlimit="10" stroke-linecap="round"/>
<path opacity="0.6" d="M5.5 262.2C7.2 263.8 9.1 265.4 11.5 267C15.1 269.4 18.4 271.1 21.3 272.3C22.3 256.5 26.2 251.7 29.8 250.3C34.5 248.5 38.5 252.7 47.7 252.6C54 252.6 59.2 250.6 62.7 248.9C58.2 248.1 51.7 245.6 44.3 241.2C35.1 235.8 25.6 227.1 24.9 214.3L19 214.8L5.5 262.2Z" fill="#F6AF8D"/>
<path d="M16.1 217.1C24.55 217.1 31.4 210.25 31.4 201.8C31.4 193.35 24.55 186.5 16.1 186.5C7.65005 186.5 0.799988 193.35 0.799988 201.8C0.799988 210.25 7.65005 217.1 16.1 217.1Z" fill="#F9C7A6"/>
<path opacity="0.6" d="M40.6 180.7L46 166.5C54 167.6 63.6 168.3 74.4 167.8C82.4 167.4 89.6 166.5 95.8 165.3C95.2 163.9 94.6 162.4 94 161L45.1 161.5L32.5 150.9L40.8 165.4L40.6 180.7Z" fill="#F6AF8D"/>
<path d="M10.6 192.3C15 190.5 19.9 191.2 23.3 194.2C27.1 197.7 27 202.5 26.9 203.3" stroke="#192624" stroke-width="0.5" stroke-miterlimit="10" stroke-linecap="round"/>
</svg>
