<?xml version="1.0" encoding="utf-8"?>
<!-- Generator: Adobe Illustrator 25.1.0, SVG Export Plug-In . SVG Version: 6.00 Build 0)  -->
<svg version="1.1" id="Calque_1" xmlns="http://www.w3.org/2000/svg" xmlns:xlink="http://www.w3.org/1999/xlink" x="0px" y="0px"
	 viewBox="0 0 1320 700" style="enable-background:new 0 0 1320 700;" xml:space="preserve">
<style type="text/css">
	.st0{fill:#BDE1ED;}
	.st1{fill:none;}
	.st2{fill:#F7E6E3;}
	.st3{fill:#F5F6FA;}
	.st4{fill:#2A315B;}
	.st5{fill:#EEAD1C;}
	.st6{fill:none;stroke:#FFDDA4;stroke-linecap:round;stroke-miterlimit:10;}
	.st7{fill:#BEE2ED;}
	.st8{fill:#EDF5FF;}
	.st9{fill:#D5E8FE;}
	.st10{clip-path:url(#SVGID_2_);fill:#2F385E;}
	.st11{clip-path:url(#SVGID_2_);fill:#2A315B;}
	.st12{fill:#FFFFFF;}
	.st13{font-family:'ArchitectsDaughter';}
	.st14{font-size:12.6386px;}
	.st15{opacity:0.3;}
	.st16{fill:#91B3FA;}
	.st17{fill:#1F3B78;}
	.st18{opacity:0.56;fill:#FFFFFF;}
	.st19{fill:#CEE8EF;}
	.st20{fill:#F9C7A6;}
	.st21{fill:#F39D79;}
	.st22{fill:#192624;}
	.st23{fill:#F7EAE6;}
	.st24{fill:none;stroke:#F7EAE6;stroke-width:2;stroke-linecap:round;stroke-miterlimit:10;}
	.st25{fill:none;stroke:#F6AF8D;stroke-width:0.5;stroke-miterlimit:10;}
	.st26{fill:none;stroke:#192624;stroke-width:0.25;stroke-linecap:round;stroke-miterlimit:10;}
	.st27{opacity:0.6;fill:#F6AF8D;}
	.st28{fill:none;stroke:#192624;stroke-width:0.5;stroke-linecap:round;stroke-miterlimit:10;}
</style>
<g>
	<path class="st0" d="M1223.8,32.2c0.8,0.3,1.7,0.1,2-0.5c0.7-0.9,1.3-1.9,2-2.9c0.5-0.6,0.2-1.4-0.4-1.8c-0.2-0.1-0.2-0.1-0.4-0.2
		c-0.6-0.1-1.3,0.1-1.7,0.5c-0.7,1-1.3,1.9-2,2.9C1222.8,31.1,1223.1,31.9,1223.8,32.2z"/>
	<path class="st0" d="M1250.6,6.5c1-0.7,1.9-1.4,3-2.1c0.6-0.4,0.7-1.2,0.2-1.8c-0.2-0.2-0.6-0.4-0.8-0.4c-0.4-0.1-1,0-1.1,0.2
		c-1.1,0.7-2.1,1.4-3.1,2.1c-0.7,0.4-0.7,1.2-0.2,1.8C1249,6.9,1250,6.9,1250.6,6.5z"/>
	<path class="st0" d="M1244.7,10.9c1-0.8,1.9-1.6,2.9-2.3c0.6-0.4,0.7-1.3,0.1-1.8c-0.2-0.2-0.5-0.4-0.7-0.4c-0.4-0.1-1,0-1.4,0.3
		c-1,0.8-1.9,1.6-2.9,2.3c-0.6,0.5-0.6,1.3-0.1,1.8C1243.2,11.4,1244.1,11.4,1244.7,10.9z"/>
	<path class="st0" d="M1234.4,20.8c0.7-0.9,1.6-1.8,2.4-2.6c0.5-0.5,0.5-1.3-0.1-1.8c-0.2-0.1-0.4-0.3-0.6-0.3c-0.5-0.1-1,0-1.5,0.4
		c-0.8,0.9-1.7,1.8-2.5,2.7c-0.5,0.5-0.4,1.3,0.2,1.8C1232.9,21.5,1233.8,21.3,1234.4,20.8z"/>
	<path class="st0" d="M1227.8,26.5c0.6,0.4,1.6,0.2,2-0.4c0.7-0.9,1.5-1.8,2.2-2.7c0.5-0.6,0.3-1.4-0.3-1.8
		c-0.2-0.1-0.3-0.2-0.5-0.2c-0.5-0.1-1.2,0.1-1.6,0.6c-0.7,0.9-1.5,1.9-2.3,2.8C1226.9,25.3,1227.2,26.1,1227.8,26.5z"/>
	<path class="st0" d="M1239.4,15.7c0.8-0.8,1.7-1.6,2.6-2.4c0.5-0.5,0.6-1.4,0-1.8c-0.2-0.1-0.4-0.3-0.7-0.3c-0.5-0.1-1,0-1.4,0.4
		c-0.9,0.8-1.8,1.6-2.7,2.5c-0.5,0.5-0.5,1.3,0.1,1.8C1237.9,16.3,1238.8,16.3,1239.4,15.7z"/>
	<path class="st0" d="M1254.5,2.1c0.4,0.5,1.3,0.7,2,0.3c1-0.6,2.2-1.3,3.2-1.8c0.2-0.1,0.3-0.3,0.5-0.4c-1.6,0-3.3,0-4.9,0
		c-0.1,0.1-0.3,0.2-0.4,0.3C1254.3,0.7,1254,1.5,1254.5,2.1z"/>
	<path class="st0" d="M1220.3,38.3c0.8,0.3,1.6,0.1,2-0.6c0.6-1,1.2-2.1,1.7-3c0.4-0.6,0-1.4-0.6-1.7c-0.2,0-0.3-0.1-0.4-0.1
		c-0.6-0.1-1.3,0-1.6,0.6c-0.6,1-1.2,2.1-1.8,3.1C1219.2,37.2,1219.5,37.9,1220.3,38.3z"/>
	<path class="st0" d="M1208,104.4c0.8-0.1,1.4-0.7,1.4-1.4c-0.1-1.1-0.2-2.3-0.2-3.4c0-0.6-0.5-1-1.1-1.2c-0.2,0-0.3-0.1-0.4-0.1
		c-0.8,0.1-1.4,0.7-1.4,1.4c0,1.2,0.1,2.3,0.2,3.4C1206.5,103.9,1207.2,104.4,1208,104.4z"/>
	<path class="st0" d="M1207.4,97.6c0.9-0.1,1.4-0.7,1.4-1.3c-0.1-1.1,0-2.2-0.1-3.3c0-0.6-0.4-1.1-1.1-1.2c-0.1,0-0.3-0.1-0.6,0
		c-0.8,0-1.4,0.6-1.4,1.3c0,1.2,0.1,2.3,0.1,3.4C1206,97.1,1206.7,97.6,1207.4,97.6z"/>
	<path class="st0" d="M1211.6,124.5c0.8-0.2,1.3-0.8,1.1-1.5c-0.2-1.1-0.5-2.2-0.7-3.3c0-0.5-0.5-0.9-1-1c-0.3-0.1-0.4-0.1-0.6,0
		c-0.8,0.2-1.4,0.8-1.2,1.5c0.3,1.1,0.5,2.2,0.7,3.3C1210,124.2,1210.7,124.6,1211.6,124.5z"/>
	<path class="st0" d="M1213.4,131.1c0.7-0.2,1.2-0.8,1-1.5c-0.3-1.1-0.7-2.2-0.9-3.3c-0.1-0.5-0.5-0.9-1-1c-0.3-0.1-0.4-0.1-0.6,0
		c-0.8,0.2-1.3,0.8-1.1,1.5c0.3,1.2,0.6,2.3,0.9,3.4C1211.9,130.8,1212.6,131.2,1213.4,131.1z"/>
	<path class="st0" d="M1210.1,117.9c0.8-0.2,1.4-0.8,1.2-1.5c-0.2-1.1-0.5-2.3-0.6-3.4c-0.1-0.5-0.6-1-1.1-1.1
		c-0.2,0-0.4-0.1-0.5,0.1c-0.9,0.1-1.4,0.8-1.3,1.5c0.2,1.1,0.4,2.2,0.6,3.4C1208.6,117.6,1209.3,118.1,1210.1,117.9z"/>
	<path class="st0" d="M1207.4,90.8c0.8,0,1.5-0.6,1.5-1.2c0-1.2,0-2.2,0.1-3.4c0.1-0.6-0.4-1.1-1.1-1.2c-0.1,0-0.2,0-0.4-0.1
		c-0.8,0-1.5,0.5-1.5,1.2c0,1.1,0,2.2-0.1,3.4C1205.9,90.2,1206.6,90.8,1207.4,90.8z"/>
	<path class="st0" d="M1209,111c0.8-0.1,1.3-0.7,1.3-1.4c-0.1-1.1-0.3-2.2-0.4-3.3c-0.1-0.5-0.6-1-1.1-1.1c-0.2,0-0.4-0.1-0.5-0.1
		c-0.8,0.1-1.3,0.7-1.3,1.4c0.1,1.1,0.3,2.3,0.4,3.4C1207.5,110.6,1208.2,111.1,1209,111z"/>
	<path class="st0" d="M1214.4,50.9c0.8,0.2,1.6-0.1,1.9-0.8c0.4-1.1,0.9-2.1,1.3-3.2c0.3-0.6-0.1-1.3-0.9-1.6c-0.1,0-0.1,0-0.2,0
		c-0.7-0.2-1.5,0.2-1.7,0.8c-0.5,1-0.9,2.2-1.3,3.3C1213.3,49.9,1213.7,50.6,1214.4,50.9z"/>
	<path class="st0" d="M1217.2,44.4c0.8,0.3,1.6,0,1.9-0.6c0.4-1.1,1-2,1.5-3.1c0.3-0.6,0-1.4-0.7-1.7c-0.1,0-0.2,0-0.3-0.1
		c-0.7-0.2-1.5,0.2-1.5,0.7c-0.6,1-1.1,2.1-1.6,3.1C1216.1,43.4,1216.4,44.1,1217.2,44.4z"/>
	<path class="st0" d="M1207.7,84.1c0.8,0,1.5-0.5,1.5-1.2c0.1-1.1,0.1-2.2,0.2-3.3c0-0.7-0.4-1.2-1.1-1.3c-0.1,0-0.2,0-0.2,0
		c-0.8-0.1-1.5,0.4-1.6,1.1c-0.1,1.1-0.2,2.3-0.3,3.4C1206.3,83.4,1206.9,84,1207.7,84.1z"/>
	<path class="st0" d="M1212.2,57.4c0.8,0.2,1.6-0.2,1.8-0.9c0.3-1.1,0.6-2.2,1.1-3.2c0.2-0.7-0.2-1.5-1-1.6
		c-0.7-0.2-1.5,0.2-1.8,0.9c-0.3,1.1-0.8,2.2-1.1,3.3C1210.9,56.5,1211.4,57.2,1212.2,57.4z"/>
	<path class="st0" d="M1208.2,77.3c0.7,0.1,1.5-0.4,1.6-1.1c0.1-1,0.3-2.2,0.4-3.3c0.1-0.6-0.4-1.2-1.1-1.4l-0.1,0
		c-0.8-0.1-1.5,0.4-1.7,1.1c-0.1,1.1-0.3,2.3-0.4,3.4C1206.8,76.6,1207.4,77.2,1208.2,77.3z"/>
	<path class="st0" d="M1209.1,70.6c0.7,0.1,1.5-0.3,1.6-1c0.2-1.1,0.5-2.2,0.7-3.3c0.1-0.7-0.4-1.3-1.1-1.5c0,0,0,0,0,0.1
		c-0.8-0.1-1.6,0.3-1.7,1c-0.2,1.1-0.5,2.2-0.7,3.3C1207.8,69.8,1208.2,70.5,1209.1,70.6z"/>
	<path class="st0" d="M1210.5,63.9c0.8,0.2,1.5-0.2,1.7-0.9c0.3-1.1,0.6-2.2,0.9-3.3c0.2-0.7-0.3-1.4-1.1-1.6
		c-0.8-0.2-1.6,0.3-1.7,0.9c-0.3,1.1-0.7,2.3-0.9,3.4C1209.2,63.1,1209.7,63.7,1210.5,63.9z"/>
	<path class="st0" d="M1215.4,137.6c0.8-0.2,1.2-0.9,1-1.6c-0.3-1.1-0.7-2.1-1-3.2c-0.2-0.4-0.5-0.8-1.1-0.9c-0.3-0.1-0.5,0-0.7-0.1
		c-0.8,0.2-1.2,0.9-1,1.6c0.3,1.2,0.7,2.2,1,3.3C1213.8,137.4,1214.6,137.7,1215.4,137.6z"/>
	<path class="st0" d="M1309,227.4c-1.2-0.4-2.4-0.7-3.7-1.1l-0.1,0c-0.7-0.2-1.5,0.2-1.7,0.9c-0.3,0.7,0.1,1.3,0.9,1.6
		c1.2,0.4,2.4,0.7,3.7,1.1c0.8,0.2,1.6-0.1,1.9-0.8C1310.1,228.4,1309.8,227.7,1309,227.4z"/>
	<path class="st0" d="M1218.6,142.4c-0.4-1-0.8-2.1-1.2-3.2c-0.2-0.4-0.6-0.7-1-0.8c-0.3-0.1-0.5-0.1-0.9-0.1c-0.7,0.2-1.2,1-1,1.6
		c0.4,1.1,0.8,2.2,1.2,3.3c0.3,0.7,1.1,1.1,1.8,0.8C1218.5,143.7,1218.9,143,1218.6,142.4z"/>
	<path class="st0" d="M1252,194.8c-0.8-0.8-1.7-1.7-2.5-2.5c-0.1-0.2-0.5-0.4-0.7-0.4c-0.4-0.1-0.9,0.1-1.3,0.2
		c-0.7,0.4-0.7,1.2-0.2,1.8c0.9,0.9,1.7,1.8,2.5,2.6c0.5,0.5,1.4,0.6,2.1,0.1C1252.5,196.1,1252.5,195.3,1252,194.8z"/>
	<path class="st0" d="M1242.7,184.3c-0.8-0.8-1.5-1.8-2.2-2.7c-0.2-0.3-0.5-0.5-0.9-0.5c-0.4-0.1-0.8,0-1,0.2
		c-0.7,0.3-0.9,1.1-0.4,1.7c0.8,1,1.4,1.9,2.2,2.8c0.4,0.5,1.3,0.7,2,0.3C1243,185.6,1243.2,184.9,1242.7,184.3z"/>
	<path class="st0" d="M1247.2,189.7c-0.8-0.9-1.6-1.8-2.3-2.7c-0.2-0.3-0.5-0.5-0.8-0.5c-0.4-0.1-0.9,0-1.1,0.3
		c-0.7,0.4-0.8,1.2-0.3,1.7c0.8,0.8,1.6,1.8,2.3,2.7c0.5,0.5,1.4,0.7,2,0.2C1247.6,191.1,1247.8,190.3,1247.2,189.7z"/>
	<path class="st0" d="M1257.3,199.8c-0.8-0.8-1.7-1.5-2.6-2.4c-0.2-0.2-0.5-0.4-0.7-0.4c-0.4-0.1-1,0-1.4,0.3
		c-0.5,0.5-0.6,1.3-0.1,1.8c0.9,0.9,1.8,1.7,2.7,2.5c0.6,0.5,1.5,0.5,2.1,0.1C1257.9,201.1,1257.8,200.3,1257.3,199.8z"/>
	<path class="st0" d="M1274.6,213c-1-0.6-2.1-1.4-3.1-2c-0.2-0.1-0.3-0.2-0.5-0.2c-0.5-0.1-1.2,0.1-1.5,0.4
		c-0.5,0.5-0.4,1.4,0.2,1.8c1.1,0.7,2.2,1.4,3.2,2c0.6,0.4,1.5,0.3,2-0.3C1275.4,214.1,1275.2,213.4,1274.6,213z"/>
	<path class="st0" d="M1265.6,206.8c-0.2-0.1-0.4-0.3-0.6-0.3c-0.5-0.1-1.1,0-1.4,0.4c-0.5,0.5-0.5,1.3,0.1,1.8
		c0.9,0.8,1.9,1.5,2.9,2.2c0.6,0.4,1.5,0.3,2.1-0.2c0.5-0.6,0.4-1.3-0.2-1.8C1267.5,208.2,1266.5,207.5,1265.6,206.8z"/>
	<path class="st0" d="M1259.9,202.2c-0.2-0.1-0.4-0.3-0.7-0.3c-0.4-0.1-1,0-1.4,0.2c-0.5,0.5-0.6,1.4,0,1.8c0.9,0.8,1.9,1.6,2.8,2.4
		c0.5,0.5,1.5,0.5,2,0c0.6-0.4,0.6-1.3-0.1-1.8C1261.7,203.8,1260.8,203,1259.9,202.2z"/>
	<path class="st0" d="M1234.4,172.9c-0.7-1-1.2-1.9-1.9-2.9c-0.3-0.3-0.6-0.5-1-0.6c-0.3-0.1-0.7,0-0.9,0.1c-0.8,0.3-1,1.1-0.6,1.7
		c0.5,1,1.2,2,1.9,3c0.4,0.6,1.3,0.8,2,0.4C1234.5,174.3,1234.8,173.5,1234.4,172.9z"/>
	<path class="st0" d="M1238.3,178.7c-0.7-1-1.3-1.9-2-2.9c-0.2-0.3-0.5-0.5-0.9-0.5c-0.4-0.1-0.8-0.1-1.1,0.2
		c-0.7,0.3-0.9,1.1-0.5,1.7c0.7,0.9,1.4,1.9,2.1,2.9c0.4,0.6,1.3,0.7,2,0.4C1238.6,180.1,1238.7,179.3,1238.3,178.7z"/>
	<path class="st0" d="M1227.1,161c-0.6-1-1-2-1.6-3c-0.2-0.4-0.5-0.6-0.9-0.7c-0.3-0.1-0.6-0.1-1,0c-0.7,0.2-1.1,1-0.8,1.6
		c0.5,1,1.1,2.1,1.6,3.1c0.3,0.6,1.2,0.9,1.9,0.6C1227.2,162.4,1227.5,161.7,1227.1,161z"/>
	<path class="st0" d="M1224.1,154.9c-0.5-1-1-2.1-1.5-3.1c-0.2-0.4-0.6-0.6-1-0.7c-0.3-0.1-0.6,0-0.8,0c-0.7,0.2-1.1,1-0.8,1.6
		c0.5,1,0.9,2.1,1.4,3.1c0.3,0.6,1.2,0.9,1.9,0.7C1224.1,156.3,1224.4,155.5,1224.1,154.9z"/>
	<path class="st0" d="M1230.7,167c-0.7-1-1.2-2-1.8-3c-0.2-0.3-0.6-0.5-1-0.6c-0.4-0.1-0.6-0.1-0.9,0.1c-0.7,0.2-1.1,1-0.7,1.7
		c0.5,1,1.2,2.1,1.8,3c0.4,0.6,1.3,0.9,1.9,0.5S1231.1,167.6,1230.7,167z"/>
	<path class="st0" d="M1281,216.7c-1.2-0.6-2.2-1.2-3.3-1.8c-0.2-0.1-0.2-0.1-0.4-0.2c-0.6-0.1-1.3,0-1.7,0.5
		c-0.5,0.6-0.2,1.4,0.4,1.8c1.2,0.6,2.3,1.3,3.4,1.8c0.7,0.4,1.6,0.2,2-0.4C1281.9,217.8,1281.6,217.1,1281,216.7z"/>
	<path class="st0" d="M1221.3,148.7c-0.5-1-0.9-2-1.4-3.1c-0.2-0.4-0.6-0.7-1-0.8c-0.3-0.1-0.6-0.1-0.8,0c-0.7,0.2-1.1,1-0.9,1.6
		c0.4,1.1,0.9,2.1,1.3,3.2c0.3,0.6,1.1,1,1.9,0.8C1221.2,150.1,1221.6,149.3,1221.3,148.7z"/>
	<path class="st0" d="M1316.4,229.5c-1.2-0.3-2.5-0.6-3.8-1c-0.7-0.2-1.5,0.2-1.8,0.8c-0.2,0.7,0.2,1.4,0.9,1.6
		c1.2,0.4,2.5,0.6,3.7,1c0.8,0.2,1.7-0.1,1.9-0.8C1317.5,230.4,1317.2,229.7,1316.4,229.5z"/>
	<path class="st0" d="M1287.5,220c-1.1-0.5-2.3-1-3.3-1.6c-0.1-0.1-0.2-0.1-0.3-0.2c-0.6-0.1-1.3,0-1.6,0.7
		c-0.4,0.6-0.1,1.4,0.5,1.7c1.1,0.5,2.2,1.1,3.4,1.6c0.8,0.3,1.6,0.1,2-0.6C1288.5,221.1,1288.3,220.4,1287.5,220z"/>
	<path class="st0" d="M1320,230.5C1320,230.5,1320,230.5,1320,230.5L1320,230.5z"/>
	<path class="st0" d="M1294.6,222.8c-1.2-0.4-2.3-0.9-3.5-1.4c-0.1,0-0.2,0-0.3-0.1c-0.7-0.2-1.5,0.2-1.7,0.7
		c-0.3,0.6,0,1.3,0.7,1.7c1.2,0.5,2.4,1,3.6,1.4c0.8,0.3,1.6,0,1.9-0.6C1295.7,223.8,1295.4,223,1294.6,222.8z"/>
	<path class="st0" d="M1301.8,225.1c-1.2-0.4-2.4-0.7-3.7-1.2c-0.1,0-0.1,0-0.2,0c-0.7-0.2-1.5,0.2-1.7,0.8
		c-0.3,0.6,0.1,1.3,0.9,1.6c1.2,0.4,2.4,0.8,3.7,1.2c0.7,0.2,1.5-0.1,1.8-0.7C1302.9,226.1,1302.6,225.4,1301.8,225.1z"/>
	<path class="st0" d="M1312.6,228.5C1312.6,228.5,1312.6,228.5,1312.6,228.5C1312.6,228.5,1312.6,228.5,1312.6,228.5z"/>
	<path class="st0" d="M1312.6,228.5C1312.6,228.5,1312.6,228.5,1312.6,228.5L1312.6,228.5z"/>
</g>
<rect x="913.1" y="-96.9" class="st1" width="59.3" height="13"/>
<text transform="matrix(1 0 0 1 913.0991 -85.748)" style="fill:#A3CDD7; font-family:'Montserrat-SemiBold'; font-size:15px;">Accueil</text>
<circle class="st0" cx="994.3" cy="-91" r="12.6"/>
<rect x="913" y="-104" class="st1" width="94" height="26"/>
<path class="st2" d="M2723.4,971.4C2723.4,971.4,2723.4,971.4,2723.4,971.4l0,0.3L2723.4,971.4z"/>
<path class="st2" d="M2864.8,912.6C2864.8,912.6,2864.8,912.6,2864.8,912.6L2864.8,912.6L2864.8,912.6z"/>
<path class="st2" d="M2872.1,944.8C2872.1,944.9,2872.1,944.9,2872.1,944.8L2872.1,944.8L2872.1,944.8
	C2872.1,944.9,2872.1,944.9,2872.1,944.8L2872.1,944.8L2872.1,944.8z"/>
<rect x="3147.4" y="58" class="st1" width="59.3" height="13"/>
<text transform="matrix(1 0 0 1 3147.4084 69.1687)" style="fill:#A3CDD7; font-family:'Montserrat-SemiBold'; font-size:15px;">Accueil</text>
<g>
	<path class="st0" d="M3389.5-287.2c0.5,0.1,0.8,0.4,1,0.9l1.3,2.8c0.4,0.8,0.1,1.8-0.7,2.1c-0.8,0.4-1.8,0.1-2.1-0.7l-1.3-2.8
		c-0.4-0.8-0.1-1.8,0.7-2.1C3388.7-287.3,3389.1-287.3,3389.5-287.2z M3392.6-280.6c0.5,0.1,0.8,0.4,1,0.9c0.6,1.3,1.2,2.6,1.8,3.9
		c0.4,0.8,0.1,1.8-0.7,2.1c-0.8,0.4-1.8,0.1-2.1-0.7c-0.6-1.3-1.2-2.6-1.8-3.9c-0.4-0.8-0.1-1.8,0.7-2.1
		C3391.9-280.7,3392.3-280.7,3392.6-280.6z M3396-272.9c0.5,0.1,0.8,0.4,1,0.9c0.6,1.3,1.2,2.6,1.8,3.9c0.3,0.8,0,1.7-0.7,2.1
		c-0.8,0.3-1.7,0-2.1-0.7c-0.6-1.3-1.2-2.6-1.7-3.8c-0.3-0.8,0-1.7,0.7-2.1C3395.3-273,3395.8-273,3396-272.9z M3399.6-265.3
		c0.5,0.1,0.8,0.4,1,0.9c0.6,1.3,1.1,2.6,1.7,3.8c0.3,0.8,0,1.7-0.8,2.1c-0.8,0.3-1.7,0-2.1-0.8c-0.6-1.3-1.1-2.6-1.7-3.8
		c-0.3-0.8,0-1.7,0.8-2.1C3398.8-265.3,3399.3-265.4,3399.6-265.3z M3402.9-257.5c0.5,0.1,0.8,0.4,1.1,0.9c0.6,1.3,1.1,2.6,1.7,3.9
		c0.3,0.8,0,1.7-0.8,2.1c-0.8,0.3-1.7,0-2.1-0.8c-0.6-1.3-1.1-2.6-1.7-3.8c-0.3-0.8,0-1.7,0.8-2.1
		C3402.3-257.5,3402.6-257.6,3402.9-257.5z M3406.2-249.7c0.5,0.1,0.9,0.4,1.1,0.9c0.5,1.3,1.1,2.7,1.6,3.9c0.3,0.8,0,1.7-0.8,2.1
		c-0.8,0.3-1.7,0-2.1-0.8c-0.5-1.3-1.1-2.7-1.6-3.9c-0.3-0.8,0-1.7,0.8-2.1C3405.6-249.8,3405.9-249.8,3406.2-249.7z M3409.4-241.9
		c0.5,0.1,0.9,0.4,1.1,1c0.5,1.3,1.1,2.7,1.6,3.9c0.3,0.8-0.1,1.7-0.9,2c-0.8,0.3-1.7-0.1-2-0.9c-0.5-1.3-1-2.6-1.6-3.9
		c-0.3-0.8,0-1.7,0.8-2.1C3408.7-241.9,3409-242,3409.4-241.9z M3412.5-234.1c0.5,0.1,0.9,0.4,1.1,1c0.5,1.4,1,2.6,1.4,4
		c0.3,0.8-0.1,1.7-0.9,2c-0.8,0.3-1.7-0.1-2-0.9c-0.5-1.4-1-2.6-1.4-4c-0.3-0.8,0.1-1.7,0.9-2
		C3411.8-234.1,3412.2-234.1,3412.5-234.1z M3415.4-226.1c0.5,0.1,0.9,0.4,1.1,1c0.5,1.4,1,2.6,1.4,4c0.3,0.8-0.1,1.7-0.9,2
		c-0.8,0.3-1.7-0.1-2-0.9c-0.5-1.4-1-2.6-1.4-4c-0.3-0.8,0.1-1.7,0.9-2C3414.7-226.2,3415.1-226.2,3415.4-226.1z M3418.1-218.2
		c0.5,0.1,0.9,0.5,1.1,1c0.5,1.4,0.9,2.7,1.3,4.1c0.3,0.8-0.2,1.7-1,2c-0.8,0.3-1.7-0.2-2-1c-0.4-1.3-0.9-2.7-1.4-4
		c-0.3-0.8,0.1-1.7,1-2C3417.5-218.2,3417.8-218.2,3418.1-218.2z M3420.6-210.1c0.5,0.1,1,0.6,1.1,1.1c0.4,1.3,0.9,2.7,1.2,4
		c0.2,0.8-0.2,1.7-1,2c-0.9,0.2-1.7-0.2-2-1c-0.4-1.3-0.8-2.7-1.2-4c-0.3-0.8,0.2-1.7,1-2C3420-210.1,3420.3-210.1,3420.6-210.1z
		 M3423-202c0.5,0.1,1,0.6,1.2,1.1c0.4,1.3,0.8,2.7,1.1,4.1c0.2,0.9-0.2,1.7-1.1,2c-0.9,0.2-1.7-0.2-2-1.1c-0.4-1.3-0.8-2.7-1.1-4
		c-0.2-0.9,0.2-1.7,1.1-2C3422.5-202,3422.8-202.1,3423-202z M3425.2-193.8c0.6,0.1,1,0.6,1.2,1.1c0.4,1.3,0.6,2.7,1,4.1
		c0.2,0.9-0.3,1.7-1.2,1.9c-0.9,0.2-1.7-0.3-1.9-1.2c-0.4-1.3-0.6-2.7-1-4.1c-0.2-0.9,0.3-1.7,1.1-1.9
		C3424.7-193.9,3424.9-193.9,3425.2-193.8z M3427.1-185.6c0.6,0.2,1,0.6,1.1,1.2c0.3,1.4,0.6,2.7,0.9,4.2c0.2,0.9-0.3,1.7-1.2,1.9
		c-0.9,0.2-1.7-0.3-1.9-1.2c-0.3-1.4-0.5-2.7-0.9-4.2c-0.2-0.9,0.3-1.7,1.2-1.9C3426.6-185.7,3426.9-185.6,3427.1-185.6z
		 M3428.8-177.4c0.6,0.1,1.1,0.6,1.1,1.2c0.3,1.4,0.5,2.8,0.8,4.2c0.2,0.9-0.4,1.6-1.3,1.8c-0.9,0.2-1.6-0.4-1.8-1.3
		c-0.3-1.4-0.5-2.7-0.8-4.1c-0.2-0.9,0.4-1.6,1.3-1.8C3428.4-177.4,3428.6-177.4,3428.8-177.4z M3430.3-169c0.6,0.2,1.1,0.7,1.2,1.3
		c0.3,1.4,0.4,2.8,0.7,4.2c0.1,0.8-0.5,1.6-1.4,1.8c-0.8,0.1-1.6-0.5-1.8-1.4c-0.2-1.4-0.4-2.8-0.6-4.2c-0.1-0.8,0.4-1.6,1.3-1.8
		C3429.9-169,3430.1-169.1,3430.3-169z M3431.4-160.7c0.6,0.1,1.1,0.7,1.2,1.3c0.2,1.4,0.3,2.8,0.5,4.2c0.1,0.8-0.5,1.6-1.4,1.7
		s-1.6-0.5-1.7-1.4c-0.2-1.4-0.3-2.8-0.5-4.2c-0.1-0.8,0.5-1.6,1.4-1.7C3431.1-160.7,3431.3-160.7,3431.4-160.7z M3432.3-152.2
		c0.7,0.2,1.2,0.7,1.2,1.4c0.2,1.4,0.2,2.8,0.4,4.2c0.1,0.8-0.6,1.6-1.5,1.7s-1.6-0.6-1.7-1.5c-0.1-1.4-0.2-2.7-0.3-4.2
		c-0.1-0.8,0.5-1.6,1.5-1.7C3431.9-152.3,3432.1-152.2,3432.3-152.2z M3432.8-143.8c0.7,0.2,1.2,0.7,1.2,1.4c0,1.5,0.1,2.8,0.1,4.3
		c0,0.8-0.7,1.6-1.5,1.6c-0.8,0-1.6-0.7-1.6-1.5c-0.1-1.4-0.1-2.8-0.2-4.2c-0.1-0.8,0.6-1.6,1.6-1.7
		C3432.5-143.9,3432.6-143.8,3432.8-143.8z M3433-135.4c0.7,0.2,1.1,0.8,1.2,1.5c0,1.5,0,2.9-0.1,4.2c0,0.9-0.7,1.6-1.6,1.5
		s-1.6-0.7-1.5-1.6c0-1.3,0.1-2.8,0.1-4.2c0-0.8,0.7-1.6,1.5-1.6C3432.8-135.5,3432.8-135.4,3433-135.4z M3432.8-127
		c0.7,0.2,1.2,0.8,1.1,1.6c-0.1,1.4-0.1,2.9-0.3,4.3c0,0.9-0.8,1.5-1.7,1.4c-0.9-0.1-1.5-0.8-1.4-1.7c0.2-1.4,0.2-2.7,0.3-4.2
		c0-0.9,0.8-1.5,1.6-1.5C3432.6-127,3432.7-127,3432.8-127z M3432.2-118.6c0.8,0.2,1.2,0.9,1.2,1.7c-0.2,1.4-0.3,2.8-0.5,4.2
		c-0.1,0.9-0.9,1.5-1.8,1.4c-0.9-0.1-1.5-0.9-1.4-1.8c0.2-1.4,0.3-2.8,0.4-4.1c0.1-0.9,0.9-1.5,1.7-1.4
		C3432-118.6,3432.1-118.6,3432.2-118.6z M3431.2-110.1c0.8,0.2,1.3,1,1.2,1.8c-0.3,1.4-0.4,2.8-0.7,4.2c-0.1,0.9-1,1.4-1.9,1.3
		c-0.9-0.1-1.4-1-1.3-1.9c0.3-1.4,0.5-2.8,0.7-4.2c0.1-0.9,0.9-1.4,1.8-1.3C3431.1-110.2,3431.1-110.2,3431.2-110.1z M3429.7-101.9
		c0.8,0.2,1.3,1.1,1.2,1.9c-0.3,1.4-0.6,2.8-1,4.2c-0.2,0.9-1.1,1.4-1.9,1.2c-0.9-0.2-1.4-1.1-1.2-1.9c0.4-1.4,0.6-2.7,1-4.1
		C3427.9-101.5,3428.8-102,3429.7-101.9L3429.7-101.9z M3427.7-93.6L3427.7-93.6c0.9,0.2,1.4,1.1,1.1,1.9c-0.4,1.4-0.7,2.8-1.2,4.1
		c-0.2,0.9-1.1,1.3-1.9,1.1c-0.9-0.2-1.3-1.2-1.1-1.9c0.4-1.3,0.8-2.7,1.1-4C3426-93.3,3426.9-93.8,3427.7-93.6z M3425.3-85.5
		L3425.3-85.5c0.9,0.3,1.3,1.2,1.1,2c-0.4,1.3-0.9,2.8-1.4,4.1c-0.3,0.8-1.2,1.2-2,0.9c-0.8-0.3-1.2-1.2-0.9-2
		c0.4-1.3,0.9-2.7,1.3-4C3423.7-85.3,3424.6-85.7,3425.3-85.5z M3422.5-77.6c0.1,0,0.1,0,0.2,0c0.8,0.3,1.2,1.2,0.9,2.1
		c-0.5,1.3-1.1,2.6-1.6,3.9c-0.3,0.8-1.2,1.1-2.1,0.8s-1.2-1.2-0.8-2.1c0.5-1.3,1.1-2.6,1.6-3.8
		C3420.9-77.4,3421.7-77.8,3422.5-77.6z M3419-69.9c0.1,0,0.2,0,0.3,0.1c0.8,0.4,1.1,1.3,0.8,2.1c-0.6,1.3-1.3,2.6-1.9,3.8
		c-0.4,0.8-1.3,1.1-2.1,0.7c-0.8-0.4-1.1-1.3-0.7-2.1c0.6-1.3,1.3-2.5,1.8-3.8C3417.5-69.7,3418.3-70.1,3419-69.9z M3415.2-62.3
		c0.1,0,0.3,0.1,0.4,0.1c0.7,0.4,1.1,1.4,0.6,2.1c-0.6,1.3-1.4,2.5-2.1,3.7c-0.4,0.7-1.4,1-2.2,0.6c-0.7-0.4-1-1.4-0.6-2.2
		c0.7-1.2,1.4-2.4,2.1-3.6C3413.9-62.3,3414.5-62.5,3415.2-62.3z M3411-55.1c0.2,0,0.3,0.1,0.5,0.2c0.7,0.5,1,1.5,0.5,2.2
		c-0.7,1.2-1.5,2.4-2.3,3.5c-0.5,0.7-1.5,1-2.2,0.5c-0.7-0.5-1-1.5-0.5-2.2c0.8-1.1,1.5-2.3,2.3-3.5
		C3409.6-55,3410.4-55.2,3411-55.1z M3406.3-48.1c0.2,0,0.4,0.1,0.6,0.2c0.7,0.5,0.9,1.5,0.4,2.2c-0.8,1.1-1.6,2.3-2.5,3.5
		c-0.5,0.7-1.6,0.8-2.3,0.3c-0.7-0.5-0.8-1.6-0.3-2.3c0.8-1.1,1.7-2.2,2.4-3.4C3405-48,3405.7-48.3,3406.3-48.1z M3401.2-41.4
		c0.2,0,0.4,0.1,0.6,0.2c0.7,0.6,0.8,1.6,0.2,2.2c-0.9,1.1-1.8,2.2-2.7,3.3c-0.6,0.7-1.5,0.7-2.2,0.2c-0.7-0.6-0.7-1.5-0.2-2.2
		c0.9-1.1,1.8-2.1,2.7-3.2C3400-41.3,3400.6-41.5,3401.2-41.4z M3395.7-34.9c0.2,0,0.5,0.2,0.6,0.4c0.7,0.6,0.7,1.6,0.2,2.2
		c-0.9,1-1.9,2.1-2.9,3.2c-0.6,0.7-1.6,0.6-2.2,0.1c-0.7-0.6-0.6-1.6-0.1-2.2c1-1,1.9-2.1,2.9-3.1
		C3394.6-34.9,3395.3-35,3395.7-34.9z M3390-28.8c0.3,0.1,0.5,0.2,0.7,0.4c0.7,0.6,0.6,1.6,0,2.3c-1,1-2,2-3,2.9
		c-0.7,0.6-1.6,0.6-2.3-0.1c-0.6-0.7-0.6-1.6,0.1-2.3c1-1,2.1-1.9,3-2.9C3388.9-28.7,3389.4-28.9,3390-28.8z M3383.9-22.9
		c0.3,0.1,0.6,0.2,0.8,0.5c0.6,0.7,0.5,1.7-0.1,2.3c-1.1,1-2.1,1.9-3.2,2.8c-0.7,0.6-1.7,0.5-2.2-0.2c-0.6-0.7-0.5-1.7,0.2-2.2
		c1-0.9,2.1-1.8,3.1-2.8C3382.8-23,3383.4-23,3383.9-22.9z M3377.5-17.4c0.3,0.1,0.6,0.2,0.8,0.5c0.6,0.7,0.5,1.7-0.2,2.2
		c-1,0.9-2.2,1.8-3.3,2.7c-0.7,0.6-1.7,0.4-2.2-0.3c-0.6-0.7-0.4-1.7,0.3-2.2c1-0.9,2.2-1.7,3.3-2.7
		C3376.6-17.5,3377.1-17.5,3377.5-17.4z M3371-12.2c0.3,0.1,0.7,0.3,0.9,0.5c0.6,0.7,0.4,1.7-0.3,2.2c-1.1,0.8-2.3,1.7-3.4,2.5
		c-0.8,0.5-1.7,0.4-2.2-0.4c-0.5-0.8-0.4-1.7,0.4-2.2c1.1-0.8,2.3-1.7,3.3-2.5C3370-12.2,3370.5-12.3,3371-12.2z M3364.1-7.2
		c0.4,0.1,0.7,0.3,0.9,0.6c0.5,0.8,0.3,1.7-0.4,2.2c-1.1,0.8-2.3,1.6-3.5,2.4c-0.8,0.5-1.7,0.3-2.2-0.5c-0.5-0.8-0.3-1.7,0.5-2.2
		c1.1-0.7,2.4-1.6,3.5-2.3C3363.2-7.3,3363.7-7.3,3364.1-7.2z M3357.1-2.5c0.4,0.1,0.7,0.3,1,0.7c0.4,0.7,0.3,1.7-0.5,2.2
		c-1.2,0.7-2.4,1.6-3.6,2.3c-0.7,0.4-1.7,0.2-2.1-0.6s-0.2-1.7,0.6-2.1c1.2-0.7,2.3-1.5,3.6-2.2C3356.2-2.6,3356.7-2.6,3357.1-2.5z
		 M3349.9,1.9c0.4,0.1,0.7,0.4,0.9,0.8c0.4,0.7,0.2,1.7-0.6,2.1c-1.2,0.7-2.4,1.4-3.7,2.2c-0.7,0.4-1.7,0.2-2.1-0.6
		s-0.2-1.7,0.6-2.1c1.2-0.7,2.4-1.4,3.6-2.1C3349.1,1.9,3349.5,1.8,3349.9,1.9z M3342.6,6.1c0.4,0.1,0.7,0.4,1,0.8
		c0.4,0.7,0.2,1.7-0.6,2.1c-1.2,0.7-2.5,1.3-3.7,2c-0.7,0.4-1.7,0.1-2.1-0.6s-0.1-1.7,0.6-2.1c1.2-0.6,2.5-1.3,3.7-1.9
		C3341.8,6,3342.2,6,3342.6,6.1z M3335.1,10c0.4,0.1,0.8,0.4,1,0.8c0.4,0.8,0.1,1.8-0.6,2.1c-1.3,0.6-2.5,1.3-3.8,1.9
		c-0.8,0.4-1.8,0.1-2.1-0.7c-0.4-0.8-0.1-1.8,0.7-2.1c1.3-0.6,2.5-1.2,3.8-1.9C3334.4,10,3334.8,10,3335.1,10z M3327.5,13.7
		c0.5,0.1,0.8,0.4,1,0.9c0.4,0.8,0.1,1.8-0.7,2.1c-1.3,0.6-2.6,1.2-3.9,1.8c-0.8,0.3-1.7,0-2.1-0.7c-0.3-0.8,0-1.7,0.7-2.1
		c1.3-0.6,2.6-1.2,3.8-1.8C3326.8,13.7,3327.2,13.6,3327.5,13.7z M3319.9,17.3c0.5,0.1,0.8,0.4,1,0.9c0.4,0.8,0.1,1.8-0.7,2.1
		c-1.3,0.6-2.5,1.2-3.7,1.8c-0.8,0.4-1.8,0.1-2.1-0.6c-0.4-0.8-0.1-1.8,0.6-2.1c1.2-0.6,2.5-1.3,3.8-1.9
		C3319.2,17.2,3319.5,17.2,3319.9,17.3z M3312.4,21.1c0.4,0.1,0.7,0.4,0.9,0.8c0.4,0.7,0.2,1.7-0.6,2.1c-1.2,0.7-2.4,1.3-3.6,2.1
		c-0.7,0.4-1.7,0.2-2.1-0.6c-0.4-0.7-0.2-1.7,0.6-2.1c1.2-0.7,2.4-1.4,3.7-2.2C3311.6,21,3312,21,3312.4,21.1z M3305.2,25.5
		c0.4,0.1,0.7,0.3,1,0.7c0.4,0.7,0.3,1.7-0.5,2.2c-1.1,0.7-2.4,1.6-3.5,2.3c-0.8,0.5-1.7,0.3-2.2-0.4c-0.5-0.8-0.3-1.7,0.4-2.2
		c1.1-0.8,2.4-1.7,3.5-2.4C3304.3,25.4,3304.8,25.4,3305.2,25.5z M3298.3,30.3c0.3,0.1,0.7,0.3,0.9,0.5c0.6,0.7,0.4,1.7-0.3,2.2
		c-1.1,0.8-2.2,1.7-3.2,2.6c-0.7,0.6-1.7,0.5-2.2-0.3c-0.6-0.7-0.5-1.7,0.3-2.2c1-0.9,2.2-1.8,3.4-2.6
		C3297.3,30.3,3297.9,30.2,3298.3,30.3z M3291.8,35.6c0.3,0.1,0.6,0.2,0.8,0.5c0.6,0.7,0.5,1.7-0.2,2.2c-1,0.9-2,1.9-3.1,2.8
		c-0.7,0.6-1.6,0.6-2.3-0.1c-0.6-0.7-0.6-1.6,0.1-2.3c1.1-1,2.1-1.9,3.1-2.9C3290.8,35.7,3291.3,35.5,3291.8,35.6z M3285.6,41.5
		c0.3,0.1,0.5,0.2,0.7,0.4c0.7,0.6,0.6,1.6,0,2.3c-1,1-2,2-2.8,3c-0.6,0.7-1.6,0.7-2.2,0.2c-0.7-0.6-0.7-1.6-0.2-2.2
		c1-1.1,2-2.1,3-3.1C3284.5,41.5,3285.1,41.3,3285.6,41.5z M3279.9,47.6c0.2,0,0.5,0.2,0.6,0.4c0.7,0.6,0.7,1.5,0.2,2.2
		c-0.9,1-1.8,2.1-2.6,3.3c-0.6,0.7-1.6,0.8-2.2,0.2c-0.7-0.6-0.8-1.6-0.2-2.2c0.9-1.1,1.8-2.2,2.7-3.3
		C3278.8,47.7,3279.3,47.5,3279.9,47.6z M3274.7,54.3c0.2,0,0.4,0.1,0.6,0.2c0.7,0.5,0.9,1.5,0.3,2.3c-0.8,1.1-1.6,2.3-2.4,3.4
		c-0.5,0.7-1.5,1-2.2,0.5c-0.7-0.5-1-1.5-0.5-2.2c0.8-1.1,1.6-2.4,2.5-3.5C3273.4,54.3,3274.1,54.1,3274.7,54.3z M3270,61.2
		c0.2,0,0.3,0.1,0.5,0.2c0.7,0.5,1,1.5,0.5,2.2c-0.7,1.2-1.4,2.4-2.2,3.6c-0.4,0.7-1.4,1-2.2,0.6c-0.7-0.4-1-1.4-0.6-2.2
		c0.7-1.3,1.4-2.4,2.2-3.7C3268.6,61.4,3269.3,61,3270,61.2z M3265.7,68.6c0.1,0,0.2,0,0.4,0.1c0.7,0.4,1.1,1.4,0.7,2.1
		c-0.6,1.2-1.3,2.5-1.9,3.7c-0.4,0.8-1.3,1.1-2.1,0.7s-1.1-1.3-0.7-2.1c0.6-1.3,1.3-2.6,1.9-3.8
		C3264.3,68.6,3265.1,68.4,3265.7,68.6z M3262,76.1c0.1,0,0.2,0,0.3,0.1c0.8,0.3,1.1,1.3,0.8,2.1c-0.5,1.3-1.2,2.5-1.6,3.8
		c-0.3,0.8-1.2,1.2-2.1,0.8c-0.8-0.3-1.2-1.2-0.8-2.1c0.5-1.3,1.1-2.6,1.7-3.9C3260.4,76.3,3261.3,75.9,3262,76.1z M3258.8,83.9
		c0.1,0,0.1,0,0.2,0c0.8,0.3,1.2,1.2,0.9,2c-0.4,1.3-1,2.6-1.4,4c-0.3,0.8-1.1,1.3-2,1c-0.8-0.3-1.3-1.1-1-2
		c0.4-1.3,0.9-2.8,1.5-4.1C3257.2,84.1,3258,83.7,3258.8,83.9z M3256,91.9C3256.1,91.9,3256.1,91.9,3256,91.9c0.9,0.2,1.3,1.2,1.1,2
		c-0.4,1.3-0.8,2.7-1.1,4c-0.2,0.9-1.1,1.4-1.9,1.1c-0.9-0.2-1.4-1.1-1.1-1.9c0.4-1.4,0.8-2.8,1.2-4.1
		C3254.4,92.1,3255.2,91.7,3256,91.9z M3253.8,100c0.9,0.2,1.4,1.1,1.1,1.9c-0.4,1.4-0.6,2.7-1,4.1c-0.2,0.9-1,1.4-1.9,1.2
		c-0.9-0.2-1.4-1-1.2-1.9c0.3-1.4,0.6-2.8,1-4.2C3252.1,100.4,3252.9,99.8,3253.8,100L3253.8,100z M3252,108.3
		c0.8,0.2,1.3,1,1.2,1.9c-0.3,1.4-0.5,2.8-0.8,4.1c-0.1,0.9-1,1.4-1.8,1.3c-0.9-0.1-1.4-1-1.3-1.8c0.3-1.4,0.5-2.8,0.8-4.1
		C3250.2,108.8,3251.1,108.3,3252,108.3C3252,108.3,3252,108.3,3252,108.3z M3250.6,116.6c0.8,0.2,1.3,1,1.2,1.8
		c-0.2,1.4-0.3,2.8-0.4,4.1c-0.1,0.9-0.9,1.5-1.7,1.4c-0.9-0.1-1.5-0.9-1.4-1.7c0.2-1.4,0.3-2.8,0.5-4.2
		C3248.9,117.1,3249.7,116.5,3250.6,116.6L3250.6,116.6z M3249.8,125c0.8,0.2,1.2,0.8,1.2,1.7c-0.2,1.4-0.2,2.7-0.3,4.2
		c0,0.9-0.8,1.5-1.6,1.5c-0.9,0-1.5-0.8-1.5-1.6c0.1-1.4,0.2-2.8,0.3-4.3c0.1-0.9,0.8-1.5,1.7-1.4
		C3249.6,124.9,3249.7,125,3249.8,125z M3249.3,133.4c0.7,0.2,1.2,0.8,1.2,1.5c-0.1,1.4-0.1,2.8-0.1,4.2c0,0.8-0.7,1.6-1.6,1.5
		c-0.8,0-1.6-0.7-1.5-1.6c0.1-1.4,0-2.9,0.1-4.2c0-0.9,0.7-1.6,1.6-1.5C3249.1,133.4,3249.2,133.4,3249.3,133.4z M3249.2,141.9
		c0.7,0.2,1.1,0.8,1.2,1.5c0.1,1.4,0,2.8,0.1,4.1c0,0.8-0.6,1.6-1.6,1.7c-0.8,0-1.6-0.6-1.7-1.6c0-1.5-0.1-2.8-0.1-4.3
		c0-0.8,0.7-1.6,1.5-1.6C3248.9,141.8,3249.1,141.8,3249.2,141.9z M3249.5,150.3c0.7,0.2,1.2,0.7,1.2,1.4c0.1,1.4,0.2,2.8,0.3,4.2
		c0.1,0.8-0.6,1.6-1.5,1.7c-0.8,0.1-1.6-0.6-1.7-1.5c-0.2-1.4-0.2-2.8-0.2-4.3c-0.1-0.8,0.6-1.6,1.5-1.7
		C3249.2,150.2,3249.3,150.2,3249.5,150.3z M3250.2,158.7c0.6,0.1,1.1,0.7,1.2,1.3c0.2,1.4,0.3,2.8,0.5,4.2c0.1,0.8-0.5,1.6-1.4,1.7
		s-1.6-0.5-1.8-1.4c-0.2-1.4-0.3-2.9-0.5-4.2c-0.1-0.8,0.5-1.6,1.4-1.7C3249.8,158.6,3250,158.7,3250.2,158.7z M3251.1,167.1
		c0.6,0.1,1.1,0.7,1.2,1.3c0.2,1.4,0.4,2.8,0.7,4.2c0.2,0.9-0.4,1.6-1.3,1.8c-0.9,0.2-1.6-0.4-1.8-1.3c-0.3-1.4-0.4-2.8-0.7-4.2
		c-0.1-0.8,0.4-1.6,1.4-1.8C3250.7,167,3250.9,167.1,3251.1,167.1z M3252.6,175.5c0.6,0.2,1.1,0.6,1.1,1.2c0.3,1.4,0.5,2.7,0.8,4.1
		c0.2,0.9-0.3,1.7-1.2,1.9c-0.9,0.2-1.7-0.3-1.9-1.2c-0.3-1.4-0.5-2.8-0.8-4.1c-0.2-0.9,0.4-1.6,1.3-1.8
		C3252.1,175.4,3252.3,175.4,3252.6,175.5z M3605.9,273.4c0.3,0.1,0.6,0.2,0.7,0.4c0.7,0.6,0.6,1.6,0,2.3c0,0.1-1.1,1.2-3.2,2.9
		c-0.7,0.6-1.7,0.5-2.2-0.2c-0.6-0.7-0.5-1.7,0.2-2.2c2-1.8,3.1-2.8,3.1-2.8C3604.8,273.3,3605.3,273.3,3605.9,273.4z M3254.3,183.8
		c0.6,0.2,1,0.6,1.1,1.2c0.3,1.3,0.6,2.7,1,4.1c0.2,0.9-0.3,1.7-1.1,1.9c-0.9,0.2-1.7-0.3-1.9-1.1c-0.4-1.3-0.6-2.7-1-4.2
		c-0.2-0.9,0.3-1.7,1.2-1.9C3253.8,183.6,3254,183.7,3254.3,183.8z M3599.5,279c0.3,0.1,0.7,0.3,0.8,0.5c0.6,0.7,0.5,1.7-0.3,2.2
		c-1,0.9-2.2,1.8-3.4,2.6c-0.7,0.6-1.7,0.4-2.2-0.3c-0.6-0.7-0.4-1.7,0.3-2.2c1.1-0.8,2.2-1.7,3.2-2.6
		C3598.5,278.9,3599,278.9,3599.5,279z M3256.3,191.9c0.6,0.2,1,0.6,1.2,1.1c0.4,1.3,0.8,2.7,1.1,4c0.2,0.9-0.2,1.7-1.1,2
		c-0.9,0.2-1.7-0.2-2-1.1c-0.4-1.3-0.8-2.7-1.1-4.1c-0.2-0.9,0.2-1.7,1.1-2C3255.8,191.9,3256,191.8,3256.3,191.9z M3592.8,284.1
		c0.4,0.1,0.7,0.3,0.9,0.6c0.5,0.8,0.4,1.7-0.4,2.2c-1.1,0.8-2.3,1.7-3.4,2.5c-0.8,0.5-1.7,0.3-2.2-0.4c-0.5-0.8-0.3-1.7,0.4-2.2
		c1.1-0.8,2.3-1.7,3.4-2.4C3591.9,284.1,3592.4,284,3592.8,284.1z M3258.6,200.1c0.5,0.1,0.9,0.5,1.1,1c0.4,1.3,0.9,2.7,1.3,3.9
		c0.3,0.8-0.1,1.7-1,2c-0.8,0.3-1.7-0.1-2-1c-0.5-1.4-0.9-2.7-1.3-4.1c-0.3-0.8,0.2-1.7,1-2C3258.1,199.9,3258.3,200,3258.6,200.1z
		 M3585.9,289c0.4,0.1,0.7,0.3,1,0.7c0.5,0.8,0.3,1.7-0.5,2.2c-1.1,0.8-2.4,1.6-3.6,2.3c-0.7,0.4-1.7,0.3-2.2-0.5
		c-0.4-0.7-0.3-1.7,0.5-2.2c1.1-0.7,2.4-1.6,3.5-2.3C3585,288.9,3585.5,288.9,3585.9,289z M3261.3,208c0.5,0.1,0.9,0.4,1.1,1
		c0.5,1.4,1,2.6,1.5,3.9c0.3,0.8-0.1,1.7-0.9,2c-0.8,0.3-1.7-0.1-2-0.9c-0.5-1.4-1-2.6-1.4-4c-0.3-0.8,0.1-1.7,0.9-2
		C3260.6,207.9,3261.1,207.9,3261.3,208z M3578.8,293.5c0.4,0.1,0.7,0.3,1,0.7c0.4,0.7,0.2,1.7-0.6,2.1c-1.2,0.7-2.4,1.4-3.7,2.2
		c-0.7,0.4-1.7,0.2-2.1-0.6c-0.4-0.7-0.2-1.7,0.6-2.1c1.2-0.7,2.4-1.4,3.6-2.2C3577.9,293.5,3578.4,293.4,3578.8,293.5z
		 M3264.3,215.9c0.5,0.1,0.9,0.4,1.1,0.9c0.5,1.3,1.1,2.6,1.6,3.8c0.3,0.8,0,1.7-0.8,2.1c-0.8,0.3-1.7,0-2.1-0.8
		c-0.6-1.3-1.1-2.7-1.6-3.9c-0.3-0.8,0-1.7,0.8-2.1C3263.7,215.8,3264,215.8,3264.3,215.9z M3571.4,297.8c0.4,0.1,0.7,0.4,0.9,0.8
		c0.4,0.7,0.2,1.7-0.6,2.1c-1.2,0.7-2.4,1.3-3.7,2c-0.7,0.4-1.7,0.1-2.1-0.6s-0.1-1.7,0.6-2.1c1.2-0.7,2.5-1.3,3.7-2
		C3570.7,297.7,3571.2,297.7,3571.4,297.8z M3267.5,223.6c0.5,0.1,0.8,0.4,1,0.9c0.6,1.3,1.1,2.6,1.7,3.7c0.4,0.8,0.1,1.8-0.7,2.1
		c-0.8,0.4-1.8,0.1-2.1-0.7c-0.6-1.3-1.2-2.6-1.8-3.9c-0.3-0.8,0-1.7,0.8-2.1C3266.8,223.6,3267.2,223.6,3267.5,223.6z M3564,301.7
		c0.4,0.1,0.8,0.4,1,0.8c0.4,0.8,0.1,1.8-0.6,2.1c-1.2,0.6-2.5,1.3-3.8,1.9c-0.8,0.4-1.8,0.1-2.1-0.7c-0.4-0.8-0.1-1.8,0.7-2.1
		c1.3-0.6,2.5-1.2,3.8-1.8C3563.3,301.7,3563.7,301.7,3564,301.7z M3271.1,231.3c0.4,0.1,0.8,0.4,1,0.8c0.6,1.2,1.2,2.5,1.9,3.7
		c0.4,0.7,0.1,1.7-0.6,2.1s-1.7,0.1-2.1-0.6c-0.6-1.2-1.3-2.5-1.9-3.8c-0.4-0.8-0.1-1.8,0.7-2.1
		C3270.4,231.2,3270.7,231.2,3271.1,231.3z M3556.4,305.5c0.5,0.1,0.8,0.4,1,0.9c0.4,0.8,0.1,1.8-0.7,2.1c-1.3,0.6-2.6,1.2-3.9,1.8
		c-0.8,0.3-1.7,0-2.1-0.8c-0.3-0.8,0-1.7,0.8-2.1c1.3-0.6,2.6-1.2,3.8-1.7C3555.7,305.4,3556.2,305.4,3556.4,305.5z M3548.8,308.9
		c0.5,0.1,0.8,0.4,1.1,0.9c0.3,0.8,0,1.7-0.8,2.1c-1.3,0.5-2.6,1.1-3.9,1.6c-0.8,0.3-1.7,0-2.1-0.8c-0.3-0.8,0-1.7,0.8-2.1
		c1.3-0.5,2.7-1.1,3.9-1.6C3548,308.8,3548.5,308.8,3548.8,308.9z M3275,238.7c0.4,0.1,0.7,0.4,1,0.8c0.7,1.2,1.3,2.4,2.1,3.6
		c0.4,0.7,0.2,1.7-0.6,2.1c-0.7,0.4-1.7,0.2-2.1-0.6c-0.7-1.2-1.4-2.4-2-3.7c-0.4-0.7-0.2-1.7,0.6-2.1
		C3274.3,238.7,3274.7,238.6,3275,238.7z M3540.9,312c0.5,0.1,0.9,0.4,1.1,1c0.3,0.8-0.1,1.7-0.9,2c-1.3,0.5-2.6,1-4,1.4
		c-0.8,0.3-1.7-0.1-2-0.9c-0.3-0.8,0.1-1.7,0.9-2c1.4-0.5,2.6-1,3.9-1.5C3540.3,311.9,3540.6,311.9,3540.9,312z M3279.3,246.1
		c0.4,0.1,0.7,0.3,1,0.7c0.7,1.2,1.5,2.3,2.2,3.6c0.4,0.7,0.3,1.7-0.5,2.2c-0.7,0.4-1.7,0.3-2.2-0.5c-0.7-1.2-1.5-2.5-2.3-3.6
		c-0.4-0.7-0.2-1.7,0.6-2.1C3278.4,246,3278.8,246,3279.3,246.1z M3533,314.8c0.5,0.1,0.9,0.5,1.1,1c0.3,0.8-0.1,1.7-1,2
		c-1.4,0.5-2.7,0.9-4.1,1.3c-0.8,0.3-1.7-0.2-2-1s0.2-1.7,1-2c1.3-0.4,2.7-0.9,4-1.4C3532.4,314.7,3532.7,314.7,3533,314.8z
		 M3283.8,253.1c0.4,0.1,0.7,0.3,1,0.7c0.7,1.1,1.6,2.4,2.4,3.4c0.5,0.8,0.3,1.7-0.4,2.2c-0.8,0.5-1.7,0.3-2.2-0.4
		c-0.8-1.1-1.6-2.3-2.4-3.5c-0.5-0.8-0.3-1.7,0.5-2.2C3282.9,253.1,3283.4,253,3283.8,253.1z M3525,317.4c0.5,0.1,1,0.6,1.2,1.1
		c0.3,0.8-0.2,1.7-1,2c-1.3,0.4-2.7,0.8-4.1,1.2c-0.9,0.2-1.7-0.2-2-1.1c-0.2-0.9,0.2-1.7,1.1-2c1.3-0.4,2.7-0.8,4-1.1
		C3524.4,317.3,3524.7,317.3,3525,317.4z M3288.7,260.1c0.3,0.1,0.7,0.3,0.9,0.6c0.8,1.1,1.7,2.2,2.5,3.3c0.6,0.7,0.4,1.7-0.3,2.2
		s-1.7,0.4-2.2-0.3c-0.8-1.1-1.7-2.3-2.5-3.3c-0.6-0.7-0.4-1.7,0.4-2.2C3287.7,260,3288.2,260,3288.7,260.1z M3516.8,319.6
		c0.6,0.1,1,0.6,1.2,1.1c0.2,0.9-0.3,1.7-1.1,2c-1.3,0.4-2.8,0.7-4.1,1c-0.9,0.2-1.7-0.3-1.9-1.2c-0.2-0.9,0.3-1.7,1.2-1.9
		c1.3-0.4,2.7-0.6,4.1-1C3516.2,319.6,3516.6,319.5,3516.8,319.6z M3508.6,321.6c0.6,0.1,1,0.6,1.1,1.2c0.2,0.9-0.3,1.7-1.2,1.9
		c-1.4,0.3-2.7,0.6-4.2,0.9c-0.9,0.2-1.7-0.3-1.9-1.2c-0.2-0.9,0.3-1.7,1.2-1.9c1.4-0.3,2.7-0.5,4.1-0.9
		C3508.1,321.6,3508.4,321.6,3508.6,321.6z M3293.8,266.7c0.3,0.1,0.7,0.3,0.8,0.5c0.9,1,1.8,2.1,2.7,3.2c0.6,0.7,0.5,1.7-0.2,2.2
		c-0.7,0.6-1.7,0.5-2.2-0.2c-1-1.1-1.8-2.1-2.8-3.3c-0.6-0.7-0.5-1.7,0.3-2.2C3292.9,266.7,3293.3,266.5,3293.8,266.7z
		 M3500.3,323.3c0.6,0.2,1.1,0.6,1.1,1.2c0.2,0.9-0.4,1.6-1.3,1.8c-1.4,0.3-2.8,0.5-4.2,0.8c-0.9,0.2-1.6-0.4-1.8-1.3
		c-0.2-0.9,0.4-1.6,1.3-1.8c1.4-0.3,2.8-0.5,4.1-0.7C3499.9,323.3,3500.1,323.3,3500.3,323.3z M3299.4,273.1
		c0.3,0.1,0.6,0.2,0.8,0.5c1,1.1,1.9,2.1,2.8,3c0.6,0.7,0.6,1.6-0.1,2.3c-0.7,0.6-1.6,0.6-2.3-0.1c-1-1-1.9-2.1-2.9-3.1
		c-0.6-0.7-0.5-1.7,0.1-2.3C3298.2,273.1,3298.9,272.9,3299.4,273.1z M3492,324.7c0.6,0.2,1.1,0.7,1.2,1.3c0.1,0.8-0.4,1.6-1.3,1.8
		c-1.4,0.3-2.8,0.4-4.2,0.6c-0.8,0.1-1.6-0.5-1.8-1.4c-0.1-0.8,0.5-1.6,1.4-1.8c1.4-0.2,2.8-0.4,4.2-0.6
		C3491.6,324.7,3491.8,324.6,3492,324.7z M3305.1,279.2c0.3,0.1,0.5,0.2,0.7,0.4c1,1,2,2,3,2.8c0.7,0.6,0.7,1.6,0.1,2.2
		c-0.6,0.7-1.6,0.7-2.2,0.1c-1-1-2.1-2-3.1-3c-0.7-0.6-0.6-1.6,0-2.3C3304.1,279.2,3304.6,279.1,3305.1,279.2z M3483.6,325.8
		c0.6,0.1,1.1,0.7,1.2,1.3c0.1,0.8-0.5,1.6-1.4,1.7c-1.4,0.2-2.8,0.3-4.2,0.5c-0.8,0.1-1.6-0.5-1.7-1.4c-0.1-0.8,0.5-1.6,1.4-1.7
		c1.4-0.2,2.8-0.3,4.2-0.5C3483.3,325.7,3483.5,325.8,3483.6,325.8z M3475.3,326.6c0.7,0.2,1.2,0.7,1.2,1.4c0.1,0.8-0.6,1.6-1.5,1.7
		c-1.4,0.2-2.8,0.2-4.2,0.4c-0.8,0.1-1.6-0.6-1.7-1.5c-0.1-0.8,0.6-1.6,1.5-1.7c1.4-0.1,2.8-0.2,4.2-0.3
		C3475,326.6,3475.1,326.6,3475.3,326.6z M3311.4,285c0.2,0,0.5,0.2,0.6,0.4c1,0.9,2.1,1.8,3.2,2.7c0.7,0.6,0.7,1.5,0.2,2.2
		c-0.6,0.7-1.5,0.7-2.2,0.2c-1.1-0.9-2.2-1.8-3.2-2.8c-0.7-0.6-0.7-1.5-0.2-2.2C3310.2,284.9,3310.8,284.8,3311.4,285z
		 M3466.9,327.2c0.7,0.2,1.2,0.7,1.2,1.4c0.1,0.8-0.6,1.6-1.5,1.7c-1.4,0.1-2.8,0.1-4.3,0.1c-0.8,0-1.6-0.6-1.7-1.6
		c0-0.8,0.6-1.6,1.6-1.7c1.4-0.1,2.8-0.1,4.2-0.2C3466.6,327.2,3466.7,327.1,3466.9,327.2z M3317.9,290.2c0.2,0,0.4,0.1,0.6,0.2
		c1.1,0.8,2.2,1.7,3.4,2.5c0.7,0.5,0.9,1.5,0.4,2.2c-0.5,0.7-1.5,0.9-2.2,0.4c-1.1-0.8-2.2-1.7-3.5-2.5c-0.7-0.5-0.8-1.6-0.2-2.2
		C3316.6,290.3,3317.3,290.1,3317.9,290.2z M3458.4,327.5c0.7,0.2,1.1,0.8,1.2,1.5c0,0.8-0.7,1.6-1.5,1.6c-1.5,0-2.8,0-4.2,0
		c-0.8,0-1.6-0.7-1.6-1.5c0-0.8,0.7-1.6,1.5-1.6c1.4,0.1,2.8,0,4.2,0C3458.1,327.4,3458.3,327.4,3458.4,327.5z M3450,327.4
		c0.7,0.2,1.2,0.8,1.2,1.5c0,0.8-0.7,1.6-1.6,1.5c-1.4-0.1-2.8-0.1-4.2-0.1c-0.9,0-1.6-0.7-1.5-1.6c0-0.9,0.7-1.6,1.6-1.5
		c1.4,0.1,2.8,0.1,4.2,0.2C3449.8,327.4,3449.9,327.4,3450,327.4z M3324.7,295.2c0.2,0,0.3,0.1,0.5,0.2c1.1,0.8,2.3,1.5,3.5,2.3
		c0.7,0.5,1,1.4,0.5,2.2c-0.5,0.7-1.4,1-2.2,0.5c-1.2-0.7-2.4-1.5-3.6-2.3c-0.7-0.5-1-1.5-0.5-2.2
		C3323.4,295.3,3324.1,295,3324.7,295.2z M3441.6,327.1c0.7,0.2,1.2,0.8,1.1,1.6c0,0.9-0.8,1.5-1.6,1.5c-1.4-0.1-2.9-0.1-4.3-0.3
		c-0.9,0-1.5-0.8-1.4-1.7c0-0.9,0.8-1.5,1.7-1.4c1.4,0.1,2.8,0.2,4.2,0.3C3441.4,327.2,3441.5,327.1,3441.6,327.1z M3331.9,299.6
		c0.1,0,0.3,0.1,0.4,0.2c1.2,0.7,2.4,1.4,3.6,2c0.8,0.4,1.1,1.3,0.7,2.1s-1.3,1.1-2.1,0.7c-1.3-0.6-2.5-1.4-3.7-2
		c-0.7-0.4-1-1.4-0.6-2.1C3330.5,299.7,3331.2,299.5,3331.9,299.6z M3433.1,326.6c0.8,0.2,1.2,0.8,1.2,1.7c0,0.9-0.8,1.5-1.7,1.4
		c-1.4-0.2-2.8-0.2-4.2-0.4c-0.9-0.1-1.5-0.9-1.4-1.7c0.1-0.9,0.9-1.5,1.7-1.4c1.4,0.2,2.8,0.2,4.1,0.3
		C3432.9,326.6,3433,326.6,3433.1,326.6z M3339.5,303.5c0.1,0,0.2,0,0.3,0.1c1.3,0.6,2.5,1.2,3.8,1.7c0.8,0.3,1.2,1.2,0.8,2.1
		c-0.3,0.8-1.2,1.2-2.1,0.8c-1.3-0.5-2.6-1.1-3.9-1.7c-0.8-0.4-1.1-1.3-0.8-2.1C3337.9,303.7,3338.7,303.3,3339.5,303.5z
		 M3424.8,325.8c0.8,0.2,1.3,1,1.2,1.8c-0.1,0.9-0.9,1.5-1.7,1.4c-1.4-0.2-2.8-0.3-4.2-0.5c-0.9-0.1-1.5-0.9-1.4-1.8
		c0.1-0.9,0.9-1.5,1.8-1.4C3421.9,325.5,3423.3,325.6,3424.8,325.8C3424.6,325.8,3424.7,325.8,3424.8,325.8z M3347.2,306.7
		c0.1,0,0.1,0,0.2,0c1.3,0.5,2.6,1,4,1.4c0.8,0.3,1.2,1.2,0.9,2c-0.3,0.8-1.2,1.2-2,0.9c-1.3-0.4-2.6-1-4-1.4
		c-0.8-0.3-1.2-1.2-0.9-2C3345.6,306.9,3346.4,306.5,3347.2,306.7z M3416.4,324.8c0.8,0.2,1.3,1,1.2,1.8c-0.1,0.9-0.9,1.5-1.8,1.3
		c-1.4-0.2-2.8-0.4-4.2-0.7c-0.9-0.1-1.4-0.9-1.3-1.8c0.1-0.9,0.9-1.4,1.8-1.3C3413.5,324.3,3414.9,324.5,3416.4,324.8
		C3416.3,324.7,3416.4,324.8,3416.4,324.8z M3355.1,309.7L3355.1,309.7c1.4,0.5,2.8,0.9,4.1,1.4c0.8,0.3,1.3,1.1,1,2
		c-0.3,0.8-1.1,1.3-2,1c-1.3-0.4-2.7-0.9-4-1.3c-0.8-0.3-1.3-1.1-0.9-2C3353.5,309.9,3354.3,309.5,3355.1,309.7z M3408,323.4
		c0.8,0.2,1.3,1,1.2,1.8c-0.1,0.9-1,1.4-1.8,1.3c-1.4-0.3-2.8-0.5-4.1-0.8c-0.9-0.1-1.4-1-1.3-1.9c0.1-0.9,1-1.4,1.9-1.3
		C3405.3,322.8,3406.7,323.1,3408,323.4C3408,323.5,3408,323.4,3408,323.4z M3363.1,312.3C3363.1,312.3,3363.2,312.4,3363.1,312.3
		c1.4,0.5,2.8,0.9,4.1,1.3c0.9,0.2,1.3,1.1,1,2c-0.2,0.9-1.1,1.3-2,1c-1.3-0.4-2.7-0.8-4-1.2c-0.8-0.3-1.3-1.1-1-2
		C3361.5,312.6,3362.3,312.1,3363.1,312.3z M3399.8,321.9c0.8,0.2,1.3,1.1,1.2,1.9c-0.2,0.9-1,1.4-1.9,1.3c-1.4-0.3-2.7-0.6-4.1-0.9
		c-0.9-0.2-1.4-1-1.2-1.9c0.2-0.9,1-1.4,1.9-1.2C3397,321.4,3398.4,321.7,3399.8,321.9L3399.8,321.9z M3371.1,314.8
		C3371.1,314.8,3371.2,314.9,3371.1,314.8c1.4,0.5,2.8,0.8,4.1,1.2c0.9,0.2,1.4,1.1,1.1,1.9c-0.2,0.9-1.1,1.4-1.9,1.1
		c-1.4-0.4-2.7-0.8-4-1.1c-0.9-0.2-1.3-1.2-1.1-1.9C3369.5,315.1,3370.3,314.6,3371.1,314.8z M3391.5,320.2c0.9,0.2,1.4,1.1,1.2,1.9
		c-0.2,0.9-1.1,1.4-1.9,1.2c-1.4-0.4-2.7-0.6-4.1-1l0,0c-0.9-0.2-1.4-1.1-1.1-1.9c0.2-0.9,1.1-1.4,1.9-1.1
		C3388.8,319.6,3390.2,319.9,3391.5,320.2L3391.5,320.2z M3379.3,317.2L3379.3,317.2c1.2,0.3,2.4,0.6,3.6,0.9l0.5,0.1l0,0
		c0.9,0.2,1.4,1.1,1.1,1.9c-0.2,0.9-1.1,1.4-1.9,1.1l-0.5-0.1c-1.2-0.3-2.4-0.6-3.6-0.9c-0.9-0.2-1.4-1.1-1.1-1.9
		C3377.6,317.4,3378.4,316.9,3379.3,317.2z"/>
</g>
<circle class="st0" cx="3268.7" cy="64.9" r="12.6"/>
<g>
	
		<image style="overflow:visible;opacity:0.1;" width="576" height="380" xlink:href="FAED330ACA910732.png"  transform="matrix(1 0 0 1 379 200)">
	</image>
	<g>
		<path class="st3" d="M843.9,557.5H476.7c-49.2,0-89.1-39.9-89.1-89.1V297.1c0-49.2,39.9-89.1,89.1-89.1h367.2
			c49.2,0,89.1,39.9,89.1,89.1v171.3C933,517.6,893.1,557.5,843.9,557.5z"/>
	</g>
</g>
<path class="st4" d="M852.5,246.7c0,0,17-19,15.6-41.6c-0.2-2.9-0.8-5.7-1.7-8.4c-1-3-1.8-9.2,4.3-16.9c8.5-10.7,6.9-23.8-6.2-29.4
	c-8.1-3.5-19.1,6.2-22.3,14.5c-1.2,3-1.2,5.6-3.8,7.7c-3.4,2.8-6.4,1-10.4,2.7c-6.4,2.8-11.2,11.8-9.7,18.2
	c2.1,9.4,2.4,16.5-2.1,19.3c-4.5,2.8-7.6,9.1-6.2,13.5L852.5,246.7z"/>
<path class="st5" d="M842.3,238.8c0,0,22.2-30,42.2-23.6c5.7,1.8,9.8,6.8,10.9,12.7c1.7,9.1-1,23-33.7,21.2L842.3,238.8z"/>
<path class="st6" d="M887.3,225.2c0,0-18,0.5-30.8,18.1"/>
<path class="st5" d="M817.9,221.3c0,0-22.2-30-42.2-23.6c-5.7,1.8-9.8,6.8-10.9,12.7c-1.7,9.1,1,23,33.7,21.2L817.9,221.3z"/>
<path class="st6" d="M772.9,207.7c0,0,18,0.5,30.8,18.1"/>
<path class="st6" d="M859.9,164.7c0,0-20.5,29.5-23.5,62.1"/>
<path class="st4" d="M609.5,270.7c0,0-14.3-13.8-13.2-30.1c0.1-2.1,0.7-4.1,1.4-6.1c0.8-2.1,1.5-6.7-3.7-12.2
	c-7.2-7.8-5.8-17.2,5.2-21.3c11-4.1,17.8,6.7,18.8,10.5c1,3.8,8.2,7.6,11.9,7.6c3.8,0,10,6.4,8.2,13.2c-1.8,6.8-2,12,1.8,14
	c3.8,2,6.4,6.6,5.2,9.8L609.5,270.7z"/>
<path class="st5" d="M618.1,245.1c0,0-18.7-25.2-35.5-19.9c-4.8,1.5-8.3,5.8-9.2,10.7c-1.4,7.7,0.8,19.3,28.4,17.9L618.1,245.1z"/>
<path class="st6" d="M580.2,233.7c0,0,15.1,0.4,25.9,15.2"/>
<path class="st7" d="M895.7,264.1c0,12.8-10.9,23.1-24.4,23.1c-0.7,0-1.5,0-2.2-0.1h-62.4c-0.1,0-0.1,0.1-0.2,0.1h-62.5
	c1.2-3.9,3.7-7.3,7.1-9.6c-8.7-2.6-15-10.4-15-19.5c0-11.3,9.7-20.4,21.6-20.4c3.3,0,6.5,0.7,9.3,2c0.8-10.6,10.1-18.9,21.5-18.9
	c3.6,0,6.9,0.8,9.9,2.3c3.6-4.7,10-7.8,17.3-7.8c6.4,0,12.1,2.4,15.9,6.2c3-1.7,6.6-2.7,10.4-2.7c11.1,0,20.2,8.6,20.2,19.2
	c0,1.8-0.3,3.5-0.7,5.1c3-1.3,6.3-2,9.9-2C884.8,241,895.7,251.4,895.7,264.1z"/>
<path class="st6" d="M603.3,211.2c0,0,17.2,21.4,19.8,45"/>
<path class="st8" d="M660.2,195.2"/>
<path class="st9" d="M668.1,215.5"/>
<path class="st8" d="M650.2,173.4"/>
<g>
	
		<image style="overflow:visible;opacity:0.1;" width="576" height="302" xlink:href="FAED330ACA910735.png"  transform="matrix(1 0 0 1 379 279)">
	</image>
	<g>
		<path class="st7" d="M843.9,558.8H476.7c-49.2,0-89.1-39.9-89.1-89.1V357.6c0-39,31.6-70.6,70.6-70.6h404.2
			c39,0,70.6,31.6,70.6,70.6v112.1C933,518.9,893.1,558.8,843.9,558.8z"/>
	</g>
</g>
<g>
	<g>
		<defs>
			<rect id="SVGID_1_" x="432.7" y="162.2" width="124.9" height="104.7"/>
		</defs>
		<clipPath id="SVGID_2_">
			<use xlink:href="#SVGID_1_"  style="overflow:visible;"/>
		</clipPath>
		<path class="st10" d="M543.6,247.2h-57l-28.1,19.1c-2.6,1.8-6.1-0.6-5.3-3.7l4-15.3h-10.3c-7.8,0-14-6.3-14-14.1v-56.7
			c0-7.8,6.3-14.1,14-14.1h96.8c7.8,0,14,6.3,14,14.1v56.7C557.6,240.9,551.3,247.2,543.6,247.2L543.6,247.2z M543.6,247.2"/>
		<path class="st11" d="M543.6,162.3h-11.3c-2,39.5-34.6,70.9-74.5,70.9c-8.8,0-17.2-1.5-25-4.3v4.2c0,7.8,6.3,14.1,14,14.1h10.3
			l-4,15.3c-0.8,3.1,2.6,5.5,5.3,3.7l28.1-19.1h57c7.8,0,14-6.3,14-14.1v-56.7C557.6,168.6,551.3,162.3,543.6,162.3L543.6,162.3z
			 M543.6,162.3"/>
	</g>
</g>
<rect x="445.1" y="190.8" class="st1" width="110.1" height="42.6"/>
<text transform="matrix(1 0 0 1 445.0537 201.3647)"><tspan x="0" y="0" class="st12 st13 st14">Comparez vos </tspan><tspan x="0" y="15.2" class="st12 st13 st14">deux adresses</tspan></text>
<g>
	<g>
		<g>
			<g class="st15">
				<path class="st16" d="M620.6,142.8c-0.3-0.2-0.5-0.6-0.3-1c0.6-1,1.1-2.1,1.5-3.2c0.1-0.4,0.6-0.5,0.9-0.4
					c0.4,0.1,0.5,0.6,0.4,0.9c-0.5,1.1-1,2.2-1.6,3.3c0,0,0,0,0,0.1C621.3,142.9,620.9,142.9,620.6,142.8z M623.5,136.2
					c-0.4-0.1-0.6-0.5-0.5-0.9c0.3-1.1,0.5-2.3,0.7-3.4c0.1-0.4,0.4-0.7,0.8-0.6c0.4,0.1,0.7,0.4,0.6,0.8c-0.2,1.2-0.4,2.4-0.7,3.6
					c0,0.1-0.1,0.2-0.1,0.2C624.1,136.1,623.8,136.3,623.5,136.2z"/>
				<path class="st16" d="M625.2,128.8c0.1-0.1,0.1-0.2,0.1-0.4c0-0.6,0-1.2,0-1.8c0-0.4-0.3-0.7-0.7-0.7c-0.4,0-0.7,0.3-0.7,0.7
					c0,0.6,0,1.1,0,1.7c0,0.4,0.3,0.7,0.7,0.7C624.9,129.1,625.1,129,625.2,128.8z"/>
			</g>
		</g>
	</g>
	<path class="st4" d="M711.7,120.9v152.6c0,1.2-0.7,2.2-2,2.9c-1,0.5-2.2,0.8-3.5,0.8l-3.1-0.1c-3.1-0.1-5.9-1.9-5.9-3.9v-152
		L711.7,120.9z"/>
	<g>
		<path class="st4" d="M607,130.9l1.1,0.6l21.1-12.9l103.2,15.3l14.4,1.7l-0.9,2.7c-0.1,0.3-16.5,12.3-16.5,12.3l12.8,16.8l-0.6,1.7
			c-0.1,0.2-0.3,0.3-0.5,0.3l-13.3-2.1l-103.2-16c-0.3,0-0.6-0.2-0.8-0.4l-16.6-17.4c-0.2-0.2-0.3-0.5-0.3-0.9L607,130.9z"/>
		<path class="st7" d="M630.4,117.4l116.4,18c0.1,0,0.1,0.2,0,0.2l-16.4,12c-0.2,0.2-0.3,0.5-0.1,0.7l11.7,18.5
			c0.1,0.1,0,0.2-0.1,0.2l-116.5-18c-0.3-0.1-0.6-0.2-0.9-0.5L607.2,131c-0.1-0.1-0.1-0.2,0-0.3l22.1-13.2
			C629.6,117.4,630,117.3,630.4,117.4z"/>
	</g>
	<g>
		<path class="st4" d="M774.8,180.7l-1,0.6l-21.3-11.1l-98.9,21.8l-13.3,2.5c-0.3,0.1-0.4,0.3-0.3,0.6l0.8,2.1
			c0.1,0.3,16.9,10.8,16.9,10.8l-11.2,17.2l0.7,1.6c0.1,0.2,0.3,0.3,0.5,0.3l12.7-2.9l98.9-22.5c0.3-0.1,0.5-0.2,0.7-0.4l14.9-18
			c0.2-0.2,0.3-0.5,0.2-0.9L774.8,180.7z"/>
		<path class="st17" d="M751.3,169.2L640,194.6c-0.2,0.1-0.3,0.4-0.1,0.5l16.4,10.4c0.2,0.1,0.3,0.4,0.2,0.7l-10.1,18.8
			c0,0.1,0,0.2,0.1,0.2l111.7-25.4c0.3-0.1,0.6-0.2,0.8-0.5l15.6-18.3c0.1-0.1,0-0.2,0-0.2l-22.3-11.3
			C752,169.2,751.6,169.1,751.3,169.2z"/>
		<g>
			<path class="st18" d="M690.5,196.2l59-13.9c1-0.2,1.6-1.3,1.4-2.3l0,0c-0.2-1-1.3-1.6-2.3-1.4l-59,13.9c-1,0.2-1.6,1.3-1.4,2.3
				l0,0C688.5,195.8,689.5,196.5,690.5,196.2z"/>
			<path class="st18" d="M692.1,206.1l61.4-14.4c0.2-0.1,0.4-0.3,0.3-0.5l-0.6-2.7c-0.1-0.2-0.3-0.4-0.5-0.3l-61.4,14.4
				c-0.2,0.1-0.4,0.3-0.3,0.5l0.6,2.7C691.7,206,691.9,206.2,692.1,206.1z"/>
		</g>
	</g>
	<g>
		<circle class="st4" cx="704.9" cy="186.9" r="4.4"/>
		<circle class="st18" cx="704.4" cy="186.3" r="2.7"/>
	</g>
	<g>
		<path class="st18" d="M689.8,138.5l-53.9-8.5c-1-0.2-1.7-1.1-1.5-2.1v0c0.2-1,1.1-1.7,2.1-1.5l53.9,8.5c1,0.2,1.7,1.1,1.5,2.1l0,0
			C691.7,138,690.8,138.6,689.8,138.5z"/>
		<path class="st18" d="M687.8,147.8l-53.7-8.5c-0.9-0.1-1.6-1-1.4-2l0,0c0.1-0.9,1-1.6,2-1.4l53.7,8.5c0.9,0.1,1.6,1,1.4,2v0
			C689.6,147.3,688.7,147.9,687.8,147.8z"/>
	</g>
	<g>
		<circle class="st4" cx="704.9" cy="145.1" r="4.4"/>
		<circle class="st18" cx="704.4" cy="144.5" r="2.7"/>
	</g>
</g>
<path class="st7" d="M684.8,269.5c0,9.6-7.7,17.3-17.3,17.3c-0.5,0-1,0-1.5-0.1h-44.3c0,0-0.1,0-0.1,0.1h-44.3
	c1.6-5.7,6.9-9.9,13.2-9.9c0.5,0,0.9,0,1.4,0.1c-1-2.3-1.6-4.8-1.6-7.5c0-10.6,9.2-19.3,20.6-19.6c2.4-6.5,8.7-11.1,16-11.1
	c3.1,0,6.1,0.8,8.6,2.3c2.6-3.4,6.7-5.6,11.3-5.6c7.9,0,14.3,6.4,14.3,14.3c0,1.3-0.2,2.6-0.5,3.8c2.1-0.9,4.5-1.5,7-1.5
	C677,252.2,684.8,260,684.8,269.5z"/>
<path class="st5" d="M751.9,287.3l-142.8-1.1c13.2-11,24.9-14.6,33.1-15.8c17.2-2.6,21.6,4.8,37.2,0.1c12.4-3.8,16.2-10.5,30-11.3
	c8-0.5,14,1.4,15.6,1.9C742.1,266.7,750,283,751.9,287.3z"/>
<path class="st7" d="M571.8,151.9c-5.1-8.5-14-8.1-14-8.1c-12.8,0.7-15.6,12-15.6,12c-2.1,8,2.2,13.2,2.2,13.2l10.7,14.8
	c1.3,2.1,2.8,1.9,2.8,1.9c2-0.1,2.8-1.9,2.8-1.9l10.2-14.3c1.6-2.3,2.7-4.9,3.1-7.7C574.3,159,574,155.5,571.8,151.9z M557.9,167
	c-4.4,0-8-3.6-8-8s3.6-8,8-8c4.4,0,8,3.6,8,8S562.3,167,557.9,167z"/>
<g>
	<path class="st19" d="M475.1,558.4c0,0-3.5-29.8,25.7-39.2c29.1-9.4,36.5,17.8,36.5,17.8s10-6.7,18.9-1.9c0,0,12.7-14.1,36.6-8.7
		c0,0,8.9-23.5,32.6-21.8c14.9,1,28.3,21.9,28.3,21.9s14.1-23.4,39.4-3c0,0,12.8-9,25.4,0c0,0,11.1-4.5,17.7-0.9
		c0,0,16.7-4.8,25.9,11.2c0,0,22.6-8.1,38.1,4.7c0,0,5.5-3.9,11.8-2.6c0,0,7.7-4.6,15.9,0c8.2,4.6,7.5,13.8,7.5,13.8
		s11.4-2.5,12.5,9.3L475.1,558.4z"/>
</g>
<g>
	<g id="COU_3_">
		<path class="st20" d="M364.1,308.7l-11.3,39.8c2.9,2.7,8.2,6.8,15.7,9.2c13,4.2,24.3,0.6,28.1-0.8l5.8-30.3
			C402.5,326.6,377.3,294.4,364.1,308.7z"/>
	</g>
	<path class="st20" d="M432.5,292.8c-0.1,4.1-0.6,7.8-1.4,11.1c-1.8,8.2-5,14.2-7.4,18c-1.9,2.9-4.7,5.1-8,6
		c-36.5,10.5-46.6-19.7-46.6-19.7c-1,0.8-3.7,2.7-7.6,2.8c-4.6,0.1-9-2.5-11.2-6.6c-2.7-5-1-9.9-0.7-10.8c1.5-4.1,5.1-7.2,9.2-8.2
		c5.4-1.3,11.2,0.9,14.7,5.7l5.2-21.3c-4.2-5.4-5.5-11.6-3.3-14.5c2.7-3.5,11.8-3.6,19.9,3.5c10.5,1.7,21,3.3,31.6,5
		c1.4,3.2,2.9,7.1,4,11.5c0,0,1.1,4.7,1.5,10.1c0,0.5,0.1,0.9,0.1,1.4C432.6,289,432.6,290.9,432.5,292.8z"/>
	<circle class="st21" cx="393" cy="298.8" r="6.4"/>
	<path class="st21" d="M432.5,292.8c-0.1,4.1-0.6,7.8-1.4,11.1c-1.6-1.1-2.7-3-2.7-5.2C428.5,296.1,430.2,293.7,432.5,292.8z"/>
	<circle class="st22" cx="404.5" cy="283.3" r="1.5"/>
	<circle class="st22" cx="427.9" cy="283.3" r="1.5"/>
	<path class="st23" d="M374.2,288.3c2.6,1.5,5.2,3,7.8,4.6v14.3c0,2.9,1.3,5.7,3.5,7.5c5.9,4.7,19.1,12,39.7,4.8c0,0,0.2,16.9-8,20
		c-1.1,0.4-2.4,0.4-4.3,0.4c-3.1,0-4.9-0.6-12.3-2.7c-6.3-1.8-6.7-1.9-8-2.4c-1.2-0.5-4-1.7-7.4-4c-5.1-3.4-11.9-7.8-14.8-15.9
		c-0.9-2.6-1.2-4.9-1.3-6.6C370.8,301.6,372.5,294.9,374.2,288.3z"/>
	<path class="st24" d="M411.4,273.9c0,0-7.2-3.7-12,2.4"/>
	<path class="st24" d="M431.3,273.4c-1.9-0.5-4.2-0.5-6.7,0.9"/>
	<path class="st25" d="M400.6,288.6c0.8,0.4,2.1,1,3.8,1.2c2.6,0.3,4.7-0.6,5.6-1"/>
	<path class="st25" d="M423.3,287.9c0.8,0.4,2.1,1,3.8,1.2c2.6,0.3,4.7-0.6,5.6-1"/>
	<path class="st23" d="M406.1,305.9c3.9-3.9,13.6-11.5,21.6,0.2c0.5,0.7,0,1.8-0.7,1.8l-20.3-0.1
		C405.8,307.8,405.4,306.6,406.1,305.9z"/>
	<path class="st23" d="M382,295c-3.9,0.5-6.2-0.5-7.5-1.3c-3.1-2-2.9-4.9-6.5-7c-2.1-1.2-4.2-1.3-5.3-1.4c-4.5-0.3-7.9,2-9.2,2.9
		c-0.3-1.4-5.3-24.9,10.1-39.1c9.6-8.9,21.7-9.3,28.8-9.2c6.7,0.1,27.8-0.5,36.7,14.5c5.6,9.5,3.4,20.1,2.4,24
		c-0.4-2.1-0.9-4.5-1.7-7c-0.9-2.9-1.9-5.4-2.9-7.6c-13.6,0.1-27.3,0.3-40.9,0.4l-10.5-8.9l6.9,12.1
		C382.2,276.7,382.1,285.9,382,295z"/>
	<path class="st26" d="M416.8,311.6c-0.6,0.5-2.8,2.3-5.8,1.8c-3.4-0.5-5.3-3.4-5.7-4.1"/>
	<path class="st27" d="M352.8,348.5c1.4,1.3,3,2.7,5,4c3,2,5.8,3.4,8.2,4.4c0.8-13.2,4.1-17.2,7.1-18.4c3.9-1.5,7.3,2,15,1.9
		c5.3,0,9.6-1.7,12.5-3.1c-3.8-0.7-9.2-2.8-15.4-6.4c-7.7-4.5-15.6-11.8-16.2-22.5l-4.9,0.4L352.8,348.5z"/>
	<circle class="st20" cx="361.7" cy="298" r="12.8"/>
	<path class="st27" d="M382.2,280.3l4.5-11.9c6.7,0.9,14.7,1.5,23.7,1.1c6.7-0.3,12.7-1.1,17.9-2.1c-0.5-1.2-1-2.4-1.5-3.6
		l-40.9,0.4l-10.5-8.9l6.9,12.1L382.2,280.3z"/>
	<path class="st28" d="M357.1,290c3.7-1.5,7.8-0.9,10.6,1.6c3.2,2.9,3.1,6.9,3,7.6"/>
</g>
</svg>
