<svg width="572" height="472" viewBox="0 0 572 472" fill="none" xmlns="http://www.w3.org/2000/svg">
<path d="M393.134 471.339C393.234 471.339 393.234 471.239 393.334 471.239C367.034 471.239 340.734 471.239 314.434 471.239C314.534 471.239 314.734 471.339 314.834 471.339H393.134Z" fill="#BEE1ED"/>
<path d="M276.134 110.639C279.334 110.639 279.334 105.639 276.134 105.639C272.834 105.639 272.834 110.639 276.134 110.639Z" fill="#EAEDF2"/>
<path d="M516.634 164.739C516.634 164.739 538.234 140.539 536.534 111.739C536.334 108.039 535.434 104.439 534.334 100.939C533.134 97.1392 532.134 89.2392 539.834 79.4392C550.734 65.7392 548.634 49.1392 531.934 42.0392C521.534 37.6392 507.634 49.8392 503.534 60.5392C502.034 64.3392 501.934 67.6392 498.634 70.3392C494.334 73.9392 490.434 71.6392 485.434 73.8392C477.334 77.4392 471.234 88.8392 473.034 97.0392C475.734 108.939 476.034 118.039 470.334 121.639C464.634 125.139 460.634 133.239 462.434 138.839L516.634 164.739Z" fill="#2B315B"/>
<path d="M503.634 154.739C503.634 154.739 531.934 116.539 557.434 124.639C564.734 126.939 569.934 133.339 571.334 140.839C573.434 152.439 570.034 170.139 528.434 167.839L503.634 154.739Z" fill="#EEAD1E"/>
<path d="M561.034 137.339C561.034 137.339 538.134 137.939 521.834 160.339" stroke="#FEDCA4" stroke-miterlimit="10" stroke-linecap="round"/>
<path d="M472.534 132.439C472.534 132.439 444.234 94.2392 418.734 102.339C411.434 104.639 406.234 111.039 404.834 118.539C402.734 130.139 406.134 147.839 447.734 145.539L472.534 132.439Z" fill="#EEAD1E"/>
<path d="M415.234 115.039C415.234 115.039 438.134 115.639 454.434 138.039" stroke="#FEDCA4" stroke-miterlimit="10" stroke-linecap="round"/>
<path d="M526.034 60.2392C526.034 60.2392 499.934 97.8392 496.034 139.339" stroke="#FEDCA4" stroke-miterlimit="10" stroke-linecap="round"/>
<path d="M207.034 195.339C207.034 195.339 188.834 177.739 190.234 156.939C190.434 154.239 191.134 151.639 192.034 149.139C193.034 146.439 193.934 140.639 187.334 133.539C178.134 123.639 179.934 111.539 193.934 106.439C207.934 101.239 216.634 115.039 217.834 119.839C219.034 124.639 228.234 129.539 233.034 129.539C237.834 129.539 245.734 137.639 243.434 146.339C241.134 154.939 240.934 161.639 245.734 164.139C250.534 166.639 253.834 172.539 252.334 176.639L207.034 195.339Z" fill="#2B315B"/>
<path d="M218.034 162.639C218.034 162.639 194.134 130.439 172.734 137.339C166.634 139.339 162.134 144.639 161.034 151.039C159.234 160.839 162.134 175.639 197.134 173.839L218.034 162.639Z" fill="#EEAD1E"/>
<path d="M169.734 148.139C169.734 148.139 189.034 148.639 202.734 167.539" stroke="#FEDCA4" stroke-miterlimit="10" stroke-linecap="round"/>
<path d="M571.634 186.939C571.634 203.239 557.734 216.439 540.534 216.439C539.634 216.439 538.634 216.439 537.734 216.339H458.234C458.134 216.339 458.034 216.439 458.034 216.439H378.434C379.934 211.439 383.134 207.139 387.434 204.139C376.334 200.739 368.334 190.939 368.334 179.339C368.334 164.939 380.634 153.339 395.834 153.339C400.034 153.339 404.034 154.239 407.634 155.839C408.634 142.339 420.534 131.739 435.034 131.739C439.634 131.739 443.834 132.839 447.634 134.639C452.234 128.639 460.434 124.739 469.634 124.739C477.834 124.739 485.134 127.839 489.834 132.639C493.734 130.439 498.234 129.139 503.034 129.139C517.234 129.139 528.734 140.039 528.734 153.539C528.734 155.839 528.434 157.939 527.834 160.039C531.634 158.439 535.934 157.539 540.434 157.539C557.734 157.439 571.634 170.639 571.634 186.939Z" fill="#BFE3EE"/>
<path d="M199.134 119.539C199.134 119.539 221.034 146.739 224.334 176.939" stroke="#FEDCA4" stroke-miterlimit="10" stroke-linecap="round"/>
<g opacity="0.3">
<path opacity="0.3" d="M221.234 32.3392C220.834 32.1392 220.634 31.5392 220.934 31.1392C221.634 29.8392 222.334 28.4392 222.834 27.1392C223.034 26.6392 223.534 26.4392 224.034 26.6392C224.534 26.8392 224.734 27.3392 224.534 27.8392C223.934 29.2392 223.234 30.7392 222.534 32.0392C222.534 32.0392 222.534 32.1392 222.434 32.1392C222.134 32.4392 221.634 32.5392 221.234 32.3392ZM224.834 23.9392C224.334 23.8392 224.034 23.3392 224.234 22.8392C224.634 21.4392 224.934 19.9392 225.134 18.4392C225.234 17.9392 225.634 17.6392 226.134 17.6392C226.634 17.7392 226.934 18.1392 226.934 18.6392C226.734 20.1392 226.434 21.7392 226.034 23.2392C226.034 23.3392 225.934 23.4392 225.934 23.5392C225.634 23.8392 225.234 24.0392 224.834 23.9392Z" fill="#95B0DD"/>
<path opacity="0.3" d="M227.034 14.4392C227.134 14.3392 227.234 14.1392 227.234 13.9392C227.234 13.1392 227.234 12.4392 227.234 11.6392C227.234 11.1392 226.834 10.7392 226.334 10.7392C225.834 10.7392 225.434 11.1392 225.434 11.6392C225.434 12.3392 225.434 13.1392 225.434 13.8392C225.434 14.3392 225.834 14.7392 226.334 14.7392C226.634 14.8392 226.934 14.7392 227.034 14.4392Z" fill="#95B0DD"/>
</g>
<path d="M337.234 4.43922V198.839C337.234 200.339 336.234 201.639 334.634 202.539C333.434 203.139 331.834 203.539 330.134 203.539L326.234 203.439C322.334 203.339 318.734 201.039 318.734 198.439V4.83923L337.234 4.43922Z" fill="#2B315B"/>
<path d="M203.834 17.1392L205.234 17.8392L232.034 1.33923L363.434 20.7392L381.834 22.8392L380.734 26.2392C380.634 26.6392 359.634 41.8392 359.634 41.8392L375.934 63.2392L375.134 65.4392C375.034 65.7392 374.834 65.8392 374.534 65.8392L357.634 63.2392L226.134 42.8392C225.734 42.7392 225.434 42.6392 225.134 42.3392L204.034 20.2392C203.734 19.9392 203.634 19.5392 203.634 19.1392L203.834 17.1392Z" fill="#2B315B"/>
<path d="M233.634 0.0392304L381.934 23.0392C382.034 23.0392 382.134 23.2392 382.034 23.3392L361.134 38.6392C360.834 38.8392 360.734 39.2392 360.934 39.5392L375.834 63.1392C375.934 63.2392 375.834 63.4392 375.634 63.4392L227.234 40.4392C226.834 40.3392 226.434 40.1392 226.134 39.8392L204.034 17.4392C203.934 17.3392 203.934 17.1392 204.034 17.1392L232.234 0.239231C232.634 0.0392311 233.134 -0.0607697 233.634 0.0392304Z" fill="#BFE3EE"/>
<path d="M417.634 80.6392L416.334 81.4392L389.234 67.2392L263.234 95.0392L246.234 98.2392C245.834 98.3392 245.634 98.6392 245.834 99.0392L246.834 101.639C247.034 101.939 268.334 115.339 268.334 115.339L254.034 137.239L254.934 139.339C255.034 139.539 255.334 139.739 255.534 139.639L271.734 135.939L397.734 107.239C398.134 107.139 398.434 106.939 398.634 106.639L417.634 83.7392C417.834 83.4392 418.034 83.0392 417.934 82.6392L417.634 80.6392Z" fill="#2B315B"/>
<path d="M387.634 66.0392L245.934 98.3392C245.634 98.4392 245.534 98.8392 245.834 98.9392L266.734 112.139C267.034 112.339 267.134 112.739 266.934 113.039L254.034 137.039C253.934 137.139 254.034 137.339 254.234 137.239L396.534 104.839C396.934 104.739 397.334 104.539 397.534 104.239L417.434 80.9392C417.534 80.8392 417.534 80.6392 417.334 80.6392L388.834 66.2392C388.534 65.9392 388.134 65.9392 387.634 66.0392Z" fill="#1D3C77"/>
<path opacity="0.56" d="M310.334 100.439L385.534 82.8393C386.834 82.5393 387.634 81.2392 387.334 79.9392C387.034 78.6392 385.734 77.8392 384.434 78.1392L309.234 95.7392C307.934 96.0392 307.134 97.3392 307.434 98.6392C307.734 99.9392 309.034 100.739 310.334 100.439Z" fill="white"/>
<path opacity="0.56" d="M312.334 113.039L390.534 94.6392C390.834 94.5392 391.034 94.2392 390.934 93.9392L390.134 90.5392C390.034 90.2392 389.734 90.0392 389.434 90.1392L311.234 108.539C310.934 108.639 310.734 108.939 310.834 109.239L311.634 112.639C311.734 112.939 312.034 113.039 312.334 113.039Z" fill="white"/>
<path d="M328.634 94.1392C331.727 94.1392 334.234 91.632 334.234 88.5392C334.234 85.4464 331.727 82.9392 328.634 82.9392C325.541 82.9392 323.034 85.4464 323.034 88.5392C323.034 91.632 325.541 94.1392 328.634 94.1392Z" fill="#2B315B"/>
<path opacity="0.56" d="M329.85 90.725C331.507 89.7307 332.045 87.5808 331.051 85.923C330.056 84.2653 327.906 83.7275 326.249 84.7218C324.591 85.7162 324.053 87.8661 325.048 89.5238C326.042 91.1816 328.192 91.7194 329.85 90.725Z" fill="white"/>
<path opacity="0.56" d="M309.334 26.8392L240.634 16.0392C239.434 15.8392 238.534 14.6392 238.734 13.4392C238.934 12.2392 240.134 11.3392 241.334 11.5392L310.034 22.3392C311.234 22.5392 312.134 23.7392 311.934 24.9392C311.834 26.1392 310.634 27.0392 309.334 26.8392Z" fill="white"/>
<path opacity="0.56" d="M306.734 38.7392L238.334 27.9392C237.134 27.7392 236.334 26.6392 236.534 25.4392C236.734 24.2392 237.834 23.4392 239.034 23.6392L307.434 34.4392C308.634 34.6392 309.434 35.7392 309.234 36.9392C309.034 38.0392 307.934 38.8392 306.734 38.7392Z" fill="white"/>
<path d="M328.634 40.8392C331.727 40.8392 334.234 38.332 334.234 35.2392C334.234 32.1464 331.727 29.6392 328.634 29.6392C325.541 29.6392 323.034 32.1464 323.034 35.2392C323.034 38.332 325.541 40.8392 328.634 40.8392Z" fill="#2B315B"/>
<path opacity="0.56" d="M329.843 37.4246C331.5 36.4302 332.038 34.2803 331.044 32.6226C330.05 30.9648 327.9 30.427 326.242 31.4214C324.584 32.4157 324.046 34.5656 325.041 36.2234C326.035 37.8811 328.185 38.4189 329.843 37.4246Z" fill="white"/>
<path d="M302.934 193.839C302.934 206.039 293.034 215.939 280.834 215.939C280.134 215.939 279.534 215.939 278.834 215.839H222.434C222.334 215.839 222.334 215.939 222.234 215.939H165.734C167.834 208.639 174.534 203.339 182.534 203.339C183.134 203.339 183.734 203.339 184.234 203.439C182.934 200.539 182.234 197.239 182.234 193.939C182.234 180.339 193.934 169.339 208.434 168.939C211.534 160.639 219.534 154.739 228.834 154.739C232.834 154.739 236.534 155.839 239.834 157.739C243.134 153.439 248.434 150.639 254.234 150.639C264.334 150.639 272.534 158.839 272.534 168.939C272.534 170.639 272.334 172.239 271.834 173.839C274.534 172.639 277.534 171.939 280.734 171.939C293.034 171.739 302.934 181.639 302.934 193.839Z" fill="#BFE3EE"/>
<path d="M388.434 216.439L206.434 215.039C223.234 201.039 238.134 196.539 248.634 194.939C270.534 191.639 276.234 201.139 296.034 195.039C311.834 190.239 316.734 181.639 334.234 180.539C344.434 179.939 352.134 182.339 354.134 183.039C376.034 190.239 386.034 211.039 388.434 216.439Z" fill="#EEAD1E"/>
</svg>
