<svg width="365" height="54" viewBox="0 0 365 54" fill="none" xmlns="http://www.w3.org/2000/svg">
<g filter="url(#filter0_d)">
<path d="M12.0816 38.04C11.8416 38.08 11.6016 38.08 11.3616 38.08C10.6816 38.08 10.6416 37.68 10.6416 37.12C10.6416 36.08 10.6816 35.04 10.6816 34C10.6816 28.2 10.5616 22.4 10.4816 16.6C10.4416 15 10.3216 13.44 10.3216 11.84C10.3216 11 10.5216 10.16 10.5216 9.28C10.5216 8.32 10.2416 8.36 9.44156 8.16C9.12156 8.04 8.80156 7.96 8.44156 7.96C7.52156 7.96 7.48156 9.08 7.48156 9.76C7.48156 16.16 7.72156 22.56 7.72156 28.92C7.72156 31.88 7.36156 34.84 7.36156 37.76C7.36156 38.72 7.36156 41.08 8.76156 41.08C9.20156 41.08 9.64156 41.04 10.0816 41.04C12.1216 41.04 14.1216 41.2 16.1616 41.2C16.8416 41.2 16.8416 40.12 16.8416 39.64C16.8416 39.08 16.8016 38.52 16.7616 37.96C16.4416 37.56 15.9216 37.48 15.4816 37.48C14.3216 37.48 13.2016 37.88 12.0816 38.04ZM24.1928 6.64C23.1528 6.56 22.1528 6.32 21.1128 6.32C19.6728 6.32 19.5128 7.32 19.5128 8.48C19.5128 9.32 19.6728 10.16 19.6728 11.04C19.7528 14.08 19.7528 17.16 19.7528 20.2C19.7528 26.68 19.7128 33.12 19.7128 39.6C19.7128 40.36 19.4728 41.12 19.4728 41.88C19.4728 42.8 19.7128 42.84 20.5528 42.84C22.0728 42.84 23.6328 42.6 25.1528 42.36C25.6728 42.28 26.2728 42.28 26.2728 41.56C26.2728 40.88 26.2328 40.2 26.2328 39.52C26.2328 39.08 26.1528 38.88 25.7128 38.88C24.8728 38.88 24.1528 39.36 23.3528 39.36C22.8328 39.36 22.7128 38.88 22.7128 38.44C22.7128 37.72 22.9128 36.96 22.9128 36.2C22.9128 35.12 22.8728 34 22.8328 32.92C22.7928 31.64 22.4328 30.4 22.4328 29.12C22.4328 28.36 22.5128 27.32 23.5128 27.32C24.1528 27.32 24.7128 27.72 25.3528 27.72C25.7528 27.72 26.1128 27.4 26.1128 27C26.1128 26.56 25.9528 26.16 25.9128 25.72C25.7928 24.56 26.0728 24.36 24.6328 24.36C24.1128 24.36 23.6328 24.6 23.1128 24.6C22.6328 24.6 22.5928 23.84 22.5928 23.48C22.3528 21.04 22.4728 18.6 22.4728 16.16C22.4728 14.44 22.1528 12.72 22.1528 10.96C22.1528 10.44 22.2728 10.16 22.8728 10.16C23.9128 10.16 24.8328 10.88 25.8728 10.88C26.9128 10.88 26.9128 8.76 26.9128 8.04C26.9128 6.44 25.9928 6.68 24.7928 6.68L24.1928 6.64ZM34.4409 15.76C34.1209 14.88 33.9209 13.92 33.9209 12.96C33.9209 11.72 34.4409 9.88 36.0009 9.88C38.3609 9.88 37.7209 13.8 38.4809 14.12C39.0009 14.36 39.5609 14.36 40.1209 14.36C40.8009 14.36 41.0009 13.88 41.0009 13.28C41.0009 10.52 39.3609 7.48 36.2409 7.48C32.9209 7.48 31.2409 10.12 31.2409 13.2C31.2409 18.96 37.6009 23.44 39.1209 29C39.4809 30.44 39.5209 31.96 39.5209 33.44C39.5209 35.04 39.4809 39.8 37.1609 39.8C34.6009 39.8 34.6809 35.04 34.6809 33.28C34.6809 31.84 34.4009 31.16 32.8009 31.16C31.8009 31.16 31.6009 32.16 31.6009 32.92C31.6009 36.52 32.7609 41.64 37.2409 41.64C40.8009 41.64 42.7609 37.6 42.7609 34.48C42.7609 29.52 40.7609 24.76 37.8409 20.84C36.6409 19.2 35.1609 17.72 34.4409 15.76ZM57.2453 9.32C57.1653 10.28 57.1253 11.2 57.1253 12.16C57.1253 15.44 57.5653 18.64 57.7253 21.92C58.0053 27.08 58.0053 32.24 58.0053 37.4C58.0053 39.28 58.0453 39.8 60.1253 39.8C61.4453 39.8 61.4853 39.36 61.4853 38.16C61.4853 36.72 61.1253 35.28 61.0053 33.8C60.7253 30.6 60.4453 27.4 60.4453 24.16C60.4453 23.4 60.2853 22.68 60.2853 21.92C60.2853 21.32 60.3653 20.84 60.8453 20.4C61.3253 19.96 62.9253 19.76 63.6853 19.32C65.3653 18.36 67.0053 16.04 67.0053 14.08C67.0053 13.28 66.7253 12.52 66.2853 11.88C64.4453 9.12 60.1653 9.44 57.2453 9.32ZM63.5253 16C63.1653 16.8 61.6053 17.88 60.7253 17.88C60.0053 17.88 59.8453 17.2 59.8453 16.64C59.8453 15.96 60.0053 15.32 60.0453 14.68C60.0853 14.16 60.0053 13.68 60.0053 13.16C60.0053 12.68 60.0853 12.2 60.6453 12.2C62.0453 12.2 63.7253 13.6 63.7253 15.04C63.7253 15.36 63.6453 15.68 63.5253 16ZM83.1219 18.16C82.7619 14.56 82.2419 6.96 77.2819 6.96C73.6419 6.96 69.5219 11.36 69.5219 14.92C69.5219 15.88 70.8419 15.84 71.4819 15.84C71.6419 15.84 71.8019 15.88 71.9619 15.84C73.4819 15.72 73.4419 15.4 73.4419 14C73.4419 12.32 74.5619 10.28 76.4419 10.28C77.3219 10.28 78.0019 10.88 78.4819 11.52C80.1619 13.84 80.1619 27 80.1619 30.48C80.1219 30.52 80.0419 30.52 79.9619 30.52C78.9219 30.52 77.6019 29.36 76.1619 29.36C73.4019 29.36 72.0819 31.76 72.0819 34.24C72.0819 39.88 75.8019 42.4 81.1219 42.4C83.8419 42.4 83.5219 41.28 83.5219 39.12C83.5219 35.68 83.6419 32.24 83.6419 28.8C83.6419 25.24 83.5219 21.68 83.1219 18.16ZM79.2019 39.24C77.0819 39.24 75.6019 36.96 75.6019 35C75.6019 33.64 76.5219 32.56 77.9219 32.56C79.7219 32.56 80.2819 33 80.2819 34.84C80.2819 35.84 80.6019 36.8 80.6019 37.8C80.6019 38.4 80.4819 39.24 79.7219 39.24H79.2019ZM94.8359 24.92C94.5559 23.76 93.9159 22.68 93.9159 21.48C93.9159 21.12 94.0359 20.76 94.2759 20.48C94.5959 20.2 95.3959 20.04 95.8359 19.84C97.2359 19.04 98.2359 16.2 98.2359 14.64C98.2359 10.76 93.9559 8.88 90.5959 8.88C89.7159 8.88 88.8759 9.04 88.8759 10.08C88.8759 10.88 89.0759 11.64 89.0759 12.44C89.0759 15.56 88.9559 18.72 88.9559 21.84C88.9559 27.36 89.0359 32.92 89.0359 38.44C89.0359 40.16 89.0359 40.28 90.7959 40.28C91.5559 40.28 91.9559 40.12 91.9559 39.28V32.48C91.9559 29.16 91.6359 25.84 91.6359 22.52C91.6359 22.2 91.6359 21.84 91.7159 21.52C92.3959 22.92 94.9559 33.6 95.2759 35.64C95.3959 36.16 95.5159 38.56 96.2359 38.56C96.8359 38.56 98.3159 38.12 98.3159 37.36C98.3159 36.64 97.8759 35.92 97.6359 35.24C96.3959 31.92 95.5959 28.36 94.8359 24.92ZM91.8359 18V15.88C91.8359 14.8 91.5959 13.76 91.5959 12.72C91.5959 12.08 91.8759 11.32 92.5959 11.32C94.1559 11.32 95.4759 13.16 95.4759 14.6C95.4759 15.28 95.2759 15.92 94.8759 16.48C94.5159 17 92.7559 18.32 92.1159 18.32C91.9559 18.32 91.8359 18.2 91.8359 18ZM109.942 5.92C109.222 5.48 108.382 5.28 107.542 5.28C102.862 5.28 101.742 9.8 101.422 13.6C101.102 17.08 101.142 20.6 101.142 24.12C101.142 29.2 101.222 36.92 105.182 40.64C105.982 41.4 107.022 41.88 108.142 41.88C109.502 41.88 110.742 41.16 111.622 40.12C113.542 37.84 113.422 34.52 113.582 31.72C112.942 31.84 112.262 31.92 111.582 31.96C110.662 32 110.582 31.88 110.342 32.88C110.062 33.84 110.262 34.88 110.022 35.84C109.782 36.84 108.982 38.36 107.822 38.36C103.942 38.36 104.222 24.6 104.222 21.84C104.222 20.48 104.142 19.12 104.142 17.76C104.142 15.6 104.142 8.8 107.302 8.8C111.222 8.8 110.022 16.56 110.702 18.96C110.942 19.88 111.102 19.96 112.062 19.96C112.622 19.96 113.182 19.92 113.742 19.92C113.782 19.48 113.782 19.04 113.782 18.6C113.782 15.08 113.262 7.96 109.942 5.92ZM126.193 25.68C124.793 23.12 120.713 19.96 120.713 16.96C120.713 16.44 120.793 15.24 121.553 15.24C123.233 15.24 121.833 17.4 123.793 17.4C124.433 17.4 125.073 17.32 125.713 17.24C125.633 15.04 124.033 12.44 121.633 12.44C119.353 12.44 117.833 14.6 117.833 16.72C117.833 22.24 124.713 25 124.713 31C124.713 32.04 124.233 33.8 122.913 33.8C121.313 33.8 121.433 31.8 121.433 30.68C121.433 29.8 120.593 29.24 119.753 29.24C118.673 29.24 118.273 30.12 118.273 31.08C118.273 33.6 120.073 36.68 122.873 36.68C125.953 36.68 127.553 33.56 127.553 30.84C127.553 29.04 127.033 27.24 126.193 25.68ZM153.525 10.08C152.605 7.96 151.005 6.16 148.565 6.16C142.645 6.16 142.365 15.32 142.365 19.48C142.365 21.88 142.485 24.24 142.685 26.64C142.805 28.12 142.965 29.64 142.965 31.12C142.965 33.2 143.085 35.28 143.085 37.36C143.085 38.56 142.805 39.72 142.805 40.92C142.805 42.4 143.405 42.96 144.965 42.96C146.285 42.96 146.365 41.88 146.365 40.8C146.365 39.68 146.125 38.6 146.125 37.48C146.005 33.12 145.845 28.76 145.845 24.4C145.845 23.92 145.885 23.72 146.445 23.72C147.845 23.72 149.285 24.04 150.725 24.04C152.125 24.04 153.205 24.12 153.205 22.48C153.205 21.72 153.205 19.92 152.205 19.92C150.445 19.92 148.725 20.64 146.965 20.64C145.845 20.64 146.005 19.08 146.005 18.32C146.005 17.12 146.125 15.96 146.205 14.76C146.325 13.16 146.405 9.92 148.765 9.92C150.605 9.92 151.325 13.32 151.565 14.76C152.845 14.52 154.325 14.68 154.325 12.92C154.325 11.96 153.885 10.92 153.525 10.08ZM170.622 18.16C170.262 14.56 169.742 6.96 164.782 6.96C161.142 6.96 157.022 11.36 157.022 14.92C157.022 15.88 158.342 15.84 158.982 15.84C159.142 15.84 159.302 15.88 159.462 15.84C160.982 15.72 160.942 15.4 160.942 14C160.942 12.32 162.062 10.28 163.942 10.28C164.822 10.28 165.502 10.88 165.982 11.52C167.662 13.84 167.662 27 167.662 30.48C167.622 30.52 167.542 30.52 167.462 30.52C166.422 30.52 165.102 29.36 163.662 29.36C160.902 29.36 159.582 31.76 159.582 34.24C159.582 39.88 163.302 42.4 168.622 42.4C171.342 42.4 171.022 41.28 171.022 39.12C171.022 35.68 171.142 32.24 171.142 28.8C171.142 25.24 171.022 21.68 170.622 18.16ZM166.702 39.24C164.582 39.24 163.102 36.96 163.102 35C163.102 33.64 164.022 32.56 165.422 32.56C167.222 32.56 167.782 33 167.782 34.84C167.782 35.84 168.102 36.8 168.102 37.8C168.102 38.4 167.982 39.24 167.222 39.24H166.702ZM179.536 37.8C179.576 37.56 179.616 37.32 179.616 37.04C179.616 35.84 179.296 34.68 179.176 33.48C178.816 29.96 178.896 26.44 178.896 22.92C178.896 22 178.776 21.12 177.656 21.12C175.816 21.12 175.456 21.68 175.456 23.44C175.456 24.92 175.776 26.4 175.936 27.92C176.216 30.48 176.136 33.12 176.136 35.68C176.136 38 176.376 38.08 178.616 38.08C178.936 38.08 179.296 38.08 179.536 37.8ZM175.936 17.72C176.416 17.72 176.896 17.84 177.376 17.84C178.216 17.84 178.496 17.24 178.496 16.48C178.496 15.76 178.336 15.08 178.296 14.36C178.296 13.76 178.376 13.2 178.376 12.6C178.376 11.24 177.376 11.04 176.216 11.04C175.856 11.04 175.496 11.04 175.176 11.12C175.016 11.2 174.976 11.4 174.976 11.56C174.976 12.12 175.216 12.6 175.296 13.12C175.456 14.28 175.376 15.44 175.376 16.6C175.376 16.96 175.376 17.4 175.496 17.76C175.656 17.72 175.776 17.72 175.936 17.72ZM192.453 8.28C191.973 8.08 191.493 8.04 191.013 8.04C190.093 8.04 189.173 8.2 188.213 8.2C187.053 8.2 185.853 8.24 184.733 7.96C184.333 7.88 183.973 7.68 183.573 7.68C182.933 7.68 182.812 9.28 182.812 9.76C182.812 10.48 182.933 11.32 183.893 11.32C184.613 11.32 185.253 10.88 185.973 10.88C187.253 10.88 187.173 11.88 187.173 12.84C187.373 20.76 187.933 28.64 188.173 36.56V36.68C188.173 37.72 188.053 38.76 188.053 39.8C188.053 40.96 188.213 41.44 189.493 41.44C190.293 41.44 191.453 41.32 191.453 40.24C191.453 39.6 191.253 39 191.173 38.4C191.093 37.68 191.133 37 191.133 36.28C191.133 35.64 191.093 34.96 191.053 34.28C190.733 30.6 190.533 26.92 190.373 23.24C190.213 19.68 190.253 16.16 189.893 12.64C189.853 12.36 189.813 12.08 189.813 11.76C189.813 11.48 189.813 10.96 190.213 10.96C190.773 10.96 191.293 11.44 191.893 11.44C192.693 11.44 193.253 10.68 193.253 9.92C193.253 9.32 193.013 8.6 192.453 8.28ZM201.082 15.76C200.762 14.88 200.562 13.92 200.562 12.96C200.562 11.72 201.082 9.88 202.642 9.88C205.002 9.88 204.362 13.8 205.122 14.12C205.642 14.36 206.202 14.36 206.762 14.36C207.442 14.36 207.642 13.88 207.642 13.28C207.642 10.52 206.002 7.48 202.882 7.48C199.562 7.48 197.882 10.12 197.882 13.2C197.882 18.96 204.242 23.44 205.762 29C206.122 30.44 206.162 31.96 206.162 33.44C206.162 35.04 206.122 39.8 203.802 39.8C201.242 39.8 201.322 35.04 201.322 33.28C201.322 31.84 201.042 31.16 199.442 31.16C198.442 31.16 198.242 32.16 198.242 32.92C198.242 36.52 199.402 41.64 203.882 41.64C207.442 41.64 209.402 37.6 209.402 34.48C209.402 29.52 207.402 24.76 204.482 20.84C203.282 19.2 201.802 17.72 201.082 15.76ZM223.886 9.32C223.806 10.28 223.766 11.2 223.766 12.16C223.766 15.44 224.206 18.64 224.366 21.92C224.646 27.08 224.646 32.24 224.646 37.4C224.646 39.28 224.686 39.8 226.766 39.8C228.086 39.8 228.126 39.36 228.126 38.16C228.126 36.72 227.766 35.28 227.646 33.8C227.366 30.6 227.086 27.4 227.086 24.16C227.086 23.4 226.926 22.68 226.926 21.92C226.926 21.32 227.006 20.84 227.486 20.4C227.966 19.96 229.566 19.76 230.326 19.32C232.006 18.36 233.646 16.04 233.646 14.08C233.646 13.28 233.366 12.52 232.926 11.88C231.086 9.12 226.806 9.44 223.886 9.32ZM230.166 16C229.806 16.8 228.246 17.88 227.366 17.88C226.646 17.88 226.486 17.2 226.486 16.64C226.486 15.96 226.646 15.32 226.686 14.68C226.726 14.16 226.646 13.68 226.646 13.16C226.646 12.68 226.726 12.2 227.286 12.2C228.686 12.2 230.366 13.6 230.366 15.04C230.366 15.36 230.286 15.68 230.166 16ZM244.33 37.48C251.09 37.48 252.89 29.12 252.89 23.8C252.89 18.32 251.17 11.4 244.41 11.4C238.21 11.4 235.61 18.08 235.61 23.36C235.61 28.88 237.25 37.48 244.33 37.48ZM244.41 14.6C248.57 14.6 249.93 20.36 249.93 23.64C249.93 27.24 249.21 34.36 244.33 34.36C238.97 34.36 238.77 27.56 238.77 23.68C238.77 20 239.69 14.6 244.41 14.6ZM270.748 12H270.348C269.348 12 268.148 12.04 268.148 13.36C268.148 14.12 268.228 14.84 268.228 15.56C268.228 17.56 268.188 19.56 268.188 21.56C268.188 24.76 269.028 33.08 264.068 33.08C259.468 33.08 259.268 27.28 259.268 23.92C259.268 20.4 259.388 16.92 259.388 13.4C259.388 12.84 258.708 12.84 258.348 12.84C257.588 12.84 257.108 12.88 256.508 13.4C256.348 13.56 256.188 21.08 256.188 22C256.188 26.68 256.628 35.96 263.148 35.96C270.468 35.96 271.668 28.04 271.668 22.32C271.668 19.28 271.308 16.28 271.308 13.24C271.308 12.72 271.308 12.24 270.748 12ZM282.258 24.92C281.978 23.76 281.338 22.68 281.338 21.48C281.338 21.12 281.458 20.76 281.698 20.48C282.018 20.2 282.818 20.04 283.258 19.84C284.658 19.04 285.658 16.2 285.658 14.64C285.658 10.76 281.378 8.88 278.018 8.88C277.138 8.88 276.298 9.04 276.298 10.08C276.298 10.88 276.498 11.64 276.498 12.44C276.498 15.56 276.378 18.72 276.378 21.84C276.378 27.36 276.458 32.92 276.458 38.44C276.458 40.16 276.458 40.28 278.218 40.28C278.978 40.28 279.378 40.12 279.378 39.28V32.48C279.378 29.16 279.058 25.84 279.058 22.52C279.058 22.2 279.058 21.84 279.138 21.52C279.818 22.92 282.378 33.6 282.698 35.64C282.818 36.16 282.938 38.56 283.658 38.56C284.258 38.56 285.738 38.12 285.738 37.36C285.738 36.64 285.298 35.92 285.058 35.24C283.818 31.92 283.018 28.36 282.258 24.92ZM279.258 18V15.88C279.258 14.8 279.018 13.76 279.018 12.72C279.018 12.08 279.298 11.32 280.018 11.32C281.578 11.32 282.898 13.16 282.898 14.6C282.898 15.28 282.698 15.92 282.298 16.48C281.938 17 280.178 18.32 279.538 18.32C279.378 18.32 279.258 18.2 279.258 18ZM311.683 39.36C311.283 39 309.963 37.8 309.523 37.8C309.083 37.8 308.643 38.88 307.683 38.88C305.003 38.88 305.003 33.56 305.003 31.72C305.003 26.72 305.283 21.68 305.603 16.68C306.203 16.68 309.683 16.68 309.683 15.96C309.683 15.56 309.563 15.2 309.563 14.8C309.563 14.56 309.603 14.36 309.603 14.12C309.603 13.52 308.923 13.44 308.483 13.44C307.683 13.44 306.923 13.64 306.123 13.64H305.803C305.923 11.88 306.163 10.12 306.163 8.36C306.163 7.12 305.363 6.48 304.123 6.48C302.243 6.48 302.723 9.28 302.723 10.44C302.723 11.44 302.643 12.44 302.643 13.48H302.363C300.243 13.48 299.963 13.52 299.963 15.72C299.963 15.88 299.963 16.04 300.003 16.16C300.563 16.56 301.883 16.6 302.603 16.64C302.563 21.28 302.043 25.88 302.043 30.52C302.043 34.24 302.043 42.64 307.363 42.64C308.683 42.64 311.843 41.24 311.843 39.68C311.843 39.56 311.763 39.44 311.683 39.36ZM320.19 37.48C326.95 37.48 328.75 29.12 328.75 23.8C328.75 18.32 327.03 11.4 320.27 11.4C314.07 11.4 311.47 18.08 311.47 23.36C311.47 28.88 313.11 37.48 320.19 37.48ZM320.27 14.6C324.43 14.6 325.79 20.36 325.79 23.64C325.79 27.24 325.07 34.36 320.19 34.36C314.83 34.36 314.63 27.56 314.63 23.68C314.63 20 315.55 14.6 320.27 14.6ZM336.567 37.8C336.607 37.56 336.647 37.32 336.647 37.04C336.647 35.84 336.327 34.68 336.207 33.48C335.847 29.96 335.927 26.44 335.927 22.92C335.927 22 335.807 21.12 334.687 21.12C332.847 21.12 332.487 21.68 332.487 23.44C332.487 24.92 332.807 26.4 332.967 27.92C333.247 30.48 333.167 33.12 333.167 35.68C333.167 38 333.407 38.08 335.647 38.08C335.967 38.08 336.327 38.08 336.567 37.8ZM332.967 17.72C333.447 17.72 333.927 17.84 334.407 17.84C335.247 17.84 335.527 17.24 335.527 16.48C335.527 15.76 335.367 15.08 335.327 14.36C335.327 13.76 335.407 13.2 335.407 12.6C335.407 11.24 334.407 11.04 333.247 11.04C332.887 11.04 332.527 11.04 332.207 11.12C332.047 11.2 332.007 11.4 332.007 11.56C332.007 12.12 332.247 12.6 332.327 13.12C332.487 14.28 332.407 15.44 332.407 16.6C332.407 16.96 332.407 17.4 332.527 17.76C332.687 17.72 332.807 17.72 332.967 17.72ZM353.843 36.12C353.363 36.12 352.963 36.48 352.963 36.96C352.923 38.04 352.882 39.16 352.882 40.28C352.882 40.44 352.843 40.92 352.963 41.08C353.163 41.36 354.603 41.4 354.963 41.4C355.443 41.4 355.803 41.04 355.803 40.56C355.803 39.4 355.803 38.2 355.763 37C355.763 36.56 355.443 36.24 354.963 36.2C354.603 36.16 354.202 36.16 353.843 36.12ZM352.563 11.28C352.963 14.92 352.843 19.16 352.963 22.88C352.963 23.72 352.963 24.56 352.963 25.44C352.963 27.44 352.882 29.44 352.882 31.44C352.882 31.64 352.843 32.08 352.963 32.28C353.123 32.56 354.643 32.6 354.963 32.6C355.443 32.6 355.803 32.24 355.803 31.76C355.803 25.84 355.643 19.88 355.643 13.96C355.643 12.64 355.803 11.36 355.803 10.04C355.803 9.44 355.763 8.88 355.683 8.28C355.563 7.56 355.763 7.28 354.843 7.28C354.403 7.28 352.443 7.32 352.283 7.84C352.363 8 352.243 8.6 352.243 8.84C352.243 9.64 352.443 10.48 352.563 11.28Z" fill="white"/>
</g>
<defs>
<filter id="filter0_d" x="0.361328" y="0.279999" width="364.441" height="53.68" filterUnits="userSpaceOnUse" color-interpolation-filters="sRGB">
<feFlood flood-opacity="0" result="BackgroundImageFix"/>
<feColorMatrix in="SourceAlpha" type="matrix" values="0 0 0 0 0 0 0 0 0 0 0 0 0 0 0 0 0 0 127 0"/>
<feOffset dx="1" dy="3"/>
<feGaussianBlur stdDeviation="4"/>
<feColorMatrix type="matrix" values="0 0 0 0 0.101961 0 0 0 0 0.0784314 0 0 0 0 0.407843 0 0 0 1 0"/>
<feBlend mode="normal" in2="BackgroundImageFix" result="effect1_dropShadow"/>
<feBlend mode="normal" in="SourceGraphic" in2="effect1_dropShadow" result="shape"/>
</filter>
</defs>
</svg>
