<svg width="167" height="155" viewBox="0 0 167 155" fill="none" xmlns="http://www.w3.org/2000/svg">
<g clip-path="url(#clip0)">
<g clip-path="url(#clip1)">
<path d="M69.7098 59.3115H51.4222V69.8511H69.7098V59.3115Z" fill="#27317B"/>
<path d="M74.2553 54.0514H49.0677V54.6337H74.2553V54.0514Z" fill="#27317B"/>
<path d="M75.322 56.3517H48.1356V56.934H75.322V56.3517Z" fill="#27317B"/>
<path d="M73.5394 54.6481H49.4041V56.3517H73.5394V54.6481Z" fill="#A3AEF0"/>
<path d="M73.5394 56.9341H49.4041V58.734H73.5394V56.9341Z" fill="#A3AEF0"/>
<path d="M49.9951 59.3115V69.8511L53.8199 69.8655V60.3751L53.2913 60.3703L53.2817 59.3115H49.9951Z" fill="#A3AEF0"/>
<path d="M53.2144 60.9863H51.5135V66.054H53.2144V60.9863Z" fill="#F5B37B"/>
<path d="M72.9195 59.3115V69.8848L69.0996 69.8607V60.3847L69.6282 60.3751L69.6378 59.3115H72.9195Z" fill="#A3AEF0"/>
<path d="M69.7013 66.1143L71.4022 66.1143L71.4022 61.0466L69.7013 61.0466L69.7013 66.1143Z" fill="#F5B37B"/>
<path d="M73.5394 58.7291H49.4041V59.3114H73.5394V58.7291Z" fill="#27317B"/>
<path d="M55.8475 59.3115V60.3125L55.4103 60.3174L55.3815 69.8511H57.241L57.1977 60.3414L56.7893 60.3318L56.7797 59.3115H55.8475Z" fill="#A3AEF0"/>
<path d="M59.3215 59.3115V60.3125L58.8842 60.3174L58.8554 69.8511L60.7005 69.8655L60.6717 60.3414L60.2681 60.3318L60.2536 59.3115H59.3215Z" fill="#A3AEF0"/>
<path d="M62.7907 59.3115V60.3125L62.3534 60.3174L62.3246 69.8511L64.1697 69.8655L64.1409 60.3414L63.7372 60.3318L63.7228 59.3115H62.7907Z" fill="#A3AEF0"/>
<path d="M66.2647 59.3115V60.3125L65.8274 60.3174L65.7986 69.8511H67.6533L67.6148 60.3414L67.2112 60.3318L67.2016 59.3115H66.2647Z" fill="#A3AEF0"/>
<path d="M73.5394 69.8511H49.6251V70.5922H73.5394V69.8511Z" fill="#27317B"/>
<path d="M74.1832 70.597H48.8467V71.5307H74.1832V70.597Z" fill="#F5B37B"/>
<path d="M74.8655 71.5306H48.1164V72.3777H74.8655V71.5306Z" fill="#27317B"/>
<path d="M52.6042 57.1218H52.1045V58.5271H52.6042V57.1218Z" fill="#F5B37B"/>
<path d="M53.2865 57.1218H52.7868V58.5271H53.2865V57.1218Z" fill="#F5B37B"/>
<path d="M53.9736 57.1218H53.4739V58.5271H53.9736V57.1218Z" fill="#F5B37B"/>
<path d="M55.343 57.1218H54.8433V58.5271H55.343V57.1218Z" fill="#F5B37B"/>
<path d="M56.0205 57.1218H55.5208V58.5271H56.0205V57.1218Z" fill="#F5B37B"/>
<path d="M56.7076 57.1218H56.2079V58.5271H56.7076V57.1218Z" fill="#F5B37B"/>
<path d="M58.1059 57.1218H57.6061V58.5271H58.1059V57.1218Z" fill="#F5B37B"/>
<path d="M58.7882 57.1218H58.2885V58.5271H58.7882V57.1218Z" fill="#F5B37B"/>
<path d="M59.4705 57.1218H58.9708V58.5271H59.4705V57.1218Z" fill="#F5B37B"/>
<path d="M60.8062 57.1218H60.3065V58.5271H60.8062V57.1218Z" fill="#F5B37B"/>
<path d="M61.4885 57.1218H60.9888V58.5271H61.4885V57.1218Z" fill="#F5B37B"/>
<path d="M62.1709 57.1218H61.6711V58.5271H62.1709V57.1218Z" fill="#F5B37B"/>
<path d="M63.5402 57.1218H63.0405V58.5271H63.5402V57.1218Z" fill="#F5B37B"/>
<path d="M64.2226 57.1218H63.7228V58.5271H64.2226V57.1218Z" fill="#F5B37B"/>
<path d="M64.9049 57.1218H64.4052V58.5271H64.9049V57.1218Z" fill="#F5B37B"/>
<path d="M66.3079 57.1218H65.8082V58.5271H66.3079V57.1218Z" fill="#F5B37B"/>
<path d="M66.9854 57.1218H66.4857V58.5271H66.9854V57.1218Z" fill="#F5B37B"/>
<path d="M67.6725 57.1218H67.1728V58.5271H67.6725V57.1218Z" fill="#F5B37B"/>
<path d="M69.0179 57.1313H68.5182V58.5366H69.0179V57.1313Z" fill="#F5B37B"/>
<path d="M69.7002 57.1313H69.2005V58.5366H69.7002V57.1313Z" fill="#F5B37B"/>
<path d="M70.3825 57.1313H69.8828V58.5366H70.3825V57.1313Z" fill="#F5B37B"/>
<path d="M82.5487 56.3854H76.5905V72.3776H82.5487V56.3854Z" fill="#FFFFF9"/>
<path d="M81.9384 66.718H77.2728V67.3388H81.9384V66.718Z" fill="#27317B"/>
<path d="M80.3384 68.5662H78.8873V69.187H80.3384V68.5662Z" fill="#A3AEF0"/>
<path d="M78.8248 67.3389H78.5269V68.4265H78.8248V67.3389Z" fill="#A3AEF0"/>
<path d="M79.435 67.3389H79.1371V68.4265H79.435V67.3389Z" fill="#A3AEF0"/>
<path d="M80.0645 67.3389H79.7666V68.4265H80.0645V67.3389Z" fill="#A3AEF0"/>
<path d="M80.6699 67.3389H80.372V68.4265H80.6699V67.3389Z" fill="#A3AEF0"/>
<path d="M77.7341 63.4791H77.2728V63.9026H77.7341V63.4791Z" fill="#A3AEF0"/>
<path d="M78.9017 63.4791H78.4404V63.9026H78.9017V63.4791Z" fill="#A3AEF0"/>
<path d="M80.766 63.4791H80.3047V63.9026H80.766V63.4791Z" fill="#A3AEF0"/>
<path d="M81.9336 63.484H81.4724V63.9075H81.9336V63.484Z" fill="#A3AEF0"/>
<path d="M77.7341 66.718H77.2728V67.1415H77.7341V66.718Z" fill="#A3AEF0"/>
<path d="M78.9017 66.718H78.4404V67.1415H78.9017V66.718Z" fill="#A3AEF0"/>
<path d="M80.766 66.718H80.3047V67.1415H80.766V66.718Z" fill="#A3AEF0"/>
<path d="M81.9384 66.7133H81.4771V67.1368H81.9384V66.7133Z" fill="#A3AEF0"/>
<path d="M78.4404 63.4791H77.7341V66.7132H78.4404V63.4791Z" fill="#27317B"/>
<path d="M81.4723 63.484H80.766V66.7181H81.4723V63.484Z" fill="#27317B"/>
<path d="M82.7456 63.484H76.48C76.4271 63.484 76.3791 63.4406 76.3791 63.3829V63.3636C76.3791 63.3107 76.4223 63.2626 76.48 63.2626H82.7456C82.7985 63.2626 82.8465 63.3059 82.8465 63.3636V63.3829C82.8465 63.4358 82.8033 63.484 82.7456 63.484Z" fill="#27317B"/>
<path d="M82.7024 62.6467H76.4367C76.3839 62.6467 76.3358 62.6034 76.3358 62.5456V62.5264C76.3358 62.4734 76.3791 62.4253 76.4367 62.4253H82.7024C82.7552 62.4253 82.8033 62.4686 82.8033 62.5264V62.5456C82.8033 62.6034 82.7552 62.6467 82.7024 62.6467Z" fill="#27317B"/>
<path d="M79.5984 64.278C79.9726 64.278 80.2759 63.9441 80.2759 63.5321C80.2759 63.1201 79.9726 62.7861 79.5984 62.7861C79.2242 62.7861 78.9209 63.1201 78.9209 63.5321C78.9209 63.9441 79.2242 64.278 79.5984 64.278Z" fill="#A3AEF0"/>
<path d="M80.3047 63.4791H78.8969V66.7132H80.3047V63.4791Z" fill="#27317B"/>
<path d="M78.5221 56.3854H77.7341V60.9044H78.5221V56.3854Z" fill="#27317B"/>
<path d="M81.4723 56.3854H80.6843V60.9044H81.4723V56.3854Z" fill="#27317B"/>
<path d="M82.5487 57.3142H76.5905V57.8821H82.5487V57.3142Z" fill="#A3AEF0"/>
<path d="M82.073 55.3796H77.1094V56.3855H82.073V55.3796Z" fill="#A3AEF0"/>
<path d="M82.294 55.3796H76.8211C76.7683 55.3796 76.7299 55.3363 76.7299 55.2882V55.2593C76.7299 55.2063 76.7731 55.1678 76.8211 55.1678H82.294C82.3468 55.1678 82.3853 55.2112 82.3853 55.2593V55.2882C82.3901 55.3411 82.3468 55.3796 82.294 55.3796Z" fill="#27317B"/>
<path d="M77.1094 55.163C77.1094 55.163 76.7587 51.0387 79.1035 50.5718C81.6741 50.0617 81.9961 53.1803 82.0441 53.6278C82.1402 54.5567 82.0729 55.1582 82.0729 55.1582" fill="#FFFFF9"/>
<path d="M78.3923 54.3497H77.7533V55.2834H78.3923V54.3497Z" fill="#27317B"/>
<path d="M81.4435 54.3497H80.8044V55.2834H81.4435V54.3497Z" fill="#27317B"/>
<path d="M82.0729 55.0283H77.0998V55.1631H82.0729V55.0283Z" fill="#A3AEF0"/>
<path d="M82.0826 54.4845H77.0902V54.6192H82.0826V54.4845Z" fill="#A3AEF0"/>
<path d="M77.7533 53.7626L77.7629 54.2679H78.3683L78.3971 53.6759L78.6278 52.5402L79.3149 51.8087L79.7041 51.568L80.0212 51.8375L80.4296 52.391L80.593 52.8722C80.593 52.8722 80.8092 53.8973 80.8044 54.2679H81.4435C81.4435 54.2679 81.5204 52.8626 81.7606 52.2659C81.7606 52.2659 81.2897 50.4756 79.5936 50.4996C77.9551 50.5189 77.5274 51.8664 77.3352 52.5787C77.3256 52.5739 77.6283 52.5979 77.7533 53.7626Z" fill="#A3AEF0"/>
<path d="M77.4602 52.1744C77.4602 52.1744 77.7581 53.1466 77.7485 53.7818C77.7485 53.7818 77.5323 52.6894 77.3257 52.5931L77.4602 52.1744Z" fill="#27317B"/>
<path d="M78.3924 53.7289C78.3924 53.7289 78.6278 52.0252 79.5936 52.0493C80.5402 52.0734 80.718 53.599 80.718 53.599C80.718 53.599 80.6315 51.2119 79.56 51.2456C78.4645 51.2889 78.3924 53.7289 78.3924 53.7289Z" fill="#27317B"/>
<path d="M81.7462 52.2515C81.7462 52.2515 81.4483 53.2236 81.4579 53.8589C81.4579 53.8589 81.6742 52.7664 81.8808 52.6702L81.7462 52.2515Z" fill="#27317B"/>
<path d="M82.2843 54.4845H76.8115C76.7587 54.4845 76.7202 54.4411 76.7202 54.393V54.3641C76.7202 54.3112 76.7635 54.2727 76.8115 54.2727H82.2843C82.3372 54.2727 82.3756 54.316 82.3756 54.3641V54.393C82.3756 54.4411 82.3324 54.4845 82.2843 54.4845Z" fill="#27317B"/>
<path d="M80.5113 50.3938H78.6374V50.8221H80.5113V50.3938Z" fill="#FFFFF9"/>
<path d="M80.348 49.3687H78.8008V50.3937H80.348V49.3687Z" fill="#A3AEF0"/>
<path d="M80.5162 49.2051H78.6278V49.3735H80.5162V49.2051Z" fill="#FFFFF9"/>
<path d="M80.5162 48.589H78.6278V48.7574H80.5162V48.589Z" fill="#FFFFF9"/>
<path d="M80.5162 48.7574H78.6278V49.205H80.5162V48.7574Z" fill="#A3AEF0"/>
<path d="M79.5792 46.1057C79.4879 46.1057 79.411 46.0287 79.411 45.9373V43.3625C79.411 43.2711 79.4879 43.1941 79.5792 43.1941C79.6705 43.1941 79.7474 43.2711 79.7474 43.3625V45.9373C79.7474 46.0335 79.6705 46.1057 79.5792 46.1057Z" fill="#27317B"/>
<path d="M78.9786 48.0692L78.9882 46.5773C78.9882 46.5773 79.0266 45.995 79.5888 45.995C80.151 45.995 80.1894 46.5773 80.1894 46.5773L80.2038 48.074H78.9786V48.0692Z" fill="#FFFFF9"/>
<path d="M78.9689 48.5891L78.9785 47.1453C78.9785 47.1453 79.017 46.5774 79.584 46.5774C80.151 46.5774 80.1894 47.1405 80.1894 47.1405L80.2038 48.5891H78.9689Z" fill="#A3AEF0"/>
<path d="M79.1467 48.5891L79.1515 47.4677C79.1515 47.4677 79.1804 47.0298 79.5888 47.0298C79.9972 47.0298 80.026 47.4677 80.026 47.4677L80.0356 48.5891H79.1467Z" fill="#27317B"/>
<path d="M175.424 74.0765H47.7368C47.2707 74.0765 46.8959 73.6963 46.8959 73.2343C46.8959 72.7675 47.2755 72.3921 47.7368 72.3921H175.424C175.89 72.3921 176.264 72.7723 176.264 73.2343C176.269 73.6963 175.89 74.0765 175.424 74.0765Z" fill="#A3AEF0"/>
<path d="M172.709 89.5009H50.3458C46.0935 89.5009 42.6147 86.0165 42.6147 81.7574C42.6147 77.4982 46.0935 74.0139 50.3458 74.0139H172.704C176.956 74.0139 180.435 77.4982 180.435 81.7574C180.435 86.0165 176.956 89.5009 172.709 89.5009Z" fill="#F5B37B"/>
<path d="M143.85 44.0893C143.821 44.0893 143.802 44.0652 143.802 44.0411V41.6541C143.802 41.6252 143.826 41.606 143.85 41.606C143.879 41.606 143.898 41.63 143.898 41.6541V44.0411C143.898 44.0652 143.879 44.0893 143.85 44.0893Z" fill="#F3A059"/>
<path d="M136.018 72.3824L140.208 72.3969C140.208 72.3969 140.371 66.5447 143.759 66.3234C147.146 66.102 147.54 72.3824 147.54 72.3824H151.855C151.855 72.3824 145.292 64.2251 144.797 55.0619H142.832C142.832 55.0619 141.534 65.3705 136.018 72.3824Z" fill="#27317B"/>
<path d="M147.122 63.5658H140.285C140.17 63.5658 140.073 63.4696 140.073 63.3541C140.073 63.2386 140.17 63.1423 140.285 63.1423H147.122C147.238 63.1423 147.334 63.2386 147.334 63.3541C147.339 63.4696 147.242 63.5658 147.122 63.5658Z" fill="#65ADA5"/>
<path d="M148.04 63.5465H139.497V64.971H148.04V63.5465Z" fill="#F3A059"/>
<path d="M148.737 65.1684H138.791C138.738 65.1684 138.69 65.1251 138.69 65.0674C138.69 65.0144 138.733 64.9663 138.791 64.9663H148.737C148.79 64.9663 148.838 65.0096 148.838 65.0674C148.833 65.1251 148.79 65.1684 148.737 65.1684Z" fill="#65ADA5"/>
<path d="M141.481 64.7497C141.352 64.7497 141.246 64.6438 141.246 64.5139V64.1048C141.246 63.9749 141.352 63.869 141.481 63.869C141.611 63.869 141.717 63.9749 141.717 64.1048V64.5139C141.717 64.6438 141.611 64.7497 141.481 64.7497Z" fill="#FFFFF9"/>
<path d="M140.833 64.7497C140.703 64.7497 140.597 64.6438 140.597 64.5139V64.1048C140.597 63.9749 140.703 63.869 140.833 63.869C140.962 63.869 141.068 63.9749 141.068 64.1048V64.5139C141.073 64.6438 140.962 64.7497 140.833 64.7497Z" fill="#FFFFF9"/>
<path d="M142.803 64.7497C142.673 64.7497 142.567 64.6438 142.567 64.5139V64.1048C142.567 63.9749 142.673 63.869 142.803 63.869C142.932 63.869 143.038 63.9749 143.038 64.1048V64.5139C143.038 64.6438 142.932 64.7497 142.803 64.7497Z" fill="#FFFFF9"/>
<path d="M142.154 64.7497C142.024 64.7497 141.919 64.6438 141.919 64.5139V64.1048C141.919 63.9749 142.024 63.869 142.154 63.869C142.284 63.869 142.389 63.9749 142.389 64.1048V64.5139C142.389 64.6438 142.284 64.7497 142.154 64.7497Z" fill="#FFFFF9"/>
<path d="M144.1 64.7497C143.97 64.7497 143.865 64.6438 143.865 64.5139V64.1048C143.865 63.9749 143.97 63.869 144.1 63.869C144.23 63.869 144.336 63.9749 144.336 64.1048V64.5139C144.34 64.6438 144.23 64.7497 144.1 64.7497Z" fill="#FFFFF9"/>
<path d="M143.456 64.7497C143.326 64.7497 143.221 64.6438 143.221 64.5139V64.1048C143.221 63.9749 143.326 63.869 143.456 63.869C143.586 63.869 143.692 63.9749 143.692 64.1048V64.5139C143.692 64.6438 143.586 64.7497 143.456 64.7497Z" fill="#FFFFF9"/>
<path d="M145.412 64.7497C145.282 64.7497 145.176 64.6438 145.176 64.5139V64.1048C145.176 63.9749 145.282 63.869 145.412 63.869C145.541 63.869 145.647 63.9749 145.647 64.1048V64.5139C145.647 64.6438 145.541 64.7497 145.412 64.7497Z" fill="#FFFFF9"/>
<path d="M144.763 64.7497C144.633 64.7497 144.528 64.6438 144.528 64.5139V64.1048C144.528 63.9749 144.633 63.869 144.763 63.869C144.893 63.869 144.999 63.9749 144.999 64.1048V64.5139C144.999 64.6438 144.893 64.7497 144.763 64.7497Z" fill="#FFFFF9"/>
<path d="M146.709 64.7497C146.579 64.7497 146.474 64.6438 146.474 64.5139V64.1048C146.474 63.9749 146.579 63.869 146.709 63.869C146.839 63.869 146.945 63.9749 146.945 64.1048V64.5139C146.949 64.6438 146.839 64.7497 146.709 64.7497Z" fill="#FFFFF9"/>
<path d="M146.065 64.7497C145.936 64.7497 145.83 64.6438 145.83 64.5139V64.1048C145.83 63.9749 145.936 63.869 146.065 63.869C146.195 63.869 146.301 63.9749 146.301 64.1048V64.5139C146.301 64.6438 146.195 64.7497 146.065 64.7497Z" fill="#FFFFF9"/>
<path d="M140.198 64.7497C140.069 64.7497 139.963 64.6438 139.963 64.5139V64.1048C139.963 63.9749 140.069 63.869 140.198 63.869C140.328 63.869 140.434 63.9749 140.434 64.1048V64.5139C140.434 64.6438 140.328 64.7497 140.198 64.7497Z" fill="#FFFFF9"/>
<path d="M147.348 64.7497C147.218 64.7497 147.113 64.6438 147.113 64.5139V64.1048C147.113 63.9749 147.218 63.869 147.348 63.869C147.478 63.869 147.584 63.9749 147.584 64.1048V64.5139C147.588 64.6438 147.478 64.7497 147.348 64.7497Z" fill="#FFFFF9"/>
<path d="M143.86 56.1351C143.86 56.1351 143.99 60.5772 144.773 61.8332H142.884C142.884 61.8332 143.754 60.8755 143.86 56.1351Z" fill="#F3A059"/>
<path d="M145.436 57.3576H142.13C142.048 57.3576 141.981 57.2902 141.981 57.2084V57.0833C141.981 57.0015 142.048 56.9341 142.13 56.9341H145.436C145.517 56.9341 145.585 57.0015 145.585 57.0833V57.2084C145.59 57.2902 145.522 57.3576 145.436 57.3576Z" fill="#65ADA5"/>
<path d="M145.936 57.3335H141.693V58.758H145.936V57.3335Z" fill="#F3A059"/>
<path d="M142.827 58.4934C142.697 58.4934 142.591 58.3875 142.591 58.2576V57.8485C142.591 57.7185 142.697 57.6127 142.827 57.6127C142.956 57.6127 143.062 57.7185 143.062 57.8485V58.2576C143.062 58.3875 142.956 58.4934 142.827 58.4934Z" fill="#FFFFF9"/>
<path d="M142.178 58.4934C142.048 58.4934 141.943 58.3875 141.943 58.2576V57.8485C141.943 57.7185 142.048 57.6127 142.178 57.6127C142.308 57.6127 142.414 57.7185 142.414 57.8485V58.2576C142.414 58.3875 142.308 58.4934 142.178 58.4934Z" fill="#FFFFF9"/>
<path d="M144.129 58.4934C143.999 58.4934 143.893 58.3875 143.893 58.2576V57.8485C143.893 57.7185 143.999 57.6127 144.129 57.6127C144.259 57.6127 144.364 57.7185 144.364 57.8485V58.2576C144.364 58.3875 144.259 58.4934 144.129 58.4934Z" fill="#FFFFF9"/>
<path d="M143.48 58.4934C143.35 58.4934 143.245 58.3875 143.245 58.2576V57.8485C143.245 57.7185 143.35 57.6127 143.48 57.6127C143.61 57.6127 143.716 57.7185 143.716 57.8485V58.2576C143.716 58.3875 143.61 58.4934 143.48 58.4934Z" fill="#FFFFF9"/>
<path d="M145.436 58.4934C145.306 58.4934 145.2 58.3875 145.2 58.2576V57.8485C145.2 57.7185 145.306 57.6127 145.436 57.6127C145.566 57.6127 145.671 57.7185 145.671 57.8485V58.2576C145.671 58.3875 145.566 58.4934 145.436 58.4934Z" fill="#FFFFF9"/>
<path d="M144.787 58.4934C144.657 58.4934 144.552 58.3875 144.552 58.2576V57.8485C144.552 57.7185 144.657 57.6127 144.787 57.6127C144.917 57.6127 145.023 57.7185 145.023 57.8485V58.2576C145.023 58.3875 144.917 58.4934 144.787 58.4934Z" fill="#FFFFF9"/>
<path d="M145.321 55.0427H142.106C142.072 55.0427 142.048 55.0138 142.048 54.9849V54.8887C142.048 54.855 142.077 54.8309 142.106 54.8309H145.321C145.354 54.8309 145.378 54.8598 145.378 54.8887V54.9849C145.378 55.0138 145.354 55.0427 145.321 55.0427Z" fill="#65ADA5"/>
<path d="M142.851 54.8165C142.851 54.8165 143.437 46.9624 143.437 45.1769H144.239C144.239 45.1769 144.667 53.9647 144.773 54.8213H142.851V54.8165Z" fill="#27317B"/>
<path d="M144.475 47.1981H143.25C143.197 47.1981 143.153 47.1548 143.153 47.1019C143.153 47.0489 143.197 47.0056 143.25 47.0056H144.475C144.528 47.0056 144.571 47.0489 144.571 47.1019C144.571 47.1548 144.528 47.1981 144.475 47.1981Z" fill="#F3A059"/>
<path d="M144.182 46.7555H143.499C143.245 46.7555 143.043 46.5485 143.043 46.2983C143.043 46.0432 143.25 45.8411 143.499 45.8411H144.182C144.436 45.8411 144.638 46.048 144.638 46.2983C144.643 46.5485 144.436 46.7555 144.182 46.7555Z" fill="#F3A059"/>
<path d="M144.297 45.1817H143.355C143.192 45.1817 143.062 45.0518 143.062 44.8882C143.062 44.7245 143.192 44.5946 143.355 44.5946H144.297C144.46 44.5946 144.59 44.7245 144.59 44.8882C144.59 45.047 144.456 45.1817 144.297 45.1817Z" fill="#F3A059"/>
<path d="M144.196 44.5945H143.432C143.35 44.5945 143.278 44.5271 143.278 44.4405C143.278 44.3587 143.346 44.2865 143.432 44.2865H144.196C144.278 44.2865 144.35 44.3539 144.35 44.4405C144.35 44.5271 144.278 44.5945 144.196 44.5945Z" fill="#65ADA5"/>
<path d="M143.97 44.2961H143.706C143.639 44.2961 143.581 44.2384 143.581 44.171V44.1614C143.581 44.094 143.639 44.0363 143.706 44.0363H143.97C144.038 44.0363 144.095 44.094 144.095 44.1614V44.171C144.095 44.2384 144.042 44.2961 143.97 44.2961Z" fill="#27317B"/>
<path d="M103.964 54.3497H85.0376V56.1737H103.964V54.3497Z" fill="#D88CAA"/>
<path d="M103.993 56.6693H85.1049V63.6668H103.993V56.6693Z" fill="#D88CAA"/>
<path d="M91.6828 64.1626H85.1769V72.3969H91.6828V64.1626Z" fill="#D88CAA"/>
<path d="M104.012 64.1819H97.5065V72.4162H104.012V64.1819Z" fill="#D88CAA"/>
<path d="M104.272 56.1785H84.7397V56.6742H104.272V56.1785Z" fill="#FFFFF9"/>
<path d="M92.0961 63.6621H84.8166V64.1771H92.0961V63.6621Z" fill="#FFFFF9"/>
<path d="M104.315 63.6621H97.1172V64.2107H104.315V63.6621Z" fill="#FFFFF9"/>
<path d="M91.6204 72.4018L91.6348 62.1365C91.6588 60.8131 92.4804 59.5907 93.7586 59.1527C94.3832 58.941 95.0991 58.9025 95.8487 59.2634C96.8866 59.7639 97.4968 60.8419 97.5064 61.9681L97.5881 72.4258L91.6204 72.4018Z" fill="#31CFFF"/>
<path d="M103.719 53.8589V53.0455H103.085V53.8589H102.21V53.0455H101.576V53.8589H100.721V53.0455H100.087V53.8589H99.2314V53.0455H98.5972V53.8589H97.7419V53.0455H97.1076V53.8589H96.2331V53.0455H95.5989V53.8589H94.7388V53.0455H94.1093V53.8589H93.2541V53.0455H92.6198V53.8589H91.7645V53.0455H91.1303V53.8589H90.2462V53.0455H89.6119V53.8589H88.7566V53.0455H88.1224V53.8589H87.2671V53.0455H86.6328V53.8589H85.7776V53.0455H85.1433V53.8589H84.7397V54.3546H104.272V53.8589H103.719Z" fill="#FFFFF9"/>
<path d="M89.8762 66.9828C89.8762 66.1743 89.2131 65.5101 88.4059 65.5101C87.5986 65.5101 86.9355 66.1743 86.9355 66.9828V69.033C86.9355 69.0474 86.9404 69.0666 86.9404 69.0811V70.6163H89.8762V69.0715C89.8762 69.057 89.881 69.0426 89.881 69.0281V66.9828H89.8762Z" fill="#FFFFF9"/>
<path d="M102.283 66.9828C102.283 66.1743 101.619 65.5101 100.812 65.5101C100.005 65.5101 99.3419 66.1743 99.3419 66.9828V69.033C99.3419 69.0474 99.3467 69.0666 99.3467 69.0811V70.6163H102.283V69.0715C102.283 69.057 102.287 69.0426 102.287 69.0281V66.9828H102.283Z" fill="#FFFFF9"/>
<path d="M102.191 59.3933C102.191 59.018 101.528 58.71 100.721 58.71C99.9138 58.71 99.2507 59.018 99.2507 59.3933V60.3414C99.2507 60.3511 99.2555 60.3559 99.2555 60.3655V61.0778H102.191V60.3655C102.191 60.3607 102.196 60.3511 102.196 60.3462V59.3933H102.191Z" fill="#FFFFF9"/>
<path d="M89.7609 59.3933C89.7609 59.018 89.0978 58.71 88.2906 58.71C87.4833 58.71 86.8203 59.018 86.8203 59.3933V60.3414C86.8203 60.3511 86.8251 60.3559 86.8251 60.3655V61.0778H89.7609V60.3655C89.7609 60.3607 89.7657 60.3511 89.7657 60.3462V59.3933H89.7609Z" fill="#FFFFF9"/>
<path d="M143.754 89.5008H155.589C156.521 88.6394 156.405 77.8351 149.328 78.3597C142.577 78.8554 143.754 89.5008 143.754 89.5008Z" fill="#31CFFF"/>
<path d="M144.931 89.5009C144.931 89.5009 144.273 80.9634 148.328 78.5186C148.328 78.5186 142.865 79.1249 143.749 89.5009H144.931Z" fill="#65ADA5"/>
<path d="M128.748 89.5008H140.583C141.515 88.6394 141.4 77.8351 134.322 78.3597C127.571 78.8554 128.748 89.5008 128.748 89.5008Z" fill="#31CFFF"/>
<path d="M129.925 89.5009C129.925 89.5009 129.267 80.9634 133.323 78.5186C133.323 78.5186 127.859 79.1249 128.743 89.5009H129.925Z" fill="#65ADA5"/>
<path d="M113.694 89.5008H125.529C126.461 88.6394 126.346 77.8351 119.268 78.3597C112.517 78.8554 113.694 89.5008 113.694 89.5008Z" fill="#31CFFF"/>
<path d="M114.876 89.5009C114.876 89.5009 114.218 80.9634 118.273 78.5186C118.273 78.5186 112.81 79.1249 113.694 89.5009H114.876Z" fill="#65ADA5"/>
<path d="M159.072 89.5008H170.907C171.839 88.6394 171.724 77.8351 164.646 78.3597C157.895 78.8554 159.072 89.5008 159.072 89.5008Z" fill="#31CFFF"/>
<path d="M160.254 89.5009C160.254 89.5009 159.596 80.9634 163.651 78.5186C163.651 78.5186 158.188 79.1249 159.072 89.5009H160.254Z" fill="#65ADA5"/>
<path d="M82.6736 89.5057H94.5081C95.4403 88.6443 95.325 77.84 88.2473 78.3646C81.4963 78.8603 82.6736 89.5057 82.6736 89.5057Z" fill="#31CFFF"/>
<path d="M83.8556 89.5057C83.8556 89.5057 83.1973 80.9681 87.2527 78.5233C87.2527 78.5233 81.7895 79.1297 82.6736 89.5057H83.8556Z" fill="#65ADA5"/>
<path d="M67.6677 89.5057H79.5023C80.4345 88.6443 80.3191 77.84 73.2414 78.3646C66.4905 78.8603 67.6677 89.5057 67.6677 89.5057Z" fill="#31CFFF"/>
<path d="M68.8497 89.5057C68.8497 89.5057 68.1915 80.9681 72.2468 78.5233C72.2468 78.5233 66.7836 79.1297 67.6677 89.5057H68.8497Z" fill="#65ADA5"/>
<path d="M52.6186 89.5057H64.4532C65.3854 88.6443 65.2701 77.84 58.1924 78.3646C51.4414 78.8603 52.6186 89.5057 52.6186 89.5057Z" fill="#31CFFF"/>
<path d="M53.7958 89.5057C53.7958 89.5057 53.1376 80.9681 57.1929 78.5233C57.1929 78.5233 51.7297 79.1297 52.6138 89.5057H53.7958Z" fill="#65ADA5"/>
<path d="M97.9917 89.5057H109.826C110.758 88.6443 110.643 77.84 103.565 78.3646C96.8145 78.8603 97.9917 89.5057 97.9917 89.5057Z" fill="#31CFFF"/>
<path d="M99.1738 89.5057C99.1738 89.5057 98.5155 80.9681 102.571 78.5233C102.571 78.5233 97.1076 79.1297 97.9918 89.5057H99.1738Z" fill="#65ADA5"/>
<path d="M174.712 101.855H49.2311C45.8388 101.855 43.0616 99.0732 43.0616 95.6755C43.0616 92.2778 45.8388 89.4961 49.2311 89.4961H174.708C178.1 89.4961 180.877 92.2778 180.877 95.6755C180.882 99.0732 178.105 101.855 174.712 101.855Z" fill="#F5B37B"/>
<path d="M144.196 101.855H156.031C156.963 100.993 156.848 90.1891 149.77 90.7137C143.019 91.2094 144.196 101.855 144.196 101.855Z" fill="#31CFFF"/>
<path d="M145.378 101.855C145.378 101.855 144.72 93.3174 148.775 90.8726C148.775 90.8726 143.312 91.4789 144.196 101.855H145.378Z" fill="#65ADA5"/>
<path d="M129.19 101.855H141.025C141.957 100.993 141.842 90.1891 134.764 90.7137C128.013 91.2094 129.19 101.855 129.19 101.855Z" fill="#31CFFF"/>
<path d="M130.372 101.855C130.372 101.855 129.714 93.3174 133.769 90.8726C133.769 90.8726 128.306 91.4789 129.19 101.855H130.372Z" fill="#65ADA5"/>
<path d="M114.141 101.855H125.976C126.908 100.993 126.793 90.1891 119.715 90.7137C112.964 91.2094 114.141 101.855 114.141 101.855Z" fill="#31CFFF"/>
<path d="M115.318 101.855C115.318 101.855 114.66 93.3174 118.715 90.8726C118.715 90.8726 113.252 91.4789 114.136 101.855H115.318Z" fill="#65ADA5"/>
<path d="M159.514 101.855H171.349C172.281 100.993 172.166 90.1891 165.088 90.7137C158.337 91.2094 159.514 101.855 159.514 101.855Z" fill="#31CFFF"/>
<path d="M160.696 101.855C160.696 101.855 160.038 93.3174 164.093 90.8726C164.093 90.8726 158.63 91.4789 159.514 101.855H160.696Z" fill="#65ADA5"/>
<path d="M83.1204 101.86H94.955C95.8872 100.998 95.7719 90.1939 88.6942 90.7184C81.9384 91.2141 83.1204 101.86 83.1204 101.86Z" fill="#31CFFF"/>
<path d="M84.2976 101.86C84.2976 101.86 83.6393 93.3221 87.6947 90.8773C87.6947 90.8773 82.2315 91.4837 83.1156 101.86H84.2976Z" fill="#65ADA5"/>
<path d="M68.1146 101.86H79.9492C80.8814 100.998 80.766 90.1939 73.6883 90.7184C66.9374 91.2141 68.1146 101.86 68.1146 101.86Z" fill="#31CFFF"/>
<path d="M69.2918 101.86C69.2918 101.86 68.6335 93.3221 72.6889 90.8773C72.6889 90.8773 67.2256 91.4837 68.1097 101.86H69.2918Z" fill="#65ADA5"/>
<path d="M53.0606 101.86H64.8952C65.8274 100.998 65.7121 90.1939 58.6344 90.7184C51.8834 91.2141 53.0606 101.86 53.0606 101.86Z" fill="#31CFFF"/>
<path d="M54.2427 101.86C54.2427 101.86 53.5844 93.3221 57.6398 90.8773C57.6398 90.8773 52.1766 91.4837 53.0607 101.86H54.2427Z" fill="#65ADA5"/>
<path d="M98.4386 101.86H110.273C111.205 100.998 111.09 90.1939 104.012 90.7184C97.2614 91.2141 98.4386 101.86 98.4386 101.86Z" fill="#31CFFF"/>
<path d="M99.6159 101.86C99.6159 101.86 98.9576 93.3221 103.013 90.8773C103.013 90.8773 97.5497 91.4837 98.4338 101.86H99.6159Z" fill="#65ADA5"/>
<path d="M147.992 47.0249H193C193 47.0249 192.323 40.5857 185.216 43.2952C185.216 43.2952 181.324 35.3303 172.694 39.5654C172.694 39.5654 161.547 28.097 151.509 37.9436C151.509 37.9436 148.151 40.7878 147.992 47.0249Z" fill="#F5B37B"/>
<path d="M81.1408 41.0189H50.072C50.072 41.0189 50.538 36.572 55.4439 38.4441C55.4439 38.4441 58.1299 32.9481 64.088 35.8694C64.088 35.8694 71.7807 27.9575 78.7095 34.748C78.7095 34.7529 81.0303 36.7164 81.1408 41.0189Z" fill="#F5B37B"/>
<path d="M107.285 47.203H108.654L107.962 44.7438L107.285 47.203Z" fill="#27317B"/>
<path d="M107.285 47.3233L108.644 47.3185L108.985 64.4802H106.934L107.285 47.3233Z" fill="#65ADA5"/>
<path d="M109.149 64.4755H106.737V64.9808H109.149V64.4755Z" fill="#27317B"/>
<path d="M109.524 65.0818H106.376V65.5438H109.524V65.0818Z" fill="#27317B"/>
<path d="M109.519 65.6449H106.372V65.7604H109.519V65.6449Z" fill="#27317B"/>
<path d="M109.187 65.8855H106.756V70.111H109.187V65.8855Z" fill="#65ADA5"/>
<path d="M109.658 70.1927H106.348V71.035H109.658V70.1927Z" fill="#27317B"/>
<path d="M109.913 71.1216H106.131V72.3873H109.913V71.1216Z" fill="#65ADA5"/>
<path d="M173.362 109.882H112.777C110.691 109.882 108.981 108.174 108.981 106.08V105.445C108.981 103.356 110.686 101.643 112.777 101.643H173.357C175.443 101.643 177.153 103.352 177.153 105.445V106.08C177.153 108.169 175.448 109.882 173.362 109.882Z" fill="#D88CAA"/>
<path d="M173.146 110.696H122.151C121.935 110.696 121.757 110.518 121.757 110.301V110.282C121.757 110.065 121.935 109.887 122.151 109.887H173.141C173.357 109.887 173.535 110.065 173.535 110.282V110.301C173.54 110.518 173.362 110.696 173.146 110.696Z" fill="#65ADA5"/>
<path d="M119.734 44.2433H113.92V53.1562H119.734V44.2433Z" fill="#333E9C"/>
<path d="M119.681 53.3535H113.925V53.9214H119.681V53.3535Z" fill="#65ADA5"/>
<path d="M125.13 53.3535H119.912V53.9214H125.13V53.3535Z" fill="#65ADA5"/>
<path d="M131.194 53.3535H125.38V53.9214H131.194V53.3535Z" fill="#65ADA5"/>
<path d="M114.271 57.2758H114.242C114.079 57.2758 113.949 57.141 113.949 56.9822V54.4315C113.949 54.2679 114.084 54.1379 114.242 54.1379H114.271C114.434 54.1379 114.564 54.2727 114.564 54.4315V56.9822C114.569 57.141 114.434 57.2758 114.271 57.2758Z" fill="#333E9C"/>
<path d="M115.064 57.2757H115.04C114.91 57.2757 114.799 57.1699 114.799 57.0351V54.3689C114.799 54.239 114.905 54.1283 115.04 54.1283H115.064C115.193 54.1283 115.304 54.2342 115.304 54.3689V57.0351C115.299 57.1699 115.193 57.2757 115.064 57.2757Z" fill="#333E9C"/>
<path d="M115.784 57.2757H115.76C115.631 57.2757 115.52 57.1699 115.52 57.0351V54.3689C115.52 54.239 115.626 54.1283 115.76 54.1283H115.784C115.914 54.1283 116.025 54.2342 116.025 54.3689V57.0351C116.025 57.1699 115.914 57.2757 115.784 57.2757Z" fill="#333E9C"/>
<path d="M116.5 57.2757H116.476C116.347 57.2757 116.236 57.1699 116.236 57.0351V54.3689C116.236 54.239 116.342 54.1283 116.476 54.1283H116.5C116.63 54.1283 116.741 54.2342 116.741 54.3689V57.0351C116.736 57.1699 116.63 57.2757 116.5 57.2757Z" fill="#333E9C"/>
<path d="M117.221 57.2757H117.197C117.067 57.2757 116.957 57.1699 116.957 57.0351V54.3689C116.957 54.239 117.063 54.1283 117.197 54.1283H117.221C117.351 54.1283 117.461 54.2342 117.461 54.3689V57.0351C117.461 57.1699 117.351 57.2757 117.221 57.2757Z" fill="#333E9C"/>
<path d="M117.937 57.2757H117.913C117.783 57.2757 117.673 57.1699 117.673 57.0351V54.3689C117.673 54.239 117.779 54.1283 117.913 54.1283H117.937C118.067 54.1283 118.177 54.2342 118.177 54.3689V57.0351C118.177 57.1699 118.067 57.2757 117.937 57.2757Z" fill="#333E9C"/>
<path d="M118.658 57.2757H118.634C118.504 57.2757 118.394 57.1699 118.394 57.0351V54.3689C118.394 54.239 118.499 54.1283 118.634 54.1283H118.658C118.788 54.1283 118.898 54.2342 118.898 54.3689V57.0351C118.898 57.1699 118.792 57.2757 118.658 57.2757Z" fill="#333E9C"/>
<path d="M119.374 57.2757H119.35C119.22 57.2757 119.109 57.1699 119.109 57.0351V54.3689C119.109 54.239 119.215 54.1283 119.35 54.1283H119.374C119.503 54.1283 119.614 54.2342 119.614 54.3689V57.0351C119.614 57.1699 119.503 57.2757 119.374 57.2757Z" fill="#333E9C"/>
<path d="M120.095 57.2757H120.07C119.941 57.2757 119.83 57.1699 119.83 57.0351V54.3689C119.83 54.239 119.936 54.1283 120.07 54.1283H120.095C120.224 54.1283 120.335 54.2342 120.335 54.3689V57.0351C120.335 57.1699 120.224 57.2757 120.095 57.2757Z" fill="#333E9C"/>
<path d="M120.806 57.2757H120.782C120.652 57.2757 120.541 57.1699 120.541 57.0351V54.3689C120.541 54.239 120.647 54.1283 120.782 54.1283H120.806C120.935 54.1283 121.046 54.2342 121.046 54.3689V57.0351C121.046 57.1699 120.935 57.2757 120.806 57.2757Z" fill="#333E9C"/>
<path d="M121.526 57.2757H121.502C121.373 57.2757 121.262 57.1699 121.262 57.0351V54.3689C121.262 54.239 121.368 54.1283 121.502 54.1283H121.526C121.656 54.1283 121.767 54.2342 121.767 54.3689V57.0351C121.767 57.1699 121.661 57.2757 121.526 57.2757Z" fill="#333E9C"/>
<path d="M122.242 57.2757H122.218C122.089 57.2757 121.978 57.1699 121.978 57.0351V54.3689C121.978 54.239 122.084 54.1283 122.218 54.1283H122.242C122.372 54.1283 122.483 54.2342 122.483 54.3689V57.0351C122.483 57.1699 122.372 57.2757 122.242 57.2757Z" fill="#333E9C"/>
<path d="M122.963 57.2757H122.939C122.809 57.2757 122.699 57.1699 122.699 57.0351V54.3689C122.699 54.239 122.804 54.1283 122.939 54.1283H122.963C123.093 54.1283 123.203 54.2342 123.203 54.3689V57.0351C123.203 57.1699 123.098 57.2757 122.963 57.2757Z" fill="#333E9C"/>
<path d="M123.703 57.2757H123.679C123.549 57.2757 123.439 57.1699 123.439 57.0351V54.3689C123.439 54.239 123.544 54.1283 123.679 54.1283H123.703C123.833 54.1283 123.943 54.2342 123.943 54.3689V57.0351C123.943 57.1699 123.838 57.2757 123.703 57.2757Z" fill="#333E9C"/>
<path d="M124.429 57.2757H124.405C124.275 57.2757 124.164 57.1699 124.164 57.0351V54.3689C124.164 54.239 124.27 54.1283 124.405 54.1283H124.429C124.558 54.1283 124.669 54.2342 124.669 54.3689V57.0351C124.664 57.1699 124.558 57.2757 124.429 57.2757Z" fill="#333E9C"/>
<path d="M125.14 57.2757H125.116C124.986 57.2757 124.875 57.1699 124.875 57.0351V54.3689C124.875 54.239 124.981 54.1283 125.116 54.1283H125.14C125.269 54.1283 125.38 54.2342 125.38 54.3689V57.0351C125.38 57.1699 125.274 57.2757 125.14 57.2757Z" fill="#333E9C"/>
<path d="M125.865 57.2757H125.841C125.712 57.2757 125.601 57.1699 125.601 57.0351V54.3689C125.601 54.239 125.707 54.1283 125.841 54.1283H125.865C125.995 54.1283 126.106 54.2342 126.106 54.3689V57.0351C126.101 57.1699 125.995 57.2757 125.865 57.2757Z" fill="#333E9C"/>
<path d="M126.576 57.2757H126.552C126.423 57.2757 126.312 57.1699 126.312 57.0351V54.3689C126.312 54.239 126.418 54.1283 126.552 54.1283H126.576C126.706 54.1283 126.817 54.2342 126.817 54.3689V57.0351C126.817 57.1699 126.711 57.2757 126.576 57.2757Z" fill="#333E9C"/>
<path d="M127.297 57.2757H127.273C127.143 57.2757 127.033 57.1699 127.033 57.0351V54.3689C127.033 54.239 127.139 54.1283 127.273 54.1283H127.297C127.427 54.1283 127.537 54.2342 127.537 54.3689V57.0351C127.537 57.1699 127.432 57.2757 127.297 57.2757Z" fill="#333E9C"/>
<path d="M128.013 57.2757H127.989C127.859 57.2757 127.749 57.1699 127.749 57.0351V54.3689C127.749 54.239 127.854 54.1283 127.989 54.1283H128.013C128.143 54.1283 128.253 54.2342 128.253 54.3689V57.0351C128.253 57.1699 128.143 57.2757 128.013 57.2757Z" fill="#333E9C"/>
<path d="M128.734 57.2757H128.71C128.58 57.2757 128.47 57.1699 128.47 57.0351V54.3689C128.47 54.239 128.575 54.1283 128.71 54.1283H128.734C128.864 54.1283 128.974 54.2342 128.974 54.3689V57.0351C128.974 57.1699 128.868 57.2757 128.734 57.2757Z" fill="#333E9C"/>
<path d="M130.862 57.2758H130.891C131.055 57.2758 131.184 57.141 131.184 56.9822V54.4315C131.184 54.2679 131.05 54.1379 130.891 54.1379H130.862C130.699 54.1379 130.569 54.2727 130.569 54.4315V56.9822C130.564 57.141 130.699 57.2758 130.862 57.2758Z" fill="#333E9C"/>
<path d="M130.07 57.2757H130.094C130.223 57.2757 130.334 57.1699 130.334 57.0351V54.3689C130.334 54.239 130.228 54.1283 130.094 54.1283H130.07C129.94 54.1283 129.829 54.2342 129.829 54.3689V57.0351C129.829 57.1699 129.94 57.2757 130.07 57.2757Z" fill="#333E9C"/>
<path d="M129.349 57.2757H129.373C129.503 57.2757 129.613 57.1699 129.613 57.0351V54.3689C129.613 54.239 129.507 54.1283 129.373 54.1283H129.349C129.219 54.1283 129.109 54.2342 129.109 54.3689V57.0351C129.109 57.1699 129.219 57.2757 129.349 57.2757Z" fill="#333E9C"/>
<path d="M119.201 57.5164H113.944V62.6658H119.201V57.5164Z" fill="#333E9C"/>
<path d="M125.217 57.5164H119.96V62.6658H125.217V57.5164Z" fill="#333E9C"/>
<path d="M131.141 57.5164H125.884V62.6658H131.141V57.5164Z" fill="#333E9C"/>
<path d="M119.71 57.502H119.465V62.6659H119.71V57.502Z" fill="#65ADA5"/>
<path d="M125.639 57.4972H125.394V62.6611H125.639V57.4972Z" fill="#65ADA5"/>
<path d="M115.155 62.9305H113.949V64.6968H115.155V62.9305Z" fill="#333E9C"/>
<path d="M114.281 64.6967V64.2154C114.281 64.2154 114.021 63.7342 114.405 63.4743L114.415 63.3011C114.415 63.3011 114.353 63.1278 114.535 63.123C114.732 63.1182 114.694 63.2096 114.694 63.3011C114.694 63.4117 114.703 63.4743 114.703 63.4743C114.703 63.4743 115.069 63.7486 114.828 64.1962V64.7015H114.281V64.6967Z" fill="#D88CAA"/>
<path d="M116.5 62.9305H115.294V64.6968H116.5V62.9305Z" fill="#333E9C"/>
<path d="M115.626 64.6967V64.2154C115.626 64.2154 115.366 63.7342 115.751 63.4743L115.76 63.3011C115.76 63.3011 115.698 63.1278 115.881 63.123C116.078 63.1182 116.039 63.2096 116.039 63.3011C116.039 63.4117 116.049 63.4743 116.049 63.4743C116.049 63.4743 116.414 63.7486 116.174 64.1962V64.7015H115.626V64.6967Z" fill="#D88CAA"/>
<path d="M117.827 62.9305H116.621V64.6968H117.827V62.9305Z" fill="#333E9C"/>
<path d="M116.957 64.6967V64.2154C116.957 64.2154 116.697 63.7342 117.082 63.4743L117.091 63.3011C117.091 63.3011 117.029 63.1278 117.212 63.123C117.409 63.1182 117.37 63.2096 117.37 63.3011C117.37 63.4117 117.38 63.4743 117.38 63.4743C117.38 63.4743 117.745 63.7486 117.505 64.1962V64.7015H116.957V64.6967Z" fill="#D88CAA"/>
<path d="M119.177 62.9305H117.971V64.6968H119.177V62.9305Z" fill="#333E9C"/>
<path d="M118.302 64.6967V64.2154C118.302 64.2154 118.043 63.7342 118.427 63.4743L118.437 63.3011C118.437 63.3011 118.374 63.1278 118.557 63.123C118.754 63.1182 118.716 63.2096 118.716 63.3011C118.716 63.4117 118.725 63.4743 118.725 63.4743C118.725 63.4743 119.09 63.7486 118.85 64.1962V64.7015H118.302V64.6967Z" fill="#D88CAA"/>
<path d="M120.489 62.9305H119.282V64.6968H120.489V62.9305Z" fill="#333E9C"/>
<path d="M119.614 64.6967V64.2154C119.614 64.2154 119.355 63.7342 119.739 63.4743L119.749 63.3011C119.749 63.3011 119.686 63.1278 119.869 63.123C120.066 63.1182 120.027 63.2096 120.027 63.3011C120.027 63.4117 120.037 63.4743 120.037 63.4743C120.037 63.4743 120.402 63.7486 120.162 64.1962V64.7015H119.614V64.6967Z" fill="#D88CAA"/>
<path d="M121.834 62.9305H120.628V64.6968H121.834V62.9305Z" fill="#333E9C"/>
<path d="M120.959 64.6967V64.2154C120.959 64.2154 120.7 63.7342 121.084 63.4743L121.094 63.3011C121.094 63.3011 121.031 63.1278 121.214 63.123C121.411 63.1182 121.373 63.2096 121.373 63.3011C121.373 63.4117 121.382 63.4743 121.382 63.4743C121.382 63.4743 121.747 63.7486 121.507 64.1962V64.7015H120.959V64.6967Z" fill="#D88CAA"/>
<path d="M123.16 62.9305H121.954V64.6968H123.16V62.9305Z" fill="#333E9C"/>
<path d="M122.29 64.6967V64.2154C122.29 64.2154 122.031 63.7342 122.415 63.4743L122.425 63.3011C122.425 63.3011 122.362 63.1278 122.545 63.123C122.742 63.1182 122.704 63.2096 122.704 63.3011C122.704 63.4117 122.713 63.4743 122.713 63.4743C122.713 63.4743 123.078 63.7486 122.838 64.1962V64.7015H122.29V64.6967Z" fill="#D88CAA"/>
<path d="M124.51 62.9305H123.304V64.6968H124.51V62.9305Z" fill="#333E9C"/>
<path d="M123.636 64.6967V64.2154C123.636 64.2154 123.376 63.7342 123.761 63.4743L123.77 63.3011C123.77 63.3011 123.708 63.1278 123.89 63.123C124.087 63.1182 124.049 63.2096 124.049 63.3011C124.049 63.4117 124.059 63.4743 124.059 63.4743C124.059 63.4743 124.424 63.7486 124.184 64.1962V64.7015H123.636V64.6967Z" fill="#D88CAA"/>
<path d="M125.865 62.9305H124.659V64.6968H125.865V62.9305Z" fill="#333E9C"/>
<path d="M124.991 64.6967V64.2154C124.991 64.2154 124.731 63.7342 125.116 63.4743L125.125 63.3011C125.125 63.3011 125.063 63.1278 125.245 63.123C125.442 63.1182 125.404 63.2096 125.404 63.3011C125.404 63.4117 125.414 63.4743 125.414 63.4743C125.414 63.4743 125.779 63.7486 125.539 64.1962V64.7015H124.991V64.6967Z" fill="#D88CAA"/>
<path d="M127.211 62.9305H126.005V64.6968H127.211V62.9305Z" fill="#333E9C"/>
<path d="M126.336 64.6967V64.2154C126.336 64.2154 126.077 63.7342 126.461 63.4743L126.471 63.3011C126.471 63.3011 126.408 63.1278 126.591 63.123C126.788 63.1182 126.749 63.2096 126.749 63.3011C126.749 63.4117 126.759 63.4743 126.759 63.4743C126.759 63.4743 127.124 63.7486 126.884 64.1962V64.7015H126.336V64.6967Z" fill="#D88CAA"/>
<path d="M128.537 62.9305H127.331V64.6968H128.537V62.9305Z" fill="#333E9C"/>
<path d="M127.667 64.6967V64.2154C127.667 64.2154 127.408 63.7342 127.792 63.4743L127.802 63.3011C127.802 63.3011 127.739 63.1278 127.922 63.123C128.119 63.1182 128.08 63.2096 128.08 63.3011C128.08 63.4117 128.09 63.4743 128.09 63.4743C128.09 63.4743 128.455 63.7486 128.215 64.1962V64.7015H127.667V64.6967Z" fill="#D88CAA"/>
<path d="M129.887 62.9305H128.681V64.6968H129.887V62.9305Z" fill="#333E9C"/>
<path d="M129.013 64.6967V64.2154C129.013 64.2154 128.753 63.7342 129.137 63.4743L129.147 63.3011C129.147 63.3011 129.085 63.1278 129.267 63.123C129.464 63.1182 129.426 63.2096 129.426 63.3011C129.426 63.4117 129.435 63.4743 129.435 63.4743C129.435 63.4743 129.801 63.7486 129.56 64.1962V64.7015H129.013V64.6967Z" fill="#D88CAA"/>
<path d="M131.218 62.9305H130.012V64.6968H131.218V62.9305Z" fill="#333E9C"/>
<path d="M130.343 64.6967V64.2154C130.343 64.2154 130.084 63.7342 130.468 63.4743L130.478 63.3011C130.478 63.3011 130.416 63.1278 130.598 63.123C130.795 63.1182 130.757 63.2096 130.757 63.3011C130.757 63.4117 130.766 63.4743 130.766 63.4743C130.766 63.4743 131.131 63.7486 130.891 64.1962V64.7015H130.343V64.6967Z" fill="#D88CAA"/>
<path d="M115.237 53.1561H116.183C116.294 53.1561 116.385 53.0647 116.39 52.954L116.424 47.8478C116.424 47.6265 116.39 47.4051 116.313 47.1981C116.275 47.0971 116.227 47.0008 116.169 46.9383C116.14 46.9046 116.116 46.8661 116.111 46.8228V46.8035C116.097 46.6206 116.025 46.4426 115.909 46.2982C115.833 46.2067 115.756 46.1201 115.708 46.1201C115.669 46.1201 115.616 46.1682 115.554 46.2356C115.424 46.38 115.347 46.5677 115.342 46.765V46.8035C115.342 46.842 115.328 46.8805 115.309 46.9142C115.232 47.0249 115.049 47.3136 115.03 47.612C115.011 47.9441 115.025 52.0011 115.03 52.9588C115.03 53.0695 115.121 53.1561 115.237 53.1561Z" fill="#D88CAA"/>
<path d="M117.461 53.1514H118.408C118.519 53.1514 118.61 53.0599 118.615 52.9492L118.648 47.8431C118.648 47.6217 118.615 47.4003 118.538 47.1934C118.499 47.0923 118.451 46.9961 118.394 46.9335C118.365 46.8998 118.341 46.8613 118.336 46.818V46.7987C118.322 46.6159 118.249 46.4378 118.134 46.2934C118.057 46.202 117.98 46.1154 117.932 46.1154C117.894 46.1154 117.841 46.1635 117.779 46.2309C117.649 46.3752 117.572 46.5629 117.567 46.7602V46.7987C117.567 46.8372 117.553 46.8757 117.534 46.9094C117.457 47.0201 117.274 47.3089 117.255 47.6073C117.236 47.9393 117.25 51.9964 117.255 52.9541C117.26 53.0599 117.351 53.1514 117.461 53.1514Z" fill="#D88CAA"/>
<path d="M131.189 44.2H125.375V53.1129H131.189V44.2Z" fill="#333E9C"/>
<path d="M126.687 53.1128H127.633C127.744 53.1128 127.835 53.0214 127.84 52.9107L127.874 47.8045C127.874 47.5831 127.84 47.3617 127.763 47.1548C127.725 47.0537 127.677 46.9575 127.619 46.8949C127.59 46.8612 127.566 46.8227 127.561 46.7794V46.7602C127.547 46.5773 127.475 46.3992 127.36 46.2548C127.283 46.1634 127.206 46.0768 127.158 46.0768C127.119 46.0768 127.066 46.1249 127.004 46.1923C126.874 46.3367 126.797 46.5244 126.793 46.7217V46.7602C126.793 46.7987 126.778 46.8372 126.759 46.8709C126.682 46.9815 126.5 47.2703 126.48 47.5687C126.461 47.9008 126.475 51.9578 126.48 52.9155C126.485 53.0214 126.576 53.1128 126.687 53.1128Z" fill="#D88CAA"/>
<path d="M128.916 53.108H129.863C129.973 53.108 130.065 53.0166 130.07 52.9059L130.103 47.7997C130.103 47.5784 130.07 47.357 129.993 47.15C129.954 47.049 129.906 46.9527 129.849 46.8902C129.82 46.8565 129.796 46.818 129.791 46.7747V46.7554C129.776 46.5725 129.704 46.3945 129.589 46.2501C129.512 46.1586 129.435 46.072 129.387 46.072C129.349 46.072 129.296 46.1201 129.234 46.1875C129.104 46.3319 129.027 46.5196 129.022 46.7169V46.7554C129.022 46.7939 129.008 46.8324 128.988 46.8661C128.912 46.9768 128.729 47.2655 128.71 47.5639C128.691 47.896 128.705 51.953 128.71 52.9107C128.715 53.0166 128.806 53.108 128.916 53.108Z" fill="#D88CAA"/>
<path d="M114.843 62.6658L114.819 60.0285C114.819 59.8938 114.843 59.759 114.896 59.6339C115.069 59.22 115.549 58.3248 116.606 57.9832C116.606 57.9832 118.197 58.7291 118.336 59.8119C118.341 59.836 118.341 59.8601 118.341 59.8841L118.326 62.661L114.843 62.6658Z" fill="#D88CAA"/>
<path d="M115.828 59.8649C115.602 59.8649 115.414 60.0477 115.414 60.2739V62.2134C115.414 62.2182 115.414 62.223 115.414 62.2279V62.6225V62.6658H116.241V62.2375C116.241 62.2279 116.241 62.223 116.241 62.2134V60.2739C116.241 60.0477 116.054 59.8649 115.828 59.8649Z" fill="#65ADA5"/>
<path d="M117.226 59.8649C117 59.8649 116.813 60.0477 116.813 60.2739V62.2134C116.813 62.2182 116.813 62.223 116.813 62.2279V62.6225V62.6658H117.639V62.2375C117.639 62.2279 117.639 62.223 117.639 62.2134V60.2739C117.639 60.0477 117.452 59.8649 117.226 59.8649Z" fill="#65ADA5"/>
<path d="M126.98 62.6611L126.956 60.0238C126.956 59.889 126.98 59.7542 127.033 59.6291C127.206 59.2152 127.686 58.3201 128.743 57.9784C128.743 57.9784 130.334 58.7243 130.473 59.8072C130.478 59.8312 130.478 59.8553 130.478 59.8794L130.464 62.6562L126.98 62.6611Z" fill="#D88CAA"/>
<path d="M127.965 59.8601C127.739 59.8601 127.552 60.043 127.552 60.2692V62.2087C127.552 62.2135 127.552 62.2183 127.552 62.2231V62.6177V62.661H128.378V62.2327C128.378 62.2231 128.378 62.2183 128.378 62.2087V60.2692C128.378 60.043 128.191 59.8601 127.965 59.8601Z" fill="#65ADA5"/>
<path d="M129.363 59.8601C129.137 59.8601 128.95 60.043 128.95 60.2692V62.2087C128.95 62.2135 128.95 62.2183 128.95 62.2231V62.6177V62.661H129.776V62.2327C129.776 62.2231 129.776 62.2183 129.776 62.2087V60.2692C129.776 60.043 129.589 59.8601 129.363 59.8601Z" fill="#65ADA5"/>
<path d="M131.929 64.9567H126.279V72.4066H131.929V64.9567Z" fill="#333E9C"/>
<path d="M127.456 72.4017L127.427 69.2254C127.427 69.0618 127.451 68.8981 127.509 68.749C127.691 68.2484 128.21 67.1704 129.344 66.7614C129.344 66.7614 131.055 67.6613 131.199 68.9655C131.204 68.9944 131.204 69.0233 131.204 69.0521L131.189 72.4017H127.456Z" fill="#D88CAA"/>
<path d="M128.513 68.3495C128.268 68.3495 128.066 68.6142 128.066 68.9414V71.7472C128.066 71.752 128.066 71.7616 128.066 71.7664V72.3391V72.4017H128.955V71.7809C128.955 71.7712 128.955 71.7616 128.955 71.7472V68.9414C128.96 68.6142 128.758 68.3495 128.513 68.3495Z" fill="#65ADA5"/>
<path d="M130.012 68.3495C129.767 68.3495 129.565 68.6142 129.565 68.9414V71.7472C129.565 71.752 129.565 71.7616 129.565 71.7664V72.3391V72.4017H130.454V71.7809C130.454 71.7712 130.454 71.7616 130.454 71.7472V68.9414C130.459 68.6142 130.257 68.3495 130.012 68.3495Z" fill="#65ADA5"/>
<path d="M118.807 64.9374H113.156V72.3873H118.807V64.9374Z" fill="#333E9C"/>
<path d="M114.333 72.3825L114.305 69.2495C114.305 69.0858 114.329 68.927 114.386 68.7778C114.569 68.2869 115.088 67.2185 116.222 66.8191C116.222 66.8191 117.932 67.7046 118.076 68.9944C118.081 69.0233 118.081 69.0521 118.081 69.0762L118.067 72.3776L114.333 72.3825Z" fill="#D88CAA"/>
<path d="M115.39 68.3303C115.145 68.3303 114.944 68.595 114.944 68.9223V71.728C114.944 71.7328 114.944 71.7425 114.944 71.7473V72.32V72.3825H115.833V71.7617C115.833 71.7521 115.833 71.7425 115.833 71.728V68.9223C115.837 68.595 115.636 68.3303 115.39 68.3303Z" fill="#65ADA5"/>
<path d="M116.894 68.3303C116.649 68.3303 116.448 68.595 116.448 68.9223V71.728C116.448 71.7328 116.448 71.7425 116.448 71.7473V72.32V72.3825H117.336V71.7617C117.336 71.7521 117.336 71.7425 117.336 71.728V68.9223C117.336 68.595 117.139 68.3303 116.894 68.3303Z" fill="#65ADA5"/>
<path d="M119.119 64.9423H118.999V72.3825H119.119V64.9423Z" fill="#65ADA5"/>
<path d="M126.096 64.9855H125.976V72.4258H126.096V64.9855Z" fill="#65ADA5"/>
<path d="M125.779 64.9904H119.287V72.4403H125.779V64.9904Z" fill="#333E9C"/>
<path d="M119.628 72.4354L119.59 68.3832C119.59 68.1763 119.628 67.9693 119.715 67.7768C119.998 67.1416 120.801 65.7604 122.55 65.2406C122.55 65.2406 125.188 66.386 125.414 68.056C125.418 68.0897 125.418 68.1282 125.418 68.1667L125.399 72.4402L119.628 72.4354Z" fill="#D88CAA"/>
<path d="M121.262 67.5363C120.883 67.5363 120.575 67.8587 120.575 68.2533V71.6414C120.575 71.651 120.575 71.6558 120.575 71.6655V72.3585V72.4355H121.944V72.4307V71.6799C121.944 71.6655 121.949 71.6558 121.949 71.6414V68.2533C121.949 67.8587 121.637 67.5363 121.262 67.5363Z" fill="#65ADA5"/>
<path d="M123.578 67.5363C123.199 67.5363 122.891 67.8587 122.891 68.2533V71.6414C122.891 71.651 122.891 71.6558 122.891 71.6655V72.3585V72.4355H124.26V72.4307V71.6799C124.26 71.6655 124.265 71.6558 124.265 71.6414V68.2533C124.265 67.8587 123.953 67.5363 123.578 67.5363Z" fill="#65ADA5"/>
<path d="M122.583 62.3771C123.831 62.3771 124.842 61.3644 124.842 60.1152C124.842 58.866 123.831 57.8533 122.583 57.8533C121.336 57.8533 120.325 58.866 120.325 60.1152C120.325 61.3644 121.336 62.3771 122.583 62.3771Z" fill="#65ADA5"/>
<path d="M121.954 58.2528L122.42 58.1661L122.411 59.3019L121.954 58.2528Z" fill="#D88CAA"/>
<path d="M121.296 58.6329L121.651 58.4211L122.065 59.3885L121.296 58.6329Z" fill="#D88CAA"/>
<path d="M120.815 59.2586L121.075 58.8688L121.906 59.6917L120.815 59.2586Z" fill="#D88CAA"/>
<path d="M120.666 59.5618L120.628 59.9949L121.68 59.9757L120.666 59.5618Z" fill="#D88CAA"/>
<path d="M120.609 60.3221L120.705 60.7553L121.728 60.3125L120.609 60.3221Z" fill="#D88CAA"/>
<path d="M120.834 61.1065L121.108 61.4193L121.839 60.6349L120.834 61.1065Z" fill="#D88CAA"/>
<path d="M121.32 61.6601L121.695 61.8911L122.108 60.8419L121.32 61.6601Z" fill="#D88CAA"/>
<path d="M121.983 62.0161L122.41 62.0691L122.396 61.0055L121.983 62.0161Z" fill="#D88CAA"/>
<path d="M122.756 62.0883L123.203 61.9921L122.742 60.9622L122.756 62.0883Z" fill="#D88CAA"/>
<path d="M123.516 61.8574L123.842 61.6264L123.064 60.8419L123.516 61.8574Z" fill="#D88CAA"/>
<path d="M123.304 60.5868L124.328 61.0536L124.083 61.4049L123.304 60.5868Z" fill="#D88CAA"/>
<path d="M123.463 60.2981L124.534 60.3222L124.457 60.736L123.463 60.2981Z" fill="#D88CAA"/>
<path d="M123.434 59.9949L124.448 59.5233L124.534 60.0046L123.434 59.9949Z" fill="#D88CAA"/>
<path d="M123.323 59.6436L124.313 59.2057L124.068 58.8688L123.323 59.6436Z" fill="#D88CAA"/>
<path d="M123.05 59.4318L123.842 58.6088L123.444 58.3875L123.05 59.4318Z" fill="#D88CAA"/>
<path d="M122.742 59.2441L123.155 58.2479L122.718 58.1709L122.742 59.2441Z" fill="#D88CAA"/>
<path d="M176.505 60.4329H175.548L175.558 61.2654H174.794L174.784 60.4329L173.886 60.4377L173.896 61.2654L173.031 61.2751V60.4377L172.118 60.4329L172.137 62.1317L172.752 62.6515V63.6044H172.026V62.8151H171.104V63.6044H170.35V62.8151H169.427V63.6044H168.639V62.8151H167.716V63.6044H166.938V62.8151H166.015V63.6044H165.256V62.8151H164.334V63.6044H163.546V62.8151H162.623V63.6044H161.84V62.8151H160.917V63.6044H160.163V62.6563L160.797 62.0547L160.783 60.4377H159.827L159.836 61.2751H159.072L159.063 60.4377L158.164 60.4425L158.174 61.2751L157.309 61.2799V60.4425L156.396 60.4377L156.42 62.1365L157.03 62.6563V72.4162H160.144H160.163H172.771V72.4066H175.885V62.6515L176.519 62.0451L176.505 60.4329Z" fill="#D88CAA"/>
<path d="M162.465 68.4314C162.018 68.4314 161.653 68.6961 161.653 69.0137V71.7762C161.653 71.781 161.657 71.7906 161.657 71.7954V72.3585V72.4259H163.272V71.8147C163.272 71.805 163.277 71.7954 163.277 71.781V69.0185C163.277 68.6961 162.911 68.4314 162.465 68.4314Z" fill="#FFFFF9"/>
<path d="M166.4 67.0213C166.385 67.0213 166.376 67.0213 166.361 67.0213C165.131 67.0309 164.156 68.056 164.156 69.288V71.5548C164.156 71.5644 164.161 71.574 164.166 71.5788V72.344V72.4306H168.634V72.4258V71.5933C168.639 71.5788 168.644 71.5644 168.644 71.5499V69.2928C168.644 68.0608 167.668 67.0261 166.438 67.0165C166.424 67.0213 166.409 67.0213 166.4 67.0213Z" fill="#A3AEF0"/>
<path d="M158.592 64.3311C158.308 64.3311 158.078 64.4754 158.078 64.6583V66.2032C158.078 66.208 158.078 66.208 158.078 66.2128V66.5304V66.5641H159.101V66.2176C159.101 66.2128 159.101 66.208 159.101 66.1983V64.6535C159.106 64.4754 158.875 64.3311 158.592 64.3311Z" fill="#FFFFF9"/>
<path d="M158.592 68.7057C158.308 68.7057 158.078 68.8501 158.078 69.0329V70.5778C158.078 70.5826 158.078 70.5826 158.078 70.5874V70.905V70.9387H159.101V70.597C159.101 70.5922 159.101 70.5874 159.101 70.5778V69.0329C159.106 68.8501 158.875 68.7057 158.592 68.7057Z" fill="#FFFFF9"/>
<path d="M161.422 64.7882C161.287 64.7882 161.172 64.8604 161.172 64.947V65.693V65.6978V65.8518V65.871H161.667V65.7074C161.667 65.7026 161.667 65.7026 161.667 65.6978V64.9518C161.667 64.8604 161.556 64.7882 161.422 64.7882Z" fill="#A3AEF0"/>
<path d="M163.099 64.7882C162.964 64.7882 162.849 64.8604 162.849 64.947V65.693V65.6978V65.8518V65.871H163.344V65.7074C163.344 65.7026 163.344 65.7026 163.344 65.6978V64.9518C163.344 64.8604 163.233 64.7882 163.099 64.7882Z" fill="#A3AEF0"/>
<path d="M164.785 64.7882C164.651 64.7882 164.536 64.8604 164.536 64.947V65.693V65.6978V65.8518V65.871H165.03V65.7074C165.03 65.7026 165.03 65.7026 165.03 65.6978V64.9518C165.035 64.8604 164.925 64.7882 164.785 64.7882Z" fill="#A3AEF0"/>
<path d="M166.467 64.7882C166.333 64.7882 166.217 64.8604 166.217 64.947V65.693V65.6978V65.8518V65.871H166.712V65.7074C166.712 65.7026 166.712 65.7026 166.712 65.6978V64.9518C166.712 64.8604 166.602 64.7882 166.467 64.7882Z" fill="#A3AEF0"/>
<path d="M163.248 56.2169H169.682L166.438 52.1696L163.248 56.2169Z" fill="#A3AEF0"/>
<path d="M170.479 62.56L169.23 57.2181L169.73 56.4673L163.296 56.5154L163.695 57.1651L162.498 62.56H163.786V63.4119H164.065V62.56H165.511V63.4071H165.79V62.56H167.178V63.3782H167.462V62.56H168.903V63.3734H169.182V62.56H170.479Z" fill="#A3AEF0"/>
<path d="M76.4896 129.571H50.6582C49.7933 129.571 49.087 128.868 49.087 127.997V122.756C49.087 121.87 49.8029 121.149 50.6918 121.149H76.4896V129.571Z" fill="#A3AEF0"/>
<path d="M57.1977 128.122H50.4227C50.1152 128.122 49.8654 127.872 49.8654 127.564V123.295C49.8654 122.987 50.1152 122.737 50.4227 122.737H57.1977C57.5052 122.737 57.7551 122.987 57.7551 123.295V127.564C57.7599 127.872 57.5052 128.122 57.1977 128.122Z" fill="#333E9C"/>
<path d="M66.0148 128.122H59.2398C58.9323 128.122 58.6824 127.872 58.6824 127.564V123.295C58.6824 122.987 58.9323 122.737 59.2398 122.737H66.0148C66.3223 122.737 66.5722 122.987 66.5722 123.295V127.564C66.5722 127.872 66.3223 128.122 66.0148 128.122Z" fill="#333E9C"/>
<path d="M74.9184 128.122H68.1434C67.8359 128.122 67.5861 127.872 67.5861 127.564V123.295C67.5861 122.987 67.8359 122.737 68.1434 122.737H74.9184C75.2259 122.737 75.4758 122.987 75.4758 123.295V127.564C75.4758 127.872 75.2259 128.122 74.9184 128.122Z" fill="#333E9C"/>
<path d="M51.0089 122.482H49.9903C49.8846 122.482 49.7981 122.395 49.7981 122.289V121.827C49.7981 121.721 49.8846 121.635 49.9903 121.635H51.0089C51.1147 121.635 51.2011 121.721 51.2011 121.827V122.289C51.2011 122.395 51.1147 122.482 51.0089 122.482Z" fill="#333E9C"/>
<path d="M53.0078 122.482H51.9891C51.8834 122.482 51.7969 122.395 51.7969 122.289V121.827C51.7969 121.721 51.8834 121.635 51.9891 121.635H53.0078C53.1135 121.635 53.2 121.721 53.2 121.827V122.289C53.2 122.395 53.1135 122.482 53.0078 122.482Z" fill="#333E9C"/>
<path d="M55.0979 122.482H54.0793C53.9736 122.482 53.8871 122.395 53.8871 122.289V121.827C53.8871 121.721 53.9736 121.635 54.0793 121.635H55.0979C55.2036 121.635 55.2901 121.721 55.2901 121.827V122.289C55.2901 122.395 55.2036 122.482 55.0979 122.482Z" fill="#333E9C"/>
<path d="M57.0968 122.482H56.0782C55.9725 122.482 55.886 122.395 55.886 122.289V121.827C55.886 121.721 55.9725 121.635 56.0782 121.635H57.0968C57.2025 121.635 57.289 121.721 57.289 121.827V122.289C57.289 122.395 57.2025 122.482 57.0968 122.482Z" fill="#333E9C"/>
<path d="M59.2735 122.482H58.2548C58.1491 122.482 58.0626 122.395 58.0626 122.289V121.827C58.0626 121.721 58.1491 121.635 58.2548 121.635H59.2735C59.3792 121.635 59.4657 121.721 59.4657 121.827V122.289C59.4657 122.395 59.3792 122.482 59.2735 122.482Z" fill="#333E9C"/>
<path d="M61.2771 122.482H60.2585C60.1528 122.482 60.0663 122.395 60.0663 122.289V121.827C60.0663 121.721 60.1528 121.635 60.2585 121.635H61.2771C61.3828 121.635 61.4693 121.721 61.4693 121.827V122.289C61.4645 122.395 61.378 122.482 61.2771 122.482Z" fill="#333E9C"/>
<path d="M63.3625 122.482H62.3438C62.2381 122.482 62.1516 122.395 62.1516 122.289V121.827C62.1516 121.721 62.2381 121.635 62.3438 121.635H63.3625C63.4682 121.635 63.5547 121.721 63.5547 121.827V122.289C63.5547 122.395 63.4682 122.482 63.3625 122.482Z" fill="#333E9C"/>
<path d="M65.3613 122.482H64.3427C64.2369 122.482 64.1505 122.395 64.1505 122.289V121.827C64.1505 121.721 64.2369 121.635 64.3427 121.635H65.3613C65.467 121.635 65.5535 121.721 65.5535 121.827V122.289C65.5535 122.395 65.467 122.482 65.3613 122.482Z" fill="#333E9C"/>
<path d="M67.3361 122.482H66.3175C66.2118 122.482 66.1253 122.395 66.1253 122.289V121.827C66.1253 121.721 66.2118 121.635 66.3175 121.635H67.3361C67.4419 121.635 67.5283 121.721 67.5283 121.827V122.289C67.5283 122.395 67.4419 122.482 67.3361 122.482Z" fill="#333E9C"/>
<path d="M69.3351 122.482H68.3164C68.2107 122.482 68.1242 122.395 68.1242 122.289V121.827C68.1242 121.721 68.2107 121.635 68.3164 121.635H69.3351C69.4408 121.635 69.5273 121.721 69.5273 121.827V122.289C69.5273 122.395 69.4408 122.482 69.3351 122.482Z" fill="#333E9C"/>
<path d="M71.4252 122.482H70.4066C70.3008 122.482 70.2144 122.395 70.2144 122.289V121.827C70.2144 121.721 70.3008 121.635 70.4066 121.635H71.4252C71.5309 121.635 71.6174 121.721 71.6174 121.827V122.289C71.6174 122.395 71.5309 122.482 71.4252 122.482Z" fill="#333E9C"/>
<path d="M73.424 122.482H72.4054C72.2997 122.482 72.2132 122.395 72.2132 122.289V121.827C72.2132 121.721 72.2997 121.635 72.4054 121.635H73.424C73.5298 121.635 73.6162 121.721 73.6162 121.827V122.289C73.6162 122.395 73.5298 122.482 73.424 122.482Z" fill="#333E9C"/>
<path d="M75.4998 122.482H74.4811C74.3754 122.482 74.2889 122.395 74.2889 122.289V121.827C74.2889 121.721 74.3754 121.635 74.4811 121.635H75.4998C75.6055 121.635 75.692 121.721 75.692 121.827V122.289C75.692 122.395 75.6055 122.482 75.4998 122.482Z" fill="#333E9C"/>
<path d="M51.0138 129.152H49.9951C49.8894 129.152 49.8029 129.065 49.8029 128.959V128.497C49.8029 128.391 49.8894 128.305 49.9951 128.305H51.0138C51.1195 128.305 51.206 128.391 51.206 128.497V128.959C51.206 129.065 51.1195 129.152 51.0138 129.152Z" fill="#333E9C"/>
<path d="M53.0126 129.152H51.994C51.8882 129.152 51.8018 129.065 51.8018 128.959V128.497C51.8018 128.391 51.8882 128.305 51.994 128.305H53.0126C53.1183 128.305 53.2048 128.391 53.2048 128.497V128.959C53.2048 129.065 53.1183 129.152 53.0126 129.152Z" fill="#333E9C"/>
<path d="M55.1028 129.152H54.0841C53.9784 129.152 53.8919 129.065 53.8919 128.959V128.497C53.8919 128.391 53.9784 128.305 54.0841 128.305H55.1028C55.2085 128.305 55.295 128.391 55.295 128.497V128.959C55.295 129.065 55.2085 129.152 55.1028 129.152Z" fill="#333E9C"/>
<path d="M57.1016 129.152H56.0829C55.9772 129.152 55.8907 129.065 55.8907 128.959V128.497C55.8907 128.391 55.9772 128.305 56.0829 128.305H57.1016C57.2073 128.305 57.2938 128.391 57.2938 128.497V128.959C57.2938 129.065 57.2073 129.152 57.1016 129.152Z" fill="#333E9C"/>
<path d="M59.2783 129.152H58.2596C58.1539 129.152 58.0674 129.065 58.0674 128.959V128.497C58.0674 128.391 58.1539 128.305 58.2596 128.305H59.2783C59.384 128.305 59.4705 128.391 59.4705 128.497V128.959C59.4705 129.065 59.384 129.152 59.2783 129.152Z" fill="#333E9C"/>
<path d="M61.282 129.152H60.2633C60.1576 129.152 60.0711 129.065 60.0711 128.959V128.497C60.0711 128.391 60.1576 128.305 60.2633 128.305H61.282C61.3877 128.305 61.4741 128.391 61.4741 128.497V128.959C61.4693 129.065 61.3829 129.152 61.282 129.152Z" fill="#333E9C"/>
<path d="M63.3673 129.152H62.3486C62.2429 129.152 62.1564 129.065 62.1564 128.959V128.497C62.1564 128.391 62.2429 128.305 62.3486 128.305H63.3673C63.473 128.305 63.5595 128.391 63.5595 128.497V128.959C63.5595 129.065 63.473 129.152 63.3673 129.152Z" fill="#333E9C"/>
<path d="M65.3661 129.152H64.3475C64.2418 129.152 64.1553 129.065 64.1553 128.959V128.497C64.1553 128.391 64.2418 128.305 64.3475 128.305H65.3661C65.4718 128.305 65.5583 128.391 65.5583 128.497V128.959C65.5583 129.065 65.4718 129.152 65.3661 129.152Z" fill="#333E9C"/>
<path d="M67.341 129.152H66.3223C66.2166 129.152 66.1301 129.065 66.1301 128.959V128.497C66.1301 128.391 66.2166 128.305 66.3223 128.305H67.341C67.4467 128.305 67.5332 128.391 67.5332 128.497V128.959C67.5332 129.065 67.4467 129.152 67.341 129.152Z" fill="#333E9C"/>
<path d="M69.3398 129.152H68.3212C68.2155 129.152 68.129 129.065 68.129 128.959V128.497C68.129 128.391 68.2155 128.305 68.3212 128.305H69.3398C69.4455 128.305 69.532 128.391 69.532 128.497V128.959C69.532 129.065 69.4455 129.152 69.3398 129.152Z" fill="#333E9C"/>
<path d="M71.43 129.152H70.4113C70.3056 129.152 70.2191 129.065 70.2191 128.959V128.497C70.2191 128.391 70.3056 128.305 70.4113 128.305H71.43C71.5357 128.305 71.6222 128.391 71.6222 128.497V128.959C71.6222 129.065 71.5357 129.152 71.43 129.152Z" fill="#333E9C"/>
<path d="M73.4289 129.152H72.4102C72.3045 129.152 72.218 129.065 72.218 128.959V128.497C72.218 128.391 72.3045 128.305 72.4102 128.305H73.4289C73.5346 128.305 73.6211 128.391 73.6211 128.497V128.959C73.6211 129.065 73.5346 129.152 73.4289 129.152Z" fill="#333E9C"/>
<path d="M75.5046 129.152H74.486C74.3802 129.152 74.2938 129.065 74.2938 128.959V128.497C74.2938 128.391 74.3802 128.305 74.486 128.305H75.5046C75.6103 128.305 75.6968 128.391 75.6968 128.497V128.959C75.6968 129.065 75.6103 129.152 75.5046 129.152Z" fill="#333E9C"/>
<path d="M101.86 129.575H75.7881V121.163H102.11C102.705 121.163 103.191 121.649 103.191 122.246V128.247C103.191 128.979 102.595 129.575 101.86 129.575Z" fill="#A3AEF0"/>
<path d="M83.9036 128.122H77.1287C76.8211 128.122 76.5713 127.872 76.5713 127.564V123.319C76.5713 123.011 76.8211 122.761 77.1287 122.761H83.9036C84.2112 122.761 84.461 123.011 84.461 123.319V127.564C84.461 127.872 84.2112 128.122 83.9036 128.122Z" fill="#333E9C"/>
<path d="M92.7159 128.141H85.9409C85.6334 128.141 85.3835 127.891 85.3835 127.583V123.329C85.3835 123.021 85.6334 122.77 85.9409 122.77H92.7159C93.0234 122.77 93.2733 123.021 93.2733 123.329V127.583C93.2733 127.891 93.0234 128.141 92.7159 128.141Z" fill="#333E9C"/>
<path d="M101.619 128.141H94.8445C94.537 128.141 94.2871 127.891 94.2871 127.583V123.329C94.2871 123.021 94.537 122.77 94.8445 122.77H101.619C101.927 122.77 102.177 123.021 102.177 123.329V127.583C102.177 127.891 101.927 128.141 101.619 128.141Z" fill="#333E9C"/>
<path d="M77.7101 122.477H76.6962C76.5905 122.477 76.504 122.39 76.504 122.284V121.813C76.504 121.707 76.5905 121.62 76.6962 121.62H77.7101C77.8158 121.62 77.9023 121.707 77.9023 121.813V122.284C77.9023 122.39 77.8158 122.477 77.7101 122.477Z" fill="#333E9C"/>
<path d="M79.7089 122.477H78.6951C78.5894 122.477 78.5029 122.39 78.5029 122.284V121.813C78.5029 121.707 78.5894 121.62 78.6951 121.62H79.7089C79.8146 121.62 79.9011 121.707 79.9011 121.813V122.284C79.9011 122.39 79.8146 122.477 79.7089 122.477Z" fill="#333E9C"/>
<path d="M81.7943 122.477H80.7805C80.6747 122.477 80.5883 122.39 80.5883 122.284V121.813C80.5883 121.707 80.6747 121.62 80.7805 121.62H81.7943C81.9 121.62 81.9865 121.707 81.9865 121.813V122.284C81.9913 122.39 81.9048 122.477 81.7943 122.477Z" fill="#333E9C"/>
<path d="M83.7931 122.477H82.7793C82.6736 122.477 82.5871 122.39 82.5871 122.284V121.813C82.5871 121.707 82.6736 121.62 82.7793 121.62H83.7931C83.8989 121.62 83.9853 121.707 83.9853 121.813V122.284C83.9901 122.39 83.9037 122.477 83.7931 122.477Z" fill="#333E9C"/>
<path d="M85.9746 122.477H84.9608C84.855 122.477 84.7686 122.39 84.7686 122.284V121.813C84.7686 121.707 84.855 121.62 84.9608 121.62H85.9746C86.0803 121.62 86.1668 121.707 86.1668 121.813V122.284C86.1716 122.39 86.0803 122.477 85.9746 122.477Z" fill="#333E9C"/>
<path d="M87.9734 122.477H86.9596C86.8539 122.477 86.7674 122.39 86.7674 122.284V121.813C86.7674 121.707 86.8539 121.62 86.9596 121.62H87.9734C88.0791 121.62 88.1656 121.707 88.1656 121.813V122.284C88.1704 122.39 88.0791 122.477 87.9734 122.477Z" fill="#333E9C"/>
<path d="M90.0636 122.477H89.0497C88.944 122.477 88.8575 122.39 88.8575 122.284V121.813C88.8575 121.707 88.944 121.62 89.0497 121.62H90.0636C90.1693 121.62 90.2558 121.707 90.2558 121.813V122.284C90.2558 122.39 90.1693 122.477 90.0636 122.477Z" fill="#333E9C"/>
<path d="M92.0624 122.477H91.0486C90.9429 122.477 90.8564 122.39 90.8564 122.284V121.813C90.8564 121.707 90.9429 121.62 91.0486 121.62H92.0624C92.1681 121.62 92.2546 121.707 92.2546 121.813V122.284C92.2546 122.39 92.1681 122.477 92.0624 122.477Z" fill="#333E9C"/>
<path d="M94.0373 122.477H93.0234C92.9177 122.477 92.8312 122.39 92.8312 122.284V121.813C92.8312 121.707 92.9177 121.62 93.0234 121.62H94.0373C94.143 121.62 94.2295 121.707 94.2295 121.813V122.284C94.2295 122.39 94.143 122.477 94.0373 122.477Z" fill="#333E9C"/>
<path d="M96.0361 122.477H95.0223C94.9166 122.477 94.8301 122.39 94.8301 122.284V121.813C94.8301 121.707 94.9166 121.62 95.0223 121.62H96.0361C96.1418 121.62 96.2283 121.707 96.2283 121.813V122.284C96.2283 122.39 96.1418 122.477 96.0361 122.477Z" fill="#333E9C"/>
<path d="M98.1214 122.477H97.1076C97.0019 122.477 96.9154 122.39 96.9154 122.284V121.813C96.9154 121.707 97.0019 121.62 97.1076 121.62H98.1214C98.2271 121.62 98.3136 121.707 98.3136 121.813V122.284C98.3184 122.39 98.2271 122.477 98.1214 122.477Z" fill="#333E9C"/>
<path d="M100.12 122.477H99.1065C99.0008 122.477 98.9143 122.39 98.9143 122.284V121.813C98.9143 121.707 99.0008 121.62 99.1065 121.62H100.12C100.226 121.62 100.313 121.707 100.313 121.813V122.284C100.317 122.39 100.231 122.477 100.12 122.477Z" fill="#333E9C"/>
<path d="M102.201 122.477H101.187C101.081 122.477 100.995 122.39 100.995 122.284V121.813C100.995 121.707 101.081 121.62 101.187 121.62H102.201C102.307 121.62 102.393 121.707 102.393 121.813V122.284C102.393 122.39 102.307 122.477 102.201 122.477Z" fill="#333E9C"/>
<path d="M77.7149 129.181H76.6962C76.5905 129.181 76.504 129.094 76.504 128.988V128.531C76.504 128.425 76.5905 128.339 76.6962 128.339H77.7149C77.8206 128.339 77.9071 128.425 77.9071 128.531V128.988C77.9071 129.094 77.8206 129.181 77.7149 129.181Z" fill="#333E9C"/>
<path d="M79.7137 129.181H78.6951C78.5894 129.181 78.5029 129.094 78.5029 128.988V128.531C78.5029 128.425 78.5894 128.339 78.6951 128.339H79.7137C79.8194 128.339 79.9059 128.425 79.9059 128.531V128.988C79.9059 129.094 79.8194 129.181 79.7137 129.181Z" fill="#333E9C"/>
<path d="M81.8039 129.181H80.7852C80.6795 129.181 80.593 129.094 80.593 128.988V128.531C80.593 128.425 80.6795 128.339 80.7852 128.339H81.8039C81.9096 128.339 81.9961 128.425 81.9961 128.531V128.988C81.9961 129.094 81.9096 129.181 81.8039 129.181Z" fill="#333E9C"/>
<path d="M83.8027 129.181H82.7841C82.6783 129.181 82.5919 129.094 82.5919 128.988V128.531C82.5919 128.425 82.6783 128.339 82.7841 128.339H83.8027C83.9084 128.339 83.9949 128.425 83.9949 128.531V128.988C83.9949 129.094 83.9084 129.181 83.8027 129.181Z" fill="#333E9C"/>
<path d="M85.9842 129.181H84.9655C84.8598 129.181 84.7733 129.094 84.7733 128.988V128.531C84.7733 128.425 84.8598 128.339 84.9655 128.339H85.9842C86.0899 128.339 86.1764 128.425 86.1764 128.531V128.988C86.1764 129.094 86.0899 129.181 85.9842 129.181Z" fill="#333E9C"/>
<path d="M87.983 129.181H86.9644C86.8586 129.181 86.7722 129.094 86.7722 128.988V128.531C86.7722 128.425 86.8586 128.339 86.9644 128.339H87.983C88.0887 128.339 88.1752 128.425 88.1752 128.531V128.988C88.1752 129.094 88.0887 129.181 87.983 129.181Z" fill="#333E9C"/>
<path d="M90.0684 129.181H89.0497C88.944 129.181 88.8575 129.094 88.8575 128.988V128.531C88.8575 128.425 88.944 128.339 89.0497 128.339H90.0684C90.1741 128.339 90.2606 128.425 90.2606 128.531V128.988C90.2606 129.094 90.1741 129.181 90.0684 129.181Z" fill="#333E9C"/>
<path d="M92.0672 129.181H91.0486C90.9429 129.181 90.8564 129.094 90.8564 128.988V128.531C90.8564 128.425 90.9429 128.339 91.0486 128.339H92.0672C92.1729 128.339 92.2594 128.425 92.2594 128.531V128.988C92.2594 129.094 92.1729 129.181 92.0672 129.181Z" fill="#333E9C"/>
<path d="M94.0421 129.181H93.0234C92.9177 129.181 92.8312 129.094 92.8312 128.988V128.531C92.8312 128.425 92.9177 128.339 93.0234 128.339H94.0421C94.1478 128.339 94.2343 128.425 94.2343 128.531V128.988C94.2343 129.094 94.1478 129.181 94.0421 129.181Z" fill="#333E9C"/>
<path d="M96.0409 129.181H95.0223C94.9166 129.181 94.8301 129.094 94.8301 128.988V128.531C94.8301 128.425 94.9166 128.339 95.0223 128.339H96.0409C96.1466 128.339 96.2331 128.425 96.2331 128.531V128.988C96.2331 129.094 96.1466 129.181 96.0409 129.181Z" fill="#333E9C"/>
<path d="M98.1311 129.181H97.1124C97.0067 129.181 96.9202 129.094 96.9202 128.988V128.531C96.9202 128.425 97.0067 128.339 97.1124 128.339H98.1311C98.2368 128.339 98.3233 128.425 98.3233 128.531V128.988C98.3233 129.094 98.2368 129.181 98.1311 129.181Z" fill="#333E9C"/>
<path d="M100.13 129.181H99.1113C99.0056 129.181 98.9191 129.094 98.9191 128.988V128.531C98.9191 128.425 99.0056 128.339 99.1113 128.339H100.13C100.236 128.339 100.322 128.425 100.322 128.531V128.988C100.322 129.094 100.236 129.181 100.13 129.181Z" fill="#333E9C"/>
<path d="M102.206 129.19H101.192C101.086 129.19 101 129.104 101 128.998V128.526C101 128.42 101.086 128.334 101.192 128.334H102.206C102.311 128.334 102.398 128.42 102.398 128.526V128.998C102.398 129.104 102.311 129.19 102.206 129.19Z" fill="#333E9C"/>
<path d="M94.4457 143.464H72.6793C71.9489 143.464 71.3579 142.873 71.3579 142.141V137.723C71.3579 136.977 71.9633 136.371 72.7081 136.371H94.4457V143.464Z" fill="#A3AEF0"/>
<path d="M78.1905 142.242H72.4871C72.2276 142.242 72.0162 142.03 72.0162 141.771V138.171C72.0162 137.911 72.2276 137.699 72.4871 137.699H78.1953C78.4548 137.699 78.6662 137.911 78.6662 138.171V141.771C78.6614 142.03 78.45 142.242 78.1905 142.242Z" fill="#333E9C"/>
<path d="M85.619 142.242H79.9155C79.6561 142.242 79.4446 142.03 79.4446 141.771V138.171C79.4446 137.911 79.6561 137.699 79.9155 137.699H85.6238C85.8833 137.699 86.0947 137.911 86.0947 138.171V141.771C86.0899 142.03 85.8785 142.242 85.619 142.242Z" fill="#333E9C"/>
<path d="M93.1243 142.242H87.416C87.1565 142.242 86.9451 142.03 86.9451 141.771V138.171C86.9451 137.911 87.1565 137.699 87.416 137.699H93.1243C93.3838 137.699 93.5952 137.911 93.5952 138.171V141.771C93.5952 142.03 93.3838 142.242 93.1243 142.242Z" fill="#333E9C"/>
<path d="M72.9724 137.487H72.1123C72.021 137.487 71.9489 137.415 71.9489 137.324V136.939C71.9489 136.847 72.021 136.775 72.1123 136.775H72.9724C73.0637 136.775 73.1357 136.847 73.1357 136.939V137.324C73.1357 137.415 73.0637 137.487 72.9724 137.487Z" fill="#333E9C"/>
<path d="M74.6589 137.487H73.7988C73.7075 137.487 73.6354 137.415 73.6354 137.324V136.939C73.6354 136.847 73.7075 136.775 73.7988 136.775H74.6589C74.7502 136.775 74.8223 136.847 74.8223 136.939V137.324C74.8223 137.415 74.7502 137.487 74.6589 137.487Z" fill="#333E9C"/>
<path d="M76.4175 137.487H75.5574C75.4661 137.487 75.394 137.415 75.394 137.324V136.939C75.394 136.847 75.4661 136.775 75.5574 136.775H76.4175C76.5088 136.775 76.5809 136.847 76.5809 136.939V137.324C76.5809 137.415 76.5088 137.487 76.4175 137.487Z" fill="#333E9C"/>
<path d="M78.1041 137.487H77.244C77.1527 137.487 77.0806 137.415 77.0806 137.324V136.939C77.0806 136.847 77.1527 136.775 77.244 136.775H78.1041C78.1954 136.775 78.2674 136.847 78.2674 136.939V137.324C78.2674 137.415 78.1954 137.487 78.1041 137.487Z" fill="#333E9C"/>
<path d="M79.9395 137.487H79.0794C78.9882 137.487 78.9161 137.415 78.9161 137.324V136.939C78.9161 136.847 78.9882 136.775 79.0794 136.775H79.9395C80.0308 136.775 80.1029 136.847 80.1029 136.939V137.324C80.1029 137.415 80.0308 137.487 79.9395 137.487Z" fill="#333E9C"/>
<path d="M81.6261 137.487H80.766C80.6747 137.487 80.6026 137.415 80.6026 137.324V136.939C80.6026 136.847 80.6747 136.775 80.766 136.775H81.6261C81.7173 136.775 81.7894 136.847 81.7894 136.939V137.324C81.7894 137.415 81.7173 137.487 81.6261 137.487Z" fill="#333E9C"/>
<path d="M83.3847 137.487H82.5246C82.4333 137.487 82.3613 137.415 82.3613 137.324V136.939C82.3613 136.847 82.4333 136.775 82.5246 136.775H83.3847C83.476 136.775 83.5481 136.847 83.5481 136.939V137.324C83.5481 137.415 83.476 137.487 83.3847 137.487Z" fill="#333E9C"/>
<path d="M85.0713 137.487H84.2112C84.1199 137.487 84.0478 137.415 84.0478 137.324V136.939C84.0478 136.847 84.1199 136.775 84.2112 136.775H85.0713C85.1626 136.775 85.2346 136.847 85.2346 136.939V137.324C85.2346 137.415 85.1626 137.487 85.0713 137.487Z" fill="#333E9C"/>
<path d="M86.7337 137.487H85.8736C85.7823 137.487 85.7103 137.415 85.7103 137.324V136.939C85.7103 136.847 85.7823 136.775 85.8736 136.775H86.7337C86.825 136.775 86.8971 136.847 86.8971 136.939V137.324C86.8971 137.415 86.8202 137.487 86.7337 137.487Z" fill="#333E9C"/>
<path d="M88.4202 137.487H87.5602C87.4689 137.487 87.3968 137.415 87.3968 137.324V136.939C87.3968 136.847 87.4689 136.775 87.5602 136.775H88.4202C88.5115 136.775 88.5836 136.847 88.5836 136.939V137.324C88.5788 137.415 88.5067 137.487 88.4202 137.487Z" fill="#333E9C"/>
<path d="M90.1789 137.487H89.3188C89.2275 137.487 89.1555 137.415 89.1555 137.324V136.939C89.1555 136.847 89.2275 136.775 89.3188 136.775H90.1789C90.2702 136.775 90.3423 136.847 90.3423 136.939V137.324C90.3423 137.415 90.2654 137.487 90.1789 137.487Z" fill="#333E9C"/>
<path d="M91.8606 137.487H91.0005C90.9092 137.487 90.8372 137.415 90.8372 137.324V136.939C90.8372 136.847 90.9092 136.775 91.0005 136.775H91.8606C91.9519 136.775 92.024 136.847 92.024 136.939V137.324C92.024 137.415 91.9519 137.487 91.8606 137.487Z" fill="#333E9C"/>
<path d="M93.6144 137.487H92.7543C92.663 137.487 92.5909 137.415 92.5909 137.324V136.939C92.5909 136.847 92.663 136.775 92.7543 136.775H93.6144C93.7057 136.775 93.7778 136.847 93.7778 136.939V137.324C93.773 137.415 93.7009 137.487 93.6144 137.487Z" fill="#333E9C"/>
<path d="M72.9772 143.108H72.1171C72.0258 143.108 71.9537 143.036 71.9537 142.945V142.56C71.9537 142.468 72.0258 142.396 72.1171 142.396H72.9772C73.0685 142.396 73.1406 142.468 73.1406 142.56V142.945C73.1406 143.036 73.0685 143.108 72.9772 143.108Z" fill="#333E9C"/>
<path d="M74.6637 143.108H73.8036C73.7123 143.108 73.6403 143.036 73.6403 142.945V142.56C73.6403 142.468 73.7123 142.396 73.8036 142.396H74.6637C74.755 142.396 74.8271 142.468 74.8271 142.56V142.945C74.8271 143.036 74.7502 143.108 74.6637 143.108Z" fill="#333E9C"/>
<path d="M76.4223 143.108H75.5622C75.4709 143.108 75.3989 143.036 75.3989 142.945V142.56C75.3989 142.468 75.4709 142.396 75.5622 142.396H76.4223C76.5136 142.396 76.5857 142.468 76.5857 142.56V142.945C76.5857 143.036 76.5136 143.108 76.4223 143.108Z" fill="#333E9C"/>
<path d="M78.1088 143.108H77.2488C77.1575 143.108 77.0854 143.036 77.0854 142.945V142.56C77.0854 142.468 77.1575 142.396 77.2488 142.396H78.1088C78.2001 142.396 78.2722 142.468 78.2722 142.56V142.945C78.2722 143.036 78.1953 143.108 78.1088 143.108Z" fill="#333E9C"/>
<path d="M79.9443 143.108H79.0843C78.993 143.108 78.9209 143.036 78.9209 142.945V142.56C78.9209 142.468 78.993 142.396 79.0843 142.396H79.9443C80.0356 142.396 80.1077 142.468 80.1077 142.56V142.945C80.1077 143.036 80.0356 143.108 79.9443 143.108Z" fill="#333E9C"/>
<path d="M81.6309 143.108H80.7708C80.6795 143.108 80.6074 143.036 80.6074 142.945V142.56C80.6074 142.468 80.6795 142.396 80.7708 142.396H81.6309C81.7222 142.396 81.7942 142.468 81.7942 142.56V142.945C81.7942 143.036 81.7174 143.108 81.6309 143.108Z" fill="#333E9C"/>
<path d="M83.3895 143.108H82.5294C82.4381 143.108 82.366 143.036 82.366 142.945V142.56C82.366 142.468 82.4381 142.396 82.5294 142.396H83.3895C83.4808 142.396 83.5528 142.468 83.5528 142.56V142.945C83.5528 143.036 83.4808 143.108 83.3895 143.108Z" fill="#333E9C"/>
<path d="M85.076 143.108H84.2159C84.1246 143.108 84.0526 143.036 84.0526 142.945V142.56C84.0526 142.468 84.1246 142.396 84.2159 142.396H85.076C85.1673 142.396 85.2394 142.468 85.2394 142.56V142.945C85.2346 143.036 85.1625 143.108 85.076 143.108Z" fill="#333E9C"/>
<path d="M86.7385 143.108H85.8785C85.7872 143.108 85.7151 143.036 85.7151 142.945V142.56C85.7151 142.468 85.7872 142.396 85.8785 142.396H86.7385C86.8298 142.396 86.9019 142.468 86.9019 142.56V142.945C86.8971 143.036 86.825 143.108 86.7385 143.108Z" fill="#333E9C"/>
<path d="M88.4202 143.108H87.5602C87.4689 143.108 87.3968 143.036 87.3968 142.945V142.56C87.3968 142.468 87.4689 142.396 87.5602 142.396H88.4202C88.5115 142.396 88.5836 142.468 88.5836 142.56V142.945C88.5836 143.036 88.5115 143.108 88.4202 143.108Z" fill="#333E9C"/>
<path d="M90.1837 143.108H89.3236C89.2324 143.108 89.1603 143.036 89.1603 142.945V142.56C89.1603 142.468 89.2324 142.396 89.3236 142.396H90.1837C90.275 142.396 90.3471 142.468 90.3471 142.56V142.945C90.3423 143.036 90.2702 143.108 90.1837 143.108Z" fill="#333E9C"/>
<path d="M91.8654 143.108H91.0053C90.9141 143.108 90.842 143.036 90.842 142.945V142.56C90.842 142.468 90.9141 142.396 91.0053 142.396H91.8654C91.9567 142.396 92.0288 142.468 92.0288 142.56V142.945C92.0288 143.036 91.9567 143.108 91.8654 143.108Z" fill="#333E9C"/>
<path d="M93.6192 143.108H92.7591C92.6678 143.108 92.5958 143.036 92.5958 142.945V142.56C92.5958 142.468 92.6678 142.396 92.7591 142.396H93.6192C93.7105 142.396 93.7826 142.468 93.7826 142.56V142.945C93.7778 143.036 93.7057 143.108 93.6192 143.108Z" fill="#333E9C"/>
<path d="M115.828 143.465H93.8595V136.376H116.039C116.544 136.376 116.947 136.785 116.947 137.285V142.338C116.947 142.964 116.448 143.465 115.828 143.465Z" fill="#A3AEF0"/>
<path d="M100.692 142.242H94.9838C94.7244 142.242 94.5129 142.03 94.5129 141.771V138.195C94.5129 137.935 94.7244 137.723 94.9838 137.723H100.692C100.952 137.723 101.163 137.935 101.163 138.195V141.771C101.163 142.03 100.952 142.242 100.692 142.242Z" fill="#333E9C"/>
<path d="M108.121 142.257H102.412C102.153 142.257 101.941 142.045 101.941 141.785V138.2C101.941 137.94 102.153 137.728 102.412 137.728H108.121C108.38 137.728 108.591 137.94 108.591 138.2V141.785C108.591 142.045 108.38 142.257 108.121 142.257Z" fill="#333E9C"/>
<path d="M115.626 142.257H109.918C109.658 142.257 109.447 142.045 109.447 141.785V138.2C109.447 137.94 109.658 137.728 109.918 137.728H115.626C115.885 137.728 116.097 137.94 116.097 138.2V141.785C116.092 142.045 115.881 142.257 115.626 142.257Z" fill="#333E9C"/>
<path d="M95.474 137.487H94.6187C94.5274 137.487 94.4553 137.415 94.4553 137.324V136.924C94.4553 136.833 94.5274 136.761 94.6187 136.761H95.474C95.5653 136.761 95.6373 136.833 95.6373 136.924V137.324C95.6373 137.41 95.5653 137.487 95.474 137.487Z" fill="#333E9C"/>
<path d="M97.1605 137.487H96.3052C96.2139 137.487 96.1418 137.415 96.1418 137.324V136.924C96.1418 136.833 96.2139 136.761 96.3052 136.761H97.1605C97.2518 136.761 97.3239 136.833 97.3239 136.924V137.324C97.3239 137.41 97.247 137.487 97.1605 137.487Z" fill="#333E9C"/>
<path d="M98.9191 137.487H98.0638C97.9725 137.487 97.9005 137.415 97.9005 137.324V136.924C97.9005 136.833 97.9725 136.761 98.0638 136.761H98.9191C99.0104 136.761 99.0825 136.833 99.0825 136.924V137.324C99.0825 137.41 99.0104 137.487 98.9191 137.487Z" fill="#333E9C"/>
<path d="M100.606 137.487H99.7503C99.659 137.487 99.587 137.415 99.587 137.324V136.924C99.587 136.833 99.659 136.761 99.7503 136.761H100.606C100.697 136.761 100.769 136.833 100.769 136.924V137.324C100.769 137.41 100.692 137.487 100.606 137.487Z" fill="#333E9C"/>
<path d="M102.441 137.487H101.586C101.495 137.487 101.422 137.415 101.422 137.324V136.924C101.422 136.833 101.495 136.761 101.586 136.761H102.441C102.532 136.761 102.604 136.833 102.604 136.924V137.324C102.604 137.41 102.532 137.487 102.441 137.487Z" fill="#333E9C"/>
<path d="M104.128 137.487H103.272C103.181 137.487 103.109 137.415 103.109 137.324V136.924C103.109 136.833 103.181 136.761 103.272 136.761H104.128C104.219 136.761 104.291 136.833 104.291 136.924V137.324C104.291 137.41 104.214 137.487 104.128 137.487Z" fill="#333E9C"/>
<path d="M105.886 137.487H105.031C104.94 137.487 104.868 137.415 104.868 137.324V136.924C104.868 136.833 104.94 136.761 105.031 136.761H105.886C105.978 136.761 106.05 136.833 106.05 136.924V137.324C106.05 137.41 105.978 137.487 105.886 137.487Z" fill="#333E9C"/>
<path d="M107.573 137.487H106.718C106.626 137.487 106.554 137.415 106.554 137.324V136.924C106.554 136.833 106.626 136.761 106.718 136.761H107.573C107.664 136.761 107.736 136.833 107.736 136.924V137.324C107.731 137.41 107.659 137.487 107.573 137.487Z" fill="#333E9C"/>
<path d="M109.231 137.487H108.375C108.284 137.487 108.212 137.415 108.212 137.324V136.924C108.212 136.833 108.284 136.761 108.375 136.761H109.231C109.322 136.761 109.394 136.833 109.394 136.924V137.324C109.394 137.41 109.322 137.487 109.231 137.487Z" fill="#333E9C"/>
<path d="M110.917 137.487H110.062C109.971 137.487 109.898 137.415 109.898 137.324V136.924C109.898 136.833 109.971 136.761 110.062 136.761H110.917C111.008 136.761 111.08 136.833 111.08 136.924V137.324C111.08 137.41 111.008 137.487 110.917 137.487Z" fill="#333E9C"/>
<path d="M112.676 137.487H111.82C111.729 137.487 111.657 137.415 111.657 137.324V136.924C111.657 136.833 111.729 136.761 111.82 136.761H112.676C112.767 136.761 112.839 136.833 112.839 136.924V137.324C112.839 137.41 112.767 137.487 112.676 137.487Z" fill="#333E9C"/>
<path d="M114.362 137.487H113.507C113.416 137.487 113.344 137.415 113.344 137.324V136.924C113.344 136.833 113.416 136.761 113.507 136.761H114.362C114.454 136.761 114.526 136.833 114.526 136.924V137.324C114.526 137.41 114.454 137.487 114.362 137.487Z" fill="#333E9C"/>
<path d="M116.111 137.487H115.256C115.165 137.487 115.093 137.415 115.093 137.324V136.924C115.093 136.833 115.165 136.761 115.256 136.761H116.111C116.203 136.761 116.275 136.833 116.275 136.924V137.324C116.275 137.41 116.203 137.487 116.111 137.487Z" fill="#333E9C"/>
<path d="M95.4788 143.132H94.6187C94.5322 143.132 94.4553 143.06 94.4553 142.969V142.584C94.4553 142.497 94.5274 142.42 94.6187 142.42H95.4788C95.5653 142.42 95.6422 142.492 95.6422 142.584V142.969C95.6422 143.06 95.5701 143.132 95.4788 143.132Z" fill="#333E9C"/>
<path d="M97.1653 143.132H96.3052C96.2187 143.132 96.1418 143.06 96.1418 142.969V142.584C96.1418 142.497 96.2139 142.42 96.3052 142.42H97.1653C97.2518 142.42 97.3287 142.492 97.3287 142.584V142.969C97.3239 143.06 97.2518 143.132 97.1653 143.132Z" fill="#333E9C"/>
<path d="M98.9239 143.132H98.0638C97.9773 143.132 97.9005 143.06 97.9005 142.969V142.584C97.9005 142.497 97.9725 142.42 98.0638 142.42H98.9239C99.0104 142.42 99.0873 142.492 99.0873 142.584V142.969C99.0873 143.06 99.0152 143.132 98.9239 143.132Z" fill="#333E9C"/>
<path d="M100.61 143.132H99.7503C99.6639 143.132 99.587 143.06 99.587 142.969V142.584C99.587 142.497 99.659 142.42 99.7503 142.42H100.61C100.697 142.42 100.774 142.492 100.774 142.584V142.969C100.769 143.06 100.697 143.132 100.61 143.132Z" fill="#333E9C"/>
<path d="M102.446 143.132H101.586C101.499 143.132 101.422 143.06 101.422 142.969V142.584C101.422 142.497 101.495 142.42 101.586 142.42H102.446C102.532 142.42 102.609 142.492 102.609 142.584V142.969C102.609 143.06 102.537 143.132 102.446 143.132Z" fill="#333E9C"/>
<path d="M104.132 143.132H103.272C103.186 143.132 103.109 143.06 103.109 142.969V142.584C103.109 142.497 103.181 142.42 103.272 142.42H104.132C104.219 142.42 104.296 142.492 104.296 142.584V142.969C104.291 143.06 104.219 143.132 104.132 143.132Z" fill="#333E9C"/>
<path d="M105.891 143.132H105.031C104.944 143.132 104.868 143.06 104.868 142.969V142.584C104.868 142.497 104.94 142.42 105.031 142.42H105.891C105.978 142.42 106.054 142.492 106.054 142.584V142.969C106.054 143.06 105.982 143.132 105.891 143.132Z" fill="#333E9C"/>
<path d="M107.578 143.132H106.718C106.631 143.132 106.554 143.06 106.554 142.969V142.584C106.554 142.497 106.626 142.42 106.718 142.42H107.578C107.664 142.42 107.741 142.492 107.741 142.584V142.969C107.736 143.06 107.664 143.132 107.578 143.132Z" fill="#333E9C"/>
<path d="M109.24 143.132H108.38C108.294 143.132 108.217 143.06 108.217 142.969V142.584C108.217 142.497 108.289 142.42 108.38 142.42H109.24C109.327 142.42 109.404 142.492 109.404 142.584V142.969C109.399 143.06 109.327 143.132 109.24 143.132Z" fill="#333E9C"/>
<path d="M110.922 143.132H110.062C109.975 143.132 109.898 143.06 109.898 142.969V142.584C109.898 142.497 109.971 142.42 110.062 142.42H110.922C111.008 142.42 111.085 142.492 111.085 142.584V142.969C111.085 143.06 111.013 143.132 110.922 143.132Z" fill="#333E9C"/>
<path d="M112.685 143.132H111.825C111.739 143.132 111.662 143.06 111.662 142.969V142.584C111.662 142.497 111.734 142.42 111.825 142.42H112.685C112.772 142.42 112.849 142.492 112.849 142.584V142.969C112.844 143.06 112.772 143.132 112.685 143.132Z" fill="#333E9C"/>
<path d="M114.367 143.132H113.507C113.42 143.132 113.344 143.06 113.344 142.969V142.584C113.344 142.497 113.416 142.42 113.507 142.42H114.367C114.454 142.42 114.53 142.492 114.53 142.584V142.969C114.53 143.06 114.458 143.132 114.367 143.132Z" fill="#333E9C"/>
<path d="M116.116 143.142H115.261C115.169 143.142 115.097 143.07 115.097 142.978V142.579C115.097 142.488 115.169 142.415 115.261 142.415H116.116C116.207 142.415 116.279 142.488 116.279 142.579V142.978C116.279 143.065 116.207 143.142 116.116 143.142Z" fill="#333E9C"/>
<path d="M100.908 130.427H51.2972C51.0762 130.427 50.8936 130.244 50.8936 130.023V129.97C50.8936 129.749 51.0762 129.566 51.2972 129.566H100.908C101.129 129.566 101.312 129.749 101.312 129.97V130.023C101.312 130.244 101.129 130.427 100.908 130.427Z" fill="#D88CAA"/>
<path d="M115.016 144.34H73.0733C72.8667 144.34 72.6985 144.172 72.6985 143.965V143.83C72.6985 143.623 72.8667 143.455 73.0733 143.455H115.02C115.227 143.455 115.395 143.623 115.395 143.83V143.965C115.395 144.172 115.222 144.34 115.016 144.34Z" fill="#F5B37B"/>
<path d="M56.8998 83.5188C56.8998 83.5188 64.9145 90.8628 73.9478 83.5188L73.1358 86.4352L71.3675 87.6095L70.1135 87.6865L67.5572 87.8983L66.2359 88.0908L64.5637 87.9079L63.7229 87.9945L61.9402 87.7394L59.4705 87.9705L58.793 87.4651L56.8998 85.4438V83.5188Z" fill="#FFD8B6"/>
<path d="M61.2194 85.5305C61.2339 85.468 61.2531 85.4102 61.2771 85.3476C61.2675 85.3717 61.2531 85.4006 61.2435 85.4246C61.2915 85.314 61.3492 85.2129 61.4213 85.1214C61.402 85.1455 61.3876 85.1648 61.3684 85.1888C61.4357 85.1022 61.5125 85.0252 61.599 84.9578C61.575 84.9771 61.5558 84.9915 61.5318 85.0108C61.6183 84.9482 61.7047 84.8953 61.8057 84.8519C61.8729 84.8231 61.9354 84.7268 61.9546 84.6594C61.9738 84.5824 61.9642 84.4766 61.921 84.4092C61.8777 84.3418 61.8105 84.2792 61.7288 84.26C61.6999 84.2552 61.6711 84.2504 61.6423 84.2504C61.5846 84.2504 61.527 84.2648 61.4789 84.2937C61.0657 84.4766 60.7534 84.8519 60.614 85.2851C60.6044 85.314 60.5948 85.338 60.59 85.3669C60.5708 85.4535 60.5756 85.5401 60.6236 85.6171C60.6621 85.6845 60.7389 85.7471 60.8158 85.7663C60.8975 85.7856 60.9936 85.7808 61.0657 85.7326C61.1378 85.6797 61.205 85.6123 61.2194 85.5305Z" fill="#222122"/>
<path d="M59.9366 87.7202L58.7257 88.7164L58.8747 88.9907L59.2831 89.318L63.6412 89.1928L64.3619 89.0966V88.6105L63.3144 88.0089L62.2429 87.6432L59.9366 87.7202Z" fill="white"/>
<path d="M67.6148 87.7202L66.404 88.7164L66.5529 88.9907L66.9614 89.318L71.3195 89.1928L72.0402 89.0966V88.6105L70.9927 88.0089L69.9212 87.6432L67.6148 87.7202Z" fill="white"/>
<path d="M64.3619 88.6346H58.942V89.318H64.3619V88.6346Z" fill="#FFD8B6"/>
<path d="M71.9345 88.6346H66.5145V89.318H71.9345V88.6346Z" fill="#FFD8B6"/>
<path d="M61.6471 87.2871C60.8495 87.2919 60.0182 87.446 59.3263 87.8598C58.7978 88.1775 58.3557 88.6732 58.3413 89.318C58.3365 89.4913 58.4951 89.6405 58.6632 89.6405C60.3978 89.6405 62.1372 89.6405 63.8718 89.6405C64.1216 89.6405 64.3715 89.6405 64.6262 89.6405C64.7991 89.6405 64.9529 89.4913 64.9481 89.318C64.9337 88.6732 64.4916 88.1775 63.9631 87.8598C63.276 87.446 62.4447 87.2919 61.6471 87.2871C61.2291 87.2823 61.2291 87.932 61.6471 87.9368C62.2958 87.9416 62.9685 88.0523 63.5403 88.3652C63.9006 88.5625 64.2946 88.8801 64.3042 89.318C64.4099 89.2122 64.5205 89.1015 64.6262 88.9956C62.8916 88.9956 61.1522 88.9956 59.4176 88.9956C59.1677 88.9956 58.9179 88.9956 58.6632 88.9956C58.7689 89.1015 58.8794 89.2122 58.9852 89.318C58.9948 88.8801 59.384 88.5625 59.7491 88.3652C60.3257 88.0523 60.9936 87.9416 61.6423 87.9368C62.0651 87.932 62.0651 87.2823 61.6471 87.2871Z" fill="#222122"/>
<path d="M69.2245 87.2871C68.4269 87.2919 67.5956 87.446 66.9037 87.8598C66.3752 88.1775 65.9331 88.6732 65.9187 89.318C65.9139 89.4913 66.0724 89.6405 66.2406 89.6405C67.9752 89.6405 69.7146 89.6405 71.4492 89.6405C71.699 89.6405 71.9489 89.6405 72.2036 89.6405C72.3765 89.6405 72.5303 89.4913 72.5255 89.318C72.5111 88.6732 72.069 88.1775 71.5405 87.8598C70.8534 87.446 70.0173 87.2919 69.2245 87.2871C68.8065 87.2823 68.8065 87.932 69.2245 87.9368C69.8732 87.9416 70.5459 88.0523 71.1176 88.3652C71.478 88.5625 71.872 88.8801 71.8816 89.318C71.9873 89.2122 72.0978 89.1015 72.2036 88.9956C70.469 88.9956 68.7296 88.9956 66.995 88.9956C66.7451 88.9956 66.4953 88.9956 66.2406 88.9956C66.3463 89.1015 66.4568 89.2122 66.5625 89.318C66.5722 88.8801 66.9614 88.5625 67.3265 88.3652C67.9031 88.0523 68.571 87.9416 69.2197 87.9368C69.6377 87.932 69.6425 87.2823 69.2245 87.2871Z" fill="#222122"/>
<path d="M63.5979 83.9953C63.3913 83.9423 63.1991 83.8365 63.0117 83.745C62.9685 83.721 62.6946 83.6295 62.8868 83.6825C62.8628 83.6728 62.8387 83.668 62.8195 83.6632C62.8099 83.6632 62.7955 83.6632 62.7811 83.6632C62.6658 83.668 62.5552 83.6488 62.4543 83.6055C61.8537 84.4958 61.5942 85.1166 61.7864 85.3139C62.0459 85.5738 63.0405 85.0348 64.4148 83.976C64.1553 84.0579 63.867 84.0627 63.5979 83.9953Z" fill="#FFBF36"/>
<path d="M33.4805 112.866L129.45 112.645C129.45 112.645 129.676 99.7806 114.031 104.357C114.031 104.357 109.61 90.1506 86.0659 93.8034C86.0659 93.8034 70.4113 76.6946 49.5386 87.4026C28.6659 98.1107 33.4805 112.866 33.4805 112.866Z" fill="#333E9C"/>
</g>
</g>
<defs>
<clipPath id="clip0">
<rect width="167" height="155" rx="20" fill="white"/>
</clipPath>
<clipPath id="clip1">
<rect width="160" height="112.34" fill="white" transform="translate(33 32)"/>
</clipPath>
</defs>
</svg>
