<svg width="167" height="155" viewBox="0 0 167 155" fill="none" xmlns="http://www.w3.org/2000/svg">
<g clip-path="url(#clip0)">
<g clip-path="url(#clip1)">
<path d="M192.966 92.1066H48.364C44.4985 92.1066 41.33 88.9426 41.33 85.0725C41.33 81.207 44.4939 78.0385 48.364 78.0385H192.966C196.832 78.0385 200 81.2024 200 85.0725C200 88.9426 196.836 92.1066 192.966 92.1066Z" fill="#A3AEF0"/>
<path d="M83.3279 77.1257H165.256C165.256 77.1257 165.449 65.8822 152.109 69.8853C152.109 69.8853 148.34 57.4725 128.261 60.664C128.261 60.664 114.912 45.72 97.1117 55.0743C79.311 64.4286 83.3279 77.1257 83.3279 77.1257Z" fill="#65ABA4"/>
<path d="M144.31 45.5685H187.661C187.661 45.5685 187.01 39.3736 180.164 41.9827C180.164 41.9827 176.417 34.325 168.104 38.3969C168.104 38.3969 157.365 27.3689 147.699 36.8378C147.699 36.8378 144.461 39.5708 144.31 45.5685Z" fill="#31CFFF"/>
<path d="M69.92 47.4673H40C40 47.4673 40.4494 43.1936 45.1724 44.9911C45.1724 44.9911 47.7586 39.7041 53.495 42.515C53.495 42.515 60.9051 34.9032 67.5769 41.4374C67.5815 41.442 69.8146 43.3266 69.92 47.4673Z" fill="#31CFFF"/>
<path d="M153.183 64.2085H125.198V76.3966H153.183V64.2085Z" fill="#F7FAEA"/>
<path d="M155.163 65.3505H153.183V76.3968H155.163V65.3505Z" fill="#E0BBC8"/>
<path d="M176.068 64.2085H155.163V72.632H176.068V64.2085Z" fill="#F7FAEA"/>
<path d="M171.502 73.6042H155.154V76.3968H171.502V73.6042Z" fill="#F7FAEA"/>
<path d="M176.128 76.3966H125.198V77.0202H176.128V76.3966Z" fill="#E0BBC8"/>
<path d="M175.142 66.2031H156.163V72.4852H175.142V66.2031Z" fill="#E0BBC8"/>
<path d="M152.16 66.2532H126.005V72.4389H152.16V66.2532Z" fill="#E0BBC8"/>
<path d="M153.183 72.4391H125.156V73.6038H153.183V72.4391Z" fill="#3343A6"/>
<path d="M143.273 72.3842H134.896V76.3964H143.273V72.3842Z" fill="#E0BBC8"/>
<path d="M171.62 72.4391H155.163V73.6038H171.62V72.4391Z" fill="#3343A6"/>
<path d="M149.839 92.0739H161.239C162.133 91.2439 162.028 80.8532 155.209 81.3576C148.702 81.8391 149.839 92.0739 149.839 92.0739Z" fill="#65ABA4"/>
<path d="M150.973 92.0746C150.973 92.0746 150.34 83.8621 154.247 81.5144C154.247 81.5144 148.982 82.0968 149.84 92.0746H150.973Z" fill="#31CFFF"/>
<path d="M135.387 92.0739H146.786C147.68 91.2439 147.575 80.8532 140.756 81.3576C134.254 81.8391 135.387 92.0739 135.387 92.0739Z" fill="#65ABA4"/>
<path d="M136.524 92.0746C136.524 92.0746 135.891 83.8621 139.798 81.5144C139.798 81.5144 134.534 82.0968 135.391 92.0746H136.524Z" fill="#31CFFF"/>
<path d="M120.892 92.0739H132.291C133.185 91.2439 133.08 80.8532 126.261 81.3576C119.755 81.8391 120.892 92.0739 120.892 92.0739Z" fill="#65ABA4"/>
<path d="M122.025 92.0746C122.025 92.0746 121.392 83.8621 125.299 81.5144C125.299 81.5144 120.034 82.0968 120.892 92.0746H122.025Z" fill="#31CFFF"/>
<path d="M78.5408 49.0077H72.3825V60.3704H78.5408V49.0077Z" fill="#F7FAEA"/>
<path d="M84.6668 40.1582L78.3801 49.0081V60.3709H90.9488V49.0081L84.6668 40.1582Z" fill="#F4EFE1"/>
<path d="M78.3803 49.0081L84.6669 40.1582H78.5453L72.3825 49.0081H78.3803Z" fill="#E0BBC8"/>
<path d="M76.0414 50.4109H74.9133V52.7449H76.0414V50.4109Z" fill="#E8B68E"/>
<path d="M75.5877 50.4109H74.9091V52.7449H75.5877V50.4109Z" fill="#E9D5C6"/>
<path d="M76.0371 53.5383H74.9091V55.8723H76.0371V53.5383Z" fill="#E8B68E"/>
<path d="M75.5785 53.5383H74.9091V55.8723H75.5785V53.5383Z" fill="#E9D5C6"/>
<path d="M82.3055 50.4109H81.1774V52.7449H82.3055V50.4109Z" fill="#E8B68E"/>
<path d="M81.8468 50.4109H81.1774V52.7449H81.8468V50.4109Z" fill="#E9D5C6"/>
<path d="M84.3733 50.4109H83.2452V52.7449H84.3733V50.4109Z" fill="#E8B68E"/>
<path d="M83.9147 50.4109H83.2452V52.7449H83.9147V50.4109Z" fill="#E9D5C6"/>
<path d="M86.4004 50.4109H85.2722V52.7449H86.4004V50.4109Z" fill="#E8B68E"/>
<path d="M85.9417 50.4109H85.2722V52.7449H85.9417V50.4109Z" fill="#E9D5C6"/>
<path d="M88.4043 50.4109H87.2763V52.7449H88.4043V50.4109Z" fill="#E8B68E"/>
<path d="M87.9458 50.4109H87.2763V52.7449H87.9458V50.4109Z" fill="#E9D5C6"/>
<path d="M82.3055 53.5707H81.1774V55.9047H82.3055V53.5707Z" fill="#E8B68E"/>
<path d="M81.8468 53.5707H81.1774V55.9047H81.8468V53.5707Z" fill="#E9D5C6"/>
<path d="M84.3733 53.5707H83.2452V55.9047H84.3733V53.5707Z" fill="#E8B68E"/>
<path d="M83.9147 53.5707H83.2452V55.9047H83.9147V53.5707Z" fill="#E9D5C6"/>
<path d="M86.4004 53.5707H85.2722V55.9047H86.4004V53.5707Z" fill="#E8B68E"/>
<path d="M85.9417 53.5707H85.2722V55.9047H85.9417V53.5707Z" fill="#E9D5C6"/>
<path d="M88.4043 53.5707H87.2763V55.9047H88.4043V53.5707Z" fill="#E8B68E"/>
<path d="M87.9458 53.5707H87.2763V55.9047H87.9458V53.5707Z" fill="#E9D5C6"/>
<path d="M82.3055 56.7067H81.1774V59.0407H82.3055V56.7067Z" fill="#E8B68E"/>
<path d="M81.8468 56.7067H81.1774V59.0407H81.8468V56.7067Z" fill="#E9D5C6"/>
<path d="M84.3778 56.7067H83.2498V59.0407H84.3778V56.7067Z" fill="#E8B68E"/>
<path d="M83.9193 56.7067H83.2498V59.0407H83.9193V56.7067Z" fill="#E9D5C6"/>
<path d="M86.4004 56.7067H85.2722V59.0407H86.4004V56.7067Z" fill="#E8B68E"/>
<path d="M85.9417 56.7067H85.2722V59.0407H85.9417V56.7067Z" fill="#E9D5C6"/>
<path d="M88.4043 56.7067H87.2763V59.0407H88.4043V56.7067Z" fill="#E8B68E"/>
<path d="M87.9458 56.7067H87.2763V59.0407H87.9458V56.7067Z" fill="#E9D5C6"/>
<path d="M76.0786 56.6334H74.9506V58.9674H76.0786V56.6334Z" fill="#E8B68E"/>
<path d="M75.62 56.6334H74.9506V58.9674H75.62V56.6334Z" fill="#E9D5C6"/>
<path d="M79.4118 39.3092H78.7424V40.1575H79.4118V39.3092Z" fill="#A3AEF0"/>
<path d="M80.1638 39.0712H79.4943V40.1533H80.1638V39.0712Z" fill="#A3AEF0"/>
<path d="M84.6667 40.1075H78.5452V40.158H84.6667V40.1075Z" fill="#A3AEF0"/>
<path d="M96.4374 49.4667H90.2792V64.8783H96.4374V49.4667Z" fill="#A3AEF0"/>
<path d="M102.531 40.63L96.2998 49.4386L96.2448 64.8824H108.814V51.2453L102.531 40.63Z" fill="#90A2EE"/>
<path d="M96.2723 49.4665L102.559 40.6166H96.4374L90.2792 49.4665H96.2723Z" fill="#F7FAEA"/>
<path d="M94.9742 50.865H93.8461V53.199H94.9742V50.865Z" fill="#68B0A4"/>
<path d="M94.5205 50.865H93.8419V53.199H94.5205V50.865Z" fill="#31CFFF"/>
<path d="M94.9699 54.0333H93.8419V56.3673H94.9699V54.0333Z" fill="#68B0A4"/>
<path d="M94.5208 54.0376H93.8513V56.3716H94.5208V54.0376Z" fill="#31CFFF"/>
<path d="M100.198 50.865H99.0698V53.199H100.198V50.865Z" fill="#68B0A4"/>
<path d="M99.7393 50.865H99.0698V53.199H99.7393V50.865Z" fill="#31CFFF"/>
<path d="M102.27 50.865H101.142V53.199H102.27V50.865Z" fill="#68B0A4"/>
<path d="M101.811 50.865H101.142V53.199H101.811V50.865Z" fill="#31CFFF"/>
<path d="M104.292 50.865H103.164V53.199H104.292V50.865Z" fill="#68B0A4"/>
<path d="M103.834 50.865H103.164V53.199H103.834V50.865Z" fill="#31CFFF"/>
<path d="M106.296 50.865H105.168V53.199H106.296V50.865Z" fill="#68B0A4"/>
<path d="M105.838 50.865H105.168V53.199H105.838V50.865Z" fill="#31CFFF"/>
<path d="M100.198 54.0291H99.0698V56.363H100.198V54.0291Z" fill="#68B0A4"/>
<path d="M99.7393 54.0291H99.0698V56.363H99.7393V54.0291Z" fill="#31CFFF"/>
<path d="M102.27 54.0291H101.142V56.363H102.27V54.0291Z" fill="#68B0A4"/>
<path d="M101.811 54.0291H101.142V56.363H101.811V54.0291Z" fill="#31CFFF"/>
<path d="M104.292 54.0291H103.164V56.363H104.292V54.0291Z" fill="#68B0A4"/>
<path d="M103.834 54.0291H103.164V56.363H103.834V54.0291Z" fill="#31CFFF"/>
<path d="M106.296 54.0291H105.168V56.363H106.296V54.0291Z" fill="#68B0A4"/>
<path d="M105.838 54.0291H105.168V56.363H105.838V54.0291Z" fill="#31CFFF"/>
<path d="M100.198 57.165H99.0698V59.499H100.198V57.165Z" fill="#68B0A4"/>
<path d="M99.7393 57.165H99.0698V59.499H99.7393V57.165Z" fill="#31CFFF"/>
<path d="M102.27 57.165H101.142V59.499H102.27V57.165Z" fill="#68B0A4"/>
<path d="M101.811 57.165H101.142V59.499H101.811V57.165Z" fill="#31CFFF"/>
<path d="M104.292 57.165H103.164V59.499H104.292V57.165Z" fill="#68B0A4"/>
<path d="M103.834 57.165H103.164V59.499H103.834V57.165Z" fill="#31CFFF"/>
<path d="M106.296 57.165H105.168V59.499H106.296V57.165Z" fill="#68B0A4"/>
<path d="M105.838 57.165H105.168V59.499H105.838V57.165Z" fill="#31CFFF"/>
<path d="M94.9793 57.1699H93.8513V59.5039H94.9793V57.1699Z" fill="#68B0A4"/>
<path d="M94.5208 57.1699H93.8513V59.5039H94.5208V57.1699Z" fill="#31CFFF"/>
<path d="M97.3043 39.7676H96.6348V40.6159H97.3043V39.7676Z" fill="#F5B37B"/>
<path d="M98.056 39.5295H97.3865V40.6117H98.056V39.5295Z" fill="#F5B37B"/>
<path d="M102.559 40.5659H96.4377V40.6164H102.559V40.5659Z" fill="#F5B37B"/>
<path d="M100.161 60.2235H99.0326V62.5575H100.161V60.2235Z" fill="#68B0A4"/>
<path d="M99.7021 60.2235H99.0326V62.5575H99.7021V60.2235Z" fill="#31CFFF"/>
<path d="M102.233 60.2235H101.105V62.5575H102.233V60.2235Z" fill="#68B0A4"/>
<path d="M101.775 60.2235H101.105V62.5575H101.775V60.2235Z" fill="#31CFFF"/>
<path d="M104.255 60.2235H103.127V62.5575H104.255V60.2235Z" fill="#68B0A4"/>
<path d="M103.797 60.2235H103.127V62.5575H103.797V60.2235Z" fill="#31CFFF"/>
<path d="M106.264 60.2235H105.136V62.5575H106.264V60.2235Z" fill="#68B0A4"/>
<path d="M105.805 60.2235H105.136V62.5575H105.805V60.2235Z" fill="#31CFFF"/>
<path d="M94.9793 60.2418H93.8513V62.5758H94.9793V60.2418Z" fill="#68B0A4"/>
<path d="M94.5208 60.2418H93.8513V62.5758H94.5208V60.2418Z" fill="#97DEDE"/>
<path d="M92.6132 60.251H91.485V62.585H92.6132V60.251Z" fill="#68B0A4"/>
<path d="M92.1545 60.251H91.485V62.585H92.1545V60.251Z" fill="#31CFFF"/>
<path d="M92.6132 57.1418H91.485V59.4758H92.6132V57.1418Z" fill="#68B0A4"/>
<path d="M92.1545 57.1418H91.485V59.4758H92.1545V57.1418Z" fill="#31CFFF"/>
<path d="M92.6132 54.0474H91.485V56.3814H92.6132V54.0474Z" fill="#68B0A4"/>
<path d="M92.1545 54.0474H91.485V56.3814H92.1545V54.0474Z" fill="#31CFFF"/>
<path d="M92.6132 50.8467H91.485V53.1807H92.6132V50.8467Z" fill="#68B0A4"/>
<path d="M92.1545 50.8467H91.485V53.1807H92.1545V50.8467Z" fill="#31CFFF"/>
<path d="M113.642 60.774H108.814V72.8613H113.642V60.774Z" fill="#DEB5C4"/>
<path d="M118.425 53.8453L113.536 60.7556L113.495 72.8658H123.349V62.1725L118.425 53.8453Z" fill="#D9A5BA"/>
<path d="M113.518 60.7746L118.443 53.8368H113.647L108.814 60.7746H113.518Z" fill="#F5B37B"/>
<path d="M112.501 61.8745H111.616V63.7041H112.501V61.8745Z" fill="#3542A5"/>
<path d="M112.143 61.8745H111.611V63.7041H112.143V61.8745Z" fill="#90A2EE"/>
<path d="M112.496 64.3556H111.611V66.1852H112.496V64.3556Z" fill="#3542A5"/>
<path d="M112.143 64.3599H111.616V66.1895H112.143V64.3599Z" fill="#90A2EE"/>
<path d="M116.595 61.8745H115.71V63.7041H116.595V61.8745Z" fill="#3542A5"/>
<path d="M116.238 61.8745H115.71V63.7041H116.238V61.8745Z" fill="#90A2EE"/>
<path d="M118.218 61.8745H117.333V63.7041H118.218V61.8745Z" fill="#3542A5"/>
<path d="M117.861 61.8745H117.333V63.7041H117.861V61.8745Z" fill="#90A2EE"/>
<path d="M119.805 61.8745H118.92V63.7041H119.805V61.8745Z" fill="#3542A5"/>
<path d="M119.448 61.8745H118.92V63.7041H119.448V61.8745Z" fill="#90A2EE"/>
<path d="M121.378 61.8745H120.493V63.7041H121.378V61.8745Z" fill="#3542A5"/>
<path d="M121.021 61.8745H120.493V63.7041H121.021V61.8745Z" fill="#90A2EE"/>
<path d="M116.595 64.3556H115.71V66.1852H116.595V64.3556Z" fill="#3542A5"/>
<path d="M116.238 64.3556H115.71V66.1852H116.238V64.3556Z" fill="#90A2EE"/>
<path d="M118.218 64.3556H117.333V66.1852H118.218V64.3556Z" fill="#3542A5"/>
<path d="M117.861 64.3556H117.333V66.1852H117.861V64.3556Z" fill="#90A2EE"/>
<path d="M119.805 64.3556H118.92V66.1852H119.805V64.3556Z" fill="#3542A5"/>
<path d="M119.448 64.3556H118.92V66.1852H119.448V64.3556Z" fill="#90A2EE"/>
<path d="M121.378 64.3556H120.493V66.1852H121.378V64.3556Z" fill="#3542A5"/>
<path d="M121.021 64.3556H120.493V66.1852H121.021V64.3556Z" fill="#90A2EE"/>
<path d="M116.595 66.8135H115.71V68.6431H116.595V66.8135Z" fill="#3542A5"/>
<path d="M116.238 66.8135H115.71V68.6431H116.238V66.8135Z" fill="#90A2EE"/>
<path d="M118.218 66.8135H117.333V68.6431H118.218V66.8135Z" fill="#3542A5"/>
<path d="M117.861 66.8135H117.333V68.6431H117.861V66.8135Z" fill="#90A2EE"/>
<path d="M119.805 66.8135H118.92V68.6431H119.805V66.8135Z" fill="#3542A5"/>
<path d="M119.448 66.8135H118.92V68.6431H119.448V66.8135Z" fill="#90A2EE"/>
<path d="M121.378 66.8135H120.493V68.6431H121.378V66.8135Z" fill="#3542A5"/>
<path d="M121.021 66.8135H120.493V68.6431H121.021V66.8135Z" fill="#90A2EE"/>
<path d="M112.501 66.8177H111.616V68.6473H112.501V66.8177Z" fill="#3542A5"/>
<path d="M112.143 66.8177H111.616V68.6473H112.143V66.8177Z" fill="#90A2EE"/>
<path d="M114.321 53.1715H113.798V53.8364H114.321V53.1715Z" fill="#F7FAEA"/>
<path d="M114.913 52.9835H114.39V53.8318H114.913V52.9835Z" fill="#F7FAEA"/>
<path d="M118.448 53.7947H113.647V53.8359H118.448V53.7947Z" fill="#F7FAEA"/>
<path d="M116.568 69.2115H115.683V71.0411H116.568V69.2115Z" fill="#3542A5"/>
<path d="M116.21 69.2115H115.683V71.0411H116.21V69.2115Z" fill="#90A2EE"/>
<path d="M118.191 69.2115H117.306V71.0411H118.191V69.2115Z" fill="#3542A5"/>
<path d="M117.834 69.2115H117.306V71.0411H117.834V69.2115Z" fill="#90A2EE"/>
<path d="M119.778 69.2115H118.893V71.0411H119.778V69.2115Z" fill="#3542A5"/>
<path d="M119.42 69.2115H118.893V71.0411H119.42V69.2115Z" fill="#90A2EE"/>
<path d="M121.35 69.2115H120.465V71.0411H121.35V69.2115Z" fill="#3542A5"/>
<path d="M120.993 69.2115H120.465V71.0411H120.993V69.2115Z" fill="#90A2EE"/>
<path d="M112.501 69.2256H111.616V71.0552H112.501V69.2256Z" fill="#3542A5"/>
<path d="M112.143 69.2256H111.616V71.0552H112.143V69.2256Z" fill="#90A2EE"/>
<path d="M110.648 69.2299H109.763V71.0595H110.648V69.2299Z" fill="#3542A5"/>
<path d="M110.29 69.2299H109.763V71.0595H110.29V69.2299Z" fill="#90A2EE"/>
<path d="M110.648 66.7952H109.763V68.6248H110.648V66.7952Z" fill="#3542A5"/>
<path d="M110.29 66.7952H109.763V68.6248H110.29V66.7952Z" fill="#90A2EE"/>
<path d="M110.648 64.369H109.763V66.1986H110.648V64.369Z" fill="#3542A5"/>
<path d="M110.29 64.369H109.763V66.1986H110.29V64.369Z" fill="#90A2EE"/>
<path d="M110.648 61.8568H109.763V63.6864H110.648V61.8568Z" fill="#3542A5"/>
<path d="M110.29 61.8568H109.763V63.6864H110.29V61.8568Z" fill="#90A2EE"/>
<path d="M43.0904 77.3183L129.04 77.1257C129.04 77.1257 129.242 65.8822 115.233 69.8853C115.233 69.8853 111.276 57.4725 90.1876 60.664C90.1876 60.664 76.1699 45.72 57.475 55.0743C38.7801 64.4286 43.0904 77.3183 43.0904 77.3183Z" fill="#31CFFF"/>
<path d="M48.5382 78.0018H195.117V76.9471" fill="#66AEA5"/>
<path d="M195.685 78.2493H43.4895C43.1502 78.2493 42.8705 77.9696 42.8705 77.6303C42.8705 77.2909 43.1502 77.0112 43.4895 77.0112H195.685C196.024 77.0112 196.304 77.2909 196.304 77.6303C196.304 77.9696 196.024 78.2493 195.685 78.2493Z" fill="#65ABA4"/>
<path d="M185.157 98.0995H49.2487C48.946 98.0995 48.6984 97.8519 48.6984 97.5493C48.6984 97.2466 48.946 96.999 49.2487 96.999H185.157C185.459 96.999 185.707 97.2466 185.707 97.5493C185.712 97.8473 185.459 98.0995 185.157 98.0995Z" fill="#65ABA4"/>
<path d="M164.591 92.0739H175.991C176.885 91.2439 176.779 80.8532 169.961 81.3576C163.459 81.8391 164.591 92.0739 164.591 92.0739Z" fill="#65ABA4"/>
<path d="M165.729 92.0746C165.729 92.0746 165.096 83.8621 169.003 81.5144C169.003 81.5144 163.739 82.0968 164.596 92.0746H165.729Z" fill="#31CFFF"/>
<path d="M185.496 96.9898H49.0838C47.6119 96.9898 46.4059 95.7839 46.4059 94.3119C46.4059 92.84 47.6119 91.634 49.0838 91.634H185.496C186.968 91.634 188.174 92.84 188.174 94.3119C188.174 95.7839 186.968 96.9898 185.496 96.9898Z" fill="#31CFFF"/>
<path d="M63.5827 95.1513L82.5848 95.1834C82.5848 95.1834 83.5982 85.0312 75.2481 84.912C67.9572 84.8111 67.5996 89.6625 67.5996 89.6625C67.5996 89.6625 62.3446 89.956 63.5827 95.1513Z" fill="#F5B37B"/>
<path d="M68.5489 89.7444C68.5489 89.7444 69.5302 86.0579 73.3591 85.8607V89.749L68.5489 89.7444Z" fill="#F7FAEA"/>
<path d="M73.8132 85.8151C73.8132 85.8151 79.1369 84.6825 81.2508 89.745L73.8086 89.7495L73.8132 85.8151Z" fill="#F7FAEA"/>
<path d="M82.5163 92.6565C82.7467 92.6565 82.9335 92.3239 82.9335 91.9137C82.9335 91.5034 82.7467 91.1708 82.5163 91.1708C82.2858 91.1708 82.099 91.5034 82.099 91.9137C82.099 92.3239 82.2858 92.6565 82.5163 92.6565Z" fill="#F7FAEA"/>
<path d="M64.562 93.2201C64.7448 92.775 64.6519 92.3151 64.3543 92.1929C64.0568 92.0707 63.6675 92.3325 63.4847 92.7776C63.3019 93.2227 63.3949 93.6825 63.6924 93.8047C63.9899 93.9269 64.3792 93.6652 64.562 93.2201Z" fill="#333E9C"/>
<path d="M64.42 93.1834C64.5557 92.8531 64.4853 92.5113 64.2627 92.4199C64.0402 92.3285 63.7498 92.5221 63.6142 92.8524C63.4785 93.1827 63.5489 93.5245 63.7715 93.6159C63.994 93.7073 64.2844 93.5137 64.42 93.1834Z" fill="#F7FAEA"/>
<path d="M67.9758 96.9856C69.0673 96.9856 69.9522 96.1008 69.9522 95.0093C69.9522 93.9178 69.0673 93.033 67.9758 93.033C66.8843 93.033 65.9995 93.9178 65.9995 95.0093C65.9995 96.1008 66.8843 96.9856 67.9758 96.9856Z" fill="#333E9C"/>
<path d="M67.9577 95.8575C68.4262 95.8575 68.806 95.4777 68.806 95.0092C68.806 94.5407 68.4262 94.1609 67.9577 94.1609C67.4892 94.1609 67.1094 94.5407 67.1094 95.0092C67.1094 95.4777 67.4892 95.8575 67.9577 95.8575Z" fill="#F7FAEA"/>
<path d="M78.7879 96.9856C79.8794 96.9856 80.7643 96.1008 80.7643 95.0093C80.7643 93.9178 79.8794 93.033 78.7879 93.033C77.6964 93.033 76.8115 93.9178 76.8115 95.0093C76.8115 96.1008 77.6964 96.9856 78.7879 96.9856Z" fill="#333E9C"/>
<path d="M78.7698 95.8575C79.2383 95.8575 79.6181 95.4777 79.6181 95.0092C79.6181 94.5407 79.2383 94.1609 78.7698 94.1609C78.3013 94.1609 77.9214 94.5407 77.9214 95.0092C77.9214 95.4777 78.3013 95.8575 78.7698 95.8575Z" fill="#F7FAEA"/>
<path d="M91.3934 95.1513L110.395 95.1834C110.395 95.1834 111.409 85.0312 103.059 84.912C95.7679 84.8111 95.4102 89.6625 95.4102 89.6625C95.4102 89.6625 90.1553 89.956 91.3934 95.1513Z" fill="#333E9C"/>
<path d="M96.3596 89.7444C96.3596 89.7444 97.3408 86.0579 101.17 85.8607V89.749L96.3596 89.7444Z" fill="#F7FAEA"/>
<path d="M101.624 85.8151C101.624 85.8151 106.948 84.6825 109.061 89.745L101.619 89.7495L101.624 85.8151Z" fill="#F7FAEA"/>
<path d="M110.327 92.6565C110.557 92.6565 110.744 92.3239 110.744 91.9137C110.744 91.5034 110.557 91.1708 110.327 91.1708C110.096 91.1708 109.91 91.5034 109.91 91.9137C109.91 92.3239 110.096 92.6565 110.327 92.6565Z" fill="#F5B37B"/>
<path d="M92.3738 93.2207C92.5566 92.7756 92.4636 92.3157 92.1662 92.1935C91.8687 92.0713 91.4793 92.3331 91.2965 92.7782C91.1138 93.2233 91.2067 93.6832 91.5042 93.8053C91.8017 93.9275 92.1911 93.6658 92.3738 93.2207Z" fill="#F5B37B"/>
<path d="M92.2313 93.1846C92.367 92.8543 92.2965 92.5124 92.074 92.421C91.8515 92.3296 91.5611 92.5233 91.4254 92.8536C91.2898 93.1839 91.3602 93.5258 91.5828 93.6172C91.8053 93.7086 92.0957 93.5149 92.2313 93.1846Z" fill="#E0BBC8"/>
<path d="M95.7868 96.9856C96.8782 96.9856 97.7631 96.1008 97.7631 95.0093C97.7631 93.9178 96.8782 93.033 95.7868 93.033C94.6953 93.033 93.8104 93.9178 93.8104 95.0093C93.8104 96.1008 94.6953 96.9856 95.7868 96.9856Z" fill="#F5B37B"/>
<path d="M95.7687 95.8575C96.2372 95.8575 96.617 95.4777 96.617 95.0092C96.617 94.5407 96.2372 94.1609 95.7687 94.1609C95.3002 94.1609 94.9203 94.5407 94.9203 95.0092C94.9203 95.4777 95.3002 95.8575 95.7687 95.8575Z" fill="#F7FAEA"/>
<path d="M106.599 96.9856C107.691 96.9856 108.575 96.1008 108.575 95.0093C108.575 93.9178 107.691 93.033 106.599 93.033C105.508 93.033 104.623 93.9178 104.623 95.0093C104.623 96.1008 105.508 96.9856 106.599 96.9856Z" fill="#F5B37B"/>
<path d="M106.581 95.8575C107.05 95.8575 107.429 95.4777 107.429 95.0092C107.429 94.5407 107.05 94.1609 106.581 94.1609C106.113 94.1609 105.733 94.5407 105.733 95.0092C105.733 95.4777 106.113 95.8575 106.581 95.8575Z" fill="#F7FAEA"/>
<path d="M90.0316 124.402C89.9628 124.398 89.9124 124.343 89.917 124.274L90.3572 115.263C90.3618 115.195 90.4168 115.144 90.4856 115.149C90.5544 115.153 90.6048 115.208 90.6002 115.277L90.16 124.288C90.16 124.352 90.1004 124.407 90.0316 124.402Z" fill="#A3AEF0"/>
<path d="M91.6779 116.286L90.6324 116.235C90.4673 116.226 90.3389 116.088 90.3481 115.923C90.3572 115.758 90.4948 115.63 90.6599 115.639L91.7054 115.689C91.8705 115.699 91.9989 115.836 91.9897 116.001C91.9806 116.166 91.843 116.295 91.6779 116.286Z" fill="#E0BBC8"/>
<path d="M92.3472 116.73L91.4621 116.689C91.3062 116.68 91.1824 116.547 91.1916 116.386C91.2008 116.23 91.3337 116.107 91.4942 116.116L92.3793 116.157C92.5352 116.166 92.659 116.299 92.6499 116.46C92.6361 116.616 92.5031 116.739 92.3472 116.73Z" fill="#E0BBC8"/>
<path d="M93.2278 117.12L92.2007 117.07C92.0493 117.061 91.9347 116.932 91.9439 116.786C91.953 116.634 92.0814 116.52 92.2282 116.529L93.2554 116.579C93.4067 116.589 93.5213 116.717 93.5122 116.864C93.5076 117.015 93.3792 117.13 93.2278 117.12Z" fill="#E0BBC8"/>
<path d="M89.8074 123.049C89.0829 119.857 90.1559 116.308 90.1559 116.308L84.1534 122.31L89.8074 123.049Z" fill="#F5B37B"/>
<path d="M90.4489 123.118L93.8193 123.264C93.8193 123.264 90.802 120.05 90.7057 118.615L90.4489 123.118Z" fill="#F5B37B"/>
<path d="M92.1548 124.296L92.7234 123.709L95.1996 123.787L95.3968 124.489L92.1548 124.296Z" fill="#90A2EE"/>
<path d="M82.6401 122.843C82.6401 122.843 88.2986 124.287 90.9535 124.397C93.6085 124.507 96.2039 124.732 96.2039 124.732L94.9337 125.979L84.699 125.461L82.6401 122.843Z" fill="#90A2EE"/>
<path d="M84.3365 124.315C84.5087 124.315 84.6483 124.175 84.6483 124.003C84.6483 123.831 84.5087 123.691 84.3365 123.691C84.1643 123.691 84.0247 123.831 84.0247 124.003C84.0247 124.175 84.1643 124.315 84.3365 124.315Z" fill="#F7FAEA"/>
<path d="M69.9661 127.162C69.9661 127.162 72.3872 121.563 77.2707 125.864C77.2707 125.864 78.706 127.341 80.9895 125.956C83.1722 124.631 84.3736 123.219 87.7622 125.603C88.4454 126.085 89.2983 126.305 90.1191 126.13C90.1925 126.117 90.2659 126.098 90.3392 126.075C90.7932 125.947 91.2059 125.704 91.5635 125.401C92.3339 124.755 94.6358 123.182 97.1761 124.865C97.7447 125.241 98.2262 125.745 98.6251 126.3L99.3404 127.295L69.9661 127.162Z" fill="#31CFFF"/>
<path d="M75.8261 127.185C75.8261 127.185 78.2472 121.586 83.1307 125.888C83.1307 125.888 84.566 127.364 86.8495 125.979C89.0322 124.654 90.2336 123.242 93.6222 125.626C94.3054 126.108 95.1583 126.328 95.9791 126.154C96.0525 126.14 96.1258 126.121 96.1992 126.099C96.6532 125.97 97.0659 125.727 97.4235 125.424C98.1939 124.778 100.496 123.205 103.036 124.888C103.605 125.264 104.086 125.768 104.485 126.323L105.2 127.318L75.8261 127.185Z" fill="#65ABA4"/>
<path d="M77.6972 110.288C77.766 110.283 77.8164 110.228 77.8118 110.159L77.3716 101.149C77.367 101.08 77.312 101.03 77.2432 101.034C77.1744 101.039 77.124 101.094 77.1286 101.163L77.5688 110.173C77.5688 110.237 77.6284 110.292 77.6972 110.288Z" fill="#DEB5C4"/>
<path d="M76.0511 102.172L77.0965 102.121C77.2616 102.112 77.39 101.975 77.3808 101.81C77.3717 101.644 77.2341 101.516 77.069 101.525L76.0236 101.576C75.8585 101.585 75.7301 101.722 75.7393 101.888C75.7485 102.053 75.886 102.181 76.0511 102.172Z" fill="#F5B37B"/>
<path d="M75.3813 102.616L76.2663 102.575C76.4222 102.566 76.546 102.433 76.5368 102.272C76.5277 102.117 76.3947 101.993 76.2342 102.002L75.3492 102.043C75.1932 102.052 75.0694 102.185 75.0786 102.346C75.0924 102.502 75.2253 102.626 75.3813 102.616Z" fill="#F5B37B"/>
<path d="M74.5008 103.006L75.528 102.956C75.6793 102.947 75.7939 102.818 75.7847 102.671C75.7756 102.52 75.6472 102.405 75.5004 102.415L74.4733 102.465C74.322 102.474 74.2073 102.603 74.2165 102.749C74.2211 102.896 74.3495 103.015 74.5008 103.006Z" fill="#F5B37B"/>
<path d="M77.9217 108.935C78.6462 105.743 77.5732 102.194 77.5732 102.194L83.5756 108.201L77.9217 108.935Z" fill="#F4EFE1"/>
<path d="M77.2796 109.004L73.9093 109.15C73.9093 109.15 76.9265 105.936 77.0228 104.501L77.2796 109.004Z" fill="#F4EFE1"/>
<path d="M75.5738 110.182L75.0052 109.595L72.529 109.673L72.3318 110.375L75.5738 110.182Z" fill="#D9A5BA"/>
<path d="M85.0887 108.728C85.0887 108.728 79.4303 110.173 76.7753 110.283C74.1203 110.393 71.525 110.617 71.525 110.617L72.7951 111.865L83.0298 111.346L85.0887 108.728Z" fill="#D9A5BA"/>
<path d="M83.392 110.201C83.5642 110.201 83.7038 110.061 83.7038 109.889C83.7038 109.717 83.5642 109.577 83.392 109.577C83.2198 109.577 83.0801 109.717 83.0801 109.889C83.0801 110.061 83.2198 110.201 83.392 110.201Z" fill="#90A2EE"/>
<path d="M55.343 113.883C55.343 113.883 58.5987 106.344 65.1742 112.136C65.1742 112.136 67.1047 114.126 70.1815 112.255C73.1208 110.467 74.7395 108.568 79.302 111.778C80.2237 112.425 81.3746 112.723 82.4751 112.484C82.5714 112.461 82.6723 112.438 82.7732 112.411C83.383 112.237 83.9379 111.911 84.4239 111.503C85.4602 110.632 88.56 108.513 91.9807 110.783C92.7465 111.292 93.3931 111.966 93.9296 112.713L94.8925 114.052L55.343 113.883Z" fill="#31CFFF"/>
<path d="M63.2251 113.906C63.2251 113.906 66.4808 106.368 73.0563 112.159C73.0563 112.159 74.9868 114.149 78.0636 112.278C81.0029 110.49 82.6216 108.591 87.1841 111.801C88.1058 112.448 89.2567 112.746 90.3572 112.507C90.4535 112.484 90.5544 112.461 90.6553 112.434C91.2652 112.26 91.82 111.934 92.3061 111.526C93.3424 110.655 96.4421 108.536 99.8629 110.806C100.629 111.315 101.275 111.989 101.812 112.737L102.775 114.076L63.2251 113.906Z" fill="#65ABA4"/>
</g>
</g>
<defs>
<clipPath id="clip0">
<rect width="167" height="155" rx="20" fill="white"/>
</clipPath>
<clipPath id="clip1">
<rect width="160" height="94.3089" fill="white" transform="translate(40 33)"/>
</clipPath>
</defs>
</svg>
