<svg width="55" height="12" viewBox="0 0 55 12" fill="none" xmlns="http://www.w3.org/2000/svg">
<path d="M0.9798 6.114C0.9798 9.362 3.4158 11.14 5.9918 11.14C8.0358 11.14 10.1218 10.062 10.5418 7.472H8.5258C8.1898 8.662 7.1958 9.236 5.9778 9.236C4.2278 9.236 3.0938 7.794 3.0938 6.114C3.0938 4.252 4.2558 2.95 5.9918 2.95C7.1678 2.95 8.0498 3.44 8.4838 4.546H10.5138C10.0658 2.124 7.9658 1.06 5.9918 1.06C3.4158 1.018 0.9798 2.852 0.9798 6.114ZM14.6962 5.26C14.5842 4.056 13.2122 4.056 12.2322 4.28V5.484C12.8482 5.386 12.9042 5.75 12.9042 6.31V11H14.8222V7.416C14.8222 6.38 15.5502 5.82 16.4042 5.82C16.8382 5.806 17.2582 5.918 17.6642 6.184L18.0982 4.546C17.7062 4.252 17.1742 4.098 16.6562 4.112C15.8302 4.112 14.9762 4.49 14.6962 5.26ZM23.2943 3.062L24.4563 1.634V1.48L22.7903 0.863999L21.8103 2.894V3.062H23.2943ZM22.8183 4.112C21.0263 4.112 19.3183 5.19 19.2763 7.542C19.2763 9.824 20.8723 11.182 23.1403 11.14C24.0363 11.14 24.9603 10.93 25.7583 10.552L25.5343 9.166C24.7223 9.502 23.8683 9.628 23.0283 9.586C22.3003 9.516 21.3623 9.278 21.2363 8.172H25.8003C26.3183 5.876 25.2823 4.112 22.8183 4.112ZM22.8183 5.526C23.7423 5.526 24.2603 6.044 24.2183 6.926H21.2503C21.4183 6.114 21.8383 5.526 22.8183 5.526ZM32.8532 9.866C32.8952 11.224 34.0992 11.238 35.0792 11.014L35.0652 9.74C34.3512 9.782 34.4352 9.418 34.4352 8.76V0.766H32.4752V4.434C32.0132 4.21 31.3412 4.112 30.9072 4.112C29.1572 4.112 27.7012 5.484 27.7012 7.626C27.7012 9.516 28.7792 11.182 30.8232 11.14C31.7052 11.126 32.4752 10.706 32.8532 9.866ZM32.5312 7.892C32.5312 8.718 31.9852 9.404 31.1312 9.404C30.0812 9.404 29.6472 8.592 29.6472 7.626C29.6472 6.408 30.3612 5.792 31.2712 5.778C31.6632 5.778 32.1112 5.834 32.5312 6.086V7.892ZM37.0884 2.166C37.0884 3.608 39.3844 3.622 39.3844 2.166C39.3844 0.71 37.0884 0.668 37.0884 2.166ZM39.2164 4.28H37.2564V11H39.2164V4.28ZM44.3329 2.166H42.7649L42.5549 4.266H41.1409V5.61L42.4149 5.736V8.284C42.4149 11.056 44.4729 11.434 46.7969 10.79L46.6149 9.306C45.4949 9.712 44.3329 9.642 44.3329 8.242V5.736H46.5309V4.266H44.3329V2.166ZM48.3396 8.9C48.4096 10.692 49.9636 11.14 51.4896 11.14C53.0156 11.14 54.4856 10.524 54.5276 8.914C54.5696 7.108 52.8476 7.038 51.3356 6.856C50.9016 6.814 50.3696 6.786 50.3696 6.282C50.3696 5.834 50.8456 5.582 51.4056 5.582C51.9656 5.582 52.4416 5.778 52.4556 6.268H54.3036C54.3736 4.84 52.9876 4.112 51.3776 4.112C49.7256 4.112 48.4796 4.826 48.4796 6.338C48.4796 7.976 50.2436 8.116 51.6016 8.298C52.0776 8.368 52.5676 8.424 52.5676 8.928C52.5536 9.53 51.9796 9.698 51.4056 9.698C50.8456 9.712 50.3136 9.46 50.2996 8.9H48.3396Z" fill="white"/>
</svg>
