<svg width="196" height="44" viewBox="0 0 196 44" fill="none" xmlns="http://www.w3.org/2000/svg">
<rect x="1.25" y="1.25" width="193.5" height="41.5" rx="18.75" stroke="white" stroke-width="2.5"/>
<path d="M45.7551 25.334V18.824H47.0291V17.2H42.3811V18.824H43.6551V25.334H42.2691V27H47.1411V25.334H45.7551ZM56.029 27V23.094C56.029 21.414 55.273 20.098 53.369 20.098C52.585 20.098 51.591 20.364 51.213 21.148C51.213 19.93 49.645 20.084 48.749 20.238V21.456C49.393 21.456 49.393 21.666 49.393 22.338V27H51.353V23.136C51.353 22.184 52.039 21.652 52.781 21.652C53.481 21.652 54.097 22.17 54.055 23.094V27H56.029ZM59.0986 27H61.0026V21.652H63.1306V20.266H61.0026V19.454C61.0026 18.012 62.2766 18.068 63.2846 18.446L63.4806 16.99C61.2686 16.318 59.1406 16.654 59.1406 19.412L59.1266 20.266H57.8526V21.652H59.0986V27ZM71.5631 23.598C71.5631 21.218 69.7571 20.042 67.9511 20.056C66.1731 20.07 64.4091 21.26 64.4091 23.598C64.4091 25.964 66.2151 27.14 68.0071 27.14C69.7851 27.14 71.5631 25.964 71.5631 23.598ZM66.3551 23.598C66.3551 22.38 67.1811 21.778 68.0071 21.778C68.8331 21.778 69.6171 22.394 69.6171 23.598C69.6171 24.83 68.7911 25.446 67.9651 25.432C67.1531 25.432 66.3551 24.816 66.3551 23.598ZM73.2572 24.942C73.3272 26.734 74.8812 27.182 76.4072 27.182C77.9332 27.182 79.4032 26.58 79.4452 24.97C79.4872 23.164 77.7652 23.038 76.2532 22.856C75.8192 22.814 75.2872 22.744 75.2872 22.24C75.2872 21.792 75.7632 21.54 76.3232 21.54C76.8832 21.54 77.3592 21.736 77.3732 22.226H79.2212C79.2912 20.798 77.9052 20.07 76.2952 20.07C74.6432 20.07 73.3972 20.784 73.3972 22.296C73.3972 23.934 75.1612 24.116 76.5192 24.298C76.9952 24.368 77.4852 24.424 77.4852 24.97C77.4712 25.572 76.8972 25.74 76.3232 25.74C75.7632 25.754 75.2312 25.502 75.2172 24.942H73.2572ZM87.4792 21.288C87.4792 20 86.1632 20.014 85.2532 20.21L85.2672 21.512C85.9812 21.47 85.8972 21.89 85.8972 22.534V30.458H87.8572V26.706C90.2092 27.896 92.6452 26.244 92.6452 23.57C92.6452 21.736 91.5812 20.056 89.6072 20.056C88.7392 20.056 87.8572 20.448 87.4792 21.288ZM87.8012 23.318C87.8152 22.52 88.3192 21.792 89.2012 21.778C90.1952 21.778 90.6712 22.674 90.6712 23.57C90.6712 25.278 89.1872 25.908 87.8012 25.082V23.318ZM96.8814 21.19C96.7694 19.986 95.3274 19.986 94.3474 20.21V21.414C94.9634 21.316 95.0194 21.68 95.0194 22.24V27H96.9374V23.346C96.9374 22.31 97.6654 21.75 98.5194 21.75C98.9534 21.736 99.3734 21.848 99.7794 22.114L100.213 20.476C99.8214 20.182 99.2894 20.028 98.7714 20.042C97.9454 20.042 97.1614 20.42 96.8814 21.19ZM106.151 25.964C106.151 27.168 107.271 27.224 108.293 27L108.279 25.908C107.635 25.95 107.649 25.614 107.649 25.04V22.604C107.649 20.658 106.165 20.084 104.429 20.084C103.519 20.084 102.609 20.252 101.895 20.588L102.147 21.988C102.721 21.666 103.379 21.582 104.093 21.582C104.765 21.582 105.773 21.722 105.773 22.548V23.01C105.269 22.688 104.583 22.576 103.981 22.576C102.483 22.576 101.293 23.36 101.363 25.012C101.405 26.314 102.553 27.126 103.813 27.126C104.681 27.126 105.745 26.804 106.151 25.964ZM105.731 24.578C105.661 25.292 104.849 25.614 104.205 25.614C103.757 25.614 103.323 25.376 103.281 24.886C103.211 24.228 103.715 23.878 104.331 23.836C104.821 23.836 105.339 23.962 105.731 24.228V24.578ZM112.757 18.166H111.189L110.979 20.266H109.565V21.61L110.839 21.736V24.396C110.839 27.168 112.897 27.546 115.221 26.902L115.039 25.418C113.919 25.824 112.757 25.754 112.757 24.354V21.736H114.955V20.266H112.757V18.166ZM117.03 18.306C117.03 19.076 117.632 19.454 118.22 19.44C118.78 19.426 119.326 19.048 119.326 18.306C119.326 17.578 118.766 17.2 118.206 17.186C117.618 17.172 117.03 17.536 117.03 18.306ZM119.158 20.336H117.198V27H119.158V20.336ZM128.054 20.602C127.144 20.28 126.122 20.014 125.142 20.014C123.112 20 121.306 20.952 121.306 23.584C121.306 25.67 122.706 27.14 124.512 27.14C125.016 27.14 125.548 27.028 126.094 26.776V30.528H128.054V20.602ZM126.136 25.138C125.73 25.362 125.324 25.474 124.946 25.474C124.022 25.46 123.28 24.788 123.28 23.584C123.28 22.17 124.092 21.596 125.17 21.624C125.478 21.638 125.8 21.666 126.136 21.778V25.138ZM134.999 20.252V24.074C134.999 24.984 134.397 25.572 133.613 25.558C132.927 25.558 132.409 25.068 132.451 24.116V20.252H130.477V24.116C130.477 25.796 131.037 27.098 132.983 27.098C133.823 27.098 134.761 26.804 135.139 26.02C135.139 27.322 136.651 27.224 137.603 27L137.589 25.782C136.987 25.824 136.959 25.6 136.959 24.97V20.252H134.999ZM142.859 20.084C141.067 20.084 139.359 21.19 139.317 23.542C139.317 25.824 140.913 27.21 143.181 27.168C144.077 27.168 145.001 26.944 145.799 26.566L145.575 25.138C145.169 25.32 144.567 25.474 143.965 25.544C143.671 25.586 143.349 25.572 143.069 25.558C142.131 25.488 141.347 25.082 141.277 24.032H145.855C146.373 21.736 145.323 20.084 142.859 20.084ZM142.859 21.582C143.587 21.582 144.301 21.89 144.259 22.772H141.291C141.445 21.988 142.117 21.582 142.859 21.582ZM147.701 24.942C147.771 26.734 149.325 27.182 150.851 27.182C152.377 27.182 153.847 26.58 153.889 24.97C153.931 23.164 152.209 23.038 150.697 22.856C150.263 22.814 149.731 22.744 149.731 22.24C149.731 21.792 150.207 21.54 150.767 21.54C151.327 21.54 151.803 21.736 151.817 22.226H153.665C153.735 20.798 152.349 20.07 150.739 20.07C149.087 20.07 147.841 20.784 147.841 22.296C147.841 23.934 149.605 24.116 150.963 24.298C151.439 24.368 151.929 24.424 151.929 24.97C151.915 25.572 151.341 25.74 150.767 25.74C150.207 25.754 149.675 25.502 149.661 24.942H147.701Z" fill="white"/>
</svg>
