<?xml version="1.0" encoding="UTF-8"?>
<svg xmlns="http://www.w3.org/2000/svg" xmlns:xlink="http://www.w3.org/1999/xlink" width="50pt" height="100pt" viewBox="0 0 50 100" version="1.1">
<g id="surface1">
<path style=" stroke:none;fill-rule:nonzero;fill:rgb(27.45098%,67.45098%,20.392157%);fill-opacity:1;" d="M 35.703125 14.394531 C 32.441406 16.828125 30.113281 19.167969 28.46875 21.347656 C 28.46875 21.273438 28.46875 21.203125 28.46875 21.128906 C 28.46875 12.972656 26.851562 6.363281 24.851562 6.363281 C 22.851562 6.363281 21.234375 12.972656 21.234375 21.128906 C 21.234375 21.203125 21.234375 21.273438 21.234375 21.347656 C 19.59375 19.167969 17.265625 16.828125 14.003906 14.394531 C -1.941406 2.488281 20.40625 35.898438 20.40625 35.898438 L 23.609375 35.898438 C 23.609375 35.898438 23.730469 35.714844 23.894531 35.371094 C 24.199219 35.714844 24.523438 35.898438 24.855469 35.898438 C 25.1875 35.898438 25.507812 35.714844 25.8125 35.371094 C 25.980469 35.714844 26.101562 35.898438 26.101562 35.898438 L 29.304688 35.898438 C 29.300781 35.898438 51.648438 2.488281 35.703125 14.394531 Z M 35.703125 14.394531 "/>
<path style=" stroke:none;fill-rule:nonzero;fill:rgb(13.333333%,12.156863%,12.156863%);fill-opacity:1;" d="M 29.808594 36.839844 L 25.582031 36.839844 L 25.507812 36.71875 C 25.261719 36.808594 25.035156 36.839844 24.855469 36.839844 C 24.671875 36.839844 24.449219 36.8125 24.203125 36.71875 L 24.125 36.839844 L 19.894531 36.839844 L 19.613281 36.417969 C 19.578125 36.363281 15.964844 30.957031 12.710938 25.328125 C 6.625 14.796875 6.808594 12.390625 7.914062 11.355469 C 9.03125 10.308594 11.027344 10.992188 14.574219 13.640625 C 16.8125 15.3125 18.742188 17.035156 20.328125 18.78125 C 20.449219 15.652344 20.808594 12.761719 21.371094 10.46875 C 22.199219 7.070312 23.34375 5.421875 24.851562 5.421875 C 26.359375 5.421875 27.5 7.070312 28.332031 10.46875 C 28.894531 12.761719 29.253906 15.65625 29.375 18.78125 C 30.960938 17.039062 32.890625 15.320312 35.128906 13.644531 C 38.675781 10.996094 40.671875 10.3125 41.789062 11.359375 C 42.894531 12.394531 43.078125 14.800781 36.992188 25.328125 C 33.734375 30.957031 30.125 36.367188 30.089844 36.417969 Z M 23.652344 33.679688 L 24.605469 34.746094 C 24.753906 34.910156 24.84375 34.949219 24.859375 34.957031 C 24.859375 34.949219 24.949219 34.910156 25.097656 34.746094 L 26.050781 33.679688 L 26.664062 34.957031 L 28.789062 34.957031 C 29.667969 33.628906 32.460938 29.34375 35.089844 24.828125 C 40.53125 15.492188 40.578125 13.222656 40.484375 12.769531 C 40.195312 12.78125 39.132812 13.007812 36.273438 15.144531 C 33.320312 17.347656 30.953125 19.621094 29.230469 21.90625 L 27.511719 24.191406 L 27.523438 21.128906 C 27.523438 17.390625 27.179688 13.851562 26.550781 11.164062 C 25.839844 8.109375 25.023438 7.339844 24.847656 7.300781 C 24.679688 7.339844 23.867188 8.109375 23.15625 11.164062 C 22.53125 13.851562 22.183594 17.390625 22.183594 21.128906 L 22.195312 24.191406 L 20.476562 21.90625 C 18.753906 19.621094 16.386719 17.347656 13.433594 15.144531 C 10.574219 13.007812 9.511719 12.78125 9.226562 12.769531 C 9.128906 13.222656 9.179688 15.492188 14.617188 24.828125 C 17.246094 29.339844 20.042969 33.625 20.917969 34.957031 L 23.046875 34.957031 Z M 23.652344 33.679688 "/>
<path style=" stroke:none;fill-rule:nonzero;fill:rgb(93.333333%,46.27451%,19.607843%);fill-opacity:1;" d="M 5.195312 39.335938 L 20.59375 92.359375 C 21.832031 96.632812 27.933594 96.625 29.167969 92.355469 L 44.507812 39.332031 C 45.378906 36.328125 43.105469 33.332031 39.949219 33.332031 L 9.753906 33.332031 C 6.597656 33.332031 4.324219 36.332031 5.195312 39.335938 Z M 5.195312 39.335938 "/>
<path style=" stroke:none;fill-rule:nonzero;fill:rgb(13.72549%,12.156863%,12.54902%);fill-opacity:1;" d="M 24.878906 96.5 C 22.402344 96.5 20.363281 94.976562 19.679688 92.621094 L 4.285156 39.601562 C 3.78125 37.878906 4.121094 36.074219 5.203125 34.644531 C 6.289062 33.214844 7.945312 32.394531 9.753906 32.394531 L 39.949219 32.394531 C 41.753906 32.394531 43.410156 33.210938 44.496094 34.640625 C 45.582031 36.070312 45.917969 37.875 45.417969 39.59375 L 30.078125 92.617188 C 29.398438 94.976562 27.355469 96.503906 24.878906 96.503906 C 24.882812 96.5 24.882812 96.5 24.878906 96.5 Z M 6.109375 39.078125 L 21.503906 92.097656 C 22.042969 93.960938 23.660156 94.617188 24.882812 94.617188 C 26.105469 94.617188 27.71875 93.957031 28.257812 92.097656 L 43.597656 39.074219 C 43.933594 37.929688 43.707031 36.726562 42.984375 35.773438 C 42.261719 34.820312 41.15625 34.277344 39.953125 34.277344 L 9.753906 34.277344 C 8.550781 34.277344 7.445312 34.820312 6.722656 35.777344 C 6 36.726562 5.777344 37.929688 6.109375 39.078125 Z M 6.109375 39.078125 "/>
<path style=" stroke:none;fill-rule:nonzero;fill:rgb(13.72549%,12.156863%,12.54902%);fill-opacity:1;" d="M 6.539062 42.785156 L 29.871094 43.960938 L 6.539062 45.140625 Z M 6.539062 42.785156 "/>
<path style=" stroke:none;fill-rule:nonzero;fill:rgb(13.72549%,12.156863%,12.54902%);fill-opacity:1;" d="M 41.023438 51.203125 L 17.691406 50.027344 L 41.023438 48.851562 Z M 41.023438 51.203125 "/>
<path style=" stroke:none;fill-rule:nonzero;fill:rgb(13.72549%,12.156863%,12.54902%);fill-opacity:1;" d="M 9.386719 54.347656 L 29.871094 55.519531 L 9.386719 56.699219 Z M 9.386719 54.347656 "/>
<path style=" stroke:none;fill-rule:nonzero;fill:rgb(13.72549%,12.156863%,12.54902%);fill-opacity:1;" d="M 37.699219 62.769531 L 17.691406 61.589844 L 37.699219 60.414062 Z M 37.699219 62.769531 "/>
<path style=" stroke:none;fill-rule:nonzero;fill:rgb(13.72549%,12.156863%,12.54902%);fill-opacity:1;" d="M 13.65625 65.785156 L 29.15625 66.960938 L 13.65625 68.136719 Z M 13.65625 65.785156 "/>
<path style=" stroke:none;fill-rule:nonzero;fill:rgb(13.72549%,12.156863%,12.54902%);fill-opacity:1;" d="M 34.378906 74.203125 L 22.4375 73.027344 L 34.378906 71.847656 Z M 34.378906 74.203125 "/>
<path style=" stroke:none;fill-rule:nonzero;fill:rgb(13.72549%,12.156863%,12.54902%);fill-opacity:1;" d="M 16.507812 77.34375 L 27.496094 78.519531 L 16.507812 79.699219 Z M 16.507812 77.34375 "/>
<path style=" stroke:none;fill-rule:nonzero;fill:rgb(13.72549%,12.156863%,12.54902%);fill-opacity:1;" d="M 31.292969 85.765625 L 22.4375 84.589844 L 31.292969 83.414062 Z M 31.292969 85.765625 "/>
</g>
</svg>
