<svg width="298" height="222" viewBox="0 0 298 222" fill="none" xmlns="http://www.w3.org/2000/svg">
<path d="M164.217 0.248627H134.404C131.351 0.248627 128.882 2.70418 128.882 5.74439V15.4497C128.882 18.4899 131.351 20.9454 134.404 20.9454H164.217C167.27 20.9454 169.739 18.4899 169.739 15.4497V5.74439C169.739 2.70418 167.253 0.248627 164.217 0.248627Z" fill="#A0ACF4"/>
<path d="M124.712 204.327L93.1309 218.793V222H205.574V218.793L173.71 204.327H124.712Z" fill="#A0ACF4"/>
<path d="M173.743 142.286H124.712V204.343H173.743V142.286Z" fill="#A0ACF4"/>
<path d="M297.615 161.747V21.7973C297.615 15.149 292.193 9.75345 285.503 9.75345H12.6519C5.96204 9.75345 0.540039 15.149 0.540039 21.7973V161.747H297.615Z" fill="#323CA1"/>
<path d="M205.591 218.793H93.1475V222H205.591V218.793Z" fill="#323CA1"/>
<path d="M173.727 197.044H124.712V204.327H173.727V197.044Z" fill="#323CA1"/>
<path d="M0.540039 161.747V184.181C0.540039 188.842 3.64312 192.634 7.46354 192.634H290.675C294.495 192.634 297.598 188.858 297.598 184.181V161.747H0.540039Z" fill="#A0ACF4"/>
<path d="M152.305 5.74439C152.305 7.2645 151.071 8.48392 149.553 8.48392C148.034 8.48392 146.8 7.24779 146.8 5.74439C146.8 4.22429 148.034 3.00487 149.553 3.00487C151.071 3.00487 152.305 4.24099 152.305 5.74439Z" fill="#323CA1"/>
<path d="M290.658 155.667V22.1816C290.658 18.6903 287.705 15.8506 284.052 15.8506H14.1036C10.45 15.8506 7.49707 18.6903 7.49707 22.1816V155.683H290.658V155.667Z" fill="#FFFFF7"/>
<path d="M272.123 35.0105H22.762C21.077 35.0105 19.709 33.6575 19.709 31.9703V27.4434C19.709 25.773 21.077 24.4032 22.762 24.4032H272.123C273.808 24.4032 275.176 25.7563 275.176 27.4434V31.9703C275.176 33.6575 273.808 35.0105 272.123 35.0105Z" fill="#A0ACF4"/>
<path d="M272.056 80.9143H241.91C240.225 80.9143 238.857 79.5613 238.857 77.8741V41.5754C238.857 39.9049 240.225 38.5352 241.91 38.5352H272.056C273.741 38.5352 275.109 39.8882 275.109 41.5754V77.8741C275.092 79.5446 273.741 80.9143 272.056 80.9143Z" fill="#4CAEA4"/>
<path d="M272.056 126.768H241.91C240.225 126.768 238.857 125.415 238.857 123.728V87.4291C238.857 85.7586 240.225 84.3889 241.91 84.3889H272.056C273.741 84.3889 275.109 85.7419 275.109 87.4291V123.728C275.092 125.415 273.741 126.768 272.056 126.768Z" fill="#F39C5B"/>
</svg>
