<svg width="296" height="223" viewBox="0 0 296 223" fill="none" xmlns="http://www.w3.org/2000/svg">
<path d="M162.646 0.878845H133.067C130.031 0.878845 127.578 3.3344 127.578 6.37461V16.0799C127.578 19.1201 130.031 21.5756 133.067 21.5756H162.646C165.665 21.5756 168.118 19.1201 168.118 16.0799V6.37461C168.118 3.3344 165.665 0.878845 162.646 0.878845Z" fill="#5184CE"/>
<path d="M123.441 204.94L92.1099 219.406V222.614H203.703V219.406L172.088 204.94H123.441Z" fill="#466EB6"/>
<path d="M172.105 142.9H123.44V204.957H172.105V142.9Z" fill="#466EB6"/>
<path d="M295.025 162.377V22.4276C295.025 15.7792 289.637 10.3837 283.014 10.3837H12.2315C5.59168 10.3837 0.219727 15.7792 0.219727 22.4276V162.377H295.025Z" fill="#466EB6"/>
<path opacity="0.3" d="M203.703 219.406H92.1099V222.614H203.703V219.406Z" fill="#184655"/>
<path opacity="0.3" d="M172.088 197.657H123.44V204.94H172.088V197.657Z" fill="#184655"/>
<path d="M0.219727 162.377V184.811C0.219727 189.472 3.2894 193.264 7.09312 193.264H288.152C291.956 193.264 295.025 189.489 295.025 184.811V162.377H0.219727Z" fill="#5184CE"/>
<path d="M150.817 6.3746C150.817 7.8947 149.599 9.11412 148.081 9.11412C146.563 9.11412 145.345 7.878 145.345 6.3746C145.345 4.85449 146.563 3.63507 148.081 3.63507C149.599 3.63507 150.817 4.85449 150.817 6.3746Z" fill="#184655"/>
<path d="M288.119 156.297V22.7951C288.119 19.3038 285.182 16.4641 281.562 16.4641H13.6663C10.0461 16.4641 7.10986 19.3038 7.10986 22.7951V156.297H288.119Z" fill="#CCE6FF"/>
<path d="M247.712 115.187H48.5838C41.6937 115.187 36.1216 109.591 36.1216 102.692V60.8144C36.1216 53.9154 41.7104 48.3194 48.5838 48.3194H247.712C254.603 48.3194 260.175 53.9154 260.175 60.8144V102.692C260.175 109.591 254.603 115.187 247.712 115.187Z" fill="#F4F4F4"/>
<path d="M201.367 122.036H95.0296C88.1395 122.036 82.5674 116.44 82.5674 109.541V53.9488C82.5674 47.0499 88.1562 41.4539 95.0296 41.4539H201.367C208.257 41.4539 213.829 47.0499 213.829 53.9488V109.541C213.829 116.44 208.257 122.036 201.367 122.036Z" fill="white"/>
<path d="M139.573 137.705C140.925 137.705 142.009 136.619 142.009 135.266C142.009 133.913 140.925 132.827 139.573 132.827C138.222 132.827 137.138 133.913 137.138 135.266C137.138 136.602 138.222 137.705 139.573 137.705Z" fill="#F4F4F4"/>
<path d="M156.823 137.705C158.175 137.705 159.259 136.619 159.259 135.266C159.259 133.913 158.175 132.827 156.823 132.827C155.472 132.827 154.388 133.913 154.388 135.266C154.388 136.602 155.472 137.705 156.823 137.705Z" fill="#F4F4F4"/>
<path d="M148.198 137.705C149.55 137.705 150.634 136.619 150.634 135.266C150.634 133.913 149.55 132.827 148.198 132.827C146.847 132.827 145.763 133.913 145.763 135.266C145.763 136.602 146.847 137.705 148.198 137.705Z" fill="white"/>
<path d="M26.7793 199.996L26.8455 200.045L26.9947 200.029L26.7793 199.996Z" fill="#50333C"/>
<path d="M2.17188 99.4517C2.17188 99.4517 12.849 68.014 23.2425 62.2843L25.0443 75.4976L27.5133 82.0123L27.8803 83.5324L21.9412 85.7207L11.4977 94.3402L6.87644 101.206L2.17188 99.4517Z" fill="#FFD8B6"/>
<path d="M9.24552 100.671C12.9492 92.3524 20.6234 86.6227 29.2819 84.2507C31.2338 83.7162 30.3996 80.6927 28.4477 81.2272C19.0885 83.7663 10.5468 90.0638 6.54288 99.0842C6.19254 99.8693 6.32599 100.771 7.1101 101.239C7.76073 101.64 8.89518 101.456 9.24552 100.671Z" fill="#222122"/>
<path d="M13.1489 174.054L21.1067 166.854L24.5434 163.313H30.0989L33.0518 168.692L32.3511 172.567L23.1087 182.272L15.7014 180.084L13.1489 174.054Z" fill="white"/>
<path d="M21.6909 186.499C23.7429 184.444 25.7949 182.389 27.8469 180.335C29.1315 179.048 30.3994 177.779 31.684 176.493C32.6516 175.524 33.6526 174.588 34.3032 173.369C35.7213 170.646 35.5711 167.205 33.7694 164.699C31.9509 162.16 28.8979 160.824 25.8116 161.258C22.2081 161.759 19.8558 164.883 17.4368 167.305C15.001 169.744 12.582 172.166 10.1463 174.605C8.71157 176.042 10.9304 178.263 12.3651 176.827C16.0521 173.118 19.6556 169.31 23.4593 165.718C25.2944 163.981 28.2306 163.831 30.1992 165.418C32.0677 166.921 32.7183 169.644 31.6006 171.799C31.1001 172.767 30.2826 173.486 29.5152 174.237C28.3474 175.407 27.1629 176.593 25.9951 177.762C23.8263 179.934 21.6576 182.122 19.4721 184.294C18.0373 185.713 20.2562 187.935 21.6909 186.499Z" fill="#222122"/>
<path d="M40.2257 106.267C39.0579 106.785 37.8901 107.052 36.7223 107.253C35.5545 107.436 34.3866 107.52 33.2188 107.52C32.051 107.52 30.8832 107.436 29.7154 107.253C28.5476 107.052 27.3797 106.785 26.2119 106.267C27.3797 105.749 28.5476 105.465 29.7154 105.282C30.8832 105.098 32.051 105.014 33.2188 105.014C34.3866 105.014 35.5545 105.098 36.7223 105.282C37.8901 105.482 39.0579 105.749 40.2257 106.267Z" fill="#FFCA00"/>
<path d="M33.219 93.839C33.7362 95.6431 34.0031 97.4305 34.2033 99.2346C34.3869 101.022 34.4703 102.826 34.4703 104.613C34.4703 106.417 34.3869 108.205 34.2033 109.992C34.0031 111.796 33.7362 113.584 33.219 115.371C32.7018 113.584 32.4349 111.78 32.2347 109.992C32.0512 108.205 31.9678 106.401 31.9678 104.613C31.9678 102.826 32.0512 101.022 32.2347 99.2346C32.4349 97.4305 32.7018 95.6431 33.219 93.839Z" fill="#FFCA00"/>
<path d="M52.2207 116.39C51.52 116.908 50.8193 117.175 50.1186 117.376C49.418 117.559 48.7173 117.643 48.0166 117.643C47.3159 117.643 46.6152 117.559 45.9146 117.376C45.2139 117.175 44.5132 116.908 43.8125 116.39C44.5132 115.872 45.2139 115.588 45.9146 115.404C46.6152 115.221 47.3159 115.137 48.0166 115.137C48.7173 115.137 49.418 115.221 50.1186 115.404C50.8193 115.588 51.52 115.855 52.2207 116.39Z" fill="#FFCA00"/>
<path d="M48.0169 108.923C48.5341 110.009 48.801 111.078 49.0012 112.164C49.1848 113.25 49.2682 114.319 49.2682 115.404C49.2682 116.49 49.1848 117.559 49.0012 118.645C48.801 119.731 48.5341 120.8 48.0169 121.886C47.4997 120.8 47.2161 119.731 47.0326 118.645C46.849 117.576 46.7656 116.49 46.7656 115.404C46.7656 114.319 46.849 113.25 47.0326 112.164C47.2328 111.078 47.4997 110.009 48.0169 108.923Z" fill="#FFCA00"/>
<path d="M44.7302 129.052C43.6958 129.57 42.6781 129.837 41.6438 130.038C40.6095 130.221 39.5918 130.305 38.5575 130.305C37.5231 130.305 36.5055 130.221 35.4711 130.038C34.4368 129.837 33.4191 129.57 32.3848 129.052C33.4191 128.534 34.4368 128.25 35.4711 128.066C36.5055 127.883 37.5231 127.799 38.5575 127.799C39.5918 127.799 40.6095 127.883 41.6438 128.066C42.6781 128.267 43.6958 128.534 44.7302 129.052Z" fill="#FFCA00"/>
<path d="M38.5578 118.144C39.075 119.731 39.3419 121.301 39.5421 122.888C39.7256 124.458 39.809 126.045 39.809 127.615C39.809 129.186 39.7256 130.773 39.5421 132.343C39.3419 133.913 39.075 135.5 38.5578 137.07C38.0407 135.483 37.7571 133.913 37.5736 132.343C37.3901 130.756 37.3066 129.186 37.3066 127.615C37.3066 126.028 37.3901 124.458 37.5736 122.888C37.7738 121.301 38.0407 119.714 38.5578 118.144Z" fill="#FFCA00"/>
<path d="M162.646 0.878845H133.067C130.031 0.878845 127.578 3.3344 127.578 6.37461V16.0799C127.578 19.1201 130.031 21.5756 133.067 21.5756H162.646C165.682 21.5756 168.134 19.1201 168.134 16.0799V6.37461C168.118 3.3344 165.665 0.878845 162.646 0.878845Z" fill="#A0ACF4"/>
<path d="M123.441 204.94L92.1099 219.406V222.614H203.703V219.406L172.088 204.94H123.441Z" fill="#A0ACF4"/>
<path d="M172.105 142.9H123.44V204.957H172.105V142.9Z" fill="#A0ACF4"/>
<path d="M295.026 162.377V22.4276C295.026 15.7792 289.654 10.3837 283.014 10.3837H12.2149C5.57508 10.3837 0.203125 15.7792 0.203125 22.4276V162.377H295.026Z" fill="#323CA1"/>
<path d="M203.703 219.406H92.1099V222.614H203.703V219.406Z" fill="#323CA1"/>
<path d="M172.088 197.657H123.44V204.94H172.088V197.657Z" fill="#323CA1"/>
<path d="M0.203125 162.377V184.811C0.203125 189.472 3.27279 193.264 7.07652 193.264H288.152C291.939 193.264 295.026 189.489 295.026 184.811V162.377H0.203125Z" fill="#A0ACF4"/>
<path d="M150.817 6.3746C150.817 7.8947 149.599 9.11412 148.081 9.11412C146.563 9.11412 145.345 7.878 145.345 6.3746C145.345 4.85449 146.58 3.63507 148.081 3.63507C149.599 3.63507 150.817 4.85449 150.817 6.3746Z" fill="#323CA1"/>
<path d="M288.135 156.297V22.7951C288.135 19.3038 285.199 16.4641 281.579 16.4641H13.6497C10.0295 16.4641 7.09326 19.3038 7.09326 22.7951V156.297H288.135Z" fill="#FFFFF7"/>
<path d="M137.421 117.158H54.9568C48.0668 117.158 42.4946 111.562 42.4946 104.664V62.7855C42.4946 55.8865 48.0834 50.2906 54.9568 50.2906H137.421C144.311 50.2906 149.883 55.8865 149.883 62.7855V104.664C149.883 111.562 144.311 117.158 137.421 117.158Z" fill="#4CAEA4"/>
<path d="M245.21 117.158H162.746C155.856 117.158 150.284 111.562 150.284 104.664V62.7855C150.284 55.8865 155.873 50.2906 162.746 50.2906H245.21C252.1 50.2906 257.672 55.8865 257.672 62.7855V104.664C257.689 111.562 252.1 117.158 245.21 117.158Z" fill="#4CAEA4"/>
<path d="M203.219 123.89H96.8812C89.9911 123.89 84.4189 118.294 84.4189 111.395V55.803C84.4189 48.9041 90.0078 43.3081 96.8812 43.3081H203.219C210.109 43.3081 215.681 48.9041 215.681 55.803V111.395C215.681 118.294 210.092 123.89 203.219 123.89Z" fill="#F39C5B"/>
<path d="M141.425 139.542C142.777 139.542 143.861 138.44 143.861 137.104C143.861 135.75 142.777 134.665 141.425 134.665C140.074 134.665 138.989 135.75 138.989 137.104C138.973 138.457 140.074 139.542 141.425 139.542Z" fill="#A0ACF4"/>
<path d="M158.675 139.542C160.026 139.542 161.111 138.44 161.111 137.104C161.111 135.75 160.026 134.665 158.675 134.665C157.324 134.665 156.239 135.75 156.239 137.104C156.239 138.457 157.324 139.542 158.675 139.542Z" fill="#A0ACF4"/>
<path d="M150.05 139.542C151.401 139.542 152.486 138.44 152.486 137.104C152.486 135.75 151.401 134.665 150.05 134.665C148.699 134.665 147.614 135.75 147.614 137.104C147.598 138.457 148.699 139.542 150.05 139.542Z" fill="#8896D1"/>
<path d="M26.7793 199.996L26.8455 200.045L26.9947 200.029L26.7793 199.996Z" fill="#50333C"/>
</svg>
